0, 0, Header, 1, 7, 240
1, 0, Start_track
1, 0, Time_signature, 4, 2, 24, 8
1, 0, Tempo, 500000
1, 0, Marker_t, "Haydn: Sonata No. 38 in F Major, Hoboken XVI:23, played by Ron Lubetsky, M.D."
1, 984, Marker_t, "I. Allegro Moderato"
1, 202480, Marker_t, "II. Larghetto"
1, 421440, Marker_t, "III. Presto"
1, 421440, End_track
2, 0, Start_track
2, 0, Title_t, "Haydn: Sonata in F, Hob. XVI:2"
2, 0, Program_c, 0, 0
2, 0, Control_c, 0, 7, 127
2, 736, Control_c, 0, 64, 127
2, 874, Control_c, 0, 64, 0
2, 957, Control_c, 0, 64, 127
2, 1053, Note_on_c, 0, 72, 78
2, 1078, Control_c, 0, 64, 0
2, 1135, Control_c, 0, 64, 127
2, 1206, Note_on_c, 0, 69, 65
2, 1229, Note_off_c, 0, 72, 64
2, 1239, Control_c, 0, 64, 0
2, 1247, Note_on_c, 0, 53, 69
2, 1250, Note_on_c, 0, 65, 72
2, 1253, Note_on_c, 0, 57, 63
2, 1265, Note_off_c, 0, 69, 64
2, 1295, Control_c, 0, 64, 127
2, 1299, Note_off_c, 0, 65, 64
2, 1299, Note_off_c, 0, 53, 64
2, 1304, Note_off_c, 0, 57, 64
2, 1364, Control_c, 0, 64, 0
2, 1464, Note_on_c, 0, 69, 76
2, 1621, Note_on_c, 0, 65, 71
2, 1643, Note_off_c, 0, 69, 64
2, 1651, Note_on_c, 0, 48, 71
2, 1651, Note_on_c, 0, 58, 65
2, 1659, Note_on_c, 0, 64, 75
2, 1681, Note_off_c, 0, 65, 64
2, 1735, Control_c, 0, 64, 127
2, 1744, Note_off_c, 0, 48, 64
2, 1765, Note_off_c, 0, 58, 64
2, 1768, Note_off_c, 0, 64, 64
2, 1803, Control_c, 0, 64, 0
2, 1868, Note_on_c, 0, 67, 71
2, 2005, Note_on_c, 0, 64, 81
2, 2033, Note_off_c, 0, 67, 64
2, 2051, Note_on_c, 0, 53, 54
2, 2053, Note_on_c, 0, 65, 78
2, 2057, Note_on_c, 0, 57, 60
2, 2075, Note_off_c, 0, 64, 64
2, 2076, Control_c, 0, 64, 127
2, 2090, Note_off_c, 0, 65, 64
2, 2221, Note_off_c, 0, 57, 64
2, 2224, Note_off_c, 0, 53, 64
2, 2252, Control_c, 0, 64, 0
2, 2264, Note_on_c, 0, 70, 78
2, 2265, Note_on_c, 0, 74, 79
2, 2463, Note_off_c, 0, 70, 64
2, 2467, Note_on_c, 0, 72, 78
2, 2470, Note_on_c, 0, 69, 71
2, 2478, Control_c, 0, 64, 127
2, 2484, Note_off_c, 0, 74, 64
2, 2508, Note_off_c, 0, 69, 64
2, 2513, Note_off_c, 0, 72, 64
2, 2689, Control_c, 0, 64, 0
2, 2695, Note_on_c, 0, 79, 75
2, 2712, Control_c, 0, 64, 127
2, 2740, Note_on_c, 0, 77, 74
2, 2761, Note_off_c, 0, 79, 64
2, 2793, Note_on_c, 0, 76, 71
2, 2815, Note_off_c, 0, 77, 64
2, 2838, Note_on_c, 0, 74, 67
2, 2848, Control_c, 0, 64, 0
2, 2860, Note_off_c, 0, 76, 64
2, 2887, Note_on_c, 0, 72, 79
2, 2894, Note_off_c, 0, 74, 64
2, 2910, Control_c, 0, 64, 127
2, 3065, Note_off_c, 0, 72, 64
2, 3074, Control_c, 0, 64, 0
2, 3088, Note_on_c, 0, 81, 71
2, 3096, Note_on_c, 0, 65, 67
2, 3127, Control_c, 0, 64, 127
2, 3142, Note_on_c, 0, 69, 76
2, 3144, Note_off_c, 0, 81, 64
2, 3202, Note_on_c, 0, 74, 69
2, 3229, Note_off_c, 0, 69, 64
2, 3270, Control_c, 0, 64, 0
2, 3275, Note_on_c, 0, 72, 77
2, 3286, Note_off_c, 0, 65, 64
2, 3286, Note_on_c, 0, 67, 68
2, 3293, Note_off_c, 0, 74, 64
2, 3305, Control_c, 0, 64, 127
2, 3353, Note_off_c, 0, 72, 64
2, 3474, Note_on_c, 0, 72, 71
2, 3487, Note_on_c, 0, 60, 69
2, 3506, Note_off_c, 0, 67, 64
2, 3515, Note_on_c, 0, 70, 76
2, 3524, Note_off_c, 0, 72, 64
2, 3548, Note_on_c, 0, 72, 79
2, 3555, Note_off_c, 0, 70, 64
2, 3578, Note_on_c, 0, 70, 77
2, 3588, Note_off_c, 0, 72, 64
2, 3604, Note_on_c, 0, 69, 74
2, 3616, Note_off_c, 0, 70, 64
2, 3647, Note_on_c, 0, 70, 88
2, 3659, Note_off_c, 0, 69, 64
2, 3676, Note_off_c, 0, 70, 64
2, 3695, Note_on_c, 0, 70, 88
2, 3702, Note_off_c, 0, 60, 64
2, 3704, Note_on_c, 0, 65, 63
2, 3711, Control_c, 0, 64, 0
2, 3759, Control_c, 0, 64, 127
2, 3905, Note_on_c, 0, 60, 70
2, 3905, Control_c, 0, 64, 0
2, 3945, Control_c, 0, 64, 127
2, 3950, Note_off_c, 0, 65, 64
2, 4109, Control_c, 0, 64, 0
2, 4115, Note_on_c, 0, 69, 72
2, 4122, Note_on_c, 0, 53, 67
2, 4131, Note_off_c, 0, 70, 64
2, 4146, Note_off_c, 0, 60, 64
2, 4172, Control_c, 0, 64, 127
2, 4221, Note_off_c, 0, 69, 64
2, 4223, Note_off_c, 0, 53, 64
2, 4334, Note_on_c, 0, 72, 77
2, 4389, Note_off_c, 0, 72, 64
2, 4400, Note_on_c, 0, 69, 64
2, 4416, Note_on_c, 0, 72, 77
2, 4433, Note_off_c, 0, 69, 64
2, 4471, Note_off_c, 0, 72, 64
2, 4471, Note_on_c, 0, 69, 72
2, 4515, Control_c, 0, 64, 0
2, 4518, Note_on_c, 0, 65, 76
2, 4525, Note_on_c, 0, 53, 72
2, 4526, Note_on_c, 0, 57, 72
2, 4531, Note_off_c, 0, 69, 64
2, 4579, Note_off_c, 0, 65, 64
2, 4593, Note_off_c, 0, 53, 64
2, 4599, Control_c, 0, 64, 127
2, 4607, Note_off_c, 0, 57, 64
2, 4692, Control_c, 0, 64, 0
2, 4728, Note_on_c, 0, 70, 71
2, 4784, Note_off_c, 0, 70, 64
2, 4784, Note_on_c, 0, 69, 71
2, 4789, Control_c, 0, 64, 127
2, 4828, Note_on_c, 0, 67, 67
2, 4849, Note_off_c, 0, 69, 64
2, 4874, Note_on_c, 0, 65, 78
2, 4879, Control_c, 0, 64, 0
2, 4883, Note_off_c, 0, 67, 64
2, 4909, Note_on_c, 0, 48, 72
2, 4912, Note_on_c, 0, 58, 67
2, 4923, Note_on_c, 0, 64, 86
2, 4947, Note_off_c, 0, 65, 64
2, 4952, Control_c, 0, 64, 127
2, 4956, Note_off_c, 0, 48, 64
2, 4959, Note_off_c, 0, 58, 64
2, 4962, Note_off_c, 0, 64, 64
2, 5116, Note_on_c, 0, 69, 71
2, 5121, Control_c, 0, 64, 0
2, 5167, Note_on_c, 0, 67, 67
2, 5176, Note_off_c, 0, 69, 64
2, 5199, Note_on_c, 0, 65, 77
2, 5220, Note_off_c, 0, 67, 64
2, 5241, Note_on_c, 0, 64, 84
2, 5251, Note_off_c, 0, 65, 64
2, 5289, Note_on_c, 0, 65, 84
2, 5296, Note_on_c, 0, 53, 71
2, 5297, Note_on_c, 0, 57, 73
2, 5302, Note_off_c, 0, 64, 64
2, 5310, Control_c, 0, 64, 127
2, 5316, Note_off_c, 0, 65, 64
2, 5332, Note_off_c, 0, 57, 64
2, 5332, Note_off_c, 0, 53, 64
2, 5423, Note_on_c, 0, 74, 69
2, 5447, Note_on_c, 0, 76, 78
2, 5485, Note_off_c, 0, 74, 64
2, 5499, Control_c, 0, 64, 0
2, 5506, Note_on_c, 0, 79, 84
2, 5507, Note_off_c, 0, 76, 64
2, 5514, Note_on_c, 0, 70, 59
2, 5551, Note_on_c, 0, 77, 79
2, 5563, Control_c, 0, 64, 127
2, 5575, Note_off_c, 0, 79, 64
2, 5590, Note_on_c, 0, 76, 81
2, 5617, Note_off_c, 0, 77, 64
2, 5629, Note_on_c, 0, 74, 84
2, 5653, Note_off_c, 0, 76, 64
2, 5672, Control_c, 0, 64, 0
2, 5677, Note_off_c, 0, 74, 64
2, 5682, Note_on_c, 0, 72, 85
2, 5690, Note_on_c, 0, 69, 66
2, 5691, Note_off_c, 0, 70, 64
2, 5761, Control_c, 0, 64, 127
2, 5870, Control_c, 0, 64, 0
2, 5895, Note_off_c, 0, 69, 64
2, 5905, Note_on_c, 0, 84, 72
2, 5922, Control_c, 0, 64, 127
2, 5927, Note_off_c, 0, 72, 64
2, 5953, Note_on_c, 0, 81, 65
2, 5968, Note_off_c, 0, 84, 64
2, 5998, Note_on_c, 0, 77, 68
2, 6014, Note_off_c, 0, 81, 64
2, 6038, Note_on_c, 0, 72, 67
2, 6041, Note_off_c, 0, 77, 64
2, 6042, Control_c, 0, 64, 0
2, 6092, Note_on_c, 0, 69, 94
2, 6112, Note_off_c, 0, 72, 64
2, 6121, Control_c, 0, 64, 127
2, 6284, Control_c, 0, 64, 0
2, 6294, Note_on_c, 0, 60, 60
2, 6297, Note_on_c, 0, 65, 64
2, 6346, Control_c, 0, 64, 127
2, 6491, Control_c, 0, 64, 0
2, 6496, Note_on_c, 0, 70, 72
2, 6506, Note_on_c, 0, 67, 54
2, 6520, Note_off_c, 0, 69, 64
2, 6534, Note_off_c, 0, 70, 64
2, 6536, Note_off_c, 0, 65, 64
2, 6544, Control_c, 0, 64, 127
2, 6700, Control_c, 0, 64, 0
2, 6710, Note_on_c, 0, 82, 68
2, 6741, Note_off_c, 0, 60, 64
2, 6749, Control_c, 0, 64, 127
2, 6756, Note_on_c, 0, 79, 54
2, 6761, Note_off_c, 0, 67, 64
2, 6768, Note_off_c, 0, 82, 64
2, 6807, Note_on_c, 0, 76, 71
2, 6817, Note_off_c, 0, 79, 64
2, 6845, Note_off_c, 0, 76, 64
2, 6848, Note_on_c, 0, 72, 77
2, 6879, Control_c, 0, 64, 0
2, 6900, Note_on_c, 0, 70, 105
2, 6921, Note_off_c, 0, 72, 64
2, 6939, Control_c, 0, 64, 127
2, 7094, Control_c, 0, 64, 0
2, 7099, Note_on_c, 0, 64, 53
2, 7104, Note_on_c, 0, 60, 44
2, 7147, Control_c, 0, 64, 127
2, 7252, Note_off_c, 0, 64, 64
2, 7284, Note_off_c, 0, 60, 64
2, 7301, Control_c, 0, 64, 0
2, 7314, Note_on_c, 0, 62, 58
2, 7320, Note_on_c, 0, 69, 75
2, 7323, Note_on_c, 0, 65, 54
2, 7331, Note_off_c, 0, 70, 64
2, 7367, Control_c, 0, 64, 127
2, 7396, Note_off_c, 0, 69, 64
2, 7512, Control_c, 0, 64, 0
2, 7519, Note_off_c, 0, 65, 64
2, 7527, Note_off_c, 0, 62, 64
2, 7533, Note_on_c, 0, 77, 75
2, 7556, Control_c, 0, 64, 127
2, 7584, Note_on_c, 0, 72, 66
2, 7594, Note_off_c, 0, 77, 64
2, 7632, Note_on_c, 0, 69, 63
2, 7654, Note_off_c, 0, 72, 64
2, 7675, Note_on_c, 0, 65, 64
2, 7677, Note_off_c, 0, 69, 64
2, 7702, Control_c, 0, 64, 0
2, 7729, Note_on_c, 0, 63, 98
2, 7748, Note_off_c, 0, 65, 64
2, 7753, Control_c, 0, 64, 127
2, 7929, Note_on_c, 0, 57, 71
2, 7934, Note_on_c, 0, 53, 60
2, 7938, Control_c, 0, 64, 0
2, 7994, Control_c, 0, 64, 127
2, 8133, Note_off_c, 0, 53, 64
2, 8133, Note_on_c, 0, 55, 67
2, 8135, Note_on_c, 0, 58, 79
2, 8147, Note_off_c, 0, 57, 64
2, 8147, Control_c, 0, 64, 0
2, 8184, Control_c, 0, 64, 127
2, 8330, Control_c, 0, 64, 0
2, 8336, Note_on_c, 0, 57, 63
2, 8338, Note_on_c, 0, 60, 59
2, 8344, Note_off_c, 0, 58, 64
2, 8371, Note_off_c, 0, 55, 64
2, 8395, Control_c, 0, 64, 127
2, 8530, Control_c, 0, 64, 0
2, 8535, Note_on_c, 0, 58, 63
2, 8560, Note_off_c, 0, 60, 64
2, 8564, Note_off_c, 0, 57, 64
2, 8625, Note_on_c, 0, 61, 49
2, 8639, Note_off_c, 0, 63, 64
2, 8732, Note_on_c, 0, 62, 64
2, 8755, Note_off_c, 0, 61, 64
2, 8784, Control_c, 0, 64, 127
2, 8823, Note_off_c, 0, 62, 64
2, 8828, Note_on_c, 0, 66, 65
2, 8885, Note_off_c, 0, 66, 64
2, 8928, Note_on_c, 0, 67, 68
2, 8979, Note_off_c, 0, 58, 64
2, 9022, Note_on_c, 0, 69, 67
2, 9043, Note_off_c, 0, 67, 64
2, 9114, Note_on_c, 0, 70, 71
2, 9147, Note_off_c, 0, 69, 64
2, 9183, Note_off_c, 0, 70, 64
2, 9208, Note_on_c, 0, 74, 75
2, 9213, Note_on_c, 0, 70, 74
2, 9220, Note_on_c, 0, 46, 75
2, 9250, Note_off_c, 0, 70, 64
2, 9260, Note_off_c, 0, 74, 64
2, 9310, Note_on_c, 0, 70, 81
2, 9310, Control_c, 0, 64, 0
2, 9315, Note_off_c, 0, 46, 64
2, 9315, Note_on_c, 0, 74, 79
2, 9324, Note_on_c, 0, 48, 56
2, 9381, Note_off_c, 0, 74, 64
2, 9400, Note_on_c, 0, 72, 72
2, 9411, Note_off_c, 0, 70, 64
2, 9415, Note_on_c, 0, 69, 58
2, 9458, Control_c, 0, 64, 127
2, 9502, Note_on_c, 0, 70, 79
2, 9505, Note_on_c, 0, 67, 67
2, 9527, Note_off_c, 0, 69, 64
2, 9529, Note_off_c, 0, 72, 64
2, 9545, Note_off_c, 0, 70, 64
2, 9551, Note_off_c, 0, 67, 64
2, 9578, Note_off_c, 0, 48, 64
2, 9605, Note_on_c, 0, 65, 79
2, 9609, Note_on_c, 0, 69, 86
2, 9653, Control_c, 0, 64, 0
2, 9658, Note_off_c, 0, 69, 64
2, 9665, Note_off_c, 0, 65, 64
2, 9703, Note_on_c, 0, 69, 79
2, 9705, Note_on_c, 0, 72, 84
2, 9760, Control_c, 0, 64, 127
2, 9780, Note_off_c, 0, 72, 64
2, 9789, Note_on_c, 0, 70, 73
2, 9801, Note_on_c, 0, 67, 58
2, 9817, Note_off_c, 0, 69, 64
2, 9884, Note_off_c, 0, 67, 64
2, 9886, Note_off_c, 0, 70, 64
2, 9894, Note_on_c, 0, 65, 71
2, 9909, Note_on_c, 0, 69, 45
2, 9952, Note_off_c, 0, 65, 64
2, 9979, Note_off_c, 0, 69, 64
2, 9997, Note_on_c, 0, 67, 76
2, 10000, Note_on_c, 0, 48, 72
2, 10000, Note_on_c, 0, 64, 69
2, 10006, Note_on_c, 0, 58, 67
2, 10035, Note_off_c, 0, 64, 64
2, 10037, Note_off_c, 0, 67, 64
2, 10045, Note_off_c, 0, 58, 64
2, 10049, Note_off_c, 0, 48, 64
2, 10111, Note_on_c, 0, 67, 76
2, 10114, Note_on_c, 0, 64, 68
2, 10114, Note_on_c, 0, 58, 76
2, 10119, Note_on_c, 0, 53, 78
2, 10128, Control_c, 0, 64, 0
2, 10193, Control_c, 0, 64, 127
2, 10497, Note_off_c, 0, 58, 64
2, 10519, Control_c, 0, 64, 0
2, 10529, Note_off_c, 0, 64, 64
2, 10533, Note_on_c, 0, 65, 69
2, 10539, Note_on_c, 0, 57, 45
2, 10564, Note_off_c, 0, 67, 64
2, 10570, Note_off_c, 0, 65, 64
2, 10572, Control_c, 0, 64, 127
2, 10701, Note_off_c, 0, 53, 64
2, 10723, Note_off_c, 0, 57, 64
2, 10745, Note_on_c, 0, 84, 78
2, 10793, Note_on_c, 0, 81, 68
2, 10799, Note_off_c, 0, 84, 64
2, 10831, Note_on_c, 0, 84, 85
2, 10838, Note_off_c, 0, 81, 64
2, 10874, Note_on_c, 0, 81, 79
2, 10892, Note_off_c, 0, 84, 64
2, 10909, Control_c, 0, 64, 0
2, 10921, Note_on_c, 0, 77, 85
2, 10925, Note_off_c, 0, 81, 64
2, 10930, Note_on_c, 0, 65, 68
2, 10972, Note_off_c, 0, 77, 64
2, 10982, Control_c, 0, 64, 127
2, 11027, Note_on_c, 0, 69, 66
2, 11028, Note_off_c, 0, 65, 64
2, 11104, Control_c, 0, 64, 0
2, 11124, Note_on_c, 0, 65, 66
2, 11125, Control_c, 0, 64, 127
2, 11140, Note_off_c, 0, 69, 64
2, 11221, Note_on_c, 0, 81, 77
2, 11223, Note_on_c, 0, 69, 46
2, 11226, Note_off_c, 0, 65, 64
2, 11265, Note_off_c, 0, 81, 64
2, 11280, Control_c, 0, 64, 0
2, 11312, Note_on_c, 0, 65, 66
2, 11315, Note_on_c, 0, 79, 85
2, 11319, Note_off_c, 0, 69, 64
2, 11352, Note_off_c, 0, 79, 64
2, 11369, Control_c, 0, 64, 127
2, 11408, Note_on_c, 0, 69, 56
2, 11413, Note_off_c, 0, 65, 64
2, 11414, Note_on_c, 0, 77, 84
2, 11452, Note_off_c, 0, 77, 64
2, 11487, Control_c, 0, 64, 0
2, 11498, Control_c, 0, 64, 127
2, 11506, Note_on_c, 0, 65, 66
2, 11510, Note_off_c, 0, 69, 64
2, 11512, Note_on_c, 0, 76, 85
2, 11551, Note_off_c, 0, 76, 64
2, 11585, Note_off_c, 0, 65, 64
2, 11601, Note_on_c, 0, 74, 84
2, 11602, Note_on_c, 0, 69, 63
2, 11643, Note_off_c, 0, 74, 64
2, 11684, Note_off_c, 0, 69, 64
2, 11695, Note_on_c, 0, 74, 88
2, 11700, Note_on_c, 0, 64, 67
2, 11707, Control_c, 0, 64, 0
2, 11753, Control_c, 0, 64, 127
2, 11790, Note_off_c, 0, 64, 64
2, 11800, Note_on_c, 0, 67, 31
2, 11895, Note_on_c, 0, 64, 63
2, 11899, Note_off_c, 0, 67, 64
2, 11927, Note_off_c, 0, 74, 64
2, 11981, Note_off_c, 0, 64, 64
2, 12003, Note_on_c, 0, 67, 35
2, 12016, Note_on_c, 0, 76, 73
2, 12061, Note_on_c, 0, 74, 74
2, 12073, Control_c, 0, 64, 0
2, 12079, Note_off_c, 0, 76, 64
2, 12081, Note_on_c, 0, 64, 63
2, 12086, Note_off_c, 0, 67, 64
2, 12100, Control_c, 0, 64, 127
2, 12107, Note_on_c, 0, 73, 78
2, 12122, Note_off_c, 0, 74, 64
2, 12155, Note_off_c, 0, 64, 64
2, 12161, Note_off_c, 0, 73, 64
2, 12186, Note_on_c, 0, 67, 34
2, 12236, Note_off_c, 0, 67, 64
2, 12272, Note_on_c, 0, 64, 63
2, 12281, Note_on_c, 0, 76, 77
2, 12283, Control_c, 0, 64, 0
2, 12305, Control_c, 0, 64, 127
2, 12328, Note_on_c, 0, 73, 84
2, 12335, Note_off_c, 0, 76, 64
2, 12357, Note_off_c, 0, 64, 64
2, 12372, Note_on_c, 0, 67, 55
2, 12374, Note_on_c, 0, 76, 79
2, 12387, Note_off_c, 0, 73, 64
2, 12411, Note_on_c, 0, 73, 74
2, 12432, Note_off_c, 0, 67, 64
2, 12440, Note_off_c, 0, 76, 64
2, 12463, Note_on_c, 0, 69, 84
2, 12469, Note_off_c, 0, 73, 64
2, 12471, Note_on_c, 0, 61, 79
2, 12478, Control_c, 0, 64, 0
2, 12507, Note_off_c, 0, 69, 64
2, 12527, Control_c, 0, 64, 127
2, 12550, Note_off_c, 0, 61, 64
2, 12560, Note_on_c, 0, 64, 56
2, 12613, Note_off_c, 0, 64, 64
2, 12660, Note_on_c, 0, 61, 51
2, 12744, Note_on_c, 0, 82, 75
2, 12749, Note_off_c, 0, 61, 64
2, 12752, Note_on_c, 0, 64, 54
2, 12818, Note_off_c, 0, 82, 64
2, 12848, Note_on_c, 0, 81, 84
2, 12851, Note_off_c, 0, 64, 64
2, 12854, Note_on_c, 0, 61, 71
2, 12859, Control_c, 0, 64, 0
2, 12896, Note_off_c, 0, 81, 64
2, 12909, Control_c, 0, 64, 127
2, 12920, Note_off_c, 0, 61, 64
2, 12945, Note_on_c, 0, 79, 80
2, 12948, Note_on_c, 0, 69, 64
2, 12994, Note_off_c, 0, 79, 64
2, 13040, Note_on_c, 0, 77, 78
2, 13046, Note_on_c, 0, 61, 84
2, 13052, Note_off_c, 0, 69, 64
2, 13098, Note_off_c, 0, 77, 64
2, 13121, Note_off_c, 0, 61, 64
2, 13139, Note_on_c, 0, 76, 84
2, 13145, Note_on_c, 0, 69, 63
2, 13240, Note_on_c, 0, 62, 78
2, 13240, Control_c, 0, 64, 0
2, 13247, Note_off_c, 0, 69, 64
2, 13247, Note_on_c, 0, 79, 77
2, 13253, Note_off_c, 0, 76, 64
2, 13303, Control_c, 0, 64, 127
2, 13338, Note_on_c, 0, 69, 72
2, 13346, Note_off_c, 0, 62, 64
2, 13438, Note_on_c, 0, 62, 67
2, 13441, Note_off_c, 0, 69, 64
2, 13528, Note_off_c, 0, 62, 64
2, 13533, Note_on_c, 0, 76, 49
2, 13538, Note_on_c, 0, 69, 50
2, 13560, Note_off_c, 0, 79, 64
2, 13604, Control_c, 0, 64, 0
2, 13620, Note_on_c, 0, 62, 70
2, 13628, Note_on_c, 0, 77, 72
2, 13633, Note_off_c, 0, 69, 64
2, 13652, Note_off_c, 0, 76, 64
2, 13658, Control_c, 0, 64, 127
2, 13703, Note_off_c, 0, 77, 64
2, 13704, Note_off_c, 0, 62, 64
2, 13716, Note_on_c, 0, 69, 67
2, 13809, Note_on_c, 0, 62, 74
2, 13815, Note_off_c, 0, 69, 64
2, 13817, Note_on_c, 0, 81, 71
2, 13854, Note_on_c, 0, 77, 66
2, 13863, Note_off_c, 0, 81, 64
2, 13884, Note_off_c, 0, 62, 64
2, 13894, Note_on_c, 0, 69, 58
2, 13903, Note_on_c, 0, 81, 84
2, 13914, Note_off_c, 0, 77, 64
2, 13939, Note_on_c, 0, 77, 76
2, 13965, Note_off_c, 0, 81, 64
2, 13976, Note_off_c, 0, 69, 64
2, 13989, Note_on_c, 0, 74, 77
2, 13993, Note_off_c, 0, 77, 64
2, 13998, Control_c, 0, 64, 0
2, 14004, Note_on_c, 0, 59, 72
2, 14048, Control_c, 0, 64, 127
2, 14083, Note_off_c, 0, 59, 64
2, 14088, Note_on_c, 0, 67, 65
2, 14089, Note_off_c, 0, 74, 64
2, 14182, Note_off_c, 0, 67, 64
2, 14187, Note_on_c, 0, 59, 76
2, 14262, Note_off_c, 0, 59, 64
2, 14280, Note_on_c, 0, 86, 90
2, 14285, Note_on_c, 0, 67, 65
2, 14332, Note_off_c, 0, 86, 64
2, 14362, Note_off_c, 0, 67, 64
2, 14375, Note_on_c, 0, 84, 97
2, 14378, Note_on_c, 0, 59, 78
2, 14423, Note_off_c, 0, 84, 64
2, 14436, Note_off_c, 0, 59, 64
2, 14466, Note_on_c, 0, 67, 70
2, 14472, Note_on_c, 0, 83, 92
2, 14519, Note_off_c, 0, 83, 64
2, 14556, Note_off_c, 0, 67, 64
2, 14563, Note_on_c, 0, 59, 71
2, 14566, Note_on_c, 0, 81, 92
2, 14617, Note_off_c, 0, 81, 64
2, 14640, Note_off_c, 0, 59, 64
2, 14652, Note_on_c, 0, 79, 93
2, 14656, Note_on_c, 0, 67, 68
2, 14722, Note_off_c, 0, 79, 64
2, 14739, Control_c, 0, 64, 0
2, 14748, Note_on_c, 0, 60, 80
2, 14748, Note_on_c, 0, 77, 92
2, 14791, Note_off_c, 0, 67, 64
2, 14829, Control_c, 0, 64, 127
2, 14862, Note_on_c, 0, 67, 74
2, 14867, Note_off_c, 0, 60, 64
2, 14931, Note_on_c, 0, 76, 85
2, 14943, Note_on_c, 0, 60, 60
2, 14953, Note_off_c, 0, 67, 64
2, 14957, Note_off_c, 0, 77, 64
2, 15012, Note_off_c, 0, 60, 64
2, 15025, Note_on_c, 0, 79, 90
2, 15025, Note_on_c, 0, 67, 77
2, 15035, Note_off_c, 0, 76, 64
2, 15089, Note_off_c, 0, 67, 64
2, 15093, Note_off_c, 0, 79, 64
2, 15116, Control_c, 0, 64, 0
2, 15127, Note_on_c, 0, 77, 97
2, 15127, Note_on_c, 0, 52, 86
2, 15180, Note_off_c, 0, 77, 64
2, 15187, Control_c, 0, 64, 127
2, 15192, Note_off_c, 0, 52, 64
2, 15215, Note_on_c, 0, 60, 58
2, 15215, Note_on_c, 0, 76, 93
2, 15268, Note_off_c, 0, 60, 64
2, 15275, Note_off_c, 0, 76, 64
2, 15305, Note_on_c, 0, 74, 88
2, 15313, Note_on_c, 0, 52, 70
2, 15381, Note_off_c, 0, 74, 64
2, 15397, Note_on_c, 0, 72, 81
2, 15404, Note_off_c, 0, 52, 64
2, 15412, Note_on_c, 0, 60, 63
2, 15475, Note_off_c, 0, 60, 64
2, 15490, Note_on_c, 0, 53, 77
2, 15493, Note_on_c, 0, 71, 81
2, 15496, Control_c, 0, 64, 0
2, 15526, Note_off_c, 0, 72, 64
2, 15555, Control_c, 0, 64, 127
2, 15592, Note_on_c, 0, 60, 54
2, 15607, Note_off_c, 0, 53, 64
2, 15614, Note_off_c, 0, 71, 64
2, 15670, Note_off_c, 0, 60, 64
2, 15691, Note_on_c, 0, 53, 52
2, 15700, Note_on_c, 0, 69, 74
2, 15738, Note_on_c, 0, 72, 71
2, 15766, Note_off_c, 0, 69, 64
2, 15768, Note_on_c, 0, 77, 71
2, 15775, Note_off_c, 0, 53, 64
2, 15789, Note_off_c, 0, 72, 64
2, 15808, Note_on_c, 0, 81, 77
2, 15821, Note_off_c, 0, 77, 64
2, 15860, Note_on_c, 0, 53, 66
2, 15860, Note_on_c, 0, 79, 92
2, 15865, Control_c, 0, 64, 0
2, 15872, Note_off_c, 0, 81, 64
2, 15911, Note_off_c, 0, 79, 64
2, 15925, Control_c, 0, 64, 127
2, 15936, Note_off_c, 0, 53, 64
2, 15948, Note_on_c, 0, 62, 70
2, 15951, Note_on_c, 0, 77, 90
2, 16007, Note_off_c, 0, 77, 64
2, 16027, Note_off_c, 0, 62, 64
2, 16043, Note_on_c, 0, 54, 78
2, 16043, Control_c, 0, 64, 0
2, 16053, Note_on_c, 0, 76, 85
2, 16094, Control_c, 0, 64, 127
2, 16101, Note_off_c, 0, 76, 64
2, 16138, Note_off_c, 0, 54, 64
2, 16143, Note_on_c, 0, 74, 81
2, 16154, Note_on_c, 0, 62, 46
2, 16228, Note_off_c, 0, 74, 64
2, 16245, Note_on_c, 0, 72, 84
2, 16250, Note_on_c, 0, 55, 70
2, 16250, Control_c, 0, 64, 0
2, 16261, Note_off_c, 0, 62, 64
2, 16319, Control_c, 0, 64, 127
2, 16440, Note_on_c, 0, 71, 78
2, 16478, Note_off_c, 0, 72, 64
2, 16518, Note_off_c, 0, 55, 64
2, 16538, Note_on_c, 0, 62, 79
2, 16548, Control_c, 0, 64, 0
2, 16578, Note_on_c, 0, 59, 67
2, 16599, Control_c, 0, 64, 127
2, 16605, Note_off_c, 0, 62, 64
2, 16621, Note_on_c, 0, 55, 92
2, 16636, Note_off_c, 0, 59, 64
2, 16663, Note_off_c, 0, 55, 64
2, 16719, Note_on_c, 0, 69, 85
2, 16719, Note_on_c, 0, 65, 86
2, 16756, Note_off_c, 0, 69, 64
2, 16759, Note_off_c, 0, 65, 64
2, 16798, Note_off_c, 0, 71, 64
2, 16822, Note_on_c, 0, 67, 88
2, 16825, Note_on_c, 0, 64, 94
2, 16857, Note_off_c, 0, 64, 64
2, 16861, Note_off_c, 0, 67, 64
2, 16916, Note_on_c, 0, 65, 77
2, 16926, Note_on_c, 0, 62, 66
2, 16941, Note_off_c, 0, 62, 64
2, 16945, Note_off_c, 0, 65, 64
2, 17015, Note_on_c, 0, 64, 88
2, 17015, Note_on_c, 0, 60, 94
2, 17021, Control_c, 0, 64, 0
2, 17056, Note_on_c, 0, 79, 77
2, 17109, Note_on_c, 0, 81, 80
2, 17122, Note_off_c, 0, 79, 64
2, 17160, Note_on_c, 0, 79, 85
2, 17176, Note_off_c, 0, 81, 64
2, 17210, Note_on_c, 0, 84, 86
2, 17221, Note_off_c, 0, 79, 64
2, 17250, Control_c, 0, 64, 127
2, 17255, Note_on_c, 0, 83, 84
2, 17284, Note_off_c, 0, 84, 64
2, 17290, Note_on_c, 0, 81, 71
2, 17316, Note_off_c, 0, 83, 64
2, 17324, Note_off_c, 0, 60, 64
2, 17332, Note_off_c, 0, 64, 64
2, 17334, Note_on_c, 0, 79, 84
2, 17350, Note_off_c, 0, 81, 64
2, 17376, Note_on_c, 0, 77, 86
2, 17379, Note_off_c, 0, 79, 64
2, 17425, Note_on_c, 0, 76, 88
2, 17430, Note_off_c, 0, 77, 64
2, 17478, Note_on_c, 0, 74, 86
2, 17490, Note_off_c, 0, 76, 64
2, 17520, Note_on_c, 0, 72, 85
2, 17521, Note_off_c, 0, 74, 64
2, 17568, Note_on_c, 0, 71, 84
2, 17570, Note_on_c, 0, 64, 73
2, 17580, Note_off_c, 0, 72, 64
2, 17583, Control_c, 0, 64, 0
2, 17604, Note_on_c, 0, 72, 81
2, 17620, Note_off_c, 0, 71, 64
2, 17643, Control_c, 0, 64, 127
2, 17664, Note_off_c, 0, 72, 64
2, 17665, Note_on_c, 0, 74, 59
2, 17699, Note_on_c, 0, 72, 72
2, 17724, Note_off_c, 0, 74, 64
2, 17755, Note_off_c, 0, 72, 64
2, 17762, Note_on_c, 0, 69, 84
2, 17770, Note_off_c, 0, 64, 64
2, 17771, Note_on_c, 0, 65, 74
2, 17778, Control_c, 0, 64, 0
2, 17817, Note_on_c, 0, 72, 80
2, 17833, Note_off_c, 0, 69, 64
2, 17838, Control_c, 0, 64, 127
2, 17855, Note_on_c, 0, 74, 65
2, 17871, Note_off_c, 0, 72, 64
2, 17898, Note_off_c, 0, 65, 64
2, 17907, Note_on_c, 0, 72, 72
2, 17929, Note_off_c, 0, 74, 64
2, 17937, Control_c, 0, 64, 0
2, 17945, Note_on_c, 0, 64, 69
2, 17947, Note_on_c, 0, 67, 76
2, 17959, Note_off_c, 0, 72, 64
2, 18000, Control_c, 0, 64, 127
2, 18006, Note_on_c, 0, 72, 66
2, 18020, Note_off_c, 0, 67, 64
2, 18042, Note_on_c, 0, 74, 72
2, 18058, Note_off_c, 0, 72, 64
2, 18072, Note_off_c, 0, 64, 64
2, 18096, Note_on_c, 0, 72, 76
2, 18114, Note_off_c, 0, 74, 64
2, 18128, Control_c, 0, 64, 0
2, 18140, Note_on_c, 0, 65, 73
2, 18150, Note_off_c, 0, 72, 64
2, 18152, Note_on_c, 0, 62, 67
2, 18202, Control_c, 0, 64, 127
2, 18253, Note_on_c, 0, 77, 69
2, 18280, Note_off_c, 0, 65, 64
2, 18307, Note_off_c, 0, 77, 64
2, 18326, Control_c, 0, 64, 0
2, 18337, Note_on_c, 0, 55, 72
2, 18359, Note_off_c, 0, 62, 64
2, 18377, Control_c, 0, 64, 127
2, 18436, Note_on_c, 0, 77, 67
2, 18473, Note_off_c, 0, 55, 64
2, 18483, Note_off_c, 0, 77, 64
2, 18518, Control_c, 0, 64, 0
2, 18535, Note_on_c, 0, 60, 57
2, 18536, Note_on_c, 0, 76, 68
2, 18588, Note_on_c, 0, 79, 46
2, 18588, Control_c, 0, 64, 127
2, 18597, Note_off_c, 0, 76, 64
2, 18633, Note_on_c, 0, 81, 56
2, 18645, Note_off_c, 0, 79, 64
2, 18684, Note_on_c, 0, 79, 54
2, 18700, Note_off_c, 0, 81, 64
2, 18708, Control_c, 0, 64, 0
2, 18721, Note_off_c, 0, 60, 64
2, 18723, Note_on_c, 0, 64, 45
2, 18733, Note_on_c, 0, 84, 67
2, 18746, Note_off_c, 0, 79, 64
2, 18780, Note_on_c, 0, 83, 54
2, 18790, Control_c, 0, 64, 127
2, 18802, Note_off_c, 0, 84, 64
2, 18816, Note_on_c, 0, 81, 58
2, 18822, Note_off_c, 0, 64, 64
2, 18837, Note_off_c, 0, 83, 64
2, 18861, Note_on_c, 0, 79, 67
2, 18880, Note_off_c, 0, 81, 64
2, 18911, Note_off_c, 0, 79, 64
2, 18913, Note_on_c, 0, 77, 68
2, 18957, Note_off_c, 0, 77, 64
2, 18958, Note_on_c, 0, 76, 63
2, 19006, Note_on_c, 0, 74, 58
2, 19018, Note_off_c, 0, 76, 64
2, 19056, Note_off_c, 0, 74, 64
2, 19056, Note_on_c, 0, 72, 67
2, 19071, Control_c, 0, 64, 0
2, 19096, Note_on_c, 0, 64, 65
2, 19108, Note_on_c, 0, 71, 67
2, 19123, Note_off_c, 0, 72, 64
2, 19131, Note_off_c, 0, 64, 64
2, 19146, Note_on_c, 0, 72, 60
2, 19164, Note_off_c, 0, 71, 64
2, 19201, Note_off_c, 0, 72, 64
2, 19201, Note_on_c, 0, 74, 50
2, 19243, Note_on_c, 0, 72, 51
2, 19263, Note_off_c, 0, 74, 64
2, 19291, Note_off_c, 0, 72, 64
2, 19291, Note_on_c, 0, 65, 63
2, 19296, Note_on_c, 0, 69, 67
2, 19300, Control_c, 0, 64, 127
2, 19343, Note_on_c, 0, 72, 68
2, 19362, Note_off_c, 0, 69, 64
2, 19381, Note_on_c, 0, 74, 58
2, 19396, Note_off_c, 0, 72, 64
2, 19430, Note_on_c, 0, 72, 58
2, 19435, Note_off_c, 0, 65, 64
2, 19450, Note_off_c, 0, 74, 64
2, 19457, Control_c, 0, 64, 0
2, 19478, Note_on_c, 0, 64, 56
2, 19480, Note_on_c, 0, 67, 58
2, 19486, Note_off_c, 0, 72, 64
2, 19526, Note_on_c, 0, 72, 59
2, 19548, Control_c, 0, 64, 127
2, 19556, Note_off_c, 0, 67, 64
2, 19568, Note_on_c, 0, 74, 50
2, 19585, Note_off_c, 0, 72, 64
2, 19607, Note_off_c, 0, 64, 64
2, 19622, Note_on_c, 0, 72, 56
2, 19645, Note_off_c, 0, 74, 64
2, 19648, Control_c, 0, 64, 0
2, 19665, Note_on_c, 0, 62, 59
2, 19669, Note_on_c, 0, 65, 61
2, 19678, Note_off_c, 0, 72, 64
2, 19695, Note_off_c, 0, 62, 64
2, 19759, Note_on_c, 0, 77, 59
2, 19799, Note_off_c, 0, 65, 64
2, 19815, Note_off_c, 0, 77, 64
2, 19857, Note_on_c, 0, 55, 58
2, 19886, Control_c, 0, 64, 127
2, 19894, Note_off_c, 0, 55, 64
2, 19955, Note_on_c, 0, 77, 72
2, 20023, Note_off_c, 0, 77, 64
2, 20035, Control_c, 0, 64, 0
2, 20054, Note_on_c, 0, 76, 78
2, 20057, Note_on_c, 0, 60, 68
2, 20106, Note_on_c, 0, 77, 53
2, 20122, Note_off_c, 0, 76, 64
2, 20126, Control_c, 0, 64, 127
2, 20160, Note_on_c, 0, 79, 61
2, 20167, Note_off_c, 0, 77, 64
2, 20212, Note_on_c, 0, 77, 74
2, 20214, Control_c, 0, 64, 0
2, 20234, Note_off_c, 0, 79, 64
2, 20243, Note_on_c, 0, 62, 69
2, 20256, Note_on_c, 0, 76, 80
2, 20259, Note_off_c, 0, 60, 64
2, 20275, Note_off_c, 0, 77, 64
2, 20297, Control_c, 0, 64, 127
2, 20304, Note_on_c, 0, 74, 76
2, 20318, Note_off_c, 0, 76, 64
2, 20354, Note_off_c, 0, 74, 64
2, 20356, Note_on_c, 0, 72, 84
2, 20409, Note_on_c, 0, 71, 72
2, 20437, Note_off_c, 0, 62, 64
2, 20442, Note_on_c, 0, 64, 58
2, 20444, Note_off_c, 0, 72, 64
2, 20452, Note_on_c, 0, 72, 84
2, 20469, Note_off_c, 0, 71, 64
2, 20484, Note_on_c, 0, 74, 69
2, 20530, Note_on_c, 0, 76, 70
2, 20540, Note_off_c, 0, 72, 64
2, 20543, Note_off_c, 0, 74, 64
2, 20577, Note_on_c, 0, 74, 69
2, 20591, Note_off_c, 0, 76, 64
2, 20612, Note_on_c, 0, 72, 84
2, 20616, Note_on_c, 0, 52, 70
2, 20624, Control_c, 0, 64, 0
2, 20636, Note_off_c, 0, 74, 64
2, 20646, Control_c, 0, 64, 127
2, 20666, Note_on_c, 0, 70, 72
2, 20689, Note_off_c, 0, 72, 64
2, 20713, Note_off_c, 0, 70, 64
2, 20719, Note_on_c, 0, 69, 67
2, 20756, Note_on_c, 0, 68, 73
2, 20765, Note_off_c, 0, 52, 64
2, 20775, Note_off_c, 0, 69, 64
2, 20779, Note_off_c, 0, 64, 64
2, 20797, Control_c, 0, 64, 0
2, 20804, Note_on_c, 0, 53, 76
2, 20839, Note_off_c, 0, 68, 64
2, 20856, Note_on_c, 0, 69, 74
2, 20876, Control_c, 0, 64, 127
2, 20899, Note_on_c, 0, 71, 80
2, 20918, Note_off_c, 0, 69, 64
2, 20953, Note_on_c, 0, 73, 68
2, 20962, Note_off_c, 0, 71, 64
2, 20990, Note_on_c, 0, 74, 84
2, 21007, Note_off_c, 0, 73, 64
2, 21040, Note_on_c, 0, 76, 81
2, 21052, Note_off_c, 0, 74, 64
2, 21088, Note_on_c, 0, 77, 65
2, 21111, Note_off_c, 0, 76, 64
2, 21130, Note_on_c, 0, 79, 45
2, 21151, Note_off_c, 0, 77, 64
2, 21164, Note_on_c, 0, 81, 74
2, 21187, Note_off_c, 0, 79, 64
2, 21220, Note_on_c, 0, 77, 65
2, 21253, Note_off_c, 0, 81, 64
2, 21263, Note_on_c, 0, 74, 67
2, 21282, Note_off_c, 0, 77, 64
2, 21308, Note_off_c, 0, 74, 64
2, 21311, Note_on_c, 0, 69, 71
2, 21333, Control_c, 0, 64, 0
2, 21347, Note_off_c, 0, 53, 64
2, 21352, Note_on_c, 0, 52, 73
2, 21356, Note_off_c, 0, 69, 64
2, 21356, Note_on_c, 0, 79, 77
2, 21384, Control_c, 0, 64, 127
2, 21391, Note_on_c, 0, 76, 70
2, 21407, Note_off_c, 0, 52, 64
2, 21439, Note_on_c, 0, 72, 74
2, 21445, Note_off_c, 0, 79, 64
2, 21475, Note_off_c, 0, 76, 64
2, 21486, Note_on_c, 0, 69, 59
2, 21491, Note_off_c, 0, 72, 64
2, 21516, Note_off_c, 0, 69, 64
2, 21528, Control_c, 0, 64, 0
2, 21540, Note_on_c, 0, 50, 77
2, 21540, Note_on_c, 0, 59, 79
2, 21581, Control_c, 0, 64, 127
2, 21597, Note_on_c, 0, 77, 85
2, 21636, Note_on_c, 0, 79, 81
2, 21654, Note_off_c, 0, 77, 64
2, 21684, Note_on_c, 0, 81, 74
2, 21702, Note_off_c, 0, 79, 64
2, 21720, Note_on_c, 0, 83, 84
2, 21769, Note_on_c, 0, 84, 79
2, 21773, Note_off_c, 0, 81, 64
2, 21815, Note_on_c, 0, 86, 73
2, 21816, Note_off_c, 0, 83, 64
2, 21853, Note_on_c, 0, 88, 65
2, 21870, Note_off_c, 0, 84, 64
2, 21898, Note_on_c, 0, 89, 86
2, 21902, Note_off_c, 0, 86, 64
2, 21928, Note_off_c, 0, 88, 64
2, 21951, Note_on_c, 0, 86, 76
2, 21965, Note_off_c, 0, 59, 64
2, 21982, Note_on_c, 0, 83, 79
2, 21992, Note_off_c, 0, 89, 64
2, 21999, Note_off_c, 0, 86, 64
2, 22021, Note_off_c, 0, 50, 64
2, 22023, Note_off_c, 0, 83, 64
2, 22024, Note_on_c, 0, 77, 86
2, 22074, Note_on_c, 0, 52, 65
2, 22075, Note_on_c, 0, 76, 92
2, 22076, Note_on_c, 0, 60, 73
2, 22082, Control_c, 0, 64, 0
2, 22096, Note_off_c, 0, 77, 64
2, 22109, Note_off_c, 0, 76, 64
2, 22152, Control_c, 0, 64, 127
2, 22188, Note_on_c, 0, 84, 79
2, 22226, Note_off_c, 0, 84, 64
2, 22251, Note_off_c, 0, 60, 64
2, 22285, Control_c, 0, 64, 0
2, 22289, Note_on_c, 0, 53, 77
2, 22314, Note_off_c, 0, 52, 64
2, 22369, Control_c, 0, 64, 127
2, 22377, Note_on_c, 0, 77, 76
2, 22377, Note_on_c, 0, 81, 71
2, 22426, Note_off_c, 0, 81, 64
2, 22428, Note_off_c, 0, 77, 64
2, 22435, Control_c, 0, 64, 0
2, 22452, Note_off_c, 0, 53, 64
2, 22476, Note_on_c, 0, 76, 84
2, 22480, Note_on_c, 0, 79, 76
2, 22515, Note_off_c, 0, 79, 64
2, 22518, Note_off_c, 0, 76, 64
2, 22551, Control_c, 0, 64, 127
2, 22567, Note_on_c, 0, 77, 86
2, 22570, Note_on_c, 0, 74, 76
2, 22586, Control_c, 0, 64, 0
2, 22604, Note_off_c, 0, 77, 64
2, 22605, Note_off_c, 0, 74, 64
2, 22669, Note_on_c, 0, 76, 85
2, 22669, Note_on_c, 0, 72, 77
2, 22708, Note_off_c, 0, 72, 64
2, 22711, Note_off_c, 0, 76, 64
2, 22761, Note_on_c, 0, 79, 80
2, 22764, Note_on_c, 0, 76, 79
2, 22798, Note_off_c, 0, 76, 64
2, 22799, Note_off_c, 0, 79, 64
2, 22860, Note_on_c, 0, 43, 76
2, 22866, Note_on_c, 0, 55, 71
2, 22875, Control_c, 0, 64, 127
2, 22908, Note_off_c, 0, 43, 64
2, 22911, Note_off_c, 0, 55, 64
2, 22956, Note_on_c, 0, 65, 74
2, 22959, Note_on_c, 0, 71, 79
2, 22993, Note_off_c, 0, 65, 64
2, 23002, Note_off_c, 0, 71, 64
2, 23040, Control_c, 0, 64, 0
2, 23063, Note_on_c, 0, 44, 79
2, 23065, Note_on_c, 0, 63, 88
2, 23069, Note_on_c, 0, 72, 76
2, 23072, Note_on_c, 0, 56, 77
2, 23087, Control_c, 0, 64, 127
2, 23094, Note_off_c, 0, 63, 64
2, 23101, Note_off_c, 0, 44, 64
2, 23106, Note_off_c, 0, 72, 64
2, 23107, Note_off_c, 0, 56, 64
2, 23174, Note_on_c, 0, 75, 96
2, 23214, Note_off_c, 0, 75, 64
2, 23259, Control_c, 0, 64, 0
2, 23267, Note_on_c, 0, 56, 66
2, 23268, Note_on_c, 0, 60, 75
2, 23315, Note_off_c, 0, 60, 64
2, 23321, Control_c, 0, 64, 127
2, 23327, Note_off_c, 0, 56, 64
2, 23365, Note_on_c, 0, 75, 86
2, 23419, Note_off_c, 0, 75, 64
2, 23463, Control_c, 0, 64, 0
2, 23468, Note_on_c, 0, 56, 84
2, 23473, Note_on_c, 0, 60, 84
2, 23523, Note_off_c, 0, 60, 64
2, 23525, Note_off_c, 0, 56, 64
2, 23531, Note_on_c, 0, 75, 81
2, 23535, Control_c, 0, 64, 127
2, 23579, Note_on_c, 0, 74, 69
2, 23594, Note_off_c, 0, 75, 64
2, 23624, Note_on_c, 0, 75, 80
2, 23641, Control_c, 0, 64, 0
2, 23647, Note_off_c, 0, 74, 64
2, 23667, Note_on_c, 0, 56, 84
2, 23671, Note_on_c, 0, 60, 80
2, 23676, Note_on_c, 0, 77, 66
2, 23683, Note_off_c, 0, 75, 64
2, 23707, Control_c, 0, 64, 127
2, 23717, Note_off_c, 0, 60, 64
2, 23722, Note_on_c, 0, 75, 86
2, 23725, Note_off_c, 0, 56, 64
2, 23735, Note_off_c, 0, 77, 64
2, 23765, Note_off_c, 0, 75, 64
2, 23767, Note_on_c, 0, 74, 84
2, 23804, Note_on_c, 0, 75, 90
2, 23821, Note_off_c, 0, 74, 64
2, 23855, Control_c, 0, 64, 0
2, 23860, Note_on_c, 0, 84, 88
2, 23866, Note_on_c, 0, 60, 84
2, 23866, Note_on_c, 0, 55, 84
2, 23872, Note_off_c, 0, 75, 64
2, 23913, Note_off_c, 0, 84, 64
2, 23919, Control_c, 0, 64, 127
2, 23929, Note_off_c, 0, 60, 64
2, 23934, Note_off_c, 0, 55, 64
2, 23970, Note_on_c, 0, 75, 88
2, 24012, Note_off_c, 0, 75, 64
2, 24045, Control_c, 0, 64, 0
2, 24068, Note_on_c, 0, 60, 77
2, 24071, Note_on_c, 0, 55, 78
2, 24077, Control_c, 0, 64, 127
2, 24114, Note_off_c, 0, 60, 64
2, 24117, Note_off_c, 0, 55, 64
2, 24159, Note_on_c, 0, 75, 86
2, 24208, Note_off_c, 0, 75, 64
2, 24248, Control_c, 0, 64, 0
2, 24265, Note_on_c, 0, 60, 74
2, 24266, Note_on_c, 0, 55, 70
2, 24273, Control_c, 0, 64, 127
2, 24310, Note_off_c, 0, 60, 64
2, 24312, Note_on_c, 0, 75, 71
2, 24316, Note_off_c, 0, 55, 64
2, 24362, Note_on_c, 0, 74, 79
2, 24372, Note_off_c, 0, 75, 64
2, 24408, Note_on_c, 0, 75, 71
2, 24427, Note_off_c, 0, 74, 64
2, 24446, Note_on_c, 0, 55, 66
2, 24448, Note_on_c, 0, 60, 71
2, 24458, Note_on_c, 0, 77, 77
2, 24464, Note_off_c, 0, 75, 64
2, 24500, Note_off_c, 0, 60, 64
2, 24506, Note_off_c, 0, 55, 64
2, 24507, Note_on_c, 0, 75, 85
2, 24520, Note_off_c, 0, 77, 64
2, 24552, Note_on_c, 0, 74, 81
2, 24554, Note_off_c, 0, 75, 64
2, 24591, Note_on_c, 0, 75, 85
2, 24613, Note_off_c, 0, 74, 64
2, 24636, Control_c, 0, 64, 0
2, 24643, Note_on_c, 0, 54, 78
2, 24647, Note_on_c, 0, 84, 98
2, 24651, Note_on_c, 0, 60, 78
2, 24661, Note_off_c, 0, 75, 64
2, 24697, Note_off_c, 0, 84, 64
2, 24704, Note_off_c, 0, 54, 64
2, 24705, Note_off_c, 0, 60, 64
2, 24711, Control_c, 0, 64, 127
2, 24763, Note_on_c, 0, 75, 90
2, 24816, Note_off_c, 0, 75, 64
2, 24843, Note_on_c, 0, 60, 66
2, 24850, Note_on_c, 0, 54, 65
2, 24902, Note_off_c, 0, 54, 64
2, 24904, Note_off_c, 0, 60, 64
2, 24945, Note_on_c, 0, 75, 84
2, 24994, Note_off_c, 0, 75, 64
2, 25044, Note_on_c, 0, 60, 72
2, 25045, Note_on_c, 0, 54, 72
2, 25089, Note_off_c, 0, 54, 64
2, 25090, Note_on_c, 0, 75, 87
2, 25096, Note_off_c, 0, 60, 64
2, 25134, Note_on_c, 0, 74, 80
2, 25137, Note_off_c, 0, 75, 64
2, 25180, Note_on_c, 0, 75, 77
2, 25201, Note_off_c, 0, 74, 64
2, 25227, Note_on_c, 0, 60, 67
2, 25228, Note_on_c, 0, 54, 66
2, 25229, Note_on_c, 0, 77, 79
2, 25241, Note_off_c, 0, 75, 64
2, 25279, Note_off_c, 0, 54, 64
2, 25280, Note_on_c, 0, 75, 92
2, 25284, Note_off_c, 0, 60, 64
2, 25301, Note_off_c, 0, 77, 64
2, 25321, Note_on_c, 0, 74, 76
2, 25337, Note_off_c, 0, 75, 64
2, 25369, Note_off_c, 0, 74, 64
2, 25369, Note_on_c, 0, 72, 88
2, 25422, Note_on_c, 0, 71, 88
2, 25436, Note_on_c, 0, 55, 71
2, 25437, Note_off_c, 0, 72, 64
2, 25439, Control_c, 0, 64, 0
2, 25447, Note_on_c, 0, 59, 60
2, 25473, Note_on_c, 0, 72, 75
2, 25489, Note_off_c, 0, 71, 64
2, 25493, Control_c, 0, 64, 127
2, 25519, Note_on_c, 0, 74, 69
2, 25534, Note_off_c, 0, 72, 64
2, 25567, Note_off_c, 0, 59, 64
2, 25572, Note_on_c, 0, 72, 77
2, 25588, Note_off_c, 0, 74, 64
2, 25603, Note_on_c, 0, 71, 86
2, 25610, Note_off_c, 0, 55, 64
2, 25612, Note_on_c, 0, 57, 70
2, 25616, Control_c, 0, 64, 0
2, 25622, Note_on_c, 0, 60, 68
2, 25640, Note_off_c, 0, 72, 64
2, 25649, Control_c, 0, 64, 127
2, 25657, Note_on_c, 0, 69, 77
2, 25674, Note_off_c, 0, 71, 64
2, 25703, Note_off_c, 0, 69, 64
2, 25705, Note_on_c, 0, 67, 85
2, 25749, Note_on_c, 0, 66, 86
2, 25762, Note_off_c, 0, 67, 64
2, 25792, Note_off_c, 0, 60, 64
2, 25800, Note_on_c, 0, 59, 67
2, 25803, Note_on_c, 0, 62, 70
2, 25807, Note_off_c, 0, 66, 64
2, 25810, Note_on_c, 0, 67, 79
2, 25811, Control_c, 0, 64, 0
2, 25818, Note_off_c, 0, 57, 64
2, 25896, Control_c, 0, 64, 127
2, 25922, Note_on_c, 0, 74, 72
2, 25958, Note_off_c, 0, 67, 64
2, 25973, Note_on_c, 0, 72, 71
2, 25981, Note_off_c, 0, 62, 64
2, 25990, Note_off_c, 0, 74, 64
2, 26000, Note_off_c, 0, 59, 64
2, 26020, Note_on_c, 0, 71, 74
2, 26038, Note_off_c, 0, 72, 64
2, 26050, Note_on_c, 0, 69, 84
2, 26072, Note_off_c, 0, 71, 64
2, 26096, Note_on_c, 0, 67, 84
2, 26101, Note_off_c, 0, 69, 64
2, 26140, Note_on_c, 0, 65, 77
2, 26148, Note_off_c, 0, 67, 64
2, 26181, Note_off_c, 0, 65, 64
2, 26193, Note_on_c, 0, 60, 69
2, 26195, Note_on_c, 0, 64, 81
2, 26204, Control_c, 0, 64, 0
2, 26244, Note_on_c, 0, 72, 88
2, 26263, Control_c, 0, 64, 127
2, 26270, Note_off_c, 0, 64, 64
2, 26294, Note_on_c, 0, 71, 84
2, 26306, Note_off_c, 0, 72, 64
2, 26343, Control_c, 0, 64, 0
2, 26347, Note_on_c, 0, 72, 81
2, 26357, Note_off_c, 0, 71, 64
2, 26361, Note_off_c, 0, 60, 64
2, 26396, Note_on_c, 0, 76, 88
2, 26405, Note_off_c, 0, 72, 64
2, 26415, Control_c, 0, 64, 127
2, 26447, Note_on_c, 0, 72, 81
2, 26464, Note_off_c, 0, 76, 64
2, 26496, Note_on_c, 0, 71, 72
2, 26504, Note_off_c, 0, 72, 64
2, 26542, Note_on_c, 0, 72, 81
2, 26556, Note_off_c, 0, 71, 64
2, 26571, Control_c, 0, 64, 0
2, 26589, Note_on_c, 0, 64, 88
2, 26594, Note_on_c, 0, 67, 88
2, 26596, Note_off_c, 0, 72, 64
2, 26632, Control_c, 0, 64, 127
2, 26640, Note_on_c, 0, 72, 84
2, 26676, Note_off_c, 0, 67, 64
2, 26684, Note_off_c, 0, 64, 64
2, 26693, Note_on_c, 0, 71, 77
2, 26701, Note_off_c, 0, 72, 64
2, 26741, Note_on_c, 0, 72, 84
2, 26752, Note_off_c, 0, 71, 64
2, 26753, Control_c, 0, 64, 0
2, 26789, Note_on_c, 0, 69, 88
2, 26793, Note_on_c, 0, 65, 90
2, 26797, Note_off_c, 0, 72, 64
2, 26836, Note_on_c, 0, 72, 85
2, 26842, Note_off_c, 0, 65, 64
2, 26852, Control_c, 0, 64, 127
2, 26858, Note_off_c, 0, 69, 64
2, 26884, Note_on_c, 0, 71, 78
2, 26897, Note_off_c, 0, 72, 64
2, 26929, Note_on_c, 0, 72, 81
2, 26945, Note_off_c, 0, 71, 64
2, 26963, Control_c, 0, 64, 0
2, 26978, Note_on_c, 0, 64, 84
2, 26982, Note_on_c, 0, 67, 88
2, 26987, Note_off_c, 0, 72, 64
2, 27024, Note_on_c, 0, 72, 81
2, 27071, Note_on_c, 0, 71, 85
2, 27080, Control_c, 0, 64, 127
2, 27090, Note_off_c, 0, 72, 64
2, 27093, Note_off_c, 0, 67, 64
2, 27124, Note_on_c, 0, 72, 78
2, 27140, Note_off_c, 0, 71, 64
2, 27144, Note_off_c, 0, 64, 64
2, 27167, Note_on_c, 0, 76, 80
2, 27177, Note_off_c, 0, 72, 64
2, 27222, Note_on_c, 0, 72, 70
2, 27244, Note_off_c, 0, 76, 64
2, 27266, Note_off_c, 0, 72, 64
2, 27274, Note_on_c, 0, 71, 80
2, 27312, Note_on_c, 0, 72, 84
2, 27327, Note_off_c, 0, 71, 64
2, 27344, Control_c, 0, 64, 0
2, 27361, Note_on_c, 0, 64, 79
2, 27366, Note_on_c, 0, 79, 96
2, 27373, Note_off_c, 0, 72, 64
2, 27418, Note_on_c, 0, 72, 84
2, 27434, Control_c, 0, 64, 127
2, 27441, Note_off_c, 0, 79, 64
2, 27443, Note_off_c, 0, 64, 64
2, 27470, Note_on_c, 0, 71, 84
2, 27473, Note_off_c, 0, 72, 64
2, 27516, Note_on_c, 0, 72, 76
2, 27531, Note_off_c, 0, 71, 64
2, 27553, Control_c, 0, 64, 0
2, 27565, Note_on_c, 0, 81, 96
2, 27570, Note_on_c, 0, 65, 86
2, 27576, Note_off_c, 0, 72, 64
2, 27611, Note_on_c, 0, 72, 86
2, 27616, Control_c, 0, 64, 127
2, 27630, Note_off_c, 0, 65, 64
2, 27636, Note_off_c, 0, 81, 64
2, 27665, Note_on_c, 0, 71, 84
2, 27668, Note_off_c, 0, 72, 64
2, 27711, Note_on_c, 0, 72, 79
2, 27736, Note_off_c, 0, 71, 64
2, 27753, Control_c, 0, 64, 0
2, 27765, Note_on_c, 0, 79, 88
2, 27768, Note_on_c, 0, 64, 92
2, 27774, Note_off_c, 0, 72, 64
2, 27816, Note_on_c, 0, 72, 81
2, 27835, Note_off_c, 0, 79, 64
2, 27835, Control_c, 0, 64, 127
2, 27866, Note_on_c, 0, 71, 85
2, 27871, Note_off_c, 0, 72, 64
2, 27917, Note_on_c, 0, 72, 88
2, 27930, Note_off_c, 0, 64, 64
2, 27933, Note_off_c, 0, 71, 64
2, 27944, Control_c, 0, 64, 0
2, 27972, Note_on_c, 0, 76, 97
2, 27980, Note_off_c, 0, 72, 64
2, 28012, Control_c, 0, 64, 127
2, 28019, Note_on_c, 0, 72, 79
2, 28031, Note_off_c, 0, 76, 64
2, 28062, Note_on_c, 0, 71, 77
2, 28077, Note_off_c, 0, 72, 64
2, 28113, Note_on_c, 0, 72, 81
2, 28123, Note_off_c, 0, 71, 64
2, 28159, Control_c, 0, 64, 0
2, 28165, Note_off_c, 0, 72, 64
2, 28166, Note_on_c, 0, 67, 84
2, 28169, Note_on_c, 0, 64, 77
2, 28207, Note_on_c, 0, 72, 81
2, 28223, Control_c, 0, 64, 127
2, 28243, Note_off_c, 0, 64, 64
2, 28249, Note_off_c, 0, 67, 64
2, 28260, Note_on_c, 0, 71, 86
2, 28279, Note_off_c, 0, 72, 64
2, 28313, Note_on_c, 0, 72, 84
2, 28329, Note_off_c, 0, 71, 64
2, 28358, Control_c, 0, 64, 0
2, 28370, Note_on_c, 0, 65, 88
2, 28371, Note_on_c, 0, 69, 88
2, 28374, Note_off_c, 0, 72, 64
2, 28407, Note_on_c, 0, 72, 78
2, 28415, Control_c, 0, 64, 127
2, 28419, Note_off_c, 0, 65, 64
2, 28436, Note_off_c, 0, 69, 64
2, 28461, Note_on_c, 0, 71, 81
2, 28477, Note_off_c, 0, 72, 64
2, 28514, Note_on_c, 0, 72, 80
2, 28530, Note_off_c, 0, 71, 64
2, 28551, Control_c, 0, 64, 0
2, 28558, Note_on_c, 0, 67, 86
2, 28560, Note_on_c, 0, 64, 88
2, 28566, Note_off_c, 0, 72, 64
2, 28608, Note_on_c, 0, 72, 85
2, 28631, Control_c, 0, 64, 127
2, 28649, Note_on_c, 0, 71, 84
2, 28665, Note_off_c, 0, 67, 64
2, 28666, Note_off_c, 0, 72, 64
2, 28700, Note_off_c, 0, 64, 64
2, 28709, Note_on_c, 0, 72, 79
2, 28720, Note_off_c, 0, 71, 64
2, 28742, Note_on_c, 0, 76, 86
2, 28755, Note_off_c, 0, 72, 64
2, 28795, Note_on_c, 0, 72, 73
2, 28816, Note_off_c, 0, 76, 64
2, 28842, Note_off_c, 0, 72, 64
2, 28845, Note_on_c, 0, 71, 85
2, 28886, Note_on_c, 0, 72, 90
2, 28905, Note_off_c, 0, 71, 64
2, 28923, Control_c, 0, 64, 0
2, 28937, Note_on_c, 0, 64, 72
2, 28940, Note_on_c, 0, 79, 90
2, 28952, Note_off_c, 0, 72, 64
2, 28989, Note_on_c, 0, 72, 84
2, 28995, Control_c, 0, 64, 127
2, 29011, Note_off_c, 0, 79, 64
2, 29023, Note_off_c, 0, 64, 64
2, 29036, Note_on_c, 0, 71, 79
2, 29046, Note_off_c, 0, 72, 64
2, 29075, Note_on_c, 0, 72, 79
2, 29096, Note_off_c, 0, 71, 64
2, 29123, Control_c, 0, 64, 0
2, 29136, Note_off_c, 0, 72, 64
2, 29136, Note_on_c, 0, 81, 94
2, 29138, Note_on_c, 0, 65, 73
2, 29183, Note_on_c, 0, 72, 78
2, 29186, Control_c, 0, 64, 127
2, 29197, Note_off_c, 0, 65, 64
2, 29202, Note_off_c, 0, 81, 64
2, 29233, Note_on_c, 0, 71, 69
2, 29242, Note_off_c, 0, 72, 64
2, 29284, Note_on_c, 0, 72, 78
2, 29308, Note_off_c, 0, 71, 64
2, 29323, Control_c, 0, 64, 0
2, 29329, Note_on_c, 0, 64, 79
2, 29338, Note_on_c, 0, 79, 94
2, 29352, Note_off_c, 0, 72, 64
2, 29380, Note_on_c, 0, 72, 79
2, 29387, Control_c, 0, 64, 127
2, 29391, Note_off_c, 0, 64, 64
2, 29405, Note_off_c, 0, 79, 64
2, 29429, Note_on_c, 0, 71, 73
2, 29439, Note_off_c, 0, 72, 64
2, 29480, Note_on_c, 0, 72, 80
2, 29501, Note_off_c, 0, 71, 64
2, 29514, Control_c, 0, 64, 0
2, 29528, Note_on_c, 0, 65, 77
2, 29535, Note_on_c, 0, 81, 88
2, 29543, Note_off_c, 0, 72, 64
2, 29575, Control_c, 0, 64, 127
2, 29581, Note_off_c, 0, 65, 64
2, 29583, Note_on_c, 0, 72, 81
2, 29604, Note_off_c, 0, 81, 64
2, 29635, Note_on_c, 0, 71, 68
2, 29646, Note_off_c, 0, 72, 64
2, 29685, Note_on_c, 0, 72, 77
2, 29708, Note_off_c, 0, 71, 64
2, 29724, Control_c, 0, 64, 0
2, 29732, Note_on_c, 0, 64, 74
2, 29736, Note_on_c, 0, 79, 96
2, 29749, Note_off_c, 0, 72, 64
2, 29776, Control_c, 0, 64, 127
2, 29785, Note_off_c, 0, 64, 64
2, 29785, Note_on_c, 0, 72, 84
2, 29806, Note_off_c, 0, 79, 64
2, 29837, Note_on_c, 0, 71, 72
2, 29844, Note_off_c, 0, 72, 64
2, 29876, Note_on_c, 0, 72, 78
2, 29897, Note_off_c, 0, 71, 64
2, 29914, Control_c, 0, 64, 0
2, 29929, Note_on_c, 0, 81, 96
2, 29935, Note_on_c, 0, 65, 72
2, 29938, Note_off_c, 0, 72, 64
2, 29959, Control_c, 0, 64, 127
2, 29975, Note_on_c, 0, 72, 81
2, 29980, Note_off_c, 0, 65, 64
2, 29997, Note_off_c, 0, 81, 64
2, 30033, Note_on_c, 0, 71, 74
2, 30037, Note_off_c, 0, 72, 64
2, 30079, Note_on_c, 0, 72, 76
2, 30101, Note_off_c, 0, 71, 64
2, 30116, Note_on_c, 0, 64, 61
2, 30117, Control_c, 0, 64, 0
2, 30129, Note_on_c, 0, 79, 85
2, 30140, Note_off_c, 0, 72, 64
2, 30177, Control_c, 0, 64, 127
2, 30181, Note_on_c, 0, 72, 73
2, 30206, Note_off_c, 0, 79, 64
2, 30232, Note_on_c, 0, 71, 56
2, 30238, Note_off_c, 0, 72, 64
2, 30276, Note_on_c, 0, 72, 73
2, 30279, Note_off_c, 0, 64, 64
2, 30300, Note_off_c, 0, 71, 64
2, 30328, Note_on_c, 0, 79, 84
2, 30330, Note_off_c, 0, 72, 64
2, 30375, Note_on_c, 0, 72, 76
2, 30399, Note_off_c, 0, 79, 64
2, 30423, Note_on_c, 0, 71, 73
2, 30429, Note_off_c, 0, 72, 64
2, 30468, Note_on_c, 0, 72, 77
2, 30490, Note_off_c, 0, 71, 64
2, 30512, Note_on_c, 0, 63, 72
2, 30516, Control_c, 0, 64, 0
2, 30521, Note_on_c, 0, 67, 71
2, 30521, Note_on_c, 0, 79, 90
2, 30528, Note_off_c, 0, 72, 64
2, 30567, Note_on_c, 0, 72, 79
2, 30588, Control_c, 0, 64, 127
2, 30593, Note_off_c, 0, 79, 64
2, 30615, Note_on_c, 0, 71, 77
2, 30624, Note_off_c, 0, 72, 64
2, 30661, Note_on_c, 0, 72, 76
2, 30684, Note_off_c, 0, 71, 64
2, 30713, Note_on_c, 0, 79, 84
2, 30720, Note_off_c, 0, 72, 64
2, 30768, Note_on_c, 0, 72, 79
2, 30770, Note_off_c, 0, 67, 64
2, 30781, Note_off_c, 0, 63, 64
2, 30785, Note_off_c, 0, 79, 64
2, 30812, Note_on_c, 0, 71, 77
2, 30820, Note_off_c, 0, 72, 64
2, 30858, Note_on_c, 0, 72, 71
2, 30880, Note_off_c, 0, 71, 64
2, 30884, Note_on_c, 0, 62, 71
2, 30890, Note_on_c, 0, 69, 67
2, 30892, Note_on_c, 0, 78, 85
2, 30904, Control_c, 0, 64, 0
2, 30910, Note_off_c, 0, 72, 64
2, 30948, Note_on_c, 0, 72, 76
2, 30956, Note_off_c, 0, 78, 64
2, 30974, Control_c, 0, 64, 127
2, 30996, Note_on_c, 0, 71, 66
2, 31004, Note_off_c, 0, 72, 64
2, 31032, Note_on_c, 0, 72, 73
2, 31060, Note_off_c, 0, 71, 64
2, 31079, Note_on_c, 0, 78, 88
2, 31093, Note_off_c, 0, 72, 64
2, 31129, Note_off_c, 0, 69, 64
2, 31138, Note_on_c, 0, 72, 61
2, 31140, Note_off_c, 0, 78, 64
2, 31144, Note_off_c, 0, 62, 64
2, 31171, Note_on_c, 0, 71, 72
2, 31175, Note_off_c, 0, 72, 64
2, 31209, Note_on_c, 0, 72, 72
2, 31229, Note_off_c, 0, 71, 64
2, 31266, Note_off_c, 0, 72, 64
2, 31281, Note_on_c, 0, 77, 85
2, 31287, Note_on_c, 0, 59, 71
2, 31290, Note_on_c, 0, 67, 76
2, 31291, Control_c, 0, 64, 0
2, 31325, Note_on_c, 0, 74, 77
2, 31342, Note_off_c, 0, 77, 64
2, 31344, Control_c, 0, 64, 127
2, 31387, Note_off_c, 0, 74, 64
2, 31392, Note_on_c, 0, 73, 84
2, 31432, Note_on_c, 0, 74, 71
2, 31450, Note_off_c, 0, 73, 64
2, 31478, Note_on_c, 0, 77, 76
2, 31492, Note_off_c, 0, 74, 64
2, 31517, Note_on_c, 0, 74, 77
2, 31536, Note_off_c, 0, 77, 64
2, 31548, Note_off_c, 0, 67, 64
2, 31566, Note_on_c, 0, 73, 81
2, 31579, Note_off_c, 0, 74, 64
2, 31607, Note_on_c, 0, 74, 76
2, 31617, Note_off_c, 0, 73, 64
2, 31667, Note_on_c, 0, 60, 67
2, 31670, Note_on_c, 0, 67, 66
2, 31677, Note_on_c, 0, 76, 79
2, 31680, Note_off_c, 0, 74, 64
2, 31684, Control_c, 0, 64, 0
2, 31696, Note_off_c, 0, 59, 64
2, 31760, Control_c, 0, 64, 127
2, 31767, Note_on_c, 0, 84, 73
2, 31779, Note_off_c, 0, 76, 64
2, 31848, Note_off_c, 0, 84, 64
2, 31870, Note_on_c, 0, 86, 86
2, 31901, Note_off_c, 0, 67, 64
2, 31918, Note_off_c, 0, 60, 64
2, 31923, Note_on_c, 0, 84, 84
2, 31946, Note_off_c, 0, 86, 64
2, 31962, Note_on_c, 0, 83, 79
2, 31986, Note_off_c, 0, 84, 64
2, 32002, Note_on_c, 0, 81, 86
2, 32016, Note_off_c, 0, 83, 64
2, 32043, Note_off_c, 0, 81, 64
2, 32071, Note_on_c, 0, 81, 100
2, 32107, Note_on_c, 0, 79, 76
2, 32142, Note_off_c, 0, 81, 64
2, 32154, Note_on_c, 0, 77, 72
2, 32181, Note_off_c, 0, 79, 64
2, 32204, Note_on_c, 0, 76, 86
2, 32213, Note_off_c, 0, 77, 64
2, 32251, Note_off_c, 0, 76, 64
2, 32258, Note_on_c, 0, 60, 67
2, 32259, Note_on_c, 0, 52, 72
2, 32272, Note_on_c, 0, 76, 84
2, 32311, Note_on_c, 0, 74, 67
2, 32320, Note_off_c, 0, 52, 64
2, 32343, Note_off_c, 0, 76, 64
2, 32354, Note_on_c, 0, 72, 84
2, 32385, Note_off_c, 0, 74, 64
2, 32408, Note_on_c, 0, 71, 81
2, 32424, Note_off_c, 0, 72, 64
2, 32455, Note_off_c, 0, 71, 64
2, 32456, Note_on_c, 0, 69, 84
2, 32464, Control_c, 0, 64, 0
2, 32470, Note_on_c, 0, 53, 54
2, 32514, Control_c, 0, 64, 127
2, 32562, Note_on_c, 0, 80, 74
2, 32615, Note_off_c, 0, 69, 64
2, 32619, Note_on_c, 0, 81, 67
2, 32623, Note_off_c, 0, 80, 64
2, 32658, Control_c, 0, 64, 0
2, 32662, Note_on_c, 0, 79, 79
2, 32672, Note_on_c, 0, 65, 63
2, 32682, Control_c, 0, 64, 127
2, 32688, Note_off_c, 0, 81, 64
2, 32696, Note_off_c, 0, 53, 64
2, 32711, Note_off_c, 0, 60, 64
2, 32711, Note_on_c, 0, 77, 84
2, 32726, Note_off_c, 0, 79, 64
2, 32750, Note_off_c, 0, 65, 64
2, 32763, Note_on_c, 0, 76, 73
2, 32777, Note_off_c, 0, 77, 64
2, 32802, Note_on_c, 0, 74, 84
2, 32808, Note_off_c, 0, 76, 64
2, 32850, Control_c, 0, 64, 0
2, 32858, Note_on_c, 0, 72, 96
2, 32861, Note_on_c, 0, 55, 67
2, 32862, Note_on_c, 0, 64, 71
2, 32866, Note_off_c, 0, 74, 64
2, 32895, Control_c, 0, 64, 127
2, 32949, Note_off_c, 0, 72, 64
2, 33020, Note_on_c, 0, 72, 81
2, 33037, Note_off_c, 0, 64, 64
2, 33041, Note_on_c, 0, 62, 59
2, 33059, Note_on_c, 0, 71, 79
2, 33064, Note_off_c, 0, 72, 64
2, 33091, Note_on_c, 0, 72, 81
2, 33104, Note_off_c, 0, 71, 64
2, 33129, Note_off_c, 0, 55, 64
2, 33129, Note_on_c, 0, 71, 67
2, 33142, Note_off_c, 0, 72, 64
2, 33157, Note_on_c, 0, 69, 78
2, 33169, Note_off_c, 0, 71, 64
2, 33180, Note_off_c, 0, 62, 64
2, 33187, Note_on_c, 0, 71, 71
2, 33196, Note_off_c, 0, 69, 64
2, 33210, Note_off_c, 0, 71, 64
2, 33234, Note_on_c, 0, 60, 66
2, 33239, Note_on_c, 0, 64, 67
2, 33247, Note_on_c, 0, 72, 84
2, 33251, Control_c, 0, 64, 0
2, 33279, Control_c, 0, 64, 127
2, 33310, Note_on_c, 0, 84, 45
2, 33315, Note_off_c, 0, 72, 64
2, 33342, Note_on_c, 0, 83, 51
2, 33353, Note_off_c, 0, 84, 64
2, 33400, Note_on_c, 0, 84, 63
2, 33420, Note_off_c, 0, 83, 64
2, 33455, Note_on_c, 0, 86, 63
2, 33463, Note_off_c, 0, 84, 64
2, 33504, Note_on_c, 0, 84, 57
2, 33529, Note_off_c, 0, 86, 64
2, 33537, Note_on_c, 0, 83, 68
2, 33561, Note_off_c, 0, 84, 64
2, 33575, Note_on_c, 0, 81, 75
2, 33586, Note_off_c, 0, 83, 64
2, 33609, Note_off_c, 0, 81, 64
2, 33647, Note_on_c, 0, 81, 80
2, 33654, Note_off_c, 0, 60, 64
2, 33678, Note_on_c, 0, 79, 67
2, 33710, Note_off_c, 0, 81, 64
2, 33733, Note_on_c, 0, 77, 58
2, 33754, Note_off_c, 0, 79, 64
2, 33777, Note_on_c, 0, 76, 67
2, 33792, Note_off_c, 0, 77, 64
2, 33816, Note_off_c, 0, 76, 64
2, 33826, Note_off_c, 0, 64, 64
2, 33844, Note_on_c, 0, 76, 63
2, 33847, Note_on_c, 0, 52, 56
2, 33852, Note_on_c, 0, 60, 46
2, 33874, Note_on_c, 0, 74, 60
2, 33915, Note_off_c, 0, 76, 64
2, 33928, Note_on_c, 0, 72, 59
2, 33934, Note_off_c, 0, 52, 64
2, 33952, Note_off_c, 0, 74, 64
2, 33975, Note_on_c, 0, 71, 67
2, 33997, Note_off_c, 0, 72, 64
2, 34022, Note_off_c, 0, 71, 64
2, 34026, Note_on_c, 0, 69, 68
2, 34036, Note_on_c, 0, 53, 51
2, 34045, Control_c, 0, 64, 0
2, 34094, Control_c, 0, 64, 127
2, 34138, Note_on_c, 0, 80, 57
2, 34185, Note_off_c, 0, 69, 64
2, 34192, Note_on_c, 0, 81, 56
2, 34202, Note_off_c, 0, 80, 64
2, 34227, Control_c, 0, 64, 0
2, 34239, Note_on_c, 0, 79, 73
2, 34240, Control_c, 0, 64, 127
2, 34247, Note_on_c, 0, 65, 46
2, 34253, Note_off_c, 0, 81, 64
2, 34297, Note_off_c, 0, 53, 64
2, 34297, Note_on_c, 0, 77, 54
2, 34306, Note_off_c, 0, 79, 64
2, 34316, Note_off_c, 0, 60, 64
2, 34336, Note_on_c, 0, 76, 59
2, 34351, Note_off_c, 0, 77, 64
2, 34368, Note_off_c, 0, 65, 64
2, 34382, Note_on_c, 0, 74, 67
2, 34390, Note_off_c, 0, 76, 64
2, 34428, Note_on_c, 0, 55, 55
2, 34429, Note_on_c, 0, 64, 58
2, 34435, Control_c, 0, 64, 0
2, 34438, Note_on_c, 0, 72, 71
2, 34464, Note_off_c, 0, 74, 64
2, 34467, Control_c, 0, 64, 127
2, 34531, Note_off_c, 0, 72, 64
2, 34609, Note_on_c, 0, 72, 64
2, 34618, Note_on_c, 0, 62, 57
2, 34627, Note_off_c, 0, 64, 64
2, 34645, Note_off_c, 0, 55, 64
2, 34649, Note_on_c, 0, 71, 58
2, 34654, Note_off_c, 0, 62, 64
2, 34656, Note_off_c, 0, 72, 64
2, 34677, Note_on_c, 0, 72, 63
2, 34692, Note_off_c, 0, 71, 64
2, 34721, Note_on_c, 0, 71, 56
2, 34732, Note_off_c, 0, 72, 64
2, 34751, Note_on_c, 0, 69, 60
2, 34762, Note_off_c, 0, 71, 64
2, 34786, Note_on_c, 0, 71, 60
2, 34811, Note_off_c, 0, 69, 64
2, 34818, Note_on_c, 0, 72, 70
2, 34821, Note_on_c, 0, 48, 63
2, 34828, Control_c, 0, 64, 0
2, 34834, Note_off_c, 0, 71, 64
2, 34866, Control_c, 0, 64, 127
2, 34873, Note_off_c, 0, 48, 64
2, 34874, Note_on_c, 0, 60, 84
2, 34876, Note_off_c, 0, 72, 64
2, 34926, Note_on_c, 0, 59, 79
2, 34927, Note_off_c, 0, 60, 64
2, 34970, Note_off_c, 0, 59, 64
2, 34974, Note_on_c, 0, 60, 84
2, 35005, Control_c, 0, 64, 0
2, 35024, Note_on_c, 0, 69, 76
2, 35025, Note_on_c, 0, 48, 86
2, 35028, Note_off_c, 0, 60, 64
2, 35029, Note_on_c, 0, 65, 73
2, 35063, Note_on_c, 0, 60, 88
2, 35064, Control_c, 0, 64, 127
2, 35070, Note_off_c, 0, 48, 64
2, 35078, Note_off_c, 0, 65, 64
2, 35089, Note_off_c, 0, 69, 64
2, 35118, Note_on_c, 0, 59, 84
2, 35124, Note_off_c, 0, 60, 64
2, 35161, Note_off_c, 0, 59, 64
2, 35168, Note_on_c, 0, 60, 84
2, 35193, Control_c, 0, 64, 0
2, 35214, Note_off_c, 0, 60, 64
2, 35217, Note_on_c, 0, 67, 73
2, 35220, Note_on_c, 0, 64, 66
2, 35225, Note_on_c, 0, 48, 94
2, 35260, Note_on_c, 0, 60, 86
2, 35266, Note_off_c, 0, 67, 64
2, 35268, Note_off_c, 0, 48, 64
2, 35268, Note_off_c, 0, 64, 64
2, 35272, Control_c, 0, 64, 127
2, 35318, Note_on_c, 0, 59, 88
2, 35320, Note_off_c, 0, 60, 64
2, 35364, Note_off_c, 0, 59, 64
2, 35365, Note_on_c, 0, 60, 85
2, 35398, Control_c, 0, 64, 0
2, 35417, Note_on_c, 0, 62, 71
2, 35418, Note_on_c, 0, 65, 74
2, 35421, Note_on_c, 0, 71, 78
2, 35424, Note_off_c, 0, 60, 64
2, 35427, Note_on_c, 0, 48, 97
2, 35462, Note_off_c, 0, 65, 64
2, 35462, Note_off_c, 0, 62, 64
2, 35465, Note_off_c, 0, 48, 64
2, 35465, Note_on_c, 0, 60, 86
2, 35472, Note_off_c, 0, 71, 64
2, 35506, Control_c, 0, 64, 127
2, 35522, Note_on_c, 0, 59, 79
2, 35525, Note_off_c, 0, 60, 64
2, 35567, Note_off_c, 0, 59, 64
2, 35569, Note_on_c, 0, 60, 84
2, 35595, Control_c, 0, 64, 0
2, 35616, Note_on_c, 0, 64, 72
2, 35618, Note_off_c, 0, 60, 64
2, 35619, Note_on_c, 0, 67, 75
2, 35623, Note_on_c, 0, 72, 74
2, 35625, Note_on_c, 0, 48, 90
2, 35635, Control_c, 0, 64, 127
2, 35652, Note_off_c, 0, 64, 64
2, 35654, Note_off_c, 0, 67, 64
2, 35662, Note_on_c, 0, 60, 85
2, 35668, Note_off_c, 0, 48, 64
2, 35672, Note_off_c, 0, 72, 64
2, 35718, Note_on_c, 0, 59, 84
2, 35722, Note_off_c, 0, 60, 64
2, 35763, Note_off_c, 0, 59, 64
2, 35767, Note_on_c, 0, 60, 84
2, 35802, Control_c, 0, 64, 0
2, 35817, Note_off_c, 0, 60, 64
2, 35819, Note_on_c, 0, 81, 70
2, 35820, Note_on_c, 0, 77, 75
2, 35824, Note_on_c, 0, 48, 94
2, 35858, Note_on_c, 0, 60, 86
2, 35865, Note_off_c, 0, 48, 64
2, 35865, Note_off_c, 0, 77, 64
2, 35874, Note_off_c, 0, 81, 64
2, 35917, Note_on_c, 0, 59, 84
2, 35920, Note_off_c, 0, 60, 64
2, 35961, Note_off_c, 0, 59, 64
2, 35963, Note_on_c, 0, 60, 88
2, 36010, Note_on_c, 0, 79, 77
2, 36015, Note_on_c, 0, 76, 71
2, 36021, Note_off_c, 0, 60, 64
2, 36023, Note_on_c, 0, 48, 96
2, 36025, Control_c, 0, 64, 127
2, 36061, Note_on_c, 0, 60, 86
2, 36064, Note_off_c, 0, 48, 64
2, 36067, Note_off_c, 0, 79, 64
2, 36070, Note_off_c, 0, 76, 64
2, 36116, Note_on_c, 0, 59, 86
2, 36122, Note_off_c, 0, 60, 64
2, 36159, Note_off_c, 0, 59, 64
2, 36166, Note_on_c, 0, 60, 84
2, 36203, Control_c, 0, 64, 0
2, 36214, Note_off_c, 0, 60, 64
2, 36229, Note_on_c, 0, 48, 85
2, 36229, Note_on_c, 0, 74, 71
2, 36230, Note_on_c, 0, 83, 77
2, 36230, Note_on_c, 0, 77, 79
2, 36260, Note_on_c, 0, 60, 86
2, 36266, Note_off_c, 0, 48, 64
2, 36270, Note_off_c, 0, 74, 64
2, 36272, Note_off_c, 0, 77, 64
2, 36282, Note_off_c, 0, 83, 64
2, 36318, Note_on_c, 0, 59, 79
2, 36324, Note_off_c, 0, 60, 64
2, 36369, Note_on_c, 0, 60, 76
2, 36376, Note_off_c, 0, 59, 64
2, 36453, Note_on_c, 0, 48, 78
2, 36455, Note_on_c, 0, 76, 69
2, 36459, Note_on_c, 0, 79, 74
2, 36463, Note_on_c, 0, 84, 68
2, 36559, Control_c, 0, 64, 127
2, 36587, Note_off_c, 0, 60, 64
2, 36710, Note_off_c, 0, 48, 64
2, 36725, Note_off_c, 0, 84, 64
2, 36738, Note_off_c, 0, 79, 64
2, 36747, Note_off_c, 0, 76, 64
2, 37046, Control_c, 0, 64, 0
2, 37125, Note_on_c, 0, 72, 74
2, 37283, Note_on_c, 0, 69, 73
2, 37310, Note_off_c, 0, 72, 64
2, 37329, Note_on_c, 0, 65, 78
2, 37334, Note_on_c, 0, 53, 64
2, 37346, Note_on_c, 0, 57, 50
2, 37348, Note_off_c, 0, 69, 64
2, 37384, Note_off_c, 0, 65, 64
2, 37485, Note_off_c, 0, 53, 64
2, 37489, Note_off_c, 0, 57, 64
2, 37541, Note_on_c, 0, 69, 77
2, 37685, Note_on_c, 0, 65, 69
2, 37708, Note_off_c, 0, 69, 64
2, 37730, Note_on_c, 0, 64, 77
2, 37744, Note_on_c, 0, 58, 65
2, 37747, Note_on_c, 0, 48, 61
2, 37754, Note_off_c, 0, 65, 64
2, 37813, Note_off_c, 0, 64, 64
2, 37844, Note_off_c, 0, 48, 64
2, 37852, Note_off_c, 0, 58, 64
2, 37950, Note_on_c, 0, 67, 76
2, 38102, Note_on_c, 0, 64, 70
2, 38124, Note_off_c, 0, 67, 64
2, 38140, Note_on_c, 0, 65, 74
2, 38143, Note_on_c, 0, 53, 58
2, 38153, Note_on_c, 0, 57, 54
2, 38162, Note_off_c, 0, 64, 64
2, 38177, Control_c, 0, 64, 127
2, 38184, Note_off_c, 0, 65, 64
2, 38352, Control_c, 0, 64, 0
2, 38358, Note_on_c, 0, 70, 74
2, 38358, Note_on_c, 0, 74, 77
2, 38363, Note_off_c, 0, 53, 64
2, 38366, Note_off_c, 0, 57, 64
2, 38569, Note_on_c, 0, 69, 67
2, 38570, Note_on_c, 0, 72, 77
2, 38578, Control_c, 0, 64, 127
2, 38583, Note_off_c, 0, 70, 64
2, 38593, Note_off_c, 0, 74, 64
2, 38606, Note_off_c, 0, 72, 64
2, 38615, Note_off_c, 0, 69, 64
2, 38763, Control_c, 0, 64, 0
2, 38781, Note_on_c, 0, 79, 78
2, 38835, Note_on_c, 0, 77, 71
2, 38842, Control_c, 0, 64, 127
2, 38858, Note_off_c, 0, 79, 64
2, 38887, Note_on_c, 0, 76, 71
2, 38910, Note_off_c, 0, 77, 64
2, 38933, Note_on_c, 0, 74, 79
2, 38956, Note_off_c, 0, 76, 64
2, 38959, Control_c, 0, 64, 0
2, 38985, Note_on_c, 0, 72, 71
2, 38993, Note_off_c, 0, 74, 64
2, 39011, Control_c, 0, 64, 127
2, 39155, Note_off_c, 0, 72, 64
2, 39166, Note_on_c, 0, 81, 72
2, 39174, Note_on_c, 0, 65, 71
2, 39179, Control_c, 0, 64, 0
2, 39213, Note_off_c, 0, 81, 64
2, 39220, Control_c, 0, 64, 127
2, 39227, Note_on_c, 0, 69, 84
2, 39288, Note_on_c, 0, 74, 76
2, 39320, Note_off_c, 0, 69, 64
2, 39355, Note_on_c, 0, 72, 81
2, 39363, Note_on_c, 0, 67, 69
2, 39364, Control_c, 0, 64, 0
2, 39372, Note_off_c, 0, 65, 64
2, 39372, Note_off_c, 0, 74, 64
2, 39396, Control_c, 0, 64, 127
2, 39440, Note_off_c, 0, 72, 64
2, 39539, Note_on_c, 0, 72, 54
2, 39559, Note_on_c, 0, 60, 66
2, 39584, Note_on_c, 0, 70, 80
2, 39592, Note_off_c, 0, 67, 64
2, 39599, Note_off_c, 0, 72, 64
2, 39609, Note_on_c, 0, 72, 72
2, 39616, Note_off_c, 0, 70, 64
2, 39650, Note_on_c, 0, 70, 84
2, 39662, Note_off_c, 0, 72, 64
2, 39681, Note_on_c, 0, 69, 81
2, 39696, Note_off_c, 0, 70, 64
2, 39723, Note_on_c, 0, 70, 86
2, 39734, Note_off_c, 0, 69, 64
2, 39750, Note_off_c, 0, 70, 64
2, 39761, Control_c, 0, 64, 0
2, 39768, Note_on_c, 0, 70, 86
2, 39773, Note_on_c, 0, 65, 65
2, 39774, Note_off_c, 0, 60, 64
2, 39824, Control_c, 0, 64, 127
2, 39960, Control_c, 0, 64, 0
2, 39971, Note_on_c, 0, 60, 65
2, 40008, Control_c, 0, 64, 127
2, 40016, Note_off_c, 0, 65, 64
2, 40183, Control_c, 0, 64, 0
2, 40188, Note_on_c, 0, 69, 76
2, 40194, Note_on_c, 0, 53, 58
2, 40218, Note_off_c, 0, 70, 64
2, 40240, Note_off_c, 0, 60, 64
2, 40255, Control_c, 0, 64, 127
2, 40316, Note_off_c, 0, 69, 64
2, 40355, Note_off_c, 0, 53, 64
2, 40357, Control_c, 0, 64, 0
2, 40375, Note_on_c, 0, 72, 76
2, 40429, Note_on_c, 0, 69, 81
2, 40432, Note_off_c, 0, 72, 64
2, 40464, Control_c, 0, 64, 127
2, 40471, Note_on_c, 0, 72, 81
2, 40481, Note_off_c, 0, 69, 64
2, 40512, Note_on_c, 0, 69, 76
2, 40535, Note_off_c, 0, 72, 64
2, 40537, Control_c, 0, 64, 0
2, 40564, Note_on_c, 0, 57, 73
2, 40567, Note_on_c, 0, 65, 81
2, 40568, Note_on_c, 0, 53, 71
2, 40574, Note_off_c, 0, 69, 64
2, 40627, Control_c, 0, 64, 127
2, 40633, Note_off_c, 0, 65, 64
2, 40657, Note_off_c, 0, 57, 64
2, 40664, Note_off_c, 0, 53, 64
2, 40731, Control_c, 0, 64, 0
2, 40777, Note_on_c, 0, 70, 73
2, 40825, Note_on_c, 0, 69, 65
2, 40829, Note_off_c, 0, 70, 64
2, 40867, Note_on_c, 0, 67, 65
2, 40894, Note_off_c, 0, 69, 64
2, 40916, Note_on_c, 0, 65, 76
2, 40920, Note_off_c, 0, 67, 64
2, 40962, Note_on_c, 0, 48, 67
2, 40968, Note_on_c, 0, 58, 63
2, 40968, Note_on_c, 0, 64, 85
2, 40992, Note_off_c, 0, 65, 64
2, 40992, Control_c, 0, 64, 127
2, 41020, Note_off_c, 0, 64, 64
2, 41086, Note_off_c, 0, 48, 64
2, 41124, Note_off_c, 0, 58, 64
2, 41134, Control_c, 0, 64, 0
2, 41181, Note_on_c, 0, 69, 67
2, 41224, Note_on_c, 0, 67, 65
2, 41245, Note_off_c, 0, 69, 64
2, 41261, Note_on_c, 0, 65, 68
2, 41284, Note_off_c, 0, 67, 64
2, 41307, Note_on_c, 0, 64, 81
2, 41318, Note_off_c, 0, 65, 64
2, 41360, Note_on_c, 0, 53, 68
2, 41360, Note_on_c, 0, 65, 84
2, 41364, Note_on_c, 0, 57, 71
2, 41371, Note_off_c, 0, 64, 64
2, 41377, Control_c, 0, 64, 127
2, 41389, Note_off_c, 0, 65, 64
2, 41398, Note_off_c, 0, 53, 64
2, 41400, Note_off_c, 0, 57, 64
2, 41480, Note_on_c, 0, 74, 84
2, 41517, Note_on_c, 0, 76, 66
2, 41530, Note_off_c, 0, 74, 64
2, 41567, Control_c, 0, 64, 0
2, 41573, Note_on_c, 0, 70, 67
2, 41573, Note_on_c, 0, 79, 88
2, 41575, Note_off_c, 0, 76, 64
2, 41617, Note_on_c, 0, 77, 84
2, 41631, Control_c, 0, 64, 127
2, 41640, Note_off_c, 0, 79, 64
2, 41656, Note_on_c, 0, 76, 80
2, 41684, Note_off_c, 0, 77, 64
2, 41701, Note_on_c, 0, 74, 81
2, 41725, Note_off_c, 0, 76, 64
2, 41748, Control_c, 0, 64, 0
2, 41755, Note_on_c, 0, 72, 85
2, 41760, Note_off_c, 0, 74, 64
2, 41768, Note_on_c, 0, 69, 66
2, 41772, Note_off_c, 0, 70, 64
2, 41846, Control_c, 0, 64, 127
2, 41949, Control_c, 0, 64, 0
2, 41952, Note_off_c, 0, 69, 64
2, 41986, Note_on_c, 0, 84, 69
2, 41988, Control_c, 0, 64, 127
2, 42009, Note_off_c, 0, 72, 64
2, 42033, Note_on_c, 0, 81, 69
2, 42046, Note_off_c, 0, 84, 64
2, 42082, Note_on_c, 0, 77, 70
2, 42093, Note_off_c, 0, 81, 64
2, 42115, Control_c, 0, 64, 0
2, 42121, Note_off_c, 0, 77, 64
2, 42123, Note_on_c, 0, 72, 84
2, 42176, Note_on_c, 0, 69, 86
2, 42198, Note_off_c, 0, 72, 64
2, 42206, Control_c, 0, 64, 127
2, 42388, Control_c, 0, 64, 0
2, 42394, Note_on_c, 0, 60, 49
2, 42394, Note_on_c, 0, 65, 64
2, 42456, Control_c, 0, 64, 127
2, 42611, Control_c, 0, 64, 0
2, 42616, Note_on_c, 0, 70, 72
2, 42621, Note_on_c, 0, 67, 60
2, 42636, Note_off_c, 0, 65, 64
2, 42639, Note_off_c, 0, 69, 64
2, 42660, Note_off_c, 0, 70, 64
2, 42675, Control_c, 0, 64, 127
2, 42820, Control_c, 0, 64, 0
2, 42836, Note_on_c, 0, 82, 75
2, 42861, Control_c, 0, 64, 127
2, 42886, Note_on_c, 0, 79, 66
2, 42895, Note_off_c, 0, 82, 64
2, 42896, Note_off_c, 0, 60, 64
2, 42908, Note_off_c, 0, 67, 64
2, 42933, Note_on_c, 0, 76, 52
2, 42948, Note_off_c, 0, 79, 64
2, 42975, Note_on_c, 0, 72, 58
2, 42979, Note_off_c, 0, 76, 64
2, 43017, Control_c, 0, 64, 0
2, 43032, Note_on_c, 0, 70, 105
2, 43053, Note_off_c, 0, 72, 64
2, 43077, Control_c, 0, 64, 127
2, 43242, Control_c, 0, 64, 0
2, 43251, Note_on_c, 0, 64, 48
2, 43263, Note_on_c, 0, 60, 33
2, 43303, Control_c, 0, 64, 127
2, 43454, Note_on_c, 0, 69, 71
2, 43458, Note_off_c, 0, 64, 64
2, 43458, Control_c, 0, 64, 0
2, 43464, Note_on_c, 0, 62, 48
2, 43464, Note_on_c, 0, 65, 46
2, 43472, Note_off_c, 0, 60, 64
2, 43472, Note_off_c, 0, 70, 64
2, 43523, Control_c, 0, 64, 127
2, 43598, Note_off_c, 0, 69, 64
2, 43652, Control_c, 0, 64, 0
2, 43656, Note_off_c, 0, 65, 64
2, 43662, Note_on_c, 0, 77, 74
2, 43679, Note_off_c, 0, 62, 64
2, 43695, Control_c, 0, 64, 127
2, 43711, Note_on_c, 0, 72, 69
2, 43721, Note_off_c, 0, 77, 64
2, 43755, Note_on_c, 0, 69, 77
2, 43780, Note_off_c, 0, 72, 64
2, 43798, Note_on_c, 0, 65, 76
2, 43803, Note_off_c, 0, 69, 64
2, 43841, Control_c, 0, 64, 0
2, 43856, Note_on_c, 0, 63, 102
2, 43876, Note_off_c, 0, 65, 64
2, 43927, Control_c, 0, 64, 127
2, 44074, Control_c, 0, 64, 0
2, 44076, Note_on_c, 0, 57, 63
2, 44083, Note_on_c, 0, 53, 40
2, 44143, Control_c, 0, 64, 127
2, 44274, Note_on_c, 0, 58, 71
2, 44280, Note_on_c, 0, 55, 58
2, 44281, Control_c, 0, 64, 0
2, 44290, Note_off_c, 0, 53, 64
2, 44297, Note_off_c, 0, 57, 64
2, 44350, Control_c, 0, 64, 127
2, 44478, Control_c, 0, 64, 0
2, 44484, Note_on_c, 0, 57, 65
2, 44496, Note_on_c, 0, 60, 66
2, 44498, Note_off_c, 0, 58, 64
2, 44527, Note_off_c, 0, 55, 64
2, 44542, Control_c, 0, 64, 127
2, 44667, Note_on_c, 0, 58, 56
2, 44671, Control_c, 0, 64, 0
2, 44702, Note_off_c, 0, 60, 64
2, 44709, Note_off_c, 0, 57, 64
2, 44729, Control_c, 0, 64, 127
2, 44776, Note_on_c, 0, 61, 65
2, 44807, Control_c, 0, 64, 0
2, 44810, Note_off_c, 0, 63, 64
2, 44887, Note_on_c, 0, 62, 71
2, 44892, Control_c, 0, 64, 127
2, 44912, Note_off_c, 0, 61, 64
2, 44982, Note_on_c, 0, 66, 71
2, 44991, Note_off_c, 0, 62, 64
2, 45027, Note_off_c, 0, 66, 64
2, 45050, Control_c, 0, 64, 0
2, 45074, Note_on_c, 0, 67, 84
2, 45139, Note_off_c, 0, 58, 64
2, 45169, Note_on_c, 0, 69, 72
2, 45211, Control_c, 0, 64, 127
2, 45224, Note_off_c, 0, 67, 64
2, 45266, Note_on_c, 0, 70, 80
2, 45297, Note_off_c, 0, 69, 64
2, 45328, Note_off_c, 0, 70, 64
2, 45361, Note_on_c, 0, 70, 79
2, 45363, Note_on_c, 0, 74, 84
2, 45370, Note_on_c, 0, 46, 68
2, 45404, Note_off_c, 0, 70, 64
2, 45412, Note_off_c, 0, 74, 64
2, 45452, Note_off_c, 0, 46, 64
2, 45460, Note_on_c, 0, 70, 84
2, 45461, Control_c, 0, 64, 0
2, 45468, Note_on_c, 0, 74, 79
2, 45470, Note_on_c, 0, 48, 72
2, 45525, Note_off_c, 0, 74, 64
2, 45548, Note_off_c, 0, 70, 64
2, 45556, Note_on_c, 0, 72, 65
2, 45563, Note_on_c, 0, 69, 75
2, 45649, Note_off_c, 0, 72, 64
2, 45650, Note_on_c, 0, 67, 71
2, 45655, Note_off_c, 0, 48, 64
2, 45655, Note_on_c, 0, 70, 86
2, 45677, Note_off_c, 0, 69, 64
2, 45696, Note_off_c, 0, 70, 64
2, 45702, Note_off_c, 0, 67, 64
2, 45752, Note_on_c, 0, 65, 78
2, 45757, Note_on_c, 0, 69, 88
2, 45805, Note_off_c, 0, 65, 64
2, 45812, Note_off_c, 0, 69, 64
2, 45851, Note_on_c, 0, 72, 84
2, 45859, Note_on_c, 0, 69, 63
2, 45900, Note_off_c, 0, 69, 64
2, 45918, Note_off_c, 0, 72, 64
2, 45926, Control_c, 0, 64, 127
2, 45934, Note_on_c, 0, 70, 80
2, 45941, Note_on_c, 0, 67, 77
2, 45988, Note_off_c, 0, 67, 64
2, 46002, Note_off_c, 0, 70, 64
2, 46032, Note_on_c, 0, 69, 79
2, 46036, Note_on_c, 0, 65, 84
2, 46093, Note_off_c, 0, 65, 64
2, 46099, Note_off_c, 0, 69, 64
2, 46131, Note_on_c, 0, 67, 84
2, 46135, Note_on_c, 0, 64, 81
2, 46140, Note_on_c, 0, 48, 69
2, 46146, Note_on_c, 0, 58, 77
2, 46174, Note_off_c, 0, 64, 64
2, 46178, Note_off_c, 0, 67, 64
2, 46192, Note_off_c, 0, 58, 64
2, 46195, Note_off_c, 0, 48, 64
2, 46251, Note_on_c, 0, 58, 78
2, 46252, Note_on_c, 0, 67, 85
2, 46256, Note_on_c, 0, 64, 69
2, 46260, Note_on_c, 0, 53, 77
2, 46273, Control_c, 0, 64, 0
2, 46356, Control_c, 0, 64, 127
2, 46623, Note_off_c, 0, 58, 64
2, 46698, Control_c, 0, 64, 0
2, 46702, Note_on_c, 0, 65, 73
2, 46706, Note_off_c, 0, 64, 64
2, 46706, Note_on_c, 0, 57, 53
2, 46728, Note_off_c, 0, 67, 64
2, 46747, Note_off_c, 0, 65, 64
2, 46753, Control_c, 0, 64, 127
2, 46880, Note_off_c, 0, 53, 64
2, 46901, Note_off_c, 0, 57, 64
2, 46918, Note_on_c, 0, 84, 71
2, 46938, Control_c, 0, 64, 0
2, 46962, Note_on_c, 0, 81, 78
2, 46969, Note_off_c, 0, 84, 64
2, 47004, Note_on_c, 0, 84, 86
2, 47008, Note_off_c, 0, 81, 64
2, 47044, Note_on_c, 0, 81, 79
2, 47060, Note_off_c, 0, 84, 64
2, 47094, Note_on_c, 0, 77, 86
2, 47100, Note_off_c, 0, 81, 64
2, 47100, Note_on_c, 0, 65, 59
2, 47142, Control_c, 0, 64, 127
2, 47157, Note_off_c, 0, 77, 64
2, 47176, Note_off_c, 0, 65, 64
2, 47176, Note_on_c, 0, 69, 56
2, 47286, Note_on_c, 0, 65, 59
2, 47292, Note_off_c, 0, 69, 64
2, 47378, Note_on_c, 0, 81, 79
2, 47380, Note_on_c, 0, 69, 46
2, 47384, Note_off_c, 0, 65, 64
2, 47424, Note_off_c, 0, 81, 64
2, 47462, Control_c, 0, 64, 0
2, 47470, Note_on_c, 0, 65, 66
2, 47471, Note_on_c, 0, 79, 92
2, 47477, Note_off_c, 0, 69, 64
2, 47513, Note_off_c, 0, 79, 64
2, 47523, Control_c, 0, 64, 127
2, 47554, Note_on_c, 0, 69, 66
2, 47561, Note_off_c, 0, 65, 64
2, 47568, Note_on_c, 0, 77, 84
2, 47614, Note_off_c, 0, 77, 64
2, 47651, Control_c, 0, 64, 0
2, 47657, Note_on_c, 0, 65, 61
2, 47660, Note_off_c, 0, 69, 64
2, 47662, Note_on_c, 0, 76, 84
2, 47695, Control_c, 0, 64, 127
2, 47710, Note_off_c, 0, 76, 64
2, 47748, Note_off_c, 0, 65, 64
2, 47761, Note_on_c, 0, 69, 45
2, 47763, Note_on_c, 0, 74, 85
2, 47808, Note_off_c, 0, 74, 64
2, 47852, Note_on_c, 0, 74, 88
2, 47856, Note_off_c, 0, 69, 64
2, 47856, Note_on_c, 0, 64, 74
2, 47862, Control_c, 0, 64, 0
2, 47926, Control_c, 0, 64, 127
2, 47945, Note_off_c, 0, 64, 64
2, 47952, Note_on_c, 0, 67, 42
2, 48051, Note_on_c, 0, 64, 60
2, 48058, Note_off_c, 0, 67, 64
2, 48078, Note_off_c, 0, 74, 64
2, 48127, Note_off_c, 0, 64, 64
2, 48138, Note_on_c, 0, 76, 67
2, 48154, Note_on_c, 0, 67, 45
2, 48185, Note_on_c, 0, 74, 77
2, 48204, Note_off_c, 0, 76, 64
2, 48221, Control_c, 0, 64, 0
2, 48227, Note_on_c, 0, 73, 79
2, 48232, Note_on_c, 0, 64, 60
2, 48243, Note_off_c, 0, 67, 64
2, 48246, Note_off_c, 0, 74, 64
2, 48285, Control_c, 0, 64, 127
2, 48288, Note_off_c, 0, 73, 64
2, 48302, Note_off_c, 0, 64, 64
2, 48323, Note_on_c, 0, 67, 67
2, 48399, Control_c, 0, 64, 0
2, 48415, Note_on_c, 0, 64, 71
2, 48416, Note_on_c, 0, 76, 74
2, 48421, Note_off_c, 0, 67, 64
2, 48452, Control_c, 0, 64, 127
2, 48459, Note_on_c, 0, 73, 90
2, 48468, Note_off_c, 0, 76, 64
2, 48481, Note_off_c, 0, 64, 64
2, 48496, Note_on_c, 0, 67, 53
2, 48505, Note_on_c, 0, 76, 90
2, 48512, Note_off_c, 0, 73, 64
2, 48549, Note_on_c, 0, 73, 84
2, 48556, Note_off_c, 0, 67, 64
2, 48565, Note_off_c, 0, 76, 64
2, 48595, Note_on_c, 0, 69, 86
2, 48602, Note_off_c, 0, 73, 64
2, 48605, Control_c, 0, 64, 0
2, 48612, Note_on_c, 0, 61, 77
2, 48637, Note_off_c, 0, 69, 64
2, 48656, Control_c, 0, 64, 127
2, 48703, Note_on_c, 0, 64, 65
2, 48708, Note_off_c, 0, 61, 64
2, 48797, Note_off_c, 0, 64, 64
2, 48801, Note_on_c, 0, 61, 71
2, 48888, Note_on_c, 0, 82, 73
2, 48892, Note_off_c, 0, 61, 64
2, 48893, Note_on_c, 0, 64, 72
2, 48949, Note_off_c, 0, 82, 64
2, 48973, Note_off_c, 0, 64, 64
2, 48982, Note_on_c, 0, 81, 84
2, 48990, Note_on_c, 0, 61, 66
2, 48997, Control_c, 0, 64, 0
2, 49026, Note_off_c, 0, 81, 64
2, 49045, Control_c, 0, 64, 127
2, 49051, Note_off_c, 0, 61, 64
2, 49079, Note_on_c, 0, 79, 81
2, 49087, Note_on_c, 0, 69, 58
2, 49126, Note_off_c, 0, 79, 64
2, 49169, Note_off_c, 0, 69, 64
2, 49172, Note_on_c, 0, 77, 81
2, 49178, Note_on_c, 0, 61, 81
2, 49223, Note_off_c, 0, 77, 64
2, 49241, Note_off_c, 0, 61, 64
2, 49269, Note_on_c, 0, 76, 84
2, 49272, Note_on_c, 0, 69, 63
2, 49358, Note_off_c, 0, 69, 64
2, 49366, Note_on_c, 0, 79, 85
2, 49369, Note_off_c, 0, 76, 64
2, 49369, Note_on_c, 0, 62, 79
2, 49374, Control_c, 0, 64, 0
2, 49441, Control_c, 0, 64, 127
2, 49460, Note_on_c, 0, 69, 69
2, 49465, Note_off_c, 0, 62, 64
2, 49551, Note_off_c, 0, 69, 64
2, 49563, Note_on_c, 0, 62, 68
2, 49648, Note_on_c, 0, 76, 48
2, 49654, Note_off_c, 0, 62, 64
2, 49657, Note_on_c, 0, 69, 57
2, 49692, Note_off_c, 0, 79, 64
2, 49741, Note_off_c, 0, 69, 64
2, 49748, Note_on_c, 0, 62, 63
2, 49752, Note_on_c, 0, 77, 74
2, 49754, Control_c, 0, 64, 0
2, 49776, Note_off_c, 0, 76, 64
2, 49786, Control_c, 0, 64, 127
2, 49798, Note_off_c, 0, 77, 64
2, 49836, Note_off_c, 0, 62, 64
2, 49849, Note_on_c, 0, 69, 60
2, 49935, Note_on_c, 0, 81, 73
2, 49937, Note_off_c, 0, 69, 64
2, 49941, Note_on_c, 0, 62, 67
2, 49982, Note_on_c, 0, 77, 80
2, 49993, Note_off_c, 0, 81, 64
2, 50007, Note_off_c, 0, 62, 64
2, 50018, Note_on_c, 0, 69, 54
2, 50032, Note_on_c, 0, 81, 86
2, 50038, Note_off_c, 0, 77, 64
2, 50074, Note_on_c, 0, 77, 78
2, 50092, Note_off_c, 0, 81, 64
2, 50100, Note_off_c, 0, 69, 64
2, 50123, Note_on_c, 0, 74, 86
2, 50125, Control_c, 0, 64, 0
2, 50132, Note_on_c, 0, 59, 68
2, 50133, Note_off_c, 0, 77, 64
2, 50177, Control_c, 0, 64, 127
2, 50199, Note_off_c, 0, 74, 64
2, 50213, Note_off_c, 0, 59, 64
2, 50220, Note_on_c, 0, 67, 71
2, 50310, Note_off_c, 0, 67, 64
2, 50317, Note_on_c, 0, 59, 67
2, 50394, Note_off_c, 0, 59, 64
2, 50411, Note_on_c, 0, 86, 79
2, 50411, Note_on_c, 0, 67, 63
2, 50458, Note_off_c, 0, 86, 64
2, 50488, Note_off_c, 0, 67, 64
2, 50496, Control_c, 0, 64, 0
2, 50501, Note_on_c, 0, 84, 94
2, 50505, Note_on_c, 0, 59, 78
2, 50539, Control_c, 0, 64, 127
2, 50546, Note_off_c, 0, 84, 64
2, 50555, Note_off_c, 0, 59, 64
2, 50585, Note_on_c, 0, 67, 70
2, 50592, Note_on_c, 0, 83, 85
2, 50638, Note_off_c, 0, 83, 64
2, 50681, Note_off_c, 0, 67, 64
2, 50684, Note_on_c, 0, 81, 81
2, 50687, Note_on_c, 0, 59, 81
2, 50733, Note_off_c, 0, 81, 64
2, 50757, Note_off_c, 0, 59, 64
2, 50776, Note_on_c, 0, 79, 84
2, 50779, Note_on_c, 0, 67, 72
2, 50839, Note_off_c, 0, 79, 64
2, 50862, Note_off_c, 0, 67, 64
2, 50872, Note_on_c, 0, 77, 84
2, 50878, Note_on_c, 0, 60, 86
2, 50879, Control_c, 0, 64, 0
2, 50946, Control_c, 0, 64, 127
2, 50964, Note_off_c, 0, 60, 64
2, 50968, Note_on_c, 0, 67, 79
2, 51051, Note_off_c, 0, 67, 64
2, 51060, Note_on_c, 0, 60, 77
2, 51077, Note_on_c, 0, 76, 74
2, 51098, Note_off_c, 0, 77, 64
2, 51134, Note_off_c, 0, 60, 64
2, 51147, Note_on_c, 0, 67, 76
2, 51161, Note_on_c, 0, 79, 80
2, 51174, Note_off_c, 0, 76, 64
2, 51217, Note_off_c, 0, 79, 64
2, 51218, Note_off_c, 0, 67, 64
2, 51251, Note_on_c, 0, 52, 86
2, 51256, Note_on_c, 0, 77, 88
2, 51264, Control_c, 0, 64, 0
2, 51302, Note_off_c, 0, 77, 64
2, 51314, Note_off_c, 0, 52, 64
2, 51324, Control_c, 0, 64, 127
2, 51340, Note_on_c, 0, 60, 71
2, 51343, Note_on_c, 0, 76, 76
2, 51391, Note_off_c, 0, 60, 64
2, 51393, Note_off_c, 0, 76, 64
2, 51437, Note_on_c, 0, 74, 85
2, 51442, Note_on_c, 0, 52, 79
2, 51491, Note_off_c, 0, 74, 64
2, 51509, Note_off_c, 0, 52, 64
2, 51525, Note_on_c, 0, 72, 84
2, 51537, Note_on_c, 0, 60, 65
2, 51595, Note_off_c, 0, 60, 64
2, 51608, Note_off_c, 0, 72, 64
2, 51627, Note_on_c, 0, 71, 85
2, 51628, Note_on_c, 0, 53, 88
2, 51642, Control_c, 0, 64, 0
2, 51690, Control_c, 0, 64, 127
2, 51718, Note_off_c, 0, 53, 64
2, 51725, Note_on_c, 0, 60, 61
2, 51747, Note_off_c, 0, 71, 64
2, 51793, Note_off_c, 0, 60, 64
2, 51810, Note_on_c, 0, 53, 58
2, 51817, Note_on_c, 0, 69, 71
2, 51855, Note_on_c, 0, 72, 72
2, 51881, Note_off_c, 0, 69, 64
2, 51892, Note_on_c, 0, 77, 72
2, 51894, Note_off_c, 0, 53, 64
2, 51907, Note_on_c, 0, 60, 54
2, 51913, Note_off_c, 0, 72, 64
2, 51936, Note_on_c, 0, 81, 81
2, 51952, Note_off_c, 0, 77, 64
2, 51963, Note_off_c, 0, 60, 64
2, 51990, Note_on_c, 0, 79, 94
2, 51994, Note_on_c, 0, 53, 59
2, 52004, Note_off_c, 0, 81, 64
2, 52006, Control_c, 0, 64, 0
2, 52042, Note_off_c, 0, 79, 64
2, 52055, Control_c, 0, 64, 127
2, 52060, Note_off_c, 0, 53, 64
2, 52073, Note_on_c, 0, 62, 58
2, 52088, Note_on_c, 0, 77, 92
2, 52135, Note_off_c, 0, 77, 64
2, 52171, Note_off_c, 0, 62, 64
2, 52185, Note_on_c, 0, 76, 86
2, 52187, Note_on_c, 0, 54, 85
2, 52195, Control_c, 0, 64, 0
2, 52232, Note_off_c, 0, 76, 64
2, 52235, Control_c, 0, 64, 127
2, 52253, Note_off_c, 0, 54, 64
2, 52281, Note_on_c, 0, 74, 84
2, 52292, Note_on_c, 0, 62, 71
2, 52362, Note_off_c, 0, 74, 64
2, 52381, Note_on_c, 0, 55, 85
2, 52383, Note_on_c, 0, 72, 92
2, 52391, Control_c, 0, 64, 0
2, 52399, Note_off_c, 0, 62, 64
2, 52448, Control_c, 0, 64, 127
2, 52587, Note_on_c, 0, 71, 81
2, 52612, Note_off_c, 0, 72, 64
2, 52663, Note_off_c, 0, 55, 64
2, 52678, Note_on_c, 0, 62, 79
2, 52689, Control_c, 0, 64, 0
2, 52716, Note_on_c, 0, 59, 61
2, 52742, Note_off_c, 0, 62, 64
2, 52748, Control_c, 0, 64, 127
2, 52762, Note_on_c, 0, 55, 90
2, 52776, Note_off_c, 0, 59, 64
2, 52806, Note_off_c, 0, 55, 64
2, 52844, Control_c, 0, 64, 0
2, 52860, Note_on_c, 0, 65, 86
2, 52860, Note_on_c, 0, 69, 86
2, 52897, Note_off_c, 0, 69, 64
2, 52899, Note_off_c, 0, 65, 64
2, 52944, Control_c, 0, 64, 127
2, 52968, Note_on_c, 0, 64, 88
2, 52968, Note_on_c, 0, 67, 86
2, 53002, Note_off_c, 0, 64, 64
2, 53005, Note_off_c, 0, 67, 64
2, 53011, Note_off_c, 0, 71, 64
2, 53062, Note_on_c, 0, 65, 88
2, 53065, Note_on_c, 0, 62, 88
2, 53095, Note_off_c, 0, 62, 64
2, 53101, Note_off_c, 0, 65, 64
2, 53163, Note_on_c, 0, 64, 88
2, 53164, Note_on_c, 0, 60, 92
2, 53169, Control_c, 0, 64, 0
2, 53207, Note_on_c, 0, 79, 85
2, 53261, Note_on_c, 0, 81, 78
2, 53274, Note_off_c, 0, 79, 64
2, 53309, Note_on_c, 0, 79, 84
2, 53327, Note_off_c, 0, 81, 64
2, 53359, Note_on_c, 0, 84, 86
2, 53367, Note_off_c, 0, 79, 64
2, 53404, Note_on_c, 0, 83, 80
2, 53427, Control_c, 0, 64, 127
2, 53433, Note_off_c, 0, 84, 64
2, 53440, Note_on_c, 0, 81, 72
2, 53463, Note_off_c, 0, 83, 64
2, 53480, Note_on_c, 0, 79, 86
2, 53490, Note_off_c, 0, 60, 64
2, 53500, Note_off_c, 0, 81, 64
2, 53521, Note_off_c, 0, 64, 64
2, 53527, Note_off_c, 0, 79, 64
2, 53532, Note_on_c, 0, 77, 84
2, 53578, Note_off_c, 0, 77, 64
2, 53579, Note_on_c, 0, 76, 86
2, 53630, Note_on_c, 0, 74, 81
2, 53641, Note_off_c, 0, 76, 64
2, 53677, Note_off_c, 0, 74, 64
2, 53677, Note_on_c, 0, 72, 84
2, 53722, Note_on_c, 0, 71, 86
2, 53728, Note_on_c, 0, 64, 72
2, 53731, Control_c, 0, 64, 0
2, 53736, Note_off_c, 0, 72, 64
2, 53767, Note_on_c, 0, 72, 84
2, 53781, Note_off_c, 0, 71, 64
2, 53800, Control_c, 0, 64, 127
2, 53819, Note_on_c, 0, 74, 67
2, 53821, Note_off_c, 0, 72, 64
2, 53861, Note_on_c, 0, 72, 71
2, 53884, Note_off_c, 0, 74, 64
2, 53914, Note_off_c, 0, 72, 64
2, 53918, Note_on_c, 0, 69, 76
2, 53923, Note_off_c, 0, 64, 64
2, 53926, Note_on_c, 0, 65, 78
2, 53935, Control_c, 0, 64, 0
2, 53971, Note_off_c, 0, 65, 64
2, 53971, Note_on_c, 0, 72, 79
2, 53988, Note_off_c, 0, 69, 64
2, 54012, Control_c, 0, 64, 127
2, 54018, Note_on_c, 0, 74, 71
2, 54033, Note_off_c, 0, 72, 64
2, 54064, Note_on_c, 0, 72, 72
2, 54084, Note_off_c, 0, 74, 64
2, 54103, Control_c, 0, 64, 0
2, 54109, Note_on_c, 0, 64, 76
2, 54109, Note_on_c, 0, 67, 63
2, 54123, Note_off_c, 0, 72, 64
2, 54148, Note_off_c, 0, 64, 64
2, 54159, Control_c, 0, 64, 127
2, 54167, Note_on_c, 0, 72, 77
2, 54183, Note_off_c, 0, 67, 64
2, 54213, Note_on_c, 0, 74, 67
2, 54229, Note_off_c, 0, 72, 64
2, 54262, Note_on_c, 0, 72, 72
2, 54280, Note_off_c, 0, 74, 64
2, 54300, Note_on_c, 0, 65, 78
2, 54305, Note_on_c, 0, 62, 85
2, 54305, Control_c, 0, 64, 0
2, 54318, Note_off_c, 0, 72, 64
2, 54365, Control_c, 0, 64, 127
2, 54387, Note_off_c, 0, 65, 64
2, 54388, Note_off_c, 0, 62, 64
2, 54411, Note_on_c, 0, 77, 70
2, 54463, Note_off_c, 0, 77, 64
2, 54489, Control_c, 0, 64, 0
2, 54500, Note_on_c, 0, 55, 71
2, 54557, Control_c, 0, 64, 127
2, 54563, Note_off_c, 0, 55, 64
2, 54599, Note_on_c, 0, 77, 45
2, 54636, Note_off_c, 0, 77, 64
2, 54688, Note_on_c, 0, 76, 54
2, 54692, Control_c, 0, 64, 0
2, 54699, Note_on_c, 0, 60, 50
2, 54736, Note_on_c, 0, 79, 37
2, 54745, Note_off_c, 0, 76, 64
2, 54757, Control_c, 0, 64, 127
2, 54772, Note_off_c, 0, 60, 64
2, 54787, Note_on_c, 0, 81, 50
2, 54795, Note_off_c, 0, 79, 64
2, 54832, Note_on_c, 0, 79, 56
2, 54849, Note_off_c, 0, 81, 64
2, 54865, Control_c, 0, 64, 0
2, 54881, Note_on_c, 0, 64, 43
2, 54888, Note_on_c, 0, 84, 63
2, 54894, Note_off_c, 0, 79, 64
2, 54933, Note_on_c, 0, 83, 54
2, 54938, Control_c, 0, 64, 127
2, 54942, Note_off_c, 0, 64, 64
2, 54949, Note_off_c, 0, 84, 64
2, 54969, Note_on_c, 0, 81, 58
2, 54992, Note_off_c, 0, 83, 64
2, 55013, Note_on_c, 0, 79, 65
2, 55029, Note_off_c, 0, 81, 64
2, 55059, Note_off_c, 0, 79, 64
2, 55061, Note_on_c, 0, 77, 67
2, 55104, Note_on_c, 0, 76, 67
2, 55105, Note_off_c, 0, 77, 64
2, 55154, Note_on_c, 0, 74, 67
2, 55170, Note_off_c, 0, 76, 64
2, 55204, Note_off_c, 0, 74, 64
2, 55205, Note_on_c, 0, 72, 67
2, 55248, Control_c, 0, 64, 0
2, 55253, Note_on_c, 0, 71, 65
2, 55260, Note_on_c, 0, 64, 53
2, 55266, Note_off_c, 0, 72, 64
2, 55304, Note_on_c, 0, 72, 53
2, 55312, Note_off_c, 0, 71, 64
2, 55329, Control_c, 0, 64, 127
2, 55349, Note_off_c, 0, 72, 64
2, 55351, Note_on_c, 0, 74, 46
2, 55388, Note_on_c, 0, 72, 52
2, 55412, Note_off_c, 0, 74, 64
2, 55437, Note_off_c, 0, 64, 64
2, 55442, Note_off_c, 0, 72, 64
2, 55447, Note_on_c, 0, 69, 64
2, 55448, Control_c, 0, 64, 0
2, 55454, Note_on_c, 0, 65, 57
2, 55500, Note_on_c, 0, 72, 63
2, 55506, Note_off_c, 0, 65, 64
2, 55512, Control_c, 0, 64, 127
2, 55528, Note_off_c, 0, 69, 64
2, 55551, Note_on_c, 0, 74, 38
2, 55569, Note_off_c, 0, 72, 64
2, 55593, Note_on_c, 0, 72, 56
2, 55615, Note_off_c, 0, 74, 64
2, 55630, Control_c, 0, 64, 0
2, 55642, Note_on_c, 0, 64, 60
2, 55648, Note_on_c, 0, 67, 63
2, 55656, Note_off_c, 0, 72, 64
2, 55679, Note_off_c, 0, 64, 64
2, 55697, Note_on_c, 0, 72, 59
2, 55713, Control_c, 0, 64, 127
2, 55720, Note_off_c, 0, 67, 64
2, 55744, Note_on_c, 0, 74, 53
2, 55756, Note_off_c, 0, 72, 64
2, 55793, Note_on_c, 0, 72, 60
2, 55816, Note_off_c, 0, 74, 64
2, 55820, Control_c, 0, 64, 0
2, 55838, Note_on_c, 0, 65, 46
2, 55840, Note_on_c, 0, 62, 57
2, 55848, Note_off_c, 0, 72, 64
2, 55876, Note_off_c, 0, 62, 64
2, 55901, Control_c, 0, 64, 127
2, 55922, Note_off_c, 0, 65, 64
2, 55940, Note_on_c, 0, 77, 60
2, 55998, Note_off_c, 0, 77, 64
2, 56034, Control_c, 0, 64, 0
2, 56039, Note_on_c, 0, 55, 58
2, 56088, Note_off_c, 0, 55, 64
2, 56095, Control_c, 0, 64, 127
2, 56140, Note_on_c, 0, 77, 53
2, 56202, Note_off_c, 0, 77, 64
2, 56233, Control_c, 0, 64, 0
2, 56239, Note_on_c, 0, 76, 76
2, 56242, Note_on_c, 0, 60, 74
2, 56292, Note_on_c, 0, 77, 66
2, 56305, Control_c, 0, 64, 127
2, 56310, Note_off_c, 0, 76, 64
2, 56337, Note_on_c, 0, 79, 71
2, 56349, Note_off_c, 0, 77, 64
2, 56398, Note_on_c, 0, 77, 71
2, 56413, Control_c, 0, 64, 0
2, 56421, Note_off_c, 0, 79, 64
2, 56441, Note_on_c, 0, 76, 76
2, 56443, Note_on_c, 0, 62, 71
2, 56454, Note_off_c, 0, 60, 64
2, 56462, Note_off_c, 0, 77, 64
2, 56484, Control_c, 0, 64, 127
2, 56490, Note_on_c, 0, 74, 79
2, 56506, Note_off_c, 0, 76, 64
2, 56543, Note_off_c, 0, 74, 64
2, 56550, Note_on_c, 0, 72, 84
2, 56598, Note_on_c, 0, 71, 72
2, 56610, Note_off_c, 0, 72, 64
2, 56624, Control_c, 0, 64, 0
2, 56646, Note_off_c, 0, 62, 64
2, 56648, Note_on_c, 0, 64, 67
2, 56653, Note_on_c, 0, 72, 78
2, 56666, Note_off_c, 0, 71, 64
2, 56677, Control_c, 0, 64, 127
2, 56688, Note_on_c, 0, 74, 59
2, 56714, Note_off_c, 0, 72, 64
2, 56730, Note_on_c, 0, 76, 71
2, 56741, Note_off_c, 0, 74, 64
2, 56768, Note_on_c, 0, 74, 59
2, 56799, Note_off_c, 0, 76, 64
2, 56800, Note_on_c, 0, 52, 67
2, 56815, Note_on_c, 0, 72, 80
2, 56824, Control_c, 0, 64, 0
2, 56837, Note_off_c, 0, 74, 64
2, 56861, Note_on_c, 0, 71, 72
2, 56868, Control_c, 0, 64, 127
2, 56881, Note_off_c, 0, 72, 64
2, 56912, Note_on_c, 0, 69, 81
2, 56926, Note_off_c, 0, 71, 64
2, 56948, Note_off_c, 0, 52, 64
2, 56956, Note_on_c, 0, 68, 84
2, 56973, Note_off_c, 0, 69, 64
2, 56975, Note_off_c, 0, 64, 64
2, 56984, Note_off_c, 0, 68, 64
2, 57010, Note_on_c, 0, 53, 79
2, 57017, Control_c, 0, 64, 0
2, 57060, Note_on_c, 0, 69, 76
2, 57077, Control_c, 0, 64, 127
2, 57100, Note_on_c, 0, 71, 70
2, 57119, Note_off_c, 0, 69, 64
2, 57155, Note_on_c, 0, 73, 75
2, 57163, Note_off_c, 0, 71, 64
2, 57193, Note_on_c, 0, 74, 81
2, 57204, Note_off_c, 0, 73, 64
2, 57245, Note_on_c, 0, 76, 78
2, 57260, Note_off_c, 0, 74, 64
2, 57296, Note_on_c, 0, 77, 69
2, 57315, Note_off_c, 0, 76, 64
2, 57336, Note_on_c, 0, 79, 67
2, 57360, Note_off_c, 0, 77, 64
2, 57368, Note_on_c, 0, 81, 79
2, 57388, Note_off_c, 0, 79, 64
2, 57426, Note_on_c, 0, 77, 71
2, 57466, Note_off_c, 0, 81, 64
2, 57470, Note_on_c, 0, 74, 74
2, 57497, Note_off_c, 0, 77, 64
2, 57509, Note_off_c, 0, 53, 64
2, 57519, Note_on_c, 0, 69, 72
2, 57524, Note_off_c, 0, 74, 64
2, 57557, Control_c, 0, 64, 0
2, 57563, Note_on_c, 0, 52, 67
2, 57571, Note_on_c, 0, 79, 84
2, 57571, Note_on_c, 0, 60, 54
2, 57586, Note_off_c, 0, 69, 64
2, 57601, Note_off_c, 0, 60, 64
2, 57614, Control_c, 0, 64, 127
2, 57618, Note_on_c, 0, 76, 65
2, 57623, Note_off_c, 0, 52, 64
2, 57661, Note_on_c, 0, 72, 72
2, 57669, Note_off_c, 0, 79, 64
2, 57695, Note_off_c, 0, 76, 64
2, 57700, Note_on_c, 0, 69, 84
2, 57713, Note_off_c, 0, 72, 64
2, 57732, Note_off_c, 0, 69, 64
2, 57752, Control_c, 0, 64, 0
2, 57766, Note_on_c, 0, 50, 76
2, 57768, Note_on_c, 0, 59, 79
2, 57796, Control_c, 0, 64, 127
2, 57814, Note_on_c, 0, 77, 84
2, 57857, Note_on_c, 0, 79, 71
2, 57865, Note_off_c, 0, 77, 64
2, 57895, Note_on_c, 0, 81, 84
2, 57903, Note_off_c, 0, 79, 64
2, 57941, Note_on_c, 0, 83, 84
2, 57944, Note_off_c, 0, 81, 64
2, 57986, Note_on_c, 0, 84, 81
2, 58008, Note_off_c, 0, 83, 64
2, 58038, Note_on_c, 0, 86, 69
2, 58050, Note_off_c, 0, 84, 64
2, 58077, Note_on_c, 0, 88, 47
2, 58098, Note_off_c, 0, 86, 64
2, 58114, Control_c, 0, 64, 0
2, 58117, Note_on_c, 0, 89, 84
2, 58136, Note_off_c, 0, 88, 64
2, 58154, Control_c, 0, 64, 127
2, 58164, Note_on_c, 0, 86, 76
2, 58176, Note_off_c, 0, 89, 64
2, 58182, Note_off_c, 0, 59, 64
2, 58205, Note_on_c, 0, 83, 75
2, 58221, Note_off_c, 0, 86, 64
2, 58235, Note_off_c, 0, 50, 64
2, 58244, Note_on_c, 0, 77, 79
2, 58246, Note_off_c, 0, 83, 64
2, 58297, Control_c, 0, 64, 0
2, 58303, Note_on_c, 0, 76, 88
2, 58306, Note_on_c, 0, 52, 70
2, 58307, Note_on_c, 0, 60, 77
2, 58318, Note_off_c, 0, 77, 64
2, 58334, Note_off_c, 0, 76, 64
2, 58362, Control_c, 0, 64, 127
2, 58416, Note_on_c, 0, 84, 76
2, 58454, Note_off_c, 0, 84, 64
2, 58503, Note_off_c, 0, 60, 64
2, 58508, Note_off_c, 0, 52, 64
2, 58511, Note_on_c, 0, 53, 79
2, 58516, Control_c, 0, 64, 0
2, 58571, Control_c, 0, 64, 127
2, 58595, Note_on_c, 0, 81, 78
2, 58598, Note_on_c, 0, 77, 77
2, 58644, Note_off_c, 0, 77, 64
2, 58646, Note_off_c, 0, 81, 64
2, 58680, Control_c, 0, 64, 0
2, 58697, Note_on_c, 0, 76, 81
2, 58698, Note_on_c, 0, 79, 76
2, 58708, Note_off_c, 0, 53, 64
2, 58738, Note_off_c, 0, 76, 64
2, 58741, Note_off_c, 0, 79, 64
2, 58744, Control_c, 0, 64, 127
2, 58790, Note_on_c, 0, 77, 86
2, 58794, Note_on_c, 0, 74, 79
2, 58827, Note_off_c, 0, 77, 64
2, 58833, Note_off_c, 0, 74, 64
2, 58869, Control_c, 0, 64, 0
2, 58887, Note_on_c, 0, 72, 84
2, 58891, Note_on_c, 0, 76, 88
2, 58926, Note_off_c, 0, 76, 64
2, 58930, Note_off_c, 0, 72, 64
2, 58932, Control_c, 0, 64, 127
2, 58984, Note_on_c, 0, 79, 77
2, 58991, Note_on_c, 0, 76, 79
2, 59018, Note_off_c, 0, 76, 64
2, 59023, Note_off_c, 0, 79, 64
2, 59076, Control_c, 0, 64, 0
2, 59086, Note_on_c, 0, 43, 73
2, 59090, Note_on_c, 0, 55, 77
2, 59136, Note_off_c, 0, 55, 64
2, 59137, Note_off_c, 0, 43, 64
2, 59137, Control_c, 0, 64, 127
2, 59174, Note_on_c, 0, 65, 71
2, 59174, Note_on_c, 0, 71, 72
2, 59209, Note_off_c, 0, 65, 64
2, 59234, Note_off_c, 0, 71, 64
2, 59273, Control_c, 0, 64, 0
2, 59288, Note_on_c, 0, 44, 77
2, 59293, Note_on_c, 0, 56, 78
2, 59296, Note_on_c, 0, 63, 86
2, 59297, Note_on_c, 0, 72, 74
2, 59320, Note_off_c, 0, 63, 64
2, 59328, Note_off_c, 0, 72, 64
2, 59328, Note_off_c, 0, 44, 64
2, 59332, Control_c, 0, 64, 127
2, 59338, Note_off_c, 0, 56, 64
2, 59406, Note_on_c, 0, 75, 94
2, 59442, Note_off_c, 0, 75, 64
2, 59483, Control_c, 0, 64, 0
2, 59496, Note_on_c, 0, 56, 77
2, 59499, Note_on_c, 0, 60, 79
2, 59552, Control_c, 0, 64, 127
2, 59559, Note_off_c, 0, 60, 64
2, 59565, Note_off_c, 0, 56, 64
2, 59600, Note_on_c, 0, 75, 84
2, 59648, Note_off_c, 0, 75, 64
2, 59694, Control_c, 0, 64, 0
2, 59709, Note_on_c, 0, 56, 84
2, 59710, Note_on_c, 0, 60, 79
2, 59755, Note_off_c, 0, 56, 64
2, 59761, Note_off_c, 0, 60, 64
2, 59763, Note_on_c, 0, 75, 86
2, 59767, Control_c, 0, 64, 127
2, 59815, Note_on_c, 0, 74, 84
2, 59820, Note_off_c, 0, 75, 64
2, 59856, Note_on_c, 0, 75, 86
2, 59877, Note_off_c, 0, 74, 64
2, 59892, Control_c, 0, 64, 0
2, 59901, Note_on_c, 0, 60, 79
2, 59904, Note_on_c, 0, 56, 81
2, 59909, Note_on_c, 0, 77, 77
2, 59919, Note_off_c, 0, 75, 64
2, 59948, Control_c, 0, 64, 127
2, 59959, Note_on_c, 0, 75, 86
2, 59962, Note_off_c, 0, 60, 64
2, 59968, Note_off_c, 0, 77, 64
2, 59969, Note_off_c, 0, 56, 64
2, 60000, Note_on_c, 0, 74, 80
2, 60005, Note_off_c, 0, 75, 64
2, 60044, Note_on_c, 0, 75, 88
2, 60060, Note_off_c, 0, 74, 64
2, 60088, Control_c, 0, 64, 0
2, 60097, Note_on_c, 0, 84, 94
2, 60102, Note_on_c, 0, 60, 79
2, 60102, Note_on_c, 0, 55, 81
2, 60109, Note_off_c, 0, 75, 64
2, 60147, Note_off_c, 0, 84, 64
2, 60152, Control_c, 0, 64, 127
2, 60163, Note_off_c, 0, 60, 64
2, 60171, Note_off_c, 0, 55, 64
2, 60200, Note_on_c, 0, 75, 88
2, 60249, Note_off_c, 0, 75, 64
2, 60286, Control_c, 0, 64, 0
2, 60301, Note_on_c, 0, 60, 76
2, 60304, Note_on_c, 0, 55, 73
2, 60345, Control_c, 0, 64, 127
2, 60360, Note_off_c, 0, 55, 64
2, 60362, Note_off_c, 0, 60, 64
2, 60396, Note_on_c, 0, 75, 88
2, 60450, Note_off_c, 0, 75, 64
2, 60470, Control_c, 0, 64, 0
2, 60497, Note_on_c, 0, 60, 76
2, 60498, Note_on_c, 0, 55, 72
2, 60522, Control_c, 0, 64, 127
2, 60548, Note_off_c, 0, 60, 64
2, 60550, Note_off_c, 0, 55, 64
2, 60563, Note_on_c, 0, 75, 84
2, 60610, Note_on_c, 0, 74, 79
2, 60620, Note_off_c, 0, 75, 64
2, 60655, Note_on_c, 0, 75, 84
2, 60677, Note_off_c, 0, 74, 64
2, 60678, Control_c, 0, 64, 0
2, 60686, Note_on_c, 0, 55, 73
2, 60686, Note_on_c, 0, 60, 76
2, 60707, Note_on_c, 0, 77, 71
2, 60713, Note_off_c, 0, 75, 64
2, 60724, Control_c, 0, 64, 127
2, 60746, Note_off_c, 0, 60, 64
2, 60747, Note_off_c, 0, 55, 64
2, 60753, Note_on_c, 0, 75, 90
2, 60764, Note_off_c, 0, 77, 64
2, 60794, Note_on_c, 0, 74, 84
2, 60799, Note_off_c, 0, 75, 64
2, 60835, Note_on_c, 0, 75, 88
2, 60855, Note_off_c, 0, 74, 64
2, 60882, Control_c, 0, 64, 0
2, 60888, Note_on_c, 0, 84, 96
2, 60889, Note_on_c, 0, 60, 84
2, 60896, Note_on_c, 0, 54, 88
2, 60900, Note_off_c, 0, 75, 64
2, 60946, Control_c, 0, 64, 127
2, 60961, Note_off_c, 0, 60, 64
2, 60964, Note_off_c, 0, 54, 64
2, 60972, Note_off_c, 0, 84, 64
2, 60988, Note_on_c, 0, 75, 86
2, 61039, Note_off_c, 0, 75, 64
2, 61071, Control_c, 0, 64, 0
2, 61082, Note_on_c, 0, 60, 71
2, 61087, Note_on_c, 0, 54, 71
2, 61115, Control_c, 0, 64, 127
2, 61140, Note_off_c, 0, 54, 64
2, 61140, Note_off_c, 0, 60, 64
2, 61180, Note_on_c, 0, 75, 92
2, 61227, Note_off_c, 0, 75, 64
2, 61281, Note_on_c, 0, 54, 73
2, 61281, Note_on_c, 0, 60, 78
2, 61326, Note_off_c, 0, 54, 64
2, 61328, Note_off_c, 0, 60, 64
2, 61330, Note_on_c, 0, 75, 92
2, 61372, Note_on_c, 0, 74, 79
2, 61375, Note_off_c, 0, 75, 64
2, 61418, Note_on_c, 0, 75, 72
2, 61433, Note_off_c, 0, 74, 64
2, 61463, Note_on_c, 0, 77, 84
2, 61466, Note_on_c, 0, 54, 71
2, 61466, Note_on_c, 0, 60, 67
2, 61473, Control_c, 0, 64, 0
2, 61478, Note_off_c, 0, 75, 64
2, 61485, Control_c, 0, 64, 127
2, 61509, Note_off_c, 0, 60, 64
2, 61515, Note_off_c, 0, 54, 64
2, 61518, Note_on_c, 0, 75, 94
2, 61533, Note_off_c, 0, 77, 64
2, 61567, Note_on_c, 0, 74, 72
2, 61577, Note_off_c, 0, 75, 64
2, 61608, Note_off_c, 0, 74, 64
2, 61608, Note_on_c, 0, 72, 86
2, 61655, Note_off_c, 0, 72, 64
2, 61656, Note_on_c, 0, 55, 71
2, 61659, Note_on_c, 0, 59, 72
2, 61662, Note_on_c, 0, 71, 85
2, 61666, Control_c, 0, 64, 0
2, 61704, Note_on_c, 0, 72, 75
2, 61715, Control_c, 0, 64, 127
2, 61727, Note_off_c, 0, 71, 64
2, 61746, Note_on_c, 0, 74, 84
2, 61764, Note_off_c, 0, 72, 64
2, 61784, Note_on_c, 0, 72, 63
2, 61812, Note_off_c, 0, 59, 64
2, 61816, Note_on_c, 0, 57, 67
2, 61816, Note_on_c, 0, 60, 65
2, 61816, Note_on_c, 0, 71, 84
2, 61827, Note_off_c, 0, 74, 64
2, 61832, Note_off_c, 0, 55, 64
2, 61853, Note_off_c, 0, 72, 64
2, 61860, Control_c, 0, 64, 0
2, 61864, Note_on_c, 0, 69, 69
2, 61883, Note_off_c, 0, 71, 64
2, 61902, Control_c, 0, 64, 127
2, 61912, Note_on_c, 0, 67, 75
2, 61921, Note_off_c, 0, 69, 64
2, 61968, Note_on_c, 0, 66, 86
2, 61973, Note_off_c, 0, 67, 64
2, 61989, Note_off_c, 0, 60, 64
2, 62012, Note_on_c, 0, 67, 78
2, 62016, Note_on_c, 0, 59, 71
2, 62016, Note_on_c, 0, 62, 71
2, 62017, Note_off_c, 0, 57, 64
2, 62041, Control_c, 0, 64, 0
2, 62053, Note_off_c, 0, 66, 64
2, 62103, Control_c, 0, 64, 127
2, 62160, Note_off_c, 0, 67, 64
2, 62166, Note_on_c, 0, 74, 71
2, 62184, Note_off_c, 0, 62, 64
2, 62200, Note_off_c, 0, 59, 64
2, 62206, Note_on_c, 0, 72, 66
2, 62211, Control_c, 0, 64, 0
2, 62226, Note_off_c, 0, 74, 64
2, 62243, Control_c, 0, 64, 127
2, 62254, Note_on_c, 0, 71, 76
2, 62276, Note_off_c, 0, 72, 64
2, 62289, Note_on_c, 0, 69, 81
2, 62310, Note_off_c, 0, 71, 64
2, 62333, Note_on_c, 0, 67, 79
2, 62336, Note_off_c, 0, 69, 64
2, 62383, Note_on_c, 0, 65, 77
2, 62387, Note_off_c, 0, 67, 64
2, 62423, Note_off_c, 0, 65, 64
2, 62435, Note_on_c, 0, 64, 84
2, 62440, Note_on_c, 0, 60, 69
2, 62450, Control_c, 0, 64, 0
2, 62492, Note_on_c, 0, 72, 84
2, 62501, Control_c, 0, 64, 127
2, 62517, Note_off_c, 0, 64, 64
2, 62537, Note_on_c, 0, 71, 79
2, 62551, Note_off_c, 0, 72, 64
2, 62592, Note_on_c, 0, 72, 84
2, 62598, Note_off_c, 0, 60, 64
2, 62599, Control_c, 0, 64, 0
2, 62606, Note_off_c, 0, 71, 64
2, 62637, Note_on_c, 0, 76, 88
2, 62651, Note_off_c, 0, 72, 64
2, 62661, Control_c, 0, 64, 127
2, 62689, Note_on_c, 0, 72, 79
2, 62704, Note_off_c, 0, 76, 64
2, 62743, Note_on_c, 0, 71, 78
2, 62754, Note_off_c, 0, 72, 64
2, 62787, Note_on_c, 0, 72, 81
2, 62801, Note_off_c, 0, 71, 64
2, 62833, Control_c, 0, 64, 0
2, 62839, Note_off_c, 0, 72, 64
2, 62842, Note_on_c, 0, 67, 90
2, 62842, Note_on_c, 0, 64, 78
2, 62886, Note_on_c, 0, 72, 81
2, 62897, Control_c, 0, 64, 127
2, 62918, Note_off_c, 0, 67, 64
2, 62926, Note_off_c, 0, 64, 64
2, 62937, Note_on_c, 0, 71, 84
2, 62953, Note_off_c, 0, 72, 64
2, 62991, Note_on_c, 0, 72, 79
2, 63006, Note_off_c, 0, 71, 64
2, 63024, Control_c, 0, 64, 0
2, 63036, Note_on_c, 0, 65, 92
2, 63042, Note_on_c, 0, 69, 86
2, 63045, Note_off_c, 0, 72, 64
2, 63085, Note_on_c, 0, 72, 76
2, 63088, Control_c, 0, 64, 127
2, 63093, Note_off_c, 0, 65, 64
2, 63118, Note_off_c, 0, 69, 64
2, 63141, Note_on_c, 0, 71, 88
2, 63158, Note_off_c, 0, 72, 64
2, 63195, Note_on_c, 0, 72, 79
2, 63210, Note_off_c, 0, 71, 64
2, 63234, Note_on_c, 0, 67, 86
2, 63235, Control_c, 0, 64, 0
2, 63241, Note_on_c, 0, 64, 97
2, 63248, Note_off_c, 0, 72, 64
2, 63286, Note_on_c, 0, 72, 81
2, 63324, Note_on_c, 0, 71, 75
2, 63325, Control_c, 0, 64, 127
2, 63342, Note_off_c, 0, 72, 64
2, 63356, Note_off_c, 0, 67, 64
2, 63377, Control_c, 0, 64, 0
2, 63391, Note_on_c, 0, 72, 79
2, 63400, Control_c, 0, 64, 127
2, 63405, Note_off_c, 0, 71, 64
2, 63413, Note_off_c, 0, 64, 64
2, 63429, Note_on_c, 0, 76, 81
2, 63437, Note_off_c, 0, 72, 64
2, 63489, Note_on_c, 0, 72, 67
2, 63509, Note_off_c, 0, 76, 64
2, 63528, Note_off_c, 0, 72, 64
2, 63536, Note_on_c, 0, 71, 73
2, 63577, Note_on_c, 0, 72, 75
2, 63596, Note_off_c, 0, 71, 64
2, 63596, Control_c, 0, 64, 0
2, 63634, Note_on_c, 0, 64, 67
2, 63636, Note_off_c, 0, 72, 64
2, 63637, Note_on_c, 0, 79, 80
2, 63674, Control_c, 0, 64, 127
2, 63680, Note_off_c, 0, 64, 64
2, 63686, Note_on_c, 0, 72, 67
2, 63696, Note_off_c, 0, 79, 64
2, 63735, Note_off_c, 0, 72, 64
2, 63739, Note_on_c, 0, 71, 63
2, 63780, Note_on_c, 0, 72, 69
2, 63800, Note_off_c, 0, 71, 64
2, 63814, Control_c, 0, 64, 0
2, 63829, Note_on_c, 0, 81, 76
2, 63832, Note_on_c, 0, 65, 58
2, 63834, Note_off_c, 0, 72, 64
2, 63875, Note_off_c, 0, 65, 64
2, 63876, Control_c, 0, 64, 127
2, 63885, Note_on_c, 0, 72, 72
2, 63889, Note_off_c, 0, 81, 64
2, 63937, Note_off_c, 0, 72, 64
2, 63942, Note_on_c, 0, 71, 68
2, 63983, Note_on_c, 0, 72, 70
2, 64013, Note_off_c, 0, 71, 64
2, 64013, Control_c, 0, 64, 0
2, 64020, Note_on_c, 0, 64, 74
2, 64033, Note_on_c, 0, 79, 79
2, 64042, Note_off_c, 0, 72, 64
2, 64075, Control_c, 0, 64, 127
2, 64087, Note_off_c, 0, 64, 64
2, 64089, Note_on_c, 0, 72, 67
2, 64097, Note_off_c, 0, 79, 64
2, 64132, Note_off_c, 0, 72, 64
2, 64134, Note_on_c, 0, 71, 77
2, 64179, Note_on_c, 0, 72, 73
2, 64189, Note_off_c, 0, 71, 64
2, 64223, Note_on_c, 0, 76, 80
2, 64237, Note_off_c, 0, 72, 64
2, 64279, Note_on_c, 0, 72, 67
2, 64285, Note_off_c, 0, 76, 64
2, 64315, Note_on_c, 0, 71, 81
2, 64322, Note_off_c, 0, 72, 64
2, 64358, Note_off_c, 0, 71, 64
2, 64366, Note_on_c, 0, 72, 79
2, 64420, Note_off_c, 0, 72, 64
2, 64423, Note_on_c, 0, 64, 84
2, 64424, Control_c, 0, 64, 0
2, 64429, Note_on_c, 0, 67, 88
2, 64473, Note_on_c, 0, 72, 84
2, 64484, Control_c, 0, 64, 127
2, 64492, Note_off_c, 0, 64, 64
2, 64504, Note_off_c, 0, 67, 64
2, 64525, Note_on_c, 0, 71, 84
2, 64543, Note_off_c, 0, 72, 64
2, 64573, Note_on_c, 0, 72, 84
2, 64592, Note_off_c, 0, 71, 64
2, 64612, Control_c, 0, 64, 0
2, 64625, Note_on_c, 0, 69, 94
2, 64625, Note_on_c, 0, 65, 96
2, 64632, Note_off_c, 0, 72, 64
2, 64670, Note_on_c, 0, 72, 84
2, 64678, Control_c, 0, 64, 127
2, 64681, Note_off_c, 0, 65, 64
2, 64692, Note_off_c, 0, 69, 64
2, 64727, Note_on_c, 0, 71, 85
2, 64746, Note_off_c, 0, 72, 64
2, 64790, Note_on_c, 0, 72, 78
2, 64798, Note_off_c, 0, 71, 64
2, 64808, Note_on_c, 0, 67, 84
2, 64815, Control_c, 0, 64, 0
2, 64829, Note_on_c, 0, 64, 88
2, 64832, Note_off_c, 0, 72, 64
2, 64866, Note_on_c, 0, 72, 85
2, 64896, Control_c, 0, 64, 127
2, 64906, Note_on_c, 0, 71, 78
2, 64926, Note_off_c, 0, 72, 64
2, 64935, Note_off_c, 0, 67, 64
2, 64963, Note_on_c, 0, 72, 79
2, 64982, Note_off_c, 0, 71, 64
2, 64989, Note_off_c, 0, 64, 64
2, 65016, Note_on_c, 0, 76, 92
2, 65027, Note_off_c, 0, 72, 64
2, 65070, Note_on_c, 0, 72, 78
2, 65087, Note_off_c, 0, 76, 64
2, 65115, Note_off_c, 0, 72, 64
2, 65122, Note_on_c, 0, 71, 84
2, 65162, Note_on_c, 0, 72, 86
2, 65184, Note_off_c, 0, 71, 64
2, 65203, Control_c, 0, 64, 0
2, 65215, Note_on_c, 0, 64, 69
2, 65216, Note_on_c, 0, 79, 90
2, 65224, Note_off_c, 0, 72, 64
2, 65266, Control_c, 0, 64, 127
2, 65270, Note_off_c, 0, 64, 64
2, 65271, Note_on_c, 0, 72, 79
2, 65276, Note_off_c, 0, 79, 64
2, 65315, Note_on_c, 0, 71, 74
2, 65320, Note_off_c, 0, 72, 64
2, 65358, Note_on_c, 0, 72, 76
2, 65376, Note_off_c, 0, 71, 64
2, 65404, Control_c, 0, 64, 0
2, 65410, Note_on_c, 0, 65, 67
2, 65411, Note_on_c, 0, 81, 88
2, 65418, Note_off_c, 0, 72, 64
2, 65456, Note_off_c, 0, 65, 64
2, 65456, Note_on_c, 0, 72, 79
2, 65459, Control_c, 0, 64, 127
2, 65472, Note_off_c, 0, 81, 64
2, 65509, Note_on_c, 0, 71, 72
2, 65512, Note_off_c, 0, 72, 64
2, 65555, Note_on_c, 0, 72, 78
2, 65575, Note_off_c, 0, 71, 64
2, 65594, Control_c, 0, 64, 0
2, 65604, Note_on_c, 0, 64, 65
2, 65606, Note_on_c, 0, 79, 92
2, 65614, Note_off_c, 0, 72, 64
2, 65652, Note_off_c, 0, 64, 64
2, 65654, Note_on_c, 0, 72, 84
2, 65660, Control_c, 0, 64, 127
2, 65672, Note_off_c, 0, 79, 64
2, 65703, Note_on_c, 0, 71, 73
2, 65712, Note_off_c, 0, 72, 64
2, 65750, Note_on_c, 0, 72, 79
2, 65773, Note_off_c, 0, 71, 64
2, 65796, Control_c, 0, 64, 0
2, 65802, Note_on_c, 0, 81, 94
2, 65805, Note_on_c, 0, 65, 74
2, 65814, Note_off_c, 0, 72, 64
2, 65850, Note_on_c, 0, 72, 84
2, 65857, Control_c, 0, 64, 127
2, 65863, Note_off_c, 0, 65, 64
2, 65866, Note_off_c, 0, 81, 64
2, 65901, Note_on_c, 0, 71, 71
2, 65909, Note_off_c, 0, 72, 64
2, 65947, Note_on_c, 0, 72, 79
2, 65974, Note_off_c, 0, 71, 64
2, 65995, Control_c, 0, 64, 0
2, 66004, Note_on_c, 0, 79, 96
2, 66008, Note_on_c, 0, 64, 79
2, 66017, Note_off_c, 0, 72, 64
2, 66052, Note_on_c, 0, 72, 81
2, 66060, Control_c, 0, 64, 127
2, 66062, Note_off_c, 0, 64, 64
2, 66076, Note_off_c, 0, 79, 64
2, 66105, Note_on_c, 0, 71, 70
2, 66114, Note_off_c, 0, 72, 64
2, 66149, Note_on_c, 0, 72, 76
2, 66167, Note_off_c, 0, 71, 64
2, 66177, Control_c, 0, 64, 0
2, 66197, Note_on_c, 0, 81, 88
2, 66202, Note_on_c, 0, 65, 80
2, 66205, Note_off_c, 0, 72, 64
2, 66221, Control_c, 0, 64, 127
2, 66243, Note_on_c, 0, 72, 78
2, 66250, Note_off_c, 0, 65, 64
2, 66262, Note_off_c, 0, 81, 64
2, 66303, Note_off_c, 0, 72, 64
2, 66303, Note_on_c, 0, 71, 70
2, 66348, Note_on_c, 0, 72, 78
2, 66370, Note_off_c, 0, 71, 64
2, 66379, Note_on_c, 0, 64, 84
2, 66387, Control_c, 0, 64, 0
2, 66401, Note_on_c, 0, 79, 94
2, 66416, Note_off_c, 0, 72, 64
2, 66442, Note_on_c, 0, 72, 74
2, 66460, Control_c, 0, 64, 127
2, 66468, Note_off_c, 0, 79, 64
2, 66493, Note_on_c, 0, 71, 72
2, 66507, Note_off_c, 0, 72, 64
2, 66545, Note_on_c, 0, 72, 78
2, 66567, Note_off_c, 0, 71, 64
2, 66592, Note_on_c, 0, 79, 88
2, 66601, Note_off_c, 0, 72, 64
2, 66646, Note_on_c, 0, 72, 79
2, 66672, Note_off_c, 0, 79, 64
2, 66695, Note_on_c, 0, 71, 77
2, 66702, Note_off_c, 0, 72, 64
2, 66741, Note_on_c, 0, 72, 77
2, 66764, Note_off_c, 0, 71, 64
2, 66790, Note_on_c, 0, 79, 94
2, 66793, Note_on_c, 0, 63, 79
2, 66798, Note_on_c, 0, 67, 81
2, 66798, Control_c, 0, 64, 0
2, 66805, Note_off_c, 0, 72, 64
2, 66810, Note_off_c, 0, 64, 64
2, 66846, Note_on_c, 0, 72, 79
2, 66870, Control_c, 0, 64, 127
2, 66872, Note_off_c, 0, 79, 64
2, 66892, Note_on_c, 0, 71, 72
2, 66907, Note_off_c, 0, 72, 64
2, 66944, Note_on_c, 0, 72, 76
2, 66968, Note_off_c, 0, 71, 64
2, 66991, Note_on_c, 0, 79, 84
2, 67002, Note_off_c, 0, 72, 64
2, 67043, Note_on_c, 0, 72, 80
2, 67058, Note_off_c, 0, 79, 64
2, 67088, Note_on_c, 0, 71, 67
2, 67097, Note_off_c, 0, 67, 64
2, 67099, Note_off_c, 0, 72, 64
2, 67133, Note_off_c, 0, 63, 64
2, 67140, Note_on_c, 0, 72, 77
2, 67161, Note_off_c, 0, 71, 64
2, 67181, Note_on_c, 0, 62, 72
2, 67187, Note_on_c, 0, 69, 79
2, 67189, Note_on_c, 0, 78, 90
2, 67194, Control_c, 0, 64, 0
2, 67198, Note_off_c, 0, 72, 64
2, 67240, Note_on_c, 0, 72, 79
2, 67250, Note_off_c, 0, 78, 64
2, 67263, Control_c, 0, 64, 127
2, 67286, Note_on_c, 0, 71, 75
2, 67302, Note_off_c, 0, 72, 64
2, 67330, Note_on_c, 0, 72, 71
2, 67356, Note_off_c, 0, 71, 64
2, 67391, Note_on_c, 0, 78, 85
2, 67392, Note_off_c, 0, 72, 64
2, 67420, Note_off_c, 0, 62, 64
2, 67423, Note_off_c, 0, 69, 64
2, 67444, Note_off_c, 0, 78, 64
2, 67455, Note_on_c, 0, 72, 34
2, 67489, Note_off_c, 0, 72, 64
2, 67495, Note_on_c, 0, 71, 65
2, 67536, Note_on_c, 0, 72, 79
2, 67550, Note_off_c, 0, 71, 64
2, 67588, Note_on_c, 0, 59, 75
2, 67591, Note_off_c, 0, 72, 64
2, 67595, Note_on_c, 0, 67, 84
2, 67598, Note_on_c, 0, 77, 94
2, 67606, Control_c, 0, 64, 0
2, 67644, Note_on_c, 0, 74, 80
2, 67655, Control_c, 0, 64, 127
2, 67659, Note_off_c, 0, 77, 64
2, 67702, Note_on_c, 0, 73, 79
2, 67711, Note_off_c, 0, 74, 64
2, 67747, Note_on_c, 0, 74, 77
2, 67761, Note_off_c, 0, 73, 64
2, 67792, Note_on_c, 0, 77, 79
2, 67807, Note_off_c, 0, 74, 64
2, 67847, Note_off_c, 0, 77, 64
2, 67860, Note_on_c, 0, 74, 36
2, 67882, Note_on_c, 0, 73, 86
2, 67883, Note_off_c, 0, 74, 64
2, 67897, Note_off_c, 0, 67, 64
2, 67927, Note_on_c, 0, 74, 76
2, 67931, Note_off_c, 0, 73, 64
2, 67958, Note_off_c, 0, 74, 64
2, 67982, Note_on_c, 0, 60, 74
2, 67985, Note_on_c, 0, 67, 81
2, 67989, Note_off_c, 0, 59, 64
2, 67990, Note_on_c, 0, 76, 81
2, 67999, Control_c, 0, 64, 0
2, 68056, Control_c, 0, 64, 127
2, 68089, Note_on_c, 0, 84, 76
2, 68162, Note_off_c, 0, 84, 64
2, 68184, Note_on_c, 0, 86, 84
2, 68223, Note_off_c, 0, 67, 64
2, 68225, Note_off_c, 0, 60, 64
2, 68231, Note_on_c, 0, 84, 79
2, 68249, Note_off_c, 0, 86, 64
2, 68278, Note_on_c, 0, 83, 79
2, 68298, Note_off_c, 0, 84, 64
2, 68314, Note_off_c, 0, 76, 64
2, 68318, Note_on_c, 0, 81, 84
2, 68329, Note_off_c, 0, 83, 64
2, 68351, Note_off_c, 0, 81, 64
2, 68384, Note_on_c, 0, 81, 86
2, 68434, Note_on_c, 0, 79, 61
2, 68464, Note_off_c, 0, 81, 64
2, 68476, Note_on_c, 0, 77, 84
2, 68502, Note_off_c, 0, 79, 64
2, 68525, Note_on_c, 0, 76, 84
2, 68535, Note_off_c, 0, 77, 64
2, 68558, Note_off_c, 0, 76, 64
2, 68575, Note_on_c, 0, 52, 67
2, 68578, Note_on_c, 0, 60, 69
2, 68583, Control_c, 0, 64, 0
2, 68590, Note_on_c, 0, 76, 81
2, 68615, Control_c, 0, 64, 127
2, 68632, Note_off_c, 0, 52, 64
2, 68637, Note_on_c, 0, 74, 73
2, 68668, Note_off_c, 0, 76, 64
2, 68678, Note_on_c, 0, 72, 84
2, 68709, Note_off_c, 0, 74, 64
2, 68728, Note_on_c, 0, 71, 84
2, 68747, Note_off_c, 0, 72, 64
2, 68774, Note_off_c, 0, 71, 64
2, 68775, Note_on_c, 0, 69, 86
2, 68783, Note_on_c, 0, 53, 68
2, 68785, Control_c, 0, 64, 0
2, 68833, Control_c, 0, 64, 127
2, 68879, Note_on_c, 0, 80, 72
2, 68935, Note_on_c, 0, 81, 69
2, 68942, Note_off_c, 0, 80, 64
2, 68942, Note_off_c, 0, 69, 64
2, 68976, Control_c, 0, 64, 0
2, 68988, Note_on_c, 0, 79, 79
2, 68993, Note_on_c, 0, 65, 65
2, 69009, Note_off_c, 0, 81, 64
2, 69018, Note_off_c, 0, 53, 64
2, 69020, Control_c, 0, 64, 127
2, 69027, Note_off_c, 0, 60, 64
2, 69031, Note_on_c, 0, 77, 84
2, 69051, Note_off_c, 0, 79, 64
2, 69078, Note_off_c, 0, 65, 64
2, 69085, Note_on_c, 0, 76, 80
2, 69107, Note_off_c, 0, 77, 64
2, 69140, Note_on_c, 0, 74, 84
2, 69142, Note_off_c, 0, 76, 64
2, 69187, Control_c, 0, 64, 0
2, 69192, Note_on_c, 0, 64, 69
2, 69193, Note_on_c, 0, 55, 68
2, 69199, Note_on_c, 0, 72, 86
2, 69213, Note_off_c, 0, 74, 64
2, 69223, Control_c, 0, 64, 127
2, 69288, Note_off_c, 0, 72, 64
2, 69342, Note_on_c, 0, 72, 81
2, 69357, Note_off_c, 0, 64, 64
2, 69373, Note_on_c, 0, 62, 61
2, 69375, Control_c, 0, 64, 0
2, 69383, Note_on_c, 0, 71, 77
2, 69390, Note_off_c, 0, 72, 64
2, 69409, Control_c, 0, 64, 127
2, 69416, Note_on_c, 0, 72, 84
2, 69427, Note_off_c, 0, 71, 64
2, 69443, Note_off_c, 0, 55, 64
2, 69458, Note_on_c, 0, 71, 72
2, 69468, Note_off_c, 0, 72, 64
2, 69485, Note_on_c, 0, 69, 73
2, 69516, Note_off_c, 0, 62, 64
2, 69523, Note_off_c, 0, 71, 64
2, 69531, Note_off_c, 0, 69, 64
2, 69536, Note_on_c, 0, 71, 78
2, 69566, Note_on_c, 0, 60, 71
2, 69569, Note_on_c, 0, 64, 71
2, 69573, Note_on_c, 0, 72, 80
2, 69585, Control_c, 0, 64, 0
2, 69597, Note_off_c, 0, 71, 64
2, 69623, Control_c, 0, 64, 127
2, 69643, Note_off_c, 0, 72, 64
2, 69645, Note_on_c, 0, 84, 71
2, 69678, Note_on_c, 0, 83, 71
2, 69688, Note_off_c, 0, 84, 64
2, 69738, Note_on_c, 0, 84, 71
2, 69771, Note_off_c, 0, 83, 64
2, 69789, Note_on_c, 0, 86, 56
2, 69799, Note_off_c, 0, 84, 64
2, 69852, Note_on_c, 0, 84, 65
2, 69873, Note_off_c, 0, 86, 64
2, 69880, Note_on_c, 0, 83, 68
2, 69908, Note_off_c, 0, 84, 64
2, 69932, Note_on_c, 0, 81, 75
2, 69945, Note_off_c, 0, 83, 64
2, 69960, Note_off_c, 0, 60, 64
2, 69970, Note_off_c, 0, 81, 64
2, 69993, Note_on_c, 0, 81, 77
2, 70032, Note_on_c, 0, 79, 63
2, 70077, Note_on_c, 0, 77, 64
2, 70083, Note_off_c, 0, 81, 64
2, 70098, Note_off_c, 0, 79, 64
2, 70129, Note_on_c, 0, 76, 67
2, 70137, Note_off_c, 0, 77, 64
2, 70165, Note_off_c, 0, 76, 64
2, 70174, Note_off_c, 0, 64, 64
2, 70177, Note_on_c, 0, 52, 57
2, 70177, Note_on_c, 0, 60, 60
2, 70188, Note_on_c, 0, 76, 80
2, 70197, Control_c, 0, 64, 0
2, 70226, Control_c, 0, 64, 127
2, 70235, Note_on_c, 0, 74, 56
2, 70245, Note_off_c, 0, 52, 64
2, 70266, Note_off_c, 0, 76, 64
2, 70274, Note_on_c, 0, 72, 64
2, 70303, Note_off_c, 0, 74, 64
2, 70327, Note_on_c, 0, 71, 67
2, 70344, Note_off_c, 0, 72, 64
2, 70372, Note_off_c, 0, 71, 64
2, 70373, Note_on_c, 0, 69, 68
2, 70376, Control_c, 0, 64, 0
2, 70381, Note_on_c, 0, 53, 58
2, 70435, Control_c, 0, 64, 127
2, 70476, Note_on_c, 0, 80, 52
2, 70537, Note_off_c, 0, 69, 64
2, 70538, Note_on_c, 0, 81, 42
2, 70540, Note_off_c, 0, 80, 64
2, 70578, Control_c, 0, 64, 0
2, 70583, Note_on_c, 0, 79, 63
2, 70586, Note_on_c, 0, 65, 53
2, 70603, Note_off_c, 0, 81, 64
2, 70612, Control_c, 0, 64, 127
2, 70619, Note_off_c, 0, 53, 64
2, 70627, Note_on_c, 0, 77, 63
2, 70643, Note_off_c, 0, 79, 64
2, 70664, Note_off_c, 0, 60, 64
2, 70674, Note_off_c, 0, 65, 64
2, 70678, Note_on_c, 0, 76, 63
2, 70697, Note_off_c, 0, 77, 64
2, 70730, Note_off_c, 0, 76, 64
2, 70730, Note_on_c, 0, 74, 67
2, 70781, Note_on_c, 0, 64, 58
2, 70781, Control_c, 0, 64, 0
2, 70787, Note_on_c, 0, 72, 73
2, 70788, Note_on_c, 0, 55, 54
2, 70825, Control_c, 0, 64, 127
2, 70832, Note_off_c, 0, 74, 64
2, 70901, Note_off_c, 0, 72, 64
2, 70960, Note_off_c, 0, 55, 64
2, 70966, Note_on_c, 0, 72, 67
2, 70982, Note_on_c, 0, 62, 59
2, 70992, Note_off_c, 0, 64, 64
2, 71005, Note_on_c, 0, 71, 64
2, 71009, Note_off_c, 0, 72, 64
2, 71020, Note_off_c, 0, 62, 64
2, 71035, Note_on_c, 0, 72, 67
2, 71045, Note_off_c, 0, 71, 64
2, 71077, Note_on_c, 0, 71, 59
2, 71088, Note_off_c, 0, 72, 64
2, 71107, Note_on_c, 0, 69, 58
2, 71121, Note_off_c, 0, 71, 64
2, 71145, Note_on_c, 0, 71, 60
2, 71163, Note_off_c, 0, 69, 64
2, 71174, Control_c, 0, 64, 0
2, 71180, Note_on_c, 0, 72, 70
2, 71180, Note_on_c, 0, 48, 57
2, 71193, Note_off_c, 0, 71, 64
2, 71224, Note_on_c, 0, 60, 81
2, 71226, Note_off_c, 0, 48, 64
2, 71231, Note_off_c, 0, 72, 64
2, 71231, Control_c, 0, 64, 127
2, 71279, Note_off_c, 0, 60, 64
2, 71279, Note_on_c, 0, 59, 76
2, 71323, Note_off_c, 0, 59, 64
2, 71331, Note_on_c, 0, 60, 77
2, 71364, Control_c, 0, 64, 0
2, 71372, Note_off_c, 0, 60, 64
2, 71373, Note_on_c, 0, 69, 80
2, 71373, Note_on_c, 0, 65, 77
2, 71378, Note_on_c, 0, 47, 84
2, 71382, Note_on_c, 0, 48, 84
2, 71410, Note_off_c, 0, 47, 64
2, 71414, Note_on_c, 0, 60, 85
2, 71422, Note_off_c, 0, 48, 64
2, 71424, Note_off_c, 0, 65, 64
2, 71429, Note_off_c, 0, 69, 64
2, 71429, Control_c, 0, 64, 127
2, 71466, Note_on_c, 0, 59, 88
2, 71474, Note_off_c, 0, 60, 64
2, 71506, Note_off_c, 0, 59, 64
2, 71515, Note_on_c, 0, 60, 86
2, 71553, Control_c, 0, 64, 0
2, 71565, Note_off_c, 0, 60, 64
2, 71568, Note_on_c, 0, 67, 76
2, 71572, Note_on_c, 0, 64, 67
2, 71575, Note_on_c, 0, 48, 94
2, 71610, Note_off_c, 0, 64, 64
2, 71611, Note_on_c, 0, 60, 84
2, 71617, Note_off_c, 0, 48, 64
2, 71617, Note_off_c, 0, 67, 64
2, 71626, Control_c, 0, 64, 127
2, 71671, Note_off_c, 0, 60, 64
2, 71671, Note_on_c, 0, 59, 81
2, 71717, Note_off_c, 0, 59, 64
2, 71717, Note_on_c, 0, 60, 84
2, 71742, Control_c, 0, 64, 0
2, 71764, Note_on_c, 0, 65, 78
2, 71768, Note_on_c, 0, 62, 77
2, 71771, Note_on_c, 0, 71, 79
2, 71772, Note_off_c, 0, 60, 64
2, 71777, Note_on_c, 0, 48, 96
2, 71808, Control_c, 0, 64, 127
2, 71818, Note_on_c, 0, 60, 84
2, 71823, Note_off_c, 0, 62, 64
2, 71824, Note_off_c, 0, 48, 64
2, 71825, Note_off_c, 0, 65, 64
2, 71831, Note_off_c, 0, 71, 64
2, 71878, Note_on_c, 0, 59, 81
2, 71882, Note_off_c, 0, 60, 64
2, 71927, Note_off_c, 0, 59, 64
2, 71928, Note_on_c, 0, 60, 84
2, 71941, Control_c, 0, 64, 0
2, 71969, Note_on_c, 0, 64, 76
2, 71973, Note_on_c, 0, 67, 76
2, 71975, Note_on_c, 0, 72, 76
2, 71980, Note_off_c, 0, 60, 64
2, 71983, Note_on_c, 0, 48, 94
2, 71998, Control_c, 0, 64, 127
2, 72003, Note_off_c, 0, 64, 64
2, 72004, Note_off_c, 0, 67, 64
2, 72017, Note_off_c, 0, 72, 64
2, 72027, Note_off_c, 0, 48, 64
2, 72029, Note_on_c, 0, 60, 86
2, 72085, Note_on_c, 0, 59, 86
2, 72089, Note_off_c, 0, 60, 64
2, 72132, Note_off_c, 0, 59, 64
2, 72135, Note_on_c, 0, 60, 85
2, 72147, Control_c, 0, 64, 0
2, 72171, Note_on_c, 0, 81, 79
2, 72172, Note_on_c, 0, 77, 79
2, 72193, Note_off_c, 0, 60, 64
2, 72194, Note_on_c, 0, 48, 90
2, 72203, Note_off_c, 0, 77, 64
2, 72206, Note_off_c, 0, 81, 64
2, 72221, Control_c, 0, 64, 127
2, 72231, Note_on_c, 0, 60, 86
2, 72238, Note_off_c, 0, 48, 64
2, 72288, Note_on_c, 0, 59, 86
2, 72298, Note_off_c, 0, 60, 64
2, 72335, Note_off_c, 0, 59, 64
2, 72336, Note_on_c, 0, 60, 88
2, 72384, Note_on_c, 0, 79, 78
2, 72390, Note_on_c, 0, 48, 92
2, 72392, Note_on_c, 0, 76, 71
2, 72396, Note_off_c, 0, 60, 64
2, 72433, Note_on_c, 0, 60, 88
2, 72436, Note_off_c, 0, 48, 64
2, 72437, Note_off_c, 0, 76, 64
2, 72440, Note_off_c, 0, 79, 64
2, 72484, Note_on_c, 0, 59, 84
2, 72491, Note_off_c, 0, 60, 64
2, 72530, Note_off_c, 0, 59, 64
2, 72534, Note_on_c, 0, 60, 88
2, 72573, Control_c, 0, 64, 0
2, 72588, Note_off_c, 0, 60, 64
2, 72593, Note_on_c, 0, 48, 90
2, 72600, Note_on_c, 0, 77, 71
2, 72603, Note_on_c, 0, 74, 71
2, 72603, Note_on_c, 0, 83, 72
2, 72639, Note_off_c, 0, 48, 64
2, 72639, Note_on_c, 0, 60, 84
2, 72643, Note_off_c, 0, 77, 64
2, 72643, Control_c, 0, 64, 127
2, 72648, Note_off_c, 0, 74, 64
2, 72653, Note_off_c, 0, 83, 64
2, 72705, Note_off_c, 0, 60, 64
2, 72706, Note_on_c, 0, 59, 58
2, 72758, Note_on_c, 0, 60, 78
2, 72760, Note_off_c, 0, 59, 64
2, 72816, Control_c, 0, 64, 0
2, 72836, Note_on_c, 0, 76, 69
2, 72839, Note_on_c, 0, 79, 71
2, 72839, Note_on_c, 0, 48, 79
2, 72844, Note_on_c, 0, 84, 71
2, 72873, Note_off_c, 0, 60, 64
2, 72873, Control_c, 0, 64, 127
2, 72882, Note_off_c, 0, 76, 64
2, 72883, Note_off_c, 0, 79, 64
2, 72884, Note_off_c, 0, 84, 64
2, 72889, Note_off_c, 0, 48, 64
2, 73480, Note_on_c, 0, 67, 76
2, 73635, Note_on_c, 0, 64, 68
2, 73663, Note_off_c, 0, 67, 64
2, 73684, Note_on_c, 0, 52, 69
2, 73685, Note_on_c, 0, 48, 71
2, 73685, Note_on_c, 0, 60, 74
2, 73699, Note_off_c, 0, 64, 64
2, 73728, Note_off_c, 0, 48, 64
2, 73731, Control_c, 0, 64, 127
2, 73740, Note_off_c, 0, 52, 64
2, 73744, Note_off_c, 0, 60, 64
2, 73872, Control_c, 0, 64, 0
2, 73898, Note_on_c, 0, 64, 77
2, 74038, Control_c, 0, 64, 127
2, 74049, Control_c, 0, 64, 0
2, 74053, Note_on_c, 0, 60, 74
2, 74073, Note_off_c, 0, 64, 64
2, 74096, Note_on_c, 0, 59, 79
2, 74101, Note_on_c, 0, 43, 65
2, 74108, Note_on_c, 0, 53, 53
2, 74115, Note_off_c, 0, 60, 64
2, 74178, Control_c, 0, 64, 127
2, 74204, Note_off_c, 0, 59, 64
2, 74221, Note_off_c, 0, 43, 64
2, 74255, Control_c, 0, 64, 0
2, 74261, Note_off_c, 0, 53, 64
2, 74294, Note_on_c, 0, 62, 73
2, 74332, Control_c, 0, 64, 127
2, 74425, Note_on_c, 0, 59, 75
2, 74449, Note_off_c, 0, 62, 64
2, 74478, Note_on_c, 0, 60, 84
2, 74484, Note_on_c, 0, 52, 68
2, 74484, Control_c, 0, 64, 0
2, 74489, Note_on_c, 0, 48, 67
2, 74500, Note_off_c, 0, 59, 64
2, 74522, Note_off_c, 0, 60, 64
2, 74538, Control_c, 0, 64, 127
2, 74689, Note_on_c, 0, 69, 76
2, 74692, Note_on_c, 0, 65, 77
2, 74697, Control_c, 0, 64, 0
2, 74703, Note_off_c, 0, 52, 64
2, 74707, Note_off_c, 0, 48, 64
2, 74764, Control_c, 0, 64, 127
2, 74882, Control_c, 0, 64, 0
2, 74895, Note_on_c, 0, 64, 69
2, 74897, Note_on_c, 0, 67, 73
2, 74911, Note_off_c, 0, 65, 64
2, 74927, Control_c, 0, 64, 127
2, 74931, Note_off_c, 0, 69, 64
2, 74939, Note_off_c, 0, 67, 64
2, 74940, Note_off_c, 0, 64, 64
2, 75106, Note_on_c, 0, 74, 78
2, 75113, Control_c, 0, 64, 0
2, 75153, Note_on_c, 0, 72, 65
2, 75161, Control_c, 0, 64, 127
2, 75177, Note_off_c, 0, 74, 64
2, 75211, Note_on_c, 0, 71, 67
2, 75241, Note_off_c, 0, 72, 64
2, 75256, Note_on_c, 0, 69, 79
2, 75286, Note_off_c, 0, 71, 64
2, 75298, Control_c, 0, 64, 0
2, 75306, Note_on_c, 0, 67, 84
2, 75320, Note_off_c, 0, 69, 64
2, 75339, Control_c, 0, 64, 127
2, 75475, Note_off_c, 0, 67, 64
2, 75492, Note_on_c, 0, 76, 69
2, 75499, Note_on_c, 0, 60, 74
2, 75507, Control_c, 0, 64, 0
2, 75538, Control_c, 0, 64, 127
2, 75551, Note_off_c, 0, 76, 64
2, 75557, Note_on_c, 0, 64, 84
2, 75613, Note_on_c, 0, 69, 71
2, 75642, Note_off_c, 0, 64, 64
2, 75679, Note_on_c, 0, 67, 77
2, 75688, Note_on_c, 0, 62, 73
2, 75695, Control_c, 0, 64, 0
2, 75702, Note_off_c, 0, 60, 64
2, 75703, Note_off_c, 0, 69, 64
2, 75735, Control_c, 0, 64, 127
2, 75783, Note_off_c, 0, 67, 64
2, 75847, Note_on_c, 0, 67, 84
2, 75884, Note_on_c, 0, 55, 67
2, 75900, Note_on_c, 0, 65, 72
2, 75902, Note_off_c, 0, 67, 64
2, 75906, Note_off_c, 0, 62, 64
2, 75921, Note_on_c, 0, 67, 77
2, 75933, Note_off_c, 0, 65, 64
2, 75963, Note_on_c, 0, 65, 77
2, 75974, Note_off_c, 0, 67, 64
2, 75989, Note_on_c, 0, 64, 79
2, 76003, Note_off_c, 0, 65, 64
2, 76033, Note_on_c, 0, 65, 81
2, 76045, Note_off_c, 0, 64, 64
2, 76059, Note_off_c, 0, 65, 64
2, 76073, Note_off_c, 0, 55, 64
2, 76083, Note_on_c, 0, 65, 86
2, 76083, Control_c, 0, 64, 0
2, 76089, Note_on_c, 0, 60, 65
2, 76135, Control_c, 0, 64, 127
2, 76280, Control_c, 0, 64, 0
2, 76286, Note_on_c, 0, 55, 69
2, 76338, Control_c, 0, 64, 127
2, 76484, Control_c, 0, 64, 0
2, 76489, Note_on_c, 0, 48, 65
2, 76494, Note_on_c, 0, 64, 71
2, 76511, Note_off_c, 0, 55, 64
2, 76519, Note_off_c, 0, 65, 64
2, 76533, Note_off_c, 0, 60, 64
2, 76548, Control_c, 0, 64, 127
2, 76614, Note_off_c, 0, 64, 64
2, 76665, Note_off_c, 0, 48, 64
2, 76679, Control_c, 0, 64, 0
2, 76685, Note_on_c, 0, 67, 71
2, 76718, Control_c, 0, 64, 127
2, 76731, Note_on_c, 0, 64, 79
2, 76745, Note_off_c, 0, 67, 64
2, 76783, Note_on_c, 0, 67, 71
2, 76786, Note_off_c, 0, 64, 64
2, 76830, Note_on_c, 0, 64, 81
2, 76845, Control_c, 0, 64, 0
2, 76852, Note_off_c, 0, 67, 64
2, 76868, Control_c, 0, 64, 127
2, 76877, Note_on_c, 0, 60, 79
2, 76882, Note_off_c, 0, 64, 64
2, 76919, Note_off_c, 0, 60, 64
2, 77041, Note_on_c, 0, 58, 45
2, 77077, Note_on_c, 0, 79, 74
2, 77094, Note_off_c, 0, 58, 64
2, 77105, Note_on_c, 0, 55, 56
2, 77138, Note_off_c, 0, 55, 64
2, 77146, Note_on_c, 0, 58, 97
2, 77197, Note_on_c, 0, 55, 67
2, 77208, Note_off_c, 0, 58, 64
2, 77244, Note_on_c, 0, 52, 78
2, 77256, Control_c, 0, 64, 0
2, 77262, Note_off_c, 0, 55, 64
2, 77283, Note_off_c, 0, 52, 64
2, 77297, Control_c, 0, 64, 127
2, 77398, Note_off_c, 0, 79, 64
2, 77443, Control_c, 0, 64, 0
2, 77448, Note_on_c, 0, 77, 84
2, 77452, Note_on_c, 0, 70, 77
2, 77495, Control_c, 0, 64, 127
2, 77501, Note_on_c, 0, 76, 68
2, 77518, Note_off_c, 0, 77, 64
2, 77541, Note_on_c, 0, 74, 81
2, 77566, Note_off_c, 0, 76, 64
2, 77577, Note_on_c, 0, 72, 81
2, 77592, Note_off_c, 0, 70, 64
2, 77601, Note_off_c, 0, 74, 64
2, 77616, Note_off_c, 0, 72, 64
2, 77644, Note_on_c, 0, 77, 81
2, 77655, Note_on_c, 0, 69, 76
2, 77829, Note_on_c, 0, 48, 86
2, 77837, Control_c, 0, 64, 0
2, 77880, Note_off_c, 0, 48, 64
2, 77880, Note_on_c, 0, 45, 84
2, 77888, Control_c, 0, 64, 127
2, 77928, Note_on_c, 0, 48, 86
2, 77933, Note_off_c, 0, 45, 64
2, 77969, Note_on_c, 0, 45, 80
2, 77985, Note_off_c, 0, 48, 64
2, 77994, Note_off_c, 0, 77, 64
2, 78015, Control_c, 0, 64, 0
2, 78025, Note_on_c, 0, 41, 96
2, 78029, Note_off_c, 0, 45, 64
2, 78040, Note_off_c, 0, 69, 64
2, 78084, Control_c, 0, 64, 127
2, 78175, Note_off_c, 0, 41, 64
2, 78214, Control_c, 0, 64, 0
2, 78220, Note_on_c, 0, 72, 71
2, 78262, Control_c, 0, 64, 127
2, 78267, Note_on_c, 0, 69, 84
2, 78274, Note_off_c, 0, 72, 64
2, 78311, Note_on_c, 0, 72, 81
2, 78320, Note_off_c, 0, 69, 64
2, 78350, Note_on_c, 0, 69, 71
2, 78371, Note_off_c, 0, 72, 64
2, 78393, Note_on_c, 0, 65, 78
2, 78402, Note_off_c, 0, 69, 64
2, 78426, Note_off_c, 0, 65, 64
2, 78590, Note_on_c, 0, 63, 90
2, 78596, Note_on_c, 0, 84, 77
2, 78637, Note_off_c, 0, 63, 64
2, 78639, Note_on_c, 0, 60, 67
2, 78689, Note_on_c, 0, 63, 96
2, 78690, Note_off_c, 0, 60, 64
2, 78727, Note_on_c, 0, 60, 71
2, 78743, Note_off_c, 0, 63, 64
2, 78766, Control_c, 0, 64, 0
2, 78772, Note_on_c, 0, 57, 76
2, 78795, Note_off_c, 0, 60, 64
2, 78804, Note_off_c, 0, 57, 64
2, 78819, Control_c, 0, 64, 127
2, 78941, Note_off_c, 0, 84, 64
2, 78956, Control_c, 0, 64, 0
2, 78964, Note_on_c, 0, 82, 75
2, 78969, Note_on_c, 0, 75, 74
2, 78999, Control_c, 0, 64, 127
2, 79007, Note_off_c, 0, 82, 64
2, 79014, Note_on_c, 0, 81, 69
2, 79052, Note_on_c, 0, 79, 78
2, 79073, Note_off_c, 0, 81, 64
2, 79104, Note_on_c, 0, 77, 77
2, 79106, Note_off_c, 0, 79, 64
2, 79136, Note_off_c, 0, 75, 64
2, 79137, Control_c, 0, 64, 0
2, 79145, Note_on_c, 0, 74, 79
2, 79152, Note_on_c, 0, 82, 96
2, 79176, Note_off_c, 0, 77, 64
2, 79190, Control_c, 0, 64, 127
2, 79205, Note_off_c, 0, 74, 64
2, 79211, Note_off_c, 0, 82, 64
2, 79270, Note_on_c, 0, 86, 65
2, 79305, Note_on_c, 0, 84, 71
2, 79324, Note_off_c, 0, 86, 64
2, 79346, Note_on_c, 0, 82, 84
2, 79368, Note_off_c, 0, 84, 64
2, 79391, Note_on_c, 0, 81, 67
2, 79406, Note_off_c, 0, 82, 64
2, 79422, Note_on_c, 0, 70, 67
2, 79429, Note_off_c, 0, 81, 64
2, 79430, Note_on_c, 0, 79, 86
2, 79459, Note_off_c, 0, 79, 64
2, 79479, Note_on_c, 0, 77, 81
2, 79494, Control_c, 0, 64, 0
2, 79499, Note_on_c, 0, 72, 77
2, 79505, Note_off_c, 0, 70, 64
2, 79527, Note_on_c, 0, 75, 92
2, 79531, Note_off_c, 0, 77, 64
2, 79540, Control_c, 0, 64, 127
2, 79626, Note_on_c, 0, 84, 77
2, 79649, Note_off_c, 0, 75, 64
2, 79685, Note_off_c, 0, 84, 64
2, 79708, Note_on_c, 0, 69, 85
2, 79710, Control_c, 0, 64, 0
2, 79727, Note_off_c, 0, 72, 64
2, 79768, Control_c, 0, 64, 127
2, 79804, Note_on_c, 0, 75, 84
2, 79871, Note_off_c, 0, 75, 64
2, 79899, Control_c, 0, 64, 0
2, 79906, Note_on_c, 0, 70, 78
2, 79908, Note_off_c, 0, 69, 64
2, 79912, Note_on_c, 0, 74, 79
2, 79944, Control_c, 0, 64, 127
2, 79957, Note_off_c, 0, 70, 64
2, 79995, Note_off_c, 0, 74, 64
2, 80012, Note_on_c, 0, 82, 57
2, 80060, Note_off_c, 0, 82, 64
2, 80064, Note_on_c, 0, 81, 69
2, 80111, Note_on_c, 0, 79, 66
2, 80126, Note_off_c, 0, 81, 64
2, 80141, Note_on_c, 0, 77, 71
2, 80161, Note_off_c, 0, 79, 64
2, 80171, Note_on_c, 0, 67, 69
2, 80184, Note_off_c, 0, 77, 64
2, 80186, Note_on_c, 0, 75, 94
2, 80225, Note_off_c, 0, 75, 64
2, 80248, Note_on_c, 0, 74, 86
2, 80270, Control_c, 0, 64, 0
2, 80276, Note_on_c, 0, 69, 73
2, 80279, Note_off_c, 0, 67, 64
2, 80283, Note_on_c, 0, 72, 84
2, 80298, Note_off_c, 0, 74, 64
2, 80316, Control_c, 0, 64, 127
2, 80393, Note_on_c, 0, 81, 76
2, 80435, Note_off_c, 0, 72, 64
2, 80465, Note_off_c, 0, 81, 64
2, 80480, Note_on_c, 0, 66, 92
2, 80485, Control_c, 0, 64, 0
2, 80498, Note_off_c, 0, 69, 64
2, 80526, Control_c, 0, 64, 127
2, 80574, Note_on_c, 0, 72, 73
2, 80647, Control_c, 0, 64, 0
2, 80655, Note_off_c, 0, 72, 64
2, 80674, Note_on_c, 0, 70, 92
2, 80677, Note_on_c, 0, 67, 81
2, 80683, Note_off_c, 0, 66, 64
2, 80701, Control_c, 0, 64, 127
2, 80761, Note_off_c, 0, 70, 64
2, 80791, Note_on_c, 0, 79, 71
2, 80849, Note_on_c, 0, 77, 73
2, 80866, Note_off_c, 0, 79, 64
2, 80876, Note_on_c, 0, 75, 71
2, 80905, Note_off_c, 0, 77, 64
2, 80920, Note_on_c, 0, 74, 76
2, 80937, Note_off_c, 0, 75, 64
2, 80957, Note_on_c, 0, 72, 86
2, 80958, Note_off_c, 0, 74, 64
2, 80965, Note_off_c, 0, 67, 64
2, 80967, Note_on_c, 0, 64, 67
2, 80995, Note_off_c, 0, 72, 64
2, 81011, Note_on_c, 0, 70, 81
2, 81028, Control_c, 0, 64, 0
2, 81048, Note_off_c, 0, 64, 64
2, 81048, Note_on_c, 0, 65, 85
2, 81054, Note_on_c, 0, 69, 88
2, 81063, Note_off_c, 0, 70, 64
2, 81082, Control_c, 0, 64, 127
2, 81160, Note_on_c, 0, 77, 79
2, 81170, Note_off_c, 0, 69, 64
2, 81229, Note_off_c, 0, 77, 64
2, 81254, Note_on_c, 0, 62, 81
2, 81259, Note_off_c, 0, 65, 64
2, 81262, Control_c, 0, 64, 0
2, 81318, Control_c, 0, 64, 127
2, 81344, Note_on_c, 0, 69, 71
2, 81420, Note_off_c, 0, 69, 64
2, 81441, Control_c, 0, 64, 0
2, 81451, Note_on_c, 0, 67, 78
2, 81455, Note_on_c, 0, 64, 79
2, 81468, Note_off_c, 0, 62, 64
2, 81494, Control_c, 0, 64, 127
2, 81553, Note_off_c, 0, 64, 64
2, 81576, Note_on_c, 0, 76, 71
2, 81623, Note_off_c, 0, 67, 64
2, 81629, Note_on_c, 0, 74, 71
2, 81638, Note_off_c, 0, 76, 64
2, 81668, Note_on_c, 0, 73, 84
2, 81696, Note_off_c, 0, 74, 64
2, 81706, Note_on_c, 0, 71, 81
2, 81736, Note_off_c, 0, 73, 64
2, 81751, Note_on_c, 0, 61, 79
2, 81760, Note_on_c, 0, 69, 86
2, 81762, Note_off_c, 0, 71, 64
2, 81804, Note_off_c, 0, 69, 64
2, 81812, Note_on_c, 0, 67, 76
2, 81839, Note_off_c, 0, 61, 64
2, 81839, Control_c, 0, 64, 0
2, 81845, Note_on_c, 0, 62, 88
2, 81860, Note_on_c, 0, 65, 86
2, 81871, Note_off_c, 0, 67, 64
2, 81894, Control_c, 0, 64, 127
2, 81951, Note_on_c, 0, 74, 72
2, 81999, Note_off_c, 0, 65, 64
2, 82003, Note_off_c, 0, 74, 64
2, 82019, Note_off_c, 0, 62, 64
2, 82025, Control_c, 0, 64, 0
2, 82035, Note_on_c, 0, 56, 79
2, 82057, Control_c, 0, 64, 127
2, 82080, Note_off_c, 0, 56, 64
2, 82129, Note_on_c, 0, 62, 66
2, 82136, Note_on_c, 0, 65, 57
2, 82174, Note_off_c, 0, 65, 64
2, 82218, Note_off_c, 0, 62, 64
2, 82230, Note_on_c, 0, 45, 81
2, 82236, Note_on_c, 0, 64, 68
2, 82241, Note_on_c, 0, 61, 79
2, 82244, Control_c, 0, 64, 0
2, 82273, Control_c, 0, 64, 127
2, 82279, Note_off_c, 0, 45, 64
2, 82281, Note_on_c, 0, 57, 86
2, 82297, Note_off_c, 0, 64, 64
2, 82306, Note_off_c, 0, 61, 64
2, 82326, Note_off_c, 0, 57, 64
2, 82332, Note_on_c, 0, 56, 94
2, 82372, Note_off_c, 0, 56, 64
2, 82379, Note_on_c, 0, 57, 88
2, 82423, Control_c, 0, 64, 0
2, 82431, Note_off_c, 0, 57, 64
2, 82434, Note_on_c, 0, 65, 74
2, 82438, Note_on_c, 0, 69, 76
2, 82438, Note_on_c, 0, 45, 90
2, 82470, Note_on_c, 0, 57, 85
2, 82476, Note_off_c, 0, 45, 64
2, 82485, Note_off_c, 0, 65, 64
2, 82491, Control_c, 0, 64, 127
2, 82524, Note_on_c, 0, 56, 97
2, 82529, Note_off_c, 0, 57, 64
2, 82560, Note_off_c, 0, 56, 64
2, 82568, Note_on_c, 0, 57, 84
2, 82605, Note_off_c, 0, 69, 64
2, 82608, Control_c, 0, 64, 0
2, 82620, Note_off_c, 0, 57, 64
2, 82620, Note_on_c, 0, 64, 74
2, 82622, Note_on_c, 0, 67, 76
2, 82626, Note_on_c, 0, 45, 94
2, 82659, Note_on_c, 0, 57, 86
2, 82666, Note_off_c, 0, 45, 64
2, 82666, Control_c, 0, 64, 127
2, 82720, Note_on_c, 0, 56, 97
2, 82726, Note_off_c, 0, 57, 64
2, 82764, Note_off_c, 0, 56, 64
2, 82766, Note_on_c, 0, 57, 81
2, 82779, Note_off_c, 0, 64, 64
2, 82781, Note_off_c, 0, 67, 64
2, 82802, Control_c, 0, 64, 0
2, 82817, Note_on_c, 0, 65, 74
2, 82817, Note_on_c, 0, 62, 77
2, 82823, Note_off_c, 0, 57, 64
2, 82832, Note_on_c, 0, 45, 94
2, 82848, Control_c, 0, 64, 127
2, 82863, Note_off_c, 0, 65, 64
2, 82877, Note_off_c, 0, 45, 64
2, 82879, Note_on_c, 0, 57, 86
2, 82922, Note_on_c, 0, 56, 92
2, 82937, Note_off_c, 0, 57, 64
2, 82956, Note_off_c, 0, 56, 64
2, 82967, Note_on_c, 0, 57, 79
2, 82986, Control_c, 0, 64, 0
2, 82992, Note_off_c, 0, 62, 64
2, 83005, Note_on_c, 0, 61, 77
2, 83009, Note_on_c, 0, 64, 78
2, 83016, Note_on_c, 0, 45, 90
2, 83041, Control_c, 0, 64, 127
2, 83046, Note_off_c, 0, 61, 64
2, 83052, Note_off_c, 0, 64, 64
2, 83059, Note_off_c, 0, 45, 64
2, 83089, Note_off_c, 0, 57, 64
2, 83219, Note_on_c, 0, 65, 79
2, 83220, Note_on_c, 0, 81, 78
2, 83222, Note_on_c, 0, 57, 71
2, 83233, Control_c, 0, 64, 0
2, 83270, Note_on_c, 0, 69, 84
2, 83285, Control_c, 0, 64, 127
2, 83288, Note_off_c, 0, 81, 64
2, 83317, Note_off_c, 0, 69, 64
2, 83321, Note_on_c, 0, 68, 86
2, 83362, Note_off_c, 0, 68, 64
2, 83373, Note_on_c, 0, 69, 86
2, 83418, Note_off_c, 0, 69, 64
2, 83418, Control_c, 0, 64, 0
2, 83424, Note_on_c, 0, 79, 84
2, 83426, Note_on_c, 0, 64, 76
2, 83444, Note_off_c, 0, 65, 64
2, 83459, Control_c, 0, 64, 127
2, 83466, Note_on_c, 0, 69, 84
2, 83482, Note_off_c, 0, 79, 64
2, 83515, Note_on_c, 0, 68, 88
2, 83522, Note_off_c, 0, 69, 64
2, 83559, Note_off_c, 0, 68, 64
2, 83572, Note_on_c, 0, 69, 76
2, 83596, Note_off_c, 0, 64, 64
2, 83614, Note_off_c, 0, 69, 64
2, 83619, Note_on_c, 0, 77, 79
2, 83627, Note_on_c, 0, 62, 71
2, 83630, Control_c, 0, 64, 0
2, 83659, Control_c, 0, 64, 127
2, 83679, Note_on_c, 0, 69, 85
2, 83700, Note_off_c, 0, 77, 64
2, 83705, Note_off_c, 0, 62, 64
2, 83728, Note_on_c, 0, 68, 81
2, 83733, Note_off_c, 0, 69, 64
2, 83777, Note_off_c, 0, 68, 64
2, 83788, Note_on_c, 0, 69, 72
2, 83803, Note_off_c, 0, 57, 64
2, 83847, Note_on_c, 0, 61, 61
2, 83855, Note_on_c, 0, 57, 48
2, 83858, Note_on_c, 0, 76, 71
2, 83868, Control_c, 0, 64, 0
2, 84013, Control_c, 0, 64, 127
2, 84043, Note_off_c, 0, 76, 64
2, 84066, Note_off_c, 0, 69, 64
2, 84117, Note_off_c, 0, 61, 64
2, 84120, Note_off_c, 0, 57, 64
2, 84287, Control_c, 0, 64, 0
2, 84442, Note_on_c, 0, 69, 74
2, 84492, Note_on_c, 0, 65, 55
2, 84503, Note_off_c, 0, 69, 64
2, 84535, Note_on_c, 0, 69, 84
2, 84550, Note_off_c, 0, 65, 64
2, 84580, Note_on_c, 0, 65, 70
2, 84601, Note_off_c, 0, 69, 64
2, 84619, Note_on_c, 0, 62, 81
2, 84632, Note_on_c, 0, 50, 69
2, 84635, Note_off_c, 0, 65, 64
2, 84636, Control_c, 0, 64, 127
2, 84679, Note_off_c, 0, 62, 64
2, 84723, Note_on_c, 0, 53, 74
2, 84724, Note_off_c, 0, 50, 64
2, 84821, Note_off_c, 0, 53, 64
2, 84829, Note_on_c, 0, 50, 69
2, 84925, Note_off_c, 0, 50, 64
2, 84927, Note_on_c, 0, 81, 96
2, 84930, Note_on_c, 0, 53, 69
2, 84987, Note_off_c, 0, 81, 64
2, 85004, Note_off_c, 0, 53, 64
2, 85021, Note_on_c, 0, 79, 93
2, 85031, Note_on_c, 0, 50, 74
2, 85081, Note_off_c, 0, 79, 64
2, 85104, Note_off_c, 0, 50, 64
2, 85131, Note_on_c, 0, 77, 100
2, 85134, Note_on_c, 0, 53, 73
2, 85191, Note_off_c, 0, 77, 64
2, 85217, Note_off_c, 0, 53, 64
2, 85229, Note_on_c, 0, 50, 74
2, 85230, Note_on_c, 0, 76, 97
2, 85282, Note_off_c, 0, 76, 64
2, 85312, Note_off_c, 0, 50, 64
2, 85323, Note_on_c, 0, 74, 100
2, 85335, Note_on_c, 0, 53, 78
2, 85372, Note_off_c, 0, 74, 64
2, 85390, Control_c, 0, 64, 0
2, 85394, Note_off_c, 0, 53, 64
2, 85421, Note_on_c, 0, 74, 106
2, 85426, Note_on_c, 0, 52, 84
2, 85451, Control_c, 0, 64, 127
2, 85523, Note_on_c, 0, 55, 76
2, 85532, Note_off_c, 0, 52, 64
2, 85629, Note_on_c, 0, 52, 76
2, 85633, Note_off_c, 0, 55, 64
2, 85670, Note_off_c, 0, 74, 64
2, 85728, Note_on_c, 0, 76, 82
2, 85732, Note_on_c, 0, 55, 44
2, 85737, Note_off_c, 0, 52, 64
2, 85773, Note_on_c, 0, 74, 86
2, 85790, Control_c, 0, 64, 0
2, 85795, Note_off_c, 0, 76, 64
2, 85811, Control_c, 0, 64, 127
2, 85818, Note_on_c, 0, 52, 84
2, 85818, Note_on_c, 0, 73, 106
2, 85821, Note_off_c, 0, 55, 64
2, 85834, Note_off_c, 0, 74, 64
2, 85864, Note_off_c, 0, 73, 64
2, 85904, Note_on_c, 0, 55, 75
2, 85907, Note_off_c, 0, 52, 64
2, 86015, Note_on_c, 0, 70, 84
2, 86016, Note_on_c, 0, 52, 84
2, 86029, Note_off_c, 0, 55, 64
2, 86069, Note_off_c, 0, 70, 64
2, 86069, Note_on_c, 0, 67, 72
2, 86093, Note_off_c, 0, 52, 64
2, 86098, Note_on_c, 0, 55, 53
2, 86113, Note_on_c, 0, 70, 88
2, 86120, Note_off_c, 0, 67, 64
2, 86154, Note_on_c, 0, 67, 66
2, 86167, Note_off_c, 0, 70, 64
2, 86181, Control_c, 0, 64, 0
2, 86197, Note_off_c, 0, 55, 64
2, 86207, Note_on_c, 0, 61, 94
2, 86211, Note_off_c, 0, 67, 64
2, 86214, Note_on_c, 0, 52, 92
2, 86227, Control_c, 0, 64, 127
2, 86242, Note_off_c, 0, 61, 64
2, 86302, Note_on_c, 0, 55, 81
2, 86311, Note_off_c, 0, 52, 64
2, 86401, Note_off_c, 0, 55, 64
2, 86408, Note_on_c, 0, 52, 84
2, 86505, Note_on_c, 0, 55, 75
2, 86513, Note_on_c, 0, 82, 106
2, 86521, Note_off_c, 0, 52, 64
2, 86567, Note_off_c, 0, 82, 64
2, 86591, Control_c, 0, 64, 0
2, 86600, Note_on_c, 0, 52, 88
2, 86606, Note_on_c, 0, 81, 106
2, 86626, Note_off_c, 0, 55, 64
2, 86634, Control_c, 0, 64, 127
2, 86674, Note_off_c, 0, 81, 64
2, 86687, Note_off_c, 0, 52, 64
2, 86696, Note_on_c, 0, 55, 79
2, 86701, Note_on_c, 0, 79, 106
2, 86764, Note_off_c, 0, 79, 64
2, 86788, Note_off_c, 0, 55, 64
2, 86794, Note_on_c, 0, 52, 78
2, 86796, Note_on_c, 0, 77, 106
2, 86853, Note_off_c, 0, 77, 64
2, 86868, Note_off_c, 0, 52, 64
2, 86880, Note_on_c, 0, 55, 66
2, 86892, Note_on_c, 0, 76, 106
2, 86933, Note_off_c, 0, 76, 64
2, 86948, Note_off_c, 0, 55, 64
2, 86977, Control_c, 0, 64, 0
2, 86992, Note_on_c, 0, 76, 100
2, 86992, Note_on_c, 0, 53, 77
2, 87021, Control_c, 0, 64, 127
2, 87077, Note_off_c, 0, 53, 64
2, 87081, Note_on_c, 0, 57, 71
2, 87176, Note_off_c, 0, 57, 64
2, 87182, Note_on_c, 0, 53, 70
2, 87235, Note_off_c, 0, 76, 64
2, 87286, Note_off_c, 0, 53, 64
2, 87288, Note_on_c, 0, 57, 72
2, 87294, Note_on_c, 0, 77, 66
2, 87346, Note_on_c, 0, 76, 100
2, 87357, Note_off_c, 0, 57, 64
2, 87368, Note_off_c, 0, 77, 64
2, 87375, Note_on_c, 0, 53, 84
2, 87384, Note_on_c, 0, 74, 102
2, 87399, Note_off_c, 0, 76, 64
2, 87432, Note_off_c, 0, 74, 64
2, 87464, Note_off_c, 0, 53, 64
2, 87468, Note_on_c, 0, 57, 79
2, 87573, Note_off_c, 0, 57, 64
2, 87573, Note_on_c, 0, 53, 74
2, 87573, Note_on_c, 0, 74, 79
2, 87619, Note_on_c, 0, 69, 71
2, 87633, Note_off_c, 0, 74, 64
2, 87636, Note_off_c, 0, 53, 64
2, 87662, Note_on_c, 0, 57, 29
2, 87673, Note_on_c, 0, 74, 79
2, 87679, Note_off_c, 0, 69, 64
2, 87707, Note_on_c, 0, 69, 77
2, 87724, Note_off_c, 0, 74, 64
2, 87744, Note_off_c, 0, 57, 64
2, 87746, Control_c, 0, 64, 0
2, 87750, Note_on_c, 0, 62, 76
2, 87761, Note_on_c, 0, 53, 71
2, 87769, Note_off_c, 0, 69, 64
2, 87789, Control_c, 0, 64, 127
2, 87840, Note_off_c, 0, 62, 64
2, 87852, Note_on_c, 0, 57, 75
2, 87853, Note_off_c, 0, 53, 64
2, 87944, Note_off_c, 0, 57, 64
2, 87951, Note_on_c, 0, 53, 65
2, 88037, Note_off_c, 0, 53, 64
2, 88053, Note_on_c, 0, 75, 88
2, 88058, Note_on_c, 0, 57, 65
2, 88116, Note_off_c, 0, 75, 64
2, 88131, Note_off_c, 0, 57, 64
2, 88136, Control_c, 0, 64, 0
2, 88147, Note_on_c, 0, 74, 77
2, 88148, Note_on_c, 0, 54, 88
2, 88162, Control_c, 0, 64, 127
2, 88201, Note_off_c, 0, 74, 64
2, 88223, Note_off_c, 0, 54, 64
2, 88239, Note_on_c, 0, 72, 84
2, 88240, Note_on_c, 0, 62, 84
2, 88295, Note_off_c, 0, 72, 64
2, 88308, Note_off_c, 0, 62, 64
2, 88332, Note_on_c, 0, 70, 94
2, 88333, Note_on_c, 0, 54, 86
2, 88388, Note_off_c, 0, 70, 64
2, 88405, Note_off_c, 0, 54, 64
2, 88416, Note_on_c, 0, 69, 79
2, 88428, Note_on_c, 0, 62, 84
2, 88491, Note_off_c, 0, 69, 64
2, 88505, Control_c, 0, 64, 0
2, 88509, Note_off_c, 0, 62, 64
2, 88519, Note_on_c, 0, 72, 84
2, 88524, Note_on_c, 0, 55, 90
2, 88557, Control_c, 0, 64, 127
2, 88602, Note_off_c, 0, 55, 64
2, 88622, Note_on_c, 0, 62, 77
2, 88702, Note_off_c, 0, 62, 64
2, 88708, Note_off_c, 0, 72, 64
2, 88714, Note_on_c, 0, 70, 78
2, 88717, Note_on_c, 0, 55, 86
2, 88774, Note_off_c, 0, 70, 64
2, 88791, Note_off_c, 0, 55, 64
2, 88797, Note_on_c, 0, 77, 84
2, 88807, Note_on_c, 0, 62, 74
2, 88858, Note_off_c, 0, 77, 64
2, 88875, Note_off_c, 0, 62, 64
2, 88890, Control_c, 0, 64, 0
2, 88897, Note_on_c, 0, 56, 97
2, 88905, Note_on_c, 0, 76, 84
2, 88942, Control_c, 0, 64, 127
2, 88949, Note_off_c, 0, 76, 64
2, 88983, Note_off_c, 0, 56, 64
2, 88994, Note_on_c, 0, 64, 74
2, 88998, Note_on_c, 0, 74, 86
2, 89047, Note_off_c, 0, 74, 64
2, 89079, Note_off_c, 0, 64, 64
2, 89084, Note_on_c, 0, 73, 84
2, 89088, Note_on_c, 0, 56, 94
2, 89140, Note_off_c, 0, 73, 64
2, 89153, Note_off_c, 0, 56, 64
2, 89182, Note_on_c, 0, 64, 84
2, 89183, Note_on_c, 0, 71, 84
2, 89265, Note_off_c, 0, 71, 64
2, 89270, Note_off_c, 0, 64, 64
2, 89278, Control_c, 0, 64, 0
2, 89282, Note_on_c, 0, 74, 88
2, 89286, Note_on_c, 0, 57, 86
2, 89334, Control_c, 0, 64, 127
2, 89360, Note_off_c, 0, 57, 64
2, 89367, Note_on_c, 0, 64, 85
2, 89453, Note_off_c, 0, 64, 64
2, 89464, Note_on_c, 0, 73, 85
2, 89467, Note_on_c, 0, 57, 84
2, 89472, Note_off_c, 0, 74, 64
2, 89514, Note_off_c, 0, 73, 64
2, 89540, Note_off_c, 0, 57, 64
2, 89563, Note_on_c, 0, 64, 49
2, 89568, Note_on_c, 0, 82, 92
2, 89622, Note_off_c, 0, 82, 64
2, 89636, Note_off_c, 0, 64, 64
2, 89647, Control_c, 0, 64, 0
2, 89659, Note_on_c, 0, 61, 90
2, 89661, Note_on_c, 0, 81, 72
2, 89690, Control_c, 0, 64, 127
2, 89726, Note_off_c, 0, 81, 64
2, 89735, Note_off_c, 0, 61, 64
2, 89751, Note_on_c, 0, 69, 66
2, 89755, Note_on_c, 0, 79, 86
2, 89803, Note_off_c, 0, 69, 64
2, 89833, Note_off_c, 0, 79, 64
2, 89833, Note_on_c, 0, 61, 46
2, 89848, Note_on_c, 0, 77, 79
2, 89912, Note_off_c, 0, 77, 64
2, 89924, Note_off_c, 0, 61, 64
2, 89929, Note_on_c, 0, 69, 65
2, 89934, Note_on_c, 0, 76, 84
2, 89969, Note_off_c, 0, 69, 64
2, 89984, Note_off_c, 0, 76, 64
2, 90030, Note_on_c, 0, 77, 88
2, 90057, Control_c, 0, 64, 0
2, 90078, Note_on_c, 0, 74, 67
2, 90096, Note_off_c, 0, 77, 64
2, 90123, Note_on_c, 0, 69, 56
2, 90129, Control_c, 0, 64, 127
2, 90137, Note_off_c, 0, 74, 64
2, 90166, Note_on_c, 0, 65, 71
2, 90188, Note_off_c, 0, 69, 64
2, 90220, Note_on_c, 0, 62, 84
2, 90237, Note_off_c, 0, 65, 64
2, 90260, Note_on_c, 0, 77, 81
2, 90266, Note_off_c, 0, 62, 64
2, 90303, Note_on_c, 0, 74, 78
2, 90320, Note_off_c, 0, 77, 64
2, 90342, Note_on_c, 0, 69, 77
2, 90361, Note_off_c, 0, 74, 64
2, 90395, Note_on_c, 0, 79, 93
2, 90408, Control_c, 0, 64, 0
2, 90424, Note_off_c, 0, 69, 64
2, 90440, Note_on_c, 0, 76, 71
2, 90468, Control_c, 0, 64, 127
2, 90471, Note_off_c, 0, 79, 64
2, 90475, Note_on_c, 0, 73, 84
2, 90505, Note_off_c, 0, 76, 64
2, 90520, Note_on_c, 0, 67, 84
2, 90540, Note_off_c, 0, 73, 64
2, 90568, Note_on_c, 0, 64, 70
2, 90582, Note_off_c, 0, 67, 64
2, 90618, Note_on_c, 0, 79, 88
2, 90628, Note_off_c, 0, 64, 64
2, 90672, Note_on_c, 0, 76, 78
2, 90691, Note_off_c, 0, 79, 64
2, 90716, Note_on_c, 0, 73, 100
2, 90725, Note_off_c, 0, 76, 64
2, 90758, Control_c, 0, 64, 0
2, 90766, Note_on_c, 0, 81, 106
2, 90778, Note_off_c, 0, 73, 64
2, 90810, Note_on_c, 0, 77, 87
2, 90819, Control_c, 0, 64, 127
2, 90852, Note_off_c, 0, 81, 64
2, 90863, Note_on_c, 0, 74, 87
2, 90882, Note_off_c, 0, 77, 64
2, 90904, Note_on_c, 0, 69, 78
2, 90956, Note_on_c, 0, 65, 92
2, 90983, Note_off_c, 0, 74, 64
2, 90987, Note_off_c, 0, 69, 64
2, 90996, Note_on_c, 0, 81, 82
2, 91011, Note_off_c, 0, 65, 64
2, 91044, Note_on_c, 0, 77, 82
2, 91055, Note_off_c, 0, 81, 64
2, 91080, Note_on_c, 0, 74, 86
2, 91081, Note_off_c, 0, 77, 64
2, 91111, Control_c, 0, 64, 0
2, 91135, Note_on_c, 0, 82, 106
2, 91164, Note_off_c, 0, 74, 64
2, 91170, Control_c, 0, 64, 127
2, 91175, Note_on_c, 0, 79, 97
2, 91197, Note_off_c, 0, 82, 64
2, 91215, Note_on_c, 0, 74, 87
2, 91226, Note_off_c, 0, 79, 64
2, 91256, Note_on_c, 0, 70, 97
2, 91269, Note_off_c, 0, 74, 64
2, 91303, Note_on_c, 0, 67, 80
2, 91324, Note_off_c, 0, 70, 64
2, 91354, Note_on_c, 0, 82, 100
2, 91355, Note_off_c, 0, 67, 64
2, 91392, Note_on_c, 0, 79, 80
2, 91409, Note_off_c, 0, 82, 64
2, 91435, Note_off_c, 0, 79, 64
2, 91436, Note_on_c, 0, 74, 100
2, 91481, Note_on_c, 0, 81, 90
2, 91491, Control_c, 0, 64, 0
2, 91512, Note_off_c, 0, 74, 64
2, 91524, Note_on_c, 0, 77, 84
2, 91544, Note_off_c, 0, 81, 64
2, 91551, Control_c, 0, 64, 127
2, 91560, Note_on_c, 0, 74, 74
2, 91591, Note_off_c, 0, 77, 64
2, 91600, Note_on_c, 0, 69, 75
2, 91640, Note_off_c, 0, 74, 64
2, 91652, Note_on_c, 0, 65, 76
2, 91685, Note_off_c, 0, 69, 64
2, 91688, Note_on_c, 0, 81, 69
2, 91699, Note_off_c, 0, 65, 64
2, 91728, Note_on_c, 0, 77, 67
2, 91746, Note_off_c, 0, 81, 64
2, 91772, Note_on_c, 0, 74, 84
2, 91783, Note_off_c, 0, 77, 64
2, 91808, Note_on_c, 0, 83, 106
2, 91857, Note_off_c, 0, 74, 64
2, 91864, Note_on_c, 0, 77, 74
2, 91891, Note_off_c, 0, 83, 64
2, 91892, Control_c, 0, 64, 0
2, 91912, Note_on_c, 0, 74, 82
2, 91929, Note_off_c, 0, 77, 64
2, 91951, Control_c, 0, 64, 127
2, 91971, Note_on_c, 0, 71, 75
2, 92024, Note_on_c, 0, 68, 53
2, 92036, Note_off_c, 0, 74, 64
2, 92040, Note_off_c, 0, 71, 64
2, 92073, Note_off_c, 0, 68, 64
2, 92084, Note_on_c, 0, 83, 80
2, 92136, Note_on_c, 0, 77, 80
2, 92144, Note_off_c, 0, 83, 64
2, 92179, Note_off_c, 0, 77, 64
2, 92185, Note_on_c, 0, 74, 92
2, 92241, Note_on_c, 0, 85, 106
2, 92261, Note_off_c, 0, 74, 64
2, 92284, Note_on_c, 0, 81, 78
2, 92289, Control_c, 0, 64, 0
2, 92308, Note_off_c, 0, 85, 64
2, 92325, Note_on_c, 0, 76, 81
2, 92331, Note_off_c, 0, 81, 64
2, 92341, Control_c, 0, 64, 127
2, 92376, Note_on_c, 0, 73, 76
2, 92382, Note_off_c, 0, 76, 64
2, 92412, Note_on_c, 0, 69, 52
2, 92449, Note_off_c, 0, 73, 64
2, 92464, Note_off_c, 0, 69, 64
2, 92470, Note_on_c, 0, 85, 77
2, 92517, Note_on_c, 0, 81, 81
2, 92541, Note_off_c, 0, 85, 64
2, 92557, Note_on_c, 0, 76, 88
2, 92564, Note_off_c, 0, 81, 64
2, 92601, Control_c, 0, 64, 0
2, 92616, Note_off_c, 0, 76, 64
2, 92617, Note_on_c, 0, 86, 106
2, 92632, Control_c, 0, 64, 127
2, 92668, Note_on_c, 0, 80, 81
2, 92698, Note_off_c, 0, 86, 64
2, 92714, Note_on_c, 0, 77, 81
2, 92731, Note_off_c, 0, 80, 64
2, 92752, Note_on_c, 0, 74, 90
2, 92789, Note_off_c, 0, 77, 64
2, 92800, Note_on_c, 0, 71, 72
2, 92824, Note_off_c, 0, 74, 64
2, 92856, Note_on_c, 0, 86, 88
2, 92868, Note_off_c, 0, 71, 64
2, 92903, Note_on_c, 0, 80, 103
2, 92944, Note_on_c, 0, 77, 51
2, 92958, Note_off_c, 0, 86, 64
2, 92966, Note_off_c, 0, 80, 64
2, 92988, Note_on_c, 0, 85, 106
2, 93020, Note_off_c, 0, 77, 64
2, 93032, Note_on_c, 0, 81, 74
2, 93054, Note_off_c, 0, 85, 64
2, 93078, Note_on_c, 0, 76, 71
2, 93105, Note_off_c, 0, 81, 64
2, 93119, Note_off_c, 0, 76, 64
2, 93128, Note_on_c, 0, 73, 77
2, 93161, Note_on_c, 0, 69, 63
2, 93189, Note_off_c, 0, 73, 64
2, 93200, Note_on_c, 0, 88, 80
2, 93230, Note_off_c, 0, 69, 64
2, 93247, Note_on_c, 0, 85, 68
2, 93268, Note_off_c, 0, 88, 64
2, 93292, Note_on_c, 0, 81, 63
2, 93312, Note_off_c, 0, 85, 64
2, 93332, Note_on_c, 0, 85, 106
2, 93340, Control_c, 0, 64, 0
2, 93343, Note_off_c, 0, 81, 64
2, 93373, Control_c, 0, 64, 127
2, 93395, Note_off_c, 0, 85, 64
2, 93397, Note_on_c, 0, 81, 71
2, 93448, Note_on_c, 0, 76, 43
2, 93470, Note_off_c, 0, 81, 64
2, 93496, Note_on_c, 0, 73, 84
2, 93539, Note_off_c, 0, 76, 64
2, 93552, Note_on_c, 0, 69, 63
2, 93560, Note_off_c, 0, 73, 64
2, 93585, Note_on_c, 0, 85, 70
2, 93621, Note_off_c, 0, 69, 64
2, 93625, Note_on_c, 0, 81, 71
2, 93647, Note_off_c, 0, 85, 64
2, 93672, Note_off_c, 0, 81, 64
2, 93682, Note_on_c, 0, 76, 77
2, 93715, Control_c, 0, 64, 0
2, 93730, Note_on_c, 0, 82, 100
2, 93756, Note_off_c, 0, 76, 64
2, 93766, Control_c, 0, 64, 127
2, 93773, Note_on_c, 0, 79, 69
2, 93795, Note_off_c, 0, 82, 64
2, 93822, Note_off_c, 0, 79, 64
2, 93834, Note_on_c, 0, 76, 59
2, 93866, Control_c, 0, 64, 0
2, 93872, Note_off_c, 0, 76, 64
2, 93880, Note_on_c, 0, 73, 75
2, 93910, Note_off_c, 0, 73, 64
2, 93925, Note_on_c, 0, 81, 80
2, 93965, Note_on_c, 0, 78, 79
2, 93998, Note_off_c, 0, 81, 64
2, 94016, Note_on_c, 0, 75, 88
2, 94018, Note_off_c, 0, 78, 64
2, 94053, Note_off_c, 0, 75, 64
2, 94059, Note_on_c, 0, 72, 71
2, 94099, Note_off_c, 0, 72, 64
2, 94128, Note_on_c, 0, 80, 88
2, 94164, Note_on_c, 0, 77, 68
2, 94194, Note_off_c, 0, 80, 64
2, 94211, Note_on_c, 0, 74, 77
2, 94226, Note_off_c, 0, 77, 64
2, 94260, Note_on_c, 0, 71, 84
2, 94266, Note_off_c, 0, 74, 64
2, 94296, Note_off_c, 0, 71, 64
2, 94318, Note_on_c, 0, 79, 77
2, 94334, Control_c, 0, 64, 127
2, 94361, Note_on_c, 0, 76, 64
2, 94394, Note_off_c, 0, 79, 64
2, 94415, Note_on_c, 0, 73, 85
2, 94418, Note_off_c, 0, 76, 64
2, 94451, Note_off_c, 0, 73, 64
2, 94464, Note_on_c, 0, 70, 80
2, 94495, Note_off_c, 0, 70, 64
2, 94506, Note_on_c, 0, 77, 86
2, 94546, Note_on_c, 0, 74, 66
2, 94585, Note_off_c, 0, 77, 64
2, 94591, Note_on_c, 0, 71, 68
2, 94619, Note_off_c, 0, 74, 64
2, 94648, Note_on_c, 0, 68, 72
2, 94666, Note_off_c, 0, 71, 64
2, 94680, Control_c, 0, 64, 0
2, 94699, Note_on_c, 0, 56, 94
2, 94706, Note_off_c, 0, 68, 64
2, 94713, Control_c, 0, 64, 127
2, 94740, Note_off_c, 0, 56, 64
2, 94754, Note_on_c, 0, 71, 78
2, 94800, Note_on_c, 0, 74, 65
2, 94849, Note_on_c, 0, 77, 71
2, 94854, Note_off_c, 0, 71, 64
2, 94876, Note_off_c, 0, 74, 64
2, 94896, Note_on_c, 0, 62, 79
2, 94900, Note_on_c, 0, 57, 66
2, 94907, Note_off_c, 0, 77, 64
2, 94908, Control_c, 0, 64, 0
2, 94938, Control_c, 0, 64, 127
2, 94951, Note_on_c, 0, 69, 78
2, 94953, Note_off_c, 0, 57, 64
2, 94958, Note_off_c, 0, 62, 64
2, 95005, Note_on_c, 0, 74, 66
2, 95043, Note_on_c, 0, 77, 70
2, 95065, Note_off_c, 0, 69, 64
2, 95072, Note_off_c, 0, 74, 64
2, 95094, Control_c, 0, 64, 0
2, 95100, Note_off_c, 0, 77, 64
2, 95100, Note_on_c, 0, 61, 84
2, 95103, Note_on_c, 0, 57, 77
2, 95135, Note_off_c, 0, 57, 64
2, 95140, Control_c, 0, 64, 127
2, 95144, Note_off_c, 0, 61, 64
2, 95162, Note_on_c, 0, 67, 67
2, 95202, Note_on_c, 0, 73, 56
2, 95251, Note_off_c, 0, 67, 64
2, 95251, Note_on_c, 0, 76, 69
2, 95270, Note_off_c, 0, 73, 64
2, 95284, Note_off_c, 0, 76, 64
2, 95287, Control_c, 0, 64, 0
2, 95314, Note_on_c, 0, 73, 102
2, 95346, Control_c, 0, 64, 127
2, 95355, Note_off_c, 0, 73, 64
2, 95367, Note_on_c, 0, 76, 71
2, 95412, Note_on_c, 0, 79, 61
2, 95459, Note_off_c, 0, 76, 64
2, 95459, Note_on_c, 0, 82, 65
2, 95490, Note_off_c, 0, 79, 64
2, 95500, Control_c, 0, 64, 0
2, 95516, Note_off_c, 0, 82, 64
2, 95519, Note_on_c, 0, 72, 92
2, 95551, Control_c, 0, 64, 127
2, 95568, Note_off_c, 0, 72, 64
2, 95579, Note_on_c, 0, 75, 86
2, 95626, Note_on_c, 0, 78, 42
2, 95671, Note_off_c, 0, 75, 64
2, 95671, Note_on_c, 0, 81, 65
2, 95686, Note_off_c, 0, 78, 64
2, 95709, Note_off_c, 0, 81, 64
2, 95717, Note_on_c, 0, 71, 85
2, 95717, Control_c, 0, 64, 0
2, 95761, Note_off_c, 0, 71, 64
2, 95767, Note_on_c, 0, 74, 79
2, 95770, Control_c, 0, 64, 127
2, 95818, Note_on_c, 0, 77, 66
2, 95854, Note_on_c, 0, 80, 71
2, 95861, Note_off_c, 0, 74, 64
2, 95892, Note_off_c, 0, 77, 64
2, 95905, Control_c, 0, 64, 0
2, 95914, Note_on_c, 0, 70, 94
2, 95922, Note_off_c, 0, 80, 64
2, 95945, Control_c, 0, 64, 127
2, 95955, Note_off_c, 0, 70, 64
2, 95961, Note_on_c, 0, 73, 84
2, 96010, Note_on_c, 0, 76, 72
2, 96033, Note_off_c, 0, 73, 64
2, 96057, Note_on_c, 0, 79, 56
2, 96081, Note_off_c, 0, 76, 64
2, 96101, Control_c, 0, 64, 0
2, 96105, Note_off_c, 0, 79, 64
2, 96108, Note_on_c, 0, 68, 84
2, 96153, Control_c, 0, 64, 127
2, 96158, Note_off_c, 0, 68, 64
2, 96169, Note_on_c, 0, 71, 67
2, 96216, Note_on_c, 0, 74, 65
2, 96263, Note_on_c, 0, 77, 61
2, 96268, Note_off_c, 0, 71, 64
2, 96288, Note_off_c, 0, 74, 64
2, 96289, Control_c, 0, 64, 0
2, 96308, Note_on_c, 0, 56, 78
2, 96319, Note_off_c, 0, 77, 64
2, 96330, Control_c, 0, 64, 127
2, 96360, Note_on_c, 0, 71, 71
2, 96365, Note_off_c, 0, 56, 64
2, 96407, Note_on_c, 0, 74, 54
2, 96450, Note_off_c, 0, 71, 64
2, 96464, Note_on_c, 0, 77, 67
2, 96471, Note_off_c, 0, 74, 64
2, 96497, Control_c, 0, 64, 0
2, 96503, Note_on_c, 0, 62, 73
2, 96504, Note_on_c, 0, 57, 68
2, 96507, Note_off_c, 0, 77, 64
2, 96543, Note_on_c, 0, 69, 75
2, 96550, Control_c, 0, 64, 127
2, 96555, Note_off_c, 0, 62, 64
2, 96562, Note_off_c, 0, 57, 64
2, 96588, Note_on_c, 0, 74, 58
2, 96637, Note_on_c, 0, 77, 77
2, 96640, Note_off_c, 0, 69, 64
2, 96660, Note_off_c, 0, 74, 64
2, 96686, Control_c, 0, 64, 0
2, 96699, Note_on_c, 0, 57, 68
2, 96702, Note_off_c, 0, 77, 64
2, 96702, Note_on_c, 0, 61, 71
2, 96729, Note_off_c, 0, 61, 64
2, 96732, Control_c, 0, 64, 127
2, 96736, Note_on_c, 0, 67, 58
2, 96738, Note_off_c, 0, 57, 64
2, 96790, Note_on_c, 0, 73, 75
2, 96827, Note_on_c, 0, 76, 71
2, 96836, Note_off_c, 0, 67, 64
2, 96846, Note_off_c, 0, 73, 64
2, 96888, Note_on_c, 0, 50, 73
2, 96895, Note_off_c, 0, 76, 64
2, 96896, Note_on_c, 0, 74, 92
2, 96901, Control_c, 0, 64, 0
2, 96932, Note_off_c, 0, 50, 64
2, 96934, Note_on_c, 0, 62, 84
2, 96942, Control_c, 0, 64, 127
2, 96985, Note_off_c, 0, 62, 64
2, 96989, Note_on_c, 0, 61, 97
2, 97031, Note_off_c, 0, 61, 64
2, 97035, Note_on_c, 0, 62, 79
2, 97078, Note_off_c, 0, 62, 64
2, 97083, Note_on_c, 0, 50, 92
2, 97087, Note_off_c, 0, 74, 64
2, 97123, Note_on_c, 0, 62, 86
2, 97126, Note_off_c, 0, 50, 64
2, 97174, Note_on_c, 0, 61, 98
2, 97177, Note_off_c, 0, 62, 64
2, 97221, Note_off_c, 0, 61, 64
2, 97221, Note_on_c, 0, 62, 88
2, 97259, Control_c, 0, 64, 0
2, 97273, Note_on_c, 0, 75, 92
2, 97276, Note_on_c, 0, 66, 91
2, 97277, Note_on_c, 0, 72, 96
2, 97280, Note_off_c, 0, 62, 64
2, 97284, Note_on_c, 0, 50, 98
2, 97325, Note_on_c, 0, 62, 88
2, 97327, Note_off_c, 0, 50, 64
2, 97328, Control_c, 0, 64, 127
2, 97380, Note_on_c, 0, 61, 97
2, 97385, Note_off_c, 0, 62, 64
2, 97425, Note_off_c, 0, 61, 64
2, 97427, Note_on_c, 0, 62, 88
2, 97463, Note_off_c, 0, 72, 64
2, 97481, Note_on_c, 0, 50, 94
2, 97487, Note_off_c, 0, 62, 64
2, 97523, Note_off_c, 0, 50, 64
2, 97524, Note_on_c, 0, 62, 88
2, 97554, Note_off_c, 0, 66, 64
2, 97574, Note_on_c, 0, 61, 96
2, 97583, Note_off_c, 0, 62, 64
2, 97615, Note_off_c, 0, 61, 64
2, 97618, Note_on_c, 0, 62, 86
2, 97637, Control_c, 0, 64, 0
2, 97643, Note_off_c, 0, 75, 64
2, 97655, Note_on_c, 0, 67, 90
2, 97660, Note_on_c, 0, 70, 91
2, 97662, Note_on_c, 0, 74, 91
2, 97675, Note_off_c, 0, 62, 64
2, 97678, Note_on_c, 0, 50, 97
2, 97687, Control_c, 0, 64, 127
2, 97692, Note_off_c, 0, 70, 64
2, 97692, Note_off_c, 0, 67, 64
2, 97697, Note_off_c, 0, 74, 64
2, 97713, Note_on_c, 0, 62, 84
2, 97719, Note_off_c, 0, 50, 64
2, 97766, Note_on_c, 0, 61, 94
2, 97778, Note_off_c, 0, 62, 64
2, 97811, Note_off_c, 0, 61, 64
2, 97816, Note_on_c, 0, 62, 86
2, 97835, Control_c, 0, 64, 0
2, 97855, Note_on_c, 0, 79, 96
2, 97855, Note_on_c, 0, 82, 100
2, 97870, Note_off_c, 0, 62, 64
2, 97873, Note_on_c, 0, 50, 96
2, 97881, Control_c, 0, 64, 127
2, 97887, Note_off_c, 0, 82, 64
2, 97888, Note_off_c, 0, 79, 64
2, 97914, Note_on_c, 0, 62, 88
2, 97917, Note_off_c, 0, 50, 64
2, 97957, Note_on_c, 0, 61, 96
2, 97976, Note_off_c, 0, 62, 64
2, 98008, Note_off_c, 0, 61, 64
2, 98011, Note_on_c, 0, 62, 86
2, 98051, Control_c, 0, 64, 0
2, 98059, Note_on_c, 0, 69, 84
2, 98060, Note_on_c, 0, 66, 86
2, 98063, Note_on_c, 0, 72, 78
2, 98067, Note_off_c, 0, 62, 64
2, 98073, Note_on_c, 0, 50, 86
2, 98103, Control_c, 0, 64, 127
2, 98107, Note_on_c, 0, 62, 84
2, 98112, Note_off_c, 0, 50, 64
2, 98165, Note_on_c, 0, 61, 97
2, 98173, Note_off_c, 0, 62, 64
2, 98205, Note_off_c, 0, 61, 64
2, 98212, Note_on_c, 0, 62, 88
2, 98257, Note_on_c, 0, 50, 97
2, 98264, Note_off_c, 0, 62, 64
2, 98307, Note_off_c, 0, 50, 64
2, 98310, Note_on_c, 0, 62, 92
2, 98332, Note_off_c, 0, 69, 64
2, 98361, Note_on_c, 0, 61, 97
2, 98397, Note_off_c, 0, 61, 64
2, 98401, Note_off_c, 0, 72, 64
2, 98408, Note_off_c, 0, 66, 64
2, 98434, Note_on_c, 0, 55, 97
2, 98440, Control_c, 0, 64, 0
2, 98448, Note_on_c, 0, 70, 88
2, 98483, Note_off_c, 0, 62, 64
2, 98498, Note_on_c, 0, 67, 86
2, 98508, Note_off_c, 0, 70, 64
2, 98513, Control_c, 0, 64, 127
2, 98516, Note_on_c, 0, 62, 40
2, 98536, Note_off_c, 0, 55, 64
2, 98546, Note_on_c, 0, 69, 76
2, 98554, Note_off_c, 0, 62, 64
2, 98566, Note_off_c, 0, 67, 64
2, 98593, Note_on_c, 0, 70, 84
2, 98615, Note_off_c, 0, 69, 64
2, 98633, Note_off_c, 0, 70, 64
2, 98645, Note_on_c, 0, 72, 84
2, 98698, Note_on_c, 0, 74, 81
2, 98721, Note_off_c, 0, 72, 64
2, 98741, Note_on_c, 0, 76, 69
2, 98778, Note_off_c, 0, 74, 64
2, 98784, Note_on_c, 0, 78, 84
2, 98795, Control_c, 0, 64, 0
2, 98809, Note_off_c, 0, 76, 64
2, 98824, Note_off_c, 0, 78, 64
2, 98837, Note_on_c, 0, 79, 86
2, 98883, Note_on_c, 0, 81, 86
2, 98884, Control_c, 0, 64, 127
2, 98906, Note_off_c, 0, 79, 64
2, 98933, Note_on_c, 0, 82, 85
2, 98948, Note_off_c, 0, 81, 64
2, 98983, Note_on_c, 0, 81, 73
2, 98989, Note_off_c, 0, 82, 64
2, 99022, Note_off_c, 0, 81, 64
2, 99022, Note_on_c, 0, 79, 86
2, 99068, Note_off_c, 0, 79, 64
2, 99073, Note_on_c, 0, 77, 79
2, 99119, Note_on_c, 0, 76, 80
2, 99133, Note_off_c, 0, 77, 64
2, 99158, Note_on_c, 0, 74, 86
2, 99166, Note_off_c, 0, 76, 64
2, 99203, Control_c, 0, 64, 0
2, 99208, Note_on_c, 0, 48, 77
2, 99212, Note_on_c, 0, 72, 84
2, 99234, Note_off_c, 0, 74, 64
2, 99249, Note_on_c, 0, 60, 84
2, 99254, Note_off_c, 0, 48, 64
2, 99258, Control_c, 0, 64, 127
2, 99286, Note_off_c, 0, 72, 64
2, 99304, Note_off_c, 0, 60, 64
2, 99310, Note_on_c, 0, 59, 81
2, 99347, Note_off_c, 0, 59, 64
2, 99359, Note_on_c, 0, 60, 84
2, 99402, Note_off_c, 0, 60, 64
2, 99406, Note_on_c, 0, 48, 97
2, 99444, Note_on_c, 0, 60, 88
2, 99447, Note_off_c, 0, 48, 64
2, 99500, Note_on_c, 0, 59, 96
2, 99505, Note_off_c, 0, 60, 64
2, 99542, Note_off_c, 0, 59, 64
2, 99549, Note_on_c, 0, 60, 86
2, 99558, Control_c, 0, 64, 0
2, 99587, Note_on_c, 0, 64, 95
2, 99591, Note_on_c, 0, 73, 102
2, 99591, Note_on_c, 0, 70, 100
2, 99609, Note_off_c, 0, 60, 64
2, 99610, Note_on_c, 0, 48, 97
2, 99632, Control_c, 0, 64, 127
2, 99647, Note_on_c, 0, 60, 88
2, 99649, Note_off_c, 0, 48, 64
2, 99699, Note_on_c, 0, 59, 86
2, 99713, Note_off_c, 0, 60, 64
2, 99740, Note_off_c, 0, 59, 64
2, 99747, Note_on_c, 0, 60, 86
2, 99797, Note_on_c, 0, 48, 94
2, 99801, Note_off_c, 0, 60, 64
2, 99837, Note_off_c, 0, 48, 64
2, 99839, Note_on_c, 0, 60, 88
2, 99852, Note_off_c, 0, 70, 64
2, 99883, Note_off_c, 0, 64, 64
2, 99890, Note_on_c, 0, 59, 90
2, 99895, Note_off_c, 0, 73, 64
2, 99900, Note_off_c, 0, 60, 64
2, 99936, Note_off_c, 0, 59, 64
2, 99937, Note_on_c, 0, 60, 86
2, 99954, Control_c, 0, 64, 0
2, 99966, Note_on_c, 0, 65, 87
2, 99966, Note_on_c, 0, 72, 96
2, 99973, Note_on_c, 0, 69, 92
2, 99995, Note_off_c, 0, 60, 64
2, 99995, Note_on_c, 0, 48, 98
2, 100001, Note_off_c, 0, 69, 64
2, 100002, Note_off_c, 0, 65, 64
2, 100006, Note_off_c, 0, 72, 64
2, 100013, Control_c, 0, 64, 127
2, 100034, Note_on_c, 0, 60, 85
2, 100039, Note_off_c, 0, 48, 64
2, 100092, Note_on_c, 0, 59, 90
2, 100103, Note_off_c, 0, 60, 64
2, 100138, Note_off_c, 0, 59, 64
2, 100141, Note_on_c, 0, 60, 84
2, 100155, Control_c, 0, 64, 0
2, 100170, Note_on_c, 0, 81, 93
2, 100172, Note_on_c, 0, 77, 93
2, 100191, Note_on_c, 0, 48, 100
2, 100197, Note_off_c, 0, 81, 64
2, 100198, Note_off_c, 0, 60, 64
2, 100200, Note_off_c, 0, 77, 64
2, 100203, Control_c, 0, 64, 127
2, 100229, Note_on_c, 0, 60, 84
2, 100237, Note_off_c, 0, 48, 64
2, 100285, Note_on_c, 0, 59, 94
2, 100296, Note_off_c, 0, 60, 64
2, 100335, Note_off_c, 0, 59, 64
2, 100335, Note_on_c, 0, 60, 80
2, 100373, Note_on_c, 0, 70, 106
2, 100373, Note_on_c, 0, 64, 96
2, 100377, Note_on_c, 0, 67, 92
2, 100382, Control_c, 0, 64, 0
2, 100388, Note_off_c, 0, 60, 64
2, 100394, Note_on_c, 0, 48, 97
2, 100432, Note_off_c, 0, 48, 64
2, 100432, Note_on_c, 0, 60, 84
2, 100435, Control_c, 0, 64, 127
2, 100481, Note_on_c, 0, 59, 92
2, 100493, Note_off_c, 0, 60, 64
2, 100522, Note_off_c, 0, 59, 64
2, 100531, Note_on_c, 0, 60, 79
2, 100573, Note_off_c, 0, 60, 64
2, 100578, Note_on_c, 0, 48, 96
2, 100615, Note_off_c, 0, 64, 64
2, 100621, Note_on_c, 0, 60, 84
2, 100623, Note_off_c, 0, 48, 64
2, 100671, Note_on_c, 0, 59, 84
2, 100682, Note_off_c, 0, 60, 64
2, 100714, Note_off_c, 0, 59, 64
2, 100720, Note_off_c, 0, 67, 64
2, 100722, Note_on_c, 0, 60, 78
2, 100728, Control_c, 0, 64, 0
2, 100744, Note_on_c, 0, 65, 87
2, 100751, Note_on_c, 0, 69, 88
2, 100770, Note_off_c, 0, 60, 64
2, 100770, Control_c, 0, 64, 127
2, 100775, Note_on_c, 0, 48, 97
2, 100782, Note_off_c, 0, 70, 64
2, 100783, Note_off_c, 0, 69, 64
2, 100785, Note_off_c, 0, 65, 64
2, 100812, Note_on_c, 0, 60, 84
2, 100817, Note_off_c, 0, 48, 64
2, 100865, Note_on_c, 0, 59, 90
2, 100879, Note_off_c, 0, 60, 64
2, 100911, Note_off_c, 0, 59, 64
2, 100918, Note_on_c, 0, 60, 80
2, 100936, Note_on_c, 0, 77, 106
2, 100962, Note_on_c, 0, 48, 98
2, 100966, Note_off_c, 0, 60, 64
2, 100972, Note_off_c, 0, 77, 64
2, 101003, Note_off_c, 0, 48, 64
2, 101004, Note_on_c, 0, 60, 84
2, 101052, Note_on_c, 0, 59, 88
2, 101062, Note_off_c, 0, 60, 64
2, 101098, Note_off_c, 0, 59, 64
2, 101101, Note_on_c, 0, 60, 84
2, 101143, Control_c, 0, 64, 0
2, 101151, Note_on_c, 0, 62, 90
2, 101151, Note_on_c, 0, 71, 96
2, 101151, Note_on_c, 0, 65, 96
2, 101156, Note_off_c, 0, 60, 64
2, 101157, Note_on_c, 0, 48, 96
2, 101196, Note_off_c, 0, 48, 64
2, 101196, Note_on_c, 0, 60, 84
2, 101202, Control_c, 0, 64, 127
2, 101248, Note_on_c, 0, 59, 84
2, 101257, Note_off_c, 0, 60, 64
2, 101289, Note_off_c, 0, 59, 64
2, 101297, Note_on_c, 0, 60, 81
2, 101356, Note_off_c, 0, 60, 64
2, 101359, Note_on_c, 0, 48, 96
2, 101364, Note_off_c, 0, 71, 64
2, 101401, Note_off_c, 0, 48, 64
2, 101403, Note_on_c, 0, 60, 84
2, 101446, Note_on_c, 0, 59, 90
2, 101454, Note_off_c, 0, 62, 64
2, 101455, Note_off_c, 0, 60, 64
2, 101487, Note_off_c, 0, 59, 64
2, 101492, Note_on_c, 0, 60, 78
2, 101508, Note_off_c, 0, 65, 64
2, 101544, Note_on_c, 0, 67, 96
2, 101546, Note_on_c, 0, 64, 100
2, 101547, Note_on_c, 0, 72, 105
2, 101553, Note_off_c, 0, 60, 64
2, 101555, Note_on_c, 0, 48, 102
2, 101567, Control_c, 0, 64, 0
2, 101616, Control_c, 0, 64, 127
2, 101754, Note_off_c, 0, 64, 64
2, 101772, Note_off_c, 0, 67, 64
2, 101821, Note_off_c, 0, 72, 64
2, 101864, Note_on_c, 0, 60, 80
2, 101866, Note_off_c, 0, 48, 64
2, 101885, Control_c, 0, 64, 0
2, 101901, Note_on_c, 0, 64, 76
2, 101931, Note_off_c, 0, 60, 64
2, 101945, Note_on_c, 0, 67, 74
2, 101955, Control_c, 0, 64, 127
2, 101962, Note_off_c, 0, 64, 64
2, 101996, Note_off_c, 0, 67, 64
2, 102072, Note_on_c, 0, 64, 81
2, 102111, Note_on_c, 0, 67, 69
2, 102139, Note_off_c, 0, 64, 64
2, 102153, Note_on_c, 0, 70, 72
2, 102166, Note_off_c, 0, 67, 64
2, 102204, Note_off_c, 0, 70, 64
2, 102277, Note_on_c, 0, 67, 76
2, 102309, Note_on_c, 0, 70, 81
2, 102347, Note_on_c, 0, 36, 88
2, 102354, Note_on_c, 0, 48, 98
2, 102357, Note_on_c, 0, 76, 88
2, 102361, Note_off_c, 0, 67, 64
2, 102371, Control_c, 0, 64, 0
2, 102386, Note_off_c, 0, 70, 64
2, 102421, Control_c, 0, 64, 127
2, 102464, Note_off_c, 0, 76, 64
2, 102494, Note_off_c, 0, 36, 64
2, 102513, Note_off_c, 0, 48, 64
2, 102673, Note_on_c, 0, 86, 77
2, 102679, Note_on_c, 0, 58, 77
2, 102716, Note_on_c, 0, 82, 84
2, 102718, Note_on_c, 0, 60, 58
2, 102741, Note_off_c, 0, 86, 64
2, 102747, Note_off_c, 0, 58, 64
2, 102755, Note_on_c, 0, 79, 78
2, 102765, Note_on_c, 0, 64, 66
2, 102776, Note_off_c, 0, 60, 64
2, 102778, Note_off_c, 0, 82, 64
2, 102799, Note_off_c, 0, 79, 64
2, 102810, Note_off_c, 0, 64, 64
2, 102883, Note_on_c, 0, 82, 75
2, 102884, Note_on_c, 0, 60, 71
2, 102914, Note_on_c, 0, 64, 56
2, 102931, Note_on_c, 0, 79, 79
2, 102950, Note_off_c, 0, 60, 64
2, 102957, Note_off_c, 0, 82, 64
2, 102973, Note_off_c, 0, 64, 64
2, 102976, Note_on_c, 0, 67, 86
2, 102985, Note_on_c, 0, 76, 90
2, 102989, Note_off_c, 0, 79, 64
2, 103018, Note_off_c, 0, 67, 64
2, 103027, Note_off_c, 0, 76, 64
2, 103106, Note_on_c, 0, 79, 79
2, 103113, Note_on_c, 0, 64, 67
2, 103155, Note_on_c, 0, 67, 65
2, 103156, Note_on_c, 0, 76, 81
2, 103180, Note_off_c, 0, 79, 64
2, 103188, Note_off_c, 0, 64, 64
2, 103202, Note_on_c, 0, 72, 92
2, 103214, Note_on_c, 0, 70, 100
2, 103225, Note_off_c, 0, 67, 64
2, 103230, Note_off_c, 0, 76, 64
2, 103356, Note_off_c, 0, 72, 64
2, 103367, Note_off_c, 0, 70, 64
2, 103799, Control_c, 0, 64, 0
2, 103963, Note_on_c, 0, 72, 69
2, 103990, Control_c, 0, 64, 127
2, 104109, Note_on_c, 0, 69, 53
2, 104137, Note_off_c, 0, 72, 64
2, 104153, Note_on_c, 0, 53, 73
2, 104157, Note_on_c, 0, 57, 75
2, 104158, Note_on_c, 0, 65, 81
2, 104164, Control_c, 0, 64, 0
2, 104170, Note_off_c, 0, 69, 64
2, 104183, Note_off_c, 0, 53, 64
2, 104185, Note_off_c, 0, 57, 64
2, 104194, Note_off_c, 0, 65, 64
2, 104376, Note_on_c, 0, 69, 67
2, 104376, Control_c, 0, 64, 127
2, 104520, Note_on_c, 0, 65, 70
2, 104541, Note_off_c, 0, 69, 64
2, 104558, Note_on_c, 0, 64, 79
2, 104563, Note_on_c, 0, 48, 74
2, 104566, Note_on_c, 0, 58, 67
2, 104567, Control_c, 0, 64, 0
2, 104579, Note_off_c, 0, 65, 64
2, 104595, Note_off_c, 0, 48, 64
2, 104601, Note_off_c, 0, 58, 64
2, 104606, Note_off_c, 0, 64, 64
2, 104783, Note_on_c, 0, 67, 66
2, 104917, Note_on_c, 0, 64, 72
2, 104934, Note_off_c, 0, 67, 64
2, 104956, Note_on_c, 0, 65, 84
2, 104963, Note_on_c, 0, 53, 68
2, 104968, Note_on_c, 0, 57, 63
2, 104979, Note_off_c, 0, 64, 64
2, 104988, Control_c, 0, 64, 127
2, 104996, Note_off_c, 0, 65, 64
2, 105161, Control_c, 0, 64, 0
2, 105169, Note_on_c, 0, 70, 77
2, 105169, Note_on_c, 0, 74, 78
2, 105182, Note_off_c, 0, 53, 64
2, 105184, Note_off_c, 0, 57, 64
2, 105242, Control_c, 0, 64, 127
2, 105362, Control_c, 0, 64, 0
2, 105372, Note_off_c, 0, 70, 64
2, 105374, Note_on_c, 0, 69, 67
2, 105381, Note_on_c, 0, 72, 76
2, 105396, Control_c, 0, 64, 127
2, 105408, Note_off_c, 0, 74, 64
2, 105417, Note_off_c, 0, 72, 64
2, 105419, Note_off_c, 0, 69, 64
2, 105582, Control_c, 0, 64, 0
2, 105592, Note_on_c, 0, 79, 75
2, 105638, Control_c, 0, 64, 127
2, 105646, Note_on_c, 0, 77, 71
2, 105658, Note_off_c, 0, 79, 64
2, 105688, Note_on_c, 0, 76, 72
2, 105720, Note_off_c, 0, 77, 64
2, 105740, Note_on_c, 0, 74, 79
2, 105757, Control_c, 0, 64, 0
2, 105762, Note_off_c, 0, 76, 64
2, 105786, Note_on_c, 0, 72, 81
2, 105796, Note_off_c, 0, 74, 64
2, 105800, Control_c, 0, 64, 127
2, 105941, Note_off_c, 0, 72, 64
2, 105968, Note_on_c, 0, 65, 74
2, 105975, Note_on_c, 0, 81, 67
2, 105980, Control_c, 0, 64, 0
2, 106001, Control_c, 0, 64, 127
2, 106022, Note_on_c, 0, 69, 84
2, 106069, Note_off_c, 0, 81, 64
2, 106084, Note_on_c, 0, 74, 76
2, 106110, Note_off_c, 0, 69, 64
2, 106150, Note_on_c, 0, 72, 80
2, 106156, Control_c, 0, 64, 0
2, 106161, Note_on_c, 0, 67, 79
2, 106164, Note_off_c, 0, 65, 64
2, 106172, Note_off_c, 0, 74, 64
2, 106199, Control_c, 0, 64, 127
2, 106227, Note_off_c, 0, 72, 64
2, 106316, Note_on_c, 0, 72, 90
2, 106354, Note_on_c, 0, 60, 71
2, 106361, Note_on_c, 0, 70, 79
2, 106369, Note_off_c, 0, 72, 64
2, 106378, Note_off_c, 0, 67, 64
2, 106393, Note_off_c, 0, 70, 64
2, 106405, Note_on_c, 0, 72, 64
2, 106428, Note_on_c, 0, 70, 84
2, 106443, Note_off_c, 0, 72, 64
2, 106469, Note_on_c, 0, 69, 79
2, 106474, Note_off_c, 0, 70, 64
2, 106504, Note_on_c, 0, 70, 92
2, 106520, Note_off_c, 0, 69, 64
2, 106530, Note_off_c, 0, 70, 64
2, 106552, Note_off_c, 0, 60, 64
2, 106558, Note_on_c, 0, 65, 67
2, 106559, Note_on_c, 0, 70, 96
2, 106561, Control_c, 0, 64, 0
2, 106611, Control_c, 0, 64, 127
2, 106748, Control_c, 0, 64, 0
2, 106759, Note_on_c, 0, 60, 71
2, 106797, Control_c, 0, 64, 127
2, 106960, Control_c, 0, 64, 0
2, 106966, Note_on_c, 0, 69, 69
2, 106968, Note_on_c, 0, 53, 65
2, 106980, Note_off_c, 0, 70, 64
2, 107003, Note_off_c, 0, 60, 64
2, 107014, Note_off_c, 0, 65, 64
2, 107015, Control_c, 0, 64, 127
2, 107109, Note_off_c, 0, 69, 64
2, 107117, Note_off_c, 0, 53, 64
2, 107147, Control_c, 0, 64, 0
2, 107157, Note_on_c, 0, 72, 73
2, 107203, Note_on_c, 0, 69, 84
2, 107205, Control_c, 0, 64, 127
2, 107211, Note_off_c, 0, 72, 64
2, 107244, Note_on_c, 0, 72, 81
2, 107248, Note_off_c, 0, 69, 64
2, 107285, Note_on_c, 0, 69, 79
2, 107305, Note_off_c, 0, 72, 64
2, 107323, Control_c, 0, 64, 0
2, 107339, Note_on_c, 0, 57, 77
2, 107343, Note_on_c, 0, 65, 77
2, 107346, Note_on_c, 0, 53, 77
2, 107349, Note_off_c, 0, 69, 64
2, 107386, Note_off_c, 0, 57, 64
2, 107391, Note_off_c, 0, 53, 64
2, 107399, Control_c, 0, 64, 127
2, 107406, Note_off_c, 0, 65, 64
2, 107519, Control_c, 0, 64, 0
2, 107563, Note_on_c, 0, 70, 66
2, 107604, Control_c, 0, 64, 127
2, 107615, Note_on_c, 0, 69, 67
2, 107624, Note_off_c, 0, 70, 64
2, 107658, Note_on_c, 0, 67, 56
2, 107676, Note_off_c, 0, 69, 64
2, 107699, Note_on_c, 0, 65, 77
2, 107702, Note_off_c, 0, 67, 64
2, 107707, Control_c, 0, 64, 0
2, 107741, Note_on_c, 0, 48, 75
2, 107745, Note_on_c, 0, 58, 71
2, 107748, Note_on_c, 0, 64, 86
2, 107776, Note_off_c, 0, 65, 64
2, 107778, Control_c, 0, 64, 127
2, 107785, Note_off_c, 0, 48, 64
2, 107790, Note_off_c, 0, 58, 64
2, 107792, Note_off_c, 0, 64, 64
2, 107911, Control_c, 0, 64, 0
2, 107956, Note_on_c, 0, 69, 65
2, 107968, Control_c, 0, 64, 127
2, 108009, Note_on_c, 0, 67, 63
2, 108020, Note_off_c, 0, 69, 64
2, 108051, Note_on_c, 0, 65, 65
2, 108066, Note_off_c, 0, 67, 64
2, 108088, Note_on_c, 0, 64, 79
2, 108094, Note_off_c, 0, 65, 64
2, 108096, Control_c, 0, 64, 0
2, 108126, Note_on_c, 0, 53, 71
2, 108131, Note_on_c, 0, 57, 74
2, 108134, Note_on_c, 0, 65, 84
2, 108142, Control_c, 0, 64, 127
2, 108148, Note_off_c, 0, 64, 64
2, 108160, Note_off_c, 0, 65, 64
2, 108161, Note_off_c, 0, 53, 64
2, 108170, Note_off_c, 0, 57, 64
2, 108251, Note_on_c, 0, 74, 81
2, 108291, Note_on_c, 0, 76, 78
2, 108306, Note_off_c, 0, 74, 64
2, 108323, Control_c, 0, 64, 0
2, 108339, Note_on_c, 0, 79, 84
2, 108342, Note_on_c, 0, 70, 71
2, 108345, Note_off_c, 0, 76, 64
2, 108375, Control_c, 0, 64, 127
2, 108388, Note_on_c, 0, 77, 81
2, 108411, Note_off_c, 0, 79, 64
2, 108421, Note_on_c, 0, 76, 84
2, 108452, Note_off_c, 0, 77, 64
2, 108469, Note_on_c, 0, 74, 81
2, 108486, Note_off_c, 0, 76, 64
2, 108504, Control_c, 0, 64, 0
2, 108519, Note_off_c, 0, 74, 64
2, 108522, Note_on_c, 0, 72, 85
2, 108523, Note_on_c, 0, 69, 71
2, 108527, Note_off_c, 0, 70, 64
2, 108577, Control_c, 0, 64, 127
2, 108705, Control_c, 0, 64, 0
2, 108727, Note_off_c, 0, 69, 64
2, 108743, Note_on_c, 0, 84, 71
2, 108746, Control_c, 0, 64, 127
2, 108765, Note_off_c, 0, 72, 64
2, 108789, Note_on_c, 0, 81, 66
2, 108804, Note_off_c, 0, 84, 64
2, 108827, Note_on_c, 0, 77, 68
2, 108848, Note_off_c, 0, 81, 64
2, 108868, Note_on_c, 0, 72, 76
2, 108872, Note_off_c, 0, 77, 64
2, 108885, Control_c, 0, 64, 0
2, 108925, Note_on_c, 0, 69, 88
2, 108943, Control_c, 0, 64, 127
2, 108948, Note_off_c, 0, 72, 64
2, 109107, Control_c, 0, 64, 0
2, 109114, Note_on_c, 0, 60, 67
2, 109116, Note_on_c, 0, 65, 68
2, 109160, Control_c, 0, 64, 127
2, 109304, Control_c, 0, 64, 0
2, 109310, Note_on_c, 0, 70, 77
2, 109318, Note_on_c, 0, 67, 71
2, 109325, Note_off_c, 0, 65, 64
2, 109333, Note_off_c, 0, 69, 64
2, 109350, Note_off_c, 0, 70, 64
2, 109359, Control_c, 0, 64, 127
2, 109509, Control_c, 0, 64, 0
2, 109514, Note_on_c, 0, 82, 81
2, 109537, Note_off_c, 0, 60, 64
2, 109537, Note_off_c, 0, 67, 64
2, 109543, Control_c, 0, 64, 127
2, 109560, Note_on_c, 0, 79, 71
2, 109567, Note_off_c, 0, 82, 64
2, 109605, Note_on_c, 0, 76, 63
2, 109620, Note_off_c, 0, 79, 64
2, 109646, Note_off_c, 0, 76, 64
2, 109649, Note_on_c, 0, 72, 74
2, 109680, Control_c, 0, 64, 0
2, 109704, Note_on_c, 0, 70, 98
2, 109725, Note_off_c, 0, 72, 64
2, 109740, Control_c, 0, 64, 127
2, 109895, Control_c, 0, 64, 0
2, 109903, Note_on_c, 0, 64, 51
2, 109908, Note_on_c, 0, 60, 42
2, 109946, Control_c, 0, 64, 127
2, 110088, Note_off_c, 0, 64, 64
2, 110093, Note_off_c, 0, 60, 64
2, 110094, Control_c, 0, 64, 0
2, 110101, Note_on_c, 0, 65, 67
2, 110101, Note_on_c, 0, 62, 63
2, 110106, Note_on_c, 0, 69, 75
2, 110111, Note_off_c, 0, 70, 64
2, 110141, Control_c, 0, 64, 127
2, 110219, Note_off_c, 0, 69, 64
2, 110269, Note_off_c, 0, 65, 64
2, 110288, Control_c, 0, 64, 0
2, 110294, Note_off_c, 0, 62, 64
2, 110300, Note_on_c, 0, 77, 71
2, 110331, Control_c, 0, 64, 127
2, 110347, Note_on_c, 0, 72, 67
2, 110351, Note_off_c, 0, 77, 64
2, 110375, Note_on_c, 0, 69, 74
2, 110399, Note_off_c, 0, 72, 64
2, 110422, Note_off_c, 0, 69, 64
2, 110422, Note_on_c, 0, 65, 79
2, 110467, Control_c, 0, 64, 0
2, 110478, Note_on_c, 0, 63, 97
2, 110497, Note_off_c, 0, 65, 64
2, 110527, Control_c, 0, 64, 127
2, 110682, Control_c, 0, 64, 0
2, 110686, Note_on_c, 0, 57, 69
2, 110690, Note_on_c, 0, 53, 64
2, 110742, Control_c, 0, 64, 127
2, 110861, Note_off_c, 0, 57, 64
2, 110868, Note_off_c, 0, 53, 64
2, 110868, Note_on_c, 0, 55, 75
2, 110871, Note_on_c, 0, 58, 79
2, 110885, Control_c, 0, 64, 0
2, 110943, Control_c, 0, 64, 127
2, 111061, Note_on_c, 0, 57, 79
2, 111071, Note_on_c, 0, 60, 84
2, 111073, Control_c, 0, 64, 0
2, 111079, Note_off_c, 0, 58, 64
2, 111119, Note_off_c, 0, 55, 64
2, 111124, Control_c, 0, 64, 127
2, 111233, Control_c, 0, 64, 0
2, 111245, Note_on_c, 0, 58, 88
2, 111259, Note_off_c, 0, 57, 64
2, 111274, Note_off_c, 0, 60, 64
2, 111284, Control_c, 0, 64, 127
2, 111304, Note_off_c, 0, 58, 64
2, 111344, Note_on_c, 0, 61, 74
2, 111375, Note_off_c, 0, 63, 64
2, 111450, Note_on_c, 0, 62, 71
2, 111475, Note_off_c, 0, 61, 64
2, 111531, Note_on_c, 0, 66, 69
2, 111536, Note_off_c, 0, 62, 64
2, 111581, Note_off_c, 0, 66, 64
2, 111623, Note_on_c, 0, 67, 75
2, 111722, Note_off_c, 0, 67, 64
2, 111724, Note_on_c, 0, 69, 79
2, 111814, Note_on_c, 0, 70, 72
2, 111868, Note_off_c, 0, 69, 64
2, 111896, Note_on_c, 0, 46, 63
2, 111896, Note_on_c, 0, 74, 74
2, 111918, Note_off_c, 0, 70, 64
2, 111954, Note_off_c, 0, 74, 64
2, 111954, Note_off_c, 0, 46, 64
2, 111976, Note_on_c, 0, 48, 59
2, 111977, Note_on_c, 0, 69, 88
2, 111980, Note_on_c, 0, 65, 86
2, 111987, Control_c, 0, 64, 0
2, 112069, Note_off_c, 0, 65, 64
2, 112071, Control_c, 0, 64, 127
2, 112172, Note_off_c, 0, 48, 64
2, 112179, Note_on_c, 0, 67, 74
2, 112183, Note_on_c, 0, 64, 74
2, 112195, Note_off_c, 0, 69, 64
2, 112272, Note_on_c, 0, 55, 75
2, 112306, Control_c, 0, 64, 0
2, 112314, Note_on_c, 0, 52, 71
2, 112351, Note_off_c, 0, 55, 64
2, 112356, Control_c, 0, 64, 127
2, 112367, Note_on_c, 0, 48, 97
2, 112375, Note_off_c, 0, 52, 64
2, 112402, Note_off_c, 0, 48, 64
2, 112427, Note_off_c, 0, 67, 64
2, 112430, Note_off_c, 0, 64, 64
2, 112459, Note_on_c, 0, 62, 75
2, 112463, Note_on_c, 0, 58, 85
2, 112500, Note_off_c, 0, 62, 64
2, 112503, Note_off_c, 0, 58, 64
2, 112568, Note_on_c, 0, 57, 79
2, 112571, Note_on_c, 0, 60, 79
2, 112600, Note_off_c, 0, 57, 64
2, 112608, Note_off_c, 0, 60, 64
2, 112663, Note_on_c, 0, 55, 71
2, 112664, Note_on_c, 0, 58, 77
2, 112712, Note_off_c, 0, 55, 64
2, 112718, Note_off_c, 0, 58, 64
2, 112759, Control_c, 0, 64, 0
2, 112780, Note_on_c, 0, 57, 90
2, 112782, Note_on_c, 0, 53, 86
2, 112832, Note_on_c, 0, 72, 77
2, 112878, Note_on_c, 0, 74, 76
2, 112885, Note_off_c, 0, 72, 64
2, 112926, Note_on_c, 0, 72, 84
2, 112946, Note_off_c, 0, 74, 64
2, 112976, Note_on_c, 0, 77, 92
2, 112990, Note_off_c, 0, 72, 64
2, 112997, Note_off_c, 0, 57, 64
2, 113021, Note_on_c, 0, 76, 74
2, 113033, Note_off_c, 0, 53, 64
2, 113040, Note_off_c, 0, 77, 64
2, 113062, Note_on_c, 0, 74, 78
2, 113085, Note_off_c, 0, 76, 64
2, 113105, Note_on_c, 0, 72, 86
2, 113108, Control_c, 0, 64, 127
2, 113123, Note_off_c, 0, 74, 64
2, 113148, Note_off_c, 0, 72, 64
2, 113152, Note_on_c, 0, 70, 94
2, 113193, Note_off_c, 0, 70, 64
2, 113206, Note_on_c, 0, 69, 79
2, 113256, Note_on_c, 0, 67, 84
2, 113278, Note_off_c, 0, 69, 64
2, 113302, Note_on_c, 0, 65, 86
2, 113305, Note_off_c, 0, 67, 64
2, 113347, Control_c, 0, 64, 0
2, 113353, Note_off_c, 0, 65, 64
2, 113354, Note_on_c, 0, 57, 72
2, 113355, Note_on_c, 0, 64, 86
2, 113392, Control_c, 0, 64, 127
2, 113401, Note_on_c, 0, 65, 68
2, 113403, Note_off_c, 0, 64, 64
2, 113451, Note_on_c, 0, 67, 71
2, 113455, Note_off_c, 0, 65, 64
2, 113501, Note_on_c, 0, 65, 71
2, 113521, Note_off_c, 0, 67, 64
2, 113544, Note_off_c, 0, 57, 64
2, 113548, Control_c, 0, 64, 0
2, 113556, Note_off_c, 0, 65, 64
2, 113556, Note_on_c, 0, 62, 84
2, 113556, Note_on_c, 0, 58, 84
2, 113592, Note_on_c, 0, 65, 84
2, 113601, Control_c, 0, 64, 127
2, 113627, Note_off_c, 0, 62, 64
2, 113642, Note_on_c, 0, 67, 74
2, 113646, Note_off_c, 0, 65, 64
2, 113692, Note_on_c, 0, 65, 72
2, 113712, Note_off_c, 0, 67, 64
2, 113729, Control_c, 0, 64, 0
2, 113739, Note_on_c, 0, 60, 79
2, 113742, Note_off_c, 0, 58, 64
2, 113743, Note_off_c, 0, 65, 64
2, 113746, Note_on_c, 0, 57, 78
2, 113785, Note_on_c, 0, 65, 84
2, 113794, Control_c, 0, 64, 127
2, 113808, Note_off_c, 0, 60, 64
2, 113831, Note_on_c, 0, 67, 66
2, 113839, Note_off_c, 0, 65, 64
2, 113876, Note_on_c, 0, 65, 84
2, 113891, Note_off_c, 0, 67, 64
2, 113922, Note_off_c, 0, 57, 64
2, 113924, Note_off_c, 0, 65, 64
2, 113932, Control_c, 0, 64, 0
2, 113938, Note_on_c, 0, 55, 74
2, 113938, Note_on_c, 0, 58, 92
2, 113982, Note_off_c, 0, 58, 64
2, 113985, Note_off_c, 0, 55, 64
2, 113985, Control_c, 0, 64, 127
2, 114027, Note_on_c, 0, 70, 78
2, 114081, Note_off_c, 0, 70, 64
2, 114117, Control_c, 0, 64, 0
2, 114126, Note_on_c, 0, 48, 78
2, 114157, Control_c, 0, 64, 127
2, 114210, Note_on_c, 0, 70, 53
2, 114240, Note_off_c, 0, 70, 64
2, 114316, Control_c, 0, 64, 0
2, 114321, Note_on_c, 0, 69, 43
2, 114324, Note_on_c, 0, 53, 54
2, 114330, Note_off_c, 0, 48, 64
2, 114351, Control_c, 0, 64, 127
2, 114367, Note_off_c, 0, 53, 64
2, 114382, Note_on_c, 0, 72, 68
2, 114397, Note_off_c, 0, 69, 64
2, 114430, Note_on_c, 0, 74, 59
2, 114447, Note_off_c, 0, 72, 64
2, 114468, Note_on_c, 0, 72, 57
2, 114488, Note_off_c, 0, 74, 64
2, 114515, Note_on_c, 0, 77, 78
2, 114522, Note_on_c, 0, 57, 57
2, 114527, Note_off_c, 0, 72, 64
2, 114529, Control_c, 0, 64, 0
2, 114551, Control_c, 0, 64, 127
2, 114565, Note_off_c, 0, 57, 64
2, 114568, Note_on_c, 0, 76, 57
2, 114594, Note_off_c, 0, 77, 64
2, 114611, Note_on_c, 0, 74, 59
2, 114648, Note_off_c, 0, 76, 64
2, 114663, Note_on_c, 0, 72, 63
2, 114684, Note_off_c, 0, 74, 64
2, 114716, Note_on_c, 0, 70, 71
2, 114722, Note_off_c, 0, 72, 64
2, 114760, Note_on_c, 0, 69, 39
2, 114775, Note_off_c, 0, 70, 64
2, 114808, Note_on_c, 0, 67, 58
2, 114812, Note_off_c, 0, 69, 64
2, 114856, Note_on_c, 0, 65, 54
2, 114880, Note_off_c, 0, 67, 64
2, 114912, Note_on_c, 0, 64, 60
2, 114912, Note_on_c, 0, 57, 47
2, 114926, Note_off_c, 0, 65, 64
2, 114929, Control_c, 0, 64, 0
2, 114952, Note_on_c, 0, 65, 48
2, 114955, Note_off_c, 0, 64, 64
2, 114972, Control_c, 0, 64, 127
2, 114984, Note_off_c, 0, 65, 64
2, 115000, Note_on_c, 0, 67, 63
2, 115040, Note_on_c, 0, 65, 50
2, 115066, Note_off_c, 0, 57, 64
2, 115088, Note_on_c, 0, 58, 70
2, 115088, Note_on_c, 0, 62, 59
2, 115100, Note_off_c, 0, 67, 64
2, 115107, Note_off_c, 0, 65, 64
2, 115127, Control_c, 0, 64, 0
2, 115128, Note_on_c, 0, 65, 58
2, 115164, Note_off_c, 0, 62, 64
2, 115169, Control_c, 0, 64, 127
2, 115176, Note_on_c, 0, 67, 54
2, 115180, Note_off_c, 0, 65, 64
2, 115224, Note_on_c, 0, 65, 46
2, 115235, Note_off_c, 0, 58, 64
2, 115242, Note_off_c, 0, 67, 64
2, 115276, Note_off_c, 0, 65, 64
2, 115280, Note_on_c, 0, 57, 34
2, 115280, Note_on_c, 0, 60, 53
2, 115305, Control_c, 0, 64, 0
2, 115337, Note_on_c, 0, 65, 63
2, 115348, Note_off_c, 0, 60, 64
2, 115353, Control_c, 0, 64, 127
2, 115386, Note_on_c, 0, 67, 42
2, 115395, Note_off_c, 0, 65, 64
2, 115429, Note_on_c, 0, 65, 60
2, 115446, Note_off_c, 0, 67, 64
2, 115483, Note_off_c, 0, 57, 64
2, 115487, Note_off_c, 0, 65, 64
2, 115495, Note_on_c, 0, 58, 71
2, 115498, Note_on_c, 0, 55, 57
2, 115503, Control_c, 0, 64, 0
2, 115551, Control_c, 0, 64, 127
2, 115578, Note_off_c, 0, 58, 64
2, 115603, Note_on_c, 0, 70, 59
2, 115660, Note_off_c, 0, 70, 64
2, 115676, Note_off_c, 0, 55, 64
2, 115692, Note_on_c, 0, 52, 58
2, 115695, Control_c, 0, 64, 0
2, 115716, Control_c, 0, 64, 127
2, 115735, Note_off_c, 0, 52, 64
2, 115788, Note_on_c, 0, 70, 54
2, 115835, Note_off_c, 0, 70, 64
2, 115879, Note_on_c, 0, 69, 86
2, 115888, Note_on_c, 0, 53, 71
2, 115896, Control_c, 0, 64, 0
2, 115919, Note_on_c, 0, 74, 68
2, 115945, Note_off_c, 0, 69, 64
2, 115957, Control_c, 0, 64, 127
2, 115973, Note_on_c, 0, 76, 67
2, 115977, Note_off_c, 0, 74, 64
2, 116026, Note_on_c, 0, 74, 78
2, 116047, Note_off_c, 0, 76, 64
2, 116073, Control_c, 0, 64, 0
2, 116078, Note_on_c, 0, 81, 80
2, 116084, Note_on_c, 0, 65, 79
2, 116091, Note_off_c, 0, 74, 64
2, 116116, Control_c, 0, 64, 127
2, 116123, Note_off_c, 0, 53, 64
2, 116136, Note_on_c, 0, 77, 37
2, 116152, Note_off_c, 0, 65, 64
2, 116152, Note_off_c, 0, 81, 64
2, 116174, Note_on_c, 0, 76, 77
2, 116205, Note_off_c, 0, 77, 64
2, 116224, Note_on_c, 0, 74, 88
2, 116238, Note_off_c, 0, 76, 64
2, 116272, Note_off_c, 0, 74, 64
2, 116274, Note_on_c, 0, 79, 84
2, 116277, Note_on_c, 0, 64, 70
2, 116277, Control_c, 0, 64, 0
2, 116299, Control_c, 0, 64, 127
2, 116326, Note_on_c, 0, 76, 67
2, 116356, Note_off_c, 0, 79, 64
2, 116374, Note_on_c, 0, 74, 69
2, 116375, Note_off_c, 0, 64, 64
2, 116402, Note_off_c, 0, 76, 64
2, 116419, Note_on_c, 0, 72, 84
2, 116440, Note_off_c, 0, 74, 64
2, 116456, Control_c, 0, 64, 0
2, 116464, Note_on_c, 0, 71, 88
2, 116472, Note_off_c, 0, 72, 64
2, 116480, Note_on_c, 0, 52, 79
2, 116500, Control_c, 0, 64, 127
2, 116509, Note_on_c, 0, 72, 88
2, 116516, Note_off_c, 0, 71, 64
2, 116567, Note_on_c, 0, 71, 86
2, 116569, Note_off_c, 0, 72, 64
2, 116577, Note_off_c, 0, 52, 64
2, 116592, Note_on_c, 0, 72, 76
2, 116605, Note_off_c, 0, 71, 64
2, 116637, Note_off_c, 0, 72, 64
2, 116659, Control_c, 0, 64, 0
2, 116664, Note_on_c, 0, 50, 76
2, 116664, Note_on_c, 0, 65, 90
2, 116700, Note_on_c, 0, 70, 80
2, 116712, Control_c, 0, 64, 127
2, 116724, Note_off_c, 0, 65, 64
2, 116753, Note_on_c, 0, 72, 71
2, 116760, Note_off_c, 0, 70, 64
2, 116796, Note_on_c, 0, 70, 81
2, 116818, Note_off_c, 0, 72, 64
2, 116838, Control_c, 0, 64, 0
2, 116852, Note_on_c, 0, 77, 88
2, 116857, Note_off_c, 0, 50, 64
2, 116863, Note_off_c, 0, 70, 64
2, 116864, Note_on_c, 0, 62, 86
2, 116884, Control_c, 0, 64, 127
2, 116901, Note_on_c, 0, 74, 72
2, 116919, Note_off_c, 0, 62, 64
2, 116929, Note_off_c, 0, 77, 64
2, 116964, Note_on_c, 0, 72, 71
2, 116987, Note_off_c, 0, 74, 64
2, 117000, Note_on_c, 0, 70, 86
2, 117030, Note_off_c, 0, 72, 64
2, 117048, Note_on_c, 0, 76, 84
2, 117048, Control_c, 0, 64, 0
2, 117055, Note_on_c, 0, 60, 74
2, 117061, Note_off_c, 0, 70, 64
2, 117092, Control_c, 0, 64, 127
2, 117098, Note_on_c, 0, 72, 76
2, 117120, Note_off_c, 0, 76, 64
2, 117134, Note_on_c, 0, 70, 85
2, 117163, Note_off_c, 0, 72, 64
2, 117189, Note_off_c, 0, 70, 64
2, 117189, Note_on_c, 0, 69, 88
2, 117230, Control_c, 0, 64, 0
2, 117235, Note_on_c, 0, 68, 88
2, 117242, Note_off_c, 0, 69, 64
2, 117242, Note_on_c, 0, 48, 75
2, 117271, Note_off_c, 0, 60, 64
2, 117275, Control_c, 0, 64, 127
2, 117282, Note_on_c, 0, 69, 67
2, 117287, Note_off_c, 0, 68, 64
2, 117300, Note_off_c, 0, 48, 64
2, 117332, Note_on_c, 0, 68, 88
2, 117340, Note_off_c, 0, 69, 64
2, 117376, Note_on_c, 0, 69, 63
2, 117384, Note_off_c, 0, 68, 64
2, 117431, Note_on_c, 0, 62, 85
2, 117432, Control_c, 0, 64, 0
2, 117438, Note_off_c, 0, 69, 64
2, 117440, Note_on_c, 0, 46, 76
2, 117482, Note_on_c, 0, 67, 79
2, 117494, Control_c, 0, 64, 127
2, 117501, Note_off_c, 0, 62, 64
2, 117528, Note_on_c, 0, 69, 69
2, 117543, Note_off_c, 0, 67, 64
2, 117582, Note_on_c, 0, 67, 79
2, 117590, Note_off_c, 0, 69, 64
2, 117621, Note_off_c, 0, 67, 64
2, 117632, Control_c, 0, 64, 0
2, 117637, Note_on_c, 0, 58, 79
2, 117644, Note_off_c, 0, 46, 64
2, 117644, Note_on_c, 0, 74, 86
2, 117675, Control_c, 0, 64, 127
2, 117690, Note_on_c, 0, 70, 88
2, 117717, Note_off_c, 0, 74, 64
2, 117740, Note_on_c, 0, 69, 73
2, 117765, Note_off_c, 0, 70, 64
2, 117780, Note_off_c, 0, 58, 64
2, 117793, Note_on_c, 0, 67, 84
2, 117799, Note_off_c, 0, 69, 64
2, 117832, Control_c, 0, 64, 0
2, 117840, Note_on_c, 0, 57, 76
2, 117845, Note_on_c, 0, 72, 74
2, 117860, Note_off_c, 0, 67, 64
2, 117877, Control_c, 0, 64, 127
2, 117894, Note_on_c, 0, 69, 67
2, 117914, Note_off_c, 0, 72, 64
2, 117937, Note_on_c, 0, 67, 74
2, 117968, Note_off_c, 0, 69, 64
2, 117982, Note_on_c, 0, 65, 79
2, 118011, Note_off_c, 0, 67, 64
2, 118015, Control_c, 0, 64, 0
2, 118026, Note_on_c, 0, 45, 72
2, 118034, Note_on_c, 0, 64, 85
2, 118043, Note_off_c, 0, 65, 64
2, 118060, Control_c, 0, 64, 127
2, 118067, Note_off_c, 0, 45, 64
2, 118082, Note_off_c, 0, 57, 64
2, 118087, Note_off_c, 0, 64, 64
2, 118088, Note_on_c, 0, 65, 69
2, 118133, Note_on_c, 0, 64, 76
2, 118140, Note_off_c, 0, 65, 64
2, 118178, Note_on_c, 0, 65, 76
2, 118203, Note_off_c, 0, 64, 64
2, 118217, Note_on_c, 0, 55, 71
2, 118226, Note_off_c, 0, 65, 64
2, 118229, Control_c, 0, 64, 0
2, 118272, Note_on_c, 0, 59, 84
2, 118285, Note_off_c, 0, 55, 64
2, 118289, Control_c, 0, 64, 127
2, 118315, Note_off_c, 0, 59, 64
2, 118322, Note_on_c, 0, 62, 84
2, 118366, Note_on_c, 0, 65, 65
2, 118406, Note_off_c, 0, 62, 64
2, 118414, Note_on_c, 0, 71, 86
2, 118428, Note_off_c, 0, 65, 64
2, 118465, Note_on_c, 0, 65, 74
2, 118485, Note_off_c, 0, 71, 64
2, 118519, Note_on_c, 0, 62, 71
2, 118526, Note_off_c, 0, 65, 64
2, 118532, Note_on_c, 0, 59, 94
2, 118571, Note_off_c, 0, 62, 64
2, 118587, Note_on_c, 0, 55, 94
2, 118596, Control_c, 0, 64, 0
2, 118604, Note_off_c, 0, 59, 64
2, 118639, Note_off_c, 0, 55, 64
2, 118648, Note_on_c, 0, 59, 88
2, 118649, Control_c, 0, 64, 127
2, 118678, Note_off_c, 0, 59, 64
2, 118687, Note_on_c, 0, 62, 86
2, 118739, Note_on_c, 0, 65, 79
2, 118771, Note_off_c, 0, 62, 64
2, 118777, Note_on_c, 0, 71, 86
2, 118793, Note_off_c, 0, 65, 64
2, 118829, Note_on_c, 0, 65, 74
2, 118850, Note_off_c, 0, 71, 64
2, 118868, Note_on_c, 0, 62, 81
2, 118880, Note_off_c, 0, 65, 64
2, 118882, Note_on_c, 0, 59, 69
2, 118897, Note_on_c, 0, 55, 71
2, 118904, Note_off_c, 0, 62, 64
2, 118936, Note_off_c, 0, 59, 64
2, 118942, Note_off_c, 0, 55, 64
2, 118950, Note_on_c, 0, 62, 86
2, 118998, Note_on_c, 0, 60, 85
2, 119011, Note_off_c, 0, 62, 64
2, 119050, Note_on_c, 0, 62, 76
2, 119057, Note_off_c, 0, 60, 64
2, 119088, Note_on_c, 0, 60, 79
2, 119095, Note_off_c, 0, 62, 64
2, 119137, Note_off_c, 0, 60, 64
2, 119139, Note_on_c, 0, 62, 81
2, 119164, Note_on_c, 0, 60, 79
2, 119192, Note_off_c, 0, 62, 64
2, 119222, Note_on_c, 0, 62, 69
2, 119223, Note_off_c, 0, 60, 64
2, 119252, Note_on_c, 0, 60, 76
2, 119277, Note_off_c, 0, 62, 64
2, 119312, Note_off_c, 0, 60, 64
2, 119318, Note_on_c, 0, 62, 71
2, 119340, Note_on_c, 0, 60, 74
2, 119375, Note_off_c, 0, 62, 64
2, 119397, Note_on_c, 0, 62, 60
2, 119403, Note_off_c, 0, 60, 64
2, 119435, Note_on_c, 0, 60, 76
2, 119479, Note_off_c, 0, 62, 64
2, 119494, Note_off_c, 0, 60, 64
2, 119501, Note_on_c, 0, 62, 73
2, 119526, Note_on_c, 0, 70, 100
2, 119533, Note_on_c, 0, 60, 76
2, 119558, Note_off_c, 0, 62, 64
2, 119577, Note_on_c, 0, 67, 92
2, 119584, Note_off_c, 0, 70, 64
2, 119592, Note_on_c, 0, 62, 69
2, 119594, Note_off_c, 0, 60, 64
2, 119618, Note_on_c, 0, 70, 102
2, 119630, Note_off_c, 0, 67, 64
2, 119638, Note_on_c, 0, 60, 66
2, 119647, Note_off_c, 0, 62, 64
2, 119661, Note_on_c, 0, 67, 92
2, 119683, Note_off_c, 0, 70, 64
2, 119694, Note_on_c, 0, 62, 78
2, 119697, Note_off_c, 0, 60, 64
2, 119706, Note_on_c, 0, 64, 100
2, 119714, Note_off_c, 0, 67, 64
2, 119736, Note_on_c, 0, 60, 76
2, 119740, Note_off_c, 0, 64, 64
2, 119744, Note_off_c, 0, 62, 64
2, 119796, Note_off_c, 0, 60, 64
2, 119796, Note_on_c, 0, 62, 78
2, 119833, Note_on_c, 0, 60, 68
2, 119872, Note_off_c, 0, 62, 64
2, 119889, Note_on_c, 0, 62, 73
2, 119892, Note_off_c, 0, 60, 64
2, 119905, Note_on_c, 0, 76, 100
2, 119905, Note_on_c, 0, 70, 106
2, 119924, Note_on_c, 0, 60, 79
2, 119934, Note_off_c, 0, 70, 64
2, 119940, Note_off_c, 0, 62, 64
2, 119942, Note_off_c, 0, 76, 64
2, 119987, Note_off_c, 0, 60, 64
2, 119987, Note_on_c, 0, 62, 77
2, 120032, Note_on_c, 0, 60, 58
2, 120045, Note_off_c, 0, 62, 64
2, 120085, Note_on_c, 0, 62, 78
2, 120091, Control_c, 0, 64, 0
2, 120095, Note_on_c, 0, 79, 96
2, 120096, Note_on_c, 0, 76, 100
2, 120101, Note_off_c, 0, 60, 64
2, 120121, Note_off_c, 0, 76, 64
2, 120126, Control_c, 0, 64, 127
2, 120136, Note_on_c, 0, 60, 79
2, 120138, Note_off_c, 0, 79, 64
2, 120144, Note_off_c, 0, 62, 64
2, 120191, Note_off_c, 0, 60, 64
2, 120196, Note_on_c, 0, 62, 74
2, 120254, Note_off_c, 0, 62, 64
2, 120257, Note_on_c, 0, 60, 54
2, 120280, Note_on_c, 0, 79, 93
2, 120283, Note_on_c, 0, 82, 100
2, 120319, Note_on_c, 0, 62, 76
2, 120332, Note_off_c, 0, 79, 64
2, 120334, Note_off_c, 0, 60, 64
2, 120340, Note_off_c, 0, 82, 64
2, 120371, Note_on_c, 0, 60, 72
2, 120380, Note_off_c, 0, 62, 64
2, 120423, Note_on_c, 0, 62, 67
2, 120431, Note_off_c, 0, 60, 64
2, 120460, Note_on_c, 0, 60, 75
2, 120462, Note_on_c, 0, 81, 92
2, 120466, Note_on_c, 0, 77, 92
2, 120474, Note_off_c, 0, 62, 64
2, 120518, Note_off_c, 0, 60, 64
2, 120522, Note_on_c, 0, 62, 71
2, 120552, Note_on_c, 0, 60, 74
2, 120569, Note_off_c, 0, 81, 64
2, 120571, Note_off_c, 0, 62, 64
2, 120576, Note_off_c, 0, 77, 64
2, 120608, Note_off_c, 0, 60, 64
2, 120612, Note_on_c, 0, 62, 74
2, 120643, Note_on_c, 0, 60, 72
2, 120668, Note_off_c, 0, 62, 64
2, 120703, Note_off_c, 0, 60, 64
2, 120708, Note_on_c, 0, 62, 69
2, 120743, Note_on_c, 0, 60, 71
2, 120776, Note_off_c, 0, 62, 64
2, 120804, Note_off_c, 0, 60, 64
2, 120804, Note_on_c, 0, 62, 71
2, 120840, Note_on_c, 0, 60, 67
2, 120863, Note_off_c, 0, 62, 64
2, 120903, Note_off_c, 0, 60, 64
2, 120914, Note_on_c, 0, 62, 63
2, 120953, Note_on_c, 0, 60, 71
2, 120972, Note_off_c, 0, 62, 64
2, 120984, Note_on_c, 0, 72, 80
2, 120998, Control_c, 0, 64, 0
2, 121013, Note_on_c, 0, 62, 65
2, 121022, Note_off_c, 0, 60, 64
2, 121023, Control_c, 0, 64, 127
2, 121041, Note_on_c, 0, 69, 79
2, 121047, Note_off_c, 0, 72, 64
2, 121066, Note_off_c, 0, 62, 64
2, 121067, Note_on_c, 0, 60, 58
2, 121083, Note_on_c, 0, 72, 85
2, 121098, Note_off_c, 0, 69, 64
2, 121119, Note_off_c, 0, 60, 64
2, 121122, Note_on_c, 0, 62, 74
2, 121127, Note_on_c, 0, 69, 78
2, 121143, Note_off_c, 0, 72, 64
2, 121160, Note_on_c, 0, 60, 73
2, 121165, Note_on_c, 0, 65, 79
2, 121171, Control_c, 0, 64, 0
2, 121180, Note_off_c, 0, 62, 64
2, 121182, Note_off_c, 0, 69, 64
2, 121184, Control_c, 0, 64, 127
2, 121209, Note_off_c, 0, 65, 64
2, 121220, Note_off_c, 0, 60, 64
2, 121225, Note_on_c, 0, 62, 73
2, 121265, Note_on_c, 0, 60, 78
2, 121275, Note_off_c, 0, 62, 64
2, 121326, Note_on_c, 0, 62, 71
2, 121331, Note_off_c, 0, 60, 64
2, 121360, Note_on_c, 0, 69, 92
2, 121369, Note_on_c, 0, 60, 78
2, 121369, Note_on_c, 0, 77, 87
2, 121384, Note_off_c, 0, 62, 64
2, 121396, Note_off_c, 0, 77, 64
2, 121396, Note_off_c, 0, 69, 64
2, 121428, Note_on_c, 0, 62, 74
2, 121429, Note_off_c, 0, 60, 64
2, 121468, Note_on_c, 0, 60, 73
2, 121482, Note_off_c, 0, 62, 64
2, 121530, Note_off_c, 0, 60, 64
2, 121532, Note_on_c, 0, 62, 71
2, 121547, Note_on_c, 0, 81, 96
2, 121551, Note_on_c, 0, 77, 96
2, 121566, Note_on_c, 0, 60, 77
2, 121575, Note_off_c, 0, 77, 64
2, 121582, Note_off_c, 0, 62, 64
2, 121590, Note_off_c, 0, 81, 64
2, 121632, Note_off_c, 0, 60, 64
2, 121634, Note_on_c, 0, 62, 77
2, 121686, Note_on_c, 0, 60, 46
2, 121687, Note_off_c, 0, 62, 64
2, 121734, Note_on_c, 0, 81, 102
2, 121739, Note_on_c, 0, 84, 97
2, 121756, Note_on_c, 0, 62, 76
2, 121766, Note_off_c, 0, 60, 64
2, 121777, Note_off_c, 0, 81, 64
2, 121793, Note_off_c, 0, 84, 64
2, 121806, Note_on_c, 0, 60, 71
2, 121814, Note_off_c, 0, 62, 64
2, 121861, Note_off_c, 0, 60, 64
2, 121862, Note_on_c, 0, 62, 66
2, 121908, Note_on_c, 0, 60, 69
2, 121914, Note_off_c, 0, 62, 64
2, 121921, Note_on_c, 0, 79, 106
2, 121923, Note_on_c, 0, 82, 106
2, 121966, Note_off_c, 0, 79, 64
2, 121968, Note_on_c, 0, 62, 65
2, 121981, Note_off_c, 0, 60, 64
2, 122015, Note_on_c, 0, 60, 72
2, 122036, Note_off_c, 0, 62, 64
2, 122041, Note_off_c, 0, 82, 64
2, 122072, Note_on_c, 0, 62, 67
2, 122079, Note_off_c, 0, 60, 64
2, 122109, Note_on_c, 0, 60, 72
2, 122125, Note_off_c, 0, 62, 64
2, 122167, Note_on_c, 0, 62, 65
2, 122172, Note_off_c, 0, 60, 64
2, 122201, Note_on_c, 0, 60, 71
2, 122216, Note_off_c, 0, 62, 64
2, 122263, Note_on_c, 0, 62, 67
2, 122268, Note_off_c, 0, 60, 64
2, 122302, Note_on_c, 0, 60, 65
2, 122322, Note_off_c, 0, 62, 64
2, 122362, Note_off_c, 0, 60, 64
2, 122373, Note_on_c, 0, 62, 60
2, 122404, Note_on_c, 0, 60, 69
2, 122427, Note_off_c, 0, 62, 64
2, 122460, Note_on_c, 0, 70, 80
2, 122462, Note_on_c, 0, 62, 67
2, 122465, Note_off_c, 0, 60, 64
2, 122503, Note_on_c, 0, 60, 67
2, 122507, Note_on_c, 0, 67, 71
2, 122513, Note_off_c, 0, 70, 64
2, 122518, Note_off_c, 0, 62, 64
2, 122548, Note_on_c, 0, 70, 88
2, 122559, Note_off_c, 0, 67, 64
2, 122564, Note_off_c, 0, 60, 64
2, 122571, Note_on_c, 0, 62, 66
2, 122602, Note_on_c, 0, 67, 78
2, 122611, Note_on_c, 0, 60, 63
2, 122615, Note_off_c, 0, 70, 64
2, 122619, Note_off_c, 0, 62, 64
2, 122640, Control_c, 0, 64, 0
2, 122649, Note_on_c, 0, 64, 72
2, 122654, Note_off_c, 0, 67, 64
2, 122658, Control_c, 0, 64, 127
2, 122671, Note_on_c, 0, 62, 71
2, 122679, Note_off_c, 0, 64, 64
2, 122684, Note_off_c, 0, 60, 64
2, 122729, Note_off_c, 0, 62, 64
2, 122736, Note_on_c, 0, 60, 81
2, 122778, Note_on_c, 0, 62, 67
2, 122783, Note_off_c, 0, 60, 64
2, 122834, Note_on_c, 0, 60, 64
2, 122844, Note_off_c, 0, 62, 64
2, 122845, Note_on_c, 0, 70, 102
2, 122851, Note_on_c, 0, 76, 97
2, 122874, Note_off_c, 0, 70, 64
2, 122888, Note_off_c, 0, 76, 64
2, 122890, Note_on_c, 0, 62, 65
2, 122906, Note_off_c, 0, 60, 64
2, 122942, Note_on_c, 0, 60, 71
2, 122954, Note_off_c, 0, 62, 64
2, 123002, Note_off_c, 0, 60, 64
2, 123004, Note_on_c, 0, 62, 61
2, 123032, Note_on_c, 0, 79, 92
2, 123035, Note_on_c, 0, 76, 87
2, 123041, Note_on_c, 0, 60, 77
2, 123065, Note_off_c, 0, 62, 64
2, 123069, Note_off_c, 0, 76, 64
2, 123092, Note_off_c, 0, 60, 64
2, 123095, Note_off_c, 0, 79, 64
2, 123103, Note_on_c, 0, 62, 61
2, 123133, Note_on_c, 0, 60, 76
2, 123150, Note_off_c, 0, 62, 64
2, 123192, Note_off_c, 0, 60, 64
2, 123199, Note_on_c, 0, 62, 71
2, 123209, Note_on_c, 0, 79, 92
2, 123210, Note_on_c, 0, 82, 102
2, 123235, Note_on_c, 0, 60, 56
2, 123243, Note_off_c, 0, 79, 64
2, 123267, Note_off_c, 0, 82, 64
2, 123306, Note_on_c, 0, 59, 71
2, 123312, Note_off_c, 0, 60, 64
2, 123319, Note_off_c, 0, 62, 64
2, 123349, Note_on_c, 0, 60, 71
2, 123394, Note_off_c, 0, 59, 64
2, 123405, Note_off_c, 0, 60, 64
2, 123410, Note_on_c, 0, 81, 92
2, 123414, Note_on_c, 0, 65, 78
2, 123418, Note_on_c, 0, 53, 81
2, 123427, Control_c, 0, 64, 0
2, 123460, Note_on_c, 0, 82, 81
2, 123465, Note_off_c, 0, 53, 64
2, 123478, Control_c, 0, 64, 127
2, 123489, Note_off_c, 0, 81, 64
2, 123512, Note_on_c, 0, 84, 67
2, 123526, Note_off_c, 0, 82, 64
2, 123569, Note_on_c, 0, 82, 71
2, 123588, Note_off_c, 0, 84, 64
2, 123613, Control_c, 0, 64, 0
2, 123617, Note_on_c, 0, 81, 79
2, 123622, Note_on_c, 0, 67, 71
2, 123651, Note_off_c, 0, 82, 64
2, 123653, Note_off_c, 0, 65, 64
2, 123659, Control_c, 0, 64, 127
2, 123669, Note_on_c, 0, 79, 79
2, 123685, Note_off_c, 0, 81, 64
2, 123724, Note_off_c, 0, 79, 64
2, 123729, Note_on_c, 0, 77, 78
2, 123774, Note_on_c, 0, 76, 78
2, 123789, Note_off_c, 0, 77, 64
2, 123804, Control_c, 0, 64, 0
2, 123819, Note_off_c, 0, 67, 64
2, 123819, Note_on_c, 0, 69, 71
2, 123823, Note_on_c, 0, 77, 85
2, 123842, Note_off_c, 0, 76, 64
2, 123850, Control_c, 0, 64, 127
2, 123859, Note_on_c, 0, 79, 56
2, 123880, Note_off_c, 0, 77, 64
2, 123902, Note_on_c, 0, 81, 77
2, 123912, Note_off_c, 0, 79, 64
2, 123944, Note_on_c, 0, 79, 67
2, 123973, Note_off_c, 0, 81, 64
2, 123992, Note_on_c, 0, 57, 69
2, 123999, Note_on_c, 0, 77, 75
2, 124005, Note_off_c, 0, 79, 64
2, 124017, Control_c, 0, 64, 0
2, 124039, Note_on_c, 0, 76, 79
2, 124040, Control_c, 0, 64, 127
2, 124060, Note_off_c, 0, 77, 64
2, 124083, Note_off_c, 0, 76, 64
2, 124085, Note_on_c, 0, 74, 84
2, 124135, Note_off_c, 0, 74, 64
2, 124137, Note_on_c, 0, 73, 79
2, 124176, Note_off_c, 0, 57, 64
2, 124189, Note_off_c, 0, 73, 64
2, 124190, Note_on_c, 0, 74, 78
2, 124198, Note_on_c, 0, 58, 77
2, 124201, Note_off_c, 0, 69, 64
2, 124212, Control_c, 0, 64, 0
2, 124242, Note_on_c, 0, 76, 84
2, 124260, Control_c, 0, 64, 127
2, 124266, Note_off_c, 0, 74, 64
2, 124288, Note_on_c, 0, 77, 69
2, 124326, Note_off_c, 0, 76, 64
2, 124336, Note_on_c, 0, 76, 63
2, 124347, Note_off_c, 0, 77, 64
2, 124387, Control_c, 0, 64, 0
2, 124396, Note_on_c, 0, 60, 78
2, 124401, Note_off_c, 0, 76, 64
2, 124403, Note_off_c, 0, 58, 64
2, 124405, Note_on_c, 0, 74, 80
2, 124431, Control_c, 0, 64, 127
2, 124454, Note_on_c, 0, 72, 85
2, 124456, Note_off_c, 0, 74, 64
2, 124507, Note_on_c, 0, 70, 96
2, 124522, Note_off_c, 0, 72, 64
2, 124554, Note_on_c, 0, 69, 79
2, 124561, Note_off_c, 0, 70, 64
2, 124585, Control_c, 0, 64, 0
2, 124599, Note_on_c, 0, 62, 75
2, 124606, Note_on_c, 0, 70, 81
2, 124615, Note_off_c, 0, 60, 64
2, 124622, Note_off_c, 0, 69, 64
2, 124632, Control_c, 0, 64, 127
2, 124657, Note_on_c, 0, 72, 63
2, 124683, Note_off_c, 0, 70, 64
2, 124704, Note_off_c, 0, 62, 64
2, 124712, Note_on_c, 0, 74, 76
2, 124726, Note_off_c, 0, 72, 64
2, 124767, Note_on_c, 0, 72, 71
2, 124779, Note_off_c, 0, 74, 64
2, 124808, Note_on_c, 0, 70, 92
2, 124817, Note_off_c, 0, 72, 64
2, 124848, Note_on_c, 0, 69, 71
2, 124881, Note_off_c, 0, 70, 64
2, 124896, Note_on_c, 0, 67, 85
2, 124902, Note_off_c, 0, 69, 64
2, 124904, Note_on_c, 0, 45, 68
2, 124932, Note_on_c, 0, 66, 85
2, 124955, Control_c, 0, 64, 0
2, 124958, Note_off_c, 0, 67, 64
2, 124976, Note_on_c, 0, 46, 69
2, 124991, Note_on_c, 0, 67, 80
2, 124992, Note_off_c, 0, 66, 64
2, 124993, Note_off_c, 0, 45, 64
2, 125008, Control_c, 0, 64, 127
2, 125032, Note_on_c, 0, 70, 88
2, 125065, Note_off_c, 0, 67, 64
2, 125078, Note_on_c, 0, 74, 77
2, 125089, Note_off_c, 0, 70, 64
2, 125105, Note_off_c, 0, 46, 64
2, 125124, Note_on_c, 0, 72, 84
2, 125134, Note_off_c, 0, 74, 64
2, 125175, Note_on_c, 0, 70, 85
2, 125203, Note_off_c, 0, 72, 64
2, 125225, Note_on_c, 0, 69, 64
2, 125248, Note_off_c, 0, 70, 64
2, 125264, Note_on_c, 0, 46, 53
2, 125272, Note_on_c, 0, 67, 84
2, 125280, Note_off_c, 0, 69, 64
2, 125320, Note_on_c, 0, 65, 76
2, 125325, Note_off_c, 0, 67, 64
2, 125328, Note_off_c, 0, 46, 64
2, 125344, Control_c, 0, 64, 0
2, 125360, Note_on_c, 0, 64, 77
2, 125368, Note_on_c, 0, 48, 74
2, 125369, Note_off_c, 0, 65, 64
2, 125373, Control_c, 0, 64, 127
2, 125408, Note_on_c, 0, 65, 71
2, 125419, Note_off_c, 0, 64, 64
2, 125449, Note_off_c, 0, 65, 64
2, 125456, Note_on_c, 0, 67, 65
2, 125504, Note_on_c, 0, 65, 71
2, 125519, Note_off_c, 0, 67, 64
2, 125544, Note_on_c, 0, 52, 69
2, 125544, Note_on_c, 0, 64, 84
2, 125576, Note_off_c, 0, 65, 64
2, 125584, Note_on_c, 0, 62, 72
2, 125593, Note_off_c, 0, 48, 64
2, 125605, Note_off_c, 0, 52, 64
2, 125612, Note_off_c, 0, 64, 64
2, 125624, Note_on_c, 0, 60, 86
2, 125631, Note_off_c, 0, 62, 64
2, 125672, Note_on_c, 0, 58, 84
2, 125684, Note_off_c, 0, 60, 64
2, 125722, Control_c, 0, 64, 0
2, 125728, Note_on_c, 0, 53, 77
2, 125728, Note_on_c, 0, 57, 86
2, 125733, Note_on_c, 0, 41, 58
2, 125734, Note_off_c, 0, 58, 64
2, 125757, Control_c, 0, 64, 127
2, 125778, Note_on_c, 0, 65, 80
2, 125785, Note_off_c, 0, 57, 64
2, 125818, Note_on_c, 0, 64, 79
2, 125836, Note_off_c, 0, 65, 64
2, 125848, Note_off_c, 0, 41, 64
2, 125883, Note_on_c, 0, 65, 84
2, 125886, Control_c, 0, 64, 0
2, 125892, Note_off_c, 0, 64, 64
2, 125896, Note_off_c, 0, 53, 64
2, 125928, Note_on_c, 0, 69, 88
2, 125942, Note_off_c, 0, 65, 64
2, 125967, Control_c, 0, 64, 127
2, 125976, Note_on_c, 0, 65, 79
2, 125997, Note_off_c, 0, 69, 64
2, 126026, Note_on_c, 0, 64, 79
2, 126040, Note_off_c, 0, 65, 64
2, 126071, Note_on_c, 0, 65, 81
2, 126087, Note_off_c, 0, 64, 64
2, 126121, Control_c, 0, 64, 0
2, 126128, Note_on_c, 0, 60, 96
2, 126129, Note_off_c, 0, 65, 64
2, 126132, Note_on_c, 0, 57, 76
2, 126174, Note_on_c, 0, 65, 84
2, 126186, Control_c, 0, 64, 127
2, 126197, Note_off_c, 0, 60, 64
2, 126202, Note_off_c, 0, 57, 64
2, 126223, Note_on_c, 0, 64, 84
2, 126239, Note_off_c, 0, 65, 64
2, 126271, Note_on_c, 0, 65, 80
2, 126291, Note_off_c, 0, 64, 64
2, 126313, Control_c, 0, 64, 0
2, 126323, Note_on_c, 0, 58, 81
2, 126325, Note_on_c, 0, 62, 90
2, 126332, Note_off_c, 0, 65, 64
2, 126367, Control_c, 0, 64, 127
2, 126370, Note_on_c, 0, 65, 79
2, 126390, Note_off_c, 0, 62, 64
2, 126420, Note_on_c, 0, 64, 81
2, 126435, Note_off_c, 0, 65, 64
2, 126468, Note_on_c, 0, 65, 84
2, 126487, Note_off_c, 0, 64, 64
2, 126511, Control_c, 0, 64, 0
2, 126526, Note_off_c, 0, 58, 64
2, 126527, Note_on_c, 0, 60, 92
2, 126532, Note_off_c, 0, 65, 64
2, 126532, Note_on_c, 0, 57, 77
2, 126575, Control_c, 0, 64, 127
2, 126580, Note_on_c, 0, 65, 80
2, 126608, Note_off_c, 0, 57, 64
2, 126617, Note_off_c, 0, 60, 64
2, 126617, Note_on_c, 0, 64, 84
2, 126632, Note_off_c, 0, 65, 64
2, 126670, Note_on_c, 0, 65, 79
2, 126685, Control_c, 0, 64, 0
2, 126692, Note_off_c, 0, 64, 64
2, 126699, Control_c, 0, 64, 127
2, 126715, Note_on_c, 0, 69, 84
2, 126728, Note_off_c, 0, 65, 64
2, 126768, Note_on_c, 0, 65, 74
2, 126793, Note_off_c, 0, 69, 64
2, 126814, Note_off_c, 0, 65, 64
2, 126820, Note_on_c, 0, 64, 79
2, 126860, Note_on_c, 0, 65, 84
2, 126880, Note_off_c, 0, 64, 64
2, 126892, Control_c, 0, 64, 0
2, 126911, Note_on_c, 0, 72, 86
2, 126918, Note_on_c, 0, 57, 67
2, 126927, Note_off_c, 0, 65, 64
2, 126955, Control_c, 0, 64, 127
2, 126960, Note_on_c, 0, 65, 79
2, 126971, Note_off_c, 0, 57, 64
2, 126984, Note_off_c, 0, 72, 64
2, 127010, Note_on_c, 0, 64, 76
2, 127017, Note_off_c, 0, 65, 64
2, 127056, Note_on_c, 0, 65, 81
2, 127077, Note_off_c, 0, 64, 64
2, 127101, Control_c, 0, 64, 0
2, 127108, Note_on_c, 0, 74, 90
2, 127116, Note_on_c, 0, 58, 74
2, 127123, Note_off_c, 0, 65, 64
2, 127155, Note_on_c, 0, 65, 77
2, 127165, Control_c, 0, 64, 127
2, 127170, Note_off_c, 0, 74, 64
2, 127176, Note_off_c, 0, 58, 64
2, 127205, Note_on_c, 0, 64, 77
2, 127213, Note_off_c, 0, 65, 64
2, 127256, Note_on_c, 0, 65, 79
2, 127281, Note_off_c, 0, 64, 64
2, 127297, Note_on_c, 0, 57, 67
2, 127305, Control_c, 0, 64, 0
2, 127308, Note_on_c, 0, 72, 92
2, 127320, Note_off_c, 0, 65, 64
2, 127353, Note_on_c, 0, 65, 79
2, 127357, Control_c, 0, 64, 127
2, 127380, Note_off_c, 0, 72, 64
2, 127402, Note_off_c, 0, 57, 64
2, 127408, Note_on_c, 0, 64, 84
2, 127415, Note_off_c, 0, 65, 64
2, 127454, Note_on_c, 0, 65, 79
2, 127473, Note_off_c, 0, 64, 64
2, 127475, Control_c, 0, 64, 0
2, 127500, Note_on_c, 0, 69, 96
2, 127516, Note_off_c, 0, 65, 64
2, 127526, Control_c, 0, 64, 127
2, 127547, Note_on_c, 0, 65, 78
2, 127568, Note_off_c, 0, 69, 64
2, 127593, Note_on_c, 0, 64, 84
2, 127600, Note_off_c, 0, 65, 64
2, 127643, Note_off_c, 0, 64, 64
2, 127645, Note_on_c, 0, 65, 71
2, 127690, Control_c, 0, 64, 0
2, 127696, Note_off_c, 0, 65, 64
2, 127702, Note_on_c, 0, 57, 71
2, 127707, Note_on_c, 0, 60, 86
2, 127743, Control_c, 0, 64, 127
2, 127751, Note_off_c, 0, 57, 64
2, 127753, Note_on_c, 0, 65, 81
2, 127768, Note_off_c, 0, 60, 64
2, 127802, Note_on_c, 0, 64, 80
2, 127811, Note_off_c, 0, 65, 64
2, 127843, Note_on_c, 0, 65, 79
2, 127863, Note_off_c, 0, 64, 64
2, 127889, Control_c, 0, 64, 0
2, 127896, Note_on_c, 0, 62, 88
2, 127903, Note_off_c, 0, 65, 64
2, 127903, Note_on_c, 0, 58, 78
2, 127943, Control_c, 0, 64, 127
2, 127948, Note_on_c, 0, 65, 84
2, 127954, Note_off_c, 0, 58, 64
2, 127969, Note_off_c, 0, 62, 64
2, 127994, Note_on_c, 0, 64, 84
2, 128015, Note_off_c, 0, 65, 64
2, 128044, Note_on_c, 0, 65, 77
2, 128062, Note_off_c, 0, 64, 64
2, 128090, Control_c, 0, 64, 0
2, 128096, Note_on_c, 0, 57, 76
2, 128096, Note_on_c, 0, 60, 86
2, 128100, Note_off_c, 0, 65, 64
2, 128139, Note_on_c, 0, 65, 79
2, 128154, Control_c, 0, 64, 127
2, 128160, Note_off_c, 0, 57, 64
2, 128180, Note_off_c, 0, 60, 64
2, 128182, Note_on_c, 0, 64, 84
2, 128198, Note_off_c, 0, 65, 64
2, 128234, Note_on_c, 0, 65, 79
2, 128256, Note_off_c, 0, 64, 64
2, 128265, Control_c, 0, 64, 0
2, 128279, Note_on_c, 0, 69, 81
2, 128291, Note_off_c, 0, 65, 64
2, 128316, Control_c, 0, 64, 127
2, 128332, Note_on_c, 0, 65, 74
2, 128362, Note_off_c, 0, 69, 64
2, 128378, Note_on_c, 0, 64, 76
2, 128383, Note_off_c, 0, 65, 64
2, 128428, Note_on_c, 0, 65, 84
2, 128451, Note_off_c, 0, 64, 64
2, 128469, Control_c, 0, 64, 0
2, 128476, Note_on_c, 0, 57, 67
2, 128484, Note_on_c, 0, 72, 90
2, 128499, Note_off_c, 0, 65, 64
2, 128523, Control_c, 0, 64, 127
2, 128530, Note_on_c, 0, 65, 79
2, 128535, Note_off_c, 0, 57, 64
2, 128545, Note_off_c, 0, 72, 64
2, 128577, Note_on_c, 0, 64, 72
2, 128584, Note_off_c, 0, 65, 64
2, 128626, Note_on_c, 0, 65, 80
2, 128646, Note_off_c, 0, 64, 64
2, 128669, Control_c, 0, 64, 0
2, 128679, Note_on_c, 0, 58, 71
2, 128680, Note_on_c, 0, 74, 86
2, 128690, Note_off_c, 0, 65, 64
2, 128722, Note_on_c, 0, 65, 71
2, 128725, Control_c, 0, 64, 127
2, 128740, Note_off_c, 0, 58, 64
2, 128742, Note_off_c, 0, 74, 64
2, 128779, Note_on_c, 0, 64, 69
2, 128783, Note_off_c, 0, 65, 64
2, 128830, Note_on_c, 0, 65, 73
2, 128847, Note_off_c, 0, 64, 64
2, 128868, Note_on_c, 0, 57, 66
2, 128872, Control_c, 0, 64, 0
2, 128878, Note_on_c, 0, 72, 90
2, 128895, Note_off_c, 0, 65, 64
2, 128924, Control_c, 0, 64, 127
2, 128929, Note_off_c, 0, 57, 64
2, 128931, Note_on_c, 0, 65, 68
2, 128945, Note_off_c, 0, 72, 64
2, 128970, Note_on_c, 0, 64, 69
2, 128989, Note_off_c, 0, 65, 64
2, 129028, Note_on_c, 0, 65, 71
2, 129044, Note_off_c, 0, 64, 64
2, 129062, Control_c, 0, 64, 0
2, 129069, Note_on_c, 0, 58, 71
2, 129069, Note_on_c, 0, 74, 79
2, 129085, Note_off_c, 0, 65, 64
2, 129114, Control_c, 0, 64, 127
2, 129121, Note_off_c, 0, 58, 64
2, 129125, Note_on_c, 0, 65, 68
2, 129133, Note_off_c, 0, 74, 64
2, 129172, Note_on_c, 0, 64, 54
2, 129179, Note_off_c, 0, 65, 64
2, 129220, Note_on_c, 0, 65, 70
2, 129247, Note_off_c, 0, 64, 64
2, 129263, Control_c, 0, 64, 0
2, 129266, Note_on_c, 0, 57, 65
2, 129267, Note_on_c, 0, 72, 88
2, 129285, Note_off_c, 0, 65, 64
2, 129316, Control_c, 0, 64, 127
2, 129321, Note_off_c, 0, 57, 64
2, 129321, Note_on_c, 0, 65, 70
2, 129339, Note_off_c, 0, 72, 64
2, 129364, Note_on_c, 0, 64, 65
2, 129376, Note_off_c, 0, 65, 64
2, 129414, Note_on_c, 0, 65, 68
2, 129432, Note_off_c, 0, 64, 64
2, 129445, Control_c, 0, 64, 0
2, 129460, Note_on_c, 0, 74, 84
2, 129467, Note_on_c, 0, 58, 69
2, 129474, Note_off_c, 0, 65, 64
2, 129498, Control_c, 0, 64, 127
2, 129511, Note_on_c, 0, 65, 75
2, 129518, Note_off_c, 0, 58, 64
2, 129529, Note_off_c, 0, 74, 64
2, 129565, Note_on_c, 0, 64, 65
2, 129572, Note_off_c, 0, 65, 64
2, 129617, Note_on_c, 0, 65, 69
2, 129640, Note_off_c, 0, 64, 64
2, 129655, Control_c, 0, 64, 0
2, 129659, Note_on_c, 0, 57, 63
2, 129664, Note_on_c, 0, 72, 84
2, 129679, Note_off_c, 0, 65, 64
2, 129708, Control_c, 0, 64, 127
2, 129717, Note_on_c, 0, 65, 65
2, 129734, Note_off_c, 0, 72, 64
2, 129760, Note_on_c, 0, 64, 68
2, 129769, Note_off_c, 0, 65, 64
2, 129813, Note_on_c, 0, 65, 75
2, 129838, Note_off_c, 0, 64, 64
2, 129852, Note_on_c, 0, 72, 84
2, 129870, Note_off_c, 0, 65, 64
2, 129908, Note_on_c, 0, 65, 74
2, 129928, Note_off_c, 0, 72, 64
2, 129955, Note_on_c, 0, 64, 58
2, 129963, Note_off_c, 0, 65, 64
2, 130007, Note_on_c, 0, 65, 77
2, 130034, Note_off_c, 0, 64, 64
2, 130042, Note_on_c, 0, 56, 72
2, 130044, Control_c, 0, 64, 0
2, 130049, Note_on_c, 0, 60, 67
2, 130049, Note_on_c, 0, 72, 86
2, 130063, Note_off_c, 0, 57, 64
2, 130068, Note_off_c, 0, 65, 64
2, 130102, Note_on_c, 0, 65, 75
2, 130110, Control_c, 0, 64, 127
2, 130125, Note_off_c, 0, 72, 64
2, 130148, Note_on_c, 0, 64, 58
2, 130156, Note_off_c, 0, 65, 64
2, 130198, Note_on_c, 0, 65, 77
2, 130223, Note_off_c, 0, 64, 64
2, 130240, Note_on_c, 0, 72, 81
2, 130256, Note_off_c, 0, 65, 64
2, 130298, Note_on_c, 0, 65, 76
2, 130306, Note_off_c, 0, 60, 64
2, 130320, Note_off_c, 0, 72, 64
2, 130350, Note_on_c, 0, 64, 67
2, 130355, Note_off_c, 0, 65, 64
2, 130374, Note_off_c, 0, 56, 64
2, 130395, Note_on_c, 0, 65, 76
2, 130426, Note_on_c, 0, 55, 68
2, 130428, Note_on_c, 0, 62, 68
2, 130429, Note_off_c, 0, 64, 64
2, 130431, Control_c, 0, 64, 0
2, 130440, Note_on_c, 0, 71, 88
2, 130459, Note_off_c, 0, 65, 64
2, 130475, Control_c, 0, 64, 127
2, 130495, Note_on_c, 0, 65, 74
2, 130512, Note_off_c, 0, 71, 64
2, 130540, Note_on_c, 0, 64, 73
2, 130548, Note_off_c, 0, 65, 64
2, 130593, Note_on_c, 0, 65, 78
2, 130617, Note_off_c, 0, 64, 64
2, 130634, Note_on_c, 0, 71, 84
2, 130649, Note_off_c, 0, 65, 64
2, 130668, Note_off_c, 0, 55, 64
2, 130677, Note_off_c, 0, 62, 64
2, 130682, Note_on_c, 0, 65, 71
2, 130699, Note_off_c, 0, 71, 64
2, 130728, Note_off_c, 0, 65, 64
2, 130732, Note_on_c, 0, 64, 71
2, 130778, Note_on_c, 0, 65, 77
2, 130792, Note_off_c, 0, 64, 64
2, 130824, Note_on_c, 0, 52, 71
2, 130828, Note_off_c, 0, 65, 64
2, 130831, Note_on_c, 0, 60, 67
2, 130831, Note_on_c, 0, 70, 96
2, 130838, Control_c, 0, 64, 0
2, 130883, Note_on_c, 0, 67, 71
2, 130897, Control_c, 0, 64, 127
2, 130903, Note_off_c, 0, 70, 64
2, 130930, Note_on_c, 0, 66, 84
2, 130944, Note_off_c, 0, 67, 64
2, 130973, Note_on_c, 0, 67, 77
2, 130987, Note_off_c, 0, 66, 64
2, 131025, Note_on_c, 0, 70, 92
2, 131035, Note_off_c, 0, 67, 64
2, 131076, Note_on_c, 0, 67, 63
2, 131077, Note_off_c, 0, 70, 64
2, 131100, Note_on_c, 0, 66, 84
2, 131109, Note_off_c, 0, 67, 64
2, 131152, Note_on_c, 0, 67, 75
2, 131163, Note_off_c, 0, 66, 64
2, 131182, Note_off_c, 0, 67, 64
2, 131207, Note_on_c, 0, 53, 67
2, 131213, Note_off_c, 0, 52, 64
2, 131215, Note_on_c, 0, 69, 86
2, 131230, Control_c, 0, 64, 0
2, 131293, Control_c, 0, 64, 127
2, 131303, Note_on_c, 0, 77, 78
2, 131368, Note_off_c, 0, 69, 64
2, 131377, Note_off_c, 0, 77, 64
2, 131408, Note_on_c, 0, 79, 84
2, 131413, Note_on_c, 0, 69, 33
2, 131443, Note_off_c, 0, 60, 64
2, 131449, Note_off_c, 0, 53, 64
2, 131455, Note_on_c, 0, 77, 75
2, 131458, Note_off_c, 0, 69, 64
2, 131479, Note_off_c, 0, 79, 64
2, 131503, Note_on_c, 0, 76, 77
2, 131531, Note_off_c, 0, 77, 64
2, 131550, Note_on_c, 0, 74, 85
2, 131561, Note_off_c, 0, 76, 64
2, 131583, Note_off_c, 0, 74, 64
2, 131616, Note_on_c, 0, 74, 94
2, 131667, Note_on_c, 0, 72, 67
2, 131682, Note_off_c, 0, 74, 64
2, 131707, Note_on_c, 0, 70, 84
2, 131734, Note_off_c, 0, 72, 64
2, 131769, Note_on_c, 0, 69, 53
2, 131773, Note_off_c, 0, 70, 64
2, 131790, Note_off_c, 0, 69, 64
2, 131798, Note_on_c, 0, 45, 67
2, 131803, Note_on_c, 0, 53, 67
2, 131817, Control_c, 0, 64, 0
2, 131832, Note_on_c, 0, 69, 80
2, 131856, Control_c, 0, 64, 127
2, 131864, Note_on_c, 0, 67, 69
2, 131878, Note_off_c, 0, 69, 64
2, 131882, Note_off_c, 0, 45, 64
2, 131909, Note_on_c, 0, 65, 81
2, 131938, Note_off_c, 0, 67, 64
2, 131952, Note_on_c, 0, 64, 84
2, 131975, Note_off_c, 0, 65, 64
2, 132001, Note_off_c, 0, 64, 64
2, 132005, Note_on_c, 0, 62, 86
2, 132017, Control_c, 0, 64, 0
2, 132022, Note_on_c, 0, 46, 71
2, 132076, Control_c, 0, 64, 127
2, 132106, Note_off_c, 0, 53, 64
2, 132112, Note_on_c, 0, 73, 77
2, 132157, Note_on_c, 0, 74, 70
2, 132170, Note_off_c, 0, 62, 64
2, 132174, Note_off_c, 0, 73, 64
2, 132208, Note_on_c, 0, 72, 84
2, 132221, Note_on_c, 0, 58, 63
2, 132222, Control_c, 0, 64, 0
2, 132227, Note_off_c, 0, 74, 64
2, 132250, Note_on_c, 0, 70, 86
2, 132265, Control_c, 0, 64, 127
2, 132274, Note_off_c, 0, 72, 64
2, 132300, Note_off_c, 0, 46, 64
2, 132304, Note_on_c, 0, 69, 74
2, 132327, Note_off_c, 0, 70, 64
2, 132334, Note_off_c, 0, 58, 64
2, 132351, Note_on_c, 0, 67, 84
2, 132359, Note_off_c, 0, 69, 64
2, 132410, Note_on_c, 0, 65, 94
2, 132416, Note_on_c, 0, 48, 71
2, 132417, Note_on_c, 0, 57, 69
2, 132425, Control_c, 0, 64, 0
2, 132449, Note_off_c, 0, 67, 64
2, 132456, Control_c, 0, 64, 127
2, 132508, Note_off_c, 0, 65, 64
2, 132567, Note_on_c, 0, 65, 78
2, 132597, Control_c, 0, 64, 0
2, 132611, Note_on_c, 0, 64, 72
2, 132614, Note_on_c, 0, 55, 54
2, 132615, Note_off_c, 0, 65, 64
2, 132622, Control_c, 0, 64, 127
2, 132629, Note_off_c, 0, 57, 64
2, 132641, Note_on_c, 0, 65, 80
2, 132650, Note_off_c, 0, 64, 64
2, 132688, Note_on_c, 0, 64, 67
2, 132696, Note_off_c, 0, 65, 64
2, 132706, Note_on_c, 0, 62, 77
2, 132727, Note_off_c, 0, 64, 64
2, 132744, Note_on_c, 0, 64, 71
2, 132755, Note_off_c, 0, 62, 64
2, 132757, Note_off_c, 0, 48, 64
2, 132773, Note_off_c, 0, 64, 64
2, 132779, Note_off_c, 0, 55, 64
2, 132800, Note_on_c, 0, 53, 71
2, 132803, Note_on_c, 0, 57, 74
2, 132806, Note_on_c, 0, 65, 85
2, 132806, Control_c, 0, 64, 0
2, 132848, Note_on_c, 0, 77, 53
2, 132864, Control_c, 0, 64, 127
2, 132892, Note_off_c, 0, 77, 64
2, 132892, Note_off_c, 0, 65, 64
2, 132899, Note_on_c, 0, 76, 57
2, 132944, Note_off_c, 0, 76, 64
2, 132952, Note_on_c, 0, 77, 54
2, 132984, Control_c, 0, 64, 0
2, 132990, Note_on_c, 0, 79, 63
2, 132991, Note_off_c, 0, 77, 64
2, 133008, Control_c, 0, 64, 127
2, 133037, Note_off_c, 0, 53, 64
2, 133040, Note_on_c, 0, 77, 63
2, 133043, Note_off_c, 0, 57, 64
2, 133073, Note_off_c, 0, 79, 64
2, 133096, Note_on_c, 0, 76, 63
2, 133099, Note_off_c, 0, 77, 64
2, 133144, Note_on_c, 0, 74, 60
2, 133150, Note_off_c, 0, 76, 64
2, 133174, Note_off_c, 0, 74, 64
2, 133194, Note_on_c, 0, 74, 70
2, 133239, Note_on_c, 0, 72, 63
2, 133257, Note_off_c, 0, 74, 64
2, 133287, Note_on_c, 0, 70, 65
2, 133317, Note_off_c, 0, 72, 64
2, 133335, Note_on_c, 0, 69, 47
2, 133347, Note_off_c, 0, 70, 64
2, 133360, Note_off_c, 0, 69, 64
2, 133381, Note_on_c, 0, 45, 47
2, 133385, Note_on_c, 0, 53, 45
2, 133388, Control_c, 0, 64, 0
2, 133397, Note_on_c, 0, 69, 59
2, 133422, Control_c, 0, 64, 127
2, 133437, Note_on_c, 0, 67, 52
2, 133457, Note_off_c, 0, 45, 64
2, 133459, Note_off_c, 0, 69, 64
2, 133480, Note_on_c, 0, 65, 60
2, 133508, Note_off_c, 0, 67, 64
2, 133523, Note_on_c, 0, 64, 63
2, 133541, Note_off_c, 0, 65, 64
2, 133568, Note_on_c, 0, 46, 57
2, 133572, Note_on_c, 0, 62, 65
2, 133573, Note_off_c, 0, 64, 64
2, 133582, Control_c, 0, 64, 0
2, 133617, Note_off_c, 0, 53, 64
2, 133642, Control_c, 0, 64, 127
2, 133679, Note_on_c, 0, 73, 52
2, 133722, Note_on_c, 0, 74, 57
2, 133746, Note_off_c, 0, 73, 64
2, 133746, Note_off_c, 0, 62, 64
2, 133775, Note_on_c, 0, 72, 57
2, 133778, Note_on_c, 0, 58, 53
2, 133779, Control_c, 0, 64, 0
2, 133787, Note_off_c, 0, 74, 64
2, 133792, Control_c, 0, 64, 127
2, 133809, Note_off_c, 0, 46, 64
2, 133824, Note_on_c, 0, 70, 60
2, 133846, Note_off_c, 0, 72, 64
2, 133875, Note_on_c, 0, 69, 59
2, 133904, Note_off_c, 0, 70, 64
2, 133911, Note_off_c, 0, 58, 64
2, 133927, Note_on_c, 0, 67, 63
2, 133928, Note_off_c, 0, 69, 64
2, 133972, Note_on_c, 0, 48, 54
2, 133976, Note_on_c, 0, 57, 53
2, 133980, Note_on_c, 0, 65, 70
2, 133983, Control_c, 0, 64, 0
2, 134030, Control_c, 0, 64, 127
2, 134052, Note_off_c, 0, 67, 64
2, 134070, Note_off_c, 0, 65, 64
2, 134141, Note_on_c, 0, 65, 47
2, 134162, Note_on_c, 0, 55, 50
2, 134164, Note_off_c, 0, 57, 64
2, 134169, Note_off_c, 0, 48, 64
2, 134181, Note_off_c, 0, 65, 64
2, 134181, Note_on_c, 0, 64, 53
2, 134194, Note_off_c, 0, 55, 64
2, 134210, Note_on_c, 0, 65, 59
2, 134224, Note_off_c, 0, 64, 64
2, 134253, Note_on_c, 0, 64, 53
2, 134262, Note_off_c, 0, 65, 64
2, 134281, Note_on_c, 0, 62, 57
2, 134298, Note_off_c, 0, 64, 64
2, 134321, Note_on_c, 0, 64, 54
2, 134351, Note_off_c, 0, 62, 64
2, 134351, Note_on_c, 0, 65, 63
2, 134355, Note_on_c, 0, 41, 53
2, 134356, Control_c, 0, 64, 0
2, 134373, Note_off_c, 0, 64, 64
2, 134399, Note_off_c, 0, 65, 64
2, 134404, Note_off_c, 0, 41, 64
2, 134405, Note_on_c, 0, 53, 71
2, 134411, Control_c, 0, 64, 127
2, 134458, Note_on_c, 0, 52, 78
2, 134465, Note_off_c, 0, 53, 64
2, 134503, Note_off_c, 0, 52, 64
2, 134510, Note_on_c, 0, 53, 67
2, 134554, Control_c, 0, 64, 0
2, 134557, Note_off_c, 0, 53, 64
2, 134558, Note_on_c, 0, 41, 90
2, 134563, Note_on_c, 0, 58, 92
2, 134565, Note_on_c, 0, 62, 81
2, 134595, Note_on_c, 0, 53, 84
2, 134601, Note_off_c, 0, 41, 64
2, 134602, Control_c, 0, 64, 127
2, 134654, Note_on_c, 0, 52, 84
2, 134668, Note_off_c, 0, 53, 64
2, 134671, Note_off_c, 0, 58, 64
2, 134700, Note_off_c, 0, 52, 64
2, 134700, Note_on_c, 0, 53, 74
2, 134713, Note_off_c, 0, 62, 64
2, 134729, Control_c, 0, 64, 0
2, 134744, Note_on_c, 0, 60, 76
2, 134748, Note_on_c, 0, 57, 74
2, 134754, Note_off_c, 0, 53, 64
2, 134754, Note_on_c, 0, 41, 90
2, 134789, Note_on_c, 0, 53, 84
2, 134796, Control_c, 0, 64, 127
2, 134800, Note_off_c, 0, 41, 64
2, 134800, Note_off_c, 0, 57, 64
2, 134806, Note_off_c, 0, 60, 64
2, 134844, Note_on_c, 0, 52, 84
2, 134874, Note_off_c, 0, 53, 64
2, 134895, Note_on_c, 0, 53, 78
2, 134897, Note_off_c, 0, 52, 64
2, 134933, Control_c, 0, 64, 0
2, 134943, Note_on_c, 0, 58, 78
2, 134945, Note_off_c, 0, 53, 64
2, 134949, Note_on_c, 0, 55, 74
2, 134949, Note_on_c, 0, 64, 77
2, 134953, Note_on_c, 0, 41, 85
2, 134986, Note_on_c, 0, 53, 84
2, 134989, Note_off_c, 0, 41, 64
2, 134989, Note_off_c, 0, 55, 64
2, 134993, Note_off_c, 0, 58, 64
2, 134994, Control_c, 0, 64, 127
2, 135009, Note_off_c, 0, 64, 64
2, 135050, Note_on_c, 0, 52, 81
2, 135082, Note_off_c, 0, 53, 64
2, 135100, Note_off_c, 0, 52, 64
2, 135100, Note_on_c, 0, 53, 81
2, 135113, Control_c, 0, 64, 0
2, 135138, Note_on_c, 0, 57, 74
2, 135144, Note_on_c, 0, 65, 75
2, 135147, Note_on_c, 0, 60, 71
2, 135152, Note_off_c, 0, 53, 64
2, 135155, Note_on_c, 0, 41, 94
2, 135169, Control_c, 0, 64, 127
2, 135176, Note_off_c, 0, 60, 64
2, 135176, Note_off_c, 0, 57, 64
2, 135191, Note_off_c, 0, 65, 64
2, 135196, Note_off_c, 0, 41, 64
2, 135198, Note_on_c, 0, 53, 86
2, 135253, Note_on_c, 0, 52, 84
2, 135265, Note_off_c, 0, 53, 64
2, 135302, Note_off_c, 0, 52, 64
2, 135305, Note_on_c, 0, 53, 84
2, 135328, Control_c, 0, 64, 0
2, 135344, Note_on_c, 0, 74, 93
2, 135349, Note_on_c, 0, 70, 95
2, 135352, Note_off_c, 0, 53, 64
2, 135352, Note_on_c, 0, 41, 86
2, 135391, Control_c, 0, 64, 127
2, 135396, Note_off_c, 0, 41, 64
2, 135397, Note_on_c, 0, 53, 88
2, 135398, Note_off_c, 0, 70, 64
2, 135403, Note_off_c, 0, 74, 64
2, 135449, Note_on_c, 0, 52, 84
2, 135472, Note_off_c, 0, 53, 64
2, 135501, Note_off_c, 0, 52, 64
2, 135501, Note_on_c, 0, 53, 86
2, 135531, Control_c, 0, 64, 0
2, 135541, Note_on_c, 0, 72, 90
2, 135545, Note_on_c, 0, 69, 92
2, 135549, Note_off_c, 0, 53, 64
2, 135554, Note_on_c, 0, 41, 88
2, 135576, Control_c, 0, 64, 127
2, 135583, Note_off_c, 0, 69, 64
2, 135585, Note_off_c, 0, 72, 64
2, 135597, Note_off_c, 0, 41, 64
2, 135598, Note_on_c, 0, 53, 88
2, 135652, Note_on_c, 0, 52, 84
2, 135672, Note_off_c, 0, 53, 64
2, 135704, Note_on_c, 0, 53, 85
2, 135705, Note_off_c, 0, 52, 64
2, 135738, Note_on_c, 0, 67, 81
2, 135739, Note_on_c, 0, 70, 92
2, 135743, Note_on_c, 0, 76, 88
2, 135771, Note_on_c, 0, 41, 84
2, 135779, Note_off_c, 0, 67, 64
2, 135781, Note_off_c, 0, 70, 64
2, 135786, Note_off_c, 0, 53, 64
2, 135795, Note_off_c, 0, 76, 64
2, 135810, Note_off_c, 0, 41, 64
2, 135817, Note_on_c, 0, 53, 74
2, 135866, Note_on_c, 0, 52, 77
2, 135886, Note_off_c, 0, 53, 64
2, 135910, Note_on_c, 0, 53, 84
2, 135917, Note_off_c, 0, 52, 64
2, 135962, Control_c, 0, 64, 0
2, 135976, Note_on_c, 0, 69, 86
2, 135980, Note_on_c, 0, 72, 87
2, 135984, Note_on_c, 0, 77, 87
2, 135984, Note_on_c, 0, 41, 92
2, 135988, Note_off_c, 0, 53, 64
2, 136009, Control_c, 0, 64, 127
2, 136014, Note_off_c, 0, 41, 64
2, 136048, Note_off_c, 0, 69, 64
2, 136060, Note_off_c, 0, 72, 64
2, 136077, Note_off_c, 0, 77, 64
2, 136560, Control_c, 0, 64, 0
2, 136665, Note_on_c, 0, 67, 74
2, 136826, Note_on_c, 0, 64, 72
2, 136860, Note_off_c, 0, 67, 64
2, 136869, Note_on_c, 0, 48, 72
2, 136871, Note_on_c, 0, 52, 71
2, 136876, Note_on_c, 0, 60, 78
2, 136891, Note_off_c, 0, 64, 64
2, 136901, Note_off_c, 0, 48, 64
2, 136906, Note_off_c, 0, 52, 64
2, 136917, Note_off_c, 0, 60, 64
2, 136924, Control_c, 0, 64, 127
2, 137053, Control_c, 0, 64, 0
2, 137088, Note_on_c, 0, 64, 76
2, 137236, Note_on_c, 0, 60, 51
2, 137260, Note_off_c, 0, 64, 64
2, 137276, Note_on_c, 0, 59, 78
2, 137284, Note_on_c, 0, 43, 71
2, 137286, Note_on_c, 0, 53, 65
2, 137293, Note_off_c, 0, 60, 64
2, 137337, Note_off_c, 0, 59, 64
2, 137344, Control_c, 0, 64, 127
2, 137352, Note_off_c, 0, 43, 64
2, 137400, Note_off_c, 0, 53, 64
2, 137439, Control_c, 0, 64, 0
2, 137477, Note_on_c, 0, 62, 77
2, 137618, Note_on_c, 0, 59, 78
2, 137640, Note_off_c, 0, 62, 64
2, 137664, Note_on_c, 0, 52, 66
2, 137665, Note_on_c, 0, 60, 76
2, 137665, Note_on_c, 0, 48, 71
2, 137681, Note_off_c, 0, 59, 64
2, 137699, Note_off_c, 0, 60, 64
2, 137705, Control_c, 0, 64, 127
2, 137858, Note_off_c, 0, 48, 64
2, 137861, Note_off_c, 0, 52, 64
2, 137871, Control_c, 0, 64, 0
2, 137876, Note_on_c, 0, 69, 74
2, 137877, Note_on_c, 0, 65, 76
2, 138064, Note_off_c, 0, 69, 64
2, 138072, Note_on_c, 0, 67, 71
2, 138079, Note_on_c, 0, 64, 67
2, 138087, Control_c, 0, 64, 127
2, 138093, Note_off_c, 0, 65, 64
2, 138112, Note_off_c, 0, 67, 64
2, 138123, Note_off_c, 0, 64, 64
2, 138282, Control_c, 0, 64, 0
2, 138289, Note_on_c, 0, 74, 75
2, 138335, Note_on_c, 0, 72, 70
2, 138351, Control_c, 0, 64, 127
2, 138360, Note_off_c, 0, 74, 64
2, 138380, Note_on_c, 0, 71, 68
2, 138418, Note_off_c, 0, 72, 64
2, 138432, Note_on_c, 0, 69, 74
2, 138450, Control_c, 0, 64, 0
2, 138456, Note_off_c, 0, 71, 64
2, 138478, Note_on_c, 0, 67, 81
2, 138493, Note_off_c, 0, 69, 64
2, 138503, Control_c, 0, 64, 127
2, 138663, Note_off_c, 0, 67, 64
2, 138670, Note_on_c, 0, 76, 72
2, 138675, Note_on_c, 0, 60, 85
2, 138679, Control_c, 0, 64, 0
2, 138709, Control_c, 0, 64, 127
2, 138721, Note_off_c, 0, 76, 64
2, 138729, Note_on_c, 0, 64, 81
2, 138791, Note_on_c, 0, 69, 80
2, 138813, Note_off_c, 0, 64, 64
2, 138857, Note_on_c, 0, 67, 76
2, 138863, Control_c, 0, 64, 0
2, 138872, Note_on_c, 0, 62, 74
2, 138875, Note_off_c, 0, 69, 64
2, 138905, Control_c, 0, 64, 127
2, 138922, Note_off_c, 0, 60, 64
2, 138942, Note_off_c, 0, 67, 64
2, 139008, Note_on_c, 0, 67, 84
2, 139054, Note_on_c, 0, 65, 75
2, 139056, Note_off_c, 0, 67, 64
2, 139068, Note_off_c, 0, 62, 64
2, 139069, Note_on_c, 0, 55, 54
2, 139075, Note_on_c, 0, 67, 78
2, 139092, Note_off_c, 0, 65, 64
2, 139116, Note_on_c, 0, 65, 77
2, 139125, Note_off_c, 0, 67, 64
2, 139143, Note_on_c, 0, 64, 76
2, 139156, Note_off_c, 0, 65, 64
2, 139182, Note_on_c, 0, 65, 84
2, 139200, Note_off_c, 0, 64, 64
2, 139215, Note_off_c, 0, 65, 64
2, 139244, Note_on_c, 0, 65, 88
2, 139247, Note_off_c, 0, 55, 64
2, 139252, Note_on_c, 0, 60, 72
2, 139258, Control_c, 0, 64, 0
2, 139312, Control_c, 0, 64, 127
2, 139433, Control_c, 0, 64, 0
2, 139442, Note_on_c, 0, 55, 67
2, 139500, Control_c, 0, 64, 127
2, 139650, Note_on_c, 0, 48, 63
2, 139658, Note_on_c, 0, 64, 72
2, 139659, Control_c, 0, 64, 0
2, 139674, Note_off_c, 0, 65, 64
2, 139684, Note_off_c, 0, 55, 64
2, 139692, Note_off_c, 0, 60, 64
2, 139710, Control_c, 0, 64, 127
2, 139763, Note_off_c, 0, 64, 64
2, 139842, Note_off_c, 0, 48, 64
2, 139848, Control_c, 0, 64, 0
2, 139855, Note_on_c, 0, 67, 71
2, 139901, Note_on_c, 0, 64, 84
2, 139908, Note_off_c, 0, 67, 64
2, 139910, Control_c, 0, 64, 127
2, 139946, Note_on_c, 0, 67, 84
2, 139955, Note_off_c, 0, 64, 64
2, 139992, Note_on_c, 0, 64, 76
2, 139999, Control_c, 0, 64, 0
2, 140006, Note_off_c, 0, 67, 64
2, 140036, Note_on_c, 0, 60, 81
2, 140039, Note_off_c, 0, 64, 64
2, 140043, Control_c, 0, 64, 127
2, 140067, Note_off_c, 0, 60, 64
2, 140202, Note_on_c, 0, 58, 69
2, 140232, Note_on_c, 0, 79, 74
2, 140247, Note_off_c, 0, 58, 64
2, 140254, Note_on_c, 0, 55, 67
2, 140290, Note_off_c, 0, 55, 64
2, 140295, Note_on_c, 0, 58, 94
2, 140348, Note_on_c, 0, 55, 65
2, 140358, Note_off_c, 0, 58, 64
2, 140393, Note_on_c, 0, 52, 79
2, 140402, Control_c, 0, 64, 0
2, 140422, Note_off_c, 0, 55, 64
2, 140432, Note_off_c, 0, 52, 64
2, 140444, Control_c, 0, 64, 127
2, 140565, Note_off_c, 0, 79, 64
2, 140591, Control_c, 0, 64, 0
2, 140597, Note_on_c, 0, 70, 76
2, 140600, Note_on_c, 0, 77, 84
2, 140634, Control_c, 0, 64, 127
2, 140649, Note_on_c, 0, 76, 71
2, 140672, Note_off_c, 0, 77, 64
2, 140682, Note_on_c, 0, 74, 77
2, 140689, Note_off_c, 0, 70, 64
2, 140711, Note_off_c, 0, 76, 64
2, 140730, Note_on_c, 0, 72, 84
2, 140747, Note_off_c, 0, 74, 64
2, 140751, Note_off_c, 0, 72, 64
2, 140764, Control_c, 0, 64, 0
2, 140786, Note_on_c, 0, 77, 90
2, 140793, Note_on_c, 0, 69, 78
2, 140808, Control_c, 0, 64, 127
2, 140962, Control_c, 0, 64, 0
2, 140974, Note_on_c, 0, 48, 86
2, 141003, Control_c, 0, 64, 127
2, 141018, Note_off_c, 0, 48, 64
2, 141024, Note_on_c, 0, 45, 84
2, 141065, Note_off_c, 0, 45, 64
2, 141072, Note_on_c, 0, 48, 94
2, 141105, Note_on_c, 0, 45, 79
2, 141120, Note_off_c, 0, 48, 64
2, 141141, Note_off_c, 0, 77, 64
2, 141142, Control_c, 0, 64, 0
2, 141162, Note_on_c, 0, 41, 96
2, 141167, Note_off_c, 0, 69, 64
2, 141172, Note_off_c, 0, 45, 64
2, 141211, Control_c, 0, 64, 127
2, 141314, Note_off_c, 0, 41, 64
2, 141349, Control_c, 0, 64, 0
2, 141367, Note_on_c, 0, 72, 84
2, 141408, Control_c, 0, 64, 127
2, 141420, Note_on_c, 0, 69, 84
2, 141423, Note_off_c, 0, 72, 64
2, 141465, Note_on_c, 0, 72, 81
2, 141480, Note_off_c, 0, 69, 64
2, 141499, Note_on_c, 0, 69, 68
2, 141499, Control_c, 0, 64, 0
2, 141519, Note_off_c, 0, 72, 64
2, 141530, Control_c, 0, 64, 127
2, 141542, Note_on_c, 0, 65, 80
2, 141551, Note_off_c, 0, 69, 64
2, 141576, Note_off_c, 0, 65, 64
2, 141729, Note_on_c, 0, 63, 67
2, 141745, Note_on_c, 0, 84, 77
2, 141775, Note_off_c, 0, 63, 64
2, 141779, Note_on_c, 0, 60, 71
2, 141820, Note_off_c, 0, 60, 64
2, 141828, Note_on_c, 0, 63, 96
2, 141870, Note_on_c, 0, 60, 63
2, 141882, Note_off_c, 0, 63, 64
2, 141915, Note_on_c, 0, 57, 78
2, 141919, Control_c, 0, 64, 0
2, 141943, Note_off_c, 0, 60, 64
2, 141953, Note_off_c, 0, 57, 64
2, 141967, Control_c, 0, 64, 127
2, 142084, Note_off_c, 0, 84, 64
2, 142107, Note_on_c, 0, 75, 78
2, 142110, Note_on_c, 0, 82, 67
2, 142154, Note_on_c, 0, 81, 67
2, 142160, Note_off_c, 0, 82, 64
2, 142193, Note_on_c, 0, 79, 79
2, 142215, Note_off_c, 0, 81, 64
2, 142246, Note_on_c, 0, 77, 70
2, 142248, Note_off_c, 0, 79, 64
2, 142289, Control_c, 0, 64, 0
2, 142292, Note_off_c, 0, 75, 64
2, 142297, Note_on_c, 0, 82, 98
2, 142302, Note_on_c, 0, 74, 72
2, 142329, Note_off_c, 0, 77, 64
2, 142345, Control_c, 0, 64, 127
2, 142351, Note_off_c, 0, 74, 64
2, 142360, Note_off_c, 0, 82, 64
2, 142425, Note_on_c, 0, 86, 71
2, 142464, Note_on_c, 0, 84, 69
2, 142479, Note_off_c, 0, 86, 64
2, 142508, Note_on_c, 0, 82, 84
2, 142534, Note_off_c, 0, 84, 64
2, 142553, Note_on_c, 0, 81, 66
2, 142570, Note_off_c, 0, 82, 64
2, 142579, Note_on_c, 0, 70, 65
2, 142585, Note_on_c, 0, 79, 84
2, 142592, Note_off_c, 0, 81, 64
2, 142622, Note_off_c, 0, 79, 64
2, 142638, Note_on_c, 0, 77, 84
2, 142656, Control_c, 0, 64, 0
2, 142663, Note_on_c, 0, 72, 71
2, 142675, Note_off_c, 0, 70, 64
2, 142690, Note_on_c, 0, 75, 94
2, 142699, Note_off_c, 0, 77, 64
2, 142709, Control_c, 0, 64, 127
2, 142743, Note_off_c, 0, 75, 64
2, 142799, Note_on_c, 0, 84, 79
2, 142845, Note_off_c, 0, 84, 64
2, 142880, Note_off_c, 0, 72, 64
2, 142883, Note_on_c, 0, 69, 86
2, 142889, Control_c, 0, 64, 0
2, 142936, Control_c, 0, 64, 127
2, 142978, Note_on_c, 0, 75, 79
2, 143038, Note_off_c, 0, 75, 64
2, 143077, Control_c, 0, 64, 0
2, 143083, Note_on_c, 0, 70, 79
2, 143084, Note_off_c, 0, 69, 64
2, 143086, Note_on_c, 0, 74, 78
2, 143121, Control_c, 0, 64, 127
2, 143147, Note_off_c, 0, 70, 64
2, 143181, Note_off_c, 0, 74, 64
2, 143189, Note_on_c, 0, 82, 60
2, 143242, Note_on_c, 0, 81, 71
2, 143244, Note_off_c, 0, 82, 64
2, 143287, Note_on_c, 0, 79, 59
2, 143295, Note_off_c, 0, 81, 64
2, 143320, Note_on_c, 0, 77, 71
2, 143335, Note_off_c, 0, 79, 64
2, 143364, Note_off_c, 0, 77, 64
2, 143364, Note_on_c, 0, 75, 92
2, 143367, Note_on_c, 0, 67, 58
2, 143394, Note_off_c, 0, 75, 64
2, 143418, Note_on_c, 0, 74, 85
2, 143440, Control_c, 0, 64, 0
2, 143447, Note_on_c, 0, 69, 67
2, 143450, Note_on_c, 0, 72, 88
2, 143455, Note_off_c, 0, 67, 64
2, 143467, Note_off_c, 0, 74, 64
2, 143494, Control_c, 0, 64, 127
2, 143569, Note_on_c, 0, 81, 79
2, 143598, Note_off_c, 0, 72, 64
2, 143622, Note_off_c, 0, 81, 64
2, 143653, Note_on_c, 0, 66, 84
2, 143664, Control_c, 0, 64, 0
2, 143681, Note_off_c, 0, 69, 64
2, 143712, Control_c, 0, 64, 127
2, 143749, Note_on_c, 0, 72, 71
2, 143817, Note_off_c, 0, 72, 64
2, 143843, Control_c, 0, 64, 0
2, 143850, Note_on_c, 0, 70, 84
2, 143855, Note_on_c, 0, 67, 74
2, 143864, Note_off_c, 0, 66, 64
2, 143886, Control_c, 0, 64, 127
2, 143916, Note_off_c, 0, 70, 64
2, 143967, Note_on_c, 0, 79, 67
2, 143975, Note_off_c, 0, 67, 64
2, 144018, Note_on_c, 0, 77, 81
2, 144023, Note_off_c, 0, 79, 64
2, 144058, Note_on_c, 0, 75, 84
2, 144083, Note_off_c, 0, 77, 64
2, 144097, Note_on_c, 0, 74, 76
2, 144119, Note_off_c, 0, 75, 64
2, 144134, Note_on_c, 0, 64, 65
2, 144143, Note_on_c, 0, 72, 86
2, 144144, Note_off_c, 0, 74, 64
2, 144174, Note_off_c, 0, 72, 64
2, 144188, Note_on_c, 0, 70, 94
2, 144214, Control_c, 0, 64, 0
2, 144220, Note_off_c, 0, 64, 64
2, 144221, Note_on_c, 0, 65, 80
2, 144224, Note_on_c, 0, 69, 88
2, 144233, Note_off_c, 0, 70, 64
2, 144270, Control_c, 0, 64, 127
2, 144279, Note_off_c, 0, 69, 64
2, 144340, Note_on_c, 0, 77, 68
2, 144406, Note_off_c, 0, 77, 64
2, 144419, Note_off_c, 0, 65, 64
2, 144430, Control_c, 0, 64, 0
2, 144436, Note_on_c, 0, 62, 84
2, 144478, Control_c, 0, 64, 127
2, 144528, Note_on_c, 0, 69, 72
2, 144596, Note_off_c, 0, 69, 64
2, 144627, Control_c, 0, 64, 0
2, 144637, Note_on_c, 0, 67, 76
2, 144638, Note_on_c, 0, 64, 81
2, 144645, Note_off_c, 0, 62, 64
2, 144671, Control_c, 0, 64, 127
2, 144688, Note_off_c, 0, 64, 64
2, 144753, Note_on_c, 0, 76, 67
2, 144789, Note_off_c, 0, 67, 64
2, 144806, Note_on_c, 0, 74, 79
2, 144810, Note_off_c, 0, 76, 64
2, 144844, Note_on_c, 0, 73, 79
2, 144872, Note_off_c, 0, 74, 64
2, 144882, Note_on_c, 0, 71, 79
2, 144909, Note_off_c, 0, 73, 64
2, 144929, Note_on_c, 0, 69, 84
2, 144931, Note_on_c, 0, 61, 64
2, 144949, Note_off_c, 0, 71, 64
2, 144967, Note_off_c, 0, 69, 64
2, 144980, Note_on_c, 0, 67, 81
2, 144998, Control_c, 0, 64, 0
2, 145007, Note_off_c, 0, 61, 64
2, 145010, Note_on_c, 0, 62, 90
2, 145023, Note_on_c, 0, 65, 88
2, 145027, Note_off_c, 0, 67, 64
2, 145052, Control_c, 0, 64, 127
2, 145133, Note_on_c, 0, 74, 72
2, 145170, Note_off_c, 0, 65, 64
2, 145185, Note_off_c, 0, 74, 64
2, 145192, Note_off_c, 0, 62, 64
2, 145211, Note_on_c, 0, 56, 81
2, 145215, Control_c, 0, 64, 0
2, 145254, Control_c, 0, 64, 127
2, 145262, Note_off_c, 0, 56, 64
2, 145306, Note_on_c, 0, 62, 69
2, 145316, Note_on_c, 0, 65, 57
2, 145353, Note_off_c, 0, 65, 64
2, 145358, Note_off_c, 0, 62, 64
2, 145407, Note_on_c, 0, 45, 76
2, 145412, Control_c, 0, 64, 0
2, 145416, Note_on_c, 0, 64, 81
2, 145421, Note_on_c, 0, 61, 84
2, 145454, Note_off_c, 0, 45, 64
2, 145454, Control_c, 0, 64, 127
2, 145460, Note_on_c, 0, 57, 86
2, 145475, Note_off_c, 0, 64, 64
2, 145480, Note_off_c, 0, 61, 64
2, 145503, Note_off_c, 0, 57, 64
2, 145512, Note_on_c, 0, 56, 94
2, 145547, Note_off_c, 0, 56, 64
2, 145560, Note_on_c, 0, 57, 84
2, 145604, Control_c, 0, 64, 0
2, 145610, Note_off_c, 0, 57, 64
2, 145618, Note_on_c, 0, 69, 76
2, 145619, Note_on_c, 0, 65, 71
2, 145619, Note_on_c, 0, 45, 88
2, 145653, Note_on_c, 0, 57, 86
2, 145655, Note_off_c, 0, 45, 64
2, 145662, Control_c, 0, 64, 127
2, 145672, Note_off_c, 0, 65, 64
2, 145706, Note_on_c, 0, 56, 97
2, 145714, Note_off_c, 0, 57, 64
2, 145745, Note_off_c, 0, 56, 64
2, 145752, Note_on_c, 0, 57, 86
2, 145776, Note_off_c, 0, 69, 64
2, 145789, Control_c, 0, 64, 0
2, 145800, Note_off_c, 0, 57, 64
2, 145805, Note_on_c, 0, 67, 76
2, 145805, Note_on_c, 0, 64, 74
2, 145808, Note_on_c, 0, 45, 92
2, 145843, Note_off_c, 0, 45, 64
2, 145845, Note_on_c, 0, 57, 90
2, 145846, Control_c, 0, 64, 127
2, 145896, Note_on_c, 0, 56, 100
2, 145900, Note_off_c, 0, 57, 64
2, 145940, Note_off_c, 0, 56, 64
2, 145944, Note_on_c, 0, 57, 88
2, 145972, Control_c, 0, 64, 0
2, 145990, Note_on_c, 0, 65, 73
2, 145994, Note_on_c, 0, 62, 71
2, 145997, Note_off_c, 0, 57, 64
2, 146002, Note_on_c, 0, 45, 94
2, 146016, Note_off_c, 0, 64, 64
2, 146019, Control_c, 0, 64, 127
2, 146025, Note_off_c, 0, 67, 64
2, 146041, Note_off_c, 0, 65, 64
2, 146042, Note_off_c, 0, 45, 64
2, 146046, Note_on_c, 0, 57, 86
2, 146093, Note_on_c, 0, 56, 100
2, 146100, Note_off_c, 0, 57, 64
2, 146134, Note_off_c, 0, 56, 64
2, 146139, Note_on_c, 0, 57, 88
2, 146184, Note_on_c, 0, 61, 78
2, 146187, Note_on_c, 0, 64, 79
2, 146187, Control_c, 0, 64, 0
2, 146206, Note_on_c, 0, 45, 94
2, 146209, Note_off_c, 0, 62, 64
2, 146220, Note_off_c, 0, 61, 64
2, 146222, Control_c, 0, 64, 127
2, 146229, Note_off_c, 0, 64, 64
2, 146253, Note_off_c, 0, 45, 64
2, 146279, Note_off_c, 0, 57, 64
2, 146395, Note_on_c, 0, 81, 77
2, 146401, Note_on_c, 0, 57, 79
2, 146402, Control_c, 0, 64, 0
2, 146407, Note_on_c, 0, 65, 81
2, 146440, Note_off_c, 0, 81, 64
2, 146445, Control_c, 0, 64, 127
2, 146450, Note_on_c, 0, 69, 81
2, 146494, Note_off_c, 0, 69, 64
2, 146495, Note_on_c, 0, 68, 84
2, 146531, Note_off_c, 0, 68, 64
2, 146548, Note_on_c, 0, 69, 84
2, 146587, Note_off_c, 0, 69, 64
2, 146595, Note_off_c, 0, 65, 64
2, 146599, Note_on_c, 0, 64, 84
2, 146600, Note_on_c, 0, 79, 88
2, 146606, Control_c, 0, 64, 0
2, 146638, Control_c, 0, 64, 127
2, 146644, Note_off_c, 0, 79, 64
2, 146644, Note_on_c, 0, 69, 84
2, 146697, Note_on_c, 0, 68, 92
2, 146704, Note_off_c, 0, 69, 64
2, 146739, Note_off_c, 0, 68, 64
2, 146750, Note_on_c, 0, 69, 79
2, 146783, Note_off_c, 0, 64, 64
2, 146792, Note_off_c, 0, 69, 64
2, 146795, Control_c, 0, 64, 0
2, 146800, Note_on_c, 0, 77, 86
2, 146804, Note_on_c, 0, 62, 74
2, 146841, Control_c, 0, 64, 127
2, 146847, Note_off_c, 0, 77, 64
2, 146851, Note_on_c, 0, 69, 85
2, 146887, Note_off_c, 0, 62, 64
2, 146902, Note_on_c, 0, 68, 86
2, 146909, Note_off_c, 0, 69, 64
2, 146947, Note_off_c, 0, 68, 64
2, 146964, Note_on_c, 0, 69, 69
2, 147024, Note_on_c, 0, 61, 67
2, 147035, Control_c, 0, 64, 0
2, 147039, Note_on_c, 0, 76, 78
2, 147077, Note_off_c, 0, 69, 64
2, 147105, Control_c, 0, 64, 127
2, 147185, Note_off_c, 0, 76, 64
2, 147219, Note_off_c, 0, 61, 64
2, 147227, Note_off_c, 0, 57, 64
2, 147680, Control_c, 0, 64, 0
2, 147688, Note_on_c, 0, 69, 69
2, 147734, Note_on_c, 0, 65, 66
2, 147743, Note_off_c, 0, 69, 64
2, 147780, Note_on_c, 0, 69, 81
2, 147790, Note_off_c, 0, 65, 64
2, 147821, Note_on_c, 0, 65, 71
2, 147847, Note_off_c, 0, 69, 64
2, 147867, Note_on_c, 0, 62, 76
2, 147874, Control_c, 0, 64, 127
2, 147880, Note_on_c, 0, 50, 67
2, 147884, Note_off_c, 0, 65, 64
2, 147939, Note_off_c, 0, 62, 64
2, 147983, Note_on_c, 0, 53, 66
2, 147989, Note_off_c, 0, 50, 64
2, 148069, Note_off_c, 0, 53, 64
2, 148073, Note_on_c, 0, 50, 75
2, 148171, Note_on_c, 0, 53, 72
2, 148174, Note_off_c, 0, 50, 64
2, 148179, Note_on_c, 0, 81, 81
2, 148187, Control_c, 0, 64, 0
2, 148234, Control_c, 0, 64, 127
2, 148239, Note_off_c, 0, 81, 64
2, 148268, Note_on_c, 0, 50, 86
2, 148272, Note_on_c, 0, 79, 78
2, 148274, Note_off_c, 0, 53, 64
2, 148318, Note_off_c, 0, 79, 64
2, 148357, Note_off_c, 0, 50, 64
2, 148365, Note_on_c, 0, 53, 68
2, 148375, Note_on_c, 0, 77, 84
2, 148426, Note_off_c, 0, 77, 64
2, 148444, Note_off_c, 0, 53, 64
2, 148462, Note_on_c, 0, 50, 74
2, 148469, Note_on_c, 0, 76, 77
2, 148528, Note_off_c, 0, 76, 64
2, 148558, Note_off_c, 0, 50, 64
2, 148564, Note_on_c, 0, 74, 80
2, 148566, Note_on_c, 0, 53, 79
2, 148611, Note_off_c, 0, 74, 64
2, 148618, Note_off_c, 0, 53, 64
2, 148629, Control_c, 0, 64, 0
2, 148663, Note_on_c, 0, 52, 81
2, 148665, Note_on_c, 0, 74, 88
2, 148672, Control_c, 0, 64, 127
2, 148751, Note_on_c, 0, 55, 78
2, 148761, Note_off_c, 0, 52, 64
2, 148840, Note_off_c, 0, 55, 64
2, 148847, Note_on_c, 0, 52, 77
2, 148852, Note_off_c, 0, 74, 64
2, 148950, Note_on_c, 0, 76, 73
2, 148958, Note_off_c, 0, 52, 64
2, 148962, Note_on_c, 0, 55, 48
2, 148991, Note_on_c, 0, 74, 72
2, 149010, Control_c, 0, 64, 0
2, 149015, Note_off_c, 0, 76, 64
2, 149028, Note_on_c, 0, 73, 88
2, 149042, Note_off_c, 0, 55, 64
2, 149047, Note_on_c, 0, 52, 81
2, 149051, Note_off_c, 0, 74, 64
2, 149055, Control_c, 0, 64, 127
2, 149078, Note_off_c, 0, 73, 64
2, 149134, Note_on_c, 0, 55, 81
2, 149141, Note_off_c, 0, 52, 64
2, 149230, Note_on_c, 0, 70, 75
2, 149233, Note_on_c, 0, 52, 85
2, 149238, Note_off_c, 0, 55, 64
2, 149281, Note_on_c, 0, 67, 71
2, 149286, Note_off_c, 0, 70, 64
2, 149316, Note_off_c, 0, 52, 64
2, 149325, Note_on_c, 0, 55, 71
2, 149329, Note_on_c, 0, 70, 106
2, 149337, Note_off_c, 0, 67, 64
2, 149374, Note_on_c, 0, 67, 88
2, 149384, Note_off_c, 0, 70, 64
2, 149401, Control_c, 0, 64, 0
2, 149405, Note_off_c, 0, 55, 64
2, 149426, Note_on_c, 0, 61, 106
2, 149430, Note_off_c, 0, 67, 64
2, 149433, Note_on_c, 0, 52, 86
2, 149446, Control_c, 0, 64, 127
2, 149465, Note_off_c, 0, 61, 64
2, 149516, Note_on_c, 0, 55, 84
2, 149520, Note_off_c, 0, 52, 64
2, 149608, Note_off_c, 0, 55, 64
2, 149608, Note_on_c, 0, 52, 79
2, 149698, Control_c, 0, 64, 0
2, 149711, Note_off_c, 0, 52, 64
2, 149712, Note_on_c, 0, 55, 79
2, 149717, Note_on_c, 0, 82, 84
2, 149740, Control_c, 0, 64, 127
2, 149767, Note_off_c, 0, 82, 64
2, 149804, Note_off_c, 0, 55, 64
2, 149807, Note_on_c, 0, 52, 88
2, 149813, Note_on_c, 0, 81, 84
2, 149856, Note_off_c, 0, 81, 64
2, 149890, Note_off_c, 0, 52, 64
2, 149899, Note_on_c, 0, 55, 80
2, 149905, Note_on_c, 0, 79, 84
2, 149949, Note_off_c, 0, 79, 64
2, 149987, Note_off_c, 0, 55, 64
2, 149994, Note_on_c, 0, 52, 68
2, 150000, Note_on_c, 0, 77, 86
2, 150048, Note_off_c, 0, 77, 64
2, 150084, Note_on_c, 0, 76, 86
2, 150088, Note_off_c, 0, 52, 64
2, 150094, Note_on_c, 0, 55, 79
2, 150130, Note_off_c, 0, 76, 64
2, 150153, Note_off_c, 0, 55, 64
2, 150162, Control_c, 0, 64, 0
2, 150195, Note_on_c, 0, 53, 85
2, 150195, Note_on_c, 0, 76, 86
2, 150224, Control_c, 0, 64, 127
2, 150283, Note_on_c, 0, 57, 80
2, 150288, Note_off_c, 0, 53, 64
2, 150372, Note_off_c, 0, 57, 64
2, 150384, Note_on_c, 0, 53, 80
2, 150452, Note_off_c, 0, 76, 64
2, 150481, Note_on_c, 0, 77, 66
2, 150490, Note_off_c, 0, 53, 64
2, 150493, Note_on_c, 0, 57, 65
2, 150516, Note_on_c, 0, 76, 71
2, 150535, Control_c, 0, 64, 0
2, 150540, Note_off_c, 0, 77, 64
2, 150560, Note_on_c, 0, 74, 84
2, 150563, Note_off_c, 0, 57, 64
2, 150570, Note_off_c, 0, 76, 64
2, 150575, Note_on_c, 0, 53, 86
2, 150581, Control_c, 0, 64, 127
2, 150614, Note_off_c, 0, 74, 64
2, 150660, Note_on_c, 0, 57, 78
2, 150666, Note_off_c, 0, 53, 64
2, 150752, Note_on_c, 0, 74, 71
2, 150761, Note_off_c, 0, 57, 64
2, 150765, Note_on_c, 0, 53, 77
2, 150811, Note_on_c, 0, 69, 65
2, 150822, Note_off_c, 0, 74, 64
2, 150833, Note_off_c, 0, 53, 64
2, 150864, Note_on_c, 0, 74, 100
2, 150870, Note_on_c, 0, 57, 31
2, 150871, Note_off_c, 0, 69, 64
2, 150905, Note_on_c, 0, 69, 78
2, 150918, Note_off_c, 0, 74, 64
2, 150918, Control_c, 0, 64, 0
2, 150931, Note_off_c, 0, 57, 64
2, 150947, Note_on_c, 0, 62, 85
2, 150956, Note_on_c, 0, 53, 86
2, 150962, Note_off_c, 0, 69, 64
2, 150965, Control_c, 0, 64, 127
2, 150991, Note_off_c, 0, 62, 64
2, 151051, Note_on_c, 0, 57, 86
2, 151058, Note_off_c, 0, 53, 64
2, 151131, Note_off_c, 0, 57, 64
2, 151144, Note_on_c, 0, 53, 86
2, 151226, Note_off_c, 0, 53, 64
2, 151245, Note_on_c, 0, 57, 79
2, 151245, Note_on_c, 0, 75, 90
2, 151309, Note_off_c, 0, 75, 64
2, 151311, Control_c, 0, 64, 0
2, 151324, Note_off_c, 0, 57, 64
2, 151340, Note_on_c, 0, 74, 79
2, 151346, Note_on_c, 0, 54, 86
2, 151364, Control_c, 0, 64, 127
2, 151393, Note_off_c, 0, 74, 64
2, 151418, Note_off_c, 0, 54, 64
2, 151435, Note_on_c, 0, 72, 77
2, 151439, Note_on_c, 0, 62, 84
2, 151494, Note_off_c, 0, 72, 64
2, 151506, Note_off_c, 0, 62, 64
2, 151530, Note_on_c, 0, 70, 90
2, 151530, Note_on_c, 0, 54, 90
2, 151584, Note_off_c, 0, 70, 64
2, 151596, Note_off_c, 0, 54, 64
2, 151625, Note_on_c, 0, 62, 80
2, 151625, Note_on_c, 0, 69, 77
2, 151688, Note_off_c, 0, 69, 64
2, 151691, Control_c, 0, 64, 0
2, 151700, Note_off_c, 0, 62, 64
2, 151718, Note_on_c, 0, 72, 86
2, 151726, Note_on_c, 0, 55, 90
2, 151742, Control_c, 0, 64, 127
2, 151803, Note_off_c, 0, 55, 64
2, 151816, Note_on_c, 0, 62, 84
2, 151902, Note_off_c, 0, 62, 64
2, 151915, Note_on_c, 0, 70, 76
2, 151915, Note_on_c, 0, 55, 86
2, 151932, Note_off_c, 0, 72, 64
2, 151977, Note_off_c, 0, 70, 64
2, 151998, Note_off_c, 0, 55, 64
2, 152018, Note_on_c, 0, 77, 74
2, 152019, Note_on_c, 0, 62, 77
2, 152065, Control_c, 0, 64, 0
2, 152074, Note_off_c, 0, 77, 64
2, 152081, Note_off_c, 0, 62, 64
2, 152107, Note_on_c, 0, 56, 98
2, 152111, Note_on_c, 0, 76, 84
2, 152119, Control_c, 0, 64, 127
2, 152163, Note_off_c, 0, 76, 64
2, 152183, Note_off_c, 0, 56, 64
2, 152200, Note_on_c, 0, 64, 80
2, 152204, Note_on_c, 0, 74, 84
2, 152254, Note_off_c, 0, 74, 64
2, 152278, Note_off_c, 0, 64, 64
2, 152293, Note_on_c, 0, 73, 84
2, 152299, Note_on_c, 0, 56, 92
2, 152355, Note_off_c, 0, 73, 64
2, 152365, Note_off_c, 0, 56, 64
2, 152385, Note_on_c, 0, 64, 79
2, 152389, Note_on_c, 0, 71, 80
2, 152460, Note_off_c, 0, 64, 64
2, 152462, Note_off_c, 0, 71, 64
2, 152462, Control_c, 0, 64, 0
2, 152488, Note_on_c, 0, 74, 90
2, 152492, Note_on_c, 0, 57, 92
2, 152508, Control_c, 0, 64, 127
2, 152564, Note_off_c, 0, 57, 64
2, 152573, Note_on_c, 0, 64, 77
2, 152648, Note_off_c, 0, 74, 64
2, 152658, Note_off_c, 0, 64, 64
2, 152674, Note_on_c, 0, 57, 81
2, 152678, Note_on_c, 0, 73, 88
2, 152724, Note_off_c, 0, 73, 64
2, 152748, Note_off_c, 0, 57, 64
2, 152771, Note_on_c, 0, 64, 49
2, 152777, Note_on_c, 0, 82, 88
2, 152812, Note_off_c, 0, 82, 64
2, 152853, Note_off_c, 0, 64, 64
2, 152859, Control_c, 0, 64, 0
2, 152870, Note_on_c, 0, 61, 90
2, 152875, Note_on_c, 0, 81, 72
2, 152892, Control_c, 0, 64, 127
2, 152935, Note_off_c, 0, 81, 64
2, 152948, Note_off_c, 0, 61, 64
2, 152964, Note_on_c, 0, 69, 72
2, 152967, Note_on_c, 0, 79, 84
2, 153018, Note_off_c, 0, 69, 64
2, 153034, Note_off_c, 0, 79, 64
2, 153051, Note_on_c, 0, 61, 45
2, 153065, Note_on_c, 0, 77, 91
2, 153124, Note_off_c, 0, 77, 64
2, 153140, Note_on_c, 0, 69, 60
2, 153142, Note_off_c, 0, 61, 64
2, 153154, Note_on_c, 0, 76, 106
2, 153170, Note_off_c, 0, 69, 64
2, 153206, Note_off_c, 0, 76, 64
2, 153253, Note_on_c, 0, 77, 81
2, 153273, Control_c, 0, 64, 0
2, 153309, Note_on_c, 0, 74, 69
2, 153328, Note_off_c, 0, 77, 64
2, 153332, Control_c, 0, 64, 127
2, 153354, Note_on_c, 0, 69, 48
2, 153370, Note_off_c, 0, 74, 64
2, 153403, Note_on_c, 0, 65, 65
2, 153428, Note_off_c, 0, 69, 64
2, 153440, Control_c, 0, 64, 0
2, 153460, Note_on_c, 0, 62, 85
2, 153481, Note_off_c, 0, 65, 64
2, 153490, Control_c, 0, 64, 127
2, 153503, Note_off_c, 0, 62, 64
2, 153510, Note_on_c, 0, 77, 66
2, 153555, Note_on_c, 0, 74, 71
2, 153570, Note_off_c, 0, 77, 64
2, 153596, Note_on_c, 0, 69, 75
2, 153608, Note_off_c, 0, 74, 64
2, 153638, Control_c, 0, 64, 0
2, 153642, Note_on_c, 0, 79, 96
2, 153675, Note_off_c, 0, 69, 64
2, 153679, Control_c, 0, 64, 127
2, 153697, Note_on_c, 0, 76, 63
2, 153722, Note_off_c, 0, 79, 64
2, 153731, Note_on_c, 0, 73, 76
2, 153769, Note_off_c, 0, 76, 64
2, 153789, Note_on_c, 0, 67, 84
2, 153800, Note_off_c, 0, 73, 64
2, 153827, Note_on_c, 0, 64, 68
2, 153828, Control_c, 0, 64, 0
2, 153843, Note_off_c, 0, 67, 64
2, 153859, Control_c, 0, 64, 127
2, 153876, Note_on_c, 0, 79, 71
2, 153891, Note_off_c, 0, 64, 64
2, 153925, Note_on_c, 0, 76, 66
2, 153940, Note_off_c, 0, 79, 64
2, 153959, Note_on_c, 0, 73, 81
2, 153981, Note_off_c, 0, 76, 64
2, 154019, Note_off_c, 0, 73, 64
2, 154020, Note_on_c, 0, 81, 106
2, 154026, Control_c, 0, 64, 0
2, 154063, Note_on_c, 0, 77, 66
2, 154076, Control_c, 0, 64, 127
2, 154103, Note_off_c, 0, 81, 64
2, 154115, Note_on_c, 0, 74, 80
2, 154139, Note_off_c, 0, 77, 64
2, 154149, Note_on_c, 0, 69, 34
2, 154193, Note_on_c, 0, 65, 70
2, 154202, Control_c, 0, 64, 0
2, 154224, Note_off_c, 0, 69, 64
2, 154225, Control_c, 0, 64, 127
2, 154244, Note_off_c, 0, 65, 64
2, 154249, Note_on_c, 0, 81, 81
2, 154267, Note_off_c, 0, 74, 64
2, 154290, Note_on_c, 0, 77, 84
2, 154311, Note_off_c, 0, 81, 64
2, 154332, Note_on_c, 0, 74, 92
2, 154334, Note_off_c, 0, 77, 64
2, 154399, Note_on_c, 0, 82, 102
2, 154400, Control_c, 0, 64, 0
2, 154416, Note_off_c, 0, 74, 64
2, 154440, Note_on_c, 0, 79, 76
2, 154452, Control_c, 0, 64, 127
2, 154470, Note_off_c, 0, 82, 64
2, 154484, Note_on_c, 0, 74, 66
2, 154501, Note_off_c, 0, 79, 64
2, 154532, Note_on_c, 0, 70, 88
2, 154579, Note_on_c, 0, 67, 72
2, 154592, Note_off_c, 0, 70, 64
2, 154599, Note_off_c, 0, 74, 64
2, 154629, Note_on_c, 0, 82, 69
2, 154632, Note_off_c, 0, 67, 64
2, 154666, Note_on_c, 0, 79, 67
2, 154691, Note_off_c, 0, 82, 64
2, 154713, Note_off_c, 0, 79, 64
2, 154713, Note_on_c, 0, 74, 77
2, 154769, Note_on_c, 0, 81, 97
2, 154769, Control_c, 0, 64, 0
2, 154792, Note_off_c, 0, 74, 64
2, 154812, Note_on_c, 0, 77, 74
2, 154830, Control_c, 0, 64, 127
2, 154836, Note_off_c, 0, 81, 64
2, 154856, Note_on_c, 0, 74, 74
2, 154875, Note_off_c, 0, 77, 64
2, 154900, Note_on_c, 0, 69, 45
2, 154956, Note_on_c, 0, 65, 69
2, 154956, Control_c, 0, 64, 0
2, 154986, Note_off_c, 0, 69, 64
2, 154999, Note_off_c, 0, 74, 64
2, 155002, Note_off_c, 0, 65, 64
2, 155008, Control_c, 0, 64, 127
2, 155023, Note_on_c, 0, 81, 77
2, 155061, Note_on_c, 0, 77, 82
2, 155084, Note_off_c, 0, 81, 64
2, 155105, Note_on_c, 0, 74, 100
2, 155121, Note_off_c, 0, 77, 64
2, 155152, Control_c, 0, 64, 0
2, 155158, Note_on_c, 0, 83, 106
2, 155183, Note_off_c, 0, 74, 64
2, 155203, Note_on_c, 0, 77, 76
2, 155207, Control_c, 0, 64, 127
2, 155238, Note_off_c, 0, 83, 64
2, 155251, Note_on_c, 0, 74, 88
2, 155270, Note_off_c, 0, 77, 64
2, 155305, Note_on_c, 0, 71, 56
2, 155332, Note_on_c, 0, 68, 80
2, 155341, Control_c, 0, 64, 0
2, 155351, Note_off_c, 0, 71, 64
2, 155354, Note_off_c, 0, 74, 64
2, 155374, Control_c, 0, 64, 127
2, 155384, Note_on_c, 0, 83, 70
2, 155385, Note_off_c, 0, 68, 64
2, 155430, Note_on_c, 0, 77, 57
2, 155437, Note_off_c, 0, 83, 64
2, 155475, Note_off_c, 0, 77, 64
2, 155485, Note_on_c, 0, 74, 85
2, 155529, Control_c, 0, 64, 0
2, 155544, Note_on_c, 0, 85, 106
2, 155567, Note_off_c, 0, 74, 64
2, 155588, Note_on_c, 0, 81, 86
2, 155592, Control_c, 0, 64, 127
2, 155602, Note_off_c, 0, 85, 64
2, 155625, Note_on_c, 0, 76, 73
2, 155653, Note_off_c, 0, 81, 64
2, 155668, Note_on_c, 0, 73, 55
2, 155699, Note_off_c, 0, 76, 64
2, 155717, Note_on_c, 0, 69, 46
2, 155720, Control_c, 0, 64, 0
2, 155736, Note_off_c, 0, 73, 64
2, 155769, Note_off_c, 0, 69, 64
2, 155769, Control_c, 0, 64, 127
2, 155778, Note_on_c, 0, 85, 98
2, 155823, Note_on_c, 0, 81, 100
2, 155849, Note_off_c, 0, 85, 64
2, 155873, Note_on_c, 0, 76, 106
2, 155878, Note_off_c, 0, 81, 64
2, 155916, Control_c, 0, 64, 0
2, 155923, Note_on_c, 0, 86, 106
2, 155932, Note_off_c, 0, 76, 64
2, 155967, Control_c, 0, 64, 127
2, 155971, Note_on_c, 0, 80, 106
2, 156006, Note_off_c, 0, 86, 64
2, 156022, Note_on_c, 0, 77, 92
2, 156035, Note_off_c, 0, 80, 64
2, 156061, Note_on_c, 0, 74, 88
2, 156095, Control_c, 0, 64, 0
2, 156098, Note_off_c, 0, 77, 64
2, 156102, Note_on_c, 0, 71, 88
2, 156125, Note_off_c, 0, 74, 64
2, 156145, Control_c, 0, 64, 127
2, 156152, Note_on_c, 0, 86, 87
2, 156156, Note_off_c, 0, 71, 64
2, 156192, Note_on_c, 0, 80, 78
2, 156227, Note_off_c, 0, 86, 64
2, 156232, Note_on_c, 0, 77, 79
2, 156253, Note_off_c, 0, 80, 64
2, 156284, Note_on_c, 0, 85, 106
2, 156290, Note_off_c, 0, 77, 64
2, 156291, Control_c, 0, 64, 0
2, 156334, Control_c, 0, 64, 127
2, 156339, Note_on_c, 0, 81, 81
2, 156349, Note_off_c, 0, 85, 64
2, 156395, Note_on_c, 0, 76, 75
2, 156414, Note_off_c, 0, 81, 64
2, 156436, Note_on_c, 0, 73, 86
2, 156477, Control_c, 0, 64, 0
2, 156489, Note_on_c, 0, 69, 63
2, 156507, Note_off_c, 0, 73, 64
2, 156521, Control_c, 0, 64, 127
2, 156527, Note_off_c, 0, 69, 64
2, 156534, Note_on_c, 0, 88, 102
2, 156579, Note_on_c, 0, 85, 106
2, 156603, Note_off_c, 0, 76, 64
2, 156610, Note_off_c, 0, 88, 64
2, 156624, Note_on_c, 0, 81, 92
2, 156640, Note_off_c, 0, 85, 64
2, 156667, Control_c, 0, 64, 0
2, 156672, Note_off_c, 0, 81, 64
2, 156678, Note_on_c, 0, 85, 106
2, 156710, Control_c, 0, 64, 127
2, 156723, Note_on_c, 0, 81, 100
2, 156739, Note_off_c, 0, 85, 64
2, 156770, Note_on_c, 0, 76, 70
2, 156792, Note_off_c, 0, 81, 64
2, 156814, Note_on_c, 0, 73, 106
2, 156869, Control_c, 0, 64, 0
2, 156870, Note_off_c, 0, 73, 64
2, 156881, Note_on_c, 0, 69, 63
2, 156898, Note_off_c, 0, 76, 64
2, 156906, Note_on_c, 0, 85, 70
2, 156919, Note_off_c, 0, 69, 64
2, 156950, Note_on_c, 0, 81, 63
2, 156965, Note_off_c, 0, 85, 64
2, 156988, Note_off_c, 0, 81, 64
2, 156996, Note_on_c, 0, 76, 92
2, 157043, Control_c, 0, 64, 0
2, 157056, Note_on_c, 0, 82, 97
2, 157070, Note_off_c, 0, 76, 64
2, 157097, Note_on_c, 0, 79, 56
2, 157104, Control_c, 0, 64, 127
2, 157110, Note_off_c, 0, 82, 64
2, 157147, Note_off_c, 0, 79, 64
2, 157150, Note_on_c, 0, 76, 78
2, 157191, Note_off_c, 0, 76, 64
2, 157196, Note_on_c, 0, 73, 74
2, 157233, Note_off_c, 0, 73, 64
2, 157241, Control_c, 0, 64, 0
2, 157254, Note_on_c, 0, 81, 77
2, 157284, Note_on_c, 0, 78, 84
2, 157296, Control_c, 0, 64, 127
2, 157314, Note_off_c, 0, 81, 64
2, 157335, Note_on_c, 0, 75, 90
2, 157340, Note_off_c, 0, 78, 64
2, 157380, Note_off_c, 0, 75, 64
2, 157392, Note_on_c, 0, 72, 79
2, 157433, Control_c, 0, 64, 0
2, 157436, Note_off_c, 0, 72, 64
2, 157442, Note_on_c, 0, 80, 96
2, 157480, Note_on_c, 0, 77, 65
2, 157493, Control_c, 0, 64, 127
2, 157509, Note_off_c, 0, 80, 64
2, 157533, Note_on_c, 0, 74, 71
2, 157547, Note_off_c, 0, 77, 64
2, 157580, Note_on_c, 0, 71, 78
2, 157587, Note_off_c, 0, 74, 64
2, 157602, Control_c, 0, 64, 0
2, 157614, Note_off_c, 0, 71, 64
2, 157633, Note_on_c, 0, 79, 73
2, 157634, Control_c, 0, 64, 127
2, 157673, Note_on_c, 0, 76, 57
2, 157709, Note_off_c, 0, 79, 64
2, 157721, Note_on_c, 0, 73, 85
2, 157729, Note_off_c, 0, 76, 64
2, 157757, Note_on_c, 0, 70, 73
2, 157761, Note_off_c, 0, 73, 64
2, 157789, Note_off_c, 0, 70, 64
2, 157819, Note_on_c, 0, 77, 81
2, 157820, Control_c, 0, 64, 0
2, 157857, Note_on_c, 0, 74, 72
2, 157870, Control_c, 0, 64, 127
2, 157897, Note_off_c, 0, 77, 64
2, 157902, Note_on_c, 0, 71, 72
2, 157926, Note_off_c, 0, 74, 64
2, 157948, Note_on_c, 0, 68, 67
2, 157972, Note_off_c, 0, 71, 64
2, 158002, Note_on_c, 0, 56, 94
2, 158008, Control_c, 0, 64, 0
2, 158011, Note_off_c, 0, 68, 64
2, 158041, Note_off_c, 0, 56, 64
2, 158047, Control_c, 0, 64, 127
2, 158067, Note_on_c, 0, 71, 84
2, 158112, Note_on_c, 0, 74, 69
2, 158152, Note_off_c, 0, 71, 64
2, 158152, Note_on_c, 0, 77, 74
2, 158178, Note_off_c, 0, 74, 64
2, 158202, Note_on_c, 0, 62, 77
2, 158206, Note_off_c, 0, 77, 64
2, 158208, Note_on_c, 0, 57, 72
2, 158216, Control_c, 0, 64, 0
2, 158253, Note_off_c, 0, 62, 64
2, 158257, Note_on_c, 0, 69, 79
2, 158257, Control_c, 0, 64, 127
2, 158262, Note_off_c, 0, 57, 64
2, 158296, Note_on_c, 0, 74, 58
2, 158344, Note_on_c, 0, 77, 70
2, 158357, Note_off_c, 0, 69, 64
2, 158364, Note_off_c, 0, 74, 64
2, 158387, Note_off_c, 0, 77, 64
2, 158387, Note_on_c, 0, 61, 84
2, 158393, Note_on_c, 0, 57, 66
2, 158397, Control_c, 0, 64, 0
2, 158417, Note_off_c, 0, 57, 64
2, 158424, Note_off_c, 0, 61, 64
2, 158439, Control_c, 0, 64, 127
2, 158452, Note_on_c, 0, 67, 76
2, 158493, Note_on_c, 0, 73, 74
2, 158531, Note_on_c, 0, 76, 67
2, 158539, Note_off_c, 0, 67, 64
2, 158560, Note_off_c, 0, 73, 64
2, 158569, Note_off_c, 0, 76, 64
2, 158594, Control_c, 0, 64, 0
2, 158600, Note_on_c, 0, 73, 100
2, 158645, Control_c, 0, 64, 127
2, 158650, Note_off_c, 0, 73, 64
2, 158652, Note_on_c, 0, 76, 71
2, 158690, Note_on_c, 0, 79, 63
2, 158733, Note_off_c, 0, 76, 64
2, 158735, Note_on_c, 0, 82, 72
2, 158763, Note_off_c, 0, 79, 64
2, 158782, Control_c, 0, 64, 0
2, 158789, Note_off_c, 0, 82, 64
2, 158794, Note_on_c, 0, 72, 84
2, 158833, Control_c, 0, 64, 127
2, 158841, Note_off_c, 0, 72, 64
2, 158849, Note_on_c, 0, 75, 88
2, 158883, Note_on_c, 0, 78, 76
2, 158918, Note_off_c, 0, 75, 64
2, 158939, Note_on_c, 0, 81, 63
2, 158947, Note_off_c, 0, 78, 64
2, 158975, Note_off_c, 0, 81, 64
2, 158984, Control_c, 0, 64, 0
2, 158988, Note_on_c, 0, 71, 86
2, 159029, Note_on_c, 0, 74, 79
2, 159032, Note_off_c, 0, 71, 64
2, 159045, Control_c, 0, 64, 127
2, 159064, Note_on_c, 0, 77, 52
2, 159111, Note_on_c, 0, 80, 80
2, 159120, Note_off_c, 0, 74, 64
2, 159124, Note_off_c, 0, 77, 64
2, 159161, Note_on_c, 0, 70, 86
2, 159162, Control_c, 0, 64, 0
2, 159169, Note_off_c, 0, 80, 64
2, 159187, Control_c, 0, 64, 127
2, 159205, Note_off_c, 0, 70, 64
2, 159213, Note_on_c, 0, 73, 85
2, 159257, Note_on_c, 0, 76, 72
2, 159281, Note_off_c, 0, 73, 64
2, 159309, Note_on_c, 0, 79, 50
2, 159324, Note_off_c, 0, 76, 64
2, 159345, Note_off_c, 0, 79, 64
2, 159355, Note_on_c, 0, 68, 85
2, 159362, Control_c, 0, 64, 0
2, 159408, Note_off_c, 0, 68, 64
2, 159411, Note_on_c, 0, 71, 79
2, 159423, Control_c, 0, 64, 127
2, 159446, Note_on_c, 0, 74, 65
2, 159492, Note_off_c, 0, 71, 64
2, 159492, Note_on_c, 0, 77, 69
2, 159518, Note_off_c, 0, 74, 64
2, 159544, Note_on_c, 0, 56, 81
2, 159551, Control_c, 0, 64, 0
2, 159554, Note_off_c, 0, 77, 64
2, 159570, Note_on_c, 0, 71, 74
2, 159583, Control_c, 0, 64, 127
2, 159600, Note_off_c, 0, 56, 64
2, 159626, Note_on_c, 0, 74, 67
2, 159644, Note_off_c, 0, 71, 64
2, 159667, Note_on_c, 0, 77, 67
2, 159694, Note_off_c, 0, 74, 64
2, 159711, Note_off_c, 0, 77, 64
2, 159724, Note_on_c, 0, 57, 67
2, 159724, Note_on_c, 0, 62, 75
2, 159741, Control_c, 0, 64, 0
2, 159775, Note_on_c, 0, 69, 80
2, 159790, Control_c, 0, 64, 127
2, 159816, Note_on_c, 0, 74, 68
2, 159829, Note_off_c, 0, 57, 64
2, 159838, Note_off_c, 0, 62, 64
2, 159867, Note_on_c, 0, 77, 74
2, 159869, Note_off_c, 0, 69, 64
2, 159884, Note_off_c, 0, 74, 64
2, 159922, Note_on_c, 0, 61, 86
2, 159924, Note_off_c, 0, 77, 64
2, 159925, Note_on_c, 0, 57, 76
2, 159932, Control_c, 0, 64, 0
2, 159970, Note_off_c, 0, 57, 64
2, 159970, Note_off_c, 0, 61, 64
2, 159974, Control_c, 0, 64, 127
2, 159978, Note_on_c, 0, 67, 79
2, 160015, Note_on_c, 0, 73, 84
2, 160042, Note_on_c, 0, 76, 66
2, 160065, Note_off_c, 0, 73, 64
2, 160073, Note_off_c, 0, 67, 64
2, 160110, Note_off_c, 0, 76, 64
2, 160111, Note_on_c, 0, 50, 80
2, 160111, Note_on_c, 0, 74, 97
2, 160125, Control_c, 0, 64, 0
2, 160160, Note_on_c, 0, 62, 88
2, 160163, Note_off_c, 0, 50, 64
2, 160174, Control_c, 0, 64, 127
2, 160210, Note_off_c, 0, 62, 64
2, 160219, Note_on_c, 0, 61, 92
2, 160254, Note_off_c, 0, 61, 64
2, 160256, Note_on_c, 0, 62, 79
2, 160301, Note_off_c, 0, 62, 64
2, 160302, Note_off_c, 0, 74, 64
2, 160308, Note_on_c, 0, 50, 94
2, 160347, Note_on_c, 0, 62, 88
2, 160349, Note_off_c, 0, 50, 64
2, 160399, Note_on_c, 0, 61, 100
2, 160401, Note_off_c, 0, 62, 64
2, 160437, Note_off_c, 0, 61, 64
2, 160440, Note_on_c, 0, 62, 88
2, 160491, Control_c, 0, 64, 0
2, 160496, Note_on_c, 0, 66, 100
2, 160500, Note_on_c, 0, 72, 100
2, 160500, Note_on_c, 0, 75, 96
2, 160505, Note_off_c, 0, 62, 64
2, 160507, Note_on_c, 0, 50, 94
2, 160540, Control_c, 0, 64, 127
2, 160544, Note_on_c, 0, 62, 88
2, 160545, Note_off_c, 0, 50, 64
2, 160597, Note_on_c, 0, 61, 98
2, 160602, Note_off_c, 0, 62, 64
2, 160631, Note_off_c, 0, 72, 64
2, 160639, Note_off_c, 0, 61, 64
2, 160644, Note_on_c, 0, 62, 86
2, 160669, Control_c, 0, 64, 0
2, 160699, Note_on_c, 0, 50, 92
2, 160701, Note_off_c, 0, 62, 64
2, 160710, Control_c, 0, 64, 127
2, 160737, Note_off_c, 0, 66, 64
2, 160740, Note_on_c, 0, 62, 88
2, 160742, Note_off_c, 0, 50, 64
2, 160791, Note_on_c, 0, 61, 98
2, 160797, Note_off_c, 0, 62, 64
2, 160835, Note_off_c, 0, 61, 64
2, 160836, Note_on_c, 0, 62, 88
2, 160851, Note_off_c, 0, 75, 64
2, 160867, Control_c, 0, 64, 0
2, 160877, Note_on_c, 0, 67, 93
2, 160883, Note_on_c, 0, 70, 92
2, 160883, Note_on_c, 0, 74, 93
2, 160890, Note_on_c, 0, 50, 97
2, 160897, Note_off_c, 0, 62, 64
2, 160906, Note_off_c, 0, 67, 64
2, 160906, Control_c, 0, 64, 127
2, 160912, Note_off_c, 0, 70, 64
2, 160919, Note_off_c, 0, 74, 64
2, 160933, Note_off_c, 0, 50, 64
2, 160934, Note_on_c, 0, 62, 84
2, 160984, Note_on_c, 0, 61, 97
2, 160996, Note_off_c, 0, 62, 64
2, 161021, Note_off_c, 0, 61, 64
2, 161034, Note_on_c, 0, 62, 85
2, 161065, Note_on_c, 0, 79, 96
2, 161066, Control_c, 0, 64, 0
2, 161071, Note_on_c, 0, 82, 100
2, 161085, Note_off_c, 0, 62, 64
2, 161086, Note_on_c, 0, 50, 94
2, 161100, Note_off_c, 0, 82, 64
2, 161101, Note_off_c, 0, 79, 64
2, 161113, Control_c, 0, 64, 127
2, 161124, Note_on_c, 0, 62, 86
2, 161131, Note_off_c, 0, 50, 64
2, 161176, Note_on_c, 0, 61, 98
2, 161187, Note_off_c, 0, 62, 64
2, 161222, Note_off_c, 0, 61, 64
2, 161224, Note_on_c, 0, 62, 88
2, 161261, Note_on_c, 0, 69, 100
2, 161264, Note_on_c, 0, 66, 100
2, 161265, Control_c, 0, 64, 0
2, 161271, Note_on_c, 0, 72, 96
2, 161276, Note_off_c, 0, 62, 64
2, 161279, Note_on_c, 0, 50, 96
2, 161320, Note_off_c, 0, 50, 64
2, 161320, Control_c, 0, 64, 127
2, 161327, Note_on_c, 0, 62, 88
2, 161374, Note_on_c, 0, 61, 97
2, 161380, Note_off_c, 0, 62, 64
2, 161410, Note_off_c, 0, 61, 64
2, 161419, Note_on_c, 0, 62, 86
2, 161464, Note_on_c, 0, 50, 86
2, 161465, Note_off_c, 0, 62, 64
2, 161502, Note_off_c, 0, 50, 64
2, 161508, Note_on_c, 0, 62, 88
2, 161549, Note_on_c, 0, 61, 98
2, 161561, Note_off_c, 0, 62, 64
2, 161581, Note_off_c, 0, 69, 64
2, 161584, Note_off_c, 0, 66, 64
2, 161593, Note_off_c, 0, 61, 64
2, 161595, Note_on_c, 0, 62, 79
2, 161616, Note_off_c, 0, 72, 64
2, 161648, Note_on_c, 0, 70, 88
2, 161648, Note_on_c, 0, 55, 92
2, 161653, Control_c, 0, 64, 0
2, 161671, Note_off_c, 0, 62, 64
2, 161700, Note_on_c, 0, 67, 88
2, 161707, Note_off_c, 0, 70, 64
2, 161714, Control_c, 0, 64, 127
2, 161760, Note_on_c, 0, 69, 46
2, 161766, Control_c, 0, 64, 0
2, 161770, Note_off_c, 0, 67, 64
2, 161778, Control_c, 0, 64, 127
2, 161796, Note_on_c, 0, 70, 67
2, 161808, Note_off_c, 0, 69, 64
2, 161836, Note_on_c, 0, 72, 84
2, 161851, Note_off_c, 0, 70, 64
2, 161890, Note_on_c, 0, 74, 79
2, 161923, Note_on_c, 0, 76, 64
2, 161951, Note_off_c, 0, 55, 64
2, 161957, Note_off_c, 0, 72, 64
2, 161959, Note_off_c, 0, 74, 64
2, 161970, Note_on_c, 0, 78, 75
2, 161992, Note_off_c, 0, 76, 64
2, 161993, Control_c, 0, 64, 0
2, 162003, Note_off_c, 0, 78, 64
2, 162015, Note_on_c, 0, 79, 84
2, 162062, Note_on_c, 0, 81, 79
2, 162072, Control_c, 0, 64, 127
2, 162084, Note_off_c, 0, 79, 64
2, 162107, Note_on_c, 0, 82, 84
2, 162120, Note_off_c, 0, 81, 64
2, 162153, Note_on_c, 0, 81, 79
2, 162163, Note_off_c, 0, 82, 64
2, 162192, Note_off_c, 0, 81, 64
2, 162195, Note_on_c, 0, 79, 86
2, 162238, Note_off_c, 0, 79, 64
2, 162243, Note_on_c, 0, 77, 78
2, 162289, Note_on_c, 0, 76, 85
2, 162298, Note_off_c, 0, 77, 64
2, 162327, Note_on_c, 0, 74, 86
2, 162332, Note_off_c, 0, 76, 64
2, 162372, Control_c, 0, 64, 0
2, 162379, Note_on_c, 0, 72, 90
2, 162379, Note_on_c, 0, 48, 79
2, 162396, Note_off_c, 0, 74, 64
2, 162426, Note_on_c, 0, 60, 84
2, 162426, Control_c, 0, 64, 127
2, 162432, Note_off_c, 0, 48, 64
2, 162461, Note_off_c, 0, 72, 64
2, 162483, Note_off_c, 0, 60, 64
2, 162484, Note_on_c, 0, 59, 84
2, 162523, Note_off_c, 0, 59, 64
2, 162536, Note_on_c, 0, 60, 84
2, 162546, Control_c, 0, 64, 0
2, 162576, Note_off_c, 0, 60, 64
2, 162576, Note_on_c, 0, 48, 94
2, 162598, Control_c, 0, 64, 127
2, 162622, Note_on_c, 0, 60, 88
2, 162623, Note_off_c, 0, 48, 64
2, 162672, Note_on_c, 0, 59, 88
2, 162681, Note_off_c, 0, 60, 64
2, 162711, Note_off_c, 0, 59, 64
2, 162719, Note_on_c, 0, 60, 86
2, 162725, Control_c, 0, 64, 0
2, 162750, Note_on_c, 0, 64, 101
2, 162750, Note_on_c, 0, 70, 95
2, 162751, Note_on_c, 0, 73, 100
2, 162763, Note_on_c, 0, 48, 96
2, 162764, Note_off_c, 0, 60, 64
2, 162791, Control_c, 0, 64, 127
2, 162805, Note_off_c, 0, 48, 64
2, 162807, Note_on_c, 0, 60, 86
2, 162853, Note_on_c, 0, 59, 86
2, 162871, Note_off_c, 0, 60, 64
2, 162892, Note_off_c, 0, 59, 64
2, 162904, Note_on_c, 0, 60, 88
2, 162910, Control_c, 0, 64, 0
2, 162941, Note_on_c, 0, 48, 96
2, 162947, Note_off_c, 0, 60, 64
2, 162960, Control_c, 0, 64, 127
2, 162984, Note_off_c, 0, 48, 64
2, 162987, Note_on_c, 0, 60, 86
2, 163035, Note_on_c, 0, 59, 88
2, 163037, Note_off_c, 0, 64, 64
2, 163044, Note_off_c, 0, 60, 64
2, 163075, Note_off_c, 0, 59, 64
2, 163080, Note_off_c, 0, 70, 64
2, 163084, Note_on_c, 0, 60, 88
2, 163087, Note_off_c, 0, 73, 64
2, 163101, Control_c, 0, 64, 0
2, 163119, Note_on_c, 0, 65, 100
2, 163121, Note_on_c, 0, 72, 100
2, 163122, Note_on_c, 0, 69, 86
2, 163130, Note_off_c, 0, 60, 64
2, 163134, Note_on_c, 0, 48, 97
2, 163148, Note_off_c, 0, 69, 64
2, 163151, Note_off_c, 0, 65, 64
2, 163152, Control_c, 0, 64, 127
2, 163157, Note_off_c, 0, 72, 64
2, 163171, Note_off_c, 0, 48, 64
2, 163179, Note_on_c, 0, 60, 88
2, 163225, Note_on_c, 0, 59, 85
2, 163240, Note_off_c, 0, 60, 64
2, 163272, Note_off_c, 0, 59, 64
2, 163277, Note_on_c, 0, 60, 80
2, 163290, Control_c, 0, 64, 0
2, 163310, Note_on_c, 0, 81, 95
2, 163310, Note_on_c, 0, 77, 92
2, 163323, Note_off_c, 0, 60, 64
2, 163326, Note_on_c, 0, 48, 97
2, 163345, Note_off_c, 0, 77, 64
2, 163347, Note_off_c, 0, 81, 64
2, 163356, Control_c, 0, 64, 127
2, 163365, Note_on_c, 0, 60, 86
2, 163371, Note_off_c, 0, 48, 64
2, 163412, Note_on_c, 0, 59, 90
2, 163429, Note_off_c, 0, 60, 64
2, 163461, Note_off_c, 0, 59, 64
2, 163466, Note_on_c, 0, 60, 86
2, 163502, Control_c, 0, 64, 0
2, 163508, Note_on_c, 0, 70, 96
2, 163512, Note_on_c, 0, 67, 92
2, 163512, Note_on_c, 0, 64, 102
2, 163520, Note_off_c, 0, 60, 64
2, 163529, Note_on_c, 0, 47, 94
2, 163529, Note_on_c, 0, 48, 92
2, 163557, Note_off_c, 0, 47, 64
2, 163564, Note_off_c, 0, 48, 64
2, 163567, Note_on_c, 0, 60, 86
2, 163575, Control_c, 0, 64, 127
2, 163619, Note_on_c, 0, 59, 92
2, 163627, Note_off_c, 0, 60, 64
2, 163643, Control_c, 0, 64, 0
2, 163656, Note_off_c, 0, 59, 64
2, 163667, Note_on_c, 0, 60, 86
2, 163694, Control_c, 0, 64, 127
2, 163709, Note_off_c, 0, 60, 64
2, 163712, Note_on_c, 0, 48, 96
2, 163756, Note_off_c, 0, 48, 64
2, 163757, Note_on_c, 0, 60, 86
2, 163778, Note_off_c, 0, 64, 64
2, 163806, Note_on_c, 0, 59, 85
2, 163818, Note_off_c, 0, 70, 64
2, 163839, Note_off_c, 0, 60, 64
2, 163846, Note_off_c, 0, 59, 64
2, 163856, Note_on_c, 0, 60, 84
2, 163863, Control_c, 0, 64, 0
2, 163890, Note_on_c, 0, 65, 88
2, 163895, Note_on_c, 0, 69, 97
2, 163901, Note_off_c, 0, 60, 64
2, 163901, Note_on_c, 0, 48, 94
2, 163906, Note_off_c, 0, 67, 64
2, 163914, Control_c, 0, 64, 127
2, 163924, Note_off_c, 0, 65, 64
2, 163926, Note_off_c, 0, 69, 64
2, 163944, Note_off_c, 0, 48, 64
2, 163948, Note_on_c, 0, 60, 85
2, 163992, Note_on_c, 0, 59, 85
2, 164004, Note_off_c, 0, 60, 64
2, 164036, Note_off_c, 0, 59, 64
2, 164046, Note_on_c, 0, 60, 84
2, 164071, Control_c, 0, 64, 0
2, 164080, Note_on_c, 0, 77, 92
2, 164089, Note_on_c, 0, 48, 92
2, 164090, Note_off_c, 0, 60, 64
2, 164111, Note_off_c, 0, 77, 64
2, 164126, Control_c, 0, 64, 127
2, 164133, Note_off_c, 0, 48, 64
2, 164135, Note_on_c, 0, 60, 85
2, 164180, Note_on_c, 0, 59, 85
2, 164195, Note_off_c, 0, 60, 64
2, 164225, Note_off_c, 0, 59, 64
2, 164235, Note_on_c, 0, 60, 84
2, 164277, Note_on_c, 0, 71, 84
2, 164278, Note_on_c, 0, 65, 84
2, 164278, Note_on_c, 0, 62, 86
2, 164286, Control_c, 0, 64, 0
2, 164292, Note_off_c, 0, 60, 64
2, 164300, Note_on_c, 0, 48, 96
2, 164340, Note_off_c, 0, 48, 64
2, 164345, Note_on_c, 0, 60, 85
2, 164384, Control_c, 0, 64, 127
2, 164398, Note_on_c, 0, 59, 84
2, 164407, Note_off_c, 0, 60, 64
2, 164436, Note_off_c, 0, 59, 64
2, 164450, Note_on_c, 0, 60, 84
2, 164489, Note_off_c, 0, 60, 64
2, 164501, Note_on_c, 0, 48, 88
2, 164539, Note_off_c, 0, 48, 64
2, 164547, Note_on_c, 0, 60, 85
2, 164559, Note_off_c, 0, 71, 64
2, 164593, Note_off_c, 0, 60, 64
2, 164594, Note_on_c, 0, 59, 78
2, 164615, Note_off_c, 0, 62, 64
2, 164642, Note_off_c, 0, 59, 64
2, 164646, Note_on_c, 0, 60, 78
2, 164700, Note_on_c, 0, 67, 72
2, 164700, Note_on_c, 0, 64, 69
2, 164703, Note_off_c, 0, 65, 64
2, 164707, Note_on_c, 0, 72, 81
2, 164715, Note_on_c, 0, 48, 86
2, 164720, Control_c, 0, 64, 0
2, 164724, Note_off_c, 0, 60, 64
2, 164777, Control_c, 0, 64, 127
2, 164885, Note_off_c, 0, 67, 64
2, 164892, Note_off_c, 0, 64, 64
2, 164904, Note_off_c, 0, 72, 64
2, 164911, Note_off_c, 0, 48, 64
2, 165010, Note_on_c, 0, 60, 76
2, 165036, Control_c, 0, 64, 0
2, 165042, Note_on_c, 0, 64, 76
2, 165081, Note_on_c, 0, 67, 66
2, 165082, Note_off_c, 0, 60, 64
2, 165088, Control_c, 0, 64, 127
2, 165100, Note_off_c, 0, 64, 64
2, 165131, Note_off_c, 0, 67, 64
2, 165206, Note_on_c, 0, 64, 68
2, 165239, Note_on_c, 0, 67, 72
2, 165273, Note_off_c, 0, 64, 64
2, 165278, Note_on_c, 0, 70, 80
2, 165296, Note_off_c, 0, 67, 64
2, 165327, Note_off_c, 0, 70, 64
2, 165404, Note_on_c, 0, 67, 73
2, 165442, Note_on_c, 0, 70, 86
2, 165466, Note_on_c, 0, 36, 86
2, 165469, Note_on_c, 0, 48, 80
2, 165478, Control_c, 0, 64, 0
2, 165481, Note_on_c, 0, 76, 86
2, 165492, Note_off_c, 0, 67, 64
2, 165515, Note_off_c, 0, 70, 64
2, 165521, Control_c, 0, 64, 127
2, 165549, Note_off_c, 0, 76, 64
2, 165563, Note_off_c, 0, 36, 64
2, 165586, Note_off_c, 0, 48, 64
2, 165770, Note_on_c, 0, 86, 76
2, 165774, Note_on_c, 0, 58, 73
2, 165802, Note_on_c, 0, 60, 63
2, 165811, Note_on_c, 0, 82, 84
2, 165835, Note_off_c, 0, 86, 64
2, 165836, Note_off_c, 0, 58, 64
2, 165849, Note_on_c, 0, 64, 77
2, 165864, Note_off_c, 0, 60, 64
2, 165864, Note_on_c, 0, 79, 64
2, 165880, Note_off_c, 0, 82, 64
2, 165901, Note_off_c, 0, 79, 64
2, 165903, Note_off_c, 0, 64, 64
2, 165985, Note_on_c, 0, 82, 79
2, 165989, Note_on_c, 0, 60, 76
2, 166003, Note_on_c, 0, 64, 74
2, 166030, Note_on_c, 0, 79, 71
2, 166049, Note_off_c, 0, 60, 64
2, 166057, Note_off_c, 0, 82, 64
2, 166067, Note_on_c, 0, 67, 84
2, 166072, Note_off_c, 0, 64, 64
2, 166077, Note_on_c, 0, 76, 86
2, 166086, Note_off_c, 0, 79, 64
2, 166114, Note_off_c, 0, 67, 64
2, 166121, Note_off_c, 0, 76, 64
2, 166196, Note_on_c, 0, 79, 78
2, 166203, Note_on_c, 0, 64, 67
2, 166241, Note_on_c, 0, 76, 79
2, 166249, Note_on_c, 0, 67, 42
2, 166272, Note_off_c, 0, 79, 64
2, 166280, Note_off_c, 0, 64, 64
2, 166289, Note_on_c, 0, 72, 84
2, 166305, Note_on_c, 0, 70, 100
2, 166310, Note_off_c, 0, 76, 64
2, 166313, Control_c, 0, 64, 0
2, 166318, Note_off_c, 0, 67, 64
2, 166344, Control_c, 0, 64, 127
2, 166468, Note_off_c, 0, 72, 64
2, 166470, Note_off_c, 0, 70, 64
2, 166848, Control_c, 0, 64, 0
2, 166944, Note_on_c, 0, 72, 73
2, 167103, Note_on_c, 0, 69, 71
2, 167124, Note_off_c, 0, 72, 64
2, 167131, Note_on_c, 0, 53, 78
2, 167136, Note_on_c, 0, 57, 72
2, 167141, Note_on_c, 0, 65, 72
2, 167148, Control_c, 0, 64, 127
2, 167152, Note_off_c, 0, 69, 64
2, 167158, Note_off_c, 0, 53, 64
2, 167161, Note_off_c, 0, 57, 64
2, 167181, Note_off_c, 0, 65, 64
2, 167296, Control_c, 0, 64, 0
2, 167336, Note_on_c, 0, 69, 73
2, 167484, Note_on_c, 0, 65, 56
2, 167513, Note_off_c, 0, 69, 64
2, 167519, Note_on_c, 0, 64, 79
2, 167522, Note_on_c, 0, 48, 73
2, 167523, Note_on_c, 0, 58, 77
2, 167540, Note_off_c, 0, 65, 64
2, 167552, Note_off_c, 0, 48, 64
2, 167556, Note_off_c, 0, 58, 64
2, 167573, Note_off_c, 0, 64, 64
2, 167699, Control_c, 0, 64, 127
2, 167724, Note_on_c, 0, 67, 71
2, 167867, Note_on_c, 0, 64, 66
2, 167884, Control_c, 0, 64, 0
2, 167897, Note_on_c, 0, 65, 69
2, 167902, Note_off_c, 0, 67, 64
2, 167905, Note_on_c, 0, 53, 68
2, 167908, Note_on_c, 0, 57, 67
2, 167920, Note_off_c, 0, 64, 64
2, 167930, Note_off_c, 0, 65, 64
2, 167951, Control_c, 0, 64, 127
2, 168082, Note_off_c, 0, 53, 64
2, 168088, Note_off_c, 0, 57, 64
2, 168096, Control_c, 0, 64, 0
2, 168106, Note_on_c, 0, 74, 78
2, 168107, Note_on_c, 0, 70, 78
2, 168167, Control_c, 0, 64, 127
2, 168286, Control_c, 0, 64, 0
2, 168290, Note_off_c, 0, 70, 64
2, 168301, Note_on_c, 0, 69, 71
2, 168301, Note_on_c, 0, 72, 78
2, 168329, Note_off_c, 0, 74, 64
2, 168336, Note_off_c, 0, 72, 64
2, 168341, Control_c, 0, 64, 127
2, 168354, Note_off_c, 0, 69, 64
2, 168497, Control_c, 0, 64, 0
2, 168509, Note_on_c, 0, 79, 72
2, 168520, Control_c, 0, 64, 127
2, 168564, Note_on_c, 0, 77, 69
2, 168579, Note_off_c, 0, 79, 64
2, 168605, Note_on_c, 0, 76, 67
2, 168637, Note_off_c, 0, 77, 64
2, 168655, Note_on_c, 0, 74, 76
2, 168676, Note_off_c, 0, 76, 64
2, 168685, Control_c, 0, 64, 0
2, 168702, Note_on_c, 0, 72, 84
2, 168715, Note_off_c, 0, 74, 64
2, 168725, Control_c, 0, 64, 127
2, 168840, Note_off_c, 0, 72, 64
2, 168891, Note_on_c, 0, 81, 72
2, 168892, Note_on_c, 0, 65, 77
2, 168892, Control_c, 0, 64, 0
2, 168933, Control_c, 0, 64, 127
2, 168938, Note_off_c, 0, 81, 64
2, 168947, Note_on_c, 0, 69, 84
2, 169005, Note_on_c, 0, 74, 81
2, 169034, Note_off_c, 0, 69, 64
2, 169058, Note_on_c, 0, 72, 76
2, 169071, Note_off_c, 0, 74, 64
2, 169078, Note_off_c, 0, 65, 64
2, 169081, Note_on_c, 0, 67, 77
2, 169082, Control_c, 0, 64, 0
2, 169114, Control_c, 0, 64, 127
2, 169122, Note_off_c, 0, 72, 64
2, 169225, Note_on_c, 0, 73, 36
2, 169225, Note_on_c, 0, 72, 65
2, 169263, Note_off_c, 0, 73, 64
2, 169267, Note_on_c, 0, 70, 79
2, 169273, Note_on_c, 0, 60, 67
2, 169276, Note_off_c, 0, 72, 64
2, 169277, Note_off_c, 0, 67, 64
2, 169293, Note_on_c, 0, 72, 80
2, 169303, Note_off_c, 0, 70, 64
2, 169330, Note_on_c, 0, 70, 84
2, 169341, Note_off_c, 0, 72, 64
2, 169363, Note_on_c, 0, 69, 73
2, 169372, Note_off_c, 0, 70, 64
2, 169398, Note_on_c, 0, 70, 92
2, 169418, Note_off_c, 0, 69, 64
2, 169433, Note_off_c, 0, 70, 64
2, 169459, Note_on_c, 0, 70, 96
2, 169463, Note_off_c, 0, 60, 64
2, 169466, Note_on_c, 0, 65, 72
2, 169466, Control_c, 0, 64, 0
2, 169524, Control_c, 0, 64, 127
2, 169660, Control_c, 0, 64, 0
2, 169667, Note_on_c, 0, 60, 70
2, 169700, Control_c, 0, 64, 127
2, 169857, Note_on_c, 0, 69, 70
2, 169860, Note_off_c, 0, 60, 64
2, 169860, Note_on_c, 0, 53, 63
2, 169870, Control_c, 0, 64, 0
2, 169886, Note_off_c, 0, 70, 64
2, 169913, Note_off_c, 0, 65, 64
2, 169928, Control_c, 0, 64, 127
2, 170044, Note_off_c, 0, 69, 64
2, 170064, Note_off_c, 0, 53, 64
2, 170067, Control_c, 0, 64, 0
2, 170073, Note_on_c, 0, 72, 75
2, 170083, Control_c, 0, 64, 127
2, 170118, Note_on_c, 0, 69, 81
2, 170127, Note_off_c, 0, 72, 64
2, 170158, Note_on_c, 0, 72, 84
2, 170165, Note_off_c, 0, 69, 64
2, 170205, Note_on_c, 0, 69, 75
2, 170219, Note_off_c, 0, 72, 64
2, 170237, Control_c, 0, 64, 0
2, 170248, Note_on_c, 0, 57, 72
2, 170251, Note_on_c, 0, 65, 77
2, 170253, Note_on_c, 0, 53, 73
2, 170258, Note_off_c, 0, 69, 64
2, 170291, Note_off_c, 0, 57, 64
2, 170292, Note_off_c, 0, 53, 64
2, 170312, Control_c, 0, 64, 127
2, 170338, Note_off_c, 0, 65, 64
2, 170432, Control_c, 0, 64, 0
2, 170469, Note_on_c, 0, 70, 58
2, 170500, Control_c, 0, 64, 127
2, 170518, Note_on_c, 0, 69, 67
2, 170532, Note_off_c, 0, 70, 64
2, 170560, Note_on_c, 0, 67, 50
2, 170581, Note_off_c, 0, 69, 64
2, 170605, Note_off_c, 0, 67, 64
2, 170606, Note_on_c, 0, 65, 71
2, 170611, Control_c, 0, 64, 0
2, 170635, Note_on_c, 0, 48, 71
2, 170637, Note_on_c, 0, 58, 67
2, 170647, Note_on_c, 0, 64, 84
2, 170673, Control_c, 0, 64, 127
2, 170679, Note_off_c, 0, 65, 64
2, 170683, Note_off_c, 0, 64, 64
2, 170709, Note_off_c, 0, 58, 64
2, 170711, Note_off_c, 0, 48, 64
2, 170854, Note_on_c, 0, 69, 63
2, 170899, Note_on_c, 0, 67, 67
2, 170910, Note_off_c, 0, 69, 64
2, 170940, Note_on_c, 0, 65, 63
2, 170952, Note_off_c, 0, 67, 64
2, 170975, Control_c, 0, 64, 0
2, 170979, Note_on_c, 0, 64, 79
2, 170984, Note_off_c, 0, 65, 64
2, 171012, Note_on_c, 0, 53, 67
2, 171015, Note_on_c, 0, 57, 67
2, 171022, Note_on_c, 0, 65, 84
2, 171024, Note_off_c, 0, 64, 64
2, 171031, Control_c, 0, 64, 127
2, 171041, Note_off_c, 0, 65, 64
2, 171043, Note_off_c, 0, 53, 64
2, 171059, Note_off_c, 0, 57, 64
2, 171139, Note_on_c, 0, 74, 81
2, 171182, Note_on_c, 0, 76, 75
2, 171212, Control_c, 0, 64, 0
2, 171217, Note_off_c, 0, 74, 64
2, 171219, Note_on_c, 0, 70, 67
2, 171225, Note_on_c, 0, 79, 92
2, 171228, Note_off_c, 0, 76, 64
2, 171265, Control_c, 0, 64, 127
2, 171273, Note_on_c, 0, 77, 84
2, 171294, Note_off_c, 0, 79, 64
2, 171309, Note_on_c, 0, 76, 84
2, 171340, Note_off_c, 0, 77, 64
2, 171360, Note_on_c, 0, 74, 76
2, 171376, Note_off_c, 0, 76, 64
2, 171393, Control_c, 0, 64, 0
2, 171405, Note_on_c, 0, 69, 69
2, 171406, Note_on_c, 0, 72, 80
2, 171412, Note_off_c, 0, 70, 64
2, 171464, Control_c, 0, 64, 127
2, 171504, Note_off_c, 0, 74, 64
2, 171519, Note_off_c, 0, 72, 64
2, 171613, Note_on_c, 0, 84, 71
2, 171632, Note_off_c, 0, 69, 64
2, 171662, Note_on_c, 0, 81, 67
2, 171675, Note_off_c, 0, 84, 64
2, 171702, Note_on_c, 0, 77, 81
2, 171724, Note_off_c, 0, 81, 64
2, 171747, Note_off_c, 0, 77, 64
2, 171752, Note_on_c, 0, 72, 65
2, 171772, Control_c, 0, 64, 0
2, 171798, Note_on_c, 0, 69, 92
2, 171824, Note_off_c, 0, 72, 64
2, 171831, Control_c, 0, 64, 127
2, 171988, Note_on_c, 0, 60, 67
2, 171991, Note_on_c, 0, 65, 67
2, 172000, Control_c, 0, 64, 0
2, 172047, Control_c, 0, 64, 127
2, 172193, Note_on_c, 0, 70, 77
2, 172195, Control_c, 0, 64, 0
2, 172200, Note_on_c, 0, 67, 66
2, 172207, Note_off_c, 0, 65, 64
2, 172215, Note_off_c, 0, 69, 64
2, 172231, Note_off_c, 0, 70, 64
2, 172238, Control_c, 0, 64, 127
2, 172393, Control_c, 0, 64, 0
2, 172399, Note_on_c, 0, 82, 76
2, 172443, Control_c, 0, 64, 127
2, 172448, Note_on_c, 0, 79, 54
2, 172451, Note_off_c, 0, 67, 64
2, 172456, Note_off_c, 0, 60, 64
2, 172458, Note_off_c, 0, 82, 64
2, 172479, Note_on_c, 0, 76, 65
2, 172501, Note_off_c, 0, 79, 64
2, 172521, Note_off_c, 0, 76, 64
2, 172526, Note_on_c, 0, 72, 81
2, 172573, Control_c, 0, 64, 0
2, 172581, Note_on_c, 0, 70, 98
2, 172599, Note_off_c, 0, 72, 64
2, 172633, Control_c, 0, 64, 127
2, 172783, Note_on_c, 0, 64, 47
2, 172791, Control_c, 0, 64, 0
2, 172795, Note_on_c, 0, 60, 37
2, 172841, Control_c, 0, 64, 127
2, 172970, Note_off_c, 0, 64, 64
2, 172984, Note_on_c, 0, 69, 74
2, 172988, Note_on_c, 0, 65, 65
2, 172991, Note_on_c, 0, 62, 71
2, 172992, Note_off_c, 0, 70, 64
2, 172992, Control_c, 0, 64, 0
2, 173004, Note_off_c, 0, 60, 64
2, 173041, Control_c, 0, 64, 127
2, 173150, Note_off_c, 0, 69, 64
2, 173163, Note_off_c, 0, 65, 64
2, 173172, Control_c, 0, 64, 0
2, 173179, Note_on_c, 0, 77, 71
2, 173183, Note_off_c, 0, 62, 64
2, 173214, Control_c, 0, 64, 127
2, 173221, Note_on_c, 0, 72, 71
2, 173227, Note_off_c, 0, 77, 64
2, 173266, Note_on_c, 0, 69, 79
2, 173287, Note_off_c, 0, 72, 64
2, 173306, Note_on_c, 0, 65, 60
2, 173309, Note_off_c, 0, 69, 64
2, 173360, Control_c, 0, 64, 0
2, 173365, Note_on_c, 0, 63, 97
2, 173394, Note_off_c, 0, 65, 64
2, 173412, Control_c, 0, 64, 127
2, 173569, Note_on_c, 0, 53, 65
2, 173570, Note_on_c, 0, 57, 67
2, 173579, Control_c, 0, 64, 0
2, 173636, Control_c, 0, 64, 127
2, 173766, Note_on_c, 0, 55, 70
2, 173768, Note_on_c, 0, 58, 76
2, 173772, Note_off_c, 0, 53, 64
2, 173777, Control_c, 0, 64, 0
2, 173786, Note_off_c, 0, 57, 64
2, 173826, Control_c, 0, 64, 127
2, 173957, Note_on_c, 0, 57, 72
2, 173964, Control_c, 0, 64, 0
2, 173970, Note_on_c, 0, 60, 56
2, 173972, Note_off_c, 0, 58, 64
2, 173985, Note_off_c, 0, 55, 64
2, 174137, Note_on_c, 0, 58, 71
2, 174173, Note_off_c, 0, 57, 64
2, 174177, Note_off_c, 0, 60, 64
2, 174240, Note_on_c, 0, 61, 74
2, 174315, Note_off_c, 0, 63, 64
2, 174317, Control_c, 0, 64, 127
2, 174341, Note_on_c, 0, 62, 74
2, 174371, Note_off_c, 0, 61, 64
2, 174420, Note_on_c, 0, 66, 71
2, 174431, Note_off_c, 0, 62, 64
2, 174446, Note_off_c, 0, 58, 64
2, 174467, Note_off_c, 0, 66, 64
2, 174506, Control_c, 0, 64, 0
2, 174515, Note_on_c, 0, 67, 79
2, 174584, Control_c, 0, 64, 127
2, 174602, Note_on_c, 0, 69, 68
2, 174627, Note_off_c, 0, 67, 64
2, 174703, Note_on_c, 0, 70, 65
2, 174756, Note_off_c, 0, 69, 64
2, 174766, Note_on_c, 0, 46, 56
2, 174783, Note_on_c, 0, 74, 78
2, 174807, Note_off_c, 0, 70, 64
2, 174841, Note_off_c, 0, 74, 64
2, 174860, Note_off_c, 0, 46, 64
2, 174869, Control_c, 0, 64, 0
2, 174873, Note_on_c, 0, 48, 77
2, 174873, Note_on_c, 0, 65, 86
2, 174873, Note_on_c, 0, 69, 86
2, 174903, Control_c, 0, 64, 127
2, 174952, Note_off_c, 0, 48, 64
2, 174953, Note_off_c, 0, 65, 64
2, 175053, Note_on_c, 0, 67, 71
2, 175057, Note_on_c, 0, 64, 79
2, 175076, Note_off_c, 0, 69, 64
2, 175089, Note_off_c, 0, 67, 64
2, 175090, Note_off_c, 0, 64, 64
2, 175159, Note_on_c, 0, 55, 71
2, 175186, Note_on_c, 0, 52, 72
2, 175217, Note_off_c, 0, 55, 64
2, 175247, Note_on_c, 0, 48, 94
2, 175262, Note_off_c, 0, 52, 64
2, 175290, Note_off_c, 0, 48, 64
2, 175341, Note_on_c, 0, 62, 65
2, 175347, Note_on_c, 0, 58, 84
2, 175386, Note_off_c, 0, 62, 64
2, 175405, Note_off_c, 0, 58, 64
2, 175453, Note_on_c, 0, 57, 79
2, 175457, Note_on_c, 0, 60, 86
2, 175527, Note_off_c, 0, 57, 64
2, 175535, Note_off_c, 0, 60, 64
2, 175543, Note_on_c, 0, 58, 72
2, 175549, Note_on_c, 0, 55, 66
2, 175631, Note_off_c, 0, 55, 64
2, 175634, Note_off_c, 0, 58, 64
2, 175656, Note_on_c, 0, 57, 52
2, 175665, Note_on_c, 0, 53, 80
2, 175668, Control_c, 0, 64, 0
2, 175701, Note_on_c, 0, 72, 76
2, 175736, Control_c, 0, 64, 127
2, 175753, Note_on_c, 0, 74, 69
2, 175760, Note_off_c, 0, 72, 64
2, 175777, Note_off_c, 0, 57, 64
2, 175802, Note_off_c, 0, 53, 64
2, 175814, Note_on_c, 0, 72, 68
2, 175821, Note_off_c, 0, 74, 64
2, 175848, Note_on_c, 0, 77, 79
2, 175872, Note_off_c, 0, 72, 64
2, 175905, Note_on_c, 0, 76, 71
2, 175912, Note_off_c, 0, 77, 64
2, 175943, Note_on_c, 0, 74, 71
2, 175958, Note_off_c, 0, 76, 64
2, 175980, Note_on_c, 0, 72, 81
2, 176003, Note_off_c, 0, 74, 64
2, 176028, Note_on_c, 0, 70, 90
2, 176034, Note_off_c, 0, 72, 64
2, 176089, Note_on_c, 0, 69, 77
2, 176096, Note_off_c, 0, 70, 64
2, 176125, Note_on_c, 0, 67, 74
2, 176151, Note_off_c, 0, 69, 64
2, 176160, Note_on_c, 0, 65, 79
2, 176173, Control_c, 0, 64, 0
2, 176203, Note_off_c, 0, 65, 64
2, 176203, Control_c, 0, 64, 127
2, 176208, Note_on_c, 0, 64, 77
2, 176213, Note_off_c, 0, 67, 64
2, 176214, Note_on_c, 0, 57, 75
2, 176229, Control_c, 0, 64, 0
2, 176256, Note_on_c, 0, 65, 79
2, 176259, Note_off_c, 0, 64, 64
2, 176259, Control_c, 0, 64, 127
2, 176309, Note_on_c, 0, 67, 59
2, 176339, Note_off_c, 0, 65, 64
2, 176344, Note_on_c, 0, 65, 72
2, 176359, Note_off_c, 0, 67, 64
2, 176395, Note_off_c, 0, 65, 64
2, 176396, Note_on_c, 0, 62, 76
2, 176410, Note_off_c, 0, 57, 64
2, 176414, Note_on_c, 0, 58, 77
2, 176420, Control_c, 0, 64, 0
2, 176449, Note_on_c, 0, 65, 84
2, 176460, Control_c, 0, 64, 127
2, 176467, Note_off_c, 0, 62, 64
2, 176487, Note_on_c, 0, 67, 67
2, 176499, Note_off_c, 0, 65, 64
2, 176534, Note_on_c, 0, 65, 76
2, 176549, Note_off_c, 0, 67, 64
2, 176592, Note_off_c, 0, 65, 64
2, 176595, Note_on_c, 0, 60, 81
2, 176602, Note_off_c, 0, 58, 64
2, 176603, Note_on_c, 0, 57, 77
2, 176611, Control_c, 0, 64, 0
2, 176646, Note_on_c, 0, 65, 51
2, 176661, Control_c, 0, 64, 127
2, 176668, Note_off_c, 0, 60, 64
2, 176694, Note_on_c, 0, 67, 65
2, 176699, Note_off_c, 0, 65, 64
2, 176736, Note_on_c, 0, 65, 79
2, 176753, Note_off_c, 0, 67, 64
2, 176783, Note_off_c, 0, 65, 64
2, 176785, Note_off_c, 0, 57, 64
2, 176790, Note_on_c, 0, 58, 92
2, 176790, Control_c, 0, 64, 0
2, 176797, Note_on_c, 0, 55, 76
2, 176835, Note_off_c, 0, 58, 64
2, 176844, Control_c, 0, 64, 127
2, 176888, Note_on_c, 0, 70, 79
2, 176939, Note_off_c, 0, 70, 64
2, 176971, Note_off_c, 0, 55, 64
2, 176975, Control_c, 0, 64, 0
2, 176987, Note_on_c, 0, 48, 77
2, 177016, Control_c, 0, 64, 127
2, 177076, Note_on_c, 0, 70, 66
2, 177123, Note_off_c, 0, 70, 64
2, 177173, Note_on_c, 0, 69, 57
2, 177176, Note_off_c, 0, 48, 64
2, 177181, Note_on_c, 0, 53, 50
2, 177189, Control_c, 0, 64, 0
2, 177212, Note_on_c, 0, 72, 57
2, 177221, Note_off_c, 0, 53, 64
2, 177221, Control_c, 0, 64, 127
2, 177238, Note_off_c, 0, 69, 64
2, 177261, Note_on_c, 0, 74, 52
2, 177268, Note_off_c, 0, 72, 64
2, 177317, Note_on_c, 0, 72, 43
2, 177337, Note_off_c, 0, 74, 64
2, 177363, Note_on_c, 0, 77, 54
2, 177366, Control_c, 0, 64, 0
2, 177373, Note_on_c, 0, 57, 48
2, 177388, Note_off_c, 0, 72, 64
2, 177408, Note_on_c, 0, 76, 52
2, 177420, Control_c, 0, 64, 127
2, 177426, Note_off_c, 0, 57, 64
2, 177432, Note_off_c, 0, 77, 64
2, 177454, Note_on_c, 0, 74, 50
2, 177484, Note_off_c, 0, 76, 64
2, 177497, Note_on_c, 0, 72, 57
2, 177523, Note_off_c, 0, 74, 64
2, 177537, Note_on_c, 0, 70, 60
2, 177548, Note_off_c, 0, 72, 64
2, 177568, Note_off_c, 0, 70, 64
2, 177571, Note_on_c, 0, 69, 57
2, 177614, Note_on_c, 0, 67, 60
2, 177667, Note_on_c, 0, 65, 60
2, 177675, Note_off_c, 0, 69, 64
2, 177682, Note_off_c, 0, 67, 64
2, 177719, Note_off_c, 0, 65, 64
2, 177727, Note_on_c, 0, 64, 66
2, 177733, Note_on_c, 0, 57, 63
2, 177744, Control_c, 0, 64, 0
2, 177771, Note_on_c, 0, 65, 65
2, 177783, Note_off_c, 0, 57, 64
2, 177794, Control_c, 0, 64, 127
2, 177810, Note_off_c, 0, 64, 64
2, 177817, Note_on_c, 0, 67, 54
2, 177829, Note_off_c, 0, 65, 64
2, 177864, Note_on_c, 0, 65, 65
2, 177866, Control_c, 0, 64, 127
2, 177880, Note_off_c, 0, 67, 64
2, 177925, Note_on_c, 0, 58, 57
2, 177926, Note_on_c, 0, 62, 63
2, 177930, Control_c, 0, 64, 0
2, 177954, Note_off_c, 0, 65, 64
2, 177968, Note_on_c, 0, 65, 48
2, 177981, Control_c, 0, 64, 127
2, 177991, Note_off_c, 0, 62, 64
2, 178027, Note_on_c, 0, 67, 54
2, 178031, Note_off_c, 0, 65, 64
2, 178059, Note_on_c, 0, 65, 53
2, 178084, Note_off_c, 0, 67, 64
2, 178113, Note_off_c, 0, 58, 64
2, 178120, Note_on_c, 0, 60, 63
2, 178123, Note_off_c, 0, 65, 64
2, 178128, Note_on_c, 0, 57, 57
2, 178131, Control_c, 0, 64, 0
2, 178163, Note_on_c, 0, 65, 51
2, 178172, Control_c, 0, 64, 127
2, 178188, Note_off_c, 0, 60, 64
2, 178215, Note_off_c, 0, 65, 64
2, 178215, Note_on_c, 0, 67, 47
2, 178258, Note_on_c, 0, 65, 57
2, 178272, Note_off_c, 0, 67, 64
2, 178304, Note_off_c, 0, 57, 64
2, 178309, Control_c, 0, 64, 0
2, 178312, Note_off_c, 0, 65, 64
2, 178318, Note_on_c, 0, 58, 67
2, 178320, Note_on_c, 0, 55, 53
2, 178362, Control_c, 0, 64, 127
2, 178369, Note_off_c, 0, 58, 64
2, 178373, Note_off_c, 0, 55, 64
2, 178417, Note_on_c, 0, 70, 59
2, 178465, Note_off_c, 0, 70, 64
2, 178512, Note_on_c, 0, 52, 59
2, 178515, Control_c, 0, 64, 0
2, 178526, Control_c, 0, 64, 127
2, 178550, Note_off_c, 0, 52, 64
2, 178604, Note_on_c, 0, 70, 59
2, 178644, Note_off_c, 0, 70, 64
2, 178705, Note_on_c, 0, 69, 73
2, 178718, Control_c, 0, 64, 0
2, 178725, Note_on_c, 0, 53, 78
2, 178764, Note_on_c, 0, 74, 79
2, 178772, Control_c, 0, 64, 127
2, 178787, Note_off_c, 0, 69, 64
2, 178802, Note_on_c, 0, 76, 78
2, 178822, Note_off_c, 0, 74, 64
2, 178863, Note_on_c, 0, 74, 71
2, 178878, Note_off_c, 0, 76, 64
2, 178907, Control_c, 0, 64, 0
2, 178913, Note_on_c, 0, 81, 84
2, 178915, Note_on_c, 0, 65, 78
2, 178923, Note_off_c, 0, 74, 64
2, 178952, Control_c, 0, 64, 127
2, 178959, Note_off_c, 0, 53, 64
2, 178960, Note_on_c, 0, 77, 76
2, 178993, Note_off_c, 0, 81, 64
2, 178997, Note_off_c, 0, 65, 64
2, 179013, Note_on_c, 0, 76, 69
2, 179037, Note_off_c, 0, 77, 64
2, 179055, Note_on_c, 0, 74, 78
2, 179073, Note_off_c, 0, 76, 64
2, 179099, Control_c, 0, 64, 0
2, 179112, Note_on_c, 0, 64, 86
2, 179112, Note_on_c, 0, 79, 79
2, 179119, Note_off_c, 0, 74, 64
2, 179135, Control_c, 0, 64, 127
2, 179156, Note_on_c, 0, 76, 67
2, 179196, Note_off_c, 0, 79, 64
2, 179212, Note_on_c, 0, 74, 73
2, 179240, Note_off_c, 0, 76, 64
2, 179256, Note_on_c, 0, 72, 78
2, 179278, Note_off_c, 0, 74, 64
2, 179299, Control_c, 0, 64, 0
2, 179302, Note_on_c, 0, 52, 77
2, 179308, Note_on_c, 0, 71, 88
2, 179316, Note_off_c, 0, 72, 64
2, 179344, Control_c, 0, 64, 127
2, 179347, Note_off_c, 0, 64, 64
2, 179356, Note_on_c, 0, 72, 84
2, 179360, Note_off_c, 0, 71, 64
2, 179364, Note_off_c, 0, 52, 64
2, 179405, Note_on_c, 0, 71, 88
2, 179427, Note_off_c, 0, 72, 64
2, 179442, Note_on_c, 0, 72, 69
2, 179450, Note_off_c, 0, 71, 64
2, 179484, Note_off_c, 0, 72, 64
2, 179503, Note_on_c, 0, 65, 88
2, 179510, Note_on_c, 0, 50, 58
2, 179516, Control_c, 0, 64, 0
2, 179544, Note_on_c, 0, 70, 86
2, 179557, Control_c, 0, 64, 127
2, 179572, Note_off_c, 0, 65, 64
2, 179601, Note_on_c, 0, 72, 64
2, 179608, Note_off_c, 0, 70, 64
2, 179648, Note_on_c, 0, 70, 78
2, 179676, Note_off_c, 0, 72, 64
2, 179694, Note_on_c, 0, 72, 47
2, 179694, Control_c, 0, 64, 0
2, 179708, Note_on_c, 0, 62, 78
2, 179711, Note_on_c, 0, 77, 94
2, 179717, Note_off_c, 0, 70, 64
2, 179719, Note_off_c, 0, 72, 64
2, 179732, Control_c, 0, 64, 127
2, 179761, Note_on_c, 0, 74, 79
2, 179769, Note_off_c, 0, 50, 64
2, 179770, Note_off_c, 0, 62, 64
2, 179791, Note_off_c, 0, 77, 64
2, 179815, Note_on_c, 0, 72, 74
2, 179841, Note_off_c, 0, 74, 64
2, 179858, Note_on_c, 0, 70, 86
2, 179883, Note_off_c, 0, 72, 64
2, 179901, Note_on_c, 0, 76, 86
2, 179905, Note_on_c, 0, 60, 65
2, 179911, Control_c, 0, 64, 0
2, 179918, Note_off_c, 0, 70, 64
2, 179951, Control_c, 0, 64, 127
2, 179956, Note_on_c, 0, 72, 71
2, 179970, Note_off_c, 0, 76, 64
2, 179987, Note_on_c, 0, 70, 84
2, 180014, Note_off_c, 0, 72, 64
2, 180040, Note_on_c, 0, 69, 86
2, 180043, Note_off_c, 0, 70, 64
2, 180087, Control_c, 0, 64, 0
2, 180094, Note_on_c, 0, 68, 86
2, 180094, Note_on_c, 0, 48, 71
2, 180102, Note_off_c, 0, 69, 64
2, 180127, Note_off_c, 0, 60, 64
2, 180132, Control_c, 0, 64, 127
2, 180140, Note_on_c, 0, 69, 67
2, 180141, Note_off_c, 0, 68, 64
2, 180154, Note_off_c, 0, 48, 64
2, 180183, Note_on_c, 0, 68, 86
2, 180188, Note_off_c, 0, 69, 64
2, 180226, Note_on_c, 0, 69, 71
2, 180238, Note_off_c, 0, 68, 64
2, 180282, Note_off_c, 0, 69, 64
2, 180283, Note_on_c, 0, 62, 84
2, 180291, Control_c, 0, 64, 0
2, 180298, Note_on_c, 0, 46, 72
2, 180334, Note_on_c, 0, 67, 84
2, 180344, Note_off_c, 0, 62, 64
2, 180353, Control_c, 0, 64, 127
2, 180379, Note_on_c, 0, 69, 77
2, 180390, Note_off_c, 0, 67, 64
2, 180426, Note_on_c, 0, 67, 79
2, 180440, Note_off_c, 0, 69, 64
2, 180473, Note_off_c, 0, 67, 64
2, 180489, Note_on_c, 0, 58, 71
2, 180490, Control_c, 0, 64, 0
2, 180496, Note_on_c, 0, 74, 92
2, 180523, Control_c, 0, 64, 127
2, 180535, Note_on_c, 0, 70, 92
2, 180568, Note_off_c, 0, 74, 64
2, 180570, Note_off_c, 0, 46, 64
2, 180586, Note_on_c, 0, 69, 74
2, 180608, Note_off_c, 0, 70, 64
2, 180631, Note_off_c, 0, 58, 64
2, 180636, Note_on_c, 0, 67, 84
2, 180639, Note_off_c, 0, 69, 64
2, 180672, Note_off_c, 0, 67, 64
2, 180683, Control_c, 0, 64, 0
2, 180686, Note_on_c, 0, 72, 81
2, 180691, Note_on_c, 0, 57, 73
2, 180707, Control_c, 0, 64, 127
2, 180732, Note_on_c, 0, 69, 76
2, 180759, Note_off_c, 0, 72, 64
2, 180776, Note_on_c, 0, 67, 76
2, 180813, Note_on_c, 0, 65, 79
2, 180818, Note_off_c, 0, 69, 64
2, 180846, Note_off_c, 0, 67, 64
2, 180861, Note_on_c, 0, 45, 74
2, 180865, Control_c, 0, 64, 0
2, 180868, Note_on_c, 0, 64, 85
2, 180880, Note_off_c, 0, 65, 64
2, 180888, Control_c, 0, 64, 127
2, 180911, Note_off_c, 0, 45, 64
2, 180917, Note_on_c, 0, 65, 71
2, 180919, Note_off_c, 0, 64, 64
2, 180921, Note_off_c, 0, 57, 64
2, 180966, Note_off_c, 0, 65, 64
2, 180969, Note_on_c, 0, 64, 76
2, 181015, Note_on_c, 0, 65, 74
2, 181040, Note_off_c, 0, 64, 64
2, 181061, Note_on_c, 0, 55, 74
2, 181071, Note_off_c, 0, 65, 64
2, 181076, Control_c, 0, 64, 0
2, 181113, Note_on_c, 0, 59, 88
2, 181125, Note_off_c, 0, 55, 64
2, 181126, Control_c, 0, 64, 127
2, 181152, Note_off_c, 0, 59, 64
2, 181171, Note_on_c, 0, 62, 79
2, 181212, Note_on_c, 0, 65, 72
2, 181235, Note_off_c, 0, 62, 64
2, 181257, Note_on_c, 0, 71, 79
2, 181273, Note_off_c, 0, 65, 64
2, 181312, Note_on_c, 0, 65, 74
2, 181334, Note_off_c, 0, 71, 64
2, 181358, Note_on_c, 0, 62, 71
2, 181373, Note_off_c, 0, 65, 64
2, 181379, Note_on_c, 0, 59, 96
2, 181424, Note_off_c, 0, 62, 64
2, 181436, Note_on_c, 0, 55, 86
2, 181448, Note_off_c, 0, 59, 64
2, 181448, Control_c, 0, 64, 0
2, 181478, Note_off_c, 0, 55, 64
2, 181488, Control_c, 0, 64, 127
2, 181507, Note_on_c, 0, 62, 84
2, 181547, Note_on_c, 0, 65, 77
2, 181584, Note_off_c, 0, 62, 64
2, 181598, Note_on_c, 0, 71, 84
2, 181620, Note_off_c, 0, 65, 64
2, 181644, Note_on_c, 0, 65, 60
2, 181669, Note_on_c, 0, 62, 78
2, 181674, Note_off_c, 0, 71, 64
2, 181689, Note_off_c, 0, 65, 64
2, 181695, Note_on_c, 0, 59, 65
2, 181714, Note_on_c, 0, 71, 54
2, 181718, Note_off_c, 0, 62, 64
2, 181750, Note_on_c, 0, 55, 55
2, 181760, Note_off_c, 0, 71, 64
2, 181769, Note_off_c, 0, 59, 64
2, 181781, Note_off_c, 0, 55, 64
2, 181812, Note_on_c, 0, 62, 69
2, 181849, Note_on_c, 0, 60, 84
2, 181865, Note_off_c, 0, 62, 64
2, 181904, Note_off_c, 0, 60, 64
2, 181915, Note_on_c, 0, 62, 79
2, 181940, Note_on_c, 0, 60, 80
2, 181965, Note_off_c, 0, 62, 64
2, 181997, Note_off_c, 0, 60, 64
2, 181999, Note_on_c, 0, 62, 71
2, 182030, Note_on_c, 0, 60, 74
2, 182060, Note_off_c, 0, 62, 64
2, 182085, Note_off_c, 0, 60, 64
2, 182089, Note_on_c, 0, 62, 68
2, 182115, Note_on_c, 0, 60, 75
2, 182144, Note_off_c, 0, 62, 64
2, 182179, Note_on_c, 0, 62, 73
2, 182181, Note_off_c, 0, 60, 64
2, 182202, Note_on_c, 0, 60, 70
2, 182233, Note_off_c, 0, 62, 64
2, 182261, Note_on_c, 0, 62, 71
2, 182264, Note_off_c, 0, 60, 64
2, 182287, Note_on_c, 0, 60, 74
2, 182324, Note_off_c, 0, 62, 64
2, 182355, Note_off_c, 0, 60, 64
2, 182355, Note_on_c, 0, 62, 72
2, 182359, Note_on_c, 0, 70, 100
2, 182384, Note_on_c, 0, 60, 74
2, 182400, Note_on_c, 0, 67, 81
2, 182411, Note_off_c, 0, 62, 64
2, 182416, Note_off_c, 0, 70, 64
2, 182441, Note_on_c, 0, 70, 100
2, 182448, Note_off_c, 0, 60, 64
2, 182453, Note_on_c, 0, 62, 66
2, 182457, Note_off_c, 0, 67, 64
2, 182482, Note_on_c, 0, 67, 88
2, 182492, Note_on_c, 0, 60, 70
2, 182499, Note_off_c, 0, 62, 64
2, 182504, Note_off_c, 0, 70, 64
2, 182529, Note_on_c, 0, 64, 92
2, 182532, Note_off_c, 0, 67, 64
2, 182550, Note_on_c, 0, 62, 74
2, 182552, Note_off_c, 0, 60, 64
2, 182557, Note_off_c, 0, 64, 64
2, 182585, Note_on_c, 0, 60, 69
2, 182600, Note_off_c, 0, 62, 64
2, 182645, Note_off_c, 0, 60, 64
2, 182646, Note_on_c, 0, 62, 67
2, 182680, Note_on_c, 0, 60, 65
2, 182694, Note_off_c, 0, 62, 64
2, 182720, Note_on_c, 0, 76, 96
2, 182723, Note_on_c, 0, 70, 106
2, 182738, Note_on_c, 0, 62, 70
2, 182747, Note_off_c, 0, 60, 64
2, 182748, Note_off_c, 0, 70, 64
2, 182755, Note_off_c, 0, 76, 64
2, 182785, Note_on_c, 0, 60, 73
2, 182816, Note_off_c, 0, 62, 64
2, 182839, Note_off_c, 0, 60, 64
2, 182841, Note_on_c, 0, 62, 71
2, 182885, Note_on_c, 0, 60, 66
2, 182899, Note_off_c, 0, 62, 64
2, 182920, Note_on_c, 0, 79, 97
2, 182925, Note_on_c, 0, 76, 96
2, 182942, Note_on_c, 0, 62, 65
2, 182945, Note_off_c, 0, 76, 64
2, 182952, Note_off_c, 0, 60, 64
2, 182953, Note_off_c, 0, 79, 64
2, 182991, Note_on_c, 0, 60, 75
2, 183023, Note_off_c, 0, 62, 64
2, 183051, Note_on_c, 0, 62, 66
2, 183057, Note_off_c, 0, 60, 64
2, 183095, Note_on_c, 0, 60, 72
2, 183104, Note_on_c, 0, 79, 97
2, 183111, Note_off_c, 0, 62, 64
2, 183112, Note_on_c, 0, 82, 100
2, 183148, Note_off_c, 0, 79, 64
2, 183155, Note_on_c, 0, 62, 67
2, 183162, Note_off_c, 0, 60, 64
2, 183192, Note_off_c, 0, 82, 64
2, 183201, Note_on_c, 0, 60, 71
2, 183216, Note_off_c, 0, 62, 64
2, 183261, Note_on_c, 0, 62, 65
2, 183264, Note_off_c, 0, 60, 64
2, 183285, Note_on_c, 0, 81, 97
2, 183286, Note_on_c, 0, 77, 106
2, 183295, Note_on_c, 0, 60, 76
2, 183317, Note_off_c, 0, 62, 64
2, 183320, Note_off_c, 0, 77, 64
2, 183323, Note_off_c, 0, 81, 64
2, 183360, Note_on_c, 0, 62, 69
2, 183363, Note_off_c, 0, 60, 64
2, 183398, Note_on_c, 0, 60, 67
2, 183416, Note_off_c, 0, 62, 64
2, 183454, Note_on_c, 0, 62, 71
2, 183465, Note_off_c, 0, 60, 64
2, 183502, Note_on_c, 0, 60, 68
2, 183512, Note_off_c, 0, 62, 64
2, 183556, Note_on_c, 0, 62, 72
2, 183559, Note_off_c, 0, 60, 64
2, 183595, Note_on_c, 0, 60, 63
2, 183611, Note_off_c, 0, 62, 64
2, 183651, Note_on_c, 0, 62, 67
2, 183655, Note_off_c, 0, 60, 64
2, 183699, Note_on_c, 0, 60, 69
2, 183708, Note_off_c, 0, 62, 64
2, 183753, Note_on_c, 0, 62, 71
2, 183754, Note_off_c, 0, 60, 64
2, 183789, Note_on_c, 0, 60, 71
2, 183805, Note_off_c, 0, 62, 64
2, 183844, Note_on_c, 0, 62, 73
2, 183846, Note_off_c, 0, 60, 64
2, 183862, Note_on_c, 0, 72, 85
2, 183885, Note_on_c, 0, 60, 75
2, 183912, Note_off_c, 0, 62, 64
2, 183918, Note_on_c, 0, 69, 86
2, 183919, Note_off_c, 0, 72, 64
2, 183941, Note_off_c, 0, 60, 64
2, 183948, Note_on_c, 0, 62, 68
2, 183951, Note_on_c, 0, 72, 84
2, 183967, Note_off_c, 0, 69, 64
2, 183985, Note_on_c, 0, 60, 67
2, 183994, Note_on_c, 0, 69, 75
2, 184003, Note_off_c, 0, 62, 64
2, 184010, Note_off_c, 0, 72, 64
2, 184034, Note_on_c, 0, 65, 79
2, 184044, Note_off_c, 0, 69, 64
2, 184049, Note_on_c, 0, 62, 77
2, 184056, Note_off_c, 0, 60, 64
2, 184071, Note_off_c, 0, 65, 64
2, 184097, Note_on_c, 0, 60, 71
2, 184107, Note_off_c, 0, 62, 64
2, 184156, Note_on_c, 0, 62, 71
2, 184161, Note_off_c, 0, 60, 64
2, 184205, Note_on_c, 0, 60, 67
2, 184212, Note_off_c, 0, 62, 64
2, 184230, Note_on_c, 0, 77, 96
2, 184230, Note_on_c, 0, 69, 100
2, 184260, Note_off_c, 0, 69, 64
2, 184262, Note_on_c, 0, 62, 69
2, 184269, Note_off_c, 0, 77, 64
2, 184275, Note_off_c, 0, 60, 64
2, 184312, Note_on_c, 0, 60, 77
2, 184328, Note_off_c, 0, 62, 64
2, 184373, Note_off_c, 0, 60, 64
2, 184373, Note_on_c, 0, 62, 66
2, 184412, Note_on_c, 0, 60, 71
2, 184418, Note_on_c, 0, 81, 96
2, 184425, Note_on_c, 0, 77, 95
2, 184428, Note_off_c, 0, 62, 64
2, 184448, Note_off_c, 0, 77, 64
2, 184459, Note_off_c, 0, 81, 64
2, 184480, Note_on_c, 0, 62, 74
2, 184483, Note_off_c, 0, 60, 64
2, 184526, Note_on_c, 0, 60, 66
2, 184539, Note_off_c, 0, 62, 64
2, 184599, Note_on_c, 0, 62, 74
2, 184606, Note_off_c, 0, 60, 64
2, 184615, Note_on_c, 0, 81, 105
2, 184619, Note_on_c, 0, 84, 101
2, 184644, Note_on_c, 0, 60, 71
2, 184646, Note_off_c, 0, 81, 64
2, 184653, Note_off_c, 0, 84, 64
2, 184666, Note_off_c, 0, 62, 64
2, 184705, Note_on_c, 0, 62, 67
2, 184710, Note_off_c, 0, 60, 64
2, 184753, Note_on_c, 0, 60, 64
2, 184765, Note_off_c, 0, 62, 64
2, 184792, Control_c, 0, 64, 0
2, 184804, Note_on_c, 0, 79, 93
2, 184806, Note_on_c, 0, 82, 102
2, 184813, Note_on_c, 0, 62, 75
2, 184820, Control_c, 0, 64, 127
2, 184833, Note_off_c, 0, 60, 64
2, 184867, Note_on_c, 0, 60, 72
2, 184874, Note_off_c, 0, 62, 64
2, 184917, Note_off_c, 0, 79, 64
2, 184919, Note_off_c, 0, 82, 64
2, 184924, Note_on_c, 0, 62, 72
2, 184934, Note_off_c, 0, 60, 64
2, 184969, Note_on_c, 0, 60, 73
2, 184984, Note_off_c, 0, 62, 64
2, 185026, Note_on_c, 0, 62, 71
2, 185032, Note_off_c, 0, 60, 64
2, 185075, Note_on_c, 0, 60, 65
2, 185084, Note_off_c, 0, 62, 64
2, 185130, Note_on_c, 0, 62, 67
2, 185139, Note_off_c, 0, 60, 64
2, 185174, Note_on_c, 0, 60, 74
2, 185186, Note_off_c, 0, 62, 64
2, 185231, Note_off_c, 0, 60, 64
2, 185231, Note_on_c, 0, 62, 63
2, 185272, Note_on_c, 0, 60, 66
2, 185289, Note_off_c, 0, 62, 64
2, 185333, Note_off_c, 0, 60, 64
2, 185335, Note_on_c, 0, 62, 54
2, 185371, Note_on_c, 0, 60, 67
2, 185378, Note_on_c, 0, 70, 84
2, 185395, Note_off_c, 0, 62, 64
2, 185424, Note_on_c, 0, 67, 72
2, 185432, Note_on_c, 0, 62, 60
2, 185435, Note_off_c, 0, 70, 64
2, 185440, Note_off_c, 0, 60, 64
2, 185465, Note_on_c, 0, 70, 84
2, 185477, Note_off_c, 0, 67, 64
2, 185478, Note_on_c, 0, 60, 67
2, 185499, Note_off_c, 0, 62, 64
2, 185509, Note_on_c, 0, 67, 76
2, 185530, Note_off_c, 0, 70, 64
2, 185538, Note_on_c, 0, 62, 66
2, 185551, Note_on_c, 0, 64, 74
2, 185554, Note_off_c, 0, 60, 64
2, 185555, Note_off_c, 0, 67, 64
2, 185583, Note_off_c, 0, 64, 64
2, 185583, Note_on_c, 0, 60, 71
2, 185599, Note_off_c, 0, 62, 64
2, 185650, Note_on_c, 0, 62, 67
2, 185660, Note_off_c, 0, 60, 64
2, 185691, Note_on_c, 0, 60, 59
2, 185704, Note_off_c, 0, 62, 64
2, 185744, Note_on_c, 0, 76, 92
2, 185749, Note_on_c, 0, 70, 100
2, 185751, Note_on_c, 0, 62, 73
2, 185763, Note_off_c, 0, 60, 64
2, 185779, Note_off_c, 0, 70, 64
2, 185787, Note_off_c, 0, 76, 64
2, 185796, Note_on_c, 0, 60, 71
2, 185810, Note_off_c, 0, 62, 64
2, 185861, Note_off_c, 0, 60, 64
2, 185863, Note_on_c, 0, 62, 54
2, 185895, Note_on_c, 0, 60, 69
2, 185915, Note_off_c, 0, 62, 64
2, 185933, Note_on_c, 0, 79, 92
2, 185938, Note_on_c, 0, 76, 92
2, 185960, Note_on_c, 0, 62, 65
2, 185964, Note_off_c, 0, 60, 64
2, 185969, Note_off_c, 0, 76, 64
2, 185991, Note_off_c, 0, 79, 64
2, 186000, Note_on_c, 0, 60, 65
2, 186028, Note_off_c, 0, 62, 64
2, 186055, Note_off_c, 0, 60, 64
2, 186069, Note_on_c, 0, 62, 42
2, 186112, Note_on_c, 0, 79, 88
2, 186120, Note_on_c, 0, 60, 67
2, 186121, Note_on_c, 0, 82, 93
2, 186156, Note_off_c, 0, 79, 64
2, 186180, Note_off_c, 0, 82, 64
2, 186202, Note_off_c, 0, 60, 64
2, 186217, Note_on_c, 0, 59, 78
2, 186226, Note_off_c, 0, 62, 64
2, 186248, Note_on_c, 0, 60, 67
2, 186293, Note_off_c, 0, 59, 64
2, 186305, Note_on_c, 0, 81, 78
2, 186312, Note_on_c, 0, 65, 86
2, 186313, Control_c, 0, 64, 0
2, 186330, Note_off_c, 0, 60, 64
2, 186355, Control_c, 0, 64, 127
2, 186362, Note_on_c, 0, 82, 75
2, 186388, Note_off_c, 0, 81, 64
2, 186421, Note_on_c, 0, 84, 67
2, 186424, Note_off_c, 0, 82, 64
2, 186464, Note_on_c, 0, 82, 71
2, 186486, Note_off_c, 0, 84, 64
2, 186502, Note_on_c, 0, 81, 80
2, 186502, Control_c, 0, 64, 0
2, 186512, Note_on_c, 0, 67, 68
2, 186521, Note_off_c, 0, 82, 64
2, 186535, Note_off_c, 0, 65, 64
2, 186550, Note_on_c, 0, 79, 72
2, 186550, Control_c, 0, 64, 127
2, 186571, Note_off_c, 0, 81, 64
2, 186598, Note_on_c, 0, 77, 84
2, 186600, Note_off_c, 0, 79, 64
2, 186652, Note_on_c, 0, 76, 79
2, 186671, Note_off_c, 0, 77, 64
2, 186696, Control_c, 0, 64, 0
2, 186702, Note_off_c, 0, 67, 64
2, 186704, Note_on_c, 0, 77, 80
2, 186709, Note_on_c, 0, 69, 67
2, 186712, Control_c, 0, 64, 127
2, 186719, Note_off_c, 0, 76, 64
2, 186752, Note_on_c, 0, 79, 53
2, 186763, Note_off_c, 0, 77, 64
2, 186792, Note_on_c, 0, 81, 68
2, 186824, Note_off_c, 0, 79, 64
2, 186842, Note_on_c, 0, 79, 53
2, 186866, Note_off_c, 0, 81, 64
2, 186872, Note_on_c, 0, 57, 73
2, 186883, Note_on_c, 0, 77, 70
2, 186906, Control_c, 0, 64, 0
2, 186914, Note_off_c, 0, 79, 64
2, 186929, Note_on_c, 0, 76, 67
2, 186938, Control_c, 0, 64, 127
2, 186948, Note_off_c, 0, 77, 64
2, 186968, Note_off_c, 0, 76, 64
2, 186971, Note_on_c, 0, 74, 84
2, 187018, Note_on_c, 0, 73, 81
2, 187020, Note_off_c, 0, 74, 64
2, 187056, Note_on_c, 0, 74, 79
2, 187064, Note_on_c, 0, 58, 76
2, 187066, Note_off_c, 0, 73, 64
2, 187067, Note_off_c, 0, 69, 64
2, 187069, Note_off_c, 0, 57, 64
2, 187099, Control_c, 0, 64, 0
2, 187112, Note_on_c, 0, 76, 88
2, 187123, Note_off_c, 0, 74, 64
2, 187149, Control_c, 0, 64, 127
2, 187152, Note_on_c, 0, 77, 67
2, 187180, Note_off_c, 0, 76, 64
2, 187200, Note_on_c, 0, 76, 71
2, 187210, Note_off_c, 0, 77, 64
2, 187246, Note_off_c, 0, 58, 64
2, 187248, Note_on_c, 0, 60, 71
2, 187256, Note_on_c, 0, 74, 85
2, 187263, Note_off_c, 0, 76, 64
2, 187287, Control_c, 0, 64, 0
2, 187303, Note_off_c, 0, 74, 64
2, 187316, Note_on_c, 0, 72, 86
2, 187332, Control_c, 0, 64, 127
2, 187368, Note_on_c, 0, 70, 94
2, 187382, Note_off_c, 0, 72, 64
2, 187420, Note_on_c, 0, 69, 75
2, 187425, Note_off_c, 0, 70, 64
2, 187437, Note_off_c, 0, 60, 64
2, 187456, Note_on_c, 0, 62, 67
2, 187466, Note_on_c, 0, 70, 80
2, 187466, Control_c, 0, 64, 0
2, 187488, Note_off_c, 0, 69, 64
2, 187512, Note_on_c, 0, 72, 46
2, 187513, Control_c, 0, 64, 127
2, 187529, Note_off_c, 0, 62, 64
2, 187544, Note_off_c, 0, 70, 64
2, 187572, Note_on_c, 0, 74, 78
2, 187586, Note_off_c, 0, 72, 64
2, 187619, Note_on_c, 0, 72, 70
2, 187635, Note_off_c, 0, 74, 64
2, 187664, Note_on_c, 0, 70, 88
2, 187679, Note_off_c, 0, 72, 64
2, 187720, Note_on_c, 0, 69, 44
2, 187738, Note_off_c, 0, 70, 64
2, 187744, Note_on_c, 0, 45, 71
2, 187760, Note_on_c, 0, 67, 84
2, 187766, Note_off_c, 0, 69, 64
2, 187808, Note_on_c, 0, 66, 79
2, 187816, Note_off_c, 0, 67, 64
2, 187840, Note_on_c, 0, 46, 72
2, 187843, Note_on_c, 0, 67, 81
2, 187849, Control_c, 0, 64, 0
2, 187855, Note_off_c, 0, 45, 64
2, 187864, Note_off_c, 0, 66, 64
2, 187881, Note_on_c, 0, 70, 90
2, 187898, Control_c, 0, 64, 127
2, 187909, Note_off_c, 0, 67, 64
2, 187933, Note_on_c, 0, 74, 73
2, 187944, Note_off_c, 0, 70, 64
2, 187944, Note_off_c, 0, 46, 64
2, 187987, Note_on_c, 0, 72, 76
2, 187994, Note_off_c, 0, 74, 64
2, 188033, Note_on_c, 0, 70, 80
2, 188068, Note_off_c, 0, 72, 64
2, 188086, Note_on_c, 0, 69, 68
2, 188108, Note_off_c, 0, 70, 64
2, 188130, Note_on_c, 0, 67, 81
2, 188139, Note_on_c, 0, 46, 56
2, 188145, Note_off_c, 0, 69, 64
2, 188168, Note_on_c, 0, 65, 67
2, 188187, Note_off_c, 0, 67, 64
2, 188210, Control_c, 0, 64, 0
2, 188215, Note_off_c, 0, 46, 64
2, 188216, Note_on_c, 0, 64, 67
2, 188218, Note_on_c, 0, 48, 70
2, 188225, Note_off_c, 0, 65, 64
2, 188263, Control_c, 0, 64, 127
2, 188264, Note_on_c, 0, 65, 71
2, 188280, Note_off_c, 0, 64, 64
2, 188299, Note_on_c, 0, 67, 45
2, 188312, Note_off_c, 0, 65, 64
2, 188337, Note_on_c, 0, 65, 71
2, 188360, Note_off_c, 0, 67, 64
2, 188380, Note_on_c, 0, 64, 80
2, 188409, Note_off_c, 0, 65, 64
2, 188428, Note_on_c, 0, 62, 85
2, 188428, Note_on_c, 0, 52, 76
2, 188439, Note_off_c, 0, 48, 64
2, 188448, Note_off_c, 0, 64, 64
2, 188474, Note_on_c, 0, 60, 84
2, 188490, Note_off_c, 0, 62, 64
2, 188494, Note_off_c, 0, 52, 64
2, 188528, Note_on_c, 0, 58, 86
2, 188546, Note_off_c, 0, 60, 64
2, 188589, Note_off_c, 0, 58, 64
2, 188591, Note_on_c, 0, 57, 85
2, 188599, Control_c, 0, 64, 0
2, 188603, Note_on_c, 0, 53, 73
2, 188607, Note_on_c, 0, 41, 71
2, 188643, Control_c, 0, 64, 127
2, 188652, Note_off_c, 0, 57, 64
2, 188654, Note_on_c, 0, 65, 77
2, 188690, Note_on_c, 0, 64, 67
2, 188708, Note_off_c, 0, 65, 64
2, 188721, Note_off_c, 0, 41, 64
2, 188750, Note_on_c, 0, 65, 84
2, 188759, Note_off_c, 0, 64, 64
2, 188759, Control_c, 0, 64, 0
2, 188764, Note_off_c, 0, 53, 64
2, 188790, Note_on_c, 0, 69, 86
2, 188800, Control_c, 0, 64, 127
2, 188806, Note_off_c, 0, 65, 64
2, 188840, Note_on_c, 0, 65, 80
2, 188856, Note_off_c, 0, 69, 64
2, 188890, Note_on_c, 0, 64, 79
2, 188905, Note_off_c, 0, 65, 64
2, 188932, Note_on_c, 0, 65, 78
2, 188945, Note_off_c, 0, 64, 64
2, 188978, Note_on_c, 0, 60, 88
2, 188987, Note_off_c, 0, 65, 64
2, 188988, Note_on_c, 0, 57, 71
2, 188988, Control_c, 0, 64, 0
2, 189025, Note_on_c, 0, 65, 81
2, 189038, Control_c, 0, 64, 127
2, 189059, Note_off_c, 0, 60, 64
2, 189063, Note_off_c, 0, 57, 64
2, 189074, Note_on_c, 0, 64, 74
2, 189086, Note_off_c, 0, 65, 64
2, 189120, Note_on_c, 0, 65, 78
2, 189135, Note_off_c, 0, 64, 64
2, 189177, Note_on_c, 0, 62, 88
2, 189178, Control_c, 0, 64, 0
2, 189182, Note_off_c, 0, 65, 64
2, 189183, Note_on_c, 0, 58, 88
2, 189220, Note_on_c, 0, 65, 81
2, 189229, Control_c, 0, 64, 127
2, 189244, Note_off_c, 0, 62, 64
2, 189272, Note_on_c, 0, 64, 79
2, 189286, Note_off_c, 0, 65, 64
2, 189318, Note_on_c, 0, 65, 79
2, 189334, Note_off_c, 0, 64, 64
2, 189373, Control_c, 0, 64, 0
2, 189381, Note_off_c, 0, 65, 64
2, 189381, Note_on_c, 0, 60, 90
2, 189382, Note_on_c, 0, 57, 79
2, 189386, Note_off_c, 0, 58, 64
2, 189427, Control_c, 0, 64, 127
2, 189432, Note_on_c, 0, 65, 84
2, 189465, Note_on_c, 0, 64, 80
2, 189491, Note_off_c, 0, 65, 64
2, 189491, Note_off_c, 0, 60, 64
2, 189518, Note_off_c, 0, 57, 64
2, 189523, Note_on_c, 0, 65, 69
2, 189543, Note_off_c, 0, 64, 64
2, 189558, Control_c, 0, 64, 0
2, 189563, Note_on_c, 0, 69, 77
2, 189570, Control_c, 0, 64, 127
2, 189578, Note_off_c, 0, 65, 64
2, 189621, Note_on_c, 0, 65, 79
2, 189630, Note_off_c, 0, 69, 64
2, 189667, Note_on_c, 0, 64, 80
2, 189672, Note_off_c, 0, 65, 64
2, 189710, Note_on_c, 0, 65, 84
2, 189726, Note_off_c, 0, 64, 64
2, 189754, Control_c, 0, 64, 0
2, 189759, Note_on_c, 0, 57, 67
2, 189765, Note_on_c, 0, 72, 84
2, 189773, Note_off_c, 0, 65, 64
2, 189808, Note_on_c, 0, 65, 79
2, 189811, Control_c, 0, 64, 127
2, 189831, Note_off_c, 0, 72, 64
2, 189854, Note_on_c, 0, 64, 73
2, 189864, Note_off_c, 0, 65, 64
2, 189866, Note_off_c, 0, 57, 64
2, 189900, Note_on_c, 0, 65, 77
2, 189916, Note_off_c, 0, 64, 64
2, 189948, Note_on_c, 0, 74, 85
2, 189959, Note_off_c, 0, 65, 64
2, 189964, Note_on_c, 0, 58, 74
2, 189971, Control_c, 0, 64, 0
2, 189998, Note_on_c, 0, 65, 77
2, 190013, Control_c, 0, 64, 127
2, 190020, Note_off_c, 0, 74, 64
2, 190049, Note_on_c, 0, 64, 66
2, 190055, Note_off_c, 0, 65, 64
2, 190081, Note_off_c, 0, 58, 64
2, 190098, Note_on_c, 0, 65, 77
2, 190121, Note_off_c, 0, 64, 64
2, 190152, Note_on_c, 0, 72, 88
2, 190156, Note_on_c, 0, 57, 76
2, 190161, Control_c, 0, 64, 0
2, 190165, Note_off_c, 0, 65, 64
2, 190198, Note_on_c, 0, 65, 78
2, 190212, Control_c, 0, 64, 127
2, 190226, Note_off_c, 0, 72, 64
2, 190247, Note_on_c, 0, 64, 77
2, 190256, Note_off_c, 0, 65, 64
2, 190295, Note_on_c, 0, 65, 77
2, 190307, Note_off_c, 0, 57, 64
2, 190314, Note_off_c, 0, 64, 64
2, 190340, Control_c, 0, 64, 0
2, 190346, Note_on_c, 0, 69, 86
2, 190355, Note_off_c, 0, 65, 64
2, 190392, Note_on_c, 0, 65, 73
2, 190392, Control_c, 0, 64, 127
2, 190408, Note_off_c, 0, 69, 64
2, 190428, Note_on_c, 0, 64, 78
2, 190442, Note_off_c, 0, 65, 64
2, 190475, Note_off_c, 0, 64, 64
2, 190516, Note_on_c, 0, 65, 26
2, 190545, Note_off_c, 0, 65, 64
2, 190550, Note_on_c, 0, 57, 75
2, 190554, Note_on_c, 0, 60, 85
2, 190560, Control_c, 0, 64, 0
2, 190588, Note_on_c, 0, 65, 57
2, 190600, Control_c, 0, 64, 127
2, 190618, Note_off_c, 0, 57, 64
2, 190632, Note_off_c, 0, 60, 64
2, 190640, Note_on_c, 0, 64, 84
2, 190656, Note_off_c, 0, 65, 64
2, 190689, Note_on_c, 0, 65, 78
2, 190706, Note_off_c, 0, 64, 64
2, 190738, Control_c, 0, 64, 0
2, 190742, Note_on_c, 0, 58, 71
2, 190746, Note_on_c, 0, 62, 85
2, 190753, Note_off_c, 0, 65, 64
2, 190790, Control_c, 0, 64, 127
2, 190795, Note_on_c, 0, 65, 74
2, 190811, Note_off_c, 0, 62, 64
2, 190845, Note_on_c, 0, 64, 75
2, 190852, Note_off_c, 0, 58, 64
2, 190855, Note_off_c, 0, 65, 64
2, 190893, Note_on_c, 0, 65, 70
2, 190908, Note_off_c, 0, 64, 64
2, 190929, Note_on_c, 0, 60, 84
2, 190934, Note_on_c, 0, 57, 68
2, 190938, Note_off_c, 0, 65, 64
2, 190943, Control_c, 0, 64, 0
2, 190977, Note_on_c, 0, 65, 75
2, 190992, Control_c, 0, 64, 127
2, 191023, Note_on_c, 0, 64, 66
2, 191027, Note_off_c, 0, 57, 64
2, 191033, Note_off_c, 0, 60, 64
2, 191035, Note_off_c, 0, 65, 64
2, 191076, Note_on_c, 0, 65, 74
2, 191096, Note_off_c, 0, 64, 64
2, 191117, Note_on_c, 0, 69, 81
2, 191131, Note_off_c, 0, 65, 64
2, 191171, Note_on_c, 0, 65, 71
2, 191200, Note_off_c, 0, 69, 64
2, 191216, Note_off_c, 0, 65, 64
2, 191223, Note_on_c, 0, 64, 72
2, 191261, Note_on_c, 0, 65, 84
2, 191283, Note_off_c, 0, 64, 64
2, 191309, Control_c, 0, 64, 0
2, 191316, Note_on_c, 0, 72, 86
2, 191316, Note_on_c, 0, 57, 67
2, 191327, Note_off_c, 0, 65, 64
2, 191353, Control_c, 0, 64, 127
2, 191361, Note_on_c, 0, 65, 73
2, 191380, Note_off_c, 0, 57, 64
2, 191383, Note_off_c, 0, 72, 64
2, 191404, Note_on_c, 0, 64, 71
2, 191413, Note_off_c, 0, 65, 64
2, 191449, Note_on_c, 0, 65, 70
2, 191466, Note_off_c, 0, 64, 64
2, 191496, Note_on_c, 0, 74, 79
2, 191502, Note_off_c, 0, 65, 64
2, 191504, Note_on_c, 0, 58, 65
2, 191505, Control_c, 0, 64, 0
2, 191541, Note_on_c, 0, 65, 71
2, 191547, Control_c, 0, 64, 127
2, 191557, Note_off_c, 0, 74, 64
2, 191563, Note_off_c, 0, 58, 64
2, 191595, Note_on_c, 0, 64, 56
2, 191601, Note_off_c, 0, 65, 64
2, 191640, Note_on_c, 0, 65, 71
2, 191664, Note_off_c, 0, 64, 64
2, 191685, Note_on_c, 0, 72, 88
2, 191694, Control_c, 0, 64, 0
2, 191700, Note_on_c, 0, 57, 64
2, 191702, Note_off_c, 0, 65, 64
2, 191732, Note_on_c, 0, 65, 75
2, 191747, Control_c, 0, 64, 127
2, 191753, Note_off_c, 0, 72, 64
2, 191759, Note_off_c, 0, 57, 64
2, 191779, Note_on_c, 0, 64, 79
2, 191793, Note_off_c, 0, 65, 64
2, 191827, Note_on_c, 0, 65, 84
2, 191844, Note_off_c, 0, 64, 64
2, 191879, Note_on_c, 0, 74, 90
2, 191882, Note_on_c, 0, 58, 63
2, 191888, Control_c, 0, 64, 0
2, 191891, Note_off_c, 0, 65, 64
2, 191918, Note_on_c, 0, 65, 78
2, 191928, Control_c, 0, 64, 127
2, 191941, Note_off_c, 0, 74, 64
2, 191944, Note_off_c, 0, 58, 64
2, 191966, Note_on_c, 0, 64, 71
2, 191975, Note_off_c, 0, 65, 64
2, 192010, Note_on_c, 0, 65, 78
2, 192032, Note_off_c, 0, 64, 64
2, 192061, Note_on_c, 0, 72, 97
2, 192070, Note_on_c, 0, 57, 67
2, 192077, Note_off_c, 0, 65, 64
2, 192079, Control_c, 0, 64, 0
2, 192110, Note_on_c, 0, 65, 72
2, 192119, Control_c, 0, 64, 127
2, 192129, Note_off_c, 0, 72, 64
2, 192138, Note_off_c, 0, 57, 64
2, 192148, Note_on_c, 0, 64, 68
2, 192164, Note_off_c, 0, 65, 64
2, 192204, Note_on_c, 0, 65, 64
2, 192220, Note_off_c, 0, 64, 64
2, 192247, Control_c, 0, 64, 0
2, 192252, Note_on_c, 0, 74, 86
2, 192263, Note_off_c, 0, 65, 64
2, 192265, Note_on_c, 0, 58, 68
2, 192291, Control_c, 0, 64, 127
2, 192299, Note_on_c, 0, 65, 76
2, 192318, Note_off_c, 0, 74, 64
2, 192342, Note_off_c, 0, 58, 64
2, 192348, Note_on_c, 0, 64, 67
2, 192357, Note_off_c, 0, 65, 64
2, 192396, Note_on_c, 0, 65, 75
2, 192419, Note_off_c, 0, 64, 64
2, 192440, Control_c, 0, 64, 0
2, 192444, Note_on_c, 0, 57, 63
2, 192448, Note_on_c, 0, 72, 90
2, 192462, Note_off_c, 0, 65, 64
2, 192494, Note_on_c, 0, 65, 73
2, 192503, Control_c, 0, 64, 127
2, 192517, Note_off_c, 0, 72, 64
2, 192539, Note_on_c, 0, 64, 67
2, 192550, Note_off_c, 0, 65, 64
2, 192586, Note_on_c, 0, 65, 73
2, 192609, Note_off_c, 0, 64, 64
2, 192630, Note_on_c, 0, 72, 86
2, 192645, Note_off_c, 0, 65, 64
2, 192681, Note_on_c, 0, 65, 75
2, 192701, Note_off_c, 0, 72, 64
2, 192727, Note_on_c, 0, 64, 65
2, 192734, Note_off_c, 0, 65, 64
2, 192775, Note_on_c, 0, 65, 73
2, 192794, Note_off_c, 0, 64, 64
2, 192815, Note_on_c, 0, 72, 88
2, 192819, Note_on_c, 0, 56, 71
2, 192821, Note_on_c, 0, 60, 65
2, 192826, Control_c, 0, 64, 0
2, 192829, Note_off_c, 0, 65, 64
2, 192842, Note_off_c, 0, 57, 64
2, 192863, Note_on_c, 0, 65, 77
2, 192878, Control_c, 0, 64, 127
2, 192893, Note_off_c, 0, 72, 64
2, 192912, Note_on_c, 0, 64, 67
2, 192924, Note_off_c, 0, 65, 64
2, 192964, Note_on_c, 0, 65, 67
2, 192985, Note_off_c, 0, 64, 64
2, 192998, Note_on_c, 0, 72, 80
2, 193014, Note_off_c, 0, 65, 64
2, 193057, Note_on_c, 0, 65, 74
2, 193074, Note_off_c, 0, 72, 64
2, 193099, Note_off_c, 0, 60, 64
2, 193100, Note_on_c, 0, 64, 57
2, 193106, Note_off_c, 0, 65, 64
2, 193142, Note_off_c, 0, 56, 64
2, 193146, Note_on_c, 0, 65, 72
2, 193168, Note_off_c, 0, 64, 64
2, 193182, Note_on_c, 0, 55, 54
2, 193188, Note_on_c, 0, 62, 58
2, 193191, Note_on_c, 0, 71, 88
2, 193203, Control_c, 0, 64, 0
2, 193208, Note_off_c, 0, 65, 64
2, 193242, Note_on_c, 0, 65, 74
2, 193253, Control_c, 0, 64, 127
2, 193264, Note_off_c, 0, 71, 64
2, 193286, Note_on_c, 0, 64, 67
2, 193299, Note_off_c, 0, 65, 64
2, 193333, Note_on_c, 0, 65, 74
2, 193361, Note_off_c, 0, 64, 64
2, 193378, Note_on_c, 0, 71, 84
2, 193391, Note_off_c, 0, 65, 64
2, 193410, Note_off_c, 0, 55, 64
2, 193439, Note_off_c, 0, 62, 64
2, 193440, Note_on_c, 0, 65, 54
2, 193447, Note_off_c, 0, 71, 64
2, 193476, Note_off_c, 0, 65, 64
2, 193483, Note_on_c, 0, 64, 72
2, 193514, Note_on_c, 0, 65, 74
2, 193529, Note_off_c, 0, 64, 64
2, 193555, Note_off_c, 0, 65, 64
2, 193567, Note_on_c, 0, 52, 65
2, 193574, Note_on_c, 0, 60, 63
2, 193577, Note_on_c, 0, 70, 96
2, 193578, Control_c, 0, 64, 0
2, 193619, Note_on_c, 0, 67, 75
2, 193629, Control_c, 0, 64, 127
2, 193642, Note_off_c, 0, 70, 64
2, 193673, Note_on_c, 0, 66, 84
2, 193680, Note_off_c, 0, 67, 64
2, 193710, Note_on_c, 0, 67, 76
2, 193721, Note_off_c, 0, 66, 64
2, 193755, Note_on_c, 0, 70, 94
2, 193770, Note_off_c, 0, 67, 64
2, 193805, Note_off_c, 0, 70, 64
2, 193811, Note_on_c, 0, 67, 37
2, 193838, Note_on_c, 0, 66, 86
2, 193839, Note_off_c, 0, 67, 64
2, 193878, Note_off_c, 0, 60, 64
2, 193881, Note_on_c, 0, 67, 71
2, 193892, Note_off_c, 0, 66, 64
2, 193913, Note_off_c, 0, 67, 64
2, 193936, Note_off_c, 0, 52, 64
2, 193944, Note_on_c, 0, 53, 67
2, 193947, Note_on_c, 0, 60, 67
2, 193951, Note_on_c, 0, 69, 84
2, 193955, Control_c, 0, 64, 0
2, 194012, Control_c, 0, 64, 127
2, 194036, Note_on_c, 0, 77, 71
2, 194072, Note_off_c, 0, 69, 64
2, 194117, Note_off_c, 0, 77, 64
2, 194136, Note_on_c, 0, 79, 85
2, 194183, Note_off_c, 0, 53, 64
2, 194189, Note_off_c, 0, 60, 64
2, 194194, Note_on_c, 0, 77, 76
2, 194208, Note_off_c, 0, 79, 64
2, 194232, Note_on_c, 0, 76, 74
2, 194255, Note_off_c, 0, 77, 64
2, 194269, Note_on_c, 0, 74, 88
2, 194281, Note_off_c, 0, 76, 64
2, 194307, Note_off_c, 0, 74, 64
2, 194338, Note_on_c, 0, 74, 92
2, 194384, Note_on_c, 0, 72, 67
2, 194401, Note_off_c, 0, 74, 64
2, 194423, Note_on_c, 0, 70, 88
2, 194452, Note_off_c, 0, 72, 64
2, 194481, Note_on_c, 0, 69, 64
2, 194489, Note_off_c, 0, 70, 64
2, 194510, Note_off_c, 0, 69, 64
2, 194528, Note_on_c, 0, 45, 69
2, 194530, Note_on_c, 0, 53, 69
2, 194537, Note_on_c, 0, 69, 81
2, 194544, Control_c, 0, 64, 0
2, 194573, Control_c, 0, 64, 127
2, 194580, Note_on_c, 0, 67, 69
2, 194592, Note_off_c, 0, 45, 64
2, 194603, Note_off_c, 0, 69, 64
2, 194616, Note_on_c, 0, 65, 88
2, 194648, Note_off_c, 0, 67, 64
2, 194656, Note_on_c, 0, 64, 88
2, 194674, Note_off_c, 0, 65, 64
2, 194703, Note_off_c, 0, 64, 64
2, 194710, Note_on_c, 0, 62, 84
2, 194724, Note_on_c, 0, 46, 77
2, 194725, Control_c, 0, 64, 0
2, 194772, Control_c, 0, 64, 127
2, 194813, Note_on_c, 0, 73, 71
2, 194833, Note_off_c, 0, 53, 64
2, 194858, Note_on_c, 0, 74, 72
2, 194874, Note_off_c, 0, 73, 64
2, 194884, Note_off_c, 0, 62, 64
2, 194901, Note_on_c, 0, 58, 81
2, 194912, Note_on_c, 0, 72, 79
2, 194921, Control_c, 0, 64, 0
2, 194927, Note_off_c, 0, 74, 64
2, 194950, Note_on_c, 0, 70, 86
2, 194953, Control_c, 0, 64, 127
2, 194974, Note_off_c, 0, 72, 64
2, 195004, Note_on_c, 0, 69, 75
2, 195018, Note_off_c, 0, 46, 64
2, 195028, Note_off_c, 0, 70, 64
2, 195034, Note_off_c, 0, 58, 64
2, 195048, Note_on_c, 0, 67, 84
2, 195055, Note_off_c, 0, 69, 64
2, 195100, Note_on_c, 0, 48, 69
2, 195102, Note_on_c, 0, 57, 71
2, 195104, Control_c, 0, 64, 0
2, 195109, Note_on_c, 0, 65, 94
2, 195125, Note_off_c, 0, 67, 64
2, 195156, Control_c, 0, 64, 127
2, 195214, Note_off_c, 0, 65, 64
2, 195252, Note_on_c, 0, 64, 71
2, 195283, Note_on_c, 0, 65, 79
2, 195287, Note_off_c, 0, 57, 64
2, 195290, Control_c, 0, 64, 0
2, 195297, Note_on_c, 0, 55, 57
2, 195300, Note_off_c, 0, 64, 64
2, 195314, Control_c, 0, 64, 127
2, 195336, Note_on_c, 0, 64, 79
2, 195352, Note_off_c, 0, 65, 64
2, 195373, Note_on_c, 0, 62, 71
2, 195384, Note_off_c, 0, 64, 64
2, 195410, Note_on_c, 0, 64, 79
2, 195421, Note_off_c, 0, 62, 64
2, 195438, Note_off_c, 0, 64, 64
2, 195450, Note_off_c, 0, 55, 64
2, 195459, Note_off_c, 0, 48, 64
2, 195472, Note_on_c, 0, 65, 86
2, 195479, Note_on_c, 0, 57, 63
2, 195479, Note_on_c, 0, 53, 55
2, 195488, Control_c, 0, 64, 0
2, 195525, Control_c, 0, 64, 127
2, 195532, Note_on_c, 0, 77, 53
2, 195544, Note_off_c, 0, 65, 64
2, 195575, Note_off_c, 0, 77, 64
2, 195586, Note_on_c, 0, 76, 49
2, 195625, Note_on_c, 0, 77, 53
2, 195641, Note_off_c, 0, 76, 64
2, 195669, Note_on_c, 0, 79, 59
2, 195680, Note_off_c, 0, 53, 64
2, 195684, Note_off_c, 0, 77, 64
2, 195687, Note_off_c, 0, 57, 64
2, 195704, Note_on_c, 0, 77, 53
2, 195744, Note_off_c, 0, 79, 64
2, 195749, Note_off_c, 0, 77, 64
2, 195752, Note_on_c, 0, 76, 63
2, 195797, Note_off_c, 0, 76, 64
2, 195800, Note_on_c, 0, 74, 68
2, 195829, Note_off_c, 0, 74, 64
2, 195856, Note_on_c, 0, 74, 67
2, 195896, Note_on_c, 0, 72, 63
2, 195920, Note_off_c, 0, 74, 64
2, 195933, Note_on_c, 0, 70, 64
2, 195983, Note_on_c, 0, 69, 53
2, 195995, Note_off_c, 0, 70, 64
2, 196001, Note_off_c, 0, 72, 64
2, 196018, Note_off_c, 0, 69, 64
2, 196035, Note_on_c, 0, 53, 48
2, 196039, Note_on_c, 0, 45, 50
2, 196043, Note_on_c, 0, 69, 60
2, 196056, Control_c, 0, 64, 0
2, 196067, Control_c, 0, 64, 127
2, 196092, Note_on_c, 0, 67, 50
2, 196102, Note_off_c, 0, 69, 64
2, 196103, Note_off_c, 0, 45, 64
2, 196126, Note_on_c, 0, 65, 59
2, 196152, Note_off_c, 0, 67, 64
2, 196175, Note_on_c, 0, 64, 65
2, 196191, Note_off_c, 0, 65, 64
2, 196215, Note_on_c, 0, 62, 64
2, 196222, Note_off_c, 0, 64, 64
2, 196228, Note_on_c, 0, 46, 53
2, 196229, Control_c, 0, 64, 0
2, 196269, Note_off_c, 0, 53, 64
2, 196278, Control_c, 0, 64, 127
2, 196330, Note_on_c, 0, 73, 53
2, 196373, Note_on_c, 0, 74, 54
2, 196382, Note_off_c, 0, 62, 64
2, 196391, Note_off_c, 0, 73, 64
2, 196422, Control_c, 0, 64, 0
2, 196427, Note_on_c, 0, 72, 58
2, 196431, Note_on_c, 0, 58, 48
2, 196446, Note_off_c, 0, 74, 64
2, 196457, Control_c, 0, 64, 127
2, 196470, Note_on_c, 0, 70, 63
2, 196495, Note_off_c, 0, 72, 64
2, 196500, Note_off_c, 0, 46, 64
2, 196518, Note_on_c, 0, 69, 59
2, 196549, Note_off_c, 0, 70, 64
2, 196554, Note_off_c, 0, 58, 64
2, 196571, Note_on_c, 0, 67, 64
2, 196576, Note_off_c, 0, 69, 64
2, 196606, Control_c, 0, 64, 0
2, 196608, Note_off_c, 0, 67, 64
2, 196612, Note_on_c, 0, 57, 50
2, 196616, Note_on_c, 0, 48, 47
2, 196620, Note_on_c, 0, 65, 64
2, 196660, Control_c, 0, 64, 127
2, 196757, Note_off_c, 0, 65, 64
2, 196780, Note_off_c, 0, 48, 64
2, 196806, Note_off_c, 0, 57, 64
2, 196807, Note_on_c, 0, 55, 50
2, 196807, Note_on_c, 0, 65, 63
2, 196842, Note_off_c, 0, 55, 64
2, 196849, Note_on_c, 0, 64, 53
2, 196854, Note_off_c, 0, 65, 64
2, 196882, Note_on_c, 0, 65, 59
2, 196895, Note_off_c, 0, 64, 64
2, 196920, Note_on_c, 0, 64, 46
2, 196928, Note_off_c, 0, 65, 64
2, 196945, Note_on_c, 0, 62, 54
2, 196959, Note_off_c, 0, 64, 64
2, 196968, Note_on_c, 0, 64, 46
2, 196994, Control_c, 0, 64, 0
2, 197000, Note_off_c, 0, 62, 64
2, 197004, Note_on_c, 0, 65, 64
2, 197007, Note_off_c, 0, 64, 64
2, 197010, Note_on_c, 0, 41, 57
2, 197039, Control_c, 0, 64, 127
2, 197055, Note_off_c, 0, 41, 64
2, 197056, Note_on_c, 0, 53, 72
2, 197059, Note_off_c, 0, 65, 64
2, 197112, Note_on_c, 0, 52, 73
2, 197122, Note_off_c, 0, 53, 64
2, 197158, Note_off_c, 0, 52, 64
2, 197166, Note_on_c, 0, 53, 79
2, 197188, Control_c, 0, 64, 0
2, 197196, Note_on_c, 0, 62, 72
2, 197196, Note_on_c, 0, 58, 79
2, 197205, Note_off_c, 0, 53, 64
2, 197206, Note_on_c, 0, 41, 86
2, 197233, Control_c, 0, 64, 127
2, 197249, Note_on_c, 0, 53, 76
2, 197251, Note_off_c, 0, 41, 64
2, 197297, Note_on_c, 0, 52, 81
2, 197316, Note_off_c, 0, 53, 64
2, 197341, Note_off_c, 0, 52, 64
2, 197347, Note_off_c, 0, 58, 64
2, 197350, Note_on_c, 0, 53, 76
2, 197365, Note_off_c, 0, 62, 64
2, 197372, Control_c, 0, 64, 0
2, 197378, Note_on_c, 0, 60, 76
2, 197379, Note_on_c, 0, 57, 74
2, 197389, Note_off_c, 0, 53, 64
2, 197392, Note_on_c, 0, 41, 90
2, 197418, Control_c, 0, 64, 127
2, 197426, Note_off_c, 0, 41, 64
2, 197430, Note_on_c, 0, 53, 86
2, 197444, Note_off_c, 0, 57, 64
2, 197447, Note_off_c, 0, 60, 64
2, 197477, Note_on_c, 0, 52, 86
2, 197490, Note_off_c, 0, 53, 64
2, 197520, Note_off_c, 0, 52, 64
2, 197529, Note_on_c, 0, 53, 72
2, 197558, Control_c, 0, 64, 0
2, 197563, Note_on_c, 0, 58, 77
2, 197563, Note_on_c, 0, 41, 90
2, 197568, Note_off_c, 0, 53, 64
2, 197568, Note_on_c, 0, 55, 76
2, 197574, Note_on_c, 0, 64, 77
2, 197600, Note_on_c, 0, 53, 88
2, 197604, Note_off_c, 0, 41, 64
2, 197612, Note_off_c, 0, 55, 64
2, 197619, Control_c, 0, 64, 127
2, 197636, Note_off_c, 0, 64, 64
2, 197652, Note_on_c, 0, 52, 88
2, 197664, Note_off_c, 0, 53, 64
2, 197703, Note_on_c, 0, 53, 85
2, 197706, Note_off_c, 0, 52, 64
2, 197733, Note_off_c, 0, 58, 64
2, 197737, Control_c, 0, 64, 0
2, 197756, Note_on_c, 0, 57, 78
2, 197759, Note_on_c, 0, 60, 77
2, 197762, Note_off_c, 0, 53, 64
2, 197763, Note_on_c, 0, 65, 75
2, 197767, Note_on_c, 0, 41, 94
2, 197777, Control_c, 0, 64, 127
2, 197784, Note_off_c, 0, 57, 64
2, 197784, Note_off_c, 0, 60, 64
2, 197796, Note_off_c, 0, 65, 64
2, 197800, Note_on_c, 0, 53, 88
2, 197804, Note_off_c, 0, 41, 64
2, 197849, Note_on_c, 0, 52, 90
2, 197864, Note_off_c, 0, 53, 64
2, 197900, Note_off_c, 0, 52, 64
2, 197901, Note_on_c, 0, 53, 86
2, 197945, Note_on_c, 0, 74, 79
2, 197945, Control_c, 0, 64, 0
2, 197952, Note_on_c, 0, 70, 88
2, 197953, Note_off_c, 0, 53, 64
2, 197953, Note_on_c, 0, 41, 92
2, 197991, Note_on_c, 0, 53, 90
2, 197992, Control_c, 0, 64, 127
2, 197996, Note_off_c, 0, 41, 64
2, 198023, Note_off_c, 0, 70, 64
2, 198049, Note_on_c, 0, 52, 81
2, 198053, Note_off_c, 0, 53, 64
2, 198058, Note_off_c, 0, 74, 64
2, 198096, Note_on_c, 0, 53, 85
2, 198098, Note_off_c, 0, 52, 64
2, 198148, Note_on_c, 0, 72, 78
2, 198149, Control_c, 0, 64, 0
2, 198154, Note_off_c, 0, 53, 64
2, 198155, Note_on_c, 0, 69, 78
2, 198158, Note_on_c, 0, 41, 90
2, 198185, Control_c, 0, 64, 127
2, 198198, Note_on_c, 0, 53, 88
2, 198202, Note_off_c, 0, 69, 64
2, 198203, Note_off_c, 0, 41, 64
2, 198204, Note_off_c, 0, 72, 64
2, 198256, Note_on_c, 0, 52, 79
2, 198264, Note_off_c, 0, 53, 64
2, 198315, Note_on_c, 0, 53, 84
2, 198316, Note_off_c, 0, 52, 64
2, 198368, Note_on_c, 0, 70, 78
2, 198371, Note_off_c, 0, 53, 64
2, 198374, Note_on_c, 0, 67, 73
2, 198375, Note_on_c, 0, 76, 78
2, 198378, Note_on_c, 0, 41, 92
2, 198386, Control_c, 0, 64, 0
2, 198415, Control_c, 0, 64, 127
2, 198422, Note_off_c, 0, 41, 64
2, 198424, Note_off_c, 0, 67, 64
2, 198427, Note_on_c, 0, 53, 85
2, 198466, Note_off_c, 0, 70, 64
2, 198474, Note_off_c, 0, 76, 64
2, 198507, Note_on_c, 0, 52, 66
2, 198512, Note_off_c, 0, 53, 64
2, 198568, Note_off_c, 0, 52, 64
2, 198569, Note_on_c, 0, 53, 79
2, 198694, Note_on_c, 0, 77, 68
2, 198695, Note_on_c, 0, 41, 58
2, 198697, Note_on_c, 0, 72, 73
2, 198697, Note_on_c, 0, 69, 58
2, 198708, Control_c, 0, 64, 0
2, 198779, Control_c, 0, 64, 127
2, 198962, Note_off_c, 0, 53, 64
2, 198962, Note_off_c, 0, 77, 64
2, 199002, Note_off_c, 0, 41, 64
2, 199007, Note_off_c, 0, 69, 64
2, 199007, Note_off_c, 0, 72, 64
2, 199562, Control_c, 0, 64, 0
2, 201197, Control_c, 0, 64, 127
2, 202484, Note_on_c, 0, 53, 46
2, 202543, Note_on_c, 0, 73, 72
2, 202564, Control_c, 0, 64, 0
2, 202595, Note_on_c, 0, 72, 72
2, 202614, Control_c, 0, 64, 127
2, 202619, Note_off_c, 0, 73, 64
2, 202651, Note_on_c, 0, 71, 72
2, 202657, Note_on_c, 0, 56, 60
2, 202664, Note_off_c, 0, 72, 64
2, 202710, Note_on_c, 0, 72, 70
2, 202725, Note_off_c, 0, 71, 64
2, 202813, Note_on_c, 0, 60, 46
2, 202850, Control_c, 0, 64, 0
2, 202871, Control_c, 0, 64, 127
2, 202892, Note_off_c, 0, 56, 64
2, 202954, Note_on_c, 0, 65, 36
2, 202961, Note_off_c, 0, 60, 64
2, 203095, Note_off_c, 0, 53, 64
2, 203110, Note_on_c, 0, 60, 38
2, 203163, Note_off_c, 0, 65, 64
2, 203180, Note_on_c, 0, 73, 72
2, 203207, Note_off_c, 0, 72, 64
2, 203248, Note_on_c, 0, 56, 54
2, 203258, Note_off_c, 0, 60, 64
2, 203412, Note_on_c, 0, 53, 48
2, 203421, Note_on_c, 0, 72, 60
2, 203429, Note_off_c, 0, 73, 64
2, 203447, Note_off_c, 0, 56, 64
2, 203455, Control_c, 0, 64, 0
2, 203495, Control_c, 0, 64, 127
2, 203570, Note_on_c, 0, 56, 58
2, 203725, Note_off_c, 0, 53, 64
2, 203733, Note_on_c, 0, 60, 38
2, 203758, Note_off_c, 0, 56, 64
2, 203892, Note_on_c, 0, 53, 49
2, 203950, Note_on_c, 0, 77, 60
2, 203954, Note_off_c, 0, 60, 64
2, 203999, Note_on_c, 0, 79, 68
2, 203999, Control_c, 0, 64, 0
2, 204028, Note_off_c, 0, 77, 64
2, 204059, Note_on_c, 0, 80, 73
2, 204069, Control_c, 0, 64, 127
2, 204079, Note_off_c, 0, 79, 64
2, 204098, Note_on_c, 0, 56, 56
2, 204251, Note_on_c, 0, 60, 45
2, 204380, Note_off_c, 0, 56, 64
2, 204405, Note_on_c, 0, 65, 46
2, 204414, Note_off_c, 0, 60, 64
2, 204552, Note_on_c, 0, 60, 53
2, 204610, Note_off_c, 0, 53, 64
2, 204698, Note_on_c, 0, 56, 29
2, 204737, Note_off_c, 0, 60, 64
2, 204865, Note_on_c, 0, 53, 47
2, 204872, Control_c, 0, 64, 0
2, 204892, Control_c, 0, 64, 127
2, 204901, Note_off_c, 0, 56, 64
2, 205023, Note_on_c, 0, 56, 51
2, 205053, Note_off_c, 0, 53, 64
2, 205077, Note_off_c, 0, 80, 64
2, 205084, Note_off_c, 0, 65, 64
2, 205198, Note_on_c, 0, 60, 34
2, 205230, Note_off_c, 0, 56, 64
2, 205295, Note_off_c, 0, 72, 64
2, 205356, Note_on_c, 0, 52, 54
2, 205400, Note_on_c, 0, 73, 58
2, 205416, Note_off_c, 0, 60, 64
2, 205440, Note_on_c, 0, 72, 70
2, 205456, Control_c, 0, 64, 0
2, 205464, Note_off_c, 0, 73, 64
2, 205484, Note_on_c, 0, 71, 71
2, 205488, Note_off_c, 0, 72, 64
2, 205515, Control_c, 0, 64, 127
2, 205523, Note_on_c, 0, 55, 54
2, 205528, Note_on_c, 0, 72, 76
2, 205551, Note_off_c, 0, 71, 64
2, 205674, Note_on_c, 0, 58, 57
2, 205704, Note_off_c, 0, 55, 64
2, 205825, Note_off_c, 0, 58, 64
2, 205827, Note_on_c, 0, 60, 47
2, 205960, Note_off_c, 0, 52, 64
2, 205970, Note_on_c, 0, 58, 42
2, 206026, Note_on_c, 0, 73, 74
2, 206042, Note_off_c, 0, 72, 64
2, 206113, Note_on_c, 0, 55, 45
2, 206126, Note_off_c, 0, 58, 64
2, 206174, Note_off_c, 0, 60, 64
2, 206260, Note_on_c, 0, 72, 59
2, 206265, Note_off_c, 0, 73, 64
2, 206278, Note_on_c, 0, 52, 54
2, 206292, Note_off_c, 0, 55, 64
2, 206303, Control_c, 0, 64, 0
2, 206332, Control_c, 0, 64, 127
2, 206417, Note_on_c, 0, 55, 58
2, 206438, Note_off_c, 0, 52, 64
2, 206571, Note_on_c, 0, 58, 54
2, 206603, Note_off_c, 0, 55, 64
2, 206731, Note_on_c, 0, 79, 63
2, 206753, Note_on_c, 0, 52, 51
2, 206778, Note_on_c, 0, 80, 77
2, 206807, Note_off_c, 0, 58, 64
2, 206817, Note_off_c, 0, 79, 64
2, 206836, Note_on_c, 0, 82, 58
2, 206862, Note_off_c, 0, 80, 64
2, 206897, Control_c, 0, 64, 0
2, 206906, Note_on_c, 0, 55, 61
2, 206990, Control_c, 0, 64, 127
2, 207045, Note_on_c, 0, 58, 56
2, 207120, Note_off_c, 0, 55, 64
2, 207211, Note_on_c, 0, 60, 37
2, 207222, Note_off_c, 0, 58, 64
2, 207352, Note_on_c, 0, 58, 37
2, 207397, Note_off_c, 0, 52, 64
2, 207504, Note_on_c, 0, 55, 34
2, 207541, Note_off_c, 0, 58, 64
2, 207669, Note_on_c, 0, 52, 46
2, 207677, Note_off_c, 0, 55, 64
2, 207816, Note_on_c, 0, 55, 46
2, 207824, Note_off_c, 0, 52, 64
2, 207835, Note_off_c, 0, 82, 64
2, 207966, Note_on_c, 0, 58, 48
2, 207972, Note_off_c, 0, 55, 64
2, 207980, Note_off_c, 0, 60, 64
2, 208035, Note_off_c, 0, 72, 64
2, 208132, Note_on_c, 0, 53, 44
2, 208162, Note_off_c, 0, 58, 64
2, 208171, Note_on_c, 0, 73, 69
2, 208209, Note_on_c, 0, 72, 77
2, 208232, Note_off_c, 0, 73, 64
2, 208245, Control_c, 0, 64, 0
2, 208251, Note_on_c, 0, 71, 80
2, 208255, Note_off_c, 0, 72, 64
2, 208283, Note_on_c, 0, 56, 67
2, 208292, Note_on_c, 0, 72, 80
2, 208343, Note_off_c, 0, 71, 64
2, 208364, Control_c, 0, 64, 127
2, 208440, Note_on_c, 0, 60, 33
2, 208494, Note_off_c, 0, 56, 64
2, 208591, Note_on_c, 0, 65, 34
2, 208595, Note_off_c, 0, 60, 64
2, 208758, Note_off_c, 0, 65, 64
2, 208767, Note_on_c, 0, 60, 25
2, 208779, Note_off_c, 0, 53, 64
2, 208803, Note_on_c, 0, 73, 71
2, 208825, Note_off_c, 0, 72, 64
2, 208872, Note_on_c, 0, 56, 58
2, 208888, Note_off_c, 0, 60, 64
2, 209019, Note_on_c, 0, 51, 59
2, 209023, Note_on_c, 0, 72, 71
2, 209026, Note_off_c, 0, 56, 64
2, 209041, Note_off_c, 0, 73, 64
2, 209064, Control_c, 0, 64, 0
2, 209138, Control_c, 0, 64, 127
2, 209180, Note_on_c, 0, 55, 42
2, 209303, Note_off_c, 0, 51, 64
2, 209336, Note_on_c, 0, 60, 64
2, 209361, Note_off_c, 0, 55, 64
2, 209514, Note_on_c, 0, 77, 59
2, 209515, Note_on_c, 0, 49, 51
2, 209550, Note_on_c, 0, 79, 69
2, 209581, Control_c, 0, 64, 0
2, 209584, Note_off_c, 0, 77, 64
2, 209592, Note_off_c, 0, 60, 64
2, 209623, Note_on_c, 0, 80, 73
2, 209646, Note_off_c, 0, 79, 64
2, 209658, Note_on_c, 0, 53, 51
2, 209673, Control_c, 0, 64, 127
2, 209796, Note_on_c, 0, 56, 63
2, 209842, Note_off_c, 0, 53, 64
2, 209928, Note_on_c, 0, 59, 55
2, 209948, Note_off_c, 0, 56, 64
2, 209960, Note_off_c, 0, 49, 64
2, 210028, Note_off_c, 0, 80, 64
2, 210081, Note_on_c, 0, 61, 74
2, 210088, Note_off_c, 0, 72, 64
2, 210127, Note_off_c, 0, 59, 64
2, 210241, Note_on_c, 0, 65, 71
2, 210401, Note_on_c, 0, 68, 71
2, 210531, Note_off_c, 0, 61, 64
2, 210557, Note_on_c, 0, 71, 69
2, 210585, Note_off_c, 0, 68, 64
2, 210732, Note_on_c, 0, 77, 66
2, 210740, Note_off_c, 0, 71, 64
2, 210836, Note_off_c, 0, 77, 64
2, 210863, Note_off_c, 0, 65, 64
2, 211029, Note_on_c, 0, 48, 71
2, 211035, Note_on_c, 0, 77, 72
2, 211101, Control_c, 0, 64, 0
2, 211165, Control_c, 0, 64, 127
2, 211599, Note_on_c, 0, 76, 50
2, 211616, Note_off_c, 0, 77, 64
2, 211783, Note_on_c, 0, 79, 51
2, 211837, Note_off_c, 0, 76, 64
2, 211957, Note_on_c, 0, 71, 53
2, 212148, Note_on_c, 0, 72, 66
2, 212174, Note_off_c, 0, 79, 64
2, 212187, Note_off_c, 0, 71, 64
2, 212356, Note_on_c, 0, 76, 54
2, 212371, Note_off_c, 0, 72, 64
2, 212538, Note_on_c, 0, 67, 42
2, 212584, Note_off_c, 0, 76, 64
2, 212769, Note_on_c, 0, 36, 32
2, 212807, Note_off_c, 0, 48, 64
2, 212888, Control_c, 0, 64, 0
2, 212989, Control_c, 0, 64, 127
2, 213416, Note_off_c, 0, 67, 64
2, 213620, Note_off_c, 0, 36, 64
2, 213901, Control_c, 0, 64, 0
2, 214224, Note_on_c, 0, 56, 37
2, 214263, Note_on_c, 0, 75, 73
2, 214326, Control_c, 0, 64, 127
2, 214431, Note_on_c, 0, 60, 42
2, 214586, Note_on_c, 0, 63, 34
2, 214611, Note_off_c, 0, 60, 64
2, 214740, Note_on_c, 0, 68, 32
2, 214744, Note_off_c, 0, 63, 64
2, 214890, Note_on_c, 0, 63, 45
2, 214894, Note_off_c, 0, 56, 64
2, 215043, Note_on_c, 0, 60, 46
2, 215045, Note_off_c, 0, 63, 64
2, 215203, Note_on_c, 0, 56, 53
2, 215222, Note_off_c, 0, 60, 64
2, 215263, Note_off_c, 0, 68, 64
2, 215378, Note_on_c, 0, 60, 54
2, 215391, Note_on_c, 0, 80, 74
2, 215400, Note_off_c, 0, 56, 64
2, 215428, Note_off_c, 0, 75, 64
2, 215526, Note_on_c, 0, 63, 54
2, 215539, Note_on_c, 0, 75, 84
2, 215547, Note_off_c, 0, 60, 64
2, 215555, Note_off_c, 0, 80, 64
2, 215619, Note_off_c, 0, 75, 64
2, 215688, Note_on_c, 0, 58, 54
2, 215691, Note_on_c, 0, 75, 71
2, 215721, Note_off_c, 0, 63, 64
2, 215728, Control_c, 0, 64, 0
2, 215775, Control_c, 0, 64, 127
2, 215850, Note_on_c, 0, 61, 54
2, 215853, Note_on_c, 0, 73, 68
2, 215882, Note_off_c, 0, 75, 64
2, 215982, Note_on_c, 0, 63, 61
2, 215988, Note_off_c, 0, 58, 64
2, 215992, Note_on_c, 0, 72, 66
2, 216008, Note_off_c, 0, 73, 64
2, 216023, Note_off_c, 0, 61, 64
2, 216131, Note_on_c, 0, 70, 67
2, 216150, Note_on_c, 0, 67, 58
2, 216156, Note_off_c, 0, 63, 64
2, 216160, Note_off_c, 0, 72, 64
2, 216178, Control_c, 0, 64, 0
2, 216228, Control_c, 0, 64, 127
2, 216274, Note_on_c, 0, 63, 67
2, 216412, Note_on_c, 0, 61, 49
2, 216424, Note_off_c, 0, 63, 64
2, 216561, Note_on_c, 0, 58, 63
2, 216589, Note_off_c, 0, 61, 64
2, 216660, Note_off_c, 0, 67, 64
2, 216718, Note_on_c, 0, 82, 72
2, 216720, Note_on_c, 0, 61, 66
2, 216772, Note_off_c, 0, 58, 64
2, 216867, Note_on_c, 0, 73, 72
2, 216872, Note_on_c, 0, 63, 65
2, 216877, Note_off_c, 0, 82, 64
2, 216896, Note_off_c, 0, 70, 64
2, 216916, Note_off_c, 0, 61, 64
2, 216949, Note_off_c, 0, 73, 64
2, 217066, Note_on_c, 0, 56, 45
2, 217068, Note_on_c, 0, 73, 74
2, 217082, Note_off_c, 0, 63, 64
2, 217085, Control_c, 0, 64, 0
2, 217123, Control_c, 0, 64, 127
2, 217213, Note_on_c, 0, 60, 63
2, 217234, Note_on_c, 0, 72, 67
2, 217251, Note_off_c, 0, 73, 64
2, 217363, Note_on_c, 0, 70, 51
2, 217372, Note_on_c, 0, 63, 56
2, 217384, Note_off_c, 0, 72, 64
2, 217395, Note_off_c, 0, 56, 64
2, 217402, Note_off_c, 0, 60, 64
2, 217527, Note_on_c, 0, 68, 53
2, 217543, Control_c, 0, 64, 0
2, 217547, Note_off_c, 0, 63, 64
2, 217574, Note_off_c, 0, 70, 64
2, 217584, Control_c, 0, 64, 127
2, 217671, Note_on_c, 0, 63, 67
2, 217729, Note_off_c, 0, 68, 64
2, 217822, Note_on_c, 0, 60, 51
2, 217837, Note_off_c, 0, 63, 64
2, 217983, Note_on_c, 0, 56, 54
2, 217992, Note_off_c, 0, 60, 64
2, 218137, Note_on_c, 0, 60, 66
2, 218142, Note_on_c, 0, 80, 72
2, 218149, Note_off_c, 0, 56, 64
2, 218276, Note_on_c, 0, 75, 77
2, 218285, Note_on_c, 0, 63, 61
2, 218291, Note_off_c, 0, 80, 64
2, 218303, Note_off_c, 0, 60, 64
2, 218362, Note_off_c, 0, 75, 64
2, 218466, Note_on_c, 0, 58, 36
2, 218467, Note_on_c, 0, 75, 69
2, 218500, Control_c, 0, 64, 0
2, 218512, Note_off_c, 0, 63, 64
2, 218559, Control_c, 0, 64, 127
2, 218642, Note_on_c, 0, 61, 63
2, 218654, Note_on_c, 0, 73, 71
2, 218685, Note_off_c, 0, 75, 64
2, 218777, Note_on_c, 0, 63, 58
2, 218787, Note_on_c, 0, 72, 67
2, 218799, Note_off_c, 0, 73, 64
2, 218802, Note_off_c, 0, 58, 64
2, 218814, Note_off_c, 0, 61, 64
2, 218914, Note_on_c, 0, 70, 66
2, 218928, Note_off_c, 0, 72, 64
2, 218938, Note_on_c, 0, 67, 48
2, 218962, Note_off_c, 0, 63, 64
2, 218973, Control_c, 0, 64, 0
2, 218991, Control_c, 0, 64, 127
2, 219071, Note_on_c, 0, 63, 63
2, 219226, Note_on_c, 0, 61, 34
2, 219234, Note_off_c, 0, 63, 64
2, 219297, Note_off_c, 0, 67, 64
2, 219353, Note_off_c, 0, 70, 64
2, 219366, Note_on_c, 0, 58, 53
2, 219381, Note_off_c, 0, 61, 64
2, 219527, Note_on_c, 0, 61, 61
2, 219532, Note_on_c, 0, 82, 71
2, 219630, Note_off_c, 0, 58, 64
2, 219671, Note_on_c, 0, 73, 72
2, 219677, Note_on_c, 0, 63, 67
2, 219680, Note_off_c, 0, 82, 64
2, 219714, Note_off_c, 0, 61, 64
2, 219861, Note_on_c, 0, 72, 59
2, 219866, Note_on_c, 0, 56, 56
2, 219867, Note_off_c, 0, 73, 64
2, 219876, Control_c, 0, 64, 0
2, 219903, Note_off_c, 0, 63, 64
2, 219934, Control_c, 0, 64, 127
2, 220013, Note_on_c, 0, 60, 63
2, 220024, Note_on_c, 0, 77, 67
2, 220076, Note_off_c, 0, 56, 64
2, 220151, Note_off_c, 0, 77, 64
2, 220169, Note_on_c, 0, 75, 77
2, 220183, Note_on_c, 0, 63, 56
2, 220221, Note_off_c, 0, 60, 64
2, 220277, Note_off_c, 0, 75, 64
2, 220278, Note_off_c, 0, 72, 64
2, 220352, Note_on_c, 0, 77, 67
2, 220368, Note_on_c, 0, 68, 54
2, 220378, Note_off_c, 0, 63, 64
2, 220382, Control_c, 0, 64, 0
2, 220393, Note_on_c, 0, 75, 76
2, 220406, Control_c, 0, 64, 127
2, 220416, Note_off_c, 0, 77, 64
2, 220435, Note_on_c, 0, 74, 74
2, 220446, Note_off_c, 0, 75, 64
2, 220478, Note_on_c, 0, 75, 79
2, 220500, Note_on_c, 0, 63, 46
2, 220514, Note_off_c, 0, 74, 64
2, 220524, Note_off_c, 0, 68, 64
2, 220660, Control_c, 0, 64, 0
2, 220665, Note_on_c, 0, 60, 54
2, 220680, Note_off_c, 0, 63, 64
2, 220781, Control_c, 0, 64, 127
2, 220828, Note_on_c, 0, 56, 43
2, 220842, Note_off_c, 0, 60, 64
2, 221025, Note_on_c, 0, 60, 64
2, 221045, Note_on_c, 0, 74, 71
2, 221075, Note_off_c, 0, 75, 64
2, 221112, Note_off_c, 0, 56, 64
2, 221221, Note_on_c, 0, 63, 66
2, 221225, Note_on_c, 0, 75, 84
2, 221250, Note_off_c, 0, 60, 64
2, 221278, Note_off_c, 0, 74, 64
2, 221449, Note_off_c, 0, 63, 64
2, 221453, Note_on_c, 0, 54, 44
2, 221461, Note_on_c, 0, 80, 76
2, 221472, Control_c, 0, 64, 0
2, 221485, Note_off_c, 0, 75, 64
2, 221513, Control_c, 0, 64, 127
2, 221651, Note_on_c, 0, 72, 68
2, 221656, Note_on_c, 0, 56, 45
2, 221795, Note_on_c, 0, 75, 76
2, 221796, Note_off_c, 0, 56, 64
2, 221801, Note_on_c, 0, 60, 37
2, 221818, Note_off_c, 0, 80, 64
2, 221914, Note_off_c, 0, 75, 64
2, 221929, Note_off_c, 0, 72, 64
2, 221959, Note_on_c, 0, 63, 51
2, 221964, Note_on_c, 0, 77, 61
2, 221968, Note_off_c, 0, 60, 64
2, 221999, Note_on_c, 0, 75, 76
2, 222019, Note_off_c, 0, 77, 64
2, 222044, Note_on_c, 0, 74, 74
2, 222051, Note_off_c, 0, 75, 64
2, 222088, Note_on_c, 0, 75, 84
2, 222088, Note_on_c, 0, 60, 67
2, 222104, Note_off_c, 0, 54, 64
2, 222111, Note_off_c, 0, 63, 64
2, 222124, Note_off_c, 0, 74, 64
2, 222240, Note_on_c, 0, 56, 54
2, 222251, Control_c, 0, 64, 0
2, 222261, Note_off_c, 0, 60, 64
2, 222283, Control_c, 0, 64, 127
2, 222383, Note_on_c, 0, 54, 47
2, 222400, Note_off_c, 0, 56, 64
2, 222535, Note_on_c, 0, 56, 50
2, 222549, Note_off_c, 0, 54, 64
2, 222551, Note_on_c, 0, 74, 76
2, 222559, Note_off_c, 0, 75, 64
2, 222696, Note_on_c, 0, 75, 80
2, 222701, Note_on_c, 0, 60, 60
2, 222726, Note_off_c, 0, 74, 64
2, 222731, Note_off_c, 0, 56, 64
2, 222886, Note_on_c, 0, 53, 46
2, 222904, Note_on_c, 0, 80, 74
2, 222912, Note_off_c, 0, 60, 64
2, 222927, Note_off_c, 0, 75, 64
2, 222930, Control_c, 0, 64, 0
2, 222987, Control_c, 0, 64, 127
2, 223056, Note_on_c, 0, 56, 67
2, 223069, Note_on_c, 0, 72, 68
2, 223196, Note_on_c, 0, 61, 56
2, 223201, Note_on_c, 0, 73, 81
2, 223233, Note_off_c, 0, 80, 64
2, 223238, Note_off_c, 0, 56, 64
2, 223328, Note_off_c, 0, 72, 64
2, 223344, Note_off_c, 0, 73, 64
2, 223353, Note_on_c, 0, 75, 56
2, 223368, Note_on_c, 0, 65, 54
2, 223374, Note_off_c, 0, 61, 64
2, 223389, Note_on_c, 0, 73, 86
2, 223391, Control_c, 0, 64, 0
2, 223411, Note_off_c, 0, 75, 64
2, 223430, Control_c, 0, 64, 127
2, 223436, Note_on_c, 0, 72, 84
2, 223440, Note_off_c, 0, 73, 64
2, 223472, Note_off_c, 0, 53, 64
2, 223474, Note_on_c, 0, 73, 88
2, 223480, Note_on_c, 0, 61, 59
2, 223509, Note_off_c, 0, 72, 64
2, 223563, Note_off_c, 0, 65, 64
2, 223640, Note_on_c, 0, 56, 48
2, 223679, Note_off_c, 0, 61, 64
2, 223760, Control_c, 0, 64, 0
2, 223789, Note_on_c, 0, 53, 55
2, 223800, Control_c, 0, 64, 127
2, 223818, Note_off_c, 0, 56, 64
2, 223947, Note_on_c, 0, 72, 75
2, 223954, Note_on_c, 0, 56, 51
2, 223963, Note_off_c, 0, 73, 64
2, 223977, Note_off_c, 0, 53, 64
2, 224106, Note_on_c, 0, 73, 88
2, 224111, Note_on_c, 0, 61, 63
2, 224128, Note_off_c, 0, 56, 64
2, 224139, Note_off_c, 0, 72, 64
2, 224307, Note_on_c, 0, 52, 54
2, 224319, Note_on_c, 0, 80, 76
2, 224340, Note_off_c, 0, 73, 64
2, 224342, Note_off_c, 0, 61, 64
2, 224349, Control_c, 0, 64, 0
2, 224404, Control_c, 0, 64, 127
2, 224493, Note_on_c, 0, 56, 55
2, 224503, Note_on_c, 0, 72, 63
2, 224625, Note_on_c, 0, 73, 68
2, 224631, Note_on_c, 0, 61, 65
2, 224653, Note_off_c, 0, 80, 64
2, 224674, Note_off_c, 0, 56, 64
2, 224689, Note_off_c, 0, 72, 64
2, 224772, Note_off_c, 0, 73, 64
2, 224781, Note_on_c, 0, 75, 66
2, 224802, Note_on_c, 0, 64, 47
2, 224817, Note_on_c, 0, 73, 90
2, 224819, Note_off_c, 0, 61, 64
2, 224832, Note_off_c, 0, 75, 64
2, 224837, Control_c, 0, 64, 0
2, 224856, Note_on_c, 0, 72, 85
2, 224860, Control_c, 0, 64, 127
2, 224864, Note_off_c, 0, 73, 64
2, 224893, Note_on_c, 0, 73, 86
2, 224915, Note_on_c, 0, 61, 54
2, 224921, Note_off_c, 0, 72, 64
2, 224923, Note_off_c, 0, 52, 64
2, 225005, Note_off_c, 0, 64, 64
2, 225074, Note_on_c, 0, 56, 45
2, 225097, Note_on_c, 0, 64, 29
2, 225108, Note_off_c, 0, 61, 64
2, 225180, Control_c, 0, 64, 0
2, 225201, Control_c, 0, 64, 127
2, 225228, Note_on_c, 0, 52, 59
2, 225241, Note_off_c, 0, 56, 64
2, 225393, Note_on_c, 0, 56, 55
2, 225399, Note_on_c, 0, 72, 75
2, 225422, Note_off_c, 0, 73, 64
2, 225467, Note_off_c, 0, 52, 64
2, 225570, Note_on_c, 0, 73, 76
2, 225581, Note_on_c, 0, 61, 45
2, 225612, Note_off_c, 0, 72, 64
2, 225618, Note_off_c, 0, 64, 64
2, 225621, Note_off_c, 0, 56, 64
2, 225726, Note_off_c, 0, 73, 64
2, 225812, Note_on_c, 0, 73, 75
2, 225817, Note_on_c, 0, 51, 67
2, 225830, Control_c, 0, 64, 0
2, 225853, Note_off_c, 0, 61, 64
2, 225878, Control_c, 0, 64, 127
2, 225992, Note_on_c, 0, 67, 51
2, 226028, Note_off_c, 0, 73, 64
2, 226154, Note_on_c, 0, 79, 67
2, 226167, Note_off_c, 0, 67, 64
2, 226315, Note_off_c, 0, 79, 64
2, 226336, Note_on_c, 0, 73, 92
2, 226513, Note_on_c, 0, 82, 75
2, 226537, Note_off_c, 0, 73, 64
2, 226684, Note_on_c, 0, 79, 80
2, 226685, Note_off_c, 0, 82, 64
2, 226896, Note_on_c, 0, 85, 84
2, 226911, Note_off_c, 0, 79, 64
2, 226922, Control_c, 0, 64, 0
2, 226944, Control_c, 0, 64, 127
2, 227427, Note_on_c, 0, 55, 42
2, 227436, Control_c, 0, 64, 0
2, 227448, Note_off_c, 0, 51, 64
2, 227477, Control_c, 0, 64, 127
2, 227610, Note_on_c, 0, 84, 84
2, 227624, Note_off_c, 0, 85, 64
2, 227762, Note_on_c, 0, 82, 71
2, 227774, Note_off_c, 0, 84, 64
2, 227927, Note_on_c, 0, 80, 69
2, 228012, Note_off_c, 0, 82, 64
2, 228092, Note_on_c, 0, 79, 63
2, 228113, Note_off_c, 0, 80, 64
2, 228251, Note_on_c, 0, 77, 67
2, 228252, Note_off_c, 0, 79, 64
2, 228420, Note_on_c, 0, 75, 72
2, 228422, Control_c, 0, 64, 0
2, 228444, Control_c, 0, 64, 127
2, 228454, Note_off_c, 0, 77, 64
2, 228585, Note_on_c, 0, 82, 63
2, 228611, Note_off_c, 0, 75, 64
2, 228749, Note_on_c, 0, 73, 53
2, 228802, Note_off_c, 0, 82, 64
2, 228908, Note_on_c, 0, 56, 56
2, 228913, Note_off_c, 0, 73, 64
2, 228923, Note_on_c, 0, 72, 69
2, 228931, Control_c, 0, 64, 0
2, 228979, Control_c, 0, 64, 127
2, 229008, Note_off_c, 0, 55, 64
2, 229069, Note_on_c, 0, 84, 61
2, 229224, Note_off_c, 0, 84, 64
2, 229225, Note_on_c, 0, 75, 70
2, 229252, Note_off_c, 0, 72, 64
2, 229399, Note_on_c, 0, 80, 60
2, 229416, Note_off_c, 0, 75, 64
2, 229556, Note_off_c, 0, 80, 64
2, 229560, Note_on_c, 0, 72, 65
2, 229733, Note_on_c, 0, 75, 69
2, 229772, Note_off_c, 0, 72, 64
2, 229884, Note_off_c, 0, 75, 64
2, 229890, Note_on_c, 0, 68, 67
2, 230039, Note_off_c, 0, 68, 64
2, 230052, Note_on_c, 0, 72, 71
2, 230187, Control_c, 0, 64, 0
2, 230209, Note_on_c, 0, 63, 70
2, 230219, Control_c, 0, 64, 127
2, 230232, Note_off_c, 0, 72, 64
2, 230272, Note_off_c, 0, 56, 64
2, 230369, Note_on_c, 0, 68, 67
2, 230376, Note_off_c, 0, 63, 64
2, 230538, Note_on_c, 0, 48, 71
2, 230538, Note_on_c, 0, 60, 76
2, 230579, Note_off_c, 0, 68, 64
2, 230707, Note_off_c, 0, 60, 64
2, 230709, Note_on_c, 0, 51, 64
2, 230714, Note_on_c, 0, 63, 54
2, 230723, Note_off_c, 0, 48, 64
2, 230873, Note_on_c, 0, 56, 81
2, 230877, Note_on_c, 0, 44, 69
2, 230884, Control_c, 0, 64, 0
2, 230888, Note_off_c, 0, 63, 64
2, 230914, Control_c, 0, 64, 127
2, 230936, Note_off_c, 0, 51, 64
2, 231039, Note_on_c, 0, 60, 67
2, 231042, Note_on_c, 0, 48, 54
2, 231198, Note_on_c, 0, 51, 69
2, 231200, Note_off_c, 0, 56, 64
2, 231202, Note_on_c, 0, 63, 71
2, 231208, Note_off_c, 0, 48, 64
2, 231209, Note_off_c, 0, 60, 64
2, 231213, Note_off_c, 0, 44, 64
2, 231358, Control_c, 0, 64, 0
2, 231365, Note_on_c, 0, 42, 61
2, 231366, Note_on_c, 0, 54, 90
2, 231382, Note_off_c, 0, 63, 64
2, 231403, Control_c, 0, 64, 127
2, 231407, Note_off_c, 0, 51, 64
2, 231536, Note_on_c, 0, 63, 72
2, 231573, Note_off_c, 0, 54, 64
2, 231669, Note_off_c, 0, 42, 64
2, 231675, Note_on_c, 0, 54, 79
2, 231684, Note_on_c, 0, 42, 69
2, 231806, Note_off_c, 0, 42, 64
2, 231845, Note_off_c, 0, 54, 64
2, 231850, Note_on_c, 0, 53, 71
2, 231858, Note_off_c, 0, 63, 64
2, 231860, Note_on_c, 0, 41, 63
2, 231866, Control_c, 0, 64, 0
2, 231895, Control_c, 0, 64, 127
2, 231998, Control_c, 0, 64, 0
2, 232036, Control_c, 0, 64, 127
2, 232054, Note_on_c, 0, 61, 27
2, 232188, Note_on_c, 0, 56, 67
2, 232203, Note_off_c, 0, 53, 64
2, 232282, Note_off_c, 0, 61, 64
2, 232342, Note_on_c, 0, 65, 66
2, 232357, Note_off_c, 0, 56, 64
2, 232513, Note_on_c, 0, 61, 66
2, 232521, Note_off_c, 0, 65, 64
2, 232658, Note_on_c, 0, 68, 67
2, 232666, Note_off_c, 0, 61, 64
2, 232812, Note_off_c, 0, 68, 64
2, 232819, Note_on_c, 0, 65, 63
2, 232979, Note_on_c, 0, 73, 70
2, 233112, Note_off_c, 0, 41, 64
2, 233126, Note_on_c, 0, 68, 71
2, 233248, Note_off_c, 0, 73, 64
2, 233286, Note_off_c, 0, 65, 64
2, 233308, Note_on_c, 0, 77, 71
2, 233316, Control_c, 0, 64, 0
2, 233326, Note_off_c, 0, 68, 64
2, 233347, Control_c, 0, 64, 127
2, 233839, Control_c, 0, 64, 0
2, 233844, Note_on_c, 0, 49, 67
2, 233890, Control_c, 0, 64, 127
2, 234035, Note_on_c, 0, 76, 65
2, 234045, Note_off_c, 0, 77, 64
2, 234178, Note_on_c, 0, 77, 63
2, 234209, Note_off_c, 0, 76, 64
2, 234363, Note_on_c, 0, 80, 66
2, 234368, Note_on_c, 0, 61, 38
2, 234374, Control_c, 0, 64, 0
2, 234383, Note_off_c, 0, 77, 64
2, 234413, Control_c, 0, 64, 127
2, 234524, Note_on_c, 0, 72, 55
2, 234564, Note_off_c, 0, 80, 64
2, 234692, Note_on_c, 0, 73, 65
2, 234717, Note_off_c, 0, 72, 64
2, 234883, Note_on_c, 0, 77, 69
2, 234895, Control_c, 0, 64, 0
2, 234900, Note_off_c, 0, 73, 64
2, 234936, Control_c, 0, 64, 127
2, 235073, Note_on_c, 0, 65, 61
2, 235086, Note_off_c, 0, 77, 64
2, 235159, Note_off_c, 0, 49, 64
2, 235221, Note_on_c, 0, 77, 69
2, 235232, Note_off_c, 0, 61, 64
2, 235257, Note_off_c, 0, 65, 64
2, 235380, Note_off_c, 0, 77, 64
2, 235381, Note_on_c, 0, 76, 69
2, 235554, Note_on_c, 0, 75, 63
2, 235575, Note_off_c, 0, 76, 64
2, 235715, Note_on_c, 0, 74, 54
2, 235721, Control_c, 0, 64, 0
2, 235732, Note_off_c, 0, 75, 64
2, 235840, Control_c, 0, 64, 127
2, 235882, Note_on_c, 0, 73, 67
2, 235909, Note_off_c, 0, 74, 64
2, 236046, Note_on_c, 0, 72, 61
2, 236076, Note_off_c, 0, 73, 64
2, 236241, Note_on_c, 0, 70, 65
2, 236278, Note_off_c, 0, 72, 64
2, 236472, Note_on_c, 0, 51, 58
2, 236476, Note_on_c, 0, 68, 54
2, 236514, Note_off_c, 0, 70, 64
2, 236542, Control_c, 0, 64, 0
2, 236607, Control_c, 0, 64, 127
2, 236660, Note_on_c, 0, 56, 36
2, 236827, Note_on_c, 0, 60, 33
2, 236876, Note_off_c, 0, 56, 64
2, 236968, Note_on_c, 0, 63, 46
2, 237000, Note_off_c, 0, 60, 64
2, 237113, Note_off_c, 0, 51, 64
2, 237142, Note_on_c, 0, 60, 54
2, 237288, Note_on_c, 0, 56, 48
2, 237292, Note_off_c, 0, 60, 64
2, 237466, Note_on_c, 0, 72, 71
2, 237474, Note_on_c, 0, 51, 49
2, 237476, Note_off_c, 0, 56, 64
2, 237492, Control_c, 0, 64, 0
2, 237515, Note_off_c, 0, 68, 64
2, 237533, Control_c, 0, 64, 127
2, 237536, Note_off_c, 0, 63, 64
2, 237634, Note_on_c, 0, 70, 74
2, 237647, Note_on_c, 0, 56, 42
2, 237664, Note_off_c, 0, 72, 64
2, 237668, Note_off_c, 0, 51, 64
2, 237786, Note_on_c, 0, 68, 66
2, 237786, Note_on_c, 0, 60, 53
2, 237798, Note_off_c, 0, 56, 64
2, 237818, Note_off_c, 0, 70, 64
2, 237989, Note_on_c, 0, 51, 50
2, 238000, Note_on_c, 0, 75, 68
2, 238034, Note_off_c, 0, 68, 64
2, 238043, Note_off_c, 0, 60, 64
2, 238053, Control_c, 0, 64, 0
2, 238109, Control_c, 0, 64, 127
2, 238179, Note_on_c, 0, 56, 30
2, 238327, Note_on_c, 0, 60, 51
2, 238373, Note_off_c, 0, 56, 64
2, 238395, Note_off_c, 0, 51, 64
2, 238500, Note_on_c, 0, 63, 45
2, 238541, Note_off_c, 0, 60, 64
2, 238676, Note_on_c, 0, 60, 50
2, 238835, Note_on_c, 0, 56, 49
2, 238839, Note_off_c, 0, 60, 64
2, 239004, Note_on_c, 0, 51, 48
2, 239016, Note_off_c, 0, 56, 64
2, 239126, Note_off_c, 0, 63, 64
2, 239176, Note_on_c, 0, 56, 37
2, 239283, Note_off_c, 0, 51, 64
2, 239319, Note_off_c, 0, 75, 64
2, 239320, Note_on_c, 0, 60, 33
2, 239343, Note_off_c, 0, 56, 64
2, 239467, Note_off_c, 0, 60, 64
2, 239474, Note_on_c, 0, 53, 48
2, 239493, Note_on_c, 0, 75, 70
2, 239531, Note_on_c, 0, 74, 79
2, 239557, Note_off_c, 0, 75, 64
2, 239579, Note_on_c, 0, 72, 76
2, 239587, Note_off_c, 0, 74, 64
2, 239592, Control_c, 0, 64, 0
2, 239621, Note_on_c, 0, 56, 56
2, 239622, Note_on_c, 0, 74, 72
2, 239643, Control_c, 0, 64, 127
2, 239647, Note_off_c, 0, 72, 64
2, 239771, Note_on_c, 0, 58, 47
2, 239811, Note_off_c, 0, 56, 64
2, 239970, Note_off_c, 0, 58, 64
2, 239970, Note_on_c, 0, 62, 29
2, 240090, Note_on_c, 0, 58, 45
2, 240099, Note_on_c, 0, 72, 67
2, 240120, Note_off_c, 0, 53, 64
2, 240125, Note_off_c, 0, 74, 64
2, 240153, Note_off_c, 0, 62, 64
2, 240250, Note_on_c, 0, 56, 51
2, 240252, Note_on_c, 0, 74, 71
2, 240264, Note_off_c, 0, 58, 64
2, 240279, Note_off_c, 0, 72, 64
2, 240395, Note_on_c, 0, 53, 48
2, 240416, Control_c, 0, 64, 0
2, 240421, Note_on_c, 0, 77, 69
2, 240424, Note_off_c, 0, 56, 64
2, 240437, Note_off_c, 0, 74, 64
2, 240459, Control_c, 0, 64, 127
2, 240552, Note_on_c, 0, 56, 63
2, 240562, Note_off_c, 0, 53, 64
2, 240566, Note_on_c, 0, 75, 85
2, 240591, Note_off_c, 0, 77, 64
2, 240721, Note_on_c, 0, 58, 67
2, 240726, Note_off_c, 0, 75, 64
2, 240726, Note_on_c, 0, 74, 76
2, 240756, Note_off_c, 0, 56, 64
2, 240915, Note_on_c, 0, 53, 53
2, 240938, Note_on_c, 0, 84, 77
2, 240949, Control_c, 0, 64, 0
2, 240953, Note_off_c, 0, 58, 64
2, 240990, Control_c, 0, 64, 127
2, 241052, Note_off_c, 0, 84, 64
2, 241104, Note_on_c, 0, 56, 63
2, 241109, Note_on_c, 0, 84, 76
2, 241142, Note_off_c, 0, 53, 64
2, 241255, Note_on_c, 0, 58, 66
2, 241265, Note_on_c, 0, 82, 72
2, 241269, Note_off_c, 0, 84, 64
2, 241307, Note_off_c, 0, 74, 64
2, 241315, Note_off_c, 0, 56, 64
2, 241404, Note_off_c, 0, 82, 64
2, 241408, Note_off_c, 0, 58, 64
2, 241409, Note_on_c, 0, 80, 79
2, 241416, Note_on_c, 0, 62, 49
2, 241485, Note_off_c, 0, 62, 64
2, 241489, Note_off_c, 0, 80, 64
2, 241549, Note_on_c, 0, 58, 67
2, 241563, Note_on_c, 0, 79, 76
2, 241700, Note_off_c, 0, 58, 64
2, 241707, Note_on_c, 0, 56, 63
2, 241716, Note_on_c, 0, 77, 71
2, 241730, Note_off_c, 0, 79, 64
2, 241844, Note_off_c, 0, 56, 64
2, 241880, Control_c, 0, 64, 0
2, 241884, Note_on_c, 0, 75, 86
2, 241889, Note_on_c, 0, 53, 53
2, 241896, Control_c, 0, 64, 127
2, 241910, Note_off_c, 0, 77, 64
2, 242042, Note_on_c, 0, 56, 54
2, 242042, Note_on_c, 0, 74, 78
2, 242072, Note_off_c, 0, 75, 64
2, 242117, Note_off_c, 0, 53, 64
2, 242202, Note_on_c, 0, 77, 72
2, 242208, Note_on_c, 0, 58, 46
2, 242209, Note_off_c, 0, 56, 64
2, 242227, Note_off_c, 0, 74, 64
2, 242325, Note_off_c, 0, 58, 64
2, 242373, Note_off_c, 0, 77, 64
2, 242429, Note_on_c, 0, 55, 54
2, 242457, Note_on_c, 0, 77, 84
2, 242509, Note_on_c, 0, 75, 81
2, 242531, Note_off_c, 0, 77, 64
2, 242554, Note_on_c, 0, 74, 79
2, 242562, Note_off_c, 0, 75, 64
2, 242578, Note_on_c, 0, 58, 71
2, 242600, Note_on_c, 0, 75, 79
2, 242630, Note_off_c, 0, 74, 64
2, 242703, Control_c, 0, 64, 0
2, 242729, Note_on_c, 0, 63, 61
2, 242752, Control_c, 0, 64, 127
2, 242797, Note_off_c, 0, 58, 64
2, 242888, Note_off_c, 0, 63, 64
2, 242889, Note_on_c, 0, 67, 67
2, 243027, Note_on_c, 0, 63, 56
2, 243091, Note_off_c, 0, 55, 64
2, 243167, Note_on_c, 0, 58, 46
2, 243168, Note_on_c, 0, 74, 71
2, 243185, Note_off_c, 0, 63, 64
2, 243198, Note_off_c, 0, 75, 64
2, 243324, Note_on_c, 0, 75, 79
2, 243329, Note_off_c, 0, 58, 64
2, 243334, Control_c, 0, 64, 0
2, 243338, Note_on_c, 0, 55, 47
2, 243356, Note_off_c, 0, 74, 64
2, 243357, Control_c, 0, 64, 127
2, 243470, Note_on_c, 0, 58, 63
2, 243473, Note_on_c, 0, 77, 74
2, 243484, Note_off_c, 0, 55, 64
2, 243499, Note_off_c, 0, 75, 64
2, 243584, Note_off_c, 0, 67, 64
2, 243623, Note_on_c, 0, 73, 74
2, 243634, Note_on_c, 0, 63, 54
2, 243650, Note_off_c, 0, 58, 64
2, 243657, Note_off_c, 0, 77, 64
2, 243725, Note_off_c, 0, 73, 64
2, 243812, Control_c, 0, 64, 0
2, 243817, Note_on_c, 0, 73, 76
2, 243818, Note_on_c, 0, 56, 56
2, 243841, Note_off_c, 0, 63, 64
2, 243873, Control_c, 0, 64, 127
2, 243964, Note_on_c, 0, 60, 58
2, 243976, Note_on_c, 0, 72, 72
2, 244016, Note_off_c, 0, 56, 64
2, 244021, Note_off_c, 0, 73, 64
2, 244119, Note_on_c, 0, 70, 65
2, 244123, Note_on_c, 0, 63, 67
2, 244135, Note_off_c, 0, 72, 64
2, 244159, Note_off_c, 0, 60, 64
2, 244280, Note_on_c, 0, 68, 65
2, 244302, Note_off_c, 0, 63, 64
2, 244399, Control_c, 0, 64, 0
2, 244415, Note_on_c, 0, 63, 69
2, 244431, Control_c, 0, 64, 127
2, 244452, Note_off_c, 0, 68, 64
2, 244553, Note_on_c, 0, 60, 64
2, 244592, Note_off_c, 0, 63, 64
2, 244715, Note_on_c, 0, 56, 58
2, 244739, Note_off_c, 0, 60, 64
2, 244867, Note_on_c, 0, 80, 71
2, 244871, Note_on_c, 0, 60, 53
2, 244922, Note_off_c, 0, 56, 64
2, 245016, Note_on_c, 0, 63, 54
2, 245021, Note_on_c, 0, 75, 74
2, 245034, Note_off_c, 0, 60, 64
2, 245036, Note_off_c, 0, 80, 64
2, 245058, Note_off_c, 0, 70, 64
2, 245089, Note_off_c, 0, 75, 64
2, 245130, Note_on_c, 0, 77, 73
2, 245156, Note_on_c, 0, 58, 66
2, 245174, Note_on_c, 0, 75, 72
2, 245180, Control_c, 0, 64, 0
2, 245194, Note_off_c, 0, 63, 64
2, 245203, Note_off_c, 0, 77, 64
2, 245231, Control_c, 0, 64, 127
2, 245310, Note_on_c, 0, 61, 61
2, 245316, Note_on_c, 0, 73, 71
2, 245347, Note_off_c, 0, 75, 64
2, 245444, Note_on_c, 0, 63, 56
2, 245451, Note_on_c, 0, 72, 68
2, 245465, Note_off_c, 0, 73, 64
2, 245470, Note_off_c, 0, 58, 64
2, 245494, Note_off_c, 0, 61, 64
2, 245588, Note_on_c, 0, 70, 66
2, 245595, Control_c, 0, 64, 0
2, 245599, Note_on_c, 0, 67, 55
2, 245610, Note_off_c, 0, 72, 64
2, 245613, Note_off_c, 0, 63, 64
2, 245639, Control_c, 0, 64, 127
2, 245731, Note_on_c, 0, 63, 67
2, 245798, Note_off_c, 0, 67, 64
2, 245862, Note_on_c, 0, 61, 56
2, 245889, Note_off_c, 0, 63, 64
2, 246020, Note_on_c, 0, 58, 54
2, 246039, Note_off_c, 0, 61, 64
2, 246148, Control_c, 0, 64, 0
2, 246168, Note_on_c, 0, 82, 73
2, 246175, Note_on_c, 0, 61, 66
2, 246191, Control_c, 0, 64, 127
2, 246222, Note_off_c, 0, 58, 64
2, 246318, Note_on_c, 0, 73, 67
2, 246322, Note_on_c, 0, 63, 64
2, 246327, Note_off_c, 0, 82, 64
2, 246350, Note_off_c, 0, 61, 64
2, 246359, Note_off_c, 0, 70, 64
2, 246431, Note_off_c, 0, 73, 64
2, 246448, Note_on_c, 0, 75, 72
2, 246481, Note_on_c, 0, 73, 72
2, 246482, Control_c, 0, 64, 0
2, 246489, Note_on_c, 0, 56, 47
2, 246492, Note_off_c, 0, 63, 64
2, 246516, Note_off_c, 0, 75, 64
2, 246535, Control_c, 0, 64, 127
2, 246623, Note_on_c, 0, 72, 70
2, 246629, Note_on_c, 0, 60, 58
2, 246641, Note_off_c, 0, 73, 64
2, 246689, Note_off_c, 0, 56, 64
2, 246772, Note_on_c, 0, 70, 74
2, 246775, Note_on_c, 0, 63, 55
2, 246798, Note_off_c, 0, 72, 64
2, 246825, Note_off_c, 0, 60, 64
2, 246924, Note_on_c, 0, 68, 65
2, 246936, Control_c, 0, 64, 0
2, 246947, Note_off_c, 0, 63, 64
2, 246953, Note_off_c, 0, 70, 64
2, 246977, Control_c, 0, 64, 127
2, 247075, Note_on_c, 0, 63, 71
2, 247165, Note_off_c, 0, 68, 64
2, 247205, Note_on_c, 0, 60, 58
2, 247223, Note_off_c, 0, 63, 64
2, 247364, Note_on_c, 0, 56, 63
2, 247371, Control_c, 0, 64, 0
2, 247391, Note_off_c, 0, 60, 64
2, 247419, Control_c, 0, 64, 127
2, 247567, Note_on_c, 0, 60, 63
2, 247569, Note_on_c, 0, 80, 78
2, 247639, Note_off_c, 0, 56, 64
2, 247719, Note_on_c, 0, 75, 71
2, 247721, Note_on_c, 0, 63, 63
2, 247742, Note_off_c, 0, 80, 64
2, 247758, Note_off_c, 0, 60, 64
2, 247818, Note_off_c, 0, 75, 64
2, 247850, Note_on_c, 0, 77, 67
2, 247879, Note_on_c, 0, 58, 38
2, 247880, Note_on_c, 0, 75, 77
2, 247900, Note_off_c, 0, 77, 64
2, 247903, Note_off_c, 0, 63, 64
2, 247915, Control_c, 0, 64, 0
2, 247970, Control_c, 0, 64, 127
2, 248024, Note_on_c, 0, 73, 74
2, 248028, Note_on_c, 0, 61, 56
2, 248056, Note_off_c, 0, 75, 64
2, 248149, Note_on_c, 0, 63, 63
2, 248160, Note_on_c, 0, 72, 74
2, 248177, Note_off_c, 0, 73, 64
2, 248179, Note_off_c, 0, 61, 64
2, 248221, Note_off_c, 0, 58, 64
2, 248300, Note_on_c, 0, 70, 74
2, 248309, Note_on_c, 0, 67, 47
2, 248318, Control_c, 0, 64, 0
2, 248323, Note_off_c, 0, 63, 64
2, 248340, Note_off_c, 0, 72, 64
2, 248360, Control_c, 0, 64, 127
2, 248432, Note_on_c, 0, 63, 51
2, 248572, Note_on_c, 0, 61, 58
2, 248592, Note_off_c, 0, 63, 64
2, 248626, Note_off_c, 0, 67, 64
2, 248723, Note_on_c, 0, 58, 67
2, 248735, Note_off_c, 0, 61, 64
2, 248875, Note_on_c, 0, 82, 69
2, 248877, Note_on_c, 0, 61, 64
2, 248942, Note_off_c, 0, 70, 64
2, 248946, Note_off_c, 0, 58, 64
2, 249027, Note_on_c, 0, 73, 74
2, 249035, Note_on_c, 0, 63, 54
2, 249043, Note_off_c, 0, 82, 64
2, 249102, Note_off_c, 0, 61, 64
2, 249186, Control_c, 0, 64, 0
2, 249194, Note_on_c, 0, 72, 68
2, 249198, Note_on_c, 0, 56, 55
2, 249211, Note_off_c, 0, 73, 64
2, 249226, Note_off_c, 0, 63, 64
2, 249247, Control_c, 0, 64, 127
2, 249356, Note_on_c, 0, 80, 69
2, 249360, Note_on_c, 0, 60, 63
2, 249389, Note_off_c, 0, 56, 64
2, 249507, Note_on_c, 0, 78, 74
2, 249511, Note_on_c, 0, 63, 60
2, 249518, Note_off_c, 0, 80, 64
2, 249551, Note_off_c, 0, 60, 64
2, 249595, Note_off_c, 0, 78, 64
2, 249610, Note_off_c, 0, 72, 64
2, 249665, Control_c, 0, 64, 0
2, 249670, Note_on_c, 0, 78, 76
2, 249673, Note_on_c, 0, 68, 65
2, 249686, Note_off_c, 0, 63, 64
2, 249709, Control_c, 0, 64, 127
2, 249828, Note_on_c, 0, 63, 45
2, 249885, Note_off_c, 0, 68, 64
2, 249973, Note_off_c, 0, 63, 64
2, 249976, Note_on_c, 0, 60, 42
2, 250130, Note_on_c, 0, 56, 55
2, 250138, Note_off_c, 0, 60, 64
2, 250283, Note_on_c, 0, 75, 67
2, 250286, Note_off_c, 0, 78, 64
2, 250292, Note_on_c, 0, 60, 38
2, 250301, Note_off_c, 0, 56, 64
2, 250427, Note_on_c, 0, 72, 72
2, 250438, Note_on_c, 0, 63, 37
2, 250444, Note_off_c, 0, 75, 64
2, 250449, Note_off_c, 0, 60, 64
2, 250595, Control_c, 0, 64, 0
2, 250603, Note_on_c, 0, 70, 69
2, 250607, Note_on_c, 0, 60, 46
2, 250610, Note_off_c, 0, 72, 64
2, 250624, Note_off_c, 0, 63, 64
2, 250651, Control_c, 0, 64, 127
2, 250757, Note_on_c, 0, 68, 63
2, 250788, Note_off_c, 0, 70, 64
2, 250911, Note_on_c, 0, 75, 67
2, 250964, Note_off_c, 0, 68, 64
2, 251078, Note_on_c, 0, 68, 75
2, 251089, Control_c, 0, 64, 0
2, 251121, Note_off_c, 0, 75, 64
2, 251138, Control_c, 0, 64, 127
2, 251246, Note_on_c, 0, 67, 67
2, 251268, Note_off_c, 0, 68, 64
2, 251313, Note_off_c, 0, 60, 64
2, 251395, Note_on_c, 0, 75, 63
2, 251465, Note_off_c, 0, 67, 64
2, 251531, Control_c, 0, 64, 0
2, 251554, Note_on_c, 0, 68, 51
2, 251571, Control_c, 0, 64, 127
2, 251582, Note_off_c, 0, 75, 64
2, 251725, Note_on_c, 0, 66, 57
2, 251765, Note_off_c, 0, 68, 64
2, 251886, Note_on_c, 0, 75, 58
2, 251923, Note_off_c, 0, 66, 64
2, 252044, Control_c, 0, 64, 0
2, 252050, Note_on_c, 0, 66, 67
2, 252053, Note_on_c, 0, 61, 53
2, 252074, Note_off_c, 0, 75, 64
2, 252097, Control_c, 0, 64, 127
2, 252220, Note_on_c, 0, 64, 57
2, 252235, Note_off_c, 0, 66, 64
2, 252356, Note_on_c, 0, 65, 69
2, 252389, Note_off_c, 0, 64, 64
2, 252507, Control_c, 0, 64, 0
2, 252521, Note_on_c, 0, 69, 63
2, 252537, Note_off_c, 0, 65, 64
2, 252560, Control_c, 0, 64, 127
2, 252672, Note_on_c, 0, 70, 47
2, 252697, Note_off_c, 0, 69, 64
2, 252821, Note_off_c, 0, 70, 64
2, 252830, Note_on_c, 0, 73, 69
2, 253003, Note_on_c, 0, 77, 65
2, 253008, Control_c, 0, 64, 0
2, 253014, Note_off_c, 0, 73, 64
2, 253057, Control_c, 0, 64, 127
2, 253173, Note_on_c, 0, 73, 67
2, 253186, Note_off_c, 0, 61, 64
2, 253192, Note_off_c, 0, 77, 64
2, 253354, Note_on_c, 0, 70, 67
2, 253375, Note_off_c, 0, 73, 64
2, 253536, Note_on_c, 0, 68, 66
2, 253536, Note_on_c, 0, 51, 54
2, 253551, Control_c, 0, 64, 0
2, 253573, Note_off_c, 0, 70, 64
2, 253610, Control_c, 0, 64, 127
2, 253691, Note_on_c, 0, 56, 50
2, 253797, Note_off_c, 0, 51, 64
2, 253842, Note_on_c, 0, 60, 53
2, 253880, Note_off_c, 0, 56, 64
2, 253980, Note_on_c, 0, 63, 58
2, 253994, Control_c, 0, 64, 0
2, 254009, Note_off_c, 0, 60, 64
2, 254032, Note_on_c, 0, 51, 4
2, 254035, Control_c, 0, 64, 127
2, 254138, Note_off_c, 0, 51, 64
2, 254148, Note_on_c, 0, 60, 51
2, 254185, Note_off_c, 0, 63, 64
2, 254269, Note_off_c, 0, 60, 64
2, 254304, Note_on_c, 0, 56, 26
2, 254384, Note_on_c, 0, 72, 47
2, 254417, Note_off_c, 0, 68, 64
2, 254426, Note_on_c, 0, 70, 69
2, 254433, Note_off_c, 0, 56, 64
2, 254447, Note_on_c, 0, 51, 54
2, 254450, Note_off_c, 0, 72, 64
2, 254457, Control_c, 0, 64, 0
2, 254512, Control_c, 0, 64, 127
2, 254602, Note_on_c, 0, 58, 52
2, 254661, Note_on_c, 0, 68, 79
2, 254700, Note_off_c, 0, 70, 64
2, 254746, Note_on_c, 0, 61, 60
2, 254760, Note_off_c, 0, 58, 64
2, 254836, Note_off_c, 0, 68, 64
2, 254878, Note_off_c, 0, 61, 64
2, 254953, Note_off_c, 0, 51, 64
2, 254963, Note_on_c, 0, 56, 34
2, 254964, Note_on_c, 0, 68, 58
2, 254985, Note_on_c, 0, 60, 33
2, 255004, Control_c, 0, 64, 0
2, 255096, Control_c, 0, 64, 127
2, 255136, Note_on_c, 0, 75, 65
2, 255156, Note_off_c, 0, 68, 64
2, 255295, Note_on_c, 0, 67, 65
2, 255304, Note_off_c, 0, 75, 64
2, 255435, Control_c, 0, 64, 0
2, 255446, Note_on_c, 0, 68, 68
2, 255457, Control_c, 0, 64, 127
2, 255476, Note_off_c, 0, 67, 64
2, 255598, Note_on_c, 0, 72, 59
2, 255612, Note_off_c, 0, 68, 64
2, 255644, Note_off_c, 0, 60, 64
2, 255748, Note_on_c, 0, 63, 67
2, 255767, Note_off_c, 0, 72, 64
2, 255843, Note_off_c, 0, 63, 64
2, 255906, Note_on_c, 0, 51, 31
2, 255916, Note_on_c, 0, 58, 34
2, 255929, Note_off_c, 0, 56, 64
2, 255931, Note_on_c, 0, 63, 63
2, 255983, Note_on_c, 0, 61, 71
2, 255986, Note_off_c, 0, 63, 64
2, 256020, Note_on_c, 0, 63, 79
2, 256023, Note_off_c, 0, 61, 64
2, 256066, Note_off_c, 0, 63, 64
2, 256068, Note_on_c, 0, 61, 76
2, 256098, Note_off_c, 0, 61, 64
2, 256099, Note_on_c, 0, 63, 81
2, 256142, Note_off_c, 0, 63, 64
2, 256143, Note_on_c, 0, 61, 72
2, 256164, Note_on_c, 0, 63, 78
2, 256171, Note_off_c, 0, 61, 64
2, 256195, Note_on_c, 0, 61, 76
2, 256203, Note_off_c, 0, 58, 64
2, 256212, Note_off_c, 0, 63, 64
2, 256218, Note_off_c, 0, 51, 64
2, 256248, Note_off_c, 0, 61, 64
2, 256255, Note_on_c, 0, 60, 78
2, 256305, Note_on_c, 0, 61, 72
2, 256327, Note_off_c, 0, 60, 64
2, 256392, Note_off_c, 0, 61, 64
2, 256405, Note_on_c, 0, 60, 79
2, 256408, Note_on_c, 0, 56, 63
2, 256411, Control_c, 0, 64, 0
2, 256416, Note_on_c, 0, 44, 36
2, 256444, Control_c, 0, 64, 127
2, 256564, Note_off_c, 0, 60, 64
2, 256572, Note_on_c, 0, 75, 81
2, 256625, Note_off_c, 0, 44, 64
2, 256700, Control_c, 0, 64, 0
2, 256704, Note_off_c, 0, 75, 64
2, 256704, Note_on_c, 0, 67, 74
2, 256733, Control_c, 0, 64, 127
2, 256860, Note_on_c, 0, 68, 63
2, 256894, Note_off_c, 0, 67, 64
2, 256898, Note_off_c, 0, 56, 64
2, 257028, Note_on_c, 0, 72, 66
2, 257037, Note_off_c, 0, 68, 64
2, 257166, Note_on_c, 0, 63, 67
2, 257216, Note_off_c, 0, 72, 64
2, 257269, Note_off_c, 0, 63, 64
2, 257351, Note_on_c, 0, 63, 67
2, 257352, Note_on_c, 0, 58, 28
2, 257366, Control_c, 0, 64, 0
2, 257375, Note_on_c, 0, 51, 4
2, 257389, Control_c, 0, 64, 127
2, 257430, Note_on_c, 0, 61, 71
2, 257436, Note_off_c, 0, 63, 64
2, 257481, Note_on_c, 0, 63, 71
2, 257485, Note_off_c, 0, 61, 64
2, 257521, Note_on_c, 0, 61, 78
2, 257527, Note_off_c, 0, 63, 64
2, 257555, Note_on_c, 0, 63, 75
2, 257561, Note_off_c, 0, 61, 64
2, 257593, Note_on_c, 0, 61, 79
2, 257615, Note_off_c, 0, 58, 64
2, 257618, Note_off_c, 0, 63, 64
2, 257646, Note_off_c, 0, 61, 64
2, 257648, Note_on_c, 0, 60, 64
2, 257691, Note_off_c, 0, 51, 64
2, 257702, Note_on_c, 0, 61, 77
2, 257736, Note_off_c, 0, 60, 64
2, 257752, Note_off_c, 0, 61, 64
2, 257791, Note_on_c, 0, 61, 75
2, 257799, Note_on_c, 0, 44, 63
2, 257820, Control_c, 0, 64, 0
2, 257868, Control_c, 0, 64, 127
2, 257979, Note_on_c, 0, 56, 34
2, 258008, Note_off_c, 0, 44, 64
2, 258130, Note_on_c, 0, 55, 46
2, 258143, Note_off_c, 0, 56, 64
2, 258286, Control_c, 0, 64, 0
2, 258293, Note_on_c, 0, 60, 58
2, 258300, Note_on_c, 0, 56, 59
2, 258307, Note_off_c, 0, 55, 64
2, 258329, Control_c, 0, 64, 127
2, 258335, Note_off_c, 0, 61, 64
2, 258462, Note_on_c, 0, 51, 42
2, 258614, Note_on_c, 0, 48, 43
2, 258622, Note_off_c, 0, 56, 64
2, 258636, Note_off_c, 0, 51, 64
2, 258795, Control_c, 0, 64, 0
2, 258798, Note_on_c, 0, 51, 52
2, 258826, Control_c, 0, 64, 127
2, 258831, Note_off_c, 0, 48, 64
2, 258969, Note_on_c, 0, 48, 53
2, 258984, Note_off_c, 0, 51, 64
2, 259140, Note_on_c, 0, 44, 55
2, 259142, Note_off_c, 0, 48, 64
2, 259354, Note_on_c, 0, 32, 52
2, 259363, Note_off_c, 0, 44, 64
2, 259372, Control_c, 0, 64, 0
2, 259439, Control_c, 0, 64, 127
2, 259552, Note_off_c, 0, 60, 64
2, 259800, Control_c, 0, 64, 0
2, 259828, Control_c, 0, 64, 127
2, 260224, Control_c, 0, 64, 0
2, 260254, Note_off_c, 0, 32, 64
2, 260254, Control_c, 0, 64, 127
2, 260663, Note_on_c, 0, 53, 51
2, 260702, Note_on_c, 0, 73, 65
2, 260705, Control_c, 0, 64, 0
2, 260749, Note_on_c, 0, 72, 74
2, 260778, Note_off_c, 0, 73, 64
2, 260799, Note_on_c, 0, 71, 66
2, 260813, Note_off_c, 0, 72, 64
2, 260844, Note_on_c, 0, 56, 63
2, 260850, Note_on_c, 0, 72, 69
2, 260870, Note_off_c, 0, 71, 64
2, 260871, Control_c, 0, 64, 127
2, 261004, Note_on_c, 0, 60, 47
2, 261045, Note_off_c, 0, 56, 64
2, 261164, Note_off_c, 0, 60, 64
2, 261170, Note_on_c, 0, 65, 32
2, 261248, Note_off_c, 0, 53, 64
2, 261307, Note_on_c, 0, 60, 54
2, 261344, Note_off_c, 0, 65, 64
2, 261370, Note_on_c, 0, 73, 69
2, 261405, Note_off_c, 0, 72, 64
2, 261444, Note_on_c, 0, 56, 59
2, 261458, Note_off_c, 0, 60, 64
2, 261608, Note_on_c, 0, 72, 65
2, 261616, Note_off_c, 0, 73, 64
2, 261620, Note_on_c, 0, 53, 51
2, 261626, Control_c, 0, 64, 0
2, 261635, Note_off_c, 0, 56, 64
2, 261676, Control_c, 0, 64, 127
2, 261752, Note_on_c, 0, 56, 53
2, 261790, Note_off_c, 0, 53, 64
2, 261912, Note_on_c, 0, 60, 40
2, 261956, Note_off_c, 0, 56, 64
2, 262085, Note_on_c, 0, 53, 37
2, 262117, Note_on_c, 0, 77, 66
2, 262138, Note_off_c, 0, 60, 64
2, 262160, Note_on_c, 0, 79, 67
2, 262185, Note_off_c, 0, 77, 64
2, 262208, Control_c, 0, 64, 0
2, 262229, Note_on_c, 0, 80, 81
2, 262246, Note_off_c, 0, 79, 64
2, 262265, Note_on_c, 0, 56, 51
2, 262341, Control_c, 0, 64, 127
2, 262402, Note_on_c, 0, 60, 44
2, 262560, Note_off_c, 0, 56, 64
2, 262560, Note_on_c, 0, 65, 46
2, 262567, Note_off_c, 0, 60, 64
2, 262673, Note_off_c, 0, 53, 64
2, 262716, Note_on_c, 0, 60, 46
2, 262848, Note_on_c, 0, 56, 54
2, 262870, Note_off_c, 0, 60, 64
2, 263006, Note_on_c, 0, 53, 45
2, 263038, Note_off_c, 0, 56, 64
2, 263128, Note_off_c, 0, 80, 64
2, 263159, Note_on_c, 0, 56, 49
2, 263190, Note_off_c, 0, 65, 64
2, 263196, Note_off_c, 0, 53, 64
2, 263221, Note_off_c, 0, 72, 64
2, 263316, Note_on_c, 0, 60, 58
2, 263447, Note_off_c, 0, 56, 64
2, 263482, Note_on_c, 0, 52, 42
2, 263508, Note_off_c, 0, 60, 64
2, 263532, Note_on_c, 0, 73, 67
2, 263580, Note_on_c, 0, 72, 78
2, 263584, Control_c, 0, 64, 0
2, 263613, Note_off_c, 0, 73, 64
2, 263627, Note_on_c, 0, 71, 67
2, 263638, Note_off_c, 0, 72, 64
2, 263646, Control_c, 0, 64, 127
2, 263666, Note_on_c, 0, 55, 63
2, 263674, Note_on_c, 0, 72, 70
2, 263701, Note_off_c, 0, 71, 64
2, 263823, Note_on_c, 0, 58, 48
2, 263868, Note_off_c, 0, 55, 64
2, 263962, Note_off_c, 0, 58, 64
2, 263970, Note_on_c, 0, 60, 49
2, 264024, Note_off_c, 0, 52, 64
2, 264108, Note_on_c, 0, 58, 59
2, 264180, Note_on_c, 0, 73, 68
2, 264204, Note_off_c, 0, 72, 64
2, 264262, Note_on_c, 0, 55, 40
2, 264271, Note_off_c, 0, 58, 64
2, 264370, Note_off_c, 0, 60, 64
2, 264391, Note_on_c, 0, 72, 58
2, 264402, Control_c, 0, 64, 0
2, 264408, Note_off_c, 0, 73, 64
2, 264409, Note_on_c, 0, 52, 59
2, 264415, Note_off_c, 0, 55, 64
2, 264453, Control_c, 0, 64, 127
2, 264550, Note_on_c, 0, 55, 54
2, 264595, Note_off_c, 0, 52, 64
2, 264694, Note_on_c, 0, 58, 46
2, 264718, Note_off_c, 0, 55, 64
2, 264858, Note_on_c, 0, 52, 37
2, 264864, Note_on_c, 0, 79, 58
2, 264885, Note_off_c, 0, 58, 64
2, 264911, Note_on_c, 0, 80, 71
2, 264924, Control_c, 0, 64, 0
2, 264949, Note_off_c, 0, 79, 64
2, 264963, Note_on_c, 0, 82, 75
2, 264991, Note_off_c, 0, 80, 64
2, 265012, Control_c, 0, 64, 127
2, 265024, Note_on_c, 0, 55, 54
2, 265158, Note_on_c, 0, 58, 53
2, 265175, Note_off_c, 0, 52, 64
2, 265215, Note_off_c, 0, 55, 64
2, 265320, Note_on_c, 0, 60, 34
2, 265329, Note_off_c, 0, 58, 64
2, 265460, Note_on_c, 0, 58, 42
2, 265610, Note_on_c, 0, 55, 42
2, 265631, Note_off_c, 0, 58, 64
2, 265775, Note_on_c, 0, 52, 52
2, 265777, Note_off_c, 0, 55, 64
2, 265928, Note_off_c, 0, 52, 64
2, 265928, Note_on_c, 0, 55, 50
2, 265993, Note_off_c, 0, 82, 64
2, 266037, Note_off_c, 0, 60, 64
2, 266062, Note_on_c, 0, 58, 42
2, 266084, Note_off_c, 0, 55, 64
2, 266234, Note_off_c, 0, 72, 64
2, 266239, Note_on_c, 0, 53, 30
2, 266259, Note_off_c, 0, 58, 64
2, 266283, Note_on_c, 0, 73, 65
2, 266326, Note_on_c, 0, 72, 66
2, 266347, Control_c, 0, 64, 0
2, 266355, Note_off_c, 0, 73, 64
2, 266370, Note_on_c, 0, 71, 55
2, 266375, Note_off_c, 0, 72, 64
2, 266402, Note_on_c, 0, 56, 65
2, 266405, Note_on_c, 0, 72, 67
2, 266427, Note_off_c, 0, 71, 64
2, 266519, Control_c, 0, 64, 127
2, 266556, Note_on_c, 0, 60, 43
2, 266622, Note_off_c, 0, 56, 64
2, 266696, Note_on_c, 0, 65, 34
2, 266698, Note_off_c, 0, 60, 64
2, 266861, Note_on_c, 0, 60, 31
2, 266866, Note_off_c, 0, 65, 64
2, 266896, Note_off_c, 0, 53, 64
2, 266922, Note_on_c, 0, 73, 65
2, 266938, Note_off_c, 0, 72, 64
2, 266980, Note_on_c, 0, 56, 59
2, 266993, Note_off_c, 0, 60, 64
2, 267123, Note_on_c, 0, 51, 57
2, 267128, Note_off_c, 0, 56, 64
2, 267130, Note_on_c, 0, 72, 67
2, 267145, Note_off_c, 0, 73, 64
2, 267168, Control_c, 0, 64, 0
2, 267233, Control_c, 0, 64, 127
2, 267271, Note_on_c, 0, 55, 57
2, 267324, Note_off_c, 0, 51, 64
2, 267429, Note_on_c, 0, 60, 54
2, 267446, Note_off_c, 0, 55, 64
2, 267589, Note_on_c, 0, 49, 44
2, 267603, Note_on_c, 0, 77, 67
2, 267653, Note_off_c, 0, 60, 64
2, 267658, Note_on_c, 0, 79, 69
2, 267689, Note_off_c, 0, 77, 64
2, 267696, Control_c, 0, 64, 0
2, 267729, Note_on_c, 0, 80, 78
2, 267740, Note_on_c, 0, 53, 47
2, 267747, Note_off_c, 0, 79, 64
2, 267876, Note_on_c, 0, 56, 49
2, 267899, Note_off_c, 0, 53, 64
2, 268028, Note_on_c, 0, 59, 58
2, 268028, Control_c, 0, 64, 127
2, 268043, Note_off_c, 0, 56, 64
2, 268056, Note_off_c, 0, 49, 64
2, 268165, Note_on_c, 0, 61, 54
2, 268185, Note_off_c, 0, 80, 64
2, 268197, Note_off_c, 0, 72, 64
2, 268239, Note_off_c, 0, 59, 64
2, 268348, Note_on_c, 0, 65, 58
2, 268512, Note_on_c, 0, 68, 68
2, 268685, Note_on_c, 0, 71, 51
2, 268738, Note_off_c, 0, 61, 64
2, 268745, Note_off_c, 0, 68, 64
2, 268886, Note_on_c, 0, 77, 35
2, 268912, Note_off_c, 0, 71, 64
2, 269034, Note_off_c, 0, 77, 64
2, 269087, Note_off_c, 0, 65, 64
2, 269201, Note_on_c, 0, 77, 66
2, 269202, Note_on_c, 0, 48, 66
2, 269256, Control_c, 0, 64, 0
2, 269331, Control_c, 0, 64, 127
2, 269800, Note_on_c, 0, 76, 48
2, 269822, Note_off_c, 0, 77, 64
2, 269994, Note_on_c, 0, 79, 47
2, 270017, Note_off_c, 0, 76, 64
2, 270144, Note_on_c, 0, 71, 53
2, 270312, Control_c, 0, 64, 0
2, 270328, Note_on_c, 0, 72, 56
2, 270348, Note_off_c, 0, 79, 64
2, 270355, Control_c, 0, 64, 127
2, 270366, Note_off_c, 0, 71, 64
2, 270520, Note_on_c, 0, 76, 58
2, 270526, Note_off_c, 0, 72, 64
2, 270697, Note_on_c, 0, 67, 37
2, 270749, Note_off_c, 0, 76, 64
2, 270941, Note_on_c, 0, 36, 55
2, 271043, Control_c, 0, 64, 0
2, 271046, Note_off_c, 0, 48, 64
2, 271127, Control_c, 0, 64, 127
2, 271755, Note_off_c, 0, 36, 64
2, 271882, Note_off_c, 0, 67, 64
2, 271985, Control_c, 0, 64, 0
2, 272329, Note_on_c, 0, 56, 36
2, 272367, Note_on_c, 0, 75, 76
2, 272437, Control_c, 0, 64, 127
2, 272519, Note_on_c, 0, 60, 57
2, 272688, Note_on_c, 0, 63, 34
2, 272714, Note_off_c, 0, 60, 64
2, 272723, Note_off_c, 0, 56, 64
2, 272814, Note_on_c, 0, 68, 51
2, 272834, Note_off_c, 0, 63, 64
2, 272972, Note_on_c, 0, 63, 54
2, 273025, Note_off_c, 0, 68, 64
2, 273116, Note_on_c, 0, 60, 42
2, 273130, Note_off_c, 0, 63, 64
2, 273282, Note_on_c, 0, 56, 46
2, 273298, Note_off_c, 0, 60, 64
2, 273456, Note_on_c, 0, 60, 50
2, 273463, Note_on_c, 0, 80, 54
2, 273471, Note_off_c, 0, 56, 64
2, 273501, Note_off_c, 0, 75, 64
2, 273623, Note_on_c, 0, 75, 67
2, 273629, Note_on_c, 0, 63, 40
2, 273637, Note_off_c, 0, 60, 64
2, 273646, Note_off_c, 0, 80, 64
2, 273735, Note_off_c, 0, 75, 64
2, 273807, Note_on_c, 0, 58, 54
2, 273811, Note_on_c, 0, 75, 73
2, 273836, Note_off_c, 0, 63, 64
2, 273845, Control_c, 0, 64, 0
2, 273902, Control_c, 0, 64, 127
2, 273992, Note_on_c, 0, 61, 47
2, 273994, Note_on_c, 0, 73, 71
2, 274030, Note_off_c, 0, 75, 64
2, 274081, Note_off_c, 0, 58, 64
2, 274129, Note_on_c, 0, 63, 47
2, 274152, Note_on_c, 0, 72, 59
2, 274164, Note_off_c, 0, 73, 64
2, 274169, Note_off_c, 0, 61, 64
2, 274294, Note_on_c, 0, 70, 70
2, 274302, Note_on_c, 0, 67, 45
2, 274305, Note_off_c, 0, 63, 64
2, 274312, Note_off_c, 0, 72, 64
2, 274333, Control_c, 0, 64, 0
2, 274373, Control_c, 0, 64, 127
2, 274439, Note_on_c, 0, 63, 64
2, 274584, Note_on_c, 0, 61, 63
2, 274600, Note_off_c, 0, 63, 64
2, 274622, Note_off_c, 0, 67, 64
2, 274737, Note_on_c, 0, 58, 56
2, 274755, Note_off_c, 0, 61, 64
2, 274892, Note_on_c, 0, 61, 67
2, 274896, Note_on_c, 0, 82, 71
2, 274926, Note_off_c, 0, 58, 64
2, 274979, Note_off_c, 0, 70, 64
2, 275040, Note_on_c, 0, 73, 76
2, 275047, Note_on_c, 0, 63, 63
2, 275069, Note_off_c, 0, 82, 64
2, 275089, Note_off_c, 0, 61, 64
2, 275127, Note_off_c, 0, 73, 64
2, 275234, Note_on_c, 0, 73, 74
2, 275236, Note_on_c, 0, 56, 55
2, 275248, Control_c, 0, 64, 0
2, 275270, Note_off_c, 0, 63, 64
2, 275304, Control_c, 0, 64, 127
2, 275385, Note_on_c, 0, 60, 58
2, 275390, Note_on_c, 0, 72, 69
2, 275407, Note_off_c, 0, 73, 64
2, 275465, Note_off_c, 0, 56, 64
2, 275532, Note_on_c, 0, 70, 58
2, 275543, Note_on_c, 0, 63, 53
2, 275550, Note_off_c, 0, 72, 64
2, 275565, Note_off_c, 0, 60, 64
2, 275686, Control_c, 0, 64, 0
2, 275690, Note_on_c, 0, 68, 51
2, 275713, Note_off_c, 0, 63, 64
2, 275719, Note_off_c, 0, 70, 64
2, 275728, Control_c, 0, 64, 127
2, 275838, Note_on_c, 0, 63, 67
2, 275896, Note_off_c, 0, 68, 64
2, 275982, Note_on_c, 0, 60, 54
2, 275996, Note_off_c, 0, 63, 64
2, 276132, Note_on_c, 0, 56, 63
2, 276149, Note_off_c, 0, 60, 64
2, 276301, Note_on_c, 0, 60, 63
2, 276302, Note_on_c, 0, 80, 58
2, 276313, Note_off_c, 0, 56, 64
2, 276436, Note_on_c, 0, 75, 56
2, 276438, Note_on_c, 0, 63, 67
2, 276453, Note_off_c, 0, 80, 64
2, 276457, Note_off_c, 0, 60, 64
2, 276517, Note_off_c, 0, 75, 64
2, 276593, Note_on_c, 0, 58, 51
2, 276594, Note_on_c, 0, 75, 71
2, 276611, Control_c, 0, 64, 0
2, 276631, Note_off_c, 0, 63, 64
2, 276670, Control_c, 0, 64, 127
2, 276749, Note_on_c, 0, 61, 63
2, 276749, Note_on_c, 0, 73, 71
2, 276771, Note_off_c, 0, 75, 64
2, 276883, Note_on_c, 0, 63, 56
2, 276898, Note_on_c, 0, 72, 67
2, 276912, Note_off_c, 0, 73, 64
2, 276919, Note_off_c, 0, 58, 64
2, 276935, Note_off_c, 0, 61, 64
2, 277028, Note_on_c, 0, 70, 66
2, 277040, Note_on_c, 0, 67, 45
2, 277051, Note_off_c, 0, 72, 64
2, 277054, Control_c, 0, 64, 0
2, 277062, Note_off_c, 0, 63, 64
2, 277111, Control_c, 0, 64, 127
2, 277166, Note_on_c, 0, 63, 66
2, 277305, Note_on_c, 0, 61, 51
2, 277320, Note_off_c, 0, 63, 64
2, 277342, Note_off_c, 0, 67, 64
2, 277456, Note_on_c, 0, 58, 47
2, 277465, Note_off_c, 0, 61, 64
2, 277601, Note_on_c, 0, 82, 74
2, 277609, Note_on_c, 0, 61, 63
2, 277646, Note_off_c, 0, 58, 64
2, 277707, Note_off_c, 0, 70, 64
2, 277750, Note_on_c, 0, 73, 67
2, 277761, Note_on_c, 0, 63, 58
2, 277791, Note_off_c, 0, 82, 64
2, 277803, Note_off_c, 0, 61, 64
2, 277916, Note_on_c, 0, 72, 65
2, 277919, Note_on_c, 0, 56, 56
2, 277924, Control_c, 0, 64, 0
2, 277940, Note_off_c, 0, 73, 64
2, 277943, Note_off_c, 0, 63, 64
2, 277992, Control_c, 0, 64, 127
2, 278069, Note_on_c, 0, 60, 67
2, 278079, Note_on_c, 0, 77, 67
2, 278098, Note_off_c, 0, 56, 64
2, 278231, Note_on_c, 0, 75, 63
2, 278243, Note_on_c, 0, 63, 51
2, 278267, Note_off_c, 0, 77, 64
2, 278295, Note_off_c, 0, 60, 64
2, 278375, Note_off_c, 0, 75, 64
2, 278378, Note_off_c, 0, 72, 64
2, 278395, Note_on_c, 0, 77, 66
2, 278412, Note_on_c, 0, 68, 54
2, 278423, Control_c, 0, 64, 0
2, 278426, Note_off_c, 0, 63, 64
2, 278439, Note_on_c, 0, 75, 68
2, 278445, Control_c, 0, 64, 127
2, 278471, Note_off_c, 0, 77, 64
2, 278492, Note_on_c, 0, 74, 72
2, 278502, Note_off_c, 0, 75, 64
2, 278545, Note_on_c, 0, 75, 81
2, 278551, Note_on_c, 0, 63, 67
2, 278581, Note_off_c, 0, 74, 64
2, 278590, Note_off_c, 0, 68, 64
2, 278710, Note_on_c, 0, 60, 46
2, 278719, Note_off_c, 0, 63, 64
2, 278864, Note_on_c, 0, 56, 55
2, 278877, Note_off_c, 0, 60, 64
2, 279013, Note_on_c, 0, 60, 64
2, 279016, Note_on_c, 0, 74, 74
2, 279036, Note_off_c, 0, 75, 64
2, 279042, Note_off_c, 0, 56, 64
2, 279161, Note_on_c, 0, 75, 80
2, 279164, Note_on_c, 0, 63, 66
2, 279211, Note_off_c, 0, 74, 64
2, 279233, Note_off_c, 0, 60, 64
2, 279328, Note_on_c, 0, 54, 55
2, 279332, Note_off_c, 0, 63, 64
2, 279335, Control_c, 0, 64, 0
2, 279339, Note_on_c, 0, 80, 70
2, 279378, Note_off_c, 0, 75, 64
2, 279384, Control_c, 0, 64, 127
2, 279484, Note_on_c, 0, 72, 71
2, 279486, Note_on_c, 0, 56, 64
2, 279619, Note_on_c, 0, 75, 81
2, 279627, Note_on_c, 0, 60, 53
2, 279630, Note_off_c, 0, 56, 64
2, 279636, Note_off_c, 0, 80, 64
2, 279717, Note_off_c, 0, 72, 64
2, 279732, Note_off_c, 0, 54, 64
2, 279761, Note_off_c, 0, 75, 64
2, 279784, Note_on_c, 0, 63, 51
2, 279787, Note_on_c, 0, 77, 55
2, 279799, Note_off_c, 0, 60, 64
2, 279838, Note_on_c, 0, 75, 78
2, 279862, Note_off_c, 0, 77, 64
2, 279885, Note_on_c, 0, 74, 74
2, 279891, Note_off_c, 0, 75, 64
2, 279915, Note_on_c, 0, 60, 60
2, 279923, Control_c, 0, 64, 0
2, 279929, Note_on_c, 0, 75, 88
2, 279955, Note_off_c, 0, 63, 64
2, 279955, Control_c, 0, 64, 127
2, 279965, Note_off_c, 0, 74, 64
2, 280050, Control_c, 0, 64, 0
2, 280066, Note_on_c, 0, 56, 54
2, 280087, Note_off_c, 0, 60, 64
2, 280102, Control_c, 0, 64, 127
2, 280208, Note_on_c, 0, 54, 56
2, 280223, Note_off_c, 0, 56, 64
2, 280358, Note_on_c, 0, 56, 65
2, 280359, Note_on_c, 0, 74, 77
2, 280369, Note_off_c, 0, 75, 64
2, 280377, Note_off_c, 0, 54, 64
2, 280502, Note_on_c, 0, 75, 79
2, 280503, Note_on_c, 0, 60, 64
2, 280521, Note_off_c, 0, 56, 64
2, 280535, Note_off_c, 0, 74, 64
2, 280684, Note_on_c, 0, 53, 44
2, 280693, Note_on_c, 0, 80, 75
2, 280707, Note_off_c, 0, 60, 64
2, 280716, Note_off_c, 0, 75, 64
2, 280724, Control_c, 0, 64, 0
2, 280781, Control_c, 0, 64, 127
2, 280867, Note_on_c, 0, 56, 63
2, 280872, Note_on_c, 0, 72, 67
2, 280997, Note_on_c, 0, 73, 78
2, 281003, Note_on_c, 0, 61, 56
2, 281024, Note_off_c, 0, 80, 64
2, 281055, Note_off_c, 0, 56, 64
2, 281063, Note_off_c, 0, 72, 64
2, 281168, Note_on_c, 0, 75, 67
2, 281171, Note_off_c, 0, 73, 64
2, 281178, Note_on_c, 0, 65, 42
2, 281191, Note_off_c, 0, 61, 64
2, 281217, Note_on_c, 0, 73, 88
2, 281235, Note_off_c, 0, 75, 64
2, 281243, Note_off_c, 0, 53, 64
2, 281252, Note_on_c, 0, 72, 77
2, 281266, Note_off_c, 0, 73, 64
2, 281289, Note_on_c, 0, 61, 54
2, 281297, Note_on_c, 0, 73, 81
2, 281302, Control_c, 0, 64, 0
2, 281328, Note_off_c, 0, 72, 64
2, 281351, Control_c, 0, 64, 127
2, 281379, Note_off_c, 0, 65, 64
2, 281433, Note_on_c, 0, 56, 55
2, 281480, Note_off_c, 0, 61, 64
2, 281584, Note_on_c, 0, 53, 50
2, 281616, Note_off_c, 0, 56, 64
2, 281729, Note_on_c, 0, 72, 77
2, 281734, Note_on_c, 0, 56, 58
2, 281744, Note_off_c, 0, 73, 64
2, 281754, Note_off_c, 0, 53, 64
2, 281886, Note_on_c, 0, 73, 85
2, 281888, Note_on_c, 0, 61, 67
2, 281906, Note_off_c, 0, 56, 64
2, 281912, Note_off_c, 0, 72, 64
2, 282094, Note_on_c, 0, 52, 61
2, 282105, Note_on_c, 0, 80, 78
2, 282124, Note_off_c, 0, 73, 64
2, 282132, Note_off_c, 0, 61, 64
2, 282144, Control_c, 0, 64, 0
2, 282210, Control_c, 0, 64, 127
2, 282296, Note_on_c, 0, 56, 67
2, 282300, Note_on_c, 0, 72, 70
2, 282429, Note_on_c, 0, 73, 72
2, 282438, Note_on_c, 0, 61, 61
2, 282461, Note_off_c, 0, 80, 64
2, 282516, Note_off_c, 0, 72, 64
2, 282584, Note_off_c, 0, 73, 64
2, 282588, Note_off_c, 0, 56, 64
2, 282597, Note_on_c, 0, 75, 67
2, 282612, Note_on_c, 0, 64, 59
2, 282618, Note_off_c, 0, 61, 64
2, 282628, Note_on_c, 0, 73, 85
2, 282634, Control_c, 0, 64, 0
2, 282644, Note_off_c, 0, 75, 64
2, 282673, Note_on_c, 0, 72, 76
2, 282679, Note_off_c, 0, 73, 64
2, 282684, Control_c, 0, 64, 127
2, 282713, Note_on_c, 0, 73, 85
2, 282740, Note_on_c, 0, 61, 57
2, 282748, Note_off_c, 0, 72, 64
2, 282788, Note_off_c, 0, 52, 64
2, 282816, Note_off_c, 0, 64, 64
2, 282892, Note_on_c, 0, 56, 36
2, 282929, Note_off_c, 0, 61, 64
2, 283028, Control_c, 0, 64, 0
2, 283057, Note_on_c, 0, 52, 70
2, 283072, Note_off_c, 0, 56, 64
2, 283077, Control_c, 0, 64, 127
2, 283243, Note_on_c, 0, 72, 71
2, 283251, Note_on_c, 0, 56, 55
2, 283263, Note_off_c, 0, 73, 64
2, 283341, Note_off_c, 0, 52, 64
2, 283443, Note_on_c, 0, 73, 78
2, 283458, Note_on_c, 0, 61, 47
2, 283462, Note_off_c, 0, 72, 64
2, 283516, Note_off_c, 0, 56, 64
2, 283666, Note_off_c, 0, 73, 64
2, 283749, Note_on_c, 0, 73, 84
2, 283754, Note_on_c, 0, 51, 76
2, 283768, Note_off_c, 0, 61, 64
2, 283776, Control_c, 0, 64, 0
2, 283832, Control_c, 0, 64, 127
2, 283945, Note_on_c, 0, 67, 65
2, 284007, Note_off_c, 0, 73, 64
2, 284092, Note_on_c, 0, 79, 69
2, 284123, Note_off_c, 0, 67, 64
2, 284253, Note_off_c, 0, 79, 64
2, 284260, Note_on_c, 0, 73, 96
2, 284434, Note_on_c, 0, 82, 79
2, 284465, Note_off_c, 0, 73, 64
2, 284592, Note_on_c, 0, 79, 79
2, 284616, Note_off_c, 0, 82, 64
2, 284829, Note_on_c, 0, 85, 85
2, 284844, Note_off_c, 0, 79, 64
2, 284850, Control_c, 0, 64, 0
2, 284906, Control_c, 0, 64, 127
2, 285327, Note_on_c, 0, 55, 58
2, 285329, Note_off_c, 0, 51, 64
2, 285330, Control_c, 0, 64, 0
2, 285378, Control_c, 0, 64, 127
2, 285495, Note_on_c, 0, 84, 84
2, 285500, Note_off_c, 0, 85, 64
2, 285648, Note_on_c, 0, 82, 67
2, 285663, Note_off_c, 0, 84, 64
2, 285818, Note_on_c, 0, 80, 65
2, 285825, Control_c, 0, 64, 0
2, 285856, Note_off_c, 0, 82, 64
2, 285874, Control_c, 0, 64, 127
2, 285991, Note_on_c, 0, 79, 58
2, 286017, Note_off_c, 0, 80, 64
2, 286145, Note_on_c, 0, 77, 65
2, 286151, Note_off_c, 0, 79, 64
2, 286324, Note_on_c, 0, 75, 58
2, 286356, Note_off_c, 0, 77, 64
2, 286468, Note_on_c, 0, 82, 65
2, 286489, Note_off_c, 0, 75, 64
2, 286628, Note_on_c, 0, 73, 63
2, 286697, Note_off_c, 0, 82, 64
2, 286779, Note_off_c, 0, 73, 64
2, 286781, Note_on_c, 0, 56, 57
2, 286788, Note_on_c, 0, 72, 69
2, 286817, Note_off_c, 0, 55, 64
2, 286824, Control_c, 0, 64, 0
2, 286890, Control_c, 0, 64, 127
2, 286931, Note_on_c, 0, 84, 67
2, 287087, Note_on_c, 0, 75, 67
2, 287105, Note_off_c, 0, 84, 64
2, 287126, Note_off_c, 0, 72, 64
2, 287246, Note_on_c, 0, 80, 58
2, 287256, Note_off_c, 0, 75, 64
2, 287398, Note_on_c, 0, 72, 52
2, 287400, Note_off_c, 0, 80, 64
2, 287556, Note_on_c, 0, 75, 54
2, 287626, Note_off_c, 0, 72, 64
2, 287701, Note_on_c, 0, 68, 50
2, 287703, Note_off_c, 0, 75, 64
2, 287868, Note_on_c, 0, 72, 58
2, 287874, Note_off_c, 0, 68, 64
2, 288005, Note_on_c, 0, 63, 57
2, 288034, Note_off_c, 0, 56, 64
2, 288072, Note_off_c, 0, 72, 64
2, 288162, Note_on_c, 0, 68, 63
2, 288179, Note_off_c, 0, 63, 64
2, 288306, Note_on_c, 0, 60, 68
2, 288314, Note_on_c, 0, 48, 65
2, 288324, Note_off_c, 0, 68, 64
2, 288456, Note_on_c, 0, 63, 56
2, 288462, Note_on_c, 0, 51, 60
2, 288468, Note_off_c, 0, 60, 64
2, 288478, Note_off_c, 0, 48, 64
2, 288632, Note_on_c, 0, 44, 65
2, 288632, Note_on_c, 0, 56, 86
2, 288645, Control_c, 0, 64, 0
2, 288698, Note_off_c, 0, 51, 64
2, 288700, Control_c, 0, 64, 127
2, 288789, Note_off_c, 0, 63, 64
2, 288800, Note_on_c, 0, 60, 66
2, 288811, Note_on_c, 0, 48, 46
2, 288864, Note_off_c, 0, 56, 64
2, 288962, Note_on_c, 0, 51, 45
2, 288965, Note_off_c, 0, 44, 64
2, 288972, Note_on_c, 0, 63, 71
2, 288980, Note_off_c, 0, 48, 64
2, 288987, Note_off_c, 0, 60, 64
2, 289147, Note_on_c, 0, 42, 51
2, 289149, Note_on_c, 0, 54, 84
2, 289167, Control_c, 0, 64, 0
2, 289171, Note_off_c, 0, 51, 64
2, 289183, Note_off_c, 0, 63, 64
2, 289216, Control_c, 0, 64, 127
2, 289326, Note_on_c, 0, 63, 72
2, 289326, Note_on_c, 0, 51, 45
2, 289356, Note_off_c, 0, 42, 64
2, 289379, Note_off_c, 0, 54, 64
2, 289493, Note_on_c, 0, 54, 76
2, 289499, Note_on_c, 0, 42, 58
2, 289508, Note_off_c, 0, 51, 64
2, 289675, Note_off_c, 0, 42, 64
2, 289690, Note_on_c, 0, 53, 67
2, 289696, Note_off_c, 0, 54, 64
2, 289710, Note_on_c, 0, 41, 46
2, 289712, Note_off_c, 0, 63, 64
2, 289736, Control_c, 0, 64, 0
2, 289794, Control_c, 0, 64, 127
2, 289862, Note_on_c, 0, 61, 65
2, 290002, Note_on_c, 0, 56, 71
2, 290061, Note_off_c, 0, 61, 64
2, 290067, Note_off_c, 0, 53, 64
2, 290151, Note_on_c, 0, 65, 49
2, 290157, Note_off_c, 0, 56, 64
2, 290303, Note_off_c, 0, 65, 64
2, 290309, Note_on_c, 0, 61, 63
2, 290447, Note_on_c, 0, 68, 64
2, 290455, Note_off_c, 0, 61, 64
2, 290581, Note_off_c, 0, 68, 64
2, 290587, Note_on_c, 0, 65, 61
2, 290739, Note_on_c, 0, 73, 67
2, 290877, Note_on_c, 0, 68, 67
2, 290905, Note_off_c, 0, 41, 64
2, 290920, Note_off_c, 0, 65, 64
2, 290933, Note_off_c, 0, 73, 64
2, 291084, Control_c, 0, 64, 0
2, 291089, Note_on_c, 0, 77, 69
2, 291111, Note_off_c, 0, 68, 64
2, 291127, Control_c, 0, 64, 127
2, 291566, Control_c, 0, 64, 0
2, 291583, Note_on_c, 0, 49, 66
2, 291634, Control_c, 0, 64, 127
2, 291746, Note_on_c, 0, 76, 71
2, 291753, Note_off_c, 0, 77, 64
2, 291888, Note_on_c, 0, 77, 67
2, 291904, Note_off_c, 0, 76, 64
2, 292061, Control_c, 0, 64, 0
2, 292073, Note_on_c, 0, 80, 65
2, 292082, Note_on_c, 0, 61, 50
2, 292086, Note_off_c, 0, 77, 64
2, 292132, Control_c, 0, 64, 127
2, 292237, Note_on_c, 0, 72, 57
2, 292277, Note_off_c, 0, 80, 64
2, 292395, Note_on_c, 0, 73, 73
2, 292409, Note_off_c, 0, 72, 64
2, 292577, Control_c, 0, 64, 0
2, 292581, Note_on_c, 0, 77, 66
2, 292603, Note_off_c, 0, 73, 64
2, 292636, Control_c, 0, 64, 127
2, 292746, Note_on_c, 0, 65, 63
2, 292765, Note_off_c, 0, 77, 64
2, 292796, Note_off_c, 0, 49, 64
2, 292894, Note_on_c, 0, 77, 59
2, 292935, Note_off_c, 0, 65, 64
2, 293020, Control_c, 0, 64, 0
2, 293053, Note_off_c, 0, 77, 64
2, 293060, Note_on_c, 0, 76, 67
2, 293070, Control_c, 0, 64, 127
2, 293098, Note_off_c, 0, 61, 64
2, 293215, Note_on_c, 0, 75, 65
2, 293249, Note_off_c, 0, 76, 64
2, 293374, Note_on_c, 0, 74, 60
2, 293388, Note_off_c, 0, 75, 64
2, 293531, Note_on_c, 0, 73, 63
2, 293537, Control_c, 0, 64, 0
2, 293561, Note_off_c, 0, 74, 64
2, 293576, Control_c, 0, 64, 127
2, 293682, Note_on_c, 0, 72, 60
2, 293704, Note_off_c, 0, 73, 64
2, 293836, Note_on_c, 0, 70, 53
2, 293842, Note_off_c, 0, 72, 64
2, 294007, Note_on_c, 0, 68, 58
2, 294020, Note_on_c, 0, 51, 34
2, 294039, Note_off_c, 0, 70, 64
2, 294045, Control_c, 0, 64, 0
2, 294111, Control_c, 0, 64, 127
2, 294167, Note_on_c, 0, 56, 46
2, 294324, Note_on_c, 0, 60, 54
2, 294363, Note_off_c, 0, 56, 64
2, 294471, Note_on_c, 0, 63, 51
2, 294501, Note_off_c, 0, 60, 64
2, 294505, Note_off_c, 0, 51, 64
2, 294648, Note_on_c, 0, 60, 53
2, 294815, Note_on_c, 0, 56, 36
2, 294818, Note_off_c, 0, 60, 64
2, 294936, Note_off_c, 0, 63, 64
2, 294989, Note_on_c, 0, 72, 58
2, 294994, Note_on_c, 0, 51, 47
2, 294994, Control_c, 0, 64, 0
2, 295014, Note_off_c, 0, 56, 64
2, 295043, Note_off_c, 0, 68, 64
2, 295064, Control_c, 0, 64, 127
2, 295140, Note_on_c, 0, 70, 68
2, 295145, Note_on_c, 0, 56, 43
2, 295154, Note_off_c, 0, 72, 64
2, 295216, Note_off_c, 0, 51, 64
2, 295294, Note_on_c, 0, 68, 63
2, 295299, Note_on_c, 0, 60, 47
2, 295317, Note_off_c, 0, 70, 64
2, 295325, Note_off_c, 0, 56, 64
2, 295473, Note_on_c, 0, 75, 71
2, 295476, Note_on_c, 0, 51, 49
2, 295499, Note_off_c, 0, 60, 64
2, 295502, Note_off_c, 0, 68, 64
2, 295521, Control_c, 0, 64, 0
2, 295587, Control_c, 0, 64, 127
2, 295632, Note_on_c, 0, 56, 46
2, 295776, Note_on_c, 0, 60, 54
2, 295824, Note_off_c, 0, 56, 64
2, 295858, Note_off_c, 0, 51, 64
2, 295944, Note_on_c, 0, 63, 54
2, 295972, Note_off_c, 0, 60, 64
2, 296109, Note_on_c, 0, 60, 55
2, 296174, Note_off_c, 0, 63, 64
2, 296276, Note_on_c, 0, 56, 40
2, 296297, Note_off_c, 0, 60, 64
2, 296451, Note_on_c, 0, 51, 55
2, 296477, Note_off_c, 0, 56, 64
2, 296608, Note_on_c, 0, 56, 55
2, 296706, Note_off_c, 0, 51, 64
2, 296753, Note_on_c, 0, 60, 50
2, 296761, Note_off_c, 0, 75, 64
2, 296871, Note_off_c, 0, 60, 64
2, 296881, Note_off_c, 0, 56, 64
2, 296917, Note_on_c, 0, 53, 37
2, 296955, Note_on_c, 0, 75, 71
2, 296999, Note_on_c, 0, 74, 72
2, 297023, Note_off_c, 0, 75, 64
2, 297037, Note_on_c, 0, 72, 66
2, 297046, Note_off_c, 0, 74, 64
2, 297076, Note_on_c, 0, 56, 36
2, 297083, Note_on_c, 0, 74, 72
2, 297088, Control_c, 0, 64, 0
2, 297106, Note_off_c, 0, 72, 64
2, 297137, Control_c, 0, 64, 127
2, 297176, Control_c, 0, 64, 0
2, 297197, Control_c, 0, 64, 127
2, 297224, Note_on_c, 0, 58, 46
2, 297296, Note_off_c, 0, 56, 64
2, 297393, Note_on_c, 0, 62, 42
2, 297401, Note_off_c, 0, 58, 64
2, 297530, Note_on_c, 0, 58, 58
2, 297534, Note_on_c, 0, 72, 67
2, 297545, Note_off_c, 0, 74, 64
2, 297559, Note_off_c, 0, 53, 64
2, 297598, Note_off_c, 0, 62, 64
2, 297673, Note_on_c, 0, 74, 66
2, 297678, Note_on_c, 0, 56, 45
2, 297696, Note_off_c, 0, 58, 64
2, 297719, Note_off_c, 0, 72, 64
2, 297825, Note_on_c, 0, 53, 54
2, 297834, Note_on_c, 0, 77, 65
2, 297847, Control_c, 0, 64, 0
2, 297851, Note_off_c, 0, 74, 64
2, 297855, Note_off_c, 0, 56, 64
2, 297886, Control_c, 0, 64, 127
2, 297967, Note_on_c, 0, 56, 51
2, 297982, Note_on_c, 0, 75, 84
2, 297987, Note_off_c, 0, 53, 64
2, 298008, Note_off_c, 0, 77, 64
2, 298126, Note_off_c, 0, 75, 64
2, 298130, Note_on_c, 0, 74, 73
2, 298140, Note_on_c, 0, 58, 63
2, 298173, Note_off_c, 0, 56, 64
2, 298277, Note_off_c, 0, 58, 64
2, 298309, Note_on_c, 0, 53, 71
2, 298317, Note_on_c, 0, 84, 78
2, 298326, Control_c, 0, 64, 0
2, 298339, Control_c, 0, 64, 127
2, 298437, Note_off_c, 0, 84, 64
2, 298464, Note_on_c, 0, 56, 63
2, 298469, Note_on_c, 0, 84, 80
2, 298595, Note_off_c, 0, 53, 64
2, 298605, Note_on_c, 0, 58, 65
2, 298618, Note_on_c, 0, 82, 72
2, 298626, Note_off_c, 0, 84, 64
2, 298663, Note_off_c, 0, 74, 64
2, 298685, Note_off_c, 0, 56, 64
2, 298754, Note_on_c, 0, 80, 85
2, 298761, Note_on_c, 0, 62, 65
2, 298773, Note_off_c, 0, 58, 64
2, 298778, Note_off_c, 0, 82, 64
2, 298898, Note_on_c, 0, 58, 54
2, 298906, Note_on_c, 0, 79, 74
2, 298921, Note_off_c, 0, 80, 64
2, 298974, Note_off_c, 0, 62, 64
2, 299042, Note_on_c, 0, 56, 49
2, 299056, Note_on_c, 0, 77, 71
2, 299059, Note_off_c, 0, 79, 64
2, 299065, Note_off_c, 0, 58, 64
2, 299208, Note_on_c, 0, 75, 76
2, 299208, Note_on_c, 0, 53, 60
2, 299210, Note_off_c, 0, 56, 64
2, 299224, Control_c, 0, 64, 0
2, 299238, Note_off_c, 0, 77, 64
2, 299263, Control_c, 0, 64, 127
2, 299354, Note_on_c, 0, 74, 74
2, 299361, Note_on_c, 0, 56, 53
2, 299384, Note_off_c, 0, 75, 64
2, 299403, Note_off_c, 0, 53, 64
2, 299496, Note_off_c, 0, 56, 64
2, 299498, Note_on_c, 0, 58, 56
2, 299510, Note_on_c, 0, 77, 67
2, 299527, Note_off_c, 0, 74, 64
2, 299590, Note_off_c, 0, 58, 64
2, 299633, Note_off_c, 0, 77, 64
2, 299671, Note_on_c, 0, 55, 58
2, 299705, Note_on_c, 0, 77, 63
2, 299738, Control_c, 0, 64, 0
2, 299746, Note_on_c, 0, 75, 84
2, 299768, Note_off_c, 0, 77, 64
2, 299789, Note_on_c, 0, 74, 73
2, 299798, Note_off_c, 0, 75, 64
2, 299820, Note_on_c, 0, 58, 56
2, 299828, Note_on_c, 0, 75, 76
2, 299858, Control_c, 0, 64, 127
2, 299865, Note_off_c, 0, 74, 64
2, 299926, Control_c, 0, 64, 0
2, 299936, Control_c, 0, 64, 127
2, 299959, Note_on_c, 0, 63, 51
2, 299990, Note_off_c, 0, 58, 64
2, 300115, Note_on_c, 0, 67, 42
2, 300118, Note_off_c, 0, 63, 64
2, 300252, Note_on_c, 0, 63, 40
2, 300390, Note_on_c, 0, 58, 47
2, 300395, Note_off_c, 0, 55, 64
2, 300396, Note_on_c, 0, 74, 71
2, 300403, Note_off_c, 0, 63, 64
2, 300417, Note_off_c, 0, 75, 64
2, 300547, Note_on_c, 0, 75, 72
2, 300555, Note_off_c, 0, 58, 64
2, 300555, Control_c, 0, 64, 0
2, 300560, Note_on_c, 0, 55, 47
2, 300586, Note_off_c, 0, 74, 64
2, 300598, Control_c, 0, 64, 127
2, 300681, Note_on_c, 0, 58, 63
2, 300683, Note_off_c, 0, 67, 64
2, 300690, Note_on_c, 0, 77, 73
2, 300694, Note_off_c, 0, 55, 64
2, 300716, Note_off_c, 0, 75, 64
2, 300840, Note_on_c, 0, 73, 72
2, 300847, Note_on_c, 0, 63, 44
2, 300855, Note_off_c, 0, 58, 64
2, 300865, Note_off_c, 0, 77, 64
2, 300942, Note_off_c, 0, 73, 64
2, 301022, Note_on_c, 0, 56, 46
2, 301028, Note_on_c, 0, 73, 72
2, 301038, Control_c, 0, 64, 0
2, 301049, Note_off_c, 0, 63, 64
2, 301113, Control_c, 0, 64, 127
2, 301175, Note_on_c, 0, 60, 58
2, 301183, Note_on_c, 0, 72, 71
2, 301211, Note_off_c, 0, 56, 64
2, 301218, Note_off_c, 0, 73, 64
2, 301322, Note_on_c, 0, 70, 63
2, 301328, Note_on_c, 0, 63, 54
2, 301340, Note_off_c, 0, 72, 64
2, 301371, Note_off_c, 0, 60, 64
2, 301479, Note_on_c, 0, 68, 59
2, 301498, Note_off_c, 0, 63, 64
2, 301522, Control_c, 0, 64, 0
2, 301551, Note_off_c, 0, 70, 64
2, 301571, Control_c, 0, 64, 127
2, 301619, Note_on_c, 0, 63, 65
2, 301665, Note_off_c, 0, 68, 64
2, 301745, Note_on_c, 0, 60, 60
2, 301772, Note_off_c, 0, 63, 64
2, 301899, Note_on_c, 0, 56, 61
2, 301909, Note_off_c, 0, 60, 64
2, 302051, Note_on_c, 0, 60, 54
2, 302053, Note_on_c, 0, 80, 58
2, 302069, Note_off_c, 0, 56, 64
2, 302187, Note_on_c, 0, 63, 42
2, 302194, Note_on_c, 0, 75, 63
2, 302203, Note_off_c, 0, 60, 64
2, 302224, Note_off_c, 0, 80, 64
2, 302300, Note_off_c, 0, 75, 64
2, 302323, Note_on_c, 0, 77, 57
2, 302345, Note_on_c, 0, 58, 55
2, 302362, Note_on_c, 0, 75, 81
2, 302367, Control_c, 0, 64, 0
2, 302370, Note_off_c, 0, 63, 64
2, 302391, Note_off_c, 0, 77, 64
2, 302425, Control_c, 0, 64, 127
2, 302503, Note_on_c, 0, 61, 65
2, 302505, Note_on_c, 0, 73, 73
2, 302529, Note_off_c, 0, 75, 64
2, 302624, Note_on_c, 0, 63, 63
2, 302634, Note_on_c, 0, 72, 69
2, 302636, Note_off_c, 0, 58, 64
2, 302643, Note_off_c, 0, 61, 64
2, 302646, Note_off_c, 0, 73, 64
2, 302769, Note_on_c, 0, 70, 66
2, 302779, Note_on_c, 0, 67, 51
2, 302784, Note_off_c, 0, 72, 64
2, 302785, Note_off_c, 0, 63, 64
2, 302785, Control_c, 0, 64, 0
2, 302852, Control_c, 0, 64, 127
2, 302909, Note_on_c, 0, 63, 37
2, 302967, Note_off_c, 0, 67, 64
2, 303048, Note_on_c, 0, 61, 34
2, 303057, Note_off_c, 0, 63, 64
2, 303211, Note_on_c, 0, 58, 51
2, 303222, Note_off_c, 0, 61, 64
2, 303229, Control_c, 0, 64, 0
2, 303240, Control_c, 0, 64, 127
2, 303354, Note_on_c, 0, 82, 71
2, 303359, Note_on_c, 0, 61, 61
2, 303405, Note_off_c, 0, 58, 64
2, 303501, Note_on_c, 0, 73, 73
2, 303506, Note_on_c, 0, 63, 65
2, 303511, Note_off_c, 0, 82, 64
2, 303532, Note_off_c, 0, 70, 64
2, 303541, Note_off_c, 0, 61, 64
2, 303631, Note_off_c, 0, 73, 64
2, 303638, Note_on_c, 0, 75, 74
2, 303678, Note_on_c, 0, 73, 72
2, 303678, Note_on_c, 0, 56, 37
2, 303691, Control_c, 0, 64, 0
2, 303696, Note_off_c, 0, 63, 64
2, 303703, Note_off_c, 0, 75, 64
2, 303758, Control_c, 0, 64, 127
2, 303813, Note_on_c, 0, 60, 52
2, 303816, Note_on_c, 0, 72, 67
2, 303827, Note_off_c, 0, 56, 64
2, 303833, Note_off_c, 0, 73, 64
2, 303949, Note_on_c, 0, 70, 65
2, 303959, Note_on_c, 0, 63, 49
2, 303994, Note_off_c, 0, 72, 64
2, 303995, Note_off_c, 0, 60, 64
2, 304102, Note_off_c, 0, 70, 64
2, 304111, Note_on_c, 0, 68, 48
2, 304131, Note_off_c, 0, 63, 64
2, 304141, Control_c, 0, 64, 0
2, 304207, Control_c, 0, 64, 127
2, 304253, Note_on_c, 0, 63, 51
2, 304296, Note_off_c, 0, 68, 64
2, 304398, Note_on_c, 0, 60, 43
2, 304427, Note_off_c, 0, 63, 64
2, 304546, Note_on_c, 0, 56, 53
2, 304560, Note_off_c, 0, 60, 64
2, 304699, Note_on_c, 0, 80, 67
2, 304708, Note_on_c, 0, 60, 66
2, 304728, Note_off_c, 0, 56, 64
2, 304834, Note_on_c, 0, 63, 58
2, 304837, Note_on_c, 0, 75, 54
2, 304845, Note_off_c, 0, 60, 64
2, 304864, Note_off_c, 0, 80, 64
2, 304940, Note_off_c, 0, 75, 64
2, 304967, Note_on_c, 0, 77, 68
2, 304984, Note_on_c, 0, 58, 56
2, 305001, Note_on_c, 0, 75, 79
2, 305009, Note_off_c, 0, 63, 64
2, 305014, Control_c, 0, 64, 0
2, 305031, Note_off_c, 0, 77, 64
2, 305079, Control_c, 0, 64, 127
2, 305144, Note_on_c, 0, 61, 65
2, 305148, Note_on_c, 0, 73, 74
2, 305170, Note_off_c, 0, 75, 64
2, 305233, Note_off_c, 0, 58, 64
2, 305283, Note_on_c, 0, 63, 58
2, 305289, Note_on_c, 0, 72, 70
2, 305309, Note_off_c, 0, 61, 64
2, 305317, Note_off_c, 0, 73, 64
2, 305424, Note_on_c, 0, 70, 63
2, 305436, Control_c, 0, 64, 0
2, 305444, Note_on_c, 0, 67, 45
2, 305447, Note_off_c, 0, 72, 64
2, 305459, Note_off_c, 0, 63, 64
2, 305487, Control_c, 0, 64, 127
2, 305568, Note_on_c, 0, 63, 34
2, 305656, Note_off_c, 0, 67, 64
2, 305712, Note_on_c, 0, 61, 34
2, 305719, Note_off_c, 0, 63, 64
2, 305862, Note_on_c, 0, 58, 48
2, 305878, Note_off_c, 0, 61, 64
2, 305909, Control_c, 0, 64, 0
2, 305956, Control_c, 0, 64, 127
2, 306008, Note_on_c, 0, 82, 68
2, 306012, Note_on_c, 0, 61, 47
2, 306100, Note_off_c, 0, 58, 64
2, 306121, Note_off_c, 0, 70, 64
2, 306158, Note_on_c, 0, 73, 69
2, 306165, Note_on_c, 0, 63, 65
2, 306209, Note_off_c, 0, 61, 64
2, 306324, Note_off_c, 0, 82, 64
2, 306331, Note_on_c, 0, 56, 50
2, 306332, Note_on_c, 0, 72, 71
2, 306339, Note_off_c, 0, 73, 64
2, 306342, Control_c, 0, 64, 0
2, 306365, Note_off_c, 0, 63, 64
2, 306400, Control_c, 0, 64, 127
2, 306478, Note_on_c, 0, 60, 63
2, 306487, Note_on_c, 0, 80, 71
2, 306527, Note_off_c, 0, 56, 64
2, 306632, Note_on_c, 0, 78, 74
2, 306633, Note_on_c, 0, 63, 57
2, 306646, Note_off_c, 0, 80, 64
2, 306662, Note_off_c, 0, 60, 64
2, 306715, Note_off_c, 0, 78, 64
2, 306732, Note_off_c, 0, 72, 64
2, 306802, Note_on_c, 0, 78, 84
2, 306809, Note_on_c, 0, 68, 56
2, 306816, Note_off_c, 0, 63, 64
2, 306823, Control_c, 0, 64, 0
2, 306877, Control_c, 0, 64, 127
2, 306951, Note_on_c, 0, 63, 44
2, 307033, Note_off_c, 0, 68, 64
2, 307120, Note_off_c, 0, 63, 64
2, 307125, Note_on_c, 0, 60, 37
2, 307285, Note_on_c, 0, 56, 49
2, 307291, Note_off_c, 0, 60, 64
2, 307438, Note_on_c, 0, 60, 49
2, 307442, Note_off_c, 0, 56, 64
2, 307446, Note_on_c, 0, 75, 66
2, 307482, Note_off_c, 0, 78, 64
2, 307597, Note_on_c, 0, 72, 65
2, 307600, Note_off_c, 0, 60, 64
2, 307609, Note_on_c, 0, 63, 33
2, 307615, Note_off_c, 0, 75, 64
2, 307768, Note_on_c, 0, 70, 66
2, 307776, Note_off_c, 0, 63, 64
2, 307786, Note_on_c, 0, 60, 45
2, 307791, Note_off_c, 0, 72, 64
2, 307798, Control_c, 0, 64, 0
2, 307856, Control_c, 0, 64, 127
2, 307952, Note_on_c, 0, 68, 65
2, 307985, Note_off_c, 0, 70, 64
2, 308111, Note_on_c, 0, 75, 37
2, 308137, Note_off_c, 0, 68, 64
2, 308266, Note_on_c, 0, 68, 59
2, 308275, Control_c, 0, 64, 0
2, 308296, Control_c, 0, 64, 127
2, 308318, Note_off_c, 0, 75, 64
2, 308440, Note_on_c, 0, 67, 49
2, 308476, Note_off_c, 0, 68, 64
2, 308578, Note_on_c, 0, 75, 49
2, 308714, Control_c, 0, 64, 0
2, 308738, Note_on_c, 0, 68, 45
2, 308743, Note_off_c, 0, 67, 64
2, 308766, Control_c, 0, 64, 127
2, 308772, Note_off_c, 0, 75, 64
2, 308910, Note_on_c, 0, 66, 37
2, 308947, Note_off_c, 0, 68, 64
2, 309076, Note_on_c, 0, 75, 54
2, 309115, Note_off_c, 0, 66, 64
2, 309244, Note_off_c, 0, 60, 64
2, 309244, Note_on_c, 0, 66, 66
2, 309254, Note_on_c, 0, 61, 42
2, 309263, Control_c, 0, 64, 0
2, 309280, Note_off_c, 0, 75, 64
2, 309320, Control_c, 0, 64, 127
2, 309400, Note_on_c, 0, 64, 51
2, 309414, Note_off_c, 0, 66, 64
2, 309559, Note_off_c, 0, 64, 64
2, 309563, Note_on_c, 0, 65, 53
2, 309741, Note_on_c, 0, 69, 44
2, 309744, Note_off_c, 0, 65, 64
2, 309900, Note_on_c, 0, 70, 67
2, 309937, Note_off_c, 0, 69, 64
2, 310054, Note_on_c, 0, 73, 73
2, 310083, Note_off_c, 0, 70, 64
2, 310089, Control_c, 0, 64, 0
2, 310127, Control_c, 0, 64, 127
2, 310171, Note_off_c, 0, 61, 64
2, 310185, Control_c, 0, 64, 0
2, 310241, Note_on_c, 0, 77, 71
2, 310262, Note_off_c, 0, 73, 64
2, 310271, Control_c, 0, 64, 127
2, 310428, Note_on_c, 0, 73, 71
2, 310451, Note_off_c, 0, 77, 64
2, 310605, Note_on_c, 0, 70, 67
2, 310624, Note_off_c, 0, 73, 64
2, 310814, Note_on_c, 0, 51, 40
2, 310856, Note_on_c, 0, 68, 68
2, 310874, Note_off_c, 0, 70, 64
2, 310891, Control_c, 0, 64, 0
2, 310974, Control_c, 0, 64, 127
2, 311009, Note_on_c, 0, 56, 40
2, 311125, Note_off_c, 0, 51, 64
2, 311164, Note_on_c, 0, 60, 49
2, 311200, Note_off_c, 0, 56, 64
2, 311307, Note_on_c, 0, 63, 34
2, 311314, Note_off_c, 0, 60, 64
2, 311482, Note_on_c, 0, 60, 34
2, 311499, Note_off_c, 0, 63, 64
2, 311608, Note_off_c, 0, 60, 64
2, 311624, Note_on_c, 0, 56, 31
2, 311736, Note_on_c, 0, 72, 51
2, 311759, Note_off_c, 0, 56, 64
2, 311761, Note_on_c, 0, 51, 45
2, 311766, Note_on_c, 0, 70, 67
2, 311773, Control_c, 0, 64, 0
2, 311782, Note_off_c, 0, 68, 64
2, 311791, Note_off_c, 0, 72, 64
2, 311841, Control_c, 0, 64, 127
2, 311947, Note_on_c, 0, 58, 33
2, 311995, Note_on_c, 0, 68, 67
2, 312033, Note_off_c, 0, 70, 64
2, 312094, Note_on_c, 0, 61, 42
2, 312108, Note_off_c, 0, 58, 64
2, 312166, Note_off_c, 0, 68, 64
2, 312231, Note_off_c, 0, 61, 64
2, 312312, Note_off_c, 0, 51, 64
2, 312327, Note_on_c, 0, 56, 37
2, 312335, Note_on_c, 0, 68, 67
2, 312349, Note_on_c, 0, 60, 44
2, 312359, Control_c, 0, 64, 0
2, 312415, Control_c, 0, 64, 127
2, 312507, Note_on_c, 0, 75, 54
2, 312525, Note_off_c, 0, 68, 64
2, 312643, Note_off_c, 0, 75, 64
2, 312646, Note_on_c, 0, 67, 66
2, 312795, Note_on_c, 0, 68, 63
2, 312831, Note_off_c, 0, 67, 64
2, 312863, Note_off_c, 0, 60, 64
2, 312965, Note_on_c, 0, 72, 66
2, 312971, Note_off_c, 0, 68, 64
2, 313104, Note_on_c, 0, 63, 56
2, 313138, Note_off_c, 0, 72, 64
2, 313250, Note_off_c, 0, 63, 64
2, 313250, Note_on_c, 0, 51, 4
2, 313264, Note_on_c, 0, 58, 32
2, 313267, Note_off_c, 0, 56, 64
2, 313296, Note_on_c, 0, 63, 63
2, 313324, Control_c, 0, 64, 0
2, 313355, Note_on_c, 0, 61, 67
2, 313361, Note_off_c, 0, 63, 64
2, 313365, Control_c, 0, 64, 127
2, 313402, Note_on_c, 0, 63, 72
2, 313407, Note_off_c, 0, 61, 64
2, 313445, Note_on_c, 0, 61, 70
2, 313449, Note_off_c, 0, 63, 64
2, 313484, Note_off_c, 0, 61, 64
2, 313486, Note_on_c, 0, 63, 72
2, 313525, Note_on_c, 0, 61, 81
2, 313543, Note_off_c, 0, 63, 64
2, 313580, Note_off_c, 0, 61, 64
2, 313588, Note_on_c, 0, 60, 64
2, 313629, Note_off_c, 0, 58, 64
2, 313640, Note_on_c, 0, 61, 73
2, 313656, Note_off_c, 0, 51, 64
2, 313664, Note_off_c, 0, 60, 64
2, 313728, Note_off_c, 0, 61, 64
2, 313739, Note_on_c, 0, 60, 71
2, 313755, Note_on_c, 0, 56, 46
2, 313757, Note_on_c, 0, 44, 67
2, 313763, Control_c, 0, 64, 0
2, 313826, Control_c, 0, 64, 127
2, 313899, Note_on_c, 0, 75, 79
2, 314030, Note_off_c, 0, 75, 64
2, 314037, Note_off_c, 0, 44, 64
2, 314038, Note_on_c, 0, 67, 68
2, 314044, Note_off_c, 0, 60, 64
2, 314094, Note_off_c, 0, 56, 64
2, 314185, Note_on_c, 0, 68, 65
2, 314205, Note_off_c, 0, 67, 64
2, 314215, Control_c, 0, 64, 0
2, 314299, Control_c, 0, 64, 127
2, 314330, Note_on_c, 0, 72, 56
2, 314344, Note_off_c, 0, 68, 64
2, 314466, Note_on_c, 0, 63, 67
2, 314515, Note_off_c, 0, 72, 64
2, 314595, Note_off_c, 0, 63, 64
2, 314672, Note_on_c, 0, 58, 32
2, 314672, Note_on_c, 0, 51, 29
2, 314700, Note_on_c, 0, 63, 54
2, 314752, Note_on_c, 0, 61, 72
2, 314757, Note_off_c, 0, 63, 64
2, 314797, Note_on_c, 0, 63, 72
2, 314799, Note_off_c, 0, 61, 64
2, 314835, Note_on_c, 0, 61, 73
2, 314838, Note_off_c, 0, 63, 64
2, 314870, Note_off_c, 0, 61, 64
2, 314875, Note_on_c, 0, 63, 71
2, 314906, Note_off_c, 0, 63, 64
2, 314913, Note_on_c, 0, 61, 63
2, 314935, Note_on_c, 0, 63, 79
2, 314941, Note_off_c, 0, 61, 64
2, 314968, Note_on_c, 0, 61, 76
2, 314983, Note_off_c, 0, 63, 64
2, 315013, Note_off_c, 0, 58, 64
2, 315018, Note_off_c, 0, 61, 64
2, 315019, Note_on_c, 0, 60, 69
2, 315058, Note_on_c, 0, 61, 80
2, 315086, Note_off_c, 0, 60, 64
2, 315096, Note_off_c, 0, 61, 64
2, 315132, Note_on_c, 0, 61, 77
2, 315147, Note_on_c, 0, 44, 52
2, 315151, Control_c, 0, 64, 0
2, 315154, Note_off_c, 0, 51, 64
2, 315206, Control_c, 0, 64, 127
2, 315321, Note_on_c, 0, 56, 54
2, 315324, Note_off_c, 0, 44, 64
2, 315475, Note_off_c, 0, 56, 64
2, 315494, Note_on_c, 0, 55, 29
2, 315646, Note_on_c, 0, 60, 59
2, 315648, Note_on_c, 0, 56, 61
2, 315655, Note_off_c, 0, 55, 64
2, 315657, Control_c, 0, 64, 0
2, 315694, Note_off_c, 0, 61, 64
2, 315697, Control_c, 0, 64, 127
2, 315829, Note_on_c, 0, 51, 33
2, 315956, Note_off_c, 0, 56, 64
2, 315973, Note_off_c, 0, 51, 64
2, 315981, Note_on_c, 0, 48, 30
2, 316161, Note_on_c, 0, 51, 39
2, 316174, Note_off_c, 0, 48, 64
2, 316333, Note_on_c, 0, 48, 47
2, 316522, Note_on_c, 0, 44, 38
2, 316546, Note_off_c, 0, 51, 64
2, 316578, Note_off_c, 0, 48, 64
2, 316764, Control_c, 0, 64, 0
2, 316770, Note_on_c, 0, 32, 46
2, 316824, Control_c, 0, 64, 127
2, 316908, Note_off_c, 0, 60, 64
2, 317016, Note_off_c, 0, 32, 64
2, 317023, Note_off_c, 0, 44, 64
2, 318399, Note_on_c, 0, 57, 56
2, 318427, Note_on_c, 0, 77, 54
2, 318452, Control_c, 0, 64, 0
2, 318456, Note_on_c, 0, 75, 70
2, 318488, Note_off_c, 0, 77, 64
2, 318506, Note_on_c, 0, 74, 65
2, 318512, Note_off_c, 0, 75, 64
2, 318541, Note_on_c, 0, 60, 43
2, 318541, Control_c, 0, 64, 127
2, 318549, Note_on_c, 0, 75, 84
2, 318590, Note_off_c, 0, 74, 64
2, 318693, Note_on_c, 0, 63, 49
2, 318740, Note_off_c, 0, 60, 64
2, 318825, Note_on_c, 0, 66, 31
2, 318835, Note_off_c, 0, 63, 64
2, 318958, Note_on_c, 0, 63, 64
2, 318971, Note_off_c, 0, 57, 64
2, 319013, Note_off_c, 0, 66, 64
2, 319033, Note_on_c, 0, 77, 71
2, 319050, Note_off_c, 0, 75, 64
2, 319124, Note_on_c, 0, 60, 55
2, 319155, Note_off_c, 0, 63, 64
2, 319215, Control_c, 0, 64, 0
2, 319266, Note_on_c, 0, 75, 66
2, 319268, Note_off_c, 0, 77, 64
2, 319271, Note_on_c, 0, 57, 55
2, 319285, Control_c, 0, 64, 127
2, 319291, Note_off_c, 0, 60, 64
2, 319422, Note_on_c, 0, 60, 53
2, 319423, Note_off_c, 0, 57, 64
2, 319433, Note_off_c, 0, 75, 64
2, 319569, Note_on_c, 0, 63, 56
2, 319599, Note_off_c, 0, 60, 64
2, 319736, Note_on_c, 0, 57, 54
2, 319738, Note_on_c, 0, 84, 71
2, 319766, Note_off_c, 0, 63, 64
2, 319783, Note_on_c, 0, 85, 68
2, 319803, Control_c, 0, 64, 0
2, 319806, Note_off_c, 0, 84, 64
2, 319834, Note_on_c, 0, 87, 69
2, 319857, Note_off_c, 0, 85, 64
2, 319887, Note_on_c, 0, 60, 54
2, 319902, Control_c, 0, 64, 127
2, 319912, Control_c, 0, 64, 0
2, 319942, Control_c, 0, 64, 127
2, 320001, Note_off_c, 0, 57, 64
2, 320016, Note_on_c, 0, 63, 56
2, 320070, Note_off_c, 0, 60, 64
2, 320162, Note_on_c, 0, 66, 38
2, 320175, Note_off_c, 0, 63, 64
2, 320283, Note_on_c, 0, 63, 66
2, 320344, Note_off_c, 0, 66, 64
2, 320440, Note_on_c, 0, 60, 57
2, 320556, Note_off_c, 0, 63, 64
2, 320601, Note_off_c, 0, 60, 64
2, 320615, Note_on_c, 0, 57, 59
2, 320762, Note_on_c, 0, 60, 61
2, 320788, Note_off_c, 0, 57, 64
2, 320908, Note_on_c, 0, 63, 64
2, 320976, Note_off_c, 0, 60, 64
2, 321082, Note_on_c, 0, 58, 54
2, 321101, Note_off_c, 0, 63, 64
2, 321127, Control_c, 0, 64, 0
2, 321211, Control_c, 0, 64, 127
2, 321225, Note_off_c, 0, 87, 64
2, 321232, Note_on_c, 0, 82, 95
2, 321384, Note_on_c, 0, 85, 61
2, 321386, Note_off_c, 0, 82, 64
2, 321512, Note_off_c, 0, 85, 64
2, 321516, Note_on_c, 0, 77, 79
2, 321672, Note_on_c, 0, 82, 57
2, 321708, Note_off_c, 0, 77, 64
2, 321822, Note_on_c, 0, 73, 66
2, 321824, Note_off_c, 0, 82, 64
2, 321973, Note_off_c, 0, 73, 64
2, 321980, Note_on_c, 0, 77, 56
2, 322109, Note_on_c, 0, 70, 70
2, 322154, Note_off_c, 0, 77, 64
2, 322168, Note_off_c, 0, 58, 64
2, 322254, Note_on_c, 0, 73, 63
2, 322280, Note_off_c, 0, 70, 64
2, 322385, Note_off_c, 0, 73, 64
2, 322400, Note_on_c, 0, 65, 58
2, 322529, Note_on_c, 0, 70, 61
2, 322580, Note_off_c, 0, 65, 64
2, 322605, Note_off_c, 0, 70, 64
2, 322665, Note_on_c, 0, 49, 61
2, 322677, Note_on_c, 0, 61, 74
2, 322799, Note_off_c, 0, 61, 64
2, 322828, Note_on_c, 0, 53, 54
2, 322830, Note_on_c, 0, 65, 48
2, 322838, Note_off_c, 0, 49, 64
2, 322973, Note_on_c, 0, 61, 67
2, 322975, Note_on_c, 0, 49, 35
2, 323003, Note_off_c, 0, 53, 64
2, 323009, Note_off_c, 0, 65, 64
2, 323096, Note_on_c, 0, 46, 48
2, 323108, Note_on_c, 0, 58, 66
2, 323117, Note_off_c, 0, 49, 64
2, 323137, Note_off_c, 0, 61, 64
2, 323251, Note_on_c, 0, 65, 72
2, 323266, Note_on_c, 0, 53, 37
2, 323268, Note_off_c, 0, 58, 64
2, 323272, Note_off_c, 0, 46, 64
2, 323395, Note_on_c, 0, 49, 72
2, 323398, Note_on_c, 0, 61, 69
2, 323531, Note_on_c, 0, 44, 47
2, 323538, Note_off_c, 0, 49, 64
2, 323539, Note_on_c, 0, 56, 76
2, 323543, Note_off_c, 0, 61, 64
2, 323585, Note_off_c, 0, 65, 64
2, 323645, Note_off_c, 0, 56, 64
2, 323669, Note_off_c, 0, 44, 64
2, 323674, Note_off_c, 0, 53, 64
2, 323676, Note_on_c, 0, 55, 69
2, 323683, Note_on_c, 0, 43, 55
2, 323695, Control_c, 0, 64, 0
2, 323788, Control_c, 0, 64, 127
2, 323812, Note_on_c, 0, 59, 67
2, 323819, Note_on_c, 0, 47, 47
2, 323849, Note_off_c, 0, 55, 64
2, 323865, Note_off_c, 0, 43, 64
2, 323940, Note_on_c, 0, 50, 56
2, 323952, Note_on_c, 0, 62, 58
2, 323978, Note_off_c, 0, 59, 64
2, 324000, Note_off_c, 0, 47, 64
2, 324084, Note_on_c, 0, 65, 71
2, 324089, Note_off_c, 0, 50, 64
2, 324092, Note_on_c, 0, 53, 66
2, 324104, Note_off_c, 0, 62, 64
2, 324122, Note_off_c, 0, 65, 64
2, 324128, Note_off_c, 0, 53, 64
2, 324218, Note_on_c, 0, 68, 79
2, 324228, Note_on_c, 0, 56, 58
2, 324352, Note_on_c, 0, 59, 63
2, 324356, Note_off_c, 0, 68, 64
2, 324358, Note_off_c, 0, 56, 64
2, 324358, Note_on_c, 0, 71, 66
2, 324492, Note_off_c, 0, 71, 64
2, 324499, Note_on_c, 0, 62, 59
2, 324500, Note_on_c, 0, 74, 70
2, 324552, Note_off_c, 0, 59, 64
2, 324634, Note_off_c, 0, 62, 64
2, 324651, Note_on_c, 0, 65, 51
2, 324651, Note_on_c, 0, 77, 67
2, 324664, Note_off_c, 0, 74, 64
2, 324700, Note_off_c, 0, 77, 64
2, 324789, Note_on_c, 0, 68, 58
2, 324795, Note_on_c, 0, 80, 64
2, 324835, Note_off_c, 0, 65, 64
2, 324896, Note_off_c, 0, 80, 64
2, 324908, Note_off_c, 0, 68, 64
2, 324948, Note_on_c, 0, 79, 69
2, 324984, Note_on_c, 0, 80, 88
2, 325010, Note_off_c, 0, 79, 64
2, 325015, Note_on_c, 0, 68, 37
2, 325024, Note_on_c, 0, 82, 79
2, 325036, Note_off_c, 0, 80, 64
2, 325053, Control_c, 0, 64, 0
2, 325074, Note_on_c, 0, 80, 94
2, 325092, Note_off_c, 0, 82, 64
2, 325105, Control_c, 0, 64, 127
2, 325834, Note_on_c, 0, 59, 53
2, 325996, Note_off_c, 0, 80, 64
2, 326077, Note_on_c, 0, 79, 44
2, 326120, Note_off_c, 0, 59, 64
2, 326219, Note_on_c, 0, 77, 71
2, 326252, Note_off_c, 0, 79, 64
2, 326290, Note_off_c, 0, 77, 64
2, 326376, Note_off_c, 0, 68, 64
2, 326398, Note_on_c, 0, 60, 57
2, 326398, Note_on_c, 0, 77, 67
2, 326434, Control_c, 0, 64, 0
2, 326498, Control_c, 0, 64, 127
2, 326524, Note_on_c, 0, 63, 49
2, 326533, Note_on_c, 0, 75, 77
2, 326563, Note_off_c, 0, 77, 64
2, 326670, Note_on_c, 0, 67, 35
2, 326677, Note_on_c, 0, 74, 67
2, 326687, Note_off_c, 0, 75, 64
2, 326717, Note_off_c, 0, 63, 64
2, 326828, Note_on_c, 0, 72, 47
2, 326845, Note_off_c, 0, 67, 64
2, 326896, Note_off_c, 0, 60, 64
2, 326958, Note_on_c, 0, 67, 51
2, 327076, Note_on_c, 0, 63, 54
2, 327099, Note_off_c, 0, 67, 64
2, 327122, Note_off_c, 0, 74, 64
2, 327244, Note_on_c, 0, 60, 42
2, 327264, Note_off_c, 0, 63, 64
2, 327395, Note_on_c, 0, 63, 55
2, 327398, Note_on_c, 0, 84, 77
2, 327455, Note_off_c, 0, 72, 64
2, 327485, Note_off_c, 0, 60, 64
2, 327540, Note_on_c, 0, 79, 70
2, 327552, Note_on_c, 0, 67, 42
2, 327556, Note_off_c, 0, 84, 64
2, 327576, Note_off_c, 0, 63, 64
2, 327612, Note_off_c, 0, 79, 64
2, 327631, Note_on_c, 0, 80, 64
2, 327675, Note_on_c, 0, 79, 67
2, 327682, Note_on_c, 0, 62, 47
2, 327702, Control_c, 0, 64, 0
2, 327707, Note_off_c, 0, 80, 64
2, 327708, Note_off_c, 0, 67, 64
2, 327769, Control_c, 0, 64, 127
2, 327816, Note_on_c, 0, 65, 61
2, 327834, Note_on_c, 0, 77, 67
2, 327840, Note_off_c, 0, 79, 64
2, 327955, Note_on_c, 0, 75, 71
2, 327962, Note_on_c, 0, 67, 46
2, 327963, Note_off_c, 0, 62, 64
2, 327981, Note_off_c, 0, 77, 64
2, 327999, Note_off_c, 0, 65, 64
2, 328099, Note_on_c, 0, 71, 56
2, 328103, Note_on_c, 0, 74, 67
2, 328107, Note_off_c, 0, 75, 64
2, 328115, Note_off_c, 0, 67, 64
2, 328121, Control_c, 0, 64, 0
2, 328188, Control_c, 0, 64, 127
2, 328234, Note_on_c, 0, 67, 48
2, 328366, Note_on_c, 0, 65, 47
2, 328374, Note_off_c, 0, 67, 64
2, 328402, Note_off_c, 0, 71, 64
2, 328515, Note_on_c, 0, 62, 46
2, 328517, Note_off_c, 0, 65, 64
2, 328657, Note_on_c, 0, 65, 40
2, 328657, Note_on_c, 0, 86, 56
2, 328703, Note_off_c, 0, 62, 64
2, 328779, Note_off_c, 0, 86, 64
2, 328794, Note_on_c, 0, 77, 52
2, 328796, Note_on_c, 0, 67, 40
2, 328816, Note_off_c, 0, 65, 64
2, 328820, Note_off_c, 0, 74, 64
2, 328872, Note_off_c, 0, 77, 64
2, 328929, Note_on_c, 0, 79, 50
2, 328961, Note_on_c, 0, 60, 39
2, 328971, Note_on_c, 0, 77, 29
2, 328976, Control_c, 0, 64, 0
2, 328979, Note_off_c, 0, 67, 64
2, 329000, Note_off_c, 0, 79, 64
2, 329034, Control_c, 0, 64, 127
2, 329098, Note_on_c, 0, 63, 44
2, 329110, Note_on_c, 0, 75, 56
2, 329127, Note_off_c, 0, 77, 64
2, 329225, Note_on_c, 0, 67, 47
2, 329231, Note_off_c, 0, 75, 64
2, 329233, Note_on_c, 0, 74, 55
2, 329376, Note_on_c, 0, 72, 40
2, 329379, Note_off_c, 0, 67, 64
2, 329408, Note_off_c, 0, 63, 64
2, 329430, Note_off_c, 0, 74, 64
2, 329504, Note_off_c, 0, 60, 64
2, 329510, Note_on_c, 0, 67, 44
2, 329628, Note_on_c, 0, 63, 40
2, 329655, Note_off_c, 0, 67, 64
2, 329786, Note_on_c, 0, 60, 42
2, 329801, Note_off_c, 0, 63, 64
2, 329808, Control_c, 0, 64, 0
2, 329838, Note_off_c, 0, 72, 64
2, 329866, Control_c, 0, 64, 127
2, 329918, Note_on_c, 0, 63, 54
2, 329928, Note_on_c, 0, 80, 71
2, 329962, Note_off_c, 0, 60, 64
2, 330070, Note_on_c, 0, 75, 64
2, 330072, Note_on_c, 0, 68, 67
2, 330086, Note_off_c, 0, 80, 64
2, 330094, Note_off_c, 0, 63, 64
2, 330157, Note_off_c, 0, 75, 64
2, 330170, Note_on_c, 0, 77, 67
2, 330177, Note_off_c, 0, 68, 64
2, 330216, Note_on_c, 0, 75, 76
2, 330216, Note_on_c, 0, 58, 67
2, 330238, Note_off_c, 0, 77, 64
2, 330247, Control_c, 0, 64, 0
2, 330302, Control_c, 0, 64, 127
2, 330359, Note_on_c, 0, 61, 69
2, 330365, Note_on_c, 0, 73, 74
2, 330393, Note_off_c, 0, 75, 64
2, 330475, Note_off_c, 0, 58, 64
2, 330486, Note_on_c, 0, 63, 64
2, 330503, Note_on_c, 0, 72, 68
2, 330507, Note_off_c, 0, 61, 64
2, 330521, Note_off_c, 0, 73, 64
2, 330616, Note_on_c, 0, 70, 71
2, 330633, Note_on_c, 0, 67, 65
2, 330640, Note_off_c, 0, 72, 64
2, 330644, Control_c, 0, 64, 0
2, 330648, Note_off_c, 0, 63, 64
2, 330701, Control_c, 0, 64, 127
2, 330754, Note_on_c, 0, 63, 46
2, 330807, Note_off_c, 0, 67, 64
2, 330889, Note_on_c, 0, 61, 49
2, 330910, Note_off_c, 0, 63, 64
2, 331041, Note_on_c, 0, 58, 49
2, 331049, Note_off_c, 0, 61, 64
2, 331176, Note_on_c, 0, 82, 54
2, 331179, Note_on_c, 0, 61, 47
2, 331197, Note_off_c, 0, 58, 64
2, 331318, Note_on_c, 0, 63, 44
2, 331320, Note_off_c, 0, 82, 64
2, 331320, Note_on_c, 0, 73, 53
2, 331341, Note_off_c, 0, 61, 64
2, 331342, Note_off_c, 0, 70, 64
2, 331413, Note_off_c, 0, 73, 64
2, 331425, Note_on_c, 0, 75, 40
2, 331464, Note_on_c, 0, 56, 39
2, 331467, Note_on_c, 0, 73, 63
2, 331472, Control_c, 0, 64, 0
2, 331476, Note_off_c, 0, 63, 64
2, 331493, Note_off_c, 0, 75, 64
2, 331574, Control_c, 0, 64, 127
2, 331596, Note_on_c, 0, 72, 50
2, 331607, Note_on_c, 0, 60, 40
2, 331616, Note_off_c, 0, 73, 64
2, 331623, Note_off_c, 0, 56, 64
2, 331734, Note_on_c, 0, 70, 53
2, 331751, Note_on_c, 0, 63, 45
2, 331761, Note_off_c, 0, 72, 64
2, 331795, Note_off_c, 0, 60, 64
2, 331885, Note_on_c, 0, 68, 53
2, 331903, Control_c, 0, 64, 0
2, 331909, Note_off_c, 0, 63, 64
2, 331944, Control_c, 0, 64, 127
2, 332014, Note_on_c, 0, 63, 49
2, 332055, Note_off_c, 0, 68, 64
2, 332152, Note_on_c, 0, 60, 46
2, 332186, Note_off_c, 0, 63, 64
2, 332312, Note_on_c, 0, 56, 43
2, 332325, Note_off_c, 0, 60, 64
2, 332366, Note_off_c, 0, 70, 64
2, 332446, Note_on_c, 0, 60, 65
2, 332449, Note_on_c, 0, 75, 71
2, 332589, Note_off_c, 0, 56, 64
2, 332601, Note_on_c, 0, 72, 71
2, 332606, Note_on_c, 0, 63, 57
2, 332610, Note_off_c, 0, 75, 64
2, 332641, Note_off_c, 0, 60, 64
2, 332699, Note_off_c, 0, 72, 64
2, 332743, Note_on_c, 0, 73, 53
2, 332764, Note_on_c, 0, 72, 72
2, 332769, Note_off_c, 0, 63, 64
2, 332784, Control_c, 0, 64, 0
2, 332787, Note_on_c, 0, 55, 54
2, 332816, Note_off_c, 0, 73, 64
2, 332825, Control_c, 0, 64, 127
2, 332908, Note_on_c, 0, 58, 65
2, 332915, Note_on_c, 0, 70, 58
2, 332957, Note_off_c, 0, 72, 64
2, 333036, Note_on_c, 0, 60, 59
2, 333043, Note_on_c, 0, 68, 56
2, 333075, Note_off_c, 0, 70, 64
2, 333081, Note_off_c, 0, 55, 64
2, 333170, Note_off_c, 0, 68, 64
2, 333179, Note_on_c, 0, 67, 67
2, 333188, Note_on_c, 0, 64, 70
2, 333191, Control_c, 0, 64, 0
2, 333197, Note_off_c, 0, 58, 64
2, 333201, Note_off_c, 0, 60, 64
2, 333232, Control_c, 0, 64, 127
2, 333322, Note_on_c, 0, 60, 61
2, 333355, Note_off_c, 0, 64, 64
2, 333437, Note_on_c, 0, 58, 67
2, 333467, Note_off_c, 0, 60, 64
2, 333581, Note_on_c, 0, 55, 63
2, 333591, Control_c, 0, 64, 0
2, 333605, Note_off_c, 0, 58, 64
2, 333632, Control_c, 0, 64, 127
2, 333713, Note_on_c, 0, 58, 40
2, 333731, Note_off_c, 0, 55, 64
2, 333734, Note_on_c, 0, 79, 53
2, 333865, Note_on_c, 0, 70, 58
2, 333869, Note_off_c, 0, 79, 64
2, 333869, Note_off_c, 0, 58, 64
2, 333871, Note_on_c, 0, 60, 35
2, 333923, Note_off_c, 0, 70, 64
2, 333987, Note_on_c, 0, 72, 52
2, 334012, Note_off_c, 0, 60, 64
2, 334016, Note_on_c, 0, 53, 50
2, 334028, Note_off_c, 0, 67, 64
2, 334035, Control_c, 0, 64, 0
2, 334042, Note_on_c, 0, 70, 63
2, 334086, Control_c, 0, 64, 127
2, 334134, Note_off_c, 0, 72, 64
2, 334170, Note_on_c, 0, 68, 61
2, 334214, Note_off_c, 0, 70, 64
2, 334313, Note_off_c, 0, 68, 64
2, 334316, Note_on_c, 0, 67, 60
2, 334435, Note_off_c, 0, 53, 64
2, 334442, Note_on_c, 0, 65, 60
2, 334488, Note_off_c, 0, 67, 64
2, 334501, Control_c, 0, 64, 0
2, 334548, Control_c, 0, 64, 127
2, 334599, Note_on_c, 0, 72, 66
2, 334604, Note_off_c, 0, 65, 64
2, 334738, Note_on_c, 0, 71, 55
2, 334743, Note_off_c, 0, 72, 64
2, 334899, Note_on_c, 0, 77, 65
2, 334904, Note_on_c, 0, 49, 59
2, 334925, Control_c, 0, 64, 0
2, 334933, Note_off_c, 0, 71, 64
2, 334984, Control_c, 0, 64, 127
2, 335080, Note_on_c, 0, 71, 58
2, 335181, Note_off_c, 0, 49, 64
2, 335257, Note_on_c, 0, 80, 73
2, 335259, Note_off_c, 0, 77, 64
2, 335424, Note_off_c, 0, 80, 64
2, 335436, Note_on_c, 0, 48, 65
2, 335440, Note_on_c, 0, 77, 70
2, 335441, Note_off_c, 0, 71, 64
2, 335454, Control_c, 0, 64, 0
2, 335518, Control_c, 0, 64, 127
2, 335591, Note_on_c, 0, 52, 54
2, 335605, Note_off_c, 0, 48, 64
2, 335743, Note_on_c, 0, 55, 57
2, 335789, Note_off_c, 0, 52, 64
2, 335881, Note_on_c, 0, 60, 65
2, 335886, Note_on_c, 0, 76, 71
2, 335889, Note_off_c, 0, 55, 64
2, 335889, Note_on_c, 0, 75, 29
2, 335914, Note_off_c, 0, 77, 64
2, 335931, Note_off_c, 0, 75, 64
2, 335990, Note_off_c, 0, 60, 64
2, 336012, Note_on_c, 0, 64, 53
2, 336166, Note_on_c, 0, 67, 60
2, 336219, Note_off_c, 0, 64, 64
2, 336313, Note_on_c, 0, 72, 67
2, 336332, Note_off_c, 0, 67, 64
2, 336450, Note_on_c, 0, 67, 71
2, 336603, Note_on_c, 0, 64, 57
2, 336614, Note_off_c, 0, 72, 64
2, 336725, Note_off_c, 0, 67, 64
2, 336780, Note_off_c, 0, 64, 64
2, 336787, Note_off_c, 0, 76, 64
2, 336852, Note_on_c, 0, 70, 89
2, 336857, Note_on_c, 0, 60, 77
2, 336863, Note_on_c, 0, 73, 82
2, 336921, Control_c, 0, 64, 0
2, 336977, Control_c, 0, 64, 127
2, 337027, Note_on_c, 0, 76, 85
2, 337071, Note_off_c, 0, 73, 64
2, 337163, Note_on_c, 0, 79, 77
2, 337164, Note_off_c, 0, 76, 64
2, 337307, Note_on_c, 0, 82, 75
2, 337336, Note_off_c, 0, 79, 64
2, 337452, Note_on_c, 0, 85, 79
2, 337459, Note_off_c, 0, 82, 64
2, 337594, Note_off_c, 0, 85, 64
2, 337603, Note_on_c, 0, 84, 91
2, 337738, Note_on_c, 0, 82, 86
2, 337758, Note_off_c, 0, 84, 64
2, 337898, Note_on_c, 0, 80, 71
2, 337938, Note_off_c, 0, 82, 64
2, 338035, Note_off_c, 0, 80, 64
2, 338050, Note_on_c, 0, 79, 56
2, 338072, Note_off_c, 0, 60, 64
2, 338214, Note_off_c, 0, 70, 64
2, 338221, Note_on_c, 0, 77, 79
2, 338223, Note_on_c, 0, 60, 77
2, 338233, Note_on_c, 0, 68, 59
2, 338247, Note_off_c, 0, 79, 64
2, 338268, Control_c, 0, 64, 0
2, 338342, Control_c, 0, 64, 127
2, 338373, Note_on_c, 0, 84, 78
2, 338392, Note_off_c, 0, 77, 64
2, 338519, Note_on_c, 0, 76, 65
2, 338561, Note_off_c, 0, 84, 64
2, 338661, Note_off_c, 0, 76, 64
2, 338662, Note_on_c, 0, 77, 71
2, 338811, Note_on_c, 0, 80, 67
2, 338848, Note_off_c, 0, 77, 64
2, 338940, Note_off_c, 0, 80, 64
2, 338946, Note_on_c, 0, 72, 70
2, 339093, Note_on_c, 0, 77, 71
2, 339152, Note_off_c, 0, 68, 64
2, 339159, Note_off_c, 0, 72, 64
2, 339237, Note_on_c, 0, 72, 72
2, 339254, Note_off_c, 0, 77, 64
2, 339348, Note_off_c, 0, 60, 64
2, 339388, Note_on_c, 0, 68, 75
2, 339434, Note_off_c, 0, 72, 64
2, 339569, Note_on_c, 0, 67, 70
2, 339572, Note_on_c, 0, 60, 71
2, 339575, Note_off_c, 0, 68, 64
2, 339578, Note_on_c, 0, 64, 70
2, 339599, Control_c, 0, 64, 0
2, 339654, Control_c, 0, 64, 127
2, 339720, Note_on_c, 0, 70, 82
2, 339759, Note_off_c, 0, 67, 64
2, 339878, Note_on_c, 0, 73, 79
2, 339900, Note_off_c, 0, 70, 64
2, 340017, Note_on_c, 0, 76, 85
2, 340045, Note_off_c, 0, 73, 64
2, 340172, Note_on_c, 0, 79, 53
2, 340182, Note_off_c, 0, 76, 64
2, 340304, Note_on_c, 0, 80, 73
2, 340323, Note_off_c, 0, 79, 64
2, 340454, Note_on_c, 0, 82, 90
2, 340471, Note_off_c, 0, 80, 64
2, 340597, Note_on_c, 0, 80, 85
2, 340600, Note_off_c, 0, 82, 64
2, 340723, Note_off_c, 0, 60, 64
2, 340757, Note_on_c, 0, 79, 58
2, 340795, Note_off_c, 0, 80, 64
2, 340825, Note_off_c, 0, 64, 64
2, 340908, Note_on_c, 0, 60, 75
2, 340913, Note_on_c, 0, 77, 85
2, 340916, Note_on_c, 0, 65, 75
2, 340935, Control_c, 0, 64, 0
2, 340948, Note_off_c, 0, 79, 64
2, 340992, Control_c, 0, 64, 127
2, 341074, Note_on_c, 0, 80, 70
2, 341094, Note_off_c, 0, 77, 64
2, 341202, Note_off_c, 0, 80, 64
2, 341212, Note_on_c, 0, 72, 81
2, 341359, Note_on_c, 0, 77, 71
2, 341413, Note_off_c, 0, 72, 64
2, 341524, Note_on_c, 0, 72, 69
2, 341541, Note_off_c, 0, 77, 64
2, 341562, Note_off_c, 0, 65, 64
2, 341668, Note_on_c, 0, 68, 50
2, 341715, Note_off_c, 0, 72, 64
2, 341813, Note_on_c, 0, 72, 79
2, 341843, Note_off_c, 0, 68, 64
2, 341967, Note_on_c, 0, 68, 73
2, 342021, Note_off_c, 0, 72, 64
2, 342087, Note_off_c, 0, 60, 64
2, 342119, Note_on_c, 0, 65, 79
2, 342122, Note_off_c, 0, 68, 64
2, 342312, Note_on_c, 0, 48, 56
2, 342314, Note_on_c, 0, 68, 71
2, 342338, Note_off_c, 0, 65, 64
2, 342344, Note_on_c, 0, 66, 65
2, 342378, Note_off_c, 0, 68, 64
2, 342396, Note_on_c, 0, 65, 80
2, 342404, Note_off_c, 0, 66, 64
2, 342433, Note_on_c, 0, 51, 47
2, 342437, Note_on_c, 0, 66, 84
2, 342444, Control_c, 0, 64, 0
2, 342466, Note_off_c, 0, 65, 64
2, 342478, Control_c, 0, 64, 127
2, 342516, Control_c, 0, 64, 0
2, 342572, Control_c, 0, 64, 127
2, 342578, Note_on_c, 0, 56, 59
2, 342593, Note_off_c, 0, 51, 64
2, 342720, Note_on_c, 0, 60, 36
2, 342722, Note_off_c, 0, 56, 64
2, 342758, Note_off_c, 0, 48, 64
2, 342835, Note_on_c, 0, 56, 42
2, 342948, Note_off_c, 0, 60, 64
2, 342971, Note_on_c, 0, 51, 37
2, 343007, Note_off_c, 0, 56, 64
2, 343116, Note_on_c, 0, 48, 38
2, 343122, Note_off_c, 0, 51, 64
2, 343248, Note_on_c, 0, 65, 72
2, 343252, Note_on_c, 0, 51, 58
2, 343272, Note_off_c, 0, 66, 64
2, 343274, Note_off_c, 0, 48, 64
2, 343388, Note_on_c, 0, 66, 67
2, 343395, Note_off_c, 0, 51, 64
2, 343396, Note_on_c, 0, 56, 40
2, 343404, Note_off_c, 0, 65, 64
2, 343545, Note_on_c, 0, 65, 66
2, 343549, Note_on_c, 0, 49, 53
2, 343549, Control_c, 0, 64, 0
2, 343560, Note_off_c, 0, 66, 64
2, 343566, Note_off_c, 0, 56, 64
2, 343609, Control_c, 0, 64, 127
2, 343687, Note_on_c, 0, 53, 53
2, 343741, Note_off_c, 0, 65, 64
2, 343839, Note_off_c, 0, 49, 64
2, 343840, Note_on_c, 0, 56, 52
2, 343865, Note_off_c, 0, 53, 64
2, 343983, Note_on_c, 0, 77, 67
2, 343992, Note_on_c, 0, 61, 42
2, 343999, Note_off_c, 0, 56, 64
2, 343999, Control_c, 0, 64, 0
2, 344028, Note_on_c, 0, 79, 68
2, 344038, Control_c, 0, 64, 127
2, 344050, Note_off_c, 0, 77, 64
2, 344086, Note_on_c, 0, 80, 73
2, 344108, Note_off_c, 0, 79, 64
2, 344125, Note_on_c, 0, 56, 65
2, 344158, Note_off_c, 0, 61, 64
2, 344262, Note_on_c, 0, 53, 48
2, 344271, Note_off_c, 0, 56, 64
2, 344373, Control_c, 0, 64, 0
2, 344401, Note_on_c, 0, 49, 59
2, 344405, Control_c, 0, 64, 127
2, 344423, Note_off_c, 0, 53, 64
2, 344436, Note_off_c, 0, 80, 64
2, 344574, Note_on_c, 0, 53, 44
2, 344577, Note_off_c, 0, 49, 64
2, 344690, Note_on_c, 0, 56, 53
2, 344700, Note_off_c, 0, 53, 64
2, 344825, Note_off_c, 0, 56, 64
2, 344861, Note_on_c, 0, 47, 37
2, 344871, Note_on_c, 0, 64, 59
2, 344905, Note_on_c, 0, 65, 75
2, 344922, Control_c, 0, 64, 0
2, 344929, Note_off_c, 0, 64, 64
2, 344945, Note_on_c, 0, 67, 72
2, 344958, Note_off_c, 0, 65, 64
2, 344982, Control_c, 0, 64, 127
2, 344990, Note_on_c, 0, 50, 53
2, 344997, Note_on_c, 0, 65, 80
2, 345019, Note_off_c, 0, 47, 64
2, 345021, Note_off_c, 0, 67, 64
2, 345082, Control_c, 0, 64, 0
2, 345095, Control_c, 0, 64, 127
2, 345124, Note_on_c, 0, 53, 34
2, 345186, Note_off_c, 0, 50, 64
2, 345267, Note_on_c, 0, 56, 37
2, 345280, Note_off_c, 0, 53, 64
2, 345379, Note_on_c, 0, 53, 52
2, 345420, Note_off_c, 0, 56, 64
2, 345511, Note_on_c, 0, 50, 56
2, 345525, Note_off_c, 0, 53, 64
2, 345660, Note_on_c, 0, 47, 58
2, 345677, Note_off_c, 0, 50, 64
2, 345808, Note_on_c, 0, 64, 58
2, 345813, Note_on_c, 0, 50, 48
2, 345821, Note_off_c, 0, 47, 64
2, 345829, Note_off_c, 0, 65, 64
2, 345949, Note_on_c, 0, 65, 60
2, 345952, Note_off_c, 0, 64, 64
2, 345957, Note_off_c, 0, 50, 64
2, 345963, Note_on_c, 0, 52, 34
2, 346018, Note_off_c, 0, 52, 64
2, 346084, Note_on_c, 0, 64, 67
2, 346095, Note_on_c, 0, 48, 69
2, 346101, Control_c, 0, 64, 0
2, 346111, Note_off_c, 0, 65, 64
2, 346157, Control_c, 0, 64, 127
2, 346231, Note_on_c, 0, 52, 58
2, 346259, Note_off_c, 0, 64, 64
2, 346368, Note_on_c, 0, 55, 58
2, 346403, Note_off_c, 0, 52, 64
2, 346510, Note_on_c, 0, 84, 69
2, 346531, Note_on_c, 0, 60, 53
2, 346536, Control_c, 0, 64, 0
2, 346540, Note_off_c, 0, 55, 64
2, 346548, Note_on_c, 0, 86, 74
2, 346576, Note_off_c, 0, 84, 64
2, 346596, Control_c, 0, 64, 127
2, 346606, Note_on_c, 0, 88, 69
2, 346620, Note_off_c, 0, 86, 64
2, 346722, Note_on_c, 0, 55, 45
2, 346728, Note_off_c, 0, 48, 64
2, 346812, Note_off_c, 0, 88, 64
2, 346865, Note_on_c, 0, 52, 48
2, 346873, Note_off_c, 0, 55, 64
2, 347016, Note_on_c, 0, 48, 48
2, 347029, Note_off_c, 0, 52, 64
2, 347152, Note_on_c, 0, 52, 44
2, 347158, Note_off_c, 0, 60, 64
2, 347169, Note_off_c, 0, 48, 64
2, 347297, Note_on_c, 0, 55, 52
2, 347298, Note_off_c, 0, 52, 64
2, 347442, Note_off_c, 0, 55, 64
2, 347471, Note_on_c, 0, 72, 74
2, 347479, Note_on_c, 0, 52, 40
2, 347511, Control_c, 0, 64, 0
2, 347585, Control_c, 0, 64, 127
2, 347628, Note_on_c, 0, 55, 65
2, 347630, Note_on_c, 0, 70, 71
2, 347653, Note_off_c, 0, 72, 64
2, 347679, Note_off_c, 0, 52, 64
2, 347755, Note_on_c, 0, 58, 56
2, 347759, Note_on_c, 0, 68, 76
2, 347802, Note_off_c, 0, 55, 64
2, 347809, Note_off_c, 0, 70, 64
2, 347900, Note_on_c, 0, 67, 65
2, 347907, Note_on_c, 0, 60, 60
2, 347912, Note_off_c, 0, 68, 64
2, 347927, Note_off_c, 0, 58, 64
2, 347928, Control_c, 0, 64, 0
2, 347993, Control_c, 0, 64, 127
2, 348034, Note_on_c, 0, 58, 45
2, 348167, Note_on_c, 0, 55, 49
2, 348187, Note_off_c, 0, 58, 64
2, 348327, Note_on_c, 0, 52, 63
2, 348332, Control_c, 0, 64, 0
2, 348338, Note_off_c, 0, 55, 64
2, 348399, Control_c, 0, 64, 127
2, 348479, Note_on_c, 0, 79, 72
2, 348482, Note_on_c, 0, 55, 61
2, 348485, Note_off_c, 0, 52, 64
2, 348535, Note_off_c, 0, 60, 64
2, 348602, Note_off_c, 0, 79, 64
2, 348612, Note_on_c, 0, 70, 66
2, 348615, Note_on_c, 0, 58, 63
2, 348625, Note_off_c, 0, 55, 64
2, 348700, Note_off_c, 0, 70, 64
2, 348720, Note_on_c, 0, 72, 67
2, 348751, Note_on_c, 0, 53, 42
2, 348756, Note_off_c, 0, 58, 64
2, 348765, Note_off_c, 0, 67, 64
2, 348770, Control_c, 0, 64, 0
2, 348777, Note_on_c, 0, 70, 86
2, 348807, Note_off_c, 0, 72, 64
2, 348837, Control_c, 0, 64, 127
2, 348893, Note_on_c, 0, 56, 54
2, 348905, Note_on_c, 0, 68, 71
2, 348945, Note_off_c, 0, 70, 64
2, 349035, Note_on_c, 0, 60, 54
2, 349047, Note_on_c, 0, 67, 61
2, 349049, Note_off_c, 0, 68, 64
2, 349070, Note_off_c, 0, 56, 64
2, 349073, Note_off_c, 0, 53, 64
2, 349185, Note_on_c, 0, 65, 63
2, 349193, Control_c, 0, 64, 0
2, 349198, Note_off_c, 0, 67, 64
2, 349204, Note_off_c, 0, 60, 64
2, 349261, Control_c, 0, 64, 127
2, 349320, Note_on_c, 0, 60, 64
2, 349445, Note_on_c, 0, 56, 44
2, 349460, Note_off_c, 0, 60, 64
2, 349593, Note_on_c, 0, 53, 61
2, 349608, Note_off_c, 0, 56, 64
2, 349717, Control_c, 0, 64, 0
2, 349732, Note_on_c, 0, 56, 57
2, 349736, Note_on_c, 0, 77, 71
2, 349761, Control_c, 0, 64, 127
2, 349764, Note_off_c, 0, 65, 64
2, 349800, Note_off_c, 0, 53, 64
2, 349864, Note_off_c, 0, 77, 64
2, 349870, Note_on_c, 0, 72, 67
2, 349875, Note_on_c, 0, 60, 63
2, 349895, Note_off_c, 0, 56, 64
2, 349980, Note_off_c, 0, 72, 64
2, 349987, Note_on_c, 0, 73, 64
2, 350016, Control_c, 0, 64, 0
2, 350019, Note_on_c, 0, 55, 33
2, 350030, Note_on_c, 0, 72, 67
2, 350040, Note_off_c, 0, 60, 64
2, 350063, Note_off_c, 0, 73, 64
2, 350086, Control_c, 0, 64, 127
2, 350153, Note_on_c, 0, 58, 50
2, 350157, Note_on_c, 0, 70, 67
2, 350169, Note_off_c, 0, 72, 64
2, 350283, Note_on_c, 0, 60, 38
2, 350283, Note_on_c, 0, 68, 67
2, 350306, Note_off_c, 0, 70, 64
2, 350380, Note_off_c, 0, 55, 64
2, 350420, Note_off_c, 0, 68, 64
2, 350425, Note_on_c, 0, 67, 71
2, 350426, Note_on_c, 0, 64, 52
2, 350435, Note_off_c, 0, 58, 64
2, 350436, Control_c, 0, 64, 0
2, 350444, Note_off_c, 0, 60, 64
2, 350495, Control_c, 0, 64, 127
2, 350566, Note_on_c, 0, 60, 54
2, 350598, Note_off_c, 0, 64, 64
2, 350698, Note_on_c, 0, 58, 58
2, 350721, Note_off_c, 0, 60, 64
2, 350843, Note_off_c, 0, 58, 64
2, 350856, Note_on_c, 0, 55, 67
2, 350953, Note_off_c, 0, 55, 64
2, 350961, Note_on_c, 0, 58, 58
2, 350983, Note_on_c, 0, 79, 71
2, 351115, Note_off_c, 0, 58, 64
2, 351130, Note_on_c, 0, 70, 63
2, 351132, Note_on_c, 0, 60, 34
2, 351212, Note_off_c, 0, 67, 64
2, 351256, Note_off_c, 0, 79, 64
2, 351257, Note_off_c, 0, 70, 64
2, 351294, Note_on_c, 0, 53, 55
2, 351301, Note_off_c, 0, 60, 64
2, 351304, Control_c, 0, 64, 0
2, 351371, Control_c, 0, 64, 127
2, 351441, Note_on_c, 0, 80, 79
2, 351588, Note_on_c, 0, 84, 71
2, 351602, Note_off_c, 0, 80, 64
2, 351699, Control_c, 0, 64, 0
2, 351709, Note_on_c, 0, 77, 72
2, 351732, Control_c, 0, 64, 127
2, 351736, Note_off_c, 0, 84, 64
2, 351861, Note_on_c, 0, 80, 67
2, 351891, Note_off_c, 0, 77, 64
2, 351985, Note_off_c, 0, 80, 64
2, 351997, Note_on_c, 0, 72, 71
2, 352143, Note_on_c, 0, 77, 71
2, 352179, Note_off_c, 0, 72, 64
2, 352279, Note_on_c, 0, 68, 72
2, 352313, Note_off_c, 0, 53, 64
2, 352340, Note_off_c, 0, 77, 64
2, 352435, Note_on_c, 0, 72, 60
2, 352438, Note_off_c, 0, 68, 64
2, 352663, Note_on_c, 0, 35, 77
2, 352665, Note_on_c, 0, 47, 77
2, 352680, Control_c, 0, 64, 0
2, 352688, Note_off_c, 0, 72, 64
2, 352739, Control_c, 0, 64, 127
2, 352853, Note_on_c, 0, 83, 85
2, 353003, Note_on_c, 0, 86, 94
2, 353023, Note_off_c, 0, 83, 64
2, 353131, Note_on_c, 0, 80, 85
2, 353171, Note_off_c, 0, 86, 64
2, 353256, Note_on_c, 0, 83, 75
2, 353268, Note_off_c, 0, 80, 64
2, 353376, Control_c, 0, 64, 0
2, 353390, Note_on_c, 0, 77, 82
2, 353399, Control_c, 0, 64, 127
2, 353411, Note_off_c, 0, 83, 64
2, 353525, Note_on_c, 0, 80, 77
2, 353533, Note_off_c, 0, 77, 64
2, 353655, Note_off_c, 0, 80, 64
2, 353661, Note_on_c, 0, 74, 78
2, 353727, Note_off_c, 0, 35, 64
2, 353820, Note_on_c, 0, 77, 77
2, 353821, Note_off_c, 0, 74, 64
2, 353880, Note_off_c, 0, 47, 64
2, 353971, Note_off_c, 0, 77, 64
2, 353987, Note_on_c, 0, 36, 73
2, 353989, Note_on_c, 0, 48, 69
2, 353997, Control_c, 0, 64, 0
2, 354125, Control_c, 0, 64, 127
2, 354145, Note_on_c, 0, 80, 89
2, 354305, Note_on_c, 0, 84, 85
2, 354331, Note_off_c, 0, 80, 64
2, 354436, Control_c, 0, 64, 0
2, 354443, Note_on_c, 0, 76, 81
2, 354469, Control_c, 0, 64, 127
2, 354474, Note_off_c, 0, 84, 64
2, 354588, Note_on_c, 0, 77, 79
2, 354607, Note_off_c, 0, 76, 64
2, 354744, Note_on_c, 0, 80, 79
2, 354784, Note_off_c, 0, 77, 64
2, 354869, Control_c, 0, 64, 0
2, 354889, Note_on_c, 0, 72, 64
2, 354894, Note_off_c, 0, 80, 64
2, 354903, Control_c, 0, 64, 127
2, 355032, Note_on_c, 0, 71, 70
2, 355083, Note_off_c, 0, 72, 64
2, 355201, Note_on_c, 0, 79, 64
2, 355204, Note_off_c, 0, 71, 64
2, 355211, Note_off_c, 0, 36, 64
2, 355212, Note_off_c, 0, 48, 64
2, 355362, Note_on_c, 0, 70, 71
2, 355371, Note_off_c, 0, 79, 64
2, 355373, Note_on_c, 0, 36, 57
2, 355378, Note_on_c, 0, 48, 74
2, 355389, Control_c, 0, 64, 0
2, 355409, Control_c, 0, 64, 0
2, 355430, Control_c, 0, 64, 127
2, 355460, Control_c, 0, 64, 0
2, 355507, Control_c, 0, 64, 127
2, 355524, Note_on_c, 0, 69, 66
2, 355551, Note_off_c, 0, 70, 64
2, 355656, Note_on_c, 0, 77, 65
2, 355782, Control_c, 0, 64, 0
2, 355795, Note_off_c, 0, 69, 64
2, 355796, Note_on_c, 0, 68, 59
2, 355816, Control_c, 0, 64, 127
2, 355862, Note_off_c, 0, 77, 64
2, 355954, Note_on_c, 0, 67, 51
2, 355996, Note_off_c, 0, 68, 64
2, 356095, Note_on_c, 0, 76, 63
2, 356132, Note_off_c, 0, 67, 64
2, 356216, Control_c, 0, 64, 0
2, 356233, Note_off_c, 0, 76, 64
2, 356238, Note_on_c, 0, 67, 55
2, 356249, Control_c, 0, 64, 127
2, 356379, Note_off_c, 0, 67, 64
2, 356383, Note_on_c, 0, 65, 53
2, 356425, Note_off_c, 0, 36, 64
2, 356430, Note_off_c, 0, 48, 64
2, 356528, Note_on_c, 0, 73, 67
2, 356572, Note_off_c, 0, 65, 64
2, 356680, Note_on_c, 0, 65, 67
2, 356682, Note_off_c, 0, 73, 64
2, 356688, Note_on_c, 0, 48, 58
2, 356688, Note_on_c, 0, 58, 50
2, 356721, Control_c, 0, 64, 0
2, 356760, Control_c, 0, 64, 127
2, 356832, Note_on_c, 0, 64, 59
2, 356868, Note_off_c, 0, 65, 64
2, 356979, Note_on_c, 0, 72, 69
2, 357133, Note_on_c, 0, 67, 65
2, 357138, Note_off_c, 0, 64, 64
2, 357145, Control_c, 0, 64, 0
2, 357149, Note_on_c, 0, 56, 45
2, 357155, Note_off_c, 0, 72, 64
2, 357170, Note_off_c, 0, 58, 64
2, 357215, Control_c, 0, 64, 127
2, 357299, Note_on_c, 0, 65, 53
2, 357328, Note_off_c, 0, 67, 64
2, 357450, Note_on_c, 0, 72, 69
2, 357533, Note_off_c, 0, 48, 64
2, 357597, Note_on_c, 0, 68, 49
2, 357607, Note_on_c, 0, 52, 53
2, 357619, Control_c, 0, 64, 0
2, 357628, Note_off_c, 0, 65, 64
2, 357641, Note_off_c, 0, 56, 64
2, 357664, Note_off_c, 0, 72, 64
2, 357697, Control_c, 0, 64, 127
2, 357769, Note_on_c, 0, 67, 51
2, 357797, Note_off_c, 0, 68, 64
2, 357856, Note_off_c, 0, 52, 64
2, 357911, Note_on_c, 0, 70, 63
2, 357994, Note_off_c, 0, 67, 64
2, 358026, Control_c, 0, 64, 0
2, 358057, Note_on_c, 0, 68, 58
2, 358079, Note_off_c, 0, 70, 64
2, 358176, Control_c, 0, 64, 127
2, 358205, Note_on_c, 0, 49, 66
2, 358338, Note_on_c, 0, 53, 52
2, 358500, Note_on_c, 0, 56, 63
2, 358622, Note_on_c, 0, 61, 54
2, 358745, Control_c, 0, 64, 0
2, 358773, Note_on_c, 0, 65, 54
2, 358788, Note_off_c, 0, 68, 64
2, 358806, Control_c, 0, 64, 127
2, 358917, Note_on_c, 0, 68, 56
2, 359075, Note_on_c, 0, 73, 55
2, 359090, Note_off_c, 0, 56, 64
2, 359111, Note_off_c, 0, 68, 64
2, 359120, Note_off_c, 0, 53, 64
2, 359136, Note_off_c, 0, 49, 64
2, 359153, Note_off_c, 0, 61, 64
2, 359239, Note_on_c, 0, 77, 53
2, 359247, Note_off_c, 0, 73, 64
2, 359396, Note_on_c, 0, 35, 71
2, 359401, Control_c, 0, 64, 0
2, 359417, Note_off_c, 0, 77, 64
2, 359469, Control_c, 0, 64, 127
2, 359569, Note_off_c, 0, 65, 64
2, 359569, Note_on_c, 0, 47, 53
2, 359704, Note_on_c, 0, 62, 57
2, 359838, Note_on_c, 0, 65, 51
2, 359913, Note_off_c, 0, 62, 64
2, 359974, Note_on_c, 0, 68, 54
2, 360005, Note_off_c, 0, 65, 64
2, 360129, Note_on_c, 0, 71, 48
2, 360144, Note_off_c, 0, 68, 64
2, 360209, Note_off_c, 0, 71, 64
2, 360280, Note_on_c, 0, 74, 75
2, 360453, Note_on_c, 0, 77, 54
2, 360572, Note_off_c, 0, 74, 64
2, 360581, Note_off_c, 0, 35, 64
2, 360641, Note_on_c, 0, 80, 56
2, 360669, Note_off_c, 0, 77, 64
2, 360852, Note_off_c, 0, 47, 64
2, 360858, Note_on_c, 0, 36, 74
2, 360869, Control_c, 0, 64, 0
2, 360869, Control_c, 0, 64, 0
2, 360944, Control_c, 0, 64, 127
2, 361064, Note_on_c, 0, 84, 69
2, 361067, Note_off_c, 0, 80, 64
2, 361221, Note_on_c, 0, 72, 69
2, 361222, Note_off_c, 0, 84, 64
2, 361381, Note_on_c, 0, 71, 71
2, 361418, Note_off_c, 0, 72, 64
2, 361532, Note_on_c, 0, 70, 74
2, 361563, Note_off_c, 0, 71, 64
2, 361692, Note_on_c, 0, 69, 69
2, 361714, Note_off_c, 0, 70, 64
2, 361836, Note_on_c, 0, 68, 71
2, 361859, Note_off_c, 0, 69, 64
2, 361996, Note_on_c, 0, 67, 68
2, 362002, Note_off_c, 0, 68, 64
2, 362184, Note_off_c, 0, 36, 64
2, 362232, Note_on_c, 0, 66, 56
2, 362279, Note_off_c, 0, 67, 64
2, 362417, Note_on_c, 0, 48, 44
2, 362435, Note_on_c, 0, 65, 72
2, 362448, Note_off_c, 0, 66, 64
2, 362463, Control_c, 0, 64, 0
2, 362581, Control_c, 0, 64, 127
2, 362613, Note_on_c, 0, 53, 27
2, 362756, Note_on_c, 0, 56, 35
2, 362801, Note_off_c, 0, 53, 64
2, 362892, Note_off_c, 0, 56, 64
2, 362900, Note_on_c, 0, 60, 37
2, 363032, Note_on_c, 0, 56, 35
2, 363158, Note_off_c, 0, 48, 64
2, 363180, Note_off_c, 0, 56, 64
2, 363203, Note_on_c, 0, 53, 26
2, 363237, Note_off_c, 0, 60, 64
2, 363289, Note_on_c, 0, 68, 65
2, 363355, Note_on_c, 0, 67, 66
2, 363370, Note_on_c, 0, 48, 36
2, 363371, Note_off_c, 0, 53, 64
2, 363371, Control_c, 0, 64, 0
2, 363392, Note_off_c, 0, 68, 64
2, 363394, Note_off_c, 0, 65, 64
2, 363456, Control_c, 0, 64, 127
2, 363602, Note_on_c, 0, 55, 47
2, 363697, Note_on_c, 0, 65, 72
2, 363732, Note_off_c, 0, 67, 64
2, 363793, Note_off_c, 0, 48, 64
2, 363796, Note_on_c, 0, 58, 47
2, 363910, Note_off_c, 0, 58, 64
2, 363924, Note_off_c, 0, 55, 64
2, 363935, Note_off_c, 0, 65, 64
2, 363997, Note_on_c, 0, 56, 46
2, 364004, Note_on_c, 0, 65, 50
2, 364028, Note_on_c, 0, 53, 21
2, 364081, Control_c, 0, 64, 0
2, 364177, Note_on_c, 0, 72, 55
2, 364200, Note_off_c, 0, 65, 64
2, 364309, Control_c, 0, 64, 127
2, 364321, Note_on_c, 0, 64, 47
2, 364391, Note_off_c, 0, 72, 64
2, 364464, Note_off_c, 0, 64, 64
2, 364467, Note_on_c, 0, 65, 49
2, 364640, Note_on_c, 0, 68, 34
2, 364716, Note_off_c, 0, 53, 64
2, 364764, Note_off_c, 0, 65, 64
2, 364777, Note_off_c, 0, 56, 64
2, 364781, Note_on_c, 0, 60, 43
2, 364784, Note_off_c, 0, 68, 64
2, 364950, Note_on_c, 0, 58, 57
2, 364957, Note_on_c, 0, 52, 33
2, 364973, Note_on_c, 0, 48, 25
2, 364984, Control_c, 0, 64, 0
2, 365032, Control_c, 0, 64, 127
2, 365037, Note_off_c, 0, 60, 64
2, 365125, Note_on_c, 0, 61, 53
2, 365154, Note_off_c, 0, 58, 64
2, 365289, Note_on_c, 0, 55, 37
2, 365291, Note_off_c, 0, 61, 64
2, 365406, Control_c, 0, 64, 0
2, 365419, Note_off_c, 0, 52, 64
2, 365434, Note_on_c, 0, 53, 49
2, 365434, Note_on_c, 0, 56, 52
2, 365441, Control_c, 0, 64, 127
2, 365449, Note_off_c, 0, 55, 64
2, 365456, Note_off_c, 0, 48, 64
2, 365616, Note_on_c, 0, 72, 56
2, 365735, Control_c, 0, 64, 0
2, 365755, Note_on_c, 0, 64, 47
2, 365756, Control_c, 0, 64, 127
2, 365782, Note_off_c, 0, 72, 64
2, 365829, Note_off_c, 0, 56, 64
2, 365829, Note_off_c, 0, 53, 64
2, 365870, Control_c, 0, 64, 0
2, 365901, Control_c, 0, 64, 127
2, 365905, Note_on_c, 0, 65, 53
2, 365918, Note_off_c, 0, 64, 64
2, 366071, Note_on_c, 0, 68, 38
2, 366121, Note_off_c, 0, 65, 64
2, 366216, Note_off_c, 0, 68, 64
2, 366221, Note_on_c, 0, 60, 43
2, 366385, Note_on_c, 0, 58, 46
2, 366393, Note_on_c, 0, 48, 45
2, 366404, Control_c, 0, 64, 0
2, 366433, Note_off_c, 0, 60, 64
2, 366462, Control_c, 0, 64, 127
2, 366529, Note_on_c, 0, 67, 49
2, 366597, Note_off_c, 0, 48, 64
2, 366666, Note_off_c, 0, 67, 64
2, 366685, Note_on_c, 0, 64, 47
2, 366786, Note_off_c, 0, 64, 64
2, 366885, Note_on_c, 0, 64, 40
2, 366888, Note_on_c, 0, 41, 42
2, 366904, Control_c, 0, 64, 0
2, 366943, Control_c, 0, 64, 127
2, 367112, Note_on_c, 0, 53, 26
2, 367213, Note_off_c, 0, 58, 64
2, 367243, Note_off_c, 0, 64, 64
2, 367273, Note_off_c, 0, 53, 64
2, 367293, Note_on_c, 0, 52, 31
2, 367432, Note_on_c, 0, 67, 50
2, 367475, Note_on_c, 0, 65, 51
2, 367489, Note_on_c, 0, 53, 29
2, 367491, Note_off_c, 0, 67, 64
2, 367505, Note_off_c, 0, 52, 64
2, 367519, Note_on_c, 0, 64, 51
2, 367519, Control_c, 0, 64, 0
2, 367524, Note_off_c, 0, 65, 64
2, 367543, Control_c, 0, 64, 127
2, 367569, Note_on_c, 0, 65, 48
2, 367604, Note_off_c, 0, 64, 64
2, 367726, Note_off_c, 0, 41, 64
2, 367728, Note_on_c, 0, 48, 46
2, 367755, Note_off_c, 0, 53, 64
2, 367944, Note_on_c, 0, 44, 46
2, 367959, Control_c, 0, 64, 0
2, 367966, Note_off_c, 0, 48, 64
2, 368007, Control_c, 0, 64, 127
2, 368156, Note_on_c, 0, 48, 42
2, 368167, Note_off_c, 0, 44, 64
2, 368339, Note_on_c, 0, 44, 34
2, 368391, Note_off_c, 0, 48, 64
2, 368564, Note_on_c, 0, 41, 33
2, 368589, Note_off_c, 0, 44, 64
2, 368822, Note_on_c, 0, 29, 29
2, 368867, Control_c, 0, 64, 0
2, 369011, Control_c, 0, 64, 127
2, 369371, Control_c, 0, 64, 0
2, 369409, Control_c, 0, 64, 127
2, 369652, Note_off_c, 0, 41, 64
2, 369666, Note_off_c, 0, 65, 64
2, 369729, Note_off_c, 0, 29, 64
2, 370189, Control_c, 0, 64, 0
2, 370502, Control_c, 0, 64, 127
2, 370783, Note_on_c, 0, 57, 63
2, 370815, Note_on_c, 0, 77, 66
2, 370855, Note_on_c, 0, 75, 67
2, 370884, Note_off_c, 0, 77, 64
2, 370911, Note_on_c, 0, 74, 71
2, 370916, Note_off_c, 0, 75, 64
2, 370919, Note_on_c, 0, 60, 56
2, 370922, Control_c, 0, 64, 127
2, 370952, Note_on_c, 0, 75, 78
2, 370988, Note_off_c, 0, 74, 64
2, 371057, Note_on_c, 0, 63, 47
2, 371082, Control_c, 0, 64, 0
2, 371100, Note_off_c, 0, 60, 64
2, 371112, Control_c, 0, 64, 127
2, 371194, Note_on_c, 0, 66, 45
2, 371201, Note_off_c, 0, 63, 64
2, 371318, Note_off_c, 0, 57, 64
2, 371329, Note_on_c, 0, 63, 54
2, 371351, Note_off_c, 0, 66, 64
2, 371386, Note_on_c, 0, 77, 75
2, 371397, Note_off_c, 0, 75, 64
2, 371461, Note_on_c, 0, 60, 36
2, 371487, Note_off_c, 0, 63, 64
2, 371556, Control_c, 0, 64, 0
2, 371575, Note_on_c, 0, 75, 54
2, 371580, Note_on_c, 0, 57, 54
2, 371583, Note_off_c, 0, 77, 64
2, 371600, Note_off_c, 0, 60, 64
2, 371627, Control_c, 0, 64, 127
2, 371714, Note_on_c, 0, 60, 63
2, 371728, Note_off_c, 0, 57, 64
2, 371844, Note_on_c, 0, 63, 58
2, 371875, Note_off_c, 0, 60, 64
2, 371973, Note_on_c, 0, 84, 69
2, 371985, Note_on_c, 0, 57, 60
2, 372000, Note_off_c, 0, 75, 64
2, 372007, Control_c, 0, 64, 0
2, 372012, Note_off_c, 0, 63, 64
2, 372027, Note_on_c, 0, 85, 76
2, 372050, Note_off_c, 0, 84, 64
2, 372077, Note_on_c, 0, 87, 74
2, 372104, Note_off_c, 0, 85, 64
2, 372117, Note_on_c, 0, 60, 55
2, 372126, Control_c, 0, 64, 127
2, 372164, Note_off_c, 0, 57, 64
2, 372236, Note_on_c, 0, 63, 59
2, 372304, Note_off_c, 0, 60, 64
2, 372366, Note_on_c, 0, 66, 58
2, 372379, Note_off_c, 0, 63, 64
2, 372485, Note_on_c, 0, 63, 45
2, 372533, Note_off_c, 0, 66, 64
2, 372621, Note_on_c, 0, 60, 51
2, 372644, Note_off_c, 0, 63, 64
2, 372775, Note_on_c, 0, 57, 65
2, 372776, Control_c, 0, 64, 0
2, 372789, Note_off_c, 0, 60, 64
2, 372816, Control_c, 0, 64, 127
2, 372948, Note_on_c, 0, 60, 58
2, 373016, Note_off_c, 0, 57, 64
2, 373094, Note_on_c, 0, 63, 54
2, 373127, Note_off_c, 0, 60, 64
2, 373281, Note_on_c, 0, 61, 70
2, 373286, Note_off_c, 0, 63, 64
2, 373310, Control_c, 0, 64, 0
2, 373401, Control_c, 0, 64, 127
2, 373432, Note_off_c, 0, 87, 64
2, 373440, Note_on_c, 0, 82, 55
2, 373586, Note_on_c, 0, 85, 61
2, 373592, Note_off_c, 0, 82, 64
2, 373722, Note_on_c, 0, 77, 74
2, 373732, Note_off_c, 0, 85, 64
2, 373869, Note_on_c, 0, 82, 59
2, 373900, Note_off_c, 0, 61, 64
2, 373922, Note_off_c, 0, 77, 64
2, 373961, Control_c, 0, 64, 0
2, 373999, Control_c, 0, 64, 127
2, 374007, Note_on_c, 0, 73, 78
2, 374029, Note_off_c, 0, 82, 64
2, 374151, Note_on_c, 0, 77, 74
2, 374167, Note_off_c, 0, 73, 64
2, 374265, Control_c, 0, 64, 0
2, 374280, Note_on_c, 0, 70, 76
2, 374299, Control_c, 0, 64, 127
2, 374311, Note_off_c, 0, 77, 64
2, 374384, Control_c, 0, 64, 0
2, 374413, Control_c, 0, 64, 127
2, 374430, Note_on_c, 0, 73, 77
2, 374461, Note_off_c, 0, 70, 64
2, 374572, Note_on_c, 0, 65, 63
2, 374581, Note_off_c, 0, 73, 64
2, 374705, Note_on_c, 0, 70, 61
2, 374746, Note_off_c, 0, 65, 64
2, 374838, Note_on_c, 0, 49, 70
2, 374840, Note_off_c, 0, 70, 64
2, 374840, Note_on_c, 0, 61, 96
2, 374980, Note_on_c, 0, 65, 84
2, 374985, Note_off_c, 0, 61, 64
2, 374991, Note_on_c, 0, 53, 66
2, 374997, Control_c, 0, 64, 0
2, 375004, Note_off_c, 0, 49, 64
2, 375026, Control_c, 0, 64, 127
2, 375116, Note_on_c, 0, 49, 43
2, 375121, Note_on_c, 0, 61, 75
2, 375140, Note_off_c, 0, 65, 64
2, 375147, Note_off_c, 0, 53, 64
2, 375264, Note_on_c, 0, 46, 54
2, 375267, Note_on_c, 0, 58, 74
2, 375286, Note_off_c, 0, 49, 64
2, 375299, Note_off_c, 0, 61, 64
2, 375416, Control_c, 0, 64, 0
2, 375428, Note_on_c, 0, 65, 77
2, 375431, Note_on_c, 0, 53, 69
2, 375442, Note_off_c, 0, 58, 64
2, 375451, Note_off_c, 0, 46, 64
2, 375480, Control_c, 0, 64, 127
2, 375575, Note_on_c, 0, 49, 42
2, 375581, Note_on_c, 0, 61, 68
2, 375718, Note_on_c, 0, 44, 71
2, 375723, Note_off_c, 0, 61, 64
2, 375723, Note_on_c, 0, 56, 67
2, 375729, Note_off_c, 0, 49, 64
2, 375860, Note_off_c, 0, 56, 64
2, 375873, Note_off_c, 0, 44, 64
2, 375888, Note_on_c, 0, 55, 69
2, 375890, Note_on_c, 0, 43, 58
2, 375899, Control_c, 0, 64, 0
2, 375907, Note_off_c, 0, 53, 64
2, 375941, Note_off_c, 0, 65, 64
2, 376011, Control_c, 0, 64, 127
2, 376018, Note_on_c, 0, 47, 67
2, 376024, Note_on_c, 0, 59, 68
2, 376036, Note_off_c, 0, 43, 64
2, 376070, Note_off_c, 0, 55, 64
2, 376153, Note_on_c, 0, 62, 54
2, 376164, Note_on_c, 0, 50, 53
2, 376178, Note_off_c, 0, 59, 64
2, 376215, Note_off_c, 0, 47, 64
2, 376288, Note_on_c, 0, 65, 69
2, 376296, Note_off_c, 0, 50, 64
2, 376298, Note_on_c, 0, 53, 60
2, 376305, Note_off_c, 0, 62, 64
2, 376323, Note_off_c, 0, 65, 64
2, 376330, Note_off_c, 0, 53, 64
2, 376417, Note_on_c, 0, 68, 84
2, 376426, Note_on_c, 0, 56, 65
2, 376546, Note_on_c, 0, 59, 46
2, 376556, Note_off_c, 0, 56, 64
2, 376564, Note_on_c, 0, 71, 67
2, 376577, Note_off_c, 0, 68, 64
2, 376689, Note_on_c, 0, 62, 61
2, 376697, Note_on_c, 0, 74, 72
2, 376708, Note_off_c, 0, 71, 64
2, 376723, Note_off_c, 0, 59, 64
2, 376818, Note_off_c, 0, 62, 64
2, 376825, Note_on_c, 0, 77, 67
2, 376834, Note_on_c, 0, 65, 45
2, 376844, Note_off_c, 0, 74, 64
2, 376872, Note_off_c, 0, 77, 64
2, 376972, Note_on_c, 0, 68, 48
2, 376977, Note_on_c, 0, 80, 61
2, 377002, Note_off_c, 0, 65, 64
2, 377045, Note_off_c, 0, 80, 64
2, 377049, Note_off_c, 0, 68, 64
2, 377104, Note_on_c, 0, 79, 67
2, 377157, Note_on_c, 0, 80, 78
2, 377190, Note_off_c, 0, 79, 64
2, 377194, Control_c, 0, 64, 0
2, 377200, Note_on_c, 0, 82, 84
2, 377217, Note_off_c, 0, 80, 64
2, 377236, Control_c, 0, 64, 127
2, 377256, Note_on_c, 0, 68, 59
2, 377258, Note_on_c, 0, 80, 88
2, 377280, Note_off_c, 0, 82, 64
2, 378011, Note_on_c, 0, 59, 55
2, 378165, Note_on_c, 0, 79, 63
2, 378175, Note_off_c, 0, 59, 64
2, 378301, Note_off_c, 0, 80, 64
2, 378308, Note_on_c, 0, 77, 71
2, 378341, Note_off_c, 0, 79, 64
2, 378379, Note_off_c, 0, 77, 64
2, 378492, Note_on_c, 0, 77, 56
2, 378498, Note_on_c, 0, 60, 37
2, 378564, Control_c, 0, 64, 0
2, 378613, Note_off_c, 0, 68, 64
2, 378630, Control_c, 0, 64, 127
2, 378642, Note_on_c, 0, 63, 44
2, 378647, Note_on_c, 0, 75, 67
2, 378693, Note_off_c, 0, 77, 64
2, 378788, Note_on_c, 0, 74, 67
2, 378791, Note_on_c, 0, 67, 37
2, 378808, Note_off_c, 0, 75, 64
2, 378836, Note_off_c, 0, 63, 64
2, 378950, Note_on_c, 0, 72, 67
2, 378965, Note_off_c, 0, 67, 64
2, 379013, Control_c, 0, 64, 0
2, 379033, Note_off_c, 0, 60, 64
2, 379051, Control_c, 0, 64, 127
2, 379082, Note_on_c, 0, 67, 54
2, 379099, Note_off_c, 0, 74, 64
2, 379200, Note_on_c, 0, 63, 46
2, 379230, Note_off_c, 0, 67, 64
2, 379344, Note_on_c, 0, 60, 45
2, 379362, Note_off_c, 0, 63, 64
2, 379496, Note_on_c, 0, 63, 56
2, 379501, Note_on_c, 0, 84, 72
2, 379609, Note_off_c, 0, 72, 64
2, 379616, Note_off_c, 0, 60, 64
2, 379643, Note_on_c, 0, 67, 48
2, 379648, Note_on_c, 0, 79, 67
2, 379662, Note_off_c, 0, 84, 64
2, 379664, Note_off_c, 0, 63, 64
2, 379715, Note_off_c, 0, 79, 64
2, 379716, Note_on_c, 0, 80, 69
2, 379768, Note_on_c, 0, 79, 69
2, 379773, Note_on_c, 0, 62, 54
2, 379787, Control_c, 0, 64, 0
2, 379796, Note_off_c, 0, 80, 64
2, 379798, Note_off_c, 0, 67, 64
2, 379845, Control_c, 0, 64, 127
2, 379912, Note_on_c, 0, 65, 58
2, 379920, Note_on_c, 0, 77, 67
2, 379927, Note_off_c, 0, 79, 64
2, 380048, Note_on_c, 0, 75, 54
2, 380056, Note_on_c, 0, 67, 38
2, 380085, Note_off_c, 0, 62, 64
2, 380087, Note_off_c, 0, 77, 64
2, 380092, Note_off_c, 0, 65, 64
2, 380192, Note_on_c, 0, 74, 65
2, 380199, Note_on_c, 0, 71, 35
2, 380201, Note_off_c, 0, 75, 64
2, 380205, Note_off_c, 0, 67, 64
2, 380215, Control_c, 0, 64, 0
2, 380272, Control_c, 0, 64, 127
2, 380327, Note_on_c, 0, 67, 34
2, 380455, Note_on_c, 0, 65, 42
2, 380468, Note_off_c, 0, 67, 64
2, 380593, Note_on_c, 0, 62, 47
2, 380599, Note_off_c, 0, 65, 64
2, 380735, Note_on_c, 0, 86, 60
2, 380738, Note_on_c, 0, 65, 49
2, 380744, Note_off_c, 0, 71, 64
2, 380764, Note_off_c, 0, 62, 64
2, 380878, Note_on_c, 0, 77, 58
2, 380879, Note_on_c, 0, 67, 47
2, 380886, Note_off_c, 0, 74, 64
2, 380888, Note_off_c, 0, 86, 64
2, 380894, Note_off_c, 0, 65, 64
2, 380976, Note_on_c, 0, 79, 53
2, 380979, Note_off_c, 0, 77, 64
2, 381010, Control_c, 0, 64, 0
2, 381018, Note_on_c, 0, 60, 45
2, 381026, Note_on_c, 0, 77, 56
2, 381034, Note_off_c, 0, 67, 64
2, 381052, Note_off_c, 0, 79, 64
2, 381074, Control_c, 0, 64, 127
2, 381160, Note_on_c, 0, 63, 39
2, 381167, Note_on_c, 0, 75, 59
2, 381177, Note_off_c, 0, 77, 64
2, 381273, Note_off_c, 0, 75, 64
2, 381297, Note_on_c, 0, 67, 37
2, 381302, Note_on_c, 0, 74, 52
2, 381340, Note_off_c, 0, 63, 64
2, 381434, Note_on_c, 0, 72, 46
2, 381446, Note_off_c, 0, 67, 64
2, 381483, Note_off_c, 0, 74, 64
2, 381553, Note_on_c, 0, 67, 52
2, 381586, Note_off_c, 0, 60, 64
2, 381643, Note_off_c, 0, 72, 64
2, 381688, Note_on_c, 0, 63, 53
2, 381729, Note_off_c, 0, 67, 64
2, 381832, Note_on_c, 0, 60, 51
2, 381845, Note_off_c, 0, 63, 64
2, 381947, Control_c, 0, 64, 0
2, 381971, Note_on_c, 0, 80, 74
2, 381976, Note_on_c, 0, 63, 50
2, 382008, Control_c, 0, 64, 127
2, 382076, Note_off_c, 0, 60, 64
2, 382110, Note_on_c, 0, 75, 64
2, 382118, Note_on_c, 0, 68, 64
2, 382132, Note_off_c, 0, 80, 64
2, 382149, Note_off_c, 0, 63, 64
2, 382186, Note_off_c, 0, 75, 64
2, 382195, Note_on_c, 0, 77, 65
2, 382239, Note_on_c, 0, 75, 78
2, 382241, Note_on_c, 0, 58, 54
2, 382248, Control_c, 0, 64, 0
2, 382271, Note_off_c, 0, 77, 64
2, 382272, Note_off_c, 0, 68, 64
2, 382299, Control_c, 0, 64, 127
2, 382376, Note_on_c, 0, 61, 68
2, 382383, Note_on_c, 0, 73, 71
2, 382414, Note_off_c, 0, 75, 64
2, 382504, Note_on_c, 0, 63, 64
2, 382518, Note_on_c, 0, 72, 69
2, 382531, Note_off_c, 0, 73, 64
2, 382536, Note_off_c, 0, 61, 64
2, 382544, Note_off_c, 0, 58, 64
2, 382647, Note_on_c, 0, 70, 67
2, 382653, Control_c, 0, 64, 0
2, 382658, Note_on_c, 0, 67, 55
2, 382664, Note_off_c, 0, 72, 64
2, 382664, Note_off_c, 0, 63, 64
2, 382740, Control_c, 0, 64, 127
2, 382783, Note_on_c, 0, 63, 34
2, 382906, Note_on_c, 0, 61, 50
2, 382926, Note_off_c, 0, 63, 64
2, 383052, Note_on_c, 0, 58, 54
2, 383075, Note_off_c, 0, 61, 64
2, 383192, Note_on_c, 0, 61, 56
2, 383195, Note_on_c, 0, 82, 56
2, 383253, Note_off_c, 0, 67, 64
2, 383274, Note_off_c, 0, 58, 64
2, 383316, Note_off_c, 0, 70, 64
2, 383343, Note_on_c, 0, 73, 58
2, 383344, Note_on_c, 0, 63, 56
2, 383361, Note_off_c, 0, 82, 64
2, 383380, Note_off_c, 0, 61, 64
2, 383441, Note_on_c, 0, 75, 56
2, 383444, Note_off_c, 0, 73, 64
2, 383481, Control_c, 0, 64, 0
2, 383490, Note_on_c, 0, 73, 72
2, 383496, Note_on_c, 0, 56, 34
2, 383505, Note_off_c, 0, 63, 64
2, 383517, Note_off_c, 0, 75, 64
2, 383543, Control_c, 0, 64, 127
2, 383622, Note_on_c, 0, 72, 56
2, 383625, Note_on_c, 0, 60, 51
2, 383634, Note_off_c, 0, 73, 64
2, 383659, Note_off_c, 0, 56, 64
2, 383752, Note_on_c, 0, 70, 47
2, 383755, Note_on_c, 0, 63, 49
2, 383782, Note_off_c, 0, 72, 64
2, 383800, Note_off_c, 0, 60, 64
2, 383888, Note_on_c, 0, 68, 57
2, 383907, Note_off_c, 0, 63, 64
2, 384010, Note_on_c, 0, 63, 56
2, 384077, Note_off_c, 0, 68, 64
2, 384145, Note_on_c, 0, 60, 37
2, 384174, Note_off_c, 0, 63, 64
2, 384291, Note_on_c, 0, 56, 54
2, 384297, Note_off_c, 0, 60, 64
2, 384389, Control_c, 0, 64, 0
2, 384425, Note_on_c, 0, 60, 66
2, 384431, Note_on_c, 0, 75, 74
2, 384432, Control_c, 0, 64, 127
2, 384454, Note_off_c, 0, 70, 64
2, 384545, Note_off_c, 0, 56, 64
2, 384574, Note_on_c, 0, 72, 68
2, 384578, Note_off_c, 0, 75, 64
2, 384578, Note_on_c, 0, 63, 63
2, 384637, Note_off_c, 0, 60, 64
2, 384682, Note_off_c, 0, 72, 64
2, 384684, Note_on_c, 0, 73, 61
2, 384722, Control_c, 0, 64, 0
2, 384728, Note_on_c, 0, 55, 57
2, 384732, Note_on_c, 0, 72, 78
2, 384742, Note_off_c, 0, 63, 64
2, 384779, Note_off_c, 0, 73, 64
2, 384787, Control_c, 0, 64, 127
2, 384855, Note_on_c, 0, 58, 60
2, 384871, Note_on_c, 0, 70, 75
2, 384894, Note_off_c, 0, 72, 64
2, 384928, Note_off_c, 0, 55, 64
2, 384980, Note_on_c, 0, 60, 51
2, 384992, Note_on_c, 0, 68, 74
2, 385017, Note_off_c, 0, 70, 64
2, 385029, Note_off_c, 0, 58, 64
2, 385115, Note_off_c, 0, 68, 64
2, 385126, Note_on_c, 0, 67, 71
2, 385127, Note_on_c, 0, 64, 69
2, 385134, Control_c, 0, 64, 0
2, 385144, Note_off_c, 0, 60, 64
2, 385202, Control_c, 0, 64, 127
2, 385268, Note_on_c, 0, 60, 59
2, 385297, Note_off_c, 0, 64, 64
2, 385415, Note_on_c, 0, 58, 56
2, 385444, Note_off_c, 0, 60, 64
2, 385550, Note_on_c, 0, 55, 54
2, 385558, Note_off_c, 0, 58, 64
2, 385683, Note_on_c, 0, 58, 56
2, 385697, Note_off_c, 0, 55, 64
2, 385701, Note_on_c, 0, 79, 57
2, 385799, Note_off_c, 0, 79, 64
2, 385826, Note_off_c, 0, 58, 64
2, 385834, Note_on_c, 0, 70, 69
2, 385839, Note_on_c, 0, 60, 49
2, 385908, Note_off_c, 0, 70, 64
2, 385974, Note_on_c, 0, 72, 66
2, 386011, Note_off_c, 0, 60, 64
2, 386012, Note_on_c, 0, 70, 78
2, 386028, Note_on_c, 0, 53, 34
2, 386034, Note_off_c, 0, 67, 64
2, 386050, Note_off_c, 0, 72, 64
2, 386054, Control_c, 0, 64, 0
2, 386119, Control_c, 0, 64, 127
2, 386141, Control_c, 0, 64, 0
2, 386152, Control_c, 0, 64, 127
2, 386159, Note_on_c, 0, 68, 58
2, 386208, Note_off_c, 0, 70, 64
2, 386289, Note_off_c, 0, 68, 64
2, 386300, Note_on_c, 0, 67, 65
2, 386432, Note_on_c, 0, 65, 54
2, 386488, Note_off_c, 0, 67, 64
2, 386574, Note_on_c, 0, 72, 71
2, 386586, Note_off_c, 0, 65, 64
2, 386635, Note_off_c, 0, 53, 64
2, 386709, Note_on_c, 0, 71, 54
2, 386717, Note_off_c, 0, 72, 64
2, 386858, Note_on_c, 0, 49, 71
2, 386861, Note_off_c, 0, 71, 64
2, 386865, Note_on_c, 0, 77, 67
2, 386888, Control_c, 0, 64, 0
2, 386910, Control_c, 0, 64, 127
2, 387008, Note_off_c, 0, 77, 64
2, 387011, Note_on_c, 0, 71, 63
2, 387116, Note_off_c, 0, 49, 64
2, 387145, Note_on_c, 0, 80, 70
2, 387300, Note_off_c, 0, 71, 64
2, 387311, Note_off_c, 0, 80, 64
2, 387320, Note_on_c, 0, 77, 67
2, 387335, Note_on_c, 0, 48, 54
2, 387343, Control_c, 0, 64, 0
2, 387417, Control_c, 0, 64, 127
2, 387480, Note_on_c, 0, 52, 46
2, 387494, Note_off_c, 0, 48, 64
2, 387600, Note_on_c, 0, 55, 55
2, 387646, Note_off_c, 0, 52, 64
2, 387738, Note_off_c, 0, 55, 64
2, 387745, Note_on_c, 0, 60, 63
2, 387745, Note_on_c, 0, 76, 60
2, 387852, Note_off_c, 0, 60, 64
2, 387884, Note_on_c, 0, 64, 65
2, 388027, Note_on_c, 0, 67, 63
2, 388080, Note_off_c, 0, 64, 64
2, 388185, Note_on_c, 0, 72, 64
2, 388212, Note_off_c, 0, 67, 64
2, 388215, Control_c, 0, 64, 0
2, 388253, Control_c, 0, 64, 127
2, 388378, Note_on_c, 0, 67, 40
2, 388448, Note_off_c, 0, 72, 64
2, 388462, Note_off_c, 0, 77, 64
2, 388549, Note_on_c, 0, 64, 63
2, 388613, Note_off_c, 0, 67, 64
2, 388772, Note_off_c, 0, 64, 64
2, 388784, Note_on_c, 0, 60, 65
2, 388792, Note_on_c, 0, 70, 74
2, 388795, Note_off_c, 0, 76, 64
2, 388799, Note_on_c, 0, 73, 103
2, 388842, Control_c, 0, 64, 0
2, 388897, Control_c, 0, 64, 127
2, 388970, Note_on_c, 0, 76, 84
2, 389002, Note_off_c, 0, 73, 64
2, 389098, Note_on_c, 0, 79, 77
2, 389118, Note_off_c, 0, 76, 64
2, 389230, Note_on_c, 0, 82, 74
2, 389265, Note_off_c, 0, 79, 64
2, 389370, Note_on_c, 0, 85, 74
2, 389384, Note_off_c, 0, 82, 64
2, 389507, Note_off_c, 0, 85, 64
2, 389510, Note_on_c, 0, 84, 87
2, 389627, Note_on_c, 0, 82, 77
2, 389649, Note_off_c, 0, 84, 64
2, 389764, Note_on_c, 0, 80, 78
2, 389800, Note_off_c, 0, 82, 64
2, 389902, Note_off_c, 0, 80, 64
2, 389905, Note_on_c, 0, 79, 55
2, 389932, Note_off_c, 0, 60, 64
2, 390055, Note_on_c, 0, 60, 63
2, 390059, Note_on_c, 0, 77, 71
2, 390061, Note_on_c, 0, 68, 61
2, 390069, Note_off_c, 0, 70, 64
2, 390081, Control_c, 0, 64, 0
2, 390095, Note_off_c, 0, 79, 64
2, 390156, Control_c, 0, 64, 127
2, 390192, Note_on_c, 0, 84, 73
2, 390215, Note_off_c, 0, 77, 64
2, 390343, Note_on_c, 0, 76, 69
2, 390359, Note_off_c, 0, 84, 64
2, 390472, Note_on_c, 0, 77, 73
2, 390480, Note_off_c, 0, 76, 64
2, 390610, Note_on_c, 0, 80, 63
2, 390647, Note_off_c, 0, 77, 64
2, 390734, Note_on_c, 0, 72, 73
2, 390755, Note_off_c, 0, 80, 64
2, 390881, Note_on_c, 0, 77, 75
2, 390890, Note_off_c, 0, 68, 64
2, 390941, Note_off_c, 0, 72, 64
2, 391004, Note_off_c, 0, 60, 64
2, 391042, Note_on_c, 0, 72, 59
2, 391049, Note_off_c, 0, 77, 64
2, 391172, Note_on_c, 0, 68, 67
2, 391212, Note_off_c, 0, 72, 64
2, 391320, Note_off_c, 0, 68, 64
2, 391328, Note_on_c, 0, 60, 69
2, 391334, Note_on_c, 0, 64, 71
2, 391336, Note_on_c, 0, 67, 72
2, 391361, Control_c, 0, 64, 0
2, 391427, Control_c, 0, 64, 127
2, 391481, Note_on_c, 0, 70, 72
2, 391609, Note_on_c, 0, 73, 73
2, 391646, Note_off_c, 0, 67, 64
2, 391648, Note_off_c, 0, 70, 64
2, 391738, Note_on_c, 0, 76, 72
2, 391757, Note_off_c, 0, 73, 64
2, 391880, Note_on_c, 0, 79, 86
2, 391881, Note_off_c, 0, 76, 64
2, 392002, Note_on_c, 0, 80, 77
2, 392032, Note_off_c, 0, 79, 64
2, 392136, Note_on_c, 0, 82, 74
2, 392160, Note_off_c, 0, 80, 64
2, 392277, Note_on_c, 0, 80, 72
2, 392291, Note_off_c, 0, 82, 64
2, 392339, Note_off_c, 0, 60, 64
2, 392409, Note_on_c, 0, 79, 64
2, 392415, Note_off_c, 0, 80, 64
2, 392423, Note_off_c, 0, 64, 64
2, 392546, Note_on_c, 0, 60, 75
2, 392553, Note_on_c, 0, 65, 73
2, 392561, Note_on_c, 0, 77, 76
2, 392565, Control_c, 0, 64, 0
2, 392595, Note_off_c, 0, 79, 64
2, 392614, Control_c, 0, 64, 127
2, 392712, Note_on_c, 0, 80, 67
2, 392714, Note_off_c, 0, 77, 64
2, 392847, Note_on_c, 0, 72, 59
2, 392856, Note_off_c, 0, 80, 64
2, 392977, Note_on_c, 0, 77, 53
2, 393008, Note_off_c, 0, 72, 64
2, 393124, Note_on_c, 0, 72, 70
2, 393134, Note_off_c, 0, 77, 64
2, 393138, Note_off_c, 0, 65, 64
2, 393243, Note_on_c, 0, 68, 69
2, 393264, Note_off_c, 0, 72, 64
2, 393309, Note_off_c, 0, 60, 64
2, 393391, Note_on_c, 0, 72, 55
2, 393400, Note_off_c, 0, 68, 64
2, 393528, Note_on_c, 0, 68, 69
2, 393602, Note_off_c, 0, 72, 64
2, 393671, Note_on_c, 0, 65, 55
2, 393673, Note_off_c, 0, 68, 64
2, 393807, Note_on_c, 0, 48, 46
2, 393838, Note_on_c, 0, 68, 71
2, 393864, Control_c, 0, 64, 0
2, 393871, Note_off_c, 0, 65, 64
2, 393876, Note_on_c, 0, 66, 72
2, 393906, Note_off_c, 0, 68, 64
2, 393928, Note_on_c, 0, 65, 73
2, 393932, Note_off_c, 0, 66, 64
2, 393938, Control_c, 0, 64, 127
2, 393960, Note_on_c, 0, 51, 52
2, 393968, Note_on_c, 0, 66, 79
2, 393997, Note_off_c, 0, 65, 64
2, 394080, Note_on_c, 0, 56, 47
2, 394118, Note_off_c, 0, 51, 64
2, 394233, Note_on_c, 0, 60, 34
2, 394245, Note_off_c, 0, 56, 64
2, 394344, Note_on_c, 0, 56, 60
2, 394381, Note_off_c, 0, 48, 64
2, 394470, Note_on_c, 0, 51, 56
2, 394512, Note_off_c, 0, 56, 64
2, 394604, Note_on_c, 0, 48, 66
2, 394635, Note_off_c, 0, 51, 64
2, 394734, Note_on_c, 0, 51, 65
2, 394740, Note_on_c, 0, 65, 73
2, 394745, Note_off_c, 0, 48, 64
2, 394762, Note_off_c, 0, 66, 64
2, 394807, Note_off_c, 0, 60, 64
2, 394874, Note_on_c, 0, 56, 64
2, 394877, Note_on_c, 0, 66, 68
2, 394891, Note_off_c, 0, 51, 64
2, 394903, Note_off_c, 0, 65, 64
2, 395017, Control_c, 0, 64, 0
2, 395041, Note_on_c, 0, 65, 71
2, 395046, Note_on_c, 0, 49, 67
2, 395048, Note_off_c, 0, 66, 64
2, 395059, Note_off_c, 0, 56, 64
2, 395104, Control_c, 0, 64, 127
2, 395181, Note_off_c, 0, 65, 64
2, 395185, Note_on_c, 0, 53, 45
2, 395210, Note_off_c, 0, 49, 64
2, 395336, Note_on_c, 0, 56, 40
2, 395342, Note_off_c, 0, 53, 64
2, 395480, Note_on_c, 0, 77, 63
2, 395493, Control_c, 0, 64, 0
2, 395500, Note_on_c, 0, 61, 37
2, 395503, Note_off_c, 0, 56, 64
2, 395517, Control_c, 0, 64, 127
2, 395520, Note_on_c, 0, 79, 66
2, 395538, Note_off_c, 0, 77, 64
2, 395556, Note_on_c, 0, 80, 68
2, 395577, Control_c, 0, 64, 0
2, 395583, Note_off_c, 0, 79, 64
2, 395618, Control_c, 0, 64, 127
2, 395661, Note_on_c, 0, 56, 37
2, 395685, Note_off_c, 0, 61, 64
2, 395811, Note_off_c, 0, 56, 64
2, 395813, Note_on_c, 0, 53, 31
2, 395951, Note_on_c, 0, 49, 49
2, 395957, Note_off_c, 0, 80, 64
2, 395964, Note_off_c, 0, 53, 64
2, 396101, Note_on_c, 0, 53, 65
2, 396110, Note_off_c, 0, 49, 64
2, 396250, Note_on_c, 0, 56, 59
2, 396261, Note_off_c, 0, 53, 64
2, 396466, Note_on_c, 0, 64, 73
2, 396470, Note_on_c, 0, 47, 52
2, 396494, Note_off_c, 0, 56, 64
2, 396510, Note_on_c, 0, 65, 74
2, 396516, Control_c, 0, 64, 0
2, 396534, Note_off_c, 0, 64, 64
2, 396540, Note_on_c, 0, 67, 74
2, 396565, Note_off_c, 0, 65, 64
2, 396576, Control_c, 0, 64, 127
2, 396590, Control_c, 0, 64, 0
2, 396600, Note_on_c, 0, 65, 79
2, 396616, Note_on_c, 0, 50, 58
2, 396620, Note_off_c, 0, 67, 64
2, 396622, Note_off_c, 0, 47, 64
2, 396636, Control_c, 0, 64, 127
2, 396750, Note_on_c, 0, 53, 61
2, 396793, Note_off_c, 0, 50, 64
2, 396886, Note_on_c, 0, 56, 48
2, 396900, Note_off_c, 0, 53, 64
2, 396998, Note_on_c, 0, 53, 46
2, 397020, Note_off_c, 0, 56, 64
2, 397120, Note_on_c, 0, 50, 37
2, 397127, Note_off_c, 0, 53, 64
2, 397270, Note_on_c, 0, 47, 68
2, 397301, Note_off_c, 0, 50, 64
2, 397394, Note_on_c, 0, 50, 45
2, 397401, Note_off_c, 0, 47, 64
2, 397405, Note_on_c, 0, 64, 74
2, 397429, Note_off_c, 0, 65, 64
2, 397531, Note_on_c, 0, 53, 53
2, 397537, Note_on_c, 0, 65, 71
2, 397551, Note_off_c, 0, 64, 64
2, 397567, Note_off_c, 0, 50, 64
2, 397673, Note_off_c, 0, 53, 64
2, 397681, Control_c, 0, 64, 0
2, 397693, Note_on_c, 0, 64, 79
2, 397697, Note_on_c, 0, 48, 68
2, 397707, Note_off_c, 0, 65, 64
2, 397777, Control_c, 0, 64, 127
2, 397824, Note_on_c, 0, 52, 58
2, 397831, Note_off_c, 0, 64, 64
2, 397976, Note_on_c, 0, 55, 46
2, 398027, Note_off_c, 0, 52, 64
2, 398118, Note_on_c, 0, 84, 67
2, 398134, Note_on_c, 0, 60, 51
2, 398141, Note_off_c, 0, 55, 64
2, 398157, Note_on_c, 0, 86, 67
2, 398167, Control_c, 0, 64, 0
2, 398182, Note_off_c, 0, 84, 64
2, 398208, Note_on_c, 0, 88, 67
2, 398219, Note_off_c, 0, 86, 64
2, 398227, Control_c, 0, 64, 127
2, 398306, Note_off_c, 0, 48, 64
2, 398309, Note_on_c, 0, 55, 37
2, 398367, Note_off_c, 0, 60, 64
2, 398445, Note_on_c, 0, 52, 58
2, 398460, Note_off_c, 0, 55, 64
2, 398492, Note_off_c, 0, 88, 64
2, 398600, Note_on_c, 0, 48, 58
2, 398605, Control_c, 0, 64, 0
2, 398616, Note_off_c, 0, 52, 64
2, 398620, Control_c, 0, 64, 127
2, 398753, Note_on_c, 0, 52, 56
2, 398768, Note_off_c, 0, 48, 64
2, 398899, Note_off_c, 0, 52, 64
2, 398903, Note_on_c, 0, 55, 49
2, 399024, Note_off_c, 0, 55, 64
2, 399062, Note_on_c, 0, 72, 59
2, 399079, Note_on_c, 0, 52, 38
2, 399080, Control_c, 0, 64, 0
2, 399146, Control_c, 0, 64, 127
2, 399195, Note_off_c, 0, 52, 64
2, 399199, Note_on_c, 0, 70, 59
2, 399206, Note_on_c, 0, 55, 35
2, 399214, Note_off_c, 0, 72, 64
2, 399328, Note_on_c, 0, 68, 61
2, 399336, Note_on_c, 0, 58, 56
2, 399372, Note_off_c, 0, 55, 64
2, 399380, Note_off_c, 0, 70, 64
2, 399471, Note_off_c, 0, 68, 64
2, 399472, Note_on_c, 0, 60, 39
2, 399473, Note_off_c, 0, 58, 64
2, 399479, Note_on_c, 0, 67, 67
2, 399480, Control_c, 0, 64, 0
2, 399538, Control_c, 0, 64, 127
2, 399591, Note_on_c, 0, 58, 56
2, 399638, Note_off_c, 0, 60, 64
2, 399723, Note_on_c, 0, 55, 35
2, 399732, Note_off_c, 0, 58, 64
2, 399850, Control_c, 0, 64, 0
2, 399867, Note_on_c, 0, 52, 47
2, 399877, Note_off_c, 0, 55, 64
2, 399909, Control_c, 0, 64, 127
2, 399996, Note_on_c, 0, 79, 58
2, 400012, Note_off_c, 0, 52, 64
2, 400020, Note_on_c, 0, 55, 29
2, 400143, Note_on_c, 0, 60, 38
2, 400144, Note_on_c, 0, 70, 60
2, 400165, Note_off_c, 0, 55, 64
2, 400180, Note_off_c, 0, 79, 64
2, 400211, Note_off_c, 0, 70, 64
2, 400234, Note_off_c, 0, 67, 64
2, 400249, Note_on_c, 0, 72, 64
2, 400284, Control_c, 0, 64, 0
2, 400288, Note_on_c, 0, 53, 29
2, 400296, Note_on_c, 0, 70, 71
2, 400319, Note_off_c, 0, 60, 64
2, 400325, Note_off_c, 0, 72, 64
2, 400408, Control_c, 0, 64, 127
2, 400419, Note_on_c, 0, 56, 40
2, 400424, Note_on_c, 0, 68, 66
2, 400463, Note_off_c, 0, 70, 64
2, 400483, Note_off_c, 0, 53, 64
2, 400552, Note_on_c, 0, 60, 46
2, 400559, Note_off_c, 0, 68, 64
2, 400561, Note_on_c, 0, 67, 54
2, 400591, Note_off_c, 0, 56, 64
2, 400681, Control_c, 0, 64, 0
2, 400692, Note_on_c, 0, 65, 49
2, 400703, Note_off_c, 0, 67, 64
2, 400711, Note_off_c, 0, 60, 64
2, 400743, Control_c, 0, 64, 127
2, 400821, Note_on_c, 0, 60, 47
2, 400945, Note_on_c, 0, 56, 37
2, 400974, Note_off_c, 0, 60, 64
2, 401091, Note_on_c, 0, 53, 46
2, 401098, Note_off_c, 0, 56, 64
2, 401217, Note_on_c, 0, 77, 61
2, 401226, Note_on_c, 0, 56, 51
2, 401246, Note_off_c, 0, 65, 64
2, 401249, Note_off_c, 0, 53, 64
2, 401355, Note_off_c, 0, 56, 64
2, 401356, Note_on_c, 0, 60, 46
2, 401356, Note_on_c, 0, 72, 64
2, 401367, Note_off_c, 0, 77, 64
2, 401444, Note_on_c, 0, 73, 58
2, 401460, Note_off_c, 0, 72, 64
2, 401483, Note_on_c, 0, 55, 37
2, 401487, Note_on_c, 0, 72, 53
2, 401495, Control_c, 0, 64, 0
2, 401502, Note_off_c, 0, 60, 64
2, 401519, Note_off_c, 0, 73, 64
2, 401561, Control_c, 0, 64, 127
2, 401627, Note_on_c, 0, 58, 46
2, 401629, Note_on_c, 0, 70, 65
2, 401635, Note_off_c, 0, 72, 64
2, 401755, Note_on_c, 0, 68, 54
2, 401761, Note_off_c, 0, 70, 64
2, 401763, Note_on_c, 0, 60, 36
2, 401906, Note_on_c, 0, 67, 53
2, 401908, Note_on_c, 0, 64, 50
2, 401908, Control_c, 0, 64, 0
2, 401916, Note_off_c, 0, 60, 64
2, 401919, Note_off_c, 0, 68, 64
2, 401920, Note_off_c, 0, 58, 64
2, 401968, Control_c, 0, 64, 127
2, 401983, Note_off_c, 0, 55, 64
2, 402051, Note_on_c, 0, 60, 35
2, 402098, Note_off_c, 0, 64, 64
2, 402172, Note_on_c, 0, 58, 48
2, 402217, Note_off_c, 0, 60, 64
2, 402306, Note_on_c, 0, 55, 47
2, 402328, Note_off_c, 0, 58, 64
2, 402443, Note_on_c, 0, 58, 46
2, 402451, Note_on_c, 0, 79, 59
2, 402466, Note_off_c, 0, 55, 64
2, 402578, Note_off_c, 0, 58, 64
2, 402600, Note_on_c, 0, 70, 40
2, 402605, Note_on_c, 0, 60, 27
2, 402661, Note_off_c, 0, 79, 64
2, 402684, Note_off_c, 0, 67, 64
2, 402715, Note_off_c, 0, 70, 64
2, 402766, Note_off_c, 0, 60, 64
2, 402768, Note_on_c, 0, 53, 72
2, 402782, Control_c, 0, 64, 0
2, 402837, Control_c, 0, 64, 127
2, 402937, Note_on_c, 0, 80, 71
2, 403068, Note_off_c, 0, 80, 64
2, 403079, Note_on_c, 0, 84, 69
2, 403193, Control_c, 0, 64, 0
2, 403206, Control_c, 0, 64, 127
2, 403213, Note_on_c, 0, 77, 77
2, 403244, Note_off_c, 0, 84, 64
2, 403346, Note_on_c, 0, 80, 72
2, 403380, Note_off_c, 0, 77, 64
2, 403471, Note_off_c, 0, 80, 64
2, 403479, Note_on_c, 0, 72, 69
2, 403617, Note_on_c, 0, 77, 73
2, 403660, Note_off_c, 0, 72, 64
2, 403670, Note_off_c, 0, 53, 64
2, 403761, Note_on_c, 0, 68, 75
2, 403812, Note_off_c, 0, 77, 64
2, 403894, Note_off_c, 0, 68, 64
2, 403896, Note_on_c, 0, 72, 71
2, 404022, Note_off_c, 0, 72, 64
2, 404056, Control_c, 0, 64, 0
2, 404071, Note_on_c, 0, 35, 76
2, 404077, Note_on_c, 0, 47, 69
2, 404120, Control_c, 0, 64, 127
2, 404237, Note_on_c, 0, 83, 79
2, 404388, Note_on_c, 0, 86, 76
2, 404403, Note_off_c, 0, 83, 64
2, 404525, Note_on_c, 0, 80, 72
2, 404554, Note_off_c, 0, 86, 64
2, 404658, Note_on_c, 0, 83, 67
2, 404680, Note_off_c, 0, 80, 64
2, 404803, Note_on_c, 0, 77, 71
2, 404835, Note_off_c, 0, 83, 64
2, 404939, Note_on_c, 0, 80, 75
2, 404963, Note_off_c, 0, 77, 64
2, 405085, Note_on_c, 0, 74, 86
2, 405103, Note_off_c, 0, 80, 64
2, 405136, Note_off_c, 0, 35, 64
2, 405224, Note_off_c, 0, 47, 64
2, 405233, Note_on_c, 0, 77, 67
2, 405246, Note_off_c, 0, 74, 64
2, 405402, Note_off_c, 0, 77, 64
2, 405406, Note_on_c, 0, 48, 86
2, 405406, Note_on_c, 0, 36, 84
2, 405435, Control_c, 0, 64, 0
2, 405551, Note_on_c, 0, 80, 77
2, 405574, Control_c, 0, 64, 127
2, 405694, Note_on_c, 0, 84, 71
2, 405719, Note_off_c, 0, 80, 64
2, 405820, Note_off_c, 0, 84, 64
2, 405829, Note_on_c, 0, 76, 71
2, 405959, Note_on_c, 0, 77, 67
2, 405966, Note_off_c, 0, 76, 64
2, 406109, Note_on_c, 0, 80, 69
2, 406131, Note_off_c, 0, 77, 64
2, 406246, Note_on_c, 0, 72, 71
2, 406248, Control_c, 0, 64, 0
2, 406254, Note_off_c, 0, 80, 64
2, 406297, Control_c, 0, 64, 127
2, 406385, Note_on_c, 0, 71, 67
2, 406435, Note_off_c, 0, 48, 64
2, 406443, Note_off_c, 0, 72, 64
2, 406463, Note_off_c, 0, 36, 64
2, 406532, Note_on_c, 0, 79, 61
2, 406542, Note_off_c, 0, 71, 64
2, 406674, Note_off_c, 0, 79, 64
2, 406691, Note_on_c, 0, 36, 64
2, 406692, Note_on_c, 0, 70, 78
2, 406694, Note_on_c, 0, 48, 74
2, 406708, Control_c, 0, 64, 0
2, 406755, Control_c, 0, 64, 127
2, 406833, Note_on_c, 0, 69, 66
2, 406868, Note_off_c, 0, 70, 64
2, 406966, Note_on_c, 0, 77, 69
2, 407063, Note_off_c, 0, 69, 64
2, 407101, Note_on_c, 0, 68, 71
2, 407174, Note_off_c, 0, 77, 64
2, 407240, Note_on_c, 0, 67, 61
2, 407288, Note_off_c, 0, 68, 64
2, 407380, Note_on_c, 0, 76, 70
2, 407435, Note_off_c, 0, 67, 64
2, 407485, Control_c, 0, 64, 0
2, 407511, Note_on_c, 0, 67, 71
2, 407531, Note_off_c, 0, 76, 64
2, 407536, Control_c, 0, 64, 127
2, 407652, Note_on_c, 0, 65, 58
2, 407662, Note_off_c, 0, 67, 64
2, 407667, Note_off_c, 0, 36, 64
2, 407714, Note_off_c, 0, 48, 64
2, 407798, Note_on_c, 0, 73, 67
2, 407850, Note_off_c, 0, 65, 64
2, 407962, Note_on_c, 0, 65, 71
2, 407964, Note_on_c, 0, 58, 69
2, 407965, Note_on_c, 0, 48, 71
2, 407970, Note_off_c, 0, 73, 64
2, 407999, Control_c, 0, 64, 0
2, 408055, Control_c, 0, 64, 127
2, 408122, Note_on_c, 0, 64, 61
2, 408139, Note_off_c, 0, 65, 64
2, 408276, Note_on_c, 0, 72, 71
2, 408421, Note_off_c, 0, 64, 64
2, 408432, Note_on_c, 0, 67, 63
2, 408437, Note_on_c, 0, 56, 64
2, 408441, Control_c, 0, 64, 0
2, 408454, Note_off_c, 0, 72, 64
2, 408461, Note_off_c, 0, 58, 64
2, 408501, Control_c, 0, 64, 127
2, 408605, Note_on_c, 0, 65, 56
2, 408628, Note_off_c, 0, 67, 64
2, 408741, Note_on_c, 0, 72, 65
2, 408845, Note_off_c, 0, 48, 64
2, 408893, Note_on_c, 0, 68, 69
2, 408901, Note_on_c, 0, 52, 54
2, 408911, Note_off_c, 0, 72, 64
2, 408916, Note_off_c, 0, 56, 64
2, 408916, Control_c, 0, 64, 0
2, 408930, Note_off_c, 0, 65, 64
2, 408975, Control_c, 0, 64, 127
2, 409058, Note_on_c, 0, 67, 46
2, 409085, Note_off_c, 0, 68, 64
2, 409209, Note_on_c, 0, 70, 65
2, 409219, Note_off_c, 0, 52, 64
2, 409277, Note_off_c, 0, 67, 64
2, 409341, Control_c, 0, 64, 0
2, 409359, Note_on_c, 0, 68, 60
2, 409378, Note_off_c, 0, 70, 64
2, 409472, Control_c, 0, 64, 127
2, 409488, Note_on_c, 0, 49, 61
2, 409624, Note_on_c, 0, 53, 63
2, 409763, Note_on_c, 0, 56, 60
2, 409876, Note_on_c, 0, 61, 55
2, 410027, Note_on_c, 0, 65, 72
2, 410038, Note_off_c, 0, 68, 64
2, 410163, Note_on_c, 0, 68, 77
2, 410229, Note_off_c, 0, 53, 64
2, 410255, Note_off_c, 0, 49, 64
2, 410282, Note_off_c, 0, 61, 64
2, 410306, Note_on_c, 0, 73, 66
2, 410307, Note_off_c, 0, 56, 64
2, 410346, Note_off_c, 0, 68, 64
2, 410474, Note_on_c, 0, 77, 64
2, 410477, Note_off_c, 0, 73, 64
2, 410626, Note_on_c, 0, 35, 77
2, 410639, Control_c, 0, 64, 0
2, 410662, Note_off_c, 0, 77, 64
2, 410715, Control_c, 0, 64, 127
2, 410798, Note_on_c, 0, 47, 79
2, 410813, Note_off_c, 0, 65, 64
2, 410936, Note_on_c, 0, 62, 54
2, 411075, Note_on_c, 0, 65, 57
2, 411191, Note_on_c, 0, 68, 57
2, 411220, Note_off_c, 0, 65, 64
2, 411270, Note_off_c, 0, 62, 64
2, 411352, Note_on_c, 0, 71, 58
2, 411368, Note_off_c, 0, 68, 64
2, 411480, Note_on_c, 0, 74, 78
2, 411515, Note_off_c, 0, 71, 64
2, 411639, Note_on_c, 0, 77, 61
2, 411720, Note_off_c, 0, 47, 64
2, 411734, Note_off_c, 0, 35, 64
2, 411786, Note_off_c, 0, 74, 64
2, 411794, Note_on_c, 0, 80, 67
2, 411833, Note_off_c, 0, 77, 64
2, 411994, Note_on_c, 0, 36, 79
2, 412017, Control_c, 0, 64, 0
2, 412128, Control_c, 0, 64, 127
2, 412195, Note_on_c, 0, 84, 101
2, 412215, Note_off_c, 0, 80, 64
2, 412354, Note_on_c, 0, 72, 93
2, 412356, Note_off_c, 0, 84, 64
2, 412501, Note_on_c, 0, 71, 76
2, 412531, Note_off_c, 0, 72, 64
2, 412636, Note_on_c, 0, 70, 80
2, 412657, Note_off_c, 0, 71, 64
2, 412764, Control_c, 0, 64, 0
2, 412777, Note_on_c, 0, 69, 79
2, 412789, Note_off_c, 0, 70, 64
2, 412797, Control_c, 0, 64, 127
2, 412906, Note_on_c, 0, 68, 77
2, 412932, Note_off_c, 0, 69, 64
2, 412944, Note_off_c, 0, 36, 64
2, 413047, Note_on_c, 0, 67, 67
2, 413051, Note_off_c, 0, 68, 64
2, 413193, Note_on_c, 0, 66, 71
2, 413232, Note_off_c, 0, 67, 64
2, 413347, Note_on_c, 0, 48, 56
2, 413347, Note_on_c, 0, 65, 70
2, 413359, Control_c, 0, 64, 0
2, 413369, Note_off_c, 0, 66, 64
2, 413424, Control_c, 0, 64, 127
2, 413497, Note_on_c, 0, 53, 33
2, 413636, Note_on_c, 0, 56, 46
2, 413677, Note_off_c, 0, 53, 64
2, 413771, Note_off_c, 0, 56, 64
2, 413799, Note_on_c, 0, 60, 40
2, 413886, Note_off_c, 0, 48, 64
2, 413921, Note_on_c, 0, 56, 46
2, 414063, Note_on_c, 0, 53, 32
2, 414066, Note_off_c, 0, 56, 64
2, 414146, Note_on_c, 0, 68, 65
2, 414191, Note_off_c, 0, 53, 64
2, 414199, Note_off_c, 0, 65, 64
2, 414207, Note_on_c, 0, 67, 68
2, 414222, Note_on_c, 0, 48, 49
2, 414229, Note_off_c, 0, 68, 64
2, 414241, Control_c, 0, 64, 0
2, 414299, Control_c, 0, 64, 127
2, 414397, Note_off_c, 0, 60, 64
2, 414405, Note_on_c, 0, 55, 40
2, 414459, Note_on_c, 0, 65, 61
2, 414487, Note_off_c, 0, 67, 64
2, 414531, Note_off_c, 0, 48, 64
2, 414561, Note_on_c, 0, 58, 44
2, 414651, Note_off_c, 0, 58, 64
2, 414675, Note_off_c, 0, 55, 64
2, 414692, Note_off_c, 0, 65, 64
2, 414731, Note_on_c, 0, 56, 58
2, 414743, Note_on_c, 0, 53, 37
2, 414752, Note_on_c, 0, 65, 68
2, 414783, Control_c, 0, 64, 0
2, 414902, Note_on_c, 0, 72, 70
2, 414924, Note_off_c, 0, 65, 64
2, 415011, Control_c, 0, 64, 127
2, 415047, Note_on_c, 0, 64, 67
2, 415140, Note_off_c, 0, 72, 64
2, 415182, Note_on_c, 0, 65, 67
2, 415190, Note_off_c, 0, 64, 64
2, 415343, Note_off_c, 0, 53, 64
2, 415348, Note_on_c, 0, 68, 51
2, 415380, Note_off_c, 0, 56, 64
2, 415431, Note_off_c, 0, 65, 64
2, 415477, Note_on_c, 0, 60, 63
2, 415486, Note_off_c, 0, 68, 64
2, 415644, Note_on_c, 0, 58, 71
2, 415646, Note_on_c, 0, 48, 68
2, 415666, Control_c, 0, 64, 0
2, 415673, Note_off_c, 0, 60, 64
2, 415714, Control_c, 0, 64, 127
2, 415799, Note_on_c, 0, 61, 63
2, 415824, Note_off_c, 0, 58, 64
2, 415948, Note_on_c, 0, 55, 64
2, 415961, Note_off_c, 0, 61, 64
2, 416052, Control_c, 0, 64, 0
2, 416083, Note_on_c, 0, 56, 75
2, 416089, Note_on_c, 0, 53, 65
2, 416100, Note_off_c, 0, 55, 64
2, 416105, Control_c, 0, 64, 127
2, 416114, Note_off_c, 0, 48, 64
2, 416256, Note_on_c, 0, 72, 56
2, 416391, Note_on_c, 0, 64, 53
2, 416402, Note_off_c, 0, 72, 64
2, 416516, Control_c, 0, 64, 0
2, 416536, Note_on_c, 0, 65, 56
2, 416547, Note_off_c, 0, 64, 64
2, 416575, Control_c, 0, 64, 127
2, 416710, Note_on_c, 0, 68, 46
2, 416749, Note_off_c, 0, 65, 64
2, 416844, Note_off_c, 0, 68, 64
2, 416852, Note_on_c, 0, 60, 48
2, 417014, Note_on_c, 0, 58, 56
2, 417022, Note_on_c, 0, 48, 53
2, 417047, Note_off_c, 0, 60, 64
2, 417051, Control_c, 0, 64, 0
2, 417053, Note_off_c, 0, 56, 64
2, 417059, Note_off_c, 0, 53, 64
2, 417111, Control_c, 0, 64, 127
2, 417166, Note_on_c, 0, 67, 54
2, 417222, Note_off_c, 0, 48, 64
2, 417311, Note_off_c, 0, 67, 64
2, 417313, Note_off_c, 0, 58, 64
2, 417326, Note_on_c, 0, 64, 40
2, 417437, Note_off_c, 0, 64, 64
2, 417526, Note_on_c, 0, 64, 48
2, 417537, Note_on_c, 0, 41, 54
2, 417731, Note_on_c, 0, 53, 32
2, 417889, Note_on_c, 0, 52, 48
2, 417898, Note_off_c, 0, 53, 64
2, 418089, Note_on_c, 0, 67, 49
2, 418101, Note_on_c, 0, 53, 37
2, 418107, Note_off_c, 0, 64, 64
2, 418118, Note_off_c, 0, 52, 64
2, 418124, Control_c, 0, 64, 0
2, 418133, Note_on_c, 0, 65, 61
2, 418148, Note_off_c, 0, 41, 64
2, 418154, Note_off_c, 0, 67, 64
2, 418167, Control_c, 0, 64, 127
2, 418174, Note_on_c, 0, 64, 56
2, 418185, Note_off_c, 0, 65, 64
2, 418222, Note_on_c, 0, 65, 56
2, 418247, Note_off_c, 0, 64, 64
2, 418306, Note_on_c, 0, 48, 55
2, 418321, Note_off_c, 0, 53, 64
2, 418331, Control_c, 0, 64, 0
2, 418379, Control_c, 0, 64, 127
2, 418488, Note_on_c, 0, 44, 47
2, 418490, Control_c, 0, 64, 0
2, 418511, Control_c, 0, 64, 127
2, 418516, Note_off_c, 0, 48, 64
2, 418702, Control_c, 0, 64, 0
2, 418710, Note_on_c, 0, 48, 49
2, 418723, Note_off_c, 0, 44, 64
2, 418753, Control_c, 0, 64, 127
2, 418928, Note_on_c, 0, 44, 31
2, 418978, Note_off_c, 0, 48, 64
2, 419193, Note_on_c, 0, 41, 31
2, 419216, Note_off_c, 0, 44, 64
2, 419583, Note_on_c, 0, 29, 34
2, 419637, Control_c, 0, 64, 0
2, 419764, Control_c, 0, 64, 127
2, 420530, Note_off_c, 0, 41, 64
2, 420560, Note_off_c, 0, 65, 64
2, 420635, Note_off_c, 0, 29, 64
2, 421876, Control_c, 0, 64, 0
2, 422123, Note_on_c, 0, 72, 71
2, 422171, Note_off_c, 0, 72, 64
2, 422199, Note_on_c, 0, 57, 72
2, 422201, Note_on_c, 0, 53, 72
2, 422201, Note_on_c, 0, 65, 86
2, 422230, Note_off_c, 0, 53, 64
2, 422235, Note_off_c, 0, 57, 64
2, 422237, Note_off_c, 0, 65, 64
2, 422278, Note_on_c, 0, 69, 84
2, 422320, Note_off_c, 0, 69, 64
2, 422358, Note_on_c, 0, 62, 84
2, 422364, Note_on_c, 0, 58, 65
2, 422367, Note_on_c, 0, 46, 75
2, 422403, Note_off_c, 0, 58, 64
2, 422406, Note_off_c, 0, 46, 64
2, 422411, Note_off_c, 0, 62, 64
2, 422439, Note_on_c, 0, 74, 77
2, 422479, Note_off_c, 0, 74, 64
2, 422532, Note_on_c, 0, 48, 69
2, 422532, Note_on_c, 0, 65, 86
2, 422536, Note_on_c, 0, 57, 66
2, 422563, Control_c, 0, 64, 127
2, 422700, Note_on_c, 0, 64, 68
2, 422700, Note_on_c, 0, 55, 75
2, 422703, Note_off_c, 0, 65, 64
2, 422713, Note_off_c, 0, 48, 64
2, 422720, Note_off_c, 0, 57, 64
2, 422723, Control_c, 0, 64, 0
2, 422729, Note_off_c, 0, 55, 64
2, 422754, Note_off_c, 0, 64, 64
2, 422777, Note_on_c, 0, 70, 94
2, 422815, Note_off_c, 0, 70, 64
2, 422855, Note_on_c, 0, 67, 84
2, 422910, Note_off_c, 0, 67, 64
2, 422934, Note_on_c, 0, 76, 72
2, 422986, Note_off_c, 0, 76, 64
2, 423017, Note_on_c, 0, 64, 71
2, 423017, Note_on_c, 0, 60, 75
2, 423021, Note_on_c, 0, 70, 94
2, 423048, Note_off_c, 0, 60, 64
2, 423053, Note_off_c, 0, 64, 64
2, 423058, Control_c, 0, 64, 127
2, 423068, Note_off_c, 0, 70, 64
2, 423072, Control_c, 0, 64, 0
2, 423091, Note_on_c, 0, 79, 69
2, 423137, Note_off_c, 0, 79, 64
2, 423174, Note_on_c, 0, 70, 85
2, 423179, Note_on_c, 0, 65, 66
2, 423190, Control_c, 0, 64, 127
2, 423266, Note_on_c, 0, 53, 81
2, 423294, Note_off_c, 0, 65, 64
2, 423303, Note_off_c, 0, 53, 64
2, 423330, Note_off_c, 0, 70, 64
2, 423340, Control_c, 0, 64, 0
2, 423351, Note_on_c, 0, 69, 69
2, 423408, Note_off_c, 0, 69, 64
2, 423431, Note_on_c, 0, 72, 46
2, 423457, Note_off_c, 0, 72, 64
2, 423515, Note_on_c, 0, 63, 85
2, 423552, Note_off_c, 0, 63, 64
2, 423590, Note_on_c, 0, 75, 84
2, 423628, Note_off_c, 0, 75, 64
2, 423669, Note_on_c, 0, 65, 86
2, 423673, Note_on_c, 0, 53, 66
2, 423676, Note_on_c, 0, 57, 69
2, 423703, Note_off_c, 0, 57, 64
2, 423711, Note_off_c, 0, 53, 64
2, 423718, Note_off_c, 0, 65, 64
2, 423747, Note_on_c, 0, 72, 80
2, 423793, Note_off_c, 0, 72, 64
2, 423828, Note_on_c, 0, 58, 81
2, 423838, Note_on_c, 0, 73, 88
2, 423844, Control_c, 0, 64, 127
2, 423917, Note_on_c, 0, 46, 86
2, 423955, Note_off_c, 0, 46, 64
2, 423961, Note_off_c, 0, 58, 64
2, 423992, Note_on_c, 0, 74, 77
2, 424020, Note_off_c, 0, 73, 64
2, 424044, Note_off_c, 0, 74, 64
2, 424061, Control_c, 0, 64, 0
2, 424068, Note_on_c, 0, 58, 76
2, 424068, Note_on_c, 0, 62, 67
2, 424075, Note_on_c, 0, 67, 84
2, 424095, Note_off_c, 0, 62, 64
2, 424102, Note_off_c, 0, 58, 64
2, 424131, Note_off_c, 0, 67, 64
2, 424153, Note_on_c, 0, 60, 71
2, 424156, Note_on_c, 0, 57, 63
2, 424159, Note_on_c, 0, 69, 95
2, 424188, Note_off_c, 0, 60, 64
2, 424198, Note_off_c, 0, 69, 64
2, 424202, Note_off_c, 0, 57, 64
2, 424228, Note_on_c, 0, 58, 72
2, 424232, Note_on_c, 0, 55, 80
2, 424233, Note_on_c, 0, 70, 94
2, 424258, Note_off_c, 0, 58, 64
2, 424262, Note_off_c, 0, 55, 64
2, 424282, Note_off_c, 0, 70, 64
2, 424311, Note_on_c, 0, 64, 78
2, 424316, Note_on_c, 0, 60, 88
2, 424392, Note_on_c, 0, 48, 88
2, 424394, Note_on_c, 0, 67, 79
2, 424416, Note_off_c, 0, 60, 64
2, 424422, Note_off_c, 0, 64, 64
2, 424432, Note_off_c, 0, 48, 64
2, 424453, Note_off_c, 0, 67, 64
2, 424476, Note_on_c, 0, 65, 86
2, 424488, Note_on_c, 0, 53, 86
2, 424501, Control_c, 0, 64, 127
2, 424521, Note_off_c, 0, 53, 64
2, 424535, Note_off_c, 0, 65, 64
2, 424558, Note_on_c, 0, 41, 67
2, 424599, Control_c, 0, 64, 0
2, 424613, Note_off_c, 0, 41, 64
2, 424719, Note_on_c, 0, 84, 77
2, 424802, Note_on_c, 0, 77, 71
2, 424834, Note_off_c, 0, 84, 64
2, 424847, Note_off_c, 0, 77, 64
2, 424870, Note_on_c, 0, 81, 70
2, 424952, Note_off_c, 0, 81, 64
2, 424965, Note_on_c, 0, 72, 84
2, 425004, Note_off_c, 0, 72, 64
2, 425044, Note_on_c, 0, 72, 88
2, 425046, Note_on_c, 0, 77, 80
2, 425048, Note_on_c, 0, 69, 88
2, 425092, Note_off_c, 0, 72, 64
2, 425101, Note_off_c, 0, 69, 64
2, 425102, Note_off_c, 0, 77, 64
2, 425123, Note_on_c, 0, 76, 88
2, 425124, Note_on_c, 0, 70, 86
2, 425127, Note_on_c, 0, 67, 73
2, 425180, Note_off_c, 0, 76, 64
2, 425200, Note_on_c, 0, 65, 78
2, 425200, Note_on_c, 0, 69, 79
2, 425203, Note_off_c, 0, 70, 64
2, 425203, Note_on_c, 0, 77, 84
2, 425208, Note_off_c, 0, 67, 64
2, 425249, Note_off_c, 0, 77, 64
2, 425279, Note_on_c, 0, 67, 85
2, 425284, Note_on_c, 0, 79, 84
2, 425284, Note_on_c, 0, 64, 86
2, 425298, Note_off_c, 0, 69, 64
2, 425298, Note_off_c, 0, 65, 64
2, 425321, Note_off_c, 0, 67, 64
2, 425331, Note_off_c, 0, 64, 64
2, 425360, Note_on_c, 0, 84, 84
2, 425379, Note_off_c, 0, 79, 64
2, 425435, Note_off_c, 0, 84, 64
2, 425438, Note_on_c, 0, 79, 84
2, 425500, Note_off_c, 0, 79, 64
2, 425517, Note_on_c, 0, 82, 86
2, 425574, Note_off_c, 0, 82, 64
2, 425595, Note_on_c, 0, 72, 81
2, 425631, Note_off_c, 0, 72, 64
2, 425676, Note_on_c, 0, 72, 92
2, 425678, Note_on_c, 0, 76, 84
2, 425679, Note_on_c, 0, 70, 88
2, 425715, Note_off_c, 0, 72, 64
2, 425717, Note_off_c, 0, 76, 64
2, 425719, Note_off_c, 0, 70, 64
2, 425748, Note_on_c, 0, 72, 74
2, 425748, Note_on_c, 0, 69, 90
2, 425750, Note_on_c, 0, 77, 81
2, 425807, Note_off_c, 0, 77, 64
2, 425830, Note_on_c, 0, 79, 84
2, 425837, Note_on_c, 0, 67, 78
2, 425839, Note_on_c, 0, 70, 84
2, 425841, Note_off_c, 0, 69, 64
2, 425841, Note_off_c, 0, 72, 64
2, 425887, Note_off_c, 0, 79, 64
2, 425913, Note_on_c, 0, 81, 86
2, 425914, Note_on_c, 0, 69, 84
2, 425920, Note_on_c, 0, 65, 86
2, 425933, Note_off_c, 0, 67, 64
2, 425935, Note_off_c, 0, 70, 64
2, 425952, Note_off_c, 0, 69, 64
2, 425965, Note_off_c, 0, 65, 64
2, 425973, Note_off_c, 0, 81, 64
2, 425991, Note_on_c, 0, 84, 88
2, 426054, Note_off_c, 0, 84, 64
2, 426077, Note_on_c, 0, 77, 88
2, 426131, Note_off_c, 0, 77, 64
2, 426148, Note_on_c, 0, 69, 86
2, 426148, Note_on_c, 0, 65, 81
2, 426152, Note_on_c, 0, 84, 84
2, 426216, Note_off_c, 0, 84, 64
2, 426224, Note_on_c, 0, 67, 76
2, 426228, Note_on_c, 0, 70, 74
2, 426230, Note_off_c, 0, 65, 64
2, 426230, Note_on_c, 0, 77, 84
2, 426235, Note_off_c, 0, 69, 64
2, 426301, Note_off_c, 0, 77, 64
2, 426311, Note_off_c, 0, 67, 64
2, 426312, Note_on_c, 0, 72, 86
2, 426312, Note_on_c, 0, 69, 88
2, 426315, Note_on_c, 0, 75, 96
2, 426321, Note_off_c, 0, 70, 64
2, 426358, Note_off_c, 0, 75, 64
2, 426399, Note_on_c, 0, 70, 100
2, 426404, Note_off_c, 0, 72, 64
2, 426404, Note_on_c, 0, 75, 98
2, 426406, Note_off_c, 0, 69, 64
2, 426459, Control_c, 0, 64, 127
2, 426478, Note_off_c, 0, 75, 64
2, 426480, Note_on_c, 0, 73, 84
2, 426493, Note_off_c, 0, 70, 64
2, 426560, Note_off_c, 0, 73, 64
2, 426561, Note_on_c, 0, 74, 67
2, 426593, Note_off_c, 0, 74, 64
2, 426639, Note_on_c, 0, 66, 88
2, 426641, Note_on_c, 0, 69, 94
2, 426674, Note_off_c, 0, 69, 64
2, 426678, Note_off_c, 0, 66, 64
2, 426689, Control_c, 0, 64, 0
2, 426720, Note_on_c, 0, 70, 73
2, 426729, Note_on_c, 0, 67, 76
2, 426812, Note_on_c, 0, 69, 76
2, 426814, Note_on_c, 0, 72, 76
2, 426826, Note_off_c, 0, 67, 64
2, 426833, Note_off_c, 0, 70, 64
2, 426866, Control_c, 0, 64, 127
2, 426888, Note_on_c, 0, 74, 79
2, 426899, Note_off_c, 0, 69, 64
2, 426902, Note_on_c, 0, 70, 84
2, 426905, Note_off_c, 0, 72, 64
2, 426924, Note_off_c, 0, 70, 64
2, 426941, Note_off_c, 0, 74, 64
2, 426972, Note_on_c, 0, 67, 88
2, 426975, Note_on_c, 0, 70, 94
2, 426978, Note_on_c, 0, 58, 86
2, 427009, Note_off_c, 0, 67, 64
2, 427020, Note_off_c, 0, 70, 64
2, 427045, Note_off_c, 0, 58, 64
2, 427046, Control_c, 0, 64, 0
2, 427061, Note_on_c, 0, 60, 88
2, 427062, Note_on_c, 0, 65, 86
2, 427063, Note_on_c, 0, 69, 96
2, 427108, Control_c, 0, 64, 127
2, 427143, Note_on_c, 0, 48, 71
2, 427150, Control_c, 0, 64, 0
2, 427198, Control_c, 0, 64, 127
2, 427211, Note_off_c, 0, 48, 64
2, 427219, Note_on_c, 0, 67, 81
2, 427222, Note_on_c, 0, 64, 77
2, 427233, Note_off_c, 0, 65, 64
2, 427234, Note_off_c, 0, 69, 64
2, 427242, Note_off_c, 0, 64, 64
2, 427248, Note_off_c, 0, 67, 64
2, 427271, Note_off_c, 0, 60, 64
2, 427272, Control_c, 0, 64, 0
2, 427303, Note_on_c, 0, 76, 96
2, 427387, Note_off_c, 0, 76, 64
2, 427388, Note_on_c, 0, 79, 79
2, 427463, Note_off_c, 0, 79, 64
2, 427471, Note_on_c, 0, 72, 81
2, 427478, Note_on_c, 0, 64, 74
2, 427537, Note_off_c, 0, 72, 64
2, 427538, Note_off_c, 0, 64, 64
2, 427543, Note_on_c, 0, 62, 70
2, 427552, Note_on_c, 0, 71, 85
2, 427613, Note_off_c, 0, 71, 64
2, 427614, Note_off_c, 0, 62, 64
2, 427629, Note_on_c, 0, 77, 84
2, 427635, Note_on_c, 0, 55, 74
2, 427637, Note_on_c, 0, 71, 67
2, 427665, Note_off_c, 0, 71, 64
2, 427675, Note_off_c, 0, 77, 64
2, 427680, Note_off_c, 0, 55, 64
2, 427710, Note_on_c, 0, 60, 86
2, 427713, Note_on_c, 0, 77, 84
2, 427718, Note_on_c, 0, 74, 90
2, 427781, Note_on_c, 0, 54, 79
2, 427786, Note_off_c, 0, 77, 64
2, 427788, Note_on_c, 0, 76, 81
2, 427796, Note_on_c, 0, 72, 81
2, 427817, Note_off_c, 0, 74, 64
2, 427858, Note_off_c, 0, 72, 64
2, 427865, Note_off_c, 0, 76, 64
2, 427868, Note_off_c, 0, 54, 64
2, 427872, Note_on_c, 0, 55, 69
2, 427879, Note_on_c, 0, 71, 78
2, 427879, Note_on_c, 0, 74, 86
2, 427900, Note_off_c, 0, 60, 64
2, 427913, Note_off_c, 0, 74, 64
2, 427916, Note_off_c, 0, 71, 64
2, 427926, Note_off_c, 0, 55, 64
2, 427967, Note_on_c, 0, 75, 72
2, 428028, Note_off_c, 0, 75, 64
2, 428038, Note_on_c, 0, 79, 59
2, 428126, Note_off_c, 0, 79, 64
2, 428126, Note_on_c, 0, 72, 60
2, 428129, Note_on_c, 0, 63, 53
2, 428195, Note_off_c, 0, 72, 64
2, 428196, Note_on_c, 0, 71, 57
2, 428202, Note_off_c, 0, 63, 64
2, 428208, Note_on_c, 0, 62, 47
2, 428273, Note_on_c, 0, 74, 59
2, 428278, Note_on_c, 0, 77, 54
2, 428284, Note_on_c, 0, 55, 52
2, 428299, Note_off_c, 0, 62, 64
2, 428316, Note_off_c, 0, 74, 64
2, 428316, Note_off_c, 0, 71, 64
2, 428319, Note_off_c, 0, 77, 64
2, 428354, Note_on_c, 0, 74, 59
2, 428361, Note_on_c, 0, 77, 57
2, 428367, Note_on_c, 0, 60, 54
2, 428370, Note_off_c, 0, 55, 64
2, 428413, Note_off_c, 0, 77, 64
2, 428431, Note_on_c, 0, 72, 46
2, 428431, Note_on_c, 0, 75, 57
2, 428445, Note_on_c, 0, 54, 59
2, 428458, Note_off_c, 0, 74, 64
2, 428490, Note_off_c, 0, 72, 64
2, 428492, Note_off_c, 0, 75, 64
2, 428499, Note_off_c, 0, 60, 64
2, 428517, Note_off_c, 0, 54, 64
2, 428520, Note_on_c, 0, 71, 54
2, 428521, Note_on_c, 0, 74, 63
2, 428527, Note_on_c, 0, 55, 54
2, 428552, Note_off_c, 0, 74, 64
2, 428558, Note_off_c, 0, 71, 64
2, 428603, Note_off_c, 0, 55, 64
2, 428605, Note_on_c, 0, 76, 86
2, 428670, Note_off_c, 0, 76, 64
2, 428680, Note_on_c, 0, 79, 84
2, 428766, Note_on_c, 0, 64, 73
2, 428766, Note_on_c, 0, 60, 74
2, 428770, Note_on_c, 0, 72, 86
2, 428774, Note_off_c, 0, 79, 64
2, 428829, Note_off_c, 0, 72, 64
2, 428830, Note_off_c, 0, 64, 64
2, 428840, Note_on_c, 0, 62, 68
2, 428840, Note_on_c, 0, 65, 71
2, 428845, Note_on_c, 0, 71, 84
2, 428861, Note_off_c, 0, 60, 64
2, 428913, Note_off_c, 0, 71, 64
2, 428924, Note_off_c, 0, 65, 64
2, 428934, Note_off_c, 0, 62, 64
2, 428940, Note_on_c, 0, 70, 92
2, 428940, Note_on_c, 0, 64, 54
2, 428947, Note_on_c, 0, 67, 67
2, 428978, Note_off_c, 0, 70, 64
2, 429016, Note_on_c, 0, 70, 97
2, 429028, Note_off_c, 0, 64, 64
2, 429028, Note_on_c, 0, 65, 78
2, 429034, Note_off_c, 0, 67, 64
2, 429048, Note_on_c, 0, 69, 74
2, 429066, Note_off_c, 0, 70, 64
2, 429081, Note_on_c, 0, 68, 90
2, 429095, Note_off_c, 0, 69, 64
2, 429125, Note_on_c, 0, 69, 79
2, 429128, Note_off_c, 0, 68, 64
2, 429143, Note_off_c, 0, 65, 64
2, 429165, Note_on_c, 0, 71, 66
2, 429170, Note_off_c, 0, 69, 64
2, 429200, Note_off_c, 0, 71, 64
2, 429208, Note_on_c, 0, 69, 78
2, 429252, Note_on_c, 0, 73, 94
2, 429255, Note_off_c, 0, 69, 64
2, 429260, Note_on_c, 0, 64, 79
2, 429289, Note_off_c, 0, 73, 64
2, 429302, Note_on_c, 0, 69, 80
2, 429310, Note_off_c, 0, 64, 64
2, 429338, Note_on_c, 0, 74, 88
2, 429351, Note_on_c, 0, 65, 78
2, 429356, Note_off_c, 0, 69, 64
2, 429381, Note_off_c, 0, 74, 64
2, 429392, Note_on_c, 0, 69, 79
2, 429407, Note_off_c, 0, 65, 64
2, 429430, Note_on_c, 0, 76, 92
2, 429436, Note_on_c, 0, 61, 94
2, 429448, Note_off_c, 0, 69, 64
2, 429468, Note_off_c, 0, 76, 64
2, 429470, Note_off_c, 0, 61, 64
2, 429476, Note_on_c, 0, 69, 76
2, 429526, Note_on_c, 0, 77, 84
2, 429526, Note_on_c, 0, 62, 88
2, 429530, Note_off_c, 0, 69, 64
2, 429554, Note_off_c, 0, 77, 64
2, 429557, Note_off_c, 0, 62, 64
2, 429564, Note_on_c, 0, 69, 63
2, 429601, Note_on_c, 0, 79, 86
2, 429608, Note_on_c, 0, 64, 90
2, 429609, Note_off_c, 0, 69, 64
2, 429639, Note_off_c, 0, 79, 64
2, 429640, Note_on_c, 0, 69, 84
2, 429641, Note_off_c, 0, 64, 64
2, 429668, Note_off_c, 0, 69, 64
2, 429689, Note_on_c, 0, 81, 94
2, 429693, Note_on_c, 0, 65, 88
2, 429868, Note_on_c, 0, 79, 71
2, 429880, Note_off_c, 0, 81, 64
2, 429907, Control_c, 0, 64, 127
2, 429913, Note_on_c, 0, 77, 68
2, 429928, Note_off_c, 0, 79, 64
2, 429942, Note_on_c, 0, 76, 77
2, 429958, Note_off_c, 0, 77, 64
2, 429978, Note_on_c, 0, 74, 84
2, 429981, Note_off_c, 0, 76, 64
2, 430025, Note_off_c, 0, 74, 64
2, 430030, Note_on_c, 0, 73, 88
2, 430064, Note_off_c, 0, 65, 64
2, 430068, Note_off_c, 0, 73, 64
2, 430068, Note_on_c, 0, 74, 73
2, 430109, Note_off_c, 0, 74, 64
2, 430116, Note_on_c, 0, 76, 75
2, 430160, Note_off_c, 0, 76, 64
2, 430176, Note_on_c, 0, 74, 77
2, 430210, Note_on_c, 0, 79, 86
2, 430236, Note_off_c, 0, 74, 64
2, 430252, Note_on_c, 0, 77, 77
2, 430283, Note_on_c, 0, 76, 86
2, 430290, Note_off_c, 0, 79, 64
2, 430315, Note_off_c, 0, 77, 64
2, 430329, Note_on_c, 0, 74, 85
2, 430344, Control_c, 0, 64, 0
2, 430351, Note_off_c, 0, 76, 64
2, 430371, Note_on_c, 0, 72, 86
2, 430380, Note_off_c, 0, 74, 64
2, 430454, Note_on_c, 0, 66, 79
2, 430457, Note_on_c, 0, 69, 67
2, 430464, Control_c, 0, 64, 127
2, 430508, Note_off_c, 0, 69, 64
2, 430527, Note_off_c, 0, 72, 64
2, 430531, Note_off_c, 0, 66, 64
2, 430556, Note_on_c, 0, 67, 85
2, 430633, Note_on_c, 0, 71, 55
2, 430638, Note_on_c, 0, 76, 66
2, 430644, Note_on_c, 0, 55, 65
2, 430647, Note_off_c, 0, 67, 64
2, 430675, Note_off_c, 0, 71, 64
2, 430677, Note_on_c, 0, 74, 58
2, 430682, Note_off_c, 0, 55, 64
2, 430704, Note_off_c, 0, 76, 64
2, 430719, Note_on_c, 0, 72, 54
2, 430727, Control_c, 0, 64, 0
2, 430735, Note_on_c, 0, 60, 74
2, 430744, Note_off_c, 0, 74, 64
2, 430813, Control_c, 0, 64, 127
2, 430833, Note_on_c, 0, 48, 79
2, 430843, Note_off_c, 0, 72, 64
2, 430870, Note_off_c, 0, 60, 64
2, 430879, Note_off_c, 0, 48, 64
2, 430973, Control_c, 0, 64, 0
2, 431000, Note_on_c, 0, 74, 65
2, 431042, Note_on_c, 0, 71, 63
2, 431054, Note_off_c, 0, 74, 64
2, 431084, Note_on_c, 0, 65, 79
2, 431084, Note_on_c, 0, 62, 78
2, 431084, Note_on_c, 0, 59, 73
2, 431086, Note_on_c, 0, 74, 76
2, 431091, Note_off_c, 0, 71, 64
2, 431092, Control_c, 0, 64, 127
2, 431130, Note_on_c, 0, 71, 85
2, 431146, Note_off_c, 0, 74, 64
2, 431174, Note_off_c, 0, 71, 64
2, 431180, Note_on_c, 0, 77, 67
2, 431221, Note_on_c, 0, 74, 79
2, 431258, Note_on_c, 0, 71, 77
2, 431279, Note_off_c, 0, 74, 64
2, 431280, Note_off_c, 0, 77, 64
2, 431292, Note_off_c, 0, 59, 64
2, 431304, Note_on_c, 0, 67, 78
2, 431305, Note_off_c, 0, 62, 64
2, 431319, Note_off_c, 0, 71, 64
2, 431335, Note_off_c, 0, 65, 64
2, 431352, Note_on_c, 0, 74, 80
2, 431356, Note_off_c, 0, 67, 64
2, 431399, Note_on_c, 0, 71, 86
2, 431408, Note_off_c, 0, 74, 64
2, 431436, Note_on_c, 0, 62, 90
2, 431438, Note_off_c, 0, 71, 64
2, 431440, Note_on_c, 0, 59, 86
2, 431440, Note_on_c, 0, 65, 94
2, 431441, Note_on_c, 0, 74, 84
2, 431477, Note_on_c, 0, 71, 84
2, 431477, Control_c, 0, 64, 0
2, 431504, Note_off_c, 0, 74, 64
2, 431528, Control_c, 0, 64, 127
2, 431532, Note_on_c, 0, 77, 79
2, 431545, Note_off_c, 0, 71, 64
2, 431572, Note_on_c, 0, 74, 84
2, 431619, Note_off_c, 0, 77, 64
2, 431621, Note_on_c, 0, 71, 69
2, 431625, Note_off_c, 0, 74, 64
2, 431646, Note_off_c, 0, 59, 64
2, 431647, Note_off_c, 0, 62, 64
2, 431662, Note_off_c, 0, 65, 64
2, 431666, Note_on_c, 0, 67, 75
2, 431681, Note_off_c, 0, 71, 64
2, 431710, Note_on_c, 0, 74, 81
2, 431718, Note_off_c, 0, 67, 64
2, 431753, Note_on_c, 0, 71, 84
2, 431764, Note_off_c, 0, 74, 64
2, 431794, Note_on_c, 0, 62, 90
2, 431797, Note_on_c, 0, 59, 88
2, 431797, Note_on_c, 0, 65, 88
2, 431797, Note_on_c, 0, 74, 90
2, 431809, Note_off_c, 0, 71, 64
2, 431811, Control_c, 0, 64, 0
2, 431838, Note_on_c, 0, 71, 77
2, 431843, Control_c, 0, 64, 127
2, 431855, Note_off_c, 0, 74, 64
2, 431899, Note_on_c, 0, 77, 86
2, 431902, Note_off_c, 0, 71, 64
2, 431939, Note_off_c, 0, 65, 64
2, 431940, Note_on_c, 0, 74, 79
2, 431947, Note_off_c, 0, 62, 64
2, 431953, Note_off_c, 0, 59, 64
2, 431961, Note_off_c, 0, 77, 64
2, 431976, Note_on_c, 0, 71, 79
2, 432014, Note_off_c, 0, 74, 64
2, 432023, Note_off_c, 0, 71, 64
2, 432029, Note_on_c, 0, 67, 84
2, 432074, Note_on_c, 0, 74, 79
2, 432089, Note_off_c, 0, 67, 64
2, 432125, Note_on_c, 0, 71, 60
2, 432148, Note_off_c, 0, 74, 64
2, 432165, Note_on_c, 0, 67, 77
2, 432182, Note_off_c, 0, 71, 64
2, 432210, Note_on_c, 0, 65, 81
2, 432213, Note_off_c, 0, 67, 64
2, 432248, Note_on_c, 0, 71, 80
2, 432262, Note_off_c, 0, 65, 64
2, 432285, Note_on_c, 0, 67, 84
2, 432313, Note_off_c, 0, 71, 64
2, 432338, Note_on_c, 0, 65, 72
2, 432352, Note_off_c, 0, 67, 64
2, 432370, Note_on_c, 0, 62, 81
2, 432376, Note_off_c, 0, 65, 64
2, 432420, Note_off_c, 0, 62, 64
2, 432422, Note_on_c, 0, 65, 76
2, 432474, Note_on_c, 0, 62, 65
2, 432489, Note_off_c, 0, 65, 64
2, 432508, Control_c, 0, 64, 0
2, 432518, Note_on_c, 0, 59, 88
2, 432537, Note_off_c, 0, 62, 64
2, 432559, Control_c, 0, 64, 127
2, 432605, Note_off_c, 0, 59, 64
2, 432848, Note_on_c, 0, 79, 59
2, 432875, Control_c, 0, 64, 0
2, 432895, Note_off_c, 0, 79, 64
2, 432928, Note_on_c, 0, 57, 61
2, 432934, Note_on_c, 0, 72, 67
2, 432976, Note_off_c, 0, 72, 64
2, 433014, Note_off_c, 0, 57, 64
2, 433022, Note_on_c, 0, 76, 68
2, 433025, Note_on_c, 0, 60, 56
2, 433033, Control_c, 0, 64, 127
2, 433067, Note_off_c, 0, 76, 64
2, 433072, Control_c, 0, 64, 0
2, 433089, Note_off_c, 0, 60, 64
2, 433108, Note_on_c, 0, 69, 68
2, 433115, Note_on_c, 0, 53, 68
2, 433125, Control_c, 0, 64, 127
2, 433175, Note_off_c, 0, 53, 64
2, 433192, Note_on_c, 0, 81, 61
2, 433202, Note_on_c, 0, 65, 53
2, 433221, Note_off_c, 0, 69, 64
2, 433238, Note_off_c, 0, 65, 64
2, 433266, Note_off_c, 0, 81, 64
2, 433285, Control_c, 0, 64, 0
2, 433290, Note_on_c, 0, 55, 63
2, 433290, Note_on_c, 0, 72, 75
2, 433297, Note_on_c, 0, 64, 70
2, 433338, Control_c, 0, 64, 127
2, 433441, Control_c, 0, 64, 0
2, 433464, Note_on_c, 0, 62, 58
2, 433475, Note_on_c, 0, 71, 63
2, 433483, Control_c, 0, 64, 127
2, 433495, Note_off_c, 0, 72, 64
2, 433496, Note_off_c, 0, 64, 64
2, 433512, Note_off_c, 0, 55, 64
2, 433517, Note_off_c, 0, 62, 64
2, 433551, Note_off_c, 0, 71, 64
2, 433559, Note_on_c, 0, 79, 60
2, 433581, Control_c, 0, 64, 0
2, 433610, Note_off_c, 0, 79, 64
2, 433646, Note_on_c, 0, 57, 56
2, 433649, Note_on_c, 0, 72, 70
2, 433662, Control_c, 0, 64, 127
2, 433699, Note_off_c, 0, 72, 64
2, 433722, Note_off_c, 0, 57, 64
2, 433729, Note_on_c, 0, 60, 60
2, 433738, Note_on_c, 0, 76, 63
2, 433783, Note_off_c, 0, 76, 64
2, 433787, Note_off_c, 0, 60, 64
2, 433790, Control_c, 0, 64, 0
2, 433817, Note_on_c, 0, 69, 67
2, 433821, Note_on_c, 0, 53, 60
2, 433834, Control_c, 0, 64, 127
2, 433888, Note_off_c, 0, 53, 64
2, 433902, Note_on_c, 0, 81, 61
2, 433904, Note_on_c, 0, 65, 61
2, 433927, Note_off_c, 0, 69, 64
2, 433952, Note_off_c, 0, 65, 64
2, 433964, Note_off_c, 0, 81, 64
2, 433971, Control_c, 0, 64, 0
2, 433994, Note_on_c, 0, 55, 56
2, 433996, Note_on_c, 0, 72, 71
2, 434001, Note_on_c, 0, 64, 68
2, 434017, Control_c, 0, 64, 127
2, 434146, Note_off_c, 0, 55, 64
2, 434164, Control_c, 0, 64, 0
2, 434169, Note_on_c, 0, 62, 60
2, 434172, Note_off_c, 0, 64, 64
2, 434172, Note_on_c, 0, 71, 63
2, 434179, Note_off_c, 0, 72, 64
2, 434199, Control_c, 0, 64, 127
2, 434210, Note_off_c, 0, 62, 64
2, 434243, Note_off_c, 0, 71, 64
2, 434255, Note_on_c, 0, 53, 67
2, 434259, Note_on_c, 0, 79, 63
2, 434296, Note_off_c, 0, 53, 64
2, 434317, Note_off_c, 0, 79, 64
2, 434330, Control_c, 0, 64, 0
2, 434348, Note_on_c, 0, 52, 68
2, 434351, Note_on_c, 0, 61, 75
2, 434353, Note_on_c, 0, 70, 76
2, 434386, Control_c, 0, 64, 127
2, 434418, Note_off_c, 0, 61, 64
2, 434509, Note_off_c, 0, 52, 64
2, 434516, Control_c, 0, 64, 0
2, 434524, Note_on_c, 0, 53, 46
2, 434524, Note_on_c, 0, 62, 54
2, 434528, Note_on_c, 0, 69, 58
2, 434548, Note_off_c, 0, 70, 64
2, 434555, Control_c, 0, 64, 127
2, 434562, Note_off_c, 0, 62, 64
2, 434566, Note_off_c, 0, 53, 64
2, 434594, Note_off_c, 0, 69, 64
2, 434608, Note_on_c, 0, 77, 60
2, 434670, Control_c, 0, 64, 0
2, 434676, Note_off_c, 0, 77, 64
2, 434688, Note_on_c, 0, 59, 67
2, 434688, Note_on_c, 0, 65, 54
2, 434691, Note_on_c, 0, 68, 73
2, 434712, Control_c, 0, 64, 127
2, 434775, Note_off_c, 0, 59, 64
2, 434849, Note_off_c, 0, 65, 64
2, 434862, Control_c, 0, 64, 0
2, 434864, Note_on_c, 0, 64, 56
2, 434864, Note_on_c, 0, 60, 56
2, 434871, Note_on_c, 0, 67, 57
2, 434883, Control_c, 0, 64, 127
2, 434895, Control_c, 0, 64, 127
2, 434901, Note_off_c, 0, 60, 64
2, 434901, Note_off_c, 0, 64, 64
2, 434902, Note_off_c, 0, 68, 64
2, 434948, Note_on_c, 0, 72, 60
2, 434954, Note_off_c, 0, 67, 64
2, 434986, Note_off_c, 0, 72, 64
2, 435003, Control_c, 0, 64, 0
2, 435031, Note_on_c, 0, 53, 54
2, 435033, Note_on_c, 0, 62, 68
2, 435047, Control_c, 0, 64, 127
2, 435069, Note_off_c, 0, 53, 64
2, 435107, Note_on_c, 0, 69, 59
2, 435111, Note_off_c, 0, 62, 64
2, 435111, Note_on_c, 0, 65, 54
2, 435151, Note_off_c, 0, 65, 64
2, 435156, Note_off_c, 0, 69, 64
2, 435182, Control_c, 0, 64, 0
2, 435200, Note_on_c, 0, 43, 59
2, 435201, Note_on_c, 0, 64, 67
2, 435205, Note_on_c, 0, 67, 67
2, 435205, Note_on_c, 0, 55, 54
2, 435220, Control_c, 0, 64, 127
2, 435229, Note_off_c, 0, 55, 64
2, 435243, Note_off_c, 0, 43, 64
2, 435269, Note_off_c, 0, 64, 64
2, 435272, Note_off_c, 0, 67, 64
2, 435279, Note_on_c, 0, 59, 67
2, 435355, Control_c, 0, 64, 0
2, 435372, Note_on_c, 0, 36, 78
2, 435372, Note_on_c, 0, 60, 67
2, 435378, Note_on_c, 0, 48, 60
2, 435399, Control_c, 0, 64, 127
2, 435408, Note_off_c, 0, 59, 64
2, 435414, Note_off_c, 0, 60, 64
2, 435418, Note_off_c, 0, 36, 64
2, 435422, Note_off_c, 0, 48, 64
2, 435687, Note_on_c, 0, 79, 68
2, 435701, Control_c, 0, 64, 0
2, 435750, Note_off_c, 0, 79, 64
2, 435771, Note_on_c, 0, 57, 72
2, 435774, Note_on_c, 0, 72, 78
2, 435788, Control_c, 0, 64, 127
2, 435847, Note_off_c, 0, 57, 64
2, 435848, Note_on_c, 0, 60, 77
2, 435848, Control_c, 0, 64, 0
2, 435856, Note_on_c, 0, 76, 72
2, 435861, Note_off_c, 0, 72, 64
2, 435877, Note_off_c, 0, 60, 64
2, 435889, Note_off_c, 0, 76, 64
2, 435936, Note_on_c, 0, 69, 78
2, 435943, Note_on_c, 0, 53, 85
2, 435967, Control_c, 0, 64, 127
2, 435998, Note_off_c, 0, 53, 64
2, 436024, Note_on_c, 0, 81, 73
2, 436024, Note_on_c, 0, 65, 76
2, 436061, Note_off_c, 0, 69, 64
2, 436066, Note_off_c, 0, 65, 64
2, 436074, Note_off_c, 0, 81, 64
2, 436088, Control_c, 0, 64, 0
2, 436108, Note_on_c, 0, 64, 79
2, 436109, Note_on_c, 0, 55, 80
2, 436110, Note_on_c, 0, 72, 86
2, 436152, Control_c, 0, 64, 127
2, 436260, Note_off_c, 0, 64, 64
2, 436262, Control_c, 0, 64, 0
2, 436270, Note_on_c, 0, 62, 74
2, 436277, Note_on_c, 0, 71, 71
2, 436288, Control_c, 0, 64, 127
2, 436295, Note_off_c, 0, 72, 64
2, 436308, Note_off_c, 0, 55, 64
2, 436313, Note_off_c, 0, 62, 64
2, 436320, Note_off_c, 0, 71, 64
2, 436358, Note_on_c, 0, 79, 74
2, 436406, Note_off_c, 0, 79, 64
2, 436425, Control_c, 0, 64, 0
2, 436440, Note_on_c, 0, 72, 86
2, 436444, Note_on_c, 0, 57, 51
2, 436471, Control_c, 0, 64, 127
2, 436480, Note_on_c, 0, 59, 66
2, 436483, Note_on_c, 0, 74, 60
2, 436492, Note_off_c, 0, 72, 64
2, 436497, Note_off_c, 0, 57, 64
2, 436519, Note_on_c, 0, 76, 77
2, 436520, Note_on_c, 0, 60, 65
2, 436539, Note_off_c, 0, 59, 64
2, 436557, Note_on_c, 0, 57, 75
2, 436557, Note_on_c, 0, 72, 84
2, 436574, Note_off_c, 0, 74, 64
2, 436579, Note_off_c, 0, 76, 64
2, 436581, Note_off_c, 0, 60, 64
2, 436581, Control_c, 0, 64, 0
2, 436588, Note_off_c, 0, 57, 64
2, 436593, Note_on_c, 0, 53, 84
2, 436602, Note_on_c, 0, 69, 84
2, 436613, Note_off_c, 0, 72, 64
2, 436635, Control_c, 0, 64, 127
2, 436692, Note_off_c, 0, 53, 64
2, 436696, Note_on_c, 0, 65, 84
2, 436696, Note_on_c, 0, 81, 71
2, 436730, Note_off_c, 0, 69, 64
2, 436738, Note_off_c, 0, 65, 64
2, 436752, Note_off_c, 0, 81, 64
2, 436762, Control_c, 0, 64, 0
2, 436776, Note_on_c, 0, 55, 77
2, 436779, Note_on_c, 0, 72, 92
2, 436782, Note_on_c, 0, 64, 86
2, 436824, Control_c, 0, 64, 127
2, 436936, Note_on_c, 0, 62, 71
2, 436937, Control_c, 0, 64, 0
2, 436948, Note_on_c, 0, 71, 76
2, 436957, Note_off_c, 0, 64, 64
2, 436960, Note_off_c, 0, 72, 64
2, 436965, Note_off_c, 0, 55, 64
2, 436973, Control_c, 0, 64, 127
2, 436979, Note_off_c, 0, 62, 64
2, 437016, Note_off_c, 0, 71, 64
2, 437025, Note_on_c, 0, 64, 86
2, 437033, Note_on_c, 0, 79, 76
2, 437070, Note_on_c, 0, 65, 81
2, 437089, Note_off_c, 0, 64, 64
2, 437108, Note_on_c, 0, 67, 74
2, 437112, Control_c, 0, 64, 0
2, 437116, Note_off_c, 0, 65, 64
2, 437122, Note_on_c, 0, 61, 97
2, 437125, Note_on_c, 0, 70, 88
2, 437126, Note_off_c, 0, 79, 64
2, 437167, Control_c, 0, 64, 127
2, 437258, Note_off_c, 0, 61, 64
2, 437277, Control_c, 0, 64, 0
2, 437291, Note_on_c, 0, 62, 74
2, 437292, Note_on_c, 0, 65, 70
2, 437299, Note_on_c, 0, 69, 76
2, 437312, Note_off_c, 0, 70, 64
2, 437318, Note_off_c, 0, 67, 64
2, 437330, Note_off_c, 0, 62, 64
2, 437336, Note_off_c, 0, 65, 64
2, 437336, Control_c, 0, 64, 127
2, 437379, Note_on_c, 0, 77, 78
2, 437395, Note_off_c, 0, 69, 64
2, 437439, Note_off_c, 0, 77, 64
2, 437458, Control_c, 0, 64, 0
2, 437464, Note_on_c, 0, 68, 90
2, 437469, Note_on_c, 0, 59, 71
2, 437472, Note_on_c, 0, 65, 71
2, 437513, Control_c, 0, 64, 127
2, 437562, Note_off_c, 0, 65, 64
2, 437622, Note_off_c, 0, 59, 64
2, 437626, Control_c, 0, 64, 0
2, 437631, Note_on_c, 0, 64, 71
2, 437638, Note_on_c, 0, 60, 79
2, 437638, Note_on_c, 0, 67, 69
2, 437661, Control_c, 0, 64, 127
2, 437668, Note_off_c, 0, 60, 64
2, 437668, Note_off_c, 0, 64, 64
2, 437670, Note_off_c, 0, 68, 64
2, 437720, Note_on_c, 0, 72, 73
2, 437727, Note_off_c, 0, 67, 64
2, 437754, Note_off_c, 0, 72, 64
2, 437788, Control_c, 0, 64, 0
2, 437802, Note_on_c, 0, 62, 84
2, 437804, Note_on_c, 0, 53, 56
2, 437821, Control_c, 0, 64, 127
2, 437842, Note_off_c, 0, 53, 64
2, 437879, Note_on_c, 0, 69, 74
2, 437879, Note_on_c, 0, 65, 71
2, 437894, Note_off_c, 0, 62, 64
2, 437916, Note_off_c, 0, 65, 64
2, 437921, Note_off_c, 0, 69, 64
2, 437949, Control_c, 0, 64, 0
2, 437959, Note_on_c, 0, 67, 79
2, 437963, Note_on_c, 0, 55, 70
2, 437965, Note_on_c, 0, 64, 84
2, 437971, Note_on_c, 0, 43, 54
2, 437979, Control_c, 0, 64, 127
2, 437988, Note_off_c, 0, 55, 64
2, 437999, Note_off_c, 0, 43, 64
2, 438024, Note_off_c, 0, 67, 64
2, 438030, Note_off_c, 0, 64, 64
2, 438040, Note_on_c, 0, 59, 75
2, 438078, Control_c, 0, 64, 0
2, 438130, Note_off_c, 0, 59, 64
2, 438138, Note_on_c, 0, 60, 69
2, 438221, Note_on_c, 0, 36, 82
2, 438228, Control_c, 0, 64, 127
2, 438311, Note_on_c, 0, 48, 78
2, 438337, Note_off_c, 0, 36, 64
2, 438361, Note_off_c, 0, 48, 64
2, 438377, Control_c, 0, 64, 0
2, 438386, Note_on_c, 0, 59, 68
2, 438394, Note_off_c, 0, 60, 64
2, 438394, Note_on_c, 0, 65, 57
2, 438439, Note_off_c, 0, 65, 64
2, 438477, Note_on_c, 0, 64, 71
2, 438478, Note_off_c, 0, 59, 64
2, 438492, Note_on_c, 0, 60, 34
2, 438521, Note_off_c, 0, 60, 64
2, 438526, Control_c, 0, 64, 127
2, 438536, Note_off_c, 0, 64, 64
2, 438552, Note_on_c, 0, 36, 78
2, 438637, Note_on_c, 0, 48, 84
2, 438733, Note_on_c, 0, 69, 78
2, 438739, Note_on_c, 0, 65, 72
2, 438752, Control_c, 0, 64, 0
2, 438758, Note_off_c, 0, 36, 64
2, 438787, Note_off_c, 0, 48, 64
2, 438808, Note_off_c, 0, 69, 64
2, 438825, Note_off_c, 0, 65, 64
2, 438825, Note_on_c, 0, 67, 73
2, 438825, Note_on_c, 0, 64, 71
2, 438872, Note_off_c, 0, 64, 64
2, 438880, Control_c, 0, 64, 127
2, 438889, Note_off_c, 0, 67, 64
2, 438910, Note_on_c, 0, 36, 87
2, 439005, Note_on_c, 0, 48, 78
2, 439073, Note_off_c, 0, 36, 64
2, 439095, Note_on_c, 0, 71, 55
2, 439102, Note_on_c, 0, 77, 54
2, 439108, Control_c, 0, 64, 0
2, 439121, Note_off_c, 0, 48, 64
2, 439176, Note_off_c, 0, 77, 64
2, 439180, Note_on_c, 0, 76, 75
2, 439183, Note_on_c, 0, 72, 66
2, 439187, Note_off_c, 0, 71, 64
2, 439235, Control_c, 0, 64, 127
2, 439252, Note_off_c, 0, 72, 64
2, 439257, Note_on_c, 0, 36, 67
2, 439263, Note_off_c, 0, 76, 64
2, 439339, Note_on_c, 0, 48, 59
2, 439433, Note_on_c, 0, 77, 65
2, 439443, Note_on_c, 0, 83, 37
2, 439498, Note_off_c, 0, 83, 64
2, 439498, Note_off_c, 0, 77, 64
2, 439506, Note_off_c, 0, 36, 64
2, 439518, Control_c, 0, 64, 0
2, 439527, Note_on_c, 0, 84, 71
2, 439535, Note_on_c, 0, 76, 69
2, 439551, Note_off_c, 0, 48, 64
2, 439572, Control_c, 0, 64, 127
2, 439604, Note_off_c, 0, 84, 64
2, 439619, Note_off_c, 0, 76, 64
2, 439844, Control_c, 0, 64, 0
2, 439868, Note_on_c, 0, 72, 74
2, 439925, Note_off_c, 0, 72, 64
2, 439952, Note_on_c, 0, 57, 76
2, 439955, Note_on_c, 0, 53, 75
2, 439958, Note_on_c, 0, 65, 81
2, 439992, Note_off_c, 0, 53, 64
2, 439997, Note_off_c, 0, 57, 64
2, 440006, Note_off_c, 0, 65, 64
2, 440029, Note_on_c, 0, 69, 81
2, 440071, Note_off_c, 0, 69, 64
2, 440112, Note_on_c, 0, 62, 81
2, 440116, Note_on_c, 0, 58, 86
2, 440120, Note_on_c, 0, 46, 81
2, 440144, Note_off_c, 0, 46, 64
2, 440152, Note_off_c, 0, 62, 64
2, 440154, Note_off_c, 0, 58, 64
2, 440203, Note_on_c, 0, 74, 77
2, 440254, Note_off_c, 0, 74, 64
2, 440293, Note_on_c, 0, 48, 68
2, 440298, Note_on_c, 0, 57, 73
2, 440299, Note_on_c, 0, 65, 85
2, 440310, Control_c, 0, 64, 127
2, 440466, Note_on_c, 0, 55, 75
2, 440468, Note_on_c, 0, 64, 76
2, 440475, Note_off_c, 0, 65, 64
2, 440483, Note_off_c, 0, 57, 64
2, 440488, Note_off_c, 0, 48, 64
2, 440499, Note_off_c, 0, 55, 64
2, 440500, Control_c, 0, 64, 0
2, 440526, Note_off_c, 0, 64, 64
2, 440548, Note_on_c, 0, 70, 88
2, 440593, Note_off_c, 0, 70, 64
2, 440630, Note_on_c, 0, 67, 85
2, 440692, Note_off_c, 0, 67, 64
2, 440715, Note_on_c, 0, 76, 71
2, 440752, Note_off_c, 0, 76, 64
2, 440797, Note_on_c, 0, 60, 78
2, 440798, Note_on_c, 0, 70, 97
2, 440801, Note_on_c, 0, 64, 78
2, 440838, Note_off_c, 0, 60, 64
2, 440844, Note_off_c, 0, 64, 64
2, 440854, Note_off_c, 0, 70, 64
2, 440873, Note_on_c, 0, 79, 79
2, 440929, Note_off_c, 0, 79, 64
2, 440960, Note_on_c, 0, 70, 90
2, 440965, Note_on_c, 0, 65, 81
2, 440993, Control_c, 0, 64, 127
2, 441058, Note_on_c, 0, 53, 88
2, 441087, Note_off_c, 0, 65, 64
2, 441099, Note_off_c, 0, 53, 64
2, 441132, Control_c, 0, 64, 0
2, 441140, Note_off_c, 0, 70, 64
2, 441140, Note_on_c, 0, 69, 76
2, 441200, Note_off_c, 0, 69, 64
2, 441222, Note_on_c, 0, 72, 76
2, 441267, Note_off_c, 0, 72, 64
2, 441304, Note_on_c, 0, 63, 72
2, 441350, Note_off_c, 0, 63, 64
2, 441374, Note_on_c, 0, 75, 65
2, 441412, Note_off_c, 0, 75, 64
2, 441464, Note_on_c, 0, 65, 97
2, 441470, Note_on_c, 0, 57, 73
2, 441473, Note_on_c, 0, 53, 67
2, 441509, Note_off_c, 0, 65, 64
2, 441515, Note_off_c, 0, 53, 64
2, 441546, Note_on_c, 0, 72, 86
2, 441566, Note_off_c, 0, 57, 64
2, 441584, Note_off_c, 0, 72, 64
2, 441629, Note_on_c, 0, 73, 85
2, 441630, Note_on_c, 0, 58, 102
2, 441660, Control_c, 0, 64, 127
2, 441715, Note_on_c, 0, 46, 96
2, 441743, Note_off_c, 0, 73, 64
2, 441756, Note_off_c, 0, 58, 64
2, 441760, Note_off_c, 0, 46, 64
2, 441798, Note_on_c, 0, 74, 84
2, 441851, Note_off_c, 0, 74, 64
2, 441867, Control_c, 0, 64, 0
2, 441887, Note_on_c, 0, 67, 90
2, 441893, Note_on_c, 0, 62, 92
2, 441896, Note_on_c, 0, 58, 94
2, 441933, Note_off_c, 0, 58, 64
2, 441940, Note_off_c, 0, 62, 64
2, 441941, Note_off_c, 0, 67, 64
2, 441969, Note_on_c, 0, 69, 84
2, 441973, Note_on_c, 0, 57, 81
2, 441974, Note_on_c, 0, 60, 86
2, 442021, Note_off_c, 0, 57, 64
2, 442037, Note_off_c, 0, 60, 64
2, 442047, Note_on_c, 0, 70, 88
2, 442052, Note_on_c, 0, 58, 84
2, 442056, Note_off_c, 0, 69, 64
2, 442056, Note_on_c, 0, 55, 86
2, 442091, Note_off_c, 0, 58, 64
2, 442105, Note_off_c, 0, 55, 64
2, 442117, Note_off_c, 0, 70, 64
2, 442124, Note_on_c, 0, 60, 92
2, 442129, Note_on_c, 0, 64, 80
2, 442212, Note_off_c, 0, 60, 64
2, 442213, Note_on_c, 0, 48, 81
2, 442217, Note_on_c, 0, 67, 79
2, 442248, Note_off_c, 0, 64, 64
2, 442252, Note_off_c, 0, 48, 64
2, 442290, Note_off_c, 0, 67, 64
2, 442305, Note_on_c, 0, 65, 88
2, 442308, Note_on_c, 0, 53, 94
2, 442325, Control_c, 0, 64, 127
2, 442354, Note_off_c, 0, 65, 64
2, 442385, Note_on_c, 0, 41, 90
2, 442426, Note_off_c, 0, 53, 64
2, 442431, Note_off_c, 0, 41, 64
2, 442537, Control_c, 0, 64, 0
2, 442544, Note_on_c, 0, 84, 75
2, 442607, Note_off_c, 0, 84, 64
2, 442622, Note_on_c, 0, 77, 68
2, 442680, Note_off_c, 0, 77, 64
2, 442711, Note_on_c, 0, 81, 73
2, 442757, Note_off_c, 0, 81, 64
2, 442782, Note_on_c, 0, 72, 74
2, 442822, Note_off_c, 0, 72, 64
2, 442861, Note_on_c, 0, 69, 79
2, 442863, Note_on_c, 0, 72, 86
2, 442867, Note_on_c, 0, 77, 84
2, 442905, Note_off_c, 0, 69, 64
2, 442907, Note_off_c, 0, 77, 64
2, 442909, Note_off_c, 0, 72, 64
2, 442944, Note_on_c, 0, 67, 77
2, 442945, Note_on_c, 0, 70, 90
2, 442947, Note_on_c, 0, 76, 90
2, 442998, Note_off_c, 0, 76, 64
2, 443020, Note_on_c, 0, 65, 84
2, 443020, Note_on_c, 0, 69, 88
2, 443023, Note_on_c, 0, 77, 84
2, 443024, Note_off_c, 0, 67, 64
2, 443043, Note_off_c, 0, 70, 64
2, 443074, Note_off_c, 0, 77, 64
2, 443104, Note_off_c, 0, 69, 64
2, 443108, Note_on_c, 0, 64, 86
2, 443108, Note_on_c, 0, 67, 88
2, 443108, Note_on_c, 0, 79, 86
2, 443125, Note_off_c, 0, 65, 64
2, 443169, Note_off_c, 0, 64, 64
2, 443170, Note_off_c, 0, 67, 64
2, 443188, Note_on_c, 0, 84, 81
2, 443209, Note_off_c, 0, 79, 64
2, 443253, Note_off_c, 0, 84, 64
2, 443267, Note_on_c, 0, 79, 84
2, 443315, Note_off_c, 0, 79, 64
2, 443340, Note_on_c, 0, 82, 73
2, 443389, Note_off_c, 0, 82, 64
2, 443422, Note_on_c, 0, 72, 92
2, 443465, Note_off_c, 0, 72, 64
2, 443500, Note_on_c, 0, 72, 90
2, 443505, Note_on_c, 0, 70, 88
2, 443506, Note_on_c, 0, 76, 86
2, 443541, Note_off_c, 0, 72, 64
2, 443544, Note_off_c, 0, 76, 64
2, 443548, Note_off_c, 0, 70, 64
2, 443576, Note_on_c, 0, 72, 84
2, 443576, Note_on_c, 0, 69, 84
2, 443581, Note_on_c, 0, 77, 84
2, 443633, Note_off_c, 0, 77, 64
2, 443660, Note_on_c, 0, 67, 74
2, 443660, Note_on_c, 0, 70, 86
2, 443663, Note_on_c, 0, 79, 88
2, 443667, Note_off_c, 0, 72, 64
2, 443674, Note_off_c, 0, 69, 64
2, 443708, Note_off_c, 0, 79, 64
2, 443744, Note_on_c, 0, 65, 61
2, 443745, Note_on_c, 0, 81, 86
2, 443746, Note_on_c, 0, 69, 79
2, 443757, Note_off_c, 0, 70, 64
2, 443757, Note_off_c, 0, 67, 64
2, 443784, Note_off_c, 0, 69, 64
2, 443798, Note_off_c, 0, 81, 64
2, 443798, Note_off_c, 0, 65, 64
2, 443824, Note_on_c, 0, 84, 86
2, 443881, Note_off_c, 0, 84, 64
2, 443916, Note_on_c, 0, 77, 85
2, 443964, Note_off_c, 0, 77, 64
2, 443980, Note_on_c, 0, 69, 81
2, 443980, Note_on_c, 0, 65, 76
2, 443980, Note_on_c, 0, 84, 84
2, 444005, Control_c, 0, 64, 127
2, 444043, Note_off_c, 0, 84, 64
2, 444052, Note_off_c, 0, 69, 64
2, 444052, Note_on_c, 0, 70, 88
2, 444052, Note_on_c, 0, 67, 81
2, 444058, Note_on_c, 0, 77, 84
2, 444070, Note_off_c, 0, 65, 64
2, 444121, Note_off_c, 0, 77, 64
2, 444132, Note_on_c, 0, 75, 97
2, 444136, Note_on_c, 0, 69, 65
2, 444136, Note_on_c, 0, 72, 92
2, 444157, Note_off_c, 0, 70, 64
2, 444159, Note_off_c, 0, 67, 64
2, 444168, Note_off_c, 0, 75, 64
2, 444212, Note_on_c, 0, 70, 98
2, 444212, Note_on_c, 0, 75, 97
2, 444216, Control_c, 0, 64, 0
2, 444227, Note_off_c, 0, 72, 64
2, 444227, Note_off_c, 0, 69, 64
2, 444254, Note_off_c, 0, 70, 64
2, 444257, Control_c, 0, 64, 127
2, 444273, Note_off_c, 0, 75, 64
2, 444306, Note_on_c, 0, 73, 88
2, 444367, Note_off_c, 0, 73, 64
2, 444383, Note_on_c, 0, 74, 80
2, 444421, Note_off_c, 0, 74, 64
2, 444456, Note_on_c, 0, 66, 92
2, 444457, Note_on_c, 0, 69, 94
2, 444457, Control_c, 0, 64, 0
2, 444521, Note_off_c, 0, 66, 64
2, 444538, Note_on_c, 0, 70, 75
2, 444540, Note_on_c, 0, 67, 79
2, 444577, Note_off_c, 0, 69, 64
2, 444592, Note_off_c, 0, 70, 64
2, 444616, Note_on_c, 0, 69, 78
2, 444617, Note_off_c, 0, 67, 64
2, 444618, Note_on_c, 0, 72, 84
2, 444662, Note_off_c, 0, 69, 64
2, 444663, Note_off_c, 0, 72, 64
2, 444698, Note_on_c, 0, 74, 84
2, 444702, Note_on_c, 0, 70, 84
2, 444705, Control_c, 0, 64, 127
2, 444733, Note_off_c, 0, 70, 64
2, 444758, Note_off_c, 0, 74, 64
2, 444781, Note_on_c, 0, 70, 90
2, 444785, Note_on_c, 0, 67, 84
2, 444791, Note_on_c, 0, 58, 84
2, 444814, Control_c, 0, 64, 0
2, 444821, Note_off_c, 0, 67, 64
2, 444823, Note_off_c, 0, 70, 64
2, 444844, Note_off_c, 0, 58, 64
2, 444854, Note_on_c, 0, 60, 86
2, 444859, Control_c, 0, 64, 127
2, 444865, Note_on_c, 0, 65, 81
2, 444866, Note_on_c, 0, 69, 88
2, 444883, Control_c, 0, 64, 0
2, 444922, Control_c, 0, 64, 127
2, 444942, Note_on_c, 0, 48, 77
2, 444956, Note_off_c, 0, 65, 64
2, 444998, Note_off_c, 0, 60, 64
2, 445001, Note_off_c, 0, 48, 64
2, 445001, Control_c, 0, 64, 0
2, 445017, Note_on_c, 0, 67, 72
2, 445019, Note_on_c, 0, 64, 76
2, 445031, Note_off_c, 0, 69, 64
2, 445045, Note_off_c, 0, 64, 64
2, 445048, Note_off_c, 0, 67, 64
2, 445101, Note_on_c, 0, 76, 92
2, 445175, Note_on_c, 0, 79, 78
2, 445183, Note_off_c, 0, 76, 64
2, 445259, Note_off_c, 0, 79, 64
2, 445260, Note_on_c, 0, 72, 77
2, 445266, Note_on_c, 0, 64, 76
2, 445326, Note_off_c, 0, 72, 64
2, 445328, Note_off_c, 0, 64, 64
2, 445336, Note_on_c, 0, 62, 56
2, 445341, Note_on_c, 0, 71, 72
2, 445405, Note_off_c, 0, 71, 64
2, 445418, Note_off_c, 0, 62, 64
2, 445420, Note_on_c, 0, 55, 67
2, 445421, Note_on_c, 0, 77, 73
2, 445425, Note_on_c, 0, 74, 78
2, 445464, Note_off_c, 0, 74, 64
2, 445471, Note_off_c, 0, 77, 64
2, 445487, Note_off_c, 0, 55, 64
2, 445503, Note_on_c, 0, 77, 72
2, 445508, Note_on_c, 0, 60, 80
2, 445508, Note_on_c, 0, 74, 67
2, 445552, Note_off_c, 0, 74, 64
2, 445565, Note_off_c, 0, 77, 64
2, 445578, Note_on_c, 0, 76, 75
2, 445578, Note_on_c, 0, 72, 71
2, 445585, Note_on_c, 0, 54, 84
2, 445638, Note_off_c, 0, 72, 64
2, 445644, Note_off_c, 0, 76, 64
2, 445646, Note_off_c, 0, 60, 64
2, 445653, Note_off_c, 0, 54, 64
2, 445658, Note_on_c, 0, 74, 81
2, 445660, Note_on_c, 0, 71, 72
2, 445664, Note_on_c, 0, 55, 74
2, 445693, Note_off_c, 0, 74, 64
2, 445698, Note_off_c, 0, 71, 64
2, 445708, Note_off_c, 0, 55, 64
2, 445745, Note_on_c, 0, 75, 71
2, 445811, Note_off_c, 0, 75, 64
2, 445818, Note_on_c, 0, 79, 57
2, 445894, Note_on_c, 0, 72, 50
2, 445896, Note_off_c, 0, 79, 64
2, 445901, Note_on_c, 0, 63, 52
2, 445972, Note_on_c, 0, 71, 50
2, 445978, Note_off_c, 0, 63, 64
2, 445978, Note_on_c, 0, 62, 50
2, 445984, Note_off_c, 0, 72, 64
2, 446048, Note_on_c, 0, 74, 54
2, 446049, Note_on_c, 0, 77, 54
2, 446056, Note_off_c, 0, 62, 64
2, 446056, Note_on_c, 0, 55, 48
2, 446087, Note_off_c, 0, 74, 64
2, 446087, Note_off_c, 0, 71, 64
2, 446096, Note_off_c, 0, 77, 64
2, 446128, Note_off_c, 0, 55, 64
2, 446128, Note_on_c, 0, 74, 54
2, 446132, Note_on_c, 0, 60, 51
2, 446136, Note_on_c, 0, 77, 48
2, 446180, Note_off_c, 0, 77, 64
2, 446203, Note_on_c, 0, 75, 53
2, 446206, Note_on_c, 0, 72, 49
2, 446208, Note_on_c, 0, 54, 58
2, 446228, Note_off_c, 0, 74, 64
2, 446258, Note_off_c, 0, 75, 64
2, 446260, Note_off_c, 0, 72, 64
2, 446280, Note_off_c, 0, 54, 64
2, 446288, Note_on_c, 0, 74, 58
2, 446290, Note_off_c, 0, 60, 64
2, 446293, Note_on_c, 0, 71, 48
2, 446296, Note_on_c, 0, 55, 49
2, 446330, Note_off_c, 0, 74, 64
2, 446333, Note_off_c, 0, 71, 64
2, 446342, Note_off_c, 0, 55, 64
2, 446374, Note_on_c, 0, 76, 86
2, 446447, Note_off_c, 0, 76, 64
2, 446448, Note_on_c, 0, 79, 94
2, 446524, Note_on_c, 0, 72, 86
2, 446531, Note_on_c, 0, 60, 76
2, 446531, Note_on_c, 0, 64, 71
2, 446540, Note_off_c, 0, 79, 64
2, 446592, Note_off_c, 0, 64, 64
2, 446597, Note_off_c, 0, 72, 64
2, 446604, Note_on_c, 0, 71, 84
2, 446612, Note_on_c, 0, 65, 81
2, 446613, Note_on_c, 0, 62, 77
2, 446618, Note_off_c, 0, 60, 64
2, 446665, Note_off_c, 0, 71, 64
2, 446681, Note_off_c, 0, 65, 64
2, 446684, Note_on_c, 0, 64, 72
2, 446684, Note_on_c, 0, 67, 86
2, 446684, Note_on_c, 0, 70, 96
2, 446689, Note_off_c, 0, 62, 64
2, 446724, Note_off_c, 0, 70, 64
2, 446750, Note_off_c, 0, 64, 64
2, 446761, Note_off_c, 0, 67, 64
2, 446769, Note_on_c, 0, 70, 94
2, 446773, Note_on_c, 0, 65, 79
2, 446807, Note_on_c, 0, 69, 71
2, 446824, Note_off_c, 0, 70, 64
2, 446853, Note_on_c, 0, 68, 88
2, 446856, Note_off_c, 0, 69, 64
2, 446880, Note_off_c, 0, 65, 64
2, 446892, Note_on_c, 0, 69, 68
2, 446893, Note_off_c, 0, 68, 64
2, 446915, Note_off_c, 0, 69, 64
2, 446924, Note_on_c, 0, 71, 73
2, 446958, Note_on_c, 0, 69, 80
2, 446975, Note_off_c, 0, 71, 64
2, 446992, Note_on_c, 0, 64, 80
2, 446994, Note_off_c, 0, 69, 64
2, 446999, Note_on_c, 0, 73, 88
2, 447035, Note_off_c, 0, 73, 64
2, 447040, Note_on_c, 0, 69, 79
2, 447041, Note_off_c, 0, 64, 64
2, 447089, Note_on_c, 0, 74, 88
2, 447096, Note_off_c, 0, 69, 64
2, 447096, Note_on_c, 0, 65, 86
2, 447127, Note_off_c, 0, 74, 64
2, 447142, Note_off_c, 0, 65, 64
2, 447142, Note_on_c, 0, 69, 71
2, 447171, Note_on_c, 0, 76, 88
2, 447173, Note_on_c, 0, 61, 96
2, 447186, Note_off_c, 0, 69, 64
2, 447210, Note_off_c, 0, 76, 64
2, 447211, Note_off_c, 0, 61, 64
2, 447225, Note_on_c, 0, 69, 79
2, 447255, Note_on_c, 0, 77, 84
2, 447263, Note_on_c, 0, 62, 84
2, 447276, Note_off_c, 0, 69, 64
2, 447292, Note_off_c, 0, 77, 64
2, 447293, Note_off_c, 0, 62, 64
2, 447304, Note_on_c, 0, 69, 63
2, 447334, Note_off_c, 0, 69, 64
2, 447334, Note_on_c, 0, 79, 86
2, 447344, Note_on_c, 0, 64, 86
2, 447383, Note_off_c, 0, 64, 64
2, 447388, Note_on_c, 0, 69, 86
2, 447390, Note_off_c, 0, 79, 64
2, 447413, Note_off_c, 0, 69, 64
2, 447422, Note_on_c, 0, 81, 88
2, 447423, Note_on_c, 0, 65, 94
2, 447587, Note_on_c, 0, 79, 71
2, 447591, Note_off_c, 0, 81, 64
2, 447627, Note_on_c, 0, 77, 79
2, 447648, Note_off_c, 0, 79, 64
2, 447662, Note_on_c, 0, 76, 84
2, 447670, Note_off_c, 0, 65, 64
2, 447679, Note_off_c, 0, 77, 64
2, 447703, Note_off_c, 0, 76, 64
2, 447708, Note_on_c, 0, 74, 88
2, 447745, Note_off_c, 0, 74, 64
2, 447753, Note_on_c, 0, 73, 88
2, 447793, Note_off_c, 0, 73, 64
2, 447800, Note_on_c, 0, 74, 84
2, 447836, Note_off_c, 0, 74, 64
2, 447838, Note_on_c, 0, 76, 77
2, 447880, Note_off_c, 0, 76, 64
2, 447887, Note_on_c, 0, 74, 78
2, 447920, Note_on_c, 0, 79, 80
2, 447929, Note_off_c, 0, 74, 64
2, 447961, Note_on_c, 0, 77, 76
2, 447990, Note_off_c, 0, 79, 64
2, 447996, Note_on_c, 0, 76, 84
2, 448024, Note_off_c, 0, 77, 64
2, 448034, Note_on_c, 0, 74, 88
2, 448056, Note_off_c, 0, 76, 64
2, 448081, Note_on_c, 0, 72, 86
2, 448090, Note_off_c, 0, 74, 64
2, 448148, Control_c, 0, 64, 127
2, 448156, Note_on_c, 0, 69, 57
2, 448161, Note_on_c, 0, 66, 58
2, 448196, Note_off_c, 0, 69, 64
2, 448208, Note_off_c, 0, 66, 64
2, 448213, Note_off_c, 0, 72, 64
2, 448244, Note_on_c, 0, 67, 68
2, 448325, Note_on_c, 0, 55, 59
2, 448328, Note_off_c, 0, 67, 64
2, 448331, Note_on_c, 0, 71, 53
2, 448334, Note_on_c, 0, 76, 64
2, 448372, Note_off_c, 0, 55, 64
2, 448376, Note_on_c, 0, 74, 54
2, 448388, Note_off_c, 0, 71, 64
2, 448399, Note_off_c, 0, 76, 64
2, 448406, Control_c, 0, 64, 0
2, 448421, Note_on_c, 0, 60, 70
2, 448427, Note_on_c, 0, 72, 57
2, 448449, Note_off_c, 0, 74, 64
2, 448459, Control_c, 0, 64, 127
2, 448512, Note_on_c, 0, 48, 70
2, 448524, Note_off_c, 0, 72, 64
2, 448555, Note_off_c, 0, 60, 64
2, 448565, Note_off_c, 0, 48, 64
2, 448662, Note_on_c, 0, 74, 51
2, 448702, Note_on_c, 0, 71, 72
2, 448714, Note_off_c, 0, 74, 64
2, 448752, Note_off_c, 0, 71, 64
2, 448752, Note_on_c, 0, 62, 72
2, 448752, Note_on_c, 0, 65, 77
2, 448752, Note_on_c, 0, 74, 77
2, 448756, Note_on_c, 0, 59, 76
2, 448764, Control_c, 0, 64, 0
2, 448793, Note_on_c, 0, 71, 85
2, 448806, Control_c, 0, 64, 127
2, 448812, Note_off_c, 0, 74, 64
2, 448836, Note_on_c, 0, 77, 74
2, 448857, Note_off_c, 0, 71, 64
2, 448884, Note_on_c, 0, 74, 86
2, 448893, Note_off_c, 0, 77, 64
2, 448934, Note_on_c, 0, 71, 78
2, 448951, Note_off_c, 0, 74, 64
2, 448963, Note_off_c, 0, 62, 64
2, 448967, Note_off_c, 0, 59, 64
2, 448979, Note_on_c, 0, 67, 74
2, 448997, Note_off_c, 0, 71, 64
2, 448999, Note_off_c, 0, 65, 64
2, 449026, Note_on_c, 0, 74, 80
2, 449035, Note_off_c, 0, 67, 64
2, 449069, Note_on_c, 0, 71, 80
2, 449084, Note_off_c, 0, 74, 64
2, 449108, Note_on_c, 0, 62, 79
2, 449111, Note_on_c, 0, 59, 79
2, 449112, Note_on_c, 0, 65, 86
2, 449116, Note_on_c, 0, 74, 88
2, 449126, Note_off_c, 0, 71, 64
2, 449131, Control_c, 0, 64, 0
2, 449151, Note_on_c, 0, 71, 71
2, 449180, Control_c, 0, 64, 127
2, 449184, Note_off_c, 0, 74, 64
2, 449209, Note_on_c, 0, 77, 78
2, 449214, Note_off_c, 0, 71, 64
2, 449258, Note_on_c, 0, 74, 85
2, 449282, Note_off_c, 0, 77, 64
2, 449296, Note_on_c, 0, 71, 69
2, 449318, Note_off_c, 0, 74, 64
2, 449323, Note_off_c, 0, 59, 64
2, 449326, Note_off_c, 0, 62, 64
2, 449329, Note_on_c, 0, 67, 77
2, 449344, Note_off_c, 0, 65, 64
2, 449357, Note_off_c, 0, 71, 64
2, 449382, Note_on_c, 0, 74, 81
2, 449394, Note_off_c, 0, 67, 64
2, 449430, Note_on_c, 0, 71, 79
2, 449447, Note_off_c, 0, 74, 64
2, 449462, Note_on_c, 0, 65, 84
2, 449462, Note_on_c, 0, 62, 78
2, 449467, Note_on_c, 0, 59, 78
2, 449477, Note_on_c, 0, 74, 71
2, 449482, Control_c, 0, 64, 0
2, 449491, Note_off_c, 0, 71, 64
2, 449511, Control_c, 0, 64, 127
2, 449512, Note_on_c, 0, 71, 79
2, 449516, Note_off_c, 0, 74, 64
2, 449553, Note_on_c, 0, 77, 78
2, 449593, Note_on_c, 0, 74, 84
2, 449596, Note_off_c, 0, 71, 64
2, 449614, Note_off_c, 0, 77, 64
2, 449629, Note_on_c, 0, 71, 77
2, 449638, Note_off_c, 0, 65, 64
2, 449645, Note_off_c, 0, 62, 64
2, 449651, Note_off_c, 0, 59, 64
2, 449659, Note_off_c, 0, 74, 64
2, 449682, Note_on_c, 0, 67, 78
2, 449684, Note_off_c, 0, 71, 64
2, 449728, Note_on_c, 0, 74, 79
2, 449736, Note_off_c, 0, 67, 64
2, 449772, Note_on_c, 0, 71, 52
2, 449789, Note_off_c, 0, 74, 64
2, 449813, Note_on_c, 0, 67, 78
2, 449833, Note_off_c, 0, 71, 64
2, 449855, Note_on_c, 0, 65, 84
2, 449864, Note_off_c, 0, 67, 64
2, 449898, Note_on_c, 0, 71, 71
2, 449910, Note_off_c, 0, 65, 64
2, 449931, Note_on_c, 0, 67, 76
2, 449964, Note_off_c, 0, 71, 64
2, 449977, Note_on_c, 0, 65, 68
2, 449999, Note_off_c, 0, 67, 64
2, 450014, Note_on_c, 0, 62, 78
2, 450022, Note_off_c, 0, 65, 64
2, 450073, Note_off_c, 0, 62, 64
2, 450079, Note_on_c, 0, 65, 72
2, 450116, Note_on_c, 0, 62, 88
2, 450144, Note_off_c, 0, 65, 64
2, 450169, Note_on_c, 0, 59, 92
2, 450175, Control_c, 0, 64, 0
2, 450190, Note_off_c, 0, 62, 64
2, 450215, Control_c, 0, 64, 127
2, 450240, Note_off_c, 0, 59, 64
2, 450506, Note_on_c, 0, 79, 54
2, 450534, Control_c, 0, 64, 0
2, 450545, Note_off_c, 0, 79, 64
2, 450594, Note_on_c, 0, 57, 61
2, 450597, Note_on_c, 0, 72, 67
2, 450632, Control_c, 0, 64, 127
2, 450641, Note_off_c, 0, 72, 64
2, 450662, Note_off_c, 0, 57, 64
2, 450682, Note_on_c, 0, 60, 56
2, 450682, Note_on_c, 0, 76, 67
2, 450721, Note_off_c, 0, 76, 64
2, 450731, Note_off_c, 0, 60, 64
2, 450742, Control_c, 0, 64, 0
2, 450764, Note_on_c, 0, 69, 63
2, 450769, Note_on_c, 0, 53, 68
2, 450785, Control_c, 0, 64, 127
2, 450823, Note_off_c, 0, 53, 64
2, 450848, Note_on_c, 0, 81, 63
2, 450860, Note_on_c, 0, 65, 56
2, 450869, Note_off_c, 0, 69, 64
2, 450900, Note_off_c, 0, 65, 64
2, 450906, Note_off_c, 0, 81, 64
2, 450940, Note_on_c, 0, 72, 71
2, 450945, Note_on_c, 0, 55, 63
2, 450952, Note_on_c, 0, 64, 67
2, 450953, Control_c, 0, 64, 0
2, 451001, Control_c, 0, 64, 127
2, 451110, Control_c, 0, 64, 0
2, 451117, Note_on_c, 0, 62, 57
2, 451120, Note_on_c, 0, 71, 57
2, 451140, Note_off_c, 0, 72, 64
2, 451142, Note_off_c, 0, 64, 64
2, 451149, Note_off_c, 0, 55, 64
2, 451159, Note_off_c, 0, 62, 64
2, 451177, Note_off_c, 0, 71, 64
2, 451201, Note_on_c, 0, 79, 63
2, 451257, Note_off_c, 0, 79, 64
2, 451285, Note_on_c, 0, 72, 68
2, 451286, Note_on_c, 0, 57, 58
2, 451292, Control_c, 0, 64, 127
2, 451350, Note_off_c, 0, 72, 64
2, 451366, Note_on_c, 0, 76, 57
2, 451370, Note_on_c, 0, 60, 55
2, 451374, Note_off_c, 0, 57, 64
2, 451425, Note_off_c, 0, 76, 64
2, 451436, Control_c, 0, 64, 0
2, 451443, Note_off_c, 0, 60, 64
2, 451451, Note_on_c, 0, 69, 63
2, 451453, Note_on_c, 0, 53, 68
2, 451470, Control_c, 0, 64, 127
2, 451521, Note_off_c, 0, 53, 64
2, 451534, Note_on_c, 0, 81, 60
2, 451538, Note_on_c, 0, 65, 61
2, 451565, Note_off_c, 0, 69, 64
2, 451582, Note_off_c, 0, 65, 64
2, 451601, Note_off_c, 0, 81, 64
2, 451625, Note_on_c, 0, 72, 64
2, 451625, Control_c, 0, 64, 0
2, 451632, Note_on_c, 0, 55, 53
2, 451638, Note_on_c, 0, 64, 67
2, 451678, Control_c, 0, 64, 127
2, 451793, Note_off_c, 0, 55, 64
2, 451802, Note_off_c, 0, 64, 64
2, 451802, Note_on_c, 0, 62, 61
2, 451805, Note_on_c, 0, 71, 56
2, 451811, Note_off_c, 0, 72, 64
2, 451847, Note_off_c, 0, 62, 64
2, 451878, Note_on_c, 0, 53, 65
2, 451885, Note_on_c, 0, 79, 60
2, 451912, Note_off_c, 0, 71, 64
2, 451919, Note_off_c, 0, 53, 64
2, 451943, Note_off_c, 0, 79, 64
2, 451973, Note_on_c, 0, 70, 75
2, 451973, Note_on_c, 0, 52, 67
2, 451976, Note_on_c, 0, 61, 71
2, 451977, Control_c, 0, 64, 0
2, 452018, Control_c, 0, 64, 127
2, 452118, Note_off_c, 0, 52, 64
2, 452120, Note_off_c, 0, 61, 64
2, 452150, Note_on_c, 0, 62, 58
2, 452155, Note_on_c, 0, 69, 56
2, 452155, Note_on_c, 0, 53, 57
2, 452162, Control_c, 0, 64, 0
2, 452178, Note_off_c, 0, 70, 64
2, 452187, Note_off_c, 0, 53, 64
2, 452196, Note_off_c, 0, 62, 64
2, 452228, Note_on_c, 0, 77, 58
2, 452233, Note_off_c, 0, 69, 64
2, 452289, Note_off_c, 0, 77, 64
2, 452307, Control_c, 0, 64, 127
2, 452313, Note_on_c, 0, 65, 58
2, 452313, Note_on_c, 0, 68, 70
2, 452317, Note_on_c, 0, 59, 56
2, 452387, Note_off_c, 0, 65, 64
2, 452470, Note_off_c, 0, 59, 64
2, 452474, Note_on_c, 0, 64, 53
2, 452480, Note_on_c, 0, 60, 58
2, 452487, Note_on_c, 0, 67, 50
2, 452508, Note_off_c, 0, 64, 64
2, 452510, Note_off_c, 0, 68, 64
2, 452511, Note_off_c, 0, 60, 64
2, 452566, Note_on_c, 0, 72, 57
2, 452587, Note_off_c, 0, 67, 64
2, 452601, Note_off_c, 0, 72, 64
2, 452616, Control_c, 0, 64, 0
2, 452637, Note_on_c, 0, 53, 56
2, 452644, Note_on_c, 0, 62, 67
2, 452661, Control_c, 0, 64, 127
2, 452698, Note_off_c, 0, 53, 64
2, 452714, Note_on_c, 0, 65, 58
2, 452720, Note_on_c, 0, 69, 59
2, 452730, Note_off_c, 0, 62, 64
2, 452759, Note_off_c, 0, 65, 64
2, 452761, Note_off_c, 0, 69, 64
2, 452779, Control_c, 0, 64, 0
2, 452799, Note_on_c, 0, 55, 56
2, 452803, Note_on_c, 0, 64, 67
2, 452806, Note_on_c, 0, 67, 65
2, 452823, Control_c, 0, 64, 127
2, 452843, Note_off_c, 0, 55, 64
2, 452872, Note_off_c, 0, 67, 64
2, 452879, Note_on_c, 0, 59, 64
2, 452881, Note_off_c, 0, 64, 64
2, 452957, Control_c, 0, 64, 0
2, 452972, Note_on_c, 0, 60, 68
2, 452975, Note_on_c, 0, 48, 54
2, 452980, Note_on_c, 0, 36, 70
2, 453000, Note_off_c, 0, 59, 64
2, 453010, Control_c, 0, 64, 127
2, 453038, Note_off_c, 0, 60, 64
2, 453045, Note_off_c, 0, 36, 64
2, 453057, Note_off_c, 0, 48, 64
2, 453178, Control_c, 0, 64, 0
2, 453243, Note_on_c, 0, 79, 66
2, 453291, Note_off_c, 0, 79, 64
2, 453324, Note_on_c, 0, 72, 77
2, 453328, Note_on_c, 0, 57, 70
2, 453341, Control_c, 0, 64, 127
2, 453409, Note_off_c, 0, 57, 64
2, 453409, Note_on_c, 0, 60, 73
2, 453412, Note_off_c, 0, 72, 64
2, 453413, Note_on_c, 0, 76, 68
2, 453464, Control_c, 0, 64, 0
2, 453483, Note_on_c, 0, 69, 71
2, 453491, Note_on_c, 0, 53, 84
2, 453494, Note_off_c, 0, 60, 64
2, 453498, Note_off_c, 0, 76, 64
2, 453519, Control_c, 0, 64, 127
2, 453549, Note_off_c, 0, 53, 64
2, 453563, Note_on_c, 0, 65, 70
2, 453569, Note_on_c, 0, 81, 76
2, 453611, Note_off_c, 0, 65, 64
2, 453618, Note_off_c, 0, 69, 64
2, 453628, Control_c, 0, 64, 0
2, 453642, Note_off_c, 0, 81, 64
2, 453644, Note_on_c, 0, 55, 71
2, 453652, Note_on_c, 0, 72, 86
2, 453658, Note_on_c, 0, 64, 84
2, 453683, Control_c, 0, 64, 127
2, 453816, Note_on_c, 0, 62, 74
2, 453820, Note_on_c, 0, 71, 70
2, 453841, Note_off_c, 0, 72, 64
2, 453842, Note_off_c, 0, 64, 64
2, 453863, Note_off_c, 0, 62, 64
2, 453864, Note_off_c, 0, 55, 64
2, 453898, Note_on_c, 0, 79, 67
2, 453930, Note_off_c, 0, 71, 64
2, 453937, Note_off_c, 0, 79, 64
2, 453985, Note_on_c, 0, 57, 81
2, 453988, Note_on_c, 0, 72, 84
2, 454027, Note_on_c, 0, 74, 78
2, 454031, Note_on_c, 0, 59, 72
2, 454046, Note_off_c, 0, 72, 64
2, 454058, Note_off_c, 0, 57, 64
2, 454066, Note_on_c, 0, 76, 74
2, 454068, Note_on_c, 0, 60, 79
2, 454090, Note_off_c, 0, 59, 64
2, 454106, Note_on_c, 0, 57, 84
2, 454106, Note_on_c, 0, 72, 79
2, 454112, Note_off_c, 0, 74, 64
2, 454121, Note_off_c, 0, 76, 64
2, 454127, Control_c, 0, 64, 0
2, 454134, Note_off_c, 0, 60, 64
2, 454142, Note_on_c, 0, 69, 84
2, 454149, Note_on_c, 0, 53, 77
2, 454157, Note_off_c, 0, 57, 64
2, 454160, Note_off_c, 0, 72, 64
2, 454172, Note_off_c, 0, 53, 64
2, 454186, Control_c, 0, 64, 127
2, 454234, Note_on_c, 0, 65, 74
2, 454236, Note_on_c, 0, 81, 67
2, 454279, Note_off_c, 0, 69, 64
2, 454283, Note_off_c, 0, 81, 64
2, 454287, Note_off_c, 0, 65, 64
2, 454307, Control_c, 0, 64, 0
2, 454315, Note_on_c, 0, 72, 92
2, 454316, Note_on_c, 0, 55, 81
2, 454326, Note_on_c, 0, 64, 86
2, 454360, Control_c, 0, 64, 127
2, 454470, Note_on_c, 0, 62, 76
2, 454474, Note_off_c, 0, 64, 64
2, 454478, Note_on_c, 0, 71, 79
2, 454489, Note_off_c, 0, 55, 64
2, 454491, Note_off_c, 0, 72, 64
2, 454517, Note_off_c, 0, 62, 64
2, 454539, Note_off_c, 0, 71, 64
2, 454566, Note_on_c, 0, 79, 76
2, 454568, Note_on_c, 0, 64, 86
2, 454610, Note_on_c, 0, 65, 79
2, 454624, Note_off_c, 0, 64, 64
2, 454640, Control_c, 0, 64, 0
2, 454654, Note_on_c, 0, 67, 84
2, 454654, Note_on_c, 0, 61, 97
2, 454657, Note_on_c, 0, 70, 92
2, 454662, Note_off_c, 0, 65, 64
2, 454671, Note_off_c, 0, 79, 64
2, 454695, Control_c, 0, 64, 127
2, 454777, Note_off_c, 0, 61, 64
2, 454815, Note_on_c, 0, 62, 74
2, 454819, Note_on_c, 0, 65, 67
2, 454824, Note_on_c, 0, 69, 74
2, 454830, Control_c, 0, 64, 0
2, 454840, Note_off_c, 0, 70, 64
2, 454852, Note_off_c, 0, 67, 64
2, 454859, Note_off_c, 0, 62, 64
2, 454860, Note_off_c, 0, 65, 64
2, 454871, Control_c, 0, 64, 127
2, 454900, Note_on_c, 0, 77, 75
2, 454928, Note_off_c, 0, 69, 64
2, 454976, Control_c, 0, 64, 0
2, 454986, Note_on_c, 0, 68, 84
2, 454990, Note_on_c, 0, 65, 66
2, 454990, Note_on_c, 0, 59, 67
2, 454999, Note_off_c, 0, 77, 64
2, 455033, Control_c, 0, 64, 127
2, 455088, Note_off_c, 0, 65, 64
2, 455140, Note_off_c, 0, 59, 64
2, 455148, Note_on_c, 0, 64, 73
2, 455151, Note_on_c, 0, 60, 76
2, 455155, Note_on_c, 0, 67, 60
2, 455178, Note_off_c, 0, 64, 64
2, 455180, Note_off_c, 0, 60, 64
2, 455189, Note_off_c, 0, 68, 64
2, 455230, Note_on_c, 0, 72, 76
2, 455242, Note_off_c, 0, 67, 64
2, 455262, Note_off_c, 0, 72, 64
2, 455299, Control_c, 0, 64, 0
2, 455306, Note_on_c, 0, 53, 54
2, 455307, Note_on_c, 0, 62, 84
2, 455338, Control_c, 0, 64, 127
2, 455345, Note_off_c, 0, 53, 64
2, 455384, Note_on_c, 0, 69, 76
2, 455389, Note_on_c, 0, 65, 77
2, 455413, Note_off_c, 0, 62, 64
2, 455427, Note_off_c, 0, 65, 64
2, 455430, Note_off_c, 0, 69, 64
2, 455446, Control_c, 0, 64, 0
2, 455466, Note_on_c, 0, 64, 78
2, 455467, Note_on_c, 0, 67, 77
2, 455469, Note_on_c, 0, 55, 63
2, 455491, Control_c, 0, 64, 127
2, 455497, Note_off_c, 0, 55, 64
2, 455535, Note_off_c, 0, 64, 64
2, 455540, Note_off_c, 0, 67, 64
2, 455549, Note_on_c, 0, 59, 72
2, 455588, Control_c, 0, 64, 0
2, 455634, Note_on_c, 0, 60, 71
2, 455649, Note_off_c, 0, 59, 64
2, 455711, Control_c, 0, 64, 127
2, 455722, Note_on_c, 0, 36, 75
2, 455814, Note_on_c, 0, 48, 87
2, 455831, Note_off_c, 0, 36, 64
2, 455868, Note_off_c, 0, 48, 64
2, 455881, Control_c, 0, 64, 0
2, 455890, Note_off_c, 0, 60, 64
2, 455891, Note_on_c, 0, 65, 67
2, 455895, Note_on_c, 0, 59, 64
2, 455952, Note_off_c, 0, 65, 64
2, 455964, Note_off_c, 0, 59, 64
2, 455971, Note_on_c, 0, 64, 76
2, 455981, Note_on_c, 0, 60, 58
2, 456019, Control_c, 0, 64, 127
2, 456026, Note_off_c, 0, 60, 64
2, 456035, Note_off_c, 0, 64, 64
2, 456054, Note_on_c, 0, 36, 85
2, 456130, Note_on_c, 0, 48, 80
2, 456161, Note_off_c, 0, 36, 64
2, 456206, Note_off_c, 0, 48, 64
2, 456213, Note_on_c, 0, 69, 67
2, 456217, Note_on_c, 0, 65, 73
2, 456232, Control_c, 0, 64, 0
2, 456289, Note_off_c, 0, 65, 64
2, 456294, Note_off_c, 0, 69, 64
2, 456306, Note_on_c, 0, 67, 67
2, 456314, Note_on_c, 0, 64, 71
2, 456349, Note_off_c, 0, 64, 64
2, 456356, Note_off_c, 0, 67, 64
2, 456359, Control_c, 0, 64, 127
2, 456388, Note_on_c, 0, 36, 68
2, 456467, Note_on_c, 0, 48, 86
2, 456509, Note_off_c, 0, 36, 64
2, 456558, Note_off_c, 0, 48, 64
2, 456568, Note_on_c, 0, 71, 66
2, 456570, Note_on_c, 0, 77, 69
2, 456639, Note_off_c, 0, 71, 64
2, 456641, Control_c, 0, 64, 0
2, 456647, Note_off_c, 0, 77, 64
2, 456652, Note_on_c, 0, 76, 77
2, 456655, Note_on_c, 0, 72, 60
2, 456693, Control_c, 0, 64, 127
2, 456708, Note_off_c, 0, 72, 64
2, 456725, Note_off_c, 0, 76, 64
2, 456728, Note_on_c, 0, 36, 78
2, 456812, Note_on_c, 0, 48, 66
2, 456879, Note_off_c, 0, 36, 64
2, 456894, Note_on_c, 0, 83, 61
2, 456900, Note_on_c, 0, 77, 65
2, 456966, Control_c, 0, 64, 0
2, 456985, Note_off_c, 0, 83, 64
2, 456987, Note_off_c, 0, 48, 64
2, 456998, Note_on_c, 0, 76, 63
2, 457001, Note_on_c, 0, 84, 70
2, 457009, Note_off_c, 0, 77, 64
2, 457022, Control_c, 0, 64, 127
2, 457050, Note_off_c, 0, 76, 64
2, 457059, Note_off_c, 0, 84, 64
2, 457292, Note_on_c, 0, 72, 65
2, 457329, Note_on_c, 0, 69, 70
2, 457344, Note_off_c, 0, 72, 64
2, 457368, Note_on_c, 0, 57, 79
2, 457368, Note_on_c, 0, 54, 77
2, 457368, Note_on_c, 0, 72, 109
2, 457372, Note_on_c, 0, 60, 82
2, 457384, Control_c, 0, 64, 0
2, 457390, Note_off_c, 0, 69, 64
2, 457397, Control_c, 0, 64, 127
2, 457416, Note_on_c, 0, 69, 82
2, 457427, Note_off_c, 0, 72, 64
2, 457456, Note_on_c, 0, 75, 102
2, 457497, Note_off_c, 0, 69, 64
2, 457508, Note_on_c, 0, 72, 88
2, 457519, Note_off_c, 0, 75, 64
2, 457552, Note_on_c, 0, 69, 92
2, 457567, Note_off_c, 0, 72, 64
2, 457600, Note_on_c, 0, 78, 98
2, 457628, Note_off_c, 0, 69, 64
2, 457648, Note_on_c, 0, 75, 82
2, 457656, Note_off_c, 0, 78, 64
2, 457686, Note_on_c, 0, 72, 86
2, 457696, Note_off_c, 0, 75, 64
2, 457729, Note_on_c, 0, 69, 94
2, 457734, Note_off_c, 0, 72, 64
2, 457776, Note_on_c, 0, 81, 103
2, 457787, Note_off_c, 0, 69, 64
2, 457814, Note_on_c, 0, 78, 112
2, 457842, Note_off_c, 0, 81, 64
2, 457858, Note_on_c, 0, 75, 102
2, 457868, Note_off_c, 0, 78, 64
2, 457896, Note_off_c, 0, 57, 64
2, 457897, Note_on_c, 0, 72, 127
2, 457900, Note_off_c, 0, 54, 64
2, 457902, Note_off_c, 0, 60, 64
2, 457909, Note_off_c, 0, 75, 64
2, 457944, Note_on_c, 0, 84, 99
2, 457950, Note_off_c, 0, 72, 64
2, 457982, Note_on_c, 0, 81, 83
2, 457996, Note_off_c, 0, 84, 64
2, 458018, Note_on_c, 0, 78, 100
2, 458028, Note_off_c, 0, 81, 64
2, 458058, Note_on_c, 0, 75, 118
2, 458071, Note_off_c, 0, 78, 64
2, 458086, Control_c, 0, 64, 0
2, 458119, Note_on_c, 0, 66, 54
2, 458120, Note_on_c, 0, 69, 60
2, 458125, Note_on_c, 0, 72, 63
2, 458131, Control_c, 0, 64, 127
2, 458161, Note_off_c, 0, 66, 64
2, 458162, Note_off_c, 0, 72, 64
2, 458164, Note_off_c, 0, 69, 64
2, 458217, Note_on_c, 0, 69, 67
2, 458222, Note_on_c, 0, 72, 65
2, 458222, Note_on_c, 0, 66, 67
2, 458245, Note_off_c, 0, 66, 64
2, 458248, Note_off_c, 0, 72, 64
2, 458252, Note_off_c, 0, 69, 64
2, 458266, Note_on_c, 0, 84, 74
2, 458268, Note_off_c, 0, 75, 64
2, 458298, Note_on_c, 0, 81, 67
2, 458304, Control_c, 0, 64, 0
2, 458332, Note_on_c, 0, 78, 79
2, 458334, Note_off_c, 0, 84, 64
2, 458364, Note_off_c, 0, 81, 64
2, 458387, Note_on_c, 0, 74, 80
2, 458396, Note_off_c, 0, 78, 64
2, 458420, Control_c, 0, 64, 127
2, 458455, Note_on_c, 0, 69, 65
2, 458458, Note_on_c, 0, 72, 65
2, 458463, Note_on_c, 0, 66, 60
2, 458485, Note_off_c, 0, 66, 64
2, 458487, Note_off_c, 0, 69, 64
2, 458492, Note_off_c, 0, 72, 64
2, 458557, Note_on_c, 0, 72, 66
2, 458557, Note_on_c, 0, 69, 68
2, 458562, Note_on_c, 0, 66, 70
2, 458584, Note_off_c, 0, 69, 64
2, 458587, Note_off_c, 0, 66, 64
2, 458591, Note_off_c, 0, 72, 64
2, 458601, Note_off_c, 0, 74, 64
2, 458607, Note_on_c, 0, 84, 71
2, 458645, Note_on_c, 0, 81, 69
2, 458661, Control_c, 0, 64, 0
2, 458672, Note_off_c, 0, 84, 64
2, 458676, Note_on_c, 0, 78, 80
2, 458705, Note_off_c, 0, 81, 64
2, 458728, Note_on_c, 0, 75, 102
2, 458736, Note_off_c, 0, 78, 64
2, 458814, Control_c, 0, 64, 127
2, 458820, Note_on_c, 0, 66, 65
2, 458823, Note_on_c, 0, 69, 66
2, 458823, Note_on_c, 0, 72, 64
2, 458851, Note_off_c, 0, 69, 64
2, 458855, Note_off_c, 0, 66, 64
2, 458857, Note_off_c, 0, 72, 64
2, 458911, Note_on_c, 0, 72, 63
2, 458915, Note_on_c, 0, 66, 63
2, 458915, Note_on_c, 0, 69, 63
2, 458941, Note_off_c, 0, 69, 64
2, 458944, Note_off_c, 0, 66, 64
2, 458947, Note_off_c, 0, 72, 64
2, 458968, Note_off_c, 0, 75, 64
2, 458977, Note_on_c, 0, 84, 73
2, 459015, Note_on_c, 0, 81, 67
2, 459046, Note_off_c, 0, 84, 64
2, 459048, Note_on_c, 0, 78, 71
2, 459077, Note_off_c, 0, 81, 64
2, 459077, Control_c, 0, 64, 0
2, 459084, Note_on_c, 0, 74, 96
2, 459110, Note_off_c, 0, 78, 64
2, 459120, Control_c, 0, 64, 127
2, 459174, Note_off_c, 0, 74, 64
2, 459326, Note_on_c, 0, 74, 71
2, 459390, Note_off_c, 0, 74, 64
2, 459408, Note_on_c, 0, 55, 67
2, 459409, Note_on_c, 0, 58, 74
2, 459415, Note_on_c, 0, 67, 84
2, 459416, Control_c, 0, 64, 0
2, 459446, Control_c, 0, 64, 127
2, 459461, Note_off_c, 0, 58, 64
2, 459461, Note_off_c, 0, 55, 64
2, 459483, Note_off_c, 0, 67, 64
2, 459500, Note_on_c, 0, 70, 88
2, 459560, Note_off_c, 0, 70, 64
2, 459572, Control_c, 0, 64, 0
2, 459589, Note_on_c, 0, 63, 94
2, 459596, Note_on_c, 0, 60, 69
2, 459600, Note_on_c, 0, 48, 61
2, 459617, Control_c, 0, 64, 127
2, 459632, Note_off_c, 0, 48, 64
2, 459642, Note_off_c, 0, 60, 64
2, 459656, Note_off_c, 0, 63, 64
2, 459666, Note_on_c, 0, 75, 81
2, 459742, Note_off_c, 0, 75, 64
2, 459751, Note_on_c, 0, 58, 67
2, 459752, Control_c, 0, 64, 0
2, 459759, Note_on_c, 0, 50, 67
2, 459760, Note_on_c, 0, 67, 76
2, 459796, Control_c, 0, 64, 127
2, 459898, Control_c, 0, 64, 0
2, 459918, Control_c, 0, 64, 127
2, 459939, Note_off_c, 0, 67, 64
2, 459939, Note_on_c, 0, 66, 76
2, 459942, Note_on_c, 0, 57, 63
2, 459968, Note_off_c, 0, 58, 64
2, 459986, Note_off_c, 0, 50, 64
2, 460010, Note_off_c, 0, 66, 64
2, 460011, Note_off_c, 0, 57, 64
2, 460023, Note_on_c, 0, 72, 84
2, 460065, Note_off_c, 0, 72, 64
2, 460112, Note_on_c, 0, 69, 88
2, 460163, Note_off_c, 0, 69, 64
2, 460194, Note_on_c, 0, 81, 79
2, 460243, Note_off_c, 0, 81, 64
2, 460279, Control_c, 0, 64, 0
2, 460286, Note_on_c, 0, 66, 81
2, 460286, Note_on_c, 0, 72, 88
2, 460307, Control_c, 0, 64, 127
2, 460362, Note_on_c, 0, 84, 68
2, 460382, Note_off_c, 0, 66, 64
2, 460384, Note_off_c, 0, 72, 64
2, 460417, Note_off_c, 0, 84, 64
2, 460432, Control_c, 0, 64, 0
2, 460445, Note_on_c, 0, 72, 85
2, 460452, Note_on_c, 0, 67, 84
2, 460474, Control_c, 0, 64, 127
2, 460543, Note_on_c, 0, 55, 92
2, 460568, Note_off_c, 0, 67, 64
2, 460589, Note_off_c, 0, 55, 64
2, 460626, Note_on_c, 0, 70, 74
2, 460630, Note_off_c, 0, 72, 64
2, 460700, Control_c, 0, 64, 0
2, 460709, Note_on_c, 0, 58, 84
2, 460732, Control_c, 0, 64, 127
2, 460737, Note_off_c, 0, 70, 64
2, 460778, Note_off_c, 0, 58, 64
2, 460792, Note_on_c, 0, 55, 67
2, 460869, Note_off_c, 0, 55, 64
2, 460885, Note_on_c, 0, 58, 88
2, 460955, Control_c, 0, 64, 0
2, 460961, Note_off_c, 0, 58, 64
2, 460967, Note_on_c, 0, 51, 98
2, 460974, Note_on_c, 0, 67, 77
2, 460974, Note_on_c, 0, 70, 76
2, 460992, Control_c, 0, 64, 127
2, 461044, Note_off_c, 0, 51, 64
2, 461050, Note_on_c, 0, 63, 86
2, 461063, Note_off_c, 0, 67, 64
2, 461102, Note_off_c, 0, 63, 64
2, 461108, Note_off_c, 0, 70, 64
2, 461136, Control_c, 0, 64, 0
2, 461141, Note_on_c, 0, 68, 88
2, 461145, Note_on_c, 0, 65, 86
2, 461150, Note_on_c, 0, 63, 96
2, 461179, Control_c, 0, 64, 127
2, 461309, Control_c, 0, 64, 0
2, 461314, Note_off_c, 0, 65, 64
2, 461317, Note_off_c, 0, 63, 64
2, 461322, Note_on_c, 0, 62, 74
2, 461344, Control_c, 0, 64, 127
2, 461375, Note_off_c, 0, 68, 64
2, 461389, Note_off_c, 0, 62, 64
2, 461415, Note_on_c, 0, 65, 84
2, 461487, Note_off_c, 0, 65, 64
2, 461499, Note_on_c, 0, 62, 79
2, 461579, Note_on_c, 0, 65, 71
2, 461586, Note_off_c, 0, 62, 64
2, 461648, Note_off_c, 0, 65, 64
2, 461650, Control_c, 0, 64, 0
2, 461664, Note_on_c, 0, 70, 79
2, 461668, Note_on_c, 0, 74, 77
2, 461671, Note_on_c, 0, 58, 94
2, 461686, Control_c, 0, 64, 127
2, 461742, Note_off_c, 0, 58, 64
2, 461746, Note_off_c, 0, 74, 64
2, 461747, Note_off_c, 0, 70, 64
2, 461750, Note_on_c, 0, 68, 81
2, 461798, Note_off_c, 0, 68, 64
2, 461838, Control_c, 0, 64, 0
2, 461844, Note_on_c, 0, 75, 86
2, 461844, Note_on_c, 0, 68, 92
2, 461850, Note_on_c, 0, 70, 92
2, 461885, Control_c, 0, 64, 127
2, 462017, Note_off_c, 0, 70, 64
2, 462029, Note_off_c, 0, 68, 64
2, 462032, Note_on_c, 0, 67, 78
2, 462043, Note_off_c, 0, 75, 64
2, 462100, Note_off_c, 0, 67, 64
2, 462123, Note_on_c, 0, 70, 90
2, 462180, Note_off_c, 0, 70, 64
2, 462185, Control_c, 0, 64, 0
2, 462198, Note_on_c, 0, 67, 68
2, 462209, Control_c, 0, 64, 127
2, 462278, Note_off_c, 0, 67, 64
2, 462282, Note_on_c, 0, 70, 88
2, 462356, Note_off_c, 0, 70, 64
2, 462366, Note_on_c, 0, 73, 84
2, 462368, Note_on_c, 0, 65, 69
2, 462373, Control_c, 0, 64, 0
2, 462403, Control_c, 0, 64, 127
2, 462434, Note_off_c, 0, 73, 64
2, 462448, Note_off_c, 0, 65, 64
2, 462448, Note_on_c, 0, 70, 63
2, 462509, Note_off_c, 0, 70, 64
2, 462532, Note_on_c, 0, 64, 68
2, 462539, Note_on_c, 0, 82, 78
2, 462539, Control_c, 0, 64, 0
2, 462588, Control_c, 0, 64, 127
2, 462611, Note_off_c, 0, 82, 64
2, 462613, Note_on_c, 0, 67, 66
2, 462616, Note_on_c, 0, 72, 78
2, 462631, Note_off_c, 0, 64, 64
2, 462688, Note_off_c, 0, 67, 64
2, 462698, Control_c, 0, 64, 0
2, 462701, Note_on_c, 0, 80, 79
2, 462707, Note_off_c, 0, 72, 64
2, 462707, Note_on_c, 0, 65, 71
2, 462742, Control_c, 0, 64, 127
2, 462779, Note_off_c, 0, 80, 64
2, 462783, Note_off_c, 0, 65, 64
2, 462785, Note_on_c, 0, 68, 79
2, 462789, Note_on_c, 0, 72, 86
2, 462836, Note_off_c, 0, 68, 64
2, 462855, Note_off_c, 0, 72, 64
2, 462859, Control_c, 0, 64, 0
2, 462866, Note_on_c, 0, 80, 72
2, 462872, Note_on_c, 0, 62, 66
2, 462903, Control_c, 0, 64, 127
2, 462940, Note_on_c, 0, 70, 76
2, 462943, Note_off_c, 0, 80, 64
2, 462950, Note_on_c, 0, 65, 57
2, 462969, Note_off_c, 0, 62, 64
2, 463025, Note_off_c, 0, 70, 64
2, 463025, Note_on_c, 0, 79, 61
2, 463030, Note_on_c, 0, 63, 69
2, 463033, Control_c, 0, 64, 0
2, 463044, Note_off_c, 0, 65, 64
2, 463073, Control_c, 0, 64, 127
2, 463100, Note_off_c, 0, 79, 64
2, 463108, Note_on_c, 0, 70, 74
2, 463112, Note_off_c, 0, 63, 64
2, 463115, Note_on_c, 0, 67, 69
2, 463184, Note_off_c, 0, 67, 64
2, 463188, Note_off_c, 0, 70, 64
2, 463191, Control_c, 0, 64, 0
2, 463197, Note_on_c, 0, 79, 67
2, 463198, Note_on_c, 0, 60, 67
2, 463234, Control_c, 0, 64, 127
2, 463265, Note_on_c, 0, 63, 58
2, 463267, Note_on_c, 0, 68, 76
2, 463274, Note_off_c, 0, 60, 64
2, 463274, Note_off_c, 0, 79, 64
2, 463327, Note_off_c, 0, 63, 64
2, 463351, Control_c, 0, 64, 0
2, 463358, Note_on_c, 0, 77, 70
2, 463358, Note_on_c, 0, 62, 75
2, 463363, Note_off_c, 0, 68, 64
2, 463395, Control_c, 0, 64, 127
2, 463419, Note_off_c, 0, 77, 64
2, 463425, Note_off_c, 0, 62, 64
2, 463432, Note_on_c, 0, 65, 65
2, 463434, Note_on_c, 0, 68, 78
2, 463506, Note_off_c, 0, 68, 64
2, 463507, Note_off_c, 0, 65, 64
2, 463521, Note_on_c, 0, 77, 72
2, 463525, Control_c, 0, 64, 0
2, 463531, Note_on_c, 0, 59, 73
2, 463567, Control_c, 0, 64, 127
2, 463597, Note_off_c, 0, 77, 64
2, 463598, Note_on_c, 0, 62, 70
2, 463600, Note_on_c, 0, 67, 76
2, 463626, Note_off_c, 0, 59, 64
2, 463661, Note_off_c, 0, 67, 64
2, 463683, Note_off_c, 0, 62, 64
2, 463684, Control_c, 0, 64, 0
2, 463689, Note_on_c, 0, 75, 79
2, 463691, Note_on_c, 0, 60, 60
2, 463719, Control_c, 0, 64, 127
2, 463757, Note_off_c, 0, 75, 64
2, 463764, Note_on_c, 0, 63, 76
2, 463765, Note_on_c, 0, 67, 72
2, 463767, Note_off_c, 0, 60, 64
2, 463818, Note_off_c, 0, 63, 64
2, 463833, Note_off_c, 0, 67, 64
2, 463839, Control_c, 0, 64, 0
2, 463851, Note_on_c, 0, 75, 82
2, 463855, Note_on_c, 0, 57, 80
2, 463890, Control_c, 0, 64, 127
2, 463922, Note_off_c, 0, 75, 64
2, 463924, Note_on_c, 0, 66, 86
2, 463926, Note_on_c, 0, 60, 70
2, 463950, Note_off_c, 0, 60, 64
2, 463950, Note_off_c, 0, 66, 64
2, 463950, Note_off_c, 0, 57, 64
2, 464024, Note_on_c, 0, 58, 82
2, 464024, Note_on_c, 0, 74, 68
2, 464038, Control_c, 0, 64, 0
2, 464072, Control_c, 0, 64, 127
2, 464092, Note_off_c, 0, 74, 64
2, 464092, Note_off_c, 0, 58, 64
2, 464106, Note_on_c, 0, 67, 71
2, 464112, Note_on_c, 0, 62, 66
2, 464172, Note_off_c, 0, 67, 64
2, 464178, Note_off_c, 0, 62, 64
2, 464190, Note_on_c, 0, 58, 86
2, 464190, Note_on_c, 0, 74, 81
2, 464202, Control_c, 0, 64, 0
2, 464242, Control_c, 0, 64, 127
2, 464246, Note_off_c, 0, 58, 64
2, 464267, Note_off_c, 0, 74, 64
2, 464270, Note_on_c, 0, 68, 91
2, 464270, Note_on_c, 0, 62, 66
2, 464339, Note_off_c, 0, 68, 64
2, 464346, Note_on_c, 0, 58, 92
2, 464354, Note_on_c, 0, 74, 78
2, 464359, Note_off_c, 0, 62, 64
2, 464360, Control_c, 0, 64, 0
2, 464390, Control_c, 0, 64, 127
2, 464430, Note_off_c, 0, 74, 64
2, 464430, Note_off_c, 0, 58, 64
2, 464434, Note_on_c, 0, 68, 93
2, 464434, Note_on_c, 0, 62, 67
2, 464460, Note_off_c, 0, 62, 64
2, 464460, Note_off_c, 0, 68, 64
2, 464511, Control_c, 0, 64, 0
2, 464512, Note_on_c, 0, 61, 100
2, 464512, Note_on_c, 0, 64, 85
2, 464519, Note_on_c, 0, 69, 82
2, 464557, Control_c, 0, 64, 127
2, 464596, Note_off_c, 0, 61, 64
2, 464598, Note_on_c, 0, 49, 78
2, 464625, Note_off_c, 0, 64, 64
2, 464651, Note_off_c, 0, 49, 64
2, 464671, Control_c, 0, 64, 0
2, 464677, Note_off_c, 0, 69, 64
2, 464688, Note_on_c, 0, 58, 107
2, 464693, Note_on_c, 0, 74, 82
2, 464716, Control_c, 0, 64, 127
2, 464761, Note_on_c, 0, 46, 101
2, 464765, Note_on_c, 0, 62, 85
2, 464768, Note_off_c, 0, 58, 64
2, 464771, Note_on_c, 0, 68, 101
2, 464795, Note_off_c, 0, 74, 64
2, 464807, Note_off_c, 0, 62, 64
2, 464816, Note_off_c, 0, 46, 64
2, 464821, Note_off_c, 0, 68, 64
2, 464846, Control_c, 0, 64, 0
2, 464854, Note_on_c, 0, 69, 86
2, 464855, Note_on_c, 0, 61, 92
2, 464855, Note_on_c, 0, 57, 93
2, 464883, Control_c, 0, 64, 127
2, 464922, Note_off_c, 0, 57, 64
2, 464930, Note_on_c, 0, 45, 96
2, 464969, Note_off_c, 0, 61, 64
2, 464976, Note_off_c, 0, 45, 64
2, 464988, Note_off_c, 0, 69, 64
2, 465007, Control_c, 0, 64, 0
2, 465020, Note_on_c, 0, 58, 109
2, 465020, Note_on_c, 0, 74, 92
2, 465033, Control_c, 0, 64, 127
2, 465094, Note_on_c, 0, 46, 93
2, 465094, Note_on_c, 0, 68, 98
2, 465095, Note_on_c, 0, 62, 94
2, 465124, Note_off_c, 0, 74, 64
2, 465124, Note_off_c, 0, 58, 64
2, 465134, Note_off_c, 0, 62, 64
2, 465143, Note_off_c, 0, 68, 64
2, 465146, Note_off_c, 0, 46, 64
2, 465163, Control_c, 0, 64, 0
2, 465180, Note_on_c, 0, 57, 96
2, 465180, Note_on_c, 0, 69, 98
2, 465180, Note_on_c, 0, 61, 92
2, 465211, Control_c, 0, 64, 127
2, 465223, Note_off_c, 0, 61, 64
2, 465248, Note_off_c, 0, 69, 64
2, 465260, Note_on_c, 0, 45, 89
2, 465330, Note_off_c, 0, 57, 64
2, 465332, Note_off_c, 0, 45, 64
2, 465471, Note_on_c, 0, 76, 66
2, 465510, Note_on_c, 0, 73, 84
2, 465525, Note_off_c, 0, 76, 64
2, 465556, Note_on_c, 0, 64, 90
2, 465556, Note_on_c, 0, 55, 78
2, 465556, Note_on_c, 0, 57, 81
2, 465560, Note_on_c, 0, 61, 88
2, 465560, Note_on_c, 0, 76, 81
2, 465563, Control_c, 0, 64, 0
2, 465574, Note_off_c, 0, 73, 64
2, 465603, Control_c, 0, 64, 127
2, 465609, Note_on_c, 0, 73, 79
2, 465617, Note_off_c, 0, 76, 64
2, 465650, Note_off_c, 0, 57, 64
2, 465652, Note_on_c, 0, 79, 68
2, 465657, Note_off_c, 0, 73, 64
2, 465684, Note_on_c, 0, 76, 94
2, 465706, Note_off_c, 0, 79, 64
2, 465728, Note_on_c, 0, 73, 88
2, 465753, Note_off_c, 0, 76, 64
2, 465760, Note_on_c, 0, 69, 84
2, 465771, Note_off_c, 0, 64, 64
2, 465775, Note_off_c, 0, 61, 64
2, 465794, Note_off_c, 0, 73, 64
2, 465795, Note_off_c, 0, 55, 64
2, 465811, Note_off_c, 0, 69, 64
2, 465813, Note_on_c, 0, 76, 70
2, 465844, Note_on_c, 0, 73, 73
2, 465875, Note_off_c, 0, 76, 64
2, 465880, Note_on_c, 0, 55, 79
2, 465880, Note_on_c, 0, 61, 96
2, 465884, Note_on_c, 0, 57, 77
2, 465884, Note_on_c, 0, 64, 94
2, 465887, Note_on_c, 0, 76, 88
2, 465907, Note_off_c, 0, 73, 64
2, 465920, Control_c, 0, 64, 0
2, 465932, Note_on_c, 0, 73, 78
2, 465944, Control_c, 0, 64, 127
2, 465949, Note_off_c, 0, 76, 64
2, 465976, Note_on_c, 0, 79, 79
2, 466002, Note_off_c, 0, 73, 64
2, 466020, Note_on_c, 0, 76, 79
2, 466044, Note_off_c, 0, 79, 64
2, 466077, Note_on_c, 0, 73, 69
2, 466093, Note_off_c, 0, 76, 64
2, 466101, Note_off_c, 0, 64, 64
2, 466105, Note_off_c, 0, 57, 64
2, 466105, Note_off_c, 0, 61, 64
2, 466110, Note_off_c, 0, 55, 64
2, 466123, Note_on_c, 0, 69, 90
2, 466143, Note_off_c, 0, 73, 64
2, 466160, Note_on_c, 0, 81, 56
2, 466168, Note_off_c, 0, 69, 64
2, 466200, Note_on_c, 0, 77, 68
2, 466231, Note_off_c, 0, 81, 64
2, 466235, Control_c, 0, 64, 0
2, 466239, Note_on_c, 0, 74, 59
2, 466243, Note_on_c, 0, 53, 66
2, 466246, Note_on_c, 0, 62, 66
2, 466269, Control_c, 0, 64, 127
2, 466275, Note_off_c, 0, 77, 64
2, 466288, Note_on_c, 0, 69, 63
2, 466305, Note_off_c, 0, 62, 64
2, 466305, Note_off_c, 0, 74, 64
2, 466340, Note_on_c, 0, 81, 70
2, 466357, Note_off_c, 0, 53, 64
2, 466368, Note_off_c, 0, 69, 64
2, 466388, Note_on_c, 0, 79, 63
2, 466411, Note_off_c, 0, 81, 64
2, 466416, Note_on_c, 0, 61, 72
2, 466419, Note_on_c, 0, 76, 69
2, 466419, Note_on_c, 0, 55, 65
2, 466428, Control_c, 0, 64, 0
2, 466440, Control_c, 0, 64, 127
2, 466448, Note_off_c, 0, 79, 64
2, 466462, Note_on_c, 0, 69, 66
2, 466470, Note_off_c, 0, 76, 64
2, 466508, Note_on_c, 0, 81, 70
2, 466531, Note_off_c, 0, 55, 64
2, 466539, Note_off_c, 0, 61, 64
2, 466540, Note_on_c, 0, 77, 70
2, 466542, Note_off_c, 0, 69, 64
2, 466569, Note_off_c, 0, 81, 64
2, 466584, Note_on_c, 0, 74, 64
2, 466589, Note_on_c, 0, 62, 72
2, 466589, Note_on_c, 0, 53, 75
2, 466596, Control_c, 0, 64, 0
2, 466620, Note_off_c, 0, 77, 64
2, 466628, Control_c, 0, 64, 127
2, 466635, Note_on_c, 0, 69, 67
2, 466638, Note_off_c, 0, 74, 64
2, 466646, Note_off_c, 0, 62, 64
2, 466675, Note_on_c, 0, 81, 75
2, 466692, Note_off_c, 0, 53, 64
2, 466715, Note_on_c, 0, 79, 75
2, 466718, Note_off_c, 0, 69, 64
2, 466746, Note_on_c, 0, 61, 88
2, 466751, Note_on_c, 0, 55, 72
2, 466751, Note_on_c, 0, 76, 77
2, 466752, Control_c, 0, 64, 0
2, 466759, Note_off_c, 0, 81, 64
2, 466774, Control_c, 0, 64, 127
2, 466801, Note_off_c, 0, 79, 64
2, 466807, Note_on_c, 0, 69, 70
2, 466812, Note_off_c, 0, 76, 64
2, 466854, Note_off_c, 0, 61, 64
2, 466863, Note_on_c, 0, 81, 72
2, 466877, Note_off_c, 0, 55, 64
2, 466909, Note_on_c, 0, 77, 76
2, 466915, Control_c, 0, 64, 0
2, 466925, Note_off_c, 0, 69, 64
2, 466936, Note_on_c, 0, 53, 81
2, 466936, Note_on_c, 0, 62, 85
2, 466940, Note_on_c, 0, 74, 76
2, 466941, Note_off_c, 0, 81, 64
2, 466941, Control_c, 0, 64, 127
2, 466978, Note_off_c, 0, 77, 64
2, 466987, Note_off_c, 0, 62, 64
2, 466993, Note_on_c, 0, 69, 78
2, 467013, Note_off_c, 0, 53, 64
2, 467021, Note_off_c, 0, 74, 64
2, 467029, Note_on_c, 0, 81, 78
2, 467062, Note_off_c, 0, 69, 64
2, 467074, Note_on_c, 0, 79, 88
2, 467096, Note_off_c, 0, 81, 64
2, 467120, Note_on_c, 0, 77, 90
2, 467132, Note_off_c, 0, 79, 64
2, 467165, Note_on_c, 0, 76, 76
2, 467175, Note_off_c, 0, 77, 64
2, 467206, Note_on_c, 0, 74, 94
2, 467226, Note_off_c, 0, 76, 64
2, 467256, Note_on_c, 0, 72, 94
2, 467264, Note_off_c, 0, 74, 64
2, 467296, Note_on_c, 0, 70, 64
2, 467301, Note_off_c, 0, 72, 64
2, 467336, Note_on_c, 0, 69, 66
2, 467345, Note_off_c, 0, 70, 64
2, 467371, Note_on_c, 0, 67, 80
2, 467385, Note_off_c, 0, 69, 64
2, 467414, Note_on_c, 0, 65, 97
2, 467417, Note_off_c, 0, 67, 64
2, 467464, Note_off_c, 0, 65, 64
2, 467464, Note_on_c, 0, 64, 67
2, 467504, Note_on_c, 0, 62, 100
2, 467513, Note_off_c, 0, 64, 64
2, 467539, Note_on_c, 0, 61, 85
2, 467553, Note_off_c, 0, 62, 64
2, 467582, Note_on_c, 0, 62, 101
2, 467585, Note_off_c, 0, 61, 64
2, 467616, Note_on_c, 0, 63, 105
2, 467619, Note_on_c, 0, 43, 94
2, 467628, Note_off_c, 0, 62, 64
2, 467631, Control_c, 0, 64, 0
2, 467663, Note_on_c, 0, 55, 96
2, 467664, Control_c, 0, 64, 127
2, 467667, Note_off_c, 0, 43, 64
2, 467712, Note_off_c, 0, 55, 64
2, 467715, Note_on_c, 0, 54, 106
2, 467760, Note_off_c, 0, 54, 64
2, 467762, Note_on_c, 0, 55, 101
2, 467791, Control_c, 0, 64, 0
2, 467815, Note_on_c, 0, 58, 106
2, 467820, Note_off_c, 0, 55, 64
2, 467823, Control_c, 0, 64, 127
2, 467834, Note_off_c, 0, 63, 64
2, 467847, Note_off_c, 0, 58, 64
2, 467904, Note_on_c, 0, 67, 84
2, 467904, Control_c, 0, 64, 0
2, 467908, Note_on_c, 0, 63, 94
2, 467947, Note_off_c, 0, 67, 64
2, 467949, Note_off_c, 0, 63, 64
2, 468010, Note_on_c, 0, 57, 96
2, 468051, Note_off_c, 0, 57, 64
2, 468089, Note_on_c, 0, 65, 78
2, 468090, Note_on_c, 0, 62, 81
2, 468127, Note_off_c, 0, 65, 64
2, 468131, Note_off_c, 0, 62, 64
2, 468170, Note_on_c, 0, 45, 90
2, 468207, Note_off_c, 0, 45, 64
2, 468255, Note_on_c, 0, 61, 90
2, 468260, Note_on_c, 0, 64, 80
2, 468297, Note_off_c, 0, 64, 64
2, 468298, Note_off_c, 0, 61, 64
2, 468345, Note_on_c, 0, 62, 86
2, 468435, Note_on_c, 0, 50, 70
2, 468459, Control_c, 0, 64, 127
2, 468525, Note_on_c, 0, 38, 90
2, 468527, Note_off_c, 0, 50, 64
2, 468577, Note_off_c, 0, 38, 64
2, 468609, Note_on_c, 0, 69, 74
2, 468619, Control_c, 0, 64, 0
2, 468639, Note_off_c, 0, 62, 64
2, 468664, Note_off_c, 0, 69, 64
2, 468701, Note_on_c, 0, 62, 88
2, 468782, Note_on_c, 0, 65, 67
2, 468797, Note_off_c, 0, 62, 64
2, 468866, Note_on_c, 0, 58, 88
2, 468869, Note_off_c, 0, 65, 64
2, 468943, Note_off_c, 0, 58, 64
2, 468948, Note_on_c, 0, 70, 84
2, 468955, Note_on_c, 0, 55, 75
2, 468959, Control_c, 0, 64, 127
2, 469003, Note_off_c, 0, 55, 64
2, 469007, Note_off_c, 0, 70, 64
2, 469030, Control_c, 0, 64, 0
2, 469035, Note_on_c, 0, 64, 92
2, 469038, Note_on_c, 0, 48, 79
2, 469074, Note_on_c, 0, 50, 67
2, 469075, Note_on_c, 0, 65, 67
2, 469085, Note_off_c, 0, 64, 64
2, 469110, Note_on_c, 0, 67, 74
2, 469114, Note_on_c, 0, 52, 78
2, 469120, Note_off_c, 0, 48, 64
2, 469132, Note_off_c, 0, 65, 64
2, 469144, Note_off_c, 0, 50, 64
2, 469158, Note_on_c, 0, 48, 67
2, 469158, Note_on_c, 0, 64, 78
2, 469178, Note_off_c, 0, 67, 64
2, 469181, Note_off_c, 0, 52, 64
2, 469202, Note_on_c, 0, 60, 85
2, 469206, Note_on_c, 0, 45, 73
2, 469216, Note_off_c, 0, 64, 64
2, 469228, Note_off_c, 0, 48, 64
2, 469284, Note_on_c, 0, 57, 74
2, 469292, Note_on_c, 0, 72, 79
2, 469326, Note_off_c, 0, 45, 64
2, 469339, Note_off_c, 0, 60, 64
2, 469374, Note_off_c, 0, 72, 64
2, 469375, Note_on_c, 0, 65, 80
2, 469378, Note_on_c, 0, 50, 80
2, 469379, Note_off_c, 0, 57, 64
2, 469461, Note_on_c, 0, 53, 86
2, 469463, Note_on_c, 0, 69, 78
2, 469465, Note_off_c, 0, 50, 64
2, 469485, Note_off_c, 0, 65, 64
2, 469547, Note_on_c, 0, 62, 85
2, 469551, Note_off_c, 0, 53, 64
2, 469554, Note_on_c, 0, 46, 100
2, 469558, Note_off_c, 0, 69, 64
2, 469598, Note_off_c, 0, 46, 64
2, 469625, Note_on_c, 0, 58, 84
2, 469630, Note_on_c, 0, 74, 79
2, 469658, Note_off_c, 0, 62, 64
2, 469675, Note_off_c, 0, 58, 64
2, 469689, Note_off_c, 0, 74, 64
2, 469712, Note_on_c, 0, 70, 94
2, 469714, Note_on_c, 0, 55, 84
2, 469754, Note_on_c, 0, 57, 77
2, 469757, Note_on_c, 0, 72, 79
2, 469767, Note_off_c, 0, 70, 64
2, 469776, Note_off_c, 0, 55, 64
2, 469790, Note_on_c, 0, 74, 68
2, 469794, Note_on_c, 0, 58, 66
2, 469838, Note_on_c, 0, 55, 77
2, 469842, Note_on_c, 0, 70, 84
2, 469851, Note_off_c, 0, 57, 64
2, 469855, Note_off_c, 0, 72, 64
2, 469866, Control_c, 0, 64, 127
2, 469867, Note_off_c, 0, 74, 64
2, 469868, Note_off_c, 0, 58, 64
2, 469878, Note_on_c, 0, 52, 84
2, 469881, Note_on_c, 0, 67, 84
2, 469905, Note_off_c, 0, 70, 64
2, 469931, Note_off_c, 0, 52, 64
2, 469935, Note_off_c, 0, 55, 64
2, 469977, Note_on_c, 0, 79, 66
2, 470030, Note_off_c, 0, 79, 64
2, 470048, Note_off_c, 0, 67, 64
2, 470054, Note_on_c, 0, 70, 92
2, 470060, Note_on_c, 0, 60, 84
2, 470101, Control_c, 0, 64, 0
2, 470113, Control_c, 0, 64, 127
2, 470137, Note_off_c, 0, 70, 64
2, 470142, Note_on_c, 0, 67, 86
2, 470152, Note_on_c, 0, 64, 84
2, 470220, Note_off_c, 0, 64, 64
2, 470220, Note_off_c, 0, 67, 64
2, 470229, Note_on_c, 0, 69, 86
2, 470234, Note_on_c, 0, 65, 84
2, 470273, Note_off_c, 0, 69, 64
2, 470280, Control_c, 0, 64, 0
2, 470301, Control_c, 0, 64, 127
2, 470310, Note_on_c, 0, 81, 80
2, 470358, Note_off_c, 0, 65, 64
2, 470361, Note_off_c, 0, 60, 64
2, 470370, Note_off_c, 0, 81, 64
2, 470392, Control_c, 0, 64, 0
2, 470410, Note_on_c, 0, 60, 84
2, 470413, Note_on_c, 0, 72, 81
2, 470430, Control_c, 0, 64, 127
2, 470456, Note_off_c, 0, 72, 64
2, 470490, Note_on_c, 0, 65, 57
2, 470490, Note_on_c, 0, 69, 69
2, 470514, Note_off_c, 0, 65, 64
2, 470552, Note_off_c, 0, 69, 64
2, 470574, Note_on_c, 0, 67, 77
2, 470575, Note_on_c, 0, 70, 96
2, 470620, Note_off_c, 0, 70, 64
2, 470653, Note_off_c, 0, 67, 64
2, 470657, Note_on_c, 0, 82, 88
2, 470660, Note_off_c, 0, 60, 64
2, 470703, Note_off_c, 0, 82, 64
2, 470750, Note_on_c, 0, 76, 52
2, 470752, Note_on_c, 0, 70, 79
2, 470753, Note_on_c, 0, 60, 71
2, 470842, Note_on_c, 0, 69, 61
2, 470846, Note_on_c, 0, 77, 70
2, 470856, Note_off_c, 0, 76, 64
2, 470858, Note_off_c, 0, 70, 64
2, 470888, Note_off_c, 0, 69, 64
2, 470898, Note_off_c, 0, 77, 64
2, 470930, Note_on_c, 0, 67, 60
2, 470930, Note_on_c, 0, 70, 67
2, 470980, Note_off_c, 0, 67, 64
2, 471013, Note_off_c, 0, 70, 64
2, 471015, Note_on_c, 0, 65, 45
2, 471021, Note_on_c, 0, 69, 50
2, 471056, Note_off_c, 0, 65, 64
2, 471077, Note_off_c, 0, 60, 64
2, 471112, Note_on_c, 0, 67, 48
2, 471112, Note_on_c, 0, 60, 42
2, 471113, Note_on_c, 0, 64, 48
2, 471135, Control_c, 0, 64, 0
2, 471140, Note_off_c, 0, 69, 64
2, 471185, Control_c, 0, 64, 127
2, 471278, Note_off_c, 0, 64, 64
2, 471289, Note_off_c, 0, 60, 64
2, 471359, Note_off_c, 0, 67, 64
2, 471422, Note_on_c, 0, 72, 61
2, 471485, Control_c, 0, 64, 0
2, 471490, Note_off_c, 0, 72, 64
2, 471510, Note_on_c, 0, 65, 66
2, 471514, Note_on_c, 0, 57, 78
2, 471514, Note_on_c, 0, 53, 74
2, 471527, Control_c, 0, 64, 127
2, 471556, Note_off_c, 0, 53, 64
2, 471583, Note_off_c, 0, 65, 64
2, 471584, Note_off_c, 0, 57, 64
2, 471588, Note_on_c, 0, 69, 55
2, 471670, Note_on_c, 0, 46, 74
2, 471670, Note_on_c, 0, 58, 78
2, 471670, Note_on_c, 0, 62, 70
2, 471672, Note_off_c, 0, 69, 64
2, 471695, Control_c, 0, 64, 127
2, 471712, Note_off_c, 0, 46, 64
2, 471740, Note_off_c, 0, 58, 64
2, 471758, Note_on_c, 0, 74, 60
2, 471763, Note_off_c, 0, 62, 64
2, 471793, Note_off_c, 0, 74, 64
2, 471853, Note_on_c, 0, 65, 69
2, 471860, Note_on_c, 0, 48, 61
2, 471867, Note_on_c, 0, 57, 61
2, 471899, Control_c, 0, 64, 0
2, 471912, Control_c, 0, 64, 127
2, 472028, Control_c, 0, 64, 0
2, 472043, Note_on_c, 0, 55, 61
2, 472044, Note_on_c, 0, 64, 69
2, 472049, Note_off_c, 0, 57, 64
2, 472051, Note_off_c, 0, 65, 64
2, 472074, Control_c, 0, 64, 127
2, 472131, Note_on_c, 0, 70, 66
2, 472161, Note_off_c, 0, 64, 64
2, 472164, Note_off_c, 0, 55, 64
2, 472172, Note_off_c, 0, 48, 64
2, 472193, Note_off_c, 0, 70, 64
2, 472200, Control_c, 0, 64, 0
2, 472222, Note_on_c, 0, 67, 77
2, 472303, Note_on_c, 0, 76, 62
2, 472324, Note_off_c, 0, 67, 64
2, 472351, Note_off_c, 0, 76, 64
2, 472386, Note_on_c, 0, 70, 82
2, 472390, Note_on_c, 0, 60, 71
2, 472391, Note_on_c, 0, 64, 71
2, 472412, Control_c, 0, 64, 127
2, 472435, Note_off_c, 0, 60, 64
2, 472436, Note_off_c, 0, 64, 64
2, 472460, Note_on_c, 0, 79, 70
2, 472464, Note_off_c, 0, 70, 64
2, 472509, Control_c, 0, 64, 0
2, 472520, Note_off_c, 0, 79, 64
2, 472542, Note_on_c, 0, 65, 73
2, 472547, Note_on_c, 0, 70, 82
2, 472554, Control_c, 0, 64, 127
2, 472637, Note_on_c, 0, 53, 60
2, 472689, Note_off_c, 0, 53, 64
2, 472695, Note_off_c, 0, 65, 64
2, 472722, Note_on_c, 0, 69, 61
2, 472735, Note_off_c, 0, 70, 64
2, 472742, Control_c, 0, 64, 0
2, 472796, Note_off_c, 0, 69, 64
2, 472805, Note_on_c, 0, 72, 78
2, 472864, Note_off_c, 0, 72, 64
2, 472873, Control_c, 0, 64, 127
2, 472880, Note_on_c, 0, 63, 74
2, 472949, Note_off_c, 0, 63, 64
2, 472963, Note_on_c, 0, 75, 70
2, 473023, Note_off_c, 0, 75, 64
2, 473046, Control_c, 0, 64, 0
2, 473054, Note_on_c, 0, 57, 38
2, 473056, Note_on_c, 0, 65, 96
2, 473085, Control_c, 0, 64, 127
2, 473129, Note_on_c, 0, 72, 88
2, 473140, Note_off_c, 0, 57, 64
2, 473150, Note_off_c, 0, 65, 64
2, 473192, Note_off_c, 0, 72, 64
2, 473215, Control_c, 0, 64, 0
2, 473220, Note_on_c, 0, 58, 96
2, 473223, Note_on_c, 0, 73, 84
2, 473258, Control_c, 0, 64, 127
2, 473303, Note_on_c, 0, 74, 81
2, 473327, Note_off_c, 0, 73, 64
2, 473360, Note_off_c, 0, 74, 64
2, 473368, Note_off_c, 0, 58, 64
2, 473378, Note_on_c, 0, 67, 81
2, 473445, Note_off_c, 0, 67, 64
2, 473448, Control_c, 0, 64, 0
2, 473455, Note_on_c, 0, 59, 81
2, 473461, Note_on_c, 0, 74, 71
2, 473471, Control_c, 0, 64, 127
2, 473507, Note_off_c, 0, 74, 64
2, 473508, Note_off_c, 0, 59, 64
2, 473540, Control_c, 0, 64, 0
2, 473545, Note_on_c, 0, 60, 86
2, 473550, Note_on_c, 0, 75, 96
2, 473586, Control_c, 0, 64, 127
2, 473636, Note_on_c, 0, 76, 74
2, 473650, Note_off_c, 0, 75, 64
2, 473692, Note_off_c, 0, 76, 64
2, 473698, Note_off_c, 0, 60, 64
2, 473711, Note_on_c, 0, 69, 74
2, 473757, Note_off_c, 0, 69, 64
2, 473787, Note_on_c, 0, 61, 90
2, 473791, Note_on_c, 0, 76, 86
2, 473797, Control_c, 0, 64, 0
2, 473836, Control_c, 0, 64, 127
2, 473856, Note_off_c, 0, 76, 64
2, 473858, Note_off_c, 0, 61, 64
2, 473866, Note_on_c, 0, 62, 88
2, 473872, Note_on_c, 0, 79, 86
2, 473873, Control_c, 0, 64, 0
2, 473911, Control_c, 0, 64, 127
2, 473946, Note_on_c, 0, 77, 79
2, 473957, Note_off_c, 0, 79, 64
2, 473983, Note_off_c, 0, 62, 64
2, 474002, Note_off_c, 0, 77, 64
2, 474022, Note_on_c, 0, 70, 81
2, 474100, Note_on_c, 0, 77, 74
2, 474105, Note_on_c, 0, 62, 75
2, 474135, Note_off_c, 0, 70, 64
2, 474157, Note_off_c, 0, 77, 64
2, 474169, Control_c, 0, 64, 0
2, 474175, Note_off_c, 0, 62, 64
2, 474182, Note_on_c, 0, 78, 90
2, 474186, Note_on_c, 0, 64, 86
2, 474206, Control_c, 0, 64, 127
2, 474257, Note_off_c, 0, 78, 64
2, 474257, Note_on_c, 0, 79, 75
2, 474273, Note_off_c, 0, 64, 64
2, 474314, Note_off_c, 0, 79, 64
2, 474339, Note_on_c, 0, 72, 79
2, 474414, Note_on_c, 0, 64, 75
2, 474415, Note_on_c, 0, 79, 81
2, 474460, Note_off_c, 0, 72, 64
2, 474483, Note_off_c, 0, 79, 64
2, 474490, Control_c, 0, 64, 0
2, 474498, Note_on_c, 0, 65, 90
2, 474501, Note_on_c, 0, 80, 65
2, 474504, Note_off_c, 0, 64, 64
2, 474528, Control_c, 0, 64, 127
2, 474582, Note_on_c, 0, 81, 76
2, 474589, Note_off_c, 0, 80, 64
2, 474658, Note_on_c, 0, 62, 84
2, 474658, Note_on_c, 0, 77, 86
2, 474677, Note_off_c, 0, 81, 64
2, 474686, Note_off_c, 0, 65, 64
2, 474740, Note_off_c, 0, 77, 64
2, 474750, Note_on_c, 0, 83, 87
2, 474824, Note_off_c, 0, 83, 64
2, 474832, Note_off_c, 0, 62, 64
2, 474834, Note_on_c, 0, 76, 71
2, 474841, Note_on_c, 0, 60, 76
2, 474848, Control_c, 0, 64, 0
2, 474884, Control_c, 0, 64, 127
2, 474909, Note_off_c, 0, 76, 64
2, 474922, Note_on_c, 0, 84, 88
2, 474993, Note_off_c, 0, 84, 64
2, 475004, Note_on_c, 0, 72, 84
2, 475086, Note_on_c, 0, 69, 84
2, 475088, Note_on_c, 0, 73, 84
2, 475101, Note_off_c, 0, 72, 64
2, 475173, Note_off_c, 0, 69, 64
2, 475173, Note_on_c, 0, 74, 88
2, 475175, Note_off_c, 0, 73, 64
2, 475180, Note_on_c, 0, 70, 81
2, 475180, Control_c, 0, 64, 0
2, 475211, Control_c, 0, 64, 127
2, 475261, Note_on_c, 0, 78, 79
2, 475309, Note_off_c, 0, 74, 64
2, 475338, Note_on_c, 0, 79, 71
2, 475346, Note_off_c, 0, 78, 64
2, 475421, Note_on_c, 0, 82, 79
2, 475435, Note_off_c, 0, 79, 64
2, 475456, Note_off_c, 0, 70, 64
2, 475481, Note_off_c, 0, 82, 64
2, 475513, Control_c, 0, 64, 0
2, 475518, Note_on_c, 0, 72, 76
2, 475519, Note_on_c, 0, 76, 84
2, 475536, Control_c, 0, 64, 127
2, 475602, Note_on_c, 0, 79, 67
2, 475640, Note_off_c, 0, 76, 64
2, 475674, Note_on_c, 0, 69, 67
2, 475679, Note_off_c, 0, 79, 64
2, 475680, Note_on_c, 0, 77, 79
2, 475693, Control_c, 0, 64, 0
2, 475706, Control_c, 0, 64, 127
2, 475761, Note_on_c, 0, 81, 77
2, 475780, Note_off_c, 0, 60, 64
2, 475782, Note_off_c, 0, 77, 64
2, 475790, Note_off_c, 0, 72, 64
2, 475840, Note_off_c, 0, 81, 64
2, 475851, Note_on_c, 0, 74, 74
2, 475854, Note_on_c, 0, 60, 48
2, 475857, Note_on_c, 0, 70, 92
2, 475862, Control_c, 0, 64, 0
2, 475873, Control_c, 0, 64, 127
2, 475939, Note_off_c, 0, 69, 64
2, 475942, Note_on_c, 0, 66, 75
2, 475972, Note_off_c, 0, 70, 64
2, 476010, Note_off_c, 0, 74, 64
2, 476016, Control_c, 0, 64, 0
2, 476025, Note_on_c, 0, 67, 67
2, 476027, Note_off_c, 0, 66, 64
2, 476034, Control_c, 0, 64, 127
2, 476097, Note_on_c, 0, 82, 86
2, 476104, Note_off_c, 0, 60, 64
2, 476152, Note_off_c, 0, 82, 64
2, 476178, Note_on_c, 0, 60, 46
2, 476182, Note_on_c, 0, 69, 88
2, 476185, Note_on_c, 0, 72, 86
2, 476191, Control_c, 0, 64, 0
2, 476236, Control_c, 0, 64, 127
2, 476248, Note_off_c, 0, 72, 64
2, 476265, Note_on_c, 0, 76, 76
2, 476331, Control_c, 0, 64, 0
2, 476343, Control_c, 0, 64, 127
2, 476349, Note_on_c, 0, 77, 76
2, 476355, Note_on_c, 0, 65, 67
2, 476359, Note_off_c, 0, 69, 64
2, 476363, Note_off_c, 0, 67, 64
2, 476386, Note_off_c, 0, 76, 64
2, 476425, Note_on_c, 0, 81, 86
2, 476433, Note_off_c, 0, 77, 64
2, 476438, Note_off_c, 0, 60, 64
2, 476461, Note_off_c, 0, 81, 64
2, 476510, Note_on_c, 0, 60, 42
2, 476511, Note_on_c, 0, 67, 85
2, 476514, Note_on_c, 0, 70, 98
2, 476524, Control_c, 0, 64, 0
2, 476542, Control_c, 0, 64, 127
2, 476585, Note_on_c, 0, 74, 76
2, 476592, Note_off_c, 0, 70, 64
2, 476668, Control_c, 0, 64, 0
2, 476676, Note_on_c, 0, 72, 92
2, 476678, Note_on_c, 0, 64, 85
2, 476695, Note_off_c, 0, 74, 64
2, 476707, Note_off_c, 0, 65, 64
2, 476707, Control_c, 0, 64, 127
2, 476759, Note_on_c, 0, 79, 81
2, 476766, Note_off_c, 0, 72, 64
2, 476792, Note_off_c, 0, 64, 64
2, 476797, Note_off_c, 0, 67, 64
2, 476825, Note_off_c, 0, 60, 64
2, 476834, Control_c, 0, 64, 0
2, 476850, Note_on_c, 0, 60, 33
2, 476852, Note_on_c, 0, 69, 76
2, 476856, Note_on_c, 0, 65, 72
2, 476870, Control_c, 0, 64, 127
2, 476908, Note_off_c, 0, 69, 64
2, 476924, Note_off_c, 0, 79, 64
2, 476926, Note_on_c, 0, 72, 74
2, 476986, Note_off_c, 0, 72, 64
2, 477010, Note_on_c, 0, 62, 71
2, 477011, Note_on_c, 0, 71, 85
2, 477023, Control_c, 0, 64, 0
2, 477037, Control_c, 0, 64, 127
2, 477041, Note_off_c, 0, 65, 64
2, 477092, Note_on_c, 0, 77, 77
2, 477107, Note_off_c, 0, 60, 64
2, 477148, Note_off_c, 0, 71, 64
2, 477167, Note_off_c, 0, 77, 64
2, 477182, Note_on_c, 0, 60, 39
2, 477183, Note_on_c, 0, 76, 75
2, 477183, Note_on_c, 0, 72, 78
2, 477193, Note_off_c, 0, 62, 64
2, 477196, Control_c, 0, 64, 0
2, 477234, Control_c, 0, 64, 127
2, 477273, Note_off_c, 0, 76, 64
2, 477280, Note_off_c, 0, 72, 64
2, 477308, Note_off_c, 0, 60, 64
2, 477493, Note_on_c, 0, 72, 79
2, 477524, Control_c, 0, 64, 0
2, 477550, Note_off_c, 0, 72, 64
2, 477571, Note_on_c, 0, 65, 81
2, 477645, Note_on_c, 0, 69, 71
2, 477649, Note_off_c, 0, 65, 64
2, 477725, Note_on_c, 0, 60, 84
2, 477773, Note_off_c, 0, 60, 64
2, 477786, Note_off_c, 0, 69, 64
2, 477810, Note_on_c, 0, 57, 92
2, 477811, Note_on_c, 0, 65, 73
2, 477814, Note_on_c, 0, 60, 88
2, 477853, Note_off_c, 0, 57, 64
2, 477862, Note_off_c, 0, 60, 64
2, 477875, Note_off_c, 0, 65, 64
2, 477894, Note_on_c, 0, 55, 76
2, 477894, Note_on_c, 0, 64, 86
2, 477898, Note_on_c, 0, 58, 88
2, 477966, Note_off_c, 0, 58, 64
2, 477966, Note_on_c, 0, 57, 85
2, 477966, Note_on_c, 0, 53, 79
2, 477968, Note_on_c, 0, 65, 75
2, 477978, Note_off_c, 0, 55, 64
2, 477999, Note_off_c, 0, 64, 64
2, 478047, Note_off_c, 0, 53, 64
2, 478050, Note_on_c, 0, 52, 84
2, 478050, Note_on_c, 0, 55, 88
2, 478055, Note_on_c, 0, 67, 84
2, 478058, Note_off_c, 0, 57, 64
2, 478074, Note_off_c, 0, 65, 64
2, 478092, Note_off_c, 0, 67, 64
2, 478098, Note_off_c, 0, 55, 64
2, 478103, Note_off_c, 0, 52, 64
2, 478138, Note_on_c, 0, 72, 79
2, 478202, Note_off_c, 0, 72, 64
2, 478218, Note_on_c, 0, 67, 84
2, 478293, Note_on_c, 0, 70, 71
2, 478301, Note_off_c, 0, 67, 64
2, 478375, Note_on_c, 0, 60, 85
2, 478381, Note_off_c, 0, 70, 64
2, 478417, Note_off_c, 0, 60, 64
2, 478446, Note_on_c, 0, 58, 88
2, 478450, Note_on_c, 0, 60, 88
2, 478451, Note_on_c, 0, 64, 78
2, 478489, Note_off_c, 0, 58, 64
2, 478493, Note_off_c, 0, 60, 64
2, 478506, Note_off_c, 0, 64, 64
2, 478526, Note_on_c, 0, 60, 85
2, 478526, Note_on_c, 0, 65, 84
2, 478530, Note_on_c, 0, 57, 84
2, 478606, Note_on_c, 0, 58, 85
2, 478606, Note_on_c, 0, 55, 86
2, 478606, Note_on_c, 0, 67, 84
2, 478607, Note_off_c, 0, 60, 64
2, 478612, Note_off_c, 0, 57, 64
2, 478616, Note_off_c, 0, 65, 64
2, 478694, Note_on_c, 0, 53, 54
2, 478694, Note_on_c, 0, 69, 84
2, 478700, Note_on_c, 0, 57, 69
2, 478703, Note_off_c, 0, 67, 64
2, 478703, Note_off_c, 0, 58, 64
2, 478708, Note_off_c, 0, 55, 64
2, 478751, Note_off_c, 0, 53, 64
2, 478757, Note_off_c, 0, 57, 64
2, 478762, Note_off_c, 0, 69, 64
2, 478778, Note_on_c, 0, 72, 88
2, 478836, Note_off_c, 0, 72, 64
2, 478866, Note_on_c, 0, 65, 86
2, 478921, Note_off_c, 0, 65, 64
2, 478942, Note_on_c, 0, 72, 86
2, 478946, Note_on_c, 0, 57, 76
2, 478946, Note_on_c, 0, 53, 68
2, 479010, Note_on_c, 0, 55, 78
2, 479012, Note_on_c, 0, 65, 84
2, 479013, Note_on_c, 0, 58, 94
2, 479015, Note_off_c, 0, 72, 64
2, 479017, Note_off_c, 0, 57, 64
2, 479037, Note_off_c, 0, 53, 64
2, 479082, Note_off_c, 0, 55, 64
2, 479086, Note_on_c, 0, 57, 90
2, 479086, Note_on_c, 0, 60, 88
2, 479086, Note_on_c, 0, 63, 86
2, 479104, Note_off_c, 0, 58, 64
2, 479105, Note_off_c, 0, 65, 64
2, 479131, Note_off_c, 0, 63, 64
2, 479171, Note_off_c, 0, 60, 64
2, 479171, Note_on_c, 0, 63, 97
2, 479174, Note_on_c, 0, 58, 98
2, 479184, Note_off_c, 0, 57, 64
2, 479218, Note_on_c, 0, 62, 61
2, 479229, Note_off_c, 0, 63, 64
2, 479261, Note_on_c, 0, 61, 79
2, 479271, Note_off_c, 0, 62, 64
2, 479298, Note_on_c, 0, 62, 74
2, 479313, Note_off_c, 0, 61, 64
2, 479314, Note_off_c, 0, 58, 64
2, 479335, Note_on_c, 0, 64, 75
2, 479346, Note_off_c, 0, 62, 64
2, 479382, Note_on_c, 0, 62, 75
2, 479391, Note_off_c, 0, 64, 64
2, 479421, Note_on_c, 0, 66, 87
2, 479422, Note_on_c, 0, 57, 80
2, 479435, Note_off_c, 0, 62, 64
2, 479462, Note_on_c, 0, 62, 77
2, 479466, Note_off_c, 0, 66, 64
2, 479480, Note_off_c, 0, 57, 64
2, 479510, Note_on_c, 0, 58, 96
2, 479516, Note_on_c, 0, 67, 85
2, 479518, Note_off_c, 0, 62, 64
2, 479549, Note_off_c, 0, 58, 64
2, 479550, Note_on_c, 0, 62, 80
2, 479569, Note_off_c, 0, 67, 64
2, 479593, Note_on_c, 0, 54, 98
2, 479600, Note_on_c, 0, 69, 85
2, 479606, Note_off_c, 0, 62, 64
2, 479633, Note_off_c, 0, 54, 64
2, 479642, Note_on_c, 0, 62, 81
2, 479652, Note_off_c, 0, 69, 64
2, 479683, Note_on_c, 0, 55, 99
2, 479689, Note_off_c, 0, 62, 64
2, 479693, Note_on_c, 0, 70, 100
2, 479717, Note_off_c, 0, 55, 64
2, 479722, Note_off_c, 0, 70, 64
2, 479722, Note_on_c, 0, 62, 69
2, 479760, Note_on_c, 0, 72, 92
2, 479763, Note_off_c, 0, 62, 64
2, 479763, Note_on_c, 0, 57, 107
2, 479805, Note_off_c, 0, 57, 64
2, 479806, Note_on_c, 0, 62, 93
2, 479820, Note_off_c, 0, 72, 64
2, 479831, Note_off_c, 0, 62, 64
2, 479846, Note_on_c, 0, 58, 118
2, 479851, Note_on_c, 0, 74, 109
2, 480026, Note_on_c, 0, 72, 75
2, 480032, Control_c, 0, 64, 127
2, 480039, Note_off_c, 0, 74, 64
2, 480054, Note_off_c, 0, 58, 64
2, 480061, Note_on_c, 0, 70, 79
2, 480084, Note_off_c, 0, 72, 64
2, 480104, Note_on_c, 0, 69, 79
2, 480128, Note_off_c, 0, 70, 64
2, 480145, Note_on_c, 0, 67, 84
2, 480175, Note_off_c, 0, 69, 64
2, 480197, Note_on_c, 0, 66, 70
2, 480203, Note_off_c, 0, 67, 64
2, 480209, Control_c, 0, 64, 0
2, 480231, Control_c, 0, 64, 127
2, 480246, Note_on_c, 0, 67, 85
2, 480252, Note_off_c, 0, 66, 64
2, 480281, Note_off_c, 0, 67, 64
2, 480282, Note_on_c, 0, 69, 80
2, 480284, Control_c, 0, 64, 0
2, 480326, Note_on_c, 0, 67, 86
2, 480337, Note_off_c, 0, 69, 64
2, 480368, Note_on_c, 0, 72, 79
2, 480393, Note_off_c, 0, 67, 64
2, 480411, Note_on_c, 0, 70, 81
2, 480439, Note_off_c, 0, 72, 64
2, 480456, Note_on_c, 0, 69, 59
2, 480486, Note_off_c, 0, 70, 64
2, 480492, Note_on_c, 0, 67, 70
2, 480522, Note_off_c, 0, 69, 64
2, 480539, Note_on_c, 0, 65, 70
2, 480553, Note_off_c, 0, 67, 64
2, 480601, Control_c, 0, 64, 127
2, 480622, Note_on_c, 0, 62, 75
2, 480622, Note_on_c, 0, 59, 71
2, 480659, Note_off_c, 0, 62, 64
2, 480667, Note_off_c, 0, 59, 64
2, 480710, Note_on_c, 0, 60, 59
2, 480714, Note_off_c, 0, 65, 64
2, 480782, Control_c, 0, 64, 0
2, 480799, Note_on_c, 0, 69, 74
2, 480799, Note_on_c, 0, 48, 86
2, 480818, Control_c, 0, 64, 127
2, 480841, Note_on_c, 0, 67, 71
2, 480867, Note_off_c, 0, 69, 64
2, 480870, Note_off_c, 0, 60, 64
2, 480881, Control_c, 0, 64, 0
2, 480895, Note_off_c, 0, 48, 64
2, 480895, Note_on_c, 0, 53, 75
2, 480896, Note_on_c, 0, 65, 81
2, 480916, Control_c, 0, 64, 127
2, 480925, Note_off_c, 0, 53, 64
2, 480933, Note_off_c, 0, 67, 64
2, 480976, Note_off_c, 0, 65, 64
2, 480984, Note_on_c, 0, 41, 92
2, 481034, Note_off_c, 0, 41, 64
2, 481202, Note_on_c, 0, 79, 72
2, 481254, Note_on_c, 0, 76, 67
2, 481265, Note_off_c, 0, 79, 64
2, 481280, Control_c, 0, 64, 0
2, 481286, Note_on_c, 0, 60, 50
2, 481286, Note_on_c, 0, 67, 78
2, 481287, Note_on_c, 0, 79, 81
2, 481290, Note_on_c, 0, 58, 74
2, 481290, Note_on_c, 0, 64, 77
2, 481298, Note_off_c, 0, 76, 64
2, 481328, Note_on_c, 0, 76, 77
2, 481328, Control_c, 0, 64, 127
2, 481340, Note_off_c, 0, 79, 64
2, 481376, Note_on_c, 0, 82, 79
2, 481393, Note_off_c, 0, 76, 64
2, 481422, Note_on_c, 0, 79, 84
2, 481464, Note_on_c, 0, 76, 71
2, 481475, Note_off_c, 0, 82, 64
2, 481492, Note_off_c, 0, 79, 64
2, 481507, Note_on_c, 0, 72, 71
2, 481526, Note_off_c, 0, 67, 64
2, 481526, Note_off_c, 0, 60, 64
2, 481528, Note_off_c, 0, 76, 64
2, 481530, Note_off_c, 0, 64, 64
2, 481530, Note_off_c, 0, 58, 64
2, 481542, Note_on_c, 0, 79, 50
2, 481580, Note_off_c, 0, 72, 64
2, 481582, Note_on_c, 0, 76, 84
2, 481588, Note_off_c, 0, 79, 64
2, 481623, Note_on_c, 0, 79, 78
2, 481626, Note_on_c, 0, 58, 81
2, 481627, Note_off_c, 0, 76, 64
2, 481630, Note_on_c, 0, 60, 77
2, 481630, Note_on_c, 0, 64, 77
2, 481630, Note_on_c, 0, 67, 88
2, 481644, Control_c, 0, 64, 0
2, 481664, Note_on_c, 0, 76, 79
2, 481684, Control_c, 0, 64, 127
2, 481690, Note_off_c, 0, 79, 64
2, 481702, Note_on_c, 0, 82, 77
2, 481727, Note_off_c, 0, 76, 64
2, 481734, Note_on_c, 0, 79, 72
2, 481747, Note_off_c, 0, 82, 64
2, 481771, Note_on_c, 0, 76, 90
2, 481799, Note_off_c, 0, 79, 64
2, 481807, Note_on_c, 0, 72, 72
2, 481834, Note_off_c, 0, 76, 64
2, 481860, Note_off_c, 0, 58, 64
2, 481860, Note_on_c, 0, 79, 74
2, 481870, Note_off_c, 0, 64, 64
2, 481876, Note_off_c, 0, 72, 64
2, 481878, Note_off_c, 0, 67, 64
2, 481881, Note_off_c, 0, 60, 64
2, 481903, Note_off_c, 0, 79, 64
2, 481908, Note_on_c, 0, 76, 74
2, 481942, Note_off_c, 0, 76, 64
2, 481948, Note_on_c, 0, 67, 85
2, 481948, Note_on_c, 0, 64, 76
2, 481948, Note_on_c, 0, 60, 78
2, 481948, Note_on_c, 0, 58, 77
2, 481951, Note_on_c, 0, 79, 84
2, 481997, Note_on_c, 0, 76, 84
2, 482028, Note_off_c, 0, 79, 64
2, 482028, Note_on_c, 0, 82, 90
2, 482039, Control_c, 0, 64, 0
2, 482040, Note_off_c, 0, 76, 64
2, 482068, Note_on_c, 0, 79, 79
2, 482089, Note_off_c, 0, 82, 64
2, 482111, Note_on_c, 0, 76, 71
2, 482131, Note_off_c, 0, 79, 64
2, 482159, Note_on_c, 0, 72, 79
2, 482165, Note_off_c, 0, 76, 64
2, 482205, Note_on_c, 0, 79, 79
2, 482211, Note_off_c, 0, 72, 64
2, 482244, Note_on_c, 0, 76, 69
2, 482248, Note_off_c, 0, 58, 64
2, 482248, Note_off_c, 0, 60, 64
2, 482248, Note_off_c, 0, 64, 64
2, 482248, Note_off_c, 0, 67, 64
2, 482285, Note_on_c, 0, 72, 76
2, 482294, Note_off_c, 0, 79, 64
2, 482306, Note_off_c, 0, 76, 64
2, 482328, Note_on_c, 0, 70, 68
2, 482341, Note_off_c, 0, 72, 64
2, 482368, Note_on_c, 0, 76, 81
2, 482385, Note_off_c, 0, 70, 64
2, 482415, Note_on_c, 0, 72, 78
2, 482432, Note_off_c, 0, 76, 64
2, 482460, Note_on_c, 0, 70, 79
2, 482483, Note_off_c, 0, 72, 64
2, 482505, Note_on_c, 0, 67, 80
2, 482509, Note_off_c, 0, 70, 64
2, 482547, Note_on_c, 0, 70, 76
2, 482577, Note_off_c, 0, 67, 64
2, 482582, Note_on_c, 0, 67, 70
2, 482611, Note_off_c, 0, 70, 64
2, 482620, Note_on_c, 0, 64, 78
2, 482651, Control_c, 0, 64, 0
2, 482658, Note_off_c, 0, 67, 64
2, 482694, Note_off_c, 0, 64, 64
2, 482703, Control_c, 0, 64, 127
2, 482989, Note_on_c, 0, 84, 59
2, 483033, Note_off_c, 0, 84, 64
2, 483045, Control_c, 0, 64, 0
2, 483066, Note_on_c, 0, 62, 40
2, 483068, Note_on_c, 0, 77, 69
2, 483089, Control_c, 0, 64, 127
2, 483131, Note_off_c, 0, 77, 64
2, 483140, Note_off_c, 0, 62, 64
2, 483148, Note_on_c, 0, 65, 59
2, 483149, Note_on_c, 0, 81, 66
2, 483199, Note_off_c, 0, 65, 64
2, 483206, Note_off_c, 0, 81, 64
2, 483239, Note_on_c, 0, 74, 74
2, 483239, Note_on_c, 0, 58, 86
2, 483240, Control_c, 0, 64, 0
2, 483270, Control_c, 0, 64, 127
2, 483312, Note_on_c, 0, 70, 56
2, 483314, Note_off_c, 0, 58, 64
2, 483317, Note_on_c, 0, 86, 69
2, 483345, Note_off_c, 0, 74, 64
2, 483373, Note_off_c, 0, 70, 64
2, 483387, Note_off_c, 0, 86, 64
2, 483404, Note_on_c, 0, 60, 71
2, 483408, Note_on_c, 0, 77, 82
2, 483413, Note_on_c, 0, 69, 74
2, 483413, Control_c, 0, 64, 0
2, 483444, Control_c, 0, 64, 127
2, 483581, Note_on_c, 0, 76, 63
2, 483583, Note_on_c, 0, 67, 66
2, 483601, Note_off_c, 0, 69, 64
2, 483601, Note_off_c, 0, 77, 64
2, 483622, Note_off_c, 0, 60, 64
2, 483627, Note_off_c, 0, 67, 64
2, 483645, Note_off_c, 0, 76, 64
2, 483653, Control_c, 0, 64, 0
2, 483664, Note_on_c, 0, 84, 66
2, 483720, Note_off_c, 0, 84, 64
2, 483744, Note_on_c, 0, 62, 61
2, 483749, Control_c, 0, 64, 127
2, 483754, Note_on_c, 0, 77, 78
2, 483812, Note_off_c, 0, 77, 64
2, 483828, Note_on_c, 0, 65, 59
2, 483831, Note_off_c, 0, 62, 64
2, 483831, Note_on_c, 0, 81, 69
2, 483883, Note_off_c, 0, 81, 64
2, 483888, Note_off_c, 0, 65, 64
2, 483905, Control_c, 0, 64, 0
2, 483915, Note_on_c, 0, 74, 73
2, 483916, Note_on_c, 0, 58, 84
2, 483931, Control_c, 0, 64, 127
2, 483987, Note_on_c, 0, 70, 71
2, 484001, Note_on_c, 0, 86, 73
2, 484010, Note_off_c, 0, 58, 64
2, 484030, Note_off_c, 0, 74, 64
2, 484049, Note_off_c, 0, 70, 64
2, 484061, Note_off_c, 0, 86, 64
2, 484077, Control_c, 0, 64, 0
2, 484084, Note_on_c, 0, 60, 69
2, 484087, Note_on_c, 0, 77, 80
2, 484092, Note_on_c, 0, 69, 78
2, 484112, Control_c, 0, 64, 127
2, 484257, Note_on_c, 0, 76, 62
2, 484259, Note_on_c, 0, 67, 69
2, 484261, Note_off_c, 0, 77, 64
2, 484266, Note_off_c, 0, 69, 64
2, 484268, Note_off_c, 0, 60, 64
2, 484296, Note_off_c, 0, 67, 64
2, 484337, Note_on_c, 0, 84, 63
2, 484341, Note_on_c, 0, 58, 80
2, 484368, Note_off_c, 0, 76, 64
2, 484380, Note_off_c, 0, 58, 64
2, 484402, Note_off_c, 0, 84, 64
2, 484417, Control_c, 0, 64, 0
2, 484425, Note_on_c, 0, 75, 86
2, 484428, Note_on_c, 0, 57, 69
2, 484428, Note_on_c, 0, 66, 74
2, 484478, Control_c, 0, 64, 127
2, 484568, Note_off_c, 0, 66, 64
2, 484595, Note_off_c, 0, 57, 64
2, 484601, Note_on_c, 0, 58, 61
2, 484601, Note_on_c, 0, 74, 67
2, 484605, Note_on_c, 0, 67, 73
2, 484618, Note_off_c, 0, 58, 64
2, 484628, Note_off_c, 0, 75, 64
2, 484629, Control_c, 0, 64, 0
2, 484636, Note_off_c, 0, 67, 64
2, 484674, Note_on_c, 0, 82, 73
2, 484704, Note_off_c, 0, 74, 64
2, 484737, Note_off_c, 0, 82, 64
2, 484754, Note_on_c, 0, 64, 74
2, 484759, Note_on_c, 0, 70, 77
2, 484759, Note_on_c, 0, 73, 84
2, 484769, Control_c, 0, 64, 127
2, 484896, Note_off_c, 0, 70, 64
2, 484909, Note_off_c, 0, 64, 64
2, 484940, Note_on_c, 0, 69, 63
2, 484940, Note_on_c, 0, 72, 62
2, 484945, Note_on_c, 0, 65, 63
2, 484950, Note_off_c, 0, 73, 64
2, 484976, Note_off_c, 0, 69, 64
2, 484978, Note_off_c, 0, 65, 64
2, 485001, Control_c, 0, 64, 0
2, 485025, Note_off_c, 0, 72, 64
2, 485028, Note_on_c, 0, 77, 58
2, 485054, Note_off_c, 0, 77, 64
2, 485077, Control_c, 0, 64, 127
2, 485106, Note_on_c, 0, 58, 58
2, 485106, Note_on_c, 0, 67, 63
2, 485166, Note_off_c, 0, 58, 64
2, 485177, Note_off_c, 0, 67, 64
2, 485183, Note_on_c, 0, 70, 56
2, 485184, Note_on_c, 0, 74, 58
2, 485226, Note_off_c, 0, 70, 64
2, 485242, Note_off_c, 0, 74, 64
2, 485265, Note_on_c, 0, 72, 57
2, 485266, Note_on_c, 0, 60, 60
2, 485269, Note_on_c, 0, 69, 63
2, 485269, Note_on_c, 0, 48, 55
2, 485302, Note_off_c, 0, 60, 64
2, 485316, Note_off_c, 0, 48, 64
2, 485324, Note_off_c, 0, 69, 64
2, 485336, Note_off_c, 0, 72, 64
2, 485343, Note_on_c, 0, 64, 67
2, 485412, Control_c, 0, 64, 0
2, 485417, Note_off_c, 0, 64, 64
2, 485432, Note_on_c, 0, 53, 54
2, 485435, Note_on_c, 0, 65, 75
2, 485438, Note_on_c, 0, 41, 54
2, 485465, Control_c, 0, 64, 127
2, 485493, Note_off_c, 0, 65, 64
2, 485576, Note_off_c, 0, 53, 64
2, 485582, Note_off_c, 0, 41, 64
2, 485680, Note_on_c, 0, 84, 78
2, 485725, Control_c, 0, 64, 0
2, 485745, Note_off_c, 0, 84, 64
2, 485766, Note_on_c, 0, 62, 75
2, 485766, Note_on_c, 0, 77, 79
2, 485795, Control_c, 0, 64, 127
2, 485842, Note_on_c, 0, 65, 63
2, 485843, Note_on_c, 0, 81, 77
2, 485848, Note_off_c, 0, 62, 64
2, 485856, Note_off_c, 0, 77, 64
2, 485879, Note_off_c, 0, 65, 64
2, 485891, Note_off_c, 0, 81, 64
2, 485900, Control_c, 0, 64, 0
2, 485918, Note_on_c, 0, 58, 88
2, 485924, Note_on_c, 0, 74, 84
2, 485960, Control_c, 0, 64, 127
2, 485995, Note_off_c, 0, 58, 64
2, 486001, Note_on_c, 0, 70, 79
2, 486015, Note_on_c, 0, 86, 71
2, 486035, Note_off_c, 0, 74, 64
2, 486064, Note_off_c, 0, 70, 64
2, 486068, Note_off_c, 0, 86, 64
2, 486088, Control_c, 0, 64, 0
2, 486094, Note_on_c, 0, 60, 79
2, 486097, Note_on_c, 0, 77, 88
2, 486103, Note_on_c, 0, 69, 81
2, 486133, Control_c, 0, 64, 127
2, 486254, Note_on_c, 0, 67, 71
2, 486260, Note_on_c, 0, 76, 69
2, 486271, Note_off_c, 0, 77, 64
2, 486278, Note_off_c, 0, 69, 64
2, 486282, Note_off_c, 0, 67, 64
2, 486292, Note_off_c, 0, 60, 64
2, 486324, Note_off_c, 0, 76, 64
2, 486337, Note_on_c, 0, 84, 75
2, 486378, Control_c, 0, 64, 0
2, 486391, Note_off_c, 0, 84, 64
2, 486422, Note_on_c, 0, 62, 71
2, 486422, Note_on_c, 0, 77, 84
2, 486432, Control_c, 0, 64, 127
2, 486458, Note_on_c, 0, 64, 84
2, 486459, Note_on_c, 0, 79, 71
2, 486481, Note_off_c, 0, 77, 64
2, 486494, Note_on_c, 0, 65, 34
2, 486495, Note_on_c, 0, 81, 79
2, 486501, Note_off_c, 0, 62, 64
2, 486510, Note_off_c, 0, 64, 64
2, 486526, Note_on_c, 0, 62, 84
2, 486530, Note_on_c, 0, 77, 84
2, 486550, Note_off_c, 0, 79, 64
2, 486552, Note_off_c, 0, 81, 64
2, 486558, Control_c, 0, 64, 0
2, 486559, Note_off_c, 0, 65, 64
2, 486572, Note_on_c, 0, 74, 84
2, 486574, Note_on_c, 0, 58, 98
2, 486578, Note_off_c, 0, 62, 64
2, 486586, Note_off_c, 0, 77, 64
2, 486594, Control_c, 0, 64, 127
2, 486654, Note_on_c, 0, 70, 92
2, 486656, Note_on_c, 0, 86, 77
2, 486694, Note_off_c, 0, 58, 64
2, 486696, Note_off_c, 0, 74, 64
2, 486708, Note_off_c, 0, 70, 64
2, 486711, Note_off_c, 0, 86, 64
2, 486723, Control_c, 0, 64, 0
2, 486740, Note_on_c, 0, 60, 81
2, 486742, Note_on_c, 0, 77, 90
2, 486747, Note_on_c, 0, 69, 88
2, 486778, Control_c, 0, 64, 127
2, 486889, Note_on_c, 0, 67, 73
2, 486892, Note_on_c, 0, 76, 74
2, 486899, Note_off_c, 0, 69, 64
2, 486903, Note_off_c, 0, 77, 64
2, 486907, Note_off_c, 0, 60, 64
2, 486927, Note_off_c, 0, 67, 64
2, 486958, Note_off_c, 0, 76, 64
2, 486982, Note_on_c, 0, 69, 86
2, 486987, Note_on_c, 0, 84, 68
2, 487014, Note_on_c, 0, 70, 90
2, 487041, Note_off_c, 0, 69, 64
2, 487058, Control_c, 0, 64, 0
2, 487065, Note_on_c, 0, 66, 88
2, 487066, Note_on_c, 0, 72, 86
2, 487067, Note_on_c, 0, 75, 96
2, 487071, Note_off_c, 0, 70, 64
2, 487072, Note_off_c, 0, 84, 64
2, 487120, Control_c, 0, 64, 127
2, 487207, Note_off_c, 0, 66, 64
2, 487215, Note_off_c, 0, 75, 64
2, 487226, Note_on_c, 0, 67, 63
2, 487229, Note_on_c, 0, 74, 73
2, 487231, Note_on_c, 0, 70, 63
2, 487256, Note_off_c, 0, 72, 64
2, 487278, Note_off_c, 0, 70, 64
2, 487279, Note_off_c, 0, 67, 64
2, 487308, Note_on_c, 0, 82, 69
2, 487326, Note_off_c, 0, 74, 64
2, 487358, Note_off_c, 0, 82, 64
2, 487370, Control_c, 0, 64, 0
2, 487389, Note_on_c, 0, 73, 96
2, 487390, Note_on_c, 0, 64, 84
2, 487392, Note_on_c, 0, 70, 84
2, 487425, Control_c, 0, 64, 127
2, 487502, Note_off_c, 0, 70, 64
2, 487549, Note_off_c, 0, 64, 64
2, 487566, Note_on_c, 0, 69, 69
2, 487566, Note_on_c, 0, 65, 67
2, 487572, Note_on_c, 0, 72, 71
2, 487573, Note_off_c, 0, 73, 64
2, 487579, Control_c, 0, 64, 0
2, 487600, Control_c, 0, 64, 127
2, 487608, Note_off_c, 0, 65, 64
2, 487610, Note_off_c, 0, 69, 64
2, 487644, Note_on_c, 0, 77, 72
2, 487656, Note_off_c, 0, 72, 64
2, 487684, Note_off_c, 0, 77, 64
2, 487717, Control_c, 0, 64, 0
2, 487723, Note_on_c, 0, 58, 72
2, 487727, Note_on_c, 0, 67, 84
2, 487744, Control_c, 0, 64, 127
2, 487778, Note_off_c, 0, 58, 64
2, 487799, Note_on_c, 0, 70, 56
2, 487803, Note_on_c, 0, 74, 76
2, 487820, Note_off_c, 0, 67, 64
2, 487851, Note_off_c, 0, 70, 64
2, 487864, Note_off_c, 0, 74, 64
2, 487872, Control_c, 0, 64, 0
2, 487878, Note_on_c, 0, 69, 71
2, 487879, Note_on_c, 0, 72, 78
2, 487881, Note_on_c, 0, 60, 53
2, 487899, Control_c, 0, 64, 127
2, 487914, Note_off_c, 0, 60, 64
2, 487943, Note_off_c, 0, 69, 64
2, 487947, Note_off_c, 0, 72, 64
2, 487966, Note_on_c, 0, 64, 67
2, 488018, Control_c, 0, 64, 0
2, 488040, Note_off_c, 0, 64, 64
2, 488061, Note_on_c, 0, 65, 84
2, 488149, Control_c, 0, 64, 127
2, 488153, Note_on_c, 0, 41, 69
2, 488171, Note_off_c, 0, 65, 64
2, 488228, Note_on_c, 0, 53, 77
2, 488244, Note_off_c, 0, 41, 64
2, 488319, Note_on_c, 0, 62, 77
2, 488320, Note_on_c, 0, 58, 78
2, 488330, Note_off_c, 0, 53, 64
2, 488333, Control_c, 0, 64, 0
2, 488402, Note_off_c, 0, 62, 64
2, 488409, Note_on_c, 0, 57, 53
2, 488410, Note_off_c, 0, 58, 64
2, 488417, Note_on_c, 0, 60, 65
2, 488487, Note_off_c, 0, 60, 64
2, 488494, Note_on_c, 0, 41, 67
2, 488496, Note_off_c, 0, 57, 64
2, 488496, Control_c, 0, 64, 127
2, 488566, Note_on_c, 0, 53, 50
2, 488662, Note_on_c, 0, 64, 71
2, 488663, Note_on_c, 0, 70, 79
2, 488703, Note_off_c, 0, 41, 64
2, 488743, Note_on_c, 0, 69, 73
2, 488744, Note_off_c, 0, 53, 64
2, 488746, Note_on_c, 0, 65, 71
2, 488748, Note_off_c, 0, 70, 64
2, 488755, Note_off_c, 0, 64, 64
2, 488767, Control_c, 0, 64, 0
2, 488784, Note_off_c, 0, 65, 64
2, 488831, Note_off_c, 0, 69, 64
2, 488833, Note_on_c, 0, 41, 81
2, 488855, Control_c, 0, 64, 127
2, 488901, Note_on_c, 0, 53, 79
2, 488954, Note_off_c, 0, 41, 64
2, 488994, Note_on_c, 0, 70, 76
2, 489000, Note_on_c, 0, 74, 76
2, 489063, Note_off_c, 0, 53, 64
2, 489082, Note_off_c, 0, 70, 64
2, 489084, Note_on_c, 0, 69, 55
2, 489085, Note_off_c, 0, 74, 64
2, 489096, Note_on_c, 0, 72, 56
2, 489114, Control_c, 0, 64, 0
2, 489142, Note_off_c, 0, 69, 64
2, 489149, Note_off_c, 0, 72, 64
2, 489173, Control_c, 0, 64, 127
2, 489176, Note_on_c, 0, 41, 67
2, 489264, Note_on_c, 0, 53, 71
2, 489348, Note_on_c, 0, 82, 58
2, 489352, Note_on_c, 0, 76, 59
2, 489393, Note_off_c, 0, 41, 64
2, 489417, Control_c, 0, 64, 0
2, 489438, Note_off_c, 0, 76, 64
2, 489456, Note_on_c, 0, 81, 58
2, 489460, Note_on_c, 0, 77, 58
2, 489468, Note_off_c, 0, 82, 64
2, 489469, Control_c, 0, 64, 127
2, 489476, Note_off_c, 0, 53, 64
2, 489512, Note_off_c, 0, 77, 64
2, 489516, Note_off_c, 0, 81, 64
2, 489765, Note_on_c, 0, 72, 71
2, 489808, Note_on_c, 0, 69, 70
2, 489823, Note_off_c, 0, 72, 64
2, 489842, Note_on_c, 0, 57, 82
2, 489842, Note_on_c, 0, 60, 81
2, 489842, Note_on_c, 0, 63, 98
2, 489846, Note_on_c, 0, 72, 90
2, 489847, Control_c, 0, 64, 0
2, 489862, Note_off_c, 0, 69, 64
2, 489883, Note_on_c, 0, 69, 79
2, 489887, Control_c, 0, 64, 127
2, 489902, Note_off_c, 0, 72, 64
2, 489928, Note_off_c, 0, 69, 64
2, 489934, Note_on_c, 0, 75, 95
2, 489982, Note_off_c, 0, 75, 64
2, 489983, Note_on_c, 0, 72, 99
2, 490019, Note_on_c, 0, 69, 100
2, 490045, Note_off_c, 0, 72, 64
2, 490072, Note_on_c, 0, 78, 89
2, 490075, Note_off_c, 0, 69, 64
2, 490121, Note_on_c, 0, 75, 109
2, 490134, Note_off_c, 0, 78, 64
2, 490156, Note_on_c, 0, 72, 107
2, 490181, Note_off_c, 0, 75, 64
2, 490202, Note_on_c, 0, 69, 112
2, 490217, Note_off_c, 0, 72, 64
2, 490249, Note_on_c, 0, 81, 93
2, 490277, Note_off_c, 0, 69, 64
2, 490293, Note_on_c, 0, 78, 111
2, 490321, Note_off_c, 0, 81, 64
2, 490330, Note_on_c, 0, 75, 104
2, 490346, Note_off_c, 0, 78, 64
2, 490364, Note_off_c, 0, 57, 64
2, 490368, Note_off_c, 0, 60, 64
2, 490375, Note_on_c, 0, 72, 124
2, 490380, Note_off_c, 0, 75, 64
2, 490401, Note_off_c, 0, 63, 64
2, 490412, Note_on_c, 0, 84, 104
2, 490429, Note_off_c, 0, 72, 64
2, 490450, Note_on_c, 0, 81, 100
2, 490466, Note_off_c, 0, 84, 64
2, 490487, Note_on_c, 0, 78, 113
2, 490503, Note_off_c, 0, 81, 64
2, 490503, Control_c, 0, 64, 0
2, 490526, Note_on_c, 0, 75, 125
2, 490534, Control_c, 0, 64, 127
2, 490542, Note_off_c, 0, 78, 64
2, 490618, Note_on_c, 0, 69, 60
2, 490618, Note_on_c, 0, 72, 66
2, 490622, Note_on_c, 0, 66, 55
2, 490656, Note_off_c, 0, 69, 64
2, 490658, Note_off_c, 0, 72, 64
2, 490667, Note_off_c, 0, 66, 64
2, 490702, Note_on_c, 0, 72, 60
2, 490708, Note_on_c, 0, 69, 61
2, 490709, Note_on_c, 0, 66, 66
2, 490723, Note_off_c, 0, 75, 64
2, 490730, Note_off_c, 0, 72, 64
2, 490737, Note_off_c, 0, 66, 64
2, 490740, Note_off_c, 0, 69, 64
2, 490752, Note_on_c, 0, 84, 78
2, 490784, Control_c, 0, 64, 0
2, 490800, Note_on_c, 0, 81, 66
2, 490830, Note_on_c, 0, 78, 84
2, 490833, Note_off_c, 0, 84, 64
2, 490867, Note_off_c, 0, 81, 64
2, 490884, Note_on_c, 0, 74, 96
2, 490900, Control_c, 0, 64, 127
2, 490906, Note_off_c, 0, 78, 64
2, 490958, Note_on_c, 0, 69, 59
2, 490958, Note_on_c, 0, 72, 61
2, 490962, Note_on_c, 0, 66, 59
2, 490990, Note_off_c, 0, 72, 64
2, 490992, Note_off_c, 0, 69, 64
2, 490999, Note_off_c, 0, 66, 64
2, 491047, Note_off_c, 0, 74, 64
2, 491051, Note_on_c, 0, 69, 63
2, 491051, Note_on_c, 0, 72, 61
2, 491051, Note_on_c, 0, 66, 61
2, 491084, Note_off_c, 0, 66, 64
2, 491088, Note_off_c, 0, 72, 64
2, 491088, Note_off_c, 0, 69, 64
2, 491109, Note_on_c, 0, 84, 77
2, 491147, Note_on_c, 0, 81, 68
2, 491171, Control_c, 0, 64, 0
2, 491175, Note_off_c, 0, 84, 64
2, 491179, Note_on_c, 0, 78, 85
2, 491210, Note_off_c, 0, 81, 64
2, 491233, Note_on_c, 0, 75, 105
2, 491251, Note_off_c, 0, 78, 64
2, 491314, Note_on_c, 0, 69, 59
2, 491314, Note_on_c, 0, 66, 60
2, 491315, Note_on_c, 0, 72, 63
2, 491318, Control_c, 0, 64, 127
2, 491347, Note_off_c, 0, 69, 64
2, 491350, Note_off_c, 0, 72, 64
2, 491351, Note_off_c, 0, 66, 64
2, 491405, Note_on_c, 0, 72, 58
2, 491405, Note_on_c, 0, 69, 58
2, 491406, Note_on_c, 0, 66, 58
2, 491435, Note_off_c, 0, 66, 64
2, 491435, Note_off_c, 0, 69, 64
2, 491437, Note_off_c, 0, 72, 64
2, 491446, Note_off_c, 0, 75, 64
2, 491449, Note_on_c, 0, 84, 73
2, 491497, Note_on_c, 0, 81, 57
2, 491526, Note_on_c, 0, 78, 79
2, 491531, Note_off_c, 0, 84, 64
2, 491531, Control_c, 0, 64, 0
2, 491564, Note_off_c, 0, 81, 64
2, 491566, Note_on_c, 0, 74, 94
2, 491572, Control_c, 0, 64, 127
2, 491589, Note_off_c, 0, 78, 64
2, 491630, Note_off_c, 0, 74, 64
2, 491805, Note_on_c, 0, 74, 72
2, 491857, Note_off_c, 0, 74, 64
2, 491875, Control_c, 0, 64, 0
2, 491884, Note_on_c, 0, 55, 67
2, 491885, Note_on_c, 0, 58, 74
2, 491891, Note_on_c, 0, 67, 84
2, 491892, Control_c, 0, 64, 0
2, 491919, Control_c, 0, 64, 127
2, 491922, Control_c, 0, 64, 127
2, 491937, Note_off_c, 0, 58, 64
2, 491937, Note_off_c, 0, 55, 64
2, 491959, Note_off_c, 0, 67, 64
2, 491976, Note_on_c, 0, 70, 88
2, 492036, Note_off_c, 0, 70, 64
2, 492048, Control_c, 0, 64, 0
2, 492065, Note_on_c, 0, 63, 94
2, 492072, Note_on_c, 0, 60, 69
2, 492076, Note_on_c, 0, 48, 61
2, 492093, Control_c, 0, 64, 127
2, 492108, Note_off_c, 0, 48, 64
2, 492118, Note_off_c, 0, 60, 64
2, 492132, Note_off_c, 0, 63, 64
2, 492142, Note_on_c, 0, 75, 81
2, 492218, Note_off_c, 0, 75, 64
2, 492227, Note_on_c, 0, 58, 67
2, 492228, Control_c, 0, 64, 0
2, 492235, Note_on_c, 0, 50, 67
2, 492236, Note_on_c, 0, 67, 76
2, 492272, Control_c, 0, 64, 127
2, 492374, Control_c, 0, 64, 0
2, 492394, Control_c, 0, 64, 127
2, 492415, Note_off_c, 0, 67, 64
2, 492415, Note_on_c, 0, 66, 76
2, 492418, Note_on_c, 0, 57, 63
2, 492444, Note_off_c, 0, 58, 64
2, 492462, Note_off_c, 0, 50, 64
2, 492486, Note_off_c, 0, 66, 64
2, 492487, Note_off_c, 0, 57, 64
2, 492499, Note_on_c, 0, 72, 84
2, 492541, Note_off_c, 0, 72, 64
2, 492588, Note_on_c, 0, 69, 88
2, 492639, Note_off_c, 0, 69, 64
2, 492670, Note_on_c, 0, 81, 79
2, 492719, Note_off_c, 0, 81, 64
2, 492755, Control_c, 0, 64, 0
2, 492762, Note_on_c, 0, 66, 81
2, 492762, Note_on_c, 0, 72, 88
2, 492783, Control_c, 0, 64, 127
2, 492838, Note_on_c, 0, 84, 68
2, 492858, Note_off_c, 0, 66, 64
2, 492860, Note_off_c, 0, 72, 64
2, 492893, Note_off_c, 0, 84, 64
2, 492908, Control_c, 0, 64, 0
2, 492921, Note_on_c, 0, 72, 85
2, 492928, Note_on_c, 0, 67, 84
2, 492950, Control_c, 0, 64, 127
2, 493019, Note_on_c, 0, 55, 92
2, 493044, Note_off_c, 0, 67, 64
2, 493065, Note_off_c, 0, 55, 64
2, 493102, Note_on_c, 0, 70, 74
2, 493106, Note_off_c, 0, 72, 64
2, 493176, Control_c, 0, 64, 0
2, 493185, Note_on_c, 0, 58, 84
2, 493208, Control_c, 0, 64, 127
2, 493213, Note_off_c, 0, 70, 64
2, 493254, Note_off_c, 0, 58, 64
2, 493268, Note_on_c, 0, 55, 67
2, 493345, Note_off_c, 0, 55, 64
2, 493361, Note_on_c, 0, 58, 88
2, 493431, Control_c, 0, 64, 0
2, 493437, Note_off_c, 0, 58, 64
2, 493443, Note_on_c, 0, 51, 98
2, 493450, Note_on_c, 0, 70, 76
2, 493450, Note_on_c, 0, 67, 77
2, 493468, Control_c, 0, 64, 127
2, 493520, Note_off_c, 0, 51, 64
2, 493526, Note_on_c, 0, 63, 86
2, 493539, Note_off_c, 0, 67, 64
2, 493578, Note_off_c, 0, 63, 64
2, 493584, Note_off_c, 0, 70, 64
2, 493612, Control_c, 0, 64, 0
2, 493617, Note_on_c, 0, 68, 88
2, 493621, Note_on_c, 0, 65, 86
2, 493626, Note_on_c, 0, 63, 96
2, 493655, Control_c, 0, 64, 127
2, 493785, Control_c, 0, 64, 0
2, 493790, Note_off_c, 0, 65, 64
2, 493793, Note_off_c, 0, 63, 64
2, 493798, Note_on_c, 0, 62, 74
2, 493820, Control_c, 0, 64, 127
2, 493851, Note_off_c, 0, 68, 64
2, 493865, Note_off_c, 0, 62, 64
2, 493891, Note_on_c, 0, 65, 84
2, 493963, Note_off_c, 0, 65, 64
2, 493975, Note_on_c, 0, 62, 79
2, 494055, Note_on_c, 0, 65, 71
2, 494062, Note_off_c, 0, 62, 64
2, 494124, Note_off_c, 0, 65, 64
2, 494126, Control_c, 0, 64, 0
2, 494140, Note_on_c, 0, 70, 79
2, 494144, Note_on_c, 0, 74, 77
2, 494147, Note_on_c, 0, 58, 94
2, 494162, Control_c, 0, 64, 127
2, 494218, Note_off_c, 0, 58, 64
2, 494222, Note_off_c, 0, 74, 64
2, 494223, Note_off_c, 0, 70, 64
2, 494226, Note_on_c, 0, 68, 81
2, 494274, Note_off_c, 0, 68, 64
2, 494314, Control_c, 0, 64, 0
2, 494320, Note_on_c, 0, 68, 92
2, 494320, Note_on_c, 0, 75, 86
2, 494326, Note_on_c, 0, 70, 92
2, 494361, Control_c, 0, 64, 127
2, 494493, Note_off_c, 0, 70, 64
2, 494505, Note_off_c, 0, 68, 64
2, 494508, Note_on_c, 0, 67, 78
2, 494519, Note_off_c, 0, 75, 64
2, 494576, Note_off_c, 0, 67, 64
2, 494599, Note_on_c, 0, 70, 90
2, 494656, Note_off_c, 0, 70, 64
2, 494661, Control_c, 0, 64, 0
2, 494674, Note_on_c, 0, 67, 68
2, 494685, Control_c, 0, 64, 127
2, 494754, Note_off_c, 0, 67, 64
2, 494758, Note_on_c, 0, 70, 88
2, 494832, Note_off_c, 0, 70, 64
2, 494842, Note_on_c, 0, 73, 84
2, 494844, Note_on_c, 0, 65, 69
2, 494849, Control_c, 0, 64, 0
2, 494879, Control_c, 0, 64, 127
2, 494910, Note_off_c, 0, 73, 64
2, 494924, Note_off_c, 0, 65, 64
2, 494924, Note_on_c, 0, 70, 63
2, 494985, Note_off_c, 0, 70, 64
2, 495008, Note_on_c, 0, 64, 68
2, 495015, Note_on_c, 0, 82, 78
2, 495015, Control_c, 0, 64, 0
2, 495064, Control_c, 0, 64, 127
2, 495087, Note_off_c, 0, 82, 64
2, 495089, Note_on_c, 0, 67, 66
2, 495092, Note_on_c, 0, 72, 78
2, 495107, Note_off_c, 0, 64, 64
2, 495164, Note_off_c, 0, 67, 64
2, 495174, Control_c, 0, 64, 0
2, 495177, Note_on_c, 0, 80, 67
2, 495183, Note_off_c, 0, 72, 64
2, 495183, Note_on_c, 0, 65, 59
2, 495218, Control_c, 0, 64, 127
2, 495255, Note_off_c, 0, 80, 64
2, 495259, Note_off_c, 0, 65, 64
2, 495261, Note_on_c, 0, 68, 68
2, 495265, Note_on_c, 0, 72, 73
2, 495312, Note_off_c, 0, 68, 64
2, 495331, Note_off_c, 0, 72, 64
2, 495335, Control_c, 0, 64, 0
2, 495342, Note_on_c, 0, 80, 73
2, 495348, Note_on_c, 0, 62, 68
2, 495379, Control_c, 0, 64, 127
2, 495416, Note_on_c, 0, 70, 77
2, 495419, Note_off_c, 0, 80, 64
2, 495426, Note_on_c, 0, 65, 57
2, 495445, Note_off_c, 0, 62, 64
2, 495501, Note_off_c, 0, 70, 64
2, 495501, Note_on_c, 0, 79, 61
2, 495506, Note_on_c, 0, 63, 69
2, 495509, Control_c, 0, 64, 0
2, 495520, Note_off_c, 0, 65, 64
2, 495549, Control_c, 0, 64, 127
2, 495576, Note_off_c, 0, 79, 64
2, 495584, Note_on_c, 0, 70, 75
2, 495588, Note_off_c, 0, 63, 64
2, 495591, Note_on_c, 0, 67, 70
2, 495660, Note_off_c, 0, 67, 64
2, 495664, Note_off_c, 0, 70, 64
2, 495667, Control_c, 0, 64, 0
2, 495673, Note_on_c, 0, 79, 68
2, 495674, Note_on_c, 0, 60, 68
2, 495710, Control_c, 0, 64, 127
2, 495741, Note_on_c, 0, 63, 59
2, 495743, Note_on_c, 0, 68, 77
2, 495750, Note_off_c, 0, 60, 64
2, 495750, Note_off_c, 0, 79, 64
2, 495803, Note_off_c, 0, 63, 64
2, 495827, Control_c, 0, 64, 0
2, 495834, Note_on_c, 0, 77, 71
2, 495834, Note_on_c, 0, 62, 76
2, 495839, Note_off_c, 0, 68, 64
2, 495871, Control_c, 0, 64, 127
2, 495895, Note_off_c, 0, 77, 64
2, 495901, Note_off_c, 0, 62, 64
2, 495908, Note_on_c, 0, 65, 66
2, 495910, Note_on_c, 0, 68, 79
2, 495982, Note_off_c, 0, 68, 64
2, 495983, Note_off_c, 0, 65, 64
2, 495997, Note_on_c, 0, 77, 73
2, 496001, Control_c, 0, 64, 0
2, 496007, Note_on_c, 0, 59, 74
2, 496043, Control_c, 0, 64, 127
2, 496073, Note_off_c, 0, 77, 64
2, 496074, Note_on_c, 0, 62, 71
2, 496076, Note_on_c, 0, 67, 77
2, 496102, Note_off_c, 0, 59, 64
2, 496137, Note_off_c, 0, 67, 64
2, 496159, Note_off_c, 0, 62, 64
2, 496160, Control_c, 0, 64, 0
2, 496165, Note_on_c, 0, 75, 79
2, 496167, Note_on_c, 0, 60, 61
2, 496195, Control_c, 0, 64, 127
2, 496233, Note_off_c, 0, 75, 64
2, 496240, Note_on_c, 0, 63, 76
2, 496241, Note_on_c, 0, 67, 72
2, 496243, Note_off_c, 0, 60, 64
2, 496294, Note_off_c, 0, 63, 64
2, 496309, Note_off_c, 0, 67, 64
2, 496315, Control_c, 0, 64, 0
2, 496327, Note_on_c, 0, 75, 82
2, 496331, Note_on_c, 0, 57, 80
2, 496366, Control_c, 0, 64, 127
2, 496398, Note_off_c, 0, 75, 64
2, 496400, Note_on_c, 0, 66, 86
2, 496402, Note_on_c, 0, 60, 70
2, 496437, Note_off_c, 0, 57, 64
2, 496467, Note_off_c, 0, 66, 64
2, 496479, Note_off_c, 0, 60, 64
2, 496484, Control_c, 0, 64, 0
2, 496488, Note_on_c, 0, 58, 82
2, 496488, Note_on_c, 0, 74, 68
2, 496518, Control_c, 0, 64, 127
2, 496556, Note_off_c, 0, 74, 64
2, 496556, Note_off_c, 0, 58, 64
2, 496588, Note_on_c, 0, 62, 66
2, 496588, Note_on_c, 0, 67, 71
2, 496650, Note_off_c, 0, 62, 64
2, 496654, Note_off_c, 0, 67, 64
2, 496676, Note_on_c, 0, 58, 86
2, 496680, Note_on_c, 0, 74, 81
2, 496708, Control_c, 0, 64, 0
2, 496734, Note_off_c, 0, 58, 64
2, 496748, Control_c, 0, 64, 127
2, 496757, Note_off_c, 0, 74, 64
2, 496770, Note_on_c, 0, 62, 66
2, 496776, Note_on_c, 0, 68, 91
2, 496845, Note_off_c, 0, 68, 64
2, 496852, Note_on_c, 0, 58, 92
2, 496859, Note_off_c, 0, 62, 64
2, 496860, Note_on_c, 0, 74, 78
2, 496866, Control_c, 0, 64, 0
2, 496896, Control_c, 0, 64, 127
2, 496934, Note_on_c, 0, 65, 82
2, 496934, Note_on_c, 0, 62, 74
2, 496936, Note_on_c, 0, 68, 91
2, 496938, Note_off_c, 0, 58, 64
2, 496949, Note_off_c, 0, 74, 64
2, 496966, Note_off_c, 0, 62, 64
2, 496971, Note_off_c, 0, 65, 64
2, 496984, Note_off_c, 0, 68, 64
2, 497017, Control_c, 0, 64, 0
2, 497018, Note_on_c, 0, 64, 85
2, 497018, Note_on_c, 0, 61, 100
2, 497025, Note_on_c, 0, 69, 82
2, 497063, Control_c, 0, 64, 127
2, 497102, Note_off_c, 0, 61, 64
2, 497104, Note_on_c, 0, 49, 78
2, 497131, Note_off_c, 0, 64, 64
2, 497157, Note_off_c, 0, 49, 64
2, 497177, Control_c, 0, 64, 0
2, 497183, Note_off_c, 0, 69, 64
2, 497194, Note_on_c, 0, 58, 107
2, 497199, Note_on_c, 0, 74, 82
2, 497222, Control_c, 0, 64, 127
2, 497267, Note_on_c, 0, 46, 101
2, 497271, Note_on_c, 0, 62, 85
2, 497274, Note_off_c, 0, 58, 64
2, 497277, Note_on_c, 0, 68, 101
2, 497301, Note_off_c, 0, 74, 64
2, 497313, Note_off_c, 0, 62, 64
2, 497322, Note_off_c, 0, 46, 64
2, 497327, Note_off_c, 0, 68, 64
2, 497352, Control_c, 0, 64, 0
2, 497360, Note_on_c, 0, 69, 86
2, 497361, Note_on_c, 0, 57, 93
2, 497361, Note_on_c, 0, 61, 92
2, 497389, Control_c, 0, 64, 127
2, 497428, Note_off_c, 0, 57, 64
2, 497436, Note_on_c, 0, 45, 96
2, 497475, Note_off_c, 0, 61, 64
2, 497482, Note_off_c, 0, 45, 64
2, 497494, Note_off_c, 0, 69, 64
2, 497513, Control_c, 0, 64, 0
2, 497526, Note_on_c, 0, 74, 92
2, 497526, Note_on_c, 0, 58, 109
2, 497539, Control_c, 0, 64, 127
2, 497600, Note_on_c, 0, 46, 93
2, 497600, Note_on_c, 0, 68, 98
2, 497601, Note_on_c, 0, 62, 94
2, 497630, Note_off_c, 0, 58, 64
2, 497630, Note_off_c, 0, 74, 64
2, 497640, Note_off_c, 0, 62, 64
2, 497649, Note_off_c, 0, 68, 64
2, 497652, Note_off_c, 0, 46, 64
2, 497669, Control_c, 0, 64, 0
2, 497686, Note_on_c, 0, 57, 96
2, 497686, Note_on_c, 0, 69, 98
2, 497686, Note_on_c, 0, 61, 92
2, 497717, Control_c, 0, 64, 127
2, 497729, Note_off_c, 0, 61, 64
2, 497754, Note_off_c, 0, 69, 64
2, 497766, Note_on_c, 0, 45, 88
2, 497836, Note_off_c, 0, 57, 64
2, 497838, Note_off_c, 0, 45, 64
2, 497977, Note_on_c, 0, 76, 66
2, 498016, Note_on_c, 0, 73, 84
2, 498031, Note_off_c, 0, 76, 64
2, 498062, Note_on_c, 0, 64, 90
2, 498062, Note_on_c, 0, 55, 78
2, 498062, Note_on_c, 0, 57, 81
2, 498066, Note_on_c, 0, 61, 88
2, 498066, Note_on_c, 0, 76, 81
2, 498069, Control_c, 0, 64, 0
2, 498080, Note_off_c, 0, 73, 64
2, 498109, Control_c, 0, 64, 127
2, 498115, Note_on_c, 0, 73, 79
2, 498123, Note_off_c, 0, 76, 64
2, 498156, Note_off_c, 0, 57, 64
2, 498158, Note_on_c, 0, 79, 68
2, 498163, Note_off_c, 0, 73, 64
2, 498190, Note_on_c, 0, 76, 94
2, 498212, Note_off_c, 0, 79, 64
2, 498234, Note_on_c, 0, 73, 88
2, 498259, Note_off_c, 0, 76, 64
2, 498266, Note_on_c, 0, 69, 84
2, 498277, Note_off_c, 0, 64, 64
2, 498281, Note_off_c, 0, 61, 64
2, 498300, Note_off_c, 0, 73, 64
2, 498301, Note_off_c, 0, 55, 64
2, 498317, Note_off_c, 0, 69, 64
2, 498319, Note_on_c, 0, 76, 70
2, 498350, Note_on_c, 0, 73, 73
2, 498381, Note_off_c, 0, 76, 64
2, 498386, Note_on_c, 0, 61, 96
2, 498386, Note_on_c, 0, 55, 79
2, 498390, Note_on_c, 0, 64, 94
2, 498390, Note_on_c, 0, 57, 77
2, 498393, Note_on_c, 0, 76, 88
2, 498413, Note_off_c, 0, 73, 64
2, 498426, Control_c, 0, 64, 0
2, 498438, Note_on_c, 0, 73, 78
2, 498450, Control_c, 0, 64, 127
2, 498455, Note_off_c, 0, 76, 64
2, 498482, Note_on_c, 0, 79, 79
2, 498508, Note_off_c, 0, 73, 64
2, 498526, Note_on_c, 0, 76, 79
2, 498550, Note_off_c, 0, 79, 64
2, 498583, Note_on_c, 0, 73, 69
2, 498599, Note_off_c, 0, 76, 64
2, 498607, Note_off_c, 0, 64, 64
2, 498611, Note_off_c, 0, 57, 64
2, 498611, Note_off_c, 0, 61, 64
2, 498616, Note_off_c, 0, 55, 64
2, 498629, Note_on_c, 0, 69, 90
2, 498649, Note_off_c, 0, 73, 64
2, 498666, Note_on_c, 0, 81, 56
2, 498674, Note_off_c, 0, 69, 64
2, 498706, Note_on_c, 0, 77, 68
2, 498737, Note_off_c, 0, 81, 64
2, 498741, Control_c, 0, 64, 0
2, 498745, Note_on_c, 0, 74, 59
2, 498749, Note_on_c, 0, 53, 66
2, 498752, Note_on_c, 0, 62, 66
2, 498775, Control_c, 0, 64, 127
2, 498781, Note_off_c, 0, 77, 64
2, 498794, Note_on_c, 0, 69, 63
2, 498811, Note_off_c, 0, 62, 64
2, 498811, Note_off_c, 0, 74, 64
2, 498846, Note_on_c, 0, 81, 70
2, 498863, Note_off_c, 0, 53, 64
2, 498874, Note_off_c, 0, 69, 64
2, 498894, Note_on_c, 0, 79, 63
2, 498917, Note_off_c, 0, 81, 64
2, 498922, Note_on_c, 0, 61, 72
2, 498925, Note_on_c, 0, 76, 69
2, 498925, Note_on_c, 0, 55, 65
2, 498934, Control_c, 0, 64, 0
2, 498946, Control_c, 0, 64, 127
2, 498954, Note_off_c, 0, 79, 64
2, 498968, Note_on_c, 0, 69, 66
2, 498976, Note_off_c, 0, 76, 64
2, 499014, Note_on_c, 0, 81, 70
2, 499037, Note_off_c, 0, 55, 64
2, 499045, Note_off_c, 0, 61, 64
2, 499046, Note_on_c, 0, 77, 70
2, 499048, Note_off_c, 0, 69, 64
2, 499075, Note_off_c, 0, 81, 64
2, 499090, Note_on_c, 0, 74, 64
2, 499095, Note_on_c, 0, 53, 75
2, 499095, Note_on_c, 0, 62, 72
2, 499102, Control_c, 0, 64, 0
2, 499126, Note_off_c, 0, 77, 64
2, 499134, Control_c, 0, 64, 127
2, 499141, Note_on_c, 0, 69, 67
2, 499144, Note_off_c, 0, 74, 64
2, 499152, Note_off_c, 0, 62, 64
2, 499181, Note_on_c, 0, 81, 75
2, 499198, Note_off_c, 0, 53, 64
2, 499221, Note_on_c, 0, 79, 75
2, 499224, Note_off_c, 0, 69, 64
2, 499252, Note_on_c, 0, 61, 88
2, 499257, Note_on_c, 0, 55, 72
2, 499257, Note_on_c, 0, 76, 77
2, 499258, Control_c, 0, 64, 0
2, 499265, Note_off_c, 0, 81, 64
2, 499280, Control_c, 0, 64, 127
2, 499307, Note_off_c, 0, 79, 64
2, 499313, Note_on_c, 0, 69, 70
2, 499318, Note_off_c, 0, 76, 64
2, 499360, Note_off_c, 0, 61, 64
2, 499369, Note_on_c, 0, 81, 72
2, 499383, Note_off_c, 0, 55, 64
2, 499415, Note_on_c, 0, 77, 76
2, 499421, Control_c, 0, 64, 0
2, 499431, Note_off_c, 0, 69, 64
2, 499442, Note_on_c, 0, 53, 81
2, 499442, Note_on_c, 0, 62, 85
2, 499446, Note_on_c, 0, 74, 76
2, 499447, Note_off_c, 0, 81, 64
2, 499447, Control_c, 0, 64, 127
2, 499484, Note_off_c, 0, 77, 64
2, 499493, Note_off_c, 0, 62, 64
2, 499499, Note_on_c, 0, 69, 78
2, 499519, Note_off_c, 0, 53, 64
2, 499527, Note_off_c, 0, 74, 64
2, 499535, Note_on_c, 0, 81, 78
2, 499568, Note_off_c, 0, 69, 64
2, 499580, Note_on_c, 0, 79, 88
2, 499602, Note_off_c, 0, 81, 64
2, 499626, Note_on_c, 0, 77, 106
2, 499638, Note_off_c, 0, 79, 64
2, 499671, Note_on_c, 0, 76, 76
2, 499681, Note_off_c, 0, 77, 64
2, 499712, Note_on_c, 0, 74, 94
2, 499732, Note_off_c, 0, 76, 64
2, 499762, Note_on_c, 0, 72, 94
2, 499770, Note_off_c, 0, 74, 64
2, 499802, Note_on_c, 0, 70, 64
2, 499807, Note_off_c, 0, 72, 64
2, 499842, Note_on_c, 0, 69, 66
2, 499851, Note_off_c, 0, 70, 64
2, 499877, Note_on_c, 0, 67, 80
2, 499891, Note_off_c, 0, 69, 64
2, 499920, Note_on_c, 0, 65, 97
2, 499923, Note_off_c, 0, 67, 64
2, 499970, Note_off_c, 0, 65, 64
2, 499970, Note_on_c, 0, 64, 67
2, 500010, Note_on_c, 0, 62, 100
2, 500019, Note_off_c, 0, 64, 64
2, 500045, Note_on_c, 0, 61, 85
2, 500059, Note_off_c, 0, 62, 64
2, 500088, Note_on_c, 0, 62, 101
2, 500091, Note_off_c, 0, 61, 64
2, 500122, Note_on_c, 0, 63, 105
2, 500125, Note_on_c, 0, 43, 94
2, 500134, Note_off_c, 0, 62, 64
2, 500137, Control_c, 0, 64, 0
2, 500169, Note_on_c, 0, 55, 96
2, 500170, Control_c, 0, 64, 127
2, 500173, Note_off_c, 0, 43, 64
2, 500218, Note_off_c, 0, 55, 64
2, 500221, Note_on_c, 0, 54, 106
2, 500266, Note_off_c, 0, 54, 64
2, 500268, Note_on_c, 0, 55, 101
2, 500297, Control_c, 0, 64, 0
2, 500321, Note_on_c, 0, 58, 106
2, 500326, Note_off_c, 0, 55, 64
2, 500329, Control_c, 0, 64, 127
2, 500340, Note_off_c, 0, 63, 64
2, 500353, Note_off_c, 0, 58, 64
2, 500408, Note_on_c, 0, 63, 94
2, 500410, Note_on_c, 0, 67, 84
2, 500410, Control_c, 0, 64, 0
2, 500449, Note_off_c, 0, 63, 64
2, 500453, Note_off_c, 0, 67, 64
2, 500492, Note_on_c, 0, 57, 96
2, 500533, Note_off_c, 0, 57, 64
2, 500608, Note_on_c, 0, 65, 78
2, 500608, Note_on_c, 0, 62, 81
2, 500646, Note_off_c, 0, 65, 64
2, 500649, Note_off_c, 0, 62, 64
2, 500706, Note_on_c, 0, 45, 90
2, 500743, Note_off_c, 0, 45, 64
2, 500791, Note_on_c, 0, 61, 90
2, 500796, Note_on_c, 0, 64, 80
2, 500833, Note_off_c, 0, 64, 64
2, 500834, Note_off_c, 0, 61, 64
2, 500881, Note_on_c, 0, 62, 86
2, 500971, Note_on_c, 0, 50, 70
2, 500995, Control_c, 0, 64, 127
2, 501061, Note_on_c, 0, 38, 90
2, 501063, Note_off_c, 0, 50, 64
2, 501113, Note_off_c, 0, 38, 64
2, 501145, Note_on_c, 0, 69, 74
2, 501155, Control_c, 0, 64, 0
2, 501175, Note_off_c, 0, 62, 64
2, 501200, Note_off_c, 0, 69, 64
2, 501237, Note_on_c, 0, 62, 88
2, 501318, Note_on_c, 0, 65, 67
2, 501333, Note_off_c, 0, 62, 64
2, 501402, Note_on_c, 0, 58, 88
2, 501405, Note_off_c, 0, 65, 64
2, 501479, Note_off_c, 0, 58, 64
2, 501484, Note_on_c, 0, 70, 84
2, 501491, Note_on_c, 0, 55, 75
2, 501495, Control_c, 0, 64, 127
2, 501539, Note_off_c, 0, 55, 64
2, 501543, Note_off_c, 0, 70, 64
2, 501566, Control_c, 0, 64, 0
2, 501571, Note_on_c, 0, 64, 92
2, 501574, Note_on_c, 0, 48, 79
2, 501610, Note_on_c, 0, 50, 67
2, 501611, Note_on_c, 0, 65, 67
2, 501621, Note_off_c, 0, 64, 64
2, 501646, Note_on_c, 0, 67, 74
2, 501650, Note_on_c, 0, 52, 78
2, 501656, Note_off_c, 0, 48, 64
2, 501668, Note_off_c, 0, 65, 64
2, 501680, Note_off_c, 0, 50, 64
2, 501694, Note_on_c, 0, 48, 67
2, 501694, Note_on_c, 0, 64, 78
2, 501714, Note_off_c, 0, 67, 64
2, 501717, Note_off_c, 0, 52, 64
2, 501738, Note_on_c, 0, 60, 85
2, 501742, Note_on_c, 0, 45, 73
2, 501752, Note_off_c, 0, 64, 64
2, 501764, Note_off_c, 0, 48, 64
2, 501820, Note_on_c, 0, 57, 74
2, 501828, Note_on_c, 0, 72, 79
2, 501862, Note_off_c, 0, 45, 64
2, 501875, Note_off_c, 0, 60, 64
2, 501910, Note_off_c, 0, 72, 64
2, 501911, Note_on_c, 0, 65, 80
2, 501914, Note_on_c, 0, 50, 80
2, 501915, Note_off_c, 0, 57, 64
2, 501997, Note_on_c, 0, 53, 86
2, 501999, Note_on_c, 0, 69, 78
2, 502001, Note_off_c, 0, 50, 64
2, 502021, Note_off_c, 0, 65, 64
2, 502083, Note_on_c, 0, 62, 85
2, 502087, Note_off_c, 0, 53, 64
2, 502090, Note_on_c, 0, 46, 100
2, 502094, Note_off_c, 0, 69, 64
2, 502134, Note_off_c, 0, 46, 64
2, 502161, Note_on_c, 0, 58, 84
2, 502166, Note_on_c, 0, 74, 79
2, 502194, Note_off_c, 0, 62, 64
2, 502211, Note_off_c, 0, 58, 64
2, 502225, Note_off_c, 0, 74, 64
2, 502248, Note_on_c, 0, 70, 94
2, 502250, Note_on_c, 0, 55, 84
2, 502290, Note_on_c, 0, 57, 77
2, 502293, Note_on_c, 0, 72, 79
2, 502303, Note_off_c, 0, 70, 64
2, 502312, Note_off_c, 0, 55, 64
2, 502326, Note_on_c, 0, 74, 68
2, 502330, Note_on_c, 0, 58, 66
2, 502374, Note_on_c, 0, 55, 77
2, 502378, Note_on_c, 0, 70, 84
2, 502387, Note_off_c, 0, 57, 64
2, 502391, Note_off_c, 0, 72, 64
2, 502402, Control_c, 0, 64, 127
2, 502403, Note_off_c, 0, 74, 64
2, 502404, Note_off_c, 0, 58, 64
2, 502414, Note_on_c, 0, 52, 84
2, 502417, Note_on_c, 0, 67, 84
2, 502441, Note_off_c, 0, 70, 64
2, 502467, Note_off_c, 0, 52, 64
2, 502471, Note_off_c, 0, 55, 64
2, 502513, Note_on_c, 0, 79, 66
2, 502566, Note_off_c, 0, 79, 64
2, 502584, Note_off_c, 0, 67, 64
2, 502590, Note_on_c, 0, 70, 92
2, 502596, Note_on_c, 0, 60, 84
2, 502637, Control_c, 0, 64, 0
2, 502649, Control_c, 0, 64, 127
2, 502673, Note_off_c, 0, 70, 64
2, 502678, Note_on_c, 0, 67, 86
2, 502688, Note_on_c, 0, 64, 84
2, 502756, Note_off_c, 0, 64, 64
2, 502756, Note_off_c, 0, 67, 64
2, 502765, Note_on_c, 0, 69, 86
2, 502770, Note_on_c, 0, 65, 84
2, 502809, Note_off_c, 0, 69, 64
2, 502816, Control_c, 0, 64, 0
2, 502837, Control_c, 0, 64, 127
2, 502846, Note_on_c, 0, 81, 80
2, 502894, Note_off_c, 0, 65, 64
2, 502897, Note_off_c, 0, 60, 64
2, 502906, Note_off_c, 0, 81, 64
2, 502928, Control_c, 0, 64, 0
2, 502946, Note_on_c, 0, 60, 84
2, 502949, Note_on_c, 0, 72, 81
2, 502966, Control_c, 0, 64, 127
2, 502992, Note_off_c, 0, 72, 64
2, 503026, Note_on_c, 0, 69, 69
2, 503026, Note_on_c, 0, 65, 57
2, 503088, Note_off_c, 0, 69, 64
2, 503098, Note_off_c, 0, 65, 64
2, 503110, Note_on_c, 0, 67, 77
2, 503111, Note_on_c, 0, 70, 96
2, 503156, Note_off_c, 0, 70, 64
2, 503189, Note_off_c, 0, 67, 64
2, 503193, Note_on_c, 0, 82, 88
2, 503196, Note_off_c, 0, 60, 64
2, 503239, Note_off_c, 0, 82, 64
2, 503286, Note_on_c, 0, 76, 50
2, 503288, Note_on_c, 0, 70, 75
2, 503289, Note_on_c, 0, 60, 68
2, 503378, Note_on_c, 0, 69, 64
2, 503382, Note_on_c, 0, 77, 72
2, 503392, Note_off_c, 0, 76, 64
2, 503394, Note_off_c, 0, 70, 64
2, 503424, Note_off_c, 0, 69, 64
2, 503434, Note_off_c, 0, 77, 64
2, 503466, Note_on_c, 0, 70, 75
2, 503466, Note_on_c, 0, 67, 69
2, 503516, Note_off_c, 0, 67, 64
2, 503549, Note_off_c, 0, 70, 64
2, 503551, Note_on_c, 0, 65, 54
2, 503557, Note_on_c, 0, 69, 61
2, 503592, Note_off_c, 0, 65, 64
2, 503613, Note_off_c, 0, 60, 64
2, 503648, Note_on_c, 0, 60, 56
2, 503649, Note_on_c, 0, 64, 63
2, 503652, Note_on_c, 0, 67, 63
2, 503671, Control_c, 0, 64, 0
2, 503676, Note_off_c, 0, 69, 64
2, 503721, Control_c, 0, 64, 127
2, 503814, Note_off_c, 0, 64, 64
2, 503825, Note_off_c, 0, 60, 64
2, 503880, Note_off_c, 0, 67, 64
2, 503952, Note_on_c, 0, 72, 61
2, 504020, Note_off_c, 0, 72, 64
2, 504021, Control_c, 0, 64, 0
2, 504046, Note_on_c, 0, 65, 66
2, 504050, Note_on_c, 0, 53, 74
2, 504050, Note_on_c, 0, 57, 78
2, 504063, Control_c, 0, 64, 127
2, 504092, Note_off_c, 0, 53, 64
2, 504119, Note_off_c, 0, 65, 64
2, 504120, Note_off_c, 0, 57, 64
2, 504124, Note_on_c, 0, 69, 55
2, 504206, Note_on_c, 0, 62, 70
2, 504206, Note_on_c, 0, 58, 78
2, 504206, Note_on_c, 0, 46, 74
2, 504208, Note_off_c, 0, 69, 64
2, 504231, Control_c, 0, 64, 127
2, 504248, Note_off_c, 0, 46, 64
2, 504276, Note_off_c, 0, 58, 64
2, 504294, Note_on_c, 0, 74, 60
2, 504299, Note_off_c, 0, 62, 64
2, 504329, Note_off_c, 0, 74, 64
2, 504389, Note_on_c, 0, 65, 69
2, 504396, Note_on_c, 0, 48, 61
2, 504403, Note_on_c, 0, 57, 61
2, 504435, Control_c, 0, 64, 0
2, 504448, Control_c, 0, 64, 127
2, 504564, Control_c, 0, 64, 0
2, 504579, Note_on_c, 0, 55, 61
2, 504580, Note_on_c, 0, 64, 69
2, 504585, Note_off_c, 0, 57, 64
2, 504587, Note_off_c, 0, 65, 64
2, 504610, Control_c, 0, 64, 127
2, 504667, Note_on_c, 0, 70, 66
2, 504697, Note_off_c, 0, 64, 64
2, 504700, Note_off_c, 0, 55, 64
2, 504708, Note_off_c, 0, 48, 64
2, 504729, Note_off_c, 0, 70, 64
2, 504736, Control_c, 0, 64, 0
2, 504758, Note_on_c, 0, 67, 77
2, 504839, Note_on_c, 0, 76, 62
2, 504860, Note_off_c, 0, 67, 64
2, 504887, Note_off_c, 0, 76, 64
2, 504922, Note_on_c, 0, 70, 82
2, 504926, Note_on_c, 0, 60, 71
2, 504927, Note_on_c, 0, 64, 71
2, 504948, Control_c, 0, 64, 127
2, 504971, Note_off_c, 0, 60, 64
2, 504972, Note_off_c, 0, 64, 64
2, 504996, Note_on_c, 0, 79, 70
2, 505000, Note_off_c, 0, 70, 64
2, 505045, Control_c, 0, 64, 0
2, 505056, Note_off_c, 0, 79, 64
2, 505078, Note_on_c, 0, 65, 73
2, 505083, Note_on_c, 0, 70, 82
2, 505090, Control_c, 0, 64, 127
2, 505173, Note_on_c, 0, 53, 60
2, 505225, Note_off_c, 0, 53, 64
2, 505231, Note_off_c, 0, 65, 64
2, 505258, Note_on_c, 0, 69, 61
2, 505271, Note_off_c, 0, 70, 64
2, 505278, Control_c, 0, 64, 0
2, 505332, Note_off_c, 0, 69, 64
2, 505341, Note_on_c, 0, 72, 78
2, 505400, Note_off_c, 0, 72, 64
2, 505409, Control_c, 0, 64, 127
2, 505416, Note_on_c, 0, 63, 74
2, 505485, Note_off_c, 0, 63, 64
2, 505499, Note_on_c, 0, 75, 70
2, 505559, Note_off_c, 0, 75, 64
2, 505582, Control_c, 0, 64, 0
2, 505590, Note_on_c, 0, 57, 38
2, 505592, Note_on_c, 0, 65, 96
2, 505621, Control_c, 0, 64, 127
2, 505665, Note_on_c, 0, 72, 88
2, 505676, Note_off_c, 0, 57, 64
2, 505686, Note_off_c, 0, 65, 64
2, 505728, Note_off_c, 0, 72, 64
2, 505751, Control_c, 0, 64, 0
2, 505756, Note_on_c, 0, 58, 96
2, 505759, Note_on_c, 0, 73, 84
2, 505794, Control_c, 0, 64, 127
2, 505839, Note_on_c, 0, 74, 81
2, 505863, Note_off_c, 0, 73, 64
2, 505896, Note_off_c, 0, 74, 64
2, 505904, Note_off_c, 0, 58, 64
2, 505914, Note_on_c, 0, 67, 81
2, 505981, Note_off_c, 0, 67, 64
2, 505984, Control_c, 0, 64, 0
2, 505991, Note_on_c, 0, 59, 81
2, 505997, Note_on_c, 0, 74, 71
2, 506007, Control_c, 0, 64, 127
2, 506043, Note_off_c, 0, 74, 64
2, 506044, Note_off_c, 0, 59, 64
2, 506076, Control_c, 0, 64, 0
2, 506081, Note_on_c, 0, 60, 86
2, 506086, Note_on_c, 0, 75, 96
2, 506122, Control_c, 0, 64, 127
2, 506172, Note_on_c, 0, 76, 74
2, 506186, Note_off_c, 0, 75, 64
2, 506228, Note_off_c, 0, 76, 64
2, 506234, Note_off_c, 0, 60, 64
2, 506247, Note_on_c, 0, 69, 74
2, 506293, Note_off_c, 0, 69, 64
2, 506323, Note_on_c, 0, 61, 90
2, 506327, Note_on_c, 0, 76, 86
2, 506333, Control_c, 0, 64, 0
2, 506372, Control_c, 0, 64, 127
2, 506392, Note_off_c, 0, 76, 64
2, 506394, Note_off_c, 0, 61, 64
2, 506402, Note_on_c, 0, 62, 88
2, 506408, Note_on_c, 0, 79, 86
2, 506409, Control_c, 0, 64, 0
2, 506447, Control_c, 0, 64, 127
2, 506482, Note_on_c, 0, 77, 79
2, 506493, Note_off_c, 0, 79, 64
2, 506519, Note_off_c, 0, 62, 64
2, 506538, Note_off_c, 0, 77, 64
2, 506558, Note_on_c, 0, 70, 81
2, 506636, Note_on_c, 0, 77, 74
2, 506641, Note_on_c, 0, 62, 75
2, 506671, Note_off_c, 0, 70, 64
2, 506693, Note_off_c, 0, 77, 64
2, 506705, Control_c, 0, 64, 0
2, 506711, Note_off_c, 0, 62, 64
2, 506718, Note_on_c, 0, 78, 90
2, 506722, Note_on_c, 0, 64, 86
2, 506742, Control_c, 0, 64, 127
2, 506793, Note_off_c, 0, 78, 64
2, 506793, Note_on_c, 0, 79, 75
2, 506809, Note_off_c, 0, 64, 64
2, 506850, Note_off_c, 0, 79, 64
2, 506875, Note_on_c, 0, 72, 79
2, 506950, Note_on_c, 0, 64, 75
2, 506951, Note_on_c, 0, 79, 81
2, 506996, Note_off_c, 0, 72, 64
2, 507019, Note_off_c, 0, 79, 64
2, 507026, Control_c, 0, 64, 0
2, 507034, Note_on_c, 0, 65, 90
2, 507037, Note_on_c, 0, 80, 65
2, 507040, Note_off_c, 0, 64, 64
2, 507064, Control_c, 0, 64, 127
2, 507118, Note_on_c, 0, 81, 76
2, 507125, Note_off_c, 0, 80, 64
2, 507194, Note_on_c, 0, 62, 84
2, 507194, Note_on_c, 0, 77, 86
2, 507213, Note_off_c, 0, 81, 64
2, 507222, Note_off_c, 0, 65, 64
2, 507276, Note_off_c, 0, 77, 64
2, 507286, Note_on_c, 0, 83, 87
2, 507360, Note_off_c, 0, 83, 64
2, 507368, Note_off_c, 0, 62, 64
2, 507370, Note_on_c, 0, 76, 71
2, 507377, Note_on_c, 0, 60, 76
2, 507384, Control_c, 0, 64, 0
2, 507420, Control_c, 0, 64, 127
2, 507445, Note_off_c, 0, 76, 64
2, 507458, Note_on_c, 0, 84, 88
2, 507529, Note_off_c, 0, 84, 64
2, 507540, Note_on_c, 0, 72, 84
2, 507622, Note_on_c, 0, 69, 84
2, 507624, Note_on_c, 0, 73, 84
2, 507637, Note_off_c, 0, 72, 64
2, 507709, Note_off_c, 0, 69, 64
2, 507709, Note_on_c, 0, 74, 88
2, 507711, Note_off_c, 0, 73, 64
2, 507716, Note_on_c, 0, 70, 81
2, 507716, Control_c, 0, 64, 0
2, 507747, Control_c, 0, 64, 127
2, 507797, Note_on_c, 0, 78, 79
2, 507845, Note_off_c, 0, 74, 64
2, 507874, Note_on_c, 0, 79, 71
2, 507882, Note_off_c, 0, 78, 64
2, 507957, Note_on_c, 0, 82, 79
2, 507971, Note_off_c, 0, 79, 64
2, 507992, Note_off_c, 0, 70, 64
2, 508017, Note_off_c, 0, 82, 64
2, 508049, Control_c, 0, 64, 0
2, 508054, Note_on_c, 0, 72, 76
2, 508055, Note_on_c, 0, 76, 84
2, 508072, Control_c, 0, 64, 127
2, 508138, Note_on_c, 0, 79, 67
2, 508176, Note_off_c, 0, 76, 64
2, 508210, Note_on_c, 0, 69, 67
2, 508215, Note_off_c, 0, 79, 64
2, 508216, Note_on_c, 0, 77, 79
2, 508229, Control_c, 0, 64, 0
2, 508242, Control_c, 0, 64, 127
2, 508297, Note_on_c, 0, 81, 77
2, 508316, Note_off_c, 0, 60, 64
2, 508318, Note_off_c, 0, 77, 64
2, 508326, Note_off_c, 0, 72, 64
2, 508376, Note_off_c, 0, 81, 64
2, 508387, Note_on_c, 0, 74, 74
2, 508390, Note_on_c, 0, 60, 48
2, 508393, Note_on_c, 0, 70, 92
2, 508398, Control_c, 0, 64, 0
2, 508409, Control_c, 0, 64, 127
2, 508475, Note_off_c, 0, 69, 64
2, 508478, Note_on_c, 0, 66, 75
2, 508508, Note_off_c, 0, 70, 64
2, 508546, Note_off_c, 0, 74, 64
2, 508552, Control_c, 0, 64, 0
2, 508561, Note_on_c, 0, 67, 67
2, 508563, Note_off_c, 0, 66, 64
2, 508570, Control_c, 0, 64, 127
2, 508633, Note_on_c, 0, 82, 86
2, 508640, Note_off_c, 0, 60, 64
2, 508688, Note_off_c, 0, 82, 64
2, 508714, Note_on_c, 0, 60, 46
2, 508718, Note_on_c, 0, 69, 88
2, 508721, Note_on_c, 0, 72, 86
2, 508727, Control_c, 0, 64, 0
2, 508772, Control_c, 0, 64, 127
2, 508784, Note_off_c, 0, 72, 64
2, 508801, Note_on_c, 0, 76, 76
2, 508867, Control_c, 0, 64, 0
2, 508879, Control_c, 0, 64, 127
2, 508885, Note_on_c, 0, 77, 76
2, 508891, Note_on_c, 0, 65, 67
2, 508895, Note_off_c, 0, 69, 64
2, 508899, Note_off_c, 0, 67, 64
2, 508922, Note_off_c, 0, 76, 64
2, 508961, Note_on_c, 0, 81, 86
2, 508969, Note_off_c, 0, 77, 64
2, 508974, Note_off_c, 0, 60, 64
2, 508997, Note_off_c, 0, 81, 64
2, 509046, Note_on_c, 0, 60, 42
2, 509047, Note_on_c, 0, 67, 85
2, 509050, Note_on_c, 0, 70, 98
2, 509060, Control_c, 0, 64, 0
2, 509078, Control_c, 0, 64, 127
2, 509121, Note_on_c, 0, 74, 76
2, 509128, Note_off_c, 0, 70, 64
2, 509204, Control_c, 0, 64, 0
2, 509212, Note_on_c, 0, 72, 92
2, 509214, Note_on_c, 0, 64, 85
2, 509231, Note_off_c, 0, 74, 64
2, 509243, Note_off_c, 0, 65, 64
2, 509243, Control_c, 0, 64, 127
2, 509295, Note_on_c, 0, 79, 81
2, 509302, Note_off_c, 0, 72, 64
2, 509328, Note_off_c, 0, 64, 64
2, 509333, Note_off_c, 0, 67, 64
2, 509361, Note_off_c, 0, 60, 64
2, 509370, Control_c, 0, 64, 0
2, 509386, Note_on_c, 0, 60, 33
2, 509388, Note_on_c, 0, 69, 76
2, 509392, Note_on_c, 0, 65, 72
2, 509406, Control_c, 0, 64, 127
2, 509444, Note_off_c, 0, 69, 64
2, 509460, Note_off_c, 0, 79, 64
2, 509462, Note_on_c, 0, 72, 74
2, 509522, Note_off_c, 0, 72, 64
2, 509546, Note_on_c, 0, 62, 71
2, 509547, Note_on_c, 0, 71, 85
2, 509559, Control_c, 0, 64, 0
2, 509573, Control_c, 0, 64, 127
2, 509577, Note_off_c, 0, 65, 64
2, 509628, Note_on_c, 0, 77, 77
2, 509643, Note_off_c, 0, 60, 64
2, 509684, Note_off_c, 0, 71, 64
2, 509703, Note_off_c, 0, 77, 64
2, 509718, Note_on_c, 0, 60, 39
2, 509719, Note_on_c, 0, 76, 75
2, 509719, Note_on_c, 0, 72, 78
2, 509729, Note_off_c, 0, 62, 64
2, 509732, Control_c, 0, 64, 0
2, 509770, Control_c, 0, 64, 127
2, 509809, Note_off_c, 0, 76, 64
2, 509816, Note_off_c, 0, 72, 64
2, 509820, Note_off_c, 0, 60, 64
2, 510089, Note_on_c, 0, 72, 79
2, 510120, Control_c, 0, 64, 0
2, 510146, Note_off_c, 0, 72, 64
2, 510167, Note_on_c, 0, 65, 81
2, 510241, Note_on_c, 0, 69, 71
2, 510245, Note_off_c, 0, 65, 64
2, 510321, Note_on_c, 0, 60, 84
2, 510369, Note_off_c, 0, 60, 64
2, 510382, Note_off_c, 0, 69, 64
2, 510406, Note_on_c, 0, 57, 92
2, 510407, Note_on_c, 0, 65, 73
2, 510410, Note_on_c, 0, 60, 88
2, 510449, Note_off_c, 0, 57, 64
2, 510458, Note_off_c, 0, 60, 64
2, 510471, Note_off_c, 0, 65, 64
2, 510490, Note_on_c, 0, 55, 76
2, 510490, Note_on_c, 0, 64, 86
2, 510494, Note_on_c, 0, 58, 88
2, 510562, Note_off_c, 0, 58, 64
2, 510562, Note_on_c, 0, 53, 79
2, 510562, Note_on_c, 0, 57, 85
2, 510564, Note_on_c, 0, 65, 75
2, 510567, Note_off_c, 0, 55, 64
2, 510595, Note_off_c, 0, 64, 64
2, 510646, Note_on_c, 0, 52, 84
2, 510646, Note_on_c, 0, 55, 88
2, 510649, Note_off_c, 0, 57, 64
2, 510651, Note_on_c, 0, 67, 84
2, 510655, Note_off_c, 0, 53, 64
2, 510670, Note_off_c, 0, 65, 64
2, 510688, Note_off_c, 0, 67, 64
2, 510694, Note_off_c, 0, 55, 64
2, 510699, Note_off_c, 0, 52, 64
2, 510734, Note_on_c, 0, 72, 79
2, 510798, Note_off_c, 0, 72, 64
2, 510814, Note_on_c, 0, 67, 84
2, 510889, Note_on_c, 0, 70, 71
2, 510897, Note_off_c, 0, 67, 64
2, 510971, Note_on_c, 0, 60, 85
2, 510977, Note_off_c, 0, 70, 64
2, 511013, Note_off_c, 0, 60, 64
2, 511042, Note_on_c, 0, 58, 88
2, 511046, Note_on_c, 0, 60, 88
2, 511047, Note_on_c, 0, 64, 78
2, 511085, Note_off_c, 0, 58, 64
2, 511089, Note_off_c, 0, 60, 64
2, 511102, Note_off_c, 0, 64, 64
2, 511122, Note_on_c, 0, 60, 85
2, 511122, Note_on_c, 0, 65, 84
2, 511126, Note_on_c, 0, 57, 84
2, 511202, Note_on_c, 0, 67, 84
2, 511202, Note_on_c, 0, 55, 86
2, 511202, Note_on_c, 0, 58, 85
2, 511203, Note_off_c, 0, 60, 64
2, 511208, Note_off_c, 0, 57, 64
2, 511212, Note_off_c, 0, 65, 64
2, 511283, Note_off_c, 0, 58, 64
2, 511290, Note_on_c, 0, 53, 54
2, 511290, Note_on_c, 0, 69, 84
2, 511296, Note_on_c, 0, 57, 69
2, 511299, Note_off_c, 0, 67, 64
2, 511304, Note_off_c, 0, 55, 64
2, 511347, Note_off_c, 0, 53, 64
2, 511353, Note_off_c, 0, 57, 64
2, 511358, Note_off_c, 0, 69, 64
2, 511374, Note_on_c, 0, 72, 88
2, 511432, Note_off_c, 0, 72, 64
2, 511462, Note_on_c, 0, 65, 86
2, 511517, Note_off_c, 0, 65, 64
2, 511538, Note_on_c, 0, 72, 86
2, 511542, Note_on_c, 0, 57, 76
2, 511542, Note_on_c, 0, 53, 68
2, 511606, Note_on_c, 0, 55, 78
2, 511608, Note_on_c, 0, 65, 84
2, 511609, Note_on_c, 0, 58, 94
2, 511611, Note_off_c, 0, 72, 64
2, 511613, Note_off_c, 0, 57, 64
2, 511633, Note_off_c, 0, 53, 64
2, 511678, Note_off_c, 0, 55, 64
2, 511682, Note_on_c, 0, 57, 90
2, 511682, Note_on_c, 0, 60, 88
2, 511682, Note_on_c, 0, 63, 86
2, 511700, Note_off_c, 0, 58, 64
2, 511701, Note_off_c, 0, 65, 64
2, 511727, Note_off_c, 0, 63, 64
2, 511767, Note_off_c, 0, 60, 64
2, 511767, Note_on_c, 0, 63, 82
2, 511770, Note_on_c, 0, 58, 82
2, 511780, Note_off_c, 0, 57, 64
2, 511814, Note_on_c, 0, 62, 63
2, 511825, Note_off_c, 0, 63, 64
2, 511857, Note_on_c, 0, 61, 80
2, 511867, Note_off_c, 0, 62, 64
2, 511894, Note_on_c, 0, 62, 75
2, 511909, Note_off_c, 0, 61, 64
2, 511910, Note_off_c, 0, 58, 64
2, 511931, Note_on_c, 0, 64, 75
2, 511942, Note_off_c, 0, 62, 64
2, 511978, Note_on_c, 0, 62, 75
2, 511987, Note_off_c, 0, 64, 64
2, 512017, Note_on_c, 0, 66, 87
2, 512018, Note_on_c, 0, 57, 80
2, 512031, Note_off_c, 0, 62, 64
2, 512058, Note_on_c, 0, 62, 77
2, 512062, Note_off_c, 0, 66, 64
2, 512076, Note_off_c, 0, 57, 64
2, 512106, Note_on_c, 0, 58, 96
2, 512112, Note_on_c, 0, 67, 85
2, 512114, Note_off_c, 0, 62, 64
2, 512145, Note_off_c, 0, 58, 64
2, 512146, Note_on_c, 0, 62, 80
2, 512165, Note_off_c, 0, 67, 64
2, 512189, Note_on_c, 0, 54, 98
2, 512196, Note_on_c, 0, 69, 85
2, 512202, Note_off_c, 0, 62, 64
2, 512229, Note_off_c, 0, 54, 64
2, 512238, Note_on_c, 0, 62, 81
2, 512248, Note_off_c, 0, 69, 64
2, 512279, Note_on_c, 0, 55, 98
2, 512285, Note_off_c, 0, 62, 64
2, 512289, Note_on_c, 0, 70, 99
2, 512313, Note_off_c, 0, 55, 64
2, 512318, Note_off_c, 0, 70, 64
2, 512318, Note_on_c, 0, 62, 69
2, 512356, Note_on_c, 0, 72, 90
2, 512359, Note_off_c, 0, 62, 64
2, 512359, Note_on_c, 0, 57, 106
2, 512401, Note_off_c, 0, 57, 64
2, 512402, Note_on_c, 0, 62, 92
2, 512416, Note_off_c, 0, 72, 64
2, 512427, Note_off_c, 0, 62, 64
2, 512442, Note_on_c, 0, 58, 117
2, 512447, Note_on_c, 0, 74, 108
2, 512622, Note_on_c, 0, 72, 75
2, 512628, Control_c, 0, 64, 127
2, 512635, Note_off_c, 0, 74, 64
2, 512650, Note_off_c, 0, 58, 64
2, 512657, Note_on_c, 0, 70, 79
2, 512680, Note_off_c, 0, 72, 64
2, 512700, Note_on_c, 0, 69, 79
2, 512724, Note_off_c, 0, 70, 64
2, 512741, Note_on_c, 0, 67, 84
2, 512771, Note_off_c, 0, 69, 64
2, 512793, Note_on_c, 0, 66, 70
2, 512799, Note_off_c, 0, 67, 64
2, 512805, Control_c, 0, 64, 0
2, 512827, Control_c, 0, 64, 127
2, 512842, Note_on_c, 0, 67, 85
2, 512848, Note_off_c, 0, 66, 64
2, 512877, Note_off_c, 0, 67, 64
2, 512878, Note_on_c, 0, 69, 80
2, 512880, Control_c, 0, 64, 0
2, 512922, Note_on_c, 0, 67, 86
2, 512933, Note_off_c, 0, 69, 64
2, 512964, Note_on_c, 0, 72, 79
2, 512989, Note_off_c, 0, 67, 64
2, 513007, Note_on_c, 0, 70, 81
2, 513035, Note_off_c, 0, 72, 64
2, 513052, Note_on_c, 0, 69, 59
2, 513082, Note_off_c, 0, 70, 64
2, 513088, Note_on_c, 0, 67, 70
2, 513118, Note_off_c, 0, 69, 64
2, 513135, Note_on_c, 0, 65, 70
2, 513149, Note_off_c, 0, 67, 64
2, 513197, Control_c, 0, 64, 127
2, 513218, Note_on_c, 0, 62, 75
2, 513218, Note_on_c, 0, 59, 71
2, 513255, Note_off_c, 0, 62, 64
2, 513263, Note_off_c, 0, 59, 64
2, 513306, Note_on_c, 0, 60, 59
2, 513310, Note_off_c, 0, 65, 64
2, 513378, Control_c, 0, 64, 0
2, 513395, Note_on_c, 0, 69, 74
2, 513395, Note_on_c, 0, 48, 86
2, 513414, Control_c, 0, 64, 127
2, 513437, Note_on_c, 0, 67, 71
2, 513463, Note_off_c, 0, 69, 64
2, 513466, Note_off_c, 0, 60, 64
2, 513477, Control_c, 0, 64, 0
2, 513491, Note_off_c, 0, 48, 64
2, 513491, Note_on_c, 0, 53, 75
2, 513492, Note_on_c, 0, 65, 81
2, 513512, Control_c, 0, 64, 127
2, 513521, Note_off_c, 0, 53, 64
2, 513529, Note_off_c, 0, 67, 64
2, 513572, Note_off_c, 0, 65, 64
2, 513580, Note_on_c, 0, 41, 92
2, 513630, Note_off_c, 0, 41, 64
2, 513798, Note_on_c, 0, 79, 72
2, 513850, Note_on_c, 0, 76, 67
2, 513861, Note_off_c, 0, 79, 64
2, 513876, Control_c, 0, 64, 0
2, 513882, Note_on_c, 0, 60, 50
2, 513882, Note_on_c, 0, 67, 78
2, 513883, Note_on_c, 0, 79, 81
2, 513886, Note_on_c, 0, 58, 74
2, 513886, Note_on_c, 0, 64, 77
2, 513894, Note_off_c, 0, 76, 64
2, 513924, Note_on_c, 0, 76, 77
2, 513924, Control_c, 0, 64, 127
2, 513936, Note_off_c, 0, 79, 64
2, 513972, Note_on_c, 0, 82, 79
2, 513989, Note_off_c, 0, 76, 64
2, 514018, Note_on_c, 0, 79, 84
2, 514060, Note_on_c, 0, 76, 71
2, 514071, Note_off_c, 0, 82, 64
2, 514088, Note_off_c, 0, 79, 64
2, 514103, Note_on_c, 0, 72, 71
2, 514122, Note_off_c, 0, 67, 64
2, 514122, Note_off_c, 0, 60, 64
2, 514124, Note_off_c, 0, 76, 64
2, 514126, Note_off_c, 0, 64, 64
2, 514126, Note_off_c, 0, 58, 64
2, 514138, Note_on_c, 0, 79, 50
2, 514176, Note_off_c, 0, 72, 64
2, 514178, Note_on_c, 0, 76, 84
2, 514184, Note_off_c, 0, 79, 64
2, 514219, Note_on_c, 0, 79, 78
2, 514222, Note_on_c, 0, 58, 81
2, 514223, Note_off_c, 0, 76, 64
2, 514226, Note_on_c, 0, 60, 77
2, 514226, Note_on_c, 0, 64, 77
2, 514226, Note_on_c, 0, 67, 88
2, 514240, Control_c, 0, 64, 0
2, 514260, Note_on_c, 0, 76, 79
2, 514280, Control_c, 0, 64, 127
2, 514286, Note_off_c, 0, 79, 64
2, 514298, Note_on_c, 0, 82, 77
2, 514323, Note_off_c, 0, 76, 64
2, 514330, Note_on_c, 0, 79, 72
2, 514343, Note_off_c, 0, 82, 64
2, 514367, Note_on_c, 0, 76, 90
2, 514395, Note_off_c, 0, 79, 64
2, 514403, Note_on_c, 0, 72, 72
2, 514430, Note_off_c, 0, 76, 64
2, 514456, Note_off_c, 0, 58, 64
2, 514456, Note_on_c, 0, 79, 74
2, 514466, Note_off_c, 0, 64, 64
2, 514472, Note_off_c, 0, 72, 64
2, 514474, Note_off_c, 0, 67, 64
2, 514477, Note_off_c, 0, 60, 64
2, 514499, Note_off_c, 0, 79, 64
2, 514504, Note_on_c, 0, 76, 74
2, 514538, Note_off_c, 0, 76, 64
2, 514544, Note_on_c, 0, 67, 85
2, 514544, Note_on_c, 0, 64, 76
2, 514544, Note_on_c, 0, 60, 78
2, 514544, Note_on_c, 0, 58, 77
2, 514547, Note_on_c, 0, 79, 84
2, 514593, Note_on_c, 0, 76, 84
2, 514624, Note_off_c, 0, 79, 64
2, 514624, Note_on_c, 0, 82, 90
2, 514635, Control_c, 0, 64, 0
2, 514636, Note_off_c, 0, 76, 64
2, 514664, Note_on_c, 0, 79, 79
2, 514685, Note_off_c, 0, 82, 64
2, 514707, Note_on_c, 0, 76, 71
2, 514727, Note_off_c, 0, 79, 64
2, 514755, Note_on_c, 0, 72, 79
2, 514761, Note_off_c, 0, 76, 64
2, 514801, Note_on_c, 0, 79, 79
2, 514807, Note_off_c, 0, 72, 64
2, 514840, Note_on_c, 0, 76, 69
2, 514844, Note_off_c, 0, 58, 64
2, 514844, Note_off_c, 0, 60, 64
2, 514844, Note_off_c, 0, 64, 64
2, 514844, Note_off_c, 0, 67, 64
2, 514881, Note_on_c, 0, 72, 76
2, 514890, Note_off_c, 0, 79, 64
2, 514902, Note_off_c, 0, 76, 64
2, 514924, Note_on_c, 0, 70, 68
2, 514937, Note_off_c, 0, 72, 64
2, 514964, Note_on_c, 0, 76, 81
2, 514981, Note_off_c, 0, 70, 64
2, 515011, Note_on_c, 0, 72, 78
2, 515028, Note_off_c, 0, 76, 64
2, 515056, Note_on_c, 0, 70, 79
2, 515079, Note_off_c, 0, 72, 64
2, 515101, Note_on_c, 0, 67, 80
2, 515105, Note_off_c, 0, 70, 64
2, 515143, Note_on_c, 0, 70, 76
2, 515173, Note_off_c, 0, 67, 64
2, 515178, Note_on_c, 0, 67, 70
2, 515207, Note_off_c, 0, 70, 64
2, 515216, Note_on_c, 0, 64, 78
2, 515247, Control_c, 0, 64, 0
2, 515254, Note_off_c, 0, 67, 64
2, 515290, Note_off_c, 0, 64, 64
2, 515299, Control_c, 0, 64, 127
2, 515555, Note_on_c, 0, 84, 59
2, 515599, Note_off_c, 0, 84, 64
2, 515611, Control_c, 0, 64, 0
2, 515632, Note_on_c, 0, 62, 40
2, 515634, Note_on_c, 0, 77, 69
2, 515655, Control_c, 0, 64, 127
2, 515697, Note_off_c, 0, 77, 64
2, 515706, Note_off_c, 0, 62, 64
2, 515714, Note_on_c, 0, 65, 59
2, 515715, Note_on_c, 0, 81, 66
2, 515765, Note_off_c, 0, 65, 64
2, 515772, Note_off_c, 0, 81, 64
2, 515805, Note_on_c, 0, 58, 86
2, 515805, Note_on_c, 0, 74, 74
2, 515806, Control_c, 0, 64, 0
2, 515836, Control_c, 0, 64, 127
2, 515878, Note_on_c, 0, 70, 56
2, 515880, Note_off_c, 0, 58, 64
2, 515883, Note_on_c, 0, 86, 69
2, 515911, Note_off_c, 0, 74, 64
2, 515939, Note_off_c, 0, 70, 64
2, 515953, Note_off_c, 0, 86, 64
2, 515970, Note_on_c, 0, 60, 71
2, 515974, Note_on_c, 0, 77, 82
2, 515979, Note_on_c, 0, 69, 74
2, 515979, Control_c, 0, 64, 0
2, 516010, Control_c, 0, 64, 127
2, 516147, Note_on_c, 0, 76, 63
2, 516149, Note_on_c, 0, 67, 66
2, 516167, Note_off_c, 0, 69, 64
2, 516167, Note_off_c, 0, 77, 64
2, 516188, Note_off_c, 0, 60, 64
2, 516193, Note_off_c, 0, 67, 64
2, 516211, Note_off_c, 0, 76, 64
2, 516219, Control_c, 0, 64, 0
2, 516230, Note_on_c, 0, 84, 66
2, 516286, Note_off_c, 0, 84, 64
2, 516310, Note_on_c, 0, 62, 61
2, 516315, Control_c, 0, 64, 127
2, 516320, Note_on_c, 0, 77, 78
2, 516378, Note_off_c, 0, 77, 64
2, 516394, Note_on_c, 0, 65, 59
2, 516397, Note_off_c, 0, 62, 64
2, 516397, Note_on_c, 0, 81, 69
2, 516449, Note_off_c, 0, 81, 64
2, 516454, Note_off_c, 0, 65, 64
2, 516471, Control_c, 0, 64, 0
2, 516481, Note_on_c, 0, 74, 73
2, 516482, Note_on_c, 0, 58, 84
2, 516497, Control_c, 0, 64, 127
2, 516553, Note_on_c, 0, 70, 71
2, 516567, Note_on_c, 0, 86, 73
2, 516576, Note_off_c, 0, 58, 64
2, 516596, Note_off_c, 0, 74, 64
2, 516615, Note_off_c, 0, 70, 64
2, 516627, Note_off_c, 0, 86, 64
2, 516643, Control_c, 0, 64, 0
2, 516650, Note_on_c, 0, 60, 69
2, 516653, Note_on_c, 0, 77, 80
2, 516658, Note_on_c, 0, 69, 78
2, 516678, Control_c, 0, 64, 127
2, 516823, Note_on_c, 0, 76, 62
2, 516825, Note_on_c, 0, 67, 69
2, 516827, Note_off_c, 0, 77, 64
2, 516832, Note_off_c, 0, 69, 64
2, 516834, Note_off_c, 0, 60, 64
2, 516862, Note_off_c, 0, 67, 64
2, 516903, Note_on_c, 0, 84, 63
2, 516907, Note_on_c, 0, 58, 80
2, 516934, Note_off_c, 0, 76, 64
2, 516946, Note_off_c, 0, 58, 64
2, 516968, Note_off_c, 0, 84, 64
2, 516983, Control_c, 0, 64, 0
2, 516991, Note_on_c, 0, 75, 86
2, 516994, Note_on_c, 0, 66, 74
2, 516994, Note_on_c, 0, 57, 69
2, 517044, Control_c, 0, 64, 127
2, 517134, Note_off_c, 0, 66, 64
2, 517161, Note_off_c, 0, 57, 64
2, 517167, Note_on_c, 0, 74, 67
2, 517167, Note_on_c, 0, 58, 61
2, 517171, Note_on_c, 0, 67, 73
2, 517184, Note_off_c, 0, 58, 64
2, 517194, Note_off_c, 0, 75, 64
2, 517195, Control_c, 0, 64, 0
2, 517202, Note_off_c, 0, 67, 64
2, 517240, Note_on_c, 0, 82, 73
2, 517270, Note_off_c, 0, 74, 64
2, 517303, Note_off_c, 0, 82, 64
2, 517320, Note_on_c, 0, 64, 74
2, 517325, Note_on_c, 0, 73, 84
2, 517325, Note_on_c, 0, 70, 77
2, 517335, Control_c, 0, 64, 127
2, 517462, Note_off_c, 0, 70, 64
2, 517475, Note_off_c, 0, 64, 64
2, 517506, Note_on_c, 0, 69, 63
2, 517506, Note_on_c, 0, 72, 62
2, 517511, Note_on_c, 0, 65, 63
2, 517516, Note_off_c, 0, 73, 64
2, 517542, Note_off_c, 0, 69, 64
2, 517544, Note_off_c, 0, 65, 64
2, 517567, Control_c, 0, 64, 0
2, 517591, Note_off_c, 0, 72, 64
2, 517594, Note_on_c, 0, 77, 58
2, 517620, Note_off_c, 0, 77, 64
2, 517643, Control_c, 0, 64, 127
2, 517672, Note_on_c, 0, 58, 63
2, 517672, Note_on_c, 0, 67, 69
2, 517732, Note_off_c, 0, 58, 64
2, 517743, Note_off_c, 0, 67, 64
2, 517749, Note_on_c, 0, 70, 56
2, 517750, Note_on_c, 0, 74, 58
2, 517792, Note_off_c, 0, 70, 64
2, 517808, Note_off_c, 0, 74, 64
2, 517831, Note_on_c, 0, 72, 57
2, 517832, Note_on_c, 0, 60, 60
2, 517835, Note_on_c, 0, 69, 63
2, 517835, Note_on_c, 0, 48, 55
2, 517868, Note_off_c, 0, 60, 64
2, 517882, Note_off_c, 0, 48, 64
2, 517890, Note_off_c, 0, 69, 64
2, 517902, Note_off_c, 0, 72, 64
2, 517909, Note_on_c, 0, 64, 67
2, 517978, Control_c, 0, 64, 0
2, 517983, Note_off_c, 0, 64, 64
2, 517998, Note_on_c, 0, 53, 54
2, 518001, Note_on_c, 0, 65, 75
2, 518004, Note_on_c, 0, 41, 69
2, 518031, Control_c, 0, 64, 127
2, 518059, Note_off_c, 0, 65, 64
2, 518142, Note_off_c, 0, 53, 64
2, 518148, Note_off_c, 0, 41, 64
2, 518276, Note_on_c, 0, 84, 78
2, 518321, Control_c, 0, 64, 0
2, 518341, Note_off_c, 0, 84, 64
2, 518362, Note_on_c, 0, 62, 75
2, 518362, Note_on_c, 0, 77, 79
2, 518391, Control_c, 0, 64, 127
2, 518438, Note_on_c, 0, 65, 63
2, 518439, Note_on_c, 0, 81, 77
2, 518444, Note_off_c, 0, 62, 64
2, 518452, Note_off_c, 0, 77, 64
2, 518475, Note_off_c, 0, 65, 64
2, 518487, Note_off_c, 0, 81, 64
2, 518496, Control_c, 0, 64, 0
2, 518514, Note_on_c, 0, 58, 88
2, 518520, Note_on_c, 0, 74, 84
2, 518556, Control_c, 0, 64, 127
2, 518591, Note_off_c, 0, 58, 64
2, 518597, Note_on_c, 0, 70, 79
2, 518611, Note_on_c, 0, 86, 71
2, 518631, Note_off_c, 0, 74, 64
2, 518660, Note_off_c, 0, 70, 64
2, 518664, Note_off_c, 0, 86, 64
2, 518684, Control_c, 0, 64, 0
2, 518690, Note_on_c, 0, 60, 79
2, 518693, Note_on_c, 0, 77, 88
2, 518699, Note_on_c, 0, 69, 81
2, 518729, Control_c, 0, 64, 127
2, 518850, Note_on_c, 0, 67, 71
2, 518856, Note_on_c, 0, 76, 69
2, 518867, Note_off_c, 0, 77, 64
2, 518874, Note_off_c, 0, 69, 64
2, 518878, Note_off_c, 0, 67, 64
2, 518888, Note_off_c, 0, 60, 64
2, 518920, Note_off_c, 0, 76, 64
2, 518933, Note_on_c, 0, 84, 75
2, 518974, Control_c, 0, 64, 0
2, 518987, Note_off_c, 0, 84, 64
2, 519018, Note_on_c, 0, 62, 71
2, 519018, Note_on_c, 0, 77, 84
2, 519028, Control_c, 0, 64, 127
2, 519054, Note_on_c, 0, 64, 84
2, 519055, Note_on_c, 0, 79, 71
2, 519077, Note_off_c, 0, 77, 64
2, 519090, Note_on_c, 0, 65, 34
2, 519091, Note_on_c, 0, 81, 79
2, 519097, Note_off_c, 0, 62, 64
2, 519106, Note_off_c, 0, 64, 64
2, 519122, Note_on_c, 0, 62, 84
2, 519126, Note_on_c, 0, 77, 84
2, 519146, Note_off_c, 0, 79, 64
2, 519148, Note_off_c, 0, 81, 64
2, 519154, Control_c, 0, 64, 0
2, 519155, Note_off_c, 0, 65, 64
2, 519168, Note_on_c, 0, 74, 84
2, 519170, Note_on_c, 0, 58, 98
2, 519174, Note_off_c, 0, 62, 64
2, 519182, Note_off_c, 0, 77, 64
2, 519190, Control_c, 0, 64, 127
2, 519250, Note_on_c, 0, 70, 92
2, 519252, Note_on_c, 0, 86, 77
2, 519290, Note_off_c, 0, 58, 64
2, 519292, Note_off_c, 0, 74, 64
2, 519304, Note_off_c, 0, 70, 64
2, 519307, Note_off_c, 0, 86, 64
2, 519319, Control_c, 0, 64, 0
2, 519336, Note_on_c, 0, 60, 81
2, 519338, Note_on_c, 0, 77, 90
2, 519343, Note_on_c, 0, 69, 88
2, 519374, Control_c, 0, 64, 127
2, 519485, Note_on_c, 0, 67, 73
2, 519488, Note_on_c, 0, 76, 74
2, 519495, Note_off_c, 0, 69, 64
2, 519499, Note_off_c, 0, 77, 64
2, 519503, Note_off_c, 0, 60, 64
2, 519523, Note_off_c, 0, 67, 64
2, 519554, Note_off_c, 0, 76, 64
2, 519578, Note_on_c, 0, 69, 86
2, 519583, Note_on_c, 0, 84, 68
2, 519610, Note_on_c, 0, 70, 90
2, 519637, Note_off_c, 0, 69, 64
2, 519654, Control_c, 0, 64, 0
2, 519661, Note_on_c, 0, 66, 88
2, 519662, Note_on_c, 0, 72, 86
2, 519663, Note_on_c, 0, 75, 96
2, 519667, Note_off_c, 0, 70, 64
2, 519668, Note_off_c, 0, 84, 64
2, 519716, Control_c, 0, 64, 127
2, 519803, Note_off_c, 0, 66, 64
2, 519811, Note_off_c, 0, 75, 64
2, 519822, Note_on_c, 0, 67, 63
2, 519825, Note_on_c, 0, 74, 73
2, 519827, Note_on_c, 0, 70, 63
2, 519852, Note_off_c, 0, 72, 64
2, 519874, Note_off_c, 0, 70, 64
2, 519875, Note_off_c, 0, 67, 64
2, 519904, Note_on_c, 0, 82, 69
2, 519922, Note_off_c, 0, 74, 64
2, 519954, Note_off_c, 0, 82, 64
2, 519966, Control_c, 0, 64, 0
2, 519985, Note_on_c, 0, 73, 96
2, 519986, Note_on_c, 0, 64, 84
2, 519988, Note_on_c, 0, 70, 84
2, 520021, Control_c, 0, 64, 127
2, 520098, Note_off_c, 0, 70, 64
2, 520145, Note_off_c, 0, 64, 64
2, 520162, Note_on_c, 0, 69, 69
2, 520162, Note_on_c, 0, 65, 67
2, 520168, Note_on_c, 0, 72, 71
2, 520169, Note_off_c, 0, 73, 64
2, 520175, Control_c, 0, 64, 0
2, 520196, Control_c, 0, 64, 127
2, 520204, Note_off_c, 0, 65, 64
2, 520206, Note_off_c, 0, 69, 64
2, 520240, Note_on_c, 0, 77, 72
2, 520252, Note_off_c, 0, 72, 64
2, 520280, Note_off_c, 0, 77, 64
2, 520313, Control_c, 0, 64, 0
2, 520319, Note_on_c, 0, 58, 72
2, 520323, Note_on_c, 0, 67, 84
2, 520340, Control_c, 0, 64, 127
2, 520374, Note_off_c, 0, 58, 64
2, 520402, Note_on_c, 0, 70, 63
2, 520407, Note_on_c, 0, 74, 72
2, 520416, Note_off_c, 0, 67, 64
2, 520451, Note_off_c, 0, 70, 64
2, 520467, Note_off_c, 0, 74, 64
2, 520481, Note_on_c, 0, 72, 71
2, 520485, Control_c, 0, 64, 0
2, 520490, Note_on_c, 0, 69, 67
2, 520491, Note_on_c, 0, 60, 65
2, 520498, Note_on_c, 0, 48, 56
2, 520512, Control_c, 0, 64, 127
2, 520522, Note_off_c, 0, 60, 64
2, 520541, Note_off_c, 0, 48, 64
2, 520550, Note_off_c, 0, 72, 64
2, 520551, Note_off_c, 0, 69, 64
2, 520565, Note_on_c, 0, 64, 75
2, 520620, Control_c, 0, 64, 0
2, 520651, Note_on_c, 0, 65, 78
2, 520678, Note_off_c, 0, 64, 64
2, 520725, Control_c, 0, 64, 127
2, 520731, Note_on_c, 0, 41, 70
2, 520750, Note_off_c, 0, 65, 64
2, 520811, Note_on_c, 0, 53, 72
2, 520821, Note_off_c, 0, 41, 64
2, 520882, Note_off_c, 0, 53, 64
2, 520891, Note_on_c, 0, 58, 69
2, 520892, Note_on_c, 0, 62, 67
2, 520917, Control_c, 0, 64, 0
2, 520974, Note_off_c, 0, 62, 64
2, 520982, Note_on_c, 0, 57, 63
2, 520985, Note_off_c, 0, 58, 64
2, 520990, Note_on_c, 0, 60, 71
2, 521032, Note_off_c, 0, 57, 64
2, 521034, Note_off_c, 0, 60, 64
2, 521034, Control_c, 0, 64, 127
2, 521053, Note_on_c, 0, 41, 59
2, 521134, Note_on_c, 0, 53, 51
2, 521201, Note_off_c, 0, 41, 64
2, 521217, Note_on_c, 0, 64, 66
2, 521217, Note_on_c, 0, 70, 67
2, 521260, Note_off_c, 0, 53, 64
2, 521263, Control_c, 0, 64, 0
2, 521284, Note_off_c, 0, 64, 64
2, 521297, Note_off_c, 0, 70, 64
2, 521313, Note_on_c, 0, 65, 65
2, 521317, Note_on_c, 0, 69, 48
2, 521365, Note_off_c, 0, 65, 64
2, 521380, Control_c, 0, 64, 127
2, 521385, Note_off_c, 0, 69, 64
2, 521388, Note_on_c, 0, 41, 54
2, 521484, Note_on_c, 0, 53, 80
2, 521549, Note_on_c, 0, 70, 67
2, 521554, Note_on_c, 0, 74, 58
2, 521565, Note_off_c, 0, 41, 64
2, 521633, Note_off_c, 0, 70, 64
2, 521636, Control_c, 0, 64, 0
2, 521642, Note_on_c, 0, 72, 70
2, 521646, Note_on_c, 0, 69, 58
2, 521649, Note_off_c, 0, 74, 64
2, 521708, Note_off_c, 0, 69, 64
2, 521724, Note_off_c, 0, 53, 64
2, 521726, Note_off_c, 0, 72, 64
2, 521727, Control_c, 0, 64, 127
2, 521736, Note_on_c, 0, 29, 1
2, 521739, Note_on_c, 0, 41, 63
2, 521836, Note_on_c, 0, 53, 59
2, 521933, Note_on_c, 0, 76, 56
2, 521933, Note_on_c, 0, 82, 53
2, 522068, Note_on_c, 0, 77, 45
2, 522070, Note_off_c, 0, 76, 64
2, 522078, Note_off_c, 0, 41, 64
2, 522080, Note_on_c, 0, 81, 29
2, 522091, Note_off_c, 0, 82, 64
2, 522094, Note_off_c, 0, 53, 64
2, 522137, Control_c, 0, 64, 0
2, 522195, Note_off_c, 0, 77, 64
2, 522214, Note_off_c, 0, 81, 64
2, 524110, Note_off_c, 0, 29, 64
2, 524110, End_track
3, 0, Start_track
3, 0, Title_t, "Played by Ron Lubetsky, M.D."
3, 0, End_track
4, 0, Start_track
4, 0, Title_t, "realtime piano (May 19, 1999)"
4, 0, End_track
5, 0, Start_track
5, 0, Title_t, "email: drlubetsky@aol.com"
5, 0, End_track
6, 0, Start_track
6, 0, Title_t, "Internet:"
6, 0, End_track
7, 0, Start_track
7, 0, Title_t, "members.aol.com/drlubetsky"
7, 0, End_track
0, 0, End_of_file
