0, 0, Header, 1, 3, 240
1, 0, Start_track
1, 0, Title_t, "--------"
1, 0, Time_signature, 4, 2, 24, 8
1, 0, Key_signature, 0, "major"
1, 0, Tempo, 869565
1, 24240, Tempo, 869565
1, 24480, Tempo, 895522
1, 24720, Tempo, 923077
1, 24960, Tempo, 937500
1, 25200, Tempo, 937500
1, 25440, Tempo, 983607
1, 25680, Tempo, 1000000
1, 25680, End_track
2, 0, Start_track
2, 0, Title_t, "Harpsichord RH"
2, 0, Program_c, 0, 6
2, 0, Control_c, 0, 7, 100
2, 0, Control_c, 0, 10, 79
2, 120, Note_on_c, 0, 72, 92
2, 175, Note_on_c, 0, 72, 0
2, 180, Note_on_c, 0, 71, 92
2, 235, Note_on_c, 0, 71, 0
2, 240, Note_on_c, 0, 72, 92
2, 295, Note_on_c, 0, 72, 0
2, 300, Note_on_c, 0, 74, 92
2, 355, Note_on_c, 0, 74, 0
2, 360, Note_on_c, 0, 75, 92
2, 415, Note_on_c, 0, 75, 0
2, 420, Note_on_c, 0, 67, 92
2, 475, Note_on_c, 0, 67, 0
2, 480, Note_on_c, 0, 68, 92
2, 535, Note_on_c, 0, 68, 0
2, 540, Note_on_c, 0, 70, 92
2, 595, Note_on_c, 0, 70, 0
2, 600, Note_on_c, 0, 68, 92
2, 655, Note_on_c, 0, 68, 0
2, 660, Note_on_c, 0, 65, 92
2, 715, Note_on_c, 0, 65, 0
2, 720, Note_on_c, 0, 77, 92
2, 775, Note_on_c, 0, 77, 0
2, 780, Note_on_c, 0, 75, 92
2, 835, Note_on_c, 0, 75, 0
2, 840, Note_on_c, 0, 74, 92
2, 895, Note_on_c, 0, 74, 0
2, 900, Note_on_c, 0, 72, 92
2, 955, Note_on_c, 0, 72, 0
2, 960, Note_on_c, 0, 71, 92
2, 1015, Note_on_c, 0, 71, 0
2, 1020, Note_on_c, 0, 80, 92
2, 1075, Note_on_c, 0, 80, 0
2, 1080, Note_on_c, 0, 79, 92
2, 1135, Note_on_c, 0, 79, 0
2, 1140, Note_on_c, 0, 77, 92
2, 1195, Note_on_c, 0, 77, 0
2, 1200, Note_on_c, 0, 75, 92
2, 1255, Note_on_c, 0, 75, 0
2, 1260, Note_on_c, 0, 74, 92
2, 1315, Note_on_c, 0, 74, 0
2, 1320, Note_on_c, 0, 72, 92
2, 1375, Note_on_c, 0, 72, 0
2, 1380, Note_on_c, 0, 71, 92
2, 1435, Note_on_c, 0, 71, 0
2, 1440, Note_on_c, 0, 72, 92
2, 1495, Note_on_c, 0, 72, 0
2, 1500, Note_on_c, 0, 74, 92
2, 1555, Note_on_c, 0, 74, 0
2, 1560, Note_on_c, 0, 72, 92
2, 1615, Note_on_c, 0, 72, 0
2, 1620, Note_on_c, 0, 74, 92
2, 1675, Note_on_c, 0, 74, 0
2, 1680, Note_on_c, 0, 75, 92
2, 1694, Note_on_c, 0, 75, 0
2, 1695, Note_on_c, 0, 74, 92
2, 1709, Note_on_c, 0, 74, 0
2, 1710, Note_on_c, 0, 75, 92
2, 1724, Note_on_c, 0, 75, 0
2, 1725, Note_on_c, 0, 74, 92
2, 1849, Note_on_c, 0, 74, 0
2, 1860, Note_on_c, 0, 72, 92
2, 1887, Note_on_c, 0, 72, 0
2, 1920, Note_on_c, 0, 74, 92
2, 1920, Note_on_c, 0, 75, 92
2, 1975, Note_on_c, 0, 75, 0
2, 1980, Note_on_c, 0, 74, 92
2, 2035, Note_on_c, 0, 74, 0
2, 2040, Note_on_c, 0, 72, 92
2, 2095, Note_on_c, 0, 72, 0
2, 2100, Note_on_c, 0, 74, 92
2, 2155, Note_on_c, 0, 74, 0
2, 2160, Note_on_c, 0, 75, 92
2, 2215, Note_on_c, 0, 75, 0
2, 2220, Note_on_c, 0, 77, 92
2, 2275, Note_on_c, 0, 77, 0
2, 2280, Note_on_c, 0, 79, 92
2, 2389, Note_on_c, 0, 79, 0
2, 2400, Note_on_c, 0, 80, 92
2, 2414, Note_on_c, 0, 80, 0
2, 2415, Note_on_c, 0, 79, 92
2, 2429, Note_on_c, 0, 79, 0
2, 2430, Note_on_c, 0, 80, 92
2, 2444, Note_on_c, 0, 80, 0
2, 2445, Note_on_c, 0, 79, 92
2, 2515, Note_on_c, 0, 79, 0
2, 2520, Note_on_c, 0, 77, 92
2, 2629, Note_on_c, 0, 77, 0
2, 2760, Note_on_c, 0, 77, 92
2, 2869, Note_on_c, 0, 77, 0
2, 2880, Note_on_c, 0, 79, 92
2, 2894, Note_on_c, 0, 79, 0
2, 2895, Note_on_c, 0, 77, 92
2, 2909, Note_on_c, 0, 77, 0
2, 2910, Note_on_c, 0, 79, 92
2, 2924, Note_on_c, 0, 79, 0
2, 2925, Note_on_c, 0, 77, 92
2, 2995, Note_on_c, 0, 77, 0
2, 3000, Note_on_c, 0, 75, 92
2, 3109, Note_on_c, 0, 75, 0
2, 3240, Note_on_c, 0, 74, 92
2, 3349, Note_on_c, 0, 74, 0
2, 3360, Note_on_c, 0, 75, 92
2, 3469, Note_on_c, 0, 75, 0
2, 3480, Note_on_c, 0, 68, 92
2, 3655, Note_on_c, 0, 68, 0
2, 3660, Note_on_c, 0, 65, 92
2, 3715, Note_on_c, 0, 65, 0
2, 3720, Note_on_c, 0, 70, 92
2, 3775, Note_on_c, 0, 70, 0
2, 3780, Note_on_c, 0, 65, 92
2, 3835, Note_on_c, 0, 65, 0
2, 3840, Note_on_c, 0, 67, 92
2, 3949, Note_on_c, 0, 67, 0
2, 3960, Note_on_c, 0, 75, 92
2, 4135, Note_on_c, 0, 75, 0
2, 4140, Note_on_c, 0, 74, 92
2, 4195, Note_on_c, 0, 74, 0
2, 4200, Note_on_c, 0, 75, 92
2, 4255, Note_on_c, 0, 75, 0
2, 4260, Note_on_c, 0, 70, 92
2, 4315, Note_on_c, 0, 70, 0
2, 4320, Note_on_c, 0, 72, 92
2, 4375, Note_on_c, 0, 72, 0
2, 4380, Note_on_c, 0, 75, 92
2, 4435, Note_on_c, 0, 75, 0
2, 4440, Note_on_c, 0, 80, 92
2, 4495, Note_on_c, 0, 80, 0
2, 4500, Note_on_c, 0, 79, 92
2, 4555, Note_on_c, 0, 79, 0
2, 4560, Note_on_c, 0, 77, 92
2, 4615, Note_on_c, 0, 77, 0
2, 4620, Note_on_c, 0, 75, 92
2, 4675, Note_on_c, 0, 75, 0
2, 4680, Note_on_c, 0, 74, 92
2, 4735, Note_on_c, 0, 74, 0
2, 4740, Note_on_c, 0, 72, 92
2, 4795, Note_on_c, 0, 72, 0
2, 4800, Note_on_c, 0, 70, 92
2, 4855, Note_on_c, 0, 70, 0
2, 4860, Note_on_c, 0, 74, 92
2, 4915, Note_on_c, 0, 74, 0
2, 4920, Note_on_c, 0, 79, 92
2, 4975, Note_on_c, 0, 79, 0
2, 4980, Note_on_c, 0, 77, 92
2, 5035, Note_on_c, 0, 77, 0
2, 5040, Note_on_c, 0, 75, 92
2, 5095, Note_on_c, 0, 75, 0
2, 5100, Note_on_c, 0, 74, 92
2, 5155, Note_on_c, 0, 74, 0
2, 5160, Note_on_c, 0, 72, 92
2, 5215, Note_on_c, 0, 72, 0
2, 5220, Note_on_c, 0, 70, 92
2, 5275, Note_on_c, 0, 70, 0
2, 5280, Note_on_c, 0, 68, 92
2, 5335, Note_on_c, 0, 68, 0
2, 5340, Note_on_c, 0, 72, 92
2, 5395, Note_on_c, 0, 72, 0
2, 5400, Note_on_c, 0, 77, 92
2, 5455, Note_on_c, 0, 77, 0
2, 5460, Note_on_c, 0, 72, 92
2, 5515, Note_on_c, 0, 72, 0
2, 5520, Note_on_c, 0, 74, 92
2, 5684, Note_on_c, 0, 74, 0
2, 5700, Note_on_c, 0, 74, 92
2, 5755, Note_on_c, 0, 74, 0
2, 5760, Note_on_c, 0, 75, 92
2, 5815, Note_on_c, 0, 75, 0
2, 5820, Note_on_c, 0, 70, 92
2, 5875, Note_on_c, 0, 70, 0
2, 5880, Note_on_c, 0, 72, 92
2, 5935, Note_on_c, 0, 72, 0
2, 5940, Note_on_c, 0, 70, 92
2, 5995, Note_on_c, 0, 70, 0
2, 6000, Note_on_c, 0, 79, 92
2, 6295, Note_on_c, 0, 79, 0
2, 6300, Note_on_c, 0, 70, 92
2, 6355, Note_on_c, 0, 70, 0
2, 6360, Note_on_c, 0, 72, 92
2, 6415, Note_on_c, 0, 72, 0
2, 6420, Note_on_c, 0, 70, 92
2, 6475, Note_on_c, 0, 70, 0
2, 6480, Note_on_c, 0, 80, 92
2, 6775, Note_on_c, 0, 80, 0
2, 6780, Note_on_c, 0, 70, 92
2, 6835, Note_on_c, 0, 70, 0
2, 6840, Note_on_c, 0, 75, 92
2, 6895, Note_on_c, 0, 75, 0
2, 6900, Note_on_c, 0, 74, 92
2, 6955, Note_on_c, 0, 74, 0
2, 6960, Note_on_c, 0, 79, 92
2, 7015, Note_on_c, 0, 79, 0
2, 7020, Note_on_c, 0, 77, 92
2, 7075, Note_on_c, 0, 77, 0
2, 7080, Note_on_c, 0, 80, 92
2, 7135, Note_on_c, 0, 80, 0
2, 7140, Note_on_c, 0, 79, 92
2, 7195, Note_on_c, 0, 79, 0
2, 7200, Note_on_c, 0, 84, 92
2, 7255, Note_on_c, 0, 84, 0
2, 7260, Note_on_c, 0, 82, 92
2, 7315, Note_on_c, 0, 82, 0
2, 7320, Note_on_c, 0, 80, 92
2, 7375, Note_on_c, 0, 80, 0
2, 7380, Note_on_c, 0, 79, 92
2, 7435, Note_on_c, 0, 79, 0
2, 7440, Note_on_c, 0, 77, 92
2, 7495, Note_on_c, 0, 77, 0
2, 7500, Note_on_c, 0, 82, 92
2, 7555, Note_on_c, 0, 82, 0
2, 7560, Note_on_c, 0, 80, 92
2, 7615, Note_on_c, 0, 80, 0
2, 7620, Note_on_c, 0, 82, 92
2, 7675, Note_on_c, 0, 82, 0
2, 7680, Note_on_c, 0, 79, 92
2, 7735, Note_on_c, 0, 79, 0
2, 7740, Note_on_c, 0, 82, 92
2, 7795, Note_on_c, 0, 82, 0
2, 7800, Note_on_c, 0, 80, 92
2, 7855, Note_on_c, 0, 80, 0
2, 7860, Note_on_c, 0, 82, 92
2, 7915, Note_on_c, 0, 82, 0
2, 7920, Note_on_c, 0, 75, 92
2, 7975, Note_on_c, 0, 75, 0
2, 7980, Note_on_c, 0, 79, 92
2, 8035, Note_on_c, 0, 79, 0
2, 8040, Note_on_c, 0, 77, 92
2, 8095, Note_on_c, 0, 77, 0
2, 8100, Note_on_c, 0, 79, 92
2, 8155, Note_on_c, 0, 79, 0
2, 8160, Note_on_c, 0, 72, 92
2, 8215, Note_on_c, 0, 72, 0
2, 8220, Note_on_c, 0, 74, 92
2, 8275, Note_on_c, 0, 74, 0
2, 8280, Note_on_c, 0, 75, 92
2, 8335, Note_on_c, 0, 75, 0
2, 8340, Note_on_c, 0, 77, 92
2, 8395, Note_on_c, 0, 77, 0
2, 8400, Note_on_c, 0, 74, 92
2, 8455, Note_on_c, 0, 74, 0
2, 8460, Note_on_c, 0, 75, 92
2, 8515, Note_on_c, 0, 75, 0
2, 8520, Note_on_c, 0, 77, 92
2, 8575, Note_on_c, 0, 77, 0
2, 8580, Note_on_c, 0, 79, 92
2, 8635, Note_on_c, 0, 79, 0
2, 8640, Note_on_c, 0, 75, 92
2, 8695, Note_on_c, 0, 75, 0
2, 8700, Note_on_c, 0, 77, 92
2, 8755, Note_on_c, 0, 77, 0
2, 8760, Note_on_c, 0, 79, 92
2, 8815, Note_on_c, 0, 79, 0
2, 8820, Note_on_c, 0, 80, 92
2, 8875, Note_on_c, 0, 80, 0
2, 8880, Note_on_c, 0, 82, 92
2, 8935, Note_on_c, 0, 82, 0
2, 8940, Note_on_c, 0, 80, 92
2, 8995, Note_on_c, 0, 80, 0
2, 9000, Note_on_c, 0, 84, 92
2, 9055, Note_on_c, 0, 84, 0
2, 9060, Note_on_c, 0, 82, 92
2, 9115, Note_on_c, 0, 82, 0
2, 9120, Note_on_c, 0, 80, 92
2, 9175, Note_on_c, 0, 80, 0
2, 9180, Note_on_c, 0, 79, 92
2, 9235, Note_on_c, 0, 79, 0
2, 9240, Note_on_c, 0, 77, 92
2, 9295, Note_on_c, 0, 77, 0
2, 9300, Note_on_c, 0, 80, 92
2, 9355, Note_on_c, 0, 80, 0
2, 9360, Note_on_c, 0, 74, 92
2, 9655, Note_on_c, 0, 74, 0
2, 9660, Note_on_c, 0, 74, 92
2, 9715, Note_on_c, 0, 74, 0
2, 9720, Note_on_c, 0, 79, 92
2, 9775, Note_on_c, 0, 79, 0
2, 9780, Note_on_c, 0, 74, 92
2, 9835, Note_on_c, 0, 74, 0
2, 9840, Note_on_c, 0, 75, 92
2, 9895, Note_on_c, 0, 75, 0
2, 9900, Note_on_c, 0, 72, 92
2, 9955, Note_on_c, 0, 72, 0
2, 9960, Note_on_c, 0, 74, 92
2, 10015, Note_on_c, 0, 74, 0
2, 10020, Note_on_c, 0, 70, 92
2, 10075, Note_on_c, 0, 70, 0
2, 10080, Note_on_c, 0, 72, 92
2, 10375, Note_on_c, 0, 72, 0
2, 10380, Note_on_c, 0, 79, 92
2, 10435, Note_on_c, 0, 79, 0
2, 10440, Note_on_c, 0, 78, 92
2, 10495, Note_on_c, 0, 78, 0
2, 10500, Note_on_c, 0, 81, 92
2, 10555, Note_on_c, 0, 81, 0
2, 10560, Note_on_c, 0, 72, 92
2, 10615, Note_on_c, 0, 72, 0
2, 10620, Note_on_c, 0, 70, 92
2, 10675, Note_on_c, 0, 70, 0
2, 10680, Note_on_c, 0, 72, 92
2, 10855, Note_on_c, 0, 72, 0
2, 10860, Note_on_c, 0, 78, 92
2, 10915, Note_on_c, 0, 78, 0
2, 10920, Note_on_c, 0, 76, 92
2, 10975, Note_on_c, 0, 76, 0
2, 10980, Note_on_c, 0, 74, 92
2, 11035, Note_on_c, 0, 74, 0
2, 11040, Note_on_c, 0, 82, 92
2, 11204, Note_on_c, 0, 82, 0
2, 11220, Note_on_c, 0, 76, 92
2, 11275, Note_on_c, 0, 76, 0
2, 11280, Note_on_c, 0, 78, 92
2, 11444, Note_on_c, 0, 78, 0
2, 11460, Note_on_c, 0, 79, 92
2, 11515, Note_on_c, 0, 79, 0
2, 11520, Note_on_c, 0, 79, 92
2, 11629, Note_on_c, 0, 79, 0
2, 11640, Note_on_c, 0, 67, 92
2, 11695, Note_on_c, 0, 67, 0
2, 11700, Note_on_c, 0, 66, 92
2, 11755, Note_on_c, 0, 66, 0
2, 11760, Note_on_c, 0, 67, 92
2, 11815, Note_on_c, 0, 67, 0
2, 11820, Note_on_c, 0, 69, 92
2, 11875, Note_on_c, 0, 69, 0
2, 11880, Note_on_c, 0, 70, 92
2, 11935, Note_on_c, 0, 70, 0
2, 11940, Note_on_c, 0, 62, 92
2, 11995, Note_on_c, 0, 62, 0
2, 12000, Note_on_c, 0, 63, 92
2, 12055, Note_on_c, 0, 63, 0
2, 12060, Note_on_c, 0, 65, 92
2, 12115, Note_on_c, 0, 65, 0
2, 12120, Note_on_c, 0, 63, 92
2, 12175, Note_on_c, 0, 63, 0
2, 12180, Note_on_c, 0, 60, 92
2, 12235, Note_on_c, 0, 60, 0
2, 12240, Note_on_c, 0, 72, 92
2, 12295, Note_on_c, 0, 72, 0
2, 12300, Note_on_c, 0, 70, 92
2, 12355, Note_on_c, 0, 70, 0
2, 12360, Note_on_c, 0, 69, 92
2, 12415, Note_on_c, 0, 69, 0
2, 12420, Note_on_c, 0, 67, 92
2, 12475, Note_on_c, 0, 67, 0
2, 12480, Note_on_c, 0, 66, 92
2, 12535, Note_on_c, 0, 66, 0
2, 12540, Note_on_c, 0, 75, 92
2, 12595, Note_on_c, 0, 75, 0
2, 12600, Note_on_c, 0, 74, 92
2, 12655, Note_on_c, 0, 74, 0
2, 12660, Note_on_c, 0, 72, 92
2, 12715, Note_on_c, 0, 72, 0
2, 12720, Note_on_c, 0, 70, 92
2, 12775, Note_on_c, 0, 70, 0
2, 12780, Note_on_c, 0, 69, 92
2, 12835, Note_on_c, 0, 69, 0
2, 12840, Note_on_c, 0, 67, 92
2, 12895, Note_on_c, 0, 67, 0
2, 12900, Note_on_c, 0, 66, 92
2, 12955, Note_on_c, 0, 66, 0
2, 12960, Note_on_c, 0, 67, 92
2, 13015, Note_on_c, 0, 67, 0
2, 13020, Note_on_c, 0, 69, 92
2, 13075, Note_on_c, 0, 69, 0
2, 13080, Note_on_c, 0, 67, 92
2, 13135, Note_on_c, 0, 67, 0
2, 13140, Note_on_c, 0, 69, 92
2, 13195, Note_on_c, 0, 69, 0
2, 13200, Note_on_c, 0, 70, 92
2, 13214, Note_on_c, 0, 70, 0
2, 13215, Note_on_c, 0, 69, 92
2, 13229, Note_on_c, 0, 69, 0
2, 13230, Note_on_c, 0, 70, 92
2, 13244, Note_on_c, 0, 70, 0
2, 13245, Note_on_c, 0, 69, 92
2, 13369, Note_on_c, 0, 69, 0
2, 13380, Note_on_c, 0, 67, 92
2, 13407, Note_on_c, 0, 67, 0
2, 13440, Note_on_c, 0, 69, 92
2, 13440, Note_on_c, 0, 70, 92
2, 13495, Note_on_c, 0, 70, 0
2, 13500, Note_on_c, 0, 69, 92
2, 13555, Note_on_c, 0, 69, 0
2, 13560, Note_on_c, 0, 67, 92
2, 13615, Note_on_c, 0, 67, 0
2, 13620, Note_on_c, 0, 69, 92
2, 13675, Note_on_c, 0, 69, 0
2, 13680, Note_on_c, 0, 70, 92
2, 13735, Note_on_c, 0, 70, 0
2, 13740, Note_on_c, 0, 72, 92
2, 13795, Note_on_c, 0, 72, 0
2, 13800, Note_on_c, 0, 74, 92
2, 13909, Note_on_c, 0, 74, 0
2, 13920, Note_on_c, 0, 75, 92
2, 13934, Note_on_c, 0, 75, 0
2, 13935, Note_on_c, 0, 74, 92
2, 13949, Note_on_c, 0, 74, 0
2, 13950, Note_on_c, 0, 75, 92
2, 13964, Note_on_c, 0, 75, 0
2, 13965, Note_on_c, 0, 74, 92
2, 14035, Note_on_c, 0, 74, 0
2, 14040, Note_on_c, 0, 72, 92
2, 14149, Note_on_c, 0, 72, 0
2, 14280, Note_on_c, 0, 72, 92
2, 14389, Note_on_c, 0, 72, 0
2, 14400, Note_on_c, 0, 74, 92
2, 14414, Note_on_c, 0, 74, 0
2, 14415, Note_on_c, 0, 72, 92
2, 14429, Note_on_c, 0, 72, 0
2, 14430, Note_on_c, 0, 74, 92
2, 14444, Note_on_c, 0, 74, 0
2, 14445, Note_on_c, 0, 72, 92
2, 14515, Note_on_c, 0, 72, 0
2, 14520, Note_on_c, 0, 70, 92
2, 14629, Note_on_c, 0, 70, 0
2, 14760, Note_on_c, 0, 69, 92
2, 14869, Note_on_c, 0, 69, 0
2, 14880, Note_on_c, 0, 70, 92
2, 14989, Note_on_c, 0, 70, 0
2, 15000, Note_on_c, 0, 63, 92
2, 15175, Note_on_c, 0, 63, 0
2, 15180, Note_on_c, 0, 60, 92
2, 15235, Note_on_c, 0, 60, 0
2, 15240, Note_on_c, 0, 65, 92
2, 15295, Note_on_c, 0, 65, 0
2, 15300, Note_on_c, 0, 60, 92
2, 15355, Note_on_c, 0, 60, 0
2, 15360, Note_on_c, 0, 62, 92
2, 15469, Note_on_c, 0, 62, 0
2, 15480, Note_on_c, 0, 70, 92
2, 15655, Note_on_c, 0, 70, 0
2, 15660, Note_on_c, 0, 69, 92
2, 15715, Note_on_c, 0, 69, 0
2, 15720, Note_on_c, 0, 70, 92
2, 15775, Note_on_c, 0, 70, 0
2, 15780, Note_on_c, 0, 65, 92
2, 15835, Note_on_c, 0, 65, 0
2, 15840, Note_on_c, 0, 67, 92
2, 15895, Note_on_c, 0, 67, 0
2, 15900, Note_on_c, 0, 70, 92
2, 15955, Note_on_c, 0, 70, 0
2, 15960, Note_on_c, 0, 75, 92
2, 16015, Note_on_c, 0, 75, 0
2, 16020, Note_on_c, 0, 74, 92
2, 16075, Note_on_c, 0, 74, 0
2, 16080, Note_on_c, 0, 72, 92
2, 16135, Note_on_c, 0, 72, 0
2, 16140, Note_on_c, 0, 70, 92
2, 16195, Note_on_c, 0, 70, 0
2, 16200, Note_on_c, 0, 69, 92
2, 16255, Note_on_c, 0, 69, 0
2, 16260, Note_on_c, 0, 67, 92
2, 16315, Note_on_c, 0, 67, 0
2, 16320, Note_on_c, 0, 65, 92
2, 16375, Note_on_c, 0, 65, 0
2, 16380, Note_on_c, 0, 69, 92
2, 16435, Note_on_c, 0, 69, 0
2, 16440, Note_on_c, 0, 74, 92
2, 16495, Note_on_c, 0, 74, 0
2, 16500, Note_on_c, 0, 72, 92
2, 16555, Note_on_c, 0, 72, 0
2, 16560, Note_on_c, 0, 70, 92
2, 16615, Note_on_c, 0, 70, 0
2, 16620, Note_on_c, 0, 69, 92
2, 16675, Note_on_c, 0, 69, 0
2, 16680, Note_on_c, 0, 67, 92
2, 16735, Note_on_c, 0, 67, 0
2, 16740, Note_on_c, 0, 65, 92
2, 16795, Note_on_c, 0, 65, 0
2, 16800, Note_on_c, 0, 67, 92
2, 16855, Note_on_c, 0, 67, 0
2, 16860, Note_on_c, 0, 67, 92
2, 16915, Note_on_c, 0, 67, 0
2, 16920, Note_on_c, 0, 72, 92
2, 16975, Note_on_c, 0, 72, 0
2, 16980, Note_on_c, 0, 67, 92
2, 17035, Note_on_c, 0, 67, 0
2, 17040, Note_on_c, 0, 69, 92
2, 17204, Note_on_c, 0, 69, 0
2, 17220, Note_on_c, 0, 69, 92
2, 17275, Note_on_c, 0, 69, 0
2, 17280, Note_on_c, 0, 70, 92
2, 17335, Note_on_c, 0, 70, 0
2, 17340, Note_on_c, 0, 65, 92
2, 17395, Note_on_c, 0, 65, 0
2, 17400, Note_on_c, 0, 67, 92
2, 17455, Note_on_c, 0, 67, 0
2, 17460, Note_on_c, 0, 65, 92
2, 17515, Note_on_c, 0, 65, 0
2, 17520, Note_on_c, 0, 74, 92
2, 17815, Note_on_c, 0, 74, 0
2, 17820, Note_on_c, 0, 65, 92
2, 17875, Note_on_c, 0, 65, 0
2, 17880, Note_on_c, 0, 67, 92
2, 17935, Note_on_c, 0, 67, 0
2, 17940, Note_on_c, 0, 65, 92
2, 17995, Note_on_c, 0, 65, 0
2, 18000, Note_on_c, 0, 75, 92
2, 18295, Note_on_c, 0, 75, 0
2, 18300, Note_on_c, 0, 65, 92
2, 18355, Note_on_c, 0, 65, 0
2, 18360, Note_on_c, 0, 70, 92
2, 18415, Note_on_c, 0, 70, 0
2, 18420, Note_on_c, 0, 69, 92
2, 18475, Note_on_c, 0, 69, 0
2, 18480, Note_on_c, 0, 74, 92
2, 18535, Note_on_c, 0, 74, 0
2, 18540, Note_on_c, 0, 72, 92
2, 18595, Note_on_c, 0, 72, 0
2, 18600, Note_on_c, 0, 75, 92
2, 18655, Note_on_c, 0, 75, 0
2, 18660, Note_on_c, 0, 74, 92
2, 18715, Note_on_c, 0, 74, 0
2, 18720, Note_on_c, 0, 79, 92
2, 18775, Note_on_c, 0, 79, 0
2, 18780, Note_on_c, 0, 77, 92
2, 18835, Note_on_c, 0, 77, 0
2, 18840, Note_on_c, 0, 75, 92
2, 18895, Note_on_c, 0, 75, 0
2, 18900, Note_on_c, 0, 74, 92
2, 18955, Note_on_c, 0, 74, 0
2, 18960, Note_on_c, 0, 72, 92
2, 19015, Note_on_c, 0, 72, 0
2, 19020, Note_on_c, 0, 77, 92
2, 19075, Note_on_c, 0, 77, 0
2, 19080, Note_on_c, 0, 75, 92
2, 19135, Note_on_c, 0, 75, 0
2, 19140, Note_on_c, 0, 77, 92
2, 19195, Note_on_c, 0, 77, 0
2, 19200, Note_on_c, 0, 74, 92
2, 19255, Note_on_c, 0, 74, 0
2, 19260, Note_on_c, 0, 72, 92
2, 19315, Note_on_c, 0, 72, 0
2, 19320, Note_on_c, 0, 70, 92
2, 19375, Note_on_c, 0, 70, 0
2, 19380, Note_on_c, 0, 69, 92
2, 19435, Note_on_c, 0, 69, 0
2, 19440, Note_on_c, 0, 74, 92
2, 19495, Note_on_c, 0, 74, 0
2, 19500, Note_on_c, 0, 72, 92
2, 19555, Note_on_c, 0, 72, 0
2, 19560, Note_on_c, 0, 75, 92
2, 19615, Note_on_c, 0, 75, 0
2, 19620, Note_on_c, 0, 74, 92
2, 19675, Note_on_c, 0, 74, 0
2, 19680, Note_on_c, 0, 72, 92
2, 19735, Note_on_c, 0, 72, 0
2, 19740, Note_on_c, 0, 70, 92
2, 19795, Note_on_c, 0, 70, 0
2, 19800, Note_on_c, 0, 69, 92
2, 19855, Note_on_c, 0, 69, 0
2, 19860, Note_on_c, 0, 72, 92
2, 19915, Note_on_c, 0, 72, 0
2, 19920, Note_on_c, 0, 77, 92
2, 20215, Note_on_c, 0, 77, 0
2, 20220, Note_on_c, 0, 67, 92
2, 20275, Note_on_c, 0, 67, 0
2, 20280, Note_on_c, 0, 72, 92
2, 20335, Note_on_c, 0, 72, 0
2, 20340, Note_on_c, 0, 71, 92
2, 20395, Note_on_c, 0, 71, 0
2, 20400, Note_on_c, 0, 75, 92
2, 20455, Note_on_c, 0, 75, 0
2, 20460, Note_on_c, 0, 74, 92
2, 20515, Note_on_c, 0, 74, 0
2, 20520, Note_on_c, 0, 77, 92
2, 20575, Note_on_c, 0, 77, 0
2, 20580, Note_on_c, 0, 75, 92
2, 20635, Note_on_c, 0, 75, 0
2, 20640, Note_on_c, 0, 80, 92
2, 20695, Note_on_c, 0, 80, 0
2, 20700, Note_on_c, 0, 79, 92
2, 20755, Note_on_c, 0, 79, 0
2, 20760, Note_on_c, 0, 77, 92
2, 20815, Note_on_c, 0, 77, 0
2, 20820, Note_on_c, 0, 75, 92
2, 20875, Note_on_c, 0, 75, 0
2, 20880, Note_on_c, 0, 74, 92
2, 20935, Note_on_c, 0, 74, 0
2, 20940, Note_on_c, 0, 79, 92
2, 20995, Note_on_c, 0, 79, 0
2, 21000, Note_on_c, 0, 77, 92
2, 21055, Note_on_c, 0, 77, 0
2, 21060, Note_on_c, 0, 79, 92
2, 21115, Note_on_c, 0, 79, 0
2, 21120, Note_on_c, 0, 75, 92
2, 21175, Note_on_c, 0, 75, 0
2, 21180, Note_on_c, 0, 74, 92
2, 21235, Note_on_c, 0, 74, 0
2, 21240, Note_on_c, 0, 72, 92
2, 21295, Note_on_c, 0, 72, 0
2, 21300, Note_on_c, 0, 70, 92
2, 21355, Note_on_c, 0, 70, 0
2, 21360, Note_on_c, 0, 72, 92
2, 21415, Note_on_c, 0, 72, 0
2, 21420, Note_on_c, 0, 74, 92
2, 21475, Note_on_c, 0, 74, 0
2, 21480, Note_on_c, 0, 75, 92
2, 21535, Note_on_c, 0, 75, 0
2, 21540, Note_on_c, 0, 67, 92
2, 21595, Note_on_c, 0, 67, 0
2, 21600, Note_on_c, 0, 68, 92
2, 21655, Note_on_c, 0, 68, 0
2, 21660, Note_on_c, 0, 70, 92
2, 21715, Note_on_c, 0, 70, 0
2, 21720, Note_on_c, 0, 68, 92
2, 21775, Note_on_c, 0, 68, 0
2, 21780, Note_on_c, 0, 65, 92
2, 21835, Note_on_c, 0, 65, 0
2, 21840, Note_on_c, 0, 77, 92
2, 21895, Note_on_c, 0, 77, 0
2, 21900, Note_on_c, 0, 75, 92
2, 21955, Note_on_c, 0, 75, 0
2, 21960, Note_on_c, 0, 74, 92
2, 22015, Note_on_c, 0, 74, 0
2, 22020, Note_on_c, 0, 72, 92
2, 22075, Note_on_c, 0, 72, 0
2, 22080, Note_on_c, 0, 71, 92
2, 22135, Note_on_c, 0, 71, 0
2, 22140, Note_on_c, 0, 80, 92
2, 22195, Note_on_c, 0, 80, 0
2, 22200, Note_on_c, 0, 79, 92
2, 22255, Note_on_c, 0, 79, 0
2, 22260, Note_on_c, 0, 77, 92
2, 22315, Note_on_c, 0, 77, 0
2, 22320, Note_on_c, 0, 75, 92
2, 22375, Note_on_c, 0, 75, 0
2, 22380, Note_on_c, 0, 74, 92
2, 22435, Note_on_c, 0, 74, 0
2, 22440, Note_on_c, 0, 72, 92
2, 22495, Note_on_c, 0, 72, 0
2, 22500, Note_on_c, 0, 71, 92
2, 22555, Note_on_c, 0, 71, 0
2, 22560, Note_on_c, 0, 72, 92
2, 22615, Note_on_c, 0, 72, 0
2, 22620, Note_on_c, 0, 74, 92
2, 22675, Note_on_c, 0, 74, 0
2, 22680, Note_on_c, 0, 72, 92
2, 22735, Note_on_c, 0, 72, 0
2, 22740, Note_on_c, 0, 74, 92
2, 22795, Note_on_c, 0, 74, 0
2, 22800, Note_on_c, 0, 75, 92
2, 22814, Note_on_c, 0, 75, 0
2, 22815, Note_on_c, 0, 74, 92
2, 22829, Note_on_c, 0, 74, 0
2, 22830, Note_on_c, 0, 75, 92
2, 22844, Note_on_c, 0, 75, 0
2, 22845, Note_on_c, 0, 74, 92
2, 22969, Note_on_c, 0, 74, 0
2, 22980, Note_on_c, 0, 72, 92
2, 23007, Note_on_c, 0, 72, 0
2, 23040, Note_on_c, 0, 74, 92
2, 23040, Note_on_c, 0, 75, 92
2, 23095, Note_on_c, 0, 75, 0
2, 23100, Note_on_c, 0, 74, 92
2, 23155, Note_on_c, 0, 74, 0
2, 23160, Note_on_c, 0, 72, 92
2, 23215, Note_on_c, 0, 72, 0
2, 23220, Note_on_c, 0, 74, 92
2, 23275, Note_on_c, 0, 74, 0
2, 23280, Note_on_c, 0, 75, 92
2, 23335, Note_on_c, 0, 75, 0
2, 23340, Note_on_c, 0, 77, 92
2, 23395, Note_on_c, 0, 77, 0
2, 23400, Note_on_c, 0, 79, 92
2, 23509, Note_on_c, 0, 79, 0
2, 23520, Note_on_c, 0, 80, 92
2, 23534, Note_on_c, 0, 80, 0
2, 23535, Note_on_c, 0, 79, 92
2, 23549, Note_on_c, 0, 79, 0
2, 23550, Note_on_c, 0, 80, 92
2, 23564, Note_on_c, 0, 80, 0
2, 23565, Note_on_c, 0, 79, 92
2, 23635, Note_on_c, 0, 79, 0
2, 23640, Note_on_c, 0, 77, 92
2, 23749, Note_on_c, 0, 77, 0
2, 23880, Note_on_c, 0, 77, 92
2, 23989, Note_on_c, 0, 77, 0
2, 24000, Note_on_c, 0, 79, 92
2, 24014, Note_on_c, 0, 79, 0
2, 24015, Note_on_c, 0, 77, 92
2, 24029, Note_on_c, 0, 77, 0
2, 24030, Note_on_c, 0, 79, 92
2, 24044, Note_on_c, 0, 79, 0
2, 24045, Note_on_c, 0, 77, 92
2, 24115, Note_on_c, 0, 77, 0
2, 24120, Note_on_c, 0, 75, 92
2, 24175, Note_on_c, 0, 75, 0
2, 24180, Note_on_c, 0, 74, 92
2, 24235, Note_on_c, 0, 74, 0
2, 24240, Note_on_c, 0, 79, 92
2, 24295, Note_on_c, 0, 79, 0
2, 24300, Note_on_c, 0, 77, 92
2, 24355, Note_on_c, 0, 77, 0
2, 24360, Note_on_c, 0, 80, 92
2, 24415, Note_on_c, 0, 80, 0
2, 24420, Note_on_c, 0, 79, 92
2, 24475, Note_on_c, 0, 79, 0
2, 24480, Note_on_c, 0, 79, 92
2, 24644, Note_on_c, 0, 79, 0
2, 24660, Note_on_c, 0, 80, 92
2, 24715, Note_on_c, 0, 80, 0
2, 24720, Note_on_c, 0, 75, 92
2, 24734, Note_on_c, 0, 75, 0
2, 24735, Note_on_c, 0, 74, 92
2, 24749, Note_on_c, 0, 74, 0
2, 24750, Note_on_c, 0, 75, 92
2, 24764, Note_on_c, 0, 75, 0
2, 24765, Note_on_c, 0, 74, 92
2, 24889, Note_on_c, 0, 74, 0
2, 24900, Note_on_c, 0, 72, 92
2, 24955, Note_on_c, 0, 72, 0
2, 24960, Note_on_c, 0, 72, 92
2, 25834, Note_on_c, 0, 72, 0
2, 25920, Note_on_c, 0, 74, 0
2, 25920, Note_on_c, 0, 69, 0
2, 25920, Note_on_c, 0, 74, 0
2, 25920, End_track
3, 0, Start_track
3, 0, Title_t, "Harpsichord LH"
3, 0, Program_c, 0, 6
3, 0, Control_c, 0, 7, 100
3, 0, Control_c, 0, 10, 48
3, 2040, Note_on_c, 0, 60, 92
3, 2095, Note_on_c, 0, 60, 0
3, 2100, Note_on_c, 0, 59, 92
3, 2155, Note_on_c, 0, 59, 0
3, 2160, Note_on_c, 0, 60, 92
3, 2215, Note_on_c, 0, 60, 0
3, 2220, Note_on_c, 0, 62, 92
3, 2275, Note_on_c, 0, 62, 0
3, 2280, Note_on_c, 0, 63, 92
3, 2335, Note_on_c, 0, 63, 0
3, 2340, Note_on_c, 0, 55, 92
3, 2395, Note_on_c, 0, 55, 0
3, 2400, Note_on_c, 0, 56, 92
3, 2455, Note_on_c, 0, 56, 0
3, 2460, Note_on_c, 0, 58, 92
3, 2515, Note_on_c, 0, 58, 0
3, 2520, Note_on_c, 0, 56, 92
3, 2575, Note_on_c, 0, 56, 0
3, 2580, Note_on_c, 0, 53, 92
3, 2635, Note_on_c, 0, 53, 0
3, 2640, Note_on_c, 0, 65, 92
3, 2695, Note_on_c, 0, 65, 0
3, 2700, Note_on_c, 0, 63, 92
3, 2755, Note_on_c, 0, 63, 0
3, 2760, Note_on_c, 0, 62, 92
3, 2815, Note_on_c, 0, 62, 0
3, 2820, Note_on_c, 0, 60, 92
3, 2875, Note_on_c, 0, 60, 0
3, 2880, Note_on_c, 0, 59, 92
3, 2935, Note_on_c, 0, 59, 0
3, 2940, Note_on_c, 0, 68, 92
3, 2995, Note_on_c, 0, 68, 0
3, 3000, Note_on_c, 0, 67, 92
3, 3055, Note_on_c, 0, 67, 0
3, 3060, Note_on_c, 0, 65, 92
3, 3115, Note_on_c, 0, 65, 0
3, 3120, Note_on_c, 0, 63, 92
3, 3175, Note_on_c, 0, 63, 0
3, 3180, Note_on_c, 0, 62, 92
3, 3235, Note_on_c, 0, 62, 0
3, 3240, Note_on_c, 0, 60, 92
3, 3295, Note_on_c, 0, 60, 0
3, 3300, Note_on_c, 0, 59, 92
3, 3355, Note_on_c, 0, 59, 0
3, 3360, Note_on_c, 0, 60, 92
3, 3415, Note_on_c, 0, 60, 0
3, 3420, Note_on_c, 0, 62, 92
3, 3475, Note_on_c, 0, 62, 0
3, 3480, Note_on_c, 0, 60, 92
3, 3535, Note_on_c, 0, 60, 0
3, 3540, Note_on_c, 0, 62, 92
3, 3595, Note_on_c, 0, 62, 0
3, 3600, Note_on_c, 0, 63, 92
3, 3614, Note_on_c, 0, 63, 0
3, 3615, Note_on_c, 0, 62, 92
3, 3629, Note_on_c, 0, 62, 0
3, 3630, Note_on_c, 0, 63, 92
3, 3644, Note_on_c, 0, 63, 0
3, 3645, Note_on_c, 0, 62, 92
3, 3769, Note_on_c, 0, 62, 0
3, 3780, Note_on_c, 0, 60, 92
3, 3807, Note_on_c, 0, 60, 0
3, 3840, Note_on_c, 0, 63, 92
3, 3840, Note_on_c, 0, 62, 92
3, 3895, Note_on_c, 0, 63, 0
3, 3900, Note_on_c, 0, 62, 92
3, 3955, Note_on_c, 0, 62, 0
3, 3960, Note_on_c, 0, 60, 92
3, 4015, Note_on_c, 0, 60, 0
3, 4020, Note_on_c, 0, 62, 92
3, 4075, Note_on_c, 0, 62, 0
3, 4080, Note_on_c, 0, 63, 92
3, 4135, Note_on_c, 0, 63, 0
3, 4140, Note_on_c, 0, 65, 92
3, 4195, Note_on_c, 0, 65, 0
3, 4200, Note_on_c, 0, 67, 92
3, 4309, Note_on_c, 0, 67, 0
3, 4320, Note_on_c, 0, 68, 92
3, 4334, Note_on_c, 0, 68, 0
3, 4335, Note_on_c, 0, 67, 92
3, 4349, Note_on_c, 0, 67, 0
3, 4350, Note_on_c, 0, 68, 92
3, 4364, Note_on_c, 0, 68, 0
3, 4365, Note_on_c, 0, 67, 92
3, 4435, Note_on_c, 0, 67, 0
3, 4440, Note_on_c, 0, 65, 92
3, 4549, Note_on_c, 0, 65, 0
3, 4680, Note_on_c, 0, 65, 92
3, 4789, Note_on_c, 0, 65, 0
3, 4800, Note_on_c, 0, 67, 92
3, 4814, Note_on_c, 0, 67, 0
3, 4815, Note_on_c, 0, 65, 92
3, 4829, Note_on_c, 0, 65, 0
3, 4830, Note_on_c, 0, 67, 92
3, 4844, Note_on_c, 0, 67, 0
3, 4845, Note_on_c, 0, 65, 92
3, 4915, Note_on_c, 0, 65, 0
3, 4920, Note_on_c, 0, 63, 92
3, 5029, Note_on_c, 0, 63, 0
3, 5160, Note_on_c, 0, 62, 92
3, 5269, Note_on_c, 0, 62, 0
3, 5280, Note_on_c, 0, 63, 92
3, 5389, Note_on_c, 0, 63, 0
3, 5400, Note_on_c, 0, 56, 92
3, 5575, Note_on_c, 0, 56, 0
3, 5580, Note_on_c, 0, 53, 92
3, 5635, Note_on_c, 0, 53, 0
3, 5640, Note_on_c, 0, 58, 92
3, 5695, Note_on_c, 0, 58, 0
3, 5700, Note_on_c, 0, 53, 92
3, 5755, Note_on_c, 0, 53, 0
3, 5760, Note_on_c, 0, 55, 92
3, 5869, Note_on_c, 0, 55, 0
3, 5880, Note_on_c, 0, 63, 92
3, 6055, Note_on_c, 0, 63, 0
3, 6060, Note_on_c, 0, 62, 92
3, 6115, Note_on_c, 0, 62, 0
3, 6120, Note_on_c, 0, 63, 92
3, 6175, Note_on_c, 0, 63, 0
3, 6180, Note_on_c, 0, 58, 92
3, 6235, Note_on_c, 0, 58, 0
3, 6240, Note_on_c, 0, 60, 92
3, 6295, Note_on_c, 0, 60, 0
3, 6300, Note_on_c, 0, 63, 92
3, 6355, Note_on_c, 0, 63, 0
3, 6360, Note_on_c, 0, 68, 92
3, 6415, Note_on_c, 0, 68, 0
3, 6420, Note_on_c, 0, 67, 92
3, 6475, Note_on_c, 0, 67, 0
3, 6480, Note_on_c, 0, 65, 92
3, 6535, Note_on_c, 0, 65, 0
3, 6540, Note_on_c, 0, 63, 92
3, 6595, Note_on_c, 0, 63, 0
3, 6600, Note_on_c, 0, 62, 92
3, 6655, Note_on_c, 0, 62, 0
3, 6660, Note_on_c, 0, 60, 92
3, 6715, Note_on_c, 0, 60, 0
3, 6720, Note_on_c, 0, 58, 92
3, 6775, Note_on_c, 0, 58, 0
3, 6780, Note_on_c, 0, 62, 92
3, 6835, Note_on_c, 0, 62, 0
3, 6840, Note_on_c, 0, 67, 92
3, 6895, Note_on_c, 0, 67, 0
3, 6900, Note_on_c, 0, 65, 92
3, 6955, Note_on_c, 0, 65, 0
3, 6960, Note_on_c, 0, 63, 92
3, 7015, Note_on_c, 0, 63, 0
3, 7020, Note_on_c, 0, 62, 92
3, 7075, Note_on_c, 0, 62, 0
3, 7080, Note_on_c, 0, 60, 92
3, 7135, Note_on_c, 0, 60, 0
3, 7140, Note_on_c, 0, 58, 92
3, 7195, Note_on_c, 0, 58, 0
3, 7200, Note_on_c, 0, 56, 92
3, 7255, Note_on_c, 0, 56, 0
3, 7260, Note_on_c, 0, 60, 92
3, 7315, Note_on_c, 0, 60, 0
3, 7320, Note_on_c, 0, 65, 92
3, 7375, Note_on_c, 0, 65, 0
3, 7380, Note_on_c, 0, 60, 92
3, 7435, Note_on_c, 0, 60, 0
3, 7440, Note_on_c, 0, 63, 92
3, 7454, Note_on_c, 0, 63, 0
3, 7455, Note_on_c, 0, 62, 92
3, 7469, Note_on_c, 0, 62, 0
3, 7470, Note_on_c, 0, 63, 92
3, 7484, Note_on_c, 0, 63, 0
3, 7485, Note_on_c, 0, 62, 92
3, 7609, Note_on_c, 0, 62, 0
3, 7620, Note_on_c, 0, 60, 92
3, 7647, Note_on_c, 0, 60, 0
3, 7680, Note_on_c, 0, 62, 92
3, 7680, Note_on_c, 0, 63, 92
3, 7735, Note_on_c, 0, 63, 0
3, 7740, Note_on_c, 0, 58, 92
3, 7795, Note_on_c, 0, 58, 0
3, 7800, Note_on_c, 0, 60, 92
3, 7855, Note_on_c, 0, 60, 0
3, 7860, Note_on_c, 0, 58, 92
3, 7915, Note_on_c, 0, 58, 0
3, 7920, Note_on_c, 0, 67, 92
3, 8215, Note_on_c, 0, 67, 0
3, 8220, Note_on_c, 0, 58, 92
3, 8275, Note_on_c, 0, 58, 0
3, 8280, Note_on_c, 0, 60, 92
3, 8335, Note_on_c, 0, 60, 0
3, 8340, Note_on_c, 0, 58, 92
3, 8395, Note_on_c, 0, 58, 0
3, 8400, Note_on_c, 0, 68, 92
3, 8695, Note_on_c, 0, 68, 0
3, 8700, Note_on_c, 0, 58, 92
3, 8755, Note_on_c, 0, 58, 0
3, 8760, Note_on_c, 0, 63, 92
3, 8815, Note_on_c, 0, 63, 0
3, 8820, Note_on_c, 0, 62, 92
3, 8875, Note_on_c, 0, 62, 0
3, 8880, Note_on_c, 0, 67, 92
3, 8935, Note_on_c, 0, 67, 0
3, 8940, Note_on_c, 0, 65, 92
3, 8995, Note_on_c, 0, 65, 0
3, 9000, Note_on_c, 0, 68, 92
3, 9055, Note_on_c, 0, 68, 0
3, 9060, Note_on_c, 0, 67, 92
3, 9115, Note_on_c, 0, 67, 0
3, 9120, Note_on_c, 0, 72, 92
3, 9175, Note_on_c, 0, 72, 0
3, 9180, Note_on_c, 0, 70, 92
3, 9235, Note_on_c, 0, 70, 0
3, 9240, Note_on_c, 0, 68, 92
3, 9295, Note_on_c, 0, 68, 0
3, 9300, Note_on_c, 0, 67, 92
3, 9355, Note_on_c, 0, 67, 0
3, 9360, Note_on_c, 0, 65, 92
3, 9415, Note_on_c, 0, 65, 0
3, 9420, Note_on_c, 0, 70, 92
3, 9475, Note_on_c, 0, 70, 0
3, 9480, Note_on_c, 0, 68, 92
3, 9535, Note_on_c, 0, 68, 0
3, 9540, Note_on_c, 0, 70, 92
3, 9595, Note_on_c, 0, 70, 0
3, 9600, Note_on_c, 0, 67, 92
3, 9709, Note_on_c, 0, 67, 0
3, 9720, Note_on_c, 0, 51, 92
3, 9775, Note_on_c, 0, 51, 0
3, 9780, Note_on_c, 0, 53, 92
3, 9835, Note_on_c, 0, 53, 0
3, 9840, Note_on_c, 0, 55, 92
3, 9895, Note_on_c, 0, 55, 0
3, 9900, Note_on_c, 0, 57, 92
3, 9955, Note_on_c, 0, 57, 0
3, 9960, Note_on_c, 0, 58, 92
3, 10015, Note_on_c, 0, 58, 0
3, 10020, Note_on_c, 0, 50, 92
3, 10075, Note_on_c, 0, 50, 0
3, 10080, Note_on_c, 0, 51, 92
3, 10135, Note_on_c, 0, 51, 0
3, 10140, Note_on_c, 0, 53, 92
3, 10195, Note_on_c, 0, 53, 0
3, 10200, Note_on_c, 0, 51, 92
3, 10255, Note_on_c, 0, 51, 0
3, 10260, Note_on_c, 0, 48, 92
3, 10315, Note_on_c, 0, 48, 0
3, 10320, Note_on_c, 0, 60, 92
3, 10375, Note_on_c, 0, 60, 0
3, 10380, Note_on_c, 0, 58, 92
3, 10435, Note_on_c, 0, 58, 0
3, 10440, Note_on_c, 0, 57, 92
3, 10495, Note_on_c, 0, 57, 0
3, 10500, Note_on_c, 0, 55, 92
3, 10555, Note_on_c, 0, 55, 0
3, 10560, Note_on_c, 0, 54, 92
3, 10615, Note_on_c, 0, 54, 0
3, 10620, Note_on_c, 0, 63, 92
3, 10675, Note_on_c, 0, 63, 0
3, 10680, Note_on_c, 0, 62, 92
3, 10735, Note_on_c, 0, 62, 0
3, 10740, Note_on_c, 0, 60, 92
3, 10795, Note_on_c, 0, 60, 0
3, 10800, Note_on_c, 0, 58, 92
3, 10855, Note_on_c, 0, 58, 0
3, 10860, Note_on_c, 0, 57, 92
3, 10915, Note_on_c, 0, 57, 0
3, 10920, Note_on_c, 0, 55, 92
3, 10975, Note_on_c, 0, 55, 0
3, 10980, Note_on_c, 0, 54, 92
3, 11035, Note_on_c, 0, 54, 0
3, 11040, Note_on_c, 0, 55, 92
3, 11095, Note_on_c, 0, 55, 0
3, 11100, Note_on_c, 0, 57, 92
3, 11155, Note_on_c, 0, 57, 0
3, 11160, Note_on_c, 0, 55, 92
3, 11215, Note_on_c, 0, 55, 0
3, 11220, Note_on_c, 0, 57, 92
3, 11275, Note_on_c, 0, 57, 0
3, 11280, Note_on_c, 0, 58, 92
3, 11294, Note_on_c, 0, 58, 0
3, 11295, Note_on_c, 0, 57, 92
3, 11309, Note_on_c, 0, 57, 0
3, 11310, Note_on_c, 0, 58, 92
3, 11324, Note_on_c, 0, 58, 0
3, 11325, Note_on_c, 0, 57, 92
3, 11449, Note_on_c, 0, 57, 0
3, 11460, Note_on_c, 0, 55, 92
3, 11487, Note_on_c, 0, 55, 0
3, 11520, Note_on_c, 0, 58, 92
3, 11520, Note_on_c, 0, 57, 92
3, 11575, Note_on_c, 0, 58, 0
3, 11580, Note_on_c, 0, 57, 92
3, 11635, Note_on_c, 0, 57, 0
3, 11640, Note_on_c, 0, 55, 92
3, 11695, Note_on_c, 0, 55, 0
3, 11700, Note_on_c, 0, 57, 92
3, 11755, Note_on_c, 0, 57, 0
3, 11760, Note_on_c, 0, 58, 92
3, 11815, Note_on_c, 0, 58, 0
3, 11820, Note_on_c, 0, 60, 92
3, 11875, Note_on_c, 0, 60, 0
3, 11880, Note_on_c, 0, 62, 92
3, 11989, Note_on_c, 0, 62, 0
3, 12000, Note_on_c, 0, 60, 92
3, 12014, Note_on_c, 0, 60, 0
3, 12015, Note_on_c, 0, 62, 92
3, 12029, Note_on_c, 0, 62, 0
3, 12030, Note_on_c, 0, 60, 92
3, 12044, Note_on_c, 0, 60, 0
3, 12045, Note_on_c, 0, 62, 92
3, 12115, Note_on_c, 0, 62, 0
3, 12120, Note_on_c, 0, 60, 92
3, 12229, Note_on_c, 0, 60, 0
3, 12360, Note_on_c, 0, 60, 92
3, 12469, Note_on_c, 0, 60, 0
3, 12480, Note_on_c, 0, 62, 92
3, 12494, Note_on_c, 0, 62, 0
3, 12495, Note_on_c, 0, 60, 92
3, 12509, Note_on_c, 0, 60, 0
3, 12510, Note_on_c, 0, 62, 92
3, 12524, Note_on_c, 0, 62, 0
3, 12525, Note_on_c, 0, 60, 92
3, 12595, Note_on_c, 0, 60, 0
3, 12600, Note_on_c, 0, 58, 92
3, 12709, Note_on_c, 0, 58, 0
3, 12840, Note_on_c, 0, 57, 92
3, 12949, Note_on_c, 0, 57, 0
3, 12960, Note_on_c, 0, 58, 92
3, 13069, Note_on_c, 0, 58, 0
3, 13080, Note_on_c, 0, 51, 92
3, 13255, Note_on_c, 0, 51, 0
3, 13260, Note_on_c, 0, 48, 92
3, 13315, Note_on_c, 0, 48, 0
3, 13320, Note_on_c, 0, 53, 92
3, 13375, Note_on_c, 0, 53, 0
3, 13380, Note_on_c, 0, 48, 92
3, 13435, Note_on_c, 0, 48, 0
3, 13440, Note_on_c, 0, 50, 92
3, 13549, Note_on_c, 0, 50, 0
3, 13560, Note_on_c, 0, 58, 92
3, 13735, Note_on_c, 0, 58, 0
3, 13740, Note_on_c, 0, 57, 92
3, 13795, Note_on_c, 0, 57, 0
3, 13800, Note_on_c, 0, 58, 92
3, 13855, Note_on_c, 0, 58, 0
3, 13860, Note_on_c, 0, 53, 92
3, 13915, Note_on_c, 0, 53, 0
3, 13920, Note_on_c, 0, 55, 92
3, 13975, Note_on_c, 0, 55, 0
3, 13980, Note_on_c, 0, 58, 92
3, 14035, Note_on_c, 0, 58, 0
3, 14040, Note_on_c, 0, 63, 92
3, 14095, Note_on_c, 0, 63, 0
3, 14100, Note_on_c, 0, 62, 92
3, 14155, Note_on_c, 0, 62, 0
3, 14160, Note_on_c, 0, 60, 92
3, 14215, Note_on_c, 0, 60, 0
3, 14220, Note_on_c, 0, 58, 92
3, 14275, Note_on_c, 0, 58, 0
3, 14280, Note_on_c, 0, 57, 92
3, 14335, Note_on_c, 0, 57, 0
3, 14340, Note_on_c, 0, 55, 92
3, 14395, Note_on_c, 0, 55, 0
3, 14400, Note_on_c, 0, 53, 92
3, 14455, Note_on_c, 0, 53, 0
3, 14460, Note_on_c, 0, 57, 92
3, 14515, Note_on_c, 0, 57, 0
3, 14520, Note_on_c, 0, 62, 92
3, 14575, Note_on_c, 0, 62, 0
3, 14580, Note_on_c, 0, 60, 92
3, 14635, Note_on_c, 0, 60, 0
3, 14640, Note_on_c, 0, 58, 92
3, 14695, Note_on_c, 0, 58, 0
3, 14700, Note_on_c, 0, 57, 92
3, 14755, Note_on_c, 0, 57, 0
3, 14760, Note_on_c, 0, 55, 92
3, 14815, Note_on_c, 0, 55, 0
3, 14820, Note_on_c, 0, 53, 92
3, 14875, Note_on_c, 0, 53, 0
3, 14880, Note_on_c, 0, 51, 92
3, 14935, Note_on_c, 0, 51, 0
3, 14940, Note_on_c, 0, 55, 92
3, 14995, Note_on_c, 0, 55, 0
3, 15000, Note_on_c, 0, 60, 92
3, 15055, Note_on_c, 0, 60, 0
3, 15060, Note_on_c, 0, 55, 92
3, 15115, Note_on_c, 0, 55, 0
3, 15120, Note_on_c, 0, 58, 92
3, 15134, Note_on_c, 0, 58, 0
3, 15135, Note_on_c, 0, 57, 92
3, 15149, Note_on_c, 0, 57, 0
3, 15150, Note_on_c, 0, 58, 92
3, 15164, Note_on_c, 0, 58, 0
3, 15165, Note_on_c, 0, 57, 92
3, 15289, Note_on_c, 0, 57, 0
3, 15300, Note_on_c, 0, 55, 92
3, 15327, Note_on_c, 0, 55, 0
3, 15360, Note_on_c, 0, 57, 92
3, 15360, Note_on_c, 0, 58, 92
3, 15415, Note_on_c, 0, 58, 0
3, 15420, Note_on_c, 0, 53, 92
3, 15475, Note_on_c, 0, 53, 0
3, 15480, Note_on_c, 0, 55, 92
3, 15535, Note_on_c, 0, 55, 0
3, 15540, Note_on_c, 0, 53, 92
3, 15595, Note_on_c, 0, 53, 0
3, 15600, Note_on_c, 0, 62, 92
3, 15895, Note_on_c, 0, 62, 0
3, 15900, Note_on_c, 0, 53, 92
3, 15955, Note_on_c, 0, 53, 0
3, 15960, Note_on_c, 0, 55, 92
3, 16015, Note_on_c, 0, 55, 0
3, 16020, Note_on_c, 0, 53, 92
3, 16075, Note_on_c, 0, 53, 0
3, 16080, Note_on_c, 0, 63, 92
3, 16375, Note_on_c, 0, 63, 0
3, 16380, Note_on_c, 0, 53, 92
3, 16435, Note_on_c, 0, 53, 0
3, 16440, Note_on_c, 0, 58, 92
3, 16495, Note_on_c, 0, 58, 0
3, 16500, Note_on_c, 0, 57, 92
3, 16555, Note_on_c, 0, 57, 0
3, 16560, Note_on_c, 0, 62, 92
3, 16615, Note_on_c, 0, 62, 0
3, 16620, Note_on_c, 0, 60, 92
3, 16675, Note_on_c, 0, 60, 0
3, 16680, Note_on_c, 0, 63, 92
3, 16735, Note_on_c, 0, 63, 0
3, 16740, Note_on_c, 0, 62, 92
3, 16795, Note_on_c, 0, 62, 0
3, 16800, Note_on_c, 0, 63, 92
3, 16855, Note_on_c, 0, 63, 0
3, 16860, Note_on_c, 0, 65, 92
3, 16915, Note_on_c, 0, 65, 0
3, 16920, Note_on_c, 0, 63, 92
3, 16975, Note_on_c, 0, 63, 0
3, 16980, Note_on_c, 0, 62, 92
3, 17035, Note_on_c, 0, 62, 0
3, 17040, Note_on_c, 0, 60, 92
3, 17095, Note_on_c, 0, 60, 0
3, 17100, Note_on_c, 0, 65, 92
3, 17155, Note_on_c, 0, 65, 0
3, 17160, Note_on_c, 0, 63, 92
3, 17215, Note_on_c, 0, 63, 0
3, 17220, Note_on_c, 0, 65, 92
3, 17275, Note_on_c, 0, 65, 0
3, 17280, Note_on_c, 0, 62, 92
3, 17335, Note_on_c, 0, 62, 0
3, 17340, Note_on_c, 0, 62, 92
3, 17395, Note_on_c, 0, 62, 0
3, 17400, Note_on_c, 0, 63, 92
3, 17455, Note_on_c, 0, 63, 0
3, 17460, Note_on_c, 0, 62, 92
3, 17515, Note_on_c, 0, 62, 0
3, 17520, Note_on_c, 0, 58, 92
3, 17575, Note_on_c, 0, 58, 0
3, 17580, Note_on_c, 0, 62, 92
3, 17635, Note_on_c, 0, 62, 0
3, 17640, Note_on_c, 0, 60, 92
3, 17695, Note_on_c, 0, 60, 0
3, 17700, Note_on_c, 0, 62, 92
3, 17755, Note_on_c, 0, 62, 0
3, 17760, Note_on_c, 0, 55, 92
3, 17815, Note_on_c, 0, 55, 0
3, 17820, Note_on_c, 0, 57, 92
3, 17875, Note_on_c, 0, 57, 0
3, 17880, Note_on_c, 0, 58, 92
3, 17935, Note_on_c, 0, 58, 0
3, 17940, Note_on_c, 0, 60, 92
3, 17995, Note_on_c, 0, 60, 0
3, 18000, Note_on_c, 0, 57, 92
3, 18055, Note_on_c, 0, 57, 0
3, 18060, Note_on_c, 0, 58, 92
3, 18115, Note_on_c, 0, 58, 0
3, 18120, Note_on_c, 0, 60, 92
3, 18175, Note_on_c, 0, 60, 0
3, 18180, Note_on_c, 0, 62, 92
3, 18235, Note_on_c, 0, 62, 0
3, 18240, Note_on_c, 0, 58, 92
3, 18295, Note_on_c, 0, 58, 0
3, 18300, Note_on_c, 0, 60, 92
3, 18355, Note_on_c, 0, 60, 0
3, 18360, Note_on_c, 0, 62, 92
3, 18415, Note_on_c, 0, 62, 0
3, 18420, Note_on_c, 0, 63, 92
3, 18475, Note_on_c, 0, 63, 0
3, 18480, Note_on_c, 0, 65, 92
3, 18535, Note_on_c, 0, 65, 0
3, 18540, Note_on_c, 0, 63, 92
3, 18595, Note_on_c, 0, 63, 0
3, 18600, Note_on_c, 0, 67, 92
3, 18655, Note_on_c, 0, 67, 0
3, 18660, Note_on_c, 0, 65, 92
3, 18715, Note_on_c, 0, 65, 0
3, 18720, Note_on_c, 0, 63, 92
3, 18775, Note_on_c, 0, 63, 0
3, 18780, Note_on_c, 0, 62, 92
3, 18835, Note_on_c, 0, 62, 0
3, 18840, Note_on_c, 0, 60, 92
3, 18895, Note_on_c, 0, 60, 0
3, 18900, Note_on_c, 0, 63, 92
3, 18955, Note_on_c, 0, 63, 0
3, 18960, Note_on_c, 0, 57, 92
3, 19255, Note_on_c, 0, 57, 0
3, 19260, Note_on_c, 0, 50, 92
3, 19315, Note_on_c, 0, 50, 0
3, 19320, Note_on_c, 0, 55, 92
3, 19375, Note_on_c, 0, 55, 0
3, 19380, Note_on_c, 0, 54, 92
3, 19435, Note_on_c, 0, 54, 0
3, 19440, Note_on_c, 0, 58, 92
3, 19495, Note_on_c, 0, 58, 0
3, 19500, Note_on_c, 0, 57, 92
3, 19555, Note_on_c, 0, 57, 0
3, 19560, Note_on_c, 0, 60, 92
3, 19615, Note_on_c, 0, 60, 0
3, 19620, Note_on_c, 0, 58, 92
3, 19675, Note_on_c, 0, 58, 0
3, 19680, Note_on_c, 0, 63, 92
3, 19735, Note_on_c, 0, 63, 0
3, 19740, Note_on_c, 0, 62, 92
3, 19795, Note_on_c, 0, 62, 0
3, 19800, Note_on_c, 0, 60, 92
3, 19855, Note_on_c, 0, 60, 0
3, 19860, Note_on_c, 0, 58, 92
3, 19915, Note_on_c, 0, 58, 0
3, 19920, Note_on_c, 0, 57, 92
3, 19975, Note_on_c, 0, 57, 0
3, 19980, Note_on_c, 0, 62, 92
3, 20035, Note_on_c, 0, 62, 0
3, 20040, Note_on_c, 0, 60, 92
3, 20095, Note_on_c, 0, 60, 0
3, 20100, Note_on_c, 0, 62, 92
3, 20155, Note_on_c, 0, 62, 0
3, 20160, Note_on_c, 0, 59, 92
3, 20215, Note_on_c, 0, 59, 0
3, 20220, Note_on_c, 0, 65, 92
3, 20275, Note_on_c, 0, 65, 0
3, 20280, Note_on_c, 0, 63, 92
3, 20335, Note_on_c, 0, 63, 0
3, 20340, Note_on_c, 0, 62, 92
3, 20395, Note_on_c, 0, 62, 0
3, 20400, Note_on_c, 0, 60, 92
3, 20455, Note_on_c, 0, 60, 0
3, 20460, Note_on_c, 0, 58, 92
3, 20515, Note_on_c, 0, 58, 0
3, 20520, Note_on_c, 0, 56, 92
3, 20575, Note_on_c, 0, 56, 0
3, 20580, Note_on_c, 0, 55, 92
3, 20635, Note_on_c, 0, 55, 0
3, 20640, Note_on_c, 0, 53, 92
3, 20695, Note_on_c, 0, 53, 0
3, 20700, Note_on_c, 0, 51, 92
3, 20755, Note_on_c, 0, 51, 0
3, 20760, Note_on_c, 0, 50, 92
3, 20815, Note_on_c, 0, 50, 0
3, 20820, Note_on_c, 0, 48, 92
3, 20875, Note_on_c, 0, 48, 0
3, 20880, Note_on_c, 0, 55, 92
3, 20989, Note_on_c, 0, 55, 0
3, 21000, Note_on_c, 0, 43, 92
3, 21109, Note_on_c, 0, 43, 0
3, 21120, Note_on_c, 0, 48, 92
3, 21284, Note_on_c, 0, 48, 0
3, 21300, Note_on_c, 0, 50, 92
3, 21355, Note_on_c, 0, 50, 0
3, 21360, Note_on_c, 0, 51, 92
3, 21415, Note_on_c, 0, 51, 0
3, 21420, Note_on_c, 0, 53, 92
3, 21475, Note_on_c, 0, 53, 0
3, 21480, Note_on_c, 0, 55, 92
3, 21589, Note_on_c, 0, 55, 0
3, 21600, Note_on_c, 0, 56, 92
3, 21614, Note_on_c, 0, 56, 0
3, 21615, Note_on_c, 0, 55, 92
3, 21629, Note_on_c, 0, 55, 0
3, 21630, Note_on_c, 0, 56, 92
3, 21644, Note_on_c, 0, 56, 0
3, 21645, Note_on_c, 0, 55, 92
3, 21715, Note_on_c, 0, 55, 0
3, 21720, Note_on_c, 0, 53, 92
3, 21829, Note_on_c, 0, 53, 0
3, 21960, Note_on_c, 0, 53, 92
3, 22069, Note_on_c, 0, 53, 0
3, 22080, Note_on_c, 0, 55, 92
3, 22094, Note_on_c, 0, 55, 0
3, 22095, Note_on_c, 0, 53, 92
3, 22109, Note_on_c, 0, 53, 0
3, 22110, Note_on_c, 0, 55, 92
3, 22124, Note_on_c, 0, 55, 0
3, 22125, Note_on_c, 0, 53, 92
3, 22195, Note_on_c, 0, 53, 0
3, 22200, Note_on_c, 0, 51, 92
3, 22375, Note_on_c, 0, 51, 0
3, 22380, Note_on_c, 0, 53, 92
3, 22435, Note_on_c, 0, 53, 0
3, 22440, Note_on_c, 0, 51, 92
3, 22495, Note_on_c, 0, 51, 0
3, 22500, Note_on_c, 0, 50, 92
3, 22555, Note_on_c, 0, 50, 0
3, 22560, Note_on_c, 0, 48, 92
3, 22615, Note_on_c, 0, 48, 0
3, 22620, Note_on_c, 0, 46, 92
3, 22675, Note_on_c, 0, 46, 0
3, 22680, Note_on_c, 0, 44, 92
3, 22735, Note_on_c, 0, 44, 0
3, 22740, Note_on_c, 0, 43, 92
3, 22795, Note_on_c, 0, 43, 0
3, 22800, Note_on_c, 0, 41, 92
3, 22855, Note_on_c, 0, 41, 0
3, 22860, Note_on_c, 0, 39, 92
3, 22915, Note_on_c, 0, 39, 0
3, 22920, Note_on_c, 0, 41, 92
3, 22975, Note_on_c, 0, 41, 0
3, 22980, Note_on_c, 0, 43, 92
3, 23035, Note_on_c, 0, 43, 0
3, 23040, Note_on_c, 0, 36, 92
3, 23149, Note_on_c, 0, 36, 0
3, 23160, Note_on_c, 0, 48, 92
3, 23215, Note_on_c, 0, 48, 0
3, 23220, Note_on_c, 0, 47, 92
3, 23275, Note_on_c, 0, 47, 0
3, 23280, Note_on_c, 0, 48, 92
3, 23335, Note_on_c, 0, 48, 0
3, 23340, Note_on_c, 0, 50, 92
3, 23395, Note_on_c, 0, 50, 0
3, 23400, Note_on_c, 0, 51, 92
3, 23455, Note_on_c, 0, 51, 0
3, 23460, Note_on_c, 0, 43, 92
3, 23515, Note_on_c, 0, 43, 0
3, 23520, Note_on_c, 0, 44, 92
3, 23575, Note_on_c, 0, 44, 0
3, 23580, Note_on_c, 0, 46, 92
3, 23635, Note_on_c, 0, 46, 0
3, 23640, Note_on_c, 0, 44, 92
3, 23695, Note_on_c, 0, 44, 0
3, 23700, Note_on_c, 0, 41, 92
3, 23755, Note_on_c, 0, 41, 0
3, 23760, Note_on_c, 0, 53, 92
3, 23815, Note_on_c, 0, 53, 0
3, 23820, Note_on_c, 0, 51, 92
3, 23875, Note_on_c, 0, 51, 0
3, 23880, Note_on_c, 0, 50, 92
3, 23935, Note_on_c, 0, 50, 0
3, 23940, Note_on_c, 0, 48, 92
3, 23995, Note_on_c, 0, 48, 0
3, 24000, Note_on_c, 0, 47, 92
3, 24055, Note_on_c, 0, 47, 0
3, 24060, Note_on_c, 0, 56, 92
3, 24115, Note_on_c, 0, 56, 0
3, 24120, Note_on_c, 0, 55, 92
3, 24175, Note_on_c, 0, 55, 0
3, 24180, Note_on_c, 0, 53, 92
3, 24235, Note_on_c, 0, 53, 0
3, 24240, Note_on_c, 0, 51, 92
3, 24295, Note_on_c, 0, 51, 0
3, 24300, Note_on_c, 0, 50, 92
3, 24355, Note_on_c, 0, 50, 0
3, 24360, Note_on_c, 0, 48, 92
3, 24415, Note_on_c, 0, 48, 0
3, 24420, Note_on_c, 0, 47, 92
3, 24475, Note_on_c, 0, 47, 0
3, 24480, Note_on_c, 0, 48, 92
3, 24535, Note_on_c, 0, 48, 0
3, 24540, Note_on_c, 0, 43, 92
3, 24595, Note_on_c, 0, 43, 0
3, 24600, Note_on_c, 0, 44, 92
3, 24655, Note_on_c, 0, 44, 0
3, 24660, Note_on_c, 0, 41, 92
3, 24715, Note_on_c, 0, 41, 0
3, 24720, Note_on_c, 0, 43, 92
3, 24829, Note_on_c, 0, 43, 0
3, 24840, Note_on_c, 0, 43, 92
3, 24949, Note_on_c, 0, 43, 0
3, 24960, Note_on_c, 0, 36, 92
3, 25834, Note_on_c, 0, 36, 0
3, 25920, Note_on_c, 0, 62, 0
3, 25920, Note_on_c, 0, 57, 0
3, 25920, Note_on_c, 0, 57, 0
3, 25920, Note_on_c, 0, 62, 0
3, 25920, End_track
0, 0, End_of_file
