0, 0, Header, 1, 3, 240
1, 0, Start_track
1, 0, Title_t, "--------"
1, 0, Time_signature, 4, 2, 24, 8
1, 0, Key_signature, 0, "major"
1, 0, Tempo, 659341
1, 30000, Tempo, 769231
1, 30240, Tempo, 923077
1, 30480, Tempo, 1132075
1, 30720, Tempo, 923077
1, 30960, Tempo, 1016949
1, 31200, Tempo, 1132075
1, 31440, Tempo, 1333333
1, 31440, End_track
2, 0, Start_track
2, 0, Title_t, "Harpsichord RH"
2, 0, Program_c, 0, 6
2, 0, Control_c, 0, 7, 100
2, 0, Control_c, 0, 10, 80
2, 120, Note_on_c, 0, 63, 92
2, 177, Note_on_c, 0, 63, 0
2, 180, Note_on_c, 0, 62, 92
2, 228, Note_on_c, 0, 62, 0
2, 240, Note_on_c, 0, 63, 92
2, 336, Note_on_c, 0, 63, 0
2, 360, Note_on_c, 0, 65, 92
2, 456, Note_on_c, 0, 65, 0
2, 480, Note_on_c, 0, 67, 92
2, 504, Note_on_c, 0, 67, 0
2, 510, Note_on_c, 0, 65, 92
2, 534, Note_on_c, 0, 65, 0
2, 540, Note_on_c, 0, 67, 92
2, 684, Note_on_c, 0, 67, 0
2, 720, Note_on_c, 0, 68, 92
2, 912, Note_on_c, 0, 68, 0
2, 1080, Note_on_c, 0, 65, 92
2, 1137, Note_on_c, 0, 65, 0
2, 1140, Note_on_c, 0, 63, 92
2, 1188, Note_on_c, 0, 63, 0
2, 1200, Note_on_c, 0, 65, 92
2, 1296, Note_on_c, 0, 65, 0
2, 1320, Note_on_c, 0, 67, 92
2, 1416, Note_on_c, 0, 67, 0
2, 1440, Note_on_c, 0, 68, 92
2, 1464, Note_on_c, 0, 68, 0
2, 1470, Note_on_c, 0, 67, 92
2, 1494, Note_on_c, 0, 67, 0
2, 1500, Note_on_c, 0, 68, 92
2, 1644, Note_on_c, 0, 68, 0
2, 1680, Note_on_c, 0, 70, 92
2, 1872, Note_on_c, 0, 70, 0
2, 1920, Note_on_c, 0, 67, 92
2, 2016, Note_on_c, 0, 67, 0
2, 2040, Note_on_c, 0, 72, 92
2, 2136, Note_on_c, 0, 72, 0
2, 2160, Note_on_c, 0, 70, 92
2, 2256, Note_on_c, 0, 70, 0
2, 2280, Note_on_c, 0, 68, 92
2, 2376, Note_on_c, 0, 68, 0
2, 2400, Note_on_c, 0, 67, 92
2, 2457, Note_on_c, 0, 67, 0
2, 2460, Note_on_c, 0, 68, 92
2, 2508, Note_on_c, 0, 68, 0
2, 2520, Note_on_c, 0, 70, 92
2, 2577, Note_on_c, 0, 70, 0
2, 2580, Note_on_c, 0, 68, 92
2, 2628, Note_on_c, 0, 68, 0
2, 2640, Note_on_c, 0, 67, 92
2, 2736, Note_on_c, 0, 67, 0
2, 2760, Note_on_c, 0, 65, 92
2, 2856, Note_on_c, 0, 65, 0
2, 2880, Note_on_c, 0, 63, 92
2, 2976, Note_on_c, 0, 63, 0
2, 3000, Note_on_c, 0, 67, 92
2, 3096, Note_on_c, 0, 67, 0
2, 3120, Note_on_c, 0, 70, 92
2, 3216, Note_on_c, 0, 70, 0
2, 3240, Note_on_c, 0, 75, 92
2, 3408, Note_on_c, 0, 75, 0
2, 3420, Note_on_c, 0, 72, 92
2, 3468, Note_on_c, 0, 72, 0
2, 3480, Note_on_c, 0, 74, 92
2, 3528, Note_on_c, 0, 74, 0
2, 3540, Note_on_c, 0, 75, 92
2, 3588, Note_on_c, 0, 75, 0
2, 3600, Note_on_c, 0, 77, 92
2, 3696, Note_on_c, 0, 77, 0
2, 3720, Note_on_c, 0, 75, 92
2, 3816, Note_on_c, 0, 75, 0
2, 3840, Note_on_c, 0, 74, 92
2, 3888, Note_on_c, 0, 74, 0
2, 3900, Note_on_c, 0, 75, 92
2, 3948, Note_on_c, 0, 75, 0
2, 3960, Note_on_c, 0, 74, 92
2, 4008, Note_on_c, 0, 74, 0
2, 4020, Note_on_c, 0, 72, 92
2, 4068, Note_on_c, 0, 72, 0
2, 4080, Note_on_c, 0, 74, 92
2, 4128, Note_on_c, 0, 74, 0
2, 4140, Note_on_c, 0, 75, 92
2, 4188, Note_on_c, 0, 75, 0
2, 4200, Note_on_c, 0, 72, 92
2, 4248, Note_on_c, 0, 72, 0
2, 4260, Note_on_c, 0, 74, 92
2, 4308, Note_on_c, 0, 74, 0
2, 4320, Note_on_c, 0, 70, 92
2, 4368, Note_on_c, 0, 70, 0
2, 4380, Note_on_c, 0, 82, 92
2, 4428, Note_on_c, 0, 82, 0
2, 4440, Note_on_c, 0, 81, 92
2, 4488, Note_on_c, 0, 81, 0
2, 4500, Note_on_c, 0, 82, 92
2, 4548, Note_on_c, 0, 82, 0
2, 4560, Note_on_c, 0, 79, 92
2, 4608, Note_on_c, 0, 79, 0
2, 4620, Note_on_c, 0, 81, 92
2, 4668, Note_on_c, 0, 81, 0
2, 4680, Note_on_c, 0, 77, 92
2, 4728, Note_on_c, 0, 77, 0
2, 4740, Note_on_c, 0, 79, 92
2, 4788, Note_on_c, 0, 79, 0
2, 4800, Note_on_c, 0, 75, 92
2, 4848, Note_on_c, 0, 75, 0
2, 4860, Note_on_c, 0, 79, 92
2, 4908, Note_on_c, 0, 79, 0
2, 4920, Note_on_c, 0, 77, 92
2, 4968, Note_on_c, 0, 77, 0
2, 4980, Note_on_c, 0, 79, 92
2, 5028, Note_on_c, 0, 79, 0
2, 5040, Note_on_c, 0, 75, 92
2, 5088, Note_on_c, 0, 75, 0
2, 5100, Note_on_c, 0, 77, 92
2, 5148, Note_on_c, 0, 77, 0
2, 5160, Note_on_c, 0, 74, 92
2, 5208, Note_on_c, 0, 74, 0
2, 5220, Note_on_c, 0, 75, 92
2, 5268, Note_on_c, 0, 75, 0
2, 5280, Note_on_c, 0, 72, 92
2, 5328, Note_on_c, 0, 72, 0
2, 5340, Note_on_c, 0, 82, 92
2, 5388, Note_on_c, 0, 82, 0
2, 5400, Note_on_c, 0, 81, 92
2, 5448, Note_on_c, 0, 81, 0
2, 5460, Note_on_c, 0, 79, 92
2, 5508, Note_on_c, 0, 79, 0
2, 5520, Note_on_c, 0, 81, 92
2, 5568, Note_on_c, 0, 81, 0
2, 5580, Note_on_c, 0, 82, 92
2, 5628, Note_on_c, 0, 82, 0
2, 5640, Note_on_c, 0, 79, 92
2, 5688, Note_on_c, 0, 79, 0
2, 5700, Note_on_c, 0, 81, 92
2, 5748, Note_on_c, 0, 81, 0
2, 5760, Note_on_c, 0, 70, 92
2, 5808, Note_on_c, 0, 70, 0
2, 5820, Note_on_c, 0, 82, 92
2, 5868, Note_on_c, 0, 82, 0
2, 5880, Note_on_c, 0, 81, 92
2, 5928, Note_on_c, 0, 81, 0
2, 5940, Note_on_c, 0, 79, 92
2, 5988, Note_on_c, 0, 79, 0
2, 6000, Note_on_c, 0, 81, 92
2, 6048, Note_on_c, 0, 81, 0
2, 6060, Note_on_c, 0, 82, 92
2, 6108, Note_on_c, 0, 82, 0
2, 6120, Note_on_c, 0, 79, 92
2, 6168, Note_on_c, 0, 79, 0
2, 6180, Note_on_c, 0, 81, 92
2, 6228, Note_on_c, 0, 81, 0
2, 6240, Note_on_c, 0, 77, 92
2, 6288, Note_on_c, 0, 77, 0
2, 6300, Note_on_c, 0, 82, 92
2, 6348, Note_on_c, 0, 82, 0
2, 6360, Note_on_c, 0, 80, 92
2, 6408, Note_on_c, 0, 80, 0
2, 6420, Note_on_c, 0, 79, 92
2, 6468, Note_on_c, 0, 79, 0
2, 6480, Note_on_c, 0, 77, 92
2, 6528, Note_on_c, 0, 77, 0
2, 6540, Note_on_c, 0, 79, 92
2, 6588, Note_on_c, 0, 79, 0
2, 6600, Note_on_c, 0, 75, 92
2, 6648, Note_on_c, 0, 75, 0
2, 6660, Note_on_c, 0, 77, 92
2, 6708, Note_on_c, 0, 77, 0
2, 6720, Note_on_c, 0, 74, 92
2, 6768, Note_on_c, 0, 74, 0
2, 6780, Note_on_c, 0, 79, 92
2, 6828, Note_on_c, 0, 79, 0
2, 6840, Note_on_c, 0, 77, 92
2, 6888, Note_on_c, 0, 77, 0
2, 6900, Note_on_c, 0, 75, 92
2, 6948, Note_on_c, 0, 75, 0
2, 6960, Note_on_c, 0, 74, 92
2, 7008, Note_on_c, 0, 74, 0
2, 7020, Note_on_c, 0, 75, 92
2, 7068, Note_on_c, 0, 75, 0
2, 7080, Note_on_c, 0, 72, 92
2, 7128, Note_on_c, 0, 72, 0
2, 7140, Note_on_c, 0, 74, 92
2, 7188, Note_on_c, 0, 74, 0
2, 7200, Note_on_c, 0, 65, 92
2, 7248, Note_on_c, 0, 65, 0
2, 7260, Note_on_c, 0, 75, 92
2, 7308, Note_on_c, 0, 75, 0
2, 7320, Note_on_c, 0, 74, 92
2, 7368, Note_on_c, 0, 74, 0
2, 7380, Note_on_c, 0, 72, 92
2, 7428, Note_on_c, 0, 72, 0
2, 7440, Note_on_c, 0, 74, 92
2, 7488, Note_on_c, 0, 74, 0
2, 7500, Note_on_c, 0, 75, 92
2, 7548, Note_on_c, 0, 75, 0
2, 7560, Note_on_c, 0, 72, 92
2, 7608, Note_on_c, 0, 72, 0
2, 7620, Note_on_c, 0, 74, 92
2, 7668, Note_on_c, 0, 74, 0
2, 7680, Note_on_c, 0, 75, 92
2, 7776, Note_on_c, 0, 75, 0
2, 7800, Note_on_c, 0, 70, 92
2, 7848, Note_on_c, 0, 70, 0
2, 7860, Note_on_c, 0, 68, 92
2, 7908, Note_on_c, 0, 68, 0
2, 7920, Note_on_c, 0, 70, 92
2, 8016, Note_on_c, 0, 70, 0
2, 8040, Note_on_c, 0, 72, 92
2, 8136, Note_on_c, 0, 72, 0
2, 8160, Note_on_c, 0, 73, 92
2, 8184, Note_on_c, 0, 73, 0
2, 8190, Note_on_c, 0, 72, 92
2, 8214, Note_on_c, 0, 72, 0
2, 8220, Note_on_c, 0, 73, 92
2, 8364, Note_on_c, 0, 73, 0
2, 8400, Note_on_c, 0, 75, 92
2, 8592, Note_on_c, 0, 75, 0
2, 8760, Note_on_c, 0, 72, 92
2, 8817, Note_on_c, 0, 72, 0
2, 8820, Note_on_c, 0, 70, 92
2, 8868, Note_on_c, 0, 70, 0
2, 8880, Note_on_c, 0, 72, 92
2, 8976, Note_on_c, 0, 72, 0
2, 9000, Note_on_c, 0, 74, 92
2, 9096, Note_on_c, 0, 74, 0
2, 9120, Note_on_c, 0, 75, 92
2, 9149, Note_on_c, 0, 75, 0
2, 9150, Note_on_c, 0, 74, 92
2, 9179, Note_on_c, 0, 74, 0
2, 9180, Note_on_c, 0, 75, 92
2, 9324, Note_on_c, 0, 75, 0
2, 9360, Note_on_c, 0, 77, 92
2, 9552, Note_on_c, 0, 77, 0
2, 9720, Note_on_c, 0, 74, 92
2, 9777, Note_on_c, 0, 74, 0
2, 9780, Note_on_c, 0, 72, 92
2, 9828, Note_on_c, 0, 72, 0
2, 9840, Note_on_c, 0, 74, 92
2, 9936, Note_on_c, 0, 74, 0
2, 9960, Note_on_c, 0, 75, 92
2, 10056, Note_on_c, 0, 75, 0
2, 10080, Note_on_c, 0, 77, 92
2, 10109, Note_on_c, 0, 77, 0
2, 10110, Note_on_c, 0, 75, 92
2, 10139, Note_on_c, 0, 75, 0
2, 10140, Note_on_c, 0, 77, 92
2, 10284, Note_on_c, 0, 77, 0
2, 10320, Note_on_c, 0, 79, 92
2, 10512, Note_on_c, 0, 79, 0
2, 10560, Note_on_c, 0, 75, 92
2, 10608, Note_on_c, 0, 75, 0
2, 10620, Note_on_c, 0, 77, 92
2, 10668, Note_on_c, 0, 77, 0
2, 10680, Note_on_c, 0, 75, 92
2, 10728, Note_on_c, 0, 75, 0
2, 10740, Note_on_c, 0, 74, 92
2, 10788, Note_on_c, 0, 74, 0
2, 10800, Note_on_c, 0, 75, 92
2, 10848, Note_on_c, 0, 75, 0
2, 10860, Note_on_c, 0, 77, 92
2, 10908, Note_on_c, 0, 77, 0
2, 10920, Note_on_c, 0, 74, 92
2, 10968, Note_on_c, 0, 74, 0
2, 10980, Note_on_c, 0, 75, 92
2, 11028, Note_on_c, 0, 75, 0
2, 11040, Note_on_c, 0, 72, 92
2, 11088, Note_on_c, 0, 72, 0
2, 11100, Note_on_c, 0, 84, 92
2, 11148, Note_on_c, 0, 84, 0
2, 11160, Note_on_c, 0, 82, 92
2, 11208, Note_on_c, 0, 82, 0
2, 11220, Note_on_c, 0, 84, 92
2, 11268, Note_on_c, 0, 84, 0
2, 11280, Note_on_c, 0, 80, 92
2, 11328, Note_on_c, 0, 80, 0
2, 11340, Note_on_c, 0, 82, 92
2, 11388, Note_on_c, 0, 82, 0
2, 11400, Note_on_c, 0, 79, 92
2, 11448, Note_on_c, 0, 79, 0
2, 11460, Note_on_c, 0, 80, 92
2, 11508, Note_on_c, 0, 80, 0
2, 11520, Note_on_c, 0, 77, 92
2, 11568, Note_on_c, 0, 77, 0
2, 11580, Note_on_c, 0, 80, 92
2, 11628, Note_on_c, 0, 80, 0
2, 11640, Note_on_c, 0, 79, 92
2, 11688, Note_on_c, 0, 79, 0
2, 11700, Note_on_c, 0, 80, 92
2, 11748, Note_on_c, 0, 80, 0
2, 11760, Note_on_c, 0, 77, 92
2, 11808, Note_on_c, 0, 77, 0
2, 11820, Note_on_c, 0, 79, 92
2, 11868, Note_on_c, 0, 79, 0
2, 11880, Note_on_c, 0, 75, 92
2, 11928, Note_on_c, 0, 75, 0
2, 11940, Note_on_c, 0, 77, 92
2, 11988, Note_on_c, 0, 77, 0
2, 12000, Note_on_c, 0, 74, 92
2, 12048, Note_on_c, 0, 74, 0
2, 12060, Note_on_c, 0, 84, 92
2, 12108, Note_on_c, 0, 84, 0
2, 12120, Note_on_c, 0, 83, 92
2, 12168, Note_on_c, 0, 83, 0
2, 12180, Note_on_c, 0, 81, 92
2, 12228, Note_on_c, 0, 81, 0
2, 12240, Note_on_c, 0, 83, 92
2, 12288, Note_on_c, 0, 83, 0
2, 12300, Note_on_c, 0, 84, 92
2, 12348, Note_on_c, 0, 84, 0
2, 12360, Note_on_c, 0, 81, 92
2, 12408, Note_on_c, 0, 81, 0
2, 12420, Note_on_c, 0, 83, 92
2, 12468, Note_on_c, 0, 83, 0
2, 12480, Note_on_c, 0, 72, 92
2, 12528, Note_on_c, 0, 72, 0
2, 12540, Note_on_c, 0, 84, 92
2, 12588, Note_on_c, 0, 84, 0
2, 12600, Note_on_c, 0, 82, 92
2, 12648, Note_on_c, 0, 82, 0
2, 12660, Note_on_c, 0, 80, 92
2, 12708, Note_on_c, 0, 80, 0
2, 12720, Note_on_c, 0, 82, 92
2, 12768, Note_on_c, 0, 82, 0
2, 12780, Note_on_c, 0, 84, 92
2, 12828, Note_on_c, 0, 84, 0
2, 12840, Note_on_c, 0, 80, 92
2, 12888, Note_on_c, 0, 80, 0
2, 12900, Note_on_c, 0, 82, 92
2, 12948, Note_on_c, 0, 82, 0
2, 12960, Note_on_c, 0, 79, 92
2, 13008, Note_on_c, 0, 79, 0
2, 13020, Note_on_c, 0, 84, 92
2, 13068, Note_on_c, 0, 84, 0
2, 13080, Note_on_c, 0, 82, 92
2, 13128, Note_on_c, 0, 82, 0
2, 13140, Note_on_c, 0, 80, 92
2, 13188, Note_on_c, 0, 80, 0
2, 13200, Note_on_c, 0, 79, 92
2, 13248, Note_on_c, 0, 79, 0
2, 13260, Note_on_c, 0, 80, 92
2, 13308, Note_on_c, 0, 80, 0
2, 13320, Note_on_c, 0, 77, 92
2, 13368, Note_on_c, 0, 77, 0
2, 13380, Note_on_c, 0, 79, 92
2, 13428, Note_on_c, 0, 79, 0
2, 13440, Note_on_c, 0, 76, 92
2, 13488, Note_on_c, 0, 76, 0
2, 13500, Note_on_c, 0, 80, 92
2, 13548, Note_on_c, 0, 80, 0
2, 13560, Note_on_c, 0, 79, 92
2, 13608, Note_on_c, 0, 79, 0
2, 13620, Note_on_c, 0, 77, 92
2, 13668, Note_on_c, 0, 77, 0
2, 13680, Note_on_c, 0, 76, 92
2, 13728, Note_on_c, 0, 76, 0
2, 13740, Note_on_c, 0, 77, 92
2, 13788, Note_on_c, 0, 77, 0
2, 13800, Note_on_c, 0, 74, 92
2, 13848, Note_on_c, 0, 74, 0
2, 13860, Note_on_c, 0, 76, 92
2, 13908, Note_on_c, 0, 76, 0
2, 13920, Note_on_c, 0, 67, 92
2, 13968, Note_on_c, 0, 67, 0
2, 13980, Note_on_c, 0, 77, 92
2, 14028, Note_on_c, 0, 77, 0
2, 14040, Note_on_c, 0, 76, 92
2, 14088, Note_on_c, 0, 76, 0
2, 14100, Note_on_c, 0, 74, 92
2, 14148, Note_on_c, 0, 74, 0
2, 14160, Note_on_c, 0, 76, 92
2, 14208, Note_on_c, 0, 76, 0
2, 14220, Note_on_c, 0, 77, 92
2, 14268, Note_on_c, 0, 77, 0
2, 14280, Note_on_c, 0, 74, 92
2, 14328, Note_on_c, 0, 74, 0
2, 14340, Note_on_c, 0, 76, 92
2, 14388, Note_on_c, 0, 76, 0
2, 14400, Note_on_c, 0, 77, 92
2, 14496, Note_on_c, 0, 77, 0
2, 14520, Note_on_c, 0, 65, 92
2, 14577, Note_on_c, 0, 65, 0
2, 14580, Note_on_c, 0, 64, 92
2, 14628, Note_on_c, 0, 64, 0
2, 14640, Note_on_c, 0, 65, 92
2, 14736, Note_on_c, 0, 65, 0
2, 14760, Note_on_c, 0, 67, 92
2, 14856, Note_on_c, 0, 67, 0
2, 14880, Note_on_c, 0, 68, 92
2, 14909, Note_on_c, 0, 68, 0
2, 14910, Note_on_c, 0, 67, 92
2, 14939, Note_on_c, 0, 67, 0
2, 14940, Note_on_c, 0, 68, 92
2, 15084, Note_on_c, 0, 68, 0
2, 15120, Note_on_c, 0, 70, 92
2, 15312, Note_on_c, 0, 70, 0
2, 15480, Note_on_c, 0, 67, 92
2, 15537, Note_on_c, 0, 67, 0
2, 15540, Note_on_c, 0, 65, 92
2, 15588, Note_on_c, 0, 65, 0
2, 15600, Note_on_c, 0, 67, 92
2, 15696, Note_on_c, 0, 67, 0
2, 15720, Note_on_c, 0, 68, 92
2, 15816, Note_on_c, 0, 68, 0
2, 15840, Note_on_c, 0, 70, 92
2, 15869, Note_on_c, 0, 70, 0
2, 15870, Note_on_c, 0, 68, 92
2, 15899, Note_on_c, 0, 68, 0
2, 15900, Note_on_c, 0, 70, 92
2, 16044, Note_on_c, 0, 70, 0
2, 16080, Note_on_c, 0, 72, 92
2, 16272, Note_on_c, 0, 72, 0
2, 16320, Note_on_c, 0, 68, 92
2, 16416, Note_on_c, 0, 68, 0
2, 16440, Note_on_c, 0, 73, 92
2, 16536, Note_on_c, 0, 73, 0
2, 16560, Note_on_c, 0, 72, 92
2, 16656, Note_on_c, 0, 72, 0
2, 16680, Note_on_c, 0, 70, 92
2, 16776, Note_on_c, 0, 70, 0
2, 16800, Note_on_c, 0, 69, 92
2, 16848, Note_on_c, 0, 69, 0
2, 16860, Note_on_c, 0, 70, 92
2, 16908, Note_on_c, 0, 70, 0
2, 16920, Note_on_c, 0, 72, 92
2, 16968, Note_on_c, 0, 72, 0
2, 16980, Note_on_c, 0, 70, 92
2, 17028, Note_on_c, 0, 70, 0
2, 17040, Note_on_c, 0, 69, 92
2, 17136, Note_on_c, 0, 69, 0
2, 17160, Note_on_c, 0, 67, 92
2, 17256, Note_on_c, 0, 67, 0
2, 17280, Note_on_c, 0, 65, 92
2, 17376, Note_on_c, 0, 65, 0
2, 17400, Note_on_c, 0, 69, 92
2, 17496, Note_on_c, 0, 69, 0
2, 17520, Note_on_c, 0, 72, 92
2, 17616, Note_on_c, 0, 72, 0
2, 17640, Note_on_c, 0, 75, 92
2, 17808, Note_on_c, 0, 75, 0
2, 17820, Note_on_c, 0, 72, 92
2, 17868, Note_on_c, 0, 72, 0
2, 17880, Note_on_c, 0, 73, 92
2, 17928, Note_on_c, 0, 73, 0
2, 17940, Note_on_c, 0, 75, 92
2, 17988, Note_on_c, 0, 75, 0
2, 18000, Note_on_c, 0, 77, 92
2, 18096, Note_on_c, 0, 77, 0
2, 18120, Note_on_c, 0, 75, 92
2, 18216, Note_on_c, 0, 75, 0
2, 18240, Note_on_c, 0, 73, 92
2, 18288, Note_on_c, 0, 73, 0
2, 18300, Note_on_c, 0, 75, 92
2, 18348, Note_on_c, 0, 75, 0
2, 18360, Note_on_c, 0, 73, 92
2, 18408, Note_on_c, 0, 73, 0
2, 18420, Note_on_c, 0, 72, 92
2, 18468, Note_on_c, 0, 72, 0
2, 18480, Note_on_c, 0, 73, 92
2, 18528, Note_on_c, 0, 73, 0
2, 18540, Note_on_c, 0, 75, 92
2, 18588, Note_on_c, 0, 75, 0
2, 18600, Note_on_c, 0, 72, 92
2, 18648, Note_on_c, 0, 72, 0
2, 18660, Note_on_c, 0, 73, 92
2, 18708, Note_on_c, 0, 73, 0
2, 18720, Note_on_c, 0, 70, 92
2, 18768, Note_on_c, 0, 70, 0
2, 18780, Note_on_c, 0, 80, 92
2, 18828, Note_on_c, 0, 80, 0
2, 18840, Note_on_c, 0, 79, 92
2, 18888, Note_on_c, 0, 79, 0
2, 18900, Note_on_c, 0, 77, 92
2, 18948, Note_on_c, 0, 77, 0
2, 18960, Note_on_c, 0, 79, 92
2, 19008, Note_on_c, 0, 79, 0
2, 19020, Note_on_c, 0, 80, 92
2, 19068, Note_on_c, 0, 80, 0
2, 19080, Note_on_c, 0, 77, 92
2, 19128, Note_on_c, 0, 77, 0
2, 19140, Note_on_c, 0, 79, 92
2, 19188, Note_on_c, 0, 79, 0
2, 19200, Note_on_c, 0, 80, 92
2, 19248, Note_on_c, 0, 80, 0
2, 19260, Note_on_c, 0, 73, 92
2, 19308, Note_on_c, 0, 73, 0
2, 19320, Note_on_c, 0, 72, 92
2, 19368, Note_on_c, 0, 72, 0
2, 19380, Note_on_c, 0, 70, 92
2, 19428, Note_on_c, 0, 70, 0
2, 19440, Note_on_c, 0, 72, 92
2, 19488, Note_on_c, 0, 72, 0
2, 19500, Note_on_c, 0, 73, 92
2, 19548, Note_on_c, 0, 73, 0
2, 19560, Note_on_c, 0, 70, 92
2, 19608, Note_on_c, 0, 70, 0
2, 19620, Note_on_c, 0, 72, 92
2, 19668, Note_on_c, 0, 72, 0
2, 19680, Note_on_c, 0, 68, 92
2, 19728, Note_on_c, 0, 68, 0
2, 19740, Note_on_c, 0, 79, 92
2, 19788, Note_on_c, 0, 79, 0
2, 19800, Note_on_c, 0, 77, 92
2, 19848, Note_on_c, 0, 77, 0
2, 19860, Note_on_c, 0, 76, 92
2, 19908, Note_on_c, 0, 76, 0
2, 19920, Note_on_c, 0, 77, 92
2, 19968, Note_on_c, 0, 77, 0
2, 19980, Note_on_c, 0, 79, 92
2, 20028, Note_on_c, 0, 79, 0
2, 20040, Note_on_c, 0, 76, 92
2, 20088, Note_on_c, 0, 76, 0
2, 20100, Note_on_c, 0, 77, 92
2, 20148, Note_on_c, 0, 77, 0
2, 20160, Note_on_c, 0, 79, 92
2, 20208, Note_on_c, 0, 79, 0
2, 20220, Note_on_c, 0, 72, 92
2, 20268, Note_on_c, 0, 72, 0
2, 20280, Note_on_c, 0, 70, 92
2, 20328, Note_on_c, 0, 70, 0
2, 20340, Note_on_c, 0, 68, 92
2, 20388, Note_on_c, 0, 68, 0
2, 20400, Note_on_c, 0, 70, 92
2, 20448, Note_on_c, 0, 70, 0
2, 20460, Note_on_c, 0, 72, 92
2, 20508, Note_on_c, 0, 72, 0
2, 20520, Note_on_c, 0, 68, 92
2, 20568, Note_on_c, 0, 68, 0
2, 20580, Note_on_c, 0, 70, 92
2, 20628, Note_on_c, 0, 70, 0
2, 20640, Note_on_c, 0, 67, 92
2, 20688, Note_on_c, 0, 67, 0
2, 20700, Note_on_c, 0, 77, 92
2, 20748, Note_on_c, 0, 77, 0
2, 20760, Note_on_c, 0, 76, 92
2, 20808, Note_on_c, 0, 76, 0
2, 20820, Note_on_c, 0, 74, 92
2, 20868, Note_on_c, 0, 74, 0
2, 20880, Note_on_c, 0, 76, 92
2, 20928, Note_on_c, 0, 76, 0
2, 20940, Note_on_c, 0, 77, 92
2, 20988, Note_on_c, 0, 77, 0
2, 21000, Note_on_c, 0, 74, 92
2, 21048, Note_on_c, 0, 74, 0
2, 21060, Note_on_c, 0, 76, 92
2, 21108, Note_on_c, 0, 76, 0
2, 21120, Note_on_c, 0, 77, 92
2, 21216, Note_on_c, 0, 77, 0
2, 21240, Note_on_c, 0, 68, 92
2, 21297, Note_on_c, 0, 68, 0
2, 21300, Note_on_c, 0, 67, 92
2, 21348, Note_on_c, 0, 67, 0
2, 21360, Note_on_c, 0, 68, 92
2, 21456, Note_on_c, 0, 68, 0
2, 21480, Note_on_c, 0, 70, 92
2, 21576, Note_on_c, 0, 70, 0
2, 21600, Note_on_c, 0, 72, 92
2, 21629, Note_on_c, 0, 72, 0
2, 21630, Note_on_c, 0, 70, 92
2, 21659, Note_on_c, 0, 70, 0
2, 21660, Note_on_c, 0, 72, 92
2, 21804, Note_on_c, 0, 72, 0
2, 21840, Note_on_c, 0, 73, 92
2, 22032, Note_on_c, 0, 73, 0
2, 22200, Note_on_c, 0, 70, 92
2, 22257, Note_on_c, 0, 70, 0
2, 22260, Note_on_c, 0, 68, 92
2, 22308, Note_on_c, 0, 68, 0
2, 22320, Note_on_c, 0, 70, 92
2, 22416, Note_on_c, 0, 70, 0
2, 22440, Note_on_c, 0, 72, 92
2, 22536, Note_on_c, 0, 72, 0
2, 22560, Note_on_c, 0, 73, 92
2, 22589, Note_on_c, 0, 73, 0
2, 22590, Note_on_c, 0, 72, 92
2, 22619, Note_on_c, 0, 72, 0
2, 22620, Note_on_c, 0, 73, 92
2, 22764, Note_on_c, 0, 73, 0
2, 22800, Note_on_c, 0, 75, 92
2, 22992, Note_on_c, 0, 75, 0
2, 23040, Note_on_c, 0, 72, 92
2, 23088, Note_on_c, 0, 72, 0
2, 23100, Note_on_c, 0, 80, 92
2, 23148, Note_on_c, 0, 80, 0
2, 23160, Note_on_c, 0, 79, 92
2, 23208, Note_on_c, 0, 79, 0
2, 23220, Note_on_c, 0, 80, 92
2, 23268, Note_on_c, 0, 80, 0
2, 23280, Note_on_c, 0, 77, 92
2, 23328, Note_on_c, 0, 77, 0
2, 23340, Note_on_c, 0, 79, 92
2, 23388, Note_on_c, 0, 79, 0
2, 23400, Note_on_c, 0, 75, 92
2, 23448, Note_on_c, 0, 75, 0
2, 23460, Note_on_c, 0, 77, 92
2, 23508, Note_on_c, 0, 77, 0
2, 23520, Note_on_c, 0, 74, 92
2, 23568, Note_on_c, 0, 74, 0
2, 23580, Note_on_c, 0, 82, 92
2, 23628, Note_on_c, 0, 82, 0
2, 23640, Note_on_c, 0, 80, 92
2, 23688, Note_on_c, 0, 80, 0
2, 23700, Note_on_c, 0, 82, 92
2, 23748, Note_on_c, 0, 82, 0
2, 23760, Note_on_c, 0, 72, 92
2, 23808, Note_on_c, 0, 72, 0
2, 23820, Note_on_c, 0, 74, 92
2, 23868, Note_on_c, 0, 74, 0
2, 23880, Note_on_c, 0, 70, 92
2, 23928, Note_on_c, 0, 70, 0
2, 23940, Note_on_c, 0, 72, 92
2, 23988, Note_on_c, 0, 72, 0
2, 24000, Note_on_c, 0, 68, 92
2, 24048, Note_on_c, 0, 68, 0
2, 24060, Note_on_c, 0, 72, 92
2, 24108, Note_on_c, 0, 72, 0
2, 24120, Note_on_c, 0, 70, 92
2, 24168, Note_on_c, 0, 70, 0
2, 24180, Note_on_c, 0, 72, 92
2, 24228, Note_on_c, 0, 72, 0
2, 24240, Note_on_c, 0, 68, 92
2, 24288, Note_on_c, 0, 68, 0
2, 24300, Note_on_c, 0, 70, 92
2, 24348, Note_on_c, 0, 70, 0
2, 24360, Note_on_c, 0, 67, 92
2, 24408, Note_on_c, 0, 67, 0
2, 24420, Note_on_c, 0, 68, 92
2, 24468, Note_on_c, 0, 68, 0
2, 24480, Note_on_c, 0, 65, 92
2, 24528, Note_on_c, 0, 65, 0
2, 24540, Note_on_c, 0, 75, 92
2, 24588, Note_on_c, 0, 75, 0
2, 24600, Note_on_c, 0, 74, 92
2, 24648, Note_on_c, 0, 74, 0
2, 24660, Note_on_c, 0, 72, 92
2, 24708, Note_on_c, 0, 72, 0
2, 24720, Note_on_c, 0, 74, 92
2, 24768, Note_on_c, 0, 74, 0
2, 24780, Note_on_c, 0, 75, 92
2, 24828, Note_on_c, 0, 75, 0
2, 24840, Note_on_c, 0, 72, 92
2, 24888, Note_on_c, 0, 72, 0
2, 24900, Note_on_c, 0, 74, 92
2, 24948, Note_on_c, 0, 74, 0
2, 24960, Note_on_c, 0, 75, 92
2, 25056, Note_on_c, 0, 75, 0
2, 25080, Note_on_c, 0, 63, 92
2, 25137, Note_on_c, 0, 63, 0
2, 25140, Note_on_c, 0, 62, 92
2, 25197, Note_on_c, 0, 62, 0
2, 25200, Note_on_c, 0, 63, 92
2, 25296, Note_on_c, 0, 63, 0
2, 25320, Note_on_c, 0, 65, 92
2, 25416, Note_on_c, 0, 65, 0
2, 25440, Note_on_c, 0, 67, 92
2, 25469, Note_on_c, 0, 67, 0
2, 25470, Note_on_c, 0, 65, 92
2, 25499, Note_on_c, 0, 65, 0
2, 25500, Note_on_c, 0, 67, 92
2, 25644, Note_on_c, 0, 67, 0
2, 25680, Note_on_c, 0, 68, 92
2, 25872, Note_on_c, 0, 68, 0
2, 26040, Note_on_c, 0, 65, 92
2, 26097, Note_on_c, 0, 65, 0
2, 26100, Note_on_c, 0, 63, 92
2, 26157, Note_on_c, 0, 63, 0
2, 26160, Note_on_c, 0, 65, 92
2, 26256, Note_on_c, 0, 65, 0
2, 26280, Note_on_c, 0, 67, 92
2, 26376, Note_on_c, 0, 67, 0
2, 26400, Note_on_c, 0, 68, 92
2, 26429, Note_on_c, 0, 68, 0
2, 26430, Note_on_c, 0, 67, 92
2, 26459, Note_on_c, 0, 67, 0
2, 26460, Note_on_c, 0, 68, 92
2, 26604, Note_on_c, 0, 68, 0
2, 26640, Note_on_c, 0, 70, 92
2, 26832, Note_on_c, 0, 70, 0
2, 26880, Note_on_c, 0, 67, 92
2, 26976, Note_on_c, 0, 67, 0
2, 27000, Note_on_c, 0, 72, 92
2, 27096, Note_on_c, 0, 72, 0
2, 27120, Note_on_c, 0, 70, 92
2, 27216, Note_on_c, 0, 70, 0
2, 27240, Note_on_c, 0, 68, 92
2, 27336, Note_on_c, 0, 68, 0
2, 27360, Note_on_c, 0, 67, 92
2, 27408, Note_on_c, 0, 67, 0
2, 27420, Note_on_c, 0, 68, 92
2, 27468, Note_on_c, 0, 68, 0
2, 27480, Note_on_c, 0, 70, 92
2, 27528, Note_on_c, 0, 70, 0
2, 27540, Note_on_c, 0, 68, 92
2, 27588, Note_on_c, 0, 68, 0
2, 27600, Note_on_c, 0, 67, 92
2, 27696, Note_on_c, 0, 67, 0
2, 27720, Note_on_c, 0, 65, 92
2, 27816, Note_on_c, 0, 65, 0
2, 27840, Note_on_c, 0, 63, 92
2, 27936, Note_on_c, 0, 63, 0
2, 27960, Note_on_c, 0, 77, 92
2, 28056, Note_on_c, 0, 77, 0
2, 28080, Note_on_c, 0, 75, 92
2, 28176, Note_on_c, 0, 75, 0
2, 28200, Note_on_c, 0, 73, 92
2, 28296, Note_on_c, 0, 73, 0
2, 28320, Note_on_c, 0, 72, 92
2, 28368, Note_on_c, 0, 72, 0
2, 28380, Note_on_c, 0, 73, 92
2, 28428, Note_on_c, 0, 73, 0
2, 28440, Note_on_c, 0, 75, 92
2, 28488, Note_on_c, 0, 75, 0
2, 28500, Note_on_c, 0, 73, 92
2, 28548, Note_on_c, 0, 73, 0
2, 28560, Note_on_c, 0, 72, 92
2, 28656, Note_on_c, 0, 72, 0
2, 28680, Note_on_c, 0, 70, 92
2, 28776, Note_on_c, 0, 70, 0
2, 28800, Note_on_c, 0, 68, 92
2, 28896, Note_on_c, 0, 68, 0
2, 28920, Note_on_c, 0, 72, 92
2, 29016, Note_on_c, 0, 72, 0
2, 29040, Note_on_c, 0, 75, 92
2, 29136, Note_on_c, 0, 75, 0
2, 29160, Note_on_c, 0, 80, 92
2, 29328, Note_on_c, 0, 80, 0
2, 29340, Note_on_c, 0, 77, 92
2, 29388, Note_on_c, 0, 77, 0
2, 29400, Note_on_c, 0, 79, 92
2, 29448, Note_on_c, 0, 79, 0
2, 29460, Note_on_c, 0, 80, 92
2, 29508, Note_on_c, 0, 80, 0
2, 29520, Note_on_c, 0, 82, 92
2, 29616, Note_on_c, 0, 82, 0
2, 29640, Note_on_c, 0, 80, 92
2, 29736, Note_on_c, 0, 80, 0
2, 29760, Note_on_c, 0, 80, 92
2, 29808, Note_on_c, 0, 80, 0
2, 29820, Note_on_c, 0, 79, 92
2, 29916, Note_on_c, 0, 79, 0
2, 29940, Note_on_c, 0, 77, 92
2, 29959, Note_on_c, 0, 77, 0
2, 29960, Note_on_c, 0, 75, 92
2, 29979, Note_on_c, 0, 75, 0
2, 29980, Note_on_c, 0, 77, 92
2, 29999, Note_on_c, 0, 77, 0
2, 30000, Note_on_c, 0, 75, 92
2, 30029, Note_on_c, 0, 75, 0
2, 30030, Note_on_c, 0, 77, 92
2, 30059, Note_on_c, 0, 77, 0
2, 30060, Note_on_c, 0, 79, 92
2, 30089, Note_on_c, 0, 79, 0
2, 30090, Note_on_c, 0, 77, 92
2, 30119, Note_on_c, 0, 77, 0
2, 30120, Note_on_c, 0, 79, 92
2, 30149, Note_on_c, 0, 79, 0
2, 30150, Note_on_c, 0, 77, 92
2, 30179, Note_on_c, 0, 77, 0
2, 30180, Note_on_c, 0, 75, 92
2, 30209, Note_on_c, 0, 75, 0
2, 30210, Note_on_c, 0, 77, 92
2, 30239, Note_on_c, 0, 77, 0
2, 30240, Note_on_c, 0, 75, 92
2, 31488, Note_on_c, 0, 75, 0
2, 31488, End_track
3, 0, Start_track
3, 0, Title_t, "Harpsichord LH"
3, 0, Program_c, 0, 6
3, 0, Control_c, 0, 7, 100
3, 0, Control_c, 0, 10, 48
3, 0, Note_on_c, 0, 51, 92
3, 192, Note_on_c, 0, 51, 0
3, 240, Note_on_c, 0, 39, 92
3, 432, Note_on_c, 0, 39, 0
3, 540, Note_on_c, 0, 63, 92
3, 588, Note_on_c, 0, 63, 0
3, 600, Note_on_c, 0, 62, 92
3, 648, Note_on_c, 0, 62, 0
3, 660, Note_on_c, 0, 63, 92
3, 708, Note_on_c, 0, 63, 0
3, 720, Note_on_c, 0, 60, 92
3, 768, Note_on_c, 0, 60, 0
3, 780, Note_on_c, 0, 62, 92
3, 828, Note_on_c, 0, 62, 0
3, 840, Note_on_c, 0, 58, 92
3, 888, Note_on_c, 0, 58, 0
3, 900, Note_on_c, 0, 60, 92
3, 948, Note_on_c, 0, 60, 0
3, 960, Note_on_c, 0, 56, 92
3, 1008, Note_on_c, 0, 56, 0
3, 1020, Note_on_c, 0, 60, 92
3, 1068, Note_on_c, 0, 60, 0
3, 1080, Note_on_c, 0, 58, 92
3, 1128, Note_on_c, 0, 58, 0
3, 1140, Note_on_c, 0, 60, 92
3, 1188, Note_on_c, 0, 60, 0
3, 1200, Note_on_c, 0, 56, 92
3, 1248, Note_on_c, 0, 56, 0
3, 1260, Note_on_c, 0, 58, 92
3, 1308, Note_on_c, 0, 58, 0
3, 1320, Note_on_c, 0, 55, 92
3, 1368, Note_on_c, 0, 55, 0
3, 1380, Note_on_c, 0, 56, 92
3, 1428, Note_on_c, 0, 56, 0
3, 1440, Note_on_c, 0, 53, 92
3, 1488, Note_on_c, 0, 53, 0
3, 1500, Note_on_c, 0, 63, 92
3, 1548, Note_on_c, 0, 63, 0
3, 1560, Note_on_c, 0, 62, 92
3, 1608, Note_on_c, 0, 62, 0
3, 1620, Note_on_c, 0, 60, 92
3, 1668, Note_on_c, 0, 60, 0
3, 1680, Note_on_c, 0, 62, 92
3, 1728, Note_on_c, 0, 62, 0
3, 1740, Note_on_c, 0, 63, 92
3, 1788, Note_on_c, 0, 63, 0
3, 1800, Note_on_c, 0, 60, 92
3, 1848, Note_on_c, 0, 60, 0
3, 1860, Note_on_c, 0, 62, 92
3, 1908, Note_on_c, 0, 62, 0
3, 1920, Note_on_c, 0, 51, 92
3, 1968, Note_on_c, 0, 51, 0
3, 1980, Note_on_c, 0, 63, 92
3, 2028, Note_on_c, 0, 63, 0
3, 2040, Note_on_c, 0, 62, 92
3, 2088, Note_on_c, 0, 62, 0
3, 2100, Note_on_c, 0, 60, 92
3, 2148, Note_on_c, 0, 60, 0
3, 2160, Note_on_c, 0, 62, 92
3, 2208, Note_on_c, 0, 62, 0
3, 2220, Note_on_c, 0, 63, 92
3, 2268, Note_on_c, 0, 63, 0
3, 2280, Note_on_c, 0, 60, 92
3, 2328, Note_on_c, 0, 60, 0
3, 2340, Note_on_c, 0, 62, 92
3, 2388, Note_on_c, 0, 62, 0
3, 2400, Note_on_c, 0, 58, 92
3, 2448, Note_on_c, 0, 58, 0
3, 2460, Note_on_c, 0, 63, 92
3, 2508, Note_on_c, 0, 63, 0
3, 2520, Note_on_c, 0, 62, 92
3, 2568, Note_on_c, 0, 62, 0
3, 2580, Note_on_c, 0, 60, 92
3, 2628, Note_on_c, 0, 60, 0
3, 2640, Note_on_c, 0, 58, 92
3, 2688, Note_on_c, 0, 58, 0
3, 2700, Note_on_c, 0, 60, 92
3, 2748, Note_on_c, 0, 60, 0
3, 2760, Note_on_c, 0, 56, 92
3, 2808, Note_on_c, 0, 56, 0
3, 2820, Note_on_c, 0, 58, 92
3, 2868, Note_on_c, 0, 58, 0
3, 2880, Note_on_c, 0, 55, 92
3, 2928, Note_on_c, 0, 55, 0
3, 2940, Note_on_c, 0, 60, 92
3, 2988, Note_on_c, 0, 60, 0
3, 3000, Note_on_c, 0, 58, 92
3, 3048, Note_on_c, 0, 58, 0
3, 3060, Note_on_c, 0, 56, 92
3, 3108, Note_on_c, 0, 56, 0
3, 3120, Note_on_c, 0, 55, 92
3, 3168, Note_on_c, 0, 55, 0
3, 3180, Note_on_c, 0, 56, 92
3, 3228, Note_on_c, 0, 56, 0
3, 3240, Note_on_c, 0, 53, 92
3, 3288, Note_on_c, 0, 53, 0
3, 3300, Note_on_c, 0, 55, 92
3, 3348, Note_on_c, 0, 55, 0
3, 3360, Note_on_c, 0, 48, 92
3, 3408, Note_on_c, 0, 48, 0
3, 3420, Note_on_c, 0, 58, 92
3, 3468, Note_on_c, 0, 58, 0
3, 3480, Note_on_c, 0, 57, 92
3, 3528, Note_on_c, 0, 57, 0
3, 3540, Note_on_c, 0, 55, 92
3, 3588, Note_on_c, 0, 55, 0
3, 3600, Note_on_c, 0, 57, 92
3, 3648, Note_on_c, 0, 57, 0
3, 3660, Note_on_c, 0, 58, 92
3, 3708, Note_on_c, 0, 58, 0
3, 3720, Note_on_c, 0, 55, 92
3, 3768, Note_on_c, 0, 55, 0
3, 3780, Note_on_c, 0, 57, 92
3, 3828, Note_on_c, 0, 57, 0
3, 3840, Note_on_c, 0, 58, 92
3, 3936, Note_on_c, 0, 58, 0
3, 3960, Note_on_c, 0, 46, 92
3, 4017, Note_on_c, 0, 46, 0
3, 4020, Note_on_c, 0, 45, 92
3, 4077, Note_on_c, 0, 45, 0
3, 4080, Note_on_c, 0, 46, 92
3, 4176, Note_on_c, 0, 46, 0
3, 4200, Note_on_c, 0, 48, 92
3, 4296, Note_on_c, 0, 48, 0
3, 4320, Note_on_c, 0, 50, 92
3, 4349, Note_on_c, 0, 50, 0
3, 4350, Note_on_c, 0, 48, 92
3, 4379, Note_on_c, 0, 48, 0
3, 4380, Note_on_c, 0, 50, 92
3, 4524, Note_on_c, 0, 50, 0
3, 4560, Note_on_c, 0, 51, 92
3, 4752, Note_on_c, 0, 51, 0
3, 4920, Note_on_c, 0, 48, 92
3, 4977, Note_on_c, 0, 48, 0
3, 4980, Note_on_c, 0, 46, 92
3, 5037, Note_on_c, 0, 46, 0
3, 5040, Note_on_c, 0, 48, 92
3, 5136, Note_on_c, 0, 48, 0
3, 5160, Note_on_c, 0, 50, 92
3, 5256, Note_on_c, 0, 50, 0
3, 5280, Note_on_c, 0, 51, 92
3, 5309, Note_on_c, 0, 51, 0
3, 5310, Note_on_c, 0, 50, 92
3, 5339, Note_on_c, 0, 50, 0
3, 5340, Note_on_c, 0, 51, 92
3, 5484, Note_on_c, 0, 51, 0
3, 5520, Note_on_c, 0, 53, 92
3, 5712, Note_on_c, 0, 53, 0
3, 5760, Note_on_c, 0, 50, 92
3, 5856, Note_on_c, 0, 50, 0
3, 5880, Note_on_c, 0, 55, 92
3, 5976, Note_on_c, 0, 55, 0
3, 6000, Note_on_c, 0, 53, 92
3, 6096, Note_on_c, 0, 53, 0
3, 6120, Note_on_c, 0, 51, 92
3, 6216, Note_on_c, 0, 51, 0
3, 6240, Note_on_c, 0, 50, 92
3, 6288, Note_on_c, 0, 50, 0
3, 6300, Note_on_c, 0, 51, 92
3, 6348, Note_on_c, 0, 51, 0
3, 6360, Note_on_c, 0, 53, 92
3, 6408, Note_on_c, 0, 53, 0
3, 6420, Note_on_c, 0, 51, 92
3, 6468, Note_on_c, 0, 51, 0
3, 6480, Note_on_c, 0, 50, 92
3, 6576, Note_on_c, 0, 50, 0
3, 6600, Note_on_c, 0, 48, 92
3, 6696, Note_on_c, 0, 48, 0
3, 6720, Note_on_c, 0, 46, 92
3, 6816, Note_on_c, 0, 46, 0
3, 6840, Note_on_c, 0, 50, 92
3, 6936, Note_on_c, 0, 50, 0
3, 6960, Note_on_c, 0, 53, 92
3, 7056, Note_on_c, 0, 53, 0
3, 7080, Note_on_c, 0, 56, 92
3, 7248, Note_on_c, 0, 56, 0
3, 7260, Note_on_c, 0, 53, 92
3, 7308, Note_on_c, 0, 53, 0
3, 7320, Note_on_c, 0, 55, 92
3, 7368, Note_on_c, 0, 55, 0
3, 7380, Note_on_c, 0, 56, 92
3, 7428, Note_on_c, 0, 56, 0
3, 7440, Note_on_c, 0, 58, 92
3, 7536, Note_on_c, 0, 58, 0
3, 7560, Note_on_c, 0, 56, 92
3, 7656, Note_on_c, 0, 56, 0
3, 7680, Note_on_c, 0, 55, 92
3, 7728, Note_on_c, 0, 55, 0
3, 7740, Note_on_c, 0, 56, 92
3, 7788, Note_on_c, 0, 56, 0
3, 7800, Note_on_c, 0, 55, 92
3, 7848, Note_on_c, 0, 55, 0
3, 7860, Note_on_c, 0, 53, 92
3, 7908, Note_on_c, 0, 53, 0
3, 7920, Note_on_c, 0, 55, 92
3, 7968, Note_on_c, 0, 55, 0
3, 7980, Note_on_c, 0, 56, 92
3, 8028, Note_on_c, 0, 56, 0
3, 8040, Note_on_c, 0, 53, 92
3, 8088, Note_on_c, 0, 53, 0
3, 8100, Note_on_c, 0, 55, 92
3, 8148, Note_on_c, 0, 55, 0
3, 8160, Note_on_c, 0, 51, 92
3, 8208, Note_on_c, 0, 51, 0
3, 8220, Note_on_c, 0, 63, 92
3, 8268, Note_on_c, 0, 63, 0
3, 8280, Note_on_c, 0, 61, 92
3, 8328, Note_on_c, 0, 61, 0
3, 8340, Note_on_c, 0, 63, 92
3, 8388, Note_on_c, 0, 63, 0
3, 8400, Note_on_c, 0, 60, 92
3, 8448, Note_on_c, 0, 60, 0
3, 8460, Note_on_c, 0, 61, 92
3, 8508, Note_on_c, 0, 61, 0
3, 8520, Note_on_c, 0, 58, 92
3, 8568, Note_on_c, 0, 58, 0
3, 8580, Note_on_c, 0, 60, 92
3, 8628, Note_on_c, 0, 60, 0
3, 8640, Note_on_c, 0, 56, 92
3, 8688, Note_on_c, 0, 56, 0
3, 8700, Note_on_c, 0, 58, 92
3, 8748, Note_on_c, 0, 58, 0
3, 8760, Note_on_c, 0, 56, 92
3, 8808, Note_on_c, 0, 56, 0
3, 8820, Note_on_c, 0, 55, 92
3, 8868, Note_on_c, 0, 55, 0
3, 8880, Note_on_c, 0, 56, 92
3, 8928, Note_on_c, 0, 56, 0
3, 8940, Note_on_c, 0, 58, 92
3, 8988, Note_on_c, 0, 58, 0
3, 9000, Note_on_c, 0, 55, 92
3, 9048, Note_on_c, 0, 55, 0
3, 9060, Note_on_c, 0, 56, 92
3, 9108, Note_on_c, 0, 56, 0
3, 9120, Note_on_c, 0, 53, 92
3, 9168, Note_on_c, 0, 53, 0
3, 9180, Note_on_c, 0, 65, 92
3, 9228, Note_on_c, 0, 65, 0
3, 9240, Note_on_c, 0, 63, 92
3, 9288, Note_on_c, 0, 63, 0
3, 9300, Note_on_c, 0, 65, 92
3, 9348, Note_on_c, 0, 65, 0
3, 9360, Note_on_c, 0, 62, 92
3, 9408, Note_on_c, 0, 62, 0
3, 9420, Note_on_c, 0, 63, 92
3, 9468, Note_on_c, 0, 63, 0
3, 9480, Note_on_c, 0, 60, 92
3, 9528, Note_on_c, 0, 60, 0
3, 9540, Note_on_c, 0, 62, 92
3, 9588, Note_on_c, 0, 62, 0
3, 9600, Note_on_c, 0, 58, 92
3, 9648, Note_on_c, 0, 58, 0
3, 9660, Note_on_c, 0, 60, 92
3, 9708, Note_on_c, 0, 60, 0
3, 9720, Note_on_c, 0, 58, 92
3, 9768, Note_on_c, 0, 58, 0
3, 9780, Note_on_c, 0, 57, 92
3, 9828, Note_on_c, 0, 57, 0
3, 9840, Note_on_c, 0, 58, 92
3, 9888, Note_on_c, 0, 58, 0
3, 9900, Note_on_c, 0, 60, 92
3, 9948, Note_on_c, 0, 60, 0
3, 9960, Note_on_c, 0, 56, 92
3, 10008, Note_on_c, 0, 56, 0
3, 10020, Note_on_c, 0, 58, 92
3, 10068, Note_on_c, 0, 58, 0
3, 10080, Note_on_c, 0, 55, 92
3, 10128, Note_on_c, 0, 55, 0
3, 10140, Note_on_c, 0, 56, 92
3, 10188, Note_on_c, 0, 56, 0
3, 10200, Note_on_c, 0, 53, 92
3, 10248, Note_on_c, 0, 53, 0
3, 10260, Note_on_c, 0, 55, 92
3, 10308, Note_on_c, 0, 55, 0
3, 10320, Note_on_c, 0, 51, 92
3, 10368, Note_on_c, 0, 51, 0
3, 10380, Note_on_c, 0, 53, 92
3, 10428, Note_on_c, 0, 53, 0
3, 10440, Note_on_c, 0, 50, 92
3, 10488, Note_on_c, 0, 50, 0
3, 10500, Note_on_c, 0, 51, 92
3, 10548, Note_on_c, 0, 51, 0
3, 10560, Note_on_c, 0, 48, 92
3, 10656, Note_on_c, 0, 48, 0
3, 10680, Note_on_c, 0, 48, 92
3, 10728, Note_on_c, 0, 48, 0
3, 10740, Note_on_c, 0, 47, 92
3, 10788, Note_on_c, 0, 47, 0
3, 10800, Note_on_c, 0, 48, 92
3, 10896, Note_on_c, 0, 48, 0
3, 10920, Note_on_c, 0, 50, 92
3, 11016, Note_on_c, 0, 50, 0
3, 11040, Note_on_c, 0, 51, 92
3, 11064, Note_on_c, 0, 51, 0
3, 11070, Note_on_c, 0, 50, 92
3, 11094, Note_on_c, 0, 50, 0
3, 11100, Note_on_c, 0, 51, 92
3, 11244, Note_on_c, 0, 51, 0
3, 11280, Note_on_c, 0, 53, 92
3, 11472, Note_on_c, 0, 53, 0
3, 11640, Note_on_c, 0, 50, 92
3, 11697, Note_on_c, 0, 50, 0
3, 11700, Note_on_c, 0, 48, 92
3, 11748, Note_on_c, 0, 48, 0
3, 11760, Note_on_c, 0, 50, 92
3, 11856, Note_on_c, 0, 50, 0
3, 11880, Note_on_c, 0, 51, 92
3, 11976, Note_on_c, 0, 51, 0
3, 12000, Note_on_c, 0, 53, 92
3, 12029, Note_on_c, 0, 53, 0
3, 12030, Note_on_c, 0, 51, 92
3, 12059, Note_on_c, 0, 51, 0
3, 12060, Note_on_c, 0, 53, 92
3, 12204, Note_on_c, 0, 53, 0
3, 12240, Note_on_c, 0, 55, 92
3, 12432, Note_on_c, 0, 55, 0
3, 12480, Note_on_c, 0, 51, 92
3, 12576, Note_on_c, 0, 51, 0
3, 12600, Note_on_c, 0, 56, 92
3, 12696, Note_on_c, 0, 56, 0
3, 12720, Note_on_c, 0, 55, 92
3, 12816, Note_on_c, 0, 55, 0
3, 12840, Note_on_c, 0, 53, 92
3, 12936, Note_on_c, 0, 53, 0
3, 12960, Note_on_c, 0, 52, 92
3, 13008, Note_on_c, 0, 52, 0
3, 13020, Note_on_c, 0, 53, 92
3, 13068, Note_on_c, 0, 53, 0
3, 13080, Note_on_c, 0, 55, 92
3, 13128, Note_on_c, 0, 55, 0
3, 13140, Note_on_c, 0, 53, 92
3, 13188, Note_on_c, 0, 53, 0
3, 13200, Note_on_c, 0, 52, 92
3, 13296, Note_on_c, 0, 52, 0
3, 13320, Note_on_c, 0, 50, 92
3, 13416, Note_on_c, 0, 50, 0
3, 13440, Note_on_c, 0, 48, 92
3, 13536, Note_on_c, 0, 48, 0
3, 13560, Note_on_c, 0, 52, 92
3, 13656, Note_on_c, 0, 52, 0
3, 13680, Note_on_c, 0, 55, 92
3, 13776, Note_on_c, 0, 55, 0
3, 13800, Note_on_c, 0, 58, 92
3, 13968, Note_on_c, 0, 58, 0
3, 13980, Note_on_c, 0, 55, 92
3, 14028, Note_on_c, 0, 55, 0
3, 14040, Note_on_c, 0, 56, 92
3, 14088, Note_on_c, 0, 56, 0
3, 14100, Note_on_c, 0, 58, 92
3, 14148, Note_on_c, 0, 58, 0
3, 14160, Note_on_c, 0, 60, 92
3, 14256, Note_on_c, 0, 60, 0
3, 14280, Note_on_c, 0, 58, 92
3, 14376, Note_on_c, 0, 58, 0
3, 14400, Note_on_c, 0, 56, 92
3, 14448, Note_on_c, 0, 56, 0
3, 14460, Note_on_c, 0, 58, 92
3, 14508, Note_on_c, 0, 58, 0
3, 14520, Note_on_c, 0, 56, 92
3, 14568, Note_on_c, 0, 56, 0
3, 14580, Note_on_c, 0, 55, 92
3, 14628, Note_on_c, 0, 55, 0
3, 14640, Note_on_c, 0, 56, 92
3, 14688, Note_on_c, 0, 56, 0
3, 14700, Note_on_c, 0, 58, 92
3, 14748, Note_on_c, 0, 58, 0
3, 14760, Note_on_c, 0, 55, 92
3, 14808, Note_on_c, 0, 55, 0
3, 14820, Note_on_c, 0, 56, 92
3, 14868, Note_on_c, 0, 56, 0
3, 14880, Note_on_c, 0, 53, 92
3, 14928, Note_on_c, 0, 53, 0
3, 14940, Note_on_c, 0, 65, 92
3, 14988, Note_on_c, 0, 65, 0
3, 15000, Note_on_c, 0, 63, 92
3, 15048, Note_on_c, 0, 63, 0
3, 15060, Note_on_c, 0, 65, 92
3, 15108, Note_on_c, 0, 65, 0
3, 15120, Note_on_c, 0, 61, 92
3, 15168, Note_on_c, 0, 61, 0
3, 15180, Note_on_c, 0, 63, 92
3, 15228, Note_on_c, 0, 63, 0
3, 15240, Note_on_c, 0, 60, 92
3, 15288, Note_on_c, 0, 60, 0
3, 15300, Note_on_c, 0, 61, 92
3, 15348, Note_on_c, 0, 61, 0
3, 15360, Note_on_c, 0, 58, 92
3, 15408, Note_on_c, 0, 58, 0
3, 15420, Note_on_c, 0, 61, 92
3, 15468, Note_on_c, 0, 61, 0
3, 15480, Note_on_c, 0, 60, 92
3, 15528, Note_on_c, 0, 60, 0
3, 15540, Note_on_c, 0, 61, 92
3, 15588, Note_on_c, 0, 61, 0
3, 15600, Note_on_c, 0, 58, 92
3, 15648, Note_on_c, 0, 58, 0
3, 15660, Note_on_c, 0, 60, 92
3, 15708, Note_on_c, 0, 60, 0
3, 15720, Note_on_c, 0, 56, 92
3, 15768, Note_on_c, 0, 56, 0
3, 15780, Note_on_c, 0, 58, 92
3, 15828, Note_on_c, 0, 58, 0
3, 15840, Note_on_c, 0, 55, 92
3, 15888, Note_on_c, 0, 55, 0
3, 15900, Note_on_c, 0, 65, 92
3, 15948, Note_on_c, 0, 65, 0
3, 15960, Note_on_c, 0, 63, 92
3, 16008, Note_on_c, 0, 63, 0
3, 16020, Note_on_c, 0, 62, 92
3, 16068, Note_on_c, 0, 62, 0
3, 16080, Note_on_c, 0, 63, 92
3, 16128, Note_on_c, 0, 63, 0
3, 16140, Note_on_c, 0, 65, 92
3, 16188, Note_on_c, 0, 65, 0
3, 16200, Note_on_c, 0, 62, 92
3, 16248, Note_on_c, 0, 62, 0
3, 16260, Note_on_c, 0, 63, 92
3, 16308, Note_on_c, 0, 63, 0
3, 16320, Note_on_c, 0, 53, 92
3, 16368, Note_on_c, 0, 53, 0
3, 16380, Note_on_c, 0, 65, 92
3, 16428, Note_on_c, 0, 65, 0
3, 16440, Note_on_c, 0, 63, 92
3, 16488, Note_on_c, 0, 63, 0
3, 16500, Note_on_c, 0, 61, 92
3, 16548, Note_on_c, 0, 61, 0
3, 16560, Note_on_c, 0, 63, 92
3, 16608, Note_on_c, 0, 63, 0
3, 16620, Note_on_c, 0, 65, 92
3, 16668, Note_on_c, 0, 65, 0
3, 16680, Note_on_c, 0, 61, 92
3, 16728, Note_on_c, 0, 61, 0
3, 16740, Note_on_c, 0, 63, 92
3, 16788, Note_on_c, 0, 63, 0
3, 16800, Note_on_c, 0, 60, 92
3, 16848, Note_on_c, 0, 60, 0
3, 16860, Note_on_c, 0, 65, 92
3, 16908, Note_on_c, 0, 65, 0
3, 16920, Note_on_c, 0, 63, 92
3, 16968, Note_on_c, 0, 63, 0
3, 16980, Note_on_c, 0, 61, 92
3, 17028, Note_on_c, 0, 61, 0
3, 17040, Note_on_c, 0, 60, 92
3, 17088, Note_on_c, 0, 60, 0
3, 17100, Note_on_c, 0, 61, 92
3, 17148, Note_on_c, 0, 61, 0
3, 17160, Note_on_c, 0, 58, 92
3, 17208, Note_on_c, 0, 58, 0
3, 17220, Note_on_c, 0, 60, 92
3, 17268, Note_on_c, 0, 60, 0
3, 17280, Note_on_c, 0, 57, 92
3, 17328, Note_on_c, 0, 57, 0
3, 17340, Note_on_c, 0, 61, 92
3, 17388, Note_on_c, 0, 61, 0
3, 17400, Note_on_c, 0, 60, 92
3, 17448, Note_on_c, 0, 60, 0
3, 17460, Note_on_c, 0, 58, 92
3, 17508, Note_on_c, 0, 58, 0
3, 17520, Note_on_c, 0, 57, 92
3, 17568, Note_on_c, 0, 57, 0
3, 17580, Note_on_c, 0, 58, 92
3, 17628, Note_on_c, 0, 58, 0
3, 17640, Note_on_c, 0, 55, 92
3, 17688, Note_on_c, 0, 55, 0
3, 17700, Note_on_c, 0, 57, 92
3, 17748, Note_on_c, 0, 57, 0
3, 17760, Note_on_c, 0, 48, 92
3, 17808, Note_on_c, 0, 48, 0
3, 17820, Note_on_c, 0, 58, 92
3, 17868, Note_on_c, 0, 58, 0
3, 17880, Note_on_c, 0, 57, 92
3, 17928, Note_on_c, 0, 57, 0
3, 17940, Note_on_c, 0, 55, 92
3, 17988, Note_on_c, 0, 55, 0
3, 18000, Note_on_c, 0, 57, 92
3, 18048, Note_on_c, 0, 57, 0
3, 18060, Note_on_c, 0, 58, 92
3, 18108, Note_on_c, 0, 58, 0
3, 18120, Note_on_c, 0, 55, 92
3, 18168, Note_on_c, 0, 55, 0
3, 18180, Note_on_c, 0, 57, 92
3, 18228, Note_on_c, 0, 57, 0
3, 18240, Note_on_c, 0, 58, 92
3, 18336, Note_on_c, 0, 58, 0
3, 18360, Note_on_c, 0, 46, 92
3, 18417, Note_on_c, 0, 46, 0
3, 18420, Note_on_c, 0, 45, 92
3, 18468, Note_on_c, 0, 45, 0
3, 18480, Note_on_c, 0, 46, 92
3, 18576, Note_on_c, 0, 46, 0
3, 18600, Note_on_c, 0, 48, 92
3, 18696, Note_on_c, 0, 48, 0
3, 18720, Note_on_c, 0, 49, 92
3, 18749, Note_on_c, 0, 49, 0
3, 18750, Note_on_c, 0, 48, 92
3, 18779, Note_on_c, 0, 48, 0
3, 18780, Note_on_c, 0, 49, 92
3, 18924, Note_on_c, 0, 49, 0
3, 18960, Note_on_c, 0, 51, 92
3, 19152, Note_on_c, 0, 51, 0
3, 19320, Note_on_c, 0, 44, 92
3, 19377, Note_on_c, 0, 44, 0
3, 19380, Note_on_c, 0, 43, 92
3, 19428, Note_on_c, 0, 43, 0
3, 19440, Note_on_c, 0, 44, 92
3, 19536, Note_on_c, 0, 44, 0
3, 19560, Note_on_c, 0, 46, 92
3, 19656, Note_on_c, 0, 46, 0
3, 19680, Note_on_c, 0, 48, 92
3, 19709, Note_on_c, 0, 48, 0
3, 19710, Note_on_c, 0, 46, 92
3, 19739, Note_on_c, 0, 46, 0
3, 19740, Note_on_c, 0, 48, 92
3, 19884, Note_on_c, 0, 48, 0
3, 19920, Note_on_c, 0, 49, 92
3, 20112, Note_on_c, 0, 49, 0
3, 20280, Note_on_c, 0, 43, 92
3, 20328, Note_on_c, 0, 43, 0
3, 20340, Note_on_c, 0, 41, 92
3, 20388, Note_on_c, 0, 41, 0
3, 20400, Note_on_c, 0, 43, 92
3, 20496, Note_on_c, 0, 43, 0
3, 20520, Note_on_c, 0, 44, 92
3, 20616, Note_on_c, 0, 44, 0
3, 20640, Note_on_c, 0, 46, 92
3, 20664, Note_on_c, 0, 46, 0
3, 20670, Note_on_c, 0, 44, 92
3, 20694, Note_on_c, 0, 44, 0
3, 20700, Note_on_c, 0, 46, 92
3, 20844, Note_on_c, 0, 46, 0
3, 20880, Note_on_c, 0, 48, 92
3, 21072, Note_on_c, 0, 48, 0
3, 21120, Note_on_c, 0, 41, 92
3, 21168, Note_on_c, 0, 41, 0
3, 21180, Note_on_c, 0, 60, 92
3, 21228, Note_on_c, 0, 60, 0
3, 21240, Note_on_c, 0, 58, 92
3, 21288, Note_on_c, 0, 58, 0
3, 21300, Note_on_c, 0, 60, 92
3, 21348, Note_on_c, 0, 60, 0
3, 21360, Note_on_c, 0, 56, 92
3, 21408, Note_on_c, 0, 56, 0
3, 21420, Note_on_c, 0, 58, 92
3, 21468, Note_on_c, 0, 58, 0
3, 21480, Note_on_c, 0, 55, 92
3, 21528, Note_on_c, 0, 55, 0
3, 21540, Note_on_c, 0, 56, 92
3, 21588, Note_on_c, 0, 56, 0
3, 21600, Note_on_c, 0, 53, 92
3, 21648, Note_on_c, 0, 53, 0
3, 21660, Note_on_c, 0, 56, 92
3, 21708, Note_on_c, 0, 56, 0
3, 21720, Note_on_c, 0, 55, 92
3, 21768, Note_on_c, 0, 55, 0
3, 21780, Note_on_c, 0, 56, 92
3, 21828, Note_on_c, 0, 56, 0
3, 21840, Note_on_c, 0, 53, 92
3, 21888, Note_on_c, 0, 53, 0
3, 21900, Note_on_c, 0, 55, 92
3, 21948, Note_on_c, 0, 55, 0
3, 21960, Note_on_c, 0, 51, 92
3, 22008, Note_on_c, 0, 51, 0
3, 22020, Note_on_c, 0, 53, 92
3, 22068, Note_on_c, 0, 53, 0
3, 22080, Note_on_c, 0, 50, 92
3, 22128, Note_on_c, 0, 50, 0
3, 22140, Note_on_c, 0, 53, 92
3, 22188, Note_on_c, 0, 53, 0
3, 22200, Note_on_c, 0, 51, 92
3, 22248, Note_on_c, 0, 51, 0
3, 22260, Note_on_c, 0, 53, 92
3, 22308, Note_on_c, 0, 53, 0
3, 22320, Note_on_c, 0, 50, 92
3, 22368, Note_on_c, 0, 50, 0
3, 22380, Note_on_c, 0, 51, 92
3, 22428, Note_on_c, 0, 51, 0
3, 22440, Note_on_c, 0, 48, 92
3, 22488, Note_on_c, 0, 48, 0
3, 22500, Note_on_c, 0, 50, 92
3, 22548, Note_on_c, 0, 50, 0
3, 22560, Note_on_c, 0, 46, 92
3, 22608, Note_on_c, 0, 46, 0
3, 22620, Note_on_c, 0, 56, 92
3, 22668, Note_on_c, 0, 56, 0
3, 22680, Note_on_c, 0, 55, 92
3, 22728, Note_on_c, 0, 55, 0
3, 22740, Note_on_c, 0, 53, 92
3, 22788, Note_on_c, 0, 53, 0
3, 22800, Note_on_c, 0, 55, 92
3, 22848, Note_on_c, 0, 55, 0
3, 22860, Note_on_c, 0, 56, 92
3, 22908, Note_on_c, 0, 56, 0
3, 22920, Note_on_c, 0, 53, 92
3, 22968, Note_on_c, 0, 53, 0
3, 22980, Note_on_c, 0, 55, 92
3, 23028, Note_on_c, 0, 55, 0
3, 23040, Note_on_c, 0, 56, 92
3, 23136, Note_on_c, 0, 56, 0
3, 23160, Note_on_c, 0, 51, 92
3, 23217, Note_on_c, 0, 51, 0
3, 23220, Note_on_c, 0, 50, 92
3, 23268, Note_on_c, 0, 50, 0
3, 23280, Note_on_c, 0, 51, 92
3, 23376, Note_on_c, 0, 51, 0
3, 23400, Note_on_c, 0, 53, 92
3, 23496, Note_on_c, 0, 53, 0
3, 23520, Note_on_c, 0, 55, 92
3, 23549, Note_on_c, 0, 55, 0
3, 23550, Note_on_c, 0, 53, 92
3, 23574, Note_on_c, 0, 53, 0
3, 23580, Note_on_c, 0, 55, 92
3, 23724, Note_on_c, 0, 55, 0
3, 23760, Note_on_c, 0, 56, 92
3, 23952, Note_on_c, 0, 56, 0
3, 24120, Note_on_c, 0, 53, 92
3, 24177, Note_on_c, 0, 53, 0
3, 24180, Note_on_c, 0, 51, 92
3, 24228, Note_on_c, 0, 51, 0
3, 24240, Note_on_c, 0, 53, 92
3, 24336, Note_on_c, 0, 53, 0
3, 24360, Note_on_c, 0, 55, 92
3, 24456, Note_on_c, 0, 55, 0
3, 24480, Note_on_c, 0, 56, 92
3, 24509, Note_on_c, 0, 56, 0
3, 24510, Note_on_c, 0, 55, 92
3, 24534, Note_on_c, 0, 55, 0
3, 24540, Note_on_c, 0, 56, 92
3, 24684, Note_on_c, 0, 56, 0
3, 24720, Note_on_c, 0, 58, 92
3, 24912, Note_on_c, 0, 58, 0
3, 24960, Note_on_c, 0, 55, 92
3, 25008, Note_on_c, 0, 55, 0
3, 25020, Note_on_c, 0, 56, 92
3, 25068, Note_on_c, 0, 56, 0
3, 25080, Note_on_c, 0, 55, 92
3, 25128, Note_on_c, 0, 55, 0
3, 25140, Note_on_c, 0, 53, 92
3, 25188, Note_on_c, 0, 53, 0
3, 25200, Note_on_c, 0, 55, 92
3, 25248, Note_on_c, 0, 55, 0
3, 25260, Note_on_c, 0, 56, 92
3, 25308, Note_on_c, 0, 56, 0
3, 25320, Note_on_c, 0, 53, 92
3, 25368, Note_on_c, 0, 53, 0
3, 25380, Note_on_c, 0, 55, 92
3, 25428, Note_on_c, 0, 55, 0
3, 25440, Note_on_c, 0, 51, 92
3, 25488, Note_on_c, 0, 51, 0
3, 25500, Note_on_c, 0, 63, 92
3, 25548, Note_on_c, 0, 63, 0
3, 25560, Note_on_c, 0, 62, 92
3, 25608, Note_on_c, 0, 62, 0
3, 25620, Note_on_c, 0, 63, 92
3, 25668, Note_on_c, 0, 63, 0
3, 25680, Note_on_c, 0, 60, 92
3, 25728, Note_on_c, 0, 60, 0
3, 25740, Note_on_c, 0, 62, 92
3, 25788, Note_on_c, 0, 62, 0
3, 25800, Note_on_c, 0, 58, 92
3, 25848, Note_on_c, 0, 58, 0
3, 25860, Note_on_c, 0, 60, 92
3, 25908, Note_on_c, 0, 60, 0
3, 25920, Note_on_c, 0, 56, 92
3, 25968, Note_on_c, 0, 56, 0
3, 25980, Note_on_c, 0, 60, 92
3, 26028, Note_on_c, 0, 60, 0
3, 26040, Note_on_c, 0, 58, 92
3, 26088, Note_on_c, 0, 58, 0
3, 26100, Note_on_c, 0, 60, 92
3, 26148, Note_on_c, 0, 60, 0
3, 26160, Note_on_c, 0, 56, 92
3, 26208, Note_on_c, 0, 56, 0
3, 26220, Note_on_c, 0, 58, 92
3, 26268, Note_on_c, 0, 58, 0
3, 26280, Note_on_c, 0, 55, 92
3, 26328, Note_on_c, 0, 55, 0
3, 26340, Note_on_c, 0, 56, 92
3, 26388, Note_on_c, 0, 56, 0
3, 26400, Note_on_c, 0, 53, 92
3, 26448, Note_on_c, 0, 53, 0
3, 26460, Note_on_c, 0, 63, 92
3, 26508, Note_on_c, 0, 63, 0
3, 26520, Note_on_c, 0, 62, 92
3, 26568, Note_on_c, 0, 62, 0
3, 26580, Note_on_c, 0, 60, 92
3, 26628, Note_on_c, 0, 60, 0
3, 26640, Note_on_c, 0, 62, 92
3, 26688, Note_on_c, 0, 62, 0
3, 26700, Note_on_c, 0, 63, 92
3, 26748, Note_on_c, 0, 63, 0
3, 26760, Note_on_c, 0, 60, 92
3, 26808, Note_on_c, 0, 60, 0
3, 26820, Note_on_c, 0, 62, 92
3, 26868, Note_on_c, 0, 62, 0
3, 26880, Note_on_c, 0, 51, 92
3, 26928, Note_on_c, 0, 51, 0
3, 26940, Note_on_c, 0, 63, 92
3, 26988, Note_on_c, 0, 63, 0
3, 27000, Note_on_c, 0, 62, 92
3, 27048, Note_on_c, 0, 62, 0
3, 27060, Note_on_c, 0, 60, 92
3, 27108, Note_on_c, 0, 60, 0
3, 27120, Note_on_c, 0, 62, 92
3, 27168, Note_on_c, 0, 62, 0
3, 27180, Note_on_c, 0, 63, 92
3, 27228, Note_on_c, 0, 63, 0
3, 27240, Note_on_c, 0, 60, 92
3, 27288, Note_on_c, 0, 60, 0
3, 27300, Note_on_c, 0, 62, 92
3, 27348, Note_on_c, 0, 62, 0
3, 27360, Note_on_c, 0, 58, 92
3, 27408, Note_on_c, 0, 58, 0
3, 27420, Note_on_c, 0, 63, 92
3, 27468, Note_on_c, 0, 63, 0
3, 27480, Note_on_c, 0, 62, 92
3, 27528, Note_on_c, 0, 62, 0
3, 27540, Note_on_c, 0, 60, 92
3, 27588, Note_on_c, 0, 60, 0
3, 27600, Note_on_c, 0, 58, 92
3, 27648, Note_on_c, 0, 58, 0
3, 27660, Note_on_c, 0, 60, 92
3, 27708, Note_on_c, 0, 60, 0
3, 27720, Note_on_c, 0, 56, 92
3, 27768, Note_on_c, 0, 56, 0
3, 27780, Note_on_c, 0, 58, 92
3, 27828, Note_on_c, 0, 58, 0
3, 27840, Note_on_c, 0, 55, 92
3, 27888, Note_on_c, 0, 55, 0
3, 27900, Note_on_c, 0, 60, 92
3, 27948, Note_on_c, 0, 60, 0
3, 27960, Note_on_c, 0, 58, 92
3, 28008, Note_on_c, 0, 58, 0
3, 28020, Note_on_c, 0, 56, 92
3, 28068, Note_on_c, 0, 56, 0
3, 28080, Note_on_c, 0, 55, 92
3, 28128, Note_on_c, 0, 55, 0
3, 28140, Note_on_c, 0, 56, 92
3, 28188, Note_on_c, 0, 56, 0
3, 28200, Note_on_c, 0, 53, 92
3, 28248, Note_on_c, 0, 53, 0
3, 28260, Note_on_c, 0, 55, 92
3, 28308, Note_on_c, 0, 55, 0
3, 28320, Note_on_c, 0, 51, 92
3, 28368, Note_on_c, 0, 51, 0
3, 28380, Note_on_c, 0, 56, 92
3, 28428, Note_on_c, 0, 56, 0
3, 28440, Note_on_c, 0, 55, 92
3, 28488, Note_on_c, 0, 55, 0
3, 28500, Note_on_c, 0, 53, 92
3, 28548, Note_on_c, 0, 53, 0
3, 28560, Note_on_c, 0, 51, 92
3, 28608, Note_on_c, 0, 51, 0
3, 28620, Note_on_c, 0, 53, 92
3, 28668, Note_on_c, 0, 53, 0
3, 28680, Note_on_c, 0, 49, 92
3, 28728, Note_on_c, 0, 49, 0
3, 28740, Note_on_c, 0, 51, 92
3, 28788, Note_on_c, 0, 51, 0
3, 28800, Note_on_c, 0, 48, 92
3, 28848, Note_on_c, 0, 48, 0
3, 28860, Note_on_c, 0, 53, 92
3, 28908, Note_on_c, 0, 53, 0
3, 28920, Note_on_c, 0, 51, 92
3, 28968, Note_on_c, 0, 51, 0
3, 28980, Note_on_c, 0, 49, 92
3, 29028, Note_on_c, 0, 49, 0
3, 29040, Note_on_c, 0, 48, 92
3, 29088, Note_on_c, 0, 48, 0
3, 29100, Note_on_c, 0, 49, 92
3, 29148, Note_on_c, 0, 49, 0
3, 29160, Note_on_c, 0, 46, 92
3, 29208, Note_on_c, 0, 46, 0
3, 29220, Note_on_c, 0, 48, 92
3, 29268, Note_on_c, 0, 48, 0
3, 29280, Note_on_c, 0, 41, 92
3, 29328, Note_on_c, 0, 41, 0
3, 29340, Note_on_c, 0, 51, 92
3, 29388, Note_on_c, 0, 51, 0
3, 29400, Note_on_c, 0, 50, 92
3, 29448, Note_on_c, 0, 50, 0
3, 29460, Note_on_c, 0, 48, 92
3, 29508, Note_on_c, 0, 48, 0
3, 29520, Note_on_c, 0, 50, 92
3, 29568, Note_on_c, 0, 50, 0
3, 29580, Note_on_c, 0, 51, 92
3, 29628, Note_on_c, 0, 51, 0
3, 29640, Note_on_c, 0, 48, 92
3, 29688, Note_on_c, 0, 48, 0
3, 29700, Note_on_c, 0, 50, 92
3, 29748, Note_on_c, 0, 50, 0
3, 29760, Note_on_c, 0, 51, 92
3, 29856, Note_on_c, 0, 51, 0
3, 29880, Note_on_c, 0, 43, 92
3, 29976, Note_on_c, 0, 43, 0
3, 30000, Note_on_c, 0, 44, 92
3, 30096, Note_on_c, 0, 44, 0
3, 30120, Note_on_c, 0, 46, 92
3, 30216, Note_on_c, 0, 46, 0
3, 30240, Note_on_c, 0, 39, 92
3, 31488, Note_on_c, 0, 39, 0
3, 31488, End_track
0, 0, End_of_file
