0, 0, Header, 0, 1, 480
1, 0, Start_track
1, 0, Title_t, "Bach's 3rd English Suite: 4. Sarabande"
1, 0, Time_signature, 4, 2, 24, 8
1, 0, Key_signature, -2, "major"
1, 0, Tempo, 500000
1, 0, Program_c, 0, 6
1, 0, Control_c, 0, 7, 115
1, 0, Control_c, 0, 91, 127
1, 0, Control_c, 0, 121, 127
1, 944, Control_c, 0, 64, 127
1, 1019, Control_c, 0, 64, 0
1, 1756, Note_on_c, 0, 55, 71
1, 1769, Note_on_c, 0, 43, 63
1, 1779, Note_on_c, 0, 50, 68
1, 1789, Note_on_c, 0, 62, 70
1, 1808, Note_on_c, 0, 67, 68
1, 1819, Note_on_c, 0, 70, 65
1, 2011, Control_c, 0, 64, 127
1, 2424, Note_on_c, 0, 62, 0
1, 2512, Note_on_c, 0, 70, 0
1, 2540, Note_on_c, 0, 60, 77
1, 2611, Note_on_c, 0, 69, 54
1, 2845, Note_on_c, 0, 67, 0
1, 3068, Note_on_c, 0, 50, 0
1, 3114, Note_on_c, 0, 60, 0
1, 3144, Note_on_c, 0, 69, 0
1, 3221, Note_on_c, 0, 55, 0
1, 3225, Note_on_c, 0, 51, 68
1, 3244, Note_on_c, 0, 69, 80
1, 3250, Note_on_c, 0, 60, 77
1, 3272, Control_c, 0, 64, 0
1, 3443, Control_c, 0, 64, 127
1, 4847, Note_on_c, 0, 72, 79
1, 4915, Note_on_c, 0, 69, 0
1, 5001, Note_on_c, 0, 70, 63
1, 5088, Note_on_c, 0, 72, 0
1, 5208, Note_on_c, 0, 72, 80
1, 5247, Note_on_c, 0, 70, 0
1, 5355, Control_c, 0, 64, 0
1, 5416, Control_c, 0, 64, 127
1, 5639, Note_on_c, 0, 69, 86
1, 5706, Note_on_c, 0, 72, 0
1, 5978, Note_on_c, 0, 60, 0
1, 6159, Note_on_c, 0, 57, 65
1, 6178, Note_on_c, 0, 60, 72
1, 6179, Note_on_c, 0, 66, 74
1, 6229, Note_on_c, 0, 69, 0
1, 6239, Control_c, 0, 64, 0
1, 6450, Control_c, 0, 64, 127
1, 7532, Note_on_c, 0, 69, 79
1, 7602, Note_on_c, 0, 66, 0
1, 7677, Note_on_c, 0, 67, 80
1, 7713, Note_on_c, 0, 69, 0
1, 7837, Note_on_c, 0, 69, 97
1, 7878, Note_on_c, 0, 67, 0
1, 8190, Note_on_c, 0, 57, 0
1, 8263, Note_on_c, 0, 69, 0
1, 8294, Note_on_c, 0, 63, 77
1, 8495, Note_on_c, 0, 60, 0
1, 8562, Note_on_c, 0, 51, 0
1, 8621, Note_on_c, 0, 63, 0
1, 8774, Note_on_c, 0, 54, 60
1, 8796, Note_on_c, 0, 57, 71
1, 8816, Note_on_c, 0, 63, 77
1, 8823, Note_on_c, 0, 48, 63
1, 8865, Control_c, 0, 64, 0
1, 9036, Control_c, 0, 64, 127
1, 9830, Note_on_c, 0, 62, 84
1, 9845, Note_on_c, 0, 63, 0
1, 9935, Note_on_c, 0, 63, 79
1, 9945, Note_on_c, 0, 62, 0
1, 10002, Note_on_c, 0, 62, 75
1, 10034, Note_on_c, 0, 63, 0
1, 10104, Control_c, 0, 64, 0
1, 10298, Control_c, 0, 64, 127
1, 10718, Note_on_c, 0, 62, 0
1, 11007, Note_on_c, 0, 60, 73
1, 11105, Note_on_c, 0, 57, 0
1, 11111, Note_on_c, 0, 54, 0
1, 11120, Note_on_c, 0, 48, 0
1, 11269, Note_on_c, 0, 60, 0
1, 11402, Note_on_c, 0, 55, 63
1, 11424, Note_on_c, 0, 50, 62
1, 11456, Note_on_c, 0, 58, 67
1, 11596, Control_c, 0, 64, 0
1, 11819, Control_c, 0, 64, 127
1, 12759, Note_on_c, 0, 57, 79
1, 12895, Note_on_c, 0, 58, 0
1, 12929, Note_on_c, 0, 55, 0
1, 13228, Note_on_c, 0, 55, 62
1, 13249, Control_c, 0, 64, 0
1, 13291, Note_on_c, 0, 57, 0
1, 13385, Control_c, 0, 64, 127
1, 14408, Note_on_c, 0, 62, 85
1, 14419, Note_on_c, 0, 58, 78
1, 14445, Control_c, 0, 64, 0
1, 14579, Control_c, 0, 64, 127
1, 14906, Note_on_c, 0, 65, 80
1, 14919, Note_on_c, 0, 58, 0
1, 15168, Note_on_c, 0, 64, 86
1, 15215, Note_on_c, 0, 65, 0
1, 15216, Note_on_c, 0, 62, 0
1, 15324, Note_on_c, 0, 55, 0
1, 15325, Note_on_c, 0, 50, 0
1, 15463, Note_on_c, 0, 55, 75
1, 15479, Note_on_c, 0, 50, 79
1, 15494, Note_on_c, 0, 65, 84
1, 15505, Note_on_c, 0, 59, 74
1, 15553, Note_on_c, 0, 64, 0
1, 15570, Control_c, 0, 64, 0
1, 15722, Control_c, 0, 64, 127
1, 16896, Note_on_c, 0, 62, 86
1, 17102, Note_on_c, 0, 59, 0
1, 17159, Note_on_c, 0, 65, 0
1, 17507, Note_on_c, 0, 48, 79
1, 17516, Note_on_c, 0, 60, 74
1, 17517, Note_on_c, 0, 64, 92
1, 17563, Note_on_c, 0, 62, 0
1, 17573, Control_c, 0, 64, 0
1, 17591, Note_on_c, 0, 50, 0
1, 17717, Control_c, 0, 64, 127
1, 18025, Note_on_c, 0, 67, 78
1, 18044, Note_on_c, 0, 64, 0
1, 18047, Note_on_c, 0, 50, 84
1, 18169, Note_on_c, 0, 48, 0
1, 18225, Note_on_c, 0, 55, 0
1, 18297, Note_on_c, 0, 66, 79
1, 18353, Note_on_c, 0, 67, 0
1, 18418, Note_on_c, 0, 50, 0
1, 18449, Note_on_c, 0, 60, 0
1, 18659, Note_on_c, 0, 51, 71
1, 18665, Note_on_c, 0, 57, 77
1, 18670, Note_on_c, 0, 60, 83
1, 18671, Note_on_c, 0, 67, 86
1, 18696, Note_on_c, 0, 66, 0
1, 18717, Control_c, 0, 64, 0
1, 18870, Control_c, 0, 64, 127
1, 20074, Note_on_c, 0, 69, 84
1, 20120, Note_on_c, 0, 67, 0
1, 20411, Note_on_c, 0, 66, 84
1, 20447, Note_on_c, 0, 69, 0
1, 20751, Note_on_c, 0, 67, 83
1, 20801, Note_on_c, 0, 66, 0
1, 20991, Note_on_c, 0, 57, 0
1, 21000, Note_on_c, 0, 66, 80
1, 21056, Note_on_c, 0, 67, 0
1, 21081, Note_on_c, 0, 51, 0
1, 21217, Note_on_c, 0, 60, 0
1, 21246, Note_on_c, 0, 66, 0
1, 21246, Note_on_c, 0, 67, 85
1, 21474, Note_on_c, 0, 58, 53
1, 21487, Note_on_c, 0, 52, 77
1, 21496, Note_on_c, 0, 67, 0
1, 21529, Note_on_c, 0, 61, 65
1, 21544, Note_on_c, 0, 69, 73
1, 21593, Control_c, 0, 64, 0
1, 21720, Control_c, 0, 64, 127
1, 21760, Note_on_c, 0, 67, 75
1, 21777, Note_on_c, 0, 69, 0
1, 21870, Note_on_c, 0, 67, 0
1, 21884, Note_on_c, 0, 69, 74
1, 21982, Note_on_c, 0, 69, 0
1, 21991, Note_on_c, 0, 67, 81
1, 22073, Note_on_c, 0, 67, 0
1, 22077, Note_on_c, 0, 69, 90
1, 22154, Note_on_c, 0, 69, 0
1, 22172, Note_on_c, 0, 67, 92
1, 22242, Note_on_c, 0, 67, 0
1, 22274, Note_on_c, 0, 69, 89
1, 22344, Note_on_c, 0, 69, 0
1, 22354, Note_on_c, 0, 67, 89
1, 22424, Note_on_c, 0, 67, 0
1, 22450, Note_on_c, 0, 69, 89
1, 22520, Note_on_c, 0, 69, 0
1, 22530, Note_on_c, 0, 67, 72
1, 22786, Note_on_c, 0, 67, 0
1, 22970, Note_on_c, 0, 66, 74
1, 23215, Note_on_c, 0, 67, 73
1, 23266, Note_on_c, 0, 66, 0
1, 23273, Note_on_c, 0, 58, 0
1, 23298, Note_on_c, 0, 61, 0
1, 23370, Note_on_c, 0, 43, 0
1, 23446, Note_on_c, 0, 52, 0
1, 23449, Note_on_c, 0, 67, 0
1, 23530, Note_on_c, 0, 50, 58
1, 23569, Note_on_c, 0, 69, 64
1, 23624, Control_c, 0, 64, 0
1, 23893, Control_c, 0, 64, 127
1, 24401, Note_on_c, 0, 61, 60
1, 24401, Note_on_c, 0, 52, 65
1, 24996, Note_on_c, 0, 52, 0
1, 25086, Note_on_c, 0, 61, 0
1, 25095, Note_on_c, 0, 69, 0
1, 25112, Note_on_c, 0, 50, 0
1, 25383, Note_on_c, 0, 54, 56
1, 25387, Note_on_c, 0, 69, 71
1, 25408, Note_on_c, 0, 57, 59
1, 25409, Note_on_c, 0, 50, 61
1, 25409, Note_on_c, 0, 62, 64
1, 25497, Control_c, 0, 64, 0
1, 25699, Control_c, 0, 64, 127
1, 27376, Note_on_c, 0, 57, 0
1, 27394, Note_on_c, 0, 50, 0
1, 27397, Note_on_c, 0, 54, 0
1, 27401, Note_on_c, 0, 62, 0
1, 27431, Note_on_c, 0, 69, 0
1, 27892, Note_on_c, 0, 43, 69
1, 27946, Note_on_c, 0, 50, 78
1, 27984, Note_on_c, 0, 55, 74
1, 28053, Note_on_c, 0, 62, 63
1, 28057, Note_on_c, 0, 67, 78
1, 28142, Control_c, 0, 64, 0
1, 28185, Note_on_c, 0, 69, 83
1, 28231, Note_on_c, 0, 70, 80
1, 28296, Note_on_c, 0, 69, 0
1, 28315, Control_c, 0, 64, 127
1, 28994, Note_on_c, 0, 69, 92
1, 29170, Note_on_c, 0, 70, 0
1, 29199, Note_on_c, 0, 67, 0
1, 29320, Note_on_c, 0, 62, 0
1, 29336, Note_on_c, 0, 69, 0
1, 29429, Note_on_c, 0, 50, 0
1, 29619, Note_on_c, 0, 60, 56
1, 29643, Note_on_c, 0, 69, 74
1, 29670, Note_on_c, 0, 51, 65
1, 29723, Note_on_c, 0, 67, 92
1, 29736, Note_on_c, 0, 69, 0
1, 29776, Note_on_c, 0, 55, 0
1, 29803, Note_on_c, 0, 69, 84
1, 29827, Control_c, 0, 64, 0
1, 29840, Note_on_c, 0, 67, 0
1, 30000, Control_c, 0, 64, 127
1, 31049, Note_on_c, 0, 69, 0
1, 31135, Note_on_c, 0, 72, 83
1, 31310, Note_on_c, 0, 70, 93
1, 31353, Note_on_c, 0, 72, 0
1, 31482, Note_on_c, 0, 69, 77
1, 31508, Note_on_c, 0, 70, 0
1, 31650, Note_on_c, 0, 72, 82
1, 31689, Note_on_c, 0, 69, 0
1, 31806, Note_on_c, 0, 70, 94
1, 31821, Note_on_c, 0, 72, 0
1, 31983, Note_on_c, 0, 70, 0
1, 31987, Note_on_c, 0, 74, 80
1, 32052, Note_on_c, 0, 72, 91
1, 32065, Note_on_c, 0, 74, 0
1, 32121, Note_on_c, 0, 72, 0
1, 32178, Note_on_c, 0, 72, 101
1, 32284, Control_c, 0, 64, 0
1, 32413, Control_c, 0, 64, 127
1, 32617, Note_on_c, 0, 70, 82
1, 32675, Note_on_c, 0, 72, 0
1, 32834, Note_on_c, 0, 69, 87
1, 32896, Note_on_c, 0, 70, 0
1, 32938, Note_on_c, 0, 60, 0
1, 33041, Note_on_c, 0, 57, 71
1, 33075, Note_on_c, 0, 67, 87
1, 33080, Note_on_c, 0, 69, 0
1, 33085, Note_on_c, 0, 60, 67
1, 33145, Control_c, 0, 64, 0
1, 33328, Control_c, 0, 64, 127
1, 34044, Note_on_c, 0, 67, 0
1, 34189, Note_on_c, 0, 67, 95
1, 34296, Note_on_c, 0, 66, 68
1, 34315, Note_on_c, 0, 67, 0
1, 34404, Note_on_c, 0, 67, 79
1, 34416, Note_on_c, 0, 66, 0
1, 34488, Note_on_c, 0, 66, 79
1, 34495, Note_on_c, 0, 67, 0
1, 34562, Note_on_c, 0, 67, 84
1, 34648, Control_c, 0, 64, 0
1, 34657, Note_on_c, 0, 67, 0
1, 34885, Control_c, 0, 64, 127
1, 35501, Note_on_c, 0, 69, 71
1, 35653, Note_on_c, 0, 66, 0
1, 35659, Note_on_c, 0, 67, 77
1, 35699, Note_on_c, 0, 69, 0
1, 35753, Note_on_c, 0, 67, 0
1, 35796, Note_on_c, 0, 67, 92
1, 35950, Note_on_c, 0, 69, 98
1, 35986, Note_on_c, 0, 67, 0
1, 36097, Note_on_c, 0, 69, 0
1, 36098, Note_on_c, 0, 57, 0
1, 36114, Note_on_c, 0, 63, 104
1, 36115, Note_on_c, 0, 51, 0
1, 36177, Note_on_c, 0, 60, 0
1, 36404, Note_on_c, 0, 63, 0
1, 36570, Note_on_c, 0, 54, 65
1, 36577, Note_on_c, 0, 48, 79
1, 36581, Note_on_c, 0, 63, 85
1, 36587, Note_on_c, 0, 57, 75
1, 36594, Control_c, 0, 64, 0
1, 36829, Control_c, 0, 64, 127
1, 37721, Note_on_c, 0, 62, 82
1, 37763, Note_on_c, 0, 63, 0
1, 37890, Note_on_c, 0, 60, 88
1, 37919, Note_on_c, 0, 62, 0
1, 38042, Note_on_c, 0, 62, 108
1, 38092, Note_on_c, 0, 60, 0
1, 38149, Note_on_c, 0, 62, 0
1, 38272, Note_on_c, 0, 62, 109
1, 38400, Note_on_c, 0, 63, 86
1, 38417, Note_on_c, 0, 62, 0
1, 38495, Note_on_c, 0, 62, 76
1, 38509, Note_on_c, 0, 63, 0
1, 38580, Note_on_c, 0, 63, 111
1, 38604, Note_on_c, 0, 62, 0
1, 38666, Note_on_c, 0, 62, 92
1, 38674, Note_on_c, 0, 63, 0
1, 38734, Note_on_c, 0, 63, 100
1, 38754, Note_on_c, 0, 62, 0
1, 38817, Note_on_c, 0, 63, 0
1, 38821, Note_on_c, 0, 62, 84
1, 38881, Note_on_c, 0, 63, 82
1, 38926, Note_on_c, 0, 63, 0
1, 38986, Note_on_c, 0, 63, 86
1, 39002, Note_on_c, 0, 62, 0
1, 39069, Note_on_c, 0, 62, 84
1, 39102, Note_on_c, 0, 63, 0
1, 39565, Note_on_c, 0, 62, 0
1, 39710, Note_on_c, 0, 63, 86
1, 39720, Note_on_c, 0, 54, 0
1, 39774, Note_on_c, 0, 48, 0
1, 39819, Note_on_c, 0, 63, 0
1, 39863, Note_on_c, 0, 60, 103
1, 39882, Note_on_c, 0, 57, 0
1, 39950, Note_on_c, 0, 60, 0
1, 40009, Note_on_c, 0, 50, 75
1, 40031, Note_on_c, 0, 55, 64
1, 40058, Note_on_c, 0, 60, 77
1, 40138, Control_c, 0, 64, 0
1, 40194, Note_on_c, 0, 60, 0
1, 40200, Note_on_c, 0, 58, 69
1, 40295, Note_on_c, 0, 60, 74
1, 40299, Note_on_c, 0, 58, 0
1, 40316, Control_c, 0, 64, 127
1, 40371, Note_on_c, 0, 60, 0
1, 40378, Note_on_c, 0, 58, 77
1, 40453, Note_on_c, 0, 60, 99
1, 40464, Note_on_c, 0, 58, 0
1, 40520, Note_on_c, 0, 60, 0
1, 40525, Note_on_c, 0, 58, 78
1, 40577, Note_on_c, 0, 60, 99
1, 40586, Note_on_c, 0, 58, 0
1, 40622, Control_c, 0, 64, 0
1, 40645, Note_on_c, 0, 58, 78
1, 40673, Note_on_c, 0, 60, 0
1, 40842, Control_c, 0, 64, 127
1, 41453, Note_on_c, 0, 57, 81
1, 41460, Note_on_c, 0, 55, 0
1, 41530, Note_on_c, 0, 58, 0
1, 41738, Control_c, 0, 64, 0
1, 41875, Note_on_c, 0, 55, 69
1, 41931, Note_on_c, 0, 57, 0
1, 43153, Note_on_c, 0, 58, 82
1, 43154, Note_on_c, 0, 62, 100
1, 43343, Control_c, 0, 64, 127
1, 43742, Note_on_c, 0, 65, 97
1, 43800, Note_on_c, 0, 62, 0
1, 43998, Note_on_c, 0, 58, 0
1, 44033, Note_on_c, 0, 64, 92
1, 44074, Note_on_c, 0, 65, 0
1, 44233, Note_on_c, 0, 64, 0
1, 44256, Note_on_c, 0, 55, 0
1, 44302, Note_on_c, 0, 50, 0
1, 44352, Note_on_c, 0, 55, 60
1, 44363, Note_on_c, 0, 50, 89
1, 44418, Note_on_c, 0, 59, 76
1, 44427, Note_on_c, 0, 64, 84
1, 44558, Note_on_c, 0, 65, 92
1, 44623, Control_c, 0, 64, 0
1, 44642, Note_on_c, 0, 64, 0
1, 44785, Control_c, 0, 64, 127
1, 45759, Note_on_c, 0, 62, 92
1, 45837, Note_on_c, 0, 65, 0
1, 45849, Note_on_c, 0, 59, 0
1, 46042, Note_on_c, 0, 55, 0
1, 46073, Note_on_c, 0, 50, 0
1, 46132, Note_on_c, 0, 55, 78
1, 46144, Note_on_c, 0, 48, 71
1, 46228, Note_on_c, 0, 60, 84
1, 46229, Control_c, 0, 64, 0
1, 46251, Note_on_c, 0, 65, 95
1, 46255, Note_on_c, 0, 62, 0
1, 46420, Control_c, 0, 64, 127
1, 46482, Note_on_c, 0, 64, 100
1, 46522, Note_on_c, 0, 65, 0
1, 46654, Note_on_c, 0, 50, 80
1, 46675, Note_on_c, 0, 67, 127
1, 46712, Note_on_c, 0, 64, 0
1, 46872, Note_on_c, 0, 66, 127
1, 46920, Note_on_c, 0, 50, 0
1, 46920, Note_on_c, 0, 67, 0
1, 46985, Note_on_c, 0, 60, 0
1, 47054, Note_on_c, 0, 66, 0
1, 47241, Note_on_c, 0, 48, 0
1, 47261, Note_on_c, 0, 51, 72
1, 47281, Note_on_c, 0, 66, 85
1, 47297, Note_on_c, 0, 61, 71
1, 47304, Note_on_c, 0, 57, 77
1, 47340, Note_on_c, 0, 55, 0
1, 47422, Control_c, 0, 64, 0
1, 47434, Note_on_c, 0, 67, 97
1, 47473, Note_on_c, 0, 66, 0
1, 47596, Control_c, 0, 64, 127
1, 48845, Note_on_c, 0, 69, 90
1, 48909, Note_on_c, 0, 67, 0
1, 49272, Note_on_c, 0, 69, 0
1, 49294, Note_on_c, 0, 67, 91
1, 49394, Note_on_c, 0, 67, 0
1, 49396, Note_on_c, 0, 66, 87
1, 49690, Note_on_c, 0, 67, 102
1, 49768, Note_on_c, 0, 66, 0
1, 49898, Note_on_c, 0, 66, 88
1, 49950, Note_on_c, 0, 67, 0
1, 50152, Note_on_c, 0, 67, 88
1, 50193, Note_on_c, 0, 66, 0
1, 50274, Note_on_c, 0, 61, 0
1, 50284, Note_on_c, 0, 57, 0
1, 50331, Note_on_c, 0, 67, 0
1, 50332, Note_on_c, 0, 51, 0
1, 50501, Note_on_c, 0, 61, 70
1, 50522, Note_on_c, 0, 52, 59
1, 50537, Note_on_c, 0, 69, 98
1, 50544, Note_on_c, 0, 58, 72
1, 50617, Control_c, 0, 64, 0
1, 50749, Note_on_c, 0, 67, 91
1, 50768, Note_on_c, 0, 69, 0
1, 50779, Control_c, 0, 64, 127
1, 50852, Note_on_c, 0, 69, 92
1, 50861, Note_on_c, 0, 67, 0
1, 50958, Note_on_c, 0, 67, 87
1, 50965, Note_on_c, 0, 69, 0
1, 51041, Note_on_c, 0, 69, 102
1, 51054, Note_on_c, 0, 67, 0
1, 51124, Note_on_c, 0, 69, 0
1, 51136, Note_on_c, 0, 67, 92
1, 51211, Note_on_c, 0, 69, 86
1, 51221, Note_on_c, 0, 67, 0
1, 51273, Note_on_c, 0, 69, 0
1, 51319, Note_on_c, 0, 67, 72
1, 51458, Note_on_c, 0, 67, 0
1, 51476, Note_on_c, 0, 69, 47
1, 51555, Note_on_c, 0, 61, 0
1, 51571, Note_on_c, 0, 69, 0
1, 51583, Note_on_c, 0, 66, 98
1, 51764, Note_on_c, 0, 43, 0
1, 51771, Note_on_c, 0, 67, 82
1, 51825, Note_on_c, 0, 66, 0
1, 51900, Note_on_c, 0, 58, 0
1, 52031, Note_on_c, 0, 52, 0
1, 52032, Control_c, 0, 64, 0
1, 52062, Note_on_c, 0, 50, 53
1, 52068, Note_on_c, 0, 70, 67
1, 52138, Note_on_c, 0, 67, 0
1, 52209, Control_c, 0, 64, 127
1, 52348, Note_on_c, 0, 69, 82
1, 52383, Note_on_c, 0, 70, 0
1, 52993, Control_c, 0, 64, 0
1, 53016, Note_on_c, 0, 52, 66
1, 53028, Note_on_c, 0, 61, 71
1, 53177, Control_c, 0, 64, 127
1, 53763, Note_on_c, 0, 69, 0
1, 53773, Note_on_c, 0, 61, 0
1, 53804, Note_on_c, 0, 52, 0
1, 54111, Note_on_c, 0, 57, 55
1, 54112, Note_on_c, 0, 54, 61
1, 54121, Note_on_c, 0, 69, 72
1, 54125, Note_on_c, 0, 62, 69
1, 54148, Control_c, 0, 64, 0
1, 54319, Control_c, 0, 64, 127
1, 56017, Note_on_c, 0, 50, 0
1, 56021, Note_on_c, 0, 62, 0
1, 56077, Note_on_c, 0, 57, 0
1, 56078, Note_on_c, 0, 54, 0
1, 56175, Note_on_c, 0, 69, 0
1, 56559, Note_on_c, 0, 70, 84
1, 56564, Control_c, 0, 64, 0
1, 56577, Note_on_c, 0, 58, 64
1, 56591, Note_on_c, 0, 53, 72
1, 56591, Note_on_c, 0, 50, 72
1, 56592, Note_on_c, 0, 65, 79
1, 56716, Control_c, 0, 64, 127
1, 57155, Note_on_c, 0, 74, 92
1, 57263, Note_on_c, 0, 70, 0
1, 57356, Note_on_c, 0, 65, 0
1, 57464, Note_on_c, 0, 74, 0
1, 57711, Note_on_c, 0, 65, 66
1, 57755, Note_on_c, 0, 70, 67
1, 57841, Control_c, 0, 64, 0
1, 57860, Note_on_c, 0, 74, 79
1, 57962, Note_on_c, 0, 77, 95
1, 58012, Control_c, 0, 64, 127
1, 58971, Note_on_c, 0, 70, 0
1, 59164, Note_on_c, 0, 77, 0
1, 59435, Note_on_c, 0, 74, 0
1, 59443, Note_on_c, 0, 70, 85
1, 59552, Note_on_c, 0, 70, 0
1, 59768, Note_on_c, 0, 68, 81
1, 59887, Note_on_c, 0, 65, 0
1, 59978, Note_on_c, 0, 65, 82
1, 60186, Note_on_c, 0, 67, 94
1, 60205, Note_on_c, 0, 68, 0
1, 60232, Note_on_c, 0, 65, 0
1, 60387, Note_on_c, 0, 67, 0
1, 60429, Note_on_c, 0, 58, 0
1, 60501, Note_on_c, 0, 50, 0
1, 60669, Note_on_c, 0, 53, 0
1, 60717, Note_on_c, 0, 55, 46
1, 60724, Note_on_c, 0, 47, 75
1, 60748, Note_on_c, 0, 67, 78
1, 60748, Note_on_c, 0, 65, 79
1, 60754, Note_on_c, 0, 62, 70
1, 60766, Control_c, 0, 64, 0
1, 60940, Control_c, 0, 64, 127
1, 62195, Note_on_c, 0, 62, 0
1, 62249, Note_on_c, 0, 65, 0
1, 62268, Note_on_c, 0, 67, 0
1, 62693, Note_on_c, 0, 74, 86
1, 62766, Control_c, 0, 64, 0
1, 62930, Control_c, 0, 64, 127
1, 63236, Note_on_c, 0, 77, 89
1, 63665, Note_on_c, 0, 53, 66
1, 63692, Note_on_c, 0, 80, 88
1, 63721, Control_c, 0, 64, 0
1, 63747, Note_on_c, 0, 55, 0
1, 63770, Note_on_c, 0, 77, 0
1, 63870, Control_c, 0, 64, 127
1, 64714, Note_on_c, 0, 51, 67
1, 64745, Note_on_c, 0, 53, 0
1, 64748, Note_on_c, 0, 79, 84
1, 64779, Note_on_c, 0, 80, 0
1, 64814, Control_c, 0, 64, 0
1, 64970, Control_c, 0, 64, 127
1, 65277, Note_on_c, 0, 77, 67
1, 65281, Note_on_c, 0, 50, 67
1, 65381, Note_on_c, 0, 79, 0
1, 65389, Note_on_c, 0, 51, 0
1, 65573, Note_on_c, 0, 74, 0
1, 65583, Note_on_c, 0, 77, 0
1, 65587, Note_on_c, 0, 80, 75
1, 65727, Note_on_c, 0, 79, 75
1, 65764, Note_on_c, 0, 80, 0
1, 65929, Note_on_c, 0, 48, 72
1, 65932, Note_on_c, 0, 79, 0
1, 65957, Note_on_c, 0, 47, 0
1, 65959, Note_on_c, 0, 75, 70
1, 65979, Note_on_c, 0, 67, 77
1, 66018, Note_on_c, 0, 50, 0
1, 66075, Control_c, 0, 64, 0
1, 66249, Control_c, 0, 64, 127
1, 66896, Note_on_c, 0, 55, 74
1, 67115, Note_on_c, 0, 75, 0
1, 67130, Note_on_c, 0, 67, 0
1, 67193, Control_c, 0, 64, 0
1, 67368, Note_on_c, 0, 74, 82
1, 67375, Note_on_c, 0, 65, 72
1, 67376, Control_c, 0, 64, 127
1, 67690, Note_on_c, 0, 65, 0
1, 67732, Note_on_c, 0, 74, 0
1, 67937, Note_on_c, 0, 60, 61
1, 67955, Note_on_c, 0, 72, 77
1, 67961, Note_on_c, 0, 63, 68
1, 67982, Control_c, 0, 64, 0
1, 68027, Note_on_c, 0, 55, 0
1, 68189, Control_c, 0, 64, 127
1, 68648, Note_on_c, 0, 60, 0
1, 68651, Note_on_c, 0, 72, 0
1, 68679, Note_on_c, 0, 63, 0
1, 68760, Note_on_c, 0, 48, 0
1, 69133, Note_on_c, 0, 42, 71
1, 69155, Note_on_c, 0, 72, 94
1, 69167, Note_on_c, 0, 75, 87
1, 69176, Note_on_c, 0, 69, 92
1, 69225, Control_c, 0, 64, 0
1, 69374, Control_c, 0, 64, 127
1, 69639, Note_on_c, 0, 45, 84
1, 69996, Note_on_c, 0, 42, 0
1, 70002, Note_on_c, 0, 48, 86
1, 70019, Note_on_c, 0, 66, 76
1, 70028, Note_on_c, 0, 72, 0
1, 70039, Control_c, 0, 64, 0
1, 70057, Note_on_c, 0, 45, 0
1, 70173, Control_c, 0, 64, 127
1, 70377, Note_on_c, 0, 45, 86
1, 70427, Note_on_c, 0, 48, 0
1, 70612, Note_on_c, 0, 45, 0
1, 70663, Note_on_c, 0, 43, 71
1, 70705, Control_c, 0, 64, 0
1, 70733, Note_on_c, 0, 43, 0
1, 70749, Note_on_c, 0, 45, 73
1, 70813, Note_on_c, 0, 43, 106
1, 70834, Control_c, 0, 64, 127
1, 70851, Note_on_c, 0, 45, 0
1, 71163, Note_on_c, 0, 42, 88
1, 71179, Note_on_c, 0, 43, 0
1, 71288, Note_on_c, 0, 69, 0
1, 71498, Note_on_c, 0, 43, 77
1, 71508, Control_c, 0, 64, 0
1, 71531, Note_on_c, 0, 42, 0
1, 71532, Note_on_c, 0, 70, 77
1, 71536, Note_on_c, 0, 73, 82
1, 71582, Note_on_c, 0, 66, 0
1, 71655, Control_c, 0, 64, 127
1, 71919, Note_on_c, 0, 46, 88
1, 71969, Note_on_c, 0, 43, 0
1, 72145, Note_on_c, 0, 70, 0
1, 72283, Note_on_c, 0, 49, 73
1, 72290, Note_on_c, 0, 70, 79
1, 72299, Note_on_c, 0, 67, 80
1, 72318, Note_on_c, 0, 46, 0
1, 72349, Control_c, 0, 64, 0
1, 72408, Note_on_c, 0, 73, 0
1, 72528, Control_c, 0, 64, 127
1, 72700, Note_on_c, 0, 46, 82
1, 72751, Note_on_c, 0, 49, 0
1, 72923, Note_on_c, 0, 46, 0
1, 72959, Note_on_c, 0, 44, 81
1, 73028, Note_on_c, 0, 44, 0
1, 73031, Control_c, 0, 64, 0
1, 73048, Note_on_c, 0, 46, 76
1, 73096, Note_on_c, 0, 44, 94
1, 73130, Note_on_c, 0, 46, 0
1, 73155, Control_c, 0, 64, 127
1, 73391, Note_on_c, 0, 67, 0
1, 73436, Note_on_c, 0, 43, 90
1, 73471, Note_on_c, 0, 44, 0
1, 73759, Note_on_c, 0, 70, 0
1, 73788, Note_on_c, 0, 44, 84
1, 73817, Note_on_c, 0, 43, 0
1, 73853, Note_on_c, 0, 65, 84
1, 73858, Note_on_c, 0, 71, 91
1, 73868, Control_c, 0, 64, 0
1, 74010, Control_c, 0, 64, 127
1, 74274, Note_on_c, 0, 47, 93
1, 74330, Note_on_c, 0, 44, 0
1, 74447, Note_on_c, 0, 65, 0
1, 74657, Note_on_c, 0, 47, 0
1, 74685, Note_on_c, 0, 50, 70
1, 74736, Note_on_c, 0, 65, 83
1, 74745, Note_on_c, 0, 68, 84
1, 74756, Note_on_c, 0, 71, 0
1, 75080, Control_c, 0, 64, 0
1, 75214, Note_on_c, 0, 47, 91
1, 75215, Control_c, 0, 64, 127
1, 75255, Note_on_c, 0, 50, 0
1, 75676, Note_on_c, 0, 47, 0
1, 75694, Note_on_c, 0, 46, 72
1, 75705, Note_on_c, 0, 68, 0
1, 75737, Note_on_c, 0, 71, 74
1, 75746, Control_c, 0, 64, 0
1, 75774, Note_on_c, 0, 47, 92
1, 75796, Note_on_c, 0, 46, 0
1, 75856, Control_c, 0, 64, 127
1, 75884, Note_on_c, 0, 46, 78
1, 75917, Note_on_c, 0, 47, 0
1, 76043, Control_c, 0, 64, 0
1, 76193, Control_c, 0, 64, 127
1, 76326, Note_on_c, 0, 44, 81
1, 76364, Note_on_c, 0, 46, 0
1, 76763, Control_c, 0, 64, 0
1, 76827, Note_on_c, 0, 51, 71
1, 76872, Note_on_c, 0, 44, 0
1, 76916, Control_c, 0, 64, 127
1, 77427, Note_on_c, 0, 68, 74
1, 77474, Note_on_c, 0, 71, 0
1, 77905, Note_on_c, 0, 75, 0
1, 77906, Note_on_c, 0, 65, 0
1, 78124, Note_on_c, 0, 68, 0
1, 78163, Note_on_c, 0, 70, 64
1, 78170, Note_on_c, 0, 75, 70
1, 78177, Note_on_c, 0, 39, 58
1, 78191, Note_on_c, 0, 67, 66
1, 78210, Note_on_c, 0, 51, 0
1, 78293, Control_c, 0, 64, 0
1, 78465, Control_c, 0, 64, 127
1, 79133, Note_on_c, 0, 75, 0
1, 79247, Note_on_c, 0, 70, 0
1, 79319, Note_on_c, 0, 67, 0
1, 79393, Note_on_c, 0, 39, 0
1, 80289, Note_on_c, 0, 40, 74
1, 80306, Note_on_c, 0, 73, 98
1, 80369, Control_c, 0, 64, 0
1, 80511, Control_c, 0, 64, 127
1, 80838, Note_on_c, 0, 70, 76
1, 80884, Note_on_c, 0, 73, 0
1, 81298, Note_on_c, 0, 68, 89
1, 81313, Note_on_c, 0, 52, 65
1, 81324, Note_on_c, 0, 61, 62
1, 81398, Note_on_c, 0, 68, 0
1, 81434, Note_on_c, 0, 67, 69
1, 81561, Control_c, 0, 64, 0
1, 81756, Control_c, 0, 64, 127
1, 82570, Note_on_c, 0, 70, 0
1, 82810, Note_on_c, 0, 70, 83
1, 82859, Note_on_c, 0, 67, 0
1, 82983, Note_on_c, 0, 68, 71
1, 83000, Note_on_c, 0, 70, 0
1, 83182, Note_on_c, 0, 70, 78
1, 83209, Note_on_c, 0, 68, 0
1, 83227, Control_c, 0, 64, 0
1, 83356, Note_on_c, 0, 61, 0
1, 83372, Control_c, 0, 64, 127
1, 83662, Note_on_c, 0, 70, 0
1, 83756, Note_on_c, 0, 67, 93
1, 84095, Note_on_c, 0, 52, 0
1, 84315, Note_on_c, 0, 67, 0
1, 84402, Note_on_c, 0, 65, 74
1, 84406, Note_on_c, 0, 61, 58
1, 84416, Note_on_c, 0, 52, 66
1, 84618, Note_on_c, 0, 64, 83
1, 84666, Note_on_c, 0, 65, 0
1, 84679, Control_c, 0, 64, 0
1, 84717, Note_on_c, 0, 67, 44
1, 84892, Control_c, 0, 64, 127
1, 85485, Note_on_c, 0, 67, 0
1, 85753, Note_on_c, 0, 61, 0
1, 85762, Note_on_c, 0, 67, 75
1, 85768, Note_on_c, 0, 64, 0
1, 85936, Note_on_c, 0, 65, 73
1, 85961, Note_on_c, 0, 67, 0
1, 86074, Note_on_c, 0, 67, 99
1, 86103, Note_on_c, 0, 65, 0
1, 86131, Control_c, 0, 64, 0
1, 86313, Control_c, 0, 64, 127
1, 86432, Note_on_c, 0, 64, 94
1, 86503, Note_on_c, 0, 52, 0
1, 86823, Note_on_c, 0, 64, 0
1, 86910, Note_on_c, 0, 62, 70
1, 86919, Note_on_c, 0, 52, 70
1, 86935, Note_on_c, 0, 55, 67
1, 87036, Control_c, 0, 64, 0
1, 87070, Note_on_c, 0, 61, 81
1, 87114, Note_on_c, 0, 62, 0
1, 87269, Control_c, 0, 64, 127
1, 87873, Note_on_c, 0, 55, 0
1, 87898, Note_on_c, 0, 67, 0
1, 87903, Note_on_c, 0, 61, 0
1, 88445, Note_on_c, 0, 70, 99
1, 88593, Note_on_c, 0, 69, 99
1, 88628, Note_on_c, 0, 40, 0
1, 88633, Note_on_c, 0, 52, 0
1, 88647, Note_on_c, 0, 70, 0
1, 88752, Note_on_c, 0, 69, 0
1, 88815, Note_on_c, 0, 42, 74
1, 88849, Note_on_c, 0, 69, 106
1, 88864, Control_c, 0, 64, 0
1, 89019, Control_c, 0, 64, 127
1, 89213, Note_on_c, 0, 72, 88
1, 89239, Note_on_c, 0, 69, 0
1, 89316, Note_on_c, 0, 70, 79
1, 89359, Note_on_c, 0, 72, 0
1, 89432, Note_on_c, 0, 69, 67
1, 89460, Note_on_c, 0, 70, 0
1, 89561, Note_on_c, 0, 70, 91
1, 89720, Note_on_c, 0, 72, 91
1, 89748, Note_on_c, 0, 70, 0
1, 90109, Note_on_c, 0, 57, 76
1, 90119, Note_on_c, 0, 62, 83
1, 90635, Control_c, 0, 64, 0
1, 90768, Control_c, 0, 64, 127
1, 91559, Note_on_c, 0, 62, 0
1, 91581, Note_on_c, 0, 64, 74
1, 91625, Note_on_c, 0, 69, 0
1, 91701, Note_on_c, 0, 64, 0
1, 91731, Note_on_c, 0, 66, 102
1, 91789, Note_on_c, 0, 72, 0
1, 91841, Note_on_c, 0, 66, 0
1, 91946, Note_on_c, 0, 67, 79
1, 92085, Note_on_c, 0, 66, 68
1, 92088, Note_on_c, 0, 67, 0
1, 92202, Note_on_c, 0, 66, 0
1, 92203, Note_on_c, 0, 67, 74
1, 92280, Note_on_c, 0, 66, 79
1, 92294, Note_on_c, 0, 67, 0
1, 92373, Note_on_c, 0, 67, 88
1, 92387, Note_on_c, 0, 66, 0
1, 92451, Note_on_c, 0, 66, 77
1, 92452, Note_on_c, 0, 67, 0
1, 92535, Note_on_c, 0, 67, 88
1, 92544, Note_on_c, 0, 66, 0
1, 92600, Note_on_c, 0, 67, 0
1, 92616, Note_on_c, 0, 66, 71
1, 92680, Note_on_c, 0, 66, 0
1, 92681, Note_on_c, 0, 67, 74
1, 92764, Note_on_c, 0, 66, 85
1, 92795, Note_on_c, 0, 67, 0
1, 92914, Note_on_c, 0, 64, 73
1, 92923, Note_on_c, 0, 66, 0
1, 92932, Note_on_c, 0, 57, 0
1, 93056, Note_on_c, 0, 42, 0
1, 93066, Note_on_c, 0, 66, 78
1, 93091, Note_on_c, 0, 64, 0
1, 93228, Note_on_c, 0, 66, 0
1, 93427, Note_on_c, 0, 41, 53
1, 93476, Note_on_c, 0, 59, 66
1, 93520, Note_on_c, 0, 62, 71
1, 93621, Note_on_c, 0, 67, 77
1, 93656, Control_c, 0, 64, 0
1, 93847, Control_c, 0, 64, 127
1, 94009, Note_on_c, 0, 47, 86
1, 94321, Note_on_c, 0, 59, 0
1, 94391, Note_on_c, 0, 50, 73
1, 94424, Note_on_c, 0, 59, 72
1, 94440, Note_on_c, 0, 65, 82
1, 94459, Note_on_c, 0, 47, 0
1, 94484, Control_c, 0, 64, 0
1, 94603, Note_on_c, 0, 62, 0
1, 94633, Note_on_c, 0, 41, 0
1, 94637, Control_c, 0, 64, 127
1, 94849, Note_on_c, 0, 53, 86
1, 94889, Note_on_c, 0, 50, 0
1, 95193, Note_on_c, 0, 56, 82
1, 95229, Note_on_c, 0, 53, 0
1, 95586, Note_on_c, 0, 50, 80
1, 95625, Note_on_c, 0, 56, 0
1, 95787, Note_on_c, 0, 59, 0
1, 95964, Note_on_c, 0, 63, 83
1, 95970, Note_on_c, 0, 51, 76
1, 95974, Note_on_c, 0, 60, 78
1, 95989, Note_on_c, 0, 50, 0
1, 96004, Control_c, 0, 64, 0
1, 96050, Note_on_c, 0, 65, 0
1, 96176, Control_c, 0, 64, 127
1, 96368, Note_on_c, 0, 47, 95
1, 96401, Note_on_c, 0, 51, 0
1, 96583, Note_on_c, 0, 60, 0
1, 96705, Note_on_c, 0, 63, 0
1, 96746, Note_on_c, 0, 48, 82
1, 96752, Note_on_c, 0, 47, 0
1, 96794, Note_on_c, 0, 60, 82
1, 96801, Note_on_c, 0, 63, 72
1, 96822, Control_c, 0, 64, 0
1, 96984, Control_c, 0, 64, 127
1, 97164, Note_on_c, 0, 44, 100
1, 97268, Note_on_c, 0, 48, 0
1, 97590, Note_on_c, 0, 42, 90
1, 97643, Note_on_c, 0, 44, 0
1, 98128, Note_on_c, 0, 43, 86
1, 98157, Note_on_c, 0, 42, 0
1, 98244, Note_on_c, 0, 63, 0
1, 98269, Note_on_c, 0, 60, 0
1, 98729, Note_on_c, 0, 37, 76
1, 98740, Note_on_c, 0, 64, 79
1, 98755, Note_on_c, 0, 58, 70
1, 98789, Note_on_c, 0, 43, 0
1, 98802, Control_c, 0, 64, 0
1, 98945, Control_c, 0, 64, 127
1, 99261, Note_on_c, 0, 64, 0
1, 99261, Note_on_c, 0, 67, 0
1, 99536, Note_on_c, 0, 69, 76
1, 99580, Note_on_c, 0, 58, 0
1, 99804, Note_on_c, 0, 69, 0
1, 99830, Note_on_c, 0, 70, 71
1, 100086, Note_on_c, 0, 67, 86
1, 100146, Note_on_c, 0, 70, 0
1, 100236, Note_on_c, 0, 37, 0
1, 100334, Note_on_c, 0, 38, 77
1, 100366, Note_on_c, 0, 67, 0
1, 100380, Note_on_c, 0, 66, 68
1, 100446, Control_c, 0, 64, 0
1, 100560, Control_c, 0, 64, 127
1, 100626, Note_on_c, 0, 67, 84
1, 100649, Note_on_c, 0, 66, 0
1, 100840, Note_on_c, 0, 61, 78
1, 100880, Note_on_c, 0, 67, 0
1, 101065, Note_on_c, 0, 70, 74
1, 101162, Note_on_c, 0, 61, 0
1, 101389, Note_on_c, 0, 50, 57
1, 101412, Note_on_c, 0, 60, 74
1, 101416, Note_on_c, 0, 62, 69
1, 101422, Note_on_c, 0, 70, 0
1, 101422, Note_on_c, 0, 67, 84
1, 101496, Control_c, 0, 64, 0
1, 101619, Control_c, 0, 64, 127
1, 102124, Note_on_c, 0, 67, 0
1, 102146, Note_on_c, 0, 69, 88
1, 102310, Note_on_c, 0, 38, 0
1, 102363, Note_on_c, 0, 66, 100
1, 102368, Note_on_c, 0, 69, 0
1, 102443, Note_on_c, 0, 62, 0
1, 102450, Note_on_c, 0, 66, 0
1, 102452, Note_on_c, 0, 60, 0
1, 102650, Note_on_c, 0, 43, 80
1, 102731, Note_on_c, 0, 60, 81
1, 102734, Note_on_c, 0, 62, 70
1, 102743, Note_on_c, 0, 50, 0
1, 102743, Note_on_c, 0, 67, 78
1, 102838, Control_c, 0, 64, 0
1, 103030, Control_c, 0, 64, 127
1, 103404, Note_on_c, 0, 57, 68
1, 103478, Note_on_c, 0, 60, 0
1, 103748, Note_on_c, 0, 62, 0
1, 104103, Note_on_c, 0, 67, 0
1, 104153, Note_on_c, 0, 55, 64
1, 104184, Note_on_c, 0, 58, 67
1, 104186, Note_on_c, 0, 67, 89
1, 104192, Note_on_c, 0, 62, 81
1, 104231, Note_on_c, 0, 57, 0
1, 104247, Control_c, 0, 64, 0
1, 104480, Control_c, 0, 64, 127
1, 106243, Note_on_c, 0, 62, 0
1, 106249, Note_on_c, 0, 58, 0
1, 106452, Note_on_c, 0, 43, 0
1, 106545, Note_on_c, 0, 55, 0
1, 106586, Note_on_c, 0, 67, 0
1, 106981, Note_on_c, 0, 58, 67
1, 106986, Note_on_c, 0, 53, 75
1, 106997, Note_on_c, 0, 70, 84
1, 106998, Note_on_c, 0, 65, 89
1, 107002, Note_on_c, 0, 50, 67
1, 107029, Control_c, 0, 64, 0
1, 107205, Control_c, 0, 64, 127
1, 107545, Note_on_c, 0, 74, 95
1, 107651, Note_on_c, 0, 70, 0
1, 107718, Note_on_c, 0, 65, 0
1, 107795, Note_on_c, 0, 74, 0
1, 108020, Note_on_c, 0, 65, 65
1, 108083, Note_on_c, 0, 70, 64
1, 108151, Note_on_c, 0, 74, 95
1, 108168, Control_c, 0, 64, 0
1, 108229, Note_on_c, 0, 77, 95
1, 108309, Control_c, 0, 64, 127
1, 108949, Note_on_c, 0, 65, 0
1, 109014, Note_on_c, 0, 70, 0
1, 109063, Note_on_c, 0, 74, 0
1, 109075, Note_on_c, 0, 77, 0
1, 109256, Note_on_c, 0, 79, 119
1, 109473, Note_on_c, 0, 77, 94
1, 109488, Note_on_c, 0, 79, 0
1, 109641, Note_on_c, 0, 75, 92
1, 109702, Note_on_c, 0, 77, 0
1, 109799, Note_on_c, 0, 74, 94
1, 109840, Note_on_c, 0, 75, 0
1, 109949, Note_on_c, 0, 72, 86
1, 109954, Note_on_c, 0, 74, 0
1, 110077, Note_on_c, 0, 72, 0
1, 110111, Note_on_c, 0, 70, 89
1, 110208, Note_on_c, 0, 68, 89
1, 110214, Note_on_c, 0, 70, 0
1, 110286, Note_on_c, 0, 70, 89
1, 110314, Note_on_c, 0, 68, 0
1, 110367, Note_on_c, 0, 67, 89
1, 110372, Note_on_c, 0, 70, 0
1, 110481, Note_on_c, 0, 68, 94
1, 110484, Note_on_c, 0, 67, 0
1, 110499, Control_c, 0, 64, 0
1, 110598, Control_c, 0, 64, 127
1, 110639, Note_on_c, 0, 65, 101
1, 110683, Note_on_c, 0, 68, 0
1, 110786, Note_on_c, 0, 67, 102
1, 110813, Note_on_c, 0, 65, 0
1, 110853, Note_on_c, 0, 58, 0
1, 110922, Note_on_c, 0, 53, 0
1, 110973, Note_on_c, 0, 67, 0
1, 110997, Note_on_c, 0, 50, 0
1, 111207, Note_on_c, 0, 47, 69
1, 111217, Note_on_c, 0, 55, 71
1, 111236, Note_on_c, 0, 62, 83
1, 111236, Note_on_c, 0, 67, 80
1, 111237, Note_on_c, 0, 65, 82
1, 111276, Control_c, 0, 64, 0
1, 111429, Control_c, 0, 64, 127
1, 112314, Note_on_c, 0, 65, 0
1, 112324, Note_on_c, 0, 62, 0
1, 112354, Note_on_c, 0, 67, 0
1, 112941, Note_on_c, 0, 74, 97
1, 113264, Note_on_c, 0, 72, 86
1, 113380, Note_on_c, 0, 74, 0
1, 113510, Note_on_c, 0, 72, 0
1, 113514, Note_on_c, 0, 71, 100
1, 113658, Note_on_c, 0, 71, 0
1, 113751, Note_on_c, 0, 74, 91
1, 113848, Note_on_c, 0, 77, 82
1, 113875, Note_on_c, 0, 74, 0
1, 113953, Note_on_c, 0, 80, 84
1, 113956, Note_on_c, 0, 53, 73
1, 113989, Note_on_c, 0, 55, 0
1, 114001, Note_on_c, 0, 77, 0
1, 114026, Control_c, 0, 64, 0
1, 114162, Control_c, 0, 64, 127
1, 114657, Note_on_c, 0, 80, 0
1, 114831, Note_on_c, 0, 53, 0
1, 114983, Note_on_c, 0, 51, 71
1, 115023, Note_on_c, 0, 80, 93
1, 115208, Note_on_c, 0, 53, 65
1, 115227, Note_on_c, 0, 79, 99
1, 115233, Note_on_c, 0, 51, 0
1, 115247, Note_on_c, 0, 80, 0
1, 115319, Note_on_c, 0, 80, 84
1, 115323, Note_on_c, 0, 51, 73
1, 115329, Note_on_c, 0, 79, 0
1, 115335, Note_on_c, 0, 53, 0
1, 115396, Note_on_c, 0, 79, 78
1, 115401, Note_on_c, 0, 80, 0
1, 115416, Note_on_c, 0, 53, 76
1, 115423, Note_on_c, 0, 51, 0
1, 115456, Note_on_c, 0, 80, 79
1, 115468, Note_on_c, 0, 79, 0
1, 115494, Note_on_c, 0, 51, 79
1, 115499, Note_on_c, 0, 79, 84
1, 115523, Note_on_c, 0, 53, 0
1, 115528, Note_on_c, 0, 80, 0
1, 115617, Control_c, 0, 64, 0
1, 115749, Control_c, 0, 64, 127
1, 116212, Note_on_c, 0, 50, 68
1, 116220, Note_on_c, 0, 77, 87
1, 116260, Note_on_c, 0, 79, 0
1, 116272, Note_on_c, 0, 51, 0
1, 116479, Note_on_c, 0, 77, 0
1, 116500, Note_on_c, 0, 79, 71
1, 116571, Note_on_c, 0, 80, 86
1, 116595, Note_on_c, 0, 79, 0
1, 116640, Note_on_c, 0, 79, 80
1, 116697, Note_on_c, 0, 80, 0
1, 116854, Note_on_c, 0, 77, 89
1, 116865, Note_on_c, 0, 79, 0
1, 116950, Note_on_c, 0, 77, 0
1, 117025, Note_on_c, 0, 47, 0
1, 117222, Note_on_c, 0, 77, 71
1, 117223, Note_on_c, 0, 67, 91
1, 117235, Note_on_c, 0, 48, 53
1, 117266, Note_on_c, 0, 50, 0
1, 117359, Note_on_c, 0, 75, 83
1, 117399, Control_c, 0, 64, 0
1, 117426, Note_on_c, 0, 77, 0
1, 117569, Control_c, 0, 64, 127
1, 118132, Note_on_c, 0, 55, 72
1, 118325, Note_on_c, 0, 75, 0
1, 118451, Note_on_c, 0, 67, 0
1, 118583, Note_on_c, 0, 74, 88
1, 118595, Note_on_c, 0, 65, 82
1, 118773, Note_on_c, 0, 74, 0
1, 119010, Control_c, 0, 64, 0
1, 119031, Note_on_c, 0, 72, 61
1, 119051, Note_on_c, 0, 65, 0
1, 119071, Note_on_c, 0, 60, 75
1, 119075, Note_on_c, 0, 63, 71
1, 119116, Note_on_c, 0, 55, 0
1, 119164, Control_c, 0, 64, 127
1, 119498, Note_on_c, 0, 63, 0
1, 119613, Note_on_c, 0, 72, 0
1, 119654, Note_on_c, 0, 60, 0
1, 119752, Note_on_c, 0, 48, 0
1, 120140, Note_on_c, 0, 42, 79
1, 120181, Note_on_c, 0, 72, 91
1, 120185, Note_on_c, 0, 75, 91
1, 120192, Note_on_c, 0, 69, 92
1, 120208, Control_c, 0, 64, 0
1, 120365, Control_c, 0, 64, 127
1, 120600, Note_on_c, 0, 45, 82
1, 120688, Note_on_c, 0, 69, 0
1, 120907, Note_on_c, 0, 42, 0
1, 120953, Note_on_c, 0, 72, 0
1, 121024, Note_on_c, 0, 48, 76
1, 121061, Note_on_c, 0, 66, 71
1, 121065, Note_on_c, 0, 45, 0
1, 121065, Note_on_c, 0, 69, 82
1, 121242, Control_c, 0, 64, 0
1, 121349, Control_c, 0, 64, 127
1, 121428, Note_on_c, 0, 51, 85
1, 121469, Note_on_c, 0, 48, 0
1, 121686, Note_on_c, 0, 50, 86
1, 121731, Note_on_c, 0, 51, 0
1, 121917, Note_on_c, 0, 48, 77
1, 121963, Note_on_c, 0, 50, 0
1, 122149, Note_on_c, 0, 46, 82
1, 122196, Note_on_c, 0, 48, 0
1, 122359, Note_on_c, 0, 45, 91
1, 122428, Note_on_c, 0, 46, 0
1, 122562, Note_on_c, 0, 43, 95
1, 122610, Note_on_c, 0, 45, 0
1, 122761, Note_on_c, 0, 66, 0
1, 122770, Note_on_c, 0, 43, 0
1, 122774, Note_on_c, 0, 69, 0
1, 122805, Note_on_c, 0, 45, 79
1, 122923, Note_on_c, 0, 42, 86
1, 122981, Note_on_c, 0, 45, 0
1, 123212, Note_on_c, 0, 43, 74
1, 123219, Note_on_c, 0, 70, 81
1, 123223, Note_on_c, 0, 73, 78
1, 123228, Note_on_c, 0, 42, 0
1, 123252, Control_c, 0, 64, 0
1, 123425, Control_c, 0, 64, 127
1, 123632, Note_on_c, 0, 46, 111
1, 123756, Note_on_c, 0, 43, 0
1, 123844, Note_on_c, 0, 70, 0
1, 123969, Note_on_c, 0, 49, 74
1, 123979, Note_on_c, 0, 46, 0
1, 123991, Note_on_c, 0, 70, 80
1, 124003, Note_on_c, 0, 67, 80
1, 124047, Control_c, 0, 64, 0
1, 124119, Control_c, 0, 64, 127
1, 124279, Note_on_c, 0, 48, 69
1, 124328, Note_on_c, 0, 49, 0
1, 124554, Note_on_c, 0, 49, 83
1, 124620, Note_on_c, 0, 48, 0
1, 124804, Note_on_c, 0, 53, 94
1, 124869, Note_on_c, 0, 49, 0
1, 125080, Note_on_c, 0, 51, 86
1, 125125, Note_on_c, 0, 53, 0
1, 125395, Note_on_c, 0, 49, 82
1, 125441, Note_on_c, 0, 51, 0
1, 125668, Note_on_c, 0, 48, 87
1, 125690, Note_on_c, 0, 49, 0
1, 125879, Note_on_c, 0, 46, 71
1, 125919, Note_on_c, 0, 48, 0
1, 126071, Note_on_c, 0, 46, 0
1, 126093, Note_on_c, 0, 44, 100
1, 126260, Note_on_c, 0, 44, 0
1, 126288, Note_on_c, 0, 46, 99
1, 126295, Note_on_c, 0, 73, 0
1, 126324, Note_on_c, 0, 67, 0
1, 126409, Note_on_c, 0, 43, 89
1, 126468, Note_on_c, 0, 46, 0
1, 126524, Note_on_c, 0, 70, 0
1, 126690, Note_on_c, 0, 44, 85
1, 126695, Note_on_c, 0, 71, 81
1, 126700, Note_on_c, 0, 65, 82
1, 126735, Note_on_c, 0, 43, 0
1, 126785, Control_c, 0, 64, 0
1, 126939, Control_c, 0, 64, 127
1, 127201, Note_on_c, 0, 46, 78
1, 127441, Note_on_c, 0, 44, 0
1, 127489, Note_on_c, 0, 47, 78
1, 127513, Note_on_c, 0, 46, 0
1, 127780, Note_on_c, 0, 50, 81
1, 127847, Note_on_c, 0, 47, 0
1, 128141, Note_on_c, 0, 53, 71
1, 128164, Note_on_c, 0, 68, 72
1, 128176, Note_on_c, 0, 50, 0
1, 128224, Note_on_c, 0, 71, 0
1, 128460, Note_on_c, 0, 51, 82
1, 128489, Note_on_c, 0, 53, 0
1, 128581, Control_c, 0, 64, 0
1, 128607, Note_on_c, 0, 50, 84
1, 128656, Note_on_c, 0, 51, 0
1, 128765, Note_on_c, 0, 53, 89
1, 128789, Note_on_c, 0, 50, 0
1, 129074, Note_on_c, 0, 50, 86
1, 129120, Note_on_c, 0, 53, 0
1, 129481, Note_on_c, 0, 47, 84
1, 129482, Note_on_c, 0, 70, 86
1, 129501, Note_on_c, 0, 50, 0
1, 129592, Control_c, 0, 64, 127
1, 129639, Note_on_c, 0, 68, 0
1, 130169, Note_on_c, 0, 70, 0
1, 130215, Note_on_c, 0, 46, 71
1, 130246, Note_on_c, 0, 47, 0
1, 130283, Note_on_c, 0, 71, 86
1, 130598, Note_on_c, 0, 46, 0
1, 130602, Note_on_c, 0, 47, 80
1, 130757, Note_on_c, 0, 44, 91
1, 130793, Note_on_c, 0, 47, 0
1, 130799, Note_on_c, 0, 71, 0
1, 130930, Note_on_c, 0, 71, 50
1, 131047, Note_on_c, 0, 51, 82
1, 131092, Control_c, 0, 64, 0
1, 131112, Note_on_c, 0, 44, 0
1, 131227, Control_c, 0, 64, 127
1, 131692, Note_on_c, 0, 68, 74
1, 131789, Note_on_c, 0, 71, 0
1, 132181, Note_on_c, 0, 65, 0
1, 132285, Note_on_c, 0, 75, 0
1, 132487, Note_on_c, 0, 39, 64
1, 132512, Note_on_c, 0, 68, 0
1, 132530, Note_on_c, 0, 70, 65
1, 132534, Note_on_c, 0, 67, 74
1, 132547, Note_on_c, 0, 75, 89
1, 132636, Control_c, 0, 64, 0
1, 132656, Note_on_c, 0, 51, 0
1, 132857, Control_c, 0, 64, 127
1, 134108, Note_on_c, 0, 67, 0
1, 134134, Note_on_c, 0, 70, 0
1, 134228, Note_on_c, 0, 75, 0
1, 134250, Note_on_c, 0, 39, 0
1, 134535, Note_on_c, 0, 40, 71
1, 134544, Note_on_c, 0, 73, 87
1, 134561, Control_c, 0, 64, 0
1, 134699, Control_c, 0, 64, 127
1, 135061, Note_on_c, 0, 71, 92
1, 135065, Note_on_c, 0, 73, 0
1, 135350, Note_on_c, 0, 71, 0
1, 135386, Note_on_c, 0, 70, 117
1, 135770, Note_on_c, 0, 52, 71
1, 135799, Note_on_c, 0, 61, 68
1, 135800, Note_on_c, 0, 68, 62
1, 135911, Control_c, 0, 64, 0
1, 135940, Note_on_c, 0, 67, 90
1, 135974, Note_on_c, 0, 68, 0
1, 136075, Control_c, 0, 64, 127
1, 136658, Note_on_c, 0, 67, 0
1, 136843, Note_on_c, 0, 67, 91
1, 137047, Note_on_c, 0, 68, 85
1, 137075, Note_on_c, 0, 70, 0
1, 137095, Note_on_c, 0, 61, 0
1, 137100, Note_on_c, 0, 67, 0
1, 137153, Note_on_c, 0, 68, 0
1, 137272, Note_on_c, 0, 70, 102
1, 137397, Note_on_c, 0, 70, 0
1, 137433, Note_on_c, 0, 68, 55
1, 137493, Note_on_c, 0, 68, 0
1, 137504, Note_on_c, 0, 70, 72
1, 137540, Note_on_c, 0, 70, 0
1, 137558, Note_on_c, 0, 68, 77
1, 137624, Note_on_c, 0, 70, 104
1, 137644, Note_on_c, 0, 68, 0
1, 137723, Note_on_c, 0, 68, 83
1, 137759, Note_on_c, 0, 70, 0
1, 137830, Note_on_c, 0, 68, 0
1, 137873, Note_on_c, 0, 67, 73
1, 138040, Note_on_c, 0, 68, 84
1, 138080, Note_on_c, 0, 67, 0
1, 138260, Note_on_c, 0, 70, 89
1, 138294, Note_on_c, 0, 68, 0
1, 138311, Note_on_c, 0, 52, 0
1, 138465, Note_on_c, 0, 68, 74
1, 138500, Note_on_c, 0, 70, 0
1, 138593, Note_on_c, 0, 68, 0
1, 138606, Note_on_c, 0, 67, 69
1, 138706, Note_on_c, 0, 68, 95
1, 138735, Note_on_c, 0, 67, 0
1, 138835, Note_on_c, 0, 68, 0
1, 138888, Note_on_c, 0, 67, 80
1, 138968, Note_on_c, 0, 65, 85
1, 139096, Note_on_c, 0, 65, 0
1, 139200, Note_on_c, 0, 52, 68
1, 139223, Note_on_c, 0, 65, 81
1, 139227, Note_on_c, 0, 61, 66
1, 139345, Control_c, 0, 64, 0
1, 139391, Note_on_c, 0, 64, 90
1, 139422, Note_on_c, 0, 65, 0
1, 139495, Control_c, 0, 64, 127
1, 140793, Note_on_c, 0, 67, 79
1, 140834, Note_on_c, 0, 64, 0
1, 140858, Note_on_c, 0, 67, 0
1, 140971, Note_on_c, 0, 65, 86
1, 141024, Note_on_c, 0, 67, 0
1, 141154, Note_on_c, 0, 61, 0
1, 141241, Note_on_c, 0, 69, 99
1, 141287, Note_on_c, 0, 65, 0
1, 141360, Note_on_c, 0, 67, 86
1, 141397, Note_on_c, 0, 69, 0
1, 141466, Note_on_c, 0, 67, 0
1, 141506, Note_on_c, 0, 67, 117
1, 141653, Note_on_c, 0, 69, 97
1, 141683, Note_on_c, 0, 67, 0
1, 141742, Note_on_c, 0, 70, 102
1, 141768, Note_on_c, 0, 69, 0
1, 141838, Note_on_c, 0, 69, 102
1, 141863, Note_on_c, 0, 70, 0
1, 141908, Note_on_c, 0, 67, 76
1, 141915, Note_on_c, 0, 69, 0
1, 141992, Note_on_c, 0, 65, 109
1, 142015, Note_on_c, 0, 67, 0
1, 142092, Note_on_c, 0, 64, 90
1, 142120, Note_on_c, 0, 65, 0
1, 142266, Note_on_c, 0, 65, 108
1, 142291, Note_on_c, 0, 64, 0
1, 142362, Note_on_c, 0, 67, 91
1, 142393, Note_on_c, 0, 65, 0
1, 142453, Note_on_c, 0, 52, 0
1, 142553, Note_on_c, 0, 55, 82
1, 142554, Note_on_c, 0, 62, 94
1, 142559, Note_on_c, 0, 52, 78
1, 142563, Note_on_c, 0, 67, 0
1, 142635, Control_c, 0, 64, 0
1, 142689, Note_on_c, 0, 61, 88
1, 142753, Note_on_c, 0, 62, 0
1, 142770, Control_c, 0, 64, 127
1, 143522, Note_on_c, 0, 55, 0
1, 143610, Note_on_c, 0, 61, 0
1, 143826, Note_on_c, 0, 64, 91
1, 144128, Note_on_c, 0, 67, 117
1, 144203, Note_on_c, 0, 64, 0
1, 144419, Note_on_c, 0, 70, 104
1, 144491, Note_on_c, 0, 67, 0
1, 144565, Note_on_c, 0, 69, 94
1, 144612, Note_on_c, 0, 70, 0
1, 144676, Note_on_c, 0, 40, 0
1, 144712, Note_on_c, 0, 69, 0
1, 144778, Note_on_c, 0, 52, 0
1, 144799, Note_on_c, 0, 42, 89
1, 144841, Control_c, 0, 64, 0
1, 144864, Note_on_c, 0, 69, 127
1, 144994, Control_c, 0, 64, 127
1, 145130, Note_on_c, 0, 72, 97
1, 145165, Note_on_c, 0, 69, 0
1, 145230, Note_on_c, 0, 72, 0
1, 145241, Note_on_c, 0, 70, 80
1, 145368, Note_on_c, 0, 69, 87
1, 145402, Note_on_c, 0, 70, 0
1, 145494, Note_on_c, 0, 70, 92
1, 145584, Note_on_c, 0, 72, 81
1, 145596, Note_on_c, 0, 70, 0
1, 145788, Control_c, 0, 64, 0
1, 145809, Note_on_c, 0, 57, 83
1, 145812, Note_on_c, 0, 62, 92
1, 145838, Control_c, 0, 64, 127
1, 146401, Note_on_c, 0, 62, 0
1, 146638, Note_on_c, 0, 62, 94
1, 146801, Note_on_c, 0, 64, 92
1, 146835, Note_on_c, 0, 62, 0
1, 146950, Note_on_c, 0, 66, 104
1, 146991, Note_on_c, 0, 64, 0
1, 147042, Note_on_c, 0, 72, 0
1, 147085, Note_on_c, 0, 66, 0
1, 147115, Note_on_c, 0, 67, 88
1, 147194, Note_on_c, 0, 69, 0
1, 147252, Note_on_c, 0, 66, 104
1, 147263, Note_on_c, 0, 67, 0
1, 147364, Note_on_c, 0, 66, 0
1, 147365, Note_on_c, 0, 67, 68
1, 147433, Note_on_c, 0, 66, 92
1, 147454, Note_on_c, 0, 67, 0
1, 147537, Note_on_c, 0, 66, 0
1, 147547, Note_on_c, 0, 67, 64
1, 147602, Note_on_c, 0, 66, 92
1, 147636, Note_on_c, 0, 67, 0
1, 147699, Note_on_c, 0, 67, 73
1, 147702, Note_on_c, 0, 66, 0
1, 147775, Note_on_c, 0, 66, 91
1, 147799, Note_on_c, 0, 67, 0
1, 147843, Note_on_c, 0, 66, 0
1, 147861, Note_on_c, 0, 67, 89
1, 147929, Note_on_c, 0, 66, 59
1, 147941, Note_on_c, 0, 67, 0
1, 148002, Note_on_c, 0, 67, 89
1, 148004, Note_on_c, 0, 66, 0
1, 148052, Note_on_c, 0, 67, 0
1, 148079, Note_on_c, 0, 66, 91
1, 148308, Note_on_c, 0, 64, 81
1, 148350, Note_on_c, 0, 66, 0
1, 148428, Note_on_c, 0, 57, 0
1, 148478, Note_on_c, 0, 66, 103
1, 148505, Note_on_c, 0, 42, 0
1, 148523, Note_on_c, 0, 64, 0
1, 148594, Note_on_c, 0, 66, 0
1, 148735, Note_on_c, 0, 41, 68
1, 148785, Note_on_c, 0, 62, 73
1, 148793, Note_on_c, 0, 59, 71
1, 148836, Note_on_c, 0, 67, 91
1, 148846, Control_c, 0, 64, 0
1, 149036, Control_c, 0, 64, 127
1, 149215, Note_on_c, 0, 41, 0
1, 149265, Note_on_c, 0, 47, 85
1, 149453, Note_on_c, 0, 59, 0
1, 149686, Note_on_c, 0, 50, 86
1, 149728, Note_on_c, 0, 65, 82
1, 149731, Note_on_c, 0, 59, 77
1, 149759, Note_on_c, 0, 47, 0
1, 149784, Note_on_c, 0, 62, 0
1, 149843, Control_c, 0, 64, 0
1, 149988, Control_c, 0, 64, 127
1, 150113, Note_on_c, 0, 53, 76
1, 150150, Note_on_c, 0, 50, 0
1, 150452, Note_on_c, 0, 56, 94
1, 150486, Note_on_c, 0, 53, 0
1, 150662, Note_on_c, 0, 55, 84
1, 150675, Note_on_c, 0, 56, 0
1, 150789, Note_on_c, 0, 53, 91
1, 150820, Note_on_c, 0, 55, 0
1, 150901, Note_on_c, 0, 51, 88
1, 150947, Note_on_c, 0, 53, 0
1, 151036, Note_on_c, 0, 53, 84
1, 151057, Note_on_c, 0, 51, 0
1, 151177, Note_on_c, 0, 50, 102
1, 151218, Note_on_c, 0, 53, 0
1, 151275, Note_on_c, 0, 59, 0
1, 151482, Note_on_c, 0, 65, 0
1, 151489, Note_on_c, 0, 51, 82
1, 151495, Note_on_c, 0, 50, 0
1, 151501, Control_c, 0, 64, 0
1, 151522, Note_on_c, 0, 63, 109
1, 151523, Note_on_c, 0, 60, 86
1, 151793, Note_on_c, 0, 50, 91
1, 151851, Note_on_c, 0, 51, 0
1, 151983, Note_on_c, 0, 48, 100
1, 152022, Note_on_c, 0, 50, 0
1, 152190, Note_on_c, 0, 50, 98
1, 152202, Note_on_c, 0, 48, 0
1, 152299, Note_on_c, 0, 63, 0
1, 152305, Note_on_c, 0, 47, 108
1, 152346, Note_on_c, 0, 50, 0
1, 152372, Note_on_c, 0, 60, 0
1, 152461, Note_on_c, 0, 48, 99
1, 152473, Note_on_c, 0, 63, 78
1, 152477, Note_on_c, 0, 60, 84
1, 152516, Note_on_c, 0, 47, 0
1, 152625, Control_c, 0, 64, 127
1, 152757, Note_on_c, 0, 51, 113
1, 152780, Note_on_c, 0, 48, 0
1, 152936, Note_on_c, 0, 51, 0
1, 152965, Note_on_c, 0, 50, 71
1, 153165, Note_on_c, 0, 48, 97
1, 153189, Note_on_c, 0, 50, 0
1, 153357, Note_on_c, 0, 48, 0
1, 153503, Note_on_c, 0, 46, 106
1, 153687, Note_on_c, 0, 44, 86
1, 153729, Note_on_c, 0, 46, 0
1, 153862, Note_on_c, 0, 46, 117
1, 153885, Note_on_c, 0, 44, 0
1, 153997, Note_on_c, 0, 43, 92
1, 154036, Note_on_c, 0, 46, 0
1, 154132, Note_on_c, 0, 44, 117
1, 154151, Control_c, 0, 64, 0
1, 154167, Note_on_c, 0, 43, 0
1, 154248, Control_c, 0, 64, 127
1, 154260, Note_on_c, 0, 42, 78
1, 154308, Note_on_c, 0, 44, 0
1, 154449, Note_on_c, 0, 43, 94
1, 154460, Note_on_c, 0, 42, 0
1, 154617, Note_on_c, 0, 60, 0
1, 154664, Note_on_c, 0, 63, 0
1, 155052, Note_on_c, 0, 43, 0
1, 155062, Note_on_c, 0, 37, 91
1, 155078, Note_on_c, 0, 64, 84
1, 155093, Note_on_c, 0, 58, 74
1, 155115, Control_c, 0, 64, 0
1, 155265, Control_c, 0, 64, 127
1, 155653, Note_on_c, 0, 64, 0
1, 155692, Note_on_c, 0, 58, 0
1, 155825, Note_on_c, 0, 67, 0
1, 156016, Note_on_c, 0, 69, 85
1, 156331, Note_on_c, 0, 69, 0
1, 156385, Note_on_c, 0, 70, 88
1, 156651, Note_on_c, 0, 67, 97
1, 156680, Note_on_c, 0, 70, 0
1, 156782, Note_on_c, 0, 37, 0
1, 156809, Note_on_c, 0, 67, 0
1, 156909, Note_on_c, 0, 38, 80
1, 157052, Note_on_c, 0, 66, 85
1, 157124, Control_c, 0, 64, 0
1, 157276, Control_c, 0, 64, 127
1, 157358, Note_on_c, 0, 67, 91
1, 157387, Note_on_c, 0, 66, 0
1, 157608, Note_on_c, 0, 61, 103
1, 157678, Note_on_c, 0, 67, 0
1, 157841, Note_on_c, 0, 70, 71
1, 157881, Note_on_c, 0, 61, 0
1, 158012, Note_on_c, 0, 70, 0
1, 158204, Note_on_c, 0, 50, 68
1, 158244, Note_on_c, 0, 60, 65
1, 158250, Note_on_c, 0, 62, 61
1, 158255, Note_on_c, 0, 67, 74
1, 158354, Note_on_c, 0, 66, 81
1, 158366, Note_on_c, 0, 67, 0
1, 158455, Note_on_c, 0, 67, 94
1, 158461, Note_on_c, 0, 66, 0
1, 158481, Control_c, 0, 64, 0
1, 158645, Control_c, 0, 64, 127
1, 159253, Note_on_c, 0, 67, 0
1, 159451, Note_on_c, 0, 38, 0
1, 159515, Note_on_c, 0, 62, 0
1, 159535, Note_on_c, 0, 60, 0
1, 159638, Note_on_c, 0, 69, 67
1, 159744, Note_on_c, 0, 66, 113
1, 159758, Note_on_c, 0, 69, 0
1, 159848, Note_on_c, 0, 66, 0
1, 159994, Note_on_c, 0, 43, 64
1, 160064, Note_on_c, 0, 60, 51
1, 160070, Note_on_c, 0, 62, 72
1, 160070, Note_on_c, 0, 67, 83
1, 160102, Note_on_c, 0, 50, 0
1, 160193, Control_c, 0, 64, 0
1, 160366, Control_c, 0, 64, 127
1, 160907, Note_on_c, 0, 57, 80
1, 161019, Note_on_c, 0, 60, 0
1, 161212, Note_on_c, 0, 62, 0
1, 161757, Note_on_c, 0, 57, 0
1, 161791, Note_on_c, 0, 67, 0
1, 161885, Note_on_c, 0, 55, 65
1, 162015, Note_on_c, 0, 57, 68
1, 162069, Note_on_c, 0, 58, 69
1, 162161, Note_on_c, 0, 57, 0
1, 162176, Note_on_c, 0, 62, 80
1, 162212, Control_c, 0, 64, 0
1, 162260, Note_on_c, 0, 67, 74
1, 162434, Control_c, 0, 64, 127
1, 162777, Control_c, 0, 64, 0
1, 165695, Note_on_c, 0, 67, 0
1, 165713, Note_on_c, 0, 62, 0
1, 165743, Note_on_c, 0, 58, 0
1, 165801, Note_on_c, 0, 43, 0
1, 165807, Note_on_c, 0, 55, 0
1, 167040, Control_c, 0, 121, 127
1, 167040, End_track
0, 0, End_of_file
