0, 0, Header, 1, 2, 480
1, 0, Start_track
1, 0, Title_t, "Bach's 3rd English Suite: 5. Gavottes I & II"
1, 0, Time_signature, 4, 2, 24, 8
1, 0, Key_signature, -2, "major"
1, 0, Tempo, 300000
1, 77671, Tempo, 298507
1, 77753, Tempo, 300000
1, 77835, Tempo, 301508
1, 77917, Tempo, 303030
1, 77999, Tempo, 304569
1, 78081, Tempo, 306122
1, 78163, Tempo, 307692
1, 78245, Tempo, 309278
1, 78327, Tempo, 310881
1, 78409, Tempo, 312500
1, 78491, Tempo, 314136
1, 78573, Tempo, 315789
1, 78655, Tempo, 317460
1, 78737, Tempo, 319149
1, 78819, Tempo, 320856
1, 78901, Tempo, 322581
1, 78983, Tempo, 324324
1, 79065, Tempo, 326087
1, 79147, Tempo, 327869
1, 79229, Tempo, 329670
1, 79311, Tempo, 331492
1, 79393, Tempo, 333333
1, 79475, Tempo, 335196
1, 79557, Tempo, 337079
1, 79639, Tempo, 338983
1, 79721, Tempo, 340909
1, 79803, Tempo, 342857
1, 79885, Tempo, 344828
1, 79967, Tempo, 346821
1, 80049, Tempo, 348837
1, 80131, Tempo, 350877
1, 80213, Tempo, 352941
1, 80295, Tempo, 355030
1, 80377, Tempo, 359281
1, 80459, Tempo, 361446
1, 80541, Tempo, 363636
1, 81639, Tempo, 304569
1, 126645, Tempo, 319149
1, 127219, Tempo, 320856
1, 127711, Tempo, 322581
1, 128285, Tempo, 324324
1, 128693, Tempo, 333333
1, 128775, Tempo, 337079
1, 128857, Tempo, 340909
1, 128939, Tempo, 344828
1, 129021, Tempo, 350877
1, 129103, Tempo, 355030
1, 129185, Tempo, 359281
1, 129267, Tempo, 363636
1, 129349, Tempo, 370370
1, 129431, Tempo, 375000
1, 129513, Tempo, 379747
1, 129595, Tempo, 387097
1, 129677, Tempo, 392157
1, 129759, Tempo, 397351
1, 129841, Tempo, 402685
1, 129845, Tempo, 405405
1, 129927, Tempo, 410959
1, 130009, Tempo, 419580
1, 130091, Tempo, 428571
1, 130173, Tempo, 434783
1, 130255, Tempo, 444444
1, 130337, Tempo, 454545
1, 130419, Tempo, 465116
1, 130501, Tempo, 472441
1, 130583, Tempo, 483871
1, 130665, Tempo, 495868
1, 130747, Tempo, 508475
1, 131509, Tempo, 326087
1, 137525, Tempo, 319149
1, 137607, Tempo, 322581
1, 137689, Tempo, 327869
1, 137771, Tempo, 331492
1, 137853, Tempo, 337079
1, 137935, Tempo, 340909
1, 138017, Tempo, 346821
1, 138099, Tempo, 350877
1, 138181, Tempo, 357143
1, 138263, Tempo, 363636
1, 138345, Tempo, 368098
1, 139189, Tempo, 326087
1, 144949, Tempo, 319149
1, 145031, Tempo, 322581
1, 145113, Tempo, 326087
1, 145195, Tempo, 331492
1, 145277, Tempo, 335196
1, 145359, Tempo, 340909
1, 145441, Tempo, 344828
1, 145523, Tempo, 348837
1, 145605, Tempo, 355030
1, 145687, Tempo, 359281
1, 145769, Tempo, 365854
1, 145851, Tempo, 370370
1, 145933, Tempo, 375000
1, 146015, Tempo, 382166
1, 146997, Tempo, 319149
1, 152117, Tempo, 326087
1, 152199, Tempo, 327869
1, 152281, Tempo, 329670
1, 152363, Tempo, 333333
1, 152445, Tempo, 335196
1, 152527, Tempo, 337079
1, 152609, Tempo, 340909
1, 152691, Tempo, 342857
1, 152773, Tempo, 344828
1, 152855, Tempo, 348837
1, 152937, Tempo, 350877
1, 153019, Tempo, 352941
1, 153101, Tempo, 357143
1, 153183, Tempo, 359281
1, 153265, Tempo, 361446
1, 153347, Tempo, 365854
1, 153429, Tempo, 368098
1, 153511, Tempo, 370370
1, 154549, Tempo, 319149
1, 159619, Tempo, 333333
1, 159783, Tempo, 335196
1, 159947, Tempo, 337079
1, 160029, Tempo, 338983
1, 160193, Tempo, 340909
1, 160357, Tempo, 342857
1, 160439, Tempo, 344828
1, 160603, Tempo, 346821
1, 160767, Tempo, 348837
1, 160849, Tempo, 350877
1, 161013, Tempo, 352941
1, 161095, Tempo, 355030
1, 162435, Tempo, 319149
1, 166659, Tempo, 333333
1, 166823, Tempo, 335196
1, 166905, Tempo, 337079
1, 167043, Tempo, 340909
1, 167125, Tempo, 342857
1, 167207, Tempo, 344828
1, 167289, Tempo, 346821
1, 167371, Tempo, 348837
1, 167453, Tempo, 350877
1, 167535, Tempo, 355030
1, 167617, Tempo, 357143
1, 167699, Tempo, 359281
1, 167781, Tempo, 361446
1, 167863, Tempo, 363636
1, 167945, Tempo, 368098
1, 168027, Tempo, 370370
1, 168109, Tempo, 372671
1, 168191, Tempo, 375000
1, 168273, Tempo, 377358
1, 168355, Tempo, 382166
1, 168437, Tempo, 384615
1, 168519, Tempo, 387097
1, 168601, Tempo, 389610
1, 168683, Tempo, 392157
1, 168765, Tempo, 397351
1, 168847, Tempo, 400000
1, 168929, Tempo, 402685
1, 170051, Tempo, 319149
1, 174851, Tempo, 333333
1, 174933, Tempo, 335196
1, 175015, Tempo, 337079
1, 175097, Tempo, 338983
1, 175179, Tempo, 340909
1, 175261, Tempo, 342857
1, 175343, Tempo, 344828
1, 175425, Tempo, 346821
1, 175507, Tempo, 348837
1, 175589, Tempo, 350877
1, 175671, Tempo, 352941
1, 175753, Tempo, 357143
1, 175835, Tempo, 359281
1, 175917, Tempo, 361446
1, 175999, Tempo, 363636
1, 176081, Tempo, 365854
1, 176163, Tempo, 368098
1, 176245, Tempo, 370370
1, 176327, Tempo, 372671
1, 176409, Tempo, 375000
1, 176491, Tempo, 377358
1, 176573, Tempo, 382166
1, 177347, Tempo, 319149
1, 182339, Tempo, 326087
1, 182421, Tempo, 327869
1, 182503, Tempo, 329670
1, 182585, Tempo, 331492
1, 182667, Tempo, 333333
1, 182749, Tempo, 335196
1, 182831, Tempo, 337079
1, 182913, Tempo, 340909
1, 182995, Tempo, 342857
1, 183077, Tempo, 344828
1, 183159, Tempo, 346821
1, 183241, Tempo, 348837
1, 183323, Tempo, 350877
1, 183405, Tempo, 355030
1, 183487, Tempo, 357143
1, 183569, Tempo, 359281
1, 183651, Tempo, 361446
1, 183733, Tempo, 363636
1, 183815, Tempo, 365854
1, 183897, Tempo, 368098
1, 183979, Tempo, 372671
1, 184061, Tempo, 375000
1, 184143, Tempo, 377358
1, 184225, Tempo, 379747
1, 184307, Tempo, 382166
1, 185283, Tempo, 319149
1, 188163, Tempo, 319149
1, 188327, Tempo, 320856
1, 188491, Tempo, 322581
1, 188655, Tempo, 324324
1, 188819, Tempo, 326087
1, 188983, Tempo, 327869
1, 189147, Tempo, 329670
1, 189311, Tempo, 331492
1, 189475, Tempo, 333333
1, 189639, Tempo, 335196
1, 189803, Tempo, 337079
1, 189967, Tempo, 338983
1, 190019, Tempo, 348837
1, 190101, Tempo, 350877
1, 190183, Tempo, 355030
1, 190265, Tempo, 357143
1, 190347, Tempo, 361446
1, 190429, Tempo, 363636
1, 190511, Tempo, 368098
1, 190593, Tempo, 370370
1, 190675, Tempo, 375000
1, 190757, Tempo, 377358
1, 190839, Tempo, 382166
1, 190921, Tempo, 387097
1, 191003, Tempo, 389610
1, 191085, Tempo, 394737
1, 191167, Tempo, 397351
1, 191249, Tempo, 402685
1, 191331, Tempo, 405405
1, 191413, Tempo, 410959
1, 191495, Tempo, 413793
1, 191577, Tempo, 419580
1, 191659, Tempo, 425532
1, 191741, Tempo, 428571
1, 191823, Tempo, 434783
1, 191905, Tempo, 437956
1, 191987, Tempo, 444444
1, 192069, Tempo, 447761
1, 192069, End_track
2, 0, Start_track
2, 0, Title_t, "Piano 1"
2, 0, Program_c, 0, 6
2, 0, Control_c, 0, 7, 115
2, 0, Control_c, 0, 91, 127
2, 0, Control_c, 0, 121, 127
2, 961, Note_on_c, 0, 43, 98
2, 971, Note_on_c, 0, 79, 98
2, 1444, Note_on_c, 0, 82, 99
2, 1445, Note_on_c, 0, 50, 99
2, 1451, Note_on_c, 0, 43, 0
2, 1454, Note_on_c, 0, 79, 0
2, 1682, Note_on_c, 0, 81, 99
2, 1693, Note_on_c, 0, 82, 0
2, 1906, Note_on_c, 0, 50, 0
2, 1916, Note_on_c, 0, 55, 100
2, 1928, Note_on_c, 0, 82, 100
2, 1947, Note_on_c, 0, 81, 0
2, 2397, Note_on_c, 0, 58, 100
2, 2408, Note_on_c, 0, 55, 0
2, 2408, Note_on_c, 0, 79, 101
2, 2422, Note_on_c, 0, 82, 0
2, 2646, Note_on_c, 0, 74, 101
2, 2649, Note_on_c, 0, 79, 0
2, 2881, Note_on_c, 0, 60, 101
2, 2891, Note_on_c, 0, 81, 101
2, 2893, Note_on_c, 0, 74, 0
2, 2896, Note_on_c, 0, 58, 0
2, 3346, Note_on_c, 0, 60, 0
2, 3354, Note_on_c, 0, 62, 102
2, 3364, Note_on_c, 0, 78, 102
2, 3371, Note_on_c, 0, 81, 0
2, 3599, Note_on_c, 0, 74, 103
2, 3602, Note_on_c, 0, 78, 0
2, 3840, Note_on_c, 0, 79, 103
2, 3840, Note_on_c, 0, 63, 103
2, 3843, Note_on_c, 0, 74, 0
2, 3851, Note_on_c, 0, 62, 0
2, 4086, Note_on_c, 0, 65, 102
2, 4092, Note_on_c, 0, 63, 0
2, 4327, Note_on_c, 0, 63, 98
2, 4333, Note_on_c, 0, 65, 0
2, 4558, Note_on_c, 0, 63, 0
2, 4564, Note_on_c, 0, 62, 94
2, 4616, Note_on_c, 0, 79, 0
2, 4806, Note_on_c, 0, 60, 89
2, 4812, Note_on_c, 0, 75, 89
2, 4813, Note_on_c, 0, 62, 0
2, 5044, Note_on_c, 0, 58, 89
2, 5053, Note_on_c, 0, 60, 0
2, 5278, Note_on_c, 0, 57, 88
2, 5285, Note_on_c, 0, 72, 88
2, 5286, Note_on_c, 0, 58, 0
2, 5298, Note_on_c, 0, 75, 0
2, 5503, Note_on_c, 0, 57, 0
2, 5515, Note_on_c, 0, 60, 88
2, 5525, Note_on_c, 0, 69, 88
2, 5528, Note_on_c, 0, 72, 0
2, 5759, Note_on_c, 0, 58, 87
2, 5763, Note_on_c, 0, 60, 0
2, 5767, Note_on_c, 0, 74, 87
2, 5775, Note_on_c, 0, 69, 0
2, 5999, Note_on_c, 0, 57, 86
2, 6014, Note_on_c, 0, 58, 0
2, 6234, Note_on_c, 0, 57, 0
2, 6236, Note_on_c, 0, 55, 86
2, 6249, Note_on_c, 0, 70, 86
2, 6372, Note_on_c, 0, 74, 0
2, 6476, Note_on_c, 0, 58, 85
2, 6482, Note_on_c, 0, 55, 0
2, 6488, Note_on_c, 0, 67, 85
2, 6718, Note_on_c, 0, 57, 84
2, 6721, Note_on_c, 0, 58, 0
2, 6729, Note_on_c, 0, 72, 84
2, 6732, Note_on_c, 0, 67, 0
2, 6734, Note_on_c, 0, 70, 0
2, 6957, Note_on_c, 0, 55, 84
2, 6959, Note_on_c, 0, 57, 0
2, 6966, Note_on_c, 0, 69, 84
2, 6981, Note_on_c, 0, 72, 0
2, 7192, Note_on_c, 0, 55, 0
2, 7193, Note_on_c, 0, 54, 83
2, 7203, Note_on_c, 0, 74, 83
2, 7215, Note_on_c, 0, 69, 0
2, 7432, Note_on_c, 0, 50, 82
2, 7437, Note_on_c, 0, 54, 0
2, 7468, Note_on_c, 0, 74, 0
2, 7670, Note_on_c, 0, 50, 0
2, 7674, Note_on_c, 0, 55, 82
2, 7684, Note_on_c, 0, 70, 82
2, 8154, Note_on_c, 0, 50, 80
2, 8160, Note_on_c, 0, 55, 0
2, 8166, Note_on_c, 0, 70, 0
2, 8168, Note_on_c, 0, 69, 80
2, 8394, Note_on_c, 0, 69, 0
2, 8406, Note_on_c, 0, 67, 80
2, 8412, Note_on_c, 0, 50, 0
2, 8639, Note_on_c, 0, 46, 105
2, 8642, Note_on_c, 0, 67, 0
2, 8650, Note_on_c, 0, 79, 105
2, 9121, Note_on_c, 0, 50, 105
2, 9128, Note_on_c, 0, 82, 105
2, 9129, Note_on_c, 0, 46, 0
2, 9132, Note_on_c, 0, 79, 0
2, 9364, Note_on_c, 0, 81, 105
2, 9369, Note_on_c, 0, 82, 0
2, 9581, Note_on_c, 0, 50, 0
2, 9595, Note_on_c, 0, 55, 105
2, 9605, Note_on_c, 0, 82, 105
2, 9616, Note_on_c, 0, 81, 0
2, 10076, Note_on_c, 0, 58, 105
2, 10087, Note_on_c, 0, 79, 105
2, 10088, Note_on_c, 0, 55, 0
2, 10104, Note_on_c, 0, 82, 0
2, 10324, Note_on_c, 0, 74, 105
2, 10328, Note_on_c, 0, 79, 0
2, 10553, Note_on_c, 0, 60, 105
2, 10558, Note_on_c, 0, 58, 0
2, 10568, Note_on_c, 0, 81, 105
2, 10577, Note_on_c, 0, 74, 0
2, 11038, Note_on_c, 0, 62, 105
2, 11044, Note_on_c, 0, 78, 105
2, 11048, Note_on_c, 0, 60, 0
2, 11060, Note_on_c, 0, 81, 0
2, 11281, Note_on_c, 0, 74, 105
2, 11289, Note_on_c, 0, 78, 0
2, 11521, Note_on_c, 0, 79, 105
2, 11522, Note_on_c, 0, 63, 105
2, 11529, Note_on_c, 0, 74, 0
2, 11529, Note_on_c, 0, 62, 0
2, 11761, Note_on_c, 0, 63, 0
2, 11763, Note_on_c, 0, 65, 103
2, 12003, Note_on_c, 0, 63, 100
2, 12005, Note_on_c, 0, 65, 0
2, 12240, Note_on_c, 0, 63, 0
2, 12243, Note_on_c, 0, 62, 93
2, 12251, Note_on_c, 0, 77, 93
2, 12362, Note_on_c, 0, 79, 0
2, 12475, Note_on_c, 0, 62, 0
2, 12479, Note_on_c, 0, 60, 89
2, 12490, Note_on_c, 0, 75, 88
2, 12502, Note_on_c, 0, 77, 0
2, 12717, Note_on_c, 0, 58, 84
2, 12720, Note_on_c, 0, 60, 0
2, 12727, Note_on_c, 0, 74, 84
2, 12738, Note_on_c, 0, 75, 0
2, 12949, Note_on_c, 0, 58, 0
2, 12953, Note_on_c, 0, 74, 0
2, 12955, Note_on_c, 0, 57, 79
2, 12963, Note_on_c, 0, 72, 79
2, 13188, Note_on_c, 0, 55, 75
2, 13190, Note_on_c, 0, 57, 0
2, 13195, Note_on_c, 0, 70, 75
2, 13196, Note_on_c, 0, 72, 0
2, 13297, Note_on_c, 0, 70, 0
2, 13428, Note_on_c, 0, 53, 71
2, 13436, Note_on_c, 0, 55, 0
2, 13446, Note_on_c, 0, 81, 71
2, 13671, Note_on_c, 0, 53, 0
2, 13678, Note_on_c, 0, 82, 63
2, 13682, Note_on_c, 0, 81, 0
2, 13795, Note_on_c, 0, 82, 0
2, 13917, Note_on_c, 0, 74, 71
2, 13917, Note_on_c, 0, 55, 71
2, 14157, Note_on_c, 0, 75, 63
2, 14158, Note_on_c, 0, 55, 0
2, 14165, Note_on_c, 0, 74, 0
2, 14398, Note_on_c, 0, 77, 63
2, 14400, Note_on_c, 0, 75, 0
2, 14403, Note_on_c, 0, 51, 63
2, 14635, Note_on_c, 0, 77, 0
2, 14636, Note_on_c, 0, 51, 0
2, 14637, Note_on_c, 0, 72, 63
2, 14881, Note_on_c, 0, 53, 63
2, 14883, Note_on_c, 0, 74, 63
2, 14891, Note_on_c, 0, 72, 0
2, 15117, Note_on_c, 0, 53, 0
2, 15327, Note_on_c, 0, 74, 0
2, 15346, Note_on_c, 0, 72, 65
2, 15367, Note_on_c, 0, 46, 65
2, 15497, Note_on_c, 0, 72, 0
2, 15503, Note_on_c, 0, 70, 62
2, 15521, Note_on_c, 0, 46, 0
2, 15601, Note_on_c, 0, 48, 62
2, 15838, Note_on_c, 0, 46, 62
2, 15848, Note_on_c, 0, 48, 0
2, 16078, Note_on_c, 0, 45, 62
2, 16082, Note_on_c, 0, 46, 0
2, 16104, Note_on_c, 0, 70, 0
2, 16323, Note_on_c, 0, 43, 62
2, 16328, Note_on_c, 0, 45, 0
2, 16331, Note_on_c, 0, 79, 62
2, 16800, Note_on_c, 0, 43, 0
2, 16804, Note_on_c, 0, 50, 62
2, 16805, Note_on_c, 0, 82, 62
2, 16808, Note_on_c, 0, 79, 0
2, 17045, Note_on_c, 0, 81, 62
2, 17056, Note_on_c, 0, 82, 0
2, 17275, Note_on_c, 0, 50, 0
2, 17281, Note_on_c, 0, 55, 62
2, 17285, Note_on_c, 0, 82, 62
2, 17290, Note_on_c, 0, 81, 0
2, 17754, Note_on_c, 0, 58, 62
2, 17757, Note_on_c, 0, 55, 0
2, 17769, Note_on_c, 0, 79, 62
2, 17782, Note_on_c, 0, 82, 0
2, 18000, Note_on_c, 0, 79, 0
2, 18003, Note_on_c, 0, 74, 62
2, 18237, Note_on_c, 0, 60, 62
2, 18249, Note_on_c, 0, 58, 0
2, 18252, Note_on_c, 0, 81, 62
2, 18264, Note_on_c, 0, 74, 0
2, 18721, Note_on_c, 0, 62, 62
2, 18722, Note_on_c, 0, 78, 62
2, 18724, Note_on_c, 0, 81, 0
2, 18724, Note_on_c, 0, 60, 0
2, 18957, Note_on_c, 0, 74, 62
2, 18962, Note_on_c, 0, 78, 0
2, 19196, Note_on_c, 0, 63, 62
2, 19199, Note_on_c, 0, 79, 62
2, 19203, Note_on_c, 0, 62, 0
2, 19206, Note_on_c, 0, 74, 0
2, 19436, Note_on_c, 0, 65, 62
2, 19443, Note_on_c, 0, 63, 0
2, 19676, Note_on_c, 0, 63, 62
2, 19681, Note_on_c, 0, 65, 0
2, 19917, Note_on_c, 0, 63, 0
2, 19917, Note_on_c, 0, 62, 62
2, 20157, Note_on_c, 0, 60, 62
2, 20164, Note_on_c, 0, 62, 0
2, 20164, Note_on_c, 0, 75, 62
2, 20179, Note_on_c, 0, 79, 0
2, 20396, Note_on_c, 0, 58, 62
2, 20404, Note_on_c, 0, 60, 0
2, 20635, Note_on_c, 0, 72, 62
2, 20637, Note_on_c, 0, 57, 62
2, 20641, Note_on_c, 0, 75, 0
2, 20648, Note_on_c, 0, 58, 0
2, 20864, Note_on_c, 0, 72, 0
2, 20869, Note_on_c, 0, 69, 62
2, 20872, Note_on_c, 0, 57, 0
2, 20879, Note_on_c, 0, 60, 62
2, 21114, Note_on_c, 0, 74, 62
2, 21123, Note_on_c, 0, 58, 62
2, 21125, Note_on_c, 0, 60, 0
2, 21125, Note_on_c, 0, 69, 0
2, 21352, Note_on_c, 0, 58, 0
2, 21354, Note_on_c, 0, 57, 62
2, 21597, Note_on_c, 0, 70, 62
2, 21598, Note_on_c, 0, 55, 62
2, 21606, Note_on_c, 0, 57, 0
2, 21608, Note_on_c, 0, 74, 0
2, 21836, Note_on_c, 0, 67, 61
2, 21842, Note_on_c, 0, 58, 61
2, 21847, Note_on_c, 0, 70, 0
2, 21850, Note_on_c, 0, 55, 0
2, 22076, Note_on_c, 0, 58, 0
2, 22078, Note_on_c, 0, 57, 60
2, 22084, Note_on_c, 0, 72, 60
2, 22095, Note_on_c, 0, 67, 0
2, 22317, Note_on_c, 0, 55, 60
2, 22320, Note_on_c, 0, 69, 60
2, 22321, Note_on_c, 0, 57, 0
2, 22323, Note_on_c, 0, 72, 0
2, 22551, Note_on_c, 0, 55, 0
2, 22552, Note_on_c, 0, 54, 59
2, 22572, Note_on_c, 0, 74, 59
2, 22583, Note_on_c, 0, 69, 0
2, 22793, Note_on_c, 0, 50, 59
2, 22801, Note_on_c, 0, 54, 0
2, 23037, Note_on_c, 0, 55, 58
2, 23039, Note_on_c, 0, 50, 0
2, 23041, Note_on_c, 0, 74, 0
2, 23043, Note_on_c, 0, 70, 58
2, 23519, Note_on_c, 0, 50, 57
2, 23521, Note_on_c, 0, 69, 57
2, 23526, Note_on_c, 0, 55, 0
2, 23530, Note_on_c, 0, 70, 0
2, 23749, Note_on_c, 0, 69, 0
2, 23759, Note_on_c, 0, 67, 57
2, 23763, Note_on_c, 0, 50, 0
2, 23993, Note_on_c, 0, 67, 0
2, 24001, Note_on_c, 0, 46, 62
2, 24007, Note_on_c, 0, 79, 63
2, 24468, Note_on_c, 0, 46, 0
2, 24470, Note_on_c, 0, 79, 0
2, 24474, Note_on_c, 0, 50, 67
2, 24478, Note_on_c, 0, 82, 67
2, 24715, Note_on_c, 0, 82, 0
2, 24716, Note_on_c, 0, 81, 70
2, 24944, Note_on_c, 0, 50, 0
2, 24950, Note_on_c, 0, 55, 72
2, 24959, Note_on_c, 0, 82, 72
2, 24970, Note_on_c, 0, 81, 0
2, 25441, Note_on_c, 0, 58, 77
2, 25444, Note_on_c, 0, 79, 77
2, 25457, Note_on_c, 0, 82, 0
2, 25539, Note_on_c, 0, 55, 0
2, 25685, Note_on_c, 0, 74, 79
2, 25688, Note_on_c, 0, 79, 0
2, 25921, Note_on_c, 0, 60, 82
2, 25931, Note_on_c, 0, 58, 0
2, 25932, Note_on_c, 0, 81, 82
2, 25940, Note_on_c, 0, 74, 0
2, 26399, Note_on_c, 0, 62, 86
2, 26403, Note_on_c, 0, 60, 0
2, 26407, Note_on_c, 0, 78, 87
2, 26412, Note_on_c, 0, 81, 0
2, 26644, Note_on_c, 0, 74, 89
2, 26649, Note_on_c, 0, 78, 0
2, 26878, Note_on_c, 0, 63, 91
2, 26884, Note_on_c, 0, 79, 91
2, 26886, Note_on_c, 0, 74, 0
2, 26891, Note_on_c, 0, 62, 0
2, 27119, Note_on_c, 0, 65, 94
2, 27130, Note_on_c, 0, 63, 0
2, 27363, Note_on_c, 0, 63, 96
2, 27373, Note_on_c, 0, 65, 0
2, 27602, Note_on_c, 0, 63, 0
2, 27605, Note_on_c, 0, 62, 99
2, 27610, Note_on_c, 0, 77, 99
2, 27627, Note_on_c, 0, 79, 0
2, 27845, Note_on_c, 0, 60, 104
2, 27848, Note_on_c, 0, 75, 104
2, 27849, Note_on_c, 0, 62, 0
2, 27861, Note_on_c, 0, 77, 0
2, 28081, Note_on_c, 0, 58, 104
2, 28082, Note_on_c, 0, 60, 0
2, 28087, Note_on_c, 0, 74, 104
2, 28099, Note_on_c, 0, 75, 0
2, 28311, Note_on_c, 0, 58, 0
2, 28317, Note_on_c, 0, 74, 0
2, 28317, Note_on_c, 0, 57, 104
2, 28324, Note_on_c, 0, 72, 104
2, 28551, Note_on_c, 0, 55, 104
2, 28553, Note_on_c, 0, 57, 0
2, 28557, Note_on_c, 0, 72, 0
2, 28559, Note_on_c, 0, 70, 104
2, 28645, Note_on_c, 0, 70, 0
2, 28797, Note_on_c, 0, 53, 104
2, 28807, Note_on_c, 0, 55, 0
2, 28812, Note_on_c, 0, 81, 104
2, 29028, Note_on_c, 0, 53, 0
2, 29042, Note_on_c, 0, 81, 0
2, 29045, Note_on_c, 0, 82, 104
2, 29275, Note_on_c, 0, 55, 104
2, 29281, Note_on_c, 0, 82, 0
2, 29285, Note_on_c, 0, 74, 104
2, 29508, Note_on_c, 0, 55, 0
2, 29520, Note_on_c, 0, 75, 104
2, 29521, Note_on_c, 0, 74, 0
2, 29758, Note_on_c, 0, 51, 104
2, 29762, Note_on_c, 0, 77, 104
2, 29774, Note_on_c, 0, 75, 0
2, 29984, Note_on_c, 0, 51, 0
2, 29994, Note_on_c, 0, 77, 0
2, 29998, Note_on_c, 0, 72, 104
2, 30234, Note_on_c, 0, 53, 104
2, 30235, Note_on_c, 0, 72, 0
2, 30236, Note_on_c, 0, 74, 104
2, 30467, Note_on_c, 0, 53, 0
2, 30705, Note_on_c, 0, 72, 104
2, 30716, Note_on_c, 0, 74, 0
2, 30719, Note_on_c, 0, 46, 104
2, 30831, Note_on_c, 0, 70, 104
2, 30832, Note_on_c, 0, 72, 0
2, 30967, Note_on_c, 0, 53, 104
2, 31057, Note_on_c, 0, 46, 0
2, 31197, Note_on_c, 0, 53, 0
2, 31204, Note_on_c, 0, 55, 104
2, 31443, Note_on_c, 0, 57, 104
2, 31451, Note_on_c, 0, 55, 0
2, 31531, Note_on_c, 0, 70, 0
2, 31682, Note_on_c, 0, 74, 104
2, 31687, Note_on_c, 0, 58, 104
2, 31689, Note_on_c, 0, 57, 0
2, 31984, Note_on_c, 0, 58, 0
2, 32157, Note_on_c, 0, 60, 104
2, 32164, Note_on_c, 0, 77, 104
2, 32173, Note_on_c, 0, 74, 0
2, 32399, Note_on_c, 0, 75, 104
2, 32402, Note_on_c, 0, 77, 0
2, 32624, Note_on_c, 0, 60, 0
2, 32637, Note_on_c, 0, 62, 104
2, 32640, Note_on_c, 0, 75, 0
2, 32641, Note_on_c, 0, 77, 104
2, 33008, Note_on_c, 0, 77, 0
2, 33119, Note_on_c, 0, 58, 99
2, 33128, Note_on_c, 0, 74, 99
2, 33130, Note_on_c, 0, 62, 0
2, 33369, Note_on_c, 0, 70, 99
2, 33372, Note_on_c, 0, 74, 0
2, 33601, Note_on_c, 0, 63, 104
2, 33611, Note_on_c, 0, 58, 0
2, 33613, Note_on_c, 0, 79, 104
2, 33618, Note_on_c, 0, 70, 0
2, 33870, Note_on_c, 0, 79, 0
2, 34073, Note_on_c, 0, 63, 0
2, 34073, Note_on_c, 0, 60, 98
2, 34083, Note_on_c, 0, 75, 98
2, 34317, Note_on_c, 0, 70, 100
2, 34318, Note_on_c, 0, 75, 0
2, 34541, Note_on_c, 0, 60, 0
2, 34553, Note_on_c, 0, 62, 102
2, 34566, Note_on_c, 0, 77, 102
2, 34568, Note_on_c, 0, 70, 0
2, 34798, Note_on_c, 0, 60, 104
2, 34810, Note_on_c, 0, 62, 0
2, 35034, Note_on_c, 0, 58, 106
2, 35035, Note_on_c, 0, 60, 0
2, 35272, Note_on_c, 0, 58, 0
2, 35274, Note_on_c, 0, 57, 108
2, 35517, Note_on_c, 0, 55, 110
2, 35527, Note_on_c, 0, 57, 0
2, 35527, Note_on_c, 0, 82, 110
2, 35532, Note_on_c, 0, 77, 0
2, 35749, Note_on_c, 0, 55, 0
2, 35764, Note_on_c, 0, 81, 111
2, 35773, Note_on_c, 0, 82, 0
2, 35995, Note_on_c, 0, 53, 111
2, 35998, Note_on_c, 0, 79, 111
2, 36003, Note_on_c, 0, 81, 0
2, 36229, Note_on_c, 0, 53, 0
2, 36242, Note_on_c, 0, 81, 111
2, 36251, Note_on_c, 0, 79, 0
2, 36475, Note_on_c, 0, 81, 0
2, 36476, Note_on_c, 0, 52, 111
2, 36479, Note_on_c, 0, 82, 111
2, 36716, Note_on_c, 0, 79, 109
2, 36728, Note_on_c, 0, 82, 0
2, 36959, Note_on_c, 0, 76, 106
2, 36961, Note_on_c, 0, 48, 106
2, 36969, Note_on_c, 0, 79, 0
2, 37073, Note_on_c, 0, 52, 0
2, 37191, Note_on_c, 0, 48, 0
2, 37197, Note_on_c, 0, 72, 103
2, 37198, Note_on_c, 0, 76, 0
2, 37438, Note_on_c, 0, 82, 110
2, 37442, Note_on_c, 0, 50, 110
2, 37450, Note_on_c, 0, 72, 0
2, 37669, Note_on_c, 0, 50, 0
2, 37679, Note_on_c, 0, 81, 109
2, 37687, Note_on_c, 0, 82, 0
2, 37919, Note_on_c, 0, 79, 107
2, 37921, Note_on_c, 0, 52, 107
2, 37923, Note_on_c, 0, 81, 0
2, 38152, Note_on_c, 0, 52, 0
2, 38165, Note_on_c, 0, 81, 106
2, 38175, Note_on_c, 0, 79, 0
2, 38403, Note_on_c, 0, 53, 105
2, 38407, Note_on_c, 0, 82, 105
2, 38416, Note_on_c, 0, 81, 0
2, 38651, Note_on_c, 0, 81, 103
2, 38753, Note_on_c, 0, 82, 0
2, 38881, Note_on_c, 0, 55, 102
2, 38884, Note_on_c, 0, 53, 0
2, 38889, Note_on_c, 0, 79, 102
2, 38900, Note_on_c, 0, 81, 0
2, 39121, Note_on_c, 0, 57, 101
2, 39123, Note_on_c, 0, 79, 0
2, 39124, Note_on_c, 0, 77, 101
2, 39130, Note_on_c, 0, 55, 0
2, 39362, Note_on_c, 0, 58, 99
2, 39364, Note_on_c, 0, 77, 0
2, 39365, Note_on_c, 0, 79, 99
2, 39374, Note_on_c, 0, 57, 0
2, 39594, Note_on_c, 0, 58, 0
2, 39604, Note_on_c, 0, 77, 98
2, 39622, Note_on_c, 0, 79, 0
2, 39838, Note_on_c, 0, 55, 97
2, 39841, Note_on_c, 0, 76, 97
2, 39849, Note_on_c, 0, 77, 0
2, 40083, Note_on_c, 0, 55, 0
2, 40087, Note_on_c, 0, 77, 95
2, 40103, Note_on_c, 0, 76, 0
2, 40316, Note_on_c, 0, 52, 94
2, 40327, Note_on_c, 0, 79, 94
2, 40333, Note_on_c, 0, 77, 0
2, 40566, Note_on_c, 0, 76, 93
2, 40584, Note_on_c, 0, 79, 0
2, 40794, Note_on_c, 0, 45, 92
2, 40802, Note_on_c, 0, 73, 92
2, 40804, Note_on_c, 0, 52, 0
2, 40809, Note_on_c, 0, 76, 0
2, 41031, Note_on_c, 0, 45, 0
2, 41041, Note_on_c, 0, 69, 90
2, 41045, Note_on_c, 0, 73, 0
2, 41275, Note_on_c, 0, 69, 0
2, 41276, Note_on_c, 0, 79, 88
2, 41279, Note_on_c, 0, 47, 88
2, 41504, Note_on_c, 0, 47, 0
2, 41517, Note_on_c, 0, 77, 85
2, 41535, Note_on_c, 0, 79, 0
2, 41744, Note_on_c, 0, 77, 0
2, 41752, Note_on_c, 0, 76, 82
2, 41753, Note_on_c, 0, 49, 82
2, 41978, Note_on_c, 0, 49, 0
2, 41995, Note_on_c, 0, 77, 79
2, 42009, Note_on_c, 0, 76, 0
2, 42241, Note_on_c, 0, 79, 76
2, 42242, Note_on_c, 0, 50, 76
2, 42252, Note_on_c, 0, 77, 0
2, 42477, Note_on_c, 0, 77, 73
2, 42486, Note_on_c, 0, 79, 0
2, 42718, Note_on_c, 0, 76, 70
2, 42722, Note_on_c, 0, 38, 70
2, 42730, Note_on_c, 0, 50, 0
2, 42733, Note_on_c, 0, 77, 0
2, 42943, Note_on_c, 0, 38, 0
2, 42961, Note_on_c, 0, 76, 0
2, 42962, Note_on_c, 0, 74, 67
2, 43206, Note_on_c, 0, 81, 113
2, 43206, Note_on_c, 0, 62, 113
2, 43208, Note_on_c, 0, 74, 0
2, 43496, Note_on_c, 0, 81, 0
2, 43682, Note_on_c, 0, 81, 113
2, 43684, Note_on_c, 0, 62, 0
2, 43684, Note_on_c, 0, 65, 113
2, 43918, Note_on_c, 0, 64, 113
2, 43921, Note_on_c, 0, 65, 0
2, 43973, Note_on_c, 0, 81, 0
2, 44159, Note_on_c, 0, 65, 113
2, 44162, Note_on_c, 0, 64, 0
2, 44188, Note_on_c, 0, 81, 113
2, 44303, Note_on_c, 0, 82, 113
2, 44323, Note_on_c, 0, 81, 0
2, 44406, Note_on_c, 0, 81, 113
2, 44417, Note_on_c, 0, 82, 0
2, 44496, Note_on_c, 0, 82, 113
2, 44506, Note_on_c, 0, 81, 0
2, 44584, Note_on_c, 0, 81, 113
2, 44588, Note_on_c, 0, 82, 0
2, 44637, Note_on_c, 0, 62, 113
2, 44648, Note_on_c, 0, 65, 0
2, 44665, Note_on_c, 0, 82, 113
2, 44674, Note_on_c, 0, 81, 0
2, 44742, Note_on_c, 0, 81, 113
2, 44751, Note_on_c, 0, 82, 0
2, 44825, Note_on_c, 0, 82, 113
2, 44842, Note_on_c, 0, 81, 0
2, 44876, Note_on_c, 0, 57, 113
2, 44884, Note_on_c, 0, 62, 0
2, 44911, Note_on_c, 0, 81, 113
2, 44912, Note_on_c, 0, 82, 0
2, 44986, Note_on_c, 0, 82, 113
2, 45006, Note_on_c, 0, 81, 0
2, 45071, Note_on_c, 0, 81, 113
2, 45076, Note_on_c, 0, 82, 0
2, 45121, Note_on_c, 0, 64, 113
2, 45124, Note_on_c, 0, 57, 0
2, 45160, Note_on_c, 0, 82, 113
2, 45178, Note_on_c, 0, 81, 0
2, 45250, Note_on_c, 0, 82, 0
2, 45255, Note_on_c, 0, 81, 113
2, 45343, Note_on_c, 0, 82, 113
2, 45363, Note_on_c, 0, 81, 0
2, 45425, Note_on_c, 0, 82, 0
2, 45427, Note_on_c, 0, 81, 113
2, 45510, Note_on_c, 0, 82, 113
2, 45535, Note_on_c, 0, 81, 0
2, 45594, Note_on_c, 0, 61, 113
2, 45597, Note_on_c, 0, 82, 0
2, 45601, Note_on_c, 0, 64, 0
2, 45608, Note_on_c, 0, 81, 113
2, 45689, Note_on_c, 0, 82, 113
2, 45708, Note_on_c, 0, 81, 0
2, 45747, Note_on_c, 0, 81, 113
2, 45762, Note_on_c, 0, 82, 0
2, 45834, Note_on_c, 0, 57, 113
2, 45846, Note_on_c, 0, 61, 0
2, 45847, Note_on_c, 0, 81, 0
2, 45849, Note_on_c, 0, 82, 113
2, 45902, Note_on_c, 0, 81, 113
2, 45910, Note_on_c, 0, 82, 0
2, 46072, Note_on_c, 0, 62, 113
2, 46125, Note_on_c, 0, 57, 0
2, 46327, Note_on_c, 0, 77, 110
2, 46397, Note_on_c, 0, 81, 0
2, 46567, Note_on_c, 0, 79, 114
2, 46575, Note_on_c, 0, 77, 0
2, 46802, Note_on_c, 0, 81, 117
2, 46803, Note_on_c, 0, 79, 0
2, 47041, Note_on_c, 0, 82, 121
2, 47042, Note_on_c, 0, 55, 121
2, 47051, Note_on_c, 0, 81, 0
2, 47059, Note_on_c, 0, 62, 0
2, 47276, Note_on_c, 0, 55, 0
2, 47287, Note_on_c, 0, 81, 124
2, 47408, Note_on_c, 0, 82, 0
2, 47515, Note_on_c, 0, 57, 122
2, 47521, Note_on_c, 0, 79, 122
2, 47527, Note_on_c, 0, 81, 0
2, 47762, Note_on_c, 0, 79, 0
2, 47762, Note_on_c, 0, 57, 0
2, 47763, Note_on_c, 0, 77, 120
2, 48000, Note_on_c, 0, 77, 0
2, 48001, Note_on_c, 0, 58, 118
2, 48003, Note_on_c, 0, 76, 118
2, 48244, Note_on_c, 0, 74, 117
2, 48260, Note_on_c, 0, 76, 0
2, 48481, Note_on_c, 0, 55, 115
2, 48485, Note_on_c, 0, 73, 115
2, 48492, Note_on_c, 0, 74, 0
2, 48493, Note_on_c, 0, 58, 0
2, 48706, Note_on_c, 0, 55, 0
2, 48719, Note_on_c, 0, 74, 113
2, 48724, Note_on_c, 0, 73, 0
2, 48959, Note_on_c, 0, 57, 111
2, 48962, Note_on_c, 0, 79, 111
2, 48971, Note_on_c, 0, 74, 0
2, 49184, Note_on_c, 0, 57, 0
2, 49204, Note_on_c, 0, 77, 109
2, 49217, Note_on_c, 0, 79, 0
2, 49439, Note_on_c, 0, 45, 107
2, 49442, Note_on_c, 0, 76, 107
2, 49450, Note_on_c, 0, 77, 0
2, 49550, Note_on_c, 0, 45, 0
2, 49687, Note_on_c, 0, 77, 106
2, 49704, Note_on_c, 0, 76, 0
2, 49921, Note_on_c, 0, 38, 104
2, 49935, Note_on_c, 0, 74, 104
2, 50054, Note_on_c, 0, 77, 0
2, 50167, Note_on_c, 0, 50, 99
2, 50177, Note_on_c, 0, 38, 0
2, 50407, Note_on_c, 0, 51, 96
2, 50417, Note_on_c, 0, 50, 0
2, 50641, Note_on_c, 0, 53, 93
2, 50645, Note_on_c, 0, 51, 0
2, 50676, Note_on_c, 0, 74, 0
2, 50878, Note_on_c, 0, 55, 90
2, 50880, Note_on_c, 0, 53, 0
2, 50890, Note_on_c, 0, 74, 90
2, 51111, Note_on_c, 0, 55, 0
2, 51358, Note_on_c, 0, 55, 88
2, 51364, Note_on_c, 0, 77, 88
2, 51373, Note_on_c, 0, 74, 0
2, 51584, Note_on_c, 0, 55, 0
2, 51603, Note_on_c, 0, 75, 88
2, 51608, Note_on_c, 0, 77, 0
2, 51827, Note_on_c, 0, 55, 88
2, 51847, Note_on_c, 0, 77, 88
2, 51862, Note_on_c, 0, 75, 0
2, 51950, Note_on_c, 0, 56, 87
2, 51965, Note_on_c, 0, 55, 0
2, 52085, Note_on_c, 0, 56, 0
2, 52085, Note_on_c, 0, 55, 87
2, 52171, Note_on_c, 0, 56, 87
2, 52175, Note_on_c, 0, 55, 0
2, 52262, Note_on_c, 0, 55, 87
2, 52268, Note_on_c, 0, 56, 0
2, 52329, Note_on_c, 0, 74, 87
2, 52341, Note_on_c, 0, 77, 0
2, 52348, Note_on_c, 0, 56, 87
2, 52356, Note_on_c, 0, 55, 0
2, 52429, Note_on_c, 0, 55, 87
2, 52441, Note_on_c, 0, 56, 0
2, 52526, Note_on_c, 0, 56, 87
2, 52531, Note_on_c, 0, 55, 0
2, 52565, Note_on_c, 0, 71, 87
2, 52566, Note_on_c, 0, 74, 0
2, 52605, Note_on_c, 0, 55, 87
2, 52613, Note_on_c, 0, 56, 0
2, 52696, Note_on_c, 0, 56, 87
2, 52702, Note_on_c, 0, 55, 0
2, 52784, Note_on_c, 0, 55, 87
2, 52795, Note_on_c, 0, 56, 0
2, 52809, Note_on_c, 0, 80, 87
2, 52819, Note_on_c, 0, 71, 0
2, 52877, Note_on_c, 0, 56, 86
2, 52885, Note_on_c, 0, 55, 0
2, 52963, Note_on_c, 0, 55, 86
2, 52966, Note_on_c, 0, 56, 0
2, 53052, Note_on_c, 0, 55, 0
2, 53060, Note_on_c, 0, 56, 86
2, 53146, Note_on_c, 0, 55, 86
2, 53150, Note_on_c, 0, 56, 0
2, 53232, Note_on_c, 0, 56, 86
2, 53240, Note_on_c, 0, 55, 0
2, 53288, Note_on_c, 0, 77, 86
2, 53303, Note_on_c, 0, 80, 0
2, 53318, Note_on_c, 0, 55, 86
2, 53326, Note_on_c, 0, 56, 0
2, 53397, Note_on_c, 0, 56, 86
2, 53407, Note_on_c, 0, 55, 0
2, 53478, Note_on_c, 0, 55, 86
2, 53500, Note_on_c, 0, 56, 0
2, 53525, Note_on_c, 0, 77, 0
2, 53527, Note_on_c, 0, 74, 86
2, 53565, Note_on_c, 0, 56, 86
2, 53569, Note_on_c, 0, 55, 0
2, 53656, Note_on_c, 0, 55, 86
2, 53674, Note_on_c, 0, 56, 0
2, 53768, Note_on_c, 0, 75, 86
2, 53781, Note_on_c, 0, 74, 0
2, 54244, Note_on_c, 0, 72, 85
2, 54251, Note_on_c, 0, 75, 0
2, 54474, Note_on_c, 0, 72, 0
2, 54480, Note_on_c, 0, 67, 85
2, 54490, Note_on_c, 0, 55, 0
2, 54725, Note_on_c, 0, 55, 85
2, 54726, Note_on_c, 0, 79, 85
2, 54740, Note_on_c, 0, 67, 0
2, 54850, Note_on_c, 0, 55, 0
2, 55203, Note_on_c, 0, 55, 85
2, 55205, Note_on_c, 0, 75, 85
2, 55215, Note_on_c, 0, 79, 0
2, 55313, Note_on_c, 0, 55, 0
2, 55448, Note_on_c, 0, 72, 85
2, 55456, Note_on_c, 0, 75, 0
2, 55675, Note_on_c, 0, 55, 85
2, 55694, Note_on_c, 0, 74, 85
2, 55707, Note_on_c, 0, 72, 0
2, 56166, Note_on_c, 0, 70, 84
2, 56168, Note_on_c, 0, 74, 0
2, 56404, Note_on_c, 0, 70, 0
2, 56404, Note_on_c, 0, 67, 84
2, 56406, Note_on_c, 0, 55, 0
2, 56634, Note_on_c, 0, 55, 84
2, 56650, Note_on_c, 0, 79, 84
2, 56661, Note_on_c, 0, 67, 0
2, 56747, Note_on_c, 0, 55, 0
2, 57115, Note_on_c, 0, 79, 0
2, 57118, Note_on_c, 0, 55, 84
2, 57121, Note_on_c, 0, 74, 84
2, 57337, Note_on_c, 0, 55, 0
2, 57347, Note_on_c, 0, 74, 0
2, 57351, Note_on_c, 0, 70, 84
2, 57601, Note_on_c, 0, 55, 84
2, 57605, Note_on_c, 0, 72, 84
2, 57624, Note_on_c, 0, 70, 0
2, 58083, Note_on_c, 0, 69, 83
2, 58085, Note_on_c, 0, 72, 0
2, 58208, Note_on_c, 0, 55, 0
2, 58321, Note_on_c, 0, 66, 83
2, 58323, Note_on_c, 0, 69, 0
2, 58563, Note_on_c, 0, 55, 83
2, 58567, Note_on_c, 0, 75, 83
2, 58579, Note_on_c, 0, 66, 0
2, 58684, Note_on_c, 0, 55, 0
2, 58807, Note_on_c, 0, 55, 83
2, 58914, Note_on_c, 0, 55, 0
2, 59044, Note_on_c, 0, 72, 83
2, 59047, Note_on_c, 0, 55, 83
2, 59049, Note_on_c, 0, 75, 0
2, 59186, Note_on_c, 0, 55, 0
2, 59283, Note_on_c, 0, 69, 83
2, 59286, Note_on_c, 0, 72, 0
2, 59286, Note_on_c, 0, 55, 83
2, 59403, Note_on_c, 0, 55, 0
2, 59525, Note_on_c, 0, 74, 80
2, 59525, Note_on_c, 0, 55, 80
2, 59541, Note_on_c, 0, 69, 0
2, 59646, Note_on_c, 0, 55, 0
2, 59763, Note_on_c, 0, 55, 77
2, 59877, Note_on_c, 0, 55, 0
2, 59998, Note_on_c, 0, 55, 75
2, 60002, Note_on_c, 0, 70, 75
2, 60010, Note_on_c, 0, 74, 0
2, 60121, Note_on_c, 0, 55, 0
2, 60239, Note_on_c, 0, 55, 72
2, 60244, Note_on_c, 0, 67, 72
2, 60259, Note_on_c, 0, 70, 0
2, 60263, Note_on_c, 0, 55, 0
2, 60477, Note_on_c, 0, 72, 70
2, 60477, Note_on_c, 0, 55, 70
2, 60478, Note_on_c, 0, 67, 0
2, 60715, Note_on_c, 0, 54, 67
2, 60721, Note_on_c, 0, 69, 67
2, 60723, Note_on_c, 0, 55, 0
2, 60730, Note_on_c, 0, 72, 0
2, 60961, Note_on_c, 0, 55, 64
2, 60964, Note_on_c, 0, 70, 64
2, 60972, Note_on_c, 0, 54, 0
2, 60984, Note_on_c, 0, 69, 0
2, 61203, Note_on_c, 0, 67, 62
2, 61206, Note_on_c, 0, 70, 0
2, 61214, Note_on_c, 0, 55, 0
2, 61444, Note_on_c, 0, 50, 59
2, 61445, Note_on_c, 0, 69, 59
2, 61451, Note_on_c, 0, 67, 0
2, 61666, Note_on_c, 0, 50, 0
2, 61683, Note_on_c, 0, 62, 59
2, 61816, Note_on_c, 0, 69, 0
2, 61919, Note_on_c, 0, 64, 59
2, 61919, Note_on_c, 0, 48, 59
2, 61923, Note_on_c, 0, 62, 0
2, 62140, Note_on_c, 0, 48, 0
2, 62159, Note_on_c, 0, 66, 59
2, 62171, Note_on_c, 0, 64, 0
2, 62398, Note_on_c, 0, 46, 59
2, 62404, Note_on_c, 0, 67, 59
2, 62411, Note_on_c, 0, 66, 0
2, 62629, Note_on_c, 0, 46, 0
2, 62642, Note_on_c, 0, 69, 58
2, 62648, Note_on_c, 0, 67, 0
2, 62874, Note_on_c, 0, 50, 58
2, 62884, Note_on_c, 0, 70, 58
2, 62903, Note_on_c, 0, 69, 0
2, 63111, Note_on_c, 0, 50, 0
2, 63123, Note_on_c, 0, 70, 0
2, 63126, Note_on_c, 0, 67, 58
2, 63361, Note_on_c, 0, 42, 58
2, 63364, Note_on_c, 0, 75, 58
2, 63369, Note_on_c, 0, 67, 0
2, 63591, Note_on_c, 0, 42, 0
2, 63604, Note_on_c, 0, 72, 57
2, 63606, Note_on_c, 0, 75, 0
2, 63839, Note_on_c, 0, 50, 57
2, 63849, Note_on_c, 0, 74, 57
2, 63852, Note_on_c, 0, 72, 0
2, 64081, Note_on_c, 0, 50, 0
2, 64086, Note_on_c, 0, 70, 57
2, 64321, Note_on_c, 0, 43, 57
2, 64325, Note_on_c, 0, 74, 0
2, 64328, Note_on_c, 0, 72, 57
2, 64330, Note_on_c, 0, 70, 0
2, 64558, Note_on_c, 0, 43, 0
2, 64562, Note_on_c, 0, 72, 0
2, 64566, Note_on_c, 0, 69, 56
2, 64796, Note_on_c, 0, 50, 56
2, 64804, Note_on_c, 0, 70, 56
2, 64806, Note_on_c, 0, 69, 0
2, 65032, Note_on_c, 0, 50, 0
2, 65033, Note_on_c, 0, 70, 0
2, 65038, Note_on_c, 0, 67, 56
2, 65276, Note_on_c, 0, 69, 56
2, 65278, Note_on_c, 0, 38, 56
2, 65291, Note_on_c, 0, 67, 0
2, 65540, Note_on_c, 0, 38, 0
2, 65551, Note_on_c, 0, 69, 0
2, 65758, Note_on_c, 0, 50, 59
2, 65764, Note_on_c, 0, 62, 59
2, 65996, Note_on_c, 0, 48, 61
2, 66002, Note_on_c, 0, 50, 0
2, 66242, Note_on_c, 0, 46, 62
2, 66245, Note_on_c, 0, 67, 62
2, 66253, Note_on_c, 0, 48, 0
2, 66260, Note_on_c, 0, 62, 0
2, 66474, Note_on_c, 0, 46, 0
2, 66700, Note_on_c, 0, 67, 0
2, 66717, Note_on_c, 0, 45, 66
2, 66719, Note_on_c, 0, 70, 66
2, 66951, Note_on_c, 0, 45, 0
2, 66954, Note_on_c, 0, 69, 67
2, 66959, Note_on_c, 0, 70, 0
2, 67196, Note_on_c, 0, 70, 69
2, 67200, Note_on_c, 0, 43, 69
2, 67203, Note_on_c, 0, 69, 0
2, 67437, Note_on_c, 0, 66, 71
2, 67444, Note_on_c, 0, 70, 0
2, 67535, Note_on_c, 0, 43, 0
2, 67672, Note_on_c, 0, 67, 72
2, 67679, Note_on_c, 0, 66, 0
2, 67916, Note_on_c, 0, 62, 74
2, 67929, Note_on_c, 0, 67, 0
2, 68161, Note_on_c, 0, 41, 76
2, 68164, Note_on_c, 0, 71, 76
2, 68175, Note_on_c, 0, 62, 0
2, 68401, Note_on_c, 0, 65, 77
2, 68412, Note_on_c, 0, 71, 0
2, 68413, Note_on_c, 0, 41, 0
2, 68639, Note_on_c, 0, 67, 79
2, 68650, Note_on_c, 0, 65, 0
2, 68877, Note_on_c, 0, 62, 81
2, 68885, Note_on_c, 0, 67, 0
2, 69121, Note_on_c, 0, 39, 82
2, 69124, Note_on_c, 0, 72, 82
2, 69134, Note_on_c, 0, 62, 0
2, 69359, Note_on_c, 0, 39, 0
2, 69368, Note_on_c, 0, 62, 84
2, 69370, Note_on_c, 0, 72, 0
2, 69605, Note_on_c, 0, 63, 86
2, 69606, Note_on_c, 0, 55, 86
2, 69611, Note_on_c, 0, 62, 0
2, 69835, Note_on_c, 0, 53, 87
2, 69838, Note_on_c, 0, 55, 0
2, 69843, Note_on_c, 0, 67, 87
2, 69851, Note_on_c, 0, 63, 0
2, 70078, Note_on_c, 0, 51, 89
2, 70089, Note_on_c, 0, 67, 0
2, 70090, Note_on_c, 0, 53, 0
2, 70116, Note_on_c, 0, 72, 89
2, 70326, Note_on_c, 0, 51, 0
2, 70338, Note_on_c, 0, 67, 91
2, 70362, Note_on_c, 0, 72, 0
2, 70554, Note_on_c, 0, 50, 92
2, 70571, Note_on_c, 0, 74, 93
2, 70572, Note_on_c, 0, 67, 0
2, 70805, Note_on_c, 0, 74, 0
2, 70807, Note_on_c, 0, 50, 0
2, 70810, Note_on_c, 0, 67, 94
2, 71036, Note_on_c, 0, 48, 96
2, 71038, Note_on_c, 0, 67, 0
2, 71043, Note_on_c, 0, 75, 96
2, 71288, Note_on_c, 0, 71, 98
2, 71291, Note_on_c, 0, 75, 0
2, 71395, Note_on_c, 0, 48, 0
2, 71525, Note_on_c, 0, 72, 99
2, 71529, Note_on_c, 0, 71, 0
2, 71764, Note_on_c, 0, 67, 101
2, 71765, Note_on_c, 0, 72, 0
2, 72001, Note_on_c, 0, 46, 103
2, 72003, Note_on_c, 0, 76, 103
2, 72010, Note_on_c, 0, 67, 0
2, 72244, Note_on_c, 0, 70, 104
2, 72257, Note_on_c, 0, 76, 0
2, 72348, Note_on_c, 0, 46, 0
2, 72483, Note_on_c, 0, 72, 106
2, 72495, Note_on_c, 0, 70, 0
2, 72728, Note_on_c, 0, 67, 108
2, 72734, Note_on_c, 0, 72, 0
2, 72954, Note_on_c, 0, 45, 109
2, 72968, Note_on_c, 0, 77, 109
2, 72975, Note_on_c, 0, 67, 0
2, 73203, Note_on_c, 0, 45, 0
2, 73210, Note_on_c, 0, 67, 110
2, 73319, Note_on_c, 0, 77, 0
2, 73441, Note_on_c, 0, 67, 0
2, 73442, Note_on_c, 0, 60, 111
2, 73445, Note_on_c, 0, 69, 111
2, 73672, Note_on_c, 0, 69, 0
2, 73677, Note_on_c, 0, 58, 111
2, 73679, Note_on_c, 0, 72, 111
2, 73681, Note_on_c, 0, 60, 0
2, 73917, Note_on_c, 0, 57, 112
2, 73921, Note_on_c, 0, 58, 0
2, 73927, Note_on_c, 0, 78, 112
2, 73939, Note_on_c, 0, 72, 0
2, 74150, Note_on_c, 0, 57, 0
2, 74160, Note_on_c, 0, 78, 0
2, 74165, Note_on_c, 0, 72, 112
2, 74392, Note_on_c, 0, 55, 113
2, 74404, Note_on_c, 0, 79, 113
2, 74413, Note_on_c, 0, 72, 0
2, 74633, Note_on_c, 0, 55, 0
2, 74634, Note_on_c, 0, 79, 0
2, 74642, Note_on_c, 0, 72, 113
2, 74876, Note_on_c, 0, 81, 114
2, 74877, Note_on_c, 0, 54, 114
2, 74887, Note_on_c, 0, 72, 0
2, 75121, Note_on_c, 0, 76, 114
2, 75134, Note_on_c, 0, 81, 0
2, 75346, Note_on_c, 0, 54, 0
2, 75361, Note_on_c, 0, 78, 115
2, 75372, Note_on_c, 0, 76, 0
2, 75600, Note_on_c, 0, 78, 0
2, 75602, Note_on_c, 0, 74, 116
2, 75838, Note_on_c, 0, 52, 116
2, 75843, Note_on_c, 0, 82, 116
2, 75855, Note_on_c, 0, 74, 0
2, 76082, Note_on_c, 0, 78, 117
2, 76094, Note_on_c, 0, 82, 0
2, 76200, Note_on_c, 0, 52, 0
2, 76324, Note_on_c, 0, 79, 117
2, 76339, Note_on_c, 0, 78, 0
2, 76563, Note_on_c, 0, 74, 118
2, 76564, Note_on_c, 0, 79, 0
2, 76804, Note_on_c, 0, 84, 118
2, 76805, Note_on_c, 0, 50, 118
2, 76821, Note_on_c, 0, 74, 0
2, 77045, Note_on_c, 0, 81, 118
2, 77056, Note_on_c, 0, 84, 0
2, 77276, Note_on_c, 0, 54, 114
2, 77277, Note_on_c, 0, 50, 0
2, 77289, Note_on_c, 0, 74, 114
2, 77301, Note_on_c, 0, 81, 0
2, 77524, Note_on_c, 0, 84, 111
2, 77531, Note_on_c, 0, 74, 0
2, 77764, Note_on_c, 0, 55, 108
2, 77767, Note_on_c, 0, 82, 108
2, 77778, Note_on_c, 0, 84, 0
2, 77779, Note_on_c, 0, 54, 0
2, 78006, Note_on_c, 0, 81, 105
2, 78015, Note_on_c, 0, 82, 0
2, 78238, Note_on_c, 0, 57, 102
2, 78240, Note_on_c, 0, 55, 0
2, 78248, Note_on_c, 0, 81, 0
2, 78249, Note_on_c, 0, 79, 102
2, 78483, Note_on_c, 0, 78, 99
2, 78485, Note_on_c, 0, 79, 0
2, 78718, Note_on_c, 0, 58, 96
2, 78727, Note_on_c, 0, 79, 95
2, 78728, Note_on_c, 0, 57, 0
2, 78737, Note_on_c, 0, 78, 0
2, 78963, Note_on_c, 0, 74, 92
2, 78965, Note_on_c, 0, 79, 0
2, 79195, Note_on_c, 0, 60, 89
2, 79201, Note_on_c, 0, 75, 89
2, 79204, Note_on_c, 0, 58, 0
2, 79212, Note_on_c, 0, 74, 0
2, 79437, Note_on_c, 0, 75, 0
2, 79441, Note_on_c, 0, 72, 86
2, 79679, Note_on_c, 0, 62, 83
2, 79683, Note_on_c, 0, 60, 0
2, 79688, Note_on_c, 0, 70, 83
2, 79690, Note_on_c, 0, 72, 0
2, 79725, Note_on_c, 0, 72, 82
2, 79768, Note_on_c, 0, 70, 0
2, 79786, Note_on_c, 0, 70, 81
2, 79805, Note_on_c, 0, 72, 0
2, 80158, Note_on_c, 0, 50, 77
2, 80161, Note_on_c, 0, 62, 0
2, 80162, Note_on_c, 0, 70, 0
2, 80177, Note_on_c, 0, 69, 76
2, 80412, Note_on_c, 0, 69, 0
2, 80413, Note_on_c, 0, 67, 73
2, 80550, Note_on_c, 0, 67, 0
2, 80633, Note_on_c, 0, 50, 0
2, 80650, Note_on_c, 0, 43, 70
2, 80657, Note_on_c, 0, 67, 70
2, 81586, Note_on_c, 0, 43, 0
2, 81593, Note_on_c, 0, 67, 0
2, 81602, Note_on_c, 0, 74, 65
2, 81607, Note_on_c, 0, 58, 65
2, 81904, Note_on_c, 0, 58, 0
2, 82077, Note_on_c, 0, 60, 65
2, 82084, Note_on_c, 0, 77, 65
2, 82093, Note_on_c, 0, 74, 0
2, 82319, Note_on_c, 0, 75, 65
2, 82322, Note_on_c, 0, 77, 0
2, 82544, Note_on_c, 0, 60, 0
2, 82557, Note_on_c, 0, 62, 65
2, 82560, Note_on_c, 0, 75, 0
2, 82561, Note_on_c, 0, 77, 65
2, 82928, Note_on_c, 0, 77, 0
2, 83039, Note_on_c, 0, 58, 65
2, 83048, Note_on_c, 0, 74, 65
2, 83050, Note_on_c, 0, 62, 0
2, 83289, Note_on_c, 0, 70, 65
2, 83292, Note_on_c, 0, 74, 0
2, 83521, Note_on_c, 0, 63, 65
2, 83531, Note_on_c, 0, 58, 0
2, 83533, Note_on_c, 0, 79, 65
2, 83538, Note_on_c, 0, 70, 0
2, 83790, Note_on_c, 0, 79, 0
2, 83993, Note_on_c, 0, 63, 0
2, 83993, Note_on_c, 0, 60, 65
2, 84003, Note_on_c, 0, 75, 65
2, 84237, Note_on_c, 0, 70, 65
2, 84238, Note_on_c, 0, 75, 0
2, 84461, Note_on_c, 0, 60, 0
2, 84473, Note_on_c, 0, 62, 65
2, 84486, Note_on_c, 0, 77, 65
2, 84488, Note_on_c, 0, 70, 0
2, 84718, Note_on_c, 0, 60, 67
2, 84730, Note_on_c, 0, 62, 0
2, 84954, Note_on_c, 0, 58, 71
2, 84955, Note_on_c, 0, 60, 0
2, 85192, Note_on_c, 0, 58, 0
2, 85194, Note_on_c, 0, 57, 75
2, 85437, Note_on_c, 0, 55, 78
2, 85447, Note_on_c, 0, 57, 0
2, 85447, Note_on_c, 0, 82, 79
2, 85452, Note_on_c, 0, 77, 0
2, 85669, Note_on_c, 0, 55, 0
2, 85684, Note_on_c, 0, 81, 82
2, 85693, Note_on_c, 0, 82, 0
2, 85915, Note_on_c, 0, 53, 84
2, 85918, Note_on_c, 0, 79, 84
2, 85923, Note_on_c, 0, 81, 0
2, 86149, Note_on_c, 0, 53, 0
2, 86162, Note_on_c, 0, 81, 84
2, 86171, Note_on_c, 0, 79, 0
2, 86395, Note_on_c, 0, 81, 0
2, 86396, Note_on_c, 0, 52, 84
2, 86399, Note_on_c, 0, 82, 84
2, 86636, Note_on_c, 0, 79, 84
2, 86648, Note_on_c, 0, 82, 0
2, 86879, Note_on_c, 0, 76, 84
2, 86881, Note_on_c, 0, 48, 84
2, 86889, Note_on_c, 0, 79, 0
2, 86993, Note_on_c, 0, 52, 0
2, 87111, Note_on_c, 0, 48, 0
2, 87117, Note_on_c, 0, 72, 84
2, 87118, Note_on_c, 0, 76, 0
2, 87358, Note_on_c, 0, 82, 84
2, 87362, Note_on_c, 0, 50, 84
2, 87370, Note_on_c, 0, 72, 0
2, 87589, Note_on_c, 0, 50, 0
2, 87599, Note_on_c, 0, 81, 84
2, 87607, Note_on_c, 0, 82, 0
2, 87839, Note_on_c, 0, 79, 84
2, 87841, Note_on_c, 0, 52, 84
2, 87843, Note_on_c, 0, 81, 0
2, 88072, Note_on_c, 0, 52, 0
2, 88085, Note_on_c, 0, 81, 84
2, 88095, Note_on_c, 0, 79, 0
2, 88323, Note_on_c, 0, 53, 84
2, 88327, Note_on_c, 0, 82, 84
2, 88336, Note_on_c, 0, 81, 0
2, 88571, Note_on_c, 0, 81, 84
2, 88673, Note_on_c, 0, 82, 0
2, 88801, Note_on_c, 0, 55, 84
2, 88804, Note_on_c, 0, 53, 0
2, 88809, Note_on_c, 0, 79, 84
2, 88820, Note_on_c, 0, 81, 0
2, 89041, Note_on_c, 0, 57, 84
2, 89043, Note_on_c, 0, 79, 0
2, 89044, Note_on_c, 0, 77, 84
2, 89050, Note_on_c, 0, 55, 0
2, 89282, Note_on_c, 0, 58, 84
2, 89284, Note_on_c, 0, 77, 0
2, 89285, Note_on_c, 0, 79, 84
2, 89294, Note_on_c, 0, 57, 0
2, 89514, Note_on_c, 0, 58, 0
2, 89524, Note_on_c, 0, 77, 84
2, 89542, Note_on_c, 0, 79, 0
2, 89758, Note_on_c, 0, 55, 84
2, 89761, Note_on_c, 0, 76, 84
2, 89769, Note_on_c, 0, 77, 0
2, 90003, Note_on_c, 0, 55, 0
2, 90007, Note_on_c, 0, 77, 84
2, 90023, Note_on_c, 0, 76, 0
2, 90236, Note_on_c, 0, 52, 85
2, 90247, Note_on_c, 0, 79, 85
2, 90253, Note_on_c, 0, 77, 0
2, 90486, Note_on_c, 0, 76, 83
2, 90504, Note_on_c, 0, 79, 0
2, 90714, Note_on_c, 0, 45, 81
2, 90722, Note_on_c, 0, 73, 81
2, 90724, Note_on_c, 0, 52, 0
2, 90729, Note_on_c, 0, 76, 0
2, 90951, Note_on_c, 0, 45, 0
2, 90961, Note_on_c, 0, 69, 80
2, 90965, Note_on_c, 0, 73, 0
2, 91195, Note_on_c, 0, 69, 0
2, 91196, Note_on_c, 0, 79, 78
2, 91199, Note_on_c, 0, 47, 78
2, 91424, Note_on_c, 0, 47, 0
2, 91437, Note_on_c, 0, 77, 76
2, 91455, Note_on_c, 0, 79, 0
2, 91664, Note_on_c, 0, 77, 0
2, 91672, Note_on_c, 0, 76, 75
2, 91673, Note_on_c, 0, 49, 75
2, 91898, Note_on_c, 0, 49, 0
2, 91915, Note_on_c, 0, 77, 73
2, 91929, Note_on_c, 0, 76, 0
2, 92161, Note_on_c, 0, 79, 71
2, 92162, Note_on_c, 0, 50, 71
2, 92172, Note_on_c, 0, 77, 0
2, 92397, Note_on_c, 0, 77, 70
2, 92406, Note_on_c, 0, 79, 0
2, 92638, Note_on_c, 0, 76, 68
2, 92642, Note_on_c, 0, 38, 68
2, 92650, Note_on_c, 0, 50, 0
2, 92653, Note_on_c, 0, 77, 0
2, 92863, Note_on_c, 0, 38, 0
2, 92881, Note_on_c, 0, 76, 0
2, 92882, Note_on_c, 0, 74, 67
2, 93126, Note_on_c, 0, 81, 113
2, 93126, Note_on_c, 0, 62, 113
2, 93128, Note_on_c, 0, 74, 0
2, 93416, Note_on_c, 0, 81, 0
2, 93602, Note_on_c, 0, 81, 113
2, 93604, Note_on_c, 0, 62, 0
2, 93604, Note_on_c, 0, 65, 113
2, 93838, Note_on_c, 0, 64, 113
2, 93841, Note_on_c, 0, 65, 0
2, 93893, Note_on_c, 0, 81, 0
2, 94079, Note_on_c, 0, 65, 113
2, 94082, Note_on_c, 0, 64, 0
2, 94108, Note_on_c, 0, 81, 113
2, 94223, Note_on_c, 0, 82, 113
2, 94243, Note_on_c, 0, 81, 0
2, 94326, Note_on_c, 0, 81, 113
2, 94337, Note_on_c, 0, 82, 0
2, 94416, Note_on_c, 0, 82, 113
2, 94426, Note_on_c, 0, 81, 0
2, 94504, Note_on_c, 0, 81, 113
2, 94508, Note_on_c, 0, 82, 0
2, 94557, Note_on_c, 0, 62, 113
2, 94568, Note_on_c, 0, 65, 0
2, 94585, Note_on_c, 0, 82, 113
2, 94594, Note_on_c, 0, 81, 0
2, 94662, Note_on_c, 0, 81, 113
2, 94671, Note_on_c, 0, 82, 0
2, 94745, Note_on_c, 0, 82, 113
2, 94762, Note_on_c, 0, 81, 0
2, 94796, Note_on_c, 0, 57, 113
2, 94804, Note_on_c, 0, 62, 0
2, 94831, Note_on_c, 0, 81, 113
2, 94832, Note_on_c, 0, 82, 0
2, 94906, Note_on_c, 0, 82, 113
2, 94926, Note_on_c, 0, 81, 0
2, 94991, Note_on_c, 0, 81, 113
2, 94996, Note_on_c, 0, 82, 0
2, 95041, Note_on_c, 0, 64, 113
2, 95044, Note_on_c, 0, 57, 0
2, 95080, Note_on_c, 0, 82, 113
2, 95098, Note_on_c, 0, 81, 0
2, 95170, Note_on_c, 0, 82, 0
2, 95175, Note_on_c, 0, 81, 113
2, 95263, Note_on_c, 0, 82, 113
2, 95283, Note_on_c, 0, 81, 0
2, 95345, Note_on_c, 0, 82, 0
2, 95347, Note_on_c, 0, 81, 113
2, 95430, Note_on_c, 0, 82, 113
2, 95455, Note_on_c, 0, 81, 0
2, 95514, Note_on_c, 0, 61, 113
2, 95517, Note_on_c, 0, 82, 0
2, 95521, Note_on_c, 0, 64, 0
2, 95528, Note_on_c, 0, 81, 113
2, 95609, Note_on_c, 0, 82, 113
2, 95628, Note_on_c, 0, 81, 0
2, 95667, Note_on_c, 0, 81, 113
2, 95682, Note_on_c, 0, 82, 0
2, 95754, Note_on_c, 0, 57, 113
2, 95766, Note_on_c, 0, 61, 0
2, 95767, Note_on_c, 0, 81, 0
2, 95769, Note_on_c, 0, 82, 113
2, 95822, Note_on_c, 0, 81, 113
2, 95830, Note_on_c, 0, 82, 0
2, 95992, Note_on_c, 0, 62, 113
2, 96045, Note_on_c, 0, 57, 0
2, 96247, Note_on_c, 0, 77, 110
2, 96317, Note_on_c, 0, 81, 0
2, 96487, Note_on_c, 0, 79, 114
2, 96495, Note_on_c, 0, 77, 0
2, 96722, Note_on_c, 0, 81, 117
2, 96723, Note_on_c, 0, 79, 0
2, 96961, Note_on_c, 0, 82, 121
2, 96962, Note_on_c, 0, 55, 121
2, 96971, Note_on_c, 0, 81, 0
2, 96979, Note_on_c, 0, 62, 0
2, 97196, Note_on_c, 0, 55, 0
2, 97207, Note_on_c, 0, 81, 124
2, 97328, Note_on_c, 0, 82, 0
2, 97435, Note_on_c, 0, 57, 122
2, 97441, Note_on_c, 0, 79, 122
2, 97447, Note_on_c, 0, 81, 0
2, 97682, Note_on_c, 0, 79, 0
2, 97682, Note_on_c, 0, 57, 0
2, 97683, Note_on_c, 0, 77, 120
2, 97920, Note_on_c, 0, 77, 0
2, 97921, Note_on_c, 0, 58, 118
2, 97923, Note_on_c, 0, 76, 118
2, 98164, Note_on_c, 0, 74, 117
2, 98180, Note_on_c, 0, 76, 0
2, 98401, Note_on_c, 0, 55, 115
2, 98405, Note_on_c, 0, 73, 115
2, 98412, Note_on_c, 0, 74, 0
2, 98413, Note_on_c, 0, 58, 0
2, 98626, Note_on_c, 0, 55, 0
2, 98639, Note_on_c, 0, 74, 113
2, 98644, Note_on_c, 0, 73, 0
2, 98879, Note_on_c, 0, 57, 111
2, 98882, Note_on_c, 0, 79, 111
2, 98891, Note_on_c, 0, 74, 0
2, 99104, Note_on_c, 0, 57, 0
2, 99124, Note_on_c, 0, 77, 109
2, 99137, Note_on_c, 0, 79, 0
2, 99359, Note_on_c, 0, 45, 107
2, 99362, Note_on_c, 0, 76, 107
2, 99370, Note_on_c, 0, 77, 0
2, 99470, Note_on_c, 0, 45, 0
2, 99607, Note_on_c, 0, 77, 106
2, 99624, Note_on_c, 0, 76, 0
2, 99841, Note_on_c, 0, 38, 104
2, 99855, Note_on_c, 0, 74, 104
2, 99974, Note_on_c, 0, 77, 0
2, 100087, Note_on_c, 0, 50, 99
2, 100097, Note_on_c, 0, 38, 0
2, 100327, Note_on_c, 0, 51, 96
2, 100337, Note_on_c, 0, 50, 0
2, 100561, Note_on_c, 0, 53, 93
2, 100565, Note_on_c, 0, 51, 0
2, 100596, Note_on_c, 0, 74, 0
2, 100798, Note_on_c, 0, 55, 90
2, 100800, Note_on_c, 0, 53, 0
2, 100810, Note_on_c, 0, 74, 90
2, 101031, Note_on_c, 0, 55, 0
2, 101278, Note_on_c, 0, 55, 88
2, 101284, Note_on_c, 0, 77, 88
2, 101293, Note_on_c, 0, 74, 0
2, 101504, Note_on_c, 0, 55, 0
2, 101523, Note_on_c, 0, 75, 88
2, 101528, Note_on_c, 0, 77, 0
2, 101747, Note_on_c, 0, 55, 88
2, 101767, Note_on_c, 0, 77, 87
2, 101782, Note_on_c, 0, 75, 0
2, 101870, Note_on_c, 0, 56, 87
2, 101885, Note_on_c, 0, 55, 0
2, 102005, Note_on_c, 0, 56, 0
2, 102005, Note_on_c, 0, 55, 87
2, 102091, Note_on_c, 0, 56, 88
2, 102095, Note_on_c, 0, 55, 0
2, 102182, Note_on_c, 0, 55, 88
2, 102188, Note_on_c, 0, 56, 0
2, 102249, Note_on_c, 0, 74, 88
2, 102261, Note_on_c, 0, 77, 0
2, 102268, Note_on_c, 0, 56, 88
2, 102276, Note_on_c, 0, 55, 0
2, 102349, Note_on_c, 0, 55, 88
2, 102361, Note_on_c, 0, 56, 0
2, 102446, Note_on_c, 0, 56, 89
2, 102451, Note_on_c, 0, 55, 0
2, 102485, Note_on_c, 0, 71, 89
2, 102486, Note_on_c, 0, 74, 0
2, 102525, Note_on_c, 0, 55, 89
2, 102533, Note_on_c, 0, 56, 0
2, 102616, Note_on_c, 0, 56, 89
2, 102622, Note_on_c, 0, 55, 0
2, 102704, Note_on_c, 0, 55, 90
2, 102715, Note_on_c, 0, 56, 0
2, 102729, Note_on_c, 0, 80, 90
2, 102739, Note_on_c, 0, 71, 0
2, 102797, Note_on_c, 0, 56, 90
2, 102805, Note_on_c, 0, 55, 0
2, 102883, Note_on_c, 0, 55, 90
2, 102886, Note_on_c, 0, 56, 0
2, 102972, Note_on_c, 0, 55, 0
2, 102980, Note_on_c, 0, 56, 90
2, 103066, Note_on_c, 0, 55, 91
2, 103070, Note_on_c, 0, 56, 0
2, 103152, Note_on_c, 0, 56, 91
2, 103160, Note_on_c, 0, 55, 0
2, 103208, Note_on_c, 0, 77, 91
2, 103223, Note_on_c, 0, 80, 0
2, 103238, Note_on_c, 0, 55, 91
2, 103246, Note_on_c, 0, 56, 0
2, 103317, Note_on_c, 0, 56, 91
2, 103327, Note_on_c, 0, 55, 0
2, 103398, Note_on_c, 0, 55, 92
2, 103420, Note_on_c, 0, 56, 0
2, 103445, Note_on_c, 0, 77, 0
2, 103447, Note_on_c, 0, 74, 92
2, 103485, Note_on_c, 0, 56, 92
2, 103489, Note_on_c, 0, 55, 0
2, 103576, Note_on_c, 0, 55, 92
2, 103594, Note_on_c, 0, 56, 0
2, 103688, Note_on_c, 0, 75, 93
2, 103701, Note_on_c, 0, 74, 0
2, 104164, Note_on_c, 0, 72, 94
2, 104171, Note_on_c, 0, 75, 0
2, 104394, Note_on_c, 0, 72, 0
2, 104400, Note_on_c, 0, 67, 95
2, 104410, Note_on_c, 0, 55, 0
2, 104645, Note_on_c, 0, 55, 97
2, 104646, Note_on_c, 0, 79, 97
2, 104660, Note_on_c, 0, 67, 0
2, 104770, Note_on_c, 0, 55, 0
2, 105123, Note_on_c, 0, 55, 99
2, 105125, Note_on_c, 0, 75, 99
2, 105135, Note_on_c, 0, 79, 0
2, 105233, Note_on_c, 0, 55, 0
2, 105368, Note_on_c, 0, 72, 100
2, 105376, Note_on_c, 0, 75, 0
2, 105595, Note_on_c, 0, 55, 101
2, 105614, Note_on_c, 0, 74, 101
2, 105627, Note_on_c, 0, 72, 0
2, 106086, Note_on_c, 0, 70, 103
2, 106088, Note_on_c, 0, 74, 0
2, 106324, Note_on_c, 0, 70, 0
2, 106324, Note_on_c, 0, 67, 104
2, 106326, Note_on_c, 0, 55, 0
2, 106554, Note_on_c, 0, 55, 105
2, 106570, Note_on_c, 0, 79, 105
2, 106581, Note_on_c, 0, 67, 0
2, 106667, Note_on_c, 0, 55, 0
2, 107035, Note_on_c, 0, 79, 0
2, 107038, Note_on_c, 0, 55, 108
2, 107041, Note_on_c, 0, 74, 108
2, 107257, Note_on_c, 0, 55, 0
2, 107267, Note_on_c, 0, 74, 0
2, 107271, Note_on_c, 0, 70, 109
2, 107521, Note_on_c, 0, 55, 110
2, 107525, Note_on_c, 0, 72, 110
2, 107544, Note_on_c, 0, 70, 0
2, 108003, Note_on_c, 0, 69, 112
2, 108005, Note_on_c, 0, 72, 0
2, 108128, Note_on_c, 0, 55, 0
2, 108241, Note_on_c, 0, 66, 113
2, 108243, Note_on_c, 0, 69, 0
2, 108483, Note_on_c, 0, 55, 114
2, 108487, Note_on_c, 0, 75, 114
2, 108499, Note_on_c, 0, 66, 0
2, 108604, Note_on_c, 0, 55, 0
2, 108727, Note_on_c, 0, 55, 115
2, 108834, Note_on_c, 0, 55, 0
2, 108964, Note_on_c, 0, 72, 116
2, 108967, Note_on_c, 0, 55, 117
2, 108969, Note_on_c, 0, 75, 0
2, 109106, Note_on_c, 0, 55, 0
2, 109203, Note_on_c, 0, 69, 118
2, 109206, Note_on_c, 0, 72, 0
2, 109206, Note_on_c, 0, 55, 118
2, 109323, Note_on_c, 0, 55, 0
2, 109445, Note_on_c, 0, 74, 117
2, 109445, Note_on_c, 0, 55, 117
2, 109461, Note_on_c, 0, 69, 0
2, 109566, Note_on_c, 0, 55, 0
2, 109683, Note_on_c, 0, 55, 112
2, 109797, Note_on_c, 0, 55, 0
2, 109918, Note_on_c, 0, 55, 107
2, 109922, Note_on_c, 0, 70, 107
2, 109930, Note_on_c, 0, 74, 0
2, 110041, Note_on_c, 0, 55, 0
2, 110159, Note_on_c, 0, 55, 102
2, 110164, Note_on_c, 0, 67, 102
2, 110179, Note_on_c, 0, 70, 0
2, 110183, Note_on_c, 0, 55, 0
2, 110397, Note_on_c, 0, 72, 97
2, 110397, Note_on_c, 0, 55, 97
2, 110398, Note_on_c, 0, 67, 0
2, 110635, Note_on_c, 0, 54, 92
2, 110641, Note_on_c, 0, 69, 92
2, 110643, Note_on_c, 0, 55, 0
2, 110650, Note_on_c, 0, 72, 0
2, 110881, Note_on_c, 0, 55, 87
2, 110884, Note_on_c, 0, 70, 87
2, 110892, Note_on_c, 0, 54, 0
2, 110904, Note_on_c, 0, 69, 0
2, 111123, Note_on_c, 0, 67, 82
2, 111126, Note_on_c, 0, 70, 0
2, 111134, Note_on_c, 0, 55, 0
2, 111364, Note_on_c, 0, 50, 77
2, 111365, Note_on_c, 0, 69, 77
2, 111371, Note_on_c, 0, 67, 0
2, 111586, Note_on_c, 0, 50, 0
2, 111603, Note_on_c, 0, 62, 73
2, 111736, Note_on_c, 0, 69, 0
2, 111839, Note_on_c, 0, 64, 72
2, 111839, Note_on_c, 0, 48, 72
2, 111843, Note_on_c, 0, 62, 0
2, 112060, Note_on_c, 0, 48, 0
2, 112079, Note_on_c, 0, 66, 71
2, 112091, Note_on_c, 0, 64, 0
2, 112318, Note_on_c, 0, 46, 70
2, 112324, Note_on_c, 0, 67, 70
2, 112331, Note_on_c, 0, 66, 0
2, 112549, Note_on_c, 0, 46, 0
2, 112562, Note_on_c, 0, 69, 69
2, 112568, Note_on_c, 0, 67, 0
2, 112794, Note_on_c, 0, 50, 69
2, 112804, Note_on_c, 0, 70, 69
2, 112823, Note_on_c, 0, 69, 0
2, 113031, Note_on_c, 0, 50, 0
2, 113043, Note_on_c, 0, 70, 0
2, 113046, Note_on_c, 0, 67, 68
2, 113281, Note_on_c, 0, 42, 67
2, 113284, Note_on_c, 0, 75, 67
2, 113289, Note_on_c, 0, 67, 0
2, 113511, Note_on_c, 0, 42, 0
2, 113524, Note_on_c, 0, 72, 66
2, 113526, Note_on_c, 0, 75, 0
2, 113759, Note_on_c, 0, 50, 65
2, 113769, Note_on_c, 0, 74, 65
2, 113772, Note_on_c, 0, 72, 0
2, 114001, Note_on_c, 0, 50, 0
2, 114006, Note_on_c, 0, 70, 64
2, 114241, Note_on_c, 0, 43, 63
2, 114245, Note_on_c, 0, 74, 0
2, 114248, Note_on_c, 0, 72, 63
2, 114250, Note_on_c, 0, 70, 0
2, 114478, Note_on_c, 0, 43, 0
2, 114482, Note_on_c, 0, 72, 0
2, 114486, Note_on_c, 0, 69, 62
2, 114716, Note_on_c, 0, 50, 61
2, 114724, Note_on_c, 0, 70, 61
2, 114726, Note_on_c, 0, 69, 0
2, 114952, Note_on_c, 0, 50, 0
2, 114953, Note_on_c, 0, 70, 0
2, 114958, Note_on_c, 0, 67, 60
2, 115196, Note_on_c, 0, 69, 60
2, 115198, Note_on_c, 0, 38, 60
2, 115211, Note_on_c, 0, 67, 0
2, 115460, Note_on_c, 0, 38, 0
2, 115471, Note_on_c, 0, 69, 0
2, 115678, Note_on_c, 0, 50, 59
2, 115684, Note_on_c, 0, 62, 59
2, 115916, Note_on_c, 0, 48, 61
2, 115922, Note_on_c, 0, 50, 0
2, 116162, Note_on_c, 0, 46, 62
2, 116165, Note_on_c, 0, 67, 62
2, 116173, Note_on_c, 0, 48, 0
2, 116180, Note_on_c, 0, 62, 0
2, 116394, Note_on_c, 0, 46, 0
2, 116620, Note_on_c, 0, 67, 0
2, 116637, Note_on_c, 0, 45, 66
2, 116639, Note_on_c, 0, 70, 66
2, 116871, Note_on_c, 0, 45, 0
2, 116874, Note_on_c, 0, 69, 67
2, 116879, Note_on_c, 0, 70, 0
2, 117116, Note_on_c, 0, 70, 69
2, 117120, Note_on_c, 0, 43, 69
2, 117123, Note_on_c, 0, 69, 0
2, 117357, Note_on_c, 0, 66, 71
2, 117364, Note_on_c, 0, 70, 0
2, 117455, Note_on_c, 0, 43, 0
2, 117592, Note_on_c, 0, 67, 72
2, 117599, Note_on_c, 0, 66, 0
2, 117836, Note_on_c, 0, 62, 74
2, 117849, Note_on_c, 0, 67, 0
2, 118081, Note_on_c, 0, 41, 76
2, 118084, Note_on_c, 0, 71, 76
2, 118095, Note_on_c, 0, 62, 0
2, 118321, Note_on_c, 0, 65, 77
2, 118332, Note_on_c, 0, 71, 0
2, 118333, Note_on_c, 0, 41, 0
2, 118559, Note_on_c, 0, 67, 79
2, 118570, Note_on_c, 0, 65, 0
2, 118797, Note_on_c, 0, 62, 81
2, 118805, Note_on_c, 0, 67, 0
2, 119041, Note_on_c, 0, 39, 82
2, 119044, Note_on_c, 0, 72, 82
2, 119054, Note_on_c, 0, 62, 0
2, 119279, Note_on_c, 0, 39, 0
2, 119288, Note_on_c, 0, 62, 84
2, 119290, Note_on_c, 0, 72, 0
2, 119525, Note_on_c, 0, 63, 86
2, 119526, Note_on_c, 0, 55, 86
2, 119531, Note_on_c, 0, 62, 0
2, 119755, Note_on_c, 0, 53, 87
2, 119758, Note_on_c, 0, 55, 0
2, 119763, Note_on_c, 0, 67, 87
2, 119771, Note_on_c, 0, 63, 0
2, 119998, Note_on_c, 0, 51, 89
2, 120009, Note_on_c, 0, 67, 0
2, 120010, Note_on_c, 0, 53, 0
2, 120036, Note_on_c, 0, 72, 89
2, 120246, Note_on_c, 0, 51, 0
2, 120258, Note_on_c, 0, 67, 91
2, 120282, Note_on_c, 0, 72, 0
2, 120474, Note_on_c, 0, 50, 92
2, 120491, Note_on_c, 0, 74, 93
2, 120492, Note_on_c, 0, 67, 0
2, 120725, Note_on_c, 0, 74, 0
2, 120727, Note_on_c, 0, 50, 0
2, 120730, Note_on_c, 0, 67, 94
2, 120956, Note_on_c, 0, 48, 96
2, 120958, Note_on_c, 0, 67, 0
2, 120963, Note_on_c, 0, 75, 96
2, 121208, Note_on_c, 0, 71, 98
2, 121211, Note_on_c, 0, 75, 0
2, 121315, Note_on_c, 0, 48, 0
2, 121445, Note_on_c, 0, 72, 99
2, 121449, Note_on_c, 0, 71, 0
2, 121684, Note_on_c, 0, 67, 101
2, 121685, Note_on_c, 0, 72, 0
2, 121921, Note_on_c, 0, 46, 103
2, 121923, Note_on_c, 0, 76, 103
2, 121930, Note_on_c, 0, 67, 0
2, 122164, Note_on_c, 0, 70, 104
2, 122177, Note_on_c, 0, 76, 0
2, 122268, Note_on_c, 0, 46, 0
2, 122403, Note_on_c, 0, 72, 106
2, 122415, Note_on_c, 0, 70, 0
2, 122648, Note_on_c, 0, 67, 108
2, 122654, Note_on_c, 0, 72, 0
2, 122874, Note_on_c, 0, 45, 109
2, 122888, Note_on_c, 0, 77, 109
2, 122895, Note_on_c, 0, 67, 0
2, 123123, Note_on_c, 0, 45, 0
2, 123130, Note_on_c, 0, 67, 110
2, 123239, Note_on_c, 0, 77, 0
2, 123361, Note_on_c, 0, 67, 0
2, 123362, Note_on_c, 0, 60, 111
2, 123365, Note_on_c, 0, 69, 111
2, 123592, Note_on_c, 0, 69, 0
2, 123597, Note_on_c, 0, 58, 111
2, 123599, Note_on_c, 0, 72, 111
2, 123601, Note_on_c, 0, 60, 0
2, 123837, Note_on_c, 0, 57, 112
2, 123841, Note_on_c, 0, 58, 0
2, 123847, Note_on_c, 0, 78, 112
2, 123859, Note_on_c, 0, 72, 0
2, 124070, Note_on_c, 0, 57, 0
2, 124080, Note_on_c, 0, 78, 0
2, 124085, Note_on_c, 0, 72, 112
2, 124312, Note_on_c, 0, 55, 113
2, 124324, Note_on_c, 0, 79, 113
2, 124333, Note_on_c, 0, 72, 0
2, 124553, Note_on_c, 0, 55, 0
2, 124554, Note_on_c, 0, 79, 0
2, 124562, Note_on_c, 0, 72, 113
2, 124796, Note_on_c, 0, 81, 114
2, 124797, Note_on_c, 0, 54, 114
2, 124807, Note_on_c, 0, 72, 0
2, 125041, Note_on_c, 0, 76, 114
2, 125054, Note_on_c, 0, 81, 0
2, 125266, Note_on_c, 0, 54, 0
2, 125281, Note_on_c, 0, 78, 115
2, 125292, Note_on_c, 0, 76, 0
2, 125520, Note_on_c, 0, 78, 0
2, 125522, Note_on_c, 0, 74, 116
2, 125758, Note_on_c, 0, 52, 116
2, 125763, Note_on_c, 0, 82, 116
2, 125775, Note_on_c, 0, 74, 0
2, 126002, Note_on_c, 0, 78, 117
2, 126014, Note_on_c, 0, 82, 0
2, 126120, Note_on_c, 0, 52, 0
2, 126244, Note_on_c, 0, 79, 117
2, 126259, Note_on_c, 0, 78, 0
2, 126483, Note_on_c, 0, 74, 118
2, 126484, Note_on_c, 0, 79, 0
2, 126724, Note_on_c, 0, 84, 118
2, 126725, Note_on_c, 0, 50, 118
2, 126741, Note_on_c, 0, 74, 0
2, 126965, Note_on_c, 0, 81, 118
2, 126976, Note_on_c, 0, 84, 0
2, 127196, Note_on_c, 0, 54, 118
2, 127197, Note_on_c, 0, 50, 0
2, 127209, Note_on_c, 0, 74, 118
2, 127221, Note_on_c, 0, 81, 0
2, 127444, Note_on_c, 0, 84, 118
2, 127451, Note_on_c, 0, 74, 0
2, 127684, Note_on_c, 0, 55, 118
2, 127687, Note_on_c, 0, 82, 118
2, 127698, Note_on_c, 0, 84, 0
2, 127699, Note_on_c, 0, 54, 0
2, 127926, Note_on_c, 0, 81, 119
2, 127935, Note_on_c, 0, 82, 0
2, 128158, Note_on_c, 0, 57, 119
2, 128160, Note_on_c, 0, 55, 0
2, 128168, Note_on_c, 0, 81, 0
2, 128169, Note_on_c, 0, 79, 119
2, 128403, Note_on_c, 0, 78, 119
2, 128405, Note_on_c, 0, 79, 0
2, 128638, Note_on_c, 0, 58, 119
2, 128647, Note_on_c, 0, 79, 119
2, 128648, Note_on_c, 0, 57, 0
2, 128657, Note_on_c, 0, 78, 0
2, 128883, Note_on_c, 0, 74, 120
2, 128885, Note_on_c, 0, 79, 0
2, 129115, Note_on_c, 0, 60, 120
2, 129121, Note_on_c, 0, 75, 120
2, 129124, Note_on_c, 0, 58, 0
2, 129132, Note_on_c, 0, 74, 0
2, 129357, Note_on_c, 0, 75, 0
2, 129361, Note_on_c, 0, 72, 120
2, 129599, Note_on_c, 0, 62, 120
2, 129603, Note_on_c, 0, 60, 0
2, 129608, Note_on_c, 0, 70, 120
2, 129610, Note_on_c, 0, 72, 0
2, 129645, Note_on_c, 0, 72, 120
2, 129688, Note_on_c, 0, 70, 0
2, 129706, Note_on_c, 0, 70, 120
2, 129725, Note_on_c, 0, 72, 0
2, 130078, Note_on_c, 0, 50, 121
2, 130081, Note_on_c, 0, 62, 0
2, 130082, Note_on_c, 0, 70, 0
2, 130097, Note_on_c, 0, 69, 121
2, 130332, Note_on_c, 0, 69, 0
2, 130333, Note_on_c, 0, 67, 121
2, 130470, Note_on_c, 0, 67, 0
2, 130553, Note_on_c, 0, 50, 0
2, 130570, Note_on_c, 0, 43, 121
2, 130577, Note_on_c, 0, 67, 121
2, 131506, Note_on_c, 0, 43, 0
2, 131513, Note_on_c, 0, 67, 0
2, 131526, Note_on_c, 0, 55, 59
2, 131528, Note_on_c, 0, 62, 59
2, 131529, Note_on_c, 0, 59, 59
2, 132008, Note_on_c, 0, 64, 59
2, 132009, Note_on_c, 0, 57, 59
2, 132010, Note_on_c, 0, 62, 0
2, 132012, Note_on_c, 0, 59, 0
2, 132247, Note_on_c, 0, 60, 59
2, 132255, Note_on_c, 0, 64, 0
2, 132486, Note_on_c, 0, 57, 0
2, 132489, Note_on_c, 0, 60, 0
2, 132490, Note_on_c, 0, 59, 59
2, 132492, Note_on_c, 0, 62, 59
2, 132967, Note_on_c, 0, 60, 59
2, 132967, Note_on_c, 0, 67, 59
2, 132971, Note_on_c, 0, 62, 0
2, 132971, Note_on_c, 0, 59, 0
2, 133207, Note_on_c, 0, 69, 59
2, 133217, Note_on_c, 0, 67, 0
2, 133446, Note_on_c, 0, 62, 59
2, 133449, Note_on_c, 0, 71, 59
2, 133451, Note_on_c, 0, 60, 0
2, 133453, Note_on_c, 0, 69, 0
2, 133926, Note_on_c, 0, 69, 59
2, 133928, Note_on_c, 0, 60, 59
2, 133930, Note_on_c, 0, 71, 0
2, 133935, Note_on_c, 0, 62, 0
2, 134163, Note_on_c, 0, 66, 59
2, 134175, Note_on_c, 0, 69, 0
2, 134395, Note_on_c, 0, 60, 0
2, 134399, Note_on_c, 0, 67, 59
2, 134402, Note_on_c, 0, 59, 59
2, 134403, Note_on_c, 0, 66, 0
2, 134877, Note_on_c, 0, 59, 0
2, 134878, Note_on_c, 0, 62, 59
2, 134882, Note_on_c, 0, 60, 59
2, 134892, Note_on_c, 0, 67, 0
2, 135354, Note_on_c, 0, 60, 0
2, 135358, Note_on_c, 0, 59, 59
2, 135361, Note_on_c, 0, 62, 0
2, 135365, Note_on_c, 0, 67, 59
2, 135834, Note_on_c, 0, 57, 59
2, 135841, Note_on_c, 0, 59, 0
2, 135844, Note_on_c, 0, 69, 59
2, 135845, Note_on_c, 0, 67, 0
2, 136087, Note_on_c, 0, 66, 59
2, 136097, Note_on_c, 0, 69, 0
2, 136313, Note_on_c, 0, 59, 61
2, 136317, Note_on_c, 0, 66, 0
2, 136318, Note_on_c, 0, 57, 0
2, 136321, Note_on_c, 0, 67, 61
2, 136558, Note_on_c, 0, 69, 64
2, 136562, Note_on_c, 0, 67, 0
2, 136801, Note_on_c, 0, 60, 66
2, 136802, Note_on_c, 0, 71, 66
2, 136810, Note_on_c, 0, 69, 0
2, 136816, Note_on_c, 0, 59, 0
2, 137037, Note_on_c, 0, 72, 69
2, 137046, Note_on_c, 0, 71, 0
2, 137276, Note_on_c, 0, 59, 72
2, 137277, Note_on_c, 0, 72, 0
2, 137280, Note_on_c, 0, 60, 0
2, 137281, Note_on_c, 0, 74, 72
2, 137518, Note_on_c, 0, 74, 0
2, 137519, Note_on_c, 0, 71, 75
2, 137753, Note_on_c, 0, 57, 70
2, 137758, Note_on_c, 0, 72, 70
2, 137760, Note_on_c, 0, 71, 0
2, 137762, Note_on_c, 0, 59, 0
2, 137998, Note_on_c, 0, 69, 65
2, 138001, Note_on_c, 0, 72, 0
2, 138009, Note_on_c, 0, 55, 0
2, 138241, Note_on_c, 0, 55, 60
2, 138249, Note_on_c, 0, 71, 60
2, 138259, Note_on_c, 0, 57, 0
2, 138342, Note_on_c, 0, 69, 0
2, 138765, Note_on_c, 0, 71, 0
2, 138973, Note_on_c, 0, 55, 0
2, 139162, Note_on_c, 0, 62, 91
2, 139217, Note_on_c, 0, 62, 0
2, 139229, Note_on_c, 0, 59, 91
2, 139234, Note_on_c, 0, 55, 91
2, 139234, Note_on_c, 0, 60, 91
2, 139328, Note_on_c, 0, 62, 91
2, 139333, Note_on_c, 0, 60, 0
2, 139715, Note_on_c, 0, 57, 91
2, 139728, Note_on_c, 0, 62, 0
2, 139733, Note_on_c, 0, 59, 0
2, 139734, Note_on_c, 0, 64, 91
2, 139955, Note_on_c, 0, 60, 91
2, 139965, Note_on_c, 0, 64, 0
2, 140186, Note_on_c, 0, 57, 0
2, 140188, Note_on_c, 0, 60, 0
2, 140204, Note_on_c, 0, 62, 91
2, 140214, Note_on_c, 0, 59, 91
2, 140632, Note_on_c, 0, 67, 91
2, 140637, Note_on_c, 0, 62, 0
2, 140642, Note_on_c, 0, 59, 0
2, 140642, Note_on_c, 0, 60, 91
2, 140863, Note_on_c, 0, 69, 91
2, 140898, Note_on_c, 0, 67, 0
2, 141132, Note_on_c, 0, 60, 0
2, 141132, Note_on_c, 0, 71, 91
2, 141137, Note_on_c, 0, 62, 91
2, 141144, Note_on_c, 0, 69, 0
2, 141560, Note_on_c, 0, 60, 91
2, 141577, Note_on_c, 0, 71, 0
2, 141585, Note_on_c, 0, 69, 91
2, 141595, Note_on_c, 0, 62, 0
2, 141790, Note_on_c, 0, 66, 91
2, 141822, Note_on_c, 0, 69, 0
2, 141954, Note_on_c, 0, 66, 0
2, 141981, Note_on_c, 0, 67, 91
2, 142000, Note_on_c, 0, 60, 0
2, 142009, Note_on_c, 0, 59, 91
2, 142073, Note_on_c, 0, 66, 91
2, 142074, Note_on_c, 0, 67, 0
2, 142155, Note_on_c, 0, 67, 91
2, 142172, Note_on_c, 0, 66, 0
2, 142529, Note_on_c, 0, 59, 0
2, 142530, Note_on_c, 0, 60, 91
2, 142547, Note_on_c, 0, 67, 0
2, 142556, Note_on_c, 0, 62, 91
2, 142946, Note_on_c, 0, 62, 0
2, 142994, Note_on_c, 0, 67, 91
2, 143012, Note_on_c, 0, 59, 91
2, 143024, Note_on_c, 0, 60, 0
2, 143072, Note_on_c, 0, 66, 91
2, 143111, Note_on_c, 0, 67, 0
2, 143205, Note_on_c, 0, 67, 91
2, 143208, Note_on_c, 0, 66, 0
2, 143506, Note_on_c, 0, 57, 91
2, 143515, Note_on_c, 0, 59, 0
2, 143523, Note_on_c, 0, 67, 0
2, 143523, Note_on_c, 0, 69, 91
2, 143748, Note_on_c, 0, 66, 91
2, 143768, Note_on_c, 0, 69, 0
2, 143963, Note_on_c, 0, 66, 0
2, 143966, Note_on_c, 0, 67, 92
2, 143984, Note_on_c, 0, 59, 92
2, 144011, Note_on_c, 0, 57, 0
2, 144212, Note_on_c, 0, 69, 94
2, 144218, Note_on_c, 0, 67, 0
2, 144425, Note_on_c, 0, 60, 97
2, 144433, Note_on_c, 0, 59, 0
2, 144436, Note_on_c, 0, 71, 97
2, 144463, Note_on_c, 0, 69, 0
2, 144661, Note_on_c, 0, 72, 100
2, 144694, Note_on_c, 0, 71, 0
2, 144916, Note_on_c, 0, 72, 0
2, 144928, Note_on_c, 0, 74, 101
2, 144932, Note_on_c, 0, 60, 0
2, 144939, Note_on_c, 0, 59, 101
2, 145175, Note_on_c, 0, 71, 98
2, 145194, Note_on_c, 0, 74, 0
2, 145369, Note_on_c, 0, 57, 96
2, 145400, Note_on_c, 0, 72, 95
2, 145434, Note_on_c, 0, 59, 0
2, 145438, Note_on_c, 0, 71, 0
2, 145632, Note_on_c, 0, 69, 93
2, 145661, Note_on_c, 0, 72, 0
2, 145736, Note_on_c, 0, 55, 0
2, 145889, Note_on_c, 0, 55, 90
2, 145921, Note_on_c, 0, 71, 89
2, 145924, Note_on_c, 0, 57, 0
2, 145961, Note_on_c, 0, 69, 0
2, 146656, Note_on_c, 0, 55, 0
2, 146668, Note_on_c, 0, 71, 0
2, 146881, Note_on_c, 0, 59, 89
2, 146881, Note_on_c, 0, 74, 89
2, 146882, Note_on_c, 0, 55, 89
2, 147361, Note_on_c, 0, 57, 89
2, 147362, Note_on_c, 0, 76, 89
2, 147365, Note_on_c, 0, 74, 0
2, 147365, Note_on_c, 0, 59, 0
2, 147602, Note_on_c, 0, 72, 89
2, 147603, Note_on_c, 0, 76, 0
2, 147834, Note_on_c, 0, 57, 0
2, 147839, Note_on_c, 0, 59, 89
2, 147841, Note_on_c, 0, 72, 0
2, 147842, Note_on_c, 0, 74, 89
2, 148316, Note_on_c, 0, 74, 0
2, 148317, Note_on_c, 0, 59, 0
2, 148318, Note_on_c, 0, 64, 89
2, 148319, Note_on_c, 0, 72, 89
2, 148557, Note_on_c, 0, 72, 0
2, 148559, Note_on_c, 0, 69, 89
2, 148797, Note_on_c, 0, 69, 0
2, 148797, Note_on_c, 0, 64, 0
2, 148798, Note_on_c, 0, 62, 89
2, 148799, Note_on_c, 0, 71, 89
2, 149037, Note_on_c, 0, 71, 0
2, 149039, Note_on_c, 0, 67, 85
2, 149278, Note_on_c, 0, 67, 0
2, 149278, Note_on_c, 0, 62, 0
2, 149279, Note_on_c, 0, 60, 81
2, 149281, Note_on_c, 0, 69, 81
2, 149516, Note_on_c, 0, 69, 0
2, 149518, Note_on_c, 0, 66, 77
2, 149755, Note_on_c, 0, 60, 0
2, 149758, Note_on_c, 0, 59, 74
2, 149758, Note_on_c, 0, 67, 74
2, 149760, Note_on_c, 0, 66, 0
2, 150238, Note_on_c, 0, 57, 66
2, 150238, Note_on_c, 0, 62, 66
2, 150239, Note_on_c, 0, 67, 0
2, 150240, Note_on_c, 0, 59, 0
2, 150478, Note_on_c, 0, 59, 62
2, 150480, Note_on_c, 0, 57, 0
2, 150718, Note_on_c, 0, 64, 62
2, 150720, Note_on_c, 0, 59, 0
2, 150720, Note_on_c, 0, 62, 0
2, 150721, Note_on_c, 0, 60, 62
2, 150959, Note_on_c, 0, 62, 62
2, 150961, Note_on_c, 0, 64, 0
2, 151194, Note_on_c, 0, 60, 0
2, 151198, Note_on_c, 0, 59, 62
2, 151200, Note_on_c, 0, 62, 0
2, 151201, Note_on_c, 0, 67, 62
2, 151438, Note_on_c, 0, 67, 0
2, 151439, Note_on_c, 0, 62, 62
2, 151679, Note_on_c, 0, 59, 0
2, 151679, Note_on_c, 0, 60, 62
2, 151680, Note_on_c, 0, 62, 0
2, 151681, Note_on_c, 0, 64, 62
2, 151917, Note_on_c, 0, 64, 0
2, 151919, Note_on_c, 0, 62, 62
2, 152158, Note_on_c, 0, 60, 0
2, 152159, Note_on_c, 0, 67, 61
2, 152161, Note_on_c, 0, 62, 0
2, 152161, Note_on_c, 0, 59, 61
2, 152399, Note_on_c, 0, 67, 0
2, 152399, Note_on_c, 0, 62, 61
2, 152640, Note_on_c, 0, 62, 0
2, 152641, Note_on_c, 0, 60, 61
2, 152641, Note_on_c, 0, 64, 61
2, 152643, Note_on_c, 0, 59, 0
2, 152876, Note_on_c, 0, 64, 0
2, 152878, Note_on_c, 0, 62, 61
2, 152879, Note_on_c, 0, 60, 0
2, 153120, Note_on_c, 0, 60, 61
2, 153122, Note_on_c, 0, 69, 61
2, 153123, Note_on_c, 0, 62, 0
2, 153358, Note_on_c, 0, 60, 0
2, 153359, Note_on_c, 0, 57, 61
2, 153378, Note_on_c, 0, 69, 0
2, 153602, Note_on_c, 0, 60, 61
2, 153604, Note_on_c, 0, 66, 61
2, 153604, Note_on_c, 0, 69, 61
2, 153605, Note_on_c, 0, 57, 0
2, 154125, Note_on_c, 0, 66, 0
2, 154246, Note_on_c, 0, 69, 0
2, 154267, Note_on_c, 0, 60, 0
2, 154559, Note_on_c, 0, 60, 61
2, 154559, Note_on_c, 0, 69, 61
2, 155039, Note_on_c, 0, 71, 65
2, 155042, Note_on_c, 0, 60, 0
2, 155042, Note_on_c, 0, 62, 65
2, 155043, Note_on_c, 0, 69, 0
2, 155278, Note_on_c, 0, 67, 67
2, 155281, Note_on_c, 0, 71, 0
2, 155521, Note_on_c, 0, 72, 69
2, 155522, Note_on_c, 0, 64, 69
2, 155523, Note_on_c, 0, 62, 0
2, 155526, Note_on_c, 0, 67, 0
2, 156001, Note_on_c, 0, 62, 72
2, 156001, Note_on_c, 0, 71, 72
2, 156003, Note_on_c, 0, 64, 0
2, 156004, Note_on_c, 0, 72, 0
2, 156237, Note_on_c, 0, 71, 0
2, 156239, Note_on_c, 0, 67, 74
2, 156479, Note_on_c, 0, 60, 76
2, 156481, Note_on_c, 0, 62, 0
2, 156481, Note_on_c, 0, 76, 76
2, 156482, Note_on_c, 0, 67, 0
2, 156719, Note_on_c, 0, 76, 0
2, 156719, Note_on_c, 0, 72, 78
2, 156959, Note_on_c, 0, 59, 80
2, 156959, Note_on_c, 0, 74, 80
2, 156961, Note_on_c, 0, 60, 0
2, 156962, Note_on_c, 0, 72, 0
2, 157200, Note_on_c, 0, 74, 0
2, 157201, Note_on_c, 0, 71, 82
2, 157438, Note_on_c, 0, 57, 83
2, 157439, Note_on_c, 0, 71, 0
2, 157440, Note_on_c, 0, 59, 0
2, 157441, Note_on_c, 0, 72, 83
2, 157679, Note_on_c, 0, 71, 83
2, 157794, Note_on_c, 0, 72, 0
2, 157918, Note_on_c, 0, 59, 81
2, 157919, Note_on_c, 0, 71, 0
2, 157919, Note_on_c, 0, 57, 0
2, 157919, Note_on_c, 0, 69, 81
2, 158156, Note_on_c, 0, 69, 0
2, 158158, Note_on_c, 0, 67, 79
2, 158399, Note_on_c, 0, 60, 78
2, 158399, Note_on_c, 0, 69, 78
2, 158402, Note_on_c, 0, 67, 0
2, 158404, Note_on_c, 0, 59, 0
2, 158641, Note_on_c, 0, 71, 76
2, 158644, Note_on_c, 0, 69, 0
2, 158879, Note_on_c, 0, 62, 74
2, 158879, Note_on_c, 0, 72, 74
2, 158880, Note_on_c, 0, 71, 0
2, 158880, Note_on_c, 0, 60, 0
2, 159119, Note_on_c, 0, 71, 72
2, 159121, Note_on_c, 0, 72, 0
2, 159357, Note_on_c, 0, 62, 0
2, 159358, Note_on_c, 0, 60, 71
2, 159359, Note_on_c, 0, 69, 71
2, 159361, Note_on_c, 0, 71, 0
2, 159601, Note_on_c, 0, 67, 69
2, 159602, Note_on_c, 0, 69, 0
2, 159839, Note_on_c, 0, 64, 67
2, 159840, Note_on_c, 0, 67, 0
2, 159841, Note_on_c, 0, 66, 67
2, 159842, Note_on_c, 0, 60, 0
2, 160082, Note_on_c, 0, 67, 65
2, 160087, Note_on_c, 0, 66, 0
2, 160317, Note_on_c, 0, 64, 0
2, 160318, Note_on_c, 0, 67, 0
2, 160319, Note_on_c, 0, 62, 64
2, 160322, Note_on_c, 0, 69, 64
2, 160561, Note_on_c, 0, 67, 62
2, 160562, Note_on_c, 0, 69, 0
2, 160798, Note_on_c, 0, 67, 0
2, 160799, Note_on_c, 0, 60, 60
2, 160799, Note_on_c, 0, 66, 60
2, 160801, Note_on_c, 0, 62, 0
2, 161040, Note_on_c, 0, 64, 58
2, 161043, Note_on_c, 0, 66, 0
2, 161281, Note_on_c, 0, 62, 57
2, 161282, Note_on_c, 0, 59, 57
2, 161283, Note_on_c, 0, 64, 0
2, 161283, Note_on_c, 0, 60, 0
2, 161760, Note_on_c, 0, 59, 0
2, 161761, Note_on_c, 0, 60, 53
2, 161859, Note_on_c, 0, 62, 0
2, 162240, Note_on_c, 0, 60, 0
2, 162241, Note_on_c, 0, 59, 53
2, 162242, Note_on_c, 0, 62, 53
2, 162716, Note_on_c, 0, 62, 0
2, 162718, Note_on_c, 0, 59, 0
2, 162719, Note_on_c, 0, 57, 53
2, 162719, Note_on_c, 0, 64, 53
2, 162961, Note_on_c, 0, 60, 52
2, 162965, Note_on_c, 0, 64, 0
2, 163202, Note_on_c, 0, 59, 55
2, 163203, Note_on_c, 0, 62, 55
2, 163204, Note_on_c, 0, 57, 0
2, 163205, Note_on_c, 0, 60, 0
2, 163674, Note_on_c, 0, 62, 0
2, 163676, Note_on_c, 0, 59, 0
2, 163678, Note_on_c, 0, 67, 62
2, 163679, Note_on_c, 0, 60, 62
2, 163918, Note_on_c, 0, 69, 65
2, 163921, Note_on_c, 0, 67, 0
2, 164161, Note_on_c, 0, 62, 68
2, 164161, Note_on_c, 0, 71, 68
2, 164165, Note_on_c, 0, 60, 0
2, 164264, Note_on_c, 0, 69, 0
2, 164641, Note_on_c, 0, 60, 62
2, 164641, Note_on_c, 0, 69, 62
2, 164643, Note_on_c, 0, 62, 0
2, 164643, Note_on_c, 0, 71, 0
2, 164881, Note_on_c, 0, 66, 59
2, 164884, Note_on_c, 0, 69, 0
2, 165120, Note_on_c, 0, 60, 0
2, 165121, Note_on_c, 0, 67, 56
2, 165122, Note_on_c, 0, 66, 0
2, 165122, Note_on_c, 0, 59, 56
2, 165598, Note_on_c, 0, 59, 0
2, 165601, Note_on_c, 0, 62, 54
2, 165603, Note_on_c, 0, 67, 0
2, 165886, Note_on_c, 0, 62, 0
2, 166079, Note_on_c, 0, 71, 49
2, 166081, Note_on_c, 0, 62, 49
2, 166319, Note_on_c, 0, 66, 49
2, 166321, Note_on_c, 0, 62, 0
2, 166322, Note_on_c, 0, 71, 0
2, 166558, Note_on_c, 0, 67, 49
2, 166559, Note_on_c, 0, 66, 0
2, 166797, Note_on_c, 0, 67, 0
2, 166799, Note_on_c, 0, 62, 49
2, 167041, Note_on_c, 0, 59, 48
2, 167041, Note_on_c, 0, 74, 48
2, 167164, Note_on_c, 0, 62, 0
2, 167277, Note_on_c, 0, 74, 0
2, 167279, Note_on_c, 0, 66, 48
2, 167380, Note_on_c, 0, 59, 0
2, 167521, Note_on_c, 0, 67, 48
2, 167525, Note_on_c, 0, 66, 0
2, 167760, Note_on_c, 0, 67, 0
2, 167761, Note_on_c, 0, 62, 48
2, 168001, Note_on_c, 0, 71, 48
2, 168241, Note_on_c, 0, 66, 47
2, 168243, Note_on_c, 0, 62, 0
2, 168245, Note_on_c, 0, 71, 0
2, 168482, Note_on_c, 0, 67, 47
2, 168484, Note_on_c, 0, 66, 0
2, 168719, Note_on_c, 0, 67, 0
2, 168721, Note_on_c, 0, 62, 47
2, 168964, Note_on_c, 0, 67, 47
2, 169057, Note_on_c, 0, 59, 47
2, 169406, Note_on_c, 0, 67, 0
2, 169430, Note_on_c, 0, 62, 0
2, 169651, Note_on_c, 0, 59, 0
2, 169922, Note_on_c, 0, 55, 0
2, 169924, Note_on_c, 0, 55, 88
2, 169927, Note_on_c, 0, 59, 88
2, 169928, Note_on_c, 0, 74, 88
2, 170404, Note_on_c, 0, 57, 88
2, 170405, Note_on_c, 0, 76, 88
2, 170409, Note_on_c, 0, 74, 0
2, 170411, Note_on_c, 0, 59, 0
2, 170641, Note_on_c, 0, 72, 88
2, 170642, Note_on_c, 0, 76, 0
2, 170869, Note_on_c, 0, 57, 0
2, 170882, Note_on_c, 0, 59, 88
2, 170888, Note_on_c, 0, 74, 88
2, 170899, Note_on_c, 0, 72, 0
2, 171359, Note_on_c, 0, 72, 88
2, 171363, Note_on_c, 0, 59, 0
2, 171365, Note_on_c, 0, 64, 88
2, 171366, Note_on_c, 0, 74, 0
2, 171600, Note_on_c, 0, 69, 87
2, 171605, Note_on_c, 0, 72, 0
2, 171843, Note_on_c, 0, 69, 0
2, 171844, Note_on_c, 0, 71, 84
2, 171845, Note_on_c, 0, 62, 84
2, 171850, Note_on_c, 0, 64, 0
2, 172079, Note_on_c, 0, 67, 81
2, 172082, Note_on_c, 0, 71, 0
2, 172314, Note_on_c, 0, 67, 0
2, 172315, Note_on_c, 0, 62, 0
2, 172318, Note_on_c, 0, 69, 78
2, 172321, Note_on_c, 0, 60, 78
2, 172555, Note_on_c, 0, 66, 76
2, 172561, Note_on_c, 0, 69, 0
2, 172722, Note_on_c, 0, 67, 74
2, 172723, Note_on_c, 0, 66, 0
2, 172729, Note_on_c, 0, 60, 0
2, 172745, Note_on_c, 0, 59, 73
2, 172819, Note_on_c, 0, 67, 0
2, 172830, Note_on_c, 0, 66, 72
2, 172887, Note_on_c, 0, 67, 72
2, 172906, Note_on_c, 0, 66, 0
2, 173227, Note_on_c, 0, 59, 0
2, 173272, Note_on_c, 0, 57, 69
2, 173281, Note_on_c, 0, 62, 69
2, 173312, Note_on_c, 0, 67, 0
2, 173515, Note_on_c, 0, 59, 68
2, 173532, Note_on_c, 0, 57, 0
2, 173751, Note_on_c, 0, 62, 0
2, 173757, Note_on_c, 0, 60, 68
2, 173759, Note_on_c, 0, 59, 0
2, 173761, Note_on_c, 0, 64, 68
2, 174002, Note_on_c, 0, 62, 67
2, 174004, Note_on_c, 0, 64, 0
2, 174240, Note_on_c, 0, 60, 0
2, 174241, Note_on_c, 0, 59, 67
2, 174242, Note_on_c, 0, 67, 67
2, 174244, Note_on_c, 0, 62, 0
2, 174486, Note_on_c, 0, 62, 66
2, 174503, Note_on_c, 0, 67, 0
2, 174719, Note_on_c, 0, 62, 0
2, 174720, Note_on_c, 0, 59, 0
2, 174724, Note_on_c, 0, 60, 66
2, 174725, Note_on_c, 0, 64, 66
2, 174950, Note_on_c, 0, 64, 0
2, 174956, Note_on_c, 0, 62, 65
2, 175187, Note_on_c, 0, 60, 0
2, 175196, Note_on_c, 0, 59, 64
2, 175201, Note_on_c, 0, 67, 64
2, 175204, Note_on_c, 0, 62, 0
2, 175445, Note_on_c, 0, 62, 64
2, 175689, Note_on_c, 0, 60, 63
2, 175690, Note_on_c, 0, 62, 0
2, 175690, Note_on_c, 0, 64, 63
2, 175693, Note_on_c, 0, 67, 0
2, 175697, Note_on_c, 0, 59, 0
2, 175922, Note_on_c, 0, 64, 0
2, 175925, Note_on_c, 0, 62, 63
2, 175933, Note_on_c, 0, 60, 0
2, 176160, Note_on_c, 0, 62, 0
2, 176161, Note_on_c, 0, 60, 62
2, 176165, Note_on_c, 0, 69, 62
2, 176399, Note_on_c, 0, 57, 62
2, 176403, Note_on_c, 0, 60, 0
2, 176410, Note_on_c, 0, 69, 0
2, 176648, Note_on_c, 0, 60, 61
2, 176649, Note_on_c, 0, 69, 61
2, 176650, Note_on_c, 0, 66, 61
2, 176655, Note_on_c, 0, 57, 0
2, 177226, Note_on_c, 0, 66, 0
2, 177289, Note_on_c, 0, 60, 0
2, 177338, Note_on_c, 0, 69, 0
2, 177560, Note_on_c, 0, 69, 68
2, 177580, Note_on_c, 0, 60, 68
2, 177617, Note_on_c, 0, 69, 0
2, 177630, Note_on_c, 0, 67, 68
2, 177702, Note_on_c, 0, 69, 69
2, 177729, Note_on_c, 0, 67, 0
2, 178079, Note_on_c, 0, 62, 70
2, 178082, Note_on_c, 0, 60, 0
2, 178085, Note_on_c, 0, 71, 70
2, 178166, Note_on_c, 0, 69, 0
2, 178319, Note_on_c, 0, 71, 0
2, 178321, Note_on_c, 0, 67, 71
2, 178558, Note_on_c, 0, 72, 72
2, 178564, Note_on_c, 0, 64, 72
2, 178565, Note_on_c, 0, 67, 0
2, 178570, Note_on_c, 0, 62, 0
2, 179039, Note_on_c, 0, 71, 74
2, 179043, Note_on_c, 0, 62, 74
2, 179047, Note_on_c, 0, 64, 0
2, 179054, Note_on_c, 0, 72, 0
2, 179279, Note_on_c, 0, 71, 0
2, 179282, Note_on_c, 0, 67, 75
2, 179515, Note_on_c, 0, 62, 0
2, 179521, Note_on_c, 0, 60, 76
2, 179521, Note_on_c, 0, 76, 76
2, 179524, Note_on_c, 0, 67, 0
2, 179763, Note_on_c, 0, 72, 77
2, 179773, Note_on_c, 0, 76, 0
2, 179989, Note_on_c, 0, 60, 0
2, 179993, Note_on_c, 0, 59, 78
2, 180002, Note_on_c, 0, 74, 78
2, 180005, Note_on_c, 0, 72, 0
2, 180228, Note_on_c, 0, 74, 0
2, 180237, Note_on_c, 0, 71, 79
2, 180467, Note_on_c, 0, 57, 80
2, 180472, Note_on_c, 0, 59, 0
2, 180476, Note_on_c, 0, 71, 0
2, 180477, Note_on_c, 0, 72, 80
2, 180714, Note_on_c, 0, 71, 81
2, 180728, Note_on_c, 0, 72, 0
2, 180952, Note_on_c, 0, 59, 82
2, 180958, Note_on_c, 0, 69, 82
2, 180960, Note_on_c, 0, 57, 0
2, 180964, Note_on_c, 0, 71, 0
2, 181195, Note_on_c, 0, 67, 83
2, 181196, Note_on_c, 0, 69, 0
2, 181441, Note_on_c, 0, 60, 84
2, 181441, Note_on_c, 0, 69, 84
2, 181447, Note_on_c, 0, 67, 0
2, 181449, Note_on_c, 0, 59, 0
2, 181679, Note_on_c, 0, 71, 85
2, 181686, Note_on_c, 0, 69, 0
2, 181915, Note_on_c, 0, 72, 86
2, 181917, Note_on_c, 0, 62, 86
2, 181918, Note_on_c, 0, 71, 0
2, 181919, Note_on_c, 0, 60, 0
2, 182155, Note_on_c, 0, 71, 87
2, 182167, Note_on_c, 0, 72, 0
2, 182397, Note_on_c, 0, 60, 88
2, 182399, Note_on_c, 0, 62, 0
2, 182403, Note_on_c, 0, 69, 88
2, 182414, Note_on_c, 0, 71, 0
2, 182638, Note_on_c, 0, 69, 0
2, 182643, Note_on_c, 0, 67, 87
2, 182870, Note_on_c, 0, 60, 0
2, 182871, Note_on_c, 0, 67, 0
2, 182873, Note_on_c, 0, 64, 85
2, 182878, Note_on_c, 0, 66, 85
2, 183104, Note_on_c, 0, 66, 0
2, 183110, Note_on_c, 0, 67, 82
2, 183354, Note_on_c, 0, 62, 79
2, 183357, Note_on_c, 0, 69, 79
2, 183359, Note_on_c, 0, 64, 0
2, 183362, Note_on_c, 0, 67, 0
2, 183590, Note_on_c, 0, 69, 0
2, 183594, Note_on_c, 0, 67, 76
2, 183820, Note_on_c, 0, 62, 0
2, 183824, Note_on_c, 0, 67, 0
2, 183827, Note_on_c, 0, 66, 74
2, 183829, Note_on_c, 0, 60, 74
2, 184067, Note_on_c, 0, 64, 71
2, 184070, Note_on_c, 0, 66, 0
2, 184300, Note_on_c, 0, 64, 0
2, 184305, Note_on_c, 0, 62, 68
2, 184306, Note_on_c, 0, 60, 0
2, 184311, Note_on_c, 0, 59, 68
2, 184323, Note_on_c, 0, 64, 68
2, 184330, Note_on_c, 0, 62, 0
2, 184335, Note_on_c, 0, 62, 68
2, 184349, Note_on_c, 0, 64, 0
2, 184792, Note_on_c, 0, 59, 0
2, 184795, Note_on_c, 0, 60, 61
2, 184948, Note_on_c, 0, 62, 0
2, 185090, Note_on_c, 0, 60, 0
2, 185241, Note_on_c, 0, 62, 65
2, 185265, Note_on_c, 0, 59, 65
2, 185339, Note_on_c, 0, 62, 0
2, 185339, Note_on_c, 0, 60, 65
2, 185415, Note_on_c, 0, 62, 65
2, 185432, Note_on_c, 0, 60, 0
2, 185757, Note_on_c, 0, 57, 64
2, 185766, Note_on_c, 0, 64, 64
2, 185777, Note_on_c, 0, 59, 0
2, 185794, Note_on_c, 0, 62, 0
2, 185991, Note_on_c, 0, 64, 0
2, 185998, Note_on_c, 0, 60, 64
2, 186235, Note_on_c, 0, 57, 0
2, 186245, Note_on_c, 0, 59, 63
2, 186247, Note_on_c, 0, 62, 63
2, 186253, Note_on_c, 0, 60, 0
2, 186700, Note_on_c, 0, 62, 0
2, 186714, Note_on_c, 0, 59, 0
2, 186715, Note_on_c, 0, 60, 66
2, 186718, Note_on_c, 0, 67, 66
2, 186955, Note_on_c, 0, 67, 0
2, 186958, Note_on_c, 0, 69, 68
2, 187204, Note_on_c, 0, 62, 70
2, 187211, Note_on_c, 0, 71, 71
2, 187214, Note_on_c, 0, 60, 0
2, 187218, Note_on_c, 0, 69, 0
2, 187666, Note_on_c, 0, 71, 0
2, 187676, Note_on_c, 0, 62, 0
2, 187677, Note_on_c, 0, 60, 66
2, 187681, Note_on_c, 0, 69, 66
2, 187915, Note_on_c, 0, 66, 64
2, 187917, Note_on_c, 0, 69, 0
2, 188159, Note_on_c, 0, 66, 0
2, 188161, Note_on_c, 0, 59, 61
2, 188165, Note_on_c, 0, 67, 61
2, 188170, Note_on_c, 0, 60, 0
2, 188638, Note_on_c, 0, 67, 0
2, 188638, Note_on_c, 0, 59, 0
2, 188643, Note_on_c, 0, 62, 59
2, 188955, Note_on_c, 0, 62, 0
2, 189129, Note_on_c, 0, 71, 53
2, 189130, Note_on_c, 0, 62, 53
2, 189366, Note_on_c, 0, 66, 53
2, 189368, Note_on_c, 0, 62, 0
2, 189371, Note_on_c, 0, 71, 0
2, 189605, Note_on_c, 0, 67, 53
2, 189609, Note_on_c, 0, 66, 0
2, 189836, Note_on_c, 0, 67, 0
2, 189844, Note_on_c, 0, 62, 53
2, 190081, Note_on_c, 0, 59, 53
2, 190086, Note_on_c, 0, 74, 53
2, 190093, Note_on_c, 0, 62, 0
2, 190313, Note_on_c, 0, 74, 0
2, 190319, Note_on_c, 0, 66, 53
2, 190332, Note_on_c, 0, 59, 0
2, 190563, Note_on_c, 0, 67, 53
2, 190568, Note_on_c, 0, 66, 0
2, 190801, Note_on_c, 0, 67, 0
2, 190802, Note_on_c, 0, 62, 52
2, 191039, Note_on_c, 0, 62, 0
2, 191049, Note_on_c, 0, 71, 51
2, 191051, Note_on_c, 0, 62, 51
2, 191276, Note_on_c, 0, 62, 0
2, 191289, Note_on_c, 0, 66, 51
2, 191301, Note_on_c, 0, 71, 0
2, 191533, Note_on_c, 0, 67, 50
2, 191539, Note_on_c, 0, 66, 0
2, 191776, Note_on_c, 0, 67, 0
2, 191779, Note_on_c, 0, 62, 50
2, 192161, Note_on_c, 0, 59, 49
2, 192196, Note_on_c, 0, 67, 49
2, 192247, Note_on_c, 0, 67, 0
2, 192274, Note_on_c, 0, 66, 48
2, 192353, Note_on_c, 0, 67, 48
2, 192371, Note_on_c, 0, 66, 0
2, 193569, Note_on_c, 0, 62, 0
2, 193605, Note_on_c, 0, 59, 0
2, 193613, Note_on_c, 0, 67, 0
2, 193666, Note_on_c, 0, 55, 0
2, 193920, Control_c, 0, 121, 127
2, 193920, End_track
0, 0, End_of_file
