0, 0, Header, 1, 2, 384
1, 0, Start_track
1, 0, Title_t, "--------"
1, 0, Text_t, "harpsichord: John Sankey\012"
1, 0, Time_signature, 4, 2, 24, 8
1, 0, Key_signature, 0, "major"
1, 0, Tempo, 1090909
1, 29184, Time_signature, 3, 3, 12, 8
1, 29184, Tempo, 869565
1, 61440, Tempo, 1090909
1, 90240, Time_signature, 4, 2, 24, 8
1, 90240, Tempo, 882353
1, 117888, Time_signature, 3, 2, 24, 8
1, 117888, Tempo, 923077
1, 137472, Time_signature, 2, 2, 24, 8
1, 137472, Tempo, 895522
1, 137472, End_track
2, 0, Start_track
2, 0, Title_t, "Ger.8l"
2, 0, Program_c, 0, 6
2, 0, Control_c, 0, 7, 100
2, 0, Program_c, 0, 7
2, 0, Pitch_bend_c, 0, 8192
2, 0, Program_c, 0, 7
2, 0, Pitch_bend_c, 0, 7790
2, 0, Program_c, 0, 7
2, 0, Pitch_bend_c, 0, 7876
2, 0, Program_c, 0, 7
2, 0, Pitch_bend_c, 0, 7952
2, 0, Program_c, 0, 7
2, 0, Pitch_bend_c, 0, 7792
2, 0, Program_c, 0, 7
2, 0, Pitch_bend_c, 0, 8112
2, 0, Program_c, 0, 7
2, 0, Pitch_bend_c, 0, 7710
2, 0, Program_c, 0, 7
2, 0, Pitch_bend_c, 0, 8037
2, 0, Program_c, 0, 7
2, 0, Pitch_bend_c, 0, 7870
2, 0, Program_c, 0, 7
2, 0, Pitch_bend_c, 0, 7712
2, 0, Program_c, 0, 7
2, 0, Pitch_bend_c, 0, 8032
2, 0, Program_c, 0, 7
2, 0, Pitch_bend_c, 0, 7872
2, 96, Note_on_c, 0, 67, 102
2, 176, Note_on_c, 0, 67, 0
2, 192, Note_on_c, 0, 67, 102
2, 192, Note_on_c, 0, 63, 102
2, 192, Note_on_c, 0, 60, 102
2, 287, Note_on_c, 0, 67, 0
2, 288, Note_on_c, 0, 69, 102
2, 335, Note_on_c, 0, 69, 0
2, 336, Note_on_c, 0, 71, 102
2, 382, Note_on_c, 0, 63, 0
2, 383, Note_on_c, 0, 71, 0
2, 383, Note_on_c, 0, 60, 0
2, 384, Note_on_c, 0, 72, 102
2, 384, Note_on_c, 0, 48, 102
2, 479, Note_on_c, 0, 72, 0
2, 480, Note_on_c, 0, 74, 102
2, 574, Note_on_c, 0, 48, 0
2, 575, Note_on_c, 0, 74, 0
2, 576, Note_on_c, 0, 75, 102
2, 672, Note_on_c, 0, 67, 102
2, 767, Note_on_c, 0, 75, 0
2, 768, Note_on_c, 0, 74, 102
2, 768, Note_on_c, 0, 59, 102
2, 768, Note_on_c, 0, 55, 102
2, 863, Note_on_c, 0, 67, 0
2, 864, Note_on_c, 0, 65, 102
2, 912, Note_on_c, 0, 74, 0
2, 959, Note_on_c, 0, 55, 0
2, 959, Note_on_c, 0, 59, 0
2, 959, Note_on_c, 0, 65, 0
2, 960, Note_on_c, 0, 65, 102
2, 960, Note_on_c, 0, 56, 102
2, 960, Note_on_c, 0, 60, 102
2, 1007, Note_on_c, 0, 65, 0
2, 1008, Note_on_c, 0, 63, 102
2, 1055, Note_on_c, 0, 63, 0
2, 1056, Note_on_c, 0, 62, 102
2, 1151, Note_on_c, 0, 62, 0
2, 1151, Note_on_c, 0, 60, 0
2, 1151, Note_on_c, 0, 56, 0
2, 1152, Note_on_c, 0, 63, 102
2, 1152, Note_on_c, 0, 44, 102
2, 1248, Note_on_c, 0, 67, 102
2, 1342, Note_on_c, 0, 44, 0
2, 1343, Note_on_c, 0, 67, 0
2, 1344, Note_on_c, 0, 72, 102
2, 1392, Note_on_c, 0, 63, 0
2, 1440, Note_on_c, 0, 65, 102
2, 1535, Note_on_c, 0, 65, 0
2, 1536, Note_on_c, 0, 67, 102
2, 1536, Note_on_c, 0, 60, 102
2, 1536, Note_on_c, 0, 51, 102
2, 1631, Note_on_c, 0, 72, 0
2, 1632, Note_on_c, 0, 72, 102
2, 1727, Note_on_c, 0, 67, 0
2, 1727, Note_on_c, 0, 51, 0
2, 1728, Note_on_c, 0, 68, 102
2, 1728, Note_on_c, 0, 53, 102
2, 1823, Note_on_c, 0, 72, 0
2, 1824, Note_on_c, 0, 74, 102
2, 1871, Note_on_c, 0, 74, 0
2, 1872, Note_on_c, 0, 75, 102
2, 1918, Note_on_c, 0, 68, 0
2, 1919, Note_on_c, 0, 53, 0
2, 1919, Note_on_c, 0, 75, 0
2, 1920, Note_on_c, 0, 77, 102
2, 1920, Note_on_c, 0, 50, 102
2, 2015, Note_on_c, 0, 77, 0
2, 2016, Note_on_c, 0, 79, 102
2, 2111, Note_on_c, 0, 79, 0
2, 2111, Note_on_c, 0, 50, 0
2, 2112, Note_on_c, 0, 80, 102
2, 2112, Note_on_c, 0, 55, 102
2, 2207, Note_on_c, 0, 80, 0
2, 2208, Note_on_c, 0, 79, 102
2, 2255, Note_on_c, 0, 79, 0
2, 2256, Note_on_c, 0, 77, 102
2, 2303, Note_on_c, 0, 77, 0
2, 2303, Note_on_c, 0, 60, 0
2, 2304, Note_on_c, 0, 79, 102
2, 2304, Note_on_c, 0, 59, 102
2, 2399, Note_on_c, 0, 79, 0
2, 2400, Note_on_c, 0, 74, 102
2, 2492, Note_on_c, 0, 55, 0
2, 2495, Note_on_c, 0, 74, 0
2, 2495, Note_on_c, 0, 59, 0
2, 2496, Note_on_c, 0, 74, 102
2, 2496, Note_on_c, 0, 60, 102
2, 2591, Note_on_c, 0, 74, 0
2, 2592, Note_on_c, 0, 75, 102
2, 2639, Note_on_c, 0, 75, 0
2, 2640, Note_on_c, 0, 77, 102
2, 2687, Note_on_c, 0, 77, 0
2, 2688, Note_on_c, 0, 75, 102
2, 2688, Note_on_c, 0, 48, 102
2, 2735, Note_on_c, 0, 75, 0
2, 2736, Note_on_c, 0, 74, 102
2, 2783, Note_on_c, 0, 74, 0
2, 2784, Note_on_c, 0, 72, 102
2, 2856, Note_on_c, 0, 60, 0
2, 2864, Note_on_c, 0, 72, 0
2, 2868, Note_on_c, 0, 48, 0
2, 2880, Note_on_c, 0, 79, 102
2, 2880, Note_on_c, 0, 60, 102
2, 2976, Note_on_c, 0, 75, 102
2, 3071, Note_on_c, 0, 60, 0
2, 3071, Note_on_c, 0, 79, 0
2, 3072, Note_on_c, 0, 79, 102
2, 3072, Note_on_c, 0, 58, 102
2, 3167, Note_on_c, 0, 75, 0
2, 3168, Note_on_c, 0, 74, 102
2, 3263, Note_on_c, 0, 74, 0
2, 3263, Note_on_c, 0, 58, 0
2, 3264, Note_on_c, 0, 72, 102
2, 3264, Note_on_c, 0, 56, 102
2, 3359, Note_on_c, 0, 79, 0
2, 3360, Note_on_c, 0, 80, 102
2, 3407, Note_on_c, 0, 80, 0
2, 3408, Note_on_c, 0, 82, 102
2, 3455, Note_on_c, 0, 82, 0
2, 3455, Note_on_c, 0, 56, 0
2, 3456, Note_on_c, 0, 84, 102
2, 3456, Note_on_c, 0, 55, 102
2, 3551, Note_on_c, 0, 84, 0
2, 3552, Note_on_c, 0, 75, 102
2, 3647, Note_on_c, 0, 75, 0
2, 3647, Note_on_c, 0, 55, 0
2, 3648, Note_on_c, 0, 77, 102
2, 3648, Note_on_c, 0, 56, 102
2, 3743, Note_on_c, 0, 72, 0
2, 3744, Note_on_c, 0, 72, 102
2, 3839, Note_on_c, 0, 56, 0
2, 3839, Note_on_c, 0, 77, 0
2, 3840, Note_on_c, 0, 80, 102
2, 3840, Note_on_c, 0, 53, 102
2, 3935, Note_on_c, 0, 72, 0
2, 3936, Note_on_c, 0, 72, 102
2, 4026, Note_on_c, 0, 72, 0
2, 4031, Note_on_c, 0, 53, 0
2, 4031, Note_on_c, 0, 80, 0
2, 4032, Note_on_c, 0, 72, 102
2, 4032, Note_on_c, 0, 58, 102
2, 4127, Note_on_c, 0, 72, 0
2, 4128, Note_on_c, 0, 74, 102
2, 4175, Note_on_c, 0, 74, 0
2, 4176, Note_on_c, 0, 75, 102
2, 4223, Note_on_c, 0, 75, 0
2, 4223, Note_on_c, 0, 58, 0
2, 4224, Note_on_c, 0, 74, 102
2, 4224, Note_on_c, 0, 46, 102
2, 4271, Note_on_c, 0, 74, 0
2, 4272, Note_on_c, 0, 72, 102
2, 4319, Note_on_c, 0, 72, 0
2, 4320, Note_on_c, 0, 70, 102
2, 4400, Note_on_c, 0, 70, 0
2, 4404, Note_on_c, 0, 46, 0
2, 4416, Note_on_c, 0, 77, 102
2, 4416, Note_on_c, 0, 58, 102
2, 4512, Note_on_c, 0, 74, 102
2, 4607, Note_on_c, 0, 58, 0
2, 4607, Note_on_c, 0, 77, 0
2, 4608, Note_on_c, 0, 77, 102
2, 4608, Note_on_c, 0, 56, 102
2, 4703, Note_on_c, 0, 74, 0
2, 4704, Note_on_c, 0, 72, 102
2, 4799, Note_on_c, 0, 72, 0
2, 4799, Note_on_c, 0, 56, 0
2, 4800, Note_on_c, 0, 70, 102
2, 4800, Note_on_c, 0, 55, 102
2, 4895, Note_on_c, 0, 77, 0
2, 4896, Note_on_c, 0, 79, 102
2, 4943, Note_on_c, 0, 79, 0
2, 4944, Note_on_c, 0, 80, 102
2, 4991, Note_on_c, 0, 80, 0
2, 4991, Note_on_c, 0, 55, 0
2, 4992, Note_on_c, 0, 82, 102
2, 4992, Note_on_c, 0, 53, 102
2, 5087, Note_on_c, 0, 82, 0
2, 5088, Note_on_c, 0, 74, 102
2, 5183, Note_on_c, 0, 74, 0
2, 5183, Note_on_c, 0, 53, 0
2, 5184, Note_on_c, 0, 75, 102
2, 5184, Note_on_c, 0, 55, 102
2, 5279, Note_on_c, 0, 70, 0
2, 5280, Note_on_c, 0, 70, 102
2, 5375, Note_on_c, 0, 55, 0
2, 5375, Note_on_c, 0, 75, 0
2, 5376, Note_on_c, 0, 79, 102
2, 5376, Note_on_c, 0, 51, 102
2, 5471, Note_on_c, 0, 70, 0
2, 5472, Note_on_c, 0, 70, 102
2, 5562, Note_on_c, 0, 70, 0
2, 5567, Note_on_c, 0, 51, 0
2, 5567, Note_on_c, 0, 79, 0
2, 5568, Note_on_c, 0, 70, 102
2, 5568, Note_on_c, 0, 56, 102
2, 5663, Note_on_c, 0, 70, 0
2, 5664, Note_on_c, 0, 72, 102
2, 5711, Note_on_c, 0, 72, 0
2, 5712, Note_on_c, 0, 73, 102
2, 5759, Note_on_c, 0, 73, 0
2, 5759, Note_on_c, 0, 56, 0
2, 5760, Note_on_c, 0, 72, 102
2, 5760, Note_on_c, 0, 44, 102
2, 5807, Note_on_c, 0, 72, 0
2, 5808, Note_on_c, 0, 70, 102
2, 5855, Note_on_c, 0, 70, 0
2, 5856, Note_on_c, 0, 68, 102
2, 5940, Note_on_c, 0, 44, 0
2, 5941, Note_on_c, 0, 68, 0
2, 5952, Note_on_c, 0, 75, 102
2, 5952, Note_on_c, 0, 56, 102
2, 6048, Note_on_c, 0, 72, 102
2, 6143, Note_on_c, 0, 56, 0
2, 6143, Note_on_c, 0, 75, 0
2, 6144, Note_on_c, 0, 75, 102
2, 6144, Note_on_c, 0, 55, 102
2, 6239, Note_on_c, 0, 72, 0
2, 6240, Note_on_c, 0, 70, 102
2, 6335, Note_on_c, 0, 70, 0
2, 6335, Note_on_c, 0, 55, 0
2, 6336, Note_on_c, 0, 68, 102
2, 6336, Note_on_c, 0, 53, 102
2, 6404, Note_on_c, 0, 75, 0
2, 6432, Note_on_c, 0, 77, 102
2, 6479, Note_on_c, 0, 77, 0
2, 6480, Note_on_c, 0, 79, 102
2, 6527, Note_on_c, 0, 79, 0
2, 6527, Note_on_c, 0, 53, 0
2, 6528, Note_on_c, 0, 80, 102
2, 6528, Note_on_c, 0, 41, 102
2, 6623, Note_on_c, 0, 68, 0
2, 6624, Note_on_c, 0, 75, 102
2, 6713, Note_on_c, 0, 41, 0
2, 6719, Note_on_c, 0, 80, 0
2, 6720, Note_on_c, 0, 80, 102
2, 6720, Note_on_c, 0, 53, 102
2, 6815, Note_on_c, 0, 75, 0
2, 6816, Note_on_c, 0, 74, 102
2, 6911, Note_on_c, 0, 53, 0
2, 6911, Note_on_c, 0, 80, 0
2, 6912, Note_on_c, 0, 80, 102
2, 6912, Note_on_c, 0, 51, 102
2, 7007, Note_on_c, 0, 74, 0
2, 7008, Note_on_c, 0, 72, 102
2, 7103, Note_on_c, 0, 72, 0
2, 7103, Note_on_c, 0, 51, 0
2, 7104, Note_on_c, 0, 70, 102
2, 7104, Note_on_c, 0, 50, 102
2, 7172, Note_on_c, 0, 80, 0
2, 7200, Note_on_c, 0, 77, 102
2, 7247, Note_on_c, 0, 77, 0
2, 7248, Note_on_c, 0, 79, 102
2, 7295, Note_on_c, 0, 79, 0
2, 7295, Note_on_c, 0, 50, 0
2, 7296, Note_on_c, 0, 80, 102
2, 7296, Note_on_c, 0, 38, 102
2, 7391, Note_on_c, 0, 70, 0
2, 7392, Note_on_c, 0, 70, 102
2, 7481, Note_on_c, 0, 38, 0
2, 7487, Note_on_c, 0, 80, 0
2, 7488, Note_on_c, 0, 80, 102
2, 7488, Note_on_c, 0, 50, 102
2, 7583, Note_on_c, 0, 70, 0
2, 7584, Note_on_c, 0, 77, 102
2, 7678, Note_on_c, 0, 80, 0
2, 7679, Note_on_c, 0, 50, 0
2, 7680, Note_on_c, 0, 80, 102
2, 7680, Note_on_c, 0, 46, 102
2, 7775, Note_on_c, 0, 77, 0
2, 7776, Note_on_c, 0, 74, 102
2, 7871, Note_on_c, 0, 74, 0
2, 7871, Note_on_c, 0, 46, 0
2, 7872, Note_on_c, 0, 70, 102
2, 7872, Note_on_c, 0, 51, 102
2, 7940, Note_on_c, 0, 80, 0
2, 7968, Note_on_c, 0, 79, 102
2, 8015, Note_on_c, 0, 79, 0
2, 8016, Note_on_c, 0, 77, 102
2, 8063, Note_on_c, 0, 77, 0
2, 8063, Note_on_c, 0, 51, 0
2, 8064, Note_on_c, 0, 79, 102
2, 8064, Note_on_c, 0, 43, 102
2, 8160, Note_on_c, 0, 75, 102
2, 8204, Note_on_c, 0, 79, 0
2, 8252, Note_on_c, 0, 70, 0
2, 8255, Note_on_c, 0, 43, 0
2, 8255, Note_on_c, 0, 75, 0
2, 8256, Note_on_c, 0, 77, 102
2, 8256, Note_on_c, 0, 44, 102
2, 8352, Note_on_c, 0, 72, 102
2, 8447, Note_on_c, 0, 44, 0
2, 8448, Note_on_c, 0, 74, 102
2, 8448, Note_on_c, 0, 46, 102
2, 8496, Note_on_c, 0, 77, 0
2, 8543, Note_on_c, 0, 72, 0
2, 8544, Note_on_c, 0, 68, 102
2, 8588, Note_on_c, 0, 74, 0
2, 8639, Note_on_c, 0, 68, 0
2, 8639, Note_on_c, 0, 46, 0
2, 8640, Note_on_c, 0, 67, 102
2, 8640, Note_on_c, 0, 51, 102
2, 8736, Note_on_c, 0, 75, 102
2, 8783, Note_on_c, 0, 75, 0
2, 8784, Note_on_c, 0, 77, 102
2, 8831, Note_on_c, 0, 77, 0
2, 8831, Note_on_c, 0, 51, 0
2, 8832, Note_on_c, 0, 79, 102
2, 8832, Note_on_c, 0, 39, 102
2, 8927, Note_on_c, 0, 79, 0
2, 8928, Note_on_c, 0, 74, 102
2, 9020, Note_on_c, 0, 67, 0
2, 9022, Note_on_c, 0, 39, 0
2, 9023, Note_on_c, 0, 74, 0
2, 9024, Note_on_c, 0, 75, 102
2, 9120, Note_on_c, 0, 71, 102
2, 9210, Note_on_c, 0, 71, 0
2, 9215, Note_on_c, 0, 75, 0
2, 9216, Note_on_c, 0, 72, 102
2, 9216, Note_on_c, 0, 51, 102
2, 9312, Note_on_c, 0, 67, 102
2, 9407, Note_on_c, 0, 67, 0
2, 9407, Note_on_c, 0, 51, 0
2, 9408, Note_on_c, 0, 66, 102
2, 9408, Note_on_c, 0, 50, 102
2, 9476, Note_on_c, 0, 72, 0
2, 9504, Note_on_c, 0, 78, 102
2, 9551, Note_on_c, 0, 78, 0
2, 9552, Note_on_c, 0, 79, 102
2, 9598, Note_on_c, 0, 66, 0
2, 9599, Note_on_c, 0, 79, 0
2, 9599, Note_on_c, 0, 50, 0
2, 9600, Note_on_c, 0, 81, 102
2, 9600, Note_on_c, 0, 38, 102
2, 9695, Note_on_c, 0, 81, 0
2, 9696, Note_on_c, 0, 74, 102
2, 9790, Note_on_c, 0, 38, 0
2, 9791, Note_on_c, 0, 74, 0
2, 9792, Note_on_c, 0, 75, 102
2, 9888, Note_on_c, 0, 72, 102
2, 9978, Note_on_c, 0, 72, 0
2, 9983, Note_on_c, 0, 75, 0
2, 9984, Note_on_c, 0, 74, 102
2, 9984, Note_on_c, 0, 54, 102
2, 10080, Note_on_c, 0, 69, 102
2, 10164, Note_on_c, 0, 74, 0
2, 10175, Note_on_c, 0, 54, 0
2, 10176, Note_on_c, 0, 70, 102
2, 10176, Note_on_c, 0, 55, 102
2, 10271, Note_on_c, 0, 69, 0
2, 10272, Note_on_c, 0, 67, 102
2, 10319, Note_on_c, 0, 67, 0
2, 10320, Note_on_c, 0, 66, 102
2, 10367, Note_on_c, 0, 66, 0
2, 10367, Note_on_c, 0, 55, 0
2, 10368, Note_on_c, 0, 67, 102
2, 10368, Note_on_c, 0, 48, 102
2, 10463, Note_on_c, 0, 70, 0
2, 10464, Note_on_c, 0, 75, 102
2, 10559, Note_on_c, 0, 75, 0
2, 10559, Note_on_c, 0, 48, 0
2, 10560, Note_on_c, 0, 69, 102
2, 10560, Note_on_c, 0, 50, 102
2, 10655, Note_on_c, 0, 69, 0
2, 10656, Note_on_c, 0, 72, 102
2, 10703, Note_on_c, 0, 72, 0
2, 10704, Note_on_c, 0, 71, 102
2, 10751, Note_on_c, 0, 71, 0
2, 10751, Note_on_c, 0, 50, 0
2, 10752, Note_on_c, 0, 72, 102
2, 10752, Note_on_c, 0, 38, 102
2, 10847, Note_on_c, 0, 67, 0
2, 10848, Note_on_c, 0, 66, 102
2, 10943, Note_on_c, 0, 66, 0
2, 10943, Note_on_c, 0, 38, 0
2, 10944, Note_on_c, 0, 67, 102
2, 10944, Note_on_c, 0, 43, 102
2, 11002, Note_on_c, 0, 72, 0
2, 11040, Note_on_c, 0, 71, 102
2, 11087, Note_on_c, 0, 71, 0
2, 11088, Note_on_c, 0, 72, 102
2, 11135, Note_on_c, 0, 72, 0
2, 11136, Note_on_c, 0, 74, 102
2, 11231, Note_on_c, 0, 67, 0
2, 11232, Note_on_c, 0, 65, 102
2, 11327, Note_on_c, 0, 65, 0
2, 11328, Note_on_c, 0, 63, 102
2, 11406, Note_on_c, 0, 74, 0
2, 11424, Note_on_c, 0, 72, 102
2, 11519, Note_on_c, 0, 72, 0
2, 11520, Note_on_c, 0, 69, 102
2, 11615, Note_on_c, 0, 69, 0
2, 11616, Note_on_c, 0, 66, 102
2, 11711, Note_on_c, 0, 66, 0
2, 11712, Note_on_c, 0, 67, 102
2, 11807, Note_on_c, 0, 63, 0
2, 11808, Note_on_c, 0, 62, 102
2, 11855, Note_on_c, 0, 62, 0
2, 11856, Note_on_c, 0, 60, 102
2, 11903, Note_on_c, 0, 60, 0
2, 11904, Note_on_c, 0, 59, 102
2, 11951, Note_on_c, 0, 59, 0
2, 11952, Note_on_c, 0, 60, 102
2, 11999, Note_on_c, 0, 60, 0
2, 12000, Note_on_c, 0, 62, 102
2, 12090, Note_on_c, 0, 62, 0
2, 12095, Note_on_c, 0, 43, 0
2, 12096, Note_on_c, 0, 55, 102
2, 12287, Note_on_c, 0, 67, 0
2, 12336, Note_on_c, 0, 55, 0
2, 12384, Note_on_c, 0, 74, 102
2, 12479, Note_on_c, 0, 74, 0
2, 12480, Note_on_c, 0, 74, 102
2, 12480, Note_on_c, 0, 55, 102
2, 12480, Note_on_c, 0, 59, 102
2, 12575, Note_on_c, 0, 74, 0
2, 12576, Note_on_c, 0, 71, 102
2, 12623, Note_on_c, 0, 71, 0
2, 12624, Note_on_c, 0, 72, 102
2, 12671, Note_on_c, 0, 72, 0
2, 12671, Note_on_c, 0, 59, 0
2, 12671, Note_on_c, 0, 55, 0
2, 12672, Note_on_c, 0, 74, 102
2, 12672, Note_on_c, 0, 43, 102
2, 12767, Note_on_c, 0, 74, 0
2, 12768, Note_on_c, 0, 71, 102
2, 12858, Note_on_c, 0, 71, 0
2, 12862, Note_on_c, 0, 43, 0
2, 12864, Note_on_c, 0, 67, 102
2, 12960, Note_on_c, 0, 71, 102
2, 13055, Note_on_c, 0, 67, 0
2, 13056, Note_on_c, 0, 65, 102
2, 13056, Note_on_c, 0, 62, 102
2, 13056, Note_on_c, 0, 55, 102
2, 13151, Note_on_c, 0, 71, 0
2, 13152, Note_on_c, 0, 71, 102
2, 13242, Note_on_c, 0, 71, 0
2, 13247, Note_on_c, 0, 55, 0
2, 13247, Note_on_c, 0, 62, 0
2, 13247, Note_on_c, 0, 65, 0
2, 13248, Note_on_c, 0, 63, 102
2, 13248, Note_on_c, 0, 60, 102
2, 13344, Note_on_c, 0, 72, 102
2, 13391, Note_on_c, 0, 72, 0
2, 13392, Note_on_c, 0, 71, 102
2, 13439, Note_on_c, 0, 71, 0
2, 13440, Note_on_c, 0, 72, 102
2, 13440, Note_on_c, 0, 48, 102
2, 13535, Note_on_c, 0, 72, 0
2, 13536, Note_on_c, 0, 67, 102
2, 13628, Note_on_c, 0, 63, 0
2, 13628, Note_on_c, 0, 60, 0
2, 13630, Note_on_c, 0, 48, 0
2, 13631, Note_on_c, 0, 67, 0
2, 13632, Note_on_c, 0, 63, 102
2, 13727, Note_on_c, 0, 63, 0
2, 13728, Note_on_c, 0, 67, 102
2, 13775, Note_on_c, 0, 67, 0
2, 13776, Note_on_c, 0, 65, 102
2, 13823, Note_on_c, 0, 65, 0
2, 13824, Note_on_c, 0, 63, 102
2, 13824, Note_on_c, 0, 48, 102
2, 13871, Note_on_c, 0, 63, 0
2, 13872, Note_on_c, 0, 62, 102
2, 13919, Note_on_c, 0, 62, 0
2, 13920, Note_on_c, 0, 60, 102
2, 14010, Note_on_c, 0, 60, 0
2, 14015, Note_on_c, 0, 48, 0
2, 14016, Note_on_c, 0, 58, 102
2, 14112, Note_on_c, 0, 76, 102
2, 14159, Note_on_c, 0, 76, 0
2, 14160, Note_on_c, 0, 77, 102
2, 14207, Note_on_c, 0, 77, 0
2, 14207, Note_on_c, 0, 58, 0
2, 14208, Note_on_c, 0, 79, 102
2, 14208, Note_on_c, 0, 46, 102
2, 14303, Note_on_c, 0, 79, 0
2, 14304, Note_on_c, 0, 76, 102
2, 14394, Note_on_c, 0, 76, 0
2, 14398, Note_on_c, 0, 46, 0
2, 14400, Note_on_c, 0, 72, 102
2, 14496, Note_on_c, 0, 76, 102
2, 14591, Note_on_c, 0, 72, 0
2, 14592, Note_on_c, 0, 67, 102
2, 14592, Note_on_c, 0, 58, 102
2, 14687, Note_on_c, 0, 76, 0
2, 14688, Note_on_c, 0, 76, 102
2, 14778, Note_on_c, 0, 76, 0
2, 14783, Note_on_c, 0, 58, 0
2, 14783, Note_on_c, 0, 67, 0
2, 14784, Note_on_c, 0, 65, 102
2, 14784, Note_on_c, 0, 56, 102
2, 14880, Note_on_c, 0, 77, 102
2, 14927, Note_on_c, 0, 77, 0
2, 14928, Note_on_c, 0, 76, 102
2, 14974, Note_on_c, 0, 65, 0
2, 14975, Note_on_c, 0, 76, 0
2, 14975, Note_on_c, 0, 56, 0
2, 14976, Note_on_c, 0, 77, 102
2, 14976, Note_on_c, 0, 55, 102
2, 15071, Note_on_c, 0, 77, 0
2, 15072, Note_on_c, 0, 72, 102
2, 15167, Note_on_c, 0, 72, 0
2, 15167, Note_on_c, 0, 55, 0
2, 15168, Note_on_c, 0, 68, 102
2, 15168, Note_on_c, 0, 53, 102
2, 15263, Note_on_c, 0, 68, 0
2, 15264, Note_on_c, 0, 72, 102
2, 15311, Note_on_c, 0, 72, 0
2, 15312, Note_on_c, 0, 70, 102
2, 15359, Note_on_c, 0, 70, 0
2, 15359, Note_on_c, 0, 53, 0
2, 15360, Note_on_c, 0, 68, 102
2, 15360, Note_on_c, 0, 60, 102
2, 15407, Note_on_c, 0, 68, 0
2, 15408, Note_on_c, 0, 67, 102
2, 15455, Note_on_c, 0, 67, 0
2, 15456, Note_on_c, 0, 65, 102
2, 15540, Note_on_c, 0, 60, 0
2, 15541, Note_on_c, 0, 65, 0
2, 15552, Note_on_c, 0, 73, 102
2, 15552, Note_on_c, 0, 46, 102
2, 15648, Note_on_c, 0, 67, 102
2, 15695, Note_on_c, 0, 67, 0
2, 15696, Note_on_c, 0, 68, 102
2, 15743, Note_on_c, 0, 68, 0
2, 15743, Note_on_c, 0, 46, 0
2, 15744, Note_on_c, 0, 70, 102
2, 15744, Note_on_c, 0, 58, 102
2, 15839, Note_on_c, 0, 70, 0
2, 15840, Note_on_c, 0, 65, 102
2, 15935, Note_on_c, 0, 65, 0
2, 15935, Note_on_c, 0, 58, 0
2, 15936, Note_on_c, 0, 67, 102
2, 15936, Note_on_c, 0, 51, 102
2, 16031, Note_on_c, 0, 67, 0
2, 16032, Note_on_c, 0, 70, 102
2, 16127, Note_on_c, 0, 70, 0
2, 16127, Note_on_c, 0, 51, 0
2, 16128, Note_on_c, 0, 63, 102
2, 16128, Note_on_c, 0, 55, 102
2, 16222, Note_on_c, 0, 73, 0
2, 16224, Note_on_c, 0, 73, 102
2, 16304, Note_on_c, 0, 73, 0
2, 16319, Note_on_c, 0, 55, 0
2, 16320, Note_on_c, 0, 72, 102
2, 16320, Note_on_c, 0, 44, 102
2, 16388, Note_on_c, 0, 63, 0
2, 16416, Note_on_c, 0, 65, 102
2, 16463, Note_on_c, 0, 65, 0
2, 16464, Note_on_c, 0, 67, 102
2, 16511, Note_on_c, 0, 67, 0
2, 16511, Note_on_c, 0, 44, 0
2, 16512, Note_on_c, 0, 68, 102
2, 16512, Note_on_c, 0, 56, 102
2, 16607, Note_on_c, 0, 68, 0
2, 16608, Note_on_c, 0, 64, 102
2, 16703, Note_on_c, 0, 64, 0
2, 16704, Note_on_c, 0, 65, 102
2, 16704, Note_on_c, 0, 49, 102
2, 16760, Note_on_c, 0, 72, 0
2, 16800, Note_on_c, 0, 77, 102
2, 16847, Note_on_c, 0, 77, 0
2, 16848, Note_on_c, 0, 75, 102
2, 16894, Note_on_c, 0, 65, 0
2, 16895, Note_on_c, 0, 49, 0
2, 16895, Note_on_c, 0, 75, 0
2, 16896, Note_on_c, 0, 73, 102
2, 16896, Note_on_c, 0, 53, 102
2, 16991, Note_on_c, 0, 73, 0
2, 16992, Note_on_c, 0, 72, 102
2, 17052, Note_on_c, 0, 56, 0
2, 17087, Note_on_c, 0, 72, 0
2, 17087, Note_on_c, 0, 53, 0
2, 17088, Note_on_c, 0, 70, 102
2, 17088, Note_on_c, 0, 43, 102
2, 17183, Note_on_c, 0, 70, 0
2, 17184, Note_on_c, 0, 73, 102
2, 17231, Note_on_c, 0, 73, 0
2, 17232, Note_on_c, 0, 72, 102
2, 17279, Note_on_c, 0, 72, 0
2, 17279, Note_on_c, 0, 43, 0
2, 17280, Note_on_c, 0, 70, 102
2, 17280, Note_on_c, 0, 55, 102
2, 17375, Note_on_c, 0, 70, 0
2, 17376, Note_on_c, 0, 68, 102
2, 17471, Note_on_c, 0, 68, 0
2, 17471, Note_on_c, 0, 55, 0
2, 17472, Note_on_c, 0, 67, 102
2, 17472, Note_on_c, 0, 58, 102
2, 17567, Note_on_c, 0, 67, 0
2, 17568, Note_on_c, 0, 70, 102
2, 17615, Note_on_c, 0, 70, 0
2, 17616, Note_on_c, 0, 68, 102
2, 17663, Note_on_c, 0, 68, 0
2, 17663, Note_on_c, 0, 58, 0
2, 17664, Note_on_c, 0, 67, 102
2, 17664, Note_on_c, 0, 61, 102
2, 17759, Note_on_c, 0, 67, 0
2, 17760, Note_on_c, 0, 65, 102
2, 17855, Note_on_c, 0, 65, 0
2, 17855, Note_on_c, 0, 61, 0
2, 17856, Note_on_c, 0, 64, 102
2, 17856, Note_on_c, 0, 60, 102
2, 17903, Note_on_c, 0, 64, 0
2, 17904, Note_on_c, 0, 65, 102
2, 17951, Note_on_c, 0, 65, 0
2, 17952, Note_on_c, 0, 67, 102
2, 17999, Note_on_c, 0, 67, 0
2, 18000, Note_on_c, 0, 68, 102
2, 18047, Note_on_c, 0, 68, 0
2, 18048, Note_on_c, 0, 70, 102
2, 18048, Note_on_c, 0, 55, 102
2, 18136, Note_on_c, 0, 60, 0
2, 18144, Note_on_c, 0, 61, 102
2, 18239, Note_on_c, 0, 61, 0
2, 18239, Note_on_c, 0, 55, 0
2, 18240, Note_on_c, 0, 60, 102
2, 18240, Note_on_c, 0, 52, 102
2, 18335, Note_on_c, 0, 70, 0
2, 18336, Note_on_c, 0, 76, 102
2, 18383, Note_on_c, 0, 76, 0
2, 18384, Note_on_c, 0, 77, 102
2, 18431, Note_on_c, 0, 77, 0
2, 18431, Note_on_c, 0, 52, 0
2, 18432, Note_on_c, 0, 79, 102
2, 18432, Note_on_c, 0, 48, 102
2, 18479, Note_on_c, 0, 79, 0
2, 18480, Note_on_c, 0, 80, 102
2, 18527, Note_on_c, 0, 80, 0
2, 18528, Note_on_c, 0, 82, 102
2, 18620, Note_on_c, 0, 60, 0
2, 18623, Note_on_c, 0, 82, 0
2, 18623, Note_on_c, 0, 48, 0
2, 18624, Note_on_c, 0, 80, 102
2, 18624, Note_on_c, 0, 53, 102
2, 18672, Note_on_c, 0, 79, 102
2, 18719, Note_on_c, 0, 79, 0
2, 18720, Note_on_c, 0, 77, 102
2, 18767, Note_on_c, 0, 77, 0
2, 18768, Note_on_c, 0, 76, 102
2, 18815, Note_on_c, 0, 76, 0
2, 18815, Note_on_c, 0, 53, 0
2, 18816, Note_on_c, 0, 77, 102
2, 18816, Note_on_c, 0, 44, 102
2, 18911, Note_on_c, 0, 80, 0
2, 18912, Note_on_c, 0, 80, 102
2, 19007, Note_on_c, 0, 44, 0
2, 19007, Note_on_c, 0, 77, 0
2, 19008, Note_on_c, 0, 73, 102
2, 19008, Note_on_c, 0, 46, 102
2, 19103, Note_on_c, 0, 80, 0
2, 19104, Note_on_c, 0, 79, 102
2, 19199, Note_on_c, 0, 46, 0
2, 19199, Note_on_c, 0, 73, 0
2, 19200, Note_on_c, 0, 70, 102
2, 19200, Note_on_c, 0, 48, 102
2, 19200, Note_on_c, 0, 55, 102
2, 19295, Note_on_c, 0, 79, 0
2, 19296, Note_on_c, 0, 76, 102
2, 19391, Note_on_c, 0, 76, 0
2, 19391, Note_on_c, 0, 55, 0
2, 19391, Note_on_c, 0, 48, 0
2, 19392, Note_on_c, 0, 77, 102
2, 19392, Note_on_c, 0, 41, 102
2, 19487, Note_on_c, 0, 70, 0
2, 19488, Note_on_c, 0, 68, 102
2, 19535, Note_on_c, 0, 68, 0
2, 19536, Note_on_c, 0, 67, 102
2, 19583, Note_on_c, 0, 67, 0
2, 19583, Note_on_c, 0, 41, 0
2, 19584, Note_on_c, 0, 68, 102
2, 19584, Note_on_c, 0, 53, 102
2, 19631, Note_on_c, 0, 68, 0
2, 19632, Note_on_c, 0, 70, 102
2, 19679, Note_on_c, 0, 70, 0
2, 19680, Note_on_c, 0, 72, 102
2, 19772, Note_on_c, 0, 77, 0
2, 19775, Note_on_c, 0, 72, 0
2, 19775, Note_on_c, 0, 53, 0
2, 19776, Note_on_c, 0, 65, 102
2, 19776, Note_on_c, 0, 56, 102
2, 19872, Note_on_c, 0, 68, 102
2, 19967, Note_on_c, 0, 68, 0
2, 19967, Note_on_c, 0, 56, 0
2, 19968, Note_on_c, 0, 72, 102
2, 19968, Note_on_c, 0, 53, 102
2, 20063, Note_on_c, 0, 72, 0
2, 20064, Note_on_c, 0, 75, 102
2, 20144, Note_on_c, 0, 75, 0
2, 20146, Note_on_c, 0, 65, 0
2, 20159, Note_on_c, 0, 53, 0
2, 20160, Note_on_c, 0, 74, 102
2, 20160, Note_on_c, 0, 58, 102
2, 20207, Note_on_c, 0, 74, 0
2, 20208, Note_on_c, 0, 75, 102
2, 20255, Note_on_c, 0, 75, 0
2, 20256, Note_on_c, 0, 77, 102
2, 20303, Note_on_c, 0, 77, 0
2, 20304, Note_on_c, 0, 79, 102
2, 20351, Note_on_c, 0, 79, 0
2, 20351, Note_on_c, 0, 58, 0
2, 20352, Note_on_c, 0, 80, 102
2, 20352, Note_on_c, 0, 50, 102
2, 20448, Note_on_c, 0, 77, 102
2, 20543, Note_on_c, 0, 77, 0
2, 20543, Note_on_c, 0, 50, 0
2, 20544, Note_on_c, 0, 70, 102
2, 20544, Note_on_c, 0, 51, 102
2, 20639, Note_on_c, 0, 80, 0
2, 20640, Note_on_c, 0, 79, 102
2, 20687, Note_on_c, 0, 79, 0
2, 20688, Note_on_c, 0, 77, 102
2, 20735, Note_on_c, 0, 77, 0
2, 20735, Note_on_c, 0, 51, 0
2, 20736, Note_on_c, 0, 75, 102
2, 20736, Note_on_c, 0, 55, 102
2, 20783, Note_on_c, 0, 75, 0
2, 20784, Note_on_c, 0, 77, 102
2, 20831, Note_on_c, 0, 77, 0
2, 20832, Note_on_c, 0, 79, 102
2, 20912, Note_on_c, 0, 79, 0
2, 20914, Note_on_c, 0, 70, 0
2, 20927, Note_on_c, 0, 55, 0
2, 20928, Note_on_c, 0, 72, 102
2, 20928, Note_on_c, 0, 56, 102
2, 20975, Note_on_c, 0, 72, 0
2, 20976, Note_on_c, 0, 74, 102
2, 21023, Note_on_c, 0, 74, 0
2, 21024, Note_on_c, 0, 75, 102
2, 21071, Note_on_c, 0, 75, 0
2, 21072, Note_on_c, 0, 77, 102
2, 21119, Note_on_c, 0, 77, 0
2, 21119, Note_on_c, 0, 56, 0
2, 21120, Note_on_c, 0, 79, 102
2, 21120, Note_on_c, 0, 48, 102
2, 21216, Note_on_c, 0, 75, 102
2, 21311, Note_on_c, 0, 75, 0
2, 21311, Note_on_c, 0, 48, 0
2, 21312, Note_on_c, 0, 68, 102
2, 21312, Note_on_c, 0, 50, 102
2, 21407, Note_on_c, 0, 79, 0
2, 21408, Note_on_c, 0, 77, 102
2, 21455, Note_on_c, 0, 77, 0
2, 21456, Note_on_c, 0, 75, 102
2, 21503, Note_on_c, 0, 75, 0
2, 21503, Note_on_c, 0, 50, 0
2, 21504, Note_on_c, 0, 74, 102
2, 21504, Note_on_c, 0, 53, 102
2, 21551, Note_on_c, 0, 74, 0
2, 21552, Note_on_c, 0, 75, 102
2, 21599, Note_on_c, 0, 75, 0
2, 21600, Note_on_c, 0, 77, 102
2, 21680, Note_on_c, 0, 77, 0
2, 21682, Note_on_c, 0, 68, 0
2, 21695, Note_on_c, 0, 53, 0
2, 21696, Note_on_c, 0, 71, 102
2, 21696, Note_on_c, 0, 55, 102
2, 21743, Note_on_c, 0, 71, 0
2, 21744, Note_on_c, 0, 72, 102
2, 21791, Note_on_c, 0, 72, 0
2, 21792, Note_on_c, 0, 74, 102
2, 21839, Note_on_c, 0, 74, 0
2, 21840, Note_on_c, 0, 75, 102
2, 21887, Note_on_c, 0, 75, 0
2, 21887, Note_on_c, 0, 55, 0
2, 21888, Note_on_c, 0, 77, 102
2, 21888, Note_on_c, 0, 47, 102
2, 21984, Note_on_c, 0, 74, 102
2, 22079, Note_on_c, 0, 74, 0
2, 22079, Note_on_c, 0, 47, 0
2, 22080, Note_on_c, 0, 67, 102
2, 22080, Note_on_c, 0, 48, 102
2, 22175, Note_on_c, 0, 77, 0
2, 22176, Note_on_c, 0, 75, 102
2, 22223, Note_on_c, 0, 75, 0
2, 22224, Note_on_c, 0, 74, 102
2, 22271, Note_on_c, 0, 74, 0
2, 22271, Note_on_c, 0, 48, 0
2, 22272, Note_on_c, 0, 72, 102
2, 22272, Note_on_c, 0, 51, 102
2, 22319, Note_on_c, 0, 72, 0
2, 22320, Note_on_c, 0, 74, 102
2, 22367, Note_on_c, 0, 74, 0
2, 22368, Note_on_c, 0, 75, 102
2, 22463, Note_on_c, 0, 51, 0
2, 22463, Note_on_c, 0, 67, 0
2, 22464, Note_on_c, 0, 68, 102
2, 22464, Note_on_c, 0, 53, 102
2, 22547, Note_on_c, 0, 75, 0
2, 22559, Note_on_c, 0, 53, 0
2, 22560, Note_on_c, 0, 74, 102
2, 22560, Note_on_c, 0, 56, 102
2, 22607, Note_on_c, 0, 56, 0
2, 22607, Note_on_c, 0, 74, 0
2, 22608, Note_on_c, 0, 72, 102
2, 22608, Note_on_c, 0, 55, 102
2, 22655, Note_on_c, 0, 55, 0
2, 22655, Note_on_c, 0, 72, 0
2, 22656, Note_on_c, 0, 71, 102
2, 22656, Note_on_c, 0, 53, 102
2, 22703, Note_on_c, 0, 71, 0
2, 22704, Note_on_c, 0, 72, 102
2, 22751, Note_on_c, 0, 72, 0
2, 22751, Note_on_c, 0, 53, 0
2, 22752, Note_on_c, 0, 74, 102
2, 22752, Note_on_c, 0, 51, 102
2, 22847, Note_on_c, 0, 51, 0
2, 22847, Note_on_c, 0, 74, 0
2, 22847, Note_on_c, 0, 68, 0
2, 22848, Note_on_c, 0, 68, 102
2, 22848, Note_on_c, 0, 65, 102
2, 22848, Note_on_c, 0, 50, 102
2, 22896, Note_on_c, 0, 68, 0
2, 22896, Note_on_c, 0, 67, 102
2, 22943, Note_on_c, 0, 50, 0
2, 22944, Note_on_c, 0, 67, 0
2, 22944, Note_on_c, 0, 68, 102
2, 22944, Note_on_c, 0, 53, 102
2, 22991, Note_on_c, 0, 53, 0
2, 22992, Note_on_c, 0, 51, 102
2, 23039, Note_on_c, 0, 51, 0
2, 23040, Note_on_c, 0, 50, 102
2, 23135, Note_on_c, 0, 50, 0
2, 23136, Note_on_c, 0, 48, 102
2, 23224, Note_on_c, 0, 68, 0
2, 23231, Note_on_c, 0, 48, 0
2, 23232, Note_on_c, 0, 47, 102
2, 23328, Note_on_c, 0, 71, 102
2, 23375, Note_on_c, 0, 71, 0
2, 23376, Note_on_c, 0, 72, 102
2, 23423, Note_on_c, 0, 72, 0
2, 23423, Note_on_c, 0, 47, 0
2, 23423, Note_on_c, 0, 65, 0
2, 23424, Note_on_c, 0, 74, 102
2, 23424, Note_on_c, 0, 43, 102
2, 23520, Note_on_c, 0, 65, 102
2, 23615, Note_on_c, 0, 65, 0
2, 23615, Note_on_c, 0, 43, 0
2, 23616, Note_on_c, 0, 63, 102
2, 23616, Note_on_c, 0, 48, 102
2, 23711, Note_on_c, 0, 48, 0
2, 23711, Note_on_c, 0, 74, 0
2, 23712, Note_on_c, 0, 67, 102
2, 23712, Note_on_c, 0, 50, 102
2, 23807, Note_on_c, 0, 50, 0
2, 23807, Note_on_c, 0, 67, 0
2, 23808, Note_on_c, 0, 72, 102
2, 23808, Note_on_c, 0, 51, 102
2, 23903, Note_on_c, 0, 51, 0
2, 23904, Note_on_c, 0, 69, 102
2, 23904, Note_on_c, 0, 48, 102
2, 23996, Note_on_c, 0, 63, 0
2, 23999, Note_on_c, 0, 48, 0
2, 23999, Note_on_c, 0, 69, 0
2, 24000, Note_on_c, 0, 66, 102
2, 24000, Note_on_c, 0, 50, 102
2, 24048, Note_on_c, 0, 72, 0
2, 24096, Note_on_c, 0, 69, 102
2, 24140, Note_on_c, 0, 66, 0
2, 24143, Note_on_c, 0, 69, 0
2, 24144, Note_on_c, 0, 70, 102
2, 24191, Note_on_c, 0, 70, 0
2, 24191, Note_on_c, 0, 50, 0
2, 24192, Note_on_c, 0, 72, 102
2, 24192, Note_on_c, 0, 45, 102
2, 24287, Note_on_c, 0, 72, 0
2, 24288, Note_on_c, 0, 66, 102
2, 24383, Note_on_c, 0, 66, 0
2, 24383, Note_on_c, 0, 45, 0
2, 24384, Note_on_c, 0, 67, 102
2, 24384, Note_on_c, 0, 46, 102
2, 24479, Note_on_c, 0, 46, 0
2, 24480, Note_on_c, 0, 62, 102
2, 24480, Note_on_c, 0, 50, 102
2, 24575, Note_on_c, 0, 50, 0
2, 24575, Note_on_c, 0, 67, 0
2, 24576, Note_on_c, 0, 70, 102
2, 24576, Note_on_c, 0, 55, 102
2, 24671, Note_on_c, 0, 55, 0
2, 24671, Note_on_c, 0, 62, 0
2, 24672, Note_on_c, 0, 61, 102
2, 24672, Note_on_c, 0, 53, 102
2, 24767, Note_on_c, 0, 53, 0
2, 24767, Note_on_c, 0, 61, 0
2, 24768, Note_on_c, 0, 60, 102
2, 24768, Note_on_c, 0, 52, 102
2, 24816, Note_on_c, 0, 70, 0
2, 24864, Note_on_c, 0, 67, 102
2, 24911, Note_on_c, 0, 67, 0
2, 24912, Note_on_c, 0, 68, 102
2, 24959, Note_on_c, 0, 68, 0
2, 24959, Note_on_c, 0, 52, 0
2, 24960, Note_on_c, 0, 70, 102
2, 24960, Note_on_c, 0, 43, 102
2, 25055, Note_on_c, 0, 70, 0
2, 25056, Note_on_c, 0, 64, 102
2, 25148, Note_on_c, 0, 60, 0
2, 25151, Note_on_c, 0, 64, 0
2, 25151, Note_on_c, 0, 43, 0
2, 25152, Note_on_c, 0, 65, 102
2, 25152, Note_on_c, 0, 44, 102
2, 25247, Note_on_c, 0, 44, 0
2, 25248, Note_on_c, 0, 60, 102
2, 25248, Note_on_c, 0, 48, 102
2, 25343, Note_on_c, 0, 48, 0
2, 25343, Note_on_c, 0, 65, 0
2, 25344, Note_on_c, 0, 53, 102
2, 25344, Note_on_c, 0, 68, 102
2, 25439, Note_on_c, 0, 60, 0
2, 25441, Note_on_c, 0, 53, 0
2, 25442, Note_on_c, 0, 51, 102
2, 25442, Note_on_c, 0, 60, 102
2, 25539, Note_on_c, 0, 60, 0
2, 25539, Note_on_c, 0, 51, 0
2, 25540, Note_on_c, 0, 68, 0
2, 25541, Note_on_c, 0, 50, 102
2, 25541, Note_on_c, 0, 59, 102
2, 25589, Note_on_c, 0, 59, 0
2, 25591, Note_on_c, 0, 60, 102
2, 25639, Note_on_c, 0, 60, 0
2, 25640, Note_on_c, 0, 62, 102
2, 25688, Note_on_c, 0, 62, 0
2, 25690, Note_on_c, 0, 63, 102
2, 25737, Note_on_c, 0, 50, 0
2, 25738, Note_on_c, 0, 63, 0
2, 25739, Note_on_c, 0, 48, 102
2, 25739, Note_on_c, 0, 65, 102
2, 25838, Note_on_c, 0, 56, 102
2, 25934, Note_on_c, 0, 48, 0
2, 25935, Note_on_c, 0, 56, 0
2, 25937, Note_on_c, 0, 47, 102
2, 25937, Note_on_c, 0, 55, 102
2, 26034, Note_on_c, 0, 65, 0
2, 26036, Note_on_c, 0, 71, 102
2, 26084, Note_on_c, 0, 71, 0
2, 26085, Note_on_c, 0, 72, 102
2, 26133, Note_on_c, 0, 72, 0
2, 26133, Note_on_c, 0, 47, 0
2, 26135, Note_on_c, 0, 74, 102
2, 26135, Note_on_c, 0, 43, 102
2, 26184, Note_on_c, 0, 74, 0
2, 26185, Note_on_c, 0, 75, 102
2, 26234, Note_on_c, 0, 75, 0
2, 26235, Note_on_c, 0, 77, 102
2, 26328, Note_on_c, 0, 55, 0
2, 26336, Note_on_c, 0, 43, 0
2, 26337, Note_on_c, 0, 75, 102
2, 26337, Note_on_c, 0, 48, 102
2, 26386, Note_on_c, 0, 77, 0
2, 26389, Note_on_c, 0, 80, 102
2, 26436, Note_on_c, 0, 48, 0
2, 26438, Note_on_c, 0, 80, 0
2, 26439, Note_on_c, 0, 79, 102
2, 26439, Note_on_c, 0, 50, 102
2, 26488, Note_on_c, 0, 79, 0
2, 26491, Note_on_c, 0, 77, 102
2, 26538, Note_on_c, 0, 50, 0
2, 26540, Note_on_c, 0, 77, 0
2, 26541, Note_on_c, 0, 51, 102
2, 26541, Note_on_c, 0, 79, 102
2, 26640, Note_on_c, 0, 75, 0
2, 26642, Note_on_c, 0, 51, 0
2, 26645, Note_on_c, 0, 53, 102
2, 26645, Note_on_c, 0, 74, 102
2, 26746, Note_on_c, 0, 53, 0
2, 26748, Note_on_c, 0, 79, 0
2, 26750, Note_on_c, 0, 55, 102
2, 26750, Note_on_c, 0, 75, 102
2, 26852, Note_on_c, 0, 74, 0
2, 26856, Note_on_c, 0, 72, 102
2, 26957, Note_on_c, 0, 72, 0
2, 26957, Note_on_c, 0, 55, 0
2, 26961, Note_on_c, 0, 43, 102
2, 26961, Note_on_c, 0, 65, 102
2, 27062, Note_on_c, 0, 75, 0
2, 27070, Note_on_c, 0, 71, 102
2, 27177, Note_on_c, 0, 71, 0
2, 27180, Note_on_c, 0, 43, 0
2, 27181, Note_on_c, 0, 36, 102
2, 27181, Note_on_c, 0, 72, 102
2, 27291, Note_on_c, 0, 65, 0
2, 27292, Note_on_c, 0, 67, 102
2, 27344, Note_on_c, 0, 67, 0
2, 27350, Note_on_c, 0, 65, 102
2, 27402, Note_on_c, 0, 65, 0
2, 27404, Note_on_c, 0, 64, 102
2, 27456, Note_on_c, 0, 64, 0
2, 27460, Note_on_c, 0, 65, 102
2, 27512, Note_on_c, 0, 65, 0
2, 27516, Note_on_c, 0, 67, 102
2, 27627, Note_on_c, 0, 48, 102
2, 27845, Note_on_c, 0, 36, 0
2, 27938, Note_on_c, 0, 67, 0
2, 28222, Note_on_c, 0, 48, 0
2, 28225, Note_on_c, 0, 72, 0
2, 29184, Note_on_c, 0, 67, 102
2, 29279, Note_on_c, 0, 67, 0
2, 29280, Note_on_c, 0, 68, 102
2, 29375, Note_on_c, 0, 68, 0
2, 29376, Note_on_c, 0, 65, 102
2, 29471, Note_on_c, 0, 65, 0
2, 29472, Note_on_c, 0, 67, 102
2, 29472, Note_on_c, 0, 48, 102
2, 29567, Note_on_c, 0, 67, 0
2, 29568, Note_on_c, 0, 72, 102
2, 29663, Note_on_c, 0, 72, 0
2, 29663, Note_on_c, 0, 48, 0
2, 29664, Note_on_c, 0, 67, 102
2, 29664, Note_on_c, 0, 51, 102
2, 29759, Note_on_c, 0, 67, 0
2, 29760, Note_on_c, 0, 65, 102
2, 29855, Note_on_c, 0, 65, 0
2, 29855, Note_on_c, 0, 51, 0
2, 29856, Note_on_c, 0, 63, 102
2, 29856, Note_on_c, 0, 55, 102
2, 29951, Note_on_c, 0, 63, 0
2, 29952, Note_on_c, 0, 62, 102
2, 30047, Note_on_c, 0, 62, 0
2, 30047, Note_on_c, 0, 55, 0
2, 30048, Note_on_c, 0, 63, 102
2, 30048, Note_on_c, 0, 60, 102
2, 30143, Note_on_c, 0, 63, 0
2, 30144, Note_on_c, 0, 62, 102
2, 30239, Note_on_c, 0, 62, 0
2, 30239, Note_on_c, 0, 60, 0
2, 30240, Note_on_c, 0, 60, 102
2, 30240, Note_on_c, 0, 48, 102
2, 30335, Note_on_c, 0, 60, 0
2, 30336, Note_on_c, 0, 63, 102
2, 30431, Note_on_c, 0, 63, 0
2, 30431, Note_on_c, 0, 48, 0
2, 30432, Note_on_c, 0, 67, 102
2, 30432, Note_on_c, 0, 60, 102
2, 30527, Note_on_c, 0, 67, 0
2, 30528, Note_on_c, 0, 72, 102
2, 30623, Note_on_c, 0, 72, 0
2, 30623, Note_on_c, 0, 60, 0
2, 30624, Note_on_c, 0, 67, 102
2, 30624, Note_on_c, 0, 58, 102
2, 30719, Note_on_c, 0, 67, 0
2, 30720, Note_on_c, 0, 74, 102
2, 30815, Note_on_c, 0, 74, 0
2, 30815, Note_on_c, 0, 58, 0
2, 30816, Note_on_c, 0, 75, 102
2, 30816, Note_on_c, 0, 58, 102
2, 30863, Note_on_c, 0, 58, 0
2, 30864, Note_on_c, 0, 56, 102
2, 30911, Note_on_c, 0, 56, 0
2, 30911, Note_on_c, 0, 75, 0
2, 30912, Note_on_c, 0, 72, 102
2, 30912, Note_on_c, 0, 58, 102
2, 30959, Note_on_c, 0, 58, 0
2, 30960, Note_on_c, 0, 56, 102
2, 31007, Note_on_c, 0, 56, 0
2, 31007, Note_on_c, 0, 72, 0
2, 31008, Note_on_c, 0, 77, 102
2, 31008, Note_on_c, 0, 58, 102
2, 31055, Note_on_c, 0, 58, 0
2, 31056, Note_on_c, 0, 56, 102
2, 31103, Note_on_c, 0, 56, 0
2, 31103, Note_on_c, 0, 77, 0
2, 31104, Note_on_c, 0, 72, 102
2, 31104, Note_on_c, 0, 58, 102
2, 31151, Note_on_c, 0, 58, 0
2, 31152, Note_on_c, 0, 56, 102
2, 31199, Note_on_c, 0, 56, 0
2, 31199, Note_on_c, 0, 72, 0
2, 31200, Note_on_c, 0, 71, 102
2, 31200, Note_on_c, 0, 55, 102
2, 31295, Note_on_c, 0, 71, 0
2, 31296, Note_on_c, 0, 74, 102
2, 31391, Note_on_c, 0, 74, 0
2, 31392, Note_on_c, 0, 67, 102
2, 31487, Note_on_c, 0, 55, 0
2, 31488, Note_on_c, 0, 65, 102
2, 31583, Note_on_c, 0, 65, 0
2, 31584, Note_on_c, 0, 63, 102
2, 31679, Note_on_c, 0, 63, 0
2, 31680, Note_on_c, 0, 62, 102
2, 31772, Note_on_c, 0, 67, 0
2, 31775, Note_on_c, 0, 62, 0
2, 31776, Note_on_c, 0, 63, 102
2, 31872, Note_on_c, 0, 79, 102
2, 31967, Note_on_c, 0, 79, 0
2, 31967, Note_on_c, 0, 63, 0
2, 31968, Note_on_c, 0, 75, 102
2, 31968, Note_on_c, 0, 60, 102
2, 32063, Note_on_c, 0, 75, 0
2, 32064, Note_on_c, 0, 72, 102
2, 32159, Note_on_c, 0, 72, 0
2, 32159, Note_on_c, 0, 60, 0
2, 32160, Note_on_c, 0, 79, 102
2, 32160, Note_on_c, 0, 63, 102
2, 32255, Note_on_c, 0, 79, 0
2, 32256, Note_on_c, 0, 70, 102
2, 32351, Note_on_c, 0, 70, 0
2, 32351, Note_on_c, 0, 63, 0
2, 32352, Note_on_c, 0, 68, 102
2, 32352, Note_on_c, 0, 53, 102
2, 32447, Note_on_c, 0, 68, 0
2, 32448, Note_on_c, 0, 72, 102
2, 32543, Note_on_c, 0, 72, 0
2, 32544, Note_on_c, 0, 65, 102
2, 32639, Note_on_c, 0, 53, 0
2, 32640, Note_on_c, 0, 63, 102
2, 32735, Note_on_c, 0, 63, 0
2, 32736, Note_on_c, 0, 62, 102
2, 32831, Note_on_c, 0, 62, 0
2, 32832, Note_on_c, 0, 60, 102
2, 32924, Note_on_c, 0, 65, 0
2, 32927, Note_on_c, 0, 60, 0
2, 32928, Note_on_c, 0, 62, 102
2, 33024, Note_on_c, 0, 77, 102
2, 33119, Note_on_c, 0, 77, 0
2, 33119, Note_on_c, 0, 62, 0
2, 33120, Note_on_c, 0, 74, 102
2, 33120, Note_on_c, 0, 58, 102
2, 33215, Note_on_c, 0, 74, 0
2, 33216, Note_on_c, 0, 70, 102
2, 33311, Note_on_c, 0, 70, 0
2, 33311, Note_on_c, 0, 58, 0
2, 33312, Note_on_c, 0, 77, 102
2, 33312, Note_on_c, 0, 62, 102
2, 33407, Note_on_c, 0, 77, 0
2, 33408, Note_on_c, 0, 68, 102
2, 33503, Note_on_c, 0, 68, 0
2, 33503, Note_on_c, 0, 62, 0
2, 33504, Note_on_c, 0, 67, 102
2, 33504, Note_on_c, 0, 51, 102
2, 33599, Note_on_c, 0, 67, 0
2, 33600, Note_on_c, 0, 70, 102
2, 33695, Note_on_c, 0, 70, 0
2, 33696, Note_on_c, 0, 63, 102
2, 33791, Note_on_c, 0, 51, 0
2, 33792, Note_on_c, 0, 55, 102
2, 33887, Note_on_c, 0, 55, 0
2, 33888, Note_on_c, 0, 53, 102
2, 33976, Note_on_c, 0, 63, 0
2, 33983, Note_on_c, 0, 53, 0
2, 33984, Note_on_c, 0, 56, 102
2, 34079, Note_on_c, 0, 56, 0
2, 34080, Note_on_c, 0, 55, 102
2, 34176, Note_on_c, 0, 70, 102
2, 34271, Note_on_c, 0, 70, 0
2, 34271, Note_on_c, 0, 55, 0
2, 34272, Note_on_c, 0, 67, 102
2, 34272, Note_on_c, 0, 51, 102
2, 34367, Note_on_c, 0, 67, 0
2, 34368, Note_on_c, 0, 63, 102
2, 34463, Note_on_c, 0, 63, 0
2, 34463, Note_on_c, 0, 51, 0
2, 34464, Note_on_c, 0, 70, 102
2, 34464, Note_on_c, 0, 55, 102
2, 34560, Note_on_c, 0, 61, 102
2, 34655, Note_on_c, 0, 61, 0
2, 34655, Note_on_c, 0, 55, 0
2, 34656, Note_on_c, 0, 60, 102
2, 34656, Note_on_c, 0, 56, 102
2, 34744, Note_on_c, 0, 70, 0
2, 34751, Note_on_c, 0, 60, 0
2, 34752, Note_on_c, 0, 72, 102
2, 34847, Note_on_c, 0, 72, 0
2, 34847, Note_on_c, 0, 56, 0
2, 34848, Note_on_c, 0, 68, 102
2, 34848, Note_on_c, 0, 53, 102
2, 34943, Note_on_c, 0, 68, 0
2, 34944, Note_on_c, 0, 65, 102
2, 35039, Note_on_c, 0, 65, 0
2, 35039, Note_on_c, 0, 53, 0
2, 35040, Note_on_c, 0, 72, 102
2, 35040, Note_on_c, 0, 56, 102
2, 35136, Note_on_c, 0, 63, 102
2, 35231, Note_on_c, 0, 63, 0
2, 35231, Note_on_c, 0, 56, 0
2, 35232, Note_on_c, 0, 62, 102
2, 35232, Note_on_c, 0, 58, 102
2, 35320, Note_on_c, 0, 72, 0
2, 35327, Note_on_c, 0, 62, 0
2, 35328, Note_on_c, 0, 74, 102
2, 35423, Note_on_c, 0, 74, 0
2, 35423, Note_on_c, 0, 58, 0
2, 35424, Note_on_c, 0, 70, 102
2, 35424, Note_on_c, 0, 55, 102
2, 35519, Note_on_c, 0, 70, 0
2, 35520, Note_on_c, 0, 67, 102
2, 35615, Note_on_c, 0, 67, 0
2, 35615, Note_on_c, 0, 55, 0
2, 35616, Note_on_c, 0, 74, 102
2, 35616, Note_on_c, 0, 58, 102
2, 35712, Note_on_c, 0, 65, 102
2, 35807, Note_on_c, 0, 65, 0
2, 35807, Note_on_c, 0, 58, 0
2, 35808, Note_on_c, 0, 63, 102
2, 35808, Note_on_c, 0, 60, 102
2, 35896, Note_on_c, 0, 74, 0
2, 35903, Note_on_c, 0, 63, 0
2, 35904, Note_on_c, 0, 75, 102
2, 35999, Note_on_c, 0, 75, 0
2, 35999, Note_on_c, 0, 60, 0
2, 36000, Note_on_c, 0, 72, 102
2, 36000, Note_on_c, 0, 56, 102
2, 36095, Note_on_c, 0, 72, 0
2, 36096, Note_on_c, 0, 68, 102
2, 36191, Note_on_c, 0, 68, 0
2, 36191, Note_on_c, 0, 56, 0
2, 36192, Note_on_c, 0, 75, 102
2, 36192, Note_on_c, 0, 60, 102
2, 36288, Note_on_c, 0, 67, 102
2, 36382, Note_on_c, 0, 75, 0
2, 36383, Note_on_c, 0, 67, 0
2, 36383, Note_on_c, 0, 60, 0
2, 36384, Note_on_c, 0, 65, 102
2, 36384, Note_on_c, 0, 62, 102
2, 36479, Note_on_c, 0, 65, 0
2, 36480, Note_on_c, 0, 77, 102
2, 36575, Note_on_c, 0, 77, 0
2, 36575, Note_on_c, 0, 62, 0
2, 36576, Note_on_c, 0, 74, 102
2, 36576, Note_on_c, 0, 58, 102
2, 36671, Note_on_c, 0, 74, 0
2, 36672, Note_on_c, 0, 70, 102
2, 36767, Note_on_c, 0, 70, 0
2, 36767, Note_on_c, 0, 58, 0
2, 36768, Note_on_c, 0, 77, 102
2, 36768, Note_on_c, 0, 62, 102
2, 36864, Note_on_c, 0, 68, 102
2, 36958, Note_on_c, 0, 77, 0
2, 36959, Note_on_c, 0, 68, 0
2, 36959, Note_on_c, 0, 62, 0
2, 36960, Note_on_c, 0, 67, 102
2, 36960, Note_on_c, 0, 63, 102
2, 37055, Note_on_c, 0, 67, 0
2, 37056, Note_on_c, 0, 70, 102
2, 37151, Note_on_c, 0, 70, 0
2, 37151, Note_on_c, 0, 63, 0
2, 37152, Note_on_c, 0, 72, 102
2, 37152, Note_on_c, 0, 51, 102
2, 37247, Note_on_c, 0, 51, 0
2, 37247, Note_on_c, 0, 72, 0
2, 37248, Note_on_c, 0, 68, 102
2, 37248, Note_on_c, 0, 53, 102
2, 37343, Note_on_c, 0, 53, 0
2, 37343, Note_on_c, 0, 68, 0
2, 37344, Note_on_c, 0, 70, 102
2, 37344, Note_on_c, 0, 55, 102
2, 37439, Note_on_c, 0, 70, 0
2, 37440, Note_on_c, 0, 75, 102
2, 37535, Note_on_c, 0, 75, 0
2, 37535, Note_on_c, 0, 55, 0
2, 37536, Note_on_c, 0, 74, 102
2, 37536, Note_on_c, 0, 56, 102
2, 37631, Note_on_c, 0, 74, 0
2, 37632, Note_on_c, 0, 75, 102
2, 37727, Note_on_c, 0, 75, 0
2, 37727, Note_on_c, 0, 56, 0
2, 37728, Note_on_c, 0, 65, 102
2, 37728, Note_on_c, 0, 58, 102
2, 37823, Note_on_c, 0, 65, 0
2, 37824, Note_on_c, 0, 72, 102
2, 37919, Note_on_c, 0, 72, 0
2, 37919, Note_on_c, 0, 58, 0
2, 37920, Note_on_c, 0, 70, 102
2, 37920, Note_on_c, 0, 46, 102
2, 38015, Note_on_c, 0, 70, 0
2, 38016, Note_on_c, 0, 68, 102
2, 38111, Note_on_c, 0, 68, 0
2, 38111, Note_on_c, 0, 46, 0
2, 38112, Note_on_c, 0, 67, 102
2, 38112, Note_on_c, 0, 51, 102
2, 38207, Note_on_c, 0, 67, 0
2, 38208, Note_on_c, 0, 65, 102
2, 38303, Note_on_c, 0, 65, 0
2, 38304, Note_on_c, 0, 63, 102
2, 38352, Note_on_c, 0, 51, 0
2, 38399, Note_on_c, 0, 63, 0
2, 38400, Note_on_c, 0, 75, 102
2, 38400, Note_on_c, 0, 55, 102
2, 38495, Note_on_c, 0, 55, 0
2, 38495, Note_on_c, 0, 75, 0
2, 38496, Note_on_c, 0, 74, 102
2, 38496, Note_on_c, 0, 53, 102
2, 38591, Note_on_c, 0, 53, 0
2, 38591, Note_on_c, 0, 74, 0
2, 38592, Note_on_c, 0, 72, 102
2, 38592, Note_on_c, 0, 51, 102
2, 38687, Note_on_c, 0, 51, 0
2, 38687, Note_on_c, 0, 72, 0
2, 38688, Note_on_c, 0, 71, 102
2, 38688, Note_on_c, 0, 50, 102
2, 38784, Note_on_c, 0, 80, 102
2, 38808, Note_on_c, 0, 71, 0
2, 38879, Note_on_c, 0, 80, 0
2, 38879, Note_on_c, 0, 50, 0
2, 38880, Note_on_c, 0, 77, 102
2, 38880, Note_on_c, 0, 48, 102
2, 38975, Note_on_c, 0, 77, 0
2, 38976, Note_on_c, 0, 74, 102
2, 39071, Note_on_c, 0, 74, 0
2, 39071, Note_on_c, 0, 48, 0
2, 39072, Note_on_c, 0, 79, 102
2, 39072, Note_on_c, 0, 47, 102
2, 39167, Note_on_c, 0, 79, 0
2, 39168, Note_on_c, 0, 74, 102
2, 39263, Note_on_c, 0, 74, 0
2, 39263, Note_on_c, 0, 47, 0
2, 39264, Note_on_c, 0, 75, 102
2, 39264, Note_on_c, 0, 48, 102
2, 39359, Note_on_c, 0, 75, 0
2, 39360, Note_on_c, 0, 74, 102
2, 39454, Note_on_c, 0, 48, 0
2, 39455, Note_on_c, 0, 74, 0
2, 39456, Note_on_c, 0, 72, 102
2, 39551, Note_on_c, 0, 72, 0
2, 39552, Note_on_c, 0, 70, 102
2, 39552, Note_on_c, 0, 62, 102
2, 39647, Note_on_c, 0, 62, 0
2, 39647, Note_on_c, 0, 70, 0
2, 39648, Note_on_c, 0, 69, 102
2, 39648, Note_on_c, 0, 60, 102
2, 39743, Note_on_c, 0, 60, 0
2, 39743, Note_on_c, 0, 69, 0
2, 39744, Note_on_c, 0, 67, 102
2, 39744, Note_on_c, 0, 58, 102
2, 39839, Note_on_c, 0, 58, 0
2, 39839, Note_on_c, 0, 67, 0
2, 39840, Note_on_c, 0, 66, 102
2, 39840, Note_on_c, 0, 57, 102
2, 39936, Note_on_c, 0, 75, 102
2, 39960, Note_on_c, 0, 66, 0
2, 40031, Note_on_c, 0, 75, 0
2, 40031, Note_on_c, 0, 57, 0
2, 40032, Note_on_c, 0, 72, 102
2, 40032, Note_on_c, 0, 55, 102
2, 40127, Note_on_c, 0, 72, 0
2, 40128, Note_on_c, 0, 69, 102
2, 40223, Note_on_c, 0, 69, 0
2, 40223, Note_on_c, 0, 55, 0
2, 40224, Note_on_c, 0, 74, 102
2, 40224, Note_on_c, 0, 54, 102
2, 40319, Note_on_c, 0, 74, 0
2, 40320, Note_on_c, 0, 69, 102
2, 40415, Note_on_c, 0, 69, 0
2, 40415, Note_on_c, 0, 54, 0
2, 40416, Note_on_c, 0, 70, 102
2, 40416, Note_on_c, 0, 55, 102
2, 40511, Note_on_c, 0, 70, 0
2, 40512, Note_on_c, 0, 69, 102
2, 40606, Note_on_c, 0, 55, 0
2, 40607, Note_on_c, 0, 69, 0
2, 40608, Note_on_c, 0, 67, 102
2, 40703, Note_on_c, 0, 67, 0
2, 40704, Note_on_c, 0, 65, 102
2, 40704, Note_on_c, 0, 55, 102
2, 40799, Note_on_c, 0, 55, 0
2, 40799, Note_on_c, 0, 65, 0
2, 40800, Note_on_c, 0, 64, 102
2, 40800, Note_on_c, 0, 57, 102
2, 40895, Note_on_c, 0, 57, 0
2, 40895, Note_on_c, 0, 64, 0
2, 40896, Note_on_c, 0, 62, 102
2, 40896, Note_on_c, 0, 58, 102
2, 40991, Note_on_c, 0, 58, 0
2, 40991, Note_on_c, 0, 62, 0
2, 40992, Note_on_c, 0, 61, 102
2, 40992, Note_on_c, 0, 52, 102
2, 41088, Note_on_c, 0, 70, 102
2, 41112, Note_on_c, 0, 61, 0
2, 41183, Note_on_c, 0, 70, 0
2, 41183, Note_on_c, 0, 52, 0
2, 41184, Note_on_c, 0, 67, 102
2, 41184, Note_on_c, 0, 50, 102
2, 41279, Note_on_c, 0, 67, 0
2, 41280, Note_on_c, 0, 64, 102
2, 41375, Note_on_c, 0, 64, 0
2, 41375, Note_on_c, 0, 50, 0
2, 41376, Note_on_c, 0, 69, 102
2, 41376, Note_on_c, 0, 49, 102
2, 41472, Note_on_c, 0, 64, 102
2, 41567, Note_on_c, 0, 64, 0
2, 41567, Note_on_c, 0, 49, 0
2, 41568, Note_on_c, 0, 58, 102
2, 41568, Note_on_c, 0, 50, 102
2, 41656, Note_on_c, 0, 69, 0
2, 41664, Note_on_c, 0, 69, 102
2, 41688, Note_on_c, 0, 58, 0
2, 41759, Note_on_c, 0, 69, 0
2, 41759, Note_on_c, 0, 50, 0
2, 41760, Note_on_c, 0, 66, 102
2, 41760, Note_on_c, 0, 48, 102
2, 41855, Note_on_c, 0, 66, 0
2, 41856, Note_on_c, 0, 62, 102
2, 41951, Note_on_c, 0, 62, 0
2, 41951, Note_on_c, 0, 48, 0
2, 41952, Note_on_c, 0, 67, 102
2, 41952, Note_on_c, 0, 46, 102
2, 42048, Note_on_c, 0, 62, 102
2, 42143, Note_on_c, 0, 62, 0
2, 42143, Note_on_c, 0, 46, 0
2, 42144, Note_on_c, 0, 57, 102
2, 42144, Note_on_c, 0, 48, 102
2, 42232, Note_on_c, 0, 67, 0
2, 42240, Note_on_c, 0, 67, 102
2, 42264, Note_on_c, 0, 57, 0
2, 42335, Note_on_c, 0, 67, 0
2, 42335, Note_on_c, 0, 48, 0
2, 42336, Note_on_c, 0, 63, 102
2, 42336, Note_on_c, 0, 50, 102
2, 42431, Note_on_c, 0, 63, 0
2, 42432, Note_on_c, 0, 60, 102
2, 42527, Note_on_c, 0, 60, 0
2, 42527, Note_on_c, 0, 50, 0
2, 42528, Note_on_c, 0, 66, 102
2, 42528, Note_on_c, 0, 38, 102
2, 42624, Note_on_c, 0, 60, 102
2, 42718, Note_on_c, 0, 66, 0
2, 42719, Note_on_c, 0, 60, 0
2, 42719, Note_on_c, 0, 38, 0
2, 42720, Note_on_c, 0, 67, 102
2, 42720, Note_on_c, 0, 62, 102
2, 42720, Note_on_c, 0, 59, 102
2, 42720, Note_on_c, 0, 43, 102
2, 42910, Note_on_c, 0, 67, 0
2, 42960, Note_on_c, 0, 62, 0
2, 42960, Note_on_c, 0, 59, 0
2, 43000, Note_on_c, 0, 43, 0
2, 43008, Note_on_c, 0, 74, 102
2, 43103, Note_on_c, 0, 74, 0
2, 43104, Note_on_c, 0, 69, 102
2, 43199, Note_on_c, 0, 69, 0
2, 43200, Note_on_c, 0, 72, 102
2, 43295, Note_on_c, 0, 72, 0
2, 43296, Note_on_c, 0, 71, 102
2, 43296, Note_on_c, 0, 43, 102
2, 43392, Note_on_c, 0, 67, 102
2, 43416, Note_on_c, 0, 71, 0
2, 43487, Note_on_c, 0, 67, 0
2, 43487, Note_on_c, 0, 43, 0
2, 43488, Note_on_c, 0, 74, 102
2, 43488, Note_on_c, 0, 47, 102
2, 43584, Note_on_c, 0, 68, 102
2, 43678, Note_on_c, 0, 74, 0
2, 43679, Note_on_c, 0, 68, 0
2, 43679, Note_on_c, 0, 47, 0
2, 43680, Note_on_c, 0, 67, 102
2, 43680, Note_on_c, 0, 50, 102
2, 43775, Note_on_c, 0, 67, 0
2, 43776, Note_on_c, 0, 65, 102
2, 43871, Note_on_c, 0, 65, 0
2, 43871, Note_on_c, 0, 50, 0
2, 43872, Note_on_c, 0, 63, 102
2, 43872, Note_on_c, 0, 55, 102
2, 43968, Note_on_c, 0, 67, 102
2, 43992, Note_on_c, 0, 63, 0
2, 44063, Note_on_c, 0, 67, 0
2, 44063, Note_on_c, 0, 55, 0
2, 44064, Note_on_c, 0, 71, 102
2, 44064, Note_on_c, 0, 53, 102
2, 44159, Note_on_c, 0, 71, 0
2, 44160, Note_on_c, 0, 74, 102
2, 44255, Note_on_c, 0, 74, 0
2, 44255, Note_on_c, 0, 53, 0
2, 44256, Note_on_c, 0, 72, 102
2, 44256, Note_on_c, 0, 51, 102
2, 44352, Note_on_c, 0, 63, 102
2, 44446, Note_on_c, 0, 72, 0
2, 44447, Note_on_c, 0, 63, 0
2, 44447, Note_on_c, 0, 51, 0
2, 44448, Note_on_c, 0, 62, 102
2, 44448, Note_on_c, 0, 53, 102
2, 44543, Note_on_c, 0, 62, 0
2, 44544, Note_on_c, 0, 72, 102
2, 44639, Note_on_c, 0, 72, 0
2, 44639, Note_on_c, 0, 53, 0
2, 44640, Note_on_c, 0, 71, 102
2, 44640, Note_on_c, 0, 55, 102
2, 44735, Note_on_c, 0, 71, 0
2, 44736, Note_on_c, 0, 74, 102
2, 44831, Note_on_c, 0, 74, 0
2, 44831, Note_on_c, 0, 55, 0
2, 44832, Note_on_c, 0, 75, 102
2, 44832, Note_on_c, 0, 43, 102
2, 44927, Note_on_c, 0, 75, 0
2, 44928, Note_on_c, 0, 77, 102
2, 45023, Note_on_c, 0, 77, 0
2, 45023, Note_on_c, 0, 43, 0
2, 45024, Note_on_c, 0, 75, 102
2, 45024, Note_on_c, 0, 48, 102
2, 45119, Note_on_c, 0, 75, 0
2, 45120, Note_on_c, 0, 74, 102
2, 45215, Note_on_c, 0, 74, 0
2, 45215, Note_on_c, 0, 48, 0
2, 45216, Note_on_c, 0, 72, 102
2, 45216, Note_on_c, 0, 51, 102
2, 45311, Note_on_c, 0, 72, 0
2, 45312, Note_on_c, 0, 75, 102
2, 45407, Note_on_c, 0, 75, 0
2, 45407, Note_on_c, 0, 51, 0
2, 45408, Note_on_c, 0, 71, 102
2, 45408, Note_on_c, 0, 74, 102
2, 45408, Note_on_c, 0, 55, 102
2, 45503, Note_on_c, 0, 74, 0
2, 45504, Note_on_c, 0, 77, 102
2, 45598, Note_on_c, 0, 71, 0
2, 45599, Note_on_c, 0, 77, 0
2, 45599, Note_on_c, 0, 55, 0
2, 45600, Note_on_c, 0, 72, 102
2, 45600, Note_on_c, 0, 77, 102
2, 45600, Note_on_c, 0, 60, 102
2, 45647, Note_on_c, 0, 77, 0
2, 45648, Note_on_c, 0, 75, 102
2, 45695, Note_on_c, 0, 75, 0
2, 45695, Note_on_c, 0, 60, 0
2, 45696, Note_on_c, 0, 77, 102
2, 45696, Note_on_c, 0, 55, 102
2, 45743, Note_on_c, 0, 77, 0
2, 45744, Note_on_c, 0, 75, 102
2, 45791, Note_on_c, 0, 75, 0
2, 45791, Note_on_c, 0, 55, 0
2, 45792, Note_on_c, 0, 77, 102
2, 45792, Note_on_c, 0, 51, 102
2, 45839, Note_on_c, 0, 77, 0
2, 45840, Note_on_c, 0, 75, 102
2, 45887, Note_on_c, 0, 75, 0
2, 45887, Note_on_c, 0, 51, 0
2, 45888, Note_on_c, 0, 77, 102
2, 45888, Note_on_c, 0, 48, 102
2, 45935, Note_on_c, 0, 77, 0
2, 45936, Note_on_c, 0, 75, 102
2, 45983, Note_on_c, 0, 48, 0
2, 45984, Note_on_c, 0, 55, 102
2, 46079, Note_on_c, 0, 55, 0
2, 46080, Note_on_c, 0, 46, 102
2, 46175, Note_on_c, 0, 46, 0
2, 46175, Note_on_c, 0, 72, 0
2, 46176, Note_on_c, 0, 44, 102
2, 46236, Note_on_c, 0, 75, 0
2, 46272, Note_on_c, 0, 72, 102
2, 46367, Note_on_c, 0, 72, 0
2, 46368, Note_on_c, 0, 77, 102
2, 46463, Note_on_c, 0, 77, 0
2, 46464, Note_on_c, 0, 80, 102
2, 46556, Note_on_c, 0, 44, 0
2, 46559, Note_on_c, 0, 80, 0
2, 46560, Note_on_c, 0, 79, 102
2, 46560, Note_on_c, 0, 76, 102
2, 46655, Note_on_c, 0, 79, 0
2, 46656, Note_on_c, 0, 82, 102
2, 46750, Note_on_c, 0, 76, 0
2, 46751, Note_on_c, 0, 82, 0
2, 46752, Note_on_c, 0, 77, 102
2, 46752, Note_on_c, 0, 82, 102
2, 46799, Note_on_c, 0, 82, 0
2, 46800, Note_on_c, 0, 80, 102
2, 46847, Note_on_c, 0, 80, 0
2, 46848, Note_on_c, 0, 82, 102
2, 46848, Note_on_c, 0, 60, 102
2, 46895, Note_on_c, 0, 82, 0
2, 46896, Note_on_c, 0, 80, 102
2, 46943, Note_on_c, 0, 80, 0
2, 46943, Note_on_c, 0, 60, 0
2, 46944, Note_on_c, 0, 82, 102
2, 46944, Note_on_c, 0, 56, 102
2, 46991, Note_on_c, 0, 82, 0
2, 46992, Note_on_c, 0, 80, 102
2, 47039, Note_on_c, 0, 56, 0
2, 47040, Note_on_c, 0, 53, 102
2, 47135, Note_on_c, 0, 53, 0
2, 47136, Note_on_c, 0, 60, 102
2, 47231, Note_on_c, 0, 60, 0
2, 47232, Note_on_c, 0, 51, 102
2, 47327, Note_on_c, 0, 51, 0
2, 47327, Note_on_c, 0, 77, 0
2, 47328, Note_on_c, 0, 49, 102
2, 47423, Note_on_c, 0, 80, 0
2, 47424, Note_on_c, 0, 79, 102
2, 47519, Note_on_c, 0, 79, 0
2, 47520, Note_on_c, 0, 77, 102
2, 47615, Note_on_c, 0, 77, 0
2, 47616, Note_on_c, 0, 75, 102
2, 47708, Note_on_c, 0, 49, 0
2, 47711, Note_on_c, 0, 75, 0
2, 47712, Note_on_c, 0, 73, 102
2, 47807, Note_on_c, 0, 73, 0
2, 47808, Note_on_c, 0, 72, 102
2, 47903, Note_on_c, 0, 72, 0
2, 47904, Note_on_c, 0, 70, 102
2, 48000, Note_on_c, 0, 65, 102
2, 48095, Note_on_c, 0, 65, 0
2, 48096, Note_on_c, 0, 79, 102
2, 48096, Note_on_c, 0, 61, 102
2, 48191, Note_on_c, 0, 61, 0
2, 48192, Note_on_c, 0, 58, 102
2, 48287, Note_on_c, 0, 58, 0
2, 48287, Note_on_c, 0, 79, 0
2, 48288, Note_on_c, 0, 77, 102
2, 48288, Note_on_c, 0, 61, 102
2, 48383, Note_on_c, 0, 61, 0
2, 48384, Note_on_c, 0, 56, 102
2, 48479, Note_on_c, 0, 56, 0
2, 48480, Note_on_c, 0, 55, 102
2, 48575, Note_on_c, 0, 55, 0
2, 48576, Note_on_c, 0, 61, 102
2, 48628, Note_on_c, 0, 77, 0
2, 48671, Note_on_c, 0, 61, 0
2, 48672, Note_on_c, 0, 76, 102
2, 48672, Note_on_c, 0, 58, 102
2, 48767, Note_on_c, 0, 58, 0
2, 48768, Note_on_c, 0, 55, 102
2, 48863, Note_on_c, 0, 55, 0
2, 48863, Note_on_c, 0, 76, 0
2, 48864, Note_on_c, 0, 73, 102
2, 48864, Note_on_c, 0, 58, 102
2, 48959, Note_on_c, 0, 58, 0
2, 48960, Note_on_c, 0, 53, 102
2, 49054, Note_on_c, 0, 70, 0
2, 49055, Note_on_c, 0, 53, 0
2, 49056, Note_on_c, 0, 52, 102
2, 49151, Note_on_c, 0, 52, 0
2, 49152, Note_on_c, 0, 58, 102
2, 49204, Note_on_c, 0, 73, 0
2, 49247, Note_on_c, 0, 58, 0
2, 49248, Note_on_c, 0, 72, 102
2, 49248, Note_on_c, 0, 64, 102
2, 49248, Note_on_c, 0, 55, 102
2, 49343, Note_on_c, 0, 55, 0
2, 49344, Note_on_c, 0, 52, 102
2, 49439, Note_on_c, 0, 52, 0
2, 49439, Note_on_c, 0, 64, 0
2, 49439, Note_on_c, 0, 72, 0
2, 49440, Note_on_c, 0, 65, 102
2, 49440, Note_on_c, 0, 70, 102
2, 49440, Note_on_c, 0, 55, 102
2, 49535, Note_on_c, 0, 55, 0
2, 49536, Note_on_c, 0, 49, 102
2, 49631, Note_on_c, 0, 49, 0
2, 49631, Note_on_c, 0, 65, 0
2, 49632, Note_on_c, 0, 64, 102
2, 49632, Note_on_c, 0, 48, 102
2, 49719, Note_on_c, 0, 70, 0
2, 49728, Note_on_c, 0, 73, 102
2, 49823, Note_on_c, 0, 73, 0
2, 49824, Note_on_c, 0, 72, 102
2, 49919, Note_on_c, 0, 72, 0
2, 49919, Note_on_c, 0, 48, 0
2, 49920, Note_on_c, 0, 70, 102
2, 49920, Note_on_c, 0, 48, 102
2, 50012, Note_on_c, 0, 64, 0
2, 50015, Note_on_c, 0, 48, 0
2, 50015, Note_on_c, 0, 70, 0
2, 50016, Note_on_c, 0, 68, 102
2, 50016, Note_on_c, 0, 49, 102
2, 50112, Note_on_c, 0, 64, 102
2, 50207, Note_on_c, 0, 64, 0
2, 50207, Note_on_c, 0, 49, 0
2, 50208, Note_on_c, 0, 65, 102
2, 50208, Note_on_c, 0, 46, 102
2, 50296, Note_on_c, 0, 68, 0
2, 50304, Note_on_c, 0, 73, 102
2, 50398, Note_on_c, 0, 65, 0
2, 50399, Note_on_c, 0, 73, 0
2, 50399, Note_on_c, 0, 46, 0
2, 50400, Note_on_c, 0, 70, 102
2, 50400, Note_on_c, 0, 48, 102
2, 50447, Note_on_c, 0, 70, 0
2, 50448, Note_on_c, 0, 68, 102
2, 50495, Note_on_c, 0, 68, 0
2, 50496, Note_on_c, 0, 70, 102
2, 50543, Note_on_c, 0, 70, 0
2, 50544, Note_on_c, 0, 68, 102
2, 50591, Note_on_c, 0, 68, 0
2, 50591, Note_on_c, 0, 48, 0
2, 50592, Note_on_c, 0, 67, 102
2, 50592, Note_on_c, 0, 36, 102
2, 50687, Note_on_c, 0, 67, 0
2, 50688, Note_on_c, 0, 65, 102
2, 50783, Note_on_c, 0, 65, 0
2, 50783, Note_on_c, 0, 36, 0
2, 50784, Note_on_c, 0, 65, 102
2, 50784, Note_on_c, 0, 41, 102
2, 50880, Note_on_c, 0, 72, 102
2, 50904, Note_on_c, 0, 65, 0
2, 50975, Note_on_c, 0, 72, 0
2, 50975, Note_on_c, 0, 41, 0
2, 50976, Note_on_c, 0, 68, 102
2, 50976, Note_on_c, 0, 53, 102
2, 51071, Note_on_c, 0, 68, 0
2, 51072, Note_on_c, 0, 65, 102
2, 51167, Note_on_c, 0, 65, 0
2, 51168, Note_on_c, 0, 72, 102
2, 51256, Note_on_c, 0, 53, 0
2, 51263, Note_on_c, 0, 72, 0
2, 51264, Note_on_c, 0, 63, 102
2, 51359, Note_on_c, 0, 63, 0
2, 51360, Note_on_c, 0, 62, 102
2, 51456, Note_on_c, 0, 53, 102
2, 51551, Note_on_c, 0, 53, 0
2, 51551, Note_on_c, 0, 62, 0
2, 51552, Note_on_c, 0, 70, 102
2, 51552, Note_on_c, 0, 50, 102
2, 51647, Note_on_c, 0, 50, 0
2, 51648, Note_on_c, 0, 46, 102
2, 51743, Note_on_c, 0, 46, 0
2, 51744, Note_on_c, 0, 53, 102
2, 51832, Note_on_c, 0, 70, 0
2, 51839, Note_on_c, 0, 53, 0
2, 51840, Note_on_c, 0, 44, 102
2, 51935, Note_on_c, 0, 44, 0
2, 51936, Note_on_c, 0, 43, 102
2, 52032, Note_on_c, 0, 70, 102
2, 52127, Note_on_c, 0, 70, 0
2, 52127, Note_on_c, 0, 43, 0
2, 52128, Note_on_c, 0, 67, 102
2, 52128, Note_on_c, 0, 51, 102
2, 52223, Note_on_c, 0, 67, 0
2, 52224, Note_on_c, 0, 63, 102
2, 52319, Note_on_c, 0, 63, 0
2, 52320, Note_on_c, 0, 70, 102
2, 52408, Note_on_c, 0, 51, 0
2, 52415, Note_on_c, 0, 70, 0
2, 52416, Note_on_c, 0, 62, 102
2, 52511, Note_on_c, 0, 62, 0
2, 52512, Note_on_c, 0, 60, 102
2, 52608, Note_on_c, 0, 51, 102
2, 52703, Note_on_c, 0, 51, 0
2, 52703, Note_on_c, 0, 60, 0
2, 52704, Note_on_c, 0, 68, 102
2, 52704, Note_on_c, 0, 48, 102
2, 52799, Note_on_c, 0, 48, 0
2, 52800, Note_on_c, 0, 44, 102
2, 52895, Note_on_c, 0, 44, 0
2, 52896, Note_on_c, 0, 51, 102
2, 52984, Note_on_c, 0, 68, 0
2, 52991, Note_on_c, 0, 51, 0
2, 52992, Note_on_c, 0, 43, 102
2, 53087, Note_on_c, 0, 43, 0
2, 53088, Note_on_c, 0, 41, 102
2, 53184, Note_on_c, 0, 68, 102
2, 53279, Note_on_c, 0, 68, 0
2, 53279, Note_on_c, 0, 41, 0
2, 53280, Note_on_c, 0, 65, 102
2, 53280, Note_on_c, 0, 50, 102
2, 53375, Note_on_c, 0, 65, 0
2, 53376, Note_on_c, 0, 62, 102
2, 53471, Note_on_c, 0, 62, 0
2, 53472, Note_on_c, 0, 68, 102
2, 53560, Note_on_c, 0, 50, 0
2, 53567, Note_on_c, 0, 68, 0
2, 53568, Note_on_c, 0, 60, 102
2, 53663, Note_on_c, 0, 60, 0
2, 53664, Note_on_c, 0, 59, 102
2, 53760, Note_on_c, 0, 50, 102
2, 53855, Note_on_c, 0, 50, 0
2, 53855, Note_on_c, 0, 59, 0
2, 53856, Note_on_c, 0, 67, 102
2, 53856, Note_on_c, 0, 47, 102
2, 53951, Note_on_c, 0, 47, 0
2, 53952, Note_on_c, 0, 43, 102
2, 54047, Note_on_c, 0, 43, 0
2, 54048, Note_on_c, 0, 50, 102
2, 54136, Note_on_c, 0, 67, 0
2, 54143, Note_on_c, 0, 50, 0
2, 54144, Note_on_c, 0, 41, 102
2, 54239, Note_on_c, 0, 41, 0
2, 54240, Note_on_c, 0, 39, 102
2, 54336, Note_on_c, 0, 67, 102
2, 54431, Note_on_c, 0, 67, 0
2, 54431, Note_on_c, 0, 39, 0
2, 54432, Note_on_c, 0, 63, 102
2, 54432, Note_on_c, 0, 48, 102
2, 54527, Note_on_c, 0, 63, 0
2, 54528, Note_on_c, 0, 60, 102
2, 54623, Note_on_c, 0, 60, 0
2, 54623, Note_on_c, 0, 48, 0
2, 54624, Note_on_c, 0, 75, 102
2, 54624, Note_on_c, 0, 36, 102
2, 54719, Note_on_c, 0, 75, 0
2, 54720, Note_on_c, 0, 72, 102
2, 54815, Note_on_c, 0, 72, 0
2, 54815, Note_on_c, 0, 36, 0
2, 54816, Note_on_c, 0, 69, 102
2, 54816, Note_on_c, 0, 41, 102
2, 54912, Note_on_c, 0, 77, 102
2, 54936, Note_on_c, 0, 69, 0
2, 55007, Note_on_c, 0, 77, 0
2, 55007, Note_on_c, 0, 41, 0
2, 55008, Note_on_c, 0, 74, 102
2, 55008, Note_on_c, 0, 53, 102
2, 55103, Note_on_c, 0, 74, 0
2, 55104, Note_on_c, 0, 71, 102
2, 55199, Note_on_c, 0, 71, 0
2, 55199, Note_on_c, 0, 53, 0
2, 55200, Note_on_c, 0, 79, 102
2, 55200, Note_on_c, 0, 51, 102
2, 55295, Note_on_c, 0, 79, 0
2, 55296, Note_on_c, 0, 75, 102
2, 55391, Note_on_c, 0, 75, 0
2, 55391, Note_on_c, 0, 51, 0
2, 55392, Note_on_c, 0, 72, 102
2, 55392, Note_on_c, 0, 56, 102
2, 55488, Note_on_c, 0, 80, 102
2, 55512, Note_on_c, 0, 72, 0
2, 55583, Note_on_c, 0, 80, 0
2, 55583, Note_on_c, 0, 56, 0
2, 55584, Note_on_c, 0, 77, 102
2, 55584, Note_on_c, 0, 44, 102
2, 55679, Note_on_c, 0, 77, 0
2, 55680, Note_on_c, 0, 74, 102
2, 55775, Note_on_c, 0, 74, 0
2, 55775, Note_on_c, 0, 44, 0
2, 55776, Note_on_c, 0, 82, 102
2, 55776, Note_on_c, 0, 43, 102
2, 55871, Note_on_c, 0, 82, 0
2, 55872, Note_on_c, 0, 79, 102
2, 55967, Note_on_c, 0, 79, 0
2, 55967, Note_on_c, 0, 43, 0
2, 55968, Note_on_c, 0, 76, 102
2, 55968, Note_on_c, 0, 48, 102
2, 56063, Note_on_c, 0, 76, 0
2, 56064, Note_on_c, 0, 79, 102
2, 56159, Note_on_c, 0, 79, 0
2, 56159, Note_on_c, 0, 48, 0
2, 56160, Note_on_c, 0, 84, 102
2, 56160, Note_on_c, 0, 50, 102
2, 56255, Note_on_c, 0, 84, 0
2, 56256, Note_on_c, 0, 82, 102
2, 56351, Note_on_c, 0, 82, 0
2, 56351, Note_on_c, 0, 50, 0
2, 56352, Note_on_c, 0, 80, 102
2, 56352, Note_on_c, 0, 52, 102
2, 56447, Note_on_c, 0, 80, 0
2, 56448, Note_on_c, 0, 79, 102
2, 56543, Note_on_c, 0, 79, 0
2, 56543, Note_on_c, 0, 52, 0
2, 56544, Note_on_c, 0, 80, 102
2, 56544, Note_on_c, 0, 53, 102
2, 56639, Note_on_c, 0, 80, 0
2, 56640, Note_on_c, 0, 79, 102
2, 56735, Note_on_c, 0, 79, 0
2, 56735, Note_on_c, 0, 53, 0
2, 56736, Note_on_c, 0, 77, 102
2, 56736, Note_on_c, 0, 55, 102
2, 56831, Note_on_c, 0, 77, 0
2, 56832, Note_on_c, 0, 75, 102
2, 56927, Note_on_c, 0, 75, 0
2, 56927, Note_on_c, 0, 55, 0
2, 56928, Note_on_c, 0, 74, 102
2, 56928, Note_on_c, 0, 56, 102
2, 57023, Note_on_c, 0, 74, 0
2, 57024, Note_on_c, 0, 72, 102
2, 57119, Note_on_c, 0, 72, 0
2, 57119, Note_on_c, 0, 56, 0
2, 57120, Note_on_c, 0, 71, 102
2, 57120, Note_on_c, 0, 55, 102
2, 57216, Note_on_c, 0, 80, 102
2, 57240, Note_on_c, 0, 71, 0
2, 57311, Note_on_c, 0, 80, 0
2, 57311, Note_on_c, 0, 55, 0
2, 57312, Note_on_c, 0, 77, 102
2, 57312, Note_on_c, 0, 57, 102
2, 57407, Note_on_c, 0, 77, 0
2, 57408, Note_on_c, 0, 74, 102
2, 57503, Note_on_c, 0, 74, 0
2, 57503, Note_on_c, 0, 57, 0
2, 57504, Note_on_c, 0, 79, 102
2, 57504, Note_on_c, 0, 59, 102
2, 57599, Note_on_c, 0, 79, 0
2, 57600, Note_on_c, 0, 74, 102
2, 57695, Note_on_c, 0, 74, 0
2, 57695, Note_on_c, 0, 59, 0
2, 57696, Note_on_c, 0, 75, 102
2, 57696, Note_on_c, 0, 60, 102
2, 57791, Note_on_c, 0, 75, 0
2, 57792, Note_on_c, 0, 74, 102
2, 57886, Note_on_c, 0, 60, 0
2, 57887, Note_on_c, 0, 74, 0
2, 57888, Note_on_c, 0, 72, 102
2, 57983, Note_on_c, 0, 72, 0
2, 57984, Note_on_c, 0, 70, 102
2, 57984, Note_on_c, 0, 60, 102
2, 58079, Note_on_c, 0, 60, 0
2, 58079, Note_on_c, 0, 70, 0
2, 58080, Note_on_c, 0, 69, 102
2, 58080, Note_on_c, 0, 62, 102
2, 58175, Note_on_c, 0, 62, 0
2, 58175, Note_on_c, 0, 69, 0
2, 58176, Note_on_c, 0, 63, 102
2, 58176, Note_on_c, 0, 67, 102
2, 58273, Note_on_c, 0, 67, 0
2, 58273, Note_on_c, 0, 63, 0
2, 58274, Note_on_c, 0, 57, 102
2, 58274, Note_on_c, 0, 66, 102
2, 58373, Note_on_c, 0, 75, 102
2, 58397, Note_on_c, 0, 66, 0
2, 58470, Note_on_c, 0, 75, 0
2, 58470, Note_on_c, 0, 57, 0
2, 58472, Note_on_c, 0, 55, 102
2, 58472, Note_on_c, 0, 72, 102
2, 58569, Note_on_c, 0, 72, 0
2, 58571, Note_on_c, 0, 69, 102
2, 58668, Note_on_c, 0, 69, 0
2, 58668, Note_on_c, 0, 55, 0
2, 58670, Note_on_c, 0, 54, 102
2, 58670, Note_on_c, 0, 74, 102
2, 58767, Note_on_c, 0, 74, 0
2, 58769, Note_on_c, 0, 69, 102
2, 58866, Note_on_c, 0, 54, 0
2, 58868, Note_on_c, 0, 69, 0
2, 58870, Note_on_c, 0, 63, 102
2, 58870, Note_on_c, 0, 55, 102
2, 58972, Note_on_c, 0, 74, 102
2, 58996, Note_on_c, 0, 63, 0
2, 59071, Note_on_c, 0, 74, 0
2, 59071, Note_on_c, 0, 55, 0
2, 59074, Note_on_c, 0, 71, 102
2, 59074, Note_on_c, 0, 53, 102
2, 59173, Note_on_c, 0, 71, 0
2, 59176, Note_on_c, 0, 67, 102
2, 59275, Note_on_c, 0, 67, 0
2, 59275, Note_on_c, 0, 53, 0
2, 59278, Note_on_c, 0, 72, 102
2, 59278, Note_on_c, 0, 51, 102
2, 59377, Note_on_c, 0, 72, 0
2, 59380, Note_on_c, 0, 67, 102
2, 59479, Note_on_c, 0, 51, 0
2, 59481, Note_on_c, 0, 67, 0
2, 59484, Note_on_c, 0, 53, 102
2, 59484, Note_on_c, 0, 62, 102
2, 59589, Note_on_c, 0, 72, 102
2, 59613, Note_on_c, 0, 62, 0
2, 59690, Note_on_c, 0, 72, 0
2, 59691, Note_on_c, 0, 53, 0
2, 59694, Note_on_c, 0, 55, 102
2, 59694, Note_on_c, 0, 68, 102
2, 59795, Note_on_c, 0, 68, 0
2, 59799, Note_on_c, 0, 65, 102
2, 59900, Note_on_c, 0, 65, 0
2, 59901, Note_on_c, 0, 55, 0
2, 59904, Note_on_c, 0, 43, 102
2, 59904, Note_on_c, 0, 71, 102
2, 60009, Note_on_c, 0, 65, 102
2, 60034, Note_on_c, 0, 71, 0
2, 60128, Note_on_c, 0, 65, 0
2, 60136, Note_on_c, 0, 63, 102
2, 60136, Note_on_c, 0, 67, 102
2, 60136, Note_on_c, 0, 72, 102
2, 60136, Note_on_c, 0, 36, 102
2, 60137, Note_on_c, 0, 43, 0
2, 60936, Note_on_c, 0, 63, 0
2, 60936, Note_on_c, 0, 67, 0
2, 60938, Note_on_c, 0, 36, 0
2, 60943, Note_on_c, 0, 72, 0
2, 62016, Note_on_c, 0, 75, 102
2, 62016, Note_on_c, 0, 60, 102
2, 62206, Note_on_c, 0, 75, 0
2, 62208, Note_on_c, 0, 77, 102
2, 62303, Note_on_c, 0, 77, 0
2, 62304, Note_on_c, 0, 75, 102
2, 62399, Note_on_c, 0, 75, 0
2, 62400, Note_on_c, 0, 63, 102
2, 62400, Note_on_c, 0, 74, 102
2, 62495, Note_on_c, 0, 74, 0
2, 62496, Note_on_c, 0, 75, 102
2, 62591, Note_on_c, 0, 75, 0
2, 62592, Note_on_c, 0, 72, 102
2, 62783, Note_on_c, 0, 72, 0
2, 62783, Note_on_c, 0, 63, 0
2, 62783, Note_on_c, 0, 60, 0
2, 62784, Note_on_c, 0, 58, 102
2, 62784, Note_on_c, 0, 62, 102
2, 62784, Note_on_c, 0, 79, 102
2, 62879, Note_on_c, 0, 79, 0
2, 62880, Note_on_c, 0, 77, 102
2, 62975, Note_on_c, 0, 77, 0
2, 62976, Note_on_c, 0, 79, 102
2, 63167, Note_on_c, 0, 62, 0
2, 63167, Note_on_c, 0, 58, 0
2, 63168, Note_on_c, 0, 56, 102
2, 63168, Note_on_c, 0, 60, 102
2, 63236, Note_on_c, 0, 79, 0
2, 63264, Note_on_c, 0, 84, 102
2, 63359, Note_on_c, 0, 84, 0
2, 63360, Note_on_c, 0, 80, 102
2, 63455, Note_on_c, 0, 80, 0
2, 63456, Note_on_c, 0, 76, 102
2, 63551, Note_on_c, 0, 76, 0
2, 63552, Note_on_c, 0, 77, 102
2, 63647, Note_on_c, 0, 77, 0
2, 63648, Note_on_c, 0, 76, 102
2, 63743, Note_on_c, 0, 76, 0
2, 63743, Note_on_c, 0, 60, 0
2, 63743, Note_on_c, 0, 56, 0
2, 63744, Note_on_c, 0, 59, 102
2, 63744, Note_on_c, 0, 56, 102
2, 63744, Note_on_c, 0, 77, 102
2, 63935, Note_on_c, 0, 56, 0
2, 63935, Note_on_c, 0, 59, 0
2, 63936, Note_on_c, 0, 55, 102
2, 63936, Note_on_c, 0, 60, 102
2, 64127, Note_on_c, 0, 60, 0
2, 64127, Note_on_c, 0, 55, 0
2, 64128, Note_on_c, 0, 53, 102
2, 64128, Note_on_c, 0, 62, 102
2, 64319, Note_on_c, 0, 62, 0
2, 64319, Note_on_c, 0, 53, 0
2, 64319, Note_on_c, 0, 77, 0
2, 64320, Note_on_c, 0, 55, 102
2, 64320, Note_on_c, 0, 59, 102
2, 64416, Note_on_c, 0, 80, 102
2, 64511, Note_on_c, 0, 80, 0
2, 64512, Note_on_c, 0, 79, 102
2, 64607, Note_on_c, 0, 79, 0
2, 64608, Note_on_c, 0, 74, 102
2, 64703, Note_on_c, 0, 74, 0
2, 64703, Note_on_c, 0, 59, 0
2, 64703, Note_on_c, 0, 55, 0
2, 64704, Note_on_c, 0, 60, 102
2, 64704, Note_on_c, 0, 75, 102
2, 64799, Note_on_c, 0, 75, 0
2, 64800, Note_on_c, 0, 79, 102
2, 64895, Note_on_c, 0, 79, 0
2, 64896, Note_on_c, 0, 56, 102
2, 64896, Note_on_c, 0, 77, 102
2, 64991, Note_on_c, 0, 77, 0
2, 64992, Note_on_c, 0, 72, 102
2, 65084, Note_on_c, 0, 60, 0
2, 65087, Note_on_c, 0, 72, 0
2, 65087, Note_on_c, 0, 56, 0
2, 65088, Note_on_c, 0, 56, 102
2, 65088, Note_on_c, 0, 53, 102
2, 65088, Note_on_c, 0, 74, 102
2, 65183, Note_on_c, 0, 74, 0
2, 65184, Note_on_c, 0, 77, 102
2, 65279, Note_on_c, 0, 77, 0
2, 65280, Note_on_c, 0, 75, 102
2, 65375, Note_on_c, 0, 75, 0
2, 65376, Note_on_c, 0, 71, 102
2, 65471, Note_on_c, 0, 71, 0
2, 65471, Note_on_c, 0, 53, 0
2, 65471, Note_on_c, 0, 56, 0
2, 65472, Note_on_c, 0, 57, 102
2, 65472, Note_on_c, 0, 54, 102
2, 65472, Note_on_c, 0, 72, 102
2, 65567, Note_on_c, 0, 72, 0
2, 65568, Note_on_c, 0, 75, 102
2, 65663, Note_on_c, 0, 75, 0
2, 65664, Note_on_c, 0, 74, 102
2, 65759, Note_on_c, 0, 74, 0
2, 65760, Note_on_c, 0, 69, 102
2, 65855, Note_on_c, 0, 69, 0
2, 65855, Note_on_c, 0, 54, 0
2, 65855, Note_on_c, 0, 57, 0
2, 65856, Note_on_c, 0, 55, 102
2, 65856, Note_on_c, 0, 71, 102
2, 65903, Note_on_c, 0, 71, 0
2, 65904, Note_on_c, 0, 69, 102
2, 65951, Note_on_c, 0, 69, 0
2, 65952, Note_on_c, 0, 71, 102
2, 66048, Note_on_c, 0, 43, 102
2, 66143, Note_on_c, 0, 71, 0
2, 66144, Note_on_c, 0, 72, 102
2, 66191, Note_on_c, 0, 72, 0
2, 66192, Note_on_c, 0, 74, 102
2, 66239, Note_on_c, 0, 74, 0
2, 66239, Note_on_c, 0, 43, 0
2, 66240, Note_on_c, 0, 45, 102
2, 66240, Note_on_c, 0, 72, 102
2, 66335, Note_on_c, 0, 72, 0
2, 66336, Note_on_c, 0, 71, 102
2, 66431, Note_on_c, 0, 71, 0
2, 66431, Note_on_c, 0, 45, 0
2, 66432, Note_on_c, 0, 47, 102
2, 66432, Note_on_c, 0, 69, 102
2, 66527, Note_on_c, 0, 69, 0
2, 66528, Note_on_c, 0, 67, 102
2, 66608, Note_on_c, 0, 67, 0
2, 66623, Note_on_c, 0, 47, 0
2, 66624, Note_on_c, 0, 48, 102
2, 66624, Note_on_c, 0, 75, 102
2, 66815, Note_on_c, 0, 75, 0
2, 66816, Note_on_c, 0, 55, 0
2, 66816, Note_on_c, 0, 55, 102
2, 66816, Note_on_c, 0, 77, 102
2, 66911, Note_on_c, 0, 77, 0
2, 66912, Note_on_c, 0, 75, 102
2, 67004, Note_on_c, 0, 48, 0
2, 67007, Note_on_c, 0, 75, 0
2, 67007, Note_on_c, 0, 55, 0
2, 67008, Note_on_c, 0, 53, 102
2, 67008, Note_on_c, 0, 74, 102
2, 67103, Note_on_c, 0, 74, 0
2, 67104, Note_on_c, 0, 75, 102
2, 67199, Note_on_c, 0, 75, 0
2, 67199, Note_on_c, 0, 53, 0
2, 67200, Note_on_c, 0, 51, 102
2, 67200, Note_on_c, 0, 48, 102
2, 67200, Note_on_c, 0, 72, 102
2, 67391, Note_on_c, 0, 72, 0
2, 67391, Note_on_c, 0, 48, 0
2, 67391, Note_on_c, 0, 51, 0
2, 67392, Note_on_c, 0, 79, 102
2, 67392, Note_on_c, 0, 53, 102
2, 67392, Note_on_c, 0, 50, 102
2, 67455, Note_on_c, 0, 79, 0
2, 67456, Note_on_c, 0, 80, 102
2, 67519, Note_on_c, 0, 80, 0
2, 67520, Note_on_c, 0, 82, 102
2, 67583, Note_on_c, 0, 50, 0
2, 67583, Note_on_c, 0, 53, 0
2, 67584, Note_on_c, 0, 52, 102
2, 67584, Note_on_c, 0, 55, 102
2, 67775, Note_on_c, 0, 55, 0
2, 67775, Note_on_c, 0, 52, 0
2, 67776, Note_on_c, 0, 53, 102
2, 67840, Note_on_c, 0, 82, 0
2, 67872, Note_on_c, 0, 79, 102
2, 67967, Note_on_c, 0, 79, 0
2, 67968, Note_on_c, 0, 41, 102
2, 67968, Note_on_c, 0, 76, 102
2, 68063, Note_on_c, 0, 76, 0
2, 68064, Note_on_c, 0, 72, 102
2, 68156, Note_on_c, 0, 53, 0
2, 68159, Note_on_c, 0, 72, 0
2, 68159, Note_on_c, 0, 41, 0
2, 68160, Note_on_c, 0, 53, 102
2, 68160, Note_on_c, 0, 80, 102
2, 68352, Note_on_c, 0, 55, 102
2, 68447, Note_on_c, 0, 80, 0
2, 68448, Note_on_c, 0, 72, 102
2, 68543, Note_on_c, 0, 72, 0
2, 68543, Note_on_c, 0, 55, 0
2, 68544, Note_on_c, 0, 56, 102
2, 68544, Note_on_c, 0, 73, 102
2, 68735, Note_on_c, 0, 56, 0
2, 68735, Note_on_c, 0, 53, 0
2, 68736, Note_on_c, 0, 58, 102
2, 68736, Note_on_c, 0, 55, 102
2, 68927, Note_on_c, 0, 55, 0
2, 68927, Note_on_c, 0, 58, 0
2, 68928, Note_on_c, 0, 56, 102
2, 68984, Note_on_c, 0, 73, 0
2, 69024, Note_on_c, 0, 70, 102
2, 69119, Note_on_c, 0, 70, 0
2, 69119, Note_on_c, 0, 56, 0
2, 69120, Note_on_c, 0, 53, 102
2, 69120, Note_on_c, 0, 56, 102
2, 69120, Note_on_c, 0, 72, 102
2, 69215, Note_on_c, 0, 72, 0
2, 69216, Note_on_c, 0, 77, 102
2, 69311, Note_on_c, 0, 77, 0
2, 69311, Note_on_c, 0, 53, 0
2, 69312, Note_on_c, 0, 46, 102
2, 69312, Note_on_c, 0, 74, 102
2, 69407, Note_on_c, 0, 74, 0
2, 69408, Note_on_c, 0, 79, 102
2, 69500, Note_on_c, 0, 56, 0
2, 69503, Note_on_c, 0, 79, 0
2, 69504, Note_on_c, 0, 50, 102
2, 69504, Note_on_c, 0, 77, 102
2, 69599, Note_on_c, 0, 77, 0
2, 69600, Note_on_c, 0, 80, 102
2, 69695, Note_on_c, 0, 80, 0
2, 69695, Note_on_c, 0, 50, 0
2, 69696, Note_on_c, 0, 51, 102
2, 69696, Note_on_c, 0, 79, 102
2, 69791, Note_on_c, 0, 79, 0
2, 69792, Note_on_c, 0, 84, 102
2, 69839, Note_on_c, 0, 84, 0
2, 69840, Note_on_c, 0, 82, 102
2, 69887, Note_on_c, 0, 82, 0
2, 69887, Note_on_c, 0, 51, 0
2, 69888, Note_on_c, 0, 53, 102
2, 69888, Note_on_c, 0, 80, 102
2, 69983, Note_on_c, 0, 80, 0
2, 69984, Note_on_c, 0, 79, 102
2, 70079, Note_on_c, 0, 79, 0
2, 70079, Note_on_c, 0, 53, 0
2, 70079, Note_on_c, 0, 46, 0
2, 70080, Note_on_c, 0, 55, 102
2, 70080, Note_on_c, 0, 51, 102
2, 70080, Note_on_c, 0, 77, 102
2, 70175, Note_on_c, 0, 77, 0
2, 70176, Note_on_c, 0, 75, 102
2, 70223, Note_on_c, 0, 75, 0
2, 70224, Note_on_c, 0, 77, 102
2, 70271, Note_on_c, 0, 77, 0
2, 70271, Note_on_c, 0, 55, 0
2, 70272, Note_on_c, 0, 56, 102
2, 70272, Note_on_c, 0, 75, 102
2, 70319, Note_on_c, 0, 75, 0
2, 70320, Note_on_c, 0, 77, 102
2, 70367, Note_on_c, 0, 77, 0
2, 70367, Note_on_c, 0, 56, 0
2, 70368, Note_on_c, 0, 58, 102
2, 70368, Note_on_c, 0, 75, 102
2, 70415, Note_on_c, 0, 75, 0
2, 70416, Note_on_c, 0, 77, 102
2, 70463, Note_on_c, 0, 77, 0
2, 70463, Note_on_c, 0, 58, 0
2, 70464, Note_on_c, 0, 56, 102
2, 70464, Note_on_c, 0, 75, 102
2, 70559, Note_on_c, 0, 56, 0
2, 70560, Note_on_c, 0, 55, 102
2, 70655, Note_on_c, 0, 55, 0
2, 70655, Note_on_c, 0, 51, 0
2, 70656, Note_on_c, 0, 56, 102
2, 70751, Note_on_c, 0, 56, 0
2, 70752, Note_on_c, 0, 53, 102
2, 70847, Note_on_c, 0, 53, 0
2, 70848, Note_on_c, 0, 55, 102
2, 71039, Note_on_c, 0, 75, 0
2, 71188, Note_on_c, 0, 55, 0
2, 71232, Note_on_c, 0, 55, 102
2, 71232, Note_on_c, 0, 51, 102
2, 71232, Note_on_c, 0, 70, 102
2, 71423, Note_on_c, 0, 70, 0
2, 71424, Note_on_c, 0, 72, 102
2, 71519, Note_on_c, 0, 72, 0
2, 71520, Note_on_c, 0, 70, 102
2, 71615, Note_on_c, 0, 70, 0
2, 71615, Note_on_c, 0, 55, 0
2, 71616, Note_on_c, 0, 58, 102
2, 71616, Note_on_c, 0, 68, 102
2, 71711, Note_on_c, 0, 68, 0
2, 71712, Note_on_c, 0, 70, 102
2, 71807, Note_on_c, 0, 70, 0
2, 71807, Note_on_c, 0, 51, 0
2, 71808, Note_on_c, 0, 51, 102
2, 71808, Note_on_c, 0, 67, 102
2, 71999, Note_on_c, 0, 67, 0
2, 71999, Note_on_c, 0, 51, 0
2, 72000, Note_on_c, 0, 53, 102
2, 72000, Note_on_c, 0, 75, 102
2, 72095, Note_on_c, 0, 75, 0
2, 72096, Note_on_c, 0, 74, 102
2, 72191, Note_on_c, 0, 74, 0
2, 72191, Note_on_c, 0, 53, 0
2, 72192, Note_on_c, 0, 75, 102
2, 72192, Note_on_c, 0, 55, 102
2, 72383, Note_on_c, 0, 55, 0
2, 72384, Note_on_c, 0, 48, 102
2, 72472, Note_on_c, 0, 75, 0
2, 72480, Note_on_c, 0, 74, 102
2, 72575, Note_on_c, 0, 74, 0
2, 72576, Note_on_c, 0, 58, 0
2, 72576, Note_on_c, 0, 55, 102
2, 72576, Note_on_c, 0, 75, 102
2, 72671, Note_on_c, 0, 75, 0
2, 72672, Note_on_c, 0, 79, 102
2, 72764, Note_on_c, 0, 48, 0
2, 72767, Note_on_c, 0, 79, 0
2, 72767, Note_on_c, 0, 55, 0
2, 72768, Note_on_c, 0, 57, 102
2, 72768, Note_on_c, 0, 77, 102
2, 72863, Note_on_c, 0, 77, 0
2, 72864, Note_on_c, 0, 75, 102
2, 72959, Note_on_c, 0, 75, 0
2, 72960, Note_on_c, 0, 50, 102
2, 72960, Note_on_c, 0, 74, 102
2, 73055, Note_on_c, 0, 74, 0
2, 73056, Note_on_c, 0, 72, 102
2, 73151, Note_on_c, 0, 72, 0
2, 73151, Note_on_c, 0, 50, 0
2, 73152, Note_on_c, 0, 51, 102
2, 73152, Note_on_c, 0, 70, 102
2, 73247, Note_on_c, 0, 70, 0
2, 73248, Note_on_c, 0, 69, 102
2, 73343, Note_on_c, 0, 69, 0
2, 73343, Note_on_c, 0, 51, 0
2, 73344, Note_on_c, 0, 53, 102
2, 73344, Note_on_c, 0, 67, 102
2, 73439, Note_on_c, 0, 67, 0
2, 73440, Note_on_c, 0, 65, 102
2, 73520, Note_on_c, 0, 65, 0
2, 73535, Note_on_c, 0, 53, 0
2, 73535, Note_on_c, 0, 57, 0
2, 73536, Note_on_c, 0, 46, 102
2, 73536, Note_on_c, 0, 75, 102
2, 73631, Note_on_c, 0, 75, 0
2, 73632, Note_on_c, 0, 72, 102
2, 73727, Note_on_c, 0, 72, 0
2, 73728, Note_on_c, 0, 50, 102
2, 73728, Note_on_c, 0, 74, 102
2, 73823, Note_on_c, 0, 74, 0
2, 73824, Note_on_c, 0, 82, 102
2, 73906, Note_on_c, 0, 46, 0
2, 73908, Note_on_c, 0, 50, 0
2, 73919, Note_on_c, 0, 82, 0
2, 73920, Note_on_c, 0, 52, 102
2, 73920, Note_on_c, 0, 45, 102
2, 73920, Note_on_c, 0, 74, 102
2, 74015, Note_on_c, 0, 74, 0
2, 74016, Note_on_c, 0, 70, 102
2, 74100, Note_on_c, 0, 52, 0
2, 74111, Note_on_c, 0, 70, 0
2, 74112, Note_on_c, 0, 54, 102
2, 74112, Note_on_c, 0, 72, 102
2, 74207, Note_on_c, 0, 72, 0
2, 74208, Note_on_c, 0, 81, 102
2, 74293, Note_on_c, 0, 54, 0
2, 74302, Note_on_c, 0, 45, 0
2, 74303, Note_on_c, 0, 81, 0
2, 74304, Note_on_c, 0, 55, 102
2, 74304, Note_on_c, 0, 72, 102
2, 74399, Note_on_c, 0, 72, 0
2, 74400, Note_on_c, 0, 69, 102
2, 74495, Note_on_c, 0, 69, 0
2, 74496, Note_on_c, 0, 43, 102
2, 74496, Note_on_c, 0, 70, 102
2, 74591, Note_on_c, 0, 70, 0
2, 74592, Note_on_c, 0, 79, 102
2, 74676, Note_on_c, 0, 43, 0
2, 74687, Note_on_c, 0, 79, 0
2, 74688, Note_on_c, 0, 48, 102
2, 74688, Note_on_c, 0, 70, 102
2, 74783, Note_on_c, 0, 70, 0
2, 74784, Note_on_c, 0, 67, 102
2, 74879, Note_on_c, 0, 67, 0
2, 74879, Note_on_c, 0, 48, 0
2, 74880, Note_on_c, 0, 51, 102
2, 74880, Note_on_c, 0, 69, 102
2, 74975, Note_on_c, 0, 69, 0
2, 74976, Note_on_c, 0, 79, 102
2, 75066, Note_on_c, 0, 79, 0
2, 75071, Note_on_c, 0, 51, 0
2, 75071, Note_on_c, 0, 55, 0
2, 75072, Note_on_c, 0, 50, 102
2, 75072, Note_on_c, 0, 57, 102
2, 75072, Note_on_c, 0, 78, 102
2, 75263, Note_on_c, 0, 57, 0
2, 75264, Note_on_c, 0, 58, 102
2, 75359, Note_on_c, 0, 78, 0
2, 75360, Note_on_c, 0, 79, 102
2, 75407, Note_on_c, 0, 79, 0
2, 75408, Note_on_c, 0, 81, 102
2, 75455, Note_on_c, 0, 81, 0
2, 75455, Note_on_c, 0, 58, 0
2, 75456, Note_on_c, 0, 60, 102
2, 75456, Note_on_c, 0, 79, 102
2, 75551, Note_on_c, 0, 79, 0
2, 75552, Note_on_c, 0, 78, 102
2, 75647, Note_on_c, 0, 78, 0
2, 75647, Note_on_c, 0, 50, 0
2, 75648, Note_on_c, 0, 54, 102
2, 75648, Note_on_c, 0, 76, 102
2, 75743, Note_on_c, 0, 76, 0
2, 75744, Note_on_c, 0, 74, 102
2, 75804, Note_on_c, 0, 74, 0
2, 75832, Note_on_c, 0, 54, 0
2, 75840, Note_on_c, 0, 55, 102
2, 75840, Note_on_c, 0, 75, 102
2, 76031, Note_on_c, 0, 75, 0
2, 76032, Note_on_c, 0, 77, 102
2, 76127, Note_on_c, 0, 77, 0
2, 76128, Note_on_c, 0, 75, 102
2, 76223, Note_on_c, 0, 75, 0
2, 76223, Note_on_c, 0, 60, 0
2, 76224, Note_on_c, 0, 58, 102
2, 76224, Note_on_c, 0, 74, 102
2, 76319, Note_on_c, 0, 74, 0
2, 76320, Note_on_c, 0, 75, 102
2, 76415, Note_on_c, 0, 75, 0
2, 76416, Note_on_c, 0, 72, 102
2, 76596, Note_on_c, 0, 72, 0
2, 76607, Note_on_c, 0, 58, 0
2, 76607, Note_on_c, 0, 55, 0
2, 76608, Note_on_c, 0, 53, 102
2, 76608, Note_on_c, 0, 57, 102
2, 76608, Note_on_c, 0, 74, 102
2, 76671, Note_on_c, 0, 74, 0
2, 76672, Note_on_c, 0, 72, 102
2, 76735, Note_on_c, 0, 72, 0
2, 76736, Note_on_c, 0, 74, 102
2, 76991, Note_on_c, 0, 57, 0
2, 76991, Note_on_c, 0, 53, 0
2, 76992, Note_on_c, 0, 55, 102
2, 76992, Note_on_c, 0, 51, 102
2, 77066, Note_on_c, 0, 74, 0
2, 77088, Note_on_c, 0, 79, 102
2, 77183, Note_on_c, 0, 79, 0
2, 77184, Note_on_c, 0, 75, 102
2, 77279, Note_on_c, 0, 75, 0
2, 77280, Note_on_c, 0, 71, 102
2, 77375, Note_on_c, 0, 71, 0
2, 77376, Note_on_c, 0, 72, 102
2, 77471, Note_on_c, 0, 72, 0
2, 77472, Note_on_c, 0, 71, 102
2, 77532, Note_on_c, 0, 55, 0
2, 77567, Note_on_c, 0, 71, 0
2, 77567, Note_on_c, 0, 51, 0
2, 77568, Note_on_c, 0, 51, 102
2, 77568, Note_on_c, 0, 54, 102
2, 77568, Note_on_c, 0, 72, 102
2, 77759, Note_on_c, 0, 54, 0
2, 77759, Note_on_c, 0, 51, 0
2, 77760, Note_on_c, 0, 50, 102
2, 77760, Note_on_c, 0, 55, 102
2, 77951, Note_on_c, 0, 55, 0
2, 77951, Note_on_c, 0, 50, 0
2, 77952, Note_on_c, 0, 48, 102
2, 77952, Note_on_c, 0, 57, 102
2, 78143, Note_on_c, 0, 57, 0
2, 78143, Note_on_c, 0, 48, 0
2, 78144, Note_on_c, 0, 50, 102
2, 78144, Note_on_c, 0, 46, 102
2, 78208, Note_on_c, 0, 72, 0
2, 78240, Note_on_c, 0, 75, 102
2, 78335, Note_on_c, 0, 75, 0
2, 78335, Note_on_c, 0, 46, 0
2, 78335, Note_on_c, 0, 50, 0
2, 78336, Note_on_c, 0, 43, 102
2, 78336, Note_on_c, 0, 55, 102
2, 78336, Note_on_c, 0, 74, 102
2, 78431, Note_on_c, 0, 74, 0
2, 78432, Note_on_c, 0, 69, 102
2, 78527, Note_on_c, 0, 69, 0
2, 78527, Note_on_c, 0, 43, 0
2, 78528, Note_on_c, 0, 50, 102
2, 78528, Note_on_c, 0, 70, 102
2, 78623, Note_on_c, 0, 70, 0
2, 78624, Note_on_c, 0, 74, 102
2, 78716, Note_on_c, 0, 55, 0
2, 78719, Note_on_c, 0, 74, 0
2, 78720, Note_on_c, 0, 54, 102
2, 78720, Note_on_c, 0, 72, 102
2, 78815, Note_on_c, 0, 72, 0
2, 78815, Note_on_c, 0, 54, 0
2, 78816, Note_on_c, 0, 52, 102
2, 78816, Note_on_c, 0, 67, 102
2, 78911, Note_on_c, 0, 67, 0
2, 78911, Note_on_c, 0, 52, 0
2, 78912, Note_on_c, 0, 54, 102
2, 78912, Note_on_c, 0, 69, 102
2, 79007, Note_on_c, 0, 69, 0
2, 79008, Note_on_c, 0, 72, 102
2, 79103, Note_on_c, 0, 72, 0
2, 79103, Note_on_c, 0, 54, 0
2, 79104, Note_on_c, 0, 60, 102
2, 79104, Note_on_c, 0, 70, 102
2, 79199, Note_on_c, 0, 70, 0
2, 79200, Note_on_c, 0, 66, 102
2, 79295, Note_on_c, 0, 66, 0
2, 79295, Note_on_c, 0, 50, 0
2, 79296, Note_on_c, 0, 55, 102
2, 79296, Note_on_c, 0, 67, 102
2, 79391, Note_on_c, 0, 67, 0
2, 79392, Note_on_c, 0, 66, 102
2, 79487, Note_on_c, 0, 66, 0
2, 79488, Note_on_c, 0, 69, 102
2, 79583, Note_on_c, 0, 69, 0
2, 79584, Note_on_c, 0, 67, 102
2, 79679, Note_on_c, 0, 67, 0
2, 79679, Note_on_c, 0, 60, 0
2, 79680, Note_on_c, 0, 59, 102
2, 79680, Note_on_c, 0, 67, 102
2, 79871, Note_on_c, 0, 55, 0
2, 79872, Note_on_c, 0, 53, 102
2, 80060, Note_on_c, 0, 59, 0
2, 80063, Note_on_c, 0, 53, 0
2, 80064, Note_on_c, 0, 51, 102
2, 80255, Note_on_c, 0, 51, 0
2, 80255, Note_on_c, 0, 67, 0
2, 80256, Note_on_c, 0, 50, 102
2, 80447, Note_on_c, 0, 50, 0
2, 80448, Note_on_c, 0, 48, 102
2, 80448, Note_on_c, 0, 75, 102
2, 80639, Note_on_c, 0, 75, 0
2, 80639, Note_on_c, 0, 48, 0
2, 80640, Note_on_c, 0, 55, 102
2, 80640, Note_on_c, 0, 77, 102
2, 80735, Note_on_c, 0, 77, 0
2, 80736, Note_on_c, 0, 75, 102
2, 80831, Note_on_c, 0, 75, 0
2, 80831, Note_on_c, 0, 55, 0
2, 80832, Note_on_c, 0, 53, 102
2, 80832, Note_on_c, 0, 74, 102
2, 80927, Note_on_c, 0, 74, 0
2, 80928, Note_on_c, 0, 75, 102
2, 81023, Note_on_c, 0, 75, 0
2, 81023, Note_on_c, 0, 53, 0
2, 81024, Note_on_c, 0, 51, 102
2, 81024, Note_on_c, 0, 72, 102
2, 81215, Note_on_c, 0, 72, 0
2, 81215, Note_on_c, 0, 51, 0
2, 81216, Note_on_c, 0, 50, 102
2, 81216, Note_on_c, 0, 80, 102
2, 81296, Note_on_c, 0, 80, 0
2, 81296, Note_on_c, 0, 79, 102
2, 81376, Note_on_c, 0, 79, 0
2, 81376, Note_on_c, 0, 80, 102
2, 81407, Note_on_c, 0, 50, 0
2, 81408, Note_on_c, 0, 48, 102
2, 81599, Note_on_c, 0, 48, 0
2, 81600, Note_on_c, 0, 46, 102
2, 81676, Note_on_c, 0, 80, 0
2, 81696, Note_on_c, 0, 77, 102
2, 81791, Note_on_c, 0, 77, 0
2, 81792, Note_on_c, 0, 58, 102
2, 81792, Note_on_c, 0, 73, 102
2, 81887, Note_on_c, 0, 73, 0
2, 81888, Note_on_c, 0, 72, 102
2, 81983, Note_on_c, 0, 72, 0
2, 81983, Note_on_c, 0, 58, 0
2, 81984, Note_on_c, 0, 56, 102
2, 81984, Note_on_c, 0, 73, 102
2, 82079, Note_on_c, 0, 73, 0
2, 82080, Note_on_c, 0, 77, 102
2, 82175, Note_on_c, 0, 77, 0
2, 82175, Note_on_c, 0, 56, 0
2, 82176, Note_on_c, 0, 55, 102
2, 82176, Note_on_c, 0, 80, 102
2, 82271, Note_on_c, 0, 80, 0
2, 82272, Note_on_c, 0, 79, 102
2, 82367, Note_on_c, 0, 79, 0
2, 82367, Note_on_c, 0, 55, 0
2, 82368, Note_on_c, 0, 53, 102
2, 82368, Note_on_c, 0, 79, 102
2, 82559, Note_on_c, 0, 53, 0
2, 82560, Note_on_c, 0, 52, 102
2, 82750, Note_on_c, 0, 46, 0
2, 82751, Note_on_c, 0, 52, 0
2, 82752, Note_on_c, 0, 44, 102
2, 82847, Note_on_c, 0, 79, 0
2, 82848, Note_on_c, 0, 76, 102
2, 82943, Note_on_c, 0, 76, 0
2, 82944, Note_on_c, 0, 48, 102
2, 82944, Note_on_c, 0, 77, 102
2, 83039, Note_on_c, 0, 77, 0
2, 83040, Note_on_c, 0, 80, 102
2, 83125, Note_on_c, 0, 80, 0
2, 83135, Note_on_c, 0, 48, 0
2, 83136, Note_on_c, 0, 50, 102
2, 83136, Note_on_c, 0, 70, 102
2, 83231, Note_on_c, 0, 70, 0
2, 83232, Note_on_c, 0, 72, 102
2, 83327, Note_on_c, 0, 72, 0
2, 83327, Note_on_c, 0, 50, 0
2, 83328, Note_on_c, 0, 52, 102
2, 83328, Note_on_c, 0, 73, 102
2, 83519, Note_on_c, 0, 52, 0
2, 83519, Note_on_c, 0, 44, 0
2, 83520, Note_on_c, 0, 43, 102
2, 83520, Note_on_c, 0, 53, 102
2, 83615, Note_on_c, 0, 73, 0
2, 83616, Note_on_c, 0, 72, 102
2, 83711, Note_on_c, 0, 72, 0
2, 83711, Note_on_c, 0, 53, 0
2, 83712, Note_on_c, 0, 52, 102
2, 83712, Note_on_c, 0, 70, 102
2, 83807, Note_on_c, 0, 70, 0
2, 83808, Note_on_c, 0, 79, 102
2, 83900, Note_on_c, 0, 43, 0
2, 83903, Note_on_c, 0, 79, 0
2, 83903, Note_on_c, 0, 52, 0
2, 83904, Note_on_c, 0, 53, 102
2, 83904, Note_on_c, 0, 41, 102
2, 83904, Note_on_c, 0, 70, 102
2, 83999, Note_on_c, 0, 70, 0
2, 84000, Note_on_c, 0, 68, 102
2, 84095, Note_on_c, 0, 68, 0
2, 84096, Note_on_c, 0, 67, 102
2, 84191, Note_on_c, 0, 67, 0
2, 84192, Note_on_c, 0, 68, 102
2, 84287, Note_on_c, 0, 68, 0
2, 84287, Note_on_c, 0, 41, 0
2, 84287, Note_on_c, 0, 53, 0
2, 84288, Note_on_c, 0, 60, 102
2, 84288, Note_on_c, 0, 70, 102
2, 84383, Note_on_c, 0, 70, 0
2, 84384, Note_on_c, 0, 67, 102
2, 84479, Note_on_c, 0, 67, 0
2, 84480, Note_on_c, 0, 53, 102
2, 84480, Note_on_c, 0, 68, 102
2, 84575, Note_on_c, 0, 68, 0
2, 84576, Note_on_c, 0, 65, 102
2, 84661, Note_on_c, 0, 65, 0
2, 84671, Note_on_c, 0, 53, 0
2, 84672, Note_on_c, 0, 55, 102
2, 84672, Note_on_c, 0, 74, 102
2, 84863, Note_on_c, 0, 55, 0
2, 84864, Note_on_c, 0, 56, 102
2, 85055, Note_on_c, 0, 56, 0
2, 85056, Note_on_c, 0, 50, 102
2, 85151, Note_on_c, 0, 74, 0
2, 85152, Note_on_c, 0, 72, 102
2, 85188, Note_on_c, 0, 60, 0
2, 85247, Note_on_c, 0, 72, 0
2, 85248, Note_on_c, 0, 53, 102
2, 85248, Note_on_c, 0, 71, 102
2, 85343, Note_on_c, 0, 71, 0
2, 85344, Note_on_c, 0, 72, 102
2, 85436, Note_on_c, 0, 50, 0
2, 85439, Note_on_c, 0, 72, 0
2, 85439, Note_on_c, 0, 53, 0
2, 85440, Note_on_c, 0, 56, 102
2, 85440, Note_on_c, 0, 74, 102
2, 85535, Note_on_c, 0, 74, 0
2, 85536, Note_on_c, 0, 71, 102
2, 85631, Note_on_c, 0, 71, 0
2, 85632, Note_on_c, 0, 50, 102
2, 85632, Note_on_c, 0, 72, 102
2, 85727, Note_on_c, 0, 72, 0
2, 85728, Note_on_c, 0, 69, 102
2, 85813, Note_on_c, 0, 69, 0
2, 85823, Note_on_c, 0, 50, 0
2, 85824, Note_on_c, 0, 51, 102
2, 85824, Note_on_c, 0, 77, 102
2, 86015, Note_on_c, 0, 51, 0
2, 86016, Note_on_c, 0, 53, 102
2, 86207, Note_on_c, 0, 53, 0
2, 86208, Note_on_c, 0, 47, 102
2, 86303, Note_on_c, 0, 77, 0
2, 86304, Note_on_c, 0, 75, 102
2, 86340, Note_on_c, 0, 56, 0
2, 86399, Note_on_c, 0, 75, 0
2, 86400, Note_on_c, 0, 53, 102
2, 86400, Note_on_c, 0, 74, 102
2, 86495, Note_on_c, 0, 74, 0
2, 86496, Note_on_c, 0, 75, 102
2, 86588, Note_on_c, 0, 47, 0
2, 86591, Note_on_c, 0, 75, 0
2, 86591, Note_on_c, 0, 53, 0
2, 86592, Note_on_c, 0, 55, 102
2, 86592, Note_on_c, 0, 77, 102
2, 86687, Note_on_c, 0, 77, 0
2, 86688, Note_on_c, 0, 74, 102
2, 86783, Note_on_c, 0, 74, 0
2, 86784, Note_on_c, 0, 47, 102
2, 86784, Note_on_c, 0, 75, 102
2, 86879, Note_on_c, 0, 75, 0
2, 86880, Note_on_c, 0, 72, 102
2, 86965, Note_on_c, 0, 72, 0
2, 86975, Note_on_c, 0, 47, 0
2, 86976, Note_on_c, 0, 48, 102
2, 86976, Note_on_c, 0, 80, 102
2, 87167, Note_on_c, 0, 48, 0
2, 87167, Note_on_c, 0, 55, 0
2, 87168, Note_on_c, 0, 53, 102
2, 87168, Note_on_c, 0, 50, 102
2, 87359, Note_on_c, 0, 50, 0
2, 87359, Note_on_c, 0, 53, 0
2, 87360, Note_on_c, 0, 51, 102
2, 87360, Note_on_c, 0, 55, 102
2, 87416, Note_on_c, 0, 80, 0
2, 87460, Note_on_c, 0, 79, 102
2, 87559, Note_on_c, 0, 79, 0
2, 87561, Note_on_c, 0, 55, 0
2, 87561, Note_on_c, 0, 51, 0
2, 87562, Note_on_c, 0, 50, 102
2, 87562, Note_on_c, 0, 59, 102
2, 87562, Note_on_c, 0, 78, 102
2, 87661, Note_on_c, 0, 78, 0
2, 87664, Note_on_c, 0, 79, 102
2, 87763, Note_on_c, 0, 79, 0
2, 87763, Note_on_c, 0, 59, 0
2, 87763, Note_on_c, 0, 50, 0
2, 87766, Note_on_c, 0, 60, 102
2, 87766, Note_on_c, 0, 51, 102
2, 87766, Note_on_c, 0, 84, 102
2, 87865, Note_on_c, 0, 84, 0
2, 87868, Note_on_c, 0, 83, 102
2, 87917, Note_on_c, 0, 83, 0
2, 87919, Note_on_c, 0, 81, 102
2, 87967, Note_on_c, 0, 51, 0
2, 87968, Note_on_c, 0, 81, 0
2, 87970, Note_on_c, 0, 53, 102
2, 87970, Note_on_c, 0, 79, 102
2, 88069, Note_on_c, 0, 79, 0
2, 88072, Note_on_c, 0, 77, 102
2, 88171, Note_on_c, 0, 77, 0
2, 88171, Note_on_c, 0, 53, 0
2, 88174, Note_on_c, 0, 55, 102
2, 88174, Note_on_c, 0, 77, 102
2, 88273, Note_on_c, 0, 77, 0
2, 88275, Note_on_c, 0, 75, 102
2, 88374, Note_on_c, 0, 75, 0
2, 88375, Note_on_c, 0, 60, 0
2, 88377, Note_on_c, 0, 59, 102
2, 88377, Note_on_c, 0, 74, 102
2, 88476, Note_on_c, 0, 74, 0
2, 88479, Note_on_c, 0, 72, 102
2, 88576, Note_on_c, 0, 55, 0
2, 88578, Note_on_c, 0, 72, 0
2, 88578, Note_on_c, 0, 59, 0
2, 88581, Note_on_c, 0, 60, 102
2, 88581, Note_on_c, 0, 72, 102
2, 88632, Note_on_c, 0, 72, 0
2, 88635, Note_on_c, 0, 71, 102
2, 88686, Note_on_c, 0, 71, 0
2, 88687, Note_on_c, 0, 72, 102
2, 88795, Note_on_c, 0, 55, 102
2, 89008, Note_on_c, 0, 55, 0
2, 89012, Note_on_c, 0, 51, 102
2, 89228, Note_on_c, 0, 55, 102
2, 89231, Note_on_c, 0, 51, 0
2, 89447, Note_on_c, 0, 55, 0
2, 89458, Note_on_c, 0, 48, 102
2, 89787, Note_on_c, 0, 72, 0
2, 89873, Note_on_c, 0, 60, 0
2, 90045, Note_on_c, 0, 48, 0
2, 91776, Note_on_c, 0, 60, 102
2, 91776, Note_on_c, 0, 72, 102
2, 91871, Note_on_c, 0, 72, 0
2, 91876, Note_on_c, 0, 71, 102
2, 91966, Note_on_c, 0, 60, 0
2, 91971, Note_on_c, 0, 71, 0
2, 91972, Note_on_c, 0, 72, 102
2, 91972, Note_on_c, 0, 48, 102
2, 92067, Note_on_c, 0, 72, 0
2, 92068, Note_on_c, 0, 74, 102
2, 92162, Note_on_c, 0, 48, 0
2, 92163, Note_on_c, 0, 74, 0
2, 92164, Note_on_c, 0, 60, 102
2, 92164, Note_on_c, 0, 75, 102
2, 92259, Note_on_c, 0, 75, 0
2, 92260, Note_on_c, 0, 77, 102
2, 92349, Note_on_c, 0, 60, 0
2, 92355, Note_on_c, 0, 77, 0
2, 92356, Note_on_c, 0, 79, 102
2, 92356, Note_on_c, 0, 58, 102
2, 92496, Note_on_c, 0, 79, 0
2, 92541, Note_on_c, 0, 58, 0
2, 92548, Note_on_c, 0, 79, 102
2, 92548, Note_on_c, 0, 56, 102
2, 92643, Note_on_c, 0, 56, 0
2, 92644, Note_on_c, 0, 58, 102
2, 92738, Note_on_c, 0, 79, 0
2, 92739, Note_on_c, 0, 58, 0
2, 92740, Note_on_c, 0, 72, 102
2, 92740, Note_on_c, 0, 60, 102
2, 92835, Note_on_c, 0, 60, 0
2, 92836, Note_on_c, 0, 58, 102
2, 92930, Note_on_c, 0, 72, 0
2, 92931, Note_on_c, 0, 58, 0
2, 92932, Note_on_c, 0, 72, 102
2, 92932, Note_on_c, 0, 56, 102
2, 93027, Note_on_c, 0, 56, 0
2, 93028, Note_on_c, 0, 55, 102
2, 93092, Note_on_c, 0, 72, 0
2, 93123, Note_on_c, 0, 55, 0
2, 93124, Note_on_c, 0, 84, 102
2, 93124, Note_on_c, 0, 53, 102
2, 93219, Note_on_c, 0, 53, 0
2, 93219, Note_on_c, 0, 84, 0
2, 93220, Note_on_c, 0, 79, 102
2, 93220, Note_on_c, 0, 51, 102
2, 93315, Note_on_c, 0, 51, 0
2, 93315, Note_on_c, 0, 79, 0
2, 93316, Note_on_c, 0, 80, 102
2, 93316, Note_on_c, 0, 53, 102
2, 93411, Note_on_c, 0, 80, 0
2, 93412, Note_on_c, 0, 79, 102
2, 93506, Note_on_c, 0, 53, 0
2, 93507, Note_on_c, 0, 79, 0
2, 93508, Note_on_c, 0, 80, 102
2, 93508, Note_on_c, 0, 55, 102
2, 93603, Note_on_c, 0, 80, 0
2, 93604, Note_on_c, 0, 79, 102
2, 93698, Note_on_c, 0, 55, 0
2, 93699, Note_on_c, 0, 79, 0
2, 93700, Note_on_c, 0, 77, 102
2, 93700, Note_on_c, 0, 56, 102
2, 93795, Note_on_c, 0, 77, 0
2, 93796, Note_on_c, 0, 75, 102
2, 93885, Note_on_c, 0, 56, 0
2, 93891, Note_on_c, 0, 75, 0
2, 93892, Note_on_c, 0, 74, 102
2, 93892, Note_on_c, 0, 53, 102
2, 93987, Note_on_c, 0, 74, 0
2, 93988, Note_on_c, 0, 72, 102
2, 94077, Note_on_c, 0, 53, 0
2, 94083, Note_on_c, 0, 72, 0
2, 94084, Note_on_c, 0, 71, 102
2, 94084, Note_on_c, 0, 55, 102
2, 94179, Note_on_c, 0, 71, 0
2, 94180, Note_on_c, 0, 69, 102
2, 94274, Note_on_c, 0, 55, 0
2, 94275, Note_on_c, 0, 69, 0
2, 94276, Note_on_c, 0, 71, 102
2, 94276, Note_on_c, 0, 57, 102
2, 94371, Note_on_c, 0, 71, 0
2, 94372, Note_on_c, 0, 72, 102
2, 94466, Note_on_c, 0, 57, 0
2, 94467, Note_on_c, 0, 72, 0
2, 94468, Note_on_c, 0, 74, 102
2, 94468, Note_on_c, 0, 59, 102
2, 94563, Note_on_c, 0, 74, 0
2, 94564, Note_on_c, 0, 75, 102
2, 94653, Note_on_c, 0, 59, 0
2, 94659, Note_on_c, 0, 75, 0
2, 94660, Note_on_c, 0, 77, 102
2, 94660, Note_on_c, 0, 55, 102
2, 94755, Note_on_c, 0, 77, 0
2, 94756, Note_on_c, 0, 74, 102
2, 94845, Note_on_c, 0, 55, 0
2, 94851, Note_on_c, 0, 74, 0
2, 94852, Note_on_c, 0, 75, 102
2, 94852, Note_on_c, 0, 48, 102
2, 94947, Note_on_c, 0, 48, 0
2, 94948, Note_on_c, 0, 47, 102
2, 95022, Note_on_c, 0, 75, 0
2, 95043, Note_on_c, 0, 47, 0
2, 95044, Note_on_c, 0, 72, 102
2, 95044, Note_on_c, 0, 48, 102
2, 95139, Note_on_c, 0, 48, 0
2, 95140, Note_on_c, 0, 50, 102
2, 95214, Note_on_c, 0, 72, 0
2, 95235, Note_on_c, 0, 50, 0
2, 95236, Note_on_c, 0, 79, 102
2, 95236, Note_on_c, 0, 51, 102
2, 95331, Note_on_c, 0, 51, 0
2, 95332, Note_on_c, 0, 53, 102
2, 95426, Note_on_c, 0, 79, 0
2, 95427, Note_on_c, 0, 53, 0
2, 95428, Note_on_c, 0, 70, 102
2, 95428, Note_on_c, 0, 55, 102
2, 95523, Note_on_c, 0, 55, 0
2, 95524, Note_on_c, 0, 51, 102
2, 95618, Note_on_c, 0, 70, 0
2, 95619, Note_on_c, 0, 51, 0
2, 95620, Note_on_c, 0, 68, 102
2, 95620, Note_on_c, 0, 53, 102
2, 95715, Note_on_c, 0, 68, 0
2, 95716, Note_on_c, 0, 67, 102
2, 95795, Note_on_c, 0, 53, 0
2, 95811, Note_on_c, 0, 67, 0
2, 95812, Note_on_c, 0, 68, 102
2, 95812, Note_on_c, 0, 56, 102
2, 95907, Note_on_c, 0, 68, 0
2, 95908, Note_on_c, 0, 77, 102
2, 95987, Note_on_c, 0, 56, 0
2, 96003, Note_on_c, 0, 77, 0
2, 96004, Note_on_c, 0, 75, 102
2, 96004, Note_on_c, 0, 58, 102
2, 96099, Note_on_c, 0, 75, 0
2, 96100, Note_on_c, 0, 74, 102
2, 96194, Note_on_c, 0, 58, 0
2, 96195, Note_on_c, 0, 74, 0
2, 96196, Note_on_c, 0, 72, 102
2, 96196, Note_on_c, 0, 50, 102
2, 96291, Note_on_c, 0, 72, 0
2, 96292, Note_on_c, 0, 70, 102
2, 96386, Note_on_c, 0, 50, 0
2, 96387, Note_on_c, 0, 70, 0
2, 96388, Note_on_c, 0, 80, 102
2, 96388, Note_on_c, 0, 51, 102
2, 96483, Note_on_c, 0, 80, 0
2, 96484, Note_on_c, 0, 77, 102
2, 96568, Note_on_c, 0, 51, 0
2, 96579, Note_on_c, 0, 77, 0
2, 96580, Note_on_c, 0, 79, 102
2, 96580, Note_on_c, 0, 56, 102
2, 96675, Note_on_c, 0, 79, 0
2, 96676, Note_on_c, 0, 75, 102
2, 96760, Note_on_c, 0, 56, 0
2, 96771, Note_on_c, 0, 75, 0
2, 96772, Note_on_c, 0, 79, 102
2, 96772, Note_on_c, 0, 58, 102
2, 96867, Note_on_c, 0, 79, 0
2, 96868, Note_on_c, 0, 77, 102
2, 96962, Note_on_c, 0, 58, 0
2, 96963, Note_on_c, 0, 77, 0
2, 96964, Note_on_c, 0, 75, 102
2, 96964, Note_on_c, 0, 46, 102
2, 97059, Note_on_c, 0, 75, 0
2, 97060, Note_on_c, 0, 74, 102
2, 97154, Note_on_c, 0, 46, 0
2, 97155, Note_on_c, 0, 74, 0
2, 97156, Note_on_c, 0, 75, 102
2, 97156, Note_on_c, 0, 51, 102
2, 97251, Note_on_c, 0, 75, 0
2, 97252, Note_on_c, 0, 74, 102
2, 97346, Note_on_c, 0, 51, 0
2, 97347, Note_on_c, 0, 74, 0
2, 97348, Note_on_c, 0, 75, 102
2, 97348, Note_on_c, 0, 46, 102
2, 97538, Note_on_c, 0, 46, 0
2, 97540, Note_on_c, 0, 39, 102
2, 97828, Note_on_c, 0, 75, 0
2, 97880, Note_on_c, 0, 39, 0
2, 97924, Note_on_c, 0, 79, 102
2, 97924, Note_on_c, 0, 51, 102
2, 98019, Note_on_c, 0, 79, 0
2, 98020, Note_on_c, 0, 80, 102
2, 98114, Note_on_c, 0, 51, 0
2, 98115, Note_on_c, 0, 80, 0
2, 98116, Note_on_c, 0, 53, 102
2, 98116, Note_on_c, 0, 79, 102
2, 98211, Note_on_c, 0, 79, 0
2, 98212, Note_on_c, 0, 77, 102
2, 98306, Note_on_c, 0, 53, 0
2, 98307, Note_on_c, 0, 77, 0
2, 98308, Note_on_c, 0, 55, 102
2, 98308, Note_on_c, 0, 75, 102
2, 98403, Note_on_c, 0, 75, 0
2, 98404, Note_on_c, 0, 74, 102
2, 98488, Note_on_c, 0, 55, 0
2, 98499, Note_on_c, 0, 74, 0
2, 98500, Note_on_c, 0, 51, 102
2, 98500, Note_on_c, 0, 72, 102
2, 98595, Note_on_c, 0, 72, 0
2, 98596, Note_on_c, 0, 70, 102
2, 98680, Note_on_c, 0, 51, 0
2, 98691, Note_on_c, 0, 70, 0
2, 98692, Note_on_c, 0, 69, 102
2, 98692, Note_on_c, 0, 53, 102
2, 98787, Note_on_c, 0, 53, 0
2, 98787, Note_on_c, 0, 69, 0
2, 98788, Note_on_c, 0, 70, 102
2, 98788, Note_on_c, 0, 55, 102
2, 98883, Note_on_c, 0, 55, 0
2, 98883, Note_on_c, 0, 70, 0
2, 98884, Note_on_c, 0, 72, 102
2, 98884, Note_on_c, 0, 57, 102
2, 98979, Note_on_c, 0, 57, 0
2, 98979, Note_on_c, 0, 72, 0
2, 98980, Note_on_c, 0, 69, 102
2, 98980, Note_on_c, 0, 58, 102
2, 99075, Note_on_c, 0, 58, 0
2, 99075, Note_on_c, 0, 69, 0
2, 99076, Note_on_c, 0, 65, 102
2, 99076, Note_on_c, 0, 60, 102
2, 99171, Note_on_c, 0, 60, 0
2, 99172, Note_on_c, 0, 62, 102
2, 99236, Note_on_c, 0, 65, 0
2, 99267, Note_on_c, 0, 62, 0
2, 99268, Note_on_c, 0, 77, 102
2, 99268, Note_on_c, 0, 63, 102
2, 99363, Note_on_c, 0, 63, 0
2, 99364, Note_on_c, 0, 60, 102
2, 99459, Note_on_c, 0, 60, 0
2, 99460, Note_on_c, 0, 62, 102
2, 99648, Note_on_c, 0, 77, 0
2, 99651, Note_on_c, 0, 62, 0
2, 99652, Note_on_c, 0, 75, 102
2, 99652, Note_on_c, 0, 63, 102
2, 99747, Note_on_c, 0, 75, 0
2, 99748, Note_on_c, 0, 74, 102
2, 99842, Note_on_c, 0, 63, 0
2, 99843, Note_on_c, 0, 74, 0
2, 99844, Note_on_c, 0, 65, 102
2, 99844, Note_on_c, 0, 72, 102
2, 99939, Note_on_c, 0, 72, 0
2, 99940, Note_on_c, 0, 74, 102
2, 100024, Note_on_c, 0, 65, 0
2, 100035, Note_on_c, 0, 74, 0
2, 100036, Note_on_c, 0, 75, 102
2, 100036, Note_on_c, 0, 53, 102
2, 100131, Note_on_c, 0, 75, 0
2, 100132, Note_on_c, 0, 72, 102
2, 100216, Note_on_c, 0, 53, 0
2, 100227, Note_on_c, 0, 72, 0
2, 100228, Note_on_c, 0, 75, 102
2, 100228, Note_on_c, 0, 58, 102
2, 100323, Note_on_c, 0, 75, 0
2, 100324, Note_on_c, 0, 74, 102
2, 100419, Note_on_c, 0, 74, 0
2, 100420, Note_on_c, 0, 72, 102
2, 100508, Note_on_c, 0, 58, 0
2, 100515, Note_on_c, 0, 72, 0
2, 100516, Note_on_c, 0, 70, 102
2, 100516, Note_on_c, 0, 57, 102
2, 100611, Note_on_c, 0, 57, 0
2, 100611, Note_on_c, 0, 70, 0
2, 100612, Note_on_c, 0, 82, 102
2, 100612, Note_on_c, 0, 55, 102
2, 100707, Note_on_c, 0, 55, 0
2, 100708, Note_on_c, 0, 53, 102
2, 100803, Note_on_c, 0, 53, 0
2, 100804, Note_on_c, 0, 51, 102
2, 100899, Note_on_c, 0, 51, 0
2, 100900, Note_on_c, 0, 50, 102
2, 100995, Note_on_c, 0, 50, 0
2, 100996, Note_on_c, 0, 48, 102
2, 101187, Note_on_c, 0, 48, 0
2, 101187, Note_on_c, 0, 82, 0
2, 101188, Note_on_c, 0, 50, 102
2, 101188, Note_on_c, 0, 81, 102
2, 101283, Note_on_c, 0, 81, 0
2, 101284, Note_on_c, 0, 82, 102
2, 101378, Note_on_c, 0, 50, 0
2, 101379, Note_on_c, 0, 82, 0
2, 101380, Note_on_c, 0, 84, 102
2, 101380, Note_on_c, 0, 51, 102
2, 101475, Note_on_c, 0, 84, 0
2, 101476, Note_on_c, 0, 82, 102
2, 101560, Note_on_c, 0, 51, 0
2, 101571, Note_on_c, 0, 82, 0
2, 101572, Note_on_c, 0, 48, 102
2, 101572, Note_on_c, 0, 81, 102
2, 101667, Note_on_c, 0, 81, 0
2, 101668, Note_on_c, 0, 79, 102
2, 101752, Note_on_c, 0, 48, 0
2, 101763, Note_on_c, 0, 79, 0
2, 101764, Note_on_c, 0, 78, 102
2, 101764, Note_on_c, 0, 50, 102
2, 101859, Note_on_c, 0, 78, 0
2, 101860, Note_on_c, 0, 79, 102
2, 101954, Note_on_c, 0, 50, 0
2, 101955, Note_on_c, 0, 79, 0
2, 101956, Note_on_c, 0, 81, 102
2, 101956, Note_on_c, 0, 52, 102
2, 102051, Note_on_c, 0, 81, 0
2, 102052, Note_on_c, 0, 78, 102
2, 102146, Note_on_c, 0, 52, 0
2, 102147, Note_on_c, 0, 78, 0
2, 102148, Note_on_c, 0, 54, 102
2, 102148, Note_on_c, 0, 74, 102
2, 102243, Note_on_c, 0, 74, 0
2, 102244, Note_on_c, 0, 78, 102
2, 102328, Note_on_c, 0, 54, 0
2, 102339, Note_on_c, 0, 78, 0
2, 102340, Note_on_c, 0, 50, 102
2, 102340, Note_on_c, 0, 81, 102
2, 102435, Note_on_c, 0, 81, 0
2, 102436, Note_on_c, 0, 84, 102
2, 102520, Note_on_c, 0, 50, 0
2, 102531, Note_on_c, 0, 84, 0
2, 102532, Note_on_c, 0, 55, 102
2, 102532, Note_on_c, 0, 82, 102
2, 102579, Note_on_c, 0, 82, 0
2, 102580, Note_on_c, 0, 81, 102
2, 102627, Note_on_c, 0, 81, 0
2, 102628, Note_on_c, 0, 82, 102
2, 102712, Note_on_c, 0, 55, 0
2, 102724, Note_on_c, 0, 48, 102
2, 102818, Note_on_c, 0, 82, 0
2, 102820, Note_on_c, 0, 81, 102
2, 102904, Note_on_c, 0, 48, 0
2, 102915, Note_on_c, 0, 81, 0
2, 102916, Note_on_c, 0, 82, 102
2, 102916, Note_on_c, 0, 50, 102
2, 102963, Note_on_c, 0, 82, 0
2, 102964, Note_on_c, 0, 81, 102
2, 103011, Note_on_c, 0, 81, 0
2, 103012, Note_on_c, 0, 82, 102
2, 103059, Note_on_c, 0, 82, 0
2, 103060, Note_on_c, 0, 81, 102
2, 103096, Note_on_c, 0, 50, 0
2, 103107, Note_on_c, 0, 81, 0
2, 103108, Note_on_c, 0, 82, 102
2, 103108, Note_on_c, 0, 38, 102
2, 103155, Note_on_c, 0, 82, 0
2, 103156, Note_on_c, 0, 81, 102
2, 103203, Note_on_c, 0, 81, 0
2, 103204, Note_on_c, 0, 79, 102
2, 103288, Note_on_c, 0, 38, 0
2, 103299, Note_on_c, 0, 79, 0
2, 103300, Note_on_c, 0, 79, 102
2, 103300, Note_on_c, 0, 43, 102
2, 103491, Note_on_c, 0, 43, 0
2, 103492, Note_on_c, 0, 55, 102
2, 103587, Note_on_c, 0, 55, 0
2, 103588, Note_on_c, 0, 57, 102
2, 103683, Note_on_c, 0, 57, 0
2, 103684, Note_on_c, 0, 59, 102
2, 103779, Note_on_c, 0, 59, 0
2, 103780, Note_on_c, 0, 60, 102
2, 103875, Note_on_c, 0, 60, 0
2, 103875, Note_on_c, 0, 79, 0
2, 103876, Note_on_c, 0, 62, 102
2, 103971, Note_on_c, 0, 62, 0
2, 103972, Note_on_c, 0, 59, 102
2, 104067, Note_on_c, 0, 59, 0
2, 104068, Note_on_c, 0, 76, 102
2, 104068, Note_on_c, 0, 60, 102
2, 104163, Note_on_c, 0, 76, 0
2, 104164, Note_on_c, 0, 74, 102
2, 104258, Note_on_c, 0, 60, 0
2, 104259, Note_on_c, 0, 74, 0
2, 104260, Note_on_c, 0, 48, 102
2, 104260, Note_on_c, 0, 76, 102
2, 104355, Note_on_c, 0, 76, 0
2, 104356, Note_on_c, 0, 77, 102
2, 104450, Note_on_c, 0, 48, 0
2, 104451, Note_on_c, 0, 77, 0
2, 104452, Note_on_c, 0, 48, 102
2, 104452, Note_on_c, 0, 79, 102
2, 104547, Note_on_c, 0, 79, 0
2, 104548, Note_on_c, 0, 80, 102
2, 104632, Note_on_c, 0, 48, 0
2, 104643, Note_on_c, 0, 80, 0
2, 104644, Note_on_c, 0, 82, 102
2, 104644, Note_on_c, 0, 60, 102
2, 104739, Note_on_c, 0, 82, 0
2, 104740, Note_on_c, 0, 79, 102
2, 104824, Note_on_c, 0, 60, 0
2, 104835, Note_on_c, 0, 79, 0
2, 104836, Note_on_c, 0, 80, 102
2, 104836, Note_on_c, 0, 53, 102
2, 104931, Note_on_c, 0, 53, 0
2, 104932, Note_on_c, 0, 52, 102
2, 104996, Note_on_c, 0, 80, 0
2, 105027, Note_on_c, 0, 52, 0
2, 105028, Note_on_c, 0, 72, 102
2, 105028, Note_on_c, 0, 53, 102
2, 105123, Note_on_c, 0, 53, 0
2, 105124, Note_on_c, 0, 55, 102
2, 105219, Note_on_c, 0, 55, 0
2, 105220, Note_on_c, 0, 56, 102
2, 105308, Note_on_c, 0, 72, 0
2, 105315, Note_on_c, 0, 56, 0
2, 105316, Note_on_c, 0, 74, 102
2, 105316, Note_on_c, 0, 58, 102
2, 105411, Note_on_c, 0, 58, 0
2, 105411, Note_on_c, 0, 74, 0
2, 105412, Note_on_c, 0, 75, 102
2, 105412, Note_on_c, 0, 60, 102
2, 105507, Note_on_c, 0, 60, 0
2, 105507, Note_on_c, 0, 75, 0
2, 105508, Note_on_c, 0, 56, 102
2, 105508, Note_on_c, 0, 72, 102
2, 105603, Note_on_c, 0, 72, 0
2, 105603, Note_on_c, 0, 56, 0
2, 105604, Note_on_c, 0, 74, 102
2, 105604, Note_on_c, 0, 58, 102
2, 105699, Note_on_c, 0, 74, 0
2, 105700, Note_on_c, 0, 72, 102
2, 105794, Note_on_c, 0, 58, 0
2, 105795, Note_on_c, 0, 72, 0
2, 105796, Note_on_c, 0, 46, 102
2, 105796, Note_on_c, 0, 74, 102
2, 105891, Note_on_c, 0, 74, 0
2, 105892, Note_on_c, 0, 75, 102
2, 105986, Note_on_c, 0, 46, 0
2, 105987, Note_on_c, 0, 75, 0
2, 105988, Note_on_c, 0, 46, 102
2, 105988, Note_on_c, 0, 77, 102
2, 106083, Note_on_c, 0, 77, 0
2, 106084, Note_on_c, 0, 79, 102
2, 106168, Note_on_c, 0, 46, 0
2, 106179, Note_on_c, 0, 79, 0
2, 106180, Note_on_c, 0, 58, 102
2, 106180, Note_on_c, 0, 80, 102
2, 106275, Note_on_c, 0, 80, 0
2, 106276, Note_on_c, 0, 77, 102
2, 106360, Note_on_c, 0, 58, 0
2, 106371, Note_on_c, 0, 77, 0
2, 106372, Note_on_c, 0, 79, 102
2, 106372, Note_on_c, 0, 51, 102
2, 106467, Note_on_c, 0, 51, 0
2, 106468, Note_on_c, 0, 50, 102
2, 106532, Note_on_c, 0, 79, 0
2, 106563, Note_on_c, 0, 50, 0
2, 106564, Note_on_c, 0, 71, 102
2, 106564, Note_on_c, 0, 51, 102
2, 106659, Note_on_c, 0, 51, 0
2, 106660, Note_on_c, 0, 53, 102
2, 106755, Note_on_c, 0, 53, 0
2, 106756, Note_on_c, 0, 55, 102
2, 106844, Note_on_c, 0, 71, 0
2, 106851, Note_on_c, 0, 55, 0
2, 106852, Note_on_c, 0, 72, 102
2, 106852, Note_on_c, 0, 56, 102
2, 106947, Note_on_c, 0, 56, 0
2, 106947, Note_on_c, 0, 72, 0
2, 106948, Note_on_c, 0, 74, 102
2, 106948, Note_on_c, 0, 58, 102
2, 107043, Note_on_c, 0, 58, 0
2, 107043, Note_on_c, 0, 74, 0
2, 107044, Note_on_c, 0, 71, 102
2, 107044, Note_on_c, 0, 55, 102
2, 107139, Note_on_c, 0, 55, 0
2, 107139, Note_on_c, 0, 71, 0
2, 107140, Note_on_c, 0, 72, 102
2, 107140, Note_on_c, 0, 56, 102
2, 107236, Note_on_c, 0, 79, 102
2, 107330, Note_on_c, 0, 56, 0
2, 107330, Note_on_c, 0, 72, 0
2, 107331, Note_on_c, 0, 79, 0
2, 107332, Note_on_c, 0, 55, 102
2, 107332, Note_on_c, 0, 77, 102
2, 107427, Note_on_c, 0, 77, 0
2, 107428, Note_on_c, 0, 75, 102
2, 107522, Note_on_c, 0, 55, 0
2, 107523, Note_on_c, 0, 75, 0
2, 107524, Note_on_c, 0, 56, 102
2, 107524, Note_on_c, 0, 77, 102
2, 107620, Note_on_c, 0, 74, 102
2, 107634, Note_on_c, 0, 77, 0
2, 107704, Note_on_c, 0, 56, 0
2, 107715, Note_on_c, 0, 74, 0
2, 107716, Note_on_c, 0, 53, 102
2, 107716, Note_on_c, 0, 75, 102
2, 107812, Note_on_c, 0, 72, 102
2, 107826, Note_on_c, 0, 75, 0
2, 107896, Note_on_c, 0, 53, 0
2, 107907, Note_on_c, 0, 72, 0
2, 107908, Note_on_c, 0, 55, 102
2, 107908, Note_on_c, 0, 71, 102
2, 108004, Note_on_c, 0, 77, 102
2, 108098, Note_on_c, 0, 71, 0
2, 108098, Note_on_c, 0, 55, 0
2, 108099, Note_on_c, 0, 77, 0
2, 108100, Note_on_c, 0, 53, 102
2, 108100, Note_on_c, 0, 75, 102
2, 108195, Note_on_c, 0, 75, 0
2, 108196, Note_on_c, 0, 74, 102
2, 108290, Note_on_c, 0, 53, 0
2, 108291, Note_on_c, 0, 74, 0
2, 108292, Note_on_c, 0, 75, 102
2, 108292, Note_on_c, 0, 55, 102
2, 108388, Note_on_c, 0, 72, 102
2, 108402, Note_on_c, 0, 75, 0
2, 108472, Note_on_c, 0, 55, 0
2, 108483, Note_on_c, 0, 72, 0
2, 108484, Note_on_c, 0, 74, 102
2, 108484, Note_on_c, 0, 51, 102
2, 108580, Note_on_c, 0, 70, 102
2, 108594, Note_on_c, 0, 74, 0
2, 108664, Note_on_c, 0, 51, 0
2, 108675, Note_on_c, 0, 70, 0
2, 108676, Note_on_c, 0, 53, 102
2, 108676, Note_on_c, 0, 68, 102
2, 108772, Note_on_c, 0, 75, 102
2, 108866, Note_on_c, 0, 68, 0
2, 108866, Note_on_c, 0, 53, 0
2, 108867, Note_on_c, 0, 75, 0
2, 108868, Note_on_c, 0, 74, 102
2, 108868, Note_on_c, 0, 51, 102
2, 108963, Note_on_c, 0, 74, 0
2, 108964, Note_on_c, 0, 72, 102
2, 109058, Note_on_c, 0, 51, 0
2, 109059, Note_on_c, 0, 72, 0
2, 109060, Note_on_c, 0, 74, 102
2, 109060, Note_on_c, 0, 53, 102
2, 109156, Note_on_c, 0, 71, 102
2, 109170, Note_on_c, 0, 74, 0
2, 109240, Note_on_c, 0, 53, 0
2, 109251, Note_on_c, 0, 71, 0
2, 109252, Note_on_c, 0, 50, 102
2, 109252, Note_on_c, 0, 72, 102
2, 109348, Note_on_c, 0, 68, 102
2, 109362, Note_on_c, 0, 72, 0
2, 109432, Note_on_c, 0, 50, 0
2, 109443, Note_on_c, 0, 68, 0
2, 109444, Note_on_c, 0, 55, 102
2, 109444, Note_on_c, 0, 65, 102
2, 109540, Note_on_c, 0, 72, 102
2, 109634, Note_on_c, 0, 65, 0
2, 109634, Note_on_c, 0, 55, 0
2, 109635, Note_on_c, 0, 72, 0
2, 109636, Note_on_c, 0, 53, 102
2, 109636, Note_on_c, 0, 71, 102
2, 109731, Note_on_c, 0, 71, 0
2, 109732, Note_on_c, 0, 69, 102
2, 109826, Note_on_c, 0, 53, 0
2, 109827, Note_on_c, 0, 69, 0
2, 109828, Note_on_c, 0, 51, 102
2, 109828, Note_on_c, 0, 71, 102
2, 109924, Note_on_c, 0, 67, 102
2, 109938, Note_on_c, 0, 71, 0
2, 110008, Note_on_c, 0, 51, 0
2, 110019, Note_on_c, 0, 67, 0
2, 110020, Note_on_c, 0, 68, 102
2, 110020, Note_on_c, 0, 50, 102
2, 110115, Note_on_c, 0, 68, 0
2, 110116, Note_on_c, 0, 65, 102
2, 110200, Note_on_c, 0, 50, 0
2, 110211, Note_on_c, 0, 65, 0
2, 110212, Note_on_c, 0, 48, 102
2, 110212, Note_on_c, 0, 63, 102
2, 110307, Note_on_c, 0, 63, 0
2, 110307, Note_on_c, 0, 48, 0
2, 110308, Note_on_c, 0, 47, 102
2, 110308, Note_on_c, 0, 62, 102
2, 110403, Note_on_c, 0, 62, 0
2, 110403, Note_on_c, 0, 47, 0
2, 110404, Note_on_c, 0, 48, 102
2, 110404, Note_on_c, 0, 63, 102
2, 110499, Note_on_c, 0, 63, 0
2, 110499, Note_on_c, 0, 48, 0
2, 110500, Note_on_c, 0, 67, 102
2, 110500, Note_on_c, 0, 50, 102
2, 110595, Note_on_c, 0, 50, 0
2, 110595, Note_on_c, 0, 67, 0
2, 110596, Note_on_c, 0, 72, 102
2, 110596, Note_on_c, 0, 51, 102
2, 110691, Note_on_c, 0, 51, 0
2, 110692, Note_on_c, 0, 53, 102
2, 110756, Note_on_c, 0, 72, 0
2, 110787, Note_on_c, 0, 53, 0
2, 110788, Note_on_c, 0, 63, 102
2, 110788, Note_on_c, 0, 55, 102
2, 110968, Note_on_c, 0, 63, 0
2, 110979, Note_on_c, 0, 55, 0
2, 110980, Note_on_c, 0, 62, 102
2, 110980, Note_on_c, 0, 55, 102
2, 111075, Note_on_c, 0, 62, 0
2, 111076, Note_on_c, 0, 63, 102
2, 111170, Note_on_c, 0, 55, 0
2, 111171, Note_on_c, 0, 63, 0
2, 111172, Note_on_c, 0, 65, 102
2, 111172, Note_on_c, 0, 44, 102
2, 111267, Note_on_c, 0, 65, 0
2, 111268, Note_on_c, 0, 74, 102
2, 111362, Note_on_c, 0, 44, 0
2, 111363, Note_on_c, 0, 74, 0
2, 111364, Note_on_c, 0, 44, 102
2, 111364, Note_on_c, 0, 72, 102
2, 111459, Note_on_c, 0, 72, 0
2, 111460, Note_on_c, 0, 71, 102
2, 111524, Note_on_c, 0, 44, 0
2, 111555, Note_on_c, 0, 71, 0
2, 111556, Note_on_c, 0, 69, 102
2, 111556, Note_on_c, 0, 60, 102
2, 111651, Note_on_c, 0, 60, 0
2, 111651, Note_on_c, 0, 69, 0
2, 111652, Note_on_c, 0, 67, 102
2, 111652, Note_on_c, 0, 55, 102
2, 111747, Note_on_c, 0, 55, 0
2, 111747, Note_on_c, 0, 67, 0
2, 111748, Note_on_c, 0, 72, 102
2, 111748, Note_on_c, 0, 56, 102
2, 111843, Note_on_c, 0, 72, 0
2, 111844, Note_on_c, 0, 71, 102
2, 111939, Note_on_c, 0, 71, 0
2, 111940, Note_on_c, 0, 72, 102
2, 112028, Note_on_c, 0, 56, 0
2, 112035, Note_on_c, 0, 72, 0
2, 112036, Note_on_c, 0, 74, 102
2, 112036, Note_on_c, 0, 55, 102
2, 112131, Note_on_c, 0, 55, 0
2, 112131, Note_on_c, 0, 74, 0
2, 112132, Note_on_c, 0, 75, 102
2, 112132, Note_on_c, 0, 53, 102
2, 112227, Note_on_c, 0, 53, 0
2, 112227, Note_on_c, 0, 75, 0
2, 112228, Note_on_c, 0, 77, 102
2, 112228, Note_on_c, 0, 51, 102
2, 112323, Note_on_c, 0, 51, 0
2, 112323, Note_on_c, 0, 77, 0
2, 112324, Note_on_c, 0, 50, 102
2, 112324, Note_on_c, 0, 79, 102
2, 112419, Note_on_c, 0, 79, 0
2, 112419, Note_on_c, 0, 50, 0
2, 112420, Note_on_c, 0, 48, 102
2, 112420, Note_on_c, 0, 80, 102
2, 112515, Note_on_c, 0, 80, 0
2, 112515, Note_on_c, 0, 48, 0
2, 112516, Note_on_c, 0, 47, 102
2, 112516, Note_on_c, 0, 79, 102
2, 112611, Note_on_c, 0, 79, 0
2, 112611, Note_on_c, 0, 47, 0
2, 112612, Note_on_c, 0, 77, 102
2, 112612, Note_on_c, 0, 45, 102
2, 112707, Note_on_c, 0, 45, 0
2, 112707, Note_on_c, 0, 77, 0
2, 112708, Note_on_c, 0, 75, 102
2, 112708, Note_on_c, 0, 47, 102
2, 112803, Note_on_c, 0, 47, 0
2, 112803, Note_on_c, 0, 75, 0
2, 112804, Note_on_c, 0, 74, 102
2, 112804, Note_on_c, 0, 48, 102
2, 112899, Note_on_c, 0, 48, 0
2, 112899, Note_on_c, 0, 74, 0
2, 112900, Note_on_c, 0, 72, 102
2, 112900, Note_on_c, 0, 50, 102
2, 112995, Note_on_c, 0, 50, 0
2, 112995, Note_on_c, 0, 72, 0
2, 112996, Note_on_c, 0, 71, 102
2, 112996, Note_on_c, 0, 51, 102
2, 113091, Note_on_c, 0, 51, 0
2, 113091, Note_on_c, 0, 71, 0
2, 113092, Note_on_c, 0, 69, 102
2, 113092, Note_on_c, 0, 53, 102
2, 113187, Note_on_c, 0, 53, 0
2, 113187, Note_on_c, 0, 69, 0
2, 113188, Note_on_c, 0, 67, 102
2, 113188, Note_on_c, 0, 50, 102
2, 113283, Note_on_c, 0, 50, 0
2, 113283, Note_on_c, 0, 67, 0
2, 113284, Note_on_c, 0, 70, 102
2, 113284, Note_on_c, 0, 52, 102
2, 113379, Note_on_c, 0, 52, 0
2, 113379, Note_on_c, 0, 70, 0
2, 113380, Note_on_c, 0, 55, 102
2, 113380, Note_on_c, 0, 67, 102
2, 113475, Note_on_c, 0, 67, 0
2, 113475, Note_on_c, 0, 55, 0
2, 113476, Note_on_c, 0, 69, 102
2, 113476, Note_on_c, 0, 53, 102
2, 113571, Note_on_c, 0, 53, 0
2, 113572, Note_on_c, 0, 51, 102
2, 113667, Note_on_c, 0, 51, 0
2, 113668, Note_on_c, 0, 50, 102
2, 113716, Note_on_c, 0, 69, 0
2, 113763, Note_on_c, 0, 50, 0
2, 113764, Note_on_c, 0, 72, 102
2, 113764, Note_on_c, 0, 48, 102
2, 113859, Note_on_c, 0, 48, 0
2, 113859, Note_on_c, 0, 72, 0
2, 113860, Note_on_c, 0, 74, 102
2, 113860, Note_on_c, 0, 47, 102
2, 113955, Note_on_c, 0, 47, 0
2, 113955, Note_on_c, 0, 74, 0
2, 113956, Note_on_c, 0, 75, 102
2, 113956, Note_on_c, 0, 45, 102
2, 114051, Note_on_c, 0, 45, 0
2, 114051, Note_on_c, 0, 75, 0
2, 114052, Note_on_c, 0, 47, 102
2, 114052, Note_on_c, 0, 77, 102
2, 114147, Note_on_c, 0, 77, 0
2, 114147, Note_on_c, 0, 47, 0
2, 114148, Note_on_c, 0, 50, 102
2, 114148, Note_on_c, 0, 74, 102
2, 114243, Note_on_c, 0, 74, 0
2, 114243, Note_on_c, 0, 50, 0
2, 114244, Note_on_c, 0, 75, 102
2, 114244, Note_on_c, 0, 48, 102
2, 114339, Note_on_c, 0, 48, 0
2, 114340, Note_on_c, 0, 46, 102
2, 114435, Note_on_c, 0, 46, 0
2, 114436, Note_on_c, 0, 44, 102
2, 114484, Note_on_c, 0, 75, 0
2, 114533, Note_on_c, 0, 44, 0
2, 114534, Note_on_c, 0, 43, 102
2, 114534, Note_on_c, 0, 75, 102
2, 114631, Note_on_c, 0, 75, 0
2, 114631, Note_on_c, 0, 43, 0
2, 114633, Note_on_c, 0, 41, 102
2, 114633, Note_on_c, 0, 77, 102
2, 114730, Note_on_c, 0, 77, 0
2, 114730, Note_on_c, 0, 41, 0
2, 114732, Note_on_c, 0, 39, 102
2, 114732, Note_on_c, 0, 79, 102
2, 114829, Note_on_c, 0, 79, 0
2, 114829, Note_on_c, 0, 39, 0
2, 114831, Note_on_c, 0, 80, 102
2, 114831, Note_on_c, 0, 41, 102
2, 114930, Note_on_c, 0, 41, 0
2, 114930, Note_on_c, 0, 80, 0
2, 114932, Note_on_c, 0, 77, 102
2, 114932, Note_on_c, 0, 38, 102
2, 115031, Note_on_c, 0, 38, 0
2, 115031, Note_on_c, 0, 77, 0
2, 115034, Note_on_c, 0, 79, 102
2, 115034, Note_on_c, 0, 39, 102
2, 115133, Note_on_c, 0, 39, 0
2, 115133, Note_on_c, 0, 79, 0
2, 115136, Note_on_c, 0, 84, 102
2, 115136, Note_on_c, 0, 36, 102
2, 115235, Note_on_c, 0, 36, 0
2, 115235, Note_on_c, 0, 84, 0
2, 115238, Note_on_c, 0, 77, 102
2, 115238, Note_on_c, 0, 43, 102
2, 115342, Note_on_c, 0, 77, 0
2, 115344, Note_on_c, 0, 75, 102
2, 115444, Note_on_c, 0, 43, 0
2, 115448, Note_on_c, 0, 75, 0
2, 115452, Note_on_c, 0, 74, 102
2, 115452, Note_on_c, 0, 43, 102
2, 115556, Note_on_c, 0, 74, 0
2, 115560, Note_on_c, 0, 72, 102
2, 115664, Note_on_c, 0, 72, 0
2, 115668, Note_on_c, 0, 43, 0
2, 115680, Note_on_c, 0, 72, 102
2, 115680, Note_on_c, 0, 36, 102
2, 116542, Note_on_c, 0, 36, 0
2, 116542, Note_on_c, 0, 72, 0
2, 117892, Note_on_c, 0, 67, 102
2, 117892, Note_on_c, 0, 48, 102
2, 117987, Note_on_c, 0, 67, 0
2, 117988, Note_on_c, 0, 75, 102
2, 118083, Note_on_c, 0, 75, 0
2, 118083, Note_on_c, 0, 48, 0
2, 118084, Note_on_c, 0, 74, 102
2, 118084, Note_on_c, 0, 50, 102
2, 118179, Note_on_c, 0, 74, 0
2, 118180, Note_on_c, 0, 72, 102
2, 118275, Note_on_c, 0, 72, 0
2, 118275, Note_on_c, 0, 50, 0
2, 118276, Note_on_c, 0, 71, 102
2, 118276, Note_on_c, 0, 51, 102
2, 118371, Note_on_c, 0, 71, 0
2, 118372, Note_on_c, 0, 72, 102
2, 118461, Note_on_c, 0, 72, 0
2, 118461, Note_on_c, 0, 51, 0
2, 118468, Note_on_c, 0, 80, 102
2, 118468, Note_on_c, 0, 53, 102
2, 118563, Note_on_c, 0, 53, 0
2, 118564, Note_on_c, 0, 65, 102
2, 118659, Note_on_c, 0, 65, 0
2, 118659, Note_on_c, 0, 80, 0
2, 118660, Note_on_c, 0, 79, 102
2, 118660, Note_on_c, 0, 63, 102
2, 118755, Note_on_c, 0, 63, 0
2, 118756, Note_on_c, 0, 62, 102
2, 118851, Note_on_c, 0, 62, 0
2, 118851, Note_on_c, 0, 79, 0
2, 118852, Note_on_c, 0, 77, 102
2, 118852, Note_on_c, 0, 60, 102
2, 118947, Note_on_c, 0, 60, 0
2, 118948, Note_on_c, 0, 59, 102
2, 119037, Note_on_c, 0, 59, 0
2, 119037, Note_on_c, 0, 77, 0
2, 119044, Note_on_c, 0, 75, 102
2, 119044, Note_on_c, 0, 60, 102
2, 119139, Note_on_c, 0, 75, 0
2, 119140, Note_on_c, 0, 74, 102
2, 119235, Note_on_c, 0, 74, 0
2, 119235, Note_on_c, 0, 60, 0
2, 119236, Note_on_c, 0, 77, 102
2, 119236, Note_on_c, 0, 56, 102
2, 119331, Note_on_c, 0, 77, 0
2, 119332, Note_on_c, 0, 75, 102
2, 119427, Note_on_c, 0, 75, 0
2, 119427, Note_on_c, 0, 56, 0
2, 119428, Note_on_c, 0, 74, 102
2, 119428, Note_on_c, 0, 53, 102
2, 119523, Note_on_c, 0, 74, 0
2, 119524, Note_on_c, 0, 72, 102
2, 119613, Note_on_c, 0, 72, 0
2, 119613, Note_on_c, 0, 53, 0
2, 119620, Note_on_c, 0, 71, 102
2, 119620, Note_on_c, 0, 55, 102
2, 119715, Note_on_c, 0, 71, 0
2, 119716, Note_on_c, 0, 69, 102
2, 119811, Note_on_c, 0, 69, 0
2, 119811, Note_on_c, 0, 55, 0
2, 119812, Note_on_c, 0, 72, 102
2, 119812, Note_on_c, 0, 57, 102
2, 119907, Note_on_c, 0, 72, 0
2, 119908, Note_on_c, 0, 71, 102
2, 120003, Note_on_c, 0, 71, 0
2, 120003, Note_on_c, 0, 57, 0
2, 120004, Note_on_c, 0, 69, 102
2, 120004, Note_on_c, 0, 59, 102
2, 120099, Note_on_c, 0, 69, 0
2, 120100, Note_on_c, 0, 67, 102
2, 120189, Note_on_c, 0, 67, 0
2, 120189, Note_on_c, 0, 59, 0
2, 120196, Note_on_c, 0, 75, 102
2, 120196, Note_on_c, 0, 60, 102
2, 120291, Note_on_c, 0, 75, 0
2, 120292, Note_on_c, 0, 74, 102
2, 120387, Note_on_c, 0, 74, 0
2, 120388, Note_on_c, 0, 72, 102
2, 120476, Note_on_c, 0, 60, 0
2, 120483, Note_on_c, 0, 72, 0
2, 120484, Note_on_c, 0, 75, 102
2, 120579, Note_on_c, 0, 75, 0
2, 120580, Note_on_c, 0, 68, 102
2, 120580, Note_on_c, 0, 48, 102
2, 120675, Note_on_c, 0, 68, 0
2, 120676, Note_on_c, 0, 67, 102
2, 120765, Note_on_c, 0, 67, 0
2, 120771, Note_on_c, 0, 48, 0
2, 120772, Note_on_c, 0, 65, 102
2, 120772, Note_on_c, 0, 50, 102
2, 120867, Note_on_c, 0, 65, 0
2, 120868, Note_on_c, 0, 77, 102
2, 120963, Note_on_c, 0, 77, 0
2, 120964, Note_on_c, 0, 75, 102
2, 121052, Note_on_c, 0, 50, 0
2, 121059, Note_on_c, 0, 75, 0
2, 121060, Note_on_c, 0, 74, 102
2, 121155, Note_on_c, 0, 74, 0
2, 121156, Note_on_c, 0, 72, 102
2, 121156, Note_on_c, 0, 62, 102
2, 121251, Note_on_c, 0, 72, 0
2, 121252, Note_on_c, 0, 70, 102
2, 121341, Note_on_c, 0, 70, 0
2, 121347, Note_on_c, 0, 62, 0
2, 121348, Note_on_c, 0, 79, 102
2, 121348, Note_on_c, 0, 63, 102
2, 121533, Note_on_c, 0, 79, 0
2, 121539, Note_on_c, 0, 63, 0
2, 121540, Note_on_c, 0, 75, 102
2, 121540, Note_on_c, 0, 56, 102
2, 121725, Note_on_c, 0, 75, 0
2, 121731, Note_on_c, 0, 56, 0
2, 121732, Note_on_c, 0, 75, 102
2, 121732, Note_on_c, 0, 58, 102
2, 121779, Note_on_c, 0, 75, 0
2, 121780, Note_on_c, 0, 74, 102
2, 121827, Note_on_c, 0, 74, 0
2, 121828, Note_on_c, 0, 72, 102
2, 121875, Note_on_c, 0, 72, 0
2, 121876, Note_on_c, 0, 74, 102
2, 121917, Note_on_c, 0, 58, 0
2, 121923, Note_on_c, 0, 74, 0
2, 121924, Note_on_c, 0, 75, 102
2, 121924, Note_on_c, 0, 51, 102
2, 122115, Note_on_c, 0, 51, 0
2, 122116, Note_on_c, 0, 46, 102
2, 122304, Note_on_c, 0, 75, 0
2, 122307, Note_on_c, 0, 46, 0
2, 122308, Note_on_c, 0, 39, 102
2, 122493, Note_on_c, 0, 39, 0
2, 122500, Note_on_c, 0, 70, 102
2, 122500, Note_on_c, 0, 51, 102
2, 122595, Note_on_c, 0, 70, 0
2, 122596, Note_on_c, 0, 79, 102
2, 122691, Note_on_c, 0, 79, 0
2, 122691, Note_on_c, 0, 51, 0
2, 122692, Note_on_c, 0, 77, 102
2, 122692, Note_on_c, 0, 53, 102
2, 122787, Note_on_c, 0, 77, 0
2, 122788, Note_on_c, 0, 75, 102
2, 122883, Note_on_c, 0, 75, 0
2, 122883, Note_on_c, 0, 53, 0
2, 122884, Note_on_c, 0, 74, 102
2, 122884, Note_on_c, 0, 55, 102
2, 122979, Note_on_c, 0, 74, 0
2, 122980, Note_on_c, 0, 75, 102
2, 123069, Note_on_c, 0, 75, 0
2, 123069, Note_on_c, 0, 55, 0
2, 123076, Note_on_c, 0, 70, 102
2, 123076, Note_on_c, 0, 50, 102
2, 123171, Note_on_c, 0, 70, 0
2, 123172, Note_on_c, 0, 80, 102
2, 123267, Note_on_c, 0, 80, 0
2, 123268, Note_on_c, 0, 79, 102
2, 123363, Note_on_c, 0, 79, 0
2, 123364, Note_on_c, 0, 77, 102
2, 123456, Note_on_c, 0, 50, 0
2, 123459, Note_on_c, 0, 77, 0
2, 123460, Note_on_c, 0, 75, 102
2, 123555, Note_on_c, 0, 75, 0
2, 123556, Note_on_c, 0, 77, 102
2, 123645, Note_on_c, 0, 77, 0
2, 123652, Note_on_c, 0, 70, 102
2, 123652, Note_on_c, 0, 51, 102
2, 123747, Note_on_c, 0, 70, 0
2, 123748, Note_on_c, 0, 82, 102
2, 123843, Note_on_c, 0, 82, 0
2, 123843, Note_on_c, 0, 51, 0
2, 123844, Note_on_c, 0, 80, 102
2, 123844, Note_on_c, 0, 48, 102
2, 123939, Note_on_c, 0, 80, 0
2, 123940, Note_on_c, 0, 79, 102
2, 124035, Note_on_c, 0, 79, 0
2, 124035, Note_on_c, 0, 48, 0
2, 124036, Note_on_c, 0, 77, 102
2, 124036, Note_on_c, 0, 44, 102
2, 124131, Note_on_c, 0, 77, 0
2, 124132, Note_on_c, 0, 79, 102
2, 124221, Note_on_c, 0, 79, 0
2, 124221, Note_on_c, 0, 44, 0
2, 124228, Note_on_c, 0, 75, 102
2, 124228, Note_on_c, 0, 46, 102
2, 124323, Note_on_c, 0, 46, 0
2, 124323, Note_on_c, 0, 75, 0
2, 124324, Note_on_c, 0, 74, 102
2, 124324, Note_on_c, 0, 58, 102
2, 124419, Note_on_c, 0, 58, 0
2, 124419, Note_on_c, 0, 74, 0
2, 124420, Note_on_c, 0, 72, 102
2, 124420, Note_on_c, 0, 56, 102
2, 124515, Note_on_c, 0, 56, 0
2, 124515, Note_on_c, 0, 72, 0
2, 124516, Note_on_c, 0, 74, 102
2, 124516, Note_on_c, 0, 55, 102
2, 124611, Note_on_c, 0, 55, 0
2, 124611, Note_on_c, 0, 74, 0
2, 124612, Note_on_c, 0, 70, 102
2, 124612, Note_on_c, 0, 53, 102
2, 124707, Note_on_c, 0, 53, 0
2, 124708, Note_on_c, 0, 55, 102
2, 124782, Note_on_c, 0, 70, 0
2, 124803, Note_on_c, 0, 55, 0
2, 124804, Note_on_c, 0, 79, 102
2, 124804, Note_on_c, 0, 52, 102
2, 124899, Note_on_c, 0, 79, 0
2, 124900, Note_on_c, 0, 77, 102
2, 124995, Note_on_c, 0, 77, 0
2, 124996, Note_on_c, 0, 76, 102
2, 125091, Note_on_c, 0, 76, 0
2, 125092, Note_on_c, 0, 79, 102
2, 125184, Note_on_c, 0, 52, 0
2, 125187, Note_on_c, 0, 79, 0
2, 125188, Note_on_c, 0, 73, 102
2, 125283, Note_on_c, 0, 73, 0
2, 125284, Note_on_c, 0, 72, 102
2, 125373, Note_on_c, 0, 72, 0
2, 125380, Note_on_c, 0, 70, 102
2, 125380, Note_on_c, 0, 48, 102
2, 125475, Note_on_c, 0, 70, 0
2, 125476, Note_on_c, 0, 79, 102
2, 125571, Note_on_c, 0, 79, 0
2, 125571, Note_on_c, 0, 48, 0
2, 125572, Note_on_c, 0, 77, 102
2, 125572, Note_on_c, 0, 50, 102
2, 125667, Note_on_c, 0, 77, 0
2, 125668, Note_on_c, 0, 76, 102
2, 125763, Note_on_c, 0, 76, 0
2, 125763, Note_on_c, 0, 50, 0
2, 125764, Note_on_c, 0, 74, 102
2, 125764, Note_on_c, 0, 52, 102
2, 125859, Note_on_c, 0, 74, 0
2, 125860, Note_on_c, 0, 72, 102
2, 125949, Note_on_c, 0, 72, 0
2, 125949, Note_on_c, 0, 52, 0
2, 125956, Note_on_c, 0, 77, 102
2, 125956, Note_on_c, 0, 53, 102
2, 126003, Note_on_c, 0, 77, 0
2, 126004, Note_on_c, 0, 79, 102
2, 126051, Note_on_c, 0, 79, 0
2, 126052, Note_on_c, 0, 80, 102
2, 126147, Note_on_c, 0, 80, 0
2, 126147, Note_on_c, 0, 53, 0
2, 126148, Note_on_c, 0, 79, 102
2, 126148, Note_on_c, 0, 60, 102
2, 126243, Note_on_c, 0, 79, 0
2, 126244, Note_on_c, 0, 77, 102
2, 126339, Note_on_c, 0, 77, 0
2, 126339, Note_on_c, 0, 60, 0
2, 126340, Note_on_c, 0, 79, 102
2, 126340, Note_on_c, 0, 48, 102
2, 126435, Note_on_c, 0, 79, 0
2, 126436, Note_on_c, 0, 76, 102
2, 126525, Note_on_c, 0, 76, 0
2, 126525, Note_on_c, 0, 48, 0
2, 126532, Note_on_c, 0, 77, 102
2, 126532, Note_on_c, 0, 53, 102
2, 126627, Note_on_c, 0, 53, 0
2, 126628, Note_on_c, 0, 61, 102
2, 126723, Note_on_c, 0, 61, 0
2, 126724, Note_on_c, 0, 60, 102
2, 126812, Note_on_c, 0, 77, 0
2, 126819, Note_on_c, 0, 60, 0
2, 126820, Note_on_c, 0, 58, 102
2, 126915, Note_on_c, 0, 58, 0
2, 126916, Note_on_c, 0, 56, 102
2, 127011, Note_on_c, 0, 56, 0
2, 127012, Note_on_c, 0, 60, 102
2, 127101, Note_on_c, 0, 60, 0
2, 127108, Note_on_c, 0, 80, 102
2, 127108, Note_on_c, 0, 53, 102
2, 127203, Note_on_c, 0, 80, 0
2, 127204, Note_on_c, 0, 79, 102
2, 127299, Note_on_c, 0, 79, 0
2, 127299, Note_on_c, 0, 53, 0
2, 127300, Note_on_c, 0, 77, 102
2, 127300, Note_on_c, 0, 56, 102
2, 127395, Note_on_c, 0, 77, 0
2, 127396, Note_on_c, 0, 80, 102
2, 127491, Note_on_c, 0, 80, 0
2, 127491, Note_on_c, 0, 56, 0
2, 127492, Note_on_c, 0, 74, 102
2, 127492, Note_on_c, 0, 53, 102
2, 127587, Note_on_c, 0, 74, 0
2, 127588, Note_on_c, 0, 72, 102
2, 127677, Note_on_c, 0, 72, 0
2, 127677, Note_on_c, 0, 53, 0
2, 127684, Note_on_c, 0, 70, 102
2, 127684, Note_on_c, 0, 50, 102
2, 127779, Note_on_c, 0, 70, 0
2, 127780, Note_on_c, 0, 74, 102
2, 127875, Note_on_c, 0, 74, 0
2, 127875, Note_on_c, 0, 50, 0
2, 127876, Note_on_c, 0, 77, 102
2, 127876, Note_on_c, 0, 46, 102
2, 127971, Note_on_c, 0, 77, 0
2, 127972, Note_on_c, 0, 80, 102
2, 128067, Note_on_c, 0, 80, 0
2, 128067, Note_on_c, 0, 46, 0
2, 128068, Note_on_c, 0, 79, 102
2, 128068, Note_on_c, 0, 50, 102
2, 128163, Note_on_c, 0, 79, 0
2, 128164, Note_on_c, 0, 77, 102
2, 128253, Note_on_c, 0, 77, 0
2, 128253, Note_on_c, 0, 50, 0
2, 128260, Note_on_c, 0, 79, 102
2, 128260, Note_on_c, 0, 51, 102
2, 128355, Note_on_c, 0, 79, 0
2, 128356, Note_on_c, 0, 77, 102
2, 128451, Note_on_c, 0, 77, 0
2, 128451, Note_on_c, 0, 51, 0
2, 128452, Note_on_c, 0, 75, 102
2, 128452, Note_on_c, 0, 55, 102
2, 128547, Note_on_c, 0, 75, 0
2, 128548, Note_on_c, 0, 79, 102
2, 128643, Note_on_c, 0, 79, 0
2, 128643, Note_on_c, 0, 55, 0
2, 128644, Note_on_c, 0, 72, 102
2, 128644, Note_on_c, 0, 51, 102
2, 128739, Note_on_c, 0, 72, 0
2, 128740, Note_on_c, 0, 70, 102
2, 128829, Note_on_c, 0, 70, 0
2, 128829, Note_on_c, 0, 51, 0
2, 128836, Note_on_c, 0, 68, 102
2, 128836, Note_on_c, 0, 48, 102
2, 128931, Note_on_c, 0, 68, 0
2, 128932, Note_on_c, 0, 72, 102
2, 129027, Note_on_c, 0, 72, 0
2, 129027, Note_on_c, 0, 48, 0
2, 129028, Note_on_c, 0, 75, 102
2, 129028, Note_on_c, 0, 44, 102
2, 129123, Note_on_c, 0, 75, 0
2, 129124, Note_on_c, 0, 79, 102
2, 129219, Note_on_c, 0, 79, 0
2, 129219, Note_on_c, 0, 44, 0
2, 129220, Note_on_c, 0, 77, 102
2, 129220, Note_on_c, 0, 48, 102
2, 129315, Note_on_c, 0, 77, 0
2, 129316, Note_on_c, 0, 75, 102
2, 129405, Note_on_c, 0, 75, 0
2, 129405, Note_on_c, 0, 48, 0
2, 129412, Note_on_c, 0, 77, 102
2, 129412, Note_on_c, 0, 50, 102
2, 129507, Note_on_c, 0, 77, 0
2, 129508, Note_on_c, 0, 75, 102
2, 129603, Note_on_c, 0, 75, 0
2, 129603, Note_on_c, 0, 50, 0
2, 129604, Note_on_c, 0, 74, 102
2, 129604, Note_on_c, 0, 53, 102
2, 129699, Note_on_c, 0, 74, 0
2, 129700, Note_on_c, 0, 77, 102
2, 129795, Note_on_c, 0, 77, 0
2, 129795, Note_on_c, 0, 53, 0
2, 129796, Note_on_c, 0, 71, 102
2, 129796, Note_on_c, 0, 50, 102
2, 129891, Note_on_c, 0, 71, 0
2, 129892, Note_on_c, 0, 69, 102
2, 129981, Note_on_c, 0, 69, 0
2, 129981, Note_on_c, 0, 50, 0
2, 129988, Note_on_c, 0, 67, 102
2, 129988, Note_on_c, 0, 47, 102
2, 130083, Note_on_c, 0, 67, 0
2, 130084, Note_on_c, 0, 71, 102
2, 130179, Note_on_c, 0, 71, 0
2, 130179, Note_on_c, 0, 47, 0
2, 130180, Note_on_c, 0, 74, 102
2, 130180, Note_on_c, 0, 43, 102
2, 130275, Note_on_c, 0, 74, 0
2, 130276, Note_on_c, 0, 77, 102
2, 130371, Note_on_c, 0, 77, 0
2, 130371, Note_on_c, 0, 43, 0
2, 130372, Note_on_c, 0, 75, 102
2, 130372, Note_on_c, 0, 47, 102
2, 130467, Note_on_c, 0, 75, 0
2, 130468, Note_on_c, 0, 74, 102
2, 130557, Note_on_c, 0, 74, 0
2, 130557, Note_on_c, 0, 47, 0
2, 130564, Note_on_c, 0, 75, 102
2, 130564, Note_on_c, 0, 48, 102
2, 130659, Note_on_c, 0, 75, 0
2, 130660, Note_on_c, 0, 72, 102
2, 130755, Note_on_c, 0, 72, 0
2, 130755, Note_on_c, 0, 48, 0
2, 130756, Note_on_c, 0, 65, 102
2, 130756, Note_on_c, 0, 56, 102
2, 130851, Note_on_c, 0, 65, 0
2, 130852, Note_on_c, 0, 75, 102
2, 130947, Note_on_c, 0, 75, 0
2, 130947, Note_on_c, 0, 56, 0
2, 130948, Note_on_c, 0, 74, 102
2, 130948, Note_on_c, 0, 53, 102
2, 131043, Note_on_c, 0, 74, 0
2, 131044, Note_on_c, 0, 72, 102
2, 131133, Note_on_c, 0, 72, 0
2, 131133, Note_on_c, 0, 53, 0
2, 131140, Note_on_c, 0, 71, 102
2, 131140, Note_on_c, 0, 55, 102
2, 131235, Note_on_c, 0, 71, 0
2, 131236, Note_on_c, 0, 69, 102
2, 131331, Note_on_c, 0, 69, 0
2, 131332, Note_on_c, 0, 72, 102
2, 131332, Note_on_c, 0, 43, 102
2, 131427, Note_on_c, 0, 72, 0
2, 131428, Note_on_c, 0, 71, 102
2, 131520, Note_on_c, 0, 55, 0
2, 131522, Note_on_c, 0, 43, 0
2, 131523, Note_on_c, 0, 71, 0
2, 131524, Note_on_c, 0, 69, 102
2, 131619, Note_on_c, 0, 69, 0
2, 131620, Note_on_c, 0, 67, 102
2, 131709, Note_on_c, 0, 67, 0
2, 131716, Note_on_c, 0, 76, 102
2, 131716, Note_on_c, 0, 50, 102
2, 131767, Note_on_c, 0, 76, 0
2, 131768, Note_on_c, 0, 77, 102
2, 131811, Note_on_c, 0, 50, 0
2, 131812, Note_on_c, 0, 56, 102
2, 131819, Note_on_c, 0, 77, 0
2, 131820, Note_on_c, 0, 79, 102
2, 131871, Note_on_c, 0, 79, 0
2, 131872, Note_on_c, 0, 77, 102
2, 131907, Note_on_c, 0, 56, 0
2, 131908, Note_on_c, 0, 55, 102
2, 131923, Note_on_c, 0, 77, 0
2, 131925, Note_on_c, 0, 79, 102
2, 131976, Note_on_c, 0, 79, 0
2, 131977, Note_on_c, 0, 77, 102
2, 132003, Note_on_c, 0, 55, 0
2, 132004, Note_on_c, 0, 53, 102
2, 132028, Note_on_c, 0, 77, 0
2, 132029, Note_on_c, 0, 79, 102
2, 132080, Note_on_c, 0, 79, 0
2, 132082, Note_on_c, 0, 77, 102
2, 132099, Note_on_c, 0, 53, 0
2, 132100, Note_on_c, 0, 52, 102
2, 132133, Note_on_c, 0, 77, 0
2, 132134, Note_on_c, 0, 79, 102
2, 132185, Note_on_c, 0, 79, 0
2, 132186, Note_on_c, 0, 77, 102
2, 132195, Note_on_c, 0, 52, 0
2, 132196, Note_on_c, 0, 53, 102
2, 132237, Note_on_c, 0, 77, 0
2, 132239, Note_on_c, 0, 79, 102
2, 132285, Note_on_c, 0, 53, 0
2, 132290, Note_on_c, 0, 79, 0
2, 132291, Note_on_c, 0, 77, 102
2, 132292, Note_on_c, 0, 48, 102
2, 132342, Note_on_c, 0, 77, 0
2, 132343, Note_on_c, 0, 79, 102
2, 132387, Note_on_c, 0, 48, 0
2, 132388, Note_on_c, 0, 56, 102
2, 132394, Note_on_c, 0, 79, 0
2, 132396, Note_on_c, 0, 77, 102
2, 132447, Note_on_c, 0, 77, 0
2, 132448, Note_on_c, 0, 79, 102
2, 132483, Note_on_c, 0, 56, 0
2, 132484, Note_on_c, 0, 55, 102
2, 132499, Note_on_c, 0, 79, 0
2, 132500, Note_on_c, 0, 77, 102
2, 132551, Note_on_c, 0, 77, 0
2, 132553, Note_on_c, 0, 79, 102
2, 132579, Note_on_c, 0, 55, 0
2, 132580, Note_on_c, 0, 53, 102
2, 132604, Note_on_c, 0, 79, 0
2, 132605, Note_on_c, 0, 77, 102
2, 132656, Note_on_c, 0, 77, 0
2, 132657, Note_on_c, 0, 79, 102
2, 132675, Note_on_c, 0, 53, 0
2, 132676, Note_on_c, 0, 52, 102
2, 132708, Note_on_c, 0, 79, 0
2, 132710, Note_on_c, 0, 77, 102
2, 132761, Note_on_c, 0, 77, 0
2, 132762, Note_on_c, 0, 76, 102
2, 132771, Note_on_c, 0, 52, 0
2, 132772, Note_on_c, 0, 53, 102
2, 132813, Note_on_c, 0, 76, 0
2, 132814, Note_on_c, 0, 77, 102
2, 132861, Note_on_c, 0, 53, 0
2, 132868, Note_on_c, 0, 47, 102
2, 132961, Note_on_c, 0, 77, 0
2, 132964, Note_on_c, 0, 80, 102
2, 133059, Note_on_c, 0, 80, 0
2, 133059, Note_on_c, 0, 47, 0
2, 133060, Note_on_c, 0, 79, 102
2, 133060, Note_on_c, 0, 48, 102
2, 133155, Note_on_c, 0, 79, 0
2, 133156, Note_on_c, 0, 77, 102
2, 133251, Note_on_c, 0, 77, 0
2, 133251, Note_on_c, 0, 48, 0
2, 133252, Note_on_c, 0, 76, 102
2, 133252, Note_on_c, 0, 50, 102
2, 133347, Note_on_c, 0, 76, 0
2, 133348, Note_on_c, 0, 77, 102
2, 133437, Note_on_c, 0, 77, 0
2, 133437, Note_on_c, 0, 50, 0
2, 133444, Note_on_c, 0, 83, 102
2, 133444, Note_on_c, 0, 43, 102
2, 133539, Note_on_c, 0, 83, 0
2, 133540, Note_on_c, 0, 80, 102
2, 133635, Note_on_c, 0, 80, 0
2, 133635, Note_on_c, 0, 43, 0
2, 133636, Note_on_c, 0, 79, 102
2, 133636, Note_on_c, 0, 45, 102
2, 133731, Note_on_c, 0, 79, 0
2, 133732, Note_on_c, 0, 77, 102
2, 133827, Note_on_c, 0, 77, 0
2, 133827, Note_on_c, 0, 45, 0
2, 133828, Note_on_c, 0, 75, 102
2, 133828, Note_on_c, 0, 47, 102
2, 133923, Note_on_c, 0, 75, 0
2, 133924, Note_on_c, 0, 74, 102
2, 134013, Note_on_c, 0, 74, 0
2, 134013, Note_on_c, 0, 47, 0
2, 134020, Note_on_c, 0, 48, 102
2, 134020, Note_on_c, 0, 75, 102
2, 134117, Note_on_c, 0, 75, 0
2, 134118, Note_on_c, 0, 74, 102
2, 134215, Note_on_c, 0, 74, 0
2, 134217, Note_on_c, 0, 72, 102
2, 134314, Note_on_c, 0, 72, 0
2, 134316, Note_on_c, 0, 75, 102
2, 134411, Note_on_c, 0, 48, 0
2, 134413, Note_on_c, 0, 75, 0
2, 134415, Note_on_c, 0, 68, 102
2, 134512, Note_on_c, 0, 68, 0
2, 134514, Note_on_c, 0, 67, 102
2, 134605, Note_on_c, 0, 67, 0
2, 134613, Note_on_c, 0, 65, 102
2, 134613, Note_on_c, 0, 50, 102
2, 134712, Note_on_c, 0, 65, 0
2, 134714, Note_on_c, 0, 75, 102
2, 134813, Note_on_c, 0, 75, 0
2, 134816, Note_on_c, 0, 74, 102
2, 134915, Note_on_c, 0, 74, 0
2, 134918, Note_on_c, 0, 72, 102
2, 135015, Note_on_c, 0, 50, 0
2, 135017, Note_on_c, 0, 72, 0
2, 135020, Note_on_c, 0, 71, 102
2, 135119, Note_on_c, 0, 71, 0
2, 135122, Note_on_c, 0, 80, 102
2, 135215, Note_on_c, 0, 80, 0
2, 135224, Note_on_c, 0, 79, 102
2, 135224, Note_on_c, 0, 51, 102
2, 135437, Note_on_c, 0, 51, 0
2, 135437, Note_on_c, 0, 79, 0
2, 135438, Note_on_c, 0, 77, 102
2, 135438, Note_on_c, 0, 53, 102
2, 135542, Note_on_c, 0, 77, 0
2, 135546, Note_on_c, 0, 75, 102
2, 135650, Note_on_c, 0, 75, 0
2, 135651, Note_on_c, 0, 53, 0
2, 135654, Note_on_c, 0, 74, 102
2, 135654, Note_on_c, 0, 55, 102
2, 135758, Note_on_c, 0, 74, 0
2, 135762, Note_on_c, 0, 75, 102
2, 135866, Note_on_c, 0, 75, 0
2, 135870, Note_on_c, 0, 55, 0
2, 135877, Note_on_c, 0, 72, 102
2, 135877, Note_on_c, 0, 48, 102
2, 136522, Note_on_c, 0, 48, 0
2, 136522, Note_on_c, 0, 72, 0
2, 137473, Note_on_c, 0, 72, 102
2, 137515, Note_on_c, 0, 72, 0
2, 137516, Note_on_c, 0, 67, 102
2, 137643, Note_on_c, 0, 67, 0
2, 137644, Note_on_c, 0, 72, 102
2, 137856, Note_on_c, 0, 72, 0
2, 137857, Note_on_c, 0, 55, 102
2, 137857, Note_on_c, 0, 74, 102
2, 137899, Note_on_c, 0, 74, 0
2, 137899, Note_on_c, 0, 55, 0
2, 137900, Note_on_c, 0, 48, 102
2, 137900, Note_on_c, 0, 75, 102
2, 138027, Note_on_c, 0, 75, 0
2, 138027, Note_on_c, 0, 48, 0
2, 138028, Note_on_c, 0, 53, 102
2, 138028, Note_on_c, 0, 74, 102
2, 138240, Note_on_c, 0, 74, 0
2, 138240, Note_on_c, 0, 53, 0
2, 138241, Note_on_c, 0, 55, 102
2, 138241, Note_on_c, 0, 75, 102
2, 138283, Note_on_c, 0, 75, 0
2, 138283, Note_on_c, 0, 55, 0
2, 138284, Note_on_c, 0, 56, 102
2, 138284, Note_on_c, 0, 72, 102
2, 138411, Note_on_c, 0, 72, 0
2, 138411, Note_on_c, 0, 56, 0
2, 138412, Note_on_c, 0, 55, 102
2, 138412, Note_on_c, 0, 71, 102
2, 138624, Note_on_c, 0, 71, 0
2, 138624, Note_on_c, 0, 55, 0
2, 138625, Note_on_c, 0, 56, 102
2, 138625, Note_on_c, 0, 72, 102
2, 138667, Note_on_c, 0, 72, 0
2, 138667, Note_on_c, 0, 56, 0
2, 138668, Note_on_c, 0, 53, 102
2, 138668, Note_on_c, 0, 74, 102
2, 138795, Note_on_c, 0, 74, 0
2, 138795, Note_on_c, 0, 53, 0
2, 138796, Note_on_c, 0, 51, 102
2, 138796, Note_on_c, 0, 67, 102
2, 139008, Note_on_c, 0, 67, 0
2, 139008, Note_on_c, 0, 51, 0
2, 139009, Note_on_c, 0, 53, 102
2, 139009, Note_on_c, 0, 79, 102
2, 139051, Note_on_c, 0, 79, 0
2, 139051, Note_on_c, 0, 53, 0
2, 139052, Note_on_c, 0, 55, 102
2, 139052, Note_on_c, 0, 72, 102
2, 139179, Note_on_c, 0, 72, 0
2, 139179, Note_on_c, 0, 55, 0
2, 139180, Note_on_c, 0, 56, 102
2, 139180, Note_on_c, 0, 77, 102
2, 139392, Note_on_c, 0, 77, 0
2, 139392, Note_on_c, 0, 56, 0
2, 139393, Note_on_c, 0, 55, 102
2, 139393, Note_on_c, 0, 79, 102
2, 139435, Note_on_c, 0, 79, 0
2, 139435, Note_on_c, 0, 55, 0
2, 139436, Note_on_c, 0, 53, 102
2, 139436, Note_on_c, 0, 80, 102
2, 139563, Note_on_c, 0, 80, 0
2, 139563, Note_on_c, 0, 53, 0
2, 139564, Note_on_c, 0, 55, 102
2, 139564, Note_on_c, 0, 74, 102
2, 139776, Note_on_c, 0, 74, 0
2, 139777, Note_on_c, 0, 79, 102
2, 139819, Note_on_c, 0, 79, 0
2, 139819, Note_on_c, 0, 55, 0
2, 139820, Note_on_c, 0, 43, 102
2, 139820, Note_on_c, 0, 77, 102
2, 139947, Note_on_c, 0, 77, 0
2, 139947, Note_on_c, 0, 43, 0
2, 139948, Note_on_c, 0, 48, 102
2, 139948, Note_on_c, 0, 77, 102
2, 139990, Note_on_c, 0, 77, 0
2, 139990, Note_on_c, 0, 75, 102
2, 140032, Note_on_c, 0, 75, 0
2, 140033, Note_on_c, 0, 77, 102
2, 140075, Note_on_c, 0, 77, 0
2, 140076, Note_on_c, 0, 75, 102
2, 140139, Note_on_c, 0, 75, 0
2, 140140, Note_on_c, 0, 74, 102
2, 140188, Note_on_c, 0, 48, 0
2, 140203, Note_on_c, 0, 74, 0
2, 140204, Note_on_c, 0, 60, 102
2, 140204, Note_on_c, 0, 72, 102
2, 140331, Note_on_c, 0, 72, 0
2, 140331, Note_on_c, 0, 60, 0
2, 140332, Note_on_c, 0, 59, 102
2, 140332, Note_on_c, 0, 79, 102
2, 140544, Note_on_c, 0, 59, 0
2, 140545, Note_on_c, 0, 57, 102
2, 140587, Note_on_c, 0, 57, 0
2, 140588, Note_on_c, 0, 55, 102
2, 140715, Note_on_c, 0, 55, 0
2, 140716, Note_on_c, 0, 60, 102
2, 140872, Note_on_c, 0, 79, 0
2, 140929, Note_on_c, 0, 79, 102
2, 140971, Note_on_c, 0, 79, 0
2, 140971, Note_on_c, 0, 60, 0
2, 140972, Note_on_c, 0, 58, 102
2, 140972, Note_on_c, 0, 72, 102
2, 141099, Note_on_c, 0, 72, 0
2, 141099, Note_on_c, 0, 58, 0
2, 141100, Note_on_c, 0, 56, 102
2, 141100, Note_on_c, 0, 77, 102
2, 141312, Note_on_c, 0, 77, 0
2, 141312, Note_on_c, 0, 56, 0
2, 141313, Note_on_c, 0, 60, 102
2, 141313, Note_on_c, 0, 79, 102
2, 141355, Note_on_c, 0, 79, 0
2, 141355, Note_on_c, 0, 60, 0
2, 141356, Note_on_c, 0, 53, 102
2, 141356, Note_on_c, 0, 80, 102
2, 141483, Note_on_c, 0, 80, 0
2, 141483, Note_on_c, 0, 53, 0
2, 141484, Note_on_c, 0, 58, 102
2, 141484, Note_on_c, 0, 75, 102
2, 141526, Note_on_c, 0, 75, 0
2, 141526, Note_on_c, 0, 74, 102
2, 141568, Note_on_c, 0, 74, 0
2, 141569, Note_on_c, 0, 75, 102
2, 141611, Note_on_c, 0, 75, 0
2, 141612, Note_on_c, 0, 74, 102
2, 141675, Note_on_c, 0, 74, 0
2, 141675, Note_on_c, 0, 58, 0
2, 141676, Note_on_c, 0, 60, 102
2, 141676, Note_on_c, 0, 72, 102
2, 141739, Note_on_c, 0, 72, 0
2, 141739, Note_on_c, 0, 60, 0
2, 141740, Note_on_c, 0, 62, 102
2, 141740, Note_on_c, 0, 70, 102
2, 141867, Note_on_c, 0, 70, 0
2, 141867, Note_on_c, 0, 62, 0
2, 141868, Note_on_c, 0, 57, 102
2, 141868, Note_on_c, 0, 77, 102
2, 142080, Note_on_c, 0, 57, 0
2, 142081, Note_on_c, 0, 55, 102
2, 142123, Note_on_c, 0, 55, 0
2, 142124, Note_on_c, 0, 53, 102
2, 142251, Note_on_c, 0, 53, 0
2, 142252, Note_on_c, 0, 58, 102
2, 142408, Note_on_c, 0, 77, 0
2, 142465, Note_on_c, 0, 77, 102
2, 142492, Note_on_c, 0, 58, 0
2, 142507, Note_on_c, 0, 77, 0
2, 142508, Note_on_c, 0, 56, 102
2, 142508, Note_on_c, 0, 70, 102
2, 142635, Note_on_c, 0, 70, 0
2, 142635, Note_on_c, 0, 56, 0
2, 142636, Note_on_c, 0, 55, 102
2, 142636, Note_on_c, 0, 75, 102
2, 142848, Note_on_c, 0, 75, 0
2, 142848, Note_on_c, 0, 55, 0
2, 142849, Note_on_c, 0, 56, 102
2, 142849, Note_on_c, 0, 77, 102
2, 142891, Note_on_c, 0, 77, 0
2, 142891, Note_on_c, 0, 56, 0
2, 142892, Note_on_c, 0, 51, 102
2, 142892, Note_on_c, 0, 79, 102
2, 143019, Note_on_c, 0, 79, 0
2, 143019, Note_on_c, 0, 51, 0
2, 143020, Note_on_c, 0, 56, 102
2, 143020, Note_on_c, 0, 72, 102
2, 143232, Note_on_c, 0, 72, 0
2, 143232, Note_on_c, 0, 56, 0
2, 143233, Note_on_c, 0, 58, 102
2, 143233, Note_on_c, 0, 74, 102
2, 143275, Note_on_c, 0, 74, 0
2, 143275, Note_on_c, 0, 58, 0
2, 143276, Note_on_c, 0, 60, 102
2, 143276, Note_on_c, 0, 75, 102
2, 143403, Note_on_c, 0, 75, 0
2, 143403, Note_on_c, 0, 60, 0
2, 143404, Note_on_c, 0, 53, 102
2, 143404, Note_on_c, 0, 68, 102
2, 143616, Note_on_c, 0, 53, 0
2, 143617, Note_on_c, 0, 55, 102
2, 143659, Note_on_c, 0, 55, 0
2, 143660, Note_on_c, 0, 56, 102
2, 143787, Note_on_c, 0, 56, 0
2, 143788, Note_on_c, 0, 50, 102
2, 143944, Note_on_c, 0, 68, 0
2, 144001, Note_on_c, 0, 68, 102
2, 144043, Note_on_c, 0, 68, 0
2, 144044, Note_on_c, 0, 63, 102
2, 144171, Note_on_c, 0, 63, 0
2, 144172, Note_on_c, 0, 65, 102
2, 144368, Note_on_c, 0, 50, 0
2, 144376, Note_on_c, 0, 65, 0
2, 144385, Note_on_c, 0, 51, 102
2, 144385, Note_on_c, 0, 67, 102
2, 144427, Note_on_c, 0, 67, 0
2, 144427, Note_on_c, 0, 51, 0
2, 144428, Note_on_c, 0, 53, 102
2, 144428, Note_on_c, 0, 68, 102
2, 144555, Note_on_c, 0, 68, 0
2, 144555, Note_on_c, 0, 53, 0
2, 144556, Note_on_c, 0, 46, 102
2, 144556, Note_on_c, 0, 63, 102
2, 144598, Note_on_c, 0, 63, 0
2, 144598, Note_on_c, 0, 62, 102
2, 144640, Note_on_c, 0, 62, 0
2, 144641, Note_on_c, 0, 63, 102
2, 144683, Note_on_c, 0, 63, 0
2, 144684, Note_on_c, 0, 62, 102
2, 144747, Note_on_c, 0, 62, 0
2, 144747, Note_on_c, 0, 46, 0
2, 144748, Note_on_c, 0, 50, 102
2, 144748, Note_on_c, 0, 60, 102
2, 144811, Note_on_c, 0, 60, 0
2, 144811, Note_on_c, 0, 50, 0
2, 144812, Note_on_c, 0, 53, 102
2, 144812, Note_on_c, 0, 58, 102
2, 144939, Note_on_c, 0, 58, 0
2, 144939, Note_on_c, 0, 53, 0
2, 144940, Note_on_c, 0, 56, 102
2, 144940, Note_on_c, 0, 70, 102
2, 145152, Note_on_c, 0, 56, 0
2, 145153, Note_on_c, 0, 55, 102
2, 145195, Note_on_c, 0, 55, 0
2, 145196, Note_on_c, 0, 53, 102
2, 145323, Note_on_c, 0, 53, 0
2, 145324, Note_on_c, 0, 55, 102
2, 145480, Note_on_c, 0, 70, 0
2, 145536, Note_on_c, 0, 55, 0
2, 145537, Note_on_c, 0, 51, 102
2, 145537, Note_on_c, 0, 75, 102
2, 145579, Note_on_c, 0, 75, 0
2, 145579, Note_on_c, 0, 51, 0
2, 145580, Note_on_c, 0, 55, 102
2, 145580, Note_on_c, 0, 70, 102
2, 145707, Note_on_c, 0, 70, 0
2, 145707, Note_on_c, 0, 55, 0
2, 145708, Note_on_c, 0, 58, 102
2, 145708, Note_on_c, 0, 67, 102
2, 145920, Note_on_c, 0, 67, 0
2, 145921, Note_on_c, 0, 68, 102
2, 145963, Note_on_c, 0, 68, 0
2, 145963, Note_on_c, 0, 58, 0
2, 145964, Note_on_c, 0, 46, 102
2, 145964, Note_on_c, 0, 65, 102
2, 146091, Note_on_c, 0, 65, 0
2, 146091, Note_on_c, 0, 46, 0
2, 146092, Note_on_c, 0, 51, 102
2, 146092, Note_on_c, 0, 63, 102
2, 146335, Note_on_c, 0, 63, 0
2, 146348, Note_on_c, 0, 67, 102
2, 146475, Note_on_c, 0, 67, 0
2, 146476, Note_on_c, 0, 72, 102
2, 146518, Note_on_c, 0, 72, 0
2, 146518, Note_on_c, 0, 71, 102
2, 146560, Note_on_c, 0, 71, 0
2, 146561, Note_on_c, 0, 72, 102
2, 146572, Note_on_c, 0, 51, 0
2, 146689, Note_on_c, 0, 55, 102
2, 146731, Note_on_c, 0, 55, 0
2, 146732, Note_on_c, 0, 48, 102
2, 146859, Note_on_c, 0, 48, 0
2, 146860, Note_on_c, 0, 54, 102
2, 147041, Note_on_c, 0, 72, 0
2, 147072, Note_on_c, 0, 54, 0
2, 147073, Note_on_c, 0, 55, 102
2, 147073, Note_on_c, 0, 69, 102
2, 147115, Note_on_c, 0, 69, 0
2, 147115, Note_on_c, 0, 55, 0
2, 147116, Note_on_c, 0, 57, 102
2, 147116, Note_on_c, 0, 72, 102
2, 147243, Note_on_c, 0, 72, 0
2, 147243, Note_on_c, 0, 57, 0
2, 147244, Note_on_c, 0, 48, 102
2, 147244, Note_on_c, 0, 75, 102
2, 147286, Note_on_c, 0, 75, 0
2, 147286, Note_on_c, 0, 74, 102
2, 147328, Note_on_c, 0, 74, 0
2, 147329, Note_on_c, 0, 75, 102
2, 147456, Note_on_c, 0, 48, 0
2, 147457, Note_on_c, 0, 51, 102
2, 147499, Note_on_c, 0, 51, 0
2, 147500, Note_on_c, 0, 43, 102
2, 147627, Note_on_c, 0, 43, 0
2, 147628, Note_on_c, 0, 45, 102
2, 147809, Note_on_c, 0, 75, 0
2, 147840, Note_on_c, 0, 45, 0
2, 147841, Note_on_c, 0, 46, 102
2, 147841, Note_on_c, 0, 72, 102
2, 147883, Note_on_c, 0, 72, 0
2, 147883, Note_on_c, 0, 46, 0
2, 147884, Note_on_c, 0, 48, 102
2, 147884, Note_on_c, 0, 75, 102
2, 148011, Note_on_c, 0, 75, 0
2, 148011, Note_on_c, 0, 48, 0
2, 148012, Note_on_c, 0, 38, 102
2, 148012, Note_on_c, 0, 78, 102
2, 148224, Note_on_c, 0, 78, 0
2, 148225, Note_on_c, 0, 81, 102
2, 148267, Note_on_c, 0, 81, 0
2, 148267, Note_on_c, 0, 38, 0
2, 148268, Note_on_c, 0, 48, 102
2, 148268, Note_on_c, 0, 74, 102
2, 148395, Note_on_c, 0, 74, 0
2, 148395, Note_on_c, 0, 48, 0
2, 148396, Note_on_c, 0, 46, 102
2, 148396, Note_on_c, 0, 79, 102
2, 148608, Note_on_c, 0, 79, 0
2, 148608, Note_on_c, 0, 46, 0
2, 148609, Note_on_c, 0, 45, 102
2, 148609, Note_on_c, 0, 81, 102
2, 148651, Note_on_c, 0, 81, 0
2, 148651, Note_on_c, 0, 45, 0
2, 148652, Note_on_c, 0, 43, 102
2, 148652, Note_on_c, 0, 82, 102
2, 148779, Note_on_c, 0, 82, 0
2, 148779, Note_on_c, 0, 43, 0
2, 148780, Note_on_c, 0, 50, 102
2, 148780, Note_on_c, 0, 74, 102
2, 148992, Note_on_c, 0, 74, 0
2, 148993, Note_on_c, 0, 79, 102
2, 149035, Note_on_c, 0, 79, 0
2, 149035, Note_on_c, 0, 50, 0
2, 149036, Note_on_c, 0, 38, 102
2, 149036, Note_on_c, 0, 78, 102
2, 149163, Note_on_c, 0, 78, 0
2, 149163, Note_on_c, 0, 38, 0
2, 149164, Note_on_c, 0, 43, 102
2, 149164, Note_on_c, 0, 79, 102
2, 149376, Note_on_c, 0, 43, 0
2, 149377, Note_on_c, 0, 47, 102
2, 149419, Note_on_c, 0, 47, 0
2, 149420, Note_on_c, 0, 50, 102
2, 149544, Note_on_c, 0, 79, 0
2, 149547, Note_on_c, 0, 50, 0
2, 149548, Note_on_c, 0, 55, 102
2, 149761, Note_on_c, 0, 67, 102
2, 149803, Note_on_c, 0, 67, 0
2, 149804, Note_on_c, 0, 74, 102
2, 149928, Note_on_c, 0, 55, 0
2, 149931, Note_on_c, 0, 74, 0
2, 149932, Note_on_c, 0, 71, 102
2, 150144, Note_on_c, 0, 71, 0
2, 150145, Note_on_c, 0, 55, 102
2, 150145, Note_on_c, 0, 69, 102
2, 150187, Note_on_c, 0, 69, 0
2, 150187, Note_on_c, 0, 55, 0
2, 150188, Note_on_c, 0, 62, 102
2, 150188, Note_on_c, 0, 67, 102
2, 150315, Note_on_c, 0, 67, 0
2, 150315, Note_on_c, 0, 62, 0
2, 150316, Note_on_c, 0, 59, 102
2, 150316, Note_on_c, 0, 77, 102
2, 150528, Note_on_c, 0, 59, 0
2, 150529, Note_on_c, 0, 57, 102
2, 150571, Note_on_c, 0, 57, 0
2, 150572, Note_on_c, 0, 55, 102
2, 150699, Note_on_c, 0, 55, 0
2, 150700, Note_on_c, 0, 60, 102
2, 150856, Note_on_c, 0, 77, 0
2, 150913, Note_on_c, 0, 79, 102
2, 150955, Note_on_c, 0, 79, 0
2, 150956, Note_on_c, 0, 74, 102
2, 151083, Note_on_c, 0, 74, 0
2, 151084, Note_on_c, 0, 75, 102
2, 151281, Note_on_c, 0, 60, 0
2, 151296, Note_on_c, 0, 75, 0
2, 151297, Note_on_c, 0, 48, 102
2, 151297, Note_on_c, 0, 79, 102
2, 151339, Note_on_c, 0, 79, 0
2, 151339, Note_on_c, 0, 48, 0
2, 151340, Note_on_c, 0, 55, 102
2, 151340, Note_on_c, 0, 82, 102
2, 151467, Note_on_c, 0, 82, 0
2, 151467, Note_on_c, 0, 55, 0
2, 151468, Note_on_c, 0, 52, 102
2, 151468, Note_on_c, 0, 73, 102
2, 151680, Note_on_c, 0, 73, 0
2, 151680, Note_on_c, 0, 52, 0
2, 151681, Note_on_c, 0, 50, 102
2, 151681, Note_on_c, 0, 72, 102
2, 151723, Note_on_c, 0, 72, 0
2, 151723, Note_on_c, 0, 50, 0
2, 151724, Note_on_c, 0, 48, 102
2, 151724, Note_on_c, 0, 79, 102
2, 151851, Note_on_c, 0, 79, 0
2, 151851, Note_on_c, 0, 48, 0
2, 151852, Note_on_c, 0, 58, 102
2, 151852, Note_on_c, 0, 76, 102
2, 152064, Note_on_c, 0, 76, 0
2, 152065, Note_on_c, 0, 74, 102
2, 152107, Note_on_c, 0, 74, 0
2, 152108, Note_on_c, 0, 72, 102
2, 152235, Note_on_c, 0, 72, 0
2, 152236, Note_on_c, 0, 77, 102
2, 152432, Note_on_c, 0, 58, 0
2, 152449, Note_on_c, 0, 60, 102
2, 152491, Note_on_c, 0, 60, 0
2, 152492, Note_on_c, 0, 55, 102
2, 152619, Note_on_c, 0, 55, 0
2, 152620, Note_on_c, 0, 56, 102
2, 152747, Note_on_c, 0, 56, 0
2, 152754, Note_on_c, 0, 53, 102
2, 152811, Note_on_c, 0, 77, 0
2, 152812, Note_on_c, 0, 72, 102
2, 152875, Note_on_c, 0, 72, 0
2, 152876, Note_on_c, 0, 77, 102
2, 152881, Note_on_c, 0, 53, 0
2, 153003, Note_on_c, 0, 77, 0
2, 153004, Note_on_c, 0, 74, 102
2, 153216, Note_on_c, 0, 74, 0
2, 153217, Note_on_c, 0, 53, 102
2, 153217, Note_on_c, 0, 72, 102
2, 153259, Note_on_c, 0, 72, 0
2, 153259, Note_on_c, 0, 53, 0
2, 153260, Note_on_c, 0, 58, 102
2, 153260, Note_on_c, 0, 70, 102
2, 153387, Note_on_c, 0, 70, 0
2, 153387, Note_on_c, 0, 58, 0
2, 153388, Note_on_c, 0, 55, 102
2, 153388, Note_on_c, 0, 75, 102
2, 153600, Note_on_c, 0, 55, 0
2, 153601, Note_on_c, 0, 53, 102
2, 153643, Note_on_c, 0, 53, 0
2, 153644, Note_on_c, 0, 51, 102
2, 153771, Note_on_c, 0, 51, 0
2, 153772, Note_on_c, 0, 56, 102
2, 153928, Note_on_c, 0, 75, 0
2, 153985, Note_on_c, 0, 72, 102
2, 154027, Note_on_c, 0, 72, 0
2, 154028, Note_on_c, 0, 76, 102
2, 154155, Note_on_c, 0, 76, 0
2, 154156, Note_on_c, 0, 77, 102
2, 154352, Note_on_c, 0, 56, 0
2, 154368, Note_on_c, 0, 77, 0
2, 154369, Note_on_c, 0, 53, 102
2, 154369, Note_on_c, 0, 74, 102
2, 154411, Note_on_c, 0, 74, 0
2, 154411, Note_on_c, 0, 53, 0
2, 154412, Note_on_c, 0, 59, 102
2, 154412, Note_on_c, 0, 79, 102
2, 154539, Note_on_c, 0, 79, 0
2, 154539, Note_on_c, 0, 59, 0
2, 154540, Note_on_c, 0, 60, 102
2, 154540, Note_on_c, 0, 75, 102
2, 154752, Note_on_c, 0, 75, 0
2, 154752, Note_on_c, 0, 60, 0
2, 154753, Note_on_c, 0, 55, 102
2, 154753, Note_on_c, 0, 74, 102
2, 154795, Note_on_c, 0, 74, 0
2, 154795, Note_on_c, 0, 55, 0
2, 154796, Note_on_c, 0, 60, 102
2, 154796, Note_on_c, 0, 72, 102
2, 154923, Note_on_c, 0, 72, 0
2, 154923, Note_on_c, 0, 60, 0
2, 154924, Note_on_c, 0, 56, 102
2, 154924, Note_on_c, 0, 77, 102
2, 155136, Note_on_c, 0, 56, 0
2, 155137, Note_on_c, 0, 55, 102
2, 155179, Note_on_c, 0, 55, 0
2, 155180, Note_on_c, 0, 53, 102
2, 155307, Note_on_c, 0, 53, 0
2, 155308, Note_on_c, 0, 60, 102
2, 155464, Note_on_c, 0, 77, 0
2, 155521, Note_on_c, 0, 74, 102
2, 155563, Note_on_c, 0, 74, 0
2, 155564, Note_on_c, 0, 79, 102
2, 155691, Note_on_c, 0, 79, 0
2, 155692, Note_on_c, 0, 80, 102
2, 155888, Note_on_c, 0, 60, 0
2, 155904, Note_on_c, 0, 80, 0
2, 155905, Note_on_c, 0, 56, 102
2, 155905, Note_on_c, 0, 77, 102
2, 155947, Note_on_c, 0, 77, 0
2, 155947, Note_on_c, 0, 56, 0
2, 155948, Note_on_c, 0, 62, 102
2, 155948, Note_on_c, 0, 82, 102
2, 156075, Note_on_c, 0, 82, 0
2, 156075, Note_on_c, 0, 62, 0
2, 156076, Note_on_c, 0, 63, 102
2, 156076, Note_on_c, 0, 79, 102
2, 156288, Note_on_c, 0, 79, 0
2, 156288, Note_on_c, 0, 63, 0
2, 156289, Note_on_c, 0, 58, 102
2, 156289, Note_on_c, 0, 77, 102
2, 156331, Note_on_c, 0, 77, 0
2, 156331, Note_on_c, 0, 58, 0
2, 156332, Note_on_c, 0, 63, 102
2, 156332, Note_on_c, 0, 75, 102
2, 156459, Note_on_c, 0, 75, 0
2, 156459, Note_on_c, 0, 63, 0
2, 156460, Note_on_c, 0, 60, 102
2, 156460, Note_on_c, 0, 80, 102
2, 156672, Note_on_c, 0, 60, 0
2, 156673, Note_on_c, 0, 58, 102
2, 156715, Note_on_c, 0, 58, 0
2, 156716, Note_on_c, 0, 56, 102
2, 156843, Note_on_c, 0, 56, 0
2, 156844, Note_on_c, 0, 63, 102
2, 157000, Note_on_c, 0, 80, 0
2, 157057, Note_on_c, 0, 77, 102
2, 157099, Note_on_c, 0, 77, 0
2, 157100, Note_on_c, 0, 83, 102
2, 157227, Note_on_c, 0, 83, 0
2, 157228, Note_on_c, 0, 84, 102
2, 157424, Note_on_c, 0, 63, 0
2, 157440, Note_on_c, 0, 84, 0
2, 157441, Note_on_c, 0, 60, 102
2, 157441, Note_on_c, 0, 79, 102
2, 157483, Note_on_c, 0, 79, 0
2, 157483, Note_on_c, 0, 60, 0
2, 157484, Note_on_c, 0, 64, 102
2, 157484, Note_on_c, 0, 72, 102
2, 157611, Note_on_c, 0, 72, 0
2, 157611, Note_on_c, 0, 64, 0
2, 157612, Note_on_c, 0, 56, 102
2, 157612, Note_on_c, 0, 77, 102
2, 157824, Note_on_c, 0, 77, 0
2, 157824, Note_on_c, 0, 56, 0
2, 157825, Note_on_c, 0, 60, 102
2, 157825, Note_on_c, 0, 79, 102
2, 157867, Note_on_c, 0, 79, 0
2, 157867, Note_on_c, 0, 60, 0
2, 157868, Note_on_c, 0, 50, 102
2, 157868, Note_on_c, 0, 80, 102
2, 157995, Note_on_c, 0, 80, 0
2, 157995, Note_on_c, 0, 50, 0
2, 157996, Note_on_c, 0, 51, 102
2, 157996, Note_on_c, 0, 79, 102
2, 158123, Note_on_c, 0, 79, 0
2, 158124, Note_on_c, 0, 77, 102
2, 158187, Note_on_c, 0, 77, 0
2, 158188, Note_on_c, 0, 75, 102
2, 158251, Note_on_c, 0, 75, 0
2, 158251, Note_on_c, 0, 51, 0
2, 158252, Note_on_c, 0, 53, 102
2, 158252, Note_on_c, 0, 74, 102
2, 158315, Note_on_c, 0, 74, 0
2, 158316, Note_on_c, 0, 72, 102
2, 158379, Note_on_c, 0, 72, 0
2, 158379, Note_on_c, 0, 53, 0
2, 158380, Note_on_c, 0, 55, 102
2, 158380, Note_on_c, 0, 71, 102
2, 158592, Note_on_c, 0, 55, 0
2, 158593, Note_on_c, 0, 47, 102
2, 158635, Note_on_c, 0, 47, 0
2, 158636, Note_on_c, 0, 50, 102
2, 158760, Note_on_c, 0, 71, 0
2, 158763, Note_on_c, 0, 50, 0
2, 158764, Note_on_c, 0, 43, 102
2, 158977, Note_on_c, 0, 74, 102
2, 159019, Note_on_c, 0, 74, 0
2, 159020, Note_on_c, 0, 43, 0
2, 159020, Note_on_c, 0, 79, 102
2, 159147, Note_on_c, 0, 79, 0
2, 159148, Note_on_c, 0, 77, 102
2, 159190, Note_on_c, 0, 77, 0
2, 159190, Note_on_c, 0, 76, 102
2, 159232, Note_on_c, 0, 76, 0
2, 159233, Note_on_c, 0, 77, 102
2, 159275, Note_on_c, 0, 77, 0
2, 159276, Note_on_c, 0, 76, 102
2, 159339, Note_on_c, 0, 76, 0
2, 159340, Note_on_c, 0, 48, 102
2, 159340, Note_on_c, 0, 74, 102
2, 159403, Note_on_c, 0, 74, 0
2, 159403, Note_on_c, 0, 48, 0
2, 159404, Note_on_c, 0, 55, 102
2, 159404, Note_on_c, 0, 72, 102
2, 159531, Note_on_c, 0, 72, 0
2, 159531, Note_on_c, 0, 55, 0
2, 159532, Note_on_c, 0, 52, 102
2, 159532, Note_on_c, 0, 82, 102
2, 159744, Note_on_c, 0, 52, 0
2, 159745, Note_on_c, 0, 50, 102
2, 159787, Note_on_c, 0, 50, 0
2, 159788, Note_on_c, 0, 48, 102
2, 159915, Note_on_c, 0, 48, 0
2, 159916, Note_on_c, 0, 53, 102
2, 160092, Note_on_c, 0, 82, 0
2, 160129, Note_on_c, 0, 84, 102
2, 160171, Note_on_c, 0, 84, 0
2, 160172, Note_on_c, 0, 79, 102
2, 160299, Note_on_c, 0, 79, 0
2, 160300, Note_on_c, 0, 80, 102
2, 160496, Note_on_c, 0, 53, 0
2, 160512, Note_on_c, 0, 80, 0
2, 160513, Note_on_c, 0, 55, 102
2, 160513, Note_on_c, 0, 72, 102
2, 160555, Note_on_c, 0, 72, 0
2, 160555, Note_on_c, 0, 55, 0
2, 160556, Note_on_c, 0, 56, 102
2, 160556, Note_on_c, 0, 77, 102
2, 160683, Note_on_c, 0, 77, 0
2, 160683, Note_on_c, 0, 56, 0
2, 160684, Note_on_c, 0, 58, 102
2, 160684, Note_on_c, 0, 75, 102
2, 160726, Note_on_c, 0, 75, 0
2, 160726, Note_on_c, 0, 74, 102
2, 160768, Note_on_c, 0, 74, 0
2, 160769, Note_on_c, 0, 75, 102
2, 160811, Note_on_c, 0, 75, 0
2, 160812, Note_on_c, 0, 74, 102
2, 160875, Note_on_c, 0, 74, 0
2, 160875, Note_on_c, 0, 58, 0
2, 160876, Note_on_c, 0, 46, 102
2, 160876, Note_on_c, 0, 72, 102
2, 160939, Note_on_c, 0, 72, 0
2, 160939, Note_on_c, 0, 46, 0
2, 160940, Note_on_c, 0, 53, 102
2, 160940, Note_on_c, 0, 70, 102
2, 161067, Note_on_c, 0, 70, 0
2, 161067, Note_on_c, 0, 53, 0
2, 161068, Note_on_c, 0, 50, 102
2, 161068, Note_on_c, 0, 80, 102
2, 161280, Note_on_c, 0, 50, 0
2, 161281, Note_on_c, 0, 48, 102
2, 161323, Note_on_c, 0, 48, 0
2, 161324, Note_on_c, 0, 46, 102
2, 161451, Note_on_c, 0, 46, 0
2, 161452, Note_on_c, 0, 51, 102
2, 161628, Note_on_c, 0, 80, 0
2, 161665, Note_on_c, 0, 82, 102
2, 161707, Note_on_c, 0, 82, 0
2, 161708, Note_on_c, 0, 77, 102
2, 161835, Note_on_c, 0, 77, 0
2, 161836, Note_on_c, 0, 79, 102
2, 162032, Note_on_c, 0, 51, 0
2, 162048, Note_on_c, 0, 79, 0
2, 162049, Note_on_c, 0, 55, 102
2, 162049, Note_on_c, 0, 75, 102
2, 162091, Note_on_c, 0, 75, 0
2, 162091, Note_on_c, 0, 55, 0
2, 162092, Note_on_c, 0, 60, 102
2, 162092, Note_on_c, 0, 72, 102
2, 162219, Note_on_c, 0, 72, 0
2, 162219, Note_on_c, 0, 60, 0
2, 162220, Note_on_c, 0, 63, 102
2, 162220, Note_on_c, 0, 69, 102
2, 162432, Note_on_c, 0, 63, 0
2, 162433, Note_on_c, 0, 60, 102
2, 162475, Note_on_c, 0, 60, 0
2, 162476, Note_on_c, 0, 57, 102
2, 162603, Note_on_c, 0, 57, 0
2, 162604, Note_on_c, 0, 53, 102
2, 162780, Note_on_c, 0, 69, 0
2, 162816, Note_on_c, 0, 53, 0
2, 162817, Note_on_c, 0, 57, 102
2, 162817, Note_on_c, 0, 77, 102
2, 162859, Note_on_c, 0, 77, 0
2, 162859, Note_on_c, 0, 57, 0
2, 162860, Note_on_c, 0, 62, 102
2, 162860, Note_on_c, 0, 74, 102
2, 162987, Note_on_c, 0, 74, 0
2, 162987, Note_on_c, 0, 62, 0
2, 162988, Note_on_c, 0, 65, 102
2, 162988, Note_on_c, 0, 71, 102
2, 163200, Note_on_c, 0, 65, 0
2, 163201, Note_on_c, 0, 62, 102
2, 163243, Note_on_c, 0, 62, 0
2, 163244, Note_on_c, 0, 59, 102
2, 163371, Note_on_c, 0, 59, 0
2, 163372, Note_on_c, 0, 55, 102
2, 163548, Note_on_c, 0, 71, 0
2, 163585, Note_on_c, 0, 79, 102
2, 163627, Note_on_c, 0, 79, 0
2, 163628, Note_on_c, 0, 75, 102
2, 163755, Note_on_c, 0, 75, 0
2, 163756, Note_on_c, 0, 72, 102
2, 163883, Note_on_c, 0, 72, 0
2, 163883, Note_on_c, 0, 55, 0
2, 163884, Note_on_c, 0, 60, 102
2, 163884, Note_on_c, 0, 80, 102
2, 163947, Note_on_c, 0, 80, 0
2, 163947, Note_on_c, 0, 60, 0
2, 163948, Note_on_c, 0, 58, 102
2, 163948, Note_on_c, 0, 79, 102
2, 164011, Note_on_c, 0, 79, 0
2, 164011, Note_on_c, 0, 58, 0
2, 164012, Note_on_c, 0, 56, 102
2, 164012, Note_on_c, 0, 77, 102
2, 164075, Note_on_c, 0, 77, 0
2, 164075, Note_on_c, 0, 56, 0
2, 164076, Note_on_c, 0, 55, 102
2, 164076, Note_on_c, 0, 75, 102
2, 164139, Note_on_c, 0, 75, 0
2, 164139, Note_on_c, 0, 55, 0
2, 164140, Note_on_c, 0, 53, 102
2, 164140, Note_on_c, 0, 73, 102
2, 164203, Note_on_c, 0, 73, 0
2, 164204, Note_on_c, 0, 72, 102
2, 164267, Note_on_c, 0, 72, 0
2, 164268, Note_on_c, 0, 73, 102
2, 164331, Note_on_c, 0, 73, 0
2, 164331, Note_on_c, 0, 53, 0
2, 164332, Note_on_c, 0, 60, 102
2, 164332, Note_on_c, 0, 75, 102
2, 164395, Note_on_c, 0, 75, 0
2, 164395, Note_on_c, 0, 60, 0
2, 164396, Note_on_c, 0, 56, 102
2, 164396, Note_on_c, 0, 77, 102
2, 164459, Note_on_c, 0, 77, 0
2, 164460, Note_on_c, 0, 73, 102
2, 164523, Note_on_c, 0, 73, 0
2, 164523, Note_on_c, 0, 56, 0
2, 164524, Note_on_c, 0, 53, 102
2, 164524, Note_on_c, 0, 71, 102
2, 164587, Note_on_c, 0, 71, 0
2, 164588, Note_on_c, 0, 69, 102
2, 164651, Note_on_c, 0, 69, 0
2, 164652, Note_on_c, 0, 71, 102
2, 164715, Note_on_c, 0, 71, 0
2, 164715, Note_on_c, 0, 53, 0
2, 164716, Note_on_c, 0, 60, 102
2, 164716, Note_on_c, 0, 72, 102
2, 164779, Note_on_c, 0, 72, 0
2, 164779, Note_on_c, 0, 60, 0
2, 164780, Note_on_c, 0, 56, 102
2, 164780, Note_on_c, 0, 74, 102
2, 164843, Note_on_c, 0, 74, 0
2, 164844, Note_on_c, 0, 71, 102
2, 164907, Note_on_c, 0, 71, 0
2, 164907, Note_on_c, 0, 56, 0
2, 164908, Note_on_c, 0, 53, 102
2, 164908, Note_on_c, 0, 68, 102
2, 165098, Note_on_c, 0, 68, 0
2, 165120, Note_on_c, 0, 53, 0
2, 165121, Note_on_c, 0, 59, 102
2, 165121, Note_on_c, 0, 67, 102
2, 165163, Note_on_c, 0, 67, 0
2, 165163, Note_on_c, 0, 59, 0
2, 165164, Note_on_c, 0, 55, 102
2, 165164, Note_on_c, 0, 77, 102
2, 165291, Note_on_c, 0, 77, 0
2, 165291, Note_on_c, 0, 55, 0
2, 165292, Note_on_c, 0, 60, 102
2, 165292, Note_on_c, 0, 77, 102
2, 165334, Note_on_c, 0, 77, 0
2, 165334, Note_on_c, 0, 75, 102
2, 165376, Note_on_c, 0, 75, 0
2, 165377, Note_on_c, 0, 77, 102
2, 165419, Note_on_c, 0, 77, 0
2, 165420, Note_on_c, 0, 75, 102
2, 165483, Note_on_c, 0, 75, 0
2, 165483, Note_on_c, 0, 60, 0
2, 165484, Note_on_c, 0, 55, 102
2, 165484, Note_on_c, 0, 74, 102
2, 165547, Note_on_c, 0, 74, 0
2, 165547, Note_on_c, 0, 55, 0
2, 165548, Note_on_c, 0, 56, 102
2, 165548, Note_on_c, 0, 72, 102
2, 165675, Note_on_c, 0, 72, 0
2, 165675, Note_on_c, 0, 56, 0
2, 165676, Note_on_c, 0, 53, 102
2, 165676, Note_on_c, 0, 72, 102
2, 165739, Note_on_c, 0, 72, 0
2, 165740, Note_on_c, 0, 75, 102
2, 165803, Note_on_c, 0, 75, 0
2, 165803, Note_on_c, 0, 53, 0
2, 165804, Note_on_c, 0, 55, 102
2, 165804, Note_on_c, 0, 74, 102
2, 165867, Note_on_c, 0, 74, 0
2, 165868, Note_on_c, 0, 72, 102
2, 165931, Note_on_c, 0, 72, 0
2, 165931, Note_on_c, 0, 55, 0
2, 165932, Note_on_c, 0, 43, 102
2, 165932, Note_on_c, 0, 71, 102
2, 165995, Note_on_c, 0, 71, 0
2, 165996, Note_on_c, 0, 72, 102
2, 166059, Note_on_c, 0, 72, 0
2, 166059, Note_on_c, 0, 43, 0
2, 166060, Note_on_c, 0, 44, 102
2, 166060, Note_on_c, 0, 72, 102
2, 166123, Note_on_c, 0, 44, 0
2, 166124, Note_on_c, 0, 46, 102
2, 166187, Note_on_c, 0, 46, 0
2, 166188, Note_on_c, 0, 44, 102
2, 166251, Note_on_c, 0, 44, 0
2, 166252, Note_on_c, 0, 43, 102
2, 166315, Note_on_c, 0, 43, 0
2, 166316, Note_on_c, 0, 44, 102
2, 166379, Note_on_c, 0, 44, 0
2, 166380, Note_on_c, 0, 41, 102
2, 166443, Note_on_c, 0, 41, 0
2, 166444, Note_on_c, 0, 53, 102
2, 166460, Note_on_c, 0, 72, 0
2, 166508, Note_on_c, 0, 70, 102
2, 166571, Note_on_c, 0, 70, 0
2, 166572, Note_on_c, 0, 68, 102
2, 166635, Note_on_c, 0, 68, 0
2, 166636, Note_on_c, 0, 67, 102
2, 166699, Note_on_c, 0, 67, 0
2, 166701, Note_on_c, 0, 68, 102
2, 166765, Note_on_c, 0, 68, 0
2, 166767, Note_on_c, 0, 65, 102
2, 166831, Note_on_c, 0, 65, 0
2, 166833, Note_on_c, 0, 74, 102
2, 167024, Note_on_c, 0, 53, 0
2, 167052, Note_on_c, 0, 50, 102
2, 167095, Note_on_c, 0, 50, 0
2, 167096, Note_on_c, 0, 53, 102
2, 167226, Note_on_c, 0, 53, 0
2, 167228, Note_on_c, 0, 56, 102
2, 167245, Note_on_c, 0, 74, 0
2, 167294, Note_on_c, 0, 75, 102
2, 167358, Note_on_c, 0, 75, 0
2, 167360, Note_on_c, 0, 74, 102
2, 167424, Note_on_c, 0, 74, 0
2, 167426, Note_on_c, 0, 72, 102
2, 167490, Note_on_c, 0, 72, 0
2, 167493, Note_on_c, 0, 74, 102
2, 167558, Note_on_c, 0, 74, 0
2, 167561, Note_on_c, 0, 71, 102
2, 167626, Note_on_c, 0, 71, 0
2, 167629, Note_on_c, 0, 77, 102
2, 167694, Note_on_c, 0, 77, 0
2, 167697, Note_on_c, 0, 79, 102
2, 167762, Note_on_c, 0, 79, 0
2, 167765, Note_on_c, 0, 77, 102
2, 167804, Note_on_c, 0, 56, 0
2, 167830, Note_on_c, 0, 77, 0
2, 167833, Note_on_c, 0, 53, 102
2, 167833, Note_on_c, 0, 75, 102
2, 167898, Note_on_c, 0, 75, 0
2, 167898, Note_on_c, 0, 53, 0
2, 167900, Note_on_c, 0, 56, 102
2, 167900, Note_on_c, 0, 77, 102
2, 167965, Note_on_c, 0, 77, 0
2, 167968, Note_on_c, 0, 74, 102
2, 168033, Note_on_c, 0, 74, 0
2, 168033, Note_on_c, 0, 56, 0
2, 168036, Note_on_c, 0, 59, 102
2, 168036, Note_on_c, 0, 80, 102
2, 168244, Note_on_c, 0, 59, 0
2, 168245, Note_on_c, 0, 80, 0
2, 168262, Note_on_c, 0, 79, 102
2, 168262, Note_on_c, 0, 62, 102
2, 168307, Note_on_c, 0, 62, 0
2, 168307, Note_on_c, 0, 79, 0
2, 168309, Note_on_c, 0, 77, 102
2, 168309, Note_on_c, 0, 55, 102
2, 168445, Note_on_c, 0, 55, 0
2, 168445, Note_on_c, 0, 77, 0
2, 168449, Note_on_c, 0, 75, 102
2, 168449, Note_on_c, 0, 60, 102
2, 168515, Note_on_c, 0, 75, 0
2, 168519, Note_on_c, 0, 74, 102
2, 168585, Note_on_c, 0, 74, 0
2, 168589, Note_on_c, 0, 75, 102
2, 168655, Note_on_c, 0, 75, 0
2, 168656, Note_on_c, 0, 60, 0
2, 168659, Note_on_c, 0, 79, 102
2, 168659, Note_on_c, 0, 48, 102
2, 168725, Note_on_c, 0, 48, 0
2, 168725, Note_on_c, 0, 79, 0
2, 168728, Note_on_c, 0, 84, 102
2, 168728, Note_on_c, 0, 51, 102
2, 168794, Note_on_c, 0, 84, 0
2, 168798, Note_on_c, 0, 79, 102
2, 168864, Note_on_c, 0, 79, 0
2, 168864, Note_on_c, 0, 51, 0
2, 168868, Note_on_c, 0, 75, 102
2, 168868, Note_on_c, 0, 55, 102
2, 169098, Note_on_c, 0, 75, 0
2, 169101, Note_on_c, 0, 77, 102
2, 169132, Note_on_c, 0, 55, 0
2, 169148, Note_on_c, 0, 77, 0
2, 169150, Note_on_c, 0, 74, 102
2, 169150, Note_on_c, 0, 43, 102
2, 169280, Note_on_c, 0, 43, 0
2, 169294, Note_on_c, 0, 74, 0
2, 169299, Note_on_c, 0, 72, 102
2, 169299, Note_on_c, 0, 48, 102
2, 169345, Note_on_c, 0, 71, 102
2, 169346, Note_on_c, 0, 72, 0
2, 169388, Note_on_c, 0, 72, 102
2, 169396, Note_on_c, 0, 71, 0
2, 169542, Note_on_c, 0, 48, 0
2, 169572, Note_on_c, 0, 39, 102
2, 169625, Note_on_c, 0, 39, 0
2, 169628, Note_on_c, 0, 43, 102
2, 169837, Note_on_c, 0, 43, 0
2, 169848, Note_on_c, 0, 36, 102
2, 170133, Note_on_c, 0, 72, 0
2, 170370, Note_on_c, 0, 36, 0
2, 170370, End_track
0, 0, End_of_file
