0, 0, Header, 1, 2, 384
1, 0, Start_track
1, 0, Title_t, "--------"
1, 0, Text_t, "harpsichord: John Sankey\012"
1, 0, Time_signature, 4, 2, 24, 8
1, 0, Key_signature, 0, "major"
1, 0, Tempo, 833333
1, 36864, Time_signature, 3, 2, 24, 8
1, 36864, Tempo, 600000
1, 74880, Tempo, 821918
1, 124416, Time_signature, 4, 3, 12, 8
1, 124416, Tempo, 810811
1, 144384, Tempo, 821918
1, 167424, Tempo, 1200000
1, 168192, Time_signature, 6, 3, 12, 8
1, 187776, Time_signature, 4, 2, 24, 8
1, 187776, Tempo, 545455
1, 187776, End_track
2, 0, Start_track
2, 0, Title_t, "Ger.8l"
2, 0, Program_c, 0, 6
2, 0, Control_c, 0, 7, 100
2, 0, Program_c, 0, 7
2, 0, Pitch_bend_c, 0, 8192
2, 0, Program_c, 0, 7
2, 0, Pitch_bend_c, 0, 7790
2, 0, Program_c, 0, 7
2, 0, Pitch_bend_c, 0, 7876
2, 0, Program_c, 0, 7
2, 0, Pitch_bend_c, 0, 7952
2, 0, Program_c, 0, 7
2, 0, Pitch_bend_c, 0, 7792
2, 0, Program_c, 0, 7
2, 0, Pitch_bend_c, 0, 8112
2, 0, Program_c, 0, 7
2, 0, Pitch_bend_c, 0, 7710
2, 0, Program_c, 0, 7
2, 0, Pitch_bend_c, 0, 8037
2, 0, Program_c, 0, 7
2, 0, Pitch_bend_c, 0, 7870
2, 0, Program_c, 0, 7
2, 0, Pitch_bend_c, 0, 7712
2, 0, Program_c, 0, 7
2, 0, Pitch_bend_c, 0, 8032
2, 0, Program_c, 0, 7
2, 0, Pitch_bend_c, 0, 7872
2, 96, Note_on_c, 0, 71, 102
2, 176, Note_on_c, 0, 71, 0
2, 192, Note_on_c, 0, 71, 102
2, 192, Note_on_c, 0, 55, 102
2, 288, Note_on_c, 0, 59, 102
2, 383, Note_on_c, 0, 59, 0
2, 384, Note_on_c, 0, 62, 102
2, 479, Note_on_c, 0, 62, 0
2, 479, Note_on_c, 0, 71, 0
2, 480, Note_on_c, 0, 72, 102
2, 480, Note_on_c, 0, 67, 102
2, 572, Note_on_c, 0, 55, 0
2, 575, Note_on_c, 0, 72, 0
2, 576, Note_on_c, 0, 74, 102
2, 576, Note_on_c, 0, 57, 102
2, 623, Note_on_c, 0, 74, 0
2, 624, Note_on_c, 0, 72, 102
2, 670, Note_on_c, 0, 67, 0
2, 671, Note_on_c, 0, 72, 0
2, 672, Note_on_c, 0, 74, 102
2, 672, Note_on_c, 0, 67, 102
2, 719, Note_on_c, 0, 74, 0
2, 720, Note_on_c, 0, 72, 102
2, 767, Note_on_c, 0, 72, 0
2, 767, Note_on_c, 0, 67, 0
2, 768, Note_on_c, 0, 74, 102
2, 768, Note_on_c, 0, 66, 102
2, 815, Note_on_c, 0, 74, 0
2, 816, Note_on_c, 0, 72, 102
2, 863, Note_on_c, 0, 72, 0
2, 863, Note_on_c, 0, 66, 0
2, 864, Note_on_c, 0, 71, 102
2, 864, Note_on_c, 0, 64, 102
2, 911, Note_on_c, 0, 71, 0
2, 912, Note_on_c, 0, 72, 102
2, 956, Note_on_c, 0, 57, 0
2, 959, Note_on_c, 0, 72, 0
2, 959, Note_on_c, 0, 64, 0
2, 960, Note_on_c, 0, 74, 102
2, 960, Note_on_c, 0, 59, 102
2, 1056, Note_on_c, 0, 62, 102
2, 1151, Note_on_c, 0, 62, 0
2, 1152, Note_on_c, 0, 66, 102
2, 1247, Note_on_c, 0, 66, 0
2, 1248, Note_on_c, 0, 67, 102
2, 1344, Note_on_c, 0, 71, 102
2, 1430, Note_on_c, 0, 74, 0
2, 1440, Note_on_c, 0, 74, 102
2, 1535, Note_on_c, 0, 74, 0
2, 1535, Note_on_c, 0, 59, 0
2, 1536, Note_on_c, 0, 78, 102
2, 1536, Note_on_c, 0, 59, 102
2, 1631, Note_on_c, 0, 78, 0
2, 1632, Note_on_c, 0, 79, 102
2, 1724, Note_on_c, 0, 71, 0
2, 1727, Note_on_c, 0, 59, 0
2, 1727, Note_on_c, 0, 79, 0
2, 1728, Note_on_c, 0, 76, 102
2, 1728, Note_on_c, 0, 60, 102
2, 1823, Note_on_c, 0, 76, 0
2, 1824, Note_on_c, 0, 79, 102
2, 1919, Note_on_c, 0, 79, 0
2, 1919, Note_on_c, 0, 60, 0
2, 1920, Note_on_c, 0, 74, 102
2, 1920, Note_on_c, 0, 59, 102
2, 2015, Note_on_c, 0, 74, 0
2, 2016, Note_on_c, 0, 79, 102
2, 2111, Note_on_c, 0, 79, 0
2, 2111, Note_on_c, 0, 59, 0
2, 2112, Note_on_c, 0, 72, 102
2, 2112, Note_on_c, 0, 57, 102
2, 2207, Note_on_c, 0, 72, 0
2, 2208, Note_on_c, 0, 71, 102
2, 2298, Note_on_c, 0, 67, 0
2, 2303, Note_on_c, 0, 71, 0
2, 2304, Note_on_c, 0, 72, 102
2, 2304, Note_on_c, 0, 66, 102
2, 2399, Note_on_c, 0, 72, 0
2, 2400, Note_on_c, 0, 81, 102
2, 2492, Note_on_c, 0, 57, 0
2, 2495, Note_on_c, 0, 81, 0
2, 2495, Note_on_c, 0, 66, 0
2, 2496, Note_on_c, 0, 72, 102
2, 2496, Note_on_c, 0, 55, 102
2, 2591, Note_on_c, 0, 72, 0
2, 2592, Note_on_c, 0, 71, 102
2, 2687, Note_on_c, 0, 71, 0
2, 2688, Note_on_c, 0, 69, 102
2, 2688, Note_on_c, 0, 59, 102
2, 2783, Note_on_c, 0, 69, 0
2, 2784, Note_on_c, 0, 67, 102
2, 2879, Note_on_c, 0, 67, 0
2, 2879, Note_on_c, 0, 59, 0
2, 2880, Note_on_c, 0, 71, 102
2, 2880, Note_on_c, 0, 62, 102
2, 2976, Note_on_c, 0, 55, 0
2, 2976, Note_on_c, 0, 54, 102
2, 3070, Note_on_c, 0, 62, 0
2, 3071, Note_on_c, 0, 54, 0
2, 3072, Note_on_c, 0, 67, 102
2, 3072, Note_on_c, 0, 52, 102
2, 3167, Note_on_c, 0, 52, 0
2, 3168, Note_on_c, 0, 50, 102
2, 3262, Note_on_c, 0, 67, 0
2, 3263, Note_on_c, 0, 50, 0
2, 3264, Note_on_c, 0, 64, 102
2, 3264, Note_on_c, 0, 49, 102
2, 3340, Note_on_c, 0, 71, 0
2, 3360, Note_on_c, 0, 76, 102
2, 3455, Note_on_c, 0, 76, 0
2, 3456, Note_on_c, 0, 69, 102
2, 3456, Note_on_c, 0, 52, 102
2, 3551, Note_on_c, 0, 69, 0
2, 3552, Note_on_c, 0, 76, 102
2, 3644, Note_on_c, 0, 64, 0
2, 3647, Note_on_c, 0, 52, 0
2, 3647, Note_on_c, 0, 76, 0
2, 3648, Note_on_c, 0, 67, 102
2, 3648, Note_on_c, 0, 57, 102
2, 3743, Note_on_c, 0, 67, 0
2, 3744, Note_on_c, 0, 66, 102
2, 3839, Note_on_c, 0, 66, 0
2, 3839, Note_on_c, 0, 49, 0
2, 3840, Note_on_c, 0, 67, 102
2, 3840, Note_on_c, 0, 49, 102
2, 3935, Note_on_c, 0, 67, 0
2, 3936, Note_on_c, 0, 76, 102
2, 4028, Note_on_c, 0, 57, 0
2, 4031, Note_on_c, 0, 76, 0
2, 4031, Note_on_c, 0, 49, 0
2, 4032, Note_on_c, 0, 67, 102
2, 4032, Note_on_c, 0, 50, 102
2, 4127, Note_on_c, 0, 67, 0
2, 4128, Note_on_c, 0, 66, 102
2, 4223, Note_on_c, 0, 66, 0
2, 4224, Note_on_c, 0, 64, 102
2, 4224, Note_on_c, 0, 54, 102
2, 4319, Note_on_c, 0, 64, 0
2, 4320, Note_on_c, 0, 62, 102
2, 4415, Note_on_c, 0, 62, 0
2, 4415, Note_on_c, 0, 54, 0
2, 4416, Note_on_c, 0, 64, 102
2, 4416, Note_on_c, 0, 57, 102
2, 4511, Note_on_c, 0, 64, 0
2, 4512, Note_on_c, 0, 66, 102
2, 4607, Note_on_c, 0, 66, 0
2, 4607, Note_on_c, 0, 50, 0
2, 4608, Note_on_c, 0, 67, 102
2, 4608, Note_on_c, 0, 48, 102
2, 4703, Note_on_c, 0, 67, 0
2, 4704, Note_on_c, 0, 66, 102
2, 4796, Note_on_c, 0, 57, 0
2, 4799, Note_on_c, 0, 66, 0
2, 4799, Note_on_c, 0, 48, 0
2, 4800, Note_on_c, 0, 67, 102
2, 4800, Note_on_c, 0, 47, 102
2, 4800, Note_on_c, 0, 50, 102
2, 4895, Note_on_c, 0, 67, 0
2, 4896, Note_on_c, 0, 69, 102
2, 4991, Note_on_c, 0, 69, 0
2, 4991, Note_on_c, 0, 50, 0
2, 4992, Note_on_c, 0, 67, 102
2, 4992, Note_on_c, 0, 55, 102
2, 5087, Note_on_c, 0, 67, 0
2, 5088, Note_on_c, 0, 69, 102
2, 5180, Note_on_c, 0, 47, 0
2, 5183, Note_on_c, 0, 69, 0
2, 5184, Note_on_c, 0, 71, 102
2, 5184, Note_on_c, 0, 45, 102
2, 5231, Note_on_c, 0, 71, 0
2, 5232, Note_on_c, 0, 69, 102
2, 5279, Note_on_c, 0, 69, 0
2, 5280, Note_on_c, 0, 71, 102
2, 5327, Note_on_c, 0, 71, 0
2, 5328, Note_on_c, 0, 69, 102
2, 5372, Note_on_c, 0, 55, 0
2, 5375, Note_on_c, 0, 69, 0
2, 5376, Note_on_c, 0, 71, 102
2, 5376, Note_on_c, 0, 54, 102
2, 5423, Note_on_c, 0, 71, 0
2, 5424, Note_on_c, 0, 69, 102
2, 5471, Note_on_c, 0, 69, 0
2, 5472, Note_on_c, 0, 67, 102
2, 5519, Note_on_c, 0, 67, 0
2, 5520, Note_on_c, 0, 69, 102
2, 5564, Note_on_c, 0, 45, 0
2, 5567, Note_on_c, 0, 69, 0
2, 5567, Note_on_c, 0, 54, 0
2, 5568, Note_on_c, 0, 71, 102
2, 5568, Note_on_c, 0, 55, 102
2, 5664, Note_on_c, 0, 43, 102
2, 5759, Note_on_c, 0, 43, 0
2, 5760, Note_on_c, 0, 47, 102
2, 5855, Note_on_c, 0, 47, 0
2, 5856, Note_on_c, 0, 50, 102
2, 5908, Note_on_c, 0, 55, 0
2, 5908, Note_on_c, 0, 71, 0
2, 5951, Note_on_c, 0, 50, 0
2, 5952, Note_on_c, 0, 55, 102
2, 6048, Note_on_c, 0, 71, 102
2, 6143, Note_on_c, 0, 71, 0
2, 6143, Note_on_c, 0, 55, 0
2, 6144, Note_on_c, 0, 76, 102
2, 6144, Note_on_c, 0, 57, 102
2, 6239, Note_on_c, 0, 57, 0
2, 6239, Note_on_c, 0, 76, 0
2, 6240, Note_on_c, 0, 75, 102
2, 6240, Note_on_c, 0, 59, 102
2, 6335, Note_on_c, 0, 59, 0
2, 6335, Note_on_c, 0, 75, 0
2, 6336, Note_on_c, 0, 76, 102
2, 6336, Note_on_c, 0, 60, 102
2, 6431, Note_on_c, 0, 76, 0
2, 6432, Note_on_c, 0, 78, 102
2, 6527, Note_on_c, 0, 78, 0
2, 6527, Note_on_c, 0, 60, 0
2, 6528, Note_on_c, 0, 76, 102
2, 6528, Note_on_c, 0, 64, 102
2, 6528, Note_on_c, 0, 55, 102
2, 6623, Note_on_c, 0, 76, 0
2, 6624, Note_on_c, 0, 78, 102
2, 6719, Note_on_c, 0, 78, 0
2, 6719, Note_on_c, 0, 55, 0
2, 6720, Note_on_c, 0, 79, 102
2, 6720, Note_on_c, 0, 57, 102
2, 6767, Note_on_c, 0, 79, 0
2, 6768, Note_on_c, 0, 78, 102
2, 6815, Note_on_c, 0, 78, 0
2, 6816, Note_on_c, 0, 79, 102
2, 6863, Note_on_c, 0, 79, 0
2, 6864, Note_on_c, 0, 78, 102
2, 6908, Note_on_c, 0, 64, 0
2, 6911, Note_on_c, 0, 78, 0
2, 6911, Note_on_c, 0, 57, 0
2, 6912, Note_on_c, 0, 79, 102
2, 6912, Note_on_c, 0, 59, 102
2, 6912, Note_on_c, 0, 63, 102
2, 6959, Note_on_c, 0, 79, 0
2, 6960, Note_on_c, 0, 78, 102
2, 7007, Note_on_c, 0, 78, 0
2, 7008, Note_on_c, 0, 76, 102
2, 7055, Note_on_c, 0, 76, 0
2, 7056, Note_on_c, 0, 78, 102
2, 7103, Note_on_c, 0, 78, 0
2, 7103, Note_on_c, 0, 63, 0
2, 7103, Note_on_c, 0, 59, 0
2, 7104, Note_on_c, 0, 79, 102
2, 7104, Note_on_c, 0, 64, 102
2, 7200, Note_on_c, 0, 59, 102
2, 7295, Note_on_c, 0, 59, 0
2, 7296, Note_on_c, 0, 55, 102
2, 7391, Note_on_c, 0, 55, 0
2, 7392, Note_on_c, 0, 59, 102
2, 7484, Note_on_c, 0, 64, 0
2, 7487, Note_on_c, 0, 59, 0
2, 7488, Note_on_c, 0, 52, 102
2, 7583, Note_on_c, 0, 79, 0
2, 7584, Note_on_c, 0, 78, 102
2, 7679, Note_on_c, 0, 78, 0
2, 7679, Note_on_c, 0, 52, 0
2, 7680, Note_on_c, 0, 76, 102
2, 7680, Note_on_c, 0, 55, 102
2, 7775, Note_on_c, 0, 76, 0
2, 7776, Note_on_c, 0, 74, 102
2, 7871, Note_on_c, 0, 74, 0
2, 7871, Note_on_c, 0, 55, 0
2, 7872, Note_on_c, 0, 73, 102
2, 7872, Note_on_c, 0, 57, 102
2, 7968, Note_on_c, 0, 76, 102
2, 7992, Note_on_c, 0, 73, 0
2, 8063, Note_on_c, 0, 76, 0
2, 8064, Note_on_c, 0, 71, 102
2, 8064, Note_on_c, 0, 59, 102
2, 8160, Note_on_c, 0, 76, 102
2, 8184, Note_on_c, 0, 71, 0
2, 8255, Note_on_c, 0, 76, 0
2, 8255, Note_on_c, 0, 59, 0
2, 8256, Note_on_c, 0, 69, 102
2, 8256, Note_on_c, 0, 61, 102
2, 8351, Note_on_c, 0, 69, 0
2, 8352, Note_on_c, 0, 79, 102
2, 8447, Note_on_c, 0, 79, 0
2, 8447, Note_on_c, 0, 57, 0
2, 8448, Note_on_c, 0, 78, 102
2, 8448, Note_on_c, 0, 57, 102
2, 8543, Note_on_c, 0, 78, 0
2, 8544, Note_on_c, 0, 76, 102
2, 8636, Note_on_c, 0, 61, 0
2, 8639, Note_on_c, 0, 76, 0
2, 8639, Note_on_c, 0, 57, 0
2, 8640, Note_on_c, 0, 78, 102
2, 8640, Note_on_c, 0, 62, 102
2, 8640, Note_on_c, 0, 50, 102
2, 8736, Note_on_c, 0, 81, 102
2, 8760, Note_on_c, 0, 78, 0
2, 8831, Note_on_c, 0, 81, 0
2, 8831, Note_on_c, 0, 50, 0
2, 8832, Note_on_c, 0, 76, 102
2, 8832, Note_on_c, 0, 52, 102
2, 8928, Note_on_c, 0, 81, 102
2, 8952, Note_on_c, 0, 76, 0
2, 9023, Note_on_c, 0, 81, 0
2, 9023, Note_on_c, 0, 52, 0
2, 9024, Note_on_c, 0, 74, 102
2, 9024, Note_on_c, 0, 54, 102
2, 9119, Note_on_c, 0, 74, 0
2, 9120, Note_on_c, 0, 72, 102
2, 9215, Note_on_c, 0, 72, 0
2, 9215, Note_on_c, 0, 54, 0
2, 9216, Note_on_c, 0, 71, 102
2, 9216, Note_on_c, 0, 50, 102
2, 9311, Note_on_c, 0, 71, 0
2, 9312, Note_on_c, 0, 69, 102
2, 9407, Note_on_c, 0, 69, 0
2, 9407, Note_on_c, 0, 50, 0
2, 9408, Note_on_c, 0, 71, 102
2, 9408, Note_on_c, 0, 55, 102
2, 9504, Note_on_c, 0, 74, 102
2, 9528, Note_on_c, 0, 71, 0
2, 9599, Note_on_c, 0, 74, 0
2, 9600, Note_on_c, 0, 62, 0
2, 9600, Note_on_c, 0, 69, 102
2, 9600, Note_on_c, 0, 60, 102
2, 9696, Note_on_c, 0, 74, 102
2, 9720, Note_on_c, 0, 69, 0
2, 9791, Note_on_c, 0, 74, 0
2, 9791, Note_on_c, 0, 60, 0
2, 9792, Note_on_c, 0, 67, 102
2, 9792, Note_on_c, 0, 59, 102
2, 9888, Note_on_c, 0, 74, 102
2, 9912, Note_on_c, 0, 67, 0
2, 9983, Note_on_c, 0, 74, 0
2, 9983, Note_on_c, 0, 59, 0
2, 9984, Note_on_c, 0, 66, 102
2, 9984, Note_on_c, 0, 57, 102
2, 10080, Note_on_c, 0, 74, 102
2, 10104, Note_on_c, 0, 66, 0
2, 10175, Note_on_c, 0, 55, 0
2, 10175, Note_on_c, 0, 57, 0
2, 10175, Note_on_c, 0, 74, 0
2, 10176, Note_on_c, 0, 64, 102
2, 10176, Note_on_c, 0, 55, 102
2, 10271, Note_on_c, 0, 64, 0
2, 10272, Note_on_c, 0, 74, 102
2, 10367, Note_on_c, 0, 74, 0
2, 10368, Note_on_c, 0, 73, 102
2, 10368, Note_on_c, 0, 52, 102
2, 10463, Note_on_c, 0, 73, 0
2, 10464, Note_on_c, 0, 71, 102
2, 10559, Note_on_c, 0, 71, 0
2, 10559, Note_on_c, 0, 52, 0
2, 10560, Note_on_c, 0, 73, 102
2, 10560, Note_on_c, 0, 45, 102
2, 10655, Note_on_c, 0, 73, 0
2, 10656, Note_on_c, 0, 76, 102
2, 10751, Note_on_c, 0, 76, 0
2, 10751, Note_on_c, 0, 45, 0
2, 10751, Note_on_c, 0, 55, 0
2, 10752, Note_on_c, 0, 69, 102
2, 10752, Note_on_c, 0, 52, 102
2, 10752, Note_on_c, 0, 49, 102
2, 10847, Note_on_c, 0, 69, 0
2, 10848, Note_on_c, 0, 79, 102
2, 10943, Note_on_c, 0, 79, 0
2, 10943, Note_on_c, 0, 49, 0
2, 10943, Note_on_c, 0, 52, 0
2, 10944, Note_on_c, 0, 78, 102
2, 10944, Note_on_c, 0, 50, 102
2, 11039, Note_on_c, 0, 78, 0
2, 11040, Note_on_c, 0, 76, 102
2, 11135, Note_on_c, 0, 76, 0
2, 11136, Note_on_c, 0, 78, 102
2, 11136, Note_on_c, 0, 43, 102
2, 11224, Note_on_c, 0, 50, 0
2, 11231, Note_on_c, 0, 78, 0
2, 11232, Note_on_c, 0, 74, 102
2, 11232, Note_on_c, 0, 52, 102
2, 11316, Note_on_c, 0, 74, 0
2, 11326, Note_on_c, 0, 43, 0
2, 11327, Note_on_c, 0, 52, 0
2, 11328, Note_on_c, 0, 74, 102
2, 11328, Note_on_c, 0, 54, 102
2, 11328, Note_on_c, 0, 45, 102
2, 11375, Note_on_c, 0, 74, 0
2, 11376, Note_on_c, 0, 73, 102
2, 11423, Note_on_c, 0, 73, 0
2, 11424, Note_on_c, 0, 74, 102
2, 11471, Note_on_c, 0, 74, 0
2, 11472, Note_on_c, 0, 73, 102
2, 11519, Note_on_c, 0, 54, 0
2, 11520, Note_on_c, 0, 55, 102
2, 11615, Note_on_c, 0, 73, 0
2, 11616, Note_on_c, 0, 74, 102
2, 11708, Note_on_c, 0, 45, 0
2, 11711, Note_on_c, 0, 74, 0
2, 11711, Note_on_c, 0, 55, 0
2, 11712, Note_on_c, 0, 74, 102
2, 11712, Note_on_c, 0, 50, 102
2, 11712, Note_on_c, 0, 54, 102
2, 11807, Note_on_c, 0, 54, 0
2, 11808, Note_on_c, 0, 62, 102
2, 11852, Note_on_c, 0, 50, 0
2, 11903, Note_on_c, 0, 62, 0
2, 11904, Note_on_c, 0, 52, 102
2, 11904, Note_on_c, 0, 55, 102
2, 11999, Note_on_c, 0, 55, 0
2, 12000, Note_on_c, 0, 62, 102
2, 12044, Note_on_c, 0, 52, 0
2, 12095, Note_on_c, 0, 62, 0
2, 12096, Note_on_c, 0, 54, 102
2, 12096, Note_on_c, 0, 57, 102
2, 12191, Note_on_c, 0, 57, 0
2, 12191, Note_on_c, 0, 74, 0
2, 12192, Note_on_c, 0, 78, 102
2, 12192, Note_on_c, 0, 62, 102
2, 12236, Note_on_c, 0, 54, 0
2, 12287, Note_on_c, 0, 62, 0
2, 12287, Note_on_c, 0, 78, 0
2, 12288, Note_on_c, 0, 81, 102
2, 12288, Note_on_c, 0, 50, 102
2, 12288, Note_on_c, 0, 54, 102
2, 12383, Note_on_c, 0, 54, 0
2, 12383, Note_on_c, 0, 50, 0
2, 12383, Note_on_c, 0, 81, 0
2, 12384, Note_on_c, 0, 84, 102
2, 12384, Note_on_c, 0, 62, 102
2, 12479, Note_on_c, 0, 62, 0
2, 12479, Note_on_c, 0, 84, 0
2, 12480, Note_on_c, 0, 83, 102
2, 12480, Note_on_c, 0, 55, 102
2, 12576, Note_on_c, 0, 62, 102
2, 12620, Note_on_c, 0, 55, 0
2, 12671, Note_on_c, 0, 62, 0
2, 12672, Note_on_c, 0, 57, 102
2, 12767, Note_on_c, 0, 83, 0
2, 12768, Note_on_c, 0, 81, 102
2, 12768, Note_on_c, 0, 62, 102
2, 12812, Note_on_c, 0, 57, 0
2, 12863, Note_on_c, 0, 62, 0
2, 12863, Note_on_c, 0, 81, 0
2, 12864, Note_on_c, 0, 79, 102
2, 12864, Note_on_c, 0, 59, 102
2, 12959, Note_on_c, 0, 79, 0
2, 12960, Note_on_c, 0, 78, 102
2, 12960, Note_on_c, 0, 62, 102
2, 13004, Note_on_c, 0, 59, 0
2, 13055, Note_on_c, 0, 62, 0
2, 13055, Note_on_c, 0, 78, 0
2, 13056, Note_on_c, 0, 76, 102
2, 13056, Note_on_c, 0, 55, 102
2, 13151, Note_on_c, 0, 55, 0
2, 13151, Note_on_c, 0, 76, 0
2, 13152, Note_on_c, 0, 74, 102
2, 13152, Note_on_c, 0, 62, 102
2, 13247, Note_on_c, 0, 62, 0
2, 13247, Note_on_c, 0, 74, 0
2, 13248, Note_on_c, 0, 79, 102
2, 13248, Note_on_c, 0, 52, 102
2, 13344, Note_on_c, 0, 62, 102
2, 13388, Note_on_c, 0, 52, 0
2, 13439, Note_on_c, 0, 62, 0
2, 13440, Note_on_c, 0, 54, 102
2, 13535, Note_on_c, 0, 79, 0
2, 13536, Note_on_c, 0, 78, 102
2, 13536, Note_on_c, 0, 62, 102
2, 13580, Note_on_c, 0, 54, 0
2, 13631, Note_on_c, 0, 62, 0
2, 13631, Note_on_c, 0, 78, 0
2, 13632, Note_on_c, 0, 76, 102
2, 13632, Note_on_c, 0, 55, 102
2, 13727, Note_on_c, 0, 76, 0
2, 13728, Note_on_c, 0, 74, 102
2, 13728, Note_on_c, 0, 62, 102
2, 13772, Note_on_c, 0, 55, 0
2, 13823, Note_on_c, 0, 62, 0
2, 13823, Note_on_c, 0, 74, 0
2, 13824, Note_on_c, 0, 73, 102
2, 13824, Note_on_c, 0, 52, 102
2, 13919, Note_on_c, 0, 52, 0
2, 13919, Note_on_c, 0, 73, 0
2, 13920, Note_on_c, 0, 71, 102
2, 13920, Note_on_c, 0, 62, 102
2, 14015, Note_on_c, 0, 62, 0
2, 14015, Note_on_c, 0, 71, 0
2, 14016, Note_on_c, 0, 73, 102
2, 14016, Note_on_c, 0, 57, 102
2, 14111, Note_on_c, 0, 57, 0
2, 14111, Note_on_c, 0, 73, 0
2, 14112, Note_on_c, 0, 69, 102
2, 14112, Note_on_c, 0, 61, 102
2, 14207, Note_on_c, 0, 61, 0
2, 14207, Note_on_c, 0, 69, 0
2, 14208, Note_on_c, 0, 74, 102
2, 14208, Note_on_c, 0, 59, 102
2, 14303, Note_on_c, 0, 59, 0
2, 14303, Note_on_c, 0, 74, 0
2, 14304, Note_on_c, 0, 69, 102
2, 14304, Note_on_c, 0, 62, 102
2, 14399, Note_on_c, 0, 62, 0
2, 14399, Note_on_c, 0, 69, 0
2, 14400, Note_on_c, 0, 76, 102
2, 14400, Note_on_c, 0, 61, 102
2, 14495, Note_on_c, 0, 61, 0
2, 14495, Note_on_c, 0, 76, 0
2, 14496, Note_on_c, 0, 69, 102
2, 14496, Note_on_c, 0, 64, 102
2, 14591, Note_on_c, 0, 64, 0
2, 14591, Note_on_c, 0, 69, 0
2, 14592, Note_on_c, 0, 79, 102
2, 14592, Note_on_c, 0, 57, 102
2, 14687, Note_on_c, 0, 57, 0
2, 14687, Note_on_c, 0, 79, 0
2, 14688, Note_on_c, 0, 76, 102
2, 14688, Note_on_c, 0, 61, 102
2, 14783, Note_on_c, 0, 61, 0
2, 14783, Note_on_c, 0, 76, 0
2, 14784, Note_on_c, 0, 77, 102
2, 14784, Note_on_c, 0, 62, 102
2, 14879, Note_on_c, 0, 77, 0
2, 14880, Note_on_c, 0, 69, 102
2, 14975, Note_on_c, 0, 69, 0
2, 14975, Note_on_c, 0, 62, 0
2, 14976, Note_on_c, 0, 74, 102
2, 14976, Note_on_c, 0, 60, 102
2, 15071, Note_on_c, 0, 74, 0
2, 15072, Note_on_c, 0, 76, 102
2, 15167, Note_on_c, 0, 76, 0
2, 15167, Note_on_c, 0, 60, 0
2, 15168, Note_on_c, 0, 77, 102
2, 15168, Note_on_c, 0, 58, 102
2, 15263, Note_on_c, 0, 77, 0
2, 15264, Note_on_c, 0, 74, 102
2, 15359, Note_on_c, 0, 74, 0
2, 15359, Note_on_c, 0, 58, 0
2, 15360, Note_on_c, 0, 78, 102
2, 15360, Note_on_c, 0, 57, 102
2, 15455, Note_on_c, 0, 78, 0
2, 15456, Note_on_c, 0, 74, 102
2, 15551, Note_on_c, 0, 74, 0
2, 15551, Note_on_c, 0, 57, 0
2, 15552, Note_on_c, 0, 79, 102
2, 15552, Note_on_c, 0, 58, 102
2, 15648, Note_on_c, 0, 74, 102
2, 15692, Note_on_c, 0, 79, 0
2, 15743, Note_on_c, 0, 58, 0
2, 15744, Note_on_c, 0, 82, 102
2, 15744, Note_on_c, 0, 55, 102
2, 15839, Note_on_c, 0, 82, 0
2, 15840, Note_on_c, 0, 81, 102
2, 15928, Note_on_c, 0, 74, 0
2, 15935, Note_on_c, 0, 81, 0
2, 15935, Note_on_c, 0, 55, 0
2, 15936, Note_on_c, 0, 80, 102
2, 15936, Note_on_c, 0, 52, 102
2, 16032, Note_on_c, 0, 74, 102
2, 16127, Note_on_c, 0, 74, 0
2, 16127, Note_on_c, 0, 52, 0
2, 16128, Note_on_c, 0, 73, 102
2, 16128, Note_on_c, 0, 57, 102
2, 16176, Note_on_c, 0, 80, 0
2, 16223, Note_on_c, 0, 73, 0
2, 16224, Note_on_c, 0, 79, 102
2, 16319, Note_on_c, 0, 79, 0
2, 16319, Note_on_c, 0, 57, 0
2, 16320, Note_on_c, 0, 78, 102
2, 16320, Note_on_c, 0, 62, 102
2, 16416, Note_on_c, 0, 72, 102
2, 16511, Note_on_c, 0, 72, 0
2, 16511, Note_on_c, 0, 62, 0
2, 16512, Note_on_c, 0, 71, 102
2, 16512, Note_on_c, 0, 55, 102
2, 16600, Note_on_c, 0, 78, 0
2, 16607, Note_on_c, 0, 71, 0
2, 16608, Note_on_c, 0, 76, 102
2, 16703, Note_on_c, 0, 55, 0
2, 16704, Note_on_c, 0, 66, 102
2, 16704, Note_on_c, 0, 69, 102
2, 16704, Note_on_c, 0, 57, 102
2, 16798, Note_on_c, 0, 76, 0
2, 16799, Note_on_c, 0, 69, 0
2, 16800, Note_on_c, 0, 74, 102
2, 16844, Note_on_c, 0, 66, 0
2, 16896, Note_on_c, 0, 64, 102
2, 16896, Note_on_c, 0, 67, 102
2, 16990, Note_on_c, 0, 74, 0
2, 16991, Note_on_c, 0, 67, 0
2, 16992, Note_on_c, 0, 73, 102
2, 17036, Note_on_c, 0, 64, 0
2, 17087, Note_on_c, 0, 73, 0
2, 17087, Note_on_c, 0, 57, 0
2, 17088, Note_on_c, 0, 74, 102
2, 17088, Note_on_c, 0, 62, 102
2, 17184, Note_on_c, 0, 67, 102
2, 17279, Note_on_c, 0, 67, 0
2, 17280, Note_on_c, 0, 69, 102
2, 17376, Note_on_c, 0, 64, 102
2, 17471, Note_on_c, 0, 64, 0
2, 17472, Note_on_c, 0, 66, 102
2, 17567, Note_on_c, 0, 62, 0
2, 17568, Note_on_c, 0, 61, 102
2, 17663, Note_on_c, 0, 61, 0
2, 17664, Note_on_c, 0, 62, 102
2, 17760, Note_on_c, 0, 57, 102
2, 17855, Note_on_c, 0, 57, 0
2, 17856, Note_on_c, 0, 50, 102
2, 18239, Note_on_c, 0, 62, 0
2, 18428, Note_on_c, 0, 74, 0
2, 18430, Note_on_c, 0, 69, 0
2, 18431, Note_on_c, 0, 50, 0
2, 18432, Note_on_c, 0, 66, 0
2, 18528, Note_on_c, 0, 78, 102
2, 18623, Note_on_c, 0, 78, 0
2, 18624, Note_on_c, 0, 69, 102
2, 18624, Note_on_c, 0, 74, 102
2, 18624, Note_on_c, 0, 78, 102
2, 18624, Note_on_c, 0, 50, 102
2, 18719, Note_on_c, 0, 50, 0
2, 18720, Note_on_c, 0, 54, 102
2, 18815, Note_on_c, 0, 54, 0
2, 18816, Note_on_c, 0, 57, 102
2, 18911, Note_on_c, 0, 57, 0
2, 18911, Note_on_c, 0, 69, 0
2, 18911, Note_on_c, 0, 74, 0
2, 18911, Note_on_c, 0, 78, 0
2, 18912, Note_on_c, 0, 79, 102
2, 18912, Note_on_c, 0, 60, 102
2, 19007, Note_on_c, 0, 60, 0
2, 19007, Note_on_c, 0, 79, 0
2, 19008, Note_on_c, 0, 81, 102
2, 19008, Note_on_c, 0, 59, 102
2, 19055, Note_on_c, 0, 81, 0
2, 19056, Note_on_c, 0, 79, 102
2, 19103, Note_on_c, 0, 79, 0
2, 19103, Note_on_c, 0, 59, 0
2, 19104, Note_on_c, 0, 81, 102
2, 19104, Note_on_c, 0, 57, 102
2, 19151, Note_on_c, 0, 81, 0
2, 19152, Note_on_c, 0, 79, 102
2, 19199, Note_on_c, 0, 79, 0
2, 19199, Note_on_c, 0, 57, 0
2, 19200, Note_on_c, 0, 81, 102
2, 19200, Note_on_c, 0, 59, 102
2, 19247, Note_on_c, 0, 81, 0
2, 19248, Note_on_c, 0, 79, 102
2, 19295, Note_on_c, 0, 79, 0
2, 19295, Note_on_c, 0, 59, 0
2, 19296, Note_on_c, 0, 78, 102
2, 19296, Note_on_c, 0, 55, 102
2, 19343, Note_on_c, 0, 78, 0
2, 19344, Note_on_c, 0, 79, 102
2, 19391, Note_on_c, 0, 79, 0
2, 19391, Note_on_c, 0, 55, 0
2, 19392, Note_on_c, 0, 81, 102
2, 19392, Note_on_c, 0, 54, 102
2, 19488, Note_on_c, 0, 57, 102
2, 19583, Note_on_c, 0, 57, 0
2, 19584, Note_on_c, 0, 60, 102
2, 19679, Note_on_c, 0, 60, 0
2, 19680, Note_on_c, 0, 64, 102
2, 19775, Note_on_c, 0, 64, 0
2, 19776, Note_on_c, 0, 62, 102
2, 19832, Note_on_c, 0, 81, 0
2, 19872, Note_on_c, 0, 72, 102
2, 19967, Note_on_c, 0, 72, 0
2, 19967, Note_on_c, 0, 62, 0
2, 19967, Note_on_c, 0, 54, 0
2, 19968, Note_on_c, 0, 74, 102
2, 19968, Note_on_c, 0, 54, 102
2, 19968, Note_on_c, 0, 57, 102
2, 20063, Note_on_c, 0, 74, 0
2, 20064, Note_on_c, 0, 69, 102
2, 20159, Note_on_c, 0, 69, 0
2, 20159, Note_on_c, 0, 57, 0
2, 20159, Note_on_c, 0, 54, 0
2, 20160, Note_on_c, 0, 71, 102
2, 20160, Note_on_c, 0, 55, 102
2, 20255, Note_on_c, 0, 71, 0
2, 20256, Note_on_c, 0, 75, 102
2, 20351, Note_on_c, 0, 75, 0
2, 20351, Note_on_c, 0, 55, 0
2, 20352, Note_on_c, 0, 76, 102
2, 20352, Note_on_c, 0, 48, 102
2, 20352, Note_on_c, 0, 52, 102
2, 20447, Note_on_c, 0, 76, 0
2, 20448, Note_on_c, 0, 79, 102
2, 20543, Note_on_c, 0, 79, 0
2, 20543, Note_on_c, 0, 48, 0
2, 20544, Note_on_c, 0, 78, 102
2, 20544, Note_on_c, 0, 45, 102
2, 20640, Note_on_c, 0, 72, 102
2, 20732, Note_on_c, 0, 52, 0
2, 20734, Note_on_c, 0, 78, 0
2, 20735, Note_on_c, 0, 45, 0
2, 20735, Note_on_c, 0, 72, 0
2, 20736, Note_on_c, 0, 71, 102
2, 20736, Note_on_c, 0, 47, 102
2, 20736, Note_on_c, 0, 51, 102
2, 20831, Note_on_c, 0, 71, 0
2, 20832, Note_on_c, 0, 81, 102
2, 20927, Note_on_c, 0, 81, 0
2, 20927, Note_on_c, 0, 51, 0
2, 20927, Note_on_c, 0, 47, 0
2, 20928, Note_on_c, 0, 79, 102
2, 20928, Note_on_c, 0, 52, 102
2, 20928, Note_on_c, 0, 40, 102
2, 21024, Note_on_c, 0, 75, 102
2, 21048, Note_on_c, 0, 79, 0
2, 21119, Note_on_c, 0, 75, 0
2, 21120, Note_on_c, 0, 76, 102
2, 21215, Note_on_c, 0, 76, 0
2, 21216, Note_on_c, 0, 79, 102
2, 21308, Note_on_c, 0, 40, 0
2, 21308, Note_on_c, 0, 52, 0
2, 21311, Note_on_c, 0, 79, 0
2, 21312, Note_on_c, 0, 72, 102
2, 21359, Note_on_c, 0, 72, 0
2, 21360, Note_on_c, 0, 71, 102
2, 21407, Note_on_c, 0, 71, 0
2, 21408, Note_on_c, 0, 72, 102
2, 21408, Note_on_c, 0, 52, 102
2, 21503, Note_on_c, 0, 52, 0
2, 21504, Note_on_c, 0, 54, 102
2, 21599, Note_on_c, 0, 54, 0
2, 21599, Note_on_c, 0, 72, 0
2, 21600, Note_on_c, 0, 72, 102
2, 21600, Note_on_c, 0, 50, 102
2, 21695, Note_on_c, 0, 50, 0
2, 21695, Note_on_c, 0, 72, 0
2, 21696, Note_on_c, 0, 72, 102
2, 21696, Note_on_c, 0, 55, 102
2, 21791, Note_on_c, 0, 72, 0
2, 21792, Note_on_c, 0, 69, 102
2, 21887, Note_on_c, 0, 69, 0
2, 21887, Note_on_c, 0, 55, 0
2, 21888, Note_on_c, 0, 71, 102
2, 21888, Note_on_c, 0, 43, 102
2, 21983, Note_on_c, 0, 71, 0
2, 21984, Note_on_c, 0, 76, 102
2, 22078, Note_on_c, 0, 43, 0
2, 22079, Note_on_c, 0, 76, 0
2, 22080, Note_on_c, 0, 69, 102
2, 22127, Note_on_c, 0, 69, 0
2, 22128, Note_on_c, 0, 68, 102
2, 22175, Note_on_c, 0, 68, 0
2, 22176, Note_on_c, 0, 69, 102
2, 22176, Note_on_c, 0, 49, 102
2, 22271, Note_on_c, 0, 49, 0
2, 22272, Note_on_c, 0, 51, 102
2, 22367, Note_on_c, 0, 51, 0
2, 22367, Note_on_c, 0, 69, 0
2, 22368, Note_on_c, 0, 69, 102
2, 22368, Note_on_c, 0, 47, 102
2, 22463, Note_on_c, 0, 47, 0
2, 22463, Note_on_c, 0, 69, 0
2, 22464, Note_on_c, 0, 69, 102
2, 22464, Note_on_c, 0, 52, 102
2, 22559, Note_on_c, 0, 69, 0
2, 22560, Note_on_c, 0, 66, 102
2, 22655, Note_on_c, 0, 66, 0
2, 22655, Note_on_c, 0, 52, 0
2, 22656, Note_on_c, 0, 67, 102
2, 22656, Note_on_c, 0, 40, 102
2, 22751, Note_on_c, 0, 67, 0
2, 22752, Note_on_c, 0, 72, 102
2, 22846, Note_on_c, 0, 40, 0
2, 22847, Note_on_c, 0, 72, 0
2, 22848, Note_on_c, 0, 65, 102
2, 22895, Note_on_c, 0, 65, 0
2, 22896, Note_on_c, 0, 64, 102
2, 22943, Note_on_c, 0, 64, 0
2, 22944, Note_on_c, 0, 65, 102
2, 22944, Note_on_c, 0, 45, 102
2, 23039, Note_on_c, 0, 45, 0
2, 23040, Note_on_c, 0, 47, 102
2, 23135, Note_on_c, 0, 47, 0
2, 23135, Note_on_c, 0, 65, 0
2, 23136, Note_on_c, 0, 65, 102
2, 23136, Note_on_c, 0, 43, 102
2, 23231, Note_on_c, 0, 43, 0
2, 23231, Note_on_c, 0, 65, 0
2, 23232, Note_on_c, 0, 65, 102
2, 23232, Note_on_c, 0, 48, 102
2, 23328, Note_on_c, 0, 63, 102
2, 23352, Note_on_c, 0, 65, 0
2, 23423, Note_on_c, 0, 63, 0
2, 23423, Note_on_c, 0, 48, 0
2, 23424, Note_on_c, 0, 64, 102
2, 23424, Note_on_c, 0, 49, 102
2, 23519, Note_on_c, 0, 64, 0
2, 23520, Note_on_c, 0, 69, 102
2, 23615, Note_on_c, 0, 69, 0
2, 23615, Note_on_c, 0, 49, 0
2, 23616, Note_on_c, 0, 67, 102
2, 23616, Note_on_c, 0, 50, 102
2, 23712, Note_on_c, 0, 64, 102
2, 23736, Note_on_c, 0, 67, 0
2, 23807, Note_on_c, 0, 64, 0
2, 23807, Note_on_c, 0, 50, 0
2, 23808, Note_on_c, 0, 66, 102
2, 23808, Note_on_c, 0, 51, 102
2, 23903, Note_on_c, 0, 66, 0
2, 23904, Note_on_c, 0, 71, 102
2, 23999, Note_on_c, 0, 71, 0
2, 23999, Note_on_c, 0, 51, 0
2, 24000, Note_on_c, 0, 69, 102
2, 24000, Note_on_c, 0, 52, 102
2, 24096, Note_on_c, 0, 66, 102
2, 24120, Note_on_c, 0, 69, 0
2, 24191, Note_on_c, 0, 66, 0
2, 24191, Note_on_c, 0, 52, 0
2, 24192, Note_on_c, 0, 67, 102
2, 24192, Note_on_c, 0, 40, 102
2, 24287, Note_on_c, 0, 67, 0
2, 24288, Note_on_c, 0, 72, 102
2, 24383, Note_on_c, 0, 72, 0
2, 24383, Note_on_c, 0, 40, 0
2, 24384, Note_on_c, 0, 71, 102
2, 24384, Note_on_c, 0, 42, 102
2, 24480, Note_on_c, 0, 67, 102
2, 24504, Note_on_c, 0, 71, 0
2, 24575, Note_on_c, 0, 67, 0
2, 24575, Note_on_c, 0, 42, 0
2, 24576, Note_on_c, 0, 69, 102
2, 24576, Note_on_c, 0, 54, 102
2, 24671, Note_on_c, 0, 69, 0
2, 24672, Note_on_c, 0, 74, 102
2, 24767, Note_on_c, 0, 74, 0
2, 24767, Note_on_c, 0, 54, 0
2, 24768, Note_on_c, 0, 72, 102
2, 24768, Note_on_c, 0, 55, 102
2, 24863, Note_on_c, 0, 72, 0
2, 24864, Note_on_c, 0, 69, 102
2, 24959, Note_on_c, 0, 69, 0
2, 24959, Note_on_c, 0, 55, 0
2, 24960, Note_on_c, 0, 71, 102
2, 24960, Note_on_c, 0, 43, 102
2, 25055, Note_on_c, 0, 71, 0
2, 25056, Note_on_c, 0, 74, 102
2, 25150, Note_on_c, 0, 43, 0
2, 25151, Note_on_c, 0, 74, 0
2, 25152, Note_on_c, 0, 79, 102
2, 25199, Note_on_c, 0, 79, 0
2, 25200, Note_on_c, 0, 78, 102
2, 25247, Note_on_c, 0, 78, 0
2, 25248, Note_on_c, 0, 79, 102
2, 25248, Note_on_c, 0, 52, 102
2, 25344, Note_on_c, 0, 55, 102
2, 25439, Note_on_c, 0, 55, 0
2, 25439, Note_on_c, 0, 79, 0
2, 25440, Note_on_c, 0, 79, 102
2, 25440, Note_on_c, 0, 59, 102
2, 25528, Note_on_c, 0, 52, 0
2, 25535, Note_on_c, 0, 59, 0
2, 25535, Note_on_c, 0, 79, 0
2, 25536, Note_on_c, 0, 79, 102
2, 25536, Note_on_c, 0, 48, 102
2, 25631, Note_on_c, 0, 79, 0
2, 25632, Note_on_c, 0, 71, 102
2, 25727, Note_on_c, 0, 71, 0
2, 25728, Note_on_c, 0, 72, 102
2, 25728, Note_on_c, 0, 55, 102
2, 25823, Note_on_c, 0, 72, 0
2, 25824, Note_on_c, 0, 76, 102
2, 25916, Note_on_c, 0, 48, 0
2, 25919, Note_on_c, 0, 76, 0
2, 25919, Note_on_c, 0, 55, 0
2, 25920, Note_on_c, 0, 69, 102
2, 25920, Note_on_c, 0, 60, 102
2, 26016, Note_on_c, 0, 79, 102
2, 26111, Note_on_c, 0, 79, 0
2, 26112, Note_on_c, 0, 78, 102
2, 26112, Note_on_c, 0, 57, 102
2, 26207, Note_on_c, 0, 78, 0
2, 26208, Note_on_c, 0, 81, 102
2, 26300, Note_on_c, 0, 60, 0
2, 26303, Note_on_c, 0, 57, 0
2, 26303, Note_on_c, 0, 81, 0
2, 26304, Note_on_c, 0, 75, 102
2, 26304, Note_on_c, 0, 59, 102
2, 26400, Note_on_c, 0, 69, 0
2, 26400, Note_on_c, 0, 69, 102
2, 26495, Note_on_c, 0, 69, 0
2, 26496, Note_on_c, 0, 67, 102
2, 26496, Note_on_c, 0, 52, 102
2, 26564, Note_on_c, 0, 75, 0
2, 26592, Note_on_c, 0, 76, 102
2, 26684, Note_on_c, 0, 59, 0
2, 26686, Note_on_c, 0, 67, 0
2, 26687, Note_on_c, 0, 52, 0
2, 26688, Note_on_c, 0, 66, 102
2, 26688, Note_on_c, 0, 59, 102
2, 26784, Note_on_c, 0, 69, 102
2, 26872, Note_on_c, 0, 76, 0
2, 26880, Note_on_c, 0, 76, 102
2, 26880, Note_on_c, 0, 47, 102
2, 26975, Note_on_c, 0, 76, 0
2, 26976, Note_on_c, 0, 75, 102
2, 27064, Note_on_c, 0, 69, 0
2, 27068, Note_on_c, 0, 66, 0
2, 27071, Note_on_c, 0, 47, 0
2, 27071, Note_on_c, 0, 75, 0
2, 27072, Note_on_c, 0, 76, 102
2, 27072, Note_on_c, 0, 52, 102
2, 27168, Note_on_c, 0, 71, 102
2, 27264, Note_on_c, 0, 67, 102
2, 27354, Note_on_c, 0, 59, 0
2, 27360, Note_on_c, 0, 59, 102
2, 27452, Note_on_c, 0, 52, 0
2, 27455, Note_on_c, 0, 59, 0
2, 27456, Note_on_c, 0, 64, 102
2, 27551, Note_on_c, 0, 64, 0
2, 27552, Note_on_c, 0, 61, 102
2, 27647, Note_on_c, 0, 61, 0
2, 27648, Note_on_c, 0, 62, 102
2, 27743, Note_on_c, 0, 62, 0
2, 27743, Note_on_c, 0, 71, 0
2, 27744, Note_on_c, 0, 67, 0
2, 27744, Note_on_c, 0, 59, 102
2, 27839, Note_on_c, 0, 59, 0
2, 27839, Note_on_c, 0, 76, 0
2, 27840, Note_on_c, 0, 61, 102
2, 27936, Note_on_c, 0, 69, 102
2, 28031, Note_on_c, 0, 69, 0
2, 28032, Note_on_c, 0, 71, 102
2, 28127, Note_on_c, 0, 71, 0
2, 28128, Note_on_c, 0, 67, 102
2, 28220, Note_on_c, 0, 61, 0
2, 28223, Note_on_c, 0, 67, 0
2, 28224, Note_on_c, 0, 69, 102
2, 28319, Note_on_c, 0, 69, 0
2, 28320, Note_on_c, 0, 66, 102
2, 28320, Note_on_c, 0, 57, 102
2, 28415, Note_on_c, 0, 57, 0
2, 28415, Note_on_c, 0, 66, 0
2, 28416, Note_on_c, 0, 67, 102
2, 28416, Note_on_c, 0, 59, 102
2, 28511, Note_on_c, 0, 59, 0
2, 28511, Note_on_c, 0, 67, 0
2, 28512, Note_on_c, 0, 76, 102
2, 28512, Note_on_c, 0, 61, 102
2, 28607, Note_on_c, 0, 61, 0
2, 28607, Note_on_c, 0, 76, 0
2, 28608, Note_on_c, 0, 67, 102
2, 28608, Note_on_c, 0, 62, 102
2, 28703, Note_on_c, 0, 67, 0
2, 28704, Note_on_c, 0, 64, 102
2, 28799, Note_on_c, 0, 64, 0
2, 28800, Note_on_c, 0, 66, 102
2, 28896, Note_on_c, 0, 69, 102
2, 28992, Note_on_c, 0, 72, 102
2, 29087, Note_on_c, 0, 62, 0
2, 29088, Note_on_c, 0, 57, 102
2, 29183, Note_on_c, 0, 57, 0
2, 29184, Note_on_c, 0, 54, 102
2, 29276, Note_on_c, 0, 69, 0
2, 29279, Note_on_c, 0, 54, 0
2, 29280, Note_on_c, 0, 66, 0
2, 29280, Note_on_c, 0, 50, 102
2, 29375, Note_on_c, 0, 50, 0
2, 29376, Note_on_c, 0, 55, 102
2, 29432, Note_on_c, 0, 72, 0
2, 29472, Note_on_c, 0, 69, 102
2, 29567, Note_on_c, 0, 69, 0
2, 29568, Note_on_c, 0, 71, 102
2, 29663, Note_on_c, 0, 71, 0
2, 29664, Note_on_c, 0, 74, 102
2, 29759, Note_on_c, 0, 74, 0
2, 29760, Note_on_c, 0, 77, 102
2, 29855, Note_on_c, 0, 55, 0
2, 29856, Note_on_c, 0, 72, 102
2, 29856, Note_on_c, 0, 57, 102
2, 29951, Note_on_c, 0, 57, 0
2, 29951, Note_on_c, 0, 72, 0
2, 29952, Note_on_c, 0, 74, 102
2, 29952, Note_on_c, 0, 59, 102
2, 30047, Note_on_c, 0, 59, 0
2, 30047, Note_on_c, 0, 74, 0
2, 30048, Note_on_c, 0, 71, 102
2, 30048, Note_on_c, 0, 55, 102
2, 30143, Note_on_c, 0, 55, 0
2, 30143, Note_on_c, 0, 71, 0
2, 30144, Note_on_c, 0, 67, 102
2, 30144, Note_on_c, 0, 60, 102
2, 30240, Note_on_c, 0, 77, 0
2, 30240, Note_on_c, 0, 71, 102
2, 30335, Note_on_c, 0, 71, 0
2, 30336, Note_on_c, 0, 72, 102
2, 30431, Note_on_c, 0, 72, 0
2, 30432, Note_on_c, 0, 76, 102
2, 30524, Note_on_c, 0, 67, 0
2, 30527, Note_on_c, 0, 76, 0
2, 30528, Note_on_c, 0, 78, 102
2, 30623, Note_on_c, 0, 60, 0
2, 30624, Note_on_c, 0, 74, 102
2, 30624, Note_on_c, 0, 57, 102
2, 30718, Note_on_c, 0, 78, 0
2, 30719, Note_on_c, 0, 57, 0
2, 30720, Note_on_c, 0, 79, 102
2, 30720, Note_on_c, 0, 59, 102
2, 30814, Note_on_c, 0, 74, 0
2, 30815, Note_on_c, 0, 59, 0
2, 30816, Note_on_c, 0, 74, 102
2, 30816, Note_on_c, 0, 62, 102
2, 30910, Note_on_c, 0, 79, 0
2, 30911, Note_on_c, 0, 62, 0
2, 30912, Note_on_c, 0, 81, 102
2, 30912, Note_on_c, 0, 54, 102
2, 31006, Note_on_c, 0, 74, 0
2, 31007, Note_on_c, 0, 54, 0
2, 31008, Note_on_c, 0, 74, 102
2, 31008, Note_on_c, 0, 57, 102
2, 31102, Note_on_c, 0, 81, 0
2, 31103, Note_on_c, 0, 57, 0
2, 31104, Note_on_c, 0, 83, 102
2, 31104, Note_on_c, 0, 55, 102
2, 31198, Note_on_c, 0, 74, 0
2, 31199, Note_on_c, 0, 55, 0
2, 31200, Note_on_c, 0, 74, 102
2, 31200, Note_on_c, 0, 59, 102
2, 31294, Note_on_c, 0, 83, 0
2, 31295, Note_on_c, 0, 59, 0
2, 31295, Note_on_c, 0, 74, 0
2, 31296, Note_on_c, 0, 76, 102
2, 31296, Note_on_c, 0, 48, 102
2, 31391, Note_on_c, 0, 48, 0
2, 31392, Note_on_c, 0, 71, 102
2, 31392, Note_on_c, 0, 52, 102
2, 31487, Note_on_c, 0, 52, 0
2, 31487, Note_on_c, 0, 71, 0
2, 31488, Note_on_c, 0, 72, 102
2, 31488, Note_on_c, 0, 45, 102
2, 31576, Note_on_c, 0, 76, 0
2, 31583, Note_on_c, 0, 45, 0
2, 31584, Note_on_c, 0, 81, 102
2, 31584, Note_on_c, 0, 48, 102
2, 31679, Note_on_c, 0, 48, 0
2, 31679, Note_on_c, 0, 81, 0
2, 31680, Note_on_c, 0, 79, 102
2, 31680, Note_on_c, 0, 50, 102
2, 31775, Note_on_c, 0, 79, 0
2, 31776, Note_on_c, 0, 76, 102
2, 31871, Note_on_c, 0, 76, 0
2, 31872, Note_on_c, 0, 78, 102
2, 31872, Note_on_c, 0, 38, 102
2, 31968, Note_on_c, 0, 72, 0
2, 31968, Note_on_c, 0, 69, 102
2, 32062, Note_on_c, 0, 78, 0
2, 32063, Note_on_c, 0, 69, 0
2, 32064, Note_on_c, 0, 71, 102
2, 32160, Note_on_c, 0, 67, 102
2, 32254, Note_on_c, 0, 71, 0
2, 32256, Note_on_c, 0, 76, 102
2, 32350, Note_on_c, 0, 67, 0
2, 32352, Note_on_c, 0, 67, 102
2, 32396, Note_on_c, 0, 76, 0
2, 32447, Note_on_c, 0, 67, 0
2, 32447, Note_on_c, 0, 38, 0
2, 32448, Note_on_c, 0, 66, 102
2, 32540, Note_on_c, 0, 50, 0
2, 32543, Note_on_c, 0, 66, 0
2, 32544, Note_on_c, 0, 62, 102
2, 32544, Note_on_c, 0, 54, 102
2, 32639, Note_on_c, 0, 54, 0
2, 32639, Note_on_c, 0, 62, 0
2, 32640, Note_on_c, 0, 67, 102
2, 32640, Note_on_c, 0, 52, 102
2, 32735, Note_on_c, 0, 52, 0
2, 32735, Note_on_c, 0, 67, 0
2, 32736, Note_on_c, 0, 62, 102
2, 32736, Note_on_c, 0, 55, 102
2, 32831, Note_on_c, 0, 55, 0
2, 32831, Note_on_c, 0, 62, 0
2, 32832, Note_on_c, 0, 69, 102
2, 32832, Note_on_c, 0, 54, 102
2, 32927, Note_on_c, 0, 54, 0
2, 32927, Note_on_c, 0, 69, 0
2, 32928, Note_on_c, 0, 62, 102
2, 32928, Note_on_c, 0, 57, 102
2, 33023, Note_on_c, 0, 57, 0
2, 33023, Note_on_c, 0, 62, 0
2, 33024, Note_on_c, 0, 72, 102
2, 33024, Note_on_c, 0, 50, 102
2, 33119, Note_on_c, 0, 50, 0
2, 33119, Note_on_c, 0, 72, 0
2, 33120, Note_on_c, 0, 69, 102
2, 33120, Note_on_c, 0, 54, 102
2, 33215, Note_on_c, 0, 54, 0
2, 33215, Note_on_c, 0, 69, 0
2, 33216, Note_on_c, 0, 70, 102
2, 33216, Note_on_c, 0, 55, 102
2, 33312, Note_on_c, 0, 62, 102
2, 33406, Note_on_c, 0, 70, 0
2, 33407, Note_on_c, 0, 62, 0
2, 33407, Note_on_c, 0, 55, 0
2, 33408, Note_on_c, 0, 67, 102
2, 33408, Note_on_c, 0, 53, 102
2, 33503, Note_on_c, 0, 67, 0
2, 33504, Note_on_c, 0, 69, 102
2, 33599, Note_on_c, 0, 69, 0
2, 33599, Note_on_c, 0, 53, 0
2, 33600, Note_on_c, 0, 70, 102
2, 33600, Note_on_c, 0, 51, 102
2, 33695, Note_on_c, 0, 70, 0
2, 33696, Note_on_c, 0, 67, 102
2, 33791, Note_on_c, 0, 67, 0
2, 33791, Note_on_c, 0, 51, 0
2, 33792, Note_on_c, 0, 71, 102
2, 33792, Note_on_c, 0, 50, 102
2, 33887, Note_on_c, 0, 71, 0
2, 33888, Note_on_c, 0, 67, 102
2, 33983, Note_on_c, 0, 67, 0
2, 33983, Note_on_c, 0, 50, 0
2, 33984, Note_on_c, 0, 72, 102
2, 33984, Note_on_c, 0, 51, 102
2, 34080, Note_on_c, 0, 67, 102
2, 34124, Note_on_c, 0, 72, 0
2, 34175, Note_on_c, 0, 67, 0
2, 34175, Note_on_c, 0, 51, 0
2, 34176, Note_on_c, 0, 75, 102
2, 34176, Note_on_c, 0, 48, 102
2, 34271, Note_on_c, 0, 75, 0
2, 34272, Note_on_c, 0, 74, 102
2, 34367, Note_on_c, 0, 74, 0
2, 34367, Note_on_c, 0, 48, 0
2, 34368, Note_on_c, 0, 73, 102
2, 34368, Note_on_c, 0, 45, 102
2, 34464, Note_on_c, 0, 67, 102
2, 34559, Note_on_c, 0, 67, 0
2, 34559, Note_on_c, 0, 45, 0
2, 34560, Note_on_c, 0, 66, 102
2, 34560, Note_on_c, 0, 50, 102
2, 34608, Note_on_c, 0, 73, 0
2, 34655, Note_on_c, 0, 66, 0
2, 34656, Note_on_c, 0, 72, 102
2, 34751, Note_on_c, 0, 72, 0
2, 34751, Note_on_c, 0, 50, 0
2, 34752, Note_on_c, 0, 71, 102
2, 34752, Note_on_c, 0, 55, 102
2, 34848, Note_on_c, 0, 65, 102
2, 34943, Note_on_c, 0, 65, 0
2, 34943, Note_on_c, 0, 55, 0
2, 34944, Note_on_c, 0, 64, 102
2, 34944, Note_on_c, 0, 48, 102
2, 35032, Note_on_c, 0, 71, 0
2, 35040, Note_on_c, 0, 69, 102
2, 35040, Note_on_c, 0, 60, 102
2, 35134, Note_on_c, 0, 48, 0
2, 35134, Note_on_c, 0, 64, 0
2, 35135, Note_on_c, 0, 60, 0
2, 35136, Note_on_c, 0, 62, 102
2, 35136, Note_on_c, 0, 59, 102
2, 35136, Note_on_c, 0, 50, 102
2, 35230, Note_on_c, 0, 69, 0
2, 35232, Note_on_c, 0, 67, 102
2, 35326, Note_on_c, 0, 62, 0
2, 35327, Note_on_c, 0, 59, 0
2, 35328, Note_on_c, 0, 60, 102
2, 35328, Note_on_c, 0, 57, 102
2, 35422, Note_on_c, 0, 67, 0
2, 35424, Note_on_c, 0, 66, 102
2, 35516, Note_on_c, 0, 50, 0
2, 35518, Note_on_c, 0, 60, 0
2, 35519, Note_on_c, 0, 57, 0
2, 35519, Note_on_c, 0, 66, 0
2, 35520, Note_on_c, 0, 67, 102
2, 35520, Note_on_c, 0, 55, 102
2, 35616, Note_on_c, 0, 60, 102
2, 35711, Note_on_c, 0, 60, 0
2, 35712, Note_on_c, 0, 62, 102
2, 35808, Note_on_c, 0, 57, 102
2, 35903, Note_on_c, 0, 57, 0
2, 35904, Note_on_c, 0, 59, 102
2, 35999, Note_on_c, 0, 55, 0
2, 36000, Note_on_c, 0, 54, 102
2, 36095, Note_on_c, 0, 54, 0
2, 36096, Note_on_c, 0, 55, 102
2, 36192, Note_on_c, 0, 50, 102
2, 36287, Note_on_c, 0, 50, 0
2, 36288, Note_on_c, 0, 43, 102
2, 36572, Note_on_c, 0, 62, 0
2, 36575, Note_on_c, 0, 59, 0
2, 36576, Note_on_c, 0, 55, 0
2, 36668, Note_on_c, 0, 43, 0
2, 36670, Note_on_c, 0, 67, 0
2, 36864, Note_on_c, 0, 79, 102
2, 36944, Note_on_c, 0, 79, 0
2, 36960, Note_on_c, 0, 55, 102
2, 36960, Note_on_c, 0, 79, 102
2, 36960, Note_on_c, 0, 74, 102
2, 36960, Note_on_c, 0, 71, 102
2, 37142, Note_on_c, 0, 74, 0
2, 37142, Note_on_c, 0, 79, 0
2, 37152, Note_on_c, 0, 78, 102
2, 37240, Note_on_c, 0, 71, 0
2, 37247, Note_on_c, 0, 78, 0
2, 37248, Note_on_c, 0, 76, 102
2, 37340, Note_on_c, 0, 55, 0
2, 37343, Note_on_c, 0, 76, 0
2, 37344, Note_on_c, 0, 74, 102
2, 37439, Note_on_c, 0, 74, 0
2, 37440, Note_on_c, 0, 72, 102
2, 37535, Note_on_c, 0, 72, 0
2, 37536, Note_on_c, 0, 62, 102
2, 37536, Note_on_c, 0, 71, 102
2, 37631, Note_on_c, 0, 71, 0
2, 37632, Note_on_c, 0, 69, 102
2, 37718, Note_on_c, 0, 62, 0
2, 37727, Note_on_c, 0, 69, 0
2, 37728, Note_on_c, 0, 67, 102
2, 37728, Note_on_c, 0, 71, 102
2, 37823, Note_on_c, 0, 71, 0
2, 37824, Note_on_c, 0, 74, 102
2, 37910, Note_on_c, 0, 67, 0
2, 37919, Note_on_c, 0, 74, 0
2, 37920, Note_on_c, 0, 66, 102
2, 37920, Note_on_c, 0, 69, 102
2, 38015, Note_on_c, 0, 69, 0
2, 38016, Note_on_c, 0, 72, 102
2, 38102, Note_on_c, 0, 66, 0
2, 38111, Note_on_c, 0, 72, 0
2, 38112, Note_on_c, 0, 67, 102
2, 38112, Note_on_c, 0, 71, 102
2, 38294, Note_on_c, 0, 71, 0
2, 38294, Note_on_c, 0, 67, 0
2, 38304, Note_on_c, 0, 66, 102
2, 38304, Note_on_c, 0, 67, 102
2, 38399, Note_on_c, 0, 66, 0
2, 38400, Note_on_c, 0, 64, 102
2, 38486, Note_on_c, 0, 67, 0
2, 38495, Note_on_c, 0, 64, 0
2, 38496, Note_on_c, 0, 62, 102
2, 38496, Note_on_c, 0, 71, 102
2, 38591, Note_on_c, 0, 62, 0
2, 38592, Note_on_c, 0, 60, 102
2, 38678, Note_on_c, 0, 71, 0
2, 38687, Note_on_c, 0, 60, 0
2, 38688, Note_on_c, 0, 59, 102
2, 38688, Note_on_c, 0, 74, 102
2, 38783, Note_on_c, 0, 59, 0
2, 38784, Note_on_c, 0, 57, 102
2, 38870, Note_on_c, 0, 74, 0
2, 38879, Note_on_c, 0, 57, 0
2, 38880, Note_on_c, 0, 59, 102
2, 38880, Note_on_c, 0, 79, 102
2, 38975, Note_on_c, 0, 59, 0
2, 38976, Note_on_c, 0, 62, 102
2, 39062, Note_on_c, 0, 79, 0
2, 39071, Note_on_c, 0, 62, 0
2, 39072, Note_on_c, 0, 57, 102
2, 39072, Note_on_c, 0, 78, 102
2, 39167, Note_on_c, 0, 57, 0
2, 39168, Note_on_c, 0, 60, 102
2, 39254, Note_on_c, 0, 78, 0
2, 39263, Note_on_c, 0, 60, 0
2, 39264, Note_on_c, 0, 59, 102
2, 39264, Note_on_c, 0, 79, 102
2, 39359, Note_on_c, 0, 79, 0
2, 39360, Note_on_c, 0, 81, 102
2, 39446, Note_on_c, 0, 59, 0
2, 39455, Note_on_c, 0, 81, 0
2, 39456, Note_on_c, 0, 55, 102
2, 39456, Note_on_c, 0, 83, 102
2, 39551, Note_on_c, 0, 83, 0
2, 39552, Note_on_c, 0, 79, 102
2, 39638, Note_on_c, 0, 55, 0
2, 39647, Note_on_c, 0, 79, 0
2, 39648, Note_on_c, 0, 59, 102
2, 39648, Note_on_c, 0, 74, 102
2, 39743, Note_on_c, 0, 74, 0
2, 39744, Note_on_c, 0, 77, 102
2, 39830, Note_on_c, 0, 59, 0
2, 39839, Note_on_c, 0, 77, 0
2, 39840, Note_on_c, 0, 55, 102
2, 39840, Note_on_c, 0, 76, 102
2, 39935, Note_on_c, 0, 76, 0
2, 39936, Note_on_c, 0, 74, 102
2, 40022, Note_on_c, 0, 55, 0
2, 40031, Note_on_c, 0, 74, 0
2, 40032, Note_on_c, 0, 60, 102
2, 40032, Note_on_c, 0, 76, 102
2, 40127, Note_on_c, 0, 76, 0
2, 40128, Note_on_c, 0, 81, 102
2, 40214, Note_on_c, 0, 60, 0
2, 40223, Note_on_c, 0, 81, 0
2, 40224, Note_on_c, 0, 57, 102
2, 40224, Note_on_c, 0, 83, 102
2, 40319, Note_on_c, 0, 83, 0
2, 40320, Note_on_c, 0, 84, 102
2, 40406, Note_on_c, 0, 57, 0
2, 40415, Note_on_c, 0, 84, 0
2, 40416, Note_on_c, 0, 62, 102
2, 40416, Note_on_c, 0, 78, 102
2, 40598, Note_on_c, 0, 78, 0
2, 40598, Note_on_c, 0, 62, 0
2, 40608, Note_on_c, 0, 60, 102
2, 40608, Note_on_c, 0, 74, 102
2, 40703, Note_on_c, 0, 60, 0
2, 40704, Note_on_c, 0, 59, 102
2, 40798, Note_on_c, 0, 74, 0
2, 40799, Note_on_c, 0, 59, 0
2, 40800, Note_on_c, 0, 57, 102
2, 40895, Note_on_c, 0, 57, 0
2, 40896, Note_on_c, 0, 55, 102
2, 40896, Note_on_c, 0, 76, 102
2, 40991, Note_on_c, 0, 76, 0
2, 40991, Note_on_c, 0, 55, 0
2, 40992, Note_on_c, 0, 54, 102
2, 40992, Note_on_c, 0, 74, 102
2, 41087, Note_on_c, 0, 74, 0
2, 41087, Note_on_c, 0, 54, 0
2, 41088, Note_on_c, 0, 52, 102
2, 41088, Note_on_c, 0, 72, 102
2, 41183, Note_on_c, 0, 72, 0
2, 41183, Note_on_c, 0, 52, 0
2, 41184, Note_on_c, 0, 50, 102
2, 41184, Note_on_c, 0, 71, 102
2, 41279, Note_on_c, 0, 50, 0
2, 41280, Note_on_c, 0, 54, 102
2, 41280, Note_on_c, 0, 74, 102
2, 41324, Note_on_c, 0, 71, 0
2, 41375, Note_on_c, 0, 74, 0
2, 41375, Note_on_c, 0, 54, 0
2, 41376, Note_on_c, 0, 48, 102
2, 41376, Note_on_c, 0, 69, 102
2, 41471, Note_on_c, 0, 48, 0
2, 41472, Note_on_c, 0, 54, 102
2, 41472, Note_on_c, 0, 74, 102
2, 41516, Note_on_c, 0, 69, 0
2, 41567, Note_on_c, 0, 74, 0
2, 41567, Note_on_c, 0, 54, 0
2, 41568, Note_on_c, 0, 47, 102
2, 41568, Note_on_c, 0, 67, 102
2, 41664, Note_on_c, 0, 74, 102
2, 41708, Note_on_c, 0, 67, 0
2, 41750, Note_on_c, 0, 47, 0
2, 41759, Note_on_c, 0, 74, 0
2, 41760, Note_on_c, 0, 45, 102
2, 41760, Note_on_c, 0, 66, 102
2, 41856, Note_on_c, 0, 74, 102
2, 41900, Note_on_c, 0, 66, 0
2, 41942, Note_on_c, 0, 45, 0
2, 41951, Note_on_c, 0, 74, 0
2, 41952, Note_on_c, 0, 47, 102
2, 41952, Note_on_c, 0, 67, 102
2, 42047, Note_on_c, 0, 67, 0
2, 42048, Note_on_c, 0, 74, 102
2, 42134, Note_on_c, 0, 47, 0
2, 42143, Note_on_c, 0, 74, 0
2, 42144, Note_on_c, 0, 43, 102
2, 42144, Note_on_c, 0, 72, 102
2, 42239, Note_on_c, 0, 72, 0
2, 42240, Note_on_c, 0, 71, 102
2, 42326, Note_on_c, 0, 43, 0
2, 42335, Note_on_c, 0, 71, 0
2, 42336, Note_on_c, 0, 45, 102
2, 42336, Note_on_c, 0, 69, 102
2, 42431, Note_on_c, 0, 69, 0
2, 42432, Note_on_c, 0, 67, 102
2, 42518, Note_on_c, 0, 45, 0
2, 42527, Note_on_c, 0, 67, 0
2, 42528, Note_on_c, 0, 47, 102
2, 42528, Note_on_c, 0, 65, 102
2, 42624, Note_on_c, 0, 74, 102
2, 42668, Note_on_c, 0, 65, 0
2, 42710, Note_on_c, 0, 47, 0
2, 42719, Note_on_c, 0, 74, 0
2, 42720, Note_on_c, 0, 48, 102
2, 42720, Note_on_c, 0, 64, 102
2, 42816, Note_on_c, 0, 74, 102
2, 42860, Note_on_c, 0, 64, 0
2, 42902, Note_on_c, 0, 48, 0
2, 42911, Note_on_c, 0, 74, 0
2, 42912, Note_on_c, 0, 47, 102
2, 42912, Note_on_c, 0, 62, 102
2, 43008, Note_on_c, 0, 74, 102
2, 43052, Note_on_c, 0, 62, 0
2, 43094, Note_on_c, 0, 47, 0
2, 43103, Note_on_c, 0, 74, 0
2, 43104, Note_on_c, 0, 48, 102
2, 43104, Note_on_c, 0, 64, 102
2, 43199, Note_on_c, 0, 64, 0
2, 43200, Note_on_c, 0, 74, 102
2, 43286, Note_on_c, 0, 48, 0
2, 43295, Note_on_c, 0, 74, 0
2, 43296, Note_on_c, 0, 45, 102
2, 43296, Note_on_c, 0, 72, 102
2, 43391, Note_on_c, 0, 72, 0
2, 43392, Note_on_c, 0, 71, 102
2, 43478, Note_on_c, 0, 45, 0
2, 43487, Note_on_c, 0, 71, 0
2, 43488, Note_on_c, 0, 47, 102
2, 43488, Note_on_c, 0, 69, 102
2, 43583, Note_on_c, 0, 69, 0
2, 43584, Note_on_c, 0, 67, 102
2, 43670, Note_on_c, 0, 47, 0
2, 43679, Note_on_c, 0, 67, 0
2, 43680, Note_on_c, 0, 48, 102
2, 43680, Note_on_c, 0, 69, 102
2, 43775, Note_on_c, 0, 69, 0
2, 43776, Note_on_c, 0, 72, 102
2, 43862, Note_on_c, 0, 48, 0
2, 43871, Note_on_c, 0, 72, 0
2, 43872, Note_on_c, 0, 50, 102
2, 43872, Note_on_c, 0, 66, 102
2, 43967, Note_on_c, 0, 66, 0
2, 43968, Note_on_c, 0, 64, 102
2, 44054, Note_on_c, 0, 50, 0
2, 44063, Note_on_c, 0, 64, 0
2, 44064, Note_on_c, 0, 48, 102
2, 44064, Note_on_c, 0, 62, 102
2, 44159, Note_on_c, 0, 62, 0
2, 44159, Note_on_c, 0, 48, 0
2, 44160, Note_on_c, 0, 47, 102
2, 44160, Note_on_c, 0, 64, 102
2, 44255, Note_on_c, 0, 64, 0
2, 44255, Note_on_c, 0, 47, 0
2, 44256, Note_on_c, 0, 45, 102
2, 44256, Note_on_c, 0, 66, 102
2, 44351, Note_on_c, 0, 66, 0
2, 44351, Note_on_c, 0, 45, 0
2, 44352, Note_on_c, 0, 43, 102
2, 44352, Note_on_c, 0, 67, 102
2, 44447, Note_on_c, 0, 67, 0
2, 44447, Note_on_c, 0, 43, 0
2, 44448, Note_on_c, 0, 42, 102
2, 44448, Note_on_c, 0, 69, 102
2, 44543, Note_on_c, 0, 69, 0
2, 44543, Note_on_c, 0, 42, 0
2, 44544, Note_on_c, 0, 40, 102
2, 44544, Note_on_c, 0, 71, 102
2, 44639, Note_on_c, 0, 71, 0
2, 44639, Note_on_c, 0, 40, 0
2, 44640, Note_on_c, 0, 38, 102
2, 44640, Note_on_c, 0, 72, 102
2, 44735, Note_on_c, 0, 72, 0
2, 44735, Note_on_c, 0, 38, 0
2, 44736, Note_on_c, 0, 42, 102
2, 44736, Note_on_c, 0, 69, 102
2, 44831, Note_on_c, 0, 69, 0
2, 44831, Note_on_c, 0, 42, 0
2, 44832, Note_on_c, 0, 45, 102
2, 44832, Note_on_c, 0, 74, 102
2, 44927, Note_on_c, 0, 74, 0
2, 44927, Note_on_c, 0, 45, 0
2, 44928, Note_on_c, 0, 50, 102
2, 44928, Note_on_c, 0, 69, 102
2, 45023, Note_on_c, 0, 69, 0
2, 45023, Note_on_c, 0, 50, 0
2, 45024, Note_on_c, 0, 43, 102
2, 45024, Note_on_c, 0, 71, 102
2, 45120, Note_on_c, 0, 67, 102
2, 45215, Note_on_c, 0, 67, 0
2, 45216, Note_on_c, 0, 66, 102
2, 45311, Note_on_c, 0, 66, 0
2, 45312, Note_on_c, 0, 64, 102
2, 45407, Note_on_c, 0, 64, 0
2, 45408, Note_on_c, 0, 62, 102
2, 45503, Note_on_c, 0, 62, 0
2, 45504, Note_on_c, 0, 60, 102
2, 45599, Note_on_c, 0, 60, 0
2, 45600, Note_on_c, 0, 59, 102
2, 45695, Note_on_c, 0, 59, 0
2, 45696, Note_on_c, 0, 57, 102
2, 45791, Note_on_c, 0, 57, 0
2, 45791, Note_on_c, 0, 71, 0
2, 45791, Note_on_c, 0, 43, 0
2, 45792, Note_on_c, 0, 55, 102
2, 45887, Note_on_c, 0, 55, 0
2, 45888, Note_on_c, 0, 59, 102
2, 45983, Note_on_c, 0, 59, 0
2, 45984, Note_on_c, 0, 54, 102
2, 45984, Note_on_c, 0, 71, 102
2, 46079, Note_on_c, 0, 54, 0
2, 46080, Note_on_c, 0, 57, 102
2, 46163, Note_on_c, 0, 71, 0
2, 46175, Note_on_c, 0, 57, 0
2, 46176, Note_on_c, 0, 55, 102
2, 46176, Note_on_c, 0, 76, 102
2, 46271, Note_on_c, 0, 76, 0
2, 46272, Note_on_c, 0, 78, 102
2, 46358, Note_on_c, 0, 55, 0
2, 46367, Note_on_c, 0, 78, 0
2, 46368, Note_on_c, 0, 52, 102
2, 46368, Note_on_c, 0, 79, 102
2, 46463, Note_on_c, 0, 79, 0
2, 46464, Note_on_c, 0, 76, 102
2, 46550, Note_on_c, 0, 52, 0
2, 46559, Note_on_c, 0, 76, 0
2, 46560, Note_on_c, 0, 55, 102
2, 46560, Note_on_c, 0, 71, 102
2, 46656, Note_on_c, 0, 76, 102
2, 46680, Note_on_c, 0, 71, 0
2, 46742, Note_on_c, 0, 55, 0
2, 46751, Note_on_c, 0, 76, 0
2, 46752, Note_on_c, 0, 52, 102
2, 46752, Note_on_c, 0, 78, 102
2, 46847, Note_on_c, 0, 78, 0
2, 46848, Note_on_c, 0, 79, 102
2, 46934, Note_on_c, 0, 52, 0
2, 46943, Note_on_c, 0, 79, 0
2, 46944, Note_on_c, 0, 59, 102
2, 46944, Note_on_c, 0, 75, 102
2, 47040, Note_on_c, 0, 81, 102
2, 47064, Note_on_c, 0, 75, 0
2, 47126, Note_on_c, 0, 59, 0
2, 47135, Note_on_c, 0, 81, 0
2, 47136, Note_on_c, 0, 47, 102
2, 47136, Note_on_c, 0, 79, 102
2, 47231, Note_on_c, 0, 79, 0
2, 47232, Note_on_c, 0, 78, 102
2, 47318, Note_on_c, 0, 47, 0
2, 47327, Note_on_c, 0, 78, 0
2, 47328, Note_on_c, 0, 52, 102
2, 47328, Note_on_c, 0, 79, 102
2, 47423, Note_on_c, 0, 52, 0
2, 47424, Note_on_c, 0, 54, 102
2, 47510, Note_on_c, 0, 79, 0
2, 47519, Note_on_c, 0, 54, 0
2, 47520, Note_on_c, 0, 55, 102
2, 47520, Note_on_c, 0, 76, 102
2, 47615, Note_on_c, 0, 55, 0
2, 47616, Note_on_c, 0, 52, 102
2, 47702, Note_on_c, 0, 76, 0
2, 47711, Note_on_c, 0, 52, 0
2, 47712, Note_on_c, 0, 49, 102
2, 47712, Note_on_c, 0, 79, 102
2, 47807, Note_on_c, 0, 49, 0
2, 47808, Note_on_c, 0, 55, 102
2, 47894, Note_on_c, 0, 79, 0
2, 47903, Note_on_c, 0, 55, 0
2, 47904, Note_on_c, 0, 47, 102
2, 47904, Note_on_c, 0, 74, 102
2, 47999, Note_on_c, 0, 47, 0
2, 48000, Note_on_c, 0, 55, 102
2, 48086, Note_on_c, 0, 74, 0
2, 48095, Note_on_c, 0, 55, 0
2, 48096, Note_on_c, 0, 45, 102
2, 48096, Note_on_c, 0, 73, 102
2, 48191, Note_on_c, 0, 45, 0
2, 48192, Note_on_c, 0, 55, 102
2, 48278, Note_on_c, 0, 73, 0
2, 48287, Note_on_c, 0, 55, 0
2, 48288, Note_on_c, 0, 54, 102
2, 48288, Note_on_c, 0, 81, 102
2, 48383, Note_on_c, 0, 54, 0
2, 48384, Note_on_c, 0, 52, 102
2, 48470, Note_on_c, 0, 81, 0
2, 48479, Note_on_c, 0, 52, 0
2, 48480, Note_on_c, 0, 54, 102
2, 48480, Note_on_c, 0, 74, 102
2, 48575, Note_on_c, 0, 74, 0
2, 48576, Note_on_c, 0, 76, 102
2, 48662, Note_on_c, 0, 54, 0
2, 48671, Note_on_c, 0, 76, 0
2, 48672, Note_on_c, 0, 50, 102
2, 48672, Note_on_c, 0, 78, 102
2, 48767, Note_on_c, 0, 78, 0
2, 48768, Note_on_c, 0, 74, 102
2, 48854, Note_on_c, 0, 50, 0
2, 48863, Note_on_c, 0, 74, 0
2, 48864, Note_on_c, 0, 54, 102
2, 48864, Note_on_c, 0, 69, 102
2, 48959, Note_on_c, 0, 69, 0
2, 48960, Note_on_c, 0, 72, 102
2, 49046, Note_on_c, 0, 54, 0
2, 49055, Note_on_c, 0, 72, 0
2, 49056, Note_on_c, 0, 50, 102
2, 49056, Note_on_c, 0, 71, 102
2, 49151, Note_on_c, 0, 71, 0
2, 49152, Note_on_c, 0, 69, 102
2, 49238, Note_on_c, 0, 50, 0
2, 49247, Note_on_c, 0, 69, 0
2, 49248, Note_on_c, 0, 55, 102
2, 49248, Note_on_c, 0, 71, 102
2, 49343, Note_on_c, 0, 71, 0
2, 49344, Note_on_c, 0, 76, 102
2, 49430, Note_on_c, 0, 55, 0
2, 49439, Note_on_c, 0, 76, 0
2, 49440, Note_on_c, 0, 52, 102
2, 49440, Note_on_c, 0, 78, 102
2, 49535, Note_on_c, 0, 78, 0
2, 49536, Note_on_c, 0, 79, 102
2, 49622, Note_on_c, 0, 52, 0
2, 49631, Note_on_c, 0, 79, 0
2, 49632, Note_on_c, 0, 57, 102
2, 49632, Note_on_c, 0, 73, 102
2, 49814, Note_on_c, 0, 73, 0
2, 49814, Note_on_c, 0, 57, 0
2, 49824, Note_on_c, 0, 55, 102
2, 49824, Note_on_c, 0, 69, 102
2, 49919, Note_on_c, 0, 55, 0
2, 49920, Note_on_c, 0, 54, 102
2, 50014, Note_on_c, 0, 69, 0
2, 50015, Note_on_c, 0, 54, 0
2, 50016, Note_on_c, 0, 52, 102
2, 50111, Note_on_c, 0, 52, 0
2, 50112, Note_on_c, 0, 50, 102
2, 50207, Note_on_c, 0, 50, 0
2, 50208, Note_on_c, 0, 49, 102
2, 50208, Note_on_c, 0, 69, 102
2, 50303, Note_on_c, 0, 69, 0
2, 50303, Note_on_c, 0, 49, 0
2, 50304, Note_on_c, 0, 47, 102
2, 50304, Note_on_c, 0, 71, 102
2, 50399, Note_on_c, 0, 71, 0
2, 50399, Note_on_c, 0, 47, 0
2, 50400, Note_on_c, 0, 45, 102
2, 50400, Note_on_c, 0, 73, 102
2, 50495, Note_on_c, 0, 73, 0
2, 50495, Note_on_c, 0, 45, 0
2, 50496, Note_on_c, 0, 52, 102
2, 50496, Note_on_c, 0, 74, 102
2, 50591, Note_on_c, 0, 74, 0
2, 50591, Note_on_c, 0, 52, 0
2, 50592, Note_on_c, 0, 43, 102
2, 50592, Note_on_c, 0, 76, 102
2, 50687, Note_on_c, 0, 76, 0
2, 50687, Note_on_c, 0, 43, 0
2, 50688, Note_on_c, 0, 52, 102
2, 50688, Note_on_c, 0, 73, 102
2, 50783, Note_on_c, 0, 73, 0
2, 50783, Note_on_c, 0, 52, 0
2, 50784, Note_on_c, 0, 42, 102
2, 50784, Note_on_c, 0, 74, 102
2, 50879, Note_on_c, 0, 74, 0
2, 50880, Note_on_c, 0, 76, 102
2, 50966, Note_on_c, 0, 42, 0
2, 50975, Note_on_c, 0, 76, 0
2, 50976, Note_on_c, 0, 40, 102
2, 50976, Note_on_c, 0, 69, 102
2, 51071, Note_on_c, 0, 69, 0
2, 51072, Note_on_c, 0, 73, 102
2, 51158, Note_on_c, 0, 40, 0
2, 51167, Note_on_c, 0, 73, 0
2, 51168, Note_on_c, 0, 42, 102
2, 51168, Note_on_c, 0, 74, 102
2, 51263, Note_on_c, 0, 74, 0
2, 51264, Note_on_c, 0, 76, 102
2, 51350, Note_on_c, 0, 42, 0
2, 51359, Note_on_c, 0, 76, 0
2, 51360, Note_on_c, 0, 45, 102
2, 51360, Note_on_c, 0, 69, 102
2, 51456, Note_on_c, 0, 74, 102
2, 51500, Note_on_c, 0, 69, 0
2, 51542, Note_on_c, 0, 45, 0
2, 51551, Note_on_c, 0, 74, 0
2, 51552, Note_on_c, 0, 50, 102
2, 51552, Note_on_c, 0, 66, 102
2, 51648, Note_on_c, 0, 74, 102
2, 51692, Note_on_c, 0, 66, 0
2, 51734, Note_on_c, 0, 50, 0
2, 51743, Note_on_c, 0, 74, 0
2, 51744, Note_on_c, 0, 42, 102
2, 51744, Note_on_c, 0, 69, 102
2, 51840, Note_on_c, 0, 76, 102
2, 51884, Note_on_c, 0, 69, 0
2, 51926, Note_on_c, 0, 42, 0
2, 51935, Note_on_c, 0, 76, 0
2, 51936, Note_on_c, 0, 43, 102
2, 51936, Note_on_c, 0, 74, 102
2, 52031, Note_on_c, 0, 74, 0
2, 52032, Note_on_c, 0, 76, 102
2, 52118, Note_on_c, 0, 43, 0
2, 52127, Note_on_c, 0, 76, 0
2, 52128, Note_on_c, 0, 45, 102
2, 52128, Note_on_c, 0, 71, 102
2, 52223, Note_on_c, 0, 71, 0
2, 52224, Note_on_c, 0, 73, 102
2, 52310, Note_on_c, 0, 45, 0
2, 52319, Note_on_c, 0, 73, 0
2, 52320, Note_on_c, 0, 47, 102
2, 52320, Note_on_c, 0, 74, 102
2, 52415, Note_on_c, 0, 74, 0
2, 52416, Note_on_c, 0, 76, 102
2, 52502, Note_on_c, 0, 47, 0
2, 52511, Note_on_c, 0, 76, 0
2, 52512, Note_on_c, 0, 43, 102
2, 52512, Note_on_c, 0, 71, 102
2, 52608, Note_on_c, 0, 74, 102
2, 52652, Note_on_c, 0, 71, 0
2, 52694, Note_on_c, 0, 43, 0
2, 52703, Note_on_c, 0, 74, 0
2, 52704, Note_on_c, 0, 40, 102
2, 52704, Note_on_c, 0, 67, 102
2, 52800, Note_on_c, 0, 74, 102
2, 52844, Note_on_c, 0, 67, 0
2, 52886, Note_on_c, 0, 40, 0
2, 52895, Note_on_c, 0, 74, 0
2, 52896, Note_on_c, 0, 43, 102
2, 52896, Note_on_c, 0, 71, 102
2, 52992, Note_on_c, 0, 74, 102
2, 53036, Note_on_c, 0, 71, 0
2, 53078, Note_on_c, 0, 43, 0
2, 53087, Note_on_c, 0, 74, 0
2, 53088, Note_on_c, 0, 45, 102
2, 53088, Note_on_c, 0, 73, 102
2, 53183, Note_on_c, 0, 73, 0
2, 53184, Note_on_c, 0, 74, 102
2, 53270, Note_on_c, 0, 45, 0
2, 53279, Note_on_c, 0, 74, 0
2, 53280, Note_on_c, 0, 47, 102
2, 53280, Note_on_c, 0, 76, 102
2, 53375, Note_on_c, 0, 76, 0
2, 53376, Note_on_c, 0, 73, 102
2, 53462, Note_on_c, 0, 47, 0
2, 53471, Note_on_c, 0, 73, 0
2, 53472, Note_on_c, 0, 49, 102
2, 53472, Note_on_c, 0, 67, 102
2, 53567, Note_on_c, 0, 67, 0
2, 53568, Note_on_c, 0, 71, 102
2, 53654, Note_on_c, 0, 49, 0
2, 53663, Note_on_c, 0, 71, 0
2, 53664, Note_on_c, 0, 50, 102
2, 53664, Note_on_c, 0, 69, 102
2, 53759, Note_on_c, 0, 69, 0
2, 53760, Note_on_c, 0, 67, 102
2, 53846, Note_on_c, 0, 50, 0
2, 53855, Note_on_c, 0, 67, 0
2, 53856, Note_on_c, 0, 45, 102
2, 53856, Note_on_c, 0, 66, 102
2, 53952, Note_on_c, 0, 74, 102
2, 53976, Note_on_c, 0, 66, 0
2, 54038, Note_on_c, 0, 45, 0
2, 54048, Note_on_c, 0, 55, 102
2, 54048, Note_on_c, 0, 64, 102
2, 54072, Note_on_c, 0, 74, 0
2, 54144, Note_on_c, 0, 73, 102
2, 54168, Note_on_c, 0, 64, 0
2, 54230, Note_on_c, 0, 55, 0
2, 54239, Note_on_c, 0, 73, 0
2, 54240, Note_on_c, 0, 54, 102
2, 54240, Note_on_c, 0, 74, 102
2, 54422, Note_on_c, 0, 74, 0
2, 54432, Note_on_c, 0, 50, 102
2, 54432, Note_on_c, 0, 73, 102
2, 54527, Note_on_c, 0, 73, 0
2, 54528, Note_on_c, 0, 71, 102
2, 54620, Note_on_c, 0, 54, 0
2, 54623, Note_on_c, 0, 71, 0
2, 54624, Note_on_c, 0, 54, 102
2, 54624, Note_on_c, 0, 69, 102
2, 54719, Note_on_c, 0, 69, 0
2, 54720, Note_on_c, 0, 67, 102
2, 54806, Note_on_c, 0, 54, 0
2, 54815, Note_on_c, 0, 67, 0
2, 54816, Note_on_c, 0, 57, 102
2, 54816, Note_on_c, 0, 66, 102
2, 54911, Note_on_c, 0, 66, 0
2, 54912, Note_on_c, 0, 64, 102
2, 55006, Note_on_c, 0, 57, 0
2, 55007, Note_on_c, 0, 64, 0
2, 55008, Note_on_c, 0, 62, 102
2, 55295, Note_on_c, 0, 62, 0
2, 55296, Note_on_c, 0, 78, 102
2, 55391, Note_on_c, 0, 78, 0
2, 55392, Note_on_c, 0, 50, 0
2, 55392, Note_on_c, 0, 62, 102
2, 55392, Note_on_c, 0, 78, 102
2, 55392, Note_on_c, 0, 74, 102
2, 55392, Note_on_c, 0, 69, 102
2, 55574, Note_on_c, 0, 62, 0
2, 55584, Note_on_c, 0, 60, 102
2, 55679, Note_on_c, 0, 60, 0
2, 55680, Note_on_c, 0, 59, 102
2, 55775, Note_on_c, 0, 59, 0
2, 55776, Note_on_c, 0, 57, 102
2, 55871, Note_on_c, 0, 57, 0
2, 55872, Note_on_c, 0, 55, 102
2, 55967, Note_on_c, 0, 55, 0
2, 55967, Note_on_c, 0, 78, 0
2, 55967, Note_on_c, 0, 74, 0
2, 55967, Note_on_c, 0, 69, 0
2, 55968, Note_on_c, 0, 54, 102
2, 55968, Note_on_c, 0, 74, 102
2, 56063, Note_on_c, 0, 74, 0
2, 56063, Note_on_c, 0, 54, 0
2, 56064, Note_on_c, 0, 52, 102
2, 56064, Note_on_c, 0, 76, 102
2, 56159, Note_on_c, 0, 76, 0
2, 56159, Note_on_c, 0, 52, 0
2, 56160, Note_on_c, 0, 50, 102
2, 56160, Note_on_c, 0, 78, 102
2, 56255, Note_on_c, 0, 78, 0
2, 56255, Note_on_c, 0, 50, 0
2, 56256, Note_on_c, 0, 57, 102
2, 56256, Note_on_c, 0, 79, 102
2, 56351, Note_on_c, 0, 79, 0
2, 56351, Note_on_c, 0, 57, 0
2, 56352, Note_on_c, 0, 48, 102
2, 56352, Note_on_c, 0, 81, 102
2, 56447, Note_on_c, 0, 81, 0
2, 56447, Note_on_c, 0, 48, 0
2, 56448, Note_on_c, 0, 57, 102
2, 56448, Note_on_c, 0, 78, 102
2, 56543, Note_on_c, 0, 78, 0
2, 56543, Note_on_c, 0, 57, 0
2, 56544, Note_on_c, 0, 47, 102
2, 56544, Note_on_c, 0, 79, 102
2, 56726, Note_on_c, 0, 79, 0
2, 56726, Note_on_c, 0, 47, 0
2, 56736, Note_on_c, 0, 50, 102
2, 56736, Note_on_c, 0, 78, 102
2, 56831, Note_on_c, 0, 78, 0
2, 56832, Note_on_c, 0, 76, 102
2, 56918, Note_on_c, 0, 50, 0
2, 56927, Note_on_c, 0, 76, 0
2, 56928, Note_on_c, 0, 55, 102
2, 56928, Note_on_c, 0, 74, 102
2, 57023, Note_on_c, 0, 74, 0
2, 57024, Note_on_c, 0, 72, 102
2, 57110, Note_on_c, 0, 55, 0
2, 57119, Note_on_c, 0, 72, 0
2, 57120, Note_on_c, 0, 57, 102
2, 57120, Note_on_c, 0, 71, 102
2, 57215, Note_on_c, 0, 71, 0
2, 57216, Note_on_c, 0, 69, 102
2, 57302, Note_on_c, 0, 57, 0
2, 57311, Note_on_c, 0, 69, 0
2, 57312, Note_on_c, 0, 59, 102
2, 57312, Note_on_c, 0, 67, 102
2, 57407, Note_on_c, 0, 67, 0
2, 57408, Note_on_c, 0, 71, 102
2, 57494, Note_on_c, 0, 59, 0
2, 57503, Note_on_c, 0, 71, 0
2, 57504, Note_on_c, 0, 55, 102
2, 57504, Note_on_c, 0, 74, 102
2, 57599, Note_on_c, 0, 74, 0
2, 57600, Note_on_c, 0, 77, 102
2, 57686, Note_on_c, 0, 55, 0
2, 57695, Note_on_c, 0, 77, 0
2, 57696, Note_on_c, 0, 60, 102
2, 57696, Note_on_c, 0, 76, 102
2, 57791, Note_on_c, 0, 76, 0
2, 57792, Note_on_c, 0, 74, 102
2, 57878, Note_on_c, 0, 60, 0
2, 57887, Note_on_c, 0, 74, 0
2, 57888, Note_on_c, 0, 64, 102
2, 57888, Note_on_c, 0, 72, 102
2, 57983, Note_on_c, 0, 72, 0
2, 57984, Note_on_c, 0, 71, 102
2, 58070, Note_on_c, 0, 64, 0
2, 58079, Note_on_c, 0, 71, 0
2, 58080, Note_on_c, 0, 60, 102
2, 58080, Note_on_c, 0, 69, 102
2, 58175, Note_on_c, 0, 69, 0
2, 58176, Note_on_c, 0, 78, 102
2, 58262, Note_on_c, 0, 60, 0
2, 58271, Note_on_c, 0, 78, 0
2, 58272, Note_on_c, 0, 59, 102
2, 58272, Note_on_c, 0, 79, 102
2, 58367, Note_on_c, 0, 79, 0
2, 58368, Note_on_c, 0, 81, 102
2, 58454, Note_on_c, 0, 59, 0
2, 58463, Note_on_c, 0, 81, 0
2, 58464, Note_on_c, 0, 60, 102
2, 58464, Note_on_c, 0, 79, 102
2, 58559, Note_on_c, 0, 79, 0
2, 58560, Note_on_c, 0, 78, 102
2, 58646, Note_on_c, 0, 60, 0
2, 58655, Note_on_c, 0, 78, 0
2, 58656, Note_on_c, 0, 57, 102
2, 58656, Note_on_c, 0, 79, 102
2, 58751, Note_on_c, 0, 79, 0
2, 58752, Note_on_c, 0, 76, 102
2, 58838, Note_on_c, 0, 57, 0
2, 58847, Note_on_c, 0, 76, 0
2, 58848, Note_on_c, 0, 59, 102
2, 58848, Note_on_c, 0, 75, 102
2, 59030, Note_on_c, 0, 75, 0
2, 59030, Note_on_c, 0, 59, 0
2, 59040, Note_on_c, 0, 57, 102
2, 59040, Note_on_c, 0, 71, 102
2, 59135, Note_on_c, 0, 57, 0
2, 59136, Note_on_c, 0, 55, 102
2, 59230, Note_on_c, 0, 71, 0
2, 59231, Note_on_c, 0, 55, 0
2, 59232, Note_on_c, 0, 54, 102
2, 59327, Note_on_c, 0, 54, 0
2, 59328, Note_on_c, 0, 52, 102
2, 59423, Note_on_c, 0, 52, 0
2, 59424, Note_on_c, 0, 51, 102
2, 59424, Note_on_c, 0, 83, 102
2, 59519, Note_on_c, 0, 83, 0
2, 59519, Note_on_c, 0, 51, 0
2, 59520, Note_on_c, 0, 49, 102
2, 59520, Note_on_c, 0, 81, 102
2, 59615, Note_on_c, 0, 81, 0
2, 59615, Note_on_c, 0, 49, 0
2, 59616, Note_on_c, 0, 47, 102
2, 59616, Note_on_c, 0, 79, 102
2, 59711, Note_on_c, 0, 79, 0
2, 59711, Note_on_c, 0, 47, 0
2, 59712, Note_on_c, 0, 54, 102
2, 59712, Note_on_c, 0, 78, 102
2, 59807, Note_on_c, 0, 78, 0
2, 59807, Note_on_c, 0, 54, 0
2, 59808, Note_on_c, 0, 45, 102
2, 59808, Note_on_c, 0, 76, 102
2, 59903, Note_on_c, 0, 76, 0
2, 59903, Note_on_c, 0, 45, 0
2, 59904, Note_on_c, 0, 54, 102
2, 59904, Note_on_c, 0, 75, 102
2, 59999, Note_on_c, 0, 75, 0
2, 59999, Note_on_c, 0, 54, 0
2, 60000, Note_on_c, 0, 43, 102
2, 60000, Note_on_c, 0, 76, 102
2, 60095, Note_on_c, 0, 43, 0
2, 60096, Note_on_c, 0, 45, 102
2, 60182, Note_on_c, 0, 76, 0
2, 60191, Note_on_c, 0, 45, 0
2, 60192, Note_on_c, 0, 42, 102
2, 60192, Note_on_c, 0, 78, 102
2, 60287, Note_on_c, 0, 78, 0
2, 60287, Note_on_c, 0, 42, 0
2, 60288, Note_on_c, 0, 45, 102
2, 60288, Note_on_c, 0, 75, 102
2, 60383, Note_on_c, 0, 75, 0
2, 60383, Note_on_c, 0, 45, 0
2, 60384, Note_on_c, 0, 43, 102
2, 60384, Note_on_c, 0, 76, 102
2, 60479, Note_on_c, 0, 43, 0
2, 60480, Note_on_c, 0, 45, 102
2, 60566, Note_on_c, 0, 76, 0
2, 60575, Note_on_c, 0, 45, 0
2, 60576, Note_on_c, 0, 42, 102
2, 60576, Note_on_c, 0, 78, 102
2, 60671, Note_on_c, 0, 78, 0
2, 60671, Note_on_c, 0, 42, 0
2, 60672, Note_on_c, 0, 45, 102
2, 60672, Note_on_c, 0, 75, 102
2, 60767, Note_on_c, 0, 75, 0
2, 60767, Note_on_c, 0, 45, 0
2, 60768, Note_on_c, 0, 43, 102
2, 60768, Note_on_c, 0, 76, 102
2, 60863, Note_on_c, 0, 43, 0
2, 60864, Note_on_c, 0, 47, 102
2, 60959, Note_on_c, 0, 47, 0
2, 60960, Note_on_c, 0, 40, 102
2, 60960, Note_on_c, 0, 71, 102
2, 61055, Note_on_c, 0, 40, 0
2, 61056, Note_on_c, 0, 43, 102
2, 61142, Note_on_c, 0, 71, 0
2, 61151, Note_on_c, 0, 43, 0
2, 61152, Note_on_c, 0, 45, 102
2, 61152, Note_on_c, 0, 72, 102
2, 61247, Note_on_c, 0, 45, 0
2, 61248, Note_on_c, 0, 47, 102
2, 61334, Note_on_c, 0, 72, 0
2, 61343, Note_on_c, 0, 47, 0
2, 61344, Note_on_c, 0, 43, 102
2, 61344, Note_on_c, 0, 74, 102
2, 61439, Note_on_c, 0, 74, 0
2, 61439, Note_on_c, 0, 43, 0
2, 61440, Note_on_c, 0, 47, 102
2, 61440, Note_on_c, 0, 71, 102
2, 61535, Note_on_c, 0, 71, 0
2, 61535, Note_on_c, 0, 47, 0
2, 61536, Note_on_c, 0, 45, 102
2, 61536, Note_on_c, 0, 72, 102
2, 61631, Note_on_c, 0, 45, 0
2, 61632, Note_on_c, 0, 47, 102
2, 61718, Note_on_c, 0, 72, 0
2, 61727, Note_on_c, 0, 47, 0
2, 61728, Note_on_c, 0, 43, 102
2, 61728, Note_on_c, 0, 74, 102
2, 61823, Note_on_c, 0, 74, 0
2, 61823, Note_on_c, 0, 43, 0
2, 61824, Note_on_c, 0, 47, 102
2, 61824, Note_on_c, 0, 71, 102
2, 61919, Note_on_c, 0, 71, 0
2, 61919, Note_on_c, 0, 47, 0
2, 61920, Note_on_c, 0, 45, 102
2, 61920, Note_on_c, 0, 72, 102
2, 62015, Note_on_c, 0, 45, 0
2, 62016, Note_on_c, 0, 48, 102
2, 62102, Note_on_c, 0, 72, 0
2, 62111, Note_on_c, 0, 48, 0
2, 62112, Note_on_c, 0, 42, 102
2, 62112, Note_on_c, 0, 81, 102
2, 62112, Note_on_c, 0, 72, 102
2, 62118, Note_on_c, 0, 76, 0
2, 62207, Note_on_c, 0, 42, 0
2, 62208, Note_on_c, 0, 45, 102
2, 62294, Note_on_c, 0, 81, 0
2, 62294, Note_on_c, 0, 72, 0
2, 62303, Note_on_c, 0, 45, 0
2, 62304, Note_on_c, 0, 47, 102
2, 62304, Note_on_c, 0, 79, 102
2, 62304, Note_on_c, 0, 71, 102
2, 62486, Note_on_c, 0, 71, 0
2, 62486, Note_on_c, 0, 79, 0
2, 62486, Note_on_c, 0, 47, 0
2, 62496, Note_on_c, 0, 49, 102
2, 62496, Note_on_c, 0, 69, 102
2, 62496, Note_on_c, 0, 78, 102
2, 62591, Note_on_c, 0, 49, 0
2, 62592, Note_on_c, 0, 51, 102
2, 62678, Note_on_c, 0, 69, 0
2, 62687, Note_on_c, 0, 51, 0
2, 62688, Note_on_c, 0, 52, 102
2, 62688, Note_on_c, 0, 67, 102
2, 62783, Note_on_c, 0, 52, 0
2, 62784, Note_on_c, 0, 54, 102
2, 62876, Note_on_c, 0, 78, 0
2, 62879, Note_on_c, 0, 54, 0
2, 62880, Note_on_c, 0, 55, 102
2, 62880, Note_on_c, 0, 76, 102
2, 62975, Note_on_c, 0, 55, 0
2, 62976, Note_on_c, 0, 57, 102
2, 63068, Note_on_c, 0, 67, 0
2, 63071, Note_on_c, 0, 57, 0
2, 63072, Note_on_c, 0, 59, 102
2, 63072, Note_on_c, 0, 66, 102
2, 63160, Note_on_c, 0, 76, 0
2, 63168, Note_on_c, 0, 69, 102
2, 63254, Note_on_c, 0, 59, 0
2, 63263, Note_on_c, 0, 69, 0
2, 63264, Note_on_c, 0, 47, 102
2, 63264, Note_on_c, 0, 76, 102
2, 63359, Note_on_c, 0, 76, 0
2, 63360, Note_on_c, 0, 75, 102
2, 63446, Note_on_c, 0, 47, 0
2, 63452, Note_on_c, 0, 66, 0
2, 63455, Note_on_c, 0, 75, 0
2, 63456, Note_on_c, 0, 52, 102
2, 63456, Note_on_c, 0, 76, 102
2, 63638, Note_on_c, 0, 52, 0
2, 63648, Note_on_c, 0, 54, 102
2, 63648, Note_on_c, 0, 72, 102
2, 63743, Note_on_c, 0, 54, 0
2, 63744, Note_on_c, 0, 55, 102
2, 63830, Note_on_c, 0, 72, 0
2, 63839, Note_on_c, 0, 55, 0
2, 63840, Note_on_c, 0, 57, 102
2, 63840, Note_on_c, 0, 71, 102
2, 63935, Note_on_c, 0, 57, 0
2, 63936, Note_on_c, 0, 59, 102
2, 64022, Note_on_c, 0, 71, 0
2, 64031, Note_on_c, 0, 59, 0
2, 64032, Note_on_c, 0, 61, 102
2, 64032, Note_on_c, 0, 69, 102
2, 64127, Note_on_c, 0, 61, 0
2, 64128, Note_on_c, 0, 63, 102
2, 64214, Note_on_c, 0, 69, 0
2, 64223, Note_on_c, 0, 63, 0
2, 64224, Note_on_c, 0, 64, 102
2, 64224, Note_on_c, 0, 67, 102
2, 64319, Note_on_c, 0, 64, 0
2, 64320, Note_on_c, 0, 61, 102
2, 64406, Note_on_c, 0, 67, 0
2, 64415, Note_on_c, 0, 61, 0
2, 64416, Note_on_c, 0, 76, 0
2, 64416, Note_on_c, 0, 62, 102
2, 64416, Note_on_c, 0, 76, 102
2, 64511, Note_on_c, 0, 62, 0
2, 64512, Note_on_c, 0, 59, 102
2, 64598, Note_on_c, 0, 76, 0
2, 64607, Note_on_c, 0, 59, 0
2, 64608, Note_on_c, 0, 61, 102
2, 64608, Note_on_c, 0, 69, 102
2, 64703, Note_on_c, 0, 61, 0
2, 64704, Note_on_c, 0, 62, 102
2, 64790, Note_on_c, 0, 69, 0
2, 64799, Note_on_c, 0, 62, 0
2, 64800, Note_on_c, 0, 61, 102
2, 64800, Note_on_c, 0, 71, 102
2, 64895, Note_on_c, 0, 71, 0
2, 64895, Note_on_c, 0, 61, 0
2, 64896, Note_on_c, 0, 59, 102
2, 64896, Note_on_c, 0, 73, 102
2, 64991, Note_on_c, 0, 73, 0
2, 64991, Note_on_c, 0, 59, 0
2, 64992, Note_on_c, 0, 57, 102
2, 64992, Note_on_c, 0, 74, 102
2, 65087, Note_on_c, 0, 74, 0
2, 65087, Note_on_c, 0, 57, 0
2, 65088, Note_on_c, 0, 55, 102
2, 65088, Note_on_c, 0, 76, 102
2, 65183, Note_on_c, 0, 76, 0
2, 65183, Note_on_c, 0, 55, 0
2, 65184, Note_on_c, 0, 54, 102
2, 65184, Note_on_c, 0, 78, 102
2, 65279, Note_on_c, 0, 78, 0
2, 65279, Note_on_c, 0, 54, 0
2, 65280, Note_on_c, 0, 52, 102
2, 65280, Note_on_c, 0, 79, 102
2, 65375, Note_on_c, 0, 79, 0
2, 65375, Note_on_c, 0, 52, 0
2, 65376, Note_on_c, 0, 54, 102
2, 65376, Note_on_c, 0, 81, 102
2, 65471, Note_on_c, 0, 81, 0
2, 65471, Note_on_c, 0, 54, 0
2, 65472, Note_on_c, 0, 62, 102
2, 65472, Note_on_c, 0, 78, 102
2, 65567, Note_on_c, 0, 78, 0
2, 65567, Note_on_c, 0, 62, 0
2, 65568, Note_on_c, 0, 52, 102
2, 65568, Note_on_c, 0, 79, 102
2, 65663, Note_on_c, 0, 79, 0
2, 65663, Note_on_c, 0, 52, 0
2, 65664, Note_on_c, 0, 61, 102
2, 65664, Note_on_c, 0, 76, 102
2, 65759, Note_on_c, 0, 76, 0
2, 65759, Note_on_c, 0, 61, 0
2, 65760, Note_on_c, 0, 62, 102
2, 65760, Note_on_c, 0, 78, 102
2, 65855, Note_on_c, 0, 78, 0
2, 65856, Note_on_c, 0, 79, 102
2, 65942, Note_on_c, 0, 62, 0
2, 65951, Note_on_c, 0, 79, 0
2, 65952, Note_on_c, 0, 50, 102
2, 65952, Note_on_c, 0, 78, 102
2, 66047, Note_on_c, 0, 78, 0
2, 66047, Note_on_c, 0, 50, 0
2, 66048, Note_on_c, 0, 52, 102
2, 66048, Note_on_c, 0, 76, 102
2, 66143, Note_on_c, 0, 76, 0
2, 66143, Note_on_c, 0, 52, 0
2, 66144, Note_on_c, 0, 54, 102
2, 66144, Note_on_c, 0, 74, 102
2, 66239, Note_on_c, 0, 74, 0
2, 66239, Note_on_c, 0, 54, 0
2, 66240, Note_on_c, 0, 55, 102
2, 66240, Note_on_c, 0, 76, 102
2, 66335, Note_on_c, 0, 76, 0
2, 66335, Note_on_c, 0, 55, 0
2, 66336, Note_on_c, 0, 57, 102
2, 66336, Note_on_c, 0, 78, 102
2, 66431, Note_on_c, 0, 78, 0
2, 66431, Note_on_c, 0, 57, 0
2, 66432, Note_on_c, 0, 59, 102
2, 66432, Note_on_c, 0, 79, 102
2, 66527, Note_on_c, 0, 79, 0
2, 66527, Note_on_c, 0, 59, 0
2, 66528, Note_on_c, 0, 60, 102
2, 66528, Note_on_c, 0, 81, 102
2, 66623, Note_on_c, 0, 81, 0
2, 66623, Note_on_c, 0, 60, 0
2, 66624, Note_on_c, 0, 62, 102
2, 66624, Note_on_c, 0, 83, 102
2, 66719, Note_on_c, 0, 83, 0
2, 66719, Note_on_c, 0, 62, 0
2, 66720, Note_on_c, 0, 64, 102
2, 66720, Note_on_c, 0, 84, 102
2, 66815, Note_on_c, 0, 84, 0
2, 66815, Note_on_c, 0, 64, 0
2, 66816, Note_on_c, 0, 66, 102
2, 66816, Note_on_c, 0, 81, 102
2, 66911, Note_on_c, 0, 81, 0
2, 66911, Note_on_c, 0, 66, 0
2, 66912, Note_on_c, 0, 67, 102
2, 66912, Note_on_c, 0, 83, 102
2, 67007, Note_on_c, 0, 83, 0
2, 67008, Note_on_c, 0, 78, 102
2, 67094, Note_on_c, 0, 67, 0
2, 67103, Note_on_c, 0, 78, 0
2, 67104, Note_on_c, 0, 59, 102
2, 67104, Note_on_c, 0, 79, 102
2, 67199, Note_on_c, 0, 79, 0
2, 67200, Note_on_c, 0, 74, 102
2, 67286, Note_on_c, 0, 59, 0
2, 67295, Note_on_c, 0, 74, 0
2, 67296, Note_on_c, 0, 60, 102
2, 67296, Note_on_c, 0, 76, 102
2, 67391, Note_on_c, 0, 76, 0
2, 67392, Note_on_c, 0, 71, 102
2, 67478, Note_on_c, 0, 60, 0
2, 67487, Note_on_c, 0, 71, 0
2, 67488, Note_on_c, 0, 64, 102
2, 67488, Note_on_c, 0, 72, 102
2, 67583, Note_on_c, 0, 72, 0
2, 67584, Note_on_c, 0, 67, 102
2, 67670, Note_on_c, 0, 64, 0
2, 67679, Note_on_c, 0, 67, 0
2, 67680, Note_on_c, 0, 60, 102
2, 67680, Note_on_c, 0, 69, 102
2, 67775, Note_on_c, 0, 69, 0
2, 67776, Note_on_c, 0, 72, 102
2, 67862, Note_on_c, 0, 60, 0
2, 67871, Note_on_c, 0, 72, 0
2, 67872, Note_on_c, 0, 57, 102
2, 67872, Note_on_c, 0, 64, 102
2, 67967, Note_on_c, 0, 64, 0
2, 67968, Note_on_c, 0, 67, 102
2, 68054, Note_on_c, 0, 57, 0
2, 68063, Note_on_c, 0, 67, 0
2, 68064, Note_on_c, 0, 62, 102
2, 68064, Note_on_c, 0, 66, 102
2, 68159, Note_on_c, 0, 66, 0
2, 68160, Note_on_c, 0, 69, 102
2, 68246, Note_on_c, 0, 62, 0
2, 68255, Note_on_c, 0, 69, 0
2, 68256, Note_on_c, 0, 60, 102
2, 68256, Note_on_c, 0, 62, 102
2, 68351, Note_on_c, 0, 62, 0
2, 68351, Note_on_c, 0, 60, 0
2, 68352, Note_on_c, 0, 59, 102
2, 68352, Note_on_c, 0, 64, 102
2, 68447, Note_on_c, 0, 64, 0
2, 68447, Note_on_c, 0, 59, 0
2, 68448, Note_on_c, 0, 57, 102
2, 68448, Note_on_c, 0, 66, 102
2, 68543, Note_on_c, 0, 66, 0
2, 68543, Note_on_c, 0, 57, 0
2, 68544, Note_on_c, 0, 55, 102
2, 68544, Note_on_c, 0, 67, 102
2, 68639, Note_on_c, 0, 67, 0
2, 68639, Note_on_c, 0, 55, 0
2, 68640, Note_on_c, 0, 54, 102
2, 68640, Note_on_c, 0, 69, 102
2, 68735, Note_on_c, 0, 69, 0
2, 68735, Note_on_c, 0, 54, 0
2, 68736, Note_on_c, 0, 52, 102
2, 68736, Note_on_c, 0, 71, 102
2, 68831, Note_on_c, 0, 71, 0
2, 68831, Note_on_c, 0, 52, 0
2, 68832, Note_on_c, 0, 50, 102
2, 68832, Note_on_c, 0, 72, 102
2, 68927, Note_on_c, 0, 72, 0
2, 68927, Note_on_c, 0, 50, 0
2, 68928, Note_on_c, 0, 57, 102
2, 68928, Note_on_c, 0, 74, 102
2, 69023, Note_on_c, 0, 74, 0
2, 69023, Note_on_c, 0, 57, 0
2, 69024, Note_on_c, 0, 48, 102
2, 69024, Note_on_c, 0, 76, 102
2, 69119, Note_on_c, 0, 76, 0
2, 69119, Note_on_c, 0, 48, 0
2, 69120, Note_on_c, 0, 57, 102
2, 69120, Note_on_c, 0, 78, 102
2, 69215, Note_on_c, 0, 78, 0
2, 69215, Note_on_c, 0, 57, 0
2, 69216, Note_on_c, 0, 47, 102
2, 69216, Note_on_c, 0, 79, 102
2, 69311, Note_on_c, 0, 79, 0
2, 69312, Note_on_c, 0, 81, 102
2, 69398, Note_on_c, 0, 47, 0
2, 69407, Note_on_c, 0, 81, 0
2, 69408, Note_on_c, 0, 45, 102
2, 69408, Note_on_c, 0, 74, 102
2, 69503, Note_on_c, 0, 74, 0
2, 69504, Note_on_c, 0, 78, 102
2, 69590, Note_on_c, 0, 45, 0
2, 69599, Note_on_c, 0, 78, 0
2, 69600, Note_on_c, 0, 47, 102
2, 69600, Note_on_c, 0, 79, 102
2, 69695, Note_on_c, 0, 79, 0
2, 69696, Note_on_c, 0, 81, 102
2, 69782, Note_on_c, 0, 47, 0
2, 69791, Note_on_c, 0, 81, 0
2, 69792, Note_on_c, 0, 50, 102
2, 69792, Note_on_c, 0, 74, 102
2, 69888, Note_on_c, 0, 79, 102
2, 69932, Note_on_c, 0, 74, 0
2, 69974, Note_on_c, 0, 50, 0
2, 69983, Note_on_c, 0, 79, 0
2, 69984, Note_on_c, 0, 55, 102
2, 69984, Note_on_c, 0, 71, 102
2, 70080, Note_on_c, 0, 79, 102
2, 70124, Note_on_c, 0, 71, 0
2, 70166, Note_on_c, 0, 55, 0
2, 70175, Note_on_c, 0, 79, 0
2, 70176, Note_on_c, 0, 47, 102
2, 70176, Note_on_c, 0, 74, 102
2, 70272, Note_on_c, 0, 81, 102
2, 70316, Note_on_c, 0, 74, 0
2, 70358, Note_on_c, 0, 47, 0
2, 70367, Note_on_c, 0, 81, 0
2, 70368, Note_on_c, 0, 48, 102
2, 70368, Note_on_c, 0, 79, 102
2, 70463, Note_on_c, 0, 79, 0
2, 70464, Note_on_c, 0, 81, 102
2, 70550, Note_on_c, 0, 48, 0
2, 70559, Note_on_c, 0, 81, 0
2, 70560, Note_on_c, 0, 50, 102
2, 70560, Note_on_c, 0, 76, 102
2, 70655, Note_on_c, 0, 76, 0
2, 70656, Note_on_c, 0, 78, 102
2, 70742, Note_on_c, 0, 50, 0
2, 70751, Note_on_c, 0, 78, 0
2, 70752, Note_on_c, 0, 52, 102
2, 70752, Note_on_c, 0, 79, 102
2, 70847, Note_on_c, 0, 79, 0
2, 70848, Note_on_c, 0, 81, 102
2, 70934, Note_on_c, 0, 52, 0
2, 70943, Note_on_c, 0, 81, 0
2, 70944, Note_on_c, 0, 48, 102
2, 70944, Note_on_c, 0, 76, 102
2, 71040, Note_on_c, 0, 79, 102
2, 71084, Note_on_c, 0, 76, 0
2, 71126, Note_on_c, 0, 48, 0
2, 71135, Note_on_c, 0, 79, 0
2, 71136, Note_on_c, 0, 45, 102
2, 71136, Note_on_c, 0, 72, 102
2, 71232, Note_on_c, 0, 79, 102
2, 71276, Note_on_c, 0, 72, 0
2, 71318, Note_on_c, 0, 45, 0
2, 71327, Note_on_c, 0, 79, 0
2, 71328, Note_on_c, 0, 48, 102
2, 71328, Note_on_c, 0, 76, 102
2, 71424, Note_on_c, 0, 79, 102
2, 71468, Note_on_c, 0, 76, 0
2, 71510, Note_on_c, 0, 48, 0
2, 71521, Note_on_c, 0, 79, 0
2, 71522, Note_on_c, 0, 78, 102
2, 71522, Note_on_c, 0, 50, 102
2, 71619, Note_on_c, 0, 78, 0
2, 71621, Note_on_c, 0, 79, 102
2, 71709, Note_on_c, 0, 50, 0
2, 71718, Note_on_c, 0, 79, 0
2, 71720, Note_on_c, 0, 81, 102
2, 71720, Note_on_c, 0, 52, 102
2, 71817, Note_on_c, 0, 81, 0
2, 71819, Note_on_c, 0, 78, 102
2, 71907, Note_on_c, 0, 52, 0
2, 71916, Note_on_c, 0, 78, 0
2, 71918, Note_on_c, 0, 72, 102
2, 71918, Note_on_c, 0, 54, 102
2, 72015, Note_on_c, 0, 72, 0
2, 72017, Note_on_c, 0, 76, 102
2, 72105, Note_on_c, 0, 54, 0
2, 72114, Note_on_c, 0, 76, 0
2, 72116, Note_on_c, 0, 74, 102
2, 72116, Note_on_c, 0, 55, 102
2, 72213, Note_on_c, 0, 74, 0
2, 72215, Note_on_c, 0, 72, 102
2, 72303, Note_on_c, 0, 55, 0
2, 72316, Note_on_c, 0, 72, 0
2, 72318, Note_on_c, 0, 71, 102
2, 72318, Note_on_c, 0, 50, 102
2, 72423, Note_on_c, 0, 79, 102
2, 72447, Note_on_c, 0, 71, 0
2, 72528, Note_on_c, 0, 69, 102
2, 72528, Note_on_c, 0, 60, 102
2, 72552, Note_on_c, 0, 79, 0
2, 72633, Note_on_c, 0, 78, 102
2, 72657, Note_on_c, 0, 69, 0
2, 72725, Note_on_c, 0, 60, 0
2, 72732, Note_on_c, 0, 50, 0
2, 72740, Note_on_c, 0, 78, 0
2, 72742, Note_on_c, 0, 79, 102
2, 72742, Note_on_c, 0, 59, 102
2, 72950, Note_on_c, 0, 79, 0
2, 72965, Note_on_c, 0, 78, 102
2, 72965, Note_on_c, 0, 55, 102
2, 73072, Note_on_c, 0, 78, 0
2, 73077, Note_on_c, 0, 76, 102
2, 73180, Note_on_c, 0, 59, 0
2, 73190, Note_on_c, 0, 76, 0
2, 73192, Note_on_c, 0, 74, 102
2, 73192, Note_on_c, 0, 59, 102
2, 73305, Note_on_c, 0, 74, 0
2, 73313, Note_on_c, 0, 72, 102
2, 73412, Note_on_c, 0, 59, 0
2, 73426, Note_on_c, 0, 72, 0
2, 73430, Note_on_c, 0, 71, 102
2, 73430, Note_on_c, 0, 62, 102
2, 73543, Note_on_c, 0, 71, 0
2, 73547, Note_on_c, 0, 69, 102
2, 73660, Note_on_c, 0, 62, 0
2, 73684, Note_on_c, 0, 69, 0
2, 73694, Note_on_c, 0, 67, 102
2, 74075, Note_on_c, 0, 55, 0
2, 74374, Note_on_c, 0, 67, 0
2, 76032, Note_on_c, 0, 71, 102
2, 76032, Note_on_c, 0, 43, 102
2, 76127, Note_on_c, 0, 71, 0
2, 76128, Note_on_c, 0, 69, 102
2, 76223, Note_on_c, 0, 69, 0
2, 76224, Note_on_c, 0, 71, 102
2, 76416, Note_on_c, 0, 55, 102
2, 76607, Note_on_c, 0, 71, 0
2, 76608, Note_on_c, 0, 72, 102
2, 76799, Note_on_c, 0, 72, 0
2, 76799, Note_on_c, 0, 43, 0
2, 76800, Note_on_c, 0, 71, 102
2, 76800, Note_on_c, 0, 52, 102
2, 76863, Note_on_c, 0, 71, 0
2, 76864, Note_on_c, 0, 69, 102
2, 76927, Note_on_c, 0, 69, 0
2, 76928, Note_on_c, 0, 71, 102
2, 76991, Note_on_c, 0, 71, 0
2, 76992, Note_on_c, 0, 69, 102
2, 77087, Note_on_c, 0, 69, 0
2, 77088, Note_on_c, 0, 67, 102
2, 77183, Note_on_c, 0, 67, 0
2, 77183, Note_on_c, 0, 52, 0
2, 77184, Note_on_c, 0, 74, 102
2, 77184, Note_on_c, 0, 47, 102
2, 77554, Note_on_c, 0, 74, 0
2, 77567, Note_on_c, 0, 47, 0
2, 77568, Note_on_c, 0, 74, 102
2, 77568, Note_on_c, 0, 48, 102
2, 77756, Note_on_c, 0, 55, 0
2, 77759, Note_on_c, 0, 74, 0
2, 77760, Note_on_c, 0, 76, 102
2, 77760, Note_on_c, 0, 55, 102
2, 77855, Note_on_c, 0, 76, 0
2, 77856, Note_on_c, 0, 74, 102
2, 77951, Note_on_c, 0, 74, 0
2, 77951, Note_on_c, 0, 55, 0
2, 77952, Note_on_c, 0, 76, 102
2, 77952, Note_on_c, 0, 57, 102
2, 78143, Note_on_c, 0, 57, 0
2, 78144, Note_on_c, 0, 59, 102
2, 78232, Note_on_c, 0, 76, 0
2, 78335, Note_on_c, 0, 59, 0
2, 78335, Note_on_c, 0, 48, 0
2, 78336, Note_on_c, 0, 67, 102
2, 78336, Note_on_c, 0, 60, 102
2, 78336, Note_on_c, 0, 57, 102
2, 78527, Note_on_c, 0, 67, 0
2, 78528, Note_on_c, 0, 66, 102
2, 78719, Note_on_c, 0, 57, 0
2, 78719, Note_on_c, 0, 60, 0
2, 78720, Note_on_c, 0, 54, 102
2, 78720, Note_on_c, 0, 57, 102
2, 78911, Note_on_c, 0, 66, 0
2, 78912, Note_on_c, 0, 72, 102
2, 79103, Note_on_c, 0, 72, 0
2, 79103, Note_on_c, 0, 57, 0
2, 79103, Note_on_c, 0, 54, 0
2, 79104, Note_on_c, 0, 72, 102
2, 79104, Note_on_c, 0, 55, 102
2, 79167, Note_on_c, 0, 72, 0
2, 79168, Note_on_c, 0, 71, 102
2, 79231, Note_on_c, 0, 71, 0
2, 79232, Note_on_c, 0, 72, 102
2, 79295, Note_on_c, 0, 72, 0
2, 79296, Note_on_c, 0, 71, 102
2, 79391, Note_on_c, 0, 71, 0
2, 79392, Note_on_c, 0, 69, 102
2, 79487, Note_on_c, 0, 69, 0
2, 79488, Note_on_c, 0, 69, 102
2, 79488, Note_on_c, 0, 50, 102
2, 79679, Note_on_c, 0, 55, 0
2, 79680, Note_on_c, 0, 52, 102
2, 79871, Note_on_c, 0, 52, 0
2, 79872, Note_on_c, 0, 54, 102
2, 80063, Note_on_c, 0, 54, 0
2, 80064, Note_on_c, 0, 57, 102
2, 80255, Note_on_c, 0, 57, 0
2, 80255, Note_on_c, 0, 50, 0
2, 80255, Note_on_c, 0, 69, 0
2, 80256, Note_on_c, 0, 62, 102
2, 80448, Note_on_c, 0, 50, 102
2, 80636, Note_on_c, 0, 62, 0
2, 80639, Note_on_c, 0, 50, 0
2, 80646, Note_on_c, 0, 48, 102
2, 80646, Note_on_c, 0, 78, 102
2, 80741, Note_on_c, 0, 78, 0
2, 80742, Note_on_c, 0, 76, 102
2, 80837, Note_on_c, 0, 76, 0
2, 80838, Note_on_c, 0, 78, 102
2, 81030, Note_on_c, 0, 57, 102
2, 81213, Note_on_c, 0, 78, 0
2, 81222, Note_on_c, 0, 79, 102
2, 81413, Note_on_c, 0, 79, 0
2, 81413, Note_on_c, 0, 48, 0
2, 81414, Note_on_c, 0, 48, 102
2, 81414, Note_on_c, 0, 78, 102
2, 81477, Note_on_c, 0, 78, 0
2, 81478, Note_on_c, 0, 76, 102
2, 81541, Note_on_c, 0, 76, 0
2, 81542, Note_on_c, 0, 78, 102
2, 81605, Note_on_c, 0, 78, 0
2, 81606, Note_on_c, 0, 76, 102
2, 81701, Note_on_c, 0, 76, 0
2, 81702, Note_on_c, 0, 74, 102
2, 81797, Note_on_c, 0, 74, 0
2, 81797, Note_on_c, 0, 48, 0
2, 81797, Note_on_c, 0, 57, 0
2, 81798, Note_on_c, 0, 47, 102
2, 81798, Note_on_c, 0, 79, 102
2, 81990, Note_on_c, 0, 50, 102
2, 82173, Note_on_c, 0, 79, 0
2, 82178, Note_on_c, 0, 47, 0
2, 82181, Note_on_c, 0, 50, 0
2, 82182, Note_on_c, 0, 55, 102
2, 82182, Note_on_c, 0, 52, 102
2, 82182, Note_on_c, 0, 72, 102
2, 82277, Note_on_c, 0, 72, 0
2, 82278, Note_on_c, 0, 71, 102
2, 82373, Note_on_c, 0, 71, 0
2, 82374, Note_on_c, 0, 72, 102
2, 82565, Note_on_c, 0, 52, 0
2, 82566, Note_on_c, 0, 48, 102
2, 82757, Note_on_c, 0, 72, 0
2, 82758, Note_on_c, 0, 74, 102
2, 82853, Note_on_c, 0, 74, 0
2, 82854, Note_on_c, 0, 76, 102
2, 82949, Note_on_c, 0, 76, 0
2, 82949, Note_on_c, 0, 48, 0
2, 82950, Note_on_c, 0, 50, 102
2, 82950, Note_on_c, 0, 69, 102
2, 83332, Note_on_c, 0, 55, 0
2, 83333, Note_on_c, 0, 69, 0
2, 83334, Note_on_c, 0, 54, 102
2, 83334, Note_on_c, 0, 74, 102
2, 83525, Note_on_c, 0, 54, 0
2, 83526, Note_on_c, 0, 52, 102
2, 83621, Note_on_c, 0, 74, 0
2, 83622, Note_on_c, 0, 72, 102
2, 83717, Note_on_c, 0, 72, 0
2, 83717, Note_on_c, 0, 52, 0
2, 83718, Note_on_c, 0, 54, 102
2, 83718, Note_on_c, 0, 71, 102
2, 84005, Note_on_c, 0, 71, 0
2, 84006, Note_on_c, 0, 72, 102
2, 84100, Note_on_c, 0, 50, 0
2, 84101, Note_on_c, 0, 72, 0
2, 84101, Note_on_c, 0, 54, 0
2, 84102, Note_on_c, 0, 55, 102
2, 84102, Note_on_c, 0, 72, 102
2, 84178, Note_on_c, 0, 72, 0
2, 84178, Note_on_c, 0, 71, 102
2, 84254, Note_on_c, 0, 71, 0
2, 84256, Note_on_c, 0, 72, 102
2, 84332, Note_on_c, 0, 72, 0
2, 84332, Note_on_c, 0, 71, 102
2, 84408, Note_on_c, 0, 71, 0
2, 84408, Note_on_c, 0, 72, 102
2, 84484, Note_on_c, 0, 72, 0
2, 84486, Note_on_c, 0, 71, 102
2, 84486, Note_on_c, 0, 50, 102
2, 84676, Note_on_c, 0, 71, 0
2, 84678, Note_on_c, 0, 69, 102
2, 84869, Note_on_c, 0, 69, 0
2, 84869, Note_on_c, 0, 50, 0
2, 84870, Note_on_c, 0, 43, 102
2, 84870, Note_on_c, 0, 67, 102
2, 85150, Note_on_c, 0, 67, 0
2, 85252, Note_on_c, 0, 55, 0
2, 85253, Note_on_c, 0, 43, 0
2, 85266, Note_on_c, 0, 55, 102
2, 85266, Note_on_c, 0, 83, 102
2, 85458, Note_on_c, 0, 59, 102
2, 85649, Note_on_c, 0, 59, 0
2, 85650, Note_on_c, 0, 64, 102
2, 85806, Note_on_c, 0, 83, 0
2, 85842, Note_on_c, 0, 79, 102
2, 86033, Note_on_c, 0, 79, 0
2, 86033, Note_on_c, 0, 64, 0
2, 86034, Note_on_c, 0, 62, 102
2, 86034, Note_on_c, 0, 79, 102
2, 86097, Note_on_c, 0, 79, 0
2, 86098, Note_on_c, 0, 78, 102
2, 86161, Note_on_c, 0, 78, 0
2, 86162, Note_on_c, 0, 79, 102
2, 86225, Note_on_c, 0, 79, 0
2, 86226, Note_on_c, 0, 78, 102
2, 86321, Note_on_c, 0, 78, 0
2, 86322, Note_on_c, 0, 76, 102
2, 86417, Note_on_c, 0, 76, 0
2, 86417, Note_on_c, 0, 62, 0
2, 86418, Note_on_c, 0, 61, 102
2, 86418, Note_on_c, 0, 81, 102
2, 86606, Note_on_c, 0, 55, 0
2, 86610, Note_on_c, 0, 55, 102
2, 86798, Note_on_c, 0, 61, 0
2, 86801, Note_on_c, 0, 55, 0
2, 86801, Note_on_c, 0, 81, 0
2, 86802, Note_on_c, 0, 54, 102
2, 86802, Note_on_c, 0, 74, 102
2, 86994, Note_on_c, 0, 57, 102
2, 87185, Note_on_c, 0, 57, 0
2, 87186, Note_on_c, 0, 62, 102
2, 87282, Note_on_c, 0, 74, 0
2, 87378, Note_on_c, 0, 78, 102
2, 87569, Note_on_c, 0, 78, 0
2, 87569, Note_on_c, 0, 62, 0
2, 87569, Note_on_c, 0, 54, 0
2, 87570, Note_on_c, 0, 55, 102
2, 87570, Note_on_c, 0, 71, 102
2, 87762, Note_on_c, 0, 54, 102
2, 87953, Note_on_c, 0, 54, 0
2, 87954, Note_on_c, 0, 52, 102
2, 88049, Note_on_c, 0, 71, 0
2, 88050, Note_on_c, 0, 74, 102
2, 88145, Note_on_c, 0, 74, 0
2, 88145, Note_on_c, 0, 52, 0
2, 88146, Note_on_c, 0, 50, 102
2, 88146, Note_on_c, 0, 73, 102
2, 88241, Note_on_c, 0, 73, 0
2, 88242, Note_on_c, 0, 71, 102
2, 88337, Note_on_c, 0, 71, 0
2, 88337, Note_on_c, 0, 50, 0
2, 88338, Note_on_c, 0, 49, 102
2, 88338, Note_on_c, 0, 76, 102
2, 88433, Note_on_c, 0, 76, 0
2, 88434, Note_on_c, 0, 79, 102
2, 88529, Note_on_c, 0, 79, 0
2, 88529, Note_on_c, 0, 49, 0
2, 88530, Note_on_c, 0, 47, 102
2, 88530, Note_on_c, 0, 78, 102
2, 88625, Note_on_c, 0, 78, 0
2, 88626, Note_on_c, 0, 76, 102
2, 88721, Note_on_c, 0, 76, 0
2, 88721, Note_on_c, 0, 47, 0
2, 88722, Note_on_c, 0, 45, 102
2, 88722, Note_on_c, 0, 74, 102
2, 88785, Note_on_c, 0, 74, 0
2, 88786, Note_on_c, 0, 73, 102
2, 88849, Note_on_c, 0, 73, 0
2, 88850, Note_on_c, 0, 74, 102
2, 88910, Note_on_c, 0, 55, 0
2, 88913, Note_on_c, 0, 74, 0
2, 88914, Note_on_c, 0, 52, 102
2, 88914, Note_on_c, 0, 73, 102
2, 88977, Note_on_c, 0, 73, 0
2, 88978, Note_on_c, 0, 74, 102
2, 89041, Note_on_c, 0, 74, 0
2, 89042, Note_on_c, 0, 73, 102
2, 89105, Note_on_c, 0, 52, 0
2, 89106, Note_on_c, 0, 57, 102
2, 89297, Note_on_c, 0, 57, 0
2, 89297, Note_on_c, 0, 73, 0
2, 89298, Note_on_c, 0, 55, 102
2, 89298, Note_on_c, 0, 71, 102
2, 89489, Note_on_c, 0, 71, 0
2, 89489, Note_on_c, 0, 55, 0
2, 89489, Note_on_c, 0, 45, 0
2, 89490, Note_on_c, 0, 54, 102
2, 89490, Note_on_c, 0, 69, 102
2, 89682, Note_on_c, 0, 50, 102
2, 89770, Note_on_c, 0, 69, 0
2, 89870, Note_on_c, 0, 54, 0
2, 89880, Note_on_c, 0, 69, 102
2, 89880, Note_on_c, 0, 52, 102
2, 89975, Note_on_c, 0, 69, 0
2, 89976, Note_on_c, 0, 67, 102
2, 90062, Note_on_c, 0, 50, 0
2, 90071, Note_on_c, 0, 67, 0
2, 90072, Note_on_c, 0, 66, 102
2, 90072, Note_on_c, 0, 50, 102
2, 90263, Note_on_c, 0, 50, 0
2, 90263, Note_on_c, 0, 66, 0
2, 90264, Note_on_c, 0, 67, 102
2, 90264, Note_on_c, 0, 49, 102
2, 90455, Note_on_c, 0, 67, 0
2, 90455, Note_on_c, 0, 52, 0
2, 90456, Note_on_c, 0, 76, 102
2, 90456, Note_on_c, 0, 52, 102
2, 90647, Note_on_c, 0, 52, 0
2, 90648, Note_on_c, 0, 57, 102
2, 90839, Note_on_c, 0, 76, 0
2, 90839, Note_on_c, 0, 49, 0
2, 90840, Note_on_c, 0, 74, 102
2, 90840, Note_on_c, 0, 47, 102
2, 90935, Note_on_c, 0, 74, 0
2, 90936, Note_on_c, 0, 73, 102
2, 91031, Note_on_c, 0, 73, 0
2, 91031, Note_on_c, 0, 47, 0
2, 91032, Note_on_c, 0, 79, 102
2, 91032, Note_on_c, 0, 45, 102
2, 91223, Note_on_c, 0, 79, 0
2, 91223, Note_on_c, 0, 57, 0
2, 91224, Note_on_c, 0, 78, 102
2, 91224, Note_on_c, 0, 50, 102
2, 91319, Note_on_c, 0, 78, 0
2, 91320, Note_on_c, 0, 76, 102
2, 91415, Note_on_c, 0, 76, 0
2, 91415, Note_on_c, 0, 50, 0
2, 91416, Note_on_c, 0, 81, 102
2, 91416, Note_on_c, 0, 49, 102
2, 91607, Note_on_c, 0, 45, 0
2, 91608, Note_on_c, 0, 43, 102
2, 91703, Note_on_c, 0, 81, 0
2, 91704, Note_on_c, 0, 78, 102
2, 91796, Note_on_c, 0, 49, 0
2, 91799, Note_on_c, 0, 78, 0
2, 91799, Note_on_c, 0, 43, 0
2, 91800, Note_on_c, 0, 76, 102
2, 91800, Note_on_c, 0, 50, 102
2, 91800, Note_on_c, 0, 42, 102
2, 91991, Note_on_c, 0, 50, 0
2, 91991, Note_on_c, 0, 76, 0
2, 91992, Note_on_c, 0, 74, 102
2, 91992, Note_on_c, 0, 52, 102
2, 92183, Note_on_c, 0, 52, 0
2, 92184, Note_on_c, 0, 54, 102
2, 92372, Note_on_c, 0, 74, 0
2, 92375, Note_on_c, 0, 42, 0
2, 92376, Note_on_c, 0, 43, 102
2, 92472, Note_on_c, 0, 71, 102
2, 92564, Note_on_c, 0, 54, 0
2, 92567, Note_on_c, 0, 71, 0
2, 92567, Note_on_c, 0, 43, 0
2, 92568, Note_on_c, 0, 74, 102
2, 92568, Note_on_c, 0, 52, 102
2, 92568, Note_on_c, 0, 45, 102
2, 92695, Note_on_c, 0, 74, 0
2, 92696, Note_on_c, 0, 73, 102
2, 92759, Note_on_c, 0, 73, 0
2, 92759, Note_on_c, 0, 52, 0
2, 92760, Note_on_c, 0, 74, 102
2, 92760, Note_on_c, 0, 54, 102
2, 92823, Note_on_c, 0, 74, 0
2, 92824, Note_on_c, 0, 73, 102
2, 92887, Note_on_c, 0, 73, 0
2, 92888, Note_on_c, 0, 74, 102
2, 92951, Note_on_c, 0, 74, 0
2, 92951, Note_on_c, 0, 54, 0
2, 92952, Note_on_c, 0, 73, 102
2, 92952, Note_on_c, 0, 55, 102
2, 93232, Note_on_c, 0, 73, 0
2, 93245, Note_on_c, 0, 74, 102
2, 93334, Note_on_c, 0, 74, 0
2, 93335, Note_on_c, 0, 45, 0
2, 93336, Note_on_c, 0, 74, 102
2, 93336, Note_on_c, 0, 50, 102
2, 93527, Note_on_c, 0, 55, 0
2, 93528, Note_on_c, 0, 54, 102
2, 93623, Note_on_c, 0, 54, 0
2, 93624, Note_on_c, 0, 52, 102
2, 93719, Note_on_c, 0, 52, 0
2, 93720, Note_on_c, 0, 54, 102
2, 93911, Note_on_c, 0, 50, 0
2, 93912, Note_on_c, 0, 50, 102
2, 94100, Note_on_c, 0, 54, 0
2, 94103, Note_on_c, 0, 50, 0
2, 94103, Note_on_c, 0, 74, 0
2, 94104, Note_on_c, 0, 38, 102
2, 94487, Note_on_c, 0, 38, 0
2, 94506, Note_on_c, 0, 50, 102
2, 94506, Note_on_c, 0, 78, 102
2, 94890, Note_on_c, 0, 62, 102
2, 95072, Note_on_c, 0, 78, 0
2, 95082, Note_on_c, 0, 79, 102
2, 95273, Note_on_c, 0, 79, 0
2, 95273, Note_on_c, 0, 50, 0
2, 95274, Note_on_c, 0, 60, 102
2, 95274, Note_on_c, 0, 81, 102
2, 95561, Note_on_c, 0, 81, 0
2, 95562, Note_on_c, 0, 78, 102
2, 95657, Note_on_c, 0, 78, 0
2, 95657, Note_on_c, 0, 60, 0
2, 95658, Note_on_c, 0, 59, 102
2, 95658, Note_on_c, 0, 74, 102
2, 95850, Note_on_c, 0, 62, 0
2, 95850, Note_on_c, 0, 62, 102
2, 96041, Note_on_c, 0, 62, 0
2, 96041, Note_on_c, 0, 74, 0
2, 96042, Note_on_c, 0, 60, 102
2, 96042, Note_on_c, 0, 79, 102
2, 96233, Note_on_c, 0, 60, 0
2, 96233, Note_on_c, 0, 59, 0
2, 96234, Note_on_c, 0, 59, 102
2, 96426, Note_on_c, 0, 57, 102
2, 96522, Note_on_c, 0, 79, 0
2, 96617, Note_on_c, 0, 57, 0
2, 96618, Note_on_c, 0, 55, 102
2, 96618, Note_on_c, 0, 81, 102
2, 96713, Note_on_c, 0, 81, 0
2, 96714, Note_on_c, 0, 83, 102
2, 96809, Note_on_c, 0, 83, 0
2, 96809, Note_on_c, 0, 55, 0
2, 96809, Note_on_c, 0, 59, 0
2, 96810, Note_on_c, 0, 60, 102
2, 96810, Note_on_c, 0, 76, 102
2, 97002, Note_on_c, 0, 48, 102
2, 97193, Note_on_c, 0, 48, 0
2, 97194, Note_on_c, 0, 50, 102
2, 97372, Note_on_c, 0, 76, 0
2, 97385, Note_on_c, 0, 60, 0
2, 97386, Note_on_c, 0, 59, 102
2, 97386, Note_on_c, 0, 74, 102
2, 97574, Note_on_c, 0, 50, 0
2, 97577, Note_on_c, 0, 74, 0
2, 97577, Note_on_c, 0, 59, 0
2, 97578, Note_on_c, 0, 57, 102
2, 97578, Note_on_c, 0, 52, 102
2, 97578, Note_on_c, 0, 72, 102
2, 97769, Note_on_c, 0, 57, 0
2, 97770, Note_on_c, 0, 56, 102
2, 97865, Note_on_c, 0, 72, 0
2, 97866, Note_on_c, 0, 71, 102
2, 97958, Note_on_c, 0, 52, 0
2, 97961, Note_on_c, 0, 71, 0
2, 97961, Note_on_c, 0, 56, 0
2, 97962, Note_on_c, 0, 57, 102
2, 97962, Note_on_c, 0, 72, 102
2, 98057, Note_on_c, 0, 72, 0
2, 98058, Note_on_c, 0, 71, 102
2, 98153, Note_on_c, 0, 71, 0
2, 98154, Note_on_c, 0, 52, 102
2, 98154, Note_on_c, 0, 72, 102
2, 98342, Note_on_c, 0, 57, 0
2, 98345, Note_on_c, 0, 52, 0
2, 98346, Note_on_c, 0, 45, 102
2, 98537, Note_on_c, 0, 45, 0
2, 98537, Note_on_c, 0, 72, 0
2, 98538, Note_on_c, 0, 47, 102
2, 98538, Note_on_c, 0, 71, 102
2, 98729, Note_on_c, 0, 71, 0
2, 98729, Note_on_c, 0, 47, 0
2, 98730, Note_on_c, 0, 48, 102
2, 98730, Note_on_c, 0, 69, 102
2, 98921, Note_on_c, 0, 48, 0
2, 98922, Note_on_c, 0, 52, 102
2, 99010, Note_on_c, 0, 69, 0
2, 99113, Note_on_c, 0, 52, 0
2, 99120, Note_on_c, 0, 84, 102
2, 99120, Note_on_c, 0, 57, 102
2, 99312, Note_on_c, 0, 60, 102
2, 99503, Note_on_c, 0, 60, 0
2, 99504, Note_on_c, 0, 66, 102
2, 99695, Note_on_c, 0, 57, 0
2, 99695, Note_on_c, 0, 84, 0
2, 99696, Note_on_c, 0, 83, 102
2, 99696, Note_on_c, 0, 57, 102
2, 99791, Note_on_c, 0, 83, 0
2, 99792, Note_on_c, 0, 81, 102
2, 99884, Note_on_c, 0, 66, 0
2, 99887, Note_on_c, 0, 81, 0
2, 99887, Note_on_c, 0, 57, 0
2, 99888, Note_on_c, 0, 83, 102
2, 99888, Note_on_c, 0, 55, 102
2, 100080, Note_on_c, 0, 59, 102
2, 100175, Note_on_c, 0, 83, 0
2, 100176, Note_on_c, 0, 76, 102
2, 100268, Note_on_c, 0, 55, 0
2, 100271, Note_on_c, 0, 76, 0
2, 100271, Note_on_c, 0, 59, 0
2, 100272, Note_on_c, 0, 76, 102
2, 100272, Note_on_c, 0, 54, 102
2, 100399, Note_on_c, 0, 76, 0
2, 100400, Note_on_c, 0, 75, 102
2, 100463, Note_on_c, 0, 75, 0
2, 100464, Note_on_c, 0, 76, 102
2, 100464, Note_on_c, 0, 57, 102
2, 100527, Note_on_c, 0, 76, 0
2, 100528, Note_on_c, 0, 75, 102
2, 100591, Note_on_c, 0, 75, 0
2, 100592, Note_on_c, 0, 76, 102
2, 100655, Note_on_c, 0, 76, 0
2, 100655, Note_on_c, 0, 57, 0
2, 100656, Note_on_c, 0, 75, 102
2, 100656, Note_on_c, 0, 60, 102
2, 100847, Note_on_c, 0, 75, 0
2, 100847, Note_on_c, 0, 54, 0
2, 100848, Note_on_c, 0, 76, 102
2, 100848, Note_on_c, 0, 52, 102
2, 100943, Note_on_c, 0, 76, 0
2, 100944, Note_on_c, 0, 78, 102
2, 101036, Note_on_c, 0, 60, 0
2, 101039, Note_on_c, 0, 78, 0
2, 101039, Note_on_c, 0, 52, 0
2, 101040, Note_on_c, 0, 71, 102
2, 101040, Note_on_c, 0, 54, 102
2, 101040, Note_on_c, 0, 51, 102
2, 101304, Note_on_c, 0, 71, 0
2, 101328, Note_on_c, 0, 81, 102
2, 101423, Note_on_c, 0, 81, 0
2, 101423, Note_on_c, 0, 51, 0
2, 101423, Note_on_c, 0, 54, 0
2, 101424, Note_on_c, 0, 79, 102
2, 101424, Note_on_c, 0, 52, 102
2, 101615, Note_on_c, 0, 52, 0
2, 101616, Note_on_c, 0, 54, 102
2, 101616, Note_on_c, 0, 45, 102
2, 101711, Note_on_c, 0, 79, 0
2, 101712, Note_on_c, 0, 78, 102
2, 101807, Note_on_c, 0, 78, 0
2, 101807, Note_on_c, 0, 45, 0
2, 101808, Note_on_c, 0, 76, 102
2, 101808, Note_on_c, 0, 47, 102
2, 101935, Note_on_c, 0, 76, 0
2, 101936, Note_on_c, 0, 75, 102
2, 101996, Note_on_c, 0, 54, 0
2, 101999, Note_on_c, 0, 75, 0
2, 102000, Note_on_c, 0, 76, 102
2, 102000, Note_on_c, 0, 55, 102
2, 102063, Note_on_c, 0, 76, 0
2, 102064, Note_on_c, 0, 75, 102
2, 102127, Note_on_c, 0, 75, 0
2, 102128, Note_on_c, 0, 76, 102
2, 102191, Note_on_c, 0, 76, 0
2, 102191, Note_on_c, 0, 55, 0
2, 102192, Note_on_c, 0, 75, 102
2, 102192, Note_on_c, 0, 57, 102
2, 102383, Note_on_c, 0, 75, 0
2, 102384, Note_on_c, 0, 76, 102
2, 102575, Note_on_c, 0, 76, 0
2, 102575, Note_on_c, 0, 47, 0
2, 102576, Note_on_c, 0, 76, 102
2, 102576, Note_on_c, 0, 52, 102
2, 102671, Note_on_c, 0, 76, 0
2, 102672, Note_on_c, 0, 75, 102
2, 102767, Note_on_c, 0, 75, 0
2, 102767, Note_on_c, 0, 57, 0
2, 102768, Note_on_c, 0, 76, 102
2, 102768, Note_on_c, 0, 55, 102
2, 102863, Note_on_c, 0, 55, 0
2, 102864, Note_on_c, 0, 54, 102
2, 102959, Note_on_c, 0, 54, 0
2, 102960, Note_on_c, 0, 55, 102
2, 103151, Note_on_c, 0, 52, 0
2, 103152, Note_on_c, 0, 52, 102
2, 103340, Note_on_c, 0, 55, 0
2, 103344, Note_on_c, 0, 40, 102
2, 103432, Note_on_c, 0, 52, 0
2, 103535, Note_on_c, 0, 76, 0
2, 103727, Note_on_c, 0, 40, 0
2, 103740, Note_on_c, 0, 71, 102
2, 103740, Note_on_c, 0, 55, 102
2, 103740, Note_on_c, 0, 52, 102
2, 103835, Note_on_c, 0, 71, 0
2, 103836, Note_on_c, 0, 69, 102
2, 103931, Note_on_c, 0, 69, 0
2, 103932, Note_on_c, 0, 71, 102
2, 104123, Note_on_c, 0, 52, 0
2, 104124, Note_on_c, 0, 50, 102
2, 104315, Note_on_c, 0, 71, 0
2, 104316, Note_on_c, 0, 72, 102
2, 104507, Note_on_c, 0, 72, 0
2, 104507, Note_on_c, 0, 50, 0
2, 104508, Note_on_c, 0, 71, 102
2, 104508, Note_on_c, 0, 48, 102
2, 104571, Note_on_c, 0, 71, 0
2, 104572, Note_on_c, 0, 69, 102
2, 104635, Note_on_c, 0, 69, 0
2, 104636, Note_on_c, 0, 71, 102
2, 104699, Note_on_c, 0, 71, 0
2, 104700, Note_on_c, 0, 69, 102
2, 104795, Note_on_c, 0, 69, 0
2, 104796, Note_on_c, 0, 67, 102
2, 104891, Note_on_c, 0, 67, 0
2, 104891, Note_on_c, 0, 48, 0
2, 104892, Note_on_c, 0, 77, 102
2, 104892, Note_on_c, 0, 47, 102
2, 104987, Note_on_c, 0, 77, 0
2, 104988, Note_on_c, 0, 76, 102
2, 105083, Note_on_c, 0, 76, 0
2, 105084, Note_on_c, 0, 77, 102
2, 105272, Note_on_c, 0, 55, 0
2, 105275, Note_on_c, 0, 47, 0
2, 105276, Note_on_c, 0, 48, 102
2, 105468, Note_on_c, 0, 52, 102
2, 105659, Note_on_c, 0, 52, 0
2, 105659, Note_on_c, 0, 77, 0
2, 105660, Note_on_c, 0, 76, 102
2, 105660, Note_on_c, 0, 53, 102
2, 105851, Note_on_c, 0, 53, 0
2, 105852, Note_on_c, 0, 55, 102
2, 105940, Note_on_c, 0, 76, 0
2, 106043, Note_on_c, 0, 55, 0
2, 106043, Note_on_c, 0, 48, 0
2, 106044, Note_on_c, 0, 74, 102
2, 106044, Note_on_c, 0, 57, 102
2, 106044, Note_on_c, 0, 53, 102
2, 106235, Note_on_c, 0, 57, 0
2, 106235, Note_on_c, 0, 74, 0
2, 106236, Note_on_c, 0, 72, 102
2, 106236, Note_on_c, 0, 59, 102
2, 106331, Note_on_c, 0, 72, 0
2, 106332, Note_on_c, 0, 71, 102
2, 106427, Note_on_c, 0, 71, 0
2, 106427, Note_on_c, 0, 59, 0
2, 106428, Note_on_c, 0, 81, 102
2, 106428, Note_on_c, 0, 60, 102
2, 106619, Note_on_c, 0, 53, 0
2, 106620, Note_on_c, 0, 55, 102
2, 106715, Note_on_c, 0, 81, 0
2, 106716, Note_on_c, 0, 79, 102
2, 106811, Note_on_c, 0, 79, 0
2, 106811, Note_on_c, 0, 55, 0
2, 106812, Note_on_c, 0, 77, 102
2, 106812, Note_on_c, 0, 57, 102
2, 106907, Note_on_c, 0, 77, 0
2, 106908, Note_on_c, 0, 76, 102
2, 107003, Note_on_c, 0, 76, 0
2, 107003, Note_on_c, 0, 57, 0
2, 107004, Note_on_c, 0, 74, 102
2, 107004, Note_on_c, 0, 53, 102
2, 107099, Note_on_c, 0, 74, 0
2, 107100, Note_on_c, 0, 72, 102
2, 107195, Note_on_c, 0, 72, 0
2, 107195, Note_on_c, 0, 53, 0
2, 107196, Note_on_c, 0, 76, 102
2, 107196, Note_on_c, 0, 55, 102
2, 107578, Note_on_c, 0, 60, 0
2, 107579, Note_on_c, 0, 76, 0
2, 107580, Note_on_c, 0, 76, 102
2, 107580, Note_on_c, 0, 59, 102
2, 107643, Note_on_c, 0, 76, 0
2, 107644, Note_on_c, 0, 74, 102
2, 107707, Note_on_c, 0, 74, 0
2, 107708, Note_on_c, 0, 72, 102
2, 107771, Note_on_c, 0, 72, 0
2, 107772, Note_on_c, 0, 74, 102
2, 107963, Note_on_c, 0, 74, 0
2, 107963, Note_on_c, 0, 59, 0
2, 107963, Note_on_c, 0, 55, 0
2, 107964, Note_on_c, 0, 72, 102
2, 107964, Note_on_c, 0, 60, 102
2, 107964, Note_on_c, 0, 48, 102
2, 108244, Note_on_c, 0, 72, 0
2, 108347, Note_on_c, 0, 60, 0
2, 108354, Note_on_c, 0, 54, 102
2, 108354, Note_on_c, 0, 71, 102
2, 108539, Note_on_c, 0, 48, 0
2, 108545, Note_on_c, 0, 71, 0
2, 108546, Note_on_c, 0, 52, 102
2, 108546, Note_on_c, 0, 69, 102
2, 108737, Note_on_c, 0, 52, 0
2, 108738, Note_on_c, 0, 50, 102
2, 108929, Note_on_c, 0, 50, 0
2, 108929, Note_on_c, 0, 69, 0
2, 108930, Note_on_c, 0, 48, 102
2, 108930, Note_on_c, 0, 71, 102
2, 109121, Note_on_c, 0, 71, 0
2, 109121, Note_on_c, 0, 48, 0
2, 109121, Note_on_c, 0, 54, 0
2, 109122, Note_on_c, 0, 47, 102
2, 109122, Note_on_c, 0, 69, 102
2, 109185, Note_on_c, 0, 69, 0
2, 109186, Note_on_c, 0, 67, 102
2, 109249, Note_on_c, 0, 67, 0
2, 109250, Note_on_c, 0, 69, 102
2, 109313, Note_on_c, 0, 69, 0
2, 109313, Note_on_c, 0, 47, 0
2, 109314, Note_on_c, 0, 45, 102
2, 109314, Note_on_c, 0, 67, 102
2, 109409, Note_on_c, 0, 67, 0
2, 109410, Note_on_c, 0, 66, 102
2, 109505, Note_on_c, 0, 66, 0
2, 109505, Note_on_c, 0, 45, 0
2, 109506, Note_on_c, 0, 55, 102
2, 109506, Note_on_c, 0, 47, 102
2, 109506, Note_on_c, 0, 74, 102
2, 109697, Note_on_c, 0, 47, 0
2, 109698, Note_on_c, 0, 50, 102
2, 109889, Note_on_c, 0, 50, 0
2, 109889, Note_on_c, 0, 74, 0
2, 109890, Note_on_c, 0, 48, 102
2, 109890, Note_on_c, 0, 74, 102
2, 110081, Note_on_c, 0, 74, 0
2, 110081, Note_on_c, 0, 48, 0
2, 110082, Note_on_c, 0, 47, 102
2, 110082, Note_on_c, 0, 76, 102
2, 110177, Note_on_c, 0, 76, 0
2, 110178, Note_on_c, 0, 74, 102
2, 110273, Note_on_c, 0, 74, 0
2, 110273, Note_on_c, 0, 47, 0
2, 110273, Note_on_c, 0, 55, 0
2, 110274, Note_on_c, 0, 45, 102
2, 110274, Note_on_c, 0, 76, 102
2, 110465, Note_on_c, 0, 45, 0
2, 110466, Note_on_c, 0, 43, 102
2, 110554, Note_on_c, 0, 76, 0
2, 110657, Note_on_c, 0, 43, 0
2, 110658, Note_on_c, 0, 42, 102
2, 110658, Note_on_c, 0, 62, 102
2, 110753, Note_on_c, 0, 62, 0
2, 110754, Note_on_c, 0, 64, 102
2, 110849, Note_on_c, 0, 64, 0
2, 110850, Note_on_c, 0, 45, 102
2, 110850, Note_on_c, 0, 66, 102
2, 110945, Note_on_c, 0, 66, 0
2, 110946, Note_on_c, 0, 67, 102
2, 111041, Note_on_c, 0, 67, 0
2, 111041, Note_on_c, 0, 45, 0
2, 111042, Note_on_c, 0, 50, 102
2, 111042, Note_on_c, 0, 69, 102
2, 111137, Note_on_c, 0, 69, 0
2, 111138, Note_on_c, 0, 71, 102
2, 111233, Note_on_c, 0, 71, 0
2, 111233, Note_on_c, 0, 42, 0
2, 111234, Note_on_c, 0, 42, 102
2, 111234, Note_on_c, 0, 72, 102
2, 111329, Note_on_c, 0, 72, 0
2, 111330, Note_on_c, 0, 69, 102
2, 111425, Note_on_c, 0, 69, 0
2, 111425, Note_on_c, 0, 42, 0
2, 111426, Note_on_c, 0, 43, 102
2, 111426, Note_on_c, 0, 71, 102
2, 111489, Note_on_c, 0, 71, 0
2, 111490, Note_on_c, 0, 69, 102
2, 111553, Note_on_c, 0, 69, 0
2, 111554, Note_on_c, 0, 67, 102
2, 111617, Note_on_c, 0, 67, 0
2, 111617, Note_on_c, 0, 43, 0
2, 111617, Note_on_c, 0, 50, 0
2, 111618, Note_on_c, 0, 48, 102
2, 111618, Note_on_c, 0, 52, 102
2, 111618, Note_on_c, 0, 69, 102
2, 111681, Note_on_c, 0, 69, 0
2, 111682, Note_on_c, 0, 67, 102
2, 111745, Note_on_c, 0, 67, 0
2, 111746, Note_on_c, 0, 66, 102
2, 111809, Note_on_c, 0, 66, 0
2, 111809, Note_on_c, 0, 52, 0
2, 111809, Note_on_c, 0, 48, 0
2, 111810, Note_on_c, 0, 50, 102
2, 111810, Note_on_c, 0, 67, 102
2, 112002, Note_on_c, 0, 59, 102
2, 112193, Note_on_c, 0, 59, 0
2, 112193, Note_on_c, 0, 67, 0
2, 112194, Note_on_c, 0, 57, 102
2, 112194, Note_on_c, 0, 67, 102
2, 112257, Note_on_c, 0, 67, 0
2, 112258, Note_on_c, 0, 66, 102
2, 112321, Note_on_c, 0, 66, 0
2, 112322, Note_on_c, 0, 67, 102
2, 112385, Note_on_c, 0, 67, 0
2, 112385, Note_on_c, 0, 57, 0
2, 112386, Note_on_c, 0, 55, 102
2, 112386, Note_on_c, 0, 66, 102
2, 112481, Note_on_c, 0, 66, 0
2, 112482, Note_on_c, 0, 64, 102
2, 112577, Note_on_c, 0, 64, 0
2, 112577, Note_on_c, 0, 55, 0
2, 112578, Note_on_c, 0, 54, 102
2, 112578, Note_on_c, 0, 62, 102
2, 112670, Note_on_c, 0, 50, 0
2, 112770, Note_on_c, 0, 48, 102
2, 112858, Note_on_c, 0, 62, 0
2, 112958, Note_on_c, 0, 54, 0
2, 112961, Note_on_c, 0, 48, 0
2, 112980, Note_on_c, 0, 74, 102
2, 112980, Note_on_c, 0, 47, 102
2, 113075, Note_on_c, 0, 74, 0
2, 113076, Note_on_c, 0, 72, 102
2, 113171, Note_on_c, 0, 72, 0
2, 113172, Note_on_c, 0, 74, 102
2, 113172, Note_on_c, 0, 50, 102
2, 113363, Note_on_c, 0, 50, 0
2, 113364, Note_on_c, 0, 55, 102
2, 113555, Note_on_c, 0, 74, 0
2, 113555, Note_on_c, 0, 47, 0
2, 113556, Note_on_c, 0, 76, 102
2, 113556, Note_on_c, 0, 47, 102
2, 113747, Note_on_c, 0, 47, 0
2, 113747, Note_on_c, 0, 76, 0
2, 113748, Note_on_c, 0, 74, 102
2, 113748, Note_on_c, 0, 45, 102
2, 113811, Note_on_c, 0, 74, 0
2, 113812, Note_on_c, 0, 72, 102
2, 113875, Note_on_c, 0, 72, 0
2, 113876, Note_on_c, 0, 74, 102
2, 113939, Note_on_c, 0, 74, 0
2, 113939, Note_on_c, 0, 45, 0
2, 113940, Note_on_c, 0, 72, 102
2, 113940, Note_on_c, 0, 43, 102
2, 114035, Note_on_c, 0, 72, 0
2, 114036, Note_on_c, 0, 71, 102
2, 114131, Note_on_c, 0, 71, 0
2, 114131, Note_on_c, 0, 43, 0
2, 114132, Note_on_c, 0, 76, 102
2, 114132, Note_on_c, 0, 48, 102
2, 114324, Note_on_c, 0, 55, 0
2, 114324, Note_on_c, 0, 52, 102
2, 114515, Note_on_c, 0, 52, 0
2, 114515, Note_on_c, 0, 76, 0
2, 114516, Note_on_c, 0, 76, 102
2, 114516, Note_on_c, 0, 57, 102
2, 114579, Note_on_c, 0, 76, 0
2, 114580, Note_on_c, 0, 78, 102
2, 114643, Note_on_c, 0, 78, 0
2, 114644, Note_on_c, 0, 79, 102
2, 114707, Note_on_c, 0, 79, 0
2, 114707, Note_on_c, 0, 48, 0
2, 114708, Note_on_c, 0, 78, 102
2, 114708, Note_on_c, 0, 45, 102
2, 114771, Note_on_c, 0, 78, 0
2, 114772, Note_on_c, 0, 79, 102
2, 114835, Note_on_c, 0, 79, 0
2, 114836, Note_on_c, 0, 78, 102
2, 114899, Note_on_c, 0, 78, 0
2, 114899, Note_on_c, 0, 45, 0
2, 114900, Note_on_c, 0, 79, 102
2, 114900, Note_on_c, 0, 50, 102
2, 114963, Note_on_c, 0, 79, 0
2, 114964, Note_on_c, 0, 78, 102
2, 115027, Note_on_c, 0, 78, 0
2, 115028, Note_on_c, 0, 79, 102
2, 115091, Note_on_c, 0, 79, 0
2, 115091, Note_on_c, 0, 50, 0
2, 115092, Note_on_c, 0, 78, 102
2, 115092, Note_on_c, 0, 48, 102
2, 115155, Note_on_c, 0, 78, 0
2, 115156, Note_on_c, 0, 76, 102
2, 115219, Note_on_c, 0, 76, 0
2, 115220, Note_on_c, 0, 78, 102
2, 115283, Note_on_c, 0, 78, 0
2, 115283, Note_on_c, 0, 48, 0
2, 115283, Note_on_c, 0, 57, 0
2, 115284, Note_on_c, 0, 79, 102
2, 115284, Note_on_c, 0, 47, 102
2, 115476, Note_on_c, 0, 50, 102
2, 115664, Note_on_c, 0, 47, 0
2, 115667, Note_on_c, 0, 50, 0
2, 115668, Note_on_c, 0, 49, 102
2, 115838, Note_on_c, 0, 79, 0
2, 115860, Note_on_c, 0, 81, 102
2, 115860, Note_on_c, 0, 52, 102
2, 115955, Note_on_c, 0, 81, 0
2, 115956, Note_on_c, 0, 83, 102
2, 116051, Note_on_c, 0, 83, 0
2, 116051, Note_on_c, 0, 52, 0
2, 116052, Note_on_c, 0, 81, 102
2, 116052, Note_on_c, 0, 57, 102
2, 116147, Note_on_c, 0, 81, 0
2, 116148, Note_on_c, 0, 78, 102
2, 116243, Note_on_c, 0, 78, 0
2, 116243, Note_on_c, 0, 49, 0
2, 116244, Note_on_c, 0, 79, 102
2, 116244, Note_on_c, 0, 45, 102
2, 116435, Note_on_c, 0, 45, 0
2, 116435, Note_on_c, 0, 79, 0
2, 116436, Note_on_c, 0, 79, 102
2, 116436, Note_on_c, 0, 50, 102
2, 116563, Note_on_c, 0, 79, 0
2, 116564, Note_on_c, 0, 78, 102
2, 116627, Note_on_c, 0, 78, 0
2, 116627, Note_on_c, 0, 57, 0
2, 116628, Note_on_c, 0, 79, 102
2, 116628, Note_on_c, 0, 57, 102
2, 116691, Note_on_c, 0, 79, 0
2, 116692, Note_on_c, 0, 78, 102
2, 116755, Note_on_c, 0, 78, 0
2, 116756, Note_on_c, 0, 79, 102
2, 116819, Note_on_c, 0, 79, 0
2, 116819, Note_on_c, 0, 57, 0
2, 116820, Note_on_c, 0, 78, 102
2, 116820, Note_on_c, 0, 62, 102
2, 117011, Note_on_c, 0, 62, 0
2, 117011, Note_on_c, 0, 78, 0
2, 117012, Note_on_c, 0, 76, 102
2, 117012, Note_on_c, 0, 60, 102
2, 117203, Note_on_c, 0, 60, 0
2, 117203, Note_on_c, 0, 76, 0
2, 117204, Note_on_c, 0, 74, 102
2, 117204, Note_on_c, 0, 59, 102
2, 117395, Note_on_c, 0, 59, 0
2, 117396, Note_on_c, 0, 57, 102
2, 117484, Note_on_c, 0, 74, 0
2, 117536, Note_on_c, 0, 50, 0
2, 117587, Note_on_c, 0, 57, 0
2, 117594, Note_on_c, 0, 52, 102
2, 117594, Note_on_c, 0, 55, 102
2, 117594, Note_on_c, 0, 74, 102
2, 117689, Note_on_c, 0, 74, 0
2, 117690, Note_on_c, 0, 72, 102
2, 117785, Note_on_c, 0, 72, 0
2, 117785, Note_on_c, 0, 52, 0
2, 117786, Note_on_c, 0, 50, 102
2, 117786, Note_on_c, 0, 71, 102
2, 117881, Note_on_c, 0, 71, 0
2, 117882, Note_on_c, 0, 72, 102
2, 117974, Note_on_c, 0, 55, 0
2, 117977, Note_on_c, 0, 72, 0
2, 117977, Note_on_c, 0, 50, 0
2, 117978, Note_on_c, 0, 48, 102
2, 117978, Note_on_c, 0, 57, 102
2, 117978, Note_on_c, 0, 66, 102
2, 118169, Note_on_c, 0, 48, 0
2, 118170, Note_on_c, 0, 47, 102
2, 118358, Note_on_c, 0, 57, 0
2, 118361, Note_on_c, 0, 47, 0
2, 118362, Note_on_c, 0, 45, 102
2, 118535, Note_on_c, 0, 66, 0
2, 118553, Note_on_c, 0, 45, 0
2, 118554, Note_on_c, 0, 43, 102
2, 118554, Note_on_c, 0, 67, 102
2, 118649, Note_on_c, 0, 67, 0
2, 118650, Note_on_c, 0, 69, 102
2, 118745, Note_on_c, 0, 69, 0
2, 118745, Note_on_c, 0, 43, 0
2, 118746, Note_on_c, 0, 42, 102
2, 118746, Note_on_c, 0, 62, 102
2, 118937, Note_on_c, 0, 62, 0
2, 118937, Note_on_c, 0, 42, 0
2, 118938, Note_on_c, 0, 48, 102
2, 118938, Note_on_c, 0, 64, 102
2, 119033, Note_on_c, 0, 64, 0
2, 119034, Note_on_c, 0, 66, 102
2, 119129, Note_on_c, 0, 66, 0
2, 119129, Note_on_c, 0, 48, 0
2, 119130, Note_on_c, 0, 47, 102
2, 119130, Note_on_c, 0, 67, 102
2, 119225, Note_on_c, 0, 67, 0
2, 119226, Note_on_c, 0, 69, 102
2, 119321, Note_on_c, 0, 69, 0
2, 119321, Note_on_c, 0, 47, 0
2, 119322, Note_on_c, 0, 45, 102
2, 119322, Note_on_c, 0, 48, 102
2, 119322, Note_on_c, 0, 71, 102
2, 119417, Note_on_c, 0, 71, 0
2, 119418, Note_on_c, 0, 72, 102
2, 119513, Note_on_c, 0, 72, 0
2, 119513, Note_on_c, 0, 48, 0
2, 119513, Note_on_c, 0, 45, 0
2, 119514, Note_on_c, 0, 43, 102
2, 119514, Note_on_c, 0, 47, 102
2, 119514, Note_on_c, 0, 74, 102
2, 119609, Note_on_c, 0, 74, 0
2, 119610, Note_on_c, 0, 79, 102
2, 119705, Note_on_c, 0, 79, 0
2, 119705, Note_on_c, 0, 47, 0
2, 119705, Note_on_c, 0, 43, 0
2, 119706, Note_on_c, 0, 48, 102
2, 119706, Note_on_c, 0, 45, 102
2, 119706, Note_on_c, 0, 78, 102
2, 119801, Note_on_c, 0, 78, 0
2, 119802, Note_on_c, 0, 76, 102
2, 119897, Note_on_c, 0, 76, 0
2, 119897, Note_on_c, 0, 45, 0
2, 119897, Note_on_c, 0, 48, 0
2, 119898, Note_on_c, 0, 47, 102
2, 119898, Note_on_c, 0, 50, 102
2, 119898, Note_on_c, 0, 74, 102
2, 119963, Note_on_c, 0, 74, 0
2, 119964, Note_on_c, 0, 72, 102
2, 120029, Note_on_c, 0, 72, 0
2, 120032, Note_on_c, 0, 71, 102
2, 120097, Note_on_c, 0, 71, 0
2, 120099, Note_on_c, 0, 50, 0
2, 120099, Note_on_c, 0, 47, 0
2, 120100, Note_on_c, 0, 55, 102
2, 120100, Note_on_c, 0, 48, 102
2, 120100, Note_on_c, 0, 76, 102
2, 120165, Note_on_c, 0, 76, 0
2, 120168, Note_on_c, 0, 74, 102
2, 120233, Note_on_c, 0, 74, 0
2, 120236, Note_on_c, 0, 72, 102
2, 120301, Note_on_c, 0, 72, 0
2, 120301, Note_on_c, 0, 48, 0
2, 120304, Note_on_c, 0, 71, 102
2, 120304, Note_on_c, 0, 50, 102
2, 120502, Note_on_c, 0, 55, 0
2, 120513, Note_on_c, 0, 52, 102
2, 120720, Note_on_c, 0, 52, 0
2, 120721, Note_on_c, 0, 71, 0
2, 120724, Note_on_c, 0, 54, 102
2, 120724, Note_on_c, 0, 71, 102
2, 120791, Note_on_c, 0, 71, 0
2, 120795, Note_on_c, 0, 69, 102
2, 120862, Note_on_c, 0, 69, 0
2, 120867, Note_on_c, 0, 71, 102
2, 120934, Note_on_c, 0, 71, 0
2, 120937, Note_on_c, 0, 54, 0
2, 120939, Note_on_c, 0, 60, 102
2, 120939, Note_on_c, 0, 69, 102
2, 121043, Note_on_c, 0, 69, 0
2, 121047, Note_on_c, 0, 67, 102
2, 121141, Note_on_c, 0, 50, 0
2, 121151, Note_on_c, 0, 67, 0
2, 121155, Note_on_c, 0, 67, 102
2, 121155, Note_on_c, 0, 55, 102
2, 121365, Note_on_c, 0, 60, 0
2, 121377, Note_on_c, 0, 59, 102
2, 121484, Note_on_c, 0, 59, 0
2, 121489, Note_on_c, 0, 57, 102
2, 121596, Note_on_c, 0, 57, 0
2, 121600, Note_on_c, 0, 59, 102
2, 121812, Note_on_c, 0, 55, 0
2, 121828, Note_on_c, 0, 55, 102
2, 122051, Note_on_c, 0, 59, 0
2, 122070, Note_on_c, 0, 55, 0
2, 122084, Note_on_c, 0, 43, 102
2, 122485, Note_on_c, 0, 67, 0
2, 122851, Note_on_c, 0, 43, 0
2, 124416, Note_on_c, 0, 55, 102
2, 124416, Note_on_c, 0, 83, 102
2, 124416, Note_on_c, 0, 74, 102
2, 124607, Note_on_c, 0, 74, 0
2, 124607, Note_on_c, 0, 83, 0
2, 124607, Note_on_c, 0, 55, 0
2, 124608, Note_on_c, 0, 67, 102
2, 124608, Note_on_c, 0, 79, 102
2, 124608, Note_on_c, 0, 71, 102
2, 124799, Note_on_c, 0, 71, 0
2, 124799, Note_on_c, 0, 79, 0
2, 124799, Note_on_c, 0, 67, 0
2, 124800, Note_on_c, 0, 66, 102
2, 124800, Note_on_c, 0, 69, 102
2, 124800, Note_on_c, 0, 74, 102
2, 124991, Note_on_c, 0, 74, 0
2, 124991, Note_on_c, 0, 66, 0
2, 124992, Note_on_c, 0, 54, 102
2, 124992, Note_on_c, 0, 76, 102
2, 125087, Note_on_c, 0, 76, 0
2, 125088, Note_on_c, 0, 78, 102
2, 125180, Note_on_c, 0, 69, 0
2, 125183, Note_on_c, 0, 78, 0
2, 125183, Note_on_c, 0, 54, 0
2, 125184, Note_on_c, 0, 52, 102
2, 125184, Note_on_c, 0, 79, 102
2, 125184, Note_on_c, 0, 71, 102
2, 125375, Note_on_c, 0, 71, 0
2, 125375, Note_on_c, 0, 79, 0
2, 125375, Note_on_c, 0, 52, 0
2, 125376, Note_on_c, 0, 64, 102
2, 125376, Note_on_c, 0, 76, 102
2, 125376, Note_on_c, 0, 67, 102
2, 125567, Note_on_c, 0, 67, 0
2, 125567, Note_on_c, 0, 76, 0
2, 125567, Note_on_c, 0, 64, 0
2, 125568, Note_on_c, 0, 62, 102
2, 125568, Note_on_c, 0, 66, 102
2, 125568, Note_on_c, 0, 71, 102
2, 125759, Note_on_c, 0, 62, 0
2, 125760, Note_on_c, 0, 50, 102
2, 125848, Note_on_c, 0, 71, 0
2, 125951, Note_on_c, 0, 50, 0
2, 125951, Note_on_c, 0, 66, 0
2, 125952, Note_on_c, 0, 48, 102
2, 125952, Note_on_c, 0, 76, 102
2, 125952, Note_on_c, 0, 67, 102
2, 126143, Note_on_c, 0, 67, 0
2, 126143, Note_on_c, 0, 76, 0
2, 126143, Note_on_c, 0, 48, 0
2, 126144, Note_on_c, 0, 60, 102
2, 126144, Note_on_c, 0, 72, 102
2, 126144, Note_on_c, 0, 69, 102
2, 126335, Note_on_c, 0, 69, 0
2, 126335, Note_on_c, 0, 72, 0
2, 126335, Note_on_c, 0, 60, 0
2, 126336, Note_on_c, 0, 62, 102
2, 126336, Note_on_c, 0, 69, 102
2, 126336, Note_on_c, 0, 66, 102
2, 126527, Note_on_c, 0, 66, 0
2, 126527, Note_on_c, 0, 69, 0
2, 126527, Note_on_c, 0, 62, 0
2, 126528, Note_on_c, 0, 57, 102
2, 126528, Note_on_c, 0, 71, 102
2, 126623, Note_on_c, 0, 71, 0
2, 126624, Note_on_c, 0, 72, 102
2, 126719, Note_on_c, 0, 72, 0
2, 126719, Note_on_c, 0, 57, 0
2, 126720, Note_on_c, 0, 54, 102
2, 126720, Note_on_c, 0, 74, 102
2, 126720, Note_on_c, 0, 69, 102
2, 126815, Note_on_c, 0, 74, 0
2, 126816, Note_on_c, 0, 71, 102
2, 126910, Note_on_c, 0, 69, 0
2, 126911, Note_on_c, 0, 71, 0
2, 126911, Note_on_c, 0, 54, 0
2, 126912, Note_on_c, 0, 50, 102
2, 126912, Note_on_c, 0, 72, 102
2, 127007, Note_on_c, 0, 72, 0
2, 127008, Note_on_c, 0, 69, 102
2, 127103, Note_on_c, 0, 69, 0
2, 127103, Note_on_c, 0, 50, 0
2, 127104, Note_on_c, 0, 55, 102
2, 127104, Note_on_c, 0, 72, 102
2, 127104, Note_on_c, 0, 67, 102
2, 127199, Note_on_c, 0, 72, 0
2, 127200, Note_on_c, 0, 71, 102
2, 127294, Note_on_c, 0, 67, 0
2, 127295, Note_on_c, 0, 71, 0
2, 127295, Note_on_c, 0, 55, 0
2, 127296, Note_on_c, 0, 50, 102
2, 127296, Note_on_c, 0, 69, 102
2, 127391, Note_on_c, 0, 69, 0
2, 127392, Note_on_c, 0, 67, 102
2, 127487, Note_on_c, 0, 67, 0
2, 127487, Note_on_c, 0, 50, 0
2, 127488, Note_on_c, 0, 43, 102
2, 127488, Note_on_c, 0, 83, 102
2, 127488, Note_on_c, 0, 74, 102
2, 127583, Note_on_c, 0, 43, 0
2, 127584, Note_on_c, 0, 50, 102
2, 127679, Note_on_c, 0, 50, 0
2, 127679, Note_on_c, 0, 74, 0
2, 127679, Note_on_c, 0, 83, 0
2, 127680, Note_on_c, 0, 52, 102
2, 127680, Note_on_c, 0, 79, 102
2, 127680, Note_on_c, 0, 71, 102
2, 127775, Note_on_c, 0, 52, 0
2, 127776, Note_on_c, 0, 54, 102
2, 127871, Note_on_c, 0, 54, 0
2, 127871, Note_on_c, 0, 71, 0
2, 127871, Note_on_c, 0, 79, 0
2, 127872, Note_on_c, 0, 55, 102
2, 127872, Note_on_c, 0, 73, 102
2, 127872, Note_on_c, 0, 76, 102
2, 127967, Note_on_c, 0, 55, 0
2, 127968, Note_on_c, 0, 57, 102
2, 128063, Note_on_c, 0, 57, 0
2, 128063, Note_on_c, 0, 76, 0
2, 128063, Note_on_c, 0, 73, 0
2, 128064, Note_on_c, 0, 55, 102
2, 128064, Note_on_c, 0, 76, 102
2, 128064, Note_on_c, 0, 73, 102
2, 128159, Note_on_c, 0, 73, 0
2, 128159, Note_on_c, 0, 76, 0
2, 128159, Note_on_c, 0, 55, 0
2, 128160, Note_on_c, 0, 54, 102
2, 128160, Note_on_c, 0, 74, 102
2, 128160, Note_on_c, 0, 78, 102
2, 128255, Note_on_c, 0, 78, 0
2, 128255, Note_on_c, 0, 74, 0
2, 128255, Note_on_c, 0, 54, 0
2, 128256, Note_on_c, 0, 52, 102
2, 128256, Note_on_c, 0, 79, 102
2, 128256, Note_on_c, 0, 76, 102
2, 128351, Note_on_c, 0, 52, 0
2, 128352, Note_on_c, 0, 50, 102
2, 128447, Note_on_c, 0, 50, 0
2, 128447, Note_on_c, 0, 76, 0
2, 128447, Note_on_c, 0, 79, 0
2, 128448, Note_on_c, 0, 52, 102
2, 128448, Note_on_c, 0, 76, 102
2, 128448, Note_on_c, 0, 73, 102
2, 128543, Note_on_c, 0, 52, 0
2, 128544, Note_on_c, 0, 54, 102
2, 128639, Note_on_c, 0, 54, 0
2, 128639, Note_on_c, 0, 73, 0
2, 128639, Note_on_c, 0, 76, 0
2, 128640, Note_on_c, 0, 55, 102
2, 128640, Note_on_c, 0, 69, 102
2, 128640, Note_on_c, 0, 73, 102
2, 128735, Note_on_c, 0, 55, 0
2, 128736, Note_on_c, 0, 57, 102
2, 128831, Note_on_c, 0, 57, 0
2, 128831, Note_on_c, 0, 73, 0
2, 128832, Note_on_c, 0, 59, 102
2, 128832, Note_on_c, 0, 74, 102
2, 128927, Note_on_c, 0, 74, 0
2, 128927, Note_on_c, 0, 59, 0
2, 128928, Note_on_c, 0, 61, 102
2, 128928, Note_on_c, 0, 76, 102
2, 129023, Note_on_c, 0, 76, 0
2, 129023, Note_on_c, 0, 61, 0
2, 129024, Note_on_c, 0, 62, 102
2, 129024, Note_on_c, 0, 78, 102
2, 129119, Note_on_c, 0, 78, 0
2, 129120, Note_on_c, 0, 74, 102
2, 129215, Note_on_c, 0, 74, 0
2, 129215, Note_on_c, 0, 62, 0
2, 129216, Note_on_c, 0, 61, 102
2, 129216, Note_on_c, 0, 79, 102
2, 129311, Note_on_c, 0, 79, 0
2, 129312, Note_on_c, 0, 76, 102
2, 129407, Note_on_c, 0, 76, 0
2, 129407, Note_on_c, 0, 61, 0
2, 129408, Note_on_c, 0, 62, 102
2, 129408, Note_on_c, 0, 78, 102
2, 129503, Note_on_c, 0, 78, 0
2, 129504, Note_on_c, 0, 74, 102
2, 129599, Note_on_c, 0, 74, 0
2, 129599, Note_on_c, 0, 62, 0
2, 129600, Note_on_c, 0, 69, 0
2, 129600, Note_on_c, 0, 54, 102
2, 129600, Note_on_c, 0, 81, 102
2, 129600, Note_on_c, 0, 74, 102
2, 129695, Note_on_c, 0, 54, 0
2, 129696, Note_on_c, 0, 55, 102
2, 129791, Note_on_c, 0, 55, 0
2, 129791, Note_on_c, 0, 81, 0
2, 129792, Note_on_c, 0, 57, 102
2, 129792, Note_on_c, 0, 79, 102
2, 129887, Note_on_c, 0, 79, 0
2, 129888, Note_on_c, 0, 78, 102
2, 129980, Note_on_c, 0, 74, 0
2, 129983, Note_on_c, 0, 78, 0
2, 129983, Note_on_c, 0, 57, 0
2, 129984, Note_on_c, 0, 45, 102
2, 129984, Note_on_c, 0, 76, 102
2, 129984, Note_on_c, 0, 73, 102
2, 130079, Note_on_c, 0, 76, 0
2, 130080, Note_on_c, 0, 78, 102
2, 130174, Note_on_c, 0, 73, 0
2, 130175, Note_on_c, 0, 78, 0
2, 130175, Note_on_c, 0, 45, 0
2, 130176, Note_on_c, 0, 50, 102
2, 130176, Note_on_c, 0, 74, 102
2, 130456, Note_on_c, 0, 74, 0
2, 130559, Note_on_c, 0, 50, 0
2, 130560, Note_on_c, 0, 62, 102
2, 130560, Note_on_c, 0, 69, 102
2, 130560, Note_on_c, 0, 66, 102
2, 130751, Note_on_c, 0, 66, 0
2, 130751, Note_on_c, 0, 69, 0
2, 130751, Note_on_c, 0, 62, 0
2, 130752, Note_on_c, 0, 57, 102
2, 130752, Note_on_c, 0, 69, 102
2, 130752, Note_on_c, 0, 66, 102
2, 130752, Note_on_c, 0, 74, 102
2, 130943, Note_on_c, 0, 74, 0
2, 130943, Note_on_c, 0, 57, 0
2, 130943, Note_on_c, 0, 69, 0
2, 130943, Note_on_c, 0, 66, 0
2, 130944, Note_on_c, 0, 55, 102
2, 130944, Note_on_c, 0, 69, 102
2, 130944, Note_on_c, 0, 78, 102
2, 130944, Note_on_c, 0, 74, 102
2, 131039, Note_on_c, 0, 55, 0
2, 131040, Note_on_c, 0, 54, 102
2, 131135, Note_on_c, 0, 54, 0
2, 131136, Note_on_c, 0, 52, 102
2, 131231, Note_on_c, 0, 52, 0
2, 131232, Note_on_c, 0, 50, 102
2, 131327, Note_on_c, 0, 50, 0
2, 131327, Note_on_c, 0, 74, 0
2, 131327, Note_on_c, 0, 78, 0
2, 131327, Note_on_c, 0, 69, 0
2, 131328, Note_on_c, 0, 57, 102
2, 131328, Note_on_c, 0, 79, 102
2, 131423, Note_on_c, 0, 79, 0
2, 131424, Note_on_c, 0, 78, 102
2, 131519, Note_on_c, 0, 78, 0
2, 131519, Note_on_c, 0, 57, 0
2, 131520, Note_on_c, 0, 60, 102
2, 131520, Note_on_c, 0, 76, 102
2, 131615, Note_on_c, 0, 76, 0
2, 131616, Note_on_c, 0, 74, 102
2, 131711, Note_on_c, 0, 74, 0
2, 131711, Note_on_c, 0, 60, 0
2, 131712, Note_on_c, 0, 59, 102
2, 131712, Note_on_c, 0, 67, 102
2, 131712, Note_on_c, 0, 79, 102
2, 131712, Note_on_c, 0, 74, 102
2, 131807, Note_on_c, 0, 59, 0
2, 131808, Note_on_c, 0, 60, 102
2, 131903, Note_on_c, 0, 60, 0
2, 131903, Note_on_c, 0, 74, 0
2, 131903, Note_on_c, 0, 79, 0
2, 131903, Note_on_c, 0, 67, 0
2, 131904, Note_on_c, 0, 59, 102
2, 131904, Note_on_c, 0, 74, 102
2, 131999, Note_on_c, 0, 59, 0
2, 132000, Note_on_c, 0, 57, 102
2, 132095, Note_on_c, 0, 57, 0
2, 132095, Note_on_c, 0, 74, 0
2, 132096, Note_on_c, 0, 55, 102
2, 132096, Note_on_c, 0, 79, 102
2, 132096, Note_on_c, 0, 74, 102
2, 132096, Note_on_c, 0, 83, 102
2, 132191, Note_on_c, 0, 55, 0
2, 132192, Note_on_c, 0, 57, 102
2, 132287, Note_on_c, 0, 57, 0
2, 132287, Note_on_c, 0, 83, 0
2, 132287, Note_on_c, 0, 74, 0
2, 132287, Note_on_c, 0, 79, 0
2, 132288, Note_on_c, 0, 59, 102
2, 132288, Note_on_c, 0, 71, 102
2, 132288, Note_on_c, 0, 79, 102
2, 132383, Note_on_c, 0, 59, 0
2, 132384, Note_on_c, 0, 55, 102
2, 132479, Note_on_c, 0, 55, 0
2, 132479, Note_on_c, 0, 79, 0
2, 132479, Note_on_c, 0, 71, 0
2, 132480, Note_on_c, 0, 60, 102
2, 132480, Note_on_c, 0, 76, 102
2, 132480, Note_on_c, 0, 67, 102
2, 132575, Note_on_c, 0, 60, 0
2, 132576, Note_on_c, 0, 62, 102
2, 132671, Note_on_c, 0, 62, 0
2, 132671, Note_on_c, 0, 67, 0
2, 132671, Note_on_c, 0, 76, 0
2, 132672, Note_on_c, 0, 60, 102
2, 132672, Note_on_c, 0, 69, 102
2, 132672, Note_on_c, 0, 78, 102
2, 132767, Note_on_c, 0, 78, 0
2, 132767, Note_on_c, 0, 69, 0
2, 132767, Note_on_c, 0, 60, 0
2, 132768, Note_on_c, 0, 59, 102
2, 132768, Note_on_c, 0, 71, 102
2, 132768, Note_on_c, 0, 79, 102
2, 132863, Note_on_c, 0, 79, 0
2, 132863, Note_on_c, 0, 71, 0
2, 132863, Note_on_c, 0, 59, 0
2, 132864, Note_on_c, 0, 57, 102
2, 132864, Note_on_c, 0, 81, 102
2, 132864, Note_on_c, 0, 72, 102
2, 132959, Note_on_c, 0, 57, 0
2, 132960, Note_on_c, 0, 59, 102
2, 133055, Note_on_c, 0, 59, 0
2, 133055, Note_on_c, 0, 72, 0
2, 133055, Note_on_c, 0, 81, 0
2, 133056, Note_on_c, 0, 60, 102
2, 133056, Note_on_c, 0, 69, 102
2, 133056, Note_on_c, 0, 78, 102
2, 133151, Note_on_c, 0, 60, 0
2, 133152, Note_on_c, 0, 57, 102
2, 133247, Note_on_c, 0, 57, 0
2, 133247, Note_on_c, 0, 78, 0
2, 133247, Note_on_c, 0, 69, 0
2, 133248, Note_on_c, 0, 59, 102
2, 133248, Note_on_c, 0, 75, 102
2, 133248, Note_on_c, 0, 66, 102
2, 133439, Note_on_c, 0, 59, 0
2, 133440, Note_on_c, 0, 47, 102
2, 133528, Note_on_c, 0, 75, 0
2, 133630, Note_on_c, 0, 47, 0
2, 133631, Note_on_c, 0, 66, 0
2, 133632, Note_on_c, 0, 71, 102
2, 133728, Note_on_c, 0, 73, 102
2, 133822, Note_on_c, 0, 71, 0
2, 133823, Note_on_c, 0, 73, 0
2, 133824, Note_on_c, 0, 66, 102
2, 133824, Note_on_c, 0, 75, 102
2, 133919, Note_on_c, 0, 75, 0
2, 133920, Note_on_c, 0, 76, 102
2, 134015, Note_on_c, 0, 76, 0
2, 134015, Note_on_c, 0, 66, 0
2, 134016, Note_on_c, 0, 63, 102
2, 134016, Note_on_c, 0, 78, 102
2, 134111, Note_on_c, 0, 78, 0
2, 134112, Note_on_c, 0, 79, 102
2, 134207, Note_on_c, 0, 79, 0
2, 134207, Note_on_c, 0, 63, 0
2, 134208, Note_on_c, 0, 63, 102
2, 134208, Note_on_c, 0, 78, 102
2, 134303, Note_on_c, 0, 78, 0
2, 134303, Note_on_c, 0, 63, 0
2, 134304, Note_on_c, 0, 64, 102
2, 134304, Note_on_c, 0, 76, 102
2, 134399, Note_on_c, 0, 76, 0
2, 134399, Note_on_c, 0, 64, 0
2, 134400, Note_on_c, 0, 66, 102
2, 134400, Note_on_c, 0, 75, 102
2, 134495, Note_on_c, 0, 75, 0
2, 134496, Note_on_c, 0, 76, 102
2, 134591, Note_on_c, 0, 76, 0
2, 134591, Note_on_c, 0, 66, 0
2, 134592, Note_on_c, 0, 63, 102
2, 134592, Note_on_c, 0, 78, 102
2, 134687, Note_on_c, 0, 78, 0
2, 134688, Note_on_c, 0, 79, 102
2, 134783, Note_on_c, 0, 79, 0
2, 134783, Note_on_c, 0, 63, 0
2, 134784, Note_on_c, 0, 59, 102
2, 134784, Note_on_c, 0, 81, 102
2, 134879, Note_on_c, 0, 81, 0
2, 134880, Note_on_c, 0, 83, 102
2, 134975, Note_on_c, 0, 83, 0
2, 134975, Note_on_c, 0, 59, 0
2, 134976, Note_on_c, 0, 59, 102
2, 134976, Note_on_c, 0, 81, 102
2, 135071, Note_on_c, 0, 81, 0
2, 135071, Note_on_c, 0, 59, 0
2, 135072, Note_on_c, 0, 61, 102
2, 135072, Note_on_c, 0, 79, 102
2, 135167, Note_on_c, 0, 79, 0
2, 135167, Note_on_c, 0, 61, 0
2, 135168, Note_on_c, 0, 63, 102
2, 135168, Note_on_c, 0, 78, 102
2, 135263, Note_on_c, 0, 78, 0
2, 135264, Note_on_c, 0, 79, 102
2, 135359, Note_on_c, 0, 79, 0
2, 135359, Note_on_c, 0, 63, 0
2, 135360, Note_on_c, 0, 59, 102
2, 135360, Note_on_c, 0, 81, 102
2, 135455, Note_on_c, 0, 81, 0
2, 135456, Note_on_c, 0, 83, 102
2, 135551, Note_on_c, 0, 83, 0
2, 135551, Note_on_c, 0, 59, 0
2, 135552, Note_on_c, 0, 55, 102
2, 135552, Note_on_c, 0, 84, 102
2, 135647, Note_on_c, 0, 84, 0
2, 135647, Note_on_c, 0, 55, 0
2, 135648, Note_on_c, 0, 54, 102
2, 135648, Note_on_c, 0, 81, 102
2, 135743, Note_on_c, 0, 81, 0
2, 135743, Note_on_c, 0, 54, 0
2, 135744, Note_on_c, 0, 55, 102
2, 135744, Note_on_c, 0, 83, 102
2, 135839, Note_on_c, 0, 55, 0
2, 135840, Note_on_c, 0, 57, 102
2, 135935, Note_on_c, 0, 57, 0
2, 135935, Note_on_c, 0, 83, 0
2, 135936, Note_on_c, 0, 59, 102
2, 135936, Note_on_c, 0, 67, 102
2, 135936, Note_on_c, 0, 76, 102
2, 136127, Note_on_c, 0, 76, 0
2, 136127, Note_on_c, 0, 67, 0
2, 136127, Note_on_c, 0, 59, 0
2, 136128, Note_on_c, 0, 47, 102
2, 136128, Note_on_c, 0, 78, 102
2, 136128, Note_on_c, 0, 69, 102
2, 136223, Note_on_c, 0, 78, 0
2, 136224, Note_on_c, 0, 75, 102
2, 136318, Note_on_c, 0, 69, 0
2, 136319, Note_on_c, 0, 75, 0
2, 136319, Note_on_c, 0, 47, 0
2, 136320, Note_on_c, 0, 52, 102
2, 136320, Note_on_c, 0, 76, 102
2, 136320, Note_on_c, 0, 67, 102
2, 136511, Note_on_c, 0, 52, 0
2, 136512, Note_on_c, 0, 47, 102
2, 136560, Note_on_c, 0, 76, 0
2, 136703, Note_on_c, 0, 47, 0
2, 136703, Note_on_c, 0, 67, 0
2, 136704, Note_on_c, 0, 40, 102
2, 136704, Note_on_c, 0, 71, 102
2, 136704, Note_on_c, 0, 67, 102
2, 136799, Note_on_c, 0, 40, 0
2, 136800, Note_on_c, 0, 42, 102
2, 136895, Note_on_c, 0, 42, 0
2, 136895, Note_on_c, 0, 67, 0
2, 136895, Note_on_c, 0, 71, 0
2, 136896, Note_on_c, 0, 43, 102
2, 136896, Note_on_c, 0, 76, 102
2, 136896, Note_on_c, 0, 71, 102
2, 136991, Note_on_c, 0, 43, 0
2, 136992, Note_on_c, 0, 45, 102
2, 137087, Note_on_c, 0, 45, 0
2, 137087, Note_on_c, 0, 71, 0
2, 137087, Note_on_c, 0, 76, 0
2, 137088, Note_on_c, 0, 47, 102
2, 137088, Note_on_c, 0, 79, 102
2, 137088, Note_on_c, 0, 74, 102
2, 137183, Note_on_c, 0, 47, 0
2, 137184, Note_on_c, 0, 48, 102
2, 137279, Note_on_c, 0, 48, 0
2, 137280, Note_on_c, 0, 50, 102
2, 137368, Note_on_c, 0, 79, 0
2, 137375, Note_on_c, 0, 50, 0
2, 137376, Note_on_c, 0, 52, 102
2, 137471, Note_on_c, 0, 52, 0
2, 137471, Note_on_c, 0, 74, 0
2, 137472, Note_on_c, 0, 53, 102
2, 137472, Note_on_c, 0, 72, 102
2, 137567, Note_on_c, 0, 72, 0
2, 137567, Note_on_c, 0, 53, 0
2, 137568, Note_on_c, 0, 55, 102
2, 137568, Note_on_c, 0, 71, 102
2, 137663, Note_on_c, 0, 71, 0
2, 137663, Note_on_c, 0, 55, 0
2, 137664, Note_on_c, 0, 57, 102
2, 137664, Note_on_c, 0, 69, 102
2, 137759, Note_on_c, 0, 69, 0
2, 137759, Note_on_c, 0, 57, 0
2, 137760, Note_on_c, 0, 59, 102
2, 137760, Note_on_c, 0, 67, 102
2, 137855, Note_on_c, 0, 67, 0
2, 137855, Note_on_c, 0, 59, 0
2, 137856, Note_on_c, 0, 60, 102
2, 137856, Note_on_c, 0, 77, 102
2, 137951, Note_on_c, 0, 77, 0
2, 137951, Note_on_c, 0, 60, 0
2, 137952, Note_on_c, 0, 62, 102
2, 137952, Note_on_c, 0, 74, 102
2, 138047, Note_on_c, 0, 74, 0
2, 138047, Note_on_c, 0, 62, 0
2, 138048, Note_on_c, 0, 60, 102
2, 138048, Note_on_c, 0, 76, 102
2, 138143, Note_on_c, 0, 60, 0
2, 138144, Note_on_c, 0, 59, 102
2, 138208, Note_on_c, 0, 76, 0
2, 138239, Note_on_c, 0, 59, 0
2, 138240, Note_on_c, 0, 57, 102
2, 138240, Note_on_c, 0, 66, 102
2, 138335, Note_on_c, 0, 66, 0
2, 138335, Note_on_c, 0, 57, 0
2, 138336, Note_on_c, 0, 55, 102
2, 138336, Note_on_c, 0, 67, 102
2, 138431, Note_on_c, 0, 67, 0
2, 138431, Note_on_c, 0, 55, 0
2, 138432, Note_on_c, 0, 54, 102
2, 138432, Note_on_c, 0, 69, 102
2, 138527, Note_on_c, 0, 69, 0
2, 138527, Note_on_c, 0, 54, 0
2, 138528, Note_on_c, 0, 52, 102
2, 138528, Note_on_c, 0, 71, 102
2, 138623, Note_on_c, 0, 71, 0
2, 138623, Note_on_c, 0, 52, 0
2, 138624, Note_on_c, 0, 50, 102
2, 138624, Note_on_c, 0, 72, 102
2, 138719, Note_on_c, 0, 72, 0
2, 138719, Note_on_c, 0, 50, 0
2, 138720, Note_on_c, 0, 48, 102
2, 138720, Note_on_c, 0, 69, 102
2, 138815, Note_on_c, 0, 69, 0
2, 138815, Note_on_c, 0, 48, 0
2, 138816, Note_on_c, 0, 47, 102
2, 138816, Note_on_c, 0, 71, 102
2, 138911, Note_on_c, 0, 71, 0
2, 138911, Note_on_c, 0, 47, 0
2, 138912, Note_on_c, 0, 45, 102
2, 138912, Note_on_c, 0, 72, 102
2, 139007, Note_on_c, 0, 72, 0
2, 139007, Note_on_c, 0, 45, 0
2, 139008, Note_on_c, 0, 43, 102
2, 139008, Note_on_c, 0, 74, 102
2, 139103, Note_on_c, 0, 74, 0
2, 139103, Note_on_c, 0, 43, 0
2, 139104, Note_on_c, 0, 45, 102
2, 139104, Note_on_c, 0, 72, 102
2, 139199, Note_on_c, 0, 72, 0
2, 139199, Note_on_c, 0, 45, 0
2, 139200, Note_on_c, 0, 47, 102
2, 139200, Note_on_c, 0, 74, 102
2, 139295, Note_on_c, 0, 74, 0
2, 139295, Note_on_c, 0, 47, 0
2, 139296, Note_on_c, 0, 48, 102
2, 139296, Note_on_c, 0, 76, 102
2, 139391, Note_on_c, 0, 76, 0
2, 139391, Note_on_c, 0, 48, 0
2, 139392, Note_on_c, 0, 50, 102
2, 139392, Note_on_c, 0, 69, 102
2, 139392, Note_on_c, 0, 66, 102
2, 139487, Note_on_c, 0, 50, 0
2, 139488, Note_on_c, 0, 45, 102
2, 139583, Note_on_c, 0, 45, 0
2, 139584, Note_on_c, 0, 42, 102
2, 139672, Note_on_c, 0, 69, 0
2, 139679, Note_on_c, 0, 42, 0
2, 139680, Note_on_c, 0, 45, 102
2, 139775, Note_on_c, 0, 45, 0
2, 139775, Note_on_c, 0, 66, 0
2, 139776, Note_on_c, 0, 38, 102
2, 139776, Note_on_c, 0, 81, 102
2, 139776, Note_on_c, 0, 84, 102
2, 139871, Note_on_c, 0, 38, 0
2, 139872, Note_on_c, 0, 40, 102
2, 139967, Note_on_c, 0, 40, 0
2, 139967, Note_on_c, 0, 84, 0
2, 139967, Note_on_c, 0, 81, 0
2, 139968, Note_on_c, 0, 42, 102
2, 139968, Note_on_c, 0, 81, 102
2, 139968, Note_on_c, 0, 74, 102
2, 140063, Note_on_c, 0, 42, 0
2, 140064, Note_on_c, 0, 43, 102
2, 140159, Note_on_c, 0, 43, 0
2, 140159, Note_on_c, 0, 74, 0
2, 140159, Note_on_c, 0, 81, 0
2, 140160, Note_on_c, 0, 45, 102
2, 140160, Note_on_c, 0, 78, 102
2, 140160, Note_on_c, 0, 72, 102
2, 140255, Note_on_c, 0, 45, 0
2, 140256, Note_on_c, 0, 47, 102
2, 140351, Note_on_c, 0, 47, 0
2, 140351, Note_on_c, 0, 78, 0
2, 140352, Note_on_c, 0, 45, 102
2, 140352, Note_on_c, 0, 78, 102
2, 140447, Note_on_c, 0, 78, 0
2, 140447, Note_on_c, 0, 45, 0
2, 140448, Note_on_c, 0, 43, 102
2, 140448, Note_on_c, 0, 79, 102
2, 140540, Note_on_c, 0, 72, 0
2, 140543, Note_on_c, 0, 79, 0
2, 140543, Note_on_c, 0, 43, 0
2, 140544, Note_on_c, 0, 72, 102
2, 140544, Note_on_c, 0, 81, 102
2, 140544, Note_on_c, 0, 42, 102
2, 140641, Note_on_c, 0, 42, 0
2, 140642, Note_on_c, 0, 43, 102
2, 140739, Note_on_c, 0, 43, 0
2, 140740, Note_on_c, 0, 81, 0
2, 140740, Note_on_c, 0, 72, 0
2, 140741, Note_on_c, 0, 69, 102
2, 140741, Note_on_c, 0, 78, 102
2, 140741, Note_on_c, 0, 45, 102
2, 140838, Note_on_c, 0, 45, 0
2, 140840, Note_on_c, 0, 47, 102
2, 140937, Note_on_c, 0, 47, 0
2, 140937, Note_on_c, 0, 78, 0
2, 140937, Note_on_c, 0, 69, 0
2, 140939, Note_on_c, 0, 74, 102
2, 140939, Note_on_c, 0, 66, 102
2, 140939, Note_on_c, 0, 48, 102
2, 141036, Note_on_c, 0, 48, 0
2, 141038, Note_on_c, 0, 50, 102
2, 141135, Note_on_c, 0, 50, 0
2, 141135, Note_on_c, 0, 74, 0
2, 141137, Note_on_c, 0, 74, 102
2, 141137, Note_on_c, 0, 48, 102
2, 141234, Note_on_c, 0, 48, 0
2, 141234, Note_on_c, 0, 74, 0
2, 141236, Note_on_c, 0, 76, 102
2, 141236, Note_on_c, 0, 47, 102
2, 141330, Note_on_c, 0, 66, 0
2, 141333, Note_on_c, 0, 47, 0
2, 141333, Note_on_c, 0, 76, 0
2, 141335, Note_on_c, 0, 72, 102
2, 141335, Note_on_c, 0, 78, 102
2, 141335, Note_on_c, 0, 45, 102
2, 141436, Note_on_c, 0, 45, 0
2, 141436, Note_on_c, 0, 78, 0
2, 141438, Note_on_c, 0, 79, 102
2, 141438, Note_on_c, 0, 47, 102
2, 141539, Note_on_c, 0, 47, 0
2, 141539, Note_on_c, 0, 79, 0
2, 141543, Note_on_c, 0, 81, 102
2, 141543, Note_on_c, 0, 48, 102
2, 141644, Note_on_c, 0, 48, 0
2, 141644, Note_on_c, 0, 81, 0
2, 141648, Note_on_c, 0, 78, 102
2, 141648, Note_on_c, 0, 50, 102
2, 141749, Note_on_c, 0, 50, 0
2, 141749, Note_on_c, 0, 78, 0
2, 141749, Note_on_c, 0, 72, 0
2, 141753, Note_on_c, 0, 71, 102
2, 141753, Note_on_c, 0, 79, 102
2, 141753, Note_on_c, 0, 52, 102
2, 141860, Note_on_c, 0, 79, 0
2, 141862, Note_on_c, 0, 76, 102
2, 141969, Note_on_c, 0, 76, 0
2, 141971, Note_on_c, 0, 71, 0
2, 141972, Note_on_c, 0, 52, 0
2, 141974, Note_on_c, 0, 72, 102
2, 141974, Note_on_c, 0, 81, 102
2, 141974, Note_on_c, 0, 48, 102
2, 142193, Note_on_c, 0, 48, 0
2, 142193, Note_on_c, 0, 81, 0
2, 142193, Note_on_c, 0, 72, 0
2, 142197, Note_on_c, 0, 79, 102
2, 142197, Note_on_c, 0, 69, 102
2, 142197, Note_on_c, 0, 50, 102
2, 142251, Note_on_c, 0, 79, 0
2, 142256, Note_on_c, 0, 78, 102
2, 142310, Note_on_c, 0, 78, 0
2, 142312, Note_on_c, 0, 79, 102
2, 142366, Note_on_c, 0, 79, 0
2, 142374, Note_on_c, 0, 78, 102
2, 142428, Note_on_c, 0, 50, 0
2, 142433, Note_on_c, 0, 38, 102
2, 142546, Note_on_c, 0, 78, 0
2, 142550, Note_on_c, 0, 79, 102
2, 142661, Note_on_c, 0, 69, 0
2, 142663, Note_on_c, 0, 79, 0
2, 142664, Note_on_c, 0, 38, 0
2, 142667, Note_on_c, 0, 71, 102
2, 142667, Note_on_c, 0, 79, 102
2, 142667, Note_on_c, 0, 43, 102
2, 143347, Note_on_c, 0, 43, 0
2, 143347, Note_on_c, 0, 79, 0
2, 143347, Note_on_c, 0, 71, 0
2, 144350, Note_on_c, 0, 71, 102
2, 144445, Note_on_c, 0, 71, 0
2, 144469, Note_on_c, 0, 74, 102
2, 144564, Note_on_c, 0, 74, 0
2, 144576, Note_on_c, 0, 79, 102
2, 144623, Note_on_c, 0, 79, 0
2, 144624, Note_on_c, 0, 78, 102
2, 144671, Note_on_c, 0, 78, 0
2, 144672, Note_on_c, 0, 62, 102
2, 144672, Note_on_c, 0, 79, 102
2, 144767, Note_on_c, 0, 62, 0
2, 144768, Note_on_c, 0, 59, 102
2, 144863, Note_on_c, 0, 59, 0
2, 144863, Note_on_c, 0, 79, 0
2, 144864, Note_on_c, 0, 55, 102
2, 144864, Note_on_c, 0, 81, 102
2, 144959, Note_on_c, 0, 81, 0
2, 144959, Note_on_c, 0, 55, 0
2, 144960, Note_on_c, 0, 54, 102
2, 144960, Note_on_c, 0, 83, 102
2, 145007, Note_on_c, 0, 83, 0
2, 145008, Note_on_c, 0, 81, 102
2, 145055, Note_on_c, 0, 81, 0
2, 145055, Note_on_c, 0, 54, 0
2, 145056, Note_on_c, 0, 60, 102
2, 145056, Note_on_c, 0, 83, 102
2, 145103, Note_on_c, 0, 83, 0
2, 145104, Note_on_c, 0, 81, 102
2, 145151, Note_on_c, 0, 81, 0
2, 145151, Note_on_c, 0, 60, 0
2, 145152, Note_on_c, 0, 57, 102
2, 145152, Note_on_c, 0, 83, 102
2, 145199, Note_on_c, 0, 83, 0
2, 145200, Note_on_c, 0, 81, 102
2, 145247, Note_on_c, 0, 81, 0
2, 145247, Note_on_c, 0, 57, 0
2, 145248, Note_on_c, 0, 54, 102
2, 145248, Note_on_c, 0, 79, 102
2, 145295, Note_on_c, 0, 79, 0
2, 145296, Note_on_c, 0, 81, 102
2, 145343, Note_on_c, 0, 81, 0
2, 145343, Note_on_c, 0, 54, 0
2, 145344, Note_on_c, 0, 55, 102
2, 145344, Note_on_c, 0, 83, 102
2, 145439, Note_on_c, 0, 55, 0
2, 145440, Note_on_c, 0, 59, 102
2, 145535, Note_on_c, 0, 59, 0
2, 145535, Note_on_c, 0, 83, 0
2, 145536, Note_on_c, 0, 55, 102
2, 145536, Note_on_c, 0, 81, 102
2, 145631, Note_on_c, 0, 81, 0
2, 145631, Note_on_c, 0, 55, 0
2, 145632, Note_on_c, 0, 50, 102
2, 145632, Note_on_c, 0, 83, 102
2, 145727, Note_on_c, 0, 83, 0
2, 145727, Note_on_c, 0, 50, 0
2, 145728, Note_on_c, 0, 47, 102
2, 145728, Note_on_c, 0, 79, 102
2, 145823, Note_on_c, 0, 47, 0
2, 145824, Note_on_c, 0, 50, 102
2, 145919, Note_on_c, 0, 50, 0
2, 145919, Note_on_c, 0, 79, 0
2, 145920, Note_on_c, 0, 47, 102
2, 145920, Note_on_c, 0, 74, 102
2, 146015, Note_on_c, 0, 74, 0
2, 146015, Note_on_c, 0, 47, 0
2, 146016, Note_on_c, 0, 43, 102
2, 146016, Note_on_c, 0, 71, 102
2, 146111, Note_on_c, 0, 71, 0
2, 146111, Note_on_c, 0, 43, 0
2, 146112, Note_on_c, 0, 48, 102
2, 146112, Note_on_c, 0, 76, 102
2, 146207, Note_on_c, 0, 48, 0
2, 146208, Note_on_c, 0, 43, 102
2, 146292, Note_on_c, 0, 76, 0
2, 146303, Note_on_c, 0, 43, 0
2, 146304, Note_on_c, 0, 52, 102
2, 146304, Note_on_c, 0, 72, 102
2, 146399, Note_on_c, 0, 72, 0
2, 146399, Note_on_c, 0, 52, 0
2, 146400, Note_on_c, 0, 48, 102
2, 146400, Note_on_c, 0, 69, 102
2, 146495, Note_on_c, 0, 69, 0
2, 146495, Note_on_c, 0, 48, 0
2, 146496, Note_on_c, 0, 50, 102
2, 146496, Note_on_c, 0, 66, 102
2, 146591, Note_on_c, 0, 50, 0
2, 146592, Note_on_c, 0, 45, 102
2, 146676, Note_on_c, 0, 66, 0
2, 146687, Note_on_c, 0, 45, 0
2, 146688, Note_on_c, 0, 54, 102
2, 146688, Note_on_c, 0, 74, 102
2, 146783, Note_on_c, 0, 74, 0
2, 146783, Note_on_c, 0, 54, 0
2, 146784, Note_on_c, 0, 50, 102
2, 146784, Note_on_c, 0, 69, 102
2, 146879, Note_on_c, 0, 69, 0
2, 146879, Note_on_c, 0, 50, 0
2, 146880, Note_on_c, 0, 55, 102
2, 146880, Note_on_c, 0, 72, 102
2, 146975, Note_on_c, 0, 72, 0
2, 146976, Note_on_c, 0, 71, 102
2, 147071, Note_on_c, 0, 71, 0
2, 147071, Note_on_c, 0, 55, 0
2, 147072, Note_on_c, 0, 50, 102
2, 147072, Note_on_c, 0, 69, 102
2, 147167, Note_on_c, 0, 69, 0
2, 147168, Note_on_c, 0, 71, 102
2, 147263, Note_on_c, 0, 71, 0
2, 147263, Note_on_c, 0, 50, 0
2, 147264, Note_on_c, 0, 47, 102
2, 147264, Note_on_c, 0, 67, 102
2, 147359, Note_on_c, 0, 67, 0
2, 147360, Note_on_c, 0, 69, 102
2, 147455, Note_on_c, 0, 69, 0
2, 147455, Note_on_c, 0, 47, 0
2, 147456, Note_on_c, 0, 50, 102
2, 147456, Note_on_c, 0, 71, 102
2, 147551, Note_on_c, 0, 71, 0
2, 147552, Note_on_c, 0, 74, 102
2, 147647, Note_on_c, 0, 74, 0
2, 147647, Note_on_c, 0, 50, 0
2, 147648, Note_on_c, 0, 43, 102
2, 147648, Note_on_c, 0, 79, 102
2, 147695, Note_on_c, 0, 79, 0
2, 147696, Note_on_c, 0, 78, 102
2, 147743, Note_on_c, 0, 78, 0
2, 147743, Note_on_c, 0, 43, 0
2, 147744, Note_on_c, 0, 62, 102
2, 147744, Note_on_c, 0, 79, 102
2, 147839, Note_on_c, 0, 62, 0
2, 147840, Note_on_c, 0, 59, 102
2, 147935, Note_on_c, 0, 59, 0
2, 147935, Note_on_c, 0, 79, 0
2, 147936, Note_on_c, 0, 55, 102
2, 147936, Note_on_c, 0, 81, 102
2, 148031, Note_on_c, 0, 81, 0
2, 148031, Note_on_c, 0, 55, 0
2, 148032, Note_on_c, 0, 54, 102
2, 148032, Note_on_c, 0, 83, 102
2, 148079, Note_on_c, 0, 83, 0
2, 148080, Note_on_c, 0, 81, 102
2, 148127, Note_on_c, 0, 81, 0
2, 148127, Note_on_c, 0, 54, 0
2, 148128, Note_on_c, 0, 60, 102
2, 148128, Note_on_c, 0, 83, 102
2, 148175, Note_on_c, 0, 83, 0
2, 148176, Note_on_c, 0, 81, 102
2, 148223, Note_on_c, 0, 81, 0
2, 148223, Note_on_c, 0, 60, 0
2, 148224, Note_on_c, 0, 57, 102
2, 148224, Note_on_c, 0, 83, 102
2, 148271, Note_on_c, 0, 83, 0
2, 148272, Note_on_c, 0, 81, 102
2, 148319, Note_on_c, 0, 81, 0
2, 148319, Note_on_c, 0, 57, 0
2, 148320, Note_on_c, 0, 54, 102
2, 148320, Note_on_c, 0, 79, 102
2, 148367, Note_on_c, 0, 79, 0
2, 148368, Note_on_c, 0, 81, 102
2, 148415, Note_on_c, 0, 81, 0
2, 148415, Note_on_c, 0, 54, 0
2, 148416, Note_on_c, 0, 55, 102
2, 148416, Note_on_c, 0, 83, 102
2, 148511, Note_on_c, 0, 55, 0
2, 148512, Note_on_c, 0, 59, 102
2, 148607, Note_on_c, 0, 59, 0
2, 148607, Note_on_c, 0, 83, 0
2, 148608, Note_on_c, 0, 55, 102
2, 148608, Note_on_c, 0, 81, 102
2, 148703, Note_on_c, 0, 81, 0
2, 148703, Note_on_c, 0, 55, 0
2, 148704, Note_on_c, 0, 50, 102
2, 148704, Note_on_c, 0, 83, 102
2, 148799, Note_on_c, 0, 83, 0
2, 148799, Note_on_c, 0, 50, 0
2, 148800, Note_on_c, 0, 47, 102
2, 148800, Note_on_c, 0, 79, 102
2, 148895, Note_on_c, 0, 47, 0
2, 148896, Note_on_c, 0, 55, 102
2, 148991, Note_on_c, 0, 55, 0
2, 148991, Note_on_c, 0, 79, 0
2, 148992, Note_on_c, 0, 50, 102
2, 148992, Note_on_c, 0, 81, 102
2, 149087, Note_on_c, 0, 81, 0
2, 149087, Note_on_c, 0, 50, 0
2, 149088, Note_on_c, 0, 47, 102
2, 149088, Note_on_c, 0, 84, 102
2, 149183, Note_on_c, 0, 84, 0
2, 149183, Note_on_c, 0, 47, 0
2, 149184, Note_on_c, 0, 43, 102
2, 149184, Note_on_c, 0, 83, 102
2, 149279, Note_on_c, 0, 43, 0
2, 149280, Note_on_c, 0, 47, 102
2, 149364, Note_on_c, 0, 83, 0
2, 149375, Note_on_c, 0, 47, 0
2, 149376, Note_on_c, 0, 49, 102
2, 149376, Note_on_c, 0, 76, 102
2, 149471, Note_on_c, 0, 76, 0
2, 149471, Note_on_c, 0, 49, 0
2, 149472, Note_on_c, 0, 52, 102
2, 149472, Note_on_c, 0, 79, 102
2, 149567, Note_on_c, 0, 79, 0
2, 149567, Note_on_c, 0, 52, 0
2, 149568, Note_on_c, 0, 42, 102
2, 149568, Note_on_c, 0, 81, 102
2, 149663, Note_on_c, 0, 42, 0
2, 149664, Note_on_c, 0, 45, 102
2, 149748, Note_on_c, 0, 81, 0
2, 149759, Note_on_c, 0, 45, 0
2, 149760, Note_on_c, 0, 50, 102
2, 149760, Note_on_c, 0, 71, 102
2, 149855, Note_on_c, 0, 71, 0
2, 149856, Note_on_c, 0, 74, 102
2, 149951, Note_on_c, 0, 74, 0
2, 149951, Note_on_c, 0, 50, 0
2, 149952, Note_on_c, 0, 40, 102
2, 149952, Note_on_c, 0, 79, 102
2, 150047, Note_on_c, 0, 40, 0
2, 150048, Note_on_c, 0, 43, 102
2, 150132, Note_on_c, 0, 79, 0
2, 150143, Note_on_c, 0, 43, 0
2, 150144, Note_on_c, 0, 45, 102
2, 150144, Note_on_c, 0, 73, 102
2, 150239, Note_on_c, 0, 73, 0
2, 150239, Note_on_c, 0, 45, 0
2, 150240, Note_on_c, 0, 49, 102
2, 150240, Note_on_c, 0, 76, 102
2, 150335, Note_on_c, 0, 76, 0
2, 150335, Note_on_c, 0, 49, 0
2, 150336, Note_on_c, 0, 50, 102
2, 150336, Note_on_c, 0, 78, 102
2, 150431, Note_on_c, 0, 50, 0
2, 150432, Note_on_c, 0, 52, 102
2, 150516, Note_on_c, 0, 78, 0
2, 150527, Note_on_c, 0, 52, 0
2, 150528, Note_on_c, 0, 54, 102
2, 150528, Note_on_c, 0, 74, 102
2, 150623, Note_on_c, 0, 74, 0
2, 150623, Note_on_c, 0, 54, 0
2, 150624, Note_on_c, 0, 50, 102
2, 150624, Note_on_c, 0, 78, 102
2, 150719, Note_on_c, 0, 78, 0
2, 150719, Note_on_c, 0, 50, 0
2, 150720, Note_on_c, 0, 55, 102
2, 150720, Note_on_c, 0, 83, 102
2, 150815, Note_on_c, 0, 55, 0
2, 150816, Note_on_c, 0, 52, 102
2, 150911, Note_on_c, 0, 52, 0
2, 150911, Note_on_c, 0, 83, 0
2, 150912, Note_on_c, 0, 54, 102
2, 150912, Note_on_c, 0, 81, 102
2, 151007, Note_on_c, 0, 54, 0
2, 151008, Note_on_c, 0, 50, 102
2, 151103, Note_on_c, 0, 50, 0
2, 151103, Note_on_c, 0, 81, 0
2, 151104, Note_on_c, 0, 57, 102
2, 151104, Note_on_c, 0, 79, 102
2, 151199, Note_on_c, 0, 79, 0
2, 151200, Note_on_c, 0, 78, 102
2, 151295, Note_on_c, 0, 78, 0
2, 151295, Note_on_c, 0, 57, 0
2, 151296, Note_on_c, 0, 45, 102
2, 151296, Note_on_c, 0, 79, 102
2, 151391, Note_on_c, 0, 79, 0
2, 151392, Note_on_c, 0, 76, 102
2, 151487, Note_on_c, 0, 76, 0
2, 151487, Note_on_c, 0, 45, 0
2, 151488, Note_on_c, 0, 50, 102
2, 151488, Note_on_c, 0, 74, 102
2, 151583, Note_on_c, 0, 50, 0
2, 151584, Note_on_c, 0, 45, 102
2, 151679, Note_on_c, 0, 45, 0
2, 151680, Note_on_c, 0, 42, 102
2, 151775, Note_on_c, 0, 42, 0
2, 151776, Note_on_c, 0, 45, 102
2, 151868, Note_on_c, 0, 74, 0
2, 151871, Note_on_c, 0, 45, 0
2, 151872, Note_on_c, 0, 38, 102
2, 152062, Note_on_c, 0, 38, 0
2, 152064, Note_on_c, 0, 81, 102
2, 152159, Note_on_c, 0, 81, 0
2, 152160, Note_on_c, 0, 78, 102
2, 152255, Note_on_c, 0, 78, 0
2, 152256, Note_on_c, 0, 74, 102
2, 152352, Note_on_c, 0, 62, 102
2, 152447, Note_on_c, 0, 62, 0
2, 152448, Note_on_c, 0, 57, 102
2, 152543, Note_on_c, 0, 57, 0
2, 152543, Note_on_c, 0, 74, 0
2, 152544, Note_on_c, 0, 54, 102
2, 152544, Note_on_c, 0, 76, 102
2, 152591, Note_on_c, 0, 76, 0
2, 152592, Note_on_c, 0, 78, 102
2, 152639, Note_on_c, 0, 78, 0
2, 152639, Note_on_c, 0, 54, 0
2, 152640, Note_on_c, 0, 50, 102
2, 152640, Note_on_c, 0, 79, 102
2, 152687, Note_on_c, 0, 79, 0
2, 152688, Note_on_c, 0, 78, 102
2, 152735, Note_on_c, 0, 78, 0
2, 152735, Note_on_c, 0, 50, 0
2, 152736, Note_on_c, 0, 57, 102
2, 152736, Note_on_c, 0, 79, 102
2, 152783, Note_on_c, 0, 79, 0
2, 152784, Note_on_c, 0, 78, 102
2, 152831, Note_on_c, 0, 78, 0
2, 152831, Note_on_c, 0, 57, 0
2, 152832, Note_on_c, 0, 54, 102
2, 152832, Note_on_c, 0, 79, 102
2, 152879, Note_on_c, 0, 79, 0
2, 152880, Note_on_c, 0, 78, 102
2, 152927, Note_on_c, 0, 78, 0
2, 152927, Note_on_c, 0, 54, 0
2, 152928, Note_on_c, 0, 50, 102
2, 152928, Note_on_c, 0, 76, 102
2, 152975, Note_on_c, 0, 76, 0
2, 152976, Note_on_c, 0, 78, 102
2, 153023, Note_on_c, 0, 78, 0
2, 153023, Note_on_c, 0, 50, 0
2, 153024, Note_on_c, 0, 47, 102
2, 153024, Note_on_c, 0, 79, 102
2, 153119, Note_on_c, 0, 47, 0
2, 153120, Note_on_c, 0, 59, 102
2, 153215, Note_on_c, 0, 59, 0
2, 153216, Note_on_c, 0, 55, 102
2, 153311, Note_on_c, 0, 55, 0
2, 153312, Note_on_c, 0, 50, 102
2, 153407, Note_on_c, 0, 50, 0
2, 153408, Note_on_c, 0, 47, 102
2, 153503, Note_on_c, 0, 47, 0
2, 153504, Note_on_c, 0, 50, 102
2, 153564, Note_on_c, 0, 79, 0
2, 153599, Note_on_c, 0, 50, 0
2, 153600, Note_on_c, 0, 47, 102
2, 153600, Note_on_c, 0, 74, 102
2, 153695, Note_on_c, 0, 74, 0
2, 153695, Note_on_c, 0, 47, 0
2, 153696, Note_on_c, 0, 43, 102
2, 153696, Note_on_c, 0, 79, 102
2, 153791, Note_on_c, 0, 79, 0
2, 153791, Note_on_c, 0, 43, 0
2, 153792, Note_on_c, 0, 45, 102
2, 153792, Note_on_c, 0, 84, 102
2, 153887, Note_on_c, 0, 45, 0
2, 153888, Note_on_c, 0, 48, 102
2, 153972, Note_on_c, 0, 84, 0
2, 153983, Note_on_c, 0, 48, 0
2, 153984, Note_on_c, 0, 45, 102
2, 153984, Note_on_c, 0, 75, 102
2, 154079, Note_on_c, 0, 75, 0
2, 154079, Note_on_c, 0, 45, 0
2, 154080, Note_on_c, 0, 42, 102
2, 154080, Note_on_c, 0, 78, 102
2, 154175, Note_on_c, 0, 78, 0
2, 154175, Note_on_c, 0, 42, 0
2, 154176, Note_on_c, 0, 43, 102
2, 154176, Note_on_c, 0, 83, 102
2, 154271, Note_on_c, 0, 43, 0
2, 154272, Note_on_c, 0, 47, 102
2, 154356, Note_on_c, 0, 83, 0
2, 154367, Note_on_c, 0, 47, 0
2, 154368, Note_on_c, 0, 43, 102
2, 154368, Note_on_c, 0, 76, 102
2, 154463, Note_on_c, 0, 76, 0
2, 154463, Note_on_c, 0, 43, 0
2, 154464, Note_on_c, 0, 40, 102
2, 154464, Note_on_c, 0, 79, 102
2, 154559, Note_on_c, 0, 79, 0
2, 154559, Note_on_c, 0, 40, 0
2, 154560, Note_on_c, 0, 47, 102
2, 154560, Note_on_c, 0, 78, 102
2, 154655, Note_on_c, 0, 78, 0
2, 154656, Note_on_c, 0, 76, 102
2, 154751, Note_on_c, 0, 76, 0
2, 154751, Note_on_c, 0, 47, 0
2, 154752, Note_on_c, 0, 49, 102
2, 154752, Note_on_c, 0, 75, 102
2, 154847, Note_on_c, 0, 75, 0
2, 154848, Note_on_c, 0, 73, 102
2, 154943, Note_on_c, 0, 73, 0
2, 154943, Note_on_c, 0, 49, 0
2, 154944, Note_on_c, 0, 51, 102
2, 154944, Note_on_c, 0, 71, 102
2, 155039, Note_on_c, 0, 51, 0
2, 155040, Note_on_c, 0, 54, 102
2, 155135, Note_on_c, 0, 54, 0
2, 155135, Note_on_c, 0, 71, 0
2, 155136, Note_on_c, 0, 59, 102
2, 155136, Note_on_c, 0, 81, 102
2, 155231, Note_on_c, 0, 81, 0
2, 155231, Note_on_c, 0, 59, 0
2, 155232, Note_on_c, 0, 51, 102
2, 155232, Note_on_c, 0, 78, 102
2, 155327, Note_on_c, 0, 78, 0
2, 155327, Note_on_c, 0, 51, 0
2, 155328, Note_on_c, 0, 52, 102
2, 155328, Note_on_c, 0, 71, 102
2, 155423, Note_on_c, 0, 52, 0
2, 155424, Note_on_c, 0, 55, 102
2, 155508, Note_on_c, 0, 71, 0
2, 155519, Note_on_c, 0, 55, 0
2, 155520, Note_on_c, 0, 59, 102
2, 155520, Note_on_c, 0, 79, 102
2, 155615, Note_on_c, 0, 79, 0
2, 155615, Note_on_c, 0, 59, 0
2, 155616, Note_on_c, 0, 50, 102
2, 155616, Note_on_c, 0, 76, 102
2, 155711, Note_on_c, 0, 76, 0
2, 155711, Note_on_c, 0, 50, 0
2, 155712, Note_on_c, 0, 49, 102
2, 155712, Note_on_c, 0, 70, 102
2, 155807, Note_on_c, 0, 49, 0
2, 155808, Note_on_c, 0, 52, 102
2, 155892, Note_on_c, 0, 70, 0
2, 155903, Note_on_c, 0, 52, 0
2, 155904, Note_on_c, 0, 59, 102
2, 155904, Note_on_c, 0, 79, 102
2, 155999, Note_on_c, 0, 79, 0
2, 155999, Note_on_c, 0, 59, 0
2, 156000, Note_on_c, 0, 49, 102
2, 156000, Note_on_c, 0, 76, 102
2, 156095, Note_on_c, 0, 76, 0
2, 156095, Note_on_c, 0, 49, 0
2, 156096, Note_on_c, 0, 51, 102
2, 156096, Note_on_c, 0, 69, 102
2, 156191, Note_on_c, 0, 51, 0
2, 156192, Note_on_c, 0, 54, 102
2, 156276, Note_on_c, 0, 69, 0
2, 156287, Note_on_c, 0, 54, 0
2, 156288, Note_on_c, 0, 57, 102
2, 156288, Note_on_c, 0, 78, 102
2, 156383, Note_on_c, 0, 78, 0
2, 156383, Note_on_c, 0, 57, 0
2, 156384, Note_on_c, 0, 60, 102
2, 156384, Note_on_c, 0, 75, 102
2, 156479, Note_on_c, 0, 75, 0
2, 156479, Note_on_c, 0, 60, 0
2, 156480, Note_on_c, 0, 59, 102
2, 156480, Note_on_c, 0, 68, 102
2, 156575, Note_on_c, 0, 59, 0
2, 156576, Note_on_c, 0, 52, 102
2, 156660, Note_on_c, 0, 68, 0
2, 156671, Note_on_c, 0, 52, 0
2, 156672, Note_on_c, 0, 56, 102
2, 156672, Note_on_c, 0, 77, 102
2, 156767, Note_on_c, 0, 77, 0
2, 156767, Note_on_c, 0, 56, 0
2, 156768, Note_on_c, 0, 59, 102
2, 156768, Note_on_c, 0, 75, 102
2, 156856, Note_on_c, 0, 75, 0
2, 156863, Note_on_c, 0, 59, 0
2, 156864, Note_on_c, 0, 60, 102
2, 156864, Note_on_c, 0, 76, 102
2, 156959, Note_on_c, 0, 60, 0
2, 156960, Note_on_c, 0, 64, 102
2, 157055, Note_on_c, 0, 64, 0
2, 157055, Note_on_c, 0, 76, 0
2, 157056, Note_on_c, 0, 60, 102
2, 157056, Note_on_c, 0, 78, 102
2, 157151, Note_on_c, 0, 60, 0
2, 157152, Note_on_c, 0, 57, 102
2, 157236, Note_on_c, 0, 78, 0
2, 157247, Note_on_c, 0, 57, 0
2, 157248, Note_on_c, 0, 59, 102
2, 157248, Note_on_c, 0, 71, 102
2, 157439, Note_on_c, 0, 71, 0
2, 157439, Note_on_c, 0, 59, 0
2, 157440, Note_on_c, 0, 47, 102
2, 157440, Note_on_c, 0, 75, 102
2, 157620, Note_on_c, 0, 75, 0
2, 157631, Note_on_c, 0, 47, 0
2, 157632, Note_on_c, 0, 52, 102
2, 157632, Note_on_c, 0, 76, 102
2, 157727, Note_on_c, 0, 52, 0
2, 157728, Note_on_c, 0, 47, 102
2, 157823, Note_on_c, 0, 47, 0
2, 157824, Note_on_c, 0, 43, 102
2, 157919, Note_on_c, 0, 43, 0
2, 157920, Note_on_c, 0, 47, 102
2, 158012, Note_on_c, 0, 76, 0
2, 158015, Note_on_c, 0, 47, 0
2, 158016, Note_on_c, 0, 40, 102
2, 158206, Note_on_c, 0, 40, 0
2, 158208, Note_on_c, 0, 79, 102
2, 158298, Note_on_c, 0, 79, 0
2, 158304, Note_on_c, 0, 76, 102
2, 158394, Note_on_c, 0, 76, 0
2, 158400, Note_on_c, 0, 71, 102
2, 158496, Note_on_c, 0, 64, 102
2, 158591, Note_on_c, 0, 64, 0
2, 158592, Note_on_c, 0, 59, 102
2, 158687, Note_on_c, 0, 59, 0
2, 158687, Note_on_c, 0, 71, 0
2, 158688, Note_on_c, 0, 55, 102
2, 158688, Note_on_c, 0, 72, 102
2, 158783, Note_on_c, 0, 72, 0
2, 158783, Note_on_c, 0, 55, 0
2, 158784, Note_on_c, 0, 52, 102
2, 158784, Note_on_c, 0, 74, 102
2, 158831, Note_on_c, 0, 74, 0
2, 158832, Note_on_c, 0, 72, 102
2, 158879, Note_on_c, 0, 72, 0
2, 158879, Note_on_c, 0, 52, 0
2, 158880, Note_on_c, 0, 55, 102
2, 158880, Note_on_c, 0, 74, 102
2, 158927, Note_on_c, 0, 74, 0
2, 158928, Note_on_c, 0, 72, 102
2, 158975, Note_on_c, 0, 72, 0
2, 158975, Note_on_c, 0, 55, 0
2, 158976, Note_on_c, 0, 48, 102
2, 158976, Note_on_c, 0, 74, 102
2, 159023, Note_on_c, 0, 74, 0
2, 159024, Note_on_c, 0, 72, 102
2, 159071, Note_on_c, 0, 72, 0
2, 159071, Note_on_c, 0, 48, 0
2, 159072, Note_on_c, 0, 52, 102
2, 159072, Note_on_c, 0, 71, 102
2, 159119, Note_on_c, 0, 71, 0
2, 159120, Note_on_c, 0, 72, 102
2, 159167, Note_on_c, 0, 72, 0
2, 159167, Note_on_c, 0, 52, 0
2, 159168, Note_on_c, 0, 47, 102
2, 159168, Note_on_c, 0, 74, 102
2, 159263, Note_on_c, 0, 47, 0
2, 159264, Note_on_c, 0, 59, 102
2, 159359, Note_on_c, 0, 59, 0
2, 159359, Note_on_c, 0, 74, 0
2, 159360, Note_on_c, 0, 55, 102
2, 159360, Note_on_c, 0, 71, 102
2, 159455, Note_on_c, 0, 71, 0
2, 159455, Note_on_c, 0, 55, 0
2, 159456, Note_on_c, 0, 50, 102
2, 159456, Note_on_c, 0, 74, 102
2, 159551, Note_on_c, 0, 74, 0
2, 159551, Note_on_c, 0, 50, 0
2, 159552, Note_on_c, 0, 47, 102
2, 159552, Note_on_c, 0, 79, 102
2, 159647, Note_on_c, 0, 47, 0
2, 159648, Note_on_c, 0, 50, 102
2, 159743, Note_on_c, 0, 50, 0
2, 159743, Note_on_c, 0, 79, 0
2, 159744, Note_on_c, 0, 43, 102
2, 159744, Note_on_c, 0, 83, 102
2, 159839, Note_on_c, 0, 83, 0
2, 159839, Note_on_c, 0, 43, 0
2, 159840, Note_on_c, 0, 47, 102
2, 159840, Note_on_c, 0, 79, 102
2, 159935, Note_on_c, 0, 79, 0
2, 159935, Note_on_c, 0, 47, 0
2, 159936, Note_on_c, 0, 48, 102
2, 159936, Note_on_c, 0, 76, 102
2, 160031, Note_on_c, 0, 48, 0
2, 160032, Note_on_c, 0, 52, 102
2, 160116, Note_on_c, 0, 76, 0
2, 160127, Note_on_c, 0, 52, 0
2, 160128, Note_on_c, 0, 53, 102
2, 160128, Note_on_c, 0, 69, 102
2, 160223, Note_on_c, 0, 69, 0
2, 160224, Note_on_c, 0, 72, 102
2, 160319, Note_on_c, 0, 72, 0
2, 160319, Note_on_c, 0, 53, 0
2, 160320, Note_on_c, 0, 47, 102
2, 160320, Note_on_c, 0, 74, 102
2, 160415, Note_on_c, 0, 47, 0
2, 160416, Note_on_c, 0, 50, 102
2, 160500, Note_on_c, 0, 74, 0
2, 160511, Note_on_c, 0, 50, 0
2, 160512, Note_on_c, 0, 52, 102
2, 160512, Note_on_c, 0, 68, 102
2, 160607, Note_on_c, 0, 68, 0
2, 160608, Note_on_c, 0, 71, 102
2, 160703, Note_on_c, 0, 71, 0
2, 160703, Note_on_c, 0, 52, 0
2, 160704, Note_on_c, 0, 45, 102
2, 160704, Note_on_c, 0, 72, 102
2, 160799, Note_on_c, 0, 45, 0
2, 160800, Note_on_c, 0, 48, 102
2, 160895, Note_on_c, 0, 48, 0
2, 160895, Note_on_c, 0, 72, 0
2, 160896, Note_on_c, 0, 52, 102
2, 160896, Note_on_c, 0, 71, 102
2, 160991, Note_on_c, 0, 71, 0
2, 160991, Note_on_c, 0, 52, 0
2, 160992, Note_on_c, 0, 55, 102
2, 160992, Note_on_c, 0, 72, 102
2, 161087, Note_on_c, 0, 72, 0
2, 161087, Note_on_c, 0, 55, 0
2, 161088, Note_on_c, 0, 54, 102
2, 161088, Note_on_c, 0, 69, 102
2, 161183, Note_on_c, 0, 54, 0
2, 161184, Note_on_c, 0, 57, 102
2, 161248, Note_on_c, 0, 69, 0
2, 161279, Note_on_c, 0, 57, 0
2, 161280, Note_on_c, 0, 54, 102
2, 161280, Note_on_c, 0, 74, 102
2, 161375, Note_on_c, 0, 74, 0
2, 161375, Note_on_c, 0, 54, 0
2, 161376, Note_on_c, 0, 50, 102
2, 161376, Note_on_c, 0, 69, 102
2, 161471, Note_on_c, 0, 69, 0
2, 161471, Note_on_c, 0, 50, 0
2, 161472, Note_on_c, 0, 55, 102
2, 161472, Note_on_c, 0, 71, 102
2, 161567, Note_on_c, 0, 55, 0
2, 161568, Note_on_c, 0, 50, 102
2, 161652, Note_on_c, 0, 71, 0
2, 161663, Note_on_c, 0, 50, 0
2, 161664, Note_on_c, 0, 47, 102
2, 161664, Note_on_c, 0, 67, 102
2, 161759, Note_on_c, 0, 67, 0
2, 161759, Note_on_c, 0, 47, 0
2, 161760, Note_on_c, 0, 50, 102
2, 161760, Note_on_c, 0, 71, 102
2, 161855, Note_on_c, 0, 71, 0
2, 161855, Note_on_c, 0, 50, 0
2, 161856, Note_on_c, 0, 43, 102
2, 161856, Note_on_c, 0, 76, 102
2, 161951, Note_on_c, 0, 43, 0
2, 161952, Note_on_c, 0, 47, 102
2, 162036, Note_on_c, 0, 76, 0
2, 162047, Note_on_c, 0, 47, 0
2, 162048, Note_on_c, 0, 52, 102
2, 162048, Note_on_c, 0, 79, 102
2, 162143, Note_on_c, 0, 79, 0
2, 162143, Note_on_c, 0, 52, 0
2, 162144, Note_on_c, 0, 55, 102
2, 162144, Note_on_c, 0, 71, 102
2, 162239, Note_on_c, 0, 71, 0
2, 162239, Note_on_c, 0, 55, 0
2, 162240, Note_on_c, 0, 57, 102
2, 162240, Note_on_c, 0, 72, 102
2, 162335, Note_on_c, 0, 57, 0
2, 162336, Note_on_c, 0, 52, 102
2, 162420, Note_on_c, 0, 72, 0
2, 162431, Note_on_c, 0, 52, 0
2, 162432, Note_on_c, 0, 48, 102
2, 162432, Note_on_c, 0, 69, 102
2, 162527, Note_on_c, 0, 69, 0
2, 162527, Note_on_c, 0, 48, 0
2, 162528, Note_on_c, 0, 52, 102
2, 162528, Note_on_c, 0, 72, 102
2, 162623, Note_on_c, 0, 72, 0
2, 162623, Note_on_c, 0, 52, 0
2, 162624, Note_on_c, 0, 45, 102
2, 162624, Note_on_c, 0, 78, 102
2, 162719, Note_on_c, 0, 45, 0
2, 162720, Note_on_c, 0, 48, 102
2, 162804, Note_on_c, 0, 78, 0
2, 162815, Note_on_c, 0, 48, 0
2, 162816, Note_on_c, 0, 54, 102
2, 162816, Note_on_c, 0, 81, 102
2, 162911, Note_on_c, 0, 81, 0
2, 162911, Note_on_c, 0, 54, 0
2, 162912, Note_on_c, 0, 57, 102
2, 162912, Note_on_c, 0, 72, 102
2, 163007, Note_on_c, 0, 72, 0
2, 163007, Note_on_c, 0, 57, 0
2, 163008, Note_on_c, 0, 59, 102
2, 163008, Note_on_c, 0, 74, 102
2, 163103, Note_on_c, 0, 59, 0
2, 163104, Note_on_c, 0, 55, 102
2, 163188, Note_on_c, 0, 74, 0
2, 163199, Note_on_c, 0, 55, 0
2, 163200, Note_on_c, 0, 50, 102
2, 163200, Note_on_c, 0, 71, 102
2, 163295, Note_on_c, 0, 71, 0
2, 163295, Note_on_c, 0, 50, 0
2, 163296, Note_on_c, 0, 55, 102
2, 163296, Note_on_c, 0, 74, 102
2, 163391, Note_on_c, 0, 74, 0
2, 163391, Note_on_c, 0, 55, 0
2, 163392, Note_on_c, 0, 47, 102
2, 163392, Note_on_c, 0, 79, 102
2, 163487, Note_on_c, 0, 47, 0
2, 163488, Note_on_c, 0, 50, 102
2, 163572, Note_on_c, 0, 79, 0
2, 163583, Note_on_c, 0, 50, 0
2, 163584, Note_on_c, 0, 55, 102
2, 163584, Note_on_c, 0, 83, 102
2, 163679, Note_on_c, 0, 83, 0
2, 163679, Note_on_c, 0, 55, 0
2, 163680, Note_on_c, 0, 59, 102
2, 163680, Note_on_c, 0, 79, 102
2, 163775, Note_on_c, 0, 79, 0
2, 163775, Note_on_c, 0, 59, 0
2, 163776, Note_on_c, 0, 62, 102
2, 163776, Note_on_c, 0, 81, 102
2, 163871, Note_on_c, 0, 81, 0
2, 163871, Note_on_c, 0, 62, 0
2, 163872, Note_on_c, 0, 64, 102
2, 163872, Note_on_c, 0, 79, 102
2, 163967, Note_on_c, 0, 79, 0
2, 163967, Note_on_c, 0, 64, 0
2, 163968, Note_on_c, 0, 62, 102
2, 163968, Note_on_c, 0, 78, 102
2, 164063, Note_on_c, 0, 78, 0
2, 164063, Note_on_c, 0, 62, 0
2, 164064, Note_on_c, 0, 60, 102
2, 164064, Note_on_c, 0, 76, 102
2, 164159, Note_on_c, 0, 76, 0
2, 164159, Note_on_c, 0, 60, 0
2, 164160, Note_on_c, 0, 59, 102
2, 164160, Note_on_c, 0, 74, 102
2, 164255, Note_on_c, 0, 59, 0
2, 164256, Note_on_c, 0, 62, 102
2, 164351, Note_on_c, 0, 62, 0
2, 164351, Note_on_c, 0, 74, 0
2, 164352, Note_on_c, 0, 59, 102
2, 164352, Note_on_c, 0, 79, 102
2, 164447, Note_on_c, 0, 79, 0
2, 164447, Note_on_c, 0, 59, 0
2, 164448, Note_on_c, 0, 55, 102
2, 164448, Note_on_c, 0, 74, 102
2, 164543, Note_on_c, 0, 74, 0
2, 164543, Note_on_c, 0, 55, 0
2, 164544, Note_on_c, 0, 48, 102
2, 164544, Note_on_c, 0, 76, 102
2, 164639, Note_on_c, 0, 48, 0
2, 164640, Note_on_c, 0, 52, 102
2, 164724, Note_on_c, 0, 76, 0
2, 164735, Note_on_c, 0, 52, 0
2, 164736, Note_on_c, 0, 54, 102
2, 164736, Note_on_c, 0, 69, 102
2, 164831, Note_on_c, 0, 69, 0
2, 164831, Note_on_c, 0, 54, 0
2, 164832, Note_on_c, 0, 57, 102
2, 164832, Note_on_c, 0, 72, 102
2, 164927, Note_on_c, 0, 72, 0
2, 164927, Note_on_c, 0, 57, 0
2, 164928, Note_on_c, 0, 47, 102
2, 164928, Note_on_c, 0, 74, 102
2, 165023, Note_on_c, 0, 47, 0
2, 165024, Note_on_c, 0, 50, 102
2, 165108, Note_on_c, 0, 74, 0
2, 165119, Note_on_c, 0, 50, 0
2, 165120, Note_on_c, 0, 55, 102
2, 165120, Note_on_c, 0, 64, 102
2, 165215, Note_on_c, 0, 64, 0
2, 165216, Note_on_c, 0, 67, 102
2, 165311, Note_on_c, 0, 67, 0
2, 165311, Note_on_c, 0, 55, 0
2, 165312, Note_on_c, 0, 45, 102
2, 165312, Note_on_c, 0, 72, 102
2, 165407, Note_on_c, 0, 45, 0
2, 165408, Note_on_c, 0, 48, 102
2, 165492, Note_on_c, 0, 72, 0
2, 165503, Note_on_c, 0, 48, 0
2, 165504, Note_on_c, 0, 50, 102
2, 165504, Note_on_c, 0, 66, 102
2, 165599, Note_on_c, 0, 66, 0
2, 165599, Note_on_c, 0, 50, 0
2, 165600, Note_on_c, 0, 54, 102
2, 165600, Note_on_c, 0, 69, 102
2, 165695, Note_on_c, 0, 69, 0
2, 165695, Note_on_c, 0, 54, 0
2, 165696, Note_on_c, 0, 71, 102
2, 165696, Note_on_c, 0, 55, 102
2, 165793, Note_on_c, 0, 55, 0
2, 165794, Note_on_c, 0, 50, 102
2, 165881, Note_on_c, 0, 71, 0
2, 165891, Note_on_c, 0, 50, 0
2, 165893, Note_on_c, 0, 47, 102
2, 165893, Note_on_c, 0, 67, 102
2, 165992, Note_on_c, 0, 67, 0
2, 165992, Note_on_c, 0, 47, 0
2, 165994, Note_on_c, 0, 50, 102
2, 165994, Note_on_c, 0, 71, 102
2, 166093, Note_on_c, 0, 71, 0
2, 166093, Note_on_c, 0, 50, 0
2, 166096, Note_on_c, 0, 74, 102
2, 166096, Note_on_c, 0, 55, 102
2, 166197, Note_on_c, 0, 55, 0
2, 166197, Note_on_c, 0, 74, 0
2, 166200, Note_on_c, 0, 71, 102
2, 166200, Note_on_c, 0, 50, 102
2, 166301, Note_on_c, 0, 50, 0
2, 166301, Note_on_c, 0, 71, 0
2, 166305, Note_on_c, 0, 47, 102
2, 166305, Note_on_c, 0, 79, 102
2, 166409, Note_on_c, 0, 47, 0
2, 166412, Note_on_c, 0, 43, 102
2, 166516, Note_on_c, 0, 43, 0
2, 166518, Note_on_c, 0, 79, 0
2, 166521, Note_on_c, 0, 72, 102
2, 166521, Note_on_c, 0, 50, 102
2, 166628, Note_on_c, 0, 72, 0
2, 166631, Note_on_c, 0, 71, 102
2, 166738, Note_on_c, 0, 71, 0
2, 166740, Note_on_c, 0, 50, 0
2, 166743, Note_on_c, 0, 69, 102
2, 166743, Note_on_c, 0, 38, 102
2, 166856, Note_on_c, 0, 69, 0
2, 166858, Note_on_c, 0, 67, 102
2, 166971, Note_on_c, 0, 67, 0
2, 166974, Note_on_c, 0, 38, 0
2, 166983, Note_on_c, 0, 43, 102
2, 166983, Note_on_c, 0, 67, 102
2, 167707, Note_on_c, 0, 67, 0
2, 167707, Note_on_c, 0, 43, 0
2, 168192, Note_on_c, 0, 74, 102
2, 168256, Note_on_c, 0, 74, 0
2, 168256, Note_on_c, 0, 71, 102
2, 168416, Note_on_c, 0, 71, 0
2, 168416, Note_on_c, 0, 69, 102
2, 168480, Note_on_c, 0, 69, 0
2, 168480, Note_on_c, 0, 67, 102
2, 168768, Note_on_c, 0, 62, 102
2, 168832, Note_on_c, 0, 62, 0
2, 168832, Note_on_c, 0, 59, 102
2, 168992, Note_on_c, 0, 59, 0
2, 168992, Note_on_c, 0, 57, 102
2, 169056, Note_on_c, 0, 57, 0
2, 169056, Note_on_c, 0, 55, 102
2, 169247, Note_on_c, 0, 67, 0
2, 169336, Note_on_c, 0, 55, 0
2, 169344, Note_on_c, 0, 69, 102
2, 169344, Note_on_c, 0, 54, 102
2, 169439, Note_on_c, 0, 54, 0
2, 169439, Note_on_c, 0, 69, 0
2, 169440, Note_on_c, 0, 71, 102
2, 169440, Note_on_c, 0, 55, 102
2, 169487, Note_on_c, 0, 55, 0
2, 169488, Note_on_c, 0, 59, 102
2, 169535, Note_on_c, 0, 59, 0
2, 169536, Note_on_c, 0, 62, 102
2, 169583, Note_on_c, 0, 62, 0
2, 169584, Note_on_c, 0, 67, 102
2, 169631, Note_on_c, 0, 67, 0
2, 169631, Note_on_c, 0, 71, 0
2, 169632, Note_on_c, 0, 69, 102
2, 169632, Note_on_c, 0, 66, 102
2, 169920, Note_on_c, 0, 45, 102
2, 169984, Note_on_c, 0, 45, 0
2, 169984, Note_on_c, 0, 42, 102
2, 170144, Note_on_c, 0, 42, 0
2, 170144, Note_on_c, 0, 40, 102
2, 170208, Note_on_c, 0, 40, 0
2, 170208, Note_on_c, 0, 38, 102
2, 170488, Note_on_c, 0, 38, 0
2, 170495, Note_on_c, 0, 66, 0
2, 170495, Note_on_c, 0, 69, 0
2, 170496, Note_on_c, 0, 71, 102
2, 170496, Note_on_c, 0, 67, 102
2, 170496, Note_on_c, 0, 50, 102
2, 170591, Note_on_c, 0, 50, 0
2, 170591, Note_on_c, 0, 67, 0
2, 170591, Note_on_c, 0, 71, 0
2, 170592, Note_on_c, 0, 72, 102
2, 170592, Note_on_c, 0, 69, 102
2, 170592, Note_on_c, 0, 48, 102
2, 170783, Note_on_c, 0, 48, 0
2, 170783, Note_on_c, 0, 69, 0
2, 170783, Note_on_c, 0, 72, 0
2, 170784, Note_on_c, 0, 74, 102
2, 170784, Note_on_c, 0, 47, 102
2, 170975, Note_on_c, 0, 47, 0
2, 170976, Note_on_c, 0, 67, 102
2, 170976, Note_on_c, 0, 52, 102
2, 171064, Note_on_c, 0, 74, 0
2, 171072, Note_on_c, 0, 79, 102
2, 171167, Note_on_c, 0, 79, 0
2, 171167, Note_on_c, 0, 52, 0
2, 171168, Note_on_c, 0, 76, 102
2, 171168, Note_on_c, 0, 48, 102
2, 171359, Note_on_c, 0, 48, 0
2, 171359, Note_on_c, 0, 76, 0
2, 171360, Note_on_c, 0, 74, 102
2, 171360, Note_on_c, 0, 45, 102
2, 171407, Note_on_c, 0, 74, 0
2, 171408, Note_on_c, 0, 72, 102
2, 171455, Note_on_c, 0, 72, 0
2, 171455, Note_on_c, 0, 45, 0
2, 171456, Note_on_c, 0, 74, 102
2, 171456, Note_on_c, 0, 48, 102
2, 171503, Note_on_c, 0, 74, 0
2, 171504, Note_on_c, 0, 72, 102
2, 171551, Note_on_c, 0, 48, 0
2, 171551, Note_on_c, 0, 67, 0
2, 171552, Note_on_c, 0, 66, 102
2, 171552, Note_on_c, 0, 47, 102
2, 171644, Note_on_c, 0, 72, 0
2, 171647, Note_on_c, 0, 47, 0
2, 171648, Note_on_c, 0, 71, 102
2, 171648, Note_on_c, 0, 45, 102
2, 171743, Note_on_c, 0, 45, 0
2, 171743, Note_on_c, 0, 71, 0
2, 171744, Note_on_c, 0, 72, 102
2, 171744, Note_on_c, 0, 50, 102
2, 171839, Note_on_c, 0, 50, 0
2, 171839, Note_on_c, 0, 72, 0
2, 171840, Note_on_c, 0, 69, 102
2, 171840, Note_on_c, 0, 38, 102
2, 171932, Note_on_c, 0, 66, 0
2, 171935, Note_on_c, 0, 38, 0
2, 171935, Note_on_c, 0, 69, 0
2, 171936, Note_on_c, 0, 72, 102
2, 171936, Note_on_c, 0, 67, 102
2, 171936, Note_on_c, 0, 43, 102
2, 171983, Note_on_c, 0, 72, 0
2, 171984, Note_on_c, 0, 71, 102
2, 172031, Note_on_c, 0, 71, 0
2, 172032, Note_on_c, 0, 72, 102
2, 172079, Note_on_c, 0, 72, 0
2, 172080, Note_on_c, 0, 71, 102
2, 172127, Note_on_c, 0, 71, 0
2, 172127, Note_on_c, 0, 43, 0
2, 172128, Note_on_c, 0, 72, 102
2, 172128, Note_on_c, 0, 47, 102
2, 172175, Note_on_c, 0, 72, 0
2, 172176, Note_on_c, 0, 71, 102
2, 172223, Note_on_c, 0, 71, 0
2, 172224, Note_on_c, 0, 69, 102
2, 172316, Note_on_c, 0, 67, 0
2, 172319, Note_on_c, 0, 69, 0
2, 172319, Note_on_c, 0, 47, 0
2, 172320, Note_on_c, 0, 67, 102
2, 172320, Note_on_c, 0, 50, 102
2, 172511, Note_on_c, 0, 50, 0
2, 172511, Note_on_c, 0, 67, 0
2, 172512, Note_on_c, 0, 59, 102
2, 172512, Note_on_c, 0, 67, 102
2, 172512, Note_on_c, 0, 62, 102
2, 172512, Note_on_c, 0, 55, 102
2, 172703, Note_on_c, 0, 62, 0
2, 172703, Note_on_c, 0, 59, 0
2, 172792, Note_on_c, 0, 67, 0
2, 172800, Note_on_c, 0, 71, 102
2, 172892, Note_on_c, 0, 55, 0
2, 172895, Note_on_c, 0, 71, 0
2, 172896, Note_on_c, 0, 74, 102
2, 173087, Note_on_c, 0, 74, 0
2, 173088, Note_on_c, 0, 79, 102
2, 173135, Note_on_c, 0, 79, 0
2, 173136, Note_on_c, 0, 78, 102
2, 173136, Note_on_c, 0, 43, 102
2, 173183, Note_on_c, 0, 43, 0
2, 173183, Note_on_c, 0, 78, 0
2, 173184, Note_on_c, 0, 79, 102
2, 173184, Note_on_c, 0, 45, 102
2, 173231, Note_on_c, 0, 45, 0
2, 173232, Note_on_c, 0, 47, 102
2, 173279, Note_on_c, 0, 47, 0
2, 173280, Note_on_c, 0, 48, 102
2, 173327, Note_on_c, 0, 48, 0
2, 173328, Note_on_c, 0, 50, 102
2, 173375, Note_on_c, 0, 50, 0
2, 173375, Note_on_c, 0, 79, 0
2, 173376, Note_on_c, 0, 81, 102
2, 173376, Note_on_c, 0, 52, 102
2, 173423, Note_on_c, 0, 52, 0
2, 173424, Note_on_c, 0, 54, 102
2, 173471, Note_on_c, 0, 54, 0
2, 173471, Note_on_c, 0, 81, 0
2, 173472, Note_on_c, 0, 83, 102
2, 173472, Note_on_c, 0, 55, 102
2, 173519, Note_on_c, 0, 55, 0
2, 173520, Note_on_c, 0, 59, 102
2, 173567, Note_on_c, 0, 59, 0
2, 173568, Note_on_c, 0, 57, 102
2, 173615, Note_on_c, 0, 57, 0
2, 173616, Note_on_c, 0, 55, 102
2, 173663, Note_on_c, 0, 55, 0
2, 173663, Note_on_c, 0, 83, 0
2, 173664, Note_on_c, 0, 64, 102
2, 173664, Note_on_c, 0, 69, 102
2, 173664, Note_on_c, 0, 74, 102
2, 173664, Note_on_c, 0, 55, 102
2, 173759, Note_on_c, 0, 74, 0
2, 173760, Note_on_c, 0, 73, 102
2, 173903, Note_on_c, 0, 55, 0
2, 173904, Note_on_c, 0, 59, 102
2, 173951, Note_on_c, 0, 59, 0
2, 173951, Note_on_c, 0, 73, 0
2, 173952, Note_on_c, 0, 76, 102
2, 173952, Note_on_c, 0, 57, 102
2, 173999, Note_on_c, 0, 57, 0
2, 174000, Note_on_c, 0, 55, 102
2, 174044, Note_on_c, 0, 64, 0
2, 174044, Note_on_c, 0, 69, 0
2, 174047, Note_on_c, 0, 76, 0
2, 174047, Note_on_c, 0, 55, 0
2, 174048, Note_on_c, 0, 81, 102
2, 174048, Note_on_c, 0, 54, 102
2, 174095, Note_on_c, 0, 54, 0
2, 174096, Note_on_c, 0, 55, 102
2, 174143, Note_on_c, 0, 55, 0
2, 174144, Note_on_c, 0, 52, 102
2, 174239, Note_on_c, 0, 52, 0
2, 174239, Note_on_c, 0, 81, 0
2, 174240, Note_on_c, 0, 75, 102
2, 174240, Note_on_c, 0, 54, 102
2, 174287, Note_on_c, 0, 75, 0
2, 174288, Note_on_c, 0, 76, 102
2, 174335, Note_on_c, 0, 76, 0
2, 174336, Note_on_c, 0, 78, 102
2, 174383, Note_on_c, 0, 78, 0
2, 174384, Note_on_c, 0, 79, 102
2, 174431, Note_on_c, 0, 79, 0
2, 174431, Note_on_c, 0, 54, 0
2, 174432, Note_on_c, 0, 81, 102
2, 174432, Note_on_c, 0, 51, 102
2, 174479, Note_on_c, 0, 81, 0
2, 174480, Note_on_c, 0, 84, 102
2, 174527, Note_on_c, 0, 84, 0
2, 174528, Note_on_c, 0, 83, 102
2, 174575, Note_on_c, 0, 83, 0
2, 174576, Note_on_c, 0, 81, 102
2, 174623, Note_on_c, 0, 81, 0
2, 174623, Note_on_c, 0, 51, 0
2, 174624, Note_on_c, 0, 79, 102
2, 174624, Note_on_c, 0, 47, 102
2, 174671, Note_on_c, 0, 79, 0
2, 174672, Note_on_c, 0, 81, 102
2, 174719, Note_on_c, 0, 81, 0
2, 174720, Note_on_c, 0, 78, 102
2, 174815, Note_on_c, 0, 78, 0
2, 174816, Note_on_c, 0, 79, 102
2, 174824, Note_on_c, 0, 47, 0
2, 174864, Note_on_c, 0, 52, 102
2, 174911, Note_on_c, 0, 52, 0
2, 174912, Note_on_c, 0, 55, 102
2, 174959, Note_on_c, 0, 55, 0
2, 174960, Note_on_c, 0, 54, 102
2, 175007, Note_on_c, 0, 54, 0
2, 175008, Note_on_c, 0, 52, 102
2, 175055, Note_on_c, 0, 52, 0
2, 175056, Note_on_c, 0, 50, 102
2, 175103, Note_on_c, 0, 50, 0
2, 175104, Note_on_c, 0, 76, 102
2, 175104, Note_on_c, 0, 49, 102
2, 175151, Note_on_c, 0, 49, 0
2, 175152, Note_on_c, 0, 50, 102
2, 175199, Note_on_c, 0, 50, 0
2, 175199, Note_on_c, 0, 76, 0
2, 175200, Note_on_c, 0, 73, 102
2, 175200, Note_on_c, 0, 52, 102
2, 175247, Note_on_c, 0, 52, 0
2, 175248, Note_on_c, 0, 49, 102
2, 175295, Note_on_c, 0, 49, 0
2, 175296, Note_on_c, 0, 50, 102
2, 175343, Note_on_c, 0, 50, 0
2, 175344, Note_on_c, 0, 52, 102
2, 175391, Note_on_c, 0, 52, 0
2, 175391, Note_on_c, 0, 73, 0
2, 175392, Note_on_c, 0, 71, 102
2, 175392, Note_on_c, 0, 42, 102
2, 175487, Note_on_c, 0, 71, 0
2, 175488, Note_on_c, 0, 69, 102
2, 175631, Note_on_c, 0, 42, 0
2, 175632, Note_on_c, 0, 47, 102
2, 175676, Note_on_c, 0, 79, 0
2, 175679, Note_on_c, 0, 47, 0
2, 175680, Note_on_c, 0, 76, 102
2, 175680, Note_on_c, 0, 49, 102
2, 175775, Note_on_c, 0, 49, 0
2, 175775, Note_on_c, 0, 76, 0
2, 175776, Note_on_c, 0, 78, 102
2, 175776, Note_on_c, 0, 50, 102
2, 175871, Note_on_c, 0, 50, 0
2, 175872, Note_on_c, 0, 52, 102
2, 175967, Note_on_c, 0, 52, 0
2, 175967, Note_on_c, 0, 78, 0
2, 175968, Note_on_c, 0, 69, 0
2, 175968, Note_on_c, 0, 67, 102
2, 175968, Note_on_c, 0, 69, 102
2, 175968, Note_on_c, 0, 54, 102
2, 176108, Note_on_c, 0, 69, 0
2, 176108, Note_on_c, 0, 67, 0
2, 176159, Note_on_c, 0, 54, 0
2, 176160, Note_on_c, 0, 71, 102
2, 176160, Note_on_c, 0, 66, 102
2, 176160, Note_on_c, 0, 43, 102
2, 176300, Note_on_c, 0, 66, 0
2, 176300, Note_on_c, 0, 71, 0
2, 176351, Note_on_c, 0, 43, 0
2, 176352, Note_on_c, 0, 64, 102
2, 176352, Note_on_c, 0, 73, 102
2, 176352, Note_on_c, 0, 45, 102
2, 176492, Note_on_c, 0, 73, 0
2, 176492, Note_on_c, 0, 64, 0
2, 176543, Note_on_c, 0, 45, 0
2, 176544, Note_on_c, 0, 69, 102
2, 176544, Note_on_c, 0, 74, 102
2, 176544, Note_on_c, 0, 66, 102
2, 176544, Note_on_c, 0, 50, 102
2, 176804, Note_on_c, 0, 50, 0
2, 176832, Note_on_c, 0, 45, 102
2, 176912, Note_on_c, 0, 45, 0
2, 176912, Note_on_c, 0, 42, 102
2, 177120, Note_on_c, 0, 38, 102
2, 177122, Note_on_c, 0, 42, 0
2, 177311, Note_on_c, 0, 66, 0
2, 177311, Note_on_c, 0, 69, 0
2, 177311, Note_on_c, 0, 74, 0
2, 177408, Note_on_c, 0, 81, 102
2, 177472, Note_on_c, 0, 81, 0
2, 177472, Note_on_c, 0, 78, 102
2, 177500, Note_on_c, 0, 38, 0
2, 177663, Note_on_c, 0, 78, 0
2, 177664, Note_on_c, 0, 76, 102
2, 177755, Note_on_c, 0, 74, 102
2, 177759, Note_on_c, 0, 76, 0
2, 177984, Note_on_c, 0, 69, 102
2, 178059, Note_on_c, 0, 66, 102
2, 178069, Note_on_c, 0, 69, 0
2, 178261, Note_on_c, 0, 60, 102
2, 178522, Note_on_c, 0, 74, 0
2, 178539, Note_on_c, 0, 66, 0
2, 178560, Note_on_c, 0, 76, 102
2, 178560, Note_on_c, 0, 67, 102
2, 178640, Note_on_c, 0, 67, 0
2, 178640, Note_on_c, 0, 76, 0
2, 178642, Note_on_c, 0, 78, 102
2, 178642, Note_on_c, 0, 69, 102
2, 178836, Note_on_c, 0, 60, 0
2, 178842, Note_on_c, 0, 69, 0
2, 178842, Note_on_c, 0, 78, 0
2, 178848, Note_on_c, 0, 79, 102
2, 178848, Note_on_c, 0, 59, 102
2, 178848, Note_on_c, 0, 62, 102
2, 178944, Note_on_c, 0, 74, 102
2, 179040, Note_on_c, 0, 71, 102
2, 179135, Note_on_c, 0, 62, 0
2, 179135, Note_on_c, 0, 59, 0
2, 179136, Note_on_c, 0, 67, 102
2, 179136, Note_on_c, 0, 62, 102
2, 179231, Note_on_c, 0, 62, 0
2, 179232, Note_on_c, 0, 59, 102
2, 179424, Note_on_c, 0, 53, 102
2, 179708, Note_on_c, 0, 79, 0
2, 179711, Note_on_c, 0, 67, 0
2, 179711, Note_on_c, 0, 74, 0
2, 179711, Note_on_c, 0, 71, 0
2, 179712, Note_on_c, 0, 59, 0
2, 179712, Note_on_c, 0, 81, 102
2, 179712, Note_on_c, 0, 60, 102
2, 179807, Note_on_c, 0, 60, 0
2, 179807, Note_on_c, 0, 81, 0
2, 179808, Note_on_c, 0, 83, 102
2, 179808, Note_on_c, 0, 62, 102
2, 179998, Note_on_c, 0, 62, 0
2, 179999, Note_on_c, 0, 83, 0
2, 179999, Note_on_c, 0, 53, 0
2, 180000, Note_on_c, 0, 84, 102
2, 180000, Note_on_c, 0, 52, 102
2, 180047, Note_on_c, 0, 84, 0
2, 180048, Note_on_c, 0, 83, 102
2, 180095, Note_on_c, 0, 83, 0
2, 180096, Note_on_c, 0, 81, 102
2, 180143, Note_on_c, 0, 81, 0
2, 180144, Note_on_c, 0, 80, 102
2, 180191, Note_on_c, 0, 80, 0
2, 180191, Note_on_c, 0, 52, 0
2, 180192, Note_on_c, 0, 81, 102
2, 180192, Note_on_c, 0, 53, 102
2, 180192, Note_on_c, 0, 60, 102
2, 180335, Note_on_c, 0, 81, 0
2, 180336, Note_on_c, 0, 76, 102
2, 180383, Note_on_c, 0, 76, 0
2, 180383, Note_on_c, 0, 60, 0
2, 180383, Note_on_c, 0, 53, 0
2, 180384, Note_on_c, 0, 69, 102
2, 180384, Note_on_c, 0, 77, 102
2, 180384, Note_on_c, 0, 50, 102
2, 180384, Note_on_c, 0, 59, 102
2, 180575, Note_on_c, 0, 50, 0
2, 180575, Note_on_c, 0, 77, 0
2, 180576, Note_on_c, 0, 72, 102
2, 180576, Note_on_c, 0, 52, 102
2, 180671, Note_on_c, 0, 72, 0
2, 180672, Note_on_c, 0, 71, 102
2, 180764, Note_on_c, 0, 59, 0
2, 180768, Note_on_c, 0, 59, 102
2, 180863, Note_on_c, 0, 71, 0
2, 180864, Note_on_c, 0, 77, 102
2, 180959, Note_on_c, 0, 77, 0
2, 180959, Note_on_c, 0, 59, 0
2, 180959, Note_on_c, 0, 69, 0
2, 180960, Note_on_c, 0, 68, 102
2, 180960, Note_on_c, 0, 76, 102
2, 180960, Note_on_c, 0, 64, 102
2, 181151, Note_on_c, 0, 64, 0
2, 181151, Note_on_c, 0, 52, 0
2, 181151, Note_on_c, 0, 68, 0
2, 181151, Note_on_c, 0, 76, 0
2, 181152, Note_on_c, 0, 69, 102
2, 181152, Note_on_c, 0, 74, 102
2, 181152, Note_on_c, 0, 57, 102
2, 181199, Note_on_c, 0, 74, 0
2, 181200, Note_on_c, 0, 72, 102
2, 181247, Note_on_c, 0, 72, 0
2, 181248, Note_on_c, 0, 74, 102
2, 181295, Note_on_c, 0, 74, 0
2, 181296, Note_on_c, 0, 72, 102
2, 181343, Note_on_c, 0, 72, 0
2, 181344, Note_on_c, 0, 74, 102
2, 181344, Note_on_c, 0, 52, 102
2, 181391, Note_on_c, 0, 74, 0
2, 181392, Note_on_c, 0, 72, 102
2, 181439, Note_on_c, 0, 72, 0
2, 181440, Note_on_c, 0, 71, 102
2, 181532, Note_on_c, 0, 69, 0
2, 181535, Note_on_c, 0, 52, 0
2, 181535, Note_on_c, 0, 71, 0
2, 181536, Note_on_c, 0, 69, 102
2, 181536, Note_on_c, 0, 48, 102
2, 181727, Note_on_c, 0, 48, 0
2, 181727, Note_on_c, 0, 69, 0
2, 181727, Note_on_c, 0, 57, 0
2, 181728, Note_on_c, 0, 69, 102
2, 181728, Note_on_c, 0, 45, 102
2, 181919, Note_on_c, 0, 45, 0
2, 181920, Note_on_c, 0, 69, 0
2, 181920, Note_on_c, 0, 47, 102
2, 181968, Note_on_c, 0, 72, 102
2, 182015, Note_on_c, 0, 72, 0
2, 182016, Note_on_c, 0, 71, 102
2, 182063, Note_on_c, 0, 71, 0
2, 182064, Note_on_c, 0, 69, 102
2, 182111, Note_on_c, 0, 69, 0
2, 182111, Note_on_c, 0, 47, 0
2, 182112, Note_on_c, 0, 76, 102
2, 182112, Note_on_c, 0, 48, 102
2, 182303, Note_on_c, 0, 48, 0
2, 182303, Note_on_c, 0, 76, 0
2, 182304, Note_on_c, 0, 66, 102
2, 182304, Note_on_c, 0, 38, 102
2, 182399, Note_on_c, 0, 38, 0
2, 182400, Note_on_c, 0, 45, 102
2, 182495, Note_on_c, 0, 45, 0
2, 182496, Note_on_c, 0, 50, 102
2, 182591, Note_on_c, 0, 50, 0
2, 182591, Note_on_c, 0, 66, 0
2, 182592, Note_on_c, 0, 69, 102
2, 182592, Note_on_c, 0, 52, 102
2, 182639, Note_on_c, 0, 52, 0
2, 182640, Note_on_c, 0, 54, 102
2, 182687, Note_on_c, 0, 54, 0
2, 182687, Note_on_c, 0, 69, 0
2, 182688, Note_on_c, 0, 72, 102
2, 182688, Note_on_c, 0, 52, 102
2, 182784, Note_on_c, 0, 54, 102
2, 182831, Note_on_c, 0, 54, 0
2, 182832, Note_on_c, 0, 55, 102
2, 182878, Note_on_c, 0, 52, 0
2, 182879, Note_on_c, 0, 55, 0
2, 182880, Note_on_c, 0, 62, 102
2, 182880, Note_on_c, 0, 54, 102
2, 182975, Note_on_c, 0, 54, 0
2, 182976, Note_on_c, 0, 55, 102
2, 183023, Note_on_c, 0, 55, 0
2, 183024, Note_on_c, 0, 57, 102
2, 183071, Note_on_c, 0, 57, 0
2, 183072, Note_on_c, 0, 47, 102
2, 183119, Note_on_c, 0, 62, 0
2, 183120, Note_on_c, 0, 66, 102
2, 183167, Note_on_c, 0, 66, 0
2, 183167, Note_on_c, 0, 47, 0
2, 183168, Note_on_c, 0, 64, 102
2, 183168, Note_on_c, 0, 50, 102
2, 183215, Note_on_c, 0, 64, 0
2, 183216, Note_on_c, 0, 62, 102
2, 183263, Note_on_c, 0, 62, 0
2, 183263, Note_on_c, 0, 50, 0
2, 183263, Note_on_c, 0, 72, 0
2, 183264, Note_on_c, 0, 71, 102
2, 183264, Note_on_c, 0, 55, 102
2, 183360, Note_on_c, 0, 59, 102
2, 183455, Note_on_c, 0, 59, 0
2, 183455, Note_on_c, 0, 71, 0
2, 183456, Note_on_c, 0, 69, 102
2, 183456, Note_on_c, 0, 60, 102
2, 183544, Note_on_c, 0, 55, 0
2, 183552, Note_on_c, 0, 55, 102
2, 183646, Note_on_c, 0, 60, 0
2, 183647, Note_on_c, 0, 55, 0
2, 183648, Note_on_c, 0, 54, 102
2, 183743, Note_on_c, 0, 54, 0
2, 183743, Note_on_c, 0, 69, 0
2, 183744, Note_on_c, 0, 76, 102
2, 183744, Note_on_c, 0, 52, 102
2, 183839, Note_on_c, 0, 52, 0
2, 183839, Note_on_c, 0, 76, 0
2, 183840, Note_on_c, 0, 81, 102
2, 183840, Note_on_c, 0, 51, 102
2, 183935, Note_on_c, 0, 51, 0
2, 183936, Note_on_c, 0, 52, 102
2, 184031, Note_on_c, 0, 52, 0
2, 184032, Note_on_c, 0, 71, 102
2, 184032, Note_on_c, 0, 51, 102
2, 184127, Note_on_c, 0, 51, 0
2, 184128, Note_on_c, 0, 52, 102
2, 184175, Note_on_c, 0, 52, 0
2, 184176, Note_on_c, 0, 54, 102
2, 184223, Note_on_c, 0, 54, 0
2, 184224, Note_on_c, 0, 47, 102
2, 184264, Note_on_c, 0, 81, 0
2, 184272, Note_on_c, 0, 81, 102
2, 184319, Note_on_c, 0, 81, 0
2, 184319, Note_on_c, 0, 47, 0
2, 184320, Note_on_c, 0, 79, 102
2, 184320, Note_on_c, 0, 51, 102
2, 184367, Note_on_c, 0, 79, 0
2, 184368, Note_on_c, 0, 78, 102
2, 184415, Note_on_c, 0, 78, 0
2, 184415, Note_on_c, 0, 51, 0
2, 184416, Note_on_c, 0, 79, 102
2, 184416, Note_on_c, 0, 52, 102
2, 184511, Note_on_c, 0, 52, 0
2, 184512, Note_on_c, 0, 54, 102
2, 184559, Note_on_c, 0, 54, 0
2, 184560, Note_on_c, 0, 55, 102
2, 184607, Note_on_c, 0, 55, 0
2, 184607, Note_on_c, 0, 79, 0
2, 184607, Note_on_c, 0, 71, 0
2, 184608, Note_on_c, 0, 72, 102
2, 184608, Note_on_c, 0, 57, 102
2, 184655, Note_on_c, 0, 72, 0
2, 184656, Note_on_c, 0, 71, 102
2, 184703, Note_on_c, 0, 71, 0
2, 184704, Note_on_c, 0, 69, 102
2, 184751, Note_on_c, 0, 69, 0
2, 184752, Note_on_c, 0, 67, 102
2, 184799, Note_on_c, 0, 67, 0
2, 184800, Note_on_c, 0, 66, 102
2, 184847, Note_on_c, 0, 66, 0
2, 184848, Note_on_c, 0, 76, 102
2, 184895, Note_on_c, 0, 76, 0
2, 184896, Note_on_c, 0, 74, 102
2, 184896, Note_on_c, 0, 54, 102
2, 184943, Note_on_c, 0, 74, 0
2, 184944, Note_on_c, 0, 72, 102
2, 184991, Note_on_c, 0, 72, 0
2, 184991, Note_on_c, 0, 54, 0
2, 184992, Note_on_c, 0, 74, 102
2, 184992, Note_on_c, 0, 48, 102
2, 185132, Note_on_c, 0, 74, 0
2, 185183, Note_on_c, 0, 48, 0
2, 185184, Note_on_c, 0, 62, 102
2, 185184, Note_on_c, 0, 60, 102
2, 185184, Note_on_c, 0, 47, 102
2, 185324, Note_on_c, 0, 60, 0
2, 185324, Note_on_c, 0, 62, 0
2, 185375, Note_on_c, 0, 57, 0
2, 185375, Note_on_c, 0, 47, 0
2, 185376, Note_on_c, 0, 64, 102
2, 185376, Note_on_c, 0, 59, 102
2, 185376, Note_on_c, 0, 55, 102
2, 185376, Note_on_c, 0, 48, 102
2, 185516, Note_on_c, 0, 59, 0
2, 185516, Note_on_c, 0, 64, 0
2, 185567, Note_on_c, 0, 55, 0
2, 185567, Note_on_c, 0, 48, 0
2, 185568, Note_on_c, 0, 66, 102
2, 185568, Note_on_c, 0, 57, 102
2, 185568, Note_on_c, 0, 50, 102
2, 185708, Note_on_c, 0, 57, 0
2, 185708, Note_on_c, 0, 66, 0
2, 185759, Note_on_c, 0, 50, 0
2, 185760, Note_on_c, 0, 62, 102
2, 185760, Note_on_c, 0, 67, 102
2, 185760, Note_on_c, 0, 59, 102
2, 185760, Note_on_c, 0, 43, 102
2, 186047, Note_on_c, 0, 43, 0
2, 186048, Note_on_c, 0, 47, 102
2, 186143, Note_on_c, 0, 47, 0
2, 186144, Note_on_c, 0, 50, 102
2, 186335, Note_on_c, 0, 50, 0
2, 186336, Note_on_c, 0, 55, 102
2, 186910, Note_on_c, 0, 62, 0
2, 186910, Note_on_c, 0, 59, 0
2, 186910, Note_on_c, 0, 67, 0
2, 186911, Note_on_c, 0, 55, 0
2, 187776, Note_on_c, 0, 74, 102
2, 187903, Note_on_c, 0, 74, 0
2, 187904, Note_on_c, 0, 79, 102
2, 188031, Note_on_c, 0, 79, 0
2, 188032, Note_on_c, 0, 83, 102
2, 188159, Note_on_c, 0, 83, 0
2, 188160, Note_on_c, 0, 78, 102
2, 188287, Note_on_c, 0, 78, 0
2, 188288, Note_on_c, 0, 79, 102
2, 188415, Note_on_c, 0, 79, 0
2, 188416, Note_on_c, 0, 83, 102
2, 188543, Note_on_c, 0, 83, 0
2, 188544, Note_on_c, 0, 74, 102
2, 188671, Note_on_c, 0, 74, 0
2, 188672, Note_on_c, 0, 79, 102
2, 188799, Note_on_c, 0, 79, 0
2, 188800, Note_on_c, 0, 83, 102
2, 188927, Note_on_c, 0, 83, 0
2, 188928, Note_on_c, 0, 78, 102
2, 189055, Note_on_c, 0, 78, 0
2, 189056, Note_on_c, 0, 79, 102
2, 189183, Note_on_c, 0, 79, 0
2, 189184, Note_on_c, 0, 83, 102
2, 189311, Note_on_c, 0, 83, 0
2, 189312, Note_on_c, 0, 74, 102
2, 189439, Note_on_c, 0, 74, 0
2, 189440, Note_on_c, 0, 76, 102
2, 189567, Note_on_c, 0, 76, 0
2, 189568, Note_on_c, 0, 72, 102
2, 189695, Note_on_c, 0, 72, 0
2, 189696, Note_on_c, 0, 67, 102
2, 189823, Note_on_c, 0, 67, 0
2, 189824, Note_on_c, 0, 79, 102
2, 190014, Note_on_c, 0, 79, 0
2, 190080, Note_on_c, 0, 72, 102
2, 190207, Note_on_c, 0, 72, 0
2, 190208, Note_on_c, 0, 74, 102
2, 190335, Note_on_c, 0, 74, 0
2, 190336, Note_on_c, 0, 71, 102
2, 190463, Note_on_c, 0, 71, 0
2, 190464, Note_on_c, 0, 67, 102
2, 190591, Note_on_c, 0, 67, 0
2, 190592, Note_on_c, 0, 79, 102
2, 190782, Note_on_c, 0, 79, 0
2, 190848, Note_on_c, 0, 71, 102
2, 190975, Note_on_c, 0, 71, 0
2, 190976, Note_on_c, 0, 72, 102
2, 191103, Note_on_c, 0, 72, 0
2, 191104, Note_on_c, 0, 74, 102
2, 191231, Note_on_c, 0, 74, 0
2, 191232, Note_on_c, 0, 76, 102
2, 191359, Note_on_c, 0, 76, 0
2, 191360, Note_on_c, 0, 74, 102
2, 191487, Note_on_c, 0, 74, 0
2, 191488, Note_on_c, 0, 76, 102
2, 191615, Note_on_c, 0, 76, 0
2, 191616, Note_on_c, 0, 72, 102
2, 191743, Note_on_c, 0, 72, 0
2, 191744, Note_on_c, 0, 71, 102
2, 191871, Note_on_c, 0, 71, 0
2, 191872, Note_on_c, 0, 74, 102
2, 191999, Note_on_c, 0, 74, 0
2, 192000, Note_on_c, 0, 79, 102
2, 192127, Note_on_c, 0, 79, 0
2, 192128, Note_on_c, 0, 83, 102
2, 192255, Note_on_c, 0, 83, 0
2, 192256, Note_on_c, 0, 81, 102
2, 192383, Note_on_c, 0, 81, 0
2, 192384, Note_on_c, 0, 79, 102
2, 192384, Note_on_c, 0, 67, 102
2, 192511, Note_on_c, 0, 67, 0
2, 192511, Note_on_c, 0, 79, 0
2, 192512, Note_on_c, 0, 74, 102
2, 192512, Note_on_c, 0, 81, 102
2, 192639, Note_on_c, 0, 74, 0
2, 192640, Note_on_c, 0, 78, 102
2, 192767, Note_on_c, 0, 78, 0
2, 192767, Note_on_c, 0, 81, 0
2, 192768, Note_on_c, 0, 73, 102
2, 192768, Note_on_c, 0, 81, 102
2, 192895, Note_on_c, 0, 81, 0
2, 192895, Note_on_c, 0, 73, 0
2, 192896, Note_on_c, 0, 81, 102
2, 192896, Note_on_c, 0, 74, 102
2, 193023, Note_on_c, 0, 74, 0
2, 193024, Note_on_c, 0, 78, 102
2, 193151, Note_on_c, 0, 78, 0
2, 193151, Note_on_c, 0, 81, 0
2, 193152, Note_on_c, 0, 69, 102
2, 193152, Note_on_c, 0, 81, 102
2, 193279, Note_on_c, 0, 81, 0
2, 193279, Note_on_c, 0, 69, 0
2, 193280, Note_on_c, 0, 74, 102
2, 193280, Note_on_c, 0, 81, 102
2, 193407, Note_on_c, 0, 74, 0
2, 193408, Note_on_c, 0, 78, 102
2, 193535, Note_on_c, 0, 78, 0
2, 193535, Note_on_c, 0, 81, 0
2, 193536, Note_on_c, 0, 73, 102
2, 193536, Note_on_c, 0, 81, 102
2, 193663, Note_on_c, 0, 81, 0
2, 193663, Note_on_c, 0, 73, 0
2, 193664, Note_on_c, 0, 81, 102
2, 193664, Note_on_c, 0, 74, 102
2, 193791, Note_on_c, 0, 74, 0
2, 193792, Note_on_c, 0, 78, 102
2, 193919, Note_on_c, 0, 78, 0
2, 193919, Note_on_c, 0, 81, 0
2, 193920, Note_on_c, 0, 69, 102
2, 193920, Note_on_c, 0, 81, 102
2, 194047, Note_on_c, 0, 81, 0
2, 194047, Note_on_c, 0, 69, 0
2, 194048, Note_on_c, 0, 71, 102
2, 194048, Note_on_c, 0, 74, 102
2, 194175, Note_on_c, 0, 74, 0
2, 194175, Note_on_c, 0, 71, 0
2, 194176, Note_on_c, 0, 79, 102
2, 194176, Note_on_c, 0, 67, 102
2, 194303, Note_on_c, 0, 67, 0
2, 194303, Note_on_c, 0, 79, 0
2, 194304, Note_on_c, 0, 83, 102
2, 194304, Note_on_c, 0, 62, 102
2, 194431, Note_on_c, 0, 62, 0
2, 194431, Note_on_c, 0, 83, 0
2, 194432, Note_on_c, 0, 83, 102
2, 194432, Note_on_c, 0, 74, 102
2, 194559, Note_on_c, 0, 83, 0
2, 194560, Note_on_c, 0, 79, 102
2, 194622, Note_on_c, 0, 74, 0
2, 194687, Note_on_c, 0, 79, 0
2, 194688, Note_on_c, 0, 74, 102
2, 194688, Note_on_c, 0, 67, 102
2, 194815, Note_on_c, 0, 67, 0
2, 194815, Note_on_c, 0, 74, 0
2, 194816, Note_on_c, 0, 74, 102
2, 194816, Note_on_c, 0, 69, 102
2, 194943, Note_on_c, 0, 69, 0
2, 194943, Note_on_c, 0, 74, 0
2, 194944, Note_on_c, 0, 66, 102
2, 194944, Note_on_c, 0, 78, 102
2, 195071, Note_on_c, 0, 78, 0
2, 195071, Note_on_c, 0, 66, 0
2, 195072, Note_on_c, 0, 81, 102
2, 195072, Note_on_c, 0, 62, 102
2, 195199, Note_on_c, 0, 62, 0
2, 195199, Note_on_c, 0, 81, 0
2, 195200, Note_on_c, 0, 81, 102
2, 195200, Note_on_c, 0, 74, 102
2, 195327, Note_on_c, 0, 81, 0
2, 195328, Note_on_c, 0, 78, 102
2, 195390, Note_on_c, 0, 74, 0
2, 195455, Note_on_c, 0, 78, 0
2, 195456, Note_on_c, 0, 74, 102
2, 195456, Note_on_c, 0, 66, 102
2, 195583, Note_on_c, 0, 66, 0
2, 195583, Note_on_c, 0, 74, 0
2, 195584, Note_on_c, 0, 74, 102
2, 195584, Note_on_c, 0, 67, 102
2, 195711, Note_on_c, 0, 67, 0
2, 195712, Note_on_c, 0, 69, 102
2, 195839, Note_on_c, 0, 69, 0
2, 195840, Note_on_c, 0, 71, 102
2, 195964, Note_on_c, 0, 74, 0
2, 195967, Note_on_c, 0, 71, 0
2, 195968, Note_on_c, 0, 73, 102
2, 195968, Note_on_c, 0, 69, 102
2, 196095, Note_on_c, 0, 69, 0
2, 196096, Note_on_c, 0, 71, 102
2, 196223, Note_on_c, 0, 71, 0
2, 196224, Note_on_c, 0, 67, 102
2, 196348, Note_on_c, 0, 73, 0
2, 196351, Note_on_c, 0, 67, 0
2, 196352, Note_on_c, 0, 74, 102
2, 196352, Note_on_c, 0, 66, 102
2, 196479, Note_on_c, 0, 66, 0
2, 196480, Note_on_c, 0, 69, 102
2, 196607, Note_on_c, 0, 69, 0
2, 196608, Note_on_c, 0, 72, 102
2, 196732, Note_on_c, 0, 74, 0
2, 196735, Note_on_c, 0, 72, 0
2, 196736, Note_on_c, 0, 78, 102
2, 196736, Note_on_c, 0, 76, 102
2, 196863, Note_on_c, 0, 76, 0
2, 196864, Note_on_c, 0, 74, 102
2, 196991, Note_on_c, 0, 74, 0
2, 196992, Note_on_c, 0, 72, 102
2, 196992, Note_on_c, 0, 62, 102
2, 197116, Note_on_c, 0, 78, 0
2, 197119, Note_on_c, 0, 62, 0
2, 197119, Note_on_c, 0, 72, 0
2, 197120, Note_on_c, 0, 79, 102
2, 197120, Note_on_c, 0, 71, 102
2, 197120, Note_on_c, 0, 67, 102
2, 197247, Note_on_c, 0, 67, 0
2, 197247, Note_on_c, 0, 71, 0
2, 197248, Note_on_c, 0, 71, 102
2, 197375, Note_on_c, 0, 71, 0
2, 197375, Note_on_c, 0, 79, 0
2, 197376, Note_on_c, 0, 74, 102
2, 197376, Note_on_c, 0, 81, 102
2, 197376, Note_on_c, 0, 66, 102
2, 197503, Note_on_c, 0, 66, 0
2, 197503, Note_on_c, 0, 81, 0
2, 197503, Note_on_c, 0, 74, 0
2, 197504, Note_on_c, 0, 83, 102
2, 197504, Note_on_c, 0, 74, 102
2, 197504, Note_on_c, 0, 67, 102
2, 197631, Note_on_c, 0, 67, 0
2, 197632, Note_on_c, 0, 71, 102
2, 197759, Note_on_c, 0, 71, 0
2, 197759, Note_on_c, 0, 74, 0
2, 197759, Note_on_c, 0, 83, 0
2, 197760, Note_on_c, 0, 84, 102
2, 197760, Note_on_c, 0, 74, 102
2, 197760, Note_on_c, 0, 62, 102
2, 197887, Note_on_c, 0, 62, 0
2, 197887, Note_on_c, 0, 74, 0
2, 197887, Note_on_c, 0, 84, 0
2, 197888, Note_on_c, 0, 83, 102
2, 197888, Note_on_c, 0, 74, 102
2, 197888, Note_on_c, 0, 67, 102
2, 198015, Note_on_c, 0, 67, 0
2, 198016, Note_on_c, 0, 71, 102
2, 198143, Note_on_c, 0, 71, 0
2, 198143, Note_on_c, 0, 74, 0
2, 198143, Note_on_c, 0, 83, 0
2, 198144, Note_on_c, 0, 74, 102
2, 198144, Note_on_c, 0, 81, 102
2, 198144, Note_on_c, 0, 66, 102
2, 198271, Note_on_c, 0, 66, 0
2, 198271, Note_on_c, 0, 81, 0
2, 198271, Note_on_c, 0, 74, 0
2, 198272, Note_on_c, 0, 74, 102
2, 198272, Note_on_c, 0, 79, 102
2, 198272, Note_on_c, 0, 67, 102
2, 198399, Note_on_c, 0, 67, 0
2, 198400, Note_on_c, 0, 71, 102
2, 198527, Note_on_c, 0, 71, 0
2, 198527, Note_on_c, 0, 74, 0
2, 198528, Note_on_c, 0, 71, 102
2, 198528, Note_on_c, 0, 62, 102
2, 198655, Note_on_c, 0, 62, 0
2, 198655, Note_on_c, 0, 71, 0
2, 198656, Note_on_c, 0, 67, 102
2, 198656, Note_on_c, 0, 64, 102
2, 198783, Note_on_c, 0, 64, 0
2, 198783, Note_on_c, 0, 67, 0
2, 198784, Note_on_c, 0, 72, 102
2, 198784, Note_on_c, 0, 60, 102
2, 198911, Note_on_c, 0, 60, 0
2, 198911, Note_on_c, 0, 72, 0
2, 198912, Note_on_c, 0, 76, 102
2, 198912, Note_on_c, 0, 55, 102
2, 199039, Note_on_c, 0, 55, 0
2, 199039, Note_on_c, 0, 76, 0
2, 199040, Note_on_c, 0, 76, 102
2, 199040, Note_on_c, 0, 67, 102
2, 199167, Note_on_c, 0, 76, 0
2, 199168, Note_on_c, 0, 72, 102
2, 199230, Note_on_c, 0, 67, 0
2, 199295, Note_on_c, 0, 72, 0
2, 199296, Note_on_c, 0, 67, 102
2, 199296, Note_on_c, 0, 60, 102
2, 199423, Note_on_c, 0, 60, 0
2, 199423, Note_on_c, 0, 67, 0
2, 199424, Note_on_c, 0, 67, 102
2, 199424, Note_on_c, 0, 62, 102
2, 199551, Note_on_c, 0, 62, 0
2, 199551, Note_on_c, 0, 67, 0
2, 199552, Note_on_c, 0, 71, 102
2, 199552, Note_on_c, 0, 59, 102
2, 199679, Note_on_c, 0, 59, 0
2, 199679, Note_on_c, 0, 71, 0
2, 199680, Note_on_c, 0, 74, 102
2, 199680, Note_on_c, 0, 55, 102
2, 199807, Note_on_c, 0, 55, 0
2, 199807, Note_on_c, 0, 74, 0
2, 199808, Note_on_c, 0, 74, 102
2, 199808, Note_on_c, 0, 67, 102
2, 199935, Note_on_c, 0, 74, 0
2, 199936, Note_on_c, 0, 71, 102
2, 199998, Note_on_c, 0, 67, 0
2, 200063, Note_on_c, 0, 71, 0
2, 200064, Note_on_c, 0, 67, 102
2, 200064, Note_on_c, 0, 59, 102
2, 200191, Note_on_c, 0, 59, 0
2, 200191, Note_on_c, 0, 67, 0
2, 200192, Note_on_c, 0, 69, 102
2, 200192, Note_on_c, 0, 60, 102
2, 200193, Note_on_c, 0, 79, 0
2, 200319, Note_on_c, 0, 60, 0
2, 200320, Note_on_c, 0, 62, 102
2, 200447, Note_on_c, 0, 62, 0
2, 200448, Note_on_c, 0, 64, 102
2, 200575, Note_on_c, 0, 64, 0
2, 200576, Note_on_c, 0, 78, 102
2, 200576, Note_on_c, 0, 62, 102
2, 200703, Note_on_c, 0, 62, 0
2, 200704, Note_on_c, 0, 64, 102
2, 200831, Note_on_c, 0, 64, 0
2, 200832, Note_on_c, 0, 60, 102
2, 200959, Note_on_c, 0, 60, 0
2, 200959, Note_on_c, 0, 78, 0
2, 200959, Note_on_c, 0, 69, 0
2, 200960, Note_on_c, 0, 79, 102
2, 200960, Note_on_c, 0, 67, 102
2, 200960, Note_on_c, 0, 59, 102
2, 201087, Note_on_c, 0, 59, 0
2, 201088, Note_on_c, 0, 62, 102
2, 201215, Note_on_c, 0, 62, 0
2, 201215, Note_on_c, 0, 67, 0
2, 201215, Note_on_c, 0, 79, 0
2, 201216, Note_on_c, 0, 57, 102
2, 201343, Note_on_c, 0, 57, 0
2, 201344, Note_on_c, 0, 59, 102
2, 201471, Note_on_c, 0, 59, 0
2, 201472, Note_on_c, 0, 62, 102
2, 201599, Note_on_c, 0, 62, 0
2, 201600, Note_on_c, 0, 74, 102
2, 201600, Note_on_c, 0, 55, 102
2, 201727, Note_on_c, 0, 55, 0
2, 201727, Note_on_c, 0, 74, 0
2, 201728, Note_on_c, 0, 76, 102
2, 201728, Note_on_c, 0, 60, 102
2, 201855, Note_on_c, 0, 76, 0
2, 201856, Note_on_c, 0, 79, 102
2, 201983, Note_on_c, 0, 79, 0
2, 201983, Note_on_c, 0, 60, 0
2, 201984, Note_on_c, 0, 74, 102
2, 201984, Note_on_c, 0, 59, 102
2, 202111, Note_on_c, 0, 59, 0
2, 202111, Note_on_c, 0, 74, 0
2, 202112, Note_on_c, 0, 76, 102
2, 202112, Note_on_c, 0, 60, 102
2, 202239, Note_on_c, 0, 76, 0
2, 202240, Note_on_c, 0, 79, 102
2, 202367, Note_on_c, 0, 79, 0
2, 202367, Note_on_c, 0, 60, 0
2, 202368, Note_on_c, 0, 71, 102
2, 202368, Note_on_c, 0, 55, 102
2, 202495, Note_on_c, 0, 55, 0
2, 202495, Note_on_c, 0, 71, 0
2, 202496, Note_on_c, 0, 72, 102
2, 202496, Note_on_c, 0, 57, 102
2, 202623, Note_on_c, 0, 57, 0
2, 202624, Note_on_c, 0, 60, 102
2, 202751, Note_on_c, 0, 60, 0
2, 202751, Note_on_c, 0, 72, 0
2, 202752, Note_on_c, 0, 55, 102
2, 202879, Note_on_c, 0, 55, 0
2, 202880, Note_on_c, 0, 57, 102
2, 203007, Note_on_c, 0, 57, 0
2, 203008, Note_on_c, 0, 60, 102
2, 203135, Note_on_c, 0, 60, 0
2, 203136, Note_on_c, 0, 79, 102
2, 203136, Note_on_c, 0, 52, 102
2, 203263, Note_on_c, 0, 52, 0
2, 203263, Note_on_c, 0, 79, 0
2, 203264, Note_on_c, 0, 81, 102
2, 203264, Note_on_c, 0, 54, 102
2, 203391, Note_on_c, 0, 81, 0
2, 203392, Note_on_c, 0, 84, 102
2, 203519, Note_on_c, 0, 84, 0
2, 203519, Note_on_c, 0, 54, 0
2, 203520, Note_on_c, 0, 79, 102
2, 203520, Note_on_c, 0, 52, 102
2, 203647, Note_on_c, 0, 52, 0
2, 203647, Note_on_c, 0, 79, 0
2, 203648, Note_on_c, 0, 81, 102
2, 203648, Note_on_c, 0, 54, 102
2, 203775, Note_on_c, 0, 81, 0
2, 203776, Note_on_c, 0, 84, 102
2, 203903, Note_on_c, 0, 84, 0
2, 203903, Note_on_c, 0, 54, 0
2, 203904, Note_on_c, 0, 76, 102
2, 203904, Note_on_c, 0, 57, 102
2, 204031, Note_on_c, 0, 57, 0
2, 204031, Note_on_c, 0, 76, 0
2, 204032, Note_on_c, 0, 78, 102
2, 204032, Note_on_c, 0, 62, 102
2, 204159, Note_on_c, 0, 62, 0
2, 204159, Note_on_c, 0, 78, 0
2, 204160, Note_on_c, 0, 81, 102
2, 204160, Note_on_c, 0, 66, 102
2, 204287, Note_on_c, 0, 66, 0
2, 204287, Note_on_c, 0, 81, 0
2, 204288, Note_on_c, 0, 76, 102
2, 204288, Note_on_c, 0, 61, 102
2, 204415, Note_on_c, 0, 61, 0
2, 204415, Note_on_c, 0, 76, 0
2, 204416, Note_on_c, 0, 78, 102
2, 204416, Note_on_c, 0, 62, 102
2, 204543, Note_on_c, 0, 62, 0
2, 204543, Note_on_c, 0, 78, 0
2, 204544, Note_on_c, 0, 81, 102
2, 204544, Note_on_c, 0, 66, 102
2, 204671, Note_on_c, 0, 66, 0
2, 204671, Note_on_c, 0, 81, 0
2, 204672, Note_on_c, 0, 73, 102
2, 204672, Note_on_c, 0, 57, 102
2, 204799, Note_on_c, 0, 57, 0
2, 204799, Note_on_c, 0, 73, 0
2, 204800, Note_on_c, 0, 74, 102
2, 204800, Note_on_c, 0, 59, 102
2, 204927, Note_on_c, 0, 59, 0
2, 204927, Note_on_c, 0, 74, 0
2, 204928, Note_on_c, 0, 78, 102
2, 204928, Note_on_c, 0, 62, 102
2, 205055, Note_on_c, 0, 62, 0
2, 205055, Note_on_c, 0, 78, 0
2, 205056, Note_on_c, 0, 73, 102
2, 205056, Note_on_c, 0, 57, 102
2, 205183, Note_on_c, 0, 57, 0
2, 205183, Note_on_c, 0, 73, 0
2, 205184, Note_on_c, 0, 74, 102
2, 205184, Note_on_c, 0, 59, 102
2, 205311, Note_on_c, 0, 59, 0
2, 205311, Note_on_c, 0, 74, 0
2, 205312, Note_on_c, 0, 78, 102
2, 205312, Note_on_c, 0, 62, 102
2, 205439, Note_on_c, 0, 62, 0
2, 205439, Note_on_c, 0, 78, 0
2, 205440, Note_on_c, 0, 69, 102
2, 205440, Note_on_c, 0, 54, 102
2, 205567, Note_on_c, 0, 54, 0
2, 205567, Note_on_c, 0, 69, 0
2, 205568, Note_on_c, 0, 71, 102
2, 205568, Note_on_c, 0, 55, 102
2, 205695, Note_on_c, 0, 71, 0
2, 205696, Note_on_c, 0, 74, 102
2, 205823, Note_on_c, 0, 74, 0
2, 205823, Note_on_c, 0, 55, 0
2, 205824, Note_on_c, 0, 73, 102
2, 205824, Note_on_c, 0, 52, 102
2, 205951, Note_on_c, 0, 52, 0
2, 205951, Note_on_c, 0, 73, 0
2, 205952, Note_on_c, 0, 74, 102
2, 205952, Note_on_c, 0, 54, 102
2, 206079, Note_on_c, 0, 74, 0
2, 206080, Note_on_c, 0, 76, 102
2, 206207, Note_on_c, 0, 76, 0
2, 206207, Note_on_c, 0, 54, 0
2, 206208, Note_on_c, 0, 71, 102
2, 206208, Note_on_c, 0, 55, 102
2, 206335, Note_on_c, 0, 55, 0
2, 206335, Note_on_c, 0, 71, 0
2, 206336, Note_on_c, 0, 73, 102
2, 206336, Note_on_c, 0, 57, 102
2, 206463, Note_on_c, 0, 73, 0
2, 206464, Note_on_c, 0, 76, 102
2, 206591, Note_on_c, 0, 76, 0
2, 206591, Note_on_c, 0, 57, 0
2, 206592, Note_on_c, 0, 74, 102
2, 206592, Note_on_c, 0, 54, 102
2, 206719, Note_on_c, 0, 54, 0
2, 206719, Note_on_c, 0, 74, 0
2, 206720, Note_on_c, 0, 76, 102
2, 206720, Note_on_c, 0, 55, 102
2, 206847, Note_on_c, 0, 76, 0
2, 206848, Note_on_c, 0, 78, 102
2, 206975, Note_on_c, 0, 78, 0
2, 206975, Note_on_c, 0, 55, 0
2, 206976, Note_on_c, 0, 73, 102
2, 206976, Note_on_c, 0, 57, 102
2, 207103, Note_on_c, 0, 57, 0
2, 207103, Note_on_c, 0, 73, 0
2, 207104, Note_on_c, 0, 74, 102
2, 207104, Note_on_c, 0, 59, 102
2, 207231, Note_on_c, 0, 74, 0
2, 207232, Note_on_c, 0, 78, 102
2, 207359, Note_on_c, 0, 78, 0
2, 207359, Note_on_c, 0, 59, 0
2, 207360, Note_on_c, 0, 76, 102
2, 207360, Note_on_c, 0, 61, 102
2, 207487, Note_on_c, 0, 61, 0
2, 207487, Note_on_c, 0, 76, 0
2, 207488, Note_on_c, 0, 78, 102
2, 207488, Note_on_c, 0, 62, 102
2, 207615, Note_on_c, 0, 78, 0
2, 207616, Note_on_c, 0, 81, 102
2, 207743, Note_on_c, 0, 81, 0
2, 207743, Note_on_c, 0, 62, 0
2, 207744, Note_on_c, 0, 79, 102
2, 207744, Note_on_c, 0, 59, 102
2, 207871, Note_on_c, 0, 59, 0
2, 207871, Note_on_c, 0, 79, 0
2, 207872, Note_on_c, 0, 81, 102
2, 207872, Note_on_c, 0, 61, 102
2, 207999, Note_on_c, 0, 61, 0
2, 207999, Note_on_c, 0, 81, 0
2, 208000, Note_on_c, 0, 64, 102
2, 208127, Note_on_c, 0, 64, 0
2, 208128, Note_on_c, 0, 69, 102
2, 208255, Note_on_c, 0, 69, 0
2, 208256, Note_on_c, 0, 73, 102
2, 208383, Note_on_c, 0, 73, 0
2, 208384, Note_on_c, 0, 76, 102
2, 208511, Note_on_c, 0, 76, 0
2, 208512, Note_on_c, 0, 79, 102
2, 208512, Note_on_c, 0, 45, 102
2, 208639, Note_on_c, 0, 45, 0
2, 208639, Note_on_c, 0, 79, 0
2, 208640, Note_on_c, 0, 78, 102
2, 208640, Note_on_c, 0, 50, 102
2, 208767, Note_on_c, 0, 50, 0
2, 208768, Note_on_c, 0, 54, 102
2, 208895, Note_on_c, 0, 54, 0
2, 208895, Note_on_c, 0, 78, 0
2, 208896, Note_on_c, 0, 69, 102
2, 208896, Note_on_c, 0, 76, 102
2, 208896, Note_on_c, 0, 49, 102
2, 209023, Note_on_c, 0, 49, 0
2, 209023, Note_on_c, 0, 76, 0
2, 209023, Note_on_c, 0, 69, 0
2, 209024, Note_on_c, 0, 69, 102
2, 209024, Note_on_c, 0, 78, 102
2, 209024, Note_on_c, 0, 50, 102
2, 209151, Note_on_c, 0, 50, 0
2, 209152, Note_on_c, 0, 54, 102
2, 209279, Note_on_c, 0, 54, 0
2, 209279, Note_on_c, 0, 78, 0
2, 209279, Note_on_c, 0, 69, 0
2, 209280, Note_on_c, 0, 69, 102
2, 209280, Note_on_c, 0, 79, 102
2, 209280, Note_on_c, 0, 45, 102
2, 209407, Note_on_c, 0, 45, 0
2, 209407, Note_on_c, 0, 79, 0
2, 209407, Note_on_c, 0, 69, 0
2, 209408, Note_on_c, 0, 78, 102
2, 209408, Note_on_c, 0, 69, 102
2, 209408, Note_on_c, 0, 50, 102
2, 209535, Note_on_c, 0, 50, 0
2, 209536, Note_on_c, 0, 54, 102
2, 209663, Note_on_c, 0, 54, 0
2, 209663, Note_on_c, 0, 69, 0
2, 209663, Note_on_c, 0, 78, 0
2, 209664, Note_on_c, 0, 76, 102
2, 209664, Note_on_c, 0, 69, 102
2, 209664, Note_on_c, 0, 49, 102
2, 209791, Note_on_c, 0, 49, 0
2, 209791, Note_on_c, 0, 69, 0
2, 209791, Note_on_c, 0, 76, 0
2, 209792, Note_on_c, 0, 74, 102
2, 209792, Note_on_c, 0, 69, 102
2, 209792, Note_on_c, 0, 50, 102
2, 209919, Note_on_c, 0, 50, 0
2, 209920, Note_on_c, 0, 54, 102
2, 210047, Note_on_c, 0, 54, 0
2, 210047, Note_on_c, 0, 69, 0
2, 210048, Note_on_c, 0, 66, 102
2, 210048, Note_on_c, 0, 45, 102
2, 210175, Note_on_c, 0, 45, 0
2, 210175, Note_on_c, 0, 66, 0
2, 210176, Note_on_c, 0, 62, 102
2, 210176, Note_on_c, 0, 47, 102
2, 210303, Note_on_c, 0, 47, 0
2, 210303, Note_on_c, 0, 62, 0
2, 210304, Note_on_c, 0, 67, 102
2, 210304, Note_on_c, 0, 43, 102
2, 210431, Note_on_c, 0, 43, 0
2, 210431, Note_on_c, 0, 67, 0
2, 210432, Note_on_c, 0, 71, 102
2, 210432, Note_on_c, 0, 38, 102
2, 210559, Note_on_c, 0, 38, 0
2, 210559, Note_on_c, 0, 71, 0
2, 210560, Note_on_c, 0, 71, 102
2, 210560, Note_on_c, 0, 50, 102
2, 210687, Note_on_c, 0, 71, 0
2, 210688, Note_on_c, 0, 67, 102
2, 210750, Note_on_c, 0, 50, 0
2, 210815, Note_on_c, 0, 67, 0
2, 210816, Note_on_c, 0, 62, 102
2, 210816, Note_on_c, 0, 43, 102
2, 210943, Note_on_c, 0, 43, 0
2, 210943, Note_on_c, 0, 62, 0
2, 210944, Note_on_c, 0, 62, 102
2, 210944, Note_on_c, 0, 45, 102
2, 211071, Note_on_c, 0, 45, 0
2, 211071, Note_on_c, 0, 62, 0
2, 211072, Note_on_c, 0, 66, 102
2, 211072, Note_on_c, 0, 42, 102
2, 211199, Note_on_c, 0, 42, 0
2, 211199, Note_on_c, 0, 66, 0
2, 211200, Note_on_c, 0, 69, 102
2, 211200, Note_on_c, 0, 38, 102
2, 211327, Note_on_c, 0, 38, 0
2, 211327, Note_on_c, 0, 69, 0
2, 211328, Note_on_c, 0, 69, 102
2, 211328, Note_on_c, 0, 50, 102
2, 211455, Note_on_c, 0, 69, 0
2, 211456, Note_on_c, 0, 66, 102
2, 211518, Note_on_c, 0, 50, 0
2, 211583, Note_on_c, 0, 66, 0
2, 211584, Note_on_c, 0, 62, 102
2, 211584, Note_on_c, 0, 42, 102
2, 211711, Note_on_c, 0, 42, 0
2, 211711, Note_on_c, 0, 62, 0
2, 211712, Note_on_c, 0, 74, 0
2, 211712, Note_on_c, 0, 64, 102
2, 211712, Note_on_c, 0, 43, 102
2, 211839, Note_on_c, 0, 43, 0
2, 211840, Note_on_c, 0, 45, 102
2, 211967, Note_on_c, 0, 45, 0
2, 211968, Note_on_c, 0, 74, 102
2, 211968, Note_on_c, 0, 47, 102
2, 212095, Note_on_c, 0, 47, 0
2, 212095, Note_on_c, 0, 74, 0
2, 212096, Note_on_c, 0, 73, 102
2, 212096, Note_on_c, 0, 45, 102
2, 212223, Note_on_c, 0, 45, 0
2, 212224, Note_on_c, 0, 47, 102
2, 212351, Note_on_c, 0, 47, 0
2, 212351, Note_on_c, 0, 73, 0
2, 212352, Note_on_c, 0, 71, 102
2, 212352, Note_on_c, 0, 45, 102
2, 212479, Note_on_c, 0, 45, 0
2, 212479, Note_on_c, 0, 71, 0
2, 212480, Note_on_c, 0, 69, 102
2, 212480, Note_on_c, 0, 42, 102
2, 212607, Note_on_c, 0, 42, 0
2, 212608, Note_on_c, 0, 43, 102
2, 212730, Note_on_c, 0, 64, 0
2, 212735, Note_on_c, 0, 43, 0
2, 212736, Note_on_c, 0, 62, 102
2, 212736, Note_on_c, 0, 45, 102
2, 212860, Note_on_c, 0, 69, 0
2, 212863, Note_on_c, 0, 45, 0
2, 212864, Note_on_c, 0, 71, 102
2, 212864, Note_on_c, 0, 43, 102
2, 212991, Note_on_c, 0, 43, 0
2, 212992, Note_on_c, 0, 45, 102
2, 213119, Note_on_c, 0, 45, 0
2, 213119, Note_on_c, 0, 71, 0
2, 213120, Note_on_c, 0, 69, 102
2, 213120, Note_on_c, 0, 42, 102
2, 213247, Note_on_c, 0, 42, 0
2, 213247, Note_on_c, 0, 69, 0
2, 213248, Note_on_c, 0, 67, 102
2, 213248, Note_on_c, 0, 40, 102
2, 213375, Note_on_c, 0, 40, 0
2, 213376, Note_on_c, 0, 42, 102
2, 213503, Note_on_c, 0, 42, 0
2, 213503, Note_on_c, 0, 62, 0
2, 213504, Note_on_c, 0, 61, 102
2, 213504, Note_on_c, 0, 43, 102
2, 213628, Note_on_c, 0, 67, 0
2, 213631, Note_on_c, 0, 43, 0
2, 213632, Note_on_c, 0, 69, 102
2, 213632, Note_on_c, 0, 42, 102
2, 213759, Note_on_c, 0, 42, 0
2, 213760, Note_on_c, 0, 43, 102
2, 213887, Note_on_c, 0, 43, 0
2, 213887, Note_on_c, 0, 69, 0
2, 213888, Note_on_c, 0, 67, 102
2, 213888, Note_on_c, 0, 40, 102
2, 213978, Note_on_c, 0, 67, 0
2, 214014, Note_on_c, 0, 61, 0
2, 214015, Note_on_c, 0, 40, 0
2, 214016, Note_on_c, 0, 66, 102
2, 214016, Note_on_c, 0, 38, 102
2, 214144, Note_on_c, 0, 62, 102
2, 214271, Note_on_c, 0, 38, 0
2, 214271, Note_on_c, 0, 66, 0
2, 214272, Note_on_c, 0, 67, 102
2, 214272, Note_on_c, 0, 40, 102
2, 214399, Note_on_c, 0, 40, 0
2, 214399, Note_on_c, 0, 67, 0
2, 214400, Note_on_c, 0, 69, 102
2, 214400, Note_on_c, 0, 42, 102
2, 214524, Note_on_c, 0, 62, 0
2, 214528, Note_on_c, 0, 62, 102
2, 214655, Note_on_c, 0, 42, 0
2, 214655, Note_on_c, 0, 69, 0
2, 214656, Note_on_c, 0, 71, 102
2, 214656, Note_on_c, 0, 43, 102
2, 214766, Note_on_c, 0, 71, 0
2, 214783, Note_on_c, 0, 43, 0
2, 214783, Note_on_c, 0, 62, 0
2, 214784, Note_on_c, 0, 61, 102
2, 214784, Note_on_c, 0, 45, 102
2, 214912, Note_on_c, 0, 57, 102
2, 215039, Note_on_c, 0, 45, 0
2, 215039, Note_on_c, 0, 61, 0
2, 215040, Note_on_c, 0, 62, 102
2, 215040, Note_on_c, 0, 47, 102
2, 215167, Note_on_c, 0, 47, 0
2, 215167, Note_on_c, 0, 62, 0
2, 215168, Note_on_c, 0, 64, 102
2, 215168, Note_on_c, 0, 49, 102
2, 215292, Note_on_c, 0, 57, 0
2, 215296, Note_on_c, 0, 57, 102
2, 215423, Note_on_c, 0, 49, 0
2, 215423, Note_on_c, 0, 64, 0
2, 215424, Note_on_c, 0, 66, 102
2, 215424, Note_on_c, 0, 50, 102
2, 215534, Note_on_c, 0, 66, 0
2, 215551, Note_on_c, 0, 50, 0
2, 215551, Note_on_c, 0, 57, 0
2, 215552, Note_on_c, 0, 67, 102
2, 215552, Note_on_c, 0, 40, 102
2, 215680, Note_on_c, 0, 64, 102
2, 215807, Note_on_c, 0, 40, 0
2, 215807, Note_on_c, 0, 67, 0
2, 215808, Note_on_c, 0, 69, 102
2, 215808, Note_on_c, 0, 42, 102
2, 215935, Note_on_c, 0, 42, 0
2, 215935, Note_on_c, 0, 69, 0
2, 215936, Note_on_c, 0, 71, 102
2, 215936, Note_on_c, 0, 43, 102
2, 216060, Note_on_c, 0, 64, 0
2, 216064, Note_on_c, 0, 64, 102
2, 216191, Note_on_c, 0, 43, 0
2, 216191, Note_on_c, 0, 71, 0
2, 216192, Note_on_c, 0, 73, 102
2, 216192, Note_on_c, 0, 45, 102
2, 216302, Note_on_c, 0, 73, 0
2, 216319, Note_on_c, 0, 45, 0
2, 216319, Note_on_c, 0, 64, 0
2, 216320, Note_on_c, 0, 62, 102
2, 216320, Note_on_c, 0, 47, 102
2, 216448, Note_on_c, 0, 59, 102
2, 216575, Note_on_c, 0, 47, 0
2, 216575, Note_on_c, 0, 62, 0
2, 216576, Note_on_c, 0, 64, 102
2, 216576, Note_on_c, 0, 49, 102
2, 216703, Note_on_c, 0, 49, 0
2, 216703, Note_on_c, 0, 64, 0
2, 216704, Note_on_c, 0, 66, 102
2, 216704, Note_on_c, 0, 50, 102
2, 216828, Note_on_c, 0, 59, 0
2, 216832, Note_on_c, 0, 59, 102
2, 216959, Note_on_c, 0, 50, 0
2, 216959, Note_on_c, 0, 66, 0
2, 216960, Note_on_c, 0, 67, 102
2, 216960, Note_on_c, 0, 52, 102
2, 217080, Note_on_c, 0, 67, 0
2, 217087, Note_on_c, 0, 52, 0
2, 217087, Note_on_c, 0, 59, 0
2, 217088, Note_on_c, 0, 69, 102
2, 217088, Note_on_c, 0, 54, 102
2, 217216, Note_on_c, 0, 66, 102
2, 217343, Note_on_c, 0, 66, 0
2, 217343, Note_on_c, 0, 54, 0
2, 217344, Note_on_c, 0, 61, 102
2, 217344, Note_on_c, 0, 55, 102
2, 217471, Note_on_c, 0, 55, 0
2, 217471, Note_on_c, 0, 61, 0
2, 217472, Note_on_c, 0, 62, 102
2, 217472, Note_on_c, 0, 54, 102
2, 217599, Note_on_c, 0, 62, 0
2, 217600, Note_on_c, 0, 66, 102
2, 217727, Note_on_c, 0, 66, 0
2, 217727, Note_on_c, 0, 54, 0
2, 217728, Note_on_c, 0, 57, 102
2, 217728, Note_on_c, 0, 52, 102
2, 217855, Note_on_c, 0, 52, 0
2, 217855, Note_on_c, 0, 57, 0
2, 217856, Note_on_c, 0, 62, 102
2, 217856, Note_on_c, 0, 54, 102
2, 217983, Note_on_c, 0, 62, 0
2, 217984, Note_on_c, 0, 66, 102
2, 218111, Note_on_c, 0, 66, 0
2, 218111, Note_on_c, 0, 54, 0
2, 218112, Note_on_c, 0, 61, 102
2, 218112, Note_on_c, 0, 55, 102
2, 218239, Note_on_c, 0, 55, 0
2, 218239, Note_on_c, 0, 61, 0
2, 218240, Note_on_c, 0, 62, 102
2, 218240, Note_on_c, 0, 54, 102
2, 218367, Note_on_c, 0, 62, 0
2, 218368, Note_on_c, 0, 66, 102
2, 218495, Note_on_c, 0, 66, 0
2, 218495, Note_on_c, 0, 54, 0
2, 218496, Note_on_c, 0, 57, 102
2, 218496, Note_on_c, 0, 52, 102
2, 218618, Note_on_c, 0, 69, 0
2, 218623, Note_on_c, 0, 52, 0
2, 218623, Note_on_c, 0, 57, 0
2, 218624, Note_on_c, 0, 59, 102
2, 218624, Note_on_c, 0, 50, 102
2, 218751, Note_on_c, 0, 50, 0
2, 218751, Note_on_c, 0, 59, 0
2, 218752, Note_on_c, 0, 67, 102
2, 218752, Note_on_c, 0, 55, 102
2, 218879, Note_on_c, 0, 55, 0
2, 218879, Note_on_c, 0, 67, 0
2, 218880, Note_on_c, 0, 62, 102
2, 218880, Note_on_c, 0, 59, 102
2, 219007, Note_on_c, 0, 59, 0
2, 219007, Note_on_c, 0, 62, 0
2, 219008, Note_on_c, 0, 74, 102
2, 219008, Note_on_c, 0, 59, 102
2, 219135, Note_on_c, 0, 59, 0
2, 219136, Note_on_c, 0, 55, 102
2, 219198, Note_on_c, 0, 74, 0
2, 219263, Note_on_c, 0, 55, 0
2, 219264, Note_on_c, 0, 67, 102
2, 219264, Note_on_c, 0, 50, 102
2, 219391, Note_on_c, 0, 50, 0
2, 219391, Note_on_c, 0, 67, 0
2, 219392, Note_on_c, 0, 69, 102
2, 219392, Note_on_c, 0, 50, 102
2, 219519, Note_on_c, 0, 50, 0
2, 219519, Note_on_c, 0, 69, 0
2, 219520, Note_on_c, 0, 66, 102
2, 219520, Note_on_c, 0, 54, 102
2, 219647, Note_on_c, 0, 54, 0
2, 219647, Note_on_c, 0, 66, 0
2, 219648, Note_on_c, 0, 62, 102
2, 219648, Note_on_c, 0, 57, 102
2, 219775, Note_on_c, 0, 57, 0
2, 219775, Note_on_c, 0, 62, 0
2, 219776, Note_on_c, 0, 74, 102
2, 219776, Note_on_c, 0, 57, 102
2, 219903, Note_on_c, 0, 57, 0
2, 219904, Note_on_c, 0, 54, 102
2, 219966, Note_on_c, 0, 74, 0
2, 220031, Note_on_c, 0, 54, 0
2, 220032, Note_on_c, 0, 66, 102
2, 220032, Note_on_c, 0, 50, 102
2, 220159, Note_on_c, 0, 50, 0
2, 220159, Note_on_c, 0, 66, 0
2, 220160, Note_on_c, 0, 67, 102
2, 220160, Note_on_c, 0, 52, 102
2, 220160, Note_on_c, 0, 50, 102
2, 220287, Note_on_c, 0, 67, 0
2, 220288, Note_on_c, 0, 69, 102
2, 220415, Note_on_c, 0, 69, 0
2, 220416, Note_on_c, 0, 71, 102
2, 220543, Note_on_c, 0, 71, 0
2, 220543, Note_on_c, 0, 50, 0
2, 220543, Note_on_c, 0, 52, 0
2, 220544, Note_on_c, 0, 69, 102
2, 220544, Note_on_c, 0, 52, 102
2, 220544, Note_on_c, 0, 49, 102
2, 220671, Note_on_c, 0, 69, 0
2, 220672, Note_on_c, 0, 71, 102
2, 220799, Note_on_c, 0, 71, 0
2, 220800, Note_on_c, 0, 67, 102
2, 220927, Note_on_c, 0, 67, 0
2, 220927, Note_on_c, 0, 49, 0
2, 220927, Note_on_c, 0, 52, 0
2, 220928, Note_on_c, 0, 66, 102
2, 220928, Note_on_c, 0, 50, 102
2, 221055, Note_on_c, 0, 66, 0
2, 221056, Note_on_c, 0, 69, 102
2, 221183, Note_on_c, 0, 69, 0
2, 221183, Note_on_c, 0, 50, 0
2, 221184, Note_on_c, 0, 67, 102
2, 221184, Note_on_c, 0, 52, 102
2, 221311, Note_on_c, 0, 52, 0
2, 221311, Note_on_c, 0, 67, 0
2, 221312, Note_on_c, 0, 69, 102
2, 221312, Note_on_c, 0, 54, 102
2, 221439, Note_on_c, 0, 69, 0
2, 221440, Note_on_c, 0, 73, 102
2, 221567, Note_on_c, 0, 73, 0
2, 221567, Note_on_c, 0, 54, 0
2, 221568, Note_on_c, 0, 71, 102
2, 221568, Note_on_c, 0, 55, 102
2, 221695, Note_on_c, 0, 55, 0
2, 221695, Note_on_c, 0, 71, 0
2, 221696, Note_on_c, 0, 73, 102
2, 221696, Note_on_c, 0, 57, 102
2, 221823, Note_on_c, 0, 57, 0
2, 221823, Note_on_c, 0, 73, 0
2, 221824, Note_on_c, 0, 76, 102
2, 221824, Note_on_c, 0, 61, 102
2, 221951, Note_on_c, 0, 61, 0
2, 221951, Note_on_c, 0, 76, 0
2, 221952, Note_on_c, 0, 79, 102
2, 221952, Note_on_c, 0, 57, 102
2, 222079, Note_on_c, 0, 57, 0
2, 222079, Note_on_c, 0, 79, 0
2, 222080, Note_on_c, 0, 79, 102
2, 222080, Note_on_c, 0, 52, 102
2, 222207, Note_on_c, 0, 52, 0
2, 222207, Note_on_c, 0, 79, 0
2, 222208, Note_on_c, 0, 76, 102
2, 222208, Note_on_c, 0, 57, 102
2, 222335, Note_on_c, 0, 57, 0
2, 222335, Note_on_c, 0, 76, 0
2, 222336, Note_on_c, 0, 73, 102
2, 222336, Note_on_c, 0, 52, 102
2, 222463, Note_on_c, 0, 52, 0
2, 222463, Note_on_c, 0, 73, 0
2, 222464, Note_on_c, 0, 69, 102
2, 222464, Note_on_c, 0, 49, 102
2, 222591, Note_on_c, 0, 49, 0
2, 222591, Note_on_c, 0, 69, 0
2, 222592, Note_on_c, 0, 73, 102
2, 222592, Note_on_c, 0, 52, 102
2, 222719, Note_on_c, 0, 52, 0
2, 222719, Note_on_c, 0, 73, 0
2, 222720, Note_on_c, 0, 76, 102
2, 222720, Note_on_c, 0, 49, 102
2, 222847, Note_on_c, 0, 49, 0
2, 222847, Note_on_c, 0, 76, 0
2, 222848, Note_on_c, 0, 79, 102
2, 222848, Note_on_c, 0, 45, 102
2, 222975, Note_on_c, 0, 45, 0
2, 222975, Note_on_c, 0, 79, 0
2, 222976, Note_on_c, 0, 78, 102
2, 222976, Note_on_c, 0, 47, 102
2, 223103, Note_on_c, 0, 47, 0
2, 223103, Note_on_c, 0, 78, 0
2, 223104, Note_on_c, 0, 76, 102
2, 223104, Note_on_c, 0, 49, 102
2, 223231, Note_on_c, 0, 49, 0
2, 223231, Note_on_c, 0, 76, 0
2, 223232, Note_on_c, 0, 78, 102
2, 223232, Note_on_c, 0, 50, 102
2, 223359, Note_on_c, 0, 78, 0
2, 223360, Note_on_c, 0, 76, 102
2, 223487, Note_on_c, 0, 76, 0
2, 223487, Note_on_c, 0, 50, 0
2, 223488, Note_on_c, 0, 71, 102
2, 223488, Note_on_c, 0, 74, 102
2, 223488, Note_on_c, 0, 55, 102
2, 223615, Note_on_c, 0, 55, 0
2, 223615, Note_on_c, 0, 71, 0
2, 223616, Note_on_c, 0, 69, 102
2, 223616, Note_on_c, 0, 57, 102
2, 223743, Note_on_c, 0, 74, 0
2, 223744, Note_on_c, 0, 76, 102
2, 223871, Note_on_c, 0, 76, 0
2, 223871, Note_on_c, 0, 57, 0
2, 223871, Note_on_c, 0, 69, 0
2, 223872, Note_on_c, 0, 67, 102
2, 223872, Note_on_c, 0, 73, 102
2, 223872, Note_on_c, 0, 45, 102
2, 223999, Note_on_c, 0, 45, 0
2, 223999, Note_on_c, 0, 73, 0
2, 224000, Note_on_c, 0, 74, 102
2, 224000, Note_on_c, 0, 38, 102
2, 224127, Note_on_c, 0, 67, 0
2, 224128, Note_on_c, 0, 69, 102
2, 224128, Note_on_c, 0, 42, 102
2, 224255, Note_on_c, 0, 42, 0
2, 224256, Note_on_c, 0, 66, 102
2, 224256, Note_on_c, 0, 45, 102
2, 224383, Note_on_c, 0, 45, 0
2, 224384, Note_on_c, 0, 62, 102
2, 224384, Note_on_c, 0, 50, 102
2, 224508, Note_on_c, 0, 69, 0
2, 224511, Note_on_c, 0, 62, 0
2, 224511, Note_on_c, 0, 66, 0
2, 224511, Note_on_c, 0, 38, 0
2, 224590, Note_on_c, 0, 74, 0
2, 224609, Note_on_c, 0, 50, 0
2, 224640, Note_on_c, 0, 57, 102
2, 224767, Note_on_c, 0, 57, 0
2, 224768, Note_on_c, 0, 54, 102
2, 224895, Note_on_c, 0, 54, 0
2, 224896, Note_on_c, 0, 50, 102
2, 225023, Note_on_c, 0, 50, 0
2, 225024, Note_on_c, 0, 55, 102
2, 225151, Note_on_c, 0, 55, 0
2, 225152, Note_on_c, 0, 54, 102
2, 225279, Note_on_c, 0, 54, 0
2, 225280, Note_on_c, 0, 50, 102
2, 225407, Note_on_c, 0, 50, 0
2, 225408, Note_on_c, 0, 57, 102
2, 225535, Note_on_c, 0, 57, 0
2, 225536, Note_on_c, 0, 54, 102
2, 225663, Note_on_c, 0, 54, 0
2, 225664, Note_on_c, 0, 50, 102
2, 225791, Note_on_c, 0, 50, 0
2, 225792, Note_on_c, 0, 55, 102
2, 225919, Note_on_c, 0, 55, 0
2, 225920, Note_on_c, 0, 54, 102
2, 226047, Note_on_c, 0, 54, 0
2, 226048, Note_on_c, 0, 50, 102
2, 226175, Note_on_c, 0, 50, 0
2, 226176, Note_on_c, 0, 57, 102
2, 226303, Note_on_c, 0, 57, 0
2, 226304, Note_on_c, 0, 54, 102
2, 226431, Note_on_c, 0, 54, 0
2, 226432, Note_on_c, 0, 57, 102
2, 226559, Note_on_c, 0, 57, 0
2, 226560, Note_on_c, 0, 60, 102
2, 226687, Note_on_c, 0, 60, 0
2, 226688, Note_on_c, 0, 50, 102
2, 226878, Note_on_c, 0, 50, 0
2, 226944, Note_on_c, 0, 59, 102
2, 227071, Note_on_c, 0, 59, 0
2, 227072, Note_on_c, 0, 55, 102
2, 227199, Note_on_c, 0, 55, 0
2, 227200, Note_on_c, 0, 59, 102
2, 227327, Note_on_c, 0, 59, 0
2, 227328, Note_on_c, 0, 62, 102
2, 227455, Note_on_c, 0, 62, 0
2, 227456, Note_on_c, 0, 52, 102
2, 227646, Note_on_c, 0, 52, 0
2, 227712, Note_on_c, 0, 60, 102
2, 227839, Note_on_c, 0, 60, 0
2, 227840, Note_on_c, 0, 57, 102
2, 227967, Note_on_c, 0, 57, 0
2, 227968, Note_on_c, 0, 60, 102
2, 228095, Note_on_c, 0, 60, 0
2, 228096, Note_on_c, 0, 64, 102
2, 228223, Note_on_c, 0, 64, 0
2, 228224, Note_on_c, 0, 54, 102
2, 228351, Note_on_c, 0, 54, 0
2, 228352, Note_on_c, 0, 62, 102
2, 228479, Note_on_c, 0, 62, 0
2, 228480, Note_on_c, 0, 60, 102
2, 228607, Note_on_c, 0, 60, 0
2, 228608, Note_on_c, 0, 59, 102
2, 228735, Note_on_c, 0, 59, 0
2, 228736, Note_on_c, 0, 55, 102
2, 228863, Note_on_c, 0, 55, 0
2, 228864, Note_on_c, 0, 50, 102
2, 228991, Note_on_c, 0, 50, 0
2, 228992, Note_on_c, 0, 55, 102
2, 229119, Note_on_c, 0, 55, 0
2, 229120, Note_on_c, 0, 50, 102
2, 229247, Note_on_c, 0, 50, 0
2, 229248, Note_on_c, 0, 62, 102
2, 229248, Note_on_c, 0, 47, 102
2, 229375, Note_on_c, 0, 47, 0
2, 229375, Note_on_c, 0, 62, 0
2, 229376, Note_on_c, 0, 59, 102
2, 229376, Note_on_c, 0, 43, 102
2, 229503, Note_on_c, 0, 59, 0
2, 229504, Note_on_c, 0, 55, 102
2, 229631, Note_on_c, 0, 55, 0
2, 229631, Note_on_c, 0, 43, 0
2, 229632, Note_on_c, 0, 60, 102
2, 229632, Note_on_c, 0, 52, 102
2, 229759, Note_on_c, 0, 52, 0
2, 229759, Note_on_c, 0, 60, 0
2, 229760, Note_on_c, 0, 59, 102
2, 229760, Note_on_c, 0, 50, 102
2, 229887, Note_on_c, 0, 59, 0
2, 229888, Note_on_c, 0, 55, 102
2, 230015, Note_on_c, 0, 55, 0
2, 230015, Note_on_c, 0, 50, 0
2, 230016, Note_on_c, 0, 62, 102
2, 230016, Note_on_c, 0, 42, 102
2, 230143, Note_on_c, 0, 42, 0
2, 230143, Note_on_c, 0, 62, 0
2, 230144, Note_on_c, 0, 59, 102
2, 230144, Note_on_c, 0, 43, 102
2, 230271, Note_on_c, 0, 59, 0
2, 230272, Note_on_c, 0, 55, 102
2, 230399, Note_on_c, 0, 55, 0
2, 230399, Note_on_c, 0, 43, 0
2, 230400, Note_on_c, 0, 60, 102
2, 230400, Note_on_c, 0, 52, 102
2, 230527, Note_on_c, 0, 52, 0
2, 230527, Note_on_c, 0, 60, 0
2, 230528, Note_on_c, 0, 59, 102
2, 230528, Note_on_c, 0, 50, 102
2, 230655, Note_on_c, 0, 59, 0
2, 230656, Note_on_c, 0, 55, 102
2, 230783, Note_on_c, 0, 55, 0
2, 230783, Note_on_c, 0, 50, 0
2, 230784, Note_on_c, 0, 62, 102
2, 230784, Note_on_c, 0, 42, 102
2, 230911, Note_on_c, 0, 42, 0
2, 230911, Note_on_c, 0, 62, 0
2, 230912, Note_on_c, 0, 59, 102
2, 230912, Note_on_c, 0, 43, 102
2, 231039, Note_on_c, 0, 43, 0
2, 231039, Note_on_c, 0, 59, 0
2, 231040, Note_on_c, 0, 62, 102
2, 231040, Note_on_c, 0, 47, 102
2, 231167, Note_on_c, 0, 47, 0
2, 231167, Note_on_c, 0, 62, 0
2, 231168, Note_on_c, 0, 65, 102
2, 231168, Note_on_c, 0, 50, 102
2, 231295, Note_on_c, 0, 50, 0
2, 231295, Note_on_c, 0, 65, 0
2, 231296, Note_on_c, 0, 55, 102
2, 231296, Note_on_c, 0, 47, 102
2, 231423, Note_on_c, 0, 47, 0
2, 231424, Note_on_c, 0, 43, 102
2, 231486, Note_on_c, 0, 55, 0
2, 231551, Note_on_c, 0, 43, 0
2, 231552, Note_on_c, 0, 64, 102
2, 231552, Note_on_c, 0, 48, 102
2, 231679, Note_on_c, 0, 48, 0
2, 231679, Note_on_c, 0, 64, 0
2, 231680, Note_on_c, 0, 60, 102
2, 231680, Note_on_c, 0, 45, 102
2, 231807, Note_on_c, 0, 45, 0
2, 231807, Note_on_c, 0, 60, 0
2, 231808, Note_on_c, 0, 64, 102
2, 231808, Note_on_c, 0, 48, 102
2, 231935, Note_on_c, 0, 48, 0
2, 231935, Note_on_c, 0, 64, 0
2, 231936, Note_on_c, 0, 67, 102
2, 231936, Note_on_c, 0, 52, 102
2, 232063, Note_on_c, 0, 52, 0
2, 232063, Note_on_c, 0, 67, 0
2, 232064, Note_on_c, 0, 57, 102
2, 232064, Note_on_c, 0, 48, 102
2, 232191, Note_on_c, 0, 48, 0
2, 232192, Note_on_c, 0, 45, 102
2, 232254, Note_on_c, 0, 57, 0
2, 232319, Note_on_c, 0, 45, 0
2, 232320, Note_on_c, 0, 65, 102
2, 232320, Note_on_c, 0, 50, 102
2, 232447, Note_on_c, 0, 50, 0
2, 232447, Note_on_c, 0, 65, 0
2, 232448, Note_on_c, 0, 62, 102
2, 232448, Note_on_c, 0, 47, 102
2, 232575, Note_on_c, 0, 47, 0
2, 232575, Note_on_c, 0, 62, 0
2, 232576, Note_on_c, 0, 65, 102
2, 232576, Note_on_c, 0, 50, 102
2, 232703, Note_on_c, 0, 50, 0
2, 232703, Note_on_c, 0, 65, 0
2, 232704, Note_on_c, 0, 69, 102
2, 232704, Note_on_c, 0, 53, 102
2, 232831, Note_on_c, 0, 53, 0
2, 232831, Note_on_c, 0, 69, 0
2, 232832, Note_on_c, 0, 59, 102
2, 232832, Note_on_c, 0, 50, 102
2, 232959, Note_on_c, 0, 50, 0
2, 232959, Note_on_c, 0, 59, 0
2, 232960, Note_on_c, 0, 67, 102
2, 232960, Note_on_c, 0, 47, 102
2, 233087, Note_on_c, 0, 47, 0
2, 233087, Note_on_c, 0, 67, 0
2, 233088, Note_on_c, 0, 65, 102
2, 233088, Note_on_c, 0, 50, 102
2, 233215, Note_on_c, 0, 50, 0
2, 233215, Note_on_c, 0, 65, 0
2, 233216, Note_on_c, 0, 64, 102
2, 233216, Note_on_c, 0, 48, 102
2, 233343, Note_on_c, 0, 48, 0
2, 233344, Note_on_c, 0, 52, 102
2, 233471, Note_on_c, 0, 52, 0
2, 233471, Note_on_c, 0, 64, 0
2, 233472, Note_on_c, 0, 55, 102
2, 233599, Note_on_c, 0, 55, 0
2, 233600, Note_on_c, 0, 52, 102
2, 233727, Note_on_c, 0, 52, 0
2, 233728, Note_on_c, 0, 48, 102
2, 233855, Note_on_c, 0, 48, 0
2, 233856, Note_on_c, 0, 60, 102
2, 233856, Note_on_c, 0, 52, 102
2, 233983, Note_on_c, 0, 52, 0
2, 233983, Note_on_c, 0, 60, 0
2, 233984, Note_on_c, 0, 57, 102
2, 233984, Note_on_c, 0, 42, 102
2, 234111, Note_on_c, 0, 57, 0
2, 234112, Note_on_c, 0, 60, 102
2, 234239, Note_on_c, 0, 60, 0
2, 234239, Note_on_c, 0, 42, 0
2, 234240, Note_on_c, 0, 64, 102
2, 234367, Note_on_c, 0, 64, 0
2, 234368, Note_on_c, 0, 60, 102
2, 234495, Note_on_c, 0, 60, 0
2, 234496, Note_on_c, 0, 57, 102
2, 234623, Note_on_c, 0, 57, 0
2, 234624, Note_on_c, 0, 60, 102
2, 234624, Note_on_c, 0, 45, 102
2, 234751, Note_on_c, 0, 45, 0
2, 234751, Note_on_c, 0, 60, 0
2, 234752, Note_on_c, 0, 54, 102
2, 234752, Note_on_c, 0, 47, 102
2, 234879, Note_on_c, 0, 47, 0
2, 234880, Note_on_c, 0, 50, 102
2, 235007, Note_on_c, 0, 50, 0
2, 235007, Note_on_c, 0, 54, 0
2, 235008, Note_on_c, 0, 62, 102
2, 235008, Note_on_c, 0, 54, 102
2, 235135, Note_on_c, 0, 54, 0
2, 235135, Note_on_c, 0, 62, 0
2, 235136, Note_on_c, 0, 59, 102
2, 235136, Note_on_c, 0, 50, 102
2, 235263, Note_on_c, 0, 50, 0
2, 235264, Note_on_c, 0, 47, 102
2, 235391, Note_on_c, 0, 47, 0
2, 235391, Note_on_c, 0, 59, 0
2, 235392, Note_on_c, 0, 57, 102
2, 235392, Note_on_c, 0, 50, 102
2, 235519, Note_on_c, 0, 50, 0
2, 235519, Note_on_c, 0, 57, 0
2, 235520, Note_on_c, 0, 55, 102
2, 235520, Note_on_c, 0, 40, 102
2, 235647, Note_on_c, 0, 55, 0
2, 235648, Note_on_c, 0, 59, 102
2, 235775, Note_on_c, 0, 59, 0
2, 235775, Note_on_c, 0, 40, 0
2, 235776, Note_on_c, 0, 62, 102
2, 235903, Note_on_c, 0, 62, 0
2, 235904, Note_on_c, 0, 59, 102
2, 236031, Note_on_c, 0, 59, 0
2, 236032, Note_on_c, 0, 55, 102
2, 236159, Note_on_c, 0, 55, 0
2, 236160, Note_on_c, 0, 59, 102
2, 236160, Note_on_c, 0, 43, 102
2, 236287, Note_on_c, 0, 43, 0
2, 236287, Note_on_c, 0, 59, 0
2, 236288, Note_on_c, 0, 52, 102
2, 236288, Note_on_c, 0, 45, 102
2, 236415, Note_on_c, 0, 45, 0
2, 236416, Note_on_c, 0, 48, 102
2, 236543, Note_on_c, 0, 48, 0
2, 236543, Note_on_c, 0, 52, 0
2, 236544, Note_on_c, 0, 60, 102
2, 236544, Note_on_c, 0, 52, 102
2, 236671, Note_on_c, 0, 52, 0
2, 236671, Note_on_c, 0, 60, 0
2, 236672, Note_on_c, 0, 57, 102
2, 236672, Note_on_c, 0, 48, 102
2, 236799, Note_on_c, 0, 48, 0
2, 236800, Note_on_c, 0, 45, 102
2, 236927, Note_on_c, 0, 45, 0
2, 236927, Note_on_c, 0, 57, 0
2, 236928, Note_on_c, 0, 67, 102
2, 236928, Note_on_c, 0, 48, 102
2, 237055, Note_on_c, 0, 48, 0
2, 237055, Note_on_c, 0, 67, 0
2, 237056, Note_on_c, 0, 66, 102
2, 237056, Note_on_c, 0, 50, 102
2, 237183, Note_on_c, 0, 66, 0
2, 237184, Note_on_c, 0, 62, 102
2, 237311, Note_on_c, 0, 62, 0
2, 237312, Note_on_c, 0, 67, 102
2, 237312, Note_on_c, 0, 59, 102
2, 237439, Note_on_c, 0, 59, 0
2, 237439, Note_on_c, 0, 67, 0
2, 237440, Note_on_c, 0, 66, 102
2, 237440, Note_on_c, 0, 57, 102
2, 237567, Note_on_c, 0, 66, 0
2, 237568, Note_on_c, 0, 62, 102
2, 237695, Note_on_c, 0, 62, 0
2, 237695, Note_on_c, 0, 50, 0
2, 237696, Note_on_c, 0, 69, 102
2, 237696, Note_on_c, 0, 49, 102
2, 237823, Note_on_c, 0, 49, 0
2, 237823, Note_on_c, 0, 69, 0
2, 237824, Note_on_c, 0, 66, 102
2, 237824, Note_on_c, 0, 50, 102
2, 237951, Note_on_c, 0, 66, 0
2, 237952, Note_on_c, 0, 62, 102
2, 238079, Note_on_c, 0, 62, 0
2, 238079, Note_on_c, 0, 57, 0
2, 238080, Note_on_c, 0, 67, 102
2, 238080, Note_on_c, 0, 59, 102
2, 238207, Note_on_c, 0, 59, 0
2, 238207, Note_on_c, 0, 67, 0
2, 238208, Note_on_c, 0, 66, 102
2, 238208, Note_on_c, 0, 57, 102
2, 238335, Note_on_c, 0, 66, 0
2, 238336, Note_on_c, 0, 62, 102
2, 238463, Note_on_c, 0, 62, 0
2, 238463, Note_on_c, 0, 50, 0
2, 238464, Note_on_c, 0, 69, 102
2, 238464, Note_on_c, 0, 49, 102
2, 238588, Note_on_c, 0, 57, 0
2, 238591, Note_on_c, 0, 49, 0
2, 238591, Note_on_c, 0, 69, 0
2, 238592, Note_on_c, 0, 66, 102
2, 238592, Note_on_c, 0, 50, 102
2, 238719, Note_on_c, 0, 50, 0
2, 238719, Note_on_c, 0, 66, 0
2, 238720, Note_on_c, 0, 69, 102
2, 238720, Note_on_c, 0, 54, 102
2, 238847, Note_on_c, 0, 54, 0
2, 238847, Note_on_c, 0, 69, 0
2, 238848, Note_on_c, 0, 72, 102
2, 238848, Note_on_c, 0, 57, 102
2, 238975, Note_on_c, 0, 57, 0
2, 238975, Note_on_c, 0, 72, 0
2, 238976, Note_on_c, 0, 62, 102
2, 238976, Note_on_c, 0, 54, 102
2, 239103, Note_on_c, 0, 54, 0
2, 239104, Note_on_c, 0, 50, 102
2, 239166, Note_on_c, 0, 62, 0
2, 239231, Note_on_c, 0, 50, 0
2, 239232, Note_on_c, 0, 71, 102
2, 239232, Note_on_c, 0, 55, 102
2, 239359, Note_on_c, 0, 55, 0
2, 239359, Note_on_c, 0, 71, 0
2, 239360, Note_on_c, 0, 67, 102
2, 239360, Note_on_c, 0, 52, 102
2, 239487, Note_on_c, 0, 52, 0
2, 239487, Note_on_c, 0, 67, 0
2, 239488, Note_on_c, 0, 71, 102
2, 239488, Note_on_c, 0, 55, 102
2, 239615, Note_on_c, 0, 55, 0
2, 239615, Note_on_c, 0, 71, 0
2, 239616, Note_on_c, 0, 74, 102
2, 239616, Note_on_c, 0, 59, 102
2, 239743, Note_on_c, 0, 59, 0
2, 239743, Note_on_c, 0, 74, 0
2, 239744, Note_on_c, 0, 64, 102
2, 239744, Note_on_c, 0, 55, 102
2, 239871, Note_on_c, 0, 55, 0
2, 239872, Note_on_c, 0, 52, 102
2, 239934, Note_on_c, 0, 64, 0
2, 239999, Note_on_c, 0, 52, 0
2, 240000, Note_on_c, 0, 72, 102
2, 240000, Note_on_c, 0, 57, 102
2, 240127, Note_on_c, 0, 57, 0
2, 240127, Note_on_c, 0, 72, 0
2, 240128, Note_on_c, 0, 69, 102
2, 240128, Note_on_c, 0, 54, 102
2, 240255, Note_on_c, 0, 54, 0
2, 240255, Note_on_c, 0, 69, 0
2, 240256, Note_on_c, 0, 72, 102
2, 240256, Note_on_c, 0, 57, 102
2, 240383, Note_on_c, 0, 57, 0
2, 240383, Note_on_c, 0, 72, 0
2, 240384, Note_on_c, 0, 76, 102
2, 240384, Note_on_c, 0, 60, 102
2, 240511, Note_on_c, 0, 60, 0
2, 240511, Note_on_c, 0, 76, 0
2, 240512, Note_on_c, 0, 66, 102
2, 240512, Note_on_c, 0, 57, 102
2, 240639, Note_on_c, 0, 57, 0
2, 240639, Note_on_c, 0, 66, 0
2, 240640, Note_on_c, 0, 74, 102
2, 240640, Note_on_c, 0, 54, 102
2, 240767, Note_on_c, 0, 54, 0
2, 240767, Note_on_c, 0, 74, 0
2, 240768, Note_on_c, 0, 72, 102
2, 240768, Note_on_c, 0, 57, 102
2, 240895, Note_on_c, 0, 57, 0
2, 240895, Note_on_c, 0, 72, 0
2, 240896, Note_on_c, 0, 71, 102
2, 240896, Note_on_c, 0, 55, 102
2, 241023, Note_on_c, 0, 55, 0
2, 241023, Note_on_c, 0, 71, 0
2, 241024, Note_on_c, 0, 74, 102
2, 241024, Note_on_c, 0, 59, 102
2, 241151, Note_on_c, 0, 59, 0
2, 241151, Note_on_c, 0, 74, 0
2, 241152, Note_on_c, 0, 79, 102
2, 241152, Note_on_c, 0, 62, 102
2, 241279, Note_on_c, 0, 62, 0
2, 241279, Note_on_c, 0, 79, 0
2, 241280, Note_on_c, 0, 74, 102
2, 241280, Note_on_c, 0, 59, 102
2, 241407, Note_on_c, 0, 59, 0
2, 241407, Note_on_c, 0, 74, 0
2, 241408, Note_on_c, 0, 79, 102
2, 241408, Note_on_c, 0, 62, 102
2, 241535, Note_on_c, 0, 62, 0
2, 241535, Note_on_c, 0, 79, 0
2, 241536, Note_on_c, 0, 83, 102
2, 241536, Note_on_c, 0, 67, 102
2, 241663, Note_on_c, 0, 67, 0
2, 241663, Note_on_c, 0, 83, 0
2, 241664, Note_on_c, 0, 76, 102
2, 241664, Note_on_c, 0, 60, 102
2, 241791, Note_on_c, 0, 60, 0
2, 241791, Note_on_c, 0, 76, 0
2, 241792, Note_on_c, 0, 79, 102
2, 241792, Note_on_c, 0, 64, 102
2, 241919, Note_on_c, 0, 64, 0
2, 241919, Note_on_c, 0, 79, 0
2, 241920, Note_on_c, 0, 71, 102
2, 241920, Note_on_c, 0, 67, 102
2, 242047, Note_on_c, 0, 67, 0
2, 242047, Note_on_c, 0, 71, 0
2, 242048, Note_on_c, 0, 72, 102
2, 242048, Note_on_c, 0, 64, 102
2, 242175, Note_on_c, 0, 64, 0
2, 242175, Note_on_c, 0, 72, 0
2, 242176, Note_on_c, 0, 76, 102
2, 242176, Note_on_c, 0, 60, 102
2, 242303, Note_on_c, 0, 60, 0
2, 242303, Note_on_c, 0, 76, 0
2, 242304, Note_on_c, 0, 67, 102
2, 242304, Note_on_c, 0, 64, 102
2, 242431, Note_on_c, 0, 64, 0
2, 242431, Note_on_c, 0, 67, 0
2, 242432, Note_on_c, 0, 69, 102
2, 242432, Note_on_c, 0, 54, 102
2, 242559, Note_on_c, 0, 54, 0
2, 242559, Note_on_c, 0, 69, 0
2, 242560, Note_on_c, 0, 72, 102
2, 242560, Note_on_c, 0, 57, 102
2, 242687, Note_on_c, 0, 57, 0
2, 242687, Note_on_c, 0, 72, 0
2, 242688, Note_on_c, 0, 78, 102
2, 242688, Note_on_c, 0, 60, 102
2, 242815, Note_on_c, 0, 60, 0
2, 242815, Note_on_c, 0, 78, 0
2, 242816, Note_on_c, 0, 72, 102
2, 242816, Note_on_c, 0, 57, 102
2, 242943, Note_on_c, 0, 57, 0
2, 242943, Note_on_c, 0, 72, 0
2, 242944, Note_on_c, 0, 78, 102
2, 242944, Note_on_c, 0, 60, 102
2, 243071, Note_on_c, 0, 60, 0
2, 243071, Note_on_c, 0, 78, 0
2, 243072, Note_on_c, 0, 81, 102
2, 243072, Note_on_c, 0, 66, 102
2, 243199, Note_on_c, 0, 66, 0
2, 243199, Note_on_c, 0, 81, 0
2, 243200, Note_on_c, 0, 75, 102
2, 243200, Note_on_c, 0, 59, 102
2, 243327, Note_on_c, 0, 59, 0
2, 243327, Note_on_c, 0, 75, 0
2, 243328, Note_on_c, 0, 78, 102
2, 243328, Note_on_c, 0, 63, 102
2, 243455, Note_on_c, 0, 63, 0
2, 243455, Note_on_c, 0, 78, 0
2, 243456, Note_on_c, 0, 69, 102
2, 243456, Note_on_c, 0, 66, 102
2, 243583, Note_on_c, 0, 66, 0
2, 243583, Note_on_c, 0, 69, 0
2, 243584, Note_on_c, 0, 71, 102
2, 243584, Note_on_c, 0, 63, 102
2, 243711, Note_on_c, 0, 63, 0
2, 243711, Note_on_c, 0, 71, 0
2, 243712, Note_on_c, 0, 75, 102
2, 243712, Note_on_c, 0, 59, 102
2, 243839, Note_on_c, 0, 59, 0
2, 243839, Note_on_c, 0, 75, 0
2, 243840, Note_on_c, 0, 66, 102
2, 243840, Note_on_c, 0, 63, 102
2, 243967, Note_on_c, 0, 63, 0
2, 243967, Note_on_c, 0, 66, 0
2, 243968, Note_on_c, 0, 67, 102
2, 243968, Note_on_c, 0, 52, 102
2, 244095, Note_on_c, 0, 52, 0
2, 244095, Note_on_c, 0, 67, 0
2, 244096, Note_on_c, 0, 71, 102
2, 244096, Note_on_c, 0, 55, 102
2, 244223, Note_on_c, 0, 55, 0
2, 244223, Note_on_c, 0, 71, 0
2, 244224, Note_on_c, 0, 76, 102
2, 244224, Note_on_c, 0, 59, 102
2, 244351, Note_on_c, 0, 59, 0
2, 244351, Note_on_c, 0, 76, 0
2, 244352, Note_on_c, 0, 71, 102
2, 244352, Note_on_c, 0, 55, 102
2, 244479, Note_on_c, 0, 55, 0
2, 244479, Note_on_c, 0, 71, 0
2, 244480, Note_on_c, 0, 76, 102
2, 244480, Note_on_c, 0, 59, 102
2, 244607, Note_on_c, 0, 59, 0
2, 244607, Note_on_c, 0, 76, 0
2, 244608, Note_on_c, 0, 79, 102
2, 244608, Note_on_c, 0, 64, 102
2, 244735, Note_on_c, 0, 64, 0
2, 244735, Note_on_c, 0, 79, 0
2, 244736, Note_on_c, 0, 72, 102
2, 244736, Note_on_c, 0, 57, 102
2, 244863, Note_on_c, 0, 57, 0
2, 244863, Note_on_c, 0, 72, 0
2, 244864, Note_on_c, 0, 76, 102
2, 244864, Note_on_c, 0, 60, 102
2, 244991, Note_on_c, 0, 60, 0
2, 244991, Note_on_c, 0, 76, 0
2, 244992, Note_on_c, 0, 68, 102
2, 244992, Note_on_c, 0, 64, 102
2, 245119, Note_on_c, 0, 64, 0
2, 245119, Note_on_c, 0, 68, 0
2, 245120, Note_on_c, 0, 69, 102
2, 245120, Note_on_c, 0, 60, 102
2, 245247, Note_on_c, 0, 60, 0
2, 245247, Note_on_c, 0, 69, 0
2, 245248, Note_on_c, 0, 72, 102
2, 245248, Note_on_c, 0, 57, 102
2, 245375, Note_on_c, 0, 57, 0
2, 245375, Note_on_c, 0, 72, 0
2, 245376, Note_on_c, 0, 76, 102
2, 245376, Note_on_c, 0, 60, 102
2, 245503, Note_on_c, 0, 60, 0
2, 245503, Note_on_c, 0, 76, 0
2, 245504, Note_on_c, 0, 81, 102
2, 245504, Note_on_c, 0, 64, 102
2, 245631, Note_on_c, 0, 64, 0
2, 245632, Note_on_c, 0, 69, 102
2, 245759, Note_on_c, 0, 69, 0
2, 245760, Note_on_c, 0, 72, 102
2, 245884, Note_on_c, 0, 81, 0
2, 245887, Note_on_c, 0, 72, 0
2, 245888, Note_on_c, 0, 69, 102
2, 246015, Note_on_c, 0, 69, 0
2, 246016, Note_on_c, 0, 66, 102
2, 246143, Note_on_c, 0, 66, 0
2, 246144, Note_on_c, 0, 52, 102
2, 246144, Note_on_c, 0, 69, 102
2, 246271, Note_on_c, 0, 69, 0
2, 246271, Note_on_c, 0, 52, 0
2, 246272, Note_on_c, 0, 71, 102
2, 246272, Note_on_c, 0, 51, 102
2, 246399, Note_on_c, 0, 51, 0
2, 246400, Note_on_c, 0, 47, 102
2, 246527, Note_on_c, 0, 47, 0
2, 246528, Note_on_c, 0, 79, 102
2, 246528, Note_on_c, 0, 52, 102
2, 246655, Note_on_c, 0, 52, 0
2, 246655, Note_on_c, 0, 79, 0
2, 246656, Note_on_c, 0, 78, 102
2, 246656, Note_on_c, 0, 51, 102
2, 246783, Note_on_c, 0, 51, 0
2, 246784, Note_on_c, 0, 47, 102
2, 246911, Note_on_c, 0, 47, 0
2, 246911, Note_on_c, 0, 71, 0
2, 246912, Note_on_c, 0, 69, 102
2, 246912, Note_on_c, 0, 54, 102
2, 247039, Note_on_c, 0, 54, 0
2, 247039, Note_on_c, 0, 69, 0
2, 247040, Note_on_c, 0, 71, 102
2, 247040, Note_on_c, 0, 51, 102
2, 247167, Note_on_c, 0, 51, 0
2, 247168, Note_on_c, 0, 47, 102
2, 247295, Note_on_c, 0, 47, 0
2, 247295, Note_on_c, 0, 78, 0
2, 247296, Note_on_c, 0, 79, 102
2, 247296, Note_on_c, 0, 52, 102
2, 247423, Note_on_c, 0, 52, 0
2, 247423, Note_on_c, 0, 79, 0
2, 247424, Note_on_c, 0, 78, 102
2, 247424, Note_on_c, 0, 51, 102
2, 247551, Note_on_c, 0, 51, 0
2, 247552, Note_on_c, 0, 47, 102
2, 247679, Note_on_c, 0, 47, 0
2, 247679, Note_on_c, 0, 71, 0
2, 247680, Note_on_c, 0, 69, 102
2, 247680, Note_on_c, 0, 54, 102
2, 247807, Note_on_c, 0, 54, 0
2, 247807, Note_on_c, 0, 69, 0
2, 247808, Note_on_c, 0, 71, 102
2, 247808, Note_on_c, 0, 51, 102
2, 247935, Note_on_c, 0, 51, 0
2, 247935, Note_on_c, 0, 71, 0
2, 247935, Note_on_c, 0, 78, 0
2, 247936, Note_on_c, 0, 75, 102
2, 247936, Note_on_c, 0, 54, 102
2, 248063, Note_on_c, 0, 54, 0
2, 248063, Note_on_c, 0, 75, 0
2, 248064, Note_on_c, 0, 78, 102
2, 248064, Note_on_c, 0, 57, 102
2, 248191, Note_on_c, 0, 57, 0
2, 248191, Note_on_c, 0, 78, 0
2, 248192, Note_on_c, 0, 75, 102
2, 248192, Note_on_c, 0, 79, 102
2, 248192, Note_on_c, 0, 47, 102
2, 248319, Note_on_c, 0, 75, 0
2, 248320, Note_on_c, 0, 71, 102
2, 248382, Note_on_c, 0, 47, 0
2, 248447, Note_on_c, 0, 71, 0
2, 248448, Note_on_c, 0, 76, 102
2, 248448, Note_on_c, 0, 55, 102
2, 248575, Note_on_c, 0, 55, 0
2, 248575, Note_on_c, 0, 76, 0
2, 248576, Note_on_c, 0, 73, 102
2, 248576, Note_on_c, 0, 52, 102
2, 248703, Note_on_c, 0, 52, 0
2, 248703, Note_on_c, 0, 73, 0
2, 248704, Note_on_c, 0, 76, 102
2, 248704, Note_on_c, 0, 55, 102
2, 248831, Note_on_c, 0, 55, 0
2, 248831, Note_on_c, 0, 76, 0
2, 248831, Note_on_c, 0, 79, 0
2, 248832, Note_on_c, 0, 79, 102
2, 248832, Note_on_c, 0, 59, 102
2, 248959, Note_on_c, 0, 59, 0
2, 248959, Note_on_c, 0, 79, 0
2, 248960, Note_on_c, 0, 76, 102
2, 248960, Note_on_c, 0, 81, 102
2, 248960, Note_on_c, 0, 49, 102
2, 249087, Note_on_c, 0, 76, 0
2, 249088, Note_on_c, 0, 73, 102
2, 249150, Note_on_c, 0, 49, 0
2, 249215, Note_on_c, 0, 73, 0
2, 249216, Note_on_c, 0, 78, 102
2, 249216, Note_on_c, 0, 57, 102
2, 249343, Note_on_c, 0, 57, 0
2, 249343, Note_on_c, 0, 78, 0
2, 249344, Note_on_c, 0, 75, 102
2, 249344, Note_on_c, 0, 54, 102
2, 249471, Note_on_c, 0, 54, 0
2, 249471, Note_on_c, 0, 75, 0
2, 249472, Note_on_c, 0, 78, 102
2, 249472, Note_on_c, 0, 57, 102
2, 249599, Note_on_c, 0, 57, 0
2, 249599, Note_on_c, 0, 78, 0
2, 249599, Note_on_c, 0, 81, 0
2, 249600, Note_on_c, 0, 81, 102
2, 249600, Note_on_c, 0, 60, 102
2, 249727, Note_on_c, 0, 60, 0
2, 249727, Note_on_c, 0, 81, 0
2, 249728, Note_on_c, 0, 78, 102
2, 249728, Note_on_c, 0, 83, 102
2, 249728, Note_on_c, 0, 51, 102
2, 249855, Note_on_c, 0, 51, 0
2, 249855, Note_on_c, 0, 78, 0
2, 249856, Note_on_c, 0, 75, 102
2, 249856, Note_on_c, 0, 59, 102
2, 249983, Note_on_c, 0, 59, 0
2, 249983, Note_on_c, 0, 75, 0
2, 249984, Note_on_c, 0, 78, 102
2, 249984, Note_on_c, 0, 57, 102
2, 250111, Note_on_c, 0, 57, 0
2, 250111, Note_on_c, 0, 78, 0
2, 250112, Note_on_c, 0, 76, 102
2, 250112, Note_on_c, 0, 55, 102
2, 250239, Note_on_c, 0, 55, 0
2, 250239, Note_on_c, 0, 76, 0
2, 250240, Note_on_c, 0, 79, 102
2, 250240, Note_on_c, 0, 52, 102
2, 250367, Note_on_c, 0, 52, 0
2, 250367, Note_on_c, 0, 79, 0
2, 250368, Note_on_c, 0, 75, 102
2, 250368, Note_on_c, 0, 47, 102
2, 250495, Note_on_c, 0, 47, 0
2, 250495, Note_on_c, 0, 75, 0
2, 250496, Note_on_c, 0, 76, 102
2, 250496, Note_on_c, 0, 52, 102
2, 250623, Note_on_c, 0, 52, 0
2, 250623, Note_on_c, 0, 76, 0
2, 250624, Note_on_c, 0, 79, 102
2, 250624, Note_on_c, 0, 47, 102
2, 250751, Note_on_c, 0, 47, 0
2, 250751, Note_on_c, 0, 79, 0
2, 250752, Note_on_c, 0, 75, 102
2, 250752, Note_on_c, 0, 43, 102
2, 250878, Note_on_c, 0, 83, 0
2, 250879, Note_on_c, 0, 43, 0
2, 250879, Note_on_c, 0, 75, 0
2, 250880, Note_on_c, 0, 76, 102
2, 250880, Note_on_c, 0, 48, 102
2, 251007, Note_on_c, 0, 76, 0
2, 251008, Note_on_c, 0, 80, 102
2, 251135, Note_on_c, 0, 80, 0
2, 251136, Note_on_c, 0, 81, 102
2, 251263, Note_on_c, 0, 81, 0
2, 251264, Note_on_c, 0, 77, 102
2, 251350, Note_on_c, 0, 48, 0
2, 251391, Note_on_c, 0, 77, 0
2, 251392, Note_on_c, 0, 75, 102
2, 251392, Note_on_c, 0, 47, 102
2, 251519, Note_on_c, 0, 47, 0
2, 251519, Note_on_c, 0, 75, 0
2, 251520, Note_on_c, 0, 76, 102
2, 251520, Note_on_c, 0, 48, 102
2, 251647, Note_on_c, 0, 48, 0
2, 251647, Note_on_c, 0, 76, 0
2, 251648, Note_on_c, 0, 72, 102
2, 251648, Note_on_c, 0, 45, 102
2, 251775, Note_on_c, 0, 45, 0
2, 251775, Note_on_c, 0, 72, 0
2, 251776, Note_on_c, 0, 68, 102
2, 251776, Note_on_c, 0, 47, 102
2, 251903, Note_on_c, 0, 47, 0
2, 251903, Note_on_c, 0, 68, 0
2, 251904, Note_on_c, 0, 69, 102
2, 251904, Note_on_c, 0, 48, 102
2, 252031, Note_on_c, 0, 48, 0
2, 252031, Note_on_c, 0, 69, 0
2, 252032, Note_on_c, 0, 65, 102
2, 252032, Note_on_c, 0, 45, 102
2, 252159, Note_on_c, 0, 45, 0
2, 252159, Note_on_c, 0, 65, 0
2, 252160, Note_on_c, 0, 63, 102
2, 252160, Note_on_c, 0, 47, 102
2, 252287, Note_on_c, 0, 47, 0
2, 252287, Note_on_c, 0, 63, 0
2, 252288, Note_on_c, 0, 64, 102
2, 252288, Note_on_c, 0, 48, 102
2, 252415, Note_on_c, 0, 48, 0
2, 252415, Note_on_c, 0, 64, 0
2, 252416, Note_on_c, 0, 63, 102
2, 252416, Note_on_c, 0, 42, 102
2, 252543, Note_on_c, 0, 42, 0
2, 252543, Note_on_c, 0, 63, 0
2, 252544, Note_on_c, 0, 66, 102
2, 252544, Note_on_c, 0, 45, 102
2, 252671, Note_on_c, 0, 45, 0
2, 252671, Note_on_c, 0, 66, 0
2, 252672, Note_on_c, 0, 69, 102
2, 252672, Note_on_c, 0, 48, 102
2, 252799, Note_on_c, 0, 48, 0
2, 252799, Note_on_c, 0, 69, 0
2, 252800, Note_on_c, 0, 72, 102
2, 252800, Note_on_c, 0, 51, 102
2, 252927, Note_on_c, 0, 51, 0
2, 252927, Note_on_c, 0, 72, 0
2, 252928, Note_on_c, 0, 71, 102
2, 252928, Note_on_c, 0, 54, 102
2, 253055, Note_on_c, 0, 54, 0
2, 253055, Note_on_c, 0, 71, 0
2, 253056, Note_on_c, 0, 75, 102
2, 253056, Note_on_c, 0, 57, 102
2, 253183, Note_on_c, 0, 57, 0
2, 253183, Note_on_c, 0, 75, 0
2, 253184, Note_on_c, 0, 76, 102
2, 253184, Note_on_c, 0, 55, 102
2, 253311, Note_on_c, 0, 55, 0
2, 253311, Note_on_c, 0, 76, 0
2, 253312, Note_on_c, 0, 78, 102
2, 253312, Note_on_c, 0, 54, 102
2, 253439, Note_on_c, 0, 54, 0
2, 253439, Note_on_c, 0, 78, 0
2, 253440, Note_on_c, 0, 79, 102
2, 253440, Note_on_c, 0, 52, 102
2, 253567, Note_on_c, 0, 52, 0
2, 253567, Note_on_c, 0, 79, 0
2, 253568, Note_on_c, 0, 71, 102
2, 253568, Note_on_c, 0, 59, 102
2, 253695, Note_on_c, 0, 71, 0
2, 253696, Note_on_c, 0, 76, 102
2, 253823, Note_on_c, 0, 76, 0
2, 253823, Note_on_c, 0, 59, 0
2, 253824, Note_on_c, 0, 69, 102
2, 253824, Note_on_c, 0, 75, 102
2, 253824, Note_on_c, 0, 47, 102
2, 253951, Note_on_c, 0, 47, 0
2, 253951, Note_on_c, 0, 75, 0
2, 253951, Note_on_c, 0, 69, 0
2, 253952, Note_on_c, 0, 67, 102
2, 253952, Note_on_c, 0, 76, 102
2, 253952, Note_on_c, 0, 52, 102
2, 254079, Note_on_c, 0, 67, 0
2, 254080, Note_on_c, 0, 64, 102
2, 254207, Note_on_c, 0, 64, 0
2, 254207, Note_on_c, 0, 52, 0
2, 254208, Note_on_c, 0, 69, 102
2, 254208, Note_on_c, 0, 60, 102
2, 254335, Note_on_c, 0, 60, 0
2, 254335, Note_on_c, 0, 69, 0
2, 254336, Note_on_c, 0, 67, 102
2, 254336, Note_on_c, 0, 59, 102
2, 254463, Note_on_c, 0, 67, 0
2, 254464, Note_on_c, 0, 64, 102
2, 254591, Note_on_c, 0, 64, 0
2, 254591, Note_on_c, 0, 59, 0
2, 254592, Note_on_c, 0, 71, 102
2, 254592, Note_on_c, 0, 51, 102
2, 254719, Note_on_c, 0, 51, 0
2, 254719, Note_on_c, 0, 71, 0
2, 254720, Note_on_c, 0, 67, 102
2, 254720, Note_on_c, 0, 52, 102
2, 254847, Note_on_c, 0, 67, 0
2, 254848, Note_on_c, 0, 64, 102
2, 254975, Note_on_c, 0, 64, 0
2, 254975, Note_on_c, 0, 52, 0
2, 254976, Note_on_c, 0, 69, 102
2, 254976, Note_on_c, 0, 60, 102
2, 255103, Note_on_c, 0, 60, 0
2, 255103, Note_on_c, 0, 69, 0
2, 255104, Note_on_c, 0, 67, 102
2, 255104, Note_on_c, 0, 59, 102
2, 255231, Note_on_c, 0, 67, 0
2, 255232, Note_on_c, 0, 64, 102
2, 255359, Note_on_c, 0, 64, 0
2, 255359, Note_on_c, 0, 59, 0
2, 255360, Note_on_c, 0, 71, 102
2, 255360, Note_on_c, 0, 51, 102
2, 255482, Note_on_c, 0, 76, 0
2, 255487, Note_on_c, 0, 51, 0
2, 255487, Note_on_c, 0, 71, 0
2, 255488, Note_on_c, 0, 68, 102
2, 255488, Note_on_c, 0, 52, 102
2, 255615, Note_on_c, 0, 52, 0
2, 255615, Note_on_c, 0, 68, 0
2, 255616, Note_on_c, 0, 71, 102
2, 255616, Note_on_c, 0, 56, 102
2, 255743, Note_on_c, 0, 56, 0
2, 255743, Note_on_c, 0, 71, 0
2, 255744, Note_on_c, 0, 74, 102
2, 255744, Note_on_c, 0, 59, 102
2, 255871, Note_on_c, 0, 59, 0
2, 255871, Note_on_c, 0, 74, 0
2, 255872, Note_on_c, 0, 64, 102
2, 255872, Note_on_c, 0, 56, 102
2, 255999, Note_on_c, 0, 56, 0
2, 256000, Note_on_c, 0, 52, 102
2, 256062, Note_on_c, 0, 64, 0
2, 256127, Note_on_c, 0, 52, 0
2, 256128, Note_on_c, 0, 72, 102
2, 256128, Note_on_c, 0, 57, 102
2, 256255, Note_on_c, 0, 57, 0
2, 256255, Note_on_c, 0, 72, 0
2, 256256, Note_on_c, 0, 69, 102
2, 256256, Note_on_c, 0, 54, 102
2, 256383, Note_on_c, 0, 54, 0
2, 256383, Note_on_c, 0, 69, 0
2, 256384, Note_on_c, 0, 72, 102
2, 256384, Note_on_c, 0, 57, 102
2, 256511, Note_on_c, 0, 57, 0
2, 256511, Note_on_c, 0, 72, 0
2, 256512, Note_on_c, 0, 76, 102
2, 256512, Note_on_c, 0, 60, 102
2, 256639, Note_on_c, 0, 60, 0
2, 256639, Note_on_c, 0, 76, 0
2, 256640, Note_on_c, 0, 66, 102
2, 256640, Note_on_c, 0, 57, 102
2, 256767, Note_on_c, 0, 57, 0
2, 256768, Note_on_c, 0, 54, 102
2, 256830, Note_on_c, 0, 66, 0
2, 256895, Note_on_c, 0, 54, 0
2, 256896, Note_on_c, 0, 74, 102
2, 256896, Note_on_c, 0, 59, 102
2, 257023, Note_on_c, 0, 59, 0
2, 257023, Note_on_c, 0, 74, 0
2, 257024, Note_on_c, 0, 71, 102
2, 257024, Note_on_c, 0, 56, 102
2, 257151, Note_on_c, 0, 56, 0
2, 257151, Note_on_c, 0, 71, 0
2, 257152, Note_on_c, 0, 74, 102
2, 257152, Note_on_c, 0, 59, 102
2, 257279, Note_on_c, 0, 59, 0
2, 257279, Note_on_c, 0, 74, 0
2, 257280, Note_on_c, 0, 77, 102
2, 257280, Note_on_c, 0, 62, 102
2, 257407, Note_on_c, 0, 62, 0
2, 257408, Note_on_c, 0, 68, 102
2, 257408, Note_on_c, 0, 59, 102
2, 257535, Note_on_c, 0, 59, 0
2, 257535, Note_on_c, 0, 77, 0
2, 257536, Note_on_c, 0, 76, 102
2, 257536, Note_on_c, 0, 56, 102
2, 257663, Note_on_c, 0, 56, 0
2, 257663, Note_on_c, 0, 76, 0
2, 257664, Note_on_c, 0, 74, 102
2, 257664, Note_on_c, 0, 59, 102
2, 257788, Note_on_c, 0, 68, 0
2, 257791, Note_on_c, 0, 59, 0
2, 257791, Note_on_c, 0, 74, 0
2, 257792, Note_on_c, 0, 72, 102
2, 257792, Note_on_c, 0, 57, 102
2, 257919, Note_on_c, 0, 72, 0
2, 257920, Note_on_c, 0, 69, 102
2, 258047, Note_on_c, 0, 69, 0
2, 258048, Note_on_c, 0, 74, 102
2, 258048, Note_on_c, 0, 65, 102
2, 258175, Note_on_c, 0, 65, 0
2, 258175, Note_on_c, 0, 74, 0
2, 258176, Note_on_c, 0, 72, 102
2, 258176, Note_on_c, 0, 64, 102
2, 258303, Note_on_c, 0, 72, 0
2, 258304, Note_on_c, 0, 69, 102
2, 258431, Note_on_c, 0, 69, 0
2, 258431, Note_on_c, 0, 57, 0
2, 258432, Note_on_c, 0, 76, 102
2, 258432, Note_on_c, 0, 56, 102
2, 258559, Note_on_c, 0, 56, 0
2, 258559, Note_on_c, 0, 76, 0
2, 258560, Note_on_c, 0, 72, 102
2, 258560, Note_on_c, 0, 57, 102
2, 258687, Note_on_c, 0, 72, 0
2, 258688, Note_on_c, 0, 69, 102
2, 258815, Note_on_c, 0, 69, 0
2, 258815, Note_on_c, 0, 64, 0
2, 258816, Note_on_c, 0, 74, 102
2, 258816, Note_on_c, 0, 65, 102
2, 258943, Note_on_c, 0, 65, 0
2, 258943, Note_on_c, 0, 74, 0
2, 258944, Note_on_c, 0, 72, 102
2, 258944, Note_on_c, 0, 64, 102
2, 259071, Note_on_c, 0, 72, 0
2, 259072, Note_on_c, 0, 69, 102
2, 259199, Note_on_c, 0, 69, 0
2, 259199, Note_on_c, 0, 57, 0
2, 259200, Note_on_c, 0, 76, 102
2, 259200, Note_on_c, 0, 56, 102
2, 259327, Note_on_c, 0, 56, 0
2, 259327, Note_on_c, 0, 76, 0
2, 259328, Note_on_c, 0, 73, 102
2, 259328, Note_on_c, 0, 57, 102
2, 259455, Note_on_c, 0, 57, 0
2, 259455, Note_on_c, 0, 73, 0
2, 259456, Note_on_c, 0, 76, 102
2, 259456, Note_on_c, 0, 61, 102
2, 259583, Note_on_c, 0, 61, 0
2, 259583, Note_on_c, 0, 76, 0
2, 259583, Note_on_c, 0, 64, 0
2, 259584, Note_on_c, 0, 79, 102
2, 259584, Note_on_c, 0, 64, 102
2, 259711, Note_on_c, 0, 64, 0
2, 259711, Note_on_c, 0, 79, 0
2, 259712, Note_on_c, 0, 69, 102
2, 259712, Note_on_c, 0, 61, 102
2, 259839, Note_on_c, 0, 61, 0
2, 259840, Note_on_c, 0, 57, 102
2, 259967, Note_on_c, 0, 57, 0
2, 259967, Note_on_c, 0, 69, 0
2, 259968, Note_on_c, 0, 78, 102
2, 259968, Note_on_c, 0, 62, 102
2, 260095, Note_on_c, 0, 62, 0
2, 260095, Note_on_c, 0, 78, 0
2, 260096, Note_on_c, 0, 74, 102
2, 260096, Note_on_c, 0, 59, 102
2, 260223, Note_on_c, 0, 59, 0
2, 260223, Note_on_c, 0, 74, 0
2, 260224, Note_on_c, 0, 78, 102
2, 260224, Note_on_c, 0, 62, 102
2, 260351, Note_on_c, 0, 62, 0
2, 260351, Note_on_c, 0, 78, 0
2, 260352, Note_on_c, 0, 81, 102
2, 260352, Note_on_c, 0, 66, 102
2, 260479, Note_on_c, 0, 66, 0
2, 260479, Note_on_c, 0, 81, 0
2, 260480, Note_on_c, 0, 71, 102
2, 260480, Note_on_c, 0, 62, 102
2, 260607, Note_on_c, 0, 62, 0
2, 260608, Note_on_c, 0, 59, 102
2, 260735, Note_on_c, 0, 59, 0
2, 260735, Note_on_c, 0, 71, 0
2, 260736, Note_on_c, 0, 79, 102
2, 260736, Note_on_c, 0, 64, 102
2, 260863, Note_on_c, 0, 64, 0
2, 260863, Note_on_c, 0, 79, 0
2, 260864, Note_on_c, 0, 76, 102
2, 260864, Note_on_c, 0, 61, 102
2, 260991, Note_on_c, 0, 61, 0
2, 260991, Note_on_c, 0, 76, 0
2, 260992, Note_on_c, 0, 79, 102
2, 260992, Note_on_c, 0, 64, 102
2, 261119, Note_on_c, 0, 64, 0
2, 261119, Note_on_c, 0, 79, 0
2, 261120, Note_on_c, 0, 83, 102
2, 261120, Note_on_c, 0, 67, 102
2, 261247, Note_on_c, 0, 67, 0
2, 261248, Note_on_c, 0, 73, 102
2, 261248, Note_on_c, 0, 64, 102
2, 261375, Note_on_c, 0, 64, 0
2, 261375, Note_on_c, 0, 73, 0
2, 261375, Note_on_c, 0, 83, 0
2, 261376, Note_on_c, 0, 81, 102
2, 261376, Note_on_c, 0, 61, 102
2, 261503, Note_on_c, 0, 61, 0
2, 261503, Note_on_c, 0, 81, 0
2, 261504, Note_on_c, 0, 79, 102
2, 261504, Note_on_c, 0, 64, 102
2, 261631, Note_on_c, 0, 64, 0
2, 261631, Note_on_c, 0, 79, 0
2, 261632, Note_on_c, 0, 78, 102
2, 261632, Note_on_c, 0, 62, 102
2, 261759, Note_on_c, 0, 78, 0
2, 261760, Note_on_c, 0, 74, 102
2, 261887, Note_on_c, 0, 74, 0
2, 261887, Note_on_c, 0, 62, 0
2, 261888, Note_on_c, 0, 79, 102
2, 261888, Note_on_c, 0, 71, 102
2, 262015, Note_on_c, 0, 71, 0
2, 262015, Note_on_c, 0, 79, 0
2, 262016, Note_on_c, 0, 78, 102
2, 262016, Note_on_c, 0, 69, 102
2, 262143, Note_on_c, 0, 78, 0
2, 262144, Note_on_c, 0, 74, 102
2, 262271, Note_on_c, 0, 74, 0
2, 262271, Note_on_c, 0, 69, 0
2, 262272, Note_on_c, 0, 81, 102
2, 262272, Note_on_c, 0, 61, 102
2, 262399, Note_on_c, 0, 61, 0
2, 262399, Note_on_c, 0, 81, 0
2, 262400, Note_on_c, 0, 78, 102
2, 262400, Note_on_c, 0, 62, 102
2, 262527, Note_on_c, 0, 78, 0
2, 262528, Note_on_c, 0, 74, 102
2, 262655, Note_on_c, 0, 74, 0
2, 262655, Note_on_c, 0, 62, 0
2, 262656, Note_on_c, 0, 79, 102
2, 262656, Note_on_c, 0, 71, 102
2, 262783, Note_on_c, 0, 71, 0
2, 262783, Note_on_c, 0, 79, 0
2, 262784, Note_on_c, 0, 78, 102
2, 262784, Note_on_c, 0, 69, 102
2, 262911, Note_on_c, 0, 78, 0
2, 262912, Note_on_c, 0, 74, 102
2, 263039, Note_on_c, 0, 74, 0
2, 263039, Note_on_c, 0, 69, 0
2, 263040, Note_on_c, 0, 81, 102
2, 263040, Note_on_c, 0, 61, 102
2, 263167, Note_on_c, 0, 61, 0
2, 263167, Note_on_c, 0, 81, 0
2, 263168, Note_on_c, 0, 78, 102
2, 263168, Note_on_c, 0, 62, 102
2, 263295, Note_on_c, 0, 62, 0
2, 263295, Note_on_c, 0, 78, 0
2, 263296, Note_on_c, 0, 81, 102
2, 263296, Note_on_c, 0, 66, 102
2, 263423, Note_on_c, 0, 66, 0
2, 263423, Note_on_c, 0, 81, 0
2, 263424, Note_on_c, 0, 84, 102
2, 263424, Note_on_c, 0, 69, 102
2, 263551, Note_on_c, 0, 69, 0
2, 263551, Note_on_c, 0, 84, 0
2, 263552, Note_on_c, 0, 74, 102
2, 263552, Note_on_c, 0, 66, 102
2, 263679, Note_on_c, 0, 66, 0
2, 263680, Note_on_c, 0, 62, 102
2, 263742, Note_on_c, 0, 74, 0
2, 263807, Note_on_c, 0, 62, 0
2, 263808, Note_on_c, 0, 83, 102
2, 263808, Note_on_c, 0, 67, 102
2, 263935, Note_on_c, 0, 67, 0
2, 263935, Note_on_c, 0, 83, 0
2, 263936, Note_on_c, 0, 76, 102
2, 263936, Note_on_c, 0, 60, 102
2, 264063, Note_on_c, 0, 60, 0
2, 264063, Note_on_c, 0, 76, 0
2, 264064, Note_on_c, 0, 79, 102
2, 264064, Note_on_c, 0, 64, 102
2, 264191, Note_on_c, 0, 64, 0
2, 264191, Note_on_c, 0, 79, 0
2, 264192, Note_on_c, 0, 83, 102
2, 264192, Note_on_c, 0, 67, 102
2, 264319, Note_on_c, 0, 67, 0
2, 264319, Note_on_c, 0, 83, 0
2, 264320, Note_on_c, 0, 72, 102
2, 264320, Note_on_c, 0, 64, 102
2, 264447, Note_on_c, 0, 64, 0
2, 264448, Note_on_c, 0, 60, 102
2, 264510, Note_on_c, 0, 72, 0
2, 264575, Note_on_c, 0, 60, 0
2, 264576, Note_on_c, 0, 81, 102
2, 264576, Note_on_c, 0, 66, 102
2, 264703, Note_on_c, 0, 66, 0
2, 264703, Note_on_c, 0, 81, 0
2, 264704, Note_on_c, 0, 74, 102
2, 264704, Note_on_c, 0, 59, 102
2, 264831, Note_on_c, 0, 59, 0
2, 264831, Note_on_c, 0, 74, 0
2, 264832, Note_on_c, 0, 78, 102
2, 264832, Note_on_c, 0, 62, 102
2, 264959, Note_on_c, 0, 62, 0
2, 264959, Note_on_c, 0, 78, 0
2, 264960, Note_on_c, 0, 81, 102
2, 264960, Note_on_c, 0, 66, 102
2, 265087, Note_on_c, 0, 66, 0
2, 265087, Note_on_c, 0, 81, 0
2, 265088, Note_on_c, 0, 71, 102
2, 265088, Note_on_c, 0, 62, 102
2, 265215, Note_on_c, 0, 62, 0
2, 265216, Note_on_c, 0, 59, 102
2, 265278, Note_on_c, 0, 71, 0
2, 265343, Note_on_c, 0, 59, 0
2, 265344, Note_on_c, 0, 79, 102
2, 265344, Note_on_c, 0, 64, 102
2, 265471, Note_on_c, 0, 64, 0
2, 265471, Note_on_c, 0, 79, 0
2, 265472, Note_on_c, 0, 72, 102
2, 265472, Note_on_c, 0, 57, 102
2, 265599, Note_on_c, 0, 57, 0
2, 265599, Note_on_c, 0, 72, 0
2, 265600, Note_on_c, 0, 76, 102
2, 265600, Note_on_c, 0, 60, 102
2, 265727, Note_on_c, 0, 60, 0
2, 265727, Note_on_c, 0, 76, 0
2, 265728, Note_on_c, 0, 79, 102
2, 265728, Note_on_c, 0, 64, 102
2, 265855, Note_on_c, 0, 64, 0
2, 265855, Note_on_c, 0, 79, 0
2, 265856, Note_on_c, 0, 69, 102
2, 265856, Note_on_c, 0, 60, 102
2, 265983, Note_on_c, 0, 60, 0
2, 265983, Note_on_c, 0, 69, 0
2, 265984, Note_on_c, 0, 72, 102
2, 265984, Note_on_c, 0, 57, 102
2, 266111, Note_on_c, 0, 57, 0
2, 266111, Note_on_c, 0, 72, 0
2, 266112, Note_on_c, 0, 76, 102
2, 266112, Note_on_c, 0, 60, 102
2, 266239, Note_on_c, 0, 60, 0
2, 266239, Note_on_c, 0, 76, 0
2, 266240, Note_on_c, 0, 66, 102
2, 266240, Note_on_c, 0, 62, 102
2, 266367, Note_on_c, 0, 62, 0
2, 266367, Note_on_c, 0, 66, 0
2, 266368, Note_on_c, 0, 69, 102
2, 266368, Note_on_c, 0, 57, 102
2, 266495, Note_on_c, 0, 57, 0
2, 266495, Note_on_c, 0, 69, 0
2, 266496, Note_on_c, 0, 72, 102
2, 266496, Note_on_c, 0, 54, 102
2, 266623, Note_on_c, 0, 54, 0
2, 266623, Note_on_c, 0, 72, 0
2, 266624, Note_on_c, 0, 62, 102
2, 266624, Note_on_c, 0, 50, 102
2, 266751, Note_on_c, 0, 62, 0
2, 266752, Note_on_c, 0, 66, 102
2, 266879, Note_on_c, 0, 66, 0
2, 266879, Note_on_c, 0, 50, 0
2, 266880, Note_on_c, 0, 69, 102
2, 266880, Note_on_c, 0, 45, 102
2, 267007, Note_on_c, 0, 45, 0
2, 267007, Note_on_c, 0, 69, 0
2, 267008, Note_on_c, 0, 72, 102
2, 267008, Note_on_c, 0, 42, 102
2, 267135, Note_on_c, 0, 42, 0
2, 267136, Note_on_c, 0, 38, 102
2, 267263, Note_on_c, 0, 38, 0
2, 267264, Note_on_c, 0, 71, 102
2, 267264, Note_on_c, 0, 43, 102
2, 267391, Note_on_c, 0, 43, 0
2, 267391, Note_on_c, 0, 71, 0
2, 267392, Note_on_c, 0, 69, 102
2, 267392, Note_on_c, 0, 42, 102
2, 267519, Note_on_c, 0, 42, 0
2, 267520, Note_on_c, 0, 38, 102
2, 267647, Note_on_c, 0, 38, 0
2, 267647, Note_on_c, 0, 72, 0
2, 267648, Note_on_c, 0, 72, 102
2, 267648, Note_on_c, 0, 45, 102
2, 267772, Note_on_c, 0, 69, 0
2, 267775, Note_on_c, 0, 45, 0
2, 267776, Note_on_c, 0, 62, 102
2, 267776, Note_on_c, 0, 42, 102
2, 267903, Note_on_c, 0, 42, 0
2, 267904, Note_on_c, 0, 38, 102
2, 268031, Note_on_c, 0, 38, 0
2, 268031, Note_on_c, 0, 62, 0
2, 268032, Note_on_c, 0, 71, 102
2, 268032, Note_on_c, 0, 43, 102
2, 268159, Note_on_c, 0, 43, 0
2, 268159, Note_on_c, 0, 71, 0
2, 268160, Note_on_c, 0, 69, 102
2, 268160, Note_on_c, 0, 42, 102
2, 268287, Note_on_c, 0, 42, 0
2, 268287, Note_on_c, 0, 72, 0
2, 268288, Note_on_c, 0, 38, 102
2, 268415, Note_on_c, 0, 38, 0
2, 268416, Note_on_c, 0, 72, 102
2, 268416, Note_on_c, 0, 45, 102
2, 268540, Note_on_c, 0, 69, 0
2, 268543, Note_on_c, 0, 45, 0
2, 268544, Note_on_c, 0, 62, 102
2, 268544, Note_on_c, 0, 42, 102
2, 268671, Note_on_c, 0, 42, 0
2, 268671, Note_on_c, 0, 62, 0
2, 268672, Note_on_c, 0, 66, 102
2, 268672, Note_on_c, 0, 45, 102
2, 268799, Note_on_c, 0, 45, 0
2, 268799, Note_on_c, 0, 66, 0
2, 268800, Note_on_c, 0, 69, 102
2, 268800, Note_on_c, 0, 48, 102
2, 268927, Note_on_c, 0, 48, 0
2, 268927, Note_on_c, 0, 69, 0
2, 268928, Note_on_c, 0, 66, 102
2, 268928, Note_on_c, 0, 38, 102
2, 269055, Note_on_c, 0, 72, 0
2, 269056, Note_on_c, 0, 69, 102
2, 269118, Note_on_c, 0, 38, 0
2, 269183, Note_on_c, 0, 69, 0
2, 269184, Note_on_c, 0, 74, 102
2, 269184, Note_on_c, 0, 47, 102
2, 269308, Note_on_c, 0, 66, 0
2, 269311, Note_on_c, 0, 47, 0
2, 269312, Note_on_c, 0, 64, 102
2, 269312, Note_on_c, 0, 43, 102
2, 269439, Note_on_c, 0, 43, 0
2, 269439, Note_on_c, 0, 64, 0
2, 269440, Note_on_c, 0, 67, 102
2, 269440, Note_on_c, 0, 47, 102
2, 269567, Note_on_c, 0, 47, 0
2, 269567, Note_on_c, 0, 67, 0
2, 269568, Note_on_c, 0, 71, 102
2, 269568, Note_on_c, 0, 50, 102
2, 269695, Note_on_c, 0, 50, 0
2, 269695, Note_on_c, 0, 71, 0
2, 269696, Note_on_c, 0, 67, 102
2, 269696, Note_on_c, 0, 40, 102
2, 269823, Note_on_c, 0, 74, 0
2, 269824, Note_on_c, 0, 71, 102
2, 269886, Note_on_c, 0, 40, 0
2, 269951, Note_on_c, 0, 71, 0
2, 269952, Note_on_c, 0, 76, 102
2, 269952, Note_on_c, 0, 48, 102
2, 270076, Note_on_c, 0, 67, 0
2, 270079, Note_on_c, 0, 48, 0
2, 270080, Note_on_c, 0, 66, 102
2, 270080, Note_on_c, 0, 45, 102
2, 270207, Note_on_c, 0, 45, 0
2, 270207, Note_on_c, 0, 66, 0
2, 270208, Note_on_c, 0, 69, 102
2, 270208, Note_on_c, 0, 48, 102
2, 270335, Note_on_c, 0, 48, 0
2, 270335, Note_on_c, 0, 69, 0
2, 270336, Note_on_c, 0, 72, 102
2, 270336, Note_on_c, 0, 52, 102
2, 270463, Note_on_c, 0, 52, 0
2, 270463, Note_on_c, 0, 72, 0
2, 270464, Note_on_c, 0, 69, 102
2, 270464, Note_on_c, 0, 42, 102
2, 270591, Note_on_c, 0, 42, 0
2, 270591, Note_on_c, 0, 76, 0
2, 270592, Note_on_c, 0, 72, 102
2, 270592, Note_on_c, 0, 50, 102
2, 270719, Note_on_c, 0, 50, 0
2, 270719, Note_on_c, 0, 72, 0
2, 270720, Note_on_c, 0, 48, 102
2, 270720, Note_on_c, 0, 78, 102
2, 270844, Note_on_c, 0, 69, 0
2, 270849, Note_on_c, 0, 78, 0
2, 270849, Note_on_c, 0, 48, 0
2, 270850, Note_on_c, 0, 47, 102
2, 270850, Note_on_c, 0, 79, 102
2, 270979, Note_on_c, 0, 47, 0
2, 270982, Note_on_c, 0, 50, 102
2, 270982, Note_on_c, 0, 74, 102
2, 271111, Note_on_c, 0, 74, 0
2, 271111, Note_on_c, 0, 50, 0
2, 271114, Note_on_c, 0, 55, 102
2, 271114, Note_on_c, 0, 71, 102
2, 271243, Note_on_c, 0, 71, 0
2, 271243, Note_on_c, 0, 55, 0
2, 271246, Note_on_c, 0, 59, 102
2, 271246, Note_on_c, 0, 67, 102
2, 271375, Note_on_c, 0, 59, 0
2, 271375, Note_on_c, 0, 79, 0
2, 271378, Note_on_c, 0, 55, 102
2, 271378, Note_on_c, 0, 77, 102
2, 271507, Note_on_c, 0, 77, 0
2, 271507, Note_on_c, 0, 55, 0
2, 271510, Note_on_c, 0, 74, 102
2, 271510, Note_on_c, 0, 59, 102
2, 271636, Note_on_c, 0, 67, 0
2, 271642, Note_on_c, 0, 59, 0
2, 271642, Note_on_c, 0, 74, 0
2, 271644, Note_on_c, 0, 76, 102
2, 271644, Note_on_c, 0, 60, 102
2, 271776, Note_on_c, 0, 60, 0
2, 271780, Note_on_c, 0, 72, 102
2, 271780, Note_on_c, 0, 57, 102
2, 271912, Note_on_c, 0, 57, 0
2, 271912, Note_on_c, 0, 72, 0
2, 271912, Note_on_c, 0, 76, 0
2, 271916, Note_on_c, 0, 69, 102
2, 271916, Note_on_c, 0, 54, 102
2, 272048, Note_on_c, 0, 54, 0
2, 272048, Note_on_c, 0, 69, 0
2, 272052, Note_on_c, 0, 66, 102
2, 272052, Note_on_c, 0, 50, 102
2, 272184, Note_on_c, 0, 50, 0
2, 272188, Note_on_c, 0, 69, 102
2, 272188, Note_on_c, 0, 54, 102
2, 272320, Note_on_c, 0, 54, 0
2, 272320, Note_on_c, 0, 69, 0
2, 272320, Note_on_c, 0, 66, 0
2, 272324, Note_on_c, 0, 57, 102
2, 272324, Note_on_c, 0, 72, 102
2, 272459, Note_on_c, 0, 72, 0
2, 272459, Note_on_c, 0, 57, 0
2, 272462, Note_on_c, 0, 55, 102
2, 272462, Note_on_c, 0, 71, 102
2, 272597, Note_on_c, 0, 71, 0
2, 272602, Note_on_c, 0, 69, 102
2, 272737, Note_on_c, 0, 69, 0
2, 272738, Note_on_c, 0, 55, 0
2, 272742, Note_on_c, 0, 64, 102
2, 272742, Note_on_c, 0, 67, 102
2, 272742, Note_on_c, 0, 48, 102
2, 272881, Note_on_c, 0, 48, 0
2, 272881, Note_on_c, 0, 67, 0
2, 272881, Note_on_c, 0, 64, 0
2, 272886, Note_on_c, 0, 62, 102
2, 272886, Note_on_c, 0, 67, 102
2, 272886, Note_on_c, 0, 50, 102
2, 273025, Note_on_c, 0, 67, 0
2, 273032, Note_on_c, 0, 69, 102
2, 273170, Note_on_c, 0, 50, 0
2, 273170, Note_on_c, 0, 62, 0
2, 273175, Note_on_c, 0, 69, 0
2, 273180, Note_on_c, 0, 60, 102
2, 273180, Note_on_c, 0, 66, 102
2, 273180, Note_on_c, 0, 38, 102
2, 273327, Note_on_c, 0, 38, 0
2, 273327, Note_on_c, 0, 66, 0
2, 273332, Note_on_c, 0, 67, 102
2, 273332, Note_on_c, 0, 43, 102
2, 273480, Note_on_c, 0, 60, 0
2, 273493, Note_on_c, 0, 62, 102
2, 273493, Note_on_c, 0, 47, 102
2, 273659, Note_on_c, 0, 47, 0
2, 273671, Note_on_c, 0, 59, 102
2, 273671, Note_on_c, 0, 50, 102
2, 273837, Note_on_c, 0, 50, 0
2, 273892, Note_on_c, 0, 55, 102
2, 274187, Note_on_c, 0, 62, 0
2, 274244, Note_on_c, 0, 67, 0
2, 274244, Note_on_c, 0, 43, 0
2, 274364, Note_on_c, 0, 59, 0
2, 274552, Note_on_c, 0, 55, 0
2, 274552, End_track
0, 0, End_of_file
