0, 0, Header, 1, 2, 384
1, 0, Start_track
1, 0, Title_t, "--------"
1, 0, Text_t, "harpsichord: John Sankey\012"
1, 0, Time_signature, 4, 2, 24, 8
1, 0, Key_signature, 0, "major"
1, 0, Tempo, 833333
1, 18432, Tempo, 750000
1, 26112, Time_signature, 3, 2, 24, 8
1, 26112, Tempo, 731707
1, 135552, Tempo, 1714286
1, 137472, Tempo, 923077
1, 137856, Time_signature, 4, 2, 24, 8
1, 225792, Tempo, 631579
1, 226944, Time_signature, 6, 2, 24, 8
1, 321408, Time_signature, 2, 2, 24, 8
1, 321408, Tempo, 666667
1, 362112, Time_signature, 6, 2, 24, 8
1, 364416, Tempo, 521739
1, 456576, Time_signature, 3, 2, 24, 8
1, 488448, Tempo, 444444
1, 488448, End_track
2, 0, Start_track
2, 0, Title_t, "Harpsichord"
2, 0, Program_c, 0, 6
2, 0, Control_c, 0, 7, 100
2, 0, Program_c, 0, 7
2, 0, Pitch_bend_c, 0, 8192
2, 0, Program_c, 0, 7
2, 0, Pitch_bend_c, 0, 7790
2, 0, Program_c, 0, 7
2, 0, Pitch_bend_c, 0, 7876
2, 0, Program_c, 0, 7
2, 0, Pitch_bend_c, 0, 7952
2, 0, Program_c, 0, 7
2, 0, Pitch_bend_c, 0, 7792
2, 0, Program_c, 0, 7
2, 0, Pitch_bend_c, 0, 8112
2, 0, Program_c, 0, 7
2, 0, Pitch_bend_c, 0, 7710
2, 0, Program_c, 0, 7
2, 0, Pitch_bend_c, 0, 8037
2, 0, Program_c, 0, 7
2, 0, Pitch_bend_c, 0, 7870
2, 0, Program_c, 0, 7
2, 0, Pitch_bend_c, 0, 7712
2, 0, Program_c, 0, 7
2, 0, Pitch_bend_c, 0, 8032
2, 0, Program_c, 0, 7
2, 0, Pitch_bend_c, 0, 7872
2, 149, Note_on_c, 0, 38, 96
2, 150, Note_on_c, 0, 50, 96
2, 150, Note_on_c, 0, 69, 96
2, 150, Note_on_c, 0, 74, 96
2, 150, Note_on_c, 0, 78, 96
2, 581, Note_on_c, 0, 50, 0
2, 624, Note_on_c, 0, 50, 96
2, 669, Note_on_c, 0, 38, 0
2, 671, Note_on_c, 0, 50, 0
2, 672, Note_on_c, 0, 52, 96
2, 719, Note_on_c, 0, 52, 0
2, 720, Note_on_c, 0, 54, 96
2, 767, Note_on_c, 0, 54, 0
2, 768, Note_on_c, 0, 55, 96
2, 815, Note_on_c, 0, 55, 0
2, 816, Note_on_c, 0, 57, 96
2, 863, Note_on_c, 0, 57, 0
2, 864, Note_on_c, 0, 59, 96
2, 911, Note_on_c, 0, 59, 0
2, 912, Note_on_c, 0, 61, 96
2, 959, Note_on_c, 0, 61, 0
2, 960, Note_on_c, 0, 62, 96
2, 1221, Note_on_c, 0, 74, 0
2, 1221, Note_on_c, 0, 78, 0
2, 1221, Note_on_c, 0, 69, 0
2, 1264, Note_on_c, 0, 59, 96
2, 1264, Note_on_c, 0, 78, 96
2, 1343, Note_on_c, 0, 78, 0
2, 1343, Note_on_c, 0, 59, 0
2, 1344, Note_on_c, 0, 64, 96
2, 1344, Note_on_c, 0, 79, 96
2, 1370, Note_on_c, 0, 79, 0
2, 1371, Note_on_c, 0, 78, 96
2, 1397, Note_on_c, 0, 78, 0
2, 1398, Note_on_c, 0, 79, 96
2, 1647, Note_on_c, 0, 79, 0
2, 1647, Note_on_c, 0, 64, 0
2, 1648, Note_on_c, 0, 66, 96
2, 1648, Note_on_c, 0, 81, 96
2, 1727, Note_on_c, 0, 81, 0
2, 1727, Note_on_c, 0, 66, 0
2, 1728, Note_on_c, 0, 67, 96
2, 1728, Note_on_c, 0, 78, 96
2, 1728, Note_on_c, 0, 71, 96
2, 1919, Note_on_c, 0, 78, 0
2, 1920, Note_on_c, 0, 76, 96
2, 2108, Note_on_c, 0, 71, 0
2, 2110, Note_on_c, 0, 62, 0
2, 2159, Note_on_c, 0, 67, 0
2, 2160, Note_on_c, 0, 64, 96
2, 2207, Note_on_c, 0, 64, 0
2, 2208, Note_on_c, 0, 66, 96
2, 2255, Note_on_c, 0, 66, 0
2, 2256, Note_on_c, 0, 67, 96
2, 2303, Note_on_c, 0, 67, 0
2, 2304, Note_on_c, 0, 69, 96
2, 2351, Note_on_c, 0, 69, 0
2, 2352, Note_on_c, 0, 71, 96
2, 2399, Note_on_c, 0, 71, 0
2, 2400, Note_on_c, 0, 73, 96
2, 2447, Note_on_c, 0, 73, 0
2, 2448, Note_on_c, 0, 74, 96
2, 2486, Note_on_c, 0, 76, 0
2, 2495, Note_on_c, 0, 74, 0
2, 2496, Note_on_c, 0, 76, 96
2, 2800, Note_on_c, 0, 61, 96
2, 2800, Note_on_c, 0, 64, 96
2, 2800, Note_on_c, 0, 69, 96
2, 2879, Note_on_c, 0, 69, 0
2, 2879, Note_on_c, 0, 64, 0
2, 2879, Note_on_c, 0, 61, 0
2, 2880, Note_on_c, 0, 59, 96
2, 2880, Note_on_c, 0, 62, 96
2, 2880, Note_on_c, 0, 69, 96
2, 2913, Note_on_c, 0, 69, 0
2, 2914, Note_on_c, 0, 68, 96
2, 2947, Note_on_c, 0, 68, 0
2, 2948, Note_on_c, 0, 69, 96
2, 2981, Note_on_c, 0, 69, 0
2, 2982, Note_on_c, 0, 68, 96
2, 3183, Note_on_c, 0, 68, 0
2, 3183, Note_on_c, 0, 62, 0
2, 3183, Note_on_c, 0, 59, 0
2, 3184, Note_on_c, 0, 57, 96
2, 3184, Note_on_c, 0, 61, 96
2, 3184, Note_on_c, 0, 69, 96
2, 3246, Note_on_c, 0, 76, 0
2, 3263, Note_on_c, 0, 57, 0
2, 3263, Note_on_c, 0, 61, 0
2, 3263, Note_on_c, 0, 69, 0
2, 3264, Note_on_c, 0, 62, 96
2, 3264, Note_on_c, 0, 59, 96
2, 3264, Note_on_c, 0, 74, 96
2, 3696, Note_on_c, 0, 67, 96
2, 3743, Note_on_c, 0, 67, 0
2, 3744, Note_on_c, 0, 69, 96
2, 3791, Note_on_c, 0, 69, 0
2, 3792, Note_on_c, 0, 71, 96
2, 3814, Note_on_c, 0, 74, 0
2, 3839, Note_on_c, 0, 71, 0
2, 3840, Note_on_c, 0, 72, 96
2, 3887, Note_on_c, 0, 72, 0
2, 3888, Note_on_c, 0, 74, 96
2, 3935, Note_on_c, 0, 74, 0
2, 3936, Note_on_c, 0, 76, 96
2, 3983, Note_on_c, 0, 76, 0
2, 3984, Note_on_c, 0, 78, 96
2, 4031, Note_on_c, 0, 78, 0
2, 4032, Note_on_c, 0, 79, 96
2, 4335, Note_on_c, 0, 59, 0
2, 4335, Note_on_c, 0, 62, 0
2, 4336, Note_on_c, 0, 52, 96
2, 4336, Note_on_c, 0, 71, 96
2, 4415, Note_on_c, 0, 71, 0
2, 4415, Note_on_c, 0, 52, 0
2, 4416, Note_on_c, 0, 54, 96
2, 4416, Note_on_c, 0, 76, 96
2, 4719, Note_on_c, 0, 76, 0
2, 4719, Note_on_c, 0, 54, 0
2, 4720, Note_on_c, 0, 55, 96
2, 4720, Note_on_c, 0, 74, 96
2, 4799, Note_on_c, 0, 74, 0
2, 4799, Note_on_c, 0, 55, 0
2, 4800, Note_on_c, 0, 57, 96
2, 4800, Note_on_c, 0, 73, 96
2, 4982, Note_on_c, 0, 79, 0
2, 5103, Note_on_c, 0, 73, 0
2, 5104, Note_on_c, 0, 59, 96
2, 5104, Note_on_c, 0, 74, 96
2, 5104, Note_on_c, 0, 79, 96
2, 5183, Note_on_c, 0, 79, 0
2, 5183, Note_on_c, 0, 74, 0
2, 5183, Note_on_c, 0, 59, 0
2, 5184, Note_on_c, 0, 61, 96
2, 5184, Note_on_c, 0, 81, 96
2, 5184, Note_on_c, 0, 76, 96
2, 5487, Note_on_c, 0, 76, 0
2, 5487, Note_on_c, 0, 81, 0
2, 5487, Note_on_c, 0, 61, 0
2, 5488, Note_on_c, 0, 62, 96
2, 5488, Note_on_c, 0, 78, 96
2, 5488, Note_on_c, 0, 83, 96
2, 5567, Note_on_c, 0, 83, 0
2, 5567, Note_on_c, 0, 78, 0
2, 5567, Note_on_c, 0, 62, 0
2, 5568, Note_on_c, 0, 64, 96
2, 5568, Note_on_c, 0, 74, 96
2, 5568, Note_on_c, 0, 69, 96
2, 5615, Note_on_c, 0, 74, 0
2, 5616, Note_on_c, 0, 73, 96
2, 5663, Note_on_c, 0, 73, 0
2, 5664, Note_on_c, 0, 74, 96
2, 5711, Note_on_c, 0, 74, 0
2, 5712, Note_on_c, 0, 73, 96
2, 5759, Note_on_c, 0, 73, 0
2, 5760, Note_on_c, 0, 74, 96
2, 5800, Note_on_c, 0, 57, 0
2, 5807, Note_on_c, 0, 74, 0
2, 5808, Note_on_c, 0, 73, 96
2, 5855, Note_on_c, 0, 73, 0
2, 5855, Note_on_c, 0, 64, 0
2, 5856, Note_on_c, 0, 52, 96
2, 5856, Note_on_c, 0, 74, 96
2, 5903, Note_on_c, 0, 74, 0
2, 5904, Note_on_c, 0, 76, 96
2, 5948, Note_on_c, 0, 69, 0
2, 5951, Note_on_c, 0, 76, 0
2, 5951, Note_on_c, 0, 52, 0
2, 5952, Note_on_c, 0, 49, 96
2, 5952, Note_on_c, 0, 69, 96
2, 6048, Note_on_c, 0, 76, 96
2, 6144, Note_on_c, 0, 81, 96
2, 6239, Note_on_c, 0, 81, 0
2, 6239, Note_on_c, 0, 49, 0
2, 6240, Note_on_c, 0, 45, 96
2, 6240, Note_on_c, 0, 79, 96
2, 6328, Note_on_c, 0, 76, 0
2, 6332, Note_on_c, 0, 69, 0
2, 6335, Note_on_c, 0, 45, 0
2, 6335, Note_on_c, 0, 79, 0
2, 6336, Note_on_c, 0, 50, 96
2, 6336, Note_on_c, 0, 79, 96
2, 6336, Note_on_c, 0, 74, 96
2, 6336, Note_on_c, 0, 69, 96
2, 6527, Note_on_c, 0, 79, 0
2, 6528, Note_on_c, 0, 78, 96
2, 6703, Note_on_c, 0, 78, 0
2, 6716, Note_on_c, 0, 74, 0
2, 6720, Note_on_c, 0, 76, 96
2, 6776, Note_on_c, 0, 50, 0
2, 6816, Note_on_c, 0, 49, 96
2, 6863, Note_on_c, 0, 49, 0
2, 6864, Note_on_c, 0, 47, 96
2, 6911, Note_on_c, 0, 47, 0
2, 6911, Note_on_c, 0, 76, 0
2, 6912, Note_on_c, 0, 45, 96
2, 6912, Note_on_c, 0, 74, 96
2, 6959, Note_on_c, 0, 45, 0
2, 6960, Note_on_c, 0, 43, 96
2, 7007, Note_on_c, 0, 43, 0
2, 7008, Note_on_c, 0, 42, 96
2, 7055, Note_on_c, 0, 42, 0
2, 7056, Note_on_c, 0, 40, 96
2, 7087, Note_on_c, 0, 74, 0
2, 7103, Note_on_c, 0, 40, 0
2, 7103, Note_on_c, 0, 69, 0
2, 7104, Note_on_c, 0, 38, 96
2, 7104, Note_on_c, 0, 78, 96
2, 7104, Note_on_c, 0, 74, 96
2, 7104, Note_on_c, 0, 69, 96
2, 7135, Note_on_c, 0, 74, 0
2, 7136, Note_on_c, 0, 73, 96
2, 7167, Note_on_c, 0, 73, 0
2, 7168, Note_on_c, 0, 74, 96
2, 7391, Note_on_c, 0, 38, 0
2, 7392, Note_on_c, 0, 50, 96
2, 7487, Note_on_c, 0, 50, 0
2, 7488, Note_on_c, 0, 52, 96
2, 7744, Note_on_c, 0, 69, 0
2, 7744, Note_on_c, 0, 78, 0
2, 7791, Note_on_c, 0, 74, 0
2, 7791, Note_on_c, 0, 52, 0
2, 7792, Note_on_c, 0, 54, 96
2, 7792, Note_on_c, 0, 69, 96
2, 7792, Note_on_c, 0, 78, 96
2, 7871, Note_on_c, 0, 78, 0
2, 7871, Note_on_c, 0, 69, 0
2, 7871, Note_on_c, 0, 54, 0
2, 7872, Note_on_c, 0, 43, 96
2, 7872, Note_on_c, 0, 78, 96
2, 7872, Note_on_c, 0, 71, 96
2, 8175, Note_on_c, 0, 43, 0
2, 8176, Note_on_c, 0, 62, 96
2, 8255, Note_on_c, 0, 62, 0
2, 8256, Note_on_c, 0, 64, 96
2, 8299, Note_on_c, 0, 83, 96
2, 8303, Note_on_c, 0, 71, 0
2, 8303, Note_on_c, 0, 78, 0
2, 8340, Note_on_c, 0, 83, 0
2, 8342, Note_on_c, 0, 81, 96
2, 8384, Note_on_c, 0, 81, 0
2, 8385, Note_on_c, 0, 79, 96
2, 8427, Note_on_c, 0, 79, 0
2, 8428, Note_on_c, 0, 78, 96
2, 8469, Note_on_c, 0, 78, 0
2, 8471, Note_on_c, 0, 76, 96
2, 8513, Note_on_c, 0, 76, 0
2, 8513, Note_on_c, 0, 75, 96
2, 8543, Note_on_c, 0, 64, 0
2, 8555, Note_on_c, 0, 75, 0
2, 8556, Note_on_c, 0, 66, 96
2, 8556, Note_on_c, 0, 73, 96
2, 8598, Note_on_c, 0, 73, 0
2, 8600, Note_on_c, 0, 71, 96
2, 8640, Note_on_c, 0, 67, 96
2, 8641, Note_on_c, 0, 66, 0
2, 8641, Note_on_c, 0, 76, 96
2, 8927, Note_on_c, 0, 67, 0
2, 8928, Note_on_c, 0, 43, 96
2, 9023, Note_on_c, 0, 43, 0
2, 9024, Note_on_c, 0, 43, 96
2, 9071, Note_on_c, 0, 43, 0
2, 9072, Note_on_c, 0, 42, 96
2, 9119, Note_on_c, 0, 42, 0
2, 9120, Note_on_c, 0, 43, 96
2, 9167, Note_on_c, 0, 43, 0
2, 9168, Note_on_c, 0, 42, 96
2, 9215, Note_on_c, 0, 42, 0
2, 9216, Note_on_c, 0, 43, 96
2, 9263, Note_on_c, 0, 43, 0
2, 9264, Note_on_c, 0, 42, 96
2, 9271, Note_on_c, 0, 71, 0
2, 9311, Note_on_c, 0, 42, 0
2, 9312, Note_on_c, 0, 76, 0
2, 9312, Note_on_c, 0, 40, 96
2, 9312, Note_on_c, 0, 76, 96
2, 9407, Note_on_c, 0, 76, 0
2, 9407, Note_on_c, 0, 40, 0
2, 9408, Note_on_c, 0, 47, 96
2, 9408, Note_on_c, 0, 76, 96
2, 9647, Note_on_c, 0, 76, 0
2, 9649, Note_on_c, 0, 74, 96
2, 9696, Note_on_c, 0, 54, 96
2, 9698, Note_on_c, 0, 73, 96
2, 9699, Note_on_c, 0, 74, 0
2, 9747, Note_on_c, 0, 74, 96
2, 9748, Note_on_c, 0, 73, 0
2, 9791, Note_on_c, 0, 54, 0
2, 9792, Note_on_c, 0, 56, 96
2, 9796, Note_on_c, 0, 76, 96
2, 9797, Note_on_c, 0, 74, 0
2, 9829, Note_on_c, 0, 74, 96
2, 9836, Note_on_c, 0, 76, 0
2, 9862, Note_on_c, 0, 76, 96
2, 9869, Note_on_c, 0, 74, 0
2, 9895, Note_on_c, 0, 74, 96
2, 9902, Note_on_c, 0, 76, 0
2, 9928, Note_on_c, 0, 76, 96
2, 9935, Note_on_c, 0, 74, 0
2, 9961, Note_on_c, 0, 74, 96
2, 9968, Note_on_c, 0, 76, 0
2, 9994, Note_on_c, 0, 76, 96
2, 10001, Note_on_c, 0, 74, 0
2, 10027, Note_on_c, 0, 74, 96
2, 10034, Note_on_c, 0, 76, 0
2, 10083, Note_on_c, 0, 74, 0
2, 10095, Note_on_c, 0, 56, 0
2, 10096, Note_on_c, 0, 58, 96
2, 10096, Note_on_c, 0, 73, 96
2, 10175, Note_on_c, 0, 73, 0
2, 10175, Note_on_c, 0, 58, 0
2, 10175, Note_on_c, 0, 47, 0
2, 10176, Note_on_c, 0, 59, 96
2, 10176, Note_on_c, 0, 71, 96
2, 10176, Note_on_c, 0, 74, 96
2, 10479, Note_on_c, 0, 59, 0
2, 10480, Note_on_c, 0, 47, 96
2, 10559, Note_on_c, 0, 47, 0
2, 10560, Note_on_c, 0, 49, 96
2, 10863, Note_on_c, 0, 49, 0
2, 10864, Note_on_c, 0, 50, 96
2, 10943, Note_on_c, 0, 50, 0
2, 10944, Note_on_c, 0, 44, 96
2, 11046, Note_on_c, 0, 74, 0
2, 11156, Note_on_c, 0, 71, 0
2, 11183, Note_on_c, 0, 44, 0
2, 11184, Note_on_c, 0, 52, 96
2, 11184, Note_on_c, 0, 74, 96
2, 11231, Note_on_c, 0, 74, 0
2, 11231, Note_on_c, 0, 52, 0
2, 11232, Note_on_c, 0, 54, 96
2, 11232, Note_on_c, 0, 73, 96
2, 11279, Note_on_c, 0, 73, 0
2, 11279, Note_on_c, 0, 54, 0
2, 11280, Note_on_c, 0, 56, 96
2, 11280, Note_on_c, 0, 71, 96
2, 11327, Note_on_c, 0, 71, 0
2, 11327, Note_on_c, 0, 56, 0
2, 11328, Note_on_c, 0, 57, 96
2, 11328, Note_on_c, 0, 73, 96
2, 11352, Note_on_c, 0, 71, 96
2, 11358, Note_on_c, 0, 73, 0
2, 11376, Note_on_c, 0, 73, 96
2, 11382, Note_on_c, 0, 71, 0
2, 11615, Note_on_c, 0, 73, 0
2, 11615, Note_on_c, 0, 57, 0
2, 11616, Note_on_c, 0, 59, 96
2, 11616, Note_on_c, 0, 74, 96
2, 11711, Note_on_c, 0, 74, 0
2, 11711, Note_on_c, 0, 59, 0
2, 11712, Note_on_c, 0, 61, 96
2, 11712, Note_on_c, 0, 76, 96
2, 11999, Note_on_c, 0, 76, 0
2, 11999, Note_on_c, 0, 61, 0
2, 12000, Note_on_c, 0, 62, 96
2, 12000, Note_on_c, 0, 78, 96
2, 12000, Note_on_c, 0, 74, 96
2, 12000, Note_on_c, 0, 69, 96
2, 12095, Note_on_c, 0, 69, 0
2, 12095, Note_on_c, 0, 62, 0
2, 12095, Note_on_c, 0, 78, 0
2, 12095, Note_on_c, 0, 74, 0
2, 12096, Note_on_c, 0, 59, 96
2, 12096, Note_on_c, 0, 80, 96
2, 12096, Note_on_c, 0, 74, 96
2, 12096, Note_on_c, 0, 71, 96
2, 12383, Note_on_c, 0, 71, 0
2, 12383, Note_on_c, 0, 59, 0
2, 12383, Note_on_c, 0, 80, 0
2, 12383, Note_on_c, 0, 74, 0
2, 12384, Note_on_c, 0, 57, 96
2, 12384, Note_on_c, 0, 81, 96
2, 12384, Note_on_c, 0, 76, 96
2, 12384, Note_on_c, 0, 73, 96
2, 12479, Note_on_c, 0, 73, 0
2, 12479, Note_on_c, 0, 57, 0
2, 12479, Note_on_c, 0, 81, 0
2, 12479, Note_on_c, 0, 76, 0
2, 12480, Note_on_c, 0, 64, 96
2, 12480, Note_on_c, 0, 80, 96
2, 12480, Note_on_c, 0, 76, 96
2, 12480, Note_on_c, 0, 71, 96
2, 12569, Note_on_c, 0, 80, 0
2, 12570, Note_on_c, 0, 78, 96
2, 12659, Note_on_c, 0, 78, 0
2, 12660, Note_on_c, 0, 80, 96
2, 12767, Note_on_c, 0, 64, 0
2, 12768, Note_on_c, 0, 62, 96
2, 12815, Note_on_c, 0, 62, 0
2, 12816, Note_on_c, 0, 61, 96
2, 12860, Note_on_c, 0, 71, 0
2, 12860, Note_on_c, 0, 76, 0
2, 12863, Note_on_c, 0, 61, 0
2, 12864, Note_on_c, 0, 59, 96
2, 12959, Note_on_c, 0, 80, 0
2, 12960, Note_on_c, 0, 78, 96
2, 13007, Note_on_c, 0, 78, 0
2, 13008, Note_on_c, 0, 80, 96
2, 13055, Note_on_c, 0, 80, 0
2, 13056, Note_on_c, 0, 81, 96
2, 13103, Note_on_c, 0, 81, 0
2, 13104, Note_on_c, 0, 80, 96
2, 13151, Note_on_c, 0, 80, 0
2, 13151, Note_on_c, 0, 59, 0
2, 13152, Note_on_c, 0, 62, 96
2, 13152, Note_on_c, 0, 78, 96
2, 13199, Note_on_c, 0, 78, 0
2, 13200, Note_on_c, 0, 76, 96
2, 13247, Note_on_c, 0, 76, 0
2, 13247, Note_on_c, 0, 62, 0
2, 13248, Note_on_c, 0, 56, 96
2, 13248, Note_on_c, 0, 83, 96
2, 13535, Note_on_c, 0, 56, 0
2, 13536, Note_on_c, 0, 59, 96
2, 13536, Note_on_c, 0, 80, 96
2, 13631, Note_on_c, 0, 80, 0
2, 13631, Note_on_c, 0, 59, 0
2, 13632, Note_on_c, 0, 52, 96
2, 13632, Note_on_c, 0, 74, 96
2, 13919, Note_on_c, 0, 52, 0
2, 13920, Note_on_c, 0, 56, 96
2, 14015, Note_on_c, 0, 56, 0
2, 14016, Note_on_c, 0, 42, 96
2, 14063, Note_on_c, 0, 74, 0
2, 14064, Note_on_c, 0, 71, 96
2, 14111, Note_on_c, 0, 71, 0
2, 14112, Note_on_c, 0, 73, 96
2, 14159, Note_on_c, 0, 73, 0
2, 14160, Note_on_c, 0, 74, 96
2, 14207, Note_on_c, 0, 74, 0
2, 14208, Note_on_c, 0, 73, 96
2, 14255, Note_on_c, 0, 73, 0
2, 14256, Note_on_c, 0, 71, 96
2, 14298, Note_on_c, 0, 83, 0
2, 14303, Note_on_c, 0, 71, 0
2, 14304, Note_on_c, 0, 69, 96
2, 14351, Note_on_c, 0, 69, 0
2, 14352, Note_on_c, 0, 68, 96
2, 14399, Note_on_c, 0, 68, 0
2, 14400, Note_on_c, 0, 69, 96
2, 14453, Note_on_c, 0, 69, 0
2, 14454, Note_on_c, 0, 71, 96
2, 14507, Note_on_c, 0, 71, 0
2, 14508, Note_on_c, 0, 73, 96
2, 14561, Note_on_c, 0, 73, 0
2, 14562, Note_on_c, 0, 74, 96
2, 14615, Note_on_c, 0, 74, 0
2, 14615, Note_on_c, 0, 42, 0
2, 14616, Note_on_c, 0, 54, 96
2, 14616, Note_on_c, 0, 76, 96
2, 14669, Note_on_c, 0, 76, 0
2, 14669, Note_on_c, 0, 54, 0
2, 14670, Note_on_c, 0, 52, 96
2, 14670, Note_on_c, 0, 78, 96
2, 14723, Note_on_c, 0, 78, 0
2, 14723, Note_on_c, 0, 52, 0
2, 14724, Note_on_c, 0, 50, 96
2, 14724, Note_on_c, 0, 80, 96
2, 14783, Note_on_c, 0, 80, 0
2, 14783, Note_on_c, 0, 50, 0
2, 14784, Note_on_c, 0, 49, 96
2, 14784, Note_on_c, 0, 81, 96
2, 15024, Note_on_c, 0, 74, 96
2, 15071, Note_on_c, 0, 74, 0
2, 15071, Note_on_c, 0, 49, 0
2, 15072, Note_on_c, 0, 52, 96
2, 15072, Note_on_c, 0, 73, 96
2, 15119, Note_on_c, 0, 73, 0
2, 15120, Note_on_c, 0, 71, 96
2, 15167, Note_on_c, 0, 71, 0
2, 15167, Note_on_c, 0, 52, 0
2, 15168, Note_on_c, 0, 45, 96
2, 15168, Note_on_c, 0, 73, 96
2, 15244, Note_on_c, 0, 81, 0
2, 15264, Note_on_c, 0, 76, 96
2, 15360, Note_on_c, 0, 79, 96
2, 15455, Note_on_c, 0, 45, 0
2, 15456, Note_on_c, 0, 49, 96
2, 15551, Note_on_c, 0, 49, 0
2, 15552, Note_on_c, 0, 38, 96
2, 15644, Note_on_c, 0, 76, 0
2, 15648, Note_on_c, 0, 73, 0
2, 15791, Note_on_c, 0, 38, 0
2, 15792, Note_on_c, 0, 45, 96
2, 15792, Note_on_c, 0, 73, 96
2, 15839, Note_on_c, 0, 73, 0
2, 15839, Note_on_c, 0, 45, 0
2, 15840, Note_on_c, 0, 47, 96
2, 15840, Note_on_c, 0, 74, 96
2, 15887, Note_on_c, 0, 74, 0
2, 15887, Note_on_c, 0, 47, 0
2, 15888, Note_on_c, 0, 49, 96
2, 15888, Note_on_c, 0, 76, 96
2, 15928, Note_on_c, 0, 79, 0
2, 15935, Note_on_c, 0, 76, 0
2, 15935, Note_on_c, 0, 49, 0
2, 15936, Note_on_c, 0, 50, 96
2, 15936, Note_on_c, 0, 78, 96
2, 15983, Note_on_c, 0, 78, 0
2, 15984, Note_on_c, 0, 79, 96
2, 16031, Note_on_c, 0, 79, 0
2, 16032, Note_on_c, 0, 78, 96
2, 16079, Note_on_c, 0, 78, 0
2, 16080, Note_on_c, 0, 76, 96
2, 16127, Note_on_c, 0, 76, 0
2, 16128, Note_on_c, 0, 74, 96
2, 16175, Note_on_c, 0, 74, 0
2, 16176, Note_on_c, 0, 73, 96
2, 16223, Note_on_c, 0, 73, 0
2, 16224, Note_on_c, 0, 71, 96
2, 16271, Note_on_c, 0, 71, 0
2, 16272, Note_on_c, 0, 69, 96
2, 16319, Note_on_c, 0, 69, 0
2, 16320, Note_on_c, 0, 68, 96
2, 16623, Note_on_c, 0, 68, 0
2, 16623, Note_on_c, 0, 50, 0
2, 16624, Note_on_c, 0, 50, 96
2, 16624, Note_on_c, 0, 71, 96
2, 16703, Note_on_c, 0, 71, 0
2, 16703, Note_on_c, 0, 50, 0
2, 16704, Note_on_c, 0, 49, 96
2, 16704, Note_on_c, 0, 76, 96
2, 17007, Note_on_c, 0, 49, 0
2, 17008, Note_on_c, 0, 47, 96
2, 17008, Note_on_c, 0, 68, 96
2, 17087, Note_on_c, 0, 68, 0
2, 17087, Note_on_c, 0, 47, 0
2, 17088, Note_on_c, 0, 49, 96
2, 17088, Note_on_c, 0, 69, 96
2, 17183, Note_on_c, 0, 49, 0
2, 17184, Note_on_c, 0, 52, 96
2, 17279, Note_on_c, 0, 52, 0
2, 17280, Note_on_c, 0, 50, 96
2, 17324, Note_on_c, 0, 76, 0
2, 17327, Note_on_c, 0, 69, 0
2, 17328, Note_on_c, 0, 78, 96
2, 17375, Note_on_c, 0, 78, 0
2, 17375, Note_on_c, 0, 50, 0
2, 17376, Note_on_c, 0, 49, 96
2, 17376, Note_on_c, 0, 80, 96
2, 17423, Note_on_c, 0, 80, 0
2, 17424, Note_on_c, 0, 81, 96
2, 17471, Note_on_c, 0, 81, 0
2, 17471, Note_on_c, 0, 49, 0
2, 17472, Note_on_c, 0, 47, 96
2, 17472, Note_on_c, 0, 81, 96
2, 17513, Note_on_c, 0, 81, 0
2, 17514, Note_on_c, 0, 80, 96
2, 17555, Note_on_c, 0, 80, 0
2, 17556, Note_on_c, 0, 81, 96
2, 17567, Note_on_c, 0, 47, 0
2, 17568, Note_on_c, 0, 49, 96
2, 17597, Note_on_c, 0, 81, 0
2, 17598, Note_on_c, 0, 80, 96
2, 17639, Note_on_c, 0, 80, 0
2, 17640, Note_on_c, 0, 81, 96
2, 17663, Note_on_c, 0, 49, 0
2, 17664, Note_on_c, 0, 45, 96
2, 17681, Note_on_c, 0, 81, 0
2, 17682, Note_on_c, 0, 80, 96
2, 17723, Note_on_c, 0, 80, 0
2, 17724, Note_on_c, 0, 78, 96
2, 17765, Note_on_c, 0, 78, 0
2, 17766, Note_on_c, 0, 80, 96
2, 17807, Note_on_c, 0, 80, 0
2, 17808, Note_on_c, 0, 81, 96
2, 17855, Note_on_c, 0, 81, 0
2, 17855, Note_on_c, 0, 45, 0
2, 17856, Note_on_c, 0, 52, 96
2, 17856, Note_on_c, 0, 68, 96
2, 17856, Note_on_c, 0, 73, 96
2, 17951, Note_on_c, 0, 73, 0
2, 17952, Note_on_c, 0, 71, 96
2, 17983, Note_on_c, 0, 71, 0
2, 17984, Note_on_c, 0, 73, 96
2, 18015, Note_on_c, 0, 73, 0
2, 18016, Note_on_c, 0, 71, 96
2, 18047, Note_on_c, 0, 71, 0
2, 18048, Note_on_c, 0, 73, 96
2, 18079, Note_on_c, 0, 73, 0
2, 18080, Note_on_c, 0, 71, 96
2, 18111, Note_on_c, 0, 71, 0
2, 18112, Note_on_c, 0, 73, 96
2, 18143, Note_on_c, 0, 73, 0
2, 18144, Note_on_c, 0, 71, 96
2, 18175, Note_on_c, 0, 71, 0
2, 18176, Note_on_c, 0, 73, 96
2, 18207, Note_on_c, 0, 73, 0
2, 18208, Note_on_c, 0, 71, 96
2, 18239, Note_on_c, 0, 52, 0
2, 18240, Note_on_c, 0, 40, 96
2, 18431, Note_on_c, 0, 71, 0
2, 18432, Note_on_c, 0, 69, 96
2, 18436, Note_on_c, 0, 68, 0
2, 18623, Note_on_c, 0, 69, 0
2, 18623, Note_on_c, 0, 40, 0
2, 18624, Note_on_c, 0, 45, 96
2, 18624, Note_on_c, 0, 69, 96
2, 18911, Note_on_c, 0, 69, 0
2, 18912, Note_on_c, 0, 73, 96
2, 18943, Note_on_c, 0, 73, 0
2, 18944, Note_on_c, 0, 71, 96
2, 18975, Note_on_c, 0, 71, 0
2, 18976, Note_on_c, 0, 69, 96
2, 19007, Note_on_c, 0, 69, 0
2, 19008, Note_on_c, 0, 79, 96
2, 19199, Note_on_c, 0, 45, 0
2, 19200, Note_on_c, 0, 47, 96
2, 19231, Note_on_c, 0, 47, 0
2, 19232, Note_on_c, 0, 49, 96
2, 19263, Note_on_c, 0, 49, 0
2, 19264, Note_on_c, 0, 50, 96
2, 19295, Note_on_c, 0, 50, 0
2, 19296, Note_on_c, 0, 52, 96
2, 19327, Note_on_c, 0, 52, 0
2, 19327, Note_on_c, 0, 79, 0
2, 19328, Note_on_c, 0, 54, 96
2, 19328, Note_on_c, 0, 76, 96
2, 19359, Note_on_c, 0, 54, 0
2, 19360, Note_on_c, 0, 55, 96
2, 19391, Note_on_c, 0, 55, 0
2, 19391, Note_on_c, 0, 76, 0
2, 19392, Note_on_c, 0, 57, 96
2, 19392, Note_on_c, 0, 78, 96
2, 19680, Note_on_c, 0, 76, 96
2, 19711, Note_on_c, 0, 76, 0
2, 19712, Note_on_c, 0, 74, 96
2, 19743, Note_on_c, 0, 74, 0
2, 19744, Note_on_c, 0, 73, 96
2, 19775, Note_on_c, 0, 73, 0
2, 19776, Note_on_c, 0, 74, 96
2, 19999, Note_on_c, 0, 57, 0
2, 20000, Note_on_c, 0, 59, 96
2, 20031, Note_on_c, 0, 59, 0
2, 20032, Note_on_c, 0, 61, 96
2, 20063, Note_on_c, 0, 61, 0
2, 20064, Note_on_c, 0, 62, 96
2, 20095, Note_on_c, 0, 62, 0
2, 20096, Note_on_c, 0, 64, 96
2, 20127, Note_on_c, 0, 64, 0
2, 20128, Note_on_c, 0, 66, 96
2, 20159, Note_on_c, 0, 66, 0
2, 20160, Note_on_c, 0, 67, 96
2, 20392, Note_on_c, 0, 78, 0
2, 20436, Note_on_c, 0, 78, 96
2, 20447, Note_on_c, 0, 74, 0
2, 20472, Note_on_c, 0, 76, 96
2, 20476, Note_on_c, 0, 78, 0
2, 20508, Note_on_c, 0, 74, 96
2, 20512, Note_on_c, 0, 76, 0
2, 20542, Note_on_c, 0, 74, 0
2, 20544, Note_on_c, 0, 76, 96
2, 20820, Note_on_c, 0, 74, 96
2, 20856, Note_on_c, 0, 74, 0
2, 20856, Note_on_c, 0, 73, 96
2, 20892, Note_on_c, 0, 73, 0
2, 20892, Note_on_c, 0, 71, 96
2, 20926, Note_on_c, 0, 71, 0
2, 20928, Note_on_c, 0, 73, 96
2, 21151, Note_on_c, 0, 67, 0
2, 21152, Note_on_c, 0, 57, 96
2, 21183, Note_on_c, 0, 57, 0
2, 21184, Note_on_c, 0, 59, 96
2, 21215, Note_on_c, 0, 59, 0
2, 21216, Note_on_c, 0, 61, 96
2, 21247, Note_on_c, 0, 61, 0
2, 21248, Note_on_c, 0, 62, 96
2, 21279, Note_on_c, 0, 62, 0
2, 21280, Note_on_c, 0, 64, 96
2, 21311, Note_on_c, 0, 64, 0
2, 21312, Note_on_c, 0, 66, 96
2, 21544, Note_on_c, 0, 76, 0
2, 21588, Note_on_c, 0, 76, 96
2, 21599, Note_on_c, 0, 73, 0
2, 21623, Note_on_c, 0, 76, 0
2, 21624, Note_on_c, 0, 74, 96
2, 21659, Note_on_c, 0, 74, 0
2, 21660, Note_on_c, 0, 73, 96
2, 21695, Note_on_c, 0, 73, 0
2, 21696, Note_on_c, 0, 74, 96
2, 21972, Note_on_c, 0, 73, 96
2, 22007, Note_on_c, 0, 73, 0
2, 22008, Note_on_c, 0, 71, 96
2, 22043, Note_on_c, 0, 71, 0
2, 22044, Note_on_c, 0, 69, 96
2, 22079, Note_on_c, 0, 69, 0
2, 22080, Note_on_c, 0, 71, 96
2, 22356, Note_on_c, 0, 69, 96
2, 22367, Note_on_c, 0, 66, 0
2, 22387, Note_on_c, 0, 69, 0
2, 22392, Note_on_c, 0, 68, 96
2, 22423, Note_on_c, 0, 68, 0
2, 22428, Note_on_c, 0, 66, 96
2, 22459, Note_on_c, 0, 66, 0
2, 22464, Note_on_c, 0, 68, 96
2, 22696, Note_on_c, 0, 74, 0
2, 22734, Note_on_c, 0, 77, 96
2, 22751, Note_on_c, 0, 71, 0
2, 22770, Note_on_c, 0, 77, 0
2, 22772, Note_on_c, 0, 76, 96
2, 22808, Note_on_c, 0, 76, 0
2, 22810, Note_on_c, 0, 74, 96
2, 22846, Note_on_c, 0, 74, 0
2, 22848, Note_on_c, 0, 83, 96
2, 23007, Note_on_c, 0, 68, 0
2, 23008, Note_on_c, 0, 57, 96
2, 23039, Note_on_c, 0, 57, 0
2, 23040, Note_on_c, 0, 59, 96
2, 23071, Note_on_c, 0, 59, 0
2, 23072, Note_on_c, 0, 60, 96
2, 23103, Note_on_c, 0, 60, 0
2, 23104, Note_on_c, 0, 62, 96
2, 23135, Note_on_c, 0, 62, 0
2, 23135, Note_on_c, 0, 83, 0
2, 23136, Note_on_c, 0, 64, 96
2, 23136, Note_on_c, 0, 80, 96
2, 23167, Note_on_c, 0, 80, 0
2, 23167, Note_on_c, 0, 64, 0
2, 23168, Note_on_c, 0, 66, 96
2, 23168, Note_on_c, 0, 78, 96
2, 23199, Note_on_c, 0, 78, 0
2, 23199, Note_on_c, 0, 66, 0
2, 23200, Note_on_c, 0, 68, 96
2, 23200, Note_on_c, 0, 76, 96
2, 23231, Note_on_c, 0, 76, 0
2, 23231, Note_on_c, 0, 68, 0
2, 23232, Note_on_c, 0, 69, 96
2, 23232, Note_on_c, 0, 84, 96
2, 23471, Note_on_c, 0, 69, 0
2, 23472, Note_on_c, 0, 67, 96
2, 23519, Note_on_c, 0, 67, 0
2, 23520, Note_on_c, 0, 65, 96
2, 23567, Note_on_c, 0, 65, 0
2, 23568, Note_on_c, 0, 64, 96
2, 23615, Note_on_c, 0, 64, 0
2, 23616, Note_on_c, 0, 65, 96
2, 23711, Note_on_c, 0, 65, 0
2, 23712, Note_on_c, 0, 67, 96
2, 23807, Note_on_c, 0, 67, 0
2, 23808, Note_on_c, 0, 69, 96
2, 23903, Note_on_c, 0, 69, 0
2, 23904, Note_on_c, 0, 65, 96
2, 23999, Note_on_c, 0, 65, 0
2, 24000, Note_on_c, 0, 64, 96
2, 24191, Note_on_c, 0, 64, 0
2, 24192, Note_on_c, 0, 63, 96
2, 24287, Note_on_c, 0, 84, 0
2, 24288, Note_on_c, 0, 83, 96
2, 24319, Note_on_c, 0, 83, 0
2, 24320, Note_on_c, 0, 81, 96
2, 24351, Note_on_c, 0, 81, 0
2, 24352, Note_on_c, 0, 80, 96
2, 24383, Note_on_c, 0, 80, 0
2, 24384, Note_on_c, 0, 81, 96
2, 24608, Note_on_c, 0, 64, 96
2, 24639, Note_on_c, 0, 64, 0
2, 24640, Note_on_c, 0, 66, 96
2, 24671, Note_on_c, 0, 66, 0
2, 24672, Note_on_c, 0, 68, 96
2, 24703, Note_on_c, 0, 68, 0
2, 24704, Note_on_c, 0, 69, 96
2, 24735, Note_on_c, 0, 69, 0
2, 24736, Note_on_c, 0, 71, 96
2, 24767, Note_on_c, 0, 71, 0
2, 24768, Note_on_c, 0, 72, 96
2, 24967, Note_on_c, 0, 63, 0
2, 25044, Note_on_c, 0, 83, 96
2, 25044, Note_on_c, 0, 62, 96
2, 25055, Note_on_c, 0, 72, 0
2, 25059, Note_on_c, 0, 81, 0
2, 25075, Note_on_c, 0, 62, 0
2, 25079, Note_on_c, 0, 83, 0
2, 25080, Note_on_c, 0, 60, 96
2, 25080, Note_on_c, 0, 81, 96
2, 25111, Note_on_c, 0, 60, 0
2, 25115, Note_on_c, 0, 81, 0
2, 25116, Note_on_c, 0, 80, 96
2, 25116, Note_on_c, 0, 59, 96
2, 25147, Note_on_c, 0, 59, 0
2, 25151, Note_on_c, 0, 80, 0
2, 25152, Note_on_c, 0, 60, 96
2, 25152, Note_on_c, 0, 81, 96
2, 25247, Note_on_c, 0, 81, 0
2, 25248, Note_on_c, 0, 78, 96
2, 25295, Note_on_c, 0, 60, 0
2, 25296, Note_on_c, 0, 57, 96
2, 25343, Note_on_c, 0, 57, 0
2, 25344, Note_on_c, 0, 51, 96
2, 25440, Note_on_c, 0, 80, 96
2, 25528, Note_on_c, 0, 78, 0
2, 25535, Note_on_c, 0, 80, 0
2, 25535, Note_on_c, 0, 51, 0
2, 25536, Note_on_c, 0, 52, 96
2, 25536, Note_on_c, 0, 59, 96
2, 25536, Note_on_c, 0, 81, 96
2, 25536, Note_on_c, 0, 76, 96
2, 25599, Note_on_c, 0, 81, 0
2, 25600, Note_on_c, 0, 80, 96
2, 25631, Note_on_c, 0, 80, 0
2, 25632, Note_on_c, 0, 81, 96
2, 25663, Note_on_c, 0, 81, 0
2, 25664, Note_on_c, 0, 80, 96
2, 25695, Note_on_c, 0, 80, 0
2, 25696, Note_on_c, 0, 81, 96
2, 25727, Note_on_c, 0, 81, 0
2, 25728, Note_on_c, 0, 80, 96
2, 25759, Note_on_c, 0, 80, 0
2, 25760, Note_on_c, 0, 81, 96
2, 25791, Note_on_c, 0, 81, 0
2, 25792, Note_on_c, 0, 80, 96
2, 25823, Note_on_c, 0, 80, 0
2, 25824, Note_on_c, 0, 81, 96
2, 25855, Note_on_c, 0, 81, 0
2, 25856, Note_on_c, 0, 80, 96
2, 25916, Note_on_c, 0, 76, 0
2, 25919, Note_on_c, 0, 52, 0
2, 25919, Note_on_c, 0, 59, 0
2, 25920, Note_on_c, 0, 64, 96
2, 25920, Note_on_c, 0, 74, 96
2, 26112, Note_on_c, 0, 81, 96
2, 26136, Note_on_c, 0, 80, 0
2, 26175, Note_on_c, 0, 74, 0
2, 26239, Note_on_c, 0, 81, 0
2, 26240, Note_on_c, 0, 81, 96
2, 26240, Note_on_c, 0, 57, 96
2, 26368, Note_on_c, 0, 73, 96
2, 26495, Note_on_c, 0, 73, 0
2, 26495, Note_on_c, 0, 57, 0
2, 26495, Note_on_c, 0, 81, 0
2, 26496, Note_on_c, 0, 76, 96
2, 26520, Note_on_c, 0, 64, 0
2, 26623, Note_on_c, 0, 76, 0
2, 26624, Note_on_c, 0, 78, 96
2, 26751, Note_on_c, 0, 78, 0
2, 26752, Note_on_c, 0, 71, 96
2, 26879, Note_on_c, 0, 71, 0
2, 26880, Note_on_c, 0, 74, 96
2, 27007, Note_on_c, 0, 74, 0
2, 27008, Note_on_c, 0, 76, 96
2, 27135, Note_on_c, 0, 76, 0
2, 27136, Note_on_c, 0, 69, 96
2, 27263, Note_on_c, 0, 69, 0
2, 27264, Note_on_c, 0, 73, 96
2, 27391, Note_on_c, 0, 73, 0
2, 27392, Note_on_c, 0, 74, 96
2, 27519, Note_on_c, 0, 74, 0
2, 27520, Note_on_c, 0, 76, 96
2, 27583, Note_on_c, 0, 76, 0
2, 27584, Note_on_c, 0, 74, 96
2, 27647, Note_on_c, 0, 74, 0
2, 27648, Note_on_c, 0, 73, 96
2, 27711, Note_on_c, 0, 73, 0
2, 27712, Note_on_c, 0, 71, 96
2, 27775, Note_on_c, 0, 71, 0
2, 27776, Note_on_c, 0, 76, 96
2, 27903, Note_on_c, 0, 76, 0
2, 27904, Note_on_c, 0, 69, 96
2, 28031, Note_on_c, 0, 69, 0
2, 28032, Note_on_c, 0, 73, 96
2, 28159, Note_on_c, 0, 73, 0
2, 28160, Note_on_c, 0, 74, 96
2, 28287, Note_on_c, 0, 74, 0
2, 28288, Note_on_c, 0, 68, 96
2, 28415, Note_on_c, 0, 68, 0
2, 28416, Note_on_c, 0, 71, 96
2, 28543, Note_on_c, 0, 71, 0
2, 28544, Note_on_c, 0, 73, 96
2, 28671, Note_on_c, 0, 73, 0
2, 28672, Note_on_c, 0, 78, 96
2, 28672, Note_on_c, 0, 74, 96
2, 28735, Note_on_c, 0, 74, 0
2, 28736, Note_on_c, 0, 73, 96
2, 28799, Note_on_c, 0, 73, 0
2, 28799, Note_on_c, 0, 78, 0
2, 28800, Note_on_c, 0, 81, 96
2, 28800, Note_on_c, 0, 71, 96
2, 28863, Note_on_c, 0, 71, 0
2, 28864, Note_on_c, 0, 69, 96
2, 28927, Note_on_c, 0, 69, 0
2, 28927, Note_on_c, 0, 81, 0
2, 28928, Note_on_c, 0, 83, 96
2, 28928, Note_on_c, 0, 74, 96
2, 29055, Note_on_c, 0, 83, 0
2, 29056, Note_on_c, 0, 76, 96
2, 29088, Note_on_c, 0, 74, 0
2, 29183, Note_on_c, 0, 76, 0
2, 29184, Note_on_c, 0, 80, 96
2, 29311, Note_on_c, 0, 80, 0
2, 29312, Note_on_c, 0, 81, 96
2, 29312, Note_on_c, 0, 72, 96
2, 29439, Note_on_c, 0, 81, 0
2, 29440, Note_on_c, 0, 74, 96
2, 29472, Note_on_c, 0, 72, 0
2, 29567, Note_on_c, 0, 74, 0
2, 29568, Note_on_c, 0, 78, 96
2, 29695, Note_on_c, 0, 78, 0
2, 29696, Note_on_c, 0, 79, 96
2, 29696, Note_on_c, 0, 71, 96
2, 29823, Note_on_c, 0, 71, 0
2, 29823, Note_on_c, 0, 79, 0
2, 29824, Note_on_c, 0, 81, 96
2, 29824, Note_on_c, 0, 72, 96
2, 29887, Note_on_c, 0, 72, 0
2, 29887, Note_on_c, 0, 81, 0
2, 29888, Note_on_c, 0, 79, 96
2, 29888, Note_on_c, 0, 71, 96
2, 29951, Note_on_c, 0, 71, 0
2, 29951, Note_on_c, 0, 79, 0
2, 29952, Note_on_c, 0, 78, 96
2, 29952, Note_on_c, 0, 69, 96
2, 30015, Note_on_c, 0, 69, 0
2, 30015, Note_on_c, 0, 78, 0
2, 30016, Note_on_c, 0, 76, 96
2, 30016, Note_on_c, 0, 67, 96
2, 30079, Note_on_c, 0, 67, 0
2, 30079, Note_on_c, 0, 76, 0
2, 30080, Note_on_c, 0, 81, 96
2, 30080, Note_on_c, 0, 66, 96
2, 30207, Note_on_c, 0, 81, 0
2, 30208, Note_on_c, 0, 74, 96
2, 30240, Note_on_c, 0, 66, 0
2, 30335, Note_on_c, 0, 74, 0
2, 30336, Note_on_c, 0, 78, 96
2, 30463, Note_on_c, 0, 78, 0
2, 30464, Note_on_c, 0, 79, 96
2, 30464, Note_on_c, 0, 69, 96
2, 30591, Note_on_c, 0, 79, 0
2, 30592, Note_on_c, 0, 73, 96
2, 30624, Note_on_c, 0, 69, 0
2, 30719, Note_on_c, 0, 73, 0
2, 30720, Note_on_c, 0, 76, 96
2, 30847, Note_on_c, 0, 76, 0
2, 30848, Note_on_c, 0, 78, 96
2, 30848, Note_on_c, 0, 62, 96
2, 30975, Note_on_c, 0, 62, 0
2, 30976, Note_on_c, 0, 64, 96
2, 31039, Note_on_c, 0, 64, 0
2, 31040, Note_on_c, 0, 66, 96
2, 31103, Note_on_c, 0, 66, 0
2, 31104, Note_on_c, 0, 67, 96
2, 31167, Note_on_c, 0, 67, 0
2, 31168, Note_on_c, 0, 69, 96
2, 31231, Note_on_c, 0, 69, 0
2, 31232, Note_on_c, 0, 71, 96
2, 31278, Note_on_c, 0, 78, 0
2, 31296, Note_on_c, 0, 74, 96
2, 31359, Note_on_c, 0, 74, 0
2, 31360, Note_on_c, 0, 76, 96
2, 31392, Note_on_c, 0, 71, 0
2, 31423, Note_on_c, 0, 76, 0
2, 31424, Note_on_c, 0, 78, 96
2, 31487, Note_on_c, 0, 78, 0
2, 31488, Note_on_c, 0, 80, 96
2, 31551, Note_on_c, 0, 80, 0
2, 31552, Note_on_c, 0, 81, 96
2, 31615, Note_on_c, 0, 81, 0
2, 31616, Note_on_c, 0, 83, 96
2, 31616, Note_on_c, 0, 69, 96
2, 31679, Note_on_c, 0, 83, 0
2, 31680, Note_on_c, 0, 81, 96
2, 31743, Note_on_c, 0, 81, 0
2, 31744, Note_on_c, 0, 80, 96
2, 31776, Note_on_c, 0, 69, 0
2, 31807, Note_on_c, 0, 80, 0
2, 31808, Note_on_c, 0, 78, 96
2, 31871, Note_on_c, 0, 78, 0
2, 31872, Note_on_c, 0, 76, 96
2, 31935, Note_on_c, 0, 76, 0
2, 31936, Note_on_c, 0, 74, 96
2, 31999, Note_on_c, 0, 74, 0
2, 32000, Note_on_c, 0, 76, 96
2, 32000, Note_on_c, 0, 68, 96
2, 32127, Note_on_c, 0, 68, 0
2, 32128, Note_on_c, 0, 69, 96
2, 32191, Note_on_c, 0, 69, 0
2, 32192, Note_on_c, 0, 68, 96
2, 32255, Note_on_c, 0, 68, 0
2, 32256, Note_on_c, 0, 66, 96
2, 32319, Note_on_c, 0, 66, 0
2, 32320, Note_on_c, 0, 64, 96
2, 32383, Note_on_c, 0, 64, 0
2, 32384, Note_on_c, 0, 69, 96
2, 32430, Note_on_c, 0, 76, 0
2, 32448, Note_on_c, 0, 73, 96
2, 32511, Note_on_c, 0, 73, 0
2, 32512, Note_on_c, 0, 74, 96
2, 32544, Note_on_c, 0, 69, 0
2, 32575, Note_on_c, 0, 74, 0
2, 32576, Note_on_c, 0, 76, 96
2, 32639, Note_on_c, 0, 76, 0
2, 32640, Note_on_c, 0, 78, 96
2, 32703, Note_on_c, 0, 78, 0
2, 32704, Note_on_c, 0, 80, 96
2, 32767, Note_on_c, 0, 80, 0
2, 32768, Note_on_c, 0, 81, 96
2, 32768, Note_on_c, 0, 68, 96
2, 32831, Note_on_c, 0, 81, 0
2, 32832, Note_on_c, 0, 80, 96
2, 32895, Note_on_c, 0, 80, 0
2, 32896, Note_on_c, 0, 78, 96
2, 32928, Note_on_c, 0, 68, 0
2, 32959, Note_on_c, 0, 78, 0
2, 32960, Note_on_c, 0, 76, 96
2, 33023, Note_on_c, 0, 76, 0
2, 33024, Note_on_c, 0, 74, 96
2, 33087, Note_on_c, 0, 74, 0
2, 33088, Note_on_c, 0, 73, 96
2, 33151, Note_on_c, 0, 73, 0
2, 33152, Note_on_c, 0, 74, 96
2, 33152, Note_on_c, 0, 66, 96
2, 33279, Note_on_c, 0, 66, 0
2, 33280, Note_on_c, 0, 68, 96
2, 33343, Note_on_c, 0, 68, 0
2, 33344, Note_on_c, 0, 66, 96
2, 33407, Note_on_c, 0, 66, 0
2, 33408, Note_on_c, 0, 64, 96
2, 33471, Note_on_c, 0, 64, 0
2, 33472, Note_on_c, 0, 66, 96
2, 33535, Note_on_c, 0, 66, 0
2, 33535, Note_on_c, 0, 74, 0
2, 33536, Note_on_c, 0, 71, 96
2, 33536, Note_on_c, 0, 68, 96
2, 33663, Note_on_c, 0, 68, 0
2, 33664, Note_on_c, 0, 83, 96
2, 33664, Note_on_c, 0, 69, 96
2, 33727, Note_on_c, 0, 69, 0
2, 33728, Note_on_c, 0, 68, 96
2, 33791, Note_on_c, 0, 68, 0
2, 33791, Note_on_c, 0, 83, 0
2, 33791, Note_on_c, 0, 71, 0
2, 33792, Note_on_c, 0, 74, 96
2, 33792, Note_on_c, 0, 66, 96
2, 33855, Note_on_c, 0, 66, 0
2, 33856, Note_on_c, 0, 68, 96
2, 33919, Note_on_c, 0, 68, 0
2, 33919, Note_on_c, 0, 74, 0
2, 33920, Note_on_c, 0, 73, 96
2, 33920, Note_on_c, 0, 69, 96
2, 33983, Note_on_c, 0, 73, 0
2, 33984, Note_on_c, 0, 74, 96
2, 34047, Note_on_c, 0, 74, 0
2, 34047, Note_on_c, 0, 69, 0
2, 34048, Note_on_c, 0, 76, 96
2, 34048, Note_on_c, 0, 71, 96
2, 34048, Note_on_c, 0, 68, 96
2, 34089, Note_on_c, 0, 76, 0
2, 34090, Note_on_c, 0, 74, 96
2, 34111, Note_on_c, 0, 68, 0
2, 34112, Note_on_c, 0, 66, 96
2, 34131, Note_on_c, 0, 74, 0
2, 34132, Note_on_c, 0, 76, 96
2, 34173, Note_on_c, 0, 76, 0
2, 34174, Note_on_c, 0, 74, 96
2, 34175, Note_on_c, 0, 66, 0
2, 34176, Note_on_c, 0, 64, 96
2, 34213, Note_on_c, 0, 74, 0
2, 34214, Note_on_c, 0, 73, 96
2, 34239, Note_on_c, 0, 64, 0
2, 34240, Note_on_c, 0, 62, 96
2, 34255, Note_on_c, 0, 73, 0
2, 34256, Note_on_c, 0, 74, 96
2, 34303, Note_on_c, 0, 74, 0
2, 34303, Note_on_c, 0, 62, 0
2, 34303, Note_on_c, 0, 71, 0
2, 34304, Note_on_c, 0, 76, 96
2, 34304, Note_on_c, 0, 61, 96
2, 34304, Note_on_c, 0, 71, 96
2, 34431, Note_on_c, 0, 61, 0
2, 34432, Note_on_c, 0, 49, 96
2, 34495, Note_on_c, 0, 71, 0
2, 34496, Note_on_c, 0, 74, 96
2, 34559, Note_on_c, 0, 74, 0
2, 34559, Note_on_c, 0, 49, 0
2, 34560, Note_on_c, 0, 52, 96
2, 34560, Note_on_c, 0, 73, 96
2, 34623, Note_on_c, 0, 73, 0
2, 34624, Note_on_c, 0, 71, 96
2, 34687, Note_on_c, 0, 71, 0
2, 34687, Note_on_c, 0, 52, 0
2, 34688, Note_on_c, 0, 54, 96
2, 34688, Note_on_c, 0, 69, 96
2, 34815, Note_on_c, 0, 54, 0
2, 34815, Note_on_c, 0, 76, 0
2, 34816, Note_on_c, 0, 74, 96
2, 34816, Note_on_c, 0, 47, 96
2, 34879, Note_on_c, 0, 69, 0
2, 34880, Note_on_c, 0, 73, 96
2, 34943, Note_on_c, 0, 73, 0
2, 34943, Note_on_c, 0, 47, 0
2, 34944, Note_on_c, 0, 50, 96
2, 34944, Note_on_c, 0, 71, 96
2, 35007, Note_on_c, 0, 71, 0
2, 35008, Note_on_c, 0, 69, 96
2, 35071, Note_on_c, 0, 69, 0
2, 35071, Note_on_c, 0, 50, 0
2, 35072, Note_on_c, 0, 52, 96
2, 35072, Note_on_c, 0, 68, 96
2, 35199, Note_on_c, 0, 52, 0
2, 35199, Note_on_c, 0, 74, 0
2, 35200, Note_on_c, 0, 73, 96
2, 35200, Note_on_c, 0, 45, 96
2, 35327, Note_on_c, 0, 45, 0
2, 35327, Note_on_c, 0, 68, 0
2, 35328, Note_on_c, 0, 49, 96
2, 35328, Note_on_c, 0, 64, 96
2, 35455, Note_on_c, 0, 64, 0
2, 35455, Note_on_c, 0, 49, 0
2, 35456, Note_on_c, 0, 50, 96
2, 35456, Note_on_c, 0, 66, 96
2, 35583, Note_on_c, 0, 50, 0
2, 35583, Note_on_c, 0, 73, 0
2, 35584, Note_on_c, 0, 71, 96
2, 35584, Note_on_c, 0, 52, 96
2, 35647, Note_on_c, 0, 52, 0
2, 35648, Note_on_c, 0, 50, 96
2, 35704, Note_on_c, 0, 71, 0
2, 35711, Note_on_c, 0, 50, 0
2, 35712, Note_on_c, 0, 74, 96
2, 35712, Note_on_c, 0, 49, 96
2, 35775, Note_on_c, 0, 49, 0
2, 35776, Note_on_c, 0, 47, 96
2, 35839, Note_on_c, 0, 47, 0
2, 35839, Note_on_c, 0, 66, 0
2, 35840, Note_on_c, 0, 52, 96
2, 35840, Note_on_c, 0, 68, 96
2, 35967, Note_on_c, 0, 52, 0
2, 35967, Note_on_c, 0, 74, 0
2, 35968, Note_on_c, 0, 73, 96
2, 35968, Note_on_c, 0, 45, 96
2, 36031, Note_on_c, 0, 68, 0
2, 36032, Note_on_c, 0, 71, 96
2, 36095, Note_on_c, 0, 71, 0
2, 36095, Note_on_c, 0, 45, 0
2, 36096, Note_on_c, 0, 49, 96
2, 36096, Note_on_c, 0, 69, 96
2, 36159, Note_on_c, 0, 69, 0
2, 36160, Note_on_c, 0, 68, 96
2, 36223, Note_on_c, 0, 68, 0
2, 36223, Note_on_c, 0, 49, 0
2, 36224, Note_on_c, 0, 50, 96
2, 36224, Note_on_c, 0, 66, 96
2, 36351, Note_on_c, 0, 50, 0
2, 36351, Note_on_c, 0, 73, 0
2, 36352, Note_on_c, 0, 71, 96
2, 36352, Note_on_c, 0, 44, 96
2, 36415, Note_on_c, 0, 66, 0
2, 36416, Note_on_c, 0, 69, 96
2, 36479, Note_on_c, 0, 69, 0
2, 36479, Note_on_c, 0, 44, 0
2, 36480, Note_on_c, 0, 47, 96
2, 36480, Note_on_c, 0, 68, 96
2, 36543, Note_on_c, 0, 68, 0
2, 36544, Note_on_c, 0, 66, 96
2, 36607, Note_on_c, 0, 66, 0
2, 36607, Note_on_c, 0, 47, 0
2, 36608, Note_on_c, 0, 49, 96
2, 36608, Note_on_c, 0, 64, 96
2, 36735, Note_on_c, 0, 49, 0
2, 36735, Note_on_c, 0, 71, 0
2, 36736, Note_on_c, 0, 69, 96
2, 36736, Note_on_c, 0, 50, 96
2, 36799, Note_on_c, 0, 50, 0
2, 36800, Note_on_c, 0, 49, 96
2, 36863, Note_on_c, 0, 49, 0
2, 36864, Note_on_c, 0, 73, 96
2, 36864, Note_on_c, 0, 47, 96
2, 36870, Note_on_c, 0, 69, 0
2, 36927, Note_on_c, 0, 47, 0
2, 36928, Note_on_c, 0, 45, 96
2, 36974, Note_on_c, 0, 73, 0
2, 36991, Note_on_c, 0, 45, 0
2, 36992, Note_on_c, 0, 66, 96
2, 36992, Note_on_c, 0, 50, 96
2, 37055, Note_on_c, 0, 64, 0
2, 37056, Note_on_c, 0, 62, 96
2, 37119, Note_on_c, 0, 62, 0
2, 37120, Note_on_c, 0, 38, 96
2, 37120, Note_on_c, 0, 64, 96
2, 37183, Note_on_c, 0, 64, 0
2, 37184, Note_on_c, 0, 62, 96
2, 37242, Note_on_c, 0, 50, 0
2, 37247, Note_on_c, 0, 62, 0
2, 37247, Note_on_c, 0, 38, 0
2, 37248, Note_on_c, 0, 50, 96
2, 37248, Note_on_c, 0, 61, 96
2, 37311, Note_on_c, 0, 61, 0
2, 37312, Note_on_c, 0, 62, 96
2, 37375, Note_on_c, 0, 50, 0
2, 37375, Note_on_c, 0, 66, 0
2, 37376, Note_on_c, 0, 68, 96
2, 37376, Note_on_c, 0, 52, 96
2, 37439, Note_on_c, 0, 62, 0
2, 37440, Note_on_c, 0, 62, 96
2, 37503, Note_on_c, 0, 62, 0
2, 37504, Note_on_c, 0, 40, 96
2, 37504, Note_on_c, 0, 64, 96
2, 37567, Note_on_c, 0, 64, 0
2, 37568, Note_on_c, 0, 62, 96
2, 37626, Note_on_c, 0, 52, 0
2, 37631, Note_on_c, 0, 62, 0
2, 37631, Note_on_c, 0, 40, 0
2, 37632, Note_on_c, 0, 52, 96
2, 37632, Note_on_c, 0, 61, 96
2, 37695, Note_on_c, 0, 61, 0
2, 37696, Note_on_c, 0, 62, 96
2, 37759, Note_on_c, 0, 52, 0
2, 37759, Note_on_c, 0, 68, 0
2, 37760, Note_on_c, 0, 69, 96
2, 37760, Note_on_c, 0, 54, 96
2, 37823, Note_on_c, 0, 62, 0
2, 37824, Note_on_c, 0, 61, 96
2, 37887, Note_on_c, 0, 61, 0
2, 37887, Note_on_c, 0, 54, 0
2, 37888, Note_on_c, 0, 49, 96
2, 37888, Note_on_c, 0, 62, 96
2, 37951, Note_on_c, 0, 62, 0
2, 37952, Note_on_c, 0, 64, 96
2, 38015, Note_on_c, 0, 64, 0
2, 38015, Note_on_c, 0, 49, 0
2, 38016, Note_on_c, 0, 45, 96
2, 38016, Note_on_c, 0, 66, 96
2, 38079, Note_on_c, 0, 66, 0
2, 38080, Note_on_c, 0, 68, 96
2, 38136, Note_on_c, 0, 68, 0
2, 38140, Note_on_c, 0, 69, 0
2, 38143, Note_on_c, 0, 45, 0
2, 38144, Note_on_c, 0, 42, 96
2, 38144, Note_on_c, 0, 69, 96
2, 38208, Note_on_c, 0, 74, 96
2, 38271, Note_on_c, 0, 74, 0
2, 38271, Note_on_c, 0, 42, 0
2, 38272, Note_on_c, 0, 76, 96
2, 38272, Note_on_c, 0, 54, 96
2, 38335, Note_on_c, 0, 76, 0
2, 38336, Note_on_c, 0, 74, 96
2, 38399, Note_on_c, 0, 74, 0
2, 38399, Note_on_c, 0, 54, 0
2, 38400, Note_on_c, 0, 73, 96
2, 38400, Note_on_c, 0, 42, 96
2, 38463, Note_on_c, 0, 73, 0
2, 38464, Note_on_c, 0, 74, 96
2, 38527, Note_on_c, 0, 42, 0
2, 38527, Note_on_c, 0, 69, 0
2, 38528, Note_on_c, 0, 44, 96
2, 38528, Note_on_c, 0, 71, 96
2, 38591, Note_on_c, 0, 74, 0
2, 38592, Note_on_c, 0, 74, 96
2, 38655, Note_on_c, 0, 74, 0
2, 38655, Note_on_c, 0, 44, 0
2, 38656, Note_on_c, 0, 76, 96
2, 38656, Note_on_c, 0, 56, 96
2, 38719, Note_on_c, 0, 76, 0
2, 38720, Note_on_c, 0, 74, 96
2, 38783, Note_on_c, 0, 74, 0
2, 38783, Note_on_c, 0, 56, 0
2, 38784, Note_on_c, 0, 73, 96
2, 38784, Note_on_c, 0, 44, 96
2, 38847, Note_on_c, 0, 73, 0
2, 38848, Note_on_c, 0, 74, 96
2, 38911, Note_on_c, 0, 74, 0
2, 38911, Note_on_c, 0, 44, 0
2, 38912, Note_on_c, 0, 73, 96
2, 38912, Note_on_c, 0, 45, 96
2, 38988, Note_on_c, 0, 71, 0
2, 39039, Note_on_c, 0, 45, 0
2, 39040, Note_on_c, 0, 47, 96
2, 39040, Note_on_c, 0, 68, 96
2, 39103, Note_on_c, 0, 47, 0
2, 39104, Note_on_c, 0, 45, 96
2, 39167, Note_on_c, 0, 45, 0
2, 39167, Note_on_c, 0, 68, 0
2, 39168, Note_on_c, 0, 44, 96
2, 39168, Note_on_c, 0, 69, 96
2, 39231, Note_on_c, 0, 44, 0
2, 39232, Note_on_c, 0, 45, 96
2, 39295, Note_on_c, 0, 45, 0
2, 39295, Note_on_c, 0, 73, 0
2, 39296, Note_on_c, 0, 74, 96
2, 39296, Note_on_c, 0, 47, 96
2, 39423, Note_on_c, 0, 47, 0
2, 39423, Note_on_c, 0, 69, 0
2, 39424, Note_on_c, 0, 49, 96
2, 39424, Note_on_c, 0, 68, 96
2, 39487, Note_on_c, 0, 49, 0
2, 39488, Note_on_c, 0, 47, 96
2, 39551, Note_on_c, 0, 47, 0
2, 39551, Note_on_c, 0, 68, 0
2, 39552, Note_on_c, 0, 45, 96
2, 39552, Note_on_c, 0, 69, 96
2, 39615, Note_on_c, 0, 45, 0
2, 39616, Note_on_c, 0, 47, 96
2, 39679, Note_on_c, 0, 47, 0
2, 39679, Note_on_c, 0, 74, 0
2, 39680, Note_on_c, 0, 76, 96
2, 39680, Note_on_c, 0, 49, 96
2, 39807, Note_on_c, 0, 49, 0
2, 39807, Note_on_c, 0, 69, 0
2, 39808, Note_on_c, 0, 50, 96
2, 39808, Note_on_c, 0, 68, 96
2, 39871, Note_on_c, 0, 50, 0
2, 39872, Note_on_c, 0, 49, 96
2, 39935, Note_on_c, 0, 49, 0
2, 39935, Note_on_c, 0, 68, 0
2, 39936, Note_on_c, 0, 47, 96
2, 39936, Note_on_c, 0, 69, 96
2, 39999, Note_on_c, 0, 47, 0
2, 40000, Note_on_c, 0, 49, 96
2, 40020, Note_on_c, 0, 76, 0
2, 40063, Note_on_c, 0, 49, 0
2, 40064, Note_on_c, 0, 78, 96
2, 40064, Note_on_c, 0, 50, 96
2, 40191, Note_on_c, 0, 50, 0
2, 40191, Note_on_c, 0, 78, 0
2, 40192, Note_on_c, 0, 79, 96
2, 40192, Note_on_c, 0, 54, 96
2, 40255, Note_on_c, 0, 79, 0
2, 40256, Note_on_c, 0, 78, 96
2, 40316, Note_on_c, 0, 69, 0
2, 40318, Note_on_c, 0, 76, 96
2, 40319, Note_on_c, 0, 78, 0
2, 40319, Note_on_c, 0, 54, 0
2, 40320, Note_on_c, 0, 57, 96
2, 40380, Note_on_c, 0, 74, 96
2, 40381, Note_on_c, 0, 76, 0
2, 40428, Note_on_c, 0, 74, 0
2, 40447, Note_on_c, 0, 57, 0
2, 40448, Note_on_c, 0, 84, 96
2, 40448, Note_on_c, 0, 62, 96
2, 40511, Note_on_c, 0, 84, 0
2, 40512, Note_on_c, 0, 83, 96
2, 40575, Note_on_c, 0, 83, 0
2, 40576, Note_on_c, 0, 81, 96
2, 40576, Note_on_c, 0, 65, 96
2, 40639, Note_on_c, 0, 81, 0
2, 40640, Note_on_c, 0, 84, 96
2, 40703, Note_on_c, 0, 84, 0
2, 40703, Note_on_c, 0, 65, 0
2, 40704, Note_on_c, 0, 83, 96
2, 40704, Note_on_c, 0, 69, 96
2, 40767, Note_on_c, 0, 83, 0
2, 40768, Note_on_c, 0, 81, 96
2, 40831, Note_on_c, 0, 81, 0
2, 40831, Note_on_c, 0, 69, 0
2, 40832, Note_on_c, 0, 80, 96
2, 40832, Note_on_c, 0, 71, 96
2, 40895, Note_on_c, 0, 80, 0
2, 40896, Note_on_c, 0, 83, 96
2, 40959, Note_on_c, 0, 83, 0
2, 40959, Note_on_c, 0, 71, 0
2, 40960, Note_on_c, 0, 81, 96
2, 40960, Note_on_c, 0, 64, 96
2, 41023, Note_on_c, 0, 81, 0
2, 41024, Note_on_c, 0, 80, 96
2, 41087, Note_on_c, 0, 80, 0
2, 41087, Note_on_c, 0, 64, 0
2, 41088, Note_on_c, 0, 81, 96
2, 41088, Note_on_c, 0, 68, 96
2, 41151, Note_on_c, 0, 81, 0
2, 41152, Note_on_c, 0, 83, 96
2, 41215, Note_on_c, 0, 83, 0
2, 41215, Note_on_c, 0, 68, 0
2, 41216, Note_on_c, 0, 76, 96
2, 41216, Note_on_c, 0, 69, 96
2, 41328, Note_on_c, 0, 62, 0
2, 41343, Note_on_c, 0, 76, 0
2, 41344, Note_on_c, 0, 76, 96
2, 41344, Note_on_c, 0, 61, 96
2, 41407, Note_on_c, 0, 69, 0
2, 41408, Note_on_c, 0, 74, 96
2, 41471, Note_on_c, 0, 74, 0
2, 41471, Note_on_c, 0, 61, 0
2, 41472, Note_on_c, 0, 64, 96
2, 41472, Note_on_c, 0, 73, 96
2, 41535, Note_on_c, 0, 73, 0
2, 41536, Note_on_c, 0, 71, 96
2, 41599, Note_on_c, 0, 71, 0
2, 41599, Note_on_c, 0, 64, 0
2, 41600, Note_on_c, 0, 66, 96
2, 41600, Note_on_c, 0, 69, 96
2, 41727, Note_on_c, 0, 66, 0
2, 41727, Note_on_c, 0, 76, 0
2, 41728, Note_on_c, 0, 74, 96
2, 41728, Note_on_c, 0, 59, 96
2, 41791, Note_on_c, 0, 69, 0
2, 41792, Note_on_c, 0, 73, 96
2, 41855, Note_on_c, 0, 73, 0
2, 41855, Note_on_c, 0, 59, 0
2, 41856, Note_on_c, 0, 62, 96
2, 41856, Note_on_c, 0, 71, 96
2, 41919, Note_on_c, 0, 71, 0
2, 41920, Note_on_c, 0, 69, 96
2, 41983, Note_on_c, 0, 69, 0
2, 41983, Note_on_c, 0, 62, 0
2, 41984, Note_on_c, 0, 64, 96
2, 41984, Note_on_c, 0, 68, 96
2, 42111, Note_on_c, 0, 64, 0
2, 42111, Note_on_c, 0, 74, 0
2, 42112, Note_on_c, 0, 73, 96
2, 42112, Note_on_c, 0, 57, 96
2, 42239, Note_on_c, 0, 57, 0
2, 42239, Note_on_c, 0, 68, 0
2, 42240, Note_on_c, 0, 61, 96
2, 42240, Note_on_c, 0, 69, 96
2, 42367, Note_on_c, 0, 69, 0
2, 42367, Note_on_c, 0, 61, 0
2, 42368, Note_on_c, 0, 54, 96
2, 42368, Note_on_c, 0, 62, 96
2, 42492, Note_on_c, 0, 73, 0
2, 42495, Note_on_c, 0, 54, 0
2, 42496, Note_on_c, 0, 66, 96
2, 42496, Note_on_c, 0, 57, 96
2, 42623, Note_on_c, 0, 57, 0
2, 42623, Note_on_c, 0, 66, 0
2, 42624, Note_on_c, 0, 71, 96
2, 42624, Note_on_c, 0, 56, 96
2, 42751, Note_on_c, 0, 56, 0
2, 42751, Note_on_c, 0, 62, 0
2, 42752, Note_on_c, 0, 57, 96
2, 42752, Note_on_c, 0, 61, 96
2, 42879, Note_on_c, 0, 57, 0
2, 42879, Note_on_c, 0, 71, 0
2, 42880, Note_on_c, 0, 64, 96
2, 42880, Note_on_c, 0, 49, 96
2, 43007, Note_on_c, 0, 49, 0
2, 43007, Note_on_c, 0, 64, 0
2, 43008, Note_on_c, 0, 69, 96
2, 43008, Note_on_c, 0, 50, 96
2, 43135, Note_on_c, 0, 50, 0
2, 43135, Note_on_c, 0, 69, 0
2, 43135, Note_on_c, 0, 61, 0
2, 43136, Note_on_c, 0, 69, 96
2, 43136, Note_on_c, 0, 52, 96
2, 43136, Note_on_c, 0, 59, 96
2, 43199, Note_on_c, 0, 69, 0
2, 43200, Note_on_c, 0, 68, 96
2, 43231, Note_on_c, 0, 68, 0
2, 43232, Note_on_c, 0, 69, 96
2, 43263, Note_on_c, 0, 69, 0
2, 43264, Note_on_c, 0, 68, 96
2, 43391, Note_on_c, 0, 68, 0
2, 43391, Note_on_c, 0, 52, 0
2, 43392, Note_on_c, 0, 69, 96
2, 43392, Note_on_c, 0, 40, 96
2, 43519, Note_on_c, 0, 40, 0
2, 43519, Note_on_c, 0, 69, 0
2, 43519, Note_on_c, 0, 59, 0
2, 43520, Note_on_c, 0, 69, 96
2, 43520, Note_on_c, 0, 45, 96
2, 43520, Note_on_c, 0, 49, 96
2, 43520, Note_on_c, 0, 57, 96
2, 43520, Note_on_c, 0, 52, 96
2, 43583, Note_on_c, 0, 69, 0
2, 43584, Note_on_c, 0, 71, 96
2, 43647, Note_on_c, 0, 71, 0
2, 43648, Note_on_c, 0, 73, 96
2, 43711, Note_on_c, 0, 73, 0
2, 43712, Note_on_c, 0, 74, 96
2, 43775, Note_on_c, 0, 74, 0
2, 43775, Note_on_c, 0, 52, 0
2, 43775, Note_on_c, 0, 45, 0
2, 43775, Note_on_c, 0, 49, 0
2, 43775, Note_on_c, 0, 57, 0
2, 43776, Note_on_c, 0, 76, 96
2, 43839, Note_on_c, 0, 76, 0
2, 43840, Note_on_c, 0, 73, 96
2, 43903, Note_on_c, 0, 73, 0
2, 43904, Note_on_c, 0, 69, 96
2, 43904, Note_on_c, 0, 59, 96
2, 44032, Note_on_c, 0, 61, 96
2, 44064, Note_on_c, 0, 59, 0
2, 44159, Note_on_c, 0, 61, 0
2, 44160, Note_on_c, 0, 62, 96
2, 44287, Note_on_c, 0, 62, 0
2, 44287, Note_on_c, 0, 69, 0
2, 44288, Note_on_c, 0, 69, 96
2, 44288, Note_on_c, 0, 59, 96
2, 44335, Note_on_c, 0, 69, 0
2, 44336, Note_on_c, 0, 68, 96
2, 44383, Note_on_c, 0, 68, 0
2, 44384, Note_on_c, 0, 69, 96
2, 44416, Note_on_c, 0, 61, 96
2, 44431, Note_on_c, 0, 69, 0
2, 44432, Note_on_c, 0, 68, 96
2, 44448, Note_on_c, 0, 59, 0
2, 44479, Note_on_c, 0, 68, 0
2, 44480, Note_on_c, 0, 69, 96
2, 44527, Note_on_c, 0, 69, 0
2, 44528, Note_on_c, 0, 68, 96
2, 44543, Note_on_c, 0, 61, 0
2, 44544, Note_on_c, 0, 62, 96
2, 44575, Note_on_c, 0, 68, 0
2, 44576, Note_on_c, 0, 66, 96
2, 44623, Note_on_c, 0, 66, 0
2, 44624, Note_on_c, 0, 68, 96
2, 44671, Note_on_c, 0, 68, 0
2, 44671, Note_on_c, 0, 62, 0
2, 44672, Note_on_c, 0, 69, 96
2, 44672, Note_on_c, 0, 45, 96
2, 44672, Note_on_c, 0, 52, 96
2, 44672, Note_on_c, 0, 57, 96
2, 44672, Note_on_c, 0, 61, 96
2, 44799, Note_on_c, 0, 69, 0
2, 44800, Note_on_c, 0, 64, 96
2, 44832, Note_on_c, 0, 61, 0
2, 44927, Note_on_c, 0, 57, 0
2, 44927, Note_on_c, 0, 45, 0
2, 44927, Note_on_c, 0, 52, 0
2, 44927, Note_on_c, 0, 64, 0
2, 44928, Note_on_c, 0, 67, 96
2, 45055, Note_on_c, 0, 67, 0
2, 45056, Note_on_c, 0, 66, 96
2, 45056, Note_on_c, 0, 62, 96
2, 45119, Note_on_c, 0, 66, 0
2, 45120, Note_on_c, 0, 68, 96
2, 45183, Note_on_c, 0, 68, 0
2, 45184, Note_on_c, 0, 69, 96
2, 45216, Note_on_c, 0, 62, 0
2, 45311, Note_on_c, 0, 69, 0
2, 45312, Note_on_c, 0, 66, 96
2, 45439, Note_on_c, 0, 66, 0
2, 45440, Note_on_c, 0, 64, 96
2, 45440, Note_on_c, 0, 61, 96
2, 45567, Note_on_c, 0, 64, 0
2, 45568, Note_on_c, 0, 68, 96
2, 45600, Note_on_c, 0, 61, 0
2, 45695, Note_on_c, 0, 68, 0
2, 45696, Note_on_c, 0, 69, 96
2, 45823, Note_on_c, 0, 69, 0
2, 45824, Note_on_c, 0, 62, 96
2, 45824, Note_on_c, 0, 45, 96
2, 45824, Note_on_c, 0, 56, 96
2, 45824, Note_on_c, 0, 59, 96
2, 45951, Note_on_c, 0, 62, 0
2, 45952, Note_on_c, 0, 64, 96
2, 46015, Note_on_c, 0, 64, 0
2, 46016, Note_on_c, 0, 62, 96
2, 46024, Note_on_c, 0, 59, 0
2, 46024, Note_on_c, 0, 45, 0
2, 46024, Note_on_c, 0, 56, 0
2, 46079, Note_on_c, 0, 62, 0
2, 46080, Note_on_c, 0, 61, 96
2, 46143, Note_on_c, 0, 61, 0
2, 46144, Note_on_c, 0, 62, 96
2, 46207, Note_on_c, 0, 62, 0
2, 46208, Note_on_c, 0, 64, 96
2, 46208, Note_on_c, 0, 61, 96
2, 46271, Note_on_c, 0, 64, 0
2, 46272, Note_on_c, 0, 68, 96
2, 46335, Note_on_c, 0, 68, 0
2, 46336, Note_on_c, 0, 69, 96
2, 46368, Note_on_c, 0, 61, 0
2, 46463, Note_on_c, 0, 69, 0
2, 46464, Note_on_c, 0, 64, 96
2, 46591, Note_on_c, 0, 64, 0
2, 46592, Note_on_c, 0, 62, 96
2, 46592, Note_on_c, 0, 59, 96
2, 46719, Note_on_c, 0, 62, 0
2, 46720, Note_on_c, 0, 68, 96
2, 46752, Note_on_c, 0, 59, 0
2, 46847, Note_on_c, 0, 68, 0
2, 46848, Note_on_c, 0, 69, 96
2, 46975, Note_on_c, 0, 69, 0
2, 46976, Note_on_c, 0, 62, 96
2, 46976, Note_on_c, 0, 57, 96
2, 47040, Note_on_c, 0, 45, 96
2, 47103, Note_on_c, 0, 45, 0
2, 47104, Note_on_c, 0, 47, 96
2, 47167, Note_on_c, 0, 47, 0
2, 47168, Note_on_c, 0, 49, 96
2, 47231, Note_on_c, 0, 49, 0
2, 47232, Note_on_c, 0, 50, 96
2, 47295, Note_on_c, 0, 50, 0
2, 47296, Note_on_c, 0, 52, 96
2, 47356, Note_on_c, 0, 62, 0
2, 47359, Note_on_c, 0, 52, 0
2, 47360, Note_on_c, 0, 61, 96
2, 47360, Note_on_c, 0, 54, 96
2, 47416, Note_on_c, 0, 57, 0
2, 47423, Note_on_c, 0, 54, 0
2, 47424, Note_on_c, 0, 55, 96
2, 47487, Note_on_c, 0, 55, 0
2, 47488, Note_on_c, 0, 57, 96
2, 47550, Note_on_c, 0, 61, 0
2, 47551, Note_on_c, 0, 57, 0
2, 47552, Note_on_c, 0, 59, 96
2, 47615, Note_on_c, 0, 59, 0
2, 47616, Note_on_c, 0, 61, 96
2, 47679, Note_on_c, 0, 61, 0
2, 47680, Note_on_c, 0, 62, 96
2, 47743, Note_on_c, 0, 62, 0
2, 47744, Note_on_c, 0, 64, 96
2, 47807, Note_on_c, 0, 64, 0
2, 47808, Note_on_c, 0, 66, 96
2, 47871, Note_on_c, 0, 66, 0
2, 47872, Note_on_c, 0, 67, 96
2, 47935, Note_on_c, 0, 67, 0
2, 47936, Note_on_c, 0, 69, 96
2, 47999, Note_on_c, 0, 69, 0
2, 48000, Note_on_c, 0, 71, 96
2, 48063, Note_on_c, 0, 71, 0
2, 48064, Note_on_c, 0, 73, 96
2, 48127, Note_on_c, 0, 73, 0
2, 48128, Note_on_c, 0, 74, 96
2, 48128, Note_on_c, 0, 66, 96
2, 48128, Note_on_c, 0, 69, 96
2, 48191, Note_on_c, 0, 74, 0
2, 48192, Note_on_c, 0, 76, 96
2, 48255, Note_on_c, 0, 76, 0
2, 48256, Note_on_c, 0, 78, 96
2, 48319, Note_on_c, 0, 78, 0
2, 48320, Note_on_c, 0, 79, 96
2, 48383, Note_on_c, 0, 79, 0
2, 48383, Note_on_c, 0, 69, 0
2, 48383, Note_on_c, 0, 66, 0
2, 48384, Note_on_c, 0, 81, 96
2, 48447, Note_on_c, 0, 81, 0
2, 48448, Note_on_c, 0, 78, 96
2, 48511, Note_on_c, 0, 78, 0
2, 48512, Note_on_c, 0, 74, 96
2, 48512, Note_on_c, 0, 64, 96
2, 48640, Note_on_c, 0, 66, 96
2, 48672, Note_on_c, 0, 64, 0
2, 48767, Note_on_c, 0, 66, 0
2, 48768, Note_on_c, 0, 67, 96
2, 48892, Note_on_c, 0, 74, 0
2, 48895, Note_on_c, 0, 67, 0
2, 48896, Note_on_c, 0, 74, 96
2, 48896, Note_on_c, 0, 64, 96
2, 48943, Note_on_c, 0, 74, 0
2, 48944, Note_on_c, 0, 73, 96
2, 48991, Note_on_c, 0, 73, 0
2, 48992, Note_on_c, 0, 74, 96
2, 49024, Note_on_c, 0, 66, 96
2, 49039, Note_on_c, 0, 74, 0
2, 49040, Note_on_c, 0, 73, 96
2, 49056, Note_on_c, 0, 64, 0
2, 49087, Note_on_c, 0, 73, 0
2, 49088, Note_on_c, 0, 74, 96
2, 49135, Note_on_c, 0, 74, 0
2, 49136, Note_on_c, 0, 73, 96
2, 49151, Note_on_c, 0, 66, 0
2, 49152, Note_on_c, 0, 67, 96
2, 49183, Note_on_c, 0, 73, 0
2, 49184, Note_on_c, 0, 71, 96
2, 49231, Note_on_c, 0, 71, 0
2, 49232, Note_on_c, 0, 73, 96
2, 49279, Note_on_c, 0, 73, 0
2, 49279, Note_on_c, 0, 67, 0
2, 49280, Note_on_c, 0, 74, 96
2, 49280, Note_on_c, 0, 50, 96
2, 49280, Note_on_c, 0, 57, 96
2, 49280, Note_on_c, 0, 62, 96
2, 49280, Note_on_c, 0, 66, 96
2, 49407, Note_on_c, 0, 74, 0
2, 49408, Note_on_c, 0, 69, 96
2, 49440, Note_on_c, 0, 66, 0
2, 49535, Note_on_c, 0, 62, 0
2, 49535, Note_on_c, 0, 50, 0
2, 49535, Note_on_c, 0, 57, 0
2, 49535, Note_on_c, 0, 69, 0
2, 49536, Note_on_c, 0, 72, 96
2, 49663, Note_on_c, 0, 72, 0
2, 49664, Note_on_c, 0, 71, 96
2, 49664, Note_on_c, 0, 67, 96
2, 49727, Note_on_c, 0, 71, 0
2, 49728, Note_on_c, 0, 73, 96
2, 49791, Note_on_c, 0, 73, 0
2, 49792, Note_on_c, 0, 74, 96
2, 49824, Note_on_c, 0, 67, 0
2, 49919, Note_on_c, 0, 74, 0
2, 49920, Note_on_c, 0, 71, 96
2, 50047, Note_on_c, 0, 71, 0
2, 50048, Note_on_c, 0, 69, 96
2, 50048, Note_on_c, 0, 66, 96
2, 50175, Note_on_c, 0, 69, 0
2, 50176, Note_on_c, 0, 73, 96
2, 50208, Note_on_c, 0, 66, 0
2, 50303, Note_on_c, 0, 73, 0
2, 50304, Note_on_c, 0, 74, 96
2, 50431, Note_on_c, 0, 74, 0
2, 50432, Note_on_c, 0, 67, 96
2, 50432, Note_on_c, 0, 50, 96
2, 50432, Note_on_c, 0, 61, 96
2, 50432, Note_on_c, 0, 64, 96
2, 50559, Note_on_c, 0, 67, 0
2, 50560, Note_on_c, 0, 69, 96
2, 50623, Note_on_c, 0, 69, 0
2, 50624, Note_on_c, 0, 67, 96
2, 50632, Note_on_c, 0, 64, 0
2, 50632, Note_on_c, 0, 50, 0
2, 50632, Note_on_c, 0, 61, 0
2, 50687, Note_on_c, 0, 67, 0
2, 50688, Note_on_c, 0, 66, 96
2, 50751, Note_on_c, 0, 66, 0
2, 50752, Note_on_c, 0, 67, 96
2, 50815, Note_on_c, 0, 67, 0
2, 50816, Note_on_c, 0, 69, 96
2, 50816, Note_on_c, 0, 66, 96
2, 50879, Note_on_c, 0, 69, 0
2, 50880, Note_on_c, 0, 73, 96
2, 50943, Note_on_c, 0, 73, 0
2, 50944, Note_on_c, 0, 74, 96
2, 50976, Note_on_c, 0, 66, 0
2, 51071, Note_on_c, 0, 74, 0
2, 51072, Note_on_c, 0, 69, 96
2, 51199, Note_on_c, 0, 69, 0
2, 51200, Note_on_c, 0, 67, 96
2, 51200, Note_on_c, 0, 64, 96
2, 51327, Note_on_c, 0, 67, 0
2, 51328, Note_on_c, 0, 73, 96
2, 51360, Note_on_c, 0, 64, 0
2, 51455, Note_on_c, 0, 73, 0
2, 51456, Note_on_c, 0, 74, 96
2, 51583, Note_on_c, 0, 74, 0
2, 51584, Note_on_c, 0, 67, 96
2, 51584, Note_on_c, 0, 62, 96
2, 51648, Note_on_c, 0, 38, 96
2, 51711, Note_on_c, 0, 38, 0
2, 51712, Note_on_c, 0, 40, 96
2, 51775, Note_on_c, 0, 40, 0
2, 51776, Note_on_c, 0, 42, 96
2, 51839, Note_on_c, 0, 42, 0
2, 51840, Note_on_c, 0, 43, 96
2, 51903, Note_on_c, 0, 43, 0
2, 51904, Note_on_c, 0, 45, 96
2, 51967, Note_on_c, 0, 45, 0
2, 51967, Note_on_c, 0, 67, 0
2, 51968, Note_on_c, 0, 66, 96
2, 51968, Note_on_c, 0, 47, 96
2, 52031, Note_on_c, 0, 47, 0
2, 52032, Note_on_c, 0, 49, 96
2, 52095, Note_on_c, 0, 49, 0
2, 52096, Note_on_c, 0, 50, 96
2, 52159, Note_on_c, 0, 50, 0
2, 52160, Note_on_c, 0, 52, 96
2, 52223, Note_on_c, 0, 52, 0
2, 52224, Note_on_c, 0, 54, 96
2, 52287, Note_on_c, 0, 54, 0
2, 52288, Note_on_c, 0, 55, 96
2, 52348, Note_on_c, 0, 66, 0
2, 52351, Note_on_c, 0, 55, 0
2, 52351, Note_on_c, 0, 62, 0
2, 52352, Note_on_c, 0, 57, 96
2, 52415, Note_on_c, 0, 57, 0
2, 52416, Note_on_c, 0, 59, 96
2, 52479, Note_on_c, 0, 59, 0
2, 52480, Note_on_c, 0, 60, 96
2, 52543, Note_on_c, 0, 60, 0
2, 52544, Note_on_c, 0, 62, 96
2, 52607, Note_on_c, 0, 62, 0
2, 52608, Note_on_c, 0, 64, 96
2, 52671, Note_on_c, 0, 64, 0
2, 52672, Note_on_c, 0, 66, 96
2, 52735, Note_on_c, 0, 66, 0
2, 52736, Note_on_c, 0, 67, 96
2, 52736, Note_on_c, 0, 59, 96
2, 52736, Note_on_c, 0, 62, 96
2, 52799, Note_on_c, 0, 67, 0
2, 52800, Note_on_c, 0, 66, 96
2, 52863, Note_on_c, 0, 66, 0
2, 52864, Note_on_c, 0, 67, 96
2, 52991, Note_on_c, 0, 67, 0
2, 52991, Note_on_c, 0, 62, 0
2, 52991, Note_on_c, 0, 59, 0
2, 52992, Note_on_c, 0, 74, 96
2, 53120, Note_on_c, 0, 47, 96
2, 53212, Note_on_c, 0, 74, 0
2, 53248, Note_on_c, 0, 73, 96
2, 53280, Note_on_c, 0, 47, 0
2, 53375, Note_on_c, 0, 73, 0
2, 53376, Note_on_c, 0, 71, 96
2, 53504, Note_on_c, 0, 59, 96
2, 53504, Note_on_c, 0, 62, 96
2, 53616, Note_on_c, 0, 71, 0
2, 53632, Note_on_c, 0, 69, 96
2, 53664, Note_on_c, 0, 62, 0
2, 53664, Note_on_c, 0, 59, 0
2, 53759, Note_on_c, 0, 69, 0
2, 53760, Note_on_c, 0, 67, 96
2, 53887, Note_on_c, 0, 67, 0
2, 53888, Note_on_c, 0, 66, 96
2, 53888, Note_on_c, 0, 59, 96
2, 53888, Note_on_c, 0, 61, 96
2, 54015, Note_on_c, 0, 66, 0
2, 54016, Note_on_c, 0, 65, 96
2, 54138, Note_on_c, 0, 61, 0
2, 54138, Note_on_c, 0, 59, 0
2, 54143, Note_on_c, 0, 65, 0
2, 54144, Note_on_c, 0, 73, 96
2, 54272, Note_on_c, 0, 45, 96
2, 54364, Note_on_c, 0, 73, 0
2, 54400, Note_on_c, 0, 71, 96
2, 54432, Note_on_c, 0, 45, 0
2, 54527, Note_on_c, 0, 71, 0
2, 54528, Note_on_c, 0, 69, 96
2, 54656, Note_on_c, 0, 61, 96
2, 54656, Note_on_c, 0, 57, 96
2, 54773, Note_on_c, 0, 69, 0
2, 54784, Note_on_c, 0, 67, 96
2, 54816, Note_on_c, 0, 57, 0
2, 54816, Note_on_c, 0, 61, 0
2, 54911, Note_on_c, 0, 67, 0
2, 54912, Note_on_c, 0, 66, 96
2, 55039, Note_on_c, 0, 66, 0
2, 55040, Note_on_c, 0, 64, 96
2, 55040, Note_on_c, 0, 57, 96
2, 55040, Note_on_c, 0, 59, 96
2, 55167, Note_on_c, 0, 64, 0
2, 55168, Note_on_c, 0, 63, 96
2, 55295, Note_on_c, 0, 63, 0
2, 55295, Note_on_c, 0, 59, 0
2, 55295, Note_on_c, 0, 57, 0
2, 55296, Note_on_c, 0, 71, 96
2, 55424, Note_on_c, 0, 43, 96
2, 55526, Note_on_c, 0, 71, 0
2, 55552, Note_on_c, 0, 69, 96
2, 55584, Note_on_c, 0, 43, 0
2, 55679, Note_on_c, 0, 69, 0
2, 55680, Note_on_c, 0, 67, 96
2, 55808, Note_on_c, 0, 59, 96
2, 55808, Note_on_c, 0, 55, 96
2, 55925, Note_on_c, 0, 67, 0
2, 55936, Note_on_c, 0, 66, 96
2, 55968, Note_on_c, 0, 55, 0
2, 55968, Note_on_c, 0, 59, 0
2, 56063, Note_on_c, 0, 66, 0
2, 56064, Note_on_c, 0, 64, 96
2, 56191, Note_on_c, 0, 64, 0
2, 56192, Note_on_c, 0, 73, 96
2, 56192, Note_on_c, 0, 57, 96
2, 56192, Note_on_c, 0, 55, 96
2, 56320, Note_on_c, 0, 64, 96
2, 56352, Note_on_c, 0, 55, 0
2, 56447, Note_on_c, 0, 73, 0
2, 56447, Note_on_c, 0, 57, 0
2, 56447, Note_on_c, 0, 64, 0
2, 56448, Note_on_c, 0, 69, 96
2, 56448, Note_on_c, 0, 61, 96
2, 56575, Note_on_c, 0, 61, 0
2, 56575, Note_on_c, 0, 69, 0
2, 56576, Note_on_c, 0, 74, 96
2, 56576, Note_on_c, 0, 54, 96
2, 56576, Note_on_c, 0, 57, 96
2, 56704, Note_on_c, 0, 66, 96
2, 56736, Note_on_c, 0, 54, 0
2, 56831, Note_on_c, 0, 74, 0
2, 56831, Note_on_c, 0, 57, 0
2, 56831, Note_on_c, 0, 66, 0
2, 56832, Note_on_c, 0, 69, 96
2, 56832, Note_on_c, 0, 62, 96
2, 56959, Note_on_c, 0, 62, 0
2, 56959, Note_on_c, 0, 69, 0
2, 56960, Note_on_c, 0, 76, 96
2, 56960, Note_on_c, 0, 55, 96
2, 56960, Note_on_c, 0, 52, 96
2, 57088, Note_on_c, 0, 67, 96
2, 57120, Note_on_c, 0, 52, 0
2, 57215, Note_on_c, 0, 76, 0
2, 57215, Note_on_c, 0, 55, 0
2, 57215, Note_on_c, 0, 67, 0
2, 57216, Note_on_c, 0, 69, 96
2, 57216, Note_on_c, 0, 61, 96
2, 57343, Note_on_c, 0, 61, 0
2, 57343, Note_on_c, 0, 69, 0
2, 57344, Note_on_c, 0, 78, 96
2, 57344, Note_on_c, 0, 62, 96
2, 57344, Note_on_c, 0, 50, 96
2, 57408, Note_on_c, 0, 69, 96
2, 57471, Note_on_c, 0, 69, 0
2, 57472, Note_on_c, 0, 74, 96
2, 57532, Note_on_c, 0, 78, 0
2, 57535, Note_on_c, 0, 74, 0
2, 57536, Note_on_c, 0, 78, 96
2, 57599, Note_on_c, 0, 78, 0
2, 57599, Note_on_c, 0, 50, 0
2, 57599, Note_on_c, 0, 62, 0
2, 57600, Note_on_c, 0, 74, 96
2, 57663, Note_on_c, 0, 74, 0
2, 57664, Note_on_c, 0, 69, 96
2, 57727, Note_on_c, 0, 69, 0
2, 57728, Note_on_c, 0, 68, 96
2, 57792, Note_on_c, 0, 71, 96
2, 57855, Note_on_c, 0, 71, 0
2, 57856, Note_on_c, 0, 74, 96
2, 57919, Note_on_c, 0, 74, 0
2, 57920, Note_on_c, 0, 78, 96
2, 57948, Note_on_c, 0, 68, 0
2, 57983, Note_on_c, 0, 78, 0
2, 57984, Note_on_c, 0, 74, 96
2, 58047, Note_on_c, 0, 74, 0
2, 58048, Note_on_c, 0, 71, 96
2, 58111, Note_on_c, 0, 71, 0
2, 58112, Note_on_c, 0, 61, 96
2, 58112, Note_on_c, 0, 70, 96
2, 58176, Note_on_c, 0, 73, 96
2, 58239, Note_on_c, 0, 73, 0
2, 58240, Note_on_c, 0, 76, 96
2, 58272, Note_on_c, 0, 61, 0
2, 58303, Note_on_c, 0, 76, 0
2, 58304, Note_on_c, 0, 78, 96
2, 58332, Note_on_c, 0, 70, 0
2, 58367, Note_on_c, 0, 78, 0
2, 58368, Note_on_c, 0, 76, 96
2, 58431, Note_on_c, 0, 76, 0
2, 58432, Note_on_c, 0, 73, 96
2, 58495, Note_on_c, 0, 73, 0
2, 58496, Note_on_c, 0, 74, 96
2, 58496, Note_on_c, 0, 59, 96
2, 58496, Note_on_c, 0, 71, 96
2, 58622, Note_on_c, 0, 71, 0
2, 58623, Note_on_c, 0, 74, 0
2, 58624, Note_on_c, 0, 71, 96
2, 58656, Note_on_c, 0, 59, 0
2, 58752, Note_on_c, 0, 74, 96
2, 58879, Note_on_c, 0, 74, 0
2, 58879, Note_on_c, 0, 71, 0
2, 58880, Note_on_c, 0, 79, 96
2, 58880, Note_on_c, 0, 64, 96
2, 59008, Note_on_c, 0, 71, 96
2, 59040, Note_on_c, 0, 64, 0
2, 59040, Note_on_c, 0, 79, 0
2, 59135, Note_on_c, 0, 71, 0
2, 59136, Note_on_c, 0, 74, 96
2, 59263, Note_on_c, 0, 74, 0
2, 59264, Note_on_c, 0, 81, 96
2, 59264, Note_on_c, 0, 57, 96
2, 59264, Note_on_c, 0, 66, 96
2, 59392, Note_on_c, 0, 72, 96
2, 59424, Note_on_c, 0, 66, 0
2, 59424, Note_on_c, 0, 81, 0
2, 59424, Note_on_c, 0, 57, 0
2, 59519, Note_on_c, 0, 72, 0
2, 59520, Note_on_c, 0, 74, 96
2, 59647, Note_on_c, 0, 74, 0
2, 59648, Note_on_c, 0, 83, 96
2, 59648, Note_on_c, 0, 55, 96
2, 59648, Note_on_c, 0, 67, 96
2, 59712, Note_on_c, 0, 74, 96
2, 59768, Note_on_c, 0, 83, 0
2, 59775, Note_on_c, 0, 74, 0
2, 59776, Note_on_c, 0, 79, 96
2, 59808, Note_on_c, 0, 67, 0
2, 59808, Note_on_c, 0, 55, 0
2, 59839, Note_on_c, 0, 79, 0
2, 59840, Note_on_c, 0, 83, 96
2, 59903, Note_on_c, 0, 83, 0
2, 59904, Note_on_c, 0, 79, 96
2, 59967, Note_on_c, 0, 79, 0
2, 59968, Note_on_c, 0, 74, 96
2, 60031, Note_on_c, 0, 74, 0
2, 60032, Note_on_c, 0, 73, 96
2, 60096, Note_on_c, 0, 76, 96
2, 60159, Note_on_c, 0, 76, 0
2, 60160, Note_on_c, 0, 79, 96
2, 60192, Note_on_c, 0, 73, 0
2, 60223, Note_on_c, 0, 79, 0
2, 60224, Note_on_c, 0, 83, 96
2, 60287, Note_on_c, 0, 83, 0
2, 60288, Note_on_c, 0, 79, 96
2, 60351, Note_on_c, 0, 79, 0
2, 60352, Note_on_c, 0, 76, 96
2, 60415, Note_on_c, 0, 76, 0
2, 60416, Note_on_c, 0, 66, 96
2, 60416, Note_on_c, 0, 75, 96
2, 60480, Note_on_c, 0, 78, 96
2, 60543, Note_on_c, 0, 78, 0
2, 60544, Note_on_c, 0, 81, 96
2, 60576, Note_on_c, 0, 75, 0
2, 60576, Note_on_c, 0, 66, 0
2, 60607, Note_on_c, 0, 81, 0
2, 60608, Note_on_c, 0, 83, 96
2, 60671, Note_on_c, 0, 83, 0
2, 60672, Note_on_c, 0, 81, 96
2, 60735, Note_on_c, 0, 81, 0
2, 60736, Note_on_c, 0, 78, 96
2, 60799, Note_on_c, 0, 78, 0
2, 60800, Note_on_c, 0, 79, 96
2, 60800, Note_on_c, 0, 64, 96
2, 60863, Note_on_c, 0, 79, 0
2, 60864, Note_on_c, 0, 78, 96
2, 60927, Note_on_c, 0, 78, 0
2, 60927, Note_on_c, 0, 64, 0
2, 60928, Note_on_c, 0, 76, 96
2, 60928, Note_on_c, 0, 55, 96
2, 60991, Note_on_c, 0, 76, 0
2, 60992, Note_on_c, 0, 75, 96
2, 61055, Note_on_c, 0, 75, 0
2, 61055, Note_on_c, 0, 55, 0
2, 61056, Note_on_c, 0, 76, 96
2, 61056, Note_on_c, 0, 59, 96
2, 61119, Note_on_c, 0, 76, 0
2, 61120, Note_on_c, 0, 79, 96
2, 61183, Note_on_c, 0, 79, 0
2, 61183, Note_on_c, 0, 59, 0
2, 61184, Note_on_c, 0, 69, 96
2, 61184, Note_on_c, 0, 60, 96
2, 61248, Note_on_c, 0, 78, 96
2, 61304, Note_on_c, 0, 69, 0
2, 61311, Note_on_c, 0, 78, 0
2, 61311, Note_on_c, 0, 60, 0
2, 61312, Note_on_c, 0, 76, 96
2, 61312, Note_on_c, 0, 54, 96
2, 61375, Note_on_c, 0, 76, 0
2, 61376, Note_on_c, 0, 75, 96
2, 61439, Note_on_c, 0, 75, 0
2, 61439, Note_on_c, 0, 54, 0
2, 61440, Note_on_c, 0, 76, 96
2, 61440, Note_on_c, 0, 57, 96
2, 61503, Note_on_c, 0, 76, 0
2, 61504, Note_on_c, 0, 79, 96
2, 61567, Note_on_c, 0, 79, 0
2, 61567, Note_on_c, 0, 57, 0
2, 61568, Note_on_c, 0, 67, 96
2, 61568, Note_on_c, 0, 59, 96
2, 61632, Note_on_c, 0, 78, 96
2, 61688, Note_on_c, 0, 67, 0
2, 61695, Note_on_c, 0, 78, 0
2, 61695, Note_on_c, 0, 59, 0
2, 61696, Note_on_c, 0, 76, 96
2, 61696, Note_on_c, 0, 52, 96
2, 61759, Note_on_c, 0, 76, 0
2, 61760, Note_on_c, 0, 75, 96
2, 61823, Note_on_c, 0, 75, 0
2, 61823, Note_on_c, 0, 52, 0
2, 61824, Note_on_c, 0, 76, 96
2, 61824, Note_on_c, 0, 55, 96
2, 61887, Note_on_c, 0, 76, 0
2, 61888, Note_on_c, 0, 79, 96
2, 61951, Note_on_c, 0, 79, 0
2, 61951, Note_on_c, 0, 55, 0
2, 61952, Note_on_c, 0, 72, 96
2, 61952, Note_on_c, 0, 57, 96
2, 62015, Note_on_c, 0, 72, 0
2, 62016, Note_on_c, 0, 78, 96
2, 62079, Note_on_c, 0, 78, 0
2, 62079, Note_on_c, 0, 57, 0
2, 62080, Note_on_c, 0, 81, 96
2, 62080, Note_on_c, 0, 59, 96
2, 62143, Note_on_c, 0, 59, 0
2, 62144, Note_on_c, 0, 57, 96
2, 62207, Note_on_c, 0, 57, 0
2, 62208, Note_on_c, 0, 55, 96
2, 62271, Note_on_c, 0, 55, 0
2, 62272, Note_on_c, 0, 54, 96
2, 62335, Note_on_c, 0, 54, 0
2, 62336, Note_on_c, 0, 59, 96
2, 62400, Note_on_c, 0, 81, 0
2, 62463, Note_on_c, 0, 59, 0
2, 62464, Note_on_c, 0, 79, 96
2, 62464, Note_on_c, 0, 52, 96
2, 62527, Note_on_c, 0, 79, 0
2, 62528, Note_on_c, 0, 78, 96
2, 62591, Note_on_c, 0, 78, 0
2, 62591, Note_on_c, 0, 52, 0
2, 62592, Note_on_c, 0, 76, 96
2, 62592, Note_on_c, 0, 55, 96
2, 62655, Note_on_c, 0, 76, 0
2, 62656, Note_on_c, 0, 74, 96
2, 62719, Note_on_c, 0, 74, 0
2, 62719, Note_on_c, 0, 55, 0
2, 62720, Note_on_c, 0, 72, 96
2, 62720, Note_on_c, 0, 57, 96
2, 62783, Note_on_c, 0, 72, 0
2, 62784, Note_on_c, 0, 75, 96
2, 62847, Note_on_c, 0, 75, 0
2, 62847, Note_on_c, 0, 57, 0
2, 62848, Note_on_c, 0, 78, 96
2, 62848, Note_on_c, 0, 51, 96
2, 62975, Note_on_c, 0, 51, 0
2, 62976, Note_on_c, 0, 54, 96
2, 63103, Note_on_c, 0, 54, 0
2, 63104, Note_on_c, 0, 55, 96
2, 63167, Note_on_c, 0, 55, 0
2, 63168, Note_on_c, 0, 78, 0
2, 63168, Note_on_c, 0, 54, 96
2, 63231, Note_on_c, 0, 54, 0
2, 63232, Note_on_c, 0, 67, 96
2, 63232, Note_on_c, 0, 52, 96
2, 63295, Note_on_c, 0, 52, 0
2, 63296, Note_on_c, 0, 51, 96
2, 63359, Note_on_c, 0, 51, 0
2, 63359, Note_on_c, 0, 67, 0
2, 63360, Note_on_c, 0, 71, 96
2, 63360, Note_on_c, 0, 52, 96
2, 63423, Note_on_c, 0, 52, 0
2, 63424, Note_on_c, 0, 55, 96
2, 63487, Note_on_c, 0, 55, 0
2, 63487, Note_on_c, 0, 71, 0
2, 63488, Note_on_c, 0, 72, 96
2, 63488, Note_on_c, 0, 45, 96
2, 63551, Note_on_c, 0, 45, 0
2, 63552, Note_on_c, 0, 54, 96
2, 63615, Note_on_c, 0, 54, 0
2, 63616, Note_on_c, 0, 66, 96
2, 63616, Note_on_c, 0, 52, 96
2, 63628, Note_on_c, 0, 72, 0
2, 63679, Note_on_c, 0, 52, 0
2, 63680, Note_on_c, 0, 50, 96
2, 63736, Note_on_c, 0, 66, 0
2, 63743, Note_on_c, 0, 50, 0
2, 63744, Note_on_c, 0, 69, 96
2, 63744, Note_on_c, 0, 52, 96
2, 63807, Note_on_c, 0, 52, 0
2, 63808, Note_on_c, 0, 54, 96
2, 63864, Note_on_c, 0, 69, 0
2, 63871, Note_on_c, 0, 54, 0
2, 63872, Note_on_c, 0, 71, 96
2, 63872, Note_on_c, 0, 43, 96
2, 63935, Note_on_c, 0, 43, 0
2, 63936, Note_on_c, 0, 54, 96
2, 63999, Note_on_c, 0, 54, 0
2, 64000, Note_on_c, 0, 64, 96
2, 64000, Note_on_c, 0, 52, 96
2, 64012, Note_on_c, 0, 71, 0
2, 64063, Note_on_c, 0, 52, 0
2, 64064, Note_on_c, 0, 51, 96
2, 64120, Note_on_c, 0, 64, 0
2, 64127, Note_on_c, 0, 51, 0
2, 64128, Note_on_c, 0, 67, 96
2, 64128, Note_on_c, 0, 52, 96
2, 64191, Note_on_c, 0, 52, 0
2, 64192, Note_on_c, 0, 55, 96
2, 64248, Note_on_c, 0, 67, 0
2, 64255, Note_on_c, 0, 55, 0
2, 64256, Note_on_c, 0, 69, 96
2, 64256, Note_on_c, 0, 48, 96
2, 64319, Note_on_c, 0, 48, 0
2, 64320, Note_on_c, 0, 52, 96
2, 64383, Note_on_c, 0, 52, 0
2, 64383, Note_on_c, 0, 69, 0
2, 64384, Note_on_c, 0, 71, 96
2, 64384, Note_on_c, 0, 57, 96
2, 64447, Note_on_c, 0, 71, 0
2, 64448, Note_on_c, 0, 69, 96
2, 64511, Note_on_c, 0, 69, 0
2, 64512, Note_on_c, 0, 67, 96
2, 64575, Note_on_c, 0, 67, 0
2, 64576, Note_on_c, 0, 66, 96
2, 64624, Note_on_c, 0, 57, 0
2, 64639, Note_on_c, 0, 66, 0
2, 64640, Note_on_c, 0, 71, 96
2, 64768, Note_on_c, 0, 64, 96
2, 64768, Note_on_c, 0, 55, 96
2, 64780, Note_on_c, 0, 71, 0
2, 64831, Note_on_c, 0, 55, 0
2, 64832, Note_on_c, 0, 54, 96
2, 64888, Note_on_c, 0, 64, 0
2, 64895, Note_on_c, 0, 54, 0
2, 64896, Note_on_c, 0, 67, 96
2, 64896, Note_on_c, 0, 52, 96
2, 64959, Note_on_c, 0, 52, 0
2, 64960, Note_on_c, 0, 50, 96
2, 65016, Note_on_c, 0, 67, 0
2, 65023, Note_on_c, 0, 50, 0
2, 65024, Note_on_c, 0, 69, 96
2, 65024, Note_on_c, 0, 48, 96
2, 65087, Note_on_c, 0, 48, 0
2, 65088, Note_on_c, 0, 51, 96
2, 65151, Note_on_c, 0, 51, 0
2, 65152, Note_on_c, 0, 63, 96
2, 65152, Note_on_c, 0, 54, 96
2, 65164, Note_on_c, 0, 69, 0
2, 65272, Note_on_c, 0, 63, 0
2, 65280, Note_on_c, 0, 66, 96
2, 65392, Note_on_c, 0, 54, 0
2, 65400, Note_on_c, 0, 66, 0
2, 65408, Note_on_c, 0, 67, 96
2, 65471, Note_on_c, 0, 67, 0
2, 65472, Note_on_c, 0, 64, 96
2, 65535, Note_on_c, 0, 64, 0
2, 65536, Note_on_c, 0, 66, 96
2, 65599, Note_on_c, 0, 66, 0
2, 65600, Note_on_c, 0, 67, 96
2, 65600, Note_on_c, 0, 52, 96
2, 65663, Note_on_c, 0, 52, 0
2, 65663, Note_on_c, 0, 67, 0
2, 65664, Note_on_c, 0, 69, 96
2, 65664, Note_on_c, 0, 54, 96
2, 65727, Note_on_c, 0, 54, 0
2, 65727, Note_on_c, 0, 69, 0
2, 65728, Note_on_c, 0, 71, 96
2, 65728, Note_on_c, 0, 55, 96
2, 65791, Note_on_c, 0, 55, 0
2, 65791, Note_on_c, 0, 71, 0
2, 65792, Note_on_c, 0, 72, 96
2, 65792, Note_on_c, 0, 57, 96
2, 65855, Note_on_c, 0, 57, 0
2, 65855, Note_on_c, 0, 72, 0
2, 65856, Note_on_c, 0, 69, 96
2, 65856, Note_on_c, 0, 59, 96
2, 65919, Note_on_c, 0, 59, 0
2, 65919, Note_on_c, 0, 69, 0
2, 65920, Note_on_c, 0, 71, 96
2, 65920, Note_on_c, 0, 57, 96
2, 65983, Note_on_c, 0, 57, 0
2, 65983, Note_on_c, 0, 71, 0
2, 65984, Note_on_c, 0, 73, 96
2, 65984, Note_on_c, 0, 55, 96
2, 66047, Note_on_c, 0, 55, 0
2, 66047, Note_on_c, 0, 73, 0
2, 66048, Note_on_c, 0, 75, 96
2, 66048, Note_on_c, 0, 54, 96
2, 66111, Note_on_c, 0, 54, 0
2, 66111, Note_on_c, 0, 75, 0
2, 66112, Note_on_c, 0, 76, 96
2, 66112, Note_on_c, 0, 52, 96
2, 66175, Note_on_c, 0, 52, 0
2, 66175, Note_on_c, 0, 76, 0
2, 66176, Note_on_c, 0, 78, 96
2, 66176, Note_on_c, 0, 51, 96
2, 66239, Note_on_c, 0, 51, 0
2, 66239, Note_on_c, 0, 78, 0
2, 66240, Note_on_c, 0, 75, 96
2, 66240, Note_on_c, 0, 47, 96
2, 66303, Note_on_c, 0, 47, 0
2, 66303, Note_on_c, 0, 75, 0
2, 66304, Note_on_c, 0, 76, 96
2, 66304, Note_on_c, 0, 49, 96
2, 66367, Note_on_c, 0, 49, 0
2, 66367, Note_on_c, 0, 76, 0
2, 66368, Note_on_c, 0, 78, 96
2, 66368, Note_on_c, 0, 51, 96
2, 66431, Note_on_c, 0, 51, 0
2, 66431, Note_on_c, 0, 78, 0
2, 66432, Note_on_c, 0, 79, 96
2, 66432, Note_on_c, 0, 52, 96
2, 66495, Note_on_c, 0, 52, 0
2, 66495, Note_on_c, 0, 79, 0
2, 66496, Note_on_c, 0, 81, 96
2, 66496, Note_on_c, 0, 54, 96
2, 66559, Note_on_c, 0, 54, 0
2, 66559, Note_on_c, 0, 81, 0
2, 66560, Note_on_c, 0, 83, 96
2, 66560, Note_on_c, 0, 55, 96
2, 66623, Note_on_c, 0, 55, 0
2, 66623, Note_on_c, 0, 83, 0
2, 66624, Note_on_c, 0, 81, 96
2, 66624, Note_on_c, 0, 52, 96
2, 66687, Note_on_c, 0, 52, 0
2, 66687, Note_on_c, 0, 81, 0
2, 66688, Note_on_c, 0, 79, 96
2, 66688, Note_on_c, 0, 54, 96
2, 66751, Note_on_c, 0, 54, 0
2, 66751, Note_on_c, 0, 79, 0
2, 66752, Note_on_c, 0, 78, 96
2, 66752, Note_on_c, 0, 55, 96
2, 66815, Note_on_c, 0, 55, 0
2, 66815, Note_on_c, 0, 78, 0
2, 66816, Note_on_c, 0, 76, 96
2, 66816, Note_on_c, 0, 57, 96
2, 66879, Note_on_c, 0, 57, 0
2, 66879, Note_on_c, 0, 76, 0
2, 66880, Note_on_c, 0, 75, 96
2, 66880, Note_on_c, 0, 59, 96
2, 66943, Note_on_c, 0, 59, 0
2, 66943, Note_on_c, 0, 75, 0
2, 66944, Note_on_c, 0, 76, 96
2, 66944, Note_on_c, 0, 60, 96
2, 67007, Note_on_c, 0, 60, 0
2, 67008, Note_on_c, 0, 62, 96
2, 67071, Note_on_c, 0, 62, 0
2, 67071, Note_on_c, 0, 76, 0
2, 67072, Note_on_c, 0, 78, 96
2, 67072, Note_on_c, 0, 60, 96
2, 67135, Note_on_c, 0, 60, 0
2, 67135, Note_on_c, 0, 78, 0
2, 67136, Note_on_c, 0, 79, 96
2, 67136, Note_on_c, 0, 59, 96
2, 67199, Note_on_c, 0, 59, 0
2, 67199, Note_on_c, 0, 79, 0
2, 67200, Note_on_c, 0, 81, 96
2, 67200, Note_on_c, 0, 60, 96
2, 67263, Note_on_c, 0, 60, 0
2, 67263, Note_on_c, 0, 81, 0
2, 67264, Note_on_c, 0, 78, 96
2, 67264, Note_on_c, 0, 57, 96
2, 67327, Note_on_c, 0, 57, 0
2, 67327, Note_on_c, 0, 78, 0
2, 67328, Note_on_c, 0, 76, 96
2, 67328, Note_on_c, 0, 59, 96
2, 67392, Note_on_c, 0, 76, 0
2, 67392, Note_on_c, 0, 75, 96
2, 67424, Note_on_c, 0, 76, 96
2, 67432, Note_on_c, 0, 75, 0
2, 67456, Note_on_c, 0, 75, 96
2, 67464, Note_on_c, 0, 76, 0
2, 67583, Note_on_c, 0, 75, 0
2, 67583, Note_on_c, 0, 59, 0
2, 67584, Note_on_c, 0, 76, 96
2, 67584, Note_on_c, 0, 47, 96
2, 67711, Note_on_c, 0, 47, 0
2, 67711, Note_on_c, 0, 76, 0
2, 67712, Note_on_c, 0, 76, 96
2, 67712, Note_on_c, 0, 40, 96
2, 67775, Note_on_c, 0, 76, 0
2, 67776, Note_on_c, 0, 74, 96
2, 67839, Note_on_c, 0, 74, 0
2, 67840, Note_on_c, 0, 72, 96
2, 67903, Note_on_c, 0, 72, 0
2, 67904, Note_on_c, 0, 71, 96
2, 67967, Note_on_c, 0, 71, 0
2, 67968, Note_on_c, 0, 69, 96
2, 68031, Note_on_c, 0, 69, 0
2, 68032, Note_on_c, 0, 67, 96
2, 68092, Note_on_c, 0, 40, 0
2, 68095, Note_on_c, 0, 67, 0
2, 68096, Note_on_c, 0, 66, 96
2, 68159, Note_on_c, 0, 66, 0
2, 68160, Note_on_c, 0, 64, 96
2, 68223, Note_on_c, 0, 64, 0
2, 68224, Note_on_c, 0, 63, 96
2, 68287, Note_on_c, 0, 63, 0
2, 68288, Note_on_c, 0, 61, 96
2, 68351, Note_on_c, 0, 61, 0
2, 68352, Note_on_c, 0, 59, 96
2, 68415, Note_on_c, 0, 59, 0
2, 68416, Note_on_c, 0, 57, 96
2, 68479, Note_on_c, 0, 57, 0
2, 68480, Note_on_c, 0, 55, 96
2, 68543, Note_on_c, 0, 55, 0
2, 68544, Note_on_c, 0, 54, 96
2, 68607, Note_on_c, 0, 54, 0
2, 68608, Note_on_c, 0, 52, 96
2, 68671, Note_on_c, 0, 52, 0
2, 68672, Note_on_c, 0, 50, 96
2, 68735, Note_on_c, 0, 50, 0
2, 68736, Note_on_c, 0, 79, 96
2, 68736, Note_on_c, 0, 49, 96
2, 68799, Note_on_c, 0, 49, 0
2, 68800, Note_on_c, 0, 47, 96
2, 68863, Note_on_c, 0, 47, 0
2, 68864, Note_on_c, 0, 45, 96
2, 68991, Note_on_c, 0, 45, 0
2, 68992, Note_on_c, 0, 49, 96
2, 68992, Note_on_c, 0, 69, 96
2, 69055, Note_on_c, 0, 69, 0
2, 69056, Note_on_c, 0, 71, 96
2, 69119, Note_on_c, 0, 71, 0
2, 69119, Note_on_c, 0, 49, 0
2, 69120, Note_on_c, 0, 52, 96
2, 69120, Note_on_c, 0, 73, 96
2, 69183, Note_on_c, 0, 73, 0
2, 69184, Note_on_c, 0, 74, 96
2, 69247, Note_on_c, 0, 74, 0
2, 69247, Note_on_c, 0, 52, 0
2, 69248, Note_on_c, 0, 57, 96
2, 69248, Note_on_c, 0, 76, 96
2, 69311, Note_on_c, 0, 76, 0
2, 69312, Note_on_c, 0, 78, 96
2, 69375, Note_on_c, 0, 78, 0
2, 69375, Note_on_c, 0, 57, 0
2, 69376, Note_on_c, 0, 52, 96
2, 69376, Note_on_c, 0, 76, 96
2, 69439, Note_on_c, 0, 76, 0
2, 69440, Note_on_c, 0, 74, 96
2, 69503, Note_on_c, 0, 74, 0
2, 69503, Note_on_c, 0, 52, 0
2, 69504, Note_on_c, 0, 57, 96
2, 69504, Note_on_c, 0, 73, 96
2, 69567, Note_on_c, 0, 73, 0
2, 69568, Note_on_c, 0, 71, 96
2, 69631, Note_on_c, 0, 71, 0
2, 69631, Note_on_c, 0, 57, 0
2, 69632, Note_on_c, 0, 61, 96
2, 69632, Note_on_c, 0, 69, 96
2, 69759, Note_on_c, 0, 61, 0
2, 69759, Note_on_c, 0, 79, 0
2, 69760, Note_on_c, 0, 76, 96
2, 69760, Note_on_c, 0, 62, 96
2, 69823, Note_on_c, 0, 62, 0
2, 69824, Note_on_c, 0, 61, 96
2, 69887, Note_on_c, 0, 61, 0
2, 69887, Note_on_c, 0, 76, 0
2, 69888, Note_on_c, 0, 79, 96
2, 69888, Note_on_c, 0, 59, 96
2, 69951, Note_on_c, 0, 59, 0
2, 69952, Note_on_c, 0, 57, 96
2, 70015, Note_on_c, 0, 57, 0
2, 70015, Note_on_c, 0, 79, 0
2, 70016, Note_on_c, 0, 78, 96
2, 70016, Note_on_c, 0, 62, 96
2, 70079, Note_on_c, 0, 78, 0
2, 70080, Note_on_c, 0, 76, 96
2, 70143, Note_on_c, 0, 76, 0
2, 70143, Note_on_c, 0, 62, 0
2, 70144, Note_on_c, 0, 74, 96
2, 70144, Note_on_c, 0, 57, 96
2, 70207, Note_on_c, 0, 74, 0
2, 70208, Note_on_c, 0, 76, 96
2, 70271, Note_on_c, 0, 76, 0
2, 70271, Note_on_c, 0, 57, 0
2, 70272, Note_on_c, 0, 78, 96
2, 70272, Note_on_c, 0, 62, 96
2, 70335, Note_on_c, 0, 78, 0
2, 70336, Note_on_c, 0, 79, 96
2, 70399, Note_on_c, 0, 79, 0
2, 70399, Note_on_c, 0, 62, 0
2, 70399, Note_on_c, 0, 69, 0
2, 70400, Note_on_c, 0, 81, 96
2, 70400, Note_on_c, 0, 66, 96
2, 70464, Note_on_c, 0, 79, 96
2, 70490, Note_on_c, 0, 81, 0
2, 70527, Note_on_c, 0, 79, 0
2, 70527, Note_on_c, 0, 66, 0
2, 70528, Note_on_c, 0, 78, 96
2, 70528, Note_on_c, 0, 62, 96
2, 70591, Note_on_c, 0, 78, 0
2, 70592, Note_on_c, 0, 79, 96
2, 70655, Note_on_c, 0, 79, 0
2, 70655, Note_on_c, 0, 62, 0
2, 70656, Note_on_c, 0, 81, 96
2, 70656, Note_on_c, 0, 66, 96
2, 70719, Note_on_c, 0, 81, 0
2, 70720, Note_on_c, 0, 83, 96
2, 70783, Note_on_c, 0, 83, 0
2, 70783, Note_on_c, 0, 66, 0
2, 70784, Note_on_c, 0, 84, 96
2, 70784, Note_on_c, 0, 69, 96
2, 70848, Note_on_c, 0, 81, 96
2, 70909, Note_on_c, 0, 84, 0
2, 70911, Note_on_c, 0, 81, 0
2, 70911, Note_on_c, 0, 69, 0
2, 70912, Note_on_c, 0, 79, 96
2, 70912, Note_on_c, 0, 71, 96
2, 70975, Note_on_c, 0, 71, 0
2, 70975, Note_on_c, 0, 79, 0
2, 70976, Note_on_c, 0, 78, 96
2, 70976, Note_on_c, 0, 69, 96
2, 71039, Note_on_c, 0, 69, 0
2, 71039, Note_on_c, 0, 78, 0
2, 71040, Note_on_c, 0, 76, 96
2, 71040, Note_on_c, 0, 67, 96
2, 71103, Note_on_c, 0, 67, 0
2, 71103, Note_on_c, 0, 76, 0
2, 71104, Note_on_c, 0, 74, 96
2, 71104, Note_on_c, 0, 66, 96
2, 71167, Note_on_c, 0, 66, 0
2, 71167, Note_on_c, 0, 74, 0
2, 71168, Note_on_c, 0, 83, 96
2, 71168, Note_on_c, 0, 67, 96
2, 71295, Note_on_c, 0, 67, 0
2, 71296, Note_on_c, 0, 76, 96
2, 71296, Note_on_c, 0, 69, 96
2, 71348, Note_on_c, 0, 83, 0
2, 71359, Note_on_c, 0, 69, 0
2, 71360, Note_on_c, 0, 67, 96
2, 71423, Note_on_c, 0, 67, 0
2, 71423, Note_on_c, 0, 76, 0
2, 71424, Note_on_c, 0, 79, 96
2, 71424, Note_on_c, 0, 66, 96
2, 71487, Note_on_c, 0, 66, 0
2, 71488, Note_on_c, 0, 64, 96
2, 71551, Note_on_c, 0, 64, 0
2, 71551, Note_on_c, 0, 79, 0
2, 71552, Note_on_c, 0, 81, 96
2, 71552, Note_on_c, 0, 66, 96
2, 71679, Note_on_c, 0, 66, 0
2, 71680, Note_on_c, 0, 74, 96
2, 71680, Note_on_c, 0, 67, 96
2, 71732, Note_on_c, 0, 81, 0
2, 71743, Note_on_c, 0, 67, 0
2, 71744, Note_on_c, 0, 66, 96
2, 71807, Note_on_c, 0, 66, 0
2, 71807, Note_on_c, 0, 74, 0
2, 71808, Note_on_c, 0, 78, 96
2, 71808, Note_on_c, 0, 64, 96
2, 71871, Note_on_c, 0, 64, 0
2, 71872, Note_on_c, 0, 62, 96
2, 71935, Note_on_c, 0, 62, 0
2, 71935, Note_on_c, 0, 78, 0
2, 71936, Note_on_c, 0, 79, 96
2, 71936, Note_on_c, 0, 64, 96
2, 72063, Note_on_c, 0, 64, 0
2, 72064, Note_on_c, 0, 73, 96
2, 72064, Note_on_c, 0, 66, 96
2, 72116, Note_on_c, 0, 79, 0
2, 72127, Note_on_c, 0, 66, 0
2, 72128, Note_on_c, 0, 64, 96
2, 72191, Note_on_c, 0, 64, 0
2, 72191, Note_on_c, 0, 73, 0
2, 72192, Note_on_c, 0, 76, 96
2, 72192, Note_on_c, 0, 62, 96
2, 72255, Note_on_c, 0, 62, 0
2, 72256, Note_on_c, 0, 61, 96
2, 72319, Note_on_c, 0, 61, 0
2, 72319, Note_on_c, 0, 76, 0
2, 72320, Note_on_c, 0, 78, 96
2, 72320, Note_on_c, 0, 62, 96
2, 72447, Note_on_c, 0, 62, 0
2, 72447, Note_on_c, 0, 78, 0
2, 72448, Note_on_c, 0, 79, 96
2, 72448, Note_on_c, 0, 64, 96
2, 72511, Note_on_c, 0, 64, 0
2, 72511, Note_on_c, 0, 79, 0
2, 72512, Note_on_c, 0, 78, 96
2, 72512, Note_on_c, 0, 62, 96
2, 72575, Note_on_c, 0, 62, 0
2, 72575, Note_on_c, 0, 78, 0
2, 72576, Note_on_c, 0, 76, 96
2, 72576, Note_on_c, 0, 61, 96
2, 72639, Note_on_c, 0, 61, 0
2, 72639, Note_on_c, 0, 76, 0
2, 72640, Note_on_c, 0, 74, 96
2, 72640, Note_on_c, 0, 59, 96
2, 72703, Note_on_c, 0, 59, 0
2, 72703, Note_on_c, 0, 74, 0
2, 72704, Note_on_c, 0, 79, 96
2, 72704, Note_on_c, 0, 64, 96
2, 72831, Note_on_c, 0, 64, 0
2, 72832, Note_on_c, 0, 73, 96
2, 72832, Note_on_c, 0, 66, 96
2, 72844, Note_on_c, 0, 79, 0
2, 72895, Note_on_c, 0, 66, 0
2, 72896, Note_on_c, 0, 64, 96
2, 72959, Note_on_c, 0, 64, 0
2, 72959, Note_on_c, 0, 73, 0
2, 72960, Note_on_c, 0, 76, 96
2, 72960, Note_on_c, 0, 62, 96
2, 73023, Note_on_c, 0, 62, 0
2, 73024, Note_on_c, 0, 61, 96
2, 73087, Note_on_c, 0, 61, 0
2, 73087, Note_on_c, 0, 76, 0
2, 73088, Note_on_c, 0, 78, 96
2, 73088, Note_on_c, 0, 62, 96
2, 73215, Note_on_c, 0, 62, 0
2, 73216, Note_on_c, 0, 71, 96
2, 73216, Note_on_c, 0, 64, 96
2, 73228, Note_on_c, 0, 78, 0
2, 73279, Note_on_c, 0, 64, 0
2, 73280, Note_on_c, 0, 62, 96
2, 73343, Note_on_c, 0, 62, 0
2, 73343, Note_on_c, 0, 71, 0
2, 73344, Note_on_c, 0, 74, 96
2, 73344, Note_on_c, 0, 61, 96
2, 73407, Note_on_c, 0, 61, 0
2, 73408, Note_on_c, 0, 59, 96
2, 73471, Note_on_c, 0, 59, 0
2, 73471, Note_on_c, 0, 74, 0
2, 73472, Note_on_c, 0, 76, 96
2, 73472, Note_on_c, 0, 61, 96
2, 73599, Note_on_c, 0, 61, 0
2, 73599, Note_on_c, 0, 76, 0
2, 73600, Note_on_c, 0, 78, 96
2, 73600, Note_on_c, 0, 62, 96
2, 73663, Note_on_c, 0, 62, 0
2, 73663, Note_on_c, 0, 78, 0
2, 73664, Note_on_c, 0, 76, 96
2, 73664, Note_on_c, 0, 61, 96
2, 73727, Note_on_c, 0, 61, 0
2, 73727, Note_on_c, 0, 76, 0
2, 73728, Note_on_c, 0, 74, 96
2, 73728, Note_on_c, 0, 59, 96
2, 73791, Note_on_c, 0, 59, 0
2, 73791, Note_on_c, 0, 74, 0
2, 73792, Note_on_c, 0, 73, 96
2, 73792, Note_on_c, 0, 58, 96
2, 73855, Note_on_c, 0, 58, 0
2, 73855, Note_on_c, 0, 73, 0
2, 73856, Note_on_c, 0, 78, 96
2, 73856, Note_on_c, 0, 62, 96
2, 73983, Note_on_c, 0, 62, 0
2, 73983, Note_on_c, 0, 78, 0
2, 73984, Note_on_c, 0, 71, 96
2, 73984, Note_on_c, 0, 64, 96
2, 74047, Note_on_c, 0, 64, 0
2, 74048, Note_on_c, 0, 62, 96
2, 74111, Note_on_c, 0, 62, 0
2, 74111, Note_on_c, 0, 71, 0
2, 74112, Note_on_c, 0, 74, 96
2, 74112, Note_on_c, 0, 61, 96
2, 74175, Note_on_c, 0, 61, 0
2, 74176, Note_on_c, 0, 59, 96
2, 74239, Note_on_c, 0, 59, 0
2, 74239, Note_on_c, 0, 74, 0
2, 74240, Note_on_c, 0, 76, 96
2, 74240, Note_on_c, 0, 61, 96
2, 74367, Note_on_c, 0, 61, 0
2, 74367, Note_on_c, 0, 76, 0
2, 74368, Note_on_c, 0, 70, 96
2, 74368, Note_on_c, 0, 62, 96
2, 74431, Note_on_c, 0, 62, 0
2, 74432, Note_on_c, 0, 61, 96
2, 74495, Note_on_c, 0, 61, 0
2, 74495, Note_on_c, 0, 70, 0
2, 74496, Note_on_c, 0, 73, 96
2, 74496, Note_on_c, 0, 59, 96
2, 74559, Note_on_c, 0, 59, 0
2, 74560, Note_on_c, 0, 58, 96
2, 74623, Note_on_c, 0, 58, 0
2, 74623, Note_on_c, 0, 73, 0
2, 74624, Note_on_c, 0, 74, 96
2, 74624, Note_on_c, 0, 59, 96
2, 74751, Note_on_c, 0, 59, 0
2, 74751, Note_on_c, 0, 74, 0
2, 74752, Note_on_c, 0, 76, 96
2, 74752, Note_on_c, 0, 54, 96
2, 74815, Note_on_c, 0, 76, 0
2, 74816, Note_on_c, 0, 74, 96
2, 74879, Note_on_c, 0, 74, 0
2, 74879, Note_on_c, 0, 54, 0
2, 74880, Note_on_c, 0, 73, 96
2, 74880, Note_on_c, 0, 57, 96
2, 74943, Note_on_c, 0, 73, 0
2, 74944, Note_on_c, 0, 71, 96
2, 75007, Note_on_c, 0, 71, 0
2, 75007, Note_on_c, 0, 57, 0
2, 75008, Note_on_c, 0, 76, 96
2, 75008, Note_on_c, 0, 55, 96
2, 75135, Note_on_c, 0, 55, 0
2, 75135, Note_on_c, 0, 76, 0
2, 75136, Note_on_c, 0, 78, 96
2, 75136, Note_on_c, 0, 54, 96
2, 75199, Note_on_c, 0, 78, 0
2, 75200, Note_on_c, 0, 76, 96
2, 75263, Note_on_c, 0, 76, 0
2, 75263, Note_on_c, 0, 54, 0
2, 75264, Note_on_c, 0, 74, 96
2, 75264, Note_on_c, 0, 52, 96
2, 75327, Note_on_c, 0, 74, 0
2, 75328, Note_on_c, 0, 73, 96
2, 75391, Note_on_c, 0, 73, 0
2, 75391, Note_on_c, 0, 52, 0
2, 75392, Note_on_c, 0, 78, 96
2, 75392, Note_on_c, 0, 50, 96
2, 75519, Note_on_c, 0, 50, 0
2, 75519, Note_on_c, 0, 78, 0
2, 75520, Note_on_c, 0, 76, 96
2, 75520, Note_on_c, 0, 54, 96
2, 75583, Note_on_c, 0, 76, 0
2, 75584, Note_on_c, 0, 74, 96
2, 75647, Note_on_c, 0, 74, 0
2, 75647, Note_on_c, 0, 54, 0
2, 75648, Note_on_c, 0, 73, 96
2, 75648, Note_on_c, 0, 52, 96
2, 75711, Note_on_c, 0, 73, 0
2, 75712, Note_on_c, 0, 71, 96
2, 75775, Note_on_c, 0, 71, 0
2, 75775, Note_on_c, 0, 52, 0
2, 75776, Note_on_c, 0, 70, 96
2, 75776, Note_on_c, 0, 54, 96
2, 75839, Note_on_c, 0, 70, 0
2, 75840, Note_on_c, 0, 68, 96
2, 75903, Note_on_c, 0, 68, 0
2, 75904, Note_on_c, 0, 66, 96
2, 75967, Note_on_c, 0, 66, 0
2, 75968, Note_on_c, 0, 68, 96
2, 76031, Note_on_c, 0, 68, 0
2, 76032, Note_on_c, 0, 70, 96
2, 76095, Note_on_c, 0, 70, 0
2, 76096, Note_on_c, 0, 71, 96
2, 76159, Note_on_c, 0, 71, 0
2, 76160, Note_on_c, 0, 73, 96
2, 76223, Note_on_c, 0, 73, 0
2, 76224, Note_on_c, 0, 71, 96
2, 76287, Note_on_c, 0, 71, 0
2, 76287, Note_on_c, 0, 54, 0
2, 76288, Note_on_c, 0, 70, 96
2, 76288, Note_on_c, 0, 52, 96
2, 76351, Note_on_c, 0, 52, 0
2, 76351, Note_on_c, 0, 70, 0
2, 76352, Note_on_c, 0, 71, 96
2, 76352, Note_on_c, 0, 50, 96
2, 76415, Note_on_c, 0, 50, 0
2, 76415, Note_on_c, 0, 71, 0
2, 76416, Note_on_c, 0, 73, 96
2, 76416, Note_on_c, 0, 49, 96
2, 76479, Note_on_c, 0, 49, 0
2, 76480, Note_on_c, 0, 74, 96
2, 76480, Note_on_c, 0, 47, 96
2, 76543, Note_on_c, 0, 47, 0
2, 76543, Note_on_c, 0, 74, 0
2, 76544, Note_on_c, 0, 76, 96
2, 76544, Note_on_c, 0, 46, 96
2, 76607, Note_on_c, 0, 46, 0
2, 76608, Note_on_c, 0, 47, 96
2, 76671, Note_on_c, 0, 47, 0
2, 76672, Note_on_c, 0, 49, 96
2, 76735, Note_on_c, 0, 49, 0
2, 76736, Note_on_c, 0, 47, 96
2, 76799, Note_on_c, 0, 47, 0
2, 76800, Note_on_c, 0, 46, 96
2, 76863, Note_on_c, 0, 46, 0
2, 76864, Note_on_c, 0, 44, 96
2, 76927, Note_on_c, 0, 44, 0
2, 76928, Note_on_c, 0, 42, 96
2, 76991, Note_on_c, 0, 76, 0
2, 76991, Note_on_c, 0, 73, 0
2, 76992, Note_on_c, 0, 78, 96
2, 77055, Note_on_c, 0, 78, 0
2, 77055, Note_on_c, 0, 42, 0
2, 77056, Note_on_c, 0, 76, 96
2, 77056, Note_on_c, 0, 73, 96
2, 77056, Note_on_c, 0, 46, 96
2, 77119, Note_on_c, 0, 76, 0
2, 77120, Note_on_c, 0, 78, 96
2, 77156, Note_on_c, 0, 73, 0
2, 77183, Note_on_c, 0, 78, 0
2, 77183, Note_on_c, 0, 46, 0
2, 77184, Note_on_c, 0, 76, 96
2, 77184, Note_on_c, 0, 73, 96
2, 77184, Note_on_c, 0, 49, 96
2, 77247, Note_on_c, 0, 76, 0
2, 77248, Note_on_c, 0, 78, 96
2, 77284, Note_on_c, 0, 73, 0
2, 77311, Note_on_c, 0, 78, 0
2, 77311, Note_on_c, 0, 49, 0
2, 77312, Note_on_c, 0, 74, 96
2, 77312, Note_on_c, 0, 71, 96
2, 77312, Note_on_c, 0, 54, 96
2, 77375, Note_on_c, 0, 74, 0
2, 77376, Note_on_c, 0, 76, 96
2, 77412, Note_on_c, 0, 71, 0
2, 77439, Note_on_c, 0, 76, 0
2, 77440, Note_on_c, 0, 74, 96
2, 77440, Note_on_c, 0, 71, 96
2, 77440, Note_on_c, 0, 59, 96
2, 77503, Note_on_c, 0, 74, 0
2, 77504, Note_on_c, 0, 76, 96
2, 77540, Note_on_c, 0, 71, 0
2, 77567, Note_on_c, 0, 59, 0
2, 77567, Note_on_c, 0, 76, 0
2, 77568, Note_on_c, 0, 74, 96
2, 77568, Note_on_c, 0, 71, 96
2, 77568, Note_on_c, 0, 62, 96
2, 77631, Note_on_c, 0, 74, 0
2, 77632, Note_on_c, 0, 76, 96
2, 77668, Note_on_c, 0, 71, 0
2, 77695, Note_on_c, 0, 62, 0
2, 77695, Note_on_c, 0, 76, 0
2, 77696, Note_on_c, 0, 73, 96
2, 77696, Note_on_c, 0, 70, 96
2, 77696, Note_on_c, 0, 64, 96
2, 77823, Note_on_c, 0, 64, 0
2, 77824, Note_on_c, 0, 78, 96
2, 77824, Note_on_c, 0, 58, 96
2, 77836, Note_on_c, 0, 70, 0
2, 77836, Note_on_c, 0, 73, 0
2, 77951, Note_on_c, 0, 58, 0
2, 77952, Note_on_c, 0, 61, 96
2, 78079, Note_on_c, 0, 61, 0
2, 78079, Note_on_c, 0, 54, 0
2, 78080, Note_on_c, 0, 54, 96
2, 78080, Note_on_c, 0, 62, 96
2, 78143, Note_on_c, 0, 78, 0
2, 78144, Note_on_c, 0, 71, 96
2, 78207, Note_on_c, 0, 71, 0
2, 78207, Note_on_c, 0, 62, 0
2, 78208, Note_on_c, 0, 73, 96
2, 78208, Note_on_c, 0, 64, 96
2, 78271, Note_on_c, 0, 64, 0
2, 78271, Note_on_c, 0, 73, 0
2, 78272, Note_on_c, 0, 74, 96
2, 78272, Note_on_c, 0, 62, 96
2, 78335, Note_on_c, 0, 62, 0
2, 78335, Note_on_c, 0, 74, 0
2, 78336, Note_on_c, 0, 76, 96
2, 78336, Note_on_c, 0, 61, 96
2, 78399, Note_on_c, 0, 61, 0
2, 78399, Note_on_c, 0, 76, 0
2, 78400, Note_on_c, 0, 78, 96
2, 78400, Note_on_c, 0, 59, 96
2, 78463, Note_on_c, 0, 59, 0
2, 78463, Note_on_c, 0, 78, 0
2, 78464, Note_on_c, 0, 79, 96
2, 78464, Note_on_c, 0, 64, 96
2, 78591, Note_on_c, 0, 64, 0
2, 78592, Note_on_c, 0, 73, 96
2, 78592, Note_on_c, 0, 58, 96
2, 78719, Note_on_c, 0, 58, 0
2, 78719, Note_on_c, 0, 73, 0
2, 78719, Note_on_c, 0, 79, 0
2, 78720, Note_on_c, 0, 76, 96
2, 78720, Note_on_c, 0, 61, 96
2, 78847, Note_on_c, 0, 61, 0
2, 78847, Note_on_c, 0, 76, 0
2, 78848, Note_on_c, 0, 78, 96
2, 78848, Note_on_c, 0, 62, 96
2, 78975, Note_on_c, 0, 62, 0
2, 78976, Note_on_c, 0, 71, 96
2, 78976, Note_on_c, 0, 56, 96
2, 79103, Note_on_c, 0, 56, 0
2, 79103, Note_on_c, 0, 71, 0
2, 79103, Note_on_c, 0, 78, 0
2, 79104, Note_on_c, 0, 74, 96
2, 79104, Note_on_c, 0, 59, 96
2, 79230, Note_on_c, 0, 54, 0
2, 79231, Note_on_c, 0, 59, 0
2, 79231, Note_on_c, 0, 74, 0
2, 79232, Note_on_c, 0, 76, 96
2, 79232, Note_on_c, 0, 54, 96
2, 79232, Note_on_c, 0, 61, 96
2, 79359, Note_on_c, 0, 61, 0
2, 79359, Note_on_c, 0, 76, 0
2, 79360, Note_on_c, 0, 70, 96
2, 79360, Note_on_c, 0, 78, 96
2, 79360, Note_on_c, 0, 62, 96
2, 79423, Note_on_c, 0, 78, 0
2, 79424, Note_on_c, 0, 76, 96
2, 79440, Note_on_c, 0, 70, 0
2, 79487, Note_on_c, 0, 62, 0
2, 79487, Note_on_c, 0, 76, 0
2, 79488, Note_on_c, 0, 74, 96
2, 79488, Note_on_c, 0, 64, 96
2, 79551, Note_on_c, 0, 74, 0
2, 79552, Note_on_c, 0, 73, 96
2, 79615, Note_on_c, 0, 73, 0
2, 79615, Note_on_c, 0, 64, 0
2, 79616, Note_on_c, 0, 78, 96
2, 79616, Note_on_c, 0, 62, 96
2, 79679, Note_on_c, 0, 62, 0
2, 79680, Note_on_c, 0, 64, 96
2, 79743, Note_on_c, 0, 64, 0
2, 79744, Note_on_c, 0, 71, 96
2, 79744, Note_on_c, 0, 62, 96
2, 79756, Note_on_c, 0, 78, 0
2, 79807, Note_on_c, 0, 62, 0
2, 79808, Note_on_c, 0, 64, 96
2, 79871, Note_on_c, 0, 64, 0
2, 79871, Note_on_c, 0, 71, 0
2, 79872, Note_on_c, 0, 74, 96
2, 79872, Note_on_c, 0, 62, 96
2, 79935, Note_on_c, 0, 62, 0
2, 79936, Note_on_c, 0, 64, 96
2, 79999, Note_on_c, 0, 64, 0
2, 79999, Note_on_c, 0, 74, 0
2, 80000, Note_on_c, 0, 76, 96
2, 80000, Note_on_c, 0, 61, 96
2, 80063, Note_on_c, 0, 61, 0
2, 80064, Note_on_c, 0, 62, 96
2, 80127, Note_on_c, 0, 62, 0
2, 80128, Note_on_c, 0, 70, 96
2, 80128, Note_on_c, 0, 61, 96
2, 80140, Note_on_c, 0, 76, 0
2, 80191, Note_on_c, 0, 61, 0
2, 80192, Note_on_c, 0, 62, 96
2, 80255, Note_on_c, 0, 62, 0
2, 80255, Note_on_c, 0, 70, 0
2, 80256, Note_on_c, 0, 73, 96
2, 80256, Note_on_c, 0, 61, 96
2, 80319, Note_on_c, 0, 61, 0
2, 80320, Note_on_c, 0, 62, 96
2, 80382, Note_on_c, 0, 54, 0
2, 80383, Note_on_c, 0, 62, 0
2, 80383, Note_on_c, 0, 73, 0
2, 80384, Note_on_c, 0, 74, 96
2, 80384, Note_on_c, 0, 71, 96
2, 80384, Note_on_c, 0, 59, 96
2, 80447, Note_on_c, 0, 71, 0
2, 80447, Note_on_c, 0, 74, 0
2, 80448, Note_on_c, 0, 73, 96
2, 80511, Note_on_c, 0, 73, 0
2, 80512, Note_on_c, 0, 71, 96
2, 80575, Note_on_c, 0, 71, 0
2, 80576, Note_on_c, 0, 73, 96
2, 80639, Note_on_c, 0, 73, 0
2, 80640, Note_on_c, 0, 74, 96
2, 80703, Note_on_c, 0, 74, 0
2, 80704, Note_on_c, 0, 76, 96
2, 80767, Note_on_c, 0, 76, 0
2, 80768, Note_on_c, 0, 78, 96
2, 80803, Note_on_c, 0, 59, 0
2, 80831, Note_on_c, 0, 78, 0
2, 80832, Note_on_c, 0, 76, 96
2, 80895, Note_on_c, 0, 76, 0
2, 80896, Note_on_c, 0, 75, 96
2, 80896, Note_on_c, 0, 57, 96
2, 80959, Note_on_c, 0, 57, 0
2, 80959, Note_on_c, 0, 75, 0
2, 80960, Note_on_c, 0, 76, 96
2, 80960, Note_on_c, 0, 55, 96
2, 81023, Note_on_c, 0, 55, 0
2, 81023, Note_on_c, 0, 76, 0
2, 81024, Note_on_c, 0, 78, 96
2, 81024, Note_on_c, 0, 54, 96
2, 81087, Note_on_c, 0, 54, 0
2, 81088, Note_on_c, 0, 79, 96
2, 81088, Note_on_c, 0, 52, 96
2, 81151, Note_on_c, 0, 52, 0
2, 81151, Note_on_c, 0, 79, 0
2, 81152, Note_on_c, 0, 81, 96
2, 81152, Note_on_c, 0, 51, 96
2, 81215, Note_on_c, 0, 51, 0
2, 81216, Note_on_c, 0, 52, 96
2, 81279, Note_on_c, 0, 52, 0
2, 81280, Note_on_c, 0, 54, 96
2, 81343, Note_on_c, 0, 54, 0
2, 81344, Note_on_c, 0, 52, 96
2, 81407, Note_on_c, 0, 52, 0
2, 81408, Note_on_c, 0, 51, 96
2, 81471, Note_on_c, 0, 51, 0
2, 81472, Note_on_c, 0, 49, 96
2, 81535, Note_on_c, 0, 49, 0
2, 81536, Note_on_c, 0, 47, 96
2, 81599, Note_on_c, 0, 81, 0
2, 81599, Note_on_c, 0, 78, 0
2, 81600, Note_on_c, 0, 83, 96
2, 81663, Note_on_c, 0, 83, 0
2, 81663, Note_on_c, 0, 47, 0
2, 81664, Note_on_c, 0, 81, 96
2, 81664, Note_on_c, 0, 78, 96
2, 81664, Note_on_c, 0, 51, 96
2, 81727, Note_on_c, 0, 81, 0
2, 81728, Note_on_c, 0, 83, 96
2, 81774, Note_on_c, 0, 78, 0
2, 81791, Note_on_c, 0, 83, 0
2, 81791, Note_on_c, 0, 51, 0
2, 81792, Note_on_c, 0, 78, 96
2, 81792, Note_on_c, 0, 81, 96
2, 81792, Note_on_c, 0, 54, 96
2, 81855, Note_on_c, 0, 81, 0
2, 81856, Note_on_c, 0, 83, 96
2, 81902, Note_on_c, 0, 78, 0
2, 81919, Note_on_c, 0, 83, 0
2, 81919, Note_on_c, 0, 54, 0
2, 81920, Note_on_c, 0, 76, 96
2, 81920, Note_on_c, 0, 79, 96
2, 81920, Note_on_c, 0, 59, 96
2, 81983, Note_on_c, 0, 79, 0
2, 81984, Note_on_c, 0, 81, 96
2, 82030, Note_on_c, 0, 76, 0
2, 82047, Note_on_c, 0, 81, 0
2, 82048, Note_on_c, 0, 76, 96
2, 82048, Note_on_c, 0, 79, 96
2, 82048, Note_on_c, 0, 64, 96
2, 82111, Note_on_c, 0, 79, 0
2, 82112, Note_on_c, 0, 81, 96
2, 82148, Note_on_c, 0, 76, 0
2, 82175, Note_on_c, 0, 64, 0
2, 82175, Note_on_c, 0, 81, 0
2, 82176, Note_on_c, 0, 76, 96
2, 82176, Note_on_c, 0, 79, 96
2, 82176, Note_on_c, 0, 67, 96
2, 82239, Note_on_c, 0, 79, 0
2, 82240, Note_on_c, 0, 81, 96
2, 82286, Note_on_c, 0, 76, 0
2, 82303, Note_on_c, 0, 67, 0
2, 82303, Note_on_c, 0, 81, 0
2, 82304, Note_on_c, 0, 78, 96
2, 82304, Note_on_c, 0, 75, 96
2, 82304, Note_on_c, 0, 69, 96
2, 82431, Note_on_c, 0, 69, 0
2, 82432, Note_on_c, 0, 83, 96
2, 82432, Note_on_c, 0, 63, 96
2, 82464, Note_on_c, 0, 75, 0
2, 82464, Note_on_c, 0, 78, 0
2, 82559, Note_on_c, 0, 63, 0
2, 82560, Note_on_c, 0, 66, 96
2, 82687, Note_on_c, 0, 66, 0
2, 82687, Note_on_c, 0, 59, 0
2, 82688, Note_on_c, 0, 59, 96
2, 82688, Note_on_c, 0, 67, 96
2, 82742, Note_on_c, 0, 83, 0
2, 82752, Note_on_c, 0, 76, 96
2, 82815, Note_on_c, 0, 76, 0
2, 82815, Note_on_c, 0, 67, 0
2, 82816, Note_on_c, 0, 78, 96
2, 82816, Note_on_c, 0, 69, 96
2, 82879, Note_on_c, 0, 69, 0
2, 82879, Note_on_c, 0, 78, 0
2, 82880, Note_on_c, 0, 79, 96
2, 82880, Note_on_c, 0, 67, 96
2, 82943, Note_on_c, 0, 67, 0
2, 82943, Note_on_c, 0, 79, 0
2, 82944, Note_on_c, 0, 81, 96
2, 82944, Note_on_c, 0, 66, 96
2, 83007, Note_on_c, 0, 66, 0
2, 83007, Note_on_c, 0, 81, 0
2, 83008, Note_on_c, 0, 83, 96
2, 83008, Note_on_c, 0, 64, 96
2, 83071, Note_on_c, 0, 64, 0
2, 83071, Note_on_c, 0, 83, 0
2, 83072, Note_on_c, 0, 84, 96
2, 83072, Note_on_c, 0, 69, 96
2, 83199, Note_on_c, 0, 69, 0
2, 83200, Note_on_c, 0, 78, 96
2, 83200, Note_on_c, 0, 63, 96
2, 83242, Note_on_c, 0, 84, 0
2, 83327, Note_on_c, 0, 63, 0
2, 83328, Note_on_c, 0, 81, 96
2, 83328, Note_on_c, 0, 66, 96
2, 83455, Note_on_c, 0, 66, 0
2, 83455, Note_on_c, 0, 81, 0
2, 83456, Note_on_c, 0, 83, 96
2, 83456, Note_on_c, 0, 67, 96
2, 83580, Note_on_c, 0, 78, 0
2, 83583, Note_on_c, 0, 67, 0
2, 83584, Note_on_c, 0, 76, 96
2, 83584, Note_on_c, 0, 61, 96
2, 83626, Note_on_c, 0, 83, 0
2, 83711, Note_on_c, 0, 61, 0
2, 83712, Note_on_c, 0, 79, 96
2, 83712, Note_on_c, 0, 64, 96
2, 83839, Note_on_c, 0, 64, 0
2, 83839, Note_on_c, 0, 79, 0
2, 83839, Note_on_c, 0, 59, 0
2, 83840, Note_on_c, 0, 81, 96
2, 83840, Note_on_c, 0, 59, 96
2, 83840, Note_on_c, 0, 66, 96
2, 83964, Note_on_c, 0, 76, 0
2, 83967, Note_on_c, 0, 81, 0
2, 83967, Note_on_c, 0, 66, 0
2, 83968, Note_on_c, 0, 83, 96
2, 83968, Note_on_c, 0, 75, 96
2, 83968, Note_on_c, 0, 67, 96
2, 84031, Note_on_c, 0, 83, 0
2, 84032, Note_on_c, 0, 81, 96
2, 84095, Note_on_c, 0, 81, 0
2, 84095, Note_on_c, 0, 67, 0
2, 84096, Note_on_c, 0, 79, 96
2, 84096, Note_on_c, 0, 69, 96
2, 84159, Note_on_c, 0, 79, 0
2, 84160, Note_on_c, 0, 78, 96
2, 84223, Note_on_c, 0, 78, 0
2, 84223, Note_on_c, 0, 69, 0
2, 84223, Note_on_c, 0, 75, 0
2, 84224, Note_on_c, 0, 83, 96
2, 84224, Note_on_c, 0, 67, 96
2, 84287, Note_on_c, 0, 67, 0
2, 84288, Note_on_c, 0, 69, 96
2, 84351, Note_on_c, 0, 69, 0
2, 84352, Note_on_c, 0, 76, 96
2, 84352, Note_on_c, 0, 67, 96
2, 84364, Note_on_c, 0, 83, 0
2, 84415, Note_on_c, 0, 67, 0
2, 84416, Note_on_c, 0, 69, 96
2, 84479, Note_on_c, 0, 69, 0
2, 84480, Note_on_c, 0, 79, 96
2, 84480, Note_on_c, 0, 67, 96
2, 84543, Note_on_c, 0, 67, 0
2, 84544, Note_on_c, 0, 69, 96
2, 84607, Note_on_c, 0, 69, 0
2, 84607, Note_on_c, 0, 79, 0
2, 84608, Note_on_c, 0, 81, 96
2, 84608, Note_on_c, 0, 66, 96
2, 84671, Note_on_c, 0, 66, 0
2, 84672, Note_on_c, 0, 67, 96
2, 84732, Note_on_c, 0, 76, 0
2, 84735, Note_on_c, 0, 67, 0
2, 84736, Note_on_c, 0, 75, 96
2, 84736, Note_on_c, 0, 66, 96
2, 84748, Note_on_c, 0, 81, 0
2, 84799, Note_on_c, 0, 66, 0
2, 84800, Note_on_c, 0, 67, 96
2, 84863, Note_on_c, 0, 67, 0
2, 84864, Note_on_c, 0, 78, 96
2, 84864, Note_on_c, 0, 66, 96
2, 84927, Note_on_c, 0, 66, 0
2, 84928, Note_on_c, 0, 67, 96
2, 84991, Note_on_c, 0, 67, 0
2, 84991, Note_on_c, 0, 78, 0
2, 84991, Note_on_c, 0, 75, 0
2, 84992, Note_on_c, 0, 79, 96
2, 84992, Note_on_c, 0, 64, 96
2, 85055, Note_on_c, 0, 59, 0
2, 85056, Note_on_c, 0, 52, 96
2, 85119, Note_on_c, 0, 52, 0
2, 85119, Note_on_c, 0, 64, 0
2, 85120, Note_on_c, 0, 55, 96
2, 85120, Note_on_c, 0, 76, 96
2, 85183, Note_on_c, 0, 55, 0
2, 85184, Note_on_c, 0, 59, 96
2, 85240, Note_on_c, 0, 76, 0
2, 85247, Note_on_c, 0, 59, 0
2, 85248, Note_on_c, 0, 64, 96
2, 85248, Note_on_c, 0, 73, 96
2, 85311, Note_on_c, 0, 64, 0
2, 85312, Note_on_c, 0, 62, 96
2, 85368, Note_on_c, 0, 73, 0
2, 85375, Note_on_c, 0, 62, 0
2, 85376, Note_on_c, 0, 64, 96
2, 85376, Note_on_c, 0, 70, 96
2, 85472, Note_on_c, 0, 79, 0
2, 85503, Note_on_c, 0, 64, 0
2, 85504, Note_on_c, 0, 78, 96
2, 85504, Note_on_c, 0, 58, 96
2, 85567, Note_on_c, 0, 78, 0
2, 85568, Note_on_c, 0, 76, 96
2, 85631, Note_on_c, 0, 76, 0
2, 85631, Note_on_c, 0, 58, 0
2, 85632, Note_on_c, 0, 74, 96
2, 85632, Note_on_c, 0, 61, 96
2, 85676, Note_on_c, 0, 70, 0
2, 85695, Note_on_c, 0, 74, 0
2, 85696, Note_on_c, 0, 73, 96
2, 85759, Note_on_c, 0, 73, 0
2, 85759, Note_on_c, 0, 61, 0
2, 85760, Note_on_c, 0, 78, 96
2, 85760, Note_on_c, 0, 62, 96
2, 85887, Note_on_c, 0, 62, 0
2, 85887, Note_on_c, 0, 78, 0
2, 85888, Note_on_c, 0, 76, 96
2, 85888, Note_on_c, 0, 56, 96
2, 85888, Note_on_c, 0, 71, 96
2, 85951, Note_on_c, 0, 76, 0
2, 85952, Note_on_c, 0, 74, 96
2, 86015, Note_on_c, 0, 74, 0
2, 86015, Note_on_c, 0, 56, 0
2, 86016, Note_on_c, 0, 73, 96
2, 86016, Note_on_c, 0, 59, 96
2, 86068, Note_on_c, 0, 71, 0
2, 86079, Note_on_c, 0, 73, 0
2, 86080, Note_on_c, 0, 71, 96
2, 86143, Note_on_c, 0, 71, 0
2, 86143, Note_on_c, 0, 59, 0
2, 86144, Note_on_c, 0, 76, 96
2, 86144, Note_on_c, 0, 61, 96
2, 86271, Note_on_c, 0, 61, 0
2, 86272, Note_on_c, 0, 62, 96
2, 86272, Note_on_c, 0, 70, 96
2, 86335, Note_on_c, 0, 62, 0
2, 86336, Note_on_c, 0, 61, 96
2, 86399, Note_on_c, 0, 61, 0
2, 86399, Note_on_c, 0, 70, 0
2, 86399, Note_on_c, 0, 76, 0
2, 86400, Note_on_c, 0, 59, 96
2, 86400, Note_on_c, 0, 73, 96
2, 86463, Note_on_c, 0, 59, 0
2, 86464, Note_on_c, 0, 58, 96
2, 86527, Note_on_c, 0, 58, 0
2, 86528, Note_on_c, 0, 78, 96
2, 86528, Note_on_c, 0, 62, 96
2, 86610, Note_on_c, 0, 73, 0
2, 86655, Note_on_c, 0, 62, 0
2, 86656, Note_on_c, 0, 56, 96
2, 86656, Note_on_c, 0, 71, 96
2, 86748, Note_on_c, 0, 78, 0
2, 86783, Note_on_c, 0, 56, 0
2, 86784, Note_on_c, 0, 74, 96
2, 86784, Note_on_c, 0, 59, 96
2, 86911, Note_on_c, 0, 59, 0
2, 86911, Note_on_c, 0, 74, 0
2, 86912, Note_on_c, 0, 76, 96
2, 86912, Note_on_c, 0, 61, 96
2, 87039, Note_on_c, 0, 61, 0
2, 87039, Note_on_c, 0, 71, 0
2, 87040, Note_on_c, 0, 54, 96
2, 87040, Note_on_c, 0, 70, 96
2, 87167, Note_on_c, 0, 70, 0
2, 87167, Note_on_c, 0, 54, 0
2, 87168, Note_on_c, 0, 58, 96
2, 87168, Note_on_c, 0, 73, 96
2, 87295, Note_on_c, 0, 73, 0
2, 87295, Note_on_c, 0, 58, 0
2, 87296, Note_on_c, 0, 59, 96
2, 87296, Note_on_c, 0, 66, 96
2, 87359, Note_on_c, 0, 59, 0
2, 87360, Note_on_c, 0, 47, 96
2, 87423, Note_on_c, 0, 47, 0
2, 87423, Note_on_c, 0, 76, 0
2, 87424, Note_on_c, 0, 74, 96
2, 87424, Note_on_c, 0, 49, 96
2, 87487, Note_on_c, 0, 49, 0
2, 87488, Note_on_c, 0, 50, 96
2, 87551, Note_on_c, 0, 50, 0
2, 87551, Note_on_c, 0, 74, 0
2, 87552, Note_on_c, 0, 73, 96
2, 87552, Note_on_c, 0, 52, 96
2, 87615, Note_on_c, 0, 52, 0
2, 87616, Note_on_c, 0, 54, 96
2, 87679, Note_on_c, 0, 54, 0
2, 87679, Note_on_c, 0, 73, 0
2, 87680, Note_on_c, 0, 71, 96
2, 87680, Note_on_c, 0, 55, 96
2, 87743, Note_on_c, 0, 55, 0
2, 87744, Note_on_c, 0, 57, 96
2, 87807, Note_on_c, 0, 57, 0
2, 87807, Note_on_c, 0, 66, 0
2, 87808, Note_on_c, 0, 55, 96
2, 87808, Note_on_c, 0, 64, 96
2, 87871, Note_on_c, 0, 55, 0
2, 87872, Note_on_c, 0, 54, 96
2, 87935, Note_on_c, 0, 54, 0
2, 87935, Note_on_c, 0, 71, 0
2, 87936, Note_on_c, 0, 73, 96
2, 87936, Note_on_c, 0, 55, 96
2, 87999, Note_on_c, 0, 55, 0
2, 88000, Note_on_c, 0, 52, 96
2, 88063, Note_on_c, 0, 52, 0
2, 88063, Note_on_c, 0, 73, 0
2, 88063, Note_on_c, 0, 64, 0
2, 88064, Note_on_c, 0, 66, 96
2, 88064, Note_on_c, 0, 54, 96
2, 88064, Note_on_c, 0, 62, 96
2, 88191, Note_on_c, 0, 66, 0
2, 88192, Note_on_c, 0, 71, 96
2, 88319, Note_on_c, 0, 71, 0
2, 88319, Note_on_c, 0, 62, 0
2, 88319, Note_on_c, 0, 54, 0
2, 88320, Note_on_c, 0, 70, 96
2, 88320, Note_on_c, 0, 42, 96
2, 88320, Note_on_c, 0, 61, 96
2, 88447, Note_on_c, 0, 61, 0
2, 88447, Note_on_c, 0, 42, 0
2, 88447, Note_on_c, 0, 70, 0
2, 88448, Note_on_c, 0, 71, 96
2, 88448, Note_on_c, 0, 47, 96
2, 88448, Note_on_c, 0, 62, 96
2, 88558, Note_on_c, 0, 71, 0
2, 88588, Note_on_c, 0, 66, 96
2, 88703, Note_on_c, 0, 62, 0
2, 88710, Note_on_c, 0, 71, 96
2, 88715, Note_on_c, 0, 66, 0
2, 88788, Note_on_c, 0, 47, 0
2, 88832, Note_on_c, 0, 74, 96
2, 88837, Note_on_c, 0, 71, 0
2, 88896, Note_on_c, 0, 47, 96
2, 88959, Note_on_c, 0, 47, 0
2, 88960, Note_on_c, 0, 50, 96
2, 89023, Note_on_c, 0, 50, 0
2, 89024, Note_on_c, 0, 54, 96
2, 89087, Note_on_c, 0, 54, 0
2, 89088, Note_on_c, 0, 59, 96
2, 89151, Note_on_c, 0, 59, 0
2, 89152, Note_on_c, 0, 58, 96
2, 89212, Note_on_c, 0, 74, 0
2, 89215, Note_on_c, 0, 58, 0
2, 89216, Note_on_c, 0, 59, 96
2, 89280, Note_on_c, 0, 62, 96
2, 89343, Note_on_c, 0, 62, 0
2, 89344, Note_on_c, 0, 66, 96
2, 89344, Note_on_c, 0, 50, 96
2, 89407, Note_on_c, 0, 66, 0
2, 89408, Note_on_c, 0, 71, 96
2, 89471, Note_on_c, 0, 71, 0
2, 89471, Note_on_c, 0, 50, 0
2, 89472, Note_on_c, 0, 74, 96
2, 89472, Note_on_c, 0, 47, 96
2, 89535, Note_on_c, 0, 74, 0
2, 89536, Note_on_c, 0, 73, 96
2, 89599, Note_on_c, 0, 73, 0
2, 89599, Note_on_c, 0, 47, 0
2, 89600, Note_on_c, 0, 74, 96
2, 89600, Note_on_c, 0, 52, 96
2, 89663, Note_on_c, 0, 74, 0
2, 89664, Note_on_c, 0, 68, 96
2, 89727, Note_on_c, 0, 68, 0
2, 89727, Note_on_c, 0, 59, 0
2, 89728, Note_on_c, 0, 69, 96
2, 89728, Note_on_c, 0, 54, 96
2, 89791, Note_on_c, 0, 54, 0
2, 89791, Note_on_c, 0, 69, 0
2, 89792, Note_on_c, 0, 71, 96
2, 89792, Note_on_c, 0, 56, 96
2, 89855, Note_on_c, 0, 56, 0
2, 89855, Note_on_c, 0, 71, 0
2, 89856, Note_on_c, 0, 73, 96
2, 89856, Note_on_c, 0, 57, 96
2, 89880, Note_on_c, 0, 52, 0
2, 89919, Note_on_c, 0, 57, 0
2, 89919, Note_on_c, 0, 73, 0
2, 89920, Note_on_c, 0, 74, 96
2, 89920, Note_on_c, 0, 59, 96
2, 89983, Note_on_c, 0, 59, 0
2, 89983, Note_on_c, 0, 74, 0
2, 89984, Note_on_c, 0, 76, 96
2, 89984, Note_on_c, 0, 61, 96
2, 90111, Note_on_c, 0, 76, 0
2, 90112, Note_on_c, 0, 69, 96
2, 90144, Note_on_c, 0, 61, 0
2, 90239, Note_on_c, 0, 69, 0
2, 90240, Note_on_c, 0, 73, 96
2, 90367, Note_on_c, 0, 73, 0
2, 90368, Note_on_c, 0, 74, 96
2, 90368, Note_on_c, 0, 56, 96
2, 90368, Note_on_c, 0, 52, 96
2, 90368, Note_on_c, 0, 59, 96
2, 90495, Note_on_c, 0, 74, 0
2, 90496, Note_on_c, 0, 68, 96
2, 90528, Note_on_c, 0, 56, 0
2, 90528, Note_on_c, 0, 59, 0
2, 90528, Note_on_c, 0, 52, 0
2, 90623, Note_on_c, 0, 68, 0
2, 90624, Note_on_c, 0, 71, 96
2, 90751, Note_on_c, 0, 71, 0
2, 90752, Note_on_c, 0, 73, 96
2, 90752, Note_on_c, 0, 45, 96
2, 90752, Note_on_c, 0, 52, 96
2, 90752, Note_on_c, 0, 57, 96
2, 90879, Note_on_c, 0, 73, 0
2, 90880, Note_on_c, 0, 64, 96
2, 91007, Note_on_c, 0, 64, 0
2, 91008, Note_on_c, 0, 69, 96
2, 91032, Note_on_c, 0, 57, 0
2, 91032, Note_on_c, 0, 52, 0
2, 91072, Note_on_c, 0, 45, 0
2, 91135, Note_on_c, 0, 69, 0
2, 91136, Note_on_c, 0, 72, 96
2, 91200, Note_on_c, 0, 45, 96
2, 91263, Note_on_c, 0, 45, 0
2, 91264, Note_on_c, 0, 48, 96
2, 91327, Note_on_c, 0, 48, 0
2, 91328, Note_on_c, 0, 52, 96
2, 91391, Note_on_c, 0, 52, 0
2, 91392, Note_on_c, 0, 57, 96
2, 91455, Note_on_c, 0, 57, 0
2, 91456, Note_on_c, 0, 55, 96
2, 91516, Note_on_c, 0, 72, 0
2, 91519, Note_on_c, 0, 55, 0
2, 91520, Note_on_c, 0, 57, 96
2, 91584, Note_on_c, 0, 60, 96
2, 91647, Note_on_c, 0, 60, 0
2, 91648, Note_on_c, 0, 64, 96
2, 91648, Note_on_c, 0, 48, 96
2, 91711, Note_on_c, 0, 64, 0
2, 91712, Note_on_c, 0, 69, 96
2, 91775, Note_on_c, 0, 69, 0
2, 91775, Note_on_c, 0, 48, 0
2, 91776, Note_on_c, 0, 72, 96
2, 91776, Note_on_c, 0, 45, 96
2, 91839, Note_on_c, 0, 72, 0
2, 91840, Note_on_c, 0, 71, 96
2, 91903, Note_on_c, 0, 71, 0
2, 91903, Note_on_c, 0, 45, 0
2, 91904, Note_on_c, 0, 72, 96
2, 91904, Note_on_c, 0, 50, 96
2, 91967, Note_on_c, 0, 72, 0
2, 91968, Note_on_c, 0, 66, 96
2, 92031, Note_on_c, 0, 66, 0
2, 92031, Note_on_c, 0, 57, 0
2, 92032, Note_on_c, 0, 67, 96
2, 92032, Note_on_c, 0, 52, 96
2, 92064, Note_on_c, 0, 50, 0
2, 92095, Note_on_c, 0, 52, 0
2, 92095, Note_on_c, 0, 67, 0
2, 92096, Note_on_c, 0, 69, 96
2, 92096, Note_on_c, 0, 54, 96
2, 92159, Note_on_c, 0, 54, 0
2, 92159, Note_on_c, 0, 69, 0
2, 92160, Note_on_c, 0, 71, 96
2, 92160, Note_on_c, 0, 55, 96
2, 92223, Note_on_c, 0, 55, 0
2, 92223, Note_on_c, 0, 71, 0
2, 92224, Note_on_c, 0, 72, 96
2, 92224, Note_on_c, 0, 57, 96
2, 92287, Note_on_c, 0, 57, 0
2, 92287, Note_on_c, 0, 72, 0
2, 92288, Note_on_c, 0, 74, 96
2, 92288, Note_on_c, 0, 59, 96
2, 92415, Note_on_c, 0, 74, 0
2, 92416, Note_on_c, 0, 67, 96
2, 92448, Note_on_c, 0, 59, 0
2, 92543, Note_on_c, 0, 67, 0
2, 92544, Note_on_c, 0, 71, 96
2, 92671, Note_on_c, 0, 71, 0
2, 92672, Note_on_c, 0, 72, 96
2, 92672, Note_on_c, 0, 54, 96
2, 92672, Note_on_c, 0, 50, 96
2, 92672, Note_on_c, 0, 57, 96
2, 92799, Note_on_c, 0, 72, 0
2, 92800, Note_on_c, 0, 66, 96
2, 92832, Note_on_c, 0, 54, 0
2, 92832, Note_on_c, 0, 57, 0
2, 92832, Note_on_c, 0, 50, 0
2, 92927, Note_on_c, 0, 66, 0
2, 92928, Note_on_c, 0, 69, 96
2, 93055, Note_on_c, 0, 69, 0
2, 93056, Note_on_c, 0, 71, 96
2, 93056, Note_on_c, 0, 43, 96
2, 93056, Note_on_c, 0, 55, 96
2, 93056, Note_on_c, 0, 50, 96
2, 93183, Note_on_c, 0, 71, 0
2, 93184, Note_on_c, 0, 72, 96
2, 93247, Note_on_c, 0, 72, 0
2, 93248, Note_on_c, 0, 71, 96
2, 93311, Note_on_c, 0, 71, 0
2, 93312, Note_on_c, 0, 69, 96
2, 93375, Note_on_c, 0, 69, 0
2, 93376, Note_on_c, 0, 50, 0
2, 93376, Note_on_c, 0, 55, 0
2, 93376, Note_on_c, 0, 67, 96
2, 93439, Note_on_c, 0, 67, 0
2, 93440, Note_on_c, 0, 76, 96
2, 93456, Note_on_c, 0, 43, 0
2, 93504, Note_on_c, 0, 45, 96
2, 93567, Note_on_c, 0, 45, 0
2, 93568, Note_on_c, 0, 47, 96
2, 93631, Note_on_c, 0, 47, 0
2, 93632, Note_on_c, 0, 49, 96
2, 93695, Note_on_c, 0, 49, 0
2, 93696, Note_on_c, 0, 50, 96
2, 93759, Note_on_c, 0, 50, 0
2, 93760, Note_on_c, 0, 52, 96
2, 93823, Note_on_c, 0, 52, 0
2, 93824, Note_on_c, 0, 42, 96
2, 93951, Note_on_c, 0, 76, 0
2, 93952, Note_on_c, 0, 78, 96
2, 94015, Note_on_c, 0, 78, 0
2, 94016, Note_on_c, 0, 76, 96
2, 94079, Note_on_c, 0, 76, 0
2, 94080, Note_on_c, 0, 74, 96
2, 94143, Note_on_c, 0, 74, 0
2, 94144, Note_on_c, 0, 73, 96
2, 94204, Note_on_c, 0, 42, 0
2, 94207, Note_on_c, 0, 73, 0
2, 94208, Note_on_c, 0, 81, 96
2, 94272, Note_on_c, 0, 38, 96
2, 94335, Note_on_c, 0, 38, 0
2, 94336, Note_on_c, 0, 40, 96
2, 94399, Note_on_c, 0, 40, 0
2, 94400, Note_on_c, 0, 42, 96
2, 94463, Note_on_c, 0, 42, 0
2, 94464, Note_on_c, 0, 43, 96
2, 94527, Note_on_c, 0, 43, 0
2, 94528, Note_on_c, 0, 45, 96
2, 94591, Note_on_c, 0, 45, 0
2, 94592, Note_on_c, 0, 47, 96
2, 94719, Note_on_c, 0, 81, 0
2, 94720, Note_on_c, 0, 83, 96
2, 94720, Note_on_c, 0, 50, 96
2, 94783, Note_on_c, 0, 83, 0
2, 94784, Note_on_c, 0, 81, 96
2, 94847, Note_on_c, 0, 81, 0
2, 94847, Note_on_c, 0, 50, 0
2, 94847, Note_on_c, 0, 47, 0
2, 94848, Note_on_c, 0, 79, 96
2, 94848, Note_on_c, 0, 55, 96
2, 94911, Note_on_c, 0, 79, 0
2, 94912, Note_on_c, 0, 78, 96
2, 94975, Note_on_c, 0, 78, 0
2, 94975, Note_on_c, 0, 55, 0
2, 94976, Note_on_c, 0, 79, 96
2, 94976, Note_on_c, 0, 49, 96
2, 95103, Note_on_c, 0, 79, 0
2, 95104, Note_on_c, 0, 81, 96
2, 95104, Note_on_c, 0, 52, 96
2, 95167, Note_on_c, 0, 81, 0
2, 95168, Note_on_c, 0, 79, 96
2, 95231, Note_on_c, 0, 79, 0
2, 95231, Note_on_c, 0, 52, 0
2, 95231, Note_on_c, 0, 49, 0
2, 95232, Note_on_c, 0, 78, 96
2, 95232, Note_on_c, 0, 57, 96
2, 95295, Note_on_c, 0, 78, 0
2, 95296, Note_on_c, 0, 76, 96
2, 95359, Note_on_c, 0, 76, 0
2, 95359, Note_on_c, 0, 57, 0
2, 95360, Note_on_c, 0, 78, 96
2, 95360, Note_on_c, 0, 50, 96
2, 95487, Note_on_c, 0, 78, 0
2, 95488, Note_on_c, 0, 79, 96
2, 95488, Note_on_c, 0, 57, 96
2, 95551, Note_on_c, 0, 79, 0
2, 95552, Note_on_c, 0, 78, 96
2, 95615, Note_on_c, 0, 78, 0
2, 95615, Note_on_c, 0, 57, 0
2, 95615, Note_on_c, 0, 50, 0
2, 95616, Note_on_c, 0, 76, 96
2, 95616, Note_on_c, 0, 60, 96
2, 95679, Note_on_c, 0, 76, 0
2, 95680, Note_on_c, 0, 74, 96
2, 95743, Note_on_c, 0, 74, 0
2, 95743, Note_on_c, 0, 60, 0
2, 95744, Note_on_c, 0, 79, 96
2, 95744, Note_on_c, 0, 59, 96
2, 95871, Note_on_c, 0, 59, 0
2, 95871, Note_on_c, 0, 79, 0
2, 95872, Note_on_c, 0, 81, 96
2, 95872, Note_on_c, 0, 57, 96
2, 95935, Note_on_c, 0, 81, 0
2, 95936, Note_on_c, 0, 79, 96
2, 95999, Note_on_c, 0, 79, 0
2, 95999, Note_on_c, 0, 57, 0
2, 96000, Note_on_c, 0, 78, 96
2, 96000, Note_on_c, 0, 55, 96
2, 96063, Note_on_c, 0, 78, 0
2, 96064, Note_on_c, 0, 76, 96
2, 96127, Note_on_c, 0, 76, 0
2, 96127, Note_on_c, 0, 55, 0
2, 96128, Note_on_c, 0, 81, 96
2, 96128, Note_on_c, 0, 54, 96
2, 96255, Note_on_c, 0, 54, 0
2, 96255, Note_on_c, 0, 81, 0
2, 96256, Note_on_c, 0, 79, 96
2, 96256, Note_on_c, 0, 57, 96
2, 96319, Note_on_c, 0, 79, 0
2, 96320, Note_on_c, 0, 78, 96
2, 96383, Note_on_c, 0, 78, 0
2, 96383, Note_on_c, 0, 57, 0
2, 96384, Note_on_c, 0, 76, 96
2, 96384, Note_on_c, 0, 55, 96
2, 96447, Note_on_c, 0, 76, 0
2, 96448, Note_on_c, 0, 74, 96
2, 96511, Note_on_c, 0, 74, 0
2, 96511, Note_on_c, 0, 55, 0
2, 96512, Note_on_c, 0, 73, 96
2, 96512, Note_on_c, 0, 57, 96
2, 96575, Note_on_c, 0, 73, 0
2, 96576, Note_on_c, 0, 74, 96
2, 96639, Note_on_c, 0, 74, 0
2, 96640, Note_on_c, 0, 73, 96
2, 96703, Note_on_c, 0, 73, 0
2, 96704, Note_on_c, 0, 71, 96
2, 96767, Note_on_c, 0, 71, 0
2, 96767, Note_on_c, 0, 57, 0
2, 96768, Note_on_c, 0, 69, 96
2, 96831, Note_on_c, 0, 69, 0
2, 96832, Note_on_c, 0, 67, 96
2, 96895, Note_on_c, 0, 67, 0
2, 96896, Note_on_c, 0, 66, 96
2, 96960, Note_on_c, 0, 79, 96
2, 97023, Note_on_c, 0, 79, 0
2, 97024, Note_on_c, 0, 78, 96
2, 97087, Note_on_c, 0, 78, 0
2, 97088, Note_on_c, 0, 76, 96
2, 97151, Note_on_c, 0, 76, 0
2, 97152, Note_on_c, 0, 74, 96
2, 97215, Note_on_c, 0, 74, 0
2, 97216, Note_on_c, 0, 72, 96
2, 97256, Note_on_c, 0, 66, 0
2, 97279, Note_on_c, 0, 72, 0
2, 97280, Note_on_c, 0, 62, 96
2, 97344, Note_on_c, 0, 76, 96
2, 97407, Note_on_c, 0, 76, 0
2, 97408, Note_on_c, 0, 74, 96
2, 97471, Note_on_c, 0, 74, 0
2, 97472, Note_on_c, 0, 72, 96
2, 97535, Note_on_c, 0, 72, 0
2, 97536, Note_on_c, 0, 71, 96
2, 97599, Note_on_c, 0, 71, 0
2, 97600, Note_on_c, 0, 69, 96
2, 97640, Note_on_c, 0, 62, 0
2, 97663, Note_on_c, 0, 69, 0
2, 97664, Note_on_c, 0, 55, 96
2, 97728, Note_on_c, 0, 72, 96
2, 97791, Note_on_c, 0, 72, 0
2, 97792, Note_on_c, 0, 71, 96
2, 97855, Note_on_c, 0, 71, 0
2, 97856, Note_on_c, 0, 69, 96
2, 97919, Note_on_c, 0, 69, 0
2, 97919, Note_on_c, 0, 55, 0
2, 97920, Note_on_c, 0, 67, 96
2, 97983, Note_on_c, 0, 67, 0
2, 97984, Note_on_c, 0, 66, 96
2, 98047, Note_on_c, 0, 66, 0
2, 98048, Note_on_c, 0, 64, 96
2, 98112, Note_on_c, 0, 78, 96
2, 98175, Note_on_c, 0, 78, 0
2, 98176, Note_on_c, 0, 76, 96
2, 98239, Note_on_c, 0, 76, 0
2, 98240, Note_on_c, 0, 74, 96
2, 98303, Note_on_c, 0, 74, 0
2, 98304, Note_on_c, 0, 73, 96
2, 98308, Note_on_c, 0, 64, 0
2, 98367, Note_on_c, 0, 73, 0
2, 98368, Note_on_c, 0, 71, 96
2, 98431, Note_on_c, 0, 71, 0
2, 98432, Note_on_c, 0, 61, 96
2, 98496, Note_on_c, 0, 74, 96
2, 98559, Note_on_c, 0, 74, 0
2, 98560, Note_on_c, 0, 73, 96
2, 98623, Note_on_c, 0, 73, 0
2, 98624, Note_on_c, 0, 71, 96
2, 98687, Note_on_c, 0, 71, 0
2, 98688, Note_on_c, 0, 69, 96
2, 98692, Note_on_c, 0, 61, 0
2, 98751, Note_on_c, 0, 69, 0
2, 98752, Note_on_c, 0, 67, 96
2, 98815, Note_on_c, 0, 67, 0
2, 98816, Note_on_c, 0, 54, 96
2, 98880, Note_on_c, 0, 71, 96
2, 98943, Note_on_c, 0, 71, 0
2, 98944, Note_on_c, 0, 69, 96
2, 99007, Note_on_c, 0, 69, 0
2, 99008, Note_on_c, 0, 67, 96
2, 99071, Note_on_c, 0, 67, 0
2, 99071, Note_on_c, 0, 54, 0
2, 99072, Note_on_c, 0, 66, 96
2, 99135, Note_on_c, 0, 66, 0
2, 99136, Note_on_c, 0, 64, 96
2, 99199, Note_on_c, 0, 64, 0
2, 99200, Note_on_c, 0, 62, 96
2, 99264, Note_on_c, 0, 76, 96
2, 99327, Note_on_c, 0, 76, 0
2, 99328, Note_on_c, 0, 74, 96
2, 99330, Note_on_c, 0, 62, 0
2, 99391, Note_on_c, 0, 74, 0
2, 99392, Note_on_c, 0, 73, 96
2, 99455, Note_on_c, 0, 73, 0
2, 99456, Note_on_c, 0, 71, 96
2, 99519, Note_on_c, 0, 71, 0
2, 99520, Note_on_c, 0, 69, 96
2, 99583, Note_on_c, 0, 69, 0
2, 99584, Note_on_c, 0, 59, 96
2, 99648, Note_on_c, 0, 72, 96
2, 99711, Note_on_c, 0, 72, 0
2, 99712, Note_on_c, 0, 71, 96
2, 99714, Note_on_c, 0, 59, 0
2, 99775, Note_on_c, 0, 71, 0
2, 99776, Note_on_c, 0, 69, 96
2, 99839, Note_on_c, 0, 69, 0
2, 99840, Note_on_c, 0, 67, 96
2, 99903, Note_on_c, 0, 67, 0
2, 99904, Note_on_c, 0, 66, 96
2, 99967, Note_on_c, 0, 66, 0
2, 99968, Note_on_c, 0, 52, 96
2, 100032, Note_on_c, 0, 69, 96
2, 100095, Note_on_c, 0, 69, 0
2, 100096, Note_on_c, 0, 67, 96
2, 100159, Note_on_c, 0, 67, 0
2, 100160, Note_on_c, 0, 66, 96
2, 100223, Note_on_c, 0, 66, 0
2, 100223, Note_on_c, 0, 52, 0
2, 100224, Note_on_c, 0, 64, 96
2, 100287, Note_on_c, 0, 64, 0
2, 100288, Note_on_c, 0, 62, 96
2, 100351, Note_on_c, 0, 62, 0
2, 100352, Note_on_c, 0, 61, 96
2, 100415, Note_on_c, 0, 61, 0
2, 100416, Note_on_c, 0, 74, 96
2, 100479, Note_on_c, 0, 74, 0
2, 100480, Note_on_c, 0, 73, 96
2, 100543, Note_on_c, 0, 73, 0
2, 100544, Note_on_c, 0, 71, 96
2, 100607, Note_on_c, 0, 71, 0
2, 100608, Note_on_c, 0, 69, 96
2, 100671, Note_on_c, 0, 69, 0
2, 100672, Note_on_c, 0, 67, 96
2, 100735, Note_on_c, 0, 67, 0
2, 100736, Note_on_c, 0, 57, 96
2, 100799, Note_on_c, 0, 57, 0
2, 100800, Note_on_c, 0, 71, 96
2, 100863, Note_on_c, 0, 71, 0
2, 100864, Note_on_c, 0, 69, 96
2, 100927, Note_on_c, 0, 69, 0
2, 100928, Note_on_c, 0, 67, 96
2, 100991, Note_on_c, 0, 67, 0
2, 100992, Note_on_c, 0, 66, 96
2, 101055, Note_on_c, 0, 66, 0
2, 101056, Note_on_c, 0, 64, 96
2, 101119, Note_on_c, 0, 64, 0
2, 101120, Note_on_c, 0, 66, 96
2, 101120, Note_on_c, 0, 50, 96
2, 101183, Note_on_c, 0, 66, 0
2, 101184, Note_on_c, 0, 57, 96
2, 101247, Note_on_c, 0, 57, 0
2, 101248, Note_on_c, 0, 59, 96
2, 101311, Note_on_c, 0, 59, 0
2, 101312, Note_on_c, 0, 61, 96
2, 101375, Note_on_c, 0, 61, 0
2, 101376, Note_on_c, 0, 62, 96
2, 101439, Note_on_c, 0, 62, 0
2, 101440, Note_on_c, 0, 64, 96
2, 101503, Note_on_c, 0, 64, 0
2, 101504, Note_on_c, 0, 66, 96
2, 101567, Note_on_c, 0, 66, 0
2, 101567, Note_on_c, 0, 50, 0
2, 101568, Note_on_c, 0, 62, 96
2, 101568, Note_on_c, 0, 52, 96
2, 101631, Note_on_c, 0, 52, 0
2, 101631, Note_on_c, 0, 62, 0
2, 101632, Note_on_c, 0, 64, 96
2, 101632, Note_on_c, 0, 50, 96
2, 101695, Note_on_c, 0, 50, 0
2, 101695, Note_on_c, 0, 64, 0
2, 101696, Note_on_c, 0, 66, 96
2, 101696, Note_on_c, 0, 48, 96
2, 101759, Note_on_c, 0, 48, 0
2, 101759, Note_on_c, 0, 66, 0
2, 101760, Note_on_c, 0, 67, 96
2, 101760, Note_on_c, 0, 47, 96
2, 101823, Note_on_c, 0, 47, 0
2, 101823, Note_on_c, 0, 67, 0
2, 101824, Note_on_c, 0, 69, 96
2, 101824, Note_on_c, 0, 45, 96
2, 101887, Note_on_c, 0, 45, 0
2, 101887, Note_on_c, 0, 69, 0
2, 101888, Note_on_c, 0, 71, 96
2, 101888, Note_on_c, 0, 43, 96
2, 101951, Note_on_c, 0, 43, 0
2, 101952, Note_on_c, 0, 45, 96
2, 102015, Note_on_c, 0, 45, 0
2, 102016, Note_on_c, 0, 43, 96
2, 102079, Note_on_c, 0, 43, 0
2, 102080, Note_on_c, 0, 42, 96
2, 102143, Note_on_c, 0, 42, 0
2, 102144, Note_on_c, 0, 40, 96
2, 102207, Note_on_c, 0, 40, 0
2, 102208, Note_on_c, 0, 38, 96
2, 102268, Note_on_c, 0, 71, 0
2, 102271, Note_on_c, 0, 38, 0
2, 102272, Note_on_c, 0, 37, 96
2, 102336, Note_on_c, 0, 61, 96
2, 102399, Note_on_c, 0, 61, 0
2, 102400, Note_on_c, 0, 62, 96
2, 102463, Note_on_c, 0, 62, 0
2, 102464, Note_on_c, 0, 64, 96
2, 102527, Note_on_c, 0, 64, 0
2, 102528, Note_on_c, 0, 66, 96
2, 102591, Note_on_c, 0, 66, 0
2, 102592, Note_on_c, 0, 68, 96
2, 102652, Note_on_c, 0, 37, 0
2, 102655, Note_on_c, 0, 68, 0
2, 102656, Note_on_c, 0, 69, 96
2, 102719, Note_on_c, 0, 69, 0
2, 102720, Note_on_c, 0, 68, 96
2, 102720, Note_on_c, 0, 50, 96
2, 102783, Note_on_c, 0, 50, 0
2, 102783, Note_on_c, 0, 68, 0
2, 102784, Note_on_c, 0, 69, 96
2, 102784, Note_on_c, 0, 49, 96
2, 102847, Note_on_c, 0, 49, 0
2, 102847, Note_on_c, 0, 69, 0
2, 102848, Note_on_c, 0, 71, 96
2, 102848, Note_on_c, 0, 47, 96
2, 102911, Note_on_c, 0, 47, 0
2, 102911, Note_on_c, 0, 71, 0
2, 102912, Note_on_c, 0, 73, 96
2, 102912, Note_on_c, 0, 45, 96
2, 102975, Note_on_c, 0, 45, 0
2, 102975, Note_on_c, 0, 73, 0
2, 102976, Note_on_c, 0, 74, 96
2, 102976, Note_on_c, 0, 43, 96
2, 103039, Note_on_c, 0, 43, 0
2, 103039, Note_on_c, 0, 74, 0
2, 103040, Note_on_c, 0, 76, 96
2, 103040, Note_on_c, 0, 42, 96
2, 103103, Note_on_c, 0, 42, 0
2, 103104, Note_on_c, 0, 43, 96
2, 103167, Note_on_c, 0, 43, 0
2, 103168, Note_on_c, 0, 42, 96
2, 103231, Note_on_c, 0, 42, 0
2, 103232, Note_on_c, 0, 40, 96
2, 103260, Note_on_c, 0, 76, 0
2, 103295, Note_on_c, 0, 40, 0
2, 103296, Note_on_c, 0, 38, 96
2, 103359, Note_on_c, 0, 38, 0
2, 103360, Note_on_c, 0, 37, 96
2, 103423, Note_on_c, 0, 37, 0
2, 103424, Note_on_c, 0, 35, 96
2, 103488, Note_on_c, 0, 66, 96
2, 103551, Note_on_c, 0, 66, 0
2, 103552, Note_on_c, 0, 67, 96
2, 103615, Note_on_c, 0, 67, 0
2, 103616, Note_on_c, 0, 69, 96
2, 103679, Note_on_c, 0, 69, 0
2, 103680, Note_on_c, 0, 71, 96
2, 103743, Note_on_c, 0, 71, 0
2, 103744, Note_on_c, 0, 73, 96
2, 103804, Note_on_c, 0, 35, 0
2, 103807, Note_on_c, 0, 73, 0
2, 103808, Note_on_c, 0, 74, 96
2, 103871, Note_on_c, 0, 74, 0
2, 103872, Note_on_c, 0, 71, 96
2, 103872, Note_on_c, 0, 49, 96
2, 103935, Note_on_c, 0, 49, 0
2, 103935, Note_on_c, 0, 71, 0
2, 103936, Note_on_c, 0, 73, 96
2, 103936, Note_on_c, 0, 47, 96
2, 103999, Note_on_c, 0, 47, 0
2, 103999, Note_on_c, 0, 73, 0
2, 104000, Note_on_c, 0, 74, 96
2, 104000, Note_on_c, 0, 45, 96
2, 104063, Note_on_c, 0, 45, 0
2, 104063, Note_on_c, 0, 74, 0
2, 104064, Note_on_c, 0, 76, 96
2, 104064, Note_on_c, 0, 43, 96
2, 104127, Note_on_c, 0, 43, 0
2, 104127, Note_on_c, 0, 76, 0
2, 104128, Note_on_c, 0, 78, 96
2, 104128, Note_on_c, 0, 42, 96
2, 104191, Note_on_c, 0, 42, 0
2, 104191, Note_on_c, 0, 78, 0
2, 104192, Note_on_c, 0, 79, 96
2, 104192, Note_on_c, 0, 40, 96
2, 104255, Note_on_c, 0, 40, 0
2, 104256, Note_on_c, 0, 42, 96
2, 104319, Note_on_c, 0, 42, 0
2, 104320, Note_on_c, 0, 40, 96
2, 104383, Note_on_c, 0, 40, 0
2, 104384, Note_on_c, 0, 38, 96
2, 104412, Note_on_c, 0, 79, 0
2, 104447, Note_on_c, 0, 38, 0
2, 104448, Note_on_c, 0, 37, 96
2, 104511, Note_on_c, 0, 37, 0
2, 104512, Note_on_c, 0, 35, 96
2, 104575, Note_on_c, 0, 35, 0
2, 104576, Note_on_c, 0, 33, 96
2, 104640, Note_on_c, 0, 69, 96
2, 104703, Note_on_c, 0, 69, 0
2, 104704, Note_on_c, 0, 71, 96
2, 104767, Note_on_c, 0, 71, 0
2, 104768, Note_on_c, 0, 72, 96
2, 104831, Note_on_c, 0, 72, 0
2, 104832, Note_on_c, 0, 74, 96
2, 104895, Note_on_c, 0, 74, 0
2, 104896, Note_on_c, 0, 76, 96
2, 104956, Note_on_c, 0, 33, 0
2, 104959, Note_on_c, 0, 76, 0
2, 104960, Note_on_c, 0, 78, 96
2, 105023, Note_on_c, 0, 78, 0
2, 105024, Note_on_c, 0, 76, 96
2, 105024, Note_on_c, 0, 47, 96
2, 105087, Note_on_c, 0, 47, 0
2, 105087, Note_on_c, 0, 76, 0
2, 105088, Note_on_c, 0, 78, 96
2, 105088, Note_on_c, 0, 45, 96
2, 105151, Note_on_c, 0, 45, 0
2, 105151, Note_on_c, 0, 78, 0
2, 105152, Note_on_c, 0, 79, 96
2, 105152, Note_on_c, 0, 43, 96
2, 105215, Note_on_c, 0, 43, 0
2, 105215, Note_on_c, 0, 79, 0
2, 105216, Note_on_c, 0, 81, 96
2, 105216, Note_on_c, 0, 42, 96
2, 105279, Note_on_c, 0, 42, 0
2, 105279, Note_on_c, 0, 81, 0
2, 105280, Note_on_c, 0, 83, 96
2, 105280, Note_on_c, 0, 40, 96
2, 105343, Note_on_c, 0, 40, 0
2, 105343, Note_on_c, 0, 83, 0
2, 105344, Note_on_c, 0, 84, 96
2, 105344, Note_on_c, 0, 38, 96
2, 105407, Note_on_c, 0, 38, 0
2, 105408, Note_on_c, 0, 40, 96
2, 105471, Note_on_c, 0, 40, 0
2, 105472, Note_on_c, 0, 38, 96
2, 105535, Note_on_c, 0, 38, 0
2, 105536, Note_on_c, 0, 36, 96
2, 105599, Note_on_c, 0, 36, 0
2, 105599, Note_on_c, 0, 84, 0
2, 105600, Note_on_c, 0, 35, 96
2, 105663, Note_on_c, 0, 35, 0
2, 105664, Note_on_c, 0, 33, 96
2, 105727, Note_on_c, 0, 33, 0
2, 105728, Note_on_c, 0, 31, 96
2, 105791, Note_on_c, 0, 31, 0
2, 105792, Note_on_c, 0, 74, 96
2, 105792, Note_on_c, 0, 35, 96
2, 105855, Note_on_c, 0, 35, 0
2, 105855, Note_on_c, 0, 74, 0
2, 105856, Note_on_c, 0, 76, 96
2, 105856, Note_on_c, 0, 36, 96
2, 105919, Note_on_c, 0, 36, 0
2, 105919, Note_on_c, 0, 76, 0
2, 105920, Note_on_c, 0, 78, 96
2, 105920, Note_on_c, 0, 38, 96
2, 105983, Note_on_c, 0, 38, 0
2, 105983, Note_on_c, 0, 78, 0
2, 105984, Note_on_c, 0, 79, 96
2, 105984, Note_on_c, 0, 40, 96
2, 106047, Note_on_c, 0, 40, 0
2, 106047, Note_on_c, 0, 79, 0
2, 106048, Note_on_c, 0, 81, 96
2, 106048, Note_on_c, 0, 42, 96
2, 106111, Note_on_c, 0, 42, 0
2, 106111, Note_on_c, 0, 81, 0
2, 106112, Note_on_c, 0, 83, 96
2, 106112, Note_on_c, 0, 43, 96
2, 106240, Note_on_c, 0, 81, 96
2, 106247, Note_on_c, 0, 83, 0
2, 106272, Note_on_c, 0, 43, 0
2, 106360, Note_on_c, 0, 81, 0
2, 106368, Note_on_c, 0, 79, 96
2, 106496, Note_on_c, 0, 55, 96
2, 106496, Note_on_c, 0, 59, 96
2, 106558, Note_on_c, 0, 79, 0
2, 106624, Note_on_c, 0, 78, 96
2, 106656, Note_on_c, 0, 59, 0
2, 106656, Note_on_c, 0, 55, 0
2, 106751, Note_on_c, 0, 78, 0
2, 106752, Note_on_c, 0, 76, 96
2, 106879, Note_on_c, 0, 76, 0
2, 106880, Note_on_c, 0, 74, 96
2, 106880, Note_on_c, 0, 55, 96
2, 106880, Note_on_c, 0, 57, 96
2, 107007, Note_on_c, 0, 74, 0
2, 107008, Note_on_c, 0, 73, 96
2, 107135, Note_on_c, 0, 73, 0
2, 107135, Note_on_c, 0, 57, 0
2, 107135, Note_on_c, 0, 55, 0
2, 107136, Note_on_c, 0, 81, 96
2, 107264, Note_on_c, 0, 42, 96
2, 107326, Note_on_c, 0, 81, 0
2, 107392, Note_on_c, 0, 79, 96
2, 107424, Note_on_c, 0, 42, 0
2, 107519, Note_on_c, 0, 79, 0
2, 107520, Note_on_c, 0, 78, 96
2, 107648, Note_on_c, 0, 54, 96
2, 107648, Note_on_c, 0, 57, 96
2, 107710, Note_on_c, 0, 78, 0
2, 107776, Note_on_c, 0, 76, 96
2, 107808, Note_on_c, 0, 57, 0
2, 107808, Note_on_c, 0, 54, 0
2, 107903, Note_on_c, 0, 76, 0
2, 107904, Note_on_c, 0, 74, 96
2, 108031, Note_on_c, 0, 74, 0
2, 108032, Note_on_c, 0, 72, 96
2, 108032, Note_on_c, 0, 54, 96
2, 108032, Note_on_c, 0, 55, 96
2, 108159, Note_on_c, 0, 72, 0
2, 108160, Note_on_c, 0, 71, 96
2, 108287, Note_on_c, 0, 71, 0
2, 108287, Note_on_c, 0, 55, 0
2, 108287, Note_on_c, 0, 54, 0
2, 108288, Note_on_c, 0, 79, 96
2, 108416, Note_on_c, 0, 52, 96
2, 108478, Note_on_c, 0, 79, 0
2, 108544, Note_on_c, 0, 78, 96
2, 108576, Note_on_c, 0, 52, 0
2, 108671, Note_on_c, 0, 78, 0
2, 108672, Note_on_c, 0, 76, 96
2, 108800, Note_on_c, 0, 50, 96
2, 108800, Note_on_c, 0, 55, 96
2, 108862, Note_on_c, 0, 76, 0
2, 108928, Note_on_c, 0, 74, 96
2, 108960, Note_on_c, 0, 55, 0
2, 108960, Note_on_c, 0, 50, 0
2, 109055, Note_on_c, 0, 74, 0
2, 109056, Note_on_c, 0, 73, 96
2, 109183, Note_on_c, 0, 73, 0
2, 109184, Note_on_c, 0, 71, 96
2, 109184, Note_on_c, 0, 55, 96
2, 109184, Note_on_c, 0, 49, 96
2, 109311, Note_on_c, 0, 71, 0
2, 109312, Note_on_c, 0, 69, 96
2, 109439, Note_on_c, 0, 69, 0
2, 109439, Note_on_c, 0, 49, 0
2, 109440, Note_on_c, 0, 76, 96
2, 109524, Note_on_c, 0, 55, 0
2, 109568, Note_on_c, 0, 45, 96
2, 109660, Note_on_c, 0, 76, 0
2, 109696, Note_on_c, 0, 74, 96
2, 109728, Note_on_c, 0, 45, 0
2, 109823, Note_on_c, 0, 74, 0
2, 109824, Note_on_c, 0, 73, 96
2, 109952, Note_on_c, 0, 57, 96
2, 109952, Note_on_c, 0, 61, 96
2, 110044, Note_on_c, 0, 73, 0
2, 110080, Note_on_c, 0, 71, 96
2, 110112, Note_on_c, 0, 61, 0
2, 110112, Note_on_c, 0, 57, 0
2, 110207, Note_on_c, 0, 71, 0
2, 110208, Note_on_c, 0, 69, 96
2, 110335, Note_on_c, 0, 69, 0
2, 110336, Note_on_c, 0, 67, 96
2, 110336, Note_on_c, 0, 62, 96
2, 110336, Note_on_c, 0, 57, 96
2, 110463, Note_on_c, 0, 67, 0
2, 110464, Note_on_c, 0, 65, 96
2, 110591, Note_on_c, 0, 57, 0
2, 110592, Note_on_c, 0, 77, 96
2, 110696, Note_on_c, 0, 62, 0
2, 110719, Note_on_c, 0, 65, 0
2, 110720, Note_on_c, 0, 45, 96
2, 110782, Note_on_c, 0, 77, 0
2, 110848, Note_on_c, 0, 76, 96
2, 110880, Note_on_c, 0, 45, 0
2, 110975, Note_on_c, 0, 76, 0
2, 110976, Note_on_c, 0, 74, 96
2, 111104, Note_on_c, 0, 57, 96
2, 111104, Note_on_c, 0, 62, 96
2, 111104, Note_on_c, 0, 65, 96
2, 111196, Note_on_c, 0, 74, 0
2, 111232, Note_on_c, 0, 72, 96
2, 111264, Note_on_c, 0, 57, 0
2, 111264, Note_on_c, 0, 65, 0
2, 111264, Note_on_c, 0, 62, 0
2, 111359, Note_on_c, 0, 72, 0
2, 111360, Note_on_c, 0, 71, 96
2, 111487, Note_on_c, 0, 71, 0
2, 111488, Note_on_c, 0, 69, 96
2, 111488, Note_on_c, 0, 59, 96
2, 111488, Note_on_c, 0, 62, 96
2, 111488, Note_on_c, 0, 65, 96
2, 111615, Note_on_c, 0, 69, 0
2, 111616, Note_on_c, 0, 68, 96
2, 111743, Note_on_c, 0, 68, 0
2, 111743, Note_on_c, 0, 65, 0
2, 111743, Note_on_c, 0, 59, 0
2, 111744, Note_on_c, 0, 83, 96
2, 111848, Note_on_c, 0, 62, 0
2, 111872, Note_on_c, 0, 45, 96
2, 111934, Note_on_c, 0, 83, 0
2, 112000, Note_on_c, 0, 81, 96
2, 112032, Note_on_c, 0, 45, 0
2, 112127, Note_on_c, 0, 81, 0
2, 112128, Note_on_c, 0, 80, 96
2, 112256, Note_on_c, 0, 62, 96
2, 112256, Note_on_c, 0, 59, 96
2, 112256, Note_on_c, 0, 68, 96
2, 112318, Note_on_c, 0, 80, 0
2, 112384, Note_on_c, 0, 78, 96
2, 112416, Note_on_c, 0, 62, 0
2, 112416, Note_on_c, 0, 68, 0
2, 112416, Note_on_c, 0, 59, 0
2, 112511, Note_on_c, 0, 78, 0
2, 112512, Note_on_c, 0, 76, 96
2, 112639, Note_on_c, 0, 76, 0
2, 112640, Note_on_c, 0, 74, 96
2, 112640, Note_on_c, 0, 57, 96
2, 112640, Note_on_c, 0, 69, 96
2, 112640, Note_on_c, 0, 64, 96
2, 112703, Note_on_c, 0, 74, 0
2, 112704, Note_on_c, 0, 71, 96
2, 112767, Note_on_c, 0, 71, 0
2, 112768, Note_on_c, 0, 73, 96
2, 112831, Note_on_c, 0, 73, 0
2, 112832, Note_on_c, 0, 74, 96
2, 112895, Note_on_c, 0, 74, 0
2, 112896, Note_on_c, 0, 76, 96
2, 112959, Note_on_c, 0, 76, 0
2, 112960, Note_on_c, 0, 73, 96
2, 113020, Note_on_c, 0, 57, 0
2, 113020, Note_on_c, 0, 64, 0
2, 113020, Note_on_c, 0, 69, 0
2, 113023, Note_on_c, 0, 73, 0
2, 113024, Note_on_c, 0, 69, 96
2, 113088, Note_on_c, 0, 45, 96
2, 113151, Note_on_c, 0, 45, 0
2, 113152, Note_on_c, 0, 49, 96
2, 113215, Note_on_c, 0, 49, 0
2, 113216, Note_on_c, 0, 52, 96
2, 113279, Note_on_c, 0, 52, 0
2, 113280, Note_on_c, 0, 57, 96
2, 113343, Note_on_c, 0, 57, 0
2, 113344, Note_on_c, 0, 61, 96
2, 113407, Note_on_c, 0, 61, 0
2, 113407, Note_on_c, 0, 69, 0
2, 113408, Note_on_c, 0, 69, 96
2, 113408, Note_on_c, 0, 64, 96
2, 113471, Note_on_c, 0, 69, 0
2, 113472, Note_on_c, 0, 67, 96
2, 113535, Note_on_c, 0, 67, 0
2, 113536, Note_on_c, 0, 69, 96
2, 113536, Note_on_c, 0, 62, 96
2, 113599, Note_on_c, 0, 69, 0
2, 113600, Note_on_c, 0, 67, 96
2, 113663, Note_on_c, 0, 67, 0
2, 113663, Note_on_c, 0, 62, 0
2, 113664, Note_on_c, 0, 66, 96
2, 113664, Note_on_c, 0, 61, 96
2, 113727, Note_on_c, 0, 66, 0
2, 113728, Note_on_c, 0, 67, 96
2, 113788, Note_on_c, 0, 64, 0
2, 113791, Note_on_c, 0, 67, 0
2, 113792, Note_on_c, 0, 66, 96
2, 113792, Note_on_c, 0, 62, 96
2, 113854, Note_on_c, 0, 61, 0
2, 113855, Note_on_c, 0, 66, 0
2, 113856, Note_on_c, 0, 69, 96
2, 113919, Note_on_c, 0, 69, 0
2, 113920, Note_on_c, 0, 71, 96
2, 113983, Note_on_c, 0, 71, 0
2, 113984, Note_on_c, 0, 73, 96
2, 114047, Note_on_c, 0, 73, 0
2, 114047, Note_on_c, 0, 62, 0
2, 114048, Note_on_c, 0, 74, 96
2, 114111, Note_on_c, 0, 74, 0
2, 114112, Note_on_c, 0, 71, 96
2, 114175, Note_on_c, 0, 71, 0
2, 114176, Note_on_c, 0, 67, 96
2, 114240, Note_on_c, 0, 45, 96
2, 114303, Note_on_c, 0, 45, 0
2, 114304, Note_on_c, 0, 50, 96
2, 114367, Note_on_c, 0, 50, 0
2, 114368, Note_on_c, 0, 54, 96
2, 114431, Note_on_c, 0, 54, 0
2, 114432, Note_on_c, 0, 57, 96
2, 114495, Note_on_c, 0, 57, 0
2, 114496, Note_on_c, 0, 61, 96
2, 114559, Note_on_c, 0, 61, 0
2, 114559, Note_on_c, 0, 67, 0
2, 114560, Note_on_c, 0, 67, 96
2, 114560, Note_on_c, 0, 62, 96
2, 114607, Note_on_c, 0, 67, 0
2, 114612, Note_on_c, 0, 66, 96
2, 114659, Note_on_c, 0, 66, 0
2, 114664, Note_on_c, 0, 67, 96
2, 114688, Note_on_c, 0, 61, 96
2, 114711, Note_on_c, 0, 67, 0
2, 114716, Note_on_c, 0, 66, 96
2, 114763, Note_on_c, 0, 66, 0
2, 114768, Note_on_c, 0, 67, 96
2, 114815, Note_on_c, 0, 67, 0
2, 114815, Note_on_c, 0, 61, 0
2, 114816, Note_on_c, 0, 59, 96
2, 114822, Note_on_c, 0, 66, 96
2, 114940, Note_on_c, 0, 62, 0
2, 114944, Note_on_c, 0, 66, 0
2, 114944, Note_on_c, 0, 64, 96
2, 114944, Note_on_c, 0, 61, 96
2, 115006, Note_on_c, 0, 59, 0
2, 115007, Note_on_c, 0, 64, 0
2, 115008, Note_on_c, 0, 68, 96
2, 115071, Note_on_c, 0, 68, 0
2, 115072, Note_on_c, 0, 69, 96
2, 115135, Note_on_c, 0, 69, 0
2, 115136, Note_on_c, 0, 71, 96
2, 115199, Note_on_c, 0, 71, 0
2, 115199, Note_on_c, 0, 61, 0
2, 115200, Note_on_c, 0, 73, 96
2, 115263, Note_on_c, 0, 73, 0
2, 115264, Note_on_c, 0, 69, 96
2, 115327, Note_on_c, 0, 69, 0
2, 115328, Note_on_c, 0, 66, 96
2, 115392, Note_on_c, 0, 45, 96
2, 115455, Note_on_c, 0, 45, 0
2, 115456, Note_on_c, 0, 49, 96
2, 115519, Note_on_c, 0, 49, 0
2, 115520, Note_on_c, 0, 52, 96
2, 115583, Note_on_c, 0, 52, 0
2, 115584, Note_on_c, 0, 57, 96
2, 115647, Note_on_c, 0, 57, 0
2, 115648, Note_on_c, 0, 59, 96
2, 115711, Note_on_c, 0, 59, 0
2, 115711, Note_on_c, 0, 66, 0
2, 115712, Note_on_c, 0, 66, 96
2, 115712, Note_on_c, 0, 61, 96
2, 115758, Note_on_c, 0, 64, 96
2, 115759, Note_on_c, 0, 66, 0
2, 115804, Note_on_c, 0, 66, 96
2, 115805, Note_on_c, 0, 64, 0
2, 115840, Note_on_c, 0, 59, 96
2, 115850, Note_on_c, 0, 64, 96
2, 115851, Note_on_c, 0, 66, 0
2, 115896, Note_on_c, 0, 66, 96
2, 115897, Note_on_c, 0, 64, 0
2, 115943, Note_on_c, 0, 66, 0
2, 115944, Note_on_c, 0, 64, 96
2, 115967, Note_on_c, 0, 59, 0
2, 115968, Note_on_c, 0, 57, 96
2, 116087, Note_on_c, 0, 64, 0
2, 116092, Note_on_c, 0, 61, 0
2, 116096, Note_on_c, 0, 62, 96
2, 116096, Note_on_c, 0, 59, 96
2, 116158, Note_on_c, 0, 57, 0
2, 116159, Note_on_c, 0, 62, 0
2, 116160, Note_on_c, 0, 66, 96
2, 116223, Note_on_c, 0, 66, 0
2, 116224, Note_on_c, 0, 68, 96
2, 116287, Note_on_c, 0, 68, 0
2, 116288, Note_on_c, 0, 69, 96
2, 116351, Note_on_c, 0, 69, 0
2, 116351, Note_on_c, 0, 59, 0
2, 116352, Note_on_c, 0, 71, 96
2, 116415, Note_on_c, 0, 71, 0
2, 116416, Note_on_c, 0, 68, 96
2, 116479, Note_on_c, 0, 68, 0
2, 116480, Note_on_c, 0, 64, 96
2, 116544, Note_on_c, 0, 45, 96
2, 116607, Note_on_c, 0, 45, 0
2, 116608, Note_on_c, 0, 47, 96
2, 116671, Note_on_c, 0, 47, 0
2, 116672, Note_on_c, 0, 50, 96
2, 116735, Note_on_c, 0, 50, 0
2, 116736, Note_on_c, 0, 52, 96
2, 116799, Note_on_c, 0, 52, 0
2, 116800, Note_on_c, 0, 56, 96
2, 116863, Note_on_c, 0, 56, 0
2, 116863, Note_on_c, 0, 64, 0
2, 116864, Note_on_c, 0, 64, 96
2, 116864, Note_on_c, 0, 59, 96
2, 116911, Note_on_c, 0, 64, 0
2, 116912, Note_on_c, 0, 62, 96
2, 116959, Note_on_c, 0, 62, 0
2, 116960, Note_on_c, 0, 64, 96
2, 116992, Note_on_c, 0, 57, 96
2, 117007, Note_on_c, 0, 64, 0
2, 117008, Note_on_c, 0, 62, 96
2, 117055, Note_on_c, 0, 62, 0
2, 117056, Note_on_c, 0, 64, 96
2, 117103, Note_on_c, 0, 64, 0
2, 117104, Note_on_c, 0, 62, 96
2, 117119, Note_on_c, 0, 57, 0
2, 117119, Note_on_c, 0, 59, 0
2, 117120, Note_on_c, 0, 56, 96
2, 117151, Note_on_c, 0, 62, 0
2, 117152, Note_on_c, 0, 61, 96
2, 117199, Note_on_c, 0, 61, 0
2, 117200, Note_on_c, 0, 62, 96
2, 117247, Note_on_c, 0, 62, 0
2, 117247, Note_on_c, 0, 56, 0
2, 117248, Note_on_c, 0, 61, 96
2, 117248, Note_on_c, 0, 57, 96
2, 117311, Note_on_c, 0, 61, 0
2, 117312, Note_on_c, 0, 64, 96
2, 117375, Note_on_c, 0, 64, 0
2, 117376, Note_on_c, 0, 62, 96
2, 117408, Note_on_c, 0, 57, 0
2, 117439, Note_on_c, 0, 62, 0
2, 117440, Note_on_c, 0, 61, 96
2, 117503, Note_on_c, 0, 61, 0
2, 117504, Note_on_c, 0, 59, 96
2, 117567, Note_on_c, 0, 59, 0
2, 117568, Note_on_c, 0, 57, 96
2, 117631, Note_on_c, 0, 57, 0
2, 117632, Note_on_c, 0, 45, 96
2, 117696, Note_on_c, 0, 69, 96
2, 117759, Note_on_c, 0, 69, 0
2, 117760, Note_on_c, 0, 67, 96
2, 117792, Note_on_c, 0, 45, 0
2, 117823, Note_on_c, 0, 67, 0
2, 117824, Note_on_c, 0, 66, 96
2, 117887, Note_on_c, 0, 66, 0
2, 117888, Note_on_c, 0, 64, 96
2, 117951, Note_on_c, 0, 64, 0
2, 117952, Note_on_c, 0, 62, 96
2, 118015, Note_on_c, 0, 62, 0
2, 118016, Note_on_c, 0, 61, 96
2, 118016, Note_on_c, 0, 57, 96
2, 118080, Note_on_c, 0, 71, 96
2, 118143, Note_on_c, 0, 71, 0
2, 118144, Note_on_c, 0, 69, 96
2, 118176, Note_on_c, 0, 57, 0
2, 118176, Note_on_c, 0, 61, 0
2, 118207, Note_on_c, 0, 69, 0
2, 118208, Note_on_c, 0, 67, 96
2, 118271, Note_on_c, 0, 67, 0
2, 118272, Note_on_c, 0, 66, 96
2, 118335, Note_on_c, 0, 66, 0
2, 118336, Note_on_c, 0, 64, 96
2, 118399, Note_on_c, 0, 64, 0
2, 118400, Note_on_c, 0, 66, 96
2, 118400, Note_on_c, 0, 57, 96
2, 118400, Note_on_c, 0, 62, 96
2, 118463, Note_on_c, 0, 66, 0
2, 118464, Note_on_c, 0, 69, 96
2, 118527, Note_on_c, 0, 69, 0
2, 118528, Note_on_c, 0, 67, 96
2, 118560, Note_on_c, 0, 62, 0
2, 118560, Note_on_c, 0, 57, 0
2, 118591, Note_on_c, 0, 67, 0
2, 118592, Note_on_c, 0, 66, 96
2, 118655, Note_on_c, 0, 66, 0
2, 118656, Note_on_c, 0, 64, 96
2, 118719, Note_on_c, 0, 64, 0
2, 118720, Note_on_c, 0, 62, 96
2, 118783, Note_on_c, 0, 62, 0
2, 118784, Note_on_c, 0, 45, 96
2, 118848, Note_on_c, 0, 74, 96
2, 118911, Note_on_c, 0, 74, 0
2, 118912, Note_on_c, 0, 73, 96
2, 118944, Note_on_c, 0, 45, 0
2, 118975, Note_on_c, 0, 73, 0
2, 118976, Note_on_c, 0, 71, 96
2, 119039, Note_on_c, 0, 71, 0
2, 119040, Note_on_c, 0, 69, 96
2, 119103, Note_on_c, 0, 69, 0
2, 119104, Note_on_c, 0, 67, 96
2, 119167, Note_on_c, 0, 67, 0
2, 119168, Note_on_c, 0, 57, 96
2, 119168, Note_on_c, 0, 62, 96
2, 119168, Note_on_c, 0, 66, 96
2, 119232, Note_on_c, 0, 76, 96
2, 119295, Note_on_c, 0, 76, 0
2, 119296, Note_on_c, 0, 74, 96
2, 119328, Note_on_c, 0, 57, 0
2, 119328, Note_on_c, 0, 66, 0
2, 119328, Note_on_c, 0, 62, 0
2, 119359, Note_on_c, 0, 74, 0
2, 119360, Note_on_c, 0, 73, 96
2, 119423, Note_on_c, 0, 73, 0
2, 119424, Note_on_c, 0, 71, 96
2, 119487, Note_on_c, 0, 71, 0
2, 119488, Note_on_c, 0, 69, 96
2, 119551, Note_on_c, 0, 69, 0
2, 119552, Note_on_c, 0, 68, 96
2, 119552, Note_on_c, 0, 57, 96
2, 119552, Note_on_c, 0, 59, 96
2, 119552, Note_on_c, 0, 62, 96
2, 119615, Note_on_c, 0, 68, 0
2, 119616, Note_on_c, 0, 71, 96
2, 119679, Note_on_c, 0, 71, 0
2, 119680, Note_on_c, 0, 69, 96
2, 119712, Note_on_c, 0, 62, 0
2, 119712, Note_on_c, 0, 57, 0
2, 119712, Note_on_c, 0, 59, 0
2, 119743, Note_on_c, 0, 69, 0
2, 119744, Note_on_c, 0, 68, 96
2, 119807, Note_on_c, 0, 68, 0
2, 119808, Note_on_c, 0, 66, 96
2, 119871, Note_on_c, 0, 66, 0
2, 119872, Note_on_c, 0, 64, 96
2, 119935, Note_on_c, 0, 64, 0
2, 119936, Note_on_c, 0, 45, 96
2, 120000, Note_on_c, 0, 74, 96
2, 120063, Note_on_c, 0, 74, 0
2, 120064, Note_on_c, 0, 73, 96
2, 120096, Note_on_c, 0, 45, 0
2, 120127, Note_on_c, 0, 73, 0
2, 120128, Note_on_c, 0, 71, 96
2, 120191, Note_on_c, 0, 71, 0
2, 120192, Note_on_c, 0, 69, 96
2, 120255, Note_on_c, 0, 69, 0
2, 120256, Note_on_c, 0, 68, 96
2, 120319, Note_on_c, 0, 68, 0
2, 120320, Note_on_c, 0, 59, 96
2, 120320, Note_on_c, 0, 64, 96
2, 120320, Note_on_c, 0, 56, 96
2, 120384, Note_on_c, 0, 78, 96
2, 120447, Note_on_c, 0, 78, 0
2, 120448, Note_on_c, 0, 76, 96
2, 120480, Note_on_c, 0, 59, 0
2, 120480, Note_on_c, 0, 56, 0
2, 120480, Note_on_c, 0, 64, 0
2, 120511, Note_on_c, 0, 76, 0
2, 120512, Note_on_c, 0, 74, 96
2, 120575, Note_on_c, 0, 74, 0
2, 120576, Note_on_c, 0, 73, 96
2, 120639, Note_on_c, 0, 73, 0
2, 120640, Note_on_c, 0, 71, 96
2, 120703, Note_on_c, 0, 71, 0
2, 120704, Note_on_c, 0, 73, 96
2, 120704, Note_on_c, 0, 57, 96
2, 120831, Note_on_c, 0, 57, 0
2, 120832, Note_on_c, 0, 59, 96
2, 120895, Note_on_c, 0, 59, 0
2, 120896, Note_on_c, 0, 61, 96
2, 120959, Note_on_c, 0, 61, 0
2, 120959, Note_on_c, 0, 73, 0
2, 120960, Note_on_c, 0, 62, 96
2, 121023, Note_on_c, 0, 62, 0
2, 121024, Note_on_c, 0, 64, 96
2, 121087, Note_on_c, 0, 64, 0
2, 121088, Note_on_c, 0, 66, 96
2, 121152, Note_on_c, 0, 73, 96
2, 121215, Note_on_c, 0, 73, 0
2, 121216, Note_on_c, 0, 74, 96
2, 121279, Note_on_c, 0, 74, 0
2, 121280, Note_on_c, 0, 76, 96
2, 121343, Note_on_c, 0, 76, 0
2, 121343, Note_on_c, 0, 66, 0
2, 121344, Note_on_c, 0, 78, 96
2, 121407, Note_on_c, 0, 78, 0
2, 121408, Note_on_c, 0, 79, 96
2, 121471, Note_on_c, 0, 79, 0
2, 121472, Note_on_c, 0, 81, 96
2, 121472, Note_on_c, 0, 64, 96
2, 121536, Note_on_c, 0, 79, 96
2, 121599, Note_on_c, 0, 79, 0
2, 121600, Note_on_c, 0, 78, 96
2, 121663, Note_on_c, 0, 78, 0
2, 121664, Note_on_c, 0, 76, 96
2, 121727, Note_on_c, 0, 76, 0
2, 121727, Note_on_c, 0, 64, 0
2, 121728, Note_on_c, 0, 75, 96
2, 121791, Note_on_c, 0, 75, 0
2, 121792, Note_on_c, 0, 73, 96
2, 121855, Note_on_c, 0, 73, 0
2, 121856, Note_on_c, 0, 71, 96
2, 121856, Note_on_c, 0, 63, 96
2, 121983, Note_on_c, 0, 63, 0
2, 121983, Note_on_c, 0, 81, 0
2, 121984, Note_on_c, 0, 79, 96
2, 121984, Note_on_c, 0, 64, 96
2, 122047, Note_on_c, 0, 64, 0
2, 122048, Note_on_c, 0, 63, 96
2, 122111, Note_on_c, 0, 63, 0
2, 122111, Note_on_c, 0, 79, 0
2, 122112, Note_on_c, 0, 78, 96
2, 122112, Note_on_c, 0, 61, 96
2, 122175, Note_on_c, 0, 61, 0
2, 122176, Note_on_c, 0, 59, 96
2, 122236, Note_on_c, 0, 71, 0
2, 122239, Note_on_c, 0, 59, 0
2, 122239, Note_on_c, 0, 78, 0
2, 122240, Note_on_c, 0, 79, 96
2, 122240, Note_on_c, 0, 64, 96
2, 122304, Note_on_c, 0, 71, 96
2, 122360, Note_on_c, 0, 79, 0
2, 122367, Note_on_c, 0, 71, 0
2, 122368, Note_on_c, 0, 73, 96
2, 122431, Note_on_c, 0, 73, 0
2, 122432, Note_on_c, 0, 74, 96
2, 122495, Note_on_c, 0, 74, 0
2, 122495, Note_on_c, 0, 64, 0
2, 122496, Note_on_c, 0, 76, 96
2, 122559, Note_on_c, 0, 76, 0
2, 122560, Note_on_c, 0, 78, 96
2, 122623, Note_on_c, 0, 78, 0
2, 122624, Note_on_c, 0, 79, 96
2, 122624, Note_on_c, 0, 62, 96
2, 122688, Note_on_c, 0, 78, 96
2, 122751, Note_on_c, 0, 78, 0
2, 122752, Note_on_c, 0, 76, 96
2, 122815, Note_on_c, 0, 76, 0
2, 122816, Note_on_c, 0, 74, 96
2, 122879, Note_on_c, 0, 74, 0
2, 122879, Note_on_c, 0, 62, 0
2, 122880, Note_on_c, 0, 73, 96
2, 122943, Note_on_c, 0, 73, 0
2, 122944, Note_on_c, 0, 71, 96
2, 123007, Note_on_c, 0, 71, 0
2, 123008, Note_on_c, 0, 69, 96
2, 123008, Note_on_c, 0, 61, 96
2, 123135, Note_on_c, 0, 61, 0
2, 123135, Note_on_c, 0, 79, 0
2, 123136, Note_on_c, 0, 78, 96
2, 123136, Note_on_c, 0, 62, 96
2, 123199, Note_on_c, 0, 62, 0
2, 123200, Note_on_c, 0, 61, 96
2, 123263, Note_on_c, 0, 61, 0
2, 123263, Note_on_c, 0, 78, 0
2, 123264, Note_on_c, 0, 76, 96
2, 123264, Note_on_c, 0, 59, 96
2, 123327, Note_on_c, 0, 59, 0
2, 123328, Note_on_c, 0, 57, 96
2, 123388, Note_on_c, 0, 69, 0
2, 123391, Note_on_c, 0, 57, 0
2, 123391, Note_on_c, 0, 76, 0
2, 123392, Note_on_c, 0, 78, 96
2, 123392, Note_on_c, 0, 62, 96
2, 123456, Note_on_c, 0, 66, 96
2, 123512, Note_on_c, 0, 78, 0
2, 123519, Note_on_c, 0, 66, 0
2, 123520, Note_on_c, 0, 67, 96
2, 123583, Note_on_c, 0, 67, 0
2, 123584, Note_on_c, 0, 69, 96
2, 123647, Note_on_c, 0, 69, 0
2, 123647, Note_on_c, 0, 62, 0
2, 123648, Note_on_c, 0, 71, 96
2, 123711, Note_on_c, 0, 71, 0
2, 123712, Note_on_c, 0, 73, 96
2, 123775, Note_on_c, 0, 73, 0
2, 123776, Note_on_c, 0, 74, 96
2, 123776, Note_on_c, 0, 61, 96
2, 123840, Note_on_c, 0, 73, 96
2, 123903, Note_on_c, 0, 73, 0
2, 123904, Note_on_c, 0, 71, 96
2, 123967, Note_on_c, 0, 71, 0
2, 123968, Note_on_c, 0, 69, 96
2, 124031, Note_on_c, 0, 69, 0
2, 124031, Note_on_c, 0, 61, 0
2, 124032, Note_on_c, 0, 67, 96
2, 124095, Note_on_c, 0, 67, 0
2, 124096, Note_on_c, 0, 66, 96
2, 124136, Note_on_c, 0, 74, 0
2, 124160, Note_on_c, 0, 67, 96
2, 124160, Note_on_c, 0, 59, 96
2, 124287, Note_on_c, 0, 59, 0
2, 124288, Note_on_c, 0, 61, 96
2, 124351, Note_on_c, 0, 61, 0
2, 124352, Note_on_c, 0, 59, 96
2, 124415, Note_on_c, 0, 59, 0
2, 124416, Note_on_c, 0, 57, 96
2, 124476, Note_on_c, 0, 66, 0
2, 124479, Note_on_c, 0, 57, 0
2, 124480, Note_on_c, 0, 59, 96
2, 124543, Note_on_c, 0, 59, 0
2, 124544, Note_on_c, 0, 61, 96
2, 124544, Note_on_c, 0, 64, 96
2, 124671, Note_on_c, 0, 61, 0
2, 124671, Note_on_c, 0, 67, 0
2, 124672, Note_on_c, 0, 76, 96
2, 124672, Note_on_c, 0, 62, 96
2, 124735, Note_on_c, 0, 62, 0
2, 124736, Note_on_c, 0, 61, 96
2, 124799, Note_on_c, 0, 61, 0
2, 124799, Note_on_c, 0, 76, 0
2, 124800, Note_on_c, 0, 67, 96
2, 124800, Note_on_c, 0, 59, 96
2, 124863, Note_on_c, 0, 59, 0
2, 124864, Note_on_c, 0, 61, 96
2, 124927, Note_on_c, 0, 61, 0
2, 124927, Note_on_c, 0, 67, 0
2, 124927, Note_on_c, 0, 64, 0
2, 124928, Note_on_c, 0, 66, 96
2, 124928, Note_on_c, 0, 62, 96
2, 124991, Note_on_c, 0, 66, 0
2, 124992, Note_on_c, 0, 67, 96
2, 125055, Note_on_c, 0, 67, 0
2, 125055, Note_on_c, 0, 62, 0
2, 125056, Note_on_c, 0, 69, 96
2, 125056, Note_on_c, 0, 61, 96
2, 125056, Note_on_c, 0, 64, 96
2, 125097, Note_on_c, 0, 69, 0
2, 125098, Note_on_c, 0, 67, 96
2, 125119, Note_on_c, 0, 61, 0
2, 125120, Note_on_c, 0, 59, 96
2, 125139, Note_on_c, 0, 67, 0
2, 125140, Note_on_c, 0, 69, 96
2, 125181, Note_on_c, 0, 69, 0
2, 125182, Note_on_c, 0, 67, 96
2, 125183, Note_on_c, 0, 59, 0
2, 125184, Note_on_c, 0, 57, 96
2, 125223, Note_on_c, 0, 67, 0
2, 125224, Note_on_c, 0, 66, 96
2, 125247, Note_on_c, 0, 57, 0
2, 125248, Note_on_c, 0, 55, 96
2, 125265, Note_on_c, 0, 66, 0
2, 125266, Note_on_c, 0, 67, 96
2, 125311, Note_on_c, 0, 67, 0
2, 125311, Note_on_c, 0, 55, 0
2, 125312, Note_on_c, 0, 69, 96
2, 125312, Note_on_c, 0, 54, 96
2, 125439, Note_on_c, 0, 54, 0
2, 125440, Note_on_c, 0, 42, 96
2, 125503, Note_on_c, 0, 64, 0
2, 125504, Note_on_c, 0, 67, 96
2, 125567, Note_on_c, 0, 67, 0
2, 125567, Note_on_c, 0, 42, 0
2, 125568, Note_on_c, 0, 45, 96
2, 125568, Note_on_c, 0, 66, 96
2, 125631, Note_on_c, 0, 66, 0
2, 125632, Note_on_c, 0, 64, 96
2, 125695, Note_on_c, 0, 64, 0
2, 125695, Note_on_c, 0, 45, 0
2, 125696, Note_on_c, 0, 47, 96
2, 125696, Note_on_c, 0, 62, 96
2, 125823, Note_on_c, 0, 47, 0
2, 125823, Note_on_c, 0, 69, 0
2, 125824, Note_on_c, 0, 67, 96
2, 125824, Note_on_c, 0, 40, 96
2, 125887, Note_on_c, 0, 62, 0
2, 125888, Note_on_c, 0, 66, 96
2, 125951, Note_on_c, 0, 66, 0
2, 125951, Note_on_c, 0, 40, 0
2, 125952, Note_on_c, 0, 43, 96
2, 125952, Note_on_c, 0, 64, 96
2, 126015, Note_on_c, 0, 64, 0
2, 126016, Note_on_c, 0, 62, 96
2, 126079, Note_on_c, 0, 62, 0
2, 126079, Note_on_c, 0, 43, 0
2, 126080, Note_on_c, 0, 45, 96
2, 126080, Note_on_c, 0, 61, 96
2, 126207, Note_on_c, 0, 45, 0
2, 126207, Note_on_c, 0, 67, 0
2, 126208, Note_on_c, 0, 66, 96
2, 126208, Note_on_c, 0, 38, 96
2, 126335, Note_on_c, 0, 38, 0
2, 126335, Note_on_c, 0, 61, 0
2, 126336, Note_on_c, 0, 42, 96
2, 126336, Note_on_c, 0, 57, 96
2, 126463, Note_on_c, 0, 57, 0
2, 126463, Note_on_c, 0, 42, 0
2, 126464, Note_on_c, 0, 43, 96
2, 126464, Note_on_c, 0, 59, 96
2, 126591, Note_on_c, 0, 43, 0
2, 126591, Note_on_c, 0, 66, 0
2, 126592, Note_on_c, 0, 64, 96
2, 126592, Note_on_c, 0, 45, 96
2, 126655, Note_on_c, 0, 45, 0
2, 126656, Note_on_c, 0, 43, 96
2, 126719, Note_on_c, 0, 43, 0
2, 126719, Note_on_c, 0, 64, 0
2, 126720, Note_on_c, 0, 67, 96
2, 126720, Note_on_c, 0, 42, 96
2, 126783, Note_on_c, 0, 42, 0
2, 126784, Note_on_c, 0, 40, 96
2, 126847, Note_on_c, 0, 40, 0
2, 126847, Note_on_c, 0, 59, 0
2, 126848, Note_on_c, 0, 45, 96
2, 126848, Note_on_c, 0, 61, 96
2, 126975, Note_on_c, 0, 45, 0
2, 126975, Note_on_c, 0, 67, 0
2, 126976, Note_on_c, 0, 66, 96
2, 126976, Note_on_c, 0, 38, 96
2, 127039, Note_on_c, 0, 61, 0
2, 127040, Note_on_c, 0, 64, 96
2, 127103, Note_on_c, 0, 64, 0
2, 127103, Note_on_c, 0, 38, 0
2, 127104, Note_on_c, 0, 42, 96
2, 127104, Note_on_c, 0, 62, 96
2, 127167, Note_on_c, 0, 62, 0
2, 127168, Note_on_c, 0, 61, 96
2, 127231, Note_on_c, 0, 61, 0
2, 127231, Note_on_c, 0, 42, 0
2, 127232, Note_on_c, 0, 43, 96
2, 127232, Note_on_c, 0, 59, 96
2, 127359, Note_on_c, 0, 43, 0
2, 127359, Note_on_c, 0, 66, 0
2, 127360, Note_on_c, 0, 64, 96
2, 127360, Note_on_c, 0, 37, 96
2, 127423, Note_on_c, 0, 59, 0
2, 127424, Note_on_c, 0, 62, 96
2, 127487, Note_on_c, 0, 62, 0
2, 127487, Note_on_c, 0, 37, 0
2, 127488, Note_on_c, 0, 40, 96
2, 127488, Note_on_c, 0, 61, 96
2, 127551, Note_on_c, 0, 61, 0
2, 127552, Note_on_c, 0, 59, 96
2, 127615, Note_on_c, 0, 59, 0
2, 127615, Note_on_c, 0, 40, 0
2, 127616, Note_on_c, 0, 42, 96
2, 127616, Note_on_c, 0, 57, 96
2, 127743, Note_on_c, 0, 42, 0
2, 127743, Note_on_c, 0, 64, 0
2, 127744, Note_on_c, 0, 62, 96
2, 127744, Note_on_c, 0, 43, 96
2, 127807, Note_on_c, 0, 43, 0
2, 127808, Note_on_c, 0, 42, 96
2, 127854, Note_on_c, 0, 62, 0
2, 127871, Note_on_c, 0, 42, 0
2, 127872, Note_on_c, 0, 66, 96
2, 127872, Note_on_c, 0, 40, 96
2, 127935, Note_on_c, 0, 40, 0
2, 127936, Note_on_c, 0, 38, 96
2, 127982, Note_on_c, 0, 66, 0
2, 127999, Note_on_c, 0, 38, 0
2, 128000, Note_on_c, 0, 59, 96
2, 128000, Note_on_c, 0, 43, 96
2, 128063, Note_on_c, 0, 57, 0
2, 128064, Note_on_c, 0, 55, 96
2, 128127, Note_on_c, 0, 55, 0
2, 128128, Note_on_c, 0, 31, 96
2, 128128, Note_on_c, 0, 57, 96
2, 128191, Note_on_c, 0, 57, 0
2, 128192, Note_on_c, 0, 55, 96
2, 128255, Note_on_c, 0, 55, 0
2, 128255, Note_on_c, 0, 31, 0
2, 128255, Note_on_c, 0, 43, 0
2, 128256, Note_on_c, 0, 43, 96
2, 128256, Note_on_c, 0, 54, 96
2, 128319, Note_on_c, 0, 54, 0
2, 128320, Note_on_c, 0, 55, 96
2, 128383, Note_on_c, 0, 43, 0
2, 128383, Note_on_c, 0, 59, 0
2, 128384, Note_on_c, 0, 61, 96
2, 128384, Note_on_c, 0, 45, 96
2, 128447, Note_on_c, 0, 55, 0
2, 128448, Note_on_c, 0, 55, 96
2, 128511, Note_on_c, 0, 55, 0
2, 128512, Note_on_c, 0, 33, 96
2, 128512, Note_on_c, 0, 57, 96
2, 128575, Note_on_c, 0, 57, 0
2, 128576, Note_on_c, 0, 55, 96
2, 128639, Note_on_c, 0, 55, 0
2, 128639, Note_on_c, 0, 33, 0
2, 128639, Note_on_c, 0, 45, 0
2, 128640, Note_on_c, 0, 45, 96
2, 128640, Note_on_c, 0, 54, 96
2, 128703, Note_on_c, 0, 54, 0
2, 128704, Note_on_c, 0, 55, 96
2, 128767, Note_on_c, 0, 45, 0
2, 128767, Note_on_c, 0, 61, 0
2, 128768, Note_on_c, 0, 62, 96
2, 128768, Note_on_c, 0, 47, 96
2, 128831, Note_on_c, 0, 55, 0
2, 128832, Note_on_c, 0, 54, 96
2, 128895, Note_on_c, 0, 54, 0
2, 128895, Note_on_c, 0, 47, 0
2, 128896, Note_on_c, 0, 42, 96
2, 128896, Note_on_c, 0, 56, 96
2, 128959, Note_on_c, 0, 56, 0
2, 128960, Note_on_c, 0, 58, 96
2, 129023, Note_on_c, 0, 58, 0
2, 129023, Note_on_c, 0, 42, 0
2, 129023, Note_on_c, 0, 62, 0
2, 129024, Note_on_c, 0, 38, 96
2, 129024, Note_on_c, 0, 59, 96
2, 129087, Note_on_c, 0, 59, 0
2, 129088, Note_on_c, 0, 61, 96
2, 129151, Note_on_c, 0, 61, 0
2, 129151, Note_on_c, 0, 38, 0
2, 129152, Note_on_c, 0, 35, 96
2, 129152, Note_on_c, 0, 62, 96
2, 129216, Note_on_c, 0, 67, 96
2, 129279, Note_on_c, 0, 67, 0
2, 129279, Note_on_c, 0, 35, 0
2, 129280, Note_on_c, 0, 69, 96
2, 129280, Note_on_c, 0, 47, 96
2, 129343, Note_on_c, 0, 69, 0
2, 129344, Note_on_c, 0, 67, 96
2, 129407, Note_on_c, 0, 67, 0
2, 129407, Note_on_c, 0, 47, 0
2, 129408, Note_on_c, 0, 66, 96
2, 129408, Note_on_c, 0, 35, 96
2, 129471, Note_on_c, 0, 66, 0
2, 129472, Note_on_c, 0, 67, 96
2, 129535, Note_on_c, 0, 35, 0
2, 129535, Note_on_c, 0, 62, 0
2, 129536, Note_on_c, 0, 37, 96
2, 129536, Note_on_c, 0, 64, 96
2, 129599, Note_on_c, 0, 67, 0
2, 129600, Note_on_c, 0, 67, 96
2, 129663, Note_on_c, 0, 67, 0
2, 129663, Note_on_c, 0, 37, 0
2, 129664, Note_on_c, 0, 69, 96
2, 129664, Note_on_c, 0, 49, 96
2, 129727, Note_on_c, 0, 69, 0
2, 129728, Note_on_c, 0, 67, 96
2, 129791, Note_on_c, 0, 67, 0
2, 129791, Note_on_c, 0, 49, 0
2, 129792, Note_on_c, 0, 66, 96
2, 129792, Note_on_c, 0, 37, 96
2, 129855, Note_on_c, 0, 66, 0
2, 129856, Note_on_c, 0, 67, 96
2, 129919, Note_on_c, 0, 67, 0
2, 129919, Note_on_c, 0, 37, 0
2, 129920, Note_on_c, 0, 66, 96
2, 129920, Note_on_c, 0, 38, 96
2, 130047, Note_on_c, 0, 38, 0
2, 130047, Note_on_c, 0, 64, 0
2, 130048, Note_on_c, 0, 40, 96
2, 130048, Note_on_c, 0, 61, 96
2, 130111, Note_on_c, 0, 40, 0
2, 130112, Note_on_c, 0, 38, 96
2, 130175, Note_on_c, 0, 38, 0
2, 130175, Note_on_c, 0, 61, 0
2, 130176, Note_on_c, 0, 37, 96
2, 130176, Note_on_c, 0, 62, 96
2, 130239, Note_on_c, 0, 37, 0
2, 130240, Note_on_c, 0, 38, 96
2, 130303, Note_on_c, 0, 38, 0
2, 130303, Note_on_c, 0, 66, 0
2, 130304, Note_on_c, 0, 67, 96
2, 130304, Note_on_c, 0, 40, 96
2, 130431, Note_on_c, 0, 40, 0
2, 130431, Note_on_c, 0, 62, 0
2, 130432, Note_on_c, 0, 42, 96
2, 130432, Note_on_c, 0, 61, 96
2, 130495, Note_on_c, 0, 42, 0
2, 130496, Note_on_c, 0, 40, 96
2, 130559, Note_on_c, 0, 40, 0
2, 130559, Note_on_c, 0, 61, 0
2, 130560, Note_on_c, 0, 38, 96
2, 130560, Note_on_c, 0, 62, 96
2, 130623, Note_on_c, 0, 38, 0
2, 130624, Note_on_c, 0, 40, 96
2, 130687, Note_on_c, 0, 40, 0
2, 130687, Note_on_c, 0, 67, 0
2, 130688, Note_on_c, 0, 69, 96
2, 130688, Note_on_c, 0, 42, 96
2, 130815, Note_on_c, 0, 42, 0
2, 130815, Note_on_c, 0, 62, 0
2, 130816, Note_on_c, 0, 43, 96
2, 130816, Note_on_c, 0, 61, 96
2, 130879, Note_on_c, 0, 43, 0
2, 130880, Note_on_c, 0, 42, 96
2, 130943, Note_on_c, 0, 42, 0
2, 130943, Note_on_c, 0, 61, 0
2, 130944, Note_on_c, 0, 40, 96
2, 130944, Note_on_c, 0, 62, 96
2, 131007, Note_on_c, 0, 40, 0
2, 131008, Note_on_c, 0, 42, 96
2, 131071, Note_on_c, 0, 42, 0
2, 131071, Note_on_c, 0, 69, 0
2, 131072, Note_on_c, 0, 71, 96
2, 131072, Note_on_c, 0, 43, 96
2, 131199, Note_on_c, 0, 43, 0
2, 131199, Note_on_c, 0, 71, 0
2, 131200, Note_on_c, 0, 72, 96
2, 131200, Note_on_c, 0, 47, 96
2, 131263, Note_on_c, 0, 72, 0
2, 131264, Note_on_c, 0, 71, 96
2, 131327, Note_on_c, 0, 71, 0
2, 131327, Note_on_c, 0, 47, 0
2, 131328, Note_on_c, 0, 69, 96
2, 131328, Note_on_c, 0, 50, 96
2, 131391, Note_on_c, 0, 69, 0
2, 131392, Note_on_c, 0, 67, 96
2, 131444, Note_on_c, 0, 67, 0
2, 131444, Note_on_c, 0, 62, 0
2, 131448, Note_on_c, 0, 50, 0
2, 131456, Note_on_c, 0, 77, 96
2, 131456, Note_on_c, 0, 55, 96
2, 131519, Note_on_c, 0, 77, 0
2, 131520, Note_on_c, 0, 76, 96
2, 131583, Note_on_c, 0, 76, 0
2, 131584, Note_on_c, 0, 74, 96
2, 131584, Note_on_c, 0, 58, 96
2, 131647, Note_on_c, 0, 74, 0
2, 131648, Note_on_c, 0, 77, 96
2, 131711, Note_on_c, 0, 77, 0
2, 131711, Note_on_c, 0, 58, 0
2, 131712, Note_on_c, 0, 76, 96
2, 131712, Note_on_c, 0, 62, 96
2, 131775, Note_on_c, 0, 76, 0
2, 131776, Note_on_c, 0, 74, 96
2, 131839, Note_on_c, 0, 74, 0
2, 131839, Note_on_c, 0, 62, 0
2, 131840, Note_on_c, 0, 73, 96
2, 131840, Note_on_c, 0, 64, 96
2, 131903, Note_on_c, 0, 73, 0
2, 131904, Note_on_c, 0, 76, 96
2, 131967, Note_on_c, 0, 76, 0
2, 131967, Note_on_c, 0, 64, 0
2, 131968, Note_on_c, 0, 74, 96
2, 131968, Note_on_c, 0, 57, 96
2, 132031, Note_on_c, 0, 74, 0
2, 132032, Note_on_c, 0, 73, 96
2, 132095, Note_on_c, 0, 73, 0
2, 132095, Note_on_c, 0, 57, 0
2, 132096, Note_on_c, 0, 74, 96
2, 132096, Note_on_c, 0, 61, 96
2, 132159, Note_on_c, 0, 74, 0
2, 132160, Note_on_c, 0, 76, 96
2, 132223, Note_on_c, 0, 76, 0
2, 132223, Note_on_c, 0, 61, 0
2, 132224, Note_on_c, 0, 69, 96
2, 132224, Note_on_c, 0, 62, 96
2, 132316, Note_on_c, 0, 55, 0
2, 132352, Note_on_c, 0, 81, 96
2, 132352, Note_on_c, 0, 54, 96
2, 132414, Note_on_c, 0, 69, 0
2, 132415, Note_on_c, 0, 62, 0
2, 132416, Note_on_c, 0, 79, 96
2, 132479, Note_on_c, 0, 79, 0
2, 132479, Note_on_c, 0, 54, 0
2, 132480, Note_on_c, 0, 57, 96
2, 132480, Note_on_c, 0, 78, 96
2, 132543, Note_on_c, 0, 78, 0
2, 132544, Note_on_c, 0, 76, 96
2, 132607, Note_on_c, 0, 76, 0
2, 132607, Note_on_c, 0, 57, 0
2, 132608, Note_on_c, 0, 59, 96
2, 132608, Note_on_c, 0, 74, 96
2, 132735, Note_on_c, 0, 59, 0
2, 132735, Note_on_c, 0, 81, 0
2, 132736, Note_on_c, 0, 79, 96
2, 132736, Note_on_c, 0, 52, 96
2, 132799, Note_on_c, 0, 74, 0
2, 132800, Note_on_c, 0, 78, 96
2, 132863, Note_on_c, 0, 78, 0
2, 132863, Note_on_c, 0, 52, 0
2, 132864, Note_on_c, 0, 55, 96
2, 132864, Note_on_c, 0, 76, 96
2, 132927, Note_on_c, 0, 76, 0
2, 132928, Note_on_c, 0, 74, 96
2, 132991, Note_on_c, 0, 74, 0
2, 132991, Note_on_c, 0, 55, 0
2, 132992, Note_on_c, 0, 57, 96
2, 132992, Note_on_c, 0, 73, 96
2, 133119, Note_on_c, 0, 57, 0
2, 133119, Note_on_c, 0, 79, 0
2, 133120, Note_on_c, 0, 78, 96
2, 133120, Note_on_c, 0, 50, 96
2, 133247, Note_on_c, 0, 50, 0
2, 133247, Note_on_c, 0, 78, 0
2, 133248, Note_on_c, 0, 74, 96
2, 133248, Note_on_c, 0, 54, 96
2, 133375, Note_on_c, 0, 54, 0
2, 133375, Note_on_c, 0, 73, 0
2, 133376, Note_on_c, 0, 47, 96
2, 133376, Note_on_c, 0, 67, 96
2, 133503, Note_on_c, 0, 47, 0
2, 133503, Note_on_c, 0, 74, 0
2, 133504, Note_on_c, 0, 71, 96
2, 133504, Note_on_c, 0, 50, 96
2, 133631, Note_on_c, 0, 50, 0
2, 133631, Note_on_c, 0, 71, 0
2, 133632, Note_on_c, 0, 76, 96
2, 133632, Note_on_c, 0, 49, 96
2, 133759, Note_on_c, 0, 49, 0
2, 133759, Note_on_c, 0, 67, 0
2, 133760, Note_on_c, 0, 50, 96
2, 133760, Note_on_c, 0, 66, 96
2, 133887, Note_on_c, 0, 50, 0
2, 133887, Note_on_c, 0, 76, 0
2, 133888, Note_on_c, 0, 69, 96
2, 133888, Note_on_c, 0, 42, 96
2, 134015, Note_on_c, 0, 42, 0
2, 134015, Note_on_c, 0, 69, 0
2, 134016, Note_on_c, 0, 74, 96
2, 134016, Note_on_c, 0, 43, 96
2, 134143, Note_on_c, 0, 43, 0
2, 134143, Note_on_c, 0, 74, 0
2, 134143, Note_on_c, 0, 66, 0
2, 134144, Note_on_c, 0, 74, 96
2, 134144, Note_on_c, 0, 45, 96
2, 134144, Note_on_c, 0, 69, 96
2, 134144, Note_on_c, 0, 64, 96
2, 134209, Note_on_c, 0, 74, 0
2, 134212, Note_on_c, 0, 73, 96
2, 134248, Note_on_c, 0, 74, 96
2, 134255, Note_on_c, 0, 73, 0
2, 134280, Note_on_c, 0, 45, 0
2, 134280, Note_on_c, 0, 43, 96
2, 134284, Note_on_c, 0, 73, 96
2, 134291, Note_on_c, 0, 74, 0
2, 134413, Note_on_c, 0, 43, 0
2, 134416, Note_on_c, 0, 45, 96
2, 134436, Note_on_c, 0, 73, 0
2, 134458, Note_on_c, 0, 74, 96
2, 134526, Note_on_c, 0, 64, 0
2, 134526, Note_on_c, 0, 69, 0
2, 134569, Note_on_c, 0, 74, 0
2, 134600, Note_on_c, 0, 50, 96
2, 134600, Note_on_c, 0, 38, 96
2, 134600, Note_on_c, 0, 69, 96
2, 134600, Note_on_c, 0, 66, 96
2, 134600, Note_on_c, 0, 74, 96
2, 134606, Note_on_c, 0, 45, 0
2, 135750, Note_on_c, 0, 38, 0
2, 135750, Note_on_c, 0, 69, 0
2, 135750, Note_on_c, 0, 50, 0
2, 135750, Note_on_c, 0, 74, 0
2, 135750, Note_on_c, 0, 66, 0
2, 137664, Note_on_c, 0, 66, 96
2, 137834, Note_on_c, 0, 66, 0
2, 137856, Note_on_c, 0, 38, 96
2, 137856, Note_on_c, 0, 57, 96
2, 137856, Note_on_c, 0, 62, 96
2, 137856, Note_on_c, 0, 66, 96
2, 138240, Note_on_c, 0, 45, 96
2, 138623, Note_on_c, 0, 45, 0
2, 138624, Note_on_c, 0, 50, 96
2, 138719, Note_on_c, 0, 62, 0
2, 138719, Note_on_c, 0, 66, 0
2, 138719, Note_on_c, 0, 57, 0
2, 138720, Note_on_c, 0, 64, 96
2, 138815, Note_on_c, 0, 64, 0
2, 138816, Note_on_c, 0, 66, 96
2, 138911, Note_on_c, 0, 66, 0
2, 138912, Note_on_c, 0, 69, 96
2, 139006, Note_on_c, 0, 38, 0
2, 139007, Note_on_c, 0, 69, 0
2, 139008, Note_on_c, 0, 40, 96
2, 139008, Note_on_c, 0, 67, 96
2, 139103, Note_on_c, 0, 67, 0
2, 139104, Note_on_c, 0, 66, 96
2, 139199, Note_on_c, 0, 66, 0
2, 139200, Note_on_c, 0, 64, 96
2, 139295, Note_on_c, 0, 64, 0
2, 139296, Note_on_c, 0, 62, 96
2, 139391, Note_on_c, 0, 62, 0
2, 139391, Note_on_c, 0, 40, 0
2, 139392, Note_on_c, 0, 42, 96
2, 139392, Note_on_c, 0, 62, 96
2, 139528, Note_on_c, 0, 62, 0
2, 139530, Note_on_c, 0, 69, 96
2, 139774, Note_on_c, 0, 50, 0
2, 139776, Note_on_c, 0, 45, 96
2, 139870, Note_on_c, 0, 69, 0
2, 139872, Note_on_c, 0, 67, 96
2, 139967, Note_on_c, 0, 67, 0
2, 139968, Note_on_c, 0, 66, 96
2, 140063, Note_on_c, 0, 66, 0
2, 140064, Note_on_c, 0, 64, 96
2, 140159, Note_on_c, 0, 64, 0
2, 140159, Note_on_c, 0, 45, 0
2, 140160, Note_on_c, 0, 50, 96
2, 140160, Note_on_c, 0, 66, 96
2, 140255, Note_on_c, 0, 66, 0
2, 140256, Note_on_c, 0, 69, 96
2, 140351, Note_on_c, 0, 69, 0
2, 140352, Note_on_c, 0, 71, 96
2, 140447, Note_on_c, 0, 71, 0
2, 140448, Note_on_c, 0, 72, 96
2, 140542, Note_on_c, 0, 42, 0
2, 140544, Note_on_c, 0, 38, 96
2, 140640, Note_on_c, 0, 69, 96
2, 140735, Note_on_c, 0, 69, 0
2, 140736, Note_on_c, 0, 67, 96
2, 140831, Note_on_c, 0, 67, 0
2, 140832, Note_on_c, 0, 66, 96
2, 140927, Note_on_c, 0, 38, 0
2, 140928, Note_on_c, 0, 43, 96
2, 141013, Note_on_c, 0, 72, 0
2, 141024, Note_on_c, 0, 72, 96
2, 141052, Note_on_c, 0, 66, 0
2, 141119, Note_on_c, 0, 72, 0
2, 141120, Note_on_c, 0, 71, 96
2, 141215, Note_on_c, 0, 71, 0
2, 141216, Note_on_c, 0, 69, 96
2, 141310, Note_on_c, 0, 50, 0
2, 141311, Note_on_c, 0, 69, 0
2, 141311, Note_on_c, 0, 43, 0
2, 141312, Note_on_c, 0, 40, 96
2, 141312, Note_on_c, 0, 71, 96
2, 141407, Note_on_c, 0, 71, 0
2, 141408, Note_on_c, 0, 67, 96
2, 141503, Note_on_c, 0, 67, 0
2, 141504, Note_on_c, 0, 76, 96
2, 141695, Note_on_c, 0, 40, 0
2, 141696, Note_on_c, 0, 45, 96
2, 141791, Note_on_c, 0, 76, 0
2, 141792, Note_on_c, 0, 74, 96
2, 141887, Note_on_c, 0, 74, 0
2, 141888, Note_on_c, 0, 73, 96
2, 141983, Note_on_c, 0, 73, 0
2, 141984, Note_on_c, 0, 71, 96
2, 142079, Note_on_c, 0, 71, 0
2, 142080, Note_on_c, 0, 49, 96
2, 142080, Note_on_c, 0, 69, 96
2, 142175, Note_on_c, 0, 69, 0
2, 142176, Note_on_c, 0, 67, 96
2, 142223, Note_on_c, 0, 67, 0
2, 142224, Note_on_c, 0, 66, 96
2, 142271, Note_on_c, 0, 66, 0
2, 142272, Note_on_c, 0, 67, 96
2, 142367, Note_on_c, 0, 67, 0
2, 142368, Note_on_c, 0, 76, 96
2, 142463, Note_on_c, 0, 76, 0
2, 142463, Note_on_c, 0, 49, 0
2, 142463, Note_on_c, 0, 45, 0
2, 142464, Note_on_c, 0, 50, 96
2, 142464, Note_on_c, 0, 67, 96
2, 142655, Note_on_c, 0, 50, 0
2, 142656, Note_on_c, 0, 49, 96
2, 142751, Note_on_c, 0, 49, 0
2, 142752, Note_on_c, 0, 47, 96
2, 142847, Note_on_c, 0, 47, 0
2, 142848, Note_on_c, 0, 45, 96
2, 142879, Note_on_c, 0, 67, 0
2, 142880, Note_on_c, 0, 66, 96
2, 142911, Note_on_c, 0, 66, 0
2, 142912, Note_on_c, 0, 67, 96
2, 142943, Note_on_c, 0, 67, 0
2, 142943, Note_on_c, 0, 45, 0
2, 142944, Note_on_c, 0, 50, 96
2, 142944, Note_on_c, 0, 66, 96
2, 142975, Note_on_c, 0, 66, 0
2, 142976, Note_on_c, 0, 67, 96
2, 143007, Note_on_c, 0, 67, 0
2, 143008, Note_on_c, 0, 66, 96
2, 143039, Note_on_c, 0, 50, 0
2, 143040, Note_on_c, 0, 42, 96
2, 143135, Note_on_c, 0, 42, 0
2, 143136, Note_on_c, 0, 45, 96
2, 143231, Note_on_c, 0, 45, 0
2, 143232, Note_on_c, 0, 38, 96
2, 143288, Note_on_c, 0, 66, 0
2, 143328, Note_on_c, 0, 69, 96
2, 143423, Note_on_c, 0, 69, 0
2, 143424, Note_on_c, 0, 71, 96
2, 143519, Note_on_c, 0, 71, 0
2, 143520, Note_on_c, 0, 73, 96
2, 143615, Note_on_c, 0, 73, 0
2, 143616, Note_on_c, 0, 74, 96
2, 143711, Note_on_c, 0, 74, 0
2, 143711, Note_on_c, 0, 38, 0
2, 143712, Note_on_c, 0, 45, 96
2, 143712, Note_on_c, 0, 73, 96
2, 143807, Note_on_c, 0, 73, 0
2, 143807, Note_on_c, 0, 45, 0
2, 143808, Note_on_c, 0, 47, 96
2, 143808, Note_on_c, 0, 71, 96
2, 143903, Note_on_c, 0, 71, 0
2, 143903, Note_on_c, 0, 47, 0
2, 143904, Note_on_c, 0, 49, 96
2, 143904, Note_on_c, 0, 69, 96
2, 143999, Note_on_c, 0, 69, 0
2, 143999, Note_on_c, 0, 49, 0
2, 144000, Note_on_c, 0, 50, 96
2, 144000, Note_on_c, 0, 69, 96
2, 144127, Note_on_c, 0, 69, 0
2, 144128, Note_on_c, 0, 78, 96
2, 144192, Note_on_c, 0, 54, 96
2, 144383, Note_on_c, 0, 54, 0
2, 144384, Note_on_c, 0, 57, 96
2, 144575, Note_on_c, 0, 57, 0
2, 144576, Note_on_c, 0, 61, 96
2, 144767, Note_on_c, 0, 61, 0
2, 144768, Note_on_c, 0, 62, 96
2, 144808, Note_on_c, 0, 78, 0
2, 144864, Note_on_c, 0, 79, 96
2, 144959, Note_on_c, 0, 79, 0
2, 144959, Note_on_c, 0, 62, 0
2, 144960, Note_on_c, 0, 57, 96
2, 144960, Note_on_c, 0, 78, 96
2, 145055, Note_on_c, 0, 78, 0
2, 145056, Note_on_c, 0, 76, 96
2, 145150, Note_on_c, 0, 50, 0
2, 145151, Note_on_c, 0, 76, 0
2, 145151, Note_on_c, 0, 57, 0
2, 145152, Note_on_c, 0, 62, 96
2, 145152, Note_on_c, 0, 78, 96
2, 145247, Note_on_c, 0, 78, 0
2, 145248, Note_on_c, 0, 74, 96
2, 145343, Note_on_c, 0, 62, 0
2, 145344, Note_on_c, 0, 66, 96
2, 145345, Note_on_c, 0, 70, 96
2, 145353, Note_on_c, 0, 74, 0
2, 145536, Note_on_c, 0, 55, 96
2, 145605, Note_on_c, 0, 70, 0
2, 145632, Note_on_c, 0, 73, 96
2, 145724, Note_on_c, 0, 66, 0
2, 145727, Note_on_c, 0, 73, 0
2, 145728, Note_on_c, 0, 59, 96
2, 145728, Note_on_c, 0, 71, 96
2, 145823, Note_on_c, 0, 71, 0
2, 145824, Note_on_c, 0, 70, 96
2, 145919, Note_on_c, 0, 70, 0
2, 145919, Note_on_c, 0, 59, 0
2, 145920, Note_on_c, 0, 62, 96
2, 145920, Note_on_c, 0, 70, 96
2, 146047, Note_on_c, 0, 70, 0
2, 146048, Note_on_c, 0, 71, 96
2, 146111, Note_on_c, 0, 62, 0
2, 146112, Note_on_c, 0, 66, 96
2, 146303, Note_on_c, 0, 66, 0
2, 146304, Note_on_c, 0, 67, 96
2, 146387, Note_on_c, 0, 71, 0
2, 146400, Note_on_c, 0, 74, 96
2, 146476, Note_on_c, 0, 55, 0
2, 146495, Note_on_c, 0, 74, 0
2, 146495, Note_on_c, 0, 67, 0
2, 146496, Note_on_c, 0, 57, 96
2, 146496, Note_on_c, 0, 73, 96
2, 146591, Note_on_c, 0, 73, 0
2, 146592, Note_on_c, 0, 71, 96
2, 146687, Note_on_c, 0, 71, 0
2, 146687, Note_on_c, 0, 57, 0
2, 146688, Note_on_c, 0, 55, 96
2, 146688, Note_on_c, 0, 73, 96
2, 146783, Note_on_c, 0, 73, 0
2, 146784, Note_on_c, 0, 74, 96
2, 146879, Note_on_c, 0, 74, 0
2, 146879, Note_on_c, 0, 55, 0
2, 146880, Note_on_c, 0, 54, 96
2, 146880, Note_on_c, 0, 76, 96
2, 146975, Note_on_c, 0, 76, 0
2, 146976, Note_on_c, 0, 78, 96
2, 147071, Note_on_c, 0, 78, 0
2, 147071, Note_on_c, 0, 54, 0
2, 147072, Note_on_c, 0, 52, 96
2, 147072, Note_on_c, 0, 79, 96
2, 147135, Note_on_c, 0, 79, 0
2, 147136, Note_on_c, 0, 78, 96
2, 147199, Note_on_c, 0, 78, 0
2, 147200, Note_on_c, 0, 76, 96
2, 147263, Note_on_c, 0, 76, 0
2, 147264, Note_on_c, 0, 55, 96
2, 147264, Note_on_c, 0, 83, 96
2, 147455, Note_on_c, 0, 55, 0
2, 147456, Note_on_c, 0, 59, 96
2, 147544, Note_on_c, 0, 83, 0
2, 147552, Note_on_c, 0, 81, 96
2, 147647, Note_on_c, 0, 81, 0
2, 147647, Note_on_c, 0, 59, 0
2, 147648, Note_on_c, 0, 63, 96
2, 147648, Note_on_c, 0, 79, 96
2, 147743, Note_on_c, 0, 79, 0
2, 147744, Note_on_c, 0, 78, 96
2, 147839, Note_on_c, 0, 78, 0
2, 147839, Note_on_c, 0, 63, 0
2, 147840, Note_on_c, 0, 64, 96
2, 147840, Note_on_c, 0, 79, 96
2, 147903, Note_on_c, 0, 79, 0
2, 147904, Note_on_c, 0, 78, 96
2, 147967, Note_on_c, 0, 78, 0
2, 147968, Note_on_c, 0, 76, 96
2, 148012, Note_on_c, 0, 52, 0
2, 148031, Note_on_c, 0, 76, 0
2, 148031, Note_on_c, 0, 64, 0
2, 148032, Note_on_c, 0, 59, 96
2, 148032, Note_on_c, 0, 79, 96
2, 148223, Note_on_c, 0, 59, 0
2, 148224, Note_on_c, 0, 64, 96
2, 148312, Note_on_c, 0, 79, 0
2, 148320, Note_on_c, 0, 78, 96
2, 148415, Note_on_c, 0, 78, 0
2, 148415, Note_on_c, 0, 64, 0
2, 148416, Note_on_c, 0, 67, 96
2, 148416, Note_on_c, 0, 76, 96
2, 148511, Note_on_c, 0, 76, 0
2, 148512, Note_on_c, 0, 74, 96
2, 148607, Note_on_c, 0, 74, 0
2, 148608, Note_on_c, 0, 58, 96
2, 148608, Note_on_c, 0, 76, 96
2, 148671, Note_on_c, 0, 76, 0
2, 148672, Note_on_c, 0, 74, 96
2, 148735, Note_on_c, 0, 74, 0
2, 148736, Note_on_c, 0, 73, 96
2, 148796, Note_on_c, 0, 67, 0
2, 148799, Note_on_c, 0, 73, 0
2, 148800, Note_on_c, 0, 61, 96
2, 148800, Note_on_c, 0, 76, 96
2, 148991, Note_on_c, 0, 61, 0
2, 148992, Note_on_c, 0, 64, 96
2, 149080, Note_on_c, 0, 76, 0
2, 149088, Note_on_c, 0, 74, 96
2, 149183, Note_on_c, 0, 74, 0
2, 149183, Note_on_c, 0, 64, 0
2, 149184, Note_on_c, 0, 67, 96
2, 149184, Note_on_c, 0, 73, 96
2, 149279, Note_on_c, 0, 73, 0
2, 149280, Note_on_c, 0, 71, 96
2, 149375, Note_on_c, 0, 71, 0
2, 149375, Note_on_c, 0, 67, 0
2, 149376, Note_on_c, 0, 66, 96
2, 149376, Note_on_c, 0, 73, 96
2, 149439, Note_on_c, 0, 73, 0
2, 149440, Note_on_c, 0, 71, 96
2, 149503, Note_on_c, 0, 71, 0
2, 149504, Note_on_c, 0, 70, 96
2, 149548, Note_on_c, 0, 58, 0
2, 149567, Note_on_c, 0, 70, 0
2, 149568, Note_on_c, 0, 61, 96
2, 149568, Note_on_c, 0, 78, 96
2, 149759, Note_on_c, 0, 61, 0
2, 149760, Note_on_c, 0, 58, 96
2, 149848, Note_on_c, 0, 78, 0
2, 149856, Note_on_c, 0, 76, 96
2, 149951, Note_on_c, 0, 76, 0
2, 149951, Note_on_c, 0, 58, 0
2, 149952, Note_on_c, 0, 54, 96
2, 149952, Note_on_c, 0, 74, 96
2, 150047, Note_on_c, 0, 74, 0
2, 150048, Note_on_c, 0, 73, 96
2, 150143, Note_on_c, 0, 73, 0
2, 150143, Note_on_c, 0, 54, 0
2, 150144, Note_on_c, 0, 59, 96
2, 150144, Note_on_c, 0, 74, 96
2, 150239, Note_on_c, 0, 74, 0
2, 150240, Note_on_c, 0, 71, 96
2, 150316, Note_on_c, 0, 66, 0
2, 150335, Note_on_c, 0, 71, 0
2, 150336, Note_on_c, 0, 62, 96
2, 150336, Note_on_c, 0, 70, 96
2, 150431, Note_on_c, 0, 70, 0
2, 150432, Note_on_c, 0, 71, 96
2, 150527, Note_on_c, 0, 71, 0
2, 150527, Note_on_c, 0, 62, 0
2, 150528, Note_on_c, 0, 66, 96
2, 150528, Note_on_c, 0, 71, 96
2, 150624, Note_on_c, 0, 71, 0
2, 150656, Note_on_c, 0, 74, 96
2, 150719, Note_on_c, 0, 66, 0
2, 150720, Note_on_c, 0, 69, 96
2, 150911, Note_on_c, 0, 69, 0
2, 150912, Note_on_c, 0, 68, 96
2, 151007, Note_on_c, 0, 74, 0
2, 151008, Note_on_c, 0, 76, 96
2, 151055, Note_on_c, 0, 76, 0
2, 151056, Note_on_c, 0, 78, 96
2, 151084, Note_on_c, 0, 59, 0
2, 151103, Note_on_c, 0, 78, 0
2, 151104, Note_on_c, 0, 59, 96
2, 151104, Note_on_c, 0, 76, 96
2, 151199, Note_on_c, 0, 76, 0
2, 151200, Note_on_c, 0, 74, 96
2, 151292, Note_on_c, 0, 68, 0
2, 151295, Note_on_c, 0, 59, 0
2, 151296, Note_on_c, 0, 57, 96
2, 151360, Note_on_c, 0, 74, 0
2, 151392, Note_on_c, 0, 76, 96
2, 151439, Note_on_c, 0, 76, 0
2, 151440, Note_on_c, 0, 78, 96
2, 151487, Note_on_c, 0, 78, 0
2, 151488, Note_on_c, 0, 66, 96
2, 151488, Note_on_c, 0, 76, 96
2, 151583, Note_on_c, 0, 76, 0
2, 151584, Note_on_c, 0, 74, 96
2, 151676, Note_on_c, 0, 57, 0
2, 151679, Note_on_c, 0, 74, 0
2, 151680, Note_on_c, 0, 56, 96
2, 151680, Note_on_c, 0, 74, 96
2, 151775, Note_on_c, 0, 74, 0
2, 151776, Note_on_c, 0, 80, 96
2, 151823, Note_on_c, 0, 80, 0
2, 151824, Note_on_c, 0, 81, 96
2, 151868, Note_on_c, 0, 66, 0
2, 151871, Note_on_c, 0, 81, 0
2, 151872, Note_on_c, 0, 64, 96
2, 151872, Note_on_c, 0, 83, 96
2, 151967, Note_on_c, 0, 64, 0
2, 151968, Note_on_c, 0, 62, 96
2, 152063, Note_on_c, 0, 62, 0
2, 152064, Note_on_c, 0, 64, 96
2, 152152, Note_on_c, 0, 83, 0
2, 152160, Note_on_c, 0, 81, 96
2, 152255, Note_on_c, 0, 81, 0
2, 152255, Note_on_c, 0, 56, 0
2, 152256, Note_on_c, 0, 52, 96
2, 152256, Note_on_c, 0, 80, 96
2, 152351, Note_on_c, 0, 80, 0
2, 152352, Note_on_c, 0, 78, 96
2, 152444, Note_on_c, 0, 64, 0
2, 152447, Note_on_c, 0, 78, 0
2, 152447, Note_on_c, 0, 52, 0
2, 152448, Note_on_c, 0, 54, 96
2, 152448, Note_on_c, 0, 76, 96
2, 152511, Note_on_c, 0, 76, 0
2, 152512, Note_on_c, 0, 74, 96
2, 152575, Note_on_c, 0, 74, 0
2, 152576, Note_on_c, 0, 73, 96
2, 152639, Note_on_c, 0, 73, 0
2, 152640, Note_on_c, 0, 57, 96
2, 152640, Note_on_c, 0, 74, 96
2, 152828, Note_on_c, 0, 54, 0
2, 152831, Note_on_c, 0, 57, 0
2, 152832, Note_on_c, 0, 56, 96
2, 152895, Note_on_c, 0, 74, 0
2, 152896, Note_on_c, 0, 73, 96
2, 152959, Note_on_c, 0, 73, 0
2, 152960, Note_on_c, 0, 71, 96
2, 153023, Note_on_c, 0, 71, 0
2, 153024, Note_on_c, 0, 59, 96
2, 153024, Note_on_c, 0, 78, 96
2, 153087, Note_on_c, 0, 78, 0
2, 153088, Note_on_c, 0, 76, 96
2, 153151, Note_on_c, 0, 76, 0
2, 153152, Note_on_c, 0, 74, 96
2, 153212, Note_on_c, 0, 56, 0
2, 153215, Note_on_c, 0, 74, 0
2, 153215, Note_on_c, 0, 59, 0
2, 153216, Note_on_c, 0, 57, 96
2, 153216, Note_on_c, 0, 73, 96
2, 153311, Note_on_c, 0, 73, 0
2, 153312, Note_on_c, 0, 69, 96
2, 153407, Note_on_c, 0, 69, 0
2, 153408, Note_on_c, 0, 61, 96
2, 153408, Note_on_c, 0, 68, 96
2, 153503, Note_on_c, 0, 68, 0
2, 153504, Note_on_c, 0, 69, 96
2, 153599, Note_on_c, 0, 69, 0
2, 153599, Note_on_c, 0, 61, 0
2, 153600, Note_on_c, 0, 64, 96
2, 153600, Note_on_c, 0, 69, 96
2, 153695, Note_on_c, 0, 69, 0
2, 153728, Note_on_c, 0, 73, 96
2, 153791, Note_on_c, 0, 64, 0
2, 153792, Note_on_c, 0, 67, 96
2, 153983, Note_on_c, 0, 67, 0
2, 153984, Note_on_c, 0, 66, 96
2, 154068, Note_on_c, 0, 73, 0
2, 154080, Note_on_c, 0, 74, 96
2, 154127, Note_on_c, 0, 74, 0
2, 154128, Note_on_c, 0, 76, 96
2, 154156, Note_on_c, 0, 57, 0
2, 154175, Note_on_c, 0, 76, 0
2, 154176, Note_on_c, 0, 57, 96
2, 154176, Note_on_c, 0, 74, 96
2, 154271, Note_on_c, 0, 74, 0
2, 154272, Note_on_c, 0, 73, 96
2, 154364, Note_on_c, 0, 66, 0
2, 154367, Note_on_c, 0, 57, 0
2, 154368, Note_on_c, 0, 55, 96
2, 154432, Note_on_c, 0, 73, 0
2, 154464, Note_on_c, 0, 74, 96
2, 154511, Note_on_c, 0, 74, 0
2, 154512, Note_on_c, 0, 76, 96
2, 154559, Note_on_c, 0, 76, 0
2, 154560, Note_on_c, 0, 64, 96
2, 154560, Note_on_c, 0, 74, 96
2, 154655, Note_on_c, 0, 74, 0
2, 154656, Note_on_c, 0, 73, 96
2, 154748, Note_on_c, 0, 55, 0
2, 154751, Note_on_c, 0, 73, 0
2, 154751, Note_on_c, 0, 64, 0
2, 154752, Note_on_c, 0, 63, 96
2, 154752, Note_on_c, 0, 54, 96
2, 154752, Note_on_c, 0, 72, 96
2, 154862, Note_on_c, 0, 72, 0
2, 154868, Note_on_c, 0, 78, 96
2, 154943, Note_on_c, 0, 63, 0
2, 154944, Note_on_c, 0, 60, 96
2, 154954, Note_on_c, 0, 80, 96
2, 154956, Note_on_c, 0, 78, 0
2, 155039, Note_on_c, 0, 80, 0
2, 155039, Note_on_c, 0, 60, 0
2, 155040, Note_on_c, 0, 59, 96
2, 155040, Note_on_c, 0, 81, 96
2, 155132, Note_on_c, 0, 54, 0
2, 155135, Note_on_c, 0, 59, 0
2, 155136, Note_on_c, 0, 60, 96
2, 155136, Note_on_c, 0, 52, 96
2, 155231, Note_on_c, 0, 81, 0
2, 155232, Note_on_c, 0, 80, 96
2, 155327, Note_on_c, 0, 80, 0
2, 155327, Note_on_c, 0, 60, 0
2, 155328, Note_on_c, 0, 57, 96
2, 155328, Note_on_c, 0, 78, 96
2, 155423, Note_on_c, 0, 78, 0
2, 155424, Note_on_c, 0, 76, 96
2, 155516, Note_on_c, 0, 52, 0
2, 155519, Note_on_c, 0, 76, 0
2, 155520, Note_on_c, 0, 54, 96
2, 155520, Note_on_c, 0, 75, 96
2, 155583, Note_on_c, 0, 75, 0
2, 155584, Note_on_c, 0, 73, 96
2, 155647, Note_on_c, 0, 73, 0
2, 155648, Note_on_c, 0, 71, 96
2, 155708, Note_on_c, 0, 57, 0
2, 155711, Note_on_c, 0, 71, 0
2, 155712, Note_on_c, 0, 57, 96
2, 155712, Note_on_c, 0, 72, 96
2, 155900, Note_on_c, 0, 54, 0
2, 155904, Note_on_c, 0, 51, 96
2, 155967, Note_on_c, 0, 72, 0
2, 155968, Note_on_c, 0, 71, 96
2, 156031, Note_on_c, 0, 71, 0
2, 156032, Note_on_c, 0, 69, 96
2, 156092, Note_on_c, 0, 57, 0
2, 156095, Note_on_c, 0, 69, 0
2, 156096, Note_on_c, 0, 54, 96
2, 156096, Note_on_c, 0, 72, 96
2, 156159, Note_on_c, 0, 72, 0
2, 156160, Note_on_c, 0, 71, 96
2, 156223, Note_on_c, 0, 71, 0
2, 156224, Note_on_c, 0, 69, 96
2, 156284, Note_on_c, 0, 51, 0
2, 156287, Note_on_c, 0, 69, 0
2, 156287, Note_on_c, 0, 54, 0
2, 156288, Note_on_c, 0, 52, 96
2, 156288, Note_on_c, 0, 69, 96
2, 156415, Note_on_c, 0, 69, 0
2, 156416, Note_on_c, 0, 68, 96
2, 156480, Note_on_c, 0, 40, 96
2, 156668, Note_on_c, 0, 52, 0
2, 156671, Note_on_c, 0, 40, 0
2, 156672, Note_on_c, 0, 52, 96
2, 156796, Note_on_c, 0, 68, 0
2, 156864, Note_on_c, 0, 56, 96
2, 156912, Note_on_c, 0, 75, 96
2, 156959, Note_on_c, 0, 75, 0
2, 156960, Note_on_c, 0, 76, 96
2, 157007, Note_on_c, 0, 76, 0
2, 157008, Note_on_c, 0, 78, 96
2, 157055, Note_on_c, 0, 78, 0
2, 157055, Note_on_c, 0, 56, 0
2, 157056, Note_on_c, 0, 57, 96
2, 157056, Note_on_c, 0, 76, 96
2, 157151, Note_on_c, 0, 76, 0
2, 157152, Note_on_c, 0, 75, 96
2, 157247, Note_on_c, 0, 75, 0
2, 157247, Note_on_c, 0, 57, 0
2, 157248, Note_on_c, 0, 60, 96
2, 157248, Note_on_c, 0, 75, 96
2, 157343, Note_on_c, 0, 75, 0
2, 157344, Note_on_c, 0, 76, 96
2, 157439, Note_on_c, 0, 76, 0
2, 157439, Note_on_c, 0, 60, 0
2, 157440, Note_on_c, 0, 57, 96
2, 157440, Note_on_c, 0, 76, 96
2, 157535, Note_on_c, 0, 76, 0
2, 157536, Note_on_c, 0, 80, 96
2, 157631, Note_on_c, 0, 80, 0
2, 157631, Note_on_c, 0, 57, 0
2, 157632, Note_on_c, 0, 54, 96
2, 157632, Note_on_c, 0, 81, 96
2, 157727, Note_on_c, 0, 81, 0
2, 157728, Note_on_c, 0, 84, 96
2, 157823, Note_on_c, 0, 84, 0
2, 157823, Note_on_c, 0, 54, 0
2, 157824, Note_on_c, 0, 56, 96
2, 157824, Note_on_c, 0, 76, 96
2, 157871, Note_on_c, 0, 76, 0
2, 157872, Note_on_c, 0, 77, 96
2, 157919, Note_on_c, 0, 77, 0
2, 157920, Note_on_c, 0, 79, 96
2, 157967, Note_on_c, 0, 79, 0
2, 157968, Note_on_c, 0, 77, 96
2, 158015, Note_on_c, 0, 77, 0
2, 158015, Note_on_c, 0, 56, 0
2, 158016, Note_on_c, 0, 59, 96
2, 158016, Note_on_c, 0, 76, 96
2, 158063, Note_on_c, 0, 76, 0
2, 158064, Note_on_c, 0, 77, 96
2, 158111, Note_on_c, 0, 77, 0
2, 158112, Note_on_c, 0, 76, 96
2, 158169, Note_on_c, 0, 76, 0
2, 158170, Note_on_c, 0, 74, 96
2, 158207, Note_on_c, 0, 59, 0
2, 158208, Note_on_c, 0, 54, 96
2, 158396, Note_on_c, 0, 74, 0
2, 158399, Note_on_c, 0, 54, 0
2, 158400, Note_on_c, 0, 57, 96
2, 158448, Note_on_c, 0, 72, 96
2, 158495, Note_on_c, 0, 72, 0
2, 158496, Note_on_c, 0, 74, 96
2, 158543, Note_on_c, 0, 74, 0
2, 158544, Note_on_c, 0, 76, 96
2, 158591, Note_on_c, 0, 76, 0
2, 158591, Note_on_c, 0, 57, 0
2, 158592, Note_on_c, 0, 74, 96
2, 158592, Note_on_c, 0, 56, 96
2, 158687, Note_on_c, 0, 74, 0
2, 158688, Note_on_c, 0, 72, 96
2, 158783, Note_on_c, 0, 72, 0
2, 158783, Note_on_c, 0, 56, 0
2, 158784, Note_on_c, 0, 72, 96
2, 158784, Note_on_c, 0, 59, 96
2, 158879, Note_on_c, 0, 72, 0
2, 158880, Note_on_c, 0, 74, 96
2, 158972, Note_on_c, 0, 52, 0
2, 158975, Note_on_c, 0, 74, 0
2, 158976, Note_on_c, 0, 56, 96
2, 158976, Note_on_c, 0, 74, 96
2, 159071, Note_on_c, 0, 74, 0
2, 159072, Note_on_c, 0, 76, 96
2, 159167, Note_on_c, 0, 76, 0
2, 159168, Note_on_c, 0, 52, 96
2, 159168, Note_on_c, 0, 80, 96
2, 159263, Note_on_c, 0, 80, 0
2, 159264, Note_on_c, 0, 83, 96
2, 159356, Note_on_c, 0, 56, 0
2, 159359, Note_on_c, 0, 83, 0
2, 159359, Note_on_c, 0, 52, 0
2, 159360, Note_on_c, 0, 53, 96
2, 159360, Note_on_c, 0, 74, 96
2, 159407, Note_on_c, 0, 74, 0
2, 159408, Note_on_c, 0, 76, 96
2, 159455, Note_on_c, 0, 76, 0
2, 159456, Note_on_c, 0, 77, 96
2, 159503, Note_on_c, 0, 77, 0
2, 159504, Note_on_c, 0, 76, 96
2, 159551, Note_on_c, 0, 76, 0
2, 159551, Note_on_c, 0, 59, 0
2, 159552, Note_on_c, 0, 56, 96
2, 159552, Note_on_c, 0, 74, 96
2, 159599, Note_on_c, 0, 74, 0
2, 159600, Note_on_c, 0, 76, 96
2, 159647, Note_on_c, 0, 76, 0
2, 159648, Note_on_c, 0, 74, 96
2, 159711, Note_on_c, 0, 74, 0
2, 159712, Note_on_c, 0, 72, 96
2, 159743, Note_on_c, 0, 56, 0
2, 159744, Note_on_c, 0, 57, 96
2, 159935, Note_on_c, 0, 57, 0
2, 159936, Note_on_c, 0, 60, 96
2, 159983, Note_on_c, 0, 72, 0
2, 159984, Note_on_c, 0, 71, 96
2, 160031, Note_on_c, 0, 71, 0
2, 160032, Note_on_c, 0, 72, 96
2, 160079, Note_on_c, 0, 72, 0
2, 160080, Note_on_c, 0, 74, 96
2, 160127, Note_on_c, 0, 74, 0
2, 160127, Note_on_c, 0, 60, 0
2, 160128, Note_on_c, 0, 57, 96
2, 160128, Note_on_c, 0, 72, 96
2, 160223, Note_on_c, 0, 72, 0
2, 160224, Note_on_c, 0, 71, 96
2, 160300, Note_on_c, 0, 53, 0
2, 160319, Note_on_c, 0, 71, 0
2, 160320, Note_on_c, 0, 54, 96
2, 160320, Note_on_c, 0, 71, 96
2, 160415, Note_on_c, 0, 71, 0
2, 160416, Note_on_c, 0, 72, 96
2, 160511, Note_on_c, 0, 72, 0
2, 160511, Note_on_c, 0, 54, 0
2, 160512, Note_on_c, 0, 52, 96
2, 160512, Note_on_c, 0, 72, 96
2, 160607, Note_on_c, 0, 72, 0
2, 160608, Note_on_c, 0, 78, 96
2, 160655, Note_on_c, 0, 78, 0
2, 160656, Note_on_c, 0, 80, 96
2, 160703, Note_on_c, 0, 80, 0
2, 160703, Note_on_c, 0, 52, 0
2, 160704, Note_on_c, 0, 51, 96
2, 160704, Note_on_c, 0, 81, 96
2, 160784, Note_on_c, 0, 81, 0
2, 160800, Note_on_c, 0, 72, 96
2, 160895, Note_on_c, 0, 51, 0
2, 160896, Note_on_c, 0, 52, 96
2, 160959, Note_on_c, 0, 72, 0
2, 160960, Note_on_c, 0, 71, 96
2, 161023, Note_on_c, 0, 71, 0
2, 161024, Note_on_c, 0, 69, 96
2, 161068, Note_on_c, 0, 57, 0
2, 161087, Note_on_c, 0, 69, 0
2, 161088, Note_on_c, 0, 62, 96
2, 161088, Note_on_c, 0, 56, 96
2, 161088, Note_on_c, 0, 71, 96
2, 161151, Note_on_c, 0, 71, 0
2, 161152, Note_on_c, 0, 69, 96
2, 161215, Note_on_c, 0, 69, 0
2, 161216, Note_on_c, 0, 68, 96
2, 161279, Note_on_c, 0, 68, 0
2, 161279, Note_on_c, 0, 56, 0
2, 161280, Note_on_c, 0, 57, 96
2, 161280, Note_on_c, 0, 77, 96
2, 161343, Note_on_c, 0, 77, 0
2, 161344, Note_on_c, 0, 76, 96
2, 161407, Note_on_c, 0, 76, 0
2, 161408, Note_on_c, 0, 74, 96
2, 161468, Note_on_c, 0, 62, 0
2, 161471, Note_on_c, 0, 74, 0
2, 161472, Note_on_c, 0, 60, 96
2, 161472, Note_on_c, 0, 76, 96
2, 161535, Note_on_c, 0, 76, 0
2, 161536, Note_on_c, 0, 74, 96
2, 161599, Note_on_c, 0, 74, 0
2, 161600, Note_on_c, 0, 72, 96
2, 161660, Note_on_c, 0, 57, 0
2, 161663, Note_on_c, 0, 72, 0
2, 161663, Note_on_c, 0, 60, 0
2, 161664, Note_on_c, 0, 59, 96
2, 161664, Note_on_c, 0, 81, 96
2, 161727, Note_on_c, 0, 81, 0
2, 161728, Note_on_c, 0, 80, 96
2, 161791, Note_on_c, 0, 80, 0
2, 161792, Note_on_c, 0, 78, 96
2, 161855, Note_on_c, 0, 78, 0
2, 161855, Note_on_c, 0, 59, 0
2, 161856, Note_on_c, 0, 64, 96
2, 161856, Note_on_c, 0, 80, 96
2, 161919, Note_on_c, 0, 80, 0
2, 161920, Note_on_c, 0, 78, 96
2, 161983, Note_on_c, 0, 78, 0
2, 161984, Note_on_c, 0, 76, 96
2, 162047, Note_on_c, 0, 76, 0
2, 162047, Note_on_c, 0, 64, 0
2, 162048, Note_on_c, 0, 63, 96
2, 162048, Note_on_c, 0, 84, 96
2, 162111, Note_on_c, 0, 84, 0
2, 162112, Note_on_c, 0, 83, 96
2, 162175, Note_on_c, 0, 83, 0
2, 162176, Note_on_c, 0, 81, 96
2, 162239, Note_on_c, 0, 81, 0
2, 162239, Note_on_c, 0, 63, 0
2, 162240, Note_on_c, 0, 62, 96
2, 162240, Note_on_c, 0, 83, 96
2, 162303, Note_on_c, 0, 83, 0
2, 162304, Note_on_c, 0, 81, 96
2, 162326, Note_on_c, 0, 52, 0
2, 162367, Note_on_c, 0, 81, 0
2, 162368, Note_on_c, 0, 80, 96
2, 162431, Note_on_c, 0, 80, 0
2, 162432, Note_on_c, 0, 53, 96
2, 162432, Note_on_c, 0, 80, 96
2, 162620, Note_on_c, 0, 62, 0
2, 162624, Note_on_c, 0, 59, 96
2, 162635, Note_on_c, 0, 80, 0
2, 162636, Note_on_c, 0, 81, 96
2, 162679, Note_on_c, 0, 81, 0
2, 162680, Note_on_c, 0, 80, 96
2, 162712, Note_on_c, 0, 53, 0
2, 162723, Note_on_c, 0, 80, 0
2, 162724, Note_on_c, 0, 78, 96
2, 162767, Note_on_c, 0, 78, 0
2, 162768, Note_on_c, 0, 76, 96
2, 162815, Note_on_c, 0, 76, 0
2, 162815, Note_on_c, 0, 59, 0
2, 162816, Note_on_c, 0, 60, 96
2, 162816, Note_on_c, 0, 54, 96
2, 162816, Note_on_c, 0, 75, 96
2, 162911, Note_on_c, 0, 75, 0
2, 162912, Note_on_c, 0, 81, 96
2, 162992, Note_on_c, 0, 81, 0
2, 163007, Note_on_c, 0, 60, 0
2, 163008, Note_on_c, 0, 64, 96
2, 163008, Note_on_c, 0, 69, 96
2, 163103, Note_on_c, 0, 64, 0
2, 163104, Note_on_c, 0, 63, 96
2, 163182, Note_on_c, 0, 63, 0
2, 163196, Note_on_c, 0, 54, 0
2, 163198, Note_on_c, 0, 69, 0
2, 163200, Note_on_c, 0, 64, 96
2, 163296, Note_on_c, 0, 71, 96
2, 163385, Note_on_c, 0, 71, 0
2, 163392, Note_on_c, 0, 52, 96
2, 163392, Note_on_c, 0, 73, 96
2, 163580, Note_on_c, 0, 64, 0
2, 163584, Note_on_c, 0, 59, 96
2, 163584, Note_on_c, 0, 68, 96
2, 163672, Note_on_c, 0, 73, 0
2, 163679, Note_on_c, 0, 68, 0
2, 163680, Note_on_c, 0, 74, 96
2, 163727, Note_on_c, 0, 74, 0
2, 163728, Note_on_c, 0, 76, 96
2, 163775, Note_on_c, 0, 76, 0
2, 163775, Note_on_c, 0, 59, 0
2, 163776, Note_on_c, 0, 64, 96
2, 163776, Note_on_c, 0, 74, 96
2, 163830, Note_on_c, 0, 74, 0
2, 163831, Note_on_c, 0, 73, 96
2, 163886, Note_on_c, 0, 73, 0
2, 163887, Note_on_c, 0, 71, 96
2, 163967, Note_on_c, 0, 71, 0
2, 163967, Note_on_c, 0, 52, 0
2, 163968, Note_on_c, 0, 54, 96
2, 163968, Note_on_c, 0, 69, 96
2, 164059, Note_on_c, 0, 64, 0
2, 164064, Note_on_c, 0, 57, 96
2, 164159, Note_on_c, 0, 57, 0
2, 164160, Note_on_c, 0, 61, 96
2, 164255, Note_on_c, 0, 61, 0
2, 164256, Note_on_c, 0, 64, 96
2, 164351, Note_on_c, 0, 64, 0
2, 164352, Note_on_c, 0, 62, 96
2, 164408, Note_on_c, 0, 54, 0
2, 164448, Note_on_c, 0, 54, 96
2, 164543, Note_on_c, 0, 54, 0
2, 164544, Note_on_c, 0, 52, 96
2, 164639, Note_on_c, 0, 52, 0
2, 164640, Note_on_c, 0, 50, 96
2, 164732, Note_on_c, 0, 62, 0
2, 164735, Note_on_c, 0, 50, 0
2, 164735, Note_on_c, 0, 69, 0
2, 164736, Note_on_c, 0, 49, 96
2, 164832, Note_on_c, 0, 52, 96
2, 164927, Note_on_c, 0, 52, 0
2, 164928, Note_on_c, 0, 57, 96
2, 165023, Note_on_c, 0, 57, 0
2, 165024, Note_on_c, 0, 61, 96
2, 165119, Note_on_c, 0, 61, 0
2, 165120, Note_on_c, 0, 64, 96
2, 165216, Note_on_c, 0, 66, 96
2, 165311, Note_on_c, 0, 66, 0
2, 165312, Note_on_c, 0, 67, 96
2, 165376, Note_on_c, 0, 49, 0
2, 165408, Note_on_c, 0, 45, 96
2, 165500, Note_on_c, 0, 64, 0
2, 165503, Note_on_c, 0, 45, 0
2, 165504, Note_on_c, 0, 50, 96
2, 165551, Note_on_c, 0, 67, 0
2, 165552, Note_on_c, 0, 64, 96
2, 165599, Note_on_c, 0, 64, 0
2, 165600, Note_on_c, 0, 66, 96
2, 165647, Note_on_c, 0, 66, 0
2, 165648, Note_on_c, 0, 67, 96
2, 165695, Note_on_c, 0, 67, 0
2, 165696, Note_on_c, 0, 57, 96
2, 165696, Note_on_c, 0, 66, 96
2, 165791, Note_on_c, 0, 66, 0
2, 165792, Note_on_c, 0, 62, 96
2, 165887, Note_on_c, 0, 57, 0
2, 165888, Note_on_c, 0, 59, 96
2, 165983, Note_on_c, 0, 62, 0
2, 165984, Note_on_c, 0, 62, 96
2, 166031, Note_on_c, 0, 62, 0
2, 166032, Note_on_c, 0, 64, 96
2, 166079, Note_on_c, 0, 64, 0
2, 166079, Note_on_c, 0, 50, 0
2, 166080, Note_on_c, 0, 51, 96
2, 166080, Note_on_c, 0, 66, 96
2, 166127, Note_on_c, 0, 66, 0
2, 166128, Note_on_c, 0, 68, 96
2, 166175, Note_on_c, 0, 68, 0
2, 166176, Note_on_c, 0, 69, 96
2, 166271, Note_on_c, 0, 51, 0
2, 166272, Note_on_c, 0, 52, 96
2, 166303, Note_on_c, 0, 69, 0
2, 166320, Note_on_c, 0, 66, 96
2, 166367, Note_on_c, 0, 66, 0
2, 166368, Note_on_c, 0, 68, 96
2, 166415, Note_on_c, 0, 68, 0
2, 166416, Note_on_c, 0, 69, 96
2, 166463, Note_on_c, 0, 69, 0
2, 166463, Note_on_c, 0, 59, 0
2, 166464, Note_on_c, 0, 59, 96
2, 166464, Note_on_c, 0, 68, 96
2, 166559, Note_on_c, 0, 68, 0
2, 166560, Note_on_c, 0, 64, 96
2, 166655, Note_on_c, 0, 59, 0
2, 166656, Note_on_c, 0, 61, 96
2, 166751, Note_on_c, 0, 64, 0
2, 166752, Note_on_c, 0, 64, 96
2, 166799, Note_on_c, 0, 64, 0
2, 166800, Note_on_c, 0, 66, 96
2, 166847, Note_on_c, 0, 66, 0
2, 166847, Note_on_c, 0, 52, 0
2, 166848, Note_on_c, 0, 53, 96
2, 166848, Note_on_c, 0, 68, 96
2, 166895, Note_on_c, 0, 68, 0
2, 166896, Note_on_c, 0, 69, 96
2, 166943, Note_on_c, 0, 69, 0
2, 166944, Note_on_c, 0, 71, 96
2, 167039, Note_on_c, 0, 53, 0
2, 167040, Note_on_c, 0, 54, 96
2, 167071, Note_on_c, 0, 71, 0
2, 167088, Note_on_c, 0, 68, 96
2, 167135, Note_on_c, 0, 68, 0
2, 167136, Note_on_c, 0, 69, 96
2, 167183, Note_on_c, 0, 69, 0
2, 167184, Note_on_c, 0, 71, 96
2, 167231, Note_on_c, 0, 71, 0
2, 167231, Note_on_c, 0, 61, 0
2, 167232, Note_on_c, 0, 61, 96
2, 167232, Note_on_c, 0, 69, 96
2, 167327, Note_on_c, 0, 69, 0
2, 167328, Note_on_c, 0, 66, 96
2, 167423, Note_on_c, 0, 61, 0
2, 167424, Note_on_c, 0, 62, 96
2, 167519, Note_on_c, 0, 66, 0
2, 167520, Note_on_c, 0, 66, 96
2, 167567, Note_on_c, 0, 66, 0
2, 167568, Note_on_c, 0, 68, 96
2, 167615, Note_on_c, 0, 68, 0
2, 167615, Note_on_c, 0, 54, 0
2, 167616, Note_on_c, 0, 54, 96
2, 167616, Note_on_c, 0, 69, 96
2, 167663, Note_on_c, 0, 69, 0
2, 167664, Note_on_c, 0, 71, 96
2, 167711, Note_on_c, 0, 71, 0
2, 167712, Note_on_c, 0, 73, 96
2, 167807, Note_on_c, 0, 54, 0
2, 167808, Note_on_c, 0, 56, 96
2, 167839, Note_on_c, 0, 73, 0
2, 167856, Note_on_c, 0, 69, 96
2, 167903, Note_on_c, 0, 69, 0
2, 167904, Note_on_c, 0, 71, 96
2, 167951, Note_on_c, 0, 71, 0
2, 167952, Note_on_c, 0, 73, 96
2, 167999, Note_on_c, 0, 73, 0
2, 167999, Note_on_c, 0, 62, 0
2, 168000, Note_on_c, 0, 62, 96
2, 168000, Note_on_c, 0, 71, 96
2, 168095, Note_on_c, 0, 71, 0
2, 168096, Note_on_c, 0, 68, 96
2, 168191, Note_on_c, 0, 62, 0
2, 168192, Note_on_c, 0, 64, 96
2, 168287, Note_on_c, 0, 68, 0
2, 168288, Note_on_c, 0, 68, 96
2, 168335, Note_on_c, 0, 68, 0
2, 168336, Note_on_c, 0, 69, 96
2, 168383, Note_on_c, 0, 69, 0
2, 168383, Note_on_c, 0, 56, 0
2, 168384, Note_on_c, 0, 56, 96
2, 168384, Note_on_c, 0, 71, 96
2, 168431, Note_on_c, 0, 71, 0
2, 168432, Note_on_c, 0, 73, 96
2, 168479, Note_on_c, 0, 73, 0
2, 168480, Note_on_c, 0, 74, 96
2, 168575, Note_on_c, 0, 56, 0
2, 168576, Note_on_c, 0, 57, 96
2, 168639, Note_on_c, 0, 74, 0
2, 168640, Note_on_c, 0, 73, 96
2, 168703, Note_on_c, 0, 73, 0
2, 168704, Note_on_c, 0, 71, 96
2, 168767, Note_on_c, 0, 71, 0
2, 168767, Note_on_c, 0, 64, 0
2, 168768, Note_on_c, 0, 64, 96
2, 168768, Note_on_c, 0, 73, 96
2, 168831, Note_on_c, 0, 73, 0
2, 168832, Note_on_c, 0, 71, 96
2, 168895, Note_on_c, 0, 71, 0
2, 168896, Note_on_c, 0, 69, 96
2, 168956, Note_on_c, 0, 57, 0
2, 168959, Note_on_c, 0, 69, 0
2, 168960, Note_on_c, 0, 55, 96
2, 168960, Note_on_c, 0, 74, 96
2, 169023, Note_on_c, 0, 74, 0
2, 169024, Note_on_c, 0, 72, 96
2, 169087, Note_on_c, 0, 72, 0
2, 169088, Note_on_c, 0, 71, 96
2, 169148, Note_on_c, 0, 64, 0
2, 169151, Note_on_c, 0, 71, 0
2, 169152, Note_on_c, 0, 64, 96
2, 169152, Note_on_c, 0, 72, 96
2, 169215, Note_on_c, 0, 72, 0
2, 169216, Note_on_c, 0, 71, 96
2, 169279, Note_on_c, 0, 71, 0
2, 169280, Note_on_c, 0, 69, 96
2, 169340, Note_on_c, 0, 55, 0
2, 169343, Note_on_c, 0, 69, 0
2, 169343, Note_on_c, 0, 64, 0
2, 169344, Note_on_c, 0, 54, 96
2, 169344, Note_on_c, 0, 72, 96
2, 169453, Note_on_c, 0, 72, 0
2, 169454, Note_on_c, 0, 63, 96
2, 169536, Note_on_c, 0, 57, 96
2, 169598, Note_on_c, 0, 63, 0
2, 169632, Note_on_c, 0, 64, 96
2, 169724, Note_on_c, 0, 54, 0
2, 169728, Note_on_c, 0, 52, 96
2, 169776, Note_on_c, 0, 64, 0
2, 169792, Note_on_c, 0, 69, 96
2, 169855, Note_on_c, 0, 69, 0
2, 169856, Note_on_c, 0, 71, 96
2, 169916, Note_on_c, 0, 57, 0
2, 169919, Note_on_c, 0, 71, 0
2, 169920, Note_on_c, 0, 57, 96
2, 169920, Note_on_c, 0, 72, 96
2, 169983, Note_on_c, 0, 72, 0
2, 169984, Note_on_c, 0, 71, 96
2, 170047, Note_on_c, 0, 71, 0
2, 170048, Note_on_c, 0, 69, 96
2, 170108, Note_on_c, 0, 52, 0
2, 170111, Note_on_c, 0, 69, 0
2, 170111, Note_on_c, 0, 57, 0
2, 170112, Note_on_c, 0, 50, 96
2, 170112, Note_on_c, 0, 77, 96
2, 170221, Note_on_c, 0, 77, 0
2, 170222, Note_on_c, 0, 68, 96
2, 170304, Note_on_c, 0, 59, 96
2, 170366, Note_on_c, 0, 68, 0
2, 170400, Note_on_c, 0, 69, 96
2, 170492, Note_on_c, 0, 50, 0
2, 170495, Note_on_c, 0, 59, 0
2, 170496, Note_on_c, 0, 48, 96
2, 170496, Note_on_c, 0, 52, 96
2, 170544, Note_on_c, 0, 69, 0
2, 170560, Note_on_c, 0, 74, 96
2, 170623, Note_on_c, 0, 74, 0
2, 170624, Note_on_c, 0, 76, 96
2, 170687, Note_on_c, 0, 76, 0
2, 170687, Note_on_c, 0, 52, 0
2, 170688, Note_on_c, 0, 57, 96
2, 170688, Note_on_c, 0, 77, 96
2, 170751, Note_on_c, 0, 77, 0
2, 170752, Note_on_c, 0, 76, 96
2, 170815, Note_on_c, 0, 76, 0
2, 170816, Note_on_c, 0, 74, 96
2, 170876, Note_on_c, 0, 48, 0
2, 170879, Note_on_c, 0, 74, 0
2, 170879, Note_on_c, 0, 57, 0
2, 170880, Note_on_c, 0, 47, 96
2, 170880, Note_on_c, 0, 80, 96
2, 170944, Note_on_c, 0, 74, 96
2, 170990, Note_on_c, 0, 80, 0
2, 171008, Note_on_c, 0, 76, 96
2, 171009, Note_on_c, 0, 74, 0
2, 171072, Note_on_c, 0, 50, 96
2, 171072, Note_on_c, 0, 77, 96
2, 171073, Note_on_c, 0, 76, 0
2, 171136, Note_on_c, 0, 76, 96
2, 171137, Note_on_c, 0, 77, 0
2, 171200, Note_on_c, 0, 74, 96
2, 171201, Note_on_c, 0, 76, 0
2, 171260, Note_on_c, 0, 47, 0
2, 171264, Note_on_c, 0, 45, 96
2, 171264, Note_on_c, 0, 81, 96
2, 171265, Note_on_c, 0, 74, 0
2, 171328, Note_on_c, 0, 74, 96
2, 171374, Note_on_c, 0, 81, 0
2, 171392, Note_on_c, 0, 76, 96
2, 171393, Note_on_c, 0, 74, 0
2, 171452, Note_on_c, 0, 50, 0
2, 171456, Note_on_c, 0, 50, 96
2, 171456, Note_on_c, 0, 77, 96
2, 171457, Note_on_c, 0, 76, 0
2, 171520, Note_on_c, 0, 76, 96
2, 171521, Note_on_c, 0, 77, 0
2, 171584, Note_on_c, 0, 74, 96
2, 171585, Note_on_c, 0, 76, 0
2, 171644, Note_on_c, 0, 45, 0
2, 171647, Note_on_c, 0, 74, 0
2, 171648, Note_on_c, 0, 44, 96
2, 171648, Note_on_c, 0, 83, 96
2, 171698, Note_on_c, 0, 77, 96
2, 171738, Note_on_c, 0, 83, 0
2, 171745, Note_on_c, 0, 77, 0
2, 171748, Note_on_c, 0, 76, 96
2, 171795, Note_on_c, 0, 76, 0
2, 171798, Note_on_c, 0, 74, 96
2, 171836, Note_on_c, 0, 50, 0
2, 171839, Note_on_c, 0, 44, 0
2, 171845, Note_on_c, 0, 74, 0
2, 171848, Note_on_c, 0, 56, 96
2, 171848, Note_on_c, 0, 76, 96
2, 171940, Note_on_c, 0, 71, 96
2, 171943, Note_on_c, 0, 76, 0
2, 172031, Note_on_c, 0, 56, 0
2, 172032, Note_on_c, 0, 57, 96
2, 172032, Note_on_c, 0, 72, 96
2, 172035, Note_on_c, 0, 71, 0
2, 172127, Note_on_c, 0, 72, 0
2, 172128, Note_on_c, 0, 68, 96
2, 172223, Note_on_c, 0, 68, 0
2, 172224, Note_on_c, 0, 60, 96
2, 172224, Note_on_c, 0, 69, 96
2, 172333, Note_on_c, 0, 69, 0
2, 172334, Note_on_c, 0, 63, 96
2, 172412, Note_on_c, 0, 57, 0
2, 172414, Note_on_c, 0, 63, 0
2, 172415, Note_on_c, 0, 60, 0
2, 172416, Note_on_c, 0, 52, 96
2, 172416, Note_on_c, 0, 59, 96
2, 172464, Note_on_c, 0, 64, 96
2, 172511, Note_on_c, 0, 64, 0
2, 172512, Note_on_c, 0, 66, 96
2, 172559, Note_on_c, 0, 66, 0
2, 172560, Note_on_c, 0, 68, 96
2, 172607, Note_on_c, 0, 68, 0
2, 172607, Note_on_c, 0, 59, 0
2, 172608, Note_on_c, 0, 57, 96
2, 172608, Note_on_c, 0, 69, 96
2, 172655, Note_on_c, 0, 69, 0
2, 172656, Note_on_c, 0, 71, 96
2, 172703, Note_on_c, 0, 71, 0
2, 172704, Note_on_c, 0, 73, 96
2, 172751, Note_on_c, 0, 73, 0
2, 172752, Note_on_c, 0, 74, 96
2, 172799, Note_on_c, 0, 57, 0
2, 172800, Note_on_c, 0, 59, 96
2, 172895, Note_on_c, 0, 74, 0
2, 172896, Note_on_c, 0, 71, 96
2, 172991, Note_on_c, 0, 71, 0
2, 172991, Note_on_c, 0, 59, 0
2, 172992, Note_on_c, 0, 62, 96
2, 172992, Note_on_c, 0, 66, 96
2, 173087, Note_on_c, 0, 66, 0
2, 173088, Note_on_c, 0, 68, 96
2, 173183, Note_on_c, 0, 68, 0
2, 173183, Note_on_c, 0, 52, 0
2, 173184, Note_on_c, 0, 57, 96
2, 173184, Note_on_c, 0, 69, 96
2, 173375, Note_on_c, 0, 57, 0
2, 173376, Note_on_c, 0, 45, 96
2, 173424, Note_on_c, 0, 66, 96
2, 173471, Note_on_c, 0, 66, 0
2, 173472, Note_on_c, 0, 62, 0
2, 173472, Note_on_c, 0, 64, 96
2, 173519, Note_on_c, 0, 64, 0
2, 173520, Note_on_c, 0, 62, 96
2, 173567, Note_on_c, 0, 62, 0
2, 173568, Note_on_c, 0, 49, 96
2, 173568, Note_on_c, 0, 64, 96
2, 173644, Note_on_c, 0, 69, 0
2, 173663, Note_on_c, 0, 64, 0
2, 173664, Note_on_c, 0, 68, 96
2, 173759, Note_on_c, 0, 49, 0
2, 173760, Note_on_c, 0, 52, 96
2, 173844, Note_on_c, 0, 68, 0
2, 173856, Note_on_c, 0, 69, 96
2, 173951, Note_on_c, 0, 52, 0
2, 173952, Note_on_c, 0, 57, 96
2, 173952, Note_on_c, 0, 62, 96
2, 174143, Note_on_c, 0, 62, 0
2, 174144, Note_on_c, 0, 61, 96
2, 174376, Note_on_c, 0, 45, 0
2, 174431, Note_on_c, 0, 69, 0
2, 174524, Note_on_c, 0, 61, 0
2, 174622, Note_on_c, 0, 57, 0
2, 174624, Note_on_c, 0, 76, 96
2, 174719, Note_on_c, 0, 76, 0
2, 174720, Note_on_c, 0, 45, 96
2, 174720, Note_on_c, 0, 73, 96
2, 174720, Note_on_c, 0, 69, 96
2, 174720, Note_on_c, 0, 76, 96
2, 175104, Note_on_c, 0, 49, 96
2, 175487, Note_on_c, 0, 49, 0
2, 175488, Note_on_c, 0, 52, 96
2, 175583, Note_on_c, 0, 69, 0
2, 175583, Note_on_c, 0, 76, 0
2, 175583, Note_on_c, 0, 73, 0
2, 175584, Note_on_c, 0, 76, 96
2, 175679, Note_on_c, 0, 76, 0
2, 175680, Note_on_c, 0, 78, 96
2, 175775, Note_on_c, 0, 78, 0
2, 175776, Note_on_c, 0, 79, 96
2, 175870, Note_on_c, 0, 45, 0
2, 175871, Note_on_c, 0, 79, 0
2, 175871, Note_on_c, 0, 52, 0
2, 175872, Note_on_c, 0, 57, 96
2, 175872, Note_on_c, 0, 78, 96
2, 175967, Note_on_c, 0, 78, 0
2, 175968, Note_on_c, 0, 76, 96
2, 176063, Note_on_c, 0, 76, 0
2, 176064, Note_on_c, 0, 74, 96
2, 176159, Note_on_c, 0, 74, 0
2, 176160, Note_on_c, 0, 73, 96
2, 176255, Note_on_c, 0, 73, 0
2, 176255, Note_on_c, 0, 57, 0
2, 176256, Note_on_c, 0, 55, 96
2, 176256, Note_on_c, 0, 76, 96
2, 176256, Note_on_c, 0, 73, 96
2, 176256, Note_on_c, 0, 81, 96
2, 176640, Note_on_c, 0, 61, 96
2, 176735, Note_on_c, 0, 81, 0
2, 176735, Note_on_c, 0, 73, 0
2, 176735, Note_on_c, 0, 76, 0
2, 176736, Note_on_c, 0, 79, 96
2, 176831, Note_on_c, 0, 79, 0
2, 176832, Note_on_c, 0, 78, 96
2, 176927, Note_on_c, 0, 78, 0
2, 176928, Note_on_c, 0, 76, 96
2, 177023, Note_on_c, 0, 76, 0
2, 177023, Note_on_c, 0, 61, 0
2, 177024, Note_on_c, 0, 64, 96
2, 177024, Note_on_c, 0, 74, 96
2, 177119, Note_on_c, 0, 74, 0
2, 177120, Note_on_c, 0, 71, 96
2, 177215, Note_on_c, 0, 71, 0
2, 177216, Note_on_c, 0, 73, 96
2, 177311, Note_on_c, 0, 73, 0
2, 177312, Note_on_c, 0, 76, 96
2, 177406, Note_on_c, 0, 55, 0
2, 177408, Note_on_c, 0, 55, 96
2, 177484, Note_on_c, 0, 76, 0
2, 177504, Note_on_c, 0, 74, 96
2, 177599, Note_on_c, 0, 74, 0
2, 177600, Note_on_c, 0, 73, 96
2, 177695, Note_on_c, 0, 73, 0
2, 177696, Note_on_c, 0, 71, 96
2, 177791, Note_on_c, 0, 55, 0
2, 177792, Note_on_c, 0, 54, 96
2, 177856, Note_on_c, 0, 71, 0
2, 177888, Note_on_c, 0, 69, 96
2, 177983, Note_on_c, 0, 69, 0
2, 177984, Note_on_c, 0, 73, 96
2, 178079, Note_on_c, 0, 73, 0
2, 178080, Note_on_c, 0, 74, 96
2, 178174, Note_on_c, 0, 64, 0
2, 178175, Note_on_c, 0, 54, 0
2, 178176, Note_on_c, 0, 62, 96
2, 178176, Note_on_c, 0, 59, 96
2, 178240, Note_on_c, 0, 74, 0
2, 178260, Note_on_c, 0, 73, 96
2, 178314, Note_on_c, 0, 71, 96
2, 178316, Note_on_c, 0, 73, 0
2, 178368, Note_on_c, 0, 78, 96
2, 178369, Note_on_c, 0, 71, 0
2, 178463, Note_on_c, 0, 78, 0
2, 178464, Note_on_c, 0, 79, 96
2, 178559, Note_on_c, 0, 59, 0
2, 178560, Note_on_c, 0, 52, 96
2, 178644, Note_on_c, 0, 79, 0
2, 178644, Note_on_c, 0, 76, 96
2, 178694, Note_on_c, 0, 76, 0
2, 178695, Note_on_c, 0, 78, 96
2, 178745, Note_on_c, 0, 78, 0
2, 178746, Note_on_c, 0, 79, 96
2, 178796, Note_on_c, 0, 79, 0
2, 178800, Note_on_c, 0, 81, 96
2, 178850, Note_on_c, 0, 81, 0
2, 178854, Note_on_c, 0, 83, 96
2, 178943, Note_on_c, 0, 52, 0
2, 178943, Note_on_c, 0, 62, 0
2, 178944, Note_on_c, 0, 57, 96
2, 178944, Note_on_c, 0, 61, 96
2, 178974, Note_on_c, 0, 83, 0
2, 178992, Note_on_c, 0, 81, 96
2, 179039, Note_on_c, 0, 81, 0
2, 179040, Note_on_c, 0, 79, 96
2, 179087, Note_on_c, 0, 79, 0
2, 179088, Note_on_c, 0, 78, 96
2, 179135, Note_on_c, 0, 78, 0
2, 179136, Note_on_c, 0, 79, 96
2, 179240, Note_on_c, 0, 79, 0
2, 179254, Note_on_c, 0, 76, 96
2, 179327, Note_on_c, 0, 61, 0
2, 179327, Note_on_c, 0, 57, 0
2, 179328, Note_on_c, 0, 62, 96
2, 179519, Note_on_c, 0, 62, 0
2, 179520, Note_on_c, 0, 61, 96
2, 179615, Note_on_c, 0, 61, 0
2, 179616, Note_on_c, 0, 59, 96
2, 179711, Note_on_c, 0, 59, 0
2, 179712, Note_on_c, 0, 57, 96
2, 179712, Note_on_c, 0, 78, 96
2, 179714, Note_on_c, 0, 76, 0
2, 179807, Note_on_c, 0, 57, 0
2, 179808, Note_on_c, 0, 62, 96
2, 179903, Note_on_c, 0, 62, 0
2, 179904, Note_on_c, 0, 54, 96
2, 179999, Note_on_c, 0, 54, 0
2, 180000, Note_on_c, 0, 57, 96
2, 180092, Note_on_c, 0, 78, 0
2, 180095, Note_on_c, 0, 57, 0
2, 180096, Note_on_c, 0, 50, 96
2, 180192, Note_on_c, 0, 78, 96
2, 180287, Note_on_c, 0, 78, 0
2, 180287, Note_on_c, 0, 50, 0
2, 180288, Note_on_c, 0, 45, 96
2, 180288, Note_on_c, 0, 78, 96
2, 180335, Note_on_c, 0, 78, 0
2, 180336, Note_on_c, 0, 76, 96
2, 180383, Note_on_c, 0, 76, 0
2, 180384, Note_on_c, 0, 78, 96
2, 180479, Note_on_c, 0, 78, 0
2, 180479, Note_on_c, 0, 45, 0
2, 180480, Note_on_c, 0, 50, 96
2, 180480, Note_on_c, 0, 81, 96
2, 180575, Note_on_c, 0, 81, 0
2, 180576, Note_on_c, 0, 71, 96
2, 180671, Note_on_c, 0, 71, 0
2, 180672, Note_on_c, 0, 54, 96
2, 180672, Note_on_c, 0, 72, 96
2, 180863, Note_on_c, 0, 54, 0
2, 180864, Note_on_c, 0, 57, 96
2, 180959, Note_on_c, 0, 72, 0
2, 180960, Note_on_c, 0, 72, 96
2, 181055, Note_on_c, 0, 72, 0
2, 181055, Note_on_c, 0, 57, 0
2, 181056, Note_on_c, 0, 54, 96
2, 181056, Note_on_c, 0, 72, 96
2, 181103, Note_on_c, 0, 72, 0
2, 181104, Note_on_c, 0, 71, 96
2, 181151, Note_on_c, 0, 71, 0
2, 181152, Note_on_c, 0, 72, 96
2, 181247, Note_on_c, 0, 72, 0
2, 181247, Note_on_c, 0, 54, 0
2, 181248, Note_on_c, 0, 57, 96
2, 181248, Note_on_c, 0, 78, 96
2, 181343, Note_on_c, 0, 78, 0
2, 181344, Note_on_c, 0, 68, 96
2, 181439, Note_on_c, 0, 68, 0
2, 181439, Note_on_c, 0, 57, 0
2, 181440, Note_on_c, 0, 60, 96
2, 181440, Note_on_c, 0, 69, 96
2, 181630, Note_on_c, 0, 69, 0
2, 181630, Note_on_c, 0, 50, 0
2, 181632, Note_on_c, 0, 51, 96
2, 181722, Note_on_c, 0, 71, 96
2, 181772, Note_on_c, 0, 71, 0
2, 181773, Note_on_c, 0, 73, 96
2, 181820, Note_on_c, 0, 60, 0
2, 181823, Note_on_c, 0, 73, 0
2, 181824, Note_on_c, 0, 54, 96
2, 181824, Note_on_c, 0, 75, 96
2, 181877, Note_on_c, 0, 75, 0
2, 181878, Note_on_c, 0, 76, 96
2, 181934, Note_on_c, 0, 76, 0
2, 181934, Note_on_c, 0, 78, 96
2, 182015, Note_on_c, 0, 54, 0
2, 182016, Note_on_c, 0, 59, 96
2, 182094, Note_on_c, 0, 78, 0
2, 182110, Note_on_c, 0, 75, 96
2, 182159, Note_on_c, 0, 75, 0
2, 182160, Note_on_c, 0, 76, 96
2, 182207, Note_on_c, 0, 51, 0
2, 182208, Note_on_c, 0, 47, 96
2, 182209, Note_on_c, 0, 76, 0
2, 182210, Note_on_c, 0, 78, 96
2, 182261, Note_on_c, 0, 78, 0
2, 182262, Note_on_c, 0, 79, 96
2, 182318, Note_on_c, 0, 79, 0
2, 182318, Note_on_c, 0, 81, 96
2, 182399, Note_on_c, 0, 47, 0
2, 182400, Note_on_c, 0, 52, 96
2, 182478, Note_on_c, 0, 81, 0
2, 182496, Note_on_c, 0, 78, 96
2, 182591, Note_on_c, 0, 78, 0
2, 182591, Note_on_c, 0, 59, 0
2, 182592, Note_on_c, 0, 59, 96
2, 182592, Note_on_c, 0, 79, 96
2, 182782, Note_on_c, 0, 79, 0
2, 182783, Note_on_c, 0, 59, 0
2, 182784, Note_on_c, 0, 61, 96
2, 182832, Note_on_c, 0, 78, 96
2, 182879, Note_on_c, 0, 78, 0
2, 182880, Note_on_c, 0, 79, 96
2, 182927, Note_on_c, 0, 79, 0
2, 182928, Note_on_c, 0, 81, 96
2, 182975, Note_on_c, 0, 81, 0
2, 182975, Note_on_c, 0, 61, 0
2, 182976, Note_on_c, 0, 63, 96
2, 182976, Note_on_c, 0, 79, 96
2, 183071, Note_on_c, 0, 79, 0
2, 183072, Note_on_c, 0, 78, 96
2, 183167, Note_on_c, 0, 78, 0
2, 183167, Note_on_c, 0, 63, 0
2, 183168, Note_on_c, 0, 64, 96
2, 183168, Note_on_c, 0, 79, 96
2, 183222, Note_on_c, 0, 78, 96
2, 183223, Note_on_c, 0, 79, 0
2, 183276, Note_on_c, 0, 76, 96
2, 183277, Note_on_c, 0, 78, 0
2, 183340, Note_on_c, 0, 52, 0
2, 183360, Note_on_c, 0, 55, 96
2, 183360, Note_on_c, 0, 83, 96
2, 183364, Note_on_c, 0, 76, 0
2, 183468, Note_on_c, 0, 83, 0
2, 183468, Note_on_c, 0, 81, 96
2, 183551, Note_on_c, 0, 55, 0
2, 183552, Note_on_c, 0, 54, 96
2, 183628, Note_on_c, 0, 81, 0
2, 183648, Note_on_c, 0, 79, 96
2, 183695, Note_on_c, 0, 79, 0
2, 183696, Note_on_c, 0, 78, 96
2, 183743, Note_on_c, 0, 78, 0
2, 183743, Note_on_c, 0, 54, 0
2, 183744, Note_on_c, 0, 57, 96
2, 183744, Note_on_c, 0, 76, 96
2, 183839, Note_on_c, 0, 76, 0
2, 183840, Note_on_c, 0, 75, 96
2, 183935, Note_on_c, 0, 75, 0
2, 183935, Note_on_c, 0, 57, 0
2, 183936, Note_on_c, 0, 55, 96
2, 183936, Note_on_c, 0, 76, 96
2, 183983, Note_on_c, 0, 76, 0
2, 183984, Note_on_c, 0, 75, 96
2, 184031, Note_on_c, 0, 75, 0
2, 184032, Note_on_c, 0, 73, 96
2, 184079, Note_on_c, 0, 73, 0
2, 184080, Note_on_c, 0, 71, 96
2, 184108, Note_on_c, 0, 64, 0
2, 184127, Note_on_c, 0, 71, 0
2, 184127, Note_on_c, 0, 55, 0
2, 184128, Note_on_c, 0, 59, 96
2, 184128, Note_on_c, 0, 81, 96
2, 184232, Note_on_c, 0, 81, 0
2, 184233, Note_on_c, 0, 79, 96
2, 184319, Note_on_c, 0, 59, 0
2, 184320, Note_on_c, 0, 61, 96
2, 184320, Note_on_c, 0, 58, 96
2, 184393, Note_on_c, 0, 79, 0
2, 184416, Note_on_c, 0, 78, 96
2, 184463, Note_on_c, 0, 78, 0
2, 184464, Note_on_c, 0, 76, 96
2, 184511, Note_on_c, 0, 76, 0
2, 184511, Note_on_c, 0, 61, 0
2, 184512, Note_on_c, 0, 66, 96
2, 184512, Note_on_c, 0, 74, 96
2, 184607, Note_on_c, 0, 74, 0
2, 184608, Note_on_c, 0, 73, 96
2, 184700, Note_on_c, 0, 58, 0
2, 184703, Note_on_c, 0, 73, 0
2, 184704, Note_on_c, 0, 59, 96
2, 184704, Note_on_c, 0, 74, 96
2, 184767, Note_on_c, 0, 74, 0
2, 184768, Note_on_c, 0, 73, 96
2, 184831, Note_on_c, 0, 73, 0
2, 184832, Note_on_c, 0, 71, 96
2, 184892, Note_on_c, 0, 66, 0
2, 184895, Note_on_c, 0, 71, 0
2, 184896, Note_on_c, 0, 62, 96
2, 184896, Note_on_c, 0, 79, 96
2, 185000, Note_on_c, 0, 79, 0
2, 185001, Note_on_c, 0, 78, 96
2, 185084, Note_on_c, 0, 59, 0
2, 185087, Note_on_c, 0, 62, 0
2, 185088, Note_on_c, 0, 59, 96
2, 185088, Note_on_c, 0, 55, 96
2, 185130, Note_on_c, 0, 78, 0
2, 185136, Note_on_c, 0, 76, 96
2, 185183, Note_on_c, 0, 76, 0
2, 185184, Note_on_c, 0, 74, 96
2, 185231, Note_on_c, 0, 74, 0
2, 185232, Note_on_c, 0, 73, 96
2, 185279, Note_on_c, 0, 73, 0
2, 185279, Note_on_c, 0, 59, 0
2, 185280, Note_on_c, 0, 64, 96
2, 185280, Note_on_c, 0, 74, 96
2, 185375, Note_on_c, 0, 74, 0
2, 185376, Note_on_c, 0, 76, 96
2, 185468, Note_on_c, 0, 55, 0
2, 185471, Note_on_c, 0, 76, 0
2, 185472, Note_on_c, 0, 54, 96
2, 185472, Note_on_c, 0, 71, 96
2, 185660, Note_on_c, 0, 64, 0
2, 185660, Note_on_c, 0, 70, 96
2, 185662, Note_on_c, 0, 61, 96
2, 185663, Note_on_c, 0, 71, 0
2, 185853, Note_on_c, 0, 61, 0
2, 185856, Note_on_c, 0, 58, 96
2, 186040, Note_on_c, 0, 70, 0
2, 186047, Note_on_c, 0, 58, 0
2, 186048, Note_on_c, 0, 61, 96
2, 186096, Note_on_c, 0, 77, 96
2, 186143, Note_on_c, 0, 77, 0
2, 186144, Note_on_c, 0, 78, 96
2, 186191, Note_on_c, 0, 78, 0
2, 186192, Note_on_c, 0, 80, 96
2, 186239, Note_on_c, 0, 80, 0
2, 186239, Note_on_c, 0, 61, 0
2, 186240, Note_on_c, 0, 62, 96
2, 186240, Note_on_c, 0, 78, 96
2, 186335, Note_on_c, 0, 78, 0
2, 186336, Note_on_c, 0, 77, 96
2, 186431, Note_on_c, 0, 77, 0
2, 186431, Note_on_c, 0, 62, 0
2, 186432, Note_on_c, 0, 61, 96
2, 186432, Note_on_c, 0, 77, 96
2, 186527, Note_on_c, 0, 77, 0
2, 186528, Note_on_c, 0, 78, 96
2, 186623, Note_on_c, 0, 78, 0
2, 186623, Note_on_c, 0, 61, 0
2, 186624, Note_on_c, 0, 59, 96
2, 186624, Note_on_c, 0, 78, 96
2, 186719, Note_on_c, 0, 78, 0
2, 186720, Note_on_c, 0, 82, 96
2, 186815, Note_on_c, 0, 82, 0
2, 186815, Note_on_c, 0, 59, 0
2, 186816, Note_on_c, 0, 56, 96
2, 186816, Note_on_c, 0, 82, 96
2, 186911, Note_on_c, 0, 82, 0
2, 186912, Note_on_c, 0, 83, 96
2, 187007, Note_on_c, 0, 83, 0
2, 187007, Note_on_c, 0, 56, 0
2, 187008, Note_on_c, 0, 58, 96
2, 187008, Note_on_c, 0, 78, 96
2, 187055, Note_on_c, 0, 78, 0
2, 187056, Note_on_c, 0, 79, 96
2, 187103, Note_on_c, 0, 79, 0
2, 187104, Note_on_c, 0, 81, 96
2, 187151, Note_on_c, 0, 81, 0
2, 187152, Note_on_c, 0, 79, 96
2, 187199, Note_on_c, 0, 79, 0
2, 187199, Note_on_c, 0, 58, 0
2, 187200, Note_on_c, 0, 61, 96
2, 187200, Note_on_c, 0, 78, 96
2, 187247, Note_on_c, 0, 78, 0
2, 187248, Note_on_c, 0, 79, 96
2, 187295, Note_on_c, 0, 79, 0
2, 187296, Note_on_c, 0, 78, 96
2, 187343, Note_on_c, 0, 78, 0
2, 187344, Note_on_c, 0, 76, 96
2, 187391, Note_on_c, 0, 61, 0
2, 187392, Note_on_c, 0, 56, 96
2, 187583, Note_on_c, 0, 56, 0
2, 187584, Note_on_c, 0, 76, 0
2, 187584, Note_on_c, 0, 59, 96
2, 187632, Note_on_c, 0, 75, 96
2, 187679, Note_on_c, 0, 75, 0
2, 187680, Note_on_c, 0, 76, 96
2, 187727, Note_on_c, 0, 76, 0
2, 187728, Note_on_c, 0, 78, 96
2, 187772, Note_on_c, 0, 54, 0
2, 187775, Note_on_c, 0, 78, 0
2, 187775, Note_on_c, 0, 59, 0
2, 187776, Note_on_c, 0, 58, 96
2, 187776, Note_on_c, 0, 76, 96
2, 187871, Note_on_c, 0, 76, 0
2, 187872, Note_on_c, 0, 75, 96
2, 187967, Note_on_c, 0, 75, 0
2, 187967, Note_on_c, 0, 58, 0
2, 187968, Note_on_c, 0, 61, 96
2, 187968, Note_on_c, 0, 75, 96
2, 188063, Note_on_c, 0, 75, 0
2, 188064, Note_on_c, 0, 76, 96
2, 188159, Note_on_c, 0, 76, 0
2, 188160, Note_on_c, 0, 58, 96
2, 188160, Note_on_c, 0, 76, 96
2, 188255, Note_on_c, 0, 76, 0
2, 188256, Note_on_c, 0, 82, 96
2, 188351, Note_on_c, 0, 82, 0
2, 188352, Note_on_c, 0, 54, 96
2, 188352, Note_on_c, 0, 82, 96
2, 188447, Note_on_c, 0, 82, 0
2, 188448, Note_on_c, 0, 83, 96
2, 188540, Note_on_c, 0, 58, 0
2, 188543, Note_on_c, 0, 83, 0
2, 188543, Note_on_c, 0, 54, 0
2, 188544, Note_on_c, 0, 55, 96
2, 188544, Note_on_c, 0, 76, 96
2, 188591, Note_on_c, 0, 76, 0
2, 188592, Note_on_c, 0, 78, 96
2, 188639, Note_on_c, 0, 78, 0
2, 188640, Note_on_c, 0, 79, 96
2, 188687, Note_on_c, 0, 79, 0
2, 188688, Note_on_c, 0, 78, 96
2, 188735, Note_on_c, 0, 78, 0
2, 188735, Note_on_c, 0, 61, 0
2, 188736, Note_on_c, 0, 58, 96
2, 188736, Note_on_c, 0, 76, 96
2, 188783, Note_on_c, 0, 76, 0
2, 188784, Note_on_c, 0, 78, 96
2, 188831, Note_on_c, 0, 78, 0
2, 188832, Note_on_c, 0, 76, 96
2, 188879, Note_on_c, 0, 76, 0
2, 188880, Note_on_c, 0, 74, 96
2, 188927, Note_on_c, 0, 58, 0
2, 188928, Note_on_c, 0, 59, 96
2, 189119, Note_on_c, 0, 59, 0
2, 189120, Note_on_c, 0, 74, 0
2, 189120, Note_on_c, 0, 62, 96
2, 189168, Note_on_c, 0, 73, 96
2, 189215, Note_on_c, 0, 73, 0
2, 189216, Note_on_c, 0, 74, 96
2, 189263, Note_on_c, 0, 74, 0
2, 189264, Note_on_c, 0, 76, 96
2, 189311, Note_on_c, 0, 76, 0
2, 189311, Note_on_c, 0, 62, 0
2, 189312, Note_on_c, 0, 59, 96
2, 189312, Note_on_c, 0, 74, 96
2, 189407, Note_on_c, 0, 74, 0
2, 189408, Note_on_c, 0, 73, 96
2, 189484, Note_on_c, 0, 55, 0
2, 189503, Note_on_c, 0, 73, 0
2, 189504, Note_on_c, 0, 55, 96
2, 189504, Note_on_c, 0, 73, 96
2, 189599, Note_on_c, 0, 73, 0
2, 189600, Note_on_c, 0, 74, 96
2, 189695, Note_on_c, 0, 74, 0
2, 189695, Note_on_c, 0, 55, 0
2, 189696, Note_on_c, 0, 54, 96
2, 189696, Note_on_c, 0, 74, 96
2, 189791, Note_on_c, 0, 74, 0
2, 189792, Note_on_c, 0, 80, 96
2, 189839, Note_on_c, 0, 80, 0
2, 189840, Note_on_c, 0, 82, 96
2, 189887, Note_on_c, 0, 82, 0
2, 189887, Note_on_c, 0, 54, 0
2, 189888, Note_on_c, 0, 53, 96
2, 189888, Note_on_c, 0, 83, 96
2, 189983, Note_on_c, 0, 83, 0
2, 189984, Note_on_c, 0, 74, 96
2, 190079, Note_on_c, 0, 53, 0
2, 190079, Note_on_c, 0, 59, 0
2, 190080, Note_on_c, 0, 54, 96
2, 190080, Note_on_c, 0, 58, 96
2, 190143, Note_on_c, 0, 74, 0
2, 190144, Note_on_c, 0, 73, 96
2, 190207, Note_on_c, 0, 73, 0
2, 190208, Note_on_c, 0, 71, 96
2, 190271, Note_on_c, 0, 71, 0
2, 190271, Note_on_c, 0, 58, 0
2, 190271, Note_on_c, 0, 54, 0
2, 190272, Note_on_c, 0, 55, 96
2, 190272, Note_on_c, 0, 73, 96
2, 190335, Note_on_c, 0, 73, 0
2, 190336, Note_on_c, 0, 71, 96
2, 190399, Note_on_c, 0, 71, 0
2, 190400, Note_on_c, 0, 70, 96
2, 190463, Note_on_c, 0, 70, 0
2, 190463, Note_on_c, 0, 55, 0
2, 190464, Note_on_c, 0, 54, 96
2, 190464, Note_on_c, 0, 70, 96
2, 190573, Note_on_c, 0, 70, 0
2, 190574, Note_on_c, 0, 79, 96
2, 190655, Note_on_c, 0, 54, 0
2, 190656, Note_on_c, 0, 52, 96
2, 190656, Note_on_c, 0, 58, 96
2, 190847, Note_on_c, 0, 58, 0
2, 190847, Note_on_c, 0, 52, 0
2, 190848, Note_on_c, 0, 59, 96
2, 190848, Note_on_c, 0, 51, 96
2, 190862, Note_on_c, 0, 79, 0
2, 190912, Note_on_c, 0, 78, 96
2, 190975, Note_on_c, 0, 78, 0
2, 190976, Note_on_c, 0, 76, 96
2, 191039, Note_on_c, 0, 76, 0
2, 191039, Note_on_c, 0, 51, 0
2, 191039, Note_on_c, 0, 59, 0
2, 191040, Note_on_c, 0, 60, 96
2, 191040, Note_on_c, 0, 78, 96
2, 191103, Note_on_c, 0, 78, 0
2, 191104, Note_on_c, 0, 76, 96
2, 191167, Note_on_c, 0, 76, 0
2, 191168, Note_on_c, 0, 75, 96
2, 191231, Note_on_c, 0, 75, 0
2, 191231, Note_on_c, 0, 60, 0
2, 191232, Note_on_c, 0, 59, 96
2, 191232, Note_on_c, 0, 75, 96
2, 191341, Note_on_c, 0, 75, 0
2, 191342, Note_on_c, 0, 84, 96
2, 191423, Note_on_c, 0, 59, 0
2, 191424, Note_on_c, 0, 57, 96
2, 191424, Note_on_c, 0, 63, 96
2, 191615, Note_on_c, 0, 63, 0
2, 191615, Note_on_c, 0, 57, 0
2, 191616, Note_on_c, 0, 55, 96
2, 191616, Note_on_c, 0, 64, 96
2, 191630, Note_on_c, 0, 84, 0
2, 191664, Note_on_c, 0, 81, 96
2, 191711, Note_on_c, 0, 81, 0
2, 191712, Note_on_c, 0, 83, 96
2, 191759, Note_on_c, 0, 83, 0
2, 191760, Note_on_c, 0, 84, 96
2, 191807, Note_on_c, 0, 84, 0
2, 191807, Note_on_c, 0, 64, 0
2, 191807, Note_on_c, 0, 55, 0
2, 191808, Note_on_c, 0, 57, 96
2, 191808, Note_on_c, 0, 83, 96
2, 191999, Note_on_c, 0, 57, 0
2, 192000, Note_on_c, 0, 55, 96
2, 192027, Note_on_c, 0, 83, 0
2, 192044, Note_on_c, 0, 81, 96
2, 192115, Note_on_c, 0, 81, 0
2, 192118, Note_on_c, 0, 79, 96
2, 192191, Note_on_c, 0, 79, 0
2, 192191, Note_on_c, 0, 55, 0
2, 192192, Note_on_c, 0, 54, 96
2, 192192, Note_on_c, 0, 63, 96
2, 192192, Note_on_c, 0, 81, 96
2, 192255, Note_on_c, 0, 81, 0
2, 192256, Note_on_c, 0, 79, 96
2, 192319, Note_on_c, 0, 79, 0
2, 192320, Note_on_c, 0, 78, 96
2, 192383, Note_on_c, 0, 78, 0
2, 192383, Note_on_c, 0, 63, 0
2, 192383, Note_on_c, 0, 54, 0
2, 192384, Note_on_c, 0, 52, 96
2, 192384, Note_on_c, 0, 64, 96
2, 192384, Note_on_c, 0, 79, 96
2, 192431, Note_on_c, 0, 79, 0
2, 192432, Note_on_c, 0, 78, 96
2, 192479, Note_on_c, 0, 78, 0
2, 192480, Note_on_c, 0, 76, 96
2, 192527, Note_on_c, 0, 76, 0
2, 192528, Note_on_c, 0, 75, 96
2, 192574, Note_on_c, 0, 64, 0
2, 192574, Note_on_c, 0, 52, 0
2, 192575, Note_on_c, 0, 75, 0
2, 192576, Note_on_c, 0, 43, 96
2, 192576, Note_on_c, 0, 76, 96
2, 192767, Note_on_c, 0, 43, 0
2, 192768, Note_on_c, 0, 45, 96
2, 192796, Note_on_c, 0, 76, 0
2, 192832, Note_on_c, 0, 74, 96
2, 192895, Note_on_c, 0, 74, 0
2, 192896, Note_on_c, 0, 72, 96
2, 192959, Note_on_c, 0, 72, 0
2, 192959, Note_on_c, 0, 45, 0
2, 192960, Note_on_c, 0, 47, 96
2, 192960, Note_on_c, 0, 74, 96
2, 193023, Note_on_c, 0, 74, 0
2, 193024, Note_on_c, 0, 72, 96
2, 193087, Note_on_c, 0, 72, 0
2, 193088, Note_on_c, 0, 71, 96
2, 193151, Note_on_c, 0, 71, 0
2, 193151, Note_on_c, 0, 47, 0
2, 193152, Note_on_c, 0, 40, 96
2, 193152, Note_on_c, 0, 72, 96
2, 193247, Note_on_c, 0, 72, 0
2, 193248, Note_on_c, 0, 67, 96
2, 193343, Note_on_c, 0, 40, 0
2, 193344, Note_on_c, 0, 52, 96
2, 193408, Note_on_c, 0, 67, 0
2, 193440, Note_on_c, 0, 69, 96
2, 193487, Note_on_c, 0, 69, 0
2, 193488, Note_on_c, 0, 71, 96
2, 193535, Note_on_c, 0, 71, 0
2, 193535, Note_on_c, 0, 52, 0
2, 193536, Note_on_c, 0, 48, 96
2, 193536, Note_on_c, 0, 72, 96
2, 193599, Note_on_c, 0, 72, 0
2, 193600, Note_on_c, 0, 74, 96
2, 193663, Note_on_c, 0, 74, 0
2, 193664, Note_on_c, 0, 76, 96
2, 193727, Note_on_c, 0, 76, 0
2, 193727, Note_on_c, 0, 48, 0
2, 193728, Note_on_c, 0, 43, 96
2, 193728, Note_on_c, 0, 77, 96
2, 193791, Note_on_c, 0, 77, 0
2, 193792, Note_on_c, 0, 76, 96
2, 193855, Note_on_c, 0, 76, 0
2, 193856, Note_on_c, 0, 74, 96
2, 193919, Note_on_c, 0, 74, 0
2, 193919, Note_on_c, 0, 43, 0
2, 193920, Note_on_c, 0, 40, 96
2, 193920, Note_on_c, 0, 72, 96
2, 194015, Note_on_c, 0, 72, 0
2, 194016, Note_on_c, 0, 67, 96
2, 194111, Note_on_c, 0, 40, 0
2, 194112, Note_on_c, 0, 52, 96
2, 194176, Note_on_c, 0, 67, 0
2, 194208, Note_on_c, 0, 69, 96
2, 194255, Note_on_c, 0, 69, 0
2, 194256, Note_on_c, 0, 71, 96
2, 194303, Note_on_c, 0, 71, 0
2, 194303, Note_on_c, 0, 52, 0
2, 194304, Note_on_c, 0, 48, 96
2, 194304, Note_on_c, 0, 72, 96
2, 194367, Note_on_c, 0, 72, 0
2, 194368, Note_on_c, 0, 74, 96
2, 194431, Note_on_c, 0, 74, 0
2, 194432, Note_on_c, 0, 76, 96
2, 194495, Note_on_c, 0, 76, 0
2, 194495, Note_on_c, 0, 48, 0
2, 194496, Note_on_c, 0, 43, 96
2, 194496, Note_on_c, 0, 77, 96
2, 194559, Note_on_c, 0, 77, 0
2, 194560, Note_on_c, 0, 76, 96
2, 194623, Note_on_c, 0, 76, 0
2, 194624, Note_on_c, 0, 74, 96
2, 194687, Note_on_c, 0, 74, 0
2, 194687, Note_on_c, 0, 43, 0
2, 194688, Note_on_c, 0, 40, 96
2, 194688, Note_on_c, 0, 73, 96
2, 194783, Note_on_c, 0, 73, 0
2, 194784, Note_on_c, 0, 70, 96
2, 194879, Note_on_c, 0, 40, 0
2, 194880, Note_on_c, 0, 52, 96
2, 194914, Note_on_c, 0, 70, 0
2, 194976, Note_on_c, 0, 78, 96
2, 195023, Note_on_c, 0, 78, 0
2, 195024, Note_on_c, 0, 76, 96
2, 195071, Note_on_c, 0, 76, 0
2, 195071, Note_on_c, 0, 52, 0
2, 195072, Note_on_c, 0, 50, 96
2, 195072, Note_on_c, 0, 78, 96
2, 195181, Note_on_c, 0, 78, 0
2, 195182, Note_on_c, 0, 83, 96
2, 195263, Note_on_c, 0, 50, 0
2, 195264, Note_on_c, 0, 55, 96
2, 195279, Note_on_c, 0, 83, 0
2, 195312, Note_on_c, 0, 78, 96
2, 195359, Note_on_c, 0, 78, 0
2, 195360, Note_on_c, 0, 76, 96
2, 195407, Note_on_c, 0, 76, 0
2, 195408, Note_on_c, 0, 74, 96
2, 195455, Note_on_c, 0, 74, 0
2, 195455, Note_on_c, 0, 55, 0
2, 195456, Note_on_c, 0, 49, 96
2, 195456, Note_on_c, 0, 76, 96
2, 195551, Note_on_c, 0, 76, 0
2, 195552, Note_on_c, 0, 73, 96
2, 195647, Note_on_c, 0, 49, 0
2, 195648, Note_on_c, 0, 47, 96
2, 195736, Note_on_c, 0, 73, 0
2, 195744, Note_on_c, 0, 76, 96
2, 195791, Note_on_c, 0, 76, 0
2, 195792, Note_on_c, 0, 75, 96
2, 195839, Note_on_c, 0, 75, 0
2, 195839, Note_on_c, 0, 47, 0
2, 195840, Note_on_c, 0, 49, 96
2, 195840, Note_on_c, 0, 76, 96
2, 195949, Note_on_c, 0, 76, 0
2, 195950, Note_on_c, 0, 82, 96
2, 196031, Note_on_c, 0, 49, 0
2, 196032, Note_on_c, 0, 54, 96
2, 196047, Note_on_c, 0, 82, 0
2, 196080, Note_on_c, 0, 76, 96
2, 196127, Note_on_c, 0, 76, 0
2, 196128, Note_on_c, 0, 74, 96
2, 196175, Note_on_c, 0, 74, 0
2, 196176, Note_on_c, 0, 73, 96
2, 196223, Note_on_c, 0, 73, 0
2, 196223, Note_on_c, 0, 54, 0
2, 196224, Note_on_c, 0, 47, 96
2, 196224, Note_on_c, 0, 74, 96
2, 196319, Note_on_c, 0, 74, 0
2, 196320, Note_on_c, 0, 71, 96
2, 196415, Note_on_c, 0, 47, 0
2, 196416, Note_on_c, 0, 50, 96
2, 196499, Note_on_c, 0, 71, 0
2, 196512, Note_on_c, 0, 83, 96
2, 196559, Note_on_c, 0, 83, 0
2, 196560, Note_on_c, 0, 81, 96
2, 196607, Note_on_c, 0, 81, 0
2, 196607, Note_on_c, 0, 50, 0
2, 196608, Note_on_c, 0, 52, 96
2, 196608, Note_on_c, 0, 79, 96
2, 196703, Note_on_c, 0, 79, 0
2, 196704, Note_on_c, 0, 79, 96
2, 196751, Note_on_c, 0, 79, 0
2, 196752, Note_on_c, 0, 78, 96
2, 196799, Note_on_c, 0, 78, 0
2, 196799, Note_on_c, 0, 52, 0
2, 196800, Note_on_c, 0, 54, 96
2, 196800, Note_on_c, 0, 76, 96
2, 196895, Note_on_c, 0, 76, 0
2, 196896, Note_on_c, 0, 76, 96
2, 196943, Note_on_c, 0, 76, 0
2, 196944, Note_on_c, 0, 74, 96
2, 196991, Note_on_c, 0, 74, 0
2, 196991, Note_on_c, 0, 54, 0
2, 196992, Note_on_c, 0, 55, 96
2, 196992, Note_on_c, 0, 73, 96
2, 197045, Note_on_c, 0, 73, 0
2, 197046, Note_on_c, 0, 79, 96
2, 197099, Note_on_c, 0, 79, 0
2, 197100, Note_on_c, 0, 78, 96
2, 197153, Note_on_c, 0, 78, 0
2, 197154, Note_on_c, 0, 76, 96
2, 197183, Note_on_c, 0, 55, 0
2, 197184, Note_on_c, 0, 52, 96
2, 197215, Note_on_c, 0, 76, 0
2, 197216, Note_on_c, 0, 78, 96
2, 197295, Note_on_c, 0, 78, 0
2, 197296, Note_on_c, 0, 71, 96
2, 197375, Note_on_c, 0, 71, 0
2, 197375, Note_on_c, 0, 52, 0
2, 197376, Note_on_c, 0, 54, 96
2, 197376, Note_on_c, 0, 74, 96
2, 197567, Note_on_c, 0, 74, 0
2, 197567, Note_on_c, 0, 54, 0
2, 197568, Note_on_c, 0, 42, 96
2, 197568, Note_on_c, 0, 74, 96
2, 197615, Note_on_c, 0, 74, 0
2, 197616, Note_on_c, 0, 73, 96
2, 197663, Note_on_c, 0, 73, 0
2, 197664, Note_on_c, 0, 71, 96
2, 197711, Note_on_c, 0, 71, 0
2, 197712, Note_on_c, 0, 73, 96
2, 197759, Note_on_c, 0, 73, 0
2, 197759, Note_on_c, 0, 42, 0
2, 197760, Note_on_c, 0, 47, 96
2, 197760, Note_on_c, 0, 71, 96
2, 197855, Note_on_c, 0, 71, 0
2, 197856, Note_on_c, 0, 64, 96
2, 197951, Note_on_c, 0, 64, 0
2, 197952, Note_on_c, 0, 66, 96
2, 198048, Note_on_c, 0, 61, 96
2, 198143, Note_on_c, 0, 61, 0
2, 198144, Note_on_c, 0, 62, 96
2, 198240, Note_on_c, 0, 58, 96
2, 198332, Note_on_c, 0, 66, 0
2, 198335, Note_on_c, 0, 58, 0
2, 198336, Note_on_c, 0, 59, 96
2, 198431, Note_on_c, 0, 59, 0
2, 198432, Note_on_c, 0, 54, 96
2, 198527, Note_on_c, 0, 54, 0
2, 198527, Note_on_c, 0, 47, 0
2, 198528, Note_on_c, 0, 50, 96
2, 198623, Note_on_c, 0, 50, 0
2, 198624, Note_on_c, 0, 47, 96
2, 198719, Note_on_c, 0, 47, 0
2, 198720, Note_on_c, 0, 50, 96
2, 198815, Note_on_c, 0, 50, 0
2, 198816, Note_on_c, 0, 54, 96
2, 198911, Note_on_c, 0, 54, 0
2, 198912, Note_on_c, 0, 59, 96
2, 199007, Note_on_c, 0, 62, 0
2, 199008, Note_on_c, 0, 62, 96
2, 199103, Note_on_c, 0, 62, 0
2, 199104, Note_on_c, 0, 66, 96
2, 199199, Note_on_c, 0, 66, 0
2, 199200, Note_on_c, 0, 67, 96
2, 199292, Note_on_c, 0, 59, 0
2, 199295, Note_on_c, 0, 67, 0
2, 199296, Note_on_c, 0, 69, 96
2, 199392, Note_on_c, 0, 42, 96
2, 199487, Note_on_c, 0, 42, 0
2, 199488, Note_on_c, 0, 45, 96
2, 199583, Note_on_c, 0, 45, 0
2, 199584, Note_on_c, 0, 50, 96
2, 199679, Note_on_c, 0, 50, 0
2, 199680, Note_on_c, 0, 54, 96
2, 199775, Note_on_c, 0, 54, 0
2, 199776, Note_on_c, 0, 57, 96
2, 199871, Note_on_c, 0, 57, 0
2, 199871, Note_on_c, 0, 69, 0
2, 199872, Note_on_c, 0, 62, 96
2, 199967, Note_on_c, 0, 62, 0
2, 199968, Note_on_c, 0, 66, 96
2, 200063, Note_on_c, 0, 66, 0
2, 200064, Note_on_c, 0, 69, 96
2, 200159, Note_on_c, 0, 69, 0
2, 200160, Note_on_c, 0, 66, 96
2, 200255, Note_on_c, 0, 66, 0
2, 200256, Note_on_c, 0, 62, 96
2, 200351, Note_on_c, 0, 62, 0
2, 200352, Note_on_c, 0, 64, 96
2, 200447, Note_on_c, 0, 64, 0
2, 200448, Note_on_c, 0, 38, 96
2, 200448, Note_on_c, 0, 66, 96
2, 200543, Note_on_c, 0, 66, 0
2, 200544, Note_on_c, 0, 67, 96
2, 200639, Note_on_c, 0, 67, 0
2, 200640, Note_on_c, 0, 69, 96
2, 200735, Note_on_c, 0, 69, 0
2, 200736, Note_on_c, 0, 71, 96
2, 200831, Note_on_c, 0, 71, 0
2, 200831, Note_on_c, 0, 38, 0
2, 200832, Note_on_c, 0, 43, 96
2, 200832, Note_on_c, 0, 72, 96
2, 200882, Note_on_c, 0, 72, 0
2, 200883, Note_on_c, 0, 71, 96
2, 200933, Note_on_c, 0, 71, 0
2, 200934, Note_on_c, 0, 69, 96
2, 201023, Note_on_c, 0, 69, 0
2, 201024, Note_on_c, 0, 71, 96
2, 201119, Note_on_c, 0, 71, 0
2, 201120, Note_on_c, 0, 66, 96
2, 201215, Note_on_c, 0, 66, 0
2, 201216, Note_on_c, 0, 67, 96
2, 201312, Note_on_c, 0, 62, 96
2, 201408, Note_on_c, 0, 59, 96
2, 201496, Note_on_c, 0, 67, 0
2, 201503, Note_on_c, 0, 59, 0
2, 201504, Note_on_c, 0, 50, 96
2, 201599, Note_on_c, 0, 50, 0
2, 201600, Note_on_c, 0, 55, 96
2, 201695, Note_on_c, 0, 62, 0
2, 201696, Note_on_c, 0, 69, 96
2, 201791, Note_on_c, 0, 69, 0
2, 201792, Note_on_c, 0, 71, 96
2, 201887, Note_on_c, 0, 71, 0
2, 201888, Note_on_c, 0, 72, 96
2, 201982, Note_on_c, 0, 43, 0
2, 201983, Note_on_c, 0, 72, 0
2, 201984, Note_on_c, 0, 43, 96
2, 201984, Note_on_c, 0, 71, 96
2, 202079, Note_on_c, 0, 71, 0
2, 202080, Note_on_c, 0, 69, 96
2, 202175, Note_on_c, 0, 69, 0
2, 202176, Note_on_c, 0, 71, 96
2, 202271, Note_on_c, 0, 71, 0
2, 202272, Note_on_c, 0, 75, 96
2, 202367, Note_on_c, 0, 43, 0
2, 202368, Note_on_c, 0, 48, 96
2, 202442, Note_on_c, 0, 75, 0
2, 202464, Note_on_c, 0, 76, 96
2, 202540, Note_on_c, 0, 55, 0
2, 202559, Note_on_c, 0, 76, 0
2, 202560, Note_on_c, 0, 57, 96
2, 202560, Note_on_c, 0, 69, 96
2, 202655, Note_on_c, 0, 69, 0
2, 202656, Note_on_c, 0, 75, 96
2, 202748, Note_on_c, 0, 48, 0
2, 202752, Note_on_c, 0, 47, 96
2, 202836, Note_on_c, 0, 75, 0
2, 202848, Note_on_c, 0, 76, 96
2, 202940, Note_on_c, 0, 57, 0
2, 202943, Note_on_c, 0, 76, 0
2, 202944, Note_on_c, 0, 59, 96
2, 202944, Note_on_c, 0, 67, 96
2, 203039, Note_on_c, 0, 67, 0
2, 203040, Note_on_c, 0, 75, 96
2, 203132, Note_on_c, 0, 47, 0
2, 203136, Note_on_c, 0, 45, 96
2, 203220, Note_on_c, 0, 75, 0
2, 203232, Note_on_c, 0, 76, 96
2, 203324, Note_on_c, 0, 59, 0
2, 203327, Note_on_c, 0, 76, 0
2, 203328, Note_on_c, 0, 60, 96
2, 203328, Note_on_c, 0, 66, 96
2, 203423, Note_on_c, 0, 66, 0
2, 203424, Note_on_c, 0, 76, 96
2, 203516, Note_on_c, 0, 45, 0
2, 203520, Note_on_c, 0, 47, 96
2, 203593, Note_on_c, 0, 76, 0
2, 203596, Note_on_c, 0, 75, 96
2, 203653, Note_on_c, 0, 75, 0
2, 203654, Note_on_c, 0, 76, 96
2, 203708, Note_on_c, 0, 60, 0
2, 203711, Note_on_c, 0, 76, 0
2, 203712, Note_on_c, 0, 51, 96
2, 203712, Note_on_c, 0, 78, 96
2, 203807, Note_on_c, 0, 78, 0
2, 203808, Note_on_c, 0, 69, 96
2, 203900, Note_on_c, 0, 47, 0
2, 203903, Note_on_c, 0, 51, 0
2, 203904, Note_on_c, 0, 52, 96
2, 203967, Note_on_c, 0, 69, 0
2, 203968, Note_on_c, 0, 66, 96
2, 204031, Note_on_c, 0, 66, 0
2, 204032, Note_on_c, 0, 67, 96
2, 204095, Note_on_c, 0, 67, 0
2, 204096, Note_on_c, 0, 47, 96
2, 204096, Note_on_c, 0, 69, 96
2, 204159, Note_on_c, 0, 69, 0
2, 204160, Note_on_c, 0, 67, 96
2, 204223, Note_on_c, 0, 67, 0
2, 204224, Note_on_c, 0, 66, 96
2, 204287, Note_on_c, 0, 66, 0
2, 204287, Note_on_c, 0, 47, 0
2, 204288, Note_on_c, 0, 40, 96
2, 204288, Note_on_c, 0, 66, 96
2, 204415, Note_on_c, 0, 66, 0
2, 204416, Note_on_c, 0, 67, 96
2, 204479, Note_on_c, 0, 52, 0
2, 204480, Note_on_c, 0, 47, 96
2, 204671, Note_on_c, 0, 47, 0
2, 204672, Note_on_c, 0, 52, 96
2, 204736, Note_on_c, 0, 67, 0
2, 204768, Note_on_c, 0, 69, 96
2, 204815, Note_on_c, 0, 69, 0
2, 204816, Note_on_c, 0, 71, 96
2, 204863, Note_on_c, 0, 71, 0
2, 204863, Note_on_c, 0, 40, 0
2, 204864, Note_on_c, 0, 49, 96
2, 204864, Note_on_c, 0, 69, 96
2, 204959, Note_on_c, 0, 69, 0
2, 204960, Note_on_c, 0, 67, 96
2, 205055, Note_on_c, 0, 67, 0
2, 205055, Note_on_c, 0, 49, 0
2, 205056, Note_on_c, 0, 50, 96
2, 205056, Note_on_c, 0, 67, 96
2, 205151, Note_on_c, 0, 67, 0
2, 205152, Note_on_c, 0, 69, 96
2, 205199, Note_on_c, 0, 69, 0
2, 205200, Note_on_c, 0, 71, 96
2, 205247, Note_on_c, 0, 71, 0
2, 205247, Note_on_c, 0, 50, 0
2, 205248, Note_on_c, 0, 47, 96
2, 205248, Note_on_c, 0, 69, 96
2, 205343, Note_on_c, 0, 69, 0
2, 205344, Note_on_c, 0, 67, 96
2, 205439, Note_on_c, 0, 67, 0
2, 205439, Note_on_c, 0, 47, 0
2, 205440, Note_on_c, 0, 49, 96
2, 205440, Note_on_c, 0, 67, 96
2, 205535, Note_on_c, 0, 67, 0
2, 205536, Note_on_c, 0, 73, 96
2, 205583, Note_on_c, 0, 73, 0
2, 205584, Note_on_c, 0, 74, 96
2, 205612, Note_on_c, 0, 52, 0
2, 205631, Note_on_c, 0, 74, 0
2, 205632, Note_on_c, 0, 57, 96
2, 205632, Note_on_c, 0, 76, 96
2, 205727, Note_on_c, 0, 57, 0
2, 205728, Note_on_c, 0, 55, 96
2, 205823, Note_on_c, 0, 55, 0
2, 205824, Note_on_c, 0, 57, 96
2, 205891, Note_on_c, 0, 76, 0
2, 205920, Note_on_c, 0, 74, 96
2, 206015, Note_on_c, 0, 74, 0
2, 206015, Note_on_c, 0, 49, 0
2, 206016, Note_on_c, 0, 45, 96
2, 206016, Note_on_c, 0, 73, 96
2, 206111, Note_on_c, 0, 73, 0
2, 206112, Note_on_c, 0, 71, 96
2, 206204, Note_on_c, 0, 57, 0
2, 206207, Note_on_c, 0, 71, 0
2, 206207, Note_on_c, 0, 45, 0
2, 206208, Note_on_c, 0, 47, 96
2, 206208, Note_on_c, 0, 69, 96
2, 206283, Note_on_c, 0, 69, 0
2, 206284, Note_on_c, 0, 67, 96
2, 206341, Note_on_c, 0, 67, 0
2, 206342, Note_on_c, 0, 66, 96
2, 206399, Note_on_c, 0, 66, 0
2, 206400, Note_on_c, 0, 50, 96
2, 206400, Note_on_c, 0, 67, 96
2, 206588, Note_on_c, 0, 47, 0
2, 206591, Note_on_c, 0, 50, 0
2, 206592, Note_on_c, 0, 49, 96
2, 206639, Note_on_c, 0, 67, 0
2, 206656, Note_on_c, 0, 66, 96
2, 206719, Note_on_c, 0, 66, 0
2, 206720, Note_on_c, 0, 64, 96
2, 206783, Note_on_c, 0, 64, 0
2, 206784, Note_on_c, 0, 52, 96
2, 206784, Note_on_c, 0, 71, 96
2, 206847, Note_on_c, 0, 71, 0
2, 206848, Note_on_c, 0, 69, 96
2, 206911, Note_on_c, 0, 69, 0
2, 206912, Note_on_c, 0, 67, 96
2, 206972, Note_on_c, 0, 49, 0
2, 206975, Note_on_c, 0, 67, 0
2, 206975, Note_on_c, 0, 52, 0
2, 206976, Note_on_c, 0, 50, 96
2, 206976, Note_on_c, 0, 66, 96
2, 207071, Note_on_c, 0, 66, 0
2, 207072, Note_on_c, 0, 62, 96
2, 207167, Note_on_c, 0, 62, 0
2, 207168, Note_on_c, 0, 54, 96
2, 207168, Note_on_c, 0, 61, 96
2, 207263, Note_on_c, 0, 61, 0
2, 207264, Note_on_c, 0, 62, 96
2, 207359, Note_on_c, 0, 62, 0
2, 207359, Note_on_c, 0, 54, 0
2, 207360, Note_on_c, 0, 57, 96
2, 207360, Note_on_c, 0, 62, 96
2, 207469, Note_on_c, 0, 62, 0
2, 207470, Note_on_c, 0, 66, 96
2, 207551, Note_on_c, 0, 57, 0
2, 207552, Note_on_c, 0, 60, 96
2, 207743, Note_on_c, 0, 60, 0
2, 207744, Note_on_c, 0, 59, 96
2, 207790, Note_on_c, 0, 66, 0
2, 207830, Note_on_c, 0, 67, 96
2, 207882, Note_on_c, 0, 67, 0
2, 207883, Note_on_c, 0, 69, 96
2, 207916, Note_on_c, 0, 50, 0
2, 207935, Note_on_c, 0, 69, 0
2, 207936, Note_on_c, 0, 50, 96
2, 207936, Note_on_c, 0, 67, 96
2, 208031, Note_on_c, 0, 67, 0
2, 208032, Note_on_c, 0, 66, 96
2, 208124, Note_on_c, 0, 59, 0
2, 208127, Note_on_c, 0, 66, 0
2, 208127, Note_on_c, 0, 50, 0
2, 208128, Note_on_c, 0, 48, 96
2, 208128, Note_on_c, 0, 66, 96
2, 208223, Note_on_c, 0, 66, 0
2, 208224, Note_on_c, 0, 67, 96
2, 208271, Note_on_c, 0, 67, 0
2, 208272, Note_on_c, 0, 69, 96
2, 208319, Note_on_c, 0, 69, 0
2, 208320, Note_on_c, 0, 57, 96
2, 208320, Note_on_c, 0, 67, 96
2, 208415, Note_on_c, 0, 67, 0
2, 208416, Note_on_c, 0, 66, 96
2, 208508, Note_on_c, 0, 48, 0
2, 208511, Note_on_c, 0, 66, 0
2, 208511, Note_on_c, 0, 57, 0
2, 208512, Note_on_c, 0, 56, 96
2, 208512, Note_on_c, 0, 47, 96
2, 208512, Note_on_c, 0, 65, 96
2, 208592, Note_on_c, 0, 65, 0
2, 208598, Note_on_c, 0, 71, 96
2, 208648, Note_on_c, 0, 71, 0
2, 208651, Note_on_c, 0, 73, 96
2, 208701, Note_on_c, 0, 73, 0
2, 208703, Note_on_c, 0, 56, 0
2, 208704, Note_on_c, 0, 53, 96
2, 208704, Note_on_c, 0, 74, 96
2, 208799, Note_on_c, 0, 53, 0
2, 208800, Note_on_c, 0, 52, 96
2, 208892, Note_on_c, 0, 47, 0
2, 208895, Note_on_c, 0, 52, 0
2, 208896, Note_on_c, 0, 45, 96
2, 208896, Note_on_c, 0, 53, 96
2, 208991, Note_on_c, 0, 74, 0
2, 208992, Note_on_c, 0, 73, 96
2, 209087, Note_on_c, 0, 73, 0
2, 209087, Note_on_c, 0, 53, 0
2, 209088, Note_on_c, 0, 50, 96
2, 209088, Note_on_c, 0, 71, 96
2, 209183, Note_on_c, 0, 71, 0
2, 209184, Note_on_c, 0, 69, 96
2, 209276, Note_on_c, 0, 45, 0
2, 209279, Note_on_c, 0, 69, 0
2, 209280, Note_on_c, 0, 47, 96
2, 209280, Note_on_c, 0, 68, 96
2, 209343, Note_on_c, 0, 68, 0
2, 209344, Note_on_c, 0, 66, 96
2, 209407, Note_on_c, 0, 66, 0
2, 209408, Note_on_c, 0, 64, 96
2, 209468, Note_on_c, 0, 50, 0
2, 209471, Note_on_c, 0, 64, 0
2, 209472, Note_on_c, 0, 50, 96
2, 209472, Note_on_c, 0, 65, 96
2, 209660, Note_on_c, 0, 47, 0
2, 209664, Note_on_c, 0, 44, 96
2, 209727, Note_on_c, 0, 65, 0
2, 209728, Note_on_c, 0, 64, 96
2, 209791, Note_on_c, 0, 64, 0
2, 209792, Note_on_c, 0, 62, 96
2, 209852, Note_on_c, 0, 50, 0
2, 209855, Note_on_c, 0, 62, 0
2, 209856, Note_on_c, 0, 47, 96
2, 209856, Note_on_c, 0, 65, 96
2, 209919, Note_on_c, 0, 65, 0
2, 209920, Note_on_c, 0, 64, 96
2, 209983, Note_on_c, 0, 64, 0
2, 209984, Note_on_c, 0, 62, 96
2, 210044, Note_on_c, 0, 44, 0
2, 210047, Note_on_c, 0, 62, 0
2, 210047, Note_on_c, 0, 47, 0
2, 210048, Note_on_c, 0, 45, 96
2, 210048, Note_on_c, 0, 61, 96
2, 210111, Note_on_c, 0, 61, 0
2, 210112, Note_on_c, 0, 59, 96
2, 210175, Note_on_c, 0, 59, 0
2, 210176, Note_on_c, 0, 57, 96
2, 210240, Note_on_c, 0, 47, 96
2, 210240, Note_on_c, 0, 67, 96
2, 210306, Note_on_c, 0, 57, 0
2, 210431, Note_on_c, 0, 47, 0
2, 210432, Note_on_c, 0, 49, 96
2, 210495, Note_on_c, 0, 67, 0
2, 210496, Note_on_c, 0, 65, 96
2, 210559, Note_on_c, 0, 65, 0
2, 210560, Note_on_c, 0, 64, 96
2, 210623, Note_on_c, 0, 64, 0
2, 210623, Note_on_c, 0, 49, 0
2, 210624, Note_on_c, 0, 50, 96
2, 210624, Note_on_c, 0, 65, 96
2, 210687, Note_on_c, 0, 65, 0
2, 210688, Note_on_c, 0, 64, 96
2, 210751, Note_on_c, 0, 64, 0
2, 210752, Note_on_c, 0, 62, 96
2, 210815, Note_on_c, 0, 62, 0
2, 210815, Note_on_c, 0, 50, 0
2, 210815, Note_on_c, 0, 45, 0
2, 210816, Note_on_c, 0, 45, 96
2, 210816, Note_on_c, 0, 64, 96
2, 210879, Note_on_c, 0, 64, 0
2, 210880, Note_on_c, 0, 62, 96
2, 210943, Note_on_c, 0, 62, 0
2, 210944, Note_on_c, 0, 61, 96
2, 211008, Note_on_c, 0, 49, 96
2, 211008, Note_on_c, 0, 70, 96
2, 211104, Note_on_c, 0, 61, 0
2, 211199, Note_on_c, 0, 49, 0
2, 211200, Note_on_c, 0, 50, 96
2, 211263, Note_on_c, 0, 70, 0
2, 211264, Note_on_c, 0, 69, 96
2, 211327, Note_on_c, 0, 69, 0
2, 211328, Note_on_c, 0, 67, 96
2, 211391, Note_on_c, 0, 67, 0
2, 211391, Note_on_c, 0, 50, 0
2, 211392, Note_on_c, 0, 53, 96
2, 211392, Note_on_c, 0, 69, 96
2, 211455, Note_on_c, 0, 69, 0
2, 211456, Note_on_c, 0, 67, 96
2, 211519, Note_on_c, 0, 67, 0
2, 211520, Note_on_c, 0, 65, 96
2, 211583, Note_on_c, 0, 65, 0
2, 211583, Note_on_c, 0, 53, 0
2, 211583, Note_on_c, 0, 45, 0
2, 211584, Note_on_c, 0, 45, 96
2, 211584, Note_on_c, 0, 67, 96
2, 211647, Note_on_c, 0, 67, 0
2, 211648, Note_on_c, 0, 65, 96
2, 211711, Note_on_c, 0, 65, 0
2, 211712, Note_on_c, 0, 64, 96
2, 211776, Note_on_c, 0, 52, 96
2, 211776, Note_on_c, 0, 74, 96
2, 211842, Note_on_c, 0, 64, 0
2, 211967, Note_on_c, 0, 52, 0
2, 211968, Note_on_c, 0, 55, 96
2, 212031, Note_on_c, 0, 74, 0
2, 212032, Note_on_c, 0, 73, 96
2, 212095, Note_on_c, 0, 73, 0
2, 212096, Note_on_c, 0, 71, 96
2, 212159, Note_on_c, 0, 71, 0
2, 212159, Note_on_c, 0, 55, 0
2, 212160, Note_on_c, 0, 57, 96
2, 212160, Note_on_c, 0, 73, 96
2, 212223, Note_on_c, 0, 73, 0
2, 212224, Note_on_c, 0, 71, 96
2, 212287, Note_on_c, 0, 71, 0
2, 212288, Note_on_c, 0, 69, 96
2, 212334, Note_on_c, 0, 45, 0
2, 212345, Note_on_c, 0, 69, 0
2, 212351, Note_on_c, 0, 57, 0
2, 212352, Note_on_c, 0, 45, 96
2, 212352, Note_on_c, 0, 79, 96
2, 212415, Note_on_c, 0, 79, 0
2, 212416, Note_on_c, 0, 78, 96
2, 212479, Note_on_c, 0, 78, 0
2, 212480, Note_on_c, 0, 76, 96
2, 212543, Note_on_c, 0, 76, 0
2, 212544, Note_on_c, 0, 48, 96
2, 212544, Note_on_c, 0, 78, 96
2, 212607, Note_on_c, 0, 78, 0
2, 212608, Note_on_c, 0, 76, 96
2, 212652, Note_on_c, 0, 45, 0
2, 212671, Note_on_c, 0, 76, 0
2, 212672, Note_on_c, 0, 74, 96
2, 212735, Note_on_c, 0, 74, 0
2, 212735, Note_on_c, 0, 48, 0
2, 212736, Note_on_c, 0, 50, 96
2, 212736, Note_on_c, 0, 81, 96
2, 212879, Note_on_c, 0, 81, 0
2, 212880, Note_on_c, 0, 72, 96
2, 212928, Note_on_c, 0, 54, 96
2, 212958, Note_on_c, 0, 50, 0
2, 213119, Note_on_c, 0, 54, 0
2, 213120, Note_on_c, 0, 72, 0
2, 213120, Note_on_c, 0, 55, 96
2, 213168, Note_on_c, 0, 69, 96
2, 213215, Note_on_c, 0, 69, 0
2, 213216, Note_on_c, 0, 71, 96
2, 213263, Note_on_c, 0, 71, 0
2, 213264, Note_on_c, 0, 72, 96
2, 213311, Note_on_c, 0, 72, 0
2, 213312, Note_on_c, 0, 62, 96
2, 213312, Note_on_c, 0, 71, 96
2, 213407, Note_on_c, 0, 71, 0
2, 213408, Note_on_c, 0, 67, 96
2, 213503, Note_on_c, 0, 62, 0
2, 213504, Note_on_c, 0, 64, 96
2, 213593, Note_on_c, 0, 67, 0
2, 213600, Note_on_c, 0, 67, 96
2, 213647, Note_on_c, 0, 67, 0
2, 213648, Note_on_c, 0, 69, 96
2, 213695, Note_on_c, 0, 69, 0
2, 213695, Note_on_c, 0, 55, 0
2, 213696, Note_on_c, 0, 56, 96
2, 213696, Note_on_c, 0, 71, 96
2, 213743, Note_on_c, 0, 71, 0
2, 213744, Note_on_c, 0, 73, 96
2, 213791, Note_on_c, 0, 73, 0
2, 213792, Note_on_c, 0, 74, 96
2, 213887, Note_on_c, 0, 56, 0
2, 213888, Note_on_c, 0, 57, 96
2, 213928, Note_on_c, 0, 74, 0
2, 213936, Note_on_c, 0, 71, 96
2, 213983, Note_on_c, 0, 71, 0
2, 213984, Note_on_c, 0, 73, 96
2, 214031, Note_on_c, 0, 73, 0
2, 214032, Note_on_c, 0, 74, 96
2, 214079, Note_on_c, 0, 74, 0
2, 214079, Note_on_c, 0, 64, 0
2, 214080, Note_on_c, 0, 64, 96
2, 214080, Note_on_c, 0, 73, 96
2, 214175, Note_on_c, 0, 73, 0
2, 214176, Note_on_c, 0, 69, 96
2, 214271, Note_on_c, 0, 64, 0
2, 214272, Note_on_c, 0, 66, 96
2, 214342, Note_on_c, 0, 69, 0
2, 214368, Note_on_c, 0, 69, 96
2, 214415, Note_on_c, 0, 69, 0
2, 214416, Note_on_c, 0, 71, 96
2, 214463, Note_on_c, 0, 71, 0
2, 214463, Note_on_c, 0, 57, 0
2, 214464, Note_on_c, 0, 58, 96
2, 214464, Note_on_c, 0, 73, 96
2, 214511, Note_on_c, 0, 73, 0
2, 214512, Note_on_c, 0, 74, 96
2, 214559, Note_on_c, 0, 74, 0
2, 214560, Note_on_c, 0, 76, 96
2, 214655, Note_on_c, 0, 58, 0
2, 214656, Note_on_c, 0, 59, 96
2, 214696, Note_on_c, 0, 76, 0
2, 214704, Note_on_c, 0, 73, 96
2, 214751, Note_on_c, 0, 73, 0
2, 214752, Note_on_c, 0, 74, 96
2, 214799, Note_on_c, 0, 74, 0
2, 214800, Note_on_c, 0, 76, 96
2, 214847, Note_on_c, 0, 76, 0
2, 214847, Note_on_c, 0, 66, 0
2, 214848, Note_on_c, 0, 66, 96
2, 214848, Note_on_c, 0, 74, 96
2, 214943, Note_on_c, 0, 74, 0
2, 214944, Note_on_c, 0, 71, 96
2, 215039, Note_on_c, 0, 66, 0
2, 215040, Note_on_c, 0, 67, 96
2, 215114, Note_on_c, 0, 71, 0
2, 215136, Note_on_c, 0, 71, 96
2, 215183, Note_on_c, 0, 71, 0
2, 215184, Note_on_c, 0, 73, 96
2, 215231, Note_on_c, 0, 73, 0
2, 215231, Note_on_c, 0, 59, 0
2, 215232, Note_on_c, 0, 59, 96
2, 215232, Note_on_c, 0, 74, 96
2, 215279, Note_on_c, 0, 74, 0
2, 215280, Note_on_c, 0, 76, 96
2, 215327, Note_on_c, 0, 76, 0
2, 215328, Note_on_c, 0, 78, 96
2, 215423, Note_on_c, 0, 59, 0
2, 215424, Note_on_c, 0, 61, 96
2, 215466, Note_on_c, 0, 78, 0
2, 215472, Note_on_c, 0, 74, 96
2, 215519, Note_on_c, 0, 74, 0
2, 215520, Note_on_c, 0, 76, 96
2, 215567, Note_on_c, 0, 76, 0
2, 215568, Note_on_c, 0, 78, 96
2, 215615, Note_on_c, 0, 78, 0
2, 215615, Note_on_c, 0, 67, 0
2, 215616, Note_on_c, 0, 67, 96
2, 215616, Note_on_c, 0, 76, 96
2, 215711, Note_on_c, 0, 76, 0
2, 215712, Note_on_c, 0, 73, 96
2, 215807, Note_on_c, 0, 67, 0
2, 215808, Note_on_c, 0, 69, 96
2, 215886, Note_on_c, 0, 73, 0
2, 215904, Note_on_c, 0, 73, 96
2, 215951, Note_on_c, 0, 73, 0
2, 215952, Note_on_c, 0, 74, 96
2, 215999, Note_on_c, 0, 74, 0
2, 215999, Note_on_c, 0, 61, 0
2, 216000, Note_on_c, 0, 61, 96
2, 216000, Note_on_c, 0, 76, 96
2, 216047, Note_on_c, 0, 76, 0
2, 216048, Note_on_c, 0, 78, 96
2, 216095, Note_on_c, 0, 78, 0
2, 216096, Note_on_c, 0, 79, 96
2, 216191, Note_on_c, 0, 61, 0
2, 216192, Note_on_c, 0, 62, 96
2, 216241, Note_on_c, 0, 79, 0
2, 216256, Note_on_c, 0, 78, 96
2, 216319, Note_on_c, 0, 78, 0
2, 216320, Note_on_c, 0, 76, 96
2, 216383, Note_on_c, 0, 76, 0
2, 216383, Note_on_c, 0, 69, 0
2, 216384, Note_on_c, 0, 69, 96
2, 216384, Note_on_c, 0, 78, 96
2, 216447, Note_on_c, 0, 78, 0
2, 216448, Note_on_c, 0, 76, 96
2, 216511, Note_on_c, 0, 76, 0
2, 216512, Note_on_c, 0, 74, 96
2, 216572, Note_on_c, 0, 62, 0
2, 216575, Note_on_c, 0, 74, 0
2, 216576, Note_on_c, 0, 60, 96
2, 216576, Note_on_c, 0, 79, 96
2, 216639, Note_on_c, 0, 79, 0
2, 216640, Note_on_c, 0, 77, 96
2, 216703, Note_on_c, 0, 77, 0
2, 216704, Note_on_c, 0, 76, 96
2, 216764, Note_on_c, 0, 69, 0
2, 216767, Note_on_c, 0, 76, 0
2, 216768, Note_on_c, 0, 69, 96
2, 216768, Note_on_c, 0, 77, 96
2, 216831, Note_on_c, 0, 77, 0
2, 216832, Note_on_c, 0, 76, 96
2, 216895, Note_on_c, 0, 76, 0
2, 216896, Note_on_c, 0, 74, 96
2, 216956, Note_on_c, 0, 60, 0
2, 216959, Note_on_c, 0, 74, 0
2, 216959, Note_on_c, 0, 69, 0
2, 216960, Note_on_c, 0, 59, 96
2, 216960, Note_on_c, 0, 77, 96
2, 217069, Note_on_c, 0, 77, 0
2, 217070, Note_on_c, 0, 68, 96
2, 217152, Note_on_c, 0, 62, 96
2, 217247, Note_on_c, 0, 68, 0
2, 217248, Note_on_c, 0, 69, 96
2, 217340, Note_on_c, 0, 59, 0
2, 217344, Note_on_c, 0, 57, 96
2, 217388, Note_on_c, 0, 69, 0
2, 217408, Note_on_c, 0, 74, 96
2, 217471, Note_on_c, 0, 74, 0
2, 217472, Note_on_c, 0, 76, 96
2, 217532, Note_on_c, 0, 62, 0
2, 217535, Note_on_c, 0, 76, 0
2, 217536, Note_on_c, 0, 62, 96
2, 217536, Note_on_c, 0, 77, 96
2, 217599, Note_on_c, 0, 77, 0
2, 217600, Note_on_c, 0, 76, 96
2, 217663, Note_on_c, 0, 76, 0
2, 217664, Note_on_c, 0, 74, 96
2, 217724, Note_on_c, 0, 57, 0
2, 217727, Note_on_c, 0, 74, 0
2, 217727, Note_on_c, 0, 62, 0
2, 217728, Note_on_c, 0, 55, 96
2, 217728, Note_on_c, 0, 82, 96
2, 217835, Note_on_c, 0, 82, 0
2, 217836, Note_on_c, 0, 73, 96
2, 217920, Note_on_c, 0, 64, 96
2, 217986, Note_on_c, 0, 73, 0
2, 218016, Note_on_c, 0, 74, 96
2, 218108, Note_on_c, 0, 55, 0
2, 218111, Note_on_c, 0, 64, 0
2, 218112, Note_on_c, 0, 53, 96
2, 218112, Note_on_c, 0, 57, 96
2, 218158, Note_on_c, 0, 74, 0
2, 218176, Note_on_c, 0, 67, 96
2, 218239, Note_on_c, 0, 67, 0
2, 218240, Note_on_c, 0, 69, 96
2, 218303, Note_on_c, 0, 69, 0
2, 218303, Note_on_c, 0, 57, 0
2, 218304, Note_on_c, 0, 62, 96
2, 218304, Note_on_c, 0, 70, 96
2, 218367, Note_on_c, 0, 70, 0
2, 218368, Note_on_c, 0, 69, 96
2, 218431, Note_on_c, 0, 69, 0
2, 218432, Note_on_c, 0, 67, 96
2, 218492, Note_on_c, 0, 53, 0
2, 218495, Note_on_c, 0, 67, 0
2, 218495, Note_on_c, 0, 62, 0
2, 218496, Note_on_c, 0, 52, 96
2, 218496, Note_on_c, 0, 73, 96
2, 218559, Note_on_c, 0, 73, 0
2, 218560, Note_on_c, 0, 67, 96
2, 218623, Note_on_c, 0, 67, 0
2, 218624, Note_on_c, 0, 69, 96
2, 218687, Note_on_c, 0, 69, 0
2, 218688, Note_on_c, 0, 55, 96
2, 218688, Note_on_c, 0, 70, 96
2, 218751, Note_on_c, 0, 70, 0
2, 218752, Note_on_c, 0, 69, 96
2, 218815, Note_on_c, 0, 69, 0
2, 218816, Note_on_c, 0, 67, 96
2, 218876, Note_on_c, 0, 52, 0
2, 218879, Note_on_c, 0, 67, 0
2, 218880, Note_on_c, 0, 50, 96
2, 218880, Note_on_c, 0, 74, 96
2, 218943, Note_on_c, 0, 74, 0
2, 218944, Note_on_c, 0, 67, 96
2, 219007, Note_on_c, 0, 67, 0
2, 219008, Note_on_c, 0, 69, 96
2, 219068, Note_on_c, 0, 55, 0
2, 219071, Note_on_c, 0, 69, 0
2, 219072, Note_on_c, 0, 55, 96
2, 219072, Note_on_c, 0, 70, 96
2, 219135, Note_on_c, 0, 70, 0
2, 219136, Note_on_c, 0, 69, 96
2, 219199, Note_on_c, 0, 69, 0
2, 219200, Note_on_c, 0, 67, 96
2, 219260, Note_on_c, 0, 50, 0
2, 219263, Note_on_c, 0, 67, 0
2, 219263, Note_on_c, 0, 55, 0
2, 219264, Note_on_c, 0, 49, 96
2, 219264, Note_on_c, 0, 76, 96
2, 219316, Note_on_c, 0, 76, 0
2, 219317, Note_on_c, 0, 70, 96
2, 219369, Note_on_c, 0, 70, 0
2, 219370, Note_on_c, 0, 69, 96
2, 219422, Note_on_c, 0, 69, 0
2, 219423, Note_on_c, 0, 67, 96
2, 219456, Note_on_c, 0, 52, 96
2, 219475, Note_on_c, 0, 67, 0
2, 219476, Note_on_c, 0, 69, 96
2, 219561, Note_on_c, 0, 69, 0
2, 219562, Note_on_c, 0, 64, 96
2, 219644, Note_on_c, 0, 49, 0
2, 219647, Note_on_c, 0, 64, 0
2, 219647, Note_on_c, 0, 52, 0
2, 219648, Note_on_c, 0, 50, 96
2, 219648, Note_on_c, 0, 65, 96
2, 219743, Note_on_c, 0, 65, 0
2, 219744, Note_on_c, 0, 61, 96
2, 219839, Note_on_c, 0, 61, 0
2, 219840, Note_on_c, 0, 53, 96
2, 219840, Note_on_c, 0, 62, 96
2, 219935, Note_on_c, 0, 62, 0
2, 219936, Note_on_c, 0, 56, 96
2, 220028, Note_on_c, 0, 50, 0
2, 220031, Note_on_c, 0, 56, 0
2, 220032, Note_on_c, 0, 45, 96
2, 220080, Note_on_c, 0, 57, 96
2, 220127, Note_on_c, 0, 57, 0
2, 220128, Note_on_c, 0, 59, 96
2, 220175, Note_on_c, 0, 59, 0
2, 220176, Note_on_c, 0, 61, 96
2, 220220, Note_on_c, 0, 53, 0
2, 220223, Note_on_c, 0, 61, 0
2, 220224, Note_on_c, 0, 52, 96
2, 220224, Note_on_c, 0, 62, 96
2, 220271, Note_on_c, 0, 62, 0
2, 220272, Note_on_c, 0, 64, 96
2, 220319, Note_on_c, 0, 64, 0
2, 220319, Note_on_c, 0, 52, 0
2, 220320, Note_on_c, 0, 50, 96
2, 220320, Note_on_c, 0, 66, 96
2, 220367, Note_on_c, 0, 66, 0
2, 220368, Note_on_c, 0, 67, 96
2, 220415, Note_on_c, 0, 50, 0
2, 220416, Note_on_c, 0, 49, 96
2, 220471, Note_on_c, 0, 67, 0
2, 220480, Note_on_c, 0, 66, 96
2, 220543, Note_on_c, 0, 66, 0
2, 220544, Note_on_c, 0, 64, 96
2, 220607, Note_on_c, 0, 64, 0
2, 220607, Note_on_c, 0, 45, 0
2, 220608, Note_on_c, 0, 43, 96
2, 220608, Note_on_c, 0, 66, 96
2, 220671, Note_on_c, 0, 66, 0
2, 220672, Note_on_c, 0, 64, 96
2, 220735, Note_on_c, 0, 64, 0
2, 220736, Note_on_c, 0, 62, 96
2, 220796, Note_on_c, 0, 49, 0
2, 220799, Note_on_c, 0, 43, 0
2, 220800, Note_on_c, 0, 42, 96
2, 220831, Note_on_c, 0, 62, 0
2, 220848, Note_on_c, 0, 66, 96
2, 220895, Note_on_c, 0, 66, 0
2, 220896, Note_on_c, 0, 64, 96
2, 220943, Note_on_c, 0, 64, 0
2, 220944, Note_on_c, 0, 62, 96
2, 220991, Note_on_c, 0, 62, 0
2, 220992, Note_on_c, 0, 50, 96
2, 220992, Note_on_c, 0, 72, 96
2, 221180, Note_on_c, 0, 42, 0
2, 221184, Note_on_c, 0, 43, 96
2, 221271, Note_on_c, 0, 71, 96
2, 221275, Note_on_c, 0, 72, 0
2, 221320, Note_on_c, 0, 71, 0
2, 221324, Note_on_c, 0, 69, 96
2, 221372, Note_on_c, 0, 50, 0
2, 221373, Note_on_c, 0, 69, 0
2, 221375, Note_on_c, 0, 43, 0
2, 221376, Note_on_c, 0, 52, 96
2, 221376, Note_on_c, 0, 55, 96
2, 221377, Note_on_c, 0, 71, 96
2, 221460, Note_on_c, 0, 71, 0
2, 221481, Note_on_c, 0, 76, 96
2, 221567, Note_on_c, 0, 52, 0
2, 221568, Note_on_c, 0, 49, 96
2, 221601, Note_on_c, 0, 76, 0
2, 221616, Note_on_c, 0, 74, 96
2, 221663, Note_on_c, 0, 74, 0
2, 221664, Note_on_c, 0, 73, 96
2, 221711, Note_on_c, 0, 73, 0
2, 221712, Note_on_c, 0, 71, 96
2, 221756, Note_on_c, 0, 55, 0
2, 221759, Note_on_c, 0, 71, 0
2, 221759, Note_on_c, 0, 49, 0
2, 221760, Note_on_c, 0, 50, 96
2, 221760, Note_on_c, 0, 54, 96
2, 221760, Note_on_c, 0, 69, 96
2, 221817, Note_on_c, 0, 69, 0
2, 221818, Note_on_c, 0, 74, 96
2, 221875, Note_on_c, 0, 74, 0
2, 221876, Note_on_c, 0, 68, 96
2, 221951, Note_on_c, 0, 50, 0
2, 221952, Note_on_c, 0, 45, 96
2, 222015, Note_on_c, 0, 68, 0
2, 222016, Note_on_c, 0, 69, 96
2, 222079, Note_on_c, 0, 69, 0
2, 222080, Note_on_c, 0, 62, 96
2, 222140, Note_on_c, 0, 54, 0
2, 222143, Note_on_c, 0, 62, 0
2, 222144, Note_on_c, 0, 52, 96
2, 222144, Note_on_c, 0, 61, 96
2, 222144, Note_on_c, 0, 67, 96
2, 222207, Note_on_c, 0, 67, 0
2, 222208, Note_on_c, 0, 66, 96
2, 222271, Note_on_c, 0, 66, 0
2, 222272, Note_on_c, 0, 64, 96
2, 222332, Note_on_c, 0, 45, 0
2, 222334, Note_on_c, 0, 61, 0
2, 222335, Note_on_c, 0, 52, 0
2, 222335, Note_on_c, 0, 64, 0
2, 222336, Note_on_c, 0, 54, 96
2, 222336, Note_on_c, 0, 50, 96
2, 222336, Note_on_c, 0, 62, 96
2, 222527, Note_on_c, 0, 50, 0
2, 222527, Note_on_c, 0, 54, 0
2, 222528, Note_on_c, 0, 38, 96
2, 222576, Note_on_c, 0, 59, 96
2, 222623, Note_on_c, 0, 59, 0
2, 222624, Note_on_c, 0, 57, 96
2, 222671, Note_on_c, 0, 57, 0
2, 222672, Note_on_c, 0, 55, 96
2, 222719, Note_on_c, 0, 55, 0
2, 222720, Note_on_c, 0, 42, 96
2, 222720, Note_on_c, 0, 57, 96
2, 222839, Note_on_c, 0, 57, 0
2, 222840, Note_on_c, 0, 61, 96
2, 222911, Note_on_c, 0, 42, 0
2, 222911, Note_on_c, 0, 62, 0
2, 222912, Note_on_c, 0, 45, 96
2, 223031, Note_on_c, 0, 61, 0
2, 223032, Note_on_c, 0, 62, 96
2, 223103, Note_on_c, 0, 45, 0
2, 223104, Note_on_c, 0, 50, 96
2, 223104, Note_on_c, 0, 55, 96
2, 223363, Note_on_c, 0, 55, 0
2, 223364, Note_on_c, 0, 54, 96
2, 223732, Note_on_c, 0, 62, 0
2, 224048, Note_on_c, 0, 38, 0
2, 224064, Note_on_c, 0, 50, 0
2, 224084, Note_on_c, 0, 54, 0
2, 226752, Note_on_c, 0, 66, 96
2, 226932, Note_on_c, 0, 66, 0
2, 226944, Note_on_c, 0, 57, 96
2, 226944, Note_on_c, 0, 62, 96
2, 226944, Note_on_c, 0, 66, 96
2, 226944, Note_on_c, 0, 38, 96
2, 227328, Note_on_c, 0, 50, 96
2, 227519, Note_on_c, 0, 66, 0
2, 227519, Note_on_c, 0, 57, 0
2, 227519, Note_on_c, 0, 62, 0
2, 227520, Note_on_c, 0, 62, 96
2, 227615, Note_on_c, 0, 62, 0
2, 227616, Note_on_c, 0, 66, 96
2, 227711, Note_on_c, 0, 66, 0
2, 227711, Note_on_c, 0, 38, 0
2, 227711, Note_on_c, 0, 50, 0
2, 227712, Note_on_c, 0, 67, 96
2, 227712, Note_on_c, 0, 52, 96
2, 227903, Note_on_c, 0, 67, 0
2, 227904, Note_on_c, 0, 62, 96
2, 227999, Note_on_c, 0, 62, 0
2, 228000, Note_on_c, 0, 67, 96
2, 228095, Note_on_c, 0, 67, 0
2, 228095, Note_on_c, 0, 52, 0
2, 228096, Note_on_c, 0, 69, 96
2, 228096, Note_on_c, 0, 54, 96
2, 228479, Note_on_c, 0, 54, 0
2, 228479, Note_on_c, 0, 69, 0
2, 228480, Note_on_c, 0, 71, 96
2, 228480, Note_on_c, 0, 55, 96
2, 228575, Note_on_c, 0, 71, 0
2, 228576, Note_on_c, 0, 69, 96
2, 228671, Note_on_c, 0, 69, 0
2, 228672, Note_on_c, 0, 71, 96
2, 228863, Note_on_c, 0, 71, 0
2, 228863, Note_on_c, 0, 55, 0
2, 228864, Note_on_c, 0, 73, 96
2, 228864, Note_on_c, 0, 52, 96
2, 229247, Note_on_c, 0, 52, 0
2, 229247, Note_on_c, 0, 73, 0
2, 229248, Note_on_c, 0, 62, 96
2, 229248, Note_on_c, 0, 74, 96
2, 229248, Note_on_c, 0, 69, 96
2, 229248, Note_on_c, 0, 54, 96
2, 229248, Note_on_c, 0, 50, 96
2, 229823, Note_on_c, 0, 50, 0
2, 229823, Note_on_c, 0, 54, 0
2, 229824, Note_on_c, 0, 50, 96
2, 229919, Note_on_c, 0, 50, 0
2, 229920, Note_on_c, 0, 54, 96
2, 230015, Note_on_c, 0, 54, 0
2, 230015, Note_on_c, 0, 62, 0
2, 230015, Note_on_c, 0, 74, 0
2, 230015, Note_on_c, 0, 69, 0
2, 230016, Note_on_c, 0, 71, 96
2, 230016, Note_on_c, 0, 76, 96
2, 230016, Note_on_c, 0, 55, 96
2, 230207, Note_on_c, 0, 55, 0
2, 230208, Note_on_c, 0, 50, 96
2, 230303, Note_on_c, 0, 50, 0
2, 230304, Note_on_c, 0, 55, 96
2, 230399, Note_on_c, 0, 55, 0
2, 230399, Note_on_c, 0, 76, 0
2, 230399, Note_on_c, 0, 71, 0
2, 230400, Note_on_c, 0, 73, 96
2, 230400, Note_on_c, 0, 78, 96
2, 230400, Note_on_c, 0, 57, 96
2, 230783, Note_on_c, 0, 57, 0
2, 230783, Note_on_c, 0, 78, 0
2, 230783, Note_on_c, 0, 73, 0
2, 230784, Note_on_c, 0, 78, 96
2, 230784, Note_on_c, 0, 74, 96
2, 230784, Note_on_c, 0, 59, 96
2, 230975, Note_on_c, 0, 78, 0
2, 230976, Note_on_c, 0, 79, 96
2, 231072, Note_on_c, 0, 74, 0
2, 231167, Note_on_c, 0, 79, 0
2, 231167, Note_on_c, 0, 59, 0
2, 231168, Note_on_c, 0, 69, 96
2, 231168, Note_on_c, 0, 78, 96
2, 231168, Note_on_c, 0, 61, 96
2, 231359, Note_on_c, 0, 78, 0
2, 231360, Note_on_c, 0, 76, 96
2, 231551, Note_on_c, 0, 76, 0
2, 231551, Note_on_c, 0, 61, 0
2, 231552, Note_on_c, 0, 78, 96
2, 231552, Note_on_c, 0, 62, 96
2, 231743, Note_on_c, 0, 78, 0
2, 231743, Note_on_c, 0, 69, 0
2, 231744, Note_on_c, 0, 74, 96
2, 231839, Note_on_c, 0, 74, 0
2, 231840, Note_on_c, 0, 78, 96
2, 231935, Note_on_c, 0, 78, 0
2, 231935, Note_on_c, 0, 62, 0
2, 231936, Note_on_c, 0, 79, 96
2, 231936, Note_on_c, 0, 62, 96
2, 231936, Note_on_c, 0, 59, 96
2, 232127, Note_on_c, 0, 79, 0
2, 232128, Note_on_c, 0, 74, 96
2, 232223, Note_on_c, 0, 74, 0
2, 232224, Note_on_c, 0, 79, 96
2, 232319, Note_on_c, 0, 79, 0
2, 232319, Note_on_c, 0, 59, 0
2, 232320, Note_on_c, 0, 81, 96
2, 232320, Note_on_c, 0, 54, 96
2, 232600, Note_on_c, 0, 81, 0
2, 232703, Note_on_c, 0, 54, 0
2, 232704, Note_on_c, 0, 55, 96
2, 232896, Note_on_c, 0, 71, 96
2, 233086, Note_on_c, 0, 62, 0
2, 233087, Note_on_c, 0, 71, 0
2, 233088, Note_on_c, 0, 76, 96
2, 233088, Note_on_c, 0, 59, 96
2, 233279, Note_on_c, 0, 76, 0
2, 233280, Note_on_c, 0, 78, 96
2, 233375, Note_on_c, 0, 78, 0
2, 233376, Note_on_c, 0, 79, 96
2, 233471, Note_on_c, 0, 79, 0
2, 233471, Note_on_c, 0, 55, 0
2, 233472, Note_on_c, 0, 78, 96
2, 233472, Note_on_c, 0, 56, 96
2, 233663, Note_on_c, 0, 78, 0
2, 233664, Note_on_c, 0, 76, 96
2, 233855, Note_on_c, 0, 76, 0
2, 233855, Note_on_c, 0, 56, 0
2, 233855, Note_on_c, 0, 59, 0
2, 233856, Note_on_c, 0, 74, 96
2, 233856, Note_on_c, 0, 57, 96
2, 233951, Note_on_c, 0, 74, 0
2, 233952, Note_on_c, 0, 73, 96
2, 233999, Note_on_c, 0, 73, 0
2, 234000, Note_on_c, 0, 74, 96
2, 234047, Note_on_c, 0, 74, 0
2, 234048, Note_on_c, 0, 73, 96
2, 234095, Note_on_c, 0, 73, 0
2, 234096, Note_on_c, 0, 74, 96
2, 234143, Note_on_c, 0, 74, 0
2, 234144, Note_on_c, 0, 73, 96
2, 234191, Note_on_c, 0, 73, 0
2, 234192, Note_on_c, 0, 74, 96
2, 234239, Note_on_c, 0, 74, 0
2, 234240, Note_on_c, 0, 73, 96
2, 234240, Note_on_c, 0, 45, 96
2, 234431, Note_on_c, 0, 73, 0
2, 234432, Note_on_c, 0, 69, 96
2, 234527, Note_on_c, 0, 69, 0
2, 234528, Note_on_c, 0, 73, 96
2, 234623, Note_on_c, 0, 73, 0
2, 234623, Note_on_c, 0, 45, 0
2, 234624, Note_on_c, 0, 74, 96
2, 234624, Note_on_c, 0, 47, 96
2, 234815, Note_on_c, 0, 74, 0
2, 234816, Note_on_c, 0, 69, 96
2, 234911, Note_on_c, 0, 69, 0
2, 234912, Note_on_c, 0, 74, 96
2, 235007, Note_on_c, 0, 74, 0
2, 235007, Note_on_c, 0, 47, 0
2, 235008, Note_on_c, 0, 76, 96
2, 235008, Note_on_c, 0, 49, 96
2, 235386, Note_on_c, 0, 57, 0
2, 235391, Note_on_c, 0, 49, 0
2, 235392, Note_on_c, 0, 69, 96
2, 235392, Note_on_c, 0, 50, 96
2, 235583, Note_on_c, 0, 50, 0
2, 235584, Note_on_c, 0, 49, 96
2, 235775, Note_on_c, 0, 49, 0
2, 235775, Note_on_c, 0, 69, 0
2, 235776, Note_on_c, 0, 67, 96
2, 235776, Note_on_c, 0, 47, 96
2, 235967, Note_on_c, 0, 47, 0
2, 235968, Note_on_c, 0, 45, 96
2, 236148, Note_on_c, 0, 76, 0
2, 236159, Note_on_c, 0, 45, 0
2, 236160, Note_on_c, 0, 50, 96
2, 236351, Note_on_c, 0, 67, 0
2, 236352, Note_on_c, 0, 66, 96
2, 236447, Note_on_c, 0, 66, 0
2, 236448, Note_on_c, 0, 64, 96
2, 236543, Note_on_c, 0, 64, 0
2, 236544, Note_on_c, 0, 66, 96
2, 236544, Note_on_c, 0, 62, 96
2, 236735, Note_on_c, 0, 62, 0
2, 236735, Note_on_c, 0, 66, 0
2, 236736, Note_on_c, 0, 70, 96
2, 236736, Note_on_c, 0, 61, 96
2, 236927, Note_on_c, 0, 61, 0
2, 236927, Note_on_c, 0, 70, 0
2, 236928, Note_on_c, 0, 71, 96
2, 236928, Note_on_c, 0, 62, 96
2, 236991, Note_on_c, 0, 71, 0
2, 236992, Note_on_c, 0, 70, 96
2, 237055, Note_on_c, 0, 70, 0
2, 237056, Note_on_c, 0, 71, 96
2, 237160, Note_on_c, 0, 50, 0
2, 237311, Note_on_c, 0, 62, 0
2, 237312, Note_on_c, 0, 55, 96
2, 237312, Note_on_c, 0, 59, 96
2, 237503, Note_on_c, 0, 71, 0
2, 237504, Note_on_c, 0, 73, 96
2, 237695, Note_on_c, 0, 73, 0
2, 237695, Note_on_c, 0, 55, 0
2, 237696, Note_on_c, 0, 74, 96
2, 237696, Note_on_c, 0, 52, 96
2, 237887, Note_on_c, 0, 74, 0
2, 237888, Note_on_c, 0, 73, 96
2, 238079, Note_on_c, 0, 73, 0
2, 238079, Note_on_c, 0, 52, 0
2, 238079, Note_on_c, 0, 59, 0
2, 238080, Note_on_c, 0, 76, 96
2, 238080, Note_on_c, 0, 58, 96
2, 238080, Note_on_c, 0, 54, 96
2, 238463, Note_on_c, 0, 54, 0
2, 238463, Note_on_c, 0, 58, 0
2, 238463, Note_on_c, 0, 76, 0
2, 238464, Note_on_c, 0, 76, 96
2, 238464, Note_on_c, 0, 47, 96
2, 238654, Note_on_c, 0, 76, 0
2, 238655, Note_on_c, 0, 47, 0
2, 238656, Note_on_c, 0, 74, 96
2, 238656, Note_on_c, 0, 54, 96
2, 238847, Note_on_c, 0, 54, 0
2, 238848, Note_on_c, 0, 59, 96
2, 238936, Note_on_c, 0, 74, 0
2, 239039, Note_on_c, 0, 59, 0
2, 239040, Note_on_c, 0, 71, 96
2, 239040, Note_on_c, 0, 62, 96
2, 239135, Note_on_c, 0, 71, 0
2, 239136, Note_on_c, 0, 74, 96
2, 239231, Note_on_c, 0, 74, 0
2, 239231, Note_on_c, 0, 62, 0
2, 239232, Note_on_c, 0, 76, 96
2, 239232, Note_on_c, 0, 61, 96
2, 239423, Note_on_c, 0, 61, 0
2, 239423, Note_on_c, 0, 76, 0
2, 239424, Note_on_c, 0, 73, 96
2, 239424, Note_on_c, 0, 64, 96
2, 239519, Note_on_c, 0, 73, 0
2, 239520, Note_on_c, 0, 76, 96
2, 239615, Note_on_c, 0, 76, 0
2, 239615, Note_on_c, 0, 64, 0
2, 239616, Note_on_c, 0, 78, 96
2, 239616, Note_on_c, 0, 62, 96
2, 239807, Note_on_c, 0, 62, 0
2, 239808, Note_on_c, 0, 66, 96
2, 239999, Note_on_c, 0, 66, 0
2, 239999, Note_on_c, 0, 78, 0
2, 240000, Note_on_c, 0, 80, 96
2, 240000, Note_on_c, 0, 64, 96
2, 240063, Note_on_c, 0, 80, 0
2, 240064, Note_on_c, 0, 78, 96
2, 240127, Note_on_c, 0, 78, 0
2, 240128, Note_on_c, 0, 80, 96
2, 240191, Note_on_c, 0, 64, 0
2, 240192, Note_on_c, 0, 62, 96
2, 240383, Note_on_c, 0, 62, 0
2, 240384, Note_on_c, 0, 61, 96
2, 240575, Note_on_c, 0, 61, 0
2, 240575, Note_on_c, 0, 80, 0
2, 240576, Note_on_c, 0, 81, 96
2, 240576, Note_on_c, 0, 59, 96
2, 240767, Note_on_c, 0, 59, 0
2, 240767, Note_on_c, 0, 81, 0
2, 240768, Note_on_c, 0, 81, 96
2, 240768, Note_on_c, 0, 64, 96
2, 240863, Note_on_c, 0, 81, 0
2, 240864, Note_on_c, 0, 80, 96
2, 240912, Note_on_c, 0, 81, 96
2, 240915, Note_on_c, 0, 80, 0
2, 240959, Note_on_c, 0, 64, 0
2, 240960, Note_on_c, 0, 80, 96
2, 240960, Note_on_c, 0, 59, 96
2, 240963, Note_on_c, 0, 81, 0
2, 241008, Note_on_c, 0, 81, 96
2, 241011, Note_on_c, 0, 80, 0
2, 241056, Note_on_c, 0, 80, 96
2, 241059, Note_on_c, 0, 81, 0
2, 241104, Note_on_c, 0, 81, 96
2, 241107, Note_on_c, 0, 80, 0
2, 241151, Note_on_c, 0, 59, 0
2, 241152, Note_on_c, 0, 80, 96
2, 241152, Note_on_c, 0, 52, 96
2, 241155, Note_on_c, 0, 81, 0
2, 241343, Note_on_c, 0, 52, 0
2, 241343, Note_on_c, 0, 80, 0
2, 241344, Note_on_c, 0, 76, 96
2, 241344, Note_on_c, 0, 50, 96
2, 241439, Note_on_c, 0, 76, 0
2, 241440, Note_on_c, 0, 80, 96
2, 241535, Note_on_c, 0, 80, 0
2, 241535, Note_on_c, 0, 50, 0
2, 241536, Note_on_c, 0, 81, 96
2, 241536, Note_on_c, 0, 49, 96
2, 241727, Note_on_c, 0, 49, 0
2, 241727, Note_on_c, 0, 81, 0
2, 241728, Note_on_c, 0, 76, 96
2, 241728, Note_on_c, 0, 47, 96
2, 241823, Note_on_c, 0, 76, 0
2, 241824, Note_on_c, 0, 81, 96
2, 241919, Note_on_c, 0, 81, 0
2, 241919, Note_on_c, 0, 47, 0
2, 241920, Note_on_c, 0, 83, 96
2, 241920, Note_on_c, 0, 45, 96
2, 242111, Note_on_c, 0, 45, 0
2, 242112, Note_on_c, 0, 44, 96
2, 242303, Note_on_c, 0, 44, 0
2, 242303, Note_on_c, 0, 83, 0
2, 242304, Note_on_c, 0, 81, 96
2, 242304, Note_on_c, 0, 42, 96
2, 242495, Note_on_c, 0, 42, 0
2, 242495, Note_on_c, 0, 81, 0
2, 242496, Note_on_c, 0, 80, 96
2, 242496, Note_on_c, 0, 40, 96
2, 242687, Note_on_c, 0, 40, 0
2, 242687, Note_on_c, 0, 80, 0
2, 242688, Note_on_c, 0, 78, 96
2, 242688, Note_on_c, 0, 42, 96
2, 242879, Note_on_c, 0, 42, 0
2, 242879, Note_on_c, 0, 78, 0
2, 242880, Note_on_c, 0, 76, 96
2, 242880, Note_on_c, 0, 44, 96
2, 243071, Note_on_c, 0, 44, 0
2, 243071, Note_on_c, 0, 76, 0
2, 243072, Note_on_c, 0, 74, 96
2, 243072, Note_on_c, 0, 45, 96
2, 243262, Note_on_c, 0, 74, 0
2, 243263, Note_on_c, 0, 45, 0
2, 243264, Note_on_c, 0, 73, 96
2, 243264, Note_on_c, 0, 52, 96
2, 243455, Note_on_c, 0, 52, 0
2, 243456, Note_on_c, 0, 57, 96
2, 243552, Note_on_c, 0, 73, 0
2, 243647, Note_on_c, 0, 57, 0
2, 243648, Note_on_c, 0, 69, 96
2, 243648, Note_on_c, 0, 61, 96
2, 243743, Note_on_c, 0, 69, 0
2, 243744, Note_on_c, 0, 73, 96
2, 243839, Note_on_c, 0, 73, 0
2, 243839, Note_on_c, 0, 61, 0
2, 243840, Note_on_c, 0, 74, 96
2, 243840, Note_on_c, 0, 59, 96
2, 244031, Note_on_c, 0, 59, 0
2, 244031, Note_on_c, 0, 74, 0
2, 244032, Note_on_c, 0, 69, 96
2, 244032, Note_on_c, 0, 62, 96
2, 244127, Note_on_c, 0, 69, 0
2, 244128, Note_on_c, 0, 74, 96
2, 244223, Note_on_c, 0, 74, 0
2, 244223, Note_on_c, 0, 62, 0
2, 244224, Note_on_c, 0, 76, 96
2, 244224, Note_on_c, 0, 61, 96
2, 244415, Note_on_c, 0, 61, 0
2, 244416, Note_on_c, 0, 64, 96
2, 244607, Note_on_c, 0, 64, 0
2, 244607, Note_on_c, 0, 76, 0
2, 244608, Note_on_c, 0, 78, 96
2, 244608, Note_on_c, 0, 62, 96
2, 244671, Note_on_c, 0, 78, 0
2, 244672, Note_on_c, 0, 76, 96
2, 244735, Note_on_c, 0, 76, 0
2, 244736, Note_on_c, 0, 78, 96
2, 244799, Note_on_c, 0, 62, 0
2, 244800, Note_on_c, 0, 61, 96
2, 244991, Note_on_c, 0, 61, 0
2, 244992, Note_on_c, 0, 59, 96
2, 245183, Note_on_c, 0, 59, 0
2, 245183, Note_on_c, 0, 78, 0
2, 245184, Note_on_c, 0, 79, 96
2, 245184, Note_on_c, 0, 57, 96
2, 245375, Note_on_c, 0, 57, 0
2, 245375, Note_on_c, 0, 79, 0
2, 245376, Note_on_c, 0, 78, 96
2, 245376, Note_on_c, 0, 62, 96
2, 245760, Note_on_c, 0, 50, 96
2, 245952, Note_on_c, 0, 71, 96
2, 246143, Note_on_c, 0, 71, 0
2, 246143, Note_on_c, 0, 50, 0
2, 246143, Note_on_c, 0, 62, 0
2, 246144, Note_on_c, 0, 73, 96
2, 246144, Note_on_c, 0, 66, 96
2, 246144, Note_on_c, 0, 62, 96
2, 246203, Note_on_c, 0, 73, 0
2, 246204, Note_on_c, 0, 71, 96
2, 246263, Note_on_c, 0, 71, 0
2, 246264, Note_on_c, 0, 69, 96
2, 246335, Note_on_c, 0, 69, 0
2, 246336, Note_on_c, 0, 71, 96
2, 246526, Note_on_c, 0, 78, 0
2, 246527, Note_on_c, 0, 71, 0
2, 246527, Note_on_c, 0, 66, 0
2, 246528, Note_on_c, 0, 76, 96
2, 246528, Note_on_c, 0, 68, 96
2, 246911, Note_on_c, 0, 68, 0
2, 246911, Note_on_c, 0, 62, 0
2, 246912, Note_on_c, 0, 69, 96
2, 246912, Note_on_c, 0, 61, 96
2, 247103, Note_on_c, 0, 69, 0
2, 247104, Note_on_c, 0, 71, 96
2, 247295, Note_on_c, 0, 71, 0
2, 247296, Note_on_c, 0, 73, 96
2, 247296, Note_on_c, 0, 64, 96
2, 247487, Note_on_c, 0, 73, 0
2, 247488, Note_on_c, 0, 69, 96
2, 247676, Note_on_c, 0, 64, 0
2, 247678, Note_on_c, 0, 76, 0
2, 247679, Note_on_c, 0, 69, 0
2, 247680, Note_on_c, 0, 66, 96
2, 247680, Note_on_c, 0, 74, 96
2, 247871, Note_on_c, 0, 66, 0
2, 247872, Note_on_c, 0, 61, 0
2, 247872, Note_on_c, 0, 66, 96
2, 247872, Note_on_c, 0, 61, 96
2, 248063, Note_on_c, 0, 61, 0
2, 248063, Note_on_c, 0, 66, 0
2, 248064, Note_on_c, 0, 68, 96
2, 248064, Note_on_c, 0, 59, 96
2, 248123, Note_on_c, 0, 68, 0
2, 248124, Note_on_c, 0, 66, 96
2, 248183, Note_on_c, 0, 66, 0
2, 248184, Note_on_c, 0, 64, 96
2, 248255, Note_on_c, 0, 64, 0
2, 248255, Note_on_c, 0, 59, 0
2, 248256, Note_on_c, 0, 66, 96
2, 248256, Note_on_c, 0, 57, 96
2, 248447, Note_on_c, 0, 57, 0
2, 248447, Note_on_c, 0, 66, 0
2, 248448, Note_on_c, 0, 71, 96
2, 248448, Note_on_c, 0, 56, 96
2, 248639, Note_on_c, 0, 56, 0
2, 248640, Note_on_c, 0, 57, 96
2, 248831, Note_on_c, 0, 57, 0
2, 248831, Note_on_c, 0, 71, 0
2, 248832, Note_on_c, 0, 64, 96
2, 248832, Note_on_c, 0, 56, 96
2, 249023, Note_on_c, 0, 64, 0
2, 249024, Note_on_c, 0, 66, 96
2, 249215, Note_on_c, 0, 66, 0
2, 249215, Note_on_c, 0, 56, 0
2, 249216, Note_on_c, 0, 68, 96
2, 249216, Note_on_c, 0, 52, 96
2, 249407, Note_on_c, 0, 68, 0
2, 249408, Note_on_c, 0, 64, 96
2, 249510, Note_on_c, 0, 74, 0
2, 249599, Note_on_c, 0, 64, 0
2, 249599, Note_on_c, 0, 52, 0
2, 249600, Note_on_c, 0, 69, 96
2, 249600, Note_on_c, 0, 73, 96
2, 249600, Note_on_c, 0, 54, 96
2, 249790, Note_on_c, 0, 69, 0
2, 249792, Note_on_c, 0, 57, 96
2, 249980, Note_on_c, 0, 54, 0
2, 249983, Note_on_c, 0, 57, 0
2, 249984, Note_on_c, 0, 66, 96
2, 249984, Note_on_c, 0, 59, 96
2, 249984, Note_on_c, 0, 50, 96
2, 250079, Note_on_c, 0, 59, 0
2, 250080, Note_on_c, 0, 57, 96
2, 250175, Note_on_c, 0, 57, 0
2, 250176, Note_on_c, 0, 56, 96
2, 250271, Note_on_c, 0, 56, 0
2, 250272, Note_on_c, 0, 57, 96
2, 250367, Note_on_c, 0, 57, 0
2, 250367, Note_on_c, 0, 73, 0
2, 250367, Note_on_c, 0, 66, 0
2, 250368, Note_on_c, 0, 71, 96
2, 250368, Note_on_c, 0, 62, 96
2, 250559, Note_on_c, 0, 71, 0
2, 250560, Note_on_c, 0, 69, 96
2, 250655, Note_on_c, 0, 69, 0
2, 250656, Note_on_c, 0, 68, 96
2, 250751, Note_on_c, 0, 68, 0
2, 250751, Note_on_c, 0, 62, 0
2, 250752, Note_on_c, 0, 69, 96
2, 250752, Note_on_c, 0, 61, 96
2, 250943, Note_on_c, 0, 69, 0
2, 250944, Note_on_c, 0, 71, 96
2, 251134, Note_on_c, 0, 50, 0
2, 251135, Note_on_c, 0, 71, 0
2, 251135, Note_on_c, 0, 61, 0
2, 251136, Note_on_c, 0, 68, 96
2, 251136, Note_on_c, 0, 59, 96
2, 251136, Note_on_c, 0, 50, 96
2, 251327, Note_on_c, 0, 68, 0
2, 251328, Note_on_c, 0, 64, 96
2, 251423, Note_on_c, 0, 64, 0
2, 251424, Note_on_c, 0, 68, 96
2, 251519, Note_on_c, 0, 68, 0
2, 251519, Note_on_c, 0, 50, 0
2, 251519, Note_on_c, 0, 59, 0
2, 251520, Note_on_c, 0, 69, 96
2, 251520, Note_on_c, 0, 57, 96
2, 251520, Note_on_c, 0, 49, 96
2, 251711, Note_on_c, 0, 69, 0
2, 251712, Note_on_c, 0, 64, 96
2, 251807, Note_on_c, 0, 64, 0
2, 251808, Note_on_c, 0, 69, 96
2, 251903, Note_on_c, 0, 69, 0
2, 251903, Note_on_c, 0, 49, 0
2, 251903, Note_on_c, 0, 57, 0
2, 251904, Note_on_c, 0, 71, 96
2, 251904, Note_on_c, 0, 56, 96
2, 251904, Note_on_c, 0, 47, 96
2, 252095, Note_on_c, 0, 71, 0
2, 252096, Note_on_c, 0, 64, 96
2, 252191, Note_on_c, 0, 64, 0
2, 252192, Note_on_c, 0, 71, 96
2, 252287, Note_on_c, 0, 71, 0
2, 252287, Note_on_c, 0, 47, 0
2, 252287, Note_on_c, 0, 56, 0
2, 252288, Note_on_c, 0, 73, 96
2, 252288, Note_on_c, 0, 57, 96
2, 252288, Note_on_c, 0, 45, 96
2, 252480, Note_on_c, 0, 64, 96
2, 252568, Note_on_c, 0, 73, 0
2, 252575, Note_on_c, 0, 64, 0
2, 252576, Note_on_c, 0, 73, 96
2, 252671, Note_on_c, 0, 73, 0
2, 252671, Note_on_c, 0, 45, 0
2, 252672, Note_on_c, 0, 73, 96
2, 252672, Note_on_c, 0, 59, 96
2, 252863, Note_on_c, 0, 73, 0
2, 252864, Note_on_c, 0, 74, 96
2, 253055, Note_on_c, 0, 57, 0
2, 253056, Note_on_c, 0, 56, 96
2, 253214, Note_on_c, 0, 74, 0
2, 253248, Note_on_c, 0, 73, 96
2, 253343, Note_on_c, 0, 73, 0
2, 253344, Note_on_c, 0, 71, 96
2, 253439, Note_on_c, 0, 71, 0
2, 253439, Note_on_c, 0, 56, 0
2, 253439, Note_on_c, 0, 59, 0
2, 253440, Note_on_c, 0, 73, 96
2, 253440, Note_on_c, 0, 55, 96
2, 253440, Note_on_c, 0, 57, 96
2, 253631, Note_on_c, 0, 73, 0
2, 253632, Note_on_c, 0, 69, 96
2, 253727, Note_on_c, 0, 69, 0
2, 253728, Note_on_c, 0, 73, 96
2, 253823, Note_on_c, 0, 73, 0
2, 253823, Note_on_c, 0, 57, 0
2, 253823, Note_on_c, 0, 55, 0
2, 253824, Note_on_c, 0, 74, 96
2, 253824, Note_on_c, 0, 59, 96
2, 253824, Note_on_c, 0, 54, 96
2, 254015, Note_on_c, 0, 74, 0
2, 254016, Note_on_c, 0, 69, 96
2, 254111, Note_on_c, 0, 69, 0
2, 254112, Note_on_c, 0, 74, 96
2, 254207, Note_on_c, 0, 74, 0
2, 254207, Note_on_c, 0, 54, 0
2, 254207, Note_on_c, 0, 59, 0
2, 254208, Note_on_c, 0, 76, 96
2, 254208, Note_on_c, 0, 61, 96
2, 254208, Note_on_c, 0, 52, 96
2, 254399, Note_on_c, 0, 76, 0
2, 254400, Note_on_c, 0, 69, 96
2, 254495, Note_on_c, 0, 69, 0
2, 254496, Note_on_c, 0, 76, 96
2, 254591, Note_on_c, 0, 76, 0
2, 254591, Note_on_c, 0, 52, 0
2, 254591, Note_on_c, 0, 61, 0
2, 254592, Note_on_c, 0, 78, 96
2, 254592, Note_on_c, 0, 62, 96
2, 254592, Note_on_c, 0, 50, 96
2, 254784, Note_on_c, 0, 69, 96
2, 254872, Note_on_c, 0, 78, 0
2, 254879, Note_on_c, 0, 69, 0
2, 254880, Note_on_c, 0, 78, 96
2, 254975, Note_on_c, 0, 78, 0
2, 254975, Note_on_c, 0, 50, 0
2, 254976, Note_on_c, 0, 78, 96
2, 254976, Note_on_c, 0, 64, 96
2, 255167, Note_on_c, 0, 78, 0
2, 255168, Note_on_c, 0, 79, 96
2, 255359, Note_on_c, 0, 62, 0
2, 255360, Note_on_c, 0, 61, 96
2, 255518, Note_on_c, 0, 79, 0
2, 255552, Note_on_c, 0, 78, 96
2, 255647, Note_on_c, 0, 78, 0
2, 255648, Note_on_c, 0, 76, 96
2, 255743, Note_on_c, 0, 76, 0
2, 255743, Note_on_c, 0, 61, 0
2, 255743, Note_on_c, 0, 64, 0
2, 255744, Note_on_c, 0, 78, 96
2, 255744, Note_on_c, 0, 62, 96
2, 255935, Note_on_c, 0, 78, 0
2, 255936, Note_on_c, 0, 74, 96
2, 256031, Note_on_c, 0, 74, 0
2, 256032, Note_on_c, 0, 78, 96
2, 256127, Note_on_c, 0, 78, 0
2, 256128, Note_on_c, 0, 80, 96
2, 256128, Note_on_c, 0, 59, 96
2, 256319, Note_on_c, 0, 80, 0
2, 256320, Note_on_c, 0, 74, 96
2, 256415, Note_on_c, 0, 74, 0
2, 256416, Note_on_c, 0, 80, 96
2, 256511, Note_on_c, 0, 80, 0
2, 256511, Note_on_c, 0, 59, 0
2, 256512, Note_on_c, 0, 81, 96
2, 256512, Note_on_c, 0, 57, 96
2, 256703, Note_on_c, 0, 81, 0
2, 256704, Note_on_c, 0, 74, 96
2, 256799, Note_on_c, 0, 74, 0
2, 256800, Note_on_c, 0, 81, 96
2, 256895, Note_on_c, 0, 81, 0
2, 256895, Note_on_c, 0, 57, 0
2, 256896, Note_on_c, 0, 81, 96
2, 256896, Note_on_c, 0, 56, 96
2, 257076, Note_on_c, 0, 81, 0
2, 257088, Note_on_c, 0, 83, 96
2, 257274, Note_on_c, 0, 62, 0
2, 257279, Note_on_c, 0, 56, 0
2, 257280, Note_on_c, 0, 57, 96
2, 257280, Note_on_c, 0, 61, 96
2, 257374, Note_on_c, 0, 83, 0
2, 257376, Note_on_c, 0, 81, 96
2, 257471, Note_on_c, 0, 81, 0
2, 257472, Note_on_c, 0, 80, 96
2, 257567, Note_on_c, 0, 80, 0
2, 257568, Note_on_c, 0, 78, 96
2, 257663, Note_on_c, 0, 78, 0
2, 257663, Note_on_c, 0, 57, 0
2, 257664, Note_on_c, 0, 76, 96
2, 257664, Note_on_c, 0, 56, 96
2, 257834, Note_on_c, 0, 76, 0
2, 257856, Note_on_c, 0, 81, 96
2, 258047, Note_on_c, 0, 56, 0
2, 258048, Note_on_c, 0, 54, 96
2, 258143, Note_on_c, 0, 81, 0
2, 258144, Note_on_c, 0, 80, 96
2, 258239, Note_on_c, 0, 80, 0
2, 258240, Note_on_c, 0, 78, 96
2, 258335, Note_on_c, 0, 78, 0
2, 258336, Note_on_c, 0, 76, 96
2, 258430, Note_on_c, 0, 61, 0
2, 258431, Note_on_c, 0, 76, 0
2, 258431, Note_on_c, 0, 54, 0
2, 258432, Note_on_c, 0, 74, 96
2, 258432, Note_on_c, 0, 59, 96
2, 258432, Note_on_c, 0, 56, 96
2, 258602, Note_on_c, 0, 74, 0
2, 258624, Note_on_c, 0, 78, 96
2, 258815, Note_on_c, 0, 56, 0
2, 258816, Note_on_c, 0, 57, 96
2, 258911, Note_on_c, 0, 78, 0
2, 258912, Note_on_c, 0, 76, 96
2, 259007, Note_on_c, 0, 76, 0
2, 259008, Note_on_c, 0, 74, 96
2, 259103, Note_on_c, 0, 74, 0
2, 259104, Note_on_c, 0, 73, 96
2, 259199, Note_on_c, 0, 73, 0
2, 259199, Note_on_c, 0, 57, 0
2, 259200, Note_on_c, 0, 71, 96
2, 259200, Note_on_c, 0, 56, 96
2, 259370, Note_on_c, 0, 71, 0
2, 259392, Note_on_c, 0, 74, 96
2, 259582, Note_on_c, 0, 59, 0
2, 259583, Note_on_c, 0, 56, 0
2, 259584, Note_on_c, 0, 52, 96
2, 259584, Note_on_c, 0, 56, 96
2, 259679, Note_on_c, 0, 74, 0
2, 259680, Note_on_c, 0, 73, 96
2, 259775, Note_on_c, 0, 73, 0
2, 259776, Note_on_c, 0, 71, 96
2, 259871, Note_on_c, 0, 71, 0
2, 259872, Note_on_c, 0, 69, 96
2, 259967, Note_on_c, 0, 69, 0
2, 259967, Note_on_c, 0, 56, 0
2, 259967, Note_on_c, 0, 52, 0
2, 259968, Note_on_c, 0, 68, 96
2, 259968, Note_on_c, 0, 59, 96
2, 259968, Note_on_c, 0, 50, 96
2, 260138, Note_on_c, 0, 68, 0
2, 260160, Note_on_c, 0, 76, 96
2, 260351, Note_on_c, 0, 50, 0
2, 260351, Note_on_c, 0, 59, 0
2, 260352, Note_on_c, 0, 49, 96
2, 260352, Note_on_c, 0, 57, 96
2, 260543, Note_on_c, 0, 76, 0
2, 260544, Note_on_c, 0, 69, 96
2, 260727, Note_on_c, 0, 69, 0
2, 260735, Note_on_c, 0, 49, 0
2, 260736, Note_on_c, 0, 73, 96
2, 260736, Note_on_c, 0, 50, 96
2, 261119, Note_on_c, 0, 50, 0
2, 261119, Note_on_c, 0, 73, 0
2, 261119, Note_on_c, 0, 57, 0
2, 261120, Note_on_c, 0, 56, 96
2, 261120, Note_on_c, 0, 52, 96
2, 261121, Note_on_c, 0, 73, 96
2, 261216, Note_on_c, 0, 73, 0
2, 261216, Note_on_c, 0, 71, 96
2, 261311, Note_on_c, 0, 71, 0
2, 261312, Note_on_c, 0, 69, 96
2, 261407, Note_on_c, 0, 69, 0
2, 261408, Note_on_c, 0, 71, 96
2, 261503, Note_on_c, 0, 71, 0
2, 261503, Note_on_c, 0, 52, 0
2, 261503, Note_on_c, 0, 56, 0
2, 261504, Note_on_c, 0, 69, 96
2, 261504, Note_on_c, 0, 45, 96
2, 261888, Note_on_c, 0, 49, 96
2, 262272, Note_on_c, 0, 52, 96
2, 262652, Note_on_c, 0, 52, 0
2, 262655, Note_on_c, 0, 49, 0
2, 262655, Note_on_c, 0, 69, 0
2, 262656, Note_on_c, 0, 64, 96
2, 262656, Note_on_c, 0, 69, 96
2, 262656, Note_on_c, 0, 61, 96
2, 262656, Note_on_c, 0, 57, 96
2, 263615, Note_on_c, 0, 57, 0
2, 263615, Note_on_c, 0, 69, 0
2, 263615, Note_on_c, 0, 61, 0
2, 263615, Note_on_c, 0, 64, 0
2, 263616, Note_on_c, 0, 76, 96
2, 263804, Note_on_c, 0, 45, 0
2, 263807, Note_on_c, 0, 76, 0
2, 263808, Note_on_c, 0, 73, 96
2, 263808, Note_on_c, 0, 76, 96
2, 263808, Note_on_c, 0, 45, 96
2, 264192, Note_on_c, 0, 49, 96
2, 264383, Note_on_c, 0, 76, 0
2, 264383, Note_on_c, 0, 73, 0
2, 264384, Note_on_c, 0, 81, 96
2, 264479, Note_on_c, 0, 81, 0
2, 264480, Note_on_c, 0, 76, 96
2, 264575, Note_on_c, 0, 76, 0
2, 264575, Note_on_c, 0, 49, 0
2, 264576, Note_on_c, 0, 73, 96
2, 264576, Note_on_c, 0, 52, 96
2, 264767, Note_on_c, 0, 73, 0
2, 264768, Note_on_c, 0, 76, 96
2, 264863, Note_on_c, 0, 76, 0
2, 264864, Note_on_c, 0, 73, 96
2, 264958, Note_on_c, 0, 45, 0
2, 264959, Note_on_c, 0, 73, 0
2, 264959, Note_on_c, 0, 52, 0
2, 264960, Note_on_c, 0, 69, 96
2, 264960, Note_on_c, 0, 55, 96
2, 265151, Note_on_c, 0, 55, 0
2, 265152, Note_on_c, 0, 54, 96
2, 265343, Note_on_c, 0, 54, 0
2, 265343, Note_on_c, 0, 69, 0
2, 265344, Note_on_c, 0, 69, 96
2, 265344, Note_on_c, 0, 57, 96
2, 265535, Note_on_c, 0, 57, 0
2, 265535, Note_on_c, 0, 69, 0
2, 265536, Note_on_c, 0, 71, 96
2, 265536, Note_on_c, 0, 55, 96
2, 265727, Note_on_c, 0, 55, 0
2, 265728, Note_on_c, 0, 54, 96
2, 265919, Note_on_c, 0, 54, 0
2, 265919, Note_on_c, 0, 71, 0
2, 265920, Note_on_c, 0, 73, 96
2, 265920, Note_on_c, 0, 52, 96
2, 266111, Note_on_c, 0, 52, 0
2, 266111, Note_on_c, 0, 73, 0
2, 266112, Note_on_c, 0, 74, 96
2, 266112, Note_on_c, 0, 54, 96
2, 266304, Note_on_c, 0, 69, 96
2, 266400, Note_on_c, 0, 66, 96
2, 266496, Note_on_c, 0, 62, 96
2, 266687, Note_on_c, 0, 54, 0
2, 266688, Note_on_c, 0, 57, 96
2, 266783, Note_on_c, 0, 57, 0
2, 266784, Note_on_c, 0, 54, 96
2, 266879, Note_on_c, 0, 54, 0
2, 266880, Note_on_c, 0, 50, 96
2, 267071, Note_on_c, 0, 50, 0
2, 267072, Note_on_c, 0, 54, 96
2, 267167, Note_on_c, 0, 54, 0
2, 267168, Note_on_c, 0, 50, 96
2, 267263, Note_on_c, 0, 50, 0
2, 267264, Note_on_c, 0, 47, 96
2, 267304, Note_on_c, 0, 66, 0
2, 267304, Note_on_c, 0, 69, 0
2, 267362, Note_on_c, 0, 74, 0
2, 267455, Note_on_c, 0, 62, 0
2, 267456, Note_on_c, 0, 78, 96
2, 267647, Note_on_c, 0, 78, 0
2, 267647, Note_on_c, 0, 47, 0
2, 267648, Note_on_c, 0, 76, 96
2, 267648, Note_on_c, 0, 47, 96
2, 267839, Note_on_c, 0, 47, 0
2, 267839, Note_on_c, 0, 76, 0
2, 267840, Note_on_c, 0, 74, 96
2, 267840, Note_on_c, 0, 48, 96
2, 268031, Note_on_c, 0, 74, 0
2, 268032, Note_on_c, 0, 76, 96
2, 268223, Note_on_c, 0, 76, 0
2, 268223, Note_on_c, 0, 48, 0
2, 268224, Note_on_c, 0, 78, 96
2, 268224, Note_on_c, 0, 45, 96
2, 268415, Note_on_c, 0, 45, 0
2, 268415, Note_on_c, 0, 78, 0
2, 268416, Note_on_c, 0, 79, 96
2, 268416, Note_on_c, 0, 47, 96
2, 268607, Note_on_c, 0, 47, 0
2, 268607, Note_on_c, 0, 79, 0
2, 268608, Note_on_c, 0, 74, 96
2, 268608, Note_on_c, 0, 50, 96
2, 268703, Note_on_c, 0, 74, 0
2, 268704, Note_on_c, 0, 79, 96
2, 268799, Note_on_c, 0, 79, 0
2, 268799, Note_on_c, 0, 50, 0
2, 268800, Note_on_c, 0, 81, 96
2, 268800, Note_on_c, 0, 55, 96
2, 268991, Note_on_c, 0, 55, 0
2, 268991, Note_on_c, 0, 81, 0
2, 268992, Note_on_c, 0, 74, 96
2, 268992, Note_on_c, 0, 54, 96
2, 269087, Note_on_c, 0, 74, 0
2, 269088, Note_on_c, 0, 81, 96
2, 269183, Note_on_c, 0, 81, 0
2, 269183, Note_on_c, 0, 54, 0
2, 269184, Note_on_c, 0, 83, 96
2, 269184, Note_on_c, 0, 55, 96
2, 269375, Note_on_c, 0, 55, 0
2, 269376, Note_on_c, 0, 59, 96
2, 269471, Note_on_c, 0, 59, 0
2, 269472, Note_on_c, 0, 55, 96
2, 269567, Note_on_c, 0, 55, 0
2, 269568, Note_on_c, 0, 52, 96
2, 269759, Note_on_c, 0, 52, 0
2, 269760, Note_on_c, 0, 55, 96
2, 269855, Note_on_c, 0, 55, 0
2, 269856, Note_on_c, 0, 52, 96
2, 269951, Note_on_c, 0, 52, 0
2, 269951, Note_on_c, 0, 83, 0
2, 269952, Note_on_c, 0, 81, 96
2, 269952, Note_on_c, 0, 60, 96
2, 270143, Note_on_c, 0, 81, 0
2, 270144, Note_on_c, 0, 79, 96
2, 270335, Note_on_c, 0, 79, 0
2, 270335, Note_on_c, 0, 60, 0
2, 270336, Note_on_c, 0, 78, 96
2, 270336, Note_on_c, 0, 57, 96
2, 270527, Note_on_c, 0, 78, 0
2, 270528, Note_on_c, 0, 76, 96
2, 270719, Note_on_c, 0, 76, 0
2, 270719, Note_on_c, 0, 57, 0
2, 270720, Note_on_c, 0, 75, 96
2, 270720, Note_on_c, 0, 59, 96
2, 270912, Note_on_c, 0, 71, 96
2, 271104, Note_on_c, 0, 66, 96
2, 271295, Note_on_c, 0, 59, 0
2, 271296, Note_on_c, 0, 57, 96
2, 271391, Note_on_c, 0, 57, 0
2, 271392, Note_on_c, 0, 55, 96
2, 271487, Note_on_c, 0, 55, 0
2, 271488, Note_on_c, 0, 57, 96
2, 271679, Note_on_c, 0, 57, 0
2, 271680, Note_on_c, 0, 55, 96
2, 271775, Note_on_c, 0, 55, 0
2, 271776, Note_on_c, 0, 54, 96
2, 271806, Note_on_c, 0, 75, 0
2, 271809, Note_on_c, 0, 66, 0
2, 271812, Note_on_c, 0, 71, 0
2, 271871, Note_on_c, 0, 54, 0
2, 271872, Note_on_c, 0, 78, 96
2, 271872, Note_on_c, 0, 55, 96
2, 271919, Note_on_c, 0, 78, 0
2, 271920, Note_on_c, 0, 76, 96
2, 271967, Note_on_c, 0, 76, 0
2, 271968, Note_on_c, 0, 78, 96
2, 272015, Note_on_c, 0, 78, 0
2, 272016, Note_on_c, 0, 76, 96
2, 272255, Note_on_c, 0, 76, 0
2, 272256, Note_on_c, 0, 76, 96
2, 272256, Note_on_c, 0, 59, 96
2, 272447, Note_on_c, 0, 76, 0
2, 272448, Note_on_c, 0, 74, 96
2, 272639, Note_on_c, 0, 74, 0
2, 272639, Note_on_c, 0, 59, 0
2, 272639, Note_on_c, 0, 55, 0
2, 272640, Note_on_c, 0, 72, 96
2, 272640, Note_on_c, 0, 64, 96
2, 272640, Note_on_c, 0, 56, 96
2, 272831, Note_on_c, 0, 72, 0
2, 272832, Note_on_c, 0, 71, 96
2, 273023, Note_on_c, 0, 71, 0
2, 273023, Note_on_c, 0, 56, 0
2, 273024, Note_on_c, 0, 72, 96
2, 273024, Note_on_c, 0, 57, 96
2, 273071, Note_on_c, 0, 72, 0
2, 273072, Note_on_c, 0, 71, 96
2, 273119, Note_on_c, 0, 71, 0
2, 273120, Note_on_c, 0, 72, 96
2, 273215, Note_on_c, 0, 64, 0
2, 273216, Note_on_c, 0, 60, 96
2, 273407, Note_on_c, 0, 60, 0
2, 273408, Note_on_c, 0, 64, 96
2, 273599, Note_on_c, 0, 72, 0
2, 273599, Note_on_c, 0, 57, 0
2, 273600, Note_on_c, 0, 69, 96
2, 273600, Note_on_c, 0, 54, 96
2, 273695, Note_on_c, 0, 69, 0
2, 273696, Note_on_c, 0, 72, 96
2, 273791, Note_on_c, 0, 72, 0
2, 273791, Note_on_c, 0, 54, 0
2, 273792, Note_on_c, 0, 76, 96
2, 273792, Note_on_c, 0, 55, 96
2, 273983, Note_on_c, 0, 55, 0
2, 273983, Note_on_c, 0, 76, 0
2, 273984, Note_on_c, 0, 72, 96
2, 273984, Note_on_c, 0, 52, 96
2, 274079, Note_on_c, 0, 72, 0
2, 274080, Note_on_c, 0, 76, 96
2, 274175, Note_on_c, 0, 76, 0
2, 274175, Note_on_c, 0, 52, 0
2, 274176, Note_on_c, 0, 81, 96
2, 274176, Note_on_c, 0, 54, 96
2, 274336, Note_on_c, 0, 81, 0
2, 274368, Note_on_c, 0, 72, 96
2, 274558, Note_on_c, 0, 64, 0
2, 274560, Note_on_c, 0, 57, 96
2, 274688, Note_on_c, 0, 72, 0
2, 274752, Note_on_c, 0, 71, 96
2, 274943, Note_on_c, 0, 57, 0
2, 274944, Note_on_c, 0, 62, 96
2, 275130, Note_on_c, 0, 71, 0
2, 275136, Note_on_c, 0, 69, 96
2, 275306, Note_on_c, 0, 69, 0
2, 275326, Note_on_c, 0, 54, 0
2, 275328, Note_on_c, 0, 71, 96
2, 275328, Note_on_c, 0, 55, 96
2, 275375, Note_on_c, 0, 71, 0
2, 275376, Note_on_c, 0, 69, 96
2, 275423, Note_on_c, 0, 69, 0
2, 275424, Note_on_c, 0, 71, 96
2, 275519, Note_on_c, 0, 62, 0
2, 275520, Note_on_c, 0, 59, 96
2, 275711, Note_on_c, 0, 59, 0
2, 275712, Note_on_c, 0, 62, 96
2, 275903, Note_on_c, 0, 71, 0
2, 275903, Note_on_c, 0, 55, 0
2, 275904, Note_on_c, 0, 67, 96
2, 275904, Note_on_c, 0, 52, 96
2, 275999, Note_on_c, 0, 67, 0
2, 276000, Note_on_c, 0, 71, 96
2, 276095, Note_on_c, 0, 71, 0
2, 276095, Note_on_c, 0, 52, 0
2, 276096, Note_on_c, 0, 74, 96
2, 276096, Note_on_c, 0, 54, 96
2, 276287, Note_on_c, 0, 54, 0
2, 276287, Note_on_c, 0, 74, 0
2, 276288, Note_on_c, 0, 71, 96
2, 276288, Note_on_c, 0, 50, 96
2, 276383, Note_on_c, 0, 71, 0
2, 276384, Note_on_c, 0, 74, 96
2, 276479, Note_on_c, 0, 74, 0
2, 276479, Note_on_c, 0, 50, 0
2, 276480, Note_on_c, 0, 79, 96
2, 276480, Note_on_c, 0, 52, 96
2, 276640, Note_on_c, 0, 79, 0
2, 276672, Note_on_c, 0, 71, 96
2, 276862, Note_on_c, 0, 62, 0
2, 276864, Note_on_c, 0, 55, 96
2, 276992, Note_on_c, 0, 71, 0
2, 277056, Note_on_c, 0, 69, 96
2, 277247, Note_on_c, 0, 55, 0
2, 277248, Note_on_c, 0, 60, 96
2, 277435, Note_on_c, 0, 69, 0
2, 277440, Note_on_c, 0, 67, 96
2, 277615, Note_on_c, 0, 67, 0
2, 277630, Note_on_c, 0, 52, 0
2, 277632, Note_on_c, 0, 71, 96
2, 277632, Note_on_c, 0, 54, 96
2, 277695, Note_on_c, 0, 71, 0
2, 277696, Note_on_c, 0, 69, 96
2, 277759, Note_on_c, 0, 69, 0
2, 277760, Note_on_c, 0, 67, 96
2, 277823, Note_on_c, 0, 67, 0
2, 277823, Note_on_c, 0, 60, 0
2, 277824, Note_on_c, 0, 69, 96
2, 277824, Note_on_c, 0, 57, 96
2, 277872, Note_on_c, 0, 71, 96
2, 277881, Note_on_c, 0, 69, 0
2, 277920, Note_on_c, 0, 69, 96
2, 277929, Note_on_c, 0, 71, 0
2, 277968, Note_on_c, 0, 71, 96
2, 277977, Note_on_c, 0, 69, 0
2, 278015, Note_on_c, 0, 57, 0
2, 278016, Note_on_c, 0, 69, 96
2, 278016, Note_on_c, 0, 60, 96
2, 278025, Note_on_c, 0, 71, 0
2, 278207, Note_on_c, 0, 54, 0
2, 278207, Note_on_c, 0, 69, 0
2, 278208, Note_on_c, 0, 66, 96
2, 278208, Note_on_c, 0, 57, 96
2, 278303, Note_on_c, 0, 66, 0
2, 278304, Note_on_c, 0, 69, 96
2, 278399, Note_on_c, 0, 69, 0
2, 278399, Note_on_c, 0, 57, 0
2, 278400, Note_on_c, 0, 72, 96
2, 278400, Note_on_c, 0, 54, 96
2, 278591, Note_on_c, 0, 54, 0
2, 278591, Note_on_c, 0, 72, 0
2, 278592, Note_on_c, 0, 69, 96
2, 278592, Note_on_c, 0, 52, 96
2, 278687, Note_on_c, 0, 69, 0
2, 278688, Note_on_c, 0, 72, 96
2, 278783, Note_on_c, 0, 72, 0
2, 278783, Note_on_c, 0, 52, 0
2, 278784, Note_on_c, 0, 78, 96
2, 278784, Note_on_c, 0, 51, 96
2, 278944, Note_on_c, 0, 78, 0
2, 278976, Note_on_c, 0, 69, 96
2, 279166, Note_on_c, 0, 60, 0
2, 279168, Note_on_c, 0, 54, 96
2, 279316, Note_on_c, 0, 69, 0
2, 279360, Note_on_c, 0, 67, 96
2, 279551, Note_on_c, 0, 54, 0
2, 279552, Note_on_c, 0, 59, 96
2, 279743, Note_on_c, 0, 67, 0
2, 279744, Note_on_c, 0, 66, 96
2, 279924, Note_on_c, 0, 66, 0
2, 279934, Note_on_c, 0, 51, 0
2, 279936, Note_on_c, 0, 67, 96
2, 279936, Note_on_c, 0, 52, 96
2, 280116, Note_on_c, 0, 67, 0
2, 280128, Note_on_c, 0, 72, 96
2, 280319, Note_on_c, 0, 52, 0
2, 280319, Note_on_c, 0, 59, 0
2, 280320, Note_on_c, 0, 57, 96
2, 280320, Note_on_c, 0, 54, 96
2, 280511, Note_on_c, 0, 72, 0
2, 280512, Note_on_c, 0, 71, 96
2, 280703, Note_on_c, 0, 71, 0
2, 280703, Note_on_c, 0, 54, 0
2, 280703, Note_on_c, 0, 57, 0
2, 280704, Note_on_c, 0, 75, 96
2, 280704, Note_on_c, 0, 59, 96
2, 280704, Note_on_c, 0, 55, 96
2, 280895, Note_on_c, 0, 75, 0
2, 280896, Note_on_c, 0, 76, 96
2, 281087, Note_on_c, 0, 76, 0
2, 281087, Note_on_c, 0, 55, 0
2, 281087, Note_on_c, 0, 59, 0
2, 281088, Note_on_c, 0, 69, 96
2, 281088, Note_on_c, 0, 52, 96
2, 281088, Note_on_c, 0, 48, 96
2, 281279, Note_on_c, 0, 69, 0
2, 281280, Note_on_c, 0, 79, 96
2, 281471, Note_on_c, 0, 48, 0
2, 281471, Note_on_c, 0, 52, 0
2, 281472, Note_on_c, 0, 57, 96
2, 281472, Note_on_c, 0, 45, 96
2, 281663, Note_on_c, 0, 79, 0
2, 281664, Note_on_c, 0, 78, 96
2, 281855, Note_on_c, 0, 78, 0
2, 281855, Note_on_c, 0, 45, 0
2, 281855, Note_on_c, 0, 57, 0
2, 281856, Note_on_c, 0, 76, 96
2, 281856, Note_on_c, 0, 47, 96
2, 281856, Note_on_c, 0, 54, 96
2, 282047, Note_on_c, 0, 76, 0
2, 282048, Note_on_c, 0, 75, 96
2, 282239, Note_on_c, 0, 75, 0
2, 282239, Note_on_c, 0, 54, 0
2, 282239, Note_on_c, 0, 47, 0
2, 282240, Note_on_c, 0, 76, 96
2, 282240, Note_on_c, 0, 52, 96
2, 282240, Note_on_c, 0, 40, 96
2, 282432, Note_on_c, 0, 71, 96
2, 282624, Note_on_c, 0, 67, 96
2, 282815, Note_on_c, 0, 40, 0
2, 282815, Note_on_c, 0, 52, 0
2, 282816, Note_on_c, 0, 52, 96
2, 282911, Note_on_c, 0, 52, 0
2, 282912, Note_on_c, 0, 55, 96
2, 283007, Note_on_c, 0, 55, 0
2, 283008, Note_on_c, 0, 59, 96
2, 283199, Note_on_c, 0, 59, 0
2, 283200, Note_on_c, 0, 55, 96
2, 283295, Note_on_c, 0, 55, 0
2, 283296, Note_on_c, 0, 59, 96
2, 283324, Note_on_c, 0, 67, 0
2, 283332, Note_on_c, 0, 71, 0
2, 283390, Note_on_c, 0, 76, 0
2, 283391, Note_on_c, 0, 59, 0
2, 283392, Note_on_c, 0, 79, 96
2, 283392, Note_on_c, 0, 64, 96
2, 283584, Note_on_c, 0, 76, 96
2, 283679, Note_on_c, 0, 76, 0
2, 283680, Note_on_c, 0, 71, 96
2, 283775, Note_on_c, 0, 71, 0
2, 283776, Note_on_c, 0, 67, 96
2, 283967, Note_on_c, 0, 67, 0
2, 283968, Note_on_c, 0, 71, 96
2, 284063, Note_on_c, 0, 71, 0
2, 284064, Note_on_c, 0, 67, 96
2, 284159, Note_on_c, 0, 67, 0
2, 284159, Note_on_c, 0, 64, 0
2, 284160, Note_on_c, 0, 64, 96
2, 284352, Note_on_c, 0, 67, 96
2, 284430, Note_on_c, 0, 64, 0
2, 284447, Note_on_c, 0, 67, 0
2, 284448, Note_on_c, 0, 64, 96
2, 284543, Note_on_c, 0, 64, 0
2, 284544, Note_on_c, 0, 69, 96
2, 284736, Note_on_c, 0, 49, 96
2, 284831, Note_on_c, 0, 49, 0
2, 284832, Note_on_c, 0, 52, 96
2, 284924, Note_on_c, 0, 79, 0
2, 284927, Note_on_c, 0, 52, 0
2, 284928, Note_on_c, 0, 78, 96
2, 284928, Note_on_c, 0, 57, 96
2, 285119, Note_on_c, 0, 57, 0
2, 285119, Note_on_c, 0, 78, 0
2, 285120, Note_on_c, 0, 79, 96
2, 285120, Note_on_c, 0, 52, 96
2, 285215, Note_on_c, 0, 52, 0
2, 285216, Note_on_c, 0, 57, 96
2, 285311, Note_on_c, 0, 57, 0
2, 285311, Note_on_c, 0, 79, 0
2, 285312, Note_on_c, 0, 76, 96
2, 285312, Note_on_c, 0, 61, 96
2, 285503, Note_on_c, 0, 61, 0
2, 285503, Note_on_c, 0, 76, 0
2, 285504, Note_on_c, 0, 79, 96
2, 285504, Note_on_c, 0, 57, 96
2, 285599, Note_on_c, 0, 57, 0
2, 285600, Note_on_c, 0, 61, 96
2, 285695, Note_on_c, 0, 61, 0
2, 285695, Note_on_c, 0, 79, 0
2, 285696, Note_on_c, 0, 78, 96
2, 285696, Note_on_c, 0, 62, 96
2, 285884, Note_on_c, 0, 69, 0
2, 285888, Note_on_c, 0, 74, 96
2, 285983, Note_on_c, 0, 74, 0
2, 285984, Note_on_c, 0, 69, 96
2, 286079, Note_on_c, 0, 69, 0
2, 286080, Note_on_c, 0, 66, 96
2, 286271, Note_on_c, 0, 66, 0
2, 286272, Note_on_c, 0, 69, 96
2, 286367, Note_on_c, 0, 69, 0
2, 286368, Note_on_c, 0, 66, 96
2, 286463, Note_on_c, 0, 66, 0
2, 286463, Note_on_c, 0, 62, 0
2, 286464, Note_on_c, 0, 62, 96
2, 286656, Note_on_c, 0, 66, 96
2, 286734, Note_on_c, 0, 62, 0
2, 286751, Note_on_c, 0, 66, 0
2, 286752, Note_on_c, 0, 62, 96
2, 286847, Note_on_c, 0, 62, 0
2, 286848, Note_on_c, 0, 67, 96
2, 287040, Note_on_c, 0, 47, 96
2, 287135, Note_on_c, 0, 47, 0
2, 287136, Note_on_c, 0, 50, 96
2, 287228, Note_on_c, 0, 78, 0
2, 287231, Note_on_c, 0, 50, 0
2, 287232, Note_on_c, 0, 76, 96
2, 287232, Note_on_c, 0, 55, 96
2, 287423, Note_on_c, 0, 55, 0
2, 287423, Note_on_c, 0, 76, 0
2, 287424, Note_on_c, 0, 78, 96
2, 287424, Note_on_c, 0, 50, 96
2, 287519, Note_on_c, 0, 50, 0
2, 287520, Note_on_c, 0, 55, 96
2, 287615, Note_on_c, 0, 55, 0
2, 287615, Note_on_c, 0, 78, 0
2, 287616, Note_on_c, 0, 74, 96
2, 287616, Note_on_c, 0, 59, 96
2, 287807, Note_on_c, 0, 59, 0
2, 287807, Note_on_c, 0, 74, 0
2, 287808, Note_on_c, 0, 78, 96
2, 287808, Note_on_c, 0, 55, 96
2, 287903, Note_on_c, 0, 55, 0
2, 287904, Note_on_c, 0, 59, 96
2, 287999, Note_on_c, 0, 59, 0
2, 287999, Note_on_c, 0, 78, 0
2, 288000, Note_on_c, 0, 76, 96
2, 288000, Note_on_c, 0, 61, 96
2, 288188, Note_on_c, 0, 67, 0
2, 288191, Note_on_c, 0, 61, 0
2, 288192, Note_on_c, 0, 57, 96
2, 288287, Note_on_c, 0, 57, 0
2, 288288, Note_on_c, 0, 61, 96
2, 288383, Note_on_c, 0, 61, 0
2, 288384, Note_on_c, 0, 64, 96
2, 288575, Note_on_c, 0, 64, 0
2, 288576, Note_on_c, 0, 61, 96
2, 288671, Note_on_c, 0, 61, 0
2, 288672, Note_on_c, 0, 64, 96
2, 288767, Note_on_c, 0, 64, 0
2, 288768, Note_on_c, 0, 69, 96
2, 288959, Note_on_c, 0, 69, 0
2, 288960, Note_on_c, 0, 64, 96
2, 288960, Note_on_c, 0, 61, 96
2, 289000, Note_on_c, 0, 76, 0
2, 289055, Note_on_c, 0, 61, 0
2, 289055, Note_on_c, 0, 64, 0
2, 289056, Note_on_c, 0, 69, 96
2, 289056, Note_on_c, 0, 57, 96
2, 289151, Note_on_c, 0, 57, 0
2, 289151, Note_on_c, 0, 69, 0
2, 289152, Note_on_c, 0, 73, 96
2, 289152, Note_on_c, 0, 54, 96
2, 289343, Note_on_c, 0, 54, 0
2, 289344, Note_on_c, 0, 69, 96
2, 289344, Note_on_c, 0, 57, 96
2, 289392, Note_on_c, 0, 73, 0
2, 289439, Note_on_c, 0, 57, 0
2, 289439, Note_on_c, 0, 69, 0
2, 289440, Note_on_c, 0, 73, 96
2, 289440, Note_on_c, 0, 54, 96
2, 289535, Note_on_c, 0, 54, 0
2, 289535, Note_on_c, 0, 73, 0
2, 289536, Note_on_c, 0, 78, 96
2, 289536, Note_on_c, 0, 50, 96
2, 289727, Note_on_c, 0, 50, 0
2, 289728, Note_on_c, 0, 74, 96
2, 289728, Note_on_c, 0, 54, 96
2, 289776, Note_on_c, 0, 78, 0
2, 289823, Note_on_c, 0, 54, 0
2, 289823, Note_on_c, 0, 74, 0
2, 289824, Note_on_c, 0, 78, 96
2, 289824, Note_on_c, 0, 50, 96
2, 289919, Note_on_c, 0, 50, 0
2, 289919, Note_on_c, 0, 78, 0
2, 289920, Note_on_c, 0, 81, 96
2, 289920, Note_on_c, 0, 47, 96
2, 290080, Note_on_c, 0, 81, 0
2, 290111, Note_on_c, 0, 47, 0
2, 290112, Note_on_c, 0, 72, 96
2, 290112, Note_on_c, 0, 50, 96
2, 290207, Note_on_c, 0, 50, 0
2, 290208, Note_on_c, 0, 47, 96
2, 290303, Note_on_c, 0, 47, 0
2, 290304, Note_on_c, 0, 43, 96
2, 290432, Note_on_c, 0, 72, 0
2, 290496, Note_on_c, 0, 71, 96
2, 290687, Note_on_c, 0, 43, 0
2, 290688, Note_on_c, 0, 55, 96
2, 290688, Note_on_c, 0, 52, 96
2, 290816, Note_on_c, 0, 71, 0
2, 290880, Note_on_c, 0, 73, 96
2, 291071, Note_on_c, 0, 52, 0
2, 291071, Note_on_c, 0, 55, 0
2, 291072, Note_on_c, 0, 50, 96
2, 291072, Note_on_c, 0, 54, 96
2, 291208, Note_on_c, 0, 73, 0
2, 291264, Note_on_c, 0, 74, 96
2, 291455, Note_on_c, 0, 54, 0
2, 291455, Note_on_c, 0, 50, 0
2, 291456, Note_on_c, 0, 45, 96
2, 291456, Note_on_c, 0, 52, 96
2, 291647, Note_on_c, 0, 45, 0
2, 291648, Note_on_c, 0, 49, 96
2, 291744, Note_on_c, 0, 74, 0
2, 291836, Note_on_c, 0, 52, 0
2, 291839, Note_on_c, 0, 49, 0
2, 291840, Note_on_c, 0, 73, 96
2, 291840, Note_on_c, 0, 52, 96
2, 291935, Note_on_c, 0, 73, 0
2, 291936, Note_on_c, 0, 71, 96
2, 292031, Note_on_c, 0, 71, 0
2, 292031, Note_on_c, 0, 52, 0
2, 292032, Note_on_c, 0, 69, 96
2, 292032, Note_on_c, 0, 55, 96
2, 292127, Note_on_c, 0, 69, 0
2, 292128, Note_on_c, 0, 71, 96
2, 292223, Note_on_c, 0, 71, 0
2, 292223, Note_on_c, 0, 55, 0
2, 292224, Note_on_c, 0, 73, 96
2, 292224, Note_on_c, 0, 54, 96
2, 292319, Note_on_c, 0, 73, 0
2, 292320, Note_on_c, 0, 71, 96
2, 292415, Note_on_c, 0, 71, 0
2, 292415, Note_on_c, 0, 54, 0
2, 292416, Note_on_c, 0, 69, 96
2, 292416, Note_on_c, 0, 52, 96
2, 292511, Note_on_c, 0, 69, 0
2, 292512, Note_on_c, 0, 71, 96
2, 292607, Note_on_c, 0, 71, 0
2, 292607, Note_on_c, 0, 52, 0
2, 292608, Note_on_c, 0, 72, 96
2, 292608, Note_on_c, 0, 50, 96
2, 292799, Note_on_c, 0, 50, 0
2, 292799, Note_on_c, 0, 72, 0
2, 292800, Note_on_c, 0, 78, 96
2, 292800, Note_on_c, 0, 57, 96
2, 292895, Note_on_c, 0, 78, 0
2, 292896, Note_on_c, 0, 79, 96
2, 292991, Note_on_c, 0, 79, 0
2, 292991, Note_on_c, 0, 57, 0
2, 292992, Note_on_c, 0, 81, 96
2, 292992, Note_on_c, 0, 50, 96
2, 293087, Note_on_c, 0, 81, 0
2, 293088, Note_on_c, 0, 79, 96
2, 293183, Note_on_c, 0, 79, 0
2, 293183, Note_on_c, 0, 50, 0
2, 293184, Note_on_c, 0, 78, 96
2, 293184, Note_on_c, 0, 48, 96
2, 293279, Note_on_c, 0, 78, 0
2, 293280, Note_on_c, 0, 76, 96
2, 293375, Note_on_c, 0, 76, 0
2, 293375, Note_on_c, 0, 48, 0
2, 293376, Note_on_c, 0, 74, 96
2, 293376, Note_on_c, 0, 47, 96
2, 293567, Note_on_c, 0, 47, 0
2, 293567, Note_on_c, 0, 74, 0
2, 293568, Note_on_c, 0, 72, 96
2, 293568, Note_on_c, 0, 45, 96
2, 293759, Note_on_c, 0, 45, 0
2, 293760, Note_on_c, 0, 43, 96
2, 293948, Note_on_c, 0, 72, 0
2, 293951, Note_on_c, 0, 43, 0
2, 293952, Note_on_c, 0, 47, 96
2, 294143, Note_on_c, 0, 47, 0
2, 294144, Note_on_c, 0, 71, 96
2, 294144, Note_on_c, 0, 50, 96
2, 294239, Note_on_c, 0, 71, 0
2, 294240, Note_on_c, 0, 69, 96
2, 294335, Note_on_c, 0, 69, 0
2, 294335, Note_on_c, 0, 50, 0
2, 294336, Note_on_c, 0, 67, 96
2, 294336, Note_on_c, 0, 54, 96
2, 294431, Note_on_c, 0, 67, 0
2, 294432, Note_on_c, 0, 69, 96
2, 294527, Note_on_c, 0, 69, 0
2, 294527, Note_on_c, 0, 54, 0
2, 294528, Note_on_c, 0, 71, 96
2, 294528, Note_on_c, 0, 52, 96
2, 294623, Note_on_c, 0, 71, 0
2, 294624, Note_on_c, 0, 69, 96
2, 294719, Note_on_c, 0, 69, 0
2, 294719, Note_on_c, 0, 52, 0
2, 294720, Note_on_c, 0, 67, 96
2, 294720, Note_on_c, 0, 50, 96
2, 294815, Note_on_c, 0, 67, 0
2, 294816, Note_on_c, 0, 69, 96
2, 294911, Note_on_c, 0, 69, 0
2, 294911, Note_on_c, 0, 50, 0
2, 294912, Note_on_c, 0, 71, 96
2, 294912, Note_on_c, 0, 49, 96
2, 295103, Note_on_c, 0, 49, 0
2, 295103, Note_on_c, 0, 71, 0
2, 295104, Note_on_c, 0, 76, 96
2, 295104, Note_on_c, 0, 55, 96
2, 295199, Note_on_c, 0, 76, 0
2, 295200, Note_on_c, 0, 78, 96
2, 295295, Note_on_c, 0, 78, 0
2, 295295, Note_on_c, 0, 55, 0
2, 295296, Note_on_c, 0, 79, 96
2, 295296, Note_on_c, 0, 49, 96
2, 295391, Note_on_c, 0, 79, 0
2, 295392, Note_on_c, 0, 78, 96
2, 295487, Note_on_c, 0, 78, 0
2, 295487, Note_on_c, 0, 49, 0
2, 295488, Note_on_c, 0, 76, 96
2, 295488, Note_on_c, 0, 47, 96
2, 295583, Note_on_c, 0, 76, 0
2, 295584, Note_on_c, 0, 74, 96
2, 295679, Note_on_c, 0, 74, 0
2, 295679, Note_on_c, 0, 47, 0
2, 295680, Note_on_c, 0, 73, 96
2, 295680, Note_on_c, 0, 45, 96
2, 295871, Note_on_c, 0, 45, 0
2, 295871, Note_on_c, 0, 73, 0
2, 295872, Note_on_c, 0, 71, 96
2, 295872, Note_on_c, 0, 43, 96
2, 296063, Note_on_c, 0, 43, 0
2, 296063, Note_on_c, 0, 71, 0
2, 296064, Note_on_c, 0, 71, 96
2, 296064, Note_on_c, 0, 42, 96
2, 296159, Note_on_c, 0, 71, 0
2, 296160, Note_on_c, 0, 69, 96
2, 296255, Note_on_c, 0, 69, 0
2, 296255, Note_on_c, 0, 42, 0
2, 296256, Note_on_c, 0, 74, 96
2, 296256, Note_on_c, 0, 54, 96
2, 296351, Note_on_c, 0, 74, 0
2, 296352, Note_on_c, 0, 76, 96
2, 296447, Note_on_c, 0, 76, 0
2, 296447, Note_on_c, 0, 54, 0
2, 296448, Note_on_c, 0, 78, 96
2, 296448, Note_on_c, 0, 47, 96
2, 296543, Note_on_c, 0, 78, 0
2, 296544, Note_on_c, 0, 76, 96
2, 296639, Note_on_c, 0, 76, 0
2, 296639, Note_on_c, 0, 47, 0
2, 296640, Note_on_c, 0, 74, 96
2, 296640, Note_on_c, 0, 45, 96
2, 296735, Note_on_c, 0, 74, 0
2, 296736, Note_on_c, 0, 73, 96
2, 296831, Note_on_c, 0, 73, 0
2, 296831, Note_on_c, 0, 45, 0
2, 296832, Note_on_c, 0, 71, 96
2, 296832, Note_on_c, 0, 43, 96
2, 297023, Note_on_c, 0, 43, 0
2, 297023, Note_on_c, 0, 71, 0
2, 297024, Note_on_c, 0, 69, 96
2, 297024, Note_on_c, 0, 42, 96
2, 297215, Note_on_c, 0, 42, 0
2, 297216, Note_on_c, 0, 40, 96
2, 297244, Note_on_c, 0, 69, 0
2, 297312, Note_on_c, 0, 67, 96
2, 297407, Note_on_c, 0, 67, 0
2, 297407, Note_on_c, 0, 40, 0
2, 297408, Note_on_c, 0, 73, 96
2, 297408, Note_on_c, 0, 52, 96
2, 297503, Note_on_c, 0, 73, 0
2, 297504, Note_on_c, 0, 74, 96
2, 297599, Note_on_c, 0, 74, 0
2, 297599, Note_on_c, 0, 52, 0
2, 297600, Note_on_c, 0, 76, 96
2, 297600, Note_on_c, 0, 45, 96
2, 297695, Note_on_c, 0, 76, 0
2, 297696, Note_on_c, 0, 74, 96
2, 297791, Note_on_c, 0, 74, 0
2, 297791, Note_on_c, 0, 45, 0
2, 297792, Note_on_c, 0, 73, 96
2, 297792, Note_on_c, 0, 43, 96
2, 297887, Note_on_c, 0, 73, 0
2, 297888, Note_on_c, 0, 71, 96
2, 297983, Note_on_c, 0, 71, 0
2, 297983, Note_on_c, 0, 43, 0
2, 297984, Note_on_c, 0, 69, 96
2, 297984, Note_on_c, 0, 42, 96
2, 298175, Note_on_c, 0, 42, 0
2, 298175, Note_on_c, 0, 69, 0
2, 298176, Note_on_c, 0, 67, 96
2, 298176, Note_on_c, 0, 40, 96
2, 298367, Note_on_c, 0, 40, 0
2, 298367, Note_on_c, 0, 67, 0
2, 298368, Note_on_c, 0, 66, 96
2, 298368, Note_on_c, 0, 38, 96
2, 298559, Note_on_c, 0, 38, 0
2, 298560, Note_on_c, 0, 45, 96
2, 298751, Note_on_c, 0, 45, 0
2, 298752, Note_on_c, 0, 50, 96
2, 298943, Note_on_c, 0, 50, 0
2, 298943, Note_on_c, 0, 66, 0
2, 298944, Note_on_c, 0, 62, 96
2, 298944, Note_on_c, 0, 54, 96
2, 299039, Note_on_c, 0, 62, 0
2, 299040, Note_on_c, 0, 66, 96
2, 299135, Note_on_c, 0, 66, 0
2, 299135, Note_on_c, 0, 54, 0
2, 299136, Note_on_c, 0, 67, 96
2, 299136, Note_on_c, 0, 52, 96
2, 299327, Note_on_c, 0, 52, 0
2, 299327, Note_on_c, 0, 67, 0
2, 299328, Note_on_c, 0, 62, 96
2, 299328, Note_on_c, 0, 55, 96
2, 299423, Note_on_c, 0, 62, 0
2, 299424, Note_on_c, 0, 67, 96
2, 299519, Note_on_c, 0, 67, 0
2, 299519, Note_on_c, 0, 55, 0
2, 299520, Note_on_c, 0, 69, 96
2, 299520, Note_on_c, 0, 54, 96
2, 299711, Note_on_c, 0, 54, 0
2, 299712, Note_on_c, 0, 57, 96
2, 299903, Note_on_c, 0, 57, 0
2, 299903, Note_on_c, 0, 69, 0
2, 299904, Note_on_c, 0, 69, 96
2, 299904, Note_on_c, 0, 55, 96
2, 300095, Note_on_c, 0, 55, 0
2, 300095, Note_on_c, 0, 69, 0
2, 300096, Note_on_c, 0, 71, 96
2, 300096, Note_on_c, 0, 54, 96
2, 300287, Note_on_c, 0, 54, 0
2, 300288, Note_on_c, 0, 52, 96
2, 300479, Note_on_c, 0, 52, 0
2, 300479, Note_on_c, 0, 71, 0
2, 300480, Note_on_c, 0, 72, 96
2, 300480, Note_on_c, 0, 50, 96
2, 300671, Note_on_c, 0, 50, 0
2, 300671, Note_on_c, 0, 72, 0
2, 300672, Note_on_c, 0, 71, 96
2, 300672, Note_on_c, 0, 55, 96
2, 301056, Note_on_c, 0, 43, 96
2, 301248, Note_on_c, 0, 64, 96
2, 301439, Note_on_c, 0, 64, 0
2, 301439, Note_on_c, 0, 43, 0
2, 301439, Note_on_c, 0, 55, 0
2, 301440, Note_on_c, 0, 66, 96
2, 301440, Note_on_c, 0, 55, 96
2, 301440, Note_on_c, 0, 59, 96
2, 301499, Note_on_c, 0, 66, 0
2, 301500, Note_on_c, 0, 64, 96
2, 301559, Note_on_c, 0, 64, 0
2, 301560, Note_on_c, 0, 62, 96
2, 301631, Note_on_c, 0, 62, 0
2, 301632, Note_on_c, 0, 64, 96
2, 301822, Note_on_c, 0, 71, 0
2, 301823, Note_on_c, 0, 59, 0
2, 301823, Note_on_c, 0, 64, 0
2, 301824, Note_on_c, 0, 69, 96
2, 301824, Note_on_c, 0, 61, 96
2, 302207, Note_on_c, 0, 61, 0
2, 302207, Note_on_c, 0, 55, 0
2, 302208, Note_on_c, 0, 62, 96
2, 302208, Note_on_c, 0, 54, 96
2, 302399, Note_on_c, 0, 62, 0
2, 302400, Note_on_c, 0, 64, 96
2, 302591, Note_on_c, 0, 64, 0
2, 302592, Note_on_c, 0, 66, 96
2, 302592, Note_on_c, 0, 57, 96
2, 302783, Note_on_c, 0, 66, 0
2, 302784, Note_on_c, 0, 62, 96
2, 302974, Note_on_c, 0, 69, 0
2, 302975, Note_on_c, 0, 57, 0
2, 302975, Note_on_c, 0, 62, 0
2, 302976, Note_on_c, 0, 67, 96
2, 302976, Note_on_c, 0, 59, 96
2, 303158, Note_on_c, 0, 54, 0
2, 303167, Note_on_c, 0, 59, 0
2, 303168, Note_on_c, 0, 59, 96
2, 303168, Note_on_c, 0, 54, 96
2, 303359, Note_on_c, 0, 54, 0
2, 303359, Note_on_c, 0, 59, 0
2, 303360, Note_on_c, 0, 61, 96
2, 303360, Note_on_c, 0, 52, 96
2, 303419, Note_on_c, 0, 61, 0
2, 303420, Note_on_c, 0, 59, 96
2, 303479, Note_on_c, 0, 59, 0
2, 303480, Note_on_c, 0, 57, 96
2, 303551, Note_on_c, 0, 57, 0
2, 303551, Note_on_c, 0, 52, 0
2, 303552, Note_on_c, 0, 59, 96
2, 303552, Note_on_c, 0, 50, 96
2, 303743, Note_on_c, 0, 50, 0
2, 303743, Note_on_c, 0, 59, 0
2, 303744, Note_on_c, 0, 64, 96
2, 303744, Note_on_c, 0, 49, 96
2, 303935, Note_on_c, 0, 49, 0
2, 303936, Note_on_c, 0, 50, 96
2, 304127, Note_on_c, 0, 50, 0
2, 304127, Note_on_c, 0, 64, 0
2, 304128, Note_on_c, 0, 57, 96
2, 304128, Note_on_c, 0, 49, 96
2, 304319, Note_on_c, 0, 57, 0
2, 304320, Note_on_c, 0, 59, 96
2, 304511, Note_on_c, 0, 59, 0
2, 304511, Note_on_c, 0, 49, 0
2, 304512, Note_on_c, 0, 61, 96
2, 304512, Note_on_c, 0, 45, 96
2, 304703, Note_on_c, 0, 61, 0
2, 304704, Note_on_c, 0, 57, 96
2, 304895, Note_on_c, 0, 57, 0
2, 304895, Note_on_c, 0, 45, 0
2, 304896, Note_on_c, 0, 66, 96
2, 304896, Note_on_c, 0, 62, 96
2, 304896, Note_on_c, 0, 47, 96
2, 304901, Note_on_c, 0, 67, 0
2, 305088, Note_on_c, 0, 50, 96
2, 305276, Note_on_c, 0, 47, 0
2, 305279, Note_on_c, 0, 50, 0
2, 305279, Note_on_c, 0, 62, 0
2, 305280, Note_on_c, 0, 59, 96
2, 305280, Note_on_c, 0, 52, 96
2, 305280, Note_on_c, 0, 43, 96
2, 305375, Note_on_c, 0, 52, 0
2, 305376, Note_on_c, 0, 50, 96
2, 305471, Note_on_c, 0, 50, 0
2, 305472, Note_on_c, 0, 49, 96
2, 305567, Note_on_c, 0, 49, 0
2, 305568, Note_on_c, 0, 50, 96
2, 305663, Note_on_c, 0, 50, 0
2, 305663, Note_on_c, 0, 66, 0
2, 305663, Note_on_c, 0, 59, 0
2, 305664, Note_on_c, 0, 66, 96
2, 305664, Note_on_c, 0, 55, 96
2, 305759, Note_on_c, 0, 66, 0
2, 305760, Note_on_c, 0, 64, 96
2, 305855, Note_on_c, 0, 64, 0
2, 305856, Note_on_c, 0, 62, 96
2, 305951, Note_on_c, 0, 62, 0
2, 305952, Note_on_c, 0, 61, 96
2, 306047, Note_on_c, 0, 61, 0
2, 306047, Note_on_c, 0, 55, 0
2, 306048, Note_on_c, 0, 62, 96
2, 306048, Note_on_c, 0, 54, 96
2, 306239, Note_on_c, 0, 62, 0
2, 306240, Note_on_c, 0, 64, 96
2, 306431, Note_on_c, 0, 64, 0
2, 306431, Note_on_c, 0, 54, 0
2, 306432, Note_on_c, 0, 61, 96
2, 306432, Note_on_c, 0, 52, 96
2, 306623, Note_on_c, 0, 61, 0
2, 306624, Note_on_c, 0, 57, 96
2, 306719, Note_on_c, 0, 57, 0
2, 306720, Note_on_c, 0, 61, 96
2, 306810, Note_on_c, 0, 43, 0
2, 306815, Note_on_c, 0, 61, 0
2, 306815, Note_on_c, 0, 52, 0
2, 306816, Note_on_c, 0, 62, 96
2, 306816, Note_on_c, 0, 50, 96
2, 306816, Note_on_c, 0, 42, 96
2, 307007, Note_on_c, 0, 62, 0
2, 307008, Note_on_c, 0, 57, 96
2, 307103, Note_on_c, 0, 57, 0
2, 307104, Note_on_c, 0, 62, 96
2, 307199, Note_on_c, 0, 62, 0
2, 307199, Note_on_c, 0, 42, 0
2, 307199, Note_on_c, 0, 50, 0
2, 307200, Note_on_c, 0, 64, 96
2, 307200, Note_on_c, 0, 49, 96
2, 307200, Note_on_c, 0, 40, 96
2, 307391, Note_on_c, 0, 64, 0
2, 307392, Note_on_c, 0, 57, 96
2, 307487, Note_on_c, 0, 57, 0
2, 307488, Note_on_c, 0, 64, 96
2, 307583, Note_on_c, 0, 64, 0
2, 307583, Note_on_c, 0, 40, 0
2, 307583, Note_on_c, 0, 49, 0
2, 307584, Note_on_c, 0, 66, 96
2, 307584, Note_on_c, 0, 50, 96
2, 307584, Note_on_c, 0, 38, 96
2, 307776, Note_on_c, 0, 57, 96
2, 307854, Note_on_c, 0, 66, 0
2, 307871, Note_on_c, 0, 57, 0
2, 307872, Note_on_c, 0, 66, 96
2, 307967, Note_on_c, 0, 66, 0
2, 307967, Note_on_c, 0, 38, 0
2, 307968, Note_on_c, 0, 67, 96
2, 307968, Note_on_c, 0, 52, 96
2, 308351, Note_on_c, 0, 50, 0
2, 308352, Note_on_c, 0, 49, 96
2, 308448, Note_on_c, 0, 67, 0
2, 308544, Note_on_c, 0, 66, 96
2, 308639, Note_on_c, 0, 66, 0
2, 308640, Note_on_c, 0, 64, 96
2, 308735, Note_on_c, 0, 64, 0
2, 308735, Note_on_c, 0, 49, 0
2, 308735, Note_on_c, 0, 52, 0
2, 308736, Note_on_c, 0, 66, 96
2, 308736, Note_on_c, 0, 50, 96
2, 308736, Note_on_c, 0, 48, 96
2, 308927, Note_on_c, 0, 66, 0
2, 308928, Note_on_c, 0, 62, 96
2, 309023, Note_on_c, 0, 62, 0
2, 309024, Note_on_c, 0, 66, 96
2, 309119, Note_on_c, 0, 66, 0
2, 309119, Note_on_c, 0, 48, 0
2, 309119, Note_on_c, 0, 50, 0
2, 309120, Note_on_c, 0, 67, 96
2, 309120, Note_on_c, 0, 52, 96
2, 309120, Note_on_c, 0, 47, 96
2, 309311, Note_on_c, 0, 67, 0
2, 309312, Note_on_c, 0, 62, 96
2, 309407, Note_on_c, 0, 62, 0
2, 309408, Note_on_c, 0, 67, 96
2, 309503, Note_on_c, 0, 67, 0
2, 309503, Note_on_c, 0, 47, 0
2, 309503, Note_on_c, 0, 52, 0
2, 309504, Note_on_c, 0, 69, 96
2, 309504, Note_on_c, 0, 54, 96
2, 309504, Note_on_c, 0, 45, 96
2, 309695, Note_on_c, 0, 69, 0
2, 309696, Note_on_c, 0, 62, 96
2, 309791, Note_on_c, 0, 62, 0
2, 309792, Note_on_c, 0, 69, 96
2, 309887, Note_on_c, 0, 69, 0
2, 309887, Note_on_c, 0, 45, 0
2, 309887, Note_on_c, 0, 54, 0
2, 309888, Note_on_c, 0, 71, 96
2, 309888, Note_on_c, 0, 55, 96
2, 309888, Note_on_c, 0, 43, 96
2, 310080, Note_on_c, 0, 62, 96
2, 310158, Note_on_c, 0, 71, 0
2, 310175, Note_on_c, 0, 62, 0
2, 310176, Note_on_c, 0, 71, 96
2, 310271, Note_on_c, 0, 71, 0
2, 310271, Note_on_c, 0, 43, 0
2, 310272, Note_on_c, 0, 72, 96
2, 310272, Note_on_c, 0, 57, 96
2, 310655, Note_on_c, 0, 55, 0
2, 310656, Note_on_c, 0, 54, 96
2, 310822, Note_on_c, 0, 72, 0
2, 310848, Note_on_c, 0, 71, 96
2, 310943, Note_on_c, 0, 71, 0
2, 310944, Note_on_c, 0, 69, 96
2, 311039, Note_on_c, 0, 69, 0
2, 311039, Note_on_c, 0, 54, 0
2, 311039, Note_on_c, 0, 57, 0
2, 311040, Note_on_c, 0, 71, 96
2, 311040, Note_on_c, 0, 55, 96
2, 311231, Note_on_c, 0, 71, 0
2, 311232, Note_on_c, 0, 67, 96
2, 311327, Note_on_c, 0, 67, 0
2, 311328, Note_on_c, 0, 71, 96
2, 311423, Note_on_c, 0, 71, 0
2, 311424, Note_on_c, 0, 73, 96
2, 311424, Note_on_c, 0, 52, 96
2, 311615, Note_on_c, 0, 73, 0
2, 311616, Note_on_c, 0, 67, 96
2, 311711, Note_on_c, 0, 67, 0
2, 311712, Note_on_c, 0, 73, 96
2, 311807, Note_on_c, 0, 73, 0
2, 311807, Note_on_c, 0, 52, 0
2, 311808, Note_on_c, 0, 74, 96
2, 311808, Note_on_c, 0, 50, 96
2, 312000, Note_on_c, 0, 67, 96
2, 312028, Note_on_c, 0, 74, 0
2, 312095, Note_on_c, 0, 67, 0
2, 312096, Note_on_c, 0, 74, 96
2, 312191, Note_on_c, 0, 74, 0
2, 312191, Note_on_c, 0, 50, 0
2, 312192, Note_on_c, 0, 76, 96
2, 312192, Note_on_c, 0, 49, 96
2, 312570, Note_on_c, 0, 55, 0
2, 312575, Note_on_c, 0, 49, 0
2, 312576, Note_on_c, 0, 50, 96
2, 312576, Note_on_c, 0, 54, 96
2, 312671, Note_on_c, 0, 76, 0
2, 312672, Note_on_c, 0, 74, 96
2, 312767, Note_on_c, 0, 74, 0
2, 312768, Note_on_c, 0, 73, 96
2, 312863, Note_on_c, 0, 73, 0
2, 312864, Note_on_c, 0, 71, 96
2, 312959, Note_on_c, 0, 71, 0
2, 312959, Note_on_c, 0, 50, 0
2, 312960, Note_on_c, 0, 69, 96
2, 312960, Note_on_c, 0, 49, 96
2, 313151, Note_on_c, 0, 69, 0
2, 313152, Note_on_c, 0, 74, 96
2, 313343, Note_on_c, 0, 49, 0
2, 313344, Note_on_c, 0, 47, 96
2, 313439, Note_on_c, 0, 74, 0
2, 313440, Note_on_c, 0, 73, 96
2, 313535, Note_on_c, 0, 73, 0
2, 313536, Note_on_c, 0, 71, 96
2, 313631, Note_on_c, 0, 71, 0
2, 313632, Note_on_c, 0, 69, 96
2, 313726, Note_on_c, 0, 54, 0
2, 313727, Note_on_c, 0, 69, 0
2, 313727, Note_on_c, 0, 47, 0
2, 313728, Note_on_c, 0, 67, 96
2, 313728, Note_on_c, 0, 52, 96
2, 313728, Note_on_c, 0, 49, 96
2, 313919, Note_on_c, 0, 67, 0
2, 313920, Note_on_c, 0, 71, 96
2, 314111, Note_on_c, 0, 49, 0
2, 314112, Note_on_c, 0, 50, 96
2, 314207, Note_on_c, 0, 71, 0
2, 314208, Note_on_c, 0, 69, 96
2, 314303, Note_on_c, 0, 69, 0
2, 314304, Note_on_c, 0, 67, 96
2, 314399, Note_on_c, 0, 67, 0
2, 314400, Note_on_c, 0, 66, 96
2, 314495, Note_on_c, 0, 66, 0
2, 314495, Note_on_c, 0, 50, 0
2, 314496, Note_on_c, 0, 64, 96
2, 314496, Note_on_c, 0, 49, 96
2, 314687, Note_on_c, 0, 64, 0
2, 314688, Note_on_c, 0, 67, 96
2, 314878, Note_on_c, 0, 52, 0
2, 314879, Note_on_c, 0, 49, 0
2, 314880, Note_on_c, 0, 45, 96
2, 314880, Note_on_c, 0, 49, 96
2, 314975, Note_on_c, 0, 67, 0
2, 314976, Note_on_c, 0, 66, 96
2, 315071, Note_on_c, 0, 66, 0
2, 315072, Note_on_c, 0, 64, 96
2, 315167, Note_on_c, 0, 64, 0
2, 315168, Note_on_c, 0, 62, 96
2, 315263, Note_on_c, 0, 62, 0
2, 315263, Note_on_c, 0, 49, 0
2, 315263, Note_on_c, 0, 45, 0
2, 315264, Note_on_c, 0, 61, 96
2, 315264, Note_on_c, 0, 43, 96
2, 315264, Note_on_c, 0, 52, 96
2, 315455, Note_on_c, 0, 61, 0
2, 315456, Note_on_c, 0, 69, 96
2, 315647, Note_on_c, 0, 52, 0
2, 315647, Note_on_c, 0, 43, 0
2, 315648, Note_on_c, 0, 50, 96
2, 315648, Note_on_c, 0, 42, 96
2, 315839, Note_on_c, 0, 69, 0
2, 315840, Note_on_c, 0, 62, 96
2, 316031, Note_on_c, 0, 62, 0
2, 316031, Note_on_c, 0, 42, 0
2, 316032, Note_on_c, 0, 66, 96
2, 316032, Note_on_c, 0, 43, 96
2, 316415, Note_on_c, 0, 43, 0
2, 316415, Note_on_c, 0, 66, 0
2, 316415, Note_on_c, 0, 50, 0
2, 316416, Note_on_c, 0, 61, 96
2, 316416, Note_on_c, 0, 66, 96
2, 316416, Note_on_c, 0, 55, 96
2, 316416, Note_on_c, 0, 45, 96
2, 316511, Note_on_c, 0, 66, 0
2, 316512, Note_on_c, 0, 64, 96
2, 316606, Note_on_c, 0, 61, 0
2, 316607, Note_on_c, 0, 64, 0
2, 316608, Note_on_c, 0, 62, 96
2, 316703, Note_on_c, 0, 62, 0
2, 316704, Note_on_c, 0, 64, 96
2, 316799, Note_on_c, 0, 64, 0
2, 316799, Note_on_c, 0, 55, 0
2, 316799, Note_on_c, 0, 45, 0
2, 316800, Note_on_c, 0, 57, 96
2, 316800, Note_on_c, 0, 62, 96
2, 316800, Note_on_c, 0, 50, 96
2, 316800, Note_on_c, 0, 54, 96
2, 317184, Note_on_c, 0, 38, 96
2, 317568, Note_on_c, 0, 45, 96
2, 317950, Note_on_c, 0, 54, 0
2, 317950, Note_on_c, 0, 50, 0
2, 317950, Note_on_c, 0, 57, 0
2, 317951, Note_on_c, 0, 45, 0
2, 317952, Note_on_c, 0, 57, 96
2, 317952, Note_on_c, 0, 54, 96
2, 317952, Note_on_c, 0, 50, 96
2, 319540, Note_on_c, 0, 62, 0
2, 319552, Note_on_c, 0, 54, 0
2, 319552, Note_on_c, 0, 38, 0
2, 319552, Note_on_c, 0, 57, 0
2, 319552, Note_on_c, 0, 50, 0
2, 321216, Note_on_c, 0, 69, 96
2, 321336, Note_on_c, 0, 69, 0
2, 321408, Note_on_c, 0, 62, 96
2, 321408, Note_on_c, 0, 67, 96
2, 321503, Note_on_c, 0, 67, 0
2, 321504, Note_on_c, 0, 66, 96
2, 321598, Note_on_c, 0, 62, 0
2, 321599, Note_on_c, 0, 66, 0
2, 321600, Note_on_c, 0, 64, 96
2, 321792, Note_on_c, 0, 61, 96
2, 321792, Note_on_c, 0, 57, 96
2, 321982, Note_on_c, 0, 57, 0
2, 321982, Note_on_c, 0, 61, 0
2, 321983, Note_on_c, 0, 64, 0
2, 321984, Note_on_c, 0, 62, 96
2, 322176, Note_on_c, 0, 54, 96
2, 322176, Note_on_c, 0, 57, 96
2, 322366, Note_on_c, 0, 57, 0
2, 322366, Note_on_c, 0, 54, 0
2, 322367, Note_on_c, 0, 62, 0
2, 322368, Note_on_c, 0, 61, 96
2, 322560, Note_on_c, 0, 52, 96
2, 322560, Note_on_c, 0, 55, 96
2, 322750, Note_on_c, 0, 55, 0
2, 322750, Note_on_c, 0, 52, 0
2, 322751, Note_on_c, 0, 61, 0
2, 322752, Note_on_c, 0, 62, 96
2, 322944, Note_on_c, 0, 57, 96
2, 322944, Note_on_c, 0, 54, 96
2, 323135, Note_on_c, 0, 54, 0
2, 323135, Note_on_c, 0, 62, 0
2, 323136, Note_on_c, 0, 64, 96
2, 323136, Note_on_c, 0, 52, 96
2, 323231, Note_on_c, 0, 52, 0
2, 323231, Note_on_c, 0, 64, 0
2, 323232, Note_on_c, 0, 66, 96
2, 323232, Note_on_c, 0, 50, 96
2, 323327, Note_on_c, 0, 50, 0
2, 323327, Note_on_c, 0, 66, 0
2, 323328, Note_on_c, 0, 67, 96
2, 323328, Note_on_c, 0, 49, 96
2, 323519, Note_on_c, 0, 49, 0
2, 323519, Note_on_c, 0, 67, 0
2, 323519, Note_on_c, 0, 57, 0
2, 323520, Note_on_c, 0, 66, 96
2, 323520, Note_on_c, 0, 62, 96
2, 323520, Note_on_c, 0, 57, 96
2, 323520, Note_on_c, 0, 50, 96
2, 323711, Note_on_c, 0, 50, 0
2, 323711, Note_on_c, 0, 66, 0
2, 323711, Note_on_c, 0, 62, 0
2, 323711, Note_on_c, 0, 57, 0
2, 323712, Note_on_c, 0, 62, 96
2, 323712, Note_on_c, 0, 67, 96
2, 323712, Note_on_c, 0, 57, 96
2, 323759, Note_on_c, 0, 67, 0
2, 323760, Note_on_c, 0, 66, 96
2, 323807, Note_on_c, 0, 66, 0
2, 323808, Note_on_c, 0, 67, 96
2, 323855, Note_on_c, 0, 67, 0
2, 323856, Note_on_c, 0, 66, 96
2, 323902, Note_on_c, 0, 57, 0
2, 323902, Note_on_c, 0, 62, 0
2, 323903, Note_on_c, 0, 66, 0
2, 323904, Note_on_c, 0, 61, 96
2, 323904, Note_on_c, 0, 64, 96
2, 324096, Note_on_c, 0, 45, 96
2, 324184, Note_on_c, 0, 64, 0
2, 324184, Note_on_c, 0, 61, 0
2, 324288, Note_on_c, 0, 64, 96
2, 324288, Note_on_c, 0, 69, 96
2, 324288, Note_on_c, 0, 57, 96
2, 324288, Note_on_c, 0, 49, 96
2, 324288, Note_on_c, 0, 52, 96
2, 324479, Note_on_c, 0, 52, 0
2, 324479, Note_on_c, 0, 64, 0
2, 324479, Note_on_c, 0, 69, 0
2, 324479, Note_on_c, 0, 57, 0
2, 324479, Note_on_c, 0, 49, 0
2, 324480, Note_on_c, 0, 66, 96
2, 324480, Note_on_c, 0, 62, 96
2, 324480, Note_on_c, 0, 57, 96
2, 324480, Note_on_c, 0, 54, 96
2, 324480, Note_on_c, 0, 50, 96
2, 324670, Note_on_c, 0, 50, 0
2, 324670, Note_on_c, 0, 57, 0
2, 324670, Note_on_c, 0, 54, 0
2, 324671, Note_on_c, 0, 66, 0
2, 324671, Note_on_c, 0, 62, 0
2, 324672, Note_on_c, 0, 64, 96
2, 324863, Note_on_c, 0, 64, 0
2, 324864, Note_on_c, 0, 61, 96
2, 324864, Note_on_c, 0, 57, 96
2, 324864, Note_on_c, 0, 55, 96
2, 324864, Note_on_c, 0, 52, 96
2, 325054, Note_on_c, 0, 52, 0
2, 325054, Note_on_c, 0, 57, 0
2, 325054, Note_on_c, 0, 55, 0
2, 325055, Note_on_c, 0, 61, 0
2, 325056, Note_on_c, 0, 62, 96
2, 325248, Note_on_c, 0, 57, 96
2, 325248, Note_on_c, 0, 54, 96
2, 325438, Note_on_c, 0, 54, 0
2, 325438, Note_on_c, 0, 57, 0
2, 325439, Note_on_c, 0, 62, 0
2, 325440, Note_on_c, 0, 61, 96
2, 325632, Note_on_c, 0, 57, 96
2, 325632, Note_on_c, 0, 55, 96
2, 325822, Note_on_c, 0, 55, 0
2, 325822, Note_on_c, 0, 57, 0
2, 325823, Note_on_c, 0, 61, 0
2, 325824, Note_on_c, 0, 62, 96
2, 326016, Note_on_c, 0, 57, 96
2, 326016, Note_on_c, 0, 54, 96
2, 326207, Note_on_c, 0, 54, 0
2, 326207, Note_on_c, 0, 62, 0
2, 326208, Note_on_c, 0, 64, 96
2, 326208, Note_on_c, 0, 52, 96
2, 326303, Note_on_c, 0, 52, 0
2, 326303, Note_on_c, 0, 64, 0
2, 326304, Note_on_c, 0, 66, 96
2, 326304, Note_on_c, 0, 50, 96
2, 326396, Note_on_c, 0, 45, 0
2, 326399, Note_on_c, 0, 50, 0
2, 326399, Note_on_c, 0, 66, 0
2, 326400, Note_on_c, 0, 67, 96
2, 326400, Note_on_c, 0, 49, 96
2, 326591, Note_on_c, 0, 49, 0
2, 326591, Note_on_c, 0, 67, 0
2, 326591, Note_on_c, 0, 57, 0
2, 326592, Note_on_c, 0, 62, 96
2, 326592, Note_on_c, 0, 66, 96
2, 326592, Note_on_c, 0, 57, 96
2, 326592, Note_on_c, 0, 50, 96
2, 326783, Note_on_c, 0, 50, 0
2, 326783, Note_on_c, 0, 62, 0
2, 326783, Note_on_c, 0, 66, 0
2, 326783, Note_on_c, 0, 57, 0
2, 326784, Note_on_c, 0, 62, 96
2, 326784, Note_on_c, 0, 67, 96
2, 326784, Note_on_c, 0, 57, 96
2, 326831, Note_on_c, 0, 67, 0
2, 326832, Note_on_c, 0, 66, 96
2, 326879, Note_on_c, 0, 66, 0
2, 326880, Note_on_c, 0, 67, 96
2, 326927, Note_on_c, 0, 67, 0
2, 326928, Note_on_c, 0, 66, 96
2, 326974, Note_on_c, 0, 62, 0
2, 326975, Note_on_c, 0, 66, 0
2, 326976, Note_on_c, 0, 61, 96
2, 326976, Note_on_c, 0, 64, 96
2, 326976, Note_on_c, 0, 45, 96
2, 327164, Note_on_c, 0, 57, 0
2, 327256, Note_on_c, 0, 45, 0
2, 327256, Note_on_c, 0, 64, 0
2, 327352, Note_on_c, 0, 61, 0
2, 327360, Note_on_c, 0, 64, 96
2, 327360, Note_on_c, 0, 61, 96
2, 327360, Note_on_c, 0, 57, 96
2, 327551, Note_on_c, 0, 57, 0
2, 327551, Note_on_c, 0, 61, 0
2, 327551, Note_on_c, 0, 64, 0
2, 327552, Note_on_c, 0, 66, 96
2, 327552, Note_on_c, 0, 62, 96
2, 327647, Note_on_c, 0, 66, 0
2, 327648, Note_on_c, 0, 68, 96
2, 327743, Note_on_c, 0, 68, 0
2, 327743, Note_on_c, 0, 62, 0
2, 327744, Note_on_c, 0, 69, 96
2, 327744, Note_on_c, 0, 61, 96
2, 327935, Note_on_c, 0, 61, 0
2, 327936, Note_on_c, 0, 59, 96
2, 328084, Note_on_c, 0, 69, 0
2, 328127, Note_on_c, 0, 59, 0
2, 328128, Note_on_c, 0, 68, 96
2, 328128, Note_on_c, 0, 57, 96
2, 328223, Note_on_c, 0, 68, 0
2, 328224, Note_on_c, 0, 69, 96
2, 328319, Note_on_c, 0, 69, 0
2, 328319, Note_on_c, 0, 57, 0
2, 328320, Note_on_c, 0, 71, 96
2, 328320, Note_on_c, 0, 56, 96
2, 328415, Note_on_c, 0, 71, 0
2, 328416, Note_on_c, 0, 69, 96
2, 328511, Note_on_c, 0, 69, 0
2, 328511, Note_on_c, 0, 56, 0
2, 328512, Note_on_c, 0, 68, 96
2, 328512, Note_on_c, 0, 57, 96
2, 328607, Note_on_c, 0, 68, 0
2, 328608, Note_on_c, 0, 66, 96
2, 328703, Note_on_c, 0, 66, 0
2, 328703, Note_on_c, 0, 57, 0
2, 328704, Note_on_c, 0, 64, 96
2, 328704, Note_on_c, 0, 56, 96
2, 328799, Note_on_c, 0, 64, 0
2, 328800, Note_on_c, 0, 66, 96
2, 328895, Note_on_c, 0, 66, 0
2, 328895, Note_on_c, 0, 56, 0
2, 328896, Note_on_c, 0, 68, 96
2, 328896, Note_on_c, 0, 54, 96
2, 328991, Note_on_c, 0, 68, 0
2, 328992, Note_on_c, 0, 69, 96
2, 329087, Note_on_c, 0, 69, 0
2, 329087, Note_on_c, 0, 54, 0
2, 329088, Note_on_c, 0, 71, 96
2, 329088, Note_on_c, 0, 52, 96
2, 329183, Note_on_c, 0, 71, 0
2, 329184, Note_on_c, 0, 73, 96
2, 329279, Note_on_c, 0, 73, 0
2, 329279, Note_on_c, 0, 52, 0
2, 329280, Note_on_c, 0, 74, 96
2, 329280, Note_on_c, 0, 54, 96
2, 329471, Note_on_c, 0, 54, 0
2, 329472, Note_on_c, 0, 52, 96
2, 329620, Note_on_c, 0, 74, 0
2, 329663, Note_on_c, 0, 52, 0
2, 329664, Note_on_c, 0, 73, 96
2, 329664, Note_on_c, 0, 50, 96
2, 329759, Note_on_c, 0, 73, 0
2, 329760, Note_on_c, 0, 74, 96
2, 329855, Note_on_c, 0, 74, 0
2, 329855, Note_on_c, 0, 50, 0
2, 329856, Note_on_c, 0, 76, 96
2, 329856, Note_on_c, 0, 49, 96
2, 329951, Note_on_c, 0, 76, 0
2, 329952, Note_on_c, 0, 74, 96
2, 330047, Note_on_c, 0, 74, 0
2, 330047, Note_on_c, 0, 49, 0
2, 330048, Note_on_c, 0, 73, 96
2, 330048, Note_on_c, 0, 50, 96
2, 330143, Note_on_c, 0, 73, 0
2, 330144, Note_on_c, 0, 71, 96
2, 330239, Note_on_c, 0, 71, 0
2, 330239, Note_on_c, 0, 50, 0
2, 330240, Note_on_c, 0, 69, 96
2, 330240, Note_on_c, 0, 49, 96
2, 330335, Note_on_c, 0, 69, 0
2, 330336, Note_on_c, 0, 71, 96
2, 330431, Note_on_c, 0, 71, 0
2, 330431, Note_on_c, 0, 49, 0
2, 330432, Note_on_c, 0, 73, 96
2, 330432, Note_on_c, 0, 47, 96
2, 330527, Note_on_c, 0, 73, 0
2, 330528, Note_on_c, 0, 74, 96
2, 330623, Note_on_c, 0, 74, 0
2, 330623, Note_on_c, 0, 47, 0
2, 330624, Note_on_c, 0, 76, 96
2, 330624, Note_on_c, 0, 45, 96
2, 330719, Note_on_c, 0, 76, 0
2, 330720, Note_on_c, 0, 78, 96
2, 330815, Note_on_c, 0, 78, 0
2, 330815, Note_on_c, 0, 45, 0
2, 330816, Note_on_c, 0, 79, 96
2, 330816, Note_on_c, 0, 47, 96
2, 331007, Note_on_c, 0, 47, 0
2, 331008, Note_on_c, 0, 49, 96
2, 331176, Note_on_c, 0, 79, 0
2, 331199, Note_on_c, 0, 49, 0
2, 331200, Note_on_c, 0, 78, 96
2, 331200, Note_on_c, 0, 45, 96
2, 331295, Note_on_c, 0, 78, 0
2, 331296, Note_on_c, 0, 76, 96
2, 331391, Note_on_c, 0, 76, 0
2, 331391, Note_on_c, 0, 45, 0
2, 331392, Note_on_c, 0, 78, 96
2, 331392, Note_on_c, 0, 50, 96
2, 331488, Note_on_c, 0, 81, 96
2, 331502, Note_on_c, 0, 78, 0
2, 331583, Note_on_c, 0, 81, 0
2, 331584, Note_on_c, 0, 79, 96
2, 331584, Note_on_c, 0, 38, 96
2, 331679, Note_on_c, 0, 79, 0
2, 331680, Note_on_c, 0, 78, 96
2, 331772, Note_on_c, 0, 50, 0
2, 331775, Note_on_c, 0, 78, 0
2, 331775, Note_on_c, 0, 38, 0
2, 331776, Note_on_c, 0, 83, 96
2, 331776, Note_on_c, 0, 50, 96
2, 331866, Note_on_c, 0, 83, 0
2, 331872, Note_on_c, 0, 81, 96
2, 331962, Note_on_c, 0, 81, 0
2, 331967, Note_on_c, 0, 50, 0
2, 331968, Note_on_c, 0, 80, 96
2, 331968, Note_on_c, 0, 47, 96
2, 332058, Note_on_c, 0, 80, 0
2, 332064, Note_on_c, 0, 78, 96
2, 332154, Note_on_c, 0, 78, 0
2, 332159, Note_on_c, 0, 47, 0
2, 332160, Note_on_c, 0, 76, 96
2, 332160, Note_on_c, 0, 49, 96
2, 332256, Note_on_c, 0, 81, 96
2, 332270, Note_on_c, 0, 76, 0
2, 332346, Note_on_c, 0, 81, 0
2, 332351, Note_on_c, 0, 49, 0
2, 332352, Note_on_c, 0, 80, 96
2, 332352, Note_on_c, 0, 45, 96
2, 332442, Note_on_c, 0, 80, 0
2, 332448, Note_on_c, 0, 78, 96
2, 332538, Note_on_c, 0, 78, 0
2, 332543, Note_on_c, 0, 45, 0
2, 332544, Note_on_c, 0, 76, 96
2, 332544, Note_on_c, 0, 52, 96
2, 332634, Note_on_c, 0, 76, 0
2, 332640, Note_on_c, 0, 74, 96
2, 332730, Note_on_c, 0, 74, 0
2, 332736, Note_on_c, 0, 73, 96
2, 332736, Note_on_c, 0, 40, 96
2, 332826, Note_on_c, 0, 73, 0
2, 332832, Note_on_c, 0, 71, 96
2, 332922, Note_on_c, 0, 71, 0
2, 332924, Note_on_c, 0, 52, 0
2, 332927, Note_on_c, 0, 40, 0
2, 332928, Note_on_c, 0, 69, 96
2, 332928, Note_on_c, 0, 45, 96
2, 333408, Note_on_c, 0, 69, 0
2, 333503, Note_on_c, 0, 45, 0
2, 333504, Note_on_c, 0, 76, 96
2, 333695, Note_on_c, 0, 76, 0
2, 333696, Note_on_c, 0, 74, 96
2, 333696, Note_on_c, 0, 57, 96
2, 333791, Note_on_c, 0, 74, 0
2, 333792, Note_on_c, 0, 73, 96
2, 333886, Note_on_c, 0, 57, 0
2, 333887, Note_on_c, 0, 73, 0
2, 333888, Note_on_c, 0, 71, 96
2, 334080, Note_on_c, 0, 55, 96
2, 334080, Note_on_c, 0, 61, 96
2, 334270, Note_on_c, 0, 61, 0
2, 334270, Note_on_c, 0, 55, 0
2, 334271, Note_on_c, 0, 71, 0
2, 334272, Note_on_c, 0, 69, 96
2, 334464, Note_on_c, 0, 62, 96
2, 334464, Note_on_c, 0, 54, 96
2, 334654, Note_on_c, 0, 54, 0
2, 334654, Note_on_c, 0, 62, 0
2, 334655, Note_on_c, 0, 69, 0
2, 334656, Note_on_c, 0, 71, 96
2, 334751, Note_on_c, 0, 71, 0
2, 334752, Note_on_c, 0, 73, 96
2, 334847, Note_on_c, 0, 73, 0
2, 334848, Note_on_c, 0, 74, 96
2, 334848, Note_on_c, 0, 52, 96
2, 334848, Note_on_c, 0, 55, 96
2, 335038, Note_on_c, 0, 55, 0
2, 335038, Note_on_c, 0, 52, 0
2, 335039, Note_on_c, 0, 74, 0
2, 335040, Note_on_c, 0, 73, 96
2, 335232, Note_on_c, 0, 50, 96
2, 335232, Note_on_c, 0, 54, 96
2, 335360, Note_on_c, 0, 73, 0
2, 335423, Note_on_c, 0, 50, 0
2, 335424, Note_on_c, 0, 74, 96
2, 335424, Note_on_c, 0, 47, 96
2, 335519, Note_on_c, 0, 47, 0
2, 335519, Note_on_c, 0, 74, 0
2, 335520, Note_on_c, 0, 76, 96
2, 335520, Note_on_c, 0, 49, 96
2, 335612, Note_on_c, 0, 54, 0
2, 335615, Note_on_c, 0, 49, 0
2, 335615, Note_on_c, 0, 76, 0
2, 335616, Note_on_c, 0, 78, 96
2, 335616, Note_on_c, 0, 50, 96
2, 335807, Note_on_c, 0, 50, 0
2, 335807, Note_on_c, 0, 78, 0
2, 335808, Note_on_c, 0, 62, 96
2, 335808, Note_on_c, 0, 71, 96
2, 335808, Note_on_c, 0, 52, 96
2, 335999, Note_on_c, 0, 52, 0
2, 336000, Note_on_c, 0, 54, 96
2, 336095, Note_on_c, 0, 54, 0
2, 336096, Note_on_c, 0, 52, 96
2, 336191, Note_on_c, 0, 52, 0
2, 336191, Note_on_c, 0, 71, 0
2, 336191, Note_on_c, 0, 62, 0
2, 336192, Note_on_c, 0, 70, 96
2, 336192, Note_on_c, 0, 61, 96
2, 336192, Note_on_c, 0, 54, 96
2, 336287, Note_on_c, 0, 54, 0
2, 336288, Note_on_c, 0, 55, 96
2, 336383, Note_on_c, 0, 55, 0
2, 336384, Note_on_c, 0, 54, 96
2, 336412, Note_on_c, 0, 61, 0
2, 336412, Note_on_c, 0, 70, 0
2, 336479, Note_on_c, 0, 54, 0
2, 336480, Note_on_c, 0, 52, 96
2, 336575, Note_on_c, 0, 52, 0
2, 336576, Note_on_c, 0, 78, 96
2, 336576, Note_on_c, 0, 50, 96
2, 336671, Note_on_c, 0, 50, 0
2, 336672, Note_on_c, 0, 49, 96
2, 336767, Note_on_c, 0, 49, 0
2, 336767, Note_on_c, 0, 78, 0
2, 336768, Note_on_c, 0, 76, 96
2, 336768, Note_on_c, 0, 47, 96
2, 336815, Note_on_c, 0, 76, 0
2, 336816, Note_on_c, 0, 74, 96
2, 336863, Note_on_c, 0, 74, 0
2, 336863, Note_on_c, 0, 47, 0
2, 336864, Note_on_c, 0, 76, 96
2, 336864, Note_on_c, 0, 45, 96
2, 336911, Note_on_c, 0, 76, 0
2, 336912, Note_on_c, 0, 74, 96
2, 336959, Note_on_c, 0, 74, 0
2, 336959, Note_on_c, 0, 45, 0
2, 336960, Note_on_c, 0, 73, 96
2, 336960, Note_on_c, 0, 43, 96
2, 337055, Note_on_c, 0, 43, 0
2, 337056, Note_on_c, 0, 42, 96
2, 337151, Note_on_c, 0, 42, 0
2, 337152, Note_on_c, 0, 40, 96
2, 337247, Note_on_c, 0, 40, 0
2, 337248, Note_on_c, 0, 38, 96
2, 337343, Note_on_c, 0, 38, 0
2, 337343, Note_on_c, 0, 73, 0
2, 337344, Note_on_c, 0, 71, 96
2, 337344, Note_on_c, 0, 40, 96
2, 337439, Note_on_c, 0, 40, 0
2, 337439, Note_on_c, 0, 71, 0
2, 337440, Note_on_c, 0, 70, 96
2, 337440, Note_on_c, 0, 42, 96
2, 337535, Note_on_c, 0, 42, 0
2, 337535, Note_on_c, 0, 70, 0
2, 337536, Note_on_c, 0, 71, 96
2, 337536, Note_on_c, 0, 43, 96
2, 337631, Note_on_c, 0, 71, 0
2, 337632, Note_on_c, 0, 74, 96
2, 337727, Note_on_c, 0, 74, 0
2, 337727, Note_on_c, 0, 43, 0
2, 337728, Note_on_c, 0, 73, 96
2, 337728, Note_on_c, 0, 55, 96
2, 337823, Note_on_c, 0, 73, 0
2, 337824, Note_on_c, 0, 71, 96
2, 337919, Note_on_c, 0, 71, 0
2, 337920, Note_on_c, 0, 73, 96
2, 338015, Note_on_c, 0, 73, 0
2, 338016, Note_on_c, 0, 75, 96
2, 338048, Note_on_c, 0, 55, 0
2, 338111, Note_on_c, 0, 75, 0
2, 338112, Note_on_c, 0, 76, 96
2, 338112, Note_on_c, 0, 54, 96
2, 338207, Note_on_c, 0, 76, 0
2, 338208, Note_on_c, 0, 78, 96
2, 338303, Note_on_c, 0, 78, 0
2, 338303, Note_on_c, 0, 54, 0
2, 338304, Note_on_c, 0, 79, 96
2, 338304, Note_on_c, 0, 52, 96
2, 338399, Note_on_c, 0, 79, 0
2, 338400, Note_on_c, 0, 83, 96
2, 338495, Note_on_c, 0, 83, 0
2, 338495, Note_on_c, 0, 52, 0
2, 338496, Note_on_c, 0, 81, 96
2, 338496, Note_on_c, 0, 60, 96
2, 338591, Note_on_c, 0, 81, 0
2, 338592, Note_on_c, 0, 79, 96
2, 338687, Note_on_c, 0, 79, 0
2, 338688, Note_on_c, 0, 81, 96
2, 338783, Note_on_c, 0, 81, 0
2, 338784, Note_on_c, 0, 83, 96
2, 338816, Note_on_c, 0, 60, 0
2, 338879, Note_on_c, 0, 83, 0
2, 338880, Note_on_c, 0, 84, 96
2, 338880, Note_on_c, 0, 57, 96
2, 339071, Note_on_c, 0, 57, 0
2, 339071, Note_on_c, 0, 84, 0
2, 339072, Note_on_c, 0, 76, 96
2, 339072, Note_on_c, 0, 59, 96
2, 339167, Note_on_c, 0, 59, 0
2, 339168, Note_on_c, 0, 57, 96
2, 339263, Note_on_c, 0, 57, 0
2, 339263, Note_on_c, 0, 76, 0
2, 339264, Note_on_c, 0, 75, 96
2, 339264, Note_on_c, 0, 59, 96
2, 339311, Note_on_c, 0, 75, 0
2, 339312, Note_on_c, 0, 76, 96
2, 339359, Note_on_c, 0, 76, 0
2, 339359, Note_on_c, 0, 59, 0
2, 339360, Note_on_c, 0, 75, 96
2, 339360, Note_on_c, 0, 60, 96
2, 339455, Note_on_c, 0, 60, 0
2, 339456, Note_on_c, 0, 59, 96
2, 339550, Note_on_c, 0, 75, 0
2, 339551, Note_on_c, 0, 59, 0
2, 339552, Note_on_c, 0, 57, 96
2, 339647, Note_on_c, 0, 57, 0
2, 339648, Note_on_c, 0, 71, 96
2, 339648, Note_on_c, 0, 55, 96
2, 339743, Note_on_c, 0, 55, 0
2, 339744, Note_on_c, 0, 54, 96
2, 339839, Note_on_c, 0, 54, 0
2, 339839, Note_on_c, 0, 71, 0
2, 339840, Note_on_c, 0, 79, 96
2, 339840, Note_on_c, 0, 52, 96
2, 339935, Note_on_c, 0, 52, 0
2, 339936, Note_on_c, 0, 59, 96
2, 340031, Note_on_c, 0, 59, 0
2, 340031, Note_on_c, 0, 79, 0
2, 340032, Note_on_c, 0, 78, 96
2, 340032, Note_on_c, 0, 57, 96
2, 340127, Note_on_c, 0, 57, 0
2, 340128, Note_on_c, 0, 55, 96
2, 340223, Note_on_c, 0, 55, 0
2, 340224, Note_on_c, 0, 47, 96
2, 340319, Note_on_c, 0, 47, 0
2, 340320, Note_on_c, 0, 57, 96
2, 340372, Note_on_c, 0, 78, 0
2, 340415, Note_on_c, 0, 57, 0
2, 340416, Note_on_c, 0, 76, 96
2, 340416, Note_on_c, 0, 55, 96
2, 340511, Note_on_c, 0, 55, 0
2, 340511, Note_on_c, 0, 76, 0
2, 340512, Note_on_c, 0, 75, 96
2, 340512, Note_on_c, 0, 54, 96
2, 340607, Note_on_c, 0, 54, 0
2, 340607, Note_on_c, 0, 75, 0
2, 340608, Note_on_c, 0, 76, 96
2, 340608, Note_on_c, 0, 55, 96
2, 340703, Note_on_c, 0, 76, 0
2, 340704, Note_on_c, 0, 79, 96
2, 340799, Note_on_c, 0, 79, 0
2, 340799, Note_on_c, 0, 55, 0
2, 340800, Note_on_c, 0, 78, 96
2, 340800, Note_on_c, 0, 59, 96
2, 340895, Note_on_c, 0, 78, 0
2, 340896, Note_on_c, 0, 76, 96
2, 340991, Note_on_c, 0, 76, 0
2, 340991, Note_on_c, 0, 59, 0
2, 340992, Note_on_c, 0, 74, 96
2, 340992, Note_on_c, 0, 64, 96
2, 341087, Note_on_c, 0, 74, 0
2, 341088, Note_on_c, 0, 73, 96
2, 341152, Note_on_c, 0, 64, 0
2, 341183, Note_on_c, 0, 73, 0
2, 341184, Note_on_c, 0, 71, 96
2, 341184, Note_on_c, 0, 49, 96
2, 341279, Note_on_c, 0, 71, 0
2, 341280, Note_on_c, 0, 69, 96
2, 341375, Note_on_c, 0, 69, 0
2, 341375, Note_on_c, 0, 49, 0
2, 341376, Note_on_c, 0, 78, 96
2, 341376, Note_on_c, 0, 50, 96
2, 341471, Note_on_c, 0, 50, 0
2, 341472, Note_on_c, 0, 57, 96
2, 341567, Note_on_c, 0, 57, 0
2, 341567, Note_on_c, 0, 78, 0
2, 341568, Note_on_c, 0, 76, 96
2, 341568, Note_on_c, 0, 55, 96
2, 341663, Note_on_c, 0, 55, 0
2, 341664, Note_on_c, 0, 54, 96
2, 341759, Note_on_c, 0, 54, 0
2, 341760, Note_on_c, 0, 45, 96
2, 341855, Note_on_c, 0, 45, 0
2, 341856, Note_on_c, 0, 55, 96
2, 341908, Note_on_c, 0, 76, 0
2, 341951, Note_on_c, 0, 55, 0
2, 341952, Note_on_c, 0, 74, 96
2, 341952, Note_on_c, 0, 54, 96
2, 342047, Note_on_c, 0, 54, 0
2, 342047, Note_on_c, 0, 74, 0
2, 342048, Note_on_c, 0, 73, 96
2, 342048, Note_on_c, 0, 52, 96
2, 342143, Note_on_c, 0, 52, 0
2, 342143, Note_on_c, 0, 73, 0
2, 342144, Note_on_c, 0, 74, 96
2, 342144, Note_on_c, 0, 54, 96
2, 342239, Note_on_c, 0, 74, 0
2, 342240, Note_on_c, 0, 78, 96
2, 342335, Note_on_c, 0, 78, 0
2, 342335, Note_on_c, 0, 54, 0
2, 342336, Note_on_c, 0, 76, 96
2, 342336, Note_on_c, 0, 57, 96
2, 342431, Note_on_c, 0, 76, 0
2, 342432, Note_on_c, 0, 74, 96
2, 342527, Note_on_c, 0, 74, 0
2, 342527, Note_on_c, 0, 57, 0
2, 342528, Note_on_c, 0, 73, 96
2, 342528, Note_on_c, 0, 50, 96
2, 342623, Note_on_c, 0, 73, 0
2, 342624, Note_on_c, 0, 71, 96
2, 342719, Note_on_c, 0, 71, 0
2, 342719, Note_on_c, 0, 50, 0
2, 342720, Note_on_c, 0, 70, 96
2, 342720, Note_on_c, 0, 54, 96
2, 342815, Note_on_c, 0, 70, 0
2, 342816, Note_on_c, 0, 71, 96
2, 342890, Note_on_c, 0, 54, 0
2, 342911, Note_on_c, 0, 71, 0
2, 342912, Note_on_c, 0, 76, 96
2, 342912, Note_on_c, 0, 55, 96
2, 343008, Note_on_c, 0, 67, 96
2, 343032, Note_on_c, 0, 55, 0
2, 343103, Note_on_c, 0, 67, 0
2, 343103, Note_on_c, 0, 76, 0
2, 343104, Note_on_c, 0, 74, 96
2, 343104, Note_on_c, 0, 66, 96
2, 343199, Note_on_c, 0, 66, 0
2, 343200, Note_on_c, 0, 64, 96
2, 343295, Note_on_c, 0, 64, 0
2, 343296, Note_on_c, 0, 59, 96
2, 343391, Note_on_c, 0, 59, 0
2, 343392, Note_on_c, 0, 66, 96
2, 343444, Note_on_c, 0, 74, 0
2, 343487, Note_on_c, 0, 66, 0
2, 343488, Note_on_c, 0, 72, 96
2, 343488, Note_on_c, 0, 64, 96
2, 343583, Note_on_c, 0, 64, 0
2, 343583, Note_on_c, 0, 72, 0
2, 343584, Note_on_c, 0, 71, 96
2, 343584, Note_on_c, 0, 62, 96
2, 343679, Note_on_c, 0, 62, 0
2, 343679, Note_on_c, 0, 71, 0
2, 343680, Note_on_c, 0, 72, 96
2, 343680, Note_on_c, 0, 52, 96
2, 343775, Note_on_c, 0, 52, 0
2, 343775, Note_on_c, 0, 72, 0
2, 343776, Note_on_c, 0, 79, 96
2, 343776, Note_on_c, 0, 64, 96
2, 343871, Note_on_c, 0, 64, 0
2, 343871, Note_on_c, 0, 79, 0
2, 343872, Note_on_c, 0, 78, 96
2, 343872, Note_on_c, 0, 62, 96
2, 343967, Note_on_c, 0, 62, 0
2, 343968, Note_on_c, 0, 61, 96
2, 344063, Note_on_c, 0, 61, 0
2, 344064, Note_on_c, 0, 55, 96
2, 344159, Note_on_c, 0, 55, 0
2, 344160, Note_on_c, 0, 62, 96
2, 344222, Note_on_c, 0, 78, 0
2, 344255, Note_on_c, 0, 62, 0
2, 344256, Note_on_c, 0, 77, 96
2, 344256, Note_on_c, 0, 61, 96
2, 344351, Note_on_c, 0, 61, 0
2, 344352, Note_on_c, 0, 59, 96
2, 344447, Note_on_c, 0, 59, 0
2, 344447, Note_on_c, 0, 77, 0
2, 344448, Note_on_c, 0, 78, 96
2, 344448, Note_on_c, 0, 46, 96
2, 344608, Note_on_c, 0, 78, 0
2, 344639, Note_on_c, 0, 46, 0
2, 344640, Note_on_c, 0, 71, 96
2, 344640, Note_on_c, 0, 50, 96
2, 344800, Note_on_c, 0, 71, 0
2, 344831, Note_on_c, 0, 50, 0
2, 344832, Note_on_c, 0, 74, 96
2, 344832, Note_on_c, 0, 52, 96
2, 344927, Note_on_c, 0, 74, 0
2, 344928, Note_on_c, 0, 73, 96
2, 345023, Note_on_c, 0, 73, 0
2, 345023, Note_on_c, 0, 52, 0
2, 345024, Note_on_c, 0, 71, 96
2, 345024, Note_on_c, 0, 54, 96
2, 345119, Note_on_c, 0, 71, 0
2, 345120, Note_on_c, 0, 70, 96
2, 345215, Note_on_c, 0, 70, 0
2, 345215, Note_on_c, 0, 54, 0
2, 345216, Note_on_c, 0, 71, 96
2, 345216, Note_on_c, 0, 59, 96
2, 345311, Note_on_c, 0, 59, 0
2, 345312, Note_on_c, 0, 47, 96
2, 345407, Note_on_c, 0, 47, 0
2, 345408, Note_on_c, 0, 49, 96
2, 345503, Note_on_c, 0, 49, 0
2, 345504, Note_on_c, 0, 50, 96
2, 345596, Note_on_c, 0, 71, 0
2, 345599, Note_on_c, 0, 50, 0
2, 345600, Note_on_c, 0, 52, 96
2, 345695, Note_on_c, 0, 52, 0
2, 345696, Note_on_c, 0, 54, 96
2, 345791, Note_on_c, 0, 54, 0
2, 345792, Note_on_c, 0, 74, 96
2, 345792, Note_on_c, 0, 56, 96
2, 345887, Note_on_c, 0, 56, 0
2, 345888, Note_on_c, 0, 58, 96
2, 345983, Note_on_c, 0, 58, 0
2, 345983, Note_on_c, 0, 74, 0
2, 345984, Note_on_c, 0, 66, 96
2, 345984, Note_on_c, 0, 59, 96
2, 346079, Note_on_c, 0, 59, 0
2, 346079, Note_on_c, 0, 66, 0
2, 346080, Note_on_c, 0, 69, 96
2, 346080, Note_on_c, 0, 57, 96
2, 346175, Note_on_c, 0, 57, 0
2, 346175, Note_on_c, 0, 69, 0
2, 346176, Note_on_c, 0, 67, 96
2, 346176, Note_on_c, 0, 59, 96
2, 346271, Note_on_c, 0, 59, 0
2, 346272, Note_on_c, 0, 62, 96
2, 346367, Note_on_c, 0, 62, 0
2, 346368, Note_on_c, 0, 61, 96
2, 346463, Note_on_c, 0, 61, 0
2, 346464, Note_on_c, 0, 59, 96
2, 346506, Note_on_c, 0, 67, 0
2, 346559, Note_on_c, 0, 59, 0
2, 346560, Note_on_c, 0, 66, 96
2, 346560, Note_on_c, 0, 57, 96
2, 346655, Note_on_c, 0, 57, 0
2, 346655, Note_on_c, 0, 66, 0
2, 346656, Note_on_c, 0, 67, 96
2, 346656, Note_on_c, 0, 55, 96
2, 346751, Note_on_c, 0, 55, 0
2, 346751, Note_on_c, 0, 67, 0
2, 346752, Note_on_c, 0, 69, 96
2, 346752, Note_on_c, 0, 54, 96
2, 346847, Note_on_c, 0, 69, 0
2, 346848, Note_on_c, 0, 67, 96
2, 346943, Note_on_c, 0, 67, 0
2, 346943, Note_on_c, 0, 54, 0
2, 346944, Note_on_c, 0, 66, 96
2, 346944, Note_on_c, 0, 57, 96
2, 347039, Note_on_c, 0, 66, 0
2, 347040, Note_on_c, 0, 64, 96
2, 347135, Note_on_c, 0, 64, 0
2, 347135, Note_on_c, 0, 57, 0
2, 347136, Note_on_c, 0, 62, 96
2, 347136, Note_on_c, 0, 54, 96
2, 347231, Note_on_c, 0, 62, 0
2, 347232, Note_on_c, 0, 72, 96
2, 347322, Note_on_c, 0, 72, 0
2, 347327, Note_on_c, 0, 54, 0
2, 347328, Note_on_c, 0, 71, 96
2, 347328, Note_on_c, 0, 50, 96
2, 347418, Note_on_c, 0, 71, 0
2, 347424, Note_on_c, 0, 69, 96
2, 347514, Note_on_c, 0, 69, 0
2, 347519, Note_on_c, 0, 50, 0
2, 347520, Note_on_c, 0, 71, 96
2, 347520, Note_on_c, 0, 55, 96
2, 347616, Note_on_c, 0, 67, 96
2, 347630, Note_on_c, 0, 71, 0
2, 347706, Note_on_c, 0, 67, 0
2, 347711, Note_on_c, 0, 55, 0
2, 347712, Note_on_c, 0, 66, 96
2, 347712, Note_on_c, 0, 45, 96
2, 347802, Note_on_c, 0, 66, 0
2, 347808, Note_on_c, 0, 64, 96
2, 347898, Note_on_c, 0, 64, 0
2, 347903, Note_on_c, 0, 45, 0
2, 347904, Note_on_c, 0, 63, 96
2, 347904, Note_on_c, 0, 47, 96
2, 348000, Note_on_c, 0, 69, 96
2, 348006, Note_on_c, 0, 63, 0
2, 348090, Note_on_c, 0, 69, 0
2, 348095, Note_on_c, 0, 47, 0
2, 348096, Note_on_c, 0, 67, 96
2, 348096, Note_on_c, 0, 51, 96
2, 348186, Note_on_c, 0, 67, 0
2, 348192, Note_on_c, 0, 66, 96
2, 348282, Note_on_c, 0, 66, 0
2, 348287, Note_on_c, 0, 51, 0
2, 348288, Note_on_c, 0, 67, 96
2, 348288, Note_on_c, 0, 52, 96
2, 348383, Note_on_c, 0, 67, 0
2, 348384, Note_on_c, 0, 66, 96
2, 348479, Note_on_c, 0, 66, 0
2, 348479, Note_on_c, 0, 52, 0
2, 348480, Note_on_c, 0, 64, 96
2, 348480, Note_on_c, 0, 43, 96
2, 348575, Note_on_c, 0, 64, 0
2, 348576, Note_on_c, 0, 62, 96
2, 348671, Note_on_c, 0, 62, 0
2, 348671, Note_on_c, 0, 43, 0
2, 348672, Note_on_c, 0, 61, 96
2, 348672, Note_on_c, 0, 45, 96
2, 348767, Note_on_c, 0, 61, 0
2, 348768, Note_on_c, 0, 67, 96
2, 348863, Note_on_c, 0, 67, 0
2, 348863, Note_on_c, 0, 45, 0
2, 348864, Note_on_c, 0, 66, 96
2, 348864, Note_on_c, 0, 49, 96
2, 348959, Note_on_c, 0, 66, 0
2, 348960, Note_on_c, 0, 64, 96
2, 349055, Note_on_c, 0, 64, 0
2, 349055, Note_on_c, 0, 49, 0
2, 349056, Note_on_c, 0, 66, 96
2, 349056, Note_on_c, 0, 50, 96
2, 349151, Note_on_c, 0, 66, 0
2, 349152, Note_on_c, 0, 62, 96
2, 349247, Note_on_c, 0, 62, 0
2, 349247, Note_on_c, 0, 50, 0
2, 349248, Note_on_c, 0, 61, 96
2, 349248, Note_on_c, 0, 42, 96
2, 349343, Note_on_c, 0, 61, 0
2, 349344, Note_on_c, 0, 59, 96
2, 349439, Note_on_c, 0, 59, 0
2, 349439, Note_on_c, 0, 42, 0
2, 349440, Note_on_c, 0, 58, 96
2, 349440, Note_on_c, 0, 43, 96
2, 349535, Note_on_c, 0, 58, 0
2, 349536, Note_on_c, 0, 64, 96
2, 349631, Note_on_c, 0, 64, 0
2, 349631, Note_on_c, 0, 43, 0
2, 349632, Note_on_c, 0, 62, 96
2, 349632, Note_on_c, 0, 46, 96
2, 349727, Note_on_c, 0, 62, 0
2, 349728, Note_on_c, 0, 61, 96
2, 349823, Note_on_c, 0, 61, 0
2, 349823, Note_on_c, 0, 46, 0
2, 349824, Note_on_c, 0, 62, 96
2, 349824, Note_on_c, 0, 47, 96
2, 349919, Note_on_c, 0, 47, 0
2, 349919, Note_on_c, 0, 62, 0
2, 349920, Note_on_c, 0, 66, 96
2, 349920, Note_on_c, 0, 50, 96
2, 350015, Note_on_c, 0, 50, 0
2, 350015, Note_on_c, 0, 66, 0
2, 350016, Note_on_c, 0, 64, 96
2, 350016, Note_on_c, 0, 49, 96
2, 350111, Note_on_c, 0, 49, 0
2, 350111, Note_on_c, 0, 64, 0
2, 350112, Note_on_c, 0, 62, 96
2, 350112, Note_on_c, 0, 47, 96
2, 350207, Note_on_c, 0, 47, 0
2, 350207, Note_on_c, 0, 62, 0
2, 350208, Note_on_c, 0, 64, 96
2, 350208, Note_on_c, 0, 49, 96
2, 350303, Note_on_c, 0, 49, 0
2, 350303, Note_on_c, 0, 64, 0
2, 350304, Note_on_c, 0, 66, 96
2, 350304, Note_on_c, 0, 50, 96
2, 350399, Note_on_c, 0, 50, 0
2, 350399, Note_on_c, 0, 66, 0
2, 350400, Note_on_c, 0, 67, 96
2, 350400, Note_on_c, 0, 52, 96
2, 350495, Note_on_c, 0, 52, 0
2, 350495, Note_on_c, 0, 67, 0
2, 350496, Note_on_c, 0, 69, 96
2, 350496, Note_on_c, 0, 54, 96
2, 350591, Note_on_c, 0, 54, 0
2, 350591, Note_on_c, 0, 69, 0
2, 350592, Note_on_c, 0, 71, 96
2, 350592, Note_on_c, 0, 55, 96
2, 350687, Note_on_c, 0, 71, 0
2, 350688, Note_on_c, 0, 67, 96
2, 350783, Note_on_c, 0, 67, 0
2, 350783, Note_on_c, 0, 55, 0
2, 350784, Note_on_c, 0, 69, 96
2, 350784, Note_on_c, 0, 54, 96
2, 350879, Note_on_c, 0, 54, 0
2, 350879, Note_on_c, 0, 69, 0
2, 350880, Note_on_c, 0, 74, 96
2, 350880, Note_on_c, 0, 52, 96
2, 350975, Note_on_c, 0, 52, 0
2, 350975, Note_on_c, 0, 74, 0
2, 350976, Note_on_c, 0, 73, 96
2, 350976, Note_on_c, 0, 54, 96
2, 351071, Note_on_c, 0, 73, 0
2, 351072, Note_on_c, 0, 71, 96
2, 351167, Note_on_c, 0, 71, 0
2, 351167, Note_on_c, 0, 54, 0
2, 351168, Note_on_c, 0, 69, 96
2, 351168, Note_on_c, 0, 55, 96
2, 351263, Note_on_c, 0, 69, 0
2, 351264, Note_on_c, 0, 67, 96
2, 351359, Note_on_c, 0, 55, 0
2, 351360, Note_on_c, 0, 57, 96
2, 351407, Note_on_c, 0, 67, 0
2, 351408, Note_on_c, 0, 66, 96
2, 351455, Note_on_c, 0, 66, 0
2, 351456, Note_on_c, 0, 67, 96
2, 351503, Note_on_c, 0, 67, 0
2, 351504, Note_on_c, 0, 66, 96
2, 351551, Note_on_c, 0, 66, 0
2, 351551, Note_on_c, 0, 57, 0
2, 351552, Note_on_c, 0, 64, 96
2, 351552, Note_on_c, 0, 55, 96
2, 351647, Note_on_c, 0, 55, 0
2, 351648, Note_on_c, 0, 54, 96
2, 351742, Note_on_c, 0, 64, 0
2, 351743, Note_on_c, 0, 54, 0
2, 351744, Note_on_c, 0, 52, 96
2, 351839, Note_on_c, 0, 52, 0
2, 351840, Note_on_c, 0, 50, 96
2, 351935, Note_on_c, 0, 50, 0
2, 351936, Note_on_c, 0, 76, 96
2, 351936, Note_on_c, 0, 49, 96
2, 352031, Note_on_c, 0, 49, 0
2, 352032, Note_on_c, 0, 47, 96
2, 352127, Note_on_c, 0, 47, 0
2, 352127, Note_on_c, 0, 76, 0
2, 352128, Note_on_c, 0, 77, 96
2, 352128, Note_on_c, 0, 45, 96
2, 352223, Note_on_c, 0, 77, 0
2, 352224, Note_on_c, 0, 80, 96
2, 352319, Note_on_c, 0, 80, 0
2, 352319, Note_on_c, 0, 45, 0
2, 352320, Note_on_c, 0, 81, 96
2, 352320, Note_on_c, 0, 62, 96
2, 352320, Note_on_c, 0, 65, 96
2, 352495, Note_on_c, 0, 65, 0
2, 352495, Note_on_c, 0, 62, 0
2, 352512, Note_on_c, 0, 64, 96
2, 352512, Note_on_c, 0, 61, 96
2, 352607, Note_on_c, 0, 81, 0
2, 352608, Note_on_c, 0, 76, 96
2, 352687, Note_on_c, 0, 61, 0
2, 352687, Note_on_c, 0, 64, 0
2, 352703, Note_on_c, 0, 76, 0
2, 352704, Note_on_c, 0, 77, 96
2, 352704, Note_on_c, 0, 59, 96
2, 352704, Note_on_c, 0, 62, 96
2, 352799, Note_on_c, 0, 77, 0
2, 352800, Note_on_c, 0, 74, 96
2, 352879, Note_on_c, 0, 62, 0
2, 352879, Note_on_c, 0, 59, 0
2, 352895, Note_on_c, 0, 74, 0
2, 352896, Note_on_c, 0, 76, 96
2, 352896, Note_on_c, 0, 45, 96
2, 352991, Note_on_c, 0, 76, 0
2, 352992, Note_on_c, 0, 74, 96
2, 353087, Note_on_c, 0, 74, 0
2, 353087, Note_on_c, 0, 45, 0
2, 353088, Note_on_c, 0, 73, 96
2, 353088, Note_on_c, 0, 67, 96
2, 353088, Note_on_c, 0, 64, 96
2, 353183, Note_on_c, 0, 73, 0
2, 353184, Note_on_c, 0, 71, 96
2, 353273, Note_on_c, 0, 64, 0
2, 353273, Note_on_c, 0, 67, 0
2, 353279, Note_on_c, 0, 71, 0
2, 353280, Note_on_c, 0, 69, 96
2, 353280, Note_on_c, 0, 64, 96
2, 353280, Note_on_c, 0, 61, 96
2, 353375, Note_on_c, 0, 69, 0
2, 353376, Note_on_c, 0, 67, 96
2, 353465, Note_on_c, 0, 61, 0
2, 353465, Note_on_c, 0, 64, 0
2, 353471, Note_on_c, 0, 67, 0
2, 353472, Note_on_c, 0, 65, 96
2, 353472, Note_on_c, 0, 57, 96
2, 353472, Note_on_c, 0, 61, 96
2, 353567, Note_on_c, 0, 65, 0
2, 353568, Note_on_c, 0, 64, 96
2, 353657, Note_on_c, 0, 61, 0
2, 353657, Note_on_c, 0, 57, 0
2, 353663, Note_on_c, 0, 64, 0
2, 353664, Note_on_c, 0, 65, 96
2, 353664, Note_on_c, 0, 45, 96
2, 353759, Note_on_c, 0, 65, 0
2, 353760, Note_on_c, 0, 68, 96
2, 353855, Note_on_c, 0, 68, 0
2, 353855, Note_on_c, 0, 45, 0
2, 353856, Note_on_c, 0, 69, 96
2, 353856, Note_on_c, 0, 53, 96
2, 353856, Note_on_c, 0, 62, 96
2, 354041, Note_on_c, 0, 62, 0
2, 354041, Note_on_c, 0, 53, 0
2, 354048, Note_on_c, 0, 61, 96
2, 354048, Note_on_c, 0, 52, 96
2, 354143, Note_on_c, 0, 69, 0
2, 354144, Note_on_c, 0, 64, 96
2, 354233, Note_on_c, 0, 52, 0
2, 354233, Note_on_c, 0, 61, 0
2, 354239, Note_on_c, 0, 64, 0
2, 354240, Note_on_c, 0, 65, 96
2, 354240, Note_on_c, 0, 59, 96
2, 354240, Note_on_c, 0, 50, 96
2, 354335, Note_on_c, 0, 65, 0
2, 354336, Note_on_c, 0, 62, 96
2, 354425, Note_on_c, 0, 50, 0
2, 354425, Note_on_c, 0, 59, 0
2, 354431, Note_on_c, 0, 62, 0
2, 354432, Note_on_c, 0, 64, 96
2, 354432, Note_on_c, 0, 45, 96
2, 354527, Note_on_c, 0, 64, 0
2, 354528, Note_on_c, 0, 62, 96
2, 354623, Note_on_c, 0, 62, 0
2, 354623, Note_on_c, 0, 45, 0
2, 354624, Note_on_c, 0, 61, 96
2, 354624, Note_on_c, 0, 52, 96
2, 354624, Note_on_c, 0, 55, 96
2, 354719, Note_on_c, 0, 61, 0
2, 354720, Note_on_c, 0, 59, 96
2, 354809, Note_on_c, 0, 55, 0
2, 354809, Note_on_c, 0, 52, 0
2, 354815, Note_on_c, 0, 59, 0
2, 354816, Note_on_c, 0, 57, 96
2, 354816, Note_on_c, 0, 52, 96
2, 354816, Note_on_c, 0, 49, 96
2, 354911, Note_on_c, 0, 57, 0
2, 354912, Note_on_c, 0, 55, 96
2, 355001, Note_on_c, 0, 49, 0
2, 355001, Note_on_c, 0, 52, 0
2, 355007, Note_on_c, 0, 55, 0
2, 355008, Note_on_c, 0, 54, 96
2, 355008, Note_on_c, 0, 49, 96
2, 355008, Note_on_c, 0, 45, 96
2, 355103, Note_on_c, 0, 54, 0
2, 355104, Note_on_c, 0, 52, 96
2, 355193, Note_on_c, 0, 45, 0
2, 355193, Note_on_c, 0, 49, 0
2, 355199, Note_on_c, 0, 52, 0
2, 355200, Note_on_c, 0, 50, 96
2, 355200, Note_on_c, 0, 38, 96
2, 355296, Note_on_c, 0, 66, 96
2, 355390, Note_on_c, 0, 38, 0
2, 355390, Note_on_c, 0, 50, 0
2, 355391, Note_on_c, 0, 66, 0
2, 355392, Note_on_c, 0, 64, 96
2, 355584, Note_on_c, 0, 46, 96
2, 355584, Note_on_c, 0, 49, 96
2, 355584, Note_on_c, 0, 42, 96
2, 355752, Note_on_c, 0, 64, 0
2, 355774, Note_on_c, 0, 46, 0
2, 355774, Note_on_c, 0, 49, 0
2, 355774, Note_on_c, 0, 42, 0
2, 355776, Note_on_c, 0, 62, 96
2, 355871, Note_on_c, 0, 62, 0
2, 355872, Note_on_c, 0, 61, 96
2, 355967, Note_on_c, 0, 61, 0
2, 355968, Note_on_c, 0, 62, 96
2, 355968, Note_on_c, 0, 47, 96
2, 356063, Note_on_c, 0, 62, 0
2, 356064, Note_on_c, 0, 66, 96
2, 356159, Note_on_c, 0, 66, 0
2, 356159, Note_on_c, 0, 47, 0
2, 356160, Note_on_c, 0, 64, 96
2, 356160, Note_on_c, 0, 54, 96
2, 356255, Note_on_c, 0, 64, 0
2, 356256, Note_on_c, 0, 62, 96
2, 356351, Note_on_c, 0, 62, 0
2, 356351, Note_on_c, 0, 54, 0
2, 356352, Note_on_c, 0, 64, 96
2, 356352, Note_on_c, 0, 59, 96
2, 356447, Note_on_c, 0, 64, 0
2, 356448, Note_on_c, 0, 66, 96
2, 356543, Note_on_c, 0, 66, 0
2, 356543, Note_on_c, 0, 59, 0
2, 356544, Note_on_c, 0, 67, 96
2, 356544, Note_on_c, 0, 57, 96
2, 356639, Note_on_c, 0, 67, 0
2, 356640, Note_on_c, 0, 69, 96
2, 356735, Note_on_c, 0, 69, 0
2, 356735, Note_on_c, 0, 57, 0
2, 356736, Note_on_c, 0, 71, 96
2, 356736, Note_on_c, 0, 55, 96
2, 356831, Note_on_c, 0, 71, 0
2, 356832, Note_on_c, 0, 69, 96
2, 356927, Note_on_c, 0, 69, 0
2, 356927, Note_on_c, 0, 55, 0
2, 356928, Note_on_c, 0, 72, 96
2, 356928, Note_on_c, 0, 64, 96
2, 357023, Note_on_c, 0, 72, 0
2, 357024, Note_on_c, 0, 71, 96
2, 357119, Note_on_c, 0, 71, 0
2, 357119, Note_on_c, 0, 64, 0
2, 357120, Note_on_c, 0, 69, 96
2, 357120, Note_on_c, 0, 54, 96
2, 357215, Note_on_c, 0, 69, 0
2, 357216, Note_on_c, 0, 78, 96
2, 357311, Note_on_c, 0, 78, 0
2, 357311, Note_on_c, 0, 54, 0
2, 357312, Note_on_c, 0, 71, 96
2, 357312, Note_on_c, 0, 63, 96
2, 357407, Note_on_c, 0, 71, 0
2, 357408, Note_on_c, 0, 69, 96
2, 357503, Note_on_c, 0, 69, 0
2, 357503, Note_on_c, 0, 63, 0
2, 357504, Note_on_c, 0, 67, 96
2, 357504, Note_on_c, 0, 52, 96
2, 357599, Note_on_c, 0, 67, 0
2, 357600, Note_on_c, 0, 71, 96
2, 357695, Note_on_c, 0, 71, 0
2, 357695, Note_on_c, 0, 52, 0
2, 357696, Note_on_c, 0, 69, 96
2, 357696, Note_on_c, 0, 55, 96
2, 357791, Note_on_c, 0, 69, 0
2, 357792, Note_on_c, 0, 67, 96
2, 357887, Note_on_c, 0, 67, 0
2, 357887, Note_on_c, 0, 55, 0
2, 357888, Note_on_c, 0, 69, 96
2, 357888, Note_on_c, 0, 64, 96
2, 357983, Note_on_c, 0, 69, 0
2, 357984, Note_on_c, 0, 71, 96
2, 358063, Note_on_c, 0, 64, 0
2, 358079, Note_on_c, 0, 71, 0
2, 358080, Note_on_c, 0, 73, 96
2, 358080, Note_on_c, 0, 62, 96
2, 358175, Note_on_c, 0, 73, 0
2, 358176, Note_on_c, 0, 74, 96
2, 358255, Note_on_c, 0, 62, 0
2, 358271, Note_on_c, 0, 74, 0
2, 358272, Note_on_c, 0, 76, 96
2, 358272, Note_on_c, 0, 61, 96
2, 358367, Note_on_c, 0, 76, 0
2, 358368, Note_on_c, 0, 74, 96
2, 358463, Note_on_c, 0, 74, 0
2, 358463, Note_on_c, 0, 61, 0
2, 358464, Note_on_c, 0, 77, 96
2, 358464, Note_on_c, 0, 69, 96
2, 358559, Note_on_c, 0, 77, 0
2, 358560, Note_on_c, 0, 76, 96
2, 358655, Note_on_c, 0, 76, 0
2, 358655, Note_on_c, 0, 69, 0
2, 358656, Note_on_c, 0, 74, 96
2, 358656, Note_on_c, 0, 59, 96
2, 358751, Note_on_c, 0, 74, 0
2, 358752, Note_on_c, 0, 83, 96
2, 358847, Note_on_c, 0, 83, 0
2, 358847, Note_on_c, 0, 59, 0
2, 358848, Note_on_c, 0, 76, 96
2, 358848, Note_on_c, 0, 68, 96
2, 358943, Note_on_c, 0, 76, 0
2, 358944, Note_on_c, 0, 74, 96
2, 359039, Note_on_c, 0, 74, 0
2, 359039, Note_on_c, 0, 68, 0
2, 359040, Note_on_c, 0, 73, 96
2, 359040, Note_on_c, 0, 57, 96
2, 359135, Note_on_c, 0, 73, 0
2, 359136, Note_on_c, 0, 76, 96
2, 359231, Note_on_c, 0, 76, 0
2, 359231, Note_on_c, 0, 57, 0
2, 359232, Note_on_c, 0, 74, 96
2, 359232, Note_on_c, 0, 64, 96
2, 359327, Note_on_c, 0, 74, 0
2, 359328, Note_on_c, 0, 73, 96
2, 359423, Note_on_c, 0, 73, 0
2, 359423, Note_on_c, 0, 64, 0
2, 359424, Note_on_c, 0, 74, 96
2, 359424, Note_on_c, 0, 69, 96
2, 359519, Note_on_c, 0, 74, 0
2, 359520, Note_on_c, 0, 76, 96
2, 359615, Note_on_c, 0, 76, 0
2, 359615, Note_on_c, 0, 69, 0
2, 359616, Note_on_c, 0, 78, 96
2, 359616, Note_on_c, 0, 67, 96
2, 359711, Note_on_c, 0, 78, 0
2, 359712, Note_on_c, 0, 79, 96
2, 359807, Note_on_c, 0, 79, 0
2, 359807, Note_on_c, 0, 67, 0
2, 359808, Note_on_c, 0, 81, 96
2, 359808, Note_on_c, 0, 66, 96
2, 359978, Note_on_c, 0, 66, 0
2, 359999, Note_on_c, 0, 81, 0
2, 360016, Note_on_c, 0, 42, 96
2, 360016, Note_on_c, 0, 74, 96
2, 360016, Note_on_c, 0, 69, 96
2, 360201, Note_on_c, 0, 69, 0
2, 360201, Note_on_c, 0, 74, 0
2, 360201, Note_on_c, 0, 42, 0
2, 360224, Note_on_c, 0, 67, 96
2, 360224, Note_on_c, 0, 71, 96
2, 360224, Note_on_c, 0, 76, 96
2, 360224, Note_on_c, 0, 43, 96
2, 360409, Note_on_c, 0, 43, 0
2, 360409, Note_on_c, 0, 67, 0
2, 360409, Note_on_c, 0, 71, 0
2, 360409, Note_on_c, 0, 76, 0
2, 360452, Note_on_c, 0, 73, 96
2, 360452, Note_on_c, 0, 69, 96
2, 360452, Note_on_c, 0, 64, 96
2, 360452, Note_on_c, 0, 45, 96
2, 360642, Note_on_c, 0, 45, 0
2, 360642, Note_on_c, 0, 73, 0
2, 360642, Note_on_c, 0, 69, 0
2, 360642, Note_on_c, 0, 64, 0
2, 360736, Note_on_c, 0, 69, 96
2, 360736, Note_on_c, 0, 66, 96
2, 360736, Note_on_c, 0, 74, 96
2, 360736, Note_on_c, 0, 38, 96
2, 361502, Note_on_c, 0, 38, 0
2, 361502, Note_on_c, 0, 69, 0
2, 361502, Note_on_c, 0, 66, 0
2, 361502, Note_on_c, 0, 74, 0
2, 364416, Note_on_c, 0, 62, 96
2, 364416, Note_on_c, 0, 69, 96
2, 364416, Note_on_c, 0, 78, 96
2, 364479, Note_on_c, 0, 78, 0
2, 364480, Note_on_c, 0, 76, 96
2, 364543, Note_on_c, 0, 76, 0
2, 364544, Note_on_c, 0, 74, 96
2, 365183, Note_on_c, 0, 74, 0
2, 365183, Note_on_c, 0, 69, 0
2, 365183, Note_on_c, 0, 62, 0
2, 365184, Note_on_c, 0, 67, 96
2, 365184, Note_on_c, 0, 64, 96
2, 365184, Note_on_c, 0, 74, 96
2, 365951, Note_on_c, 0, 74, 0
2, 365952, Note_on_c, 0, 73, 96
2, 366047, Note_on_c, 0, 73, 0
2, 366048, Note_on_c, 0, 74, 96
2, 366143, Note_on_c, 0, 74, 0
2, 366144, Note_on_c, 0, 73, 96
2, 366239, Note_on_c, 0, 73, 0
2, 366240, Note_on_c, 0, 74, 96
2, 366335, Note_on_c, 0, 74, 0
2, 366336, Note_on_c, 0, 73, 96
2, 366527, Note_on_c, 0, 73, 0
2, 366528, Note_on_c, 0, 74, 96
2, 366718, Note_on_c, 0, 74, 0
2, 366719, Note_on_c, 0, 64, 0
2, 366719, Note_on_c, 0, 67, 0
2, 366720, Note_on_c, 0, 66, 96
2, 366911, Note_on_c, 0, 66, 0
2, 366912, Note_on_c, 0, 67, 96
2, 367103, Note_on_c, 0, 67, 0
2, 367104, Note_on_c, 0, 69, 96
2, 367285, Note_on_c, 0, 69, 0
2, 367286, Note_on_c, 0, 71, 96
2, 367387, Note_on_c, 0, 72, 96
2, 367390, Note_on_c, 0, 71, 0
2, 367487, Note_on_c, 0, 72, 0
2, 367488, Note_on_c, 0, 81, 96
2, 368638, Note_on_c, 0, 81, 0
2, 369024, Note_on_c, 0, 67, 96
2, 369024, Note_on_c, 0, 71, 96
2, 369215, Note_on_c, 0, 71, 0
2, 369216, Note_on_c, 0, 69, 96
2, 369407, Note_on_c, 0, 69, 0
2, 369407, Note_on_c, 0, 67, 0
2, 369408, Note_on_c, 0, 66, 96
2, 369408, Note_on_c, 0, 71, 96
2, 369599, Note_on_c, 0, 71, 0
2, 369600, Note_on_c, 0, 74, 96
2, 369791, Note_on_c, 0, 66, 0
2, 369792, Note_on_c, 0, 64, 96
2, 369880, Note_on_c, 0, 74, 0
2, 369984, Note_on_c, 0, 73, 96
2, 370175, Note_on_c, 0, 73, 0
2, 370175, Note_on_c, 0, 64, 0
2, 370176, Note_on_c, 0, 67, 96
2, 370176, Note_on_c, 0, 76, 96
2, 370367, Note_on_c, 0, 76, 0
2, 370368, Note_on_c, 0, 74, 96
2, 370559, Note_on_c, 0, 74, 0
2, 370559, Note_on_c, 0, 67, 0
2, 370560, Note_on_c, 0, 57, 96
2, 370560, Note_on_c, 0, 73, 96
2, 370751, Note_on_c, 0, 73, 0
2, 370752, Note_on_c, 0, 71, 96
2, 370943, Note_on_c, 0, 71, 0
2, 370943, Note_on_c, 0, 57, 0
2, 370944, Note_on_c, 0, 61, 96
2, 370944, Note_on_c, 0, 69, 96
2, 371135, Note_on_c, 0, 69, 0
2, 371136, Note_on_c, 0, 67, 96
2, 371327, Note_on_c, 0, 67, 0
2, 371327, Note_on_c, 0, 61, 0
2, 371328, Note_on_c, 0, 62, 96
2, 371328, Note_on_c, 0, 66, 96
2, 371519, Note_on_c, 0, 66, 0
2, 371520, Note_on_c, 0, 69, 96
2, 371711, Note_on_c, 0, 69, 0
2, 371711, Note_on_c, 0, 62, 0
2, 371712, Note_on_c, 0, 57, 96
2, 371712, Note_on_c, 0, 67, 96
2, 371903, Note_on_c, 0, 67, 0
2, 371904, Note_on_c, 0, 66, 96
2, 372095, Note_on_c, 0, 66, 0
2, 372095, Note_on_c, 0, 57, 0
2, 372096, Note_on_c, 0, 50, 96
2, 372096, Note_on_c, 0, 67, 96
2, 372287, Note_on_c, 0, 67, 0
2, 372288, Note_on_c, 0, 66, 96
2, 372479, Note_on_c, 0, 66, 0
2, 372479, Note_on_c, 0, 50, 0
2, 372480, Note_on_c, 0, 45, 96
2, 372480, Note_on_c, 0, 64, 96
2, 372671, Note_on_c, 0, 64, 0
2, 372672, Note_on_c, 0, 66, 96
2, 372863, Note_on_c, 0, 66, 0
2, 372863, Note_on_c, 0, 45, 0
2, 372864, Note_on_c, 0, 42, 96
2, 372864, Note_on_c, 0, 64, 96
2, 373073, Note_on_c, 0, 64, 0
2, 373074, Note_on_c, 0, 62, 96
2, 373247, Note_on_c, 0, 42, 0
2, 373248, Note_on_c, 0, 45, 96
2, 373354, Note_on_c, 0, 62, 0
2, 373440, Note_on_c, 0, 64, 96
2, 373631, Note_on_c, 0, 64, 0
2, 373631, Note_on_c, 0, 45, 0
2, 373632, Note_on_c, 0, 38, 96
2, 373632, Note_on_c, 0, 66, 96
2, 373727, Note_on_c, 0, 66, 0
2, 373728, Note_on_c, 0, 68, 96
2, 373823, Note_on_c, 0, 68, 0
2, 373824, Note_on_c, 0, 69, 96
2, 374015, Note_on_c, 0, 38, 0
2, 374016, Note_on_c, 0, 62, 96
2, 374184, Note_on_c, 0, 69, 0
2, 374207, Note_on_c, 0, 62, 0
2, 374208, Note_on_c, 0, 59, 96
2, 374208, Note_on_c, 0, 68, 96
2, 374399, Note_on_c, 0, 68, 0
2, 374399, Note_on_c, 0, 59, 0
2, 374400, Note_on_c, 0, 61, 96
2, 374400, Note_on_c, 0, 69, 96
2, 374591, Note_on_c, 0, 69, 0
2, 374592, Note_on_c, 0, 64, 96
2, 374687, Note_on_c, 0, 64, 0
2, 374688, Note_on_c, 0, 62, 96
2, 374783, Note_on_c, 0, 62, 0
2, 374783, Note_on_c, 0, 61, 0
2, 374784, Note_on_c, 0, 57, 96
2, 374784, Note_on_c, 0, 64, 96
2, 374975, Note_on_c, 0, 64, 0
2, 374976, Note_on_c, 0, 73, 96
2, 375167, Note_on_c, 0, 57, 0
2, 375168, Note_on_c, 0, 59, 96
2, 375336, Note_on_c, 0, 73, 0
2, 375360, Note_on_c, 0, 74, 96
2, 375551, Note_on_c, 0, 74, 0
2, 375551, Note_on_c, 0, 59, 0
2, 375552, Note_on_c, 0, 56, 96
2, 375552, Note_on_c, 0, 64, 96
2, 375743, Note_on_c, 0, 64, 0
2, 375744, Note_on_c, 0, 71, 96
2, 375935, Note_on_c, 0, 71, 0
2, 375935, Note_on_c, 0, 56, 0
2, 375936, Note_on_c, 0, 45, 96
2, 375936, Note_on_c, 0, 73, 96
2, 376031, Note_on_c, 0, 73, 0
2, 376032, Note_on_c, 0, 75, 96
2, 376127, Note_on_c, 0, 75, 0
2, 376128, Note_on_c, 0, 76, 96
2, 376319, Note_on_c, 0, 45, 0
2, 376320, Note_on_c, 0, 57, 96
2, 376468, Note_on_c, 0, 76, 0
2, 376511, Note_on_c, 0, 57, 0
2, 376512, Note_on_c, 0, 54, 96
2, 376512, Note_on_c, 0, 75, 96
2, 376703, Note_on_c, 0, 75, 0
2, 376703, Note_on_c, 0, 54, 0
2, 376704, Note_on_c, 0, 56, 96
2, 376704, Note_on_c, 0, 76, 96
2, 376895, Note_on_c, 0, 76, 0
2, 376896, Note_on_c, 0, 71, 96
2, 376991, Note_on_c, 0, 71, 0
2, 376992, Note_on_c, 0, 69, 96
2, 377087, Note_on_c, 0, 69, 0
2, 377087, Note_on_c, 0, 56, 0
2, 377088, Note_on_c, 0, 52, 96
2, 377088, Note_on_c, 0, 71, 96
2, 377279, Note_on_c, 0, 71, 0
2, 377280, Note_on_c, 0, 80, 96
2, 377471, Note_on_c, 0, 52, 0
2, 377472, Note_on_c, 0, 54, 96
2, 377600, Note_on_c, 0, 80, 0
2, 377664, Note_on_c, 0, 81, 96
2, 377855, Note_on_c, 0, 81, 0
2, 377855, Note_on_c, 0, 54, 0
2, 377856, Note_on_c, 0, 51, 96
2, 377856, Note_on_c, 0, 71, 96
2, 378047, Note_on_c, 0, 71, 0
2, 378048, Note_on_c, 0, 78, 96
2, 378239, Note_on_c, 0, 78, 0
2, 378239, Note_on_c, 0, 51, 0
2, 378240, Note_on_c, 0, 40, 96
2, 378240, Note_on_c, 0, 80, 96
2, 378335, Note_on_c, 0, 80, 0
2, 378336, Note_on_c, 0, 81, 96
2, 378431, Note_on_c, 0, 81, 0
2, 378432, Note_on_c, 0, 83, 96
2, 378623, Note_on_c, 0, 40, 0
2, 378624, Note_on_c, 0, 50, 96
2, 378800, Note_on_c, 0, 83, 0
2, 378815, Note_on_c, 0, 50, 0
2, 378816, Note_on_c, 0, 47, 96
2, 378816, Note_on_c, 0, 81, 96
2, 378911, Note_on_c, 0, 81, 0
2, 378912, Note_on_c, 0, 80, 96
2, 379007, Note_on_c, 0, 80, 0
2, 379007, Note_on_c, 0, 47, 0
2, 379008, Note_on_c, 0, 49, 96
2, 379008, Note_on_c, 0, 78, 96
2, 379119, Note_on_c, 0, 78, 0
2, 379120, Note_on_c, 0, 76, 96
2, 379219, Note_on_c, 0, 76, 0
2, 379220, Note_on_c, 0, 81, 96
2, 379391, Note_on_c, 0, 49, 0
2, 379392, Note_on_c, 0, 45, 96
2, 379440, Note_on_c, 0, 81, 0
2, 379488, Note_on_c, 0, 80, 96
2, 379583, Note_on_c, 0, 80, 0
2, 379584, Note_on_c, 0, 78, 96
2, 379679, Note_on_c, 0, 78, 0
2, 379680, Note_on_c, 0, 76, 96
2, 379775, Note_on_c, 0, 76, 0
2, 379775, Note_on_c, 0, 45, 0
2, 379776, Note_on_c, 0, 42, 96
2, 379776, Note_on_c, 0, 75, 96
2, 379881, Note_on_c, 0, 75, 0
2, 379882, Note_on_c, 0, 76, 96
2, 379987, Note_on_c, 0, 76, 0
2, 379988, Note_on_c, 0, 78, 96
2, 380159, Note_on_c, 0, 42, 0
2, 380160, Note_on_c, 0, 51, 96
2, 380318, Note_on_c, 0, 78, 0
2, 380352, Note_on_c, 0, 69, 96
2, 380543, Note_on_c, 0, 69, 0
2, 380543, Note_on_c, 0, 51, 0
2, 380544, Note_on_c, 0, 52, 96
2, 380544, Note_on_c, 0, 68, 96
2, 380645, Note_on_c, 0, 68, 0
2, 380646, Note_on_c, 0, 66, 96
2, 380747, Note_on_c, 0, 66, 0
2, 380748, Note_on_c, 0, 64, 96
2, 380924, Note_on_c, 0, 64, 0
2, 380927, Note_on_c, 0, 52, 0
2, 380928, Note_on_c, 0, 40, 96
2, 380928, Note_on_c, 0, 74, 96
2, 381119, Note_on_c, 0, 74, 0
2, 381120, Note_on_c, 0, 71, 96
2, 381311, Note_on_c, 0, 71, 0
2, 381312, Note_on_c, 0, 68, 96
2, 381503, Note_on_c, 0, 68, 0
2, 381504, Note_on_c, 0, 64, 96
2, 381695, Note_on_c, 0, 64, 0
2, 381695, Note_on_c, 0, 40, 0
2, 381696, Note_on_c, 0, 59, 96
2, 381887, Note_on_c, 0, 59, 0
2, 381888, Note_on_c, 0, 56, 96
2, 382079, Note_on_c, 0, 56, 0
2, 382080, Note_on_c, 0, 52, 96
2, 382271, Note_on_c, 0, 52, 0
2, 382272, Note_on_c, 0, 54, 96
2, 382367, Note_on_c, 0, 54, 0
2, 382368, Note_on_c, 0, 56, 96
2, 382463, Note_on_c, 0, 56, 0
2, 382464, Note_on_c, 0, 57, 96
2, 382559, Note_on_c, 0, 57, 0
2, 382560, Note_on_c, 0, 59, 96
2, 382655, Note_on_c, 0, 59, 0
2, 382656, Note_on_c, 0, 61, 96
2, 382751, Note_on_c, 0, 61, 0
2, 382752, Note_on_c, 0, 62, 96
2, 382847, Note_on_c, 0, 62, 0
2, 382848, Note_on_c, 0, 57, 96
2, 382848, Note_on_c, 0, 61, 96
2, 382943, Note_on_c, 0, 61, 0
2, 382944, Note_on_c, 0, 64, 96
2, 383039, Note_on_c, 0, 64, 0
2, 383040, Note_on_c, 0, 69, 96
2, 383231, Note_on_c, 0, 57, 0
2, 383232, Note_on_c, 0, 59, 96
2, 383400, Note_on_c, 0, 69, 0
2, 383424, Note_on_c, 0, 68, 96
2, 383615, Note_on_c, 0, 68, 0
2, 383615, Note_on_c, 0, 59, 0
2, 383616, Note_on_c, 0, 61, 96
2, 383616, Note_on_c, 0, 69, 96
2, 383807, Note_on_c, 0, 69, 0
2, 383808, Note_on_c, 0, 64, 96
2, 383903, Note_on_c, 0, 64, 0
2, 383904, Note_on_c, 0, 69, 96
2, 383999, Note_on_c, 0, 69, 0
2, 383999, Note_on_c, 0, 61, 0
2, 384000, Note_on_c, 0, 64, 96
2, 384000, Note_on_c, 0, 73, 96
2, 384095, Note_on_c, 0, 73, 0
2, 384096, Note_on_c, 0, 71, 96
2, 384191, Note_on_c, 0, 71, 0
2, 384192, Note_on_c, 0, 69, 96
2, 384287, Note_on_c, 0, 69, 0
2, 384288, Note_on_c, 0, 68, 96
2, 384383, Note_on_c, 0, 68, 0
2, 384383, Note_on_c, 0, 64, 0
2, 384384, Note_on_c, 0, 61, 96
2, 384384, Note_on_c, 0, 69, 96
2, 384575, Note_on_c, 0, 69, 0
2, 384576, Note_on_c, 0, 64, 96
2, 384671, Note_on_c, 0, 64, 0
2, 384672, Note_on_c, 0, 69, 96
2, 384767, Note_on_c, 0, 69, 0
2, 384767, Note_on_c, 0, 61, 0
2, 384768, Note_on_c, 0, 57, 96
2, 384768, Note_on_c, 0, 73, 96
2, 384863, Note_on_c, 0, 73, 0
2, 384864, Note_on_c, 0, 71, 96
2, 384959, Note_on_c, 0, 71, 0
2, 384960, Note_on_c, 0, 69, 96
2, 385055, Note_on_c, 0, 69, 0
2, 385056, Note_on_c, 0, 68, 96
2, 385151, Note_on_c, 0, 68, 0
2, 385151, Note_on_c, 0, 57, 0
2, 385152, Note_on_c, 0, 54, 96
2, 385152, Note_on_c, 0, 69, 96
2, 385247, Note_on_c, 0, 69, 0
2, 385258, Note_on_c, 0, 73, 96
2, 385353, Note_on_c, 0, 73, 0
2, 385364, Note_on_c, 0, 74, 96
2, 385535, Note_on_c, 0, 54, 0
2, 385536, Note_on_c, 0, 52, 96
2, 385652, Note_on_c, 0, 74, 0
2, 385728, Note_on_c, 0, 73, 96
2, 385919, Note_on_c, 0, 73, 0
2, 385919, Note_on_c, 0, 52, 0
2, 385920, Note_on_c, 0, 54, 96
2, 385920, Note_on_c, 0, 74, 96
2, 386111, Note_on_c, 0, 74, 0
2, 386112, Note_on_c, 0, 69, 96
2, 386207, Note_on_c, 0, 69, 0
2, 386208, Note_on_c, 0, 74, 96
2, 386303, Note_on_c, 0, 74, 0
2, 386303, Note_on_c, 0, 54, 0
2, 386304, Note_on_c, 0, 57, 96
2, 386304, Note_on_c, 0, 78, 96
2, 386399, Note_on_c, 0, 78, 0
2, 386400, Note_on_c, 0, 76, 96
2, 386495, Note_on_c, 0, 76, 0
2, 386496, Note_on_c, 0, 74, 96
2, 386591, Note_on_c, 0, 74, 0
2, 386592, Note_on_c, 0, 73, 96
2, 386687, Note_on_c, 0, 73, 0
2, 386687, Note_on_c, 0, 57, 0
2, 386688, Note_on_c, 0, 54, 96
2, 386688, Note_on_c, 0, 74, 96
2, 386879, Note_on_c, 0, 74, 0
2, 386880, Note_on_c, 0, 69, 96
2, 386975, Note_on_c, 0, 69, 0
2, 386976, Note_on_c, 0, 74, 96
2, 387071, Note_on_c, 0, 74, 0
2, 387071, Note_on_c, 0, 54, 0
2, 387072, Note_on_c, 0, 50, 96
2, 387072, Note_on_c, 0, 78, 96
2, 387167, Note_on_c, 0, 78, 0
2, 387168, Note_on_c, 0, 76, 96
2, 387263, Note_on_c, 0, 76, 0
2, 387264, Note_on_c, 0, 74, 96
2, 387359, Note_on_c, 0, 74, 0
2, 387360, Note_on_c, 0, 73, 96
2, 387455, Note_on_c, 0, 73, 0
2, 387455, Note_on_c, 0, 50, 0
2, 387456, Note_on_c, 0, 47, 96
2, 387456, Note_on_c, 0, 74, 96
2, 387551, Note_on_c, 0, 74, 0
2, 387552, Note_on_c, 0, 78, 96
2, 387647, Note_on_c, 0, 78, 0
2, 387647, Note_on_c, 0, 47, 0
2, 387648, Note_on_c, 0, 56, 96
2, 387648, Note_on_c, 0, 76, 96
2, 387743, Note_on_c, 0, 76, 0
2, 387744, Note_on_c, 0, 74, 96
2, 387839, Note_on_c, 0, 74, 0
2, 387839, Note_on_c, 0, 56, 0
2, 387840, Note_on_c, 0, 57, 96
2, 387840, Note_on_c, 0, 73, 96
2, 387935, Note_on_c, 0, 73, 0
2, 387936, Note_on_c, 0, 71, 96
2, 388031, Note_on_c, 0, 71, 0
2, 388031, Note_on_c, 0, 57, 0
2, 388032, Note_on_c, 0, 52, 96
2, 388032, Note_on_c, 0, 73, 96
2, 388127, Note_on_c, 0, 73, 0
2, 388128, Note_on_c, 0, 76, 96
2, 388223, Note_on_c, 0, 76, 0
2, 388223, Note_on_c, 0, 52, 0
2, 388224, Note_on_c, 0, 49, 96
2, 388224, Note_on_c, 0, 81, 96
2, 388415, Note_on_c, 0, 81, 0
2, 388415, Note_on_c, 0, 49, 0
2, 388416, Note_on_c, 0, 47, 96
2, 388416, Note_on_c, 0, 80, 96
2, 388511, Note_on_c, 0, 80, 0
2, 388512, Note_on_c, 0, 78, 96
2, 388607, Note_on_c, 0, 78, 0
2, 388607, Note_on_c, 0, 47, 0
2, 388608, Note_on_c, 0, 49, 96
2, 388608, Note_on_c, 0, 76, 96
2, 388703, Note_on_c, 0, 76, 0
2, 388704, Note_on_c, 0, 74, 96
2, 388799, Note_on_c, 0, 74, 0
2, 388799, Note_on_c, 0, 49, 0
2, 388800, Note_on_c, 0, 50, 96
2, 388800, Note_on_c, 0, 73, 96
2, 388895, Note_on_c, 0, 73, 0
2, 388896, Note_on_c, 0, 71, 96
2, 388991, Note_on_c, 0, 71, 0
2, 388991, Note_on_c, 0, 50, 0
2, 388992, Note_on_c, 0, 52, 96
2, 388992, Note_on_c, 0, 73, 96
2, 389184, Note_on_c, 0, 69, 96
2, 389191, Note_on_c, 0, 73, 0
2, 389368, Note_on_c, 0, 69, 0
2, 389375, Note_on_c, 0, 52, 0
2, 389376, Note_on_c, 0, 40, 96
2, 389376, Note_on_c, 0, 64, 96
2, 389568, Note_on_c, 0, 68, 96
2, 389575, Note_on_c, 0, 64, 0
2, 389752, Note_on_c, 0, 68, 0
2, 389759, Note_on_c, 0, 40, 0
2, 389760, Note_on_c, 0, 45, 96
2, 389760, Note_on_c, 0, 69, 96
2, 389951, Note_on_c, 0, 69, 0
2, 389952, Note_on_c, 0, 64, 96
2, 390143, Note_on_c, 0, 64, 0
2, 390144, Note_on_c, 0, 50, 96
2, 390144, Note_on_c, 0, 66, 96
2, 390336, Note_on_c, 0, 62, 96
2, 390524, Note_on_c, 0, 66, 0
2, 390527, Note_on_c, 0, 62, 0
2, 390527, Note_on_c, 0, 50, 0
2, 390528, Note_on_c, 0, 52, 96
2, 390528, Note_on_c, 0, 61, 96
2, 390720, Note_on_c, 0, 69, 96
2, 390908, Note_on_c, 0, 61, 0
2, 390911, Note_on_c, 0, 52, 0
2, 390912, Note_on_c, 0, 53, 96
2, 390912, Note_on_c, 0, 62, 96
2, 390912, Note_on_c, 0, 59, 96
2, 391100, Note_on_c, 0, 69, 0
2, 391104, Note_on_c, 0, 68, 96
2, 391292, Note_on_c, 0, 62, 0
2, 391292, Note_on_c, 0, 59, 0
2, 391295, Note_on_c, 0, 68, 0
2, 391295, Note_on_c, 0, 53, 0
2, 391296, Note_on_c, 0, 52, 96
2, 391296, Note_on_c, 0, 57, 96
2, 391296, Note_on_c, 0, 61, 96
2, 391296, Note_on_c, 0, 69, 96
2, 391296, Note_on_c, 0, 64, 96
2, 392060, Note_on_c, 0, 45, 0
2, 392063, Note_on_c, 0, 57, 0
2, 392063, Note_on_c, 0, 61, 0
2, 392063, Note_on_c, 0, 52, 0
2, 392063, Note_on_c, 0, 64, 0
2, 392063, Note_on_c, 0, 69, 0
2, 392256, Note_on_c, 0, 64, 96
2, 392256, Note_on_c, 0, 57, 96
2, 392256, Note_on_c, 0, 73, 96
2, 392351, Note_on_c, 0, 73, 0
2, 392352, Note_on_c, 0, 71, 96
2, 392447, Note_on_c, 0, 71, 0
2, 392448, Note_on_c, 0, 69, 96
2, 393023, Note_on_c, 0, 57, 0
2, 393023, Note_on_c, 0, 64, 0
2, 393024, Note_on_c, 0, 59, 96
2, 393024, Note_on_c, 0, 62, 96
2, 393791, Note_on_c, 0, 62, 0
2, 393791, Note_on_c, 0, 59, 0
2, 393791, Note_on_c, 0, 69, 0
2, 393792, Note_on_c, 0, 64, 96
2, 393792, Note_on_c, 0, 61, 96
2, 393792, Note_on_c, 0, 69, 96
2, 393887, Note_on_c, 0, 69, 0
2, 393888, Note_on_c, 0, 67, 96
2, 393983, Note_on_c, 0, 67, 0
2, 393984, Note_on_c, 0, 69, 96
2, 394079, Note_on_c, 0, 69, 0
2, 394080, Note_on_c, 0, 67, 96
2, 394175, Note_on_c, 0, 67, 0
2, 394176, Note_on_c, 0, 69, 96
2, 394271, Note_on_c, 0, 69, 0
2, 394272, Note_on_c, 0, 67, 96
2, 394367, Note_on_c, 0, 67, 0
2, 394368, Note_on_c, 0, 66, 96
2, 394463, Note_on_c, 0, 66, 0
2, 394464, Note_on_c, 0, 67, 96
2, 394559, Note_on_c, 0, 67, 0
2, 394559, Note_on_c, 0, 61, 0
2, 394559, Note_on_c, 0, 64, 0
2, 394560, Note_on_c, 0, 58, 96
2, 394687, Note_on_c, 0, 58, 0
2, 394688, Note_on_c, 0, 59, 96
2, 394815, Note_on_c, 0, 59, 0
2, 394816, Note_on_c, 0, 61, 96
2, 394926, Note_on_c, 0, 61, 0
2, 394944, Note_on_c, 0, 62, 96
2, 395054, Note_on_c, 0, 62, 0
2, 395072, Note_on_c, 0, 64, 96
2, 395182, Note_on_c, 0, 64, 0
2, 395200, Note_on_c, 0, 66, 96
2, 395327, Note_on_c, 0, 66, 0
2, 395328, Note_on_c, 0, 76, 96
2, 396478, Note_on_c, 0, 76, 0
2, 396672, Note_on_c, 0, 74, 96
2, 396672, Note_on_c, 0, 59, 96
2, 396863, Note_on_c, 0, 74, 0
2, 396864, Note_on_c, 0, 73, 96
2, 397055, Note_on_c, 0, 73, 0
2, 397055, Note_on_c, 0, 59, 0
2, 397056, Note_on_c, 0, 71, 96
2, 397056, Note_on_c, 0, 67, 96
2, 397119, Note_on_c, 0, 71, 0
2, 397120, Note_on_c, 0, 69, 96
2, 397183, Note_on_c, 0, 69, 0
2, 397184, Note_on_c, 0, 71, 96
2, 397247, Note_on_c, 0, 71, 0
2, 397248, Note_on_c, 0, 79, 96
2, 397439, Note_on_c, 0, 67, 0
2, 397440, Note_on_c, 0, 61, 96
2, 397528, Note_on_c, 0, 79, 0
2, 397568, Note_on_c, 0, 78, 96
2, 397695, Note_on_c, 0, 78, 0
2, 397696, Note_on_c, 0, 76, 96
2, 397823, Note_on_c, 0, 76, 0
2, 397823, Note_on_c, 0, 61, 0
2, 397824, Note_on_c, 0, 78, 96
2, 397824, Note_on_c, 0, 63, 96
2, 398015, Note_on_c, 0, 78, 0
2, 398016, Note_on_c, 0, 72, 96
2, 398207, Note_on_c, 0, 63, 0
2, 398208, Note_on_c, 0, 55, 96
2, 398296, Note_on_c, 0, 72, 0
2, 398336, Note_on_c, 0, 71, 96
2, 398463, Note_on_c, 0, 71, 0
2, 398464, Note_on_c, 0, 70, 96
2, 398591, Note_on_c, 0, 70, 0
2, 398591, Note_on_c, 0, 55, 0
2, 398592, Note_on_c, 0, 71, 96
2, 398592, Note_on_c, 0, 64, 96
2, 398783, Note_on_c, 0, 71, 0
2, 398784, Note_on_c, 0, 76, 96
2, 398975, Note_on_c, 0, 64, 0
2, 398976, Note_on_c, 0, 54, 96
2, 399124, Note_on_c, 0, 76, 0
2, 399168, Note_on_c, 0, 70, 96
2, 399359, Note_on_c, 0, 70, 0
2, 399359, Note_on_c, 0, 54, 0
2, 399360, Note_on_c, 0, 71, 96
2, 399360, Note_on_c, 0, 67, 96
2, 399551, Note_on_c, 0, 71, 0
2, 399552, Note_on_c, 0, 73, 96
2, 399743, Note_on_c, 0, 73, 0
2, 399743, Note_on_c, 0, 67, 0
2, 399744, Note_on_c, 0, 71, 96
2, 399744, Note_on_c, 0, 66, 96
2, 399935, Note_on_c, 0, 71, 0
2, 399936, Note_on_c, 0, 70, 96
2, 400127, Note_on_c, 0, 70, 0
2, 400127, Note_on_c, 0, 66, 0
2, 400128, Note_on_c, 0, 68, 96
2, 400128, Note_on_c, 0, 64, 96
2, 400319, Note_on_c, 0, 68, 0
2, 400320, Note_on_c, 0, 70, 96
2, 400511, Note_on_c, 0, 70, 0
2, 400511, Note_on_c, 0, 64, 0
2, 400512, Note_on_c, 0, 68, 96
2, 400512, Note_on_c, 0, 62, 96
2, 400703, Note_on_c, 0, 68, 0
2, 400704, Note_on_c, 0, 66, 96
2, 400895, Note_on_c, 0, 62, 0
2, 400896, Note_on_c, 0, 61, 96
2, 400984, Note_on_c, 0, 66, 0
2, 401088, Note_on_c, 0, 70, 96
2, 401183, Note_on_c, 0, 70, 0
2, 401184, Note_on_c, 0, 73, 96
2, 401279, Note_on_c, 0, 73, 0
2, 401279, Note_on_c, 0, 61, 0
2, 401280, Note_on_c, 0, 74, 96
2, 401280, Note_on_c, 0, 59, 96
2, 401385, Note_on_c, 0, 74, 0
2, 401386, Note_on_c, 0, 73, 96
2, 401491, Note_on_c, 0, 73, 0
2, 401492, Note_on_c, 0, 71, 96
2, 401663, Note_on_c, 0, 59, 0
2, 401664, Note_on_c, 0, 57, 96
2, 401832, Note_on_c, 0, 71, 0
2, 401856, Note_on_c, 0, 73, 96
2, 401951, Note_on_c, 0, 73, 0
2, 401952, Note_on_c, 0, 75, 96
2, 402047, Note_on_c, 0, 75, 0
2, 402047, Note_on_c, 0, 57, 0
2, 402048, Note_on_c, 0, 76, 96
2, 402048, Note_on_c, 0, 55, 96
2, 402153, Note_on_c, 0, 76, 0
2, 402154, Note_on_c, 0, 75, 96
2, 402259, Note_on_c, 0, 75, 0
2, 402260, Note_on_c, 0, 73, 96
2, 402431, Note_on_c, 0, 55, 0
2, 402432, Note_on_c, 0, 57, 96
2, 402600, Note_on_c, 0, 73, 0
2, 402624, Note_on_c, 0, 75, 96
2, 402719, Note_on_c, 0, 75, 0
2, 402720, Note_on_c, 0, 76, 96
2, 402815, Note_on_c, 0, 76, 0
2, 402815, Note_on_c, 0, 57, 0
2, 402816, Note_on_c, 0, 78, 96
2, 402816, Note_on_c, 0, 55, 96
2, 402921, Note_on_c, 0, 78, 0
2, 402922, Note_on_c, 0, 76, 96
2, 403027, Note_on_c, 0, 76, 0
2, 403028, Note_on_c, 0, 75, 96
2, 403199, Note_on_c, 0, 55, 0
2, 403200, Note_on_c, 0, 54, 96
2, 403368, Note_on_c, 0, 75, 0
2, 403392, Note_on_c, 0, 76, 96
2, 403487, Note_on_c, 0, 76, 0
2, 403488, Note_on_c, 0, 78, 96
2, 403583, Note_on_c, 0, 78, 0
2, 403583, Note_on_c, 0, 54, 0
2, 403584, Note_on_c, 0, 79, 96
2, 403584, Note_on_c, 0, 52, 96
2, 403689, Note_on_c, 0, 79, 0
2, 403690, Note_on_c, 0, 78, 96
2, 403795, Note_on_c, 0, 78, 0
2, 403796, Note_on_c, 0, 76, 96
2, 403967, Note_on_c, 0, 52, 0
2, 403968, Note_on_c, 0, 50, 96
2, 403986, Note_on_c, 0, 76, 0
2, 404064, Note_on_c, 0, 71, 96
2, 404159, Note_on_c, 0, 71, 0
2, 404160, Note_on_c, 0, 76, 96
2, 404255, Note_on_c, 0, 76, 0
2, 404256, Note_on_c, 0, 78, 96
2, 404351, Note_on_c, 0, 78, 0
2, 404351, Note_on_c, 0, 50, 0
2, 404352, Note_on_c, 0, 79, 96
2, 404352, Note_on_c, 0, 49, 96
2, 404447, Note_on_c, 0, 79, 0
2, 404448, Note_on_c, 0, 78, 96
2, 404543, Note_on_c, 0, 78, 0
2, 404544, Note_on_c, 0, 76, 96
2, 404639, Note_on_c, 0, 76, 0
2, 404640, Note_on_c, 0, 74, 96
2, 404735, Note_on_c, 0, 74, 0
2, 404735, Note_on_c, 0, 49, 0
2, 404736, Note_on_c, 0, 73, 96
2, 404736, Note_on_c, 0, 50, 96
2, 404831, Note_on_c, 0, 73, 0
2, 404832, Note_on_c, 0, 71, 96
2, 404927, Note_on_c, 0, 71, 0
2, 404928, Note_on_c, 0, 70, 96
2, 405023, Note_on_c, 0, 70, 0
2, 405024, Note_on_c, 0, 68, 96
2, 405119, Note_on_c, 0, 68, 0
2, 405119, Note_on_c, 0, 50, 0
2, 405120, Note_on_c, 0, 70, 96
2, 405120, Note_on_c, 0, 49, 96
2, 405226, Note_on_c, 0, 73, 96
2, 405332, Note_on_c, 0, 76, 96
2, 405420, Note_on_c, 0, 70, 0
2, 405426, Note_on_c, 0, 73, 0
2, 405503, Note_on_c, 0, 49, 0
2, 405504, Note_on_c, 0, 47, 96
2, 405695, Note_on_c, 0, 76, 0
2, 405696, Note_on_c, 0, 67, 96
2, 405887, Note_on_c, 0, 67, 0
2, 405887, Note_on_c, 0, 47, 0
2, 405888, Note_on_c, 0, 66, 96
2, 405888, Note_on_c, 0, 46, 96
2, 405983, Note_on_c, 0, 66, 0
2, 405984, Note_on_c, 0, 67, 96
2, 406079, Note_on_c, 0, 67, 0
2, 406080, Note_on_c, 0, 66, 96
2, 406175, Note_on_c, 0, 66, 0
2, 406176, Note_on_c, 0, 64, 96
2, 406271, Note_on_c, 0, 64, 0
2, 406271, Note_on_c, 0, 46, 0
2, 406272, Note_on_c, 0, 64, 96
2, 406272, Note_on_c, 0, 47, 96
2, 406367, Note_on_c, 0, 64, 0
2, 406368, Note_on_c, 0, 66, 96
2, 406463, Note_on_c, 0, 66, 0
2, 406464, Note_on_c, 0, 64, 96
2, 406559, Note_on_c, 0, 64, 0
2, 406560, Note_on_c, 0, 62, 96
2, 406655, Note_on_c, 0, 62, 0
2, 406655, Note_on_c, 0, 47, 0
2, 406656, Note_on_c, 0, 62, 96
2, 406656, Note_on_c, 0, 52, 96
2, 406751, Note_on_c, 0, 62, 0
2, 406752, Note_on_c, 0, 64, 96
2, 406847, Note_on_c, 0, 64, 0
2, 406848, Note_on_c, 0, 62, 96
2, 406943, Note_on_c, 0, 62, 0
2, 406944, Note_on_c, 0, 61, 96
2, 407039, Note_on_c, 0, 61, 0
2, 407039, Note_on_c, 0, 52, 0
2, 407040, Note_on_c, 0, 61, 96
2, 407040, Note_on_c, 0, 55, 96
2, 407135, Note_on_c, 0, 61, 0
2, 407136, Note_on_c, 0, 62, 96
2, 407231, Note_on_c, 0, 62, 0
2, 407232, Note_on_c, 0, 61, 96
2, 407327, Note_on_c, 0, 61, 0
2, 407328, Note_on_c, 0, 59, 96
2, 407423, Note_on_c, 0, 59, 0
2, 407423, Note_on_c, 0, 55, 0
2, 407424, Note_on_c, 0, 59, 96
2, 407424, Note_on_c, 0, 54, 96
2, 407519, Note_on_c, 0, 59, 0
2, 407520, Note_on_c, 0, 61, 96
2, 407615, Note_on_c, 0, 61, 0
2, 407616, Note_on_c, 0, 59, 96
2, 407711, Note_on_c, 0, 59, 0
2, 407712, Note_on_c, 0, 58, 96
2, 407807, Note_on_c, 0, 58, 0
2, 407807, Note_on_c, 0, 54, 0
2, 407808, Note_on_c, 0, 64, 96
2, 407808, Note_on_c, 0, 42, 96
2, 407998, Note_on_c, 0, 64, 0
2, 408064, Note_on_c, 0, 62, 96
2, 408191, Note_on_c, 0, 62, 0
2, 408191, Note_on_c, 0, 42, 0
2, 408192, Note_on_c, 0, 61, 96
2, 408192, Note_on_c, 0, 47, 96
2, 408383, Note_on_c, 0, 61, 0
2, 408384, Note_on_c, 0, 59, 96
2, 408564, Note_on_c, 0, 59, 0
2, 408575, Note_on_c, 0, 47, 0
2, 408576, Note_on_c, 0, 49, 96
2, 408672, Note_on_c, 0, 61, 96
2, 408767, Note_on_c, 0, 61, 0
2, 408768, Note_on_c, 0, 62, 96
2, 408863, Note_on_c, 0, 62, 0
2, 408864, Note_on_c, 0, 64, 96
2, 408959, Note_on_c, 0, 64, 0
2, 408959, Note_on_c, 0, 49, 0
2, 408960, Note_on_c, 0, 66, 96
2, 408960, Note_on_c, 0, 50, 96
2, 409065, Note_on_c, 0, 66, 0
2, 409066, Note_on_c, 0, 64, 96
2, 409171, Note_on_c, 0, 64, 0
2, 409172, Note_on_c, 0, 62, 96
2, 409343, Note_on_c, 0, 50, 0
2, 409344, Note_on_c, 0, 52, 96
2, 409412, Note_on_c, 0, 62, 0
2, 409440, Note_on_c, 0, 64, 96
2, 409535, Note_on_c, 0, 64, 0
2, 409536, Note_on_c, 0, 66, 96
2, 409631, Note_on_c, 0, 66, 0
2, 409632, Note_on_c, 0, 67, 96
2, 409727, Note_on_c, 0, 67, 0
2, 409727, Note_on_c, 0, 52, 0
2, 409728, Note_on_c, 0, 69, 96
2, 409728, Note_on_c, 0, 54, 96
2, 409833, Note_on_c, 0, 69, 0
2, 409834, Note_on_c, 0, 67, 96
2, 409939, Note_on_c, 0, 67, 0
2, 409940, Note_on_c, 0, 66, 96
2, 410111, Note_on_c, 0, 54, 0
2, 410112, Note_on_c, 0, 55, 96
2, 410180, Note_on_c, 0, 66, 0
2, 410208, Note_on_c, 0, 67, 96
2, 410303, Note_on_c, 0, 67, 0
2, 410304, Note_on_c, 0, 69, 96
2, 410399, Note_on_c, 0, 69, 0
2, 410400, Note_on_c, 0, 71, 96
2, 410495, Note_on_c, 0, 71, 0
2, 410495, Note_on_c, 0, 55, 0
2, 410496, Note_on_c, 0, 72, 96
2, 410496, Note_on_c, 0, 57, 96
2, 410601, Note_on_c, 0, 72, 0
2, 410602, Note_on_c, 0, 71, 96
2, 410707, Note_on_c, 0, 71, 0
2, 410708, Note_on_c, 0, 69, 96
2, 410879, Note_on_c, 0, 57, 0
2, 410880, Note_on_c, 0, 54, 96
2, 411028, Note_on_c, 0, 69, 0
2, 411072, Note_on_c, 0, 75, 96
2, 411263, Note_on_c, 0, 75, 0
2, 411263, Note_on_c, 0, 54, 0
2, 411264, Note_on_c, 0, 76, 96
2, 411264, Note_on_c, 0, 55, 96
2, 411443, Note_on_c, 0, 76, 0
2, 411444, Note_on_c, 0, 71, 96
2, 411545, Note_on_c, 0, 71, 0
2, 411546, Note_on_c, 0, 69, 96
2, 411647, Note_on_c, 0, 69, 0
2, 411647, Note_on_c, 0, 55, 0
2, 411648, Note_on_c, 0, 71, 96
2, 411648, Note_on_c, 0, 52, 96
2, 411839, Note_on_c, 0, 71, 0
2, 411840, Note_on_c, 0, 79, 96
2, 412031, Note_on_c, 0, 52, 0
2, 412032, Note_on_c, 0, 64, 96
2, 412200, Note_on_c, 0, 79, 0
2, 412224, Note_on_c, 0, 81, 96
2, 412415, Note_on_c, 0, 81, 0
2, 412415, Note_on_c, 0, 64, 0
2, 412416, Note_on_c, 0, 72, 96
2, 412416, Note_on_c, 0, 62, 96
2, 412607, Note_on_c, 0, 72, 0
2, 412608, Note_on_c, 0, 71, 96
2, 412799, Note_on_c, 0, 71, 0
2, 412799, Note_on_c, 0, 62, 0
2, 412800, Note_on_c, 0, 69, 96
2, 412800, Note_on_c, 0, 60, 96
2, 412895, Note_on_c, 0, 69, 0
2, 412896, Note_on_c, 0, 67, 96
2, 412991, Note_on_c, 0, 67, 0
2, 412992, Note_on_c, 0, 69, 96
2, 413183, Note_on_c, 0, 60, 0
2, 413184, Note_on_c, 0, 57, 96
2, 413368, Note_on_c, 0, 69, 0
2, 413376, Note_on_c, 0, 79, 96
2, 413567, Note_on_c, 0, 79, 0
2, 413567, Note_on_c, 0, 57, 0
2, 413568, Note_on_c, 0, 78, 96
2, 413568, Note_on_c, 0, 59, 96
2, 413673, Note_on_c, 0, 78, 0
2, 413674, Note_on_c, 0, 76, 96
2, 413779, Note_on_c, 0, 76, 0
2, 413780, Note_on_c, 0, 75, 96
2, 413951, Note_on_c, 0, 59, 0
2, 413952, Note_on_c, 0, 55, 96
2, 414120, Note_on_c, 0, 75, 0
2, 414144, Note_on_c, 0, 76, 96
2, 414239, Note_on_c, 0, 76, 0
2, 414240, Note_on_c, 0, 79, 96
2, 414335, Note_on_c, 0, 79, 0
2, 414335, Note_on_c, 0, 55, 0
2, 414336, Note_on_c, 0, 84, 96
2, 414336, Note_on_c, 0, 57, 96
2, 414441, Note_on_c, 0, 84, 0
2, 414442, Note_on_c, 0, 83, 96
2, 414547, Note_on_c, 0, 83, 0
2, 414548, Note_on_c, 0, 81, 96
2, 414719, Note_on_c, 0, 57, 0
2, 414720, Note_on_c, 0, 54, 96
2, 414888, Note_on_c, 0, 81, 0
2, 414912, Note_on_c, 0, 80, 96
2, 415007, Note_on_c, 0, 80, 0
2, 415008, Note_on_c, 0, 81, 96
2, 415103, Note_on_c, 0, 81, 0
2, 415103, Note_on_c, 0, 54, 0
2, 415104, Note_on_c, 0, 71, 96
2, 415104, Note_on_c, 0, 63, 96
2, 415199, Note_on_c, 0, 71, 0
2, 415200, Note_on_c, 0, 81, 96
2, 415295, Note_on_c, 0, 81, 0
2, 415296, Note_on_c, 0, 79, 96
2, 415391, Note_on_c, 0, 79, 0
2, 415392, Note_on_c, 0, 78, 96
2, 415487, Note_on_c, 0, 78, 0
2, 415487, Note_on_c, 0, 63, 0
2, 415488, Note_on_c, 0, 79, 96
2, 415488, Note_on_c, 0, 64, 96
2, 415679, Note_on_c, 0, 79, 0
2, 415680, Note_on_c, 0, 76, 96
2, 415871, Note_on_c, 0, 76, 0
2, 415871, Note_on_c, 0, 64, 0
2, 415872, Note_on_c, 0, 72, 96
2, 415872, Note_on_c, 0, 57, 96
2, 416063, Note_on_c, 0, 72, 0
2, 416064, Note_on_c, 0, 77, 96
2, 416255, Note_on_c, 0, 77, 0
2, 416255, Note_on_c, 0, 57, 0
2, 416256, Note_on_c, 0, 75, 96
2, 416256, Note_on_c, 0, 60, 96
2, 416426, Note_on_c, 0, 75, 0
2, 416456, Note_on_c, 0, 76, 96
2, 416639, Note_on_c, 0, 60, 0
2, 416640, Note_on_c, 0, 54, 96
2, 416831, Note_on_c, 0, 76, 0
2, 416832, Note_on_c, 0, 75, 96
2, 416927, Note_on_c, 0, 75, 0
2, 416928, Note_on_c, 0, 73, 96
2, 417023, Note_on_c, 0, 73, 0
2, 417023, Note_on_c, 0, 54, 0
2, 417024, Note_on_c, 0, 75, 96
2, 417024, Note_on_c, 0, 59, 96
2, 417129, Note_on_c, 0, 75, 0
2, 417130, Note_on_c, 0, 78, 96
2, 417235, Note_on_c, 0, 78, 0
2, 417236, Note_on_c, 0, 81, 96
2, 417407, Note_on_c, 0, 59, 0
2, 417408, Note_on_c, 0, 52, 96
2, 417536, Note_on_c, 0, 81, 0
2, 417588, Note_on_c, 0, 79, 96
2, 417689, Note_on_c, 0, 79, 0
2, 417690, Note_on_c, 0, 78, 96
2, 417791, Note_on_c, 0, 78, 0
2, 417791, Note_on_c, 0, 52, 0
2, 417792, Note_on_c, 0, 79, 96
2, 417792, Note_on_c, 0, 47, 96
2, 418172, Note_on_c, 0, 79, 0
2, 418175, Note_on_c, 0, 47, 0
2, 418176, Note_on_c, 0, 40, 96
2, 418272, Note_on_c, 0, 78, 96
2, 418367, Note_on_c, 0, 78, 0
2, 418368, Note_on_c, 0, 76, 96
2, 418463, Note_on_c, 0, 76, 0
2, 418464, Note_on_c, 0, 78, 96
2, 418559, Note_on_c, 0, 78, 0
2, 418559, Note_on_c, 0, 40, 0
2, 418560, Note_on_c, 0, 79, 96
2, 418560, Note_on_c, 0, 47, 96
2, 418655, Note_on_c, 0, 79, 0
2, 418656, Note_on_c, 0, 78, 96
2, 418751, Note_on_c, 0, 78, 0
2, 418752, Note_on_c, 0, 76, 96
2, 418847, Note_on_c, 0, 76, 0
2, 418848, Note_on_c, 0, 74, 96
2, 418943, Note_on_c, 0, 74, 0
2, 418943, Note_on_c, 0, 47, 0
2, 418944, Note_on_c, 0, 73, 96
2, 418944, Note_on_c, 0, 52, 96
2, 419039, Note_on_c, 0, 73, 0
2, 419040, Note_on_c, 0, 71, 96
2, 419135, Note_on_c, 0, 71, 0
2, 419136, Note_on_c, 0, 69, 96
2, 419231, Note_on_c, 0, 69, 0
2, 419232, Note_on_c, 0, 71, 96
2, 419327, Note_on_c, 0, 71, 0
2, 419327, Note_on_c, 0, 52, 0
2, 419328, Note_on_c, 0, 73, 96
2, 419328, Note_on_c, 0, 50, 96
2, 419423, Note_on_c, 0, 73, 0
2, 419424, Note_on_c, 0, 74, 96
2, 419519, Note_on_c, 0, 74, 0
2, 419520, Note_on_c, 0, 76, 96
2, 419615, Note_on_c, 0, 76, 0
2, 419616, Note_on_c, 0, 78, 96
2, 419711, Note_on_c, 0, 78, 0
2, 419711, Note_on_c, 0, 50, 0
2, 419712, Note_on_c, 0, 79, 96
2, 419712, Note_on_c, 0, 49, 96
2, 419807, Note_on_c, 0, 79, 0
2, 419808, Note_on_c, 0, 69, 96
2, 419903, Note_on_c, 0, 69, 0
2, 419904, Note_on_c, 0, 68, 96
2, 419999, Note_on_c, 0, 68, 0
2, 420000, Note_on_c, 0, 69, 96
2, 420095, Note_on_c, 0, 69, 0
2, 420095, Note_on_c, 0, 49, 0
2, 420096, Note_on_c, 0, 71, 96
2, 420096, Note_on_c, 0, 45, 96
2, 420191, Note_on_c, 0, 71, 0
2, 420192, Note_on_c, 0, 73, 96
2, 420287, Note_on_c, 0, 73, 0
2, 420288, Note_on_c, 0, 74, 96
2, 420383, Note_on_c, 0, 74, 0
2, 420384, Note_on_c, 0, 76, 96
2, 420479, Note_on_c, 0, 76, 0
2, 420479, Note_on_c, 0, 45, 0
2, 420480, Note_on_c, 0, 78, 96
2, 420480, Note_on_c, 0, 50, 96
2, 420640, Note_on_c, 0, 78, 0
2, 420660, Note_on_c, 0, 72, 96
2, 420762, Note_on_c, 0, 71, 96
2, 420764, Note_on_c, 0, 72, 0
2, 420863, Note_on_c, 0, 71, 0
2, 420863, Note_on_c, 0, 50, 0
2, 420864, Note_on_c, 0, 72, 96
2, 420864, Note_on_c, 0, 52, 96
2, 421056, Note_on_c, 0, 79, 96
2, 421087, Note_on_c, 0, 72, 0
2, 421247, Note_on_c, 0, 79, 0
2, 421247, Note_on_c, 0, 52, 0
2, 421248, Note_on_c, 0, 81, 96
2, 421248, Note_on_c, 0, 54, 96
2, 421440, Note_on_c, 0, 72, 96
2, 421469, Note_on_c, 0, 81, 0
2, 421624, Note_on_c, 0, 72, 0
2, 421631, Note_on_c, 0, 54, 0
2, 421632, Note_on_c, 0, 71, 96
2, 421632, Note_on_c, 0, 50, 96
2, 421823, Note_on_c, 0, 71, 0
2, 421824, Note_on_c, 0, 69, 96
2, 422015, Note_on_c, 0, 69, 0
2, 422015, Note_on_c, 0, 50, 0
2, 422016, Note_on_c, 0, 71, 96
2, 422016, Note_on_c, 0, 55, 96
2, 422111, Note_on_c, 0, 71, 0
2, 422112, Note_on_c, 0, 67, 96
2, 422207, Note_on_c, 0, 67, 0
2, 422208, Note_on_c, 0, 66, 96
2, 422303, Note_on_c, 0, 66, 0
2, 422304, Note_on_c, 0, 67, 96
2, 422399, Note_on_c, 0, 67, 0
2, 422399, Note_on_c, 0, 55, 0
2, 422400, Note_on_c, 0, 69, 96
2, 422400, Note_on_c, 0, 52, 96
2, 422495, Note_on_c, 0, 69, 0
2, 422496, Note_on_c, 0, 71, 96
2, 422591, Note_on_c, 0, 71, 0
2, 422592, Note_on_c, 0, 73, 96
2, 422687, Note_on_c, 0, 73, 0
2, 422688, Note_on_c, 0, 74, 96
2, 422783, Note_on_c, 0, 74, 0
2, 422783, Note_on_c, 0, 52, 0
2, 422784, Note_on_c, 0, 73, 96
2, 422784, Note_on_c, 0, 57, 96
2, 422975, Note_on_c, 0, 73, 0
2, 422976, Note_on_c, 0, 67, 96
2, 423071, Note_on_c, 0, 67, 0
2, 423072, Note_on_c, 0, 66, 96
2, 423167, Note_on_c, 0, 66, 0
2, 423167, Note_on_c, 0, 57, 0
2, 423168, Note_on_c, 0, 67, 96
2, 423168, Note_on_c, 0, 59, 96
2, 423359, Note_on_c, 0, 67, 0
2, 423360, Note_on_c, 0, 74, 96
2, 423551, Note_on_c, 0, 74, 0
2, 423551, Note_on_c, 0, 59, 0
2, 423552, Note_on_c, 0, 76, 96
2, 423552, Note_on_c, 0, 61, 96
2, 423712, Note_on_c, 0, 76, 0
2, 423744, Note_on_c, 0, 67, 96
2, 423935, Note_on_c, 0, 67, 0
2, 423935, Note_on_c, 0, 61, 0
2, 423936, Note_on_c, 0, 66, 96
2, 423936, Note_on_c, 0, 57, 96
2, 424127, Note_on_c, 0, 66, 0
2, 424128, Note_on_c, 0, 64, 96
2, 424319, Note_on_c, 0, 64, 0
2, 424319, Note_on_c, 0, 57, 0
2, 424320, Note_on_c, 0, 66, 96
2, 424320, Note_on_c, 0, 62, 96
2, 424415, Note_on_c, 0, 66, 0
2, 424416, Note_on_c, 0, 69, 96
2, 424511, Note_on_c, 0, 69, 0
2, 424512, Note_on_c, 0, 71, 96
2, 424607, Note_on_c, 0, 71, 0
2, 424608, Note_on_c, 0, 73, 96
2, 424703, Note_on_c, 0, 73, 0
2, 424703, Note_on_c, 0, 62, 0
2, 424704, Note_on_c, 0, 74, 96
2, 424704, Note_on_c, 0, 59, 96
2, 424809, Note_on_c, 0, 74, 0
2, 424810, Note_on_c, 0, 73, 96
2, 424915, Note_on_c, 0, 73, 0
2, 424916, Note_on_c, 0, 74, 96
2, 425087, Note_on_c, 0, 59, 0
2, 425088, Note_on_c, 0, 64, 96
2, 425176, Note_on_c, 0, 74, 0
2, 425184, Note_on_c, 0, 80, 96
2, 425279, Note_on_c, 0, 80, 0
2, 425280, Note_on_c, 0, 81, 96
2, 425375, Note_on_c, 0, 81, 0
2, 425376, Note_on_c, 0, 83, 96
2, 425471, Note_on_c, 0, 83, 0
2, 425471, Note_on_c, 0, 64, 0
2, 425472, Note_on_c, 0, 81, 96
2, 425472, Note_on_c, 0, 66, 96
2, 425567, Note_on_c, 0, 81, 0
2, 425568, Note_on_c, 0, 80, 96
2, 425663, Note_on_c, 0, 80, 0
2, 425664, Note_on_c, 0, 78, 96
2, 425759, Note_on_c, 0, 78, 0
2, 425760, Note_on_c, 0, 76, 96
2, 425855, Note_on_c, 0, 76, 0
2, 425855, Note_on_c, 0, 66, 0
2, 425856, Note_on_c, 0, 74, 96
2, 425856, Note_on_c, 0, 68, 96
2, 425983, Note_on_c, 0, 74, 0
2, 425984, Note_on_c, 0, 73, 96
2, 426111, Note_on_c, 0, 73, 0
2, 426112, Note_on_c, 0, 74, 96
2, 426239, Note_on_c, 0, 74, 0
2, 426239, Note_on_c, 0, 68, 0
2, 426240, Note_on_c, 0, 83, 96
2, 426240, Note_on_c, 0, 64, 96
2, 426431, Note_on_c, 0, 83, 0
2, 426432, Note_on_c, 0, 74, 96
2, 426623, Note_on_c, 0, 74, 0
2, 426623, Note_on_c, 0, 64, 0
2, 426624, Note_on_c, 0, 74, 96
2, 426624, Note_on_c, 0, 69, 96
2, 426829, Note_on_c, 0, 74, 0
2, 426830, Note_on_c, 0, 73, 96
2, 427023, Note_on_c, 0, 69, 0
2, 427024, Note_on_c, 0, 71, 96
2, 427210, Note_on_c, 0, 73, 0
2, 427391, Note_on_c, 0, 71, 0
2, 427392, Note_on_c, 0, 69, 96
2, 427488, Note_on_c, 0, 74, 96
2, 427583, Note_on_c, 0, 74, 0
2, 427584, Note_on_c, 0, 76, 96
2, 427679, Note_on_c, 0, 76, 0
2, 427680, Note_on_c, 0, 74, 96
2, 427775, Note_on_c, 0, 74, 0
2, 427775, Note_on_c, 0, 69, 0
2, 427776, Note_on_c, 0, 73, 96
2, 427776, Note_on_c, 0, 67, 96
2, 427871, Note_on_c, 0, 73, 0
2, 427872, Note_on_c, 0, 74, 96
2, 427967, Note_on_c, 0, 74, 0
2, 427968, Note_on_c, 0, 73, 96
2, 428063, Note_on_c, 0, 73, 0
2, 428064, Note_on_c, 0, 71, 96
2, 428159, Note_on_c, 0, 71, 0
2, 428159, Note_on_c, 0, 67, 0
2, 428160, Note_on_c, 0, 71, 96
2, 428160, Note_on_c, 0, 66, 96
2, 428371, Note_on_c, 0, 71, 0
2, 428372, Note_on_c, 0, 69, 96
2, 428543, Note_on_c, 0, 66, 0
2, 428544, Note_on_c, 0, 64, 96
2, 428752, Note_on_c, 0, 69, 0
2, 429004, Note_on_c, 0, 64, 0
2, 429024, Note_on_c, 0, 78, 96
2, 429024, Note_on_c, 0, 62, 96
2, 429024, Note_on_c, 0, 69, 96
2, 429119, Note_on_c, 0, 78, 0
2, 429120, Note_on_c, 0, 76, 96
2, 429215, Note_on_c, 0, 76, 0
2, 429216, Note_on_c, 0, 74, 96
2, 429791, Note_on_c, 0, 74, 0
2, 429791, Note_on_c, 0, 69, 0
2, 429791, Note_on_c, 0, 62, 0
2, 429792, Note_on_c, 0, 74, 96
2, 429792, Note_on_c, 0, 67, 96
2, 429792, Note_on_c, 0, 64, 96
2, 430559, Note_on_c, 0, 74, 0
2, 430560, Note_on_c, 0, 73, 96
2, 431132, Note_on_c, 0, 64, 0
2, 431132, Note_on_c, 0, 67, 0
2, 431135, Note_on_c, 0, 73, 0
2, 431136, Note_on_c, 0, 74, 96
2, 431326, Note_on_c, 0, 74, 0
2, 431328, Note_on_c, 0, 66, 96
2, 431519, Note_on_c, 0, 66, 0
2, 431520, Note_on_c, 0, 67, 96
2, 431711, Note_on_c, 0, 67, 0
2, 431712, Note_on_c, 0, 69, 96
2, 431903, Note_on_c, 0, 69, 0
2, 431904, Note_on_c, 0, 71, 96
2, 431999, Note_on_c, 0, 71, 0
2, 432000, Note_on_c, 0, 72, 96
2, 432095, Note_on_c, 0, 72, 0
2, 432096, Note_on_c, 0, 81, 96
2, 433246, Note_on_c, 0, 81, 0
2, 433536, Note_on_c, 0, 67, 96
2, 433536, Note_on_c, 0, 71, 96
2, 433641, Note_on_c, 0, 71, 0
2, 433642, Note_on_c, 0, 73, 96
2, 433747, Note_on_c, 0, 73, 0
2, 433748, Note_on_c, 0, 74, 96
2, 433919, Note_on_c, 0, 67, 0
2, 433920, Note_on_c, 0, 64, 96
2, 434088, Note_on_c, 0, 74, 0
2, 434112, Note_on_c, 0, 73, 96
2, 434303, Note_on_c, 0, 73, 0
2, 434303, Note_on_c, 0, 64, 0
2, 434304, Note_on_c, 0, 66, 96
2, 434304, Note_on_c, 0, 74, 96
2, 434495, Note_on_c, 0, 74, 0
2, 434496, Note_on_c, 0, 69, 96
2, 434591, Note_on_c, 0, 69, 0
2, 434592, Note_on_c, 0, 67, 96
2, 434687, Note_on_c, 0, 67, 0
2, 434687, Note_on_c, 0, 66, 0
2, 434688, Note_on_c, 0, 62, 96
2, 434688, Note_on_c, 0, 69, 96
2, 434879, Note_on_c, 0, 69, 0
2, 434880, Note_on_c, 0, 78, 96
2, 435071, Note_on_c, 0, 62, 0
2, 435072, Note_on_c, 0, 64, 96
2, 435250, Note_on_c, 0, 78, 0
2, 435264, Note_on_c, 0, 79, 96
2, 435455, Note_on_c, 0, 79, 0
2, 435455, Note_on_c, 0, 64, 0
2, 435456, Note_on_c, 0, 61, 96
2, 435456, Note_on_c, 0, 69, 96
2, 435647, Note_on_c, 0, 69, 0
2, 435648, Note_on_c, 0, 79, 96
2, 435839, Note_on_c, 0, 79, 0
2, 435839, Note_on_c, 0, 61, 0
2, 435840, Note_on_c, 0, 62, 96
2, 435840, Note_on_c, 0, 78, 96
2, 435945, Note_on_c, 0, 78, 0
2, 435946, Note_on_c, 0, 79, 96
2, 436051, Note_on_c, 0, 79, 0
2, 436052, Note_on_c, 0, 81, 96
2, 436223, Note_on_c, 0, 62, 0
2, 436224, Note_on_c, 0, 59, 96
2, 436392, Note_on_c, 0, 81, 0
2, 436416, Note_on_c, 0, 79, 96
2, 436511, Note_on_c, 0, 79, 0
2, 436512, Note_on_c, 0, 78, 96
2, 436607, Note_on_c, 0, 78, 0
2, 436607, Note_on_c, 0, 59, 0
2, 436608, Note_on_c, 0, 61, 96
2, 436608, Note_on_c, 0, 76, 96
2, 436713, Note_on_c, 0, 76, 0
2, 436714, Note_on_c, 0, 78, 96
2, 436819, Note_on_c, 0, 78, 0
2, 436820, Note_on_c, 0, 79, 96
2, 436991, Note_on_c, 0, 61, 0
2, 436992, Note_on_c, 0, 57, 96
2, 437160, Note_on_c, 0, 79, 0
2, 437184, Note_on_c, 0, 78, 96
2, 437279, Note_on_c, 0, 78, 0
2, 437280, Note_on_c, 0, 76, 96
2, 437375, Note_on_c, 0, 76, 0
2, 437375, Note_on_c, 0, 57, 0
2, 437376, Note_on_c, 0, 59, 96
2, 437376, Note_on_c, 0, 74, 96
2, 437481, Note_on_c, 0, 74, 0
2, 437482, Note_on_c, 0, 76, 96
2, 437587, Note_on_c, 0, 76, 0
2, 437588, Note_on_c, 0, 78, 96
2, 437759, Note_on_c, 0, 59, 0
2, 437760, Note_on_c, 0, 56, 96
2, 437928, Note_on_c, 0, 78, 0
2, 437952, Note_on_c, 0, 76, 96
2, 438047, Note_on_c, 0, 76, 0
2, 438048, Note_on_c, 0, 74, 96
2, 438143, Note_on_c, 0, 74, 0
2, 438143, Note_on_c, 0, 56, 0
2, 438144, Note_on_c, 0, 57, 96
2, 438144, Note_on_c, 0, 73, 96
2, 438239, Note_on_c, 0, 73, 0
2, 438240, Note_on_c, 0, 76, 96
2, 438335, Note_on_c, 0, 76, 0
2, 438336, Note_on_c, 0, 74, 96
2, 438431, Note_on_c, 0, 74, 0
2, 438432, Note_on_c, 0, 73, 96
2, 438527, Note_on_c, 0, 73, 0
2, 438527, Note_on_c, 0, 57, 0
2, 438528, Note_on_c, 0, 52, 96
2, 438528, Note_on_c, 0, 74, 96
2, 438623, Note_on_c, 0, 74, 0
2, 438624, Note_on_c, 0, 73, 96
2, 438719, Note_on_c, 0, 73, 0
2, 438720, Note_on_c, 0, 71, 96
2, 438815, Note_on_c, 0, 71, 0
2, 438816, Note_on_c, 0, 69, 96
2, 438911, Note_on_c, 0, 52, 0
2, 438912, Note_on_c, 0, 55, 96
2, 438926, Note_on_c, 0, 69, 0
2, 439008, Note_on_c, 0, 78, 96
2, 439103, Note_on_c, 0, 78, 0
2, 439104, Note_on_c, 0, 76, 96
2, 439199, Note_on_c, 0, 76, 0
2, 439200, Note_on_c, 0, 74, 96
2, 439295, Note_on_c, 0, 74, 0
2, 439295, Note_on_c, 0, 55, 0
2, 439296, Note_on_c, 0, 49, 96
2, 439296, Note_on_c, 0, 76, 96
2, 439391, Note_on_c, 0, 76, 0
2, 439392, Note_on_c, 0, 73, 96
2, 439487, Note_on_c, 0, 73, 0
2, 439488, Note_on_c, 0, 71, 96
2, 439583, Note_on_c, 0, 71, 0
2, 439584, Note_on_c, 0, 69, 96
2, 439679, Note_on_c, 0, 49, 0
2, 439680, Note_on_c, 0, 52, 96
2, 439704, Note_on_c, 0, 69, 0
2, 439776, Note_on_c, 0, 79, 96
2, 439871, Note_on_c, 0, 79, 0
2, 439872, Note_on_c, 0, 78, 96
2, 439967, Note_on_c, 0, 78, 0
2, 439968, Note_on_c, 0, 76, 96
2, 440063, Note_on_c, 0, 76, 0
2, 440063, Note_on_c, 0, 52, 0
2, 440064, Note_on_c, 0, 45, 96
2, 440064, Note_on_c, 0, 78, 96
2, 440159, Note_on_c, 0, 78, 0
2, 440160, Note_on_c, 0, 73, 96
2, 440255, Note_on_c, 0, 73, 0
2, 440256, Note_on_c, 0, 71, 96
2, 440351, Note_on_c, 0, 71, 0
2, 440352, Note_on_c, 0, 69, 96
2, 440447, Note_on_c, 0, 45, 0
2, 440448, Note_on_c, 0, 37, 96
2, 440502, Note_on_c, 0, 69, 0
2, 440544, Note_on_c, 0, 81, 96
2, 440639, Note_on_c, 0, 81, 0
2, 440640, Note_on_c, 0, 79, 96
2, 440735, Note_on_c, 0, 79, 0
2, 440736, Note_on_c, 0, 78, 96
2, 440831, Note_on_c, 0, 78, 0
2, 440832, Note_on_c, 0, 79, 96
2, 440927, Note_on_c, 0, 79, 0
2, 440928, Note_on_c, 0, 78, 96
2, 441023, Note_on_c, 0, 78, 0
2, 441024, Note_on_c, 0, 76, 96
2, 441119, Note_on_c, 0, 76, 0
2, 441120, Note_on_c, 0, 74, 96
2, 441215, Note_on_c, 0, 74, 0
2, 441215, Note_on_c, 0, 37, 0
2, 441216, Note_on_c, 0, 73, 96
2, 441311, Note_on_c, 0, 73, 0
2, 441312, Note_on_c, 0, 76, 96
2, 441407, Note_on_c, 0, 76, 0
2, 441408, Note_on_c, 0, 74, 96
2, 441503, Note_on_c, 0, 74, 0
2, 441504, Note_on_c, 0, 73, 96
2, 441599, Note_on_c, 0, 73, 0
2, 441600, Note_on_c, 0, 74, 96
2, 441695, Note_on_c, 0, 74, 0
2, 441696, Note_on_c, 0, 73, 96
2, 441791, Note_on_c, 0, 73, 0
2, 441792, Note_on_c, 0, 71, 96
2, 441887, Note_on_c, 0, 71, 0
2, 441888, Note_on_c, 0, 69, 96
2, 441983, Note_on_c, 0, 69, 0
2, 441984, Note_on_c, 0, 67, 96
2, 442079, Note_on_c, 0, 67, 0
2, 442080, Note_on_c, 0, 71, 96
2, 442175, Note_on_c, 0, 71, 0
2, 442176, Note_on_c, 0, 69, 96
2, 442271, Note_on_c, 0, 69, 0
2, 442272, Note_on_c, 0, 67, 96
2, 442367, Note_on_c, 0, 67, 0
2, 442368, Note_on_c, 0, 49, 96
2, 442368, Note_on_c, 0, 69, 96
2, 442463, Note_on_c, 0, 69, 0
2, 442464, Note_on_c, 0, 67, 96
2, 442559, Note_on_c, 0, 67, 0
2, 442560, Note_on_c, 0, 66, 96
2, 442655, Note_on_c, 0, 66, 0
2, 442656, Note_on_c, 0, 64, 96
2, 442751, Note_on_c, 0, 64, 0
2, 442751, Note_on_c, 0, 49, 0
2, 442752, Note_on_c, 0, 50, 96
2, 442752, Note_on_c, 0, 66, 96
2, 442847, Note_on_c, 0, 66, 0
2, 442848, Note_on_c, 0, 69, 96
2, 442943, Note_on_c, 0, 69, 0
2, 442944, Note_on_c, 0, 62, 96
2, 443135, Note_on_c, 0, 50, 0
2, 443136, Note_on_c, 0, 52, 96
2, 443327, Note_on_c, 0, 62, 0
2, 443328, Note_on_c, 0, 61, 96
2, 443519, Note_on_c, 0, 61, 0
2, 443519, Note_on_c, 0, 52, 0
2, 443520, Note_on_c, 0, 54, 96
2, 443520, Note_on_c, 0, 62, 96
2, 443711, Note_on_c, 0, 62, 0
2, 443712, Note_on_c, 0, 57, 96
2, 443807, Note_on_c, 0, 57, 0
2, 443808, Note_on_c, 0, 62, 96
2, 443903, Note_on_c, 0, 62, 0
2, 443903, Note_on_c, 0, 54, 0
2, 443904, Note_on_c, 0, 57, 96
2, 443904, Note_on_c, 0, 66, 96
2, 443999, Note_on_c, 0, 66, 0
2, 444000, Note_on_c, 0, 64, 96
2, 444095, Note_on_c, 0, 64, 0
2, 444096, Note_on_c, 0, 62, 96
2, 444191, Note_on_c, 0, 62, 0
2, 444192, Note_on_c, 0, 61, 96
2, 444287, Note_on_c, 0, 61, 0
2, 444287, Note_on_c, 0, 57, 0
2, 444288, Note_on_c, 0, 54, 96
2, 444288, Note_on_c, 0, 62, 96
2, 444479, Note_on_c, 0, 62, 0
2, 444480, Note_on_c, 0, 57, 96
2, 444575, Note_on_c, 0, 57, 0
2, 444576, Note_on_c, 0, 62, 96
2, 444671, Note_on_c, 0, 62, 0
2, 444671, Note_on_c, 0, 54, 0
2, 444672, Note_on_c, 0, 50, 96
2, 444672, Note_on_c, 0, 66, 96
2, 444767, Note_on_c, 0, 66, 0
2, 444768, Note_on_c, 0, 64, 96
2, 444863, Note_on_c, 0, 64, 0
2, 444864, Note_on_c, 0, 62, 96
2, 444959, Note_on_c, 0, 62, 0
2, 444960, Note_on_c, 0, 61, 96
2, 445055, Note_on_c, 0, 61, 0
2, 445055, Note_on_c, 0, 50, 0
2, 445056, Note_on_c, 0, 47, 96
2, 445056, Note_on_c, 0, 62, 96
2, 445161, Note_on_c, 0, 62, 0
2, 445162, Note_on_c, 0, 66, 96
2, 445267, Note_on_c, 0, 66, 0
2, 445268, Note_on_c, 0, 67, 96
2, 445439, Note_on_c, 0, 47, 0
2, 445440, Note_on_c, 0, 45, 96
2, 445588, Note_on_c, 0, 67, 0
2, 445632, Note_on_c, 0, 66, 96
2, 445823, Note_on_c, 0, 66, 0
2, 445823, Note_on_c, 0, 45, 0
2, 445824, Note_on_c, 0, 47, 96
2, 445824, Note_on_c, 0, 67, 96
2, 446015, Note_on_c, 0, 67, 0
2, 446016, Note_on_c, 0, 62, 96
2, 446111, Note_on_c, 0, 62, 0
2, 446112, Note_on_c, 0, 67, 96
2, 446207, Note_on_c, 0, 67, 0
2, 446207, Note_on_c, 0, 47, 0
2, 446208, Note_on_c, 0, 50, 96
2, 446208, Note_on_c, 0, 71, 96
2, 446303, Note_on_c, 0, 71, 0
2, 446304, Note_on_c, 0, 69, 96
2, 446399, Note_on_c, 0, 69, 0
2, 446400, Note_on_c, 0, 67, 96
2, 446495, Note_on_c, 0, 67, 0
2, 446496, Note_on_c, 0, 66, 96
2, 446591, Note_on_c, 0, 66, 0
2, 446591, Note_on_c, 0, 50, 0
2, 446592, Note_on_c, 0, 47, 96
2, 446592, Note_on_c, 0, 67, 96
2, 446783, Note_on_c, 0, 67, 0
2, 446784, Note_on_c, 0, 62, 96
2, 446879, Note_on_c, 0, 62, 0
2, 446880, Note_on_c, 0, 67, 96
2, 446975, Note_on_c, 0, 67, 0
2, 446975, Note_on_c, 0, 47, 0
2, 446976, Note_on_c, 0, 43, 96
2, 446976, Note_on_c, 0, 71, 96
2, 447071, Note_on_c, 0, 71, 0
2, 447072, Note_on_c, 0, 69, 96
2, 447167, Note_on_c, 0, 69, 0
2, 447168, Note_on_c, 0, 67, 96
2, 447263, Note_on_c, 0, 67, 0
2, 447264, Note_on_c, 0, 66, 96
2, 447359, Note_on_c, 0, 66, 0
2, 447359, Note_on_c, 0, 43, 0
2, 447360, Note_on_c, 0, 40, 96
2, 447360, Note_on_c, 0, 67, 96
2, 447455, Note_on_c, 0, 67, 0
2, 447456, Note_on_c, 0, 71, 96
2, 447551, Note_on_c, 0, 71, 0
2, 447551, Note_on_c, 0, 40, 0
2, 447552, Note_on_c, 0, 49, 96
2, 447552, Note_on_c, 0, 69, 96
2, 447647, Note_on_c, 0, 69, 0
2, 447648, Note_on_c, 0, 67, 96
2, 447743, Note_on_c, 0, 67, 0
2, 447743, Note_on_c, 0, 49, 0
2, 447744, Note_on_c, 0, 50, 96
2, 447744, Note_on_c, 0, 66, 96
2, 447839, Note_on_c, 0, 66, 0
2, 447840, Note_on_c, 0, 64, 96
2, 447935, Note_on_c, 0, 64, 0
2, 447935, Note_on_c, 0, 50, 0
2, 447936, Note_on_c, 0, 45, 96
2, 447936, Note_on_c, 0, 66, 96
2, 448031, Note_on_c, 0, 66, 0
2, 448032, Note_on_c, 0, 69, 96
2, 448127, Note_on_c, 0, 69, 0
2, 448127, Note_on_c, 0, 45, 0
2, 448128, Note_on_c, 0, 42, 96
2, 448128, Note_on_c, 0, 74, 96
2, 448319, Note_on_c, 0, 74, 0
2, 448319, Note_on_c, 0, 42, 0
2, 448320, Note_on_c, 0, 40, 96
2, 448320, Note_on_c, 0, 73, 96
2, 448415, Note_on_c, 0, 73, 0
2, 448416, Note_on_c, 0, 71, 96
2, 448511, Note_on_c, 0, 71, 0
2, 448511, Note_on_c, 0, 40, 0
2, 448512, Note_on_c, 0, 42, 96
2, 448512, Note_on_c, 0, 69, 96
2, 448607, Note_on_c, 0, 69, 0
2, 448608, Note_on_c, 0, 67, 96
2, 448703, Note_on_c, 0, 67, 0
2, 448703, Note_on_c, 0, 42, 0
2, 448704, Note_on_c, 0, 43, 96
2, 448704, Note_on_c, 0, 66, 96
2, 448799, Note_on_c, 0, 66, 0
2, 448800, Note_on_c, 0, 64, 96
2, 448895, Note_on_c, 0, 64, 0
2, 448895, Note_on_c, 0, 43, 0
2, 448896, Note_on_c, 0, 45, 96
2, 448896, Note_on_c, 0, 66, 96
2, 449087, Note_on_c, 0, 66, 0
2, 449088, Note_on_c, 0, 62, 96
2, 449279, Note_on_c, 0, 62, 0
2, 449279, Note_on_c, 0, 45, 0
2, 449280, Note_on_c, 0, 33, 96
2, 449280, Note_on_c, 0, 57, 96
2, 449471, Note_on_c, 0, 57, 0
2, 449472, Note_on_c, 0, 61, 96
2, 449663, Note_on_c, 0, 61, 0
2, 449663, Note_on_c, 0, 33, 0
2, 449664, Note_on_c, 0, 38, 96
2, 449664, Note_on_c, 0, 62, 96
2, 449856, Note_on_c, 0, 42, 96
2, 450047, Note_on_c, 0, 42, 0
2, 450048, Note_on_c, 0, 45, 96
2, 450239, Note_on_c, 0, 45, 0
2, 450240, Note_on_c, 0, 50, 96
2, 450432, Note_on_c, 0, 54, 96
2, 450623, Note_on_c, 0, 54, 0
2, 450624, Note_on_c, 0, 57, 96
2, 450815, Note_on_c, 0, 62, 0
2, 450816, Note_on_c, 0, 62, 96
2, 451007, Note_on_c, 0, 62, 0
2, 451007, Note_on_c, 0, 57, 0
2, 451008, Note_on_c, 0, 52, 96
2, 451008, Note_on_c, 0, 55, 96
2, 451008, Note_on_c, 0, 61, 96
2, 451199, Note_on_c, 0, 61, 0
2, 451199, Note_on_c, 0, 52, 0
2, 451199, Note_on_c, 0, 55, 0
2, 451200, Note_on_c, 0, 57, 96
2, 451200, Note_on_c, 0, 54, 96
2, 451200, Note_on_c, 0, 62, 96
2, 452640, Note_on_c, 0, 38, 0
2, 452732, Note_on_c, 0, 54, 0
2, 452732, Note_on_c, 0, 62, 0
2, 452732, Note_on_c, 0, 57, 0
2, 452736, Note_on_c, 0, 50, 0
2, 456576, Note_on_c, 0, 50, 96
2, 456576, Note_on_c, 0, 79, 96
2, 456671, Note_on_c, 0, 79, 0
2, 456672, Note_on_c, 0, 78, 96
2, 456767, Note_on_c, 0, 78, 0
2, 456768, Note_on_c, 0, 79, 96
2, 456863, Note_on_c, 0, 79, 0
2, 456864, Note_on_c, 0, 78, 96
2, 456959, Note_on_c, 0, 78, 0
2, 456960, Note_on_c, 0, 62, 96
2, 456960, Note_on_c, 0, 79, 96
2, 457055, Note_on_c, 0, 79, 0
2, 457056, Note_on_c, 0, 78, 96
2, 457151, Note_on_c, 0, 78, 0
2, 457151, Note_on_c, 0, 62, 0
2, 457152, Note_on_c, 0, 61, 96
2, 457152, Note_on_c, 0, 76, 96
2, 457247, Note_on_c, 0, 76, 0
2, 457248, Note_on_c, 0, 78, 96
2, 457343, Note_on_c, 0, 78, 0
2, 457343, Note_on_c, 0, 61, 0
2, 457343, Note_on_c, 0, 50, 0
2, 457344, Note_on_c, 0, 59, 96
2, 457344, Note_on_c, 0, 62, 96
2, 457344, Note_on_c, 0, 79, 96
2, 457727, Note_on_c, 0, 79, 0
2, 457727, Note_on_c, 0, 59, 0
2, 457728, Note_on_c, 0, 55, 96
2, 457728, Note_on_c, 0, 76, 96
2, 458058, Note_on_c, 0, 76, 0
2, 458111, Note_on_c, 0, 62, 0
2, 458112, Note_on_c, 0, 61, 96
2, 458112, Note_on_c, 0, 81, 96
2, 458175, Note_on_c, 0, 81, 0
2, 458176, Note_on_c, 0, 79, 96
2, 458239, Note_on_c, 0, 79, 0
2, 458240, Note_on_c, 0, 81, 96
2, 458303, Note_on_c, 0, 61, 0
2, 458304, Note_on_c, 0, 59, 96
2, 458495, Note_on_c, 0, 59, 0
2, 458496, Note_on_c, 0, 61, 96
2, 458878, Note_on_c, 0, 55, 0
2, 458879, Note_on_c, 0, 61, 0
2, 458879, Note_on_c, 0, 81, 0
2, 458880, Note_on_c, 0, 54, 96
2, 458880, Note_on_c, 0, 57, 96
2, 458880, Note_on_c, 0, 62, 96
2, 458880, Note_on_c, 0, 74, 96
2, 459007, Note_on_c, 0, 74, 0
2, 459008, Note_on_c, 0, 76, 96
2, 459135, Note_on_c, 0, 76, 0
2, 459136, Note_on_c, 0, 78, 96
2, 459263, Note_on_c, 0, 78, 0
2, 459263, Note_on_c, 0, 54, 0
2, 459263, Note_on_c, 0, 57, 0
2, 459263, Note_on_c, 0, 62, 0
2, 459264, Note_on_c, 0, 52, 96
2, 459264, Note_on_c, 0, 55, 96
2, 459264, Note_on_c, 0, 57, 96
2, 459264, Note_on_c, 0, 61, 96
2, 459264, Note_on_c, 0, 79, 96
2, 459391, Note_on_c, 0, 79, 0
2, 459392, Note_on_c, 0, 78, 96
2, 459519, Note_on_c, 0, 78, 0
2, 459520, Note_on_c, 0, 76, 96
2, 459647, Note_on_c, 0, 76, 0
2, 459647, Note_on_c, 0, 57, 0
2, 459647, Note_on_c, 0, 52, 0
2, 459647, Note_on_c, 0, 55, 0
2, 459647, Note_on_c, 0, 61, 0
2, 459648, Note_on_c, 0, 50, 96
2, 459648, Note_on_c, 0, 57, 96
2, 459648, Note_on_c, 0, 54, 96
2, 459648, Note_on_c, 0, 62, 96
2, 459648, Note_on_c, 0, 81, 96
2, 459775, Note_on_c, 0, 81, 0
2, 459776, Note_on_c, 0, 79, 96
2, 459903, Note_on_c, 0, 79, 0
2, 459904, Note_on_c, 0, 78, 96
2, 460031, Note_on_c, 0, 78, 0
2, 460031, Note_on_c, 0, 50, 0
2, 460031, Note_on_c, 0, 54, 0
2, 460031, Note_on_c, 0, 57, 0
2, 460032, Note_on_c, 0, 57, 96
2, 460032, Note_on_c, 0, 78, 96
2, 460127, Note_on_c, 0, 78, 0
2, 460128, Note_on_c, 0, 76, 96
2, 460223, Note_on_c, 0, 76, 0
2, 460224, Note_on_c, 0, 78, 96
2, 460319, Note_on_c, 0, 78, 0
2, 460320, Note_on_c, 0, 76, 96
2, 460415, Note_on_c, 0, 76, 0
2, 460415, Note_on_c, 0, 62, 0
2, 460416, Note_on_c, 0, 61, 96
2, 460416, Note_on_c, 0, 78, 96
2, 460511, Note_on_c, 0, 78, 0
2, 460512, Note_on_c, 0, 76, 96
2, 460607, Note_on_c, 0, 76, 0
2, 460608, Note_on_c, 0, 74, 96
2, 460703, Note_on_c, 0, 74, 0
2, 460704, Note_on_c, 0, 76, 96
2, 460799, Note_on_c, 0, 76, 0
2, 460799, Note_on_c, 0, 61, 0
2, 460799, Note_on_c, 0, 57, 0
2, 460800, Note_on_c, 0, 62, 96
2, 460800, Note_on_c, 0, 50, 96
2, 460800, Note_on_c, 0, 74, 96
2, 460991, Note_on_c, 0, 62, 0
2, 460992, Note_on_c, 0, 57, 96
2, 461150, Note_on_c, 0, 74, 0
2, 461180, Note_on_c, 0, 50, 0
2, 461183, Note_on_c, 0, 57, 0
2, 461184, Note_on_c, 0, 62, 96
2, 461184, Note_on_c, 0, 78, 96
2, 461231, Note_on_c, 0, 78, 0
2, 461232, Note_on_c, 0, 76, 96
2, 461279, Note_on_c, 0, 76, 0
2, 461280, Note_on_c, 0, 78, 96
2, 461567, Note_on_c, 0, 62, 0
2, 461568, Note_on_c, 0, 50, 96
2, 461568, Note_on_c, 0, 57, 96
2, 461695, Note_on_c, 0, 78, 0
2, 461696, Note_on_c, 0, 79, 96
2, 461759, Note_on_c, 0, 79, 0
2, 461760, Note_on_c, 0, 78, 96
2, 461823, Note_on_c, 0, 78, 0
2, 461824, Note_on_c, 0, 76, 96
2, 461887, Note_on_c, 0, 76, 0
2, 461888, Note_on_c, 0, 78, 96
2, 461951, Note_on_c, 0, 78, 0
2, 461951, Note_on_c, 0, 57, 0
2, 461952, Note_on_c, 0, 59, 96
2, 461952, Note_on_c, 0, 79, 96
2, 462335, Note_on_c, 0, 79, 0
2, 462335, Note_on_c, 0, 59, 0
2, 462336, Note_on_c, 0, 55, 96
2, 462336, Note_on_c, 0, 76, 96
2, 462676, Note_on_c, 0, 76, 0
2, 462718, Note_on_c, 0, 50, 0
2, 462719, Note_on_c, 0, 55, 0
2, 462720, Note_on_c, 0, 49, 96
2, 462720, Note_on_c, 0, 52, 96
2, 462720, Note_on_c, 0, 81, 96
2, 462783, Note_on_c, 0, 81, 0
2, 462784, Note_on_c, 0, 79, 96
2, 462847, Note_on_c, 0, 79, 0
2, 462848, Note_on_c, 0, 81, 96
2, 462911, Note_on_c, 0, 49, 0
2, 462912, Note_on_c, 0, 47, 96
2, 463103, Note_on_c, 0, 47, 0
2, 463104, Note_on_c, 0, 45, 96
2, 463295, Note_on_c, 0, 45, 0
2, 463296, Note_on_c, 0, 43, 96
2, 463487, Note_on_c, 0, 43, 0
2, 463487, Note_on_c, 0, 81, 0
2, 463487, Note_on_c, 0, 52, 0
2, 463488, Note_on_c, 0, 42, 96
2, 463488, Note_on_c, 0, 74, 96
2, 463615, Note_on_c, 0, 74, 0
2, 463616, Note_on_c, 0, 76, 96
2, 463743, Note_on_c, 0, 76, 0
2, 463743, Note_on_c, 0, 50, 96
2, 463744, Note_on_c, 0, 78, 96
2, 463848, Note_on_c, 0, 42, 0
2, 463870, Note_on_c, 0, 50, 0
2, 463871, Note_on_c, 0, 78, 0
2, 463872, Note_on_c, 0, 40, 96
2, 463872, Note_on_c, 0, 79, 96
2, 463999, Note_on_c, 0, 79, 0
2, 464000, Note_on_c, 0, 78, 96
2, 464127, Note_on_c, 0, 78, 0
2, 464127, Note_on_c, 0, 49, 96
2, 464128, Note_on_c, 0, 76, 96
2, 464232, Note_on_c, 0, 40, 0
2, 464254, Note_on_c, 0, 49, 0
2, 464255, Note_on_c, 0, 76, 0
2, 464256, Note_on_c, 0, 38, 96
2, 464256, Note_on_c, 0, 81, 96
2, 464383, Note_on_c, 0, 81, 0
2, 464384, Note_on_c, 0, 79, 96
2, 464511, Note_on_c, 0, 79, 0
2, 464511, Note_on_c, 0, 50, 96
2, 464512, Note_on_c, 0, 78, 96
2, 464616, Note_on_c, 0, 38, 0
2, 464639, Note_on_c, 0, 78, 0
2, 464640, Note_on_c, 0, 45, 96
2, 464640, Note_on_c, 0, 76, 96
2, 464791, Note_on_c, 0, 50, 0
2, 464832, Note_on_c, 0, 47, 96
2, 465023, Note_on_c, 0, 47, 0
2, 465024, Note_on_c, 0, 49, 96
2, 465219, Note_on_c, 0, 49, 0
2, 465220, Note_on_c, 0, 52, 96
2, 465407, Note_on_c, 0, 52, 0
2, 465408, Note_on_c, 0, 57, 96
2, 465620, Note_on_c, 0, 76, 0
2, 465788, Note_on_c, 0, 57, 0
2, 465790, Note_on_c, 0, 45, 0
2, 465792, Note_on_c, 0, 69, 96
2, 465919, Note_on_c, 0, 69, 0
2, 465920, Note_on_c, 0, 71, 96
2, 466047, Note_on_c, 0, 71, 0
2, 466048, Note_on_c, 0, 73, 96
2, 466175, Note_on_c, 0, 73, 0
2, 466176, Note_on_c, 0, 74, 96
2, 466303, Note_on_c, 0, 74, 0
2, 466304, Note_on_c, 0, 73, 96
2, 466431, Note_on_c, 0, 73, 0
2, 466432, Note_on_c, 0, 71, 96
2, 466559, Note_on_c, 0, 71, 0
2, 466560, Note_on_c, 0, 73, 96
2, 466687, Note_on_c, 0, 73, 0
2, 466688, Note_on_c, 0, 71, 96
2, 466815, Note_on_c, 0, 71, 0
2, 466816, Note_on_c, 0, 69, 96
2, 466943, Note_on_c, 0, 69, 0
2, 466944, Note_on_c, 0, 45, 96
2, 466944, Note_on_c, 0, 81, 96
2, 467135, Note_on_c, 0, 45, 0
2, 467136, Note_on_c, 0, 47, 96
2, 467327, Note_on_c, 0, 47, 0
2, 467327, Note_on_c, 0, 81, 0
2, 467328, Note_on_c, 0, 49, 96
2, 467328, Note_on_c, 0, 76, 96
2, 467519, Note_on_c, 0, 76, 0
2, 467519, Note_on_c, 0, 49, 0
2, 467520, Note_on_c, 0, 50, 96
2, 467520, Note_on_c, 0, 74, 96
2, 467711, Note_on_c, 0, 74, 0
2, 467711, Note_on_c, 0, 50, 0
2, 467712, Note_on_c, 0, 52, 96
2, 467712, Note_on_c, 0, 73, 96
2, 467903, Note_on_c, 0, 73, 0
2, 467903, Note_on_c, 0, 52, 0
2, 467904, Note_on_c, 0, 54, 96
2, 467904, Note_on_c, 0, 71, 96
2, 468095, Note_on_c, 0, 71, 0
2, 468095, Note_on_c, 0, 54, 0
2, 468096, Note_on_c, 0, 55, 96
2, 468096, Note_on_c, 0, 69, 96
2, 468223, Note_on_c, 0, 69, 0
2, 468224, Note_on_c, 0, 71, 96
2, 468351, Note_on_c, 0, 71, 0
2, 468352, Note_on_c, 0, 73, 96
2, 468476, Note_on_c, 0, 55, 0
2, 468479, Note_on_c, 0, 73, 0
2, 468480, Note_on_c, 0, 74, 96
2, 468607, Note_on_c, 0, 74, 0
2, 468608, Note_on_c, 0, 73, 96
2, 468735, Note_on_c, 0, 73, 0
2, 468736, Note_on_c, 0, 71, 96
2, 468863, Note_on_c, 0, 71, 0
2, 468864, Note_on_c, 0, 73, 96
2, 468991, Note_on_c, 0, 73, 0
2, 468992, Note_on_c, 0, 71, 96
2, 469119, Note_on_c, 0, 71, 0
2, 469120, Note_on_c, 0, 69, 96
2, 469247, Note_on_c, 0, 69, 0
2, 469248, Note_on_c, 0, 46, 96
2, 469248, Note_on_c, 0, 79, 96
2, 469439, Note_on_c, 0, 46, 0
2, 469440, Note_on_c, 0, 47, 96
2, 469631, Note_on_c, 0, 47, 0
2, 469632, Note_on_c, 0, 49, 96
2, 469823, Note_on_c, 0, 49, 0
2, 469824, Note_on_c, 0, 50, 96
2, 470015, Note_on_c, 0, 50, 0
2, 470016, Note_on_c, 0, 52, 96
2, 470207, Note_on_c, 0, 52, 0
2, 470208, Note_on_c, 0, 49, 96
2, 470399, Note_on_c, 0, 49, 0
2, 470399, Note_on_c, 0, 79, 0
2, 470400, Note_on_c, 0, 50, 96
2, 470400, Note_on_c, 0, 78, 96
2, 470527, Note_on_c, 0, 78, 0
2, 470528, Note_on_c, 0, 76, 96
2, 470655, Note_on_c, 0, 76, 0
2, 470656, Note_on_c, 0, 74, 96
2, 470783, Note_on_c, 0, 74, 0
2, 470783, Note_on_c, 0, 50, 0
2, 470784, Note_on_c, 0, 59, 96
2, 470784, Note_on_c, 0, 55, 96
2, 470784, Note_on_c, 0, 64, 96
2, 470784, Note_on_c, 0, 73, 96
2, 470911, Note_on_c, 0, 73, 0
2, 470912, Note_on_c, 0, 74, 96
2, 471039, Note_on_c, 0, 74, 0
2, 471040, Note_on_c, 0, 76, 96
2, 471167, Note_on_c, 0, 76, 0
2, 471167, Note_on_c, 0, 59, 0
2, 471167, Note_on_c, 0, 55, 0
2, 471167, Note_on_c, 0, 64, 0
2, 471168, Note_on_c, 0, 52, 96
2, 471168, Note_on_c, 0, 55, 96
2, 471168, Note_on_c, 0, 59, 96
2, 471168, Note_on_c, 0, 74, 96
2, 471295, Note_on_c, 0, 74, 0
2, 471296, Note_on_c, 0, 73, 96
2, 471423, Note_on_c, 0, 73, 0
2, 471424, Note_on_c, 0, 71, 96
2, 471551, Note_on_c, 0, 71, 0
2, 471551, Note_on_c, 0, 52, 0
2, 471551, Note_on_c, 0, 55, 0
2, 471551, Note_on_c, 0, 59, 0
2, 471552, Note_on_c, 0, 54, 96
2, 471552, Note_on_c, 0, 70, 96
2, 471679, Note_on_c, 0, 70, 0
2, 471680, Note_on_c, 0, 71, 96
2, 471807, Note_on_c, 0, 71, 0
2, 471808, Note_on_c, 0, 73, 96
2, 471935, Note_on_c, 0, 73, 0
2, 471936, Note_on_c, 0, 61, 96
2, 471936, Note_on_c, 0, 71, 96
2, 472063, Note_on_c, 0, 71, 0
2, 472064, Note_on_c, 0, 70, 96
2, 472127, Note_on_c, 0, 54, 0
2, 472191, Note_on_c, 0, 70, 0
2, 472191, Note_on_c, 0, 50, 96
2, 472192, Note_on_c, 0, 68, 96
2, 472318, Note_on_c, 0, 50, 0
2, 472319, Note_on_c, 0, 68, 0
2, 472320, Note_on_c, 0, 52, 96
2, 472320, Note_on_c, 0, 66, 96
2, 472575, Note_on_c, 0, 52, 0
2, 472575, Note_on_c, 0, 49, 96
2, 472702, Note_on_c, 0, 49, 0
2, 472704, Note_on_c, 0, 50, 96
2, 472831, Note_on_c, 0, 66, 0
2, 472832, Note_on_c, 0, 68, 96
2, 472959, Note_on_c, 0, 68, 0
2, 472960, Note_on_c, 0, 70, 96
2, 473086, Note_on_c, 0, 61, 0
2, 473087, Note_on_c, 0, 70, 0
2, 473088, Note_on_c, 0, 54, 96
2, 473088, Note_on_c, 0, 59, 96
2, 473088, Note_on_c, 0, 71, 96
2, 473215, Note_on_c, 0, 71, 0
2, 473216, Note_on_c, 0, 73, 96
2, 473343, Note_on_c, 0, 73, 0
2, 473344, Note_on_c, 0, 74, 96
2, 473471, Note_on_c, 0, 74, 0
2, 473471, Note_on_c, 0, 50, 0
2, 473471, Note_on_c, 0, 54, 0
2, 473471, Note_on_c, 0, 59, 0
2, 473472, Note_on_c, 0, 49, 96
2, 473472, Note_on_c, 0, 58, 96
2, 473472, Note_on_c, 0, 54, 96
2, 473472, Note_on_c, 0, 76, 96
2, 473599, Note_on_c, 0, 76, 0
2, 473600, Note_on_c, 0, 74, 96
2, 473727, Note_on_c, 0, 74, 0
2, 473728, Note_on_c, 0, 73, 96
2, 473855, Note_on_c, 0, 73, 0
2, 473855, Note_on_c, 0, 49, 0
2, 473855, Note_on_c, 0, 58, 0
2, 473855, Note_on_c, 0, 54, 0
2, 473856, Note_on_c, 0, 47, 96
2, 473856, Note_on_c, 0, 54, 96
2, 473856, Note_on_c, 0, 59, 96
2, 473856, Note_on_c, 0, 74, 96
2, 473983, Note_on_c, 0, 74, 0
2, 473984, Note_on_c, 0, 76, 96
2, 474111, Note_on_c, 0, 76, 0
2, 474112, Note_on_c, 0, 78, 96
2, 474239, Note_on_c, 0, 78, 0
2, 474239, Note_on_c, 0, 47, 0
2, 474239, Note_on_c, 0, 54, 0
2, 474239, Note_on_c, 0, 59, 0
2, 474240, Note_on_c, 0, 49, 96
2, 474240, Note_on_c, 0, 52, 96
2, 474240, Note_on_c, 0, 79, 96
2, 474367, Note_on_c, 0, 79, 0
2, 474368, Note_on_c, 0, 78, 96
2, 474495, Note_on_c, 0, 78, 0
2, 474496, Note_on_c, 0, 76, 96
2, 474623, Note_on_c, 0, 76, 0
2, 474623, Note_on_c, 0, 52, 0
2, 474623, Note_on_c, 0, 49, 0
2, 474624, Note_on_c, 0, 51, 96
2, 474624, Note_on_c, 0, 59, 96
2, 474624, Note_on_c, 0, 78, 96
2, 474751, Note_on_c, 0, 78, 0
2, 474752, Note_on_c, 0, 79, 96
2, 474879, Note_on_c, 0, 79, 0
2, 474880, Note_on_c, 0, 81, 96
2, 475007, Note_on_c, 0, 81, 0
2, 475007, Note_on_c, 0, 51, 0
2, 475008, Note_on_c, 0, 52, 96
2, 475008, Note_on_c, 0, 79, 96
2, 475135, Note_on_c, 0, 79, 0
2, 475136, Note_on_c, 0, 78, 96
2, 475263, Note_on_c, 0, 78, 0
2, 475264, Note_on_c, 0, 79, 96
2, 475391, Note_on_c, 0, 79, 0
2, 475391, Note_on_c, 0, 52, 0
2, 475391, Note_on_c, 0, 59, 0
2, 475392, Note_on_c, 0, 52, 96
2, 475392, Note_on_c, 0, 49, 96
2, 475392, Note_on_c, 0, 69, 96
2, 475519, Note_on_c, 0, 69, 0
2, 475520, Note_on_c, 0, 73, 96
2, 475647, Note_on_c, 0, 73, 0
2, 475648, Note_on_c, 0, 76, 96
2, 475775, Note_on_c, 0, 76, 0
2, 475775, Note_on_c, 0, 49, 0
2, 475775, Note_on_c, 0, 52, 0
2, 475776, Note_on_c, 0, 49, 96
2, 475776, Note_on_c, 0, 45, 96
2, 475776, Note_on_c, 0, 52, 96
2, 475776, Note_on_c, 0, 79, 96
2, 475903, Note_on_c, 0, 79, 0
2, 475904, Note_on_c, 0, 78, 96
2, 476031, Note_on_c, 0, 78, 0
2, 476032, Note_on_c, 0, 76, 96
2, 476159, Note_on_c, 0, 76, 0
2, 476159, Note_on_c, 0, 49, 0
2, 476159, Note_on_c, 0, 45, 0
2, 476159, Note_on_c, 0, 52, 0
2, 476160, Note_on_c, 0, 38, 96
2, 476160, Note_on_c, 0, 50, 96
2, 476160, Note_on_c, 0, 78, 96
2, 476287, Note_on_c, 0, 78, 0
2, 476288, Note_on_c, 0, 76, 96
2, 476415, Note_on_c, 0, 76, 0
2, 476416, Note_on_c, 0, 78, 96
2, 476543, Note_on_c, 0, 78, 0
2, 476543, Note_on_c, 0, 50, 0
2, 476543, Note_on_c, 0, 38, 0
2, 476544, Note_on_c, 0, 49, 96
2, 476544, Note_on_c, 0, 52, 96
2, 476544, Note_on_c, 0, 55, 96
2, 476544, Note_on_c, 0, 70, 96
2, 476671, Note_on_c, 0, 70, 0
2, 476672, Note_on_c, 0, 73, 96
2, 476799, Note_on_c, 0, 73, 0
2, 476800, Note_on_c, 0, 74, 96
2, 476927, Note_on_c, 0, 74, 0
2, 476927, Note_on_c, 0, 49, 0
2, 476927, Note_on_c, 0, 52, 0
2, 476927, Note_on_c, 0, 55, 0
2, 476928, Note_on_c, 0, 46, 96
2, 476928, Note_on_c, 0, 49, 96
2, 476928, Note_on_c, 0, 54, 96
2, 476928, Note_on_c, 0, 76, 96
2, 477055, Note_on_c, 0, 76, 0
2, 477056, Note_on_c, 0, 74, 96
2, 477183, Note_on_c, 0, 74, 0
2, 477184, Note_on_c, 0, 73, 96
2, 477311, Note_on_c, 0, 73, 0
2, 477311, Note_on_c, 0, 46, 0
2, 477311, Note_on_c, 0, 49, 0
2, 477312, Note_on_c, 0, 47, 96
2, 477312, Note_on_c, 0, 74, 96
2, 477439, Note_on_c, 0, 74, 0
2, 477440, Note_on_c, 0, 73, 96
2, 477567, Note_on_c, 0, 73, 0
2, 477568, Note_on_c, 0, 71, 96
2, 477695, Note_on_c, 0, 71, 0
2, 477695, Note_on_c, 0, 47, 0
2, 477695, Note_on_c, 0, 54, 0
2, 477696, Note_on_c, 0, 40, 96
2, 477696, Note_on_c, 0, 52, 96
2, 477696, Note_on_c, 0, 73, 96
2, 478079, Note_on_c, 0, 73, 0
2, 478079, Note_on_c, 0, 52, 0
2, 478079, Note_on_c, 0, 40, 0
2, 478080, Note_on_c, 0, 49, 96
2, 478080, Note_on_c, 0, 42, 96
2, 478080, Note_on_c, 0, 70, 96
2, 478463, Note_on_c, 0, 70, 0
2, 478463, Note_on_c, 0, 42, 0
2, 478463, Note_on_c, 0, 49, 0
2, 478464, Note_on_c, 0, 47, 96
2, 478464, Note_on_c, 0, 71, 96
2, 478592, Note_on_c, 0, 66, 96
2, 478719, Note_on_c, 0, 66, 0
2, 478720, Note_on_c, 0, 62, 96
2, 478847, Note_on_c, 0, 62, 0
2, 478848, Note_on_c, 0, 59, 96
2, 478975, Note_on_c, 0, 59, 0
2, 478975, Note_on_c, 0, 47, 0
2, 478976, Note_on_c, 0, 54, 96
2, 479103, Note_on_c, 0, 54, 0
2, 479104, Note_on_c, 0, 50, 96
2, 479231, Note_on_c, 0, 50, 0
2, 479232, Note_on_c, 0, 47, 96
2, 479359, Note_on_c, 0, 47, 0
2, 479360, Note_on_c, 0, 50, 96
2, 479487, Note_on_c, 0, 50, 0
2, 479488, Note_on_c, 0, 54, 96
2, 479614, Note_on_c, 0, 71, 0
2, 479615, Note_on_c, 0, 54, 0
2, 479616, Note_on_c, 0, 59, 96
2, 479616, Note_on_c, 0, 66, 96
2, 479616, Note_on_c, 0, 62, 96
2, 479679, Note_on_c, 0, 66, 0
2, 479680, Note_on_c, 0, 64, 96
2, 479743, Note_on_c, 0, 64, 0
2, 479744, Note_on_c, 0, 66, 96
2, 479999, Note_on_c, 0, 59, 0
2, 480000, Note_on_c, 0, 57, 96
2, 480191, Note_on_c, 0, 57, 0
2, 480191, Note_on_c, 0, 66, 0
2, 480192, Note_on_c, 0, 55, 96
2, 480192, Note_on_c, 0, 67, 96
2, 480255, Note_on_c, 0, 67, 0
2, 480256, Note_on_c, 0, 66, 96
2, 480319, Note_on_c, 0, 66, 0
2, 480320, Note_on_c, 0, 64, 96
2, 480383, Note_on_c, 0, 64, 0
2, 480383, Note_on_c, 0, 55, 0
2, 480384, Note_on_c, 0, 54, 96
2, 480384, Note_on_c, 0, 66, 96
2, 480447, Note_on_c, 0, 66, 0
2, 480448, Note_on_c, 0, 67, 96
2, 480575, Note_on_c, 0, 54, 0
2, 480576, Note_on_c, 0, 52, 96
2, 480767, Note_on_c, 0, 52, 0
2, 480768, Note_on_c, 0, 67, 0
2, 480768, Note_on_c, 0, 54, 96
2, 480768, Note_on_c, 0, 69, 96
2, 480895, Note_on_c, 0, 54, 0
2, 480896, Note_on_c, 0, 55, 96
2, 481023, Note_on_c, 0, 55, 0
2, 481024, Note_on_c, 0, 57, 96
2, 481151, Note_on_c, 0, 57, 0
2, 481151, Note_on_c, 0, 69, 0
2, 481152, Note_on_c, 0, 55, 96
2, 481152, Note_on_c, 0, 69, 96
2, 481152, Note_on_c, 0, 72, 96
2, 481343, Note_on_c, 0, 55, 0
2, 481344, Note_on_c, 0, 54, 96
2, 481535, Note_on_c, 0, 54, 0
2, 481536, Note_on_c, 0, 52, 96
2, 481727, Note_on_c, 0, 52, 0
2, 481728, Note_on_c, 0, 50, 96
2, 481872, Note_on_c, 0, 72, 0
2, 481872, Note_on_c, 0, 69, 0
2, 481916, Note_on_c, 0, 62, 0
2, 481919, Note_on_c, 0, 50, 0
2, 481920, Note_on_c, 0, 55, 96
2, 481920, Note_on_c, 0, 71, 96
2, 482047, Note_on_c, 0, 71, 0
2, 482048, Note_on_c, 0, 73, 96
2, 482175, Note_on_c, 0, 73, 0
2, 482175, Note_on_c, 0, 55, 0
2, 482175, Note_on_c, 0, 54, 96
2, 482176, Note_on_c, 0, 74, 96
2, 482302, Note_on_c, 0, 54, 0
2, 482303, Note_on_c, 0, 74, 0
2, 482304, Note_on_c, 0, 55, 96
2, 482304, Note_on_c, 0, 73, 96
2, 482431, Note_on_c, 0, 73, 0
2, 482432, Note_on_c, 0, 74, 96
2, 482559, Note_on_c, 0, 74, 0
2, 482559, Note_on_c, 0, 55, 0
2, 482559, Note_on_c, 0, 52, 96
2, 482560, Note_on_c, 0, 76, 96
2, 482686, Note_on_c, 0, 52, 0
2, 482687, Note_on_c, 0, 76, 0
2, 482688, Note_on_c, 0, 54, 96
2, 482688, Note_on_c, 0, 74, 96
2, 482815, Note_on_c, 0, 74, 0
2, 482816, Note_on_c, 0, 76, 96
2, 482943, Note_on_c, 0, 76, 0
2, 482943, Note_on_c, 0, 54, 0
2, 482943, Note_on_c, 0, 50, 96
2, 482944, Note_on_c, 0, 78, 96
2, 483070, Note_on_c, 0, 50, 0
2, 483071, Note_on_c, 0, 78, 0
2, 483072, Note_on_c, 0, 57, 96
2, 483072, Note_on_c, 0, 76, 96
2, 483199, Note_on_c, 0, 76, 0
2, 483200, Note_on_c, 0, 74, 96
2, 483327, Note_on_c, 0, 74, 0
2, 483327, Note_on_c, 0, 57, 0
2, 483327, Note_on_c, 0, 52, 96
2, 483328, Note_on_c, 0, 73, 96
2, 483454, Note_on_c, 0, 52, 0
2, 483455, Note_on_c, 0, 73, 0
2, 483456, Note_on_c, 0, 45, 96
2, 483456, Note_on_c, 0, 74, 96
2, 483583, Note_on_c, 0, 74, 0
2, 483584, Note_on_c, 0, 73, 96
2, 483711, Note_on_c, 0, 73, 0
2, 483711, Note_on_c, 0, 45, 0
2, 483711, Note_on_c, 0, 49, 96
2, 483712, Note_on_c, 0, 71, 96
2, 483838, Note_on_c, 0, 49, 0
2, 483839, Note_on_c, 0, 71, 0
2, 483840, Note_on_c, 0, 52, 96
2, 483840, Note_on_c, 0, 69, 96
2, 483967, Note_on_c, 0, 69, 0
2, 483968, Note_on_c, 0, 73, 96
2, 484095, Note_on_c, 0, 73, 0
2, 484095, Note_on_c, 0, 52, 0
2, 484095, Note_on_c, 0, 55, 96
2, 484096, Note_on_c, 0, 76, 96
2, 484222, Note_on_c, 0, 55, 0
2, 484223, Note_on_c, 0, 76, 0
2, 484224, Note_on_c, 0, 54, 96
2, 484224, Note_on_c, 0, 81, 96
2, 484607, Note_on_c, 0, 54, 0
2, 484608, Note_on_c, 0, 50, 96
2, 484608, Note_on_c, 0, 57, 96
2, 484608, Note_on_c, 0, 54, 96
2, 484608, Note_on_c, 0, 62, 96
2, 484735, Note_on_c, 0, 81, 0
2, 484736, Note_on_c, 0, 83, 96
2, 484799, Note_on_c, 0, 83, 0
2, 484800, Note_on_c, 0, 81, 96
2, 484863, Note_on_c, 0, 81, 0
2, 484864, Note_on_c, 0, 79, 96
2, 484927, Note_on_c, 0, 79, 0
2, 484928, Note_on_c, 0, 81, 96
2, 484991, Note_on_c, 0, 81, 0
2, 484991, Note_on_c, 0, 54, 0
2, 484991, Note_on_c, 0, 50, 0
2, 484991, Note_on_c, 0, 57, 0
2, 484991, Note_on_c, 0, 62, 0
2, 484992, Note_on_c, 0, 62, 96
2, 484992, Note_on_c, 0, 55, 96
2, 484992, Note_on_c, 0, 83, 96
2, 485372, Note_on_c, 0, 62, 0
2, 485375, Note_on_c, 0, 83, 0
2, 485376, Note_on_c, 0, 64, 96
2, 485376, Note_on_c, 0, 69, 96
2, 485376, Note_on_c, 0, 73, 96
2, 485503, Note_on_c, 0, 55, 0
2, 485504, Note_on_c, 0, 54, 96
2, 485631, Note_on_c, 0, 54, 0
2, 485632, Note_on_c, 0, 52, 96
2, 485759, Note_on_c, 0, 52, 0
2, 485759, Note_on_c, 0, 64, 0
2, 485759, Note_on_c, 0, 69, 0
2, 485759, Note_on_c, 0, 73, 0
2, 485760, Note_on_c, 0, 50, 96
2, 485760, Note_on_c, 0, 79, 96
2, 485760, Note_on_c, 0, 76, 96
2, 485760, Note_on_c, 0, 69, 96
2, 485887, Note_on_c, 0, 50, 0
2, 485888, Note_on_c, 0, 49, 96
2, 486015, Note_on_c, 0, 49, 0
2, 486016, Note_on_c, 0, 47, 96
2, 486143, Note_on_c, 0, 47, 0
2, 486144, Note_on_c, 0, 49, 96
2, 486271, Note_on_c, 0, 49, 0
2, 486272, Note_on_c, 0, 47, 96
2, 486399, Note_on_c, 0, 47, 0
2, 486400, Note_on_c, 0, 45, 96
2, 486500, Note_on_c, 0, 79, 0
2, 486500, Note_on_c, 0, 69, 0
2, 486500, Note_on_c, 0, 76, 0
2, 486527, Note_on_c, 0, 45, 0
2, 486528, Note_on_c, 0, 50, 96
2, 486528, Note_on_c, 0, 78, 96
2, 486655, Note_on_c, 0, 78, 0
2, 486656, Note_on_c, 0, 76, 96
2, 486783, Note_on_c, 0, 76, 0
2, 486784, Note_on_c, 0, 74, 96
2, 486911, Note_on_c, 0, 74, 0
2, 486911, Note_on_c, 0, 50, 0
2, 486912, Note_on_c, 0, 43, 96
2, 486912, Note_on_c, 0, 47, 96
2, 486912, Note_on_c, 0, 55, 96
2, 486912, Note_on_c, 0, 76, 96
2, 487039, Note_on_c, 0, 76, 0
2, 487040, Note_on_c, 0, 78, 96
2, 487167, Note_on_c, 0, 78, 0
2, 487168, Note_on_c, 0, 79, 96
2, 487295, Note_on_c, 0, 79, 0
2, 487295, Note_on_c, 0, 43, 0
2, 487295, Note_on_c, 0, 47, 0
2, 487295, Note_on_c, 0, 55, 0
2, 487296, Note_on_c, 0, 45, 96
2, 487296, Note_on_c, 0, 55, 96
2, 487296, Note_on_c, 0, 52, 96
2, 487296, Note_on_c, 0, 69, 96
2, 487423, Note_on_c, 0, 69, 0
2, 487424, Note_on_c, 0, 71, 96
2, 487551, Note_on_c, 0, 71, 0
2, 487552, Note_on_c, 0, 73, 96
2, 487679, Note_on_c, 0, 73, 0
2, 487679, Note_on_c, 0, 52, 0
2, 487679, Note_on_c, 0, 45, 0
2, 487680, Note_on_c, 0, 50, 96
2, 487680, Note_on_c, 0, 74, 96
2, 487871, Note_on_c, 0, 55, 0
2, 487872, Note_on_c, 0, 52, 96
2, 488063, Note_on_c, 0, 52, 0
2, 488064, Note_on_c, 0, 54, 96
2, 488255, Note_on_c, 0, 54, 0
2, 488255, Note_on_c, 0, 50, 0
2, 488256, Note_on_c, 0, 50, 96
2, 488448, Note_on_c, 0, 38, 96
2, 488831, Note_on_c, 0, 50, 0
2, 488904, Note_on_c, 0, 62, 96
2, 488928, Note_on_c, 0, 38, 0
2, 488930, Note_on_c, 0, 74, 0
2, 489344, Note_on_c, 0, 62, 0
2, 489344, Note_on_c, 0, 66, 96
2, 489470, Note_on_c, 0, 66, 0
2, 489472, Note_on_c, 0, 69, 96
2, 489598, Note_on_c, 0, 69, 0
2, 489600, Note_on_c, 0, 74, 96
2, 489726, Note_on_c, 0, 74, 0
2, 489728, Note_on_c, 0, 69, 96
2, 489854, Note_on_c, 0, 69, 0
2, 489856, Note_on_c, 0, 66, 96
2, 489982, Note_on_c, 0, 66, 0
2, 489984, Note_on_c, 0, 62, 96
2, 490110, Note_on_c, 0, 62, 0
2, 490112, Note_on_c, 0, 66, 96
2, 490238, Note_on_c, 0, 66, 0
2, 490240, Note_on_c, 0, 69, 96
2, 490366, Note_on_c, 0, 69, 0
2, 490368, Note_on_c, 0, 72, 96
2, 490748, Note_on_c, 0, 72, 0
2, 491136, Note_on_c, 0, 71, 96
2, 491262, Note_on_c, 0, 71, 0
2, 491264, Note_on_c, 0, 69, 96
2, 491390, Note_on_c, 0, 69, 0
2, 491392, Note_on_c, 0, 71, 96
2, 491518, Note_on_c, 0, 71, 0
2, 491520, Note_on_c, 0, 64, 96
2, 492030, Note_on_c, 0, 64, 0
2, 492032, Note_on_c, 0, 66, 96
2, 492158, Note_on_c, 0, 66, 0
2, 492160, Note_on_c, 0, 67, 96
2, 492286, Note_on_c, 0, 67, 0
2, 492288, Note_on_c, 0, 69, 96
2, 492414, Note_on_c, 0, 69, 0
2, 492416, Note_on_c, 0, 67, 96
2, 492542, Note_on_c, 0, 67, 0
2, 492544, Note_on_c, 0, 69, 96
2, 492670, Note_on_c, 0, 69, 0
2, 492672, Note_on_c, 0, 62, 96
2, 493182, Note_on_c, 0, 62, 0
2, 493184, Note_on_c, 0, 64, 96
2, 493310, Note_on_c, 0, 64, 0
2, 493312, Note_on_c, 0, 66, 96
2, 493438, Note_on_c, 0, 66, 0
2, 493440, Note_on_c, 0, 67, 96
2, 493566, Note_on_c, 0, 67, 0
2, 493568, Note_on_c, 0, 64, 96
2, 493694, Note_on_c, 0, 64, 0
2, 493696, Note_on_c, 0, 61, 96
2, 493822, Note_on_c, 0, 61, 0
2, 493824, Note_on_c, 0, 57, 96
2, 493950, Note_on_c, 0, 57, 0
2, 493952, Note_on_c, 0, 61, 96
2, 494078, Note_on_c, 0, 61, 0
2, 494080, Note_on_c, 0, 64, 96
2, 494206, Note_on_c, 0, 64, 0
2, 494208, Note_on_c, 0, 67, 96
2, 494334, Note_on_c, 0, 67, 0
2, 494336, Note_on_c, 0, 66, 96
2, 494462, Note_on_c, 0, 66, 0
2, 494464, Note_on_c, 0, 64, 96
2, 494590, Note_on_c, 0, 64, 0
2, 494592, Note_on_c, 0, 66, 96
2, 494718, Note_on_c, 0, 66, 0
2, 494720, Note_on_c, 0, 62, 96
2, 494846, Note_on_c, 0, 62, 0
2, 494848, Note_on_c, 0, 64, 96
2, 494974, Note_on_c, 0, 64, 0
2, 494976, Note_on_c, 0, 66, 96
2, 495102, Note_on_c, 0, 66, 0
2, 495104, Note_on_c, 0, 68, 96
2, 495230, Note_on_c, 0, 68, 0
2, 495232, Note_on_c, 0, 69, 96
2, 495358, Note_on_c, 0, 69, 0
2, 495360, Note_on_c, 0, 71, 96
2, 495486, Note_on_c, 0, 71, 0
2, 495488, Note_on_c, 0, 73, 96
2, 495614, Note_on_c, 0, 73, 0
2, 495616, Note_on_c, 0, 74, 96
2, 495742, Note_on_c, 0, 74, 0
2, 495744, Note_on_c, 0, 73, 96
2, 495744, Note_on_c, 0, 57, 96
2, 495870, Note_on_c, 0, 73, 0
2, 495872, Note_on_c, 0, 71, 96
2, 495998, Note_on_c, 0, 71, 0
2, 496000, Note_on_c, 0, 69, 96
2, 496126, Note_on_c, 0, 69, 0
2, 496128, Note_on_c, 0, 74, 96
2, 496254, Note_on_c, 0, 74, 0
2, 496254, Note_on_c, 0, 57, 0
2, 496256, Note_on_c, 0, 73, 96
2, 496256, Note_on_c, 0, 61, 96
2, 496382, Note_on_c, 0, 61, 0
2, 496382, Note_on_c, 0, 73, 0
2, 496384, Note_on_c, 0, 71, 96
2, 496384, Note_on_c, 0, 64, 96
2, 496510, Note_on_c, 0, 64, 0
2, 496510, Note_on_c, 0, 71, 0
2, 496512, Note_on_c, 0, 73, 96
2, 496512, Note_on_c, 0, 69, 96
2, 496638, Note_on_c, 0, 69, 0
2, 496638, Note_on_c, 0, 73, 0
2, 496640, Note_on_c, 0, 71, 96
2, 496640, Note_on_c, 0, 64, 96
2, 496766, Note_on_c, 0, 64, 0
2, 496766, Note_on_c, 0, 71, 0
2, 496768, Note_on_c, 0, 69, 96
2, 496768, Note_on_c, 0, 61, 96
2, 496894, Note_on_c, 0, 61, 0
2, 496894, Note_on_c, 0, 69, 0
2, 496896, Note_on_c, 0, 76, 96
2, 496896, Note_on_c, 0, 57, 96
2, 497022, Note_on_c, 0, 57, 0
2, 497024, Note_on_c, 0, 61, 96
2, 497150, Note_on_c, 0, 61, 0
2, 497152, Note_on_c, 0, 64, 96
2, 497278, Note_on_c, 0, 64, 0
2, 497280, Note_on_c, 0, 67, 96
2, 497406, Note_on_c, 0, 76, 0
2, 497408, Note_on_c, 0, 73, 96
2, 497534, Note_on_c, 0, 73, 0
2, 497536, Note_on_c, 0, 74, 96
2, 497662, Note_on_c, 0, 74, 0
2, 497664, Note_on_c, 0, 76, 96
2, 497790, Note_on_c, 0, 76, 0
2, 497791, Note_on_c, 0, 67, 0
2, 497792, Note_on_c, 0, 78, 96
2, 497918, Note_on_c, 0, 78, 0
2, 497920, Note_on_c, 0, 79, 96
2, 498046, Note_on_c, 0, 79, 0
2, 498048, Note_on_c, 0, 81, 96
2, 498048, Note_on_c, 0, 66, 96
2, 498174, Note_on_c, 0, 66, 0
2, 498176, Note_on_c, 0, 64, 96
2, 498302, Note_on_c, 0, 64, 0
2, 498304, Note_on_c, 0, 66, 96
2, 498430, Note_on_c, 0, 66, 0
2, 498432, Note_on_c, 0, 59, 96
2, 498558, Note_on_c, 0, 81, 0
2, 498560, Note_on_c, 0, 71, 96
2, 498686, Note_on_c, 0, 71, 0
2, 498688, Note_on_c, 0, 73, 96
2, 498814, Note_on_c, 0, 73, 0
2, 498816, Note_on_c, 0, 74, 96
2, 498942, Note_on_c, 0, 74, 0
2, 498942, Note_on_c, 0, 59, 0
2, 498944, Note_on_c, 0, 76, 96
2, 498944, Note_on_c, 0, 61, 96
2, 499070, Note_on_c, 0, 61, 0
2, 499070, Note_on_c, 0, 76, 0
2, 499072, Note_on_c, 0, 78, 96
2, 499072, Note_on_c, 0, 62, 96
2, 499198, Note_on_c, 0, 62, 0
2, 499198, Note_on_c, 0, 78, 0
2, 499200, Note_on_c, 0, 79, 96
2, 499200, Note_on_c, 0, 64, 96
2, 499326, Note_on_c, 0, 64, 0
2, 499328, Note_on_c, 0, 62, 96
2, 499454, Note_on_c, 0, 62, 0
2, 499456, Note_on_c, 0, 64, 96
2, 499582, Note_on_c, 0, 64, 0
2, 499584, Note_on_c, 0, 57, 96
2, 499710, Note_on_c, 0, 79, 0
2, 499712, Note_on_c, 0, 69, 96
2, 499838, Note_on_c, 0, 69, 0
2, 499840, Note_on_c, 0, 71, 96
2, 499966, Note_on_c, 0, 71, 0
2, 499968, Note_on_c, 0, 73, 96
2, 500094, Note_on_c, 0, 73, 0
2, 500094, Note_on_c, 0, 57, 0
2, 500096, Note_on_c, 0, 74, 96
2, 500096, Note_on_c, 0, 59, 96
2, 500222, Note_on_c, 0, 59, 0
2, 500222, Note_on_c, 0, 74, 0
2, 500224, Note_on_c, 0, 76, 96
2, 500224, Note_on_c, 0, 61, 96
2, 500350, Note_on_c, 0, 61, 0
2, 500350, Note_on_c, 0, 76, 0
2, 500352, Note_on_c, 0, 78, 96
2, 500352, Note_on_c, 0, 62, 96
2, 500478, Note_on_c, 0, 62, 0
2, 500480, Note_on_c, 0, 59, 96
2, 500606, Note_on_c, 0, 59, 0
2, 500608, Note_on_c, 0, 56, 96
2, 500734, Note_on_c, 0, 56, 0
2, 500734, Note_on_c, 0, 78, 0
2, 500736, Note_on_c, 0, 68, 96
2, 500736, Note_on_c, 0, 52, 96
2, 500862, Note_on_c, 0, 52, 0
2, 500864, Note_on_c, 0, 56, 96
2, 500990, Note_on_c, 0, 56, 0
2, 500992, Note_on_c, 0, 59, 96
2, 501118, Note_on_c, 0, 59, 0
2, 501118, Note_on_c, 0, 68, 0
2, 501120, Note_on_c, 0, 83, 96
2, 501120, Note_on_c, 0, 62, 96
2, 501246, Note_on_c, 0, 62, 0
2, 501248, Note_on_c, 0, 61, 96
2, 501374, Note_on_c, 0, 61, 0
2, 501376, Note_on_c, 0, 59, 96
2, 501502, Note_on_c, 0, 59, 0
2, 501504, Note_on_c, 0, 61, 96
2, 501630, Note_on_c, 0, 61, 0
2, 501630, Note_on_c, 0, 83, 0
2, 501632, Note_on_c, 0, 73, 96
2, 501632, Note_on_c, 0, 57, 96
2, 501758, Note_on_c, 0, 57, 0
2, 501758, Note_on_c, 0, 73, 0
2, 501760, Note_on_c, 0, 76, 96
2, 501760, Note_on_c, 0, 59, 96
2, 501886, Note_on_c, 0, 59, 0
2, 501886, Note_on_c, 0, 76, 0
2, 501888, Note_on_c, 0, 81, 96
2, 501888, Note_on_c, 0, 61, 96
2, 502014, Note_on_c, 0, 61, 0
2, 502016, Note_on_c, 0, 63, 96
2, 502142, Note_on_c, 0, 63, 0
2, 502144, Note_on_c, 0, 64, 96
2, 502270, Note_on_c, 0, 64, 0
2, 502270, Note_on_c, 0, 81, 0
2, 502272, Note_on_c, 0, 75, 96
2, 502272, Note_on_c, 0, 66, 96
2, 502398, Note_on_c, 0, 66, 0
2, 502400, Note_on_c, 0, 67, 96
2, 502526, Note_on_c, 0, 67, 0
2, 502528, Note_on_c, 0, 69, 96
2, 502654, Note_on_c, 0, 69, 0
2, 502654, Note_on_c, 0, 75, 0
2, 502656, Note_on_c, 0, 76, 96
2, 502656, Note_on_c, 0, 67, 96
2, 502782, Note_on_c, 0, 76, 0
2, 502784, Note_on_c, 0, 64, 96
2, 502910, Note_on_c, 0, 64, 0
2, 502912, Note_on_c, 0, 66, 96
2, 503038, Note_on_c, 0, 66, 0
2, 503038, Note_on_c, 0, 67, 0
2, 503040, Note_on_c, 0, 67, 96
2, 503040, Note_on_c, 0, 64, 96
2, 503166, Note_on_c, 0, 67, 0
2, 503168, Note_on_c, 0, 69, 96
2, 503294, Note_on_c, 0, 69, 0
2, 503296, Note_on_c, 0, 71, 96
2, 503422, Note_on_c, 0, 71, 0
2, 503422, Note_on_c, 0, 64, 0
2, 503424, Note_on_c, 0, 73, 96
2, 503424, Note_on_c, 0, 58, 96
2, 503550, Note_on_c, 0, 73, 0
2, 503552, Note_on_c, 0, 74, 96
2, 503678, Note_on_c, 0, 74, 0
2, 503680, Note_on_c, 0, 76, 96
2, 503806, Note_on_c, 0, 76, 0
2, 503806, Note_on_c, 0, 58, 0
2, 503808, Note_on_c, 0, 74, 96
2, 503808, Note_on_c, 0, 59, 96
2, 503934, Note_on_c, 0, 59, 0
2, 503936, Note_on_c, 0, 61, 96
2, 504062, Note_on_c, 0, 61, 0
2, 504064, Note_on_c, 0, 62, 96
2, 504190, Note_on_c, 0, 62, 0
2, 504190, Note_on_c, 0, 74, 0
2, 504192, Note_on_c, 0, 84, 96
2, 504192, Note_on_c, 0, 64, 96
2, 504318, Note_on_c, 0, 64, 0
2, 504320, Note_on_c, 0, 66, 96
2, 504446, Note_on_c, 0, 66, 0
2, 504448, Note_on_c, 0, 67, 96
2, 504574, Note_on_c, 0, 67, 0
2, 504574, Note_on_c, 0, 84, 0
2, 504576, Note_on_c, 0, 78, 96
2, 504576, Note_on_c, 0, 69, 96
2, 504702, Note_on_c, 0, 69, 0
2, 504704, Note_on_c, 0, 71, 96
2, 504830, Note_on_c, 0, 71, 0
2, 504832, Note_on_c, 0, 72, 96
2, 504958, Note_on_c, 0, 72, 0
2, 504958, Note_on_c, 0, 78, 0
2, 504960, Note_on_c, 0, 79, 96
2, 504960, Note_on_c, 0, 71, 96
2, 505086, Note_on_c, 0, 79, 0
2, 505088, Note_on_c, 0, 67, 96
2, 505214, Note_on_c, 0, 67, 0
2, 505216, Note_on_c, 0, 69, 96
2, 505342, Note_on_c, 0, 69, 0
2, 505342, Note_on_c, 0, 71, 0
2, 505344, Note_on_c, 0, 71, 96
2, 505344, Note_on_c, 0, 67, 96
2, 505470, Note_on_c, 0, 71, 0
2, 505472, Note_on_c, 0, 73, 96
2, 505598, Note_on_c, 0, 73, 0
2, 505600, Note_on_c, 0, 74, 96
2, 505726, Note_on_c, 0, 74, 0
2, 505726, Note_on_c, 0, 67, 0
2, 505728, Note_on_c, 0, 76, 96
2, 505728, Note_on_c, 0, 61, 96
2, 505854, Note_on_c, 0, 76, 0
2, 505856, Note_on_c, 0, 78, 96
2, 505982, Note_on_c, 0, 78, 0
2, 505984, Note_on_c, 0, 79, 96
2, 506110, Note_on_c, 0, 79, 0
2, 506110, Note_on_c, 0, 61, 0
2, 506112, Note_on_c, 0, 78, 96
2, 506112, Note_on_c, 0, 62, 96
2, 506112, Note_on_c, 0, 50, 96
2, 506238, Note_on_c, 0, 78, 0
2, 506240, Note_on_c, 0, 76, 96
2, 506366, Note_on_c, 0, 76, 0
2, 506368, Note_on_c, 0, 74, 96
2, 506494, Note_on_c, 0, 74, 0
2, 506496, Note_on_c, 0, 81, 96
2, 506622, Note_on_c, 0, 50, 0
2, 506622, Note_on_c, 0, 62, 0
2, 506624, Note_on_c, 0, 54, 96
2, 506750, Note_on_c, 0, 54, 0
2, 506752, Note_on_c, 0, 57, 96
2, 506878, Note_on_c, 0, 57, 0
2, 506878, Note_on_c, 0, 81, 0
2, 506880, Note_on_c, 0, 73, 96
2, 506880, Note_on_c, 0, 76, 96
2, 506880, Note_on_c, 0, 79, 96
2, 506880, Note_on_c, 0, 62, 96
2, 507006, Note_on_c, 0, 62, 0
2, 507008, Note_on_c, 0, 57, 96
2, 507134, Note_on_c, 0, 57, 0
2, 507136, Note_on_c, 0, 54, 96
2, 507262, Note_on_c, 0, 54, 0
2, 507264, Note_on_c, 0, 50, 96
2, 507390, Note_on_c, 0, 50, 0
2, 507392, Note_on_c, 0, 54, 96
2, 507518, Note_on_c, 0, 54, 0
2, 507520, Note_on_c, 0, 57, 96
2, 507646, Note_on_c, 0, 57, 0
2, 507646, Note_on_c, 0, 79, 0
2, 507646, Note_on_c, 0, 76, 0
2, 507646, Note_on_c, 0, 73, 0
2, 507648, Note_on_c, 0, 74, 96
2, 507648, Note_on_c, 0, 78, 96
2, 507648, Note_on_c, 0, 60, 96
2, 507774, Note_on_c, 0, 74, 0
2, 507776, Note_on_c, 0, 66, 96
2, 507902, Note_on_c, 0, 66, 0
2, 507904, Note_on_c, 0, 67, 96
2, 508028, Note_on_c, 0, 60, 0
2, 508028, Note_on_c, 0, 78, 0
2, 508030, Note_on_c, 0, 67, 0
2, 508032, Note_on_c, 0, 69, 96
2, 508158, Note_on_c, 0, 69, 0
2, 508160, Note_on_c, 0, 71, 96
2, 508286, Note_on_c, 0, 71, 0
2, 508288, Note_on_c, 0, 72, 96
2, 508414, Note_on_c, 0, 72, 0
2, 508416, Note_on_c, 0, 74, 96
2, 508416, Note_on_c, 0, 78, 96
2, 508416, Note_on_c, 0, 59, 96
2, 508542, Note_on_c, 0, 59, 0
2, 508544, Note_on_c, 0, 57, 96
2, 508670, Note_on_c, 0, 57, 0
2, 508672, Note_on_c, 0, 59, 96
2, 508798, Note_on_c, 0, 59, 0
2, 508798, Note_on_c, 0, 78, 0
2, 508800, Note_on_c, 0, 79, 96
2, 508800, Note_on_c, 0, 52, 96
2, 508927, Note_on_c, 0, 74, 0
2, 508928, Note_on_c, 0, 64, 96
2, 509054, Note_on_c, 0, 64, 0
2, 509055, Note_on_c, 0, 79, 0
2, 509056, Note_on_c, 0, 66, 96
2, 509182, Note_on_c, 0, 66, 0
2, 509184, Note_on_c, 0, 67, 96
2, 509310, Note_on_c, 0, 67, 0
2, 509310, Note_on_c, 0, 52, 0
2, 509312, Note_on_c, 0, 69, 96
2, 509312, Note_on_c, 0, 54, 96
2, 509438, Note_on_c, 0, 54, 0
2, 509438, Note_on_c, 0, 69, 0
2, 509440, Note_on_c, 0, 71, 96
2, 509440, Note_on_c, 0, 55, 96
2, 509566, Note_on_c, 0, 55, 0
2, 509566, Note_on_c, 0, 71, 0
2, 509568, Note_on_c, 0, 73, 96
2, 509568, Note_on_c, 0, 79, 96
2, 509568, Note_on_c, 0, 57, 96
2, 509694, Note_on_c, 0, 57, 0
2, 509696, Note_on_c, 0, 55, 96
2, 509822, Note_on_c, 0, 55, 0
2, 509824, Note_on_c, 0, 57, 96
2, 509950, Note_on_c, 0, 57, 0
2, 509950, Note_on_c, 0, 79, 0
2, 509952, Note_on_c, 0, 78, 96
2, 509952, Note_on_c, 0, 50, 96
2, 510079, Note_on_c, 0, 73, 0
2, 510080, Note_on_c, 0, 62, 96
2, 510206, Note_on_c, 0, 62, 0
2, 510207, Note_on_c, 0, 78, 0
2, 510208, Note_on_c, 0, 64, 96
2, 510334, Note_on_c, 0, 64, 0
2, 510336, Note_on_c, 0, 66, 96
2, 510462, Note_on_c, 0, 66, 0
2, 510462, Note_on_c, 0, 50, 0
2, 510464, Note_on_c, 0, 67, 96
2, 510464, Note_on_c, 0, 52, 96
2, 510590, Note_on_c, 0, 52, 0
2, 510590, Note_on_c, 0, 67, 0
2, 510592, Note_on_c, 0, 69, 96
2, 510592, Note_on_c, 0, 54, 96
2, 510718, Note_on_c, 0, 54, 0
2, 510718, Note_on_c, 0, 69, 0
2, 510720, Note_on_c, 0, 71, 96
2, 510720, Note_on_c, 0, 74, 96
2, 510720, Note_on_c, 0, 55, 96
2, 510846, Note_on_c, 0, 55, 0
2, 510848, Note_on_c, 0, 52, 96
2, 510974, Note_on_c, 0, 52, 0
2, 510976, Note_on_c, 0, 49, 96
2, 511102, Note_on_c, 0, 49, 0
2, 511102, Note_on_c, 0, 74, 0
2, 511102, Note_on_c, 0, 71, 0
2, 511104, Note_on_c, 0, 73, 96
2, 511104, Note_on_c, 0, 45, 96
2, 511230, Note_on_c, 0, 45, 0
2, 511232, Note_on_c, 0, 49, 96
2, 511358, Note_on_c, 0, 49, 0
2, 511360, Note_on_c, 0, 52, 96
2, 511486, Note_on_c, 0, 52, 0
2, 511486, Note_on_c, 0, 73, 0
2, 511488, Note_on_c, 0, 73, 96
2, 511488, Note_on_c, 0, 76, 96
2, 511488, Note_on_c, 0, 55, 96
2, 511614, Note_on_c, 0, 55, 0
2, 511616, Note_on_c, 0, 54, 96
2, 511742, Note_on_c, 0, 54, 0
2, 511744, Note_on_c, 0, 52, 96
2, 511870, Note_on_c, 0, 52, 0
2, 511870, Note_on_c, 0, 73, 0
2, 511872, Note_on_c, 0, 69, 96
2, 511872, Note_on_c, 0, 54, 96
2, 511998, Note_on_c, 0, 54, 0
2, 512000, Note_on_c, 0, 50, 96
2, 512126, Note_on_c, 0, 50, 0
2, 512128, Note_on_c, 0, 52, 96
2, 512254, Note_on_c, 0, 52, 0
2, 512254, Note_on_c, 0, 69, 0
2, 512255, Note_on_c, 0, 76, 0
2, 512256, Note_on_c, 0, 74, 96
2, 512256, Note_on_c, 0, 54, 96
2, 512382, Note_on_c, 0, 54, 0
2, 512384, Note_on_c, 0, 55, 96
2, 512510, Note_on_c, 0, 55, 0
2, 512512, Note_on_c, 0, 57, 96
2, 512638, Note_on_c, 0, 57, 0
2, 512638, Note_on_c, 0, 74, 0
2, 512640, Note_on_c, 0, 80, 96
2, 512640, Note_on_c, 0, 74, 96
2, 512640, Note_on_c, 0, 59, 96
2, 512766, Note_on_c, 0, 59, 0
2, 512768, Note_on_c, 0, 61, 96
2, 512894, Note_on_c, 0, 61, 0
2, 512896, Note_on_c, 0, 62, 96
2, 513022, Note_on_c, 0, 62, 0
2, 513022, Note_on_c, 0, 74, 0
2, 513022, Note_on_c, 0, 80, 0
2, 513024, Note_on_c, 0, 76, 96
2, 513024, Note_on_c, 0, 81, 96
2, 513024, Note_on_c, 0, 61, 96
2, 513150, Note_on_c, 0, 61, 0
2, 513152, Note_on_c, 0, 59, 96
2, 513278, Note_on_c, 0, 59, 0
2, 513280, Note_on_c, 0, 57, 96
2, 513406, Note_on_c, 0, 57, 0
2, 513406, Note_on_c, 0, 81, 0
2, 513406, Note_on_c, 0, 76, 0
2, 513408, Note_on_c, 0, 64, 96
2, 513408, Note_on_c, 0, 73, 96
2, 513408, Note_on_c, 0, 59, 96
2, 513534, Note_on_c, 0, 59, 0
2, 513536, Note_on_c, 0, 57, 96
2, 513662, Note_on_c, 0, 57, 0
2, 513664, Note_on_c, 0, 55, 96
2, 513790, Note_on_c, 0, 55, 0
2, 513790, Note_on_c, 0, 73, 0
2, 513790, Note_on_c, 0, 64, 0
2, 513792, Note_on_c, 0, 66, 96
2, 513792, Note_on_c, 0, 75, 96
2, 513792, Note_on_c, 0, 57, 96
2, 513918, Note_on_c, 0, 57, 0
2, 513920, Note_on_c, 0, 55, 96
2, 514046, Note_on_c, 0, 55, 0
2, 514048, Note_on_c, 0, 54, 96
2, 514174, Note_on_c, 0, 54, 0
2, 514174, Note_on_c, 0, 66, 0
2, 514176, Note_on_c, 0, 71, 96
2, 514176, Note_on_c, 0, 55, 96
2, 514302, Note_on_c, 0, 55, 0
2, 514304, Note_on_c, 0, 52, 96
2, 514430, Note_on_c, 0, 52, 0
2, 514432, Note_on_c, 0, 54, 96
2, 514558, Note_on_c, 0, 54, 0
2, 514558, Note_on_c, 0, 71, 0
2, 514559, Note_on_c, 0, 75, 0
2, 514560, Note_on_c, 0, 76, 96
2, 514560, Note_on_c, 0, 55, 96
2, 514686, Note_on_c, 0, 55, 0
2, 514688, Note_on_c, 0, 57, 96
2, 514814, Note_on_c, 0, 57, 0
2, 514816, Note_on_c, 0, 59, 96
2, 514942, Note_on_c, 0, 59, 0
2, 514942, Note_on_c, 0, 76, 0
2, 514944, Note_on_c, 0, 76, 96
2, 514944, Note_on_c, 0, 82, 96
2, 514944, Note_on_c, 0, 61, 96
2, 515070, Note_on_c, 0, 61, 0
2, 515072, Note_on_c, 0, 62, 96
2, 515198, Note_on_c, 0, 62, 0
2, 515200, Note_on_c, 0, 64, 96
2, 515326, Note_on_c, 0, 64, 0
2, 515326, Note_on_c, 0, 82, 0
2, 515326, Note_on_c, 0, 76, 0
2, 515328, Note_on_c, 0, 83, 96
2, 515328, Note_on_c, 0, 78, 96
2, 515328, Note_on_c, 0, 62, 96
2, 515454, Note_on_c, 0, 62, 0
2, 515456, Note_on_c, 0, 61, 96
2, 515582, Note_on_c, 0, 61, 0
2, 515584, Note_on_c, 0, 59, 96
2, 515710, Note_on_c, 0, 59, 0
2, 515710, Note_on_c, 0, 78, 0
2, 515710, Note_on_c, 0, 83, 0
2, 515712, Note_on_c, 0, 66, 96
2, 515712, Note_on_c, 0, 75, 96
2, 515712, Note_on_c, 0, 61, 96
2, 515838, Note_on_c, 0, 61, 0
2, 515840, Note_on_c, 0, 59, 96
2, 515966, Note_on_c, 0, 59, 0
2, 515968, Note_on_c, 0, 57, 96
2, 516094, Note_on_c, 0, 57, 0
2, 516094, Note_on_c, 0, 75, 0
2, 516094, Note_on_c, 0, 66, 0
2, 516096, Note_on_c, 0, 68, 96
2, 516096, Note_on_c, 0, 77, 96
2, 516096, Note_on_c, 0, 59, 96
2, 516222, Note_on_c, 0, 59, 0
2, 516224, Note_on_c, 0, 57, 96
2, 516350, Note_on_c, 0, 57, 0
2, 516352, Note_on_c, 0, 56, 96
2, 516478, Note_on_c, 0, 56, 0
2, 516478, Note_on_c, 0, 77, 0
2, 516478, Note_on_c, 0, 68, 0
2, 516480, Note_on_c, 0, 73, 96
2, 516480, Note_on_c, 0, 78, 96
2, 516480, Note_on_c, 0, 57, 96
2, 516606, Note_on_c, 0, 57, 0
2, 516608, Note_on_c, 0, 56, 96
2, 516734, Note_on_c, 0, 56, 0
2, 516736, Note_on_c, 0, 54, 96
2, 516862, Note_on_c, 0, 78, 0
2, 516862, Note_on_c, 0, 73, 0
2, 516864, Note_on_c, 0, 81, 96
2, 516864, Note_on_c, 0, 78, 96
2, 516990, Note_on_c, 0, 54, 0
2, 516992, Note_on_c, 0, 57, 96
2, 517118, Note_on_c, 0, 57, 0
2, 517120, Note_on_c, 0, 61, 96
2, 517246, Note_on_c, 0, 61, 0
2, 517246, Note_on_c, 0, 78, 0
2, 517246, Note_on_c, 0, 81, 0
2, 517248, Note_on_c, 0, 78, 96
2, 517248, Note_on_c, 0, 81, 96
2, 517248, Note_on_c, 0, 64, 96
2, 517374, Note_on_c, 0, 64, 0
2, 517376, Note_on_c, 0, 63, 96
2, 517502, Note_on_c, 0, 63, 0
2, 517504, Note_on_c, 0, 61, 96
2, 517630, Note_on_c, 0, 61, 0
2, 517630, Note_on_c, 0, 81, 0
2, 517630, Note_on_c, 0, 78, 0
2, 517632, Note_on_c, 0, 81, 96
2, 517632, Note_on_c, 0, 78, 96
2, 517632, Note_on_c, 0, 63, 96
2, 517758, Note_on_c, 0, 63, 0
2, 517760, Note_on_c, 0, 66, 96
2, 517886, Note_on_c, 0, 66, 0
2, 517888, Note_on_c, 0, 67, 96
2, 518014, Note_on_c, 0, 67, 0
2, 518016, Note_on_c, 0, 69, 96
2, 518112, Note_on_c, 0, 78, 0
2, 518112, Note_on_c, 0, 81, 0
2, 518142, Note_on_c, 0, 69, 0
2, 518144, Note_on_c, 0, 71, 96
2, 518270, Note_on_c, 0, 71, 0
2, 518272, Note_on_c, 0, 73, 96
2, 518398, Note_on_c, 0, 73, 0
2, 518400, Note_on_c, 0, 75, 96
2, 518526, Note_on_c, 0, 75, 0
2, 518528, Note_on_c, 0, 76, 96
2, 518654, Note_on_c, 0, 76, 0
2, 518656, Note_on_c, 0, 78, 96
2, 518782, Note_on_c, 0, 78, 0
2, 518784, Note_on_c, 0, 79, 96
2, 518784, Note_on_c, 0, 52, 96
2, 518910, Note_on_c, 0, 79, 0
2, 518912, Note_on_c, 0, 78, 96
2, 519038, Note_on_c, 0, 78, 0
2, 519040, Note_on_c, 0, 76, 96
2, 519166, Note_on_c, 0, 76, 0
2, 519168, Note_on_c, 0, 76, 96
2, 519168, Note_on_c, 0, 79, 96
2, 519294, Note_on_c, 0, 52, 0
2, 519296, Note_on_c, 0, 55, 96
2, 519422, Note_on_c, 0, 55, 0
2, 519424, Note_on_c, 0, 59, 96
2, 519550, Note_on_c, 0, 59, 0
2, 519550, Note_on_c, 0, 79, 0
2, 519550, Note_on_c, 0, 76, 0
2, 519552, Note_on_c, 0, 79, 96
2, 519552, Note_on_c, 0, 76, 96
2, 519552, Note_on_c, 0, 62, 96
2, 519678, Note_on_c, 0, 62, 0
2, 519680, Note_on_c, 0, 61, 96
2, 519806, Note_on_c, 0, 61, 0
2, 519808, Note_on_c, 0, 59, 96
2, 519934, Note_on_c, 0, 59, 0
2, 519934, Note_on_c, 0, 76, 0
2, 519934, Note_on_c, 0, 79, 0
2, 519936, Note_on_c, 0, 76, 96
2, 519936, Note_on_c, 0, 79, 96
2, 519936, Note_on_c, 0, 61, 96
2, 520062, Note_on_c, 0, 61, 0
2, 520064, Note_on_c, 0, 64, 96
2, 520190, Note_on_c, 0, 64, 0
2, 520192, Note_on_c, 0, 66, 96
2, 520318, Note_on_c, 0, 66, 0
2, 520320, Note_on_c, 0, 67, 96
2, 520416, Note_on_c, 0, 79, 0
2, 520416, Note_on_c, 0, 76, 0
2, 520446, Note_on_c, 0, 67, 0
2, 520448, Note_on_c, 0, 69, 96
2, 520574, Note_on_c, 0, 69, 0
2, 520576, Note_on_c, 0, 71, 96
2, 520702, Note_on_c, 0, 71, 0
2, 520704, Note_on_c, 0, 73, 96
2, 520830, Note_on_c, 0, 73, 0
2, 520832, Note_on_c, 0, 74, 96
2, 520958, Note_on_c, 0, 74, 0
2, 520960, Note_on_c, 0, 76, 96
2, 521086, Note_on_c, 0, 76, 0
2, 521088, Note_on_c, 0, 78, 96
2, 521088, Note_on_c, 0, 50, 96
2, 521214, Note_on_c, 0, 78, 0
2, 521216, Note_on_c, 0, 74, 96
2, 521342, Note_on_c, 0, 74, 0
2, 521344, Note_on_c, 0, 71, 96
2, 521470, Note_on_c, 0, 50, 0
2, 521472, Note_on_c, 0, 66, 96
2, 521472, Note_on_c, 0, 62, 96
2, 521598, Note_on_c, 0, 71, 0
2, 521600, Note_on_c, 0, 70, 96
2, 521726, Note_on_c, 0, 70, 0
2, 521728, Note_on_c, 0, 71, 96
2, 521854, Note_on_c, 0, 71, 0
2, 521854, Note_on_c, 0, 62, 0
2, 521854, Note_on_c, 0, 66, 0
2, 521856, Note_on_c, 0, 73, 96
2, 521856, Note_on_c, 0, 70, 96
2, 521856, Note_on_c, 0, 61, 96
2, 521856, Note_on_c, 0, 64, 96
2, 521982, Note_on_c, 0, 73, 0
2, 521984, Note_on_c, 0, 74, 96
2, 522110, Note_on_c, 0, 74, 0
2, 522112, Note_on_c, 0, 76, 96
2, 522236, Note_on_c, 0, 70, 0
2, 522238, Note_on_c, 0, 64, 0
2, 522238, Note_on_c, 0, 61, 0
2, 522238, Note_on_c, 0, 76, 0
2, 522240, Note_on_c, 0, 74, 96
2, 522240, Note_on_c, 0, 47, 96
2, 522366, Note_on_c, 0, 74, 0
2, 522368, Note_on_c, 0, 71, 96
2, 522494, Note_on_c, 0, 71, 0
2, 522496, Note_on_c, 0, 67, 96
2, 522622, Note_on_c, 0, 47, 0
2, 522624, Note_on_c, 0, 59, 96
2, 522624, Note_on_c, 0, 62, 96
2, 522750, Note_on_c, 0, 67, 0
2, 522752, Note_on_c, 0, 66, 96
2, 522878, Note_on_c, 0, 66, 0
2, 522880, Note_on_c, 0, 67, 96
2, 523006, Note_on_c, 0, 67, 0
2, 523006, Note_on_c, 0, 62, 0
2, 523006, Note_on_c, 0, 59, 0
2, 523008, Note_on_c, 0, 69, 96
2, 523008, Note_on_c, 0, 66, 96
2, 523008, Note_on_c, 0, 60, 96
2, 523008, Note_on_c, 0, 57, 96
2, 523134, Note_on_c, 0, 69, 0
2, 523136, Note_on_c, 0, 71, 96
2, 523262, Note_on_c, 0, 71, 0
2, 523264, Note_on_c, 0, 72, 96
2, 523390, Note_on_c, 0, 72, 0
2, 523390, Note_on_c, 0, 66, 0
2, 523390, Note_on_c, 0, 60, 0
2, 523390, Note_on_c, 0, 57, 0
2, 523392, Note_on_c, 0, 71, 96
2, 523392, Note_on_c, 0, 43, 96
2, 523518, Note_on_c, 0, 71, 0
2, 523520, Note_on_c, 0, 67, 96
2, 523646, Note_on_c, 0, 67, 0
2, 523648, Note_on_c, 0, 76, 96
2, 523774, Note_on_c, 0, 43, 0
2, 523776, Note_on_c, 0, 64, 96
2, 523776, Note_on_c, 0, 59, 96
2, 523776, Note_on_c, 0, 55, 96
2, 523902, Note_on_c, 0, 76, 0
2, 523904, Note_on_c, 0, 75, 96
2, 524030, Note_on_c, 0, 75, 0
2, 524032, Note_on_c, 0, 76, 96
2, 524158, Note_on_c, 0, 76, 0
2, 524158, Note_on_c, 0, 64, 0
2, 524158, Note_on_c, 0, 59, 0
2, 524158, Note_on_c, 0, 55, 0
2, 524160, Note_on_c, 0, 78, 96
2, 524160, Note_on_c, 0, 63, 96
2, 524160, Note_on_c, 0, 57, 96
2, 524160, Note_on_c, 0, 54, 96
2, 524286, Note_on_c, 0, 78, 0
2, 524288, Note_on_c, 0, 79, 96
2, 524414, Note_on_c, 0, 79, 0
2, 524416, Note_on_c, 0, 81, 96
2, 524542, Note_on_c, 0, 81, 0
2, 524542, Note_on_c, 0, 63, 0
2, 524542, Note_on_c, 0, 57, 0
2, 524542, Note_on_c, 0, 54, 0
2, 524544, Note_on_c, 0, 79, 96
2, 524544, Note_on_c, 0, 52, 96
2, 524672, Note_on_c, 0, 76, 96
2, 524798, Note_on_c, 0, 76, 0
2, 524800, Note_on_c, 0, 73, 96
2, 524926, Note_on_c, 0, 52, 0
2, 524928, Note_on_c, 0, 64, 96
2, 524928, Note_on_c, 0, 67, 96
2, 525054, Note_on_c, 0, 73, 0
2, 525056, Note_on_c, 0, 71, 96
2, 525182, Note_on_c, 0, 71, 0
2, 525184, Note_on_c, 0, 73, 96
2, 525310, Note_on_c, 0, 73, 0
2, 525310, Note_on_c, 0, 67, 0
2, 525310, Note_on_c, 0, 64, 0
2, 525312, Note_on_c, 0, 74, 96
2, 525312, Note_on_c, 0, 62, 96
2, 525312, Note_on_c, 0, 66, 96
2, 525438, Note_on_c, 0, 74, 0
2, 525440, Note_on_c, 0, 73, 96
2, 525566, Note_on_c, 0, 73, 0
2, 525568, Note_on_c, 0, 71, 96
2, 525694, Note_on_c, 0, 71, 0
2, 525694, Note_on_c, 0, 66, 0
2, 525694, Note_on_c, 0, 62, 0
2, 525696, Note_on_c, 0, 69, 96
2, 525696, Note_on_c, 0, 61, 96
2, 525804, Note_on_c, 0, 79, 0
2, 525822, Note_on_c, 0, 69, 0
2, 525824, Note_on_c, 0, 73, 96
2, 525950, Note_on_c, 0, 73, 0
2, 525952, Note_on_c, 0, 76, 96
2, 526078, Note_on_c, 0, 76, 0
2, 526080, Note_on_c, 0, 79, 96
2, 526176, Note_on_c, 0, 61, 0
2, 526206, Note_on_c, 0, 79, 0
2, 526208, Note_on_c, 0, 76, 96
2, 526334, Note_on_c, 0, 76, 0
2, 526336, Note_on_c, 0, 73, 96
2, 526462, Note_on_c, 0, 73, 0
2, 526464, Note_on_c, 0, 69, 96
2, 526590, Note_on_c, 0, 69, 0
2, 526592, Note_on_c, 0, 64, 96
2, 526718, Note_on_c, 0, 64, 0
2, 526720, Note_on_c, 0, 61, 96
2, 526845, Note_on_c, 0, 61, 0
2, 526848, Note_on_c, 0, 57, 96
2, 526976, Note_on_c, 0, 62, 96
2, 527102, Note_on_c, 0, 62, 0
2, 527104, Note_on_c, 0, 66, 96
2, 527230, Note_on_c, 0, 66, 0
2, 527232, Note_on_c, 0, 69, 96
2, 527328, Note_on_c, 0, 57, 0
2, 527358, Note_on_c, 0, 69, 0
2, 527360, Note_on_c, 0, 74, 96
2, 527486, Note_on_c, 0, 74, 0
2, 527488, Note_on_c, 0, 78, 96
2, 527614, Note_on_c, 0, 78, 0
2, 527616, Note_on_c, 0, 74, 96
2, 527742, Note_on_c, 0, 74, 0
2, 527744, Note_on_c, 0, 69, 96
2, 527870, Note_on_c, 0, 69, 0
2, 527872, Note_on_c, 0, 66, 96
2, 527998, Note_on_c, 0, 66, 0
2, 528000, Note_on_c, 0, 62, 96
2, 528126, Note_on_c, 0, 62, 0
2, 528128, Note_on_c, 0, 59, 96
2, 528254, Note_on_c, 0, 59, 0
2, 528256, Note_on_c, 0, 62, 96
2, 528382, Note_on_c, 0, 62, 0
2, 528384, Note_on_c, 0, 68, 96
2, 528510, Note_on_c, 0, 68, 0
2, 528512, Note_on_c, 0, 71, 96
2, 528638, Note_on_c, 0, 71, 0
2, 528640, Note_on_c, 0, 74, 96
2, 528766, Note_on_c, 0, 74, 0
2, 528768, Note_on_c, 0, 80, 96
2, 528894, Note_on_c, 0, 80, 0
2, 528896, Note_on_c, 0, 83, 96
2, 529022, Note_on_c, 0, 83, 0
2, 529024, Note_on_c, 0, 80, 96
2, 529150, Note_on_c, 0, 80, 0
2, 529152, Note_on_c, 0, 81, 96
2, 529280, Note_on_c, 0, 76, 96
2, 529406, Note_on_c, 0, 76, 0
2, 529408, Note_on_c, 0, 73, 96
2, 529532, Note_on_c, 0, 81, 0
2, 529534, Note_on_c, 0, 73, 0
2, 529536, Note_on_c, 0, 69, 96
2, 529664, Note_on_c, 0, 64, 96
2, 529790, Note_on_c, 0, 64, 0
2, 529792, Note_on_c, 0, 61, 96
2, 529916, Note_on_c, 0, 69, 0
2, 529918, Note_on_c, 0, 61, 0
2, 529920, Note_on_c, 0, 57, 96
2, 530048, Note_on_c, 0, 61, 96
2, 530174, Note_on_c, 0, 61, 0
2, 530176, Note_on_c, 0, 64, 96
2, 530300, Note_on_c, 0, 57, 0
2, 530302, Note_on_c, 0, 64, 0
2, 530304, Note_on_c, 0, 69, 96
2, 530430, Note_on_c, 0, 69, 0
2, 530432, Note_on_c, 0, 73, 96
2, 530558, Note_on_c, 0, 73, 0
2, 530560, Note_on_c, 0, 76, 96
2, 530686, Note_on_c, 0, 76, 0
2, 530688, Note_on_c, 0, 79, 96
2, 530816, Note_on_c, 0, 45, 96
2, 530942, Note_on_c, 0, 45, 0
2, 530944, Note_on_c, 0, 49, 96
2, 531068, Note_on_c, 0, 79, 0
2, 531070, Note_on_c, 0, 49, 0
2, 531072, Note_on_c, 0, 52, 96
2, 531198, Note_on_c, 0, 52, 0
2, 531200, Note_on_c, 0, 57, 96
2, 531326, Note_on_c, 0, 57, 0
2, 531328, Note_on_c, 0, 61, 96
2, 531454, Note_on_c, 0, 61, 0
2, 531456, Note_on_c, 0, 78, 96
2, 531456, Note_on_c, 0, 50, 96
2, 531582, Note_on_c, 0, 78, 0
2, 531584, Note_on_c, 0, 76, 96
2, 531710, Note_on_c, 0, 76, 0
2, 531712, Note_on_c, 0, 78, 96
2, 531836, Note_on_c, 0, 50, 0
2, 531838, Note_on_c, 0, 78, 0
2, 531840, Note_on_c, 0, 71, 96
2, 531968, Note_on_c, 0, 44, 96
2, 532094, Note_on_c, 0, 44, 0
2, 532096, Note_on_c, 0, 47, 96
2, 532222, Note_on_c, 0, 47, 0
2, 532224, Note_on_c, 0, 50, 96
2, 532350, Note_on_c, 0, 50, 0
2, 532350, Note_on_c, 0, 71, 0
2, 532352, Note_on_c, 0, 73, 96
2, 532352, Note_on_c, 0, 54, 96
2, 532478, Note_on_c, 0, 54, 0
2, 532478, Note_on_c, 0, 73, 0
2, 532480, Note_on_c, 0, 74, 96
2, 532480, Note_on_c, 0, 59, 96
2, 532606, Note_on_c, 0, 59, 0
2, 532606, Note_on_c, 0, 74, 0
2, 532608, Note_on_c, 0, 76, 96
2, 532608, Note_on_c, 0, 49, 96
2, 532734, Note_on_c, 0, 76, 0
2, 532736, Note_on_c, 0, 74, 96
2, 532862, Note_on_c, 0, 74, 0
2, 532864, Note_on_c, 0, 76, 96
2, 532988, Note_on_c, 0, 49, 0
2, 532990, Note_on_c, 0, 76, 0
2, 532992, Note_on_c, 0, 69, 96
2, 533120, Note_on_c, 0, 42, 96
2, 533246, Note_on_c, 0, 42, 0
2, 533248, Note_on_c, 0, 45, 96
2, 533374, Note_on_c, 0, 45, 0
2, 533376, Note_on_c, 0, 49, 96
2, 533502, Note_on_c, 0, 49, 0
2, 533502, Note_on_c, 0, 69, 0
2, 533504, Note_on_c, 0, 71, 96
2, 533504, Note_on_c, 0, 52, 96
2, 533630, Note_on_c, 0, 52, 0
2, 533630, Note_on_c, 0, 71, 0
2, 533632, Note_on_c, 0, 73, 96
2, 533632, Note_on_c, 0, 57, 96
2, 533758, Note_on_c, 0, 57, 0
2, 533758, Note_on_c, 0, 73, 0
2, 533760, Note_on_c, 0, 74, 96
2, 533760, Note_on_c, 0, 47, 96
2, 533886, Note_on_c, 0, 74, 0
2, 533888, Note_on_c, 0, 71, 96
2, 534014, Note_on_c, 0, 71, 0
2, 534016, Note_on_c, 0, 68, 96
2, 534140, Note_on_c, 0, 47, 0
2, 534142, Note_on_c, 0, 68, 0
2, 534144, Note_on_c, 0, 64, 96
2, 534270, Note_on_c, 0, 64, 0
2, 534272, Note_on_c, 0, 68, 96
2, 534272, Note_on_c, 0, 40, 96
2, 534398, Note_on_c, 0, 40, 0
2, 534398, Note_on_c, 0, 68, 0
2, 534400, Note_on_c, 0, 71, 96
2, 534400, Note_on_c, 0, 44, 96
2, 534526, Note_on_c, 0, 44, 0
2, 534526, Note_on_c, 0, 71, 0
2, 534528, Note_on_c, 0, 74, 96
2, 534528, Note_on_c, 0, 47, 96
2, 534654, Note_on_c, 0, 47, 0
2, 534654, Note_on_c, 0, 74, 0
2, 534656, Note_on_c, 0, 73, 96
2, 534656, Note_on_c, 0, 52, 96
2, 534782, Note_on_c, 0, 52, 0
2, 534782, Note_on_c, 0, 73, 0
2, 534784, Note_on_c, 0, 71, 96
2, 534784, Note_on_c, 0, 56, 96
2, 534910, Note_on_c, 0, 56, 0
2, 534910, Note_on_c, 0, 71, 0
2, 534912, Note_on_c, 0, 73, 96
2, 534912, Note_on_c, 0, 45, 96
2, 535040, Note_on_c, 0, 68, 96
2, 535166, Note_on_c, 0, 68, 0
2, 535168, Note_on_c, 0, 69, 96
2, 535296, Note_on_c, 0, 64, 96
2, 535422, Note_on_c, 0, 45, 0
2, 535423, Note_on_c, 0, 69, 0
2, 535424, Note_on_c, 0, 49, 96
2, 535550, Note_on_c, 0, 49, 0
2, 535552, Note_on_c, 0, 52, 96
2, 535676, Note_on_c, 0, 64, 0
2, 535678, Note_on_c, 0, 52, 0
2, 535679, Note_on_c, 0, 73, 0
2, 535680, Note_on_c, 0, 57, 96
2, 535806, Note_on_c, 0, 57, 0
2, 535808, Note_on_c, 0, 52, 96
2, 535934, Note_on_c, 0, 52, 0
2, 535936, Note_on_c, 0, 49, 96
2, 536062, Note_on_c, 0, 49, 0
2, 536064, Note_on_c, 0, 73, 96
2, 536064, Note_on_c, 0, 44, 96
2, 536192, Note_on_c, 0, 68, 96
2, 536318, Note_on_c, 0, 68, 0
2, 536320, Note_on_c, 0, 69, 96
2, 536448, Note_on_c, 0, 64, 96
2, 536570, Note_on_c, 0, 69, 0
2, 536574, Note_on_c, 0, 44, 0
2, 536576, Note_on_c, 0, 49, 96
2, 536702, Note_on_c, 0, 49, 0
2, 536704, Note_on_c, 0, 52, 96
2, 536828, Note_on_c, 0, 64, 0
2, 536830, Note_on_c, 0, 52, 0
2, 536831, Note_on_c, 0, 73, 0
2, 536832, Note_on_c, 0, 57, 96
2, 536958, Note_on_c, 0, 57, 0
2, 536960, Note_on_c, 0, 52, 96
2, 537086, Note_on_c, 0, 52, 0
2, 537088, Note_on_c, 0, 49, 96
2, 537214, Note_on_c, 0, 49, 0
2, 537216, Note_on_c, 0, 72, 96
2, 537216, Note_on_c, 0, 42, 96
2, 537344, Note_on_c, 0, 68, 96
2, 537470, Note_on_c, 0, 68, 0
2, 537472, Note_on_c, 0, 69, 96
2, 537600, Note_on_c, 0, 63, 96
2, 537722, Note_on_c, 0, 69, 0
2, 537726, Note_on_c, 0, 42, 0
2, 537728, Note_on_c, 0, 45, 96
2, 537854, Note_on_c, 0, 45, 0
2, 537856, Note_on_c, 0, 47, 96
2, 537980, Note_on_c, 0, 63, 0
2, 537982, Note_on_c, 0, 47, 0
2, 537983, Note_on_c, 0, 72, 0
2, 537984, Note_on_c, 0, 48, 96
2, 538110, Note_on_c, 0, 48, 0
2, 538112, Note_on_c, 0, 47, 96
2, 538238, Note_on_c, 0, 47, 0
2, 538240, Note_on_c, 0, 45, 96
2, 538366, Note_on_c, 0, 45, 0
2, 538368, Note_on_c, 0, 72, 96
2, 538368, Note_on_c, 0, 40, 96
2, 538496, Note_on_c, 0, 68, 96
2, 538622, Note_on_c, 0, 68, 0
2, 538624, Note_on_c, 0, 69, 96
2, 538752, Note_on_c, 0, 64, 96
2, 538874, Note_on_c, 0, 69, 0
2, 538878, Note_on_c, 0, 40, 0
2, 538880, Note_on_c, 0, 45, 96
2, 539006, Note_on_c, 0, 45, 0
2, 539008, Note_on_c, 0, 47, 96
2, 539132, Note_on_c, 0, 64, 0
2, 539134, Note_on_c, 0, 47, 0
2, 539135, Note_on_c, 0, 72, 0
2, 539136, Note_on_c, 0, 48, 96
2, 539262, Note_on_c, 0, 48, 0
2, 539264, Note_on_c, 0, 47, 96
2, 539390, Note_on_c, 0, 47, 0
2, 539392, Note_on_c, 0, 45, 96
2, 539518, Note_on_c, 0, 45, 0
2, 539520, Note_on_c, 0, 39, 96
2, 539648, Note_on_c, 0, 66, 96
2, 539774, Note_on_c, 0, 66, 0
2, 539776, Note_on_c, 0, 68, 96
2, 539902, Note_on_c, 0, 68, 0
2, 539902, Note_on_c, 0, 39, 0
2, 539904, Note_on_c, 0, 69, 96
2, 539904, Note_on_c, 0, 51, 96
2, 540030, Note_on_c, 0, 69, 0
2, 540032, Note_on_c, 0, 71, 96
2, 540158, Note_on_c, 0, 71, 0
2, 540160, Note_on_c, 0, 72, 96
2, 540286, Note_on_c, 0, 51, 0
2, 540288, Note_on_c, 0, 39, 96
2, 540414, Note_on_c, 0, 72, 0
2, 540416, Note_on_c, 0, 71, 96
2, 540542, Note_on_c, 0, 71, 0
2, 540544, Note_on_c, 0, 69, 96
2, 540670, Note_on_c, 0, 69, 0
2, 540670, Note_on_c, 0, 39, 0
2, 540672, Note_on_c, 0, 68, 96
2, 540672, Note_on_c, 0, 38, 96
2, 540798, Note_on_c, 0, 68, 0
2, 540800, Note_on_c, 0, 69, 96
2, 540926, Note_on_c, 0, 69, 0
2, 540928, Note_on_c, 0, 71, 96
2, 541054, Note_on_c, 0, 71, 0
2, 541056, Note_on_c, 0, 64, 96
2, 541182, Note_on_c, 0, 38, 0
2, 541184, Note_on_c, 0, 68, 96
2, 541184, Note_on_c, 0, 40, 96
2, 541310, Note_on_c, 0, 40, 0
2, 541312, Note_on_c, 0, 71, 96
2, 541312, Note_on_c, 0, 42, 96
2, 541438, Note_on_c, 0, 42, 0
2, 541440, Note_on_c, 0, 76, 96
2, 541440, Note_on_c, 0, 44, 96
2, 541566, Note_on_c, 0, 44, 0
2, 541568, Note_on_c, 0, 45, 96
2, 541684, Note_on_c, 0, 68, 0
2, 541686, Note_on_c, 0, 64, 0
2, 541686, Note_on_c, 0, 71, 0
2, 541694, Note_on_c, 0, 45, 0
2, 541696, Note_on_c, 0, 47, 96
2, 541822, Note_on_c, 0, 47, 0
2, 541824, Note_on_c, 0, 37, 96
2, 541950, Note_on_c, 0, 76, 0
2, 541952, Note_on_c, 0, 74, 96
2, 542078, Note_on_c, 0, 74, 0
2, 542080, Note_on_c, 0, 73, 96
2, 542206, Note_on_c, 0, 73, 0
2, 542206, Note_on_c, 0, 37, 0
2, 542208, Note_on_c, 0, 71, 96
2, 542208, Note_on_c, 0, 38, 96
2, 542334, Note_on_c, 0, 71, 0
2, 542336, Note_on_c, 0, 73, 96
2, 542462, Note_on_c, 0, 73, 0
2, 542464, Note_on_c, 0, 69, 96
2, 542590, Note_on_c, 0, 69, 0
2, 542590, Note_on_c, 0, 38, 0
2, 542592, Note_on_c, 0, 64, 96
2, 542592, Note_on_c, 0, 40, 96
2, 542718, Note_on_c, 0, 64, 0
2, 542720, Note_on_c, 0, 69, 96
2, 542846, Note_on_c, 0, 69, 0
2, 542848, Note_on_c, 0, 68, 96
2, 542974, Note_on_c, 0, 68, 0
2, 542974, Note_on_c, 0, 40, 0
2, 542976, Note_on_c, 0, 45, 96
2, 543104, Note_on_c, 0, 49, 96
2, 543230, Note_on_c, 0, 49, 0
2, 543232, Note_on_c, 0, 52, 96
2, 543358, Note_on_c, 0, 52, 0
2, 543360, Note_on_c, 0, 57, 96
2, 543486, Note_on_c, 0, 57, 0
2, 543488, Note_on_c, 0, 61, 96
2, 543614, Note_on_c, 0, 61, 0
2, 543616, Note_on_c, 0, 64, 96
2, 543742, Note_on_c, 0, 64, 0
2, 543743, Note_on_c, 0, 45, 0
2, 543744, Note_on_c, 0, 69, 96
2, 544124, Note_on_c, 0, 69, 0
2, 544128, Note_on_c, 0, 61, 96
2, 544254, Note_on_c, 0, 61, 0
2, 544256, Note_on_c, 0, 62, 96
2, 544382, Note_on_c, 0, 62, 0
2, 544384, Note_on_c, 0, 64, 96
2, 544510, Note_on_c, 0, 64, 0
2, 544512, Note_on_c, 0, 54, 96
2, 544638, Note_on_c, 0, 54, 0
2, 544640, Note_on_c, 0, 64, 96
2, 544766, Note_on_c, 0, 64, 0
2, 544768, Note_on_c, 0, 62, 96
2, 544894, Note_on_c, 0, 62, 0
2, 544896, Note_on_c, 0, 61, 96
2, 545022, Note_on_c, 0, 61, 0
2, 545024, Note_on_c, 0, 62, 96
2, 545150, Note_on_c, 0, 62, 0
2, 545152, Note_on_c, 0, 64, 96
2, 545278, Note_on_c, 0, 64, 0
2, 545280, Note_on_c, 0, 55, 96
2, 545406, Note_on_c, 0, 55, 0
2, 545408, Note_on_c, 0, 64, 96
2, 545534, Note_on_c, 0, 64, 0
2, 545536, Note_on_c, 0, 62, 96
2, 545662, Note_on_c, 0, 62, 0
2, 545664, Note_on_c, 0, 61, 96
2, 545790, Note_on_c, 0, 61, 0
2, 545792, Note_on_c, 0, 62, 96
2, 545918, Note_on_c, 0, 62, 0
2, 545920, Note_on_c, 0, 64, 96
2, 546046, Note_on_c, 0, 64, 0
2, 546048, Note_on_c, 0, 57, 96
2, 546174, Note_on_c, 0, 57, 0
2, 546176, Note_on_c, 0, 59, 96
2, 546302, Note_on_c, 0, 59, 0
2, 546304, Note_on_c, 0, 61, 96
2, 546430, Note_on_c, 0, 61, 0
2, 546432, Note_on_c, 0, 62, 96
2, 546557, Note_on_c, 0, 62, 0
2, 546560, Note_on_c, 0, 66, 96
2, 546686, Note_on_c, 0, 66, 0
2, 546688, Note_on_c, 0, 69, 96
2, 546814, Note_on_c, 0, 69, 0
2, 546816, Note_on_c, 0, 68, 96
2, 546942, Note_on_c, 0, 68, 0
2, 546944, Note_on_c, 0, 66, 96
2, 547070, Note_on_c, 0, 66, 0
2, 547072, Note_on_c, 0, 64, 96
2, 547198, Note_on_c, 0, 64, 0
2, 547200, Note_on_c, 0, 62, 96
2, 547326, Note_on_c, 0, 62, 0
2, 547328, Note_on_c, 0, 61, 96
2, 547454, Note_on_c, 0, 61, 0
2, 547456, Note_on_c, 0, 59, 96
2, 547582, Note_on_c, 0, 59, 0
2, 547584, Note_on_c, 0, 61, 96
2, 547710, Note_on_c, 0, 61, 0
2, 547712, Note_on_c, 0, 64, 96
2, 547838, Note_on_c, 0, 64, 0
2, 547840, Note_on_c, 0, 67, 96
2, 547966, Note_on_c, 0, 67, 0
2, 547968, Note_on_c, 0, 66, 96
2, 548094, Note_on_c, 0, 66, 0
2, 548096, Note_on_c, 0, 64, 96
2, 548222, Note_on_c, 0, 64, 0
2, 548224, Note_on_c, 0, 62, 96
2, 548350, Note_on_c, 0, 62, 0
2, 548352, Note_on_c, 0, 61, 96
2, 548478, Note_on_c, 0, 61, 0
2, 548480, Note_on_c, 0, 59, 96
2, 548606, Note_on_c, 0, 59, 0
2, 548608, Note_on_c, 0, 57, 96
2, 548734, Note_on_c, 0, 57, 0
2, 548736, Note_on_c, 0, 59, 96
2, 548862, Note_on_c, 0, 59, 0
2, 548864, Note_on_c, 0, 61, 96
2, 548990, Note_on_c, 0, 61, 0
2, 548992, Note_on_c, 0, 62, 96
2, 549118, Note_on_c, 0, 62, 0
2, 549120, Note_on_c, 0, 61, 96
2, 549246, Note_on_c, 0, 61, 0
2, 549248, Note_on_c, 0, 59, 96
2, 549374, Note_on_c, 0, 59, 0
2, 549376, Note_on_c, 0, 57, 96
2, 549502, Note_on_c, 0, 57, 0
2, 549504, Note_on_c, 0, 59, 96
2, 549630, Note_on_c, 0, 59, 0
2, 549632, Note_on_c, 0, 57, 96
2, 549758, Note_on_c, 0, 57, 0
2, 549760, Note_on_c, 0, 56, 96
2, 549886, Note_on_c, 0, 56, 0
2, 549888, Note_on_c, 0, 57, 96
2, 550014, Note_on_c, 0, 57, 0
2, 550016, Note_on_c, 0, 64, 96
2, 550142, Note_on_c, 0, 64, 0
2, 550144, Note_on_c, 0, 62, 96
2, 550270, Note_on_c, 0, 62, 0
2, 550272, Note_on_c, 0, 61, 96
2, 550398, Note_on_c, 0, 61, 0
2, 550400, Note_on_c, 0, 59, 96
2, 550526, Note_on_c, 0, 59, 0
2, 550528, Note_on_c, 0, 57, 96
2, 550654, Note_on_c, 0, 57, 0
2, 550656, Note_on_c, 0, 55, 96
2, 550782, Note_on_c, 0, 55, 0
2, 550784, Note_on_c, 0, 54, 96
2, 550910, Note_on_c, 0, 54, 0
2, 550912, Note_on_c, 0, 52, 96
2, 551038, Note_on_c, 0, 52, 0
2, 551040, Note_on_c, 0, 66, 96
2, 551040, Note_on_c, 0, 50, 96
2, 551166, Note_on_c, 0, 66, 0
2, 551168, Note_on_c, 0, 67, 96
2, 551294, Note_on_c, 0, 67, 0
2, 551296, Note_on_c, 0, 69, 96
2, 551422, Note_on_c, 0, 69, 0
2, 551424, Note_on_c, 0, 59, 96
2, 551550, Note_on_c, 0, 59, 0
2, 551550, Note_on_c, 0, 50, 0
2, 551552, Note_on_c, 0, 69, 96
2, 551552, Note_on_c, 0, 54, 96
2, 551678, Note_on_c, 0, 54, 0
2, 551678, Note_on_c, 0, 69, 0
2, 551680, Note_on_c, 0, 67, 96
2, 551680, Note_on_c, 0, 57, 96
2, 551806, Note_on_c, 0, 57, 0
2, 551806, Note_on_c, 0, 67, 0
2, 551808, Note_on_c, 0, 66, 96
2, 551808, Note_on_c, 0, 62, 96
2, 551934, Note_on_c, 0, 62, 0
2, 551934, Note_on_c, 0, 66, 0
2, 551936, Note_on_c, 0, 67, 96
2, 551936, Note_on_c, 0, 57, 96
2, 552062, Note_on_c, 0, 57, 0
2, 552062, Note_on_c, 0, 67, 0
2, 552064, Note_on_c, 0, 69, 96
2, 552064, Note_on_c, 0, 54, 96
2, 552190, Note_on_c, 0, 54, 0
2, 552190, Note_on_c, 0, 69, 0
2, 552192, Note_on_c, 0, 60, 96
2, 552192, Note_on_c, 0, 50, 96
2, 552318, Note_on_c, 0, 50, 0
2, 552318, Note_on_c, 0, 60, 0
2, 552320, Note_on_c, 0, 69, 96
2, 552320, Note_on_c, 0, 54, 96
2, 552446, Note_on_c, 0, 54, 0
2, 552446, Note_on_c, 0, 69, 0
2, 552448, Note_on_c, 0, 67, 96
2, 552448, Note_on_c, 0, 57, 96
2, 552574, Note_on_c, 0, 57, 0
2, 552574, Note_on_c, 0, 67, 0
2, 552576, Note_on_c, 0, 66, 96
2, 552576, Note_on_c, 0, 60, 96
2, 552702, Note_on_c, 0, 66, 0
2, 552704, Note_on_c, 0, 67, 96
2, 552830, Note_on_c, 0, 67, 0
2, 552832, Note_on_c, 0, 69, 96
2, 552956, Note_on_c, 0, 60, 0
2, 552958, Note_on_c, 0, 69, 0
2, 552960, Note_on_c, 0, 62, 96
2, 553086, Note_on_c, 0, 62, 0
2, 553088, Note_on_c, 0, 64, 96
2, 553214, Note_on_c, 0, 64, 0
2, 553216, Note_on_c, 0, 66, 96
2, 553342, Note_on_c, 0, 66, 0
2, 553344, Note_on_c, 0, 67, 96
2, 553344, Note_on_c, 0, 59, 96
2, 553470, Note_on_c, 0, 59, 0
2, 553470, Note_on_c, 0, 67, 0
2, 553472, Note_on_c, 0, 71, 96
2, 553472, Note_on_c, 0, 57, 96
2, 553598, Note_on_c, 0, 57, 0
2, 553598, Note_on_c, 0, 71, 0
2, 553600, Note_on_c, 0, 74, 96
2, 553600, Note_on_c, 0, 59, 96
2, 553726, Note_on_c, 0, 59, 0
2, 553726, Note_on_c, 0, 74, 0
2, 553728, Note_on_c, 0, 73, 96
2, 553728, Note_on_c, 0, 52, 96
2, 553854, Note_on_c, 0, 73, 0
2, 553856, Note_on_c, 0, 71, 96
2, 553982, Note_on_c, 0, 71, 0
2, 553984, Note_on_c, 0, 69, 96
2, 554110, Note_on_c, 0, 69, 0
2, 554112, Note_on_c, 0, 67, 96
2, 554238, Note_on_c, 0, 67, 0
2, 554238, Note_on_c, 0, 52, 0
2, 554240, Note_on_c, 0, 66, 96
2, 554240, Note_on_c, 0, 54, 96
2, 554366, Note_on_c, 0, 54, 0
2, 554366, Note_on_c, 0, 66, 0
2, 554368, Note_on_c, 0, 64, 96
2, 554368, Note_on_c, 0, 55, 96
2, 554494, Note_on_c, 0, 55, 0
2, 554494, Note_on_c, 0, 64, 0
2, 554496, Note_on_c, 0, 66, 96
2, 554496, Note_on_c, 0, 57, 96
2, 554622, Note_on_c, 0, 57, 0
2, 554622, Note_on_c, 0, 66, 0
2, 554624, Note_on_c, 0, 69, 96
2, 554624, Note_on_c, 0, 55, 96
2, 554750, Note_on_c, 0, 55, 0
2, 554750, Note_on_c, 0, 69, 0
2, 554752, Note_on_c, 0, 72, 96
2, 554752, Note_on_c, 0, 57, 96
2, 554878, Note_on_c, 0, 57, 0
2, 554878, Note_on_c, 0, 72, 0
2, 554880, Note_on_c, 0, 71, 96
2, 554880, Note_on_c, 0, 50, 96
2, 555006, Note_on_c, 0, 71, 0
2, 555008, Note_on_c, 0, 69, 96
2, 555134, Note_on_c, 0, 69, 0
2, 555136, Note_on_c, 0, 67, 96
2, 555262, Note_on_c, 0, 67, 0
2, 555264, Note_on_c, 0, 66, 96
2, 555390, Note_on_c, 0, 66, 0
2, 555390, Note_on_c, 0, 50, 0
2, 555392, Note_on_c, 0, 64, 96
2, 555392, Note_on_c, 0, 52, 96
2, 555518, Note_on_c, 0, 52, 0
2, 555518, Note_on_c, 0, 64, 0
2, 555520, Note_on_c, 0, 62, 96
2, 555520, Note_on_c, 0, 54, 96
2, 555646, Note_on_c, 0, 54, 0
2, 555646, Note_on_c, 0, 62, 0
2, 555648, Note_on_c, 0, 64, 96
2, 555648, Note_on_c, 0, 55, 96
2, 555774, Note_on_c, 0, 55, 0
2, 555774, Note_on_c, 0, 64, 0
2, 555776, Note_on_c, 0, 66, 96
2, 555776, Note_on_c, 0, 52, 96
2, 555902, Note_on_c, 0, 52, 0
2, 555902, Note_on_c, 0, 66, 0
2, 555904, Note_on_c, 0, 67, 96
2, 555904, Note_on_c, 0, 49, 96
2, 556030, Note_on_c, 0, 49, 0
2, 556030, Note_on_c, 0, 67, 0
2, 556032, Note_on_c, 0, 66, 96
2, 556032, Note_on_c, 0, 45, 96
2, 556158, Note_on_c, 0, 45, 0
2, 556158, Note_on_c, 0, 66, 0
2, 556160, Note_on_c, 0, 64, 96
2, 556160, Note_on_c, 0, 49, 96
2, 556286, Note_on_c, 0, 49, 0
2, 556286, Note_on_c, 0, 64, 0
2, 556288, Note_on_c, 0, 62, 96
2, 556288, Note_on_c, 0, 52, 96
2, 556414, Note_on_c, 0, 52, 0
2, 556414, Note_on_c, 0, 62, 0
2, 556416, Note_on_c, 0, 64, 96
2, 556416, Note_on_c, 0, 55, 96
2, 556542, Note_on_c, 0, 55, 0
2, 556542, Note_on_c, 0, 64, 0
2, 556544, Note_on_c, 0, 62, 96
2, 556544, Note_on_c, 0, 54, 96
2, 556670, Note_on_c, 0, 54, 0
2, 556670, Note_on_c, 0, 62, 0
2, 556672, Note_on_c, 0, 61, 96
2, 556672, Note_on_c, 0, 52, 96
2, 556798, Note_on_c, 0, 52, 0
2, 556798, Note_on_c, 0, 61, 0
2, 556800, Note_on_c, 0, 62, 96
2, 556800, Note_on_c, 0, 54, 96
2, 556926, Note_on_c, 0, 62, 0
2, 556928, Note_on_c, 0, 69, 96
2, 557054, Note_on_c, 0, 69, 0
2, 557056, Note_on_c, 0, 67, 96
2, 557182, Note_on_c, 0, 67, 0
2, 557182, Note_on_c, 0, 54, 0
2, 557184, Note_on_c, 0, 66, 96
2, 557184, Note_on_c, 0, 57, 96
2, 557310, Note_on_c, 0, 66, 0
2, 557312, Note_on_c, 0, 64, 96
2, 557438, Note_on_c, 0, 64, 0
2, 557440, Note_on_c, 0, 62, 96
2, 557566, Note_on_c, 0, 62, 0
2, 557566, Note_on_c, 0, 57, 0
2, 557568, Note_on_c, 0, 60, 96
2, 557568, Note_on_c, 0, 50, 96
2, 557694, Note_on_c, 0, 60, 0
2, 557696, Note_on_c, 0, 59, 96
2, 557822, Note_on_c, 0, 59, 0
2, 557824, Note_on_c, 0, 57, 96
2, 557950, Note_on_c, 0, 57, 0
2, 557950, Note_on_c, 0, 50, 0
2, 557952, Note_on_c, 0, 59, 96
2, 557952, Note_on_c, 0, 55, 96
2, 558078, Note_on_c, 0, 55, 0
2, 558080, Note_on_c, 0, 62, 96
2, 558206, Note_on_c, 0, 62, 0
2, 558208, Note_on_c, 0, 60, 96
2, 558334, Note_on_c, 0, 60, 0
2, 558334, Note_on_c, 0, 59, 0
2, 558336, Note_on_c, 0, 63, 96
2, 558336, Note_on_c, 0, 59, 96
2, 558462, Note_on_c, 0, 59, 0
2, 558464, Note_on_c, 0, 57, 96
2, 558590, Note_on_c, 0, 57, 0
2, 558592, Note_on_c, 0, 55, 96
2, 558718, Note_on_c, 0, 55, 0
2, 558718, Note_on_c, 0, 63, 0
2, 558720, Note_on_c, 0, 69, 96
2, 558720, Note_on_c, 0, 54, 96
2, 558846, Note_on_c, 0, 54, 0
2, 558848, Note_on_c, 0, 52, 96
2, 558974, Note_on_c, 0, 52, 0
2, 558976, Note_on_c, 0, 51, 96
2, 559102, Note_on_c, 0, 51, 0
2, 559104, Note_on_c, 0, 52, 96
2, 559230, Note_on_c, 0, 69, 0
2, 559232, Note_on_c, 0, 71, 96
2, 559358, Note_on_c, 0, 71, 0
2, 559360, Note_on_c, 0, 69, 96
2, 559486, Note_on_c, 0, 69, 0
2, 559486, Note_on_c, 0, 52, 0
2, 559488, Note_on_c, 0, 68, 96
2, 559488, Note_on_c, 0, 47, 96
2, 559614, Note_on_c, 0, 68, 0
2, 559616, Note_on_c, 0, 66, 96
2, 559742, Note_on_c, 0, 66, 0
2, 559744, Note_on_c, 0, 64, 96
2, 559870, Note_on_c, 0, 64, 0
2, 559870, Note_on_c, 0, 47, 0
2, 559872, Note_on_c, 0, 62, 96
2, 559872, Note_on_c, 0, 56, 96
2, 559998, Note_on_c, 0, 62, 0
2, 560000, Note_on_c, 0, 61, 96
2, 560126, Note_on_c, 0, 61, 0
2, 560128, Note_on_c, 0, 59, 96
2, 560254, Note_on_c, 0, 59, 0
2, 560254, Note_on_c, 0, 56, 0
2, 560256, Note_on_c, 0, 61, 96
2, 560256, Note_on_c, 0, 57, 96
2, 560382, Note_on_c, 0, 57, 0
2, 560384, Note_on_c, 0, 64, 96
2, 560510, Note_on_c, 0, 64, 0
2, 560512, Note_on_c, 0, 62, 96
2, 560638, Note_on_c, 0, 62, 0
2, 560638, Note_on_c, 0, 61, 0
2, 560640, Note_on_c, 0, 65, 96
2, 560640, Note_on_c, 0, 61, 96
2, 560766, Note_on_c, 0, 61, 0
2, 560768, Note_on_c, 0, 59, 96
2, 560894, Note_on_c, 0, 59, 0
2, 560896, Note_on_c, 0, 57, 96
2, 561022, Note_on_c, 0, 57, 0
2, 561022, Note_on_c, 0, 65, 0
2, 561024, Note_on_c, 0, 71, 96
2, 561024, Note_on_c, 0, 56, 96
2, 561150, Note_on_c, 0, 56, 0
2, 561152, Note_on_c, 0, 54, 96
2, 561278, Note_on_c, 0, 54, 0
2, 561280, Note_on_c, 0, 53, 96
2, 561406, Note_on_c, 0, 53, 0
2, 561408, Note_on_c, 0, 73, 96
2, 561408, Note_on_c, 0, 54, 96
2, 561534, Note_on_c, 0, 73, 0
2, 561536, Note_on_c, 0, 74, 96
2, 561662, Note_on_c, 0, 74, 0
2, 561664, Note_on_c, 0, 76, 96
2, 561788, Note_on_c, 0, 54, 0
2, 561790, Note_on_c, 0, 76, 0
2, 561791, Note_on_c, 0, 71, 0
2, 561792, Note_on_c, 0, 70, 96
2, 561792, Note_on_c, 0, 66, 96
2, 561918, Note_on_c, 0, 70, 0
2, 561920, Note_on_c, 0, 76, 96
2, 562046, Note_on_c, 0, 76, 0
2, 562048, Note_on_c, 0, 74, 96
2, 562174, Note_on_c, 0, 74, 0
2, 562176, Note_on_c, 0, 73, 96
2, 562176, Note_on_c, 0, 58, 96
2, 562302, Note_on_c, 0, 73, 0
2, 562304, Note_on_c, 0, 74, 96
2, 562430, Note_on_c, 0, 74, 0
2, 562432, Note_on_c, 0, 76, 96
2, 562558, Note_on_c, 0, 76, 0
2, 562558, Note_on_c, 0, 58, 0
2, 562559, Note_on_c, 0, 66, 0
2, 562560, Note_on_c, 0, 62, 96
2, 562560, Note_on_c, 0, 68, 96
2, 562560, Note_on_c, 0, 59, 96
2, 562686, Note_on_c, 0, 68, 0
2, 562688, Note_on_c, 0, 76, 96
2, 562814, Note_on_c, 0, 76, 0
2, 562816, Note_on_c, 0, 74, 96
2, 562940, Note_on_c, 0, 62, 0
2, 562942, Note_on_c, 0, 74, 0
2, 562942, Note_on_c, 0, 59, 0
2, 562944, Note_on_c, 0, 64, 96
2, 562944, Note_on_c, 0, 73, 96
2, 562944, Note_on_c, 0, 52, 96
2, 563070, Note_on_c, 0, 73, 0
2, 563072, Note_on_c, 0, 74, 96
2, 563198, Note_on_c, 0, 74, 0
2, 563200, Note_on_c, 0, 76, 96
2, 563324, Note_on_c, 0, 64, 0
2, 563326, Note_on_c, 0, 76, 0
2, 563326, Note_on_c, 0, 52, 0
2, 563328, Note_on_c, 0, 70, 96
2, 563328, Note_on_c, 0, 61, 96
2, 563328, Note_on_c, 0, 54, 96
2, 563454, Note_on_c, 0, 70, 0
2, 563456, Note_on_c, 0, 71, 96
2, 563582, Note_on_c, 0, 71, 0
2, 563584, Note_on_c, 0, 73, 96
2, 563710, Note_on_c, 0, 73, 0
2, 563710, Note_on_c, 0, 54, 0
2, 563710, Note_on_c, 0, 61, 0
2, 563712, Note_on_c, 0, 74, 96
2, 563712, Note_on_c, 0, 59, 96
2, 563712, Note_on_c, 0, 47, 96
2, 563838, Note_on_c, 0, 74, 0
2, 563840, Note_on_c, 0, 78, 96
2, 563966, Note_on_c, 0, 78, 0
2, 563968, Note_on_c, 0, 81, 96
2, 564094, Note_on_c, 0, 81, 0
2, 564094, Note_on_c, 0, 47, 0
2, 564096, Note_on_c, 0, 80, 96
2, 564096, Note_on_c, 0, 52, 96
2, 564222, Note_on_c, 0, 80, 0
2, 564223, Note_on_c, 0, 59, 0
2, 564224, Note_on_c, 0, 78, 96
2, 564224, Note_on_c, 0, 61, 96
2, 564350, Note_on_c, 0, 61, 0
2, 564350, Note_on_c, 0, 78, 0
2, 564352, Note_on_c, 0, 76, 96
2, 564352, Note_on_c, 0, 62, 96
2, 564476, Note_on_c, 0, 52, 0
2, 564478, Note_on_c, 0, 62, 0
2, 564478, Note_on_c, 0, 76, 0
2, 564480, Note_on_c, 0, 74, 96
2, 564480, Note_on_c, 0, 64, 96
2, 564606, Note_on_c, 0, 64, 0
2, 564606, Note_on_c, 0, 74, 0
2, 564608, Note_on_c, 0, 73, 96
2, 564608, Note_on_c, 0, 66, 96
2, 564734, Note_on_c, 0, 66, 0
2, 564734, Note_on_c, 0, 73, 0
2, 564736, Note_on_c, 0, 71, 96
2, 564736, Note_on_c, 0, 68, 96
2, 564862, Note_on_c, 0, 68, 0
2, 564862, Note_on_c, 0, 71, 0
2, 564864, Note_on_c, 0, 73, 96
2, 564864, Note_on_c, 0, 45, 96
2, 564864, Note_on_c, 0, 69, 96
2, 564990, Note_on_c, 0, 73, 0
2, 564992, Note_on_c, 0, 76, 96
2, 565118, Note_on_c, 0, 76, 0
2, 565120, Note_on_c, 0, 79, 96
2, 565246, Note_on_c, 0, 79, 0
2, 565246, Note_on_c, 0, 45, 0
2, 565248, Note_on_c, 0, 78, 96
2, 565248, Note_on_c, 0, 50, 96
2, 565374, Note_on_c, 0, 78, 0
2, 565375, Note_on_c, 0, 69, 0
2, 565376, Note_on_c, 0, 76, 96
2, 565376, Note_on_c, 0, 59, 96
2, 565502, Note_on_c, 0, 59, 0
2, 565502, Note_on_c, 0, 76, 0
2, 565504, Note_on_c, 0, 74, 96
2, 565504, Note_on_c, 0, 61, 96
2, 565628, Note_on_c, 0, 50, 0
2, 565630, Note_on_c, 0, 61, 0
2, 565630, Note_on_c, 0, 74, 0
2, 565632, Note_on_c, 0, 72, 96
2, 565632, Note_on_c, 0, 62, 96
2, 565758, Note_on_c, 0, 62, 0
2, 565758, Note_on_c, 0, 72, 0
2, 565760, Note_on_c, 0, 71, 96
2, 565760, Note_on_c, 0, 64, 96
2, 565886, Note_on_c, 0, 64, 0
2, 565886, Note_on_c, 0, 71, 0
2, 565888, Note_on_c, 0, 69, 96
2, 565888, Note_on_c, 0, 66, 96
2, 566014, Note_on_c, 0, 66, 0
2, 566014, Note_on_c, 0, 69, 0
2, 566016, Note_on_c, 0, 67, 96
2, 566016, Note_on_c, 0, 71, 96
2, 566016, Note_on_c, 0, 43, 96
2, 566142, Note_on_c, 0, 71, 0
2, 566144, Note_on_c, 0, 72, 96
2, 566270, Note_on_c, 0, 72, 0
2, 566272, Note_on_c, 0, 74, 96
2, 566396, Note_on_c, 0, 67, 0
2, 566398, Note_on_c, 0, 74, 0
2, 566398, Note_on_c, 0, 43, 0
2, 566400, Note_on_c, 0, 72, 96
2, 566400, Note_on_c, 0, 55, 96
2, 566400, Note_on_c, 0, 52, 96
2, 566526, Note_on_c, 0, 72, 0
2, 566528, Note_on_c, 0, 71, 96
2, 566654, Note_on_c, 0, 71, 0
2, 566656, Note_on_c, 0, 69, 96
2, 566782, Note_on_c, 0, 69, 0
2, 566782, Note_on_c, 0, 52, 0
2, 566784, Note_on_c, 0, 71, 96
2, 566784, Note_on_c, 0, 50, 96
2, 566910, Note_on_c, 0, 71, 0
2, 566912, Note_on_c, 0, 69, 96
2, 567038, Note_on_c, 0, 69, 0
2, 567040, Note_on_c, 0, 67, 96
2, 567166, Note_on_c, 0, 67, 0
2, 567166, Note_on_c, 0, 50, 0
2, 567168, Note_on_c, 0, 69, 96
2, 567168, Note_on_c, 0, 49, 96
2, 567294, Note_on_c, 0, 69, 0
2, 567296, Note_on_c, 0, 71, 96
2, 567422, Note_on_c, 0, 71, 0
2, 567424, Note_on_c, 0, 72, 96
2, 567550, Note_on_c, 0, 72, 0
2, 567550, Note_on_c, 0, 49, 0
2, 567550, Note_on_c, 0, 55, 0
2, 567552, Note_on_c, 0, 71, 96
2, 567552, Note_on_c, 0, 51, 96
2, 567552, Note_on_c, 0, 54, 96
2, 567678, Note_on_c, 0, 71, 0
2, 567680, Note_on_c, 0, 69, 96
2, 567806, Note_on_c, 0, 69, 0
2, 567808, Note_on_c, 0, 67, 96
2, 567934, Note_on_c, 0, 67, 0
2, 567934, Note_on_c, 0, 54, 0
2, 567934, Note_on_c, 0, 51, 0
2, 567936, Note_on_c, 0, 69, 96
2, 567936, Note_on_c, 0, 47, 96
2, 567936, Note_on_c, 0, 51, 96
2, 568062, Note_on_c, 0, 69, 0
2, 568064, Note_on_c, 0, 67, 96
2, 568190, Note_on_c, 0, 67, 0
2, 568192, Note_on_c, 0, 66, 96
2, 568318, Note_on_c, 0, 66, 0
2, 568318, Note_on_c, 0, 51, 0
2, 568318, Note_on_c, 0, 47, 0
2, 568320, Note_on_c, 0, 67, 96
2, 568320, Note_on_c, 0, 52, 96
2, 568320, Note_on_c, 0, 40, 96
2, 568446, Note_on_c, 0, 67, 0
2, 568448, Note_on_c, 0, 83, 96
2, 568574, Note_on_c, 0, 83, 0
2, 568576, Note_on_c, 0, 81, 96
2, 568702, Note_on_c, 0, 81, 0
2, 568702, Note_on_c, 0, 40, 0
2, 568702, Note_on_c, 0, 52, 0
2, 568704, Note_on_c, 0, 79, 96
2, 568704, Note_on_c, 0, 59, 96
2, 568830, Note_on_c, 0, 79, 0
2, 568832, Note_on_c, 0, 78, 96
2, 568958, Note_on_c, 0, 78, 0
2, 568960, Note_on_c, 0, 76, 96
2, 569086, Note_on_c, 0, 76, 0
2, 569086, Note_on_c, 0, 59, 0
2, 569088, Note_on_c, 0, 74, 96
2, 569088, Note_on_c, 0, 55, 96
2, 569088, Note_on_c, 0, 64, 96
2, 569214, Note_on_c, 0, 74, 0
2, 569216, Note_on_c, 0, 73, 96
2, 569342, Note_on_c, 0, 73, 0
2, 569344, Note_on_c, 0, 71, 96
2, 569470, Note_on_c, 0, 71, 0
2, 569470, Note_on_c, 0, 64, 0
2, 569472, Note_on_c, 0, 73, 96
2, 569472, Note_on_c, 0, 57, 96
2, 569598, Note_on_c, 0, 73, 0
2, 569600, Note_on_c, 0, 74, 96
2, 569726, Note_on_c, 0, 74, 0
2, 569728, Note_on_c, 0, 76, 96
2, 569854, Note_on_c, 0, 76, 0
2, 569855, Note_on_c, 0, 55, 0
2, 569856, Note_on_c, 0, 74, 96
2, 569856, Note_on_c, 0, 54, 96
2, 569982, Note_on_c, 0, 74, 0
2, 569984, Note_on_c, 0, 76, 96
2, 570110, Note_on_c, 0, 76, 0
2, 570112, Note_on_c, 0, 78, 96
2, 570238, Note_on_c, 0, 78, 0
2, 570238, Note_on_c, 0, 54, 0
2, 570240, Note_on_c, 0, 76, 96
2, 570240, Note_on_c, 0, 49, 96
2, 570366, Note_on_c, 0, 76, 0
2, 570368, Note_on_c, 0, 78, 96
2, 570494, Note_on_c, 0, 78, 0
2, 570496, Note_on_c, 0, 79, 96
2, 570622, Note_on_c, 0, 79, 0
2, 570622, Note_on_c, 0, 49, 0
2, 570624, Note_on_c, 0, 78, 96
2, 570624, Note_on_c, 0, 50, 96
2, 570750, Note_on_c, 0, 78, 0
2, 570752, Note_on_c, 0, 81, 96
2, 570878, Note_on_c, 0, 81, 0
2, 570880, Note_on_c, 0, 79, 96
2, 571002, Note_on_c, 0, 57, 0
2, 571006, Note_on_c, 0, 79, 0
2, 571006, Note_on_c, 0, 50, 0
2, 571008, Note_on_c, 0, 78, 96
2, 571008, Note_on_c, 0, 57, 96
2, 571134, Note_on_c, 0, 78, 0
2, 571136, Note_on_c, 0, 76, 96
2, 571262, Note_on_c, 0, 76, 0
2, 571264, Note_on_c, 0, 74, 96
2, 571390, Note_on_c, 0, 74, 0
2, 571390, Note_on_c, 0, 57, 0
2, 571392, Note_on_c, 0, 72, 96
2, 571392, Note_on_c, 0, 66, 96
2, 571392, Note_on_c, 0, 62, 96
2, 571518, Note_on_c, 0, 72, 0
2, 571520, Note_on_c, 0, 71, 96
2, 571646, Note_on_c, 0, 71, 0
2, 571648, Note_on_c, 0, 70, 96
2, 571774, Note_on_c, 0, 70, 0
2, 571774, Note_on_c, 0, 62, 0
2, 571776, Note_on_c, 0, 71, 96
2, 571776, Note_on_c, 0, 55, 96
2, 571902, Note_on_c, 0, 71, 0
2, 571904, Note_on_c, 0, 73, 96
2, 572030, Note_on_c, 0, 73, 0
2, 572032, Note_on_c, 0, 74, 96
2, 572158, Note_on_c, 0, 74, 0
2, 572158, Note_on_c, 0, 55, 0
2, 572159, Note_on_c, 0, 66, 0
2, 572160, Note_on_c, 0, 73, 96
2, 572160, Note_on_c, 0, 64, 96
2, 572286, Note_on_c, 0, 73, 0
2, 572288, Note_on_c, 0, 74, 96
2, 572414, Note_on_c, 0, 74, 0
2, 572416, Note_on_c, 0, 76, 96
2, 572542, Note_on_c, 0, 76, 0
2, 572542, Note_on_c, 0, 64, 0
2, 572544, Note_on_c, 0, 71, 96
2, 572544, Note_on_c, 0, 74, 96
2, 572544, Note_on_c, 0, 67, 96
2, 572670, Note_on_c, 0, 74, 0
2, 572672, Note_on_c, 0, 76, 96
2, 572798, Note_on_c, 0, 76, 0
2, 572800, Note_on_c, 0, 78, 96
2, 572926, Note_on_c, 0, 78, 0
2, 572926, Note_on_c, 0, 67, 0
2, 572928, Note_on_c, 0, 76, 96
2, 572928, Note_on_c, 0, 49, 96
2, 573054, Note_on_c, 0, 49, 0
2, 573056, Note_on_c, 0, 50, 96
2, 573182, Note_on_c, 0, 50, 0
2, 573184, Note_on_c, 0, 52, 96
2, 573310, Note_on_c, 0, 52, 0
2, 573310, Note_on_c, 0, 76, 0
2, 573311, Note_on_c, 0, 71, 0
2, 573312, Note_on_c, 0, 70, 96
2, 573312, Note_on_c, 0, 73, 96
2, 573312, Note_on_c, 0, 42, 96
2, 573438, Note_on_c, 0, 42, 0
2, 573440, Note_on_c, 0, 52, 96
2, 573566, Note_on_c, 0, 52, 0
2, 573568, Note_on_c, 0, 50, 96
2, 573694, Note_on_c, 0, 50, 0
2, 573694, Note_on_c, 0, 73, 0
2, 573694, Note_on_c, 0, 70, 0
2, 573696, Note_on_c, 0, 79, 96
2, 573696, Note_on_c, 0, 76, 96
2, 573696, Note_on_c, 0, 49, 96
2, 573822, Note_on_c, 0, 49, 0
2, 573824, Note_on_c, 0, 50, 96
2, 573950, Note_on_c, 0, 50, 0
2, 573952, Note_on_c, 0, 52, 96
2, 574078, Note_on_c, 0, 52, 0
2, 574078, Note_on_c, 0, 76, 0
2, 574078, Note_on_c, 0, 79, 0
2, 574080, Note_on_c, 0, 78, 96
2, 574080, Note_on_c, 0, 74, 96
2, 574080, Note_on_c, 0, 44, 96
2, 574206, Note_on_c, 0, 44, 0
2, 574208, Note_on_c, 0, 52, 96
2, 574334, Note_on_c, 0, 52, 0
2, 574336, Note_on_c, 0, 50, 96
2, 574462, Note_on_c, 0, 50, 0
2, 574462, Note_on_c, 0, 74, 0
2, 574462, Note_on_c, 0, 78, 0
2, 574464, Note_on_c, 0, 76, 96
2, 574464, Note_on_c, 0, 49, 96
2, 574590, Note_on_c, 0, 49, 0
2, 574592, Note_on_c, 0, 50, 96
2, 574718, Note_on_c, 0, 50, 0
2, 574720, Note_on_c, 0, 52, 96
2, 574846, Note_on_c, 0, 52, 0
2, 574848, Note_on_c, 0, 73, 96
2, 574848, Note_on_c, 0, 46, 96
2, 574974, Note_on_c, 0, 46, 0
2, 574976, Note_on_c, 0, 47, 96
2, 575102, Note_on_c, 0, 47, 0
2, 575104, Note_on_c, 0, 49, 96
2, 575230, Note_on_c, 0, 49, 0
2, 575230, Note_on_c, 0, 73, 0
2, 575231, Note_on_c, 0, 76, 0
2, 575232, Note_on_c, 0, 71, 96
2, 575232, Note_on_c, 0, 78, 96
2, 575232, Note_on_c, 0, 47, 96
2, 575358, Note_on_c, 0, 47, 0
2, 575360, Note_on_c, 0, 50, 96
2, 575486, Note_on_c, 0, 50, 0
2, 575488, Note_on_c, 0, 54, 96
2, 575614, Note_on_c, 0, 54, 0
2, 575614, Note_on_c, 0, 78, 0
2, 575616, Note_on_c, 0, 83, 96
2, 575616, Note_on_c, 0, 56, 96
2, 575742, Note_on_c, 0, 56, 0
2, 575744, Note_on_c, 0, 54, 96
2, 575870, Note_on_c, 0, 54, 0
2, 575872, Note_on_c, 0, 52, 96
2, 575998, Note_on_c, 0, 52, 0
2, 575999, Note_on_c, 0, 71, 0
2, 576000, Note_on_c, 0, 80, 96
2, 576000, Note_on_c, 0, 50, 96
2, 576126, Note_on_c, 0, 50, 0
2, 576128, Note_on_c, 0, 49, 96
2, 576254, Note_on_c, 0, 49, 0
2, 576256, Note_on_c, 0, 47, 96
2, 576382, Note_on_c, 0, 47, 0
2, 576382, Note_on_c, 0, 80, 0
2, 576384, Note_on_c, 0, 76, 96
2, 576384, Note_on_c, 0, 49, 96
2, 576510, Note_on_c, 0, 49, 0
2, 576512, Note_on_c, 0, 52, 96
2, 576638, Note_on_c, 0, 52, 0
2, 576640, Note_on_c, 0, 55, 96
2, 576766, Note_on_c, 0, 55, 0
2, 576766, Note_on_c, 0, 76, 0
2, 576766, Note_on_c, 0, 83, 0
2, 576768, Note_on_c, 0, 81, 96
2, 576768, Note_on_c, 0, 54, 96
2, 576894, Note_on_c, 0, 54, 0
2, 576896, Note_on_c, 0, 52, 96
2, 577022, Note_on_c, 0, 52, 0
2, 577024, Note_on_c, 0, 50, 96
2, 577150, Note_on_c, 0, 50, 0
2, 577150, Note_on_c, 0, 81, 0
2, 577152, Note_on_c, 0, 79, 96
2, 577152, Note_on_c, 0, 76, 96
2, 577152, Note_on_c, 0, 49, 96
2, 577278, Note_on_c, 0, 49, 0
2, 577280, Note_on_c, 0, 47, 96
2, 577406, Note_on_c, 0, 47, 0
2, 577408, Note_on_c, 0, 45, 96
2, 577534, Note_on_c, 0, 45, 0
2, 577534, Note_on_c, 0, 79, 0
2, 577536, Note_on_c, 0, 78, 96
2, 577536, Note_on_c, 0, 50, 96
2, 577663, Note_on_c, 0, 76, 0
2, 577664, Note_on_c, 0, 66, 96
2, 577790, Note_on_c, 0, 66, 0
2, 577792, Note_on_c, 0, 67, 96
2, 577916, Note_on_c, 0, 78, 0
2, 577918, Note_on_c, 0, 67, 0
2, 577918, Note_on_c, 0, 50, 0
2, 577920, Note_on_c, 0, 69, 96
2, 577920, Note_on_c, 0, 62, 96
2, 578046, Note_on_c, 0, 69, 0
2, 578048, Note_on_c, 0, 71, 96
2, 578174, Note_on_c, 0, 71, 0
2, 578176, Note_on_c, 0, 73, 96
2, 578302, Note_on_c, 0, 73, 0
2, 578302, Note_on_c, 0, 62, 0
2, 578304, Note_on_c, 0, 74, 96
2, 578304, Note_on_c, 0, 59, 96
2, 578430, Note_on_c, 0, 74, 0
2, 578432, Note_on_c, 0, 76, 96
2, 578558, Note_on_c, 0, 76, 0
2, 578560, Note_on_c, 0, 78, 96
2, 578686, Note_on_c, 0, 59, 0
2, 578688, Note_on_c, 0, 71, 96
2, 578688, Note_on_c, 0, 56, 96
2, 578814, Note_on_c, 0, 56, 0
2, 578814, Note_on_c, 0, 71, 0
2, 578816, Note_on_c, 0, 73, 96
2, 578816, Note_on_c, 0, 57, 96
2, 578942, Note_on_c, 0, 57, 0
2, 578942, Note_on_c, 0, 73, 0
2, 578944, Note_on_c, 0, 74, 96
2, 578944, Note_on_c, 0, 59, 96
2, 579070, Note_on_c, 0, 74, 0
2, 579072, Note_on_c, 0, 68, 96
2, 579195, Note_on_c, 0, 78, 0
2, 579198, Note_on_c, 0, 59, 0
2, 579200, Note_on_c, 0, 78, 96
2, 579200, Note_on_c, 0, 57, 96
2, 579326, Note_on_c, 0, 57, 0
2, 579326, Note_on_c, 0, 78, 0
2, 579328, Note_on_c, 0, 76, 96
2, 579328, Note_on_c, 0, 56, 96
2, 579454, Note_on_c, 0, 56, 0
2, 579454, Note_on_c, 0, 76, 0
2, 579456, Note_on_c, 0, 74, 96
2, 579456, Note_on_c, 0, 54, 96
2, 579582, Note_on_c, 0, 54, 0
2, 579582, Note_on_c, 0, 74, 0
2, 579584, Note_on_c, 0, 73, 96
2, 579584, Note_on_c, 0, 52, 96
2, 579710, Note_on_c, 0, 52, 0
2, 579710, Note_on_c, 0, 73, 0
2, 579712, Note_on_c, 0, 71, 96
2, 579712, Note_on_c, 0, 50, 96
2, 579838, Note_on_c, 0, 50, 0
2, 579838, Note_on_c, 0, 71, 0
2, 579840, Note_on_c, 0, 76, 96
2, 579840, Note_on_c, 0, 49, 96
2, 579962, Note_on_c, 0, 68, 0
2, 579968, Note_on_c, 0, 64, 96
2, 580094, Note_on_c, 0, 64, 0
2, 580096, Note_on_c, 0, 66, 96
2, 580222, Note_on_c, 0, 66, 0
2, 580222, Note_on_c, 0, 49, 0
2, 580224, Note_on_c, 0, 68, 96
2, 580224, Note_on_c, 0, 61, 96
2, 580350, Note_on_c, 0, 68, 0
2, 580352, Note_on_c, 0, 69, 96
2, 580478, Note_on_c, 0, 69, 0
2, 580480, Note_on_c, 0, 71, 96
2, 580606, Note_on_c, 0, 71, 0
2, 580606, Note_on_c, 0, 61, 0
2, 580608, Note_on_c, 0, 73, 96
2, 580608, Note_on_c, 0, 57, 96
2, 580734, Note_on_c, 0, 73, 0
2, 580736, Note_on_c, 0, 74, 96
2, 580857, Note_on_c, 0, 76, 0
2, 580862, Note_on_c, 0, 74, 0
2, 580864, Note_on_c, 0, 76, 96
2, 580990, Note_on_c, 0, 57, 0
2, 580992, Note_on_c, 0, 69, 96
2, 580992, Note_on_c, 0, 54, 96
2, 581118, Note_on_c, 0, 54, 0
2, 581118, Note_on_c, 0, 69, 0
2, 581120, Note_on_c, 0, 71, 96
2, 581120, Note_on_c, 0, 56, 96
2, 581246, Note_on_c, 0, 56, 0
2, 581246, Note_on_c, 0, 71, 0
2, 581248, Note_on_c, 0, 73, 96
2, 581248, Note_on_c, 0, 57, 96
2, 581374, Note_on_c, 0, 73, 0
2, 581376, Note_on_c, 0, 66, 96
2, 581496, Note_on_c, 0, 76, 0
2, 581502, Note_on_c, 0, 57, 0
2, 581504, Note_on_c, 0, 76, 96
2, 581504, Note_on_c, 0, 56, 96
2, 581630, Note_on_c, 0, 56, 0
2, 581630, Note_on_c, 0, 76, 0
2, 581632, Note_on_c, 0, 74, 96
2, 581632, Note_on_c, 0, 54, 96
2, 581758, Note_on_c, 0, 54, 0
2, 581758, Note_on_c, 0, 74, 0
2, 581760, Note_on_c, 0, 73, 96
2, 581760, Note_on_c, 0, 52, 96
2, 581886, Note_on_c, 0, 52, 0
2, 581886, Note_on_c, 0, 73, 0
2, 581888, Note_on_c, 0, 71, 96
2, 581888, Note_on_c, 0, 50, 96
2, 582014, Note_on_c, 0, 50, 0
2, 582014, Note_on_c, 0, 71, 0
2, 582016, Note_on_c, 0, 69, 96
2, 582016, Note_on_c, 0, 49, 96
2, 582142, Note_on_c, 0, 49, 0
2, 582142, Note_on_c, 0, 69, 0
2, 582144, Note_on_c, 0, 74, 96
2, 582144, Note_on_c, 0, 47, 96
2, 582266, Note_on_c, 0, 66, 0
2, 582272, Note_on_c, 0, 62, 96
2, 582398, Note_on_c, 0, 62, 0
2, 582400, Note_on_c, 0, 64, 96
2, 582526, Note_on_c, 0, 64, 0
2, 582526, Note_on_c, 0, 47, 0
2, 582528, Note_on_c, 0, 66, 96
2, 582528, Note_on_c, 0, 59, 96
2, 582654, Note_on_c, 0, 66, 0
2, 582656, Note_on_c, 0, 68, 96
2, 582782, Note_on_c, 0, 68, 0
2, 582784, Note_on_c, 0, 69, 96
2, 582910, Note_on_c, 0, 69, 0
2, 582910, Note_on_c, 0, 59, 0
2, 582912, Note_on_c, 0, 71, 96
2, 582912, Note_on_c, 0, 56, 96
2, 583038, Note_on_c, 0, 71, 0
2, 583040, Note_on_c, 0, 73, 96
2, 583161, Note_on_c, 0, 74, 0
2, 583166, Note_on_c, 0, 73, 0
2, 583168, Note_on_c, 0, 74, 96
2, 583294, Note_on_c, 0, 56, 0
2, 583296, Note_on_c, 0, 68, 96
2, 583296, Note_on_c, 0, 52, 96
2, 583422, Note_on_c, 0, 52, 0
2, 583422, Note_on_c, 0, 68, 0
2, 583424, Note_on_c, 0, 69, 96
2, 583424, Note_on_c, 0, 54, 96
2, 583550, Note_on_c, 0, 54, 0
2, 583550, Note_on_c, 0, 69, 0
2, 583552, Note_on_c, 0, 71, 96
2, 583552, Note_on_c, 0, 56, 96
2, 583678, Note_on_c, 0, 71, 0
2, 583680, Note_on_c, 0, 64, 96
2, 583800, Note_on_c, 0, 74, 0
2, 583806, Note_on_c, 0, 56, 0
2, 583808, Note_on_c, 0, 74, 96
2, 583808, Note_on_c, 0, 54, 96
2, 583934, Note_on_c, 0, 54, 0
2, 583934, Note_on_c, 0, 74, 0
2, 583936, Note_on_c, 0, 73, 96
2, 583936, Note_on_c, 0, 52, 96
2, 584062, Note_on_c, 0, 52, 0
2, 584062, Note_on_c, 0, 73, 0
2, 584064, Note_on_c, 0, 71, 96
2, 584064, Note_on_c, 0, 50, 96
2, 584190, Note_on_c, 0, 50, 0
2, 584190, Note_on_c, 0, 71, 0
2, 584192, Note_on_c, 0, 69, 96
2, 584192, Note_on_c, 0, 49, 96
2, 584318, Note_on_c, 0, 49, 0
2, 584318, Note_on_c, 0, 69, 0
2, 584320, Note_on_c, 0, 68, 96
2, 584320, Note_on_c, 0, 47, 96
2, 584446, Note_on_c, 0, 47, 0
2, 584446, Note_on_c, 0, 68, 0
2, 584448, Note_on_c, 0, 73, 96
2, 584448, Note_on_c, 0, 45, 96
2, 584574, Note_on_c, 0, 45, 0
2, 584574, Note_on_c, 0, 73, 0
2, 584576, Note_on_c, 0, 71, 96
2, 584576, Note_on_c, 0, 47, 96
2, 584702, Note_on_c, 0, 47, 0
2, 584702, Note_on_c, 0, 71, 0
2, 584704, Note_on_c, 0, 69, 96
2, 584704, Note_on_c, 0, 49, 96
2, 584830, Note_on_c, 0, 49, 0
2, 584830, Note_on_c, 0, 69, 0
2, 584830, Note_on_c, 0, 64, 0
2, 584832, Note_on_c, 0, 74, 96
2, 584832, Note_on_c, 0, 47, 96
2, 584958, Note_on_c, 0, 47, 0
2, 584960, Note_on_c, 0, 73, 96
2, 584960, Note_on_c, 0, 57, 96
2, 585086, Note_on_c, 0, 57, 0
2, 585086, Note_on_c, 0, 73, 0
2, 585088, Note_on_c, 0, 71, 96
2, 585088, Note_on_c, 0, 55, 96
2, 585214, Note_on_c, 0, 55, 0
2, 585214, Note_on_c, 0, 71, 0
2, 585216, Note_on_c, 0, 69, 96
2, 585216, Note_on_c, 0, 54, 96
2, 585342, Note_on_c, 0, 54, 0
2, 585342, Note_on_c, 0, 69, 0
2, 585344, Note_on_c, 0, 71, 96
2, 585344, Note_on_c, 0, 55, 96
2, 585470, Note_on_c, 0, 55, 0
2, 585470, Note_on_c, 0, 71, 0
2, 585472, Note_on_c, 0, 67, 96
2, 585472, Note_on_c, 0, 57, 96
2, 585598, Note_on_c, 0, 57, 0
2, 585599, Note_on_c, 0, 74, 0
2, 585600, Note_on_c, 0, 76, 96
2, 585600, Note_on_c, 0, 49, 96
2, 585726, Note_on_c, 0, 49, 0
2, 585726, Note_on_c, 0, 76, 0
2, 585728, Note_on_c, 0, 78, 96
2, 585728, Note_on_c, 0, 57, 96
2, 585854, Note_on_c, 0, 57, 0
2, 585854, Note_on_c, 0, 78, 0
2, 585856, Note_on_c, 0, 76, 96
2, 585856, Note_on_c, 0, 55, 96
2, 585982, Note_on_c, 0, 55, 0
2, 585982, Note_on_c, 0, 76, 0
2, 585984, Note_on_c, 0, 74, 96
2, 585984, Note_on_c, 0, 54, 96
2, 586110, Note_on_c, 0, 54, 0
2, 586110, Note_on_c, 0, 74, 0
2, 586112, Note_on_c, 0, 71, 96
2, 586112, Note_on_c, 0, 55, 96
2, 586238, Note_on_c, 0, 55, 0
2, 586238, Note_on_c, 0, 71, 0
2, 586240, Note_on_c, 0, 72, 96
2, 586240, Note_on_c, 0, 57, 96
2, 586362, Note_on_c, 0, 67, 0
2, 586366, Note_on_c, 0, 57, 0
2, 586368, Note_on_c, 0, 66, 96
2, 586368, Note_on_c, 0, 50, 96
2, 586494, Note_on_c, 0, 50, 0
2, 586496, Note_on_c, 0, 52, 96
2, 586620, Note_on_c, 0, 72, 0
2, 586622, Note_on_c, 0, 52, 0
2, 586622, Note_on_c, 0, 66, 0
2, 586624, Note_on_c, 0, 81, 96
2, 586624, Note_on_c, 0, 54, 96
2, 586750, Note_on_c, 0, 54, 0
2, 586750, Note_on_c, 0, 81, 0
2, 586752, Note_on_c, 0, 83, 96
2, 586752, Note_on_c, 0, 55, 96
2, 586878, Note_on_c, 0, 55, 0
2, 586878, Note_on_c, 0, 83, 0
2, 586880, Note_on_c, 0, 81, 96
2, 586880, Note_on_c, 0, 59, 96
2, 587006, Note_on_c, 0, 59, 0
2, 587006, Note_on_c, 0, 81, 0
2, 587008, Note_on_c, 0, 83, 96
2, 587008, Note_on_c, 0, 62, 96
2, 587134, Note_on_c, 0, 62, 0
2, 587134, Note_on_c, 0, 83, 0
2, 587136, Note_on_c, 0, 76, 96
2, 587136, Note_on_c, 0, 61, 96
2, 587262, Note_on_c, 0, 61, 0
2, 587264, Note_on_c, 0, 59, 96
2, 587390, Note_on_c, 0, 59, 0
2, 587392, Note_on_c, 0, 57, 96
2, 587518, Note_on_c, 0, 57, 0
2, 587520, Note_on_c, 0, 55, 96
2, 587646, Note_on_c, 0, 55, 0
2, 587646, Note_on_c, 0, 76, 0
2, 587648, Note_on_c, 0, 78, 96
2, 587648, Note_on_c, 0, 54, 96
2, 587774, Note_on_c, 0, 54, 0
2, 587774, Note_on_c, 0, 78, 0
2, 587776, Note_on_c, 0, 79, 96
2, 587776, Note_on_c, 0, 52, 96
2, 587902, Note_on_c, 0, 52, 0
2, 587902, Note_on_c, 0, 79, 0
2, 587904, Note_on_c, 0, 81, 96
2, 587904, Note_on_c, 0, 54, 96
2, 588030, Note_on_c, 0, 54, 0
2, 588030, Note_on_c, 0, 81, 0
2, 588032, Note_on_c, 0, 79, 96
2, 588032, Note_on_c, 0, 57, 96
2, 588158, Note_on_c, 0, 57, 0
2, 588158, Note_on_c, 0, 79, 0
2, 588160, Note_on_c, 0, 81, 96
2, 588160, Note_on_c, 0, 60, 96
2, 588286, Note_on_c, 0, 60, 0
2, 588286, Note_on_c, 0, 81, 0
2, 588288, Note_on_c, 0, 74, 96
2, 588288, Note_on_c, 0, 59, 96
2, 588414, Note_on_c, 0, 59, 0
2, 588416, Note_on_c, 0, 57, 96
2, 588542, Note_on_c, 0, 57, 0
2, 588544, Note_on_c, 0, 55, 96
2, 588670, Note_on_c, 0, 55, 0
2, 588672, Note_on_c, 0, 54, 96
2, 588798, Note_on_c, 0, 54, 0
2, 588798, Note_on_c, 0, 74, 0
2, 588800, Note_on_c, 0, 76, 96
2, 588800, Note_on_c, 0, 52, 96
2, 588926, Note_on_c, 0, 52, 0
2, 588926, Note_on_c, 0, 76, 0
2, 588928, Note_on_c, 0, 78, 96
2, 588928, Note_on_c, 0, 50, 96
2, 589054, Note_on_c, 0, 50, 0
2, 589054, Note_on_c, 0, 78, 0
2, 589056, Note_on_c, 0, 79, 96
2, 589056, Note_on_c, 0, 52, 96
2, 589182, Note_on_c, 0, 52, 0
2, 589182, Note_on_c, 0, 79, 0
2, 589184, Note_on_c, 0, 76, 96
2, 589184, Note_on_c, 0, 54, 96
2, 589310, Note_on_c, 0, 54, 0
2, 589310, Note_on_c, 0, 76, 0
2, 589312, Note_on_c, 0, 73, 96
2, 589312, Note_on_c, 0, 55, 96
2, 589438, Note_on_c, 0, 55, 0
2, 589438, Note_on_c, 0, 73, 0
2, 589440, Note_on_c, 0, 69, 96
2, 589440, Note_on_c, 0, 54, 96
2, 589566, Note_on_c, 0, 54, 0
2, 589566, Note_on_c, 0, 69, 0
2, 589568, Note_on_c, 0, 73, 96
2, 589568, Note_on_c, 0, 52, 96
2, 589694, Note_on_c, 0, 52, 0
2, 589694, Note_on_c, 0, 73, 0
2, 589696, Note_on_c, 0, 76, 96
2, 589696, Note_on_c, 0, 50, 96
2, 589822, Note_on_c, 0, 50, 0
2, 589822, Note_on_c, 0, 76, 0
2, 589824, Note_on_c, 0, 79, 96
2, 589824, Note_on_c, 0, 52, 96
2, 589950, Note_on_c, 0, 52, 0
2, 589950, Note_on_c, 0, 79, 0
2, 589952, Note_on_c, 0, 78, 96
2, 589952, Note_on_c, 0, 50, 96
2, 590078, Note_on_c, 0, 50, 0
2, 590078, Note_on_c, 0, 78, 0
2, 590080, Note_on_c, 0, 76, 96
2, 590080, Note_on_c, 0, 49, 96
2, 590206, Note_on_c, 0, 49, 0
2, 590206, Note_on_c, 0, 76, 0
2, 590208, Note_on_c, 0, 78, 96
2, 590208, Note_on_c, 0, 50, 96
2, 590336, Note_on_c, 0, 73, 96
2, 590462, Note_on_c, 0, 73, 0
2, 590464, Note_on_c, 0, 74, 96
2, 590592, Note_on_c, 0, 69, 96
2, 590718, Note_on_c, 0, 50, 0
2, 590719, Note_on_c, 0, 74, 0
2, 590720, Note_on_c, 0, 54, 96
2, 590846, Note_on_c, 0, 54, 0
2, 590848, Note_on_c, 0, 57, 96
2, 590972, Note_on_c, 0, 69, 0
2, 590974, Note_on_c, 0, 57, 0
2, 590975, Note_on_c, 0, 78, 0
2, 590976, Note_on_c, 0, 62, 96
2, 591102, Note_on_c, 0, 62, 0
2, 591104, Note_on_c, 0, 57, 96
2, 591230, Note_on_c, 0, 57, 0
2, 591232, Note_on_c, 0, 54, 96
2, 591358, Note_on_c, 0, 54, 0
2, 591360, Note_on_c, 0, 78, 96
2, 591360, Note_on_c, 0, 49, 96
2, 591488, Note_on_c, 0, 73, 96
2, 591614, Note_on_c, 0, 73, 0
2, 591616, Note_on_c, 0, 74, 96
2, 591744, Note_on_c, 0, 69, 96
2, 591870, Note_on_c, 0, 49, 0
2, 591871, Note_on_c, 0, 74, 0
2, 591872, Note_on_c, 0, 54, 96
2, 591998, Note_on_c, 0, 54, 0
2, 592000, Note_on_c, 0, 57, 96
2, 592124, Note_on_c, 0, 69, 0
2, 592126, Note_on_c, 0, 57, 0
2, 592127, Note_on_c, 0, 78, 0
2, 592128, Note_on_c, 0, 62, 96
2, 592254, Note_on_c, 0, 62, 0
2, 592256, Note_on_c, 0, 57, 96
2, 592382, Note_on_c, 0, 57, 0
2, 592384, Note_on_c, 0, 54, 96
2, 592510, Note_on_c, 0, 54, 0
2, 592512, Note_on_c, 0, 77, 96
2, 592512, Note_on_c, 0, 47, 96
2, 592640, Note_on_c, 0, 73, 96
2, 592766, Note_on_c, 0, 73, 0
2, 592768, Note_on_c, 0, 74, 96
2, 592896, Note_on_c, 0, 68, 96
2, 593022, Note_on_c, 0, 47, 0
2, 593023, Note_on_c, 0, 74, 0
2, 593024, Note_on_c, 0, 50, 96
2, 593150, Note_on_c, 0, 50, 0
2, 593152, Note_on_c, 0, 52, 96
2, 593276, Note_on_c, 0, 68, 0
2, 593278, Note_on_c, 0, 52, 0
2, 593279, Note_on_c, 0, 77, 0
2, 593280, Note_on_c, 0, 53, 96
2, 593406, Note_on_c, 0, 53, 0
2, 593408, Note_on_c, 0, 52, 96
2, 593534, Note_on_c, 0, 52, 0
2, 593536, Note_on_c, 0, 50, 96
2, 593662, Note_on_c, 0, 50, 0
2, 593664, Note_on_c, 0, 77, 96
2, 593664, Note_on_c, 0, 45, 96
2, 593792, Note_on_c, 0, 73, 96
2, 593918, Note_on_c, 0, 73, 0
2, 593920, Note_on_c, 0, 74, 96
2, 594048, Note_on_c, 0, 69, 96
2, 594174, Note_on_c, 0, 45, 0
2, 594175, Note_on_c, 0, 74, 0
2, 594176, Note_on_c, 0, 50, 96
2, 594302, Note_on_c, 0, 50, 0
2, 594304, Note_on_c, 0, 52, 96
2, 594428, Note_on_c, 0, 69, 0
2, 594430, Note_on_c, 0, 52, 0
2, 594431, Note_on_c, 0, 77, 0
2, 594432, Note_on_c, 0, 53, 96
2, 594558, Note_on_c, 0, 53, 0
2, 594560, Note_on_c, 0, 52, 96
2, 594686, Note_on_c, 0, 52, 0
2, 594688, Note_on_c, 0, 50, 96
2, 594814, Note_on_c, 0, 50, 0
2, 594816, Note_on_c, 0, 44, 96
2, 594944, Note_on_c, 0, 71, 96
2, 595070, Note_on_c, 0, 71, 0
2, 595072, Note_on_c, 0, 73, 96
2, 595198, Note_on_c, 0, 73, 0
2, 595198, Note_on_c, 0, 44, 0
2, 595200, Note_on_c, 0, 74, 96
2, 595200, Note_on_c, 0, 56, 96
2, 595326, Note_on_c, 0, 74, 0
2, 595328, Note_on_c, 0, 76, 96
2, 595454, Note_on_c, 0, 76, 0
2, 595456, Note_on_c, 0, 77, 96
2, 595582, Note_on_c, 0, 56, 0
2, 595584, Note_on_c, 0, 44, 96
2, 595710, Note_on_c, 0, 77, 0
2, 595712, Note_on_c, 0, 76, 96
2, 595838, Note_on_c, 0, 76, 0
2, 595840, Note_on_c, 0, 74, 96
2, 595966, Note_on_c, 0, 74, 0
2, 595966, Note_on_c, 0, 44, 0
2, 595968, Note_on_c, 0, 73, 96
2, 595968, Note_on_c, 0, 43, 96
2, 596094, Note_on_c, 0, 73, 0
2, 596096, Note_on_c, 0, 74, 96
2, 596222, Note_on_c, 0, 74, 0
2, 596224, Note_on_c, 0, 76, 96
2, 596350, Note_on_c, 0, 76, 0
2, 596352, Note_on_c, 0, 69, 96
2, 596478, Note_on_c, 0, 43, 0
2, 596480, Note_on_c, 0, 73, 96
2, 596480, Note_on_c, 0, 45, 96
2, 596606, Note_on_c, 0, 45, 0
2, 596608, Note_on_c, 0, 76, 96
2, 596608, Note_on_c, 0, 47, 96
2, 596734, Note_on_c, 0, 47, 0
2, 596736, Note_on_c, 0, 81, 96
2, 596736, Note_on_c, 0, 49, 96
2, 596862, Note_on_c, 0, 49, 0
2, 596864, Note_on_c, 0, 50, 96
2, 596978, Note_on_c, 0, 76, 0
2, 596980, Note_on_c, 0, 73, 0
2, 596982, Note_on_c, 0, 69, 0
2, 596990, Note_on_c, 0, 50, 0
2, 596992, Note_on_c, 0, 52, 96
2, 597118, Note_on_c, 0, 52, 0
2, 597120, Note_on_c, 0, 42, 96
2, 597246, Note_on_c, 0, 81, 0
2, 597248, Note_on_c, 0, 79, 96
2, 597374, Note_on_c, 0, 79, 0
2, 597376, Note_on_c, 0, 78, 96
2, 597502, Note_on_c, 0, 78, 0
2, 597502, Note_on_c, 0, 42, 0
2, 597504, Note_on_c, 0, 76, 96
2, 597504, Note_on_c, 0, 43, 96
2, 597630, Note_on_c, 0, 76, 0
2, 597632, Note_on_c, 0, 78, 96
2, 597758, Note_on_c, 0, 78, 0
2, 597760, Note_on_c, 0, 74, 96
2, 597886, Note_on_c, 0, 74, 0
2, 597886, Note_on_c, 0, 43, 0
2, 597888, Note_on_c, 0, 69, 96
2, 597888, Note_on_c, 0, 45, 96
2, 598014, Note_on_c, 0, 69, 0
2, 598016, Note_on_c, 0, 74, 96
2, 598142, Note_on_c, 0, 74, 0
2, 598144, Note_on_c, 0, 73, 96
2, 598270, Note_on_c, 0, 73, 0
2, 598270, Note_on_c, 0, 45, 0
2, 598272, Note_on_c, 0, 74, 96
2, 598272, Note_on_c, 0, 38, 96
2, 598400, Note_on_c, 0, 69, 96
2, 598526, Note_on_c, 0, 69, 0
2, 598528, Note_on_c, 0, 66, 96
2, 598652, Note_on_c, 0, 74, 0
2, 598654, Note_on_c, 0, 66, 0
2, 598656, Note_on_c, 0, 62, 96
2, 598782, Note_on_c, 0, 38, 0
2, 598784, Note_on_c, 0, 57, 96
2, 598906, Note_on_c, 0, 62, 0
2, 598910, Note_on_c, 0, 57, 0
2, 598912, Note_on_c, 0, 54, 96
2, 599038, Note_on_c, 0, 54, 0
2, 599040, Note_on_c, 0, 50, 96
2, 600570, Note_on_c, 0, 50, 0
2, 600570, End_track
0, 0, End_of_file
