0, 0, Header, 1, 2, 384
1, 0, Start_track
1, 0, Title_t, "--------"
1, 0, Text_t, "harpsichord: John Sankey\012"
1, 0, Time_signature, 4, 2, 24, 8
1, 0, Key_signature, 0, "major"
1, 0, Tempo, 705882
1, 170496, Tempo, 1153846
1, 205440, Tempo, 923077
1, 205824, Time_signature, 3, 3, 12, 8
1, 274944, Time_signature, 2, 2, 24, 8
1, 274944, Tempo, 800000
1, 303360, Time_signature, 3, 2, 24, 8
1, 303360, Tempo, 1200000
1, 347136, Time_signature, 2, 2, 24, 8
1, 347136, Tempo, 1000000
1, 372480, Tempo, 857143
1, 374016, Time_signature, 4, 2, 24, 8
1, 374016, End_track
2, 0, Start_track
2, 0, Title_t, "Harpsichord"
2, 0, Program_c, 0, 6
2, 0, Control_c, 0, 7, 100
2, 0, Program_c, 0, 7
2, 0, Pitch_bend_c, 0, 8192
2, 0, Program_c, 0, 7
2, 0, Pitch_bend_c, 0, 7790
2, 0, Program_c, 0, 7
2, 0, Pitch_bend_c, 0, 7876
2, 0, Program_c, 0, 7
2, 0, Pitch_bend_c, 0, 7952
2, 0, Program_c, 0, 7
2, 0, Pitch_bend_c, 0, 7792
2, 0, Program_c, 0, 7
2, 0, Pitch_bend_c, 0, 8112
2, 0, Program_c, 0, 7
2, 0, Pitch_bend_c, 0, 7710
2, 0, Program_c, 0, 7
2, 0, Pitch_bend_c, 0, 8037
2, 0, Program_c, 0, 7
2, 0, Pitch_bend_c, 0, 7870
2, 0, Program_c, 0, 7
2, 0, Pitch_bend_c, 0, 7712
2, 0, Program_c, 0, 7
2, 0, Pitch_bend_c, 0, 8032
2, 0, Program_c, 0, 7
2, 0, Pitch_bend_c, 0, 7872
2, 96, Note_on_c, 0, 52, 92
2, 288, Note_on_c, 0, 55, 92
2, 320, Note_on_c, 0, 59, 92
2, 352, Note_on_c, 0, 64, 92
2, 384, Note_on_c, 0, 67, 92
2, 416, Note_on_c, 0, 71, 92
2, 448, Note_on_c, 0, 76, 92
2, 480, Note_on_c, 0, 79, 92
2, 767, Note_on_c, 0, 79, 0
2, 768, Note_on_c, 0, 76, 0
2, 768, Note_on_c, 0, 67, 0
2, 768, Note_on_c, 0, 55, 0
2, 768, Note_on_c, 0, 59, 0
2, 768, Note_on_c, 0, 64, 0
2, 768, Note_on_c, 0, 71, 0
2, 816, Note_on_c, 0, 79, 92
2, 846, Note_on_c, 0, 52, 0
2, 863, Note_on_c, 0, 79, 0
2, 864, Note_on_c, 0, 79, 92
2, 864, Note_on_c, 0, 52, 92
2, 864, Note_on_c, 0, 60, 92
2, 864, Note_on_c, 0, 57, 92
2, 864, Note_on_c, 0, 69, 92
2, 864, Note_on_c, 0, 72, 92
2, 1295, Note_on_c, 0, 79, 0
2, 1296, Note_on_c, 0, 78, 92
2, 1632, Note_on_c, 0, 60, 0
2, 1632, Note_on_c, 0, 69, 0
2, 1632, Note_on_c, 0, 57, 0
2, 1632, Note_on_c, 0, 52, 0
2, 1632, Note_on_c, 0, 72, 0
2, 1679, Note_on_c, 0, 78, 0
2, 1728, Note_on_c, 0, 51, 92
2, 1884, Note_on_c, 0, 54, 92
2, 1930, Note_on_c, 0, 57, 92
2, 1976, Note_on_c, 0, 60, 92
2, 2022, Note_on_c, 0, 63, 92
2, 2068, Note_on_c, 0, 66, 92
2, 2116, Note_on_c, 0, 67, 92
2, 2160, Note_on_c, 0, 69, 92
2, 2206, Note_on_c, 0, 67, 0
2, 2400, Note_on_c, 0, 57, 0
2, 2400, Note_on_c, 0, 54, 0
2, 2400, Note_on_c, 0, 63, 0
2, 2447, Note_on_c, 0, 69, 0
2, 2448, Note_on_c, 0, 69, 92
2, 2468, Note_on_c, 0, 51, 0
2, 2480, Note_on_c, 0, 60, 0
2, 2488, Note_on_c, 0, 66, 0
2, 2495, Note_on_c, 0, 69, 0
2, 2496, Note_on_c, 0, 52, 92
2, 2496, Note_on_c, 0, 60, 92
2, 2496, Note_on_c, 0, 63, 92
2, 2496, Note_on_c, 0, 66, 92
2, 2496, Note_on_c, 0, 69, 92
2, 2927, Note_on_c, 0, 69, 0
2, 2927, Note_on_c, 0, 63, 0
2, 2927, Note_on_c, 0, 66, 0
2, 2928, Note_on_c, 0, 60, 0
2, 2928, Note_on_c, 0, 59, 92
2, 2928, Note_on_c, 0, 64, 92
2, 2928, Note_on_c, 0, 67, 92
2, 3268, Note_on_c, 0, 59, 0
2, 3308, Note_on_c, 0, 64, 0
2, 3338, Note_on_c, 0, 52, 0
2, 3348, Note_on_c, 0, 67, 0
2, 3408, Note_on_c, 0, 64, 92
2, 3462, Note_on_c, 0, 67, 92
2, 3516, Note_on_c, 0, 67, 0
2, 3517, Note_on_c, 0, 71, 92
2, 3571, Note_on_c, 0, 71, 0
2, 3572, Note_on_c, 0, 72, 92
2, 3626, Note_on_c, 0, 72, 0
2, 3627, Note_on_c, 0, 74, 92
2, 3668, Note_on_c, 0, 64, 0
2, 3681, Note_on_c, 0, 74, 0
2, 3682, Note_on_c, 0, 72, 92
2, 3736, Note_on_c, 0, 72, 0
2, 3737, Note_on_c, 0, 71, 92
2, 3791, Note_on_c, 0, 71, 0
2, 3792, Note_on_c, 0, 69, 92
2, 3846, Note_on_c, 0, 72, 92
2, 3900, Note_on_c, 0, 72, 0
2, 3901, Note_on_c, 0, 76, 92
2, 3955, Note_on_c, 0, 76, 0
2, 3956, Note_on_c, 0, 78, 92
2, 4010, Note_on_c, 0, 78, 0
2, 4011, Note_on_c, 0, 79, 92
2, 4052, Note_on_c, 0, 69, 0
2, 4065, Note_on_c, 0, 79, 0
2, 4066, Note_on_c, 0, 78, 92
2, 4120, Note_on_c, 0, 78, 0
2, 4121, Note_on_c, 0, 76, 92
2, 4175, Note_on_c, 0, 76, 0
2, 4176, Note_on_c, 0, 62, 92
2, 4230, Note_on_c, 0, 66, 92
2, 4284, Note_on_c, 0, 66, 0
2, 4285, Note_on_c, 0, 69, 92
2, 4339, Note_on_c, 0, 69, 0
2, 4340, Note_on_c, 0, 71, 92
2, 4394, Note_on_c, 0, 71, 0
2, 4395, Note_on_c, 0, 72, 92
2, 4436, Note_on_c, 0, 62, 0
2, 4449, Note_on_c, 0, 72, 0
2, 4450, Note_on_c, 0, 71, 92
2, 4504, Note_on_c, 0, 71, 0
2, 4505, Note_on_c, 0, 69, 92
2, 4559, Note_on_c, 0, 69, 0
2, 4560, Note_on_c, 0, 67, 92
2, 4614, Note_on_c, 0, 71, 92
2, 4668, Note_on_c, 0, 71, 0
2, 4669, Note_on_c, 0, 75, 92
2, 4723, Note_on_c, 0, 75, 0
2, 4724, Note_on_c, 0, 76, 92
2, 4778, Note_on_c, 0, 76, 0
2, 4779, Note_on_c, 0, 78, 92
2, 4820, Note_on_c, 0, 67, 0
2, 4833, Note_on_c, 0, 78, 0
2, 4834, Note_on_c, 0, 76, 92
2, 4888, Note_on_c, 0, 76, 0
2, 4889, Note_on_c, 0, 75, 92
2, 4943, Note_on_c, 0, 75, 0
2, 4944, Note_on_c, 0, 60, 92
2, 4998, Note_on_c, 0, 64, 92
2, 5052, Note_on_c, 0, 64, 0
2, 5053, Note_on_c, 0, 67, 92
2, 5107, Note_on_c, 0, 67, 0
2, 5108, Note_on_c, 0, 69, 92
2, 5162, Note_on_c, 0, 69, 0
2, 5163, Note_on_c, 0, 71, 92
2, 5204, Note_on_c, 0, 60, 0
2, 5217, Note_on_c, 0, 71, 0
2, 5218, Note_on_c, 0, 69, 92
2, 5272, Note_on_c, 0, 69, 0
2, 5273, Note_on_c, 0, 67, 92
2, 5327, Note_on_c, 0, 67, 0
2, 5328, Note_on_c, 0, 66, 92
2, 5382, Note_on_c, 0, 70, 92
2, 5436, Note_on_c, 0, 70, 0
2, 5437, Note_on_c, 0, 73, 92
2, 5491, Note_on_c, 0, 73, 0
2, 5492, Note_on_c, 0, 75, 92
2, 5546, Note_on_c, 0, 75, 0
2, 5547, Note_on_c, 0, 76, 92
2, 5588, Note_on_c, 0, 66, 0
2, 5601, Note_on_c, 0, 76, 0
2, 5602, Note_on_c, 0, 75, 92
2, 5656, Note_on_c, 0, 75, 0
2, 5657, Note_on_c, 0, 73, 92
2, 5711, Note_on_c, 0, 73, 0
2, 5712, Note_on_c, 0, 71, 92
2, 5766, Note_on_c, 0, 75, 92
2, 5820, Note_on_c, 0, 75, 0
2, 5821, Note_on_c, 0, 78, 92
2, 5875, Note_on_c, 0, 78, 0
2, 5876, Note_on_c, 0, 79, 92
2, 5930, Note_on_c, 0, 79, 0
2, 5931, Note_on_c, 0, 81, 92
2, 5972, Note_on_c, 0, 71, 0
2, 5985, Note_on_c, 0, 81, 0
2, 5986, Note_on_c, 0, 79, 92
2, 6040, Note_on_c, 0, 79, 0
2, 6041, Note_on_c, 0, 78, 92
2, 6095, Note_on_c, 0, 78, 0
2, 6096, Note_on_c, 0, 75, 92
2, 6150, Note_on_c, 0, 78, 92
2, 6204, Note_on_c, 0, 78, 0
2, 6205, Note_on_c, 0, 81, 92
2, 6259, Note_on_c, 0, 81, 0
2, 6260, Note_on_c, 0, 83, 92
2, 6314, Note_on_c, 0, 83, 0
2, 6315, Note_on_c, 0, 84, 92
2, 6356, Note_on_c, 0, 75, 0
2, 6399, Note_on_c, 0, 84, 0
2, 6400, Note_on_c, 0, 83, 92
2, 6479, Note_on_c, 0, 83, 0
2, 6480, Note_on_c, 0, 81, 92
2, 6575, Note_on_c, 0, 81, 0
2, 6576, Note_on_c, 0, 52, 92
2, 6720, Note_on_c, 0, 55, 92
2, 6768, Note_on_c, 0, 59, 92
2, 6816, Note_on_c, 0, 64, 92
2, 6864, Note_on_c, 0, 67, 92
2, 6912, Note_on_c, 0, 71, 92
2, 6960, Note_on_c, 0, 76, 92
2, 7008, Note_on_c, 0, 79, 92
2, 7295, Note_on_c, 0, 79, 0
2, 7296, Note_on_c, 0, 52, 0
2, 7296, Note_on_c, 0, 67, 0
2, 7296, Note_on_c, 0, 55, 0
2, 7296, Note_on_c, 0, 59, 0
2, 7296, Note_on_c, 0, 64, 0
2, 7296, Note_on_c, 0, 71, 0
2, 7296, Note_on_c, 0, 76, 0
2, 7296, Note_on_c, 0, 79, 92
2, 7344, Note_on_c, 0, 79, 0
2, 7344, Note_on_c, 0, 79, 92
2, 7344, Note_on_c, 0, 69, 92
2, 7344, Note_on_c, 0, 64, 92
2, 7344, Note_on_c, 0, 61, 92
2, 7344, Note_on_c, 0, 57, 92
2, 7440, Note_on_c, 0, 78, 92
2, 7534, Note_on_c, 0, 79, 0
2, 7535, Note_on_c, 0, 78, 0
2, 7536, Note_on_c, 0, 76, 92
2, 7631, Note_on_c, 0, 76, 0
2, 7632, Note_on_c, 0, 78, 92
2, 7679, Note_on_c, 0, 78, 0
2, 7680, Note_on_c, 0, 79, 92
2, 7727, Note_on_c, 0, 79, 0
2, 7728, Note_on_c, 0, 74, 92
2, 7967, Note_on_c, 0, 74, 0
2, 7968, Note_on_c, 0, 73, 92
2, 8112, Note_on_c, 0, 61, 0
2, 8112, Note_on_c, 0, 57, 0
2, 8112, Note_on_c, 0, 69, 0
2, 8112, Note_on_c, 0, 64, 0
2, 8159, Note_on_c, 0, 73, 0
2, 8208, Note_on_c, 0, 50, 92
2, 8352, Note_on_c, 0, 54, 92
2, 8400, Note_on_c, 0, 57, 92
2, 8448, Note_on_c, 0, 62, 92
2, 8496, Note_on_c, 0, 66, 92
2, 8544, Note_on_c, 0, 69, 92
2, 8592, Note_on_c, 0, 73, 92
2, 8640, Note_on_c, 0, 78, 92
2, 8927, Note_on_c, 0, 78, 0
2, 8928, Note_on_c, 0, 50, 0
2, 8928, Note_on_c, 0, 66, 0
2, 8928, Note_on_c, 0, 54, 0
2, 8928, Note_on_c, 0, 57, 0
2, 8928, Note_on_c, 0, 62, 0
2, 8928, Note_on_c, 0, 69, 0
2, 8928, Note_on_c, 0, 73, 0
2, 8928, Note_on_c, 0, 78, 92
2, 8975, Note_on_c, 0, 78, 0
2, 8976, Note_on_c, 0, 67, 92
2, 8976, Note_on_c, 0, 78, 92
2, 8976, Note_on_c, 0, 62, 92
2, 8976, Note_on_c, 0, 59, 92
2, 8976, Note_on_c, 0, 55, 92
2, 9072, Note_on_c, 0, 76, 92
2, 9166, Note_on_c, 0, 78, 0
2, 9167, Note_on_c, 0, 76, 0
2, 9168, Note_on_c, 0, 74, 92
2, 9263, Note_on_c, 0, 74, 0
2, 9264, Note_on_c, 0, 76, 92
2, 9311, Note_on_c, 0, 76, 0
2, 9312, Note_on_c, 0, 78, 92
2, 9359, Note_on_c, 0, 78, 0
2, 9360, Note_on_c, 0, 73, 92
2, 9551, Note_on_c, 0, 73, 0
2, 9552, Note_on_c, 0, 71, 92
2, 9744, Note_on_c, 0, 59, 0
2, 9744, Note_on_c, 0, 55, 0
2, 9744, Note_on_c, 0, 67, 0
2, 9744, Note_on_c, 0, 62, 0
2, 9791, Note_on_c, 0, 71, 0
2, 9792, Note_on_c, 0, 67, 92
2, 9846, Note_on_c, 0, 71, 92
2, 9900, Note_on_c, 0, 71, 0
2, 9901, Note_on_c, 0, 73, 92
2, 9955, Note_on_c, 0, 73, 0
2, 9956, Note_on_c, 0, 74, 92
2, 10010, Note_on_c, 0, 74, 0
2, 10011, Note_on_c, 0, 76, 92
2, 10052, Note_on_c, 0, 67, 0
2, 10065, Note_on_c, 0, 76, 0
2, 10066, Note_on_c, 0, 74, 92
2, 10120, Note_on_c, 0, 74, 0
2, 10121, Note_on_c, 0, 73, 92
2, 10175, Note_on_c, 0, 73, 0
2, 10176, Note_on_c, 0, 66, 92
2, 10230, Note_on_c, 0, 70, 92
2, 10284, Note_on_c, 0, 70, 0
2, 10285, Note_on_c, 0, 71, 92
2, 10339, Note_on_c, 0, 71, 0
2, 10340, Note_on_c, 0, 73, 92
2, 10394, Note_on_c, 0, 73, 0
2, 10395, Note_on_c, 0, 74, 92
2, 10436, Note_on_c, 0, 66, 0
2, 10449, Note_on_c, 0, 74, 0
2, 10450, Note_on_c, 0, 73, 92
2, 10504, Note_on_c, 0, 73, 0
2, 10505, Note_on_c, 0, 71, 92
2, 10559, Note_on_c, 0, 71, 0
2, 10560, Note_on_c, 0, 64, 92
2, 10614, Note_on_c, 0, 67, 92
2, 10668, Note_on_c, 0, 67, 0
2, 10669, Note_on_c, 0, 70, 92
2, 10723, Note_on_c, 0, 70, 0
2, 10724, Note_on_c, 0, 71, 92
2, 10778, Note_on_c, 0, 71, 0
2, 10779, Note_on_c, 0, 73, 92
2, 10820, Note_on_c, 0, 64, 0
2, 10833, Note_on_c, 0, 73, 0
2, 10834, Note_on_c, 0, 71, 92
2, 10888, Note_on_c, 0, 71, 0
2, 10889, Note_on_c, 0, 70, 92
2, 10943, Note_on_c, 0, 70, 0
2, 10944, Note_on_c, 0, 61, 92
2, 10998, Note_on_c, 0, 70, 92
2, 11052, Note_on_c, 0, 70, 0
2, 11053, Note_on_c, 0, 76, 92
2, 11107, Note_on_c, 0, 76, 0
2, 11108, Note_on_c, 0, 78, 92
2, 11162, Note_on_c, 0, 78, 0
2, 11163, Note_on_c, 0, 79, 92
2, 11204, Note_on_c, 0, 61, 0
2, 11217, Note_on_c, 0, 79, 0
2, 11218, Note_on_c, 0, 78, 92
2, 11272, Note_on_c, 0, 78, 0
2, 11273, Note_on_c, 0, 76, 92
2, 11327, Note_on_c, 0, 76, 0
2, 11328, Note_on_c, 0, 62, 92
2, 11328, Note_on_c, 0, 78, 92
2, 11615, Note_on_c, 0, 78, 0
2, 11615, Note_on_c, 0, 62, 0
2, 11664, Note_on_c, 0, 55, 92
2, 11664, Note_on_c, 0, 71, 92
2, 11664, Note_on_c, 0, 62, 92
2, 11664, Note_on_c, 0, 67, 92
2, 11759, Note_on_c, 0, 67, 0
2, 11759, Note_on_c, 0, 55, 0
2, 11759, Note_on_c, 0, 71, 0
2, 11759, Note_on_c, 0, 62, 0
2, 11760, Note_on_c, 0, 52, 92
2, 11760, Note_on_c, 0, 67, 92
2, 11760, Note_on_c, 0, 64, 92
2, 11760, Note_on_c, 0, 73, 92
2, 12000, Note_on_c, 0, 73, 0
2, 12000, Note_on_c, 0, 52, 0
2, 12000, Note_on_c, 0, 67, 0
2, 12000, Note_on_c, 0, 64, 0
2, 12048, Note_on_c, 0, 54, 92
2, 12048, Note_on_c, 0, 61, 92
2, 12048, Note_on_c, 0, 66, 92
2, 12048, Note_on_c, 0, 70, 92
2, 12142, Note_on_c, 0, 66, 0
2, 12143, Note_on_c, 0, 54, 0
2, 12143, Note_on_c, 0, 61, 0
2, 12143, Note_on_c, 0, 70, 0
2, 12144, Note_on_c, 0, 47, 92
2, 12144, Note_on_c, 0, 59, 92
2, 12144, Note_on_c, 0, 64, 92
2, 12144, Note_on_c, 0, 70, 92
2, 12144, Note_on_c, 0, 66, 92
2, 12527, Note_on_c, 0, 70, 0
2, 12527, Note_on_c, 0, 64, 0
2, 12528, Note_on_c, 0, 71, 92
2, 12528, Note_on_c, 0, 63, 92
2, 12624, Note_on_c, 0, 69, 92
2, 12648, Note_on_c, 0, 71, 0
2, 12664, Note_on_c, 0, 47, 0
2, 12694, Note_on_c, 0, 59, 0
2, 12719, Note_on_c, 0, 66, 0
2, 12719, Note_on_c, 0, 69, 0
2, 12720, Note_on_c, 0, 67, 92
2, 12768, Note_on_c, 0, 63, 0
2, 12815, Note_on_c, 0, 67, 0
2, 12816, Note_on_c, 0, 66, 92
2, 12911, Note_on_c, 0, 66, 0
2, 12912, Note_on_c, 0, 64, 92
2, 12912, Note_on_c, 0, 67, 92
2, 13007, Note_on_c, 0, 67, 0
2, 13008, Note_on_c, 0, 70, 92
2, 13103, Note_on_c, 0, 70, 0
2, 13103, Note_on_c, 0, 64, 0
2, 13104, Note_on_c, 0, 59, 92
2, 13104, Note_on_c, 0, 71, 92
2, 13199, Note_on_c, 0, 71, 0
2, 13200, Note_on_c, 0, 73, 92
2, 13295, Note_on_c, 0, 73, 0
2, 13295, Note_on_c, 0, 59, 0
2, 13296, Note_on_c, 0, 55, 92
2, 13296, Note_on_c, 0, 71, 92
2, 13391, Note_on_c, 0, 71, 0
2, 13392, Note_on_c, 0, 70, 92
2, 13487, Note_on_c, 0, 70, 0
2, 13487, Note_on_c, 0, 55, 0
2, 13488, Note_on_c, 0, 64, 92
2, 13488, Note_on_c, 0, 71, 92
2, 13583, Note_on_c, 0, 71, 0
2, 13584, Note_on_c, 0, 67, 92
2, 13679, Note_on_c, 0, 67, 0
2, 13679, Note_on_c, 0, 64, 0
2, 13680, Note_on_c, 0, 62, 92
2, 13680, Note_on_c, 0, 66, 92
2, 13775, Note_on_c, 0, 66, 0
2, 13776, Note_on_c, 0, 70, 92
2, 13871, Note_on_c, 0, 70, 0
2, 13871, Note_on_c, 0, 62, 0
2, 13872, Note_on_c, 0, 59, 92
2, 13872, Note_on_c, 0, 71, 92
2, 13967, Note_on_c, 0, 71, 0
2, 13968, Note_on_c, 0, 73, 92
2, 14063, Note_on_c, 0, 73, 0
2, 14063, Note_on_c, 0, 59, 0
2, 14064, Note_on_c, 0, 54, 92
2, 14064, Note_on_c, 0, 71, 92
2, 14159, Note_on_c, 0, 71, 0
2, 14160, Note_on_c, 0, 70, 92
2, 14255, Note_on_c, 0, 70, 0
2, 14255, Note_on_c, 0, 54, 0
2, 14256, Note_on_c, 0, 62, 92
2, 14256, Note_on_c, 0, 71, 92
2, 14351, Note_on_c, 0, 71, 0
2, 14352, Note_on_c, 0, 66, 92
2, 14447, Note_on_c, 0, 66, 0
2, 14447, Note_on_c, 0, 62, 0
2, 14448, Note_on_c, 0, 61, 92
2, 14448, Note_on_c, 0, 64, 92
2, 14543, Note_on_c, 0, 64, 0
2, 14544, Note_on_c, 0, 71, 92
2, 14639, Note_on_c, 0, 71, 0
2, 14639, Note_on_c, 0, 61, 0
2, 14640, Note_on_c, 0, 58, 92
2, 14640, Note_on_c, 0, 73, 92
2, 14735, Note_on_c, 0, 73, 0
2, 14736, Note_on_c, 0, 74, 92
2, 14831, Note_on_c, 0, 74, 0
2, 14831, Note_on_c, 0, 58, 0
2, 14832, Note_on_c, 0, 52, 92
2, 14832, Note_on_c, 0, 73, 92
2, 14927, Note_on_c, 0, 73, 0
2, 14928, Note_on_c, 0, 71, 92
2, 15023, Note_on_c, 0, 71, 0
2, 15023, Note_on_c, 0, 52, 0
2, 15024, Note_on_c, 0, 58, 92
2, 15024, Note_on_c, 0, 73, 92
2, 15119, Note_on_c, 0, 73, 0
2, 15120, Note_on_c, 0, 64, 92
2, 15215, Note_on_c, 0, 64, 0
2, 15215, Note_on_c, 0, 58, 0
2, 15216, Note_on_c, 0, 59, 92
2, 15216, Note_on_c, 0, 62, 92
2, 15311, Note_on_c, 0, 62, 0
2, 15312, Note_on_c, 0, 66, 92
2, 15407, Note_on_c, 0, 66, 0
2, 15407, Note_on_c, 0, 59, 0
2, 15408, Note_on_c, 0, 54, 92
2, 15408, Note_on_c, 0, 68, 92
2, 15503, Note_on_c, 0, 68, 0
2, 15504, Note_on_c, 0, 70, 92
2, 15599, Note_on_c, 0, 70, 0
2, 15599, Note_on_c, 0, 54, 0
2, 15600, Note_on_c, 0, 50, 92
2, 15600, Note_on_c, 0, 71, 92
2, 15695, Note_on_c, 0, 71, 0
2, 15696, Note_on_c, 0, 66, 92
2, 15791, Note_on_c, 0, 66, 0
2, 15791, Note_on_c, 0, 50, 0
2, 15792, Note_on_c, 0, 54, 92
2, 15792, Note_on_c, 0, 74, 92
2, 15887, Note_on_c, 0, 74, 0
2, 15888, Note_on_c, 0, 71, 92
2, 15983, Note_on_c, 0, 71, 0
2, 15983, Note_on_c, 0, 54, 0
2, 15984, Note_on_c, 0, 55, 92
2, 15984, Note_on_c, 0, 76, 92
2, 16079, Note_on_c, 0, 55, 0
2, 16080, Note_on_c, 0, 58, 92
2, 16175, Note_on_c, 0, 58, 0
2, 16176, Note_on_c, 0, 59, 92
2, 16176, Note_on_c, 0, 71, 92
2, 16271, Note_on_c, 0, 59, 0
2, 16272, Note_on_c, 0, 61, 92
2, 16364, Note_on_c, 0, 76, 0
2, 16367, Note_on_c, 0, 61, 0
2, 16367, Note_on_c, 0, 71, 0
2, 16368, Note_on_c, 0, 59, 92
2, 16368, Note_on_c, 0, 67, 92
2, 16463, Note_on_c, 0, 59, 0
2, 16464, Note_on_c, 0, 58, 92
2, 16559, Note_on_c, 0, 58, 0
2, 16559, Note_on_c, 0, 67, 0
2, 16560, Note_on_c, 0, 59, 92
2, 16560, Note_on_c, 0, 76, 92
2, 16655, Note_on_c, 0, 59, 0
2, 16656, Note_on_c, 0, 55, 92
2, 16751, Note_on_c, 0, 55, 0
2, 16751, Note_on_c, 0, 76, 0
2, 16752, Note_on_c, 0, 54, 92
2, 16752, Note_on_c, 0, 74, 92
2, 16847, Note_on_c, 0, 54, 0
2, 16848, Note_on_c, 0, 58, 92
2, 16943, Note_on_c, 0, 58, 0
2, 16944, Note_on_c, 0, 59, 92
2, 16944, Note_on_c, 0, 71, 92
2, 17039, Note_on_c, 0, 59, 0
2, 17040, Note_on_c, 0, 61, 92
2, 17132, Note_on_c, 0, 74, 0
2, 17135, Note_on_c, 0, 61, 0
2, 17135, Note_on_c, 0, 71, 0
2, 17136, Note_on_c, 0, 59, 92
2, 17136, Note_on_c, 0, 66, 92
2, 17231, Note_on_c, 0, 59, 0
2, 17232, Note_on_c, 0, 58, 92
2, 17327, Note_on_c, 0, 58, 0
2, 17327, Note_on_c, 0, 66, 0
2, 17328, Note_on_c, 0, 59, 92
2, 17328, Note_on_c, 0, 74, 92
2, 17423, Note_on_c, 0, 59, 0
2, 17424, Note_on_c, 0, 54, 92
2, 17519, Note_on_c, 0, 54, 0
2, 17519, Note_on_c, 0, 74, 0
2, 17520, Note_on_c, 0, 52, 92
2, 17520, Note_on_c, 0, 73, 92
2, 17615, Note_on_c, 0, 52, 0
2, 17616, Note_on_c, 0, 59, 92
2, 17711, Note_on_c, 0, 59, 0
2, 17712, Note_on_c, 0, 61, 92
2, 17712, Note_on_c, 0, 70, 92
2, 17807, Note_on_c, 0, 61, 0
2, 17808, Note_on_c, 0, 62, 92
2, 17900, Note_on_c, 0, 73, 0
2, 17903, Note_on_c, 0, 62, 0
2, 17903, Note_on_c, 0, 70, 0
2, 17904, Note_on_c, 0, 61, 92
2, 17904, Note_on_c, 0, 64, 92
2, 17999, Note_on_c, 0, 61, 0
2, 18000, Note_on_c, 0, 59, 92
2, 18095, Note_on_c, 0, 59, 0
2, 18095, Note_on_c, 0, 64, 0
2, 18096, Note_on_c, 0, 61, 92
2, 18096, Note_on_c, 0, 70, 92
2, 18191, Note_on_c, 0, 61, 0
2, 18192, Note_on_c, 0, 52, 92
2, 18287, Note_on_c, 0, 52, 0
2, 18287, Note_on_c, 0, 70, 0
2, 18288, Note_on_c, 0, 50, 92
2, 18288, Note_on_c, 0, 71, 92
2, 18383, Note_on_c, 0, 50, 0
2, 18384, Note_on_c, 0, 49, 92
2, 18479, Note_on_c, 0, 49, 0
2, 18480, Note_on_c, 0, 50, 92
2, 18480, Note_on_c, 0, 66, 92
2, 18575, Note_on_c, 0, 50, 0
2, 18576, Note_on_c, 0, 54, 92
2, 18668, Note_on_c, 0, 71, 0
2, 18671, Note_on_c, 0, 54, 0
2, 18671, Note_on_c, 0, 66, 0
2, 18672, Note_on_c, 0, 59, 92
2, 18672, Note_on_c, 0, 62, 92
2, 18767, Note_on_c, 0, 59, 0
2, 18768, Note_on_c, 0, 54, 92
2, 18862, Note_on_c, 0, 62, 0
2, 18863, Note_on_c, 0, 54, 0
2, 18864, Note_on_c, 0, 62, 92
2, 18959, Note_on_c, 0, 62, 0
2, 18960, Note_on_c, 0, 59, 92
2, 19055, Note_on_c, 0, 59, 0
2, 19056, Note_on_c, 0, 56, 92
2, 19200, Note_on_c, 0, 59, 92
2, 19248, Note_on_c, 0, 62, 92
2, 19296, Note_on_c, 0, 64, 92
2, 19344, Note_on_c, 0, 71, 92
2, 19392, Note_on_c, 0, 76, 92
2, 19440, Note_on_c, 0, 80, 92
2, 19488, Note_on_c, 0, 83, 92
2, 19775, Note_on_c, 0, 83, 0
2, 19776, Note_on_c, 0, 56, 0
2, 19776, Note_on_c, 0, 71, 0
2, 19776, Note_on_c, 0, 59, 0
2, 19776, Note_on_c, 0, 62, 0
2, 19776, Note_on_c, 0, 64, 0
2, 19776, Note_on_c, 0, 76, 0
2, 19776, Note_on_c, 0, 80, 0
2, 19776, Note_on_c, 0, 71, 92
2, 19776, Note_on_c, 0, 74, 92
2, 19823, Note_on_c, 0, 74, 0
2, 19823, Note_on_c, 0, 71, 0
2, 19824, Note_on_c, 0, 57, 92
2, 19824, Note_on_c, 0, 64, 92
2, 19824, Note_on_c, 0, 71, 92
2, 19824, Note_on_c, 0, 74, 92
2, 20255, Note_on_c, 0, 74, 0
2, 20255, Note_on_c, 0, 71, 0
2, 20256, Note_on_c, 0, 72, 92
2, 20256, Note_on_c, 0, 69, 92
2, 20592, Note_on_c, 0, 64, 0
2, 20592, Note_on_c, 0, 57, 0
2, 20639, Note_on_c, 0, 72, 0
2, 20639, Note_on_c, 0, 69, 0
2, 20688, Note_on_c, 0, 54, 92
2, 20832, Note_on_c, 0, 57, 92
2, 20880, Note_on_c, 0, 60, 92
2, 20928, Note_on_c, 0, 62, 92
2, 20976, Note_on_c, 0, 69, 92
2, 21024, Note_on_c, 0, 74, 92
2, 21072, Note_on_c, 0, 78, 92
2, 21120, Note_on_c, 0, 81, 92
2, 21359, Note_on_c, 0, 81, 0
2, 21360, Note_on_c, 0, 54, 0
2, 21360, Note_on_c, 0, 69, 0
2, 21360, Note_on_c, 0, 57, 0
2, 21360, Note_on_c, 0, 60, 0
2, 21360, Note_on_c, 0, 62, 0
2, 21360, Note_on_c, 0, 74, 0
2, 21360, Note_on_c, 0, 78, 0
2, 21380, Note_on_c, 0, 69, 92
2, 21380, Note_on_c, 0, 72, 92
2, 21454, Note_on_c, 0, 72, 0
2, 21454, Note_on_c, 0, 69, 0
2, 21456, Note_on_c, 0, 55, 92
2, 21456, Note_on_c, 0, 62, 92
2, 21456, Note_on_c, 0, 69, 92
2, 21456, Note_on_c, 0, 72, 92
2, 21888, Note_on_c, 0, 72, 0
2, 21888, Note_on_c, 0, 69, 0
2, 21888, Note_on_c, 0, 71, 92
2, 21888, Note_on_c, 0, 67, 92
2, 22176, Note_on_c, 0, 62, 0
2, 22176, Note_on_c, 0, 55, 0
2, 22348, Note_on_c, 0, 71, 0
2, 22348, Note_on_c, 0, 67, 0
2, 22368, Note_on_c, 0, 56, 92
2, 22422, Note_on_c, 0, 59, 92
2, 22476, Note_on_c, 0, 56, 0
2, 22477, Note_on_c, 0, 59, 0
2, 22477, Note_on_c, 0, 62, 92
2, 22532, Note_on_c, 0, 62, 0
2, 22532, Note_on_c, 0, 64, 92
2, 22587, Note_on_c, 0, 64, 0
2, 22587, Note_on_c, 0, 65, 92
2, 22642, Note_on_c, 0, 65, 0
2, 22642, Note_on_c, 0, 64, 92
2, 22697, Note_on_c, 0, 64, 0
2, 22697, Note_on_c, 0, 62, 92
2, 22750, Note_on_c, 0, 62, 0
2, 22752, Note_on_c, 0, 57, 92
2, 22806, Note_on_c, 0, 60, 92
2, 22861, Note_on_c, 0, 60, 0
2, 22861, Note_on_c, 0, 63, 92
2, 22914, Note_on_c, 0, 57, 0
2, 22916, Note_on_c, 0, 63, 0
2, 22916, Note_on_c, 0, 64, 92
2, 22971, Note_on_c, 0, 64, 0
2, 22971, Note_on_c, 0, 66, 92
2, 23026, Note_on_c, 0, 66, 0
2, 23026, Note_on_c, 0, 64, 92
2, 23081, Note_on_c, 0, 64, 0
2, 23081, Note_on_c, 0, 63, 92
2, 23134, Note_on_c, 0, 63, 0
2, 23136, Note_on_c, 0, 58, 92
2, 23190, Note_on_c, 0, 61, 92
2, 23245, Note_on_c, 0, 61, 0
2, 23245, Note_on_c, 0, 64, 92
2, 23300, Note_on_c, 0, 64, 0
2, 23300, Note_on_c, 0, 66, 92
2, 23352, Note_on_c, 0, 58, 0
2, 23355, Note_on_c, 0, 66, 0
2, 23355, Note_on_c, 0, 67, 92
2, 23410, Note_on_c, 0, 67, 0
2, 23410, Note_on_c, 0, 66, 92
2, 23465, Note_on_c, 0, 66, 0
2, 23465, Note_on_c, 0, 64, 92
2, 23518, Note_on_c, 0, 64, 0
2, 23520, Note_on_c, 0, 59, 92
2, 23574, Note_on_c, 0, 62, 92
2, 23629, Note_on_c, 0, 62, 0
2, 23629, Note_on_c, 0, 65, 92
2, 23684, Note_on_c, 0, 65, 0
2, 23684, Note_on_c, 0, 66, 92
2, 23739, Note_on_c, 0, 66, 0
2, 23739, Note_on_c, 0, 68, 92
2, 23780, Note_on_c, 0, 59, 0
2, 23794, Note_on_c, 0, 68, 0
2, 23794, Note_on_c, 0, 66, 92
2, 23849, Note_on_c, 0, 66, 0
2, 23849, Note_on_c, 0, 65, 92
2, 23902, Note_on_c, 0, 65, 0
2, 23904, Note_on_c, 0, 60, 92
2, 23958, Note_on_c, 0, 63, 92
2, 24013, Note_on_c, 0, 66, 92
2, 24066, Note_on_c, 0, 63, 0
2, 24068, Note_on_c, 0, 66, 0
2, 24068, Note_on_c, 0, 67, 92
2, 24123, Note_on_c, 0, 67, 0
2, 24123, Note_on_c, 0, 69, 92
2, 24164, Note_on_c, 0, 60, 0
2, 24178, Note_on_c, 0, 69, 0
2, 24178, Note_on_c, 0, 67, 92
2, 24233, Note_on_c, 0, 67, 0
2, 24233, Note_on_c, 0, 66, 92
2, 24286, Note_on_c, 0, 66, 0
2, 24288, Note_on_c, 0, 61, 92
2, 24342, Note_on_c, 0, 64, 92
2, 24397, Note_on_c, 0, 67, 92
2, 24452, Note_on_c, 0, 67, 0
2, 24452, Note_on_c, 0, 69, 92
2, 24504, Note_on_c, 0, 64, 0
2, 24507, Note_on_c, 0, 69, 0
2, 24507, Note_on_c, 0, 70, 92
2, 24548, Note_on_c, 0, 61, 0
2, 24562, Note_on_c, 0, 70, 0
2, 24562, Note_on_c, 0, 69, 92
2, 24617, Note_on_c, 0, 69, 0
2, 24617, Note_on_c, 0, 67, 92
2, 24670, Note_on_c, 0, 67, 0
2, 24672, Note_on_c, 0, 62, 92
2, 24726, Note_on_c, 0, 65, 92
2, 24781, Note_on_c, 0, 68, 92
2, 24836, Note_on_c, 0, 69, 92
2, 24888, Note_on_c, 0, 65, 0
2, 24889, Note_on_c, 0, 68, 0
2, 24891, Note_on_c, 0, 69, 0
2, 24891, Note_on_c, 0, 71, 92
2, 24932, Note_on_c, 0, 62, 0
2, 24946, Note_on_c, 0, 71, 0
2, 24946, Note_on_c, 0, 69, 92
2, 25001, Note_on_c, 0, 69, 0
2, 25001, Note_on_c, 0, 68, 92
2, 25054, Note_on_c, 0, 68, 0
2, 25056, Note_on_c, 0, 63, 92
2, 25110, Note_on_c, 0, 66, 92
2, 25164, Note_on_c, 0, 63, 0
2, 25165, Note_on_c, 0, 69, 92
2, 25218, Note_on_c, 0, 66, 0
2, 25220, Note_on_c, 0, 71, 92
2, 25273, Note_on_c, 0, 69, 0
2, 25274, Note_on_c, 0, 71, 0
2, 25275, Note_on_c, 0, 72, 92
2, 25336, Note_on_c, 0, 71, 92
2, 25383, Note_on_c, 0, 72, 0
2, 25390, Note_on_c, 0, 71, 0
2, 25392, Note_on_c, 0, 69, 92
2, 25466, Note_on_c, 0, 69, 0
2, 25488, Note_on_c, 0, 52, 92
2, 25632, Note_on_c, 0, 55, 92
2, 25680, Note_on_c, 0, 59, 92
2, 25728, Note_on_c, 0, 64, 92
2, 25776, Note_on_c, 0, 67, 92
2, 25824, Note_on_c, 0, 71, 92
2, 25872, Note_on_c, 0, 76, 92
2, 25920, Note_on_c, 0, 79, 92
2, 26207, Note_on_c, 0, 79, 0
2, 26208, Note_on_c, 0, 52, 0
2, 26208, Note_on_c, 0, 67, 0
2, 26208, Note_on_c, 0, 55, 0
2, 26208, Note_on_c, 0, 59, 0
2, 26208, Note_on_c, 0, 64, 0
2, 26208, Note_on_c, 0, 71, 0
2, 26208, Note_on_c, 0, 76, 0
2, 26208, Note_on_c, 0, 79, 92
2, 26255, Note_on_c, 0, 79, 0
2, 26256, Note_on_c, 0, 57, 92
2, 26256, Note_on_c, 0, 60, 92
2, 26256, Note_on_c, 0, 79, 92
2, 26256, Note_on_c, 0, 64, 92
2, 26256, Note_on_c, 0, 69, 92
2, 26256, Note_on_c, 0, 72, 92
2, 26687, Note_on_c, 0, 79, 0
2, 26688, Note_on_c, 0, 77, 92
2, 27024, Note_on_c, 0, 60, 0
2, 27024, Note_on_c, 0, 69, 0
2, 27024, Note_on_c, 0, 64, 0
2, 27024, Note_on_c, 0, 57, 0
2, 27024, Note_on_c, 0, 72, 0
2, 27071, Note_on_c, 0, 77, 0
2, 27120, Note_on_c, 0, 59, 92
2, 27264, Note_on_c, 0, 62, 92
2, 27312, Note_on_c, 0, 65, 92
2, 27360, Note_on_c, 0, 68, 92
2, 27408, Note_on_c, 0, 71, 92
2, 27456, Note_on_c, 0, 74, 92
2, 27504, Note_on_c, 0, 77, 92
2, 27552, Note_on_c, 0, 80, 92
2, 27839, Note_on_c, 0, 80, 0
2, 27840, Note_on_c, 0, 59, 0
2, 27840, Note_on_c, 0, 71, 0
2, 27840, Note_on_c, 0, 62, 0
2, 27840, Note_on_c, 0, 65, 0
2, 27840, Note_on_c, 0, 68, 0
2, 27840, Note_on_c, 0, 74, 0
2, 27840, Note_on_c, 0, 77, 0
2, 27840, Note_on_c, 0, 80, 92
2, 27887, Note_on_c, 0, 80, 0
2, 27888, Note_on_c, 0, 60, 92
2, 27888, Note_on_c, 0, 64, 92
2, 27888, Note_on_c, 0, 69, 92
2, 27888, Note_on_c, 0, 76, 92
2, 27888, Note_on_c, 0, 80, 92
2, 27888, Note_on_c, 0, 72, 92
2, 28319, Note_on_c, 0, 80, 0
2, 28320, Note_on_c, 0, 81, 92
2, 28704, Note_on_c, 0, 76, 0
2, 28704, Note_on_c, 0, 69, 0
2, 28704, Note_on_c, 0, 64, 0
2, 28752, Note_on_c, 0, 60, 0
2, 28752, Note_on_c, 0, 72, 0
2, 28799, Note_on_c, 0, 81, 0
2, 28800, Note_on_c, 0, 72, 92
2, 28854, Note_on_c, 0, 76, 92
2, 28908, Note_on_c, 0, 76, 0
2, 28909, Note_on_c, 0, 78, 92
2, 28963, Note_on_c, 0, 78, 0
2, 28964, Note_on_c, 0, 79, 92
2, 29018, Note_on_c, 0, 79, 0
2, 29019, Note_on_c, 0, 81, 92
2, 29060, Note_on_c, 0, 72, 0
2, 29073, Note_on_c, 0, 81, 0
2, 29074, Note_on_c, 0, 79, 92
2, 29128, Note_on_c, 0, 79, 0
2, 29129, Note_on_c, 0, 78, 92
2, 29183, Note_on_c, 0, 78, 0
2, 29184, Note_on_c, 0, 71, 92
2, 29238, Note_on_c, 0, 75, 92
2, 29293, Note_on_c, 0, 76, 92
2, 29346, Note_on_c, 0, 75, 0
2, 29347, Note_on_c, 0, 76, 0
2, 29348, Note_on_c, 0, 78, 92
2, 29402, Note_on_c, 0, 78, 0
2, 29403, Note_on_c, 0, 79, 92
2, 29444, Note_on_c, 0, 71, 0
2, 29457, Note_on_c, 0, 79, 0
2, 29458, Note_on_c, 0, 78, 92
2, 29512, Note_on_c, 0, 78, 0
2, 29513, Note_on_c, 0, 76, 92
2, 29567, Note_on_c, 0, 76, 0
2, 29568, Note_on_c, 0, 69, 92
2, 29622, Note_on_c, 0, 72, 92
2, 29676, Note_on_c, 0, 72, 0
2, 29677, Note_on_c, 0, 75, 92
2, 29732, Note_on_c, 0, 76, 92
2, 29786, Note_on_c, 0, 76, 0
2, 29787, Note_on_c, 0, 78, 92
2, 29828, Note_on_c, 0, 69, 0
2, 29839, Note_on_c, 0, 75, 0
2, 29841, Note_on_c, 0, 78, 0
2, 29842, Note_on_c, 0, 76, 92
2, 29896, Note_on_c, 0, 76, 0
2, 29897, Note_on_c, 0, 75, 92
2, 29951, Note_on_c, 0, 75, 0
2, 29952, Note_on_c, 0, 66, 92
2, 30006, Note_on_c, 0, 75, 92
2, 30061, Note_on_c, 0, 81, 92
2, 30115, Note_on_c, 0, 81, 0
2, 30116, Note_on_c, 0, 83, 92
2, 30170, Note_on_c, 0, 83, 0
2, 30171, Note_on_c, 0, 84, 92
2, 30221, Note_on_c, 0, 66, 0
2, 30222, Note_on_c, 0, 75, 0
2, 30225, Note_on_c, 0, 84, 0
2, 30226, Note_on_c, 0, 83, 92
2, 30280, Note_on_c, 0, 83, 0
2, 30281, Note_on_c, 0, 81, 92
2, 30335, Note_on_c, 0, 81, 0
2, 30336, Note_on_c, 0, 83, 92
2, 30336, Note_on_c, 0, 67, 92
2, 30623, Note_on_c, 0, 67, 0
2, 30623, Note_on_c, 0, 83, 0
2, 30672, Note_on_c, 0, 60, 92
2, 30672, Note_on_c, 0, 76, 92
2, 30672, Note_on_c, 0, 72, 92
2, 30672, Note_on_c, 0, 67, 92
2, 30767, Note_on_c, 0, 67, 0
2, 30767, Note_on_c, 0, 60, 0
2, 30767, Note_on_c, 0, 76, 0
2, 30767, Note_on_c, 0, 72, 0
2, 30768, Note_on_c, 0, 57, 92
2, 30768, Note_on_c, 0, 78, 92
2, 30768, Note_on_c, 0, 72, 92
2, 30768, Note_on_c, 0, 69, 92
2, 31045, Note_on_c, 0, 69, 0
2, 31045, Note_on_c, 0, 57, 0
2, 31045, Note_on_c, 0, 78, 0
2, 31045, Note_on_c, 0, 72, 0
2, 31062, Note_on_c, 0, 59, 92
2, 31062, Note_on_c, 0, 75, 92
2, 31062, Note_on_c, 0, 66, 92
2, 31062, Note_on_c, 0, 71, 92
2, 31150, Note_on_c, 0, 71, 0
2, 31150, Note_on_c, 0, 75, 0
2, 31151, Note_on_c, 0, 66, 0
2, 31152, Note_on_c, 0, 64, 92
2, 31152, Note_on_c, 0, 52, 92
2, 31152, Note_on_c, 0, 71, 92
2, 31152, Note_on_c, 0, 75, 92
2, 31152, Note_on_c, 0, 69, 92
2, 31157, Note_on_c, 0, 59, 0
2, 31535, Note_on_c, 0, 75, 0
2, 31535, Note_on_c, 0, 71, 0
2, 31535, Note_on_c, 0, 69, 0
2, 31536, Note_on_c, 0, 76, 92
2, 31536, Note_on_c, 0, 68, 92
2, 31631, Note_on_c, 0, 76, 0
2, 31632, Note_on_c, 0, 74, 92
2, 31727, Note_on_c, 0, 74, 0
2, 31727, Note_on_c, 0, 52, 0
2, 31727, Note_on_c, 0, 64, 0
2, 31728, Note_on_c, 0, 72, 92
2, 31816, Note_on_c, 0, 68, 0
2, 31823, Note_on_c, 0, 72, 0
2, 31824, Note_on_c, 0, 71, 92
2, 31919, Note_on_c, 0, 71, 0
2, 31920, Note_on_c, 0, 69, 92
2, 31920, Note_on_c, 0, 72, 92
2, 32015, Note_on_c, 0, 72, 0
2, 32016, Note_on_c, 0, 75, 92
2, 32111, Note_on_c, 0, 75, 0
2, 32111, Note_on_c, 0, 69, 0
2, 32112, Note_on_c, 0, 64, 92
2, 32112, Note_on_c, 0, 76, 92
2, 32207, Note_on_c, 0, 76, 0
2, 32208, Note_on_c, 0, 78, 92
2, 32303, Note_on_c, 0, 78, 0
2, 32303, Note_on_c, 0, 64, 0
2, 32304, Note_on_c, 0, 60, 92
2, 32304, Note_on_c, 0, 76, 92
2, 32399, Note_on_c, 0, 76, 0
2, 32400, Note_on_c, 0, 75, 92
2, 32495, Note_on_c, 0, 75, 0
2, 32495, Note_on_c, 0, 60, 0
2, 32496, Note_on_c, 0, 69, 92
2, 32496, Note_on_c, 0, 76, 92
2, 32591, Note_on_c, 0, 76, 0
2, 32592, Note_on_c, 0, 72, 92
2, 32687, Note_on_c, 0, 72, 0
2, 32687, Note_on_c, 0, 69, 0
2, 32688, Note_on_c, 0, 67, 92
2, 32688, Note_on_c, 0, 71, 92
2, 32783, Note_on_c, 0, 71, 0
2, 32784, Note_on_c, 0, 75, 92
2, 32879, Note_on_c, 0, 75, 0
2, 32879, Note_on_c, 0, 67, 0
2, 32880, Note_on_c, 0, 64, 92
2, 32880, Note_on_c, 0, 76, 92
2, 32975, Note_on_c, 0, 76, 0
2, 32976, Note_on_c, 0, 78, 92
2, 33071, Note_on_c, 0, 78, 0
2, 33071, Note_on_c, 0, 64, 0
2, 33072, Note_on_c, 0, 59, 92
2, 33072, Note_on_c, 0, 76, 92
2, 33167, Note_on_c, 0, 76, 0
2, 33168, Note_on_c, 0, 75, 92
2, 33263, Note_on_c, 0, 75, 0
2, 33263, Note_on_c, 0, 59, 0
2, 33264, Note_on_c, 0, 67, 92
2, 33264, Note_on_c, 0, 76, 92
2, 33359, Note_on_c, 0, 76, 0
2, 33360, Note_on_c, 0, 71, 92
2, 33455, Note_on_c, 0, 71, 0
2, 33455, Note_on_c, 0, 67, 0
2, 33456, Note_on_c, 0, 66, 92
2, 33456, Note_on_c, 0, 69, 92
2, 33551, Note_on_c, 0, 69, 0
2, 33552, Note_on_c, 0, 76, 92
2, 33647, Note_on_c, 0, 76, 0
2, 33647, Note_on_c, 0, 66, 0
2, 33648, Note_on_c, 0, 63, 92
2, 33648, Note_on_c, 0, 78, 92
2, 33743, Note_on_c, 0, 78, 0
2, 33744, Note_on_c, 0, 79, 92
2, 33839, Note_on_c, 0, 79, 0
2, 33839, Note_on_c, 0, 63, 0
2, 33840, Note_on_c, 0, 57, 92
2, 33840, Note_on_c, 0, 78, 92
2, 33935, Note_on_c, 0, 78, 0
2, 33936, Note_on_c, 0, 76, 92
2, 34031, Note_on_c, 0, 76, 0
2, 34031, Note_on_c, 0, 57, 0
2, 34032, Note_on_c, 0, 63, 92
2, 34032, Note_on_c, 0, 78, 92
2, 34127, Note_on_c, 0, 78, 0
2, 34128, Note_on_c, 0, 69, 92
2, 34223, Note_on_c, 0, 69, 0
2, 34223, Note_on_c, 0, 63, 0
2, 34224, Note_on_c, 0, 64, 92
2, 34224, Note_on_c, 0, 67, 92
2, 34319, Note_on_c, 0, 67, 0
2, 34320, Note_on_c, 0, 66, 92
2, 34415, Note_on_c, 0, 66, 0
2, 34415, Note_on_c, 0, 64, 0
2, 34416, Note_on_c, 0, 59, 92
2, 34416, Note_on_c, 0, 67, 92
2, 34511, Note_on_c, 0, 67, 0
2, 34512, Note_on_c, 0, 71, 92
2, 34607, Note_on_c, 0, 71, 0
2, 34607, Note_on_c, 0, 59, 0
2, 34608, Note_on_c, 0, 55, 92
2, 34608, Note_on_c, 0, 76, 92
2, 34703, Note_on_c, 0, 76, 0
2, 34704, Note_on_c, 0, 71, 92
2, 34799, Note_on_c, 0, 71, 0
2, 34799, Note_on_c, 0, 55, 0
2, 34800, Note_on_c, 0, 59, 92
2, 34800, Note_on_c, 0, 79, 92
2, 34895, Note_on_c, 0, 79, 0
2, 34896, Note_on_c, 0, 76, 92
2, 34991, Note_on_c, 0, 76, 0
2, 34991, Note_on_c, 0, 59, 0
2, 34992, Note_on_c, 0, 60, 92
2, 34992, Note_on_c, 0, 69, 92
2, 35087, Note_on_c, 0, 60, 0
2, 35088, Note_on_c, 0, 51, 92
2, 35183, Note_on_c, 0, 51, 0
2, 35184, Note_on_c, 0, 52, 92
2, 35184, Note_on_c, 0, 76, 92
2, 35279, Note_on_c, 0, 52, 0
2, 35280, Note_on_c, 0, 54, 92
2, 35372, Note_on_c, 0, 69, 0
2, 35375, Note_on_c, 0, 54, 0
2, 35376, Note_on_c, 0, 52, 92
2, 35376, Note_on_c, 0, 84, 92
2, 35471, Note_on_c, 0, 52, 0
2, 35472, Note_on_c, 0, 51, 92
2, 35564, Note_on_c, 0, 76, 0
2, 35567, Note_on_c, 0, 51, 0
2, 35567, Note_on_c, 0, 84, 0
2, 35568, Note_on_c, 0, 52, 92
2, 35568, Note_on_c, 0, 69, 92
2, 35663, Note_on_c, 0, 52, 0
2, 35664, Note_on_c, 0, 60, 92
2, 35759, Note_on_c, 0, 60, 0
2, 35759, Note_on_c, 0, 69, 0
2, 35760, Note_on_c, 0, 59, 92
2, 35760, Note_on_c, 0, 67, 92
2, 35855, Note_on_c, 0, 59, 0
2, 35856, Note_on_c, 0, 51, 92
2, 35951, Note_on_c, 0, 51, 0
2, 35952, Note_on_c, 0, 52, 92
2, 35952, Note_on_c, 0, 76, 92
2, 36047, Note_on_c, 0, 52, 0
2, 36048, Note_on_c, 0, 54, 92
2, 36140, Note_on_c, 0, 67, 0
2, 36143, Note_on_c, 0, 54, 0
2, 36144, Note_on_c, 0, 52, 92
2, 36144, Note_on_c, 0, 83, 92
2, 36239, Note_on_c, 0, 52, 0
2, 36240, Note_on_c, 0, 51, 92
2, 36332, Note_on_c, 0, 76, 0
2, 36335, Note_on_c, 0, 51, 0
2, 36335, Note_on_c, 0, 83, 0
2, 36336, Note_on_c, 0, 52, 92
2, 36336, Note_on_c, 0, 67, 92
2, 36431, Note_on_c, 0, 52, 0
2, 36432, Note_on_c, 0, 59, 92
2, 36527, Note_on_c, 0, 59, 0
2, 36527, Note_on_c, 0, 67, 0
2, 36528, Note_on_c, 0, 57, 92
2, 36528, Note_on_c, 0, 66, 92
2, 36623, Note_on_c, 0, 57, 0
2, 36624, Note_on_c, 0, 52, 92
2, 36719, Note_on_c, 0, 52, 0
2, 36720, Note_on_c, 0, 54, 92
2, 36720, Note_on_c, 0, 75, 92
2, 36815, Note_on_c, 0, 54, 0
2, 36816, Note_on_c, 0, 55, 92
2, 36908, Note_on_c, 0, 66, 0
2, 36911, Note_on_c, 0, 55, 0
2, 36912, Note_on_c, 0, 54, 92
2, 36912, Note_on_c, 0, 81, 92
2, 37007, Note_on_c, 0, 54, 0
2, 37008, Note_on_c, 0, 52, 92
2, 37100, Note_on_c, 0, 75, 0
2, 37103, Note_on_c, 0, 52, 0
2, 37103, Note_on_c, 0, 81, 0
2, 37104, Note_on_c, 0, 54, 92
2, 37104, Note_on_c, 0, 75, 92
2, 37199, Note_on_c, 0, 54, 0
2, 37200, Note_on_c, 0, 57, 92
2, 37295, Note_on_c, 0, 57, 0
2, 37295, Note_on_c, 0, 75, 0
2, 37296, Note_on_c, 0, 55, 92
2, 37296, Note_on_c, 0, 64, 92
2, 37391, Note_on_c, 0, 55, 0
2, 37392, Note_on_c, 0, 54, 92
2, 37487, Note_on_c, 0, 54, 0
2, 37488, Note_on_c, 0, 55, 92
2, 37488, Note_on_c, 0, 71, 92
2, 37583, Note_on_c, 0, 55, 0
2, 37584, Note_on_c, 0, 59, 92
2, 37616, Note_on_c, 0, 64, 0
2, 37679, Note_on_c, 0, 59, 0
2, 37680, Note_on_c, 0, 64, 92
2, 37680, Note_on_c, 0, 79, 92
2, 37728, Note_on_c, 0, 71, 0
2, 37775, Note_on_c, 0, 64, 0
2, 37776, Note_on_c, 0, 67, 92
2, 37871, Note_on_c, 0, 67, 0
2, 37872, Note_on_c, 0, 61, 92
2, 37967, Note_on_c, 0, 61, 0
2, 37968, Note_on_c, 0, 64, 92
2, 38063, Note_on_c, 0, 64, 0
2, 38063, Note_on_c, 0, 79, 0
2, 38064, Note_on_c, 0, 58, 92
2, 38208, Note_on_c, 0, 61, 92
2, 38256, Note_on_c, 0, 64, 92
2, 38304, Note_on_c, 0, 67, 92
2, 38352, Note_on_c, 0, 70, 92
2, 38400, Note_on_c, 0, 73, 92
2, 38448, Note_on_c, 0, 76, 92
2, 38496, Note_on_c, 0, 79, 92
2, 38784, Note_on_c, 0, 76, 0
2, 38784, Note_on_c, 0, 61, 0
2, 38784, Note_on_c, 0, 67, 0
2, 38784, Note_on_c, 0, 73, 0
2, 38831, Note_on_c, 0, 79, 0
2, 38832, Note_on_c, 0, 78, 92
2, 38852, Note_on_c, 0, 70, 0
2, 38856, Note_on_c, 0, 64, 0
2, 38875, Note_on_c, 0, 58, 0
2, 38879, Note_on_c, 0, 78, 0
2, 38880, Note_on_c, 0, 57, 92
2, 38880, Note_on_c, 0, 59, 92
2, 38880, Note_on_c, 0, 76, 92
2, 38880, Note_on_c, 0, 71, 92
2, 38880, Note_on_c, 0, 66, 92
2, 38976, Note_on_c, 0, 75, 92
2, 39070, Note_on_c, 0, 71, 0
2, 39070, Note_on_c, 0, 76, 0
2, 39071, Note_on_c, 0, 75, 0
2, 39072, Note_on_c, 0, 73, 92
2, 39167, Note_on_c, 0, 73, 0
2, 39168, Note_on_c, 0, 71, 92
2, 39216, Note_on_c, 0, 66, 0
2, 39263, Note_on_c, 0, 71, 0
2, 39263, Note_on_c, 0, 57, 0
2, 39264, Note_on_c, 0, 55, 92
2, 39264, Note_on_c, 0, 76, 92
2, 39264, Note_on_c, 0, 64, 92
2, 39637, Note_on_c, 0, 64, 0
2, 39637, Note_on_c, 0, 59, 0
2, 39637, Note_on_c, 0, 55, 0
2, 39637, Note_on_c, 0, 76, 0
2, 39648, Note_on_c, 0, 57, 92
2, 39648, Note_on_c, 0, 60, 92
2, 39648, Note_on_c, 0, 64, 92
2, 39695, Note_on_c, 0, 64, 0
2, 39695, Note_on_c, 0, 60, 0
2, 39695, Note_on_c, 0, 57, 0
2, 39696, Note_on_c, 0, 59, 92
2, 39696, Note_on_c, 0, 64, 92
2, 39696, Note_on_c, 0, 67, 92
2, 39926, Note_on_c, 0, 67, 0
2, 39926, Note_on_c, 0, 59, 0
2, 39936, Note_on_c, 0, 60, 92
2, 39936, Note_on_c, 0, 57, 92
2, 39936, Note_on_c, 0, 69, 92
2, 39983, Note_on_c, 0, 69, 0
2, 39984, Note_on_c, 0, 67, 92
2, 40031, Note_on_c, 0, 67, 0
2, 40032, Note_on_c, 0, 66, 92
2, 40076, Note_on_c, 0, 64, 0
2, 40079, Note_on_c, 0, 66, 0
2, 40080, Note_on_c, 0, 67, 92
2, 40127, Note_on_c, 0, 67, 0
2, 40127, Note_on_c, 0, 57, 0
2, 40127, Note_on_c, 0, 60, 0
2, 40128, Note_on_c, 0, 59, 92
2, 40128, Note_on_c, 0, 69, 92
2, 40463, Note_on_c, 0, 69, 0
2, 40463, Note_on_c, 0, 59, 0
2, 40464, Note_on_c, 0, 57, 92
2, 40464, Note_on_c, 0, 47, 92
2, 40464, Note_on_c, 0, 63, 92
2, 40464, Note_on_c, 0, 66, 92
2, 40534, Note_on_c, 0, 66, 0
2, 40534, Note_on_c, 0, 57, 0
2, 40534, Note_on_c, 0, 47, 0
2, 40534, Note_on_c, 0, 63, 0
2, 40536, Note_on_c, 0, 52, 92
2, 40536, Note_on_c, 0, 57, 92
2, 40536, Note_on_c, 0, 59, 92
2, 40536, Note_on_c, 0, 66, 92
2, 40536, Note_on_c, 0, 63, 92
2, 40919, Note_on_c, 0, 59, 0
2, 40976, Note_on_c, 0, 66, 0
2, 40976, Note_on_c, 0, 63, 0
2, 40976, Note_on_c, 0, 57, 0
2, 40992, Note_on_c, 0, 55, 92
2, 40992, Note_on_c, 0, 64, 92
2, 41303, Note_on_c, 0, 52, 0
2, 41372, Note_on_c, 0, 55, 0
2, 41376, Note_on_c, 0, 52, 92
2, 41472, Note_on_c, 0, 64, 0
2, 41566, Note_on_c, 0, 52, 0
2, 41568, Note_on_c, 0, 54, 92
2, 41614, Note_on_c, 0, 54, 0
2, 41616, Note_on_c, 0, 52, 92
2, 41662, Note_on_c, 0, 52, 0
2, 41664, Note_on_c, 0, 54, 92
2, 41710, Note_on_c, 0, 54, 0
2, 41712, Note_on_c, 0, 52, 92
2, 41758, Note_on_c, 0, 52, 0
2, 41760, Note_on_c, 0, 51, 92
2, 42040, Note_on_c, 0, 51, 0
2, 42144, Note_on_c, 0, 54, 92
2, 42334, Note_on_c, 0, 54, 0
2, 42336, Note_on_c, 0, 55, 92
2, 42382, Note_on_c, 0, 55, 0
2, 42384, Note_on_c, 0, 54, 92
2, 42430, Note_on_c, 0, 54, 0
2, 42432, Note_on_c, 0, 55, 92
2, 42478, Note_on_c, 0, 55, 0
2, 42480, Note_on_c, 0, 54, 92
2, 42526, Note_on_c, 0, 54, 0
2, 42528, Note_on_c, 0, 52, 92
2, 42808, Note_on_c, 0, 52, 0
2, 42912, Note_on_c, 0, 55, 92
2, 43102, Note_on_c, 0, 55, 0
2, 43104, Note_on_c, 0, 57, 92
2, 43150, Note_on_c, 0, 57, 0
2, 43152, Note_on_c, 0, 55, 92
2, 43198, Note_on_c, 0, 55, 0
2, 43200, Note_on_c, 0, 57, 92
2, 43246, Note_on_c, 0, 57, 0
2, 43248, Note_on_c, 0, 55, 92
2, 43294, Note_on_c, 0, 55, 0
2, 43296, Note_on_c, 0, 54, 92
2, 43390, Note_on_c, 0, 54, 0
2, 43392, Note_on_c, 0, 55, 92
2, 43486, Note_on_c, 0, 55, 0
2, 43488, Note_on_c, 0, 57, 92
2, 43678, Note_on_c, 0, 57, 0
2, 43680, Note_on_c, 0, 48, 92
2, 43870, Note_on_c, 0, 48, 0
2, 43872, Note_on_c, 0, 47, 92
2, 44062, Note_on_c, 0, 47, 0
2, 44064, Note_on_c, 0, 51, 92
2, 44254, Note_on_c, 0, 51, 0
2, 44256, Note_on_c, 0, 52, 92
2, 44448, Note_on_c, 0, 55, 92
2, 44452, Note_on_c, 0, 52, 0
2, 44632, Note_on_c, 0, 55, 0
2, 44640, Note_on_c, 0, 45, 92
2, 44832, Note_on_c, 0, 54, 92
2, 44836, Note_on_c, 0, 45, 0
2, 45017, Note_on_c, 0, 54, 0
2, 45024, Note_on_c, 0, 47, 92
2, 45216, Note_on_c, 0, 51, 92
2, 45220, Note_on_c, 0, 47, 0
2, 45400, Note_on_c, 0, 51, 0
2, 45408, Note_on_c, 0, 52, 92
2, 45502, Note_on_c, 0, 52, 0
2, 45504, Note_on_c, 0, 55, 92
2, 45598, Note_on_c, 0, 55, 0
2, 45600, Note_on_c, 0, 54, 92
2, 45694, Note_on_c, 0, 54, 0
2, 45696, Note_on_c, 0, 52, 92
2, 45790, Note_on_c, 0, 52, 0
2, 45792, Note_on_c, 0, 50, 92
2, 45886, Note_on_c, 0, 50, 0
2, 45888, Note_on_c, 0, 54, 92
2, 45982, Note_on_c, 0, 54, 0
2, 45984, Note_on_c, 0, 52, 92
2, 45984, Note_on_c, 0, 59, 92
2, 46078, Note_on_c, 0, 52, 0
2, 46080, Note_on_c, 0, 50, 92
2, 46174, Note_on_c, 0, 50, 0
2, 46174, Note_on_c, 0, 59, 0
2, 46176, Note_on_c, 0, 49, 92
2, 46176, Note_on_c, 0, 61, 92
2, 46222, Note_on_c, 0, 61, 0
2, 46224, Note_on_c, 0, 59, 92
2, 46270, Note_on_c, 0, 59, 0
2, 46270, Note_on_c, 0, 49, 0
2, 46272, Note_on_c, 0, 52, 92
2, 46272, Note_on_c, 0, 61, 92
2, 46318, Note_on_c, 0, 61, 0
2, 46320, Note_on_c, 0, 59, 92
2, 46366, Note_on_c, 0, 59, 0
2, 46366, Note_on_c, 0, 52, 0
2, 46368, Note_on_c, 0, 54, 92
2, 46368, Note_on_c, 0, 58, 92
2, 46462, Note_on_c, 0, 54, 0
2, 46464, Note_on_c, 0, 55, 92
2, 46558, Note_on_c, 0, 55, 0
2, 46560, Note_on_c, 0, 46, 92
2, 46648, Note_on_c, 0, 58, 0
2, 46654, Note_on_c, 0, 46, 0
2, 46656, Note_on_c, 0, 55, 92
2, 46750, Note_on_c, 0, 55, 0
2, 46752, Note_on_c, 0, 54, 92
2, 46752, Note_on_c, 0, 61, 92
2, 46846, Note_on_c, 0, 54, 0
2, 46848, Note_on_c, 0, 52, 92
2, 46942, Note_on_c, 0, 52, 0
2, 46942, Note_on_c, 0, 61, 0
2, 46944, Note_on_c, 0, 50, 92
2, 46944, Note_on_c, 0, 62, 92
2, 46990, Note_on_c, 0, 62, 0
2, 46992, Note_on_c, 0, 61, 92
2, 47038, Note_on_c, 0, 61, 0
2, 47038, Note_on_c, 0, 50, 0
2, 47040, Note_on_c, 0, 54, 92
2, 47040, Note_on_c, 0, 62, 92
2, 47086, Note_on_c, 0, 62, 0
2, 47088, Note_on_c, 0, 61, 92
2, 47134, Note_on_c, 0, 61, 0
2, 47134, Note_on_c, 0, 54, 0
2, 47136, Note_on_c, 0, 56, 92
2, 47136, Note_on_c, 0, 59, 92
2, 47230, Note_on_c, 0, 56, 0
2, 47232, Note_on_c, 0, 58, 92
2, 47326, Note_on_c, 0, 58, 0
2, 47328, Note_on_c, 0, 47, 92
2, 47416, Note_on_c, 0, 59, 0
2, 47422, Note_on_c, 0, 47, 0
2, 47424, Note_on_c, 0, 57, 92
2, 47518, Note_on_c, 0, 57, 0
2, 47520, Note_on_c, 0, 55, 92
2, 47520, Note_on_c, 0, 62, 92
2, 47614, Note_on_c, 0, 55, 0
2, 47616, Note_on_c, 0, 54, 92
2, 47710, Note_on_c, 0, 54, 0
2, 47710, Note_on_c, 0, 62, 0
2, 47712, Note_on_c, 0, 52, 92
2, 47712, Note_on_c, 0, 64, 92
2, 47758, Note_on_c, 0, 64, 0
2, 47760, Note_on_c, 0, 62, 92
2, 47806, Note_on_c, 0, 62, 0
2, 47806, Note_on_c, 0, 52, 0
2, 47808, Note_on_c, 0, 56, 92
2, 47808, Note_on_c, 0, 64, 92
2, 47854, Note_on_c, 0, 64, 0
2, 47856, Note_on_c, 0, 62, 92
2, 47902, Note_on_c, 0, 62, 0
2, 47902, Note_on_c, 0, 56, 0
2, 47904, Note_on_c, 0, 58, 92
2, 47904, Note_on_c, 0, 61, 92
2, 47998, Note_on_c, 0, 61, 0
2, 47998, Note_on_c, 0, 58, 0
2, 48000, Note_on_c, 0, 59, 92
2, 48000, Note_on_c, 0, 62, 92
2, 48094, Note_on_c, 0, 62, 0
2, 48094, Note_on_c, 0, 59, 0
2, 48096, Note_on_c, 0, 49, 92
2, 48096, Note_on_c, 0, 64, 92
2, 48190, Note_on_c, 0, 49, 0
2, 48192, Note_on_c, 0, 50, 92
2, 48286, Note_on_c, 0, 50, 0
2, 48286, Note_on_c, 0, 64, 0
2, 48288, Note_on_c, 0, 52, 92
2, 48288, Note_on_c, 0, 55, 92
2, 48478, Note_on_c, 0, 55, 0
2, 48480, Note_on_c, 0, 54, 92
2, 48538, Note_on_c, 0, 52, 0
2, 48576, Note_on_c, 0, 52, 92
2, 48670, Note_on_c, 0, 52, 0
2, 48670, Note_on_c, 0, 54, 0
2, 48672, Note_on_c, 0, 50, 92
2, 48672, Note_on_c, 0, 58, 92
2, 48766, Note_on_c, 0, 50, 0
2, 48768, Note_on_c, 0, 49, 92
2, 48862, Note_on_c, 0, 49, 0
2, 48862, Note_on_c, 0, 58, 0
2, 48864, Note_on_c, 0, 50, 92
2, 48864, Note_on_c, 0, 59, 92
2, 48958, Note_on_c, 0, 50, 0
2, 48960, Note_on_c, 0, 49, 92
2, 49054, Note_on_c, 0, 49, 0
2, 49054, Note_on_c, 0, 59, 0
2, 49056, Note_on_c, 0, 47, 92
2, 49056, Note_on_c, 0, 62, 92
2, 49246, Note_on_c, 0, 62, 0
2, 49248, Note_on_c, 0, 52, 92
2, 49296, Note_on_c, 0, 47, 0
2, 49344, Note_on_c, 0, 47, 92
2, 49438, Note_on_c, 0, 47, 0
2, 49438, Note_on_c, 0, 52, 0
2, 49440, Note_on_c, 0, 46, 92
2, 49440, Note_on_c, 0, 61, 92
2, 49534, Note_on_c, 0, 46, 0
2, 49536, Note_on_c, 0, 44, 92
2, 49630, Note_on_c, 0, 44, 0
2, 49630, Note_on_c, 0, 61, 0
2, 49632, Note_on_c, 0, 46, 92
2, 49632, Note_on_c, 0, 54, 92
2, 49726, Note_on_c, 0, 46, 0
2, 49728, Note_on_c, 0, 47, 92
2, 49822, Note_on_c, 0, 47, 0
2, 49822, Note_on_c, 0, 54, 0
2, 49824, Note_on_c, 0, 49, 92
2, 49824, Note_on_c, 0, 58, 92
2, 49918, Note_on_c, 0, 49, 0
2, 49920, Note_on_c, 0, 42, 92
2, 49995, Note_on_c, 0, 58, 0
2, 50014, Note_on_c, 0, 42, 0
2, 50016, Note_on_c, 0, 50, 92
2, 50016, Note_on_c, 0, 59, 92
2, 50110, Note_on_c, 0, 59, 0
2, 50110, Note_on_c, 0, 50, 0
2, 50112, Note_on_c, 0, 49, 92
2, 50112, Note_on_c, 0, 61, 92
2, 50206, Note_on_c, 0, 61, 0
2, 50206, Note_on_c, 0, 49, 0
2, 50208, Note_on_c, 0, 47, 92
2, 50208, Note_on_c, 0, 62, 92
2, 50302, Note_on_c, 0, 47, 0
2, 50304, Note_on_c, 0, 46, 92
2, 50398, Note_on_c, 0, 46, 0
2, 50400, Note_on_c, 0, 47, 92
2, 50494, Note_on_c, 0, 47, 0
2, 50496, Note_on_c, 0, 49, 92
2, 50568, Note_on_c, 0, 62, 0
2, 50590, Note_on_c, 0, 49, 0
2, 50592, Note_on_c, 0, 50, 92
2, 50592, Note_on_c, 0, 59, 92
2, 50686, Note_on_c, 0, 50, 0
2, 50688, Note_on_c, 0, 42, 92
2, 50782, Note_on_c, 0, 42, 0
2, 50782, Note_on_c, 0, 59, 0
2, 50784, Note_on_c, 0, 52, 92
2, 50784, Note_on_c, 0, 61, 92
2, 50878, Note_on_c, 0, 61, 0
2, 50878, Note_on_c, 0, 52, 0
2, 50880, Note_on_c, 0, 50, 92
2, 50880, Note_on_c, 0, 62, 92
2, 50974, Note_on_c, 0, 62, 0
2, 50974, Note_on_c, 0, 50, 0
2, 50976, Note_on_c, 0, 49, 92
2, 50976, Note_on_c, 0, 64, 92
2, 51070, Note_on_c, 0, 49, 0
2, 51072, Note_on_c, 0, 47, 92
2, 51166, Note_on_c, 0, 47, 0
2, 51168, Note_on_c, 0, 49, 92
2, 51262, Note_on_c, 0, 49, 0
2, 51264, Note_on_c, 0, 50, 92
2, 51336, Note_on_c, 0, 64, 0
2, 51358, Note_on_c, 0, 50, 0
2, 51360, Note_on_c, 0, 52, 92
2, 51360, Note_on_c, 0, 61, 92
2, 51454, Note_on_c, 0, 52, 0
2, 51456, Note_on_c, 0, 42, 92
2, 51550, Note_on_c, 0, 42, 0
2, 51550, Note_on_c, 0, 61, 0
2, 51552, Note_on_c, 0, 54, 92
2, 51552, Note_on_c, 0, 63, 92
2, 51646, Note_on_c, 0, 63, 0
2, 51646, Note_on_c, 0, 54, 0
2, 51648, Note_on_c, 0, 52, 92
2, 51648, Note_on_c, 0, 64, 92
2, 51742, Note_on_c, 0, 64, 0
2, 51742, Note_on_c, 0, 52, 0
2, 51744, Note_on_c, 0, 51, 92
2, 51744, Note_on_c, 0, 66, 92
2, 51838, Note_on_c, 0, 51, 0
2, 51840, Note_on_c, 0, 49, 92
2, 51934, Note_on_c, 0, 49, 0
2, 51936, Note_on_c, 0, 51, 92
2, 52030, Note_on_c, 0, 51, 0
2, 52032, Note_on_c, 0, 52, 92
2, 52117, Note_on_c, 0, 66, 0
2, 52126, Note_on_c, 0, 52, 0
2, 52128, Note_on_c, 0, 54, 92
2, 52128, Note_on_c, 0, 64, 92
2, 52222, Note_on_c, 0, 64, 0
2, 52222, Note_on_c, 0, 54, 0
2, 52224, Note_on_c, 0, 47, 92
2, 52224, Note_on_c, 0, 63, 92
2, 52318, Note_on_c, 0, 63, 0
2, 52318, Note_on_c, 0, 47, 0
2, 52320, Note_on_c, 0, 55, 92
2, 52320, Note_on_c, 0, 64, 92
2, 52414, Note_on_c, 0, 64, 0
2, 52414, Note_on_c, 0, 55, 0
2, 52416, Note_on_c, 0, 54, 92
2, 52416, Note_on_c, 0, 66, 92
2, 52510, Note_on_c, 0, 66, 0
2, 52510, Note_on_c, 0, 54, 0
2, 52512, Note_on_c, 0, 52, 92
2, 52512, Note_on_c, 0, 67, 92
2, 52606, Note_on_c, 0, 52, 0
2, 52608, Note_on_c, 0, 51, 92
2, 52702, Note_on_c, 0, 51, 0
2, 52704, Note_on_c, 0, 52, 92
2, 52798, Note_on_c, 0, 52, 0
2, 52800, Note_on_c, 0, 50, 92
2, 52800, Note_on_c, 0, 59, 92
2, 52894, Note_on_c, 0, 59, 0
2, 52894, Note_on_c, 0, 50, 0
2, 52894, Note_on_c, 0, 67, 0
2, 52896, Note_on_c, 0, 48, 92
2, 52896, Note_on_c, 0, 57, 92
2, 52896, Note_on_c, 0, 64, 92
2, 52990, Note_on_c, 0, 57, 0
2, 52990, Note_on_c, 0, 48, 0
2, 52992, Note_on_c, 0, 47, 92
2, 52992, Note_on_c, 0, 55, 92
2, 53086, Note_on_c, 0, 55, 0
2, 53086, Note_on_c, 0, 47, 0
2, 53086, Note_on_c, 0, 64, 0
2, 53088, Note_on_c, 0, 45, 92
2, 53088, Note_on_c, 0, 54, 92
2, 53088, Note_on_c, 0, 64, 92
2, 53182, Note_on_c, 0, 54, 0
2, 53184, Note_on_c, 0, 57, 92
2, 53278, Note_on_c, 0, 57, 0
2, 53278, Note_on_c, 0, 64, 0
2, 53280, Note_on_c, 0, 59, 92
2, 53280, Note_on_c, 0, 63, 92
2, 53374, Note_on_c, 0, 59, 0
2, 53376, Note_on_c, 0, 60, 92
2, 53470, Note_on_c, 0, 60, 0
2, 53470, Note_on_c, 0, 45, 0
2, 53472, Note_on_c, 0, 47, 92
2, 53472, Note_on_c, 0, 51, 92
2, 53560, Note_on_c, 0, 63, 0
2, 53566, Note_on_c, 0, 51, 0
2, 53568, Note_on_c, 0, 60, 92
2, 53662, Note_on_c, 0, 60, 0
2, 53664, Note_on_c, 0, 59, 92
2, 53664, Note_on_c, 0, 66, 92
2, 53758, Note_on_c, 0, 59, 0
2, 53760, Note_on_c, 0, 57, 92
2, 53854, Note_on_c, 0, 57, 0
2, 53854, Note_on_c, 0, 66, 0
2, 53854, Note_on_c, 0, 47, 0
2, 53856, Note_on_c, 0, 52, 92
2, 53856, Note_on_c, 0, 55, 92
2, 53856, Note_on_c, 0, 66, 92
2, 53950, Note_on_c, 0, 55, 0
2, 53952, Note_on_c, 0, 59, 92
2, 54046, Note_on_c, 0, 59, 0
2, 54046, Note_on_c, 0, 66, 0
2, 54048, Note_on_c, 0, 61, 92
2, 54048, Note_on_c, 0, 64, 92
2, 54142, Note_on_c, 0, 61, 0
2, 54144, Note_on_c, 0, 63, 92
2, 54238, Note_on_c, 0, 63, 0
2, 54238, Note_on_c, 0, 52, 0
2, 54240, Note_on_c, 0, 52, 92
2, 54328, Note_on_c, 0, 64, 0
2, 54336, Note_on_c, 0, 62, 92
2, 54430, Note_on_c, 0, 62, 0
2, 54432, Note_on_c, 0, 60, 92
2, 54432, Note_on_c, 0, 67, 92
2, 54526, Note_on_c, 0, 60, 0
2, 54528, Note_on_c, 0, 59, 92
2, 54622, Note_on_c, 0, 59, 0
2, 54622, Note_on_c, 0, 67, 0
2, 54622, Note_on_c, 0, 52, 0
2, 54624, Note_on_c, 0, 54, 92
2, 54624, Note_on_c, 0, 57, 92
2, 54624, Note_on_c, 0, 69, 92
2, 54670, Note_on_c, 0, 69, 0
2, 54672, Note_on_c, 0, 67, 92
2, 54718, Note_on_c, 0, 67, 0
2, 54718, Note_on_c, 0, 57, 0
2, 54720, Note_on_c, 0, 61, 92
2, 54720, Note_on_c, 0, 69, 92
2, 54766, Note_on_c, 0, 69, 0
2, 54768, Note_on_c, 0, 67, 92
2, 54814, Note_on_c, 0, 67, 0
2, 54814, Note_on_c, 0, 61, 0
2, 54816, Note_on_c, 0, 63, 92
2, 54816, Note_on_c, 0, 66, 92
2, 54910, Note_on_c, 0, 66, 0
2, 54910, Note_on_c, 0, 63, 0
2, 54912, Note_on_c, 0, 64, 92
2, 54912, Note_on_c, 0, 67, 92
2, 55006, Note_on_c, 0, 67, 0
2, 55006, Note_on_c, 0, 64, 0
2, 55006, Note_on_c, 0, 54, 0
2, 55008, Note_on_c, 0, 54, 92
2, 55008, Note_on_c, 0, 69, 92
2, 55104, Note_on_c, 0, 55, 92
2, 55198, Note_on_c, 0, 55, 0
2, 55198, Note_on_c, 0, 69, 0
2, 55200, Note_on_c, 0, 57, 92
2, 55200, Note_on_c, 0, 60, 92
2, 55294, Note_on_c, 0, 54, 0
2, 55296, Note_on_c, 0, 52, 92
2, 55390, Note_on_c, 0, 52, 0
2, 55390, Note_on_c, 0, 60, 0
2, 55392, Note_on_c, 0, 51, 92
2, 55392, Note_on_c, 0, 59, 92
2, 55486, Note_on_c, 0, 57, 0
2, 55488, Note_on_c, 0, 57, 92
2, 55582, Note_on_c, 0, 57, 0
2, 55582, Note_on_c, 0, 59, 0
2, 55582, Note_on_c, 0, 51, 0
2, 55584, Note_on_c, 0, 47, 92
2, 55584, Note_on_c, 0, 55, 92
2, 55584, Note_on_c, 0, 63, 92
2, 55678, Note_on_c, 0, 55, 0
2, 55680, Note_on_c, 0, 54, 92
2, 55774, Note_on_c, 0, 54, 0
2, 55774, Note_on_c, 0, 63, 0
2, 55774, Note_on_c, 0, 47, 0
2, 55776, Note_on_c, 0, 55, 92
2, 55776, Note_on_c, 0, 64, 92
2, 55870, Note_on_c, 0, 55, 0
2, 55872, Note_on_c, 0, 54, 92
2, 55966, Note_on_c, 0, 54, 0
2, 55966, Note_on_c, 0, 64, 0
2, 55968, Note_on_c, 0, 43, 92
2, 55968, Note_on_c, 0, 52, 92
2, 55968, Note_on_c, 0, 67, 92
2, 56158, Note_on_c, 0, 67, 0
2, 56158, Note_on_c, 0, 43, 0
2, 56160, Note_on_c, 0, 48, 92
2, 56160, Note_on_c, 0, 57, 92
2, 56254, Note_on_c, 0, 52, 0
2, 56256, Note_on_c, 0, 52, 92
2, 56350, Note_on_c, 0, 52, 0
2, 56350, Note_on_c, 0, 57, 0
2, 56350, Note_on_c, 0, 48, 0
2, 56352, Note_on_c, 0, 45, 92
2, 56352, Note_on_c, 0, 51, 92
2, 56352, Note_on_c, 0, 66, 92
2, 56446, Note_on_c, 0, 51, 0
2, 56448, Note_on_c, 0, 49, 92
2, 56542, Note_on_c, 0, 49, 0
2, 56542, Note_on_c, 0, 66, 0
2, 56542, Note_on_c, 0, 45, 0
2, 56544, Note_on_c, 0, 47, 92
2, 56544, Note_on_c, 0, 51, 92
2, 56544, Note_on_c, 0, 59, 92
2, 56638, Note_on_c, 0, 51, 0
2, 56640, Note_on_c, 0, 52, 92
2, 56734, Note_on_c, 0, 52, 0
2, 56734, Note_on_c, 0, 59, 0
2, 56736, Note_on_c, 0, 54, 92
2, 56736, Note_on_c, 0, 63, 92
2, 56824, Note_on_c, 0, 47, 0
2, 56830, Note_on_c, 0, 54, 0
2, 56832, Note_on_c, 0, 47, 92
2, 56926, Note_on_c, 0, 63, 0
2, 56928, Note_on_c, 0, 55, 92
2, 56928, Note_on_c, 0, 64, 92
2, 56952, Note_on_c, 0, 47, 0
2, 57022, Note_on_c, 0, 64, 0
2, 57024, Note_on_c, 0, 67, 92
2, 57118, Note_on_c, 0, 67, 0
2, 57120, Note_on_c, 0, 40, 92
2, 57120, Note_on_c, 0, 66, 92
2, 57214, Note_on_c, 0, 66, 0
2, 57216, Note_on_c, 0, 64, 92
2, 57310, Note_on_c, 0, 64, 0
2, 57310, Note_on_c, 0, 40, 0
2, 57312, Note_on_c, 0, 42, 92
2, 57312, Note_on_c, 0, 62, 92
2, 57406, Note_on_c, 0, 62, 0
2, 57408, Note_on_c, 0, 66, 92
2, 57502, Note_on_c, 0, 66, 0
2, 57502, Note_on_c, 0, 42, 0
2, 57504, Note_on_c, 0, 43, 92
2, 57504, Note_on_c, 0, 64, 92
2, 57598, Note_on_c, 0, 64, 0
2, 57600, Note_on_c, 0, 62, 92
2, 57694, Note_on_c, 0, 62, 0
2, 57694, Note_on_c, 0, 43, 0
2, 57695, Note_on_c, 0, 55, 0
2, 57696, Note_on_c, 0, 45, 92
2, 57696, Note_on_c, 0, 61, 92
2, 57790, Note_on_c, 0, 61, 0
2, 57792, Note_on_c, 0, 64, 92
2, 57886, Note_on_c, 0, 64, 0
2, 57888, Note_on_c, 0, 49, 92
2, 57888, Note_on_c, 0, 66, 92
2, 57982, Note_on_c, 0, 66, 0
2, 57984, Note_on_c, 0, 67, 92
2, 58078, Note_on_c, 0, 67, 0
2, 58078, Note_on_c, 0, 49, 0
2, 58080, Note_on_c, 0, 52, 92
2, 58080, Note_on_c, 0, 57, 92
2, 58174, Note_on_c, 0, 57, 0
2, 58176, Note_on_c, 0, 67, 92
2, 58270, Note_on_c, 0, 67, 0
2, 58270, Note_on_c, 0, 52, 0
2, 58272, Note_on_c, 0, 57, 92
2, 58272, Note_on_c, 0, 66, 92
2, 58366, Note_on_c, 0, 66, 0
2, 58368, Note_on_c, 0, 64, 92
2, 58462, Note_on_c, 0, 64, 0
2, 58462, Note_on_c, 0, 57, 0
2, 58463, Note_on_c, 0, 45, 0
2, 58464, Note_on_c, 0, 54, 92
2, 58464, Note_on_c, 0, 62, 92
2, 58558, Note_on_c, 0, 62, 0
2, 58560, Note_on_c, 0, 66, 92
2, 58654, Note_on_c, 0, 66, 0
2, 58656, Note_on_c, 0, 38, 92
2, 58656, Note_on_c, 0, 64, 92
2, 58750, Note_on_c, 0, 64, 0
2, 58752, Note_on_c, 0, 62, 92
2, 58846, Note_on_c, 0, 62, 0
2, 58846, Note_on_c, 0, 38, 0
2, 58848, Note_on_c, 0, 40, 92
2, 58848, Note_on_c, 0, 61, 92
2, 58942, Note_on_c, 0, 61, 0
2, 58944, Note_on_c, 0, 64, 92
2, 59038, Note_on_c, 0, 64, 0
2, 59038, Note_on_c, 0, 40, 0
2, 59040, Note_on_c, 0, 42, 92
2, 59040, Note_on_c, 0, 62, 92
2, 59134, Note_on_c, 0, 62, 0
2, 59136, Note_on_c, 0, 61, 92
2, 59230, Note_on_c, 0, 61, 0
2, 59230, Note_on_c, 0, 42, 0
2, 59231, Note_on_c, 0, 54, 0
2, 59232, Note_on_c, 0, 43, 92
2, 59232, Note_on_c, 0, 59, 92
2, 59326, Note_on_c, 0, 59, 0
2, 59328, Note_on_c, 0, 62, 92
2, 59422, Note_on_c, 0, 62, 0
2, 59424, Note_on_c, 0, 47, 92
2, 59424, Note_on_c, 0, 64, 92
2, 59518, Note_on_c, 0, 64, 0
2, 59520, Note_on_c, 0, 66, 92
2, 59614, Note_on_c, 0, 66, 0
2, 59614, Note_on_c, 0, 47, 0
2, 59616, Note_on_c, 0, 50, 92
2, 59616, Note_on_c, 0, 55, 92
2, 59710, Note_on_c, 0, 55, 0
2, 59712, Note_on_c, 0, 66, 92
2, 59806, Note_on_c, 0, 66, 0
2, 59806, Note_on_c, 0, 50, 0
2, 59808, Note_on_c, 0, 55, 92
2, 59808, Note_on_c, 0, 64, 92
2, 59902, Note_on_c, 0, 64, 0
2, 59904, Note_on_c, 0, 62, 92
2, 59998, Note_on_c, 0, 62, 0
2, 59998, Note_on_c, 0, 55, 0
2, 59999, Note_on_c, 0, 43, 0
2, 60000, Note_on_c, 0, 52, 92
2, 60000, Note_on_c, 0, 61, 92
2, 60094, Note_on_c, 0, 61, 0
2, 60096, Note_on_c, 0, 64, 92
2, 60190, Note_on_c, 0, 64, 0
2, 60192, Note_on_c, 0, 37, 92
2, 60192, Note_on_c, 0, 62, 92
2, 60286, Note_on_c, 0, 62, 0
2, 60288, Note_on_c, 0, 61, 92
2, 60382, Note_on_c, 0, 61, 0
2, 60382, Note_on_c, 0, 37, 0
2, 60384, Note_on_c, 0, 38, 92
2, 60384, Note_on_c, 0, 59, 92
2, 60478, Note_on_c, 0, 59, 0
2, 60480, Note_on_c, 0, 62, 92
2, 60574, Note_on_c, 0, 62, 0
2, 60574, Note_on_c, 0, 38, 0
2, 60576, Note_on_c, 0, 40, 92
2, 60576, Note_on_c, 0, 61, 92
2, 60670, Note_on_c, 0, 61, 0
2, 60672, Note_on_c, 0, 59, 92
2, 60766, Note_on_c, 0, 59, 0
2, 60766, Note_on_c, 0, 40, 0
2, 60767, Note_on_c, 0, 52, 0
2, 60768, Note_on_c, 0, 42, 92
2, 60768, Note_on_c, 0, 58, 92
2, 60862, Note_on_c, 0, 58, 0
2, 60864, Note_on_c, 0, 61, 92
2, 60958, Note_on_c, 0, 61, 0
2, 60960, Note_on_c, 0, 46, 92
2, 60960, Note_on_c, 0, 62, 92
2, 61054, Note_on_c, 0, 62, 0
2, 61056, Note_on_c, 0, 64, 92
2, 61150, Note_on_c, 0, 64, 0
2, 61150, Note_on_c, 0, 46, 0
2, 61152, Note_on_c, 0, 49, 92
2, 61152, Note_on_c, 0, 54, 92
2, 61246, Note_on_c, 0, 54, 0
2, 61248, Note_on_c, 0, 64, 92
2, 61342, Note_on_c, 0, 64, 0
2, 61342, Note_on_c, 0, 49, 0
2, 61344, Note_on_c, 0, 54, 92
2, 61344, Note_on_c, 0, 62, 92
2, 61438, Note_on_c, 0, 62, 0
2, 61440, Note_on_c, 0, 61, 92
2, 61448, Note_on_c, 0, 42, 0
2, 61534, Note_on_c, 0, 61, 0
2, 61534, Note_on_c, 0, 54, 0
2, 61536, Note_on_c, 0, 50, 92
2, 61536, Note_on_c, 0, 59, 92
2, 61630, Note_on_c, 0, 59, 0
2, 61632, Note_on_c, 0, 62, 92
2, 61726, Note_on_c, 0, 62, 0
2, 61726, Note_on_c, 0, 50, 0
2, 61728, Note_on_c, 0, 47, 92
2, 61728, Note_on_c, 0, 64, 92
2, 61822, Note_on_c, 0, 64, 0
2, 61824, Note_on_c, 0, 66, 92
2, 61918, Note_on_c, 0, 66, 0
2, 61920, Note_on_c, 0, 50, 92
2, 61920, Note_on_c, 0, 56, 92
2, 62014, Note_on_c, 0, 56, 0
2, 62016, Note_on_c, 0, 66, 92
2, 62108, Note_on_c, 0, 47, 0
2, 62110, Note_on_c, 0, 66, 0
2, 62110, Note_on_c, 0, 50, 0
2, 62112, Note_on_c, 0, 47, 92
2, 62112, Note_on_c, 0, 55, 92
2, 62112, Note_on_c, 0, 64, 92
2, 62206, Note_on_c, 0, 64, 0
2, 62208, Note_on_c, 0, 62, 92
2, 62302, Note_on_c, 0, 62, 0
2, 62302, Note_on_c, 0, 55, 0
2, 62302, Note_on_c, 0, 47, 0
2, 62304, Note_on_c, 0, 47, 92
2, 62304, Note_on_c, 0, 52, 92
2, 62304, Note_on_c, 0, 61, 92
2, 62398, Note_on_c, 0, 61, 0
2, 62400, Note_on_c, 0, 64, 92
2, 62494, Note_on_c, 0, 64, 0
2, 62494, Note_on_c, 0, 52, 0
2, 62494, Note_on_c, 0, 47, 0
2, 62496, Note_on_c, 0, 46, 92
2, 62496, Note_on_c, 0, 49, 92
2, 62496, Note_on_c, 0, 66, 92
2, 62590, Note_on_c, 0, 66, 0
2, 62592, Note_on_c, 0, 67, 92
2, 62686, Note_on_c, 0, 67, 0
2, 62686, Note_on_c, 0, 49, 0
2, 62688, Note_on_c, 0, 52, 92
2, 62688, Note_on_c, 0, 58, 92
2, 62776, Note_on_c, 0, 46, 0
2, 62782, Note_on_c, 0, 58, 0
2, 62784, Note_on_c, 0, 67, 92
2, 62878, Note_on_c, 0, 67, 0
2, 62878, Note_on_c, 0, 52, 0
2, 62880, Note_on_c, 0, 49, 92
2, 62880, Note_on_c, 0, 58, 92
2, 62880, Note_on_c, 0, 66, 92
2, 62974, Note_on_c, 0, 66, 0
2, 62976, Note_on_c, 0, 64, 92
2, 63070, Note_on_c, 0, 64, 0
2, 63070, Note_on_c, 0, 58, 0
2, 63070, Note_on_c, 0, 49, 0
2, 63072, Note_on_c, 0, 49, 92
2, 63072, Note_on_c, 0, 54, 92
2, 63072, Note_on_c, 0, 62, 92
2, 63166, Note_on_c, 0, 62, 0
2, 63168, Note_on_c, 0, 66, 92
2, 63262, Note_on_c, 0, 66, 0
2, 63262, Note_on_c, 0, 54, 0
2, 63262, Note_on_c, 0, 49, 0
2, 63264, Note_on_c, 0, 47, 92
2, 63264, Note_on_c, 0, 50, 92
2, 63264, Note_on_c, 0, 68, 92
2, 63358, Note_on_c, 0, 68, 0
2, 63360, Note_on_c, 0, 70, 92
2, 63454, Note_on_c, 0, 70, 0
2, 63454, Note_on_c, 0, 50, 0
2, 63456, Note_on_c, 0, 54, 92
2, 63456, Note_on_c, 0, 59, 92
2, 63544, Note_on_c, 0, 47, 0
2, 63550, Note_on_c, 0, 59, 0
2, 63552, Note_on_c, 0, 69, 92
2, 63646, Note_on_c, 0, 69, 0
2, 63646, Note_on_c, 0, 54, 0
2, 63648, Note_on_c, 0, 50, 92
2, 63648, Note_on_c, 0, 59, 92
2, 63648, Note_on_c, 0, 67, 92
2, 63742, Note_on_c, 0, 67, 0
2, 63744, Note_on_c, 0, 66, 92
2, 63838, Note_on_c, 0, 66, 0
2, 63838, Note_on_c, 0, 50, 0
2, 63840, Note_on_c, 0, 52, 92
2, 63840, Note_on_c, 0, 64, 92
2, 63886, Note_on_c, 0, 52, 0
2, 63888, Note_on_c, 0, 50, 92
2, 63934, Note_on_c, 0, 50, 0
2, 63934, Note_on_c, 0, 64, 0
2, 63936, Note_on_c, 0, 52, 92
2, 63936, Note_on_c, 0, 68, 92
2, 63982, Note_on_c, 0, 52, 0
2, 63984, Note_on_c, 0, 50, 92
2, 64030, Note_on_c, 0, 50, 0
2, 64030, Note_on_c, 0, 68, 0
2, 64032, Note_on_c, 0, 49, 92
2, 64032, Note_on_c, 0, 70, 92
2, 64126, Note_on_c, 0, 70, 0
2, 64126, Note_on_c, 0, 49, 0
2, 64128, Note_on_c, 0, 50, 92
2, 64128, Note_on_c, 0, 71, 92
2, 64222, Note_on_c, 0, 71, 0
2, 64222, Note_on_c, 0, 50, 0
2, 64224, Note_on_c, 0, 52, 92
2, 64224, Note_on_c, 0, 61, 92
2, 64318, Note_on_c, 0, 61, 0
2, 64320, Note_on_c, 0, 62, 92
2, 64414, Note_on_c, 0, 62, 0
2, 64414, Note_on_c, 0, 52, 0
2, 64416, Note_on_c, 0, 43, 92
2, 64416, Note_on_c, 0, 64, 92
2, 64510, Note_on_c, 0, 59, 0
2, 64512, Note_on_c, 0, 59, 92
2, 64606, Note_on_c, 0, 59, 0
2, 64606, Note_on_c, 0, 43, 0
2, 64608, Note_on_c, 0, 42, 92
2, 64608, Note_on_c, 0, 58, 92
2, 64702, Note_on_c, 0, 58, 0
2, 64704, Note_on_c, 0, 61, 92
2, 64798, Note_on_c, 0, 61, 0
2, 64798, Note_on_c, 0, 42, 0
2, 64800, Note_on_c, 0, 46, 92
2, 64800, Note_on_c, 0, 54, 92
2, 64894, Note_on_c, 0, 64, 0
2, 64896, Note_on_c, 0, 64, 92
2, 64990, Note_on_c, 0, 64, 0
2, 64990, Note_on_c, 0, 46, 0
2, 64992, Note_on_c, 0, 47, 92
2, 64992, Note_on_c, 0, 62, 92
2, 65086, Note_on_c, 0, 62, 0
2, 65088, Note_on_c, 0, 61, 92
2, 65182, Note_on_c, 0, 61, 0
2, 65182, Note_on_c, 0, 47, 0
2, 65184, Note_on_c, 0, 50, 92
2, 65184, Note_on_c, 0, 59, 92
2, 65278, Note_on_c, 0, 54, 0
2, 65280, Note_on_c, 0, 54, 92
2, 65374, Note_on_c, 0, 54, 0
2, 65374, Note_on_c, 0, 50, 0
2, 65376, Note_on_c, 0, 40, 92
2, 65376, Note_on_c, 0, 55, 92
2, 65470, Note_on_c, 0, 59, 0
2, 65472, Note_on_c, 0, 59, 92
2, 65566, Note_on_c, 0, 55, 0
2, 65566, Note_on_c, 0, 40, 0
2, 65568, Note_on_c, 0, 49, 92
2, 65568, Note_on_c, 0, 52, 92
2, 65662, Note_on_c, 0, 59, 0
2, 65664, Note_on_c, 0, 59, 92
2, 65758, Note_on_c, 0, 59, 0
2, 65758, Note_on_c, 0, 52, 0
2, 65758, Note_on_c, 0, 49, 0
2, 65760, Note_on_c, 0, 42, 92
2, 65760, Note_on_c, 0, 49, 92
2, 65760, Note_on_c, 0, 58, 92
2, 65854, Note_on_c, 0, 58, 0
2, 65856, Note_on_c, 0, 59, 92
2, 65950, Note_on_c, 0, 59, 0
2, 65950, Note_on_c, 0, 42, 0
2, 65952, Note_on_c, 0, 46, 92
2, 65952, Note_on_c, 0, 61, 92
2, 66046, Note_on_c, 0, 61, 0
2, 66048, Note_on_c, 0, 54, 92
2, 66142, Note_on_c, 0, 54, 0
2, 66142, Note_on_c, 0, 46, 0
2, 66142, Note_on_c, 0, 49, 0
2, 66144, Note_on_c, 0, 47, 92
2, 66144, Note_on_c, 0, 62, 92
2, 66238, Note_on_c, 0, 62, 0
2, 66238, Note_on_c, 0, 47, 0
2, 66240, Note_on_c, 0, 49, 92
2, 66240, Note_on_c, 0, 61, 92
2, 66334, Note_on_c, 0, 61, 0
2, 66334, Note_on_c, 0, 49, 0
2, 66336, Note_on_c, 0, 50, 92
2, 66336, Note_on_c, 0, 59, 92
2, 66430, Note_on_c, 0, 59, 0
2, 66432, Note_on_c, 0, 58, 92
2, 66526, Note_on_c, 0, 58, 0
2, 66528, Note_on_c, 0, 59, 92
2, 66622, Note_on_c, 0, 59, 0
2, 66624, Note_on_c, 0, 61, 92
2, 66676, Note_on_c, 0, 50, 0
2, 66718, Note_on_c, 0, 61, 0
2, 66720, Note_on_c, 0, 47, 92
2, 66720, Note_on_c, 0, 62, 92
2, 66814, Note_on_c, 0, 62, 0
2, 66816, Note_on_c, 0, 54, 92
2, 66910, Note_on_c, 0, 54, 0
2, 66910, Note_on_c, 0, 47, 0
2, 66912, Note_on_c, 0, 49, 92
2, 66912, Note_on_c, 0, 64, 92
2, 67006, Note_on_c, 0, 64, 0
2, 67006, Note_on_c, 0, 49, 0
2, 67008, Note_on_c, 0, 50, 92
2, 67008, Note_on_c, 0, 62, 92
2, 67102, Note_on_c, 0, 62, 0
2, 67102, Note_on_c, 0, 50, 0
2, 67104, Note_on_c, 0, 52, 92
2, 67104, Note_on_c, 0, 61, 92
2, 67198, Note_on_c, 0, 61, 0
2, 67200, Note_on_c, 0, 59, 92
2, 67294, Note_on_c, 0, 59, 0
2, 67296, Note_on_c, 0, 61, 92
2, 67390, Note_on_c, 0, 61, 0
2, 67392, Note_on_c, 0, 62, 92
2, 67444, Note_on_c, 0, 52, 0
2, 67486, Note_on_c, 0, 62, 0
2, 67488, Note_on_c, 0, 49, 92
2, 67488, Note_on_c, 0, 64, 92
2, 67582, Note_on_c, 0, 64, 0
2, 67584, Note_on_c, 0, 54, 92
2, 67678, Note_on_c, 0, 54, 0
2, 67678, Note_on_c, 0, 49, 0
2, 67680, Note_on_c, 0, 51, 92
2, 67680, Note_on_c, 0, 66, 92
2, 67774, Note_on_c, 0, 66, 0
2, 67774, Note_on_c, 0, 51, 0
2, 67776, Note_on_c, 0, 52, 92
2, 67776, Note_on_c, 0, 64, 92
2, 67870, Note_on_c, 0, 64, 0
2, 67870, Note_on_c, 0, 52, 0
2, 67872, Note_on_c, 0, 54, 92
2, 67872, Note_on_c, 0, 63, 92
2, 67966, Note_on_c, 0, 63, 0
2, 67968, Note_on_c, 0, 61, 92
2, 68062, Note_on_c, 0, 61, 0
2, 68064, Note_on_c, 0, 63, 92
2, 68158, Note_on_c, 0, 63, 0
2, 68160, Note_on_c, 0, 64, 92
2, 68232, Note_on_c, 0, 54, 0
2, 68254, Note_on_c, 0, 64, 0
2, 68256, Note_on_c, 0, 52, 92
2, 68256, Note_on_c, 0, 66, 92
2, 68350, Note_on_c, 0, 66, 0
2, 68350, Note_on_c, 0, 52, 0
2, 68352, Note_on_c, 0, 51, 92
2, 68352, Note_on_c, 0, 59, 92
2, 68446, Note_on_c, 0, 59, 0
2, 68446, Note_on_c, 0, 51, 0
2, 68448, Note_on_c, 0, 55, 92
2, 68448, Note_on_c, 0, 64, 92
2, 68542, Note_on_c, 0, 64, 0
2, 68542, Note_on_c, 0, 55, 0
2, 68544, Note_on_c, 0, 54, 92
2, 68544, Note_on_c, 0, 66, 92
2, 68638, Note_on_c, 0, 66, 0
2, 68638, Note_on_c, 0, 54, 0
2, 68640, Note_on_c, 0, 52, 92
2, 68640, Note_on_c, 0, 67, 92
2, 68734, Note_on_c, 0, 52, 0
2, 68736, Note_on_c, 0, 51, 92
2, 68830, Note_on_c, 0, 51, 0
2, 68832, Note_on_c, 0, 52, 92
2, 68920, Note_on_c, 0, 67, 0
2, 68926, Note_on_c, 0, 52, 0
2, 68928, Note_on_c, 0, 54, 92
2, 69022, Note_on_c, 0, 54, 0
2, 69024, Note_on_c, 0, 55, 92
2, 69024, Note_on_c, 0, 64, 92
2, 69118, Note_on_c, 0, 55, 0
2, 69120, Note_on_c, 0, 49, 92
2, 69214, Note_on_c, 0, 49, 0
2, 69214, Note_on_c, 0, 64, 0
2, 69216, Note_on_c, 0, 57, 92
2, 69216, Note_on_c, 0, 66, 92
2, 69310, Note_on_c, 0, 66, 0
2, 69310, Note_on_c, 0, 57, 0
2, 69312, Note_on_c, 0, 55, 92
2, 69312, Note_on_c, 0, 67, 92
2, 69406, Note_on_c, 0, 67, 0
2, 69406, Note_on_c, 0, 55, 0
2, 69408, Note_on_c, 0, 54, 92
2, 69408, Note_on_c, 0, 69, 92
2, 69502, Note_on_c, 0, 54, 0
2, 69504, Note_on_c, 0, 52, 92
2, 69598, Note_on_c, 0, 52, 0
2, 69600, Note_on_c, 0, 54, 92
2, 69688, Note_on_c, 0, 69, 0
2, 69694, Note_on_c, 0, 54, 0
2, 69696, Note_on_c, 0, 55, 92
2, 69790, Note_on_c, 0, 55, 0
2, 69792, Note_on_c, 0, 57, 92
2, 69792, Note_on_c, 0, 66, 92
2, 69886, Note_on_c, 0, 57, 0
2, 69888, Note_on_c, 0, 51, 92
2, 69982, Note_on_c, 0, 51, 0
2, 69982, Note_on_c, 0, 66, 0
2, 69984, Note_on_c, 0, 59, 92
2, 69984, Note_on_c, 0, 68, 92
2, 70078, Note_on_c, 0, 68, 0
2, 70078, Note_on_c, 0, 59, 0
2, 70080, Note_on_c, 0, 57, 92
2, 70080, Note_on_c, 0, 69, 92
2, 70174, Note_on_c, 0, 69, 0
2, 70174, Note_on_c, 0, 57, 0
2, 70176, Note_on_c, 0, 56, 92
2, 70176, Note_on_c, 0, 71, 92
2, 70270, Note_on_c, 0, 56, 0
2, 70272, Note_on_c, 0, 54, 92
2, 70366, Note_on_c, 0, 54, 0
2, 70368, Note_on_c, 0, 56, 92
2, 70462, Note_on_c, 0, 56, 0
2, 70464, Note_on_c, 0, 57, 92
2, 70558, Note_on_c, 0, 57, 0
2, 70558, Note_on_c, 0, 71, 0
2, 70560, Note_on_c, 0, 59, 92
2, 70560, Note_on_c, 0, 69, 92
2, 70654, Note_on_c, 0, 69, 0
2, 70654, Note_on_c, 0, 59, 0
2, 70656, Note_on_c, 0, 52, 92
2, 70656, Note_on_c, 0, 68, 92
2, 70750, Note_on_c, 0, 68, 0
2, 70750, Note_on_c, 0, 52, 0
2, 70752, Note_on_c, 0, 57, 92
2, 70752, Note_on_c, 0, 72, 92
2, 70846, Note_on_c, 0, 72, 0
2, 70846, Note_on_c, 0, 57, 0
2, 70848, Note_on_c, 0, 59, 92
2, 70848, Note_on_c, 0, 71, 92
2, 70942, Note_on_c, 0, 71, 0
2, 70942, Note_on_c, 0, 59, 0
2, 70944, Note_on_c, 0, 60, 92
2, 70944, Note_on_c, 0, 69, 92
2, 71038, Note_on_c, 0, 69, 0
2, 71040, Note_on_c, 0, 68, 92
2, 71134, Note_on_c, 0, 68, 0
2, 71136, Note_on_c, 0, 69, 92
2, 71184, Note_on_c, 0, 60, 0
2, 71230, Note_on_c, 0, 69, 0
2, 71232, Note_on_c, 0, 59, 92
2, 71232, Note_on_c, 0, 71, 92
2, 71326, Note_on_c, 0, 71, 0
2, 71326, Note_on_c, 0, 59, 0
2, 71328, Note_on_c, 0, 57, 92
2, 71328, Note_on_c, 0, 72, 92
2, 71422, Note_on_c, 0, 72, 0
2, 71422, Note_on_c, 0, 57, 0
2, 71424, Note_on_c, 0, 55, 92
2, 71424, Note_on_c, 0, 64, 92
2, 71518, Note_on_c, 0, 64, 0
2, 71518, Note_on_c, 0, 55, 0
2, 71520, Note_on_c, 0, 54, 92
2, 71520, Note_on_c, 0, 64, 92
2, 71520, Note_on_c, 0, 69, 92
2, 71614, Note_on_c, 0, 69, 0
2, 71614, Note_on_c, 0, 54, 0
2, 71616, Note_on_c, 0, 57, 92
2, 71616, Note_on_c, 0, 67, 92
2, 71710, Note_on_c, 0, 67, 0
2, 71710, Note_on_c, 0, 57, 0
2, 71710, Note_on_c, 0, 64, 0
2, 71712, Note_on_c, 0, 59, 92
2, 71712, Note_on_c, 0, 63, 92
2, 71712, Note_on_c, 0, 66, 92
2, 71806, Note_on_c, 0, 66, 0
2, 71806, Note_on_c, 0, 59, 0
2, 71808, Note_on_c, 0, 60, 92
2, 71808, Note_on_c, 0, 64, 92
2, 71902, Note_on_c, 0, 64, 0
2, 71902, Note_on_c, 0, 60, 0
2, 71904, Note_on_c, 0, 51, 92
2, 71904, Note_on_c, 0, 66, 92
2, 71992, Note_on_c, 0, 63, 0
2, 71998, Note_on_c, 0, 66, 0
2, 71998, Note_on_c, 0, 51, 0
2, 72000, Note_on_c, 0, 60, 92
2, 72000, Note_on_c, 0, 67, 92
2, 72094, Note_on_c, 0, 67, 0
2, 72094, Note_on_c, 0, 60, 0
2, 72096, Note_on_c, 0, 59, 92
2, 72096, Note_on_c, 0, 66, 92
2, 72096, Note_on_c, 0, 69, 92
2, 72190, Note_on_c, 0, 59, 0
2, 72192, Note_on_c, 0, 57, 92
2, 72286, Note_on_c, 0, 57, 0
2, 72286, Note_on_c, 0, 69, 0
2, 72286, Note_on_c, 0, 66, 0
2, 72288, Note_on_c, 0, 55, 92
2, 72288, Note_on_c, 0, 66, 92
2, 72288, Note_on_c, 0, 69, 92
2, 72382, Note_on_c, 0, 55, 0
2, 72384, Note_on_c, 0, 59, 92
2, 72478, Note_on_c, 0, 59, 0
2, 72478, Note_on_c, 0, 69, 0
2, 72478, Note_on_c, 0, 66, 0
2, 72480, Note_on_c, 0, 61, 92
2, 72480, Note_on_c, 0, 64, 92
2, 72480, Note_on_c, 0, 67, 92
2, 72574, Note_on_c, 0, 61, 0
2, 72576, Note_on_c, 0, 63, 92
2, 72670, Note_on_c, 0, 63, 0
2, 72672, Note_on_c, 0, 52, 92
2, 72760, Note_on_c, 0, 67, 0
2, 72760, Note_on_c, 0, 64, 0
2, 72766, Note_on_c, 0, 52, 0
2, 72768, Note_on_c, 0, 62, 92
2, 72862, Note_on_c, 0, 62, 0
2, 72864, Note_on_c, 0, 60, 92
2, 72864, Note_on_c, 0, 67, 92
2, 72864, Note_on_c, 0, 71, 92
2, 72958, Note_on_c, 0, 60, 0
2, 72960, Note_on_c, 0, 59, 92
2, 73054, Note_on_c, 0, 59, 0
2, 73054, Note_on_c, 0, 71, 0
2, 73054, Note_on_c, 0, 67, 0
2, 73056, Note_on_c, 0, 57, 92
2, 73056, Note_on_c, 0, 67, 92
2, 73056, Note_on_c, 0, 71, 92
2, 73150, Note_on_c, 0, 57, 0
2, 73152, Note_on_c, 0, 61, 92
2, 73246, Note_on_c, 0, 61, 0
2, 73246, Note_on_c, 0, 71, 0
2, 73246, Note_on_c, 0, 67, 0
2, 73248, Note_on_c, 0, 63, 92
2, 73248, Note_on_c, 0, 66, 92
2, 73248, Note_on_c, 0, 69, 92
2, 73342, Note_on_c, 0, 66, 0
2, 73342, Note_on_c, 0, 63, 0
2, 73344, Note_on_c, 0, 64, 92
2, 73344, Note_on_c, 0, 67, 92
2, 73438, Note_on_c, 0, 67, 0
2, 73438, Note_on_c, 0, 64, 0
2, 73438, Note_on_c, 0, 69, 0
2, 73440, Note_on_c, 0, 54, 92
2, 73440, Note_on_c, 0, 69, 92
2, 73534, Note_on_c, 0, 54, 0
2, 73536, Note_on_c, 0, 55, 92
2, 73536, Note_on_c, 0, 67, 92
2, 73630, Note_on_c, 0, 67, 0
2, 73630, Note_on_c, 0, 55, 0
2, 73630, Note_on_c, 0, 69, 0
2, 73632, Note_on_c, 0, 57, 92
2, 73632, Note_on_c, 0, 60, 92
2, 73632, Note_on_c, 0, 66, 92
2, 73726, Note_on_c, 0, 66, 0
2, 73728, Note_on_c, 0, 64, 92
2, 73822, Note_on_c, 0, 64, 0
2, 73822, Note_on_c, 0, 60, 0
2, 73824, Note_on_c, 0, 59, 92
2, 73824, Note_on_c, 0, 63, 92
2, 73918, Note_on_c, 0, 57, 0
2, 73920, Note_on_c, 0, 57, 92
2, 74014, Note_on_c, 0, 57, 0
2, 74014, Note_on_c, 0, 63, 0
2, 74014, Note_on_c, 0, 59, 0
2, 74016, Note_on_c, 0, 55, 92
2, 74016, Note_on_c, 0, 63, 92
2, 74016, Note_on_c, 0, 71, 92
2, 74110, Note_on_c, 0, 55, 0
2, 74112, Note_on_c, 0, 54, 92
2, 74206, Note_on_c, 0, 54, 0
2, 74206, Note_on_c, 0, 63, 0
2, 74208, Note_on_c, 0, 55, 92
2, 74208, Note_on_c, 0, 64, 92
2, 74302, Note_on_c, 0, 55, 0
2, 74302, Note_on_c, 0, 71, 0
2, 74304, Note_on_c, 0, 54, 92
2, 74304, Note_on_c, 0, 74, 92
2, 74398, Note_on_c, 0, 74, 0
2, 74398, Note_on_c, 0, 54, 0
2, 74398, Note_on_c, 0, 64, 0
2, 74400, Note_on_c, 0, 52, 92
2, 74400, Note_on_c, 0, 67, 92
2, 74400, Note_on_c, 0, 72, 92
2, 74494, Note_on_c, 0, 72, 0
2, 74496, Note_on_c, 0, 71, 92
2, 74590, Note_on_c, 0, 71, 0
2, 74590, Note_on_c, 0, 67, 0
2, 74592, Note_on_c, 0, 57, 92
2, 74592, Note_on_c, 0, 72, 92
2, 74686, Note_on_c, 0, 72, 0
2, 74686, Note_on_c, 0, 52, 0
2, 74688, Note_on_c, 0, 52, 92
2, 74688, Note_on_c, 0, 69, 92
2, 74782, Note_on_c, 0, 52, 0
2, 74782, Note_on_c, 0, 57, 0
2, 74784, Note_on_c, 0, 51, 92
2, 74784, Note_on_c, 0, 66, 92
2, 74878, Note_on_c, 0, 51, 0
2, 74878, Note_on_c, 0, 69, 0
2, 74880, Note_on_c, 0, 49, 92
2, 74880, Note_on_c, 0, 69, 92
2, 74974, Note_on_c, 0, 49, 0
2, 74974, Note_on_c, 0, 66, 0
2, 74976, Note_on_c, 0, 51, 92
2, 74976, Note_on_c, 0, 59, 92
2, 75070, Note_on_c, 0, 51, 0
2, 75070, Note_on_c, 0, 69, 0
2, 75072, Note_on_c, 0, 52, 92
2, 75072, Note_on_c, 0, 69, 92
2, 75166, Note_on_c, 0, 52, 0
2, 75166, Note_on_c, 0, 59, 0
2, 75168, Note_on_c, 0, 54, 92
2, 75168, Note_on_c, 0, 63, 92
2, 75262, Note_on_c, 0, 54, 0
2, 75262, Note_on_c, 0, 69, 0
2, 75264, Note_on_c, 0, 47, 92
2, 75264, Note_on_c, 0, 69, 92
2, 75358, Note_on_c, 0, 47, 0
2, 75358, Note_on_c, 0, 63, 0
2, 75360, Note_on_c, 0, 52, 92
2, 75360, Note_on_c, 0, 64, 92
2, 75454, Note_on_c, 0, 69, 0
2, 75456, Note_on_c, 0, 69, 92
2, 75550, Note_on_c, 0, 64, 0
2, 75550, Note_on_c, 0, 52, 0
2, 75552, Note_on_c, 0, 40, 92
2, 75552, Note_on_c, 0, 59, 92
2, 75646, Note_on_c, 0, 69, 0
2, 75648, Note_on_c, 0, 67, 92
2, 75742, Note_on_c, 0, 59, 0
2, 75744, Note_on_c, 0, 64, 92
2, 75832, Note_on_c, 0, 40, 0
2, 75838, Note_on_c, 0, 67, 0
2, 75840, Note_on_c, 0, 67, 92
2, 75934, Note_on_c, 0, 64, 0
2, 75936, Note_on_c, 0, 52, 92
2, 75936, Note_on_c, 0, 62, 92
2, 76030, Note_on_c, 0, 67, 0
2, 76032, Note_on_c, 0, 67, 92
2, 76126, Note_on_c, 0, 62, 0
2, 76126, Note_on_c, 0, 52, 0
2, 76128, Note_on_c, 0, 57, 92
2, 76128, Note_on_c, 0, 61, 92
2, 76222, Note_on_c, 0, 67, 0
2, 76224, Note_on_c, 0, 67, 92
2, 76318, Note_on_c, 0, 61, 0
2, 76318, Note_on_c, 0, 57, 0
2, 76320, Note_on_c, 0, 49, 92
2, 76320, Note_on_c, 0, 64, 92
2, 76414, Note_on_c, 0, 67, 0
2, 76416, Note_on_c, 0, 67, 92
2, 76510, Note_on_c, 0, 64, 0
2, 76512, Note_on_c, 0, 57, 92
2, 76600, Note_on_c, 0, 49, 0
2, 76606, Note_on_c, 0, 67, 0
2, 76608, Note_on_c, 0, 67, 92
2, 76702, Note_on_c, 0, 57, 0
2, 76704, Note_on_c, 0, 45, 92
2, 76704, Note_on_c, 0, 61, 92
2, 76798, Note_on_c, 0, 67, 0
2, 76800, Note_on_c, 0, 67, 92
2, 76894, Note_on_c, 0, 61, 0
2, 76894, Note_on_c, 0, 45, 0
2, 76896, Note_on_c, 0, 50, 92
2, 76896, Note_on_c, 0, 62, 92
2, 76990, Note_on_c, 0, 67, 0
2, 76992, Note_on_c, 0, 67, 92
2, 77086, Note_on_c, 0, 62, 0
2, 77086, Note_on_c, 0, 50, 0
2, 77088, Note_on_c, 0, 38, 92
2, 77088, Note_on_c, 0, 57, 92
2, 77182, Note_on_c, 0, 67, 0
2, 77184, Note_on_c, 0, 67, 92
2, 77278, Note_on_c, 0, 57, 0
2, 77280, Note_on_c, 0, 62, 92
2, 77368, Note_on_c, 0, 38, 0
2, 77374, Note_on_c, 0, 67, 0
2, 77376, Note_on_c, 0, 66, 92
2, 77470, Note_on_c, 0, 62, 0
2, 77472, Note_on_c, 0, 50, 92
2, 77472, Note_on_c, 0, 60, 92
2, 77546, Note_on_c, 0, 66, 0
2, 77568, Note_on_c, 0, 65, 92
2, 77662, Note_on_c, 0, 60, 0
2, 77662, Note_on_c, 0, 50, 0
2, 77664, Note_on_c, 0, 55, 92
2, 77664, Note_on_c, 0, 59, 92
2, 77758, Note_on_c, 0, 65, 0
2, 77760, Note_on_c, 0, 65, 92
2, 77854, Note_on_c, 0, 59, 0
2, 77854, Note_on_c, 0, 55, 0
2, 77856, Note_on_c, 0, 47, 92
2, 77856, Note_on_c, 0, 62, 92
2, 77950, Note_on_c, 0, 65, 0
2, 77952, Note_on_c, 0, 65, 92
2, 78046, Note_on_c, 0, 62, 0
2, 78048, Note_on_c, 0, 55, 92
2, 78142, Note_on_c, 0, 65, 0
2, 78144, Note_on_c, 0, 65, 92
2, 78176, Note_on_c, 0, 47, 0
2, 78238, Note_on_c, 0, 55, 0
2, 78240, Note_on_c, 0, 43, 92
2, 78240, Note_on_c, 0, 59, 92
2, 78334, Note_on_c, 0, 65, 0
2, 78336, Note_on_c, 0, 65, 92
2, 78430, Note_on_c, 0, 65, 0
2, 78430, Note_on_c, 0, 59, 0
2, 78430, Note_on_c, 0, 43, 0
2, 78432, Note_on_c, 0, 48, 92
2, 78432, Note_on_c, 0, 60, 92
2, 78432, Note_on_c, 0, 64, 92
2, 78526, Note_on_c, 0, 48, 0
2, 78528, Note_on_c, 0, 50, 92
2, 78622, Note_on_c, 0, 50, 0
2, 78622, Note_on_c, 0, 64, 0
2, 78624, Note_on_c, 0, 52, 92
2, 78624, Note_on_c, 0, 69, 92
2, 78712, Note_on_c, 0, 60, 0
2, 78718, Note_on_c, 0, 52, 0
2, 78720, Note_on_c, 0, 50, 92
2, 78814, Note_on_c, 0, 50, 0
2, 78814, Note_on_c, 0, 69, 0
2, 78816, Note_on_c, 0, 49, 92
2, 78816, Note_on_c, 0, 69, 92
2, 78910, Note_on_c, 0, 49, 0
2, 78912, Note_on_c, 0, 52, 92
2, 79006, Note_on_c, 0, 52, 0
2, 79006, Note_on_c, 0, 69, 0
2, 79008, Note_on_c, 0, 45, 92
2, 79008, Note_on_c, 0, 64, 92
2, 79008, Note_on_c, 0, 67, 92
2, 79102, Note_on_c, 0, 45, 0
2, 79104, Note_on_c, 0, 49, 92
2, 79198, Note_on_c, 0, 49, 0
2, 79198, Note_on_c, 0, 67, 0
2, 79198, Note_on_c, 0, 64, 0
2, 79200, Note_on_c, 0, 50, 92
2, 79200, Note_on_c, 0, 64, 92
2, 79200, Note_on_c, 0, 66, 92
2, 79294, Note_on_c, 0, 50, 0
2, 79296, Note_on_c, 0, 52, 92
2, 79390, Note_on_c, 0, 52, 0
2, 79390, Note_on_c, 0, 66, 0
2, 79390, Note_on_c, 0, 64, 0
2, 79392, Note_on_c, 0, 54, 92
2, 79392, Note_on_c, 0, 62, 92
2, 79392, Note_on_c, 0, 71, 92
2, 79486, Note_on_c, 0, 54, 0
2, 79488, Note_on_c, 0, 52, 92
2, 79582, Note_on_c, 0, 52, 0
2, 79582, Note_on_c, 0, 71, 0
2, 79582, Note_on_c, 0, 62, 0
2, 79584, Note_on_c, 0, 51, 92
2, 79584, Note_on_c, 0, 71, 92
2, 79678, Note_on_c, 0, 51, 0
2, 79680, Note_on_c, 0, 54, 92
2, 79774, Note_on_c, 0, 54, 0
2, 79774, Note_on_c, 0, 71, 0
2, 79776, Note_on_c, 0, 47, 92
2, 79776, Note_on_c, 0, 66, 92
2, 79776, Note_on_c, 0, 69, 92
2, 79870, Note_on_c, 0, 47, 0
2, 79872, Note_on_c, 0, 51, 92
2, 79966, Note_on_c, 0, 51, 0
2, 79966, Note_on_c, 0, 69, 0
2, 79966, Note_on_c, 0, 66, 0
2, 79968, Note_on_c, 0, 52, 92
2, 79968, Note_on_c, 0, 66, 92
2, 79968, Note_on_c, 0, 67, 92
2, 80062, Note_on_c, 0, 52, 0
2, 80064, Note_on_c, 0, 54, 92
2, 80158, Note_on_c, 0, 54, 0
2, 80158, Note_on_c, 0, 67, 0
2, 80158, Note_on_c, 0, 66, 0
2, 80160, Note_on_c, 0, 55, 92
2, 80160, Note_on_c, 0, 64, 92
2, 80160, Note_on_c, 0, 72, 92
2, 80254, Note_on_c, 0, 55, 0
2, 80256, Note_on_c, 0, 54, 92
2, 80350, Note_on_c, 0, 54, 0
2, 80350, Note_on_c, 0, 72, 0
2, 80352, Note_on_c, 0, 52, 92
2, 80352, Note_on_c, 0, 72, 92
2, 80440, Note_on_c, 0, 64, 0
2, 80446, Note_on_c, 0, 52, 0
2, 80448, Note_on_c, 0, 55, 92
2, 80542, Note_on_c, 0, 55, 0
2, 80542, Note_on_c, 0, 72, 0
2, 80544, Note_on_c, 0, 48, 92
2, 80544, Note_on_c, 0, 67, 92
2, 80544, Note_on_c, 0, 71, 92
2, 80638, Note_on_c, 0, 48, 0
2, 80640, Note_on_c, 0, 52, 92
2, 80734, Note_on_c, 0, 52, 0
2, 80734, Note_on_c, 0, 71, 0
2, 80734, Note_on_c, 0, 67, 0
2, 80736, Note_on_c, 0, 54, 92
2, 80736, Note_on_c, 0, 67, 92
2, 80736, Note_on_c, 0, 69, 92
2, 80830, Note_on_c, 0, 54, 0
2, 80832, Note_on_c, 0, 55, 92
2, 80926, Note_on_c, 0, 55, 0
2, 80926, Note_on_c, 0, 69, 0
2, 80926, Note_on_c, 0, 67, 0
2, 80928, Note_on_c, 0, 57, 92
2, 80928, Note_on_c, 0, 66, 92
2, 80928, Note_on_c, 0, 74, 92
2, 81022, Note_on_c, 0, 57, 0
2, 81024, Note_on_c, 0, 55, 92
2, 81118, Note_on_c, 0, 55, 0
2, 81118, Note_on_c, 0, 74, 0
2, 81120, Note_on_c, 0, 54, 92
2, 81120, Note_on_c, 0, 74, 92
2, 81208, Note_on_c, 0, 66, 0
2, 81214, Note_on_c, 0, 54, 0
2, 81216, Note_on_c, 0, 57, 92
2, 81310, Note_on_c, 0, 57, 0
2, 81310, Note_on_c, 0, 74, 0
2, 81312, Note_on_c, 0, 50, 92
2, 81312, Note_on_c, 0, 69, 92
2, 81312, Note_on_c, 0, 72, 92
2, 81406, Note_on_c, 0, 50, 0
2, 81408, Note_on_c, 0, 54, 92
2, 81502, Note_on_c, 0, 54, 0
2, 81502, Note_on_c, 0, 72, 0
2, 81504, Note_on_c, 0, 55, 92
2, 81504, Note_on_c, 0, 71, 92
2, 81598, Note_on_c, 0, 69, 0
2, 81600, Note_on_c, 0, 66, 92
2, 81694, Note_on_c, 0, 66, 0
2, 81694, Note_on_c, 0, 55, 0
2, 81696, Note_on_c, 0, 43, 92
2, 81696, Note_on_c, 0, 67, 92
2, 81790, Note_on_c, 0, 67, 0
2, 81792, Note_on_c, 0, 62, 92
2, 81884, Note_on_c, 0, 71, 0
2, 81886, Note_on_c, 0, 62, 0
2, 81888, Note_on_c, 0, 64, 92
2, 81976, Note_on_c, 0, 43, 0
2, 81984, Note_on_c, 0, 67, 92
2, 82078, Note_on_c, 0, 67, 0
2, 82080, Note_on_c, 0, 55, 92
2, 82080, Note_on_c, 0, 71, 92
2, 82174, Note_on_c, 0, 71, 0
2, 82176, Note_on_c, 0, 74, 92
2, 82268, Note_on_c, 0, 64, 0
2, 82270, Note_on_c, 0, 74, 0
2, 82270, Note_on_c, 0, 55, 0
2, 82272, Note_on_c, 0, 57, 92
2, 82272, Note_on_c, 0, 72, 92
2, 82318, Note_on_c, 0, 57, 0
2, 82320, Note_on_c, 0, 55, 92
2, 82366, Note_on_c, 0, 55, 0
2, 82368, Note_on_c, 0, 57, 92
2, 82368, Note_on_c, 0, 67, 92
2, 82414, Note_on_c, 0, 57, 0
2, 82416, Note_on_c, 0, 55, 92
2, 82462, Note_on_c, 0, 55, 0
2, 82462, Note_on_c, 0, 67, 0
2, 82464, Note_on_c, 0, 54, 92
2, 82464, Note_on_c, 0, 69, 92
2, 82558, Note_on_c, 0, 69, 0
2, 82560, Note_on_c, 0, 64, 92
2, 82652, Note_on_c, 0, 72, 0
2, 82654, Note_on_c, 0, 64, 0
2, 82656, Note_on_c, 0, 66, 92
2, 82744, Note_on_c, 0, 54, 0
2, 82752, Note_on_c, 0, 69, 92
2, 82846, Note_on_c, 0, 69, 0
2, 82848, Note_on_c, 0, 57, 92
2, 82848, Note_on_c, 0, 72, 92
2, 82942, Note_on_c, 0, 72, 0
2, 82944, Note_on_c, 0, 76, 92
2, 83036, Note_on_c, 0, 66, 0
2, 83038, Note_on_c, 0, 76, 0
2, 83038, Note_on_c, 0, 57, 0
2, 83040, Note_on_c, 0, 59, 92
2, 83040, Note_on_c, 0, 74, 92
2, 83086, Note_on_c, 0, 59, 0
2, 83088, Note_on_c, 0, 57, 92
2, 83134, Note_on_c, 0, 57, 0
2, 83136, Note_on_c, 0, 59, 92
2, 83136, Note_on_c, 0, 69, 92
2, 83182, Note_on_c, 0, 59, 0
2, 83184, Note_on_c, 0, 57, 92
2, 83230, Note_on_c, 0, 57, 0
2, 83230, Note_on_c, 0, 69, 0
2, 83232, Note_on_c, 0, 55, 92
2, 83232, Note_on_c, 0, 71, 92
2, 83326, Note_on_c, 0, 71, 0
2, 83328, Note_on_c, 0, 66, 92
2, 83420, Note_on_c, 0, 74, 0
2, 83422, Note_on_c, 0, 66, 0
2, 83424, Note_on_c, 0, 67, 92
2, 83520, Note_on_c, 0, 71, 92
2, 83532, Note_on_c, 0, 55, 0
2, 83614, Note_on_c, 0, 71, 0
2, 83616, Note_on_c, 0, 59, 92
2, 83616, Note_on_c, 0, 74, 92
2, 83710, Note_on_c, 0, 74, 0
2, 83712, Note_on_c, 0, 77, 92
2, 83804, Note_on_c, 0, 67, 0
2, 83806, Note_on_c, 0, 77, 0
2, 83806, Note_on_c, 0, 59, 0
2, 83808, Note_on_c, 0, 60, 92
2, 83808, Note_on_c, 0, 76, 92
2, 83854, Note_on_c, 0, 60, 0
2, 83856, Note_on_c, 0, 59, 92
2, 83902, Note_on_c, 0, 59, 0
2, 83904, Note_on_c, 0, 60, 92
2, 83904, Note_on_c, 0, 71, 92
2, 83950, Note_on_c, 0, 60, 0
2, 83952, Note_on_c, 0, 59, 92
2, 83998, Note_on_c, 0, 59, 0
2, 83998, Note_on_c, 0, 71, 0
2, 84000, Note_on_c, 0, 57, 92
2, 84000, Note_on_c, 0, 72, 92
2, 84094, Note_on_c, 0, 72, 0
2, 84094, Note_on_c, 0, 57, 0
2, 84096, Note_on_c, 0, 59, 92
2, 84096, Note_on_c, 0, 67, 92
2, 84188, Note_on_c, 0, 76, 0
2, 84190, Note_on_c, 0, 67, 0
2, 84190, Note_on_c, 0, 59, 0
2, 84192, Note_on_c, 0, 60, 92
2, 84192, Note_on_c, 0, 69, 92
2, 84288, Note_on_c, 0, 72, 92
2, 84382, Note_on_c, 0, 72, 0
2, 84382, Note_on_c, 0, 60, 0
2, 84384, Note_on_c, 0, 52, 92
2, 84384, Note_on_c, 0, 76, 92
2, 84478, Note_on_c, 0, 76, 0
2, 84480, Note_on_c, 0, 79, 92
2, 84572, Note_on_c, 0, 69, 0
2, 84574, Note_on_c, 0, 79, 0
2, 84574, Note_on_c, 0, 52, 0
2, 84576, Note_on_c, 0, 50, 92
2, 84576, Note_on_c, 0, 78, 92
2, 84670, Note_on_c, 0, 78, 0
2, 84672, Note_on_c, 0, 76, 92
2, 84766, Note_on_c, 0, 76, 0
2, 84766, Note_on_c, 0, 50, 0
2, 84768, Note_on_c, 0, 54, 92
2, 84768, Note_on_c, 0, 74, 92
2, 84864, Note_on_c, 0, 72, 92
2, 84958, Note_on_c, 0, 72, 0
2, 84958, Note_on_c, 0, 54, 0
2, 84960, Note_on_c, 0, 55, 92
2, 84960, Note_on_c, 0, 71, 92
2, 85054, Note_on_c, 0, 74, 0
2, 85056, Note_on_c, 0, 74, 92
2, 85150, Note_on_c, 0, 74, 0
2, 85150, Note_on_c, 0, 55, 0
2, 85152, Note_on_c, 0, 59, 92
2, 85152, Note_on_c, 0, 79, 92
2, 85246, Note_on_c, 0, 79, 0
2, 85248, Note_on_c, 0, 74, 92
2, 85340, Note_on_c, 0, 71, 0
2, 85342, Note_on_c, 0, 74, 0
2, 85342, Note_on_c, 0, 59, 0
2, 85344, Note_on_c, 0, 48, 92
2, 85344, Note_on_c, 0, 76, 92
2, 85440, Note_on_c, 0, 71, 92
2, 85534, Note_on_c, 0, 71, 0
2, 85534, Note_on_c, 0, 48, 0
2, 85536, Note_on_c, 0, 57, 92
2, 85536, Note_on_c, 0, 72, 92
2, 85630, Note_on_c, 0, 72, 0
2, 85632, Note_on_c, 0, 64, 92
2, 85724, Note_on_c, 0, 76, 0
2, 85726, Note_on_c, 0, 64, 0
2, 85726, Note_on_c, 0, 57, 0
2, 85728, Note_on_c, 0, 50, 92
2, 85728, Note_on_c, 0, 66, 92
2, 85824, Note_on_c, 0, 69, 92
2, 85918, Note_on_c, 0, 69, 0
2, 85918, Note_on_c, 0, 50, 0
2, 85920, Note_on_c, 0, 54, 92
2, 85920, Note_on_c, 0, 74, 92
2, 86014, Note_on_c, 0, 74, 0
2, 86016, Note_on_c, 0, 69, 92
2, 86108, Note_on_c, 0, 66, 0
2, 86110, Note_on_c, 0, 69, 0
2, 86110, Note_on_c, 0, 54, 0
2, 86112, Note_on_c, 0, 43, 92
2, 86112, Note_on_c, 0, 71, 92
2, 86208, Note_on_c, 0, 66, 92
2, 86302, Note_on_c, 0, 66, 0
2, 86302, Note_on_c, 0, 43, 0
2, 86304, Note_on_c, 0, 55, 92
2, 86304, Note_on_c, 0, 64, 92
2, 86398, Note_on_c, 0, 64, 0
2, 86400, Note_on_c, 0, 62, 92
2, 86494, Note_on_c, 0, 62, 0
2, 86494, Note_on_c, 0, 55, 0
2, 86496, Note_on_c, 0, 49, 92
2, 86496, Note_on_c, 0, 64, 92
2, 86590, Note_on_c, 0, 64, 0
2, 86592, Note_on_c, 0, 66, 92
2, 86686, Note_on_c, 0, 66, 0
2, 86686, Note_on_c, 0, 49, 0
2, 86688, Note_on_c, 0, 52, 92
2, 86688, Note_on_c, 0, 67, 92
2, 86782, Note_on_c, 0, 67, 0
2, 86784, Note_on_c, 0, 61, 92
2, 86878, Note_on_c, 0, 52, 0
2, 86878, Note_on_c, 0, 71, 0
2, 86880, Note_on_c, 0, 42, 92
2, 86880, Note_on_c, 0, 69, 92
2, 86974, Note_on_c, 0, 61, 0
2, 86976, Note_on_c, 0, 64, 92
2, 87070, Note_on_c, 0, 64, 0
2, 87070, Note_on_c, 0, 42, 0
2, 87072, Note_on_c, 0, 54, 92
2, 87072, Note_on_c, 0, 62, 92
2, 87166, Note_on_c, 0, 62, 0
2, 87168, Note_on_c, 0, 61, 92
2, 87262, Note_on_c, 0, 61, 0
2, 87262, Note_on_c, 0, 54, 0
2, 87264, Note_on_c, 0, 47, 92
2, 87264, Note_on_c, 0, 62, 92
2, 87358, Note_on_c, 0, 62, 0
2, 87360, Note_on_c, 0, 64, 92
2, 87454, Note_on_c, 0, 64, 0
2, 87454, Note_on_c, 0, 47, 0
2, 87456, Note_on_c, 0, 50, 92
2, 87456, Note_on_c, 0, 66, 92
2, 87550, Note_on_c, 0, 66, 0
2, 87552, Note_on_c, 0, 59, 92
2, 87646, Note_on_c, 0, 50, 0
2, 87646, Note_on_c, 0, 69, 0
2, 87648, Note_on_c, 0, 40, 92
2, 87648, Note_on_c, 0, 67, 92
2, 87742, Note_on_c, 0, 59, 0
2, 87744, Note_on_c, 0, 62, 92
2, 87838, Note_on_c, 0, 62, 0
2, 87838, Note_on_c, 0, 40, 0
2, 87840, Note_on_c, 0, 52, 92
2, 87840, Note_on_c, 0, 61, 92
2, 87934, Note_on_c, 0, 61, 0
2, 87936, Note_on_c, 0, 59, 92
2, 88030, Note_on_c, 0, 59, 0
2, 88030, Note_on_c, 0, 52, 0
2, 88032, Note_on_c, 0, 45, 92
2, 88032, Note_on_c, 0, 61, 92
2, 88126, Note_on_c, 0, 61, 0
2, 88128, Note_on_c, 0, 62, 92
2, 88222, Note_on_c, 0, 62, 0
2, 88222, Note_on_c, 0, 45, 0
2, 88224, Note_on_c, 0, 49, 92
2, 88224, Note_on_c, 0, 64, 92
2, 88318, Note_on_c, 0, 64, 0
2, 88320, Note_on_c, 0, 57, 92
2, 88414, Note_on_c, 0, 49, 0
2, 88414, Note_on_c, 0, 67, 0
2, 88416, Note_on_c, 0, 38, 92
2, 88416, Note_on_c, 0, 66, 92
2, 88510, Note_on_c, 0, 38, 0
2, 88510, Note_on_c, 0, 57, 0
2, 88512, Note_on_c, 0, 45, 92
2, 88512, Note_on_c, 0, 61, 92
2, 88606, Note_on_c, 0, 61, 0
2, 88606, Note_on_c, 0, 45, 0
2, 88608, Note_on_c, 0, 47, 92
2, 88608, Note_on_c, 0, 62, 92
2, 88702, Note_on_c, 0, 62, 0
2, 88702, Note_on_c, 0, 47, 0
2, 88704, Note_on_c, 0, 49, 92
2, 88704, Note_on_c, 0, 64, 92
2, 88796, Note_on_c, 0, 66, 0
2, 88798, Note_on_c, 0, 64, 0
2, 88798, Note_on_c, 0, 49, 0
2, 88800, Note_on_c, 0, 50, 92
2, 88800, Note_on_c, 0, 66, 92
2, 88894, Note_on_c, 0, 50, 0
2, 88896, Note_on_c, 0, 52, 92
2, 88896, Note_on_c, 0, 67, 92
2, 88990, Note_on_c, 0, 67, 0
2, 88990, Note_on_c, 0, 52, 0
2, 88990, Note_on_c, 0, 66, 0
2, 88992, Note_on_c, 0, 54, 92
2, 88992, Note_on_c, 0, 69, 92
2, 88992, Note_on_c, 0, 74, 92
2, 89086, Note_on_c, 0, 69, 0
2, 89086, Note_on_c, 0, 54, 0
2, 89088, Note_on_c, 0, 50, 92
2, 89088, Note_on_c, 0, 66, 92
2, 89182, Note_on_c, 0, 66, 0
2, 89182, Note_on_c, 0, 50, 0
2, 89182, Note_on_c, 0, 74, 0
2, 89184, Note_on_c, 0, 52, 92
2, 89184, Note_on_c, 0, 67, 92
2, 89184, Note_on_c, 0, 74, 92
2, 89278, Note_on_c, 0, 52, 0
2, 89280, Note_on_c, 0, 55, 92
2, 89374, Note_on_c, 0, 55, 0
2, 89374, Note_on_c, 0, 74, 0
2, 89374, Note_on_c, 0, 67, 0
2, 89376, Note_on_c, 0, 57, 92
2, 89376, Note_on_c, 0, 64, 92
2, 89376, Note_on_c, 0, 73, 92
2, 89470, Note_on_c, 0, 57, 0
2, 89472, Note_on_c, 0, 59, 92
2, 89566, Note_on_c, 0, 59, 0
2, 89566, Note_on_c, 0, 64, 0
2, 89568, Note_on_c, 0, 49, 92
2, 89568, Note_on_c, 0, 69, 92
2, 89656, Note_on_c, 0, 73, 0
2, 89662, Note_on_c, 0, 49, 0
2, 89664, Note_on_c, 0, 59, 92
2, 89758, Note_on_c, 0, 59, 0
2, 89758, Note_on_c, 0, 69, 0
2, 89760, Note_on_c, 0, 57, 92
2, 89760, Note_on_c, 0, 73, 92
2, 89760, Note_on_c, 0, 76, 92
2, 89854, Note_on_c, 0, 57, 0
2, 89856, Note_on_c, 0, 55, 92
2, 89950, Note_on_c, 0, 55, 0
2, 89950, Note_on_c, 0, 76, 0
2, 89950, Note_on_c, 0, 73, 0
2, 89952, Note_on_c, 0, 54, 92
2, 89952, Note_on_c, 0, 69, 92
2, 89952, Note_on_c, 0, 76, 92
2, 90046, Note_on_c, 0, 54, 0
2, 90048, Note_on_c, 0, 57, 92
2, 90142, Note_on_c, 0, 57, 0
2, 90142, Note_on_c, 0, 76, 0
2, 90142, Note_on_c, 0, 69, 0
2, 90144, Note_on_c, 0, 59, 92
2, 90144, Note_on_c, 0, 66, 92
2, 90144, Note_on_c, 0, 74, 92
2, 90238, Note_on_c, 0, 59, 0
2, 90240, Note_on_c, 0, 61, 92
2, 90334, Note_on_c, 0, 61, 0
2, 90334, Note_on_c, 0, 66, 0
2, 90336, Note_on_c, 0, 50, 92
2, 90336, Note_on_c, 0, 69, 92
2, 90424, Note_on_c, 0, 74, 0
2, 90430, Note_on_c, 0, 50, 0
2, 90432, Note_on_c, 0, 60, 92
2, 90526, Note_on_c, 0, 60, 0
2, 90526, Note_on_c, 0, 69, 0
2, 90528, Note_on_c, 0, 59, 92
2, 90528, Note_on_c, 0, 74, 92
2, 90528, Note_on_c, 0, 78, 92
2, 90622, Note_on_c, 0, 59, 0
2, 90624, Note_on_c, 0, 57, 92
2, 90718, Note_on_c, 0, 57, 0
2, 90718, Note_on_c, 0, 78, 0
2, 90718, Note_on_c, 0, 74, 0
2, 90720, Note_on_c, 0, 55, 92
2, 90720, Note_on_c, 0, 71, 92
2, 90720, Note_on_c, 0, 78, 92
2, 90814, Note_on_c, 0, 55, 0
2, 90816, Note_on_c, 0, 59, 92
2, 90910, Note_on_c, 0, 59, 0
2, 90910, Note_on_c, 0, 78, 0
2, 90912, Note_on_c, 0, 61, 92
2, 90912, Note_on_c, 0, 76, 92
2, 91006, Note_on_c, 0, 76, 0
2, 91006, Note_on_c, 0, 61, 0
2, 91008, Note_on_c, 0, 62, 92
2, 91008, Note_on_c, 0, 78, 92
2, 91102, Note_on_c, 0, 78, 0
2, 91102, Note_on_c, 0, 62, 0
2, 91104, Note_on_c, 0, 52, 92
2, 91104, Note_on_c, 0, 79, 92
2, 91198, Note_on_c, 0, 79, 0
2, 91198, Note_on_c, 0, 52, 0
2, 91200, Note_on_c, 0, 54, 92
2, 91200, Note_on_c, 0, 78, 92
2, 91260, Note_on_c, 0, 71, 0
2, 91294, Note_on_c, 0, 78, 0
2, 91294, Note_on_c, 0, 54, 0
2, 91296, Note_on_c, 0, 55, 92
2, 91296, Note_on_c, 0, 71, 92
2, 91296, Note_on_c, 0, 76, 92
2, 91390, Note_on_c, 0, 76, 0
2, 91392, Note_on_c, 0, 74, 92
2, 91486, Note_on_c, 0, 74, 0
2, 91486, Note_on_c, 0, 71, 0
2, 91488, Note_on_c, 0, 69, 92
2, 91488, Note_on_c, 0, 73, 92
2, 91582, Note_on_c, 0, 69, 0
2, 91582, Note_on_c, 0, 55, 0
2, 91584, Note_on_c, 0, 55, 92
2, 91584, Note_on_c, 0, 71, 92
2, 91678, Note_on_c, 0, 71, 0
2, 91678, Note_on_c, 0, 55, 0
2, 91678, Note_on_c, 0, 73, 0
2, 91680, Note_on_c, 0, 54, 92
2, 91680, Note_on_c, 0, 69, 92
2, 91680, Note_on_c, 0, 73, 92
2, 91774, Note_on_c, 0, 69, 0
2, 91774, Note_on_c, 0, 54, 0
2, 91776, Note_on_c, 0, 52, 92
2, 91776, Note_on_c, 0, 67, 92
2, 91870, Note_on_c, 0, 67, 0
2, 91870, Note_on_c, 0, 52, 0
2, 91870, Note_on_c, 0, 73, 0
2, 91872, Note_on_c, 0, 54, 92
2, 91872, Note_on_c, 0, 69, 92
2, 91872, Note_on_c, 0, 74, 92
2, 91966, Note_on_c, 0, 54, 0
2, 91968, Note_on_c, 0, 55, 92
2, 92062, Note_on_c, 0, 55, 0
2, 92062, Note_on_c, 0, 74, 0
2, 92064, Note_on_c, 0, 57, 92
2, 92064, Note_on_c, 0, 78, 92
2, 92158, Note_on_c, 0, 57, 0
2, 92160, Note_on_c, 0, 50, 92
2, 92254, Note_on_c, 0, 50, 0
2, 92254, Note_on_c, 0, 78, 0
2, 92256, Note_on_c, 0, 59, 92
2, 92256, Note_on_c, 0, 67, 92
2, 92350, Note_on_c, 0, 59, 0
2, 92352, Note_on_c, 0, 50, 92
2, 92446, Note_on_c, 0, 50, 0
2, 92446, Note_on_c, 0, 67, 0
2, 92448, Note_on_c, 0, 49, 92
2, 92448, Note_on_c, 0, 76, 92
2, 92542, Note_on_c, 0, 49, 0
2, 92544, Note_on_c, 0, 47, 92
2, 92638, Note_on_c, 0, 47, 0
2, 92638, Note_on_c, 0, 76, 0
2, 92639, Note_on_c, 0, 69, 0
2, 92640, Note_on_c, 0, 49, 92
2, 92640, Note_on_c, 0, 69, 92
2, 92734, Note_on_c, 0, 49, 0
2, 92736, Note_on_c, 0, 50, 92
2, 92830, Note_on_c, 0, 50, 0
2, 92830, Note_on_c, 0, 69, 0
2, 92832, Note_on_c, 0, 52, 92
2, 92832, Note_on_c, 0, 73, 92
2, 92926, Note_on_c, 0, 52, 0
2, 92928, Note_on_c, 0, 45, 92
2, 93022, Note_on_c, 0, 45, 0
2, 93022, Note_on_c, 0, 73, 0
2, 93024, Note_on_c, 0, 54, 92
2, 93024, Note_on_c, 0, 74, 92
2, 93118, Note_on_c, 0, 54, 0
2, 93120, Note_on_c, 0, 52, 92
2, 93214, Note_on_c, 0, 52, 0
2, 93216, Note_on_c, 0, 50, 92
2, 93216, Note_on_c, 0, 69, 92
2, 93310, Note_on_c, 0, 50, 0
2, 93312, Note_on_c, 0, 48, 92
2, 93406, Note_on_c, 0, 48, 0
2, 93406, Note_on_c, 0, 69, 0
2, 93408, Note_on_c, 0, 47, 92
2, 93408, Note_on_c, 0, 69, 92
2, 93502, Note_on_c, 0, 47, 0
2, 93504, Note_on_c, 0, 48, 92
2, 93598, Note_on_c, 0, 48, 0
2, 93598, Note_on_c, 0, 69, 0
2, 93598, Note_on_c, 0, 74, 0
2, 93600, Note_on_c, 0, 50, 92
2, 93600, Note_on_c, 0, 68, 92
2, 93600, Note_on_c, 0, 71, 92
2, 93694, Note_on_c, 0, 50, 0
2, 93696, Note_on_c, 0, 47, 92
2, 93790, Note_on_c, 0, 47, 0
2, 93790, Note_on_c, 0, 71, 0
2, 93792, Note_on_c, 0, 48, 92
2, 93792, Note_on_c, 0, 71, 92
2, 93840, Note_on_c, 0, 68, 0
2, 93886, Note_on_c, 0, 48, 0
2, 93888, Note_on_c, 0, 52, 92
2, 93982, Note_on_c, 0, 52, 0
2, 93982, Note_on_c, 0, 71, 0
2, 93984, Note_on_c, 0, 57, 92
2, 93984, Note_on_c, 0, 72, 92
2, 93984, Note_on_c, 0, 69, 92
2, 94078, Note_on_c, 0, 57, 0
2, 94080, Note_on_c, 0, 55, 92
2, 94174, Note_on_c, 0, 55, 0
2, 94174, Note_on_c, 0, 72, 0
2, 94176, Note_on_c, 0, 53, 92
2, 94176, Note_on_c, 0, 72, 92
2, 94224, Note_on_c, 0, 69, 0
2, 94270, Note_on_c, 0, 53, 0
2, 94272, Note_on_c, 0, 56, 92
2, 94366, Note_on_c, 0, 56, 0
2, 94366, Note_on_c, 0, 72, 0
2, 94368, Note_on_c, 0, 57, 92
2, 94368, Note_on_c, 0, 71, 92
2, 94368, Note_on_c, 0, 74, 92
2, 94462, Note_on_c, 0, 57, 0
2, 94464, Note_on_c, 0, 53, 92
2, 94558, Note_on_c, 0, 53, 0
2, 94558, Note_on_c, 0, 74, 0
2, 94560, Note_on_c, 0, 52, 92
2, 94560, Note_on_c, 0, 74, 92
2, 94608, Note_on_c, 0, 71, 0
2, 94654, Note_on_c, 0, 52, 0
2, 94656, Note_on_c, 0, 55, 92
2, 94750, Note_on_c, 0, 55, 0
2, 94750, Note_on_c, 0, 74, 0
2, 94752, Note_on_c, 0, 57, 92
2, 94752, Note_on_c, 0, 76, 92
2, 94752, Note_on_c, 0, 72, 92
2, 94846, Note_on_c, 0, 57, 0
2, 94848, Note_on_c, 0, 55, 92
2, 94942, Note_on_c, 0, 55, 0
2, 94942, Note_on_c, 0, 76, 0
2, 94944, Note_on_c, 0, 54, 92
2, 94944, Note_on_c, 0, 76, 92
2, 94992, Note_on_c, 0, 72, 0
2, 95038, Note_on_c, 0, 54, 0
2, 95040, Note_on_c, 0, 56, 92
2, 95134, Note_on_c, 0, 56, 0
2, 95134, Note_on_c, 0, 76, 0
2, 95136, Note_on_c, 0, 57, 92
2, 95136, Note_on_c, 0, 74, 92
2, 95136, Note_on_c, 0, 77, 92
2, 95230, Note_on_c, 0, 57, 0
2, 95232, Note_on_c, 0, 60, 92
2, 95326, Note_on_c, 0, 60, 0
2, 95326, Note_on_c, 0, 77, 0
2, 95328, Note_on_c, 0, 59, 92
2, 95328, Note_on_c, 0, 77, 92
2, 95376, Note_on_c, 0, 74, 0
2, 95422, Note_on_c, 0, 59, 0
2, 95424, Note_on_c, 0, 57, 92
2, 95518, Note_on_c, 0, 57, 0
2, 95518, Note_on_c, 0, 77, 0
2, 95520, Note_on_c, 0, 56, 92
2, 95520, Note_on_c, 0, 74, 92
2, 95520, Note_on_c, 0, 76, 92
2, 95614, Note_on_c, 0, 56, 0
2, 95616, Note_on_c, 0, 54, 92
2, 95710, Note_on_c, 0, 54, 0
2, 95710, Note_on_c, 0, 74, 0
2, 95712, Note_on_c, 0, 56, 92
2, 95712, Note_on_c, 0, 74, 92
2, 95760, Note_on_c, 0, 76, 0
2, 95806, Note_on_c, 0, 56, 0
2, 95808, Note_on_c, 0, 52, 92
2, 95902, Note_on_c, 0, 52, 0
2, 95902, Note_on_c, 0, 74, 0
2, 95904, Note_on_c, 0, 57, 92
2, 95904, Note_on_c, 0, 72, 92
2, 95904, Note_on_c, 0, 76, 92
2, 95998, Note_on_c, 0, 57, 0
2, 96000, Note_on_c, 0, 55, 92
2, 96094, Note_on_c, 0, 55, 0
2, 96094, Note_on_c, 0, 76, 0
2, 96096, Note_on_c, 0, 54, 92
2, 96096, Note_on_c, 0, 76, 92
2, 96144, Note_on_c, 0, 72, 0
2, 96190, Note_on_c, 0, 54, 0
2, 96192, Note_on_c, 0, 60, 92
2, 96286, Note_on_c, 0, 60, 0
2, 96286, Note_on_c, 0, 76, 0
2, 96288, Note_on_c, 0, 54, 92
2, 96288, Note_on_c, 0, 72, 92
2, 96288, Note_on_c, 0, 74, 92
2, 96382, Note_on_c, 0, 54, 0
2, 96384, Note_on_c, 0, 52, 92
2, 96478, Note_on_c, 0, 52, 0
2, 96478, Note_on_c, 0, 72, 0
2, 96480, Note_on_c, 0, 54, 92
2, 96480, Note_on_c, 0, 72, 92
2, 96528, Note_on_c, 0, 74, 0
2, 96574, Note_on_c, 0, 54, 0
2, 96576, Note_on_c, 0, 50, 92
2, 96670, Note_on_c, 0, 50, 0
2, 96670, Note_on_c, 0, 72, 0
2, 96672, Note_on_c, 0, 55, 92
2, 96672, Note_on_c, 0, 71, 92
2, 96672, Note_on_c, 0, 74, 92
2, 96766, Note_on_c, 0, 55, 0
2, 96768, Note_on_c, 0, 53, 92
2, 96862, Note_on_c, 0, 53, 0
2, 96862, Note_on_c, 0, 74, 0
2, 96864, Note_on_c, 0, 52, 92
2, 96864, Note_on_c, 0, 74, 92
2, 96912, Note_on_c, 0, 71, 0
2, 96958, Note_on_c, 0, 52, 0
2, 96960, Note_on_c, 0, 59, 92
2, 97054, Note_on_c, 0, 59, 0
2, 97054, Note_on_c, 0, 74, 0
2, 97056, Note_on_c, 0, 52, 92
2, 97056, Note_on_c, 0, 71, 92
2, 97056, Note_on_c, 0, 72, 92
2, 97150, Note_on_c, 0, 52, 0
2, 97152, Note_on_c, 0, 50, 92
2, 97246, Note_on_c, 0, 50, 0
2, 97246, Note_on_c, 0, 71, 0
2, 97248, Note_on_c, 0, 52, 92
2, 97248, Note_on_c, 0, 71, 92
2, 97296, Note_on_c, 0, 72, 0
2, 97342, Note_on_c, 0, 52, 0
2, 97344, Note_on_c, 0, 48, 92
2, 97438, Note_on_c, 0, 48, 0
2, 97438, Note_on_c, 0, 71, 0
2, 97440, Note_on_c, 0, 53, 92
2, 97440, Note_on_c, 0, 69, 92
2, 97440, Note_on_c, 0, 72, 92
2, 97534, Note_on_c, 0, 53, 0
2, 97536, Note_on_c, 0, 52, 92
2, 97630, Note_on_c, 0, 52, 0
2, 97630, Note_on_c, 0, 72, 0
2, 97632, Note_on_c, 0, 50, 92
2, 97632, Note_on_c, 0, 72, 92
2, 97680, Note_on_c, 0, 69, 0
2, 97726, Note_on_c, 0, 50, 0
2, 97728, Note_on_c, 0, 52, 92
2, 97822, Note_on_c, 0, 52, 0
2, 97822, Note_on_c, 0, 72, 0
2, 97824, Note_on_c, 0, 53, 92
2, 97824, Note_on_c, 0, 62, 92
2, 97824, Note_on_c, 0, 71, 92
2, 97918, Note_on_c, 0, 53, 0
2, 97920, Note_on_c, 0, 44, 92
2, 98014, Note_on_c, 0, 44, 0
2, 98014, Note_on_c, 0, 71, 0
2, 98014, Note_on_c, 0, 62, 0
2, 98016, Note_on_c, 0, 45, 92
2, 98016, Note_on_c, 0, 62, 92
2, 98016, Note_on_c, 0, 71, 92
2, 98110, Note_on_c, 0, 45, 0
2, 98112, Note_on_c, 0, 47, 92
2, 98206, Note_on_c, 0, 47, 0
2, 98206, Note_on_c, 0, 71, 0
2, 98206, Note_on_c, 0, 62, 0
2, 98208, Note_on_c, 0, 48, 92
2, 98208, Note_on_c, 0, 60, 92
2, 98208, Note_on_c, 0, 69, 92
2, 98302, Note_on_c, 0, 48, 0
2, 98304, Note_on_c, 0, 39, 92
2, 98398, Note_on_c, 0, 39, 0
2, 98398, Note_on_c, 0, 69, 0
2, 98398, Note_on_c, 0, 60, 0
2, 98400, Note_on_c, 0, 40, 92
2, 98400, Note_on_c, 0, 60, 92
2, 98400, Note_on_c, 0, 69, 92
2, 98494, Note_on_c, 0, 40, 0
2, 98496, Note_on_c, 0, 52, 92
2, 98590, Note_on_c, 0, 52, 0
2, 98590, Note_on_c, 0, 69, 0
2, 98590, Note_on_c, 0, 60, 0
2, 98592, Note_on_c, 0, 50, 92
2, 98592, Note_on_c, 0, 59, 92
2, 98592, Note_on_c, 0, 68, 92
2, 98686, Note_on_c, 0, 50, 0
2, 98688, Note_on_c, 0, 52, 92
2, 98772, Note_on_c, 0, 68, 0
2, 98782, Note_on_c, 0, 52, 0
2, 98782, Note_on_c, 0, 59, 0
2, 98784, Note_on_c, 0, 48, 92
2, 98784, Note_on_c, 0, 59, 92
2, 98880, Note_on_c, 0, 76, 92
2, 98974, Note_on_c, 0, 76, 0
2, 98974, Note_on_c, 0, 59, 0
2, 98976, Note_on_c, 0, 57, 92
2, 98976, Note_on_c, 0, 74, 92
2, 99070, Note_on_c, 0, 74, 0
2, 99072, Note_on_c, 0, 72, 92
2, 99166, Note_on_c, 0, 72, 0
2, 99166, Note_on_c, 0, 57, 0
2, 99166, Note_on_c, 0, 48, 0
2, 99168, Note_on_c, 0, 50, 92
2, 99168, Note_on_c, 0, 57, 92
2, 99168, Note_on_c, 0, 71, 92
2, 99262, Note_on_c, 0, 71, 0
2, 99264, Note_on_c, 0, 74, 92
2, 99358, Note_on_c, 0, 74, 0
2, 99358, Note_on_c, 0, 57, 0
2, 99360, Note_on_c, 0, 56, 92
2, 99360, Note_on_c, 0, 76, 92
2, 99454, Note_on_c, 0, 76, 0
2, 99456, Note_on_c, 0, 77, 92
2, 99550, Note_on_c, 0, 77, 0
2, 99550, Note_on_c, 0, 50, 0
2, 99552, Note_on_c, 0, 52, 92
2, 99552, Note_on_c, 0, 68, 92
2, 99640, Note_on_c, 0, 56, 0
2, 99646, Note_on_c, 0, 68, 0
2, 99648, Note_on_c, 0, 77, 92
2, 99742, Note_on_c, 0, 77, 0
2, 99744, Note_on_c, 0, 59, 92
2, 99744, Note_on_c, 0, 76, 92
2, 99838, Note_on_c, 0, 76, 0
2, 99840, Note_on_c, 0, 74, 92
2, 99934, Note_on_c, 0, 74, 0
2, 99934, Note_on_c, 0, 59, 0
2, 99934, Note_on_c, 0, 52, 0
2, 99936, Note_on_c, 0, 45, 92
2, 99936, Note_on_c, 0, 59, 92
2, 99936, Note_on_c, 0, 72, 92
2, 100030, Note_on_c, 0, 72, 0
2, 100030, Note_on_c, 0, 45, 0
2, 100032, Note_on_c, 0, 56, 92
2, 100032, Note_on_c, 0, 76, 92
2, 100126, Note_on_c, 0, 76, 0
2, 100126, Note_on_c, 0, 56, 0
2, 100126, Note_on_c, 0, 59, 0
2, 100128, Note_on_c, 0, 57, 92
2, 100128, Note_on_c, 0, 78, 92
2, 100222, Note_on_c, 0, 78, 0
2, 100224, Note_on_c, 0, 59, 92
2, 100224, Note_on_c, 0, 80, 92
2, 100318, Note_on_c, 0, 80, 0
2, 100318, Note_on_c, 0, 59, 0
2, 100320, Note_on_c, 0, 60, 92
2, 100320, Note_on_c, 0, 69, 92
2, 100408, Note_on_c, 0, 57, 0
2, 100414, Note_on_c, 0, 69, 0
2, 100414, Note_on_c, 0, 60, 0
2, 100416, Note_on_c, 0, 59, 92
2, 100416, Note_on_c, 0, 79, 92
2, 100510, Note_on_c, 0, 79, 0
2, 100510, Note_on_c, 0, 59, 0
2, 100512, Note_on_c, 0, 57, 92
2, 100512, Note_on_c, 0, 60, 92
2, 100512, Note_on_c, 0, 77, 92
2, 100606, Note_on_c, 0, 77, 0
2, 100606, Note_on_c, 0, 57, 0
2, 100608, Note_on_c, 0, 55, 92
2, 100608, Note_on_c, 0, 76, 92
2, 100702, Note_on_c, 0, 76, 0
2, 100702, Note_on_c, 0, 55, 0
2, 100702, Note_on_c, 0, 60, 0
2, 100704, Note_on_c, 0, 54, 92
2, 100704, Note_on_c, 0, 60, 92
2, 100704, Note_on_c, 0, 74, 92
2, 100798, Note_on_c, 0, 74, 0
2, 100800, Note_on_c, 0, 78, 92
2, 100894, Note_on_c, 0, 78, 0
2, 100894, Note_on_c, 0, 60, 0
2, 100896, Note_on_c, 0, 59, 92
2, 100896, Note_on_c, 0, 80, 92
2, 100990, Note_on_c, 0, 80, 0
2, 100990, Note_on_c, 0, 59, 0
2, 100992, Note_on_c, 0, 60, 92
2, 100992, Note_on_c, 0, 81, 92
2, 101084, Note_on_c, 0, 54, 0
2, 101086, Note_on_c, 0, 81, 0
2, 101086, Note_on_c, 0, 60, 0
2, 101088, Note_on_c, 0, 62, 92
2, 101088, Note_on_c, 0, 71, 92
2, 101182, Note_on_c, 0, 71, 0
2, 101184, Note_on_c, 0, 72, 92
2, 101278, Note_on_c, 0, 72, 0
2, 101278, Note_on_c, 0, 62, 0
2, 101280, Note_on_c, 0, 47, 92
2, 101280, Note_on_c, 0, 53, 92
2, 101280, Note_on_c, 0, 74, 92
2, 101376, Note_on_c, 0, 69, 92
2, 101470, Note_on_c, 0, 69, 0
2, 101470, Note_on_c, 0, 47, 0
2, 101470, Note_on_c, 0, 53, 0
2, 101472, Note_on_c, 0, 48, 92
2, 101472, Note_on_c, 0, 52, 92
2, 101472, Note_on_c, 0, 68, 92
2, 101560, Note_on_c, 0, 74, 0
2, 101566, Note_on_c, 0, 68, 0
2, 101568, Note_on_c, 0, 77, 92
2, 101662, Note_on_c, 0, 77, 0
2, 101662, Note_on_c, 0, 52, 0
2, 101664, Note_on_c, 0, 56, 92
2, 101664, Note_on_c, 0, 76, 92
2, 101758, Note_on_c, 0, 76, 0
2, 101760, Note_on_c, 0, 74, 92
2, 101854, Note_on_c, 0, 74, 0
2, 101854, Note_on_c, 0, 56, 0
2, 101856, Note_on_c, 0, 57, 92
2, 101856, Note_on_c, 0, 72, 92
2, 101950, Note_on_c, 0, 72, 0
2, 101952, Note_on_c, 0, 48, 0
2, 101952, Note_on_c, 0, 71, 92
2, 102046, Note_on_c, 0, 71, 0
2, 102046, Note_on_c, 0, 57, 0
2, 102048, Note_on_c, 0, 53, 92
2, 102048, Note_on_c, 0, 60, 92
2, 102048, Note_on_c, 0, 69, 92
2, 102142, Note_on_c, 0, 53, 0
2, 102144, Note_on_c, 0, 52, 92
2, 102238, Note_on_c, 0, 52, 0
2, 102238, Note_on_c, 0, 60, 0
2, 102240, Note_on_c, 0, 50, 92
2, 102240, Note_on_c, 0, 53, 92
2, 102334, Note_on_c, 0, 69, 0
2, 102336, Note_on_c, 0, 68, 92
2, 102430, Note_on_c, 0, 68, 0
2, 102430, Note_on_c, 0, 53, 0
2, 102430, Note_on_c, 0, 50, 0
2, 102432, Note_on_c, 0, 50, 92
2, 102432, Note_on_c, 0, 59, 92
2, 102432, Note_on_c, 0, 69, 92
2, 102526, Note_on_c, 0, 69, 0
2, 102528, Note_on_c, 0, 71, 92
2, 102622, Note_on_c, 0, 71, 0
2, 102622, Note_on_c, 0, 59, 0
2, 102622, Note_on_c, 0, 50, 0
2, 102624, Note_on_c, 0, 52, 92
2, 102624, Note_on_c, 0, 62, 92
2, 102718, Note_on_c, 0, 62, 0
2, 102720, Note_on_c, 0, 65, 92
2, 102814, Note_on_c, 0, 65, 0
2, 102816, Note_on_c, 0, 56, 92
2, 102816, Note_on_c, 0, 64, 92
2, 102910, Note_on_c, 0, 64, 0
2, 102912, Note_on_c, 0, 62, 92
2, 103004, Note_on_c, 0, 52, 0
2, 103006, Note_on_c, 0, 62, 0
2, 103006, Note_on_c, 0, 56, 0
2, 103008, Note_on_c, 0, 45, 92
2, 103008, Note_on_c, 0, 57, 92
2, 103008, Note_on_c, 0, 60, 92
2, 103102, Note_on_c, 0, 60, 0
2, 103104, Note_on_c, 0, 64, 92
2, 103198, Note_on_c, 0, 64, 0
2, 103198, Note_on_c, 0, 57, 0
2, 103200, Note_on_c, 0, 57, 92
2, 103200, Note_on_c, 0, 65, 92
2, 103200, Note_on_c, 0, 69, 92
2, 103294, Note_on_c, 0, 69, 0
2, 103296, Note_on_c, 0, 72, 92
2, 103388, Note_on_c, 0, 45, 0
2, 103390, Note_on_c, 0, 72, 0
2, 103390, Note_on_c, 0, 65, 0
2, 103392, Note_on_c, 0, 65, 92
2, 103392, Note_on_c, 0, 71, 92
2, 103440, Note_on_c, 0, 57, 0
2, 103486, Note_on_c, 0, 71, 0
2, 103488, Note_on_c, 0, 69, 92
2, 103582, Note_on_c, 0, 69, 0
2, 103582, Note_on_c, 0, 65, 0
2, 103584, Note_on_c, 0, 55, 92
2, 103584, Note_on_c, 0, 64, 92
2, 103584, Note_on_c, 0, 71, 92
2, 103678, Note_on_c, 0, 71, 0
2, 103680, Note_on_c, 0, 76, 92
2, 103774, Note_on_c, 0, 76, 0
2, 103774, Note_on_c, 0, 55, 0
2, 103776, Note_on_c, 0, 55, 92
2, 103776, Note_on_c, 0, 69, 92
2, 103824, Note_on_c, 0, 64, 0
2, 103870, Note_on_c, 0, 69, 0
2, 103872, Note_on_c, 0, 72, 92
2, 103966, Note_on_c, 0, 72, 0
2, 103966, Note_on_c, 0, 55, 0
2, 103968, Note_on_c, 0, 53, 92
2, 103968, Note_on_c, 0, 62, 92
2, 103968, Note_on_c, 0, 71, 92
2, 104062, Note_on_c, 0, 71, 0
2, 104064, Note_on_c, 0, 69, 92
2, 104158, Note_on_c, 0, 69, 0
2, 104158, Note_on_c, 0, 62, 0
2, 104160, Note_on_c, 0, 62, 92
2, 104160, Note_on_c, 0, 67, 92
2, 104208, Note_on_c, 0, 53, 0
2, 104254, Note_on_c, 0, 67, 0
2, 104256, Note_on_c, 0, 65, 92
2, 104350, Note_on_c, 0, 65, 0
2, 104350, Note_on_c, 0, 62, 0
2, 104352, Note_on_c, 0, 52, 92
2, 104352, Note_on_c, 0, 60, 92
2, 104352, Note_on_c, 0, 67, 92
2, 104446, Note_on_c, 0, 67, 0
2, 104448, Note_on_c, 0, 72, 92
2, 104542, Note_on_c, 0, 72, 0
2, 104542, Note_on_c, 0, 52, 0
2, 104544, Note_on_c, 0, 52, 92
2, 104544, Note_on_c, 0, 65, 92
2, 104592, Note_on_c, 0, 60, 0
2, 104638, Note_on_c, 0, 65, 0
2, 104640, Note_on_c, 0, 69, 92
2, 104734, Note_on_c, 0, 69, 0
2, 104734, Note_on_c, 0, 52, 0
2, 104736, Note_on_c, 0, 50, 92
2, 104736, Note_on_c, 0, 59, 92
2, 104736, Note_on_c, 0, 67, 92
2, 104830, Note_on_c, 0, 67, 0
2, 104832, Note_on_c, 0, 65, 92
2, 104926, Note_on_c, 0, 65, 0
2, 104926, Note_on_c, 0, 59, 0
2, 104928, Note_on_c, 0, 59, 92
2, 104928, Note_on_c, 0, 64, 92
2, 104976, Note_on_c, 0, 50, 0
2, 105022, Note_on_c, 0, 64, 0
2, 105024, Note_on_c, 0, 62, 92
2, 105118, Note_on_c, 0, 62, 0
2, 105118, Note_on_c, 0, 59, 0
2, 105120, Note_on_c, 0, 48, 92
2, 105120, Note_on_c, 0, 57, 92
2, 105120, Note_on_c, 0, 64, 92
2, 105214, Note_on_c, 0, 64, 0
2, 105216, Note_on_c, 0, 69, 92
2, 105310, Note_on_c, 0, 69, 0
2, 105310, Note_on_c, 0, 48, 0
2, 105312, Note_on_c, 0, 48, 92
2, 105312, Note_on_c, 0, 62, 92
2, 105360, Note_on_c, 0, 57, 0
2, 105406, Note_on_c, 0, 62, 0
2, 105408, Note_on_c, 0, 65, 92
2, 105502, Note_on_c, 0, 65, 0
2, 105502, Note_on_c, 0, 48, 0
2, 105504, Note_on_c, 0, 47, 92
2, 105504, Note_on_c, 0, 55, 92
2, 105504, Note_on_c, 0, 64, 92
2, 105598, Note_on_c, 0, 64, 0
2, 105600, Note_on_c, 0, 62, 92
2, 105694, Note_on_c, 0, 62, 0
2, 105694, Note_on_c, 0, 47, 0
2, 105696, Note_on_c, 0, 45, 92
2, 105696, Note_on_c, 0, 60, 92
2, 105790, Note_on_c, 0, 55, 0
2, 105792, Note_on_c, 0, 52, 92
2, 105886, Note_on_c, 0, 52, 0
2, 105886, Note_on_c, 0, 60, 0
2, 105888, Note_on_c, 0, 53, 92
2, 105888, Note_on_c, 0, 72, 92
2, 105982, Note_on_c, 0, 53, 0
2, 105984, Note_on_c, 0, 50, 92
2, 106078, Note_on_c, 0, 50, 0
2, 106078, Note_on_c, 0, 72, 0
2, 106078, Note_on_c, 0, 45, 0
2, 106080, Note_on_c, 0, 43, 92
2, 106080, Note_on_c, 0, 52, 92
2, 106080, Note_on_c, 0, 74, 92
2, 106126, Note_on_c, 0, 74, 0
2, 106128, Note_on_c, 0, 72, 92
2, 106174, Note_on_c, 0, 72, 0
2, 106174, Note_on_c, 0, 52, 0
2, 106176, Note_on_c, 0, 48, 92
2, 106176, Note_on_c, 0, 74, 92
2, 106222, Note_on_c, 0, 74, 0
2, 106224, Note_on_c, 0, 72, 92
2, 106270, Note_on_c, 0, 72, 0
2, 106270, Note_on_c, 0, 48, 0
2, 106272, Note_on_c, 0, 50, 92
2, 106272, Note_on_c, 0, 71, 92
2, 106366, Note_on_c, 0, 50, 0
2, 106368, Note_on_c, 0, 47, 92
2, 106460, Note_on_c, 0, 43, 0
2, 106462, Note_on_c, 0, 47, 0
2, 106462, Note_on_c, 0, 71, 0
2, 106464, Note_on_c, 0, 43, 92
2, 106560, Note_on_c, 0, 47, 92
2, 106560, Note_on_c, 0, 71, 92
2, 106654, Note_on_c, 0, 71, 0
2, 106654, Note_on_c, 0, 47, 0
2, 106656, Note_on_c, 0, 50, 92
2, 106656, Note_on_c, 0, 72, 92
2, 106750, Note_on_c, 0, 72, 0
2, 106750, Note_on_c, 0, 50, 0
2, 106752, Note_on_c, 0, 53, 92
2, 106752, Note_on_c, 0, 74, 92
2, 106846, Note_on_c, 0, 74, 0
2, 106846, Note_on_c, 0, 53, 0
2, 106848, Note_on_c, 0, 52, 92
2, 106848, Note_on_c, 0, 76, 92
2, 106894, Note_on_c, 0, 76, 0
2, 106896, Note_on_c, 0, 74, 92
2, 106942, Note_on_c, 0, 74, 0
2, 106942, Note_on_c, 0, 52, 0
2, 106944, Note_on_c, 0, 50, 92
2, 106944, Note_on_c, 0, 76, 92
2, 106990, Note_on_c, 0, 76, 0
2, 106992, Note_on_c, 0, 74, 92
2, 107038, Note_on_c, 0, 74, 0
2, 107038, Note_on_c, 0, 50, 0
2, 107040, Note_on_c, 0, 52, 92
2, 107040, Note_on_c, 0, 72, 92
2, 107134, Note_on_c, 0, 52, 0
2, 107136, Note_on_c, 0, 48, 92
2, 107230, Note_on_c, 0, 48, 0
2, 107230, Note_on_c, 0, 72, 0
2, 107231, Note_on_c, 0, 43, 0
2, 107232, Note_on_c, 0, 43, 92
2, 107328, Note_on_c, 0, 48, 92
2, 107328, Note_on_c, 0, 72, 92
2, 107422, Note_on_c, 0, 72, 0
2, 107422, Note_on_c, 0, 48, 0
2, 107424, Note_on_c, 0, 52, 92
2, 107424, Note_on_c, 0, 74, 92
2, 107512, Note_on_c, 0, 43, 0
2, 107518, Note_on_c, 0, 74, 0
2, 107518, Note_on_c, 0, 52, 0
2, 107520, Note_on_c, 0, 55, 92
2, 107520, Note_on_c, 0, 76, 92
2, 107614, Note_on_c, 0, 76, 0
2, 107614, Note_on_c, 0, 55, 0
2, 107616, Note_on_c, 0, 53, 92
2, 107616, Note_on_c, 0, 77, 92
2, 107662, Note_on_c, 0, 77, 0
2, 107664, Note_on_c, 0, 76, 92
2, 107710, Note_on_c, 0, 76, 0
2, 107710, Note_on_c, 0, 53, 0
2, 107712, Note_on_c, 0, 52, 92
2, 107712, Note_on_c, 0, 77, 92
2, 107758, Note_on_c, 0, 77, 0
2, 107760, Note_on_c, 0, 76, 92
2, 107806, Note_on_c, 0, 76, 0
2, 107806, Note_on_c, 0, 52, 0
2, 107808, Note_on_c, 0, 53, 92
2, 107808, Note_on_c, 0, 74, 92
2, 107902, Note_on_c, 0, 74, 0
2, 107902, Note_on_c, 0, 53, 0
2, 107904, Note_on_c, 0, 55, 92
2, 107904, Note_on_c, 0, 76, 92
2, 107998, Note_on_c, 0, 76, 0
2, 107998, Note_on_c, 0, 55, 0
2, 108000, Note_on_c, 0, 57, 92
2, 108000, Note_on_c, 0, 77, 92
2, 108094, Note_on_c, 0, 57, 0
2, 108096, Note_on_c, 0, 59, 92
2, 108190, Note_on_c, 0, 59, 0
2, 108190, Note_on_c, 0, 77, 0
2, 108192, Note_on_c, 0, 60, 92
2, 108192, Note_on_c, 0, 69, 92
2, 108286, Note_on_c, 0, 60, 0
2, 108288, Note_on_c, 0, 62, 92
2, 108382, Note_on_c, 0, 69, 0
2, 108384, Note_on_c, 0, 64, 92
2, 108384, Note_on_c, 0, 67, 92
2, 108478, Note_on_c, 0, 62, 0
2, 108480, Note_on_c, 0, 62, 92
2, 108574, Note_on_c, 0, 62, 0
2, 108574, Note_on_c, 0, 67, 0
2, 108576, Note_on_c, 0, 60, 92
2, 108576, Note_on_c, 0, 69, 92
2, 108670, Note_on_c, 0, 69, 0
2, 108670, Note_on_c, 0, 60, 0
2, 108672, Note_on_c, 0, 59, 92
2, 108672, Note_on_c, 0, 71, 92
2, 108766, Note_on_c, 0, 71, 0
2, 108766, Note_on_c, 0, 59, 0
2, 108768, Note_on_c, 0, 57, 92
2, 108768, Note_on_c, 0, 72, 92
2, 108862, Note_on_c, 0, 57, 0
2, 108864, Note_on_c, 0, 55, 92
2, 108958, Note_on_c, 0, 55, 0
2, 108958, Note_on_c, 0, 72, 0
2, 108960, Note_on_c, 0, 53, 92
2, 108960, Note_on_c, 0, 76, 92
2, 109054, Note_on_c, 0, 53, 0
2, 109056, Note_on_c, 0, 52, 92
2, 109150, Note_on_c, 0, 52, 0
2, 109150, Note_on_c, 0, 76, 0
2, 109150, Note_on_c, 0, 64, 0
2, 109152, Note_on_c, 0, 50, 92
2, 109152, Note_on_c, 0, 64, 92
2, 109152, Note_on_c, 0, 65, 92
2, 109246, Note_on_c, 0, 50, 0
2, 109248, Note_on_c, 0, 48, 92
2, 109342, Note_on_c, 0, 48, 0
2, 109342, Note_on_c, 0, 65, 0
2, 109342, Note_on_c, 0, 64, 0
2, 109344, Note_on_c, 0, 47, 92
2, 109344, Note_on_c, 0, 62, 92
2, 109344, Note_on_c, 0, 74, 92
2, 109438, Note_on_c, 0, 47, 0
2, 109440, Note_on_c, 0, 45, 92
2, 109534, Note_on_c, 0, 45, 0
2, 109534, Note_on_c, 0, 74, 0
2, 109536, Note_on_c, 0, 43, 92
2, 109536, Note_on_c, 0, 67, 92
2, 109630, Note_on_c, 0, 43, 0
2, 109632, Note_on_c, 0, 41, 92
2, 109726, Note_on_c, 0, 41, 0
2, 109726, Note_on_c, 0, 67, 0
2, 109726, Note_on_c, 0, 62, 0
2, 109728, Note_on_c, 0, 40, 92
2, 109728, Note_on_c, 0, 65, 92
2, 109728, Note_on_c, 0, 71, 92
2, 109822, Note_on_c, 0, 40, 0
2, 109824, Note_on_c, 0, 38, 92
2, 109918, Note_on_c, 0, 38, 0
2, 109918, Note_on_c, 0, 71, 0
2, 109920, Note_on_c, 0, 36, 92
2, 109920, Note_on_c, 0, 72, 92
2, 110014, Note_on_c, 0, 65, 0
2, 110016, Note_on_c, 0, 65, 92
2, 110110, Note_on_c, 0, 65, 0
2, 110112, Note_on_c, 0, 64, 92
2, 110206, Note_on_c, 0, 64, 0
2, 110208, Note_on_c, 0, 62, 92
2, 110300, Note_on_c, 0, 72, 0
2, 110302, Note_on_c, 0, 62, 0
2, 110304, Note_on_c, 0, 64, 92
2, 110400, Note_on_c, 0, 70, 92
2, 110494, Note_on_c, 0, 70, 0
2, 110494, Note_on_c, 0, 64, 0
2, 110495, Note_on_c, 0, 36, 0
2, 110496, Note_on_c, 0, 60, 92
2, 110496, Note_on_c, 0, 69, 92
2, 110590, Note_on_c, 0, 69, 0
2, 110592, Note_on_c, 0, 67, 92
2, 110686, Note_on_c, 0, 67, 0
2, 110686, Note_on_c, 0, 60, 0
2, 110688, Note_on_c, 0, 65, 92
2, 110688, Note_on_c, 0, 69, 92
2, 110782, Note_on_c, 0, 69, 0
2, 110784, Note_on_c, 0, 71, 92
2, 110878, Note_on_c, 0, 71, 0
2, 110878, Note_on_c, 0, 65, 0
2, 110880, Note_on_c, 0, 60, 92
2, 110880, Note_on_c, 0, 72, 92
2, 110974, Note_on_c, 0, 72, 0
2, 110976, Note_on_c, 0, 74, 92
2, 111070, Note_on_c, 0, 74, 0
2, 111070, Note_on_c, 0, 60, 0
2, 111072, Note_on_c, 0, 57, 92
2, 111072, Note_on_c, 0, 72, 92
2, 111166, Note_on_c, 0, 72, 0
2, 111168, Note_on_c, 0, 71, 92
2, 111262, Note_on_c, 0, 71, 0
2, 111262, Note_on_c, 0, 57, 0
2, 111264, Note_on_c, 0, 65, 92
2, 111264, Note_on_c, 0, 72, 92
2, 111358, Note_on_c, 0, 72, 0
2, 111360, Note_on_c, 0, 69, 92
2, 111454, Note_on_c, 0, 69, 0
2, 111454, Note_on_c, 0, 65, 0
2, 111456, Note_on_c, 0, 64, 92
2, 111456, Note_on_c, 0, 67, 92
2, 111550, Note_on_c, 0, 67, 0
2, 111552, Note_on_c, 0, 71, 92
2, 111646, Note_on_c, 0, 71, 0
2, 111646, Note_on_c, 0, 64, 0
2, 111648, Note_on_c, 0, 60, 92
2, 111648, Note_on_c, 0, 72, 92
2, 111742, Note_on_c, 0, 72, 0
2, 111744, Note_on_c, 0, 74, 92
2, 111838, Note_on_c, 0, 74, 0
2, 111838, Note_on_c, 0, 60, 0
2, 111840, Note_on_c, 0, 55, 92
2, 111840, Note_on_c, 0, 72, 92
2, 111934, Note_on_c, 0, 72, 0
2, 111936, Note_on_c, 0, 71, 92
2, 112030, Note_on_c, 0, 71, 0
2, 112030, Note_on_c, 0, 55, 0
2, 112032, Note_on_c, 0, 64, 92
2, 112032, Note_on_c, 0, 72, 92
2, 112126, Note_on_c, 0, 72, 0
2, 112128, Note_on_c, 0, 67, 92
2, 112222, Note_on_c, 0, 67, 0
2, 112222, Note_on_c, 0, 64, 0
2, 112224, Note_on_c, 0, 62, 92
2, 112224, Note_on_c, 0, 65, 92
2, 112318, Note_on_c, 0, 65, 0
2, 112320, Note_on_c, 0, 72, 92
2, 112414, Note_on_c, 0, 72, 0
2, 112414, Note_on_c, 0, 62, 0
2, 112416, Note_on_c, 0, 59, 92
2, 112416, Note_on_c, 0, 74, 92
2, 112510, Note_on_c, 0, 74, 0
2, 112512, Note_on_c, 0, 76, 92
2, 112606, Note_on_c, 0, 76, 0
2, 112606, Note_on_c, 0, 59, 0
2, 112608, Note_on_c, 0, 55, 92
2, 112608, Note_on_c, 0, 74, 92
2, 112702, Note_on_c, 0, 74, 0
2, 112704, Note_on_c, 0, 72, 92
2, 112798, Note_on_c, 0, 72, 0
2, 112798, Note_on_c, 0, 55, 0
2, 112800, Note_on_c, 0, 59, 92
2, 112800, Note_on_c, 0, 74, 92
2, 112894, Note_on_c, 0, 74, 0
2, 112896, Note_on_c, 0, 65, 92
2, 112990, Note_on_c, 0, 65, 0
2, 112990, Note_on_c, 0, 59, 0
2, 112992, Note_on_c, 0, 60, 92
2, 112992, Note_on_c, 0, 64, 92
2, 113086, Note_on_c, 0, 64, 0
2, 113088, Note_on_c, 0, 62, 92
2, 113182, Note_on_c, 0, 62, 0
2, 113182, Note_on_c, 0, 60, 0
2, 113184, Note_on_c, 0, 55, 92
2, 113184, Note_on_c, 0, 64, 92
2, 113278, Note_on_c, 0, 64, 0
2, 113280, Note_on_c, 0, 67, 92
2, 113374, Note_on_c, 0, 67, 0
2, 113374, Note_on_c, 0, 55, 0
2, 113376, Note_on_c, 0, 52, 92
2, 113376, Note_on_c, 0, 72, 92
2, 113470, Note_on_c, 0, 72, 0
2, 113472, Note_on_c, 0, 71, 92
2, 113566, Note_on_c, 0, 71, 0
2, 113566, Note_on_c, 0, 52, 0
2, 113568, Note_on_c, 0, 48, 92
2, 113568, Note_on_c, 0, 72, 92
2, 113662, Note_on_c, 0, 72, 0
2, 113664, Note_on_c, 0, 76, 92
2, 113758, Note_on_c, 0, 76, 0
2, 113758, Note_on_c, 0, 48, 0
2, 113760, Note_on_c, 0, 53, 92
2, 113760, Note_on_c, 0, 81, 92
2, 113854, Note_on_c, 0, 53, 0
2, 113856, Note_on_c, 0, 52, 92
2, 113950, Note_on_c, 0, 52, 0
2, 113950, Note_on_c, 0, 81, 0
2, 113952, Note_on_c, 0, 53, 92
2, 113952, Note_on_c, 0, 74, 92
2, 114046, Note_on_c, 0, 53, 0
2, 114048, Note_on_c, 0, 57, 92
2, 114142, Note_on_c, 0, 57, 0
2, 114144, Note_on_c, 0, 62, 92
2, 114192, Note_on_c, 0, 74, 0
2, 114240, Note_on_c, 0, 69, 92
2, 114334, Note_on_c, 0, 69, 0
2, 114334, Note_on_c, 0, 62, 0
2, 114336, Note_on_c, 0, 53, 92
2, 114336, Note_on_c, 0, 71, 92
2, 114430, Note_on_c, 0, 71, 0
2, 114432, Note_on_c, 0, 74, 92
2, 114526, Note_on_c, 0, 74, 0
2, 114528, Note_on_c, 0, 79, 92
2, 114576, Note_on_c, 0, 53, 0
2, 114624, Note_on_c, 0, 50, 92
2, 114718, Note_on_c, 0, 50, 0
2, 114718, Note_on_c, 0, 79, 0
2, 114720, Note_on_c, 0, 52, 92
2, 114720, Note_on_c, 0, 72, 92
2, 114814, Note_on_c, 0, 52, 0
2, 114816, Note_on_c, 0, 55, 92
2, 114910, Note_on_c, 0, 55, 0
2, 114912, Note_on_c, 0, 60, 92
2, 114960, Note_on_c, 0, 72, 0
2, 115008, Note_on_c, 0, 67, 92
2, 115102, Note_on_c, 0, 67, 0
2, 115102, Note_on_c, 0, 60, 0
2, 115104, Note_on_c, 0, 52, 92
2, 115104, Note_on_c, 0, 69, 92
2, 115198, Note_on_c, 0, 69, 0
2, 115200, Note_on_c, 0, 72, 92
2, 115294, Note_on_c, 0, 72, 0
2, 115296, Note_on_c, 0, 77, 92
2, 115344, Note_on_c, 0, 52, 0
2, 115390, Note_on_c, 0, 77, 0
2, 115392, Note_on_c, 0, 48, 92
2, 115392, Note_on_c, 0, 76, 92
2, 115486, Note_on_c, 0, 76, 0
2, 115486, Note_on_c, 0, 48, 0
2, 115488, Note_on_c, 0, 50, 92
2, 115488, Note_on_c, 0, 74, 92
2, 115582, Note_on_c, 0, 74, 0
2, 115582, Note_on_c, 0, 50, 0
2, 115584, Note_on_c, 0, 53, 92
2, 115584, Note_on_c, 0, 72, 92
2, 115678, Note_on_c, 0, 72, 0
2, 115678, Note_on_c, 0, 53, 0
2, 115680, Note_on_c, 0, 55, 92
2, 115680, Note_on_c, 0, 71, 92
2, 115774, Note_on_c, 0, 71, 0
2, 115774, Note_on_c, 0, 55, 0
2, 115776, Note_on_c, 0, 53, 92
2, 115776, Note_on_c, 0, 74, 92
2, 115870, Note_on_c, 0, 74, 0
2, 115870, Note_on_c, 0, 53, 0
2, 115872, Note_on_c, 0, 55, 92
2, 115872, Note_on_c, 0, 71, 92
2, 115966, Note_on_c, 0, 71, 0
2, 115966, Note_on_c, 0, 55, 0
2, 115968, Note_on_c, 0, 59, 92
2, 115968, Note_on_c, 0, 67, 92
2, 116062, Note_on_c, 0, 67, 0
2, 116062, Note_on_c, 0, 59, 0
2, 116064, Note_on_c, 0, 60, 92
2, 116064, Note_on_c, 0, 64, 92
2, 116158, Note_on_c, 0, 64, 0
2, 116160, Note_on_c, 0, 65, 92
2, 116254, Note_on_c, 0, 65, 0
2, 116256, Note_on_c, 0, 48, 92
2, 116256, Note_on_c, 0, 67, 92
2, 116350, Note_on_c, 0, 67, 0
2, 116352, Note_on_c, 0, 64, 92
2, 116444, Note_on_c, 0, 60, 0
2, 116446, Note_on_c, 0, 64, 0
2, 116448, Note_on_c, 0, 60, 92
2, 116542, Note_on_c, 0, 48, 0
2, 116544, Note_on_c, 0, 64, 92
2, 116638, Note_on_c, 0, 64, 0
2, 116638, Note_on_c, 0, 60, 0
2, 116640, Note_on_c, 0, 60, 92
2, 116640, Note_on_c, 0, 76, 92
2, 116734, Note_on_c, 0, 60, 0
2, 116736, Note_on_c, 0, 57, 92
2, 116830, Note_on_c, 0, 57, 0
2, 116830, Note_on_c, 0, 76, 0
2, 116832, Note_on_c, 0, 53, 92
2, 116832, Note_on_c, 0, 74, 92
2, 116926, Note_on_c, 0, 53, 0
2, 116928, Note_on_c, 0, 56, 92
2, 117022, Note_on_c, 0, 56, 0
2, 117024, Note_on_c, 0, 57, 92
2, 117024, Note_on_c, 0, 69, 92
2, 117118, Note_on_c, 0, 57, 0
2, 117120, Note_on_c, 0, 59, 92
2, 117212, Note_on_c, 0, 74, 0
2, 117214, Note_on_c, 0, 59, 0
2, 117214, Note_on_c, 0, 69, 0
2, 117216, Note_on_c, 0, 57, 92
2, 117216, Note_on_c, 0, 65, 92
2, 117310, Note_on_c, 0, 57, 0
2, 117312, Note_on_c, 0, 56, 92
2, 117406, Note_on_c, 0, 56, 0
2, 117406, Note_on_c, 0, 65, 0
2, 117408, Note_on_c, 0, 57, 92
2, 117408, Note_on_c, 0, 74, 92
2, 117502, Note_on_c, 0, 57, 0
2, 117504, Note_on_c, 0, 53, 92
2, 117598, Note_on_c, 0, 53, 0
2, 117598, Note_on_c, 0, 74, 0
2, 117600, Note_on_c, 0, 52, 92
2, 117600, Note_on_c, 0, 72, 92
2, 117694, Note_on_c, 0, 52, 0
2, 117696, Note_on_c, 0, 56, 92
2, 117790, Note_on_c, 0, 56, 0
2, 117792, Note_on_c, 0, 57, 92
2, 117792, Note_on_c, 0, 69, 92
2, 117886, Note_on_c, 0, 57, 0
2, 117888, Note_on_c, 0, 59, 92
2, 117980, Note_on_c, 0, 72, 0
2, 117982, Note_on_c, 0, 59, 0
2, 117982, Note_on_c, 0, 69, 0
2, 117984, Note_on_c, 0, 57, 92
2, 117984, Note_on_c, 0, 64, 92
2, 118078, Note_on_c, 0, 57, 0
2, 118080, Note_on_c, 0, 56, 92
2, 118174, Note_on_c, 0, 56, 0
2, 118174, Note_on_c, 0, 64, 0
2, 118176, Note_on_c, 0, 57, 92
2, 118176, Note_on_c, 0, 72, 92
2, 118270, Note_on_c, 0, 57, 0
2, 118272, Note_on_c, 0, 52, 92
2, 118366, Note_on_c, 0, 52, 0
2, 118366, Note_on_c, 0, 72, 0
2, 118368, Note_on_c, 0, 50, 92
2, 118368, Note_on_c, 0, 71, 92
2, 118462, Note_on_c, 0, 50, 0
2, 118464, Note_on_c, 0, 57, 92
2, 118558, Note_on_c, 0, 57, 0
2, 118560, Note_on_c, 0, 59, 92
2, 118560, Note_on_c, 0, 68, 92
2, 118654, Note_on_c, 0, 59, 0
2, 118656, Note_on_c, 0, 60, 92
2, 118748, Note_on_c, 0, 71, 0
2, 118750, Note_on_c, 0, 60, 0
2, 118750, Note_on_c, 0, 68, 0
2, 118752, Note_on_c, 0, 59, 92
2, 118752, Note_on_c, 0, 62, 92
2, 118846, Note_on_c, 0, 59, 0
2, 118848, Note_on_c, 0, 57, 92
2, 118942, Note_on_c, 0, 57, 0
2, 118942, Note_on_c, 0, 62, 0
2, 118944, Note_on_c, 0, 59, 92
2, 118944, Note_on_c, 0, 68, 92
2, 119038, Note_on_c, 0, 59, 0
2, 119040, Note_on_c, 0, 50, 92
2, 119134, Note_on_c, 0, 50, 0
2, 119134, Note_on_c, 0, 68, 0
2, 119136, Note_on_c, 0, 48, 92
2, 119136, Note_on_c, 0, 69, 92
2, 119230, Note_on_c, 0, 48, 0
2, 119232, Note_on_c, 0, 47, 92
2, 119326, Note_on_c, 0, 47, 0
2, 119328, Note_on_c, 0, 48, 92
2, 119328, Note_on_c, 0, 64, 92
2, 119416, Note_on_c, 0, 69, 0
2, 119422, Note_on_c, 0, 48, 0
2, 119424, Note_on_c, 0, 52, 92
2, 119518, Note_on_c, 0, 52, 0
2, 119518, Note_on_c, 0, 64, 0
2, 119520, Note_on_c, 0, 57, 92
2, 119520, Note_on_c, 0, 60, 92
2, 119614, Note_on_c, 0, 57, 0
2, 119616, Note_on_c, 0, 52, 92
2, 119680, Note_on_c, 0, 60, 0
2, 119710, Note_on_c, 0, 52, 0
2, 119712, Note_on_c, 0, 60, 92
2, 119712, Note_on_c, 0, 69, 92
2, 119806, Note_on_c, 0, 60, 0
2, 119808, Note_on_c, 0, 57, 92
2, 119902, Note_on_c, 0, 57, 0
2, 119902, Note_on_c, 0, 69, 0
2, 119904, Note_on_c, 0, 64, 92
2, 119904, Note_on_c, 0, 71, 92
2, 119950, Note_on_c, 0, 71, 0
2, 119952, Note_on_c, 0, 69, 92
2, 119998, Note_on_c, 0, 69, 0
2, 119998, Note_on_c, 0, 64, 0
2, 120000, Note_on_c, 0, 59, 92
2, 120000, Note_on_c, 0, 71, 92
2, 120046, Note_on_c, 0, 71, 0
2, 120048, Note_on_c, 0, 69, 92
2, 120094, Note_on_c, 0, 69, 0
2, 120094, Note_on_c, 0, 59, 0
2, 120096, Note_on_c, 0, 60, 92
2, 120096, Note_on_c, 0, 68, 92
2, 120190, Note_on_c, 0, 60, 0
2, 120192, Note_on_c, 0, 62, 92
2, 120286, Note_on_c, 0, 62, 0
2, 120288, Note_on_c, 0, 56, 92
2, 120376, Note_on_c, 0, 68, 0
2, 120382, Note_on_c, 0, 56, 0
2, 120384, Note_on_c, 0, 65, 92
2, 120478, Note_on_c, 0, 65, 0
2, 120480, Note_on_c, 0, 64, 92
2, 120480, Note_on_c, 0, 71, 92
2, 120574, Note_on_c, 0, 64, 0
2, 120576, Note_on_c, 0, 62, 92
2, 120670, Note_on_c, 0, 62, 0
2, 120670, Note_on_c, 0, 71, 0
2, 120672, Note_on_c, 0, 60, 92
2, 120672, Note_on_c, 0, 72, 92
2, 120718, Note_on_c, 0, 72, 0
2, 120720, Note_on_c, 0, 71, 92
2, 120766, Note_on_c, 0, 71, 0
2, 120766, Note_on_c, 0, 60, 0
2, 120768, Note_on_c, 0, 64, 92
2, 120768, Note_on_c, 0, 72, 92
2, 120814, Note_on_c, 0, 72, 0
2, 120816, Note_on_c, 0, 71, 92
2, 120862, Note_on_c, 0, 71, 0
2, 120862, Note_on_c, 0, 64, 0
2, 120864, Note_on_c, 0, 66, 92
2, 120864, Note_on_c, 0, 69, 92
2, 120958, Note_on_c, 0, 66, 0
2, 120960, Note_on_c, 0, 68, 92
2, 121054, Note_on_c, 0, 68, 0
2, 121056, Note_on_c, 0, 57, 92
2, 121144, Note_on_c, 0, 69, 0
2, 121150, Note_on_c, 0, 57, 0
2, 121152, Note_on_c, 0, 59, 92
2, 121246, Note_on_c, 0, 59, 0
2, 121248, Note_on_c, 0, 57, 92
2, 121248, Note_on_c, 0, 64, 92
2, 121248, Note_on_c, 0, 72, 92
2, 121342, Note_on_c, 0, 57, 0
2, 121344, Note_on_c, 0, 55, 92
2, 121438, Note_on_c, 0, 55, 0
2, 121438, Note_on_c, 0, 72, 0
2, 121438, Note_on_c, 0, 64, 0
2, 121440, Note_on_c, 0, 53, 92
2, 121440, Note_on_c, 0, 64, 92
2, 121440, Note_on_c, 0, 72, 92
2, 121534, Note_on_c, 0, 53, 0
2, 121536, Note_on_c, 0, 57, 92
2, 121630, Note_on_c, 0, 57, 0
2, 121630, Note_on_c, 0, 72, 0
2, 121630, Note_on_c, 0, 64, 0
2, 121632, Note_on_c, 0, 59, 92
2, 121632, Note_on_c, 0, 63, 92
2, 121632, Note_on_c, 0, 71, 92
2, 121726, Note_on_c, 0, 59, 0
2, 121728, Note_on_c, 0, 60, 92
2, 121822, Note_on_c, 0, 60, 0
2, 121824, Note_on_c, 0, 51, 92
2, 121912, Note_on_c, 0, 71, 0
2, 121912, Note_on_c, 0, 63, 0
2, 121918, Note_on_c, 0, 51, 0
2, 121920, Note_on_c, 0, 60, 92
2, 122014, Note_on_c, 0, 60, 0
2, 122016, Note_on_c, 0, 59, 92
2, 122016, Note_on_c, 0, 66, 92
2, 122016, Note_on_c, 0, 69, 92
2, 122110, Note_on_c, 0, 59, 0
2, 122112, Note_on_c, 0, 57, 92
2, 122206, Note_on_c, 0, 57, 0
2, 122206, Note_on_c, 0, 69, 0
2, 122206, Note_on_c, 0, 66, 0
2, 122208, Note_on_c, 0, 55, 92
2, 122208, Note_on_c, 0, 66, 92
2, 122208, Note_on_c, 0, 69, 92
2, 122302, Note_on_c, 0, 55, 0
2, 122304, Note_on_c, 0, 59, 92
2, 122398, Note_on_c, 0, 59, 0
2, 122398, Note_on_c, 0, 69, 0
2, 122398, Note_on_c, 0, 66, 0
2, 122400, Note_on_c, 0, 61, 92
2, 122400, Note_on_c, 0, 64, 92
2, 122400, Note_on_c, 0, 67, 92
2, 122494, Note_on_c, 0, 61, 0
2, 122496, Note_on_c, 0, 63, 92
2, 122590, Note_on_c, 0, 63, 0
2, 122592, Note_on_c, 0, 52, 92
2, 122680, Note_on_c, 0, 67, 0
2, 122680, Note_on_c, 0, 64, 0
2, 122686, Note_on_c, 0, 52, 0
2, 122688, Note_on_c, 0, 53, 92
2, 122782, Note_on_c, 0, 53, 0
2, 122784, Note_on_c, 0, 52, 92
2, 122784, Note_on_c, 0, 67, 92
2, 122784, Note_on_c, 0, 71, 92
2, 122878, Note_on_c, 0, 52, 0
2, 122880, Note_on_c, 0, 50, 92
2, 122974, Note_on_c, 0, 50, 0
2, 122974, Note_on_c, 0, 71, 0
2, 122974, Note_on_c, 0, 67, 0
2, 122976, Note_on_c, 0, 49, 92
2, 122976, Note_on_c, 0, 67, 92
2, 122976, Note_on_c, 0, 71, 92
2, 123070, Note_on_c, 0, 49, 0
2, 123072, Note_on_c, 0, 52, 92
2, 123166, Note_on_c, 0, 52, 0
2, 123166, Note_on_c, 0, 71, 0
2, 123166, Note_on_c, 0, 67, 0
2, 123168, Note_on_c, 0, 54, 92
2, 123168, Note_on_c, 0, 66, 92
2, 123168, Note_on_c, 0, 70, 92
2, 123262, Note_on_c, 0, 54, 0
2, 123264, Note_on_c, 0, 55, 92
2, 123358, Note_on_c, 0, 55, 0
2, 123360, Note_on_c, 0, 46, 92
2, 123448, Note_on_c, 0, 70, 0
2, 123448, Note_on_c, 0, 66, 0
2, 123454, Note_on_c, 0, 46, 0
2, 123456, Note_on_c, 0, 55, 92
2, 123550, Note_on_c, 0, 55, 0
2, 123552, Note_on_c, 0, 54, 92
2, 123552, Note_on_c, 0, 64, 92
2, 123552, Note_on_c, 0, 73, 92
2, 123646, Note_on_c, 0, 54, 0
2, 123648, Note_on_c, 0, 52, 92
2, 123742, Note_on_c, 0, 52, 0
2, 123742, Note_on_c, 0, 73, 0
2, 123742, Note_on_c, 0, 64, 0
2, 123744, Note_on_c, 0, 50, 92
2, 123744, Note_on_c, 0, 64, 92
2, 123744, Note_on_c, 0, 73, 92
2, 123838, Note_on_c, 0, 50, 0
2, 123840, Note_on_c, 0, 54, 92
2, 123934, Note_on_c, 0, 54, 0
2, 123934, Note_on_c, 0, 73, 0
2, 123934, Note_on_c, 0, 64, 0
2, 123936, Note_on_c, 0, 56, 92
2, 123936, Note_on_c, 0, 62, 92
2, 123936, Note_on_c, 0, 71, 92
2, 124030, Note_on_c, 0, 56, 0
2, 124032, Note_on_c, 0, 58, 92
2, 124126, Note_on_c, 0, 58, 0
2, 124128, Note_on_c, 0, 47, 92
2, 124216, Note_on_c, 0, 71, 0
2, 124216, Note_on_c, 0, 62, 0
2, 124222, Note_on_c, 0, 47, 0
2, 124224, Note_on_c, 0, 49, 92
2, 124318, Note_on_c, 0, 49, 0
2, 124320, Note_on_c, 0, 47, 92
2, 124320, Note_on_c, 0, 66, 92
2, 124320, Note_on_c, 0, 74, 92
2, 124414, Note_on_c, 0, 47, 0
2, 124416, Note_on_c, 0, 45, 92
2, 124510, Note_on_c, 0, 45, 0
2, 124510, Note_on_c, 0, 74, 0
2, 124510, Note_on_c, 0, 66, 0
2, 124512, Note_on_c, 0, 44, 92
2, 124512, Note_on_c, 0, 66, 92
2, 124512, Note_on_c, 0, 74, 92
2, 124606, Note_on_c, 0, 44, 0
2, 124608, Note_on_c, 0, 47, 92
2, 124702, Note_on_c, 0, 47, 0
2, 124702, Note_on_c, 0, 74, 0
2, 124702, Note_on_c, 0, 66, 0
2, 124704, Note_on_c, 0, 49, 92
2, 124704, Note_on_c, 0, 65, 92
2, 124704, Note_on_c, 0, 73, 92
2, 124798, Note_on_c, 0, 49, 0
2, 124800, Note_on_c, 0, 50, 92
2, 124894, Note_on_c, 0, 50, 0
2, 124896, Note_on_c, 0, 41, 92
2, 124984, Note_on_c, 0, 73, 0
2, 124984, Note_on_c, 0, 65, 0
2, 124990, Note_on_c, 0, 41, 0
2, 124992, Note_on_c, 0, 44, 92
2, 125086, Note_on_c, 0, 44, 0
2, 125088, Note_on_c, 0, 42, 92
2, 125088, Note_on_c, 0, 68, 92
2, 125088, Note_on_c, 0, 71, 92
2, 125182, Note_on_c, 0, 42, 0
2, 125184, Note_on_c, 0, 41, 92
2, 125278, Note_on_c, 0, 41, 0
2, 125278, Note_on_c, 0, 71, 0
2, 125278, Note_on_c, 0, 68, 0
2, 125280, Note_on_c, 0, 42, 92
2, 125280, Note_on_c, 0, 68, 92
2, 125280, Note_on_c, 0, 71, 92
2, 125374, Note_on_c, 0, 42, 0
2, 125376, Note_on_c, 0, 37, 92
2, 125470, Note_on_c, 0, 37, 0
2, 125470, Note_on_c, 0, 71, 0
2, 125470, Note_on_c, 0, 68, 0
2, 125472, Note_on_c, 0, 42, 92
2, 125472, Note_on_c, 0, 66, 92
2, 125472, Note_on_c, 0, 70, 92
2, 125566, Note_on_c, 0, 42, 0
2, 125568, Note_on_c, 0, 44, 92
2, 125662, Note_on_c, 0, 44, 0
2, 125662, Note_on_c, 0, 70, 0
2, 125662, Note_on_c, 0, 66, 0
2, 125664, Note_on_c, 0, 46, 92
2, 125758, Note_on_c, 0, 46, 0
2, 125760, Note_on_c, 0, 42, 92
2, 125760, Note_on_c, 0, 78, 92
2, 125854, Note_on_c, 0, 78, 0
2, 125854, Note_on_c, 0, 42, 0
2, 125856, Note_on_c, 0, 47, 92
2, 125856, Note_on_c, 0, 76, 92
2, 125950, Note_on_c, 0, 76, 0
2, 125952, Note_on_c, 0, 74, 92
2, 126046, Note_on_c, 0, 74, 0
2, 126046, Note_on_c, 0, 47, 0
2, 126048, Note_on_c, 0, 49, 92
2, 126048, Note_on_c, 0, 73, 92
2, 126094, Note_on_c, 0, 49, 0
2, 126096, Note_on_c, 0, 47, 92
2, 126142, Note_on_c, 0, 47, 0
2, 126142, Note_on_c, 0, 73, 0
2, 126144, Note_on_c, 0, 49, 92
2, 126144, Note_on_c, 0, 76, 92
2, 126190, Note_on_c, 0, 49, 0
2, 126192, Note_on_c, 0, 47, 92
2, 126238, Note_on_c, 0, 47, 0
2, 126238, Note_on_c, 0, 76, 0
2, 126240, Note_on_c, 0, 46, 92
2, 126240, Note_on_c, 0, 78, 92
2, 126334, Note_on_c, 0, 78, 0
2, 126336, Note_on_c, 0, 79, 92
2, 126430, Note_on_c, 0, 79, 0
2, 126432, Note_on_c, 0, 70, 92
2, 126520, Note_on_c, 0, 46, 0
2, 126526, Note_on_c, 0, 70, 0
2, 126528, Note_on_c, 0, 79, 92
2, 126622, Note_on_c, 0, 79, 0
2, 126624, Note_on_c, 0, 49, 92
2, 126624, Note_on_c, 0, 78, 92
2, 126718, Note_on_c, 0, 78, 0
2, 126720, Note_on_c, 0, 76, 92
2, 126814, Note_on_c, 0, 76, 0
2, 126814, Note_on_c, 0, 49, 0
2, 126816, Note_on_c, 0, 50, 92
2, 126816, Note_on_c, 0, 74, 92
2, 126862, Note_on_c, 0, 50, 0
2, 126864, Note_on_c, 0, 49, 92
2, 126910, Note_on_c, 0, 49, 0
2, 126910, Note_on_c, 0, 74, 0
2, 126912, Note_on_c, 0, 50, 92
2, 126912, Note_on_c, 0, 78, 92
2, 126958, Note_on_c, 0, 50, 0
2, 126960, Note_on_c, 0, 49, 92
2, 127006, Note_on_c, 0, 49, 0
2, 127006, Note_on_c, 0, 78, 0
2, 127008, Note_on_c, 0, 47, 92
2, 127008, Note_on_c, 0, 80, 92
2, 127102, Note_on_c, 0, 80, 0
2, 127104, Note_on_c, 0, 82, 92
2, 127198, Note_on_c, 0, 82, 0
2, 127200, Note_on_c, 0, 71, 92
2, 127288, Note_on_c, 0, 47, 0
2, 127294, Note_on_c, 0, 71, 0
2, 127296, Note_on_c, 0, 81, 92
2, 127390, Note_on_c, 0, 81, 0
2, 127392, Note_on_c, 0, 50, 92
2, 127392, Note_on_c, 0, 79, 92
2, 127486, Note_on_c, 0, 79, 0
2, 127488, Note_on_c, 0, 78, 92
2, 127582, Note_on_c, 0, 78, 0
2, 127582, Note_on_c, 0, 50, 0
2, 127584, Note_on_c, 0, 52, 92
2, 127584, Note_on_c, 0, 76, 92
2, 127630, Note_on_c, 0, 52, 0
2, 127632, Note_on_c, 0, 50, 92
2, 127678, Note_on_c, 0, 50, 0
2, 127678, Note_on_c, 0, 76, 0
2, 127680, Note_on_c, 0, 52, 92
2, 127680, Note_on_c, 0, 71, 92
2, 127726, Note_on_c, 0, 52, 0
2, 127728, Note_on_c, 0, 50, 92
2, 127774, Note_on_c, 0, 50, 0
2, 127774, Note_on_c, 0, 71, 0
2, 127776, Note_on_c, 0, 49, 92
2, 127776, Note_on_c, 0, 76, 92
2, 127870, Note_on_c, 0, 76, 0
2, 127870, Note_on_c, 0, 49, 0
2, 127872, Note_on_c, 0, 50, 92
2, 127872, Note_on_c, 0, 78, 92
2, 127966, Note_on_c, 0, 78, 0
2, 127966, Note_on_c, 0, 50, 0
2, 127968, Note_on_c, 0, 52, 92
2, 127968, Note_on_c, 0, 79, 92
2, 128064, Note_on_c, 0, 73, 92
2, 128158, Note_on_c, 0, 73, 0
2, 128158, Note_on_c, 0, 52, 0
2, 128160, Note_on_c, 0, 43, 92
2, 128160, Note_on_c, 0, 74, 92
2, 128254, Note_on_c, 0, 74, 0
2, 128256, Note_on_c, 0, 76, 92
2, 128350, Note_on_c, 0, 76, 0
2, 128350, Note_on_c, 0, 43, 0
2, 128352, Note_on_c, 0, 42, 92
2, 128352, Note_on_c, 0, 70, 92
2, 128446, Note_on_c, 0, 79, 0
2, 128448, Note_on_c, 0, 79, 92
2, 128542, Note_on_c, 0, 79, 0
2, 128542, Note_on_c, 0, 42, 0
2, 128544, Note_on_c, 0, 46, 92
2, 128544, Note_on_c, 0, 78, 92
2, 128638, Note_on_c, 0, 78, 0
2, 128640, Note_on_c, 0, 76, 92
2, 128732, Note_on_c, 0, 70, 0
2, 128734, Note_on_c, 0, 76, 0
2, 128734, Note_on_c, 0, 46, 0
2, 128736, Note_on_c, 0, 47, 92
2, 128736, Note_on_c, 0, 74, 92
2, 128832, Note_on_c, 0, 70, 92
2, 128926, Note_on_c, 0, 70, 0
2, 128926, Note_on_c, 0, 47, 0
2, 128928, Note_on_c, 0, 50, 92
2, 128928, Note_on_c, 0, 71, 92
2, 129022, Note_on_c, 0, 71, 0
2, 129024, Note_on_c, 0, 66, 92
2, 129118, Note_on_c, 0, 66, 0
2, 129118, Note_on_c, 0, 50, 0
2, 129120, Note_on_c, 0, 40, 92
2, 129120, Note_on_c, 0, 67, 92
2, 129214, Note_on_c, 0, 74, 0
2, 129216, Note_on_c, 0, 73, 92
2, 129310, Note_on_c, 0, 73, 0
2, 129310, Note_on_c, 0, 40, 0
2, 129312, Note_on_c, 0, 49, 92
2, 129312, Note_on_c, 0, 76, 92
2, 129406, Note_on_c, 0, 76, 0
2, 129408, Note_on_c, 0, 71, 92
2, 129500, Note_on_c, 0, 67, 0
2, 129502, Note_on_c, 0, 71, 0
2, 129502, Note_on_c, 0, 49, 0
2, 129504, Note_on_c, 0, 42, 92
2, 129504, Note_on_c, 0, 70, 92
2, 129600, Note_on_c, 0, 67, 92
2, 129694, Note_on_c, 0, 67, 0
2, 129694, Note_on_c, 0, 70, 0
2, 129694, Note_on_c, 0, 42, 0
2, 129696, Note_on_c, 0, 46, 92
2, 129696, Note_on_c, 0, 66, 92
2, 129790, Note_on_c, 0, 66, 0
2, 129792, Note_on_c, 0, 64, 92
2, 129886, Note_on_c, 0, 64, 0
2, 129886, Note_on_c, 0, 46, 0
2, 129888, Note_on_c, 0, 47, 92
2, 129888, Note_on_c, 0, 62, 92
2, 129982, Note_on_c, 0, 62, 0
2, 129984, Note_on_c, 0, 61, 92
2, 130078, Note_on_c, 0, 61, 0
2, 130078, Note_on_c, 0, 47, 0
2, 130080, Note_on_c, 0, 42, 92
2, 130080, Note_on_c, 0, 62, 92
2, 130174, Note_on_c, 0, 62, 0
2, 130176, Note_on_c, 0, 66, 92
2, 130270, Note_on_c, 0, 66, 0
2, 130270, Note_on_c, 0, 42, 0
2, 130272, Note_on_c, 0, 50, 92
2, 130272, Note_on_c, 0, 59, 92
2, 130368, Note_on_c, 0, 66, 92
2, 130462, Note_on_c, 0, 66, 0
2, 130462, Note_on_c, 0, 50, 0
2, 130464, Note_on_c, 0, 47, 92
2, 130464, Note_on_c, 0, 74, 92
2, 130558, Note_on_c, 0, 74, 0
2, 130560, Note_on_c, 0, 71, 92
2, 130654, Note_on_c, 0, 71, 0
2, 130654, Note_on_c, 0, 47, 0
2, 130656, Note_on_c, 0, 52, 92
2, 130656, Note_on_c, 0, 79, 92
2, 130750, Note_on_c, 0, 59, 0
2, 130752, Note_on_c, 0, 70, 92
2, 130846, Note_on_c, 0, 70, 0
2, 130846, Note_on_c, 0, 52, 0
2, 130848, Note_on_c, 0, 59, 92
2, 130848, Note_on_c, 0, 71, 92
2, 130942, Note_on_c, 0, 71, 0
2, 130944, Note_on_c, 0, 73, 92
2, 131038, Note_on_c, 0, 73, 0
2, 131038, Note_on_c, 0, 59, 0
2, 131040, Note_on_c, 0, 67, 92
2, 131040, Note_on_c, 0, 71, 92
2, 131134, Note_on_c, 0, 71, 0
2, 131136, Note_on_c, 0, 70, 92
2, 131230, Note_on_c, 0, 70, 0
2, 131230, Note_on_c, 0, 67, 0
2, 131232, Note_on_c, 0, 52, 92
2, 131232, Note_on_c, 0, 71, 92
2, 131326, Note_on_c, 0, 79, 0
2, 131328, Note_on_c, 0, 79, 92
2, 131422, Note_on_c, 0, 79, 0
2, 131422, Note_on_c, 0, 52, 0
2, 131424, Note_on_c, 0, 50, 92
2, 131424, Note_on_c, 0, 78, 92
2, 131518, Note_on_c, 0, 71, 0
2, 131520, Note_on_c, 0, 70, 92
2, 131614, Note_on_c, 0, 70, 0
2, 131614, Note_on_c, 0, 50, 0
2, 131616, Note_on_c, 0, 59, 92
2, 131616, Note_on_c, 0, 71, 92
2, 131710, Note_on_c, 0, 71, 0
2, 131712, Note_on_c, 0, 73, 92
2, 131806, Note_on_c, 0, 73, 0
2, 131806, Note_on_c, 0, 59, 0
2, 131808, Note_on_c, 0, 66, 92
2, 131808, Note_on_c, 0, 71, 92
2, 131902, Note_on_c, 0, 71, 0
2, 131904, Note_on_c, 0, 70, 92
2, 131998, Note_on_c, 0, 70, 0
2, 131998, Note_on_c, 0, 66, 0
2, 132000, Note_on_c, 0, 50, 92
2, 132000, Note_on_c, 0, 71, 92
2, 132094, Note_on_c, 0, 78, 0
2, 132096, Note_on_c, 0, 78, 92
2, 132190, Note_on_c, 0, 78, 0
2, 132190, Note_on_c, 0, 50, 0
2, 132192, Note_on_c, 0, 49, 92
2, 132192, Note_on_c, 0, 76, 92
2, 132286, Note_on_c, 0, 71, 0
2, 132288, Note_on_c, 0, 71, 92
2, 132382, Note_on_c, 0, 71, 0
2, 132382, Note_on_c, 0, 49, 0
2, 132384, Note_on_c, 0, 58, 92
2, 132384, Note_on_c, 0, 73, 92
2, 132478, Note_on_c, 0, 73, 0
2, 132480, Note_on_c, 0, 74, 92
2, 132574, Note_on_c, 0, 74, 0
2, 132574, Note_on_c, 0, 58, 0
2, 132576, Note_on_c, 0, 64, 92
2, 132576, Note_on_c, 0, 73, 92
2, 132670, Note_on_c, 0, 73, 0
2, 132672, Note_on_c, 0, 71, 92
2, 132766, Note_on_c, 0, 71, 0
2, 132766, Note_on_c, 0, 64, 0
2, 132768, Note_on_c, 0, 58, 92
2, 132768, Note_on_c, 0, 73, 92
2, 132862, Note_on_c, 0, 76, 0
2, 132864, Note_on_c, 0, 76, 92
2, 132958, Note_on_c, 0, 76, 0
2, 132958, Note_on_c, 0, 58, 0
2, 132960, Note_on_c, 0, 59, 92
2, 132960, Note_on_c, 0, 74, 92
2, 133048, Note_on_c, 0, 73, 0
2, 133054, Note_on_c, 0, 74, 0
2, 133056, Note_on_c, 0, 73, 92
2, 133150, Note_on_c, 0, 59, 0
2, 133152, Note_on_c, 0, 54, 92
2, 133152, Note_on_c, 0, 74, 92
2, 133176, Note_on_c, 0, 73, 0
2, 133246, Note_on_c, 0, 74, 0
2, 133248, Note_on_c, 0, 76, 92
2, 133342, Note_on_c, 0, 76, 0
2, 133342, Note_on_c, 0, 54, 0
2, 133344, Note_on_c, 0, 50, 92
2, 133344, Note_on_c, 0, 78, 92
2, 133440, Note_on_c, 0, 71, 92
2, 133534, Note_on_c, 0, 71, 0
2, 133534, Note_on_c, 0, 50, 0
2, 133536, Note_on_c, 0, 47, 92
2, 133536, Note_on_c, 0, 73, 92
2, 133630, Note_on_c, 0, 73, 0
2, 133632, Note_on_c, 0, 74, 92
2, 133726, Note_on_c, 0, 74, 0
2, 133726, Note_on_c, 0, 47, 0
2, 133728, Note_on_c, 0, 52, 92
2, 133728, Note_on_c, 0, 67, 92
2, 133822, Note_on_c, 0, 52, 0
2, 133822, Note_on_c, 0, 78, 0
2, 133824, Note_on_c, 0, 58, 92
2, 133824, Note_on_c, 0, 73, 92
2, 133918, Note_on_c, 0, 73, 0
2, 133918, Note_on_c, 0, 58, 0
2, 133920, Note_on_c, 0, 59, 92
2, 133920, Note_on_c, 0, 74, 92
2, 134014, Note_on_c, 0, 74, 0
2, 134014, Note_on_c, 0, 59, 0
2, 134016, Note_on_c, 0, 61, 92
2, 134016, Note_on_c, 0, 76, 92
2, 134110, Note_on_c, 0, 76, 0
2, 134110, Note_on_c, 0, 61, 0
2, 134112, Note_on_c, 0, 59, 92
2, 134112, Note_on_c, 0, 74, 92
2, 134206, Note_on_c, 0, 74, 0
2, 134206, Note_on_c, 0, 59, 0
2, 134208, Note_on_c, 0, 58, 92
2, 134208, Note_on_c, 0, 73, 92
2, 134302, Note_on_c, 0, 73, 0
2, 134302, Note_on_c, 0, 58, 0
2, 134303, Note_on_c, 0, 67, 0
2, 134304, Note_on_c, 0, 59, 92
2, 134304, Note_on_c, 0, 74, 92
2, 134398, Note_on_c, 0, 59, 0
2, 134400, Note_on_c, 0, 52, 92
2, 134400, Note_on_c, 0, 67, 92
2, 134494, Note_on_c, 0, 67, 0
2, 134494, Note_on_c, 0, 52, 0
2, 134496, Note_on_c, 0, 50, 92
2, 134496, Note_on_c, 0, 66, 92
2, 134544, Note_on_c, 0, 74, 0
2, 134590, Note_on_c, 0, 50, 0
2, 134592, Note_on_c, 0, 58, 92
2, 134592, Note_on_c, 0, 73, 92
2, 134686, Note_on_c, 0, 73, 0
2, 134686, Note_on_c, 0, 58, 0
2, 134688, Note_on_c, 0, 59, 92
2, 134688, Note_on_c, 0, 74, 92
2, 134782, Note_on_c, 0, 74, 0
2, 134782, Note_on_c, 0, 59, 0
2, 134784, Note_on_c, 0, 61, 92
2, 134784, Note_on_c, 0, 76, 92
2, 134878, Note_on_c, 0, 76, 0
2, 134878, Note_on_c, 0, 61, 0
2, 134880, Note_on_c, 0, 59, 92
2, 134880, Note_on_c, 0, 74, 92
2, 134974, Note_on_c, 0, 74, 0
2, 134974, Note_on_c, 0, 59, 0
2, 134976, Note_on_c, 0, 58, 92
2, 134976, Note_on_c, 0, 73, 92
2, 135070, Note_on_c, 0, 73, 0
2, 135070, Note_on_c, 0, 58, 0
2, 135071, Note_on_c, 0, 66, 0
2, 135072, Note_on_c, 0, 59, 92
2, 135072, Note_on_c, 0, 74, 92
2, 135166, Note_on_c, 0, 59, 0
2, 135168, Note_on_c, 0, 50, 92
2, 135168, Note_on_c, 0, 66, 92
2, 135262, Note_on_c, 0, 66, 0
2, 135262, Note_on_c, 0, 50, 0
2, 135264, Note_on_c, 0, 49, 92
2, 135264, Note_on_c, 0, 64, 92
2, 135312, Note_on_c, 0, 74, 0
2, 135358, Note_on_c, 0, 49, 0
2, 135360, Note_on_c, 0, 56, 92
2, 135360, Note_on_c, 0, 71, 92
2, 135454, Note_on_c, 0, 71, 0
2, 135454, Note_on_c, 0, 56, 0
2, 135456, Note_on_c, 0, 58, 92
2, 135456, Note_on_c, 0, 73, 92
2, 135550, Note_on_c, 0, 73, 0
2, 135550, Note_on_c, 0, 58, 0
2, 135552, Note_on_c, 0, 59, 92
2, 135552, Note_on_c, 0, 74, 92
2, 135646, Note_on_c, 0, 74, 0
2, 135646, Note_on_c, 0, 59, 0
2, 135648, Note_on_c, 0, 58, 92
2, 135648, Note_on_c, 0, 73, 92
2, 135742, Note_on_c, 0, 73, 0
2, 135742, Note_on_c, 0, 58, 0
2, 135744, Note_on_c, 0, 56, 92
2, 135744, Note_on_c, 0, 71, 92
2, 135834, Note_on_c, 0, 64, 0
2, 135838, Note_on_c, 0, 71, 0
2, 135838, Note_on_c, 0, 56, 0
2, 135840, Note_on_c, 0, 58, 92
2, 135840, Note_on_c, 0, 73, 92
2, 135934, Note_on_c, 0, 58, 0
2, 135936, Note_on_c, 0, 49, 92
2, 135936, Note_on_c, 0, 64, 92
2, 136030, Note_on_c, 0, 64, 0
2, 136030, Note_on_c, 0, 49, 0
2, 136032, Note_on_c, 0, 47, 92
2, 136032, Note_on_c, 0, 62, 92
2, 136090, Note_on_c, 0, 73, 0
2, 136128, Note_on_c, 0, 65, 92
2, 136222, Note_on_c, 0, 65, 0
2, 136222, Note_on_c, 0, 47, 0
2, 136224, Note_on_c, 0, 41, 92
2, 136224, Note_on_c, 0, 68, 92
2, 136318, Note_on_c, 0, 68, 0
2, 136320, Note_on_c, 0, 71, 92
2, 136414, Note_on_c, 0, 41, 0
2, 136414, Note_on_c, 0, 62, 0
2, 136416, Note_on_c, 0, 42, 92
2, 136416, Note_on_c, 0, 61, 92
2, 136510, Note_on_c, 0, 71, 0
2, 136526, Note_on_c, 0, 71, 92
2, 136606, Note_on_c, 0, 61, 0
2, 136606, Note_on_c, 0, 42, 0
2, 136636, Note_on_c, 0, 54, 92
2, 136636, Note_on_c, 0, 64, 92
2, 136716, Note_on_c, 0, 71, 0
2, 136776, Note_on_c, 0, 70, 92
2, 136825, Note_on_c, 0, 64, 0
2, 136825, Note_on_c, 0, 54, 0
2, 136869, Note_on_c, 0, 70, 0
2, 136872, Note_on_c, 0, 47, 92
2, 137016, Note_on_c, 0, 50, 92
2, 137064, Note_on_c, 0, 54, 92
2, 137112, Note_on_c, 0, 59, 92
2, 137160, Note_on_c, 0, 62, 92
2, 137208, Note_on_c, 0, 66, 92
2, 137256, Note_on_c, 0, 71, 92
2, 137304, Note_on_c, 0, 74, 92
2, 137590, Note_on_c, 0, 71, 0
2, 137590, Note_on_c, 0, 59, 0
2, 137590, Note_on_c, 0, 62, 0
2, 137590, Note_on_c, 0, 50, 0
2, 137590, Note_on_c, 0, 54, 0
2, 137590, Note_on_c, 0, 47, 0
2, 137590, Note_on_c, 0, 66, 0
2, 137591, Note_on_c, 0, 74, 0
2, 137592, Note_on_c, 0, 74, 92
2, 137639, Note_on_c, 0, 74, 0
2, 137640, Note_on_c, 0, 47, 92
2, 137640, Note_on_c, 0, 52, 92
2, 137640, Note_on_c, 0, 55, 92
2, 137640, Note_on_c, 0, 64, 92
2, 137640, Note_on_c, 0, 67, 92
2, 137640, Note_on_c, 0, 74, 92
2, 138022, Note_on_c, 0, 74, 0
2, 138072, Note_on_c, 0, 73, 92
2, 138358, Note_on_c, 0, 52, 0
2, 138358, Note_on_c, 0, 64, 0
2, 138358, Note_on_c, 0, 55, 0
2, 138358, Note_on_c, 0, 47, 0
2, 138358, Note_on_c, 0, 67, 0
2, 138455, Note_on_c, 0, 73, 0
2, 138456, Note_on_c, 0, 46, 92
2, 138600, Note_on_c, 0, 49, 92
2, 138648, Note_on_c, 0, 52, 92
2, 138696, Note_on_c, 0, 55, 92
2, 138744, Note_on_c, 0, 58, 92
2, 138792, Note_on_c, 0, 61, 92
2, 138840, Note_on_c, 0, 62, 92
2, 138888, Note_on_c, 0, 64, 92
2, 138934, Note_on_c, 0, 62, 0
2, 139174, Note_on_c, 0, 55, 0
2, 139174, Note_on_c, 0, 58, 0
2, 139174, Note_on_c, 0, 49, 0
2, 139174, Note_on_c, 0, 52, 0
2, 139174, Note_on_c, 0, 46, 0
2, 139174, Note_on_c, 0, 61, 0
2, 139175, Note_on_c, 0, 64, 0
2, 139176, Note_on_c, 0, 64, 92
2, 139223, Note_on_c, 0, 64, 0
2, 139224, Note_on_c, 0, 64, 92
2, 139224, Note_on_c, 0, 61, 92
2, 139224, Note_on_c, 0, 58, 92
2, 139224, Note_on_c, 0, 54, 92
2, 139224, Note_on_c, 0, 47, 92
2, 139655, Note_on_c, 0, 58, 0
2, 139655, Note_on_c, 0, 64, 0
2, 139655, Note_on_c, 0, 61, 0
2, 139656, Note_on_c, 0, 59, 92
2, 139656, Note_on_c, 0, 62, 92
2, 140086, Note_on_c, 0, 54, 0
2, 140086, Note_on_c, 0, 47, 0
2, 140135, Note_on_c, 0, 59, 0
2, 140135, Note_on_c, 0, 62, 0
2, 140136, Note_on_c, 0, 59, 92
2, 140190, Note_on_c, 0, 62, 92
2, 140244, Note_on_c, 0, 62, 0
2, 140245, Note_on_c, 0, 66, 92
2, 140299, Note_on_c, 0, 66, 0
2, 140300, Note_on_c, 0, 67, 92
2, 140354, Note_on_c, 0, 67, 0
2, 140355, Note_on_c, 0, 69, 92
2, 140396, Note_on_c, 0, 59, 0
2, 140409, Note_on_c, 0, 69, 0
2, 140410, Note_on_c, 0, 67, 92
2, 140464, Note_on_c, 0, 67, 0
2, 140465, Note_on_c, 0, 66, 92
2, 140519, Note_on_c, 0, 66, 0
2, 140520, Note_on_c, 0, 64, 92
2, 140574, Note_on_c, 0, 67, 92
2, 140628, Note_on_c, 0, 67, 0
2, 140629, Note_on_c, 0, 71, 92
2, 140683, Note_on_c, 0, 71, 0
2, 140684, Note_on_c, 0, 73, 92
2, 140738, Note_on_c, 0, 73, 0
2, 140739, Note_on_c, 0, 74, 92
2, 140780, Note_on_c, 0, 64, 0
2, 140793, Note_on_c, 0, 74, 0
2, 140794, Note_on_c, 0, 73, 92
2, 140848, Note_on_c, 0, 73, 0
2, 140849, Note_on_c, 0, 71, 92
2, 140903, Note_on_c, 0, 71, 0
2, 140904, Note_on_c, 0, 57, 92
2, 140958, Note_on_c, 0, 61, 92
2, 141012, Note_on_c, 0, 61, 0
2, 141013, Note_on_c, 0, 64, 92
2, 141067, Note_on_c, 0, 64, 0
2, 141068, Note_on_c, 0, 66, 92
2, 141122, Note_on_c, 0, 66, 0
2, 141123, Note_on_c, 0, 67, 92
2, 141164, Note_on_c, 0, 57, 0
2, 141177, Note_on_c, 0, 67, 0
2, 141178, Note_on_c, 0, 66, 92
2, 141232, Note_on_c, 0, 66, 0
2, 141233, Note_on_c, 0, 64, 92
2, 141287, Note_on_c, 0, 64, 0
2, 141288, Note_on_c, 0, 62, 92
2, 141342, Note_on_c, 0, 66, 92
2, 141396, Note_on_c, 0, 66, 0
2, 141397, Note_on_c, 0, 70, 92
2, 141451, Note_on_c, 0, 70, 0
2, 141452, Note_on_c, 0, 71, 92
2, 141506, Note_on_c, 0, 71, 0
2, 141507, Note_on_c, 0, 73, 92
2, 141548, Note_on_c, 0, 62, 0
2, 141561, Note_on_c, 0, 73, 0
2, 141562, Note_on_c, 0, 71, 92
2, 141616, Note_on_c, 0, 71, 0
2, 141617, Note_on_c, 0, 70, 92
2, 141671, Note_on_c, 0, 70, 0
2, 141672, Note_on_c, 0, 55, 92
2, 141726, Note_on_c, 0, 59, 92
2, 141780, Note_on_c, 0, 59, 0
2, 141781, Note_on_c, 0, 62, 92
2, 141835, Note_on_c, 0, 62, 0
2, 141836, Note_on_c, 0, 64, 92
2, 141890, Note_on_c, 0, 64, 0
2, 141891, Note_on_c, 0, 66, 92
2, 141932, Note_on_c, 0, 55, 0
2, 141945, Note_on_c, 0, 66, 0
2, 141946, Note_on_c, 0, 64, 92
2, 142000, Note_on_c, 0, 64, 0
2, 142001, Note_on_c, 0, 62, 92
2, 142055, Note_on_c, 0, 62, 0
2, 142056, Note_on_c, 0, 61, 92
2, 142110, Note_on_c, 0, 65, 92
2, 142164, Note_on_c, 0, 65, 0
2, 142165, Note_on_c, 0, 68, 92
2, 142219, Note_on_c, 0, 68, 0
2, 142220, Note_on_c, 0, 70, 92
2, 142274, Note_on_c, 0, 70, 0
2, 142275, Note_on_c, 0, 71, 92
2, 142316, Note_on_c, 0, 61, 0
2, 142329, Note_on_c, 0, 71, 0
2, 142330, Note_on_c, 0, 70, 92
2, 142384, Note_on_c, 0, 70, 0
2, 142385, Note_on_c, 0, 68, 92
2, 142439, Note_on_c, 0, 68, 0
2, 142440, Note_on_c, 0, 66, 92
2, 142494, Note_on_c, 0, 70, 92
2, 142548, Note_on_c, 0, 70, 0
2, 142549, Note_on_c, 0, 73, 92
2, 142603, Note_on_c, 0, 73, 0
2, 142604, Note_on_c, 0, 74, 92
2, 142658, Note_on_c, 0, 74, 0
2, 142659, Note_on_c, 0, 76, 92
2, 142700, Note_on_c, 0, 66, 0
2, 142713, Note_on_c, 0, 76, 0
2, 142714, Note_on_c, 0, 74, 92
2, 142768, Note_on_c, 0, 74, 0
2, 142769, Note_on_c, 0, 73, 92
2, 142823, Note_on_c, 0, 73, 0
2, 142824, Note_on_c, 0, 70, 92
2, 142878, Note_on_c, 0, 73, 92
2, 142932, Note_on_c, 0, 73, 0
2, 142933, Note_on_c, 0, 76, 92
2, 142987, Note_on_c, 0, 76, 0
2, 142988, Note_on_c, 0, 78, 92
2, 143042, Note_on_c, 0, 78, 0
2, 143043, Note_on_c, 0, 79, 92
2, 143084, Note_on_c, 0, 70, 0
2, 143121, Note_on_c, 0, 79, 0
2, 143122, Note_on_c, 0, 78, 92
2, 143207, Note_on_c, 0, 78, 0
2, 143208, Note_on_c, 0, 76, 92
2, 143303, Note_on_c, 0, 76, 0
2, 143304, Note_on_c, 0, 47, 92
2, 143448, Note_on_c, 0, 50, 92
2, 143496, Note_on_c, 0, 54, 92
2, 143544, Note_on_c, 0, 59, 92
2, 143592, Note_on_c, 0, 62, 92
2, 143640, Note_on_c, 0, 66, 92
2, 143688, Note_on_c, 0, 71, 92
2, 143736, Note_on_c, 0, 74, 92
2, 144022, Note_on_c, 0, 71, 0
2, 144022, Note_on_c, 0, 59, 0
2, 144022, Note_on_c, 0, 62, 0
2, 144022, Note_on_c, 0, 50, 0
2, 144022, Note_on_c, 0, 54, 0
2, 144022, Note_on_c, 0, 47, 0
2, 144022, Note_on_c, 0, 66, 0
2, 144023, Note_on_c, 0, 74, 0
2, 144024, Note_on_c, 0, 74, 92
2, 144071, Note_on_c, 0, 74, 0
2, 144072, Note_on_c, 0, 52, 92
2, 144072, Note_on_c, 0, 55, 92
2, 144072, Note_on_c, 0, 67, 92
2, 144072, Note_on_c, 0, 74, 92
2, 144072, Note_on_c, 0, 59, 92
2, 144502, Note_on_c, 0, 74, 0
2, 144503, Note_on_c, 0, 59, 0
2, 144504, Note_on_c, 0, 72, 92
2, 144838, Note_on_c, 0, 52, 0
2, 144838, Note_on_c, 0, 67, 0
2, 144838, Note_on_c, 0, 55, 0
2, 144887, Note_on_c, 0, 72, 0
2, 144888, Note_on_c, 0, 54, 92
2, 145032, Note_on_c, 0, 57, 92
2, 145080, Note_on_c, 0, 60, 92
2, 145128, Note_on_c, 0, 62, 92
2, 145176, Note_on_c, 0, 69, 92
2, 145224, Note_on_c, 0, 74, 92
2, 145272, Note_on_c, 0, 78, 92
2, 145320, Note_on_c, 0, 81, 92
2, 145558, Note_on_c, 0, 78, 0
2, 145558, Note_on_c, 0, 62, 0
2, 145558, Note_on_c, 0, 69, 0
2, 145558, Note_on_c, 0, 57, 0
2, 145558, Note_on_c, 0, 60, 0
2, 145558, Note_on_c, 0, 74, 0
2, 145606, Note_on_c, 0, 54, 0
2, 145607, Note_on_c, 0, 81, 0
2, 145608, Note_on_c, 0, 66, 92
2, 145608, Note_on_c, 0, 69, 92
2, 145608, Note_on_c, 0, 72, 92
2, 145655, Note_on_c, 0, 72, 0
2, 145655, Note_on_c, 0, 69, 0
2, 145655, Note_on_c, 0, 66, 0
2, 145656, Note_on_c, 0, 72, 92
2, 145656, Note_on_c, 0, 69, 92
2, 145656, Note_on_c, 0, 66, 92
2, 145656, Note_on_c, 0, 62, 92
2, 145656, Note_on_c, 0, 55, 92
2, 146087, Note_on_c, 0, 66, 0
2, 146087, Note_on_c, 0, 72, 0
2, 146087, Note_on_c, 0, 69, 0
2, 146088, Note_on_c, 0, 67, 92
2, 146088, Note_on_c, 0, 71, 92
2, 146422, Note_on_c, 0, 62, 0
2, 146422, Note_on_c, 0, 55, 0
2, 146471, Note_on_c, 0, 67, 0
2, 146471, Note_on_c, 0, 71, 0
2, 146472, Note_on_c, 0, 64, 92
2, 146526, Note_on_c, 0, 67, 92
2, 146580, Note_on_c, 0, 67, 0
2, 146580, Note_on_c, 0, 64, 0
2, 146581, Note_on_c, 0, 70, 92
2, 146635, Note_on_c, 0, 70, 0
2, 146636, Note_on_c, 0, 71, 92
2, 146690, Note_on_c, 0, 71, 0
2, 146691, Note_on_c, 0, 73, 92
2, 146745, Note_on_c, 0, 73, 0
2, 146746, Note_on_c, 0, 71, 92
2, 146800, Note_on_c, 0, 71, 0
2, 146801, Note_on_c, 0, 70, 92
2, 146855, Note_on_c, 0, 70, 0
2, 146856, Note_on_c, 0, 63, 92
2, 146910, Note_on_c, 0, 66, 92
2, 146964, Note_on_c, 0, 66, 0
2, 146965, Note_on_c, 0, 69, 92
2, 147018, Note_on_c, 0, 63, 0
2, 147019, Note_on_c, 0, 69, 0
2, 147020, Note_on_c, 0, 71, 92
2, 147074, Note_on_c, 0, 71, 0
2, 147075, Note_on_c, 0, 72, 92
2, 147129, Note_on_c, 0, 72, 0
2, 147130, Note_on_c, 0, 71, 92
2, 147184, Note_on_c, 0, 71, 0
2, 147185, Note_on_c, 0, 69, 92
2, 147239, Note_on_c, 0, 69, 0
2, 147240, Note_on_c, 0, 62, 92
2, 147294, Note_on_c, 0, 65, 92
2, 147349, Note_on_c, 0, 68, 92
2, 147402, Note_on_c, 0, 65, 0
2, 147402, Note_on_c, 0, 62, 0
2, 147403, Note_on_c, 0, 68, 0
2, 147404, Note_on_c, 0, 69, 92
2, 147458, Note_on_c, 0, 69, 0
2, 147459, Note_on_c, 0, 71, 92
2, 147513, Note_on_c, 0, 71, 0
2, 147514, Note_on_c, 0, 69, 92
2, 147568, Note_on_c, 0, 69, 0
2, 147569, Note_on_c, 0, 68, 92
2, 147623, Note_on_c, 0, 68, 0
2, 147624, Note_on_c, 0, 61, 92
2, 147678, Note_on_c, 0, 64, 92
2, 147733, Note_on_c, 0, 67, 92
2, 147786, Note_on_c, 0, 64, 0
2, 147787, Note_on_c, 0, 67, 0
2, 147788, Note_on_c, 0, 69, 92
2, 147840, Note_on_c, 0, 61, 0
2, 147842, Note_on_c, 0, 69, 0
2, 147843, Note_on_c, 0, 70, 92
2, 147897, Note_on_c, 0, 70, 0
2, 147898, Note_on_c, 0, 69, 92
2, 147952, Note_on_c, 0, 69, 0
2, 147953, Note_on_c, 0, 67, 92
2, 148007, Note_on_c, 0, 67, 0
2, 148008, Note_on_c, 0, 60, 92
2, 148062, Note_on_c, 0, 63, 92
2, 148117, Note_on_c, 0, 66, 92
2, 148171, Note_on_c, 0, 66, 0
2, 148172, Note_on_c, 0, 67, 92
2, 148224, Note_on_c, 0, 63, 0
2, 148224, Note_on_c, 0, 60, 0
2, 148226, Note_on_c, 0, 67, 0
2, 148227, Note_on_c, 0, 69, 92
2, 148281, Note_on_c, 0, 69, 0
2, 148282, Note_on_c, 0, 67, 92
2, 148336, Note_on_c, 0, 67, 0
2, 148337, Note_on_c, 0, 66, 92
2, 148391, Note_on_c, 0, 66, 0
2, 148392, Note_on_c, 0, 59, 92
2, 148446, Note_on_c, 0, 62, 92
2, 148501, Note_on_c, 0, 65, 92
2, 148555, Note_on_c, 0, 65, 0
2, 148556, Note_on_c, 0, 66, 92
2, 148608, Note_on_c, 0, 62, 0
2, 148610, Note_on_c, 0, 66, 0
2, 148611, Note_on_c, 0, 68, 92
2, 148652, Note_on_c, 0, 59, 0
2, 148665, Note_on_c, 0, 68, 0
2, 148666, Note_on_c, 0, 66, 92
2, 148720, Note_on_c, 0, 66, 0
2, 148721, Note_on_c, 0, 65, 92
2, 148775, Note_on_c, 0, 65, 0
2, 148776, Note_on_c, 0, 58, 92
2, 148830, Note_on_c, 0, 61, 92
2, 148885, Note_on_c, 0, 64, 92
2, 148939, Note_on_c, 0, 64, 0
2, 148940, Note_on_c, 0, 66, 92
2, 148994, Note_on_c, 0, 66, 0
2, 148995, Note_on_c, 0, 67, 92
2, 149036, Note_on_c, 0, 58, 0
2, 149046, Note_on_c, 0, 61, 0
2, 149049, Note_on_c, 0, 67, 0
2, 149050, Note_on_c, 0, 66, 92
2, 149104, Note_on_c, 0, 66, 0
2, 149105, Note_on_c, 0, 64, 92
2, 149159, Note_on_c, 0, 64, 0
2, 149160, Note_on_c, 0, 57, 92
2, 149214, Note_on_c, 0, 60, 92
2, 149268, Note_on_c, 0, 57, 0
2, 149269, Note_on_c, 0, 63, 92
2, 149322, Note_on_c, 0, 60, 0
2, 149324, Note_on_c, 0, 64, 92
2, 149377, Note_on_c, 0, 63, 0
2, 149378, Note_on_c, 0, 64, 0
2, 149379, Note_on_c, 0, 66, 92
2, 149434, Note_on_c, 0, 64, 92
2, 149487, Note_on_c, 0, 66, 0
2, 149488, Note_on_c, 0, 64, 0
2, 149489, Note_on_c, 0, 63, 92
2, 149543, Note_on_c, 0, 63, 0
2, 149544, Note_on_c, 0, 56, 92
2, 149688, Note_on_c, 0, 59, 92
2, 149736, Note_on_c, 0, 62, 92
2, 149784, Note_on_c, 0, 65, 92
2, 149832, Note_on_c, 0, 71, 92
2, 149880, Note_on_c, 0, 74, 92
2, 149928, Note_on_c, 0, 77, 92
2, 149976, Note_on_c, 0, 83, 92
2, 150214, Note_on_c, 0, 77, 0
2, 150214, Note_on_c, 0, 65, 0
2, 150214, Note_on_c, 0, 71, 0
2, 150214, Note_on_c, 0, 59, 0
2, 150214, Note_on_c, 0, 62, 0
2, 150214, Note_on_c, 0, 74, 0
2, 150262, Note_on_c, 0, 56, 0
2, 150263, Note_on_c, 0, 83, 0
2, 150264, Note_on_c, 0, 83, 92
2, 150264, Note_on_c, 0, 80, 92
2, 150264, Note_on_c, 0, 74, 92
2, 150311, Note_on_c, 0, 74, 0
2, 150311, Note_on_c, 0, 80, 0
2, 150311, Note_on_c, 0, 83, 0
2, 150312, Note_on_c, 0, 60, 92
2, 150312, Note_on_c, 0, 64, 92
2, 150312, Note_on_c, 0, 68, 92
2, 150312, Note_on_c, 0, 74, 92
2, 150312, Note_on_c, 0, 83, 92
2, 150312, Note_on_c, 0, 80, 92
2, 150312, Note_on_c, 0, 76, 92
2, 150743, Note_on_c, 0, 76, 0
2, 150743, Note_on_c, 0, 83, 0
2, 150743, Note_on_c, 0, 74, 0
2, 150743, Note_on_c, 0, 68, 0
2, 150743, Note_on_c, 0, 80, 0
2, 150744, Note_on_c, 0, 81, 92
2, 150744, Note_on_c, 0, 72, 92
2, 150744, Note_on_c, 0, 69, 92
2, 151078, Note_on_c, 0, 64, 0
2, 151126, Note_on_c, 0, 60, 0
2, 151127, Note_on_c, 0, 72, 0
2, 151127, Note_on_c, 0, 81, 0
2, 151127, Note_on_c, 0, 69, 0
2, 151152, Note_on_c, 0, 51, 92
2, 151296, Note_on_c, 0, 54, 92
2, 151344, Note_on_c, 0, 57, 92
2, 151392, Note_on_c, 0, 60, 92
2, 151440, Note_on_c, 0, 69, 92
2, 151488, Note_on_c, 0, 72, 92
2, 151536, Note_on_c, 0, 78, 92
2, 151584, Note_on_c, 0, 81, 92
2, 151822, Note_on_c, 0, 78, 0
2, 151822, Note_on_c, 0, 60, 0
2, 151822, Note_on_c, 0, 69, 0
2, 151822, Note_on_c, 0, 54, 0
2, 151822, Note_on_c, 0, 57, 0
2, 151822, Note_on_c, 0, 72, 0
2, 151870, Note_on_c, 0, 51, 0
2, 151871, Note_on_c, 0, 81, 0
2, 151872, Note_on_c, 0, 81, 92
2, 151872, Note_on_c, 0, 78, 92
2, 151872, Note_on_c, 0, 75, 92
2, 151872, Note_on_c, 0, 72, 92
2, 151919, Note_on_c, 0, 72, 0
2, 151919, Note_on_c, 0, 81, 0
2, 151919, Note_on_c, 0, 78, 0
2, 151919, Note_on_c, 0, 75, 0
2, 151920, Note_on_c, 0, 72, 92
2, 151920, Note_on_c, 0, 75, 92
2, 151920, Note_on_c, 0, 78, 92
2, 151920, Note_on_c, 0, 81, 92
2, 151920, Note_on_c, 0, 52, 92
2, 151920, Note_on_c, 0, 64, 92
2, 152351, Note_on_c, 0, 81, 0
2, 152351, Note_on_c, 0, 78, 0
2, 152351, Note_on_c, 0, 72, 0
2, 152351, Note_on_c, 0, 75, 0
2, 152352, Note_on_c, 0, 79, 92
2, 152352, Note_on_c, 0, 76, 92
2, 152352, Note_on_c, 0, 71, 92
2, 152782, Note_on_c, 0, 52, 0
2, 152830, Note_on_c, 0, 64, 0
2, 152831, Note_on_c, 0, 76, 0
2, 152831, Note_on_c, 0, 79, 0
2, 152831, Note_on_c, 0, 71, 0
2, 152832, Note_on_c, 0, 40, 92
2, 152886, Note_on_c, 0, 43, 92
2, 152940, Note_on_c, 0, 43, 0
2, 152941, Note_on_c, 0, 47, 92
2, 152995, Note_on_c, 0, 47, 0
2, 152996, Note_on_c, 0, 48, 92
2, 153050, Note_on_c, 0, 48, 0
2, 153051, Note_on_c, 0, 50, 92
2, 153105, Note_on_c, 0, 50, 0
2, 153106, Note_on_c, 0, 48, 92
2, 153160, Note_on_c, 0, 48, 0
2, 153161, Note_on_c, 0, 40, 0
2, 153161, Note_on_c, 0, 47, 92
2, 153215, Note_on_c, 0, 47, 0
2, 153216, Note_on_c, 0, 45, 92
2, 153270, Note_on_c, 0, 48, 92
2, 153324, Note_on_c, 0, 48, 0
2, 153325, Note_on_c, 0, 52, 92
2, 153379, Note_on_c, 0, 52, 0
2, 153380, Note_on_c, 0, 54, 92
2, 153434, Note_on_c, 0, 54, 0
2, 153435, Note_on_c, 0, 55, 92
2, 153489, Note_on_c, 0, 55, 0
2, 153490, Note_on_c, 0, 45, 0
2, 153490, Note_on_c, 0, 54, 92
2, 153544, Note_on_c, 0, 54, 0
2, 153545, Note_on_c, 0, 52, 92
2, 153599, Note_on_c, 0, 52, 0
2, 153600, Note_on_c, 0, 50, 92
2, 153654, Note_on_c, 0, 54, 92
2, 153708, Note_on_c, 0, 54, 0
2, 153709, Note_on_c, 0, 57, 92
2, 153763, Note_on_c, 0, 57, 0
2, 153764, Note_on_c, 0, 59, 92
2, 153818, Note_on_c, 0, 59, 0
2, 153819, Note_on_c, 0, 50, 0
2, 153819, Note_on_c, 0, 60, 92
2, 153873, Note_on_c, 0, 60, 0
2, 153874, Note_on_c, 0, 59, 92
2, 153928, Note_on_c, 0, 59, 0
2, 153929, Note_on_c, 0, 57, 92
2, 153983, Note_on_c, 0, 57, 0
2, 153984, Note_on_c, 0, 55, 92
2, 154038, Note_on_c, 0, 59, 92
2, 154092, Note_on_c, 0, 59, 0
2, 154093, Note_on_c, 0, 63, 92
2, 154147, Note_on_c, 0, 63, 0
2, 154148, Note_on_c, 0, 55, 0
2, 154148, Note_on_c, 0, 64, 92
2, 154202, Note_on_c, 0, 64, 0
2, 154203, Note_on_c, 0, 66, 92
2, 154257, Note_on_c, 0, 66, 0
2, 154258, Note_on_c, 0, 64, 92
2, 154312, Note_on_c, 0, 64, 0
2, 154313, Note_on_c, 0, 63, 92
2, 154367, Note_on_c, 0, 63, 0
2, 154368, Note_on_c, 0, 60, 92
2, 154422, Note_on_c, 0, 64, 92
2, 154476, Note_on_c, 0, 64, 0
2, 154476, Note_on_c, 0, 60, 0
2, 154477, Note_on_c, 0, 67, 92
2, 154531, Note_on_c, 0, 67, 0
2, 154532, Note_on_c, 0, 69, 92
2, 154586, Note_on_c, 0, 69, 0
2, 154587, Note_on_c, 0, 71, 92
2, 154641, Note_on_c, 0, 71, 0
2, 154642, Note_on_c, 0, 69, 92
2, 154696, Note_on_c, 0, 69, 0
2, 154697, Note_on_c, 0, 67, 92
2, 154751, Note_on_c, 0, 67, 0
2, 154752, Note_on_c, 0, 66, 92
2, 154806, Note_on_c, 0, 70, 92
2, 154860, Note_on_c, 0, 66, 0
2, 154861, Note_on_c, 0, 73, 92
2, 154914, Note_on_c, 0, 70, 0
2, 154915, Note_on_c, 0, 73, 0
2, 154916, Note_on_c, 0, 75, 92
2, 154970, Note_on_c, 0, 75, 0
2, 154971, Note_on_c, 0, 76, 92
2, 155025, Note_on_c, 0, 76, 0
2, 155026, Note_on_c, 0, 75, 92
2, 155080, Note_on_c, 0, 75, 0
2, 155081, Note_on_c, 0, 73, 92
2, 155135, Note_on_c, 0, 73, 0
2, 155136, Note_on_c, 0, 71, 92
2, 155190, Note_on_c, 0, 75, 92
2, 155244, Note_on_c, 0, 71, 0
2, 155245, Note_on_c, 0, 78, 92
2, 155298, Note_on_c, 0, 75, 0
2, 155300, Note_on_c, 0, 79, 92
2, 155353, Note_on_c, 0, 78, 0
2, 155354, Note_on_c, 0, 79, 0
2, 155355, Note_on_c, 0, 81, 92
2, 155409, Note_on_c, 0, 81, 0
2, 155410, Note_on_c, 0, 79, 92
2, 155464, Note_on_c, 0, 79, 0
2, 155465, Note_on_c, 0, 78, 92
2, 155519, Note_on_c, 0, 78, 0
2, 155520, Note_on_c, 0, 75, 92
2, 155574, Note_on_c, 0, 78, 92
2, 155575, Note_on_c, 0, 75, 0
2, 155629, Note_on_c, 0, 78, 0
2, 155629, Note_on_c, 0, 81, 92
2, 155684, Note_on_c, 0, 81, 0
2, 155684, Note_on_c, 0, 83, 92
2, 155739, Note_on_c, 0, 83, 0
2, 155739, Note_on_c, 0, 84, 92
2, 155812, Note_on_c, 0, 83, 92
2, 155847, Note_on_c, 0, 84, 0
2, 155881, Note_on_c, 0, 83, 0
2, 155886, Note_on_c, 0, 81, 92
2, 155979, Note_on_c, 0, 81, 0
2, 156000, Note_on_c, 0, 52, 92
2, 156144, Note_on_c, 0, 55, 92
2, 156192, Note_on_c, 0, 59, 92
2, 156240, Note_on_c, 0, 64, 92
2, 156288, Note_on_c, 0, 67, 92
2, 156336, Note_on_c, 0, 71, 92
2, 156384, Note_on_c, 0, 76, 92
2, 156432, Note_on_c, 0, 79, 92
2, 156670, Note_on_c, 0, 76, 0
2, 156670, Note_on_c, 0, 64, 0
2, 156670, Note_on_c, 0, 67, 0
2, 156670, Note_on_c, 0, 55, 0
2, 156670, Note_on_c, 0, 59, 0
2, 156670, Note_on_c, 0, 71, 0
2, 156718, Note_on_c, 0, 52, 0
2, 156719, Note_on_c, 0, 79, 0
2, 156720, Note_on_c, 0, 79, 92
2, 156767, Note_on_c, 0, 79, 0
2, 156768, Note_on_c, 0, 72, 92
2, 156768, Note_on_c, 0, 79, 92
2, 156768, Note_on_c, 0, 69, 92
2, 156768, Note_on_c, 0, 64, 92
2, 156768, Note_on_c, 0, 60, 92
2, 156768, Note_on_c, 0, 57, 92
2, 157103, Note_on_c, 0, 69, 0
2, 157103, Note_on_c, 0, 72, 0
2, 157103, Note_on_c, 0, 79, 0
2, 157104, Note_on_c, 0, 76, 92
2, 157151, Note_on_c, 0, 76, 0
2, 157152, Note_on_c, 0, 76, 92
2, 157391, Note_on_c, 0, 76, 0
2, 157392, Note_on_c, 0, 77, 92
2, 157438, Note_on_c, 0, 64, 0
2, 157438, Note_on_c, 0, 60, 0
2, 157534, Note_on_c, 0, 57, 0
2, 157583, Note_on_c, 0, 77, 0
2, 157584, Note_on_c, 0, 59, 92
2, 157728, Note_on_c, 0, 62, 92
2, 157776, Note_on_c, 0, 65, 92
2, 157824, Note_on_c, 0, 68, 92
2, 157872, Note_on_c, 0, 71, 92
2, 157920, Note_on_c, 0, 74, 92
2, 157968, Note_on_c, 0, 77, 92
2, 158016, Note_on_c, 0, 80, 92
2, 158254, Note_on_c, 0, 77, 0
2, 158254, Note_on_c, 0, 68, 0
2, 158254, Note_on_c, 0, 71, 0
2, 158254, Note_on_c, 0, 62, 0
2, 158254, Note_on_c, 0, 65, 0
2, 158254, Note_on_c, 0, 74, 0
2, 158302, Note_on_c, 0, 59, 0
2, 158303, Note_on_c, 0, 80, 0
2, 158304, Note_on_c, 0, 80, 92
2, 158304, Note_on_c, 0, 71, 92
2, 158304, Note_on_c, 0, 74, 92
2, 158304, Note_on_c, 0, 76, 92
2, 158351, Note_on_c, 0, 76, 0
2, 158351, Note_on_c, 0, 80, 0
2, 158351, Note_on_c, 0, 71, 0
2, 158351, Note_on_c, 0, 74, 0
2, 158352, Note_on_c, 0, 64, 92
2, 158352, Note_on_c, 0, 60, 92
2, 158352, Note_on_c, 0, 80, 92
2, 158352, Note_on_c, 0, 71, 92
2, 158352, Note_on_c, 0, 74, 92
2, 158352, Note_on_c, 0, 76, 92
2, 158783, Note_on_c, 0, 76, 0
2, 158783, Note_on_c, 0, 71, 0
2, 158783, Note_on_c, 0, 80, 0
2, 158783, Note_on_c, 0, 74, 0
2, 158784, Note_on_c, 0, 81, 92
2, 158784, Note_on_c, 0, 72, 92
2, 158784, Note_on_c, 0, 69, 92
2, 159166, Note_on_c, 0, 64, 0
2, 159166, Note_on_c, 0, 60, 0
2, 159215, Note_on_c, 0, 72, 0
2, 159215, Note_on_c, 0, 81, 0
2, 159215, Note_on_c, 0, 69, 0
2, 159216, Note_on_c, 0, 72, 92
2, 159270, Note_on_c, 0, 76, 92
2, 159324, Note_on_c, 0, 76, 0
2, 159325, Note_on_c, 0, 78, 92
2, 159379, Note_on_c, 0, 78, 0
2, 159380, Note_on_c, 0, 79, 92
2, 159434, Note_on_c, 0, 79, 0
2, 159435, Note_on_c, 0, 81, 92
2, 159476, Note_on_c, 0, 72, 0
2, 159489, Note_on_c, 0, 81, 0
2, 159490, Note_on_c, 0, 79, 92
2, 159544, Note_on_c, 0, 79, 0
2, 159545, Note_on_c, 0, 78, 92
2, 159599, Note_on_c, 0, 78, 0
2, 159600, Note_on_c, 0, 71, 92
2, 159654, Note_on_c, 0, 75, 92
2, 159708, Note_on_c, 0, 75, 0
2, 159709, Note_on_c, 0, 76, 92
2, 159763, Note_on_c, 0, 76, 0
2, 159764, Note_on_c, 0, 78, 92
2, 159818, Note_on_c, 0, 78, 0
2, 159819, Note_on_c, 0, 79, 92
2, 159860, Note_on_c, 0, 71, 0
2, 159873, Note_on_c, 0, 79, 0
2, 159874, Note_on_c, 0, 78, 92
2, 159928, Note_on_c, 0, 78, 0
2, 159929, Note_on_c, 0, 76, 92
2, 159983, Note_on_c, 0, 76, 0
2, 159984, Note_on_c, 0, 69, 92
2, 160038, Note_on_c, 0, 72, 92
2, 160092, Note_on_c, 0, 72, 0
2, 160093, Note_on_c, 0, 75, 92
2, 160147, Note_on_c, 0, 75, 0
2, 160148, Note_on_c, 0, 76, 92
2, 160202, Note_on_c, 0, 76, 0
2, 160203, Note_on_c, 0, 78, 92
2, 160244, Note_on_c, 0, 69, 0
2, 160257, Note_on_c, 0, 78, 0
2, 160258, Note_on_c, 0, 76, 92
2, 160312, Note_on_c, 0, 76, 0
2, 160313, Note_on_c, 0, 75, 92
2, 160367, Note_on_c, 0, 75, 0
2, 160368, Note_on_c, 0, 66, 92
2, 160422, Note_on_c, 0, 75, 92
2, 160476, Note_on_c, 0, 75, 0
2, 160477, Note_on_c, 0, 81, 92
2, 160531, Note_on_c, 0, 81, 0
2, 160532, Note_on_c, 0, 83, 92
2, 160586, Note_on_c, 0, 83, 0
2, 160587, Note_on_c, 0, 84, 92
2, 160628, Note_on_c, 0, 66, 0
2, 160641, Note_on_c, 0, 84, 0
2, 160642, Note_on_c, 0, 83, 92
2, 160696, Note_on_c, 0, 83, 0
2, 160697, Note_on_c, 0, 81, 92
2, 160751, Note_on_c, 0, 81, 0
2, 160752, Note_on_c, 0, 83, 92
2, 160752, Note_on_c, 0, 67, 92
2, 161112, Note_on_c, 0, 67, 0
2, 161112, Note_on_c, 0, 83, 0
2, 161136, Note_on_c, 0, 67, 92
2, 161136, Note_on_c, 0, 60, 92
2, 161136, Note_on_c, 0, 72, 92
2, 161136, Note_on_c, 0, 76, 92
2, 161231, Note_on_c, 0, 76, 0
2, 161231, Note_on_c, 0, 67, 0
2, 161231, Note_on_c, 0, 60, 0
2, 161231, Note_on_c, 0, 72, 0
2, 161232, Note_on_c, 0, 72, 92
2, 161232, Note_on_c, 0, 57, 92
2, 161232, Note_on_c, 0, 69, 92
2, 161232, Note_on_c, 0, 78, 92
2, 161519, Note_on_c, 0, 78, 0
2, 161519, Note_on_c, 0, 72, 0
2, 161519, Note_on_c, 0, 57, 0
2, 161519, Note_on_c, 0, 69, 0
2, 161536, Note_on_c, 0, 75, 92
2, 161536, Note_on_c, 0, 59, 92
2, 161536, Note_on_c, 0, 66, 92
2, 161536, Note_on_c, 0, 71, 92
2, 161631, Note_on_c, 0, 71, 0
2, 161631, Note_on_c, 0, 75, 0
2, 161631, Note_on_c, 0, 59, 0
2, 161631, Note_on_c, 0, 66, 0
2, 161632, Note_on_c, 0, 76, 92
2, 161632, Note_on_c, 0, 71, 92
2, 161632, Note_on_c, 0, 61, 92
2, 161632, Note_on_c, 0, 55, 92
2, 161632, Note_on_c, 0, 52, 92
2, 161632, Note_on_c, 0, 49, 92
2, 161632, Note_on_c, 0, 64, 92
2, 162015, Note_on_c, 0, 61, 0
2, 162015, Note_on_c, 0, 76, 0
2, 162015, Note_on_c, 0, 71, 0
2, 162016, Note_on_c, 0, 70, 92
2, 162542, Note_on_c, 0, 70, 0
2, 162542, Note_on_c, 0, 64, 0
2, 162542, Note_on_c, 0, 55, 0
2, 162542, Note_on_c, 0, 49, 0
2, 162542, Note_on_c, 0, 52, 0
2, 162912, Note_on_c, 0, 52, 92
2, 162966, Note_on_c, 0, 55, 92
2, 162987, Note_on_c, 0, 52, 0
2, 163020, Note_on_c, 0, 55, 0
2, 163021, Note_on_c, 0, 58, 92
2, 163075, Note_on_c, 0, 58, 0
2, 163076, Note_on_c, 0, 59, 92
2, 163130, Note_on_c, 0, 59, 0
2, 163131, Note_on_c, 0, 61, 92
2, 163185, Note_on_c, 0, 61, 0
2, 163186, Note_on_c, 0, 59, 92
2, 163240, Note_on_c, 0, 59, 0
2, 163240, Note_on_c, 0, 58, 92
2, 163294, Note_on_c, 0, 58, 0
2, 163295, Note_on_c, 0, 53, 92
2, 163348, Note_on_c, 0, 56, 92
2, 163395, Note_on_c, 0, 53, 0
2, 163402, Note_on_c, 0, 59, 92
2, 163412, Note_on_c, 0, 56, 0
2, 163456, Note_on_c, 0, 59, 0
2, 163457, Note_on_c, 0, 61, 92
2, 163511, Note_on_c, 0, 61, 0
2, 163511, Note_on_c, 0, 62, 92
2, 163565, Note_on_c, 0, 62, 0
2, 163566, Note_on_c, 0, 60, 92
2, 163619, Note_on_c, 0, 59, 92
2, 163620, Note_on_c, 0, 60, 0
2, 163673, Note_on_c, 0, 59, 0
2, 163674, Note_on_c, 0, 54, 92
2, 163726, Note_on_c, 0, 57, 92
2, 163780, Note_on_c, 0, 60, 92
2, 163799, Note_on_c, 0, 54, 0
2, 163800, Note_on_c, 0, 57, 0
2, 163834, Note_on_c, 0, 60, 0
2, 163834, Note_on_c, 0, 61, 92
2, 163888, Note_on_c, 0, 61, 0
2, 163888, Note_on_c, 0, 63, 92
2, 163942, Note_on_c, 0, 63, 0
2, 163942, Note_on_c, 0, 61, 92
2, 163995, Note_on_c, 0, 60, 92
2, 163996, Note_on_c, 0, 61, 0
2, 164049, Note_on_c, 0, 60, 0
2, 164049, Note_on_c, 0, 55, 92
2, 164100, Note_on_c, 0, 58, 92
2, 164154, Note_on_c, 0, 61, 92
2, 164184, Note_on_c, 0, 58, 0
2, 164199, Note_on_c, 0, 55, 0
2, 164207, Note_on_c, 0, 62, 92
2, 164208, Note_on_c, 0, 61, 0
2, 164261, Note_on_c, 0, 62, 0
2, 164261, Note_on_c, 0, 64, 92
2, 164314, Note_on_c, 0, 62, 92
2, 164315, Note_on_c, 0, 64, 0
2, 164367, Note_on_c, 0, 61, 92
2, 164368, Note_on_c, 0, 62, 0
2, 164420, Note_on_c, 0, 56, 92
2, 164421, Note_on_c, 0, 61, 0
2, 164471, Note_on_c, 0, 59, 92
2, 164524, Note_on_c, 0, 62, 92
2, 164565, Note_on_c, 0, 59, 0
2, 164577, Note_on_c, 0, 64, 92
2, 164578, Note_on_c, 0, 62, 0
2, 164595, Note_on_c, 0, 56, 0
2, 164630, Note_on_c, 0, 65, 92
2, 164631, Note_on_c, 0, 64, 0
2, 164683, Note_on_c, 0, 64, 92
2, 164684, Note_on_c, 0, 65, 0
2, 164735, Note_on_c, 0, 62, 92
2, 164737, Note_on_c, 0, 64, 0
2, 164788, Note_on_c, 0, 57, 92
2, 164789, Note_on_c, 0, 62, 0
2, 164838, Note_on_c, 0, 60, 92
2, 164891, Note_on_c, 0, 63, 92
2, 164942, Note_on_c, 0, 60, 0
2, 164943, Note_on_c, 0, 64, 92
2, 164955, Note_on_c, 0, 63, 0
2, 164988, Note_on_c, 0, 57, 0
2, 164996, Note_on_c, 0, 66, 92
2, 164997, Note_on_c, 0, 64, 0
2, 165048, Note_on_c, 0, 64, 92
2, 165050, Note_on_c, 0, 66, 0
2, 165100, Note_on_c, 0, 63, 92
2, 165102, Note_on_c, 0, 64, 0
2, 165152, Note_on_c, 0, 58, 92
2, 165154, Note_on_c, 0, 63, 0
2, 165201, Note_on_c, 0, 61, 92
2, 165254, Note_on_c, 0, 64, 92
2, 165305, Note_on_c, 0, 66, 92
2, 165315, Note_on_c, 0, 61, 0
2, 165328, Note_on_c, 0, 64, 0
2, 165358, Note_on_c, 0, 67, 92
2, 165359, Note_on_c, 0, 66, 0
2, 165377, Note_on_c, 0, 58, 0
2, 165409, Note_on_c, 0, 66, 92
2, 165412, Note_on_c, 0, 67, 0
2, 165461, Note_on_c, 0, 64, 92
2, 165463, Note_on_c, 0, 66, 0
2, 165512, Note_on_c, 0, 59, 92
2, 165515, Note_on_c, 0, 64, 0
2, 165561, Note_on_c, 0, 62, 92
2, 165613, Note_on_c, 0, 65, 92
2, 165664, Note_on_c, 0, 66, 92
2, 165685, Note_on_c, 0, 62, 0
2, 165697, Note_on_c, 0, 65, 0
2, 165716, Note_on_c, 0, 68, 92
2, 165718, Note_on_c, 0, 66, 0
2, 165762, Note_on_c, 0, 59, 0
2, 165767, Note_on_c, 0, 66, 92
2, 165770, Note_on_c, 0, 68, 0
2, 165818, Note_on_c, 0, 65, 92
2, 165821, Note_on_c, 0, 66, 0
2, 165869, Note_on_c, 0, 60, 92
2, 165872, Note_on_c, 0, 65, 0
2, 165917, Note_on_c, 0, 63, 92
2, 165969, Note_on_c, 0, 66, 92
2, 166019, Note_on_c, 0, 67, 92
2, 166051, Note_on_c, 0, 63, 0
2, 166063, Note_on_c, 0, 66, 0
2, 166071, Note_on_c, 0, 69, 92
2, 166073, Note_on_c, 0, 67, 0
2, 166121, Note_on_c, 0, 67, 92
2, 166144, Note_on_c, 0, 60, 0
2, 166146, Note_on_c, 0, 69, 0
2, 166172, Note_on_c, 0, 66, 92
2, 166175, Note_on_c, 0, 67, 0
2, 166222, Note_on_c, 0, 61, 92
2, 166226, Note_on_c, 0, 66, 0
2, 166270, Note_on_c, 0, 64, 92
2, 166321, Note_on_c, 0, 67, 92
2, 166371, Note_on_c, 0, 69, 92
2, 166414, Note_on_c, 0, 64, 0
2, 166422, Note_on_c, 0, 70, 92
2, 166425, Note_on_c, 0, 69, 0
2, 166425, Note_on_c, 0, 67, 0
2, 166472, Note_on_c, 0, 69, 92
2, 166522, Note_on_c, 0, 61, 0
2, 166522, Note_on_c, 0, 70, 0
2, 166522, Note_on_c, 0, 67, 92
2, 166526, Note_on_c, 0, 69, 0
2, 166572, Note_on_c, 0, 62, 92
2, 166576, Note_on_c, 0, 67, 0
2, 166619, Note_on_c, 0, 65, 92
2, 166670, Note_on_c, 0, 68, 92
2, 166719, Note_on_c, 0, 69, 92
2, 166770, Note_on_c, 0, 71, 92
2, 166773, Note_on_c, 0, 69, 0
2, 166773, Note_on_c, 0, 65, 0
2, 166784, Note_on_c, 0, 68, 0
2, 166819, Note_on_c, 0, 69, 92
2, 166822, Note_on_c, 0, 62, 0
2, 166869, Note_on_c, 0, 68, 92
2, 166873, Note_on_c, 0, 69, 0
2, 166895, Note_on_c, 0, 71, 0
2, 166918, Note_on_c, 0, 63, 92
2, 166923, Note_on_c, 0, 68, 0
2, 166968, Note_on_c, 0, 66, 92
2, 167021, Note_on_c, 0, 69, 92
2, 167026, Note_on_c, 0, 63, 0
2, 167073, Note_on_c, 0, 71, 92
2, 167076, Note_on_c, 0, 66, 0
2, 167125, Note_on_c, 0, 72, 92
2, 167129, Note_on_c, 0, 69, 0
2, 167131, Note_on_c, 0, 71, 0
2, 167285, Note_on_c, 0, 72, 0
2, 167318, Note_on_c, 0, 71, 92
2, 167380, Note_on_c, 0, 69, 92
2, 167389, Note_on_c, 0, 71, 0
2, 167464, Note_on_c, 0, 64, 92
2, 167464, Note_on_c, 0, 67, 92
2, 167468, Note_on_c, 0, 69, 0
2, 167804, Note_on_c, 0, 67, 0
2, 167804, Note_on_c, 0, 64, 0
2, 167904, Note_on_c, 0, 76, 92
2, 167904, Note_on_c, 0, 58, 92
2, 167978, Note_on_c, 0, 59, 92
2, 167978, Note_on_c, 0, 66, 92
2, 167991, Note_on_c, 0, 58, 0
2, 167991, Note_on_c, 0, 76, 0
2, 168378, Note_on_c, 0, 59, 0
2, 168378, Note_on_c, 0, 66, 0
2, 168432, Note_on_c, 0, 75, 92
2, 168432, Note_on_c, 0, 71, 92
2, 168432, Note_on_c, 0, 47, 92
2, 168432, Note_on_c, 0, 69, 92
2, 168527, Note_on_c, 0, 69, 0
2, 168527, Note_on_c, 0, 75, 0
2, 168527, Note_on_c, 0, 71, 0
2, 168527, Note_on_c, 0, 47, 0
2, 168528, Note_on_c, 0, 75, 92
2, 168528, Note_on_c, 0, 69, 92
2, 168528, Note_on_c, 0, 71, 92
2, 168528, Note_on_c, 0, 64, 92
2, 168528, Note_on_c, 0, 59, 92
2, 168528, Note_on_c, 0, 52, 92
2, 169055, Note_on_c, 0, 71, 0
2, 169055, Note_on_c, 0, 75, 0
2, 169055, Note_on_c, 0, 69, 0
2, 169056, Note_on_c, 0, 68, 92
2, 169056, Note_on_c, 0, 76, 92
2, 169966, Note_on_c, 0, 68, 0
2, 169966, Note_on_c, 0, 64, 0
2, 169966, Note_on_c, 0, 52, 0
2, 169966, Note_on_c, 0, 59, 0
2, 170014, Note_on_c, 0, 76, 0
2, 172758, Note_on_c, 0, 79, 92
2, 172798, Note_on_c, 0, 79, 0
2, 172800, Note_on_c, 0, 71, 92
2, 172800, Note_on_c, 0, 76, 92
2, 172800, Note_on_c, 0, 79, 92
2, 172800, Note_on_c, 0, 52, 92
2, 172992, Note_on_c, 0, 54, 92
2, 173077, Note_on_c, 0, 79, 0
2, 173077, Note_on_c, 0, 71, 0
2, 173077, Note_on_c, 0, 76, 0
2, 173088, Note_on_c, 0, 78, 92
2, 173119, Note_on_c, 0, 78, 0
2, 173120, Note_on_c, 0, 76, 92
2, 173151, Note_on_c, 0, 76, 0
2, 173152, Note_on_c, 0, 75, 92
2, 173183, Note_on_c, 0, 75, 0
2, 173183, Note_on_c, 0, 54, 0
2, 173184, Note_on_c, 0, 76, 92
2, 173184, Note_on_c, 0, 55, 92
2, 173375, Note_on_c, 0, 55, 0
2, 173376, Note_on_c, 0, 56, 92
2, 173461, Note_on_c, 0, 76, 0
2, 173472, Note_on_c, 0, 74, 92
2, 173503, Note_on_c, 0, 74, 0
2, 173504, Note_on_c, 0, 72, 92
2, 173535, Note_on_c, 0, 72, 0
2, 173536, Note_on_c, 0, 71, 92
2, 173567, Note_on_c, 0, 71, 0
2, 173567, Note_on_c, 0, 56, 0
2, 173568, Note_on_c, 0, 72, 92
2, 173568, Note_on_c, 0, 57, 92
2, 173759, Note_on_c, 0, 57, 0
2, 173760, Note_on_c, 0, 59, 92
2, 173845, Note_on_c, 0, 72, 0
2, 173856, Note_on_c, 0, 71, 92
2, 173887, Note_on_c, 0, 71, 0
2, 173888, Note_on_c, 0, 69, 92
2, 173919, Note_on_c, 0, 69, 0
2, 173920, Note_on_c, 0, 68, 92
2, 173951, Note_on_c, 0, 68, 0
2, 173951, Note_on_c, 0, 59, 0
2, 173952, Note_on_c, 0, 69, 92
2, 173952, Note_on_c, 0, 60, 92
2, 174111, Note_on_c, 0, 69, 0
2, 174112, Note_on_c, 0, 72, 92
2, 174143, Note_on_c, 0, 72, 0
2, 174143, Note_on_c, 0, 60, 0
2, 174144, Note_on_c, 0, 66, 92
2, 174144, Note_on_c, 0, 57, 92
2, 174303, Note_on_c, 0, 66, 0
2, 174304, Note_on_c, 0, 69, 92
2, 174330, Note_on_c, 0, 52, 0
2, 174335, Note_on_c, 0, 69, 0
2, 174335, Note_on_c, 0, 57, 0
2, 174336, Note_on_c, 0, 63, 92
2, 174336, Note_on_c, 0, 54, 92
2, 174528, Note_on_c, 0, 52, 92
2, 174613, Note_on_c, 0, 63, 0
2, 174624, Note_on_c, 0, 72, 92
2, 174655, Note_on_c, 0, 72, 0
2, 174656, Note_on_c, 0, 71, 92
2, 174687, Note_on_c, 0, 71, 0
2, 174688, Note_on_c, 0, 69, 92
2, 174719, Note_on_c, 0, 69, 0
2, 174719, Note_on_c, 0, 52, 0
2, 174720, Note_on_c, 0, 78, 92
2, 174720, Note_on_c, 0, 51, 92
2, 174879, Note_on_c, 0, 78, 0
2, 174880, Note_on_c, 0, 69, 92
2, 174911, Note_on_c, 0, 69, 0
2, 174911, Note_on_c, 0, 51, 0
2, 174912, Note_on_c, 0, 71, 92
2, 174912, Note_on_c, 0, 47, 92
2, 175071, Note_on_c, 0, 71, 0
2, 175072, Note_on_c, 0, 66, 92
2, 175103, Note_on_c, 0, 66, 0
2, 175103, Note_on_c, 0, 47, 0
2, 175103, Note_on_c, 0, 54, 0
2, 175104, Note_on_c, 0, 66, 92
2, 175104, Note_on_c, 0, 52, 92
2, 175104, Note_on_c, 0, 40, 92
2, 175194, Note_on_c, 0, 66, 0
2, 175200, Note_on_c, 0, 67, 92
2, 175290, Note_on_c, 0, 67, 0
2, 175296, Note_on_c, 0, 66, 92
2, 175381, Note_on_c, 0, 40, 0
2, 175381, Note_on_c, 0, 52, 0
2, 175391, Note_on_c, 0, 66, 0
2, 175392, Note_on_c, 0, 64, 92
2, 175392, Note_on_c, 0, 47, 92
2, 175423, Note_on_c, 0, 47, 0
2, 175424, Note_on_c, 0, 49, 92
2, 175455, Note_on_c, 0, 49, 0
2, 175456, Note_on_c, 0, 50, 92
2, 175487, Note_on_c, 0, 50, 0
2, 175487, Note_on_c, 0, 64, 0
2, 175488, Note_on_c, 0, 64, 92
2, 175488, Note_on_c, 0, 52, 92
2, 175490, Note_on_c, 0, 67, 92
2, 175492, Note_on_c, 0, 71, 92
2, 175765, Note_on_c, 0, 52, 0
2, 175776, Note_on_c, 0, 50, 92
2, 175807, Note_on_c, 0, 50, 0
2, 175808, Note_on_c, 0, 64, 0
2, 175808, Note_on_c, 0, 49, 92
2, 175810, Note_on_c, 0, 67, 0
2, 175812, Note_on_c, 0, 71, 0
2, 175839, Note_on_c, 0, 49, 0
2, 175840, Note_on_c, 0, 71, 92
2, 175840, Note_on_c, 0, 47, 92
2, 175870, Note_on_c, 0, 71, 0
2, 175871, Note_on_c, 0, 47, 0
2, 175872, Note_on_c, 0, 71, 92
2, 175872, Note_on_c, 0, 48, 92
2, 175874, Note_on_c, 0, 52, 92
2, 175876, Note_on_c, 0, 55, 92
2, 176031, Note_on_c, 0, 71, 0
2, 176032, Note_on_c, 0, 66, 92
2, 176063, Note_on_c, 0, 66, 0
2, 176064, Note_on_c, 0, 67, 92
2, 176149, Note_on_c, 0, 48, 0
2, 176151, Note_on_c, 0, 52, 0
2, 176153, Note_on_c, 0, 55, 0
2, 176160, Note_on_c, 0, 52, 92
2, 176191, Note_on_c, 0, 52, 0
2, 176192, Note_on_c, 0, 54, 92
2, 176223, Note_on_c, 0, 54, 0
2, 176223, Note_on_c, 0, 67, 0
2, 176224, Note_on_c, 0, 64, 92
2, 176224, Note_on_c, 0, 55, 92
2, 176255, Note_on_c, 0, 55, 0
2, 176255, Note_on_c, 0, 64, 0
2, 176256, Note_on_c, 0, 72, 92
2, 176256, Note_on_c, 0, 64, 92
2, 176256, Note_on_c, 0, 69, 92
2, 176256, Note_on_c, 0, 57, 92
2, 176415, Note_on_c, 0, 57, 0
2, 176416, Note_on_c, 0, 60, 92
2, 176447, Note_on_c, 0, 60, 0
2, 176448, Note_on_c, 0, 52, 92
2, 176597, Note_on_c, 0, 69, 0
2, 176597, Note_on_c, 0, 72, 0
2, 176597, Note_on_c, 0, 64, 0
2, 176607, Note_on_c, 0, 52, 0
2, 176608, Note_on_c, 0, 72, 92
2, 176608, Note_on_c, 0, 55, 92
2, 176639, Note_on_c, 0, 55, 0
2, 176639, Note_on_c, 0, 72, 0
2, 176640, Note_on_c, 0, 72, 92
2, 176640, Note_on_c, 0, 57, 92
2, 176640, Note_on_c, 0, 62, 92
2, 176640, Note_on_c, 0, 54, 92
2, 176799, Note_on_c, 0, 72, 0
2, 176800, Note_on_c, 0, 67, 92
2, 176831, Note_on_c, 0, 67, 0
2, 176832, Note_on_c, 0, 69, 92
2, 176917, Note_on_c, 0, 54, 0
2, 176917, Note_on_c, 0, 57, 0
2, 176927, Note_on_c, 0, 62, 0
2, 176928, Note_on_c, 0, 52, 92
2, 176959, Note_on_c, 0, 52, 0
2, 176960, Note_on_c, 0, 50, 92
2, 176991, Note_on_c, 0, 50, 0
2, 176991, Note_on_c, 0, 69, 0
2, 176992, Note_on_c, 0, 66, 92
2, 176992, Note_on_c, 0, 48, 92
2, 177023, Note_on_c, 0, 48, 0
2, 177023, Note_on_c, 0, 66, 0
2, 177024, Note_on_c, 0, 74, 92
2, 177024, Note_on_c, 0, 66, 92
2, 177024, Note_on_c, 0, 71, 92
2, 177024, Note_on_c, 0, 47, 92
2, 177183, Note_on_c, 0, 47, 0
2, 177184, Note_on_c, 0, 42, 92
2, 177215, Note_on_c, 0, 42, 0
2, 177216, Note_on_c, 0, 50, 92
2, 177343, Note_on_c, 0, 71, 0
2, 177343, Note_on_c, 0, 74, 0
2, 177343, Note_on_c, 0, 66, 0
2, 177375, Note_on_c, 0, 50, 0
2, 177376, Note_on_c, 0, 74, 92
2, 177376, Note_on_c, 0, 47, 92
2, 177407, Note_on_c, 0, 47, 0
2, 177407, Note_on_c, 0, 74, 0
2, 177408, Note_on_c, 0, 64, 92
2, 177408, Note_on_c, 0, 71, 92
2, 177408, Note_on_c, 0, 74, 92
2, 177408, Note_on_c, 0, 59, 92
2, 177408, Note_on_c, 0, 56, 92
2, 177685, Note_on_c, 0, 74, 0
2, 177685, Note_on_c, 0, 64, 0
2, 177685, Note_on_c, 0, 71, 0
2, 177696, Note_on_c, 0, 77, 92
2, 177727, Note_on_c, 0, 77, 0
2, 177728, Note_on_c, 0, 76, 92
2, 177759, Note_on_c, 0, 76, 0
2, 177760, Note_on_c, 0, 74, 92
2, 177791, Note_on_c, 0, 74, 0
2, 177792, Note_on_c, 0, 83, 92
2, 177951, Note_on_c, 0, 83, 0
2, 177952, Note_on_c, 0, 74, 92
2, 177983, Note_on_c, 0, 74, 0
2, 177984, Note_on_c, 0, 76, 92
2, 178068, Note_on_c, 0, 59, 0
2, 178068, Note_on_c, 0, 56, 0
2, 178080, Note_on_c, 0, 52, 92
2, 178111, Note_on_c, 0, 52, 0
2, 178112, Note_on_c, 0, 54, 92
2, 178143, Note_on_c, 0, 54, 0
2, 178143, Note_on_c, 0, 76, 0
2, 178144, Note_on_c, 0, 71, 92
2, 178144, Note_on_c, 0, 56, 92
2, 178175, Note_on_c, 0, 56, 0
2, 178175, Note_on_c, 0, 71, 0
2, 178176, Note_on_c, 0, 71, 92
2, 178176, Note_on_c, 0, 57, 92
2, 178271, Note_on_c, 0, 57, 0
2, 178271, Note_on_c, 0, 71, 0
2, 178272, Note_on_c, 0, 72, 92
2, 178272, Note_on_c, 0, 59, 92
2, 178319, Note_on_c, 0, 59, 0
2, 178320, Note_on_c, 0, 60, 92
2, 178367, Note_on_c, 0, 60, 0
2, 178367, Note_on_c, 0, 72, 0
2, 178368, Note_on_c, 0, 71, 92
2, 178368, Note_on_c, 0, 62, 92
2, 178415, Note_on_c, 0, 62, 0
2, 178416, Note_on_c, 0, 64, 92
2, 178463, Note_on_c, 0, 64, 0
2, 178463, Note_on_c, 0, 71, 0
2, 178464, Note_on_c, 0, 69, 92
2, 178464, Note_on_c, 0, 66, 92
2, 178511, Note_on_c, 0, 66, 0
2, 178512, Note_on_c, 0, 68, 92
2, 178559, Note_on_c, 0, 68, 0
2, 178559, Note_on_c, 0, 69, 0
2, 178560, Note_on_c, 0, 76, 92
2, 178560, Note_on_c, 0, 69, 92
2, 178719, Note_on_c, 0, 69, 0
2, 178720, Note_on_c, 0, 66, 92
2, 178751, Note_on_c, 0, 66, 0
2, 178752, Note_on_c, 0, 67, 92
2, 178847, Note_on_c, 0, 76, 0
2, 178848, Note_on_c, 0, 76, 92
2, 178879, Note_on_c, 0, 76, 0
2, 178880, Note_on_c, 0, 74, 92
2, 178911, Note_on_c, 0, 74, 0
2, 178911, Note_on_c, 0, 67, 0
2, 178912, Note_on_c, 0, 76, 92
2, 178912, Note_on_c, 0, 64, 92
2, 178943, Note_on_c, 0, 64, 0
2, 178943, Note_on_c, 0, 76, 0
2, 178944, Note_on_c, 0, 76, 92
2, 178944, Note_on_c, 0, 66, 92
2, 179039, Note_on_c, 0, 76, 0
2, 179040, Note_on_c, 0, 75, 92
2, 179087, Note_on_c, 0, 75, 0
2, 179088, Note_on_c, 0, 73, 92
2, 179135, Note_on_c, 0, 73, 0
2, 179136, Note_on_c, 0, 75, 92
2, 179183, Note_on_c, 0, 75, 0
2, 179183, Note_on_c, 0, 66, 0
2, 179184, Note_on_c, 0, 76, 92
2, 179184, Note_on_c, 0, 67, 92
2, 179231, Note_on_c, 0, 67, 0
2, 179231, Note_on_c, 0, 76, 0
2, 179232, Note_on_c, 0, 78, 92
2, 179232, Note_on_c, 0, 66, 92
2, 179279, Note_on_c, 0, 66, 0
2, 179279, Note_on_c, 0, 78, 0
2, 179280, Note_on_c, 0, 79, 92
2, 179280, Note_on_c, 0, 64, 92
2, 179327, Note_on_c, 0, 64, 0
2, 179327, Note_on_c, 0, 79, 0
2, 179328, Note_on_c, 0, 81, 92
2, 179328, Note_on_c, 0, 63, 92
2, 179487, Note_on_c, 0, 81, 0
2, 179488, Note_on_c, 0, 72, 92
2, 179519, Note_on_c, 0, 72, 0
2, 179520, Note_on_c, 0, 71, 92
2, 179615, Note_on_c, 0, 63, 0
2, 179616, Note_on_c, 0, 59, 92
2, 179647, Note_on_c, 0, 59, 0
2, 179648, Note_on_c, 0, 61, 92
2, 179679, Note_on_c, 0, 61, 0
2, 179679, Note_on_c, 0, 71, 0
2, 179680, Note_on_c, 0, 81, 92
2, 179680, Note_on_c, 0, 63, 92
2, 179711, Note_on_c, 0, 63, 0
2, 179711, Note_on_c, 0, 81, 0
2, 179712, Note_on_c, 0, 79, 92
2, 179712, Note_on_c, 0, 64, 92
2, 179867, Note_on_c, 0, 79, 0
2, 179872, Note_on_c, 0, 71, 92
2, 179903, Note_on_c, 0, 71, 0
2, 179903, Note_on_c, 0, 64, 0
2, 179904, Note_on_c, 0, 70, 92
2, 179904, Note_on_c, 0, 61, 92
2, 180059, Note_on_c, 0, 70, 0
2, 180064, Note_on_c, 0, 76, 92
2, 180095, Note_on_c, 0, 76, 0
2, 180095, Note_on_c, 0, 61, 0
2, 180096, Note_on_c, 0, 78, 92
2, 180096, Note_on_c, 0, 62, 92
2, 180251, Note_on_c, 0, 78, 0
2, 180256, Note_on_c, 0, 69, 92
2, 180287, Note_on_c, 0, 69, 0
2, 180287, Note_on_c, 0, 62, 0
2, 180288, Note_on_c, 0, 68, 92
2, 180288, Note_on_c, 0, 59, 92
2, 180443, Note_on_c, 0, 68, 0
2, 180448, Note_on_c, 0, 74, 92
2, 180479, Note_on_c, 0, 74, 0
2, 180479, Note_on_c, 0, 59, 0
2, 180480, Note_on_c, 0, 76, 92
2, 180480, Note_on_c, 0, 61, 92
2, 180635, Note_on_c, 0, 76, 0
2, 180640, Note_on_c, 0, 67, 92
2, 180671, Note_on_c, 0, 67, 0
2, 180671, Note_on_c, 0, 61, 0
2, 180672, Note_on_c, 0, 66, 92
2, 180672, Note_on_c, 0, 58, 92
2, 180827, Note_on_c, 0, 66, 0
2, 180832, Note_on_c, 0, 73, 92
2, 180863, Note_on_c, 0, 73, 0
2, 180863, Note_on_c, 0, 58, 0
2, 180864, Note_on_c, 0, 74, 92
2, 180864, Note_on_c, 0, 59, 92
2, 181019, Note_on_c, 0, 74, 0
2, 181024, Note_on_c, 0, 70, 92
2, 181055, Note_on_c, 0, 70, 0
2, 181056, Note_on_c, 0, 71, 92
2, 181141, Note_on_c, 0, 59, 0
2, 181152, Note_on_c, 0, 47, 92
2, 181183, Note_on_c, 0, 47, 0
2, 181184, Note_on_c, 0, 49, 92
2, 181211, Note_on_c, 0, 71, 0
2, 181215, Note_on_c, 0, 49, 0
2, 181216, Note_on_c, 0, 66, 92
2, 181216, Note_on_c, 0, 50, 92
2, 181247, Note_on_c, 0, 50, 0
2, 181247, Note_on_c, 0, 66, 0
2, 181248, Note_on_c, 0, 67, 92
2, 181248, Note_on_c, 0, 52, 92
2, 181403, Note_on_c, 0, 67, 0
2, 181408, Note_on_c, 0, 63, 92
2, 181439, Note_on_c, 0, 63, 0
2, 181440, Note_on_c, 0, 64, 92
2, 181525, Note_on_c, 0, 52, 0
2, 181536, Note_on_c, 0, 50, 92
2, 181567, Note_on_c, 0, 50, 0
2, 181568, Note_on_c, 0, 52, 92
2, 181595, Note_on_c, 0, 64, 0
2, 181599, Note_on_c, 0, 52, 0
2, 181600, Note_on_c, 0, 67, 92
2, 181600, Note_on_c, 0, 54, 92
2, 181631, Note_on_c, 0, 54, 0
2, 181631, Note_on_c, 0, 67, 0
2, 181632, Note_on_c, 0, 73, 92
2, 181632, Note_on_c, 0, 55, 92
2, 181787, Note_on_c, 0, 73, 0
2, 181792, Note_on_c, 0, 70, 92
2, 181823, Note_on_c, 0, 70, 0
2, 181824, Note_on_c, 0, 76, 92
2, 181909, Note_on_c, 0, 55, 0
2, 181920, Note_on_c, 0, 52, 92
2, 181951, Note_on_c, 0, 52, 0
2, 181952, Note_on_c, 0, 54, 92
2, 181979, Note_on_c, 0, 76, 0
2, 181983, Note_on_c, 0, 54, 0
2, 181984, Note_on_c, 0, 73, 92
2, 181984, Note_on_c, 0, 55, 92
2, 182015, Note_on_c, 0, 55, 0
2, 182015, Note_on_c, 0, 73, 0
2, 182016, Note_on_c, 0, 79, 92
2, 182016, Note_on_c, 0, 46, 92
2, 182143, Note_on_c, 0, 79, 0
2, 182144, Note_on_c, 0, 78, 92
2, 182175, Note_on_c, 0, 78, 0
2, 182176, Note_on_c, 0, 76, 92
2, 182207, Note_on_c, 0, 76, 0
2, 182207, Note_on_c, 0, 46, 0
2, 182208, Note_on_c, 0, 82, 92
2, 182208, Note_on_c, 0, 42, 92
2, 182335, Note_on_c, 0, 82, 0
2, 182336, Note_on_c, 0, 80, 92
2, 182367, Note_on_c, 0, 80, 0
2, 182368, Note_on_c, 0, 78, 92
2, 182399, Note_on_c, 0, 78, 0
2, 182399, Note_on_c, 0, 42, 0
2, 182400, Note_on_c, 0, 83, 92
2, 182400, Note_on_c, 0, 50, 92
2, 182495, Note_on_c, 0, 83, 0
2, 182496, Note_on_c, 0, 81, 92
2, 182543, Note_on_c, 0, 81, 0
2, 182544, Note_on_c, 0, 79, 92
2, 182591, Note_on_c, 0, 79, 0
2, 182591, Note_on_c, 0, 50, 0
2, 182592, Note_on_c, 0, 78, 92
2, 182592, Note_on_c, 0, 47, 92
2, 182639, Note_on_c, 0, 78, 0
2, 182640, Note_on_c, 0, 76, 92
2, 182687, Note_on_c, 0, 76, 0
2, 182688, Note_on_c, 0, 74, 92
2, 182735, Note_on_c, 0, 74, 0
2, 182736, Note_on_c, 0, 73, 92
2, 182783, Note_on_c, 0, 73, 0
2, 182783, Note_on_c, 0, 47, 0
2, 182784, Note_on_c, 0, 74, 92
2, 182784, Note_on_c, 0, 54, 92
2, 182831, Note_on_c, 0, 74, 0
2, 182832, Note_on_c, 0, 73, 92
2, 182879, Note_on_c, 0, 73, 0
2, 182880, Note_on_c, 0, 71, 92
2, 182927, Note_on_c, 0, 71, 0
2, 182928, Note_on_c, 0, 70, 92
2, 182975, Note_on_c, 0, 70, 0
2, 182976, Note_on_c, 0, 71, 92
2, 182976, Note_on_c, 0, 62, 92
2, 183131, Note_on_c, 0, 71, 0
2, 183136, Note_on_c, 0, 65, 92
2, 183167, Note_on_c, 0, 65, 0
2, 183167, Note_on_c, 0, 62, 0
2, 183168, Note_on_c, 0, 66, 92
2, 183168, Note_on_c, 0, 61, 92
2, 183323, Note_on_c, 0, 66, 0
2, 183328, Note_on_c, 0, 71, 92
2, 183359, Note_on_c, 0, 71, 0
2, 183359, Note_on_c, 0, 61, 0
2, 183360, Note_on_c, 0, 73, 92
2, 183360, Note_on_c, 0, 64, 92
2, 183515, Note_on_c, 0, 73, 0
2, 183520, Note_on_c, 0, 70, 92
2, 183551, Note_on_c, 0, 70, 0
2, 183551, Note_on_c, 0, 64, 0
2, 183551, Note_on_c, 0, 54, 0
2, 183552, Note_on_c, 0, 70, 92
2, 183552, Note_on_c, 0, 64, 92
2, 183552, Note_on_c, 0, 47, 92
2, 183743, Note_on_c, 0, 64, 0
2, 183743, Note_on_c, 0, 70, 0
2, 183744, Note_on_c, 0, 71, 92
2, 183744, Note_on_c, 0, 63, 92
2, 183871, Note_on_c, 0, 47, 0
2, 183872, Note_on_c, 0, 51, 92
2, 183903, Note_on_c, 0, 51, 0
2, 183904, Note_on_c, 0, 54, 92
2, 183934, Note_on_c, 0, 63, 0
2, 183935, Note_on_c, 0, 54, 0
2, 183936, Note_on_c, 0, 59, 92
2, 184064, Note_on_c, 0, 63, 92
2, 184095, Note_on_c, 0, 63, 0
2, 184096, Note_on_c, 0, 66, 92
2, 184124, Note_on_c, 0, 71, 0
2, 184126, Note_on_c, 0, 59, 0
2, 184127, Note_on_c, 0, 66, 0
2, 184128, Note_on_c, 0, 71, 92
2, 184256, Note_on_c, 0, 75, 92
2, 184287, Note_on_c, 0, 75, 0
2, 184288, Note_on_c, 0, 78, 92
2, 184318, Note_on_c, 0, 71, 0
2, 184319, Note_on_c, 0, 78, 0
2, 184320, Note_on_c, 0, 83, 92
2, 184448, Note_on_c, 0, 78, 92
2, 184479, Note_on_c, 0, 78, 0
2, 184480, Note_on_c, 0, 75, 92
2, 184511, Note_on_c, 0, 75, 0
2, 184512, Note_on_c, 0, 71, 92
2, 184640, Note_on_c, 0, 66, 92
2, 184671, Note_on_c, 0, 66, 0
2, 184672, Note_on_c, 0, 63, 92
2, 184700, Note_on_c, 0, 83, 0
2, 184702, Note_on_c, 0, 71, 0
2, 184703, Note_on_c, 0, 63, 0
2, 184704, Note_on_c, 0, 59, 92
2, 184992, Note_on_c, 0, 59, 0
2, 185056, Note_on_c, 0, 78, 92
2, 185087, Note_on_c, 0, 78, 0
2, 185088, Note_on_c, 0, 71, 92
2, 185088, Note_on_c, 0, 75, 92
2, 185088, Note_on_c, 0, 78, 92
2, 185088, Note_on_c, 0, 47, 92
2, 185279, Note_on_c, 0, 47, 0
2, 185280, Note_on_c, 0, 59, 92
2, 185365, Note_on_c, 0, 71, 0
2, 185365, Note_on_c, 0, 78, 0
2, 185365, Note_on_c, 0, 75, 0
2, 185376, Note_on_c, 0, 76, 92
2, 185407, Note_on_c, 0, 76, 0
2, 185408, Note_on_c, 0, 75, 92
2, 185439, Note_on_c, 0, 75, 0
2, 185440, Note_on_c, 0, 73, 92
2, 185471, Note_on_c, 0, 73, 0
2, 185471, Note_on_c, 0, 59, 0
2, 185472, Note_on_c, 0, 75, 92
2, 185472, Note_on_c, 0, 54, 92
2, 185663, Note_on_c, 0, 54, 0
2, 185664, Note_on_c, 0, 57, 92
2, 185749, Note_on_c, 0, 75, 0
2, 185760, Note_on_c, 0, 72, 92
2, 185791, Note_on_c, 0, 72, 0
2, 185792, Note_on_c, 0, 71, 92
2, 185823, Note_on_c, 0, 71, 0
2, 185824, Note_on_c, 0, 69, 92
2, 185855, Note_on_c, 0, 69, 0
2, 185855, Note_on_c, 0, 57, 0
2, 185856, Note_on_c, 0, 71, 92
2, 185856, Note_on_c, 0, 51, 92
2, 186015, Note_on_c, 0, 71, 0
2, 186016, Note_on_c, 0, 66, 92
2, 186047, Note_on_c, 0, 66, 0
2, 186047, Note_on_c, 0, 51, 0
2, 186048, Note_on_c, 0, 69, 92
2, 186048, Note_on_c, 0, 54, 92
2, 186207, Note_on_c, 0, 69, 0
2, 186208, Note_on_c, 0, 72, 92
2, 186239, Note_on_c, 0, 72, 0
2, 186239, Note_on_c, 0, 54, 0
2, 186240, Note_on_c, 0, 76, 92
2, 186240, Note_on_c, 0, 47, 92
2, 186287, Note_on_c, 0, 76, 0
2, 186288, Note_on_c, 0, 75, 92
2, 186335, Note_on_c, 0, 75, 0
2, 186336, Note_on_c, 0, 73, 92
2, 186383, Note_on_c, 0, 73, 0
2, 186384, Note_on_c, 0, 71, 92
2, 186431, Note_on_c, 0, 71, 0
2, 186431, Note_on_c, 0, 47, 0
2, 186432, Note_on_c, 0, 81, 92
2, 186432, Note_on_c, 0, 51, 92
2, 186591, Note_on_c, 0, 81, 0
2, 186592, Note_on_c, 0, 78, 92
2, 186623, Note_on_c, 0, 78, 0
2, 186623, Note_on_c, 0, 51, 0
2, 186624, Note_on_c, 0, 79, 92
2, 186624, Note_on_c, 0, 40, 92
2, 186672, Note_on_c, 0, 76, 92
2, 186719, Note_on_c, 0, 76, 0
2, 186720, Note_on_c, 0, 74, 92
2, 186767, Note_on_c, 0, 74, 0
2, 186768, Note_on_c, 0, 72, 92
2, 186814, Note_on_c, 0, 40, 0
2, 186815, Note_on_c, 0, 72, 0
2, 186816, Note_on_c, 0, 71, 92
2, 186863, Note_on_c, 0, 71, 0
2, 186864, Note_on_c, 0, 69, 92
2, 186911, Note_on_c, 0, 69, 0
2, 186912, Note_on_c, 0, 67, 92
2, 186959, Note_on_c, 0, 67, 0
2, 186960, Note_on_c, 0, 66, 92
2, 187007, Note_on_c, 0, 66, 0
2, 187008, Note_on_c, 0, 64, 92
2, 187055, Note_on_c, 0, 64, 0
2, 187055, Note_on_c, 0, 79, 0
2, 187056, Note_on_c, 0, 83, 92
2, 187056, Note_on_c, 0, 67, 92
2, 187103, Note_on_c, 0, 67, 0
2, 187103, Note_on_c, 0, 83, 0
2, 187104, Note_on_c, 0, 81, 92
2, 187104, Note_on_c, 0, 66, 92
2, 187151, Note_on_c, 0, 66, 0
2, 187151, Note_on_c, 0, 81, 0
2, 187152, Note_on_c, 0, 79, 92
2, 187152, Note_on_c, 0, 64, 92
2, 187199, Note_on_c, 0, 64, 0
2, 187199, Note_on_c, 0, 79, 0
2, 187200, Note_on_c, 0, 78, 92
2, 187200, Note_on_c, 0, 62, 92
2, 187247, Note_on_c, 0, 62, 0
2, 187247, Note_on_c, 0, 78, 0
2, 187248, Note_on_c, 0, 76, 92
2, 187248, Note_on_c, 0, 60, 92
2, 187295, Note_on_c, 0, 60, 0
2, 187295, Note_on_c, 0, 76, 0
2, 187296, Note_on_c, 0, 74, 92
2, 187296, Note_on_c, 0, 59, 92
2, 187343, Note_on_c, 0, 59, 0
2, 187343, Note_on_c, 0, 74, 0
2, 187344, Note_on_c, 0, 72, 92
2, 187344, Note_on_c, 0, 57, 92
2, 187391, Note_on_c, 0, 57, 0
2, 187391, Note_on_c, 0, 72, 0
2, 187392, Note_on_c, 0, 74, 92
2, 187392, Note_on_c, 0, 56, 92
2, 187439, Note_on_c, 0, 74, 0
2, 187440, Note_on_c, 0, 77, 92
2, 187487, Note_on_c, 0, 77, 0
2, 187488, Note_on_c, 0, 76, 92
2, 187535, Note_on_c, 0, 76, 0
2, 187536, Note_on_c, 0, 74, 92
2, 187583, Note_on_c, 0, 74, 0
2, 187584, Note_on_c, 0, 83, 92
2, 187669, Note_on_c, 0, 56, 0
2, 187680, Note_on_c, 0, 53, 92
2, 187711, Note_on_c, 0, 53, 0
2, 187712, Note_on_c, 0, 52, 92
2, 187740, Note_on_c, 0, 83, 0
2, 187743, Note_on_c, 0, 52, 0
2, 187744, Note_on_c, 0, 84, 92
2, 187744, Note_on_c, 0, 50, 92
2, 187775, Note_on_c, 0, 50, 0
2, 187775, Note_on_c, 0, 84, 0
2, 187776, Note_on_c, 0, 81, 92
2, 187776, Note_on_c, 0, 59, 92
2, 187807, Note_on_c, 0, 81, 0
2, 187808, Note_on_c, 0, 80, 92
2, 187839, Note_on_c, 0, 80, 0
2, 187840, Note_on_c, 0, 81, 92
2, 187871, Note_on_c, 0, 81, 0
2, 187872, Note_on_c, 0, 80, 92
2, 187903, Note_on_c, 0, 80, 0
2, 187904, Note_on_c, 0, 81, 92
2, 187935, Note_on_c, 0, 81, 0
2, 187935, Note_on_c, 0, 59, 0
2, 187936, Note_on_c, 0, 80, 92
2, 187936, Note_on_c, 0, 50, 92
2, 187967, Note_on_c, 0, 50, 0
2, 187967, Note_on_c, 0, 80, 0
2, 187968, Note_on_c, 0, 81, 92
2, 187968, Note_on_c, 0, 52, 92
2, 187999, Note_on_c, 0, 81, 0
2, 188000, Note_on_c, 0, 80, 92
2, 188031, Note_on_c, 0, 80, 0
2, 188032, Note_on_c, 0, 81, 92
2, 188063, Note_on_c, 0, 81, 0
2, 188064, Note_on_c, 0, 80, 92
2, 188095, Note_on_c, 0, 80, 0
2, 188096, Note_on_c, 0, 78, 92
2, 188127, Note_on_c, 0, 78, 0
2, 188127, Note_on_c, 0, 52, 0
2, 188128, Note_on_c, 0, 80, 92
2, 188128, Note_on_c, 0, 47, 92
2, 188159, Note_on_c, 0, 47, 0
2, 188159, Note_on_c, 0, 80, 0
2, 188160, Note_on_c, 0, 81, 92
2, 188160, Note_on_c, 0, 48, 92
2, 188287, Note_on_c, 0, 81, 0
2, 188288, Note_on_c, 0, 69, 92
2, 188319, Note_on_c, 0, 69, 0
2, 188320, Note_on_c, 0, 71, 92
2, 188351, Note_on_c, 0, 71, 0
2, 188352, Note_on_c, 0, 72, 92
2, 188383, Note_on_c, 0, 72, 0
2, 188384, Note_on_c, 0, 71, 92
2, 188415, Note_on_c, 0, 71, 0
2, 188416, Note_on_c, 0, 72, 92
2, 188437, Note_on_c, 0, 48, 0
2, 188447, Note_on_c, 0, 72, 0
2, 188448, Note_on_c, 0, 71, 92
2, 188448, Note_on_c, 0, 52, 92
2, 188479, Note_on_c, 0, 52, 0
2, 188479, Note_on_c, 0, 71, 0
2, 188480, Note_on_c, 0, 69, 92
2, 188480, Note_on_c, 0, 54, 92
2, 188511, Note_on_c, 0, 54, 0
2, 188511, Note_on_c, 0, 69, 0
2, 188512, Note_on_c, 0, 71, 92
2, 188512, Note_on_c, 0, 56, 92
2, 188543, Note_on_c, 0, 56, 0
2, 188543, Note_on_c, 0, 71, 0
2, 188544, Note_on_c, 0, 72, 92
2, 188544, Note_on_c, 0, 57, 92
2, 188639, Note_on_c, 0, 72, 0
2, 188640, Note_on_c, 0, 71, 92
2, 188687, Note_on_c, 0, 71, 0
2, 188688, Note_on_c, 0, 69, 92
2, 188735, Note_on_c, 0, 69, 0
2, 188736, Note_on_c, 0, 71, 92
2, 188783, Note_on_c, 0, 71, 0
2, 188784, Note_on_c, 0, 72, 92
2, 188821, Note_on_c, 0, 57, 0
2, 188831, Note_on_c, 0, 72, 0
2, 188832, Note_on_c, 0, 74, 92
2, 188832, Note_on_c, 0, 55, 92
2, 188863, Note_on_c, 0, 55, 0
2, 188864, Note_on_c, 0, 53, 92
2, 188879, Note_on_c, 0, 74, 0
2, 188880, Note_on_c, 0, 76, 92
2, 188895, Note_on_c, 0, 53, 0
2, 188896, Note_on_c, 0, 52, 92
2, 188927, Note_on_c, 0, 52, 0
2, 188927, Note_on_c, 0, 76, 0
2, 188928, Note_on_c, 0, 77, 92
2, 188928, Note_on_c, 0, 50, 92
2, 189083, Note_on_c, 0, 77, 0
2, 189088, Note_on_c, 0, 69, 92
2, 189119, Note_on_c, 0, 69, 0
2, 189119, Note_on_c, 0, 50, 0
2, 189120, Note_on_c, 0, 68, 92
2, 189120, Note_on_c, 0, 59, 92
2, 189275, Note_on_c, 0, 68, 0
2, 189280, Note_on_c, 0, 74, 92
2, 189311, Note_on_c, 0, 74, 0
2, 189311, Note_on_c, 0, 59, 0
2, 189312, Note_on_c, 0, 76, 92
2, 189312, Note_on_c, 0, 49, 92
2, 189467, Note_on_c, 0, 76, 0
2, 189472, Note_on_c, 0, 67, 92
2, 189503, Note_on_c, 0, 67, 0
2, 189503, Note_on_c, 0, 49, 0
2, 189504, Note_on_c, 0, 66, 92
2, 189504, Note_on_c, 0, 57, 92
2, 189659, Note_on_c, 0, 66, 0
2, 189664, Note_on_c, 0, 73, 92
2, 189695, Note_on_c, 0, 73, 0
2, 189695, Note_on_c, 0, 57, 0
2, 189696, Note_on_c, 0, 74, 92
2, 189696, Note_on_c, 0, 47, 92
2, 189851, Note_on_c, 0, 74, 0
2, 189856, Note_on_c, 0, 65, 92
2, 189887, Note_on_c, 0, 65, 0
2, 189887, Note_on_c, 0, 47, 0
2, 189888, Note_on_c, 0, 64, 92
2, 189888, Note_on_c, 0, 56, 92
2, 190043, Note_on_c, 0, 64, 0
2, 190048, Note_on_c, 0, 71, 92
2, 190079, Note_on_c, 0, 71, 0
2, 190079, Note_on_c, 0, 56, 0
2, 190080, Note_on_c, 0, 72, 92
2, 190080, Note_on_c, 0, 45, 92
2, 190235, Note_on_c, 0, 72, 0
2, 190240, Note_on_c, 0, 64, 92
2, 190271, Note_on_c, 0, 64, 0
2, 190271, Note_on_c, 0, 45, 0
2, 190272, Note_on_c, 0, 63, 92
2, 190272, Note_on_c, 0, 54, 92
2, 190427, Note_on_c, 0, 63, 0
2, 190432, Note_on_c, 0, 69, 92
2, 190463, Note_on_c, 0, 69, 0
2, 190463, Note_on_c, 0, 54, 0
2, 190464, Note_on_c, 0, 71, 92
2, 190464, Note_on_c, 0, 55, 92
2, 190619, Note_on_c, 0, 71, 0
2, 190624, Note_on_c, 0, 62, 92
2, 190655, Note_on_c, 0, 62, 0
2, 190655, Note_on_c, 0, 55, 0
2, 190656, Note_on_c, 0, 61, 92
2, 190656, Note_on_c, 0, 57, 92
2, 190811, Note_on_c, 0, 61, 0
2, 190816, Note_on_c, 0, 68, 92
2, 190847, Note_on_c, 0, 68, 0
2, 190847, Note_on_c, 0, 57, 0
2, 190848, Note_on_c, 0, 69, 92
2, 190848, Note_on_c, 0, 53, 92
2, 191003, Note_on_c, 0, 69, 0
2, 191008, Note_on_c, 0, 60, 92
2, 191039, Note_on_c, 0, 60, 0
2, 191039, Note_on_c, 0, 53, 0
2, 191040, Note_on_c, 0, 59, 92
2, 191040, Note_on_c, 0, 50, 92
2, 191195, Note_on_c, 0, 59, 0
2, 191200, Note_on_c, 0, 66, 92
2, 191231, Note_on_c, 0, 66, 0
2, 191231, Note_on_c, 0, 50, 0
2, 191232, Note_on_c, 0, 69, 92
2, 191232, Note_on_c, 0, 52, 92
2, 191327, Note_on_c, 0, 69, 0
2, 191328, Note_on_c, 0, 68, 92
2, 191423, Note_on_c, 0, 68, 0
2, 191424, Note_on_c, 0, 66, 92
2, 191519, Note_on_c, 0, 66, 0
2, 191520, Note_on_c, 0, 64, 92
2, 191615, Note_on_c, 0, 64, 0
2, 191616, Note_on_c, 0, 74, 92
2, 191647, Note_on_c, 0, 74, 0
2, 191648, Note_on_c, 0, 72, 92
2, 191679, Note_on_c, 0, 72, 0
2, 191680, Note_on_c, 0, 74, 92
2, 191729, Note_on_c, 0, 52, 0
2, 191744, Note_on_c, 0, 56, 92
2, 191775, Note_on_c, 0, 56, 0
2, 191776, Note_on_c, 0, 59, 92
2, 191807, Note_on_c, 0, 59, 0
2, 191808, Note_on_c, 0, 64, 92
2, 191935, Note_on_c, 0, 64, 0
2, 191935, Note_on_c, 0, 74, 0
2, 191936, Note_on_c, 0, 76, 92
2, 191936, Note_on_c, 0, 66, 92
2, 191967, Note_on_c, 0, 66, 0
2, 191968, Note_on_c, 0, 68, 92
2, 191999, Note_on_c, 0, 68, 0
2, 191999, Note_on_c, 0, 76, 0
2, 192000, Note_on_c, 0, 72, 92
2, 192000, Note_on_c, 0, 69, 92
2, 192095, Note_on_c, 0, 72, 0
2, 192096, Note_on_c, 0, 77, 92
2, 192127, Note_on_c, 0, 77, 0
2, 192128, Note_on_c, 0, 76, 92
2, 192159, Note_on_c, 0, 76, 0
2, 192159, Note_on_c, 0, 69, 0
2, 192160, Note_on_c, 0, 74, 92
2, 192160, Note_on_c, 0, 67, 92
2, 192191, Note_on_c, 0, 67, 0
2, 192191, Note_on_c, 0, 74, 0
2, 192192, Note_on_c, 0, 80, 92
2, 192192, Note_on_c, 0, 65, 92
2, 192351, Note_on_c, 0, 65, 0
2, 192351, Note_on_c, 0, 80, 0
2, 192352, Note_on_c, 0, 81, 92
2, 192352, Note_on_c, 0, 62, 92
2, 192383, Note_on_c, 0, 62, 0
2, 192383, Note_on_c, 0, 81, 0
2, 192384, Note_on_c, 0, 72, 92
2, 192384, Note_on_c, 0, 68, 92
2, 192384, Note_on_c, 0, 64, 92
2, 192415, Note_on_c, 0, 72, 0
2, 192416, Note_on_c, 0, 71, 92
2, 192447, Note_on_c, 0, 71, 0
2, 192448, Note_on_c, 0, 72, 92
2, 192479, Note_on_c, 0, 72, 0
2, 192480, Note_on_c, 0, 71, 92
2, 192511, Note_on_c, 0, 71, 0
2, 192512, Note_on_c, 0, 72, 92
2, 192543, Note_on_c, 0, 72, 0
2, 192544, Note_on_c, 0, 71, 92
2, 192575, Note_on_c, 0, 64, 0
2, 192575, Note_on_c, 0, 68, 0
2, 192576, Note_on_c, 0, 52, 92
2, 192735, Note_on_c, 0, 71, 0
2, 192736, Note_on_c, 0, 69, 92
2, 192767, Note_on_c, 0, 69, 0
2, 192767, Note_on_c, 0, 52, 0
2, 192768, Note_on_c, 0, 69, 92
2, 192768, Note_on_c, 0, 57, 92
2, 192927, Note_on_c, 0, 57, 0
2, 192928, Note_on_c, 0, 52, 92
2, 192959, Note_on_c, 0, 52, 0
2, 192960, Note_on_c, 0, 48, 92
2, 193055, Note_on_c, 0, 69, 0
2, 193056, Note_on_c, 0, 71, 92
2, 193087, Note_on_c, 0, 71, 0
2, 193088, Note_on_c, 0, 69, 92
2, 193119, Note_on_c, 0, 69, 0
2, 193119, Note_on_c, 0, 48, 0
2, 193120, Note_on_c, 0, 68, 92
2, 193120, Note_on_c, 0, 52, 92
2, 193151, Note_on_c, 0, 52, 0
2, 193151, Note_on_c, 0, 68, 0
2, 193152, Note_on_c, 0, 69, 92
2, 193152, Note_on_c, 0, 45, 92
2, 193199, Note_on_c, 0, 69, 0
2, 193200, Note_on_c, 0, 71, 92
2, 193247, Note_on_c, 0, 71, 0
2, 193248, Note_on_c, 0, 72, 92
2, 193295, Note_on_c, 0, 72, 0
2, 193296, Note_on_c, 0, 74, 92
2, 193343, Note_on_c, 0, 74, 0
2, 193344, Note_on_c, 0, 76, 92
2, 193391, Note_on_c, 0, 76, 0
2, 193392, Note_on_c, 0, 77, 92
2, 193422, Note_on_c, 0, 45, 0
2, 193439, Note_on_c, 0, 77, 0
2, 193440, Note_on_c, 0, 79, 92
2, 193440, Note_on_c, 0, 57, 92
2, 193471, Note_on_c, 0, 57, 0
2, 193472, Note_on_c, 0, 59, 92
2, 193487, Note_on_c, 0, 79, 0
2, 193488, Note_on_c, 0, 76, 92
2, 193503, Note_on_c, 0, 59, 0
2, 193504, Note_on_c, 0, 60, 92
2, 193535, Note_on_c, 0, 60, 0
2, 193535, Note_on_c, 0, 76, 0
2, 193536, Note_on_c, 0, 77, 92
2, 193536, Note_on_c, 0, 62, 92
2, 193663, Note_on_c, 0, 62, 0
2, 193664, Note_on_c, 0, 65, 92
2, 193695, Note_on_c, 0, 65, 0
2, 193696, Note_on_c, 0, 62, 92
2, 193727, Note_on_c, 0, 62, 0
2, 193727, Note_on_c, 0, 77, 0
2, 193728, Note_on_c, 0, 76, 92
2, 193728, Note_on_c, 0, 57, 92
2, 193823, Note_on_c, 0, 76, 0
2, 193824, Note_on_c, 0, 74, 92
2, 193855, Note_on_c, 0, 57, 0
2, 193856, Note_on_c, 0, 60, 92
2, 193887, Note_on_c, 0, 60, 0
2, 193888, Note_on_c, 0, 57, 92
2, 193919, Note_on_c, 0, 57, 0
2, 193919, Note_on_c, 0, 74, 0
2, 193920, Note_on_c, 0, 81, 92
2, 193920, Note_on_c, 0, 53, 92
2, 193951, Note_on_c, 0, 81, 0
2, 193952, Note_on_c, 0, 79, 92
2, 193983, Note_on_c, 0, 79, 0
2, 193984, Note_on_c, 0, 81, 92
2, 194047, Note_on_c, 0, 53, 0
2, 194048, Note_on_c, 0, 57, 92
2, 194079, Note_on_c, 0, 57, 0
2, 194080, Note_on_c, 0, 54, 92
2, 194111, Note_on_c, 0, 54, 0
2, 194112, Note_on_c, 0, 51, 92
2, 194207, Note_on_c, 0, 81, 0
2, 194208, Note_on_c, 0, 81, 92
2, 194239, Note_on_c, 0, 51, 0
2, 194240, Note_on_c, 0, 54, 92
2, 194271, Note_on_c, 0, 54, 0
2, 194272, Note_on_c, 0, 51, 92
2, 194303, Note_on_c, 0, 51, 0
2, 194303, Note_on_c, 0, 81, 0
2, 194304, Note_on_c, 0, 75, 92
2, 194304, Note_on_c, 0, 45, 92
2, 194431, Note_on_c, 0, 45, 0
2, 194432, Note_on_c, 0, 48, 92
2, 194463, Note_on_c, 0, 48, 0
2, 194464, Note_on_c, 0, 45, 92
2, 194495, Note_on_c, 0, 45, 0
2, 194496, Note_on_c, 0, 42, 92
2, 194581, Note_on_c, 0, 75, 0
2, 194592, Note_on_c, 0, 76, 92
2, 194623, Note_on_c, 0, 76, 0
2, 194623, Note_on_c, 0, 42, 0
2, 194624, Note_on_c, 0, 78, 92
2, 194624, Note_on_c, 0, 45, 92
2, 194655, Note_on_c, 0, 45, 0
2, 194655, Note_on_c, 0, 78, 0
2, 194656, Note_on_c, 0, 79, 92
2, 194656, Note_on_c, 0, 42, 92
2, 194687, Note_on_c, 0, 42, 0
2, 194687, Note_on_c, 0, 79, 0
2, 194688, Note_on_c, 0, 81, 92
2, 194688, Note_on_c, 0, 39, 92
2, 194735, Note_on_c, 0, 81, 0
2, 194736, Note_on_c, 0, 84, 92
2, 194783, Note_on_c, 0, 84, 0
2, 194784, Note_on_c, 0, 83, 92
2, 194831, Note_on_c, 0, 83, 0
2, 194832, Note_on_c, 0, 81, 92
2, 194879, Note_on_c, 0, 81, 0
2, 194880, Note_on_c, 0, 83, 92
2, 194948, Note_on_c, 0, 39, 0
2, 194976, Note_on_c, 0, 47, 92
2, 195007, Note_on_c, 0, 47, 0
2, 195008, Note_on_c, 0, 49, 92
2, 195039, Note_on_c, 0, 49, 0
2, 195039, Note_on_c, 0, 83, 0
2, 195040, Note_on_c, 0, 78, 92
2, 195040, Note_on_c, 0, 51, 92
2, 195071, Note_on_c, 0, 51, 0
2, 195071, Note_on_c, 0, 78, 0
2, 195072, Note_on_c, 0, 79, 92
2, 195072, Note_on_c, 0, 52, 92
2, 195199, Note_on_c, 0, 79, 0
2, 195200, Note_on_c, 0, 83, 92
2, 195231, Note_on_c, 0, 83, 0
2, 195232, Note_on_c, 0, 79, 92
2, 195263, Note_on_c, 0, 79, 0
2, 195264, Note_on_c, 0, 76, 92
2, 195349, Note_on_c, 0, 52, 0
2, 195360, Note_on_c, 0, 50, 92
2, 195391, Note_on_c, 0, 50, 0
2, 195391, Note_on_c, 0, 76, 0
2, 195392, Note_on_c, 0, 79, 92
2, 195392, Note_on_c, 0, 48, 92
2, 195423, Note_on_c, 0, 48, 0
2, 195423, Note_on_c, 0, 79, 0
2, 195424, Note_on_c, 0, 76, 92
2, 195424, Note_on_c, 0, 47, 92
2, 195455, Note_on_c, 0, 47, 0
2, 195455, Note_on_c, 0, 76, 0
2, 195456, Note_on_c, 0, 72, 92
2, 195456, Note_on_c, 0, 45, 92
2, 195583, Note_on_c, 0, 72, 0
2, 195584, Note_on_c, 0, 76, 92
2, 195615, Note_on_c, 0, 76, 0
2, 195616, Note_on_c, 0, 72, 92
2, 195647, Note_on_c, 0, 72, 0
2, 195648, Note_on_c, 0, 69, 92
2, 195733, Note_on_c, 0, 45, 0
2, 195744, Note_on_c, 0, 57, 92
2, 195775, Note_on_c, 0, 57, 0
2, 195775, Note_on_c, 0, 69, 0
2, 195776, Note_on_c, 0, 72, 92
2, 195776, Note_on_c, 0, 59, 92
2, 195807, Note_on_c, 0, 59, 0
2, 195807, Note_on_c, 0, 72, 0
2, 195808, Note_on_c, 0, 76, 92
2, 195808, Note_on_c, 0, 60, 92
2, 195839, Note_on_c, 0, 60, 0
2, 195839, Note_on_c, 0, 76, 0
2, 195840, Note_on_c, 0, 78, 92
2, 195840, Note_on_c, 0, 62, 92
2, 195967, Note_on_c, 0, 78, 0
2, 195968, Note_on_c, 0, 81, 92
2, 195999, Note_on_c, 0, 81, 0
2, 196000, Note_on_c, 0, 78, 92
2, 196031, Note_on_c, 0, 78, 0
2, 196032, Note_on_c, 0, 74, 92
2, 196117, Note_on_c, 0, 62, 0
2, 196128, Note_on_c, 0, 60, 92
2, 196159, Note_on_c, 0, 60, 0
2, 196159, Note_on_c, 0, 74, 0
2, 196160, Note_on_c, 0, 78, 92
2, 196160, Note_on_c, 0, 59, 92
2, 196191, Note_on_c, 0, 59, 0
2, 196191, Note_on_c, 0, 78, 0
2, 196192, Note_on_c, 0, 74, 92
2, 196192, Note_on_c, 0, 57, 92
2, 196223, Note_on_c, 0, 57, 0
2, 196223, Note_on_c, 0, 74, 0
2, 196224, Note_on_c, 0, 71, 92
2, 196224, Note_on_c, 0, 55, 92
2, 196351, Note_on_c, 0, 71, 0
2, 196352, Note_on_c, 0, 74, 92
2, 196383, Note_on_c, 0, 74, 0
2, 196384, Note_on_c, 0, 71, 92
2, 196415, Note_on_c, 0, 71, 0
2, 196416, Note_on_c, 0, 67, 92
2, 196501, Note_on_c, 0, 55, 0
2, 196512, Note_on_c, 0, 43, 92
2, 196543, Note_on_c, 0, 43, 0
2, 196543, Note_on_c, 0, 67, 0
2, 196544, Note_on_c, 0, 71, 92
2, 196544, Note_on_c, 0, 45, 92
2, 196575, Note_on_c, 0, 45, 0
2, 196575, Note_on_c, 0, 71, 0
2, 196576, Note_on_c, 0, 74, 92
2, 196576, Note_on_c, 0, 47, 92
2, 196607, Note_on_c, 0, 47, 0
2, 196607, Note_on_c, 0, 74, 0
2, 196608, Note_on_c, 0, 76, 92
2, 196608, Note_on_c, 0, 48, 92
2, 196735, Note_on_c, 0, 76, 0
2, 196736, Note_on_c, 0, 79, 92
2, 196767, Note_on_c, 0, 79, 0
2, 196768, Note_on_c, 0, 76, 92
2, 196799, Note_on_c, 0, 76, 0
2, 196800, Note_on_c, 0, 72, 92
2, 196885, Note_on_c, 0, 48, 0
2, 196896, Note_on_c, 0, 47, 92
2, 196927, Note_on_c, 0, 47, 0
2, 196927, Note_on_c, 0, 72, 0
2, 196928, Note_on_c, 0, 76, 92
2, 196928, Note_on_c, 0, 45, 92
2, 196959, Note_on_c, 0, 45, 0
2, 196959, Note_on_c, 0, 76, 0
2, 196960, Note_on_c, 0, 72, 92
2, 196960, Note_on_c, 0, 43, 92
2, 196991, Note_on_c, 0, 43, 0
2, 196991, Note_on_c, 0, 72, 0
2, 196992, Note_on_c, 0, 69, 92
2, 196992, Note_on_c, 0, 42, 92
2, 197119, Note_on_c, 0, 69, 0
2, 197120, Note_on_c, 0, 72, 92
2, 197151, Note_on_c, 0, 72, 0
2, 197152, Note_on_c, 0, 69, 92
2, 197183, Note_on_c, 0, 69, 0
2, 197184, Note_on_c, 0, 66, 92
2, 197269, Note_on_c, 0, 42, 0
2, 197280, Note_on_c, 0, 54, 92
2, 197311, Note_on_c, 0, 54, 0
2, 197311, Note_on_c, 0, 66, 0
2, 197312, Note_on_c, 0, 69, 92
2, 197312, Note_on_c, 0, 55, 92
2, 197343, Note_on_c, 0, 55, 0
2, 197343, Note_on_c, 0, 69, 0
2, 197344, Note_on_c, 0, 72, 92
2, 197344, Note_on_c, 0, 57, 92
2, 197375, Note_on_c, 0, 57, 0
2, 197375, Note_on_c, 0, 72, 0
2, 197376, Note_on_c, 0, 63, 92
2, 197376, Note_on_c, 0, 59, 92
2, 197503, Note_on_c, 0, 63, 0
2, 197504, Note_on_c, 0, 66, 92
2, 197535, Note_on_c, 0, 66, 0
2, 197536, Note_on_c, 0, 69, 92
2, 197567, Note_on_c, 0, 69, 0
2, 197568, Note_on_c, 0, 72, 92
2, 197695, Note_on_c, 0, 72, 0
2, 197696, Note_on_c, 0, 71, 92
2, 197727, Note_on_c, 0, 71, 0
2, 197728, Note_on_c, 0, 69, 92
2, 197759, Note_on_c, 0, 69, 0
2, 197760, Note_on_c, 0, 78, 92
2, 197887, Note_on_c, 0, 59, 0
2, 197888, Note_on_c, 0, 57, 92
2, 197919, Note_on_c, 0, 57, 0
2, 197920, Note_on_c, 0, 55, 92
2, 197951, Note_on_c, 0, 55, 0
2, 197952, Note_on_c, 0, 57, 92
2, 198079, Note_on_c, 0, 57, 0
2, 198079, Note_on_c, 0, 78, 0
2, 198080, Note_on_c, 0, 78, 92
2, 198080, Note_on_c, 0, 55, 92
2, 198111, Note_on_c, 0, 55, 0
2, 198112, Note_on_c, 0, 54, 92
2, 198143, Note_on_c, 0, 54, 0
2, 198143, Note_on_c, 0, 78, 0
2, 198144, Note_on_c, 0, 78, 92
2, 198144, Note_on_c, 0, 55, 92
2, 198271, Note_on_c, 0, 55, 0
2, 198271, Note_on_c, 0, 78, 0
2, 198272, Note_on_c, 0, 71, 92
2, 198272, Note_on_c, 0, 54, 92
2, 198303, Note_on_c, 0, 54, 0
2, 198303, Note_on_c, 0, 71, 0
2, 198304, Note_on_c, 0, 73, 92
2, 198304, Note_on_c, 0, 52, 92
2, 198335, Note_on_c, 0, 52, 0
2, 198335, Note_on_c, 0, 73, 0
2, 198336, Note_on_c, 0, 75, 92
2, 198336, Note_on_c, 0, 54, 92
2, 198463, Note_on_c, 0, 54, 0
2, 198463, Note_on_c, 0, 75, 0
2, 198464, Note_on_c, 0, 73, 92
2, 198464, Note_on_c, 0, 52, 92
2, 198495, Note_on_c, 0, 52, 0
2, 198495, Note_on_c, 0, 73, 0
2, 198496, Note_on_c, 0, 71, 92
2, 198496, Note_on_c, 0, 51, 92
2, 198527, Note_on_c, 0, 51, 0
2, 198527, Note_on_c, 0, 71, 0
2, 198528, Note_on_c, 0, 79, 92
2, 198528, Note_on_c, 0, 52, 92
2, 198655, Note_on_c, 0, 52, 0
2, 198656, Note_on_c, 0, 55, 92
2, 198687, Note_on_c, 0, 55, 0
2, 198687, Note_on_c, 0, 79, 0
2, 198688, Note_on_c, 0, 76, 92
2, 198688, Note_on_c, 0, 59, 92
2, 198719, Note_on_c, 0, 59, 0
2, 198719, Note_on_c, 0, 76, 0
2, 198720, Note_on_c, 0, 76, 92
2, 198720, Note_on_c, 0, 60, 92
2, 198751, Note_on_c, 0, 76, 0
2, 198752, Note_on_c, 0, 75, 92
2, 198783, Note_on_c, 0, 75, 0
2, 198784, Note_on_c, 0, 76, 92
2, 198815, Note_on_c, 0, 76, 0
2, 198816, Note_on_c, 0, 75, 92
2, 198879, Note_on_c, 0, 75, 0
2, 198880, Note_on_c, 0, 76, 92
2, 198911, Note_on_c, 0, 76, 0
2, 198912, Note_on_c, 0, 69, 92
2, 199039, Note_on_c, 0, 69, 0
2, 199040, Note_on_c, 0, 60, 0
2, 199040, Note_on_c, 0, 75, 92
2, 199071, Note_on_c, 0, 75, 0
2, 199072, Note_on_c, 0, 76, 92
2, 199072, Note_on_c, 0, 59, 92
2, 199103, Note_on_c, 0, 59, 0
2, 199103, Note_on_c, 0, 76, 0
2, 199104, Note_on_c, 0, 78, 92
2, 199104, Note_on_c, 0, 57, 92
2, 199231, Note_on_c, 0, 78, 0
2, 199232, Note_on_c, 0, 76, 92
2, 199263, Note_on_c, 0, 76, 0
2, 199263, Note_on_c, 0, 57, 0
2, 199264, Note_on_c, 0, 75, 92
2, 199264, Note_on_c, 0, 60, 92
2, 199295, Note_on_c, 0, 60, 0
2, 199295, Note_on_c, 0, 75, 0
2, 199296, Note_on_c, 0, 81, 92
2, 199296, Note_on_c, 0, 54, 92
2, 199423, Note_on_c, 0, 54, 0
2, 199424, Note_on_c, 0, 57, 92
2, 199455, Note_on_c, 0, 57, 0
2, 199455, Note_on_c, 0, 81, 0
2, 199456, Note_on_c, 0, 76, 92
2, 199456, Note_on_c, 0, 60, 92
2, 199487, Note_on_c, 0, 60, 0
2, 199487, Note_on_c, 0, 76, 0
2, 199488, Note_on_c, 0, 76, 92
2, 199488, Note_on_c, 0, 66, 92
2, 199519, Note_on_c, 0, 76, 0
2, 199520, Note_on_c, 0, 75, 92
2, 199551, Note_on_c, 0, 75, 0
2, 199552, Note_on_c, 0, 76, 92
2, 199583, Note_on_c, 0, 76, 0
2, 199584, Note_on_c, 0, 75, 92
2, 199647, Note_on_c, 0, 75, 0
2, 199648, Note_on_c, 0, 76, 92
2, 199679, Note_on_c, 0, 76, 0
2, 199680, Note_on_c, 0, 71, 92
2, 199807, Note_on_c, 0, 71, 0
2, 199808, Note_on_c, 0, 66, 0
2, 199808, Note_on_c, 0, 76, 92
2, 199839, Note_on_c, 0, 76, 0
2, 199840, Note_on_c, 0, 78, 92
2, 199840, Note_on_c, 0, 64, 92
2, 199871, Note_on_c, 0, 64, 0
2, 199871, Note_on_c, 0, 78, 0
2, 199872, Note_on_c, 0, 79, 92
2, 199872, Note_on_c, 0, 63, 92
2, 199999, Note_on_c, 0, 79, 0
2, 200000, Note_on_c, 0, 78, 92
2, 200031, Note_on_c, 0, 78, 0
2, 200031, Note_on_c, 0, 63, 0
2, 200032, Note_on_c, 0, 76, 92
2, 200032, Note_on_c, 0, 64, 92
2, 200063, Note_on_c, 0, 64, 0
2, 200063, Note_on_c, 0, 76, 0
2, 200064, Note_on_c, 0, 83, 92
2, 200064, Note_on_c, 0, 55, 92
2, 200191, Note_on_c, 0, 55, 0
2, 200192, Note_on_c, 0, 59, 92
2, 200207, Note_on_c, 0, 83, 0
2, 200208, Note_on_c, 0, 81, 92
2, 200223, Note_on_c, 0, 59, 0
2, 200224, Note_on_c, 0, 63, 92
2, 200255, Note_on_c, 0, 63, 0
2, 200255, Note_on_c, 0, 81, 0
2, 200256, Note_on_c, 0, 79, 92
2, 200256, Note_on_c, 0, 64, 92
2, 200303, Note_on_c, 0, 79, 0
2, 200304, Note_on_c, 0, 78, 92
2, 200351, Note_on_c, 0, 78, 0
2, 200352, Note_on_c, 0, 76, 92
2, 200399, Note_on_c, 0, 76, 0
2, 200400, Note_on_c, 0, 74, 92
2, 200447, Note_on_c, 0, 74, 0
2, 200448, Note_on_c, 0, 72, 92
2, 200575, Note_on_c, 0, 72, 0
2, 200576, Note_on_c, 0, 64, 0
2, 200576, Note_on_c, 0, 71, 92
2, 200607, Note_on_c, 0, 71, 0
2, 200608, Note_on_c, 0, 69, 92
2, 200608, Note_on_c, 0, 60, 92
2, 200639, Note_on_c, 0, 60, 0
2, 200639, Note_on_c, 0, 69, 0
2, 200640, Note_on_c, 0, 75, 92
2, 200640, Note_on_c, 0, 57, 92
2, 200767, Note_on_c, 0, 75, 0
2, 200768, Note_on_c, 0, 73, 92
2, 200799, Note_on_c, 0, 73, 0
2, 200799, Note_on_c, 0, 57, 0
2, 200800, Note_on_c, 0, 71, 92
2, 200800, Note_on_c, 0, 54, 92
2, 200831, Note_on_c, 0, 54, 0
2, 200831, Note_on_c, 0, 71, 0
2, 200832, Note_on_c, 0, 78, 92
2, 200832, Note_on_c, 0, 52, 92
2, 200879, Note_on_c, 0, 52, 0
2, 200879, Note_on_c, 0, 78, 0
2, 200880, Note_on_c, 0, 76, 92
2, 200880, Note_on_c, 0, 51, 92
2, 200927, Note_on_c, 0, 51, 0
2, 200927, Note_on_c, 0, 76, 0
2, 200928, Note_on_c, 0, 75, 92
2, 200928, Note_on_c, 0, 52, 92
2, 200975, Note_on_c, 0, 52, 0
2, 200975, Note_on_c, 0, 75, 0
2, 200976, Note_on_c, 0, 73, 92
2, 200976, Note_on_c, 0, 51, 92
2, 201023, Note_on_c, 0, 51, 0
2, 201023, Note_on_c, 0, 73, 0
2, 201024, Note_on_c, 0, 71, 92
2, 201024, Note_on_c, 0, 52, 92
2, 201071, Note_on_c, 0, 52, 0
2, 201071, Note_on_c, 0, 71, 0
2, 201072, Note_on_c, 0, 69, 92
2, 201072, Note_on_c, 0, 51, 92
2, 201119, Note_on_c, 0, 51, 0
2, 201119, Note_on_c, 0, 69, 0
2, 201120, Note_on_c, 0, 67, 92
2, 201120, Note_on_c, 0, 47, 92
2, 201167, Note_on_c, 0, 67, 0
2, 201168, Note_on_c, 0, 66, 92
2, 201215, Note_on_c, 0, 66, 0
2, 201215, Note_on_c, 0, 47, 0
2, 201216, Note_on_c, 0, 67, 92
2, 201216, Note_on_c, 0, 52, 92
2, 201263, Note_on_c, 0, 67, 0
2, 201264, Note_on_c, 0, 66, 92
2, 201311, Note_on_c, 0, 66, 0
2, 201312, Note_on_c, 0, 64, 92
2, 201359, Note_on_c, 0, 64, 0
2, 201360, Note_on_c, 0, 63, 92
2, 201407, Note_on_c, 0, 63, 0
2, 201408, Note_on_c, 0, 64, 92
2, 201408, Note_on_c, 0, 48, 92
2, 201565, Note_on_c, 0, 52, 0
2, 201568, Note_on_c, 0, 58, 92
2, 201568, Note_on_c, 0, 54, 92
2, 201598, Note_on_c, 0, 48, 0
2, 201599, Note_on_c, 0, 54, 0
2, 201599, Note_on_c, 0, 58, 0
2, 201600, Note_on_c, 0, 59, 92
2, 201600, Note_on_c, 0, 55, 92
2, 201600, Note_on_c, 0, 47, 92
2, 201688, Note_on_c, 0, 64, 0
2, 201759, Note_on_c, 0, 59, 0
2, 201760, Note_on_c, 0, 64, 92
2, 201791, Note_on_c, 0, 64, 0
2, 201791, Note_on_c, 0, 55, 0
2, 201792, Note_on_c, 0, 66, 92
2, 201792, Note_on_c, 0, 57, 92
2, 201951, Note_on_c, 0, 66, 0
2, 201952, Note_on_c, 0, 63, 92
2, 201980, Note_on_c, 0, 47, 0
2, 201983, Note_on_c, 0, 63, 0
2, 201983, Note_on_c, 0, 57, 0
2, 201984, Note_on_c, 0, 57, 92
2, 201984, Note_on_c, 0, 63, 92
2, 201984, Note_on_c, 0, 40, 92
2, 202175, Note_on_c, 0, 63, 0
2, 202175, Note_on_c, 0, 57, 0
2, 202176, Note_on_c, 0, 56, 92
2, 202176, Note_on_c, 0, 64, 92
2, 202303, Note_on_c, 0, 40, 0
2, 202304, Note_on_c, 0, 44, 92
2, 202335, Note_on_c, 0, 44, 0
2, 202336, Note_on_c, 0, 47, 92
2, 202366, Note_on_c, 0, 56, 0
2, 202367, Note_on_c, 0, 47, 0
2, 202368, Note_on_c, 0, 52, 92
2, 202496, Note_on_c, 0, 56, 92
2, 202527, Note_on_c, 0, 56, 0
2, 202528, Note_on_c, 0, 59, 92
2, 202556, Note_on_c, 0, 64, 0
2, 202558, Note_on_c, 0, 52, 0
2, 202559, Note_on_c, 0, 59, 0
2, 202560, Note_on_c, 0, 64, 92
2, 202688, Note_on_c, 0, 68, 92
2, 202719, Note_on_c, 0, 68, 0
2, 202720, Note_on_c, 0, 71, 92
2, 202750, Note_on_c, 0, 64, 0
2, 202751, Note_on_c, 0, 71, 0
2, 202752, Note_on_c, 0, 76, 92
2, 202880, Note_on_c, 0, 71, 92
2, 202911, Note_on_c, 0, 71, 0
2, 202912, Note_on_c, 0, 68, 92
2, 202943, Note_on_c, 0, 68, 0
2, 202944, Note_on_c, 0, 64, 92
2, 203072, Note_on_c, 0, 59, 92
2, 203103, Note_on_c, 0, 59, 0
2, 203104, Note_on_c, 0, 56, 92
2, 203132, Note_on_c, 0, 76, 0
2, 203134, Note_on_c, 0, 64, 0
2, 203135, Note_on_c, 0, 56, 0
2, 203136, Note_on_c, 0, 52, 92
2, 203806, Note_on_c, 0, 52, 0
2, 205728, Note_on_c, 0, 71, 92
2, 205818, Note_on_c, 0, 71, 0
2, 205824, Note_on_c, 0, 71, 92
2, 205824, Note_on_c, 0, 52, 92
2, 205919, Note_on_c, 0, 71, 0
2, 205920, Note_on_c, 0, 64, 92
2, 206015, Note_on_c, 0, 52, 0
2, 206016, Note_on_c, 0, 55, 92
2, 206104, Note_on_c, 0, 64, 0
2, 206112, Note_on_c, 0, 63, 92
2, 206207, Note_on_c, 0, 55, 0
2, 206208, Note_on_c, 0, 60, 92
2, 206296, Note_on_c, 0, 63, 0
2, 206304, Note_on_c, 0, 64, 92
2, 206392, Note_on_c, 0, 64, 0
2, 206399, Note_on_c, 0, 60, 0
2, 206400, Note_on_c, 0, 66, 92
2, 206400, Note_on_c, 0, 51, 92
2, 206495, Note_on_c, 0, 66, 0
2, 206496, Note_on_c, 0, 72, 92
2, 206591, Note_on_c, 0, 51, 0
2, 206592, Note_on_c, 0, 54, 92
2, 206680, Note_on_c, 0, 72, 0
2, 206688, Note_on_c, 0, 71, 92
2, 206783, Note_on_c, 0, 54, 0
2, 206784, Note_on_c, 0, 59, 92
2, 206872, Note_on_c, 0, 71, 0
2, 206880, Note_on_c, 0, 69, 92
2, 206975, Note_on_c, 0, 59, 0
2, 206976, Note_on_c, 0, 52, 92
2, 207064, Note_on_c, 0, 69, 0
2, 207072, Note_on_c, 0, 67, 92
2, 207167, Note_on_c, 0, 52, 0
2, 207168, Note_on_c, 0, 57, 92
2, 207256, Note_on_c, 0, 67, 0
2, 207264, Note_on_c, 0, 66, 92
2, 207311, Note_on_c, 0, 66, 0
2, 207312, Note_on_c, 0, 64, 92
2, 207359, Note_on_c, 0, 64, 0
2, 207359, Note_on_c, 0, 57, 0
2, 207360, Note_on_c, 0, 66, 92
2, 207360, Note_on_c, 0, 48, 92
2, 207455, Note_on_c, 0, 66, 0
2, 207456, Note_on_c, 0, 69, 92
2, 207551, Note_on_c, 0, 48, 0
2, 207552, Note_on_c, 0, 47, 92
2, 207647, Note_on_c, 0, 69, 0
2, 207648, Note_on_c, 0, 63, 92
2, 207743, Note_on_c, 0, 63, 0
2, 207743, Note_on_c, 0, 47, 0
2, 207744, Note_on_c, 0, 59, 92
2, 207840, Note_on_c, 0, 71, 92
2, 207887, Note_on_c, 0, 71, 0
2, 207888, Note_on_c, 0, 73, 92
2, 207935, Note_on_c, 0, 73, 0
2, 207935, Note_on_c, 0, 59, 0
2, 207936, Note_on_c, 0, 75, 92
2, 207936, Note_on_c, 0, 57, 92
2, 207983, Note_on_c, 0, 75, 0
2, 207984, Note_on_c, 0, 76, 92
2, 208031, Note_on_c, 0, 76, 0
2, 208032, Note_on_c, 0, 78, 92
2, 208127, Note_on_c, 0, 57, 0
2, 208128, Note_on_c, 0, 55, 92
2, 208216, Note_on_c, 0, 78, 0
2, 208224, Note_on_c, 0, 76, 92
2, 208319, Note_on_c, 0, 55, 0
2, 208320, Note_on_c, 0, 59, 92
2, 208408, Note_on_c, 0, 76, 0
2, 208416, Note_on_c, 0, 79, 92
2, 208511, Note_on_c, 0, 59, 0
2, 208512, Note_on_c, 0, 64, 92
2, 208600, Note_on_c, 0, 79, 0
2, 208608, Note_on_c, 0, 71, 92
2, 208703, Note_on_c, 0, 64, 0
2, 208704, Note_on_c, 0, 57, 92
2, 208799, Note_on_c, 0, 71, 0
2, 208800, Note_on_c, 0, 72, 92
2, 208888, Note_on_c, 0, 72, 0
2, 208895, Note_on_c, 0, 57, 0
2, 208896, Note_on_c, 0, 60, 92
2, 208992, Note_on_c, 0, 69, 92
2, 209039, Note_on_c, 0, 69, 0
2, 209040, Note_on_c, 0, 71, 92
2, 209087, Note_on_c, 0, 71, 0
2, 209087, Note_on_c, 0, 60, 0
2, 209088, Note_on_c, 0, 72, 92
2, 209088, Note_on_c, 0, 64, 92
2, 209135, Note_on_c, 0, 72, 0
2, 209136, Note_on_c, 0, 74, 92
2, 209183, Note_on_c, 0, 74, 0
2, 209184, Note_on_c, 0, 76, 92
2, 209279, Note_on_c, 0, 64, 0
2, 209280, Note_on_c, 0, 54, 92
2, 209368, Note_on_c, 0, 76, 0
2, 209376, Note_on_c, 0, 74, 92
2, 209471, Note_on_c, 0, 54, 0
2, 209472, Note_on_c, 0, 57, 92
2, 209560, Note_on_c, 0, 74, 0
2, 209568, Note_on_c, 0, 81, 92
2, 209663, Note_on_c, 0, 57, 0
2, 209664, Note_on_c, 0, 62, 92
2, 209752, Note_on_c, 0, 81, 0
2, 209760, Note_on_c, 0, 72, 92
2, 209855, Note_on_c, 0, 62, 0
2, 209856, Note_on_c, 0, 55, 92
2, 209951, Note_on_c, 0, 72, 0
2, 209952, Note_on_c, 0, 71, 92
2, 210022, Note_on_c, 0, 71, 0
2, 210047, Note_on_c, 0, 55, 0
2, 210048, Note_on_c, 0, 59, 92
2, 210144, Note_on_c, 0, 76, 92
2, 210191, Note_on_c, 0, 76, 0
2, 210192, Note_on_c, 0, 78, 92
2, 210239, Note_on_c, 0, 78, 0
2, 210239, Note_on_c, 0, 59, 0
2, 210240, Note_on_c, 0, 79, 92
2, 210240, Note_on_c, 0, 64, 92
2, 210335, Note_on_c, 0, 79, 0
2, 210336, Note_on_c, 0, 71, 92
2, 210431, Note_on_c, 0, 64, 0
2, 210432, Note_on_c, 0, 54, 92
2, 210527, Note_on_c, 0, 71, 0
2, 210528, Note_on_c, 0, 69, 92
2, 210616, Note_on_c, 0, 69, 0
2, 210623, Note_on_c, 0, 54, 0
2, 210624, Note_on_c, 0, 57, 92
2, 210720, Note_on_c, 0, 75, 92
2, 210767, Note_on_c, 0, 75, 0
2, 210768, Note_on_c, 0, 76, 92
2, 210815, Note_on_c, 0, 76, 0
2, 210815, Note_on_c, 0, 57, 0
2, 210816, Note_on_c, 0, 78, 92
2, 210816, Note_on_c, 0, 63, 92
2, 210911, Note_on_c, 0, 78, 0
2, 210912, Note_on_c, 0, 69, 92
2, 211007, Note_on_c, 0, 63, 0
2, 211008, Note_on_c, 0, 52, 92
2, 211103, Note_on_c, 0, 69, 0
2, 211104, Note_on_c, 0, 67, 92
2, 211192, Note_on_c, 0, 67, 0
2, 211199, Note_on_c, 0, 52, 0
2, 211200, Note_on_c, 0, 55, 92
2, 211296, Note_on_c, 0, 77, 92
2, 211343, Note_on_c, 0, 77, 0
2, 211344, Note_on_c, 0, 76, 92
2, 211391, Note_on_c, 0, 76, 0
2, 211391, Note_on_c, 0, 55, 0
2, 211392, Note_on_c, 0, 74, 92
2, 211392, Note_on_c, 0, 56, 92
2, 211439, Note_on_c, 0, 74, 0
2, 211440, Note_on_c, 0, 72, 92
2, 211487, Note_on_c, 0, 72, 0
2, 211488, Note_on_c, 0, 71, 92
2, 211583, Note_on_c, 0, 56, 0
2, 211584, Note_on_c, 0, 57, 92
2, 211679, Note_on_c, 0, 71, 0
2, 211680, Note_on_c, 0, 72, 92
2, 211768, Note_on_c, 0, 72, 0
2, 211775, Note_on_c, 0, 57, 0
2, 211776, Note_on_c, 0, 58, 92
2, 211872, Note_on_c, 0, 79, 92
2, 211919, Note_on_c, 0, 79, 0
2, 211920, Note_on_c, 0, 78, 92
2, 211967, Note_on_c, 0, 78, 0
2, 211967, Note_on_c, 0, 58, 0
2, 211968, Note_on_c, 0, 76, 92
2, 211968, Note_on_c, 0, 54, 92
2, 212015, Note_on_c, 0, 76, 0
2, 212016, Note_on_c, 0, 75, 92
2, 212063, Note_on_c, 0, 75, 0
2, 212064, Note_on_c, 0, 73, 92
2, 212159, Note_on_c, 0, 54, 0
2, 212160, Note_on_c, 0, 59, 92
2, 212255, Note_on_c, 0, 73, 0
2, 212256, Note_on_c, 0, 75, 92
2, 212344, Note_on_c, 0, 75, 0
2, 212351, Note_on_c, 0, 59, 0
2, 212352, Note_on_c, 0, 47, 92
2, 212448, Note_on_c, 0, 84, 92
2, 212495, Note_on_c, 0, 84, 0
2, 212496, Note_on_c, 0, 83, 92
2, 212543, Note_on_c, 0, 83, 0
2, 212543, Note_on_c, 0, 47, 0
2, 212544, Note_on_c, 0, 81, 92
2, 212544, Note_on_c, 0, 51, 92
2, 212591, Note_on_c, 0, 81, 0
2, 212592, Note_on_c, 0, 79, 92
2, 212639, Note_on_c, 0, 79, 0
2, 212640, Note_on_c, 0, 78, 92
2, 212735, Note_on_c, 0, 51, 0
2, 212736, Note_on_c, 0, 52, 92
2, 212785, Note_on_c, 0, 78, 0
2, 212832, Note_on_c, 0, 79, 92
2, 212927, Note_on_c, 0, 52, 0
2, 212928, Note_on_c, 0, 54, 92
2, 212982, Note_on_c, 0, 79, 0
2, 213024, Note_on_c, 0, 75, 92
2, 213119, Note_on_c, 0, 54, 0
2, 213120, Note_on_c, 0, 55, 92
2, 213179, Note_on_c, 0, 75, 0
2, 213216, Note_on_c, 0, 76, 92
2, 213311, Note_on_c, 0, 55, 0
2, 213312, Note_on_c, 0, 48, 92
2, 213376, Note_on_c, 0, 76, 0
2, 213408, Note_on_c, 0, 71, 92
2, 213503, Note_on_c, 0, 48, 0
2, 213504, Note_on_c, 0, 50, 92
2, 213573, Note_on_c, 0, 71, 0
2, 213600, Note_on_c, 0, 72, 92
2, 213695, Note_on_c, 0, 50, 0
2, 213696, Note_on_c, 0, 52, 92
2, 213770, Note_on_c, 0, 72, 0
2, 213792, Note_on_c, 0, 68, 92
2, 213887, Note_on_c, 0, 52, 0
2, 213888, Note_on_c, 0, 53, 92
2, 213967, Note_on_c, 0, 68, 0
2, 213984, Note_on_c, 0, 69, 92
2, 214079, Note_on_c, 0, 53, 0
2, 214080, Note_on_c, 0, 55, 92
2, 214164, Note_on_c, 0, 69, 0
2, 214176, Note_on_c, 0, 64, 92
2, 214271, Note_on_c, 0, 55, 0
2, 214272, Note_on_c, 0, 57, 92
2, 214367, Note_on_c, 0, 64, 0
2, 214368, Note_on_c, 0, 65, 92
2, 214463, Note_on_c, 0, 65, 0
2, 214463, Note_on_c, 0, 57, 0
2, 214464, Note_on_c, 0, 72, 92
2, 214464, Note_on_c, 0, 51, 92
2, 214511, Note_on_c, 0, 72, 0
2, 214512, Note_on_c, 0, 71, 92
2, 214559, Note_on_c, 0, 71, 0
2, 214560, Note_on_c, 0, 69, 92
2, 214655, Note_on_c, 0, 51, 0
2, 214656, Note_on_c, 0, 59, 92
2, 214696, Note_on_c, 0, 69, 0
2, 214704, Note_on_c, 0, 67, 92
2, 214751, Note_on_c, 0, 67, 0
2, 214752, Note_on_c, 0, 66, 92
2, 214847, Note_on_c, 0, 59, 0
2, 214848, Note_on_c, 0, 57, 92
2, 214888, Note_on_c, 0, 66, 0
2, 214896, Note_on_c, 0, 76, 92
2, 214943, Note_on_c, 0, 76, 0
2, 214944, Note_on_c, 0, 75, 92
2, 215039, Note_on_c, 0, 57, 0
2, 215040, Note_on_c, 0, 55, 92
2, 215072, Note_on_c, 0, 75, 0
2, 215088, Note_on_c, 0, 76, 92
2, 215135, Note_on_c, 0, 76, 0
2, 215136, Note_on_c, 0, 78, 92
2, 215183, Note_on_c, 0, 78, 0
2, 215184, Note_on_c, 0, 79, 92
2, 215231, Note_on_c, 0, 79, 0
2, 215231, Note_on_c, 0, 55, 0
2, 215232, Note_on_c, 0, 81, 92
2, 215232, Note_on_c, 0, 52, 92
2, 215279, Note_on_c, 0, 81, 0
2, 215280, Note_on_c, 0, 83, 92
2, 215327, Note_on_c, 0, 83, 0
2, 215328, Note_on_c, 0, 84, 92
2, 215423, Note_on_c, 0, 52, 0
2, 215424, Note_on_c, 0, 47, 92
2, 215512, Note_on_c, 0, 84, 0
2, 215520, Note_on_c, 0, 75, 92
2, 215615, Note_on_c, 0, 47, 0
2, 215616, Note_on_c, 0, 52, 92
2, 215711, Note_on_c, 0, 75, 0
2, 215712, Note_on_c, 0, 76, 92
2, 215800, Note_on_c, 0, 76, 0
2, 215807, Note_on_c, 0, 52, 0
2, 215808, Note_on_c, 0, 55, 92
2, 215904, Note_on_c, 0, 64, 92
2, 215999, Note_on_c, 0, 55, 0
2, 216000, Note_on_c, 0, 59, 92
2, 216095, Note_on_c, 0, 64, 0
2, 216096, Note_on_c, 0, 66, 92
2, 216191, Note_on_c, 0, 66, 0
2, 216191, Note_on_c, 0, 59, 0
2, 216192, Note_on_c, 0, 67, 92
2, 216192, Note_on_c, 0, 64, 92
2, 216239, Note_on_c, 0, 67, 0
2, 216240, Note_on_c, 0, 71, 92
2, 216287, Note_on_c, 0, 71, 0
2, 216288, Note_on_c, 0, 76, 92
2, 216383, Note_on_c, 0, 64, 0
2, 216384, Note_on_c, 0, 62, 92
2, 216472, Note_on_c, 0, 76, 0
2, 216480, Note_on_c, 0, 67, 92
2, 216575, Note_on_c, 0, 62, 0
2, 216576, Note_on_c, 0, 61, 92
2, 216664, Note_on_c, 0, 67, 0
2, 216672, Note_on_c, 0, 66, 92
2, 216767, Note_on_c, 0, 61, 0
2, 216768, Note_on_c, 0, 62, 92
2, 216815, Note_on_c, 0, 66, 0
2, 216816, Note_on_c, 0, 64, 92
2, 216863, Note_on_c, 0, 64, 0
2, 216864, Note_on_c, 0, 66, 92
2, 216959, Note_on_c, 0, 62, 0
2, 216960, Note_on_c, 0, 50, 92
2, 217007, Note_on_c, 0, 66, 0
2, 217008, Note_on_c, 0, 67, 92
2, 217055, Note_on_c, 0, 67, 0
2, 217056, Note_on_c, 0, 69, 92
2, 217151, Note_on_c, 0, 50, 0
2, 217152, Note_on_c, 0, 54, 92
2, 217199, Note_on_c, 0, 69, 0
2, 217200, Note_on_c, 0, 71, 92
2, 217247, Note_on_c, 0, 71, 0
2, 217248, Note_on_c, 0, 72, 92
2, 217343, Note_on_c, 0, 54, 0
2, 217344, Note_on_c, 0, 57, 92
2, 217391, Note_on_c, 0, 72, 0
2, 217392, Note_on_c, 0, 76, 92
2, 217439, Note_on_c, 0, 76, 0
2, 217440, Note_on_c, 0, 81, 92
2, 217535, Note_on_c, 0, 57, 0
2, 217536, Note_on_c, 0, 55, 92
2, 217624, Note_on_c, 0, 81, 0
2, 217632, Note_on_c, 0, 72, 92
2, 217727, Note_on_c, 0, 55, 0
2, 217728, Note_on_c, 0, 54, 92
2, 217816, Note_on_c, 0, 72, 0
2, 217824, Note_on_c, 0, 71, 92
2, 217919, Note_on_c, 0, 54, 0
2, 217920, Note_on_c, 0, 55, 92
2, 217967, Note_on_c, 0, 71, 0
2, 217968, Note_on_c, 0, 69, 92
2, 218015, Note_on_c, 0, 69, 0
2, 218016, Note_on_c, 0, 71, 92
2, 218111, Note_on_c, 0, 55, 0
2, 218112, Note_on_c, 0, 43, 92
2, 218159, Note_on_c, 0, 71, 0
2, 218160, Note_on_c, 0, 72, 92
2, 218207, Note_on_c, 0, 72, 0
2, 218208, Note_on_c, 0, 74, 92
2, 218303, Note_on_c, 0, 43, 0
2, 218304, Note_on_c, 0, 47, 92
2, 218351, Note_on_c, 0, 74, 0
2, 218352, Note_on_c, 0, 76, 92
2, 218399, Note_on_c, 0, 76, 0
2, 218400, Note_on_c, 0, 77, 92
2, 218495, Note_on_c, 0, 47, 0
2, 218496, Note_on_c, 0, 50, 92
2, 218543, Note_on_c, 0, 77, 0
2, 218544, Note_on_c, 0, 76, 92
2, 218591, Note_on_c, 0, 76, 0
2, 218592, Note_on_c, 0, 77, 92
2, 218687, Note_on_c, 0, 50, 0
2, 218688, Note_on_c, 0, 48, 92
2, 218762, Note_on_c, 0, 77, 0
2, 218784, Note_on_c, 0, 69, 92
2, 218879, Note_on_c, 0, 48, 0
2, 218880, Note_on_c, 0, 47, 92
2, 218968, Note_on_c, 0, 69, 0
2, 218976, Note_on_c, 0, 67, 92
2, 219064, Note_on_c, 0, 67, 0
2, 219071, Note_on_c, 0, 47, 0
2, 219072, Note_on_c, 0, 76, 92
2, 219072, Note_on_c, 0, 48, 92
2, 219119, Note_on_c, 0, 76, 0
2, 219120, Note_on_c, 0, 74, 92
2, 219167, Note_on_c, 0, 74, 0
2, 219168, Note_on_c, 0, 76, 92
2, 219263, Note_on_c, 0, 48, 0
2, 219264, Note_on_c, 0, 47, 92
2, 219338, Note_on_c, 0, 76, 0
2, 219360, Note_on_c, 0, 67, 92
2, 219455, Note_on_c, 0, 47, 0
2, 219456, Note_on_c, 0, 45, 92
2, 219544, Note_on_c, 0, 67, 0
2, 219552, Note_on_c, 0, 65, 92
2, 219640, Note_on_c, 0, 65, 0
2, 219647, Note_on_c, 0, 45, 0
2, 219648, Note_on_c, 0, 74, 92
2, 219648, Note_on_c, 0, 47, 92
2, 219695, Note_on_c, 0, 74, 0
2, 219696, Note_on_c, 0, 72, 92
2, 219743, Note_on_c, 0, 72, 0
2, 219744, Note_on_c, 0, 74, 92
2, 219839, Note_on_c, 0, 47, 0
2, 219840, Note_on_c, 0, 45, 92
2, 219914, Note_on_c, 0, 74, 0
2, 219936, Note_on_c, 0, 65, 92
2, 220031, Note_on_c, 0, 45, 0
2, 220032, Note_on_c, 0, 43, 92
2, 220120, Note_on_c, 0, 65, 0
2, 220128, Note_on_c, 0, 64, 92
2, 220216, Note_on_c, 0, 64, 0
2, 220223, Note_on_c, 0, 43, 0
2, 220224, Note_on_c, 0, 72, 92
2, 220224, Note_on_c, 0, 45, 92
2, 220271, Note_on_c, 0, 72, 0
2, 220272, Note_on_c, 0, 71, 92
2, 220319, Note_on_c, 0, 71, 0
2, 220320, Note_on_c, 0, 72, 92
2, 220415, Note_on_c, 0, 45, 0
2, 220416, Note_on_c, 0, 43, 92
2, 220490, Note_on_c, 0, 72, 0
2, 220512, Note_on_c, 0, 64, 92
2, 220607, Note_on_c, 0, 43, 0
2, 220608, Note_on_c, 0, 42, 92
2, 220696, Note_on_c, 0, 64, 0
2, 220704, Note_on_c, 0, 62, 92
2, 220792, Note_on_c, 0, 62, 0
2, 220799, Note_on_c, 0, 42, 0
2, 220800, Note_on_c, 0, 71, 92
2, 220800, Note_on_c, 0, 43, 92
2, 220847, Note_on_c, 0, 71, 0
2, 220848, Note_on_c, 0, 69, 92
2, 220895, Note_on_c, 0, 69, 0
2, 220896, Note_on_c, 0, 71, 92
2, 220991, Note_on_c, 0, 43, 0
2, 220992, Note_on_c, 0, 48, 92
2, 221080, Note_on_c, 0, 71, 0
2, 221088, Note_on_c, 0, 76, 92
2, 221183, Note_on_c, 0, 48, 0
2, 221184, Note_on_c, 0, 49, 92
2, 221258, Note_on_c, 0, 76, 0
2, 221280, Note_on_c, 0, 67, 92
2, 221375, Note_on_c, 0, 67, 0
2, 221375, Note_on_c, 0, 49, 0
2, 221376, Note_on_c, 0, 66, 92
2, 221376, Note_on_c, 0, 50, 92
2, 221423, Note_on_c, 0, 66, 0
2, 221424, Note_on_c, 0, 64, 92
2, 221471, Note_on_c, 0, 64, 0
2, 221472, Note_on_c, 0, 62, 92
2, 221567, Note_on_c, 0, 50, 0
2, 221568, Note_on_c, 0, 54, 92
2, 221663, Note_on_c, 0, 62, 0
2, 221664, Note_on_c, 0, 62, 92
2, 221711, Note_on_c, 0, 62, 0
2, 221712, Note_on_c, 0, 64, 92
2, 221759, Note_on_c, 0, 64, 0
2, 221759, Note_on_c, 0, 54, 0
2, 221760, Note_on_c, 0, 66, 92
2, 221760, Note_on_c, 0, 57, 92
2, 221807, Note_on_c, 0, 66, 0
2, 221808, Note_on_c, 0, 67, 92
2, 221855, Note_on_c, 0, 67, 0
2, 221856, Note_on_c, 0, 69, 92
2, 221903, Note_on_c, 0, 69, 0
2, 221904, Note_on_c, 0, 71, 92
2, 221951, Note_on_c, 0, 71, 0
2, 221951, Note_on_c, 0, 57, 0
2, 221952, Note_on_c, 0, 72, 92
2, 221952, Note_on_c, 0, 62, 92
2, 222000, Note_on_c, 0, 81, 92
2, 222047, Note_on_c, 0, 81, 0
2, 222048, Note_on_c, 0, 78, 92
2, 222092, Note_on_c, 0, 72, 0
2, 222095, Note_on_c, 0, 78, 0
2, 222096, Note_on_c, 0, 74, 92
2, 222143, Note_on_c, 0, 74, 0
2, 222143, Note_on_c, 0, 62, 0
2, 222144, Note_on_c, 0, 72, 92
2, 222144, Note_on_c, 0, 50, 92
2, 222192, Note_on_c, 0, 81, 92
2, 222239, Note_on_c, 0, 81, 0
2, 222240, Note_on_c, 0, 78, 92
2, 222284, Note_on_c, 0, 72, 0
2, 222287, Note_on_c, 0, 78, 0
2, 222288, Note_on_c, 0, 74, 92
2, 222335, Note_on_c, 0, 74, 0
2, 222335, Note_on_c, 0, 50, 0
2, 222336, Note_on_c, 0, 72, 92
2, 222336, Note_on_c, 0, 62, 92
2, 222384, Note_on_c, 0, 81, 92
2, 222431, Note_on_c, 0, 81, 0
2, 222432, Note_on_c, 0, 78, 92
2, 222476, Note_on_c, 0, 72, 0
2, 222479, Note_on_c, 0, 78, 0
2, 222480, Note_on_c, 0, 74, 92
2, 222527, Note_on_c, 0, 74, 0
2, 222528, Note_on_c, 0, 71, 92
2, 222576, Note_on_c, 0, 79, 92
2, 222623, Note_on_c, 0, 79, 0
2, 222624, Note_on_c, 0, 74, 92
2, 222668, Note_on_c, 0, 71, 0
2, 222671, Note_on_c, 0, 74, 0
2, 222672, Note_on_c, 0, 71, 92
2, 222719, Note_on_c, 0, 71, 0
2, 222719, Note_on_c, 0, 62, 0
2, 222720, Note_on_c, 0, 67, 92
2, 222720, Note_on_c, 0, 50, 92
2, 222768, Note_on_c, 0, 74, 92
2, 222815, Note_on_c, 0, 74, 0
2, 222816, Note_on_c, 0, 71, 92
2, 222820, Note_on_c, 0, 67, 0
2, 222863, Note_on_c, 0, 71, 0
2, 222864, Note_on_c, 0, 67, 92
2, 222911, Note_on_c, 0, 67, 0
2, 222911, Note_on_c, 0, 50, 0
2, 222912, Note_on_c, 0, 66, 92
2, 222912, Note_on_c, 0, 62, 92
2, 222959, Note_on_c, 0, 66, 0
2, 222960, Note_on_c, 0, 67, 92
2, 223007, Note_on_c, 0, 67, 0
2, 223008, Note_on_c, 0, 69, 92
2, 223055, Note_on_c, 0, 69, 0
2, 223056, Note_on_c, 0, 71, 92
2, 223103, Note_on_c, 0, 71, 0
2, 223104, Note_on_c, 0, 72, 92
2, 223151, Note_on_c, 0, 72, 0
2, 223152, Note_on_c, 0, 81, 92
2, 223199, Note_on_c, 0, 81, 0
2, 223200, Note_on_c, 0, 78, 92
2, 223247, Note_on_c, 0, 78, 0
2, 223248, Note_on_c, 0, 74, 92
2, 223295, Note_on_c, 0, 74, 0
2, 223295, Note_on_c, 0, 62, 0
2, 223296, Note_on_c, 0, 72, 92
2, 223296, Note_on_c, 0, 50, 92
2, 223343, Note_on_c, 0, 72, 0
2, 223344, Note_on_c, 0, 81, 92
2, 223391, Note_on_c, 0, 81, 0
2, 223392, Note_on_c, 0, 78, 92
2, 223439, Note_on_c, 0, 78, 0
2, 223440, Note_on_c, 0, 74, 92
2, 223487, Note_on_c, 0, 74, 0
2, 223487, Note_on_c, 0, 50, 0
2, 223488, Note_on_c, 0, 72, 92
2, 223488, Note_on_c, 0, 62, 92
2, 223535, Note_on_c, 0, 72, 0
2, 223536, Note_on_c, 0, 81, 92
2, 223583, Note_on_c, 0, 81, 0
2, 223584, Note_on_c, 0, 78, 92
2, 223631, Note_on_c, 0, 78, 0
2, 223632, Note_on_c, 0, 74, 92
2, 223679, Note_on_c, 0, 74, 0
2, 223680, Note_on_c, 0, 71, 92
2, 223727, Note_on_c, 0, 71, 0
2, 223728, Note_on_c, 0, 79, 92
2, 223775, Note_on_c, 0, 79, 0
2, 223776, Note_on_c, 0, 74, 92
2, 223823, Note_on_c, 0, 74, 0
2, 223824, Note_on_c, 0, 71, 92
2, 223871, Note_on_c, 0, 71, 0
2, 223871, Note_on_c, 0, 62, 0
2, 223872, Note_on_c, 0, 67, 92
2, 223872, Note_on_c, 0, 50, 92
2, 223919, Note_on_c, 0, 67, 0
2, 223920, Note_on_c, 0, 74, 92
2, 223967, Note_on_c, 0, 74, 0
2, 223968, Note_on_c, 0, 71, 92
2, 224015, Note_on_c, 0, 71, 0
2, 224016, Note_on_c, 0, 67, 92
2, 224063, Note_on_c, 0, 67, 0
2, 224063, Note_on_c, 0, 50, 0
2, 224064, Note_on_c, 0, 66, 92
2, 224064, Note_on_c, 0, 62, 92
2, 224111, Note_on_c, 0, 66, 0
2, 224112, Note_on_c, 0, 67, 92
2, 224159, Note_on_c, 0, 67, 0
2, 224160, Note_on_c, 0, 69, 92
2, 224207, Note_on_c, 0, 69, 0
2, 224208, Note_on_c, 0, 71, 92
2, 224255, Note_on_c, 0, 71, 0
2, 224256, Note_on_c, 0, 73, 92
2, 224304, Note_on_c, 0, 70, 92
2, 224351, Note_on_c, 0, 70, 0
2, 224352, Note_on_c, 0, 69, 92
2, 224399, Note_on_c, 0, 69, 0
2, 224400, Note_on_c, 0, 67, 92
2, 224447, Note_on_c, 0, 67, 0
2, 224447, Note_on_c, 0, 62, 0
2, 224448, Note_on_c, 0, 64, 92
2, 224448, Note_on_c, 0, 50, 92
2, 224495, Note_on_c, 0, 64, 0
2, 224496, Note_on_c, 0, 67, 92
2, 224543, Note_on_c, 0, 67, 0
2, 224544, Note_on_c, 0, 69, 92
2, 224591, Note_on_c, 0, 69, 0
2, 224592, Note_on_c, 0, 70, 92
2, 224636, Note_on_c, 0, 73, 0
2, 224639, Note_on_c, 0, 70, 0
2, 224639, Note_on_c, 0, 50, 0
2, 224640, Note_on_c, 0, 73, 92
2, 224640, Note_on_c, 0, 62, 92
2, 224687, Note_on_c, 0, 73, 0
2, 224688, Note_on_c, 0, 70, 92
2, 224735, Note_on_c, 0, 70, 0
2, 224736, Note_on_c, 0, 69, 92
2, 224783, Note_on_c, 0, 69, 0
2, 224784, Note_on_c, 0, 67, 92
2, 224831, Note_on_c, 0, 67, 0
2, 224832, Note_on_c, 0, 72, 92
2, 224880, Note_on_c, 0, 69, 92
2, 224927, Note_on_c, 0, 69, 0
2, 224928, Note_on_c, 0, 67, 92
2, 224975, Note_on_c, 0, 67, 0
2, 224976, Note_on_c, 0, 66, 92
2, 225023, Note_on_c, 0, 66, 0
2, 225023, Note_on_c, 0, 62, 0
2, 225024, Note_on_c, 0, 63, 92
2, 225024, Note_on_c, 0, 50, 92
2, 225071, Note_on_c, 0, 63, 0
2, 225072, Note_on_c, 0, 66, 92
2, 225119, Note_on_c, 0, 66, 0
2, 225120, Note_on_c, 0, 67, 92
2, 225167, Note_on_c, 0, 67, 0
2, 225168, Note_on_c, 0, 69, 92
2, 225172, Note_on_c, 0, 72, 0
2, 225215, Note_on_c, 0, 69, 0
2, 225215, Note_on_c, 0, 50, 0
2, 225216, Note_on_c, 0, 72, 92
2, 225216, Note_on_c, 0, 62, 92
2, 225263, Note_on_c, 0, 72, 0
2, 225264, Note_on_c, 0, 69, 92
2, 225311, Note_on_c, 0, 69, 0
2, 225312, Note_on_c, 0, 67, 92
2, 225359, Note_on_c, 0, 67, 0
2, 225360, Note_on_c, 0, 66, 92
2, 225407, Note_on_c, 0, 66, 0
2, 225408, Note_on_c, 0, 70, 92
2, 225456, Note_on_c, 0, 67, 92
2, 225503, Note_on_c, 0, 67, 0
2, 225504, Note_on_c, 0, 66, 92
2, 225551, Note_on_c, 0, 66, 0
2, 225552, Note_on_c, 0, 64, 92
2, 225599, Note_on_c, 0, 64, 0
2, 225599, Note_on_c, 0, 62, 0
2, 225600, Note_on_c, 0, 61, 92
2, 225600, Note_on_c, 0, 50, 92
2, 225647, Note_on_c, 0, 61, 0
2, 225648, Note_on_c, 0, 64, 92
2, 225695, Note_on_c, 0, 64, 0
2, 225696, Note_on_c, 0, 66, 92
2, 225708, Note_on_c, 0, 70, 0
2, 225743, Note_on_c, 0, 66, 0
2, 225744, Note_on_c, 0, 67, 92
2, 225791, Note_on_c, 0, 67, 0
2, 225791, Note_on_c, 0, 50, 0
2, 225792, Note_on_c, 0, 70, 92
2, 225792, Note_on_c, 0, 62, 92
2, 225839, Note_on_c, 0, 70, 0
2, 225840, Note_on_c, 0, 67, 92
2, 225887, Note_on_c, 0, 67, 0
2, 225888, Note_on_c, 0, 66, 92
2, 225935, Note_on_c, 0, 66, 0
2, 225936, Note_on_c, 0, 64, 92
2, 225983, Note_on_c, 0, 64, 0
2, 225984, Note_on_c, 0, 73, 92
2, 226032, Note_on_c, 0, 70, 92
2, 226044, Note_on_c, 0, 73, 0
2, 226079, Note_on_c, 0, 70, 0
2, 226080, Note_on_c, 0, 69, 92
2, 226127, Note_on_c, 0, 69, 0
2, 226128, Note_on_c, 0, 67, 92
2, 226175, Note_on_c, 0, 67, 0
2, 226175, Note_on_c, 0, 62, 0
2, 226176, Note_on_c, 0, 75, 92
2, 226176, Note_on_c, 0, 54, 92
2, 226224, Note_on_c, 0, 72, 92
2, 226246, Note_on_c, 0, 75, 0
2, 226271, Note_on_c, 0, 72, 0
2, 226272, Note_on_c, 0, 70, 92
2, 226319, Note_on_c, 0, 70, 0
2, 226320, Note_on_c, 0, 69, 92
2, 226367, Note_on_c, 0, 69, 0
2, 226367, Note_on_c, 0, 54, 0
2, 226368, Note_on_c, 0, 78, 92
2, 226368, Note_on_c, 0, 50, 92
2, 226416, Note_on_c, 0, 75, 92
2, 226458, Note_on_c, 0, 78, 0
2, 226463, Note_on_c, 0, 75, 0
2, 226464, Note_on_c, 0, 74, 92
2, 226511, Note_on_c, 0, 74, 0
2, 226512, Note_on_c, 0, 72, 92
2, 226559, Note_on_c, 0, 72, 0
2, 226559, Note_on_c, 0, 50, 0
2, 226560, Note_on_c, 0, 79, 92
2, 226560, Note_on_c, 0, 47, 92
2, 226607, Note_on_c, 0, 79, 0
2, 226608, Note_on_c, 0, 78, 92
2, 226655, Note_on_c, 0, 78, 0
2, 226656, Note_on_c, 0, 79, 92
2, 226751, Note_on_c, 0, 47, 0
2, 226752, Note_on_c, 0, 43, 92
2, 226816, Note_on_c, 0, 79, 0
2, 226848, Note_on_c, 0, 83, 92
2, 226943, Note_on_c, 0, 83, 0
2, 226943, Note_on_c, 0, 43, 0
2, 226944, Note_on_c, 0, 74, 92
2, 226944, Note_on_c, 0, 50, 92
2, 227039, Note_on_c, 0, 74, 0
2, 227040, Note_on_c, 0, 78, 92
2, 227135, Note_on_c, 0, 78, 0
2, 227135, Note_on_c, 0, 50, 0
2, 227136, Note_on_c, 0, 79, 92
2, 227136, Note_on_c, 0, 43, 92
2, 227326, Note_on_c, 0, 79, 0
2, 227327, Note_on_c, 0, 43, 0
2, 227328, Note_on_c, 0, 55, 92
2, 227424, Note_on_c, 0, 83, 92
2, 227471, Note_on_c, 0, 83, 0
2, 227472, Note_on_c, 0, 81, 92
2, 227519, Note_on_c, 0, 81, 0
2, 227519, Note_on_c, 0, 55, 0
2, 227520, Note_on_c, 0, 79, 92
2, 227520, Note_on_c, 0, 59, 92
2, 227567, Note_on_c, 0, 79, 0
2, 227568, Note_on_c, 0, 78, 92
2, 227615, Note_on_c, 0, 78, 0
2, 227616, Note_on_c, 0, 76, 92
2, 227711, Note_on_c, 0, 59, 0
2, 227712, Note_on_c, 0, 56, 92
2, 227759, Note_on_c, 0, 76, 0
2, 227760, Note_on_c, 0, 77, 92
2, 227807, Note_on_c, 0, 77, 0
2, 227808, Note_on_c, 0, 74, 92
2, 227903, Note_on_c, 0, 56, 0
2, 227904, Note_on_c, 0, 64, 92
2, 227951, Note_on_c, 0, 74, 0
2, 227952, Note_on_c, 0, 76, 92
2, 227999, Note_on_c, 0, 76, 0
2, 228000, Note_on_c, 0, 72, 92
2, 228095, Note_on_c, 0, 64, 0
2, 228096, Note_on_c, 0, 52, 92
2, 228143, Note_on_c, 0, 72, 0
2, 228144, Note_on_c, 0, 74, 92
2, 228191, Note_on_c, 0, 74, 0
2, 228192, Note_on_c, 0, 71, 92
2, 228287, Note_on_c, 0, 52, 0
2, 228288, Note_on_c, 0, 57, 92
2, 228335, Note_on_c, 0, 71, 0
2, 228336, Note_on_c, 0, 72, 92
2, 228383, Note_on_c, 0, 72, 0
2, 228384, Note_on_c, 0, 69, 92
2, 228479, Note_on_c, 0, 69, 0
2, 228479, Note_on_c, 0, 57, 0
2, 228480, Note_on_c, 0, 54, 92
2, 228576, Note_on_c, 0, 69, 92
2, 228623, Note_on_c, 0, 69, 0
2, 228624, Note_on_c, 0, 71, 92
2, 228671, Note_on_c, 0, 71, 0
2, 228671, Note_on_c, 0, 54, 0
2, 228672, Note_on_c, 0, 72, 92
2, 228672, Note_on_c, 0, 52, 92
2, 228719, Note_on_c, 0, 72, 0
2, 228720, Note_on_c, 0, 71, 92
2, 228767, Note_on_c, 0, 71, 0
2, 228768, Note_on_c, 0, 69, 92
2, 228863, Note_on_c, 0, 69, 0
2, 228863, Note_on_c, 0, 52, 0
2, 228864, Note_on_c, 0, 78, 92
2, 228864, Note_on_c, 0, 51, 92
2, 228911, Note_on_c, 0, 78, 0
2, 228912, Note_on_c, 0, 69, 92
2, 228959, Note_on_c, 0, 69, 0
2, 228960, Note_on_c, 0, 72, 92
2, 229055, Note_on_c, 0, 51, 0
2, 229056, Note_on_c, 0, 47, 92
2, 229103, Note_on_c, 0, 72, 0
2, 229104, Note_on_c, 0, 71, 92
2, 229151, Note_on_c, 0, 71, 0
2, 229152, Note_on_c, 0, 69, 92
2, 229247, Note_on_c, 0, 47, 0
2, 229248, Note_on_c, 0, 59, 92
2, 229295, Note_on_c, 0, 69, 0
2, 229296, Note_on_c, 0, 67, 92
2, 229343, Note_on_c, 0, 67, 0
2, 229344, Note_on_c, 0, 66, 92
2, 229439, Note_on_c, 0, 66, 0
2, 229439, Note_on_c, 0, 59, 0
2, 229440, Note_on_c, 0, 67, 92
2, 229440, Note_on_c, 0, 52, 92
2, 229487, Note_on_c, 0, 67, 0
2, 229488, Note_on_c, 0, 66, 92
2, 229535, Note_on_c, 0, 66, 0
2, 229536, Note_on_c, 0, 64, 92
2, 229631, Note_on_c, 0, 64, 0
2, 229631, Note_on_c, 0, 52, 0
2, 229632, Note_on_c, 0, 49, 92
2, 229728, Note_on_c, 0, 70, 92
2, 229775, Note_on_c, 0, 70, 0
2, 229776, Note_on_c, 0, 71, 92
2, 229823, Note_on_c, 0, 71, 0
2, 229823, Note_on_c, 0, 49, 0
2, 229824, Note_on_c, 0, 73, 92
2, 229824, Note_on_c, 0, 47, 92
2, 229871, Note_on_c, 0, 73, 0
2, 229872, Note_on_c, 0, 74, 92
2, 229919, Note_on_c, 0, 74, 0
2, 229920, Note_on_c, 0, 76, 92
2, 230015, Note_on_c, 0, 47, 0
2, 230016, Note_on_c, 0, 46, 92
2, 230063, Note_on_c, 0, 76, 0
2, 230064, Note_on_c, 0, 78, 92
2, 230111, Note_on_c, 0, 78, 0
2, 230112, Note_on_c, 0, 79, 92
2, 230207, Note_on_c, 0, 46, 0
2, 230208, Note_on_c, 0, 42, 92
2, 230255, Note_on_c, 0, 79, 0
2, 230256, Note_on_c, 0, 78, 92
2, 230303, Note_on_c, 0, 78, 0
2, 230304, Note_on_c, 0, 76, 92
2, 230399, Note_on_c, 0, 42, 0
2, 230400, Note_on_c, 0, 54, 92
2, 230447, Note_on_c, 0, 76, 0
2, 230448, Note_on_c, 0, 74, 92
2, 230495, Note_on_c, 0, 74, 0
2, 230496, Note_on_c, 0, 73, 92
2, 230591, Note_on_c, 0, 73, 0
2, 230591, Note_on_c, 0, 54, 0
2, 230592, Note_on_c, 0, 74, 92
2, 230592, Note_on_c, 0, 47, 92
2, 230639, Note_on_c, 0, 74, 0
2, 230640, Note_on_c, 0, 76, 92
2, 230687, Note_on_c, 0, 76, 0
2, 230688, Note_on_c, 0, 78, 92
2, 230783, Note_on_c, 0, 47, 0
2, 230784, Note_on_c, 0, 57, 92
2, 230831, Note_on_c, 0, 78, 0
2, 230832, Note_on_c, 0, 76, 92
2, 230879, Note_on_c, 0, 76, 0
2, 230880, Note_on_c, 0, 74, 92
2, 230975, Note_on_c, 0, 57, 0
2, 230976, Note_on_c, 0, 55, 92
2, 231023, Note_on_c, 0, 74, 0
2, 231024, Note_on_c, 0, 73, 92
2, 231071, Note_on_c, 0, 73, 0
2, 231072, Note_on_c, 0, 71, 92
2, 231167, Note_on_c, 0, 71, 0
2, 231167, Note_on_c, 0, 55, 0
2, 231168, Note_on_c, 0, 73, 92
2, 231168, Note_on_c, 0, 45, 92
2, 231215, Note_on_c, 0, 73, 0
2, 231216, Note_on_c, 0, 74, 92
2, 231263, Note_on_c, 0, 74, 0
2, 231264, Note_on_c, 0, 76, 92
2, 231359, Note_on_c, 0, 45, 0
2, 231360, Note_on_c, 0, 55, 92
2, 231407, Note_on_c, 0, 76, 0
2, 231408, Note_on_c, 0, 74, 92
2, 231455, Note_on_c, 0, 74, 0
2, 231456, Note_on_c, 0, 73, 92
2, 231551, Note_on_c, 0, 55, 0
2, 231552, Note_on_c, 0, 54, 92
2, 231599, Note_on_c, 0, 73, 0
2, 231600, Note_on_c, 0, 71, 92
2, 231647, Note_on_c, 0, 71, 0
2, 231648, Note_on_c, 0, 70, 92
2, 231743, Note_on_c, 0, 70, 0
2, 231743, Note_on_c, 0, 54, 0
2, 231744, Note_on_c, 0, 71, 92
2, 231744, Note_on_c, 0, 43, 92
2, 231791, Note_on_c, 0, 71, 0
2, 231792, Note_on_c, 0, 73, 92
2, 231839, Note_on_c, 0, 73, 0
2, 231840, Note_on_c, 0, 74, 92
2, 231935, Note_on_c, 0, 43, 0
2, 231936, Note_on_c, 0, 54, 92
2, 232031, Note_on_c, 0, 74, 0
2, 232032, Note_on_c, 0, 76, 92
2, 232079, Note_on_c, 0, 76, 0
2, 232080, Note_on_c, 0, 78, 92
2, 232127, Note_on_c, 0, 78, 0
2, 232127, Note_on_c, 0, 54, 0
2, 232128, Note_on_c, 0, 79, 92
2, 232128, Note_on_c, 0, 52, 92
2, 232175, Note_on_c, 0, 79, 0
2, 232176, Note_on_c, 0, 78, 92
2, 232223, Note_on_c, 0, 78, 0
2, 232224, Note_on_c, 0, 79, 92
2, 232319, Note_on_c, 0, 79, 0
2, 232319, Note_on_c, 0, 52, 0
2, 232320, Note_on_c, 0, 70, 92
2, 232320, Note_on_c, 0, 42, 92
2, 232368, Note_on_c, 0, 79, 92
2, 232415, Note_on_c, 0, 79, 0
2, 232416, Note_on_c, 0, 78, 92
2, 232460, Note_on_c, 0, 70, 0
2, 232463, Note_on_c, 0, 78, 0
2, 232464, Note_on_c, 0, 76, 92
2, 232511, Note_on_c, 0, 76, 0
2, 232511, Note_on_c, 0, 42, 0
2, 232512, Note_on_c, 0, 71, 92
2, 232512, Note_on_c, 0, 56, 92
2, 232560, Note_on_c, 0, 78, 92
2, 232607, Note_on_c, 0, 78, 0
2, 232608, Note_on_c, 0, 76, 92
2, 232652, Note_on_c, 0, 71, 0
2, 232655, Note_on_c, 0, 76, 0
2, 232656, Note_on_c, 0, 74, 92
2, 232703, Note_on_c, 0, 74, 0
2, 232703, Note_on_c, 0, 56, 0
2, 232704, Note_on_c, 0, 73, 92
2, 232704, Note_on_c, 0, 58, 92
2, 232752, Note_on_c, 0, 76, 92
2, 232799, Note_on_c, 0, 76, 0
2, 232800, Note_on_c, 0, 74, 92
2, 232844, Note_on_c, 0, 73, 0
2, 232847, Note_on_c, 0, 74, 0
2, 232848, Note_on_c, 0, 73, 92
2, 232895, Note_on_c, 0, 73, 0
2, 232895, Note_on_c, 0, 58, 0
2, 232896, Note_on_c, 0, 74, 92
2, 232896, Note_on_c, 0, 42, 92
2, 232944, Note_on_c, 0, 71, 92
2, 232991, Note_on_c, 0, 71, 0
2, 232992, Note_on_c, 0, 70, 92
2, 233039, Note_on_c, 0, 70, 0
2, 233040, Note_on_c, 0, 68, 92
2, 233087, Note_on_c, 0, 68, 0
2, 233087, Note_on_c, 0, 42, 0
2, 233088, Note_on_c, 0, 66, 92
2, 233088, Note_on_c, 0, 59, 92
2, 233131, Note_on_c, 0, 74, 0
2, 233135, Note_on_c, 0, 66, 0
2, 233136, Note_on_c, 0, 71, 92
2, 233183, Note_on_c, 0, 71, 0
2, 233184, Note_on_c, 0, 73, 92
2, 233231, Note_on_c, 0, 73, 0
2, 233232, Note_on_c, 0, 74, 92
2, 233279, Note_on_c, 0, 74, 0
2, 233279, Note_on_c, 0, 59, 0
2, 233280, Note_on_c, 0, 64, 92
2, 233280, Note_on_c, 0, 61, 92
2, 233327, Note_on_c, 0, 64, 0
2, 233328, Note_on_c, 0, 70, 92
2, 233375, Note_on_c, 0, 70, 0
2, 233376, Note_on_c, 0, 71, 92
2, 233423, Note_on_c, 0, 71, 0
2, 233424, Note_on_c, 0, 73, 92
2, 233471, Note_on_c, 0, 73, 0
2, 233471, Note_on_c, 0, 61, 0
2, 233472, Note_on_c, 0, 62, 92
2, 233472, Note_on_c, 0, 42, 92
2, 233519, Note_on_c, 0, 62, 0
2, 233520, Note_on_c, 0, 66, 92
2, 233567, Note_on_c, 0, 66, 0
2, 233568, Note_on_c, 0, 71, 92
2, 233663, Note_on_c, 0, 42, 0
2, 233664, Note_on_c, 0, 61, 92
2, 233711, Note_on_c, 0, 71, 0
2, 233712, Note_on_c, 0, 73, 92
2, 233759, Note_on_c, 0, 73, 0
2, 233760, Note_on_c, 0, 71, 92
2, 233807, Note_on_c, 0, 71, 0
2, 233808, Note_on_c, 0, 69, 92
2, 233855, Note_on_c, 0, 61, 0
2, 233856, Note_on_c, 0, 59, 92
2, 233903, Note_on_c, 0, 69, 0
2, 233904, Note_on_c, 0, 71, 92
2, 233951, Note_on_c, 0, 71, 0
2, 233952, Note_on_c, 0, 69, 92
2, 233999, Note_on_c, 0, 69, 0
2, 234000, Note_on_c, 0, 67, 92
2, 234047, Note_on_c, 0, 59, 0
2, 234048, Note_on_c, 0, 57, 92
2, 234095, Note_on_c, 0, 67, 0
2, 234096, Note_on_c, 0, 69, 92
2, 234143, Note_on_c, 0, 69, 0
2, 234144, Note_on_c, 0, 67, 92
2, 234191, Note_on_c, 0, 67, 0
2, 234192, Note_on_c, 0, 66, 92
2, 234239, Note_on_c, 0, 57, 0
2, 234240, Note_on_c, 0, 55, 92
2, 234287, Note_on_c, 0, 66, 0
2, 234288, Note_on_c, 0, 67, 92
2, 234335, Note_on_c, 0, 67, 0
2, 234336, Note_on_c, 0, 66, 92
2, 234383, Note_on_c, 0, 66, 0
2, 234384, Note_on_c, 0, 64, 92
2, 234431, Note_on_c, 0, 55, 0
2, 234432, Note_on_c, 0, 54, 92
2, 234479, Note_on_c, 0, 64, 0
2, 234480, Note_on_c, 0, 66, 92
2, 234527, Note_on_c, 0, 66, 0
2, 234528, Note_on_c, 0, 64, 92
2, 234575, Note_on_c, 0, 64, 0
2, 234576, Note_on_c, 0, 62, 92
2, 234623, Note_on_c, 0, 54, 0
2, 234624, Note_on_c, 0, 52, 92
2, 234671, Note_on_c, 0, 62, 0
2, 234672, Note_on_c, 0, 67, 92
2, 234719, Note_on_c, 0, 67, 0
2, 234720, Note_on_c, 0, 60, 92
2, 234810, Note_on_c, 0, 60, 0
2, 234815, Note_on_c, 0, 52, 0
2, 234816, Note_on_c, 0, 50, 92
2, 234864, Note_on_c, 0, 67, 92
2, 234911, Note_on_c, 0, 67, 0
2, 234912, Note_on_c, 0, 59, 92
2, 235002, Note_on_c, 0, 59, 0
2, 235007, Note_on_c, 0, 50, 0
2, 235008, Note_on_c, 0, 49, 92
2, 235056, Note_on_c, 0, 67, 92
2, 235103, Note_on_c, 0, 67, 0
2, 235104, Note_on_c, 0, 58, 92
2, 235247, Note_on_c, 0, 49, 0
2, 235248, Note_on_c, 0, 42, 92
2, 235295, Note_on_c, 0, 42, 0
2, 235296, Note_on_c, 0, 46, 92
2, 235343, Note_on_c, 0, 46, 0
2, 235344, Note_on_c, 0, 49, 92
2, 235391, Note_on_c, 0, 49, 0
2, 235392, Note_on_c, 0, 58, 0
2, 235392, Note_on_c, 0, 52, 92
2, 235439, Note_on_c, 0, 52, 0
2, 235440, Note_on_c, 0, 55, 92
2, 235487, Note_on_c, 0, 55, 0
2, 235488, Note_on_c, 0, 58, 92
2, 235535, Note_on_c, 0, 58, 0
2, 235536, Note_on_c, 0, 61, 92
2, 235583, Note_on_c, 0, 61, 0
2, 235584, Note_on_c, 0, 64, 92
2, 235631, Note_on_c, 0, 64, 0
2, 235632, Note_on_c, 0, 66, 92
2, 235679, Note_on_c, 0, 66, 0
2, 235680, Note_on_c, 0, 70, 92
2, 235727, Note_on_c, 0, 70, 0
2, 235728, Note_on_c, 0, 73, 92
2, 235775, Note_on_c, 0, 73, 0
2, 235776, Note_on_c, 0, 74, 92
2, 235823, Note_on_c, 0, 74, 0
2, 235824, Note_on_c, 0, 77, 92
2, 235871, Note_on_c, 0, 77, 0
2, 235872, Note_on_c, 0, 80, 92
2, 235919, Note_on_c, 0, 80, 0
2, 235920, Note_on_c, 0, 83, 92
2, 235968, Note_on_c, 0, 66, 92
2, 236012, Note_on_c, 0, 83, 0
2, 236112, Note_on_c, 0, 66, 0
2, 236160, Note_on_c, 0, 64, 92
2, 236160, Note_on_c, 0, 66, 92
2, 236160, Note_on_c, 0, 70, 92
2, 236160, Note_on_c, 0, 54, 92
2, 236160, Note_on_c, 0, 61, 92
2, 236330, Note_on_c, 0, 61, 0
2, 236330, Note_on_c, 0, 70, 0
2, 236330, Note_on_c, 0, 64, 0
2, 236330, Note_on_c, 0, 66, 0
2, 236330, Note_on_c, 0, 54, 0
2, 236352, Note_on_c, 0, 71, 92
2, 236352, Note_on_c, 0, 66, 92
2, 236352, Note_on_c, 0, 63, 92
2, 236352, Note_on_c, 0, 47, 92
2, 236352, Note_on_c, 0, 59, 92
2, 236732, Note_on_c, 0, 59, 0
2, 236732, Note_on_c, 0, 63, 0
2, 236732, Note_on_c, 0, 71, 0
2, 236732, Note_on_c, 0, 66, 0
2, 236732, Note_on_c, 0, 47, 0
2, 236832, Note_on_c, 0, 78, 92
2, 236927, Note_on_c, 0, 78, 0
2, 236928, Note_on_c, 0, 78, 92
2, 236928, Note_on_c, 0, 47, 92
2, 237023, Note_on_c, 0, 78, 0
2, 237024, Note_on_c, 0, 83, 92
2, 237119, Note_on_c, 0, 47, 0
2, 237120, Note_on_c, 0, 51, 92
2, 237208, Note_on_c, 0, 83, 0
2, 237216, Note_on_c, 0, 81, 92
2, 237311, Note_on_c, 0, 51, 0
2, 237312, Note_on_c, 0, 54, 92
2, 237400, Note_on_c, 0, 81, 0
2, 237408, Note_on_c, 0, 84, 92
2, 237503, Note_on_c, 0, 54, 0
2, 237504, Note_on_c, 0, 57, 92
2, 237592, Note_on_c, 0, 84, 0
2, 237600, Note_on_c, 0, 75, 92
2, 237695, Note_on_c, 0, 57, 0
2, 237696, Note_on_c, 0, 60, 92
2, 237784, Note_on_c, 0, 75, 0
2, 237792, Note_on_c, 0, 78, 92
2, 237887, Note_on_c, 0, 60, 0
2, 237888, Note_on_c, 0, 63, 92
2, 237976, Note_on_c, 0, 78, 0
2, 237984, Note_on_c, 0, 69, 92
2, 238079, Note_on_c, 0, 63, 0
2, 238080, Note_on_c, 0, 66, 92
2, 238168, Note_on_c, 0, 69, 0
2, 238176, Note_on_c, 0, 72, 92
2, 238271, Note_on_c, 0, 66, 0
2, 238272, Note_on_c, 0, 63, 92
2, 238360, Note_on_c, 0, 72, 0
2, 238368, Note_on_c, 0, 71, 92
2, 238463, Note_on_c, 0, 63, 0
2, 238464, Note_on_c, 0, 59, 92
2, 238552, Note_on_c, 0, 71, 0
2, 238560, Note_on_c, 0, 69, 92
2, 238655, Note_on_c, 0, 59, 0
2, 238656, Note_on_c, 0, 52, 92
2, 238703, Note_on_c, 0, 69, 0
2, 238704, Note_on_c, 0, 66, 92
2, 238751, Note_on_c, 0, 66, 0
2, 238752, Note_on_c, 0, 67, 92
2, 238847, Note_on_c, 0, 67, 0
2, 238847, Note_on_c, 0, 52, 0
2, 238848, Note_on_c, 0, 64, 92
2, 238944, Note_on_c, 0, 71, 92
2, 238991, Note_on_c, 0, 71, 0
2, 238992, Note_on_c, 0, 69, 92
2, 239039, Note_on_c, 0, 69, 0
2, 239039, Note_on_c, 0, 64, 0
2, 239040, Note_on_c, 0, 67, 92
2, 239040, Note_on_c, 0, 62, 92
2, 239087, Note_on_c, 0, 67, 0
2, 239088, Note_on_c, 0, 66, 92
2, 239135, Note_on_c, 0, 66, 0
2, 239136, Note_on_c, 0, 64, 92
2, 239231, Note_on_c, 0, 62, 0
2, 239232, Note_on_c, 0, 60, 92
2, 239264, Note_on_c, 0, 64, 0
2, 239280, Note_on_c, 0, 68, 92
2, 239327, Note_on_c, 0, 68, 0
2, 239328, Note_on_c, 0, 69, 92
2, 239423, Note_on_c, 0, 60, 0
2, 239424, Note_on_c, 0, 57, 92
2, 239471, Note_on_c, 0, 69, 0
2, 239472, Note_on_c, 0, 71, 92
2, 239519, Note_on_c, 0, 71, 0
2, 239520, Note_on_c, 0, 72, 92
2, 239615, Note_on_c, 0, 57, 0
2, 239616, Note_on_c, 0, 55, 92
2, 239663, Note_on_c, 0, 72, 0
2, 239664, Note_on_c, 0, 74, 92
2, 239711, Note_on_c, 0, 74, 0
2, 239712, Note_on_c, 0, 76, 92
2, 239807, Note_on_c, 0, 55, 0
2, 239808, Note_on_c, 0, 53, 92
2, 239855, Note_on_c, 0, 76, 0
2, 239856, Note_on_c, 0, 73, 92
2, 239903, Note_on_c, 0, 73, 0
2, 239904, Note_on_c, 0, 74, 92
2, 239999, Note_on_c, 0, 74, 0
2, 239999, Note_on_c, 0, 53, 0
2, 240000, Note_on_c, 0, 62, 92
2, 240096, Note_on_c, 0, 69, 92
2, 240143, Note_on_c, 0, 69, 0
2, 240144, Note_on_c, 0, 67, 92
2, 240191, Note_on_c, 0, 67, 0
2, 240191, Note_on_c, 0, 62, 0
2, 240192, Note_on_c, 0, 65, 92
2, 240192, Note_on_c, 0, 60, 92
2, 240239, Note_on_c, 0, 65, 0
2, 240240, Note_on_c, 0, 64, 92
2, 240287, Note_on_c, 0, 64, 0
2, 240288, Note_on_c, 0, 62, 92
2, 240383, Note_on_c, 0, 60, 0
2, 240384, Note_on_c, 0, 59, 92
2, 240416, Note_on_c, 0, 62, 0
2, 240432, Note_on_c, 0, 66, 92
2, 240479, Note_on_c, 0, 66, 0
2, 240480, Note_on_c, 0, 67, 92
2, 240575, Note_on_c, 0, 59, 0
2, 240576, Note_on_c, 0, 55, 92
2, 240623, Note_on_c, 0, 67, 0
2, 240624, Note_on_c, 0, 69, 92
2, 240671, Note_on_c, 0, 69, 0
2, 240672, Note_on_c, 0, 71, 92
2, 240767, Note_on_c, 0, 55, 0
2, 240768, Note_on_c, 0, 53, 92
2, 240815, Note_on_c, 0, 71, 0
2, 240816, Note_on_c, 0, 72, 92
2, 240863, Note_on_c, 0, 72, 0
2, 240864, Note_on_c, 0, 74, 92
2, 240959, Note_on_c, 0, 53, 0
2, 240960, Note_on_c, 0, 52, 92
2, 241007, Note_on_c, 0, 74, 0
2, 241008, Note_on_c, 0, 71, 92
2, 241055, Note_on_c, 0, 71, 0
2, 241056, Note_on_c, 0, 72, 92
2, 241151, Note_on_c, 0, 72, 0
2, 241151, Note_on_c, 0, 52, 0
2, 241152, Note_on_c, 0, 60, 92
2, 241248, Note_on_c, 0, 72, 92
2, 241295, Note_on_c, 0, 72, 0
2, 241296, Note_on_c, 0, 74, 92
2, 241343, Note_on_c, 0, 74, 0
2, 241343, Note_on_c, 0, 60, 0
2, 241344, Note_on_c, 0, 76, 92
2, 241344, Note_on_c, 0, 58, 92
2, 241391, Note_on_c, 0, 76, 0
2, 241392, Note_on_c, 0, 77, 92
2, 241439, Note_on_c, 0, 77, 0
2, 241440, Note_on_c, 0, 79, 92
2, 241535, Note_on_c, 0, 58, 0
2, 241536, Note_on_c, 0, 57, 92
2, 241583, Note_on_c, 0, 79, 0
2, 241584, Note_on_c, 0, 81, 92
2, 241631, Note_on_c, 0, 81, 0
2, 241632, Note_on_c, 0, 79, 92
2, 241679, Note_on_c, 0, 79, 0
2, 241680, Note_on_c, 0, 73, 92
2, 241727, Note_on_c, 0, 73, 0
2, 241727, Note_on_c, 0, 57, 0
2, 241728, Note_on_c, 0, 79, 92
2, 241728, Note_on_c, 0, 53, 92
2, 241776, Note_on_c, 0, 81, 92
2, 241818, Note_on_c, 0, 79, 0
2, 241823, Note_on_c, 0, 81, 0
2, 241824, Note_on_c, 0, 79, 92
2, 241872, Note_on_c, 0, 73, 92
2, 241876, Note_on_c, 0, 79, 0
2, 241919, Note_on_c, 0, 73, 0
2, 241919, Note_on_c, 0, 53, 0
2, 241920, Note_on_c, 0, 79, 92
2, 241920, Note_on_c, 0, 52, 92
2, 241968, Note_on_c, 0, 81, 92
2, 242010, Note_on_c, 0, 79, 0
2, 242015, Note_on_c, 0, 81, 0
2, 242016, Note_on_c, 0, 79, 92
2, 242063, Note_on_c, 0, 79, 0
2, 242064, Note_on_c, 0, 73, 92
2, 242111, Note_on_c, 0, 73, 0
2, 242111, Note_on_c, 0, 52, 0
2, 242112, Note_on_c, 0, 77, 92
2, 242112, Note_on_c, 0, 50, 92
2, 242160, Note_on_c, 0, 79, 92
2, 242202, Note_on_c, 0, 77, 0
2, 242207, Note_on_c, 0, 79, 0
2, 242208, Note_on_c, 0, 77, 92
2, 242255, Note_on_c, 0, 77, 0
2, 242256, Note_on_c, 0, 74, 92
2, 242303, Note_on_c, 0, 74, 0
2, 242303, Note_on_c, 0, 50, 0
2, 242304, Note_on_c, 0, 77, 92
2, 242304, Note_on_c, 0, 58, 92
2, 242352, Note_on_c, 0, 79, 92
2, 242394, Note_on_c, 0, 77, 0
2, 242399, Note_on_c, 0, 79, 0
2, 242400, Note_on_c, 0, 77, 92
2, 242448, Note_on_c, 0, 74, 92
2, 242454, Note_on_c, 0, 77, 0
2, 242495, Note_on_c, 0, 74, 0
2, 242495, Note_on_c, 0, 58, 0
2, 242496, Note_on_c, 0, 77, 92
2, 242496, Note_on_c, 0, 57, 92
2, 242544, Note_on_c, 0, 79, 92
2, 242586, Note_on_c, 0, 77, 0
2, 242591, Note_on_c, 0, 79, 0
2, 242592, Note_on_c, 0, 77, 92
2, 242640, Note_on_c, 0, 74, 92
2, 242652, Note_on_c, 0, 77, 0
2, 242687, Note_on_c, 0, 74, 0
2, 242687, Note_on_c, 0, 57, 0
2, 242688, Note_on_c, 0, 76, 92
2, 242688, Note_on_c, 0, 56, 92
2, 242736, Note_on_c, 0, 77, 92
2, 242778, Note_on_c, 0, 76, 0
2, 242783, Note_on_c, 0, 77, 0
2, 242784, Note_on_c, 0, 76, 92
2, 242831, Note_on_c, 0, 76, 0
2, 242832, Note_on_c, 0, 74, 92
2, 242879, Note_on_c, 0, 74, 0
2, 242879, Note_on_c, 0, 56, 0
2, 242880, Note_on_c, 0, 80, 92
2, 242880, Note_on_c, 0, 52, 92
2, 242928, Note_on_c, 0, 81, 92
2, 242970, Note_on_c, 0, 80, 0
2, 242975, Note_on_c, 0, 81, 0
2, 242976, Note_on_c, 0, 80, 92
2, 243023, Note_on_c, 0, 80, 0
2, 243024, Note_on_c, 0, 74, 92
2, 243071, Note_on_c, 0, 74, 0
2, 243071, Note_on_c, 0, 52, 0
2, 243072, Note_on_c, 0, 83, 92
2, 243072, Note_on_c, 0, 50, 92
2, 243120, Note_on_c, 0, 84, 92
2, 243162, Note_on_c, 0, 83, 0
2, 243167, Note_on_c, 0, 84, 0
2, 243168, Note_on_c, 0, 83, 92
2, 243216, Note_on_c, 0, 74, 92
2, 243228, Note_on_c, 0, 83, 0
2, 243263, Note_on_c, 0, 74, 0
2, 243263, Note_on_c, 0, 50, 0
2, 243264, Note_on_c, 0, 76, 92
2, 243264, Note_on_c, 0, 48, 92
2, 243311, Note_on_c, 0, 76, 0
2, 243312, Note_on_c, 0, 72, 92
2, 243359, Note_on_c, 0, 72, 0
2, 243360, Note_on_c, 0, 81, 92
2, 243455, Note_on_c, 0, 81, 0
2, 243455, Note_on_c, 0, 48, 0
2, 243456, Note_on_c, 0, 49, 92
2, 243552, Note_on_c, 0, 70, 92
2, 243599, Note_on_c, 0, 70, 0
2, 243600, Note_on_c, 0, 69, 92
2, 243647, Note_on_c, 0, 69, 0
2, 243647, Note_on_c, 0, 49, 0
2, 243648, Note_on_c, 0, 67, 92
2, 243648, Note_on_c, 0, 45, 92
2, 243695, Note_on_c, 0, 67, 0
2, 243696, Note_on_c, 0, 65, 92
2, 243743, Note_on_c, 0, 65, 0
2, 243744, Note_on_c, 0, 64, 92
2, 243839, Note_on_c, 0, 45, 0
2, 243840, Note_on_c, 0, 50, 92
2, 243887, Note_on_c, 0, 64, 0
2, 243888, Note_on_c, 0, 65, 92
2, 243935, Note_on_c, 0, 65, 0
2, 243936, Note_on_c, 0, 62, 92
2, 244024, Note_on_c, 0, 62, 0
2, 244031, Note_on_c, 0, 50, 0
2, 244032, Note_on_c, 0, 51, 92
2, 244128, Note_on_c, 0, 72, 92
2, 244175, Note_on_c, 0, 72, 0
2, 244176, Note_on_c, 0, 71, 92
2, 244223, Note_on_c, 0, 71, 0
2, 244223, Note_on_c, 0, 51, 0
2, 244224, Note_on_c, 0, 69, 92
2, 244224, Note_on_c, 0, 47, 92
2, 244271, Note_on_c, 0, 69, 0
2, 244272, Note_on_c, 0, 67, 92
2, 244319, Note_on_c, 0, 67, 0
2, 244320, Note_on_c, 0, 66, 92
2, 244415, Note_on_c, 0, 47, 0
2, 244416, Note_on_c, 0, 52, 92
2, 244463, Note_on_c, 0, 66, 0
2, 244464, Note_on_c, 0, 68, 92
2, 244511, Note_on_c, 0, 68, 0
2, 244512, Note_on_c, 0, 64, 92
2, 244600, Note_on_c, 0, 64, 0
2, 244607, Note_on_c, 0, 52, 0
2, 244608, Note_on_c, 0, 40, 92
2, 244704, Note_on_c, 0, 77, 92
2, 244751, Note_on_c, 0, 77, 0
2, 244752, Note_on_c, 0, 76, 92
2, 244799, Note_on_c, 0, 76, 0
2, 244799, Note_on_c, 0, 40, 0
2, 244800, Note_on_c, 0, 74, 92
2, 244800, Note_on_c, 0, 44, 92
2, 244847, Note_on_c, 0, 74, 0
2, 244848, Note_on_c, 0, 72, 92
2, 244895, Note_on_c, 0, 72, 0
2, 244896, Note_on_c, 0, 71, 92
2, 244991, Note_on_c, 0, 44, 0
2, 244992, Note_on_c, 0, 45, 92
2, 245080, Note_on_c, 0, 71, 0
2, 245088, Note_on_c, 0, 72, 92
2, 245183, Note_on_c, 0, 45, 0
2, 245184, Note_on_c, 0, 47, 92
2, 245272, Note_on_c, 0, 72, 0
2, 245280, Note_on_c, 0, 68, 92
2, 245375, Note_on_c, 0, 47, 0
2, 245376, Note_on_c, 0, 48, 92
2, 245464, Note_on_c, 0, 68, 0
2, 245472, Note_on_c, 0, 69, 92
2, 245567, Note_on_c, 0, 48, 0
2, 245568, Note_on_c, 0, 41, 92
2, 245656, Note_on_c, 0, 69, 0
2, 245664, Note_on_c, 0, 64, 92
2, 245759, Note_on_c, 0, 41, 0
2, 245760, Note_on_c, 0, 43, 92
2, 245848, Note_on_c, 0, 64, 0
2, 245856, Note_on_c, 0, 65, 92
2, 245951, Note_on_c, 0, 43, 0
2, 245952, Note_on_c, 0, 45, 92
2, 246040, Note_on_c, 0, 65, 0
2, 246048, Note_on_c, 0, 61, 92
2, 246143, Note_on_c, 0, 45, 0
2, 246144, Note_on_c, 0, 46, 92
2, 246232, Note_on_c, 0, 61, 0
2, 246240, Note_on_c, 0, 62, 92
2, 246335, Note_on_c, 0, 46, 0
2, 246336, Note_on_c, 0, 48, 92
2, 246424, Note_on_c, 0, 62, 0
2, 246432, Note_on_c, 0, 57, 92
2, 246527, Note_on_c, 0, 48, 0
2, 246528, Note_on_c, 0, 50, 92
2, 246616, Note_on_c, 0, 57, 0
2, 246624, Note_on_c, 0, 58, 92
2, 246712, Note_on_c, 0, 58, 0
2, 246719, Note_on_c, 0, 50, 0
2, 246720, Note_on_c, 0, 65, 92
2, 246720, Note_on_c, 0, 44, 92
2, 246767, Note_on_c, 0, 65, 0
2, 246768, Note_on_c, 0, 64, 92
2, 246815, Note_on_c, 0, 64, 0
2, 246816, Note_on_c, 0, 62, 92
2, 246911, Note_on_c, 0, 44, 0
2, 246912, Note_on_c, 0, 52, 92
2, 246952, Note_on_c, 0, 62, 0
2, 246960, Note_on_c, 0, 60, 92
2, 247007, Note_on_c, 0, 60, 0
2, 247008, Note_on_c, 0, 59, 92
2, 247103, Note_on_c, 0, 52, 0
2, 247104, Note_on_c, 0, 50, 92
2, 247144, Note_on_c, 0, 59, 0
2, 247152, Note_on_c, 0, 69, 92
2, 247199, Note_on_c, 0, 69, 0
2, 247200, Note_on_c, 0, 68, 92
2, 247290, Note_on_c, 0, 68, 0
2, 247295, Note_on_c, 0, 50, 0
2, 247296, Note_on_c, 0, 48, 92
2, 247344, Note_on_c, 0, 69, 92
2, 247391, Note_on_c, 0, 69, 0
2, 247392, Note_on_c, 0, 71, 92
2, 247439, Note_on_c, 0, 71, 0
2, 247440, Note_on_c, 0, 72, 92
2, 247487, Note_on_c, 0, 72, 0
2, 247487, Note_on_c, 0, 48, 0
2, 247488, Note_on_c, 0, 74, 92
2, 247488, Note_on_c, 0, 45, 92
2, 247535, Note_on_c, 0, 74, 0
2, 247536, Note_on_c, 0, 76, 92
2, 247583, Note_on_c, 0, 76, 0
2, 247584, Note_on_c, 0, 77, 92
2, 247679, Note_on_c, 0, 45, 0
2, 247680, Note_on_c, 0, 40, 92
2, 247754, Note_on_c, 0, 77, 0
2, 247776, Note_on_c, 0, 68, 92
2, 247871, Note_on_c, 0, 40, 0
2, 247872, Note_on_c, 0, 45, 92
2, 247967, Note_on_c, 0, 68, 0
2, 247968, Note_on_c, 0, 69, 92
2, 248063, Note_on_c, 0, 69, 0
2, 248063, Note_on_c, 0, 45, 0
2, 248064, Note_on_c, 0, 57, 92
2, 248160, Note_on_c, 0, 84, 92
2, 248207, Note_on_c, 0, 84, 0
2, 248208, Note_on_c, 0, 83, 92
2, 248255, Note_on_c, 0, 83, 0
2, 248255, Note_on_c, 0, 57, 0
2, 248256, Note_on_c, 0, 81, 92
2, 248256, Note_on_c, 0, 60, 92
2, 248303, Note_on_c, 0, 81, 0
2, 248304, Note_on_c, 0, 79, 92
2, 248351, Note_on_c, 0, 79, 0
2, 248352, Note_on_c, 0, 78, 92
2, 248399, Note_on_c, 0, 78, 0
2, 248400, Note_on_c, 0, 76, 92
2, 248447, Note_on_c, 0, 76, 0
2, 248447, Note_on_c, 0, 60, 0
2, 248448, Note_on_c, 0, 78, 92
2, 248448, Note_on_c, 0, 63, 92
2, 248496, Note_on_c, 0, 81, 92
2, 248538, Note_on_c, 0, 78, 0
2, 248543, Note_on_c, 0, 81, 0
2, 248544, Note_on_c, 0, 78, 92
2, 248591, Note_on_c, 0, 78, 0
2, 248592, Note_on_c, 0, 76, 92
2, 248639, Note_on_c, 0, 76, 0
2, 248639, Note_on_c, 0, 63, 0
2, 248640, Note_on_c, 0, 75, 92
2, 248640, Note_on_c, 0, 66, 92
2, 248688, Note_on_c, 0, 78, 92
2, 248730, Note_on_c, 0, 75, 0
2, 248735, Note_on_c, 0, 78, 0
2, 248736, Note_on_c, 0, 72, 92
2, 248783, Note_on_c, 0, 72, 0
2, 248784, Note_on_c, 0, 71, 92
2, 248831, Note_on_c, 0, 71, 0
2, 248831, Note_on_c, 0, 66, 0
2, 248832, Note_on_c, 0, 69, 92
2, 248832, Note_on_c, 0, 59, 92
2, 248880, Note_on_c, 0, 78, 92
2, 248922, Note_on_c, 0, 69, 0
2, 248927, Note_on_c, 0, 78, 0
2, 248928, Note_on_c, 0, 71, 92
2, 248975, Note_on_c, 0, 71, 0
2, 248976, Note_on_c, 0, 69, 92
2, 249023, Note_on_c, 0, 69, 0
2, 249023, Note_on_c, 0, 59, 0
2, 249024, Note_on_c, 0, 67, 92
2, 249024, Note_on_c, 0, 64, 92
2, 249072, Note_on_c, 0, 76, 92
2, 249114, Note_on_c, 0, 67, 0
2, 249119, Note_on_c, 0, 76, 0
2, 249120, Note_on_c, 0, 71, 92
2, 249167, Note_on_c, 0, 71, 0
2, 249168, Note_on_c, 0, 69, 92
2, 249215, Note_on_c, 0, 69, 0
2, 249215, Note_on_c, 0, 64, 0
2, 249216, Note_on_c, 0, 67, 92
2, 249216, Note_on_c, 0, 52, 92
2, 249264, Note_on_c, 0, 71, 92
2, 249276, Note_on_c, 0, 67, 0
2, 249311, Note_on_c, 0, 71, 0
2, 249312, Note_on_c, 0, 67, 92
2, 249360, Note_on_c, 0, 66, 92
2, 249372, Note_on_c, 0, 67, 0
2, 249407, Note_on_c, 0, 66, 0
2, 249407, Note_on_c, 0, 52, 0
2, 249408, Note_on_c, 0, 64, 92
2, 249408, Note_on_c, 0, 55, 92
2, 249455, Note_on_c, 0, 64, 0
2, 249456, Note_on_c, 0, 67, 92
2, 249503, Note_on_c, 0, 67, 0
2, 249504, Note_on_c, 0, 71, 92
2, 249551, Note_on_c, 0, 71, 0
2, 249552, Note_on_c, 0, 74, 92
2, 249599, Note_on_c, 0, 74, 0
2, 249599, Note_on_c, 0, 55, 0
2, 249600, Note_on_c, 0, 73, 92
2, 249600, Note_on_c, 0, 58, 92
2, 249648, Note_on_c, 0, 76, 92
2, 249690, Note_on_c, 0, 73, 0
2, 249695, Note_on_c, 0, 76, 0
2, 249696, Note_on_c, 0, 73, 92
2, 249743, Note_on_c, 0, 73, 0
2, 249744, Note_on_c, 0, 71, 92
2, 249791, Note_on_c, 0, 71, 0
2, 249791, Note_on_c, 0, 58, 0
2, 249792, Note_on_c, 0, 70, 92
2, 249792, Note_on_c, 0, 61, 92
2, 249840, Note_on_c, 0, 76, 92
2, 249882, Note_on_c, 0, 70, 0
2, 249887, Note_on_c, 0, 76, 0
2, 249888, Note_on_c, 0, 67, 92
2, 249935, Note_on_c, 0, 67, 0
2, 249936, Note_on_c, 0, 66, 92
2, 249983, Note_on_c, 0, 66, 0
2, 249983, Note_on_c, 0, 61, 0
2, 249984, Note_on_c, 0, 64, 92
2, 249984, Note_on_c, 0, 54, 92
2, 250032, Note_on_c, 0, 73, 92
2, 250074, Note_on_c, 0, 64, 0
2, 250079, Note_on_c, 0, 73, 0
2, 250080, Note_on_c, 0, 66, 92
2, 250127, Note_on_c, 0, 66, 0
2, 250128, Note_on_c, 0, 64, 92
2, 250175, Note_on_c, 0, 64, 0
2, 250175, Note_on_c, 0, 54, 0
2, 250176, Note_on_c, 0, 63, 92
2, 250176, Note_on_c, 0, 59, 92
2, 250224, Note_on_c, 0, 71, 92
2, 250266, Note_on_c, 0, 63, 0
2, 250271, Note_on_c, 0, 71, 0
2, 250272, Note_on_c, 0, 66, 92
2, 250319, Note_on_c, 0, 66, 0
2, 250320, Note_on_c, 0, 64, 92
2, 250367, Note_on_c, 0, 64, 0
2, 250367, Note_on_c, 0, 59, 0
2, 250368, Note_on_c, 0, 63, 92
2, 250368, Note_on_c, 0, 47, 92
2, 250416, Note_on_c, 0, 66, 92
2, 250428, Note_on_c, 0, 63, 0
2, 250463, Note_on_c, 0, 66, 0
2, 250464, Note_on_c, 0, 63, 92
2, 250512, Note_on_c, 0, 61, 92
2, 250524, Note_on_c, 0, 63, 0
2, 250559, Note_on_c, 0, 61, 0
2, 250559, Note_on_c, 0, 47, 0
2, 250560, Note_on_c, 0, 59, 92
2, 250560, Note_on_c, 0, 51, 92
2, 250750, Note_on_c, 0, 59, 0
2, 250751, Note_on_c, 0, 51, 0
2, 250752, Note_on_c, 0, 52, 92
2, 250848, Note_on_c, 0, 71, 92
2, 250943, Note_on_c, 0, 52, 0
2, 250944, Note_on_c, 0, 55, 92
2, 251032, Note_on_c, 0, 71, 0
2, 251040, Note_on_c, 0, 64, 92
2, 251135, Note_on_c, 0, 55, 0
2, 251136, Note_on_c, 0, 60, 92
2, 251224, Note_on_c, 0, 64, 0
2, 251232, Note_on_c, 0, 66, 92
2, 251327, Note_on_c, 0, 60, 0
2, 251328, Note_on_c, 0, 51, 92
2, 251416, Note_on_c, 0, 66, 0
2, 251424, Note_on_c, 0, 72, 92
2, 251519, Note_on_c, 0, 51, 0
2, 251520, Note_on_c, 0, 54, 92
2, 251608, Note_on_c, 0, 72, 0
2, 251616, Note_on_c, 0, 71, 92
2, 251711, Note_on_c, 0, 54, 0
2, 251712, Note_on_c, 0, 59, 92
2, 251800, Note_on_c, 0, 71, 0
2, 251808, Note_on_c, 0, 69, 92
2, 251903, Note_on_c, 0, 59, 0
2, 251904, Note_on_c, 0, 52, 92
2, 251992, Note_on_c, 0, 69, 0
2, 252000, Note_on_c, 0, 67, 92
2, 252095, Note_on_c, 0, 52, 0
2, 252096, Note_on_c, 0, 57, 92
2, 252184, Note_on_c, 0, 67, 0
2, 252192, Note_on_c, 0, 66, 92
2, 252239, Note_on_c, 0, 66, 0
2, 252240, Note_on_c, 0, 64, 92
2, 252287, Note_on_c, 0, 64, 0
2, 252287, Note_on_c, 0, 57, 0
2, 252288, Note_on_c, 0, 66, 92
2, 252288, Note_on_c, 0, 48, 92
2, 252383, Note_on_c, 0, 66, 0
2, 252384, Note_on_c, 0, 69, 92
2, 252479, Note_on_c, 0, 48, 0
2, 252480, Note_on_c, 0, 47, 92
2, 252575, Note_on_c, 0, 69, 0
2, 252576, Note_on_c, 0, 63, 92
2, 252664, Note_on_c, 0, 63, 0
2, 252671, Note_on_c, 0, 47, 0
2, 252672, Note_on_c, 0, 59, 92
2, 252768, Note_on_c, 0, 75, 92
2, 252815, Note_on_c, 0, 75, 0
2, 252816, Note_on_c, 0, 76, 92
2, 252863, Note_on_c, 0, 76, 0
2, 252863, Note_on_c, 0, 59, 0
2, 252864, Note_on_c, 0, 78, 92
2, 252864, Note_on_c, 0, 51, 92
2, 252959, Note_on_c, 0, 78, 0
2, 252960, Note_on_c, 0, 69, 92
2, 253055, Note_on_c, 0, 51, 0
2, 253056, Note_on_c, 0, 52, 92
2, 253151, Note_on_c, 0, 69, 0
2, 253152, Note_on_c, 0, 67, 92
2, 253240, Note_on_c, 0, 67, 0
2, 253247, Note_on_c, 0, 52, 0
2, 253248, Note_on_c, 0, 40, 92
2, 253344, Note_on_c, 0, 80, 92
2, 253391, Note_on_c, 0, 80, 0
2, 253392, Note_on_c, 0, 81, 92
2, 253439, Note_on_c, 0, 81, 0
2, 253439, Note_on_c, 0, 40, 0
2, 253440, Note_on_c, 0, 83, 92
2, 253440, Note_on_c, 0, 44, 92
2, 253535, Note_on_c, 0, 83, 0
2, 253536, Note_on_c, 0, 74, 92
2, 253631, Note_on_c, 0, 44, 0
2, 253632, Note_on_c, 0, 45, 92
2, 253727, Note_on_c, 0, 74, 0
2, 253728, Note_on_c, 0, 72, 92
2, 253816, Note_on_c, 0, 72, 0
2, 253823, Note_on_c, 0, 45, 0
2, 253824, Note_on_c, 0, 57, 92
2, 253920, Note_on_c, 0, 73, 92
2, 253967, Note_on_c, 0, 73, 0
2, 253968, Note_on_c, 0, 74, 92
2, 254015, Note_on_c, 0, 74, 0
2, 254015, Note_on_c, 0, 57, 0
2, 254016, Note_on_c, 0, 76, 92
2, 254016, Note_on_c, 0, 49, 92
2, 254111, Note_on_c, 0, 76, 0
2, 254112, Note_on_c, 0, 67, 92
2, 254207, Note_on_c, 0, 49, 0
2, 254208, Note_on_c, 0, 50, 92
2, 254303, Note_on_c, 0, 67, 0
2, 254304, Note_on_c, 0, 65, 92
2, 254392, Note_on_c, 0, 65, 0
2, 254399, Note_on_c, 0, 50, 0
2, 254400, Note_on_c, 0, 38, 92
2, 254496, Note_on_c, 0, 78, 92
2, 254543, Note_on_c, 0, 78, 0
2, 254544, Note_on_c, 0, 79, 92
2, 254591, Note_on_c, 0, 79, 0
2, 254591, Note_on_c, 0, 38, 0
2, 254592, Note_on_c, 0, 81, 92
2, 254592, Note_on_c, 0, 42, 92
2, 254687, Note_on_c, 0, 81, 0
2, 254688, Note_on_c, 0, 72, 92
2, 254783, Note_on_c, 0, 42, 0
2, 254784, Note_on_c, 0, 43, 92
2, 254879, Note_on_c, 0, 72, 0
2, 254880, Note_on_c, 0, 71, 92
2, 254968, Note_on_c, 0, 71, 0
2, 254975, Note_on_c, 0, 43, 0
2, 254976, Note_on_c, 0, 55, 92
2, 255072, Note_on_c, 0, 71, 92
2, 255119, Note_on_c, 0, 71, 0
2, 255120, Note_on_c, 0, 72, 92
2, 255167, Note_on_c, 0, 72, 0
2, 255167, Note_on_c, 0, 55, 0
2, 255168, Note_on_c, 0, 74, 92
2, 255168, Note_on_c, 0, 47, 92
2, 255263, Note_on_c, 0, 74, 0
2, 255264, Note_on_c, 0, 65, 92
2, 255359, Note_on_c, 0, 65, 0
2, 255359, Note_on_c, 0, 47, 0
2, 255360, Note_on_c, 0, 64, 92
2, 255360, Note_on_c, 0, 48, 92
2, 255407, Note_on_c, 0, 64, 0
2, 255408, Note_on_c, 0, 65, 92
2, 255455, Note_on_c, 0, 65, 0
2, 255456, Note_on_c, 0, 67, 92
2, 255551, Note_on_c, 0, 48, 0
2, 255552, Note_on_c, 0, 59, 92
2, 255599, Note_on_c, 0, 67, 0
2, 255600, Note_on_c, 0, 65, 92
2, 255647, Note_on_c, 0, 65, 0
2, 255648, Note_on_c, 0, 64, 92
2, 255743, Note_on_c, 0, 59, 0
2, 255744, Note_on_c, 0, 57, 92
2, 255791, Note_on_c, 0, 64, 0
2, 255792, Note_on_c, 0, 62, 92
2, 255839, Note_on_c, 0, 62, 0
2, 255840, Note_on_c, 0, 60, 92
2, 255935, Note_on_c, 0, 60, 0
2, 255935, Note_on_c, 0, 57, 0
2, 255936, Note_on_c, 0, 62, 92
2, 255936, Note_on_c, 0, 47, 92
2, 255983, Note_on_c, 0, 62, 0
2, 255984, Note_on_c, 0, 64, 92
2, 256031, Note_on_c, 0, 64, 0
2, 256032, Note_on_c, 0, 65, 92
2, 256127, Note_on_c, 0, 47, 0
2, 256128, Note_on_c, 0, 57, 92
2, 256175, Note_on_c, 0, 65, 0
2, 256176, Note_on_c, 0, 64, 92
2, 256223, Note_on_c, 0, 64, 0
2, 256224, Note_on_c, 0, 62, 92
2, 256319, Note_on_c, 0, 57, 0
2, 256320, Note_on_c, 0, 55, 92
2, 256367, Note_on_c, 0, 62, 0
2, 256368, Note_on_c, 0, 60, 92
2, 256415, Note_on_c, 0, 60, 0
2, 256416, Note_on_c, 0, 59, 92
2, 256511, Note_on_c, 0, 59, 0
2, 256511, Note_on_c, 0, 55, 0
2, 256512, Note_on_c, 0, 60, 92
2, 256512, Note_on_c, 0, 45, 92
2, 256559, Note_on_c, 0, 60, 0
2, 256560, Note_on_c, 0, 62, 92
2, 256607, Note_on_c, 0, 62, 0
2, 256608, Note_on_c, 0, 64, 92
2, 256703, Note_on_c, 0, 45, 0
2, 256704, Note_on_c, 0, 55, 92
2, 256799, Note_on_c, 0, 64, 0
2, 256800, Note_on_c, 0, 65, 92
2, 256847, Note_on_c, 0, 65, 0
2, 256848, Note_on_c, 0, 67, 92
2, 256895, Note_on_c, 0, 67, 0
2, 256895, Note_on_c, 0, 55, 0
2, 256896, Note_on_c, 0, 69, 92
2, 256896, Note_on_c, 0, 53, 92
2, 256943, Note_on_c, 0, 69, 0
2, 256944, Note_on_c, 0, 71, 92
2, 256991, Note_on_c, 0, 71, 0
2, 256992, Note_on_c, 0, 72, 92
2, 257039, Note_on_c, 0, 72, 0
2, 257040, Note_on_c, 0, 69, 92
2, 257087, Note_on_c, 0, 69, 0
2, 257087, Note_on_c, 0, 53, 0
2, 257088, Note_on_c, 0, 65, 92
2, 257088, Note_on_c, 0, 43, 92
2, 257136, Note_on_c, 0, 74, 92
2, 257183, Note_on_c, 0, 74, 0
2, 257184, Note_on_c, 0, 71, 92
2, 257228, Note_on_c, 0, 65, 0
2, 257231, Note_on_c, 0, 71, 0
2, 257232, Note_on_c, 0, 67, 92
2, 257279, Note_on_c, 0, 67, 0
2, 257279, Note_on_c, 0, 43, 0
2, 257280, Note_on_c, 0, 65, 92
2, 257280, Note_on_c, 0, 55, 92
2, 257328, Note_on_c, 0, 74, 92
2, 257375, Note_on_c, 0, 74, 0
2, 257376, Note_on_c, 0, 71, 92
2, 257420, Note_on_c, 0, 65, 0
2, 257423, Note_on_c, 0, 71, 0
2, 257424, Note_on_c, 0, 67, 92
2, 257471, Note_on_c, 0, 67, 0
2, 257471, Note_on_c, 0, 55, 0
2, 257472, Note_on_c, 0, 65, 92
2, 257472, Note_on_c, 0, 43, 92
2, 257520, Note_on_c, 0, 74, 92
2, 257567, Note_on_c, 0, 74, 0
2, 257568, Note_on_c, 0, 71, 92
2, 257612, Note_on_c, 0, 65, 0
2, 257615, Note_on_c, 0, 71, 0
2, 257616, Note_on_c, 0, 67, 92
2, 257663, Note_on_c, 0, 67, 0
2, 257664, Note_on_c, 0, 64, 92
2, 257712, Note_on_c, 0, 72, 92
2, 257759, Note_on_c, 0, 72, 0
2, 257760, Note_on_c, 0, 67, 92
2, 257804, Note_on_c, 0, 64, 0
2, 257807, Note_on_c, 0, 67, 0
2, 257808, Note_on_c, 0, 64, 92
2, 257855, Note_on_c, 0, 64, 0
2, 257855, Note_on_c, 0, 43, 0
2, 257856, Note_on_c, 0, 60, 92
2, 257856, Note_on_c, 0, 55, 92
2, 257904, Note_on_c, 0, 67, 92
2, 257951, Note_on_c, 0, 67, 0
2, 257952, Note_on_c, 0, 64, 92
2, 257976, Note_on_c, 0, 60, 0
2, 257999, Note_on_c, 0, 64, 0
2, 258000, Note_on_c, 0, 60, 92
2, 258047, Note_on_c, 0, 60, 0
2, 258047, Note_on_c, 0, 55, 0
2, 258048, Note_on_c, 0, 59, 92
2, 258048, Note_on_c, 0, 43, 92
2, 258095, Note_on_c, 0, 59, 0
2, 258096, Note_on_c, 0, 60, 92
2, 258143, Note_on_c, 0, 60, 0
2, 258144, Note_on_c, 0, 62, 92
2, 258191, Note_on_c, 0, 62, 0
2, 258192, Note_on_c, 0, 64, 92
2, 258239, Note_on_c, 0, 64, 0
2, 258240, Note_on_c, 0, 65, 92
2, 258287, Note_on_c, 0, 65, 0
2, 258288, Note_on_c, 0, 74, 92
2, 258335, Note_on_c, 0, 74, 0
2, 258336, Note_on_c, 0, 71, 92
2, 258383, Note_on_c, 0, 71, 0
2, 258384, Note_on_c, 0, 67, 92
2, 258431, Note_on_c, 0, 67, 0
2, 258431, Note_on_c, 0, 43, 0
2, 258432, Note_on_c, 0, 65, 92
2, 258432, Note_on_c, 0, 55, 92
2, 258479, Note_on_c, 0, 65, 0
2, 258480, Note_on_c, 0, 74, 92
2, 258527, Note_on_c, 0, 74, 0
2, 258528, Note_on_c, 0, 71, 92
2, 258575, Note_on_c, 0, 71, 0
2, 258576, Note_on_c, 0, 67, 92
2, 258623, Note_on_c, 0, 67, 0
2, 258623, Note_on_c, 0, 55, 0
2, 258624, Note_on_c, 0, 65, 92
2, 258624, Note_on_c, 0, 43, 92
2, 258671, Note_on_c, 0, 65, 0
2, 258672, Note_on_c, 0, 74, 92
2, 258719, Note_on_c, 0, 74, 0
2, 258720, Note_on_c, 0, 71, 92
2, 258767, Note_on_c, 0, 71, 0
2, 258768, Note_on_c, 0, 65, 92
2, 258815, Note_on_c, 0, 65, 0
2, 258816, Note_on_c, 0, 64, 92
2, 258863, Note_on_c, 0, 64, 0
2, 258864, Note_on_c, 0, 72, 92
2, 258911, Note_on_c, 0, 72, 0
2, 258912, Note_on_c, 0, 67, 92
2, 258959, Note_on_c, 0, 67, 0
2, 258960, Note_on_c, 0, 64, 92
2, 259007, Note_on_c, 0, 64, 0
2, 259007, Note_on_c, 0, 43, 0
2, 259008, Note_on_c, 0, 60, 92
2, 259008, Note_on_c, 0, 55, 92
2, 259055, Note_on_c, 0, 60, 0
2, 259056, Note_on_c, 0, 67, 92
2, 259103, Note_on_c, 0, 67, 0
2, 259104, Note_on_c, 0, 64, 92
2, 259151, Note_on_c, 0, 64, 0
2, 259152, Note_on_c, 0, 60, 92
2, 259199, Note_on_c, 0, 60, 0
2, 259199, Note_on_c, 0, 55, 0
2, 259200, Note_on_c, 0, 59, 92
2, 259200, Note_on_c, 0, 43, 92
2, 259247, Note_on_c, 0, 59, 0
2, 259248, Note_on_c, 0, 60, 92
2, 259295, Note_on_c, 0, 60, 0
2, 259296, Note_on_c, 0, 62, 92
2, 259343, Note_on_c, 0, 62, 0
2, 259344, Note_on_c, 0, 64, 92
2, 259391, Note_on_c, 0, 64, 0
2, 259392, Note_on_c, 0, 66, 92
2, 259440, Note_on_c, 0, 63, 92
2, 259487, Note_on_c, 0, 63, 0
2, 259488, Note_on_c, 0, 62, 92
2, 259535, Note_on_c, 0, 62, 0
2, 259536, Note_on_c, 0, 60, 92
2, 259583, Note_on_c, 0, 60, 0
2, 259583, Note_on_c, 0, 43, 0
2, 259584, Note_on_c, 0, 57, 92
2, 259584, Note_on_c, 0, 55, 92
2, 259631, Note_on_c, 0, 57, 0
2, 259632, Note_on_c, 0, 60, 92
2, 259679, Note_on_c, 0, 60, 0
2, 259680, Note_on_c, 0, 62, 92
2, 259727, Note_on_c, 0, 62, 0
2, 259728, Note_on_c, 0, 63, 92
2, 259772, Note_on_c, 0, 66, 0
2, 259775, Note_on_c, 0, 63, 0
2, 259775, Note_on_c, 0, 55, 0
2, 259776, Note_on_c, 0, 66, 92
2, 259776, Note_on_c, 0, 43, 92
2, 259823, Note_on_c, 0, 66, 0
2, 259824, Note_on_c, 0, 63, 92
2, 259871, Note_on_c, 0, 63, 0
2, 259872, Note_on_c, 0, 62, 92
2, 259919, Note_on_c, 0, 62, 0
2, 259920, Note_on_c, 0, 60, 92
2, 259967, Note_on_c, 0, 60, 0
2, 259968, Note_on_c, 0, 65, 92
2, 260016, Note_on_c, 0, 62, 92
2, 260063, Note_on_c, 0, 62, 0
2, 260064, Note_on_c, 0, 60, 92
2, 260111, Note_on_c, 0, 60, 0
2, 260112, Note_on_c, 0, 59, 92
2, 260159, Note_on_c, 0, 59, 0
2, 260159, Note_on_c, 0, 43, 0
2, 260160, Note_on_c, 0, 56, 92
2, 260160, Note_on_c, 0, 59, 92
2, 260160, Note_on_c, 0, 55, 92
2, 260207, Note_on_c, 0, 59, 0
2, 260207, Note_on_c, 0, 56, 0
2, 260208, Note_on_c, 0, 59, 92
2, 260255, Note_on_c, 0, 59, 0
2, 260256, Note_on_c, 0, 60, 92
2, 260303, Note_on_c, 0, 60, 0
2, 260304, Note_on_c, 0, 62, 92
2, 260308, Note_on_c, 0, 65, 0
2, 260351, Note_on_c, 0, 62, 0
2, 260351, Note_on_c, 0, 55, 0
2, 260352, Note_on_c, 0, 65, 92
2, 260352, Note_on_c, 0, 43, 92
2, 260399, Note_on_c, 0, 65, 0
2, 260400, Note_on_c, 0, 62, 92
2, 260447, Note_on_c, 0, 62, 0
2, 260448, Note_on_c, 0, 60, 92
2, 260495, Note_on_c, 0, 60, 0
2, 260496, Note_on_c, 0, 59, 92
2, 260543, Note_on_c, 0, 59, 0
2, 260544, Note_on_c, 0, 63, 92
2, 260592, Note_on_c, 0, 60, 92
2, 260639, Note_on_c, 0, 60, 0
2, 260640, Note_on_c, 0, 59, 92
2, 260687, Note_on_c, 0, 59, 0
2, 260688, Note_on_c, 0, 57, 92
2, 260735, Note_on_c, 0, 57, 0
2, 260735, Note_on_c, 0, 43, 0
2, 260736, Note_on_c, 0, 54, 92
2, 260736, Note_on_c, 0, 55, 92
2, 260783, Note_on_c, 0, 54, 0
2, 260784, Note_on_c, 0, 57, 92
2, 260831, Note_on_c, 0, 57, 0
2, 260832, Note_on_c, 0, 59, 92
2, 260844, Note_on_c, 0, 63, 0
2, 260879, Note_on_c, 0, 59, 0
2, 260880, Note_on_c, 0, 60, 92
2, 260927, Note_on_c, 0, 60, 0
2, 260927, Note_on_c, 0, 55, 0
2, 260928, Note_on_c, 0, 63, 92
2, 260928, Note_on_c, 0, 43, 92
2, 260975, Note_on_c, 0, 63, 0
2, 260976, Note_on_c, 0, 60, 92
2, 261023, Note_on_c, 0, 60, 0
2, 261024, Note_on_c, 0, 59, 92
2, 261071, Note_on_c, 0, 59, 0
2, 261072, Note_on_c, 0, 57, 92
2, 261119, Note_on_c, 0, 57, 0
2, 261120, Note_on_c, 0, 66, 92
2, 261167, Note_on_c, 0, 66, 0
2, 261168, Note_on_c, 0, 63, 92
2, 261215, Note_on_c, 0, 63, 0
2, 261216, Note_on_c, 0, 62, 92
2, 261263, Note_on_c, 0, 62, 0
2, 261264, Note_on_c, 0, 60, 92
2, 261311, Note_on_c, 0, 60, 0
2, 261311, Note_on_c, 0, 43, 0
2, 261312, Note_on_c, 0, 68, 92
2, 261312, Note_on_c, 0, 50, 92
2, 261359, Note_on_c, 0, 68, 0
2, 261360, Note_on_c, 0, 65, 92
2, 261407, Note_on_c, 0, 65, 0
2, 261408, Note_on_c, 0, 63, 92
2, 261455, Note_on_c, 0, 63, 0
2, 261456, Note_on_c, 0, 62, 92
2, 261503, Note_on_c, 0, 62, 0
2, 261503, Note_on_c, 0, 50, 0
2, 261504, Note_on_c, 0, 71, 92
2, 261504, Note_on_c, 0, 41, 92
2, 261551, Note_on_c, 0, 71, 0
2, 261552, Note_on_c, 0, 68, 92
2, 261599, Note_on_c, 0, 68, 0
2, 261600, Note_on_c, 0, 67, 92
2, 261647, Note_on_c, 0, 67, 0
2, 261648, Note_on_c, 0, 65, 92
2, 261691, Note_on_c, 0, 65, 0
2, 261695, Note_on_c, 0, 41, 0
2, 261696, Note_on_c, 0, 72, 92
2, 261696, Note_on_c, 0, 40, 92
2, 261743, Note_on_c, 0, 72, 0
2, 261744, Note_on_c, 0, 71, 92
2, 261791, Note_on_c, 0, 71, 0
2, 261792, Note_on_c, 0, 72, 92
2, 261887, Note_on_c, 0, 40, 0
2, 261888, Note_on_c, 0, 41, 92
2, 261962, Note_on_c, 0, 72, 0
2, 261984, Note_on_c, 0, 76, 92
2, 262079, Note_on_c, 0, 76, 0
2, 262079, Note_on_c, 0, 41, 0
2, 262080, Note_on_c, 0, 67, 92
2, 262080, Note_on_c, 0, 43, 92
2, 262175, Note_on_c, 0, 67, 0
2, 262176, Note_on_c, 0, 71, 92
2, 262271, Note_on_c, 0, 71, 0
2, 262271, Note_on_c, 0, 43, 0
2, 262272, Note_on_c, 0, 72, 92
2, 262272, Note_on_c, 0, 36, 92
2, 262462, Note_on_c, 0, 72, 0
2, 262463, Note_on_c, 0, 36, 0
2, 262464, Note_on_c, 0, 48, 92
2, 262560, Note_on_c, 0, 76, 92
2, 262607, Note_on_c, 0, 76, 0
2, 262608, Note_on_c, 0, 74, 92
2, 262655, Note_on_c, 0, 74, 0
2, 262655, Note_on_c, 0, 48, 0
2, 262656, Note_on_c, 0, 72, 92
2, 262656, Note_on_c, 0, 52, 92
2, 262703, Note_on_c, 0, 72, 0
2, 262704, Note_on_c, 0, 71, 92
2, 262751, Note_on_c, 0, 71, 0
2, 262752, Note_on_c, 0, 69, 92
2, 262847, Note_on_c, 0, 52, 0
2, 262848, Note_on_c, 0, 49, 92
2, 262895, Note_on_c, 0, 69, 0
2, 262896, Note_on_c, 0, 70, 92
2, 262943, Note_on_c, 0, 70, 0
2, 262944, Note_on_c, 0, 67, 92
2, 263039, Note_on_c, 0, 49, 0
2, 263040, Note_on_c, 0, 45, 92
2, 263087, Note_on_c, 0, 67, 0
2, 263088, Note_on_c, 0, 69, 92
2, 263135, Note_on_c, 0, 69, 0
2, 263136, Note_on_c, 0, 65, 92
2, 263231, Note_on_c, 0, 45, 0
2, 263232, Note_on_c, 0, 57, 92
2, 263279, Note_on_c, 0, 65, 0
2, 263280, Note_on_c, 0, 67, 92
2, 263327, Note_on_c, 0, 67, 0
2, 263328, Note_on_c, 0, 64, 92
2, 263423, Note_on_c, 0, 57, 0
2, 263424, Note_on_c, 0, 50, 92
2, 263471, Note_on_c, 0, 64, 0
2, 263472, Note_on_c, 0, 65, 92
2, 263519, Note_on_c, 0, 65, 0
2, 263520, Note_on_c, 0, 62, 92
2, 263615, Note_on_c, 0, 62, 0
2, 263615, Note_on_c, 0, 50, 0
2, 263616, Note_on_c, 0, 59, 92
2, 263712, Note_on_c, 0, 74, 92
2, 263759, Note_on_c, 0, 74, 0
2, 263760, Note_on_c, 0, 76, 92
2, 263807, Note_on_c, 0, 76, 0
2, 263807, Note_on_c, 0, 59, 0
2, 263808, Note_on_c, 0, 77, 92
2, 263808, Note_on_c, 0, 57, 92
2, 263855, Note_on_c, 0, 77, 0
2, 263856, Note_on_c, 0, 76, 92
2, 263903, Note_on_c, 0, 76, 0
2, 263904, Note_on_c, 0, 74, 92
2, 263999, Note_on_c, 0, 74, 0
2, 263999, Note_on_c, 0, 57, 0
2, 264000, Note_on_c, 0, 83, 92
2, 264000, Note_on_c, 0, 56, 92
2, 264047, Note_on_c, 0, 83, 0
2, 264048, Note_on_c, 0, 76, 92
2, 264095, Note_on_c, 0, 76, 0
2, 264096, Note_on_c, 0, 77, 92
2, 264191, Note_on_c, 0, 56, 0
2, 264192, Note_on_c, 0, 52, 92
2, 264239, Note_on_c, 0, 77, 0
2, 264240, Note_on_c, 0, 76, 92
2, 264287, Note_on_c, 0, 76, 0
2, 264288, Note_on_c, 0, 74, 92
2, 264383, Note_on_c, 0, 52, 0
2, 264384, Note_on_c, 0, 64, 92
2, 264431, Note_on_c, 0, 74, 0
2, 264432, Note_on_c, 0, 72, 92
2, 264479, Note_on_c, 0, 72, 0
2, 264480, Note_on_c, 0, 71, 92
2, 264575, Note_on_c, 0, 71, 0
2, 264575, Note_on_c, 0, 64, 0
2, 264576, Note_on_c, 0, 72, 92
2, 264576, Note_on_c, 0, 57, 92
2, 264623, Note_on_c, 0, 72, 0
2, 264624, Note_on_c, 0, 71, 92
2, 264671, Note_on_c, 0, 71, 0
2, 264672, Note_on_c, 0, 69, 92
2, 264767, Note_on_c, 0, 69, 0
2, 264767, Note_on_c, 0, 57, 0
2, 264768, Note_on_c, 0, 54, 92
2, 264864, Note_on_c, 0, 75, 92
2, 264911, Note_on_c, 0, 75, 0
2, 264912, Note_on_c, 0, 76, 92
2, 264959, Note_on_c, 0, 76, 0
2, 264959, Note_on_c, 0, 54, 0
2, 264960, Note_on_c, 0, 78, 92
2, 264960, Note_on_c, 0, 52, 92
2, 265007, Note_on_c, 0, 78, 0
2, 265008, Note_on_c, 0, 79, 92
2, 265055, Note_on_c, 0, 79, 0
2, 265056, Note_on_c, 0, 81, 92
2, 265151, Note_on_c, 0, 52, 0
2, 265152, Note_on_c, 0, 51, 92
2, 265199, Note_on_c, 0, 81, 0
2, 265200, Note_on_c, 0, 83, 92
2, 265247, Note_on_c, 0, 83, 0
2, 265248, Note_on_c, 0, 84, 92
2, 265343, Note_on_c, 0, 51, 0
2, 265344, Note_on_c, 0, 54, 92
2, 265391, Note_on_c, 0, 84, 0
2, 265392, Note_on_c, 0, 83, 92
2, 265439, Note_on_c, 0, 83, 0
2, 265440, Note_on_c, 0, 81, 92
2, 265535, Note_on_c, 0, 54, 0
2, 265536, Note_on_c, 0, 47, 92
2, 265583, Note_on_c, 0, 81, 0
2, 265584, Note_on_c, 0, 79, 92
2, 265631, Note_on_c, 0, 79, 0
2, 265632, Note_on_c, 0, 78, 92
2, 265712, Note_on_c, 0, 78, 0
2, 265727, Note_on_c, 0, 47, 0
2, 265728, Note_on_c, 0, 79, 92
2, 265728, Note_on_c, 0, 52, 92
2, 265775, Note_on_c, 0, 79, 0
2, 265776, Note_on_c, 0, 78, 92
2, 265823, Note_on_c, 0, 78, 0
2, 265824, Note_on_c, 0, 79, 92
2, 265919, Note_on_c, 0, 52, 0
2, 265920, Note_on_c, 0, 62, 92
2, 266008, Note_on_c, 0, 79, 0
2, 266016, Note_on_c, 0, 71, 92
2, 266111, Note_on_c, 0, 62, 0
2, 266112, Note_on_c, 0, 60, 92
2, 266207, Note_on_c, 0, 71, 0
2, 266208, Note_on_c, 0, 69, 92
2, 266296, Note_on_c, 0, 69, 0
2, 266303, Note_on_c, 0, 60, 0
2, 266304, Note_on_c, 0, 78, 92
2, 266304, Note_on_c, 0, 50, 92
2, 266351, Note_on_c, 0, 78, 0
2, 266352, Note_on_c, 0, 76, 92
2, 266399, Note_on_c, 0, 76, 0
2, 266400, Note_on_c, 0, 78, 92
2, 266495, Note_on_c, 0, 50, 0
2, 266496, Note_on_c, 0, 60, 92
2, 266584, Note_on_c, 0, 78, 0
2, 266592, Note_on_c, 0, 69, 92
2, 266687, Note_on_c, 0, 60, 0
2, 266688, Note_on_c, 0, 59, 92
2, 266783, Note_on_c, 0, 69, 0
2, 266784, Note_on_c, 0, 67, 92
2, 266872, Note_on_c, 0, 67, 0
2, 266879, Note_on_c, 0, 59, 0
2, 266880, Note_on_c, 0, 76, 92
2, 266880, Note_on_c, 0, 48, 92
2, 266927, Note_on_c, 0, 76, 0
2, 266928, Note_on_c, 0, 75, 92
2, 266975, Note_on_c, 0, 75, 0
2, 266976, Note_on_c, 0, 76, 92
2, 267071, Note_on_c, 0, 48, 0
2, 267072, Note_on_c, 0, 59, 92
2, 267160, Note_on_c, 0, 76, 0
2, 267168, Note_on_c, 0, 67, 92
2, 267263, Note_on_c, 0, 59, 0
2, 267264, Note_on_c, 0, 57, 92
2, 267359, Note_on_c, 0, 67, 0
2, 267360, Note_on_c, 0, 66, 92
2, 267448, Note_on_c, 0, 66, 0
2, 267455, Note_on_c, 0, 57, 0
2, 267456, Note_on_c, 0, 75, 92
2, 267456, Note_on_c, 0, 47, 92
2, 267504, Note_on_c, 0, 71, 92
2, 267546, Note_on_c, 0, 75, 0
2, 267551, Note_on_c, 0, 71, 0
2, 267552, Note_on_c, 0, 72, 92
2, 267599, Note_on_c, 0, 72, 0
2, 267600, Note_on_c, 0, 71, 92
2, 267647, Note_on_c, 0, 71, 0
2, 267647, Note_on_c, 0, 47, 0
2, 267648, Note_on_c, 0, 76, 92
2, 267648, Note_on_c, 0, 61, 92
2, 267696, Note_on_c, 0, 71, 92
2, 267743, Note_on_c, 0, 71, 0
2, 267744, Note_on_c, 0, 72, 92
2, 267768, Note_on_c, 0, 76, 0
2, 267791, Note_on_c, 0, 72, 0
2, 267792, Note_on_c, 0, 71, 92
2, 267839, Note_on_c, 0, 71, 0
2, 267839, Note_on_c, 0, 61, 0
2, 267840, Note_on_c, 0, 78, 92
2, 267840, Note_on_c, 0, 63, 92
2, 267888, Note_on_c, 0, 71, 92
2, 267935, Note_on_c, 0, 71, 0
2, 267936, Note_on_c, 0, 72, 92
2, 267983, Note_on_c, 0, 72, 0
2, 267984, Note_on_c, 0, 71, 92
2, 268000, Note_on_c, 0, 78, 0
2, 268031, Note_on_c, 0, 71, 0
2, 268031, Note_on_c, 0, 63, 0
2, 268032, Note_on_c, 0, 79, 92
2, 268032, Note_on_c, 0, 47, 92
2, 268080, Note_on_c, 0, 76, 92
2, 268127, Note_on_c, 0, 76, 0
2, 268128, Note_on_c, 0, 75, 92
2, 268175, Note_on_c, 0, 75, 0
2, 268176, Note_on_c, 0, 73, 92
2, 268223, Note_on_c, 0, 73, 0
2, 268223, Note_on_c, 0, 47, 0
2, 268224, Note_on_c, 0, 71, 92
2, 268224, Note_on_c, 0, 64, 92
2, 268271, Note_on_c, 0, 71, 0
2, 268272, Note_on_c, 0, 79, 0
2, 268272, Note_on_c, 0, 76, 92
2, 268319, Note_on_c, 0, 76, 0
2, 268320, Note_on_c, 0, 78, 92
2, 268367, Note_on_c, 0, 78, 0
2, 268368, Note_on_c, 0, 79, 92
2, 268415, Note_on_c, 0, 79, 0
2, 268415, Note_on_c, 0, 64, 0
2, 268416, Note_on_c, 0, 75, 92
2, 268416, Note_on_c, 0, 66, 92
2, 268463, Note_on_c, 0, 75, 0
2, 268464, Note_on_c, 0, 78, 92
2, 268511, Note_on_c, 0, 78, 0
2, 268512, Note_on_c, 0, 79, 92
2, 268559, Note_on_c, 0, 79, 0
2, 268560, Note_on_c, 0, 81, 92
2, 268607, Note_on_c, 0, 81, 0
2, 268607, Note_on_c, 0, 66, 0
2, 268608, Note_on_c, 0, 79, 92
2, 268608, Note_on_c, 0, 47, 92
2, 268655, Note_on_c, 0, 79, 0
2, 268656, Note_on_c, 0, 83, 92
2, 268703, Note_on_c, 0, 83, 0
2, 268704, Note_on_c, 0, 76, 92
2, 268799, Note_on_c, 0, 47, 0
2, 268800, Note_on_c, 0, 66, 92
2, 268847, Note_on_c, 0, 76, 0
2, 268848, Note_on_c, 0, 78, 92
2, 268895, Note_on_c, 0, 78, 0
2, 268896, Note_on_c, 0, 76, 92
2, 268943, Note_on_c, 0, 76, 0
2, 268944, Note_on_c, 0, 74, 92
2, 268991, Note_on_c, 0, 66, 0
2, 268992, Note_on_c, 0, 64, 92
2, 269039, Note_on_c, 0, 74, 0
2, 269040, Note_on_c, 0, 76, 92
2, 269087, Note_on_c, 0, 76, 0
2, 269088, Note_on_c, 0, 74, 92
2, 269135, Note_on_c, 0, 74, 0
2, 269136, Note_on_c, 0, 72, 92
2, 269183, Note_on_c, 0, 64, 0
2, 269184, Note_on_c, 0, 62, 92
2, 269231, Note_on_c, 0, 72, 0
2, 269232, Note_on_c, 0, 74, 92
2, 269279, Note_on_c, 0, 74, 0
2, 269280, Note_on_c, 0, 72, 92
2, 269327, Note_on_c, 0, 72, 0
2, 269328, Note_on_c, 0, 71, 92
2, 269375, Note_on_c, 0, 62, 0
2, 269376, Note_on_c, 0, 60, 92
2, 269423, Note_on_c, 0, 71, 0
2, 269424, Note_on_c, 0, 72, 92
2, 269471, Note_on_c, 0, 72, 0
2, 269472, Note_on_c, 0, 71, 92
2, 269519, Note_on_c, 0, 71, 0
2, 269520, Note_on_c, 0, 69, 92
2, 269567, Note_on_c, 0, 60, 0
2, 269568, Note_on_c, 0, 59, 92
2, 269615, Note_on_c, 0, 69, 0
2, 269616, Note_on_c, 0, 71, 92
2, 269663, Note_on_c, 0, 71, 0
2, 269664, Note_on_c, 0, 69, 92
2, 269711, Note_on_c, 0, 69, 0
2, 269712, Note_on_c, 0, 67, 92
2, 269759, Note_on_c, 0, 59, 0
2, 269760, Note_on_c, 0, 57, 92
2, 269807, Note_on_c, 0, 67, 0
2, 269808, Note_on_c, 0, 72, 92
2, 269855, Note_on_c, 0, 72, 0
2, 269856, Note_on_c, 0, 65, 92
2, 269951, Note_on_c, 0, 57, 0
2, 269952, Note_on_c, 0, 55, 92
2, 269999, Note_on_c, 0, 65, 0
2, 270000, Note_on_c, 0, 72, 92
2, 270047, Note_on_c, 0, 72, 0
2, 270048, Note_on_c, 0, 64, 92
2, 270143, Note_on_c, 0, 55, 0
2, 270144, Note_on_c, 0, 54, 92
2, 270191, Note_on_c, 0, 64, 0
2, 270192, Note_on_c, 0, 72, 92
2, 270239, Note_on_c, 0, 72, 0
2, 270240, Note_on_c, 0, 63, 92
2, 270335, Note_on_c, 0, 54, 0
2, 270336, Note_on_c, 0, 59, 92
2, 270383, Note_on_c, 0, 59, 0
2, 270384, Note_on_c, 0, 47, 92
2, 270430, Note_on_c, 0, 63, 0
2, 270431, Note_on_c, 0, 47, 0
2, 270432, Note_on_c, 0, 49, 92
2, 270479, Note_on_c, 0, 49, 0
2, 270480, Note_on_c, 0, 51, 92
2, 270527, Note_on_c, 0, 51, 0
2, 270528, Note_on_c, 0, 52, 92
2, 270575, Note_on_c, 0, 52, 0
2, 270576, Note_on_c, 0, 54, 92
2, 270623, Note_on_c, 0, 54, 0
2, 270624, Note_on_c, 0, 55, 92
2, 270671, Note_on_c, 0, 55, 0
2, 270672, Note_on_c, 0, 57, 92
2, 270719, Note_on_c, 0, 57, 0
2, 270720, Note_on_c, 0, 59, 92
2, 270767, Note_on_c, 0, 59, 0
2, 270768, Note_on_c, 0, 61, 92
2, 270815, Note_on_c, 0, 61, 0
2, 270816, Note_on_c, 0, 63, 92
2, 270863, Note_on_c, 0, 63, 0
2, 270864, Note_on_c, 0, 64, 92
2, 270911, Note_on_c, 0, 64, 0
2, 270912, Note_on_c, 0, 66, 92
2, 270959, Note_on_c, 0, 66, 0
2, 270960, Note_on_c, 0, 67, 92
2, 271007, Note_on_c, 0, 67, 0
2, 271008, Note_on_c, 0, 69, 92
2, 271055, Note_on_c, 0, 69, 0
2, 271056, Note_on_c, 0, 71, 92
2, 271103, Note_on_c, 0, 71, 0
2, 271104, Note_on_c, 0, 72, 92
2, 271151, Note_on_c, 0, 72, 0
2, 271152, Note_on_c, 0, 71, 92
2, 271199, Note_on_c, 0, 71, 0
2, 271200, Note_on_c, 0, 73, 92
2, 271247, Note_on_c, 0, 73, 0
2, 271248, Note_on_c, 0, 75, 92
2, 271295, Note_on_c, 0, 75, 0
2, 271296, Note_on_c, 0, 76, 92
2, 271343, Note_on_c, 0, 76, 0
2, 271344, Note_on_c, 0, 78, 92
2, 271391, Note_on_c, 0, 78, 0
2, 271392, Note_on_c, 0, 79, 92
2, 271439, Note_on_c, 0, 79, 0
2, 271440, Note_on_c, 0, 81, 92
2, 271487, Note_on_c, 0, 81, 0
2, 271488, Note_on_c, 0, 83, 92
2, 271680, Note_on_c, 0, 43, 92
2, 271708, Note_on_c, 0, 83, 0
2, 271850, Note_on_c, 0, 43, 0
2, 271872, Note_on_c, 0, 71, 92
2, 271872, Note_on_c, 0, 69, 92
2, 271872, Note_on_c, 0, 66, 92
2, 271872, Note_on_c, 0, 75, 92
2, 271872, Note_on_c, 0, 47, 92
2, 272042, Note_on_c, 0, 47, 0
2, 272042, Note_on_c, 0, 66, 0
2, 272042, Note_on_c, 0, 71, 0
2, 272042, Note_on_c, 0, 69, 0
2, 272042, Note_on_c, 0, 75, 0
2, 272076, Note_on_c, 0, 71, 92
2, 272076, Note_on_c, 0, 76, 92
2, 272076, Note_on_c, 0, 64, 92
2, 272076, Note_on_c, 0, 40, 92
2, 272076, Note_on_c, 0, 67, 92
2, 272650, Note_on_c, 0, 67, 0
2, 272650, Note_on_c, 0, 64, 0
2, 272650, Note_on_c, 0, 71, 0
2, 272650, Note_on_c, 0, 76, 0
2, 272650, Note_on_c, 0, 40, 0
2, 274944, Note_on_c, 0, 64, 92
2, 274944, Note_on_c, 0, 52, 92
2, 274944, Note_on_c, 0, 59, 92
2, 274944, Note_on_c, 0, 55, 92
2, 275039, Note_on_c, 0, 64, 0
2, 275040, Note_on_c, 0, 66, 92
2, 275135, Note_on_c, 0, 66, 0
2, 275136, Note_on_c, 0, 67, 92
2, 275164, Note_on_c, 0, 55, 0
2, 275164, Note_on_c, 0, 52, 0
2, 275164, Note_on_c, 0, 59, 0
2, 275231, Note_on_c, 0, 67, 0
2, 275232, Note_on_c, 0, 69, 92
2, 275327, Note_on_c, 0, 69, 0
2, 275328, Note_on_c, 0, 71, 92
2, 275328, Note_on_c, 0, 54, 92
2, 275328, Note_on_c, 0, 59, 92
2, 275328, Note_on_c, 0, 50, 92
2, 275423, Note_on_c, 0, 71, 0
2, 275424, Note_on_c, 0, 72, 92
2, 275519, Note_on_c, 0, 72, 0
2, 275520, Note_on_c, 0, 74, 92
2, 275548, Note_on_c, 0, 50, 0
2, 275548, Note_on_c, 0, 54, 0
2, 275548, Note_on_c, 0, 59, 0
2, 275615, Note_on_c, 0, 74, 0
2, 275616, Note_on_c, 0, 71, 92
2, 275711, Note_on_c, 0, 71, 0
2, 275712, Note_on_c, 0, 76, 92
2, 275712, Note_on_c, 0, 57, 92
2, 275712, Note_on_c, 0, 52, 92
2, 275712, Note_on_c, 0, 48, 92
2, 275807, Note_on_c, 0, 76, 0
2, 275808, Note_on_c, 0, 79, 92
2, 275903, Note_on_c, 0, 79, 0
2, 275904, Note_on_c, 0, 78, 92
2, 275932, Note_on_c, 0, 48, 0
2, 275932, Note_on_c, 0, 57, 0
2, 275932, Note_on_c, 0, 52, 0
2, 275999, Note_on_c, 0, 78, 0
2, 276000, Note_on_c, 0, 76, 92
2, 276095, Note_on_c, 0, 76, 0
2, 276096, Note_on_c, 0, 75, 92
2, 276096, Note_on_c, 0, 59, 92
2, 276096, Note_on_c, 0, 54, 92
2, 276096, Note_on_c, 0, 47, 92
2, 276191, Note_on_c, 0, 75, 0
2, 276192, Note_on_c, 0, 73, 92
2, 276287, Note_on_c, 0, 73, 0
2, 276288, Note_on_c, 0, 71, 92
2, 276316, Note_on_c, 0, 47, 0
2, 276316, Note_on_c, 0, 59, 0
2, 276316, Note_on_c, 0, 54, 0
2, 276383, Note_on_c, 0, 71, 0
2, 276384, Note_on_c, 0, 69, 92
2, 276479, Note_on_c, 0, 69, 0
2, 276480, Note_on_c, 0, 67, 92
2, 276480, Note_on_c, 0, 52, 92
2, 276575, Note_on_c, 0, 52, 0
2, 276576, Note_on_c, 0, 54, 92
2, 276671, Note_on_c, 0, 54, 0
2, 276671, Note_on_c, 0, 67, 0
2, 276672, Note_on_c, 0, 76, 92
2, 276672, Note_on_c, 0, 55, 92
2, 276767, Note_on_c, 0, 55, 0
2, 276768, Note_on_c, 0, 57, 92
2, 276816, Note_on_c, 0, 76, 0
2, 276863, Note_on_c, 0, 57, 0
2, 276864, Note_on_c, 0, 75, 92
2, 276864, Note_on_c, 0, 59, 92
2, 276959, Note_on_c, 0, 59, 0
2, 276960, Note_on_c, 0, 61, 92
2, 277055, Note_on_c, 0, 61, 0
2, 277055, Note_on_c, 0, 75, 0
2, 277056, Note_on_c, 0, 83, 92
2, 277056, Note_on_c, 0, 63, 92
2, 277151, Note_on_c, 0, 63, 0
2, 277152, Note_on_c, 0, 59, 92
2, 277200, Note_on_c, 0, 83, 0
2, 277247, Note_on_c, 0, 59, 0
2, 277248, Note_on_c, 0, 79, 92
2, 277248, Note_on_c, 0, 64, 92
2, 277343, Note_on_c, 0, 64, 0
2, 277343, Note_on_c, 0, 79, 0
2, 277344, Note_on_c, 0, 81, 92
2, 277344, Note_on_c, 0, 67, 92
2, 277439, Note_on_c, 0, 67, 0
2, 277439, Note_on_c, 0, 81, 0
2, 277440, Note_on_c, 0, 83, 92
2, 277440, Note_on_c, 0, 66, 92
2, 277487, Note_on_c, 0, 83, 0
2, 277488, Note_on_c, 0, 81, 92
2, 277535, Note_on_c, 0, 81, 0
2, 277535, Note_on_c, 0, 66, 0
2, 277536, Note_on_c, 0, 79, 92
2, 277536, Note_on_c, 0, 64, 92
2, 277583, Note_on_c, 0, 79, 0
2, 277584, Note_on_c, 0, 81, 92
2, 277631, Note_on_c, 0, 81, 0
2, 277631, Note_on_c, 0, 64, 0
2, 277632, Note_on_c, 0, 83, 92
2, 277632, Note_on_c, 0, 63, 92
2, 277727, Note_on_c, 0, 63, 0
2, 277728, Note_on_c, 0, 61, 92
2, 277823, Note_on_c, 0, 61, 0
2, 277824, Note_on_c, 0, 59, 92
2, 277919, Note_on_c, 0, 59, 0
2, 277920, Note_on_c, 0, 57, 92
2, 277972, Note_on_c, 0, 83, 0
2, 278015, Note_on_c, 0, 57, 0
2, 278016, Note_on_c, 0, 74, 92
2, 278016, Note_on_c, 0, 56, 92
2, 278111, Note_on_c, 0, 56, 0
2, 278111, Note_on_c, 0, 74, 0
2, 278112, Note_on_c, 0, 72, 92
2, 278112, Note_on_c, 0, 52, 92
2, 278207, Note_on_c, 0, 52, 0
2, 278207, Note_on_c, 0, 72, 0
2, 278208, Note_on_c, 0, 74, 92
2, 278208, Note_on_c, 0, 54, 92
2, 278303, Note_on_c, 0, 54, 0
2, 278303, Note_on_c, 0, 74, 0
2, 278304, Note_on_c, 0, 83, 92
2, 278304, Note_on_c, 0, 56, 92
2, 278399, Note_on_c, 0, 56, 0
2, 278399, Note_on_c, 0, 83, 0
2, 278400, Note_on_c, 0, 72, 92
2, 278400, Note_on_c, 0, 57, 92
2, 278495, Note_on_c, 0, 57, 0
2, 278496, Note_on_c, 0, 59, 92
2, 278591, Note_on_c, 0, 59, 0
2, 278591, Note_on_c, 0, 72, 0
2, 278592, Note_on_c, 0, 81, 92
2, 278592, Note_on_c, 0, 60, 92
2, 278687, Note_on_c, 0, 60, 0
2, 278688, Note_on_c, 0, 57, 92
2, 278736, Note_on_c, 0, 81, 0
2, 278783, Note_on_c, 0, 57, 0
2, 278784, Note_on_c, 0, 71, 92
2, 278784, Note_on_c, 0, 62, 92
2, 278879, Note_on_c, 0, 62, 0
2, 278880, Note_on_c, 0, 65, 92
2, 278975, Note_on_c, 0, 65, 0
2, 278975, Note_on_c, 0, 71, 0
2, 278976, Note_on_c, 0, 80, 92
2, 278976, Note_on_c, 0, 64, 92
2, 279071, Note_on_c, 0, 64, 0
2, 279072, Note_on_c, 0, 62, 92
2, 279120, Note_on_c, 0, 80, 0
2, 279167, Note_on_c, 0, 62, 0
2, 279168, Note_on_c, 0, 81, 92
2, 279168, Note_on_c, 0, 60, 92
2, 279263, Note_on_c, 0, 60, 0
2, 279263, Note_on_c, 0, 81, 0
2, 279264, Note_on_c, 0, 79, 92
2, 279264, Note_on_c, 0, 59, 92
2, 279359, Note_on_c, 0, 59, 0
2, 279359, Note_on_c, 0, 79, 0
2, 279360, Note_on_c, 0, 78, 92
2, 279360, Note_on_c, 0, 57, 92
2, 279455, Note_on_c, 0, 57, 0
2, 279455, Note_on_c, 0, 78, 0
2, 279456, Note_on_c, 0, 76, 92
2, 279456, Note_on_c, 0, 55, 92
2, 279551, Note_on_c, 0, 55, 0
2, 279551, Note_on_c, 0, 76, 0
2, 279552, Note_on_c, 0, 74, 92
2, 279552, Note_on_c, 0, 54, 92
2, 279647, Note_on_c, 0, 54, 0
2, 279647, Note_on_c, 0, 74, 0
2, 279648, Note_on_c, 0, 72, 92
2, 279648, Note_on_c, 0, 50, 92
2, 279743, Note_on_c, 0, 50, 0
2, 279743, Note_on_c, 0, 72, 0
2, 279744, Note_on_c, 0, 71, 92
2, 279744, Note_on_c, 0, 52, 92
2, 279839, Note_on_c, 0, 52, 0
2, 279839, Note_on_c, 0, 71, 0
2, 279840, Note_on_c, 0, 69, 92
2, 279840, Note_on_c, 0, 54, 92
2, 279935, Note_on_c, 0, 54, 0
2, 279935, Note_on_c, 0, 69, 0
2, 279936, Note_on_c, 0, 71, 92
2, 279936, Note_on_c, 0, 55, 92
2, 280031, Note_on_c, 0, 55, 0
2, 280032, Note_on_c, 0, 57, 92
2, 280127, Note_on_c, 0, 57, 0
2, 280127, Note_on_c, 0, 71, 0
2, 280128, Note_on_c, 0, 79, 92
2, 280128, Note_on_c, 0, 59, 92
2, 280223, Note_on_c, 0, 59, 0
2, 280224, Note_on_c, 0, 55, 92
2, 280272, Note_on_c, 0, 79, 0
2, 280319, Note_on_c, 0, 55, 0
2, 280320, Note_on_c, 0, 69, 92
2, 280320, Note_on_c, 0, 60, 92
2, 280415, Note_on_c, 0, 60, 0
2, 280416, Note_on_c, 0, 64, 92
2, 280511, Note_on_c, 0, 64, 0
2, 280511, Note_on_c, 0, 69, 0
2, 280512, Note_on_c, 0, 78, 92
2, 280512, Note_on_c, 0, 62, 92
2, 280607, Note_on_c, 0, 62, 0
2, 280608, Note_on_c, 0, 60, 92
2, 280656, Note_on_c, 0, 78, 0
2, 280703, Note_on_c, 0, 60, 0
2, 280704, Note_on_c, 0, 79, 92
2, 280704, Note_on_c, 0, 59, 92
2, 280799, Note_on_c, 0, 59, 0
2, 280799, Note_on_c, 0, 79, 0
2, 280800, Note_on_c, 0, 78, 92
2, 280800, Note_on_c, 0, 57, 92
2, 280895, Note_on_c, 0, 57, 0
2, 280895, Note_on_c, 0, 78, 0
2, 280896, Note_on_c, 0, 76, 92
2, 280896, Note_on_c, 0, 55, 92
2, 280991, Note_on_c, 0, 55, 0
2, 280991, Note_on_c, 0, 76, 0
2, 280992, Note_on_c, 0, 74, 92
2, 280992, Note_on_c, 0, 54, 92
2, 281087, Note_on_c, 0, 54, 0
2, 281087, Note_on_c, 0, 74, 0
2, 281088, Note_on_c, 0, 72, 92
2, 281088, Note_on_c, 0, 52, 92
2, 281183, Note_on_c, 0, 52, 0
2, 281183, Note_on_c, 0, 72, 0
2, 281184, Note_on_c, 0, 71, 92
2, 281184, Note_on_c, 0, 55, 92
2, 281279, Note_on_c, 0, 55, 0
2, 281279, Note_on_c, 0, 71, 0
2, 281280, Note_on_c, 0, 72, 92
2, 281280, Note_on_c, 0, 54, 92
2, 281375, Note_on_c, 0, 54, 0
2, 281375, Note_on_c, 0, 72, 0
2, 281376, Note_on_c, 0, 81, 92
2, 281376, Note_on_c, 0, 52, 92
2, 281471, Note_on_c, 0, 52, 0
2, 281471, Note_on_c, 0, 81, 0
2, 281472, Note_on_c, 0, 71, 92
2, 281472, Note_on_c, 0, 50, 92
2, 281567, Note_on_c, 0, 50, 0
2, 281567, Note_on_c, 0, 71, 0
2, 281568, Note_on_c, 0, 69, 92
2, 281568, Note_on_c, 0, 54, 92
2, 281663, Note_on_c, 0, 54, 0
2, 281663, Note_on_c, 0, 69, 0
2, 281664, Note_on_c, 0, 71, 92
2, 281664, Note_on_c, 0, 52, 92
2, 281759, Note_on_c, 0, 52, 0
2, 281759, Note_on_c, 0, 71, 0
2, 281760, Note_on_c, 0, 79, 92
2, 281760, Note_on_c, 0, 50, 92
2, 281855, Note_on_c, 0, 50, 0
2, 281855, Note_on_c, 0, 79, 0
2, 281856, Note_on_c, 0, 69, 92
2, 281856, Note_on_c, 0, 48, 92
2, 281951, Note_on_c, 0, 48, 0
2, 281951, Note_on_c, 0, 69, 0
2, 281952, Note_on_c, 0, 67, 92
2, 281952, Note_on_c, 0, 52, 92
2, 282047, Note_on_c, 0, 52, 0
2, 282047, Note_on_c, 0, 67, 0
2, 282048, Note_on_c, 0, 69, 92
2, 282048, Note_on_c, 0, 50, 92
2, 282143, Note_on_c, 0, 50, 0
2, 282143, Note_on_c, 0, 69, 0
2, 282144, Note_on_c, 0, 78, 92
2, 282144, Note_on_c, 0, 48, 92
2, 282239, Note_on_c, 0, 48, 0
2, 282239, Note_on_c, 0, 78, 0
2, 282240, Note_on_c, 0, 67, 92
2, 282240, Note_on_c, 0, 47, 92
2, 282335, Note_on_c, 0, 47, 0
2, 282335, Note_on_c, 0, 67, 0
2, 282336, Note_on_c, 0, 66, 92
2, 282336, Note_on_c, 0, 50, 92
2, 282431, Note_on_c, 0, 50, 0
2, 282431, Note_on_c, 0, 66, 0
2, 282432, Note_on_c, 0, 67, 92
2, 282432, Note_on_c, 0, 48, 92
2, 282527, Note_on_c, 0, 48, 0
2, 282527, Note_on_c, 0, 67, 0
2, 282528, Note_on_c, 0, 76, 92
2, 282528, Note_on_c, 0, 47, 92
2, 282623, Note_on_c, 0, 47, 0
2, 282623, Note_on_c, 0, 76, 0
2, 282624, Note_on_c, 0, 66, 92
2, 282624, Note_on_c, 0, 45, 92
2, 282719, Note_on_c, 0, 45, 0
2, 282719, Note_on_c, 0, 66, 0
2, 282720, Note_on_c, 0, 64, 92
2, 282720, Note_on_c, 0, 48, 92
2, 282815, Note_on_c, 0, 48, 0
2, 282815, Note_on_c, 0, 64, 0
2, 282816, Note_on_c, 0, 66, 92
2, 282816, Note_on_c, 0, 47, 92
2, 282911, Note_on_c, 0, 47, 0
2, 282911, Note_on_c, 0, 66, 0
2, 282912, Note_on_c, 0, 75, 92
2, 282912, Note_on_c, 0, 45, 92
2, 283007, Note_on_c, 0, 45, 0
2, 283007, Note_on_c, 0, 75, 0
2, 283008, Note_on_c, 0, 64, 92
2, 283008, Note_on_c, 0, 43, 92
2, 283103, Note_on_c, 0, 43, 0
2, 283104, Note_on_c, 0, 47, 92
2, 283199, Note_on_c, 0, 47, 0
2, 283199, Note_on_c, 0, 64, 0
2, 283200, Note_on_c, 0, 83, 92
2, 283200, Note_on_c, 0, 45, 92
2, 283295, Note_on_c, 0, 45, 0
2, 283296, Note_on_c, 0, 43, 92
2, 283344, Note_on_c, 0, 83, 0
2, 283391, Note_on_c, 0, 43, 0
2, 283392, Note_on_c, 0, 71, 92
2, 283392, Note_on_c, 0, 75, 92
2, 283392, Note_on_c, 0, 45, 92
2, 283487, Note_on_c, 0, 45, 0
2, 283488, Note_on_c, 0, 43, 92
2, 283536, Note_on_c, 0, 75, 0
2, 283536, Note_on_c, 0, 71, 0
2, 283583, Note_on_c, 0, 43, 0
2, 283584, Note_on_c, 0, 76, 92
2, 283584, Note_on_c, 0, 73, 92
2, 283584, Note_on_c, 0, 42, 92
2, 283679, Note_on_c, 0, 42, 0
2, 283680, Note_on_c, 0, 40, 92
2, 283728, Note_on_c, 0, 73, 0
2, 283728, Note_on_c, 0, 76, 0
2, 283775, Note_on_c, 0, 40, 0
2, 283776, Note_on_c, 0, 78, 92
2, 283776, Note_on_c, 0, 75, 92
2, 283776, Note_on_c, 0, 47, 92
2, 283968, Note_on_c, 0, 35, 92
2, 284056, Note_on_c, 0, 47, 0
2, 284056, Note_on_c, 0, 78, 0
2, 284056, Note_on_c, 0, 75, 0
2, 284152, Note_on_c, 0, 35, 0
2, 284160, Note_on_c, 0, 66, 92
2, 284160, Note_on_c, 0, 63, 92
2, 284160, Note_on_c, 0, 59, 92
2, 284255, Note_on_c, 0, 59, 0
2, 284256, Note_on_c, 0, 57, 92
2, 284351, Note_on_c, 0, 57, 0
2, 284351, Note_on_c, 0, 66, 0
2, 284352, Note_on_c, 0, 72, 92
2, 284352, Note_on_c, 0, 55, 92
2, 284447, Note_on_c, 0, 55, 0
2, 284448, Note_on_c, 0, 54, 92
2, 284540, Note_on_c, 0, 63, 0
2, 284543, Note_on_c, 0, 54, 0
2, 284544, Note_on_c, 0, 64, 92
2, 284544, Note_on_c, 0, 57, 92
2, 284639, Note_on_c, 0, 57, 0
2, 284640, Note_on_c, 0, 55, 92
2, 284692, Note_on_c, 0, 72, 0
2, 284735, Note_on_c, 0, 55, 0
2, 284736, Note_on_c, 0, 71, 92
2, 284736, Note_on_c, 0, 54, 92
2, 284831, Note_on_c, 0, 54, 0
2, 284832, Note_on_c, 0, 52, 92
2, 284924, Note_on_c, 0, 64, 0
2, 284927, Note_on_c, 0, 52, 0
2, 284928, Note_on_c, 0, 66, 92
2, 284928, Note_on_c, 0, 51, 92
2, 285023, Note_on_c, 0, 51, 0
2, 285024, Note_on_c, 0, 49, 92
2, 285076, Note_on_c, 0, 71, 0
2, 285119, Note_on_c, 0, 49, 0
2, 285120, Note_on_c, 0, 69, 92
2, 285120, Note_on_c, 0, 51, 92
2, 285215, Note_on_c, 0, 51, 0
2, 285216, Note_on_c, 0, 47, 92
2, 285308, Note_on_c, 0, 66, 0
2, 285311, Note_on_c, 0, 47, 0
2, 285312, Note_on_c, 0, 64, 92
2, 285312, Note_on_c, 0, 59, 92
2, 285312, Note_on_c, 0, 52, 92
2, 285408, Note_on_c, 0, 40, 92
2, 285460, Note_on_c, 0, 69, 0
2, 285502, Note_on_c, 0, 52, 0
2, 285503, Note_on_c, 0, 40, 0
2, 285504, Note_on_c, 0, 67, 92
2, 285504, Note_on_c, 0, 43, 92
2, 285592, Note_on_c, 0, 64, 0
2, 285599, Note_on_c, 0, 43, 0
2, 285599, Note_on_c, 0, 67, 0
2, 285600, Note_on_c, 0, 66, 92
2, 285600, Note_on_c, 0, 47, 92
2, 285692, Note_on_c, 0, 59, 0
2, 285695, Note_on_c, 0, 47, 0
2, 285695, Note_on_c, 0, 66, 0
2, 285696, Note_on_c, 0, 64, 92
2, 285696, Note_on_c, 0, 67, 92
2, 285696, Note_on_c, 0, 52, 92
2, 285791, Note_on_c, 0, 52, 0
2, 285792, Note_on_c, 0, 50, 92
2, 285887, Note_on_c, 0, 50, 0
2, 285887, Note_on_c, 0, 67, 0
2, 285888, Note_on_c, 0, 76, 92
2, 285888, Note_on_c, 0, 48, 92
2, 285983, Note_on_c, 0, 48, 0
2, 285984, Note_on_c, 0, 47, 92
2, 286076, Note_on_c, 0, 64, 0
2, 286079, Note_on_c, 0, 47, 0
2, 286080, Note_on_c, 0, 66, 92
2, 286080, Note_on_c, 0, 48, 92
2, 286175, Note_on_c, 0, 48, 0
2, 286176, Note_on_c, 0, 47, 92
2, 286228, Note_on_c, 0, 76, 0
2, 286271, Note_on_c, 0, 47, 0
2, 286272, Note_on_c, 0, 74, 92
2, 286272, Note_on_c, 0, 45, 92
2, 286367, Note_on_c, 0, 45, 0
2, 286368, Note_on_c, 0, 43, 92
2, 286460, Note_on_c, 0, 66, 0
2, 286463, Note_on_c, 0, 43, 0
2, 286464, Note_on_c, 0, 69, 92
2, 286464, Note_on_c, 0, 42, 92
2, 286559, Note_on_c, 0, 42, 0
2, 286560, Note_on_c, 0, 40, 92
2, 286612, Note_on_c, 0, 74, 0
2, 286655, Note_on_c, 0, 40, 0
2, 286656, Note_on_c, 0, 72, 92
2, 286656, Note_on_c, 0, 42, 92
2, 286751, Note_on_c, 0, 42, 0
2, 286752, Note_on_c, 0, 38, 92
2, 286844, Note_on_c, 0, 69, 0
2, 286847, Note_on_c, 0, 38, 0
2, 286848, Note_on_c, 0, 67, 92
2, 286848, Note_on_c, 0, 62, 92
2, 286848, Note_on_c, 0, 43, 92
2, 286944, Note_on_c, 0, 31, 92
2, 286992, Note_on_c, 0, 43, 0
2, 286996, Note_on_c, 0, 72, 0
2, 287039, Note_on_c, 0, 31, 0
2, 287040, Note_on_c, 0, 71, 92
2, 287040, Note_on_c, 0, 35, 92
2, 287128, Note_on_c, 0, 67, 0
2, 287135, Note_on_c, 0, 35, 0
2, 287135, Note_on_c, 0, 71, 0
2, 287136, Note_on_c, 0, 69, 92
2, 287136, Note_on_c, 0, 38, 92
2, 287228, Note_on_c, 0, 62, 0
2, 287231, Note_on_c, 0, 38, 0
2, 287231, Note_on_c, 0, 69, 0
2, 287232, Note_on_c, 0, 71, 92
2, 287232, Note_on_c, 0, 43, 92
2, 287327, Note_on_c, 0, 43, 0
2, 287328, Note_on_c, 0, 45, 92
2, 287423, Note_on_c, 0, 45, 0
2, 287423, Note_on_c, 0, 71, 0
2, 287424, Note_on_c, 0, 79, 92
2, 287424, Note_on_c, 0, 47, 92
2, 287519, Note_on_c, 0, 47, 0
2, 287520, Note_on_c, 0, 48, 92
2, 287615, Note_on_c, 0, 48, 0
2, 287615, Note_on_c, 0, 79, 0
2, 287616, Note_on_c, 0, 78, 92
2, 287616, Note_on_c, 0, 50, 92
2, 287711, Note_on_c, 0, 50, 0
2, 287712, Note_on_c, 0, 52, 92
2, 287760, Note_on_c, 0, 78, 0
2, 287807, Note_on_c, 0, 52, 0
2, 287808, Note_on_c, 0, 84, 92
2, 287808, Note_on_c, 0, 54, 92
2, 287903, Note_on_c, 0, 54, 0
2, 287904, Note_on_c, 0, 50, 92
2, 287999, Note_on_c, 0, 50, 0
2, 288000, Note_on_c, 0, 55, 92
2, 288095, Note_on_c, 0, 55, 0
2, 288095, Note_on_c, 0, 84, 0
2, 288096, Note_on_c, 0, 83, 92
2, 288096, Note_on_c, 0, 57, 92
2, 288191, Note_on_c, 0, 57, 0
2, 288191, Note_on_c, 0, 83, 0
2, 288192, Note_on_c, 0, 81, 92
2, 288192, Note_on_c, 0, 59, 92
2, 288287, Note_on_c, 0, 59, 0
2, 288287, Note_on_c, 0, 81, 0
2, 288288, Note_on_c, 0, 79, 92
2, 288288, Note_on_c, 0, 60, 92
2, 288383, Note_on_c, 0, 60, 0
2, 288383, Note_on_c, 0, 79, 0
2, 288384, Note_on_c, 0, 78, 92
2, 288384, Note_on_c, 0, 62, 92
2, 288479, Note_on_c, 0, 62, 0
2, 288480, Note_on_c, 0, 64, 92
2, 288528, Note_on_c, 0, 78, 0
2, 288575, Note_on_c, 0, 64, 0
2, 288576, Note_on_c, 0, 72, 92
2, 288576, Note_on_c, 0, 66, 92
2, 288671, Note_on_c, 0, 66, 0
2, 288672, Note_on_c, 0, 62, 92
2, 288767, Note_on_c, 0, 62, 0
2, 288768, Note_on_c, 0, 67, 92
2, 288835, Note_on_c, 0, 72, 0
2, 288863, Note_on_c, 0, 67, 0
2, 288864, Note_on_c, 0, 71, 92
2, 288864, Note_on_c, 0, 66, 92
2, 288959, Note_on_c, 0, 66, 0
2, 288959, Note_on_c, 0, 71, 0
2, 288960, Note_on_c, 0, 76, 92
2, 288960, Note_on_c, 0, 67, 92
2, 289055, Note_on_c, 0, 67, 0
2, 289056, Note_on_c, 0, 69, 92
2, 289151, Note_on_c, 0, 69, 0
2, 289152, Note_on_c, 0, 71, 92
2, 289242, Note_on_c, 0, 76, 0
2, 289248, Note_on_c, 0, 74, 92
2, 289343, Note_on_c, 0, 74, 0
2, 289343, Note_on_c, 0, 71, 0
2, 289344, Note_on_c, 0, 72, 92
2, 289344, Note_on_c, 0, 52, 92
2, 289439, Note_on_c, 0, 72, 0
2, 289440, Note_on_c, 0, 71, 92
2, 289535, Note_on_c, 0, 71, 0
2, 289535, Note_on_c, 0, 52, 0
2, 289536, Note_on_c, 0, 74, 92
2, 289536, Note_on_c, 0, 48, 92
2, 289631, Note_on_c, 0, 74, 0
2, 289632, Note_on_c, 0, 72, 92
2, 289727, Note_on_c, 0, 72, 0
2, 289727, Note_on_c, 0, 48, 0
2, 289728, Note_on_c, 0, 71, 92
2, 289728, Note_on_c, 0, 50, 92
2, 289823, Note_on_c, 0, 71, 0
2, 289824, Note_on_c, 0, 69, 92
2, 289919, Note_on_c, 0, 69, 0
2, 289919, Note_on_c, 0, 50, 0
2, 289920, Note_on_c, 0, 67, 92
2, 289920, Note_on_c, 0, 43, 92
2, 290015, Note_on_c, 0, 43, 0
2, 290016, Note_on_c, 0, 38, 92
2, 290111, Note_on_c, 0, 38, 0
2, 290112, Note_on_c, 0, 40, 92
2, 290200, Note_on_c, 0, 67, 0
2, 290207, Note_on_c, 0, 40, 0
2, 290208, Note_on_c, 0, 42, 92
2, 290303, Note_on_c, 0, 42, 0
2, 290304, Note_on_c, 0, 59, 92
2, 290304, Note_on_c, 0, 43, 92
2, 290399, Note_on_c, 0, 43, 0
2, 290399, Note_on_c, 0, 59, 0
2, 290400, Note_on_c, 0, 62, 92
2, 290400, Note_on_c, 0, 45, 92
2, 290495, Note_on_c, 0, 45, 0
2, 290495, Note_on_c, 0, 62, 0
2, 290496, Note_on_c, 0, 67, 92
2, 290496, Note_on_c, 0, 47, 92
2, 290591, Note_on_c, 0, 47, 0
2, 290592, Note_on_c, 0, 48, 92
2, 290687, Note_on_c, 0, 48, 0
2, 290688, Note_on_c, 0, 50, 92
2, 290783, Note_on_c, 0, 50, 0
2, 290784, Note_on_c, 0, 45, 92
2, 290836, Note_on_c, 0, 67, 0
2, 290879, Note_on_c, 0, 45, 0
2, 290880, Note_on_c, 0, 66, 92
2, 290880, Note_on_c, 0, 47, 92
2, 290975, Note_on_c, 0, 47, 0
2, 290975, Note_on_c, 0, 66, 0
2, 290976, Note_on_c, 0, 64, 92
2, 290976, Note_on_c, 0, 48, 92
2, 291071, Note_on_c, 0, 48, 0
2, 291071, Note_on_c, 0, 64, 0
2, 291072, Note_on_c, 0, 66, 92
2, 291072, Note_on_c, 0, 50, 92
2, 291167, Note_on_c, 0, 50, 0
2, 291167, Note_on_c, 0, 66, 0
2, 291168, Note_on_c, 0, 69, 92
2, 291168, Note_on_c, 0, 52, 92
2, 291263, Note_on_c, 0, 52, 0
2, 291263, Note_on_c, 0, 69, 0
2, 291264, Note_on_c, 0, 74, 92
2, 291264, Note_on_c, 0, 54, 92
2, 291359, Note_on_c, 0, 54, 0
2, 291360, Note_on_c, 0, 55, 92
2, 291455, Note_on_c, 0, 55, 0
2, 291456, Note_on_c, 0, 57, 92
2, 291551, Note_on_c, 0, 57, 0
2, 291552, Note_on_c, 0, 52, 92
2, 291604, Note_on_c, 0, 74, 0
2, 291647, Note_on_c, 0, 52, 0
2, 291648, Note_on_c, 0, 72, 92
2, 291648, Note_on_c, 0, 54, 92
2, 291743, Note_on_c, 0, 54, 0
2, 291743, Note_on_c, 0, 72, 0
2, 291744, Note_on_c, 0, 71, 92
2, 291744, Note_on_c, 0, 56, 92
2, 291839, Note_on_c, 0, 56, 0
2, 291839, Note_on_c, 0, 71, 0
2, 291840, Note_on_c, 0, 72, 92
2, 291840, Note_on_c, 0, 57, 92
2, 291935, Note_on_c, 0, 57, 0
2, 291935, Note_on_c, 0, 72, 0
2, 291936, Note_on_c, 0, 76, 92
2, 291936, Note_on_c, 0, 59, 92
2, 292031, Note_on_c, 0, 59, 0
2, 292031, Note_on_c, 0, 76, 0
2, 292032, Note_on_c, 0, 81, 92
2, 292032, Note_on_c, 0, 60, 92
2, 292127, Note_on_c, 0, 60, 0
2, 292128, Note_on_c, 0, 62, 92
2, 292223, Note_on_c, 0, 62, 0
2, 292224, Note_on_c, 0, 64, 92
2, 292319, Note_on_c, 0, 64, 0
2, 292320, Note_on_c, 0, 59, 92
2, 292372, Note_on_c, 0, 81, 0
2, 292415, Note_on_c, 0, 59, 0
2, 292416, Note_on_c, 0, 79, 92
2, 292416, Note_on_c, 0, 61, 92
2, 292511, Note_on_c, 0, 61, 0
2, 292511, Note_on_c, 0, 79, 0
2, 292512, Note_on_c, 0, 78, 92
2, 292512, Note_on_c, 0, 63, 92
2, 292607, Note_on_c, 0, 63, 0
2, 292607, Note_on_c, 0, 78, 0
2, 292608, Note_on_c, 0, 81, 92
2, 292608, Note_on_c, 0, 64, 92
2, 292703, Note_on_c, 0, 64, 0
2, 292703, Note_on_c, 0, 81, 0
2, 292704, Note_on_c, 0, 79, 92
2, 292704, Note_on_c, 0, 66, 92
2, 292799, Note_on_c, 0, 66, 0
2, 292799, Note_on_c, 0, 79, 0
2, 292800, Note_on_c, 0, 78, 92
2, 292800, Note_on_c, 0, 67, 92
2, 292895, Note_on_c, 0, 67, 0
2, 292895, Note_on_c, 0, 78, 0
2, 292896, Note_on_c, 0, 76, 92
2, 292896, Note_on_c, 0, 69, 92
2, 292991, Note_on_c, 0, 69, 0
2, 292991, Note_on_c, 0, 76, 0
2, 292992, Note_on_c, 0, 75, 92
2, 292992, Note_on_c, 0, 71, 92
2, 293087, Note_on_c, 0, 71, 0
2, 293088, Note_on_c, 0, 78, 92
2, 293088, Note_on_c, 0, 69, 92
2, 293094, Note_on_c, 0, 75, 0
2, 293183, Note_on_c, 0, 69, 0
2, 293183, Note_on_c, 0, 78, 0
2, 293184, Note_on_c, 0, 71, 92
2, 293184, Note_on_c, 0, 67, 92
2, 293279, Note_on_c, 0, 67, 0
2, 293279, Note_on_c, 0, 71, 0
2, 293280, Note_on_c, 0, 69, 92
2, 293280, Note_on_c, 0, 66, 92
2, 293375, Note_on_c, 0, 66, 0
2, 293375, Note_on_c, 0, 69, 0
2, 293376, Note_on_c, 0, 67, 92
2, 293376, Note_on_c, 0, 64, 92
2, 293471, Note_on_c, 0, 64, 0
2, 293472, Note_on_c, 0, 60, 92
2, 293567, Note_on_c, 0, 60, 0
2, 293567, Note_on_c, 0, 67, 0
2, 293568, Note_on_c, 0, 84, 92
2, 293568, Note_on_c, 0, 59, 92
2, 293663, Note_on_c, 0, 59, 0
2, 293664, Note_on_c, 0, 57, 92
2, 293712, Note_on_c, 0, 84, 0
2, 293759, Note_on_c, 0, 57, 0
2, 293760, Note_on_c, 0, 66, 92
2, 293760, Note_on_c, 0, 62, 92
2, 293855, Note_on_c, 0, 62, 0
2, 293856, Note_on_c, 0, 59, 92
2, 293951, Note_on_c, 0, 59, 0
2, 293951, Note_on_c, 0, 66, 0
2, 293952, Note_on_c, 0, 83, 92
2, 293952, Note_on_c, 0, 57, 92
2, 294047, Note_on_c, 0, 57, 0
2, 294048, Note_on_c, 0, 55, 92
2, 294096, Note_on_c, 0, 83, 0
2, 294143, Note_on_c, 0, 55, 0
2, 294144, Note_on_c, 0, 64, 92
2, 294144, Note_on_c, 0, 60, 92
2, 294239, Note_on_c, 0, 60, 0
2, 294240, Note_on_c, 0, 57, 92
2, 294335, Note_on_c, 0, 57, 0
2, 294335, Note_on_c, 0, 64, 0
2, 294336, Note_on_c, 0, 81, 92
2, 294336, Note_on_c, 0, 55, 92
2, 294431, Note_on_c, 0, 55, 0
2, 294432, Note_on_c, 0, 54, 92
2, 294480, Note_on_c, 0, 81, 0
2, 294527, Note_on_c, 0, 54, 0
2, 294528, Note_on_c, 0, 62, 92
2, 294528, Note_on_c, 0, 59, 92
2, 294623, Note_on_c, 0, 59, 0
2, 294624, Note_on_c, 0, 55, 92
2, 294719, Note_on_c, 0, 55, 0
2, 294719, Note_on_c, 0, 62, 0
2, 294720, Note_on_c, 0, 79, 92
2, 294720, Note_on_c, 0, 54, 92
2, 294815, Note_on_c, 0, 54, 0
2, 294816, Note_on_c, 0, 52, 92
2, 294864, Note_on_c, 0, 79, 0
2, 294911, Note_on_c, 0, 52, 0
2, 294912, Note_on_c, 0, 60, 92
2, 294912, Note_on_c, 0, 57, 92
2, 295007, Note_on_c, 0, 57, 0
2, 295008, Note_on_c, 0, 54, 92
2, 295103, Note_on_c, 0, 54, 0
2, 295103, Note_on_c, 0, 60, 0
2, 295104, Note_on_c, 0, 78, 92
2, 295104, Note_on_c, 0, 51, 92
2, 295199, Note_on_c, 0, 51, 0
2, 295200, Note_on_c, 0, 54, 92
2, 295248, Note_on_c, 0, 78, 0
2, 295295, Note_on_c, 0, 54, 0
2, 295296, Note_on_c, 0, 59, 92
2, 295296, Note_on_c, 0, 55, 92
2, 295391, Note_on_c, 0, 55, 0
2, 295392, Note_on_c, 0, 52, 92
2, 295487, Note_on_c, 0, 52, 0
2, 295487, Note_on_c, 0, 59, 0
2, 295488, Note_on_c, 0, 76, 92
2, 295488, Note_on_c, 0, 48, 92
2, 295583, Note_on_c, 0, 48, 0
2, 295584, Note_on_c, 0, 45, 92
2, 295632, Note_on_c, 0, 76, 0
2, 295679, Note_on_c, 0, 45, 0
2, 295680, Note_on_c, 0, 66, 92
2, 295680, Note_on_c, 0, 47, 92
2, 295864, Note_on_c, 0, 66, 0
2, 295871, Note_on_c, 0, 47, 0
2, 295872, Note_on_c, 0, 75, 92
2, 295872, Note_on_c, 0, 35, 92
2, 296016, Note_on_c, 0, 75, 0
2, 296063, Note_on_c, 0, 35, 0
2, 296064, Note_on_c, 0, 76, 92
2, 296064, Note_on_c, 0, 40, 92
2, 296112, Note_on_c, 0, 71, 92
2, 296154, Note_on_c, 0, 76, 0
2, 296159, Note_on_c, 0, 71, 0
2, 296160, Note_on_c, 0, 73, 92
2, 296207, Note_on_c, 0, 73, 0
2, 296208, Note_on_c, 0, 75, 92
2, 296255, Note_on_c, 0, 75, 0
2, 296256, Note_on_c, 0, 76, 92
2, 296263, Note_on_c, 0, 40, 0
2, 296303, Note_on_c, 0, 76, 0
2, 296304, Note_on_c, 0, 75, 92
2, 296304, Note_on_c, 0, 59, 92
2, 296351, Note_on_c, 0, 59, 0
2, 296351, Note_on_c, 0, 75, 0
2, 296352, Note_on_c, 0, 76, 92
2, 296352, Note_on_c, 0, 61, 92
2, 296399, Note_on_c, 0, 61, 0
2, 296399, Note_on_c, 0, 76, 0
2, 296400, Note_on_c, 0, 78, 92
2, 296400, Note_on_c, 0, 63, 92
2, 296447, Note_on_c, 0, 63, 0
2, 296447, Note_on_c, 0, 78, 0
2, 296448, Note_on_c, 0, 79, 92
2, 296448, Note_on_c, 0, 64, 92
2, 296543, Note_on_c, 0, 64, 0
2, 296543, Note_on_c, 0, 79, 0
2, 296544, Note_on_c, 0, 76, 92
2, 296544, Note_on_c, 0, 67, 92
2, 296639, Note_on_c, 0, 67, 0
2, 296639, Note_on_c, 0, 76, 0
2, 296640, Note_on_c, 0, 72, 92
2, 296640, Note_on_c, 0, 64, 92
2, 296735, Note_on_c, 0, 64, 0
2, 296735, Note_on_c, 0, 72, 0
2, 296736, Note_on_c, 0, 69, 92
2, 296736, Note_on_c, 0, 60, 92
2, 296831, Note_on_c, 0, 60, 0
2, 296831, Note_on_c, 0, 69, 0
2, 296832, Note_on_c, 0, 78, 92
2, 296832, Note_on_c, 0, 62, 92
2, 296927, Note_on_c, 0, 62, 0
2, 296927, Note_on_c, 0, 78, 0
2, 296928, Note_on_c, 0, 74, 92
2, 296928, Note_on_c, 0, 66, 92
2, 297023, Note_on_c, 0, 66, 0
2, 297023, Note_on_c, 0, 74, 0
2, 297024, Note_on_c, 0, 71, 92
2, 297024, Note_on_c, 0, 62, 92
2, 297119, Note_on_c, 0, 62, 0
2, 297119, Note_on_c, 0, 71, 0
2, 297120, Note_on_c, 0, 67, 92
2, 297120, Note_on_c, 0, 59, 92
2, 297215, Note_on_c, 0, 59, 0
2, 297215, Note_on_c, 0, 67, 0
2, 297216, Note_on_c, 0, 76, 92
2, 297216, Note_on_c, 0, 60, 92
2, 297311, Note_on_c, 0, 60, 0
2, 297311, Note_on_c, 0, 76, 0
2, 297312, Note_on_c, 0, 72, 92
2, 297312, Note_on_c, 0, 64, 92
2, 297407, Note_on_c, 0, 64, 0
2, 297407, Note_on_c, 0, 72, 0
2, 297408, Note_on_c, 0, 69, 92
2, 297408, Note_on_c, 0, 60, 92
2, 297503, Note_on_c, 0, 60, 0
2, 297503, Note_on_c, 0, 69, 0
2, 297504, Note_on_c, 0, 66, 92
2, 297504, Note_on_c, 0, 57, 92
2, 297599, Note_on_c, 0, 57, 0
2, 297599, Note_on_c, 0, 66, 0
2, 297600, Note_on_c, 0, 76, 92
2, 297600, Note_on_c, 0, 59, 92
2, 297695, Note_on_c, 0, 59, 0
2, 297695, Note_on_c, 0, 76, 0
2, 297696, Note_on_c, 0, 71, 92
2, 297696, Note_on_c, 0, 64, 92
2, 297791, Note_on_c, 0, 64, 0
2, 297791, Note_on_c, 0, 71, 0
2, 297792, Note_on_c, 0, 67, 92
2, 297792, Note_on_c, 0, 59, 92
2, 297887, Note_on_c, 0, 59, 0
2, 297887, Note_on_c, 0, 67, 0
2, 297888, Note_on_c, 0, 64, 92
2, 297888, Note_on_c, 0, 55, 92
2, 297983, Note_on_c, 0, 55, 0
2, 297983, Note_on_c, 0, 64, 0
2, 297984, Note_on_c, 0, 72, 92
2, 297984, Note_on_c, 0, 57, 92
2, 298079, Note_on_c, 0, 57, 0
2, 298079, Note_on_c, 0, 72, 0
2, 298080, Note_on_c, 0, 69, 92
2, 298080, Note_on_c, 0, 60, 92
2, 298175, Note_on_c, 0, 60, 0
2, 298175, Note_on_c, 0, 69, 0
2, 298176, Note_on_c, 0, 66, 92
2, 298176, Note_on_c, 0, 57, 92
2, 298271, Note_on_c, 0, 57, 0
2, 298271, Note_on_c, 0, 66, 0
2, 298272, Note_on_c, 0, 63, 92
2, 298272, Note_on_c, 0, 54, 92
2, 298367, Note_on_c, 0, 54, 0
2, 298367, Note_on_c, 0, 63, 0
2, 298368, Note_on_c, 0, 64, 92
2, 298368, Note_on_c, 0, 55, 92
2, 298463, Note_on_c, 0, 55, 0
2, 298463, Note_on_c, 0, 64, 0
2, 298464, Note_on_c, 0, 67, 92
2, 298464, Note_on_c, 0, 59, 92
2, 298559, Note_on_c, 0, 59, 0
2, 298559, Note_on_c, 0, 67, 0
2, 298560, Note_on_c, 0, 71, 92
2, 298560, Note_on_c, 0, 55, 92
2, 298655, Note_on_c, 0, 55, 0
2, 298655, Note_on_c, 0, 71, 0
2, 298656, Note_on_c, 0, 76, 92
2, 298656, Note_on_c, 0, 52, 92
2, 298751, Note_on_c, 0, 52, 0
2, 298751, Note_on_c, 0, 76, 0
2, 298752, Note_on_c, 0, 71, 92
2, 298752, Note_on_c, 0, 59, 92
2, 298847, Note_on_c, 0, 71, 0
2, 298848, Note_on_c, 0, 76, 92
2, 298943, Note_on_c, 0, 76, 0
2, 298943, Note_on_c, 0, 59, 0
2, 298944, Note_on_c, 0, 79, 92
2, 298944, Note_on_c, 0, 47, 92
2, 298998, Note_on_c, 0, 78, 92
2, 298999, Note_on_c, 0, 79, 0
2, 299053, Note_on_c, 0, 78, 0
2, 299054, Note_on_c, 0, 76, 92
2, 299109, Note_on_c, 0, 76, 0
2, 299110, Note_on_c, 0, 75, 92
2, 299135, Note_on_c, 0, 47, 0
2, 299165, Note_on_c, 0, 75, 0
2, 299168, Note_on_c, 0, 52, 92
2, 299168, Note_on_c, 0, 76, 92
2, 299416, Note_on_c, 0, 40, 92
2, 299743, Note_on_c, 0, 52, 0
2, 300016, Note_on_c, 0, 40, 0
2, 300068, Note_on_c, 0, 76, 0
2, 303360, Note_on_c, 0, 64, 92
2, 303360, Note_on_c, 0, 59, 92
2, 303360, Note_on_c, 0, 55, 92
2, 303360, Note_on_c, 0, 52, 92
2, 303384, Note_on_c, 0, 66, 92
2, 303408, Note_on_c, 0, 67, 92
2, 303415, Note_on_c, 0, 66, 0
2, 303667, Note_on_c, 0, 67, 0
2, 303679, Note_on_c, 0, 64, 0
2, 303679, Note_on_c, 0, 59, 0
2, 303680, Note_on_c, 0, 67, 92
2, 303743, Note_on_c, 0, 67, 0
2, 303743, Note_on_c, 0, 55, 0
2, 303743, Note_on_c, 0, 52, 0
2, 303744, Note_on_c, 0, 59, 92
2, 303744, Note_on_c, 0, 64, 92
2, 303744, Note_on_c, 0, 67, 92
2, 303744, Note_on_c, 0, 48, 92
2, 303744, Note_on_c, 0, 45, 92
2, 303744, Note_on_c, 0, 52, 92
2, 303744, Note_on_c, 0, 57, 92
2, 304024, Note_on_c, 0, 59, 0
2, 304024, Note_on_c, 0, 60, 92
2, 304124, Note_on_c, 0, 64, 0
2, 304223, Note_on_c, 0, 67, 0
2, 304224, Note_on_c, 0, 66, 92
2, 304271, Note_on_c, 0, 66, 0
2, 304272, Note_on_c, 0, 67, 92
2, 304319, Note_on_c, 0, 67, 0
2, 304320, Note_on_c, 0, 69, 92
2, 304404, Note_on_c, 0, 60, 0
2, 304415, Note_on_c, 0, 69, 0
2, 304416, Note_on_c, 0, 69, 92
2, 304444, Note_on_c, 0, 45, 0
2, 304454, Note_on_c, 0, 48, 0
2, 304463, Note_on_c, 0, 69, 0
2, 304464, Note_on_c, 0, 52, 0
2, 304464, Note_on_c, 0, 71, 92
2, 304484, Note_on_c, 0, 57, 0
2, 304511, Note_on_c, 0, 71, 0
2, 304512, Note_on_c, 0, 72, 92
2, 304559, Note_on_c, 0, 72, 0
2, 304560, Note_on_c, 0, 69, 92
2, 304607, Note_on_c, 0, 69, 0
2, 304608, Note_on_c, 0, 71, 92
2, 304655, Note_on_c, 0, 71, 0
2, 304656, Note_on_c, 0, 72, 92
2, 304703, Note_on_c, 0, 72, 0
2, 304704, Note_on_c, 0, 75, 92
2, 304752, Note_on_c, 0, 69, 92
2, 304794, Note_on_c, 0, 75, 0
2, 304800, Note_on_c, 0, 71, 92
2, 304847, Note_on_c, 0, 71, 0
2, 304848, Note_on_c, 0, 72, 92
2, 304896, Note_on_c, 0, 78, 92
2, 304992, Note_on_c, 0, 60, 92
2, 305088, Note_on_c, 0, 57, 92
2, 305184, Note_on_c, 0, 54, 92
2, 305280, Note_on_c, 0, 52, 92
2, 305369, Note_on_c, 0, 52, 0
2, 305376, Note_on_c, 0, 51, 92
2, 305471, Note_on_c, 0, 78, 0
2, 305473, Note_on_c, 0, 72, 0
2, 305477, Note_on_c, 0, 69, 0
2, 305547, Note_on_c, 0, 60, 0
2, 305548, Note_on_c, 0, 57, 0
2, 305549, Note_on_c, 0, 54, 0
2, 305556, Note_on_c, 0, 51, 0
2, 305575, Note_on_c, 0, 69, 92
2, 305575, Note_on_c, 0, 72, 92
2, 305575, Note_on_c, 0, 54, 92
2, 305575, Note_on_c, 0, 51, 92
2, 305663, Note_on_c, 0, 51, 0
2, 305663, Note_on_c, 0, 69, 0
2, 305663, Note_on_c, 0, 72, 0
2, 305663, Note_on_c, 0, 54, 0
2, 305664, Note_on_c, 0, 67, 92
2, 305664, Note_on_c, 0, 71, 92
2, 305664, Note_on_c, 0, 52, 92
2, 305664, Note_on_c, 0, 55, 92
2, 305959, Note_on_c, 0, 55, 0
2, 305959, Note_on_c, 0, 67, 0
2, 305959, Note_on_c, 0, 71, 0
2, 305959, Note_on_c, 0, 52, 0
2, 305974, Note_on_c, 0, 66, 92
2, 305974, Note_on_c, 0, 75, 92
2, 305974, Note_on_c, 0, 54, 92
2, 305974, Note_on_c, 0, 57, 92
2, 306047, Note_on_c, 0, 57, 0
2, 306047, Note_on_c, 0, 66, 0
2, 306047, Note_on_c, 0, 75, 0
2, 306047, Note_on_c, 0, 54, 0
2, 306048, Note_on_c, 0, 76, 92
2, 306048, Note_on_c, 0, 64, 92
2, 306048, Note_on_c, 0, 55, 92
2, 306048, Note_on_c, 0, 59, 92
2, 306343, Note_on_c, 0, 59, 0
2, 306343, Note_on_c, 0, 76, 0
2, 306343, Note_on_c, 0, 64, 0
2, 306343, Note_on_c, 0, 55, 0
2, 306368, Note_on_c, 0, 79, 92
2, 306368, Note_on_c, 0, 71, 92
2, 306368, Note_on_c, 0, 64, 92
2, 306368, Note_on_c, 0, 52, 92
2, 306431, Note_on_c, 0, 52, 0
2, 306431, Note_on_c, 0, 79, 0
2, 306431, Note_on_c, 0, 71, 0
2, 306431, Note_on_c, 0, 64, 0
2, 306432, Note_on_c, 0, 72, 92
2, 306432, Note_on_c, 0, 78, 92
2, 306432, Note_on_c, 0, 57, 92
2, 306432, Note_on_c, 0, 64, 92
2, 306727, Note_on_c, 0, 64, 0
2, 306727, Note_on_c, 0, 72, 0
2, 306727, Note_on_c, 0, 78, 0
2, 306727, Note_on_c, 0, 57, 0
2, 306752, Note_on_c, 0, 81, 92
2, 306752, Note_on_c, 0, 71, 92
2, 306752, Note_on_c, 0, 66, 92
2, 306752, Note_on_c, 0, 63, 92
2, 306752, Note_on_c, 0, 59, 92
2, 306815, Note_on_c, 0, 59, 0
2, 306815, Note_on_c, 0, 66, 0
2, 306815, Note_on_c, 0, 81, 0
2, 306815, Note_on_c, 0, 71, 0
2, 306815, Note_on_c, 0, 63, 0
2, 306816, Note_on_c, 0, 76, 92
2, 306816, Note_on_c, 0, 69, 92
2, 306816, Note_on_c, 0, 60, 92
2, 306816, Note_on_c, 0, 66, 92
2, 307007, Note_on_c, 0, 69, 0
2, 307007, Note_on_c, 0, 76, 0
2, 307008, Note_on_c, 0, 75, 92
2, 307109, Note_on_c, 0, 75, 0
2, 307109, Note_on_c, 0, 60, 0
2, 307109, Note_on_c, 0, 66, 0
2, 307120, Note_on_c, 0, 76, 92
2, 307120, Note_on_c, 0, 72, 92
2, 307120, Note_on_c, 0, 67, 92
2, 307120, Note_on_c, 0, 57, 92
2, 307199, Note_on_c, 0, 57, 0
2, 307199, Note_on_c, 0, 76, 0
2, 307199, Note_on_c, 0, 72, 0
2, 307199, Note_on_c, 0, 67, 0
2, 307200, Note_on_c, 0, 71, 92
2, 307200, Note_on_c, 0, 76, 92
2, 307200, Note_on_c, 0, 59, 92
2, 307200, Note_on_c, 0, 66, 92
2, 307631, Note_on_c, 0, 76, 0
2, 307631, Note_on_c, 0, 71, 0
2, 307632, Note_on_c, 0, 75, 92
2, 307679, Note_on_c, 0, 75, 0
2, 307680, Note_on_c, 0, 76, 92
2, 307727, Note_on_c, 0, 76, 0
2, 307728, Note_on_c, 0, 75, 92
2, 307775, Note_on_c, 0, 75, 0
2, 307776, Note_on_c, 0, 73, 92
2, 307823, Note_on_c, 0, 73, 0
2, 307824, Note_on_c, 0, 75, 92
2, 307871, Note_on_c, 0, 75, 0
2, 307872, Note_on_c, 0, 73, 92
2, 307919, Note_on_c, 0, 73, 0
2, 307920, Note_on_c, 0, 71, 92
2, 307967, Note_on_c, 0, 71, 0
2, 307967, Note_on_c, 0, 59, 0
2, 307967, Note_on_c, 0, 66, 0
2, 307968, Note_on_c, 0, 75, 92
2, 307968, Note_on_c, 0, 78, 92
2, 307968, Note_on_c, 0, 81, 92
2, 307968, Note_on_c, 0, 63, 92
2, 307968, Note_on_c, 0, 66, 92
2, 307968, Note_on_c, 0, 71, 92
2, 308258, Note_on_c, 0, 81, 0
2, 308263, Note_on_c, 0, 81, 92
2, 308348, Note_on_c, 0, 75, 0
2, 308348, Note_on_c, 0, 78, 0
2, 308351, Note_on_c, 0, 66, 0
2, 308351, Note_on_c, 0, 63, 0
2, 308351, Note_on_c, 0, 81, 0
2, 308351, Note_on_c, 0, 71, 0
2, 308352, Note_on_c, 0, 81, 92
2, 308352, Note_on_c, 0, 71, 92
2, 308352, Note_on_c, 0, 75, 92
2, 308352, Note_on_c, 0, 78, 92
2, 308352, Note_on_c, 0, 67, 92
2, 308352, Note_on_c, 0, 64, 92
2, 308735, Note_on_c, 0, 78, 0
2, 308735, Note_on_c, 0, 75, 0
2, 308735, Note_on_c, 0, 81, 0
2, 308736, Note_on_c, 0, 79, 92
2, 308736, Note_on_c, 0, 76, 92
2, 308831, Note_on_c, 0, 76, 0
2, 308831, Note_on_c, 0, 79, 0
2, 308832, Note_on_c, 0, 71, 0
2, 308832, Note_on_c, 0, 71, 92
2, 308879, Note_on_c, 0, 71, 0
2, 308880, Note_on_c, 0, 72, 92
2, 308927, Note_on_c, 0, 72, 0
2, 308928, Note_on_c, 0, 74, 92
2, 309023, Note_on_c, 0, 74, 0
2, 309024, Note_on_c, 0, 74, 92
2, 309071, Note_on_c, 0, 74, 0
2, 309072, Note_on_c, 0, 76, 92
2, 309119, Note_on_c, 0, 76, 0
2, 309119, Note_on_c, 0, 67, 0
2, 309119, Note_on_c, 0, 64, 0
2, 309120, Note_on_c, 0, 77, 92
2, 309120, Note_on_c, 0, 59, 92
2, 309120, Note_on_c, 0, 68, 92
2, 309167, Note_on_c, 0, 77, 0
2, 309168, Note_on_c, 0, 74, 92
2, 309215, Note_on_c, 0, 74, 0
2, 309216, Note_on_c, 0, 76, 92
2, 309263, Note_on_c, 0, 76, 0
2, 309264, Note_on_c, 0, 77, 92
2, 309311, Note_on_c, 0, 77, 0
2, 309312, Note_on_c, 0, 80, 92
2, 309359, Note_on_c, 0, 80, 0
2, 309360, Note_on_c, 0, 74, 92
2, 309408, Note_on_c, 0, 76, 92
2, 309455, Note_on_c, 0, 76, 0
2, 309456, Note_on_c, 0, 77, 92
2, 309503, Note_on_c, 0, 59, 0
2, 309503, Note_on_c, 0, 68, 0
2, 309504, Note_on_c, 0, 83, 92
2, 309504, Note_on_c, 0, 60, 92
2, 309696, Note_on_c, 0, 69, 92
2, 309743, Note_on_c, 0, 69, 0
2, 309744, Note_on_c, 0, 68, 92
2, 309791, Note_on_c, 0, 68, 0
2, 309792, Note_on_c, 0, 66, 92
2, 309839, Note_on_c, 0, 66, 0
2, 309840, Note_on_c, 0, 68, 92
2, 309884, Note_on_c, 0, 83, 0
2, 309886, Note_on_c, 0, 77, 0
2, 309887, Note_on_c, 0, 68, 0
2, 309888, Note_on_c, 0, 76, 92
2, 309888, Note_on_c, 0, 69, 92
2, 309888, Note_on_c, 0, 72, 92
2, 309888, Note_on_c, 0, 81, 92
2, 309890, Note_on_c, 0, 74, 0
2, 309935, Note_on_c, 0, 76, 0
2, 309935, Note_on_c, 0, 81, 0
2, 309936, Note_on_c, 0, 77, 92
2, 309983, Note_on_c, 0, 77, 0
2, 309983, Note_on_c, 0, 72, 0
2, 309984, Note_on_c, 0, 76, 92
2, 310031, Note_on_c, 0, 76, 0
2, 310032, Note_on_c, 0, 74, 92
2, 310079, Note_on_c, 0, 74, 0
2, 310080, Note_on_c, 0, 72, 92
2, 310127, Note_on_c, 0, 72, 0
2, 310128, Note_on_c, 0, 69, 0
2, 310128, Note_on_c, 0, 71, 92
2, 310175, Note_on_c, 0, 71, 0
2, 310176, Note_on_c, 0, 69, 92
2, 310223, Note_on_c, 0, 69, 0
2, 310224, Note_on_c, 0, 68, 92
2, 310271, Note_on_c, 0, 68, 0
2, 310271, Note_on_c, 0, 60, 0
2, 310272, Note_on_c, 0, 69, 92
2, 310362, Note_on_c, 0, 61, 92
2, 310404, Note_on_c, 0, 64, 92
2, 310444, Note_on_c, 0, 69, 0
2, 310445, Note_on_c, 0, 64, 0
2, 310446, Note_on_c, 0, 69, 92
2, 310487, Note_on_c, 0, 69, 0
2, 310488, Note_on_c, 0, 73, 92
2, 310529, Note_on_c, 0, 73, 0
2, 310530, Note_on_c, 0, 76, 92
2, 310572, Note_on_c, 0, 78, 92
2, 310613, Note_on_c, 0, 78, 0
2, 310614, Note_on_c, 0, 79, 92
2, 310650, Note_on_c, 0, 76, 0
2, 310652, Note_on_c, 0, 61, 0
2, 310655, Note_on_c, 0, 79, 0
2, 310656, Note_on_c, 0, 73, 92
2, 310656, Note_on_c, 0, 76, 92
2, 310656, Note_on_c, 0, 79, 92
2, 310656, Note_on_c, 0, 62, 92
2, 310656, Note_on_c, 0, 69, 92
2, 310847, Note_on_c, 0, 73, 0
2, 310848, Note_on_c, 0, 74, 92
2, 310895, Note_on_c, 0, 74, 0
2, 310896, Note_on_c, 0, 73, 92
2, 310943, Note_on_c, 0, 73, 0
2, 310944, Note_on_c, 0, 71, 92
2, 310991, Note_on_c, 0, 71, 0
2, 310992, Note_on_c, 0, 73, 92
2, 311036, Note_on_c, 0, 69, 0
2, 311036, Note_on_c, 0, 76, 0
2, 311036, Note_on_c, 0, 79, 0
2, 311039, Note_on_c, 0, 73, 0
2, 311040, Note_on_c, 0, 74, 92
2, 311040, Note_on_c, 0, 78, 92
2, 311088, Note_on_c, 0, 69, 92
2, 311104, Note_on_c, 0, 74, 0
2, 311136, Note_on_c, 0, 71, 92
2, 311183, Note_on_c, 0, 71, 0
2, 311184, Note_on_c, 0, 78, 0
2, 311184, Note_on_c, 0, 73, 92
2, 311231, Note_on_c, 0, 73, 0
2, 311232, Note_on_c, 0, 74, 92
2, 311279, Note_on_c, 0, 74, 0
2, 311280, Note_on_c, 0, 76, 92
2, 311327, Note_on_c, 0, 76, 0
2, 311328, Note_on_c, 0, 78, 92
2, 311368, Note_on_c, 0, 69, 0
2, 311375, Note_on_c, 0, 78, 0
2, 311376, Note_on_c, 0, 79, 92
2, 311423, Note_on_c, 0, 79, 0
2, 311423, Note_on_c, 0, 62, 0
2, 311424, Note_on_c, 0, 81, 92
2, 311424, Note_on_c, 0, 60, 92
2, 311424, Note_on_c, 0, 66, 92
2, 311424, Note_on_c, 0, 69, 92
2, 311424, Note_on_c, 0, 62, 92
2, 311519, Note_on_c, 0, 81, 0
2, 311520, Note_on_c, 0, 79, 92
2, 311567, Note_on_c, 0, 79, 0
2, 311568, Note_on_c, 0, 78, 92
2, 311615, Note_on_c, 0, 78, 0
2, 311616, Note_on_c, 0, 84, 92
2, 311711, Note_on_c, 0, 84, 0
2, 311712, Note_on_c, 0, 83, 92
2, 311759, Note_on_c, 0, 83, 0
2, 311760, Note_on_c, 0, 81, 92
2, 311807, Note_on_c, 0, 81, 0
2, 311807, Note_on_c, 0, 62, 0
2, 311807, Note_on_c, 0, 60, 0
2, 311807, Note_on_c, 0, 66, 0
2, 311807, Note_on_c, 0, 69, 0
2, 311808, Note_on_c, 0, 83, 92
2, 311808, Note_on_c, 0, 72, 92
2, 311808, Note_on_c, 0, 74, 92
2, 311808, Note_on_c, 0, 62, 92
2, 311808, Note_on_c, 0, 66, 92
2, 311808, Note_on_c, 0, 59, 92
2, 311842, Note_on_c, 0, 83, 0
2, 311843, Note_on_c, 0, 81, 92
2, 311877, Note_on_c, 0, 81, 0
2, 311878, Note_on_c, 0, 83, 92
2, 311912, Note_on_c, 0, 83, 0
2, 311913, Note_on_c, 0, 81, 92
2, 311947, Note_on_c, 0, 81, 0
2, 311948, Note_on_c, 0, 83, 92
2, 311982, Note_on_c, 0, 83, 0
2, 311983, Note_on_c, 0, 81, 92
2, 312017, Note_on_c, 0, 81, 0
2, 312018, Note_on_c, 0, 83, 92
2, 312052, Note_on_c, 0, 83, 0
2, 312053, Note_on_c, 0, 81, 92
2, 312087, Note_on_c, 0, 81, 0
2, 312088, Note_on_c, 0, 79, 92
2, 312122, Note_on_c, 0, 79, 0
2, 312123, Note_on_c, 0, 81, 92
2, 312157, Note_on_c, 0, 81, 0
2, 312158, Note_on_c, 0, 83, 92
2, 312188, Note_on_c, 0, 72, 0
2, 312191, Note_on_c, 0, 59, 0
2, 312191, Note_on_c, 0, 66, 0
2, 312191, Note_on_c, 0, 62, 0
2, 312191, Note_on_c, 0, 83, 0
2, 312192, Note_on_c, 0, 79, 92
2, 312192, Note_on_c, 0, 67, 92
2, 312192, Note_on_c, 0, 71, 92
2, 312383, Note_on_c, 0, 74, 0
2, 312469, Note_on_c, 0, 79, 0
2, 312469, Note_on_c, 0, 67, 0
2, 312469, Note_on_c, 0, 71, 0
2, 312480, Note_on_c, 0, 78, 92
2, 312480, Note_on_c, 0, 63, 92
2, 312480, Note_on_c, 0, 57, 92
2, 312480, Note_on_c, 0, 60, 92
2, 312575, Note_on_c, 0, 60, 0
2, 312575, Note_on_c, 0, 78, 0
2, 312575, Note_on_c, 0, 63, 0
2, 312575, Note_on_c, 0, 57, 0
2, 312576, Note_on_c, 0, 76, 92
2, 312576, Note_on_c, 0, 55, 92
2, 312576, Note_on_c, 0, 64, 92
2, 312576, Note_on_c, 0, 59, 92
2, 312671, Note_on_c, 0, 76, 0
2, 312672, Note_on_c, 0, 79, 92
2, 312719, Note_on_c, 0, 79, 0
2, 312720, Note_on_c, 0, 78, 92
2, 312767, Note_on_c, 0, 78, 0
2, 312768, Note_on_c, 0, 76, 92
2, 312815, Note_on_c, 0, 76, 0
2, 312816, Note_on_c, 0, 78, 92
2, 312863, Note_on_c, 0, 78, 0
2, 312863, Note_on_c, 0, 55, 0
2, 312863, Note_on_c, 0, 64, 0
2, 312863, Note_on_c, 0, 59, 0
2, 312864, Note_on_c, 0, 79, 92
2, 312864, Note_on_c, 0, 54, 92
2, 312959, Note_on_c, 0, 54, 0
2, 312959, Note_on_c, 0, 79, 0
2, 312960, Note_on_c, 0, 73, 92
2, 312960, Note_on_c, 0, 52, 92
2, 313055, Note_on_c, 0, 73, 0
2, 313056, Note_on_c, 0, 76, 92
2, 313103, Note_on_c, 0, 76, 0
2, 313104, Note_on_c, 0, 74, 92
2, 313151, Note_on_c, 0, 74, 0
2, 313152, Note_on_c, 0, 73, 92
2, 313199, Note_on_c, 0, 73, 0
2, 313200, Note_on_c, 0, 74, 92
2, 313247, Note_on_c, 0, 74, 0
2, 313247, Note_on_c, 0, 52, 0
2, 313248, Note_on_c, 0, 76, 92
2, 313248, Note_on_c, 0, 50, 92
2, 313343, Note_on_c, 0, 50, 0
2, 313343, Note_on_c, 0, 76, 0
2, 313344, Note_on_c, 0, 70, 92
2, 313344, Note_on_c, 0, 49, 92
2, 313439, Note_on_c, 0, 70, 0
2, 313440, Note_on_c, 0, 73, 92
2, 313487, Note_on_c, 0, 73, 0
2, 313488, Note_on_c, 0, 71, 92
2, 313535, Note_on_c, 0, 71, 0
2, 313536, Note_on_c, 0, 70, 92
2, 313583, Note_on_c, 0, 70, 0
2, 313584, Note_on_c, 0, 71, 92
2, 313631, Note_on_c, 0, 71, 0
2, 313631, Note_on_c, 0, 49, 0
2, 313632, Note_on_c, 0, 73, 92
2, 313632, Note_on_c, 0, 47, 92
2, 313727, Note_on_c, 0, 47, 0
2, 313727, Note_on_c, 0, 73, 0
2, 313728, Note_on_c, 0, 66, 92
2, 313728, Note_on_c, 0, 46, 92
2, 314008, Note_on_c, 0, 46, 0
2, 314008, Note_on_c, 0, 66, 0
2, 314048, Note_on_c, 0, 67, 92
2, 314048, Note_on_c, 0, 62, 92
2, 314048, Note_on_c, 0, 59, 92
2, 314048, Note_on_c, 0, 47, 92
2, 314111, Note_on_c, 0, 47, 0
2, 314112, Note_on_c, 0, 40, 92
2, 314144, Note_on_c, 0, 46, 92
2, 314176, Note_on_c, 0, 49, 92
2, 314208, Note_on_c, 0, 52, 92
2, 314239, Note_on_c, 0, 67, 0
2, 314239, Note_on_c, 0, 59, 0
2, 314239, Note_on_c, 0, 62, 0
2, 314240, Note_on_c, 0, 58, 92
2, 314272, Note_on_c, 0, 61, 92
2, 314304, Note_on_c, 0, 66, 92
2, 314399, Note_on_c, 0, 66, 0
2, 314400, Note_on_c, 0, 64, 92
2, 314447, Note_on_c, 0, 64, 0
2, 314448, Note_on_c, 0, 67, 92
2, 314495, Note_on_c, 0, 67, 0
2, 314496, Note_on_c, 0, 66, 92
2, 314720, Note_on_c, 0, 58, 0
2, 314720, Note_on_c, 0, 46, 0
2, 314720, Note_on_c, 0, 49, 0
2, 314720, Note_on_c, 0, 52, 0
2, 314720, Note_on_c, 0, 40, 0
2, 314720, Note_on_c, 0, 61, 0
2, 314776, Note_on_c, 0, 66, 0
2, 314790, Note_on_c, 0, 76, 92
2, 314790, Note_on_c, 0, 79, 92
2, 314790, Note_on_c, 0, 58, 92
2, 314790, Note_on_c, 0, 49, 92
2, 314879, Note_on_c, 0, 49, 0
2, 314879, Note_on_c, 0, 76, 0
2, 314879, Note_on_c, 0, 79, 0
2, 314879, Note_on_c, 0, 58, 0
2, 314880, Note_on_c, 0, 78, 92
2, 314880, Note_on_c, 0, 74, 92
2, 314880, Note_on_c, 0, 50, 92
2, 314880, Note_on_c, 0, 59, 92
2, 315169, Note_on_c, 0, 59, 0
2, 315169, Note_on_c, 0, 78, 0
2, 315169, Note_on_c, 0, 74, 0
2, 315169, Note_on_c, 0, 50, 0
2, 315180, Note_on_c, 0, 73, 92
2, 315180, Note_on_c, 0, 76, 92
2, 315180, Note_on_c, 0, 52, 92
2, 315180, Note_on_c, 0, 61, 92
2, 315263, Note_on_c, 0, 61, 0
2, 315263, Note_on_c, 0, 73, 0
2, 315263, Note_on_c, 0, 76, 0
2, 315263, Note_on_c, 0, 52, 0
2, 315264, Note_on_c, 0, 71, 92
2, 315264, Note_on_c, 0, 74, 92
2, 315264, Note_on_c, 0, 54, 92
2, 315264, Note_on_c, 0, 62, 92
2, 315573, Note_on_c, 0, 62, 0
2, 315573, Note_on_c, 0, 71, 0
2, 315573, Note_on_c, 0, 74, 0
2, 315573, Note_on_c, 0, 54, 0
2, 315584, Note_on_c, 0, 73, 92
2, 315584, Note_on_c, 0, 64, 92
2, 315584, Note_on_c, 0, 55, 92
2, 315647, Note_on_c, 0, 55, 0
2, 315647, Note_on_c, 0, 64, 0
2, 315647, Note_on_c, 0, 73, 0
2, 315648, Note_on_c, 0, 71, 92
2, 315648, Note_on_c, 0, 67, 92
2, 315648, Note_on_c, 0, 61, 92
2, 315648, Note_on_c, 0, 52, 92
2, 315775, Note_on_c, 0, 67, 0
2, 315775, Note_on_c, 0, 71, 0
2, 315776, Note_on_c, 0, 70, 92
2, 315951, Note_on_c, 0, 70, 0
2, 315951, Note_on_c, 0, 61, 0
2, 315952, Note_on_c, 0, 71, 92
2, 315952, Note_on_c, 0, 62, 92
2, 316028, Note_on_c, 0, 52, 0
2, 316031, Note_on_c, 0, 62, 0
2, 316032, Note_on_c, 0, 66, 92
2, 316032, Note_on_c, 0, 54, 92
2, 316032, Note_on_c, 0, 59, 92
2, 316059, Note_on_c, 0, 59, 0
2, 316060, Note_on_c, 0, 58, 92
2, 316087, Note_on_c, 0, 58, 0
2, 316088, Note_on_c, 0, 59, 92
2, 316115, Note_on_c, 0, 59, 0
2, 316116, Note_on_c, 0, 58, 92
2, 316122, Note_on_c, 0, 71, 0
2, 316128, Note_on_c, 0, 73, 92
2, 316175, Note_on_c, 0, 73, 0
2, 316176, Note_on_c, 0, 74, 92
2, 316223, Note_on_c, 0, 74, 0
2, 316224, Note_on_c, 0, 76, 92
2, 316271, Note_on_c, 0, 76, 0
2, 316272, Note_on_c, 0, 74, 92
2, 316312, Note_on_c, 0, 66, 0
2, 316319, Note_on_c, 0, 58, 0
2, 316319, Note_on_c, 0, 74, 0
2, 316320, Note_on_c, 0, 73, 92
2, 316320, Note_on_c, 0, 64, 92
2, 316320, Note_on_c, 0, 58, 92
2, 316412, Note_on_c, 0, 54, 0
2, 316415, Note_on_c, 0, 73, 0
2, 316415, Note_on_c, 0, 64, 0
2, 316415, Note_on_c, 0, 58, 0
2, 316416, Note_on_c, 0, 64, 92
2, 316416, Note_on_c, 0, 73, 92
2, 316416, Note_on_c, 0, 47, 92
2, 316416, Note_on_c, 0, 54, 92
2, 316791, Note_on_c, 0, 54, 0
2, 316792, Note_on_c, 0, 64, 0
2, 316792, Note_on_c, 0, 73, 0
2, 316792, Note_on_c, 0, 63, 92
2, 316792, Note_on_c, 0, 71, 92
2, 316792, Note_on_c, 0, 59, 92
2, 317183, Note_on_c, 0, 47, 0
2, 317367, Note_on_c, 0, 63, 0
2, 317367, Note_on_c, 0, 71, 0
2, 317567, Note_on_c, 0, 59, 0
2, 317568, Note_on_c, 0, 63, 92
2, 317568, Note_on_c, 0, 59, 92
2, 317568, Note_on_c, 0, 57, 92
2, 317568, Note_on_c, 0, 51, 92
2, 317568, Note_on_c, 0, 47, 92
2, 317568, Note_on_c, 0, 54, 92
2, 317592, Note_on_c, 0, 64, 92
2, 317616, Note_on_c, 0, 66, 92
2, 317624, Note_on_c, 0, 64, 0
2, 317886, Note_on_c, 0, 66, 0
2, 317887, Note_on_c, 0, 63, 0
2, 317887, Note_on_c, 0, 59, 0
2, 317888, Note_on_c, 0, 66, 92
2, 317951, Note_on_c, 0, 66, 0
2, 317951, Note_on_c, 0, 54, 0
2, 317951, Note_on_c, 0, 51, 0
2, 317951, Note_on_c, 0, 57, 0
2, 317951, Note_on_c, 0, 47, 0
2, 317952, Note_on_c, 0, 59, 92
2, 317952, Note_on_c, 0, 63, 92
2, 317952, Note_on_c, 0, 66, 92
2, 317952, Note_on_c, 0, 57, 92
2, 317952, Note_on_c, 0, 52, 92
2, 318335, Note_on_c, 0, 52, 0
2, 318335, Note_on_c, 0, 66, 0
2, 318335, Note_on_c, 0, 59, 0
2, 318335, Note_on_c, 0, 63, 0
2, 318335, Note_on_c, 0, 57, 0
2, 318336, Note_on_c, 0, 64, 92
2, 318336, Note_on_c, 0, 67, 92
2, 318336, Note_on_c, 0, 55, 92
2, 318479, Note_on_c, 0, 67, 0
2, 318480, Note_on_c, 0, 71, 92
2, 318526, Note_on_c, 0, 55, 0
2, 318526, Note_on_c, 0, 64, 0
2, 318527, Note_on_c, 0, 71, 0
2, 318528, Note_on_c, 0, 71, 92
2, 318575, Note_on_c, 0, 71, 0
2, 318576, Note_on_c, 0, 69, 92
2, 318623, Note_on_c, 0, 69, 0
2, 318624, Note_on_c, 0, 71, 92
2, 318719, Note_on_c, 0, 71, 0
2, 318720, Note_on_c, 0, 74, 92
2, 318816, Note_on_c, 0, 68, 92
2, 318911, Note_on_c, 0, 68, 0
2, 318912, Note_on_c, 0, 68, 92
2, 318959, Note_on_c, 0, 68, 0
2, 318960, Note_on_c, 0, 66, 92
2, 319007, Note_on_c, 0, 66, 0
2, 319008, Note_on_c, 0, 68, 92
2, 319104, Note_on_c, 0, 71, 92
2, 319200, Note_on_c, 0, 62, 92
2, 319295, Note_on_c, 0, 62, 0
2, 319296, Note_on_c, 0, 62, 92
2, 319343, Note_on_c, 0, 62, 0
2, 319344, Note_on_c, 0, 60, 92
2, 319391, Note_on_c, 0, 60, 0
2, 319392, Note_on_c, 0, 62, 92
2, 319487, Note_on_c, 0, 62, 0
2, 319488, Note_on_c, 0, 65, 92
2, 319584, Note_on_c, 0, 59, 92
2, 319679, Note_on_c, 0, 59, 0
2, 319680, Note_on_c, 0, 59, 92
2, 319727, Note_on_c, 0, 59, 0
2, 319728, Note_on_c, 0, 57, 92
2, 319775, Note_on_c, 0, 57, 0
2, 319776, Note_on_c, 0, 59, 92
2, 319871, Note_on_c, 0, 59, 0
2, 319872, Note_on_c, 0, 62, 92
2, 319968, Note_on_c, 0, 56, 92
2, 320063, Note_on_c, 0, 56, 0
2, 320064, Note_on_c, 0, 56, 92
2, 320111, Note_on_c, 0, 56, 0
2, 320112, Note_on_c, 0, 54, 92
2, 320159, Note_on_c, 0, 54, 0
2, 320160, Note_on_c, 0, 56, 92
2, 320220, Note_on_c, 0, 74, 0
2, 320252, Note_on_c, 0, 62, 0
2, 320256, Note_on_c, 0, 48, 92
2, 320304, Note_on_c, 0, 71, 0
2, 320440, Note_on_c, 0, 56, 0
2, 320458, Note_on_c, 0, 68, 0
2, 320559, Note_on_c, 0, 65, 0
2, 320560, Note_on_c, 0, 64, 92
2, 320560, Note_on_c, 0, 69, 92
2, 320560, Note_on_c, 0, 72, 92
2, 320560, Note_on_c, 0, 57, 92
2, 320636, Note_on_c, 0, 48, 0
2, 320639, Note_on_c, 0, 72, 0
2, 320639, Note_on_c, 0, 64, 0
2, 320639, Note_on_c, 0, 69, 0
2, 320639, Note_on_c, 0, 57, 0
2, 320640, Note_on_c, 0, 65, 92
2, 320640, Note_on_c, 0, 71, 92
2, 320640, Note_on_c, 0, 57, 92
2, 320640, Note_on_c, 0, 50, 92
2, 320933, Note_on_c, 0, 50, 0
2, 320933, Note_on_c, 0, 65, 0
2, 320933, Note_on_c, 0, 71, 0
2, 320933, Note_on_c, 0, 57, 0
2, 320944, Note_on_c, 0, 64, 92
2, 320944, Note_on_c, 0, 74, 92
2, 320944, Note_on_c, 0, 52, 92
2, 320944, Note_on_c, 0, 56, 92
2, 320944, Note_on_c, 0, 59, 92
2, 321023, Note_on_c, 0, 59, 0
2, 321023, Note_on_c, 0, 52, 0
2, 321023, Note_on_c, 0, 64, 0
2, 321023, Note_on_c, 0, 74, 0
2, 321023, Note_on_c, 0, 56, 0
2, 321024, Note_on_c, 0, 62, 92
2, 321024, Note_on_c, 0, 69, 92
2, 321024, Note_on_c, 0, 59, 92
2, 321024, Note_on_c, 0, 53, 92
2, 321151, Note_on_c, 0, 69, 0
2, 321152, Note_on_c, 0, 68, 92
2, 321308, Note_on_c, 0, 68, 0
2, 321308, Note_on_c, 0, 53, 0
2, 321308, Note_on_c, 0, 59, 0
2, 321308, Note_on_c, 0, 62, 0
2, 321319, Note_on_c, 0, 65, 92
2, 321319, Note_on_c, 0, 69, 92
2, 321319, Note_on_c, 0, 50, 92
2, 321319, Note_on_c, 0, 60, 92
2, 321407, Note_on_c, 0, 60, 0
2, 321407, Note_on_c, 0, 65, 0
2, 321407, Note_on_c, 0, 69, 0
2, 321407, Note_on_c, 0, 50, 0
2, 321408, Note_on_c, 0, 64, 92
2, 321408, Note_on_c, 0, 69, 92
2, 321408, Note_on_c, 0, 59, 92
2, 321408, Note_on_c, 0, 52, 92
2, 321829, Note_on_c, 0, 69, 0
2, 321830, Note_on_c, 0, 68, 92
2, 321867, Note_on_c, 0, 68, 0
2, 321868, Note_on_c, 0, 69, 92
2, 321905, Note_on_c, 0, 69, 0
2, 321906, Note_on_c, 0, 68, 92
2, 321943, Note_on_c, 0, 68, 0
2, 321944, Note_on_c, 0, 69, 92
2, 321981, Note_on_c, 0, 69, 0
2, 321982, Note_on_c, 0, 68, 92
2, 322019, Note_on_c, 0, 68, 0
2, 322020, Note_on_c, 0, 66, 92
2, 322057, Note_on_c, 0, 66, 0
2, 322058, Note_on_c, 0, 68, 92
2, 322091, Note_on_c, 0, 64, 0
2, 322095, Note_on_c, 0, 68, 0
2, 322096, Note_on_c, 0, 66, 92
2, 322133, Note_on_c, 0, 66, 0
2, 322134, Note_on_c, 0, 64, 92
2, 322175, Note_on_c, 0, 64, 0
2, 322175, Note_on_c, 0, 59, 0
2, 322175, Note_on_c, 0, 52, 0
2, 322176, Note_on_c, 0, 62, 92
2, 322176, Note_on_c, 0, 59, 92
2, 322177, Note_on_c, 0, 65, 92
2, 322178, Note_on_c, 0, 71, 92
2, 322179, Note_on_c, 0, 74, 92
2, 322180, Note_on_c, 0, 77, 92
2, 322493, Note_on_c, 0, 77, 0
2, 322496, Note_on_c, 0, 77, 92
2, 322497, Note_on_c, 0, 71, 0
2, 322498, Note_on_c, 0, 74, 0
2, 322559, Note_on_c, 0, 59, 0
2, 322559, Note_on_c, 0, 62, 0
2, 322559, Note_on_c, 0, 77, 0
2, 322560, Note_on_c, 0, 65, 0
2, 322560, Note_on_c, 0, 77, 92
2, 322560, Note_on_c, 0, 74, 92
2, 322560, Note_on_c, 0, 71, 92
2, 322560, Note_on_c, 0, 68, 92
2, 322560, Note_on_c, 0, 60, 92
2, 322943, Note_on_c, 0, 68, 0
2, 322943, Note_on_c, 0, 71, 0
2, 322943, Note_on_c, 0, 77, 0
2, 322943, Note_on_c, 0, 74, 0
2, 322944, Note_on_c, 0, 76, 92
2, 322944, Note_on_c, 0, 72, 92
2, 322944, Note_on_c, 0, 69, 92
2, 323001, Note_on_c, 0, 72, 0
2, 323002, Note_on_c, 0, 74, 92
2, 323049, Note_on_c, 0, 74, 0
2, 323050, Note_on_c, 0, 72, 92
2, 323097, Note_on_c, 0, 72, 0
2, 323098, Note_on_c, 0, 71, 92
2, 323134, Note_on_c, 0, 69, 0
2, 323135, Note_on_c, 0, 60, 0
2, 323145, Note_on_c, 0, 71, 0
2, 323146, Note_on_c, 0, 72, 92
2, 323238, Note_on_c, 0, 72, 0
2, 323239, Note_on_c, 0, 69, 92
2, 323327, Note_on_c, 0, 69, 0
2, 323328, Note_on_c, 0, 70, 92
2, 323423, Note_on_c, 0, 70, 0
2, 323424, Note_on_c, 0, 67, 92
2, 323520, Note_on_c, 0, 61, 92
2, 323623, Note_on_c, 0, 64, 92
2, 323711, Note_on_c, 0, 64, 0
2, 323711, Note_on_c, 0, 76, 0
2, 323712, Note_on_c, 0, 53, 92
2, 323759, Note_on_c, 0, 67, 0
2, 323760, Note_on_c, 0, 70, 92
2, 323807, Note_on_c, 0, 70, 0
2, 323808, Note_on_c, 0, 69, 92
2, 323855, Note_on_c, 0, 69, 0
2, 323856, Note_on_c, 0, 67, 92
2, 323903, Note_on_c, 0, 67, 0
2, 323904, Note_on_c, 0, 73, 92
2, 323952, Note_on_c, 0, 70, 92
2, 323999, Note_on_c, 0, 70, 0
2, 324000, Note_on_c, 0, 61, 0
2, 324000, Note_on_c, 0, 69, 92
2, 324000, Note_on_c, 0, 64, 92
2, 324047, Note_on_c, 0, 69, 0
2, 324048, Note_on_c, 0, 67, 92
2, 324094, Note_on_c, 0, 73, 0
2, 324095, Note_on_c, 0, 64, 0
2, 324095, Note_on_c, 0, 67, 0
2, 324096, Note_on_c, 0, 65, 92
2, 324096, Note_on_c, 0, 57, 92
2, 324144, Note_on_c, 0, 67, 92
2, 324191, Note_on_c, 0, 67, 0
2, 324192, Note_on_c, 0, 69, 92
2, 324286, Note_on_c, 0, 65, 0
2, 324288, Note_on_c, 0, 74, 92
2, 324382, Note_on_c, 0, 69, 0
2, 324431, Note_on_c, 0, 74, 0
2, 324432, Note_on_c, 0, 71, 92
2, 324479, Note_on_c, 0, 57, 0
2, 324479, Note_on_c, 0, 53, 0
2, 324480, Note_on_c, 0, 54, 92
2, 324510, Note_on_c, 0, 57, 92
2, 324540, Note_on_c, 0, 60, 92
2, 324570, Note_on_c, 0, 63, 92
2, 324599, Note_on_c, 0, 71, 0
2, 324600, Note_on_c, 0, 66, 92
2, 324630, Note_on_c, 0, 69, 92
2, 324660, Note_on_c, 0, 72, 92
2, 324780, Note_on_c, 0, 72, 0
2, 324800, Note_on_c, 0, 72, 92
2, 324860, Note_on_c, 0, 66, 0
2, 324860, Note_on_c, 0, 60, 0
2, 324860, Note_on_c, 0, 57, 0
2, 324860, Note_on_c, 0, 63, 0
2, 324860, Note_on_c, 0, 54, 0
2, 324860, Note_on_c, 0, 69, 0
2, 324863, Note_on_c, 0, 72, 0
2, 324864, Note_on_c, 0, 72, 92
2, 324864, Note_on_c, 0, 69, 92
2, 324864, Note_on_c, 0, 66, 92
2, 324864, Note_on_c, 0, 63, 92
2, 324864, Note_on_c, 0, 55, 92
2, 325151, Note_on_c, 0, 63, 0
2, 325152, Note_on_c, 0, 64, 92
2, 325199, Note_on_c, 0, 64, 0
2, 325200, Note_on_c, 0, 63, 92
2, 325247, Note_on_c, 0, 63, 0
2, 325247, Note_on_c, 0, 66, 0
2, 325247, Note_on_c, 0, 72, 0
2, 325247, Note_on_c, 0, 69, 0
2, 325248, Note_on_c, 0, 71, 92
2, 325248, Note_on_c, 0, 67, 92
2, 325248, Note_on_c, 0, 64, 92
2, 325295, Note_on_c, 0, 67, 0
2, 325296, Note_on_c, 0, 69, 92
2, 325343, Note_on_c, 0, 69, 0
2, 325344, Note_on_c, 0, 67, 92
2, 325391, Note_on_c, 0, 67, 0
2, 325392, Note_on_c, 0, 66, 92
2, 325438, Note_on_c, 0, 64, 0
2, 325439, Note_on_c, 0, 66, 0
2, 325440, Note_on_c, 0, 67, 92
2, 325535, Note_on_c, 0, 67, 0
2, 325536, Note_on_c, 0, 66, 92
2, 325583, Note_on_c, 0, 66, 0
2, 325584, Note_on_c, 0, 64, 92
2, 325631, Note_on_c, 0, 64, 0
2, 325631, Note_on_c, 0, 55, 0
2, 325632, Note_on_c, 0, 62, 92
2, 325680, Note_on_c, 0, 64, 92
2, 325727, Note_on_c, 0, 64, 0
2, 325728, Note_on_c, 0, 65, 92
2, 325728, Note_on_c, 0, 59, 92
2, 325775, Note_on_c, 0, 59, 0
2, 325776, Note_on_c, 0, 57, 92
2, 325823, Note_on_c, 0, 57, 0
2, 325824, Note_on_c, 0, 56, 92
2, 325872, Note_on_c, 0, 57, 92
2, 325919, Note_on_c, 0, 57, 0
2, 325920, Note_on_c, 0, 59, 92
2, 326012, Note_on_c, 0, 62, 0
2, 326015, Note_on_c, 0, 59, 0
2, 326016, Note_on_c, 0, 48, 92
2, 326063, Note_on_c, 0, 65, 0
2, 326064, Note_on_c, 0, 62, 92
2, 326104, Note_on_c, 0, 56, 0
2, 326111, Note_on_c, 0, 62, 0
2, 326112, Note_on_c, 0, 60, 92
2, 326159, Note_on_c, 0, 60, 0
2, 326160, Note_on_c, 0, 59, 92
2, 326207, Note_on_c, 0, 59, 0
2, 326208, Note_on_c, 0, 60, 92
2, 326208, Note_on_c, 0, 57, 92
2, 326348, Note_on_c, 0, 71, 0
2, 326351, Note_on_c, 0, 60, 0
2, 326352, Note_on_c, 0, 64, 92
2, 326399, Note_on_c, 0, 64, 0
2, 326400, Note_on_c, 0, 69, 92
2, 326513, Note_on_c, 0, 69, 0
2, 326514, Note_on_c, 0, 71, 92
2, 326539, Note_on_c, 0, 71, 0
2, 326540, Note_on_c, 0, 69, 92
2, 326565, Note_on_c, 0, 69, 0
2, 326566, Note_on_c, 0, 68, 92
2, 326591, Note_on_c, 0, 68, 0
2, 326592, Note_on_c, 0, 69, 92
2, 326638, Note_on_c, 0, 57, 0
2, 326645, Note_on_c, 0, 48, 0
2, 326687, Note_on_c, 0, 69, 0
2, 326688, Note_on_c, 0, 64, 92
2, 326688, Note_on_c, 0, 56, 92
2, 326688, Note_on_c, 0, 52, 92
2, 326735, Note_on_c, 0, 64, 0
2, 326736, Note_on_c, 0, 71, 92
2, 326783, Note_on_c, 0, 71, 0
2, 326783, Note_on_c, 0, 52, 0
2, 326783, Note_on_c, 0, 56, 0
2, 326784, Note_on_c, 0, 72, 92
2, 326784, Note_on_c, 0, 57, 92
2, 326903, Note_on_c, 0, 72, 0
2, 326904, Note_on_c, 0, 74, 92
2, 326927, Note_on_c, 0, 74, 0
2, 326928, Note_on_c, 0, 72, 92
2, 326951, Note_on_c, 0, 72, 0
2, 326952, Note_on_c, 0, 71, 92
2, 326975, Note_on_c, 0, 71, 0
2, 326976, Note_on_c, 0, 72, 92
2, 327071, Note_on_c, 0, 72, 0
2, 327072, Note_on_c, 0, 69, 92
2, 327072, Note_on_c, 0, 55, 92
2, 327119, Note_on_c, 0, 69, 0
2, 327120, Note_on_c, 0, 73, 92
2, 327167, Note_on_c, 0, 73, 0
2, 327167, Note_on_c, 0, 55, 0
2, 327168, Note_on_c, 0, 74, 92
2, 327168, Note_on_c, 0, 53, 92
2, 327287, Note_on_c, 0, 74, 0
2, 327288, Note_on_c, 0, 76, 92
2, 327311, Note_on_c, 0, 76, 0
2, 327312, Note_on_c, 0, 74, 92
2, 327335, Note_on_c, 0, 74, 0
2, 327336, Note_on_c, 0, 73, 92
2, 327359, Note_on_c, 0, 73, 0
2, 327360, Note_on_c, 0, 74, 92
2, 327454, Note_on_c, 0, 57, 0
2, 327455, Note_on_c, 0, 74, 0
2, 327455, Note_on_c, 0, 53, 0
2, 327456, Note_on_c, 0, 69, 92
2, 327456, Note_on_c, 0, 61, 92
2, 327456, Note_on_c, 0, 57, 92
2, 327503, Note_on_c, 0, 69, 0
2, 327504, Note_on_c, 0, 76, 92
2, 327551, Note_on_c, 0, 76, 0
2, 327551, Note_on_c, 0, 57, 0
2, 327551, Note_on_c, 0, 61, 0
2, 327552, Note_on_c, 0, 77, 92
2, 327552, Note_on_c, 0, 62, 92
2, 327671, Note_on_c, 0, 77, 0
2, 327672, Note_on_c, 0, 79, 92
2, 327695, Note_on_c, 0, 79, 0
2, 327696, Note_on_c, 0, 77, 92
2, 327719, Note_on_c, 0, 77, 0
2, 327720, Note_on_c, 0, 76, 92
2, 327743, Note_on_c, 0, 76, 0
2, 327744, Note_on_c, 0, 77, 92
2, 327839, Note_on_c, 0, 77, 0
2, 327840, Note_on_c, 0, 74, 92
2, 327840, Note_on_c, 0, 60, 92
2, 327887, Note_on_c, 0, 74, 0
2, 327888, Note_on_c, 0, 78, 92
2, 327935, Note_on_c, 0, 78, 0
2, 327935, Note_on_c, 0, 60, 0
2, 327936, Note_on_c, 0, 80, 92
2, 327936, Note_on_c, 0, 59, 92
2, 328055, Note_on_c, 0, 80, 0
2, 328056, Note_on_c, 0, 81, 92
2, 328079, Note_on_c, 0, 81, 0
2, 328080, Note_on_c, 0, 80, 92
2, 328103, Note_on_c, 0, 80, 0
2, 328104, Note_on_c, 0, 78, 92
2, 328127, Note_on_c, 0, 78, 0
2, 328128, Note_on_c, 0, 80, 92
2, 328223, Note_on_c, 0, 80, 0
2, 328223, Note_on_c, 0, 59, 0
2, 328224, Note_on_c, 0, 74, 92
2, 328224, Note_on_c, 0, 57, 92
2, 328271, Note_on_c, 0, 74, 0
2, 328272, Note_on_c, 0, 81, 92
2, 328319, Note_on_c, 0, 81, 0
2, 328319, Note_on_c, 0, 57, 0
2, 328320, Note_on_c, 0, 81, 92
2, 328320, Note_on_c, 0, 56, 92
2, 328479, Note_on_c, 0, 81, 0
2, 328480, Note_on_c, 0, 83, 92
2, 328512, Note_on_c, 0, 62, 0
2, 328560, Note_on_c, 0, 60, 92
2, 328607, Note_on_c, 0, 60, 0
2, 328607, Note_on_c, 0, 83, 0
2, 328608, Note_on_c, 0, 77, 92
2, 328608, Note_on_c, 0, 59, 92
2, 328655, Note_on_c, 0, 59, 0
2, 328656, Note_on_c, 0, 57, 92
2, 328660, Note_on_c, 0, 56, 0
2, 328703, Note_on_c, 0, 57, 0
2, 328703, Note_on_c, 0, 77, 0
2, 328704, Note_on_c, 0, 77, 92
2, 328704, Note_on_c, 0, 57, 92
2, 328735, Note_on_c, 0, 57, 0
2, 328736, Note_on_c, 0, 56, 92
2, 328767, Note_on_c, 0, 56, 0
2, 328768, Note_on_c, 0, 57, 92
2, 328799, Note_on_c, 0, 57, 0
2, 328800, Note_on_c, 0, 56, 92
2, 328831, Note_on_c, 0, 77, 0
2, 328832, Note_on_c, 0, 76, 92
2, 328977, Note_on_c, 0, 76, 0
2, 328977, Note_on_c, 0, 56, 0
2, 328978, Note_on_c, 0, 77, 92
2, 328978, Note_on_c, 0, 52, 92
2, 328978, Note_on_c, 0, 56, 92
2, 328978, Note_on_c, 0, 64, 92
2, 329032, Note_on_c, 0, 77, 0
2, 329033, Note_on_c, 0, 74, 92
2, 329087, Note_on_c, 0, 74, 0
2, 329087, Note_on_c, 0, 64, 0
2, 329087, Note_on_c, 0, 56, 0
2, 329087, Note_on_c, 0, 52, 0
2, 329088, Note_on_c, 0, 72, 92
2, 329088, Note_on_c, 0, 57, 92
2, 329205, Note_on_c, 0, 72, 0
2, 329206, Note_on_c, 0, 76, 92
2, 329231, Note_on_c, 0, 76, 0
2, 329232, Note_on_c, 0, 74, 92
2, 329257, Note_on_c, 0, 74, 0
2, 329258, Note_on_c, 0, 72, 92
2, 329293, Note_on_c, 0, 72, 0
2, 329294, Note_on_c, 0, 74, 92
2, 329357, Note_on_c, 0, 74, 0
2, 329357, Note_on_c, 0, 57, 0
2, 329358, Note_on_c, 0, 76, 92
2, 329358, Note_on_c, 0, 59, 92
2, 329358, Note_on_c, 0, 55, 92
2, 329414, Note_on_c, 0, 76, 0
2, 329415, Note_on_c, 0, 77, 92
2, 329471, Note_on_c, 0, 77, 0
2, 329471, Note_on_c, 0, 55, 0
2, 329471, Note_on_c, 0, 59, 0
2, 329472, Note_on_c, 0, 62, 92
2, 329472, Note_on_c, 0, 69, 92
2, 329472, Note_on_c, 0, 59, 92
2, 329472, Note_on_c, 0, 53, 92
2, 329599, Note_on_c, 0, 69, 0
2, 329600, Note_on_c, 0, 68, 92
2, 329766, Note_on_c, 0, 68, 0
2, 329766, Note_on_c, 0, 53, 0
2, 329766, Note_on_c, 0, 59, 0
2, 329766, Note_on_c, 0, 62, 0
2, 329767, Note_on_c, 0, 65, 92
2, 329767, Note_on_c, 0, 69, 92
2, 329767, Note_on_c, 0, 60, 92
2, 329767, Note_on_c, 0, 50, 92
2, 329855, Note_on_c, 0, 50, 0
2, 329855, Note_on_c, 0, 65, 0
2, 329855, Note_on_c, 0, 69, 0
2, 329855, Note_on_c, 0, 60, 0
2, 329856, Note_on_c, 0, 71, 92
2, 329856, Note_on_c, 0, 65, 92
2, 329856, Note_on_c, 0, 52, 92
2, 329856, Note_on_c, 0, 57, 92
2, 329903, Note_on_c, 0, 71, 0
2, 329904, Note_on_c, 0, 72, 92
2, 329951, Note_on_c, 0, 72, 0
2, 329952, Note_on_c, 0, 74, 92
2, 330150, Note_on_c, 0, 74, 0
2, 330150, Note_on_c, 0, 65, 0
2, 330151, Note_on_c, 0, 64, 92
2, 330151, Note_on_c, 0, 72, 92
2, 330239, Note_on_c, 0, 72, 0
2, 330239, Note_on_c, 0, 64, 0
2, 330239, Note_on_c, 0, 57, 0
2, 330240, Note_on_c, 0, 72, 92
2, 330240, Note_on_c, 0, 62, 92
2, 330240, Note_on_c, 0, 56, 92
2, 330303, Note_on_c, 0, 72, 0
2, 330304, Note_on_c, 0, 71, 92
2, 330335, Note_on_c, 0, 71, 0
2, 330336, Note_on_c, 0, 72, 92
2, 330367, Note_on_c, 0, 72, 0
2, 330368, Note_on_c, 0, 71, 92
2, 330399, Note_on_c, 0, 71, 0
2, 330400, Note_on_c, 0, 72, 92
2, 330431, Note_on_c, 0, 72, 0
2, 330432, Note_on_c, 0, 71, 92
2, 330534, Note_on_c, 0, 71, 0
2, 330534, Note_on_c, 0, 62, 0
2, 330535, Note_on_c, 0, 60, 92
2, 330535, Note_on_c, 0, 69, 92
2, 330623, Note_on_c, 0, 69, 0
2, 330623, Note_on_c, 0, 56, 0
2, 330623, Note_on_c, 0, 52, 0
2, 330623, Note_on_c, 0, 60, 0
2, 330624, Note_on_c, 0, 60, 92
2, 330624, Note_on_c, 0, 69, 92
2, 330624, Note_on_c, 0, 64, 92
2, 330624, Note_on_c, 0, 57, 92
2, 330864, Note_on_c, 0, 53, 92
2, 330911, Note_on_c, 0, 53, 0
2, 330912, Note_on_c, 0, 52, 92
2, 330959, Note_on_c, 0, 52, 0
2, 330960, Note_on_c, 0, 50, 92
2, 331007, Note_on_c, 0, 50, 0
2, 331008, Note_on_c, 0, 52, 92
2, 331055, Note_on_c, 0, 52, 0
2, 331056, Note_on_c, 0, 50, 92
2, 331103, Note_on_c, 0, 50, 0
2, 331104, Note_on_c, 0, 48, 92
2, 331151, Note_on_c, 0, 48, 0
2, 331152, Note_on_c, 0, 50, 92
2, 331199, Note_on_c, 0, 50, 0
2, 331200, Note_on_c, 0, 52, 92
2, 331247, Note_on_c, 0, 52, 0
2, 331248, Note_on_c, 0, 48, 92
2, 331281, Note_on_c, 0, 64, 0
2, 331281, Note_on_c, 0, 60, 0
2, 331281, Note_on_c, 0, 69, 0
2, 331295, Note_on_c, 0, 48, 0
2, 331296, Note_on_c, 0, 50, 92
2, 331343, Note_on_c, 0, 50, 0
2, 331344, Note_on_c, 0, 52, 92
2, 331384, Note_on_c, 0, 57, 0
2, 331391, Note_on_c, 0, 52, 0
2, 331392, Note_on_c, 0, 72, 92
2, 331392, Note_on_c, 0, 69, 92
2, 331392, Note_on_c, 0, 60, 92
2, 331392, Note_on_c, 0, 64, 92
2, 331392, Note_on_c, 0, 57, 92
2, 331392, Note_on_c, 0, 45, 92
2, 331392, Note_on_c, 0, 52, 92
2, 331392, Note_on_c, 0, 48, 92
2, 331695, Note_on_c, 0, 57, 0
2, 331695, Note_on_c, 0, 72, 0
2, 331696, Note_on_c, 0, 72, 92
2, 331696, Note_on_c, 0, 57, 92
2, 331752, Note_on_c, 0, 69, 0
2, 331752, Note_on_c, 0, 64, 0
2, 331752, Note_on_c, 0, 60, 0
2, 331762, Note_on_c, 0, 48, 0
2, 331762, Note_on_c, 0, 52, 0
2, 331762, Note_on_c, 0, 45, 0
2, 331775, Note_on_c, 0, 57, 0
2, 331775, Note_on_c, 0, 72, 0
2, 331776, Note_on_c, 0, 72, 92
2, 331776, Note_on_c, 0, 66, 92
2, 331776, Note_on_c, 0, 57, 92
2, 331776, Note_on_c, 0, 51, 92
2, 331883, Note_on_c, 0, 72, 0
2, 331884, Note_on_c, 0, 74, 92
2, 331911, Note_on_c, 0, 74, 0
2, 331912, Note_on_c, 0, 72, 92
2, 331939, Note_on_c, 0, 72, 0
2, 331940, Note_on_c, 0, 71, 92
2, 331967, Note_on_c, 0, 71, 0
2, 331968, Note_on_c, 0, 72, 92
2, 332015, Note_on_c, 0, 72, 0
2, 332016, Note_on_c, 0, 69, 92
2, 332063, Note_on_c, 0, 69, 0
2, 332064, Note_on_c, 0, 71, 92
2, 332159, Note_on_c, 0, 71, 0
2, 332160, Note_on_c, 0, 71, 92
2, 332399, Note_on_c, 0, 71, 0
2, 332400, Note_on_c, 0, 73, 92
2, 332447, Note_on_c, 0, 73, 0
2, 332448, Note_on_c, 0, 75, 92
2, 332495, Note_on_c, 0, 75, 0
2, 332496, Note_on_c, 0, 76, 92
2, 332543, Note_on_c, 0, 76, 0
2, 332543, Note_on_c, 0, 66, 0
2, 332543, Note_on_c, 0, 57, 0
2, 332543, Note_on_c, 0, 51, 0
2, 332544, Note_on_c, 0, 78, 92
2, 332591, Note_on_c, 0, 78, 0
2, 332592, Note_on_c, 0, 79, 92
2, 332639, Note_on_c, 0, 79, 0
2, 332640, Note_on_c, 0, 81, 92
2, 332735, Note_on_c, 0, 81, 0
2, 332736, Note_on_c, 0, 81, 92
2, 332767, Note_on_c, 0, 81, 0
2, 332768, Note_on_c, 0, 79, 92
2, 332799, Note_on_c, 0, 79, 0
2, 332800, Note_on_c, 0, 81, 92
2, 332831, Note_on_c, 0, 81, 0
2, 332832, Note_on_c, 0, 79, 92
2, 332879, Note_on_c, 0, 79, 0
2, 332880, Note_on_c, 0, 78, 92
2, 332927, Note_on_c, 0, 78, 0
2, 332928, Note_on_c, 0, 78, 92
2, 332928, Note_on_c, 0, 52, 92
2, 332930, Note_on_c, 0, 55, 92
2, 332932, Note_on_c, 0, 59, 92
2, 332934, Note_on_c, 0, 64, 92
2, 333023, Note_on_c, 0, 78, 0
2, 333024, Note_on_c, 0, 79, 92
2, 333167, Note_on_c, 0, 79, 0
2, 333168, Note_on_c, 0, 78, 92
2, 333215, Note_on_c, 0, 78, 0
2, 333216, Note_on_c, 0, 76, 92
2, 333263, Note_on_c, 0, 76, 0
2, 333264, Note_on_c, 0, 75, 92
2, 333311, Note_on_c, 0, 75, 0
2, 333312, Note_on_c, 0, 76, 92
2, 333407, Note_on_c, 0, 76, 0
2, 333408, Note_on_c, 0, 79, 92
2, 333455, Note_on_c, 0, 79, 0
2, 333456, Note_on_c, 0, 70, 92
2, 333503, Note_on_c, 0, 70, 0
2, 333504, Note_on_c, 0, 71, 92
2, 333599, Note_on_c, 0, 71, 0
2, 333600, Note_on_c, 0, 76, 92
2, 333647, Note_on_c, 0, 76, 0
2, 333648, Note_on_c, 0, 66, 92
2, 333695, Note_on_c, 0, 66, 0
2, 333695, Note_on_c, 0, 52, 0
2, 333696, Note_on_c, 0, 67, 92
2, 333697, Note_on_c, 0, 55, 0
2, 333699, Note_on_c, 0, 59, 0
2, 333701, Note_on_c, 0, 64, 0
2, 333791, Note_on_c, 0, 67, 0
2, 333792, Note_on_c, 0, 71, 92
2, 333839, Note_on_c, 0, 71, 0
2, 333840, Note_on_c, 0, 63, 92
2, 333887, Note_on_c, 0, 63, 0
2, 333888, Note_on_c, 0, 64, 92
2, 333983, Note_on_c, 0, 64, 0
2, 333984, Note_on_c, 0, 67, 92
2, 334031, Note_on_c, 0, 67, 0
2, 334032, Note_on_c, 0, 59, 92
2, 334078, Note_on_c, 0, 59, 0
2, 334080, Note_on_c, 0, 59, 92
2, 334080, Note_on_c, 0, 49, 92
2, 334080, Note_on_c, 0, 52, 92
2, 334207, Note_on_c, 0, 59, 0
2, 334208, Note_on_c, 0, 58, 92
2, 334368, Note_on_c, 0, 78, 92
2, 334415, Note_on_c, 0, 78, 0
2, 334416, Note_on_c, 0, 79, 92
2, 334463, Note_on_c, 0, 79, 0
2, 334464, Note_on_c, 0, 81, 92
2, 334495, Note_on_c, 0, 81, 0
2, 334496, Note_on_c, 0, 79, 92
2, 334527, Note_on_c, 0, 79, 0
2, 334528, Note_on_c, 0, 81, 92
2, 334559, Note_on_c, 0, 81, 0
2, 334560, Note_on_c, 0, 79, 92
2, 334591, Note_on_c, 0, 79, 0
2, 334592, Note_on_c, 0, 81, 92
2, 334623, Note_on_c, 0, 81, 0
2, 334624, Note_on_c, 0, 79, 92
2, 334655, Note_on_c, 0, 79, 0
2, 334656, Note_on_c, 0, 81, 92
2, 334687, Note_on_c, 0, 81, 0
2, 334688, Note_on_c, 0, 79, 92
2, 334719, Note_on_c, 0, 79, 0
2, 334720, Note_on_c, 0, 52, 0
2, 334720, Note_on_c, 0, 49, 0
2, 334720, Note_on_c, 0, 81, 92
2, 334725, Note_on_c, 0, 58, 0
2, 334751, Note_on_c, 0, 81, 0
2, 334752, Note_on_c, 0, 79, 92
2, 334752, Note_on_c, 0, 57, 92
2, 334752, Note_on_c, 0, 48, 92
2, 334752, Note_on_c, 0, 52, 92
2, 334783, Note_on_c, 0, 79, 0
2, 334784, Note_on_c, 0, 78, 92
2, 334815, Note_on_c, 0, 78, 0
2, 334816, Note_on_c, 0, 79, 92
2, 334847, Note_on_c, 0, 79, 0
2, 334847, Note_on_c, 0, 57, 0
2, 334847, Note_on_c, 0, 48, 0
2, 334847, Note_on_c, 0, 52, 0
2, 334848, Note_on_c, 0, 81, 92
2, 334848, Note_on_c, 0, 57, 92
2, 334848, Note_on_c, 0, 52, 92
2, 334848, Note_on_c, 0, 48, 92
2, 334877, Note_on_c, 0, 81, 0
2, 334878, Note_on_c, 0, 79, 92
2, 334907, Note_on_c, 0, 79, 0
2, 334908, Note_on_c, 0, 81, 92
2, 334937, Note_on_c, 0, 81, 0
2, 334938, Note_on_c, 0, 79, 92
2, 334967, Note_on_c, 0, 79, 0
2, 334968, Note_on_c, 0, 81, 92
2, 334997, Note_on_c, 0, 81, 0
2, 334998, Note_on_c, 0, 79, 92
2, 335027, Note_on_c, 0, 79, 0
2, 335028, Note_on_c, 0, 81, 92
2, 335057, Note_on_c, 0, 81, 0
2, 335058, Note_on_c, 0, 79, 92
2, 335087, Note_on_c, 0, 79, 0
2, 335088, Note_on_c, 0, 81, 92
2, 335117, Note_on_c, 0, 81, 0
2, 335118, Note_on_c, 0, 79, 92
2, 335125, Note_on_c, 0, 57, 0
2, 335125, Note_on_c, 0, 48, 0
2, 335125, Note_on_c, 0, 52, 0
2, 335136, Note_on_c, 0, 58, 92
2, 335136, Note_on_c, 0, 52, 92
2, 335136, Note_on_c, 0, 48, 92
2, 335147, Note_on_c, 0, 79, 0
2, 335148, Note_on_c, 0, 78, 92
2, 335177, Note_on_c, 0, 78, 0
2, 335178, Note_on_c, 0, 79, 92
2, 335207, Note_on_c, 0, 79, 0
2, 335208, Note_on_c, 0, 81, 92
2, 335231, Note_on_c, 0, 81, 0
2, 335231, Note_on_c, 0, 48, 0
2, 335231, Note_on_c, 0, 52, 0
2, 335231, Note_on_c, 0, 58, 0
2, 335232, Note_on_c, 0, 76, 92
2, 335232, Note_on_c, 0, 54, 92
2, 335232, Note_on_c, 0, 59, 92
2, 335232, Note_on_c, 0, 47, 92
2, 335423, Note_on_c, 0, 76, 0
2, 335424, Note_on_c, 0, 75, 92
2, 335567, Note_on_c, 0, 75, 0
2, 335568, Note_on_c, 0, 73, 92
2, 335612, Note_on_c, 0, 47, 0
2, 335612, Note_on_c, 0, 54, 0
2, 335612, Note_on_c, 0, 59, 0
2, 335615, Note_on_c, 0, 73, 0
2, 335616, Note_on_c, 0, 75, 92
2, 335638, Note_on_c, 0, 75, 0
2, 335639, Note_on_c, 0, 71, 92
2, 335664, Note_on_c, 0, 71, 0
2, 335665, Note_on_c, 0, 73, 92
2, 335691, Note_on_c, 0, 73, 0
2, 335692, Note_on_c, 0, 75, 92
2, 335719, Note_on_c, 0, 75, 0
2, 335720, Note_on_c, 0, 76, 92
2, 335746, Note_on_c, 0, 76, 0
2, 335747, Note_on_c, 0, 78, 92
2, 335773, Note_on_c, 0, 78, 0
2, 335774, Note_on_c, 0, 79, 92
2, 335799, Note_on_c, 0, 79, 0
2, 335800, Note_on_c, 0, 81, 92
2, 335824, Note_on_c, 0, 81, 0
2, 335827, Note_on_c, 0, 81, 92
2, 335862, Note_on_c, 0, 81, 0
2, 335863, Note_on_c, 0, 79, 92
2, 335897, Note_on_c, 0, 79, 0
2, 335898, Note_on_c, 0, 81, 92
2, 335934, Note_on_c, 0, 81, 0
2, 335935, Note_on_c, 0, 79, 92
2, 335987, Note_on_c, 0, 79, 0
2, 335988, Note_on_c, 0, 78, 92
2, 336041, Note_on_c, 0, 78, 0
2, 336042, Note_on_c, 0, 79, 92
2, 336095, Note_on_c, 0, 75, 92
2, 336150, Note_on_c, 0, 75, 0
2, 336151, Note_on_c, 0, 76, 92
2, 336202, Note_on_c, 0, 71, 92
2, 336256, Note_on_c, 0, 67, 92
2, 336281, Note_on_c, 0, 67, 0
2, 336282, Note_on_c, 0, 66, 92
2, 336308, Note_on_c, 0, 66, 0
2, 336309, Note_on_c, 0, 64, 92
2, 336338, Note_on_c, 0, 64, 0
2, 336339, Note_on_c, 0, 63, 92
2, 336364, Note_on_c, 0, 63, 0
2, 336365, Note_on_c, 0, 64, 92
2, 336415, Note_on_c, 0, 64, 0
2, 336416, Note_on_c, 0, 60, 92
2, 336422, Note_on_c, 0, 79, 0
2, 336431, Note_on_c, 0, 76, 0
2, 336432, Note_on_c, 0, 71, 0
2, 336472, Note_on_c, 0, 57, 92
2, 336496, Note_on_c, 0, 60, 0
2, 336498, Note_on_c, 0, 57, 0
2, 336499, Note_on_c, 0, 60, 92
2, 336526, Note_on_c, 0, 60, 0
2, 336527, Note_on_c, 0, 64, 92
2, 336552, Note_on_c, 0, 64, 0
2, 336553, Note_on_c, 0, 69, 92
2, 336577, Note_on_c, 0, 72, 92
2, 336603, Note_on_c, 0, 72, 0
2, 336604, Note_on_c, 0, 76, 92
2, 336630, Note_on_c, 0, 76, 0
2, 336631, Note_on_c, 0, 79, 92
2, 336660, Note_on_c, 0, 76, 92
2, 336685, Note_on_c, 0, 76, 0
2, 336686, Note_on_c, 0, 72, 92
2, 336720, Note_on_c, 0, 72, 0
2, 336721, Note_on_c, 0, 71, 92
2, 336757, Note_on_c, 0, 71, 0
2, 336758, Note_on_c, 0, 72, 92
2, 336788, Note_on_c, 0, 69, 0
2, 336793, Note_on_c, 0, 69, 92
2, 336828, Note_on_c, 0, 69, 0
2, 336829, Note_on_c, 0, 68, 92
2, 336864, Note_on_c, 0, 68, 0
2, 336865, Note_on_c, 0, 69, 92
2, 336891, Note_on_c, 0, 79, 0
2, 336898, Note_on_c, 0, 72, 0
2, 336900, Note_on_c, 0, 79, 92
2, 336900, Note_on_c, 0, 57, 92
2, 337007, Note_on_c, 0, 79, 0
2, 337008, Note_on_c, 0, 79, 92
2, 337034, Note_on_c, 0, 79, 0
2, 337035, Note_on_c, 0, 78, 92
2, 337062, Note_on_c, 0, 78, 0
2, 337063, Note_on_c, 0, 79, 92
2, 337088, Note_on_c, 0, 79, 0
2, 337089, Note_on_c, 0, 78, 92
2, 337145, Note_on_c, 0, 69, 0
2, 337221, Note_on_c, 0, 78, 0
2, 337222, Note_on_c, 0, 69, 92
2, 337343, Note_on_c, 0, 69, 0
2, 337343, Note_on_c, 0, 57, 0
2, 337344, Note_on_c, 0, 77, 92
2, 337344, Note_on_c, 0, 59, 92
2, 337391, Note_on_c, 0, 77, 0
2, 337392, Note_on_c, 0, 76, 92
2, 337439, Note_on_c, 0, 76, 0
2, 337440, Note_on_c, 0, 77, 92
2, 337487, Note_on_c, 0, 77, 0
2, 337488, Note_on_c, 0, 74, 92
2, 337536, Note_on_c, 0, 77, 92
2, 337583, Note_on_c, 0, 77, 0
2, 337584, Note_on_c, 0, 79, 92
2, 337631, Note_on_c, 0, 79, 0
2, 337632, Note_on_c, 0, 67, 92
2, 337632, Note_on_c, 0, 81, 92
2, 337655, Note_on_c, 0, 81, 0
2, 337656, Note_on_c, 0, 79, 92
2, 337679, Note_on_c, 0, 79, 0
2, 337680, Note_on_c, 0, 77, 92
2, 337727, Note_on_c, 0, 77, 0
2, 337727, Note_on_c, 0, 59, 0
2, 337728, Note_on_c, 0, 79, 92
2, 337728, Note_on_c, 0, 60, 92
2, 337759, Note_on_c, 0, 79, 0
2, 337760, Note_on_c, 0, 77, 92
2, 337791, Note_on_c, 0, 77, 0
2, 337792, Note_on_c, 0, 76, 92
2, 337823, Note_on_c, 0, 76, 0
2, 337824, Note_on_c, 0, 77, 92
2, 337855, Note_on_c, 0, 77, 0
2, 337856, Note_on_c, 0, 79, 92
2, 337868, Note_on_c, 0, 74, 0
2, 337887, Note_on_c, 0, 79, 0
2, 337888, Note_on_c, 0, 77, 92
2, 337962, Note_on_c, 0, 67, 0
2, 337967, Note_on_c, 0, 77, 0
2, 337968, Note_on_c, 0, 76, 92
2, 338015, Note_on_c, 0, 76, 0
2, 338016, Note_on_c, 0, 77, 92
2, 338063, Note_on_c, 0, 77, 0
2, 338064, Note_on_c, 0, 79, 92
2, 338111, Note_on_c, 0, 79, 0
2, 338112, Note_on_c, 0, 72, 92
2, 338112, Note_on_c, 0, 76, 92
2, 338159, Note_on_c, 0, 72, 0
2, 338160, Note_on_c, 0, 71, 92
2, 338207, Note_on_c, 0, 71, 0
2, 338208, Note_on_c, 0, 69, 92
2, 338255, Note_on_c, 0, 69, 0
2, 338256, Note_on_c, 0, 68, 92
2, 338303, Note_on_c, 0, 68, 0
2, 338304, Note_on_c, 0, 69, 92
2, 338447, Note_on_c, 0, 69, 0
2, 338447, Note_on_c, 0, 60, 0
2, 338448, Note_on_c, 0, 72, 92
2, 338448, Note_on_c, 0, 59, 92
2, 338492, Note_on_c, 0, 76, 0
2, 338495, Note_on_c, 0, 59, 0
2, 338495, Note_on_c, 0, 72, 0
2, 338496, Note_on_c, 0, 76, 92
2, 338496, Note_on_c, 0, 57, 92
2, 338544, Note_on_c, 0, 74, 92
2, 338591, Note_on_c, 0, 74, 0
2, 338592, Note_on_c, 0, 72, 92
2, 338639, Note_on_c, 0, 72, 0
2, 338640, Note_on_c, 0, 71, 92
2, 338687, Note_on_c, 0, 71, 0
2, 338688, Note_on_c, 0, 72, 92
2, 338816, Note_on_c, 0, 57, 0
2, 338832, Note_on_c, 0, 76, 92
2, 338832, Note_on_c, 0, 64, 92
2, 338832, Note_on_c, 0, 55, 92
2, 338835, Note_on_c, 0, 76, 0
2, 338879, Note_on_c, 0, 64, 0
2, 338879, Note_on_c, 0, 55, 0
2, 338879, Note_on_c, 0, 76, 0
2, 338880, Note_on_c, 0, 81, 92
2, 338880, Note_on_c, 0, 64, 92
2, 338880, Note_on_c, 0, 53, 92
2, 338968, Note_on_c, 0, 72, 0
2, 338976, Note_on_c, 0, 71, 92
2, 339023, Note_on_c, 0, 71, 0
2, 339024, Note_on_c, 0, 72, 92
2, 339071, Note_on_c, 0, 72, 0
2, 339072, Note_on_c, 0, 74, 92
2, 339119, Note_on_c, 0, 74, 0
2, 339120, Note_on_c, 0, 72, 92
2, 339167, Note_on_c, 0, 72, 0
2, 339168, Note_on_c, 0, 71, 92
2, 339215, Note_on_c, 0, 71, 0
2, 339216, Note_on_c, 0, 72, 92
2, 339260, Note_on_c, 0, 81, 0
2, 339263, Note_on_c, 0, 64, 0
2, 339264, Note_on_c, 0, 64, 92
2, 339295, Note_on_c, 0, 64, 0
2, 339296, Note_on_c, 0, 63, 92
2, 339312, Note_on_c, 0, 81, 92
2, 339327, Note_on_c, 0, 63, 0
2, 339328, Note_on_c, 0, 64, 92
2, 339359, Note_on_c, 0, 64, 0
2, 339359, Note_on_c, 0, 81, 0
2, 339360, Note_on_c, 0, 83, 92
2, 339360, Note_on_c, 0, 63, 92
2, 339406, Note_on_c, 0, 72, 0
2, 339407, Note_on_c, 0, 83, 0
2, 339408, Note_on_c, 0, 84, 92
2, 339455, Note_on_c, 0, 84, 0
2, 339456, Note_on_c, 0, 83, 92
2, 339503, Note_on_c, 0, 83, 0
2, 339504, Note_on_c, 0, 81, 92
2, 339551, Note_on_c, 0, 81, 0
2, 339552, Note_on_c, 0, 80, 92
2, 339599, Note_on_c, 0, 80, 0
2, 339600, Note_on_c, 0, 81, 92
2, 339630, Note_on_c, 0, 53, 0
2, 339647, Note_on_c, 0, 81, 0
2, 339647, Note_on_c, 0, 63, 0
2, 339648, Note_on_c, 0, 83, 92
2, 339648, Note_on_c, 0, 62, 92
2, 339648, Note_on_c, 0, 56, 92
2, 339679, Note_on_c, 0, 62, 0
2, 339680, Note_on_c, 0, 60, 92
2, 339696, Note_on_c, 0, 77, 92
2, 339711, Note_on_c, 0, 60, 0
2, 339712, Note_on_c, 0, 62, 92
2, 339743, Note_on_c, 0, 77, 0
2, 339744, Note_on_c, 0, 76, 92
2, 339791, Note_on_c, 0, 76, 0
2, 339792, Note_on_c, 0, 74, 92
2, 339839, Note_on_c, 0, 74, 0
2, 339840, Note_on_c, 0, 76, 92
2, 339983, Note_on_c, 0, 76, 0
2, 339983, Note_on_c, 0, 62, 0
2, 339984, Note_on_c, 0, 71, 92
2, 339984, Note_on_c, 0, 83, 92
2, 339984, Note_on_c, 0, 62, 92
2, 339988, Note_on_c, 0, 83, 0
2, 340028, Note_on_c, 0, 56, 0
2, 340031, Note_on_c, 0, 83, 0
2, 340031, Note_on_c, 0, 71, 0
2, 340031, Note_on_c, 0, 62, 0
2, 340032, Note_on_c, 0, 71, 92
2, 340032, Note_on_c, 0, 76, 92
2, 340032, Note_on_c, 0, 57, 92
2, 340079, Note_on_c, 0, 76, 0
2, 340080, Note_on_c, 0, 78, 92
2, 340127, Note_on_c, 0, 78, 0
2, 340128, Note_on_c, 0, 80, 92
2, 340223, Note_on_c, 0, 80, 0
2, 340224, Note_on_c, 0, 80, 92
2, 340255, Note_on_c, 0, 80, 0
2, 340256, Note_on_c, 0, 78, 92
2, 340287, Note_on_c, 0, 78, 0
2, 340288, Note_on_c, 0, 80, 92
2, 340319, Note_on_c, 0, 80, 0
2, 340320, Note_on_c, 0, 78, 92
2, 340367, Note_on_c, 0, 78, 0
2, 340368, Note_on_c, 0, 76, 92
2, 340412, Note_on_c, 0, 71, 0
2, 340415, Note_on_c, 0, 76, 0
2, 340416, Note_on_c, 0, 69, 92
2, 340416, Note_on_c, 0, 81, 92
2, 340416, Note_on_c, 0, 62, 92
2, 340447, Note_on_c, 0, 62, 0
2, 340448, Note_on_c, 0, 61, 92
2, 340479, Note_on_c, 0, 61, 0
2, 340480, Note_on_c, 0, 62, 92
2, 340511, Note_on_c, 0, 62, 0
2, 340512, Note_on_c, 0, 61, 92
2, 340607, Note_on_c, 0, 57, 0
2, 340608, Note_on_c, 0, 55, 92
2, 340655, Note_on_c, 0, 69, 0
2, 340655, Note_on_c, 0, 81, 0
2, 340656, Note_on_c, 0, 79, 92
2, 340703, Note_on_c, 0, 79, 0
2, 340704, Note_on_c, 0, 78, 92
2, 340751, Note_on_c, 0, 78, 0
2, 340752, Note_on_c, 0, 76, 92
2, 340792, Note_on_c, 0, 61, 0
2, 340799, Note_on_c, 0, 76, 0
2, 340799, Note_on_c, 0, 55, 0
2, 340800, Note_on_c, 0, 75, 92
2, 340800, Note_on_c, 0, 60, 92
2, 340800, Note_on_c, 0, 54, 92
2, 340847, Note_on_c, 0, 75, 0
2, 340848, Note_on_c, 0, 76, 92
2, 340895, Note_on_c, 0, 76, 0
2, 340896, Note_on_c, 0, 75, 92
2, 340943, Note_on_c, 0, 75, 0
2, 340944, Note_on_c, 0, 76, 92
2, 340991, Note_on_c, 0, 76, 0
2, 340991, Note_on_c, 0, 54, 0
2, 340991, Note_on_c, 0, 60, 0
2, 340992, Note_on_c, 0, 78, 92
2, 340992, Note_on_c, 0, 60, 92
2, 340992, Note_on_c, 0, 52, 92
2, 341029, Note_on_c, 0, 78, 0
2, 341030, Note_on_c, 0, 76, 92
2, 341058, Note_on_c, 0, 76, 0
2, 341059, Note_on_c, 0, 75, 92
2, 341079, Note_on_c, 0, 75, 0
2, 341080, Note_on_c, 0, 76, 92
2, 341131, Note_on_c, 0, 76, 0
2, 341132, Note_on_c, 0, 78, 92
2, 341183, Note_on_c, 0, 78, 0
2, 341183, Note_on_c, 0, 52, 0
2, 341183, Note_on_c, 0, 60, 0
2, 341184, Note_on_c, 0, 69, 92
2, 341184, Note_on_c, 0, 60, 92
2, 341184, Note_on_c, 0, 51, 92
2, 341303, Note_on_c, 0, 60, 0
2, 341304, Note_on_c, 0, 59, 92
2, 341327, Note_on_c, 0, 59, 0
2, 341328, Note_on_c, 0, 57, 92
2, 341351, Note_on_c, 0, 57, 0
2, 341352, Note_on_c, 0, 56, 92
2, 341375, Note_on_c, 0, 56, 0
2, 341376, Note_on_c, 0, 57, 92
2, 341478, Note_on_c, 0, 57, 0
2, 341479, Note_on_c, 0, 78, 92
2, 341479, Note_on_c, 0, 60, 92
2, 341564, Note_on_c, 0, 51, 0
2, 341564, Note_on_c, 0, 69, 0
2, 341567, Note_on_c, 0, 78, 0
2, 341567, Note_on_c, 0, 60, 0
2, 341568, Note_on_c, 0, 69, 92
2, 341568, Note_on_c, 0, 54, 92
2, 341687, Note_on_c, 0, 54, 0
2, 341688, Note_on_c, 0, 55, 92
2, 341711, Note_on_c, 0, 55, 0
2, 341712, Note_on_c, 0, 54, 92
2, 341735, Note_on_c, 0, 54, 0
2, 341736, Note_on_c, 0, 52, 92
2, 341759, Note_on_c, 0, 52, 0
2, 341760, Note_on_c, 0, 54, 92
2, 341862, Note_on_c, 0, 54, 0
2, 341863, Note_on_c, 0, 79, 92
2, 341863, Note_on_c, 0, 57, 92
2, 341948, Note_on_c, 0, 69, 0
2, 341951, Note_on_c, 0, 57, 0
2, 341951, Note_on_c, 0, 79, 0
2, 341952, Note_on_c, 0, 69, 92
2, 341952, Note_on_c, 0, 51, 92
2, 342071, Note_on_c, 0, 51, 0
2, 342072, Note_on_c, 0, 52, 92
2, 342095, Note_on_c, 0, 52, 0
2, 342096, Note_on_c, 0, 51, 92
2, 342119, Note_on_c, 0, 51, 0
2, 342120, Note_on_c, 0, 49, 92
2, 342143, Note_on_c, 0, 49, 0
2, 342144, Note_on_c, 0, 51, 92
2, 342246, Note_on_c, 0, 51, 0
2, 342247, Note_on_c, 0, 81, 92
2, 342247, Note_on_c, 0, 54, 92
2, 342332, Note_on_c, 0, 69, 0
2, 342335, Note_on_c, 0, 54, 0
2, 342335, Note_on_c, 0, 81, 0
2, 342336, Note_on_c, 0, 69, 92
2, 342336, Note_on_c, 0, 76, 92
2, 342336, Note_on_c, 0, 54, 92
2, 342336, Note_on_c, 0, 48, 92
2, 342719, Note_on_c, 0, 48, 0
2, 342720, Note_on_c, 0, 47, 92
2, 342751, Note_on_c, 0, 76, 0
2, 342752, Note_on_c, 0, 75, 92
2, 342783, Note_on_c, 0, 75, 0
2, 342784, Note_on_c, 0, 76, 92
2, 342815, Note_on_c, 0, 76, 0
2, 342816, Note_on_c, 0, 75, 92
2, 342847, Note_on_c, 0, 75, 0
2, 342848, Note_on_c, 0, 76, 92
2, 342879, Note_on_c, 0, 76, 0
2, 342880, Note_on_c, 0, 75, 92
2, 342911, Note_on_c, 0, 75, 0
2, 342912, Note_on_c, 0, 76, 92
2, 342943, Note_on_c, 0, 76, 0
2, 342944, Note_on_c, 0, 75, 92
2, 342975, Note_on_c, 0, 75, 0
2, 342976, Note_on_c, 0, 76, 92
2, 343007, Note_on_c, 0, 76, 0
2, 343008, Note_on_c, 0, 75, 92
2, 343023, Note_on_c, 0, 47, 0
2, 343024, Note_on_c, 0, 45, 92
2, 343039, Note_on_c, 0, 75, 0
2, 343040, Note_on_c, 0, 73, 92
2, 343071, Note_on_c, 0, 73, 0
2, 343072, Note_on_c, 0, 75, 92
2, 343103, Note_on_c, 0, 75, 0
2, 343103, Note_on_c, 0, 69, 0
2, 343103, Note_on_c, 0, 54, 0
2, 343103, Note_on_c, 0, 45, 0
2, 343104, Note_on_c, 0, 76, 92
2, 343104, Note_on_c, 0, 52, 92
2, 343104, Note_on_c, 0, 47, 92
2, 343104, Note_on_c, 0, 43, 92
2, 343223, Note_on_c, 0, 76, 0
2, 343224, Note_on_c, 0, 74, 92
2, 343247, Note_on_c, 0, 74, 0
2, 343248, Note_on_c, 0, 72, 92
2, 343271, Note_on_c, 0, 72, 0
2, 343272, Note_on_c, 0, 71, 92
2, 343295, Note_on_c, 0, 71, 0
2, 343296, Note_on_c, 0, 72, 92
2, 343343, Note_on_c, 0, 72, 0
2, 343344, Note_on_c, 0, 76, 92
2, 343398, Note_on_c, 0, 76, 0
2, 343398, Note_on_c, 0, 43, 0
2, 343398, Note_on_c, 0, 47, 0
2, 343399, Note_on_c, 0, 70, 92
2, 343399, Note_on_c, 0, 42, 92
2, 343487, Note_on_c, 0, 42, 0
2, 343487, Note_on_c, 0, 70, 0
2, 343488, Note_on_c, 0, 71, 92
2, 343488, Note_on_c, 0, 43, 92
2, 343607, Note_on_c, 0, 71, 0
2, 343608, Note_on_c, 0, 69, 92
2, 343631, Note_on_c, 0, 69, 0
2, 343632, Note_on_c, 0, 67, 92
2, 343655, Note_on_c, 0, 67, 0
2, 343656, Note_on_c, 0, 66, 92
2, 343679, Note_on_c, 0, 66, 0
2, 343680, Note_on_c, 0, 67, 92
2, 343727, Note_on_c, 0, 67, 0
2, 343728, Note_on_c, 0, 71, 92
2, 343782, Note_on_c, 0, 71, 0
2, 343782, Note_on_c, 0, 43, 0
2, 343783, Note_on_c, 0, 64, 92
2, 343783, Note_on_c, 0, 45, 92
2, 343871, Note_on_c, 0, 45, 0
2, 343871, Note_on_c, 0, 64, 0
2, 343872, Note_on_c, 0, 66, 92
2, 343872, Note_on_c, 0, 47, 92
2, 344011, Note_on_c, 0, 66, 0
2, 344012, Note_on_c, 0, 67, 92
2, 344151, Note_on_c, 0, 67, 0
2, 344152, Note_on_c, 0, 69, 92
2, 344177, Note_on_c, 0, 69, 0
2, 344178, Note_on_c, 0, 67, 92
2, 344203, Note_on_c, 0, 67, 0
2, 344204, Note_on_c, 0, 66, 92
2, 344229, Note_on_c, 0, 66, 0
2, 344230, Note_on_c, 0, 67, 92
2, 344254, Note_on_c, 0, 52, 0
2, 344255, Note_on_c, 0, 67, 0
2, 344256, Note_on_c, 0, 69, 92
2, 344256, Note_on_c, 0, 52, 92
2, 344287, Note_on_c, 0, 52, 0
2, 344288, Note_on_c, 0, 51, 92
2, 344319, Note_on_c, 0, 51, 0
2, 344320, Note_on_c, 0, 52, 92
2, 344351, Note_on_c, 0, 52, 0
2, 344352, Note_on_c, 0, 51, 92
2, 344383, Note_on_c, 0, 51, 0
2, 344384, Note_on_c, 0, 52, 92
2, 344415, Note_on_c, 0, 52, 0
2, 344416, Note_on_c, 0, 51, 92
2, 344447, Note_on_c, 0, 51, 0
2, 344448, Note_on_c, 0, 52, 92
2, 344479, Note_on_c, 0, 52, 0
2, 344480, Note_on_c, 0, 51, 92
2, 344511, Note_on_c, 0, 51, 0
2, 344512, Note_on_c, 0, 49, 92
2, 344550, Note_on_c, 0, 49, 0
2, 344550, Note_on_c, 0, 69, 0
2, 344551, Note_on_c, 0, 57, 92
2, 344551, Note_on_c, 0, 66, 92
2, 344551, Note_on_c, 0, 51, 92
2, 344639, Note_on_c, 0, 51, 0
2, 344639, Note_on_c, 0, 47, 0
2, 344639, Note_on_c, 0, 57, 0
2, 344639, Note_on_c, 0, 66, 0
2, 344640, Note_on_c, 0, 66, 92
2, 344640, Note_on_c, 0, 57, 92
2, 344640, Note_on_c, 0, 52, 92
2, 344640, Note_on_c, 0, 47, 92
2, 344640, Note_on_c, 0, 40, 92
2, 345023, Note_on_c, 0, 57, 0
2, 345023, Note_on_c, 0, 66, 0
2, 345024, Note_on_c, 0, 55, 92
2, 345024, Note_on_c, 0, 64, 92
2, 345790, Note_on_c, 0, 47, 0
2, 345920, Note_on_c, 0, 40, 0
2, 345920, Note_on_c, 0, 52, 0
2, 345964, Note_on_c, 0, 55, 0
2, 345984, Note_on_c, 0, 64, 0
2, 347136, Note_on_c, 0, 76, 92
2, 347136, Note_on_c, 0, 52, 92
2, 347178, Note_on_c, 0, 76, 0
2, 347179, Note_on_c, 0, 78, 92
2, 347221, Note_on_c, 0, 78, 0
2, 347222, Note_on_c, 0, 79, 92
2, 347327, Note_on_c, 0, 79, 0
2, 347327, Note_on_c, 0, 52, 0
2, 347328, Note_on_c, 0, 71, 92
2, 347328, Note_on_c, 0, 55, 92
2, 347455, Note_on_c, 0, 71, 0
2, 347456, Note_on_c, 0, 79, 92
2, 347519, Note_on_c, 0, 79, 0
2, 347519, Note_on_c, 0, 55, 0
2, 347520, Note_on_c, 0, 69, 92
2, 347520, Note_on_c, 0, 60, 92
2, 347647, Note_on_c, 0, 69, 0
2, 347648, Note_on_c, 0, 79, 92
2, 347711, Note_on_c, 0, 79, 0
2, 347712, Note_on_c, 0, 78, 92
2, 347775, Note_on_c, 0, 60, 0
2, 347776, Note_on_c, 0, 59, 92
2, 347839, Note_on_c, 0, 59, 0
2, 347840, Note_on_c, 0, 57, 92
2, 347903, Note_on_c, 0, 57, 0
2, 347903, Note_on_c, 0, 78, 0
2, 347904, Note_on_c, 0, 69, 92
2, 347904, Note_on_c, 0, 63, 92
2, 347946, Note_on_c, 0, 69, 0
2, 347947, Note_on_c, 0, 67, 92
2, 347989, Note_on_c, 0, 67, 0
2, 347990, Note_on_c, 0, 66, 92
2, 348095, Note_on_c, 0, 66, 0
2, 348095, Note_on_c, 0, 63, 0
2, 348096, Note_on_c, 0, 78, 92
2, 348096, Note_on_c, 0, 59, 92
2, 348223, Note_on_c, 0, 78, 0
2, 348224, Note_on_c, 0, 69, 92
2, 348287, Note_on_c, 0, 69, 0
2, 348287, Note_on_c, 0, 59, 0
2, 348288, Note_on_c, 0, 67, 92
2, 348288, Note_on_c, 0, 64, 92
2, 348415, Note_on_c, 0, 67, 0
2, 348416, Note_on_c, 0, 71, 92
2, 348478, Note_on_c, 0, 64, 0
2, 348479, Note_on_c, 0, 71, 0
2, 348480, Note_on_c, 0, 64, 92
2, 348608, Note_on_c, 0, 62, 92
2, 348671, Note_on_c, 0, 62, 0
2, 348672, Note_on_c, 0, 60, 92
2, 348735, Note_on_c, 0, 64, 0
2, 348736, Note_on_c, 0, 63, 92
2, 348799, Note_on_c, 0, 63, 0
2, 348799, Note_on_c, 0, 60, 0
2, 348800, Note_on_c, 0, 64, 92
2, 348800, Note_on_c, 0, 52, 92
2, 348863, Note_on_c, 0, 52, 0
2, 348863, Note_on_c, 0, 64, 0
2, 348864, Note_on_c, 0, 69, 92
2, 348864, Note_on_c, 0, 51, 92
2, 348927, Note_on_c, 0, 69, 0
2, 348928, Note_on_c, 0, 67, 92
2, 348991, Note_on_c, 0, 67, 0
2, 348991, Note_on_c, 0, 51, 0
2, 348992, Note_on_c, 0, 66, 92
2, 348992, Note_on_c, 0, 52, 92
2, 349055, Note_on_c, 0, 52, 0
2, 349055, Note_on_c, 0, 66, 0
2, 349056, Note_on_c, 0, 64, 92
2, 349056, Note_on_c, 0, 59, 92
2, 349119, Note_on_c, 0, 64, 0
2, 349120, Note_on_c, 0, 63, 92
2, 349183, Note_on_c, 0, 63, 0
2, 349183, Note_on_c, 0, 59, 0
2, 349184, Note_on_c, 0, 64, 92
2, 349184, Note_on_c, 0, 52, 92
2, 349247, Note_on_c, 0, 52, 0
2, 349247, Note_on_c, 0, 64, 0
2, 349248, Note_on_c, 0, 71, 92
2, 349248, Note_on_c, 0, 51, 92
2, 349311, Note_on_c, 0, 71, 0
2, 349312, Note_on_c, 0, 67, 92
2, 349375, Note_on_c, 0, 67, 0
2, 349375, Note_on_c, 0, 51, 0
2, 349376, Note_on_c, 0, 66, 92
2, 349376, Note_on_c, 0, 52, 92
2, 349439, Note_on_c, 0, 52, 0
2, 349439, Note_on_c, 0, 66, 0
2, 349440, Note_on_c, 0, 64, 92
2, 349440, Note_on_c, 0, 57, 92
2, 349503, Note_on_c, 0, 64, 0
2, 349504, Note_on_c, 0, 63, 92
2, 349567, Note_on_c, 0, 63, 0
2, 349567, Note_on_c, 0, 57, 0
2, 349568, Note_on_c, 0, 64, 92
2, 349568, Note_on_c, 0, 52, 92
2, 349631, Note_on_c, 0, 52, 0
2, 349631, Note_on_c, 0, 64, 0
2, 349632, Note_on_c, 0, 72, 92
2, 349632, Note_on_c, 0, 51, 92
2, 349695, Note_on_c, 0, 72, 0
2, 349696, Note_on_c, 0, 67, 92
2, 349759, Note_on_c, 0, 67, 0
2, 349759, Note_on_c, 0, 51, 0
2, 349760, Note_on_c, 0, 66, 92
2, 349760, Note_on_c, 0, 52, 92
2, 349823, Note_on_c, 0, 52, 0
2, 349823, Note_on_c, 0, 66, 0
2, 349824, Note_on_c, 0, 64, 92
2, 349824, Note_on_c, 0, 55, 92
2, 349887, Note_on_c, 0, 64, 0
2, 349888, Note_on_c, 0, 63, 92
2, 349951, Note_on_c, 0, 63, 0
2, 349951, Note_on_c, 0, 55, 0
2, 349952, Note_on_c, 0, 64, 92
2, 349952, Note_on_c, 0, 52, 92
2, 350015, Note_on_c, 0, 52, 0
2, 350015, Note_on_c, 0, 64, 0
2, 350016, Note_on_c, 0, 66, 92
2, 350016, Note_on_c, 0, 51, 92
2, 350079, Note_on_c, 0, 66, 0
2, 350080, Note_on_c, 0, 67, 92
2, 350143, Note_on_c, 0, 67, 0
2, 350143, Note_on_c, 0, 51, 0
2, 350144, Note_on_c, 0, 69, 92
2, 350144, Note_on_c, 0, 59, 92
2, 350207, Note_on_c, 0, 59, 0
2, 350207, Note_on_c, 0, 69, 0
2, 350208, Note_on_c, 0, 67, 92
2, 350208, Note_on_c, 0, 52, 92
2, 350271, Note_on_c, 0, 67, 0
2, 350272, Note_on_c, 0, 66, 92
2, 350335, Note_on_c, 0, 66, 0
2, 350335, Note_on_c, 0, 52, 0
2, 350336, Note_on_c, 0, 67, 92
2, 350336, Note_on_c, 0, 60, 92
2, 350399, Note_on_c, 0, 60, 0
2, 350399, Note_on_c, 0, 67, 0
2, 350400, Note_on_c, 0, 69, 92
2, 350400, Note_on_c, 0, 54, 92
2, 350463, Note_on_c, 0, 69, 0
2, 350464, Note_on_c, 0, 71, 92
2, 350527, Note_on_c, 0, 71, 0
2, 350527, Note_on_c, 0, 54, 0
2, 350528, Note_on_c, 0, 72, 92
2, 350528, Note_on_c, 0, 62, 92
2, 350591, Note_on_c, 0, 62, 0
2, 350591, Note_on_c, 0, 72, 0
2, 350592, Note_on_c, 0, 71, 92
2, 350592, Note_on_c, 0, 55, 92
2, 350655, Note_on_c, 0, 71, 0
2, 350656, Note_on_c, 0, 69, 92
2, 350719, Note_on_c, 0, 69, 0
2, 350719, Note_on_c, 0, 55, 0
2, 350720, Note_on_c, 0, 71, 92
2, 350720, Note_on_c, 0, 64, 92
2, 350783, Note_on_c, 0, 64, 0
2, 350783, Note_on_c, 0, 71, 0
2, 350784, Note_on_c, 0, 72, 92
2, 350784, Note_on_c, 0, 57, 92
2, 350847, Note_on_c, 0, 72, 0
2, 350848, Note_on_c, 0, 74, 92
2, 350911, Note_on_c, 0, 74, 0
2, 350911, Note_on_c, 0, 57, 0
2, 350912, Note_on_c, 0, 76, 92
2, 350912, Note_on_c, 0, 66, 92
2, 350975, Note_on_c, 0, 66, 0
2, 350975, Note_on_c, 0, 76, 0
2, 350976, Note_on_c, 0, 74, 92
2, 350976, Note_on_c, 0, 59, 92
2, 351039, Note_on_c, 0, 74, 0
2, 351040, Note_on_c, 0, 72, 92
2, 351103, Note_on_c, 0, 72, 0
2, 351103, Note_on_c, 0, 59, 0
2, 351104, Note_on_c, 0, 74, 92
2, 351104, Note_on_c, 0, 67, 92
2, 351167, Note_on_c, 0, 67, 0
2, 351167, Note_on_c, 0, 74, 0
2, 351168, Note_on_c, 0, 76, 92
2, 351168, Note_on_c, 0, 60, 92
2, 351231, Note_on_c, 0, 76, 0
2, 351232, Note_on_c, 0, 78, 92
2, 351295, Note_on_c, 0, 78, 0
2, 351295, Note_on_c, 0, 60, 0
2, 351296, Note_on_c, 0, 79, 92
2, 351296, Note_on_c, 0, 69, 92
2, 351359, Note_on_c, 0, 69, 0
2, 351359, Note_on_c, 0, 79, 0
2, 351360, Note_on_c, 0, 78, 92
2, 351360, Note_on_c, 0, 62, 92
2, 351423, Note_on_c, 0, 78, 0
2, 351424, Note_on_c, 0, 79, 92
2, 351487, Note_on_c, 0, 79, 0
2, 351488, Note_on_c, 0, 81, 92
2, 351551, Note_on_c, 0, 81, 0
2, 351552, Note_on_c, 0, 74, 92
2, 351615, Note_on_c, 0, 62, 0
2, 351616, Note_on_c, 0, 60, 92
2, 351657, Note_on_c, 0, 60, 0
2, 351658, Note_on_c, 0, 59, 92
2, 351699, Note_on_c, 0, 59, 0
2, 351700, Note_on_c, 0, 57, 92
2, 351743, Note_on_c, 0, 57, 0
2, 351744, Note_on_c, 0, 55, 92
2, 351807, Note_on_c, 0, 55, 0
2, 351807, Note_on_c, 0, 74, 0
2, 351808, Note_on_c, 0, 72, 92
2, 351808, Note_on_c, 0, 57, 92
2, 351871, Note_on_c, 0, 57, 0
2, 351871, Note_on_c, 0, 72, 0
2, 351872, Note_on_c, 0, 74, 92
2, 351872, Note_on_c, 0, 59, 92
2, 351935, Note_on_c, 0, 59, 0
2, 351935, Note_on_c, 0, 74, 0
2, 351936, Note_on_c, 0, 79, 92
2, 351936, Note_on_c, 0, 52, 92
2, 351999, Note_on_c, 0, 79, 0
2, 352000, Note_on_c, 0, 78, 92
2, 352063, Note_on_c, 0, 78, 0
2, 352063, Note_on_c, 0, 52, 0
2, 352064, Note_on_c, 0, 76, 92
2, 352064, Note_on_c, 0, 59, 92
2, 352127, Note_on_c, 0, 59, 0
2, 352127, Note_on_c, 0, 76, 0
2, 352128, Note_on_c, 0, 74, 92
2, 352128, Note_on_c, 0, 48, 92
2, 352191, Note_on_c, 0, 74, 0
2, 352192, Note_on_c, 0, 72, 92
2, 352255, Note_on_c, 0, 72, 0
2, 352255, Note_on_c, 0, 48, 0
2, 352256, Note_on_c, 0, 71, 92
2, 352256, Note_on_c, 0, 59, 92
2, 352319, Note_on_c, 0, 59, 0
2, 352319, Note_on_c, 0, 71, 0
2, 352320, Note_on_c, 0, 72, 92
2, 352320, Note_on_c, 0, 57, 92
2, 352383, Note_on_c, 0, 72, 0
2, 352384, Note_on_c, 0, 71, 92
2, 352447, Note_on_c, 0, 71, 0
2, 352448, Note_on_c, 0, 69, 92
2, 352511, Note_on_c, 0, 69, 0
2, 352511, Note_on_c, 0, 57, 0
2, 352512, Note_on_c, 0, 69, 92
2, 352512, Note_on_c, 0, 54, 92
2, 352575, Note_on_c, 0, 54, 0
2, 352575, Note_on_c, 0, 69, 0
2, 352576, Note_on_c, 0, 67, 92
2, 352576, Note_on_c, 0, 52, 92
2, 352639, Note_on_c, 0, 52, 0
2, 352639, Note_on_c, 0, 67, 0
2, 352640, Note_on_c, 0, 66, 92
2, 352640, Note_on_c, 0, 50, 92
2, 352703, Note_on_c, 0, 50, 0
2, 352703, Note_on_c, 0, 66, 0
2, 352704, Note_on_c, 0, 66, 92
2, 352704, Note_on_c, 0, 57, 92
2, 352767, Note_on_c, 0, 66, 0
2, 352768, Note_on_c, 0, 64, 92
2, 352831, Note_on_c, 0, 64, 0
2, 352831, Note_on_c, 0, 57, 0
2, 352832, Note_on_c, 0, 62, 92
2, 352832, Note_on_c, 0, 48, 92
2, 352895, Note_on_c, 0, 48, 0
2, 352895, Note_on_c, 0, 62, 0
2, 352896, Note_on_c, 0, 62, 92
2, 352896, Note_on_c, 0, 47, 92
2, 352959, Note_on_c, 0, 62, 0
2, 352960, Note_on_c, 0, 60, 92
2, 353023, Note_on_c, 0, 60, 0
2, 353023, Note_on_c, 0, 47, 0
2, 353024, Note_on_c, 0, 59, 92
2, 353024, Note_on_c, 0, 57, 92
2, 353087, Note_on_c, 0, 57, 0
2, 353087, Note_on_c, 0, 59, 0
2, 353088, Note_on_c, 0, 59, 92
2, 353088, Note_on_c, 0, 55, 92
2, 353151, Note_on_c, 0, 59, 0
2, 353152, Note_on_c, 0, 57, 92
2, 353214, Note_on_c, 0, 55, 0
2, 353215, Note_on_c, 0, 57, 0
2, 353216, Note_on_c, 0, 55, 92
2, 353279, Note_on_c, 0, 55, 0
2, 353280, Note_on_c, 0, 55, 92
2, 353280, Note_on_c, 0, 52, 92
2, 353343, Note_on_c, 0, 52, 0
2, 353344, Note_on_c, 0, 54, 92
2, 353407, Note_on_c, 0, 54, 0
2, 353407, Note_on_c, 0, 55, 0
2, 353408, Note_on_c, 0, 67, 92
2, 353408, Note_on_c, 0, 55, 92
2, 353471, Note_on_c, 0, 55, 0
2, 353471, Note_on_c, 0, 67, 0
2, 353472, Note_on_c, 0, 66, 92
2, 353472, Note_on_c, 0, 47, 92
2, 353535, Note_on_c, 0, 47, 0
2, 353536, Note_on_c, 0, 45, 92
2, 353599, Note_on_c, 0, 45, 0
2, 353599, Note_on_c, 0, 66, 0
2, 353600, Note_on_c, 0, 67, 92
2, 353600, Note_on_c, 0, 43, 92
2, 353663, Note_on_c, 0, 43, 0
2, 353663, Note_on_c, 0, 67, 0
2, 353664, Note_on_c, 0, 57, 92
2, 353664, Note_on_c, 0, 54, 92
2, 353727, Note_on_c, 0, 54, 0
2, 353728, Note_on_c, 0, 55, 92
2, 353791, Note_on_c, 0, 55, 0
2, 353791, Note_on_c, 0, 57, 0
2, 353792, Note_on_c, 0, 67, 92
2, 353792, Note_on_c, 0, 57, 92
2, 353855, Note_on_c, 0, 57, 0
2, 353855, Note_on_c, 0, 67, 0
2, 353856, Note_on_c, 0, 66, 92
2, 353856, Note_on_c, 0, 48, 92
2, 353919, Note_on_c, 0, 48, 0
2, 353920, Note_on_c, 0, 47, 92
2, 353983, Note_on_c, 0, 47, 0
2, 353983, Note_on_c, 0, 66, 0
2, 353984, Note_on_c, 0, 67, 92
2, 353984, Note_on_c, 0, 45, 92
2, 354047, Note_on_c, 0, 45, 0
2, 354047, Note_on_c, 0, 67, 0
2, 354048, Note_on_c, 0, 59, 92
2, 354048, Note_on_c, 0, 55, 92
2, 354111, Note_on_c, 0, 55, 0
2, 354112, Note_on_c, 0, 57, 92
2, 354175, Note_on_c, 0, 57, 0
2, 354175, Note_on_c, 0, 59, 0
2, 354176, Note_on_c, 0, 67, 92
2, 354176, Note_on_c, 0, 59, 92
2, 354239, Note_on_c, 0, 59, 0
2, 354239, Note_on_c, 0, 67, 0
2, 354240, Note_on_c, 0, 66, 92
2, 354240, Note_on_c, 0, 50, 92
2, 354303, Note_on_c, 0, 50, 0
2, 354304, Note_on_c, 0, 48, 92
2, 354367, Note_on_c, 0, 48, 0
2, 354367, Note_on_c, 0, 66, 0
2, 354368, Note_on_c, 0, 67, 92
2, 354368, Note_on_c, 0, 47, 92
2, 354431, Note_on_c, 0, 47, 0
2, 354431, Note_on_c, 0, 67, 0
2, 354432, Note_on_c, 0, 60, 92
2, 354432, Note_on_c, 0, 57, 92
2, 354495, Note_on_c, 0, 57, 0
2, 354496, Note_on_c, 0, 59, 92
2, 354559, Note_on_c, 0, 59, 0
2, 354559, Note_on_c, 0, 60, 0
2, 354560, Note_on_c, 0, 67, 92
2, 354560, Note_on_c, 0, 60, 92
2, 354623, Note_on_c, 0, 60, 0
2, 354623, Note_on_c, 0, 67, 0
2, 354624, Note_on_c, 0, 66, 92
2, 354624, Note_on_c, 0, 52, 92
2, 354687, Note_on_c, 0, 52, 0
2, 354688, Note_on_c, 0, 50, 92
2, 354751, Note_on_c, 0, 50, 0
2, 354751, Note_on_c, 0, 66, 0
2, 354752, Note_on_c, 0, 67, 92
2, 354752, Note_on_c, 0, 48, 92
2, 354815, Note_on_c, 0, 48, 0
2, 354815, Note_on_c, 0, 67, 0
2, 354816, Note_on_c, 0, 62, 92
2, 354816, Note_on_c, 0, 47, 92
2, 354879, Note_on_c, 0, 62, 0
2, 354880, Note_on_c, 0, 64, 92
2, 354943, Note_on_c, 0, 64, 0
2, 354943, Note_on_c, 0, 47, 0
2, 354944, Note_on_c, 0, 66, 92
2, 354944, Note_on_c, 0, 55, 92
2, 355007, Note_on_c, 0, 55, 0
2, 355007, Note_on_c, 0, 66, 0
2, 355008, Note_on_c, 0, 66, 92
2, 355008, Note_on_c, 0, 45, 92
2, 355071, Note_on_c, 0, 66, 0
2, 355072, Note_on_c, 0, 67, 92
2, 355135, Note_on_c, 0, 67, 0
2, 355135, Note_on_c, 0, 45, 0
2, 355136, Note_on_c, 0, 69, 92
2, 355136, Note_on_c, 0, 54, 92
2, 355199, Note_on_c, 0, 54, 0
2, 355199, Note_on_c, 0, 69, 0
2, 355200, Note_on_c, 0, 69, 92
2, 355200, Note_on_c, 0, 43, 92
2, 355263, Note_on_c, 0, 69, 0
2, 355264, Note_on_c, 0, 71, 92
2, 355327, Note_on_c, 0, 71, 0
2, 355327, Note_on_c, 0, 43, 0
2, 355328, Note_on_c, 0, 72, 92
2, 355328, Note_on_c, 0, 52, 92
2, 355391, Note_on_c, 0, 52, 0
2, 355391, Note_on_c, 0, 72, 0
2, 355392, Note_on_c, 0, 74, 92
2, 355392, Note_on_c, 0, 42, 92
2, 355455, Note_on_c, 0, 74, 0
2, 355456, Note_on_c, 0, 72, 92
2, 355519, Note_on_c, 0, 72, 0
2, 355519, Note_on_c, 0, 42, 0
2, 355520, Note_on_c, 0, 71, 92
2, 355520, Note_on_c, 0, 50, 92
2, 355583, Note_on_c, 0, 50, 0
2, 355583, Note_on_c, 0, 71, 0
2, 355584, Note_on_c, 0, 69, 92
2, 355584, Note_on_c, 0, 40, 92
2, 355647, Note_on_c, 0, 69, 0
2, 355648, Note_on_c, 0, 71, 92
2, 355711, Note_on_c, 0, 71, 0
2, 355711, Note_on_c, 0, 40, 0
2, 355712, Note_on_c, 0, 67, 92
2, 355712, Note_on_c, 0, 49, 92
2, 355775, Note_on_c, 0, 49, 0
2, 355775, Note_on_c, 0, 67, 0
2, 355776, Note_on_c, 0, 62, 92
2, 355776, Note_on_c, 0, 50, 92
2, 355839, Note_on_c, 0, 62, 0
2, 355840, Note_on_c, 0, 67, 92
2, 355903, Note_on_c, 0, 67, 0
2, 355903, Note_on_c, 0, 50, 0
2, 355904, Note_on_c, 0, 66, 92
2, 355904, Note_on_c, 0, 38, 92
2, 355967, Note_on_c, 0, 38, 0
2, 355967, Note_on_c, 0, 66, 0
2, 355968, Note_on_c, 0, 67, 92
2, 355968, Note_on_c, 0, 43, 92
2, 356031, Note_on_c, 0, 43, 0
2, 356032, Note_on_c, 0, 47, 92
2, 356095, Note_on_c, 0, 47, 0
2, 356096, Note_on_c, 0, 50, 92
2, 356159, Note_on_c, 0, 50, 0
2, 356160, Note_on_c, 0, 55, 92
2, 356223, Note_on_c, 0, 55, 0
2, 356224, Note_on_c, 0, 50, 92
2, 356248, Note_on_c, 0, 67, 0
2, 356287, Note_on_c, 0, 50, 0
2, 356288, Note_on_c, 0, 47, 92
2, 356351, Note_on_c, 0, 47, 0
2, 356352, Note_on_c, 0, 71, 92
2, 356352, Note_on_c, 0, 43, 92
2, 356394, Note_on_c, 0, 71, 0
2, 356395, Note_on_c, 0, 72, 92
2, 356437, Note_on_c, 0, 72, 0
2, 356438, Note_on_c, 0, 74, 92
2, 356543, Note_on_c, 0, 74, 0
2, 356543, Note_on_c, 0, 43, 0
2, 356544, Note_on_c, 0, 67, 92
2, 356544, Note_on_c, 0, 55, 92
2, 356671, Note_on_c, 0, 67, 0
2, 356672, Note_on_c, 0, 76, 92
2, 356735, Note_on_c, 0, 76, 0
2, 356736, Note_on_c, 0, 81, 92
2, 356799, Note_on_c, 0, 55, 0
2, 356800, Note_on_c, 0, 54, 92
2, 356863, Note_on_c, 0, 54, 0
2, 356863, Note_on_c, 0, 81, 0
2, 356864, Note_on_c, 0, 73, 92
2, 356864, Note_on_c, 0, 52, 92
2, 356927, Note_on_c, 0, 52, 0
2, 356927, Note_on_c, 0, 73, 0
2, 356928, Note_on_c, 0, 74, 92
2, 356928, Note_on_c, 0, 54, 92
2, 357055, Note_on_c, 0, 54, 0
2, 357056, Note_on_c, 0, 59, 92
2, 357098, Note_on_c, 0, 74, 0
2, 357119, Note_on_c, 0, 59, 0
2, 357120, Note_on_c, 0, 73, 92
2, 357120, Note_on_c, 0, 52, 92
2, 357183, Note_on_c, 0, 52, 0
2, 357183, Note_on_c, 0, 73, 0
2, 357184, Note_on_c, 0, 71, 92
2, 357184, Note_on_c, 0, 54, 92
2, 357247, Note_on_c, 0, 54, 0
2, 357247, Note_on_c, 0, 71, 0
2, 357248, Note_on_c, 0, 69, 92
2, 357248, Note_on_c, 0, 55, 92
2, 357311, Note_on_c, 0, 55, 0
2, 357311, Note_on_c, 0, 69, 0
2, 357312, Note_on_c, 0, 79, 92
2, 357312, Note_on_c, 0, 57, 92
2, 357375, Note_on_c, 0, 57, 0
2, 357376, Note_on_c, 0, 59, 92
2, 357439, Note_on_c, 0, 59, 0
2, 357439, Note_on_c, 0, 79, 0
2, 357440, Note_on_c, 0, 76, 92
2, 357440, Note_on_c, 0, 61, 92
2, 357503, Note_on_c, 0, 61, 0
2, 357503, Note_on_c, 0, 76, 0
2, 357504, Note_on_c, 0, 78, 92
2, 357504, Note_on_c, 0, 62, 92
2, 357631, Note_on_c, 0, 78, 0
2, 357632, Note_on_c, 0, 81, 92
2, 357695, Note_on_c, 0, 81, 0
2, 357696, Note_on_c, 0, 74, 92
2, 357759, Note_on_c, 0, 62, 0
2, 357760, Note_on_c, 0, 60, 92
2, 357801, Note_on_c, 0, 60, 0
2, 357802, Note_on_c, 0, 59, 92
2, 357843, Note_on_c, 0, 59, 0
2, 357844, Note_on_c, 0, 57, 92
2, 357887, Note_on_c, 0, 57, 0
2, 357888, Note_on_c, 0, 59, 92
2, 357951, Note_on_c, 0, 74, 0
2, 357952, Note_on_c, 0, 79, 92
2, 358015, Note_on_c, 0, 79, 0
2, 358015, Note_on_c, 0, 59, 0
2, 358016, Note_on_c, 0, 74, 92
2, 358016, Note_on_c, 0, 62, 92
2, 358079, Note_on_c, 0, 62, 0
2, 358079, Note_on_c, 0, 74, 0
2, 358080, Note_on_c, 0, 71, 92
2, 358080, Note_on_c, 0, 55, 92
2, 358143, Note_on_c, 0, 71, 0
2, 358144, Note_on_c, 0, 67, 92
2, 358207, Note_on_c, 0, 67, 0
2, 358208, Note_on_c, 0, 66, 92
2, 358271, Note_on_c, 0, 66, 0
2, 358272, Note_on_c, 0, 67, 92
2, 358335, Note_on_c, 0, 67, 0
2, 358335, Note_on_c, 0, 55, 0
2, 358336, Note_on_c, 0, 71, 92
2, 358336, Note_on_c, 0, 50, 92
2, 358399, Note_on_c, 0, 50, 0
2, 358399, Note_on_c, 0, 71, 0
2, 358400, Note_on_c, 0, 74, 92
2, 358400, Note_on_c, 0, 47, 92
2, 358463, Note_on_c, 0, 47, 0
2, 358463, Note_on_c, 0, 74, 0
2, 358464, Note_on_c, 0, 77, 92
2, 358464, Note_on_c, 0, 43, 92
2, 358527, Note_on_c, 0, 77, 0
2, 358528, Note_on_c, 0, 76, 92
2, 358591, Note_on_c, 0, 76, 0
2, 358591, Note_on_c, 0, 43, 0
2, 358592, Note_on_c, 0, 74, 92
2, 358592, Note_on_c, 0, 59, 92
2, 358655, Note_on_c, 0, 59, 0
2, 358655, Note_on_c, 0, 74, 0
2, 358656, Note_on_c, 0, 76, 92
2, 358656, Note_on_c, 0, 60, 92
2, 358719, Note_on_c, 0, 76, 0
2, 358720, Note_on_c, 0, 81, 92
2, 358783, Note_on_c, 0, 81, 0
2, 358783, Note_on_c, 0, 60, 0
2, 358784, Note_on_c, 0, 76, 92
2, 358784, Note_on_c, 0, 64, 92
2, 358847, Note_on_c, 0, 64, 0
2, 358847, Note_on_c, 0, 76, 0
2, 358848, Note_on_c, 0, 73, 92
2, 358848, Note_on_c, 0, 57, 92
2, 358911, Note_on_c, 0, 73, 0
2, 358912, Note_on_c, 0, 69, 92
2, 358975, Note_on_c, 0, 69, 0
2, 358976, Note_on_c, 0, 68, 92
2, 359039, Note_on_c, 0, 68, 0
2, 359040, Note_on_c, 0, 69, 92
2, 359103, Note_on_c, 0, 69, 0
2, 359103, Note_on_c, 0, 57, 0
2, 359104, Note_on_c, 0, 73, 92
2, 359104, Note_on_c, 0, 52, 92
2, 359167, Note_on_c, 0, 52, 0
2, 359167, Note_on_c, 0, 73, 0
2, 359168, Note_on_c, 0, 76, 92
2, 359168, Note_on_c, 0, 49, 92
2, 359231, Note_on_c, 0, 49, 0
2, 359231, Note_on_c, 0, 76, 0
2, 359232, Note_on_c, 0, 79, 92
2, 359232, Note_on_c, 0, 45, 92
2, 359295, Note_on_c, 0, 79, 0
2, 359296, Note_on_c, 0, 78, 92
2, 359359, Note_on_c, 0, 78, 0
2, 359359, Note_on_c, 0, 45, 0
2, 359360, Note_on_c, 0, 76, 92
2, 359360, Note_on_c, 0, 61, 92
2, 359423, Note_on_c, 0, 61, 0
2, 359423, Note_on_c, 0, 76, 0
2, 359424, Note_on_c, 0, 78, 92
2, 359424, Note_on_c, 0, 62, 92
2, 359487, Note_on_c, 0, 78, 0
2, 359488, Note_on_c, 0, 83, 92
2, 359551, Note_on_c, 0, 83, 0
2, 359551, Note_on_c, 0, 62, 0
2, 359552, Note_on_c, 0, 78, 92
2, 359552, Note_on_c, 0, 66, 92
2, 359615, Note_on_c, 0, 66, 0
2, 359615, Note_on_c, 0, 78, 0
2, 359616, Note_on_c, 0, 75, 92
2, 359616, Note_on_c, 0, 59, 92
2, 359679, Note_on_c, 0, 75, 0
2, 359680, Note_on_c, 0, 71, 92
2, 359743, Note_on_c, 0, 71, 0
2, 359744, Note_on_c, 0, 70, 92
2, 359807, Note_on_c, 0, 70, 0
2, 359808, Note_on_c, 0, 71, 92
2, 359871, Note_on_c, 0, 71, 0
2, 359871, Note_on_c, 0, 59, 0
2, 359872, Note_on_c, 0, 75, 92
2, 359872, Note_on_c, 0, 54, 92
2, 359935, Note_on_c, 0, 54, 0
2, 359935, Note_on_c, 0, 75, 0
2, 359936, Note_on_c, 0, 78, 92
2, 359936, Note_on_c, 0, 51, 92
2, 359999, Note_on_c, 0, 51, 0
2, 359999, Note_on_c, 0, 78, 0
2, 360000, Note_on_c, 0, 81, 92
2, 360000, Note_on_c, 0, 47, 92
2, 360063, Note_on_c, 0, 81, 0
2, 360064, Note_on_c, 0, 79, 92
2, 360121, Note_on_c, 0, 47, 0
2, 360127, Note_on_c, 0, 79, 0
2, 360128, Note_on_c, 0, 78, 92
2, 360128, Note_on_c, 0, 63, 92
2, 360191, Note_on_c, 0, 63, 0
2, 360191, Note_on_c, 0, 78, 0
2, 360192, Note_on_c, 0, 79, 92
2, 360192, Note_on_c, 0, 64, 92
2, 360255, Note_on_c, 0, 79, 0
2, 360256, Note_on_c, 0, 78, 92
2, 360319, Note_on_c, 0, 78, 0
2, 360319, Note_on_c, 0, 64, 0
2, 360320, Note_on_c, 0, 76, 92
2, 360320, Note_on_c, 0, 58, 92
2, 360383, Note_on_c, 0, 58, 0
2, 360383, Note_on_c, 0, 76, 0
2, 360384, Note_on_c, 0, 74, 92
2, 360384, Note_on_c, 0, 59, 92
2, 360447, Note_on_c, 0, 74, 0
2, 360448, Note_on_c, 0, 73, 92
2, 360511, Note_on_c, 0, 73, 0
2, 360511, Note_on_c, 0, 59, 0
2, 360512, Note_on_c, 0, 71, 92
2, 360512, Note_on_c, 0, 55, 92
2, 360575, Note_on_c, 0, 55, 0
2, 360575, Note_on_c, 0, 71, 0
2, 360576, Note_on_c, 0, 70, 92
2, 360576, Note_on_c, 0, 54, 92
2, 360639, Note_on_c, 0, 70, 0
2, 360640, Note_on_c, 0, 71, 92
2, 360703, Note_on_c, 0, 71, 0
2, 360704, Note_on_c, 0, 73, 92
2, 360767, Note_on_c, 0, 73, 0
2, 360768, Note_on_c, 0, 66, 92
2, 360831, Note_on_c, 0, 66, 0
2, 360831, Note_on_c, 0, 54, 0
2, 360832, Note_on_c, 0, 68, 92
2, 360832, Note_on_c, 0, 52, 92
2, 360895, Note_on_c, 0, 52, 0
2, 360895, Note_on_c, 0, 68, 0
2, 360896, Note_on_c, 0, 70, 92
2, 360896, Note_on_c, 0, 54, 92
2, 360959, Note_on_c, 0, 54, 0
2, 360959, Note_on_c, 0, 70, 0
2, 360960, Note_on_c, 0, 71, 92
2, 360960, Note_on_c, 0, 55, 92
2, 361023, Note_on_c, 0, 71, 0
2, 361024, Note_on_c, 0, 70, 92
2, 361087, Note_on_c, 0, 70, 0
2, 361087, Note_on_c, 0, 55, 0
2, 361088, Note_on_c, 0, 71, 92
2, 361088, Note_on_c, 0, 59, 92
2, 361151, Note_on_c, 0, 59, 0
2, 361151, Note_on_c, 0, 71, 0
2, 361152, Note_on_c, 0, 76, 92
2, 361152, Note_on_c, 0, 58, 92
2, 361215, Note_on_c, 0, 76, 0
2, 361216, Note_on_c, 0, 74, 92
2, 361279, Note_on_c, 0, 74, 0
2, 361279, Note_on_c, 0, 58, 0
2, 361280, Note_on_c, 0, 73, 92
2, 361280, Note_on_c, 0, 59, 92
2, 361343, Note_on_c, 0, 59, 0
2, 361343, Note_on_c, 0, 73, 0
2, 361344, Note_on_c, 0, 71, 92
2, 361344, Note_on_c, 0, 54, 92
2, 361407, Note_on_c, 0, 71, 0
2, 361408, Note_on_c, 0, 70, 92
2, 361471, Note_on_c, 0, 70, 0
2, 361471, Note_on_c, 0, 54, 0
2, 361472, Note_on_c, 0, 71, 92
2, 361472, Note_on_c, 0, 59, 92
2, 361535, Note_on_c, 0, 59, 0
2, 361535, Note_on_c, 0, 71, 0
2, 361536, Note_on_c, 0, 78, 92
2, 361536, Note_on_c, 0, 58, 92
2, 361599, Note_on_c, 0, 78, 0
2, 361600, Note_on_c, 0, 74, 92
2, 361663, Note_on_c, 0, 74, 0
2, 361663, Note_on_c, 0, 58, 0
2, 361664, Note_on_c, 0, 73, 92
2, 361664, Note_on_c, 0, 59, 92
2, 361727, Note_on_c, 0, 59, 0
2, 361727, Note_on_c, 0, 73, 0
2, 361728, Note_on_c, 0, 71, 92
2, 361728, Note_on_c, 0, 52, 92
2, 361791, Note_on_c, 0, 71, 0
2, 361792, Note_on_c, 0, 70, 92
2, 361855, Note_on_c, 0, 70, 0
2, 361855, Note_on_c, 0, 52, 0
2, 361856, Note_on_c, 0, 71, 92
2, 361856, Note_on_c, 0, 59, 92
2, 361919, Note_on_c, 0, 59, 0
2, 361919, Note_on_c, 0, 71, 0
2, 361920, Note_on_c, 0, 79, 92
2, 361920, Note_on_c, 0, 58, 92
2, 361983, Note_on_c, 0, 79, 0
2, 361984, Note_on_c, 0, 74, 92
2, 362047, Note_on_c, 0, 74, 0
2, 362047, Note_on_c, 0, 58, 0
2, 362048, Note_on_c, 0, 73, 92
2, 362048, Note_on_c, 0, 59, 92
2, 362111, Note_on_c, 0, 59, 0
2, 362111, Note_on_c, 0, 73, 0
2, 362112, Note_on_c, 0, 71, 92
2, 362112, Note_on_c, 0, 50, 92
2, 362175, Note_on_c, 0, 71, 0
2, 362176, Note_on_c, 0, 70, 92
2, 362239, Note_on_c, 0, 70, 0
2, 362239, Note_on_c, 0, 50, 0
2, 362240, Note_on_c, 0, 71, 92
2, 362240, Note_on_c, 0, 59, 92
2, 362303, Note_on_c, 0, 59, 0
2, 362304, Note_on_c, 0, 83, 92
2, 362304, Note_on_c, 0, 58, 92
2, 362330, Note_on_c, 0, 71, 0
2, 362367, Note_on_c, 0, 83, 0
2, 362368, Note_on_c, 0, 81, 92
2, 362431, Note_on_c, 0, 81, 0
2, 362431, Note_on_c, 0, 58, 0
2, 362432, Note_on_c, 0, 79, 92
2, 362432, Note_on_c, 0, 59, 92
2, 362495, Note_on_c, 0, 59, 0
2, 362495, Note_on_c, 0, 79, 0
2, 362496, Note_on_c, 0, 79, 92
2, 362496, Note_on_c, 0, 49, 92
2, 362559, Note_on_c, 0, 49, 0
2, 362559, Note_on_c, 0, 79, 0
2, 362560, Note_on_c, 0, 78, 92
2, 362560, Note_on_c, 0, 50, 92
2, 362623, Note_on_c, 0, 50, 0
2, 362623, Note_on_c, 0, 78, 0
2, 362624, Note_on_c, 0, 76, 92
2, 362624, Note_on_c, 0, 52, 92
2, 362687, Note_on_c, 0, 52, 0
2, 362687, Note_on_c, 0, 76, 0
2, 362688, Note_on_c, 0, 76, 92
2, 362688, Note_on_c, 0, 47, 92
2, 362751, Note_on_c, 0, 76, 0
2, 362752, Note_on_c, 0, 74, 92
2, 362815, Note_on_c, 0, 74, 0
2, 362815, Note_on_c, 0, 47, 0
2, 362816, Note_on_c, 0, 73, 92
2, 362816, Note_on_c, 0, 55, 92
2, 362879, Note_on_c, 0, 55, 0
2, 362879, Note_on_c, 0, 73, 0
2, 362880, Note_on_c, 0, 73, 92
2, 362880, Note_on_c, 0, 46, 92
2, 362943, Note_on_c, 0, 73, 0
2, 362944, Note_on_c, 0, 71, 92
2, 363007, Note_on_c, 0, 71, 0
2, 363007, Note_on_c, 0, 46, 0
2, 363008, Note_on_c, 0, 70, 92
2, 363008, Note_on_c, 0, 55, 92
2, 363071, Note_on_c, 0, 55, 0
2, 363071, Note_on_c, 0, 70, 0
2, 363072, Note_on_c, 0, 70, 92
2, 363072, Note_on_c, 0, 54, 92
2, 363135, Note_on_c, 0, 70, 0
2, 363136, Note_on_c, 0, 68, 92
2, 363199, Note_on_c, 0, 68, 0
2, 363200, Note_on_c, 0, 66, 92
2, 363263, Note_on_c, 0, 66, 0
2, 363263, Note_on_c, 0, 54, 0
2, 363264, Note_on_c, 0, 66, 92
2, 363264, Note_on_c, 0, 50, 92
2, 363327, Note_on_c, 0, 50, 0
2, 363327, Note_on_c, 0, 66, 0
2, 363328, Note_on_c, 0, 64, 92
2, 363328, Note_on_c, 0, 49, 92
2, 363391, Note_on_c, 0, 49, 0
2, 363391, Note_on_c, 0, 64, 0
2, 363392, Note_on_c, 0, 62, 92
2, 363392, Note_on_c, 0, 47, 92
2, 363455, Note_on_c, 0, 47, 0
2, 363455, Note_on_c, 0, 62, 0
2, 363456, Note_on_c, 0, 62, 92
2, 363456, Note_on_c, 0, 54, 92
2, 363519, Note_on_c, 0, 62, 0
2, 363520, Note_on_c, 0, 61, 92
2, 363583, Note_on_c, 0, 61, 0
2, 363583, Note_on_c, 0, 54, 0
2, 363584, Note_on_c, 0, 59, 92
2, 363584, Note_on_c, 0, 42, 92
2, 363647, Note_on_c, 0, 42, 0
2, 363647, Note_on_c, 0, 59, 0
2, 363648, Note_on_c, 0, 59, 92
2, 363648, Note_on_c, 0, 47, 92
2, 363711, Note_on_c, 0, 47, 0
2, 363712, Note_on_c, 0, 50, 92
2, 363775, Note_on_c, 0, 50, 0
2, 363776, Note_on_c, 0, 54, 92
2, 363838, Note_on_c, 0, 59, 0
2, 363839, Note_on_c, 0, 54, 0
2, 363840, Note_on_c, 0, 57, 92
2, 363903, Note_on_c, 0, 57, 0
2, 363904, Note_on_c, 0, 56, 92
2, 363907, Note_on_c, 0, 69, 92
2, 363948, Note_on_c, 0, 69, 0
2, 363948, Note_on_c, 0, 71, 92
2, 363967, Note_on_c, 0, 56, 0
2, 363968, Note_on_c, 0, 54, 92
2, 363989, Note_on_c, 0, 71, 0
2, 363989, Note_on_c, 0, 72, 92
2, 364031, Note_on_c, 0, 54, 0
2, 364032, Note_on_c, 0, 72, 0
2, 364032, Note_on_c, 0, 74, 92
2, 364032, Note_on_c, 0, 56, 92
2, 364095, Note_on_c, 0, 56, 0
2, 364095, Note_on_c, 0, 74, 0
2, 364096, Note_on_c, 0, 72, 92
2, 364096, Note_on_c, 0, 57, 92
2, 364159, Note_on_c, 0, 57, 0
2, 364159, Note_on_c, 0, 72, 0
2, 364160, Note_on_c, 0, 71, 92
2, 364160, Note_on_c, 0, 59, 92
2, 364223, Note_on_c, 0, 59, 0
2, 364223, Note_on_c, 0, 71, 0
2, 364224, Note_on_c, 0, 77, 92
2, 364224, Note_on_c, 0, 50, 92
2, 364351, Note_on_c, 0, 77, 0
2, 364352, Note_on_c, 0, 69, 92
2, 364415, Note_on_c, 0, 69, 0
2, 364416, Note_on_c, 0, 68, 92
2, 364479, Note_on_c, 0, 50, 0
2, 364480, Note_on_c, 0, 53, 92
2, 364543, Note_on_c, 0, 53, 0
2, 364543, Note_on_c, 0, 68, 0
2, 364544, Note_on_c, 0, 71, 92
2, 364544, Note_on_c, 0, 50, 92
2, 364607, Note_on_c, 0, 50, 0
2, 364607, Note_on_c, 0, 71, 0
2, 364608, Note_on_c, 0, 74, 92
2, 364608, Note_on_c, 0, 47, 92
2, 364671, Note_on_c, 0, 47, 0
2, 364672, Note_on_c, 0, 50, 92
2, 364735, Note_on_c, 0, 50, 0
2, 364736, Note_on_c, 0, 47, 92
2, 364778, Note_on_c, 0, 74, 0
2, 364799, Note_on_c, 0, 47, 0
2, 364800, Note_on_c, 0, 65, 92
2, 364800, Note_on_c, 0, 44, 92
2, 364863, Note_on_c, 0, 44, 0
2, 364863, Note_on_c, 0, 65, 0
2, 364864, Note_on_c, 0, 64, 92
2, 364864, Note_on_c, 0, 47, 92
2, 364927, Note_on_c, 0, 47, 0
2, 364927, Note_on_c, 0, 64, 0
2, 364928, Note_on_c, 0, 65, 92
2, 364928, Note_on_c, 0, 44, 92
2, 364991, Note_on_c, 0, 44, 0
2, 364991, Note_on_c, 0, 65, 0
2, 364992, Note_on_c, 0, 74, 92
2, 364992, Note_on_c, 0, 40, 92
2, 365055, Note_on_c, 0, 74, 0
2, 365056, Note_on_c, 0, 72, 92
2, 365119, Note_on_c, 0, 72, 0
2, 365119, Note_on_c, 0, 40, 0
2, 365120, Note_on_c, 0, 71, 92
2, 365120, Note_on_c, 0, 56, 92
2, 365183, Note_on_c, 0, 56, 0
2, 365183, Note_on_c, 0, 71, 0
2, 365184, Note_on_c, 0, 64, 92
2, 365184, Note_on_c, 0, 57, 92
2, 365247, Note_on_c, 0, 57, 0
2, 365247, Note_on_c, 0, 64, 0
2, 365248, Note_on_c, 0, 63, 92
2, 365248, Note_on_c, 0, 59, 92
2, 365311, Note_on_c, 0, 59, 0
2, 365311, Note_on_c, 0, 63, 0
2, 365312, Note_on_c, 0, 64, 92
2, 365312, Note_on_c, 0, 60, 92
2, 365375, Note_on_c, 0, 60, 0
2, 365375, Note_on_c, 0, 64, 0
2, 365376, Note_on_c, 0, 72, 92
2, 365376, Note_on_c, 0, 55, 92
2, 365439, Note_on_c, 0, 72, 0
2, 365440, Note_on_c, 0, 71, 92
2, 365503, Note_on_c, 0, 71, 0
2, 365503, Note_on_c, 0, 55, 0
2, 365504, Note_on_c, 0, 69, 92
2, 365504, Note_on_c, 0, 60, 92
2, 365567, Note_on_c, 0, 60, 0
2, 365567, Note_on_c, 0, 69, 0
2, 365568, Note_on_c, 0, 62, 92
2, 365568, Note_on_c, 0, 54, 92
2, 365631, Note_on_c, 0, 62, 0
2, 365632, Note_on_c, 0, 64, 92
2, 365695, Note_on_c, 0, 64, 0
2, 365695, Note_on_c, 0, 54, 0
2, 365696, Note_on_c, 0, 62, 92
2, 365696, Note_on_c, 0, 60, 92
2, 365759, Note_on_c, 0, 60, 0
2, 365759, Note_on_c, 0, 62, 0
2, 365760, Note_on_c, 0, 72, 92
2, 365760, Note_on_c, 0, 51, 92
2, 365823, Note_on_c, 0, 72, 0
2, 365824, Note_on_c, 0, 71, 92
2, 365887, Note_on_c, 0, 71, 0
2, 365887, Note_on_c, 0, 51, 0
2, 365888, Note_on_c, 0, 69, 92
2, 365888, Note_on_c, 0, 59, 92
2, 365951, Note_on_c, 0, 59, 0
2, 365951, Note_on_c, 0, 69, 0
2, 365952, Note_on_c, 0, 67, 92
2, 365952, Note_on_c, 0, 52, 92
2, 366015, Note_on_c, 0, 67, 0
2, 366016, Note_on_c, 0, 66, 92
2, 366079, Note_on_c, 0, 66, 0
2, 366079, Note_on_c, 0, 52, 0
2, 366080, Note_on_c, 0, 67, 92
2, 366080, Note_on_c, 0, 59, 92
2, 366143, Note_on_c, 0, 59, 0
2, 366143, Note_on_c, 0, 67, 0
2, 366144, Note_on_c, 0, 71, 92
2, 366144, Note_on_c, 0, 55, 92
2, 366207, Note_on_c, 0, 71, 0
2, 366208, Note_on_c, 0, 75, 92
2, 366271, Note_on_c, 0, 75, 0
2, 366271, Note_on_c, 0, 55, 0
2, 366272, Note_on_c, 0, 76, 92
2, 366272, Note_on_c, 0, 52, 92
2, 366335, Note_on_c, 0, 52, 0
2, 366335, Note_on_c, 0, 76, 0
2, 366336, Note_on_c, 0, 69, 92
2, 366336, Note_on_c, 0, 47, 92
2, 366399, Note_on_c, 0, 69, 0
2, 366400, Note_on_c, 0, 71, 92
2, 366463, Note_on_c, 0, 71, 0
2, 366463, Note_on_c, 0, 47, 0
2, 366464, Note_on_c, 0, 69, 92
2, 366464, Note_on_c, 0, 57, 92
2, 366527, Note_on_c, 0, 57, 0
2, 366527, Note_on_c, 0, 69, 0
2, 366528, Note_on_c, 0, 79, 92
2, 366528, Note_on_c, 0, 49, 92
2, 366591, Note_on_c, 0, 79, 0
2, 366592, Note_on_c, 0, 78, 92
2, 366655, Note_on_c, 0, 78, 0
2, 366655, Note_on_c, 0, 49, 0
2, 366656, Note_on_c, 0, 76, 92
2, 366656, Note_on_c, 0, 58, 92
2, 366719, Note_on_c, 0, 58, 0
2, 366719, Note_on_c, 0, 76, 0
2, 366720, Note_on_c, 0, 75, 92
2, 366720, Note_on_c, 0, 59, 92
2, 366783, Note_on_c, 0, 75, 0
2, 366784, Note_on_c, 0, 76, 92
2, 366847, Note_on_c, 0, 76, 0
2, 366848, Note_on_c, 0, 78, 92
2, 366911, Note_on_c, 0, 78, 0
2, 366912, Note_on_c, 0, 71, 92
2, 366940, Note_on_c, 0, 59, 0
2, 366976, Note_on_c, 0, 63, 92
2, 367017, Note_on_c, 0, 63, 0
2, 367018, Note_on_c, 0, 64, 92
2, 367059, Note_on_c, 0, 64, 0
2, 367060, Note_on_c, 0, 66, 92
2, 367103, Note_on_c, 0, 66, 0
2, 367103, Note_on_c, 0, 71, 0
2, 367104, Note_on_c, 0, 76, 92
2, 367104, Note_on_c, 0, 67, 92
2, 367167, Note_on_c, 0, 67, 0
2, 367167, Note_on_c, 0, 76, 0
2, 367168, Note_on_c, 0, 78, 92
2, 367168, Note_on_c, 0, 66, 92
2, 367231, Note_on_c, 0, 66, 0
2, 367231, Note_on_c, 0, 78, 0
2, 367232, Note_on_c, 0, 79, 92
2, 367232, Note_on_c, 0, 64, 92
2, 367295, Note_on_c, 0, 64, 0
2, 367295, Note_on_c, 0, 79, 0
2, 367296, Note_on_c, 0, 71, 92
2, 367296, Note_on_c, 0, 64, 92
2, 367359, Note_on_c, 0, 64, 0
2, 367360, Note_on_c, 0, 62, 92
2, 367423, Note_on_c, 0, 62, 0
2, 367423, Note_on_c, 0, 71, 0
2, 367424, Note_on_c, 0, 79, 92
2, 367424, Note_on_c, 0, 61, 92
2, 367487, Note_on_c, 0, 61, 0
2, 367487, Note_on_c, 0, 79, 0
2, 367488, Note_on_c, 0, 69, 92
2, 367488, Note_on_c, 0, 61, 92
2, 367551, Note_on_c, 0, 61, 0
2, 367552, Note_on_c, 0, 59, 92
2, 367615, Note_on_c, 0, 59, 0
2, 367615, Note_on_c, 0, 69, 0
2, 367616, Note_on_c, 0, 79, 92
2, 367616, Note_on_c, 0, 57, 92
2, 367679, Note_on_c, 0, 57, 0
2, 367679, Note_on_c, 0, 79, 0
2, 367680, Note_on_c, 0, 78, 92
2, 367680, Note_on_c, 0, 57, 92
2, 367743, Note_on_c, 0, 57, 0
2, 367744, Note_on_c, 0, 55, 92
2, 367807, Note_on_c, 0, 55, 0
2, 367808, Note_on_c, 0, 54, 92
2, 367840, Note_on_c, 0, 78, 0
2, 367871, Note_on_c, 0, 54, 0
2, 367872, Note_on_c, 0, 74, 92
2, 367872, Note_on_c, 0, 54, 92
2, 367935, Note_on_c, 0, 54, 0
2, 367935, Note_on_c, 0, 74, 0
2, 367936, Note_on_c, 0, 72, 92
2, 367936, Note_on_c, 0, 52, 92
2, 367999, Note_on_c, 0, 52, 0
2, 367999, Note_on_c, 0, 72, 0
2, 368000, Note_on_c, 0, 71, 92
2, 368000, Note_on_c, 0, 50, 92
2, 368063, Note_on_c, 0, 50, 0
2, 368063, Note_on_c, 0, 71, 0
2, 368064, Note_on_c, 0, 77, 92
2, 368064, Note_on_c, 0, 50, 92
2, 368127, Note_on_c, 0, 50, 0
2, 368128, Note_on_c, 0, 48, 92
2, 368191, Note_on_c, 0, 48, 0
2, 368191, Note_on_c, 0, 77, 0
2, 368192, Note_on_c, 0, 67, 92
2, 368192, Note_on_c, 0, 47, 92
2, 368255, Note_on_c, 0, 47, 0
2, 368255, Note_on_c, 0, 67, 0
2, 368256, Note_on_c, 0, 74, 92
2, 368256, Note_on_c, 0, 47, 92
2, 368319, Note_on_c, 0, 47, 0
2, 368320, Note_on_c, 0, 45, 92
2, 368383, Note_on_c, 0, 45, 0
2, 368383, Note_on_c, 0, 74, 0
2, 368384, Note_on_c, 0, 77, 92
2, 368384, Note_on_c, 0, 43, 92
2, 368447, Note_on_c, 0, 43, 0
2, 368447, Note_on_c, 0, 77, 0
2, 368448, Note_on_c, 0, 76, 92
2, 368448, Note_on_c, 0, 48, 92
2, 368511, Note_on_c, 0, 48, 0
2, 368512, Note_on_c, 0, 43, 92
2, 368575, Note_on_c, 0, 43, 0
2, 368576, Note_on_c, 0, 40, 92
2, 368639, Note_on_c, 0, 40, 0
2, 368640, Note_on_c, 0, 37, 92
2, 368703, Note_on_c, 0, 37, 0
2, 368704, Note_on_c, 0, 40, 92
2, 368767, Note_on_c, 0, 40, 0
2, 368767, Note_on_c, 0, 76, 0
2, 368768, Note_on_c, 0, 76, 92
2, 368768, Note_on_c, 0, 43, 92
2, 368831, Note_on_c, 0, 43, 0
2, 368831, Note_on_c, 0, 76, 0
2, 368832, Note_on_c, 0, 75, 92
2, 368832, Note_on_c, 0, 46, 92
2, 368895, Note_on_c, 0, 46, 0
2, 368896, Note_on_c, 0, 47, 92
2, 368959, Note_on_c, 0, 47, 0
2, 368959, Note_on_c, 0, 75, 0
2, 368960, Note_on_c, 0, 76, 92
2, 368960, Note_on_c, 0, 49, 92
2, 369023, Note_on_c, 0, 49, 0
2, 369023, Note_on_c, 0, 76, 0
2, 369024, Note_on_c, 0, 66, 92
2, 369024, Note_on_c, 0, 48, 92
2, 369087, Note_on_c, 0, 48, 0
2, 369088, Note_on_c, 0, 51, 92
2, 369151, Note_on_c, 0, 51, 0
2, 369151, Note_on_c, 0, 66, 0
2, 369152, Note_on_c, 0, 76, 92
2, 369152, Note_on_c, 0, 54, 92
2, 369215, Note_on_c, 0, 54, 0
2, 369215, Note_on_c, 0, 76, 0
2, 369216, Note_on_c, 0, 75, 92
2, 369216, Note_on_c, 0, 57, 92
2, 369279, Note_on_c, 0, 57, 0
2, 369280, Note_on_c, 0, 59, 92
2, 369343, Note_on_c, 0, 59, 0
2, 369343, Note_on_c, 0, 75, 0
2, 369344, Note_on_c, 0, 76, 92
2, 369344, Note_on_c, 0, 60, 92
2, 369407, Note_on_c, 0, 60, 0
2, 369407, Note_on_c, 0, 76, 0
2, 369408, Note_on_c, 0, 67, 92
2, 369408, Note_on_c, 0, 59, 92
2, 369471, Note_on_c, 0, 59, 0
2, 369472, Note_on_c, 0, 57, 92
2, 369535, Note_on_c, 0, 57, 0
2, 369535, Note_on_c, 0, 67, 0
2, 369536, Note_on_c, 0, 76, 92
2, 369536, Note_on_c, 0, 55, 92
2, 369599, Note_on_c, 0, 55, 0
2, 369599, Note_on_c, 0, 76, 0
2, 369600, Note_on_c, 0, 75, 92
2, 369600, Note_on_c, 0, 54, 92
2, 369663, Note_on_c, 0, 54, 0
2, 369664, Note_on_c, 0, 55, 92
2, 369727, Note_on_c, 0, 55, 0
2, 369727, Note_on_c, 0, 75, 0
2, 369728, Note_on_c, 0, 76, 92
2, 369728, Note_on_c, 0, 52, 92
2, 369791, Note_on_c, 0, 52, 0
2, 369791, Note_on_c, 0, 76, 0
2, 369792, Note_on_c, 0, 69, 92
2, 369792, Note_on_c, 0, 60, 92
2, 369855, Note_on_c, 0, 60, 0
2, 369856, Note_on_c, 0, 59, 92
2, 369919, Note_on_c, 0, 59, 0
2, 369919, Note_on_c, 0, 69, 0
2, 369920, Note_on_c, 0, 76, 92
2, 369920, Note_on_c, 0, 57, 92
2, 369983, Note_on_c, 0, 57, 0
2, 369983, Note_on_c, 0, 76, 0
2, 369984, Note_on_c, 0, 75, 92
2, 369984, Note_on_c, 0, 55, 92
2, 370047, Note_on_c, 0, 55, 0
2, 370048, Note_on_c, 0, 54, 92
2, 370111, Note_on_c, 0, 54, 0
2, 370111, Note_on_c, 0, 75, 0
2, 370112, Note_on_c, 0, 76, 92
2, 370112, Note_on_c, 0, 52, 92
2, 370175, Note_on_c, 0, 52, 0
2, 370175, Note_on_c, 0, 76, 0
2, 370176, Note_on_c, 0, 71, 92
2, 370176, Note_on_c, 0, 51, 92
2, 370239, Note_on_c, 0, 71, 0
2, 370240, Note_on_c, 0, 73, 92
2, 370303, Note_on_c, 0, 73, 0
2, 370303, Note_on_c, 0, 51, 0
2, 370304, Note_on_c, 0, 75, 92
2, 370304, Note_on_c, 0, 47, 92
2, 370367, Note_on_c, 0, 47, 0
2, 370367, Note_on_c, 0, 75, 0
2, 370368, Note_on_c, 0, 75, 92
2, 370368, Note_on_c, 0, 54, 92
2, 370431, Note_on_c, 0, 75, 0
2, 370432, Note_on_c, 0, 76, 92
2, 370495, Note_on_c, 0, 76, 0
2, 370495, Note_on_c, 0, 54, 0
2, 370496, Note_on_c, 0, 78, 92
2, 370496, Note_on_c, 0, 47, 92
2, 370559, Note_on_c, 0, 47, 0
2, 370559, Note_on_c, 0, 78, 0
2, 370560, Note_on_c, 0, 78, 92
2, 370560, Note_on_c, 0, 57, 92
2, 370623, Note_on_c, 0, 78, 0
2, 370624, Note_on_c, 0, 79, 92
2, 370687, Note_on_c, 0, 79, 0
2, 370687, Note_on_c, 0, 57, 0
2, 370688, Note_on_c, 0, 81, 92
2, 370688, Note_on_c, 0, 51, 92
2, 370751, Note_on_c, 0, 51, 0
2, 370751, Note_on_c, 0, 81, 0
2, 370752, Note_on_c, 0, 83, 92
2, 370752, Note_on_c, 0, 55, 92
2, 370815, Note_on_c, 0, 83, 0
2, 370816, Note_on_c, 0, 81, 92
2, 370879, Note_on_c, 0, 81, 0
2, 370879, Note_on_c, 0, 55, 0
2, 370880, Note_on_c, 0, 79, 92
2, 370880, Note_on_c, 0, 52, 92
2, 370943, Note_on_c, 0, 52, 0
2, 370943, Note_on_c, 0, 79, 0
2, 370944, Note_on_c, 0, 78, 92
2, 370944, Note_on_c, 0, 57, 92
2, 371007, Note_on_c, 0, 57, 0
2, 371007, Note_on_c, 0, 78, 0
2, 371008, Note_on_c, 0, 79, 92
2, 371008, Note_on_c, 0, 59, 92
2, 371071, Note_on_c, 0, 59, 0
2, 371071, Note_on_c, 0, 79, 0
2, 371072, Note_on_c, 0, 76, 92
2, 371072, Note_on_c, 0, 60, 92
2, 371135, Note_on_c, 0, 60, 0
2, 371135, Note_on_c, 0, 76, 0
2, 371136, Note_on_c, 0, 71, 92
2, 371136, Note_on_c, 0, 59, 92
2, 371199, Note_on_c, 0, 59, 0
2, 371199, Note_on_c, 0, 71, 0
2, 371200, Note_on_c, 0, 76, 92
2, 371200, Note_on_c, 0, 60, 92
2, 371263, Note_on_c, 0, 60, 0
2, 371263, Note_on_c, 0, 76, 0
2, 371264, Note_on_c, 0, 75, 92
2, 371264, Note_on_c, 0, 59, 92
2, 371327, Note_on_c, 0, 59, 0
2, 371327, Note_on_c, 0, 75, 0
2, 371328, Note_on_c, 0, 75, 92
2, 371328, Note_on_c, 0, 52, 92
2, 371391, Note_on_c, 0, 52, 0
2, 371392, Note_on_c, 0, 55, 92
2, 371455, Note_on_c, 0, 55, 0
2, 371455, Note_on_c, 0, 75, 0
2, 371456, Note_on_c, 0, 76, 92
2, 371456, Note_on_c, 0, 59, 92
2, 371519, Note_on_c, 0, 59, 0
2, 371520, Note_on_c, 0, 64, 92
2, 372187, Note_on_c, 0, 64, 0
2, 372223, Note_on_c, 0, 76, 0
2, 374016, Note_on_c, 0, 64, 92
2, 374101, Note_on_c, 0, 64, 0
2, 374112, Note_on_c, 0, 66, 92
2, 374372, Note_on_c, 0, 66, 0
2, 374400, Note_on_c, 0, 63, 92
2, 374485, Note_on_c, 0, 63, 0
2, 374496, Note_on_c, 0, 72, 92
2, 374756, Note_on_c, 0, 72, 0
2, 374784, Note_on_c, 0, 69, 92
2, 374872, Note_on_c, 0, 69, 0
2, 374880, Note_on_c, 0, 71, 92
2, 375140, Note_on_c, 0, 71, 0
2, 375168, Note_on_c, 0, 68, 92
2, 375256, Note_on_c, 0, 68, 0
2, 375264, Note_on_c, 0, 77, 92
2, 375524, Note_on_c, 0, 77, 0
2, 375552, Note_on_c, 0, 75, 92
2, 375642, Note_on_c, 0, 75, 0
2, 375648, Note_on_c, 0, 76, 92
2, 375908, Note_on_c, 0, 76, 0
2, 375936, Note_on_c, 0, 69, 92
2, 376029, Note_on_c, 0, 69, 0
2, 376032, Note_on_c, 0, 67, 92
2, 376414, Note_on_c, 0, 67, 0
2, 376416, Note_on_c, 0, 67, 92
2, 376462, Note_on_c, 0, 67, 0
2, 376464, Note_on_c, 0, 66, 92
2, 376510, Note_on_c, 0, 66, 0
2, 376512, Note_on_c, 0, 67, 92
2, 376558, Note_on_c, 0, 67, 0
2, 376560, Note_on_c, 0, 66, 92
2, 376606, Note_on_c, 0, 66, 0
2, 376608, Note_on_c, 0, 67, 92
2, 376654, Note_on_c, 0, 67, 0
2, 376656, Note_on_c, 0, 66, 92
2, 376702, Note_on_c, 0, 66, 0
2, 376704, Note_on_c, 0, 67, 92
2, 376750, Note_on_c, 0, 67, 0
2, 376752, Note_on_c, 0, 66, 92
2, 376798, Note_on_c, 0, 66, 0
2, 376800, Note_on_c, 0, 64, 92
2, 376894, Note_on_c, 0, 64, 0
2, 376896, Note_on_c, 0, 66, 92
2, 376990, Note_on_c, 0, 66, 0
2, 376992, Note_on_c, 0, 67, 92
2, 377088, Note_on_c, 0, 71, 92
2, 377176, Note_on_c, 0, 71, 0
2, 377184, Note_on_c, 0, 73, 92
2, 377278, Note_on_c, 0, 67, 0
2, 377280, Note_on_c, 0, 64, 92
2, 377374, Note_on_c, 0, 64, 0
2, 377376, Note_on_c, 0, 66, 92
2, 377454, Note_on_c, 0, 73, 0
2, 377472, Note_on_c, 0, 70, 92
2, 377560, Note_on_c, 0, 70, 0
2, 377568, Note_on_c, 0, 79, 92
2, 377662, Note_on_c, 0, 66, 0
2, 377664, Note_on_c, 0, 63, 92
2, 377758, Note_on_c, 0, 63, 0
2, 377760, Note_on_c, 0, 64, 92
2, 377838, Note_on_c, 0, 79, 0
2, 377856, Note_on_c, 0, 76, 92
2, 377944, Note_on_c, 0, 76, 0
2, 377952, Note_on_c, 0, 78, 92
2, 378046, Note_on_c, 0, 64, 0
2, 378048, Note_on_c, 0, 57, 92
2, 378142, Note_on_c, 0, 57, 0
2, 378144, Note_on_c, 0, 69, 92
2, 378222, Note_on_c, 0, 78, 0
2, 378240, Note_on_c, 0, 75, 92
2, 378328, Note_on_c, 0, 75, 0
2, 378336, Note_on_c, 0, 84, 92
2, 378430, Note_on_c, 0, 69, 0
2, 378432, Note_on_c, 0, 66, 92
2, 378526, Note_on_c, 0, 66, 0
2, 378528, Note_on_c, 0, 67, 92
2, 378606, Note_on_c, 0, 84, 0
2, 378624, Note_on_c, 0, 82, 92
2, 378712, Note_on_c, 0, 82, 0
2, 378720, Note_on_c, 0, 83, 92
2, 378814, Note_on_c, 0, 67, 0
2, 378816, Note_on_c, 0, 64, 92
2, 378910, Note_on_c, 0, 64, 0
2, 378912, Note_on_c, 0, 66, 92
2, 378990, Note_on_c, 0, 83, 0
2, 379008, Note_on_c, 0, 76, 92
2, 379096, Note_on_c, 0, 76, 0
2, 379104, Note_on_c, 0, 74, 92
2, 379198, Note_on_c, 0, 66, 0
2, 379200, Note_on_c, 0, 59, 92
2, 379294, Note_on_c, 0, 59, 0
2, 379296, Note_on_c, 0, 71, 92
2, 379486, Note_on_c, 0, 74, 0
2, 379488, Note_on_c, 0, 74, 92
2, 379534, Note_on_c, 0, 74, 0
2, 379536, Note_on_c, 0, 73, 92
2, 379582, Note_on_c, 0, 73, 0
2, 379582, Note_on_c, 0, 71, 0
2, 379584, Note_on_c, 0, 68, 92
2, 379584, Note_on_c, 0, 74, 92
2, 379630, Note_on_c, 0, 74, 0
2, 379632, Note_on_c, 0, 73, 92
2, 379678, Note_on_c, 0, 73, 0
2, 379678, Note_on_c, 0, 68, 0
2, 379680, Note_on_c, 0, 70, 92
2, 379680, Note_on_c, 0, 74, 92
2, 379726, Note_on_c, 0, 74, 0
2, 379728, Note_on_c, 0, 73, 92
2, 379774, Note_on_c, 0, 73, 0
2, 379776, Note_on_c, 0, 71, 92
2, 379822, Note_on_c, 0, 71, 0
2, 379824, Note_on_c, 0, 73, 92
2, 379870, Note_on_c, 0, 73, 0
2, 379870, Note_on_c, 0, 70, 0
2, 379872, Note_on_c, 0, 71, 92
2, 379968, Note_on_c, 0, 73, 92
2, 380062, Note_on_c, 0, 73, 0
2, 380064, Note_on_c, 0, 74, 92
2, 380158, Note_on_c, 0, 71, 0
2, 380160, Note_on_c, 0, 69, 92
2, 380254, Note_on_c, 0, 69, 0
2, 380256, Note_on_c, 0, 68, 92
2, 380350, Note_on_c, 0, 74, 0
2, 380352, Note_on_c, 0, 65, 92
2, 380446, Note_on_c, 0, 65, 0
2, 380448, Note_on_c, 0, 74, 92
2, 380542, Note_on_c, 0, 68, 0
2, 380544, Note_on_c, 0, 64, 92
2, 380638, Note_on_c, 0, 64, 0
2, 380640, Note_on_c, 0, 69, 92
2, 380734, Note_on_c, 0, 74, 0
2, 380736, Note_on_c, 0, 71, 92
2, 380830, Note_on_c, 0, 71, 0
2, 380832, Note_on_c, 0, 72, 92
2, 380926, Note_on_c, 0, 69, 0
2, 380928, Note_on_c, 0, 67, 92
2, 381022, Note_on_c, 0, 67, 0
2, 381024, Note_on_c, 0, 66, 92
2, 381118, Note_on_c, 0, 72, 0
2, 381120, Note_on_c, 0, 63, 92
2, 381214, Note_on_c, 0, 63, 0
2, 381216, Note_on_c, 0, 72, 92
2, 381310, Note_on_c, 0, 66, 0
2, 381312, Note_on_c, 0, 62, 92
2, 381406, Note_on_c, 0, 62, 0
2, 381408, Note_on_c, 0, 67, 92
2, 381502, Note_on_c, 0, 72, 0
2, 381504, Note_on_c, 0, 69, 92
2, 381598, Note_on_c, 0, 69, 0
2, 381600, Note_on_c, 0, 71, 92
2, 381694, Note_on_c, 0, 67, 0
2, 381696, Note_on_c, 0, 66, 92
2, 381790, Note_on_c, 0, 66, 0
2, 381792, Note_on_c, 0, 64, 92
2, 381886, Note_on_c, 0, 71, 0
2, 381888, Note_on_c, 0, 78, 92
2, 381982, Note_on_c, 0, 78, 0
2, 381984, Note_on_c, 0, 79, 92
2, 382078, Note_on_c, 0, 64, 0
2, 382080, Note_on_c, 0, 61, 92
2, 382174, Note_on_c, 0, 61, 0
2, 382176, Note_on_c, 0, 66, 92
2, 382270, Note_on_c, 0, 79, 0
2, 382272, Note_on_c, 0, 67, 92
2, 382366, Note_on_c, 0, 67, 0
2, 382368, Note_on_c, 0, 69, 92
2, 382462, Note_on_c, 0, 66, 0
2, 382464, Note_on_c, 0, 64, 92
2, 382558, Note_on_c, 0, 64, 0
2, 382560, Note_on_c, 0, 63, 92
2, 382654, Note_on_c, 0, 69, 0
2, 382656, Note_on_c, 0, 76, 92
2, 382750, Note_on_c, 0, 76, 0
2, 382752, Note_on_c, 0, 78, 92
2, 382846, Note_on_c, 0, 63, 0
2, 382848, Note_on_c, 0, 59, 92
2, 382942, Note_on_c, 0, 59, 0
2, 382944, Note_on_c, 0, 64, 92
2, 383038, Note_on_c, 0, 78, 0
2, 383040, Note_on_c, 0, 66, 92
2, 383134, Note_on_c, 0, 66, 0
2, 383136, Note_on_c, 0, 67, 92
2, 383230, Note_on_c, 0, 67, 0
2, 383232, Note_on_c, 0, 52, 92
2, 383232, Note_on_c, 0, 72, 92
2, 383326, Note_on_c, 0, 52, 0
2, 383326, Note_on_c, 0, 64, 0
2, 383328, Note_on_c, 0, 54, 92
2, 383328, Note_on_c, 0, 63, 92
2, 383422, Note_on_c, 0, 72, 0
2, 383424, Note_on_c, 0, 69, 92
2, 383518, Note_on_c, 0, 69, 0
2, 383520, Note_on_c, 0, 71, 92
2, 383614, Note_on_c, 0, 63, 0
2, 383614, Note_on_c, 0, 54, 0
2, 383616, Note_on_c, 0, 51, 92
2, 383616, Note_on_c, 0, 66, 92
2, 383710, Note_on_c, 0, 66, 0
2, 383710, Note_on_c, 0, 51, 0
2, 383712, Note_on_c, 0, 60, 92
2, 383712, Note_on_c, 0, 64, 92
2, 383806, Note_on_c, 0, 71, 0
2, 383808, Note_on_c, 0, 68, 92
2, 383902, Note_on_c, 0, 68, 0
2, 383904, Note_on_c, 0, 69, 92
2, 383998, Note_on_c, 0, 64, 0
2, 383998, Note_on_c, 0, 60, 0
2, 384000, Note_on_c, 0, 57, 92
2, 384000, Note_on_c, 0, 72, 92
2, 384094, Note_on_c, 0, 72, 0
2, 384094, Note_on_c, 0, 57, 0
2, 384096, Note_on_c, 0, 59, 92
2, 384096, Note_on_c, 0, 65, 92
2, 384190, Note_on_c, 0, 65, 0
2, 384192, Note_on_c, 0, 62, 92
2, 384286, Note_on_c, 0, 69, 0
2, 384288, Note_on_c, 0, 74, 92
2, 384382, Note_on_c, 0, 62, 0
2, 384382, Note_on_c, 0, 59, 0
2, 384384, Note_on_c, 0, 56, 92
2, 384384, Note_on_c, 0, 71, 92
2, 384478, Note_on_c, 0, 71, 0
2, 384478, Note_on_c, 0, 56, 0
2, 384480, Note_on_c, 0, 65, 92
2, 384480, Note_on_c, 0, 68, 92
2, 384574, Note_on_c, 0, 74, 0
2, 384576, Note_on_c, 0, 71, 92
2, 384670, Note_on_c, 0, 71, 0
2, 384672, Note_on_c, 0, 72, 92
2, 384766, Note_on_c, 0, 68, 0
2, 384766, Note_on_c, 0, 65, 0
2, 384768, Note_on_c, 0, 63, 92
2, 384768, Note_on_c, 0, 69, 92
2, 384814, Note_on_c, 0, 69, 0
2, 384816, Note_on_c, 0, 66, 92
2, 384862, Note_on_c, 0, 66, 0
2, 384862, Note_on_c, 0, 63, 0
2, 384864, Note_on_c, 0, 64, 92
2, 384864, Note_on_c, 0, 67, 92
2, 384958, Note_on_c, 0, 72, 0
2, 384960, Note_on_c, 0, 69, 92
2, 385054, Note_on_c, 0, 69, 0
2, 385056, Note_on_c, 0, 71, 92
2, 385150, Note_on_c, 0, 67, 0
2, 385150, Note_on_c, 0, 64, 0
2, 385152, Note_on_c, 0, 57, 92
2, 385152, Note_on_c, 0, 75, 92
2, 385246, Note_on_c, 0, 75, 0
2, 385246, Note_on_c, 0, 57, 0
2, 385248, Note_on_c, 0, 55, 92
2, 385248, Note_on_c, 0, 76, 92
2, 385342, Note_on_c, 0, 71, 0
2, 385344, Note_on_c, 0, 64, 92
2, 385438, Note_on_c, 0, 64, 0
2, 385438, Note_on_c, 0, 76, 0
2, 385440, Note_on_c, 0, 76, 92
2, 385536, Note_on_c, 0, 72, 92
2, 385630, Note_on_c, 0, 72, 0
2, 385630, Note_on_c, 0, 55, 0
2, 385632, Note_on_c, 0, 55, 92
2, 385632, Note_on_c, 0, 69, 92
2, 385694, Note_on_c, 0, 55, 0
2, 385696, Note_on_c, 0, 54, 92
2, 385726, Note_on_c, 0, 76, 0
2, 385728, Note_on_c, 0, 73, 92
2, 385758, Note_on_c, 0, 54, 0
2, 385760, Note_on_c, 0, 55, 92
2, 385822, Note_on_c, 0, 55, 0
2, 385822, Note_on_c, 0, 73, 0
2, 385824, Note_on_c, 0, 54, 92
2, 385824, Note_on_c, 0, 75, 92
2, 385886, Note_on_c, 0, 54, 0
2, 385888, Note_on_c, 0, 52, 92
2, 385918, Note_on_c, 0, 69, 0
2, 385920, Note_on_c, 0, 71, 92
2, 385950, Note_on_c, 0, 52, 0
2, 385952, Note_on_c, 0, 54, 92
2, 386014, Note_on_c, 0, 54, 0
2, 386014, Note_on_c, 0, 71, 0
2, 386014, Note_on_c, 0, 75, 0
2, 386016, Note_on_c, 0, 52, 92
2, 386016, Note_on_c, 0, 67, 92
2, 386016, Note_on_c, 0, 76, 92
2, 386112, Note_on_c, 0, 40, 92
2, 386206, Note_on_c, 0, 40, 0
2, 386206, Note_on_c, 0, 52, 0
2, 386206, Note_on_c, 0, 67, 0
2, 386208, Note_on_c, 0, 52, 92
2, 386208, Note_on_c, 0, 71, 92
2, 386302, Note_on_c, 0, 76, 0
2, 386304, Note_on_c, 0, 79, 92
2, 386398, Note_on_c, 0, 79, 0
2, 386398, Note_on_c, 0, 71, 0
2, 386400, Note_on_c, 0, 69, 92
2, 386400, Note_on_c, 0, 78, 92
2, 386494, Note_on_c, 0, 52, 0
2, 386496, Note_on_c, 0, 49, 92
2, 386590, Note_on_c, 0, 49, 0
2, 386590, Note_on_c, 0, 69, 0
2, 386592, Note_on_c, 0, 50, 92
2, 386592, Note_on_c, 0, 71, 92
2, 386686, Note_on_c, 0, 78, 0
2, 386688, Note_on_c, 0, 83, 92
2, 386782, Note_on_c, 0, 83, 0
2, 386782, Note_on_c, 0, 71, 0
2, 386784, Note_on_c, 0, 68, 92
2, 386784, Note_on_c, 0, 76, 92
2, 386830, Note_on_c, 0, 50, 0
2, 386832, Note_on_c, 0, 49, 92
2, 386878, Note_on_c, 0, 49, 0
2, 386880, Note_on_c, 0, 47, 92
2, 386974, Note_on_c, 0, 47, 0
2, 386974, Note_on_c, 0, 68, 0
2, 386976, Note_on_c, 0, 49, 92
2, 386976, Note_on_c, 0, 69, 92
2, 387022, Note_on_c, 0, 49, 0
2, 387024, Note_on_c, 0, 47, 92
2, 387070, Note_on_c, 0, 47, 0
2, 387070, Note_on_c, 0, 76, 0
2, 387072, Note_on_c, 0, 45, 92
2, 387072, Note_on_c, 0, 81, 92
2, 387166, Note_on_c, 0, 81, 0
2, 387166, Note_on_c, 0, 45, 0
2, 387168, Note_on_c, 0, 57, 92
2, 387168, Note_on_c, 0, 73, 92
2, 387214, Note_on_c, 0, 57, 0
2, 387216, Note_on_c, 0, 55, 92
2, 387262, Note_on_c, 0, 55, 0
2, 387262, Note_on_c, 0, 69, 0
2, 387264, Note_on_c, 0, 54, 92
2, 387264, Note_on_c, 0, 76, 92
2, 387358, Note_on_c, 0, 76, 0
2, 387358, Note_on_c, 0, 54, 0
2, 387360, Note_on_c, 0, 55, 92
2, 387360, Note_on_c, 0, 69, 92
2, 387406, Note_on_c, 0, 55, 0
2, 387408, Note_on_c, 0, 54, 92
2, 387454, Note_on_c, 0, 54, 0
2, 387454, Note_on_c, 0, 73, 0
2, 387456, Note_on_c, 0, 52, 92
2, 387456, Note_on_c, 0, 79, 92
2, 387550, Note_on_c, 0, 79, 0
2, 387550, Note_on_c, 0, 52, 0
2, 387552, Note_on_c, 0, 50, 92
2, 387552, Note_on_c, 0, 78, 92
2, 387648, Note_on_c, 0, 38, 92
2, 387742, Note_on_c, 0, 38, 0
2, 387742, Note_on_c, 0, 69, 0
2, 387742, Note_on_c, 0, 50, 0
2, 387744, Note_on_c, 0, 50, 92
2, 387744, Note_on_c, 0, 71, 92
2, 387838, Note_on_c, 0, 78, 0
2, 387840, Note_on_c, 0, 78, 92
2, 387934, Note_on_c, 0, 78, 0
2, 387934, Note_on_c, 0, 71, 0
2, 387936, Note_on_c, 0, 67, 92
2, 387936, Note_on_c, 0, 76, 92
2, 388030, Note_on_c, 0, 50, 0
2, 388032, Note_on_c, 0, 47, 92
2, 388126, Note_on_c, 0, 47, 0
2, 388126, Note_on_c, 0, 67, 0
2, 388128, Note_on_c, 0, 48, 92
2, 388128, Note_on_c, 0, 69, 92
2, 388222, Note_on_c, 0, 76, 0
2, 388224, Note_on_c, 0, 81, 92
2, 388318, Note_on_c, 0, 81, 0
2, 388318, Note_on_c, 0, 69, 0
2, 388320, Note_on_c, 0, 66, 92
2, 388320, Note_on_c, 0, 74, 92
2, 388366, Note_on_c, 0, 48, 0
2, 388368, Note_on_c, 0, 47, 92
2, 388414, Note_on_c, 0, 47, 0
2, 388416, Note_on_c, 0, 45, 92
2, 388510, Note_on_c, 0, 45, 0
2, 388510, Note_on_c, 0, 66, 0
2, 388512, Note_on_c, 0, 47, 92
2, 388512, Note_on_c, 0, 67, 92
2, 388558, Note_on_c, 0, 47, 0
2, 388560, Note_on_c, 0, 45, 92
2, 388606, Note_on_c, 0, 45, 0
2, 388606, Note_on_c, 0, 74, 0
2, 388608, Note_on_c, 0, 43, 92
2, 388608, Note_on_c, 0, 79, 92
2, 388702, Note_on_c, 0, 79, 0
2, 388702, Note_on_c, 0, 43, 0
2, 388704, Note_on_c, 0, 55, 92
2, 388704, Note_on_c, 0, 71, 92
2, 388750, Note_on_c, 0, 55, 0
2, 388752, Note_on_c, 0, 53, 92
2, 388798, Note_on_c, 0, 53, 0
2, 388798, Note_on_c, 0, 67, 0
2, 388800, Note_on_c, 0, 52, 92
2, 388800, Note_on_c, 0, 74, 92
2, 388894, Note_on_c, 0, 74, 0
2, 388894, Note_on_c, 0, 52, 0
2, 388896, Note_on_c, 0, 53, 92
2, 388896, Note_on_c, 0, 67, 92
2, 388942, Note_on_c, 0, 53, 0
2, 388944, Note_on_c, 0, 52, 92
2, 388990, Note_on_c, 0, 52, 0
2, 388990, Note_on_c, 0, 71, 0
2, 388992, Note_on_c, 0, 50, 92
2, 388992, Note_on_c, 0, 77, 92
2, 389086, Note_on_c, 0, 77, 0
2, 389086, Note_on_c, 0, 50, 0
2, 389088, Note_on_c, 0, 48, 92
2, 389088, Note_on_c, 0, 76, 92
2, 389134, Note_on_c, 0, 76, 0
2, 389136, Note_on_c, 0, 74, 92
2, 389182, Note_on_c, 0, 74, 0
2, 389182, Note_on_c, 0, 48, 0
2, 389184, Note_on_c, 0, 55, 92
2, 389184, Note_on_c, 0, 72, 92
2, 389230, Note_on_c, 0, 72, 0
2, 389232, Note_on_c, 0, 74, 92
2, 389278, Note_on_c, 0, 74, 0
2, 389278, Note_on_c, 0, 55, 0
2, 389280, Note_on_c, 0, 60, 92
2, 389280, Note_on_c, 0, 76, 92
2, 389374, Note_on_c, 0, 67, 0
2, 389376, Note_on_c, 0, 64, 92
2, 389470, Note_on_c, 0, 64, 0
2, 389470, Note_on_c, 0, 76, 0
2, 389472, Note_on_c, 0, 66, 92
2, 389472, Note_on_c, 0, 69, 92
2, 389566, Note_on_c, 0, 60, 0
2, 389568, Note_on_c, 0, 57, 92
2, 389662, Note_on_c, 0, 57, 0
2, 389662, Note_on_c, 0, 69, 0
2, 389664, Note_on_c, 0, 59, 92
2, 389664, Note_on_c, 0, 74, 92
2, 389758, Note_on_c, 0, 66, 0
2, 389760, Note_on_c, 0, 62, 92
2, 389854, Note_on_c, 0, 62, 0
2, 389854, Note_on_c, 0, 74, 0
2, 389856, Note_on_c, 0, 64, 92
2, 389856, Note_on_c, 0, 67, 92
2, 389950, Note_on_c, 0, 59, 0
2, 389952, Note_on_c, 0, 55, 92
2, 390046, Note_on_c, 0, 55, 0
2, 390046, Note_on_c, 0, 67, 0
2, 390048, Note_on_c, 0, 57, 92
2, 390048, Note_on_c, 0, 72, 92
2, 390142, Note_on_c, 0, 64, 0
2, 390144, Note_on_c, 0, 60, 92
2, 390238, Note_on_c, 0, 60, 0
2, 390238, Note_on_c, 0, 72, 0
2, 390240, Note_on_c, 0, 62, 92
2, 390240, Note_on_c, 0, 66, 92
2, 390334, Note_on_c, 0, 57, 0
2, 390336, Note_on_c, 0, 54, 92
2, 390430, Note_on_c, 0, 54, 0
2, 390430, Note_on_c, 0, 66, 0
2, 390432, Note_on_c, 0, 55, 92
2, 390432, Note_on_c, 0, 71, 92
2, 390526, Note_on_c, 0, 62, 0
2, 390528, Note_on_c, 0, 59, 92
2, 390622, Note_on_c, 0, 59, 0
2, 390622, Note_on_c, 0, 71, 0
2, 390624, Note_on_c, 0, 60, 92
2, 390624, Note_on_c, 0, 64, 92
2, 390718, Note_on_c, 0, 55, 0
2, 390720, Note_on_c, 0, 52, 92
2, 390814, Note_on_c, 0, 52, 0
2, 390814, Note_on_c, 0, 64, 0
2, 390816, Note_on_c, 0, 54, 92
2, 390816, Note_on_c, 0, 69, 92
2, 390910, Note_on_c, 0, 60, 0
2, 390912, Note_on_c, 0, 57, 92
2, 391006, Note_on_c, 0, 57, 0
2, 391006, Note_on_c, 0, 54, 0
2, 391008, Note_on_c, 0, 55, 92
2, 391008, Note_on_c, 0, 59, 92
2, 391102, Note_on_c, 0, 69, 0
2, 391104, Note_on_c, 0, 62, 92
2, 391198, Note_on_c, 0, 62, 0
2, 391198, Note_on_c, 0, 55, 0
2, 391200, Note_on_c, 0, 52, 92
2, 391200, Note_on_c, 0, 67, 92
2, 391294, Note_on_c, 0, 59, 0
2, 391296, Note_on_c, 0, 55, 92
2, 391390, Note_on_c, 0, 55, 0
2, 391390, Note_on_c, 0, 52, 0
2, 391392, Note_on_c, 0, 49, 92
2, 391392, Note_on_c, 0, 57, 92
2, 391486, Note_on_c, 0, 67, 0
2, 391488, Note_on_c, 0, 66, 92
2, 391534, Note_on_c, 0, 66, 0
2, 391536, Note_on_c, 0, 64, 92
2, 391582, Note_on_c, 0, 64, 0
2, 391582, Note_on_c, 0, 49, 0
2, 391584, Note_on_c, 0, 51, 92
2, 391584, Note_on_c, 0, 72, 92
2, 391678, Note_on_c, 0, 57, 0
2, 391680, Note_on_c, 0, 54, 92
2, 391774, Note_on_c, 0, 54, 0
2, 391774, Note_on_c, 0, 51, 0
2, 391776, Note_on_c, 0, 52, 92
2, 391776, Note_on_c, 0, 55, 92
2, 391870, Note_on_c, 0, 72, 0
2, 391872, Note_on_c, 0, 71, 92
2, 391918, Note_on_c, 0, 71, 0
2, 391920, Note_on_c, 0, 70, 92
2, 391966, Note_on_c, 0, 70, 0
2, 391966, Note_on_c, 0, 52, 0
2, 391968, Note_on_c, 0, 49, 92
2, 391968, Note_on_c, 0, 76, 92
2, 392062, Note_on_c, 0, 55, 0
2, 392064, Note_on_c, 0, 52, 92
2, 392158, Note_on_c, 0, 52, 0
2, 392158, Note_on_c, 0, 49, 0
2, 392160, Note_on_c, 0, 46, 92
2, 392160, Note_on_c, 0, 54, 92
2, 392254, Note_on_c, 0, 76, 0
2, 392256, Note_on_c, 0, 74, 92
2, 392302, Note_on_c, 0, 74, 0
2, 392304, Note_on_c, 0, 73, 92
2, 392350, Note_on_c, 0, 73, 0
2, 392350, Note_on_c, 0, 46, 0
2, 392352, Note_on_c, 0, 47, 92
2, 392352, Note_on_c, 0, 74, 92
2, 392446, Note_on_c, 0, 74, 0
2, 392448, Note_on_c, 0, 73, 92
2, 392494, Note_on_c, 0, 73, 0
2, 392496, Note_on_c, 0, 71, 92
2, 392542, Note_on_c, 0, 71, 0
2, 392542, Note_on_c, 0, 47, 0
2, 392542, Note_on_c, 0, 54, 0
2, 392544, Note_on_c, 0, 52, 92
2, 392544, Note_on_c, 0, 55, 92
2, 392544, Note_on_c, 0, 73, 92
2, 392638, Note_on_c, 0, 73, 0
2, 392640, Note_on_c, 0, 74, 92
2, 392686, Note_on_c, 0, 74, 0
2, 392688, Note_on_c, 0, 76, 92
2, 392734, Note_on_c, 0, 76, 0
2, 392734, Note_on_c, 0, 55, 0
2, 392734, Note_on_c, 0, 52, 0
2, 392736, Note_on_c, 0, 53, 92
2, 392736, Note_on_c, 0, 56, 92
2, 392736, Note_on_c, 0, 74, 92
2, 392830, Note_on_c, 0, 74, 0
2, 392832, Note_on_c, 0, 73, 92
2, 392878, Note_on_c, 0, 73, 0
2, 392880, Note_on_c, 0, 71, 92
2, 392926, Note_on_c, 0, 71, 0
2, 392926, Note_on_c, 0, 56, 0
2, 392926, Note_on_c, 0, 53, 0
2, 392928, Note_on_c, 0, 54, 92
2, 392928, Note_on_c, 0, 70, 92
2, 393022, Note_on_c, 0, 70, 0
2, 393024, Note_on_c, 0, 68, 92
2, 393070, Note_on_c, 0, 68, 0
2, 393072, Note_on_c, 0, 66, 92
2, 393118, Note_on_c, 0, 66, 0
2, 393118, Note_on_c, 0, 54, 0
2, 393120, Note_on_c, 0, 79, 92
2, 393216, Note_on_c, 0, 59, 92
2, 393310, Note_on_c, 0, 59, 0
2, 393312, Note_on_c, 0, 58, 92
2, 393312, Note_on_c, 0, 61, 92
2, 393406, Note_on_c, 0, 79, 0
2, 393408, Note_on_c, 0, 76, 92
2, 393502, Note_on_c, 0, 76, 0
2, 393504, Note_on_c, 0, 78, 92
2, 393592, Note_on_c, 0, 58, 0
2, 393598, Note_on_c, 0, 61, 0
2, 393600, Note_on_c, 0, 58, 92
2, 393694, Note_on_c, 0, 58, 0
2, 393696, Note_on_c, 0, 59, 92
2, 393696, Note_on_c, 0, 67, 92
2, 393790, Note_on_c, 0, 78, 0
2, 393792, Note_on_c, 0, 75, 92
2, 393886, Note_on_c, 0, 75, 0
2, 393888, Note_on_c, 0, 76, 92
2, 393982, Note_on_c, 0, 67, 0
2, 393984, Note_on_c, 0, 64, 92
2, 394076, Note_on_c, 0, 59, 0
2, 394078, Note_on_c, 0, 64, 0
2, 394080, Note_on_c, 0, 66, 92
2, 394174, Note_on_c, 0, 76, 0
2, 394176, Note_on_c, 0, 69, 92
2, 394270, Note_on_c, 0, 69, 0
2, 394272, Note_on_c, 0, 81, 92
2, 394366, Note_on_c, 0, 66, 0
2, 394368, Note_on_c, 0, 63, 92
2, 394462, Note_on_c, 0, 63, 0
2, 394464, Note_on_c, 0, 52, 92
2, 394464, Note_on_c, 0, 72, 92
2, 394558, Note_on_c, 0, 81, 0
2, 394560, Note_on_c, 0, 78, 92
2, 394654, Note_on_c, 0, 78, 0
2, 394656, Note_on_c, 0, 79, 92
2, 394744, Note_on_c, 0, 52, 0
2, 394750, Note_on_c, 0, 72, 0
2, 394752, Note_on_c, 0, 70, 92
2, 394846, Note_on_c, 0, 70, 0
2, 394848, Note_on_c, 0, 50, 92
2, 394848, Note_on_c, 0, 71, 92
2, 394942, Note_on_c, 0, 79, 0
2, 394944, Note_on_c, 0, 76, 92
2, 395038, Note_on_c, 0, 76, 0
2, 395040, Note_on_c, 0, 78, 92
2, 395128, Note_on_c, 0, 50, 0
2, 395134, Note_on_c, 0, 71, 0
2, 395136, Note_on_c, 0, 64, 92
2, 395230, Note_on_c, 0, 64, 0
2, 395232, Note_on_c, 0, 55, 92
2, 395232, Note_on_c, 0, 62, 92
2, 395326, Note_on_c, 0, 78, 0
2, 395328, Note_on_c, 0, 71, 92
2, 395422, Note_on_c, 0, 71, 0
2, 395424, Note_on_c, 0, 83, 92
2, 395518, Note_on_c, 0, 55, 0
2, 395520, Note_on_c, 0, 54, 92
2, 395614, Note_on_c, 0, 54, 0
2, 395614, Note_on_c, 0, 62, 0
2, 395616, Note_on_c, 0, 52, 92
2, 395616, Note_on_c, 0, 62, 92
2, 395662, Note_on_c, 0, 62, 0
2, 395664, Note_on_c, 0, 61, 92
2, 395710, Note_on_c, 0, 61, 0
2, 395710, Note_on_c, 0, 83, 0
2, 395712, Note_on_c, 0, 62, 92
2, 395712, Note_on_c, 0, 80, 92
2, 395758, Note_on_c, 0, 62, 0
2, 395760, Note_on_c, 0, 61, 92
2, 395806, Note_on_c, 0, 61, 0
2, 395806, Note_on_c, 0, 80, 0
2, 395808, Note_on_c, 0, 62, 92
2, 395808, Note_on_c, 0, 82, 92
2, 395854, Note_on_c, 0, 82, 0
2, 395854, Note_on_c, 0, 62, 0
2, 395856, Note_on_c, 0, 61, 92
2, 395856, Note_on_c, 0, 80, 92
2, 395902, Note_on_c, 0, 80, 0
2, 395902, Note_on_c, 0, 61, 0
2, 395902, Note_on_c, 0, 52, 0
2, 395904, Note_on_c, 0, 54, 92
2, 395904, Note_on_c, 0, 62, 92
2, 395904, Note_on_c, 0, 82, 92
2, 395950, Note_on_c, 0, 62, 0
2, 395952, Note_on_c, 0, 61, 92
2, 395998, Note_on_c, 0, 61, 0
2, 395998, Note_on_c, 0, 82, 0
2, 395998, Note_on_c, 0, 54, 0
2, 396000, Note_on_c, 0, 59, 92
2, 396000, Note_on_c, 0, 83, 92
2, 396096, Note_on_c, 0, 47, 92
2, 396190, Note_on_c, 0, 47, 0
2, 396190, Note_on_c, 0, 83, 0
2, 396190, Note_on_c, 0, 59, 0
2, 396192, Note_on_c, 0, 59, 92
2, 396192, Note_on_c, 0, 79, 92
2, 396288, Note_on_c, 0, 74, 92
2, 396382, Note_on_c, 0, 74, 0
2, 396382, Note_on_c, 0, 79, 0
2, 396384, Note_on_c, 0, 73, 92
2, 396384, Note_on_c, 0, 76, 92
2, 396478, Note_on_c, 0, 59, 0
2, 396480, Note_on_c, 0, 56, 92
2, 396574, Note_on_c, 0, 56, 0
2, 396574, Note_on_c, 0, 76, 0
2, 396576, Note_on_c, 0, 57, 92
2, 396576, Note_on_c, 0, 78, 92
2, 396670, Note_on_c, 0, 73, 0
2, 396672, Note_on_c, 0, 66, 92
2, 396766, Note_on_c, 0, 66, 0
2, 396766, Note_on_c, 0, 78, 0
2, 396768, Note_on_c, 0, 71, 92
2, 396768, Note_on_c, 0, 75, 92
2, 396862, Note_on_c, 0, 57, 0
2, 396864, Note_on_c, 0, 56, 92
2, 396910, Note_on_c, 0, 56, 0
2, 396912, Note_on_c, 0, 54, 92
2, 396958, Note_on_c, 0, 54, 0
2, 396958, Note_on_c, 0, 75, 0
2, 396960, Note_on_c, 0, 56, 92
2, 396960, Note_on_c, 0, 76, 92
2, 397006, Note_on_c, 0, 56, 0
2, 397008, Note_on_c, 0, 54, 92
2, 397054, Note_on_c, 0, 54, 0
2, 397054, Note_on_c, 0, 71, 0
2, 397056, Note_on_c, 0, 52, 92
2, 397056, Note_on_c, 0, 74, 92
2, 397150, Note_on_c, 0, 74, 0
2, 397150, Note_on_c, 0, 52, 0
2, 397152, Note_on_c, 0, 64, 92
2, 397152, Note_on_c, 0, 68, 92
2, 397198, Note_on_c, 0, 64, 0
2, 397200, Note_on_c, 0, 62, 92
2, 397246, Note_on_c, 0, 62, 0
2, 397246, Note_on_c, 0, 76, 0
2, 397248, Note_on_c, 0, 61, 92
2, 397248, Note_on_c, 0, 81, 92
2, 397342, Note_on_c, 0, 81, 0
2, 397342, Note_on_c, 0, 61, 0
2, 397344, Note_on_c, 0, 62, 92
2, 397344, Note_on_c, 0, 80, 92
2, 397390, Note_on_c, 0, 62, 0
2, 397392, Note_on_c, 0, 61, 92
2, 397438, Note_on_c, 0, 61, 0
2, 397438, Note_on_c, 0, 68, 0
2, 397440, Note_on_c, 0, 59, 92
2, 397440, Note_on_c, 0, 74, 92
2, 397534, Note_on_c, 0, 74, 0
2, 397534, Note_on_c, 0, 59, 0
2, 397534, Note_on_c, 0, 80, 0
2, 397536, Note_on_c, 0, 57, 92
2, 397536, Note_on_c, 0, 73, 92
2, 397536, Note_on_c, 0, 81, 92
2, 397630, Note_on_c, 0, 57, 0
2, 397632, Note_on_c, 0, 45, 92
2, 397696, Note_on_c, 0, 81, 0
2, 397726, Note_on_c, 0, 45, 0
2, 397728, Note_on_c, 0, 57, 92
2, 397728, Note_on_c, 0, 78, 92
2, 397822, Note_on_c, 0, 73, 0
2, 397824, Note_on_c, 0, 73, 92
2, 397918, Note_on_c, 0, 73, 0
2, 397918, Note_on_c, 0, 78, 0
2, 397920, Note_on_c, 0, 71, 92
2, 397920, Note_on_c, 0, 74, 92
2, 398014, Note_on_c, 0, 57, 0
2, 398016, Note_on_c, 0, 54, 92
2, 398110, Note_on_c, 0, 54, 0
2, 398110, Note_on_c, 0, 74, 0
2, 398112, Note_on_c, 0, 55, 92
2, 398112, Note_on_c, 0, 76, 92
2, 398206, Note_on_c, 0, 71, 0
2, 398208, Note_on_c, 0, 64, 92
2, 398302, Note_on_c, 0, 64, 0
2, 398302, Note_on_c, 0, 76, 0
2, 398304, Note_on_c, 0, 69, 92
2, 398304, Note_on_c, 0, 73, 92
2, 398350, Note_on_c, 0, 55, 0
2, 398352, Note_on_c, 0, 54, 92
2, 398398, Note_on_c, 0, 54, 0
2, 398400, Note_on_c, 0, 52, 92
2, 398494, Note_on_c, 0, 52, 0
2, 398494, Note_on_c, 0, 73, 0
2, 398496, Note_on_c, 0, 54, 92
2, 398496, Note_on_c, 0, 74, 92
2, 398542, Note_on_c, 0, 54, 0
2, 398544, Note_on_c, 0, 52, 92
2, 398590, Note_on_c, 0, 52, 0
2, 398590, Note_on_c, 0, 69, 0
2, 398592, Note_on_c, 0, 50, 92
2, 398592, Note_on_c, 0, 72, 92
2, 398686, Note_on_c, 0, 72, 0
2, 398686, Note_on_c, 0, 50, 0
2, 398688, Note_on_c, 0, 62, 92
2, 398688, Note_on_c, 0, 66, 92
2, 398734, Note_on_c, 0, 62, 0
2, 398736, Note_on_c, 0, 60, 92
2, 398782, Note_on_c, 0, 60, 0
2, 398782, Note_on_c, 0, 74, 0
2, 398784, Note_on_c, 0, 59, 92
2, 398784, Note_on_c, 0, 79, 92
2, 398878, Note_on_c, 0, 79, 0
2, 398878, Note_on_c, 0, 59, 0
2, 398880, Note_on_c, 0, 60, 92
2, 398880, Note_on_c, 0, 78, 92
2, 398926, Note_on_c, 0, 60, 0
2, 398928, Note_on_c, 0, 59, 92
2, 398974, Note_on_c, 0, 59, 0
2, 398976, Note_on_c, 0, 57, 92
2, 399070, Note_on_c, 0, 57, 0
2, 399070, Note_on_c, 0, 78, 0
2, 399070, Note_on_c, 0, 66, 0
2, 399072, Note_on_c, 0, 55, 92
2, 399072, Note_on_c, 0, 71, 92
2, 399072, Note_on_c, 0, 79, 92
2, 399166, Note_on_c, 0, 79, 0
2, 399166, Note_on_c, 0, 55, 0
2, 399168, Note_on_c, 0, 59, 92
2, 399168, Note_on_c, 0, 74, 92
2, 399262, Note_on_c, 0, 74, 0
2, 399262, Note_on_c, 0, 59, 0
2, 399264, Note_on_c, 0, 64, 92
2, 399264, Note_on_c, 0, 79, 92
2, 399358, Note_on_c, 0, 71, 0
2, 399360, Note_on_c, 0, 71, 92
2, 399454, Note_on_c, 0, 71, 0
2, 399454, Note_on_c, 0, 64, 0
2, 399456, Note_on_c, 0, 57, 92
2, 399456, Note_on_c, 0, 72, 92
2, 399550, Note_on_c, 0, 79, 0
2, 399552, Note_on_c, 0, 76, 92
2, 399646, Note_on_c, 0, 76, 0
2, 399646, Note_on_c, 0, 57, 0
2, 399648, Note_on_c, 0, 62, 92
2, 399648, Note_on_c, 0, 78, 92
2, 399742, Note_on_c, 0, 72, 0
2, 399744, Note_on_c, 0, 69, 92
2, 399838, Note_on_c, 0, 69, 0
2, 399838, Note_on_c, 0, 62, 0
2, 399840, Note_on_c, 0, 55, 92
2, 399840, Note_on_c, 0, 71, 92
2, 399934, Note_on_c, 0, 78, 0
2, 399936, Note_on_c, 0, 75, 92
2, 400030, Note_on_c, 0, 75, 0
2, 400030, Note_on_c, 0, 55, 0
2, 400032, Note_on_c, 0, 60, 92
2, 400032, Note_on_c, 0, 76, 92
2, 400126, Note_on_c, 0, 71, 0
2, 400128, Note_on_c, 0, 67, 92
2, 400222, Note_on_c, 0, 67, 0
2, 400222, Note_on_c, 0, 60, 0
2, 400224, Note_on_c, 0, 54, 92
2, 400224, Note_on_c, 0, 69, 92
2, 400318, Note_on_c, 0, 76, 0
2, 400320, Note_on_c, 0, 73, 92
2, 400414, Note_on_c, 0, 73, 0
2, 400414, Note_on_c, 0, 54, 0
2, 400416, Note_on_c, 0, 59, 92
2, 400416, Note_on_c, 0, 75, 92
2, 400510, Note_on_c, 0, 69, 0
2, 400512, Note_on_c, 0, 66, 92
2, 400606, Note_on_c, 0, 66, 0
2, 400606, Note_on_c, 0, 75, 0
2, 400606, Note_on_c, 0, 59, 0
2, 400608, Note_on_c, 0, 52, 92
2, 400608, Note_on_c, 0, 67, 92
2, 400608, Note_on_c, 0, 76, 92
2, 400702, Note_on_c, 0, 76, 0
2, 400702, Note_on_c, 0, 52, 0
2, 400704, Note_on_c, 0, 59, 92
2, 400704, Note_on_c, 0, 78, 92
2, 400750, Note_on_c, 0, 78, 0
2, 400752, Note_on_c, 0, 79, 92
2, 400798, Note_on_c, 0, 79, 0
2, 400798, Note_on_c, 0, 59, 0
2, 400800, Note_on_c, 0, 60, 92
2, 400800, Note_on_c, 0, 81, 92
2, 400846, Note_on_c, 0, 81, 0
2, 400848, Note_on_c, 0, 83, 92
2, 400894, Note_on_c, 0, 83, 0
2, 400894, Note_on_c, 0, 67, 0
2, 400896, Note_on_c, 0, 64, 92
2, 400896, Note_on_c, 0, 84, 92
2, 400990, Note_on_c, 0, 84, 0
2, 400990, Note_on_c, 0, 64, 0
2, 400992, Note_on_c, 0, 65, 92
2, 400992, Note_on_c, 0, 74, 92
2, 401086, Note_on_c, 0, 74, 0
2, 401086, Note_on_c, 0, 60, 0
2, 401088, Note_on_c, 0, 57, 92
2, 401088, Note_on_c, 0, 76, 92
2, 401134, Note_on_c, 0, 76, 0
2, 401136, Note_on_c, 0, 77, 92
2, 401182, Note_on_c, 0, 77, 0
2, 401182, Note_on_c, 0, 57, 0
2, 401184, Note_on_c, 0, 59, 92
2, 401184, Note_on_c, 0, 79, 92
2, 401230, Note_on_c, 0, 79, 0
2, 401232, Note_on_c, 0, 81, 92
2, 401278, Note_on_c, 0, 81, 0
2, 401278, Note_on_c, 0, 65, 0
2, 401280, Note_on_c, 0, 62, 92
2, 401280, Note_on_c, 0, 83, 92
2, 401374, Note_on_c, 0, 83, 0
2, 401374, Note_on_c, 0, 62, 0
2, 401376, Note_on_c, 0, 64, 92
2, 401376, Note_on_c, 0, 72, 92
2, 401470, Note_on_c, 0, 72, 0
2, 401470, Note_on_c, 0, 59, 0
2, 401472, Note_on_c, 0, 56, 92
2, 401472, Note_on_c, 0, 74, 92
2, 401518, Note_on_c, 0, 74, 0
2, 401520, Note_on_c, 0, 76, 92
2, 401566, Note_on_c, 0, 76, 0
2, 401566, Note_on_c, 0, 56, 0
2, 401568, Note_on_c, 0, 57, 92
2, 401568, Note_on_c, 0, 77, 92
2, 401614, Note_on_c, 0, 77, 0
2, 401616, Note_on_c, 0, 79, 92
2, 401662, Note_on_c, 0, 79, 0
2, 401662, Note_on_c, 0, 64, 0
2, 401664, Note_on_c, 0, 60, 92
2, 401664, Note_on_c, 0, 81, 92
2, 401758, Note_on_c, 0, 81, 0
2, 401758, Note_on_c, 0, 60, 0
2, 401760, Note_on_c, 0, 62, 92
2, 401760, Note_on_c, 0, 71, 92
2, 401854, Note_on_c, 0, 71, 0
2, 401854, Note_on_c, 0, 57, 0
2, 401856, Note_on_c, 0, 54, 92
2, 401856, Note_on_c, 0, 72, 92
2, 401902, Note_on_c, 0, 72, 0
2, 401904, Note_on_c, 0, 74, 92
2, 401950, Note_on_c, 0, 74, 0
2, 401950, Note_on_c, 0, 54, 0
2, 401950, Note_on_c, 0, 62, 0
2, 401952, Note_on_c, 0, 56, 92
2, 401952, Note_on_c, 0, 59, 92
2, 401952, Note_on_c, 0, 76, 92
2, 401998, Note_on_c, 0, 76, 0
2, 402000, Note_on_c, 0, 77, 92
2, 402046, Note_on_c, 0, 77, 0
2, 402048, Note_on_c, 0, 74, 92
2, 402142, Note_on_c, 0, 74, 0
2, 402142, Note_on_c, 0, 59, 0
2, 402142, Note_on_c, 0, 56, 0
2, 402144, Note_on_c, 0, 57, 92
2, 402144, Note_on_c, 0, 72, 92
2, 402238, Note_on_c, 0, 57, 0
2, 402240, Note_on_c, 0, 55, 92
2, 402240, Note_on_c, 0, 64, 92
2, 402286, Note_on_c, 0, 55, 0
2, 402288, Note_on_c, 0, 53, 92
2, 402334, Note_on_c, 0, 53, 0
2, 402334, Note_on_c, 0, 64, 0
2, 402336, Note_on_c, 0, 55, 92
2, 402336, Note_on_c, 0, 69, 92
2, 402430, Note_on_c, 0, 55, 0
2, 402430, Note_on_c, 0, 72, 0
2, 402432, Note_on_c, 0, 54, 92
2, 402432, Note_on_c, 0, 71, 92
2, 402478, Note_on_c, 0, 54, 0
2, 402480, Note_on_c, 0, 52, 92
2, 402526, Note_on_c, 0, 52, 0
2, 402526, Note_on_c, 0, 71, 0
2, 402528, Note_on_c, 0, 54, 92
2, 402528, Note_on_c, 0, 72, 92
2, 402622, Note_on_c, 0, 54, 0
2, 402622, Note_on_c, 0, 69, 0
2, 402624, Note_on_c, 0, 55, 92
2, 402624, Note_on_c, 0, 64, 92
2, 402670, Note_on_c, 0, 55, 0
2, 402672, Note_on_c, 0, 57, 92
2, 402718, Note_on_c, 0, 57, 0
2, 402718, Note_on_c, 0, 64, 0
2, 402720, Note_on_c, 0, 55, 92
2, 402720, Note_on_c, 0, 69, 92
2, 402766, Note_on_c, 0, 55, 0
2, 402768, Note_on_c, 0, 54, 92
2, 402814, Note_on_c, 0, 54, 0
2, 402814, Note_on_c, 0, 72, 0
2, 402816, Note_on_c, 0, 52, 92
2, 402816, Note_on_c, 0, 72, 92
2, 402910, Note_on_c, 0, 72, 0
2, 402910, Note_on_c, 0, 52, 0
2, 402912, Note_on_c, 0, 51, 92
2, 402912, Note_on_c, 0, 71, 92
2, 403006, Note_on_c, 0, 51, 0
2, 403006, Note_on_c, 0, 69, 0
2, 403008, Note_on_c, 0, 47, 92
2, 403008, Note_on_c, 0, 67, 92
2, 403054, Note_on_c, 0, 67, 0
2, 403056, Note_on_c, 0, 66, 92
2, 403102, Note_on_c, 0, 66, 0
2, 403102, Note_on_c, 0, 47, 0
2, 403104, Note_on_c, 0, 52, 92
2, 403104, Note_on_c, 0, 67, 92
2, 403150, Note_on_c, 0, 67, 0
2, 403152, Note_on_c, 0, 66, 92
2, 403198, Note_on_c, 0, 66, 0
2, 403200, Note_on_c, 0, 64, 92
2, 403294, Note_on_c, 0, 64, 0
2, 403294, Note_on_c, 0, 71, 0
2, 403296, Note_on_c, 0, 66, 92
2, 403296, Note_on_c, 0, 69, 92
2, 403390, Note_on_c, 0, 52, 0
2, 403392, Note_on_c, 0, 45, 92
2, 403486, Note_on_c, 0, 45, 0
2, 403488, Note_on_c, 0, 47, 92
2, 403566, Note_on_c, 0, 69, 0
2, 403566, Note_on_c, 0, 66, 0
2, 403584, Note_on_c, 0, 63, 92
2, 403584, Note_on_c, 0, 66, 92
2, 403678, Note_on_c, 0, 66, 0
2, 403678, Note_on_c, 0, 63, 0
2, 403680, Note_on_c, 0, 64, 92
2, 403680, Note_on_c, 0, 72, 92
2, 403774, Note_on_c, 0, 47, 0
2, 403776, Note_on_c, 0, 44, 92
2, 403870, Note_on_c, 0, 44, 0
2, 403872, Note_on_c, 0, 45, 92
2, 403950, Note_on_c, 0, 72, 0
2, 403950, Note_on_c, 0, 64, 0
2, 403968, Note_on_c, 0, 69, 92
2, 403968, Note_on_c, 0, 72, 92
2, 404062, Note_on_c, 0, 72, 0
2, 404062, Note_on_c, 0, 69, 0
2, 404064, Note_on_c, 0, 71, 92
2, 404064, Note_on_c, 0, 74, 92
2, 404158, Note_on_c, 0, 45, 0
2, 404160, Note_on_c, 0, 38, 92
2, 404254, Note_on_c, 0, 38, 0
2, 404256, Note_on_c, 0, 50, 92
2, 404334, Note_on_c, 0, 74, 0
2, 404334, Note_on_c, 0, 71, 0
2, 404352, Note_on_c, 0, 68, 92
2, 404352, Note_on_c, 0, 71, 92
2, 404446, Note_on_c, 0, 71, 0
2, 404446, Note_on_c, 0, 68, 0
2, 404448, Note_on_c, 0, 77, 92
2, 404448, Note_on_c, 0, 80, 92
2, 404542, Note_on_c, 0, 50, 0
2, 404544, Note_on_c, 0, 47, 92
2, 404638, Note_on_c, 0, 47, 0
2, 404640, Note_on_c, 0, 48, 92
2, 404718, Note_on_c, 0, 80, 0
2, 404718, Note_on_c, 0, 77, 0
2, 404736, Note_on_c, 0, 75, 92
2, 404830, Note_on_c, 0, 75, 0
2, 404832, Note_on_c, 0, 76, 92
2, 404832, Note_on_c, 0, 81, 92
2, 404926, Note_on_c, 0, 48, 0
2, 404928, Note_on_c, 0, 45, 92
2, 405022, Note_on_c, 0, 45, 0
2, 405024, Note_on_c, 0, 47, 92
2, 405102, Note_on_c, 0, 81, 0
2, 405102, Note_on_c, 0, 76, 0
2, 405120, Note_on_c, 0, 69, 92
2, 405120, Note_on_c, 0, 75, 92
2, 405214, Note_on_c, 0, 75, 0
2, 405214, Note_on_c, 0, 69, 0
2, 405216, Note_on_c, 0, 67, 92
2, 405216, Note_on_c, 0, 76, 92
2, 405310, Note_on_c, 0, 76, 0
2, 405310, Note_on_c, 0, 47, 0
2, 405312, Note_on_c, 0, 40, 92
2, 405312, Note_on_c, 0, 74, 92
2, 405358, Note_on_c, 0, 74, 0
2, 405360, Note_on_c, 0, 72, 92
2, 405406, Note_on_c, 0, 72, 0
2, 405406, Note_on_c, 0, 40, 0
2, 405408, Note_on_c, 0, 52, 92
2, 405408, Note_on_c, 0, 71, 92
2, 405454, Note_on_c, 0, 71, 0
2, 405456, Note_on_c, 0, 69, 92
2, 405496, Note_on_c, 0, 67, 0
2, 405502, Note_on_c, 0, 69, 0
2, 405504, Note_on_c, 0, 67, 92
2, 405598, Note_on_c, 0, 67, 0
2, 405600, Note_on_c, 0, 66, 92
2, 405694, Note_on_c, 0, 52, 0
2, 405696, Note_on_c, 0, 49, 92
2, 405696, Note_on_c, 0, 69, 92
2, 405742, Note_on_c, 0, 69, 0
2, 405744, Note_on_c, 0, 71, 92
2, 405790, Note_on_c, 0, 71, 0
2, 405790, Note_on_c, 0, 49, 0
2, 405792, Note_on_c, 0, 51, 92
2, 405792, Note_on_c, 0, 72, 92
2, 405838, Note_on_c, 0, 72, 0
2, 405840, Note_on_c, 0, 71, 92
2, 405886, Note_on_c, 0, 71, 0
2, 405888, Note_on_c, 0, 69, 92
2, 405982, Note_on_c, 0, 69, 0
2, 405982, Note_on_c, 0, 51, 0
2, 405984, Note_on_c, 0, 52, 92
2, 405984, Note_on_c, 0, 67, 92
2, 406078, Note_on_c, 0, 66, 0
2, 406080, Note_on_c, 0, 63, 92
2, 406174, Note_on_c, 0, 63, 0
2, 406174, Note_on_c, 0, 67, 0
2, 406176, Note_on_c, 0, 64, 92
2, 406176, Note_on_c, 0, 67, 92
2, 406270, Note_on_c, 0, 52, 0
2, 406272, Note_on_c, 0, 62, 92
2, 406366, Note_on_c, 0, 62, 0
2, 406368, Note_on_c, 0, 61, 92
2, 406462, Note_on_c, 0, 64, 0
2, 406464, Note_on_c, 0, 58, 92
2, 406558, Note_on_c, 0, 58, 0
2, 406558, Note_on_c, 0, 67, 0
2, 406560, Note_on_c, 0, 64, 92
2, 406560, Note_on_c, 0, 67, 92
2, 406654, Note_on_c, 0, 61, 0
2, 406656, Note_on_c, 0, 57, 92
2, 406750, Note_on_c, 0, 57, 0
2, 406752, Note_on_c, 0, 50, 92
2, 406846, Note_on_c, 0, 64, 0
2, 406848, Note_on_c, 0, 61, 92
2, 406942, Note_on_c, 0, 61, 0
2, 406942, Note_on_c, 0, 67, 0
2, 406944, Note_on_c, 0, 62, 92
2, 406944, Note_on_c, 0, 65, 92
2, 407038, Note_on_c, 0, 50, 0
2, 407040, Note_on_c, 0, 60, 92
2, 407134, Note_on_c, 0, 60, 0
2, 407136, Note_on_c, 0, 59, 92
2, 407230, Note_on_c, 0, 62, 0
2, 407232, Note_on_c, 0, 56, 92
2, 407326, Note_on_c, 0, 56, 0
2, 407326, Note_on_c, 0, 65, 0
2, 407328, Note_on_c, 0, 62, 92
2, 407328, Note_on_c, 0, 65, 92
2, 407422, Note_on_c, 0, 59, 0
2, 407424, Note_on_c, 0, 55, 92
2, 407518, Note_on_c, 0, 55, 0
2, 407520, Note_on_c, 0, 48, 92
2, 407614, Note_on_c, 0, 62, 0
2, 407616, Note_on_c, 0, 59, 92
2, 407710, Note_on_c, 0, 59, 0
2, 407710, Note_on_c, 0, 65, 0
2, 407712, Note_on_c, 0, 60, 92
2, 407712, Note_on_c, 0, 64, 92
2, 407806, Note_on_c, 0, 48, 0
2, 407808, Note_on_c, 0, 59, 92
2, 407902, Note_on_c, 0, 59, 0
2, 407904, Note_on_c, 0, 57, 92
2, 407998, Note_on_c, 0, 60, 0
2, 408000, Note_on_c, 0, 54, 92
2, 408094, Note_on_c, 0, 54, 0
2, 408094, Note_on_c, 0, 64, 0
2, 408096, Note_on_c, 0, 60, 92
2, 408096, Note_on_c, 0, 64, 92
2, 408190, Note_on_c, 0, 57, 0
2, 408192, Note_on_c, 0, 54, 92
2, 408286, Note_on_c, 0, 54, 0
2, 408288, Note_on_c, 0, 47, 92
2, 408382, Note_on_c, 0, 60, 0
2, 408384, Note_on_c, 0, 58, 92
2, 408478, Note_on_c, 0, 58, 0
2, 408478, Note_on_c, 0, 64, 0
2, 408480, Note_on_c, 0, 59, 92
2, 408480, Note_on_c, 0, 63, 92
2, 408574, Note_on_c, 0, 47, 0
2, 408576, Note_on_c, 0, 57, 92
2, 408670, Note_on_c, 0, 57, 0
2, 408672, Note_on_c, 0, 55, 92
2, 408766, Note_on_c, 0, 59, 0
2, 408768, Note_on_c, 0, 59, 92
2, 408862, Note_on_c, 0, 59, 0
2, 408862, Note_on_c, 0, 63, 0
2, 408864, Note_on_c, 0, 64, 92
2, 408864, Note_on_c, 0, 67, 92
2, 408958, Note_on_c, 0, 55, 0
2, 408960, Note_on_c, 0, 52, 92
2, 409054, Note_on_c, 0, 52, 0
2, 409056, Note_on_c, 0, 51, 92
2, 409150, Note_on_c, 0, 64, 0
2, 409152, Note_on_c, 0, 59, 92
2, 409246, Note_on_c, 0, 59, 0
2, 409246, Note_on_c, 0, 67, 0
2, 409248, Note_on_c, 0, 66, 92
2, 409248, Note_on_c, 0, 69, 92
2, 409342, Note_on_c, 0, 51, 0
2, 409344, Note_on_c, 0, 59, 92
2, 409438, Note_on_c, 0, 59, 0
2, 409440, Note_on_c, 0, 55, 92
2, 409534, Note_on_c, 0, 66, 0
2, 409536, Note_on_c, 0, 61, 92
2, 409630, Note_on_c, 0, 61, 0
2, 409630, Note_on_c, 0, 69, 0
2, 409632, Note_on_c, 0, 67, 92
2, 409632, Note_on_c, 0, 70, 92
2, 409726, Note_on_c, 0, 55, 0
2, 409728, Note_on_c, 0, 52, 92
2, 409822, Note_on_c, 0, 52, 0
2, 409824, Note_on_c, 0, 47, 92
2, 409912, Note_on_c, 0, 67, 0
2, 409918, Note_on_c, 0, 70, 0
2, 409920, Note_on_c, 0, 71, 92
2, 409966, Note_on_c, 0, 71, 0
2, 409968, Note_on_c, 0, 66, 92
2, 410014, Note_on_c, 0, 66, 0
2, 410016, Note_on_c, 0, 63, 92
2, 410110, Note_on_c, 0, 63, 0
2, 410112, Note_on_c, 0, 59, 92
2, 410158, Note_on_c, 0, 59, 0
2, 410160, Note_on_c, 0, 58, 92
2, 410206, Note_on_c, 0, 58, 0
2, 410208, Note_on_c, 0, 59, 92
2, 410254, Note_on_c, 0, 59, 0
2, 410256, Note_on_c, 0, 63, 92
2, 410302, Note_on_c, 0, 63, 0
2, 410304, Note_on_c, 0, 66, 92
2, 410398, Note_on_c, 0, 66, 0
2, 410399, Note_on_c, 0, 47, 0
2, 410400, Note_on_c, 0, 71, 92
2, 410480, Note_on_c, 0, 71, 0
2, 410496, Note_on_c, 0, 59, 92
2, 410590, Note_on_c, 0, 59, 0
2, 410592, Note_on_c, 0, 57, 92
2, 410857, Note_on_c, 0, 57, 0
2, 410880, Note_on_c, 0, 60, 92
2, 410974, Note_on_c, 0, 60, 0
2, 410976, Note_on_c, 0, 51, 92
2, 411241, Note_on_c, 0, 51, 0
2, 411264, Note_on_c, 0, 54, 92
2, 411358, Note_on_c, 0, 54, 0
2, 411360, Note_on_c, 0, 52, 92
2, 411625, Note_on_c, 0, 52, 0
2, 411648, Note_on_c, 0, 55, 92
2, 411742, Note_on_c, 0, 55, 0
2, 411744, Note_on_c, 0, 46, 92
2, 412009, Note_on_c, 0, 46, 0
2, 412032, Note_on_c, 0, 48, 92
2, 412126, Note_on_c, 0, 48, 0
2, 412128, Note_on_c, 0, 47, 92
2, 412393, Note_on_c, 0, 47, 0
2, 412416, Note_on_c, 0, 51, 92
2, 412510, Note_on_c, 0, 51, 0
2, 412512, Note_on_c, 0, 52, 92
2, 412894, Note_on_c, 0, 52, 0
2, 412896, Note_on_c, 0, 55, 92
2, 412958, Note_on_c, 0, 55, 0
2, 412960, Note_on_c, 0, 54, 92
2, 413022, Note_on_c, 0, 54, 0
2, 413024, Note_on_c, 0, 55, 92
2, 413086, Note_on_c, 0, 55, 0
2, 413088, Note_on_c, 0, 54, 92
2, 413150, Note_on_c, 0, 54, 0
2, 413152, Note_on_c, 0, 52, 92
2, 413214, Note_on_c, 0, 52, 0
2, 413216, Note_on_c, 0, 54, 92
2, 413278, Note_on_c, 0, 54, 0
2, 413280, Note_on_c, 0, 55, 92
2, 413374, Note_on_c, 0, 55, 0
2, 413376, Note_on_c, 0, 60, 92
2, 413470, Note_on_c, 0, 60, 0
2, 413472, Note_on_c, 0, 59, 92
2, 413566, Note_on_c, 0, 59, 0
2, 413568, Note_on_c, 0, 66, 92
2, 413568, Note_on_c, 0, 57, 92
2, 413662, Note_on_c, 0, 57, 0
2, 413662, Note_on_c, 0, 66, 0
2, 413664, Note_on_c, 0, 64, 92
2, 413664, Note_on_c, 0, 55, 92
2, 413758, Note_on_c, 0, 55, 0
2, 413760, Note_on_c, 0, 59, 92
2, 413854, Note_on_c, 0, 59, 0
2, 413856, Note_on_c, 0, 52, 92
2, 413934, Note_on_c, 0, 64, 0
2, 413952, Note_on_c, 0, 67, 92
2, 414046, Note_on_c, 0, 67, 0
2, 414048, Note_on_c, 0, 58, 92
2, 414142, Note_on_c, 0, 52, 0
2, 414144, Note_on_c, 0, 49, 92
2, 414238, Note_on_c, 0, 49, 0
2, 414240, Note_on_c, 0, 50, 92
2, 414318, Note_on_c, 0, 58, 0
2, 414336, Note_on_c, 0, 61, 92
2, 414430, Note_on_c, 0, 61, 0
2, 414432, Note_on_c, 0, 59, 92
2, 414526, Note_on_c, 0, 50, 0
2, 414528, Note_on_c, 0, 54, 92
2, 414622, Note_on_c, 0, 54, 0
2, 414624, Note_on_c, 0, 47, 92
2, 414702, Note_on_c, 0, 59, 0
2, 414720, Note_on_c, 0, 62, 92
2, 414814, Note_on_c, 0, 62, 0
2, 414816, Note_on_c, 0, 53, 92
2, 414910, Note_on_c, 0, 47, 0
2, 414912, Note_on_c, 0, 44, 92
2, 415006, Note_on_c, 0, 44, 0
2, 415008, Note_on_c, 0, 46, 92
2, 415086, Note_on_c, 0, 53, 0
2, 415104, Note_on_c, 0, 55, 92
2, 415198, Note_on_c, 0, 55, 0
2, 415200, Note_on_c, 0, 54, 92
2, 415294, Note_on_c, 0, 46, 0
2, 415296, Note_on_c, 0, 49, 92
2, 415390, Note_on_c, 0, 49, 0
2, 415392, Note_on_c, 0, 52, 92
2, 415470, Note_on_c, 0, 54, 0
2, 415488, Note_on_c, 0, 58, 92
2, 415582, Note_on_c, 0, 58, 0
2, 415584, Note_on_c, 0, 59, 92
2, 415678, Note_on_c, 0, 52, 0
2, 415680, Note_on_c, 0, 49, 92
2, 415774, Note_on_c, 0, 49, 0
2, 415776, Note_on_c, 0, 50, 92
2, 415864, Note_on_c, 0, 59, 0
2, 415870, Note_on_c, 0, 50, 0
2, 415872, Note_on_c, 0, 59, 92
2, 415966, Note_on_c, 0, 59, 0
2, 415968, Note_on_c, 0, 62, 92
2, 415968, Note_on_c, 0, 52, 92
2, 416014, Note_on_c, 0, 62, 0
2, 416016, Note_on_c, 0, 61, 92
2, 416062, Note_on_c, 0, 61, 0
2, 416062, Note_on_c, 0, 52, 0
2, 416064, Note_on_c, 0, 62, 92
2, 416064, Note_on_c, 0, 59, 92
2, 416110, Note_on_c, 0, 62, 0
2, 416112, Note_on_c, 0, 61, 92
2, 416158, Note_on_c, 0, 61, 0
2, 416158, Note_on_c, 0, 59, 0
2, 416160, Note_on_c, 0, 62, 92
2, 416160, Note_on_c, 0, 54, 92
2, 416206, Note_on_c, 0, 62, 0
2, 416208, Note_on_c, 0, 61, 92
2, 416254, Note_on_c, 0, 61, 0
2, 416254, Note_on_c, 0, 54, 0
2, 416256, Note_on_c, 0, 59, 92
2, 416256, Note_on_c, 0, 58, 92
2, 416302, Note_on_c, 0, 59, 0
2, 416304, Note_on_c, 0, 61, 92
2, 416350, Note_on_c, 0, 61, 0
2, 416350, Note_on_c, 0, 58, 0
2, 416352, Note_on_c, 0, 62, 92
2, 416352, Note_on_c, 0, 59, 92
2, 416446, Note_on_c, 0, 62, 0
2, 416448, Note_on_c, 0, 67, 92
2, 416542, Note_on_c, 0, 67, 0
2, 416544, Note_on_c, 0, 66, 92
2, 416632, Note_on_c, 0, 59, 0
2, 416638, Note_on_c, 0, 66, 0
2, 416640, Note_on_c, 0, 64, 92
2, 416734, Note_on_c, 0, 64, 0
2, 416736, Note_on_c, 0, 62, 92
2, 416830, Note_on_c, 0, 62, 0
2, 416832, Note_on_c, 0, 66, 92
2, 416832, Note_on_c, 0, 57, 92
2, 416926, Note_on_c, 0, 57, 0
2, 416926, Note_on_c, 0, 66, 0
2, 416928, Note_on_c, 0, 59, 92
2, 416928, Note_on_c, 0, 56, 92
2, 417022, Note_on_c, 0, 56, 0
2, 417024, Note_on_c, 0, 54, 92
2, 417118, Note_on_c, 0, 54, 0
2, 417120, Note_on_c, 0, 52, 92
2, 417214, Note_on_c, 0, 59, 0
2, 417216, Note_on_c, 0, 56, 92
2, 417310, Note_on_c, 0, 56, 0
2, 417312, Note_on_c, 0, 65, 92
2, 417406, Note_on_c, 0, 52, 0
2, 417408, Note_on_c, 0, 50, 92
2, 417502, Note_on_c, 0, 50, 0
2, 417504, Note_on_c, 0, 50, 92
2, 417566, Note_on_c, 0, 50, 0
2, 417568, Note_on_c, 0, 48, 92
2, 417598, Note_on_c, 0, 65, 0
2, 417600, Note_on_c, 0, 62, 92
2, 417630, Note_on_c, 0, 48, 0
2, 417632, Note_on_c, 0, 50, 92
2, 417694, Note_on_c, 0, 50, 0
2, 417694, Note_on_c, 0, 62, 0
2, 417696, Note_on_c, 0, 68, 92
2, 417696, Note_on_c, 0, 48, 92
2, 417790, Note_on_c, 0, 48, 0
2, 417792, Note_on_c, 0, 47, 92
2, 417886, Note_on_c, 0, 47, 0
2, 417886, Note_on_c, 0, 68, 0
2, 417888, Note_on_c, 0, 45, 92
2, 417984, Note_on_c, 0, 65, 92
2, 418078, Note_on_c, 0, 65, 0
2, 418078, Note_on_c, 0, 45, 0
2, 418080, Note_on_c, 0, 64, 92
2, 418080, Note_on_c, 0, 57, 92
2, 418174, Note_on_c, 0, 64, 0
2, 418176, Note_on_c, 0, 62, 92
2, 418270, Note_on_c, 0, 62, 0
2, 418272, Note_on_c, 0, 60, 92
2, 418366, Note_on_c, 0, 60, 0
2, 418366, Note_on_c, 0, 57, 0
2, 418368, Note_on_c, 0, 64, 92
2, 418368, Note_on_c, 0, 55, 92
2, 418462, Note_on_c, 0, 55, 0
2, 418462, Note_on_c, 0, 64, 0
2, 418464, Note_on_c, 0, 57, 92
2, 418464, Note_on_c, 0, 54, 92
2, 418558, Note_on_c, 0, 54, 0
2, 418560, Note_on_c, 0, 52, 92
2, 418654, Note_on_c, 0, 52, 0
2, 418656, Note_on_c, 0, 50, 92
2, 418704, Note_on_c, 0, 57, 0
2, 418752, Note_on_c, 0, 54, 92
2, 418846, Note_on_c, 0, 54, 0
2, 418848, Note_on_c, 0, 63, 92
2, 418942, Note_on_c, 0, 50, 0
2, 418944, Note_on_c, 0, 48, 92
2, 419038, Note_on_c, 0, 48, 0
2, 419038, Note_on_c, 0, 63, 0
2, 419040, Note_on_c, 0, 48, 92
2, 419086, Note_on_c, 0, 48, 0
2, 419088, Note_on_c, 0, 47, 92
2, 419134, Note_on_c, 0, 47, 0
2, 419136, Note_on_c, 0, 60, 92
2, 419136, Note_on_c, 0, 48, 92
2, 419182, Note_on_c, 0, 48, 0
2, 419184, Note_on_c, 0, 47, 92
2, 419230, Note_on_c, 0, 47, 0
2, 419230, Note_on_c, 0, 60, 0
2, 419232, Note_on_c, 0, 66, 92
2, 419232, Note_on_c, 0, 48, 92
2, 419278, Note_on_c, 0, 48, 0
2, 419280, Note_on_c, 0, 47, 92
2, 419326, Note_on_c, 0, 47, 0
2, 419326, Note_on_c, 0, 66, 0
2, 419328, Note_on_c, 0, 60, 92
2, 419328, Note_on_c, 0, 45, 92
2, 419422, Note_on_c, 0, 45, 0
2, 419422, Note_on_c, 0, 60, 0
2, 419424, Note_on_c, 0, 59, 92
2, 419424, Note_on_c, 0, 43, 92
2, 419518, Note_on_c, 0, 43, 0
2, 419520, Note_on_c, 0, 47, 92
2, 419614, Note_on_c, 0, 47, 0
2, 419614, Note_on_c, 0, 59, 0
2, 419616, Note_on_c, 0, 55, 92
2, 419616, Note_on_c, 0, 52, 92
2, 419710, Note_on_c, 0, 52, 0
2, 419712, Note_on_c, 0, 71, 92
2, 419712, Note_on_c, 0, 50, 92
2, 419806, Note_on_c, 0, 50, 0
2, 419806, Note_on_c, 0, 71, 0
2, 419808, Note_on_c, 0, 69, 92
2, 419808, Note_on_c, 0, 48, 92
2, 419902, Note_on_c, 0, 48, 0
2, 419904, Note_on_c, 0, 52, 92
2, 419998, Note_on_c, 0, 52, 0
2, 419998, Note_on_c, 0, 55, 0
2, 420000, Note_on_c, 0, 54, 92
2, 420000, Note_on_c, 0, 45, 92
2, 420078, Note_on_c, 0, 69, 0
2, 420096, Note_on_c, 0, 72, 92
2, 420190, Note_on_c, 0, 72, 0
2, 420192, Note_on_c, 0, 63, 92
2, 420286, Note_on_c, 0, 45, 0
2, 420288, Note_on_c, 0, 42, 92
2, 420382, Note_on_c, 0, 42, 0
2, 420382, Note_on_c, 0, 54, 0
2, 420384, Note_on_c, 0, 59, 92
2, 420384, Note_on_c, 0, 43, 92
2, 420462, Note_on_c, 0, 63, 0
2, 420480, Note_on_c, 0, 66, 92
2, 420574, Note_on_c, 0, 66, 0
2, 420576, Note_on_c, 0, 64, 92
2, 420670, Note_on_c, 0, 43, 0
2, 420672, Note_on_c, 0, 47, 92
2, 420766, Note_on_c, 0, 47, 0
2, 420766, Note_on_c, 0, 59, 0
2, 420768, Note_on_c, 0, 55, 92
2, 420768, Note_on_c, 0, 40, 92
2, 420846, Note_on_c, 0, 64, 0
2, 420864, Note_on_c, 0, 67, 92
2, 420958, Note_on_c, 0, 67, 0
2, 420960, Note_on_c, 0, 58, 92
2, 421054, Note_on_c, 0, 40, 0
2, 421056, Note_on_c, 0, 37, 92
2, 421150, Note_on_c, 0, 37, 0
2, 421150, Note_on_c, 0, 55, 0
2, 421152, Note_on_c, 0, 54, 92
2, 421152, Note_on_c, 0, 39, 92
2, 421230, Note_on_c, 0, 58, 0
2, 421248, Note_on_c, 0, 60, 92
2, 421342, Note_on_c, 0, 60, 0
2, 421344, Note_on_c, 0, 59, 92
2, 421438, Note_on_c, 0, 39, 0
2, 421440, Note_on_c, 0, 42, 92
2, 421534, Note_on_c, 0, 42, 0
2, 421536, Note_on_c, 0, 45, 92
2, 421614, Note_on_c, 0, 59, 0
2, 421632, Note_on_c, 0, 63, 92
2, 421726, Note_on_c, 0, 63, 0
2, 421728, Note_on_c, 0, 64, 92
2, 421822, Note_on_c, 0, 45, 0
2, 421824, Note_on_c, 0, 42, 92
2, 421918, Note_on_c, 0, 42, 0
2, 421918, Note_on_c, 0, 54, 0
2, 421920, Note_on_c, 0, 59, 92
2, 421920, Note_on_c, 0, 43, 92
2, 422014, Note_on_c, 0, 43, 0
2, 422016, Note_on_c, 0, 52, 92
2, 422110, Note_on_c, 0, 52, 0
2, 422110, Note_on_c, 0, 59, 0
2, 422110, Note_on_c, 0, 64, 0
2, 422112, Note_on_c, 0, 67, 92
2, 422112, Note_on_c, 0, 60, 92
2, 422112, Note_on_c, 0, 45, 92
2, 422158, Note_on_c, 0, 67, 0
2, 422160, Note_on_c, 0, 66, 92
2, 422206, Note_on_c, 0, 66, 0
2, 422206, Note_on_c, 0, 45, 0
2, 422208, Note_on_c, 0, 67, 92
2, 422208, Note_on_c, 0, 52, 92
2, 422254, Note_on_c, 0, 67, 0
2, 422256, Note_on_c, 0, 66, 92
2, 422302, Note_on_c, 0, 66, 0
2, 422302, Note_on_c, 0, 52, 0
2, 422302, Note_on_c, 0, 60, 0
2, 422304, Note_on_c, 0, 67, 92
2, 422304, Note_on_c, 0, 59, 92
2, 422304, Note_on_c, 0, 47, 92
2, 422350, Note_on_c, 0, 67, 0
2, 422352, Note_on_c, 0, 66, 92
2, 422398, Note_on_c, 0, 66, 0
2, 422398, Note_on_c, 0, 47, 0
2, 422400, Note_on_c, 0, 64, 92
2, 422400, Note_on_c, 0, 51, 92
2, 422446, Note_on_c, 0, 64, 0
2, 422448, Note_on_c, 0, 66, 92
2, 422494, Note_on_c, 0, 66, 0
2, 422494, Note_on_c, 0, 51, 0
2, 422496, Note_on_c, 0, 67, 92
2, 422496, Note_on_c, 0, 52, 92
2, 422590, Note_on_c, 0, 67, 0
2, 422592, Note_on_c, 0, 64, 92
2, 422686, Note_on_c, 0, 64, 0
2, 422688, Note_on_c, 0, 76, 92
2, 422782, Note_on_c, 0, 52, 0
2, 422782, Note_on_c, 0, 59, 0
2, 422784, Note_on_c, 0, 71, 92
2, 422784, Note_on_c, 0, 55, 92
2, 422878, Note_on_c, 0, 55, 0
2, 422878, Note_on_c, 0, 71, 0
2, 422880, Note_on_c, 0, 69, 92
2, 422880, Note_on_c, 0, 54, 92
2, 422974, Note_on_c, 0, 76, 0
2, 422976, Note_on_c, 0, 73, 92
2, 423070, Note_on_c, 0, 73, 0
2, 423072, Note_on_c, 0, 74, 92
2, 423166, Note_on_c, 0, 54, 0
2, 423166, Note_on_c, 0, 69, 0
2, 423168, Note_on_c, 0, 66, 92
2, 423168, Note_on_c, 0, 59, 92
2, 423262, Note_on_c, 0, 59, 0
2, 423262, Note_on_c, 0, 66, 0
2, 423264, Note_on_c, 0, 68, 92
2, 423264, Note_on_c, 0, 52, 92
2, 423358, Note_on_c, 0, 74, 0
2, 423360, Note_on_c, 0, 73, 92
2, 423406, Note_on_c, 0, 73, 0
2, 423408, Note_on_c, 0, 71, 92
2, 423454, Note_on_c, 0, 71, 0
2, 423454, Note_on_c, 0, 68, 0
2, 423456, Note_on_c, 0, 73, 92
2, 423502, Note_on_c, 0, 73, 0
2, 423504, Note_on_c, 0, 71, 92
2, 423550, Note_on_c, 0, 71, 0
2, 423550, Note_on_c, 0, 52, 0
2, 423552, Note_on_c, 0, 69, 92
2, 423552, Note_on_c, 0, 57, 92
2, 423646, Note_on_c, 0, 57, 0
2, 423646, Note_on_c, 0, 69, 0
2, 423648, Note_on_c, 0, 81, 92
2, 423648, Note_on_c, 0, 49, 92
2, 423694, Note_on_c, 0, 81, 0
2, 423696, Note_on_c, 0, 79, 92
2, 423742, Note_on_c, 0, 79, 0
2, 423742, Note_on_c, 0, 49, 0
2, 423744, Note_on_c, 0, 78, 92
2, 423744, Note_on_c, 0, 52, 92
2, 423838, Note_on_c, 0, 52, 0
2, 423838, Note_on_c, 0, 78, 0
2, 423840, Note_on_c, 0, 79, 92
2, 423840, Note_on_c, 0, 45, 92
2, 423886, Note_on_c, 0, 79, 0
2, 423888, Note_on_c, 0, 78, 92
2, 423934, Note_on_c, 0, 78, 0
2, 423934, Note_on_c, 0, 45, 0
2, 423936, Note_on_c, 0, 76, 92
2, 423936, Note_on_c, 0, 49, 92
2, 424030, Note_on_c, 0, 49, 0
2, 424030, Note_on_c, 0, 76, 0
2, 424032, Note_on_c, 0, 78, 92
2, 424032, Note_on_c, 0, 50, 92
2, 424126, Note_on_c, 0, 78, 0
2, 424128, Note_on_c, 0, 69, 92
2, 424222, Note_on_c, 0, 69, 0
2, 424224, Note_on_c, 0, 74, 92
2, 424318, Note_on_c, 0, 50, 0
2, 424320, Note_on_c, 0, 69, 92
2, 424320, Note_on_c, 0, 54, 92
2, 424414, Note_on_c, 0, 54, 0
2, 424414, Note_on_c, 0, 69, 0
2, 424416, Note_on_c, 0, 67, 92
2, 424416, Note_on_c, 0, 52, 92
2, 424510, Note_on_c, 0, 74, 0
2, 424512, Note_on_c, 0, 71, 92
2, 424606, Note_on_c, 0, 71, 0
2, 424608, Note_on_c, 0, 72, 92
2, 424702, Note_on_c, 0, 52, 0
2, 424702, Note_on_c, 0, 67, 0
2, 424704, Note_on_c, 0, 64, 92
2, 424704, Note_on_c, 0, 57, 92
2, 424798, Note_on_c, 0, 57, 0
2, 424798, Note_on_c, 0, 64, 0
2, 424800, Note_on_c, 0, 66, 92
2, 424800, Note_on_c, 0, 50, 92
2, 424846, Note_on_c, 0, 72, 0
2, 424848, Note_on_c, 0, 71, 92
2, 424894, Note_on_c, 0, 71, 0
2, 424896, Note_on_c, 0, 69, 92
2, 424990, Note_on_c, 0, 69, 0
2, 424990, Note_on_c, 0, 66, 0
2, 424992, Note_on_c, 0, 71, 92
2, 425038, Note_on_c, 0, 71, 0
2, 425040, Note_on_c, 0, 69, 92
2, 425086, Note_on_c, 0, 69, 0
2, 425086, Note_on_c, 0, 50, 0
2, 425088, Note_on_c, 0, 67, 92
2, 425088, Note_on_c, 0, 55, 92
2, 425182, Note_on_c, 0, 55, 0
2, 425182, Note_on_c, 0, 67, 0
2, 425184, Note_on_c, 0, 79, 92
2, 425184, Note_on_c, 0, 47, 92
2, 425230, Note_on_c, 0, 79, 0
2, 425232, Note_on_c, 0, 77, 92
2, 425278, Note_on_c, 0, 77, 0
2, 425278, Note_on_c, 0, 47, 0
2, 425280, Note_on_c, 0, 76, 92
2, 425280, Note_on_c, 0, 50, 92
2, 425374, Note_on_c, 0, 50, 0
2, 425374, Note_on_c, 0, 76, 0
2, 425376, Note_on_c, 0, 77, 92
2, 425376, Note_on_c, 0, 43, 92
2, 425422, Note_on_c, 0, 77, 0
2, 425424, Note_on_c, 0, 76, 92
2, 425470, Note_on_c, 0, 76, 0
2, 425470, Note_on_c, 0, 43, 0
2, 425472, Note_on_c, 0, 74, 92
2, 425472, Note_on_c, 0, 47, 92
2, 425566, Note_on_c, 0, 47, 0
2, 425566, Note_on_c, 0, 74, 0
2, 425568, Note_on_c, 0, 76, 92
2, 425568, Note_on_c, 0, 48, 92
2, 425662, Note_on_c, 0, 48, 0
2, 425664, Note_on_c, 0, 67, 92
2, 425664, Note_on_c, 0, 52, 92
2, 425758, Note_on_c, 0, 52, 0
2, 425758, Note_on_c, 0, 67, 0
2, 425760, Note_on_c, 0, 72, 92
2, 425760, Note_on_c, 0, 57, 92
2, 425854, Note_on_c, 0, 76, 0
2, 425856, Note_on_c, 0, 76, 92
2, 425950, Note_on_c, 0, 76, 0
2, 425950, Note_on_c, 0, 57, 0
2, 425952, Note_on_c, 0, 77, 92
2, 425952, Note_on_c, 0, 50, 92
2, 426046, Note_on_c, 0, 72, 0
2, 426048, Note_on_c, 0, 69, 92
2, 426142, Note_on_c, 0, 69, 0
2, 426142, Note_on_c, 0, 50, 0
2, 426144, Note_on_c, 0, 71, 92
2, 426144, Note_on_c, 0, 55, 92
2, 426238, Note_on_c, 0, 77, 0
2, 426240, Note_on_c, 0, 74, 92
2, 426334, Note_on_c, 0, 74, 0
2, 426334, Note_on_c, 0, 55, 0
2, 426336, Note_on_c, 0, 76, 92
2, 426336, Note_on_c, 0, 48, 92
2, 426430, Note_on_c, 0, 71, 0
2, 426432, Note_on_c, 0, 68, 92
2, 426526, Note_on_c, 0, 68, 0
2, 426526, Note_on_c, 0, 48, 0
2, 426528, Note_on_c, 0, 69, 92
2, 426528, Note_on_c, 0, 53, 92
2, 426622, Note_on_c, 0, 76, 0
2, 426624, Note_on_c, 0, 72, 92
2, 426718, Note_on_c, 0, 72, 0
2, 426718, Note_on_c, 0, 53, 0
2, 426720, Note_on_c, 0, 74, 92
2, 426720, Note_on_c, 0, 47, 92
2, 426814, Note_on_c, 0, 69, 0
2, 426816, Note_on_c, 0, 66, 92
2, 426910, Note_on_c, 0, 66, 0
2, 426910, Note_on_c, 0, 47, 0
2, 426912, Note_on_c, 0, 67, 92
2, 426912, Note_on_c, 0, 52, 92
2, 427006, Note_on_c, 0, 74, 0
2, 427008, Note_on_c, 0, 71, 92
2, 427102, Note_on_c, 0, 71, 0
2, 427102, Note_on_c, 0, 52, 0
2, 427104, Note_on_c, 0, 72, 92
2, 427104, Note_on_c, 0, 45, 92
2, 427198, Note_on_c, 0, 67, 0
2, 427200, Note_on_c, 0, 64, 92
2, 427294, Note_on_c, 0, 64, 0
2, 427294, Note_on_c, 0, 45, 0
2, 427296, Note_on_c, 0, 65, 92
2, 427296, Note_on_c, 0, 50, 92
2, 427390, Note_on_c, 0, 72, 0
2, 427392, Note_on_c, 0, 69, 92
2, 427486, Note_on_c, 0, 69, 0
2, 427488, Note_on_c, 0, 71, 92
2, 427582, Note_on_c, 0, 50, 0
2, 427582, Note_on_c, 0, 65, 0
2, 427584, Note_on_c, 0, 62, 92
2, 427584, Note_on_c, 0, 44, 92
2, 427678, Note_on_c, 0, 44, 0
2, 427678, Note_on_c, 0, 62, 0
2, 427680, Note_on_c, 0, 64, 92
2, 427680, Note_on_c, 0, 48, 92
2, 427774, Note_on_c, 0, 71, 0
2, 427776, Note_on_c, 0, 68, 92
2, 427870, Note_on_c, 0, 68, 0
2, 427872, Note_on_c, 0, 69, 92
2, 427966, Note_on_c, 0, 48, 0
2, 427968, Note_on_c, 0, 47, 92
2, 428014, Note_on_c, 0, 47, 0
2, 428016, Note_on_c, 0, 45, 92
2, 428062, Note_on_c, 0, 45, 0
2, 428062, Note_on_c, 0, 64, 0
2, 428064, Note_on_c, 0, 62, 92
2, 428064, Note_on_c, 0, 53, 92
2, 428158, Note_on_c, 0, 62, 0
2, 428158, Note_on_c, 0, 69, 0
2, 428160, Note_on_c, 0, 71, 92
2, 428160, Note_on_c, 0, 68, 92
2, 428254, Note_on_c, 0, 68, 0
2, 428254, Note_on_c, 0, 71, 0
2, 428256, Note_on_c, 0, 72, 92
2, 428256, Note_on_c, 0, 69, 92
2, 428350, Note_on_c, 0, 53, 0
2, 428352, Note_on_c, 0, 52, 92
2, 428398, Note_on_c, 0, 52, 0
2, 428400, Note_on_c, 0, 51, 92
2, 428446, Note_on_c, 0, 51, 0
2, 428446, Note_on_c, 0, 72, 0
2, 428448, Note_on_c, 0, 73, 92
2, 428448, Note_on_c, 0, 57, 92
2, 428542, Note_on_c, 0, 69, 0
2, 428544, Note_on_c, 0, 67, 92
2, 428638, Note_on_c, 0, 67, 0
2, 428638, Note_on_c, 0, 73, 0
2, 428640, Note_on_c, 0, 75, 92
2, 428640, Note_on_c, 0, 66, 92
2, 428686, Note_on_c, 0, 57, 0
2, 428688, Note_on_c, 0, 55, 92
2, 428734, Note_on_c, 0, 55, 0
2, 428736, Note_on_c, 0, 54, 92
2, 428830, Note_on_c, 0, 54, 0
2, 428830, Note_on_c, 0, 66, 0
2, 428830, Note_on_c, 0, 75, 0
2, 428832, Note_on_c, 0, 76, 92
2, 428832, Note_on_c, 0, 71, 92
2, 428832, Note_on_c, 0, 55, 92
2, 428926, Note_on_c, 0, 55, 0
2, 428928, Note_on_c, 0, 54, 92
2, 428974, Note_on_c, 0, 54, 0
2, 428976, Note_on_c, 0, 52, 92
2, 429022, Note_on_c, 0, 52, 0
2, 429022, Note_on_c, 0, 76, 0
2, 429024, Note_on_c, 0, 75, 92
2, 429024, Note_on_c, 0, 54, 92
2, 429118, Note_on_c, 0, 54, 0
2, 429120, Note_on_c, 0, 55, 92
2, 429166, Note_on_c, 0, 55, 0
2, 429168, Note_on_c, 0, 57, 92
2, 429214, Note_on_c, 0, 57, 0
2, 429214, Note_on_c, 0, 75, 0
2, 429214, Note_on_c, 0, 71, 0
2, 429216, Note_on_c, 0, 76, 92
2, 429216, Note_on_c, 0, 73, 92
2, 429216, Note_on_c, 0, 55, 92
2, 429310, Note_on_c, 0, 55, 0
2, 429312, Note_on_c, 0, 54, 92
2, 429358, Note_on_c, 0, 54, 0
2, 429360, Note_on_c, 0, 52, 92
2, 429406, Note_on_c, 0, 52, 0
2, 429406, Note_on_c, 0, 73, 0
2, 429406, Note_on_c, 0, 76, 0
2, 429408, Note_on_c, 0, 78, 92
2, 429408, Note_on_c, 0, 75, 92
2, 429408, Note_on_c, 0, 59, 92
2, 429502, Note_on_c, 0, 75, 0
2, 429504, Note_on_c, 0, 71, 92
2, 429598, Note_on_c, 0, 71, 0
2, 429600, Note_on_c, 0, 69, 92
2, 429694, Note_on_c, 0, 69, 0
2, 429694, Note_on_c, 0, 78, 0
2, 429696, Note_on_c, 0, 83, 92
2, 429696, Note_on_c, 0, 67, 92
2, 429790, Note_on_c, 0, 67, 0
2, 429790, Note_on_c, 0, 83, 0
2, 429792, Note_on_c, 0, 81, 92
2, 429792, Note_on_c, 0, 66, 92
2, 429886, Note_on_c, 0, 66, 0
2, 429888, Note_on_c, 0, 69, 92
2, 429982, Note_on_c, 0, 69, 0
2, 429984, Note_on_c, 0, 72, 92
2, 430067, Note_on_c, 0, 81, 0
2, 430080, Note_on_c, 0, 84, 92
2, 430174, Note_on_c, 0, 84, 0
2, 430176, Note_on_c, 0, 75, 92
2, 430270, Note_on_c, 0, 72, 0
2, 430272, Note_on_c, 0, 72, 92
2, 430366, Note_on_c, 0, 72, 0
2, 430368, Note_on_c, 0, 71, 92
2, 430451, Note_on_c, 0, 75, 0
2, 430462, Note_on_c, 0, 71, 0
2, 430464, Note_on_c, 0, 78, 92
2, 430464, Note_on_c, 0, 69, 92
2, 430558, Note_on_c, 0, 69, 0
2, 430558, Note_on_c, 0, 78, 0
2, 430560, Note_on_c, 0, 76, 92
2, 430560, Note_on_c, 0, 67, 92
2, 430654, Note_on_c, 0, 67, 0
2, 430656, Note_on_c, 0, 71, 92
2, 430750, Note_on_c, 0, 71, 0
2, 430752, Note_on_c, 0, 64, 92
2, 430835, Note_on_c, 0, 76, 0
2, 430848, Note_on_c, 0, 79, 92
2, 430942, Note_on_c, 0, 79, 0
2, 430944, Note_on_c, 0, 70, 92
2, 431038, Note_on_c, 0, 64, 0
2, 431040, Note_on_c, 0, 67, 92
2, 431134, Note_on_c, 0, 67, 0
2, 431136, Note_on_c, 0, 66, 92
2, 431219, Note_on_c, 0, 70, 0
2, 431230, Note_on_c, 0, 66, 0
2, 431232, Note_on_c, 0, 72, 92
2, 431232, Note_on_c, 0, 64, 92
2, 431326, Note_on_c, 0, 64, 0
2, 431326, Note_on_c, 0, 72, 0
2, 431328, Note_on_c, 0, 71, 92
2, 431328, Note_on_c, 0, 63, 92
2, 431422, Note_on_c, 0, 63, 0
2, 431424, Note_on_c, 0, 66, 92
2, 431518, Note_on_c, 0, 66, 0
2, 431520, Note_on_c, 0, 69, 92
2, 431603, Note_on_c, 0, 71, 0
2, 431616, Note_on_c, 0, 75, 92
2, 431708, Note_on_c, 0, 59, 0
2, 431710, Note_on_c, 0, 75, 0
2, 431712, Note_on_c, 0, 76, 92
2, 431806, Note_on_c, 0, 69, 0
2, 431808, Note_on_c, 0, 66, 92
2, 431902, Note_on_c, 0, 66, 0
2, 431904, Note_on_c, 0, 67, 92
2, 431992, Note_on_c, 0, 76, 0
2, 431998, Note_on_c, 0, 67, 0
2, 432000, Note_on_c, 0, 76, 92
2, 432094, Note_on_c, 0, 76, 0
2, 432096, Note_on_c, 0, 79, 92
2, 432096, Note_on_c, 0, 69, 92
2, 432142, Note_on_c, 0, 79, 0
2, 432144, Note_on_c, 0, 78, 92
2, 432190, Note_on_c, 0, 78, 0
2, 432190, Note_on_c, 0, 69, 0
2, 432192, Note_on_c, 0, 79, 92
2, 432192, Note_on_c, 0, 76, 92
2, 432238, Note_on_c, 0, 79, 0
2, 432240, Note_on_c, 0, 78, 92
2, 432286, Note_on_c, 0, 78, 0
2, 432286, Note_on_c, 0, 76, 0
2, 432288, Note_on_c, 0, 79, 92
2, 432288, Note_on_c, 0, 71, 92
2, 432334, Note_on_c, 0, 79, 0
2, 432336, Note_on_c, 0, 78, 92
2, 432382, Note_on_c, 0, 78, 0
2, 432382, Note_on_c, 0, 71, 0
2, 432384, Note_on_c, 0, 76, 92
2, 432384, Note_on_c, 0, 75, 92
2, 432430, Note_on_c, 0, 76, 0
2, 432432, Note_on_c, 0, 78, 92
2, 432478, Note_on_c, 0, 78, 0
2, 432478, Note_on_c, 0, 75, 0
2, 432480, Note_on_c, 0, 79, 92
2, 432480, Note_on_c, 0, 64, 92
2, 432574, Note_on_c, 0, 64, 0
2, 432576, Note_on_c, 0, 76, 92
2, 432670, Note_on_c, 0, 76, 0
2, 432672, Note_on_c, 0, 74, 92
2, 432760, Note_on_c, 0, 79, 0
2, 432766, Note_on_c, 0, 74, 0
2, 432768, Note_on_c, 0, 72, 92
2, 432768, Note_on_c, 0, 64, 92
2, 432862, Note_on_c, 0, 64, 0
2, 432862, Note_on_c, 0, 72, 0
2, 432864, Note_on_c, 0, 71, 92
2, 432864, Note_on_c, 0, 62, 92
2, 432960, Note_on_c, 0, 74, 92
2, 433054, Note_on_c, 0, 74, 0
2, 433056, Note_on_c, 0, 77, 92
2, 433150, Note_on_c, 0, 62, 0
2, 433152, Note_on_c, 0, 65, 92
2, 433246, Note_on_c, 0, 65, 0
2, 433248, Note_on_c, 0, 56, 92
2, 433342, Note_on_c, 0, 77, 0
2, 433344, Note_on_c, 0, 77, 92
2, 433438, Note_on_c, 0, 77, 0
2, 433440, Note_on_c, 0, 76, 92
2, 433534, Note_on_c, 0, 76, 0
2, 433534, Note_on_c, 0, 56, 0
2, 433536, Note_on_c, 0, 74, 92
2, 433536, Note_on_c, 0, 59, 92
2, 433630, Note_on_c, 0, 59, 0
2, 433630, Note_on_c, 0, 74, 0
2, 433632, Note_on_c, 0, 72, 92
2, 433632, Note_on_c, 0, 57, 92
2, 433726, Note_on_c, 0, 71, 0
2, 433728, Note_on_c, 0, 64, 92
2, 433822, Note_on_c, 0, 64, 0
2, 433824, Note_on_c, 0, 69, 92
2, 433918, Note_on_c, 0, 57, 0
2, 433920, Note_on_c, 0, 60, 92
2, 434014, Note_on_c, 0, 60, 0
2, 434016, Note_on_c, 0, 51, 92
2, 434110, Note_on_c, 0, 72, 0
2, 434112, Note_on_c, 0, 72, 92
2, 434206, Note_on_c, 0, 72, 0
2, 434208, Note_on_c, 0, 71, 92
2, 434298, Note_on_c, 0, 69, 0
2, 434302, Note_on_c, 0, 71, 0
2, 434302, Note_on_c, 0, 51, 0
2, 434304, Note_on_c, 0, 69, 92
2, 434304, Note_on_c, 0, 53, 92
2, 434398, Note_on_c, 0, 53, 0
2, 434398, Note_on_c, 0, 69, 0
2, 434400, Note_on_c, 0, 68, 92
2, 434400, Note_on_c, 0, 52, 92
2, 434494, Note_on_c, 0, 68, 0
2, 434496, Note_on_c, 0, 71, 92
2, 434590, Note_on_c, 0, 71, 0
2, 434592, Note_on_c, 0, 74, 92
2, 434686, Note_on_c, 0, 52, 0
2, 434688, Note_on_c, 0, 65, 92
2, 434688, Note_on_c, 0, 56, 92
2, 434782, Note_on_c, 0, 56, 0
2, 434782, Note_on_c, 0, 65, 0
2, 434784, Note_on_c, 0, 64, 92
2, 434784, Note_on_c, 0, 57, 92
2, 434878, Note_on_c, 0, 74, 0
2, 434880, Note_on_c, 0, 71, 92
2, 434974, Note_on_c, 0, 71, 0
2, 434974, Note_on_c, 0, 64, 0
2, 434976, Note_on_c, 0, 72, 92
2, 434976, Note_on_c, 0, 69, 92
2, 435070, Note_on_c, 0, 72, 0
2, 435072, Note_on_c, 0, 81, 92
2, 435166, Note_on_c, 0, 81, 0
2, 435166, Note_on_c, 0, 69, 0
2, 435166, Note_on_c, 0, 57, 0
2, 435168, Note_on_c, 0, 74, 92
2, 435168, Note_on_c, 0, 65, 92
2, 435168, Note_on_c, 0, 59, 92
2, 435262, Note_on_c, 0, 74, 0
2, 435264, Note_on_c, 0, 81, 92
2, 435358, Note_on_c, 0, 81, 0
2, 435358, Note_on_c, 0, 65, 0
2, 435360, Note_on_c, 0, 71, 92
2, 435360, Note_on_c, 0, 62, 92
2, 435454, Note_on_c, 0, 71, 0
2, 435456, Note_on_c, 0, 80, 92
2, 435550, Note_on_c, 0, 80, 0
2, 435550, Note_on_c, 0, 62, 0
2, 435550, Note_on_c, 0, 59, 0
2, 435552, Note_on_c, 0, 81, 92
2, 435552, Note_on_c, 0, 64, 92
2, 435552, Note_on_c, 0, 60, 92
2, 435646, Note_on_c, 0, 81, 0
2, 435648, Note_on_c, 0, 75, 92
2, 435742, Note_on_c, 0, 75, 0
2, 435744, Note_on_c, 0, 76, 92
2, 435838, Note_on_c, 0, 60, 0
2, 435838, Note_on_c, 0, 64, 0
2, 435840, Note_on_c, 0, 72, 92
2, 435840, Note_on_c, 0, 64, 92
2, 435934, Note_on_c, 0, 64, 0
2, 435934, Note_on_c, 0, 72, 0
2, 435936, Note_on_c, 0, 66, 92
2, 435936, Note_on_c, 0, 57, 92
2, 436030, Note_on_c, 0, 76, 0
2, 436032, Note_on_c, 0, 75, 92
2, 436126, Note_on_c, 0, 75, 0
2, 436128, Note_on_c, 0, 76, 92
2, 436222, Note_on_c, 0, 57, 0
2, 436222, Note_on_c, 0, 66, 0
2, 436224, Note_on_c, 0, 67, 92
2, 436224, Note_on_c, 0, 60, 92
2, 436318, Note_on_c, 0, 60, 0
2, 436318, Note_on_c, 0, 67, 0
2, 436320, Note_on_c, 0, 69, 92
2, 436320, Note_on_c, 0, 54, 92
2, 436366, Note_on_c, 0, 76, 0
2, 436368, Note_on_c, 0, 75, 92
2, 436414, Note_on_c, 0, 75, 0
2, 436416, Note_on_c, 0, 73, 92
2, 436510, Note_on_c, 0, 73, 0
2, 436510, Note_on_c, 0, 69, 0
2, 436512, Note_on_c, 0, 75, 92
2, 436558, Note_on_c, 0, 75, 0
2, 436560, Note_on_c, 0, 73, 92
2, 436606, Note_on_c, 0, 73, 0
2, 436606, Note_on_c, 0, 54, 0
2, 436608, Note_on_c, 0, 71, 92
2, 436608, Note_on_c, 0, 57, 92
2, 436702, Note_on_c, 0, 57, 0
2, 436702, Note_on_c, 0, 71, 0
2, 436704, Note_on_c, 0, 83, 92
2, 436704, Note_on_c, 0, 51, 92
2, 436750, Note_on_c, 0, 83, 0
2, 436752, Note_on_c, 0, 81, 92
2, 436798, Note_on_c, 0, 81, 0
2, 436798, Note_on_c, 0, 51, 0
2, 436800, Note_on_c, 0, 79, 92
2, 436800, Note_on_c, 0, 54, 92
2, 436894, Note_on_c, 0, 54, 0
2, 436894, Note_on_c, 0, 79, 0
2, 436896, Note_on_c, 0, 81, 92
2, 436896, Note_on_c, 0, 47, 92
2, 436942, Note_on_c, 0, 81, 0
2, 436944, Note_on_c, 0, 79, 92
2, 436990, Note_on_c, 0, 79, 0
2, 436990, Note_on_c, 0, 47, 0
2, 436992, Note_on_c, 0, 78, 92
2, 436992, Note_on_c, 0, 51, 92
2, 437086, Note_on_c, 0, 51, 0
2, 437086, Note_on_c, 0, 78, 0
2, 437088, Note_on_c, 0, 79, 92
2, 437088, Note_on_c, 0, 52, 92
2, 437184, Note_on_c, 0, 70, 92
2, 437278, Note_on_c, 0, 70, 0
2, 437280, Note_on_c, 0, 71, 92
2, 437374, Note_on_c, 0, 52, 0
2, 437374, Note_on_c, 0, 79, 0
2, 437376, Note_on_c, 0, 79, 92
2, 437376, Note_on_c, 0, 40, 92
2, 437470, Note_on_c, 0, 40, 0
2, 437470, Note_on_c, 0, 79, 0
2, 437472, Note_on_c, 0, 73, 92
2, 437472, Note_on_c, 0, 52, 92
2, 437566, Note_on_c, 0, 71, 0
2, 437568, Note_on_c, 0, 70, 92
2, 437662, Note_on_c, 0, 70, 0
2, 437664, Note_on_c, 0, 71, 92
2, 437758, Note_on_c, 0, 52, 0
2, 437758, Note_on_c, 0, 73, 0
2, 437760, Note_on_c, 0, 74, 92
2, 437760, Note_on_c, 0, 55, 92
2, 437854, Note_on_c, 0, 55, 0
2, 437854, Note_on_c, 0, 74, 0
2, 437856, Note_on_c, 0, 76, 92
2, 437856, Note_on_c, 0, 49, 92
2, 437902, Note_on_c, 0, 71, 0
2, 437904, Note_on_c, 0, 70, 92
2, 437950, Note_on_c, 0, 70, 0
2, 437952, Note_on_c, 0, 68, 92
2, 438046, Note_on_c, 0, 68, 0
2, 438046, Note_on_c, 0, 76, 0
2, 438048, Note_on_c, 0, 70, 92
2, 438094, Note_on_c, 0, 70, 0
2, 438096, Note_on_c, 0, 68, 92
2, 438142, Note_on_c, 0, 68, 0
2, 438142, Note_on_c, 0, 49, 0
2, 438144, Note_on_c, 0, 66, 92
2, 438144, Note_on_c, 0, 52, 92
2, 438238, Note_on_c, 0, 52, 0
2, 438238, Note_on_c, 0, 66, 0
2, 438240, Note_on_c, 0, 78, 92
2, 438240, Note_on_c, 0, 46, 92
2, 438286, Note_on_c, 0, 78, 0
2, 438288, Note_on_c, 0, 76, 92
2, 438334, Note_on_c, 0, 76, 0
2, 438334, Note_on_c, 0, 46, 0
2, 438336, Note_on_c, 0, 75, 92
2, 438336, Note_on_c, 0, 49, 92
2, 438430, Note_on_c, 0, 49, 0
2, 438430, Note_on_c, 0, 75, 0
2, 438432, Note_on_c, 0, 76, 92
2, 438432, Note_on_c, 0, 42, 92
2, 438478, Note_on_c, 0, 76, 0
2, 438480, Note_on_c, 0, 75, 92
2, 438526, Note_on_c, 0, 75, 0
2, 438526, Note_on_c, 0, 42, 0
2, 438528, Note_on_c, 0, 73, 92
2, 438528, Note_on_c, 0, 46, 92
2, 438622, Note_on_c, 0, 46, 0
2, 438622, Note_on_c, 0, 73, 0
2, 438624, Note_on_c, 0, 75, 92
2, 438624, Note_on_c, 0, 47, 92
2, 438718, Note_on_c, 0, 47, 0
2, 438718, Note_on_c, 0, 75, 0
2, 438720, Note_on_c, 0, 71, 92
2, 438720, Note_on_c, 0, 49, 92
2, 438766, Note_on_c, 0, 49, 0
2, 438768, Note_on_c, 0, 51, 92
2, 438814, Note_on_c, 0, 51, 0
2, 438814, Note_on_c, 0, 71, 0
2, 438816, Note_on_c, 0, 79, 92
2, 438816, Note_on_c, 0, 52, 92
2, 438862, Note_on_c, 0, 52, 0
2, 438864, Note_on_c, 0, 54, 92
2, 438910, Note_on_c, 0, 54, 0
2, 438912, Note_on_c, 0, 76, 92
2, 438912, Note_on_c, 0, 55, 92
2, 439006, Note_on_c, 0, 55, 0
2, 439006, Note_on_c, 0, 76, 0
2, 439008, Note_on_c, 0, 84, 92
2, 439008, Note_on_c, 0, 45, 92
2, 439102, Note_on_c, 0, 45, 0
2, 439102, Note_on_c, 0, 79, 0
2, 439104, Note_on_c, 0, 76, 92
2, 439104, Note_on_c, 0, 47, 92
2, 439150, Note_on_c, 0, 47, 0
2, 439152, Note_on_c, 0, 48, 92
2, 439198, Note_on_c, 0, 48, 0
2, 439198, Note_on_c, 0, 76, 0
2, 439200, Note_on_c, 0, 78, 92
2, 439200, Note_on_c, 0, 50, 92
2, 439246, Note_on_c, 0, 50, 0
2, 439248, Note_on_c, 0, 52, 92
2, 439294, Note_on_c, 0, 52, 0
2, 439294, Note_on_c, 0, 84, 0
2, 439296, Note_on_c, 0, 81, 92
2, 439296, Note_on_c, 0, 54, 92
2, 439390, Note_on_c, 0, 54, 0
2, 439390, Note_on_c, 0, 81, 0
2, 439392, Note_on_c, 0, 83, 92
2, 439392, Note_on_c, 0, 43, 92
2, 439486, Note_on_c, 0, 43, 0
2, 439486, Note_on_c, 0, 78, 0
2, 439488, Note_on_c, 0, 75, 92
2, 439488, Note_on_c, 0, 45, 92
2, 439534, Note_on_c, 0, 45, 0
2, 439536, Note_on_c, 0, 47, 92
2, 439582, Note_on_c, 0, 47, 0
2, 439582, Note_on_c, 0, 75, 0
2, 439584, Note_on_c, 0, 76, 92
2, 439584, Note_on_c, 0, 48, 92
2, 439630, Note_on_c, 0, 48, 0
2, 439632, Note_on_c, 0, 50, 92
2, 439678, Note_on_c, 0, 50, 0
2, 439678, Note_on_c, 0, 83, 0
2, 439680, Note_on_c, 0, 79, 92
2, 439680, Note_on_c, 0, 52, 92
2, 439774, Note_on_c, 0, 52, 0
2, 439774, Note_on_c, 0, 79, 0
2, 439776, Note_on_c, 0, 81, 92
2, 439776, Note_on_c, 0, 42, 92
2, 439870, Note_on_c, 0, 42, 0
2, 439870, Note_on_c, 0, 76, 0
2, 439872, Note_on_c, 0, 73, 92
2, 439872, Note_on_c, 0, 43, 92
2, 439918, Note_on_c, 0, 43, 0
2, 439920, Note_on_c, 0, 45, 92
2, 439966, Note_on_c, 0, 45, 0
2, 439966, Note_on_c, 0, 73, 0
2, 439968, Note_on_c, 0, 75, 92
2, 439968, Note_on_c, 0, 47, 92
2, 440014, Note_on_c, 0, 47, 0
2, 440016, Note_on_c, 0, 45, 92
2, 440062, Note_on_c, 0, 45, 0
2, 440062, Note_on_c, 0, 81, 0
2, 440064, Note_on_c, 0, 78, 92
2, 440064, Note_on_c, 0, 47, 92
2, 440158, Note_on_c, 0, 47, 0
2, 440158, Note_on_c, 0, 78, 0
2, 440158, Note_on_c, 0, 75, 0
2, 440160, Note_on_c, 0, 79, 92
2, 440160, Note_on_c, 0, 76, 92
2, 440160, Note_on_c, 0, 40, 92
2, 440254, Note_on_c, 0, 76, 0
2, 440256, Note_on_c, 0, 74, 92
2, 440302, Note_on_c, 0, 74, 0
2, 440304, Note_on_c, 0, 72, 92
2, 440350, Note_on_c, 0, 72, 0
2, 440352, Note_on_c, 0, 71, 92
2, 440398, Note_on_c, 0, 71, 0
2, 440400, Note_on_c, 0, 72, 92
2, 440446, Note_on_c, 0, 72, 0
2, 440446, Note_on_c, 0, 40, 0
2, 440448, Note_on_c, 0, 74, 92
2, 440448, Note_on_c, 0, 52, 92
2, 440542, Note_on_c, 0, 52, 0
2, 440542, Note_on_c, 0, 74, 0
2, 440544, Note_on_c, 0, 72, 92
2, 440544, Note_on_c, 0, 45, 92
2, 440638, Note_on_c, 0, 79, 0
2, 440640, Note_on_c, 0, 78, 92
2, 440686, Note_on_c, 0, 78, 0
2, 440688, Note_on_c, 0, 76, 92
2, 440734, Note_on_c, 0, 76, 0
2, 440736, Note_on_c, 0, 78, 92
2, 440782, Note_on_c, 0, 78, 0
2, 440784, Note_on_c, 0, 79, 92
2, 440830, Note_on_c, 0, 79, 0
2, 440830, Note_on_c, 0, 45, 0
2, 440832, Note_on_c, 0, 81, 92
2, 440832, Note_on_c, 0, 48, 92
2, 440924, Note_on_c, 0, 72, 0
2, 440926, Note_on_c, 0, 48, 0
2, 440926, Note_on_c, 0, 81, 0
2, 440928, Note_on_c, 0, 75, 92
2, 440928, Note_on_c, 0, 47, 92
2, 441022, Note_on_c, 0, 75, 0
2, 441024, Note_on_c, 0, 83, 92
2, 441118, Note_on_c, 0, 83, 0
2, 441120, Note_on_c, 0, 81, 92
2, 441208, Note_on_c, 0, 47, 0
2, 441214, Note_on_c, 0, 81, 0
2, 441216, Note_on_c, 0, 79, 92
2, 441216, Note_on_c, 0, 71, 92
2, 441310, Note_on_c, 0, 71, 0
2, 441310, Note_on_c, 0, 79, 0
2, 441312, Note_on_c, 0, 78, 92
2, 441312, Note_on_c, 0, 69, 92
2, 441406, Note_on_c, 0, 78, 0
2, 441408, Note_on_c, 0, 81, 92
2, 441502, Note_on_c, 0, 81, 0
2, 441504, Note_on_c, 0, 84, 92
2, 441587, Note_on_c, 0, 69, 0
2, 441600, Note_on_c, 0, 72, 92
2, 441694, Note_on_c, 0, 72, 0
2, 441696, Note_on_c, 0, 63, 92
2, 441696, Note_on_c, 0, 59, 92
2, 441790, Note_on_c, 0, 84, 0
2, 441792, Note_on_c, 0, 72, 92
2, 441886, Note_on_c, 0, 72, 0
2, 441888, Note_on_c, 0, 71, 92
2, 441971, Note_on_c, 0, 63, 0
2, 441982, Note_on_c, 0, 71, 0
2, 441984, Note_on_c, 0, 69, 92
2, 441984, Note_on_c, 0, 66, 92
2, 442078, Note_on_c, 0, 66, 0
2, 442078, Note_on_c, 0, 69, 0
2, 442080, Note_on_c, 0, 67, 92
2, 442080, Note_on_c, 0, 64, 92
2, 442174, Note_on_c, 0, 67, 0
2, 442176, Note_on_c, 0, 71, 92
2, 442270, Note_on_c, 0, 71, 0
2, 442272, Note_on_c, 0, 76, 92
2, 442355, Note_on_c, 0, 64, 0
2, 442368, Note_on_c, 0, 67, 92
2, 442462, Note_on_c, 0, 67, 0
2, 442462, Note_on_c, 0, 59, 0
2, 442464, Note_on_c, 0, 58, 92
2, 442464, Note_on_c, 0, 47, 92
2, 442558, Note_on_c, 0, 76, 0
2, 442560, Note_on_c, 0, 67, 92
2, 442654, Note_on_c, 0, 67, 0
2, 442656, Note_on_c, 0, 66, 92
2, 442739, Note_on_c, 0, 58, 0
2, 442750, Note_on_c, 0, 66, 0
2, 442752, Note_on_c, 0, 64, 92
2, 442752, Note_on_c, 0, 60, 92
2, 442846, Note_on_c, 0, 60, 0
2, 442846, Note_on_c, 0, 64, 0
2, 442848, Note_on_c, 0, 63, 92
2, 442848, Note_on_c, 0, 59, 92
2, 442942, Note_on_c, 0, 63, 0
2, 442944, Note_on_c, 0, 66, 92
2, 443038, Note_on_c, 0, 66, 0
2, 443040, Note_on_c, 0, 69, 92
2, 443123, Note_on_c, 0, 59, 0
2, 443134, Note_on_c, 0, 47, 0
2, 443136, Note_on_c, 0, 63, 92
2, 443136, Note_on_c, 0, 59, 92
2, 443230, Note_on_c, 0, 59, 0
2, 443230, Note_on_c, 0, 63, 0
2, 443232, Note_on_c, 0, 64, 92
2, 443232, Note_on_c, 0, 60, 92
2, 443326, Note_on_c, 0, 69, 0
2, 443328, Note_on_c, 0, 66, 92
2, 443422, Note_on_c, 0, 66, 0
2, 443422, Note_on_c, 0, 60, 0
2, 443424, Note_on_c, 0, 67, 92
2, 443424, Note_on_c, 0, 59, 92
2, 443518, Note_on_c, 0, 67, 0
2, 443520, Note_on_c, 0, 76, 92
2, 443614, Note_on_c, 0, 76, 0
2, 443614, Note_on_c, 0, 59, 0
2, 443614, Note_on_c, 0, 64, 0
2, 443616, Note_on_c, 0, 69, 92
2, 443616, Note_on_c, 0, 66, 92
2, 443616, Note_on_c, 0, 57, 92
2, 443710, Note_on_c, 0, 69, 0
2, 443712, Note_on_c, 0, 76, 92
2, 443806, Note_on_c, 0, 76, 0
2, 443806, Note_on_c, 0, 57, 0
2, 443808, Note_on_c, 0, 69, 92
2, 443808, Note_on_c, 0, 59, 92
2, 443902, Note_on_c, 0, 69, 0
2, 443904, Note_on_c, 0, 75, 92
2, 443998, Note_on_c, 0, 75, 0
2, 443998, Note_on_c, 0, 59, 0
2, 443998, Note_on_c, 0, 66, 0
2, 444000, Note_on_c, 0, 76, 92
2, 444000, Note_on_c, 0, 67, 92
2, 444000, Note_on_c, 0, 52, 92
2, 444094, Note_on_c, 0, 76, 0
2, 444096, Note_on_c, 0, 72, 92
2, 444190, Note_on_c, 0, 72, 0
2, 444192, Note_on_c, 0, 71, 92
2, 444280, Note_on_c, 0, 67, 0
2, 444286, Note_on_c, 0, 71, 0
2, 444288, Note_on_c, 0, 69, 92
2, 444382, Note_on_c, 0, 69, 0
2, 444384, Note_on_c, 0, 67, 92
2, 444478, Note_on_c, 0, 67, 0
2, 444478, Note_on_c, 0, 52, 0
2, 444480, Note_on_c, 0, 71, 92
2, 444480, Note_on_c, 0, 50, 92
2, 444574, Note_on_c, 0, 50, 0
2, 444576, Note_on_c, 0, 64, 92
2, 444576, Note_on_c, 0, 49, 92
2, 444670, Note_on_c, 0, 49, 0
2, 444672, Note_on_c, 0, 47, 92
2, 444766, Note_on_c, 0, 47, 0
2, 444768, Note_on_c, 0, 45, 92
2, 444864, Note_on_c, 0, 61, 92
2, 444958, Note_on_c, 0, 71, 0
2, 444960, Note_on_c, 0, 70, 92
2, 445054, Note_on_c, 0, 45, 0
2, 445056, Note_on_c, 0, 43, 92
2, 445150, Note_on_c, 0, 43, 0
2, 445152, Note_on_c, 0, 43, 92
2, 445214, Note_on_c, 0, 43, 0
2, 445216, Note_on_c, 0, 41, 92
2, 445244, Note_on_c, 0, 61, 0
2, 445246, Note_on_c, 0, 70, 0
2, 445248, Note_on_c, 0, 67, 92
2, 445278, Note_on_c, 0, 41, 0
2, 445280, Note_on_c, 0, 43, 92
2, 445342, Note_on_c, 0, 43, 0
2, 445344, Note_on_c, 0, 73, 92
2, 445344, Note_on_c, 0, 41, 92
2, 445438, Note_on_c, 0, 41, 0
2, 445440, Note_on_c, 0, 40, 92
2, 445534, Note_on_c, 0, 40, 0
2, 445536, Note_on_c, 0, 38, 92
2, 445626, Note_on_c, 0, 64, 0
2, 445630, Note_on_c, 0, 73, 0
2, 445632, Note_on_c, 0, 70, 92
2, 445726, Note_on_c, 0, 70, 0
2, 445726, Note_on_c, 0, 38, 0
2, 445728, Note_on_c, 0, 67, 0
2, 445728, Note_on_c, 0, 69, 92
2, 445728, Note_on_c, 0, 50, 92
2, 445822, Note_on_c, 0, 69, 0
2, 445824, Note_on_c, 0, 67, 92
2, 445918, Note_on_c, 0, 67, 0
2, 445920, Note_on_c, 0, 65, 92
2, 446014, Note_on_c, 0, 65, 0
2, 446014, Note_on_c, 0, 50, 0
2, 446016, Note_on_c, 0, 69, 92
2, 446016, Note_on_c, 0, 48, 92
2, 446110, Note_on_c, 0, 48, 0
2, 446112, Note_on_c, 0, 62, 92
2, 446112, Note_on_c, 0, 47, 92
2, 446206, Note_on_c, 0, 47, 0
2, 446208, Note_on_c, 0, 45, 92
2, 446302, Note_on_c, 0, 45, 0
2, 446304, Note_on_c, 0, 43, 92
2, 446400, Note_on_c, 0, 59, 92
2, 446494, Note_on_c, 0, 69, 0
2, 446496, Note_on_c, 0, 68, 92
2, 446590, Note_on_c, 0, 43, 0
2, 446592, Note_on_c, 0, 41, 92
2, 446686, Note_on_c, 0, 41, 0
2, 446688, Note_on_c, 0, 41, 92
2, 446734, Note_on_c, 0, 41, 0
2, 446736, Note_on_c, 0, 40, 92
2, 446782, Note_on_c, 0, 40, 0
2, 446782, Note_on_c, 0, 68, 0
2, 446784, Note_on_c, 0, 65, 92
2, 446784, Note_on_c, 0, 41, 92
2, 446830, Note_on_c, 0, 41, 0
2, 446832, Note_on_c, 0, 40, 92
2, 446880, Note_on_c, 0, 71, 92
2, 446974, Note_on_c, 0, 40, 0
2, 446976, Note_on_c, 0, 38, 92
2, 447070, Note_on_c, 0, 38, 0
2, 447072, Note_on_c, 0, 36, 92
2, 447162, Note_on_c, 0, 62, 0
2, 447164, Note_on_c, 0, 65, 0
2, 447166, Note_on_c, 0, 71, 0
2, 447168, Note_on_c, 0, 68, 92
2, 447262, Note_on_c, 0, 68, 0
2, 447262, Note_on_c, 0, 36, 0
2, 447262, Note_on_c, 0, 59, 0
2, 447264, Note_on_c, 0, 69, 92
2, 447264, Note_on_c, 0, 60, 92
2, 447358, Note_on_c, 0, 69, 0
2, 447360, Note_on_c, 0, 64, 92
2, 447454, Note_on_c, 0, 64, 0
2, 447456, Note_on_c, 0, 66, 92
2, 447550, Note_on_c, 0, 60, 0
2, 447552, Note_on_c, 0, 57, 92
2, 447646, Note_on_c, 0, 57, 0
2, 447648, Note_on_c, 0, 59, 92
2, 447736, Note_on_c, 0, 66, 0
2, 447744, Note_on_c, 0, 63, 92
2, 447744, Note_on_c, 0, 47, 92
2, 447838, Note_on_c, 0, 47, 0
2, 447838, Note_on_c, 0, 63, 0
2, 447840, Note_on_c, 0, 72, 92
2, 447840, Note_on_c, 0, 52, 92
2, 447934, Note_on_c, 0, 59, 0
2, 447936, Note_on_c, 0, 56, 92
2, 448030, Note_on_c, 0, 56, 0
2, 448030, Note_on_c, 0, 52, 0
2, 448032, Note_on_c, 0, 57, 92
2, 448120, Note_on_c, 0, 72, 0
2, 448128, Note_on_c, 0, 69, 92
2, 448222, Note_on_c, 0, 69, 0
2, 448224, Note_on_c, 0, 71, 92
2, 448318, Note_on_c, 0, 57, 0
2, 448320, Note_on_c, 0, 50, 92
2, 448414, Note_on_c, 0, 50, 0
2, 448416, Note_on_c, 0, 62, 92
2, 448504, Note_on_c, 0, 71, 0
2, 448512, Note_on_c, 0, 68, 92
2, 448512, Note_on_c, 0, 52, 92
2, 448606, Note_on_c, 0, 52, 0
2, 448606, Note_on_c, 0, 68, 0
2, 448608, Note_on_c, 0, 77, 92
2, 448608, Note_on_c, 0, 57, 92
2, 448702, Note_on_c, 0, 62, 0
2, 448704, Note_on_c, 0, 59, 92
2, 448798, Note_on_c, 0, 59, 0
2, 448800, Note_on_c, 0, 60, 92
2, 448888, Note_on_c, 0, 77, 0
2, 448896, Note_on_c, 0, 75, 92
2, 448990, Note_on_c, 0, 75, 0
2, 448990, Note_on_c, 0, 57, 0
2, 448992, Note_on_c, 0, 76, 92
2, 448992, Note_on_c, 0, 55, 92
2, 449086, Note_on_c, 0, 60, 0
2, 449088, Note_on_c, 0, 57, 92
2, 449182, Note_on_c, 0, 57, 0
2, 449184, Note_on_c, 0, 59, 92
2, 449272, Note_on_c, 0, 76, 0
2, 449280, Note_on_c, 0, 69, 92
2, 449374, Note_on_c, 0, 69, 0
2, 449374, Note_on_c, 0, 55, 0
2, 449376, Note_on_c, 0, 67, 92
2, 449376, Note_on_c, 0, 48, 92
2, 449470, Note_on_c, 0, 59, 0
2, 449472, Note_on_c, 0, 52, 92
2, 449566, Note_on_c, 0, 52, 0
2, 449568, Note_on_c, 0, 64, 92
2, 449662, Note_on_c, 0, 48, 0
2, 449664, Note_on_c, 0, 47, 92
2, 449758, Note_on_c, 0, 47, 0
2, 449758, Note_on_c, 0, 67, 0
2, 449760, Note_on_c, 0, 67, 92
2, 449760, Note_on_c, 0, 45, 92
2, 449806, Note_on_c, 0, 67, 0
2, 449808, Note_on_c, 0, 66, 92
2, 449854, Note_on_c, 0, 66, 0
2, 449854, Note_on_c, 0, 64, 0
2, 449856, Note_on_c, 0, 67, 92
2, 449856, Note_on_c, 0, 61, 92
2, 449902, Note_on_c, 0, 67, 0
2, 449904, Note_on_c, 0, 66, 92
2, 449950, Note_on_c, 0, 66, 0
2, 449950, Note_on_c, 0, 61, 0
2, 449950, Note_on_c, 0, 45, 0
2, 449952, Note_on_c, 0, 67, 92
2, 449952, Note_on_c, 0, 63, 92
2, 449952, Note_on_c, 0, 47, 92
2, 449998, Note_on_c, 0, 67, 0
2, 450000, Note_on_c, 0, 66, 92
2, 450046, Note_on_c, 0, 66, 0
2, 450048, Note_on_c, 0, 64, 92
2, 450094, Note_on_c, 0, 64, 0
2, 450096, Note_on_c, 0, 66, 92
2, 450142, Note_on_c, 0, 66, 0
2, 450142, Note_on_c, 0, 47, 0
2, 450142, Note_on_c, 0, 63, 0
2, 450144, Note_on_c, 0, 64, 92
2, 450144, Note_on_c, 0, 40, 92
2, 450240, Note_on_c, 0, 62, 92
2, 450334, Note_on_c, 0, 64, 0
2, 450336, Note_on_c, 0, 65, 92
2, 450336, Note_on_c, 0, 68, 92
2, 450430, Note_on_c, 0, 40, 0
2, 450432, Note_on_c, 0, 59, 92
2, 450526, Note_on_c, 0, 59, 0
2, 450528, Note_on_c, 0, 56, 92
2, 450622, Note_on_c, 0, 62, 0
2, 450624, Note_on_c, 0, 62, 92
2, 450718, Note_on_c, 0, 68, 0
2, 450718, Note_on_c, 0, 65, 0
2, 450720, Note_on_c, 0, 68, 92
2, 450720, Note_on_c, 0, 71, 92
2, 450814, Note_on_c, 0, 56, 0
2, 450816, Note_on_c, 0, 52, 92
2, 450910, Note_on_c, 0, 52, 0
2, 450912, Note_on_c, 0, 48, 92
2, 451006, Note_on_c, 0, 62, 0
2, 451008, Note_on_c, 0, 60, 92
2, 451102, Note_on_c, 0, 71, 0
2, 451102, Note_on_c, 0, 68, 0
2, 451104, Note_on_c, 0, 64, 92
2, 451104, Note_on_c, 0, 69, 92
2, 451198, Note_on_c, 0, 48, 0
2, 451200, Note_on_c, 0, 53, 92
2, 451294, Note_on_c, 0, 53, 0
2, 451296, Note_on_c, 0, 50, 92
2, 451390, Note_on_c, 0, 60, 0
2, 451392, Note_on_c, 0, 59, 92
2, 451486, Note_on_c, 0, 69, 0
2, 451486, Note_on_c, 0, 64, 0
2, 451488, Note_on_c, 0, 68, 92
2, 451488, Note_on_c, 0, 71, 92
2, 451488, Note_on_c, 0, 74, 92
2, 451582, Note_on_c, 0, 50, 0
2, 451584, Note_on_c, 0, 47, 92
2, 451678, Note_on_c, 0, 47, 0
2, 451680, Note_on_c, 0, 65, 92
2, 451680, Note_on_c, 0, 44, 92
2, 451774, Note_on_c, 0, 65, 0
2, 451774, Note_on_c, 0, 59, 0
2, 451776, Note_on_c, 0, 64, 92
2, 451868, Note_on_c, 0, 74, 0
2, 451868, Note_on_c, 0, 71, 0
2, 451868, Note_on_c, 0, 68, 0
2, 451872, Note_on_c, 0, 69, 92
2, 451872, Note_on_c, 0, 72, 92
2, 451966, Note_on_c, 0, 44, 0
2, 451968, Note_on_c, 0, 52, 92
2, 452062, Note_on_c, 0, 52, 0
2, 452064, Note_on_c, 0, 48, 92
2, 452156, Note_on_c, 0, 64, 0
2, 452160, Note_on_c, 0, 66, 92
2, 452252, Note_on_c, 0, 72, 0
2, 452252, Note_on_c, 0, 69, 0
2, 452256, Note_on_c, 0, 72, 92
2, 452256, Note_on_c, 0, 75, 92
2, 452350, Note_on_c, 0, 48, 0
2, 452352, Note_on_c, 0, 45, 92
2, 452440, Note_on_c, 0, 66, 0
2, 452446, Note_on_c, 0, 75, 0
2, 452446, Note_on_c, 0, 72, 0
2, 452446, Note_on_c, 0, 45, 0
2, 452448, Note_on_c, 0, 40, 92
2, 452544, Note_on_c, 0, 76, 92
2, 452590, Note_on_c, 0, 76, 0
2, 452592, Note_on_c, 0, 71, 92
2, 452638, Note_on_c, 0, 71, 0
2, 452640, Note_on_c, 0, 68, 92
2, 452734, Note_on_c, 0, 68, 0
2, 452736, Note_on_c, 0, 64, 92
2, 452782, Note_on_c, 0, 64, 0
2, 452784, Note_on_c, 0, 63, 92
2, 452830, Note_on_c, 0, 63, 0
2, 452832, Note_on_c, 0, 64, 92
2, 452878, Note_on_c, 0, 64, 0
2, 452880, Note_on_c, 0, 68, 92
2, 452926, Note_on_c, 0, 68, 0
2, 452928, Note_on_c, 0, 71, 92
2, 453022, Note_on_c, 0, 71, 0
2, 453024, Note_on_c, 0, 76, 92
2, 453213, Note_on_c, 0, 40, 0
2, 453791, Note_on_c, 0, 76, 0
2, 453791, End_track
0, 0, End_of_file
