0, 0, Header, 1, 2, 384
1, 0, Start_track
1, 0, Title_t, "--------"
1, 0, Text_t, "harpsichord: John Sankey\012"
1, 0, Time_signature, 4, 2, 24, 8
1, 0, Key_signature, 0, "major"
1, 0, Tempo, 500000
1, 0, End_track
2, 0, Start_track
2, 0, Title_t, "Harpsichord"
2, 0, Program_c, 0, 6
2, 0, Control_c, 0, 7, 100
2, 0, Program_c, 0, 6
2, 0, Pitch_bend_c, 0, 8192
2, 0, Program_c, 0, 6
2, 0, Pitch_bend_c, 0, 7792
2, 0, Program_c, 0, 6
2, 0, Pitch_bend_c, 0, 7876
2, 0, Program_c, 0, 6
2, 0, Pitch_bend_c, 0, 7952
2, 0, Program_c, 0, 6
2, 0, Pitch_bend_c, 0, 7792
2, 0, Program_c, 0, 6
2, 0, Pitch_bend_c, 0, 8112
2, 0, Program_c, 0, 6
2, 0, Pitch_bend_c, 0, 7712
2, 0, Program_c, 0, 6
2, 0, Pitch_bend_c, 0, 8037
2, 0, Program_c, 0, 6
2, 0, Pitch_bend_c, 0, 7872
2, 0, Program_c, 0, 6
2, 0, Pitch_bend_c, 0, 7712
2, 0, Program_c, 0, 6
2, 0, Pitch_bend_c, 0, 8032
2, 0, Program_c, 0, 6
2, 0, Pitch_bend_c, 0, 7872
2, 64, Note_on_c, 0, 60, 107
2, 215, Note_on_c, 0, 64, 107
2, 367, Note_on_c, 0, 67, 107
2, 519, Note_on_c, 0, 72, 107
2, 670, Note_on_c, 0, 76, 107
2, 818, Note_on_c, 0, 67, 0
2, 822, Note_on_c, 0, 67, 107
2, 970, Note_on_c, 0, 72, 0
2, 974, Note_on_c, 0, 72, 107
2, 1121, Note_on_c, 0, 76, 0
2, 1125, Note_on_c, 0, 76, 107
2, 1275, Note_on_c, 0, 60, 0
2, 1277, Note_on_c, 0, 60, 107
2, 1426, Note_on_c, 0, 64, 0
2, 1429, Note_on_c, 0, 64, 107
2, 1577, Note_on_c, 0, 67, 0
2, 1580, Note_on_c, 0, 67, 107
2, 1729, Note_on_c, 0, 72, 0
2, 1732, Note_on_c, 0, 72, 107
2, 1880, Note_on_c, 0, 76, 0
2, 1884, Note_on_c, 0, 76, 107
2, 2031, Note_on_c, 0, 67, 0
2, 2035, Note_on_c, 0, 67, 107
2, 2183, Note_on_c, 0, 72, 0
2, 2187, Note_on_c, 0, 72, 107
2, 2335, Note_on_c, 0, 76, 0
2, 2339, Note_on_c, 0, 76, 107
2, 2487, Note_on_c, 0, 64, 0
2, 2488, Note_on_c, 0, 60, 0
2, 2490, Note_on_c, 0, 60, 107
2, 2635, Note_on_c, 0, 67, 0
2, 2642, Note_on_c, 0, 72, 0
2, 2642, Note_on_c, 0, 62, 107
2, 2794, Note_on_c, 0, 69, 107
2, 2945, Note_on_c, 0, 74, 107
2, 3094, Note_on_c, 0, 76, 0
2, 3097, Note_on_c, 0, 77, 107
2, 3245, Note_on_c, 0, 69, 0
2, 3249, Note_on_c, 0, 69, 107
2, 3396, Note_on_c, 0, 74, 0
2, 3400, Note_on_c, 0, 74, 107
2, 3548, Note_on_c, 0, 77, 0
2, 3552, Note_on_c, 0, 77, 107
2, 3701, Note_on_c, 0, 60, 0
2, 3704, Note_on_c, 0, 60, 107
2, 3853, Note_on_c, 0, 62, 0
2, 3856, Note_on_c, 0, 62, 107
2, 4004, Note_on_c, 0, 69, 0
2, 4007, Note_on_c, 0, 69, 107
2, 4155, Note_on_c, 0, 74, 0
2, 4159, Note_on_c, 0, 74, 107
2, 4307, Note_on_c, 0, 77, 0
2, 4311, Note_on_c, 0, 77, 107
2, 4458, Note_on_c, 0, 69, 0
2, 4462, Note_on_c, 0, 69, 107
2, 4610, Note_on_c, 0, 74, 0
2, 4614, Note_on_c, 0, 74, 107
2, 4762, Note_on_c, 0, 77, 0
2, 4766, Note_on_c, 0, 77, 107
2, 4915, Note_on_c, 0, 60, 0
2, 4917, Note_on_c, 0, 59, 107
2, 5062, Note_on_c, 0, 69, 0
2, 5067, Note_on_c, 0, 62, 0
2, 5069, Note_on_c, 0, 62, 107
2, 5221, Note_on_c, 0, 67, 107
2, 5369, Note_on_c, 0, 74, 0
2, 5372, Note_on_c, 0, 74, 107
2, 5521, Note_on_c, 0, 77, 0
2, 5524, Note_on_c, 0, 77, 107
2, 5672, Note_on_c, 0, 67, 0
2, 5676, Note_on_c, 0, 67, 107
2, 5823, Note_on_c, 0, 74, 0
2, 5827, Note_on_c, 0, 74, 107
2, 5975, Note_on_c, 0, 77, 0
2, 5979, Note_on_c, 0, 77, 107
2, 6128, Note_on_c, 0, 59, 0
2, 6131, Note_on_c, 0, 59, 107
2, 6280, Note_on_c, 0, 62, 0
2, 6282, Note_on_c, 0, 62, 107
2, 6431, Note_on_c, 0, 67, 0
2, 6434, Note_on_c, 0, 67, 107
2, 6582, Note_on_c, 0, 74, 0
2, 6586, Note_on_c, 0, 74, 107
2, 6734, Note_on_c, 0, 77, 0
2, 6737, Note_on_c, 0, 77, 107
2, 6885, Note_on_c, 0, 67, 0
2, 6889, Note_on_c, 0, 67, 107
2, 7037, Note_on_c, 0, 74, 0
2, 7041, Note_on_c, 0, 74, 107
2, 7188, Note_on_c, 0, 77, 0
2, 7192, Note_on_c, 0, 77, 107
2, 7340, Note_on_c, 0, 62, 0
2, 7342, Note_on_c, 0, 59, 0
2, 7344, Note_on_c, 0, 60, 107
2, 7492, Note_on_c, 0, 77, 0
2, 7496, Note_on_c, 0, 74, 0
2, 7496, Note_on_c, 0, 64, 107
2, 7644, Note_on_c, 0, 67, 0
2, 7648, Note_on_c, 0, 67, 107
2, 7799, Note_on_c, 0, 72, 107
2, 7951, Note_on_c, 0, 76, 107
2, 8099, Note_on_c, 0, 67, 0
2, 8103, Note_on_c, 0, 67, 107
2, 8250, Note_on_c, 0, 72, 0
2, 8254, Note_on_c, 0, 72, 107
2, 8402, Note_on_c, 0, 76, 0
2, 8406, Note_on_c, 0, 76, 107
2, 8555, Note_on_c, 0, 60, 0
2, 8558, Note_on_c, 0, 60, 107
2, 8707, Note_on_c, 0, 64, 0
2, 8709, Note_on_c, 0, 64, 107
2, 8858, Note_on_c, 0, 67, 0
2, 8861, Note_on_c, 0, 67, 107
2, 9009, Note_on_c, 0, 72, 0
2, 9013, Note_on_c, 0, 72, 107
2, 9161, Note_on_c, 0, 76, 0
2, 9164, Note_on_c, 0, 76, 107
2, 9312, Note_on_c, 0, 67, 0
2, 9316, Note_on_c, 0, 67, 107
2, 9464, Note_on_c, 0, 72, 0
2, 9468, Note_on_c, 0, 72, 107
2, 9615, Note_on_c, 0, 76, 0
2, 9619, Note_on_c, 0, 76, 107
2, 9769, Note_on_c, 0, 60, 0
2, 9771, Note_on_c, 0, 60, 107
2, 9916, Note_on_c, 0, 67, 0
2, 9920, Note_on_c, 0, 64, 0
2, 9923, Note_on_c, 0, 64, 107
2, 10074, Note_on_c, 0, 69, 107
2, 10219, Note_on_c, 0, 76, 0
2, 10223, Note_on_c, 0, 72, 0
2, 10226, Note_on_c, 0, 76, 107
2, 10378, Note_on_c, 0, 81, 107
2, 10525, Note_on_c, 0, 69, 0
2, 10529, Note_on_c, 0, 69, 107
2, 10677, Note_on_c, 0, 76, 0
2, 10681, Note_on_c, 0, 76, 107
2, 10829, Note_on_c, 0, 81, 0
2, 10833, Note_on_c, 0, 81, 107
2, 10982, Note_on_c, 0, 60, 0
2, 10984, Note_on_c, 0, 60, 107
2, 11134, Note_on_c, 0, 64, 0
2, 11136, Note_on_c, 0, 64, 107
2, 11284, Note_on_c, 0, 69, 0
2, 11288, Note_on_c, 0, 69, 107
2, 11436, Note_on_c, 0, 76, 0
2, 11440, Note_on_c, 0, 76, 107
2, 11588, Note_on_c, 0, 81, 0
2, 11591, Note_on_c, 0, 81, 107
2, 11739, Note_on_c, 0, 69, 0
2, 11743, Note_on_c, 0, 69, 107
2, 11891, Note_on_c, 0, 76, 0
2, 11895, Note_on_c, 0, 76, 107
2, 12042, Note_on_c, 0, 81, 0
2, 12046, Note_on_c, 0, 81, 107
2, 12194, Note_on_c, 0, 64, 0
2, 12195, Note_on_c, 0, 60, 0
2, 12198, Note_on_c, 0, 60, 107
2, 12350, Note_on_c, 0, 76, 0
2, 12350, Note_on_c, 0, 62, 107
2, 12498, Note_on_c, 0, 69, 0
2, 12501, Note_on_c, 0, 81, 0
2, 12501, Note_on_c, 0, 66, 107
2, 12653, Note_on_c, 0, 69, 107
2, 12805, Note_on_c, 0, 74, 107
2, 12952, Note_on_c, 0, 66, 0
2, 12956, Note_on_c, 0, 66, 107
2, 13104, Note_on_c, 0, 69, 0
2, 13108, Note_on_c, 0, 69, 107
2, 13256, Note_on_c, 0, 74, 0
2, 13260, Note_on_c, 0, 74, 107
2, 13409, Note_on_c, 0, 60, 0
2, 13411, Note_on_c, 0, 60, 107
2, 13561, Note_on_c, 0, 62, 0
2, 13563, Note_on_c, 0, 62, 107
2, 13711, Note_on_c, 0, 66, 0
2, 13715, Note_on_c, 0, 66, 107
2, 13863, Note_on_c, 0, 69, 0
2, 13866, Note_on_c, 0, 69, 107
2, 14015, Note_on_c, 0, 74, 0
2, 14018, Note_on_c, 0, 74, 107
2, 14166, Note_on_c, 0, 66, 0
2, 14170, Note_on_c, 0, 66, 107
2, 14317, Note_on_c, 0, 69, 0
2, 14321, Note_on_c, 0, 69, 107
2, 14469, Note_on_c, 0, 74, 0
2, 14473, Note_on_c, 0, 74, 107
2, 14622, Note_on_c, 0, 60, 0
2, 14625, Note_on_c, 0, 66, 0
2, 14625, Note_on_c, 0, 59, 107
2, 14774, Note_on_c, 0, 62, 0
2, 14776, Note_on_c, 0, 62, 107
2, 14821, Note_on_c, 0, 69, 0
2, 14928, Note_on_c, 0, 67, 107
2, 15073, Note_on_c, 0, 74, 0
2, 15080, Note_on_c, 0, 74, 107
2, 15232, Note_on_c, 0, 79, 107
2, 15379, Note_on_c, 0, 67, 0
2, 15383, Note_on_c, 0, 67, 107
2, 15531, Note_on_c, 0, 74, 0
2, 15535, Note_on_c, 0, 74, 107
2, 15683, Note_on_c, 0, 79, 0
2, 15687, Note_on_c, 0, 79, 107
2, 15836, Note_on_c, 0, 59, 0
2, 15838, Note_on_c, 0, 59, 107
2, 15987, Note_on_c, 0, 62, 0
2, 15990, Note_on_c, 0, 62, 107
2, 16138, Note_on_c, 0, 67, 0
2, 16142, Note_on_c, 0, 67, 107
2, 16290, Note_on_c, 0, 74, 0
2, 16293, Note_on_c, 0, 74, 107
2, 16442, Note_on_c, 0, 79, 0
2, 16445, Note_on_c, 0, 79, 107
2, 16593, Note_on_c, 0, 67, 0
2, 16597, Note_on_c, 0, 67, 107
2, 16744, Note_on_c, 0, 74, 0
2, 16748, Note_on_c, 0, 74, 107
2, 16896, Note_on_c, 0, 79, 0
2, 16900, Note_on_c, 0, 79, 107
2, 17048, Note_on_c, 0, 62, 0
2, 17049, Note_on_c, 0, 59, 0
2, 17052, Note_on_c, 0, 59, 107
2, 17200, Note_on_c, 0, 79, 0
2, 17203, Note_on_c, 0, 74, 0
2, 17203, Note_on_c, 0, 60, 107
2, 17352, Note_on_c, 0, 67, 0
2, 17355, Note_on_c, 0, 64, 107
2, 17507, Note_on_c, 0, 67, 107
2, 17658, Note_on_c, 0, 72, 107
2, 17806, Note_on_c, 0, 64, 0
2, 17810, Note_on_c, 0, 64, 107
2, 17958, Note_on_c, 0, 67, 0
2, 17962, Note_on_c, 0, 67, 107
2, 18109, Note_on_c, 0, 72, 0
2, 18113, Note_on_c, 0, 72, 107
2, 18263, Note_on_c, 0, 59, 0
2, 18265, Note_on_c, 0, 59, 107
2, 18414, Note_on_c, 0, 60, 0
2, 18417, Note_on_c, 0, 60, 107
2, 18565, Note_on_c, 0, 64, 0
2, 18568, Note_on_c, 0, 64, 107
2, 18717, Note_on_c, 0, 67, 0
2, 18720, Note_on_c, 0, 67, 107
2, 18868, Note_on_c, 0, 72, 0
2, 18872, Note_on_c, 0, 72, 107
2, 19019, Note_on_c, 0, 64, 0
2, 19024, Note_on_c, 0, 64, 107
2, 19171, Note_on_c, 0, 67, 0
2, 19175, Note_on_c, 0, 67, 107
2, 19323, Note_on_c, 0, 72, 0
2, 19327, Note_on_c, 0, 72, 107
2, 19476, Note_on_c, 0, 59, 0
2, 19479, Note_on_c, 0, 57, 107
2, 19628, Note_on_c, 0, 60, 0
2, 19630, Note_on_c, 0, 60, 107
2, 19779, Note_on_c, 0, 64, 0
2, 19782, Note_on_c, 0, 64, 107
2, 19930, Note_on_c, 0, 67, 0
2, 19934, Note_on_c, 0, 67, 107
2, 20082, Note_on_c, 0, 72, 0
2, 20085, Note_on_c, 0, 72, 107
2, 20233, Note_on_c, 0, 64, 0
2, 20237, Note_on_c, 0, 64, 107
2, 20385, Note_on_c, 0, 67, 0
2, 20389, Note_on_c, 0, 67, 107
2, 20536, Note_on_c, 0, 72, 0
2, 20540, Note_on_c, 0, 72, 107
2, 20690, Note_on_c, 0, 57, 0
2, 20692, Note_on_c, 0, 57, 107
2, 20841, Note_on_c, 0, 60, 0
2, 20844, Note_on_c, 0, 60, 107
2, 20992, Note_on_c, 0, 64, 0
2, 20995, Note_on_c, 0, 64, 107
2, 21144, Note_on_c, 0, 67, 0
2, 21147, Note_on_c, 0, 67, 107
2, 21295, Note_on_c, 0, 72, 0
2, 21299, Note_on_c, 0, 72, 107
2, 21446, Note_on_c, 0, 64, 0
2, 21450, Note_on_c, 0, 64, 107
2, 21598, Note_on_c, 0, 67, 0
2, 21602, Note_on_c, 0, 67, 107
2, 21750, Note_on_c, 0, 72, 0
2, 21754, Note_on_c, 0, 72, 107
2, 21902, Note_on_c, 0, 60, 0
2, 21903, Note_on_c, 0, 57, 0
2, 21905, Note_on_c, 0, 64, 0
2, 21905, Note_on_c, 0, 50, 107
2, 22057, Note_on_c, 0, 67, 0
2, 22057, Note_on_c, 0, 57, 107
2, 22209, Note_on_c, 0, 62, 107
2, 22360, Note_on_c, 0, 66, 107
2, 22509, Note_on_c, 0, 72, 0
2, 22512, Note_on_c, 0, 72, 107
2, 22660, Note_on_c, 0, 62, 0
2, 22664, Note_on_c, 0, 62, 107
2, 22811, Note_on_c, 0, 66, 0
2, 22816, Note_on_c, 0, 66, 107
2, 22963, Note_on_c, 0, 72, 0
2, 22967, Note_on_c, 0, 72, 107
2, 23116, Note_on_c, 0, 50, 0
2, 23119, Note_on_c, 0, 50, 107
2, 23268, Note_on_c, 0, 57, 0
2, 23271, Note_on_c, 0, 57, 107
2, 23419, Note_on_c, 0, 62, 0
2, 23422, Note_on_c, 0, 62, 107
2, 23571, Note_on_c, 0, 66, 0
2, 23574, Note_on_c, 0, 66, 107
2, 23722, Note_on_c, 0, 72, 0
2, 23726, Note_on_c, 0, 72, 107
2, 23873, Note_on_c, 0, 62, 0
2, 23877, Note_on_c, 0, 62, 107
2, 24025, Note_on_c, 0, 66, 0
2, 24029, Note_on_c, 0, 66, 107
2, 24177, Note_on_c, 0, 72, 0
2, 24181, Note_on_c, 0, 72, 107
2, 24329, Note_on_c, 0, 66, 0
2, 24329, Note_on_c, 0, 57, 0
2, 24330, Note_on_c, 0, 50, 0
2, 24332, Note_on_c, 0, 55, 107
2, 24481, Note_on_c, 0, 72, 0
2, 24484, Note_on_c, 0, 59, 107
2, 24632, Note_on_c, 0, 62, 0
2, 24636, Note_on_c, 0, 62, 107
2, 24787, Note_on_c, 0, 67, 107
2, 24939, Note_on_c, 0, 71, 107
2, 25087, Note_on_c, 0, 62, 0
2, 25091, Note_on_c, 0, 62, 107
2, 25238, Note_on_c, 0, 67, 0
2, 25242, Note_on_c, 0, 67, 107
2, 25390, Note_on_c, 0, 71, 0
2, 25394, Note_on_c, 0, 71, 107
2, 25543, Note_on_c, 0, 55, 0
2, 25546, Note_on_c, 0, 55, 107
2, 25695, Note_on_c, 0, 59, 0
2, 25697, Note_on_c, 0, 59, 107
2, 25846, Note_on_c, 0, 62, 0
2, 25849, Note_on_c, 0, 62, 107
2, 25997, Note_on_c, 0, 67, 0
2, 26001, Note_on_c, 0, 67, 107
2, 26149, Note_on_c, 0, 71, 0
2, 26152, Note_on_c, 0, 71, 107
2, 26300, Note_on_c, 0, 62, 0
2, 26304, Note_on_c, 0, 62, 107
2, 26452, Note_on_c, 0, 67, 0
2, 26456, Note_on_c, 0, 67, 107
2, 26603, Note_on_c, 0, 71, 0
2, 26608, Note_on_c, 0, 71, 107
2, 26755, Note_on_c, 0, 59, 0
2, 26757, Note_on_c, 0, 55, 0
2, 26759, Note_on_c, 0, 55, 107
2, 26904, Note_on_c, 0, 62, 0
2, 26908, Note_on_c, 0, 71, 0
2, 26911, Note_on_c, 0, 58, 107
2, 27063, Note_on_c, 0, 64, 107
2, 27211, Note_on_c, 0, 67, 0
2, 27214, Note_on_c, 0, 67, 107
2, 27366, Note_on_c, 0, 73, 107
2, 27514, Note_on_c, 0, 64, 0
2, 27518, Note_on_c, 0, 64, 107
2, 27665, Note_on_c, 0, 67, 0
2, 27669, Note_on_c, 0, 67, 107
2, 27817, Note_on_c, 0, 73, 0
2, 27821, Note_on_c, 0, 73, 107
2, 27970, Note_on_c, 0, 55, 0
2, 27973, Note_on_c, 0, 55, 107
2, 28122, Note_on_c, 0, 58, 0
2, 28124, Note_on_c, 0, 58, 107
2, 28273, Note_on_c, 0, 64, 0
2, 28276, Note_on_c, 0, 64, 107
2, 28424, Note_on_c, 0, 67, 0
2, 28428, Note_on_c, 0, 67, 107
2, 28576, Note_on_c, 0, 73, 0
2, 28579, Note_on_c, 0, 73, 107
2, 28727, Note_on_c, 0, 64, 0
2, 28731, Note_on_c, 0, 64, 107
2, 28879, Note_on_c, 0, 67, 0
2, 28883, Note_on_c, 0, 67, 107
2, 29030, Note_on_c, 0, 73, 0
2, 29034, Note_on_c, 0, 73, 107
2, 29182, Note_on_c, 0, 58, 0
2, 29184, Note_on_c, 0, 55, 0
2, 29186, Note_on_c, 0, 53, 107
2, 29331, Note_on_c, 0, 64, 0
2, 29338, Note_on_c, 0, 67, 0
2, 29338, Note_on_c, 0, 57, 107
2, 29489, Note_on_c, 0, 73, 0
2, 29489, Note_on_c, 0, 62, 107
2, 29641, Note_on_c, 0, 69, 107
2, 29793, Note_on_c, 0, 74, 107
2, 29940, Note_on_c, 0, 62, 0
2, 29944, Note_on_c, 0, 62, 107
2, 30092, Note_on_c, 0, 69, 0
2, 30096, Note_on_c, 0, 69, 107
2, 30244, Note_on_c, 0, 74, 0
2, 30248, Note_on_c, 0, 74, 107
2, 30397, Note_on_c, 0, 53, 0
2, 30400, Note_on_c, 0, 53, 107
2, 30549, Note_on_c, 0, 57, 0
2, 30551, Note_on_c, 0, 57, 107
2, 30699, Note_on_c, 0, 62, 0
2, 30703, Note_on_c, 0, 62, 107
2, 30851, Note_on_c, 0, 69, 0
2, 30855, Note_on_c, 0, 69, 107
2, 31003, Note_on_c, 0, 74, 0
2, 31006, Note_on_c, 0, 74, 107
2, 31154, Note_on_c, 0, 62, 0
2, 31158, Note_on_c, 0, 62, 107
2, 31306, Note_on_c, 0, 69, 0
2, 31310, Note_on_c, 0, 69, 107
2, 31457, Note_on_c, 0, 74, 0
2, 31461, Note_on_c, 0, 74, 107
2, 31609, Note_on_c, 0, 57, 0
2, 31611, Note_on_c, 0, 53, 0
2, 31613, Note_on_c, 0, 53, 107
2, 31765, Note_on_c, 0, 69, 0
2, 31765, Note_on_c, 0, 56, 107
2, 31913, Note_on_c, 0, 62, 0
2, 31916, Note_on_c, 0, 62, 107
2, 32068, Note_on_c, 0, 65, 107
2, 32216, Note_on_c, 0, 74, 0
2, 32220, Note_on_c, 0, 71, 107
2, 32367, Note_on_c, 0, 62, 0
2, 32371, Note_on_c, 0, 62, 107
2, 32519, Note_on_c, 0, 65, 0
2, 32523, Note_on_c, 0, 65, 107
2, 32671, Note_on_c, 0, 71, 0
2, 32675, Note_on_c, 0, 71, 107
2, 32824, Note_on_c, 0, 53, 0
2, 32826, Note_on_c, 0, 53, 107
2, 32976, Note_on_c, 0, 56, 0
2, 32978, Note_on_c, 0, 56, 107
2, 33126, Note_on_c, 0, 62, 0
2, 33130, Note_on_c, 0, 62, 107
2, 33278, Note_on_c, 0, 65, 0
2, 33281, Note_on_c, 0, 65, 107
2, 33430, Note_on_c, 0, 71, 0
2, 33433, Note_on_c, 0, 71, 107
2, 33581, Note_on_c, 0, 62, 0
2, 33585, Note_on_c, 0, 62, 107
2, 33732, Note_on_c, 0, 65, 0
2, 33736, Note_on_c, 0, 65, 107
2, 33884, Note_on_c, 0, 71, 0
2, 33888, Note_on_c, 0, 71, 107
2, 34036, Note_on_c, 0, 56, 0
2, 34037, Note_on_c, 0, 53, 0
2, 34040, Note_on_c, 0, 52, 107
2, 34191, Note_on_c, 0, 65, 0
2, 34192, Note_on_c, 0, 55, 107
2, 34340, Note_on_c, 0, 62, 0
2, 34343, Note_on_c, 0, 71, 0
2, 34343, Note_on_c, 0, 60, 107
2, 34495, Note_on_c, 0, 67, 107
2, 34647, Note_on_c, 0, 72, 107
2, 34794, Note_on_c, 0, 60, 0
2, 34798, Note_on_c, 0, 60, 107
2, 34946, Note_on_c, 0, 67, 0
2, 34950, Note_on_c, 0, 67, 107
2, 35098, Note_on_c, 0, 72, 0
2, 35102, Note_on_c, 0, 72, 107
2, 35251, Note_on_c, 0, 52, 0
2, 35253, Note_on_c, 0, 52, 107
2, 35403, Note_on_c, 0, 55, 0
2, 35405, Note_on_c, 0, 55, 107
2, 35553, Note_on_c, 0, 60, 0
2, 35557, Note_on_c, 0, 60, 107
2, 35705, Note_on_c, 0, 67, 0
2, 35708, Note_on_c, 0, 67, 107
2, 35857, Note_on_c, 0, 72, 0
2, 35860, Note_on_c, 0, 72, 107
2, 36008, Note_on_c, 0, 60, 0
2, 36012, Note_on_c, 0, 60, 107
2, 36159, Note_on_c, 0, 67, 0
2, 36163, Note_on_c, 0, 67, 107
2, 36311, Note_on_c, 0, 72, 0
2, 36315, Note_on_c, 0, 72, 107
2, 36463, Note_on_c, 0, 72, 0
2, 36463, Note_on_c, 0, 67, 0
2, 36463, Note_on_c, 0, 55, 0
2, 36464, Note_on_c, 0, 52, 0
2, 36467, Note_on_c, 0, 52, 107
2, 36618, Note_on_c, 0, 53, 107
2, 36770, Note_on_c, 0, 57, 107
2, 36920, Note_on_c, 0, 60, 0
2, 36922, Note_on_c, 0, 60, 107
2, 37073, Note_on_c, 0, 65, 107
2, 37221, Note_on_c, 0, 57, 0
2, 37225, Note_on_c, 0, 57, 107
2, 37372, Note_on_c, 0, 60, 0
2, 37377, Note_on_c, 0, 60, 107
2, 37524, Note_on_c, 0, 65, 0
2, 37528, Note_on_c, 0, 65, 107
2, 37678, Note_on_c, 0, 52, 0
2, 37680, Note_on_c, 0, 52, 107
2, 37829, Note_on_c, 0, 53, 0
2, 37832, Note_on_c, 0, 53, 107
2, 37980, Note_on_c, 0, 57, 0
2, 37984, Note_on_c, 0, 57, 107
2, 38132, Note_on_c, 0, 60, 0
2, 38135, Note_on_c, 0, 60, 107
2, 38283, Note_on_c, 0, 65, 0
2, 38287, Note_on_c, 0, 65, 107
2, 38435, Note_on_c, 0, 57, 0
2, 38439, Note_on_c, 0, 57, 107
2, 38586, Note_on_c, 0, 60, 0
2, 38590, Note_on_c, 0, 60, 107
2, 38738, Note_on_c, 0, 65, 0
2, 38742, Note_on_c, 0, 65, 107
2, 38891, Note_on_c, 0, 52, 0
2, 38894, Note_on_c, 0, 50, 107
2, 39043, Note_on_c, 0, 53, 0
2, 39045, Note_on_c, 0, 53, 107
2, 39194, Note_on_c, 0, 57, 0
2, 39197, Note_on_c, 0, 57, 107
2, 39345, Note_on_c, 0, 60, 0
2, 39349, Note_on_c, 0, 60, 107
2, 39497, Note_on_c, 0, 65, 0
2, 39500, Note_on_c, 0, 65, 107
2, 39648, Note_on_c, 0, 57, 0
2, 39652, Note_on_c, 0, 57, 107
2, 39800, Note_on_c, 0, 60, 0
2, 39804, Note_on_c, 0, 60, 107
2, 39951, Note_on_c, 0, 65, 0
2, 39955, Note_on_c, 0, 65, 107
2, 40105, Note_on_c, 0, 50, 0
2, 40107, Note_on_c, 0, 50, 107
2, 40256, Note_on_c, 0, 53, 0
2, 40259, Note_on_c, 0, 53, 107
2, 40407, Note_on_c, 0, 57, 0
2, 40410, Note_on_c, 0, 57, 107
2, 40559, Note_on_c, 0, 60, 0
2, 40562, Note_on_c, 0, 60, 107
2, 40710, Note_on_c, 0, 65, 0
2, 40714, Note_on_c, 0, 65, 107
2, 40861, Note_on_c, 0, 57, 0
2, 40865, Note_on_c, 0, 57, 107
2, 41013, Note_on_c, 0, 60, 0
2, 41017, Note_on_c, 0, 60, 107
2, 41165, Note_on_c, 0, 65, 0
2, 41169, Note_on_c, 0, 65, 107
2, 41317, Note_on_c, 0, 53, 0
2, 41320, Note_on_c, 0, 57, 0
2, 41320, Note_on_c, 0, 43, 107
2, 41465, Note_on_c, 0, 50, 0
2, 41472, Note_on_c, 0, 60, 0
2, 41472, Note_on_c, 0, 50, 107
2, 41624, Note_on_c, 0, 55, 107
2, 41776, Note_on_c, 0, 59, 107
2, 41924, Note_on_c, 0, 65, 0
2, 41927, Note_on_c, 0, 65, 107
2, 42075, Note_on_c, 0, 55, 0
2, 42079, Note_on_c, 0, 55, 107
2, 42227, Note_on_c, 0, 59, 0
2, 42231, Note_on_c, 0, 59, 107
2, 42378, Note_on_c, 0, 65, 0
2, 42382, Note_on_c, 0, 65, 107
2, 42531, Note_on_c, 0, 43, 0
2, 42534, Note_on_c, 0, 43, 107
2, 42683, Note_on_c, 0, 50, 0
2, 42686, Note_on_c, 0, 50, 107
2, 42834, Note_on_c, 0, 55, 0
2, 42837, Note_on_c, 0, 55, 107
2, 42986, Note_on_c, 0, 59, 0
2, 42989, Note_on_c, 0, 59, 107
2, 43137, Note_on_c, 0, 65, 0
2, 43141, Note_on_c, 0, 65, 107
2, 43288, Note_on_c, 0, 55, 0
2, 43292, Note_on_c, 0, 55, 107
2, 43440, Note_on_c, 0, 59, 0
2, 43444, Note_on_c, 0, 59, 107
2, 43592, Note_on_c, 0, 65, 0
2, 43596, Note_on_c, 0, 65, 107
2, 43744, Note_on_c, 0, 59, 0
2, 43744, Note_on_c, 0, 50, 0
2, 43745, Note_on_c, 0, 43, 0
2, 43747, Note_on_c, 0, 48, 107
2, 43896, Note_on_c, 0, 65, 0
2, 43899, Note_on_c, 0, 52, 107
2, 44047, Note_on_c, 0, 55, 0
2, 44051, Note_on_c, 0, 55, 107
2, 44202, Note_on_c, 0, 60, 107
2, 44354, Note_on_c, 0, 64, 107
2, 44502, Note_on_c, 0, 55, 0
2, 44506, Note_on_c, 0, 55, 107
2, 44653, Note_on_c, 0, 60, 0
2, 44657, Note_on_c, 0, 60, 107
2, 44805, Note_on_c, 0, 64, 0
2, 44809, Note_on_c, 0, 64, 107
2, 44958, Note_on_c, 0, 48, 0
2, 44961, Note_on_c, 0, 48, 107
2, 45110, Note_on_c, 0, 52, 0
2, 45112, Note_on_c, 0, 52, 107
2, 45261, Note_on_c, 0, 55, 0
2, 45264, Note_on_c, 0, 55, 107
2, 45412, Note_on_c, 0, 60, 0
2, 45416, Note_on_c, 0, 60, 107
2, 45564, Note_on_c, 0, 64, 0
2, 45568, Note_on_c, 0, 64, 107
2, 45715, Note_on_c, 0, 55, 0
2, 45719, Note_on_c, 0, 55, 107
2, 45867, Note_on_c, 0, 60, 0
2, 45871, Note_on_c, 0, 60, 107
2, 46019, Note_on_c, 0, 64, 0
2, 46023, Note_on_c, 0, 64, 107
2, 46170, Note_on_c, 0, 52, 0
2, 46172, Note_on_c, 0, 48, 0
2, 46174, Note_on_c, 0, 48, 107
2, 46319, Note_on_c, 0, 55, 0
2, 46326, Note_on_c, 0, 55, 107
2, 46478, Note_on_c, 0, 58, 107
2, 46626, Note_on_c, 0, 60, 0
2, 46629, Note_on_c, 0, 60, 107
2, 46778, Note_on_c, 0, 64, 0
2, 46781, Note_on_c, 0, 64, 107
2, 46929, Note_on_c, 0, 58, 0
2, 46933, Note_on_c, 0, 58, 107
2, 47080, Note_on_c, 0, 60, 0
2, 47084, Note_on_c, 0, 60, 107
2, 47232, Note_on_c, 0, 64, 0
2, 47236, Note_on_c, 0, 64, 107
2, 47385, Note_on_c, 0, 48, 0
2, 47388, Note_on_c, 0, 48, 107
2, 47537, Note_on_c, 0, 55, 0
2, 47539, Note_on_c, 0, 55, 107
2, 47688, Note_on_c, 0, 58, 0
2, 47691, Note_on_c, 0, 58, 107
2, 47839, Note_on_c, 0, 60, 0
2, 47843, Note_on_c, 0, 60, 107
2, 47991, Note_on_c, 0, 64, 0
2, 47994, Note_on_c, 0, 64, 107
2, 48142, Note_on_c, 0, 58, 0
2, 48146, Note_on_c, 0, 58, 107
2, 48294, Note_on_c, 0, 60, 0
2, 48298, Note_on_c, 0, 60, 107
2, 48445, Note_on_c, 0, 64, 0
2, 48449, Note_on_c, 0, 64, 107
2, 48597, Note_on_c, 0, 55, 0
2, 48599, Note_on_c, 0, 48, 0
2, 48601, Note_on_c, 0, 58, 0
2, 48601, Note_on_c, 0, 41, 107
2, 48753, Note_on_c, 0, 53, 107
2, 48904, Note_on_c, 0, 57, 107
2, 49053, Note_on_c, 0, 60, 0
2, 49056, Note_on_c, 0, 60, 107
2, 49204, Note_on_c, 0, 64, 0
2, 49208, Note_on_c, 0, 64, 107
2, 49355, Note_on_c, 0, 57, 0
2, 49360, Note_on_c, 0, 57, 107
2, 49507, Note_on_c, 0, 60, 0
2, 49511, Note_on_c, 0, 60, 107
2, 49659, Note_on_c, 0, 64, 0
2, 49663, Note_on_c, 0, 64, 107
2, 49812, Note_on_c, 0, 41, 0
2, 49815, Note_on_c, 0, 41, 107
2, 49964, Note_on_c, 0, 53, 0
2, 49966, Note_on_c, 0, 53, 107
2, 50115, Note_on_c, 0, 57, 0
2, 50118, Note_on_c, 0, 57, 107
2, 50266, Note_on_c, 0, 60, 0
2, 50270, Note_on_c, 0, 60, 107
2, 50418, Note_on_c, 0, 64, 0
2, 50421, Note_on_c, 0, 64, 107
2, 50569, Note_on_c, 0, 57, 0
2, 50573, Note_on_c, 0, 57, 107
2, 50721, Note_on_c, 0, 60, 0
2, 50725, Note_on_c, 0, 60, 107
2, 50872, Note_on_c, 0, 64, 0
2, 50876, Note_on_c, 0, 64, 107
2, 51024, Note_on_c, 0, 64, 0
2, 51024, Note_on_c, 0, 53, 0
2, 51026, Note_on_c, 0, 41, 0
2, 51028, Note_on_c, 0, 42, 107
2, 51180, Note_on_c, 0, 48, 107
2, 51328, Note_on_c, 0, 57, 0
2, 51331, Note_on_c, 0, 57, 107
2, 51480, Note_on_c, 0, 60, 0
2, 51483, Note_on_c, 0, 60, 107
2, 51635, Note_on_c, 0, 63, 107
2, 51782, Note_on_c, 0, 57, 0
2, 51786, Note_on_c, 0, 57, 107
2, 51934, Note_on_c, 0, 60, 0
2, 51938, Note_on_c, 0, 60, 107
2, 52086, Note_on_c, 0, 63, 0
2, 52090, Note_on_c, 0, 63, 107
2, 52239, Note_on_c, 0, 42, 0
2, 52241, Note_on_c, 0, 42, 107
2, 52391, Note_on_c, 0, 48, 0
2, 52393, Note_on_c, 0, 48, 107
2, 52541, Note_on_c, 0, 57, 0
2, 52545, Note_on_c, 0, 57, 107
2, 52693, Note_on_c, 0, 60, 0
2, 52696, Note_on_c, 0, 60, 107
2, 52845, Note_on_c, 0, 63, 0
2, 52848, Note_on_c, 0, 63, 107
2, 52996, Note_on_c, 0, 57, 0
2, 53000, Note_on_c, 0, 57, 107
2, 53147, Note_on_c, 0, 60, 0
2, 53152, Note_on_c, 0, 60, 107
2, 53299, Note_on_c, 0, 63, 0
2, 53300, Note_on_c, 0, 57, 0
2, 53303, Note_on_c, 0, 63, 107
2, 53451, Note_on_c, 0, 63, 0
2, 53451, Note_on_c, 0, 48, 0
2, 53452, Note_on_c, 0, 42, 0
2, 53455, Note_on_c, 0, 44, 107
2, 53607, Note_on_c, 0, 53, 107
2, 53758, Note_on_c, 0, 59, 107
2, 53907, Note_on_c, 0, 60, 0
2, 53910, Note_on_c, 0, 60, 107
2, 54062, Note_on_c, 0, 62, 107
2, 54209, Note_on_c, 0, 59, 0
2, 54210, Note_on_c, 0, 60, 0
2, 54213, Note_on_c, 0, 59, 107
2, 54365, Note_on_c, 0, 60, 107
2, 54501, Note_on_c, 0, 62, 0
2, 54517, Note_on_c, 0, 62, 107
2, 54665, Note_on_c, 0, 60, 0
2, 54666, Note_on_c, 0, 44, 0
2, 54668, Note_on_c, 0, 44, 107
2, 54818, Note_on_c, 0, 53, 0
2, 54820, Note_on_c, 0, 53, 107
2, 54968, Note_on_c, 0, 59, 0
2, 54972, Note_on_c, 0, 59, 107
2, 55123, Note_on_c, 0, 60, 107
2, 55240, Note_on_c, 0, 62, 0
2, 55275, Note_on_c, 0, 62, 107
2, 55423, Note_on_c, 0, 59, 0
2, 55423, Note_on_c, 0, 60, 0
2, 55427, Note_on_c, 0, 59, 107
2, 55578, Note_on_c, 0, 60, 107
2, 55726, Note_on_c, 0, 60, 0
2, 55726, Note_on_c, 0, 62, 0
2, 55730, Note_on_c, 0, 62, 107
2, 55879, Note_on_c, 0, 44, 0
2, 55882, Note_on_c, 0, 43, 107
2, 56031, Note_on_c, 0, 53, 0
2, 56033, Note_on_c, 0, 53, 107
2, 56056, Note_on_c, 0, 62, 0
2, 56185, Note_on_c, 0, 55, 107
2, 56327, Note_on_c, 0, 59, 0
2, 56337, Note_on_c, 0, 59, 107
2, 56488, Note_on_c, 0, 62, 107
2, 56636, Note_on_c, 0, 55, 0
2, 56640, Note_on_c, 0, 55, 107
2, 56788, Note_on_c, 0, 59, 0
2, 56792, Note_on_c, 0, 59, 107
2, 56939, Note_on_c, 0, 62, 0
2, 56944, Note_on_c, 0, 62, 107
2, 57093, Note_on_c, 0, 43, 0
2, 57095, Note_on_c, 0, 43, 107
2, 57244, Note_on_c, 0, 53, 0
2, 57247, Note_on_c, 0, 53, 107
2, 57395, Note_on_c, 0, 55, 0
2, 57399, Note_on_c, 0, 55, 107
2, 57547, Note_on_c, 0, 59, 0
2, 57550, Note_on_c, 0, 59, 107
2, 57699, Note_on_c, 0, 62, 0
2, 57702, Note_on_c, 0, 62, 107
2, 57850, Note_on_c, 0, 55, 0
2, 57854, Note_on_c, 0, 55, 107
2, 58001, Note_on_c, 0, 59, 0
2, 58005, Note_on_c, 0, 59, 107
2, 58153, Note_on_c, 0, 62, 0
2, 58157, Note_on_c, 0, 62, 107
2, 58305, Note_on_c, 0, 53, 0
2, 58306, Note_on_c, 0, 43, 0
2, 58309, Note_on_c, 0, 43, 107
2, 58460, Note_on_c, 0, 52, 107
2, 58497, Note_on_c, 0, 62, 0
2, 58609, Note_on_c, 0, 55, 0
2, 58612, Note_on_c, 0, 55, 107
2, 58760, Note_on_c, 0, 59, 0
2, 58764, Note_on_c, 0, 60, 107
2, 58915, Note_on_c, 0, 64, 107
2, 59063, Note_on_c, 0, 55, 0
2, 59067, Note_on_c, 0, 55, 107
2, 59215, Note_on_c, 0, 60, 0
2, 59219, Note_on_c, 0, 60, 107
2, 59366, Note_on_c, 0, 64, 0
2, 59370, Note_on_c, 0, 64, 107
2, 59520, Note_on_c, 0, 43, 0
2, 59522, Note_on_c, 0, 43, 107
2, 59671, Note_on_c, 0, 52, 0
2, 59674, Note_on_c, 0, 52, 107
2, 59812, Note_on_c, 0, 64, 0
2, 59822, Note_on_c, 0, 55, 0
2, 59825, Note_on_c, 0, 55, 107
2, 59974, Note_on_c, 0, 60, 0
2, 59977, Note_on_c, 0, 60, 107
2, 60129, Note_on_c, 0, 64, 107
2, 60276, Note_on_c, 0, 55, 0
2, 60280, Note_on_c, 0, 55, 107
2, 60428, Note_on_c, 0, 60, 0
2, 60432, Note_on_c, 0, 60, 107
2, 60580, Note_on_c, 0, 64, 0
2, 60584, Note_on_c, 0, 64, 107
2, 60732, Note_on_c, 0, 52, 0
2, 60733, Note_on_c, 0, 43, 0
2, 60736, Note_on_c, 0, 43, 107
2, 60887, Note_on_c, 0, 50, 107
2, 61026, Note_on_c, 0, 64, 0
2, 61035, Note_on_c, 0, 55, 0
2, 61039, Note_on_c, 0, 55, 107
2, 61187, Note_on_c, 0, 60, 0
2, 61191, Note_on_c, 0, 60, 107
2, 61342, Note_on_c, 0, 65, 107
2, 61490, Note_on_c, 0, 55, 0
2, 61494, Note_on_c, 0, 55, 107
2, 61642, Note_on_c, 0, 60, 0
2, 61646, Note_on_c, 0, 60, 107
2, 61793, Note_on_c, 0, 65, 0
2, 61797, Note_on_c, 0, 65, 107
2, 61947, Note_on_c, 0, 43, 0
2, 61949, Note_on_c, 0, 43, 107
2, 62098, Note_on_c, 0, 50, 0
2, 62101, Note_on_c, 0, 50, 107
2, 62239, Note_on_c, 0, 65, 0
2, 62249, Note_on_c, 0, 55, 0
2, 62252, Note_on_c, 0, 55, 107
2, 62401, Note_on_c, 0, 60, 0
2, 62404, Note_on_c, 0, 60, 107
2, 62556, Note_on_c, 0, 65, 107
2, 62703, Note_on_c, 0, 55, 0
2, 62707, Note_on_c, 0, 55, 107
2, 62855, Note_on_c, 0, 60, 0
2, 62859, Note_on_c, 0, 60, 107
2, 63007, Note_on_c, 0, 65, 0
2, 63011, Note_on_c, 0, 65, 107
2, 63160, Note_on_c, 0, 43, 0
2, 63162, Note_on_c, 0, 43, 107
2, 63312, Note_on_c, 0, 50, 0
2, 63314, Note_on_c, 0, 50, 107
2, 63453, Note_on_c, 0, 65, 0
2, 63462, Note_on_c, 0, 55, 0
2, 63466, Note_on_c, 0, 55, 107
2, 63614, Note_on_c, 0, 60, 0
2, 63617, Note_on_c, 0, 59, 107
2, 63769, Note_on_c, 0, 65, 107
2, 63917, Note_on_c, 0, 55, 0
2, 63921, Note_on_c, 0, 55, 107
2, 64068, Note_on_c, 0, 59, 0
2, 64072, Note_on_c, 0, 59, 107
2, 64220, Note_on_c, 0, 65, 0
2, 64224, Note_on_c, 0, 65, 107
2, 64373, Note_on_c, 0, 43, 0
2, 64376, Note_on_c, 0, 43, 107
2, 64525, Note_on_c, 0, 50, 0
2, 64528, Note_on_c, 0, 50, 107
2, 64666, Note_on_c, 0, 65, 0
2, 64676, Note_on_c, 0, 55, 0
2, 64679, Note_on_c, 0, 55, 107
2, 64827, Note_on_c, 0, 59, 0
2, 64831, Note_on_c, 0, 59, 107
2, 64983, Note_on_c, 0, 65, 107
2, 65130, Note_on_c, 0, 55, 0
2, 65134, Note_on_c, 0, 55, 107
2, 65282, Note_on_c, 0, 59, 0
2, 65286, Note_on_c, 0, 59, 107
2, 65434, Note_on_c, 0, 65, 0
2, 65438, Note_on_c, 0, 65, 107
2, 65586, Note_on_c, 0, 50, 0
2, 65587, Note_on_c, 0, 43, 0
2, 65589, Note_on_c, 0, 43, 107
2, 65738, Note_on_c, 0, 65, 0
2, 65741, Note_on_c, 0, 51, 107
2, 65886, Note_on_c, 0, 59, 0
2, 65889, Note_on_c, 0, 55, 0
2, 65893, Note_on_c, 0, 57, 107
2, 66044, Note_on_c, 0, 60, 107
2, 66196, Note_on_c, 0, 66, 107
2, 66344, Note_on_c, 0, 57, 0
2, 66348, Note_on_c, 0, 57, 107
2, 66495, Note_on_c, 0, 60, 0
2, 66499, Note_on_c, 0, 60, 107
2, 66647, Note_on_c, 0, 66, 0
2, 66651, Note_on_c, 0, 66, 107
2, 66800, Note_on_c, 0, 43, 0
2, 66803, Note_on_c, 0, 43, 107
2, 66952, Note_on_c, 0, 51, 0
2, 66954, Note_on_c, 0, 51, 107
2, 67093, Note_on_c, 0, 66, 0
2, 67103, Note_on_c, 0, 57, 0
2, 67106, Note_on_c, 0, 57, 107
2, 67254, Note_on_c, 0, 60, 0
2, 67258, Note_on_c, 0, 60, 107
2, 67409, Note_on_c, 0, 66, 107
2, 67557, Note_on_c, 0, 57, 0
2, 67561, Note_on_c, 0, 57, 107
2, 67709, Note_on_c, 0, 60, 0
2, 67713, Note_on_c, 0, 60, 107
2, 67860, Note_on_c, 0, 66, 0
2, 67864, Note_on_c, 0, 66, 107
2, 68012, Note_on_c, 0, 51, 0
2, 68014, Note_on_c, 0, 43, 0
2, 68016, Note_on_c, 0, 43, 107
2, 68161, Note_on_c, 0, 57, 0
2, 68164, Note_on_c, 0, 66, 0
2, 68168, Note_on_c, 0, 52, 107
2, 68320, Note_on_c, 0, 55, 107
2, 68468, Note_on_c, 0, 60, 0
2, 68471, Note_on_c, 0, 60, 107
2, 68623, Note_on_c, 0, 67, 107
2, 68771, Note_on_c, 0, 55, 0
2, 68775, Note_on_c, 0, 55, 107
2, 68922, Note_on_c, 0, 60, 0
2, 68926, Note_on_c, 0, 60, 107
2, 69074, Note_on_c, 0, 67, 0
2, 69078, Note_on_c, 0, 67, 107
2, 69227, Note_on_c, 0, 43, 0
2, 69230, Note_on_c, 0, 43, 107
2, 69379, Note_on_c, 0, 52, 0
2, 69381, Note_on_c, 0, 52, 107
2, 69520, Note_on_c, 0, 67, 0
2, 69530, Note_on_c, 0, 55, 0
2, 69533, Note_on_c, 0, 55, 107
2, 69681, Note_on_c, 0, 60, 0
2, 69685, Note_on_c, 0, 60, 107
2, 69836, Note_on_c, 0, 67, 107
2, 69984, Note_on_c, 0, 55, 0
2, 69988, Note_on_c, 0, 55, 107
2, 70136, Note_on_c, 0, 60, 0
2, 70140, Note_on_c, 0, 60, 107
2, 70287, Note_on_c, 0, 67, 0
2, 70291, Note_on_c, 0, 67, 107
2, 70439, Note_on_c, 0, 52, 0
2, 70441, Note_on_c, 0, 43, 0
2, 70443, Note_on_c, 0, 43, 107
2, 70596, Note_on_c, 0, 50, 107
2, 70736, Note_on_c, 0, 67, 0
2, 70746, Note_on_c, 0, 55, 0
2, 70750, Note_on_c, 0, 55, 107
2, 70899, Note_on_c, 0, 60, 0
2, 70903, Note_on_c, 0, 60, 107
2, 71056, Note_on_c, 0, 65, 107
2, 71206, Note_on_c, 0, 55, 0
2, 71209, Note_on_c, 0, 55, 107
2, 71359, Note_on_c, 0, 60, 0
2, 71363, Note_on_c, 0, 60, 107
2, 71512, Note_on_c, 0, 65, 0
2, 71516, Note_on_c, 0, 65, 107
2, 71667, Note_on_c, 0, 43, 0
2, 71669, Note_on_c, 0, 43, 107
2, 71820, Note_on_c, 0, 50, 0
2, 71822, Note_on_c, 0, 50, 107
2, 71963, Note_on_c, 0, 65, 0
2, 71972, Note_on_c, 0, 55, 0
2, 71976, Note_on_c, 0, 55, 107
2, 72126, Note_on_c, 0, 60, 0
2, 72129, Note_on_c, 0, 60, 107
2, 72282, Note_on_c, 0, 65, 107
2, 72432, Note_on_c, 0, 55, 0
2, 72435, Note_on_c, 0, 55, 107
2, 72585, Note_on_c, 0, 60, 0
2, 72589, Note_on_c, 0, 60, 107
2, 72738, Note_on_c, 0, 65, 0
2, 72742, Note_on_c, 0, 65, 107
2, 72893, Note_on_c, 0, 43, 0
2, 72895, Note_on_c, 0, 43, 107
2, 73049, Note_on_c, 0, 50, 0
2, 73051, Note_on_c, 0, 60, 0
2, 73052, Note_on_c, 0, 50, 107
2, 73193, Note_on_c, 0, 65, 0
2, 73202, Note_on_c, 0, 55, 0
2, 73206, Note_on_c, 0, 55, 107
2, 73363, Note_on_c, 0, 59, 107
2, 73519, Note_on_c, 0, 65, 107
2, 73672, Note_on_c, 0, 55, 0
2, 73676, Note_on_c, 0, 55, 107
2, 73829, Note_on_c, 0, 59, 0
2, 73832, Note_on_c, 0, 59, 107
2, 73985, Note_on_c, 0, 65, 0
2, 73989, Note_on_c, 0, 65, 107
2, 74143, Note_on_c, 0, 43, 0
2, 74145, Note_on_c, 0, 43, 107
2, 74300, Note_on_c, 0, 50, 0
2, 74301, Note_on_c, 0, 50, 107
2, 74444, Note_on_c, 0, 65, 0
2, 74453, Note_on_c, 0, 55, 0
2, 74456, Note_on_c, 0, 55, 107
2, 74609, Note_on_c, 0, 59, 0
2, 74613, Note_on_c, 0, 59, 107
2, 74769, Note_on_c, 0, 65, 107
2, 74922, Note_on_c, 0, 55, 0
2, 74925, Note_on_c, 0, 55, 107
2, 75079, Note_on_c, 0, 59, 0
2, 75082, Note_on_c, 0, 59, 107
2, 75235, Note_on_c, 0, 65, 0
2, 75238, Note_on_c, 0, 65, 107
2, 75391, Note_on_c, 0, 50, 0
2, 75391, Note_on_c, 0, 59, 0
2, 75393, Note_on_c, 0, 43, 0
2, 75395, Note_on_c, 0, 36, 107
2, 75557, Note_on_c, 0, 48, 107
2, 75716, Note_on_c, 0, 55, 0
2, 75719, Note_on_c, 0, 65, 0
2, 75720, Note_on_c, 0, 55, 107
2, 75883, Note_on_c, 0, 58, 107
2, 76046, Note_on_c, 0, 64, 107
2, 76205, Note_on_c, 0, 55, 0
2, 76208, Note_on_c, 0, 55, 107
2, 76368, Note_on_c, 0, 58, 0
2, 76371, Note_on_c, 0, 58, 107
2, 76531, Note_on_c, 0, 64, 0
2, 76534, Note_on_c, 0, 64, 107
2, 76695, Note_on_c, 0, 36, 0
2, 76697, Note_on_c, 0, 36, 107
2, 76863, Note_on_c, 0, 48, 0
2, 76866, Note_on_c, 0, 48, 107
2, 77031, Note_on_c, 0, 55, 0
2, 77035, Note_on_c, 0, 55, 107
2, 77200, Note_on_c, 0, 58, 0
2, 77204, Note_on_c, 0, 58, 107
2, 77369, Note_on_c, 0, 64, 0
2, 77373, Note_on_c, 0, 64, 107
2, 77539, Note_on_c, 0, 55, 0
2, 77542, Note_on_c, 0, 55, 107
2, 77708, Note_on_c, 0, 58, 0
2, 77711, Note_on_c, 0, 58, 107
2, 77877, Note_on_c, 0, 64, 0
2, 77880, Note_on_c, 0, 64, 107
2, 78045, Note_on_c, 0, 58, 0
2, 78047, Note_on_c, 0, 36, 0
2, 78049, Note_on_c, 0, 55, 0
2, 78049, Note_on_c, 0, 36, 107
2, 78226, Note_on_c, 0, 64, 0
2, 78227, Note_on_c, 0, 48, 0
2, 78229, Note_on_c, 0, 48, 107
2, 78409, Note_on_c, 0, 53, 107
2, 78590, Note_on_c, 0, 57, 107
2, 78770, Note_on_c, 0, 60, 107
2, 78950, Note_on_c, 0, 65, 107
2, 79127, Note_on_c, 0, 60, 0
2, 79130, Note_on_c, 0, 60, 107
2, 79302, Note_on_c, 0, 57, 0
2, 79310, Note_on_c, 0, 57, 107
2, 79487, Note_on_c, 0, 60, 0
2, 79490, Note_on_c, 0, 65, 0
2, 79490, Note_on_c, 0, 60, 107
2, 79667, Note_on_c, 0, 57, 0
2, 79670, Note_on_c, 0, 57, 107
2, 79848, Note_on_c, 0, 53, 0
2, 79850, Note_on_c, 0, 53, 107
2, 80027, Note_on_c, 0, 57, 0
2, 80030, Note_on_c, 0, 60, 0
2, 80030, Note_on_c, 0, 57, 107
2, 80207, Note_on_c, 0, 53, 0
2, 80211, Note_on_c, 0, 53, 107
2, 80398, Note_on_c, 0, 48, 0
2, 80403, Note_on_c, 0, 50, 107
2, 80590, Note_on_c, 0, 57, 0
2, 80591, Note_on_c, 0, 53, 0
2, 80596, Note_on_c, 0, 53, 107
2, 80783, Note_on_c, 0, 50, 0
2, 80789, Note_on_c, 0, 50, 107
2, 80968, Note_on_c, 0, 36, 0
2, 80982, Note_on_c, 0, 36, 107
2, 81172, Note_on_c, 0, 50, 0
2, 81177, Note_on_c, 0, 53, 0
2, 81178, Note_on_c, 0, 47, 107
2, 81373, Note_on_c, 0, 67, 107
2, 81569, Note_on_c, 0, 71, 107
2, 81765, Note_on_c, 0, 74, 107
2, 81961, Note_on_c, 0, 77, 107
2, 82152, Note_on_c, 0, 74, 0
2, 82157, Note_on_c, 0, 74, 107
2, 82344, Note_on_c, 0, 71, 0
2, 82353, Note_on_c, 0, 71, 107
2, 82544, Note_on_c, 0, 74, 0
2, 82548, Note_on_c, 0, 77, 0
2, 82549, Note_on_c, 0, 74, 107
2, 82740, Note_on_c, 0, 71, 0
2, 82745, Note_on_c, 0, 71, 107
2, 82937, Note_on_c, 0, 67, 0
2, 82939, Note_on_c, 0, 67, 107
2, 83130, Note_on_c, 0, 71, 0
2, 83135, Note_on_c, 0, 74, 0
2, 83135, Note_on_c, 0, 71, 107
2, 83331, Note_on_c, 0, 62, 107
2, 83547, Note_on_c, 0, 67, 0
2, 83552, Note_on_c, 0, 65, 107
2, 83768, Note_on_c, 0, 62, 0
2, 83773, Note_on_c, 0, 64, 107
2, 83992, Note_on_c, 0, 64, 0
2, 83995, Note_on_c, 0, 62, 107
2, 84203, Note_on_c, 0, 36, 0
2, 84217, Note_on_c, 0, 71, 0
2, 84217, Note_on_c, 0, 36, 107
2, 84426, Note_on_c, 0, 47, 0
2, 84430, Note_on_c, 0, 65, 0
2, 84435, Note_on_c, 0, 62, 0
2, 84551, Note_on_c, 0, 48, 107
2, 84883, Note_on_c, 0, 64, 107
2, 85214, Note_on_c, 0, 67, 107
2, 85546, Note_on_c, 0, 72, 107
2, 89004, Note_on_c, 0, 72, 0
2, 89004, Note_on_c, 0, 36, 0
2, 89004, Note_on_c, 0, 67, 0
2, 89005, Note_on_c, 0, 64, 0
2, 89005, Note_on_c, 0, 48, 0
2, 89389, Note_on_c, 0, 60, 107
2, 89773, Note_on_c, 0, 60, 0
2, 89773, Note_on_c, 0, 62, 107
2, 90113, Note_on_c, 0, 62, 0
2, 90157, Note_on_c, 0, 64, 107
2, 90497, Note_on_c, 0, 64, 0
2, 90541, Note_on_c, 0, 65, 107
2, 91116, Note_on_c, 0, 65, 0
2, 91117, Note_on_c, 0, 67, 107
2, 91211, Note_on_c, 0, 67, 0
2, 91214, Note_on_c, 0, 65, 107
2, 91308, Note_on_c, 0, 65, 0
2, 91310, Note_on_c, 0, 64, 107
2, 91692, Note_on_c, 0, 64, 0
2, 91694, Note_on_c, 0, 69, 107
2, 92034, Note_on_c, 0, 69, 0
2, 92078, Note_on_c, 0, 62, 107
2, 92438, Note_on_c, 0, 62, 0
2, 92448, Note_on_c, 0, 67, 107
2, 92530, Note_on_c, 0, 65, 107
2, 92533, Note_on_c, 0, 67, 0
2, 92612, Note_on_c, 0, 67, 107
2, 92615, Note_on_c, 0, 65, 0
2, 93055, Note_on_c, 0, 69, 107
2, 93078, Note_on_c, 0, 67, 0
2, 93244, Note_on_c, 0, 69, 0
2, 93246, Note_on_c, 0, 67, 107
2, 93435, Note_on_c, 0, 67, 0
2, 93437, Note_on_c, 0, 65, 107
2, 93626, Note_on_c, 0, 65, 0
2, 93628, Note_on_c, 0, 64, 107
2, 93817, Note_on_c, 0, 64, 0
2, 93819, Note_on_c, 0, 65, 107
2, 94008, Note_on_c, 0, 65, 0
2, 94011, Note_on_c, 0, 64, 107
2, 94011, Note_on_c, 0, 67, 107
2, 94200, Note_on_c, 0, 64, 0
2, 94202, Note_on_c, 0, 62, 107
2, 94381, Note_on_c, 0, 67, 0
2, 94391, Note_on_c, 0, 62, 0
2, 94393, Note_on_c, 0, 60, 107
2, 94393, Note_on_c, 0, 69, 107
2, 94582, Note_on_c, 0, 60, 0
2, 94584, Note_on_c, 0, 62, 107
2, 94663, Note_on_c, 0, 69, 0
2, 94773, Note_on_c, 0, 62, 0
2, 94775, Note_on_c, 0, 60, 107
2, 94775, Note_on_c, 0, 71, 107
2, 94964, Note_on_c, 0, 60, 0
2, 94966, Note_on_c, 0, 59, 107
2, 95045, Note_on_c, 0, 71, 0
2, 95155, Note_on_c, 0, 59, 0
2, 95158, Note_on_c, 0, 57, 107
2, 95158, Note_on_c, 0, 72, 107
2, 95540, Note_on_c, 0, 57, 0
2, 95542, Note_on_c, 0, 66, 107
2, 95731, Note_on_c, 0, 72, 0
2, 95733, Note_on_c, 0, 74, 107
2, 95827, Note_on_c, 0, 74, 0
2, 95829, Note_on_c, 0, 72, 107
2, 95923, Note_on_c, 0, 72, 0
2, 95924, Note_on_c, 0, 66, 0
2, 95925, Note_on_c, 0, 67, 107
2, 95925, Note_on_c, 0, 71, 107
2, 96307, Note_on_c, 0, 71, 0
2, 96309, Note_on_c, 0, 76, 107
2, 96597, Note_on_c, 0, 76, 0
2, 96693, Note_on_c, 0, 69, 107
2, 97073, Note_on_c, 0, 69, 0
2, 97077, Note_on_c, 0, 66, 107
2, 97077, Note_on_c, 0, 74, 107
2, 97089, Note_on_c, 0, 67, 0
2, 97171, Note_on_c, 0, 74, 0
2, 97174, Note_on_c, 0, 72, 107
2, 97268, Note_on_c, 0, 72, 0
2, 97268, Note_on_c, 0, 66, 0
2, 97270, Note_on_c, 0, 64, 107
2, 97270, Note_on_c, 0, 74, 107
2, 97459, Note_on_c, 0, 64, 0
2, 97461, Note_on_c, 0, 66, 107
2, 97650, Note_on_c, 0, 74, 0
2, 97652, Note_on_c, 0, 76, 107
2, 97841, Note_on_c, 0, 76, 0
2, 97841, Note_on_c, 0, 66, 0
2, 97844, Note_on_c, 0, 62, 107
2, 97844, Note_on_c, 0, 74, 107
2, 98033, Note_on_c, 0, 74, 0
2, 98035, Note_on_c, 0, 72, 107
2, 98224, Note_on_c, 0, 72, 0
2, 98224, Note_on_c, 0, 62, 0
2, 98226, Note_on_c, 0, 67, 107
2, 98226, Note_on_c, 0, 71, 107
2, 98414, Note_on_c, 0, 67, 0
2, 98415, Note_on_c, 0, 71, 0
2, 98417, Note_on_c, 0, 67, 107
2, 98606, Note_on_c, 0, 67, 0
2, 98608, Note_on_c, 0, 55, 107
2, 98608, Note_on_c, 0, 65, 107
2, 98608, Note_on_c, 0, 69, 107
2, 98797, Note_on_c, 0, 69, 0
2, 98799, Note_on_c, 0, 71, 107
2, 98988, Note_on_c, 0, 71, 0
2, 98988, Note_on_c, 0, 65, 0
2, 98988, Note_on_c, 0, 55, 0
2, 98991, Note_on_c, 0, 57, 107
2, 98991, Note_on_c, 0, 64, 107
2, 98991, Note_on_c, 0, 72, 107
2, 99180, Note_on_c, 0, 72, 0
2, 99182, Note_on_c, 0, 71, 107
2, 99321, Note_on_c, 0, 57, 0
2, 99371, Note_on_c, 0, 71, 0
2, 99371, Note_on_c, 0, 64, 0
2, 99373, Note_on_c, 0, 59, 107
2, 99373, Note_on_c, 0, 62, 107
2, 99373, Note_on_c, 0, 72, 107
2, 99562, Note_on_c, 0, 72, 0
2, 99564, Note_on_c, 0, 74, 107
2, 99703, Note_on_c, 0, 59, 0
2, 99753, Note_on_c, 0, 74, 0
2, 99753, Note_on_c, 0, 62, 0
2, 99755, Note_on_c, 0, 60, 107
2, 99755, Note_on_c, 0, 76, 107
2, 99944, Note_on_c, 0, 76, 0
2, 99947, Note_on_c, 0, 74, 107
2, 100136, Note_on_c, 0, 74, 0
2, 100138, Note_on_c, 0, 76, 107
2, 100326, Note_on_c, 0, 60, 0
2, 100327, Note_on_c, 0, 76, 0
2, 100329, Note_on_c, 0, 62, 107
2, 100329, Note_on_c, 0, 78, 107
2, 100423, Note_on_c, 0, 62, 0
2, 100425, Note_on_c, 0, 60, 107
2, 100519, Note_on_c, 0, 60, 0
2, 100520, Note_on_c, 0, 78, 0
2, 100522, Note_on_c, 0, 59, 107
2, 100522, Note_on_c, 0, 79, 107
2, 100904, Note_on_c, 0, 59, 0
2, 100906, Note_on_c, 0, 64, 107
2, 100906, Note_on_c, 0, 67, 107
2, 100906, Note_on_c, 0, 71, 107
2, 100910, Note_on_c, 0, 79, 0
2, 101194, Note_on_c, 0, 64, 0
2, 101288, Note_on_c, 0, 71, 0
2, 101290, Note_on_c, 0, 57, 107
2, 101290, Note_on_c, 0, 72, 107
2, 101670, Note_on_c, 0, 57, 0
2, 101672, Note_on_c, 0, 72, 0
2, 101672, Note_on_c, 0, 67, 0
2, 101674, Note_on_c, 0, 62, 107
2, 101674, Note_on_c, 0, 65, 107
2, 101674, Note_on_c, 0, 69, 107
2, 101770, Note_on_c, 0, 60, 107
2, 101814, Note_on_c, 0, 62, 0
2, 101865, Note_on_c, 0, 65, 0
2, 101866, Note_on_c, 0, 62, 107
2, 101866, Note_on_c, 0, 64, 107
2, 101910, Note_on_c, 0, 60, 0
2, 102055, Note_on_c, 0, 64, 0
2, 102056, Note_on_c, 0, 69, 0
2, 102057, Note_on_c, 0, 65, 107
2, 102057, Note_on_c, 0, 74, 107
2, 102245, Note_on_c, 0, 62, 0
2, 102246, Note_on_c, 0, 74, 0
2, 102249, Note_on_c, 0, 64, 107
2, 102249, Note_on_c, 0, 72, 107
2, 102438, Note_on_c, 0, 72, 0
2, 102438, Note_on_c, 0, 64, 0
2, 102440, Note_on_c, 0, 62, 107
2, 102440, Note_on_c, 0, 71, 107
2, 102629, Note_on_c, 0, 71, 0
2, 102629, Note_on_c, 0, 62, 0
2, 102631, Note_on_c, 0, 60, 107
2, 102631, Note_on_c, 0, 69, 107
2, 102820, Note_on_c, 0, 69, 0
2, 102820, Note_on_c, 0, 60, 0
2, 102822, Note_on_c, 0, 59, 107
2, 102822, Note_on_c, 0, 67, 107
2, 103011, Note_on_c, 0, 65, 0
2, 103013, Note_on_c, 0, 65, 107
2, 103202, Note_on_c, 0, 65, 0
2, 103202, Note_on_c, 0, 59, 0
2, 103205, Note_on_c, 0, 48, 107
2, 103205, Note_on_c, 0, 60, 107
2, 103205, Note_on_c, 0, 64, 107
2, 103393, Note_on_c, 0, 67, 0
2, 103396, Note_on_c, 0, 67, 107
2, 103585, Note_on_c, 0, 67, 0
2, 103585, Note_on_c, 0, 64, 0
2, 103585, Note_on_c, 0, 48, 0
2, 103587, Note_on_c, 0, 50, 107
2, 103587, Note_on_c, 0, 62, 107
2, 103587, Note_on_c, 0, 65, 107
2, 103776, Note_on_c, 0, 65, 0
2, 103778, Note_on_c, 0, 64, 107
2, 103947, Note_on_c, 0, 50, 0
2, 103967, Note_on_c, 0, 64, 0
2, 103968, Note_on_c, 0, 60, 0
2, 103969, Note_on_c, 0, 52, 107
2, 103969, Note_on_c, 0, 58, 107
2, 103969, Note_on_c, 0, 65, 107
2, 104158, Note_on_c, 0, 65, 0
2, 104160, Note_on_c, 0, 67, 107
2, 104329, Note_on_c, 0, 52, 0
2, 104349, Note_on_c, 0, 67, 0
2, 104349, Note_on_c, 0, 58, 0
2, 104350, Note_on_c, 0, 62, 0
2, 104352, Note_on_c, 0, 53, 107
2, 104352, Note_on_c, 0, 57, 107
2, 104352, Note_on_c, 0, 60, 107
2, 104352, Note_on_c, 0, 69, 107
2, 104541, Note_on_c, 0, 69, 0
2, 104543, Note_on_c, 0, 67, 107
2, 104732, Note_on_c, 0, 67, 0
2, 104732, Note_on_c, 0, 60, 0
2, 104732, Note_on_c, 0, 57, 0
2, 104734, Note_on_c, 0, 62, 107
2, 104734, Note_on_c, 0, 65, 107
2, 104734, Note_on_c, 0, 69, 107
2, 104923, Note_on_c, 0, 69, 0
2, 104923, Note_on_c, 0, 53, 0
2, 104925, Note_on_c, 0, 55, 107
2, 104925, Note_on_c, 0, 71, 107
2, 105019, Note_on_c, 0, 55, 0
2, 105022, Note_on_c, 0, 53, 107
2, 105113, Note_on_c, 0, 65, 0
2, 105114, Note_on_c, 0, 71, 0
2, 105114, Note_on_c, 0, 62, 0
2, 105115, Note_on_c, 0, 53, 0
2, 105116, Note_on_c, 0, 52, 107
2, 105116, Note_on_c, 0, 55, 107
2, 105116, Note_on_c, 0, 72, 107
2, 105309, Note_on_c, 0, 67, 107
2, 105498, Note_on_c, 0, 67, 0
2, 105498, Note_on_c, 0, 52, 0
2, 105498, Note_on_c, 0, 55, 0
2, 105500, Note_on_c, 0, 57, 107
2, 105500, Note_on_c, 0, 60, 107
2, 105500, Note_on_c, 0, 65, 107
2, 105689, Note_on_c, 0, 65, 0
2, 105691, Note_on_c, 0, 64, 107
2, 105820, Note_on_c, 0, 57, 0
2, 105879, Note_on_c, 0, 60, 0
2, 105880, Note_on_c, 0, 64, 0
2, 105883, Note_on_c, 0, 50, 107
2, 105883, Note_on_c, 0, 65, 107
2, 106075, Note_on_c, 0, 57, 107
2, 106243, Note_on_c, 0, 50, 0
2, 106264, Note_on_c, 0, 57, 0
2, 106265, Note_on_c, 0, 65, 0
2, 106267, Note_on_c, 0, 55, 107
2, 106267, Note_on_c, 0, 59, 107
2, 106267, Note_on_c, 0, 62, 107
2, 106456, Note_on_c, 0, 59, 0
2, 106458, Note_on_c, 0, 60, 107
2, 106637, Note_on_c, 0, 62, 0
2, 106643, Note_on_c, 0, 62, 107
2, 106647, Note_on_c, 0, 60, 0
2, 106647, Note_on_c, 0, 72, 0
2, 106723, Note_on_c, 0, 67, 107
2, 106803, Note_on_c, 0, 71, 107
2, 106838, Note_on_c, 0, 55, 0
2, 106840, Note_on_c, 0, 57, 107
2, 107029, Note_on_c, 0, 57, 0
2, 107031, Note_on_c, 0, 55, 107
2, 107220, Note_on_c, 0, 55, 0
2, 107222, Note_on_c, 0, 53, 107
2, 107411, Note_on_c, 0, 53, 0
2, 107414, Note_on_c, 0, 52, 107
2, 107414, Note_on_c, 0, 55, 107
2, 107443, Note_on_c, 0, 62, 0
2, 107603, Note_on_c, 0, 52, 0
2, 107605, Note_on_c, 0, 53, 107
2, 107703, Note_on_c, 0, 71, 0
2, 107794, Note_on_c, 0, 53, 0
2, 107796, Note_on_c, 0, 52, 107
2, 107796, Note_on_c, 0, 72, 107
2, 107985, Note_on_c, 0, 52, 0
2, 107987, Note_on_c, 0, 50, 107
2, 108143, Note_on_c, 0, 67, 0
2, 108176, Note_on_c, 0, 72, 0
2, 108176, Note_on_c, 0, 50, 0
2, 108178, Note_on_c, 0, 48, 107
2, 108178, Note_on_c, 0, 74, 107
2, 108367, Note_on_c, 0, 48, 0
2, 108370, Note_on_c, 0, 50, 107
2, 108558, Note_on_c, 0, 74, 0
2, 108559, Note_on_c, 0, 50, 0
2, 108559, Note_on_c, 0, 55, 0
2, 108561, Note_on_c, 0, 48, 107
2, 108561, Note_on_c, 0, 55, 107
2, 108561, Note_on_c, 0, 76, 107
2, 108750, Note_on_c, 0, 48, 0
2, 108752, Note_on_c, 0, 47, 107
2, 108941, Note_on_c, 0, 47, 0
2, 108941, Note_on_c, 0, 76, 0
2, 108941, Note_on_c, 0, 55, 0
2, 108943, Note_on_c, 0, 45, 107
2, 108943, Note_on_c, 0, 57, 107
2, 108943, Note_on_c, 0, 77, 107
2, 109325, Note_on_c, 0, 57, 0
2, 109325, Note_on_c, 0, 45, 0
2, 109327, Note_on_c, 0, 50, 107
2, 109327, Note_on_c, 0, 59, 107
2, 109516, Note_on_c, 0, 77, 0
2, 109518, Note_on_c, 0, 79, 107
2, 109612, Note_on_c, 0, 79, 0
2, 109615, Note_on_c, 0, 77, 107
2, 109709, Note_on_c, 0, 77, 0
2, 109709, Note_on_c, 0, 59, 0
2, 109709, Note_on_c, 0, 50, 0
2, 109711, Note_on_c, 0, 57, 107
2, 109711, Note_on_c, 0, 60, 107
2, 109711, Note_on_c, 0, 76, 107
2, 110093, Note_on_c, 0, 76, 0
2, 110093, Note_on_c, 0, 57, 0
2, 110095, Note_on_c, 0, 54, 107
2, 110095, Note_on_c, 0, 81, 107
2, 110284, Note_on_c, 0, 60, 0
2, 110286, Note_on_c, 0, 62, 107
2, 110380, Note_on_c, 0, 62, 0
2, 110382, Note_on_c, 0, 60, 107
2, 110395, Note_on_c, 0, 81, 0
2, 110476, Note_on_c, 0, 60, 0
2, 110477, Note_on_c, 0, 54, 0
2, 110479, Note_on_c, 0, 55, 107
2, 110479, Note_on_c, 0, 59, 107
2, 110479, Note_on_c, 0, 74, 107
2, 110668, Note_on_c, 0, 55, 0
2, 110670, Note_on_c, 0, 57, 107
2, 110859, Note_on_c, 0, 57, 0
2, 110859, Note_on_c, 0, 59, 0
2, 110861, Note_on_c, 0, 74, 0
2, 110861, Note_on_c, 0, 58, 107
2, 110861, Note_on_c, 0, 64, 107
2, 110861, Note_on_c, 0, 79, 107
2, 110955, Note_on_c, 0, 79, 0
2, 110958, Note_on_c, 0, 77, 107
2, 111052, Note_on_c, 0, 77, 0
2, 111052, Note_on_c, 0, 58, 0
2, 111054, Note_on_c, 0, 55, 107
2, 111054, Note_on_c, 0, 79, 107
2, 111243, Note_on_c, 0, 55, 0
2, 111243, Note_on_c, 0, 64, 0
2, 111245, Note_on_c, 0, 49, 107
2, 111245, Note_on_c, 0, 57, 107
2, 111434, Note_on_c, 0, 79, 0
2, 111436, Note_on_c, 0, 81, 107
2, 111625, Note_on_c, 0, 81, 0
2, 111625, Note_on_c, 0, 57, 0
2, 111625, Note_on_c, 0, 49, 0
2, 111628, Note_on_c, 0, 50, 107
2, 111628, Note_on_c, 0, 62, 107
2, 111628, Note_on_c, 0, 79, 107
2, 111817, Note_on_c, 0, 79, 0
2, 111819, Note_on_c, 0, 77, 107
2, 112008, Note_on_c, 0, 77, 0
2, 112008, Note_on_c, 0, 50, 0
2, 112010, Note_on_c, 0, 57, 107
2, 112010, Note_on_c, 0, 76, 107
2, 112199, Note_on_c, 0, 62, 0
2, 112201, Note_on_c, 0, 64, 107
2, 112360, Note_on_c, 0, 76, 0
2, 112390, Note_on_c, 0, 64, 0
2, 112392, Note_on_c, 0, 62, 107
2, 112392, Note_on_c, 0, 81, 107
2, 112486, Note_on_c, 0, 81, 0
2, 112489, Note_on_c, 0, 79, 107
2, 112583, Note_on_c, 0, 79, 0
2, 112583, Note_on_c, 0, 62, 0
2, 112585, Note_on_c, 0, 60, 107
2, 112585, Note_on_c, 0, 81, 107
2, 112774, Note_on_c, 0, 60, 0
2, 112774, Note_on_c, 0, 57, 0
2, 112776, Note_on_c, 0, 52, 107
2, 112776, Note_on_c, 0, 59, 107
2, 112965, Note_on_c, 0, 81, 0
2, 112967, Note_on_c, 0, 83, 107
2, 113156, Note_on_c, 0, 83, 0
2, 113156, Note_on_c, 0, 59, 0
2, 113159, Note_on_c, 0, 64, 107
2, 113159, Note_on_c, 0, 81, 107
2, 113348, Note_on_c, 0, 81, 0
2, 113350, Note_on_c, 0, 79, 107
2, 113539, Note_on_c, 0, 79, 0
2, 113539, Note_on_c, 0, 52, 0
2, 113541, Note_on_c, 0, 57, 107
2, 113541, Note_on_c, 0, 77, 107
2, 113730, Note_on_c, 0, 57, 0
2, 113732, Note_on_c, 0, 59, 107
2, 113921, Note_on_c, 0, 59, 0
2, 113923, Note_on_c, 0, 60, 107
2, 113923, Note_on_c, 0, 67, 107
2, 114112, Note_on_c, 0, 60, 0
2, 114114, Note_on_c, 0, 62, 107
2, 114303, Note_on_c, 0, 62, 0
2, 114303, Note_on_c, 0, 67, 0
2, 114304, Note_on_c, 0, 64, 0
2, 114306, Note_on_c, 0, 60, 107
2, 114306, Note_on_c, 0, 62, 107
2, 114306, Note_on_c, 0, 69, 107
2, 114495, Note_on_c, 0, 60, 0
2, 114497, Note_on_c, 0, 59, 107
2, 114686, Note_on_c, 0, 59, 0
2, 114686, Note_on_c, 0, 69, 0
2, 114688, Note_on_c, 0, 57, 107
2, 114688, Note_on_c, 0, 71, 107
2, 114877, Note_on_c, 0, 57, 0
2, 114879, Note_on_c, 0, 55, 107
2, 115068, Note_on_c, 0, 55, 0
2, 115068, Note_on_c, 0, 71, 0
2, 115068, Note_on_c, 0, 77, 0
2, 115069, Note_on_c, 0, 62, 0
2, 115070, Note_on_c, 0, 60, 107
2, 115070, Note_on_c, 0, 72, 107
2, 115070, Note_on_c, 0, 76, 107
2, 115259, Note_on_c, 0, 60, 0
2, 115262, Note_on_c, 0, 59, 107
2, 115451, Note_on_c, 0, 59, 0
2, 115453, Note_on_c, 0, 60, 107
2, 115641, Note_on_c, 0, 76, 0
2, 115641, Note_on_c, 0, 72, 0
2, 115642, Note_on_c, 0, 60, 0
2, 115644, Note_on_c, 0, 57, 107
2, 115644, Note_on_c, 0, 74, 107
2, 115644, Note_on_c, 0, 78, 107
2, 115738, Note_on_c, 0, 74, 0
2, 115740, Note_on_c, 0, 72, 107
2, 115834, Note_on_c, 0, 72, 0
2, 115835, Note_on_c, 0, 78, 0
2, 115835, Note_on_c, 0, 57, 0
2, 115837, Note_on_c, 0, 64, 107
2, 115837, Note_on_c, 0, 71, 107
2, 115837, Note_on_c, 0, 79, 107
2, 116026, Note_on_c, 0, 64, 0
2, 116028, Note_on_c, 0, 62, 107
2, 116217, Note_on_c, 0, 62, 0
2, 116217, Note_on_c, 0, 71, 0
2, 116219, Note_on_c, 0, 60, 107
2, 116219, Note_on_c, 0, 76, 107
2, 116408, Note_on_c, 0, 60, 0
2, 116410, Note_on_c, 0, 59, 107
2, 116539, Note_on_c, 0, 76, 0
2, 116599, Note_on_c, 0, 59, 0
2, 116601, Note_on_c, 0, 60, 107
2, 116601, Note_on_c, 0, 69, 107
2, 116790, Note_on_c, 0, 60, 0
2, 116793, Note_on_c, 0, 57, 107
2, 116981, Note_on_c, 0, 69, 0
2, 116982, Note_on_c, 0, 57, 0
2, 116984, Note_on_c, 0, 59, 107
2, 116984, Note_on_c, 0, 71, 107
2, 117078, Note_on_c, 0, 71, 0
2, 117080, Note_on_c, 0, 72, 107
2, 117174, Note_on_c, 0, 72, 0
2, 117175, Note_on_c, 0, 59, 0
2, 117176, Note_on_c, 0, 60, 107
2, 117176, Note_on_c, 0, 74, 107
2, 117365, Note_on_c, 0, 60, 0
2, 117366, Note_on_c, 0, 79, 0
2, 117368, Note_on_c, 0, 62, 107
2, 117368, Note_on_c, 0, 78, 107
2, 117556, Note_on_c, 0, 74, 0
2, 117557, Note_on_c, 0, 62, 0
2, 117559, Note_on_c, 0, 60, 107
2, 117559, Note_on_c, 0, 76, 107
2, 117748, Note_on_c, 0, 76, 0
2, 117748, Note_on_c, 0, 60, 0
2, 117750, Note_on_c, 0, 59, 107
2, 117750, Note_on_c, 0, 74, 107
2, 117939, Note_on_c, 0, 74, 0
2, 117939, Note_on_c, 0, 59, 0
2, 117941, Note_on_c, 0, 57, 107
2, 117941, Note_on_c, 0, 72, 107
2, 118130, Note_on_c, 0, 72, 0
2, 118130, Note_on_c, 0, 57, 0
2, 118131, Note_on_c, 0, 78, 0
2, 118132, Note_on_c, 0, 55, 107
2, 118132, Note_on_c, 0, 71, 107
2, 118132, Note_on_c, 0, 79, 107
2, 118321, Note_on_c, 0, 79, 0
2, 118324, Note_on_c, 0, 77, 107
2, 118513, Note_on_c, 0, 77, 0
2, 118515, Note_on_c, 0, 43, 107
2, 118515, Note_on_c, 0, 76, 107
2, 118704, Note_on_c, 0, 76, 0
2, 118705, Note_on_c, 0, 71, 0
2, 118706, Note_on_c, 0, 74, 107
2, 118890, Note_on_c, 0, 55, 0
2, 118897, Note_on_c, 0, 74, 0
2, 118897, Note_on_c, 0, 43, 0
2, 118899, Note_on_c, 0, 45, 107
2, 118899, Note_on_c, 0, 72, 107
2, 119088, Note_on_c, 0, 72, 0
2, 119090, Note_on_c, 0, 74, 107
2, 119279, Note_on_c, 0, 74, 0
2, 119279, Note_on_c, 0, 45, 0
2, 119281, Note_on_c, 0, 47, 107
2, 119281, Note_on_c, 0, 62, 107
2, 119281, Note_on_c, 0, 72, 107
2, 119470, Note_on_c, 0, 72, 0
2, 119472, Note_on_c, 0, 71, 107
2, 119661, Note_on_c, 0, 71, 0
2, 119661, Note_on_c, 0, 62, 0
2, 119661, Note_on_c, 0, 47, 0
2, 119663, Note_on_c, 0, 48, 107
2, 119663, Note_on_c, 0, 64, 107
2, 119663, Note_on_c, 0, 69, 107
2, 119852, Note_on_c, 0, 69, 0
2, 119855, Note_on_c, 0, 72, 107
2, 120043, Note_on_c, 0, 64, 0
2, 120044, Note_on_c, 0, 72, 0
2, 120046, Note_on_c, 0, 66, 107
2, 120046, Note_on_c, 0, 71, 107
2, 120234, Note_on_c, 0, 48, 0
2, 120235, Note_on_c, 0, 71, 0
2, 120237, Note_on_c, 0, 50, 107
2, 120237, Note_on_c, 0, 69, 107
2, 120331, Note_on_c, 0, 50, 0
2, 120333, Note_on_c, 0, 48, 107
2, 120427, Note_on_c, 0, 48, 0
2, 120428, Note_on_c, 0, 69, 0
2, 120428, Note_on_c, 0, 66, 0
2, 120430, Note_on_c, 0, 47, 107
2, 120430, Note_on_c, 0, 67, 107
2, 120812, Note_on_c, 0, 47, 0
2, 120814, Note_on_c, 0, 52, 107
2, 121003, Note_on_c, 0, 67, 0
2, 121005, Note_on_c, 0, 69, 107
2, 121099, Note_on_c, 0, 69, 0
2, 121101, Note_on_c, 0, 67, 107
2, 121174, Note_on_c, 0, 52, 0
2, 121195, Note_on_c, 0, 67, 0
2, 121198, Note_on_c, 0, 45, 107
2, 121198, Note_on_c, 0, 66, 107
2, 121390, Note_on_c, 0, 72, 107
2, 121578, Note_on_c, 0, 45, 0
2, 121579, Note_on_c, 0, 72, 0
2, 121580, Note_on_c, 0, 66, 0
2, 121582, Note_on_c, 0, 50, 107
2, 121582, Note_on_c, 0, 71, 107
2, 121676, Note_on_c, 0, 50, 0
2, 121678, Note_on_c, 0, 48, 107
2, 121772, Note_on_c, 0, 48, 0
2, 121773, Note_on_c, 0, 71, 0
2, 121774, Note_on_c, 0, 50, 107
2, 121774, Note_on_c, 0, 69, 107
2, 121963, Note_on_c, 0, 69, 0
2, 121965, Note_on_c, 0, 64, 107
2, 121965, Note_on_c, 0, 68, 107
2, 122154, Note_on_c, 0, 50, 0
2, 122157, Note_on_c, 0, 52, 107
2, 122345, Note_on_c, 0, 68, 0
2, 122345, Note_on_c, 0, 64, 0
2, 122346, Note_on_c, 0, 52, 0
2, 122348, Note_on_c, 0, 50, 107
2, 122348, Note_on_c, 0, 69, 107
2, 122348, Note_on_c, 0, 76, 107
2, 122444, Note_on_c, 0, 68, 107
2, 122488, Note_on_c, 0, 69, 0
2, 122539, Note_on_c, 0, 50, 0
2, 122541, Note_on_c, 0, 48, 107
2, 122541, Note_on_c, 0, 69, 107
2, 122584, Note_on_c, 0, 68, 0
2, 122730, Note_on_c, 0, 76, 0
2, 122730, Note_on_c, 0, 48, 0
2, 122732, Note_on_c, 0, 47, 107
2, 122732, Note_on_c, 0, 74, 107
2, 122926, Note_on_c, 0, 69, 0
2, 122931, Note_on_c, 0, 71, 107
2, 123126, Note_on_c, 0, 71, 0
2, 123127, Note_on_c, 0, 74, 0
2, 123127, Note_on_c, 0, 47, 0
2, 123128, Note_on_c, 0, 52, 107
2, 123128, Note_on_c, 0, 69, 107
2, 123128, Note_on_c, 0, 72, 107
2, 123323, Note_on_c, 0, 72, 0
2, 123323, Note_on_c, 0, 69, 0
2, 123326, Note_on_c, 0, 68, 107
2, 123326, Note_on_c, 0, 71, 107
2, 123521, Note_on_c, 0, 71, 0
2, 123521, Note_on_c, 0, 68, 0
2, 123523, Note_on_c, 0, 54, 107
2, 123523, Note_on_c, 0, 66, 107
2, 123523, Note_on_c, 0, 69, 107
2, 123718, Note_on_c, 0, 69, 0
2, 123721, Note_on_c, 0, 68, 107
2, 123911, Note_on_c, 0, 52, 0
2, 123918, Note_on_c, 0, 54, 0
2, 123918, Note_on_c, 0, 66, 0
2, 123918, Note_on_c, 0, 68, 0
2, 123920, Note_on_c, 0, 50, 107
2, 123920, Note_on_c, 0, 56, 107
2, 123920, Note_on_c, 0, 65, 107
2, 123920, Note_on_c, 0, 69, 107
2, 124115, Note_on_c, 0, 69, 0
2, 124117, Note_on_c, 0, 71, 107
2, 124312, Note_on_c, 0, 71, 0
2, 124313, Note_on_c, 0, 65, 0
2, 124313, Note_on_c, 0, 56, 0
2, 124313, Note_on_c, 0, 50, 0
2, 124315, Note_on_c, 0, 48, 107
2, 124315, Note_on_c, 0, 57, 107
2, 124315, Note_on_c, 0, 64, 107
2, 124315, Note_on_c, 0, 72, 107
2, 124510, Note_on_c, 0, 72, 0
2, 124512, Note_on_c, 0, 66, 107
2, 124707, Note_on_c, 0, 66, 0
2, 124708, Note_on_c, 0, 64, 0
2, 124708, Note_on_c, 0, 48, 0
2, 124710, Note_on_c, 0, 53, 107
2, 124710, Note_on_c, 0, 62, 107
2, 124710, Note_on_c, 0, 68, 107
2, 124905, Note_on_c, 0, 68, 0
2, 124905, Note_on_c, 0, 57, 0
2, 124907, Note_on_c, 0, 59, 107
2, 124907, Note_on_c, 0, 69, 107
2, 125004, Note_on_c, 0, 59, 0
2, 125007, Note_on_c, 0, 57, 107
2, 125104, Note_on_c, 0, 57, 0
2, 125104, Note_on_c, 0, 69, 0
2, 125106, Note_on_c, 0, 56, 107
2, 125106, Note_on_c, 0, 71, 107
2, 125302, Note_on_c, 0, 62, 0
2, 125304, Note_on_c, 0, 64, 107
2, 125499, Note_on_c, 0, 64, 0
2, 125499, Note_on_c, 0, 71, 0
2, 125499, Note_on_c, 0, 56, 0
2, 125500, Note_on_c, 0, 53, 0
2, 125501, Note_on_c, 0, 52, 107
2, 125501, Note_on_c, 0, 60, 107
2, 125501, Note_on_c, 0, 66, 107
2, 125501, Note_on_c, 0, 69, 107
2, 125696, Note_on_c, 0, 69, 0
2, 125696, Note_on_c, 0, 66, 0
2, 125699, Note_on_c, 0, 68, 107
2, 125699, Note_on_c, 0, 71, 107
2, 125894, Note_on_c, 0, 71, 0
2, 125894, Note_on_c, 0, 68, 0
2, 125894, Note_on_c, 0, 60, 0
2, 125896, Note_on_c, 0, 54, 107
2, 125896, Note_on_c, 0, 69, 107
2, 125896, Note_on_c, 0, 72, 107
2, 126091, Note_on_c, 0, 69, 0
2, 126094, Note_on_c, 0, 68, 107
2, 126289, Note_on_c, 0, 68, 0
2, 126289, Note_on_c, 0, 72, 0
2, 126289, Note_on_c, 0, 54, 0
2, 126289, Note_on_c, 0, 52, 0
2, 126291, Note_on_c, 0, 50, 107
2, 126291, Note_on_c, 0, 59, 107
2, 126291, Note_on_c, 0, 69, 107
2, 126291, Note_on_c, 0, 77, 107
2, 126388, Note_on_c, 0, 59, 0
2, 126391, Note_on_c, 0, 57, 107
2, 126488, Note_on_c, 0, 57, 0
2, 126488, Note_on_c, 0, 69, 0
2, 126491, Note_on_c, 0, 59, 107
2, 126491, Note_on_c, 0, 71, 107
2, 126686, Note_on_c, 0, 71, 0
2, 126686, Note_on_c, 0, 77, 0
2, 126688, Note_on_c, 0, 68, 107
2, 126688, Note_on_c, 0, 76, 107
2, 126883, Note_on_c, 0, 68, 0
2, 126884, Note_on_c, 0, 59, 0
2, 126886, Note_on_c, 0, 60, 107
2, 126886, Note_on_c, 0, 66, 107
2, 127081, Note_on_c, 0, 66, 0
2, 127081, Note_on_c, 0, 76, 0
2, 127081, Note_on_c, 0, 50, 0
2, 127081, Note_on_c, 0, 60, 0
2, 127083, Note_on_c, 0, 52, 107
2, 127083, Note_on_c, 0, 59, 107
2, 127083, Note_on_c, 0, 68, 107
2, 127083, Note_on_c, 0, 74, 107
2, 127278, Note_on_c, 0, 68, 0
2, 127278, Note_on_c, 0, 59, 0
2, 127281, Note_on_c, 0, 57, 107
2, 127281, Note_on_c, 0, 69, 107
2, 127476, Note_on_c, 0, 69, 0
2, 127476, Note_on_c, 0, 57, 0
2, 127476, Note_on_c, 0, 52, 0
2, 127478, Note_on_c, 0, 53, 107
2, 127478, Note_on_c, 0, 56, 107
2, 127478, Note_on_c, 0, 71, 107
2, 127578, Note_on_c, 0, 72, 107
2, 127675, Note_on_c, 0, 72, 0
2, 127677, Note_on_c, 0, 74, 0
2, 127677, Note_on_c, 0, 74, 107
2, 127863, Note_on_c, 0, 74, 0
2, 127871, Note_on_c, 0, 71, 0
2, 127873, Note_on_c, 0, 56, 0
2, 127873, Note_on_c, 0, 53, 0
2, 127875, Note_on_c, 0, 52, 107
2, 127875, Note_on_c, 0, 57, 107
2, 127875, Note_on_c, 0, 72, 107
2, 128070, Note_on_c, 0, 72, 0
2, 128070, Note_on_c, 0, 52, 0
2, 128072, Note_on_c, 0, 50, 107
2, 128072, Note_on_c, 0, 71, 107
2, 128267, Note_on_c, 0, 71, 0
2, 128267, Note_on_c, 0, 50, 0
2, 128270, Note_on_c, 0, 52, 107
2, 128270, Note_on_c, 0, 72, 107
2, 128456, Note_on_c, 0, 72, 0
2, 128469, Note_on_c, 0, 71, 107
2, 128535, Note_on_c, 0, 72, 107
2, 128566, Note_on_c, 0, 71, 0
2, 128601, Note_on_c, 0, 71, 107
2, 128632, Note_on_c, 0, 72, 0
2, 128666, Note_on_c, 0, 57, 0
2, 128668, Note_on_c, 0, 56, 107
2, 128668, Note_on_c, 0, 72, 107
2, 128698, Note_on_c, 0, 71, 0
2, 128734, Note_on_c, 0, 71, 107
2, 128765, Note_on_c, 0, 72, 0
2, 128867, Note_on_c, 0, 69, 107
2, 128887, Note_on_c, 0, 71, 0
2, 129062, Note_on_c, 0, 69, 0
2, 129063, Note_on_c, 0, 56, 0
2, 129063, Note_on_c, 0, 52, 0
2, 129064, Note_on_c, 0, 45, 107
2, 129064, Note_on_c, 0, 57, 107
2, 129064, Note_on_c, 0, 69, 107
2, 129463, Note_on_c, 0, 60, 107
2, 129850, Note_on_c, 0, 69, 0
2, 129850, Note_on_c, 0, 57, 0
2, 129858, Note_on_c, 0, 60, 0
2, 129859, Note_on_c, 0, 62, 107
2, 129964, Note_on_c, 0, 45, 0
2, 130254, Note_on_c, 0, 62, 0
2, 130256, Note_on_c, 0, 55, 107
2, 130256, Note_on_c, 0, 64, 107
2, 130651, Note_on_c, 0, 64, 0
2, 130651, Note_on_c, 0, 55, 0
2, 130652, Note_on_c, 0, 57, 107
2, 130652, Note_on_c, 0, 65, 107
2, 131047, Note_on_c, 0, 57, 0
2, 131049, Note_on_c, 0, 59, 107
2, 131244, Note_on_c, 0, 65, 0
2, 131246, Note_on_c, 0, 67, 107
2, 131343, Note_on_c, 0, 67, 0
2, 131346, Note_on_c, 0, 65, 107
2, 131443, Note_on_c, 0, 65, 0
2, 131444, Note_on_c, 0, 59, 0
2, 131445, Note_on_c, 0, 60, 107
2, 131445, Note_on_c, 0, 64, 107
2, 131840, Note_on_c, 0, 64, 0
2, 131842, Note_on_c, 0, 69, 107
2, 132037, Note_on_c, 0, 60, 0
2, 132040, Note_on_c, 0, 62, 107
2, 132137, Note_on_c, 0, 62, 0
2, 132139, Note_on_c, 0, 60, 107
2, 132202, Note_on_c, 0, 69, 0
2, 132236, Note_on_c, 0, 60, 0
2, 132239, Note_on_c, 0, 59, 107
2, 132239, Note_on_c, 0, 62, 107
2, 132625, Note_on_c, 0, 62, 0
2, 132634, Note_on_c, 0, 59, 0
2, 132635, Note_on_c, 0, 43, 107
2, 132635, Note_on_c, 0, 64, 107
2, 132635, Note_on_c, 0, 67, 107
2, 133030, Note_on_c, 0, 64, 0
2, 133030, Note_on_c, 0, 43, 0
2, 133032, Note_on_c, 0, 45, 107
2, 133032, Note_on_c, 0, 57, 107
2, 133227, Note_on_c, 0, 67, 0
2, 133229, Note_on_c, 0, 69, 107
2, 133424, Note_on_c, 0, 69, 0
2, 133425, Note_on_c, 0, 57, 0
2, 133425, Note_on_c, 0, 45, 0
2, 133427, Note_on_c, 0, 47, 107
2, 133427, Note_on_c, 0, 62, 107
2, 133427, Note_on_c, 0, 67, 107
2, 133622, Note_on_c, 0, 67, 0
2, 133624, Note_on_c, 0, 65, 107
2, 133819, Note_on_c, 0, 65, 0
2, 133820, Note_on_c, 0, 47, 0
2, 133822, Note_on_c, 0, 48, 107
2, 133822, Note_on_c, 0, 64, 107
2, 134217, Note_on_c, 0, 64, 0
2, 134217, Note_on_c, 0, 62, 0
2, 134218, Note_on_c, 0, 55, 107
2, 134218, Note_on_c, 0, 64, 107
2, 134218, Note_on_c, 0, 67, 107
2, 134414, Note_on_c, 0, 48, 0
2, 134416, Note_on_c, 0, 50, 107
2, 134513, Note_on_c, 0, 50, 0
2, 134515, Note_on_c, 0, 48, 107
2, 134612, Note_on_c, 0, 48, 0
2, 134613, Note_on_c, 0, 55, 0
2, 134613, Note_on_c, 0, 64, 0
2, 134613, Note_on_c, 0, 67, 0
2, 134615, Note_on_c, 0, 47, 107
2, 134615, Note_on_c, 0, 62, 107
2, 134615, Note_on_c, 0, 66, 107
2, 134615, Note_on_c, 0, 69, 107
2, 135010, Note_on_c, 0, 69, 0
2, 135010, Note_on_c, 0, 66, 0
2, 135010, Note_on_c, 0, 47, 0
2, 135012, Note_on_c, 0, 52, 107
2, 135012, Note_on_c, 0, 67, 107
2, 135012, Note_on_c, 0, 71, 107
2, 135406, Note_on_c, 0, 62, 0
2, 135407, Note_on_c, 0, 52, 0
2, 135407, Note_on_c, 0, 71, 0
2, 135408, Note_on_c, 0, 45, 107
2, 135408, Note_on_c, 0, 60, 107
2, 135408, Note_on_c, 0, 72, 107
2, 135778, Note_on_c, 0, 45, 0
2, 135803, Note_on_c, 0, 67, 0
2, 135803, Note_on_c, 0, 60, 0
2, 135805, Note_on_c, 0, 50, 107
2, 135805, Note_on_c, 0, 57, 107
2, 135805, Note_on_c, 0, 66, 107
2, 136000, Note_on_c, 0, 72, 0
2, 136002, Note_on_c, 0, 74, 107
2, 136099, Note_on_c, 0, 74, 0
2, 136102, Note_on_c, 0, 72, 107
2, 136199, Note_on_c, 0, 72, 0
2, 136200, Note_on_c, 0, 66, 0
2, 136200, Note_on_c, 0, 57, 0
2, 136201, Note_on_c, 0, 64, 107
2, 136201, Note_on_c, 0, 68, 107
2, 136201, Note_on_c, 0, 71, 107
2, 136397, Note_on_c, 0, 50, 0
2, 136399, Note_on_c, 0, 52, 107
2, 136594, Note_on_c, 0, 52, 0
2, 136594, Note_on_c, 0, 71, 0
2, 136594, Note_on_c, 0, 68, 0
2, 136594, Note_on_c, 0, 64, 0
2, 136596, Note_on_c, 0, 50, 107
2, 136596, Note_on_c, 0, 64, 107
2, 136596, Note_on_c, 0, 69, 107
2, 136596, Note_on_c, 0, 72, 107
2, 136791, Note_on_c, 0, 50, 0
2, 136794, Note_on_c, 0, 48, 107
2, 136989, Note_on_c, 0, 48, 0
2, 136989, Note_on_c, 0, 72, 0
2, 136989, Note_on_c, 0, 64, 0
2, 136991, Note_on_c, 0, 47, 107
2, 136991, Note_on_c, 0, 62, 107
2, 136991, Note_on_c, 0, 74, 107
2, 137384, Note_on_c, 0, 62, 0
2, 137386, Note_on_c, 0, 69, 0
2, 137386, Note_on_c, 0, 47, 0
2, 137386, Note_on_c, 0, 74, 0
2, 137388, Note_on_c, 0, 46, 107
2, 137388, Note_on_c, 0, 67, 107
2, 137388, Note_on_c, 0, 76, 107
2, 137783, Note_on_c, 0, 76, 0
2, 137783, Note_on_c, 0, 67, 0
2, 137783, Note_on_c, 0, 46, 0
2, 137784, Note_on_c, 0, 45, 107
2, 137784, Note_on_c, 0, 69, 107
2, 137784, Note_on_c, 0, 77, 107
2, 138179, Note_on_c, 0, 69, 0
2, 138179, Note_on_c, 0, 45, 0
2, 138181, Note_on_c, 0, 43, 107
2, 138181, Note_on_c, 0, 71, 107
2, 138376, Note_on_c, 0, 77, 0
2, 138378, Note_on_c, 0, 79, 107
2, 138475, Note_on_c, 0, 79, 0
2, 138478, Note_on_c, 0, 77, 107
2, 138575, Note_on_c, 0, 77, 0
2, 138576, Note_on_c, 0, 71, 0
2, 138576, Note_on_c, 0, 43, 0
2, 138578, Note_on_c, 0, 45, 107
2, 138578, Note_on_c, 0, 72, 107
2, 138578, Note_on_c, 0, 76, 107
2, 138973, Note_on_c, 0, 76, 0
2, 138973, Note_on_c, 0, 45, 0
2, 138974, Note_on_c, 0, 54, 107
2, 138974, Note_on_c, 0, 57, 107
2, 138974, Note_on_c, 0, 81, 107
2, 139170, Note_on_c, 0, 72, 0
2, 139172, Note_on_c, 0, 74, 107
2, 139269, Note_on_c, 0, 74, 0
2, 139271, Note_on_c, 0, 72, 107
2, 139354, Note_on_c, 0, 81, 0
2, 139368, Note_on_c, 0, 72, 0
2, 139369, Note_on_c, 0, 57, 0
2, 139369, Note_on_c, 0, 54, 0
2, 139371, Note_on_c, 0, 55, 107
2, 139371, Note_on_c, 0, 59, 107
2, 139371, Note_on_c, 0, 71, 107
2, 139371, Note_on_c, 0, 74, 107
2, 139766, Note_on_c, 0, 74, 0
2, 139766, Note_on_c, 0, 55, 0
2, 139766, Note_on_c, 0, 59, 0
2, 139766, Note_on_c, 0, 71, 0
2, 139767, Note_on_c, 0, 52, 107
2, 139767, Note_on_c, 0, 61, 107
2, 139767, Note_on_c, 0, 76, 107
2, 139867, Note_on_c, 0, 77, 107
2, 139966, Note_on_c, 0, 79, 107
2, 140012, Note_on_c, 0, 77, 0
2, 140160, Note_on_c, 0, 76, 0
2, 140162, Note_on_c, 0, 52, 0
2, 140162, Note_on_c, 0, 61, 0
2, 140164, Note_on_c, 0, 50, 107
2, 140164, Note_on_c, 0, 62, 107
2, 140164, Note_on_c, 0, 69, 107
2, 140357, Note_on_c, 0, 79, 0
2, 140363, Note_on_c, 0, 81, 107
2, 140558, Note_on_c, 0, 81, 0
2, 140559, Note_on_c, 0, 69, 0
2, 140560, Note_on_c, 0, 74, 107
2, 140560, Note_on_c, 0, 79, 107
2, 140755, Note_on_c, 0, 79, 0
2, 140756, Note_on_c, 0, 62, 0
2, 140758, Note_on_c, 0, 64, 107
2, 140758, Note_on_c, 0, 77, 107
2, 140855, Note_on_c, 0, 64, 0
2, 140858, Note_on_c, 0, 62, 107
2, 140955, Note_on_c, 0, 62, 0
2, 140955, Note_on_c, 0, 77, 0
2, 140955, Note_on_c, 0, 50, 0
2, 140957, Note_on_c, 0, 52, 107
2, 140957, Note_on_c, 0, 60, 107
2, 140957, Note_on_c, 0, 76, 107
2, 141151, Note_on_c, 0, 76, 0
2, 141152, Note_on_c, 0, 74, 0
2, 141155, Note_on_c, 0, 76, 107
2, 141350, Note_on_c, 0, 76, 0
2, 141350, Note_on_c, 0, 60, 0
2, 141350, Note_on_c, 0, 52, 0
2, 141352, Note_on_c, 0, 53, 107
2, 141352, Note_on_c, 0, 65, 107
2, 141352, Note_on_c, 0, 74, 107
2, 141352, Note_on_c, 0, 81, 107
2, 141547, Note_on_c, 0, 74, 0
2, 141550, Note_on_c, 0, 72, 107
2, 141732, Note_on_c, 0, 81, 0
2, 141745, Note_on_c, 0, 53, 0
2, 141745, Note_on_c, 0, 65, 0
2, 141745, Note_on_c, 0, 72, 0
2, 141747, Note_on_c, 0, 55, 107
2, 141747, Note_on_c, 0, 59, 107
2, 141747, Note_on_c, 0, 71, 107
2, 141747, Note_on_c, 0, 74, 107
2, 142142, Note_on_c, 0, 74, 0
2, 142142, Note_on_c, 0, 71, 0
2, 142142, Note_on_c, 0, 59, 0
2, 142144, Note_on_c, 0, 64, 107
2, 142144, Note_on_c, 0, 79, 107
2, 142144, Note_on_c, 0, 82, 107
2, 142339, Note_on_c, 0, 55, 0
2, 142341, Note_on_c, 0, 57, 107
2, 142438, Note_on_c, 0, 57, 0
2, 142441, Note_on_c, 0, 55, 107
2, 142538, Note_on_c, 0, 55, 0
2, 142539, Note_on_c, 0, 82, 0
2, 142539, Note_on_c, 0, 79, 0
2, 142540, Note_on_c, 0, 53, 107
2, 142540, Note_on_c, 0, 73, 107
2, 142540, Note_on_c, 0, 81, 107
2, 142736, Note_on_c, 0, 64, 0
2, 142738, Note_on_c, 0, 65, 107
2, 142933, Note_on_c, 0, 65, 0
2, 142933, Note_on_c, 0, 81, 0
2, 142933, Note_on_c, 0, 73, 0
2, 142933, Note_on_c, 0, 53, 0
2, 142935, Note_on_c, 0, 58, 107
2, 142935, Note_on_c, 0, 64, 107
2, 142935, Note_on_c, 0, 74, 107
2, 142935, Note_on_c, 0, 79, 107
2, 143130, Note_on_c, 0, 79, 0
2, 143130, Note_on_c, 0, 64, 0
2, 143133, Note_on_c, 0, 62, 107
2, 143133, Note_on_c, 0, 77, 107
2, 143328, Note_on_c, 0, 77, 0
2, 143328, Note_on_c, 0, 58, 0
2, 143328, Note_on_c, 0, 74, 0
2, 143328, Note_on_c, 0, 62, 0
2, 143330, Note_on_c, 0, 52, 107
2, 143330, Note_on_c, 0, 61, 107
2, 143330, Note_on_c, 0, 76, 107
2, 143330, Note_on_c, 0, 79, 107
2, 143525, Note_on_c, 0, 79, 0
2, 143528, Note_on_c, 0, 77, 107
2, 143721, Note_on_c, 0, 61, 0
2, 143723, Note_on_c, 0, 52, 0
2, 143723, Note_on_c, 0, 76, 0
2, 143723, Note_on_c, 0, 77, 0
2, 143725, Note_on_c, 0, 57, 107
2, 143725, Note_on_c, 0, 73, 107
2, 143725, Note_on_c, 0, 79, 107
2, 143920, Note_on_c, 0, 79, 0
2, 143923, Note_on_c, 0, 76, 107
2, 144118, Note_on_c, 0, 76, 0
2, 144118, Note_on_c, 0, 73, 0
2, 144120, Note_on_c, 0, 74, 107
2, 144120, Note_on_c, 0, 77, 107
2, 144315, Note_on_c, 0, 77, 0
2, 144315, Note_on_c, 0, 57, 0
2, 144318, Note_on_c, 0, 58, 107
2, 144318, Note_on_c, 0, 79, 107
2, 144513, Note_on_c, 0, 79, 0
2, 144513, Note_on_c, 0, 58, 0
2, 144513, Note_on_c, 0, 74, 0
2, 144515, Note_on_c, 0, 57, 107
2, 144515, Note_on_c, 0, 76, 107
2, 144515, Note_on_c, 0, 81, 107
2, 144612, Note_on_c, 0, 81, 0
2, 144615, Note_on_c, 0, 79, 107
2, 144712, Note_on_c, 0, 79, 0
2, 144712, Note_on_c, 0, 57, 0
2, 144714, Note_on_c, 0, 55, 107
2, 144714, Note_on_c, 0, 77, 107
2, 144811, Note_on_c, 0, 77, 0
2, 144814, Note_on_c, 0, 79, 107
2, 144911, Note_on_c, 0, 79, 0
2, 144911, Note_on_c, 0, 55, 0
2, 144911, Note_on_c, 0, 76, 0
2, 144913, Note_on_c, 0, 53, 107
2, 144913, Note_on_c, 0, 69, 107
2, 144913, Note_on_c, 0, 81, 107
2, 145108, Note_on_c, 0, 81, 0
2, 145108, Note_on_c, 0, 53, 0
2, 145111, Note_on_c, 0, 52, 107
2, 145111, Note_on_c, 0, 73, 107
2, 145304, Note_on_c, 0, 69, 0
2, 145306, Note_on_c, 0, 73, 0
2, 145306, Note_on_c, 0, 52, 0
2, 145308, Note_on_c, 0, 53, 107
2, 145308, Note_on_c, 0, 57, 107
2, 145308, Note_on_c, 0, 74, 107
2, 145503, Note_on_c, 0, 74, 0
2, 145503, Note_on_c, 0, 53, 0
2, 145506, Note_on_c, 0, 50, 107
2, 145506, Note_on_c, 0, 79, 107
2, 145695, Note_on_c, 0, 79, 0
2, 145701, Note_on_c, 0, 50, 0
2, 145701, Note_on_c, 0, 57, 0
2, 145703, Note_on_c, 0, 55, 107
2, 145703, Note_on_c, 0, 59, 107
2, 145703, Note_on_c, 0, 76, 107
2, 145803, Note_on_c, 0, 74, 107
2, 145806, Note_on_c, 0, 76, 0
2, 145900, Note_on_c, 0, 74, 0
2, 145902, Note_on_c, 0, 76, 107
2, 146098, Note_on_c, 0, 59, 0
2, 146098, Note_on_c, 0, 55, 0
2, 146100, Note_on_c, 0, 57, 107
2, 146100, Note_on_c, 0, 61, 107
2, 146100, Note_on_c, 0, 64, 107
2, 146295, Note_on_c, 0, 76, 0
2, 146297, Note_on_c, 0, 74, 107
2, 146492, Note_on_c, 0, 74, 0
2, 146493, Note_on_c, 0, 64, 0
2, 146493, Note_on_c, 0, 61, 0
2, 146493, Note_on_c, 0, 57, 0
2, 146495, Note_on_c, 0, 50, 107
2, 146495, Note_on_c, 0, 62, 107
2, 146495, Note_on_c, 0, 66, 107
2, 146495, Note_on_c, 0, 74, 107
2, 146890, Note_on_c, 0, 66, 0
2, 146892, Note_on_c, 0, 67, 107
2, 147087, Note_on_c, 0, 62, 0
2, 147089, Note_on_c, 0, 74, 0
2, 147089, Note_on_c, 0, 64, 107
2, 147186, Note_on_c, 0, 64, 0
2, 147189, Note_on_c, 0, 62, 107
2, 147286, Note_on_c, 0, 62, 0
2, 147287, Note_on_c, 0, 67, 0
2, 147288, Note_on_c, 0, 60, 107
2, 147288, Note_on_c, 0, 69, 107
2, 147683, Note_on_c, 0, 60, 0
2, 147685, Note_on_c, 0, 66, 107
2, 147880, Note_on_c, 0, 69, 0
2, 147882, Note_on_c, 0, 71, 107
2, 147979, Note_on_c, 0, 71, 0
2, 147982, Note_on_c, 0, 69, 107
2, 148079, Note_on_c, 0, 69, 0
2, 148080, Note_on_c, 0, 66, 0
2, 148081, Note_on_c, 0, 59, 107
2, 148081, Note_on_c, 0, 67, 107
2, 148277, Note_on_c, 0, 50, 0
2, 148279, Note_on_c, 0, 52, 107
2, 148474, Note_on_c, 0, 52, 0
2, 148474, Note_on_c, 0, 67, 0
2, 148474, Note_on_c, 0, 59, 0
2, 148476, Note_on_c, 0, 50, 107
2, 148476, Note_on_c, 0, 64, 107
2, 148476, Note_on_c, 0, 72, 107
2, 148671, Note_on_c, 0, 50, 0
2, 148674, Note_on_c, 0, 48, 107
2, 148869, Note_on_c, 0, 48, 0
2, 148869, Note_on_c, 0, 72, 0
2, 148871, Note_on_c, 0, 47, 107
2, 148871, Note_on_c, 0, 66, 107
2, 149065, Note_on_c, 0, 66, 0
2, 149066, Note_on_c, 0, 47, 0
2, 149066, Note_on_c, 0, 64, 0
2, 149069, Note_on_c, 0, 45, 107
2, 149069, Note_on_c, 0, 66, 107
2, 149264, Note_on_c, 0, 66, 0
2, 149264, Note_on_c, 0, 45, 0
2, 149266, Note_on_c, 0, 43, 107
2, 149266, Note_on_c, 0, 64, 107
2, 149266, Note_on_c, 0, 71, 107
2, 149461, Note_on_c, 0, 64, 0
2, 149461, Note_on_c, 0, 43, 0
2, 149464, Note_on_c, 0, 42, 107
2, 149464, Note_on_c, 0, 62, 107
2, 149659, Note_on_c, 0, 62, 0
2, 149659, Note_on_c, 0, 42, 0
2, 149661, Note_on_c, 0, 40, 107
2, 149661, Note_on_c, 0, 60, 107
2, 149861, Note_on_c, 0, 71, 0
2, 149864, Note_on_c, 0, 72, 107
2, 150063, Note_on_c, 0, 40, 0
2, 150064, Note_on_c, 0, 72, 0
2, 150066, Note_on_c, 0, 52, 107
2, 150066, Note_on_c, 0, 71, 107
2, 150266, Note_on_c, 0, 71, 0
2, 150268, Note_on_c, 0, 69, 107
2, 150468, Note_on_c, 0, 69, 0
2, 150468, Note_on_c, 0, 52, 0
2, 150470, Note_on_c, 0, 54, 107
2, 150470, Note_on_c, 0, 67, 107
2, 150670, Note_on_c, 0, 67, 0
2, 150672, Note_on_c, 0, 66, 107
2, 150872, Note_on_c, 0, 66, 0
2, 150872, Note_on_c, 0, 54, 0
2, 150875, Note_on_c, 0, 55, 107
2, 150875, Note_on_c, 0, 64, 107
2, 150875, Note_on_c, 0, 67, 107
2, 151061, Note_on_c, 0, 60, 0
2, 151075, Note_on_c, 0, 64, 0
2, 151077, Note_on_c, 0, 62, 107
2, 151277, Note_on_c, 0, 62, 0
2, 151277, Note_on_c, 0, 67, 0
2, 151279, Note_on_c, 0, 64, 107
2, 151279, Note_on_c, 0, 69, 107
2, 151481, Note_on_c, 0, 62, 107
2, 151681, Note_on_c, 0, 62, 0
2, 151681, Note_on_c, 0, 69, 0
2, 151682, Note_on_c, 0, 55, 0
2, 151684, Note_on_c, 0, 57, 107
2, 151684, Note_on_c, 0, 60, 107
2, 151684, Note_on_c, 0, 71, 107
2, 151884, Note_on_c, 0, 60, 0
2, 151884, Note_on_c, 0, 57, 0
2, 151886, Note_on_c, 0, 55, 107
2, 151886, Note_on_c, 0, 59, 107
2, 152086, Note_on_c, 0, 59, 0
2, 152086, Note_on_c, 0, 71, 0
2, 152086, Note_on_c, 0, 64, 0
2, 152086, Note_on_c, 0, 55, 0
2, 152088, Note_on_c, 0, 54, 107
2, 152088, Note_on_c, 0, 57, 107
2, 152088, Note_on_c, 0, 62, 107
2, 152088, Note_on_c, 0, 72, 107
2, 152288, Note_on_c, 0, 57, 0
2, 152290, Note_on_c, 0, 55, 107
2, 152490, Note_on_c, 0, 55, 0
2, 152490, Note_on_c, 0, 54, 0
2, 152493, Note_on_c, 0, 50, 107
2, 152493, Note_on_c, 0, 57, 107
2, 152693, Note_on_c, 0, 57, 0
2, 152693, Note_on_c, 0, 72, 0
2, 152695, Note_on_c, 0, 54, 107
2, 152695, Note_on_c, 0, 74, 107
2, 152794, Note_on_c, 0, 74, 0
2, 152796, Note_on_c, 0, 72, 107
2, 152892, Note_on_c, 0, 50, 0
2, 152893, Note_on_c, 0, 72, 0
2, 152894, Note_on_c, 0, 54, 0
2, 152896, Note_on_c, 0, 55, 107
2, 152896, Note_on_c, 0, 71, 107
2, 153096, Note_on_c, 0, 62, 0
2, 153098, Note_on_c, 0, 69, 107
2, 153298, Note_on_c, 0, 69, 0
2, 153298, Note_on_c, 0, 71, 0
2, 153300, Note_on_c, 0, 59, 107
2, 153300, Note_on_c, 0, 67, 107
2, 153300, Note_on_c, 0, 76, 107
2, 153500, Note_on_c, 0, 67, 0
2, 153502, Note_on_c, 0, 65, 107
2, 153697, Note_on_c, 0, 55, 0
2, 153702, Note_on_c, 0, 76, 0
2, 153702, Note_on_c, 0, 59, 0
2, 153702, Note_on_c, 0, 65, 0
2, 153704, Note_on_c, 0, 55, 107
2, 153704, Note_on_c, 0, 60, 107
2, 153704, Note_on_c, 0, 64, 107
2, 153704, Note_on_c, 0, 69, 107
2, 153904, Note_on_c, 0, 64, 0
2, 153907, Note_on_c, 0, 67, 107
2, 154106, Note_on_c, 0, 69, 0
2, 154106, Note_on_c, 0, 60, 0
2, 154107, Note_on_c, 0, 67, 0
2, 154109, Note_on_c, 0, 62, 107
2, 154109, Note_on_c, 0, 65, 107
2, 154109, Note_on_c, 0, 74, 107
2, 154309, Note_on_c, 0, 65, 0
2, 154311, Note_on_c, 0, 69, 107
2, 154511, Note_on_c, 0, 69, 0
2, 154511, Note_on_c, 0, 55, 0
2, 154511, Note_on_c, 0, 62, 0
2, 154513, Note_on_c, 0, 55, 107
2, 154513, Note_on_c, 0, 64, 107
2, 154513, Note_on_c, 0, 67, 107
2, 154714, Note_on_c, 0, 74, 0
2, 154716, Note_on_c, 0, 76, 107
2, 154916, Note_on_c, 0, 76, 0
2, 154918, Note_on_c, 0, 74, 107
2, 155118, Note_on_c, 0, 74, 0
2, 155118, Note_on_c, 0, 64, 0
2, 155120, Note_on_c, 0, 65, 107
2, 155120, Note_on_c, 0, 72, 107
2, 155219, Note_on_c, 0, 65, 0
2, 155221, Note_on_c, 0, 64, 107
2, 155320, Note_on_c, 0, 64, 0
2, 155320, Note_on_c, 0, 72, 0
2, 155320, Note_on_c, 0, 67, 0
2, 155322, Note_on_c, 0, 62, 107
2, 155322, Note_on_c, 0, 67, 107
2, 155322, Note_on_c, 0, 71, 107
2, 155522, Note_on_c, 0, 71, 0
2, 155522, Note_on_c, 0, 67, 0
2, 155525, Note_on_c, 0, 69, 107
2, 155525, Note_on_c, 0, 72, 107
2, 155724, Note_on_c, 0, 62, 0
2, 155725, Note_on_c, 0, 72, 0
2, 155725, Note_on_c, 0, 69, 0
2, 155727, Note_on_c, 0, 67, 107
2, 155727, Note_on_c, 0, 70, 107
2, 155727, Note_on_c, 0, 74, 107
2, 155927, Note_on_c, 0, 74, 0
2, 155929, Note_on_c, 0, 76, 107
2, 156129, Note_on_c, 0, 76, 0
2, 156129, Note_on_c, 0, 70, 0
2, 156129, Note_on_c, 0, 67, 0
2, 156129, Note_on_c, 0, 55, 0
2, 156131, Note_on_c, 0, 57, 107
2, 156131, Note_on_c, 0, 60, 107
2, 156131, Note_on_c, 0, 72, 107
2, 156131, Note_on_c, 0, 77, 107
2, 156331, Note_on_c, 0, 77, 0
2, 156334, Note_on_c, 0, 79, 107
2, 156533, Note_on_c, 0, 60, 0
2, 156534, Note_on_c, 0, 79, 0
2, 156536, Note_on_c, 0, 65, 107
2, 156536, Note_on_c, 0, 81, 107
2, 156635, Note_on_c, 0, 65, 0
2, 156637, Note_on_c, 0, 64, 107
2, 156736, Note_on_c, 0, 64, 0
2, 156736, Note_on_c, 0, 81, 0
2, 156738, Note_on_c, 0, 65, 107
2, 156738, Note_on_c, 0, 79, 107
2, 156938, Note_on_c, 0, 79, 0
2, 156938, Note_on_c, 0, 57, 0
2, 156938, Note_on_c, 0, 72, 0
2, 156940, Note_on_c, 0, 59, 107
2, 156940, Note_on_c, 0, 74, 107
2, 156940, Note_on_c, 0, 77, 107
2, 157140, Note_on_c, 0, 77, 0
2, 157140, Note_on_c, 0, 65, 0
2, 157143, Note_on_c, 0, 67, 107
2, 157143, Note_on_c, 0, 76, 107
2, 157342, Note_on_c, 0, 74, 0
2, 157342, Note_on_c, 0, 59, 0
2, 157343, Note_on_c, 0, 67, 0
2, 157343, Note_on_c, 0, 76, 0
2, 157345, Note_on_c, 0, 60, 107
2, 157345, Note_on_c, 0, 65, 107
2, 157345, Note_on_c, 0, 67, 107
2, 157345, Note_on_c, 0, 74, 107
2, 157545, Note_on_c, 0, 74, 0
2, 157545, Note_on_c, 0, 65, 0
2, 157547, Note_on_c, 0, 64, 107
2, 157547, Note_on_c, 0, 72, 107
2, 157747, Note_on_c, 0, 64, 0
2, 157747, Note_on_c, 0, 60, 0
2, 157749, Note_on_c, 0, 53, 107
2, 157749, Note_on_c, 0, 62, 107
2, 157799, Note_on_c, 0, 72, 0
2, 157837, Note_on_c, 0, 67, 0
2, 157850, Note_on_c, 0, 67, 107
2, 157949, Note_on_c, 0, 53, 0
2, 157952, Note_on_c, 0, 57, 107
2, 157952, Note_on_c, 0, 71, 107
2, 158152, Note_on_c, 0, 57, 0
2, 158154, Note_on_c, 0, 55, 107
2, 158354, Note_on_c, 0, 55, 0
2, 158356, Note_on_c, 0, 53, 107
2, 158556, Note_on_c, 0, 53, 0
2, 158556, Note_on_c, 0, 62, 0
2, 158558, Note_on_c, 0, 71, 0
2, 158558, Note_on_c, 0, 52, 107
2, 158558, Note_on_c, 0, 64, 107
2, 158558, Note_on_c, 0, 72, 107
2, 158758, Note_on_c, 0, 52, 0
2, 158760, Note_on_c, 0, 50, 107
2, 158956, Note_on_c, 0, 67, 0
2, 158960, Note_on_c, 0, 72, 0
2, 158960, Note_on_c, 0, 64, 0
2, 158960, Note_on_c, 0, 50, 0
2, 158963, Note_on_c, 0, 48, 107
2, 158963, Note_on_c, 0, 62, 107
2, 158963, Note_on_c, 0, 65, 107
2, 158963, Note_on_c, 0, 74, 107
2, 159163, Note_on_c, 0, 48, 0
2, 159165, Note_on_c, 0, 47, 107
2, 159365, Note_on_c, 0, 47, 0
2, 159365, Note_on_c, 0, 74, 0
2, 159365, Note_on_c, 0, 65, 0
2, 159367, Note_on_c, 0, 48, 107
2, 159367, Note_on_c, 0, 67, 107
2, 159567, Note_on_c, 0, 48, 0
2, 159569, Note_on_c, 0, 50, 107
2, 159769, Note_on_c, 0, 50, 0
2, 159769, Note_on_c, 0, 67, 0
2, 159770, Note_on_c, 0, 62, 0
2, 159772, Note_on_c, 0, 52, 107
2, 159772, Note_on_c, 0, 55, 107
2, 159772, Note_on_c, 0, 64, 107
2, 159772, Note_on_c, 0, 72, 107
2, 159972, Note_on_c, 0, 52, 0
2, 159974, Note_on_c, 0, 53, 107
2, 160171, Note_on_c, 0, 55, 0
2, 160173, Note_on_c, 0, 53, 0
2, 160173, Note_on_c, 0, 64, 0
2, 160175, Note_on_c, 0, 55, 107
2, 160175, Note_on_c, 0, 62, 107
2, 160577, Note_on_c, 0, 72, 0
2, 160579, Note_on_c, 0, 43, 107
2, 160579, Note_on_c, 0, 71, 107
2, 160660, Note_on_c, 0, 72, 107
2, 160661, Note_on_c, 0, 71, 0
2, 160741, Note_on_c, 0, 71, 107
2, 160742, Note_on_c, 0, 72, 0
2, 160981, Note_on_c, 0, 43, 0
2, 160982, Note_on_c, 0, 62, 0
2, 160984, Note_on_c, 0, 48, 107
2, 160984, Note_on_c, 0, 64, 107
2, 160984, Note_on_c, 0, 72, 107
2, 160989, Note_on_c, 0, 71, 0
2, 161391, Note_on_c, 0, 48, 0
2, 161393, Note_on_c, 0, 55, 0
2, 161393, Note_on_c, 0, 64, 0
2, 161394, Note_on_c, 0, 48, 107
2, 161394, Note_on_c, 0, 69, 107
2, 161804, Note_on_c, 0, 72, 0
2, 161805, Note_on_c, 0, 50, 107
2, 161805, Note_on_c, 0, 71, 107
2, 162214, Note_on_c, 0, 71, 0
2, 162214, Note_on_c, 0, 50, 0
2, 162214, Note_on_c, 0, 69, 0
2, 162216, Note_on_c, 0, 52, 107
2, 162216, Note_on_c, 0, 67, 107
2, 162216, Note_on_c, 0, 70, 107
2, 162624, Note_on_c, 0, 48, 0
2, 162625, Note_on_c, 0, 52, 0
2, 162625, Note_on_c, 0, 70, 0
2, 162627, Note_on_c, 0, 48, 107
2, 162627, Note_on_c, 0, 53, 107
2, 162627, Note_on_c, 0, 69, 107
2, 163036, Note_on_c, 0, 69, 0
2, 163036, Note_on_c, 0, 67, 0
2, 163038, Note_on_c, 0, 65, 107
2, 163038, Note_on_c, 0, 74, 107
2, 163241, Note_on_c, 0, 53, 0
2, 163243, Note_on_c, 0, 55, 107
2, 163344, Note_on_c, 0, 55, 0
2, 163346, Note_on_c, 0, 53, 107
2, 163447, Note_on_c, 0, 53, 0
2, 163447, Note_on_c, 0, 65, 0
2, 163448, Note_on_c, 0, 52, 107
2, 163448, Note_on_c, 0, 67, 107
2, 163857, Note_on_c, 0, 67, 0
2, 163857, Note_on_c, 0, 52, 0
2, 163858, Note_on_c, 0, 74, 0
2, 163859, Note_on_c, 0, 57, 107
2, 163859, Note_on_c, 0, 69, 107
2, 163859, Note_on_c, 0, 72, 107
2, 164268, Note_on_c, 0, 72, 0
2, 164268, Note_on_c, 0, 48, 0
2, 164268, Note_on_c, 0, 57, 0
2, 164268, Note_on_c, 0, 69, 0
2, 164270, Note_on_c, 0, 48, 107
2, 164270, Note_on_c, 0, 50, 107
2, 164270, Note_on_c, 0, 70, 107
2, 164270, Note_on_c, 0, 74, 107
2, 164679, Note_on_c, 0, 74, 0
2, 164679, Note_on_c, 0, 50, 0
2, 164681, Note_on_c, 0, 55, 107
2, 164681, Note_on_c, 0, 76, 107
2, 164884, Note_on_c, 0, 70, 0
2, 164886, Note_on_c, 0, 72, 107
2, 164987, Note_on_c, 0, 72, 0
2, 164989, Note_on_c, 0, 70, 107
2, 165090, Note_on_c, 0, 70, 0
2, 165090, Note_on_c, 0, 76, 0
2, 165092, Note_on_c, 0, 69, 107
2, 165092, Note_on_c, 0, 77, 107
2, 165295, Note_on_c, 0, 55, 0
2, 165297, Note_on_c, 0, 57, 107
2, 165500, Note_on_c, 0, 57, 0
2, 165501, Note_on_c, 0, 69, 0
2, 165502, Note_on_c, 0, 55, 107
2, 165502, Note_on_c, 0, 74, 107
2, 165705, Note_on_c, 0, 55, 0
2, 165708, Note_on_c, 0, 53, 107
2, 165911, Note_on_c, 0, 53, 0
2, 165911, Note_on_c, 0, 74, 0
2, 165911, Note_on_c, 0, 48, 0
2, 165913, Note_on_c, 0, 48, 107
2, 165913, Note_on_c, 0, 52, 107
2, 165913, Note_on_c, 0, 67, 107
2, 166119, Note_on_c, 0, 52, 0
2, 166120, Note_on_c, 0, 77, 0
2, 166122, Note_on_c, 0, 50, 107
2, 166122, Note_on_c, 0, 81, 107
2, 166328, Note_on_c, 0, 81, 0
2, 166328, Note_on_c, 0, 50, 0
2, 166328, Note_on_c, 0, 67, 0
2, 166330, Note_on_c, 0, 52, 107
2, 166330, Note_on_c, 0, 72, 107
2, 166330, Note_on_c, 0, 79, 107
2, 166536, Note_on_c, 0, 79, 0
2, 166536, Note_on_c, 0, 52, 0
2, 166539, Note_on_c, 0, 53, 107
2, 166539, Note_on_c, 0, 77, 107
2, 166745, Note_on_c, 0, 77, 0
2, 166745, Note_on_c, 0, 53, 0
2, 166747, Note_on_c, 0, 55, 107
2, 166747, Note_on_c, 0, 76, 107
2, 166953, Note_on_c, 0, 76, 0
2, 166953, Note_on_c, 0, 55, 0
2, 166954, Note_on_c, 0, 72, 0
2, 166956, Note_on_c, 0, 57, 107
2, 166956, Note_on_c, 0, 74, 107
2, 166956, Note_on_c, 0, 77, 107
2, 167162, Note_on_c, 0, 77, 0
2, 167162, Note_on_c, 0, 74, 0
2, 167162, Note_on_c, 0, 57, 0
2, 167165, Note_on_c, 0, 58, 107
2, 167165, Note_on_c, 0, 72, 107
2, 167165, Note_on_c, 0, 76, 107
2, 167371, Note_on_c, 0, 76, 0
2, 167371, Note_on_c, 0, 72, 0
2, 167371, Note_on_c, 0, 58, 0
2, 167373, Note_on_c, 0, 55, 107
2, 167373, Note_on_c, 0, 70, 107
2, 167373, Note_on_c, 0, 74, 107
2, 167579, Note_on_c, 0, 74, 0
2, 167579, Note_on_c, 0, 48, 0
2, 167579, Note_on_c, 0, 55, 0
2, 167579, Note_on_c, 0, 70, 0
2, 167582, Note_on_c, 0, 48, 107
2, 167582, Note_on_c, 0, 57, 107
2, 167582, Note_on_c, 0, 69, 107
2, 167582, Note_on_c, 0, 72, 107
2, 167793, Note_on_c, 0, 69, 0
2, 167793, Note_on_c, 0, 57, 0
2, 167795, Note_on_c, 0, 52, 107
2, 167795, Note_on_c, 0, 70, 107
2, 168006, Note_on_c, 0, 70, 0
2, 168006, Note_on_c, 0, 52, 0
2, 168008, Note_on_c, 0, 53, 107
2, 168008, Note_on_c, 0, 69, 107
2, 168219, Note_on_c, 0, 69, 0
2, 168219, Note_on_c, 0, 53, 0
2, 168222, Note_on_c, 0, 55, 107
2, 168222, Note_on_c, 0, 67, 107
2, 168433, Note_on_c, 0, 67, 0
2, 168433, Note_on_c, 0, 55, 0
2, 168435, Note_on_c, 0, 57, 107
2, 168435, Note_on_c, 0, 65, 107
2, 168646, Note_on_c, 0, 65, 0
2, 168646, Note_on_c, 0, 57, 0
2, 168648, Note_on_c, 0, 59, 107
2, 168648, Note_on_c, 0, 67, 107
2, 168859, Note_on_c, 0, 67, 0
2, 168859, Note_on_c, 0, 59, 0
2, 168861, Note_on_c, 0, 60, 107
2, 168861, Note_on_c, 0, 65, 107
2, 169072, Note_on_c, 0, 65, 0
2, 169072, Note_on_c, 0, 60, 0
2, 169075, Note_on_c, 0, 57, 107
2, 169075, Note_on_c, 0, 64, 107
2, 169286, Note_on_c, 0, 64, 0
2, 169286, Note_on_c, 0, 72, 0
2, 169286, Note_on_c, 0, 48, 0
2, 169286, Note_on_c, 0, 57, 0
2, 169288, Note_on_c, 0, 48, 107
2, 169288, Note_on_c, 0, 59, 107
2, 169288, Note_on_c, 0, 62, 107
2, 169509, Note_on_c, 0, 67, 107
2, 169618, Note_on_c, 0, 67, 0
2, 169620, Note_on_c, 0, 69, 107
2, 169729, Note_on_c, 0, 69, 0
2, 169730, Note_on_c, 0, 71, 107
2, 169949, Note_on_c, 0, 71, 0
2, 169952, Note_on_c, 0, 72, 107
2, 170171, Note_on_c, 0, 72, 0
2, 170173, Note_on_c, 0, 74, 107
2, 170392, Note_on_c, 0, 74, 0
2, 170394, Note_on_c, 0, 76, 107
2, 170613, Note_on_c, 0, 76, 0
2, 170615, Note_on_c, 0, 77, 107
2, 170834, Note_on_c, 0, 62, 0
2, 170836, Note_on_c, 0, 67, 107
2, 171055, Note_on_c, 0, 67, 0
2, 171056, Note_on_c, 0, 59, 0
2, 171058, Note_on_c, 0, 60, 107
2, 171058, Note_on_c, 0, 69, 107
2, 171174, Note_on_c, 0, 77, 0
2, 171178, Note_on_c, 0, 72, 107
2, 171294, Note_on_c, 0, 72, 0
2, 171298, Note_on_c, 0, 74, 107
2, 171414, Note_on_c, 0, 74, 0
2, 171418, Note_on_c, 0, 76, 107
2, 171534, Note_on_c, 0, 76, 0
2, 171538, Note_on_c, 0, 77, 107
2, 171775, Note_on_c, 0, 77, 0
2, 171778, Note_on_c, 0, 79, 107
2, 172009, Note_on_c, 0, 69, 0
2, 172016, Note_on_c, 0, 79, 0
2, 172020, Note_on_c, 0, 81, 107
2, 172297, Note_on_c, 0, 77, 107
2, 172582, Note_on_c, 0, 77, 0
2, 172597, Note_on_c, 0, 74, 107
2, 172882, Note_on_c, 0, 81, 0
2, 172886, Note_on_c, 0, 83, 107
2, 173168, Note_on_c, 0, 74, 0
2, 173171, Note_on_c, 0, 83, 0
2, 173190, Note_on_c, 0, 84, 107
2, 173190, Note_on_c, 0, 76, 107
2, 173190, Note_on_c, 0, 79, 107
2, 176633, Note_on_c, 0, 60, 0
2, 176633, Note_on_c, 0, 48, 0
2, 176648, Note_on_c, 0, 76, 0
2, 176648, Note_on_c, 0, 84, 0
2, 176648, Note_on_c, 0, 79, 0
2, 176648, End_track
0, 0, End_of_file
