0, 0, Header, 0, 1, 240
1, 0, Start_track
1, 0, Title_t, "--------"
1, 0, Time_signature, 1, 2, 24, 8
1, 0, Key_signature, 0, "major"
1, 0, Tempo, 500000
1, 0, Program_c, 0, 6
1, 0, Control_c, 0, 7, 105
1, 0, Control_c, 0, 10, 64
1, 0, Program_c, 0, 6
1, 0, Control_c, 0, 7, 110
1, 0, Control_c, 0, 10, 48
1, 0, Program_c, 0, 6
1, 0, Control_c, 0, 7, 110
1, 0, Control_c, 0, 10, 47
1, 348, Marker_t, "interpreted by (P) 1997 S.D. Rodrian  WTC Book1 Prelude & Fugue in fm"
1, 2380, Control_c, 0, 10, 67
1, 2381, Control_c, 0, 10, 60
1, 2393, Control_c, 0, 10, 79
1, 2402, Program_c, 0, 0
1, 2412, Control_c, 0, 10, 66
1, 2421, Program_c, 0, 0
1, 2422, Control_c, 0, 10, 58
1, 2441, Control_c, 0, 10, 55
1, 2441, Program_c, 0, 0
1, 2450, Control_c, 0, 10, 75
1, 2460, Control_c, 0, 10, 59
1, 2489, Control_c, 0, 10, 74
1, 2623, Note_on_c, 0, 65, 94
1, 2624, Note_on_c, 0, 53, 94
1, 2624, Note_on_c, 0, 56, 94
1, 2734, Note_on_c, 0, 68, 95
1, 2845, Note_on_c, 0, 68, 0
1, 2845, Note_on_c, 0, 72, 93
1, 2955, Note_on_c, 0, 72, 0
1, 2956, Note_on_c, 0, 77, 93
1, 3066, Note_on_c, 0, 77, 0
1, 3066, Note_on_c, 0, 56, 0
1, 3067, Note_on_c, 0, 65, 0
1, 3067, Note_on_c, 0, 58, 102
1, 3068, Note_on_c, 0, 67, 102
1, 3173, Note_on_c, 0, 77, 93
1, 3281, Note_on_c, 0, 77, 0
1, 3281, Note_on_c, 0, 76, 93
1, 3387, Note_on_c, 0, 76, 0
1, 3388, Note_on_c, 0, 79, 93
1, 3492, Note_on_c, 0, 79, 0
1, 3492, Note_on_c, 0, 67, 0
1, 3492, Note_on_c, 0, 58, 0
1, 3492, Note_on_c, 0, 68, 95
1, 3493, Note_on_c, 0, 60, 102
1, 3595, Note_on_c, 0, 72, 93
1, 3700, Note_on_c, 0, 72, 0
1, 3700, Note_on_c, 0, 77, 93
1, 3806, Note_on_c, 0, 77, 0
1, 3807, Note_on_c, 0, 76, 93
1, 3914, Note_on_c, 0, 76, 0
1, 3914, Note_on_c, 0, 60, 0
1, 3915, Note_on_c, 0, 68, 0
1, 3915, Note_on_c, 0, 77, 93
1, 3916, Note_on_c, 0, 56, 102
1, 4020, Note_on_c, 0, 72, 93
1, 4127, Note_on_c, 0, 72, 0
1, 4128, Note_on_c, 0, 70, 95
1, 4233, Note_on_c, 0, 70, 0
1, 4233, Note_on_c, 0, 68, 95
1, 4338, Note_on_c, 0, 68, 0
1, 4339, Note_on_c, 0, 56, 0
1, 4339, Note_on_c, 0, 77, 0
1, 4340, Note_on_c, 0, 73, 93
1, 4340, Note_on_c, 0, 58, 102
1, 4443, Note_on_c, 0, 68, 95
1, 4546, Note_on_c, 0, 68, 0
1, 4546, Note_on_c, 0, 67, 83
1, 4648, Note_on_c, 0, 67, 0
1, 4649, Note_on_c, 0, 70, 95
1, 4731, Note_on_c, 0, 53, 0
1, 4752, Note_on_c, 0, 70, 0
1, 4752, Note_on_c, 0, 58, 0
1, 4753, Note_on_c, 0, 64, 102
1, 4753, Note_on_c, 0, 55, 102
1, 4839, Note_on_c, 0, 73, 0
1, 4857, Note_on_c, 0, 73, 95
1, 4962, Note_on_c, 0, 73, 0
1, 4963, Note_on_c, 0, 72, 95
1, 5068, Note_on_c, 0, 72, 0
1, 5068, Note_on_c, 0, 70, 95
1, 5173, Note_on_c, 0, 70, 0
1, 5174, Note_on_c, 0, 55, 0
1, 5174, Note_on_c, 0, 64, 0
1, 5175, Note_on_c, 0, 68, 95
1, 5175, Note_on_c, 0, 65, 102
1, 5176, Note_on_c, 0, 53, 102
1, 5278, Note_on_c, 0, 56, 102
1, 5383, Note_on_c, 0, 56, 0
1, 5383, Note_on_c, 0, 65, 0
1, 5384, Note_on_c, 0, 60, 102
1, 5486, Note_on_c, 0, 60, 0
1, 5487, Note_on_c, 0, 68, 0
1, 5487, Note_on_c, 0, 70, 96
1, 5488, Note_on_c, 0, 65, 102
1, 5573, Note_on_c, 0, 70, 0
1, 5590, Note_on_c, 0, 65, 0
1, 5591, Note_on_c, 0, 53, 0
1, 5591, Note_on_c, 0, 72, 96
1, 5592, Note_on_c, 0, 55, 102
1, 5628, Note_on_c, 0, 72, 0
1, 5628, Note_on_c, 0, 70, 96
1, 5666, Note_on_c, 0, 70, 0
1, 5666, Note_on_c, 0, 72, 96
1, 5693, Note_on_c, 0, 65, 102
1, 5703, Note_on_c, 0, 72, 0
1, 5704, Note_on_c, 0, 70, 96
1, 5741, Note_on_c, 0, 70, 0
1, 5741, Note_on_c, 0, 72, 96
1, 5779, Note_on_c, 0, 72, 0
1, 5779, Note_on_c, 0, 70, 96
1, 5797, Note_on_c, 0, 65, 0
1, 5797, Note_on_c, 0, 64, 102
1, 5881, Note_on_c, 0, 70, 0
1, 5903, Note_on_c, 0, 64, 0
1, 5903, Note_on_c, 0, 68, 96
1, 5903, Note_on_c, 0, 67, 82
1, 5951, Note_on_c, 0, 68, 0
1, 5955, Note_on_c, 0, 70, 96
1, 6004, Note_on_c, 0, 70, 0
1, 6008, Note_on_c, 0, 67, 0
1, 6008, Note_on_c, 0, 55, 0
1, 6009, Note_on_c, 0, 72, 96
1, 6010, Note_on_c, 0, 56, 94
1, 6111, Note_on_c, 0, 68, 96
1, 6214, Note_on_c, 0, 68, 0
1, 6214, Note_on_c, 0, 64, 102
1, 6316, Note_on_c, 0, 64, 0
1, 6317, Note_on_c, 0, 65, 102
1, 6417, Note_on_c, 0, 65, 0
1, 6418, Note_on_c, 0, 56, 0
1, 6418, Note_on_c, 0, 72, 0
1, 6419, Note_on_c, 0, 61, 102
1, 6419, Note_on_c, 0, 58, 102
1, 6519, Note_on_c, 0, 73, 96
1, 6621, Note_on_c, 0, 73, 0
1, 6621, Note_on_c, 0, 67, 102
1, 6724, Note_on_c, 0, 67, 0
1, 6725, Note_on_c, 0, 70, 96
1, 6828, Note_on_c, 0, 70, 0
1, 6828, Note_on_c, 0, 61, 0
1, 6829, Note_on_c, 0, 58, 0
1, 6829, Note_on_c, 0, 64, 102
1, 6830, Note_on_c, 0, 60, 102
1, 6830, Note_on_c, 0, 48, 102
1, 6931, Note_on_c, 0, 52, 102
1, 7034, Note_on_c, 0, 52, 0
1, 7035, Note_on_c, 0, 60, 0
1, 7035, Note_on_c, 0, 55, 102
1, 7137, Note_on_c, 0, 55, 0
1, 7138, Note_on_c, 0, 64, 0
1, 7138, Note_on_c, 0, 65, 102
1, 7139, Note_on_c, 0, 60, 102
1, 7223, Note_on_c, 0, 65, 0
1, 7240, Note_on_c, 0, 60, 0
1, 7240, Note_on_c, 0, 48, 0
1, 7241, Note_on_c, 0, 49, 102
1, 7241, Note_on_c, 0, 67, 102
1, 7277, Note_on_c, 0, 67, 0
1, 7278, Note_on_c, 0, 65, 102
1, 7315, Note_on_c, 0, 65, 0
1, 7315, Note_on_c, 0, 67, 102
1, 7343, Note_on_c, 0, 60, 102
1, 7353, Note_on_c, 0, 67, 0
1, 7354, Note_on_c, 0, 65, 102
1, 7391, Note_on_c, 0, 65, 0
1, 7391, Note_on_c, 0, 67, 102
1, 7428, Note_on_c, 0, 67, 0
1, 7428, Note_on_c, 0, 65, 102
1, 7445, Note_on_c, 0, 60, 0
1, 7446, Note_on_c, 0, 58, 102
1, 7547, Note_on_c, 0, 58, 0
1, 7548, Note_on_c, 0, 65, 0
1, 7548, Note_on_c, 0, 64, 102
1, 7548, Note_on_c, 0, 61, 102
1, 7598, Note_on_c, 0, 64, 0
1, 7599, Note_on_c, 0, 65, 102
1, 7649, Note_on_c, 0, 65, 0
1, 7649, Note_on_c, 0, 61, 0
1, 7650, Note_on_c, 0, 49, 0
1, 7650, Note_on_c, 0, 52, 102
1, 7651, Note_on_c, 0, 67, 102
1, 7751, Note_on_c, 0, 72, 98
1, 7854, Note_on_c, 0, 72, 0
1, 7855, Note_on_c, 0, 70, 98
1, 7855, Note_on_c, 0, 55, 102
1, 7956, Note_on_c, 0, 70, 0
1, 7956, Note_on_c, 0, 73, 98
1, 8058, Note_on_c, 0, 55, 0
1, 8058, Note_on_c, 0, 67, 0
1, 8059, Note_on_c, 0, 52, 0
1, 8059, Note_on_c, 0, 60, 102
1, 8060, Note_on_c, 0, 64, 102
1, 8160, Note_on_c, 0, 73, 0
1, 8160, Note_on_c, 0, 73, 98
1, 8263, Note_on_c, 0, 73, 0
1, 8263, Note_on_c, 0, 72, 98
1, 8263, Note_on_c, 0, 48, 102
1, 8365, Note_on_c, 0, 72, 0
1, 8366, Note_on_c, 0, 70, 98
1, 8468, Note_on_c, 0, 70, 0
1, 8469, Note_on_c, 0, 48, 0
1, 8469, Note_on_c, 0, 64, 0
1, 8470, Note_on_c, 0, 60, 0
1, 8470, Note_on_c, 0, 69, 98
1, 8470, Note_on_c, 0, 63, 102
1, 8471, Note_on_c, 0, 41, 102
1, 8570, Note_on_c, 0, 45, 102
1, 8673, Note_on_c, 0, 45, 0
1, 8673, Note_on_c, 0, 48, 102
1, 8773, Note_on_c, 0, 48, 0
1, 8774, Note_on_c, 0, 69, 0
1, 8774, Note_on_c, 0, 70, 98
1, 8775, Note_on_c, 0, 53, 102
1, 8859, Note_on_c, 0, 70, 0
1, 8876, Note_on_c, 0, 53, 0
1, 8877, Note_on_c, 0, 41, 0
1, 8877, Note_on_c, 0, 63, 0
1, 8878, Note_on_c, 0, 72, 98
1, 8878, Note_on_c, 0, 61, 102
1, 8879, Note_on_c, 0, 42, 102
1, 8915, Note_on_c, 0, 72, 0
1, 8915, Note_on_c, 0, 70, 98
1, 8952, Note_on_c, 0, 70, 0
1, 8952, Note_on_c, 0, 72, 98
1, 8979, Note_on_c, 0, 53, 102
1, 8989, Note_on_c, 0, 72, 0
1, 8990, Note_on_c, 0, 70, 98
1, 9027, Note_on_c, 0, 70, 0
1, 9027, Note_on_c, 0, 72, 98
1, 9065, Note_on_c, 0, 72, 0
1, 9066, Note_on_c, 0, 70, 98
1, 9083, Note_on_c, 0, 53, 0
1, 9083, Note_on_c, 0, 51, 102
1, 9185, Note_on_c, 0, 51, 0
1, 9186, Note_on_c, 0, 70, 0
1, 9186, Note_on_c, 0, 69, 98
1, 9187, Note_on_c, 0, 54, 102
1, 9236, Note_on_c, 0, 69, 0
1, 9237, Note_on_c, 0, 70, 98
1, 9288, Note_on_c, 0, 70, 0
1, 9288, Note_on_c, 0, 54, 0
1, 9289, Note_on_c, 0, 42, 0
1, 9289, Note_on_c, 0, 72, 98
1, 9290, Note_on_c, 0, 45, 102
1, 9335, Note_on_c, 0, 61, 0
1, 9390, Note_on_c, 0, 65, 102
1, 9491, Note_on_c, 0, 65, 0
1, 9491, Note_on_c, 0, 63, 102
1, 9492, Note_on_c, 0, 48, 102
1, 9592, Note_on_c, 0, 63, 0
1, 9593, Note_on_c, 0, 66, 102
1, 9693, Note_on_c, 0, 48, 0
1, 9694, Note_on_c, 0, 45, 0
1, 9694, Note_on_c, 0, 45, 102
1, 9778, Note_on_c, 0, 66, 0
1, 9795, Note_on_c, 0, 66, 102
1, 9897, Note_on_c, 0, 66, 0
1, 9897, Note_on_c, 0, 65, 102
1, 9898, Note_on_c, 0, 41, 102
1, 9997, Note_on_c, 0, 65, 0
1, 9998, Note_on_c, 0, 63, 102
1, 10099, Note_on_c, 0, 63, 0
1, 10100, Note_on_c, 0, 41, 0
1, 10100, Note_on_c, 0, 45, 0
1, 10101, Note_on_c, 0, 62, 102
1, 10101, Note_on_c, 0, 46, 102
1, 10185, Note_on_c, 0, 72, 0
1, 10202, Note_on_c, 0, 72, 98
1, 10305, Note_on_c, 0, 72, 0
1, 10305, Note_on_c, 0, 70, 98
1, 10406, Note_on_c, 0, 70, 0
1, 10407, Note_on_c, 0, 73, 98
1, 10509, Note_on_c, 0, 73, 0
1, 10509, Note_on_c, 0, 67, 102
1, 10590, Note_on_c, 0, 46, 0
1, 10607, Note_on_c, 0, 46, 102
1, 10705, Note_on_c, 0, 46, 0
1, 10706, Note_on_c, 0, 67, 0
1, 10706, Note_on_c, 0, 70, 98
1, 10706, Note_on_c, 0, 48, 102
1, 10741, Note_on_c, 0, 70, 0
1, 10742, Note_on_c, 0, 68, 98
1, 10779, Note_on_c, 0, 68, 0
1, 10779, Note_on_c, 0, 70, 98
1, 10806, Note_on_c, 0, 48, 0
1, 10806, Note_on_c, 0, 49, 102
1, 10816, Note_on_c, 0, 70, 0
1, 10817, Note_on_c, 0, 68, 98
1, 10908, Note_on_c, 0, 68, 0
1, 10908, Note_on_c, 0, 49, 0
1, 10909, Note_on_c, 0, 70, 98
1, 10909, Note_on_c, 0, 43, 102
1, 11009, Note_on_c, 0, 62, 0
1, 11009, Note_on_c, 0, 60, 102
1, 11111, Note_on_c, 0, 60, 0
1, 11111, Note_on_c, 0, 43, 0
1, 11112, Note_on_c, 0, 61, 102
1, 11112, Note_on_c, 0, 46, 102
1, 11213, Note_on_c, 0, 61, 0
1, 11214, Note_on_c, 0, 65, 102
1, 11317, Note_on_c, 0, 46, 0
1, 11317, Note_on_c, 0, 51, 102
1, 11318, Note_on_c, 0, 55, 102
1, 11402, Note_on_c, 0, 65, 0
1, 11420, Note_on_c, 0, 65, 102
1, 11522, Note_on_c, 0, 65, 0
1, 11523, Note_on_c, 0, 55, 0
1, 11523, Note_on_c, 0, 51, 0
1, 11524, Note_on_c, 0, 63, 102
1, 11524, Note_on_c, 0, 39, 102
1, 11625, Note_on_c, 0, 63, 0
1, 11626, Note_on_c, 0, 61, 102
1, 11727, Note_on_c, 0, 61, 0
1, 11727, Note_on_c, 0, 39, 0
1, 11728, Note_on_c, 0, 60, 102
1, 11728, Note_on_c, 0, 44, 102
1, 11829, Note_on_c, 0, 70, 0
1, 11829, Note_on_c, 0, 68, 100
1, 11830, Note_on_c, 0, 48, 102
1, 11930, Note_on_c, 0, 48, 0
1, 11931, Note_on_c, 0, 68, 0
1, 11931, Note_on_c, 0, 72, 100
1, 11932, Note_on_c, 0, 51, 102
1, 12032, Note_on_c, 0, 51, 0
1, 12033, Note_on_c, 0, 56, 102
1, 12133, Note_on_c, 0, 56, 0
1, 12133, Note_on_c, 0, 44, 0
1, 12134, Note_on_c, 0, 60, 0
1, 12134, Note_on_c, 0, 61, 102
1, 12135, Note_on_c, 0, 46, 102
1, 12236, Note_on_c, 0, 72, 0
1, 12236, Note_on_c, 0, 70, 100
1, 12237, Note_on_c, 0, 56, 102
1, 12338, Note_on_c, 0, 56, 0
1, 12339, Note_on_c, 0, 70, 0
1, 12339, Note_on_c, 0, 73, 100
1, 12340, Note_on_c, 0, 55, 102
1, 12441, Note_on_c, 0, 55, 0
1, 12442, Note_on_c, 0, 58, 102
1, 12545, Note_on_c, 0, 58, 0
1, 12545, Note_on_c, 0, 46, 0
1, 12546, Note_on_c, 0, 61, 0
1, 12546, Note_on_c, 0, 63, 102
1, 12547, Note_on_c, 0, 48, 102
1, 12648, Note_on_c, 0, 73, 0
1, 12648, Note_on_c, 0, 72, 100
1, 12648, Note_on_c, 0, 51, 102
1, 12750, Note_on_c, 0, 51, 0
1, 12751, Note_on_c, 0, 72, 0
1, 12751, Note_on_c, 0, 75, 100
1, 12752, Note_on_c, 0, 56, 102
1, 12853, Note_on_c, 0, 56, 0
1, 12853, Note_on_c, 0, 60, 102
1, 12956, Note_on_c, 0, 60, 0
1, 12956, Note_on_c, 0, 48, 0
1, 12957, Note_on_c, 0, 63, 0
1, 12957, Note_on_c, 0, 49, 102
1, 12958, Note_on_c, 0, 65, 102
1, 13058, Note_on_c, 0, 75, 0
1, 13059, Note_on_c, 0, 73, 100
1, 13060, Note_on_c, 0, 60, 102
1, 13162, Note_on_c, 0, 60, 0
1, 13162, Note_on_c, 0, 73, 0
1, 13163, Note_on_c, 0, 77, 100
1, 13163, Note_on_c, 0, 58, 102
1, 13265, Note_on_c, 0, 58, 0
1, 13266, Note_on_c, 0, 61, 102
1, 13367, Note_on_c, 0, 61, 0
1, 13368, Note_on_c, 0, 65, 0
1, 13368, Note_on_c, 0, 49, 0
1, 13368, Note_on_c, 0, 51, 102
1, 13368, Note_on_c, 0, 67, 102
1, 13469, Note_on_c, 0, 77, 0
1, 13469, Note_on_c, 0, 75, 98
1, 13470, Note_on_c, 0, 55, 102
1, 13570, Note_on_c, 0, 55, 0
1, 13570, Note_on_c, 0, 75, 0
1, 13571, Note_on_c, 0, 67, 0
1, 13571, Note_on_c, 0, 73, 98
1, 13572, Note_on_c, 0, 58, 102
1, 13671, Note_on_c, 0, 58, 0
1, 13672, Note_on_c, 0, 73, 0
1, 13672, Note_on_c, 0, 72, 98
1, 13673, Note_on_c, 0, 63, 102
1, 13772, Note_on_c, 0, 63, 0
1, 13773, Note_on_c, 0, 72, 0
1, 13773, Note_on_c, 0, 51, 0
1, 13774, Note_on_c, 0, 70, 98
1, 13774, Note_on_c, 0, 53, 102
1, 13872, Note_on_c, 0, 70, 0
1, 13872, Note_on_c, 0, 67, 102
1, 13873, Note_on_c, 0, 63, 102
1, 13972, Note_on_c, 0, 63, 0
1, 13972, Note_on_c, 0, 67, 0
1, 13973, Note_on_c, 0, 68, 98
1, 13973, Note_on_c, 0, 61, 102
1, 14075, Note_on_c, 0, 61, 0
1, 14075, Note_on_c, 0, 68, 0
1, 14076, Note_on_c, 0, 73, 98
1, 14076, Note_on_c, 0, 65, 102
1, 14178, Note_on_c, 0, 65, 0
1, 14179, Note_on_c, 0, 73, 0
1, 14179, Note_on_c, 0, 53, 0
1, 14180, Note_on_c, 0, 72, 98
1, 14180, Note_on_c, 0, 55, 102
1, 14215, Note_on_c, 0, 72, 0
1, 14215, Note_on_c, 0, 70, 98
1, 14252, Note_on_c, 0, 70, 0
1, 14253, Note_on_c, 0, 72, 98
1, 14279, Note_on_c, 0, 65, 102
1, 14290, Note_on_c, 0, 72, 0
1, 14290, Note_on_c, 0, 70, 98
1, 14327, Note_on_c, 0, 70, 0
1, 14328, Note_on_c, 0, 72, 98
1, 14364, Note_on_c, 0, 72, 0
1, 14364, Note_on_c, 0, 70, 98
1, 14381, Note_on_c, 0, 65, 0
1, 14381, Note_on_c, 0, 63, 102
1, 14483, Note_on_c, 0, 63, 0
1, 14483, Note_on_c, 0, 61, 102
1, 14583, Note_on_c, 0, 61, 0
1, 14584, Note_on_c, 0, 55, 0
1, 14584, Note_on_c, 0, 56, 102
1, 14585, Note_on_c, 0, 60, 102
1, 14685, Note_on_c, 0, 70, 0
1, 14686, Note_on_c, 0, 63, 102
1, 14786, Note_on_c, 0, 63, 0
1, 14786, Note_on_c, 0, 56, 0
1, 14787, Note_on_c, 0, 55, 102
1, 14787, Note_on_c, 0, 65, 102
1, 14888, Note_on_c, 0, 65, 0
1, 14888, Note_on_c, 0, 67, 102
1, 14988, Note_on_c, 0, 67, 0
1, 14988, Note_on_c, 0, 55, 0
1, 14988, Note_on_c, 0, 68, 98
1, 14989, Note_on_c, 0, 53, 102
1, 15089, Note_on_c, 0, 68, 0
1, 15090, Note_on_c, 0, 67, 102
1, 15193, Note_on_c, 0, 67, 0
1, 15193, Note_on_c, 0, 53, 0
1, 15194, Note_on_c, 0, 68, 98
1, 15194, Note_on_c, 0, 49, 102
1, 15296, Note_on_c, 0, 68, 0
1, 15296, Note_on_c, 0, 77, 98
1, 15380, Note_on_c, 0, 60, 0
1, 15397, Note_on_c, 0, 77, 0
1, 15397, Note_on_c, 0, 49, 0
1, 15398, Note_on_c, 0, 75, 98
1, 15398, Note_on_c, 0, 51, 102
1, 15398, Note_on_c, 0, 60, 102
1, 15434, Note_on_c, 0, 60, 0
1, 15434, Note_on_c, 0, 58, 102
1, 15471, Note_on_c, 0, 60, 102
1, 15473, Note_on_c, 0, 58, 0
1, 15499, Note_on_c, 0, 68, 98
1, 15508, Note_on_c, 0, 58, 102
1, 15510, Note_on_c, 0, 60, 0
1, 15545, Note_on_c, 0, 60, 102
1, 15547, Note_on_c, 0, 58, 0
1, 15583, Note_on_c, 0, 60, 0
1, 15584, Note_on_c, 0, 58, 102
1, 15600, Note_on_c, 0, 68, 0
1, 15600, Note_on_c, 0, 67, 102
1, 15699, Note_on_c, 0, 75, 0
1, 15700, Note_on_c, 0, 73, 98
1, 15799, Note_on_c, 0, 73, 0
1, 15800, Note_on_c, 0, 67, 0
1, 15800, Note_on_c, 0, 58, 0
1, 15801, Note_on_c, 0, 51, 0
1, 15801, Note_on_c, 0, 72, 98
1, 15802, Note_on_c, 0, 56, 102
1, 15802, Note_on_c, 0, 44, 102
1, 15901, Note_on_c, 0, 72, 0
1, 15901, Note_on_c, 0, 68, 98
1, 16003, Note_on_c, 0, 68, 0
1, 16003, Note_on_c, 0, 72, 98
1, 16104, Note_on_c, 0, 72, 0
1, 16104, Note_on_c, 0, 76, 98
1, 16205, Note_on_c, 0, 76, 0
1, 16206, Note_on_c, 0, 56, 0
1, 16206, Note_on_c, 0, 77, 98
1, 16306, Note_on_c, 0, 77, 0
1, 16307, Note_on_c, 0, 44, 0
1, 16307, Note_on_c, 0, 79, 98
1, 16308, Note_on_c, 0, 56, 102
1, 16408, Note_on_c, 0, 56, 0
1, 16408, Note_on_c, 0, 79, 0
1, 16409, Note_on_c, 0, 76, 98
1, 16409, Note_on_c, 0, 55, 102
1, 16509, Note_on_c, 0, 55, 0
1, 16509, Note_on_c, 0, 76, 0
1, 16510, Note_on_c, 0, 77, 98
1, 16510, Note_on_c, 0, 53, 102
1, 16608, Note_on_c, 0, 53, 0
1, 16609, Note_on_c, 0, 77, 0
1, 16609, Note_on_c, 0, 79, 98
1, 16610, Note_on_c, 0, 52, 102
1, 16708, Note_on_c, 0, 55, 102
1, 16810, Note_on_c, 0, 55, 0
1, 16811, Note_on_c, 0, 58, 102
1, 16912, Note_on_c, 0, 58, 0
1, 16912, Note_on_c, 0, 61, 102
1, 17013, Note_on_c, 0, 61, 0
1, 17013, Note_on_c, 0, 52, 0
1, 17014, Note_on_c, 0, 48, 102
1, 17113, Note_on_c, 0, 53, 102
1, 17213, Note_on_c, 0, 53, 0
1, 17214, Note_on_c, 0, 52, 102
1, 17315, Note_on_c, 0, 52, 0
1, 17316, Note_on_c, 0, 55, 102
1, 17418, Note_on_c, 0, 55, 0
1, 17418, Note_on_c, 0, 48, 0
1, 17419, Note_on_c, 0, 56, 102
1, 17419, Note_on_c, 0, 53, 102
1, 17519, Note_on_c, 0, 79, 0
1, 17519, Note_on_c, 0, 72, 98
1, 17621, Note_on_c, 0, 72, 0
1, 17621, Note_on_c, 0, 77, 98
1, 17722, Note_on_c, 0, 77, 0
1, 17723, Note_on_c, 0, 80, 98
1, 17823, Note_on_c, 0, 80, 0
1, 17824, Note_on_c, 0, 74, 98
1, 17908, Note_on_c, 0, 53, 0
1, 17925, Note_on_c, 0, 74, 0
1, 17926, Note_on_c, 0, 77, 98
1, 17926, Note_on_c, 0, 53, 102
1, 18026, Note_on_c, 0, 53, 0
1, 18026, Note_on_c, 0, 77, 0
1, 18026, Note_on_c, 0, 71, 98
1, 18027, Note_on_c, 0, 51, 102
1, 18126, Note_on_c, 0, 51, 0
1, 18126, Note_on_c, 0, 71, 0
1, 18127, Note_on_c, 0, 72, 98
1, 18127, Note_on_c, 0, 50, 102
1, 18210, Note_on_c, 0, 72, 0
1, 18227, Note_on_c, 0, 50, 0
1, 18227, Note_on_c, 0, 56, 0
1, 18228, Note_on_c, 0, 72, 89
1, 18228, Note_on_c, 0, 55, 102
1, 18263, Note_on_c, 0, 72, 0
1, 18263, Note_on_c, 0, 71, 89
1, 18300, Note_on_c, 0, 72, 89
1, 18301, Note_on_c, 0, 71, 0
1, 18326, Note_on_c, 0, 59, 102
1, 18337, Note_on_c, 0, 71, 89
1, 18338, Note_on_c, 0, 72, 0
1, 18373, Note_on_c, 0, 72, 89
1, 18375, Note_on_c, 0, 71, 0
1, 18411, Note_on_c, 0, 71, 89
1, 18412, Note_on_c, 0, 72, 0
1, 18428, Note_on_c, 0, 59, 0
1, 18429, Note_on_c, 0, 62, 102
1, 18529, Note_on_c, 0, 62, 0
1, 18529, Note_on_c, 0, 71, 0
1, 18530, Note_on_c, 0, 72, 98
1, 18530, Note_on_c, 0, 67, 102
1, 18613, Note_on_c, 0, 72, 0
1, 18631, Note_on_c, 0, 67, 0
1, 18631, Note_on_c, 0, 55, 0
1, 18632, Note_on_c, 0, 74, 89
1, 18632, Note_on_c, 0, 56, 102
1, 18668, Note_on_c, 0, 74, 0
1, 18669, Note_on_c, 0, 72, 89
1, 18705, Note_on_c, 0, 72, 0
1, 18705, Note_on_c, 0, 74, 89
1, 18732, Note_on_c, 0, 67, 102
1, 18742, Note_on_c, 0, 74, 0
1, 18743, Note_on_c, 0, 72, 89
1, 18780, Note_on_c, 0, 72, 0
1, 18780, Note_on_c, 0, 74, 89
1, 18817, Note_on_c, 0, 74, 0
1, 18817, Note_on_c, 0, 72, 89
1, 18833, Note_on_c, 0, 67, 0
1, 18834, Note_on_c, 0, 65, 102
1, 18937, Note_on_c, 0, 65, 0
1, 18937, Note_on_c, 0, 72, 0
1, 18938, Note_on_c, 0, 68, 98
1, 18938, Note_on_c, 0, 71, 98
1, 18988, Note_on_c, 0, 71, 0
1, 18988, Note_on_c, 0, 72, 98
1, 19040, Note_on_c, 0, 72, 0
1, 19040, Note_on_c, 0, 68, 0
1, 19041, Note_on_c, 0, 56, 0
1, 19041, Note_on_c, 0, 74, 98
1, 19042, Note_on_c, 0, 59, 102
1, 19142, Note_on_c, 0, 79, 95
1, 19245, Note_on_c, 0, 79, 0
1, 19246, Note_on_c, 0, 77, 95
1, 19246, Note_on_c, 0, 62, 102
1, 19348, Note_on_c, 0, 77, 0
1, 19348, Note_on_c, 0, 80, 95
1, 19451, Note_on_c, 0, 62, 0
1, 19451, Note_on_c, 0, 59, 0
1, 19452, Note_on_c, 0, 74, 0
1, 19452, Note_on_c, 0, 71, 98
1, 19452, Note_on_c, 0, 67, 102
1, 19534, Note_on_c, 0, 80, 0
1, 19550, Note_on_c, 0, 80, 95
1, 19650, Note_on_c, 0, 80, 0
1, 19651, Note_on_c, 0, 79, 95
1, 19651, Note_on_c, 0, 55, 102
1, 19751, Note_on_c, 0, 79, 0
1, 19752, Note_on_c, 0, 77, 95
1, 19851, Note_on_c, 0, 77, 0
1, 19851, Note_on_c, 0, 55, 0
1, 19852, Note_on_c, 0, 67, 0
1, 19852, Note_on_c, 0, 71, 0
1, 19853, Note_on_c, 0, 75, 95
1, 19853, Note_on_c, 0, 60, 102
1, 19953, Note_on_c, 0, 84, 95
1, 20054, Note_on_c, 0, 75, 0
1, 20054, Note_on_c, 0, 77, 95
1, 20054, Note_on_c, 0, 56, 102
1, 20157, Note_on_c, 0, 84, 0
1, 20157, Note_on_c, 0, 83, 95
1, 20259, Note_on_c, 0, 83, 0
1, 20260, Note_on_c, 0, 56, 0
1, 20260, Note_on_c, 0, 77, 0
1, 20261, Note_on_c, 0, 84, 95
1, 20261, Note_on_c, 0, 51, 102
1, 20362, Note_on_c, 0, 79, 95
1, 20465, Note_on_c, 0, 79, 0
1, 20465, Note_on_c, 0, 51, 0
1, 20466, Note_on_c, 0, 80, 95
1, 20466, Note_on_c, 0, 53, 102
1, 20568, Note_on_c, 0, 80, 0
1, 20568, Note_on_c, 0, 79, 95
1, 20668, Note_on_c, 0, 79, 0
1, 20669, Note_on_c, 0, 53, 0
1, 20669, Note_on_c, 0, 84, 0
1, 20670, Note_on_c, 0, 75, 95
1, 20670, Note_on_c, 0, 55, 102
1, 20770, Note_on_c, 0, 71, 98
1, 20872, Note_on_c, 0, 71, 0
1, 20872, Note_on_c, 0, 72, 98
1, 20974, Note_on_c, 0, 72, 0
1, 20974, Note_on_c, 0, 66, 102
1, 21074, Note_on_c, 0, 66, 0
1, 21075, Note_on_c, 0, 67, 102
1, 21176, Note_on_c, 0, 75, 0
1, 21177, Note_on_c, 0, 72, 98
1, 21278, Note_on_c, 0, 72, 0
1, 21278, Note_on_c, 0, 60, 0
1, 21279, Note_on_c, 0, 74, 98
1, 21279, Note_on_c, 0, 59, 102
1, 21379, Note_on_c, 0, 67, 0
1, 21379, Note_on_c, 0, 65, 102
1, 21480, Note_on_c, 0, 59, 0
1, 21481, Note_on_c, 0, 55, 0
1, 21481, Note_on_c, 0, 74, 0
1, 21482, Note_on_c, 0, 72, 98
1, 21482, Note_on_c, 0, 60, 102
1, 21483, Note_on_c, 0, 48, 102
1, 21565, Note_on_c, 0, 65, 0
1, 21582, Note_on_c, 0, 65, 102
1, 21684, Note_on_c, 0, 65, 0
1, 21684, Note_on_c, 0, 60, 0
1, 21685, Note_on_c, 0, 55, 102
1, 21685, Note_on_c, 0, 64, 102
1, 21785, Note_on_c, 0, 64, 0
1, 21785, Note_on_c, 0, 67, 102
1, 21887, Note_on_c, 0, 60, 102
1, 21907, Note_on_c, 0, 67, 0
1, 21987, Note_on_c, 0, 55, 0
1, 21988, Note_on_c, 0, 53, 102
1, 22089, Note_on_c, 0, 53, 0
1, 22090, Note_on_c, 0, 52, 102
1, 22191, Note_on_c, 0, 52, 0
1, 22191, Note_on_c, 0, 55, 102
1, 22292, Note_on_c, 0, 55, 0
1, 22293, Note_on_c, 0, 60, 0
1, 22293, Note_on_c, 0, 72, 0
1, 22293, Note_on_c, 0, 48, 0
1, 22294, Note_on_c, 0, 65, 102
1, 22294, Note_on_c, 0, 45, 102
1, 22394, Note_on_c, 0, 69, 98
1, 22495, Note_on_c, 0, 69, 0
1, 22496, Note_on_c, 0, 72, 98
1, 22497, Note_on_c, 0, 53, 102
1, 22596, Note_on_c, 0, 72, 0
1, 22596, Note_on_c, 0, 75, 98
1, 22698, Note_on_c, 0, 45, 0
1, 22699, Note_on_c, 0, 65, 0
1, 22699, Note_on_c, 0, 69, 98
1, 22700, Note_on_c, 0, 41, 102
1, 22800, Note_on_c, 0, 75, 0
1, 22800, Note_on_c, 0, 78, 98
1, 22901, Note_on_c, 0, 78, 0
1, 22901, Note_on_c, 0, 53, 0
1, 22902, Note_on_c, 0, 72, 98
1, 22902, Note_on_c, 0, 53, 102
1, 23003, Note_on_c, 0, 72, 0
1, 23003, Note_on_c, 0, 75, 98
1, 23103, Note_on_c, 0, 75, 0
1, 23104, Note_on_c, 0, 53, 0
1, 23104, Note_on_c, 0, 41, 0
1, 23105, Note_on_c, 0, 69, 0
1, 23105, Note_on_c, 0, 73, 98
1, 23106, Note_on_c, 0, 46, 102
1, 23205, Note_on_c, 0, 49, 102
1, 23307, Note_on_c, 0, 70, 100
1, 23307, Note_on_c, 0, 53, 102
1, 23310, Note_on_c, 0, 49, 0
1, 23408, Note_on_c, 0, 58, 102
1, 23412, Note_on_c, 0, 53, 0
1, 23509, Note_on_c, 0, 70, 0
1, 23510, Note_on_c, 0, 46, 0
1, 23510, Note_on_c, 0, 64, 102
1, 23511, Note_on_c, 0, 48, 102
1, 23611, Note_on_c, 0, 58, 0
1, 23612, Note_on_c, 0, 58, 102
1, 23712, Note_on_c, 0, 73, 0
1, 23712, Note_on_c, 0, 72, 102
1, 23713, Note_on_c, 0, 56, 102
1, 23716, Note_on_c, 0, 58, 0
1, 23814, Note_on_c, 0, 60, 102
1, 23817, Note_on_c, 0, 56, 0
1, 23915, Note_on_c, 0, 48, 0
1, 23915, Note_on_c, 0, 64, 0
1, 23916, Note_on_c, 0, 50, 102
1, 23916, Note_on_c, 0, 53, 102
1, 23916, Note_on_c, 0, 65, 102
1, 23918, Note_on_c, 0, 60, 0
1, 24016, Note_on_c, 0, 72, 0
1, 24017, Note_on_c, 0, 70, 102
1, 24118, Note_on_c, 0, 70, 0
1, 24119, Note_on_c, 0, 53, 0
1, 24119, Note_on_c, 0, 50, 0
1, 24120, Note_on_c, 0, 65, 0
1, 24120, Note_on_c, 0, 55, 102
1, 24120, Note_on_c, 0, 67, 102
1, 24121, Note_on_c, 0, 52, 102
1, 24219, Note_on_c, 0, 64, 102
1, 24223, Note_on_c, 0, 67, 0
1, 24321, Note_on_c, 0, 55, 0
1, 24321, Note_on_c, 0, 52, 0
1, 24322, Note_on_c, 0, 56, 102
1, 24322, Note_on_c, 0, 60, 102
1, 24323, Note_on_c, 0, 53, 102
1, 24324, Note_on_c, 0, 64, 0
1, 24421, Note_on_c, 0, 64, 102
1, 24425, Note_on_c, 0, 60, 0
1, 24522, Note_on_c, 0, 64, 0
1, 24523, Note_on_c, 0, 65, 102
1, 24624, Note_on_c, 0, 71, 102
1, 24725, Note_on_c, 0, 71, 0
1, 24726, Note_on_c, 0, 53, 0
1, 24726, Note_on_c, 0, 56, 0
1, 24726, Note_on_c, 0, 65, 0
1, 24727, Note_on_c, 0, 72, 102
1, 24727, Note_on_c, 0, 55, 102
1, 24728, Note_on_c, 0, 48, 102
1, 24827, Note_on_c, 0, 65, 102
1, 24926, Note_on_c, 0, 65, 0
1, 24926, Note_on_c, 0, 64, 102
1, 25026, Note_on_c, 0, 67, 102
1, 25124, Note_on_c, 0, 67, 0
1, 25124, Note_on_c, 0, 72, 0
1, 25125, Note_on_c, 0, 70, 102
1, 25224, Note_on_c, 0, 70, 0
1, 25224, Note_on_c, 0, 73, 102
1, 25324, Note_on_c, 0, 73, 0
1, 25325, Note_on_c, 0, 72, 102
1, 25426, Note_on_c, 0, 72, 0
1, 25427, Note_on_c, 0, 48, 0
1, 25427, Note_on_c, 0, 70, 102
1, 25428, Note_on_c, 0, 49, 102
1, 25529, Note_on_c, 0, 49, 0
1, 25529, Note_on_c, 0, 70, 0
1, 25530, Note_on_c, 0, 55, 0
1, 25530, Note_on_c, 0, 64, 0
1, 25531, Note_on_c, 0, 69, 102
1, 25531, Note_on_c, 0, 53, 102
1, 25532, Note_on_c, 0, 51, 102
1, 25632, Note_on_c, 0, 69, 0
1, 25632, Note_on_c, 0, 65, 102
1, 25734, Note_on_c, 0, 65, 0
1, 25735, Note_on_c, 0, 51, 0
1, 25735, Note_on_c, 0, 53, 0
1, 25736, Note_on_c, 0, 69, 102
1, 25736, Note_on_c, 0, 63, 102
1, 25836, Note_on_c, 0, 69, 0
1, 25836, Note_on_c, 0, 72, 100
1, 25938, Note_on_c, 0, 72, 0
1, 25938, Note_on_c, 0, 63, 0
1, 25939, Note_on_c, 0, 77, 100
1, 25939, Note_on_c, 0, 61, 102
1, 26039, Note_on_c, 0, 70, 100
1, 26138, Note_on_c, 0, 70, 0
1, 26139, Note_on_c, 0, 61, 0
1, 26139, Note_on_c, 0, 69, 100
1, 26140, Note_on_c, 0, 60, 102
1, 26238, Note_on_c, 0, 77, 0
1, 26239, Note_on_c, 0, 75, 100
1, 26338, Note_on_c, 0, 75, 0
1, 26339, Note_on_c, 0, 60, 0
1, 26339, Note_on_c, 0, 69, 0
1, 26340, Note_on_c, 0, 73, 100
1, 26340, Note_on_c, 0, 58, 102
1, 26439, Note_on_c, 0, 68, 100
1, 26439, Note_on_c, 0, 53, 102
1, 26539, Note_on_c, 0, 53, 0
1, 26539, Note_on_c, 0, 68, 0
1, 26540, Note_on_c, 0, 49, 102
1, 26540, Note_on_c, 0, 67, 102
1, 26639, Note_on_c, 0, 67, 0
1, 26639, Note_on_c, 0, 49, 0
1, 26640, Note_on_c, 0, 68, 100
1, 26640, Note_on_c, 0, 46, 102
1, 26738, Note_on_c, 0, 68, 0
1, 26739, Note_on_c, 0, 58, 0
1, 26739, Note_on_c, 0, 55, 102
1, 26740, Note_on_c, 0, 64, 102
1, 26838, Note_on_c, 0, 46, 0
1, 26839, Note_on_c, 0, 73, 0
1, 26839, Note_on_c, 0, 72, 100
1, 26840, Note_on_c, 0, 48, 102
1, 26938, Note_on_c, 0, 48, 0
1, 26939, Note_on_c, 0, 64, 0
1, 26939, Note_on_c, 0, 49, 102
1, 26940, Note_on_c, 0, 65, 102
1, 27039, Note_on_c, 0, 49, 0
1, 27039, Note_on_c, 0, 72, 0
1, 27040, Note_on_c, 0, 70, 100
1, 27040, Note_on_c, 0, 46, 102
1, 27139, Note_on_c, 0, 46, 0
1, 27139, Note_on_c, 0, 65, 0
1, 27140, Note_on_c, 0, 55, 0
1, 27141, Note_on_c, 0, 64, 102
1, 27141, Note_on_c, 0, 48, 102
1, 27240, Note_on_c, 0, 70, 0
1, 27241, Note_on_c, 0, 73, 100
1, 27242, Note_on_c, 0, 55, 102
1, 27342, Note_on_c, 0, 55, 0
1, 27342, Note_on_c, 0, 73, 0
1, 27343, Note_on_c, 0, 72, 100
1, 27343, Note_on_c, 0, 56, 102
1, 27444, Note_on_c, 0, 56, 0
1, 27444, Note_on_c, 0, 64, 0
1, 27444, Note_on_c, 0, 65, 102
1, 27444, Note_on_c, 0, 59, 102
1, 27545, Note_on_c, 0, 59, 0
1, 27546, Note_on_c, 0, 72, 0
1, 27546, Note_on_c, 0, 68, 100
1, 27547, Note_on_c, 0, 60, 102
1, 27630, Note_on_c, 0, 65, 0
1, 27646, Note_on_c, 0, 65, 102
1, 27748, Note_on_c, 0, 65, 0
1, 27748, Note_on_c, 0, 48, 0
1, 27749, Note_on_c, 0, 64, 102
1, 27749, Note_on_c, 0, 48, 102
1, 27850, Note_on_c, 0, 68, 0
1, 27850, Note_on_c, 0, 67, 102
1, 27951, Note_on_c, 0, 67, 0
1, 27952, Note_on_c, 0, 48, 0
1, 27952, Note_on_c, 0, 64, 0
1, 27953, Note_on_c, 0, 49, 102
1, 27953, Note_on_c, 0, 65, 102
1, 28052, Note_on_c, 0, 68, 100
1, 28154, Note_on_c, 0, 68, 0
1, 28154, Note_on_c, 0, 72, 100
1, 28255, Note_on_c, 0, 72, 0
1, 28255, Note_on_c, 0, 77, 100
1, 28356, Note_on_c, 0, 65, 0
1, 28357, Note_on_c, 0, 60, 0
1, 28357, Note_on_c, 0, 58, 102
1, 28358, Note_on_c, 0, 67, 102
1, 28441, Note_on_c, 0, 77, 0
1, 28458, Note_on_c, 0, 77, 100
1, 28558, Note_on_c, 0, 77, 0
1, 28559, Note_on_c, 0, 76, 100
1, 28658, Note_on_c, 0, 79, 100
1, 28662, Note_on_c, 0, 76, 0
1, 28761, Note_on_c, 0, 67, 0
1, 28761, Note_on_c, 0, 58, 0
1, 28762, Note_on_c, 0, 49, 0
1, 28762, Note_on_c, 0, 68, 100
1, 28763, Note_on_c, 0, 60, 102
1, 28763, Note_on_c, 0, 48, 102
1, 28764, Note_on_c, 0, 79, 0
1, 28862, Note_on_c, 0, 72, 100
1, 28963, Note_on_c, 0, 77, 100
1, 28967, Note_on_c, 0, 72, 0
1, 29065, Note_on_c, 0, 76, 100
1, 29069, Note_on_c, 0, 77, 0
1, 29167, Note_on_c, 0, 68, 0
1, 29167, Note_on_c, 0, 60, 0
1, 29168, Note_on_c, 0, 77, 100
1, 29168, Note_on_c, 0, 56, 102
1, 29170, Note_on_c, 0, 76, 0
1, 29268, Note_on_c, 0, 72, 100
1, 29370, Note_on_c, 0, 70, 100
1, 29372, Note_on_c, 0, 72, 0
1, 29472, Note_on_c, 0, 70, 0
1, 29472, Note_on_c, 0, 68, 100
1, 29572, Note_on_c, 0, 68, 0
1, 29573, Note_on_c, 0, 56, 0
1, 29573, Note_on_c, 0, 77, 0
1, 29573, Note_on_c, 0, 73, 100
1, 29574, Note_on_c, 0, 58, 102
1, 29672, Note_on_c, 0, 68, 100
1, 29772, Note_on_c, 0, 68, 0
1, 29772, Note_on_c, 0, 67, 102
1, 29872, Note_on_c, 0, 67, 0
1, 29872, Note_on_c, 0, 70, 100
1, 29972, Note_on_c, 0, 70, 0
1, 29972, Note_on_c, 0, 58, 0
1, 29973, Note_on_c, 0, 64, 102
1, 29973, Note_on_c, 0, 55, 102
1, 30055, Note_on_c, 0, 73, 0
1, 30072, Note_on_c, 0, 73, 100
1, 30172, Note_on_c, 0, 73, 0
1, 30173, Note_on_c, 0, 72, 100
1, 30272, Note_on_c, 0, 72, 0
1, 30273, Note_on_c, 0, 70, 100
1, 30372, Note_on_c, 0, 70, 0
1, 30372, Note_on_c, 0, 64, 0
1, 30373, Note_on_c, 0, 55, 0
1, 30373, Note_on_c, 0, 68, 100
1, 30374, Note_on_c, 0, 56, 102
1, 30374, Note_on_c, 0, 65, 102
1, 30472, Note_on_c, 0, 65, 0
1, 30472, Note_on_c, 0, 63, 102
1, 30573, Note_on_c, 0, 63, 0
1, 30573, Note_on_c, 0, 62, 102
1, 30676, Note_on_c, 0, 62, 0
1, 30677, Note_on_c, 0, 65, 102
1, 30779, Note_on_c, 0, 65, 0
1, 30780, Note_on_c, 0, 56, 0
1, 30780, Note_on_c, 0, 59, 102
1, 30780, Note_on_c, 0, 53, 102
1, 30864, Note_on_c, 0, 68, 0
1, 30881, Note_on_c, 0, 68, 100
1, 30983, Note_on_c, 0, 68, 0
1, 30983, Note_on_c, 0, 67, 102
1, 31082, Note_on_c, 0, 67, 0
1, 31083, Note_on_c, 0, 65, 102
1, 31182, Note_on_c, 0, 65, 0
1, 31183, Note_on_c, 0, 53, 0
1, 31183, Note_on_c, 0, 59, 0
1, 31184, Note_on_c, 0, 64, 102
1, 31184, Note_on_c, 0, 55, 102
1, 31283, Note_on_c, 0, 60, 102
1, 31382, Note_on_c, 0, 60, 0
1, 31382, Note_on_c, 0, 58, 102
1, 31482, Note_on_c, 0, 58, 0
1, 31482, Note_on_c, 0, 61, 102
1, 31581, Note_on_c, 0, 61, 0
1, 31581, Note_on_c, 0, 55, 0
1, 31582, Note_on_c, 0, 52, 102
1, 31582, Note_on_c, 0, 55, 102
1, 31681, Note_on_c, 0, 55, 0
1, 31681, Note_on_c, 0, 61, 102
1, 31782, Note_on_c, 0, 61, 0
1, 31782, Note_on_c, 0, 60, 102
1, 31884, Note_on_c, 0, 60, 0
1, 31885, Note_on_c, 0, 58, 102
1, 31989, Note_on_c, 0, 58, 0
1, 31990, Note_on_c, 0, 52, 0
1, 31990, Note_on_c, 0, 64, 0
1, 31991, Note_on_c, 0, 53, 102
1, 31991, Note_on_c, 0, 56, 102
1, 32090, Note_on_c, 0, 72, 100
1, 32191, Note_on_c, 0, 72, 0
1, 32191, Note_on_c, 0, 70, 100
1, 32292, Note_on_c, 0, 70, 0
1, 32292, Note_on_c, 0, 73, 100
1, 32390, Note_on_c, 0, 73, 0
1, 32391, Note_on_c, 0, 56, 0
1, 32391, Note_on_c, 0, 53, 0
1, 32392, Note_on_c, 0, 58, 102
1, 32392, Note_on_c, 0, 64, 102
1, 32393, Note_on_c, 0, 55, 102
1, 32491, Note_on_c, 0, 64, 0
1, 32492, Note_on_c, 0, 73, 100
1, 32593, Note_on_c, 0, 73, 0
1, 32593, Note_on_c, 0, 72, 100
1, 32693, Note_on_c, 0, 72, 0
1, 32693, Note_on_c, 0, 70, 100
1, 32792, Note_on_c, 0, 70, 0
1, 32792, Note_on_c, 0, 55, 0
1, 32793, Note_on_c, 0, 58, 0
1, 32793, Note_on_c, 0, 68, 100
1, 32794, Note_on_c, 0, 56, 102
1, 32794, Note_on_c, 0, 60, 102
1, 32892, Note_on_c, 0, 68, 0
1, 32892, Note_on_c, 0, 79, 98
1, 32993, Note_on_c, 0, 79, 0
1, 32994, Note_on_c, 0, 77, 98
1, 33095, Note_on_c, 0, 77, 0
1, 33096, Note_on_c, 0, 80, 98
1, 33199, Note_on_c, 0, 80, 0
1, 33199, Note_on_c, 0, 56, 0
1, 33200, Note_on_c, 0, 60, 0
1, 33200, Note_on_c, 0, 71, 98
1, 33201, Note_on_c, 0, 53, 102
1, 33201, Note_on_c, 0, 56, 102
1, 33301, Note_on_c, 0, 71, 0
1, 33302, Note_on_c, 0, 80, 98
1, 33404, Note_on_c, 0, 80, 0
1, 33405, Note_on_c, 0, 79, 98
1, 33506, Note_on_c, 0, 79, 0
1, 33506, Note_on_c, 0, 77, 98
1, 33606, Note_on_c, 0, 77, 0
1, 33606, Note_on_c, 0, 53, 0
1, 33607, Note_on_c, 0, 56, 0
1, 33607, Note_on_c, 0, 76, 98
1, 33608, Note_on_c, 0, 55, 102
1, 33608, Note_on_c, 0, 58, 102
1, 33706, Note_on_c, 0, 76, 0
1, 33706, Note_on_c, 0, 77, 98
1, 33807, Note_on_c, 0, 77, 0
1, 33808, Note_on_c, 0, 79, 98
1, 33909, Note_on_c, 0, 79, 0
1, 33910, Note_on_c, 0, 76, 98
1, 34010, Note_on_c, 0, 76, 0
1, 34010, Note_on_c, 0, 55, 0
1, 34011, Note_on_c, 0, 58, 0
1, 34011, Note_on_c, 0, 82, 98
1, 34012, Note_on_c, 0, 52, 102
1, 34012, Note_on_c, 0, 55, 102
1, 34112, Note_on_c, 0, 82, 0
1, 34113, Note_on_c, 0, 73, 98
1, 34212, Note_on_c, 0, 73, 0
1, 34213, Note_on_c, 0, 72, 98
1, 34313, Note_on_c, 0, 72, 0
1, 34313, Note_on_c, 0, 70, 98
1, 34410, Note_on_c, 0, 70, 0
1, 34410, Note_on_c, 0, 55, 0
1, 34410, Note_on_c, 0, 52, 0
1, 34411, Note_on_c, 0, 68, 98
1, 34411, Note_on_c, 0, 53, 102
1, 34412, Note_on_c, 0, 60, 102
1, 34508, Note_on_c, 0, 68, 0
1, 34508, Note_on_c, 0, 70, 98
1, 34608, Note_on_c, 0, 70, 0
1, 34609, Note_on_c, 0, 72, 98
1, 34709, Note_on_c, 0, 72, 0
1, 34710, Note_on_c, 0, 65, 102
1, 34810, Note_on_c, 0, 65, 0
1, 34811, Note_on_c, 0, 60, 0
1, 34811, Note_on_c, 0, 74, 98
1, 34812, Note_on_c, 0, 59, 102
1, 34908, Note_on_c, 0, 74, 0
1, 34908, Note_on_c, 0, 68, 98
1, 35007, Note_on_c, 0, 68, 0
1, 35007, Note_on_c, 0, 67, 102
1, 35108, Note_on_c, 0, 67, 0
1, 35108, Note_on_c, 0, 65, 102
1, 35208, Note_on_c, 0, 65, 0
1, 35209, Note_on_c, 0, 59, 0
1, 35209, Note_on_c, 0, 53, 0
1, 35210, Note_on_c, 0, 64, 102
1, 35210, Note_on_c, 0, 55, 102
1, 35310, Note_on_c, 0, 60, 102
1, 35384, Note_on_c, 0, 55, 0
1, 35411, Note_on_c, 0, 60, 0
1, 35412, Note_on_c, 0, 55, 102
1, 35516, Note_on_c, 0, 55, 0
1, 35516, Note_on_c, 0, 58, 102
1, 35620, Note_on_c, 0, 58, 0
1, 35621, Note_on_c, 0, 64, 0
1, 35621, Note_on_c, 0, 48, 0
1, 35622, Note_on_c, 0, 65, 102
1, 35622, Note_on_c, 0, 56, 102
1, 35728, Note_on_c, 0, 53, 102
1, 35835, Note_on_c, 0, 53, 0
1, 35836, Note_on_c, 0, 47, 102
1, 35948, Note_on_c, 0, 47, 0
1, 35948, Note_on_c, 0, 50, 102
1, 36060, Note_on_c, 0, 50, 0
1, 36060, Note_on_c, 0, 56, 0
1, 36061, Note_on_c, 0, 55, 102
1, 36061, Note_on_c, 0, 36, 102
1, 36176, Note_on_c, 0, 62, 102
1, 36293, Note_on_c, 0, 62, 0
1, 36293, Note_on_c, 0, 55, 0
1, 36294, Note_on_c, 0, 53, 102
1, 36294, Note_on_c, 0, 59, 102
1, 36415, Note_on_c, 0, 59, 0
1, 36416, Note_on_c, 0, 60, 102
1, 36540, Note_on_c, 0, 60, 0
1, 36540, Note_on_c, 0, 53, 0
1, 36540, Note_on_c, 0, 65, 0
1, 36540, Note_on_c, 0, 55, 102
1, 36700, Note_on_c, 0, 58, 102
1, 36860, Note_on_c, 0, 60, 102
1, 37065, Note_on_c, 0, 64, 102
1, 37297, Note_on_c, 0, 64, 0
1, 37297, Note_on_c, 0, 60, 0
1, 37298, Note_on_c, 0, 58, 0
1, 37298, Note_on_c, 0, 55, 0
1, 37299, Note_on_c, 0, 36, 0
1, 37299, Note_on_c, 0, 60, 66
1, 37300, Note_on_c, 0, 57, 66
1, 37300, Note_on_c, 0, 53, 66
1, 37301, Note_on_c, 0, 65, 66
1, 37301, Note_on_c, 0, 41, 97
1, 39490, Note_on_c, 0, 41, 0
1, 39491, Note_on_c, 0, 53, 0
1, 39491, Note_on_c, 0, 65, 0
1, 39491, Note_on_c, 0, 57, 0
1, 39492, Note_on_c, 0, 60, 0
1, 39972, Marker_t, "Copyright 1997 (P) S.D.Rodrian -  NOT to be reproduced or sold sans permission !"
1, 40318, Note_on_c, 0, 60, 102
1, 40714, Note_on_c, 0, 60, 0
1, 40715, Note_on_c, 0, 61, 102
1, 41109, Note_on_c, 0, 61, 0
1, 41110, Note_on_c, 0, 60, 102
1, 41493, Note_on_c, 0, 60, 0
1, 41494, Note_on_c, 0, 59, 102
1, 41877, Note_on_c, 0, 59, 0
1, 41878, Note_on_c, 0, 64, 102
1, 42256, Note_on_c, 0, 64, 0
1, 42257, Note_on_c, 0, 65, 102
1, 42636, Note_on_c, 0, 65, 0
1, 42636, Note_on_c, 0, 58, 102
1, 43015, Note_on_c, 0, 58, 0
1, 43015, Note_on_c, 0, 57, 102
1, 43389, Note_on_c, 0, 57, 0
1, 43389, Note_on_c, 0, 56, 102
1, 43764, Note_on_c, 0, 56, 0
1, 43764, Note_on_c, 0, 55, 102
1, 44504, Note_on_c, 0, 55, 0
1, 44505, Note_on_c, 0, 53, 102
1, 44683, Note_on_c, 0, 53, 0
1, 44683, Note_on_c, 0, 53, 102
1, 44774, Note_on_c, 0, 53, 0
1, 44774, Note_on_c, 0, 55, 102
1, 44808, Marker_t, "This file may be freely distributed on the WWW, as long as it's not modified. SDR"
1, 44865, Note_on_c, 0, 55, 0
1, 44866, Note_on_c, 0, 65, 102
1, 44866, Note_on_c, 0, 56, 102
1, 45045, Note_on_c, 0, 56, 0
1, 45045, Note_on_c, 0, 56, 102
1, 45133, Note_on_c, 0, 56, 0
1, 45133, Note_on_c, 0, 58, 102
1, 45222, Note_on_c, 0, 58, 0
1, 45223, Note_on_c, 0, 65, 0
1, 45223, Note_on_c, 0, 68, 100
1, 45224, Note_on_c, 0, 60, 102
1, 45311, Note_on_c, 0, 60, 0
1, 45311, Note_on_c, 0, 47, 102
1, 45399, Note_on_c, 0, 47, 0
1, 45399, Note_on_c, 0, 48, 102
1, 45486, Note_on_c, 0, 48, 0
1, 45487, Note_on_c, 0, 50, 102
1, 45575, Note_on_c, 0, 50, 0
1, 45575, Note_on_c, 0, 68, 0
1, 45576, Note_on_c, 0, 67, 102
1, 45576, Note_on_c, 0, 51, 102
1, 45925, Note_on_c, 0, 67, 0
1, 45926, Note_on_c, 0, 51, 0
1, 45926, Note_on_c, 0, 66, 102
1, 46014, Note_on_c, 0, 48, 102
1, 46101, Note_on_c, 0, 48, 0
1, 46102, Note_on_c, 0, 50, 102
1, 46189, Note_on_c, 0, 50, 0
1, 46189, Note_on_c, 0, 51, 102
1, 46277, Note_on_c, 0, 51, 0
1, 46277, Note_on_c, 0, 66, 0
1, 46278, Note_on_c, 0, 71, 100
1, 46278, Note_on_c, 0, 53, 102
1, 46626, Note_on_c, 0, 53, 0
1, 46627, Note_on_c, 0, 71, 0
1, 46627, Note_on_c, 0, 72, 100
1, 46714, Note_on_c, 0, 51, 102
1, 46802, Note_on_c, 0, 51, 0
1, 46802, Note_on_c, 0, 53, 102
1, 46889, Note_on_c, 0, 53, 0
1, 46890, Note_on_c, 0, 55, 102
1, 46976, Note_on_c, 0, 55, 0
1, 46976, Note_on_c, 0, 72, 0
1, 46977, Note_on_c, 0, 65, 102
1, 46977, Note_on_c, 0, 56, 102
1, 47323, Note_on_c, 0, 65, 0
1, 47324, Note_on_c, 0, 56, 0
1, 47324, Note_on_c, 0, 64, 102
1, 47412, Note_on_c, 0, 55, 102
1, 47501, Note_on_c, 0, 55, 0
1, 47501, Note_on_c, 0, 57, 102
1, 47589, Note_on_c, 0, 57, 0
1, 47590, Note_on_c, 0, 59, 102
1, 47678, Note_on_c, 0, 59, 0
1, 47679, Note_on_c, 0, 64, 0
1, 47679, Note_on_c, 0, 60, 102
1, 47680, Note_on_c, 0, 63, 102
1, 48034, Note_on_c, 0, 63, 0
1, 48034, Note_on_c, 0, 62, 102
1, 48212, Note_on_c, 0, 60, 0
1, 48212, Note_on_c, 0, 59, 102
1, 48301, Note_on_c, 0, 59, 0
1, 48301, Note_on_c, 0, 57, 102
1, 48390, Note_on_c, 0, 57, 0
1, 48390, Note_on_c, 0, 60, 102
1, 48422, Note_on_c, 0, 60, 0
1, 48423, Note_on_c, 0, 59, 102
1, 48455, Note_on_c, 0, 60, 102
1, 48461, Note_on_c, 0, 59, 0
1, 48488, Note_on_c, 0, 59, 102
1, 48494, Note_on_c, 0, 60, 0
1, 48519, Note_on_c, 0, 60, 102
1, 48526, Note_on_c, 0, 59, 0
1, 48552, Note_on_c, 0, 60, 0
1, 48553, Note_on_c, 0, 59, 102
1, 48745, Note_on_c, 0, 59, 0
1, 48746, Note_on_c, 0, 62, 0
1, 48746, Note_on_c, 0, 60, 102
1, 48923, Note_on_c, 0, 60, 0
1, 48924, Note_on_c, 0, 60, 102
1, 48924, Note_on_c, 0, 55, 102
1, 49012, Note_on_c, 0, 60, 0
1, 49013, Note_on_c, 0, 62, 102
1, 49101, Note_on_c, 0, 62, 0
1, 49101, Note_on_c, 0, 55, 0
1, 49102, Note_on_c, 0, 60, 102
1, 49102, Note_on_c, 0, 64, 102
1, 49103, Note_on_c, 0, 48, 102
1, 49279, Note_on_c, 0, 60, 0
1, 49280, Note_on_c, 0, 64, 0
1, 49280, Note_on_c, 0, 58, 102
1, 49281, Note_on_c, 0, 62, 102
1, 49368, Note_on_c, 0, 62, 0
1, 49368, Note_on_c, 0, 64, 102
1, 49457, Note_on_c, 0, 64, 0
1, 49457, Note_on_c, 0, 58, 0
1, 49458, Note_on_c, 0, 48, 0
1, 49458, Note_on_c, 0, 49, 102
1, 49459, Note_on_c, 0, 65, 102
1, 49459, Note_on_c, 0, 56, 102
1, 49545, Note_on_c, 0, 65, 0
1, 49546, Note_on_c, 0, 52, 102
1, 49572, Marker_t, "SDRodrian@aol.com  626 Lalor Trenton NJ 08611 http://members.aol.com/sdrodrian"
1, 49634, Note_on_c, 0, 52, 0
1, 49635, Note_on_c, 0, 56, 0
1, 49635, Note_on_c, 0, 65, 102
1, 49636, Note_on_c, 0, 53, 102
1, 49724, Note_on_c, 0, 53, 0
1, 49724, Note_on_c, 0, 55, 102
1, 49812, Note_on_c, 0, 55, 0
1, 49812, Note_on_c, 0, 49, 0
1, 49813, Note_on_c, 0, 56, 102
1, 49813, Note_on_c, 0, 48, 102
1, 49990, Note_on_c, 0, 65, 0
1, 49990, Note_on_c, 0, 63, 102
1, 50168, Note_on_c, 0, 63, 0
1, 50169, Note_on_c, 0, 48, 0
1, 50169, Note_on_c, 0, 56, 0
1, 50170, Note_on_c, 0, 62, 102
1, 50170, Note_on_c, 0, 47, 102
1, 50256, Note_on_c, 0, 53, 102
1, 50344, Note_on_c, 0, 53, 0
1, 50344, Note_on_c, 0, 62, 0
1, 50345, Note_on_c, 0, 63, 102
1, 50345, Note_on_c, 0, 55, 102
1, 50431, Note_on_c, 0, 63, 0
1, 50432, Note_on_c, 0, 55, 0
1, 50432, Note_on_c, 0, 56, 102
1, 50433, Note_on_c, 0, 65, 102
1, 50520, Note_on_c, 0, 65, 0
1, 50520, Note_on_c, 0, 56, 0
1, 50520, Note_on_c, 0, 47, 0
1, 50521, Note_on_c, 0, 52, 102
1, 50521, Note_on_c, 0, 67, 102
1, 50522, Note_on_c, 0, 58, 102
1, 50607, Note_on_c, 0, 67, 0
1, 50607, Note_on_c, 0, 65, 102
1, 50696, Note_on_c, 0, 65, 0
1, 50696, Note_on_c, 0, 64, 102
1, 50785, Note_on_c, 0, 64, 0
1, 50785, Note_on_c, 0, 62, 102
1, 50873, Note_on_c, 0, 62, 0
1, 50874, Note_on_c, 0, 58, 0
1, 50874, Note_on_c, 0, 52, 0
1, 50874, Note_on_c, 0, 53, 102
1, 50875, Note_on_c, 0, 60, 102
1, 50962, Note_on_c, 0, 56, 102
1, 51052, Note_on_c, 0, 56, 0
1, 51052, Note_on_c, 0, 58, 102
1, 51140, Note_on_c, 0, 58, 0
1, 51141, Note_on_c, 0, 60, 102
1, 51229, Note_on_c, 0, 60, 0
1, 51230, Note_on_c, 0, 60, 0
1, 51230, Note_on_c, 0, 53, 0
1, 51231, Note_on_c, 0, 61, 102
1, 51231, Note_on_c, 0, 46, 102
1, 51318, Note_on_c, 0, 58, 102
1, 51405, Note_on_c, 0, 58, 0
1, 51406, Note_on_c, 0, 56, 102
1, 51493, Note_on_c, 0, 56, 0
1, 51494, Note_on_c, 0, 55, 102
1, 51581, Note_on_c, 0, 55, 0
1, 51581, Note_on_c, 0, 46, 0
1, 51582, Note_on_c, 0, 61, 0
1, 51582, Note_on_c, 0, 53, 102
1, 51583, Note_on_c, 0, 45, 102
1, 51669, Note_on_c, 0, 60, 102
1, 51757, Note_on_c, 0, 60, 0
1, 51758, Note_on_c, 0, 62, 102
1, 51845, Note_on_c, 0, 62, 0
1, 51845, Note_on_c, 0, 64, 102
1, 51933, Note_on_c, 0, 64, 0
1, 51933, Note_on_c, 0, 45, 0
1, 51934, Note_on_c, 0, 53, 0
1, 51934, Note_on_c, 0, 65, 102
1, 51935, Note_on_c, 0, 44, 102
1, 52020, Note_on_c, 0, 53, 102
1, 52108, Note_on_c, 0, 53, 0
1, 52108, Note_on_c, 0, 55, 102
1, 52197, Note_on_c, 0, 55, 0
1, 52197, Note_on_c, 0, 56, 102
1, 52284, Note_on_c, 0, 56, 0
1, 52284, Note_on_c, 0, 44, 0
1, 52284, Note_on_c, 0, 58, 102
1, 52285, Note_on_c, 0, 43, 102
1, 52459, Note_on_c, 0, 65, 0
1, 52460, Note_on_c, 0, 64, 102
1, 52548, Note_on_c, 0, 64, 0
1, 52548, Note_on_c, 0, 62, 102
1, 52635, Note_on_c, 0, 62, 0
1, 52635, Note_on_c, 0, 64, 102
1, 52811, Note_on_c, 0, 58, 0
1, 52811, Note_on_c, 0, 56, 102
1, 52899, Note_on_c, 0, 56, 0
1, 52899, Note_on_c, 0, 55, 102
1, 52986, Note_on_c, 0, 55, 0
1, 52987, Note_on_c, 0, 64, 0
1, 52988, Note_on_c, 0, 43, 0
1, 52988, Note_on_c, 0, 56, 102
1, 52988, Note_on_c, 0, 65, 102
1, 52989, Note_on_c, 0, 41, 102
1, 53164, Note_on_c, 0, 65, 0
1, 53164, Note_on_c, 0, 65, 102
1, 53254, Note_on_c, 0, 65, 0
1, 53254, Note_on_c, 0, 67, 102
1, 53343, Note_on_c, 0, 67, 0
1, 53343, Note_on_c, 0, 41, 0
1, 53344, Note_on_c, 0, 56, 0
1, 53344, Note_on_c, 0, 68, 102
1, 53520, Note_on_c, 0, 68, 0
1, 53520, Note_on_c, 0, 68, 102
1, 53520, Note_on_c, 0, 53, 102
1, 53607, Note_on_c, 0, 53, 0
1, 53607, Note_on_c, 0, 68, 0
1, 53608, Note_on_c, 0, 70, 102
1, 53608, Note_on_c, 0, 55, 102
1, 53695, Note_on_c, 0, 55, 0
1, 53696, Note_on_c, 0, 70, 0
1, 53696, Note_on_c, 0, 72, 102
1, 53697, Note_on_c, 0, 56, 102
1, 53871, Note_on_c, 0, 56, 0
1, 53871, Note_on_c, 0, 56, 102
1, 53872, Note_on_c, 0, 60, 102
1, 53958, Note_on_c, 0, 60, 0
1, 53959, Note_on_c, 0, 56, 0
1, 53959, Note_on_c, 0, 58, 102
1, 53960, Note_on_c, 0, 61, 102
1, 54046, Note_on_c, 0, 61, 0
1, 54046, Note_on_c, 0, 58, 0
1, 54047, Note_on_c, 0, 63, 102
1, 54047, Note_on_c, 0, 60, 102
1, 54134, Note_on_c, 0, 72, 0
1, 54134, Note_on_c, 0, 70, 102
1, 54221, Note_on_c, 0, 70, 0
1, 54222, Note_on_c, 0, 60, 0
1, 54222, Note_on_c, 0, 68, 102
1, 54223, Note_on_c, 0, 48, 102
1, 54311, Note_on_c, 0, 68, 0
1, 54311, Note_on_c, 0, 66, 102
1, 54400, Note_on_c, 0, 66, 0
1, 54400, Note_on_c, 0, 48, 0
1, 54401, Note_on_c, 0, 49, 102
1, 54401, Note_on_c, 0, 65, 102
1, 54577, Note_on_c, 0, 63, 0
1, 54578, Note_on_c, 0, 61, 102
1, 54636, Marker_t, "1121 Deutz Ave Trenton NJ 08611 http://www.geocities.com/Paris/LeftBank/3214"
1, 54666, Note_on_c, 0, 61, 0
1, 54666, Note_on_c, 0, 63, 102
1, 54755, Note_on_c, 0, 63, 0
1, 54756, Note_on_c, 0, 65, 0
1, 54756, Note_on_c, 0, 49, 0
1, 54756, Note_on_c, 0, 65, 102
1, 54933, Note_on_c, 0, 65, 0
1, 54933, Note_on_c, 0, 49, 102
1, 54934, Note_on_c, 0, 65, 102
1, 55022, Note_on_c, 0, 65, 0
1, 55022, Note_on_c, 0, 49, 0
1, 55023, Note_on_c, 0, 51, 102
1, 55023, Note_on_c, 0, 67, 102
1, 55109, Note_on_c, 0, 67, 0
1, 55110, Note_on_c, 0, 51, 0
1, 55110, Note_on_c, 0, 68, 102
1, 55111, Note_on_c, 0, 53, 102
1, 55285, Note_on_c, 0, 53, 0
1, 55286, Note_on_c, 0, 53, 102
1, 55286, Note_on_c, 0, 56, 102
1, 55372, Note_on_c, 0, 56, 0
1, 55373, Note_on_c, 0, 53, 0
1, 55374, Note_on_c, 0, 58, 102
1, 55374, Note_on_c, 0, 55, 102
1, 55461, Note_on_c, 0, 58, 0
1, 55462, Note_on_c, 0, 55, 0
1, 55462, Note_on_c, 0, 60, 102
1, 55462, Note_on_c, 0, 56, 102
1, 55548, Note_on_c, 0, 68, 0
1, 55548, Note_on_c, 0, 66, 102
1, 55637, Note_on_c, 0, 66, 0
1, 55637, Note_on_c, 0, 56, 0
1, 55637, Note_on_c, 0, 65, 102
1, 55638, Note_on_c, 0, 44, 102
1, 55724, Note_on_c, 0, 65, 0
1, 55725, Note_on_c, 0, 63, 102
1, 55812, Note_on_c, 0, 63, 0
1, 55813, Note_on_c, 0, 44, 0
1, 55813, Note_on_c, 0, 61, 102
1, 55814, Note_on_c, 0, 46, 102
1, 55990, Note_on_c, 0, 60, 0
1, 55991, Note_on_c, 0, 58, 102
1, 56078, Note_on_c, 0, 58, 0
1, 56079, Note_on_c, 0, 60, 102
1, 56168, Note_on_c, 0, 60, 0
1, 56168, Note_on_c, 0, 46, 0
1, 56169, Note_on_c, 0, 61, 0
1, 56169, Note_on_c, 0, 61, 102
1, 56345, Note_on_c, 0, 61, 0
1, 56346, Note_on_c, 0, 61, 102
1, 56346, Note_on_c, 0, 46, 102
1, 56435, Note_on_c, 0, 46, 0
1, 56435, Note_on_c, 0, 61, 0
1, 56436, Note_on_c, 0, 63, 102
1, 56436, Note_on_c, 0, 48, 102
1, 56524, Note_on_c, 0, 48, 0
1, 56524, Note_on_c, 0, 63, 0
1, 56525, Note_on_c, 0, 65, 102
1, 56525, Note_on_c, 0, 49, 102
1, 56701, Note_on_c, 0, 49, 0
1, 56702, Note_on_c, 0, 49, 102
1, 56702, Note_on_c, 0, 53, 102
1, 56791, Note_on_c, 0, 53, 0
1, 56791, Note_on_c, 0, 49, 0
1, 56792, Note_on_c, 0, 51, 102
1, 56792, Note_on_c, 0, 55, 102
1, 56879, Note_on_c, 0, 55, 0
1, 56880, Note_on_c, 0, 51, 0
1, 56880, Note_on_c, 0, 53, 102
1, 56880, Note_on_c, 0, 56, 102
1, 57057, Note_on_c, 0, 56, 0
1, 57057, Note_on_c, 0, 53, 0
1, 57058, Note_on_c, 0, 56, 102
1, 57058, Note_on_c, 0, 41, 102
1, 57146, Note_on_c, 0, 56, 0
1, 57146, Note_on_c, 0, 58, 102
1, 57235, Note_on_c, 0, 58, 0
1, 57236, Note_on_c, 0, 41, 0
1, 57236, Note_on_c, 0, 65, 0
1, 57237, Note_on_c, 0, 60, 102
1, 57237, Note_on_c, 0, 48, 102
1, 57413, Note_on_c, 0, 48, 0
1, 57413, Note_on_c, 0, 60, 0
1, 57414, Note_on_c, 0, 64, 102
1, 57414, Note_on_c, 0, 55, 102
1, 57415, Note_on_c, 0, 48, 102
1, 57501, Note_on_c, 0, 48, 0
1, 57502, Note_on_c, 0, 64, 0
1, 57502, Note_on_c, 0, 50, 102
1, 57503, Note_on_c, 0, 65, 102
1, 57591, Note_on_c, 0, 65, 0
1, 57591, Note_on_c, 0, 50, 0
1, 57591, Note_on_c, 0, 55, 0
1, 57592, Note_on_c, 0, 72, 102
1, 57592, Note_on_c, 0, 67, 102
1, 57593, Note_on_c, 0, 52, 102
1, 57593, Note_on_c, 0, 60, 102
1, 57768, Note_on_c, 0, 52, 0
1, 57769, Note_on_c, 0, 60, 0
1, 57769, Note_on_c, 0, 58, 102
1, 57769, Note_on_c, 0, 50, 102
1, 57858, Note_on_c, 0, 50, 0
1, 57858, Note_on_c, 0, 52, 102
1, 57946, Note_on_c, 0, 52, 0
1, 57947, Note_on_c, 0, 58, 0
1, 57947, Note_on_c, 0, 72, 0
1, 57948, Note_on_c, 0, 73, 102
1, 57948, Note_on_c, 0, 56, 102
1, 57948, Note_on_c, 0, 53, 102
1, 58035, Note_on_c, 0, 53, 0
1, 58036, Note_on_c, 0, 56, 0
1, 58036, Note_on_c, 0, 40, 102
1, 58125, Note_on_c, 0, 40, 0
1, 58125, Note_on_c, 0, 67, 0
1, 58126, Note_on_c, 0, 65, 102
1, 58126, Note_on_c, 0, 41, 102
1, 58213, Note_on_c, 0, 41, 0
1, 58213, Note_on_c, 0, 43, 102
1, 58302, Note_on_c, 0, 43, 0
1, 58303, Note_on_c, 0, 73, 0
1, 58303, Note_on_c, 0, 72, 102
1, 58304, Note_on_c, 0, 44, 102
1, 58391, Note_on_c, 0, 48, 102
1, 58480, Note_on_c, 0, 48, 0
1, 58480, Note_on_c, 0, 65, 0
1, 58481, Note_on_c, 0, 63, 102
1, 58481, Note_on_c, 0, 50, 102
1, 58569, Note_on_c, 0, 50, 0
1, 58570, Note_on_c, 0, 51, 102
1, 58657, Note_on_c, 0, 51, 0
1, 58658, Note_on_c, 0, 63, 0
1, 58658, Note_on_c, 0, 44, 0
1, 58659, Note_on_c, 0, 72, 0
1, 58659, Note_on_c, 0, 71, 102
1, 58660, Note_on_c, 0, 53, 102
1, 58660, Note_on_c, 0, 62, 102
1, 58747, Note_on_c, 0, 41, 102
1, 58835, Note_on_c, 0, 41, 0
1, 58836, Note_on_c, 0, 62, 0
1, 58836, Note_on_c, 0, 63, 102
1, 58836, Note_on_c, 0, 43, 102
1, 58924, Note_on_c, 0, 43, 0
1, 58925, Note_on_c, 0, 63, 0
1, 58925, Note_on_c, 0, 65, 102
1, 58926, Note_on_c, 0, 44, 102
1, 59014, Note_on_c, 0, 44, 0
1, 59014, Note_on_c, 0, 65, 0
1, 59015, Note_on_c, 0, 53, 0
1, 59015, Note_on_c, 0, 71, 0
1, 59016, Note_on_c, 0, 76, 102
1, 59016, Note_on_c, 0, 67, 102
1, 59016, Note_on_c, 0, 46, 102
1, 59102, Note_on_c, 0, 67, 0
1, 59102, Note_on_c, 0, 65, 102
1, 59191, Note_on_c, 0, 65, 0
1, 59192, Note_on_c, 0, 64, 102
1, 59192, Note_on_c, 0, 55, 102
1, 59280, Note_on_c, 0, 64, 0
1, 59280, Note_on_c, 0, 62, 102
1, 59369, Note_on_c, 0, 62, 0
1, 59369, Note_on_c, 0, 55, 0
1, 59370, Note_on_c, 0, 46, 0
1, 59370, Note_on_c, 0, 76, 0
1, 59371, Note_on_c, 0, 77, 102
1, 59371, Note_on_c, 0, 60, 102
1, 59372, Note_on_c, 0, 56, 102
1, 59457, Note_on_c, 0, 44, 102
1, 59546, Note_on_c, 0, 44, 0
1, 59547, Note_on_c, 0, 56, 0
1, 59547, Note_on_c, 0, 60, 0
1, 59548, Note_on_c, 0, 46, 102
1, 59636, Note_on_c, 0, 46, 0
1, 59636, Note_on_c, 0, 48, 102
1, 59725, Note_on_c, 0, 48, 0
1, 59725, Note_on_c, 0, 77, 0
1, 59726, Note_on_c, 0, 70, 102
1, 59726, Note_on_c, 0, 49, 102
1, 59813, Note_on_c, 0, 58, 102
1, 59891, Note_on_c, 0, 58, 0
1, 59903, Note_on_c, 0, 58, 102
1, 59903, Note_on_c, 0, 56, 102
1, 59992, Note_on_c, 0, 56, 0
1, 59992, Note_on_c, 0, 55, 102
1, 60081, Note_on_c, 0, 55, 0
1, 60081, Note_on_c, 0, 58, 0
1, 60082, Note_on_c, 0, 49, 0
1, 60082, Note_on_c, 0, 70, 0
1, 60082, Note_on_c, 0, 69, 102
1, 60083, Note_on_c, 0, 60, 102
1, 60083, Note_on_c, 0, 53, 102
1, 60170, Note_on_c, 0, 48, 102
1, 60258, Note_on_c, 0, 48, 0
1, 60258, Note_on_c, 0, 50, 102
1, 60348, Note_on_c, 0, 50, 0
1, 60348, Note_on_c, 0, 52, 102
1, 60424, Note_on_c, 0, 53, 0
1, 60436, Note_on_c, 0, 52, 0
1, 60436, Note_on_c, 0, 60, 0
1, 60437, Note_on_c, 0, 69, 0
1, 60437, Note_on_c, 0, 68, 102
1, 60438, Note_on_c, 0, 53, 102
1, 60513, Note_on_c, 0, 53, 0
1, 60525, Note_on_c, 0, 53, 102
1, 60614, Note_on_c, 0, 53, 0
1, 60615, Note_on_c, 0, 60, 102
1, 60615, Note_on_c, 0, 55, 102
1, 60703, Note_on_c, 0, 55, 0
1, 60703, Note_on_c, 0, 56, 102
1, 60792, Note_on_c, 0, 56, 0
1, 60792, Note_on_c, 0, 60, 0
1, 60793, Note_on_c, 0, 68, 0
1, 60793, Note_on_c, 0, 58, 102
1, 60794, Note_on_c, 0, 67, 102
1, 60794, Note_on_c, 0, 61, 102
1, 60970, Note_on_c, 0, 61, 0
1, 60970, Note_on_c, 0, 52, 102
1, 60971, Note_on_c, 0, 60, 102
1, 61059, Note_on_c, 0, 60, 0
1, 61059, Note_on_c, 0, 52, 0
1, 61060, Note_on_c, 0, 58, 102
1, 61060, Note_on_c, 0, 50, 102
1, 61147, Note_on_c, 0, 58, 0
1, 61148, Note_on_c, 0, 50, 0
1, 61148, Note_on_c, 0, 60, 102
1, 61149, Note_on_c, 0, 52, 102
1, 61325, Note_on_c, 0, 58, 0
1, 61325, Note_on_c, 0, 56, 102
1, 61414, Note_on_c, 0, 56, 0
1, 61415, Note_on_c, 0, 55, 102
1, 61503, Note_on_c, 0, 55, 0
1, 61504, Note_on_c, 0, 52, 0
1, 61504, Note_on_c, 0, 56, 102
1, 61505, Note_on_c, 0, 53, 102
1, 61681, Note_on_c, 0, 67, 0
1, 61681, Note_on_c, 0, 65, 102
1, 61769, Note_on_c, 0, 65, 0
1, 61770, Note_on_c, 0, 67, 102
1, 61859, Note_on_c, 0, 67, 0
1, 61859, Note_on_c, 0, 53, 0
1, 61860, Note_on_c, 0, 56, 0
1, 61860, Note_on_c, 0, 60, 0
1, 61860, Note_on_c, 0, 68, 102
1, 62036, Note_on_c, 0, 53, 102
1, 62125, Note_on_c, 0, 53, 0
1, 62126, Note_on_c, 0, 51, 102
1, 62214, Note_on_c, 0, 51, 0
1, 62214, Note_on_c, 0, 50, 102
1, 62393, Note_on_c, 0, 50, 0
1, 62393, Note_on_c, 0, 65, 102
1, 62393, Note_on_c, 0, 50, 102
1, 62481, Note_on_c, 0, 65, 0
1, 62482, Note_on_c, 0, 50, 0
1, 62482, Note_on_c, 0, 63, 102
1, 62482, Note_on_c, 0, 48, 102
1, 62570, Note_on_c, 0, 48, 0
1, 62571, Note_on_c, 0, 63, 0
1, 62571, Note_on_c, 0, 62, 102
1, 62571, Note_on_c, 0, 46, 102
1, 62748, Note_on_c, 0, 46, 0
1, 62748, Note_on_c, 0, 62, 0
1, 62748, Note_on_c, 0, 62, 102
1, 62749, Note_on_c, 0, 48, 102
1, 62837, Note_on_c, 0, 48, 0
1, 62838, Note_on_c, 0, 62, 0
1, 62838, Note_on_c, 0, 50, 102
1, 62839, Note_on_c, 0, 60, 102
1, 62927, Note_on_c, 0, 60, 0
1, 62927, Note_on_c, 0, 50, 0
1, 62928, Note_on_c, 0, 51, 102
1, 62928, Note_on_c, 0, 58, 102
1, 63105, Note_on_c, 0, 58, 0
1, 63106, Note_on_c, 0, 68, 0
1, 63106, Note_on_c, 0, 67, 102
1, 63107, Note_on_c, 0, 58, 102
1, 63194, Note_on_c, 0, 58, 0
1, 63195, Note_on_c, 0, 67, 0
1, 63195, Note_on_c, 0, 68, 102
1, 63196, Note_on_c, 0, 56, 102
1, 63284, Note_on_c, 0, 56, 0
1, 63284, Note_on_c, 0, 68, 0
1, 63285, Note_on_c, 0, 51, 0
1, 63285, Note_on_c, 0, 70, 102
1, 63286, Note_on_c, 0, 55, 102
1, 63445, Note_on_c, 0, 55, 0
1, 63462, Note_on_c, 0, 55, 102
1, 63552, Note_on_c, 0, 55, 0
1, 63552, Note_on_c, 0, 53, 102
1, 63641, Note_on_c, 0, 53, 0
1, 63641, Note_on_c, 0, 52, 102
1, 63818, Note_on_c, 0, 52, 0
1, 63819, Note_on_c, 0, 67, 102
1, 63819, Note_on_c, 0, 52, 102
1, 63907, Note_on_c, 0, 52, 0
1, 63907, Note_on_c, 0, 67, 0
1, 63908, Note_on_c, 0, 50, 102
1, 63908, Note_on_c, 0, 65, 102
1, 63996, Note_on_c, 0, 65, 0
1, 63996, Note_on_c, 0, 50, 0
1, 63997, Note_on_c, 0, 64, 102
1, 63997, Note_on_c, 0, 48, 102
1, 64174, Note_on_c, 0, 48, 0
1, 64174, Note_on_c, 0, 64, 0
1, 64175, Note_on_c, 0, 50, 102
1, 64175, Note_on_c, 0, 64, 102
1, 64263, Note_on_c, 0, 64, 0
1, 64263, Note_on_c, 0, 50, 0
1, 64264, Note_on_c, 0, 62, 102
1, 64264, Note_on_c, 0, 52, 102
1, 64351, Note_on_c, 0, 62, 0
1, 64352, Note_on_c, 0, 52, 0
1, 64352, Note_on_c, 0, 60, 102
1, 64353, Note_on_c, 0, 53, 102
1, 64440, Note_on_c, 0, 70, 0
1, 64441, Note_on_c, 0, 67, 102
1, 64529, Note_on_c, 0, 67, 0
1, 64529, Note_on_c, 0, 60, 0
1, 64530, Note_on_c, 0, 68, 102
1, 64530, Note_on_c, 0, 60, 102
1, 64619, Note_on_c, 0, 60, 0
1, 64619, Note_on_c, 0, 68, 0
1, 64620, Note_on_c, 0, 72, 102
1, 64620, Note_on_c, 0, 58, 102
1, 64708, Note_on_c, 0, 58, 0
1, 64708, Note_on_c, 0, 72, 0
1, 64708, Note_on_c, 0, 53, 0
1, 64709, Note_on_c, 0, 77, 102
1, 64709, Note_on_c, 0, 56, 102
1, 64885, Note_on_c, 0, 50, 102
1, 64974, Note_on_c, 0, 50, 0
1, 64974, Note_on_c, 0, 48, 102
1, 65063, Note_on_c, 0, 48, 0
1, 65064, Note_on_c, 0, 56, 0
1, 65064, Note_on_c, 0, 47, 102
1, 65241, Note_on_c, 0, 47, 0
1, 65241, Note_on_c, 0, 74, 102
1, 65242, Note_on_c, 0, 47, 102
1, 65330, Note_on_c, 0, 47, 0
1, 65330, Note_on_c, 0, 74, 0
1, 65331, Note_on_c, 0, 72, 102
1, 65331, Note_on_c, 0, 45, 102
1, 65418, Note_on_c, 0, 45, 0
1, 65419, Note_on_c, 0, 72, 0
1, 65419, Note_on_c, 0, 71, 102
1, 65420, Note_on_c, 0, 43, 102
1, 65597, Note_on_c, 0, 43, 0
1, 65597, Note_on_c, 0, 71, 0
1, 65598, Note_on_c, 0, 71, 102
1, 65598, Note_on_c, 0, 45, 102
1, 65685, Note_on_c, 0, 45, 0
1, 65686, Note_on_c, 0, 71, 0
1, 65686, Note_on_c, 0, 69, 102
1, 65687, Note_on_c, 0, 47, 102
1, 65774, Note_on_c, 0, 47, 0
1, 65775, Note_on_c, 0, 69, 0
1, 65775, Note_on_c, 0, 67, 102
1, 65776, Note_on_c, 0, 48, 102
1, 65952, Note_on_c, 0, 67, 0
1, 65952, Note_on_c, 0, 77, 0
1, 65953, Note_on_c, 0, 75, 102
1, 65953, Note_on_c, 0, 67, 102
1, 66041, Note_on_c, 0, 67, 0
1, 66042, Note_on_c, 0, 69, 102
1, 66131, Note_on_c, 0, 69, 0
1, 66131, Note_on_c, 0, 75, 0
1, 66132, Note_on_c, 0, 48, 0
1, 66132, Note_on_c, 0, 71, 102
1, 66132, Note_on_c, 0, 74, 102
1, 66133, Note_on_c, 0, 55, 102
1, 66308, Note_on_c, 0, 71, 0
1, 66309, Note_on_c, 0, 74, 0
1, 66309, Note_on_c, 0, 79, 102
1, 66310, Note_on_c, 0, 69, 102
1, 66396, Note_on_c, 0, 69, 0
1, 66397, Note_on_c, 0, 71, 102
1, 66487, Note_on_c, 0, 71, 0
1, 66487, Note_on_c, 0, 55, 0
1, 66488, Note_on_c, 0, 72, 102
1, 66488, Note_on_c, 0, 56, 102
1, 66577, Note_on_c, 0, 79, 0
1, 66577, Note_on_c, 0, 71, 102
1, 66666, Note_on_c, 0, 71, 0
1, 66667, Note_on_c, 0, 72, 102
1, 66756, Note_on_c, 0, 72, 0
1, 66757, Note_on_c, 0, 74, 102
1, 66847, Note_on_c, 0, 74, 0
1, 66847, Note_on_c, 0, 56, 0
1, 66848, Note_on_c, 0, 75, 102
1, 66848, Note_on_c, 0, 55, 102
1, 67027, Note_on_c, 0, 72, 0
1, 67027, Note_on_c, 0, 70, 102
1, 67207, Note_on_c, 0, 70, 0
1, 67207, Note_on_c, 0, 55, 0
1, 67208, Note_on_c, 0, 75, 0
1, 67209, Note_on_c, 0, 69, 102
1, 67209, Note_on_c, 0, 54, 102
1, 67296, Note_on_c, 0, 72, 102
1, 67385, Note_on_c, 0, 72, 0
1, 67385, Note_on_c, 0, 69, 0
1, 67386, Note_on_c, 0, 71, 102
1, 67386, Note_on_c, 0, 74, 102
1, 67473, Note_on_c, 0, 71, 0
1, 67474, Note_on_c, 0, 74, 0
1, 67474, Note_on_c, 0, 75, 102
1, 67474, Note_on_c, 0, 72, 102
1, 67560, Note_on_c, 0, 72, 0
1, 67561, Note_on_c, 0, 75, 0
1, 67561, Note_on_c, 0, 54, 0
1, 67562, Note_on_c, 0, 77, 102
1, 67562, Note_on_c, 0, 74, 102
1, 67563, Note_on_c, 0, 59, 102
1, 67649, Note_on_c, 0, 74, 0
1, 67649, Note_on_c, 0, 72, 102
1, 67736, Note_on_c, 0, 72, 0
1, 67737, Note_on_c, 0, 71, 102
1, 67824, Note_on_c, 0, 71, 0
1, 67824, Note_on_c, 0, 69, 102
1, 67913, Note_on_c, 0, 69, 0
1, 67913, Note_on_c, 0, 59, 0
1, 67914, Note_on_c, 0, 77, 0
1, 67914, Note_on_c, 0, 60, 102
1, 67915, Note_on_c, 0, 67, 102
1, 68001, Note_on_c, 0, 75, 102
1, 68090, Note_on_c, 0, 75, 0
1, 68091, Note_on_c, 0, 77, 102
1, 68180, Note_on_c, 0, 77, 0
1, 68180, Note_on_c, 0, 79, 102
1, 68268, Note_on_c, 0, 79, 0
1, 68268, Note_on_c, 0, 67, 0
1, 68269, Note_on_c, 0, 60, 0
1, 68269, Note_on_c, 0, 80, 102
1, 68270, Note_on_c, 0, 53, 102
1, 68357, Note_on_c, 0, 65, 102
1, 68446, Note_on_c, 0, 65, 0
1, 68446, Note_on_c, 0, 63, 102
1, 68535, Note_on_c, 0, 63, 0
1, 68535, Note_on_c, 0, 62, 102
1, 68624, Note_on_c, 0, 62, 0
1, 68625, Note_on_c, 0, 53, 0
1, 68625, Note_on_c, 0, 80, 0
1, 68626, Note_on_c, 0, 60, 102
1, 68626, Note_on_c, 0, 52, 102
1, 68712, Note_on_c, 0, 79, 102
1, 68802, Note_on_c, 0, 79, 0
1, 68802, Note_on_c, 0, 81, 99
1, 68890, Note_on_c, 0, 81, 0
1, 68891, Note_on_c, 0, 83, 99
1, 68979, Note_on_c, 0, 83, 0
1, 68980, Note_on_c, 0, 52, 0
1, 68980, Note_on_c, 0, 60, 0
1, 68981, Note_on_c, 0, 84, 99
1, 68981, Note_on_c, 0, 51, 102
1, 69069, Note_on_c, 0, 72, 99
1, 69158, Note_on_c, 0, 72, 0
1, 69158, Note_on_c, 0, 74, 99
1, 69246, Note_on_c, 0, 74, 0
1, 69247, Note_on_c, 0, 76, 99
1, 69336, Note_on_c, 0, 76, 0
1, 69336, Note_on_c, 0, 51, 0
1, 69336, Note_on_c, 0, 77, 99
1, 69337, Note_on_c, 0, 50, 102
1, 69513, Note_on_c, 0, 84, 0
1, 69514, Note_on_c, 0, 83, 99
1, 69603, Note_on_c, 0, 83, 0
1, 69603, Note_on_c, 0, 81, 99
1, 69691, Note_on_c, 0, 81, 0
1, 69692, Note_on_c, 0, 83, 99
1, 69869, Note_on_c, 0, 77, 0
1, 69869, Note_on_c, 0, 75, 99
1, 69958, Note_on_c, 0, 75, 0
1, 69959, Note_on_c, 0, 74, 99
1, 70047, Note_on_c, 0, 74, 0
1, 70048, Note_on_c, 0, 83, 0
1, 70048, Note_on_c, 0, 50, 0
1, 70049, Note_on_c, 0, 75, 99
1, 70049, Note_on_c, 0, 84, 99
1, 70050, Note_on_c, 0, 48, 102
1, 70225, Note_on_c, 0, 84, 0
1, 70225, Note_on_c, 0, 75, 0
1, 70226, Note_on_c, 0, 79, 99
1, 70226, Note_on_c, 0, 72, 99
1, 70313, Note_on_c, 0, 72, 0
1, 70314, Note_on_c, 0, 74, 99
1, 70403, Note_on_c, 0, 74, 0
1, 70403, Note_on_c, 0, 79, 0
1, 70404, Note_on_c, 0, 48, 0
1, 70404, Note_on_c, 0, 75, 99
1, 70404, Note_on_c, 0, 84, 99
1, 70580, Note_on_c, 0, 72, 99
1, 70669, Note_on_c, 0, 72, 0
1, 70670, Note_on_c, 0, 70, 99
1, 70758, Note_on_c, 0, 70, 0
1, 70758, Note_on_c, 0, 69, 99
1, 70935, Note_on_c, 0, 69, 0
1, 70936, Note_on_c, 0, 84, 0
1, 70936, Note_on_c, 0, 84, 99
1, 70937, Note_on_c, 0, 69, 99
1, 71025, Note_on_c, 0, 69, 0
1, 71025, Note_on_c, 0, 84, 0
1, 71026, Note_on_c, 0, 82, 99
1, 71026, Note_on_c, 0, 67, 102
1, 71114, Note_on_c, 0, 67, 0
1, 71114, Note_on_c, 0, 82, 0
1, 71115, Note_on_c, 0, 81, 99
1, 71115, Note_on_c, 0, 65, 102
1, 71292, Note_on_c, 0, 65, 0
1, 71292, Note_on_c, 0, 81, 0
1, 71292, Note_on_c, 0, 81, 99
1, 71293, Note_on_c, 0, 67, 102
1, 71380, Note_on_c, 0, 67, 0
1, 71380, Note_on_c, 0, 81, 0
1, 71381, Note_on_c, 0, 79, 99
1, 71381, Note_on_c, 0, 69, 99
1, 71469, Note_on_c, 0, 69, 0
1, 71470, Note_on_c, 0, 79, 0
1, 71470, Note_on_c, 0, 77, 99
1, 71471, Note_on_c, 0, 70, 99
1, 71649, Note_on_c, 0, 70, 0
1, 71649, Note_on_c, 0, 77, 0
1, 71650, Note_on_c, 0, 75, 0
1, 71650, Note_on_c, 0, 79, 99
1, 71651, Note_on_c, 0, 70, 99
1, 71651, Note_on_c, 0, 58, 102
1, 71739, Note_on_c, 0, 70, 0
1, 71740, Note_on_c, 0, 79, 0
1, 71740, Note_on_c, 0, 81, 99
1, 71741, Note_on_c, 0, 72, 99
1, 71831, Note_on_c, 0, 72, 0
1, 71831, Note_on_c, 0, 81, 0
1, 71831, Note_on_c, 0, 58, 0
1, 71832, Note_on_c, 0, 73, 99
1, 71832, Note_on_c, 0, 82, 99
1, 72008, Note_on_c, 0, 70, 99
1, 72097, Note_on_c, 0, 70, 0
1, 72098, Note_on_c, 0, 68, 99
1, 72186, Note_on_c, 0, 68, 0
1, 72186, Note_on_c, 0, 82, 0
1, 72187, Note_on_c, 0, 67, 102
1, 72351, Note_on_c, 0, 67, 0
1, 72364, Note_on_c, 0, 82, 99
1, 72365, Note_on_c, 0, 67, 102
1, 72453, Note_on_c, 0, 67, 0
1, 72453, Note_on_c, 0, 82, 0
1, 72454, Note_on_c, 0, 80, 99
1, 72454, Note_on_c, 0, 65, 102
1, 72542, Note_on_c, 0, 65, 0
1, 72542, Note_on_c, 0, 80, 0
1, 72543, Note_on_c, 0, 79, 99
1, 72543, Note_on_c, 0, 63, 102
1, 72720, Note_on_c, 0, 63, 0
1, 72720, Note_on_c, 0, 79, 0
1, 72720, Note_on_c, 0, 79, 99
1, 72721, Note_on_c, 0, 65, 102
1, 72809, Note_on_c, 0, 65, 0
1, 72809, Note_on_c, 0, 79, 0
1, 72810, Note_on_c, 0, 77, 99
1, 72810, Note_on_c, 0, 67, 102
1, 72897, Note_on_c, 0, 67, 0
1, 72898, Note_on_c, 0, 77, 0
1, 72898, Note_on_c, 0, 75, 99
1, 72899, Note_on_c, 0, 68, 99
1, 73076, Note_on_c, 0, 68, 0
1, 73076, Note_on_c, 0, 75, 0
1, 73077, Note_on_c, 0, 73, 0
1, 73077, Note_on_c, 0, 77, 99
1, 73078, Note_on_c, 0, 68, 99
1, 73078, Note_on_c, 0, 56, 102
1, 73164, Note_on_c, 0, 68, 0
1, 73164, Note_on_c, 0, 77, 0
1, 73165, Note_on_c, 0, 70, 99
1, 73165, Note_on_c, 0, 79, 99
1, 73253, Note_on_c, 0, 70, 0
1, 73254, Note_on_c, 0, 79, 0
1, 73254, Note_on_c, 0, 56, 0
1, 73255, Note_on_c, 0, 72, 99
1, 73255, Note_on_c, 0, 80, 99
1, 73431, Note_on_c, 0, 68, 99
1, 73520, Note_on_c, 0, 68, 0
1, 73521, Note_on_c, 0, 67, 102
1, 73608, Note_on_c, 0, 67, 0
1, 73609, Note_on_c, 0, 80, 0
1, 73609, Note_on_c, 0, 65, 102
1, 73775, Note_on_c, 0, 65, 0
1, 73786, Note_on_c, 0, 80, 99
1, 73787, Note_on_c, 0, 65, 102
1, 73876, Note_on_c, 0, 65, 0
1, 73876, Note_on_c, 0, 80, 0
1, 73876, Note_on_c, 0, 79, 99
1, 73877, Note_on_c, 0, 63, 102
1, 73964, Note_on_c, 0, 63, 0
1, 73964, Note_on_c, 0, 79, 0
1, 73965, Note_on_c, 0, 77, 99
1, 73965, Note_on_c, 0, 61, 102
1, 74130, Note_on_c, 0, 61, 0
1, 74143, Note_on_c, 0, 77, 0
1, 74143, Note_on_c, 0, 77, 102
1, 74143, Note_on_c, 0, 61, 102
1, 74231, Note_on_c, 0, 61, 0
1, 74232, Note_on_c, 0, 77, 0
1, 74232, Note_on_c, 0, 75, 102
1, 74232, Note_on_c, 0, 60, 102
1, 74320, Note_on_c, 0, 60, 0
1, 74321, Note_on_c, 0, 75, 0
1, 74321, Note_on_c, 0, 73, 102
1, 74322, Note_on_c, 0, 58, 102
1, 74498, Note_on_c, 0, 58, 0
1, 74498, Note_on_c, 0, 72, 0
1, 74499, Note_on_c, 0, 70, 102
1, 74499, Note_on_c, 0, 60, 102
1, 74587, Note_on_c, 0, 60, 0
1, 74588, Note_on_c, 0, 70, 0
1, 74588, Note_on_c, 0, 68, 102
1, 74589, Note_on_c, 0, 61, 102
1, 74676, Note_on_c, 0, 61, 0
1, 74676, Note_on_c, 0, 68, 0
1, 74676, Note_on_c, 0, 63, 102
1, 74677, Note_on_c, 0, 67, 102
1, 74853, Note_on_c, 0, 63, 0
1, 74854, Note_on_c, 0, 73, 0
1, 74854, Note_on_c, 0, 75, 102
1, 74855, Note_on_c, 0, 51, 102
1, 74940, Note_on_c, 0, 75, 0
1, 74941, Note_on_c, 0, 73, 102
1, 75028, Note_on_c, 0, 73, 0
1, 75028, Note_on_c, 0, 51, 0
1, 75029, Note_on_c, 0, 72, 102
1, 75029, Note_on_c, 0, 56, 102
1, 75204, Note_on_c, 0, 56, 0
1, 75204, Note_on_c, 0, 72, 0
1, 75204, Note_on_c, 0, 72, 102
1, 75205, Note_on_c, 0, 58, 102
1, 75292, Note_on_c, 0, 58, 0
1, 75292, Note_on_c, 0, 72, 0
1, 75293, Note_on_c, 0, 70, 102
1, 75293, Note_on_c, 0, 60, 102
1, 75378, Note_on_c, 0, 60, 0
1, 75379, Note_on_c, 0, 70, 0
1, 75379, Note_on_c, 0, 68, 102
1, 75380, Note_on_c, 0, 61, 102
1, 75552, Note_on_c, 0, 67, 0
1, 75552, Note_on_c, 0, 65, 102
1, 75640, Note_on_c, 0, 65, 0
1, 75641, Note_on_c, 0, 64, 102
1, 75728, Note_on_c, 0, 64, 0
1, 75728, Note_on_c, 0, 65, 102
1, 75903, Note_on_c, 0, 61, 0
1, 75904, Note_on_c, 0, 68, 0
1, 75904, Note_on_c, 0, 70, 102
1, 75905, Note_on_c, 0, 61, 102
1, 75992, Note_on_c, 0, 61, 0
1, 75992, Note_on_c, 0, 70, 0
1, 75993, Note_on_c, 0, 72, 102
1, 75993, Note_on_c, 0, 60, 102
1, 76079, Note_on_c, 0, 60, 0
1, 76080, Note_on_c, 0, 72, 0
1, 76080, Note_on_c, 0, 73, 102
1, 76080, Note_on_c, 0, 58, 102
1, 76243, Note_on_c, 0, 58, 0
1, 76255, Note_on_c, 0, 65, 0
1, 76255, Note_on_c, 0, 58, 102
1, 76256, Note_on_c, 0, 67, 102
1, 76342, Note_on_c, 0, 67, 0
1, 76343, Note_on_c, 0, 58, 0
1, 76343, Note_on_c, 0, 68, 102
1, 76344, Note_on_c, 0, 56, 102
1, 76431, Note_on_c, 0, 56, 0
1, 76431, Note_on_c, 0, 68, 0
1, 76431, Note_on_c, 0, 70, 102
1, 76432, Note_on_c, 0, 55, 102
1, 76520, Note_on_c, 0, 73, 0
1, 76520, Note_on_c, 0, 72, 102
1, 76596, Note_on_c, 0, 55, 0
1, 76608, Note_on_c, 0, 72, 0
1, 76608, Note_on_c, 0, 73, 102
1, 76609, Note_on_c, 0, 55, 102
1, 76698, Note_on_c, 0, 55, 0
1, 76698, Note_on_c, 0, 73, 0
1, 76699, Note_on_c, 0, 70, 102
1, 76699, Note_on_c, 0, 53, 102
1, 76787, Note_on_c, 0, 53, 0
1, 76787, Note_on_c, 0, 70, 0
1, 76788, Note_on_c, 0, 79, 102
1, 76788, Note_on_c, 0, 52, 102
1, 76875, Note_on_c, 0, 70, 0
1, 76876, Note_on_c, 0, 68, 102
1, 76965, Note_on_c, 0, 68, 0
1, 76965, Note_on_c, 0, 52, 0
1, 76966, Note_on_c, 0, 70, 102
1, 76966, Note_on_c, 0, 48, 102
1, 77053, Note_on_c, 0, 70, 0
1, 77053, Note_on_c, 0, 67, 102
1, 77142, Note_on_c, 0, 67, 0
1, 77143, Note_on_c, 0, 48, 0
1, 77143, Note_on_c, 0, 68, 102
1, 77144, Note_on_c, 0, 53, 102
1, 77232, Note_on_c, 0, 79, 0
1, 77232, Note_on_c, 0, 72, 102
1, 77320, Note_on_c, 0, 72, 0
1, 77320, Note_on_c, 0, 53, 0
1, 77321, Note_on_c, 0, 73, 102
1, 77321, Note_on_c, 0, 65, 102
1, 77409, Note_on_c, 0, 65, 0
1, 77410, Note_on_c, 0, 73, 0
1, 77410, Note_on_c, 0, 72, 102
1, 77411, Note_on_c, 0, 63, 102
1, 77483, Note_on_c, 0, 63, 0
1, 77497, Note_on_c, 0, 72, 0
1, 77498, Note_on_c, 0, 77, 102
1, 77498, Note_on_c, 0, 63, 102
1, 77530, Note_on_c, 0, 63, 0
1, 77530, Note_on_c, 0, 61, 102
1, 77563, Note_on_c, 0, 61, 0
1, 77563, Note_on_c, 0, 63, 102
1, 77587, Note_on_c, 0, 68, 0
1, 77587, Note_on_c, 0, 67, 102
1, 77595, Note_on_c, 0, 63, 0
1, 77596, Note_on_c, 0, 61, 102
1, 77628, Note_on_c, 0, 61, 0
1, 77628, Note_on_c, 0, 63, 102
1, 77661, Note_on_c, 0, 63, 0
1, 77661, Note_on_c, 0, 61, 102
1, 77676, Note_on_c, 0, 67, 0
1, 77676, Note_on_c, 0, 68, 102
1, 77693, Note_on_c, 0, 61, 0
1, 77694, Note_on_c, 0, 63, 102
1, 77726, Note_on_c, 0, 63, 0
1, 77726, Note_on_c, 0, 61, 102
1, 77759, Note_on_c, 0, 61, 0
1, 77759, Note_on_c, 0, 63, 102
1, 77764, Note_on_c, 0, 68, 0
1, 77765, Note_on_c, 0, 65, 102
1, 77791, Note_on_c, 0, 63, 0
1, 77792, Note_on_c, 0, 61, 102
1, 77854, Note_on_c, 0, 61, 0
1, 77854, Note_on_c, 0, 65, 0
1, 77855, Note_on_c, 0, 72, 102
1, 77855, Note_on_c, 0, 60, 102
1, 78031, Note_on_c, 0, 60, 0
1, 78032, Note_on_c, 0, 72, 0
1, 78032, Note_on_c, 0, 77, 0
1, 78033, Note_on_c, 0, 76, 102
1, 78033, Note_on_c, 0, 67, 102
1, 78034, Note_on_c, 0, 48, 102
1, 78120, Note_on_c, 0, 48, 0
1, 78121, Note_on_c, 0, 76, 0
1, 78121, Note_on_c, 0, 77, 102
1, 78122, Note_on_c, 0, 50, 102
1, 78209, Note_on_c, 0, 50, 0
1, 78209, Note_on_c, 0, 77, 0
1, 78210, Note_on_c, 0, 67, 0
1, 78210, Note_on_c, 0, 79, 102
1, 78211, Note_on_c, 0, 72, 102
1, 78211, Note_on_c, 0, 52, 102
1, 78212, Note_on_c, 0, 48, 102
1, 78386, Note_on_c, 0, 52, 0
1, 78387, Note_on_c, 0, 72, 0
1, 78387, Note_on_c, 0, 70, 102
1, 78388, Note_on_c, 0, 50, 102
1, 78476, Note_on_c, 0, 50, 0
1, 78476, Note_on_c, 0, 52, 102
1, 78564, Note_on_c, 0, 52, 0
1, 78564, Note_on_c, 0, 70, 0
1, 78565, Note_on_c, 0, 48, 0
1, 78565, Note_on_c, 0, 68, 102
1, 78566, Note_on_c, 0, 49, 102
1, 78566, Note_on_c, 0, 53, 102
1, 78653, Note_on_c, 0, 53, 0
1, 78654, Note_on_c, 0, 52, 102
1, 78731, Note_on_c, 0, 79, 0
1, 78743, Note_on_c, 0, 68, 0
1, 78743, Note_on_c, 0, 52, 0
1, 78744, Note_on_c, 0, 77, 102
1, 78744, Note_on_c, 0, 70, 102
1, 78744, Note_on_c, 0, 53, 102
1, 78832, Note_on_c, 0, 53, 0
1, 78832, Note_on_c, 0, 55, 102
1, 78923, Note_on_c, 0, 55, 0
1, 78923, Note_on_c, 0, 70, 0
1, 78924, Note_on_c, 0, 49, 0
1, 78924, Note_on_c, 0, 72, 102
1, 78924, Note_on_c, 0, 56, 102
1, 78924, Note_on_c, 0, 48, 102
1, 79012, Note_on_c, 0, 72, 0
1, 79013, Note_on_c, 0, 60, 102
1, 79084, Note_on_c, 0, 77, 0
1, 79103, Note_on_c, 0, 60, 0
1, 79104, Note_on_c, 0, 75, 102
1, 79104, Note_on_c, 0, 62, 102
1, 79191, Note_on_c, 0, 62, 0
1, 79192, Note_on_c, 0, 63, 102
1, 79281, Note_on_c, 0, 63, 0
1, 79281, Note_on_c, 0, 75, 0
1, 79282, Note_on_c, 0, 56, 0
1, 79282, Note_on_c, 0, 48, 0
1, 79283, Note_on_c, 0, 74, 102
1, 79283, Note_on_c, 0, 65, 102
1, 79283, Note_on_c, 0, 47, 102
1, 79369, Note_on_c, 0, 53, 102
1, 79457, Note_on_c, 0, 53, 0
1, 79458, Note_on_c, 0, 74, 0
1, 79458, Note_on_c, 0, 75, 102
1, 79459, Note_on_c, 0, 55, 102
1, 79544, Note_on_c, 0, 55, 0
1, 79544, Note_on_c, 0, 75, 0
1, 79545, Note_on_c, 0, 77, 102
1, 79545, Note_on_c, 0, 56, 102
1, 79630, Note_on_c, 0, 56, 0
1, 79631, Note_on_c, 0, 77, 0
1, 79631, Note_on_c, 0, 47, 0
1, 79632, Note_on_c, 0, 65, 0
1, 79632, Note_on_c, 0, 79, 102
1, 79632, Note_on_c, 0, 58, 102
1, 79633, Note_on_c, 0, 52, 102
1, 79717, Note_on_c, 0, 79, 0
1, 79718, Note_on_c, 0, 77, 102
1, 79804, Note_on_c, 0, 77, 0
1, 79804, Note_on_c, 0, 76, 102
1, 79805, Note_on_c, 0, 67, 102
1, 79891, Note_on_c, 0, 76, 0
1, 79892, Note_on_c, 0, 74, 102
1, 79979, Note_on_c, 0, 74, 0
1, 79979, Note_on_c, 0, 67, 0
1, 79980, Note_on_c, 0, 52, 0
1, 79980, Note_on_c, 0, 58, 0
1, 79980, Note_on_c, 0, 72, 102
1, 79981, Note_on_c, 0, 68, 102
1, 79981, Note_on_c, 0, 53, 102
1, 80068, Note_on_c, 0, 56, 102
1, 80156, Note_on_c, 0, 56, 0
1, 80157, Note_on_c, 0, 58, 102
1, 80244, Note_on_c, 0, 58, 0
1, 80244, Note_on_c, 0, 60, 102
1, 80332, Note_on_c, 0, 60, 0
1, 80332, Note_on_c, 0, 53, 0
1, 80333, Note_on_c, 0, 68, 0
1, 80333, Note_on_c, 0, 72, 0
1, 80334, Note_on_c, 0, 61, 102
1, 80334, Note_on_c, 0, 46, 102
1, 80420, Note_on_c, 0, 70, 102
1, 80509, Note_on_c, 0, 68, 102
1, 80599, Note_on_c, 0, 68, 0
1, 80599, Note_on_c, 0, 67, 102
1, 80686, Note_on_c, 0, 67, 0
1, 80687, Note_on_c, 0, 70, 0
1, 80687, Note_on_c, 0, 46, 0
1, 80688, Note_on_c, 0, 61, 0
1, 80688, Note_on_c, 0, 72, 102
1, 80688, Note_on_c, 0, 65, 102
1, 80689, Note_on_c, 0, 45, 102
1, 80774, Note_on_c, 0, 60, 102
1, 80862, Note_on_c, 0, 60, 0
1, 80862, Note_on_c, 0, 62, 102
1, 80949, Note_on_c, 0, 62, 0
1, 80950, Note_on_c, 0, 64, 102
1, 81036, Note_on_c, 0, 64, 0
1, 81036, Note_on_c, 0, 45, 0
1, 81036, Note_on_c, 0, 65, 0
1, 81037, Note_on_c, 0, 72, 0
1, 81037, Note_on_c, 0, 65, 102
1, 81038, Note_on_c, 0, 44, 102
1, 81123, Note_on_c, 0, 65, 102
1, 81211, Note_on_c, 0, 65, 0
1, 81211, Note_on_c, 0, 72, 102
1, 81211, Note_on_c, 0, 67, 102
1, 81298, Note_on_c, 0, 67, 0
1, 81298, Note_on_c, 0, 68, 102
1, 81386, Note_on_c, 0, 68, 0
1, 81387, Note_on_c, 0, 72, 0
1, 81387, Note_on_c, 0, 44, 0
1, 81387, Note_on_c, 0, 73, 102
1, 81388, Note_on_c, 0, 70, 102
1, 81388, Note_on_c, 0, 44, 102
1, 81418, Note_on_c, 0, 44, 0
1, 81419, Note_on_c, 0, 43, 102
1, 81450, Note_on_c, 0, 43, 0
1, 81451, Note_on_c, 0, 44, 102
1, 81482, Note_on_c, 0, 44, 0
1, 81482, Note_on_c, 0, 43, 102
1, 81561, Note_on_c, 0, 65, 0
1, 81562, Note_on_c, 0, 73, 0
1, 81562, Note_on_c, 0, 72, 102
1, 81562, Note_on_c, 0, 64, 102
1, 81649, Note_on_c, 0, 64, 0
1, 81650, Note_on_c, 0, 72, 0
1, 81650, Note_on_c, 0, 70, 102
1, 81650, Note_on_c, 0, 62, 102
1, 81737, Note_on_c, 0, 62, 0
1, 81737, Note_on_c, 0, 70, 0
1, 81738, Note_on_c, 0, 72, 102
1, 81738, Note_on_c, 0, 64, 102
1, 81912, Note_on_c, 0, 70, 0
1, 81913, Note_on_c, 0, 68, 102
1, 81999, Note_on_c, 0, 68, 0
1, 81999, Note_on_c, 0, 67, 102
1, 82084, Note_on_c, 0, 43, 0
1, 82086, Note_on_c, 0, 67, 0
1, 82087, Note_on_c, 0, 64, 0
1, 82087, Note_on_c, 0, 68, 102
1, 82088, Note_on_c, 0, 65, 102
1, 82088, Note_on_c, 0, 41, 102
1, 82262, Note_on_c, 0, 41, 0
1, 82262, Note_on_c, 0, 53, 102
1, 82349, Note_on_c, 0, 53, 0
1, 82350, Note_on_c, 0, 55, 102
1, 82438, Note_on_c, 0, 55, 0
1, 82438, Note_on_c, 0, 65, 0
1, 82439, Note_on_c, 0, 68, 0
1, 82439, Note_on_c, 0, 72, 0
1, 82440, Note_on_c, 0, 56, 102
1, 82615, Note_on_c, 0, 56, 0
1, 82616, Note_on_c, 0, 60, 102
1, 82616, Note_on_c, 0, 56, 102
1, 82704, Note_on_c, 0, 56, 0
1, 82705, Note_on_c, 0, 60, 0
1, 82705, Note_on_c, 0, 61, 102
1, 82706, Note_on_c, 0, 58, 102
1, 82793, Note_on_c, 0, 58, 0
1, 82793, Note_on_c, 0, 61, 0
1, 82794, Note_on_c, 0, 60, 102
1, 82794, Note_on_c, 0, 63, 102
1, 82968, Note_on_c, 0, 63, 0
1, 82969, Note_on_c, 0, 78, 102
1, 82969, Note_on_c, 0, 63, 102
1, 83055, Note_on_c, 0, 63, 0
1, 83055, Note_on_c, 0, 78, 0
1, 83056, Note_on_c, 0, 77, 102
1, 83056, Note_on_c, 0, 65, 102
1, 83142, Note_on_c, 0, 65, 0
1, 83143, Note_on_c, 0, 77, 0
1, 83143, Note_on_c, 0, 75, 102
1, 83144, Note_on_c, 0, 66, 102
1, 83230, Note_on_c, 0, 75, 0
1, 83230, Note_on_c, 0, 60, 0
1, 83231, Note_on_c, 0, 73, 102
1, 83231, Note_on_c, 0, 58, 102
1, 83319, Note_on_c, 0, 58, 0
1, 83319, Note_on_c, 0, 73, 0
1, 83320, Note_on_c, 0, 72, 102
1, 83320, Note_on_c, 0, 56, 102
1, 83407, Note_on_c, 0, 56, 0
1, 83408, Note_on_c, 0, 72, 0
1, 83408, Note_on_c, 0, 70, 102
1, 83409, Note_on_c, 0, 54, 102
1, 83495, Note_on_c, 0, 54, 0
1, 83496, Note_on_c, 0, 70, 0
1, 83496, Note_on_c, 0, 68, 102
1, 83496, Note_on_c, 0, 53, 102
1, 83670, Note_on_c, 0, 53, 0
1, 83670, Note_on_c, 0, 68, 0
1, 83670, Note_on_c, 0, 66, 0
1, 83671, Note_on_c, 0, 70, 102
1, 83671, Note_on_c, 0, 65, 102
1, 83672, Note_on_c, 0, 49, 102
1, 83757, Note_on_c, 0, 49, 0
1, 83757, Note_on_c, 0, 65, 0
1, 83758, Note_on_c, 0, 70, 0
1, 83759, Note_on_c, 0, 72, 102
1, 83759, Note_on_c, 0, 51, 102
1, 83759, Note_on_c, 0, 63, 102
1, 83844, Note_on_c, 0, 63, 0
1, 83844, Note_on_c, 0, 51, 0
1, 83844, Note_on_c, 0, 72, 0
1, 83845, Note_on_c, 0, 73, 102
1, 83845, Note_on_c, 0, 61, 102
1, 83846, Note_on_c, 0, 53, 102
1, 84019, Note_on_c, 0, 53, 0
1, 84020, Note_on_c, 0, 61, 0
1, 84020, Note_on_c, 0, 73, 0
1, 84021, Note_on_c, 0, 56, 102
1, 84021, Note_on_c, 0, 53, 102
1, 84107, Note_on_c, 0, 53, 0
1, 84107, Note_on_c, 0, 56, 0
1, 84107, Note_on_c, 0, 58, 102
1, 84108, Note_on_c, 0, 55, 102
1, 84195, Note_on_c, 0, 55, 0
1, 84195, Note_on_c, 0, 58, 0
1, 84196, Note_on_c, 0, 56, 102
1, 84196, Note_on_c, 0, 60, 102
1, 84369, Note_on_c, 0, 60, 0
1, 84369, Note_on_c, 0, 75, 102
1, 84370, Note_on_c, 0, 60, 102
1, 84454, Note_on_c, 0, 60, 0
1, 84455, Note_on_c, 0, 75, 0
1, 84455, Note_on_c, 0, 73, 102
1, 84456, Note_on_c, 0, 61, 102
1, 84541, Note_on_c, 0, 61, 0
1, 84542, Note_on_c, 0, 73, 0
1, 84542, Note_on_c, 0, 72, 102
1, 84543, Note_on_c, 0, 63, 102
1, 84630, Note_on_c, 0, 72, 0
1, 84630, Note_on_c, 0, 56, 0
1, 84631, Note_on_c, 0, 70, 102
1, 84631, Note_on_c, 0, 54, 102
1, 84717, Note_on_c, 0, 54, 0
1, 84718, Note_on_c, 0, 70, 0
1, 84718, Note_on_c, 0, 68, 102
1, 84719, Note_on_c, 0, 53, 102
1, 84803, Note_on_c, 0, 53, 0
1, 84803, Note_on_c, 0, 68, 0
1, 84804, Note_on_c, 0, 66, 102
1, 84804, Note_on_c, 0, 51, 102
1, 84889, Note_on_c, 0, 51, 0
1, 84889, Note_on_c, 0, 66, 0
1, 84890, Note_on_c, 0, 49, 102
1, 84890, Note_on_c, 0, 65, 102
1, 85062, Note_on_c, 0, 65, 0
1, 85062, Note_on_c, 0, 49, 0
1, 85063, Note_on_c, 0, 63, 0
1, 85063, Note_on_c, 0, 67, 102
1, 85064, Note_on_c, 0, 61, 102
1, 85064, Note_on_c, 0, 46, 102
1, 85149, Note_on_c, 0, 46, 0
1, 85150, Note_on_c, 0, 61, 0
1, 85150, Note_on_c, 0, 67, 0
1, 85151, Note_on_c, 0, 69, 102
1, 85151, Note_on_c, 0, 60, 102
1, 85152, Note_on_c, 0, 48, 102
1, 85235, Note_on_c, 0, 48, 0
1, 85235, Note_on_c, 0, 60, 0
1, 85236, Note_on_c, 0, 69, 0
1, 85236, Note_on_c, 0, 70, 102
1, 85236, Note_on_c, 0, 58, 102
1, 85237, Note_on_c, 0, 49, 102
1, 85393, Note_on_c, 0, 49, 0
1, 85407, Note_on_c, 0, 58, 0
1, 85408, Note_on_c, 0, 70, 0
1, 85408, Note_on_c, 0, 53, 102
1, 85409, Note_on_c, 0, 49, 102
1, 85496, Note_on_c, 0, 49, 0
1, 85496, Note_on_c, 0, 53, 0
1, 85497, Note_on_c, 0, 55, 102
1, 85497, Note_on_c, 0, 51, 102
1, 85583, Note_on_c, 0, 51, 0
1, 85584, Note_on_c, 0, 55, 0
1, 85584, Note_on_c, 0, 53, 102
1, 85584, Note_on_c, 0, 56, 102
1, 85759, Note_on_c, 0, 56, 0
1, 85759, Note_on_c, 0, 72, 102
1, 85760, Note_on_c, 0, 56, 102
1, 85848, Note_on_c, 0, 56, 0
1, 85848, Note_on_c, 0, 72, 0
1, 85848, Note_on_c, 0, 70, 102
1, 85848, Note_on_c, 0, 58, 102
1, 85934, Note_on_c, 0, 58, 0
1, 85935, Note_on_c, 0, 70, 0
1, 85936, Note_on_c, 0, 68, 102
1, 85936, Note_on_c, 0, 60, 102
1, 86021, Note_on_c, 0, 68, 0
1, 86022, Note_on_c, 0, 53, 0
1, 86022, Note_on_c, 0, 67, 102
1, 86022, Note_on_c, 0, 51, 102
1, 86107, Note_on_c, 0, 51, 0
1, 86107, Note_on_c, 0, 67, 0
1, 86108, Note_on_c, 0, 49, 102
1, 86108, Note_on_c, 0, 65, 102
1, 86193, Note_on_c, 0, 49, 0
1, 86194, Note_on_c, 0, 65, 0
1, 86194, Note_on_c, 0, 63, 102
1, 86195, Note_on_c, 0, 48, 102
1, 86280, Note_on_c, 0, 48, 0
1, 86280, Note_on_c, 0, 63, 0
1, 86280, Note_on_c, 0, 61, 102
1, 86280, Note_on_c, 0, 46, 102
1, 86366, Note_on_c, 0, 46, 0
1, 86366, Note_on_c, 0, 48, 102
1, 86452, Note_on_c, 0, 48, 0
1, 86453, Note_on_c, 0, 60, 0
1, 86453, Note_on_c, 0, 58, 102
1, 86454, Note_on_c, 0, 49, 102
1, 86538, Note_on_c, 0, 49, 0
1, 86538, Note_on_c, 0, 58, 0
1, 86539, Note_on_c, 0, 60, 102
1, 86539, Note_on_c, 0, 48, 102
1, 86624, Note_on_c, 0, 48, 0
1, 86625, Note_on_c, 0, 60, 0
1, 86625, Note_on_c, 0, 61, 102
1, 86626, Note_on_c, 0, 46, 102
1, 86711, Note_on_c, 0, 46, 0
1, 86711, Note_on_c, 0, 61, 0
1, 86712, Note_on_c, 0, 65, 102
1, 86712, Note_on_c, 0, 44, 102
1, 86797, Note_on_c, 0, 44, 0
1, 86797, Note_on_c, 0, 65, 0
1, 86798, Note_on_c, 0, 70, 102
1, 86798, Note_on_c, 0, 43, 102
1, 86884, Note_on_c, 0, 43, 0
1, 86885, Note_on_c, 0, 70, 0
1, 86885, Note_on_c, 0, 68, 102
1, 86886, Note_on_c, 0, 41, 102
1, 86971, Note_on_c, 0, 41, 0
1, 86971, Note_on_c, 0, 68, 0
1, 86972, Note_on_c, 0, 67, 102
1, 86972, Note_on_c, 0, 39, 102
1, 87146, Note_on_c, 0, 39, 0
1, 87147, Note_on_c, 0, 61, 0
1, 87147, Note_on_c, 0, 63, 102
1, 87148, Note_on_c, 0, 46, 102
1, 87234, Note_on_c, 0, 63, 0
1, 87234, Note_on_c, 0, 61, 102
1, 87322, Note_on_c, 0, 61, 0
1, 87323, Note_on_c, 0, 46, 0
1, 87323, Note_on_c, 0, 67, 0
1, 87324, Note_on_c, 0, 68, 102
1, 87324, Note_on_c, 0, 63, 102
1, 87324, Note_on_c, 0, 60, 102
1, 87325, Note_on_c, 0, 48, 102
1, 87496, Note_on_c, 0, 48, 0
1, 87496, Note_on_c, 0, 60, 0
1, 87497, Note_on_c, 0, 61, 102
1, 87497, Note_on_c, 0, 44, 102
1, 87582, Note_on_c, 0, 61, 0
1, 87583, Note_on_c, 0, 60, 102
1, 87669, Note_on_c, 0, 60, 0
1, 87669, Note_on_c, 0, 44, 0
1, 87670, Note_on_c, 0, 63, 0
1, 87671, Note_on_c, 0, 58, 102
1, 87671, Note_on_c, 0, 49, 102
1, 87671, Note_on_c, 0, 65, 102
1, 87755, Note_on_c, 0, 68, 0
1, 87756, Note_on_c, 0, 67, 102
1, 87840, Note_on_c, 0, 67, 0
1, 87841, Note_on_c, 0, 49, 0
1, 87841, Note_on_c, 0, 68, 102
1, 87842, Note_on_c, 0, 46, 102
1, 87927, Note_on_c, 0, 68, 0
1, 87927, Note_on_c, 0, 70, 102
1, 88012, Note_on_c, 0, 70, 0
1, 88012, Note_on_c, 0, 46, 0
1, 88013, Note_on_c, 0, 65, 0
1, 88013, Note_on_c, 0, 72, 102
1, 88014, Note_on_c, 0, 63, 102
1, 88014, Note_on_c, 0, 51, 102
1, 88182, Note_on_c, 0, 51, 0
1, 88182, Note_on_c, 0, 58, 0
1, 88182, Note_on_c, 0, 56, 102
1, 88183, Note_on_c, 0, 48, 102
1, 88269, Note_on_c, 0, 56, 0
1, 88269, Note_on_c, 0, 55, 102
1, 88355, Note_on_c, 0, 55, 0
1, 88355, Note_on_c, 0, 48, 0
1, 88356, Note_on_c, 0, 63, 0
1, 88356, Note_on_c, 0, 72, 0
1, 88356, Note_on_c, 0, 62, 102
1, 88357, Note_on_c, 0, 56, 102
1, 88357, Note_on_c, 0, 53, 102
1, 88442, Note_on_c, 0, 68, 102
1, 88529, Note_on_c, 0, 68, 0
1, 88530, Note_on_c, 0, 53, 0
1, 88530, Note_on_c, 0, 56, 0
1, 88531, Note_on_c, 0, 70, 102
1, 88531, Note_on_c, 0, 55, 102
1, 88531, Note_on_c, 0, 46, 102
1, 88616, Note_on_c, 0, 55, 0
1, 88616, Note_on_c, 0, 70, 0
1, 88616, Note_on_c, 0, 72, 102
1, 88617, Note_on_c, 0, 56, 102
1, 88703, Note_on_c, 0, 56, 0
1, 88704, Note_on_c, 0, 72, 0
1, 88704, Note_on_c, 0, 62, 0
1, 88704, Note_on_c, 0, 73, 102
1, 88705, Note_on_c, 0, 67, 102
1, 88705, Note_on_c, 0, 58, 102
1, 88788, Note_on_c, 0, 58, 0
1, 88789, Note_on_c, 0, 56, 102
1, 88874, Note_on_c, 0, 56, 0
1, 88874, Note_on_c, 0, 46, 0
1, 88875, Note_on_c, 0, 55, 102
1, 88875, Note_on_c, 0, 51, 102
1, 88960, Note_on_c, 0, 51, 0
1, 88961, Note_on_c, 0, 55, 0
1, 88961, Note_on_c, 0, 53, 102
1, 88962, Note_on_c, 0, 49, 102
1, 89047, Note_on_c, 0, 49, 0
1, 89047, Note_on_c, 0, 53, 0
1, 89048, Note_on_c, 0, 67, 0
1, 89048, Note_on_c, 0, 73, 0
1, 89049, Note_on_c, 0, 68, 102
1, 89049, Note_on_c, 0, 51, 102
1, 89050, Note_on_c, 0, 48, 102
1, 89133, Note_on_c, 0, 72, 102
1, 89219, Note_on_c, 0, 72, 0
1, 89219, Note_on_c, 0, 48, 0
1, 89220, Note_on_c, 0, 51, 0
1, 89220, Note_on_c, 0, 73, 102
1, 89220, Note_on_c, 0, 56, 102
1, 89221, Note_on_c, 0, 53, 102
1, 89306, Note_on_c, 0, 73, 0
1, 89306, Note_on_c, 0, 75, 102
1, 89394, Note_on_c, 0, 75, 0
1, 89395, Note_on_c, 0, 68, 0
1, 89395, Note_on_c, 0, 77, 102
1, 89396, Note_on_c, 0, 61, 102
1, 89482, Note_on_c, 0, 56, 0
1, 89482, Note_on_c, 0, 53, 0
1, 89483, Note_on_c, 0, 51, 102
1, 89483, Note_on_c, 0, 55, 102
1, 89569, Note_on_c, 0, 55, 0
1, 89569, Note_on_c, 0, 51, 0
1, 89570, Note_on_c, 0, 56, 102
1, 89570, Note_on_c, 0, 53, 102
1, 89656, Note_on_c, 0, 53, 0
1, 89657, Note_on_c, 0, 56, 0
1, 89657, Note_on_c, 0, 58, 102
1, 89658, Note_on_c, 0, 55, 102
1, 89743, Note_on_c, 0, 55, 0
1, 89743, Note_on_c, 0, 58, 0
1, 89744, Note_on_c, 0, 77, 0
1, 89744, Note_on_c, 0, 61, 0
1, 89745, Note_on_c, 0, 60, 102
1, 89745, Note_on_c, 0, 56, 102
1, 89830, Note_on_c, 0, 56, 0
1, 89831, Note_on_c, 0, 75, 100
1, 89831, Note_on_c, 0, 55, 102
1, 89918, Note_on_c, 0, 55, 0
1, 89919, Note_on_c, 0, 75, 0
1, 89919, Note_on_c, 0, 77, 100
1, 89920, Note_on_c, 0, 53, 102
1, 90006, Note_on_c, 0, 53, 0
1, 90006, Note_on_c, 0, 77, 0
1, 90007, Note_on_c, 0, 79, 100
1, 90007, Note_on_c, 0, 51, 102
1, 90094, Note_on_c, 0, 51, 0
1, 90095, Note_on_c, 0, 79, 0
1, 90095, Note_on_c, 0, 60, 0
1, 90096, Note_on_c, 0, 80, 100
1, 90096, Note_on_c, 0, 50, 102
1, 90096, Note_on_c, 0, 59, 102
1, 90180, Note_on_c, 0, 53, 102
1, 90267, Note_on_c, 0, 53, 0
1, 90267, Note_on_c, 0, 55, 102
1, 90354, Note_on_c, 0, 55, 0
1, 90355, Note_on_c, 0, 56, 102
1, 90443, Note_on_c, 0, 56, 0
1, 90443, Note_on_c, 0, 50, 0
1, 90444, Note_on_c, 0, 59, 0
1, 90444, Note_on_c, 0, 58, 102
1, 90444, Note_on_c, 0, 51, 102
1, 90616, Note_on_c, 0, 80, 0
1, 90616, Note_on_c, 0, 79, 100
1, 90616, Note_on_c, 0, 50, 102
1, 90701, Note_on_c, 0, 79, 0
1, 90701, Note_on_c, 0, 77, 100
1, 90786, Note_on_c, 0, 77, 0
1, 90786, Note_on_c, 0, 50, 0
1, 90787, Note_on_c, 0, 51, 0
1, 90787, Note_on_c, 0, 79, 100
1, 90787, Note_on_c, 0, 52, 102
1, 90871, Note_on_c, 0, 55, 102
1, 90960, Note_on_c, 0, 55, 0
1, 90960, Note_on_c, 0, 52, 0
1, 90960, Note_on_c, 0, 53, 102
1, 90960, Note_on_c, 0, 48, 102
1, 91046, Note_on_c, 0, 53, 0
1, 91046, Note_on_c, 0, 52, 102
1, 91134, Note_on_c, 0, 52, 0
1, 91135, Note_on_c, 0, 48, 0
1, 91135, Note_on_c, 0, 58, 0
1, 91136, Note_on_c, 0, 53, 102
1, 91136, Note_on_c, 0, 56, 102
1, 91221, Note_on_c, 0, 79, 0
1, 91221, Note_on_c, 0, 72, 102
1, 91308, Note_on_c, 0, 72, 0
1, 91308, Note_on_c, 0, 74, 102
1, 91309, Note_on_c, 0, 53, 102
1, 91395, Note_on_c, 0, 53, 0
1, 91396, Note_on_c, 0, 74, 0
1, 91396, Note_on_c, 0, 75, 102
1, 91397, Note_on_c, 0, 51, 102
1, 91482, Note_on_c, 0, 51, 0
1, 91482, Note_on_c, 0, 75, 0
1, 91483, Note_on_c, 0, 56, 0
1, 91483, Note_on_c, 0, 53, 0
1, 91484, Note_on_c, 0, 77, 102
1, 91484, Note_on_c, 0, 50, 102
1, 91567, Note_on_c, 0, 71, 102
1, 91652, Note_on_c, 0, 71, 0
1, 91652, Note_on_c, 0, 50, 0
1, 91653, Note_on_c, 0, 72, 102
1, 91653, Note_on_c, 0, 50, 102
1, 91737, Note_on_c, 0, 50, 0
1, 91738, Note_on_c, 0, 72, 0
1, 91738, Note_on_c, 0, 74, 102
1, 91739, Note_on_c, 0, 48, 102
1, 91823, Note_on_c, 0, 48, 0
1, 91823, Note_on_c, 0, 74, 0
1, 91824, Note_on_c, 0, 67, 102
1, 91824, Note_on_c, 0, 47, 102
1, 91909, Note_on_c, 0, 47, 0
1, 91909, Note_on_c, 0, 43, 102
1, 91995, Note_on_c, 0, 43, 0
1, 91996, Note_on_c, 0, 77, 0
1, 91996, Note_on_c, 0, 75, 102
1, 91997, Note_on_c, 0, 45, 102
1, 92081, Note_on_c, 0, 45, 0
1, 92081, Note_on_c, 0, 75, 0
1, 92082, Note_on_c, 0, 74, 102
1, 92082, Note_on_c, 0, 47, 102
1, 92167, Note_on_c, 0, 47, 0
1, 92168, Note_on_c, 0, 74, 0
1, 92168, Note_on_c, 0, 75, 102
1, 92169, Note_on_c, 0, 48, 102
1, 92254, Note_on_c, 0, 48, 0
1, 92254, Note_on_c, 0, 44, 102
1, 92341, Note_on_c, 0, 44, 0
1, 92341, Note_on_c, 0, 67, 0
1, 92342, Note_on_c, 0, 66, 102
1, 92342, Note_on_c, 0, 46, 102
1, 92429, Note_on_c, 0, 46, 0
1, 92430, Note_on_c, 0, 48, 102
1, 92517, Note_on_c, 0, 48, 0
1, 92517, Note_on_c, 0, 66, 0
1, 92518, Note_on_c, 0, 65, 102
1, 92518, Note_on_c, 0, 49, 102
1, 92605, Note_on_c, 0, 75, 0
1, 92605, Note_on_c, 0, 68, 102
1, 92692, Note_on_c, 0, 68, 0
1, 92693, Note_on_c, 0, 49, 0
1, 92693, Note_on_c, 0, 70, 102
1, 92694, Note_on_c, 0, 49, 102
1, 92778, Note_on_c, 0, 49, 0
1, 92778, Note_on_c, 0, 70, 0
1, 92779, Note_on_c, 0, 72, 102
1, 92779, Note_on_c, 0, 48, 102
1, 92865, Note_on_c, 0, 48, 0
1, 92865, Note_on_c, 0, 72, 0
1, 92866, Note_on_c, 0, 73, 102
1, 92866, Note_on_c, 0, 46, 102
1, 92952, Note_on_c, 0, 65, 0
1, 92952, Note_on_c, 0, 67, 102
1, 93038, Note_on_c, 0, 67, 0
1, 93039, Note_on_c, 0, 46, 0
1, 93039, Note_on_c, 0, 68, 102
1, 93039, Note_on_c, 0, 46, 102
1, 93124, Note_on_c, 0, 46, 0
1, 93124, Note_on_c, 0, 68, 0
1, 93125, Note_on_c, 0, 70, 102
1, 93125, Note_on_c, 0, 44, 102
1, 93209, Note_on_c, 0, 44, 0
1, 93210, Note_on_c, 0, 70, 0
1, 93210, Note_on_c, 0, 63, 102
1, 93211, Note_on_c, 0, 43, 102
1, 93294, Note_on_c, 0, 43, 0
1, 93294, Note_on_c, 0, 39, 102
1, 93379, Note_on_c, 0, 39, 0
1, 93380, Note_on_c, 0, 73, 0
1, 93380, Note_on_c, 0, 72, 102
1, 93380, Note_on_c, 0, 41, 102
1, 93466, Note_on_c, 0, 41, 0
1, 93466, Note_on_c, 0, 72, 0
1, 93467, Note_on_c, 0, 70, 102
1, 93467, Note_on_c, 0, 43, 102
1, 93551, Note_on_c, 0, 43, 0
1, 93552, Note_on_c, 0, 70, 0
1, 93552, Note_on_c, 0, 72, 102
1, 93552, Note_on_c, 0, 44, 102
1, 93637, Note_on_c, 0, 44, 0
1, 93638, Note_on_c, 0, 63, 0
1, 93638, Note_on_c, 0, 66, 102
1, 93639, Note_on_c, 0, 41, 102
1, 93724, Note_on_c, 0, 41, 0
1, 93724, Note_on_c, 0, 66, 0
1, 93725, Note_on_c, 0, 65, 102
1, 93725, Note_on_c, 0, 43, 102
1, 93809, Note_on_c, 0, 43, 0
1, 93810, Note_on_c, 0, 65, 0
1, 93810, Note_on_c, 0, 63, 102
1, 93811, Note_on_c, 0, 45, 102
1, 93897, Note_on_c, 0, 45, 0
1, 93897, Note_on_c, 0, 63, 0
1, 93898, Note_on_c, 0, 61, 102
1, 93898, Note_on_c, 0, 46, 102
1, 93984, Note_on_c, 0, 46, 0
1, 93984, Note_on_c, 0, 45, 102
1, 94072, Note_on_c, 0, 45, 0
1, 94073, Note_on_c, 0, 72, 0
1, 94073, Note_on_c, 0, 65, 102
1, 94074, Note_on_c, 0, 46, 102
1, 94162, Note_on_c, 0, 46, 0
1, 94162, Note_on_c, 0, 48, 102
1, 94250, Note_on_c, 0, 48, 0
1, 94250, Note_on_c, 0, 65, 0
1, 94251, Note_on_c, 0, 70, 102
1, 94251, Note_on_c, 0, 49, 102
1, 94339, Note_on_c, 0, 49, 0
1, 94340, Note_on_c, 0, 46, 102
1, 94428, Note_on_c, 0, 46, 0
1, 94428, Note_on_c, 0, 70, 0
1, 94428, Note_on_c, 0, 68, 102
1, 94429, Note_on_c, 0, 48, 102
1, 94516, Note_on_c, 0, 48, 0
1, 94516, Note_on_c, 0, 49, 102
1, 94602, Note_on_c, 0, 49, 0
1, 94603, Note_on_c, 0, 68, 0
1, 94603, Note_on_c, 0, 67, 102
1, 94604, Note_on_c, 0, 51, 102
1, 94690, Note_on_c, 0, 61, 0
1, 94690, Note_on_c, 0, 58, 102
1, 94776, Note_on_c, 0, 58, 0
1, 94776, Note_on_c, 0, 51, 0
1, 94777, Note_on_c, 0, 60, 102
1, 94777, Note_on_c, 0, 51, 102
1, 94863, Note_on_c, 0, 60, 0
1, 94864, Note_on_c, 0, 51, 0
1, 94864, Note_on_c, 0, 49, 102
1, 94865, Note_on_c, 0, 61, 102
1, 94948, Note_on_c, 0, 61, 0
1, 94949, Note_on_c, 0, 49, 0
1, 94949, Note_on_c, 0, 63, 102
1, 94950, Note_on_c, 0, 48, 102
1, 95020, Note_on_c, 0, 67, 0
1, 95034, Note_on_c, 0, 67, 102
1, 95119, Note_on_c, 0, 67, 0
1, 95119, Note_on_c, 0, 48, 0
1, 95120, Note_on_c, 0, 68, 102
1, 95120, Note_on_c, 0, 48, 102
1, 95205, Note_on_c, 0, 48, 0
1, 95206, Note_on_c, 0, 68, 0
1, 95206, Note_on_c, 0, 70, 102
1, 95207, Note_on_c, 0, 46, 102
1, 95292, Note_on_c, 0, 46, 0
1, 95293, Note_on_c, 0, 70, 0
1, 95294, Note_on_c, 0, 72, 102
1, 95294, Note_on_c, 0, 44, 102
1, 95364, Note_on_c, 0, 63, 0
1, 95378, Note_on_c, 0, 63, 102
1, 95463, Note_on_c, 0, 63, 0
1, 95464, Note_on_c, 0, 44, 0
1, 95465, Note_on_c, 0, 65, 102
1, 95465, Note_on_c, 0, 56, 102
1, 95549, Note_on_c, 0, 56, 0
1, 95549, Note_on_c, 0, 65, 0
1, 95550, Note_on_c, 0, 55, 102
1, 95551, Note_on_c, 0, 67, 102
1, 95636, Note_on_c, 0, 67, 0
1, 95636, Note_on_c, 0, 55, 0
1, 95637, Note_on_c, 0, 72, 0
1, 95637, Note_on_c, 0, 68, 102
1, 95638, Note_on_c, 0, 53, 102
1, 95720, Note_on_c, 0, 72, 102
1, 95805, Note_on_c, 0, 72, 0
1, 95805, Note_on_c, 0, 53, 0
1, 95806, Note_on_c, 0, 74, 102
1, 95806, Note_on_c, 0, 53, 102
1, 95892, Note_on_c, 0, 53, 0
1, 95892, Note_on_c, 0, 74, 0
1, 95893, Note_on_c, 0, 75, 102
1, 95893, Note_on_c, 0, 51, 102
1, 95976, Note_on_c, 0, 51, 0
1, 95977, Note_on_c, 0, 75, 0
1, 95977, Note_on_c, 0, 77, 102
1, 95978, Note_on_c, 0, 50, 102
1, 96061, Note_on_c, 0, 68, 0
1, 96061, Note_on_c, 0, 72, 102
1, 96145, Note_on_c, 0, 72, 0
1, 96146, Note_on_c, 0, 70, 102
1, 96229, Note_on_c, 0, 70, 0
1, 96229, Note_on_c, 0, 68, 102
1, 96313, Note_on_c, 0, 68, 0
1, 96314, Note_on_c, 0, 50, 0
1, 96314, Note_on_c, 0, 51, 102
1, 96315, Note_on_c, 0, 58, 102
1, 96315, Note_on_c, 0, 67, 102
1, 96398, Note_on_c, 0, 77, 0
1, 96398, Note_on_c, 0, 70, 102
1, 96483, Note_on_c, 0, 70, 0
1, 96484, Note_on_c, 0, 51, 0
1, 96484, Note_on_c, 0, 75, 102
1, 96485, Note_on_c, 0, 55, 102
1, 96570, Note_on_c, 0, 67, 0
1, 96570, Note_on_c, 0, 67, 102
1, 96656, Note_on_c, 0, 67, 0
1, 96657, Note_on_c, 0, 55, 0
1, 96657, Note_on_c, 0, 58, 0
1, 96658, Note_on_c, 0, 65, 102
1, 96658, Note_on_c, 0, 60, 102
1, 96659, Note_on_c, 0, 56, 102
1, 96744, Note_on_c, 0, 75, 0
1, 96744, Note_on_c, 0, 75, 102
1, 96830, Note_on_c, 0, 75, 0
1, 96830, Note_on_c, 0, 56, 0
1, 96831, Note_on_c, 0, 74, 102
1, 96831, Note_on_c, 0, 53, 102
1, 96916, Note_on_c, 0, 74, 0
1, 96917, Note_on_c, 0, 72, 102
1, 97004, Note_on_c, 0, 72, 0
1, 97004, Note_on_c, 0, 53, 0
1, 97005, Note_on_c, 0, 60, 0
1, 97005, Note_on_c, 0, 74, 102
1, 97006, Note_on_c, 0, 58, 102
1, 97090, Note_on_c, 0, 74, 0
1, 97091, Note_on_c, 0, 75, 102
1, 97175, Note_on_c, 0, 75, 0
1, 97175, Note_on_c, 0, 72, 102
1, 97176, Note_on_c, 0, 46, 102
1, 97259, Note_on_c, 0, 72, 0
1, 97260, Note_on_c, 0, 74, 102
1, 97344, Note_on_c, 0, 74, 0
1, 97344, Note_on_c, 0, 46, 0
1, 97344, Note_on_c, 0, 58, 0
1, 97345, Note_on_c, 0, 65, 0
1, 97345, Note_on_c, 0, 75, 102
1, 97346, Note_on_c, 0, 57, 102
1, 97346, Note_on_c, 0, 60, 102
1, 97347, Note_on_c, 0, 48, 102
1, 97428, Note_on_c, 0, 75, 0
1, 97428, Note_on_c, 0, 72, 102
1, 97511, Note_on_c, 0, 72, 0
1, 97511, Note_on_c, 0, 48, 0
1, 97512, Note_on_c, 0, 60, 0
1, 97512, Note_on_c, 0, 74, 102
1, 97512, Note_on_c, 0, 60, 102
1, 97597, Note_on_c, 0, 60, 0
1, 97597, Note_on_c, 0, 74, 0
1, 97598, Note_on_c, 0, 75, 102
1, 97598, Note_on_c, 0, 58, 102
1, 97683, Note_on_c, 0, 58, 0
1, 97683, Note_on_c, 0, 75, 0
1, 97683, Note_on_c, 0, 57, 0
1, 97684, Note_on_c, 0, 77, 102
1, 97684, Note_on_c, 0, 62, 102
1, 97685, Note_on_c, 0, 56, 102
1, 97764, Note_on_c, 0, 77, 0
1, 97765, Note_on_c, 0, 75, 102
1, 97849, Note_on_c, 0, 75, 0
1, 97849, Note_on_c, 0, 56, 0
1, 97850, Note_on_c, 0, 74, 102
1, 97850, Note_on_c, 0, 58, 102
1, 97936, Note_on_c, 0, 58, 0
1, 97936, Note_on_c, 0, 74, 0
1, 97937, Note_on_c, 0, 72, 102
1, 97938, Note_on_c, 0, 56, 102
1, 98025, Note_on_c, 0, 56, 0
1, 98025, Note_on_c, 0, 72, 0
1, 98026, Note_on_c, 0, 62, 0
1, 98026, Note_on_c, 0, 70, 102
1, 98026, Note_on_c, 0, 63, 102
1, 98027, Note_on_c, 0, 55, 102
1, 98113, Note_on_c, 0, 60, 102
1, 98199, Note_on_c, 0, 60, 0
1, 98200, Note_on_c, 0, 55, 0
1, 98200, Note_on_c, 0, 62, 102
1, 98201, Note_on_c, 0, 46, 102
1, 98284, Note_on_c, 0, 46, 0
1, 98284, Note_on_c, 0, 62, 0
1, 98285, Note_on_c, 0, 63, 102
1, 98285, Note_on_c, 0, 48, 102
1, 98366, Note_on_c, 0, 48, 0
1, 98367, Note_on_c, 0, 63, 0
1, 98367, Note_on_c, 0, 63, 0
1, 98368, Note_on_c, 0, 65, 102
1, 98368, Note_on_c, 0, 50, 102
1, 98369, Note_on_c, 0, 56, 102
1, 98450, Note_on_c, 0, 65, 0
1, 98450, Note_on_c, 0, 63, 102
1, 98534, Note_on_c, 0, 63, 0
1, 98535, Note_on_c, 0, 50, 0
1, 98535, Note_on_c, 0, 62, 102
1, 98536, Note_on_c, 0, 48, 102
1, 98620, Note_on_c, 0, 48, 0
1, 98620, Note_on_c, 0, 62, 0
1, 98621, Note_on_c, 0, 60, 102
1, 98621, Note_on_c, 0, 50, 102
1, 98706, Note_on_c, 0, 60, 0
1, 98707, Note_on_c, 0, 50, 0
1, 98707, Note_on_c, 0, 56, 0
1, 98708, Note_on_c, 0, 58, 102
1, 98708, Note_on_c, 0, 51, 102
1, 98709, Note_on_c, 0, 55, 102
1, 98792, Note_on_c, 0, 70, 0
1, 98792, Note_on_c, 0, 68, 102
1, 98878, Note_on_c, 0, 68, 0
1, 98879, Note_on_c, 0, 51, 0
1, 98879, Note_on_c, 0, 67, 102
1, 98880, Note_on_c, 0, 51, 102
1, 98965, Note_on_c, 0, 51, 0
1, 98966, Note_on_c, 0, 67, 0
1, 98966, Note_on_c, 0, 65, 102
1, 98967, Note_on_c, 0, 50, 102
1, 99052, Note_on_c, 0, 50, 0
1, 99052, Note_on_c, 0, 65, 0
1, 99053, Note_on_c, 0, 55, 0
1, 99053, Note_on_c, 0, 63, 102
1, 99054, Note_on_c, 0, 54, 102
1, 99054, Note_on_c, 0, 48, 102
1, 99227, Note_on_c, 0, 48, 0
1, 99227, Note_on_c, 0, 58, 0
1, 99228, Note_on_c, 0, 57, 102
1, 99228, Note_on_c, 0, 48, 102
1, 99314, Note_on_c, 0, 48, 0
1, 99314, Note_on_c, 0, 57, 0
1, 99315, Note_on_c, 0, 58, 102
1, 99315, Note_on_c, 0, 46, 102
1, 99402, Note_on_c, 0, 46, 0
1, 99403, Note_on_c, 0, 58, 0
1, 99403, Note_on_c, 0, 54, 0
1, 99404, Note_on_c, 0, 53, 102
1, 99404, Note_on_c, 0, 60, 102
1, 99405, Note_on_c, 0, 45, 102
1, 99475, Note_on_c, 0, 63, 0
1, 99490, Note_on_c, 0, 63, 102
1, 99578, Note_on_c, 0, 63, 0
1, 99578, Note_on_c, 0, 65, 102
1, 99665, Note_on_c, 0, 65, 0
1, 99666, Note_on_c, 0, 63, 102
1, 99753, Note_on_c, 0, 63, 0
1, 99753, Note_on_c, 0, 45, 0
1, 99754, Note_on_c, 0, 60, 0
1, 99754, Note_on_c, 0, 62, 102
1, 99755, Note_on_c, 0, 58, 102
1, 99755, Note_on_c, 0, 46, 102
1, 99841, Note_on_c, 0, 62, 0
1, 99841, Note_on_c, 0, 72, 102
1, 99928, Note_on_c, 0, 72, 0
1, 99929, Note_on_c, 0, 70, 102
1, 100016, Note_on_c, 0, 70, 0
1, 100016, Note_on_c, 0, 68, 102
1, 100103, Note_on_c, 0, 68, 0
1, 100104, Note_on_c, 0, 46, 0
1, 100104, Note_on_c, 0, 53, 0
1, 100104, Note_on_c, 0, 67, 102
1, 100105, Note_on_c, 0, 51, 102
1, 100276, Note_on_c, 0, 67, 0
1, 100277, Note_on_c, 0, 58, 0
1, 100277, Note_on_c, 0, 70, 102
1, 100278, Note_on_c, 0, 63, 102
1, 100364, Note_on_c, 0, 63, 0
1, 100364, Note_on_c, 0, 65, 102
1, 100452, Note_on_c, 0, 65, 0
1, 100452, Note_on_c, 0, 70, 0
1, 100453, Note_on_c, 0, 51, 0
1, 100453, Note_on_c, 0, 75, 102
1, 100454, Note_on_c, 0, 67, 102
1, 100630, Note_on_c, 0, 67, 0
1, 100630, Note_on_c, 0, 51, 102
1, 100631, Note_on_c, 0, 67, 102
1, 100719, Note_on_c, 0, 67, 0
1, 100719, Note_on_c, 0, 51, 0
1, 100720, Note_on_c, 0, 68, 102
1, 100720, Note_on_c, 0, 53, 102
1, 100807, Note_on_c, 0, 53, 0
1, 100808, Note_on_c, 0, 68, 0
1, 100808, Note_on_c, 0, 70, 102
1, 100809, Note_on_c, 0, 55, 102
1, 100896, Note_on_c, 0, 75, 0
1, 100896, Note_on_c, 0, 79, 102
1, 100984, Note_on_c, 0, 79, 0
1, 100984, Note_on_c, 0, 55, 0
1, 100985, Note_on_c, 0, 77, 102
1, 100985, Note_on_c, 0, 58, 102
1, 100986, Note_on_c, 0, 55, 102
1, 101070, Note_on_c, 0, 55, 0
1, 101071, Note_on_c, 0, 58, 0
1, 101071, Note_on_c, 0, 77, 0
1, 101072, Note_on_c, 0, 75, 102
1, 101072, Note_on_c, 0, 60, 102
1, 101073, Note_on_c, 0, 56, 102
1, 101158, Note_on_c, 0, 56, 0
1, 101158, Note_on_c, 0, 60, 0
1, 101159, Note_on_c, 0, 75, 0
1, 101159, Note_on_c, 0, 74, 102
1, 101160, Note_on_c, 0, 58, 102
1, 101160, Note_on_c, 0, 62, 102
1, 101244, Note_on_c, 0, 62, 0
1, 101244, Note_on_c, 0, 70, 0
1, 101245, Note_on_c, 0, 68, 102
1, 101245, Note_on_c, 0, 60, 102
1, 101330, Note_on_c, 0, 60, 0
1, 101331, Note_on_c, 0, 68, 0
1, 101331, Note_on_c, 0, 58, 0
1, 101332, Note_on_c, 0, 67, 102
1, 101332, Note_on_c, 0, 58, 102
1, 101333, Note_on_c, 0, 46, 102
1, 101420, Note_on_c, 0, 58, 0
1, 101420, Note_on_c, 0, 67, 0
1, 101421, Note_on_c, 0, 56, 102
1, 101421, Note_on_c, 0, 65, 102
1, 101509, Note_on_c, 0, 65, 0
1, 101509, Note_on_c, 0, 56, 0
1, 101510, Note_on_c, 0, 46, 0
1, 101510, Note_on_c, 0, 63, 102
1, 101511, Note_on_c, 0, 55, 102
1, 101511, Note_on_c, 0, 48, 102
1, 101599, Note_on_c, 0, 63, 0
1, 101600, Note_on_c, 0, 62, 102
1, 101689, Note_on_c, 0, 62, 0
1, 101690, Note_on_c, 0, 74, 0
1, 101690, Note_on_c, 0, 67, 102
1, 101691, Note_on_c, 0, 60, 102
1, 101778, Note_on_c, 0, 60, 0
1, 101778, Note_on_c, 0, 62, 102
1, 101867, Note_on_c, 0, 62, 0
1, 101868, Note_on_c, 0, 67, 0
1, 101868, Note_on_c, 0, 55, 0
1, 101868, Note_on_c, 0, 48, 0
1, 101869, Note_on_c, 0, 72, 102
1, 101869, Note_on_c, 0, 63, 102
1, 102045, Note_on_c, 0, 63, 0
1, 102045, Note_on_c, 0, 63, 102
1, 102046, Note_on_c, 0, 48, 102
1, 102134, Note_on_c, 0, 48, 0
1, 102134, Note_on_c, 0, 63, 0
1, 102135, Note_on_c, 0, 50, 102
1, 102135, Note_on_c, 0, 65, 102
1, 102223, Note_on_c, 0, 65, 0
1, 102223, Note_on_c, 0, 50, 0
1, 102223, Note_on_c, 0, 67, 102
1, 102224, Note_on_c, 0, 51, 102
1, 102311, Note_on_c, 0, 72, 0
1, 102311, Note_on_c, 0, 75, 102
1, 102397, Note_on_c, 0, 75, 0
1, 102397, Note_on_c, 0, 51, 0
1, 102398, Note_on_c, 0, 74, 102
1, 102398, Note_on_c, 0, 55, 102
1, 102399, Note_on_c, 0, 51, 102
1, 102483, Note_on_c, 0, 51, 0
1, 102483, Note_on_c, 0, 55, 0
1, 102483, Note_on_c, 0, 74, 0
1, 102484, Note_on_c, 0, 72, 102
1, 102484, Note_on_c, 0, 56, 102
1, 102485, Note_on_c, 0, 53, 102
1, 102568, Note_on_c, 0, 53, 0
1, 102569, Note_on_c, 0, 56, 0
1, 102569, Note_on_c, 0, 72, 0
1, 102570, Note_on_c, 0, 70, 102
1, 102570, Note_on_c, 0, 55, 102
1, 102570, Note_on_c, 0, 58, 102
1, 102653, Note_on_c, 0, 58, 0
1, 102653, Note_on_c, 0, 67, 0
1, 102654, Note_on_c, 0, 65, 102
1, 102654, Note_on_c, 0, 56, 102
1, 102738, Note_on_c, 0, 65, 0
1, 102739, Note_on_c, 0, 56, 0
1, 102739, Note_on_c, 0, 55, 0
1, 102740, Note_on_c, 0, 63, 102
1, 102740, Note_on_c, 0, 55, 102
1, 102740, Note_on_c, 0, 43, 102
1, 102825, Note_on_c, 0, 55, 0
1, 102825, Note_on_c, 0, 63, 0
1, 102826, Note_on_c, 0, 53, 102
1, 102826, Note_on_c, 0, 61, 102
1, 102912, Note_on_c, 0, 61, 0
1, 102912, Note_on_c, 0, 53, 0
1, 102913, Note_on_c, 0, 43, 0
1, 102913, Note_on_c, 0, 60, 102
1, 102914, Note_on_c, 0, 51, 102
1, 102914, Note_on_c, 0, 44, 102
1, 102999, Note_on_c, 0, 60, 0
1, 103000, Note_on_c, 0, 58, 102
1, 103088, Note_on_c, 0, 58, 0
1, 103088, Note_on_c, 0, 70, 0
1, 103089, Note_on_c, 0, 63, 102
1, 103089, Note_on_c, 0, 56, 102
1, 103176, Note_on_c, 0, 56, 0
1, 103176, Note_on_c, 0, 58, 102
1, 103265, Note_on_c, 0, 58, 0
1, 103266, Note_on_c, 0, 63, 0
1, 103266, Note_on_c, 0, 44, 0
1, 103267, Note_on_c, 0, 51, 0
1, 103267, Note_on_c, 0, 68, 102
1, 103268, Note_on_c, 0, 60, 102
1, 103443, Note_on_c, 0, 60, 0
1, 103443, Note_on_c, 0, 60, 102
1, 103444, Note_on_c, 0, 44, 102
1, 103532, Note_on_c, 0, 44, 0
1, 103533, Note_on_c, 0, 60, 0
1, 103533, Note_on_c, 0, 62, 102
1, 103534, Note_on_c, 0, 46, 102
1, 103620, Note_on_c, 0, 46, 0
1, 103621, Note_on_c, 0, 62, 0
1, 103621, Note_on_c, 0, 63, 102
1, 103622, Note_on_c, 0, 48, 102
1, 103708, Note_on_c, 0, 68, 0
1, 103708, Note_on_c, 0, 72, 102
1, 103794, Note_on_c, 0, 72, 0
1, 103795, Note_on_c, 0, 48, 0
1, 103795, Note_on_c, 0, 70, 102
1, 103796, Note_on_c, 0, 51, 102
1, 103796, Note_on_c, 0, 48, 102
1, 103880, Note_on_c, 0, 48, 0
1, 103880, Note_on_c, 0, 51, 0
1, 103881, Note_on_c, 0, 70, 0
1, 103881, Note_on_c, 0, 68, 102
1, 103882, Note_on_c, 0, 50, 102
1, 103882, Note_on_c, 0, 53, 102
1, 103966, Note_on_c, 0, 50, 0
1, 103967, Note_on_c, 0, 53, 0
1, 103967, Note_on_c, 0, 68, 0
1, 103968, Note_on_c, 0, 67, 102
1, 103968, Note_on_c, 0, 55, 102
1, 103968, Note_on_c, 0, 51, 102
1, 104053, Note_on_c, 0, 55, 0
1, 104054, Note_on_c, 0, 63, 0
1, 104054, Note_on_c, 0, 53, 102
1, 104055, Note_on_c, 0, 62, 102
1, 104142, Note_on_c, 0, 62, 0
1, 104142, Note_on_c, 0, 53, 0
1, 104143, Note_on_c, 0, 51, 0
1, 104143, Note_on_c, 0, 60, 102
1, 104144, Note_on_c, 0, 51, 102
1, 104144, Note_on_c, 0, 39, 102
1, 104229, Note_on_c, 0, 51, 0
1, 104230, Note_on_c, 0, 60, 0
1, 104230, Note_on_c, 0, 50, 102
1, 104231, Note_on_c, 0, 58, 102
1, 104316, Note_on_c, 0, 58, 0
1, 104316, Note_on_c, 0, 50, 0
1, 104316, Note_on_c, 0, 39, 0
1, 104317, Note_on_c, 0, 56, 102
1, 104317, Note_on_c, 0, 41, 102
1, 104318, Note_on_c, 0, 48, 102
1, 104402, Note_on_c, 0, 67, 0
1, 104402, Note_on_c, 0, 65, 102
1, 104488, Note_on_c, 0, 65, 0
1, 104489, Note_on_c, 0, 48, 0
1, 104489, Note_on_c, 0, 41, 0
1, 104490, Note_on_c, 0, 56, 0
1, 104490, Note_on_c, 0, 68, 102
1, 104491, Note_on_c, 0, 50, 102
1, 104491, Note_on_c, 0, 47, 102
1, 104492, Note_on_c, 0, 43, 102
1, 104576, Note_on_c, 0, 50, 0
1, 104576, Note_on_c, 0, 68, 0
1, 104577, Note_on_c, 0, 51, 102
1, 104577, Note_on_c, 0, 67, 102
1, 104662, Note_on_c, 0, 51, 0
1, 104663, Note_on_c, 0, 67, 0
1, 104663, Note_on_c, 0, 43, 0
1, 104664, Note_on_c, 0, 47, 0
1, 104664, Note_on_c, 0, 65, 102
1, 104664, Note_on_c, 0, 53, 102
1, 104665, Note_on_c, 0, 48, 102
1, 104665, Note_on_c, 0, 44, 102
1, 104749, Note_on_c, 0, 65, 0
1, 104749, Note_on_c, 0, 63, 102
1, 104837, Note_on_c, 0, 63, 0
1, 104838, Note_on_c, 0, 44, 0
1, 104838, Note_on_c, 0, 53, 0
1, 104838, Note_on_c, 0, 62, 102
1, 104839, Note_on_c, 0, 54, 102
1, 104839, Note_on_c, 0, 45, 102
1, 104925, Note_on_c, 0, 62, 0
1, 104925, Note_on_c, 0, 60, 102
1, 105013, Note_on_c, 0, 60, 0
1, 105013, Note_on_c, 0, 45, 0
1, 105014, Note_on_c, 0, 54, 0
1, 105014, Note_on_c, 0, 48, 0
1, 105014, Note_on_c, 0, 59, 102
1, 105015, Note_on_c, 0, 50, 102
1, 105015, Note_on_c, 0, 55, 102
1, 105016, Note_on_c, 0, 43, 102
1, 105188, Note_on_c, 0, 43, 0
1, 105188, Note_on_c, 0, 50, 0
1, 105189, Note_on_c, 0, 55, 0
1, 105189, Note_on_c, 0, 55, 102
1, 105276, Note_on_c, 0, 55, 0
1, 105276, Note_on_c, 0, 57, 102
1, 105363, Note_on_c, 0, 57, 0
1, 105364, Note_on_c, 0, 59, 0
1, 105364, Note_on_c, 0, 79, 102
1, 105365, Note_on_c, 0, 59, 102
1, 105539, Note_on_c, 0, 59, 0
1, 105540, Note_on_c, 0, 57, 102
1, 105627, Note_on_c, 0, 57, 0
1, 105628, Note_on_c, 0, 59, 102
1, 105715, Note_on_c, 0, 59, 0
1, 105715, Note_on_c, 0, 79, 0
1, 105716, Note_on_c, 0, 80, 102
1, 105716, Note_on_c, 0, 60, 102
1, 105803, Note_on_c, 0, 60, 0
1, 105804, Note_on_c, 0, 59, 102
1, 105890, Note_on_c, 0, 59, 0
1, 105891, Note_on_c, 0, 72, 95
1, 105891, Note_on_c, 0, 60, 102
1, 105978, Note_on_c, 0, 60, 0
1, 105978, Note_on_c, 0, 62, 102
1, 106065, Note_on_c, 0, 62, 0
1, 106066, Note_on_c, 0, 80, 0
1, 106066, Note_on_c, 0, 79, 102
1, 106067, Note_on_c, 0, 63, 102
1, 106238, Note_on_c, 0, 72, 0
1, 106238, Note_on_c, 0, 70, 102
1, 106414, Note_on_c, 0, 70, 0
1, 106414, Note_on_c, 0, 63, 0
1, 106415, Note_on_c, 0, 79, 0
1, 106415, Note_on_c, 0, 78, 102
1, 106416, Note_on_c, 0, 69, 102
1, 106501, Note_on_c, 0, 60, 102
1, 106588, Note_on_c, 0, 60, 0
1, 106589, Note_on_c, 0, 69, 0
1, 106589, Note_on_c, 0, 70, 102
1, 106590, Note_on_c, 0, 62, 102
1, 106677, Note_on_c, 0, 62, 0
1, 106677, Note_on_c, 0, 70, 0
1, 106678, Note_on_c, 0, 72, 102
1, 106678, Note_on_c, 0, 63, 102
1, 106764, Note_on_c, 0, 63, 0
1, 106764, Note_on_c, 0, 72, 0
1, 106765, Note_on_c, 0, 78, 0
1, 106765, Note_on_c, 0, 83, 102
1, 106766, Note_on_c, 0, 74, 102
1, 106766, Note_on_c, 0, 65, 102
1, 106852, Note_on_c, 0, 74, 0
1, 106853, Note_on_c, 0, 72, 102
1, 106940, Note_on_c, 0, 72, 0
1, 106940, Note_on_c, 0, 71, 102
1, 107028, Note_on_c, 0, 71, 0
1, 107028, Note_on_c, 0, 69, 102
1, 107114, Note_on_c, 0, 69, 0
1, 107115, Note_on_c, 0, 83, 0
1, 107116, Note_on_c, 0, 84, 102
1, 107116, Note_on_c, 0, 67, 102
1, 107202, Note_on_c, 0, 65, 0
1, 107203, Note_on_c, 0, 63, 102
1, 107289, Note_on_c, 0, 63, 0
1, 107289, Note_on_c, 0, 65, 102
1, 107376, Note_on_c, 0, 65, 0
1, 107376, Note_on_c, 0, 67, 102
1, 107462, Note_on_c, 0, 67, 0
1, 107463, Note_on_c, 0, 67, 0
1, 107463, Note_on_c, 0, 84, 0
1, 107464, Note_on_c, 0, 68, 102
1, 107464, Note_on_c, 0, 77, 102
1, 107550, Note_on_c, 0, 55, 102
1, 107636, Note_on_c, 0, 55, 0
1, 107637, Note_on_c, 0, 56, 102
1, 107723, Note_on_c, 0, 56, 0
1, 107723, Note_on_c, 0, 58, 102
1, 107810, Note_on_c, 0, 58, 0
1, 107810, Note_on_c, 0, 68, 0
1, 107811, Note_on_c, 0, 77, 0
1, 107811, Note_on_c, 0, 76, 102
1, 107812, Note_on_c, 0, 60, 102
1, 107896, Note_on_c, 0, 67, 102
1, 107983, Note_on_c, 0, 67, 0
1, 107983, Note_on_c, 0, 69, 102
1, 108070, Note_on_c, 0, 69, 0
1, 108071, Note_on_c, 0, 71, 102
1, 108156, Note_on_c, 0, 71, 0
1, 108157, Note_on_c, 0, 60, 0
1, 108157, Note_on_c, 0, 76, 0
1, 108158, Note_on_c, 0, 72, 102
1, 108158, Note_on_c, 0, 75, 102
1, 108243, Note_on_c, 0, 60, 102
1, 108328, Note_on_c, 0, 60, 0
1, 108329, Note_on_c, 0, 62, 102
1, 108414, Note_on_c, 0, 62, 0
1, 108414, Note_on_c, 0, 64, 102
1, 108500, Note_on_c, 0, 64, 0
1, 108501, Note_on_c, 0, 75, 0
1, 108501, Note_on_c, 0, 74, 102
1, 108502, Note_on_c, 0, 65, 102
1, 108586, Note_on_c, 0, 65, 0
1, 108586, Note_on_c, 0, 62, 102
1, 108671, Note_on_c, 0, 62, 0
1, 108672, Note_on_c, 0, 72, 0
1, 108672, Note_on_c, 0, 71, 102
1, 108672, Note_on_c, 0, 64, 102
1, 108756, Note_on_c, 0, 64, 0
1, 108756, Note_on_c, 0, 71, 0
1, 108756, Note_on_c, 0, 69, 102
1, 108757, Note_on_c, 0, 65, 102
1, 108840, Note_on_c, 0, 65, 0
1, 108840, Note_on_c, 0, 69, 0
1, 108841, Note_on_c, 0, 71, 102
1, 108841, Note_on_c, 0, 67, 102
1, 108924, Note_on_c, 0, 67, 0
1, 108925, Note_on_c, 0, 71, 0
1, 108925, Note_on_c, 0, 68, 102
1, 108926, Note_on_c, 0, 72, 102
1, 109008, Note_on_c, 0, 72, 0
1, 109008, Note_on_c, 0, 68, 0
1, 109009, Note_on_c, 0, 71, 102
1, 109009, Note_on_c, 0, 67, 102
1, 109092, Note_on_c, 0, 67, 0
1, 109092, Note_on_c, 0, 71, 0
1, 109092, Note_on_c, 0, 74, 102
1, 109093, Note_on_c, 0, 65, 102
1, 109176, Note_on_c, 0, 65, 0
1, 109176, Note_on_c, 0, 74, 0
1, 109177, Note_on_c, 0, 67, 102
1, 109177, Note_on_c, 0, 63, 102
1, 109260, Note_on_c, 0, 63, 0
1, 109261, Note_on_c, 0, 65, 102
1, 109345, Note_on_c, 0, 65, 0
1, 109345, Note_on_c, 0, 74, 0
1, 109346, Note_on_c, 0, 72, 102
1, 109346, Note_on_c, 0, 63, 102
1, 109430, Note_on_c, 0, 63, 0
1, 109430, Note_on_c, 0, 72, 0
1, 109430, Note_on_c, 0, 74, 102
1, 109431, Note_on_c, 0, 62, 102
1, 109514, Note_on_c, 0, 62, 0
1, 109515, Note_on_c, 0, 74, 0
1, 109515, Note_on_c, 0, 67, 0
1, 109515, Note_on_c, 0, 75, 102
1, 109516, Note_on_c, 0, 60, 102
1, 109685, Note_on_c, 0, 60, 0
1, 109686, Note_on_c, 0, 60, 102
1, 109686, Note_on_c, 0, 67, 102
1, 109772, Note_on_c, 0, 60, 0
1, 109772, Note_on_c, 0, 58, 102
1, 109857, Note_on_c, 0, 58, 0
1, 109858, Note_on_c, 0, 67, 0
1, 109858, Note_on_c, 0, 57, 102
1, 109859, Note_on_c, 0, 60, 102
1, 110027, Note_on_c, 0, 60, 0
1, 110028, Note_on_c, 0, 57, 0
1, 110028, Note_on_c, 0, 72, 102
1, 110028, Note_on_c, 0, 57, 102
1, 110112, Note_on_c, 0, 57, 0
1, 110113, Note_on_c, 0, 72, 0
1, 110113, Note_on_c, 0, 70, 102
1, 110114, Note_on_c, 0, 55, 102
1, 110198, Note_on_c, 0, 55, 0
1, 110198, Note_on_c, 0, 70, 0
1, 110199, Note_on_c, 0, 69, 102
1, 110199, Note_on_c, 0, 53, 102
1, 110370, Note_on_c, 0, 53, 0
1, 110370, Note_on_c, 0, 69, 0
1, 110371, Note_on_c, 0, 70, 102
1, 110371, Note_on_c, 0, 55, 102
1, 110457, Note_on_c, 0, 55, 0
1, 110458, Note_on_c, 0, 70, 0
1, 110458, Note_on_c, 0, 72, 102
1, 110459, Note_on_c, 0, 57, 102
1, 110544, Note_on_c, 0, 57, 0
1, 110545, Note_on_c, 0, 72, 0
1, 110545, Note_on_c, 0, 65, 102
1, 110546, Note_on_c, 0, 58, 102
1, 110719, Note_on_c, 0, 58, 0
1, 110720, Note_on_c, 0, 65, 0
1, 110720, Note_on_c, 0, 75, 0
1, 110721, Note_on_c, 0, 70, 102
1, 110721, Note_on_c, 0, 74, 102
1, 110722, Note_on_c, 0, 65, 102
1, 110807, Note_on_c, 0, 65, 0
1, 110807, Note_on_c, 0, 74, 0
1, 110808, Note_on_c, 0, 75, 102
1, 110808, Note_on_c, 0, 63, 102
1, 110895, Note_on_c, 0, 63, 0
1, 110895, Note_on_c, 0, 75, 0
1, 110896, Note_on_c, 0, 70, 0
1, 110896, Note_on_c, 0, 77, 102
1, 110897, Note_on_c, 0, 62, 102
1, 111070, Note_on_c, 0, 62, 0
1, 111070, Note_on_c, 0, 68, 102
1, 111071, Note_on_c, 0, 62, 102
1, 111156, Note_on_c, 0, 62, 0
1, 111156, Note_on_c, 0, 60, 102
1, 111241, Note_on_c, 0, 60, 0
1, 111242, Note_on_c, 0, 68, 0
1, 111242, Note_on_c, 0, 59, 102
1, 111243, Note_on_c, 0, 67, 102
1, 111415, Note_on_c, 0, 67, 0
1, 111416, Note_on_c, 0, 59, 0
1, 111416, Note_on_c, 0, 74, 102
1, 111417, Note_on_c, 0, 59, 102
1, 111502, Note_on_c, 0, 59, 0
1, 111502, Note_on_c, 0, 74, 0
1, 111503, Note_on_c, 0, 72, 102
1, 111503, Note_on_c, 0, 57, 102
1, 111588, Note_on_c, 0, 57, 0
1, 111588, Note_on_c, 0, 72, 0
1, 111589, Note_on_c, 0, 71, 102
1, 111589, Note_on_c, 0, 55, 102
1, 111762, Note_on_c, 0, 55, 0
1, 111762, Note_on_c, 0, 71, 0
1, 111763, Note_on_c, 0, 72, 102
1, 111763, Note_on_c, 0, 57, 102
1, 111849, Note_on_c, 0, 57, 0
1, 111849, Note_on_c, 0, 72, 0
1, 111849, Note_on_c, 0, 74, 102
1, 111850, Note_on_c, 0, 59, 102
1, 111936, Note_on_c, 0, 59, 0
1, 111936, Note_on_c, 0, 74, 0
1, 111936, Note_on_c, 0, 67, 102
1, 111937, Note_on_c, 0, 60, 102
1, 112023, Note_on_c, 0, 77, 0
1, 112023, Note_on_c, 0, 74, 102
1, 112110, Note_on_c, 0, 74, 0
1, 112110, Note_on_c, 0, 60, 0
1, 112111, Note_on_c, 0, 76, 102
1, 112111, Note_on_c, 0, 58, 102
1, 112196, Note_on_c, 0, 58, 0
1, 112197, Note_on_c, 0, 76, 0
1, 112197, Note_on_c, 0, 79, 102
1, 112198, Note_on_c, 0, 56, 102
1, 112284, Note_on_c, 0, 56, 0
1, 112285, Note_on_c, 0, 79, 0
1, 112285, Note_on_c, 0, 67, 0
1, 112286, Note_on_c, 0, 70, 102
1, 112286, Note_on_c, 0, 55, 102
1, 112460, Note_on_c, 0, 55, 0
1, 112461, Note_on_c, 0, 55, 102
1, 112462, Note_on_c, 0, 61, 102
1, 112548, Note_on_c, 0, 55, 0
1, 112548, Note_on_c, 0, 53, 102
1, 112634, Note_on_c, 0, 53, 0
1, 112634, Note_on_c, 0, 61, 0
1, 112635, Note_on_c, 0, 60, 102
1, 112635, Note_on_c, 0, 52, 102
1, 112802, Note_on_c, 0, 52, 0
1, 112802, Note_on_c, 0, 60, 0
1, 112803, Note_on_c, 0, 52, 102
1, 112803, Note_on_c, 0, 67, 102
1, 112887, Note_on_c, 0, 67, 0
1, 112888, Note_on_c, 0, 52, 0
1, 112888, Note_on_c, 0, 50, 102
1, 112889, Note_on_c, 0, 65, 102
1, 112974, Note_on_c, 0, 65, 0
1, 112974, Note_on_c, 0, 50, 0
1, 112975, Note_on_c, 0, 64, 102
1, 112975, Note_on_c, 0, 48, 102
1, 113148, Note_on_c, 0, 48, 0
1, 113148, Note_on_c, 0, 64, 0
1, 113148, Note_on_c, 0, 50, 102
1, 113149, Note_on_c, 0, 65, 102
1, 113236, Note_on_c, 0, 65, 0
1, 113236, Note_on_c, 0, 50, 0
1, 113237, Note_on_c, 0, 67, 102
1, 113237, Note_on_c, 0, 52, 102
1, 113323, Note_on_c, 0, 67, 0
1, 113324, Note_on_c, 0, 52, 0
1, 113324, Note_on_c, 0, 60, 102
1, 113325, Note_on_c, 0, 53, 102
1, 113411, Note_on_c, 0, 53, 0
1, 113411, Note_on_c, 0, 55, 102
1, 113497, Note_on_c, 0, 55, 0
1, 113497, Note_on_c, 0, 60, 0
1, 113498, Note_on_c, 0, 70, 0
1, 113498, Note_on_c, 0, 68, 86
1, 113499, Note_on_c, 0, 65, 102
1, 113499, Note_on_c, 0, 56, 102
1, 113584, Note_on_c, 0, 56, 0
1, 113585, Note_on_c, 0, 58, 102
1, 113672, Note_on_c, 0, 58, 0
1, 113672, Note_on_c, 0, 68, 0
1, 113673, Note_on_c, 0, 60, 102
1, 113673, Note_on_c, 0, 67, 102
1, 113674, Note_on_c, 0, 48, 102
1, 113848, Note_on_c, 0, 65, 0
1, 113849, Note_on_c, 0, 64, 102
1, 114024, Note_on_c, 0, 64, 0
1, 114024, Note_on_c, 0, 48, 0
1, 114025, Note_on_c, 0, 67, 0
1, 114025, Note_on_c, 0, 49, 102
1, 114026, Note_on_c, 0, 65, 102
1, 114112, Note_on_c, 0, 64, 102
1, 114200, Note_on_c, 0, 64, 0
1, 114200, Note_on_c, 0, 60, 0
1, 114201, Note_on_c, 0, 58, 102
1, 114201, Note_on_c, 0, 65, 102
1, 114288, Note_on_c, 0, 65, 0
1, 114288, Note_on_c, 0, 67, 102
1, 114375, Note_on_c, 0, 67, 0
1, 114375, Note_on_c, 0, 58, 0
1, 114376, Note_on_c, 0, 49, 0
1, 114376, Note_on_c, 0, 65, 0
1, 114376, Note_on_c, 0, 68, 102
1, 114377, Note_on_c, 0, 48, 102
1, 114461, Note_on_c, 0, 67, 102
1, 114549, Note_on_c, 0, 67, 0
1, 114549, Note_on_c, 0, 56, 102
1, 114550, Note_on_c, 0, 65, 102
1, 114635, Note_on_c, 0, 65, 0
1, 114636, Note_on_c, 0, 63, 102
1, 114721, Note_on_c, 0, 63, 0
1, 114722, Note_on_c, 0, 48, 0
1, 114722, Note_on_c, 0, 68, 0
1, 114723, Note_on_c, 0, 62, 102
1, 114723, Note_on_c, 0, 47, 102
1, 114808, Note_on_c, 0, 65, 102
1, 114893, Note_on_c, 0, 65, 0
1, 114894, Note_on_c, 0, 56, 0
1, 114894, Note_on_c, 0, 67, 102
1, 114895, Note_on_c, 0, 55, 102
1, 114979, Note_on_c, 0, 55, 0
1, 114979, Note_on_c, 0, 67, 0
1, 114980, Note_on_c, 0, 68, 102
1, 114980, Note_on_c, 0, 53, 102
1, 115065, Note_on_c, 0, 53, 0
1, 115066, Note_on_c, 0, 68, 0
1, 115066, Note_on_c, 0, 47, 0
1, 115067, Note_on_c, 0, 62, 0
1, 115067, Note_on_c, 0, 70, 102
1, 115068, Note_on_c, 0, 52, 102
1, 115068, Note_on_c, 0, 55, 102
1, 115152, Note_on_c, 0, 55, 0
1, 115153, Note_on_c, 0, 58, 102
1, 115239, Note_on_c, 0, 58, 0
1, 115239, Note_on_c, 0, 56, 102
1, 115240, Note_on_c, 0, 61, 102
1, 115324, Note_on_c, 0, 56, 0
1, 115325, Note_on_c, 0, 55, 102
1, 115409, Note_on_c, 0, 55, 0
1, 115409, Note_on_c, 0, 52, 0
1, 115410, Note_on_c, 0, 70, 0
1, 115410, Note_on_c, 0, 53, 102
1, 115494, Note_on_c, 0, 68, 102
1, 115579, Note_on_c, 0, 68, 0
1, 115579, Note_on_c, 0, 61, 0
1, 115580, Note_on_c, 0, 70, 102
1, 115580, Note_on_c, 0, 60, 102
1, 115581, Note_on_c, 0, 55, 102
1, 115664, Note_on_c, 0, 55, 0
1, 115665, Note_on_c, 0, 70, 0
1, 115665, Note_on_c, 0, 72, 102
1, 115666, Note_on_c, 0, 56, 102
1, 115751, Note_on_c, 0, 56, 0
1, 115751, Note_on_c, 0, 72, 0
1, 115752, Note_on_c, 0, 60, 0
1, 115752, Note_on_c, 0, 53, 0
1, 115752, Note_on_c, 0, 73, 102
1, 115753, Note_on_c, 0, 58, 102
1, 115753, Note_on_c, 0, 46, 102
1, 115838, Note_on_c, 0, 58, 0
1, 115838, Note_on_c, 0, 53, 102
1, 115925, Note_on_c, 0, 53, 0
1, 115926, Note_on_c, 0, 66, 102
1, 115926, Note_on_c, 0, 51, 102
1, 116014, Note_on_c, 0, 51, 0
1, 116014, Note_on_c, 0, 49, 102
1, 116100, Note_on_c, 0, 49, 0
1, 116100, Note_on_c, 0, 46, 0
1, 116101, Note_on_c, 0, 73, 0
1, 116101, Note_on_c, 0, 45, 102
1, 116102, Note_on_c, 0, 48, 102
1, 116187, Note_on_c, 0, 72, 102
1, 116276, Note_on_c, 0, 72, 0
1, 116276, Note_on_c, 0, 66, 0
1, 116277, Note_on_c, 0, 74, 102
1, 116277, Note_on_c, 0, 65, 102
1, 116364, Note_on_c, 0, 74, 0
1, 116364, Note_on_c, 0, 76, 102
1, 116450, Note_on_c, 0, 76, 0
1, 116450, Note_on_c, 0, 65, 0
1, 116450, Note_on_c, 0, 45, 0
1, 116451, Note_on_c, 0, 77, 102
1, 116451, Note_on_c, 0, 44, 102
1, 116536, Note_on_c, 0, 48, 0
1, 116536, Note_on_c, 0, 50, 102
1, 116537, Note_on_c, 0, 65, 102
1, 116626, Note_on_c, 0, 65, 0
1, 116626, Note_on_c, 0, 50, 0
1, 116626, Note_on_c, 0, 52, 102
1, 116627, Note_on_c, 0, 67, 102
1, 116714, Note_on_c, 0, 67, 0
1, 116714, Note_on_c, 0, 52, 0
1, 116715, Note_on_c, 0, 68, 102
1, 116715, Note_on_c, 0, 53, 102
1, 116802, Note_on_c, 0, 53, 0
1, 116803, Note_on_c, 0, 68, 0
1, 116803, Note_on_c, 0, 44, 0
1, 116804, Note_on_c, 0, 70, 102
1, 116804, Note_on_c, 0, 55, 102
1, 116804, Note_on_c, 0, 43, 102
1, 116978, Note_on_c, 0, 77, 0
1, 116978, Note_on_c, 0, 76, 102
1, 117066, Note_on_c, 0, 76, 0
1, 117067, Note_on_c, 0, 74, 102
1, 117153, Note_on_c, 0, 74, 0
1, 117153, Note_on_c, 0, 76, 102
1, 117237, Note_on_c, 0, 55, 0
1, 117238, Note_on_c, 0, 45, 102
1, 117323, Note_on_c, 0, 45, 0
1, 117323, Note_on_c, 0, 46, 102
1, 117407, Note_on_c, 0, 46, 0
1, 117408, Note_on_c, 0, 48, 102
1, 117492, Note_on_c, 0, 48, 0
1, 117492, Note_on_c, 0, 76, 0
1, 117492, Note_on_c, 0, 43, 0
1, 117493, Note_on_c, 0, 77, 102
1, 117493, Note_on_c, 0, 49, 102
1, 117494, Note_on_c, 0, 41, 102
1, 117575, Note_on_c, 0, 49, 0
1, 117576, Note_on_c, 0, 70, 0
1, 117576, Note_on_c, 0, 73, 102
1, 117576, Note_on_c, 0, 48, 102
1, 117659, Note_on_c, 0, 48, 0
1, 117659, Note_on_c, 0, 73, 0
1, 117660, Note_on_c, 0, 72, 102
1, 117660, Note_on_c, 0, 49, 102
1, 117743, Note_on_c, 0, 49, 0
1, 117744, Note_on_c, 0, 72, 0
1, 117744, Note_on_c, 0, 70, 102
1, 117744, Note_on_c, 0, 51, 102
1, 117827, Note_on_c, 0, 51, 0
1, 117827, Note_on_c, 0, 70, 0
1, 117828, Note_on_c, 0, 69, 102
1, 117828, Note_on_c, 0, 53, 102
1, 117896, Note_on_c, 0, 41, 0
1, 117909, Note_on_c, 0, 77, 0
1, 117910, Note_on_c, 0, 75, 102
1, 117910, Note_on_c, 0, 41, 102
1, 117992, Note_on_c, 0, 41, 0
1, 117992, Note_on_c, 0, 75, 0
1, 117993, Note_on_c, 0, 73, 102
1, 117993, Note_on_c, 0, 43, 102
1, 118075, Note_on_c, 0, 43, 0
1, 118076, Note_on_c, 0, 73, 0
1, 118076, Note_on_c, 0, 72, 102
1, 118077, Note_on_c, 0, 45, 102
1, 118160, Note_on_c, 0, 45, 0
1, 118160, Note_on_c, 0, 72, 0
1, 118161, Note_on_c, 0, 73, 102
1, 118161, Note_on_c, 0, 46, 102
1, 118230, Note_on_c, 0, 53, 0
1, 118244, Note_on_c, 0, 69, 0
1, 118245, Note_on_c, 0, 72, 102
1, 118245, Note_on_c, 0, 53, 102
1, 118328, Note_on_c, 0, 53, 0
1, 118328, Note_on_c, 0, 72, 0
1, 118329, Note_on_c, 0, 70, 102
1, 118329, Note_on_c, 0, 55, 102
1, 118412, Note_on_c, 0, 55, 0
1, 118413, Note_on_c, 0, 70, 0
1, 118413, Note_on_c, 0, 68, 102
1, 118414, Note_on_c, 0, 56, 102
1, 118498, Note_on_c, 0, 56, 0
1, 118498, Note_on_c, 0, 68, 0
1, 118499, Note_on_c, 0, 58, 102
1, 118499, Note_on_c, 0, 67, 102
1, 118585, Note_on_c, 0, 67, 0
1, 118585, Note_on_c, 0, 46, 0
1, 118586, Note_on_c, 0, 73, 0
1, 118586, Note_on_c, 0, 70, 102
1, 118587, Note_on_c, 0, 65, 102
1, 118587, Note_on_c, 0, 49, 102
1, 118670, Note_on_c, 0, 49, 0
1, 118671, Note_on_c, 0, 65, 0
1, 118671, Note_on_c, 0, 70, 0
1, 118672, Note_on_c, 0, 72, 102
1, 118672, Note_on_c, 0, 63, 102
1, 118673, Note_on_c, 0, 48, 102
1, 118756, Note_on_c, 0, 48, 0
1, 118756, Note_on_c, 0, 63, 0
1, 118757, Note_on_c, 0, 72, 0
1, 118757, Note_on_c, 0, 73, 102
1, 118758, Note_on_c, 0, 61, 102
1, 118758, Note_on_c, 0, 46, 102
1, 118842, Note_on_c, 0, 46, 0
1, 118842, Note_on_c, 0, 61, 0
1, 118842, Note_on_c, 0, 73, 0
1, 118843, Note_on_c, 0, 60, 102
1, 118843, Note_on_c, 0, 64, 102
1, 118844, Note_on_c, 0, 48, 102
1, 118914, Note_on_c, 0, 58, 0
1, 118929, Note_on_c, 0, 58, 102
1, 119015, Note_on_c, 0, 58, 0
1, 119016, Note_on_c, 0, 64, 0
1, 119016, Note_on_c, 0, 72, 102
1, 119016, Note_on_c, 0, 56, 102
1, 119103, Note_on_c, 0, 56, 0
1, 119103, Note_on_c, 0, 55, 102
1, 119189, Note_on_c, 0, 55, 0
1, 119190, Note_on_c, 0, 56, 102
1, 119278, Note_on_c, 0, 72, 0
1, 119278, Note_on_c, 0, 67, 102
1, 119367, Note_on_c, 0, 67, 0
1, 119367, Note_on_c, 0, 68, 102
1, 119452, Note_on_c, 0, 68, 0
1, 119453, Note_on_c, 0, 65, 102
1, 119544, Note_on_c, 0, 56, 0
1, 119544, Note_on_c, 0, 53, 102
1, 119580, Note_on_c, 0, 55, 102
1, 119587, Note_on_c, 0, 53, 0
1, 119614, Note_on_c, 0, 56, 102
1, 119620, Note_on_c, 0, 55, 0
1, 119639, Note_on_c, 0, 65, 0
1, 119639, Note_on_c, 0, 65, 102
1, 119647, Note_on_c, 0, 55, 102
1, 119653, Note_on_c, 0, 56, 0
1, 119679, Note_on_c, 0, 56, 102
1, 119684, Note_on_c, 0, 55, 0
1, 119711, Note_on_c, 0, 55, 102
1, 119717, Note_on_c, 0, 56, 0
1, 119727, Note_on_c, 0, 65, 0
1, 119727, Note_on_c, 0, 63, 102
1, 119747, Note_on_c, 0, 56, 102
1, 119754, Note_on_c, 0, 55, 0
1, 119785, Note_on_c, 0, 55, 102
1, 119792, Note_on_c, 0, 56, 0
1, 119825, Note_on_c, 0, 56, 102
1, 119832, Note_on_c, 0, 55, 0
1, 119833, Note_on_c, 0, 63, 0
1, 119833, Note_on_c, 0, 62, 102
1, 119867, Note_on_c, 0, 55, 102
1, 119875, Note_on_c, 0, 56, 0
1, 119909, Note_on_c, 0, 56, 102
1, 119917, Note_on_c, 0, 55, 0
1, 119947, Note_on_c, 0, 62, 0
1, 119947, Note_on_c, 0, 55, 102
1, 119951, Note_on_c, 0, 65, 102
1, 119957, Note_on_c, 0, 56, 0
1, 119985, Note_on_c, 0, 56, 102
1, 119988, Note_on_c, 0, 64, 102
1, 119992, Note_on_c, 0, 55, 0
1, 119995, Note_on_c, 0, 65, 0
1, 120023, Note_on_c, 0, 55, 102
1, 120026, Note_on_c, 0, 65, 102
1, 120029, Note_on_c, 0, 56, 0
1, 120033, Note_on_c, 0, 64, 0
1, 120060, Note_on_c, 0, 56, 102
1, 120062, Note_on_c, 0, 64, 102
1, 120066, Note_on_c, 0, 55, 0
1, 120070, Note_on_c, 0, 65, 0
1, 120095, Note_on_c, 0, 55, 102
1, 120098, Note_on_c, 0, 65, 102
1, 120101, Note_on_c, 0, 56, 0
1, 120104, Note_on_c, 0, 64, 0
1, 120130, Note_on_c, 0, 56, 102
1, 120133, Note_on_c, 0, 64, 102
1, 120137, Note_on_c, 0, 55, 0
1, 120140, Note_on_c, 0, 65, 0
1, 120177, Note_on_c, 0, 55, 102
1, 120187, Note_on_c, 0, 56, 0
1, 120605, Note_on_c, 0, 60, 0
1, 120612, Note_on_c, 0, 48, 0
1, 120612, Note_on_c, 0, 64, 0
1, 120613, Note_on_c, 0, 65, 82
1, 120613, Note_on_c, 0, 41, 90
1, 120616, Note_on_c, 0, 57, 82
1, 120621, Note_on_c, 0, 55, 0
1, 120621, Note_on_c, 0, 60, 82
1, 124728, Note_on_c, 0, 65, 0
1, 124728, Note_on_c, 0, 41, 0
1, 124729, Note_on_c, 0, 57, 0
1, 124731, Note_on_c, 0, 60, 0
1, 124731, End_track
0, 0, End_of_file
