0, 0, Header, 0, 1, 240
1, 0, Start_track
1, 0, Title_t, "--------"
1, 0, Time_signature, 1, 2, 24, 8
1, 0, Key_signature, 0, "major"
1, 0, Tempo, 500000
1, 0, Program_c, 0, 6
1, 0, Control_c, 0, 7, 100
1, 0, Control_c, 0, 10, 63
1, 0, Program_c, 0, 6
1, 0, Control_c, 0, 7, 105
1, 0, Control_c, 0, 10, 48
1, 0, Program_c, 0, 6
1, 0, Control_c, 0, 7, 105
1, 0, Control_c, 0, 10, 48
1, 336, Marker_t, "interpreted by (P) 1997 S.D. Rodrian  WTC Book1 Prelude & Fugue in G"
1, 2219, Control_c, 0, 10, 67
1, 2245, Program_c, 0, 0
1, 2249, Control_c, 0, 10, 79
1, 2251, Control_c, 0, 10, 60
1, 2256, Program_c, 0, 0
1, 2266, Control_c, 0, 10, 66
1, 2272, Program_c, 0, 0
1, 2288, Control_c, 0, 10, 75
1, 2293, Control_c, 0, 10, 58
1, 2307, Control_c, 0, 10, 55
1, 2314, Control_c, 0, 10, 74
1, 2336, Control_c, 0, 10, 59
1, 2464, Note_on_c, 0, 67, 97
1, 2464, Note_on_c, 0, 55, 97
1, 2516, Note_on_c, 0, 67, 0
1, 2516, Note_on_c, 0, 71, 93
1, 2567, Note_on_c, 0, 71, 0
1, 2567, Note_on_c, 0, 74, 93
1, 2616, Note_on_c, 0, 74, 0
1, 2616, Note_on_c, 0, 55, 0
1, 2616, Note_on_c, 0, 79, 93
1, 2617, Note_on_c, 0, 43, 97
1, 2665, Note_on_c, 0, 79, 0
1, 2665, Note_on_c, 0, 74, 93
1, 2712, Note_on_c, 0, 74, 0
1, 2713, Note_on_c, 0, 71, 93
1, 2761, Note_on_c, 0, 71, 0
1, 2761, Note_on_c, 0, 43, 0
1, 2762, Note_on_c, 0, 74, 93
1, 2808, Note_on_c, 0, 74, 0
1, 2808, Note_on_c, 0, 71, 93
1, 2854, Note_on_c, 0, 71, 0
1, 2854, Note_on_c, 0, 67, 97
1, 2901, Note_on_c, 0, 67, 0
1, 2902, Note_on_c, 0, 71, 93
1, 2902, Note_on_c, 0, 55, 97
1, 2947, Note_on_c, 0, 71, 0
1, 2948, Note_on_c, 0, 67, 97
1, 2994, Note_on_c, 0, 67, 0
1, 2995, Note_on_c, 0, 62, 97
1, 3028, Note_on_c, 0, 55, 0
1, 3043, Note_on_c, 0, 62, 0
1, 3044, Note_on_c, 0, 55, 97
1, 3044, Note_on_c, 0, 64, 97
1, 3091, Note_on_c, 0, 64, 0
1, 3092, Note_on_c, 0, 67, 97
1, 3139, Note_on_c, 0, 67, 0
1, 3140, Note_on_c, 0, 72, 93
1, 3187, Note_on_c, 0, 72, 0
1, 3188, Note_on_c, 0, 55, 0
1, 3188, Note_on_c, 0, 76, 93
1, 3189, Note_on_c, 0, 43, 97
1, 3235, Note_on_c, 0, 76, 0
1, 3236, Note_on_c, 0, 72, 93
1, 3284, Note_on_c, 0, 72, 0
1, 3285, Note_on_c, 0, 67, 97
1, 3333, Note_on_c, 0, 67, 0
1, 3334, Note_on_c, 0, 43, 0
1, 3334, Note_on_c, 0, 72, 93
1, 3381, Note_on_c, 0, 72, 0
1, 3382, Note_on_c, 0, 67, 97
1, 3430, Note_on_c, 0, 67, 0
1, 3431, Note_on_c, 0, 64, 97
1, 3478, Note_on_c, 0, 64, 0
1, 3479, Note_on_c, 0, 55, 97
1, 3479, Note_on_c, 0, 67, 97
1, 3526, Note_on_c, 0, 67, 0
1, 3527, Note_on_c, 0, 64, 97
1, 3575, Note_on_c, 0, 64, 0
1, 3576, Note_on_c, 0, 60, 97
1, 3616, Note_on_c, 0, 55, 0
1, 3623, Note_on_c, 0, 57, 97
1, 3624, Note_on_c, 0, 55, 97
1, 3625, Note_on_c, 0, 60, 0
1, 3671, Note_on_c, 0, 60, 97
1, 3673, Note_on_c, 0, 57, 0
1, 3719, Note_on_c, 0, 66, 97
1, 3720, Note_on_c, 0, 60, 0
1, 3766, Note_on_c, 0, 66, 0
1, 3767, Note_on_c, 0, 55, 0
1, 3767, Note_on_c, 0, 69, 93
1, 3768, Note_on_c, 0, 43, 97
1, 3809, Note_on_c, 0, 69, 0
1, 3814, Note_on_c, 0, 66, 97
1, 3856, Note_on_c, 0, 66, 0
1, 3861, Note_on_c, 0, 60, 97
1, 3905, Note_on_c, 0, 60, 0
1, 3908, Note_on_c, 0, 43, 0
1, 3909, Note_on_c, 0, 66, 97
1, 3956, Note_on_c, 0, 60, 97
1, 3983, Note_on_c, 0, 66, 0
1, 4000, Note_on_c, 0, 60, 0
1, 4004, Note_on_c, 0, 57, 97
1, 4048, Note_on_c, 0, 57, 0
1, 4051, Note_on_c, 0, 60, 97
1, 4052, Note_on_c, 0, 55, 97
1, 4096, Note_on_c, 0, 60, 0
1, 4099, Note_on_c, 0, 57, 97
1, 4143, Note_on_c, 0, 57, 0
1, 4148, Note_on_c, 0, 55, 0
1, 4148, Note_on_c, 0, 54, 97
1, 4191, Note_on_c, 0, 54, 0
1, 4194, Note_on_c, 0, 55, 97
1, 4243, Note_on_c, 0, 59, 97
1, 4287, Note_on_c, 0, 59, 0
1, 4291, Note_on_c, 0, 62, 97
1, 4335, Note_on_c, 0, 62, 0
1, 4338, Note_on_c, 0, 55, 0
1, 4339, Note_on_c, 0, 67, 97
1, 4340, Note_on_c, 0, 43, 97
1, 4387, Note_on_c, 0, 67, 0
1, 4388, Note_on_c, 0, 62, 97
1, 4435, Note_on_c, 0, 59, 97
1, 4436, Note_on_c, 0, 62, 0
1, 4483, Note_on_c, 0, 43, 0
1, 4484, Note_on_c, 0, 62, 97
1, 4485, Note_on_c, 0, 59, 0
1, 4531, Note_on_c, 0, 59, 97
1, 4532, Note_on_c, 0, 62, 0
1, 4578, Note_on_c, 0, 55, 97
1, 4580, Note_on_c, 0, 59, 0
1, 4620, Note_on_c, 0, 55, 0
1, 4625, Note_on_c, 0, 59, 97
1, 4626, Note_on_c, 0, 55, 97
1, 4667, Note_on_c, 0, 55, 0
1, 4673, Note_on_c, 0, 55, 97
1, 4675, Note_on_c, 0, 59, 0
1, 4722, Note_on_c, 0, 52, 97
1, 4724, Note_on_c, 0, 55, 0
1, 4771, Note_on_c, 0, 57, 97
1, 4772, Note_on_c, 0, 55, 97
1, 4773, Note_on_c, 0, 52, 0
1, 4820, Note_on_c, 0, 61, 97
1, 4822, Note_on_c, 0, 57, 0
1, 4870, Note_on_c, 0, 61, 0
1, 4870, Note_on_c, 0, 64, 97
1, 4919, Note_on_c, 0, 64, 0
1, 4919, Note_on_c, 0, 69, 93
1, 4919, Note_on_c, 0, 43, 97
1, 4920, Note_on_c, 0, 55, 0
1, 4967, Note_on_c, 0, 69, 0
1, 4967, Note_on_c, 0, 64, 97
1, 5014, Note_on_c, 0, 64, 0
1, 5015, Note_on_c, 0, 61, 97
1, 5061, Note_on_c, 0, 61, 0
1, 5062, Note_on_c, 0, 43, 0
1, 5063, Note_on_c, 0, 64, 97
1, 5109, Note_on_c, 0, 64, 0
1, 5109, Note_on_c, 0, 61, 97
1, 5157, Note_on_c, 0, 61, 0
1, 5157, Note_on_c, 0, 57, 97
1, 5205, Note_on_c, 0, 57, 0
1, 5205, Note_on_c, 0, 55, 97
1, 5205, Note_on_c, 0, 61, 97
1, 5253, Note_on_c, 0, 61, 0
1, 5253, Note_on_c, 0, 57, 97
1, 5301, Note_on_c, 0, 57, 0
1, 5301, Note_on_c, 0, 52, 97
1, 5349, Note_on_c, 0, 55, 0
1, 5349, Note_on_c, 0, 62, 97
1, 5350, Note_on_c, 0, 52, 0
1, 5350, Note_on_c, 0, 54, 97
1, 5397, Note_on_c, 0, 54, 0
1, 5397, Note_on_c, 0, 57, 97
1, 5446, Note_on_c, 0, 57, 0
1, 5446, Note_on_c, 0, 61, 97
1, 5494, Note_on_c, 0, 61, 0
1, 5494, Note_on_c, 0, 62, 0
1, 5495, Note_on_c, 0, 62, 97
1, 5541, Note_on_c, 0, 62, 0
1, 5541, Note_on_c, 0, 57, 97
1, 5588, Note_on_c, 0, 57, 0
1, 5588, Note_on_c, 0, 54, 97
1, 5636, Note_on_c, 0, 57, 97
1, 5637, Note_on_c, 0, 54, 0
1, 5684, Note_on_c, 0, 54, 97
1, 5685, Note_on_c, 0, 57, 0
1, 5733, Note_on_c, 0, 50, 97
1, 5735, Note_on_c, 0, 54, 0
1, 5782, Note_on_c, 0, 54, 97
1, 5782, Note_on_c, 0, 62, 97
1, 5784, Note_on_c, 0, 50, 0
1, 5831, Note_on_c, 0, 50, 97
1, 5832, Note_on_c, 0, 54, 0
1, 5880, Note_on_c, 0, 47, 97
1, 5882, Note_on_c, 0, 50, 0
1, 5928, Note_on_c, 0, 47, 0
1, 5929, Note_on_c, 0, 62, 0
1, 5929, Note_on_c, 0, 62, 97
1, 5930, Note_on_c, 0, 52, 97
1, 5977, Note_on_c, 0, 62, 0
1, 5978, Note_on_c, 0, 61, 97
1, 6025, Note_on_c, 0, 61, 0
1, 6026, Note_on_c, 0, 62, 97
1, 6073, Note_on_c, 0, 62, 0
1, 6074, Note_on_c, 0, 52, 0
1, 6074, Note_on_c, 0, 64, 97
1, 6075, Note_on_c, 0, 40, 97
1, 6121, Note_on_c, 0, 64, 0
1, 6122, Note_on_c, 0, 61, 97
1, 6170, Note_on_c, 0, 61, 0
1, 6171, Note_on_c, 0, 62, 97
1, 6217, Note_on_c, 0, 62, 0
1, 6218, Note_on_c, 0, 40, 0
1, 6218, Note_on_c, 0, 66, 97
1, 6265, Note_on_c, 0, 66, 0
1, 6266, Note_on_c, 0, 61, 97
1, 6313, Note_on_c, 0, 61, 0
1, 6314, Note_on_c, 0, 62, 97
1, 6360, Note_on_c, 0, 62, 0
1, 6361, Note_on_c, 0, 52, 97
1, 6361, Note_on_c, 0, 67, 97
1, 6408, Note_on_c, 0, 67, 0
1, 6409, Note_on_c, 0, 61, 97
1, 6456, Note_on_c, 0, 61, 0
1, 6457, Note_on_c, 0, 62, 97
1, 6504, Note_on_c, 0, 62, 0
1, 6504, Note_on_c, 0, 52, 0
1, 6504, Note_on_c, 0, 69, 93
1, 6505, Note_on_c, 0, 49, 97
1, 6552, Note_on_c, 0, 69, 0
1, 6553, Note_on_c, 0, 61, 97
1, 6601, Note_on_c, 0, 61, 0
1, 6601, Note_on_c, 0, 62, 97
1, 6649, Note_on_c, 0, 62, 0
1, 6650, Note_on_c, 0, 49, 0
1, 6650, Note_on_c, 0, 71, 93
1, 6651, Note_on_c, 0, 45, 97
1, 6698, Note_on_c, 0, 71, 0
1, 6699, Note_on_c, 0, 61, 97
1, 6747, Note_on_c, 0, 61, 0
1, 6748, Note_on_c, 0, 62, 97
1, 6796, Note_on_c, 0, 62, 0
1, 6797, Note_on_c, 0, 45, 0
1, 6797, Note_on_c, 0, 69, 93
1, 6798, Note_on_c, 0, 47, 97
1, 6844, Note_on_c, 0, 69, 0
1, 6845, Note_on_c, 0, 61, 97
1, 6893, Note_on_c, 0, 61, 0
1, 6894, Note_on_c, 0, 62, 97
1, 6942, Note_on_c, 0, 47, 0
1, 6943, Note_on_c, 0, 49, 97
1, 6943, Note_on_c, 0, 67, 97
1, 6944, Note_on_c, 0, 62, 0
1, 6991, Note_on_c, 0, 61, 97
1, 6993, Note_on_c, 0, 67, 0
1, 7040, Note_on_c, 0, 61, 0
1, 7041, Note_on_c, 0, 62, 97
1, 7089, Note_on_c, 0, 49, 0
1, 7090, Note_on_c, 0, 66, 97
1, 7090, Note_on_c, 0, 50, 97
1, 7091, Note_on_c, 0, 62, 0
1, 7137, Note_on_c, 0, 61, 97
1, 7140, Note_on_c, 0, 50, 0
1, 7186, Note_on_c, 0, 61, 0
1, 7186, Note_on_c, 0, 62, 97
1, 7235, Note_on_c, 0, 62, 0
1, 7235, Note_on_c, 0, 66, 0
1, 7235, Note_on_c, 0, 52, 97
1, 7236, Note_on_c, 0, 67, 97
1, 7282, Note_on_c, 0, 61, 97
1, 7284, Note_on_c, 0, 52, 0
1, 7330, Note_on_c, 0, 61, 0
1, 7331, Note_on_c, 0, 62, 97
1, 7380, Note_on_c, 0, 62, 0
1, 7380, Note_on_c, 0, 67, 0
1, 7380, Note_on_c, 0, 69, 93
1, 7380, Note_on_c, 0, 54, 97
1, 7428, Note_on_c, 0, 61, 97
1, 7430, Note_on_c, 0, 54, 0
1, 7477, Note_on_c, 0, 61, 0
1, 7477, Note_on_c, 0, 62, 97
1, 7525, Note_on_c, 0, 62, 0
1, 7526, Note_on_c, 0, 69, 0
1, 7526, Note_on_c, 0, 71, 93
1, 7526, Note_on_c, 0, 55, 97
1, 7574, Note_on_c, 0, 61, 97
1, 7576, Note_on_c, 0, 55, 0
1, 7623, Note_on_c, 0, 61, 0
1, 7624, Note_on_c, 0, 62, 97
1, 7672, Note_on_c, 0, 62, 0
1, 7673, Note_on_c, 0, 71, 0
1, 7673, Note_on_c, 0, 69, 93
1, 7674, Note_on_c, 0, 54, 97
1, 7721, Note_on_c, 0, 61, 97
1, 7722, Note_on_c, 0, 54, 0
1, 7769, Note_on_c, 0, 61, 0
1, 7770, Note_on_c, 0, 62, 97
1, 7818, Note_on_c, 0, 62, 0
1, 7819, Note_on_c, 0, 69, 0
1, 7819, Note_on_c, 0, 52, 97
1, 7820, Note_on_c, 0, 67, 97
1, 7866, Note_on_c, 0, 61, 97
1, 7868, Note_on_c, 0, 52, 0
1, 7914, Note_on_c, 0, 61, 0
1, 7915, Note_on_c, 0, 62, 97
1, 7963, Note_on_c, 0, 62, 0
1, 7964, Note_on_c, 0, 67, 0
1, 7964, Note_on_c, 0, 50, 97
1, 7965, Note_on_c, 0, 66, 97
1, 8011, Note_on_c, 0, 61, 97
1, 8013, Note_on_c, 0, 50, 0
1, 8059, Note_on_c, 0, 61, 0
1, 8060, Note_on_c, 0, 62, 97
1, 8108, Note_on_c, 0, 62, 0
1, 8109, Note_on_c, 0, 66, 0
1, 8109, Note_on_c, 0, 69, 93
1, 8110, Note_on_c, 0, 54, 97
1, 8156, Note_on_c, 0, 61, 97
1, 8158, Note_on_c, 0, 54, 0
1, 8204, Note_on_c, 0, 61, 0
1, 8205, Note_on_c, 0, 62, 97
1, 8253, Note_on_c, 0, 62, 0
1, 8254, Note_on_c, 0, 69, 0
1, 8254, Note_on_c, 0, 68, 93
1, 8255, Note_on_c, 0, 47, 97
1, 8300, Note_on_c, 0, 68, 0
1, 8301, Note_on_c, 0, 71, 93
1, 8347, Note_on_c, 0, 71, 0
1, 8348, Note_on_c, 0, 74, 93
1, 8392, Note_on_c, 0, 74, 0
1, 8393, Note_on_c, 0, 47, 0
1, 8393, Note_on_c, 0, 77, 93
1, 8394, Note_on_c, 0, 59, 97
1, 8437, Note_on_c, 0, 77, 0
1, 8438, Note_on_c, 0, 74, 93
1, 8483, Note_on_c, 0, 74, 0
1, 8483, Note_on_c, 0, 71, 93
1, 8529, Note_on_c, 0, 71, 0
1, 8529, Note_on_c, 0, 59, 0
1, 8530, Note_on_c, 0, 74, 93
1, 8576, Note_on_c, 0, 74, 0
1, 8576, Note_on_c, 0, 71, 93
1, 8624, Note_on_c, 0, 71, 0
1, 8624, Note_on_c, 0, 68, 93
1, 8671, Note_on_c, 0, 68, 0
1, 8671, Note_on_c, 0, 71, 93
1, 8672, Note_on_c, 0, 57, 97
1, 8719, Note_on_c, 0, 71, 0
1, 8719, Note_on_c, 0, 68, 93
1, 8767, Note_on_c, 0, 68, 0
1, 8767, Note_on_c, 0, 64, 97
1, 8814, Note_on_c, 0, 64, 0
1, 8814, Note_on_c, 0, 57, 0
1, 8815, Note_on_c, 0, 56, 97
1, 8815, Note_on_c, 0, 62, 97
1, 8862, Note_on_c, 0, 62, 0
1, 8862, Note_on_c, 0, 65, 97
1, 8910, Note_on_c, 0, 65, 0
1, 8910, Note_on_c, 0, 68, 93
1, 8957, Note_on_c, 0, 68, 0
1, 8957, Note_on_c, 0, 56, 0
1, 8958, Note_on_c, 0, 71, 93
1, 8958, Note_on_c, 0, 44, 97
1, 9003, Note_on_c, 0, 71, 0
1, 9003, Note_on_c, 0, 68, 93
1, 9050, Note_on_c, 0, 68, 0
1, 9050, Note_on_c, 0, 65, 97
1, 9098, Note_on_c, 0, 65, 0
1, 9098, Note_on_c, 0, 44, 0
1, 9099, Note_on_c, 0, 68, 93
1, 9145, Note_on_c, 0, 68, 0
1, 9145, Note_on_c, 0, 65, 97
1, 9193, Note_on_c, 0, 65, 0
1, 9193, Note_on_c, 0, 62, 97
1, 9241, Note_on_c, 0, 62, 0
1, 9241, Note_on_c, 0, 65, 97
1, 9242, Note_on_c, 0, 56, 97
1, 9288, Note_on_c, 0, 65, 0
1, 9288, Note_on_c, 0, 62, 97
1, 9336, Note_on_c, 0, 62, 0
1, 9336, Note_on_c, 0, 59, 97
1, 9384, Note_on_c, 0, 59, 0
1, 9384, Note_on_c, 0, 56, 0
1, 9385, Note_on_c, 0, 60, 97
1, 9385, Note_on_c, 0, 57, 97
1, 9430, Note_on_c, 0, 60, 0
1, 9432, Note_on_c, 0, 57, 0
1, 9432, Note_on_c, 0, 60, 97
1, 9481, Note_on_c, 0, 60, 0
1, 9481, Note_on_c, 0, 64, 97
1, 9530, Note_on_c, 0, 64, 0
1, 9530, Note_on_c, 0, 76, 93
1, 9531, Note_on_c, 0, 69, 93
1, 9578, Note_on_c, 0, 69, 0
1, 9578, Note_on_c, 0, 64, 97
1, 9627, Note_on_c, 0, 64, 0
1, 9628, Note_on_c, 0, 60, 97
1, 9676, Note_on_c, 0, 60, 0
1, 9677, Note_on_c, 0, 76, 0
1, 9677, Note_on_c, 0, 72, 93
1, 9677, Note_on_c, 0, 64, 97
1, 9724, Note_on_c, 0, 64, 0
1, 9725, Note_on_c, 0, 60, 97
1, 9773, Note_on_c, 0, 60, 0
1, 9774, Note_on_c, 0, 57, 97
1, 9822, Note_on_c, 0, 57, 0
1, 9822, Note_on_c, 0, 72, 0
1, 9823, Note_on_c, 0, 69, 93
1, 9824, Note_on_c, 0, 60, 97
1, 9870, Note_on_c, 0, 60, 0
1, 9871, Note_on_c, 0, 57, 97
1, 9919, Note_on_c, 0, 57, 0
1, 9920, Note_on_c, 0, 52, 97
1, 9968, Note_on_c, 0, 52, 0
1, 9969, Note_on_c, 0, 69, 0
1, 9969, Note_on_c, 0, 64, 97
1, 9969, Note_on_c, 0, 48, 97
1, 10016, Note_on_c, 0, 48, 0
1, 10017, Note_on_c, 0, 52, 97
1, 10064, Note_on_c, 0, 52, 0
1, 10065, Note_on_c, 0, 57, 97
1, 10112, Note_on_c, 0, 57, 0
1, 10113, Note_on_c, 0, 64, 0
1, 10113, Note_on_c, 0, 76, 93
1, 10114, Note_on_c, 0, 60, 97
1, 10160, Note_on_c, 0, 60, 0
1, 10161, Note_on_c, 0, 57, 97
1, 10208, Note_on_c, 0, 57, 0
1, 10209, Note_on_c, 0, 52, 97
1, 10256, Note_on_c, 0, 52, 0
1, 10257, Note_on_c, 0, 76, 0
1, 10257, Note_on_c, 0, 72, 93
1, 10258, Note_on_c, 0, 57, 97
1, 10303, Note_on_c, 0, 57, 0
1, 10304, Note_on_c, 0, 52, 97
1, 10351, Note_on_c, 0, 52, 0
1, 10352, Note_on_c, 0, 48, 97
1, 10399, Note_on_c, 0, 48, 0
1, 10400, Note_on_c, 0, 72, 0
1, 10400, Note_on_c, 0, 69, 93
1, 10401, Note_on_c, 0, 52, 97
1, 10446, Note_on_c, 0, 52, 0
1, 10447, Note_on_c, 0, 48, 97
1, 10494, Note_on_c, 0, 48, 0
1, 10495, Note_on_c, 0, 45, 97
1, 10542, Note_on_c, 0, 45, 0
1, 10543, Note_on_c, 0, 69, 0
1, 10543, Note_on_c, 0, 75, 89
1, 10544, Note_on_c, 0, 42, 97
1, 10590, Note_on_c, 0, 75, 0
1, 10591, Note_on_c, 0, 78, 86
1, 10637, Note_on_c, 0, 78, 0
1, 10638, Note_on_c, 0, 81, 86
1, 10684, Note_on_c, 0, 81, 0
1, 10685, Note_on_c, 0, 42, 0
1, 10685, Note_on_c, 0, 84, 86
1, 10686, Note_on_c, 0, 54, 97
1, 10731, Note_on_c, 0, 84, 0
1, 10732, Note_on_c, 0, 81, 86
1, 10776, Note_on_c, 0, 81, 0
1, 10777, Note_on_c, 0, 78, 86
1, 10823, Note_on_c, 0, 78, 0
1, 10823, Note_on_c, 0, 54, 0
1, 10824, Note_on_c, 0, 81, 86
1, 10869, Note_on_c, 0, 81, 0
1, 10869, Note_on_c, 0, 78, 86
1, 10917, Note_on_c, 0, 78, 0
1, 10917, Note_on_c, 0, 75, 89
1, 10965, Note_on_c, 0, 75, 0
1, 10965, Note_on_c, 0, 78, 89
1, 10966, Note_on_c, 0, 52, 97
1, 11013, Note_on_c, 0, 78, 0
1, 11013, Note_on_c, 0, 75, 93
1, 11061, Note_on_c, 0, 75, 0
1, 11061, Note_on_c, 0, 71, 93
1, 11109, Note_on_c, 0, 71, 0
1, 11109, Note_on_c, 0, 52, 0
1, 11110, Note_on_c, 0, 69, 93
1, 11110, Note_on_c, 0, 51, 97
1, 11156, Note_on_c, 0, 69, 0
1, 11156, Note_on_c, 0, 72, 93
1, 11202, Note_on_c, 0, 72, 0
1, 11202, Note_on_c, 0, 75, 93
1, 11248, Note_on_c, 0, 75, 0
1, 11248, Note_on_c, 0, 51, 0
1, 11249, Note_on_c, 0, 78, 93
1, 11249, Note_on_c, 0, 39, 97
1, 11293, Note_on_c, 0, 78, 0
1, 11293, Note_on_c, 0, 75, 93
1, 11341, Note_on_c, 0, 75, 0
1, 11341, Note_on_c, 0, 72, 93
1, 11388, Note_on_c, 0, 72, 0
1, 11388, Note_on_c, 0, 39, 0
1, 11389, Note_on_c, 0, 75, 93
1, 11436, Note_on_c, 0, 75, 0
1, 11436, Note_on_c, 0, 72, 93
1, 11484, Note_on_c, 0, 72, 0
1, 11484, Note_on_c, 0, 69, 93
1, 11532, Note_on_c, 0, 69, 0
1, 11533, Note_on_c, 0, 72, 93
1, 11533, Note_on_c, 0, 51, 97
1, 11580, Note_on_c, 0, 72, 0
1, 11580, Note_on_c, 0, 69, 93
1, 11628, Note_on_c, 0, 69, 0
1, 11628, Note_on_c, 0, 66, 97
1, 11677, Note_on_c, 0, 66, 0
1, 11677, Note_on_c, 0, 51, 0
1, 11678, Note_on_c, 0, 67, 97
1, 11678, Note_on_c, 0, 52, 97
1, 11726, Note_on_c, 0, 52, 0
1, 11726, Note_on_c, 0, 63, 97
1, 11775, Note_on_c, 0, 63, 0
1, 11775, Note_on_c, 0, 64, 97
1, 11824, Note_on_c, 0, 64, 0
1, 11824, Note_on_c, 0, 67, 0
1, 11825, Note_on_c, 0, 69, 93
1, 11825, Note_on_c, 0, 54, 97
1, 11873, Note_on_c, 0, 54, 0
1, 11873, Note_on_c, 0, 63, 97
1, 11922, Note_on_c, 0, 63, 0
1, 11923, Note_on_c, 0, 64, 97
1, 11971, Note_on_c, 0, 64, 0
1, 11972, Note_on_c, 0, 69, 0
1, 11972, Note_on_c, 0, 71, 93
1, 11972, Note_on_c, 0, 55, 97
1, 12020, Note_on_c, 0, 55, 0
1, 12021, Note_on_c, 0, 63, 97
1, 12069, Note_on_c, 0, 63, 0
1, 12070, Note_on_c, 0, 64, 97
1, 12118, Note_on_c, 0, 64, 0
1, 12119, Note_on_c, 0, 71, 0
1, 12119, Note_on_c, 0, 72, 93
1, 12119, Note_on_c, 0, 57, 97
1, 12167, Note_on_c, 0, 57, 0
1, 12168, Note_on_c, 0, 63, 97
1, 12216, Note_on_c, 0, 63, 0
1, 12216, Note_on_c, 0, 64, 97
1, 12265, Note_on_c, 0, 64, 0
1, 12265, Note_on_c, 0, 72, 0
1, 12265, Note_on_c, 0, 71, 93
1, 12266, Note_on_c, 0, 55, 97
1, 12314, Note_on_c, 0, 55, 0
1, 12314, Note_on_c, 0, 63, 97
1, 12363, Note_on_c, 0, 63, 0
1, 12363, Note_on_c, 0, 64, 97
1, 12411, Note_on_c, 0, 64, 0
1, 12411, Note_on_c, 0, 71, 0
1, 12412, Note_on_c, 0, 69, 93
1, 12412, Note_on_c, 0, 54, 97
1, 12460, Note_on_c, 0, 54, 0
1, 12460, Note_on_c, 0, 63, 97
1, 12509, Note_on_c, 0, 63, 0
1, 12509, Note_on_c, 0, 64, 97
1, 12558, Note_on_c, 0, 64, 0
1, 12558, Note_on_c, 0, 69, 0
1, 12559, Note_on_c, 0, 67, 97
1, 12559, Note_on_c, 0, 52, 97
1, 12607, Note_on_c, 0, 52, 0
1, 12607, Note_on_c, 0, 63, 97
1, 12655, Note_on_c, 0, 63, 0
1, 12655, Note_on_c, 0, 64, 97
1, 12704, Note_on_c, 0, 64, 0
1, 12704, Note_on_c, 0, 67, 0
1, 12705, Note_on_c, 0, 71, 93
1, 12705, Note_on_c, 0, 55, 97
1, 12753, Note_on_c, 0, 55, 0
1, 12753, Note_on_c, 0, 63, 97
1, 12802, Note_on_c, 0, 63, 0
1, 12802, Note_on_c, 0, 64, 97
1, 12851, Note_on_c, 0, 64, 0
1, 12851, Note_on_c, 0, 71, 0
1, 12852, Note_on_c, 0, 69, 93
1, 12852, Note_on_c, 0, 49, 97
1, 12900, Note_on_c, 0, 69, 0
1, 12900, Note_on_c, 0, 68, 93
1, 12948, Note_on_c, 0, 68, 0
1, 12948, Note_on_c, 0, 69, 93
1, 12996, Note_on_c, 0, 69, 0
1, 12997, Note_on_c, 0, 49, 0
1, 12997, Note_on_c, 0, 71, 93
1, 12998, Note_on_c, 0, 50, 97
1, 13044, Note_on_c, 0, 71, 0
1, 13045, Note_on_c, 0, 68, 93
1, 13093, Note_on_c, 0, 68, 0
1, 13094, Note_on_c, 0, 69, 93
1, 13141, Note_on_c, 0, 69, 0
1, 13142, Note_on_c, 0, 50, 0
1, 13142, Note_on_c, 0, 73, 93
1, 13143, Note_on_c, 0, 52, 97
1, 13190, Note_on_c, 0, 73, 0
1, 13191, Note_on_c, 0, 68, 93
1, 13238, Note_on_c, 0, 68, 0
1, 13239, Note_on_c, 0, 69, 93
1, 13285, Note_on_c, 0, 69, 0
1, 13286, Note_on_c, 0, 52, 0
1, 13286, Note_on_c, 0, 74, 93
1, 13287, Note_on_c, 0, 54, 97
1, 13333, Note_on_c, 0, 74, 0
1, 13334, Note_on_c, 0, 68, 93
1, 13381, Note_on_c, 0, 68, 0
1, 13382, Note_on_c, 0, 69, 93
1, 13429, Note_on_c, 0, 69, 0
1, 13430, Note_on_c, 0, 54, 0
1, 13430, Note_on_c, 0, 76, 93
1, 13431, Note_on_c, 0, 49, 97
1, 13477, Note_on_c, 0, 76, 0
1, 13478, Note_on_c, 0, 68, 93
1, 13526, Note_on_c, 0, 68, 0
1, 13527, Note_on_c, 0, 69, 93
1, 13574, Note_on_c, 0, 69, 0
1, 13575, Note_on_c, 0, 49, 0
1, 13575, Note_on_c, 0, 78, 93
1, 13576, Note_on_c, 0, 47, 97
1, 13622, Note_on_c, 0, 78, 0
1, 13623, Note_on_c, 0, 68, 93
1, 13671, Note_on_c, 0, 68, 0
1, 13672, Note_on_c, 0, 69, 93
1, 13720, Note_on_c, 0, 69, 0
1, 13721, Note_on_c, 0, 47, 0
1, 13721, Note_on_c, 0, 79, 93
1, 13722, Note_on_c, 0, 45, 97
1, 13768, Note_on_c, 0, 79, 0
1, 13769, Note_on_c, 0, 76, 91
1, 13817, Note_on_c, 0, 76, 0
1, 13818, Note_on_c, 0, 73, 91
1, 13865, Note_on_c, 0, 73, 0
1, 13866, Note_on_c, 0, 45, 0
1, 13866, Note_on_c, 0, 69, 91
1, 13867, Note_on_c, 0, 49, 97
1, 13913, Note_on_c, 0, 69, 0
1, 13914, Note_on_c, 0, 73, 91
1, 13962, Note_on_c, 0, 73, 0
1, 13963, Note_on_c, 0, 76, 91
1, 14012, Note_on_c, 0, 76, 0
1, 14012, Note_on_c, 0, 49, 0
1, 14013, Note_on_c, 0, 78, 91
1, 14013, Note_on_c, 0, 50, 97
1, 14061, Note_on_c, 0, 50, 0
1, 14061, Note_on_c, 0, 54, 97
1, 14109, Note_on_c, 0, 54, 0
1, 14110, Note_on_c, 0, 57, 97
1, 14158, Note_on_c, 0, 57, 0
1, 14159, Note_on_c, 0, 78, 0
1, 14159, Note_on_c, 0, 62, 97
1, 14207, Note_on_c, 0, 62, 0
1, 14208, Note_on_c, 0, 57, 97
1, 14256, Note_on_c, 0, 57, 0
1, 14257, Note_on_c, 0, 54, 97
1, 14305, Note_on_c, 0, 54, 0
1, 14306, Note_on_c, 0, 81, 91
1, 14306, Note_on_c, 0, 50, 97
1, 14353, Note_on_c, 0, 81, 0
1, 14353, Note_on_c, 0, 78, 91
1, 14402, Note_on_c, 0, 78, 0
1, 14403, Note_on_c, 0, 74, 91
1, 14452, Note_on_c, 0, 74, 0
1, 14453, Note_on_c, 0, 50, 0
1, 14453, Note_on_c, 0, 72, 91
1, 14453, Note_on_c, 0, 62, 97
1, 14502, Note_on_c, 0, 72, 0
1, 14502, Note_on_c, 0, 74, 91
1, 14551, Note_on_c, 0, 74, 0
1, 14552, Note_on_c, 0, 78, 91
1, 14600, Note_on_c, 0, 78, 0
1, 14601, Note_on_c, 0, 62, 0
1, 14601, Note_on_c, 0, 81, 91
1, 14601, Note_on_c, 0, 50, 97
1, 14648, Note_on_c, 0, 50, 0
1, 14649, Note_on_c, 0, 55, 97
1, 14697, Note_on_c, 0, 55, 0
1, 14698, Note_on_c, 0, 59, 97
1, 14746, Note_on_c, 0, 59, 0
1, 14747, Note_on_c, 0, 81, 0
1, 14747, Note_on_c, 0, 79, 91
1, 14748, Note_on_c, 0, 62, 97
1, 14795, Note_on_c, 0, 62, 0
1, 14796, Note_on_c, 0, 59, 97
1, 14844, Note_on_c, 0, 59, 0
1, 14844, Note_on_c, 0, 55, 97
1, 14891, Note_on_c, 0, 55, 0
1, 14892, Note_on_c, 0, 79, 0
1, 14892, Note_on_c, 0, 79, 91
1, 14892, Note_on_c, 0, 50, 97
1, 14938, Note_on_c, 0, 79, 0
1, 14939, Note_on_c, 0, 76, 91
1, 14987, Note_on_c, 0, 76, 0
1, 14988, Note_on_c, 0, 73, 91
1, 15036, Note_on_c, 0, 73, 0
1, 15036, Note_on_c, 0, 50, 0
1, 15037, Note_on_c, 0, 69, 91
1, 15037, Note_on_c, 0, 62, 97
1, 15085, Note_on_c, 0, 69, 0
1, 15085, Note_on_c, 0, 73, 91
1, 15134, Note_on_c, 0, 73, 0
1, 15134, Note_on_c, 0, 76, 91
1, 15183, Note_on_c, 0, 76, 0
1, 15183, Note_on_c, 0, 62, 0
1, 15184, Note_on_c, 0, 79, 91
1, 15184, Note_on_c, 0, 50, 97
1, 15232, Note_on_c, 0, 50, 0
1, 15232, Note_on_c, 0, 57, 97
1, 15281, Note_on_c, 0, 57, 0
1, 15281, Note_on_c, 0, 61, 97
1, 15330, Note_on_c, 0, 61, 0
1, 15330, Note_on_c, 0, 79, 0
1, 15331, Note_on_c, 0, 78, 93
1, 15331, Note_on_c, 0, 62, 97
1, 15378, Note_on_c, 0, 62, 0
1, 15378, Note_on_c, 0, 57, 97
1, 15427, Note_on_c, 0, 57, 0
1, 15427, Note_on_c, 0, 54, 97
1, 15476, Note_on_c, 0, 54, 0
1, 15476, Note_on_c, 0, 78, 0
1, 15477, Note_on_c, 0, 78, 93
1, 15477, Note_on_c, 0, 50, 97
1, 15523, Note_on_c, 0, 78, 0
1, 15523, Note_on_c, 0, 74, 93
1, 15571, Note_on_c, 0, 74, 0
1, 15571, Note_on_c, 0, 71, 93
1, 15619, Note_on_c, 0, 71, 0
1, 15619, Note_on_c, 0, 50, 0
1, 15620, Note_on_c, 0, 67, 97
1, 15620, Note_on_c, 0, 62, 97
1, 15667, Note_on_c, 0, 67, 0
1, 15667, Note_on_c, 0, 71, 93
1, 15717, Note_on_c, 0, 71, 0
1, 15717, Note_on_c, 0, 74, 93
1, 15765, Note_on_c, 0, 74, 0
1, 15765, Note_on_c, 0, 62, 0
1, 15766, Note_on_c, 0, 78, 93
1, 15766, Note_on_c, 0, 50, 97
1, 15814, Note_on_c, 0, 50, 0
1, 15814, Note_on_c, 0, 52, 97
1, 15863, Note_on_c, 0, 52, 0
1, 15863, Note_on_c, 0, 55, 97
1, 15912, Note_on_c, 0, 55, 0
1, 15912, Note_on_c, 0, 78, 0
1, 15912, Note_on_c, 0, 76, 93
1, 15913, Note_on_c, 0, 59, 97
1, 15960, Note_on_c, 0, 59, 0
1, 15961, Note_on_c, 0, 55, 97
1, 16008, Note_on_c, 0, 55, 0
1, 16009, Note_on_c, 0, 52, 97
1, 16057, Note_on_c, 0, 52, 0
1, 16058, Note_on_c, 0, 76, 0
1, 16058, Note_on_c, 0, 76, 93
1, 16059, Note_on_c, 0, 50, 97
1, 16104, Note_on_c, 0, 76, 0
1, 16105, Note_on_c, 0, 73, 93
1, 16152, Note_on_c, 0, 73, 0
1, 16153, Note_on_c, 0, 69, 93
1, 16201, Note_on_c, 0, 69, 0
1, 16201, Note_on_c, 0, 50, 0
1, 16201, Note_on_c, 0, 67, 97
1, 16202, Note_on_c, 0, 62, 97
1, 16249, Note_on_c, 0, 67, 0
1, 16250, Note_on_c, 0, 69, 93
1, 16298, Note_on_c, 0, 69, 0
1, 16299, Note_on_c, 0, 73, 93
1, 16346, Note_on_c, 0, 73, 0
1, 16347, Note_on_c, 0, 62, 0
1, 16347, Note_on_c, 0, 76, 93
1, 16348, Note_on_c, 0, 50, 97
1, 16396, Note_on_c, 0, 50, 0
1, 16397, Note_on_c, 0, 54, 97
1, 16445, Note_on_c, 0, 54, 0
1, 16446, Note_on_c, 0, 57, 97
1, 16494, Note_on_c, 0, 57, 0
1, 16495, Note_on_c, 0, 76, 0
1, 16495, Note_on_c, 0, 74, 93
1, 16496, Note_on_c, 0, 62, 97
1, 16544, Note_on_c, 0, 62, 0
1, 16544, Note_on_c, 0, 57, 97
1, 16594, Note_on_c, 0, 57, 0
1, 16594, Note_on_c, 0, 54, 97
1, 16643, Note_on_c, 0, 54, 0
1, 16644, Note_on_c, 0, 74, 0
1, 16644, Note_on_c, 0, 57, 97
1, 16693, Note_on_c, 0, 57, 0
1, 16694, Note_on_c, 0, 54, 97
1, 16742, Note_on_c, 0, 54, 0
1, 16743, Note_on_c, 0, 50, 97
1, 16792, Note_on_c, 0, 50, 0
1, 16793, Note_on_c, 0, 74, 93
1, 16793, Note_on_c, 0, 54, 97
1, 16842, Note_on_c, 0, 54, 0
1, 16843, Note_on_c, 0, 50, 97
1, 16891, Note_on_c, 0, 50, 0
1, 16892, Note_on_c, 0, 48, 97
1, 16940, Note_on_c, 0, 48, 0
1, 16941, Note_on_c, 0, 74, 0
1, 16941, Note_on_c, 0, 74, 93
1, 16941, Note_on_c, 0, 47, 97
1, 16988, Note_on_c, 0, 47, 0
1, 16989, Note_on_c, 0, 74, 0
1, 16989, Note_on_c, 0, 72, 93
1, 16990, Note_on_c, 0, 50, 97
1, 17037, Note_on_c, 0, 50, 0
1, 17038, Note_on_c, 0, 72, 0
1, 17038, Note_on_c, 0, 71, 93
1, 17039, Note_on_c, 0, 54, 97
1, 17077, Note_on_c, 0, 71, 0
1, 17086, Note_on_c, 0, 54, 0
1, 17087, Note_on_c, 0, 71, 93
1, 17087, Note_on_c, 0, 55, 97
1, 17134, Note_on_c, 0, 55, 0
1, 17135, Note_on_c, 0, 71, 0
1, 17135, Note_on_c, 0, 69, 93
1, 17136, Note_on_c, 0, 50, 97
1, 17183, Note_on_c, 0, 50, 0
1, 17184, Note_on_c, 0, 69, 0
1, 17184, Note_on_c, 0, 67, 97
1, 17184, Note_on_c, 0, 47, 97
1, 17223, Note_on_c, 0, 67, 0
1, 17231, Note_on_c, 0, 47, 0
1, 17232, Note_on_c, 0, 67, 97
1, 17232, Note_on_c, 0, 50, 97
1, 17279, Note_on_c, 0, 50, 0
1, 17280, Note_on_c, 0, 67, 0
1, 17280, Note_on_c, 0, 71, 93
1, 17280, Note_on_c, 0, 47, 97
1, 17328, Note_on_c, 0, 47, 0
1, 17328, Note_on_c, 0, 71, 0
1, 17329, Note_on_c, 0, 74, 93
1, 17329, Note_on_c, 0, 43, 97
1, 17376, Note_on_c, 0, 43, 0
1, 17376, Note_on_c, 0, 74, 0
1, 17377, Note_on_c, 0, 77, 93
1, 17377, Note_on_c, 0, 47, 97
1, 17424, Note_on_c, 0, 47, 0
1, 17424, Note_on_c, 0, 77, 0
1, 17425, Note_on_c, 0, 76, 93
1, 17425, Note_on_c, 0, 43, 97
1, 17472, Note_on_c, 0, 43, 0
1, 17472, Note_on_c, 0, 76, 0
1, 17473, Note_on_c, 0, 74, 93
1, 17473, Note_on_c, 0, 41, 97
1, 17512, Note_on_c, 0, 74, 0
1, 17520, Note_on_c, 0, 41, 0
1, 17520, Note_on_c, 0, 74, 93
1, 17521, Note_on_c, 0, 40, 97
1, 17570, Note_on_c, 0, 40, 0
1, 17570, Note_on_c, 0, 74, 0
1, 17571, Note_on_c, 0, 76, 93
1, 17571, Note_on_c, 0, 43, 97
1, 17619, Note_on_c, 0, 43, 0
1, 17619, Note_on_c, 0, 76, 0
1, 17620, Note_on_c, 0, 77, 93
1, 17620, Note_on_c, 0, 47, 97
1, 17668, Note_on_c, 0, 47, 0
1, 17668, Note_on_c, 0, 77, 0
1, 17669, Note_on_c, 0, 76, 93
1, 17669, Note_on_c, 0, 48, 97
1, 17718, Note_on_c, 0, 48, 0
1, 17718, Note_on_c, 0, 52, 97
1, 17767, Note_on_c, 0, 52, 0
1, 17767, Note_on_c, 0, 55, 97
1, 17816, Note_on_c, 0, 55, 0
1, 17816, Note_on_c, 0, 76, 0
1, 17817, Note_on_c, 0, 60, 97
1, 17866, Note_on_c, 0, 60, 0
1, 17866, Note_on_c, 0, 55, 97
1, 17915, Note_on_c, 0, 55, 0
1, 17915, Note_on_c, 0, 52, 97
1, 17964, Note_on_c, 0, 52, 0
1, 17965, Note_on_c, 0, 76, 93
1, 17965, Note_on_c, 0, 55, 97
1, 18013, Note_on_c, 0, 55, 0
1, 18014, Note_on_c, 0, 52, 97
1, 18062, Note_on_c, 0, 52, 0
1, 18063, Note_on_c, 0, 50, 97
1, 18112, Note_on_c, 0, 50, 0
1, 18113, Note_on_c, 0, 76, 0
1, 18113, Note_on_c, 0, 76, 93
1, 18114, Note_on_c, 0, 49, 97
1, 18161, Note_on_c, 0, 49, 0
1, 18162, Note_on_c, 0, 76, 0
1, 18162, Note_on_c, 0, 74, 93
1, 18163, Note_on_c, 0, 52, 97
1, 18210, Note_on_c, 0, 52, 0
1, 18211, Note_on_c, 0, 74, 0
1, 18211, Note_on_c, 0, 73, 93
1, 18212, Note_on_c, 0, 55, 97
1, 18251, Note_on_c, 0, 73, 0
1, 18258, Note_on_c, 0, 55, 0
1, 18259, Note_on_c, 0, 73, 93
1, 18259, Note_on_c, 0, 57, 97
1, 18307, Note_on_c, 0, 57, 0
1, 18308, Note_on_c, 0, 73, 0
1, 18308, Note_on_c, 0, 71, 93
1, 18309, Note_on_c, 0, 52, 97
1, 18356, Note_on_c, 0, 52, 0
1, 18357, Note_on_c, 0, 71, 0
1, 18357, Note_on_c, 0, 69, 93
1, 18358, Note_on_c, 0, 49, 97
1, 18396, Note_on_c, 0, 69, 0
1, 18404, Note_on_c, 0, 49, 0
1, 18405, Note_on_c, 0, 69, 93
1, 18405, Note_on_c, 0, 52, 97
1, 18453, Note_on_c, 0, 52, 0
1, 18454, Note_on_c, 0, 69, 0
1, 18454, Note_on_c, 0, 73, 93
1, 18455, Note_on_c, 0, 49, 97
1, 18502, Note_on_c, 0, 49, 0
1, 18503, Note_on_c, 0, 73, 0
1, 18503, Note_on_c, 0, 76, 93
1, 18504, Note_on_c, 0, 45, 97
1, 18551, Note_on_c, 0, 45, 0
1, 18552, Note_on_c, 0, 76, 0
1, 18552, Note_on_c, 0, 79, 93
1, 18552, Note_on_c, 0, 49, 97
1, 18599, Note_on_c, 0, 49, 0
1, 18600, Note_on_c, 0, 79, 0
1, 18600, Note_on_c, 0, 78, 93
1, 18600, Note_on_c, 0, 45, 97
1, 18648, Note_on_c, 0, 45, 0
1, 18648, Note_on_c, 0, 78, 0
1, 18649, Note_on_c, 0, 76, 93
1, 18649, Note_on_c, 0, 43, 97
1, 18688, Note_on_c, 0, 76, 0
1, 18696, Note_on_c, 0, 43, 0
1, 18696, Note_on_c, 0, 76, 93
1, 18697, Note_on_c, 0, 42, 97
1, 18744, Note_on_c, 0, 42, 0
1, 18744, Note_on_c, 0, 76, 0
1, 18745, Note_on_c, 0, 78, 93
1, 18745, Note_on_c, 0, 45, 97
1, 18794, Note_on_c, 0, 45, 0
1, 18794, Note_on_c, 0, 78, 0
1, 18795, Note_on_c, 0, 79, 93
1, 18795, Note_on_c, 0, 49, 97
1, 18843, Note_on_c, 0, 49, 0
1, 18843, Note_on_c, 0, 79, 0
1, 18844, Note_on_c, 0, 78, 93
1, 18844, Note_on_c, 0, 50, 97
1, 18892, Note_on_c, 0, 50, 0
1, 18893, Note_on_c, 0, 54, 97
1, 18942, Note_on_c, 0, 54, 0
1, 18942, Note_on_c, 0, 57, 97
1, 18992, Note_on_c, 0, 57, 0
1, 18993, Note_on_c, 0, 78, 0
1, 18993, Note_on_c, 0, 62, 97
1, 19041, Note_on_c, 0, 62, 0
1, 19042, Note_on_c, 0, 57, 97
1, 19090, Note_on_c, 0, 57, 0
1, 19090, Note_on_c, 0, 54, 97
1, 19140, Note_on_c, 0, 54, 0
1, 19140, Note_on_c, 0, 81, 93
1, 19141, Note_on_c, 0, 57, 97
1, 19189, Note_on_c, 0, 57, 0
1, 19189, Note_on_c, 0, 54, 97
1, 19238, Note_on_c, 0, 54, 0
1, 19238, Note_on_c, 0, 50, 97
1, 19288, Note_on_c, 0, 50, 0
1, 19288, Note_on_c, 0, 81, 0
1, 19289, Note_on_c, 0, 81, 93
1, 19289, Note_on_c, 0, 54, 97
1, 19337, Note_on_c, 0, 54, 0
1, 19337, Note_on_c, 0, 81, 0
1, 19338, Note_on_c, 0, 79, 93
1, 19338, Note_on_c, 0, 50, 97
1, 19385, Note_on_c, 0, 50, 0
1, 19385, Note_on_c, 0, 79, 0
1, 19386, Note_on_c, 0, 78, 93
1, 19386, Note_on_c, 0, 45, 97
1, 19425, Note_on_c, 0, 78, 0
1, 19434, Note_on_c, 0, 45, 0
1, 19434, Note_on_c, 0, 78, 93
1, 19435, Note_on_c, 0, 50, 97
1, 19483, Note_on_c, 0, 50, 0
1, 19483, Note_on_c, 0, 78, 0
1, 19484, Note_on_c, 0, 76, 93
1, 19484, Note_on_c, 0, 45, 97
1, 19531, Note_on_c, 0, 45, 0
1, 19531, Note_on_c, 0, 76, 0
1, 19532, Note_on_c, 0, 74, 93
1, 19532, Note_on_c, 0, 42, 97
1, 19571, Note_on_c, 0, 74, 0
1, 19580, Note_on_c, 0, 42, 0
1, 19580, Note_on_c, 0, 74, 93
1, 19581, Note_on_c, 0, 38, 97
1, 19629, Note_on_c, 0, 74, 0
1, 19629, Note_on_c, 0, 78, 93
1, 19677, Note_on_c, 0, 78, 0
1, 19677, Note_on_c, 0, 81, 93
1, 19726, Note_on_c, 0, 81, 0
1, 19726, Note_on_c, 0, 38, 0
1, 19727, Note_on_c, 0, 84, 93
1, 19727, Note_on_c, 0, 50, 97
1, 19775, Note_on_c, 0, 84, 0
1, 19775, Note_on_c, 0, 83, 93
1, 19823, Note_on_c, 0, 83, 0
1, 19823, Note_on_c, 0, 81, 93
1, 19864, Note_on_c, 0, 81, 0
1, 19872, Note_on_c, 0, 50, 0
1, 19872, Note_on_c, 0, 81, 93
1, 19872, Note_on_c, 0, 43, 97
1, 19920, Note_on_c, 0, 81, 0
1, 19920, Note_on_c, 0, 83, 93
1, 19968, Note_on_c, 0, 83, 0
1, 19968, Note_on_c, 0, 84, 93
1, 20015, Note_on_c, 0, 84, 0
1, 20015, Note_on_c, 0, 83, 93
1, 20062, Note_on_c, 0, 43, 0
1, 20062, Note_on_c, 0, 47, 97
1, 20109, Note_on_c, 0, 47, 0
1, 20109, Note_on_c, 0, 50, 97
1, 20156, Note_on_c, 0, 50, 0
1, 20156, Note_on_c, 0, 55, 97
1, 20203, Note_on_c, 0, 55, 0
1, 20203, Note_on_c, 0, 83, 0
1, 20204, Note_on_c, 0, 81, 84
1, 20204, Note_on_c, 0, 57, 97
1, 20251, Note_on_c, 0, 57, 0
1, 20251, Note_on_c, 0, 81, 0
1, 20252, Note_on_c, 0, 79, 84
1, 20252, Note_on_c, 0, 59, 97
1, 20291, Note_on_c, 0, 59, 0
1, 20300, Note_on_c, 0, 79, 0
1, 20300, Note_on_c, 0, 77, 93
1, 20301, Note_on_c, 0, 59, 97
1, 20348, Note_on_c, 0, 59, 0
1, 20348, Note_on_c, 0, 77, 0
1, 20349, Note_on_c, 0, 76, 93
1, 20349, Note_on_c, 0, 60, 97
1, 20397, Note_on_c, 0, 60, 0
1, 20397, Note_on_c, 0, 76, 0
1, 20398, Note_on_c, 0, 74, 93
1, 20398, Note_on_c, 0, 62, 97
1, 20445, Note_on_c, 0, 62, 0
1, 20445, Note_on_c, 0, 74, 0
1, 20446, Note_on_c, 0, 72, 93
1, 20446, Note_on_c, 0, 64, 97
1, 20493, Note_on_c, 0, 72, 0
1, 20493, Note_on_c, 0, 76, 93
1, 20541, Note_on_c, 0, 76, 0
1, 20541, Note_on_c, 0, 79, 84
1, 20590, Note_on_c, 0, 79, 0
1, 20590, Note_on_c, 0, 64, 0
1, 20591, Note_on_c, 0, 81, 84
1, 20591, Note_on_c, 0, 60, 97
1, 20638, Note_on_c, 0, 60, 0
1, 20638, Note_on_c, 0, 81, 0
1, 20639, Note_on_c, 0, 78, 84
1, 20639, Note_on_c, 0, 57, 97
1, 20686, Note_on_c, 0, 78, 0
1, 20686, Note_on_c, 0, 74, 93
1, 20687, Note_on_c, 0, 54, 97
1, 20688, Note_on_c, 0, 57, 0
1, 20734, Note_on_c, 0, 74, 0
1, 20734, Note_on_c, 0, 71, 93
1, 20735, Note_on_c, 0, 62, 97
1, 20736, Note_on_c, 0, 54, 0
1, 20781, Note_on_c, 0, 71, 0
1, 20781, Note_on_c, 0, 74, 93
1, 20829, Note_on_c, 0, 74, 0
1, 20829, Note_on_c, 0, 78, 84
1, 20877, Note_on_c, 0, 78, 0
1, 20877, Note_on_c, 0, 62, 0
1, 20878, Note_on_c, 0, 79, 84
1, 20878, Note_on_c, 0, 59, 97
1, 20924, Note_on_c, 0, 79, 0
1, 20924, Note_on_c, 0, 76, 93
1, 20925, Note_on_c, 0, 55, 97
1, 20926, Note_on_c, 0, 59, 0
1, 20972, Note_on_c, 0, 76, 0
1, 20972, Note_on_c, 0, 72, 93
1, 20973, Note_on_c, 0, 52, 97
1, 20974, Note_on_c, 0, 55, 0
1, 21020, Note_on_c, 0, 72, 0
1, 21020, Note_on_c, 0, 69, 93
1, 21021, Note_on_c, 0, 60, 97
1, 21022, Note_on_c, 0, 52, 0
1, 21066, Note_on_c, 0, 72, 93
1, 21070, Note_on_c, 0, 69, 0
1, 21113, Note_on_c, 0, 76, 93
1, 21117, Note_on_c, 0, 72, 0
1, 21160, Note_on_c, 0, 60, 0
1, 21161, Note_on_c, 0, 78, 84
1, 21161, Note_on_c, 0, 57, 97
1, 21164, Note_on_c, 0, 76, 0
1, 21207, Note_on_c, 0, 57, 0
1, 21208, Note_on_c, 0, 74, 93
1, 21208, Note_on_c, 0, 54, 97
1, 21211, Note_on_c, 0, 78, 0
1, 21253, Note_on_c, 0, 71, 93
1, 21254, Note_on_c, 0, 50, 97
1, 21255, Note_on_c, 0, 54, 0
1, 21257, Note_on_c, 0, 74, 0
1, 21300, Note_on_c, 0, 71, 0
1, 21301, Note_on_c, 0, 67, 97
1, 21301, Note_on_c, 0, 59, 97
1, 21302, Note_on_c, 0, 50, 0
1, 21347, Note_on_c, 0, 71, 93
1, 21352, Note_on_c, 0, 67, 0
1, 21394, Note_on_c, 0, 71, 0
1, 21394, Note_on_c, 0, 74, 93
1, 21441, Note_on_c, 0, 74, 0
1, 21441, Note_on_c, 0, 76, 93
1, 21442, Note_on_c, 0, 55, 97
1, 21445, Note_on_c, 0, 59, 0
1, 21487, Note_on_c, 0, 72, 93
1, 21488, Note_on_c, 0, 55, 0
1, 21488, Note_on_c, 0, 52, 97
1, 21491, Note_on_c, 0, 76, 0
1, 21534, Note_on_c, 0, 69, 93
1, 21534, Note_on_c, 0, 48, 97
1, 21535, Note_on_c, 0, 52, 0
1, 21538, Note_on_c, 0, 72, 0
1, 21580, Note_on_c, 0, 48, 0
1, 21581, Note_on_c, 0, 66, 97
1, 21581, Note_on_c, 0, 57, 97
1, 21584, Note_on_c, 0, 69, 0
1, 21626, Note_on_c, 0, 69, 93
1, 21631, Note_on_c, 0, 66, 0
1, 21673, Note_on_c, 0, 69, 0
1, 21673, Note_on_c, 0, 72, 93
1, 21720, Note_on_c, 0, 74, 93
1, 21720, Note_on_c, 0, 54, 97
1, 21723, Note_on_c, 0, 72, 0
1, 21724, Note_on_c, 0, 57, 0
1, 21766, Note_on_c, 0, 71, 93
1, 21766, Note_on_c, 0, 50, 97
1, 21767, Note_on_c, 0, 54, 0
1, 21769, Note_on_c, 0, 74, 0
1, 21813, Note_on_c, 0, 67, 97
1, 21813, Note_on_c, 0, 47, 97
1, 21814, Note_on_c, 0, 50, 0
1, 21816, Note_on_c, 0, 71, 0
1, 21859, Note_on_c, 0, 47, 0
1, 21860, Note_on_c, 0, 64, 97
1, 21860, Note_on_c, 0, 55, 97
1, 21861, Note_on_c, 0, 67, 0
1, 21906, Note_on_c, 0, 67, 97
1, 21907, Note_on_c, 0, 64, 0
1, 21953, Note_on_c, 0, 71, 93
1, 21954, Note_on_c, 0, 67, 0
1, 22001, Note_on_c, 0, 55, 0
1, 22001, Note_on_c, 0, 72, 93
1, 22002, Note_on_c, 0, 52, 97
1, 22004, Note_on_c, 0, 71, 0
1, 22046, Note_on_c, 0, 52, 0
1, 22047, Note_on_c, 0, 69, 93
1, 22048, Note_on_c, 0, 48, 97
1, 22051, Note_on_c, 0, 72, 0
1, 22093, Note_on_c, 0, 48, 0
1, 22094, Note_on_c, 0, 69, 0
1, 22094, Note_on_c, 0, 66, 97
1, 22095, Note_on_c, 0, 45, 97
1, 22140, Note_on_c, 0, 45, 0
1, 22141, Note_on_c, 0, 62, 97
1, 22141, Note_on_c, 0, 54, 97
1, 22142, Note_on_c, 0, 66, 0
1, 22188, Note_on_c, 0, 62, 0
1, 22188, Note_on_c, 0, 66, 97
1, 22234, Note_on_c, 0, 69, 93
1, 22236, Note_on_c, 0, 66, 0
1, 22281, Note_on_c, 0, 69, 0
1, 22281, Note_on_c, 0, 54, 0
1, 22282, Note_on_c, 0, 71, 93
1, 22282, Note_on_c, 0, 50, 97
1, 22328, Note_on_c, 0, 50, 0
1, 22328, Note_on_c, 0, 71, 0
1, 22329, Note_on_c, 0, 67, 97
1, 22329, Note_on_c, 0, 47, 97
1, 22375, Note_on_c, 0, 47, 0
1, 22375, Note_on_c, 0, 64, 97
1, 22376, Note_on_c, 0, 43, 97
1, 22377, Note_on_c, 0, 67, 0
1, 22421, Note_on_c, 0, 43, 0
1, 22421, Note_on_c, 0, 60, 97
1, 22422, Note_on_c, 0, 52, 97
1, 22423, Note_on_c, 0, 64, 0
1, 22468, Note_on_c, 0, 52, 0
1, 22468, Note_on_c, 0, 64, 97
1, 22469, Note_on_c, 0, 48, 97
1, 22470, Note_on_c, 0, 60, 0
1, 22515, Note_on_c, 0, 48, 0
1, 22515, Note_on_c, 0, 67, 97
1, 22516, Note_on_c, 0, 45, 97
1, 22517, Note_on_c, 0, 64, 0
1, 22562, Note_on_c, 0, 45, 0
1, 22562, Note_on_c, 0, 69, 93
1, 22563, Note_on_c, 0, 54, 97
1, 22564, Note_on_c, 0, 67, 0
1, 22609, Note_on_c, 0, 54, 0
1, 22609, Note_on_c, 0, 69, 0
1, 22610, Note_on_c, 0, 66, 97
1, 22610, Note_on_c, 0, 50, 97
1, 22656, Note_on_c, 0, 50, 0
1, 22656, Note_on_c, 0, 62, 97
1, 22657, Note_on_c, 0, 47, 97
1, 22658, Note_on_c, 0, 66, 0
1, 22702, Note_on_c, 0, 47, 0
1, 22703, Note_on_c, 0, 55, 97
1, 22703, Note_on_c, 0, 59, 97
1, 22704, Note_on_c, 0, 62, 0
1, 22748, Note_on_c, 0, 62, 97
1, 22749, Note_on_c, 0, 59, 0
1, 22794, Note_on_c, 0, 66, 97
1, 22797, Note_on_c, 0, 62, 0
1, 22839, Note_on_c, 0, 66, 0
1, 22840, Note_on_c, 0, 55, 0
1, 22840, Note_on_c, 0, 67, 97
1, 22841, Note_on_c, 0, 52, 97
1, 22887, Note_on_c, 0, 67, 0
1, 22888, Note_on_c, 0, 64, 97
1, 22934, Note_on_c, 0, 60, 97
1, 22936, Note_on_c, 0, 64, 0
1, 22981, Note_on_c, 0, 52, 0
1, 22982, Note_on_c, 0, 57, 97
1, 22982, Note_on_c, 0, 48, 97
1, 22983, Note_on_c, 0, 60, 0
1, 23030, Note_on_c, 0, 60, 97
1, 23032, Note_on_c, 0, 57, 0
1, 23078, Note_on_c, 0, 64, 97
1, 23079, Note_on_c, 0, 60, 0
1, 23127, Note_on_c, 0, 64, 0
1, 23128, Note_on_c, 0, 48, 0
1, 23128, Note_on_c, 0, 66, 97
1, 23129, Note_on_c, 0, 50, 97
1, 23177, Note_on_c, 0, 62, 97
1, 23178, Note_on_c, 0, 66, 0
1, 23227, Note_on_c, 0, 62, 0
1, 23228, Note_on_c, 0, 60, 97
1, 23279, Note_on_c, 0, 67, 73
1, 23280, Note_on_c, 0, 59, 73
1, 23280, Note_on_c, 0, 62, 73
1, 23280, Note_on_c, 0, 43, 88
1, 23281, Note_on_c, 0, 60, 0
1, 23290, Note_on_c, 0, 50, 0
1, 24208, Note_on_c, 0, 62, 0
1, 24208, Note_on_c, 0, 59, 0
1, 24208, Note_on_c, 0, 43, 0
1, 24209, Note_on_c, 0, 67, 0
1, 24324, Marker_t, "Copyright 1997 (P) S.D.Rodrian -  NOT to be reproduced or sold sans permission !"
1, 24785, Note_on_c, 0, 67, 89
1, 24907, Note_on_c, 0, 67, 0
1, 24907, Note_on_c, 0, 69, 89
1, 24964, Note_on_c, 0, 69, 0
1, 24965, Note_on_c, 0, 67, 89
1, 25021, Note_on_c, 0, 67, 0
1, 25021, Note_on_c, 0, 66, 89
1, 25077, Note_on_c, 0, 66, 0
1, 25077, Note_on_c, 0, 67, 89
1, 25130, Note_on_c, 0, 67, 0
1, 25131, Note_on_c, 0, 69, 89
1, 25240, Note_on_c, 0, 69, 0
1, 25240, Note_on_c, 0, 71, 89
1, 25294, Note_on_c, 0, 71, 0
1, 25294, Note_on_c, 0, 69, 89
1, 25347, Note_on_c, 0, 69, 0
1, 25348, Note_on_c, 0, 67, 89
1, 25402, Note_on_c, 0, 67, 0
1, 25403, Note_on_c, 0, 69, 89
1, 25456, Note_on_c, 0, 69, 0
1, 25456, Note_on_c, 0, 71, 89
1, 25564, Note_on_c, 0, 71, 0
1, 25565, Note_on_c, 0, 69, 89
1, 25675, Note_on_c, 0, 69, 0
1, 25675, Note_on_c, 0, 67, 89
1, 25785, Note_on_c, 0, 67, 0
1, 25785, Note_on_c, 0, 62, 89
1, 25894, Note_on_c, 0, 62, 0
1, 25894, Note_on_c, 0, 72, 89
1, 26125, Note_on_c, 0, 72, 0
1, 26125, Note_on_c, 0, 71, 89
1, 26235, Note_on_c, 0, 71, 0
1, 26235, Note_on_c, 0, 69, 89
1, 26343, Note_on_c, 0, 69, 0
1, 26344, Note_on_c, 0, 67, 88
1, 26454, Note_on_c, 0, 67, 0
1, 26454, Note_on_c, 0, 66, 88
1, 26565, Note_on_c, 0, 66, 0
1, 26566, Note_on_c, 0, 76, 83
1, 26786, Note_on_c, 0, 76, 0
1, 26786, Note_on_c, 0, 74, 89
1, 26893, Note_on_c, 0, 74, 0
1, 26894, Note_on_c, 0, 76, 83
1, 26947, Note_on_c, 0, 76, 0
1, 26948, Note_on_c, 0, 74, 89
1, 27001, Note_on_c, 0, 74, 0
1, 27001, Note_on_c, 0, 72, 89
1, 27056, Note_on_c, 0, 72, 0
1, 27056, Note_on_c, 0, 71, 89
1, 27110, Note_on_c, 0, 71, 0
1, 27111, Note_on_c, 0, 69, 89
1, 27219, Note_on_c, 0, 69, 0
1, 27219, Note_on_c, 0, 72, 91
1, 27273, Note_on_c, 0, 72, 0
1, 27273, Note_on_c, 0, 71, 91
1, 27326, Note_on_c, 0, 71, 0
1, 27327, Note_on_c, 0, 69, 91
1, 27381, Note_on_c, 0, 69, 0
1, 27382, Note_on_c, 0, 67, 90
1, 27435, Note_on_c, 0, 67, 0
1, 27435, Note_on_c, 0, 66, 90
1, 27436, Note_on_c, 0, 62, 90
1, 27543, Note_on_c, 0, 62, 0
1, 27544, Note_on_c, 0, 66, 0
1, 27544, Note_on_c, 0, 67, 90
1, 27545, Note_on_c, 0, 64, 90
1, 27597, Note_on_c, 0, 64, 0
1, 27598, Note_on_c, 0, 62, 93
1, 27651, Note_on_c, 0, 62, 0
1, 27651, Note_on_c, 0, 67, 0
1, 27652, Note_on_c, 0, 69, 93
1, 27652, Note_on_c, 0, 61, 93
1, 27705, Note_on_c, 0, 61, 0
1, 27705, Note_on_c, 0, 62, 93
1, 27758, Note_on_c, 0, 62, 0
1, 27759, Note_on_c, 0, 69, 0
1, 27759, Note_on_c, 0, 67, 93
1, 27760, Note_on_c, 0, 64, 93
1, 27866, Note_on_c, 0, 64, 0
1, 27866, Note_on_c, 0, 67, 0
1, 27867, Note_on_c, 0, 69, 91
1, 27867, Note_on_c, 0, 66, 93
1, 27919, Note_on_c, 0, 66, 0
1, 27919, Note_on_c, 0, 64, 93
1, 27973, Note_on_c, 0, 64, 0
1, 27974, Note_on_c, 0, 69, 0
1, 27974, Note_on_c, 0, 71, 91
1, 27975, Note_on_c, 0, 62, 93
1, 28028, Note_on_c, 0, 62, 0
1, 28029, Note_on_c, 0, 64, 93
1, 28083, Note_on_c, 0, 64, 0
1, 28083, Note_on_c, 0, 71, 0
1, 28084, Note_on_c, 0, 69, 91
1, 28084, Note_on_c, 0, 66, 93
1, 28191, Note_on_c, 0, 66, 0
1, 28191, Note_on_c, 0, 69, 0
1, 28191, Note_on_c, 0, 71, 91
1, 28192, Note_on_c, 0, 64, 93
1, 28245, Note_on_c, 0, 71, 0
1, 28245, Note_on_c, 0, 73, 91
1, 28298, Note_on_c, 0, 73, 0
1, 28299, Note_on_c, 0, 64, 0
1, 28299, Note_on_c, 0, 74, 91
1, 28299, Note_on_c, 0, 62, 93
1, 28353, Note_on_c, 0, 74, 0
1, 28354, Note_on_c, 0, 71, 91
1, 28407, Note_on_c, 0, 71, 0
1, 28407, Note_on_c, 0, 62, 0
1, 28408, Note_on_c, 0, 73, 91
1, 28408, Note_on_c, 0, 57, 93
1, 28462, Note_on_c, 0, 73, 0
1, 28463, Note_on_c, 0, 71, 91
1, 28516, Note_on_c, 0, 71, 0
1, 28517, Note_on_c, 0, 57, 0
1, 28517, Note_on_c, 0, 73, 91
1, 28518, Note_on_c, 0, 67, 93
1, 28571, Note_on_c, 0, 73, 0
1, 28571, Note_on_c, 0, 74, 91
1, 28626, Note_on_c, 0, 74, 0
1, 28626, Note_on_c, 0, 76, 85
1, 28680, Note_on_c, 0, 76, 0
1, 28681, Note_on_c, 0, 73, 91
1, 28735, Note_on_c, 0, 73, 0
1, 28736, Note_on_c, 0, 67, 0
1, 28736, Note_on_c, 0, 74, 91
1, 28737, Note_on_c, 0, 66, 93
1, 28789, Note_on_c, 0, 74, 0
1, 28789, Note_on_c, 0, 73, 91
1, 28843, Note_on_c, 0, 73, 0
1, 28843, Note_on_c, 0, 66, 0
1, 28844, Note_on_c, 0, 74, 89
1, 28844, Note_on_c, 0, 64, 93
1, 28897, Note_on_c, 0, 74, 0
1, 28898, Note_on_c, 0, 76, 83
1, 28951, Note_on_c, 0, 76, 0
1, 28952, Note_on_c, 0, 64, 0
1, 28952, Note_on_c, 0, 78, 83
1, 28953, Note_on_c, 0, 62, 93
1, 29006, Note_on_c, 0, 78, 0
1, 29006, Note_on_c, 0, 74, 89
1, 29060, Note_on_c, 0, 74, 0
1, 29060, Note_on_c, 0, 62, 0
1, 29061, Note_on_c, 0, 76, 83
1, 29061, Note_on_c, 0, 61, 93
1, 29113, Note_on_c, 0, 76, 0
1, 29114, Note_on_c, 0, 74, 89
1, 29160, Marker_t, "This file may be freely distributed on the WWW, as long as it's not modified. SDR"
1, 29168, Note_on_c, 0, 74, 0
1, 29169, Note_on_c, 0, 61, 0
1, 29169, Note_on_c, 0, 76, 83
1, 29170, Note_on_c, 0, 71, 89
1, 29222, Note_on_c, 0, 76, 0
1, 29222, Note_on_c, 0, 78, 83
1, 29277, Note_on_c, 0, 78, 0
1, 29277, Note_on_c, 0, 79, 83
1, 29330, Note_on_c, 0, 79, 0
1, 29331, Note_on_c, 0, 76, 83
1, 29384, Note_on_c, 0, 76, 0
1, 29385, Note_on_c, 0, 71, 0
1, 29385, Note_on_c, 0, 78, 83
1, 29386, Note_on_c, 0, 69, 89
1, 29492, Note_on_c, 0, 69, 0
1, 29492, Note_on_c, 0, 78, 0
1, 29493, Note_on_c, 0, 71, 89
1, 29493, Note_on_c, 0, 79, 83
1, 29545, Note_on_c, 0, 71, 0
1, 29546, Note_on_c, 0, 79, 0
1, 29546, Note_on_c, 0, 78, 83
1, 29547, Note_on_c, 0, 69, 89
1, 29599, Note_on_c, 0, 69, 0
1, 29600, Note_on_c, 0, 78, 0
1, 29600, Note_on_c, 0, 76, 83
1, 29601, Note_on_c, 0, 67, 97
1, 29653, Note_on_c, 0, 67, 0
1, 29653, Note_on_c, 0, 76, 0
1, 29654, Note_on_c, 0, 74, 89
1, 29654, Note_on_c, 0, 66, 97
1, 29707, Note_on_c, 0, 66, 0
1, 29707, Note_on_c, 0, 74, 0
1, 29708, Note_on_c, 0, 79, 83
1, 29708, Note_on_c, 0, 64, 97
1, 29814, Note_on_c, 0, 64, 0
1, 29815, Note_on_c, 0, 67, 97
1, 29868, Note_on_c, 0, 67, 0
1, 29868, Note_on_c, 0, 66, 97
1, 29922, Note_on_c, 0, 66, 0
1, 29922, Note_on_c, 0, 64, 97
1, 29976, Note_on_c, 0, 64, 0
1, 29976, Note_on_c, 0, 62, 97
1, 30029, Note_on_c, 0, 62, 0
1, 30030, Note_on_c, 0, 61, 97
1, 30084, Note_on_c, 0, 79, 0
1, 30084, Note_on_c, 0, 78, 83
1, 30139, Note_on_c, 0, 78, 0
1, 30139, Note_on_c, 0, 61, 0
1, 30140, Note_on_c, 0, 76, 83
1, 30140, Note_on_c, 0, 67, 97
1, 30194, Note_on_c, 0, 76, 0
1, 30195, Note_on_c, 0, 79, 83
1, 30249, Note_on_c, 0, 79, 0
1, 30250, Note_on_c, 0, 67, 0
1, 30250, Note_on_c, 0, 74, 89
1, 30251, Note_on_c, 0, 66, 97
1, 30304, Note_on_c, 0, 74, 0
1, 30304, Note_on_c, 0, 79, 83
1, 30359, Note_on_c, 0, 79, 0
1, 30359, Note_on_c, 0, 66, 0
1, 30360, Note_on_c, 0, 73, 89
1, 30360, Note_on_c, 0, 64, 97
1, 30414, Note_on_c, 0, 73, 0
1, 30415, Note_on_c, 0, 79, 83
1, 30469, Note_on_c, 0, 79, 0
1, 30469, Note_on_c, 0, 64, 0
1, 30470, Note_on_c, 0, 71, 89
1, 30470, Note_on_c, 0, 62, 97
1, 30524, Note_on_c, 0, 71, 0
1, 30524, Note_on_c, 0, 79, 83
1, 30579, Note_on_c, 0, 79, 0
1, 30579, Note_on_c, 0, 62, 0
1, 30579, Note_on_c, 0, 69, 89
1, 30580, Note_on_c, 0, 61, 97
1, 30635, Note_on_c, 0, 69, 0
1, 30635, Note_on_c, 0, 79, 83
1, 30689, Note_on_c, 0, 79, 0
1, 30690, Note_on_c, 0, 61, 0
1, 30690, Note_on_c, 0, 78, 83
1, 30690, Note_on_c, 0, 62, 97
1, 30743, Note_on_c, 0, 62, 0
1, 30743, Note_on_c, 0, 64, 97
1, 30798, Note_on_c, 0, 64, 0
1, 30798, Note_on_c, 0, 78, 0
1, 30798, Note_on_c, 0, 74, 89
1, 30799, Note_on_c, 0, 66, 97
1, 30852, Note_on_c, 0, 66, 0
1, 30852, Note_on_c, 0, 62, 97
1, 30906, Note_on_c, 0, 62, 0
1, 30907, Note_on_c, 0, 74, 0
1, 30907, Note_on_c, 0, 76, 83
1, 30908, Note_on_c, 0, 67, 97
1, 30960, Note_on_c, 0, 67, 0
1, 30960, Note_on_c, 0, 62, 97
1, 31014, Note_on_c, 0, 62, 0
1, 31014, Note_on_c, 0, 76, 0
1, 31015, Note_on_c, 0, 78, 83
1, 31015, Note_on_c, 0, 69, 89
1, 31068, Note_on_c, 0, 69, 0
1, 31069, Note_on_c, 0, 62, 97
1, 31123, Note_on_c, 0, 62, 0
1, 31124, Note_on_c, 0, 78, 0
1, 31124, Note_on_c, 0, 79, 83
1, 31125, Note_on_c, 0, 71, 89
1, 31178, Note_on_c, 0, 71, 0
1, 31178, Note_on_c, 0, 62, 97
1, 31232, Note_on_c, 0, 62, 0
1, 31232, Note_on_c, 0, 79, 0
1, 31233, Note_on_c, 0, 81, 83
1, 31233, Note_on_c, 0, 72, 89
1, 31286, Note_on_c, 0, 72, 0
1, 31287, Note_on_c, 0, 62, 97
1, 31341, Note_on_c, 0, 62, 0
1, 31342, Note_on_c, 0, 71, 91
1, 31342, Note_on_c, 0, 55, 97
1, 31452, Note_on_c, 0, 55, 0
1, 31452, Note_on_c, 0, 81, 0
1, 31452, Note_on_c, 0, 74, 92
1, 31453, Note_on_c, 0, 57, 97
1, 31506, Note_on_c, 0, 57, 0
1, 31507, Note_on_c, 0, 55, 97
1, 31561, Note_on_c, 0, 55, 0
1, 31561, Note_on_c, 0, 74, 0
1, 31562, Note_on_c, 0, 79, 86
1, 31562, Note_on_c, 0, 54, 97
1, 31617, Note_on_c, 0, 54, 0
1, 31617, Note_on_c, 0, 55, 97
1, 31670, Note_on_c, 0, 55, 0
1, 31671, Note_on_c, 0, 71, 0
1, 31671, Note_on_c, 0, 72, 92
1, 31672, Note_on_c, 0, 57, 97
1, 31780, Note_on_c, 0, 57, 0
1, 31780, Note_on_c, 0, 79, 0
1, 31781, Note_on_c, 0, 78, 86
1, 31781, Note_on_c, 0, 59, 97
1, 31835, Note_on_c, 0, 59, 0
1, 31835, Note_on_c, 0, 57, 97
1, 31888, Note_on_c, 0, 57, 0
1, 31889, Note_on_c, 0, 78, 0
1, 31889, Note_on_c, 0, 76, 86
1, 31890, Note_on_c, 0, 55, 97
1, 31942, Note_on_c, 0, 55, 0
1, 31943, Note_on_c, 0, 57, 97
1, 31997, Note_on_c, 0, 57, 0
1, 31997, Note_on_c, 0, 76, 0
1, 31998, Note_on_c, 0, 74, 92
1, 31998, Note_on_c, 0, 59, 97
1, 32106, Note_on_c, 0, 59, 0
1, 32107, Note_on_c, 0, 74, 0
1, 32107, Note_on_c, 0, 72, 0
1, 32108, Note_on_c, 0, 72, 92
1, 32108, Note_on_c, 0, 66, 97
1, 32109, Note_on_c, 0, 57, 97
1, 32216, Note_on_c, 0, 57, 0
1, 32216, Note_on_c, 0, 66, 0
1, 32217, Note_on_c, 0, 72, 0
1, 32217, Note_on_c, 0, 71, 92
1, 32218, Note_on_c, 0, 67, 97
1, 32218, Note_on_c, 0, 55, 97
1, 32324, Note_on_c, 0, 55, 0
1, 32325, Note_on_c, 0, 71, 0
1, 32325, Note_on_c, 0, 69, 92
1, 32326, Note_on_c, 0, 50, 97
1, 32433, Note_on_c, 0, 50, 0
1, 32433, Note_on_c, 0, 67, 0
1, 32434, Note_on_c, 0, 60, 97
1, 32434, Note_on_c, 0, 66, 97
1, 32486, Note_on_c, 0, 66, 0
1, 32487, Note_on_c, 0, 67, 97
1, 32541, Note_on_c, 0, 67, 0
1, 32542, Note_on_c, 0, 69, 0
1, 32542, Note_on_c, 0, 69, 92
1, 32595, Note_on_c, 0, 69, 0
1, 32595, Note_on_c, 0, 66, 97
1, 32649, Note_on_c, 0, 66, 0
1, 32649, Note_on_c, 0, 60, 0
1, 32650, Note_on_c, 0, 59, 97
1, 32650, Note_on_c, 0, 67, 97
1, 32703, Note_on_c, 0, 67, 0
1, 32704, Note_on_c, 0, 66, 97
1, 32758, Note_on_c, 0, 66, 0
1, 32759, Note_on_c, 0, 59, 0
1, 32759, Note_on_c, 0, 57, 97
1, 32760, Note_on_c, 0, 67, 97
1, 32813, Note_on_c, 0, 67, 0
1, 32813, Note_on_c, 0, 69, 92
1, 32867, Note_on_c, 0, 69, 0
1, 32867, Note_on_c, 0, 57, 0
1, 32868, Note_on_c, 0, 71, 92
1, 32868, Note_on_c, 0, 74, 92
1, 32868, Note_on_c, 0, 55, 97
1, 32922, Note_on_c, 0, 71, 0
1, 32922, Note_on_c, 0, 67, 97
1, 32976, Note_on_c, 0, 67, 0
1, 32977, Note_on_c, 0, 55, 0
1, 32977, Note_on_c, 0, 69, 92
1, 32977, Note_on_c, 0, 54, 97
1, 33030, Note_on_c, 0, 69, 0
1, 33031, Note_on_c, 0, 67, 97
1, 33085, Note_on_c, 0, 67, 0
1, 33085, Note_on_c, 0, 54, 0
1, 33085, Note_on_c, 0, 74, 0
1, 33086, Note_on_c, 0, 69, 92
1, 33086, Note_on_c, 0, 72, 92
1, 33087, Note_on_c, 0, 64, 97
1, 33139, Note_on_c, 0, 69, 0
1, 33140, Note_on_c, 0, 71, 92
1, 33195, Note_on_c, 0, 71, 0
1, 33196, Note_on_c, 0, 72, 0
1, 33196, Note_on_c, 0, 81, 86
1, 33197, Note_on_c, 0, 72, 92
1, 33250, Note_on_c, 0, 72, 0
1, 33250, Note_on_c, 0, 69, 92
1, 33305, Note_on_c, 0, 69, 0
1, 33305, Note_on_c, 0, 64, 0
1, 33306, Note_on_c, 0, 71, 92
1, 33306, Note_on_c, 0, 62, 97
1, 33413, Note_on_c, 0, 62, 0
1, 33414, Note_on_c, 0, 71, 0
1, 33414, Note_on_c, 0, 81, 0
1, 33415, Note_on_c, 0, 79, 86
1, 33415, Note_on_c, 0, 72, 92
1, 33416, Note_on_c, 0, 64, 97
1, 33467, Note_on_c, 0, 64, 0
1, 33468, Note_on_c, 0, 72, 0
1, 33468, Note_on_c, 0, 71, 92
1, 33468, Note_on_c, 0, 62, 97
1, 33522, Note_on_c, 0, 62, 0
1, 33522, Note_on_c, 0, 71, 0
1, 33523, Note_on_c, 0, 69, 92
1, 33523, Note_on_c, 0, 60, 97
1, 33576, Note_on_c, 0, 60, 0
1, 33576, Note_on_c, 0, 69, 0
1, 33576, Note_on_c, 0, 59, 97
1, 33577, Note_on_c, 0, 67, 97
1, 33629, Note_on_c, 0, 67, 0
1, 33630, Note_on_c, 0, 59, 0
1, 33630, Note_on_c, 0, 72, 92
1, 33631, Note_on_c, 0, 57, 97
1, 33737, Note_on_c, 0, 57, 0
1, 33737, Note_on_c, 0, 79, 0
1, 33738, Note_on_c, 0, 81, 86
1, 33738, Note_on_c, 0, 60, 97
1, 33791, Note_on_c, 0, 60, 0
1, 33791, Note_on_c, 0, 81, 0
1, 33792, Note_on_c, 0, 79, 86
1, 33792, Note_on_c, 0, 59, 97
1, 33844, Note_on_c, 0, 59, 0
1, 33845, Note_on_c, 0, 79, 0
1, 33845, Note_on_c, 0, 78, 86
1, 33846, Note_on_c, 0, 57, 97
1, 33898, Note_on_c, 0, 57, 0
1, 33899, Note_on_c, 0, 78, 0
1, 33899, Note_on_c, 0, 76, 86
1, 33900, Note_on_c, 0, 55, 97
1, 33953, Note_on_c, 0, 55, 0
1, 33953, Note_on_c, 0, 76, 0
1, 33954, Note_on_c, 0, 74, 92
1, 33954, Note_on_c, 0, 54, 97
1, 33996, Marker_t, "SDRodrian@aol.com  626 Lalor Trenton NJ 08611 http://members.aol.com/sdrodrian"
1, 34008, Note_on_c, 0, 72, 0
1, 34009, Note_on_c, 0, 71, 92
1, 34064, Note_on_c, 0, 71, 0
1, 34065, Note_on_c, 0, 69, 92
1, 34120, Note_on_c, 0, 69, 0
1, 34120, Note_on_c, 0, 72, 92
1, 34175, Note_on_c, 0, 72, 0
1, 34175, Note_on_c, 0, 54, 0
1, 34176, Note_on_c, 0, 52, 97
1, 34176, Note_on_c, 0, 67, 97
1, 34230, Note_on_c, 0, 67, 0
1, 34231, Note_on_c, 0, 72, 92
1, 34286, Note_on_c, 0, 72, 0
1, 34286, Note_on_c, 0, 52, 0
1, 34287, Note_on_c, 0, 66, 97
1, 34287, Note_on_c, 0, 50, 97
1, 34342, Note_on_c, 0, 50, 0
1, 34342, Note_on_c, 0, 66, 0
1, 34343, Note_on_c, 0, 72, 92
1, 34343, Note_on_c, 0, 52, 97
1, 34397, Note_on_c, 0, 52, 0
1, 34398, Note_on_c, 0, 72, 0
1, 34398, Note_on_c, 0, 50, 97
1, 34399, Note_on_c, 0, 64, 97
1, 34454, Note_on_c, 0, 64, 0
1, 34454, Note_on_c, 0, 50, 0
1, 34455, Note_on_c, 0, 72, 92
1, 34455, Note_on_c, 0, 48, 97
1, 34509, Note_on_c, 0, 48, 0
1, 34509, Note_on_c, 0, 72, 0
1, 34510, Note_on_c, 0, 62, 97
1, 34510, Note_on_c, 0, 47, 97
1, 34564, Note_on_c, 0, 47, 0
1, 34565, Note_on_c, 0, 62, 0
1, 34565, Note_on_c, 0, 72, 92
1, 34566, Note_on_c, 0, 45, 97
1, 34620, Note_on_c, 0, 45, 0
1, 34620, Note_on_c, 0, 72, 0
1, 34621, Note_on_c, 0, 71, 92
1, 34621, Note_on_c, 0, 43, 97
1, 34675, Note_on_c, 0, 43, 0
1, 34675, Note_on_c, 0, 45, 97
1, 34720, Note_on_c, 0, 74, 0
1, 34728, Note_on_c, 0, 45, 0
1, 34729, Note_on_c, 0, 71, 0
1, 34729, Note_on_c, 0, 74, 92
1, 34730, Note_on_c, 0, 65, 97
1, 34730, Note_on_c, 0, 47, 97
1, 34784, Note_on_c, 0, 47, 0
1, 34785, Note_on_c, 0, 43, 97
1, 34839, Note_on_c, 0, 43, 0
1, 34839, Note_on_c, 0, 65, 0
1, 34840, Note_on_c, 0, 74, 0
1, 34840, Note_on_c, 0, 72, 92
1, 34841, Note_on_c, 0, 64, 97
1, 34841, Note_on_c, 0, 48, 97
1, 34894, Note_on_c, 0, 48, 0
1, 34894, Note_on_c, 0, 43, 97
1, 34948, Note_on_c, 0, 43, 0
1, 34949, Note_on_c, 0, 64, 0
1, 34949, Note_on_c, 0, 72, 0
1, 34950, Note_on_c, 0, 71, 92
1, 34950, Note_on_c, 0, 62, 97
1, 34951, Note_on_c, 0, 50, 97
1, 35004, Note_on_c, 0, 50, 0
1, 35005, Note_on_c, 0, 43, 97
1, 35059, Note_on_c, 0, 43, 0
1, 35059, Note_on_c, 0, 62, 0
1, 35060, Note_on_c, 0, 71, 0
1, 35060, Note_on_c, 0, 69, 92
1, 35061, Note_on_c, 0, 60, 97
1, 35061, Note_on_c, 0, 52, 97
1, 35113, Note_on_c, 0, 52, 0
1, 35114, Note_on_c, 0, 43, 97
1, 35169, Note_on_c, 0, 43, 0
1, 35169, Note_on_c, 0, 60, 0
1, 35169, Note_on_c, 0, 69, 0
1, 35170, Note_on_c, 0, 67, 97
1, 35170, Note_on_c, 0, 59, 97
1, 35171, Note_on_c, 0, 53, 97
1, 35222, Note_on_c, 0, 53, 0
1, 35222, Note_on_c, 0, 43, 97
1, 35277, Note_on_c, 0, 43, 0
1, 35278, Note_on_c, 0, 59, 0
1, 35278, Note_on_c, 0, 67, 0
1, 35278, Note_on_c, 0, 72, 96
1, 35279, Note_on_c, 0, 52, 97
1, 35334, Note_on_c, 0, 52, 0
1, 35334, Note_on_c, 0, 72, 0
1, 35334, Note_on_c, 0, 74, 96
1, 35335, Note_on_c, 0, 50, 97
1, 35389, Note_on_c, 0, 50, 0
1, 35390, Note_on_c, 0, 74, 0
1, 35390, Note_on_c, 0, 76, 90
1, 35390, Note_on_c, 0, 48, 97
1, 35446, Note_on_c, 0, 48, 0
1, 35447, Note_on_c, 0, 52, 97
1, 35503, Note_on_c, 0, 52, 0
1, 35503, Note_on_c, 0, 67, 97
1, 35503, Note_on_c, 0, 47, 97
1, 35558, Note_on_c, 0, 47, 0
1, 35559, Note_on_c, 0, 52, 97
1, 35615, Note_on_c, 0, 52, 0
1, 35616, Note_on_c, 0, 67, 0
1, 35616, Note_on_c, 0, 66, 97
1, 35616, Note_on_c, 0, 45, 97
1, 35671, Note_on_c, 0, 45, 0
1, 35671, Note_on_c, 0, 76, 0
1, 35672, Note_on_c, 0, 74, 96
1, 35672, Note_on_c, 0, 52, 97
1, 35726, Note_on_c, 0, 52, 0
1, 35727, Note_on_c, 0, 74, 0
1, 35727, Note_on_c, 0, 72, 96
1, 35728, Note_on_c, 0, 43, 97
1, 35782, Note_on_c, 0, 43, 0
1, 35783, Note_on_c, 0, 72, 0
1, 35783, Note_on_c, 0, 71, 96
1, 35784, Note_on_c, 0, 52, 97
1, 35839, Note_on_c, 0, 52, 0
1, 35839, Note_on_c, 0, 71, 0
1, 35840, Note_on_c, 0, 69, 96
1, 35840, Note_on_c, 0, 42, 97
1, 35895, Note_on_c, 0, 42, 0
1, 35896, Note_on_c, 0, 69, 0
1, 35896, Note_on_c, 0, 72, 96
1, 35897, Note_on_c, 0, 52, 97
1, 35951, Note_on_c, 0, 52, 0
1, 35952, Note_on_c, 0, 72, 0
1, 35952, Note_on_c, 0, 71, 96
1, 35952, Note_on_c, 0, 50, 97
1, 36007, Note_on_c, 0, 50, 0
1, 36007, Note_on_c, 0, 71, 0
1, 36008, Note_on_c, 0, 72, 96
1, 36008, Note_on_c, 0, 48, 97
1, 36061, Note_on_c, 0, 48, 0
1, 36062, Note_on_c, 0, 72, 0
1, 36062, Note_on_c, 0, 74, 96
1, 36063, Note_on_c, 0, 47, 97
1, 36116, Note_on_c, 0, 47, 0
1, 36117, Note_on_c, 0, 50, 97
1, 36162, Note_on_c, 0, 66, 0
1, 36171, Note_on_c, 0, 50, 0
1, 36171, Note_on_c, 0, 66, 97
1, 36172, Note_on_c, 0, 45, 97
1, 36227, Note_on_c, 0, 45, 0
1, 36227, Note_on_c, 0, 50, 97
1, 36281, Note_on_c, 0, 50, 0
1, 36282, Note_on_c, 0, 66, 0
1, 36282, Note_on_c, 0, 64, 97
1, 36283, Note_on_c, 0, 43, 97
1, 36336, Note_on_c, 0, 43, 0
1, 36336, Note_on_c, 0, 74, 0
1, 36337, Note_on_c, 0, 72, 96
1, 36337, Note_on_c, 0, 50, 97
1, 36391, Note_on_c, 0, 50, 0
1, 36391, Note_on_c, 0, 72, 0
1, 36392, Note_on_c, 0, 71, 96
1, 36392, Note_on_c, 0, 42, 97
1, 36446, Note_on_c, 0, 42, 0
1, 36447, Note_on_c, 0, 71, 0
1, 36447, Note_on_c, 0, 69, 97
1, 36448, Note_on_c, 0, 50, 97
1, 36501, Note_on_c, 0, 50, 0
1, 36502, Note_on_c, 0, 69, 0
1, 36502, Note_on_c, 0, 67, 97
1, 36503, Note_on_c, 0, 40, 97
1, 36557, Note_on_c, 0, 40, 0
1, 36557, Note_on_c, 0, 67, 0
1, 36558, Note_on_c, 0, 71, 97
1, 36558, Note_on_c, 0, 50, 97
1, 36612, Note_on_c, 0, 50, 0
1, 36613, Note_on_c, 0, 71, 0
1, 36613, Note_on_c, 0, 69, 97
1, 36614, Note_on_c, 0, 48, 97
1, 36668, Note_on_c, 0, 48, 0
1, 36669, Note_on_c, 0, 69, 0
1, 36669, Note_on_c, 0, 71, 97
1, 36670, Note_on_c, 0, 47, 97
1, 36722, Note_on_c, 0, 47, 0
1, 36722, Note_on_c, 0, 71, 0
1, 36723, Note_on_c, 0, 72, 97
1, 36723, Note_on_c, 0, 45, 97
1, 36777, Note_on_c, 0, 45, 0
1, 36777, Note_on_c, 0, 48, 97
1, 36822, Note_on_c, 0, 64, 0
1, 36831, Note_on_c, 0, 48, 0
1, 36832, Note_on_c, 0, 64, 97
1, 36832, Note_on_c, 0, 43, 97
1, 36885, Note_on_c, 0, 43, 0
1, 36886, Note_on_c, 0, 48, 97
1, 36940, Note_on_c, 0, 48, 0
1, 36940, Note_on_c, 0, 64, 0
1, 36941, Note_on_c, 0, 62, 97
1, 36941, Note_on_c, 0, 42, 97
1, 36995, Note_on_c, 0, 42, 0
1, 36995, Note_on_c, 0, 72, 0
1, 36996, Note_on_c, 0, 71, 97
1, 36996, Note_on_c, 0, 48, 97
1, 37049, Note_on_c, 0, 48, 0
1, 37050, Note_on_c, 0, 71, 0
1, 37050, Note_on_c, 0, 69, 97
1, 37051, Note_on_c, 0, 40, 97
1, 37104, Note_on_c, 0, 40, 0
1, 37104, Note_on_c, 0, 69, 0
1, 37105, Note_on_c, 0, 67, 97
1, 37105, Note_on_c, 0, 48, 97
1, 37159, Note_on_c, 0, 48, 0
1, 37159, Note_on_c, 0, 67, 0
1, 37160, Note_on_c, 0, 66, 97
1, 37160, Note_on_c, 0, 38, 97
1, 37212, Note_on_c, 0, 38, 0
1, 37213, Note_on_c, 0, 66, 0
1, 37213, Note_on_c, 0, 69, 97
1, 37214, Note_on_c, 0, 48, 97
1, 37267, Note_on_c, 0, 48, 0
1, 37268, Note_on_c, 0, 69, 0
1, 37268, Note_on_c, 0, 62, 0
1, 37269, Note_on_c, 0, 67, 97
1, 37269, Note_on_c, 0, 62, 97
1, 37270, Note_on_c, 0, 47, 97
1, 37320, Note_on_c, 0, 67, 0
1, 37320, Note_on_c, 0, 69, 97
1, 37374, Note_on_c, 0, 69, 0
1, 37374, Note_on_c, 0, 47, 0
1, 37375, Note_on_c, 0, 62, 0
1, 37375, Note_on_c, 0, 71, 97
1, 37376, Note_on_c, 0, 60, 97
1, 37376, Note_on_c, 0, 45, 97
1, 37428, Note_on_c, 0, 60, 0
1, 37428, Note_on_c, 0, 62, 97
1, 37482, Note_on_c, 0, 62, 0
1, 37482, Note_on_c, 0, 45, 0
1, 37482, Note_on_c, 0, 64, 97
1, 37483, Note_on_c, 0, 43, 97
1, 37536, Note_on_c, 0, 64, 0
1, 37537, Note_on_c, 0, 62, 97
1, 37591, Note_on_c, 0, 62, 0
1, 37592, Note_on_c, 0, 43, 0
1, 37592, Note_on_c, 0, 60, 97
1, 37592, Note_on_c, 0, 45, 97
1, 37700, Note_on_c, 0, 45, 0
1, 37701, Note_on_c, 0, 60, 0
1, 37702, Note_on_c, 0, 71, 0
1, 37702, Note_on_c, 0, 64, 97
1, 37702, Note_on_c, 0, 59, 97
1, 37703, Note_on_c, 0, 43, 97
1, 37755, Note_on_c, 0, 59, 0
1, 37756, Note_on_c, 0, 60, 97
1, 37810, Note_on_c, 0, 60, 0
1, 37811, Note_on_c, 0, 43, 0
1, 37811, Note_on_c, 0, 64, 0
1, 37812, Note_on_c, 0, 69, 97
1, 37812, Note_on_c, 0, 62, 97
1, 37812, Note_on_c, 0, 42, 97
1, 37865, Note_on_c, 0, 62, 0
1, 37865, Note_on_c, 0, 60, 97
1, 37920, Note_on_c, 0, 60, 0
1, 37921, Note_on_c, 0, 42, 0
1, 37921, Note_on_c, 0, 59, 97
1, 37921, Note_on_c, 0, 43, 97
1, 37976, Note_on_c, 0, 43, 0
1, 37977, Note_on_c, 0, 69, 0
1, 37977, Note_on_c, 0, 67, 97
1, 37977, Note_on_c, 0, 55, 97
1, 38033, Note_on_c, 0, 55, 0
1, 38033, Note_on_c, 0, 67, 0
1, 38034, Note_on_c, 0, 59, 0
1, 38034, Note_on_c, 0, 69, 97
1, 38035, Note_on_c, 0, 60, 97
1, 38035, Note_on_c, 0, 53, 97
1, 38090, Note_on_c, 0, 53, 0
1, 38091, Note_on_c, 0, 52, 97
1, 38147, Note_on_c, 0, 52, 0
1, 38148, Note_on_c, 0, 60, 0
1, 38148, Note_on_c, 0, 69, 0
1, 38148, Note_on_c, 0, 71, 96
1, 38149, Note_on_c, 0, 50, 97
1, 38149, Note_on_c, 0, 62, 97
1, 38205, Note_on_c, 0, 50, 0
1, 38205, Note_on_c, 0, 53, 97
1, 38262, Note_on_c, 0, 53, 0
1, 38263, Note_on_c, 0, 62, 0
1, 38263, Note_on_c, 0, 71, 0
1, 38264, Note_on_c, 0, 72, 96
1, 38264, Note_on_c, 0, 67, 97
1, 38265, Note_on_c, 0, 52, 97
1, 38319, Note_on_c, 0, 52, 0
1, 38319, Note_on_c, 0, 72, 0
1, 38320, Note_on_c, 0, 74, 96
1, 38320, Note_on_c, 0, 53, 97
1, 38376, Note_on_c, 0, 53, 0
1, 38376, Note_on_c, 0, 74, 0
1, 38376, Note_on_c, 0, 67, 0
1, 38377, Note_on_c, 0, 72, 96
1, 38377, Note_on_c, 0, 57, 97
1, 38378, Note_on_c, 0, 52, 97
1, 38432, Note_on_c, 0, 52, 0
1, 38433, Note_on_c, 0, 72, 0
1, 38433, Note_on_c, 0, 71, 96
1, 38434, Note_on_c, 0, 50, 97
1, 38488, Note_on_c, 0, 50, 0
1, 38488, Note_on_c, 0, 71, 0
1, 38489, Note_on_c, 0, 69, 96
1, 38489, Note_on_c, 0, 48, 97
1, 38544, Note_on_c, 0, 48, 0
1, 38545, Note_on_c, 0, 69, 0
1, 38545, Note_on_c, 0, 67, 97
1, 38546, Note_on_c, 0, 52, 97
1, 38593, Note_on_c, 0, 67, 0
1, 38604, Note_on_c, 0, 52, 0
1, 38604, Note_on_c, 0, 57, 0
1, 38605, Note_on_c, 0, 59, 97
1, 38605, Note_on_c, 0, 67, 97
1, 38606, Note_on_c, 0, 50, 97
1, 38631, Note_on_c, 0, 67, 0
1, 38631, Note_on_c, 0, 66, 97
1, 38658, Note_on_c, 0, 66, 0
1, 38658, Note_on_c, 0, 67, 97
1, 38678, Note_on_c, 0, 50, 0
1, 38678, Note_on_c, 0, 52, 97
1, 38686, Note_on_c, 0, 67, 0
1, 38686, Note_on_c, 0, 66, 97
1, 38712, Note_on_c, 0, 66, 0
1, 38713, Note_on_c, 0, 67, 97
1, 38736, Note_on_c, 0, 67, 0
1, 38736, Note_on_c, 0, 66, 97
1, 38746, Note_on_c, 0, 52, 0
1, 38747, Note_on_c, 0, 59, 0
1, 38747, Note_on_c, 0, 50, 97
1, 38748, Note_on_c, 0, 60, 97
1, 38758, Note_on_c, 0, 66, 0
1, 38758, Note_on_c, 0, 67, 97
1, 38780, Note_on_c, 0, 67, 0
1, 38780, Note_on_c, 0, 66, 97
1, 38802, Note_on_c, 0, 66, 0
1, 38806, Note_on_c, 0, 50, 0
1, 38806, Note_on_c, 0, 64, 97
1, 38807, Note_on_c, 0, 48, 97
1, 38834, Note_on_c, 0, 64, 0
1, 38835, Note_on_c, 0, 66, 97
1, 38863, Note_on_c, 0, 66, 0
1, 38864, Note_on_c, 0, 48, 0
1, 38864, Note_on_c, 0, 60, 0
1, 38865, Note_on_c, 0, 62, 97
1, 38865, Note_on_c, 0, 67, 97
1, 38866, Note_on_c, 0, 47, 97
1, 38922, Note_on_c, 0, 47, 0
1, 38922, Note_on_c, 0, 50, 97
1, 38979, Note_on_c, 0, 50, 0
1, 38980, Note_on_c, 0, 62, 0
1, 38980, Note_on_c, 0, 64, 97
1, 38981, Note_on_c, 0, 48, 97
1, 39037, Note_on_c, 0, 48, 0
1, 39037, Note_on_c, 0, 67, 0
1, 39038, Note_on_c, 0, 71, 96
1, 39038, Note_on_c, 0, 50, 97
1, 39048, Marker_t, "1121 Deutz Ave Trenton NJ 08611 http://www.geocities.com/Paris/LeftBank/3214"
1, 39095, Note_on_c, 0, 50, 0
1, 39095, Note_on_c, 0, 71, 0
1, 39096, Note_on_c, 0, 64, 0
1, 39096, Note_on_c, 0, 69, 96
1, 39096, Note_on_c, 0, 54, 97
1, 39097, Note_on_c, 0, 48, 97
1, 39151, Note_on_c, 0, 48, 0
1, 39152, Note_on_c, 0, 69, 0
1, 39152, Note_on_c, 0, 67, 97
1, 39153, Note_on_c, 0, 47, 97
1, 39208, Note_on_c, 0, 47, 0
1, 39208, Note_on_c, 0, 67, 0
1, 39209, Note_on_c, 0, 66, 97
1, 39209, Note_on_c, 0, 45, 97
1, 39265, Note_on_c, 0, 45, 0
1, 39266, Note_on_c, 0, 66, 0
1, 39266, Note_on_c, 0, 64, 97
1, 39267, Note_on_c, 0, 48, 97
1, 39324, Note_on_c, 0, 48, 0
1, 39324, Note_on_c, 0, 64, 0
1, 39325, Note_on_c, 0, 54, 0
1, 39325, Note_on_c, 0, 62, 97
1, 39326, Note_on_c, 0, 55, 97
1, 39326, Note_on_c, 0, 47, 97
1, 39381, Note_on_c, 0, 47, 0
1, 39381, Note_on_c, 0, 48, 97
1, 39427, Note_on_c, 0, 55, 0
1, 39436, Note_on_c, 0, 48, 0
1, 39437, Note_on_c, 0, 62, 0
1, 39437, Note_on_c, 0, 55, 97
1, 39438, Note_on_c, 0, 47, 97
1, 39492, Note_on_c, 0, 47, 0
1, 39492, Note_on_c, 0, 55, 0
1, 39493, Note_on_c, 0, 57, 97
1, 39493, Note_on_c, 0, 45, 97
1, 39548, Note_on_c, 0, 45, 0
1, 39548, Note_on_c, 0, 57, 0
1, 39549, Note_on_c, 0, 59, 97
1, 39549, Note_on_c, 0, 43, 97
1, 39603, Note_on_c, 0, 43, 0
1, 39604, Note_on_c, 0, 59, 0
1, 39604, Note_on_c, 0, 61, 97
1, 39605, Note_on_c, 0, 45, 97
1, 39659, Note_on_c, 0, 45, 0
1, 39660, Note_on_c, 0, 61, 0
1, 39660, Note_on_c, 0, 62, 97
1, 39660, Note_on_c, 0, 47, 97
1, 39715, Note_on_c, 0, 47, 0
1, 39715, Note_on_c, 0, 49, 97
1, 39771, Note_on_c, 0, 49, 0
1, 39772, Note_on_c, 0, 62, 0
1, 39772, Note_on_c, 0, 50, 97
1, 39773, Note_on_c, 0, 59, 97
1, 39827, Note_on_c, 0, 59, 0
1, 39828, Note_on_c, 0, 50, 0
1, 39828, Note_on_c, 0, 61, 97
1, 39828, Note_on_c, 0, 52, 97
1, 39883, Note_on_c, 0, 52, 0
1, 39883, Note_on_c, 0, 61, 0
1, 39884, Note_on_c, 0, 54, 97
1, 39884, Note_on_c, 0, 62, 97
1, 39939, Note_on_c, 0, 62, 0
1, 39939, Note_on_c, 0, 54, 0
1, 39939, Note_on_c, 0, 55, 97
1, 39940, Note_on_c, 0, 64, 97
1, 39995, Note_on_c, 0, 64, 0
1, 39996, Note_on_c, 0, 55, 0
1, 39996, Note_on_c, 0, 69, 85
1, 39996, Note_on_c, 0, 66, 97
1, 39997, Note_on_c, 0, 54, 97
1, 40110, Note_on_c, 0, 54, 0
1, 40110, Note_on_c, 0, 66, 0
1, 40110, Note_on_c, 0, 69, 0
1, 40111, Note_on_c, 0, 67, 97
1, 40111, Note_on_c, 0, 64, 97
1, 40112, Note_on_c, 0, 59, 97
1, 40166, Note_on_c, 0, 67, 0
1, 40167, Note_on_c, 0, 69, 97
1, 40222, Note_on_c, 0, 69, 0
1, 40223, Note_on_c, 0, 59, 0
1, 40223, Note_on_c, 0, 64, 0
1, 40224, Note_on_c, 0, 71, 97
1, 40224, Note_on_c, 0, 63, 97
1, 40224, Note_on_c, 0, 47, 97
1, 40280, Note_on_c, 0, 71, 0
1, 40280, Note_on_c, 0, 69, 97
1, 40336, Note_on_c, 0, 69, 0
1, 40337, Note_on_c, 0, 47, 0
1, 40337, Note_on_c, 0, 63, 0
1, 40337, Note_on_c, 0, 67, 97
1, 40338, Note_on_c, 0, 64, 97
1, 40339, Note_on_c, 0, 52, 97
1, 40450, Note_on_c, 0, 52, 0
1, 40450, Note_on_c, 0, 64, 0
1, 40451, Note_on_c, 0, 67, 0
1, 40451, Note_on_c, 0, 66, 97
1, 40452, Note_on_c, 0, 57, 97
1, 40452, Note_on_c, 0, 62, 97
1, 40506, Note_on_c, 0, 66, 0
1, 40507, Note_on_c, 0, 67, 97
1, 40564, Note_on_c, 0, 67, 0
1, 40564, Note_on_c, 0, 57, 0
1, 40565, Note_on_c, 0, 62, 0
1, 40565, Note_on_c, 0, 69, 97
1, 40566, Note_on_c, 0, 61, 97
1, 40566, Note_on_c, 0, 45, 97
1, 40621, Note_on_c, 0, 69, 0
1, 40622, Note_on_c, 0, 66, 97
1, 40678, Note_on_c, 0, 66, 0
1, 40679, Note_on_c, 0, 45, 0
1, 40679, Note_on_c, 0, 61, 0
1, 40680, Note_on_c, 0, 67, 97
1, 40680, Note_on_c, 0, 62, 97
1, 40680, Note_on_c, 0, 50, 97
1, 40791, Note_on_c, 0, 50, 0
1, 40792, Note_on_c, 0, 62, 0
1, 40792, Note_on_c, 0, 67, 0
1, 40793, Note_on_c, 0, 69, 97
1, 40793, Note_on_c, 0, 61, 97
1, 40794, Note_on_c, 0, 52, 97
1, 40846, Note_on_c, 0, 61, 0
1, 40847, Note_on_c, 0, 59, 97
1, 40902, Note_on_c, 0, 59, 0
1, 40902, Note_on_c, 0, 52, 0
1, 40903, Note_on_c, 0, 69, 0
1, 40903, Note_on_c, 0, 71, 97
1, 40904, Note_on_c, 0, 54, 97
1, 40904, Note_on_c, 0, 57, 97
1, 40958, Note_on_c, 0, 57, 0
1, 40959, Note_on_c, 0, 60, 97
1, 41014, Note_on_c, 0, 60, 0
1, 41015, Note_on_c, 0, 71, 0
1, 41015, Note_on_c, 0, 74, 97
1, 41016, Note_on_c, 0, 59, 97
1, 41070, Note_on_c, 0, 59, 0
1, 41070, Note_on_c, 0, 60, 97
1, 41128, Note_on_c, 0, 60, 0
1, 41129, Note_on_c, 0, 74, 0
1, 41129, Note_on_c, 0, 54, 0
1, 41130, Note_on_c, 0, 66, 97
1, 41130, Note_on_c, 0, 59, 97
1, 41131, Note_on_c, 0, 55, 97
1, 41153, Note_on_c, 0, 66, 0
1, 41154, Note_on_c, 0, 64, 97
1, 41178, Note_on_c, 0, 64, 0
1, 41179, Note_on_c, 0, 66, 97
1, 41197, Note_on_c, 0, 59, 0
1, 41198, Note_on_c, 0, 57, 97
1, 41204, Note_on_c, 0, 66, 0
1, 41205, Note_on_c, 0, 64, 97
1, 41227, Note_on_c, 0, 64, 0
1, 41228, Note_on_c, 0, 66, 97
1, 41249, Note_on_c, 0, 66, 0
1, 41250, Note_on_c, 0, 64, 97
1, 41260, Note_on_c, 0, 57, 0
1, 41260, Note_on_c, 0, 55, 0
1, 41261, Note_on_c, 0, 55, 97
1, 41261, Note_on_c, 0, 49, 97
1, 41272, Note_on_c, 0, 64, 0
1, 41273, Note_on_c, 0, 66, 97
1, 41294, Note_on_c, 0, 66, 0
1, 41295, Note_on_c, 0, 64, 97
1, 41316, Note_on_c, 0, 64, 0
1, 41316, Note_on_c, 0, 66, 97
1, 41319, Note_on_c, 0, 55, 0
1, 41320, Note_on_c, 0, 59, 97
1, 41337, Note_on_c, 0, 66, 0
1, 41337, Note_on_c, 0, 64, 97
1, 41373, Note_on_c, 0, 64, 0
1, 41375, Note_on_c, 0, 59, 0
1, 41376, Note_on_c, 0, 49, 0
1, 41376, Note_on_c, 0, 66, 97
1, 41376, Note_on_c, 0, 57, 97
1, 41377, Note_on_c, 0, 50, 97
1, 41430, Note_on_c, 0, 57, 0
1, 41430, Note_on_c, 0, 59, 97
1, 41485, Note_on_c, 0, 59, 0
1, 41486, Note_on_c, 0, 50, 0
1, 41486, Note_on_c, 0, 66, 0
1, 41487, Note_on_c, 0, 57, 97
1, 41487, Note_on_c, 0, 67, 97
1, 41540, Note_on_c, 0, 57, 0
1, 41541, Note_on_c, 0, 55, 97
1, 41596, Note_on_c, 0, 55, 0
1, 41596, Note_on_c, 0, 67, 0
1, 41597, Note_on_c, 0, 69, 97
1, 41597, Note_on_c, 0, 54, 97
1, 41651, Note_on_c, 0, 54, 0
1, 41651, Note_on_c, 0, 57, 97
1, 41706, Note_on_c, 0, 57, 0
1, 41707, Note_on_c, 0, 69, 0
1, 41707, Note_on_c, 0, 71, 97
1, 41708, Note_on_c, 0, 55, 97
1, 41762, Note_on_c, 0, 55, 0
1, 41762, Note_on_c, 0, 57, 97
1, 41817, Note_on_c, 0, 57, 0
1, 41817, Note_on_c, 0, 71, 0
1, 41818, Note_on_c, 0, 62, 97
1, 41818, Note_on_c, 0, 55, 97
1, 41842, Note_on_c, 0, 62, 0
1, 41842, Note_on_c, 0, 61, 97
1, 41866, Note_on_c, 0, 61, 0
1, 41866, Note_on_c, 0, 62, 97
1, 41883, Note_on_c, 0, 55, 0
1, 41883, Note_on_c, 0, 54, 97
1, 41890, Note_on_c, 0, 62, 0
1, 41890, Note_on_c, 0, 61, 97
1, 41913, Note_on_c, 0, 61, 0
1, 41913, Note_on_c, 0, 62, 97
1, 41936, Note_on_c, 0, 62, 0
1, 41936, Note_on_c, 0, 61, 97
1, 41945, Note_on_c, 0, 54, 0
1, 41946, Note_on_c, 0, 52, 97
1, 41957, Note_on_c, 0, 61, 0
1, 41957, Note_on_c, 0, 62, 97
1, 41978, Note_on_c, 0, 62, 0
1, 41978, Note_on_c, 0, 61, 97
1, 41998, Note_on_c, 0, 61, 0
1, 41999, Note_on_c, 0, 62, 97
1, 42002, Note_on_c, 0, 52, 0
1, 42002, Note_on_c, 0, 55, 97
1, 42019, Note_on_c, 0, 62, 0
1, 42020, Note_on_c, 0, 61, 97
1, 42057, Note_on_c, 0, 61, 0
1, 42058, Note_on_c, 0, 55, 0
1, 42058, Note_on_c, 0, 62, 97
1, 42059, Note_on_c, 0, 54, 97
1, 42114, Note_on_c, 0, 54, 0
1, 42115, Note_on_c, 0, 55, 97
1, 42160, Note_on_c, 0, 62, 0
1, 42170, Note_on_c, 0, 55, 0
1, 42170, Note_on_c, 0, 62, 97
1, 42171, Note_on_c, 0, 54, 97
1, 42226, Note_on_c, 0, 54, 0
1, 42226, Note_on_c, 0, 62, 0
1, 42227, Note_on_c, 0, 52, 97
1, 42227, Note_on_c, 0, 64, 97
1, 42282, Note_on_c, 0, 64, 0
1, 42282, Note_on_c, 0, 52, 0
1, 42282, Note_on_c, 0, 66, 97
1, 42283, Note_on_c, 0, 50, 97
1, 42337, Note_on_c, 0, 50, 0
1, 42337, Note_on_c, 0, 66, 0
1, 42338, Note_on_c, 0, 67, 97
1, 42338, Note_on_c, 0, 52, 97
1, 42393, Note_on_c, 0, 52, 0
1, 42393, Note_on_c, 0, 67, 0
1, 42394, Note_on_c, 0, 69, 96
1, 42395, Note_on_c, 0, 54, 97
1, 42449, Note_on_c, 0, 54, 0
1, 42449, Note_on_c, 0, 55, 97
1, 42505, Note_on_c, 0, 55, 0
1, 42506, Note_on_c, 0, 69, 0
1, 42506, Note_on_c, 0, 66, 97
1, 42507, Note_on_c, 0, 57, 97
1, 42561, Note_on_c, 0, 57, 0
1, 42562, Note_on_c, 0, 66, 0
1, 42562, Note_on_c, 0, 67, 97
1, 42563, Note_on_c, 0, 59, 97
1, 42617, Note_on_c, 0, 59, 0
1, 42617, Note_on_c, 0, 67, 0
1, 42618, Note_on_c, 0, 69, 96
1, 42618, Note_on_c, 0, 60, 97
1, 42672, Note_on_c, 0, 60, 0
1, 42673, Note_on_c, 0, 69, 0
1, 42673, Note_on_c, 0, 71, 96
1, 42674, Note_on_c, 0, 62, 97
1, 42728, Note_on_c, 0, 62, 0
1, 42729, Note_on_c, 0, 71, 0
1, 42729, Note_on_c, 0, 72, 96
1, 42730, Note_on_c, 0, 54, 97
1, 42730, Note_on_c, 0, 50, 97
1, 42840, Note_on_c, 0, 50, 0
1, 42841, Note_on_c, 0, 54, 0
1, 42841, Note_on_c, 0, 69, 96
1, 42842, Note_on_c, 0, 48, 97
1, 42897, Note_on_c, 0, 48, 0
1, 42898, Note_on_c, 0, 50, 97
1, 42953, Note_on_c, 0, 50, 0
1, 42953, Note_on_c, 0, 69, 0
1, 42954, Note_on_c, 0, 72, 0
1, 42954, Note_on_c, 0, 71, 96
1, 42955, Note_on_c, 0, 52, 97
1, 42955, Note_on_c, 0, 67, 97
1, 43008, Note_on_c, 0, 52, 0
1, 43009, Note_on_c, 0, 50, 97
1, 43064, Note_on_c, 0, 50, 0
1, 43065, Note_on_c, 0, 71, 0
1, 43065, Note_on_c, 0, 69, 96
1, 43066, Note_on_c, 0, 48, 97
1, 43176, Note_on_c, 0, 48, 0
1, 43177, Note_on_c, 0, 67, 0
1, 43177, Note_on_c, 0, 67, 97
1, 43178, Note_on_c, 0, 47, 97
1, 43232, Note_on_c, 0, 47, 0
1, 43233, Note_on_c, 0, 48, 97
1, 43288, Note_on_c, 0, 48, 0
1, 43288, Note_on_c, 0, 67, 0
1, 43289, Note_on_c, 0, 50, 97
1, 43289, Note_on_c, 0, 66, 97
1, 43344, Note_on_c, 0, 50, 0
1, 43345, Note_on_c, 0, 48, 97
1, 43401, Note_on_c, 0, 48, 0
1, 43402, Note_on_c, 0, 66, 0
1, 43402, Note_on_c, 0, 69, 0
1, 43403, Note_on_c, 0, 67, 97
1, 43403, Note_on_c, 0, 47, 97
1, 43456, Note_on_c, 0, 79, 90
1, 43512, Note_on_c, 0, 79, 0
1, 43512, Note_on_c, 0, 47, 0
1, 43512, Note_on_c, 0, 67, 0
1, 43513, Note_on_c, 0, 78, 90
1, 43513, Note_on_c, 0, 48, 97
1, 43567, Note_on_c, 0, 78, 0
1, 43568, Note_on_c, 0, 76, 90
1, 43623, Note_on_c, 0, 76, 0
1, 43623, Note_on_c, 0, 48, 0
1, 43624, Note_on_c, 0, 74, 96
1, 43624, Note_on_c, 0, 50, 97
1, 43680, Note_on_c, 0, 74, 0
1, 43680, Note_on_c, 0, 78, 90
1, 43735, Note_on_c, 0, 78, 0
1, 43736, Note_on_c, 0, 50, 0
1, 43736, Note_on_c, 0, 76, 90
1, 43737, Note_on_c, 0, 55, 97
1, 43791, Note_on_c, 0, 76, 0
1, 43791, Note_on_c, 0, 78, 90
1, 43847, Note_on_c, 0, 78, 0
1, 43847, Note_on_c, 0, 55, 0
1, 43848, Note_on_c, 0, 76, 90
1, 43848, Note_on_c, 0, 45, 97
1, 43903, Note_on_c, 0, 76, 0
1, 43904, Note_on_c, 0, 74, 96
1, 43958, Note_on_c, 0, 74, 0
1, 43958, Note_on_c, 0, 72, 96
1, 44014, Note_on_c, 0, 72, 0
1, 44014, Note_on_c, 0, 76, 90
1, 44068, Note_on_c, 0, 76, 0
1, 44069, Note_on_c, 0, 45, 0
1, 44069, Note_on_c, 0, 74, 96
1, 44070, Note_on_c, 0, 47, 97
1, 44123, Note_on_c, 0, 74, 0
1, 44124, Note_on_c, 0, 76, 90
1, 44177, Note_on_c, 0, 76, 0
1, 44177, Note_on_c, 0, 47, 0
1, 44178, Note_on_c, 0, 74, 96
1, 44178, Note_on_c, 0, 48, 97
1, 44232, Note_on_c, 0, 74, 0
1, 44232, Note_on_c, 0, 72, 96
1, 44285, Note_on_c, 0, 72, 0
1, 44286, Note_on_c, 0, 48, 0
1, 44286, Note_on_c, 0, 71, 96
1, 44287, Note_on_c, 0, 50, 97
1, 44340, Note_on_c, 0, 71, 0
1, 44340, Note_on_c, 0, 74, 96
1, 44395, Note_on_c, 0, 74, 0
1, 44395, Note_on_c, 0, 50, 0
1, 44396, Note_on_c, 0, 72, 96
1, 44396, Note_on_c, 0, 52, 97
1, 44449, Note_on_c, 0, 72, 0
1, 44450, Note_on_c, 0, 74, 96
1, 44505, Note_on_c, 0, 74, 0
1, 44505, Note_on_c, 0, 52, 0
1, 44505, Note_on_c, 0, 72, 96
1, 44506, Note_on_c, 0, 42, 97
1, 44559, Note_on_c, 0, 72, 0
1, 44559, Note_on_c, 0, 71, 96
1, 44613, Note_on_c, 0, 71, 0
1, 44614, Note_on_c, 0, 69, 96
1, 44668, Note_on_c, 0, 69, 0
1, 44668, Note_on_c, 0, 72, 96
1, 44724, Note_on_c, 0, 72, 0
1, 44724, Note_on_c, 0, 42, 0
1, 44724, Note_on_c, 0, 71, 96
1, 44725, Note_on_c, 0, 43, 97
1, 44778, Note_on_c, 0, 43, 0
1, 44779, Note_on_c, 0, 71, 0
1, 44779, Note_on_c, 0, 69, 96
1, 44780, Note_on_c, 0, 45, 97
1, 44834, Note_on_c, 0, 45, 0
1, 44834, Note_on_c, 0, 69, 0
1, 44835, Note_on_c, 0, 67, 97
1, 44835, Note_on_c, 0, 47, 97
1, 44890, Note_on_c, 0, 67, 0
1, 44890, Note_on_c, 0, 71, 96
1, 44944, Note_on_c, 0, 71, 0
1, 44945, Note_on_c, 0, 66, 97
1, 44945, Note_on_c, 0, 62, 97
1, 45000, Note_on_c, 0, 66, 0
1, 45000, Note_on_c, 0, 71, 96
1, 45056, Note_on_c, 0, 71, 0
1, 45056, Note_on_c, 0, 62, 0
1, 45057, Note_on_c, 0, 61, 97
1, 45057, Note_on_c, 0, 64, 97
1, 45110, Note_on_c, 0, 64, 0
1, 45111, Note_on_c, 0, 47, 0
1, 45111, Note_on_c, 0, 71, 96
1, 45112, Note_on_c, 0, 45, 97
1, 45165, Note_on_c, 0, 45, 0
1, 45166, Note_on_c, 0, 71, 0
1, 45166, Note_on_c, 0, 61, 0
1, 45167, Note_on_c, 0, 62, 97
1, 45167, Note_on_c, 0, 43, 97
1, 45220, Note_on_c, 0, 43, 0
1, 45220, Note_on_c, 0, 62, 0
1, 45221, Note_on_c, 0, 71, 96
1, 45221, Note_on_c, 0, 42, 97
1, 45276, Note_on_c, 0, 42, 0
1, 45276, Note_on_c, 0, 71, 0
1, 45276, Note_on_c, 0, 61, 97
1, 45277, Note_on_c, 0, 40, 97
1, 45330, Note_on_c, 0, 40, 0
1, 45331, Note_on_c, 0, 61, 0
1, 45331, Note_on_c, 0, 71, 96
1, 45332, Note_on_c, 0, 43, 97
1, 45385, Note_on_c, 0, 43, 0
1, 45385, Note_on_c, 0, 71, 0
1, 45386, Note_on_c, 0, 69, 96
1, 45386, Note_on_c, 0, 42, 97
1, 45439, Note_on_c, 0, 42, 0
1, 45439, Note_on_c, 0, 69, 0
1, 45440, Note_on_c, 0, 67, 97
1, 45440, Note_on_c, 0, 43, 97
1, 45493, Note_on_c, 0, 43, 0
1, 45494, Note_on_c, 0, 67, 0
1, 45494, Note_on_c, 0, 66, 97
1, 45495, Note_on_c, 0, 45, 97
1, 45547, Note_on_c, 0, 66, 0
1, 45548, Note_on_c, 0, 69, 96
1, 45602, Note_on_c, 0, 69, 0
1, 45602, Note_on_c, 0, 64, 97
1, 45603, Note_on_c, 0, 61, 97
1, 45656, Note_on_c, 0, 64, 0
1, 45656, Note_on_c, 0, 69, 96
1, 45709, Note_on_c, 0, 69, 0
1, 45710, Note_on_c, 0, 61, 0
1, 45710, Note_on_c, 0, 62, 97
1, 45711, Note_on_c, 0, 59, 97
1, 45764, Note_on_c, 0, 62, 0
1, 45765, Note_on_c, 0, 45, 0
1, 45765, Note_on_c, 0, 69, 96
1, 45766, Note_on_c, 0, 43, 97
1, 45818, Note_on_c, 0, 43, 0
1, 45819, Note_on_c, 0, 69, 0
1, 45819, Note_on_c, 0, 59, 0
1, 45820, Note_on_c, 0, 61, 97
1, 45820, Note_on_c, 0, 42, 97
1, 45873, Note_on_c, 0, 42, 0
1, 45873, Note_on_c, 0, 61, 0
1, 45874, Note_on_c, 0, 69, 96
1, 45874, Note_on_c, 0, 40, 97
1, 45926, Note_on_c, 0, 40, 0
1, 45927, Note_on_c, 0, 69, 0
1, 45927, Note_on_c, 0, 59, 97
1, 45928, Note_on_c, 0, 38, 97
1, 45980, Note_on_c, 0, 38, 0
1, 45981, Note_on_c, 0, 59, 0
1, 45981, Note_on_c, 0, 69, 96
1, 45982, Note_on_c, 0, 42, 97
1, 46035, Note_on_c, 0, 42, 0
1, 46035, Note_on_c, 0, 69, 0
1, 46036, Note_on_c, 0, 67, 97
1, 46036, Note_on_c, 0, 40, 97
1, 46090, Note_on_c, 0, 40, 0
1, 46090, Note_on_c, 0, 67, 0
1, 46091, Note_on_c, 0, 66, 97
1, 46091, Note_on_c, 0, 42, 97
1, 46143, Note_on_c, 0, 42, 0
1, 46144, Note_on_c, 0, 66, 0
1, 46144, Note_on_c, 0, 64, 97
1, 46145, Note_on_c, 0, 43, 97
1, 46198, Note_on_c, 0, 64, 0
1, 46199, Note_on_c, 0, 67, 97
1, 46252, Note_on_c, 0, 67, 0
1, 46252, Note_on_c, 0, 62, 97
1, 46253, Note_on_c, 0, 59, 97
1, 46307, Note_on_c, 0, 62, 0
1, 46307, Note_on_c, 0, 67, 97
1, 46361, Note_on_c, 0, 67, 0
1, 46362, Note_on_c, 0, 59, 0
1, 46362, Note_on_c, 0, 61, 97
1, 46363, Note_on_c, 0, 57, 97
1, 46416, Note_on_c, 0, 61, 0
1, 46416, Note_on_c, 0, 43, 0
1, 46417, Note_on_c, 0, 67, 97
1, 46417, Note_on_c, 0, 42, 97
1, 46471, Note_on_c, 0, 42, 0
1, 46471, Note_on_c, 0, 67, 0
1, 46472, Note_on_c, 0, 57, 0
1, 46472, Note_on_c, 0, 59, 97
1, 46473, Note_on_c, 0, 40, 97
1, 46525, Note_on_c, 0, 40, 0
1, 46526, Note_on_c, 0, 59, 0
1, 46526, Note_on_c, 0, 67, 97
1, 46527, Note_on_c, 0, 38, 97
1, 46579, Note_on_c, 0, 38, 0
1, 46580, Note_on_c, 0, 67, 0
1, 46580, Note_on_c, 0, 57, 97
1, 46581, Note_on_c, 0, 37, 97
1, 46633, Note_on_c, 0, 37, 0
1, 46633, Note_on_c, 0, 57, 0
1, 46634, Note_on_c, 0, 67, 97
1, 46634, Note_on_c, 0, 40, 97
1, 46688, Note_on_c, 0, 40, 0
1, 46689, Note_on_c, 0, 67, 0
1, 46689, Note_on_c, 0, 66, 97
1, 46690, Note_on_c, 0, 38, 97
1, 46741, Note_on_c, 0, 38, 0
1, 46741, Note_on_c, 0, 66, 0
1, 46742, Note_on_c, 0, 74, 96
1, 46742, Note_on_c, 0, 40, 97
1, 46794, Note_on_c, 0, 40, 0
1, 46794, Note_on_c, 0, 74, 0
1, 46795, Note_on_c, 0, 72, 96
1, 46795, Note_on_c, 0, 42, 97
1, 46847, Note_on_c, 0, 42, 0
1, 46847, Note_on_c, 0, 72, 0
1, 46848, Note_on_c, 0, 71, 96
1, 46848, Note_on_c, 0, 38, 97
1, 46900, Note_on_c, 0, 38, 0
1, 46900, Note_on_c, 0, 71, 0
1, 46901, Note_on_c, 0, 69, 96
1, 46901, Note_on_c, 0, 43, 97
1, 46953, Note_on_c, 0, 43, 0
1, 46953, Note_on_c, 0, 69, 0
1, 46954, Note_on_c, 0, 67, 97
1, 46954, Note_on_c, 0, 38, 97
1, 47006, Note_on_c, 0, 38, 0
1, 47007, Note_on_c, 0, 67, 0
1, 47007, Note_on_c, 0, 66, 97
1, 47008, Note_on_c, 0, 45, 97
1, 47059, Note_on_c, 0, 45, 0
1, 47060, Note_on_c, 0, 66, 0
1, 47061, Note_on_c, 0, 64, 97
1, 47061, Note_on_c, 0, 38, 97
1, 47113, Note_on_c, 0, 38, 0
1, 47113, Note_on_c, 0, 64, 0
1, 47114, Note_on_c, 0, 62, 97
1, 47115, Note_on_c, 0, 47, 97
1, 47167, Note_on_c, 0, 47, 0
1, 47167, Note_on_c, 0, 62, 0
1, 47168, Note_on_c, 0, 60, 97
1, 47169, Note_on_c, 0, 38, 97
1, 47220, Note_on_c, 0, 38, 0
1, 47220, Note_on_c, 0, 60, 0
1, 47220, Note_on_c, 0, 59, 97
1, 47221, Note_on_c, 0, 48, 97
1, 47274, Note_on_c, 0, 48, 0
1, 47274, Note_on_c, 0, 59, 0
1, 47275, Note_on_c, 0, 57, 97
1, 47275, Note_on_c, 0, 38, 97
1, 47328, Note_on_c, 0, 38, 0
1, 47328, Note_on_c, 0, 57, 0
1, 47328, Note_on_c, 0, 55, 97
1, 47328, Note_on_c, 0, 47, 97
1, 47382, Note_on_c, 0, 47, 0
1, 47383, Note_on_c, 0, 55, 0
1, 47383, Note_on_c, 0, 57, 97
1, 47383, Note_on_c, 0, 55, 97
1, 47438, Note_on_c, 0, 55, 0
1, 47438, Note_on_c, 0, 57, 0
1, 47439, Note_on_c, 0, 59, 97
1, 47439, Note_on_c, 0, 53, 97
1, 47492, Note_on_c, 0, 53, 0
1, 47492, Note_on_c, 0, 59, 0
1, 47493, Note_on_c, 0, 52, 97
1, 47493, Note_on_c, 0, 55, 97
1, 47546, Note_on_c, 0, 52, 0
1, 47547, Note_on_c, 0, 55, 0
1, 47547, Note_on_c, 0, 60, 97
1, 47548, Note_on_c, 0, 50, 97
1, 47601, Note_on_c, 0, 50, 0
1, 47602, Note_on_c, 0, 60, 0
1, 47602, Note_on_c, 0, 55, 97
1, 47603, Note_on_c, 0, 48, 97
1, 47655, Note_on_c, 0, 48, 0
1, 47655, Note_on_c, 0, 55, 0
1, 47656, Note_on_c, 0, 62, 97
1, 47656, Note_on_c, 0, 47, 97
1, 47710, Note_on_c, 0, 47, 0
1, 47710, Note_on_c, 0, 62, 0
1, 47711, Note_on_c, 0, 55, 97
1, 47711, Note_on_c, 0, 45, 97
1, 47763, Note_on_c, 0, 45, 0
1, 47764, Note_on_c, 0, 55, 0
1, 47764, Note_on_c, 0, 64, 97
1, 47765, Note_on_c, 0, 43, 97
1, 47818, Note_on_c, 0, 43, 0
1, 47819, Note_on_c, 0, 64, 0
1, 47819, Note_on_c, 0, 55, 97
1, 47820, Note_on_c, 0, 41, 97
1, 47873, Note_on_c, 0, 41, 0
1, 47873, Note_on_c, 0, 55, 0
1, 47874, Note_on_c, 0, 65, 97
1, 47874, Note_on_c, 0, 40, 97
1, 47928, Note_on_c, 0, 40, 0
1, 47928, Note_on_c, 0, 65, 0
1, 47928, Note_on_c, 0, 55, 97
1, 47929, Note_on_c, 0, 38, 97
1, 47982, Note_on_c, 0, 38, 0
1, 47983, Note_on_c, 0, 55, 0
1, 47983, Note_on_c, 0, 64, 97
1, 47984, Note_on_c, 0, 36, 97
1, 48037, Note_on_c, 0, 36, 0
1, 48037, Note_on_c, 0, 64, 0
1, 48038, Note_on_c, 0, 72, 96
1, 48038, Note_on_c, 0, 38, 97
1, 48091, Note_on_c, 0, 38, 0
1, 48091, Note_on_c, 0, 72, 0
1, 48092, Note_on_c, 0, 71, 96
1, 48092, Note_on_c, 0, 40, 97
1, 48145, Note_on_c, 0, 40, 0
1, 48146, Note_on_c, 0, 71, 0
1, 48146, Note_on_c, 0, 74, 96
1, 48147, Note_on_c, 0, 42, 97
1, 48199, Note_on_c, 0, 42, 0
1, 48200, Note_on_c, 0, 74, 0
1, 48200, Note_on_c, 0, 69, 96
1, 48201, Note_on_c, 0, 44, 97
1, 48254, Note_on_c, 0, 44, 0
1, 48254, Note_on_c, 0, 69, 0
1, 48255, Note_on_c, 0, 74, 96
1, 48255, Note_on_c, 0, 45, 97
1, 48308, Note_on_c, 0, 45, 0
1, 48308, Note_on_c, 0, 74, 0
1, 48309, Note_on_c, 0, 68, 96
1, 48309, Note_on_c, 0, 47, 97
1, 48361, Note_on_c, 0, 47, 0
1, 48362, Note_on_c, 0, 68, 0
1, 48362, Note_on_c, 0, 74, 96
1, 48363, Note_on_c, 0, 48, 97
1, 48416, Note_on_c, 0, 48, 0
1, 48417, Note_on_c, 0, 74, 0
1, 48417, Note_on_c, 0, 66, 97
1, 48418, Note_on_c, 0, 50, 97
1, 48470, Note_on_c, 0, 50, 0
1, 48470, Note_on_c, 0, 66, 0
1, 48471, Note_on_c, 0, 74, 96
1, 48471, Note_on_c, 0, 52, 97
1, 48525, Note_on_c, 0, 52, 0
1, 48525, Note_on_c, 0, 74, 0
1, 48526, Note_on_c, 0, 64, 97
1, 48526, Note_on_c, 0, 54, 97
1, 48579, Note_on_c, 0, 54, 0
1, 48580, Note_on_c, 0, 64, 0
1, 48580, Note_on_c, 0, 74, 96
1, 48581, Note_on_c, 0, 56, 97
1, 48633, Note_on_c, 0, 56, 0
1, 48634, Note_on_c, 0, 74, 0
1, 48634, Note_on_c, 0, 72, 96
1, 48635, Note_on_c, 0, 57, 97
1, 48688, Note_on_c, 0, 57, 0
1, 48688, Note_on_c, 0, 72, 0
1, 48689, Note_on_c, 0, 69, 96
1, 48689, Note_on_c, 0, 55, 97
1, 48743, Note_on_c, 0, 55, 0
1, 48743, Note_on_c, 0, 69, 0
1, 48744, Note_on_c, 0, 71, 96
1, 48744, Note_on_c, 0, 54, 97
1, 48797, Note_on_c, 0, 54, 0
1, 48798, Note_on_c, 0, 71, 0
1, 48798, Note_on_c, 0, 73, 96
1, 48799, Note_on_c, 0, 57, 97
1, 48852, Note_on_c, 0, 57, 0
1, 48852, Note_on_c, 0, 73, 0
1, 48853, Note_on_c, 0, 75, 96
1, 48853, Note_on_c, 0, 52, 97
1, 48908, Note_on_c, 0, 52, 0
1, 48908, Note_on_c, 0, 75, 0
1, 48909, Note_on_c, 0, 76, 90
1, 48909, Note_on_c, 0, 57, 97
1, 48962, Note_on_c, 0, 57, 0
1, 48963, Note_on_c, 0, 76, 0
1, 48963, Note_on_c, 0, 78, 90
1, 48964, Note_on_c, 0, 51, 97
1, 49017, Note_on_c, 0, 51, 0
1, 49018, Note_on_c, 0, 78, 0
1, 49018, Note_on_c, 0, 79, 90
1, 49019, Note_on_c, 0, 57, 97
1, 49072, Note_on_c, 0, 57, 0
1, 49072, Note_on_c, 0, 79, 0
1, 49073, Note_on_c, 0, 81, 90
1, 49073, Note_on_c, 0, 49, 97
1, 49127, Note_on_c, 0, 49, 0
1, 49127, Note_on_c, 0, 81, 0
1, 49128, Note_on_c, 0, 83, 90
1, 49128, Note_on_c, 0, 57, 97
1, 49181, Note_on_c, 0, 57, 0
1, 49181, Note_on_c, 0, 83, 0
1, 49181, Note_on_c, 0, 84, 90
1, 49182, Note_on_c, 0, 47, 97
1, 49235, Note_on_c, 0, 47, 0
1, 49235, Note_on_c, 0, 84, 0
1, 49235, Note_on_c, 0, 75, 96
1, 49236, Note_on_c, 0, 57, 97
1, 49290, Note_on_c, 0, 57, 0
1, 49291, Note_on_c, 0, 75, 0
1, 49291, Note_on_c, 0, 76, 90
1, 49291, Note_on_c, 0, 55, 97
1, 49399, Note_on_c, 0, 55, 0
1, 49399, Note_on_c, 0, 76, 0
1, 49400, Note_on_c, 0, 78, 90
1, 49400, Note_on_c, 0, 60, 97
1, 49452, Note_on_c, 0, 78, 0
1, 49452, Note_on_c, 0, 76, 90
1, 49508, Note_on_c, 0, 76, 0
1, 49509, Note_on_c, 0, 60, 0
1, 49509, Note_on_c, 0, 75, 96
1, 49510, Note_on_c, 0, 59, 97
1, 49564, Note_on_c, 0, 75, 0
1, 49564, Note_on_c, 0, 76, 90
1, 49619, Note_on_c, 0, 76, 0
1, 49619, Note_on_c, 0, 59, 0
1, 49620, Note_on_c, 0, 78, 90
1, 49620, Note_on_c, 0, 57, 97
1, 49728, Note_on_c, 0, 57, 0
1, 49728, Note_on_c, 0, 78, 0
1, 49729, Note_on_c, 0, 79, 90
1, 49729, Note_on_c, 0, 59, 97
1, 49784, Note_on_c, 0, 79, 0
1, 49784, Note_on_c, 0, 78, 90
1, 49839, Note_on_c, 0, 78, 0
1, 49840, Note_on_c, 0, 59, 0
1, 49840, Note_on_c, 0, 76, 90
1, 49841, Note_on_c, 0, 47, 97
1, 49894, Note_on_c, 0, 76, 0
1, 49895, Note_on_c, 0, 78, 90
1, 49949, Note_on_c, 0, 78, 0
1, 49949, Note_on_c, 0, 47, 0
1, 49950, Note_on_c, 0, 79, 90
1, 49950, Note_on_c, 0, 52, 97
1, 50004, Note_on_c, 0, 52, 0
1, 50004, Note_on_c, 0, 54, 97
1, 50059, Note_on_c, 0, 54, 0
1, 50060, Note_on_c, 0, 79, 0
1, 50060, Note_on_c, 0, 78, 90
1, 50061, Note_on_c, 0, 55, 97
1, 50115, Note_on_c, 0, 55, 0
1, 50115, Note_on_c, 0, 52, 97
1, 50171, Note_on_c, 0, 52, 0
1, 50171, Note_on_c, 0, 78, 0
1, 50172, Note_on_c, 0, 76, 90
1, 50172, Note_on_c, 0, 57, 97
1, 50225, Note_on_c, 0, 57, 0
1, 50226, Note_on_c, 0, 52, 97
1, 50281, Note_on_c, 0, 52, 0
1, 50281, Note_on_c, 0, 76, 0
1, 50282, Note_on_c, 0, 71, 96
1, 50282, Note_on_c, 0, 59, 97
1, 50337, Note_on_c, 0, 59, 0
1, 50337, Note_on_c, 0, 52, 97
1, 50391, Note_on_c, 0, 52, 0
1, 50392, Note_on_c, 0, 71, 0
1, 50392, Note_on_c, 0, 81, 90
1, 50393, Note_on_c, 0, 61, 97
1, 50447, Note_on_c, 0, 61, 0
1, 50448, Note_on_c, 0, 52, 97
1, 50502, Note_on_c, 0, 52, 0
1, 50502, Note_on_c, 0, 63, 97
1, 50556, Note_on_c, 0, 63, 0
1, 50557, Note_on_c, 0, 52, 97
1, 50612, Note_on_c, 0, 52, 0
1, 50613, Note_on_c, 0, 81, 0
1, 50613, Note_on_c, 0, 79, 90
1, 50614, Note_on_c, 0, 64, 97
1, 50667, Note_on_c, 0, 63, 97
1, 50723, Note_on_c, 0, 63, 0
1, 50723, Note_on_c, 0, 64, 0
1, 50724, Note_on_c, 0, 79, 0
1, 50724, Note_on_c, 0, 78, 90
1, 50724, Note_on_c, 0, 64, 97
1, 50777, Note_on_c, 0, 64, 0
1, 50777, Note_on_c, 0, 66, 97
1, 50832, Note_on_c, 0, 66, 0
1, 50832, Note_on_c, 0, 78, 0
1, 50833, Note_on_c, 0, 76, 90
1, 50833, Note_on_c, 0, 67, 97
1, 50888, Note_on_c, 0, 67, 0
1, 50888, Note_on_c, 0, 64, 97
1, 50943, Note_on_c, 0, 64, 0
1, 50944, Note_on_c, 0, 76, 0
1, 50944, Note_on_c, 0, 75, 96
1, 50945, Note_on_c, 0, 66, 97
1, 50999, Note_on_c, 0, 66, 0
1, 51000, Note_on_c, 0, 64, 97
1, 51054, Note_on_c, 0, 64, 0
1, 51054, Note_on_c, 0, 75, 0
1, 51055, Note_on_c, 0, 84, 86
1, 51055, Note_on_c, 0, 66, 97
1, 51109, Note_on_c, 0, 66, 0
1, 51110, Note_on_c, 0, 67, 97
1, 51164, Note_on_c, 0, 67, 0
1, 51165, Note_on_c, 0, 69, 92
1, 51220, Note_on_c, 0, 69, 0
1, 51220, Note_on_c, 0, 66, 97
1, 51275, Note_on_c, 0, 66, 0
1, 51275, Note_on_c, 0, 84, 0
1, 51276, Note_on_c, 0, 83, 86
1, 51276, Note_on_c, 0, 67, 97
1, 51384, Note_on_c, 0, 67, 0
1, 51384, Note_on_c, 0, 83, 0
1, 51385, Note_on_c, 0, 84, 86
1, 51385, Note_on_c, 0, 69, 92
1, 51440, Note_on_c, 0, 69, 0
1, 51440, Note_on_c, 0, 84, 0
1, 51441, Note_on_c, 0, 83, 86
1, 51441, Note_on_c, 0, 67, 97
1, 51495, Note_on_c, 0, 67, 0
1, 51495, Note_on_c, 0, 83, 0
1, 51495, Note_on_c, 0, 81, 86
1, 51496, Note_on_c, 0, 66, 97
1, 51549, Note_on_c, 0, 66, 0
1, 51550, Note_on_c, 0, 81, 0
1, 51550, Note_on_c, 0, 79, 86
1, 51551, Note_on_c, 0, 64, 97
1, 51604, Note_on_c, 0, 64, 0
1, 51605, Note_on_c, 0, 79, 0
1, 51605, Note_on_c, 0, 69, 92
1, 51605, Note_on_c, 0, 78, 86
1, 51715, Note_on_c, 0, 78, 0
1, 51715, Note_on_c, 0, 81, 86
1, 51769, Note_on_c, 0, 81, 0
1, 51770, Note_on_c, 0, 79, 86
1, 51824, Note_on_c, 0, 79, 0
1, 51825, Note_on_c, 0, 78, 86
1, 51880, Note_on_c, 0, 78, 0
1, 51880, Note_on_c, 0, 76, 86
1, 51935, Note_on_c, 0, 76, 0
1, 51935, Note_on_c, 0, 75, 92
1, 51989, Note_on_c, 0, 69, 0
1, 51990, Note_on_c, 0, 67, 97
1, 52044, Note_on_c, 0, 67, 0
1, 52044, Note_on_c, 0, 75, 0
1, 52045, Note_on_c, 0, 81, 86
1, 52045, Note_on_c, 0, 66, 97
1, 52100, Note_on_c, 0, 66, 0
1, 52100, Note_on_c, 0, 69, 92
1, 52154, Note_on_c, 0, 69, 0
1, 52155, Note_on_c, 0, 81, 0
1, 52155, Note_on_c, 0, 79, 86
1, 52156, Note_on_c, 0, 64, 97
1, 52209, Note_on_c, 0, 64, 0
1, 52210, Note_on_c, 0, 69, 92
1, 52264, Note_on_c, 0, 69, 0
1, 52264, Note_on_c, 0, 79, 0
1, 52265, Note_on_c, 0, 78, 86
1, 52265, Note_on_c, 0, 63, 97
1, 52318, Note_on_c, 0, 63, 0
1, 52318, Note_on_c, 0, 69, 92
1, 52372, Note_on_c, 0, 69, 0
1, 52373, Note_on_c, 0, 78, 0
1, 52373, Note_on_c, 0, 76, 86
1, 52374, Note_on_c, 0, 61, 97
1, 52427, Note_on_c, 0, 61, 0
1, 52428, Note_on_c, 0, 69, 92
1, 52482, Note_on_c, 0, 69, 0
1, 52482, Note_on_c, 0, 76, 0
1, 52483, Note_on_c, 0, 75, 92
1, 52483, Note_on_c, 0, 59, 97
1, 52536, Note_on_c, 0, 59, 0
1, 52537, Note_on_c, 0, 69, 92
1, 52591, Note_on_c, 0, 69, 0
1, 52592, Note_on_c, 0, 75, 0
1, 52592, Note_on_c, 0, 76, 86
1, 52593, Note_on_c, 0, 67, 97
1, 52700, Note_on_c, 0, 67, 0
1, 52700, Note_on_c, 0, 76, 0
1, 52701, Note_on_c, 0, 74, 92
1, 52701, Note_on_c, 0, 66, 97
1, 52754, Note_on_c, 0, 66, 0
1, 52755, Note_on_c, 0, 67, 97
1, 52809, Note_on_c, 0, 67, 0
1, 52810, Note_on_c, 0, 74, 0
1, 52810, Note_on_c, 0, 72, 92
1, 52811, Note_on_c, 0, 69, 92
1, 52864, Note_on_c, 0, 69, 0
1, 52864, Note_on_c, 0, 67, 97
1, 52918, Note_on_c, 0, 67, 0
1, 52918, Note_on_c, 0, 72, 0
1, 52919, Note_on_c, 0, 74, 92
1, 52919, Note_on_c, 0, 66, 97
1, 53025, Note_on_c, 0, 66, 0
1, 53026, Note_on_c, 0, 74, 0
1, 53026, Note_on_c, 0, 72, 92
1, 53027, Note_on_c, 0, 64, 97
1, 53079, Note_on_c, 0, 64, 0
1, 53079, Note_on_c, 0, 66, 97
1, 53133, Note_on_c, 0, 66, 0
1, 53133, Note_on_c, 0, 72, 0
1, 53134, Note_on_c, 0, 71, 92
1, 53134, Note_on_c, 0, 67, 97
1, 53187, Note_on_c, 0, 67, 0
1, 53188, Note_on_c, 0, 66, 97
1, 53242, Note_on_c, 0, 66, 0
1, 53243, Note_on_c, 0, 71, 0
1, 53243, Note_on_c, 0, 72, 92
1, 53244, Note_on_c, 0, 64, 97
1, 53298, Note_on_c, 0, 72, 0
1, 53298, Note_on_c, 0, 84, 86
1, 53353, Note_on_c, 0, 84, 0
1, 53354, Note_on_c, 0, 64, 0
1, 53354, Note_on_c, 0, 83, 86
1, 53355, Note_on_c, 0, 66, 97
1, 53409, Note_on_c, 0, 83, 0
1, 53410, Note_on_c, 0, 81, 86
1, 53466, Note_on_c, 0, 81, 0
1, 53467, Note_on_c, 0, 66, 0
1, 53467, Note_on_c, 0, 79, 86
1, 53467, Note_on_c, 0, 67, 97
1, 53522, Note_on_c, 0, 79, 0
1, 53523, Note_on_c, 0, 83, 86
1, 53579, Note_on_c, 0, 83, 0
1, 53580, Note_on_c, 0, 67, 0
1, 53580, Note_on_c, 0, 81, 86
1, 53580, Note_on_c, 0, 72, 92
1, 53636, Note_on_c, 0, 81, 0
1, 53636, Note_on_c, 0, 83, 86
1, 53692, Note_on_c, 0, 83, 0
1, 53693, Note_on_c, 0, 72, 0
1, 53693, Note_on_c, 0, 81, 86
1, 53694, Note_on_c, 0, 63, 97
1, 53747, Note_on_c, 0, 81, 0
1, 53748, Note_on_c, 0, 79, 86
1, 53803, Note_on_c, 0, 79, 0
1, 53803, Note_on_c, 0, 78, 86
1, 53858, Note_on_c, 0, 78, 0
1, 53859, Note_on_c, 0, 81, 86
1, 53915, Note_on_c, 0, 81, 0
1, 53915, Note_on_c, 0, 63, 0
1, 53916, Note_on_c, 0, 79, 86
1, 53916, Note_on_c, 0, 64, 97
1, 53969, Note_on_c, 0, 79, 0
1, 53970, Note_on_c, 0, 81, 86
1, 54024, Note_on_c, 0, 81, 0
1, 54024, Note_on_c, 0, 64, 0
1, 54025, Note_on_c, 0, 79, 86
1, 54025, Note_on_c, 0, 66, 97
1, 54081, Note_on_c, 0, 79, 0
1, 54081, Note_on_c, 0, 78, 86
1, 54136, Note_on_c, 0, 78, 0
1, 54136, Note_on_c, 0, 66, 0
1, 54137, Note_on_c, 0, 76, 86
1, 54138, Note_on_c, 0, 67, 97
1, 54193, Note_on_c, 0, 76, 0
1, 54193, Note_on_c, 0, 79, 86
1, 54248, Note_on_c, 0, 79, 0
1, 54248, Note_on_c, 0, 67, 0
1, 54249, Note_on_c, 0, 78, 86
1, 54249, Note_on_c, 0, 69, 92
1, 54301, Note_on_c, 0, 78, 0
1, 54302, Note_on_c, 0, 79, 86
1, 54356, Note_on_c, 0, 79, 0
1, 54357, Note_on_c, 0, 69, 0
1, 54357, Note_on_c, 0, 78, 86
1, 54358, Note_on_c, 0, 59, 97
1, 54410, Note_on_c, 0, 78, 0
1, 54410, Note_on_c, 0, 76, 86
1, 54465, Note_on_c, 0, 76, 0
1, 54465, Note_on_c, 0, 75, 92
1, 54519, Note_on_c, 0, 75, 0
1, 54520, Note_on_c, 0, 78, 86
1, 54574, Note_on_c, 0, 78, 0
1, 54575, Note_on_c, 0, 59, 0
1, 54575, Note_on_c, 0, 76, 86
1, 54576, Note_on_c, 0, 60, 97
1, 54630, Note_on_c, 0, 60, 0
1, 54630, Note_on_c, 0, 59, 97
1, 54684, Note_on_c, 0, 59, 0
1, 54685, Note_on_c, 0, 76, 0
1, 54685, Note_on_c, 0, 78, 86
1, 54686, Note_on_c, 0, 57, 97
1, 54739, Note_on_c, 0, 57, 0
1, 54740, Note_on_c, 0, 78, 0
1, 54740, Note_on_c, 0, 79, 86
1, 54741, Note_on_c, 0, 59, 97
1, 54794, Note_on_c, 0, 59, 0
1, 54794, Note_on_c, 0, 79, 0
1, 54795, Note_on_c, 0, 81, 86
1, 54795, Note_on_c, 0, 60, 97
1, 54850, Note_on_c, 0, 60, 0
1, 54850, Note_on_c, 0, 62, 97
1, 54904, Note_on_c, 0, 62, 0
1, 54905, Note_on_c, 0, 64, 97
1, 54959, Note_on_c, 0, 64, 0
1, 54960, Note_on_c, 0, 63, 97
1, 55014, Note_on_c, 0, 63, 0
1, 55014, Note_on_c, 0, 81, 0
1, 55015, Note_on_c, 0, 79, 86
1, 55015, Note_on_c, 0, 64, 97
1, 55069, Note_on_c, 0, 64, 0
1, 55070, Note_on_c, 0, 79, 0
1, 55070, Note_on_c, 0, 81, 86
1, 55071, Note_on_c, 0, 66, 97
1, 55123, Note_on_c, 0, 66, 0
1, 55124, Note_on_c, 0, 81, 0
1, 55124, Note_on_c, 0, 83, 86
1, 55125, Note_on_c, 0, 67, 97
1, 55178, Note_on_c, 0, 67, 0
1, 55178, Note_on_c, 0, 69, 92
1, 55233, Note_on_c, 0, 69, 0
1, 55233, Note_on_c, 0, 71, 92
1, 55286, Note_on_c, 0, 47, 97
1, 55314, Note_on_c, 0, 47, 0
1, 55315, Note_on_c, 0, 49, 97
1, 55341, Note_on_c, 0, 49, 0
1, 55342, Note_on_c, 0, 83, 0
1, 55342, Note_on_c, 0, 81, 86
1, 55343, Note_on_c, 0, 51, 97
1, 55395, Note_on_c, 0, 51, 0
1, 55395, Note_on_c, 0, 47, 97
1, 55450, Note_on_c, 0, 47, 0
1, 55450, Note_on_c, 0, 81, 0
1, 55451, Note_on_c, 0, 79, 86
1, 55451, Note_on_c, 0, 52, 97
1, 55503, Note_on_c, 0, 52, 0
1, 55504, Note_on_c, 0, 47, 97
1, 55558, Note_on_c, 0, 47, 0
1, 55559, Note_on_c, 0, 79, 0
1, 55559, Note_on_c, 0, 78, 86
1, 55560, Note_on_c, 0, 54, 97
1, 55613, Note_on_c, 0, 54, 0
1, 55613, Note_on_c, 0, 78, 0
1, 55614, Note_on_c, 0, 79, 86
1, 55614, Note_on_c, 0, 47, 97
1, 55668, Note_on_c, 0, 47, 0
1, 55668, Note_on_c, 0, 79, 0
1, 55668, Note_on_c, 0, 71, 0
1, 55669, Note_on_c, 0, 72, 92
1, 55669, Note_on_c, 0, 81, 86
1, 55670, Note_on_c, 0, 55, 97
1, 55723, Note_on_c, 0, 55, 0
1, 55724, Note_on_c, 0, 47, 97
1, 55779, Note_on_c, 0, 47, 0
1, 55779, Note_on_c, 0, 72, 0
1, 55780, Note_on_c, 0, 81, 0
1, 55780, Note_on_c, 0, 75, 92
1, 55781, Note_on_c, 0, 66, 97
1, 55781, Note_on_c, 0, 57, 97
1, 55834, Note_on_c, 0, 57, 0
1, 55834, Note_on_c, 0, 47, 97
1, 55889, Note_on_c, 0, 47, 0
1, 55890, Note_on_c, 0, 66, 0
1, 55890, Note_on_c, 0, 75, 0
1, 55891, Note_on_c, 0, 76, 86
1, 55891, Note_on_c, 0, 64, 97
1, 55892, Note_on_c, 0, 55, 97
1, 55943, Note_on_c, 0, 55, 0
1, 55944, Note_on_c, 0, 64, 0
1, 55944, Note_on_c, 0, 54, 97
1, 55944, Note_on_c, 0, 66, 97
1, 55998, Note_on_c, 0, 66, 0
1, 55999, Note_on_c, 0, 54, 0
1, 55999, Note_on_c, 0, 52, 97
1, 56000, Note_on_c, 0, 67, 97
1, 56052, Note_on_c, 0, 52, 0
1, 56052, Note_on_c, 0, 55, 97
1, 56106, Note_on_c, 0, 55, 0
1, 56106, Note_on_c, 0, 76, 0
1, 56106, Note_on_c, 0, 71, 95
1, 56107, Note_on_c, 0, 50, 97
1, 56160, Note_on_c, 0, 50, 0
1, 56160, Note_on_c, 0, 55, 97
1, 56214, Note_on_c, 0, 55, 0
1, 56214, Note_on_c, 0, 71, 0
1, 56215, Note_on_c, 0, 69, 95
1, 56215, Note_on_c, 0, 49, 97
1, 56268, Note_on_c, 0, 49, 0
1, 56269, Note_on_c, 0, 67, 0
1, 56269, Note_on_c, 0, 55, 97
1, 56270, Note_on_c, 0, 66, 97
1, 56322, Note_on_c, 0, 66, 0
1, 56323, Note_on_c, 0, 55, 0
1, 56324, Note_on_c, 0, 64, 97
1, 56324, Note_on_c, 0, 47, 97
1, 56377, Note_on_c, 0, 47, 0
1, 56378, Note_on_c, 0, 64, 0
1, 56378, Note_on_c, 0, 62, 97
1, 56378, Note_on_c, 0, 55, 97
1, 56431, Note_on_c, 0, 55, 0
1, 56431, Note_on_c, 0, 62, 0
1, 56432, Note_on_c, 0, 61, 97
1, 56433, Note_on_c, 0, 45, 97
1, 56485, Note_on_c, 0, 45, 0
1, 56485, Note_on_c, 0, 61, 0
1, 56485, Note_on_c, 0, 55, 97
1, 56486, Note_on_c, 0, 64, 97
1, 56540, Note_on_c, 0, 64, 0
1, 56540, Note_on_c, 0, 55, 0
1, 56541, Note_on_c, 0, 62, 97
1, 56541, Note_on_c, 0, 54, 97
1, 56593, Note_on_c, 0, 54, 0
1, 56594, Note_on_c, 0, 62, 0
1, 56594, Note_on_c, 0, 52, 97
1, 56595, Note_on_c, 0, 64, 97
1, 56648, Note_on_c, 0, 64, 0
1, 56649, Note_on_c, 0, 52, 0
1, 56649, Note_on_c, 0, 66, 97
1, 56649, Note_on_c, 0, 50, 97
1, 56702, Note_on_c, 0, 50, 0
1, 56702, Note_on_c, 0, 54, 97
1, 56747, Note_on_c, 0, 69, 0
1, 56757, Note_on_c, 0, 54, 0
1, 56757, Note_on_c, 0, 69, 95
1, 56758, Note_on_c, 0, 49, 97
1, 56810, Note_on_c, 0, 49, 0
1, 56810, Note_on_c, 0, 54, 97
1, 56864, Note_on_c, 0, 54, 0
1, 56865, Note_on_c, 0, 69, 0
1, 56865, Note_on_c, 0, 66, 0
1, 56866, Note_on_c, 0, 67, 97
1, 56866, Note_on_c, 0, 47, 97
1, 56918, Note_on_c, 0, 47, 0
1, 56918, Note_on_c, 0, 64, 97
1, 56919, Note_on_c, 0, 54, 97
1, 56969, Note_on_c, 0, 64, 0
1, 56972, Note_on_c, 0, 54, 0
1, 56972, Note_on_c, 0, 62, 97
1, 56973, Note_on_c, 0, 45, 97
1, 57024, Note_on_c, 0, 62, 0
1, 57026, Note_on_c, 0, 45, 0
1, 57027, Note_on_c, 0, 61, 97
1, 57027, Note_on_c, 0, 54, 97
1, 57078, Note_on_c, 0, 61, 0
1, 57081, Note_on_c, 0, 54, 0
1, 57082, Note_on_c, 0, 59, 97
1, 57082, Note_on_c, 0, 43, 97
1, 57133, Note_on_c, 0, 59, 0
1, 57136, Note_on_c, 0, 43, 0
1, 57136, Note_on_c, 0, 54, 97
1, 57137, Note_on_c, 0, 62, 97
1, 57191, Note_on_c, 0, 62, 0
1, 57191, Note_on_c, 0, 54, 0
1, 57192, Note_on_c, 0, 61, 97
1, 57192, Note_on_c, 0, 52, 97
1, 57243, Note_on_c, 0, 52, 0
1, 57244, Note_on_c, 0, 61, 0
1, 57244, Note_on_c, 0, 50, 97
1, 57245, Note_on_c, 0, 62, 97
1, 57297, Note_on_c, 0, 62, 0
1, 57298, Note_on_c, 0, 50, 0
1, 57298, Note_on_c, 0, 49, 97
1, 57299, Note_on_c, 0, 64, 97
1, 57351, Note_on_c, 0, 49, 0
1, 57351, Note_on_c, 0, 52, 97
1, 57396, Note_on_c, 0, 67, 0
1, 57406, Note_on_c, 0, 52, 0
1, 57406, Note_on_c, 0, 67, 97
1, 57407, Note_on_c, 0, 47, 97
1, 57460, Note_on_c, 0, 47, 0
1, 57461, Note_on_c, 0, 52, 97
1, 57515, Note_on_c, 0, 52, 0
1, 57516, Note_on_c, 0, 67, 0
1, 57516, Note_on_c, 0, 66, 97
1, 57516, Note_on_c, 0, 46, 97
1, 57570, Note_on_c, 0, 46, 0
1, 57570, Note_on_c, 0, 64, 0
1, 57571, Note_on_c, 0, 62, 97
1, 57571, Note_on_c, 0, 52, 97
1, 57624, Note_on_c, 0, 62, 0
1, 57625, Note_on_c, 0, 52, 0
1, 57625, Note_on_c, 0, 61, 97
1, 57626, Note_on_c, 0, 44, 97
1, 57678, Note_on_c, 0, 44, 0
1, 57679, Note_on_c, 0, 61, 0
1, 57679, Note_on_c, 0, 52, 97
1, 57680, Note_on_c, 0, 59, 97
1, 57733, Note_on_c, 0, 59, 0
1, 57733, Note_on_c, 0, 52, 0
1, 57734, Note_on_c, 0, 58, 97
1, 57734, Note_on_c, 0, 42, 97
1, 57788, Note_on_c, 0, 42, 0
1, 57788, Note_on_c, 0, 58, 0
1, 57789, Note_on_c, 0, 61, 97
1, 57789, Note_on_c, 0, 52, 97
1, 57842, Note_on_c, 0, 61, 0
1, 57843, Note_on_c, 0, 52, 0
1, 57843, Note_on_c, 0, 59, 97
1, 57844, Note_on_c, 0, 50, 97
1, 57898, Note_on_c, 0, 50, 0
1, 57898, Note_on_c, 0, 66, 0
1, 57899, Note_on_c, 0, 71, 92
1, 57899, Note_on_c, 0, 54, 97
1, 57955, Note_on_c, 0, 54, 0
1, 57955, Note_on_c, 0, 71, 0
1, 57956, Note_on_c, 0, 59, 0
1, 57956, Note_on_c, 0, 73, 92
1, 57957, Note_on_c, 0, 52, 97
1, 58012, Note_on_c, 0, 52, 0
1, 58013, Note_on_c, 0, 73, 0
1, 58013, Note_on_c, 0, 71, 92
1, 58014, Note_on_c, 0, 50, 97
1, 58069, Note_on_c, 0, 50, 0
1, 58069, Note_on_c, 0, 71, 0
1, 58070, Note_on_c, 0, 70, 92
1, 58070, Note_on_c, 0, 49, 97
1, 58124, Note_on_c, 0, 49, 0
1, 58124, Note_on_c, 0, 70, 0
1, 58125, Note_on_c, 0, 71, 92
1, 58125, Note_on_c, 0, 47, 97
1, 58179, Note_on_c, 0, 47, 0
1, 58180, Note_on_c, 0, 71, 0
1, 58180, Note_on_c, 0, 73, 92
1, 58181, Note_on_c, 0, 46, 97
1, 58233, Note_on_c, 0, 46, 0
1, 58234, Note_on_c, 0, 49, 97
1, 58288, Note_on_c, 0, 49, 0
1, 58288, Note_on_c, 0, 73, 0
1, 58289, Note_on_c, 0, 74, 92
1, 58289, Note_on_c, 0, 47, 97
1, 58342, Note_on_c, 0, 47, 0
1, 58342, Note_on_c, 0, 74, 0
1, 58343, Note_on_c, 0, 73, 92
1, 58343, Note_on_c, 0, 46, 97
1, 58395, Note_on_c, 0, 46, 0
1, 58396, Note_on_c, 0, 73, 0
1, 58396, Note_on_c, 0, 71, 92
1, 58397, Note_on_c, 0, 44, 97
1, 58449, Note_on_c, 0, 44, 0
1, 58450, Note_on_c, 0, 71, 0
1, 58450, Note_on_c, 0, 73, 92
1, 58451, Note_on_c, 0, 42, 97
1, 58504, Note_on_c, 0, 42, 0
1, 58504, Note_on_c, 0, 73, 0
1, 58505, Note_on_c, 0, 74, 92
1, 58505, Note_on_c, 0, 47, 97
1, 58613, Note_on_c, 0, 47, 0
1, 58614, Note_on_c, 0, 74, 0
1, 58614, Note_on_c, 0, 73, 92
1, 58615, Note_on_c, 0, 49, 97
1, 58669, Note_on_c, 0, 49, 0
1, 58670, Note_on_c, 0, 47, 97
1, 58724, Note_on_c, 0, 47, 0
1, 58724, Note_on_c, 0, 73, 0
1, 58725, Note_on_c, 0, 71, 92
1, 58726, Note_on_c, 0, 46, 97
1, 58778, Note_on_c, 0, 46, 0
1, 58779, Note_on_c, 0, 47, 97
1, 58833, Note_on_c, 0, 47, 0
1, 58833, Note_on_c, 0, 71, 0
1, 58834, Note_on_c, 0, 70, 92
1, 58834, Note_on_c, 0, 49, 97
1, 58941, Note_on_c, 0, 49, 0
1, 58942, Note_on_c, 0, 70, 0
1, 58942, Note_on_c, 0, 79, 86
1, 58943, Note_on_c, 0, 50, 97
1, 58995, Note_on_c, 0, 50, 0
1, 58995, Note_on_c, 0, 49, 97
1, 59050, Note_on_c, 0, 49, 0
1, 59050, Note_on_c, 0, 47, 97
1, 59103, Note_on_c, 0, 47, 0
1, 59104, Note_on_c, 0, 49, 97
1, 59157, Note_on_c, 0, 49, 0
1, 59158, Note_on_c, 0, 79, 0
1, 59158, Note_on_c, 0, 78, 86
1, 59159, Note_on_c, 0, 50, 97
1, 59266, Note_on_c, 0, 50, 0
1, 59266, Note_on_c, 0, 78, 0
1, 59267, Note_on_c, 0, 79, 86
1, 59267, Note_on_c, 0, 49, 97
1, 59320, Note_on_c, 0, 79, 0
1, 59321, Note_on_c, 0, 78, 86
1, 59374, Note_on_c, 0, 78, 0
1, 59375, Note_on_c, 0, 49, 0
1, 59375, Note_on_c, 0, 76, 86
1, 59376, Note_on_c, 0, 47, 97
1, 59428, Note_on_c, 0, 76, 0
1, 59428, Note_on_c, 0, 74, 92
1, 59483, Note_on_c, 0, 74, 0
1, 59483, Note_on_c, 0, 47, 0
1, 59484, Note_on_c, 0, 73, 92
1, 59484, Note_on_c, 0, 46, 97
1, 59590, Note_on_c, 0, 46, 0
1, 59591, Note_on_c, 0, 73, 0
1, 59591, Note_on_c, 0, 76, 86
1, 59592, Note_on_c, 0, 55, 97
1, 59645, Note_on_c, 0, 76, 0
1, 59645, Note_on_c, 0, 74, 92
1, 59699, Note_on_c, 0, 74, 0
1, 59699, Note_on_c, 0, 73, 92
1, 59753, Note_on_c, 0, 73, 0
1, 59754, Note_on_c, 0, 71, 92
1, 59808, Note_on_c, 0, 71, 0
1, 59808, Note_on_c, 0, 55, 0
1, 59809, Note_on_c, 0, 70, 92
1, 59809, Note_on_c, 0, 54, 97
1, 59863, Note_on_c, 0, 54, 0
1, 59863, Note_on_c, 0, 70, 0
1, 59864, Note_on_c, 0, 71, 92
1, 59864, Note_on_c, 0, 56, 97
1, 59917, Note_on_c, 0, 56, 0
1, 59918, Note_on_c, 0, 71, 0
1, 59918, Note_on_c, 0, 73, 92
1, 59919, Note_on_c, 0, 58, 97
1, 59972, Note_on_c, 0, 58, 0
1, 59973, Note_on_c, 0, 73, 0
1, 59973, Note_on_c, 0, 70, 92
1, 59974, Note_on_c, 0, 54, 97
1, 60026, Note_on_c, 0, 54, 0
1, 60026, Note_on_c, 0, 70, 0
1, 60027, Note_on_c, 0, 74, 92
1, 60027, Note_on_c, 0, 59, 97
1, 60081, Note_on_c, 0, 59, 0
1, 60081, Note_on_c, 0, 74, 0
1, 60082, Note_on_c, 0, 70, 92
1, 60082, Note_on_c, 0, 54, 97
1, 60135, Note_on_c, 0, 54, 0
1, 60136, Note_on_c, 0, 70, 0
1, 60136, Note_on_c, 0, 76, 86
1, 60137, Note_on_c, 0, 61, 97
1, 60190, Note_on_c, 0, 61, 0
1, 60191, Note_on_c, 0, 76, 0
1, 60191, Note_on_c, 0, 70, 92
1, 60192, Note_on_c, 0, 54, 97
1, 60245, Note_on_c, 0, 54, 0
1, 60245, Note_on_c, 0, 70, 0
1, 60246, Note_on_c, 0, 78, 86
1, 60246, Note_on_c, 0, 62, 97
1, 60300, Note_on_c, 0, 62, 0
1, 60300, Note_on_c, 0, 78, 0
1, 60300, Note_on_c, 0, 70, 92
1, 60301, Note_on_c, 0, 54, 97
1, 60353, Note_on_c, 0, 54, 0
1, 60354, Note_on_c, 0, 70, 0
1, 60354, Note_on_c, 0, 79, 86
1, 60355, Note_on_c, 0, 64, 97
1, 60409, Note_on_c, 0, 64, 0
1, 60409, Note_on_c, 0, 79, 0
1, 60410, Note_on_c, 0, 70, 92
1, 60410, Note_on_c, 0, 54, 97
1, 60464, Note_on_c, 0, 54, 0
1, 60464, Note_on_c, 0, 70, 0
1, 60465, Note_on_c, 0, 78, 86
1, 60465, Note_on_c, 0, 62, 97
1, 60519, Note_on_c, 0, 62, 0
1, 60520, Note_on_c, 0, 78, 0
1, 60520, Note_on_c, 0, 70, 92
1, 60521, Note_on_c, 0, 54, 97
1, 60574, Note_on_c, 0, 54, 0
1, 60575, Note_on_c, 0, 70, 0
1, 60575, Note_on_c, 0, 71, 92
1, 60576, Note_on_c, 0, 55, 97
1, 60629, Note_on_c, 0, 55, 0
1, 60629, Note_on_c, 0, 71, 0
1, 60630, Note_on_c, 0, 78, 80
1, 60630, Note_on_c, 0, 62, 97
1, 60684, Note_on_c, 0, 62, 0
1, 60684, Note_on_c, 0, 78, 0
1, 60684, Note_on_c, 0, 76, 80
1, 60685, Note_on_c, 0, 61, 97
1, 60713, Note_on_c, 0, 61, 0
1, 60714, Note_on_c, 0, 76, 0
1, 60714, Note_on_c, 0, 74, 86
1, 60715, Note_on_c, 0, 59, 97
1, 60748, Note_on_c, 0, 59, 0
1, 60748, Note_on_c, 0, 74, 0
1, 60749, Note_on_c, 0, 73, 86
1, 60749, Note_on_c, 0, 58, 97
1, 60781, Note_on_c, 0, 58, 0
1, 60782, Note_on_c, 0, 73, 0
1, 60782, Note_on_c, 0, 74, 86
1, 60783, Note_on_c, 0, 59, 97
1, 60813, Note_on_c, 0, 59, 0
1, 60814, Note_on_c, 0, 74, 0
1, 60814, Note_on_c, 0, 76, 80
1, 60815, Note_on_c, 0, 61, 97
1, 60872, Note_on_c, 0, 61, 0
1, 60872, Note_on_c, 0, 76, 0
1, 60873, Note_on_c, 0, 68, 92
1, 60873, Note_on_c, 0, 52, 97
1, 60930, Note_on_c, 0, 52, 0
1, 60930, Note_on_c, 0, 68, 0
1, 60931, Note_on_c, 0, 69, 92
1, 60931, Note_on_c, 0, 54, 97
1, 60987, Note_on_c, 0, 54, 0
1, 60988, Note_on_c, 0, 69, 0
1, 60988, Note_on_c, 0, 76, 80
1, 60988, Note_on_c, 0, 61, 97
1, 61045, Note_on_c, 0, 61, 0
1, 61045, Note_on_c, 0, 76, 0
1, 61046, Note_on_c, 0, 74, 86
1, 61046, Note_on_c, 0, 59, 97
1, 61076, Note_on_c, 0, 59, 0
1, 61076, Note_on_c, 0, 74, 0
1, 61076, Note_on_c, 0, 73, 86
1, 61077, Note_on_c, 0, 57, 97
1, 61107, Note_on_c, 0, 57, 0
1, 61108, Note_on_c, 0, 73, 0
1, 61108, Note_on_c, 0, 71, 86
1, 61108, Note_on_c, 0, 56, 97
1, 61138, Note_on_c, 0, 56, 0
1, 61139, Note_on_c, 0, 71, 0
1, 61139, Note_on_c, 0, 73, 86
1, 61139, Note_on_c, 0, 57, 97
1, 61170, Note_on_c, 0, 57, 0
1, 61170, Note_on_c, 0, 73, 0
1, 61170, Note_on_c, 0, 74, 86
1, 61171, Note_on_c, 0, 59, 97
1, 61224, Note_on_c, 0, 61, 97
1, 61279, Note_on_c, 0, 61, 0
1, 61280, Note_on_c, 0, 59, 0
1, 61280, Note_on_c, 0, 62, 97
1, 61335, Note_on_c, 0, 62, 0
1, 61335, Note_on_c, 0, 59, 97
1, 61390, Note_on_c, 0, 59, 0
1, 61390, Note_on_c, 0, 64, 97
1, 61444, Note_on_c, 0, 64, 0
1, 61445, Note_on_c, 0, 59, 97
1, 61499, Note_on_c, 0, 59, 0
1, 61500, Note_on_c, 0, 66, 97
1, 61555, Note_on_c, 0, 66, 0
1, 61555, Note_on_c, 0, 59, 97
1, 61610, Note_on_c, 0, 59, 0
1, 61611, Note_on_c, 0, 68, 92
1, 61665, Note_on_c, 0, 68, 0
1, 61666, Note_on_c, 0, 59, 97
1, 61721, Note_on_c, 0, 59, 0
1, 61721, Note_on_c, 0, 69, 92
1, 61722, Note_on_c, 0, 47, 97
1, 61776, Note_on_c, 0, 69, 0
1, 61776, Note_on_c, 0, 59, 97
1, 61830, Note_on_c, 0, 59, 0
1, 61831, Note_on_c, 0, 47, 0
1, 61831, Note_on_c, 0, 68, 92
1, 61832, Note_on_c, 0, 52, 97
1, 61887, Note_on_c, 0, 52, 0
1, 61887, Note_on_c, 0, 54, 97
1, 61943, Note_on_c, 0, 54, 0
1, 61943, Note_on_c, 0, 68, 0
1, 61944, Note_on_c, 0, 56, 97
1, 61944, Note_on_c, 0, 64, 97
1, 61998, Note_on_c, 0, 56, 0
1, 61999, Note_on_c, 0, 52, 97
1, 62053, Note_on_c, 0, 52, 0
1, 62053, Note_on_c, 0, 64, 0
1, 62054, Note_on_c, 0, 66, 97
1, 62054, Note_on_c, 0, 57, 97
1, 62109, Note_on_c, 0, 57, 0
1, 62109, Note_on_c, 0, 52, 97
1, 62164, Note_on_c, 0, 52, 0
1, 62165, Note_on_c, 0, 66, 0
1, 62165, Note_on_c, 0, 68, 92
1, 62166, Note_on_c, 0, 59, 97
1, 62220, Note_on_c, 0, 59, 0
1, 62220, Note_on_c, 0, 52, 97
1, 62277, Note_on_c, 0, 52, 0
1, 62277, Note_on_c, 0, 68, 0
1, 62278, Note_on_c, 0, 69, 92
1, 62278, Note_on_c, 0, 61, 97
1, 62332, Note_on_c, 0, 61, 0
1, 62333, Note_on_c, 0, 52, 97
1, 62388, Note_on_c, 0, 52, 0
1, 62388, Note_on_c, 0, 69, 0
1, 62389, Note_on_c, 0, 71, 92
1, 62389, Note_on_c, 0, 62, 97
1, 62444, Note_on_c, 0, 62, 0
1, 62444, Note_on_c, 0, 52, 97
1, 62500, Note_on_c, 0, 52, 0
1, 62501, Note_on_c, 0, 71, 0
1, 62501, Note_on_c, 0, 64, 97
1, 62502, Note_on_c, 0, 61, 97
1, 62556, Note_on_c, 0, 74, 0
1, 62556, Note_on_c, 0, 66, 97
1, 62589, Note_on_c, 0, 66, 0
1, 62589, Note_on_c, 0, 68, 92
1, 62622, Note_on_c, 0, 68, 0
1, 62623, Note_on_c, 0, 61, 0
1, 62623, Note_on_c, 0, 69, 92
1, 62679, Note_on_c, 0, 69, 0
1, 62679, Note_on_c, 0, 64, 0
1, 62680, Note_on_c, 0, 64, 97
1, 62680, Note_on_c, 0, 62, 97
1, 62735, Note_on_c, 0, 62, 0
1, 62735, Note_on_c, 0, 64, 0
1, 62736, Note_on_c, 0, 71, 92
1, 62736, Note_on_c, 0, 61, 97
1, 62790, Note_on_c, 0, 61, 0
1, 62791, Note_on_c, 0, 71, 0
1, 62791, Note_on_c, 0, 64, 97
1, 62792, Note_on_c, 0, 59, 97
1, 62846, Note_on_c, 0, 59, 0
1, 62846, Note_on_c, 0, 64, 0
1, 62847, Note_on_c, 0, 73, 92
1, 62847, Note_on_c, 0, 57, 97
1, 62903, Note_on_c, 0, 57, 0
1, 62903, Note_on_c, 0, 73, 0
1, 62904, Note_on_c, 0, 64, 97
1, 62904, Note_on_c, 0, 59, 97
1, 62958, Note_on_c, 0, 59, 0
1, 62959, Note_on_c, 0, 64, 0
1, 62959, Note_on_c, 0, 74, 92
1, 62960, Note_on_c, 0, 57, 97
1, 63015, Note_on_c, 0, 57, 0
1, 63015, Note_on_c, 0, 74, 0
1, 63016, Note_on_c, 0, 66, 97
1, 63016, Note_on_c, 0, 55, 97
1, 63071, Note_on_c, 0, 55, 0
1, 63071, Note_on_c, 0, 66, 0
1, 63072, Note_on_c, 0, 76, 86
1, 63072, Note_on_c, 0, 49, 97
1, 63072, Note_on_c, 0, 54, 97
1, 63126, Note_on_c, 0, 54, 0
1, 63127, Note_on_c, 0, 76, 0
1, 63127, Note_on_c, 0, 67, 97
1, 63128, Note_on_c, 0, 52, 97
1, 63182, Note_on_c, 0, 52, 0
1, 63182, Note_on_c, 0, 67, 0
1, 63183, Note_on_c, 0, 49, 0
1, 63183, Note_on_c, 0, 66, 97
1, 63184, Note_on_c, 0, 50, 97
1, 63240, Note_on_c, 0, 66, 0
1, 63240, Note_on_c, 0, 67, 97
1, 63274, Note_on_c, 0, 67, 0
1, 63274, Note_on_c, 0, 69, 92
1, 63305, Note_on_c, 0, 69, 0
1, 63306, Note_on_c, 0, 71, 92
1, 63360, Note_on_c, 0, 50, 0
1, 63360, Note_on_c, 0, 66, 97
1, 63361, Note_on_c, 0, 52, 97
1, 63365, Note_on_c, 0, 71, 0
1, 63415, Note_on_c, 0, 52, 0
1, 63415, Note_on_c, 0, 66, 0
1, 63415, Note_on_c, 0, 73, 92
1, 63416, Note_on_c, 0, 50, 97
1, 63470, Note_on_c, 0, 50, 0
1, 63471, Note_on_c, 0, 66, 97
1, 63471, Note_on_c, 0, 49, 97
1, 63476, Note_on_c, 0, 73, 0
1, 63525, Note_on_c, 0, 49, 0
1, 63526, Note_on_c, 0, 66, 0
1, 63526, Note_on_c, 0, 74, 92
1, 63527, Note_on_c, 0, 47, 97
1, 63581, Note_on_c, 0, 47, 0
1, 63582, Note_on_c, 0, 49, 97
1, 63582, Note_on_c, 0, 66, 97
1, 63586, Note_on_c, 0, 74, 0
1, 63636, Note_on_c, 0, 66, 0
1, 63636, Note_on_c, 0, 49, 0
1, 63636, Note_on_c, 0, 76, 86
1, 63637, Note_on_c, 0, 47, 97
1, 63691, Note_on_c, 0, 47, 0
1, 63692, Note_on_c, 0, 67, 97
1, 63692, Note_on_c, 0, 45, 97
1, 63697, Note_on_c, 0, 76, 0
1, 63747, Note_on_c, 0, 45, 0
1, 63747, Note_on_c, 0, 67, 0
1, 63748, Note_on_c, 0, 78, 86
1, 63748, Note_on_c, 0, 43, 97
1, 63804, Note_on_c, 0, 43, 0
1, 63804, Note_on_c, 0, 69, 92
1, 63805, Note_on_c, 0, 42, 97
1, 63809, Note_on_c, 0, 78, 0
1, 63859, Note_on_c, 0, 42, 0
1, 63860, Note_on_c, 0, 67, 97
1, 63861, Note_on_c, 0, 40, 97
1, 63865, Note_on_c, 0, 69, 0
1, 63916, Note_on_c, 0, 67, 0
1, 63916, Note_on_c, 0, 66, 97
1, 63972, Note_on_c, 0, 66, 0
1, 63973, Note_on_c, 0, 40, 0
1, 63973, Note_on_c, 0, 67, 97
1, 63974, Note_on_c, 0, 50, 97
1, 64030, Note_on_c, 0, 67, 0
1, 64031, Note_on_c, 0, 71, 92
1, 64087, Note_on_c, 0, 71, 0
1, 64087, Note_on_c, 0, 50, 0
1, 64088, Note_on_c, 0, 76, 86
1, 64088, Note_on_c, 0, 49, 97
1, 64143, Note_on_c, 0, 76, 0
1, 64144, Note_on_c, 0, 67, 97
1, 64199, Note_on_c, 0, 67, 0
1, 64200, Note_on_c, 0, 49, 0
1, 64200, Note_on_c, 0, 66, 97
1, 64200, Note_on_c, 0, 50, 97
1, 64255, Note_on_c, 0, 66, 0
1, 64255, Note_on_c, 0, 71, 92
1, 64311, Note_on_c, 0, 71, 0
1, 64312, Note_on_c, 0, 50, 0
1, 64312, Note_on_c, 0, 69, 92
1, 64313, Note_on_c, 0, 52, 97
1, 64367, Note_on_c, 0, 52, 0
1, 64368, Note_on_c, 0, 69, 0
1, 64368, Note_on_c, 0, 73, 92
1, 64368, Note_on_c, 0, 50, 97
1, 64423, Note_on_c, 0, 50, 0
1, 64423, Note_on_c, 0, 73, 0
1, 64424, Note_on_c, 0, 74, 92
1, 64424, Note_on_c, 0, 49, 97
1, 64425, Note_on_c, 0, 47, 97
1, 64479, Note_on_c, 0, 49, 0
1, 64480, Note_on_c, 0, 50, 97
1, 64536, Note_on_c, 0, 50, 0
1, 64536, Note_on_c, 0, 47, 0
1, 64537, Note_on_c, 0, 52, 97
1, 64537, Note_on_c, 0, 43, 97
1, 64647, Note_on_c, 0, 43, 0
1, 64648, Note_on_c, 0, 52, 0
1, 64648, Note_on_c, 0, 74, 0
1, 64649, Note_on_c, 0, 73, 92
1, 64649, Note_on_c, 0, 54, 97
1, 64650, Note_on_c, 0, 45, 97
1, 64702, Note_on_c, 0, 54, 0
1, 64703, Note_on_c, 0, 52, 97
1, 64757, Note_on_c, 0, 52, 0
1, 64757, Note_on_c, 0, 50, 97
1, 64812, Note_on_c, 0, 50, 0
1, 64812, Note_on_c, 0, 52, 97
1, 64866, Note_on_c, 0, 52, 0
1, 64867, Note_on_c, 0, 45, 0
1, 64867, Note_on_c, 0, 73, 0
1, 64868, Note_on_c, 0, 74, 92
1, 64868, Note_on_c, 0, 54, 97
1, 64869, Note_on_c, 0, 50, 97
1, 64977, Note_on_c, 0, 50, 0
1, 64977, Note_on_c, 0, 54, 0
1, 64978, Note_on_c, 0, 74, 0
1, 64978, Note_on_c, 0, 76, 86
1, 64979, Note_on_c, 0, 49, 97
1, 64979, Note_on_c, 0, 52, 97
1, 65033, Note_on_c, 0, 76, 0
1, 65034, Note_on_c, 0, 74, 92
1, 65089, Note_on_c, 0, 74, 0
1, 65089, Note_on_c, 0, 49, 0
1, 65090, Note_on_c, 0, 52, 0
1, 65090, Note_on_c, 0, 73, 92
1, 65091, Note_on_c, 0, 50, 97
1, 65091, Note_on_c, 0, 47, 97
1, 65145, Note_on_c, 0, 73, 0
1, 65145, Note_on_c, 0, 74, 92
1, 65201, Note_on_c, 0, 74, 0
1, 65202, Note_on_c, 0, 47, 0
1, 65202, Note_on_c, 0, 50, 0
1, 65203, Note_on_c, 0, 76, 86
1, 65203, Note_on_c, 0, 49, 97
1, 65204, Note_on_c, 0, 45, 97
1, 65311, Note_on_c, 0, 49, 0
1, 65311, Note_on_c, 0, 76, 0
1, 65312, Note_on_c, 0, 78, 86
1, 65312, Note_on_c, 0, 59, 97
1, 65365, Note_on_c, 0, 78, 0
1, 65366, Note_on_c, 0, 76, 86
1, 65418, Note_on_c, 0, 76, 0
1, 65419, Note_on_c, 0, 74, 92
1, 65472, Note_on_c, 0, 74, 0
1, 65472, Note_on_c, 0, 76, 86
1, 65525, Note_on_c, 0, 76, 0
1, 65525, Note_on_c, 0, 59, 0
1, 65526, Note_on_c, 0, 78, 86
1, 65526, Note_on_c, 0, 57, 97
1, 65632, Note_on_c, 0, 57, 0
1, 65633, Note_on_c, 0, 78, 0
1, 65633, Note_on_c, 0, 79, 86
1, 65634, Note_on_c, 0, 59, 97
1, 65686, Note_on_c, 0, 59, 0
1, 65686, Note_on_c, 0, 79, 0
1, 65686, Note_on_c, 0, 78, 86
1, 65687, Note_on_c, 0, 57, 97
1, 65739, Note_on_c, 0, 57, 0
1, 65739, Note_on_c, 0, 78, 0
1, 65740, Note_on_c, 0, 76, 86
1, 65741, Note_on_c, 0, 55, 97
1, 65793, Note_on_c, 0, 55, 0
1, 65793, Note_on_c, 0, 76, 0
1, 65794, Note_on_c, 0, 74, 92
1, 65794, Note_on_c, 0, 54, 97
1, 65847, Note_on_c, 0, 54, 0
1, 65847, Note_on_c, 0, 74, 0
1, 65848, Note_on_c, 0, 73, 92
1, 65848, Note_on_c, 0, 52, 97
1, 65952, Note_on_c, 0, 52, 0
1, 65953, Note_on_c, 0, 73, 0
1, 65953, Note_on_c, 0, 83, 86
1, 65954, Note_on_c, 0, 55, 97
1, 66005, Note_on_c, 0, 55, 0
1, 66006, Note_on_c, 0, 54, 97
1, 66057, Note_on_c, 0, 54, 0
1, 66058, Note_on_c, 0, 52, 97
1, 66109, Note_on_c, 0, 52, 0
1, 66109, Note_on_c, 0, 50, 97
1, 66162, Note_on_c, 0, 50, 0
1, 66162, Note_on_c, 0, 49, 97
1, 66216, Note_on_c, 0, 83, 0
1, 66216, Note_on_c, 0, 81, 86
1, 66268, Note_on_c, 0, 81, 0
1, 66269, Note_on_c, 0, 83, 86
1, 66322, Note_on_c, 0, 83, 0
1, 66323, Note_on_c, 0, 81, 86
1, 66375, Note_on_c, 0, 81, 0
1, 66375, Note_on_c, 0, 49, 0
1, 66376, Note_on_c, 0, 79, 86
1, 66376, Note_on_c, 0, 50, 97
1, 66429, Note_on_c, 0, 79, 0
1, 66429, Note_on_c, 0, 78, 86
1, 66481, Note_on_c, 0, 78, 0
1, 66482, Note_on_c, 0, 78, 80
1, 66505, Note_on_c, 0, 78, 0
1, 66506, Note_on_c, 0, 76, 80
1, 66529, Note_on_c, 0, 76, 0
1, 66530, Note_on_c, 0, 78, 80
1, 66547, Note_on_c, 0, 50, 0
1, 66547, Note_on_c, 0, 55, 97
1, 66553, Note_on_c, 0, 78, 0
1, 66553, Note_on_c, 0, 76, 80
1, 66576, Note_on_c, 0, 76, 0
1, 66577, Note_on_c, 0, 78, 80
1, 66578, Note_on_c, 0, 55, 0
1, 66579, Note_on_c, 0, 54, 97
1, 66598, Note_on_c, 0, 78, 0
1, 66598, Note_on_c, 0, 76, 80
1, 66607, Note_on_c, 0, 54, 0
1, 66608, Note_on_c, 0, 52, 97
1, 66620, Note_on_c, 0, 76, 0
1, 66620, Note_on_c, 0, 78, 80
1, 66642, Note_on_c, 0, 78, 0
1, 66642, Note_on_c, 0, 76, 80
1, 66663, Note_on_c, 0, 76, 0
1, 66663, Note_on_c, 0, 78, 80
1, 66667, Note_on_c, 0, 52, 0
1, 66667, Note_on_c, 0, 55, 97
1, 66685, Note_on_c, 0, 78, 0
1, 66685, Note_on_c, 0, 76, 80
1, 66707, Note_on_c, 0, 76, 0
1, 66707, Note_on_c, 0, 78, 80
1, 66725, Note_on_c, 0, 55, 0
1, 66726, Note_on_c, 0, 50, 97
1, 66728, Note_on_c, 0, 78, 0
1, 66729, Note_on_c, 0, 76, 80
1, 66752, Note_on_c, 0, 76, 0
1, 66753, Note_on_c, 0, 78, 80
1, 66776, Note_on_c, 0, 78, 0
1, 66777, Note_on_c, 0, 76, 80
1, 66792, Note_on_c, 0, 50, 0
1, 66792, Note_on_c, 0, 55, 97
1, 66800, Note_on_c, 0, 76, 0
1, 66801, Note_on_c, 0, 78, 80
1, 66822, Note_on_c, 0, 78, 0
1, 66823, Note_on_c, 0, 76, 80
1, 66843, Note_on_c, 0, 76, 0
1, 66844, Note_on_c, 0, 78, 80
1, 66851, Note_on_c, 0, 55, 0
1, 66852, Note_on_c, 0, 49, 97
1, 66864, Note_on_c, 0, 78, 0
1, 66864, Note_on_c, 0, 76, 80
1, 66886, Note_on_c, 0, 76, 0
1, 66886, Note_on_c, 0, 78, 80
1, 66907, Note_on_c, 0, 78, 0
1, 66907, Note_on_c, 0, 76, 80
1, 66909, Note_on_c, 0, 49, 0
1, 66909, Note_on_c, 0, 55, 97
1, 66929, Note_on_c, 0, 76, 0
1, 66929, Note_on_c, 0, 78, 80
1, 66951, Note_on_c, 0, 78, 0
1, 66951, Note_on_c, 0, 76, 80
1, 66969, Note_on_c, 0, 55, 0
1, 66970, Note_on_c, 0, 47, 97
1, 66973, Note_on_c, 0, 76, 0
1, 66973, Note_on_c, 0, 78, 80
1, 66996, Note_on_c, 0, 78, 0
1, 66996, Note_on_c, 0, 76, 80
1, 67018, Note_on_c, 0, 76, 0
1, 67019, Note_on_c, 0, 78, 80
1, 67030, Note_on_c, 0, 47, 0
1, 67030, Note_on_c, 0, 55, 97
1, 67040, Note_on_c, 0, 78, 0
1, 67041, Note_on_c, 0, 76, 80
1, 67061, Note_on_c, 0, 76, 0
1, 67062, Note_on_c, 0, 78, 80
1, 67082, Note_on_c, 0, 78, 0
1, 67083, Note_on_c, 0, 76, 80
1, 67088, Note_on_c, 0, 55, 0
1, 67089, Note_on_c, 0, 45, 0
1, 67089, Note_on_c, 0, 45, 97
1, 67104, Note_on_c, 0, 76, 0
1, 67105, Note_on_c, 0, 78, 80
1, 67126, Note_on_c, 0, 78, 0
1, 67126, Note_on_c, 0, 76, 80
1, 67147, Note_on_c, 0, 76, 0
1, 67147, Note_on_c, 0, 45, 0
1, 67148, Note_on_c, 0, 78, 80
1, 67148, Note_on_c, 0, 55, 97
1, 67169, Note_on_c, 0, 78, 0
1, 67169, Note_on_c, 0, 76, 80
1, 67190, Note_on_c, 0, 76, 0
1, 67190, Note_on_c, 0, 78, 80
1, 67205, Note_on_c, 0, 55, 0
1, 67206, Note_on_c, 0, 54, 97
1, 67212, Note_on_c, 0, 78, 0
1, 67212, Note_on_c, 0, 76, 80
1, 67265, Note_on_c, 0, 54, 0
1, 67265, Note_on_c, 0, 81, 86
1, 67266, Note_on_c, 0, 55, 97
1, 67272, Note_on_c, 0, 76, 0
1, 67295, Note_on_c, 0, 81, 0
1, 67295, Note_on_c, 0, 79, 86
1, 67324, Note_on_c, 0, 79, 0
1, 67325, Note_on_c, 0, 55, 0
1, 67325, Note_on_c, 0, 78, 86
1, 67326, Note_on_c, 0, 57, 97
1, 67385, Note_on_c, 0, 78, 0
1, 67385, Note_on_c, 0, 81, 86
1, 67386, Note_on_c, 0, 52, 97
1, 67445, Note_on_c, 0, 52, 0
1, 67445, Note_on_c, 0, 81, 0
1, 67446, Note_on_c, 0, 76, 86
1, 67446, Note_on_c, 0, 50, 97
1, 67504, Note_on_c, 0, 50, 0
1, 67504, Note_on_c, 0, 76, 0
1, 67505, Note_on_c, 0, 81, 86
1, 67505, Note_on_c, 0, 49, 97
1, 67563, Note_on_c, 0, 49, 0
1, 67564, Note_on_c, 0, 81, 0
1, 67564, Note_on_c, 0, 74, 92
1, 67565, Note_on_c, 0, 47, 97
1, 67621, Note_on_c, 0, 74, 0
1, 67621, Note_on_c, 0, 57, 0
1, 67622, Note_on_c, 0, 81, 86
1, 67622, Note_on_c, 0, 55, 97
1, 67679, Note_on_c, 0, 55, 0
1, 67679, Note_on_c, 0, 81, 0
1, 67680, Note_on_c, 0, 73, 92
1, 67680, Note_on_c, 0, 54, 97
1, 67737, Note_on_c, 0, 54, 0
1, 67738, Note_on_c, 0, 73, 0
1, 67738, Note_on_c, 0, 81, 86
1, 67739, Note_on_c, 0, 52, 97
1, 67796, Note_on_c, 0, 52, 0
1, 67796, Note_on_c, 0, 81, 0
1, 67797, Note_on_c, 0, 47, 0
1, 67797, Note_on_c, 0, 71, 92
1, 67798, Note_on_c, 0, 50, 97
1, 67854, Note_on_c, 0, 50, 0
1, 67855, Note_on_c, 0, 71, 0
1, 67855, Note_on_c, 0, 81, 86
1, 67856, Note_on_c, 0, 54, 97
1, 67914, Note_on_c, 0, 54, 0
1, 67915, Note_on_c, 0, 81, 0
1, 67915, Note_on_c, 0, 79, 86
1, 67915, Note_on_c, 0, 52, 97
1, 67974, Note_on_c, 0, 52, 0
1, 67974, Note_on_c, 0, 79, 0
1, 67974, Note_on_c, 0, 78, 86
1, 67975, Note_on_c, 0, 54, 97
1, 68032, Note_on_c, 0, 54, 0
1, 68033, Note_on_c, 0, 78, 0
1, 68033, Note_on_c, 0, 76, 86
1, 68033, Note_on_c, 0, 55, 97
1, 68090, Note_on_c, 0, 76, 0
1, 68090, Note_on_c, 0, 79, 86
1, 68090, Note_on_c, 0, 50, 97
1, 68148, Note_on_c, 0, 50, 0
1, 68148, Note_on_c, 0, 79, 0
1, 68148, Note_on_c, 0, 74, 92
1, 68149, Note_on_c, 0, 49, 97
1, 68205, Note_on_c, 0, 49, 0
1, 68205, Note_on_c, 0, 74, 0
1, 68206, Note_on_c, 0, 79, 86
1, 68207, Note_on_c, 0, 47, 97
1, 68263, Note_on_c, 0, 47, 0
1, 68263, Note_on_c, 0, 79, 0
1, 68264, Note_on_c, 0, 73, 92
1, 68264, Note_on_c, 0, 45, 97
1, 68320, Note_on_c, 0, 73, 0
1, 68321, Note_on_c, 0, 55, 0
1, 68321, Note_on_c, 0, 79, 86
1, 68322, Note_on_c, 0, 54, 97
1, 68377, Note_on_c, 0, 54, 0
1, 68377, Note_on_c, 0, 79, 0
1, 68378, Note_on_c, 0, 71, 92
1, 68378, Note_on_c, 0, 52, 97
1, 68435, Note_on_c, 0, 52, 0
1, 68435, Note_on_c, 0, 71, 0
1, 68436, Note_on_c, 0, 79, 86
1, 68436, Note_on_c, 0, 50, 97
1, 68492, Note_on_c, 0, 50, 0
1, 68493, Note_on_c, 0, 79, 0
1, 68493, Note_on_c, 0, 45, 0
1, 68494, Note_on_c, 0, 69, 92
1, 68494, Note_on_c, 0, 49, 97
1, 68550, Note_on_c, 0, 49, 0
1, 68550, Note_on_c, 0, 69, 0
1, 68551, Note_on_c, 0, 79, 86
1, 68551, Note_on_c, 0, 52, 97
1, 68607, Note_on_c, 0, 52, 0
1, 68608, Note_on_c, 0, 79, 0
1, 68608, Note_on_c, 0, 78, 86
1, 68609, Note_on_c, 0, 50, 97
1, 68666, Note_on_c, 0, 50, 0
1, 68666, Note_on_c, 0, 78, 0
1, 68667, Note_on_c, 0, 76, 86
1, 68667, Note_on_c, 0, 52, 97
1, 68724, Note_on_c, 0, 52, 0
1, 68725, Note_on_c, 0, 76, 0
1, 68725, Note_on_c, 0, 74, 92
1, 68726, Note_on_c, 0, 54, 97
1, 68782, Note_on_c, 0, 74, 0
1, 68783, Note_on_c, 0, 78, 86
1, 68783, Note_on_c, 0, 48, 97
1, 68840, Note_on_c, 0, 48, 0
1, 68840, Note_on_c, 0, 78, 0
1, 68841, Note_on_c, 0, 72, 92
1, 68841, Note_on_c, 0, 47, 97
1, 68897, Note_on_c, 0, 47, 0
1, 68898, Note_on_c, 0, 72, 0
1, 68898, Note_on_c, 0, 78, 86
1, 68899, Note_on_c, 0, 45, 97
1, 68955, Note_on_c, 0, 45, 0
1, 68955, Note_on_c, 0, 78, 0
1, 68956, Note_on_c, 0, 71, 92
1, 68956, Note_on_c, 0, 43, 97
1, 69012, Note_on_c, 0, 71, 0
1, 69013, Note_on_c, 0, 54, 0
1, 69013, Note_on_c, 0, 78, 86
1, 69014, Note_on_c, 0, 47, 97
1, 69069, Note_on_c, 0, 47, 0
1, 69070, Note_on_c, 0, 78, 0
1, 69070, Note_on_c, 0, 43, 0
1, 69071, Note_on_c, 0, 69, 92
1, 69071, Note_on_c, 0, 49, 97
1, 69127, Note_on_c, 0, 49, 0
1, 69127, Note_on_c, 0, 69, 0
1, 69128, Note_on_c, 0, 78, 86
1, 69128, Note_on_c, 0, 50, 97
1, 69184, Note_on_c, 0, 50, 0
1, 69185, Note_on_c, 0, 78, 0
1, 69185, Note_on_c, 0, 67, 97
1, 69186, Note_on_c, 0, 52, 97
1, 69242, Note_on_c, 0, 52, 0
1, 69242, Note_on_c, 0, 67, 0
1, 69243, Note_on_c, 0, 78, 86
1, 69243, Note_on_c, 0, 54, 97
1, 69300, Note_on_c, 0, 54, 0
1, 69301, Note_on_c, 0, 78, 0
1, 69301, Note_on_c, 0, 76, 86
1, 69302, Note_on_c, 0, 55, 97
1, 69359, Note_on_c, 0, 55, 0
1, 69360, Note_on_c, 0, 76, 0
1, 69360, Note_on_c, 0, 74, 92
1, 69360, Note_on_c, 0, 57, 97
1, 69417, Note_on_c, 0, 57, 0
1, 69417, Note_on_c, 0, 74, 0
1, 69418, Note_on_c, 0, 73, 92
1, 69418, Note_on_c, 0, 55, 97
1, 69474, Note_on_c, 0, 55, 0
1, 69475, Note_on_c, 0, 73, 0
1, 69475, Note_on_c, 0, 76, 86
1, 69476, Note_on_c, 0, 54, 97
1, 69532, Note_on_c, 0, 54, 0
1, 69532, Note_on_c, 0, 76, 0
1, 69533, Note_on_c, 0, 71, 92
1, 69533, Note_on_c, 0, 52, 97
1, 69589, Note_on_c, 0, 52, 0
1, 69590, Note_on_c, 0, 71, 0
1, 69590, Note_on_c, 0, 76, 86
1, 69591, Note_on_c, 0, 50, 97
1, 69647, Note_on_c, 0, 50, 0
1, 69648, Note_on_c, 0, 76, 0
1, 69648, Note_on_c, 0, 69, 92
1, 69648, Note_on_c, 0, 49, 97
1, 69704, Note_on_c, 0, 69, 0
1, 69704, Note_on_c, 0, 76, 86
1, 69705, Note_on_c, 0, 45, 97
1, 69761, Note_on_c, 0, 45, 0
1, 69762, Note_on_c, 0, 76, 0
1, 69762, Note_on_c, 0, 49, 0
1, 69763, Note_on_c, 0, 67, 97
1, 69763, Note_on_c, 0, 47, 97
1, 69819, Note_on_c, 0, 47, 0
1, 69819, Note_on_c, 0, 67, 0
1, 69820, Note_on_c, 0, 76, 86
1, 69820, Note_on_c, 0, 49, 97
1, 69877, Note_on_c, 0, 49, 0
1, 69878, Note_on_c, 0, 76, 0
1, 69878, Note_on_c, 0, 66, 97
1, 69879, Note_on_c, 0, 50, 97
1, 69936, Note_on_c, 0, 50, 0
1, 69936, Note_on_c, 0, 66, 0
1, 69937, Note_on_c, 0, 76, 86
1, 69937, Note_on_c, 0, 52, 97
1, 69995, Note_on_c, 0, 52, 0
1, 69995, Note_on_c, 0, 76, 0
1, 69996, Note_on_c, 0, 74, 92
1, 69996, Note_on_c, 0, 54, 97
1, 70052, Note_on_c, 0, 54, 0
1, 70053, Note_on_c, 0, 74, 0
1, 70053, Note_on_c, 0, 66, 97
1, 70054, Note_on_c, 0, 55, 97
1, 70109, Note_on_c, 0, 55, 0
1, 70109, Note_on_c, 0, 66, 0
1, 70110, Note_on_c, 0, 64, 97
1, 70110, Note_on_c, 0, 57, 97
1, 70166, Note_on_c, 0, 64, 0
1, 70167, Note_on_c, 0, 67, 97
1, 70224, Note_on_c, 0, 67, 0
1, 70224, Note_on_c, 0, 57, 0
1, 70225, Note_on_c, 0, 74, 94
1, 70225, Note_on_c, 0, 45, 97
1, 70282, Note_on_c, 0, 74, 0
1, 70282, Note_on_c, 0, 73, 94
1, 70340, Note_on_c, 0, 73, 0
1, 70340, Note_on_c, 0, 45, 0
1, 70341, Note_on_c, 0, 76, 82
1, 70341, Note_on_c, 0, 50, 97
1, 70363, Note_on_c, 0, 76, 0
1, 70364, Note_on_c, 0, 74, 88
1, 70389, Note_on_c, 0, 74, 0
1, 70390, Note_on_c, 0, 76, 82
1, 70416, Note_on_c, 0, 76, 0
1, 70416, Note_on_c, 0, 74, 88
1, 70440, Note_on_c, 0, 74, 0
1, 70440, Note_on_c, 0, 76, 82
1, 70464, Note_on_c, 0, 76, 0
1, 70465, Note_on_c, 0, 74, 88
1, 70475, Note_on_c, 0, 50, 0
1, 70476, Note_on_c, 0, 48, 97
1, 70488, Note_on_c, 0, 74, 0
1, 70488, Note_on_c, 0, 76, 82
1, 70515, Note_on_c, 0, 76, 0
1, 70515, Note_on_c, 0, 74, 88
1, 70540, Note_on_c, 0, 74, 0
1, 70540, Note_on_c, 0, 76, 82
1, 70545, Note_on_c, 0, 48, 0
1, 70546, Note_on_c, 0, 50, 97
1, 70565, Note_on_c, 0, 76, 0
1, 70565, Note_on_c, 0, 74, 88
1, 70591, Note_on_c, 0, 74, 0
1, 70592, Note_on_c, 0, 76, 82
1, 70615, Note_on_c, 0, 50, 0
1, 70616, Note_on_c, 0, 52, 97
1, 70618, Note_on_c, 0, 76, 0
1, 70618, Note_on_c, 0, 74, 88
1, 70642, Note_on_c, 0, 74, 0
1, 70642, Note_on_c, 0, 76, 82
1, 70667, Note_on_c, 0, 76, 0
1, 70667, Note_on_c, 0, 74, 88
1, 70683, Note_on_c, 0, 52, 0
1, 70684, Note_on_c, 0, 50, 97
1, 70692, Note_on_c, 0, 74, 0
1, 70693, Note_on_c, 0, 76, 82
1, 70719, Note_on_c, 0, 76, 0
1, 70719, Note_on_c, 0, 74, 88
1, 70744, Note_on_c, 0, 74, 0
1, 70745, Note_on_c, 0, 76, 82
1, 70754, Note_on_c, 0, 50, 0
1, 70755, Note_on_c, 0, 48, 97
1, 70769, Note_on_c, 0, 76, 0
1, 70770, Note_on_c, 0, 74, 88
1, 70793, Note_on_c, 0, 74, 0
1, 70793, Note_on_c, 0, 76, 82
1, 70814, Note_on_c, 0, 76, 0
1, 70815, Note_on_c, 0, 74, 88
1, 70837, Note_on_c, 0, 74, 0
1, 70837, Note_on_c, 0, 76, 82
1, 70859, Note_on_c, 0, 76, 0
1, 70859, Note_on_c, 0, 74, 88
1, 70879, Note_on_c, 0, 48, 0
1, 70880, Note_on_c, 0, 47, 97
1, 70883, Note_on_c, 0, 74, 0
1, 70883, Note_on_c, 0, 76, 82
1, 70907, Note_on_c, 0, 76, 0
1, 70907, Note_on_c, 0, 74, 88
1, 70930, Note_on_c, 0, 74, 0
1, 70930, Note_on_c, 0, 76, 82
1, 70943, Note_on_c, 0, 47, 0
1, 70943, Note_on_c, 0, 48, 97
1, 70953, Note_on_c, 0, 76, 0
1, 70954, Note_on_c, 0, 74, 88
1, 70976, Note_on_c, 0, 74, 0
1, 70976, Note_on_c, 0, 76, 82
1, 70999, Note_on_c, 0, 76, 0
1, 71000, Note_on_c, 0, 74, 88
1, 71007, Note_on_c, 0, 48, 0
1, 71007, Note_on_c, 0, 50, 97
1, 71026, Note_on_c, 0, 74, 0
1, 71027, Note_on_c, 0, 76, 82
1, 71051, Note_on_c, 0, 76, 0
1, 71051, Note_on_c, 0, 74, 88
1, 71073, Note_on_c, 0, 74, 0
1, 71074, Note_on_c, 0, 50, 0
1, 71074, Note_on_c, 0, 76, 82
1, 71075, Note_on_c, 0, 48, 97
1, 71096, Note_on_c, 0, 76, 0
1, 71096, Note_on_c, 0, 74, 88
1, 71117, Note_on_c, 0, 74, 0
1, 71118, Note_on_c, 0, 76, 82
1, 71134, Note_on_c, 0, 48, 0
1, 71134, Note_on_c, 0, 47, 97
1, 71139, Note_on_c, 0, 76, 0
1, 71139, Note_on_c, 0, 74, 88
1, 71165, Note_on_c, 0, 74, 0
1, 71166, Note_on_c, 0, 76, 82
1, 71191, Note_on_c, 0, 76, 0
1, 71192, Note_on_c, 0, 74, 88
1, 71204, Note_on_c, 0, 67, 97
1, 71218, Note_on_c, 0, 74, 0
1, 71219, Note_on_c, 0, 76, 82
1, 71241, Note_on_c, 0, 76, 0
1, 71242, Note_on_c, 0, 74, 88
1, 71264, Note_on_c, 0, 74, 0
1, 71265, Note_on_c, 0, 76, 82
1, 71269, Note_on_c, 0, 67, 0
1, 71269, Note_on_c, 0, 47, 0
1, 71270, Note_on_c, 0, 65, 97
1, 71270, Note_on_c, 0, 48, 97
1, 71289, Note_on_c, 0, 76, 0
1, 71290, Note_on_c, 0, 74, 88
1, 71311, Note_on_c, 0, 74, 0
1, 71312, Note_on_c, 0, 76, 82
1, 71332, Note_on_c, 0, 65, 0
1, 71333, Note_on_c, 0, 64, 97
1, 71334, Note_on_c, 0, 76, 0
1, 71335, Note_on_c, 0, 74, 88
1, 71358, Note_on_c, 0, 74, 0
1, 71359, Note_on_c, 0, 76, 82
1, 71382, Note_on_c, 0, 76, 0
1, 71383, Note_on_c, 0, 74, 88
1, 71398, Note_on_c, 0, 64, 0
1, 71398, Note_on_c, 0, 48, 0
1, 71399, Note_on_c, 0, 50, 97
1, 71399, Note_on_c, 0, 62, 97
1, 71406, Note_on_c, 0, 74, 0
1, 71407, Note_on_c, 0, 76, 82
1, 71429, Note_on_c, 0, 76, 0
1, 71430, Note_on_c, 0, 74, 88
1, 71453, Note_on_c, 0, 74, 0
1, 71454, Note_on_c, 0, 76, 82
1, 71462, Note_on_c, 0, 62, 0
1, 71462, Note_on_c, 0, 65, 97
1, 71477, Note_on_c, 0, 76, 0
1, 71478, Note_on_c, 0, 74, 88
1, 71500, Note_on_c, 0, 74, 0
1, 71501, Note_on_c, 0, 76, 82
1, 71523, Note_on_c, 0, 76, 0
1, 71524, Note_on_c, 0, 74, 88
1, 71525, Note_on_c, 0, 65, 0
1, 71526, Note_on_c, 0, 50, 0
1, 71526, Note_on_c, 0, 64, 97
1, 71527, Note_on_c, 0, 55, 97
1, 71544, Note_on_c, 0, 74, 0
1, 71545, Note_on_c, 0, 76, 82
1, 71566, Note_on_c, 0, 76, 0
1, 71566, Note_on_c, 0, 74, 88
1, 71584, Note_on_c, 0, 64, 0
1, 71584, Note_on_c, 0, 65, 97
1, 71624, Note_on_c, 0, 74, 0
1, 71641, Note_on_c, 0, 65, 0
1, 71642, Note_on_c, 0, 55, 0
1, 71642, Note_on_c, 0, 72, 92
1, 71643, Note_on_c, 0, 64, 97
1, 71643, Note_on_c, 0, 45, 97
1, 71700, Note_on_c, 0, 64, 0
1, 71700, Note_on_c, 0, 62, 97
1, 71758, Note_on_c, 0, 62, 0
1, 71758, Note_on_c, 0, 60, 97
1, 71815, Note_on_c, 0, 60, 0
1, 71816, Note_on_c, 0, 64, 97
1, 71874, Note_on_c, 0, 64, 0
1, 71874, Note_on_c, 0, 45, 0
1, 71875, Note_on_c, 0, 62, 97
1, 71875, Note_on_c, 0, 47, 97
1, 71931, Note_on_c, 0, 62, 0
1, 71932, Note_on_c, 0, 64, 97
1, 71990, Note_on_c, 0, 64, 0
1, 71990, Note_on_c, 0, 47, 0
1, 71991, Note_on_c, 0, 72, 0
1, 71991, Note_on_c, 0, 71, 92
1, 71992, Note_on_c, 0, 62, 97
1, 71992, Note_on_c, 0, 48, 97
1, 72048, Note_on_c, 0, 62, 0
1, 72049, Note_on_c, 0, 60, 97
1, 72107, Note_on_c, 0, 60, 0
1, 72108, Note_on_c, 0, 48, 0
1, 72108, Note_on_c, 0, 50, 97
1, 72108, Note_on_c, 0, 59, 97
1, 72167, Note_on_c, 0, 59, 0
1, 72167, Note_on_c, 0, 62, 97
1, 72225, Note_on_c, 0, 62, 0
1, 72226, Note_on_c, 0, 50, 0
1, 72226, Note_on_c, 0, 60, 97
1, 72227, Note_on_c, 0, 52, 97
1, 72284, Note_on_c, 0, 60, 0
1, 72284, Note_on_c, 0, 62, 97
1, 72343, Note_on_c, 0, 62, 0
1, 72344, Note_on_c, 0, 52, 0
1, 72344, Note_on_c, 0, 71, 0
1, 72345, Note_on_c, 0, 69, 92
1, 72345, Note_on_c, 0, 60, 97
1, 72346, Note_on_c, 0, 42, 97
1, 72402, Note_on_c, 0, 60, 0
1, 72402, Note_on_c, 0, 59, 97
1, 72461, Note_on_c, 0, 59, 0
1, 72461, Note_on_c, 0, 57, 97
1, 72517, Note_on_c, 0, 57, 0
1, 72517, Note_on_c, 0, 60, 97
1, 72575, Note_on_c, 0, 60, 0
1, 72576, Note_on_c, 0, 42, 0
1, 72576, Note_on_c, 0, 69, 0
1, 72576, Note_on_c, 0, 59, 97
1, 72576, Note_on_c, 0, 43, 97
1, 72632, Note_on_c, 0, 67, 97
1, 72690, Note_on_c, 0, 67, 0
1, 72691, Note_on_c, 0, 43, 0
1, 72691, Note_on_c, 0, 69, 92
1, 72691, Note_on_c, 0, 42, 97
1, 72747, Note_on_c, 0, 42, 0
1, 72748, Note_on_c, 0, 69, 0
1, 72749, Note_on_c, 0, 67, 97
1, 72749, Note_on_c, 0, 43, 97
1, 72805, Note_on_c, 0, 43, 0
1, 72806, Note_on_c, 0, 67, 0
1, 72806, Note_on_c, 0, 66, 97
1, 72807, Note_on_c, 0, 45, 97
1, 72864, Note_on_c, 0, 45, 0
1, 72864, Note_on_c, 0, 66, 0
1, 72865, Note_on_c, 0, 67, 97
1, 72865, Note_on_c, 0, 47, 97
1, 72922, Note_on_c, 0, 47, 0
1, 72922, Note_on_c, 0, 67, 0
1, 72923, Note_on_c, 0, 59, 0
1, 72923, Note_on_c, 0, 66, 97
1, 72924, Note_on_c, 0, 57, 97
1, 72924, Note_on_c, 0, 36, 97
1, 72982, Note_on_c, 0, 66, 0
1, 72983, Note_on_c, 0, 62, 97
1, 73020, Note_on_c, 0, 62, 0
1, 73020, Note_on_c, 0, 64, 97
1, 73058, Note_on_c, 0, 64, 0
1, 73058, Note_on_c, 0, 36, 0
1, 73059, Note_on_c, 0, 57, 0
1, 73059, Note_on_c, 0, 66, 97
1, 73060, Note_on_c, 0, 60, 97
1, 73118, Note_on_c, 0, 60, 0
1, 73119, Note_on_c, 0, 66, 0
1, 73119, Note_on_c, 0, 62, 97
1, 73120, Note_on_c, 0, 59, 97
1, 73178, Note_on_c, 0, 59, 0
1, 73178, Note_on_c, 0, 62, 0
1, 73179, Note_on_c, 0, 57, 97
1, 73179, Note_on_c, 0, 67, 97
1, 73237, Note_on_c, 0, 57, 0
1, 73238, Note_on_c, 0, 67, 0
1, 73238, Note_on_c, 0, 62, 97
1, 73239, Note_on_c, 0, 55, 97
1, 73297, Note_on_c, 0, 55, 0
1, 73297, Note_on_c, 0, 62, 0
1, 73298, Note_on_c, 0, 69, 92
1, 73298, Note_on_c, 0, 54, 97
1, 73356, Note_on_c, 0, 54, 0
1, 73357, Note_on_c, 0, 69, 0
1, 73357, Note_on_c, 0, 62, 97
1, 73358, Note_on_c, 0, 52, 97
1, 73416, Note_on_c, 0, 52, 0
1, 73416, Note_on_c, 0, 62, 0
1, 73417, Note_on_c, 0, 71, 92
1, 73417, Note_on_c, 0, 50, 97
1, 73475, Note_on_c, 0, 50, 0
1, 73475, Note_on_c, 0, 71, 0
1, 73476, Note_on_c, 0, 62, 97
1, 73476, Note_on_c, 0, 48, 97
1, 73533, Note_on_c, 0, 48, 0
1, 73534, Note_on_c, 0, 62, 0
1, 73534, Note_on_c, 0, 72, 92
1, 73535, Note_on_c, 0, 47, 97
1, 73592, Note_on_c, 0, 47, 0
1, 73592, Note_on_c, 0, 72, 0
1, 73593, Note_on_c, 0, 62, 97
1, 73593, Note_on_c, 0, 45, 97
1, 73649, Note_on_c, 0, 45, 0
1, 73650, Note_on_c, 0, 62, 0
1, 73650, Note_on_c, 0, 71, 92
1, 73651, Note_on_c, 0, 43, 97
1, 73706, Note_on_c, 0, 43, 0
1, 73706, Note_on_c, 0, 71, 0
1, 73707, Note_on_c, 0, 79, 86
1, 73707, Note_on_c, 0, 45, 97
1, 73762, Note_on_c, 0, 45, 0
1, 73762, Note_on_c, 0, 79, 0
1, 73763, Note_on_c, 0, 77, 86
1, 73763, Note_on_c, 0, 47, 97
1, 73818, Note_on_c, 0, 47, 0
1, 73819, Note_on_c, 0, 77, 0
1, 73819, Note_on_c, 0, 76, 86
1, 73820, Note_on_c, 0, 43, 97
1, 73875, Note_on_c, 0, 43, 0
1, 73875, Note_on_c, 0, 76, 0
1, 73876, Note_on_c, 0, 74, 92
1, 73876, Note_on_c, 0, 48, 97
1, 73931, Note_on_c, 0, 48, 0
1, 73931, Note_on_c, 0, 74, 0
1, 73932, Note_on_c, 0, 72, 92
1, 73932, Note_on_c, 0, 43, 97
1, 73987, Note_on_c, 0, 43, 0
1, 73988, Note_on_c, 0, 72, 0
1, 73988, Note_on_c, 0, 71, 92
1, 73989, Note_on_c, 0, 50, 97
1, 74044, Note_on_c, 0, 50, 0
1, 74044, Note_on_c, 0, 71, 0
1, 74045, Note_on_c, 0, 69, 92
1, 74045, Note_on_c, 0, 43, 97
1, 74100, Note_on_c, 0, 43, 0
1, 74101, Note_on_c, 0, 69, 0
1, 74101, Note_on_c, 0, 67, 97
1, 74102, Note_on_c, 0, 52, 97
1, 74158, Note_on_c, 0, 52, 0
1, 74159, Note_on_c, 0, 67, 0
1, 74159, Note_on_c, 0, 65, 97
1, 74160, Note_on_c, 0, 43, 97
1, 74215, Note_on_c, 0, 43, 0
1, 74215, Note_on_c, 0, 65, 0
1, 74216, Note_on_c, 0, 64, 97
1, 74216, Note_on_c, 0, 53, 97
1, 74272, Note_on_c, 0, 53, 0
1, 74273, Note_on_c, 0, 64, 0
1, 74273, Note_on_c, 0, 62, 97
1, 74274, Note_on_c, 0, 43, 97
1, 74329, Note_on_c, 0, 43, 0
1, 74329, Note_on_c, 0, 62, 0
1, 74330, Note_on_c, 0, 60, 97
1, 74330, Note_on_c, 0, 52, 97
1, 74387, Note_on_c, 0, 52, 0
1, 74387, Note_on_c, 0, 60, 0
1, 74388, Note_on_c, 0, 76, 86
1, 74388, Note_on_c, 0, 40, 97
1, 74415, Note_on_c, 0, 40, 0
1, 74416, Note_on_c, 0, 42, 97
1, 74444, Note_on_c, 0, 42, 0
1, 74445, Note_on_c, 0, 76, 0
1, 74445, Note_on_c, 0, 74, 92
1, 74446, Note_on_c, 0, 44, 97
1, 74502, Note_on_c, 0, 44, 0
1, 74502, Note_on_c, 0, 74, 0
1, 74503, Note_on_c, 0, 72, 92
1, 74503, Note_on_c, 0, 40, 97
1, 74558, Note_on_c, 0, 40, 0
1, 74559, Note_on_c, 0, 72, 0
1, 74559, Note_on_c, 0, 71, 92
1, 74560, Note_on_c, 0, 45, 97
1, 74615, Note_on_c, 0, 45, 0
1, 74616, Note_on_c, 0, 71, 0
1, 74616, Note_on_c, 0, 69, 92
1, 74616, Note_on_c, 0, 40, 97
1, 74672, Note_on_c, 0, 40, 0
1, 74672, Note_on_c, 0, 69, 0
1, 74673, Note_on_c, 0, 68, 92
1, 74673, Note_on_c, 0, 47, 97
1, 74728, Note_on_c, 0, 47, 0
1, 74729, Note_on_c, 0, 68, 0
1, 74729, Note_on_c, 0, 66, 97
1, 74730, Note_on_c, 0, 40, 97
1, 74786, Note_on_c, 0, 40, 0
1, 74786, Note_on_c, 0, 66, 0
1, 74787, Note_on_c, 0, 64, 97
1, 74787, Note_on_c, 0, 48, 97
1, 74844, Note_on_c, 0, 48, 0
1, 74844, Note_on_c, 0, 64, 0
1, 74844, Note_on_c, 0, 62, 97
1, 74845, Note_on_c, 0, 40, 97
1, 74902, Note_on_c, 0, 40, 0
1, 74902, Note_on_c, 0, 62, 0
1, 74902, Note_on_c, 0, 60, 97
1, 74903, Note_on_c, 0, 50, 97
1, 74959, Note_on_c, 0, 50, 0
1, 74959, Note_on_c, 0, 60, 0
1, 74960, Note_on_c, 0, 59, 97
1, 74960, Note_on_c, 0, 40, 97
1, 75017, Note_on_c, 0, 40, 0
1, 75017, Note_on_c, 0, 59, 0
1, 75018, Note_on_c, 0, 57, 97
1, 75018, Note_on_c, 0, 49, 97
1, 75074, Note_on_c, 0, 49, 0
1, 75075, Note_on_c, 0, 57, 0
1, 75075, Note_on_c, 0, 59, 97
1, 75076, Note_on_c, 0, 57, 97
1, 75132, Note_on_c, 0, 57, 0
1, 75132, Note_on_c, 0, 59, 0
1, 75133, Note_on_c, 0, 61, 97
1, 75133, Note_on_c, 0, 55, 97
1, 75189, Note_on_c, 0, 55, 0
1, 75190, Note_on_c, 0, 61, 0
1, 75191, Note_on_c, 0, 57, 97
1, 75191, Note_on_c, 0, 54, 97
1, 75247, Note_on_c, 0, 54, 0
1, 75248, Note_on_c, 0, 57, 0
1, 75248, Note_on_c, 0, 62, 97
1, 75248, Note_on_c, 0, 52, 97
1, 75304, Note_on_c, 0, 52, 0
1, 75304, Note_on_c, 0, 62, 0
1, 75305, Note_on_c, 0, 50, 97
1, 75305, Note_on_c, 0, 57, 97
1, 75360, Note_on_c, 0, 50, 0
1, 75361, Note_on_c, 0, 57, 0
1, 75361, Note_on_c, 0, 64, 97
1, 75362, Note_on_c, 0, 49, 97
1, 75417, Note_on_c, 0, 49, 0
1, 75418, Note_on_c, 0, 64, 0
1, 75418, Note_on_c, 0, 57, 97
1, 75419, Note_on_c, 0, 47, 97
1, 75475, Note_on_c, 0, 47, 0
1, 75475, Note_on_c, 0, 57, 0
1, 75476, Note_on_c, 0, 66, 97
1, 75476, Note_on_c, 0, 45, 97
1, 75531, Note_on_c, 0, 45, 0
1, 75532, Note_on_c, 0, 66, 0
1, 75532, Note_on_c, 0, 57, 97
1, 75533, Note_on_c, 0, 43, 97
1, 75588, Note_on_c, 0, 43, 0
1, 75588, Note_on_c, 0, 57, 0
1, 75589, Note_on_c, 0, 67, 97
1, 75589, Note_on_c, 0, 42, 97
1, 75645, Note_on_c, 0, 42, 0
1, 75645, Note_on_c, 0, 67, 0
1, 75646, Note_on_c, 0, 57, 97
1, 75646, Note_on_c, 0, 40, 97
1, 75701, Note_on_c, 0, 40, 0
1, 75702, Note_on_c, 0, 57, 0
1, 75702, Note_on_c, 0, 62, 97
1, 75703, Note_on_c, 0, 66, 97
1, 75703, Note_on_c, 0, 38, 97
1, 75812, Note_on_c, 0, 66, 0
1, 75812, Note_on_c, 0, 62, 0
1, 75813, Note_on_c, 0, 71, 92
1, 75813, Note_on_c, 0, 60, 97
1, 75865, Note_on_c, 0, 60, 0
1, 75866, Note_on_c, 0, 62, 97
1, 75921, Note_on_c, 0, 62, 0
1, 75922, Note_on_c, 0, 71, 0
1, 75922, Note_on_c, 0, 67, 97
1, 75923, Note_on_c, 0, 64, 97
1, 75976, Note_on_c, 0, 64, 0
1, 75976, Note_on_c, 0, 62, 97
1, 76031, Note_on_c, 0, 62, 0
1, 76031, Note_on_c, 0, 67, 0
1, 76032, Note_on_c, 0, 60, 97
1, 76032, Note_on_c, 0, 64, 97
1, 76141, Note_on_c, 0, 64, 0
1, 76141, Note_on_c, 0, 60, 0
1, 76142, Note_on_c, 0, 69, 92
1, 76142, Note_on_c, 0, 59, 97
1, 76197, Note_on_c, 0, 59, 0
1, 76197, Note_on_c, 0, 60, 97
1, 76253, Note_on_c, 0, 60, 0
1, 76254, Note_on_c, 0, 69, 0
1, 76254, Note_on_c, 0, 66, 97
1, 76255, Note_on_c, 0, 62, 97
1, 76311, Note_on_c, 0, 62, 0
1, 76311, Note_on_c, 0, 60, 97
1, 76368, Note_on_c, 0, 60, 0
1, 76368, Note_on_c, 0, 66, 0
1, 76368, Note_on_c, 0, 59, 97
1, 76369, Note_on_c, 0, 67, 97
1, 76425, Note_on_c, 0, 38, 0
1, 76426, Note_on_c, 0, 50, 97
1, 76483, Note_on_c, 0, 50, 0
1, 76483, Note_on_c, 0, 59, 0
1, 76484, Note_on_c, 0, 60, 97
1, 76484, Note_on_c, 0, 48, 97
1, 76539, Note_on_c, 0, 48, 0
1, 76540, Note_on_c, 0, 50, 97
1, 76596, Note_on_c, 0, 50, 0
1, 76596, Note_on_c, 0, 60, 0
1, 76597, Note_on_c, 0, 52, 97
1, 76597, Note_on_c, 0, 62, 97
1, 76654, Note_on_c, 0, 52, 0
1, 76654, Note_on_c, 0, 50, 97
1, 76710, Note_on_c, 0, 50, 0
1, 76711, Note_on_c, 0, 62, 0
1, 76711, Note_on_c, 0, 64, 97
1, 76712, Note_on_c, 0, 48, 97
1, 76767, Note_on_c, 0, 67, 0
1, 76767, Note_on_c, 0, 69, 92
1, 76815, Note_on_c, 0, 69, 0
1, 76817, Note_on_c, 0, 71, 92
1, 76824, Note_on_c, 0, 48, 0
1, 76825, Note_on_c, 0, 64, 0
1, 76825, Note_on_c, 0, 54, 97
1, 76826, Note_on_c, 0, 47, 97
1, 76838, Note_on_c, 0, 71, 0
1, 76838, Note_on_c, 0, 69, 92
1, 76864, Note_on_c, 0, 69, 0
1, 76864, Note_on_c, 0, 71, 92
1, 76891, Note_on_c, 0, 71, 0
1, 76891, Note_on_c, 0, 69, 92
1, 76893, Note_on_c, 0, 47, 0
1, 76893, Note_on_c, 0, 48, 97
1, 76917, Note_on_c, 0, 69, 0
1, 76917, Note_on_c, 0, 71, 92
1, 76943, Note_on_c, 0, 71, 0
1, 76943, Note_on_c, 0, 69, 92
1, 76960, Note_on_c, 0, 48, 0
1, 76960, Note_on_c, 0, 50, 97
1, 77016, Note_on_c, 0, 50, 0
1, 77016, Note_on_c, 0, 69, 0
1, 77016, Note_on_c, 0, 67, 97
1, 77017, Note_on_c, 0, 48, 97
1, 77051, Note_on_c, 0, 67, 0
1, 77052, Note_on_c, 0, 69, 92
1, 77087, Note_on_c, 0, 69, 0
1, 77087, Note_on_c, 0, 48, 0
1, 77088, Note_on_c, 0, 54, 0
1, 77088, Note_on_c, 0, 71, 92
1, 77088, Note_on_c, 0, 55, 97
1, 77089, Note_on_c, 0, 47, 97
1, 77198, Note_on_c, 0, 47, 0
1, 77198, Note_on_c, 0, 55, 0
1, 77199, Note_on_c, 0, 71, 0
1, 77199, Note_on_c, 0, 72, 92
1, 77200, Note_on_c, 0, 69, 92
1, 77200, Note_on_c, 0, 45, 97
1, 77254, Note_on_c, 0, 45, 0
1, 77255, Note_on_c, 0, 69, 0
1, 77255, Note_on_c, 0, 72, 0
1, 77255, Note_on_c, 0, 71, 92
1, 77256, Note_on_c, 0, 67, 97
1, 77256, Note_on_c, 0, 47, 97
1, 77309, Note_on_c, 0, 47, 0
1, 77310, Note_on_c, 0, 67, 0
1, 77311, Note_on_c, 0, 71, 0
1, 77311, Note_on_c, 0, 69, 92
1, 77311, Note_on_c, 0, 66, 97
1, 77312, Note_on_c, 0, 48, 97
1, 77365, Note_on_c, 0, 48, 0
1, 77365, Note_on_c, 0, 66, 0
1, 77366, Note_on_c, 0, 69, 0
1, 77366, Note_on_c, 0, 71, 92
1, 77367, Note_on_c, 0, 67, 97
1, 77367, Note_on_c, 0, 47, 97
1, 77420, Note_on_c, 0, 47, 0
1, 77420, Note_on_c, 0, 67, 0
1, 77421, Note_on_c, 0, 71, 0
1, 77421, Note_on_c, 0, 72, 92
1, 77422, Note_on_c, 0, 69, 92
1, 77422, Note_on_c, 0, 45, 97
1, 77531, Note_on_c, 0, 45, 0
1, 77531, Note_on_c, 0, 69, 0
1, 77531, Note_on_c, 0, 72, 0
1, 77532, Note_on_c, 0, 74, 92
1, 77532, Note_on_c, 0, 71, 92
1, 77532, Note_on_c, 0, 43, 97
1, 77585, Note_on_c, 0, 43, 0
1, 77586, Note_on_c, 0, 71, 0
1, 77586, Note_on_c, 0, 74, 0
1, 77587, Note_on_c, 0, 72, 92
1, 77587, Note_on_c, 0, 69, 92
1, 77587, Note_on_c, 0, 45, 97
1, 77640, Note_on_c, 0, 45, 0
1, 77640, Note_on_c, 0, 69, 0
1, 77641, Note_on_c, 0, 72, 0
1, 77641, Note_on_c, 0, 71, 92
1, 77642, Note_on_c, 0, 67, 97
1, 77642, Note_on_c, 0, 47, 97
1, 77696, Note_on_c, 0, 47, 0
1, 77696, Note_on_c, 0, 67, 0
1, 77697, Note_on_c, 0, 71, 0
1, 77697, Note_on_c, 0, 72, 92
1, 77697, Note_on_c, 0, 69, 92
1, 77698, Note_on_c, 0, 45, 97
1, 77751, Note_on_c, 0, 45, 0
1, 77752, Note_on_c, 0, 69, 0
1, 77752, Note_on_c, 0, 72, 0
1, 77753, Note_on_c, 0, 71, 92
1, 77753, Note_on_c, 0, 74, 92
1, 77753, Note_on_c, 0, 43, 97
1, 77808, Note_on_c, 0, 43, 0
1, 77808, Note_on_c, 0, 55, 97
1, 77840, Note_on_c, 0, 55, 0
1, 77840, Note_on_c, 0, 54, 97
1, 77870, Note_on_c, 0, 54, 0
1, 77871, Note_on_c, 0, 74, 0
1, 77871, Note_on_c, 0, 71, 0
1, 77872, Note_on_c, 0, 72, 92
1, 77872, Note_on_c, 0, 69, 92
1, 77873, Note_on_c, 0, 52, 97
1, 77927, Note_on_c, 0, 52, 0
1, 77928, Note_on_c, 0, 55, 97
1, 77984, Note_on_c, 0, 55, 0
1, 77984, Note_on_c, 0, 69, 0
1, 77985, Note_on_c, 0, 72, 0
1, 77985, Note_on_c, 0, 71, 92
1, 77986, Note_on_c, 0, 50, 97
1, 77986, Note_on_c, 0, 67, 97
1, 78039, Note_on_c, 0, 50, 0
1, 78040, Note_on_c, 0, 55, 97
1, 78095, Note_on_c, 0, 55, 0
1, 78096, Note_on_c, 0, 71, 0
1, 78096, Note_on_c, 0, 69, 92
1, 78096, Note_on_c, 0, 49, 97
1, 78151, Note_on_c, 0, 49, 0
1, 78151, Note_on_c, 0, 55, 97
1, 78207, Note_on_c, 0, 55, 0
1, 78208, Note_on_c, 0, 69, 0
1, 78208, Note_on_c, 0, 67, 0
1, 78209, Note_on_c, 0, 74, 92
1, 78209, Note_on_c, 0, 79, 86
1, 78210, Note_on_c, 0, 47, 97
1, 78263, Note_on_c, 0, 47, 0
1, 78264, Note_on_c, 0, 55, 97
1, 78319, Note_on_c, 0, 55, 0
1, 78319, Note_on_c, 0, 74, 0
1, 78320, Note_on_c, 0, 73, 92
1, 78320, Note_on_c, 0, 45, 97
1, 78374, Note_on_c, 0, 45, 0
1, 78375, Note_on_c, 0, 55, 97
1, 78430, Note_on_c, 0, 55, 0
1, 78431, Note_on_c, 0, 73, 0
1, 78431, Note_on_c, 0, 79, 0
1, 78432, Note_on_c, 0, 74, 92
1, 78432, Note_on_c, 0, 78, 86
1, 78432, Note_on_c, 0, 50, 97
1, 78486, Note_on_c, 0, 50, 0
1, 78486, Note_on_c, 0, 48, 97
1, 78541, Note_on_c, 0, 48, 0
1, 78542, Note_on_c, 0, 78, 0
1, 78542, Note_on_c, 0, 74, 0
1, 78543, Note_on_c, 0, 76, 86
1, 78543, Note_on_c, 0, 67, 97
1, 78544, Note_on_c, 0, 46, 97
1, 78598, Note_on_c, 0, 46, 0
1, 78599, Note_on_c, 0, 50, 97
1, 78654, Note_on_c, 0, 50, 0
1, 78654, Note_on_c, 0, 67, 0
1, 78655, Note_on_c, 0, 76, 0
1, 78655, Note_on_c, 0, 74, 92
1, 78656, Note_on_c, 0, 66, 97
1, 78656, Note_on_c, 0, 45, 97
1, 78710, Note_on_c, 0, 45, 0
1, 78711, Note_on_c, 0, 50, 97
1, 78767, Note_on_c, 0, 50, 0
1, 78768, Note_on_c, 0, 66, 0
1, 78768, Note_on_c, 0, 74, 0
1, 78768, Note_on_c, 0, 73, 92
1, 78769, Note_on_c, 0, 64, 97
1, 78769, Note_on_c, 0, 43, 97
1, 78824, Note_on_c, 0, 43, 0
1, 78824, Note_on_c, 0, 52, 97
1, 78878, Note_on_c, 0, 52, 0
1, 78879, Note_on_c, 0, 64, 0
1, 78879, Note_on_c, 0, 73, 0
1, 78880, Note_on_c, 0, 73, 92
1, 78880, Note_on_c, 0, 82, 86
1, 78881, Note_on_c, 0, 42, 97
1, 78934, Note_on_c, 0, 42, 0
1, 78935, Note_on_c, 0, 52, 97
1, 78989, Note_on_c, 0, 52, 0
1, 78989, Note_on_c, 0, 40, 97
1, 79044, Note_on_c, 0, 40, 0
1, 79044, Note_on_c, 0, 52, 97
1, 79098, Note_on_c, 0, 52, 0
1, 79099, Note_on_c, 0, 82, 0
1, 79099, Note_on_c, 0, 73, 0
1, 79100, Note_on_c, 0, 72, 92
1, 79100, Note_on_c, 0, 81, 86
1, 79101, Note_on_c, 0, 42, 97
1, 79155, Note_on_c, 0, 81, 0
1, 79155, Note_on_c, 0, 79, 86
1, 79212, Note_on_c, 0, 79, 0
1, 79212, Note_on_c, 0, 42, 0
1, 79212, Note_on_c, 0, 78, 86
1, 79213, Note_on_c, 0, 38, 97
1, 79268, Note_on_c, 0, 78, 0
1, 79269, Note_on_c, 0, 76, 86
1, 79324, Note_on_c, 0, 76, 0
1, 79324, Note_on_c, 0, 38, 0
1, 79325, Note_on_c, 0, 72, 0
1, 79325, Note_on_c, 0, 74, 92
1, 79326, Note_on_c, 0, 43, 97
1, 79380, Note_on_c, 0, 71, 92
1, 79414, Note_on_c, 0, 71, 0
1, 79415, Note_on_c, 0, 69, 92
1, 79448, Note_on_c, 0, 69, 0
1, 79448, Note_on_c, 0, 43, 0
1, 79449, Note_on_c, 0, 74, 0
1, 79449, Note_on_c, 0, 71, 92
1, 79450, Note_on_c, 0, 40, 97
1, 79505, Note_on_c, 0, 79, 86
1, 79562, Note_on_c, 0, 40, 0
1, 79563, Note_on_c, 0, 71, 0
1, 79563, Note_on_c, 0, 69, 92
1, 79563, Note_on_c, 0, 36, 97
1, 79619, Note_on_c, 0, 79, 0
1, 79619, Note_on_c, 0, 72, 92
1, 79676, Note_on_c, 0, 72, 0
1, 79676, Note_on_c, 0, 36, 0
1, 79677, Note_on_c, 0, 79, 86
1, 79677, Note_on_c, 0, 38, 97
1, 79733, Note_on_c, 0, 79, 0
1, 79734, Note_on_c, 0, 78, 86
1, 79790, Note_on_c, 0, 78, 0
1, 79790, Note_on_c, 0, 38, 0
1, 79790, Note_on_c, 0, 69, 0
1, 79791, Note_on_c, 0, 71, 92
1, 79791, Note_on_c, 0, 79, 86
1, 79792, Note_on_c, 0, 43, 97
1, 79848, Note_on_c, 0, 79, 0
1, 79848, Note_on_c, 0, 78, 86
1, 79882, Note_on_c, 0, 78, 0
1, 79883, Note_on_c, 0, 76, 86
1, 79908, Note_on_c, 0, 71, 0
1, 79918, Note_on_c, 0, 76, 0
1, 79918, Note_on_c, 0, 74, 92
1, 79919, Note_on_c, 0, 71, 92
1, 79977, Note_on_c, 0, 74, 0
1, 79978, Note_on_c, 0, 79, 86
1, 80035, Note_on_c, 0, 79, 0
1, 80035, Note_on_c, 0, 71, 0
1, 80036, Note_on_c, 0, 72, 92
1, 80036, Note_on_c, 0, 69, 92
1, 80092, Note_on_c, 0, 72, 0
1, 80093, Note_on_c, 0, 79, 86
1, 80151, Note_on_c, 0, 79, 0
1, 80151, Note_on_c, 0, 69, 0
1, 80152, Note_on_c, 0, 43, 0
1, 80152, Note_on_c, 0, 71, 92
1, 80153, Note_on_c, 0, 67, 97
1, 80213, Note_on_c, 0, 43, 97
1, 80250, Note_on_c, 0, 43, 0
1, 80250, Note_on_c, 0, 45, 97
1, 80281, Note_on_c, 0, 45, 0
1, 80282, Note_on_c, 0, 71, 0
1, 80282, Note_on_c, 0, 79, 86
1, 80283, Note_on_c, 0, 47, 97
1, 80339, Note_on_c, 0, 47, 0
1, 80340, Note_on_c, 0, 43, 97
1, 80399, Note_on_c, 0, 43, 0
1, 80399, Note_on_c, 0, 79, 0
1, 80400, Note_on_c, 0, 67, 0
1, 80400, Note_on_c, 0, 69, 92
1, 80400, Note_on_c, 0, 66, 97
1, 80401, Note_on_c, 0, 48, 97
1, 80457, Note_on_c, 0, 48, 0
1, 80458, Note_on_c, 0, 43, 97
1, 80517, Note_on_c, 0, 66, 0
1, 80517, Note_on_c, 0, 69, 0
1, 80518, Note_on_c, 0, 71, 92
1, 80518, Note_on_c, 0, 67, 97
1, 80519, Note_on_c, 0, 50, 97
1, 80576, Note_on_c, 0, 71, 0
1, 80577, Note_on_c, 0, 74, 92
1, 80609, Note_on_c, 0, 74, 0
1, 80609, Note_on_c, 0, 72, 92
1, 80633, Note_on_c, 0, 43, 0
1, 80645, Note_on_c, 0, 72, 0
1, 80646, Note_on_c, 0, 67, 0
1, 80646, Note_on_c, 0, 50, 0
1, 80647, Note_on_c, 0, 71, 92
1, 80647, Note_on_c, 0, 67, 97
1, 80648, Note_on_c, 0, 43, 97
1, 80706, Note_on_c, 0, 71, 0
1, 80706, Note_on_c, 0, 74, 92
1, 80765, Note_on_c, 0, 74, 0
1, 80766, Note_on_c, 0, 67, 0
1, 80766, Note_on_c, 0, 69, 92
1, 80767, Note_on_c, 0, 65, 97
1, 80767, Note_on_c, 0, 47, 97
1, 80824, Note_on_c, 0, 69, 0
1, 80824, Note_on_c, 0, 74, 92
1, 80882, Note_on_c, 0, 74, 0
1, 80883, Note_on_c, 0, 47, 0
1, 80883, Note_on_c, 0, 65, 0
1, 80884, Note_on_c, 0, 64, 97
1, 80884, Note_on_c, 0, 67, 97
1, 80885, Note_on_c, 0, 48, 97
1, 80913, Note_on_c, 0, 48, 0
1, 80914, Note_on_c, 0, 47, 97
1, 80950, Note_on_c, 0, 47, 0
1, 80950, Note_on_c, 0, 48, 97
1, 80986, Note_on_c, 0, 48, 0
1, 80987, Note_on_c, 0, 50, 97
1, 81021, Note_on_c, 0, 50, 0
1, 81021, Note_on_c, 0, 67, 0
1, 81022, Note_on_c, 0, 72, 92
1, 81022, Note_on_c, 0, 52, 97
1, 81082, Note_on_c, 0, 52, 0
1, 81083, Note_on_c, 0, 48, 97
1, 81144, Note_on_c, 0, 48, 0
1, 81144, Note_on_c, 0, 64, 0
1, 81144, Note_on_c, 0, 54, 97
1, 81145, Note_on_c, 0, 63, 97
1, 81203, Note_on_c, 0, 54, 0
1, 81204, Note_on_c, 0, 48, 97
1, 81263, Note_on_c, 0, 48, 0
1, 81263, Note_on_c, 0, 63, 0
1, 81264, Note_on_c, 0, 55, 97
1, 81264, Note_on_c, 0, 62, 97
1, 81294, Note_on_c, 0, 67, 97
1, 81329, Note_on_c, 0, 67, 0
1, 81329, Note_on_c, 0, 72, 0
1, 81330, Note_on_c, 0, 69, 92
1, 81365, Note_on_c, 0, 69, 0
1, 81366, Note_on_c, 0, 71, 92
1, 81402, Note_on_c, 0, 71, 0
1, 81402, Note_on_c, 0, 62, 0
1, 81403, Note_on_c, 0, 72, 92
1, 81403, Note_on_c, 0, 64, 97
1, 81467, Note_on_c, 0, 72, 0
1, 81468, Note_on_c, 0, 67, 97
1, 81531, Note_on_c, 0, 67, 0
1, 81532, Note_on_c, 0, 64, 0
1, 81532, Note_on_c, 0, 74, 92
1, 81533, Note_on_c, 0, 71, 92
1, 81533, Note_on_c, 0, 65, 97
1, 81597, Note_on_c, 0, 74, 0
1, 81597, Note_on_c, 0, 67, 97
1, 81663, Note_on_c, 0, 67, 0
1, 81663, Note_on_c, 0, 65, 0
1, 81664, Note_on_c, 0, 71, 0
1, 81664, Note_on_c, 0, 72, 92
1, 81665, Note_on_c, 0, 76, 86
1, 81665, Note_on_c, 0, 67, 97
1, 81697, Note_on_c, 0, 76, 0
1, 81698, Note_on_c, 0, 71, 92
1, 81735, Note_on_c, 0, 72, 0
1, 81741, Note_on_c, 0, 71, 0
1, 81741, Note_on_c, 0, 72, 92
1, 81789, Note_on_c, 0, 72, 0
1, 81789, Note_on_c, 0, 74, 92
1, 81836, Note_on_c, 0, 74, 0
1, 81836, Note_on_c, 0, 67, 0
1, 81837, Note_on_c, 0, 76, 86
1, 81837, Note_on_c, 0, 67, 97
1, 81928, Note_on_c, 0, 76, 0
1, 81929, Note_on_c, 0, 72, 92
1, 82032, Note_on_c, 0, 72, 0
1, 82032, Note_on_c, 0, 67, 0
1, 82032, Note_on_c, 0, 78, 86
1, 82033, Note_on_c, 0, 69, 92
1, 82152, Note_on_c, 0, 78, 0
1, 82152, Note_on_c, 0, 72, 92
1, 82306, Note_on_c, 0, 72, 0
1, 82306, Note_on_c, 0, 69, 0
1, 82307, Note_on_c, 0, 79, 86
1, 82307, Note_on_c, 0, 71, 92
1, 82447, Note_on_c, 0, 74, 92
1, 82589, Note_on_c, 0, 74, 0
1, 82589, Note_on_c, 0, 76, 86
1, 82758, Note_on_c, 0, 76, 0
1, 82758, Note_on_c, 0, 72, 92
1, 82933, Note_on_c, 0, 71, 0
1, 82934, Note_on_c, 0, 69, 92
1, 83115, Note_on_c, 0, 79, 0
1, 83115, Note_on_c, 0, 78, 86
1, 83412, Note_on_c, 0, 78, 0
1, 83412, Note_on_c, 0, 72, 0
1, 83416, Note_on_c, 0, 74, 86
1, 83417, Note_on_c, 0, 71, 86
1, 83417, Note_on_c, 0, 79, 86
1, 83424, Note_on_c, 0, 69, 0
1, 84457, Note_on_c, 0, 79, 0
1, 84458, Note_on_c, 0, 74, 0
1, 84458, Note_on_c, 0, 71, 0
1, 84595, Note_on_c, 0, 55, 0
1, 84595, Note_on_c, 0, 43, 0
1, 84595, End_track
0, 0, End_of_file
