0, 0, Header, 0, 1, 240
1, 0, Start_track
1, 0, Title_t, "--------"
1, 0, Time_signature, 1, 2, 24, 8
1, 0, Key_signature, 0, "major"
1, 0, Tempo, 500000
1, 0, Program_c, 0, 6
1, 0, Control_c, 0, 7, 105
1, 0, Control_c, 0, 10, 76
1, 0, Program_c, 0, 6
1, 0, Control_c, 0, 7, 105
1, 0, Control_c, 0, 10, 63
1, 0, Program_c, 0, 6
1, 0, Control_c, 0, 7, 110
1, 0, Control_c, 0, 10, 51
1, 48, Marker_t, "JSBach's 'Chromatic' Fantasy & Fugue  bwv903"
1, 2952, Marker_t, "interpreted by/Copyright (P) 1997 S.D.Rodrian"
1, 3240, Note_on_c, 0, 74, 107
1, 3240, Note_on_c, 0, 62, 110
1, 3288, Note_on_c, 0, 74, 0
1, 3293, Note_on_c, 0, 64, 110
1, 3294, Note_on_c, 0, 62, 0
1, 3295, Note_on_c, 0, 76, 107
1, 3333, Note_on_c, 0, 64, 0
1, 3334, Note_on_c, 0, 76, 0
1, 3338, Note_on_c, 0, 77, 107
1, 3339, Note_on_c, 0, 65, 110
1, 3372, Note_on_c, 0, 65, 0
1, 3375, Note_on_c, 0, 77, 0
1, 3378, Note_on_c, 0, 67, 110
1, 3380, Note_on_c, 0, 79, 107
1, 3415, Note_on_c, 0, 79, 0
1, 3417, Note_on_c, 0, 67, 0
1, 3419, Note_on_c, 0, 69, 107
1, 3420, Note_on_c, 0, 81, 107
1, 3452, Note_on_c, 0, 69, 0
1, 3453, Note_on_c, 0, 81, 0
1, 3458, Note_on_c, 0, 83, 107
1, 3459, Note_on_c, 0, 71, 107
1, 3490, Note_on_c, 0, 71, 0
1, 3493, Note_on_c, 0, 83, 0
1, 3498, Note_on_c, 0, 73, 107
1, 3500, Note_on_c, 0, 85, 107
1, 3530, Note_on_c, 0, 85, 0
1, 3534, Note_on_c, 0, 73, 0
1, 3538, Note_on_c, 0, 86, 107
1, 3540, Note_on_c, 0, 74, 107
1, 3566, Note_on_c, 0, 74, 0
1, 3570, Note_on_c, 0, 86, 0
1, 3576, Note_on_c, 0, 84, 107
1, 3577, Note_on_c, 0, 72, 107
1, 3606, Note_on_c, 0, 72, 0
1, 3610, Note_on_c, 0, 84, 0
1, 3614, Note_on_c, 0, 70, 107
1, 3615, Note_on_c, 0, 82, 107
1, 3648, Note_on_c, 0, 82, 0
1, 3651, Note_on_c, 0, 70, 0
1, 3652, Note_on_c, 0, 81, 107
1, 3653, Note_on_c, 0, 69, 107
1, 3681, Note_on_c, 0, 81, 0
1, 3683, Note_on_c, 0, 69, 0
1, 3688, Note_on_c, 0, 79, 107
1, 3689, Note_on_c, 0, 67, 110
1, 3719, Note_on_c, 0, 67, 0
1, 3722, Note_on_c, 0, 79, 0
1, 3725, Note_on_c, 0, 77, 107
1, 3726, Note_on_c, 0, 65, 110
1, 3756, Note_on_c, 0, 65, 0
1, 3758, Note_on_c, 0, 77, 0
1, 3763, Note_on_c, 0, 76, 107
1, 3764, Note_on_c, 0, 64, 110
1, 3797, Note_on_c, 0, 76, 0
1, 3798, Note_on_c, 0, 64, 0
1, 3801, Note_on_c, 0, 62, 110
1, 3803, Note_on_c, 0, 74, 107
1, 3831, Note_on_c, 0, 74, 0
1, 3834, Note_on_c, 0, 62, 0
1, 3838, Note_on_c, 0, 73, 107
1, 3839, Note_on_c, 0, 61, 110
1, 3869, Note_on_c, 0, 61, 0
1, 3871, Note_on_c, 0, 73, 0
1, 3876, Note_on_c, 0, 74, 107
1, 3876, Note_on_c, 0, 62, 110
1, 3907, Note_on_c, 0, 62, 0
1, 3910, Note_on_c, 0, 74, 0
1, 3913, Note_on_c, 0, 76, 107
1, 3914, Note_on_c, 0, 64, 110
1, 3944, Note_on_c, 0, 64, 0
1, 3945, Note_on_c, 0, 76, 0
1, 3950, Note_on_c, 0, 77, 107
1, 3951, Note_on_c, 0, 65, 110
1, 3989, Note_on_c, 0, 65, 0
1, 3990, Note_on_c, 0, 77, 0
1, 3994, Note_on_c, 0, 79, 107
1, 3995, Note_on_c, 0, 67, 110
1, 4034, Note_on_c, 0, 79, 0
1, 4034, Note_on_c, 0, 81, 107
1, 4036, Note_on_c, 0, 67, 0
1, 4036, Note_on_c, 0, 69, 107
1, 4077, Note_on_c, 0, 69, 0
1, 4078, Note_on_c, 0, 81, 0
1, 4086, Note_on_c, 0, 82, 107
1, 4087, Note_on_c, 0, 70, 107
1, 4164, Note_on_c, 0, 70, 0
1, 4166, Note_on_c, 0, 82, 0
1, 4172, Note_on_c, 0, 88, 107
1, 4172, Note_on_c, 0, 76, 107
1, 4436, Note_on_c, 0, 88, 0
1, 4440, Note_on_c, 0, 76, 0
1, 4489, Note_on_c, 0, 69, 114
1, 4536, Note_on_c, 0, 69, 0
1, 4541, Note_on_c, 0, 71, 114
1, 4583, Note_on_c, 0, 71, 0
1, 4585, Note_on_c, 0, 73, 114
1, 4620, Note_on_c, 0, 73, 0
1, 4624, Note_on_c, 0, 74, 114
1, 4654, Note_on_c, 0, 74, 0
1, 4658, Note_on_c, 0, 76, 114
1, 4687, Note_on_c, 0, 76, 0
1, 4694, Note_on_c, 0, 77, 114
1, 4726, Note_on_c, 0, 77, 0
1, 4731, Note_on_c, 0, 79, 114
1, 4762, Note_on_c, 0, 79, 0
1, 4765, Note_on_c, 0, 77, 114
1, 4794, Note_on_c, 0, 77, 0
1, 4797, Note_on_c, 0, 76, 114
1, 4831, Note_on_c, 0, 76, 0
1, 4831, Note_on_c, 0, 74, 114
1, 4858, Note_on_c, 0, 74, 0
1, 4866, Note_on_c, 0, 73, 114
1, 4908, Note_on_c, 0, 73, 0
1, 4911, Note_on_c, 0, 71, 114
1, 4961, Note_on_c, 0, 71, 0
1, 4964, Note_on_c, 0, 69, 114
1, 4999, Note_on_c, 0, 67, 117
1, 5042, Note_on_c, 0, 69, 0
1, 5042, Note_on_c, 0, 65, 117
1, 5070, Note_on_c, 0, 67, 0
1, 5077, Note_on_c, 0, 64, 117
1, 5120, Note_on_c, 0, 65, 0
1, 5125, Note_on_c, 0, 62, 117
1, 5154, Note_on_c, 0, 64, 0
1, 5183, Note_on_c, 0, 64, 117
1, 5186, Note_on_c, 0, 62, 0
1, 5228, Note_on_c, 0, 64, 0
1, 5232, Note_on_c, 0, 65, 117
1, 5274, Note_on_c, 0, 65, 0
1, 5275, Note_on_c, 0, 69, 114
1, 5312, Note_on_c, 0, 69, 0
1, 5314, Note_on_c, 0, 73, 114
1, 5357, Note_on_c, 0, 73, 0
1, 5363, Note_on_c, 0, 74, 114
1, 5441, Note_on_c, 0, 74, 0
1, 5453, Note_on_c, 0, 77, 114
1, 5928, Note_on_c, 0, 77, 0
1, 5990, Note_on_c, 0, 62, 110
1, 5991, Note_on_c, 0, 74, 107
1, 6048, Note_on_c, 0, 74, 107
1, 6049, Note_on_c, 0, 86, 107
1, 6092, Note_on_c, 0, 86, 0
1, 6093, Note_on_c, 0, 74, 0
1, 6107, Note_on_c, 0, 77, 107
1, 6108, Note_on_c, 0, 89, 107
1, 6142, Note_on_c, 0, 62, 0
1, 6143, Note_on_c, 0, 74, 0
1, 6153, Note_on_c, 0, 77, 0
1, 6154, Note_on_c, 0, 89, 0
1, 6165, Note_on_c, 0, 76, 107
1, 6166, Note_on_c, 0, 64, 110
1, 6226, Note_on_c, 0, 74, 107
1, 6227, Note_on_c, 0, 86, 107
1, 6268, Note_on_c, 0, 86, 0
1, 6272, Note_on_c, 0, 74, 0
1, 6280, Note_on_c, 0, 79, 107
1, 6283, Note_on_c, 0, 91, 107
1, 6315, Note_on_c, 0, 64, 0
1, 6320, Note_on_c, 0, 76, 0
1, 6327, Note_on_c, 0, 91, 0
1, 6334, Note_on_c, 0, 79, 0
1, 6338, Note_on_c, 0, 77, 107
1, 6340, Note_on_c, 0, 65, 110
1, 6396, Note_on_c, 0, 74, 107
1, 6397, Note_on_c, 0, 86, 107
1, 6438, Note_on_c, 0, 86, 0
1, 6442, Note_on_c, 0, 74, 0
1, 6450, Note_on_c, 0, 81, 107
1, 6451, Note_on_c, 0, 93, 107
1, 6482, Note_on_c, 0, 65, 0
1, 6490, Note_on_c, 0, 77, 0
1, 6495, Note_on_c, 0, 93, 0
1, 6498, Note_on_c, 0, 81, 0
1, 6508, Note_on_c, 0, 67, 110
1, 6509, Note_on_c, 0, 79, 107
1, 6561, Note_on_c, 0, 74, 107
1, 6562, Note_on_c, 0, 86, 107
1, 6599, Note_on_c, 0, 86, 0
1, 6600, Note_on_c, 0, 74, 0
1, 6611, Note_on_c, 0, 94, 107
1, 6612, Note_on_c, 0, 82, 107
1, 6643, Note_on_c, 0, 79, 0
1, 6644, Note_on_c, 0, 67, 0
1, 6651, Note_on_c, 0, 82, 0
1, 6655, Note_on_c, 0, 94, 0
1, 6663, Note_on_c, 0, 69, 107
1, 6667, Note_on_c, 0, 81, 107
1, 6699, Note_on_c, 0, 81, 0
1, 6706, Note_on_c, 0, 69, 0
1, 6718, Note_on_c, 0, 73, 107
1, 6720, Note_on_c, 0, 85, 107
1, 6761, Note_on_c, 0, 85, 0
1, 6764, Note_on_c, 0, 73, 0
1, 6771, Note_on_c, 0, 76, 107
1, 6772, Note_on_c, 0, 88, 107
1, 6814, Note_on_c, 0, 88, 0
1, 6814, Note_on_c, 0, 76, 0
1, 6821, Note_on_c, 0, 91, 107
1, 6822, Note_on_c, 0, 79, 107
1, 6861, Note_on_c, 0, 79, 0
1, 6863, Note_on_c, 0, 91, 0
1, 6872, Note_on_c, 0, 94, 107
1, 6874, Note_on_c, 0, 82, 107
1, 6906, Note_on_c, 0, 94, 0
1, 6908, Note_on_c, 0, 82, 0
1, 6916, Note_on_c, 0, 91, 107
1, 6917, Note_on_c, 0, 79, 107
1, 6953, Note_on_c, 0, 79, 0
1, 6954, Note_on_c, 0, 91, 0
1, 6964, Note_on_c, 0, 88, 107
1, 6965, Note_on_c, 0, 76, 107
1, 7002, Note_on_c, 0, 76, 0
1, 7005, Note_on_c, 0, 88, 0
1, 7013, Note_on_c, 0, 85, 107
1, 7014, Note_on_c, 0, 73, 107
1, 7053, Note_on_c, 0, 73, 0
1, 7054, Note_on_c, 0, 85, 0
1, 7063, Note_on_c, 0, 69, 107
1, 7064, Note_on_c, 0, 81, 107
1, 7102, Note_on_c, 0, 81, 0
1, 7105, Note_on_c, 0, 69, 0
1, 7111, Note_on_c, 0, 79, 107
1, 7112, Note_on_c, 0, 67, 110
1, 7150, Note_on_c, 0, 67, 0
1, 7150, Note_on_c, 0, 79, 0
1, 7157, Note_on_c, 0, 77, 107
1, 7159, Note_on_c, 0, 65, 110
1, 7195, Note_on_c, 0, 77, 0
1, 7198, Note_on_c, 0, 65, 0
1, 7205, Note_on_c, 0, 64, 110
1, 7206, Note_on_c, 0, 76, 107
1, 7241, Note_on_c, 0, 76, 0
1, 7244, Note_on_c, 0, 64, 0
1, 7248, Note_on_c, 0, 62, 110
1, 7296, Note_on_c, 0, 77, 107
1, 7337, Note_on_c, 0, 77, 0
1, 7346, Note_on_c, 0, 74, 107
1, 7373, Note_on_c, 0, 62, 0
1, 7388, Note_on_c, 0, 74, 0
1, 7396, Note_on_c, 0, 64, 110
1, 7447, Note_on_c, 0, 79, 107
1, 7487, Note_on_c, 0, 79, 0
1, 7499, Note_on_c, 0, 74, 107
1, 7528, Note_on_c, 0, 64, 0
1, 7536, Note_on_c, 0, 74, 0
1, 7547, Note_on_c, 0, 65, 110
1, 7600, Note_on_c, 0, 81, 107
1, 7637, Note_on_c, 0, 81, 0
1, 7651, Note_on_c, 0, 74, 107
1, 7676, Note_on_c, 0, 65, 0
1, 7688, Note_on_c, 0, 74, 0
1, 7699, Note_on_c, 0, 67, 110
1, 7750, Note_on_c, 0, 82, 107
1, 7789, Note_on_c, 0, 82, 0
1, 7798, Note_on_c, 0, 74, 107
1, 7823, Note_on_c, 0, 67, 0
1, 7836, Note_on_c, 0, 74, 0
1, 7850, Note_on_c, 0, 73, 107
1, 7890, Note_on_c, 0, 73, 0
1, 7900, Note_on_c, 0, 82, 101
1, 7901, Note_on_c, 0, 70, 95
1, 7942, Note_on_c, 0, 70, 0
1, 7945, Note_on_c, 0, 82, 0
1, 7949, Note_on_c, 0, 79, 95
1, 7950, Note_on_c, 0, 67, 98
1, 7989, Note_on_c, 0, 67, 0
1, 7991, Note_on_c, 0, 79, 0
1, 7999, Note_on_c, 0, 64, 98
1, 8002, Note_on_c, 0, 76, 95
1, 8041, Note_on_c, 0, 76, 0
1, 8044, Note_on_c, 0, 64, 0
1, 8052, Note_on_c, 0, 61, 98
1, 8053, Note_on_c, 0, 73, 95
1, 8094, Note_on_c, 0, 73, 0
1, 8100, Note_on_c, 0, 61, 0
1, 8110, Note_on_c, 0, 69, 101
1, 8110, Note_on_c, 0, 57, 104
1, 8150, Note_on_c, 0, 69, 0
1, 8153, Note_on_c, 0, 57, 0
1, 8160, Note_on_c, 0, 61, 110
1, 8161, Note_on_c, 0, 73, 107
1, 8196, Note_on_c, 0, 73, 0
1, 8199, Note_on_c, 0, 61, 0
1, 8209, Note_on_c, 0, 76, 107
1, 8210, Note_on_c, 0, 64, 110
1, 8245, Note_on_c, 0, 76, 0
1, 8246, Note_on_c, 0, 64, 0
1, 8256, Note_on_c, 0, 79, 107
1, 8258, Note_on_c, 0, 67, 110
1, 8296, Note_on_c, 0, 67, 0
1, 8301, Note_on_c, 0, 79, 0
1, 8307, Note_on_c, 0, 70, 113
1, 8308, Note_on_c, 0, 82, 113
1, 8349, Note_on_c, 0, 70, 0
1, 8351, Note_on_c, 0, 82, 0
1, 8359, Note_on_c, 0, 73, 113
1, 8362, Note_on_c, 0, 85, 113
1, 8400, Note_on_c, 0, 85, 0
1, 8402, Note_on_c, 0, 73, 0
1, 8410, Note_on_c, 0, 76, 113
1, 8411, Note_on_c, 0, 88, 113
1, 8447, Note_on_c, 0, 88, 0
1, 8448, Note_on_c, 0, 76, 0
1, 8459, Note_on_c, 0, 74, 107
1, 8460, Note_on_c, 0, 86, 107
1, 8519, Note_on_c, 0, 88, 107
1, 8520, Note_on_c, 0, 76, 107
1, 8554, Note_on_c, 0, 88, 0
1, 8555, Note_on_c, 0, 76, 0
1, 8572, Note_on_c, 0, 89, 107
1, 8573, Note_on_c, 0, 77, 107
1, 8582, Note_on_c, 0, 74, 0
1, 8585, Note_on_c, 0, 86, 0
1, 8615, Note_on_c, 0, 77, 0
1, 8622, Note_on_c, 0, 94, 107
1, 8623, Note_on_c, 0, 82, 107
1, 8624, Note_on_c, 0, 89, 0
1, 8670, Note_on_c, 0, 74, 107
1, 8671, Note_on_c, 0, 86, 107
1, 8704, Note_on_c, 0, 74, 0
1, 8712, Note_on_c, 0, 86, 0
1, 8720, Note_on_c, 0, 79, 107
1, 8721, Note_on_c, 0, 67, 110
1, 8723, Note_on_c, 0, 82, 0
1, 8726, Note_on_c, 0, 94, 0
1, 8748, Note_on_c, 0, 67, 0
1, 8749, Note_on_c, 0, 79, 0
1, 8769, Note_on_c, 0, 72, 107
1, 8770, Note_on_c, 0, 84, 107
1, 8818, Note_on_c, 0, 74, 107
1, 8820, Note_on_c, 0, 86, 107
1, 8855, Note_on_c, 0, 74, 0
1, 8856, Note_on_c, 0, 86, 0
1, 8872, Note_on_c, 0, 76, 107
1, 8873, Note_on_c, 0, 88, 107
1, 8877, Note_on_c, 0, 72, 0
1, 8878, Note_on_c, 0, 84, 0
1, 8918, Note_on_c, 0, 76, 0
1, 8919, Note_on_c, 0, 88, 0
1, 8919, Note_on_c, 0, 81, 107
1, 8920, Note_on_c, 0, 93, 107
1, 8968, Note_on_c, 0, 72, 107
1, 8969, Note_on_c, 0, 84, 107
1, 9002, Note_on_c, 0, 72, 0
1, 9003, Note_on_c, 0, 84, 0
1, 9016, Note_on_c, 0, 77, 107
1, 9018, Note_on_c, 0, 65, 110
1, 9025, Note_on_c, 0, 93, 0
1, 9029, Note_on_c, 0, 81, 0
1, 9052, Note_on_c, 0, 65, 0
1, 9056, Note_on_c, 0, 77, 0
1, 9071, Note_on_c, 0, 82, 107
1, 9072, Note_on_c, 0, 70, 107
1, 9124, Note_on_c, 0, 85, 107
1, 9125, Note_on_c, 0, 73, 107
1, 9150, Note_on_c, 0, 85, 0
1, 9153, Note_on_c, 0, 73, 0
1, 9170, Note_on_c, 0, 74, 107
1, 9171, Note_on_c, 0, 86, 107
1, 9174, Note_on_c, 0, 82, 0
1, 9178, Note_on_c, 0, 70, 0
1, 9207, Note_on_c, 0, 74, 0
1, 9213, Note_on_c, 0, 91, 107
1, 9214, Note_on_c, 0, 79, 107
1, 9216, Note_on_c, 0, 86, 0
1, 9255, Note_on_c, 0, 82, 107
1, 9256, Note_on_c, 0, 70, 107
1, 9293, Note_on_c, 0, 70, 0
1, 9296, Note_on_c, 0, 82, 0
1, 9304, Note_on_c, 0, 76, 107
1, 9305, Note_on_c, 0, 64, 110
1, 9314, Note_on_c, 0, 79, 0
1, 9315, Note_on_c, 0, 91, 0
1, 9337, Note_on_c, 0, 64, 0
1, 9342, Note_on_c, 0, 76, 0
1, 9356, Note_on_c, 0, 81, 107
1, 9357, Note_on_c, 0, 69, 107
1, 9402, Note_on_c, 0, 82, 107
1, 9403, Note_on_c, 0, 70, 107
1, 9436, Note_on_c, 0, 70, 0
1, 9440, Note_on_c, 0, 82, 0
1, 9453, Note_on_c, 0, 73, 107
1, 9454, Note_on_c, 0, 85, 107
1, 9459, Note_on_c, 0, 69, 0
1, 9460, Note_on_c, 0, 81, 0
1, 9481, Note_on_c, 0, 85, 0
1, 9485, Note_on_c, 0, 73, 0
1, 9500, Note_on_c, 0, 89, 107
1, 9501, Note_on_c, 0, 77, 107
1, 9546, Note_on_c, 0, 81, 107
1, 9548, Note_on_c, 0, 69, 107
1, 9580, Note_on_c, 0, 69, 0
1, 9585, Note_on_c, 0, 81, 0
1, 9597, Note_on_c, 0, 74, 107
1, 9599, Note_on_c, 0, 62, 110
1, 9606, Note_on_c, 0, 77, 0
1, 9609, Note_on_c, 0, 89, 0
1, 9625, Note_on_c, 0, 62, 0
1, 9632, Note_on_c, 0, 74, 0
1, 9646, Note_on_c, 0, 79, 107
1, 9647, Note_on_c, 0, 67, 110
1, 9696, Note_on_c, 0, 82, 107
1, 9697, Note_on_c, 0, 70, 107
1, 9734, Note_on_c, 0, 70, 0
1, 9739, Note_on_c, 0, 82, 0
1, 9745, Note_on_c, 0, 87, 107
1, 9746, Note_on_c, 0, 75, 107
1, 9761, Note_on_c, 0, 67, 0
1, 9763, Note_on_c, 0, 79, 0
1, 9782, Note_on_c, 0, 75, 0
1, 9785, Note_on_c, 0, 87, 0
1, 9795, Note_on_c, 0, 77, 107
1, 9796, Note_on_c, 0, 65, 110
1, 9846, Note_on_c, 0, 69, 107
1, 9847, Note_on_c, 0, 81, 107
1, 9883, Note_on_c, 0, 69, 0
1, 9887, Note_on_c, 0, 81, 0
1, 9894, Note_on_c, 0, 86, 107
1, 9895, Note_on_c, 0, 74, 107
1, 9916, Note_on_c, 0, 65, 0
1, 9919, Note_on_c, 0, 77, 0
1, 9934, Note_on_c, 0, 74, 0
1, 9939, Note_on_c, 0, 86, 0
1, 9946, Note_on_c, 0, 64, 110
1, 9947, Note_on_c, 0, 76, 107
1, 9999, Note_on_c, 0, 67, 110
1, 10000, Note_on_c, 0, 79, 107
1, 10035, Note_on_c, 0, 79, 0
1, 10036, Note_on_c, 0, 67, 0
1, 10047, Note_on_c, 0, 85, 107
1, 10048, Note_on_c, 0, 73, 107
1, 10069, Note_on_c, 0, 76, 0
1, 10070, Note_on_c, 0, 64, 0
1, 10083, Note_on_c, 0, 85, 0
1, 10084, Note_on_c, 0, 73, 0
1, 10095, Note_on_c, 0, 77, 107
1, 10096, Note_on_c, 0, 65, 110
1, 10152, Note_on_c, 0, 81, 107
1, 10153, Note_on_c, 0, 69, 107
1, 10188, Note_on_c, 0, 69, 0
1, 10188, Note_on_c, 0, 81, 0
1, 10200, Note_on_c, 0, 86, 107
1, 10200, Note_on_c, 0, 74, 107
1, 10219, Note_on_c, 0, 65, 0
1, 10221, Note_on_c, 0, 77, 0
1, 10237, Note_on_c, 0, 74, 0
1, 10244, Note_on_c, 0, 86, 0
1, 10251, Note_on_c, 0, 74, 107
1, 10252, Note_on_c, 0, 62, 110
1, 10300, Note_on_c, 0, 77, 107
1, 10301, Note_on_c, 0, 65, 110
1, 10338, Note_on_c, 0, 65, 0
1, 10340, Note_on_c, 0, 77, 0
1, 10350, Note_on_c, 0, 70, 107
1, 10352, Note_on_c, 0, 82, 107
1, 10370, Note_on_c, 0, 74, 0
1, 10371, Note_on_c, 0, 62, 0
1, 10389, Note_on_c, 0, 82, 0
1, 10394, Note_on_c, 0, 70, 0
1, 10401, Note_on_c, 0, 73, 107
1, 10402, Note_on_c, 0, 61, 110
1, 10450, Note_on_c, 0, 76, 107
1, 10450, Note_on_c, 0, 64, 110
1, 10491, Note_on_c, 0, 64, 0
1, 10496, Note_on_c, 0, 76, 0
1, 10503, Note_on_c, 0, 69, 107
1, 10504, Note_on_c, 0, 81, 107
1, 10518, Note_on_c, 0, 61, 0
1, 10523, Note_on_c, 0, 73, 0
1, 10532, Note_on_c, 0, 81, 0
1, 10540, Note_on_c, 0, 69, 0
1, 10550, Note_on_c, 0, 74, 107
1, 10551, Note_on_c, 0, 62, 110
1, 10600, Note_on_c, 0, 77, 107
1, 10601, Note_on_c, 0, 65, 110
1, 10634, Note_on_c, 0, 65, 0
1, 10641, Note_on_c, 0, 77, 0
1, 10651, Note_on_c, 0, 70, 107
1, 10652, Note_on_c, 0, 82, 107
1, 10670, Note_on_c, 0, 62, 0
1, 10673, Note_on_c, 0, 74, 0
1, 10691, Note_on_c, 0, 82, 0
1, 10695, Note_on_c, 0, 70, 0
1, 10700, Note_on_c, 0, 61, 110
1, 10701, Note_on_c, 0, 73, 107
1, 10749, Note_on_c, 0, 76, 107
1, 10750, Note_on_c, 0, 64, 110
1, 10785, Note_on_c, 0, 64, 0
1, 10792, Note_on_c, 0, 76, 0
1, 10803, Note_on_c, 0, 69, 107
1, 10803, Note_on_c, 0, 81, 107
1, 10818, Note_on_c, 0, 73, 0
1, 10823, Note_on_c, 0, 61, 0
1, 10839, Note_on_c, 0, 81, 0
1, 10841, Note_on_c, 0, 69, 0
1, 10853, Note_on_c, 0, 74, 107
1, 10854, Note_on_c, 0, 62, 110
1, 10895, Note_on_c, 0, 65, 110
1, 10896, Note_on_c, 0, 77, 107
1, 10933, Note_on_c, 0, 65, 0
1, 10934, Note_on_c, 0, 77, 0
1, 10944, Note_on_c, 0, 70, 107
1, 10946, Note_on_c, 0, 82, 107
1, 10963, Note_on_c, 0, 62, 0
1, 10968, Note_on_c, 0, 74, 0
1, 10980, Note_on_c, 0, 82, 0
1, 10984, Note_on_c, 0, 70, 0
1, 10993, Note_on_c, 0, 68, 107
1, 10994, Note_on_c, 0, 80, 107
1, 11023, Note_on_c, 0, 80, 0
1, 11024, Note_on_c, 0, 68, 0
1, 11034, Note_on_c, 0, 77, 107
1, 11035, Note_on_c, 0, 65, 110
1, 11061, Note_on_c, 0, 77, 0
1, 11064, Note_on_c, 0, 65, 0
1, 11076, Note_on_c, 0, 62, 110
1, 11077, Note_on_c, 0, 74, 107
1, 11114, Note_on_c, 0, 74, 0
1, 11118, Note_on_c, 0, 62, 0
1, 11128, Note_on_c, 0, 71, 107
1, 11129, Note_on_c, 0, 59, 110
1, 11178, Note_on_c, 0, 74, 107
1, 11179, Note_on_c, 0, 62, 110
1, 11215, Note_on_c, 0, 62, 0
1, 11216, Note_on_c, 0, 74, 0
1, 11225, Note_on_c, 0, 77, 107
1, 11226, Note_on_c, 0, 65, 110
1, 11239, Note_on_c, 0, 59, 0
1, 11241, Note_on_c, 0, 71, 0
1, 11250, Note_on_c, 0, 65, 0
1, 11255, Note_on_c, 0, 77, 0
1, 11265, Note_on_c, 0, 80, 107
1, 11267, Note_on_c, 0, 68, 107
1, 11293, Note_on_c, 0, 80, 0
1, 11294, Note_on_c, 0, 68, 0
1, 11304, Note_on_c, 0, 71, 107
1, 11304, Note_on_c, 0, 83, 107
1, 11334, Note_on_c, 0, 71, 0
1, 11335, Note_on_c, 0, 83, 0
1, 11346, Note_on_c, 0, 74, 107
1, 11347, Note_on_c, 0, 62, 110
1, 11384, Note_on_c, 0, 62, 0
1, 11386, Note_on_c, 0, 74, 0
1, 11397, Note_on_c, 0, 72, 107
1, 11398, Note_on_c, 0, 60, 110
1, 11449, Note_on_c, 0, 75, 107
1, 11452, Note_on_c, 0, 63, 110
1, 11479, Note_on_c, 0, 63, 0
1, 11482, Note_on_c, 0, 75, 0
1, 11496, Note_on_c, 0, 81, 107
1, 11497, Note_on_c, 0, 69, 107
1, 11508, Note_on_c, 0, 72, 0
1, 11511, Note_on_c, 0, 60, 0
1, 11520, Note_on_c, 0, 69, 0
1, 11523, Note_on_c, 0, 81, 0
1, 11535, Note_on_c, 0, 78, 107
1, 11535, Note_on_c, 0, 66, 110
1, 11569, Note_on_c, 0, 78, 0
1, 11570, Note_on_c, 0, 66, 0
1, 11581, Note_on_c, 0, 63, 110
1, 11582, Note_on_c, 0, 75, 107
1, 11620, Note_on_c, 0, 75, 0
1, 11623, Note_on_c, 0, 63, 0
1, 11631, Note_on_c, 0, 72, 107
1, 11634, Note_on_c, 0, 60, 110
1, 11665, Note_on_c, 0, 60, 0
1, 11670, Note_on_c, 0, 72, 0
1, 11684, Note_on_c, 0, 69, 107
1, 11685, Note_on_c, 0, 57, 110
1, 11734, Note_on_c, 0, 72, 107
1, 11735, Note_on_c, 0, 60, 110
1, 11767, Note_on_c, 0, 60, 0
1, 11771, Note_on_c, 0, 72, 0
1, 11781, Note_on_c, 0, 75, 107
1, 11782, Note_on_c, 0, 63, 110
1, 11799, Note_on_c, 0, 57, 0
1, 11801, Note_on_c, 0, 69, 0
1, 11815, Note_on_c, 0, 75, 0
1, 11816, Note_on_c, 0, 63, 0
1, 11829, Note_on_c, 0, 78, 107
1, 11829, Note_on_c, 0, 66, 110
1, 11856, Note_on_c, 0, 78, 0
1, 11859, Note_on_c, 0, 66, 0
1, 11872, Note_on_c, 0, 69, 107
1, 11872, Note_on_c, 0, 81, 107
1, 11898, Note_on_c, 0, 81, 0
1, 11899, Note_on_c, 0, 69, 0
1, 11911, Note_on_c, 0, 72, 107
1, 11912, Note_on_c, 0, 60, 110
1, 11949, Note_on_c, 0, 60, 0
1, 11951, Note_on_c, 0, 72, 0
1, 11960, Note_on_c, 0, 58, 110
1, 11961, Note_on_c, 0, 70, 107
1, 12005, Note_on_c, 0, 74, 107
1, 12006, Note_on_c, 0, 62, 110
1, 12040, Note_on_c, 0, 62, 0
1, 12042, Note_on_c, 0, 74, 0
1, 12052, Note_on_c, 0, 79, 107
1, 12053, Note_on_c, 0, 67, 110
1, 12071, Note_on_c, 0, 70, 0
1, 12072, Note_on_c, 0, 58, 0
1, 12090, Note_on_c, 0, 67, 0
1, 12091, Note_on_c, 0, 79, 0
1, 12100, Note_on_c, 0, 77, 107
1, 12101, Note_on_c, 0, 65, 110
1, 12131, Note_on_c, 0, 65, 0
1, 12134, Note_on_c, 0, 77, 0
1, 12142, Note_on_c, 0, 76, 107
1, 12143, Note_on_c, 0, 64, 110
1, 12173, Note_on_c, 0, 64, 0
1, 12176, Note_on_c, 0, 76, 0
1, 12185, Note_on_c, 0, 74, 107
1, 12186, Note_on_c, 0, 62, 110
1, 12220, Note_on_c, 0, 74, 0
1, 12221, Note_on_c, 0, 62, 0
1, 12233, Note_on_c, 0, 56, 110
1, 12234, Note_on_c, 0, 68, 107
1, 12284, Note_on_c, 0, 74, 107
1, 12286, Note_on_c, 0, 62, 110
1, 12316, Note_on_c, 0, 62, 0
1, 12317, Note_on_c, 0, 74, 0
1, 12328, Note_on_c, 0, 83, 107
1, 12329, Note_on_c, 0, 71, 107
1, 12339, Note_on_c, 0, 68, 0
1, 12343, Note_on_c, 0, 56, 0
1, 12359, Note_on_c, 0, 83, 0
1, 12360, Note_on_c, 0, 71, 0
1, 12370, Note_on_c, 0, 77, 107
1, 12371, Note_on_c, 0, 65, 110
1, 12400, Note_on_c, 0, 77, 0
1, 12401, Note_on_c, 0, 65, 0
1, 12413, Note_on_c, 0, 64, 110
1, 12414, Note_on_c, 0, 76, 107
1, 12443, Note_on_c, 0, 76, 0
1, 12446, Note_on_c, 0, 64, 0
1, 12457, Note_on_c, 0, 62, 110
1, 12458, Note_on_c, 0, 74, 107
1, 12489, Note_on_c, 0, 74, 0
1, 12493, Note_on_c, 0, 62, 0
1, 12503, Note_on_c, 0, 57, 110
1, 12504, Note_on_c, 0, 69, 107
1, 12551, Note_on_c, 0, 73, 107
1, 12552, Note_on_c, 0, 61, 110
1, 12586, Note_on_c, 0, 61, 0
1, 12589, Note_on_c, 0, 73, 0
1, 12600, Note_on_c, 0, 76, 107
1, 12601, Note_on_c, 0, 64, 110
1, 12620, Note_on_c, 0, 57, 0
1, 12621, Note_on_c, 0, 69, 0
1, 12627, Note_on_c, 0, 64, 0
1, 12631, Note_on_c, 0, 76, 0
1, 12642, Note_on_c, 0, 65, 110
1, 12643, Note_on_c, 0, 77, 107
1, 12677, Note_on_c, 0, 77, 0
1, 12680, Note_on_c, 0, 65, 0
1, 12685, Note_on_c, 0, 62, 110
1, 12688, Note_on_c, 0, 74, 107
1, 12717, Note_on_c, 0, 74, 0
1, 12720, Note_on_c, 0, 62, 0
1, 12730, Note_on_c, 0, 56, 110
1, 12731, Note_on_c, 0, 68, 107
1, 12762, Note_on_c, 0, 68, 0
1, 12765, Note_on_c, 0, 56, 0
1, 12777, Note_on_c, 0, 69, 107
1, 12779, Note_on_c, 0, 57, 110
1, 12823, Note_on_c, 0, 73, 107
1, 12827, Note_on_c, 0, 61, 110
1, 12859, Note_on_c, 0, 61, 0
1, 12864, Note_on_c, 0, 73, 0
1, 12873, Note_on_c, 0, 64, 110
1, 12875, Note_on_c, 0, 76, 107
1, 12888, Note_on_c, 0, 57, 0
1, 12896, Note_on_c, 0, 69, 0
1, 12904, Note_on_c, 0, 76, 0
1, 12906, Note_on_c, 0, 64, 0
1, 12917, Note_on_c, 0, 77, 107
1, 12918, Note_on_c, 0, 65, 110
1, 12946, Note_on_c, 0, 65, 0
1, 12947, Note_on_c, 0, 77, 0
1, 12958, Note_on_c, 0, 62, 110
1, 12959, Note_on_c, 0, 74, 107
1, 12988, Note_on_c, 0, 62, 0
1, 12989, Note_on_c, 0, 74, 0
1, 13004, Note_on_c, 0, 68, 107
1, 13005, Note_on_c, 0, 56, 110
1, 13038, Note_on_c, 0, 56, 0
1, 13039, Note_on_c, 0, 68, 0
1, 13051, Note_on_c, 0, 69, 107
1, 13052, Note_on_c, 0, 57, 110
1, 13098, Note_on_c, 0, 72, 107
1, 13099, Note_on_c, 0, 60, 110
1, 13132, Note_on_c, 0, 60, 0
1, 13134, Note_on_c, 0, 72, 0
1, 13145, Note_on_c, 0, 77, 107
1, 13146, Note_on_c, 0, 65, 110
1, 13161, Note_on_c, 0, 57, 0
1, 13163, Note_on_c, 0, 69, 0
1, 13170, Note_on_c, 0, 65, 0
1, 13176, Note_on_c, 0, 77, 0
1, 13185, Note_on_c, 0, 75, 107
1, 13186, Note_on_c, 0, 63, 110
1, 13210, Note_on_c, 0, 75, 0
1, 13212, Note_on_c, 0, 63, 0
1, 13224, Note_on_c, 0, 72, 107
1, 13225, Note_on_c, 0, 60, 110
1, 13256, Note_on_c, 0, 60, 0
1, 13257, Note_on_c, 0, 72, 0
1, 13266, Note_on_c, 0, 57, 110
1, 13267, Note_on_c, 0, 69, 107
1, 13297, Note_on_c, 0, 69, 0
1, 13302, Note_on_c, 0, 57, 0
1, 13313, Note_on_c, 0, 54, 110
1, 13314, Note_on_c, 0, 66, 110
1, 13362, Note_on_c, 0, 57, 110
1, 13363, Note_on_c, 0, 69, 107
1, 13393, Note_on_c, 0, 69, 0
1, 13396, Note_on_c, 0, 57, 0
1, 13407, Note_on_c, 0, 60, 110
1, 13408, Note_on_c, 0, 72, 107
1, 13423, Note_on_c, 0, 66, 0
1, 13426, Note_on_c, 0, 54, 0
1, 13438, Note_on_c, 0, 72, 0
1, 13443, Note_on_c, 0, 60, 0
1, 13449, Note_on_c, 0, 63, 110
1, 13453, Note_on_c, 0, 75, 107
1, 13473, Note_on_c, 0, 75, 0
1, 13478, Note_on_c, 0, 63, 0
1, 13489, Note_on_c, 0, 78, 107
1, 13490, Note_on_c, 0, 66, 110
1, 13518, Note_on_c, 0, 66, 0
1, 13519, Note_on_c, 0, 78, 0
1, 13529, Note_on_c, 0, 69, 107
1, 13530, Note_on_c, 0, 57, 110
1, 13562, Note_on_c, 0, 57, 0
1, 13565, Note_on_c, 0, 69, 0
1, 13574, Note_on_c, 0, 55, 110
1, 13575, Note_on_c, 0, 67, 110
1, 13620, Note_on_c, 0, 58, 110
1, 13621, Note_on_c, 0, 70, 107
1, 13656, Note_on_c, 0, 70, 0
1, 13656, Note_on_c, 0, 58, 0
1, 13665, Note_on_c, 0, 76, 107
1, 13666, Note_on_c, 0, 64, 110
1, 13679, Note_on_c, 0, 67, 0
1, 13681, Note_on_c, 0, 55, 0
1, 13692, Note_on_c, 0, 64, 0
1, 13693, Note_on_c, 0, 76, 0
1, 13704, Note_on_c, 0, 61, 110
1, 13707, Note_on_c, 0, 73, 107
1, 13731, Note_on_c, 0, 73, 0
1, 13736, Note_on_c, 0, 61, 0
1, 13744, Note_on_c, 0, 70, 107
1, 13745, Note_on_c, 0, 58, 110
1, 13771, Note_on_c, 0, 70, 0
1, 13772, Note_on_c, 0, 58, 0
1, 13783, Note_on_c, 0, 55, 110
1, 13784, Note_on_c, 0, 67, 110
1, 13824, Note_on_c, 0, 67, 0
1, 13825, Note_on_c, 0, 55, 0
1, 13833, Note_on_c, 0, 64, 110
1, 13833, Note_on_c, 0, 52, 110
1, 13879, Note_on_c, 0, 55, 110
1, 13882, Note_on_c, 0, 67, 110
1, 13920, Note_on_c, 0, 67, 0
1, 13923, Note_on_c, 0, 55, 0
1, 13930, Note_on_c, 0, 58, 110
1, 13931, Note_on_c, 0, 70, 107
1, 13951, Note_on_c, 0, 64, 0
1, 13953, Note_on_c, 0, 52, 0
1, 13961, Note_on_c, 0, 70, 0
1, 13962, Note_on_c, 0, 58, 0
1, 13973, Note_on_c, 0, 73, 107
1, 13973, Note_on_c, 0, 61, 110
1, 14003, Note_on_c, 0, 61, 0
1, 14003, Note_on_c, 0, 73, 0
1, 14013, Note_on_c, 0, 76, 107
1, 14015, Note_on_c, 0, 64, 110
1, 14043, Note_on_c, 0, 64, 0
1, 14046, Note_on_c, 0, 76, 0
1, 14059, Note_on_c, 0, 55, 110
1, 14059, Note_on_c, 0, 67, 110
1, 14088, Note_on_c, 0, 55, 0
1, 14089, Note_on_c, 0, 67, 0
1, 14106, Note_on_c, 0, 66, 110
1, 14107, Note_on_c, 0, 54, 110
1, 14148, Note_on_c, 0, 69, 107
1, 14149, Note_on_c, 0, 57, 110
1, 14179, Note_on_c, 0, 57, 0
1, 14182, Note_on_c, 0, 69, 0
1, 14192, Note_on_c, 0, 74, 107
1, 14193, Note_on_c, 0, 62, 110
1, 14208, Note_on_c, 0, 66, 0
1, 14210, Note_on_c, 0, 54, 0
1, 14222, Note_on_c, 0, 62, 0
1, 14226, Note_on_c, 0, 74, 0
1, 14233, Note_on_c, 0, 71, 107
1, 14234, Note_on_c, 0, 59, 110
1, 14266, Note_on_c, 0, 59, 0
1, 14268, Note_on_c, 0, 71, 0
1, 14276, Note_on_c, 0, 56, 110
1, 14277, Note_on_c, 0, 68, 107
1, 14310, Note_on_c, 0, 68, 0
1, 14311, Note_on_c, 0, 56, 0
1, 14320, Note_on_c, 0, 53, 110
1, 14322, Note_on_c, 0, 65, 110
1, 14358, Note_on_c, 0, 65, 0
1, 14360, Note_on_c, 0, 53, 0
1, 14370, Note_on_c, 0, 52, 110
1, 14371, Note_on_c, 0, 64, 110
1, 14416, Note_on_c, 0, 55, 110
1, 14417, Note_on_c, 0, 67, 110
1, 14442, Note_on_c, 0, 67, 0
1, 14446, Note_on_c, 0, 55, 0
1, 14456, Note_on_c, 0, 60, 110
1, 14459, Note_on_c, 0, 72, 107
1, 14468, Note_on_c, 0, 64, 0
1, 14473, Note_on_c, 0, 52, 0
1, 14483, Note_on_c, 0, 72, 0
1, 14485, Note_on_c, 0, 60, 0
1, 14499, Note_on_c, 0, 69, 107
1, 14500, Note_on_c, 0, 57, 110
1, 14530, Note_on_c, 0, 57, 0
1, 14533, Note_on_c, 0, 69, 0
1, 14544, Note_on_c, 0, 66, 110
1, 14546, Note_on_c, 0, 54, 110
1, 14580, Note_on_c, 0, 54, 0
1, 14582, Note_on_c, 0, 66, 0
1, 14589, Note_on_c, 0, 63, 110
1, 14590, Note_on_c, 0, 51, 110
1, 14624, Note_on_c, 0, 51, 0
1, 14627, Note_on_c, 0, 63, 0
1, 14635, Note_on_c, 0, 50, 110
1, 14636, Note_on_c, 0, 62, 110
1, 14682, Note_on_c, 0, 55, 110
1, 14683, Note_on_c, 0, 67, 110
1, 14714, Note_on_c, 0, 55, 0
1, 14717, Note_on_c, 0, 67, 0
1, 14725, Note_on_c, 0, 70, 107
1, 14726, Note_on_c, 0, 58, 110
1, 14742, Note_on_c, 0, 50, 0
1, 14743, Note_on_c, 0, 62, 0
1, 14754, Note_on_c, 0, 70, 0
1, 14755, Note_on_c, 0, 58, 0
1, 14767, Note_on_c, 0, 73, 107
1, 14767, Note_on_c, 0, 61, 110
1, 14792, Note_on_c, 0, 73, 0
1, 14794, Note_on_c, 0, 61, 0
1, 14802, Note_on_c, 0, 76, 107
1, 14803, Note_on_c, 0, 64, 110
1, 14833, Note_on_c, 0, 64, 0
1, 14839, Note_on_c, 0, 76, 0
1, 14841, Note_on_c, 0, 61, 110
1, 14843, Note_on_c, 0, 73, 107
1, 14868, Note_on_c, 0, 73, 0
1, 14872, Note_on_c, 0, 61, 0
1, 14881, Note_on_c, 0, 58, 110
1, 14882, Note_on_c, 0, 70, 107
1, 14913, Note_on_c, 0, 58, 0
1, 14914, Note_on_c, 0, 70, 0
1, 14925, Note_on_c, 0, 55, 110
1, 14926, Note_on_c, 0, 67, 110
1, 14955, Note_on_c, 0, 67, 0
1, 14958, Note_on_c, 0, 55, 0
1, 14965, Note_on_c, 0, 53, 110
1, 14967, Note_on_c, 0, 65, 110
1, 15001, Note_on_c, 0, 53, 0
1, 15002, Note_on_c, 0, 65, 0
1, 15013, Note_on_c, 0, 63, 110
1, 15014, Note_on_c, 0, 51, 110
1, 15051, Note_on_c, 0, 51, 0
1, 15055, Note_on_c, 0, 63, 0
1, 15065, Note_on_c, 0, 50, 110
1, 15066, Note_on_c, 0, 62, 110
1, 15098, Note_on_c, 0, 50, 0
1, 15101, Note_on_c, 0, 62, 0
1, 15110, Note_on_c, 0, 49, 110
1, 15112, Note_on_c, 0, 61, 110
1, 15143, Note_on_c, 0, 61, 0
1, 15146, Note_on_c, 0, 49, 0
1, 15159, Note_on_c, 0, 50, 110
1, 15161, Note_on_c, 0, 62, 110
1, 15208, Note_on_c, 0, 53, 110
1, 15209, Note_on_c, 0, 65, 110
1, 15239, Note_on_c, 0, 65, 0
1, 15242, Note_on_c, 0, 53, 0
1, 15252, Note_on_c, 0, 70, 107
1, 15253, Note_on_c, 0, 58, 110
1, 15264, Note_on_c, 0, 50, 0
1, 15266, Note_on_c, 0, 62, 0
1, 15275, Note_on_c, 0, 58, 0
1, 15277, Note_on_c, 0, 70, 0
1, 15289, Note_on_c, 0, 68, 107
1, 15289, Note_on_c, 0, 56, 110
1, 15314, Note_on_c, 0, 56, 0
1, 15319, Note_on_c, 0, 68, 0
1, 15326, Note_on_c, 0, 65, 110
1, 15328, Note_on_c, 0, 53, 110
1, 15351, Note_on_c, 0, 53, 0
1, 15352, Note_on_c, 0, 65, 0
1, 15365, Note_on_c, 0, 50, 110
1, 15368, Note_on_c, 0, 62, 110
1, 15392, Note_on_c, 0, 50, 0
1, 15396, Note_on_c, 0, 62, 0
1, 15405, Note_on_c, 0, 49, 110
1, 15406, Note_on_c, 0, 61, 110
1, 15444, Note_on_c, 0, 52, 110
1, 15445, Note_on_c, 0, 64, 110
1, 15471, Note_on_c, 0, 64, 0
1, 15474, Note_on_c, 0, 52, 0
1, 15489, Note_on_c, 0, 69, 107
1, 15490, Note_on_c, 0, 57, 110
1, 15504, Note_on_c, 0, 61, 0
1, 15506, Note_on_c, 0, 49, 0
1, 15516, Note_on_c, 0, 69, 0
1, 15519, Note_on_c, 0, 57, 0
1, 15532, Note_on_c, 0, 54, 110
1, 15533, Note_on_c, 0, 66, 110
1, 15554, Note_on_c, 0, 66, 0
1, 15556, Note_on_c, 0, 54, 0
1, 15568, Note_on_c, 0, 51, 110
1, 15569, Note_on_c, 0, 63, 110
1, 15599, Note_on_c, 0, 63, 0
1, 15601, Note_on_c, 0, 51, 0
1, 15609, Note_on_c, 0, 48, 115
1, 15611, Note_on_c, 0, 60, 110
1, 15636, Note_on_c, 0, 60, 0
1, 15644, Note_on_c, 0, 48, 0
1, 15654, Note_on_c, 0, 47, 115
1, 15656, Note_on_c, 0, 59, 110
1, 15700, Note_on_c, 0, 50, 110
1, 15701, Note_on_c, 0, 62, 110
1, 15732, Note_on_c, 0, 50, 0
1, 15733, Note_on_c, 0, 62, 0
1, 15746, Note_on_c, 0, 67, 110
1, 15748, Note_on_c, 0, 55, 110
1, 15759, Note_on_c, 0, 59, 0
1, 15764, Note_on_c, 0, 47, 0
1, 15774, Note_on_c, 0, 55, 0
1, 15775, Note_on_c, 0, 67, 0
1, 15782, Note_on_c, 0, 64, 110
1, 15783, Note_on_c, 0, 52, 110
1, 15808, Note_on_c, 0, 52, 0
1, 15809, Note_on_c, 0, 64, 0
1, 15820, Note_on_c, 0, 49, 110
1, 15821, Note_on_c, 0, 61, 110
1, 15843, Note_on_c, 0, 61, 0
1, 15849, Note_on_c, 0, 49, 0
1, 15858, Note_on_c, 0, 58, 110
1, 15861, Note_on_c, 0, 46, 115
1, 15894, Note_on_c, 0, 46, 0
1, 15898, Note_on_c, 0, 58, 0
1, 15904, Note_on_c, 0, 45, 115
1, 15906, Note_on_c, 0, 57, 110
1, 15949, Note_on_c, 0, 62, 110
1, 15951, Note_on_c, 0, 50, 110
1, 15981, Note_on_c, 0, 50, 0
1, 15984, Note_on_c, 0, 62, 0
1, 15993, Note_on_c, 0, 65, 110
1, 15994, Note_on_c, 0, 53, 110
1, 16001, Note_on_c, 0, 57, 0
1, 16009, Note_on_c, 0, 45, 0
1, 16021, Note_on_c, 0, 53, 0
1, 16026, Note_on_c, 0, 65, 0
1, 16032, Note_on_c, 0, 50, 110
1, 16032, Note_on_c, 0, 62, 110
1, 16062, Note_on_c, 0, 62, 0
1, 16065, Note_on_c, 0, 50, 0
1, 16069, Note_on_c, 0, 47, 115
1, 16071, Note_on_c, 0, 59, 110
1, 16101, Note_on_c, 0, 59, 0
1, 16104, Note_on_c, 0, 47, 0
1, 16117, Note_on_c, 0, 56, 110
1, 16118, Note_on_c, 0, 44, 115
1, 16145, Note_on_c, 0, 44, 0
1, 16146, Note_on_c, 0, 56, 0
1, 16161, Note_on_c, 0, 55, 110
1, 16162, Note_on_c, 0, 43, 115
1, 16208, Note_on_c, 0, 60, 110
1, 16210, Note_on_c, 0, 48, 115
1, 16243, Note_on_c, 0, 48, 0
1, 16251, Note_on_c, 0, 60, 0
1, 16252, Note_on_c, 0, 63, 110
1, 16253, Note_on_c, 0, 51, 110
1, 16267, Note_on_c, 0, 43, 0
1, 16270, Note_on_c, 0, 55, 0
1, 16286, Note_on_c, 0, 51, 0
1, 16288, Note_on_c, 0, 63, 0
1, 16293, Note_on_c, 0, 60, 110
1, 16294, Note_on_c, 0, 48, 115
1, 16335, Note_on_c, 0, 51, 110
1, 16335, Note_on_c, 0, 63, 110
1, 16370, Note_on_c, 0, 51, 0
1, 16374, Note_on_c, 0, 63, 0
1, 16379, Note_on_c, 0, 55, 110
1, 16380, Note_on_c, 0, 67, 110
1, 16397, Note_on_c, 0, 48, 0
1, 16400, Note_on_c, 0, 60, 0
1, 16417, Note_on_c, 0, 55, 0
1, 16418, Note_on_c, 0, 67, 0
1, 16427, Note_on_c, 0, 63, 110
1, 16428, Note_on_c, 0, 51, 110
1, 16473, Note_on_c, 0, 55, 110
1, 16475, Note_on_c, 0, 67, 110
1, 16512, Note_on_c, 0, 67, 0
1, 16513, Note_on_c, 0, 55, 0
1, 16521, Note_on_c, 0, 60, 110
1, 16522, Note_on_c, 0, 72, 107
1, 16536, Note_on_c, 0, 51, 0
1, 16536, Note_on_c, 0, 63, 0
1, 16554, Note_on_c, 0, 60, 0
1, 16556, Note_on_c, 0, 72, 0
1, 16560, Note_on_c, 0, 55, 110
1, 16561, Note_on_c, 0, 67, 110
1, 16606, Note_on_c, 0, 72, 107
1, 16606, Note_on_c, 0, 60, 110
1, 16647, Note_on_c, 0, 60, 0
1, 16647, Note_on_c, 0, 72, 0
1, 16653, Note_on_c, 0, 75, 107
1, 16654, Note_on_c, 0, 63, 110
1, 16677, Note_on_c, 0, 55, 0
1, 16678, Note_on_c, 0, 67, 0
1, 16696, Note_on_c, 0, 75, 0
1, 16702, Note_on_c, 0, 63, 0
1, 16702, Note_on_c, 0, 70, 107
1, 16702, Note_on_c, 0, 58, 110
1, 16746, Note_on_c, 0, 61, 110
1, 16747, Note_on_c, 0, 73, 107
1, 16783, Note_on_c, 0, 61, 0
1, 16786, Note_on_c, 0, 73, 0
1, 16791, Note_on_c, 0, 64, 110
1, 16792, Note_on_c, 0, 76, 107
1, 16801, Note_on_c, 0, 58, 0
1, 16803, Note_on_c, 0, 70, 0
1, 16823, Note_on_c, 0, 76, 0
1, 16828, Note_on_c, 0, 64, 0
1, 16831, Note_on_c, 0, 61, 110
1, 16832, Note_on_c, 0, 73, 107
1, 16870, Note_on_c, 0, 76, 107
1, 16872, Note_on_c, 0, 64, 110
1, 16908, Note_on_c, 0, 64, 0
1, 16910, Note_on_c, 0, 76, 0
1, 16915, Note_on_c, 0, 79, 107
1, 16915, Note_on_c, 0, 67, 110
1, 16933, Note_on_c, 0, 73, 0
1, 16936, Note_on_c, 0, 61, 0
1, 16955, Note_on_c, 0, 79, 0
1, 16959, Note_on_c, 0, 67, 0
1, 16963, Note_on_c, 0, 76, 107
1, 16963, Note_on_c, 0, 64, 110
1, 17009, Note_on_c, 0, 67, 110
1, 17010, Note_on_c, 0, 79, 107
1, 17045, Note_on_c, 0, 79, 0
1, 17046, Note_on_c, 0, 67, 0
1, 17050, Note_on_c, 0, 70, 107
1, 17051, Note_on_c, 0, 82, 107
1, 17063, Note_on_c, 0, 76, 0
1, 17065, Note_on_c, 0, 64, 0
1, 17088, Note_on_c, 0, 70, 0
1, 17092, Note_on_c, 0, 82, 0
1, 17096, Note_on_c, 0, 67, 110
1, 17097, Note_on_c, 0, 79, 107
1, 17142, Note_on_c, 0, 70, 107
1, 17143, Note_on_c, 0, 82, 107
1, 17181, Note_on_c, 0, 82, 0
1, 17187, Note_on_c, 0, 70, 0
1, 17191, Note_on_c, 0, 85, 107
1, 17192, Note_on_c, 0, 73, 107
1, 17205, Note_on_c, 0, 79, 0
1, 17206, Note_on_c, 0, 67, 0
1, 17224, Note_on_c, 0, 73, 0
1, 17226, Note_on_c, 0, 85, 0
1, 17232, Note_on_c, 0, 69, 107
1, 17234, Note_on_c, 0, 57, 110
1, 17284, Note_on_c, 0, 82, 107
1, 17284, Note_on_c, 0, 70, 107
1, 17311, Note_on_c, 0, 70, 0
1, 17320, Note_on_c, 0, 82, 0
1, 17332, Note_on_c, 0, 73, 107
1, 17333, Note_on_c, 0, 85, 107
1, 17346, Note_on_c, 0, 57, 0
1, 17347, Note_on_c, 0, 69, 0
1, 17358, Note_on_c, 0, 73, 0
1, 17362, Note_on_c, 0, 85, 0
1, 17369, Note_on_c, 0, 91, 107
1, 17371, Note_on_c, 0, 79, 107
1, 17405, Note_on_c, 0, 79, 0
1, 17408, Note_on_c, 0, 91, 0
1, 17416, Note_on_c, 0, 89, 107
1, 17417, Note_on_c, 0, 77, 107
1, 17451, Note_on_c, 0, 77, 0
1, 17453, Note_on_c, 0, 89, 0
1, 17463, Note_on_c, 0, 88, 107
1, 17464, Note_on_c, 0, 76, 107
1, 17500, Note_on_c, 0, 76, 0
1, 17503, Note_on_c, 0, 88, 0
1, 17512, Note_on_c, 0, 79, 107
1, 17514, Note_on_c, 0, 67, 110
1, 17561, Note_on_c, 0, 85, 107
1, 17562, Note_on_c, 0, 73, 107
1, 17600, Note_on_c, 0, 85, 0
1, 17601, Note_on_c, 0, 73, 0
1, 17609, Note_on_c, 0, 76, 107
1, 17611, Note_on_c, 0, 88, 107
1, 17629, Note_on_c, 0, 67, 0
1, 17629, Note_on_c, 0, 79, 0
1, 17644, Note_on_c, 0, 88, 0
1, 17646, Note_on_c, 0, 76, 0
1, 17655, Note_on_c, 0, 94, 107
1, 17656, Note_on_c, 0, 82, 107
1, 17688, Note_on_c, 0, 82, 0
1, 17688, Note_on_c, 0, 94, 0
1, 17697, Note_on_c, 0, 93, 107
1, 17698, Note_on_c, 0, 81, 107
1, 17732, Note_on_c, 0, 93, 0
1, 17733, Note_on_c, 0, 81, 0
1, 17745, Note_on_c, 0, 91, 107
1, 17746, Note_on_c, 0, 79, 107
1, 17787, Note_on_c, 0, 79, 0
1, 17788, Note_on_c, 0, 91, 0
1, 17796, Note_on_c, 0, 57, 110
1, 17847, Note_on_c, 0, 70, 107
1, 17885, Note_on_c, 0, 70, 0
1, 17895, Note_on_c, 0, 73, 107
1, 17928, Note_on_c, 0, 57, 0
1, 17933, Note_on_c, 0, 73, 0
1, 17945, Note_on_c, 0, 79, 107
1, 17980, Note_on_c, 0, 79, 0
1, 17990, Note_on_c, 0, 77, 107
1, 18027, Note_on_c, 0, 77, 0
1, 18035, Note_on_c, 0, 76, 107
1, 18077, Note_on_c, 0, 76, 0
1, 18087, Note_on_c, 0, 67, 110
1, 18136, Note_on_c, 0, 73, 107
1, 18178, Note_on_c, 0, 73, 0
1, 18186, Note_on_c, 0, 76, 107
1, 18220, Note_on_c, 0, 67, 0
1, 18224, Note_on_c, 0, 76, 0
1, 18234, Note_on_c, 0, 82, 107
1, 18268, Note_on_c, 0, 82, 0
1, 18279, Note_on_c, 0, 81, 107
1, 18322, Note_on_c, 0, 81, 0
1, 18330, Note_on_c, 0, 79, 107
1, 18367, Note_on_c, 0, 79, 0
1, 18378, Note_on_c, 0, 77, 107
1, 18380, Note_on_c, 0, 65, 110
1, 18429, Note_on_c, 0, 69, 107
1, 18429, Note_on_c, 0, 81, 107
1, 18456, Note_on_c, 0, 69, 0
1, 18458, Note_on_c, 0, 81, 0
1, 18474, Note_on_c, 0, 85, 107
1, 18476, Note_on_c, 0, 73, 107
1, 18492, Note_on_c, 0, 65, 0
1, 18494, Note_on_c, 0, 77, 0
1, 18502, Note_on_c, 0, 73, 0
1, 18505, Note_on_c, 0, 85, 0
1, 18523, Note_on_c, 0, 86, 107
1, 18524, Note_on_c, 0, 74, 107
1, 18549, Note_on_c, 0, 74, 0
1, 18551, Note_on_c, 0, 86, 0
1, 18565, Note_on_c, 0, 88, 107
1, 18566, Note_on_c, 0, 76, 107
1, 18592, Note_on_c, 0, 76, 0
1, 18595, Note_on_c, 0, 88, 0
1, 18605, Note_on_c, 0, 89, 107
1, 18606, Note_on_c, 0, 77, 107
1, 18634, Note_on_c, 0, 77, 0
1, 18636, Note_on_c, 0, 69, 107
1, 18639, Note_on_c, 0, 81, 107
1, 18640, Note_on_c, 0, 89, 0
1, 18696, Note_on_c, 0, 73, 107
1, 18696, Note_on_c, 0, 85, 107
1, 18726, Note_on_c, 0, 85, 0
1, 18727, Note_on_c, 0, 73, 0
1, 18747, Note_on_c, 0, 86, 107
1, 18747, Note_on_c, 0, 74, 107
1, 18751, Note_on_c, 0, 81, 0
1, 18755, Note_on_c, 0, 69, 0
1, 18780, Note_on_c, 0, 74, 0
1, 18785, Note_on_c, 0, 86, 0
1, 18796, Note_on_c, 0, 89, 107
1, 18796, Note_on_c, 0, 77, 107
1, 18827, Note_on_c, 0, 77, 0
1, 18828, Note_on_c, 0, 89, 0
1, 18840, Note_on_c, 0, 91, 107
1, 18841, Note_on_c, 0, 79, 107
1, 18866, Note_on_c, 0, 91, 0
1, 18868, Note_on_c, 0, 79, 0
1, 18882, Note_on_c, 0, 93, 107
1, 18883, Note_on_c, 0, 81, 107
1, 18902, Note_on_c, 0, 81, 0
1, 18906, Note_on_c, 0, 93, 0
1, 18919, Note_on_c, 0, 89, 107
1, 18920, Note_on_c, 0, 77, 107
1, 18944, Note_on_c, 0, 77, 0
1, 18951, Note_on_c, 0, 89, 0
1, 18962, Note_on_c, 0, 76, 107
1, 18963, Note_on_c, 0, 88, 107
1, 18988, Note_on_c, 0, 88, 0
1, 18989, Note_on_c, 0, 76, 0
1, 19005, Note_on_c, 0, 86, 107
1, 19006, Note_on_c, 0, 74, 107
1, 19035, Note_on_c, 0, 74, 0
1, 19038, Note_on_c, 0, 86, 0
1, 19050, Note_on_c, 0, 85, 107
1, 19051, Note_on_c, 0, 73, 107
1, 19075, Note_on_c, 0, 73, 0
1, 19078, Note_on_c, 0, 85, 0
1, 19092, Note_on_c, 0, 82, 107
1, 19093, Note_on_c, 0, 70, 107
1, 19120, Note_on_c, 0, 70, 0
1, 19123, Note_on_c, 0, 82, 0
1, 19139, Note_on_c, 0, 81, 107
1, 19140, Note_on_c, 0, 69, 107
1, 19168, Note_on_c, 0, 69, 0
1, 19172, Note_on_c, 0, 81, 0
1, 19189, Note_on_c, 0, 79, 107
1, 19189, Note_on_c, 0, 67, 110
1, 19214, Note_on_c, 0, 67, 0
1, 19215, Note_on_c, 0, 79, 0
1, 19237, Note_on_c, 0, 77, 107
1, 19238, Note_on_c, 0, 65, 110
1, 19260, Note_on_c, 0, 65, 0
1, 19265, Note_on_c, 0, 77, 0
1, 19282, Note_on_c, 0, 76, 107
1, 19283, Note_on_c, 0, 64, 110
1, 19303, Note_on_c, 0, 64, 0
1, 19310, Note_on_c, 0, 76, 0
1, 19323, Note_on_c, 0, 74, 107
1, 19324, Note_on_c, 0, 62, 110
1, 19344, Note_on_c, 0, 62, 0
1, 19352, Note_on_c, 0, 74, 0
1, 19363, Note_on_c, 0, 73, 107
1, 19364, Note_on_c, 0, 61, 110
1, 19387, Note_on_c, 0, 61, 0
1, 19390, Note_on_c, 0, 73, 0
1, 19405, Note_on_c, 0, 58, 110
1, 19406, Note_on_c, 0, 70, 107
1, 19434, Note_on_c, 0, 70, 0
1, 19437, Note_on_c, 0, 58, 0
1, 19454, Note_on_c, 0, 69, 107
1, 19455, Note_on_c, 0, 57, 110
1, 19501, Note_on_c, 0, 79, 107
1, 19502, Note_on_c, 0, 67, 110
1, 19530, Note_on_c, 0, 67, 0
1, 19533, Note_on_c, 0, 79, 0
1, 19552, Note_on_c, 0, 85, 107
1, 19553, Note_on_c, 0, 73, 107
1, 19571, Note_on_c, 0, 57, 0
1, 19572, Note_on_c, 0, 69, 0
1, 19580, Note_on_c, 0, 73, 0
1, 19583, Note_on_c, 0, 85, 0
1, 19598, Note_on_c, 0, 88, 107
1, 19599, Note_on_c, 0, 76, 107
1, 19621, Note_on_c, 0, 88, 0
1, 19625, Note_on_c, 0, 76, 0
1, 19641, Note_on_c, 0, 86, 107
1, 19642, Note_on_c, 0, 74, 107
1, 19667, Note_on_c, 0, 74, 0
1, 19670, Note_on_c, 0, 86, 0
1, 19684, Note_on_c, 0, 85, 107
1, 19684, Note_on_c, 0, 73, 107
1, 19708, Note_on_c, 0, 73, 0
1, 19710, Note_on_c, 0, 85, 0
1, 19730, Note_on_c, 0, 73, 107
1, 19731, Note_on_c, 0, 61, 110
1, 19780, Note_on_c, 0, 76, 107
1, 19780, Note_on_c, 0, 64, 110
1, 19805, Note_on_c, 0, 64, 0
1, 19808, Note_on_c, 0, 76, 0
1, 19828, Note_on_c, 0, 79, 107
1, 19828, Note_on_c, 0, 67, 110
1, 19841, Note_on_c, 0, 61, 0
1, 19843, Note_on_c, 0, 73, 0
1, 19851, Note_on_c, 0, 67, 0
1, 19853, Note_on_c, 0, 79, 0
1, 19871, Note_on_c, 0, 70, 107
1, 19874, Note_on_c, 0, 82, 107
1, 19896, Note_on_c, 0, 82, 0
1, 19897, Note_on_c, 0, 70, 0
1, 19912, Note_on_c, 0, 81, 107
1, 19913, Note_on_c, 0, 69, 107
1, 19941, Note_on_c, 0, 69, 0
1, 19942, Note_on_c, 0, 81, 0
1, 19956, Note_on_c, 0, 79, 107
1, 19956, Note_on_c, 0, 67, 110
1, 19987, Note_on_c, 0, 67, 0
1, 19991, Note_on_c, 0, 79, 0
1, 20004, Note_on_c, 0, 57, 110
1, 20052, Note_on_c, 0, 67, 110
1, 20088, Note_on_c, 0, 67, 0
1, 20102, Note_on_c, 0, 73, 107
1, 20121, Note_on_c, 0, 57, 0
1, 20133, Note_on_c, 0, 73, 0
1, 20146, Note_on_c, 0, 76, 107
1, 20174, Note_on_c, 0, 76, 0
1, 20193, Note_on_c, 0, 74, 107
1, 20224, Note_on_c, 0, 74, 0
1, 20241, Note_on_c, 0, 73, 107
1, 20272, Note_on_c, 0, 73, 0
1, 20289, Note_on_c, 0, 61, 110
1, 20337, Note_on_c, 0, 64, 110
1, 20363, Note_on_c, 0, 64, 0
1, 20377, Note_on_c, 0, 67, 110
1, 20391, Note_on_c, 0, 61, 0
1, 20401, Note_on_c, 0, 67, 0
1, 20420, Note_on_c, 0, 70, 107
1, 20439, Note_on_c, 0, 70, 0
1, 20460, Note_on_c, 0, 69, 107
1, 20489, Note_on_c, 0, 69, 0
1, 20505, Note_on_c, 0, 67, 110
1, 20536, Note_on_c, 0, 67, 0
1, 20553, Note_on_c, 0, 69, 107
1, 20554, Note_on_c, 0, 57, 110
1, 20603, Note_on_c, 0, 73, 107
1, 20604, Note_on_c, 0, 61, 110
1, 20633, Note_on_c, 0, 61, 0
1, 20638, Note_on_c, 0, 73, 0
1, 20648, Note_on_c, 0, 74, 107
1, 20650, Note_on_c, 0, 62, 110
1, 20663, Note_on_c, 0, 57, 0
1, 20663, Note_on_c, 0, 69, 0
1, 20671, Note_on_c, 0, 62, 0
1, 20676, Note_on_c, 0, 74, 0
1, 20686, Note_on_c, 0, 77, 107
1, 20688, Note_on_c, 0, 65, 110
1, 20715, Note_on_c, 0, 65, 0
1, 20724, Note_on_c, 0, 77, 0
1, 20733, Note_on_c, 0, 79, 107
1, 20734, Note_on_c, 0, 67, 110
1, 20758, Note_on_c, 0, 67, 0
1, 20761, Note_on_c, 0, 79, 0
1, 20780, Note_on_c, 0, 81, 107
1, 20781, Note_on_c, 0, 69, 107
1, 20806, Note_on_c, 0, 69, 0
1, 20809, Note_on_c, 0, 81, 0
1, 20826, Note_on_c, 0, 74, 107
1, 20827, Note_on_c, 0, 62, 110
1, 20873, Note_on_c, 0, 77, 107
1, 20874, Note_on_c, 0, 65, 110
1, 20903, Note_on_c, 0, 65, 0
1, 20904, Note_on_c, 0, 77, 0
1, 20918, Note_on_c, 0, 68, 107
1, 20919, Note_on_c, 0, 80, 107
1, 20930, Note_on_c, 0, 62, 0
1, 20933, Note_on_c, 0, 74, 0
1, 20941, Note_on_c, 0, 68, 0
1, 20943, Note_on_c, 0, 80, 0
1, 20961, Note_on_c, 0, 81, 107
1, 20962, Note_on_c, 0, 69, 107
1, 20983, Note_on_c, 0, 69, 0
1, 20987, Note_on_c, 0, 81, 0
1, 21003, Note_on_c, 0, 85, 107
1, 21004, Note_on_c, 0, 73, 107
1, 21030, Note_on_c, 0, 73, 0
1, 21031, Note_on_c, 0, 85, 0
1, 21049, Note_on_c, 0, 86, 107
1, 21051, Note_on_c, 0, 74, 107
1, 21076, Note_on_c, 0, 74, 0
1, 21081, Note_on_c, 0, 86, 0
1, 21097, Note_on_c, 0, 77, 107
1, 21098, Note_on_c, 0, 65, 110
1, 21146, Note_on_c, 0, 81, 107
1, 21147, Note_on_c, 0, 69, 107
1, 21171, Note_on_c, 0, 69, 0
1, 21174, Note_on_c, 0, 81, 0
1, 21188, Note_on_c, 0, 85, 107
1, 21189, Note_on_c, 0, 73, 107
1, 21203, Note_on_c, 0, 65, 0
1, 21204, Note_on_c, 0, 77, 0
1, 21214, Note_on_c, 0, 73, 0
1, 21217, Note_on_c, 0, 85, 0
1, 21230, Note_on_c, 0, 86, 107
1, 21231, Note_on_c, 0, 74, 107
1, 21252, Note_on_c, 0, 74, 0
1, 21254, Note_on_c, 0, 86, 0
1, 21270, Note_on_c, 0, 88, 107
1, 21273, Note_on_c, 0, 76, 107
1, 21293, Note_on_c, 0, 76, 0
1, 21299, Note_on_c, 0, 88, 0
1, 21313, Note_on_c, 0, 89, 107
1, 21314, Note_on_c, 0, 77, 107
1, 21341, Note_on_c, 0, 77, 0
1, 21346, Note_on_c, 0, 89, 0
1, 21351, Note_on_c, 0, 81, 107
1, 21352, Note_on_c, 0, 69, 107
1, 21408, Note_on_c, 0, 85, 107
1, 21409, Note_on_c, 0, 73, 107
1, 21429, Note_on_c, 0, 73, 0
1, 21432, Note_on_c, 0, 85, 0
1, 21446, Note_on_c, 0, 86, 107
1, 21447, Note_on_c, 0, 74, 107
1, 21450, Note_on_c, 0, 69, 0
1, 21453, Note_on_c, 0, 81, 0
1, 21469, Note_on_c, 0, 86, 0
1, 21469, Note_on_c, 0, 74, 0
1, 21485, Note_on_c, 0, 89, 107
1, 21486, Note_on_c, 0, 77, 107
1, 21508, Note_on_c, 0, 89, 0
1, 21509, Note_on_c, 0, 77, 0
1, 21527, Note_on_c, 0, 92, 107
1, 21527, Note_on_c, 0, 80, 107
1, 21554, Note_on_c, 0, 92, 0
1, 21555, Note_on_c, 0, 80, 0
1, 21570, Note_on_c, 0, 81, 107
1, 21571, Note_on_c, 0, 93, 107
1, 21605, Note_on_c, 0, 93, 0
1, 21606, Note_on_c, 0, 81, 0
1, 21617, Note_on_c, 0, 95, 107
1, 21618, Note_on_c, 0, 83, 107
1, 21647, Note_on_c, 0, 83, 0
1, 21648, Note_on_c, 0, 95, 0
1, 21661, Note_on_c, 0, 92, 107
1, 21662, Note_on_c, 0, 80, 107
1, 21694, Note_on_c, 0, 92, 0
1, 21696, Note_on_c, 0, 80, 0
1, 21707, Note_on_c, 0, 93, 107
1, 21709, Note_on_c, 0, 81, 107
1, 21741, Note_on_c, 0, 81, 0
1, 21741, Note_on_c, 0, 93, 0
1, 21752, Note_on_c, 0, 83, 107
1, 21753, Note_on_c, 0, 95, 107
1, 21782, Note_on_c, 0, 95, 0
1, 21788, Note_on_c, 0, 83, 0
1, 21799, Note_on_c, 0, 74, 107
1, 21800, Note_on_c, 0, 86, 107
1, 21817, Note_on_c, 0, 74, 0
1, 21819, Note_on_c, 0, 86, 0
1, 21840, Note_on_c, 0, 76, 107
1, 21840, Note_on_c, 0, 88, 107
1, 21861, Note_on_c, 0, 88, 0
1, 21864, Note_on_c, 0, 76, 0
1, 21878, Note_on_c, 0, 89, 107
1, 21880, Note_on_c, 0, 77, 107
1, 21909, Note_on_c, 0, 77, 0
1, 21912, Note_on_c, 0, 89, 0
1, 21924, Note_on_c, 0, 83, 107
1, 21926, Note_on_c, 0, 71, 107
1, 21952, Note_on_c, 0, 71, 0
1, 21956, Note_on_c, 0, 83, 0
1, 21967, Note_on_c, 0, 84, 107
1, 21968, Note_on_c, 0, 72, 107
1, 21997, Note_on_c, 0, 72, 0
1, 22000, Note_on_c, 0, 84, 0
1, 22010, Note_on_c, 0, 86, 107
1, 22011, Note_on_c, 0, 74, 107
1, 22050, Note_on_c, 0, 74, 0
1, 22051, Note_on_c, 0, 86, 0
1, 22062, Note_on_c, 0, 68, 107
1, 22063, Note_on_c, 0, 80, 107
1, 22091, Note_on_c, 0, 80, 0
1, 22092, Note_on_c, 0, 68, 0
1, 22104, Note_on_c, 0, 69, 107
1, 22105, Note_on_c, 0, 81, 107
1, 22128, Note_on_c, 0, 81, 0
1, 22132, Note_on_c, 0, 69, 0
1, 22148, Note_on_c, 0, 83, 107
1, 22149, Note_on_c, 0, 71, 107
1, 22176, Note_on_c, 0, 71, 0
1, 22178, Note_on_c, 0, 83, 0
1, 22194, Note_on_c, 0, 62, 110
1, 22195, Note_on_c, 0, 74, 107
1, 22224, Note_on_c, 0, 74, 0
1, 22227, Note_on_c, 0, 62, 0
1, 22243, Note_on_c, 0, 64, 110
1, 22244, Note_on_c, 0, 76, 107
1, 22275, Note_on_c, 0, 76, 0
1, 22280, Note_on_c, 0, 64, 0
1, 22291, Note_on_c, 0, 65, 110
1, 22292, Note_on_c, 0, 77, 107
1, 22316, Note_on_c, 0, 77, 0
1, 22319, Note_on_c, 0, 65, 0
1, 22329, Note_on_c, 0, 59, 110
1, 22330, Note_on_c, 0, 71, 107
1, 22353, Note_on_c, 0, 71, 0
1, 22358, Note_on_c, 0, 59, 0
1, 22370, Note_on_c, 0, 72, 107
1, 22371, Note_on_c, 0, 60, 110
1, 22406, Note_on_c, 0, 60, 0
1, 22409, Note_on_c, 0, 72, 0
1, 22416, Note_on_c, 0, 74, 107
1, 22416, Note_on_c, 0, 62, 110
1, 22449, Note_on_c, 0, 62, 0
1, 22455, Note_on_c, 0, 74, 0
1, 22466, Note_on_c, 0, 68, 107
1, 22467, Note_on_c, 0, 56, 110
1, 22498, Note_on_c, 0, 56, 0
1, 22499, Note_on_c, 0, 68, 0
1, 22512, Note_on_c, 0, 69, 107
1, 22512, Note_on_c, 0, 57, 110
1, 22541, Note_on_c, 0, 69, 0
1, 22542, Note_on_c, 0, 57, 0
1, 22554, Note_on_c, 0, 59, 110
1, 22555, Note_on_c, 0, 71, 107
1, 22588, Note_on_c, 0, 71, 0
1, 22589, Note_on_c, 0, 59, 0
1, 22599, Note_on_c, 0, 73, 107
1, 22600, Note_on_c, 0, 61, 110
1, 22631, Note_on_c, 0, 61, 0
1, 22635, Note_on_c, 0, 73, 0
1, 22643, Note_on_c, 0, 74, 107
1, 22644, Note_on_c, 0, 62, 110
1, 22667, Note_on_c, 0, 62, 0
1, 22668, Note_on_c, 0, 74, 0
1, 22681, Note_on_c, 0, 73, 107
1, 22682, Note_on_c, 0, 61, 110
1, 22710, Note_on_c, 0, 61, 0
1, 22711, Note_on_c, 0, 73, 0
1, 22721, Note_on_c, 0, 76, 107
1, 22722, Note_on_c, 0, 64, 110
1, 22745, Note_on_c, 0, 64, 0
1, 22750, Note_on_c, 0, 76, 0
1, 22759, Note_on_c, 0, 74, 107
1, 22760, Note_on_c, 0, 62, 110
1, 22782, Note_on_c, 0, 62, 0
1, 22785, Note_on_c, 0, 74, 0
1, 22799, Note_on_c, 0, 73, 107
1, 22800, Note_on_c, 0, 61, 110
1, 22823, Note_on_c, 0, 61, 0
1, 22825, Note_on_c, 0, 73, 0
1, 22841, Note_on_c, 0, 59, 110
1, 22842, Note_on_c, 0, 71, 107
1, 22871, Note_on_c, 0, 59, 0
1, 22872, Note_on_c, 0, 71, 0
1, 22884, Note_on_c, 0, 69, 107
1, 22886, Note_on_c, 0, 57, 110
1, 22917, Note_on_c, 0, 57, 0
1, 22922, Note_on_c, 0, 69, 0
1, 22932, Note_on_c, 0, 55, 110
1, 22935, Note_on_c, 0, 67, 110
1, 22963, Note_on_c, 0, 67, 0
1, 22968, Note_on_c, 0, 55, 0
1, 22978, Note_on_c, 0, 65, 110
1, 22979, Note_on_c, 0, 53, 110
1, 23012, Note_on_c, 0, 53, 0
1, 23013, Note_on_c, 0, 65, 0
1, 23024, Note_on_c, 0, 64, 110
1, 23025, Note_on_c, 0, 52, 110
1, 23056, Note_on_c, 0, 52, 0
1, 23059, Note_on_c, 0, 64, 0
1, 23072, Note_on_c, 0, 62, 110
1, 23073, Note_on_c, 0, 50, 110
1, 23095, Note_on_c, 0, 50, 0
1, 23098, Note_on_c, 0, 62, 0
1, 23114, Note_on_c, 0, 49, 110
1, 23116, Note_on_c, 0, 61, 110
1, 23139, Note_on_c, 0, 61, 0
1, 23139, Note_on_c, 0, 49, 0
1, 23155, Note_on_c, 0, 64, 110
1, 23157, Note_on_c, 0, 52, 110
1, 23186, Note_on_c, 0, 52, 0
1, 23187, Note_on_c, 0, 64, 0
1, 23199, Note_on_c, 0, 57, 110
1, 23201, Note_on_c, 0, 45, 115
1, 23232, Note_on_c, 0, 45, 0
1, 23236, Note_on_c, 0, 57, 0
1, 23252, Note_on_c, 0, 77, 107
1, 23253, Note_on_c, 0, 65, 110
1, 23282, Note_on_c, 0, 65, 0
1, 23283, Note_on_c, 0, 77, 0
1, 23294, Note_on_c, 0, 76, 107
1, 23296, Note_on_c, 0, 64, 110
1, 23319, Note_on_c, 0, 64, 0
1, 23325, Note_on_c, 0, 76, 0
1, 23335, Note_on_c, 0, 74, 107
1, 23336, Note_on_c, 0, 62, 110
1, 23362, Note_on_c, 0, 62, 0
1, 23364, Note_on_c, 0, 74, 0
1, 23376, Note_on_c, 0, 70, 107
1, 23377, Note_on_c, 0, 58, 110
1, 23407, Note_on_c, 0, 70, 0
1, 23408, Note_on_c, 0, 58, 0
1, 23423, Note_on_c, 0, 69, 107
1, 23424, Note_on_c, 0, 57, 110
1, 23454, Note_on_c, 0, 57, 0
1, 23457, Note_on_c, 0, 69, 0
1, 23470, Note_on_c, 0, 55, 110
1, 23471, Note_on_c, 0, 67, 110
1, 23499, Note_on_c, 0, 67, 0
1, 23502, Note_on_c, 0, 55, 0
1, 23514, Note_on_c, 0, 65, 110
1, 23515, Note_on_c, 0, 53, 110
1, 23538, Note_on_c, 0, 53, 0
1, 23539, Note_on_c, 0, 65, 0
1, 23550, Note_on_c, 0, 64, 110
1, 23550, Note_on_c, 0, 52, 110
1, 23572, Note_on_c, 0, 52, 0
1, 23573, Note_on_c, 0, 64, 0
1, 23588, Note_on_c, 0, 62, 110
1, 23589, Note_on_c, 0, 50, 110
1, 23616, Note_on_c, 0, 50, 0
1, 23619, Note_on_c, 0, 62, 0
1, 23631, Note_on_c, 0, 61, 110
1, 23632, Note_on_c, 0, 49, 110
1, 23661, Note_on_c, 0, 49, 0
1, 23667, Note_on_c, 0, 61, 0
1, 23679, Note_on_c, 0, 52, 110
1, 23679, Note_on_c, 0, 64, 110
1, 23711, Note_on_c, 0, 64, 0
1, 23712, Note_on_c, 0, 52, 0
1, 23727, Note_on_c, 0, 57, 110
1, 23728, Note_on_c, 0, 45, 115
1, 23758, Note_on_c, 0, 45, 0
1, 23765, Note_on_c, 0, 57, 0
1, 23774, Note_on_c, 0, 67, 110
1, 23775, Note_on_c, 0, 79, 107
1, 23809, Note_on_c, 0, 79, 0
1, 23810, Note_on_c, 0, 67, 0
1, 23819, Note_on_c, 0, 77, 107
1, 23819, Note_on_c, 0, 65, 110
1, 23842, Note_on_c, 0, 77, 0
1, 23844, Note_on_c, 0, 65, 0
1, 23858, Note_on_c, 0, 76, 107
1, 23858, Note_on_c, 0, 64, 110
1, 23878, Note_on_c, 0, 64, 0
1, 23880, Note_on_c, 0, 76, 0
1, 23897, Note_on_c, 0, 74, 107
1, 23898, Note_on_c, 0, 62, 110
1, 23930, Note_on_c, 0, 62, 0
1, 23932, Note_on_c, 0, 74, 0
1, 23945, Note_on_c, 0, 73, 107
1, 23947, Note_on_c, 0, 61, 110
1, 23976, Note_on_c, 0, 61, 0
1, 23980, Note_on_c, 0, 73, 0
1, 23995, Note_on_c, 0, 82, 107
1, 23996, Note_on_c, 0, 70, 107
1, 24025, Note_on_c, 0, 70, 0
1, 24025, Note_on_c, 0, 82, 0
1, 24035, Note_on_c, 0, 69, 107
1, 24036, Note_on_c, 0, 81, 107
1, 24064, Note_on_c, 0, 81, 0
1, 24065, Note_on_c, 0, 69, 0
1, 24077, Note_on_c, 0, 79, 107
1, 24078, Note_on_c, 0, 67, 110
1, 24103, Note_on_c, 0, 67, 0
1, 24107, Note_on_c, 0, 79, 0
1, 24124, Note_on_c, 0, 77, 107
1, 24125, Note_on_c, 0, 65, 110
1, 24150, Note_on_c, 0, 65, 0
1, 24153, Note_on_c, 0, 77, 0
1, 24172, Note_on_c, 0, 76, 107
1, 24173, Note_on_c, 0, 64, 110
1, 24199, Note_on_c, 0, 64, 0
1, 24201, Note_on_c, 0, 76, 0
1, 24216, Note_on_c, 0, 74, 107
1, 24217, Note_on_c, 0, 86, 107
1, 24242, Note_on_c, 0, 86, 0
1, 24244, Note_on_c, 0, 74, 0
1, 24256, Note_on_c, 0, 85, 107
1, 24257, Note_on_c, 0, 73, 107
1, 24282, Note_on_c, 0, 73, 0
1, 24283, Note_on_c, 0, 85, 0
1, 24295, Note_on_c, 0, 83, 107
1, 24296, Note_on_c, 0, 71, 107
1, 24322, Note_on_c, 0, 83, 0
1, 24324, Note_on_c, 0, 71, 0
1, 24340, Note_on_c, 0, 81, 107
1, 24340, Note_on_c, 0, 69, 107
1, 24368, Note_on_c, 0, 81, 0
1, 24372, Note_on_c, 0, 69, 0
1, 24387, Note_on_c, 0, 79, 107
1, 24387, Note_on_c, 0, 67, 110
1, 24414, Note_on_c, 0, 79, 0
1, 24417, Note_on_c, 0, 67, 0
1, 24433, Note_on_c, 0, 89, 107
1, 24433, Note_on_c, 0, 77, 107
1, 24457, Note_on_c, 0, 77, 0
1, 24457, Note_on_c, 0, 89, 0
1, 24469, Note_on_c, 0, 88, 107
1, 24470, Note_on_c, 0, 76, 107
1, 24492, Note_on_c, 0, 76, 0
1, 24495, Note_on_c, 0, 88, 0
1, 24507, Note_on_c, 0, 86, 107
1, 24509, Note_on_c, 0, 74, 107
1, 24535, Note_on_c, 0, 74, 0
1, 24537, Note_on_c, 0, 86, 0
1, 24552, Note_on_c, 0, 84, 107
1, 24553, Note_on_c, 0, 72, 107
1, 24581, Note_on_c, 0, 72, 0
1, 24584, Note_on_c, 0, 84, 0
1, 24599, Note_on_c, 0, 82, 107
1, 24600, Note_on_c, 0, 70, 107
1, 24622, Note_on_c, 0, 70, 0
1, 24627, Note_on_c, 0, 82, 0
1, 24637, Note_on_c, 0, 92, 107
1, 24638, Note_on_c, 0, 80, 107
1, 24663, Note_on_c, 0, 92, 0
1, 24664, Note_on_c, 0, 80, 0
1, 24676, Note_on_c, 0, 77, 107
1, 24676, Note_on_c, 0, 89, 107
1, 24704, Note_on_c, 0, 89, 0
1, 24707, Note_on_c, 0, 77, 0
1, 24719, Note_on_c, 0, 76, 107
1, 24720, Note_on_c, 0, 88, 107
1, 24752, Note_on_c, 0, 88, 0
1, 24752, Note_on_c, 0, 76, 0
1, 24766, Note_on_c, 0, 74, 107
1, 24767, Note_on_c, 0, 86, 107
1, 24795, Note_on_c, 0, 86, 0
1, 24797, Note_on_c, 0, 74, 0
1, 24811, Note_on_c, 0, 73, 107
1, 24812, Note_on_c, 0, 85, 107
1, 24842, Note_on_c, 0, 85, 0
1, 24847, Note_on_c, 0, 73, 0
1, 24858, Note_on_c, 0, 88, 107
1, 24860, Note_on_c, 0, 76, 107
1, 24890, Note_on_c, 0, 76, 0
1, 24893, Note_on_c, 0, 88, 0
1, 24905, Note_on_c, 0, 81, 107
1, 24906, Note_on_c, 0, 93, 107
1, 24933, Note_on_c, 0, 93, 0
1, 24936, Note_on_c, 0, 81, 0
1, 24952, Note_on_c, 0, 76, 107
1, 24954, Note_on_c, 0, 88, 107
1, 24987, Note_on_c, 0, 88, 0
1, 24988, Note_on_c, 0, 76, 0
1, 25003, Note_on_c, 0, 73, 107
1, 25004, Note_on_c, 0, 85, 107
1, 25035, Note_on_c, 0, 73, 0
1, 25037, Note_on_c, 0, 85, 0
1, 25049, Note_on_c, 0, 76, 107
1, 25050, Note_on_c, 0, 88, 107
1, 25082, Note_on_c, 0, 88, 0
1, 25083, Note_on_c, 0, 76, 0
1, 25096, Note_on_c, 0, 73, 107
1, 25097, Note_on_c, 0, 85, 107
1, 25129, Note_on_c, 0, 73, 0
1, 25131, Note_on_c, 0, 85, 0
1, 25140, Note_on_c, 0, 81, 107
1, 25141, Note_on_c, 0, 69, 107
1, 25174, Note_on_c, 0, 69, 0
1, 25175, Note_on_c, 0, 81, 0
1, 25189, Note_on_c, 0, 85, 107
1, 25190, Note_on_c, 0, 73, 107
1, 25221, Note_on_c, 0, 73, 0
1, 25222, Note_on_c, 0, 85, 0
1, 25236, Note_on_c, 0, 81, 107
1, 25237, Note_on_c, 0, 69, 107
1, 25265, Note_on_c, 0, 81, 0
1, 25267, Note_on_c, 0, 69, 0
1, 25279, Note_on_c, 0, 64, 110
1, 25280, Note_on_c, 0, 76, 107
1, 25309, Note_on_c, 0, 76, 0
1, 25313, Note_on_c, 0, 64, 0
1, 25327, Note_on_c, 0, 81, 107
1, 25328, Note_on_c, 0, 69, 107
1, 25360, Note_on_c, 0, 69, 0
1, 25361, Note_on_c, 0, 81, 0
1, 25378, Note_on_c, 0, 76, 107
1, 25378, Note_on_c, 0, 64, 110
1, 25410, Note_on_c, 0, 76, 0
1, 25414, Note_on_c, 0, 64, 0
1, 25428, Note_on_c, 0, 73, 107
1, 25428, Note_on_c, 0, 61, 110
1, 25459, Note_on_c, 0, 61, 0
1, 25460, Note_on_c, 0, 73, 0
1, 25476, Note_on_c, 0, 76, 107
1, 25476, Note_on_c, 0, 64, 110
1, 25506, Note_on_c, 0, 76, 0
1, 25509, Note_on_c, 0, 64, 0
1, 25520, Note_on_c, 0, 61, 110
1, 25521, Note_on_c, 0, 73, 107
1, 25550, Note_on_c, 0, 73, 0
1, 25554, Note_on_c, 0, 61, 0
1, 25566, Note_on_c, 0, 69, 107
1, 25569, Note_on_c, 0, 57, 110
1, 25596, Note_on_c, 0, 57, 0
1, 25600, Note_on_c, 0, 69, 0
1, 25614, Note_on_c, 0, 52, 110
1, 25615, Note_on_c, 0, 64, 110
1, 25644, Note_on_c, 0, 64, 0
1, 25646, Note_on_c, 0, 52, 0
1, 25662, Note_on_c, 0, 61, 110
1, 25664, Note_on_c, 0, 49, 110
1, 25697, Note_on_c, 0, 61, 0
1, 25699, Note_on_c, 0, 49, 0
1, 25718, Note_on_c, 0, 57, 110
1, 25720, Note_on_c, 0, 45, 115
1, 25795, Note_on_c, 0, 45, 0
1, 25799, Note_on_c, 0, 57, 0
1, 25844, Note_on_c, 0, 93, 107
1, 25844, Note_on_c, 0, 81, 107
1, 25873, Note_on_c, 0, 81, 0
1, 25877, Note_on_c, 0, 93, 0
1, 25884, Note_on_c, 0, 92, 107
1, 25884, Note_on_c, 0, 80, 107
1, 25927, Note_on_c, 0, 80, 0
1, 25927, Note_on_c, 0, 92, 0
1, 25936, Note_on_c, 0, 93, 107
1, 25936, Note_on_c, 0, 81, 107
1, 25964, Note_on_c, 0, 81, 0
1, 25967, Note_on_c, 0, 93, 0
1, 25972, Note_on_c, 0, 92, 107
1, 25973, Note_on_c, 0, 80, 107
1, 26009, Note_on_c, 0, 80, 0
1, 26011, Note_on_c, 0, 92, 0
1, 26018, Note_on_c, 0, 93, 107
1, 26019, Note_on_c, 0, 81, 107
1, 26209, Note_on_c, 0, 93, 0
1, 26213, Note_on_c, 0, 81, 0
1, 26235, Note_on_c, 0, 76, 107
1, 26236, Note_on_c, 0, 64, 110
1, 26281, Note_on_c, 0, 64, 0
1, 26285, Note_on_c, 0, 76, 0
1, 26302, Note_on_c, 0, 77, 107
1, 26304, Note_on_c, 0, 65, 110
1, 26337, Note_on_c, 0, 65, 0
1, 26342, Note_on_c, 0, 77, 0
1, 26357, Note_on_c, 0, 67, 110
1, 26358, Note_on_c, 0, 79, 107
1, 26390, Note_on_c, 0, 79, 0
1, 26396, Note_on_c, 0, 67, 0
1, 26404, Note_on_c, 0, 81, 107
1, 26405, Note_on_c, 0, 69, 107
1, 26433, Note_on_c, 0, 69, 0
1, 26434, Note_on_c, 0, 81, 0
1, 26448, Note_on_c, 0, 83, 107
1, 26448, Note_on_c, 0, 71, 107
1, 26471, Note_on_c, 0, 71, 0
1, 26473, Note_on_c, 0, 83, 0
1, 26485, Note_on_c, 0, 85, 107
1, 26486, Note_on_c, 0, 73, 107
1, 26510, Note_on_c, 0, 73, 0
1, 26513, Note_on_c, 0, 85, 0
1, 26524, Note_on_c, 0, 86, 107
1, 26525, Note_on_c, 0, 74, 107
1, 26549, Note_on_c, 0, 74, 0
1, 26554, Note_on_c, 0, 86, 0
1, 26564, Note_on_c, 0, 88, 107
1, 26565, Note_on_c, 0, 76, 107
1, 26587, Note_on_c, 0, 76, 0
1, 26590, Note_on_c, 0, 88, 0
1, 26601, Note_on_c, 0, 77, 107
1, 26602, Note_on_c, 0, 89, 107
1, 26623, Note_on_c, 0, 89, 0
1, 26626, Note_on_c, 0, 77, 0
1, 26639, Note_on_c, 0, 91, 107
1, 26640, Note_on_c, 0, 79, 107
1, 26664, Note_on_c, 0, 79, 0
1, 26665, Note_on_c, 0, 91, 0
1, 26675, Note_on_c, 0, 93, 107
1, 26676, Note_on_c, 0, 81, 107
1, 26698, Note_on_c, 0, 81, 0
1, 26701, Note_on_c, 0, 93, 0
1, 26709, Note_on_c, 0, 94, 107
1, 26711, Note_on_c, 0, 82, 107
1, 26731, Note_on_c, 0, 82, 0
1, 26734, Note_on_c, 0, 94, 0
1, 26744, Note_on_c, 0, 93, 107
1, 26745, Note_on_c, 0, 81, 107
1, 26764, Note_on_c, 0, 81, 0
1, 26767, Note_on_c, 0, 93, 0
1, 26777, Note_on_c, 0, 91, 107
1, 26779, Note_on_c, 0, 79, 107
1, 26796, Note_on_c, 0, 79, 0
1, 26798, Note_on_c, 0, 91, 0
1, 26808, Note_on_c, 0, 89, 107
1, 26809, Note_on_c, 0, 77, 107
1, 26830, Note_on_c, 0, 77, 0
1, 26834, Note_on_c, 0, 89, 0
1, 26841, Note_on_c, 0, 88, 107
1, 26842, Note_on_c, 0, 76, 107
1, 26866, Note_on_c, 0, 76, 0
1, 26871, Note_on_c, 0, 88, 0
1, 26877, Note_on_c, 0, 89, 107
1, 26879, Note_on_c, 0, 77, 107
1, 26904, Note_on_c, 0, 77, 0
1, 26906, Note_on_c, 0, 89, 0
1, 26914, Note_on_c, 0, 91, 107
1, 26916, Note_on_c, 0, 79, 107
1, 26935, Note_on_c, 0, 79, 0
1, 26939, Note_on_c, 0, 91, 0
1, 26952, Note_on_c, 0, 89, 107
1, 26953, Note_on_c, 0, 77, 107
1, 26973, Note_on_c, 0, 77, 0
1, 26976, Note_on_c, 0, 89, 0
1, 26983, Note_on_c, 0, 88, 107
1, 26985, Note_on_c, 0, 76, 107
1, 27007, Note_on_c, 0, 76, 0
1, 27013, Note_on_c, 0, 88, 0
1, 27019, Note_on_c, 0, 74, 107
1, 27019, Note_on_c, 0, 86, 107
1, 27036, Note_on_c, 0, 74, 0
1, 27040, Note_on_c, 0, 86, 0
1, 27051, Note_on_c, 0, 85, 107
1, 27052, Note_on_c, 0, 73, 107
1, 27076, Note_on_c, 0, 73, 0
1, 27080, Note_on_c, 0, 85, 0
1, 27087, Note_on_c, 0, 86, 107
1, 27089, Note_on_c, 0, 74, 107
1, 27107, Note_on_c, 0, 74, 0
1, 27111, Note_on_c, 0, 86, 0
1, 27122, Note_on_c, 0, 88, 107
1, 27123, Note_on_c, 0, 76, 107
1, 27151, Note_on_c, 0, 76, 0
1, 27154, Note_on_c, 0, 88, 0
1, 27163, Note_on_c, 0, 86, 107
1, 27164, Note_on_c, 0, 74, 107
1, 27178, Note_on_c, 0, 74, 0
1, 27184, Note_on_c, 0, 86, 0
1, 27192, Note_on_c, 0, 85, 107
1, 27194, Note_on_c, 0, 73, 107
1, 27222, Note_on_c, 0, 73, 0
1, 27226, Note_on_c, 0, 85, 0
1, 27229, Note_on_c, 0, 83, 107
1, 27231, Note_on_c, 0, 71, 107
1, 27250, Note_on_c, 0, 71, 0
1, 27253, Note_on_c, 0, 83, 0
1, 27264, Note_on_c, 0, 81, 107
1, 27265, Note_on_c, 0, 69, 107
1, 27286, Note_on_c, 0, 69, 0
1, 27289, Note_on_c, 0, 81, 0
1, 27296, Note_on_c, 0, 79, 107
1, 27298, Note_on_c, 0, 67, 110
1, 27320, Note_on_c, 0, 67, 0
1, 27324, Note_on_c, 0, 79, 0
1, 27333, Note_on_c, 0, 82, 107
1, 27334, Note_on_c, 0, 70, 107
1, 27357, Note_on_c, 0, 70, 0
1, 27359, Note_on_c, 0, 82, 0
1, 27371, Note_on_c, 0, 81, 107
1, 27372, Note_on_c, 0, 69, 107
1, 27393, Note_on_c, 0, 69, 0
1, 27396, Note_on_c, 0, 81, 0
1, 27408, Note_on_c, 0, 79, 107
1, 27408, Note_on_c, 0, 67, 110
1, 27432, Note_on_c, 0, 67, 0
1, 27432, Note_on_c, 0, 79, 0
1, 27445, Note_on_c, 0, 77, 107
1, 27446, Note_on_c, 0, 65, 110
1, 27466, Note_on_c, 0, 65, 0
1, 27467, Note_on_c, 0, 77, 0
1, 27480, Note_on_c, 0, 76, 107
1, 27482, Note_on_c, 0, 64, 110
1, 27503, Note_on_c, 0, 64, 0
1, 27506, Note_on_c, 0, 76, 0
1, 27519, Note_on_c, 0, 77, 107
1, 27520, Note_on_c, 0, 65, 110
1, 27540, Note_on_c, 0, 65, 0
1, 27541, Note_on_c, 0, 77, 0
1, 27554, Note_on_c, 0, 79, 107
1, 27555, Note_on_c, 0, 67, 110
1, 27586, Note_on_c, 0, 67, 0
1, 27587, Note_on_c, 0, 79, 0
1, 27596, Note_on_c, 0, 77, 107
1, 27598, Note_on_c, 0, 65, 110
1, 27620, Note_on_c, 0, 65, 0
1, 27623, Note_on_c, 0, 77, 0
1, 27634, Note_on_c, 0, 76, 107
1, 27635, Note_on_c, 0, 64, 110
1, 27654, Note_on_c, 0, 64, 0
1, 27660, Note_on_c, 0, 76, 0
1, 27670, Note_on_c, 0, 74, 107
1, 27671, Note_on_c, 0, 62, 110
1, 27691, Note_on_c, 0, 62, 0
1, 27694, Note_on_c, 0, 74, 0
1, 27702, Note_on_c, 0, 73, 107
1, 27704, Note_on_c, 0, 61, 110
1, 27729, Note_on_c, 0, 61, 0
1, 27732, Note_on_c, 0, 73, 0
1, 27737, Note_on_c, 0, 74, 107
1, 27739, Note_on_c, 0, 62, 110
1, 27760, Note_on_c, 0, 62, 0
1, 27760, Note_on_c, 0, 74, 0
1, 27774, Note_on_c, 0, 76, 107
1, 27775, Note_on_c, 0, 64, 110
1, 27802, Note_on_c, 0, 64, 0
1, 27806, Note_on_c, 0, 76, 0
1, 27816, Note_on_c, 0, 74, 107
1, 27817, Note_on_c, 0, 62, 110
1, 27839, Note_on_c, 0, 62, 0
1, 27842, Note_on_c, 0, 74, 0
1, 27853, Note_on_c, 0, 73, 107
1, 27855, Note_on_c, 0, 61, 110
1, 27878, Note_on_c, 0, 61, 0
1, 27882, Note_on_c, 0, 73, 0
1, 27890, Note_on_c, 0, 71, 107
1, 27891, Note_on_c, 0, 59, 110
1, 27913, Note_on_c, 0, 59, 0
1, 27917, Note_on_c, 0, 71, 0
1, 27927, Note_on_c, 0, 69, 107
1, 27928, Note_on_c, 0, 57, 110
1, 27950, Note_on_c, 0, 57, 0
1, 27951, Note_on_c, 0, 69, 0
1, 27959, Note_on_c, 0, 67, 110
1, 27960, Note_on_c, 0, 55, 110
1, 27983, Note_on_c, 0, 55, 0
1, 27986, Note_on_c, 0, 67, 0
1, 27997, Note_on_c, 0, 70, 107
1, 27998, Note_on_c, 0, 58, 110
1, 28019, Note_on_c, 0, 58, 0
1, 28022, Note_on_c, 0, 70, 0
1, 28032, Note_on_c, 0, 69, 107
1, 28033, Note_on_c, 0, 57, 110
1, 28061, Note_on_c, 0, 69, 0
1, 28062, Note_on_c, 0, 57, 0
1, 28075, Note_on_c, 0, 67, 110
1, 28076, Note_on_c, 0, 55, 110
1, 28095, Note_on_c, 0, 55, 0
1, 28099, Note_on_c, 0, 67, 0
1, 28110, Note_on_c, 0, 65, 110
1, 28111, Note_on_c, 0, 53, 110
1, 28136, Note_on_c, 0, 53, 0
1, 28139, Note_on_c, 0, 65, 0
1, 28146, Note_on_c, 0, 64, 110
1, 28147, Note_on_c, 0, 52, 110
1, 28164, Note_on_c, 0, 52, 0
1, 28168, Note_on_c, 0, 64, 0
1, 28178, Note_on_c, 0, 65, 110
1, 28179, Note_on_c, 0, 53, 110
1, 28203, Note_on_c, 0, 65, 0
1, 28205, Note_on_c, 0, 53, 0
1, 28217, Note_on_c, 0, 67, 110
1, 28218, Note_on_c, 0, 55, 110
1, 28237, Note_on_c, 0, 67, 0
1, 28238, Note_on_c, 0, 55, 0
1, 28251, Note_on_c, 0, 53, 110
1, 28255, Note_on_c, 0, 65, 110
1, 28277, Note_on_c, 0, 65, 0
1, 28282, Note_on_c, 0, 53, 0
1, 28292, Note_on_c, 0, 64, 110
1, 28293, Note_on_c, 0, 52, 110
1, 28318, Note_on_c, 0, 52, 0
1, 28321, Note_on_c, 0, 64, 0
1, 28331, Note_on_c, 0, 62, 110
1, 28332, Note_on_c, 0, 50, 110
1, 28353, Note_on_c, 0, 50, 0
1, 28356, Note_on_c, 0, 62, 0
1, 28366, Note_on_c, 0, 61, 110
1, 28367, Note_on_c, 0, 49, 110
1, 28387, Note_on_c, 0, 49, 0
1, 28391, Note_on_c, 0, 61, 0
1, 28399, Note_on_c, 0, 62, 110
1, 28402, Note_on_c, 0, 50, 110
1, 28425, Note_on_c, 0, 50, 0
1, 28429, Note_on_c, 0, 62, 0
1, 28436, Note_on_c, 0, 64, 110
1, 28437, Note_on_c, 0, 52, 110
1, 28454, Note_on_c, 0, 52, 0
1, 28459, Note_on_c, 0, 64, 0
1, 28472, Note_on_c, 0, 50, 110
1, 28473, Note_on_c, 0, 62, 110
1, 28496, Note_on_c, 0, 50, 0
1, 28498, Note_on_c, 0, 62, 0
1, 28510, Note_on_c, 0, 61, 110
1, 28511, Note_on_c, 0, 49, 110
1, 28533, Note_on_c, 0, 49, 0
1, 28538, Note_on_c, 0, 61, 0
1, 28546, Note_on_c, 0, 59, 110
1, 28548, Note_on_c, 0, 47, 115
1, 28565, Note_on_c, 0, 47, 0
1, 28570, Note_on_c, 0, 59, 0
1, 28581, Note_on_c, 0, 57, 110
1, 28582, Note_on_c, 0, 45, 115
1, 28602, Note_on_c, 0, 45, 0
1, 28606, Note_on_c, 0, 57, 0
1, 28615, Note_on_c, 0, 59, 110
1, 28617, Note_on_c, 0, 47, 115
1, 28640, Note_on_c, 0, 47, 0
1, 28642, Note_on_c, 0, 59, 0
1, 28652, Note_on_c, 0, 61, 110
1, 28653, Note_on_c, 0, 49, 110
1, 28673, Note_on_c, 0, 49, 0
1, 28676, Note_on_c, 0, 61, 0
1, 28687, Note_on_c, 0, 62, 110
1, 28688, Note_on_c, 0, 50, 110
1, 28712, Note_on_c, 0, 50, 0
1, 28715, Note_on_c, 0, 62, 0
1, 28724, Note_on_c, 0, 64, 110
1, 28725, Note_on_c, 0, 52, 110
1, 28747, Note_on_c, 0, 64, 0
1, 28749, Note_on_c, 0, 52, 0
1, 28758, Note_on_c, 0, 65, 110
1, 28759, Note_on_c, 0, 53, 110
1, 28781, Note_on_c, 0, 53, 0
1, 28784, Note_on_c, 0, 65, 0
1, 28792, Note_on_c, 0, 67, 110
1, 28793, Note_on_c, 0, 55, 110
1, 28810, Note_on_c, 0, 55, 0
1, 28813, Note_on_c, 0, 67, 0
1, 28824, Note_on_c, 0, 65, 110
1, 28825, Note_on_c, 0, 53, 110
1, 28849, Note_on_c, 0, 53, 0
1, 28852, Note_on_c, 0, 65, 0
1, 28860, Note_on_c, 0, 64, 110
1, 28860, Note_on_c, 0, 52, 110
1, 28881, Note_on_c, 0, 52, 0
1, 28884, Note_on_c, 0, 64, 0
1, 28894, Note_on_c, 0, 67, 110
1, 28895, Note_on_c, 0, 55, 110
1, 28919, Note_on_c, 0, 55, 0
1, 28922, Note_on_c, 0, 67, 0
1, 28932, Note_on_c, 0, 65, 110
1, 28933, Note_on_c, 0, 53, 110
1, 28951, Note_on_c, 0, 53, 0
1, 28955, Note_on_c, 0, 65, 0
1, 28967, Note_on_c, 0, 64, 110
1, 28968, Note_on_c, 0, 52, 110
1, 28992, Note_on_c, 0, 52, 0
1, 28995, Note_on_c, 0, 64, 0
1, 29004, Note_on_c, 0, 62, 110
1, 29005, Note_on_c, 0, 50, 110
1, 29032, Note_on_c, 0, 50, 0
1, 29034, Note_on_c, 0, 62, 0
1, 29045, Note_on_c, 0, 61, 110
1, 29047, Note_on_c, 0, 49, 110
1, 29068, Note_on_c, 0, 49, 0
1, 29072, Note_on_c, 0, 61, 0
1, 29078, Note_on_c, 0, 59, 110
1, 29079, Note_on_c, 0, 47, 115
1, 29101, Note_on_c, 0, 47, 0
1, 29105, Note_on_c, 0, 59, 0
1, 29112, Note_on_c, 0, 57, 110
1, 29113, Note_on_c, 0, 45, 115
1, 29134, Note_on_c, 0, 45, 0
1, 29136, Note_on_c, 0, 57, 0
1, 29145, Note_on_c, 0, 59, 110
1, 29146, Note_on_c, 0, 47, 115
1, 29162, Note_on_c, 0, 47, 0
1, 29167, Note_on_c, 0, 59, 0
1, 29178, Note_on_c, 0, 61, 110
1, 29179, Note_on_c, 0, 49, 110
1, 29204, Note_on_c, 0, 61, 0
1, 29207, Note_on_c, 0, 49, 0
1, 29217, Note_on_c, 0, 62, 110
1, 29218, Note_on_c, 0, 50, 110
1, 29238, Note_on_c, 0, 50, 0
1, 29243, Note_on_c, 0, 62, 0
1, 29249, Note_on_c, 0, 64, 110
1, 29251, Note_on_c, 0, 52, 110
1, 29276, Note_on_c, 0, 52, 0
1, 29279, Note_on_c, 0, 64, 0
1, 29286, Note_on_c, 0, 65, 110
1, 29287, Note_on_c, 0, 53, 110
1, 29309, Note_on_c, 0, 53, 0
1, 29314, Note_on_c, 0, 65, 0
1, 29322, Note_on_c, 0, 67, 110
1, 29323, Note_on_c, 0, 55, 110
1, 29349, Note_on_c, 0, 55, 0
1, 29351, Note_on_c, 0, 67, 0
1, 29360, Note_on_c, 0, 69, 107
1, 29361, Note_on_c, 0, 57, 110
1, 29379, Note_on_c, 0, 57, 0
1, 29382, Note_on_c, 0, 69, 0
1, 29394, Note_on_c, 0, 70, 107
1, 29395, Note_on_c, 0, 58, 110
1, 29422, Note_on_c, 0, 58, 0
1, 29423, Note_on_c, 0, 70, 0
1, 29432, Note_on_c, 0, 69, 107
1, 29433, Note_on_c, 0, 57, 110
1, 29448, Note_on_c, 0, 57, 0
1, 29450, Note_on_c, 0, 69, 0
1, 29462, Note_on_c, 0, 67, 110
1, 29464, Note_on_c, 0, 55, 110
1, 29484, Note_on_c, 0, 55, 0
1, 29485, Note_on_c, 0, 67, 0
1, 29493, Note_on_c, 0, 65, 110
1, 29497, Note_on_c, 0, 53, 110
1, 29519, Note_on_c, 0, 53, 0
1, 29522, Note_on_c, 0, 65, 0
1, 29531, Note_on_c, 0, 69, 107
1, 29532, Note_on_c, 0, 57, 110
1, 29556, Note_on_c, 0, 57, 0
1, 29558, Note_on_c, 0, 69, 0
1, 29568, Note_on_c, 0, 67, 110
1, 29569, Note_on_c, 0, 55, 110
1, 29593, Note_on_c, 0, 55, 0
1, 29595, Note_on_c, 0, 67, 0
1, 29607, Note_on_c, 0, 53, 110
1, 29608, Note_on_c, 0, 65, 110
1, 29636, Note_on_c, 0, 53, 0
1, 29638, Note_on_c, 0, 65, 0
1, 29647, Note_on_c, 0, 64, 110
1, 29649, Note_on_c, 0, 52, 110
1, 29667, Note_on_c, 0, 64, 0
1, 29670, Note_on_c, 0, 52, 0
1, 29683, Note_on_c, 0, 50, 110
1, 29684, Note_on_c, 0, 62, 110
1, 29710, Note_on_c, 0, 50, 0
1, 29712, Note_on_c, 0, 62, 0
1, 29722, Note_on_c, 0, 49, 110
1, 29723, Note_on_c, 0, 61, 110
1, 29746, Note_on_c, 0, 49, 0
1, 29748, Note_on_c, 0, 61, 0
1, 29757, Note_on_c, 0, 62, 110
1, 29759, Note_on_c, 0, 50, 110
1, 29780, Note_on_c, 0, 50, 0
1, 29784, Note_on_c, 0, 62, 0
1, 29795, Note_on_c, 0, 52, 110
1, 29796, Note_on_c, 0, 64, 110
1, 29820, Note_on_c, 0, 52, 0
1, 29821, Note_on_c, 0, 64, 0
1, 29830, Note_on_c, 0, 65, 110
1, 29832, Note_on_c, 0, 53, 110
1, 29848, Note_on_c, 0, 53, 0
1, 29852, Note_on_c, 0, 65, 0
1, 29864, Note_on_c, 0, 67, 110
1, 29865, Note_on_c, 0, 55, 110
1, 29880, Note_on_c, 0, 55, 0
1, 29881, Note_on_c, 0, 67, 0
1, 29896, Note_on_c, 0, 69, 107
1, 29897, Note_on_c, 0, 57, 110
1, 29916, Note_on_c, 0, 57, 0
1, 29918, Note_on_c, 0, 69, 0
1, 29927, Note_on_c, 0, 70, 107
1, 29928, Note_on_c, 0, 58, 110
1, 29946, Note_on_c, 0, 58, 0
1, 29950, Note_on_c, 0, 70, 0
1, 29960, Note_on_c, 0, 69, 107
1, 29961, Note_on_c, 0, 57, 110
1, 29981, Note_on_c, 0, 57, 0
1, 29990, Note_on_c, 0, 69, 0
1, 29997, Note_on_c, 0, 67, 110
1, 29997, Note_on_c, 0, 55, 110
1, 30023, Note_on_c, 0, 55, 0
1, 30027, Note_on_c, 0, 67, 0
1, 30033, Note_on_c, 0, 69, 107
1, 30035, Note_on_c, 0, 57, 110
1, 30062, Note_on_c, 0, 57, 0
1, 30067, Note_on_c, 0, 69, 0
1, 30073, Note_on_c, 0, 71, 107
1, 30075, Note_on_c, 0, 59, 110
1, 30097, Note_on_c, 0, 59, 0
1, 30099, Note_on_c, 0, 71, 0
1, 30110, Note_on_c, 0, 73, 107
1, 30111, Note_on_c, 0, 61, 110
1, 30132, Note_on_c, 0, 61, 0
1, 30134, Note_on_c, 0, 73, 0
1, 30145, Note_on_c, 0, 74, 107
1, 30147, Note_on_c, 0, 62, 110
1, 30165, Note_on_c, 0, 62, 0
1, 30168, Note_on_c, 0, 74, 0
1, 30176, Note_on_c, 0, 76, 107
1, 30177, Note_on_c, 0, 64, 110
1, 30202, Note_on_c, 0, 64, 0
1, 30203, Note_on_c, 0, 76, 0
1, 30214, Note_on_c, 0, 77, 107
1, 30215, Note_on_c, 0, 65, 110
1, 30238, Note_on_c, 0, 65, 0
1, 30240, Note_on_c, 0, 77, 0
1, 30252, Note_on_c, 0, 79, 107
1, 30254, Note_on_c, 0, 67, 110
1, 30279, Note_on_c, 0, 67, 0
1, 30283, Note_on_c, 0, 79, 0
1, 30293, Note_on_c, 0, 77, 107
1, 30294, Note_on_c, 0, 65, 110
1, 30312, Note_on_c, 0, 77, 0
1, 30316, Note_on_c, 0, 65, 0
1, 30327, Note_on_c, 0, 79, 107
1, 30327, Note_on_c, 0, 67, 110
1, 30350, Note_on_c, 0, 67, 0
1, 30353, Note_on_c, 0, 79, 0
1, 30361, Note_on_c, 0, 81, 107
1, 30363, Note_on_c, 0, 69, 107
1, 30384, Note_on_c, 0, 81, 0
1, 30385, Note_on_c, 0, 69, 0
1, 30397, Note_on_c, 0, 76, 107
1, 30398, Note_on_c, 0, 64, 110
1, 30421, Note_on_c, 0, 64, 0
1, 30424, Note_on_c, 0, 76, 0
1, 30434, Note_on_c, 0, 77, 107
1, 30437, Note_on_c, 0, 65, 110
1, 30461, Note_on_c, 0, 65, 0
1, 30466, Note_on_c, 0, 77, 0
1, 30472, Note_on_c, 0, 73, 107
1, 30475, Note_on_c, 0, 61, 110
1, 30493, Note_on_c, 0, 61, 0
1, 30497, Note_on_c, 0, 73, 0
1, 30509, Note_on_c, 0, 74, 107
1, 30510, Note_on_c, 0, 62, 110
1, 30535, Note_on_c, 0, 62, 0
1, 30536, Note_on_c, 0, 74, 0
1, 30547, Note_on_c, 0, 69, 107
1, 30548, Note_on_c, 0, 57, 110
1, 30566, Note_on_c, 0, 57, 0
1, 30569, Note_on_c, 0, 69, 0
1, 30580, Note_on_c, 0, 65, 110
1, 30581, Note_on_c, 0, 53, 110
1, 30607, Note_on_c, 0, 53, 0
1, 30611, Note_on_c, 0, 65, 0
1, 30619, Note_on_c, 0, 67, 110
1, 30620, Note_on_c, 0, 55, 110
1, 30644, Note_on_c, 0, 55, 0
1, 30647, Note_on_c, 0, 67, 0
1, 30658, Note_on_c, 0, 69, 107
1, 30659, Note_on_c, 0, 57, 110
1, 30684, Note_on_c, 0, 57, 0
1, 30688, Note_on_c, 0, 69, 0
1, 30696, Note_on_c, 0, 65, 110
1, 30698, Note_on_c, 0, 53, 110
1, 30723, Note_on_c, 0, 53, 0
1, 30729, Note_on_c, 0, 65, 0
1, 30738, Note_on_c, 0, 50, 110
1, 30738, Note_on_c, 0, 62, 110
1, 30762, Note_on_c, 0, 50, 0
1, 30764, Note_on_c, 0, 62, 0
1, 30777, Note_on_c, 0, 65, 110
1, 30778, Note_on_c, 0, 53, 110
1, 30811, Note_on_c, 0, 53, 0
1, 30813, Note_on_c, 0, 65, 0
1, 30819, Note_on_c, 0, 64, 110
1, 30820, Note_on_c, 0, 52, 110
1, 30850, Note_on_c, 0, 52, 0
1, 30853, Note_on_c, 0, 64, 0
1, 30858, Note_on_c, 0, 62, 110
1, 30859, Note_on_c, 0, 50, 110
1, 30877, Note_on_c, 0, 50, 0
1, 30880, Note_on_c, 0, 62, 0
1, 30895, Note_on_c, 0, 68, 107
1, 30896, Note_on_c, 0, 56, 110
1, 30919, Note_on_c, 0, 56, 0
1, 30922, Note_on_c, 0, 68, 0
1, 30932, Note_on_c, 0, 54, 110
1, 30932, Note_on_c, 0, 66, 110
1, 30960, Note_on_c, 0, 54, 0
1, 30961, Note_on_c, 0, 66, 0
1, 30973, Note_on_c, 0, 64, 110
1, 30975, Note_on_c, 0, 52, 110
1, 30996, Note_on_c, 0, 52, 0
1, 31000, Note_on_c, 0, 64, 0
1, 31010, Note_on_c, 0, 71, 107
1, 31013, Note_on_c, 0, 59, 110
1, 31035, Note_on_c, 0, 59, 0
1, 31039, Note_on_c, 0, 71, 0
1, 31049, Note_on_c, 0, 69, 107
1, 31050, Note_on_c, 0, 57, 110
1, 31072, Note_on_c, 0, 57, 0
1, 31075, Note_on_c, 0, 69, 0
1, 31088, Note_on_c, 0, 68, 107
1, 31089, Note_on_c, 0, 56, 110
1, 31111, Note_on_c, 0, 68, 0
1, 31113, Note_on_c, 0, 56, 0
1, 31124, Note_on_c, 0, 74, 107
1, 31125, Note_on_c, 0, 62, 110
1, 31143, Note_on_c, 0, 62, 0
1, 31147, Note_on_c, 0, 74, 0
1, 31161, Note_on_c, 0, 72, 107
1, 31162, Note_on_c, 0, 60, 110
1, 31187, Note_on_c, 0, 60, 0
1, 31191, Note_on_c, 0, 72, 0
1, 31200, Note_on_c, 0, 71, 107
1, 31200, Note_on_c, 0, 59, 110
1, 31224, Note_on_c, 0, 59, 0
1, 31227, Note_on_c, 0, 71, 0
1, 31236, Note_on_c, 0, 77, 107
1, 31238, Note_on_c, 0, 65, 110
1, 31257, Note_on_c, 0, 65, 0
1, 31258, Note_on_c, 0, 77, 0
1, 31271, Note_on_c, 0, 76, 107
1, 31272, Note_on_c, 0, 64, 110
1, 31302, Note_on_c, 0, 64, 0
1, 31305, Note_on_c, 0, 76, 0
1, 31312, Note_on_c, 0, 74, 107
1, 31312, Note_on_c, 0, 62, 110
1, 31332, Note_on_c, 0, 62, 0
1, 31336, Note_on_c, 0, 74, 0
1, 31344, Note_on_c, 0, 80, 107
1, 31344, Note_on_c, 0, 68, 107
1, 31373, Note_on_c, 0, 68, 0
1, 31376, Note_on_c, 0, 80, 0
1, 31384, Note_on_c, 0, 77, 107
1, 31384, Note_on_c, 0, 65, 110
1, 31406, Note_on_c, 0, 77, 0
1, 31407, Note_on_c, 0, 65, 0
1, 31418, Note_on_c, 0, 76, 107
1, 31422, Note_on_c, 0, 64, 110
1, 31443, Note_on_c, 0, 64, 0
1, 31447, Note_on_c, 0, 76, 0
1, 31458, Note_on_c, 0, 83, 107
1, 31459, Note_on_c, 0, 71, 107
1, 31483, Note_on_c, 0, 71, 0
1, 31486, Note_on_c, 0, 83, 0
1, 31496, Note_on_c, 0, 81, 107
1, 31498, Note_on_c, 0, 69, 107
1, 31515, Note_on_c, 0, 69, 0
1, 31522, Note_on_c, 0, 81, 0
1, 31530, Note_on_c, 0, 80, 107
1, 31531, Note_on_c, 0, 68, 107
1, 31552, Note_on_c, 0, 68, 0
1, 31555, Note_on_c, 0, 80, 0
1, 31568, Note_on_c, 0, 86, 107
1, 31569, Note_on_c, 0, 74, 107
1, 31593, Note_on_c, 0, 74, 0
1, 31596, Note_on_c, 0, 86, 0
1, 31608, Note_on_c, 0, 84, 107
1, 31609, Note_on_c, 0, 72, 107
1, 31635, Note_on_c, 0, 72, 0
1, 31640, Note_on_c, 0, 84, 0
1, 31647, Note_on_c, 0, 83, 107
1, 31648, Note_on_c, 0, 71, 107
1, 31668, Note_on_c, 0, 83, 0
1, 31669, Note_on_c, 0, 71, 0
1, 31685, Note_on_c, 0, 77, 107
1, 31686, Note_on_c, 0, 89, 107
1, 31711, Note_on_c, 0, 77, 0
1, 31714, Note_on_c, 0, 89, 0
1, 31725, Note_on_c, 0, 88, 107
1, 31725, Note_on_c, 0, 76, 107
1, 31752, Note_on_c, 0, 76, 0
1, 31753, Note_on_c, 0, 88, 0
1, 31767, Note_on_c, 0, 86, 107
1, 31768, Note_on_c, 0, 74, 107
1, 31793, Note_on_c, 0, 74, 0
1, 31797, Note_on_c, 0, 86, 0
1, 31807, Note_on_c, 0, 92, 107
1, 31808, Note_on_c, 0, 80, 107
1, 31896, Note_on_c, 0, 80, 0
1, 31896, Note_on_c, 0, 92, 0
1, 31899, Note_on_c, 0, 93, 107
1, 31900, Note_on_c, 0, 81, 107
1, 31971, Note_on_c, 0, 81, 0
1, 31973, Note_on_c, 0, 93, 0
1, 31976, Note_on_c, 0, 80, 107
1, 31978, Note_on_c, 0, 92, 107
1, 32058, Note_on_c, 0, 92, 0
1, 32061, Note_on_c, 0, 80, 0
1, 32066, Note_on_c, 0, 78, 107
1, 32067, Note_on_c, 0, 90, 107
1, 32154, Note_on_c, 0, 90, 0
1, 32155, Note_on_c, 0, 78, 0
1, 32159, Note_on_c, 0, 80, 107
1, 32160, Note_on_c, 0, 92, 107
1, 32228, Note_on_c, 0, 80, 0
1, 32229, Note_on_c, 0, 92, 0
1, 32235, Note_on_c, 0, 93, 107
1, 32236, Note_on_c, 0, 81, 107
1, 32280, Note_on_c, 0, 93, 0
1, 32281, Note_on_c, 0, 81, 0
1, 32285, Note_on_c, 0, 92, 107
1, 32286, Note_on_c, 0, 80, 107
1, 32320, Note_on_c, 0, 92, 0
1, 32324, Note_on_c, 0, 80, 0
1, 32328, Note_on_c, 0, 81, 107
1, 32329, Note_on_c, 0, 93, 107
1, 32364, Note_on_c, 0, 92, 107
1, 32365, Note_on_c, 0, 80, 107
1, 32366, Note_on_c, 0, 93, 0
1, 32367, Note_on_c, 0, 81, 0
1, 32400, Note_on_c, 0, 80, 0
1, 32402, Note_on_c, 0, 92, 0
1, 32407, Note_on_c, 0, 93, 107
1, 32408, Note_on_c, 0, 81, 107
1, 32440, Note_on_c, 0, 81, 0
1, 32447, Note_on_c, 0, 93, 0
1, 32449, Note_on_c, 0, 80, 107
1, 32449, Note_on_c, 0, 92, 107
1, 32476, Note_on_c, 0, 80, 0
1, 32481, Note_on_c, 0, 92, 0
1, 32493, Note_on_c, 0, 90, 107
1, 32493, Note_on_c, 0, 78, 107
1, 32527, Note_on_c, 0, 90, 0
1, 32531, Note_on_c, 0, 78, 0
1, 32540, Note_on_c, 0, 80, 107
1, 32541, Note_on_c, 0, 92, 107
1, 32580, Note_on_c, 0, 92, 0
1, 32584, Note_on_c, 0, 80, 0
1, 32585, Note_on_c, 0, 93, 107
1, 32587, Note_on_c, 0, 81, 107
1, 32639, Note_on_c, 0, 98, 107
1, 32640, Note_on_c, 0, 86, 107
1, 32645, Note_on_c, 0, 81, 0
1, 32646, Note_on_c, 0, 93, 0
1, 32696, Note_on_c, 0, 86, 0
1, 32698, Note_on_c, 0, 98, 0
1, 32700, Note_on_c, 0, 93, 107
1, 32702, Note_on_c, 0, 81, 107
1, 32742, Note_on_c, 0, 81, 0
1, 32747, Note_on_c, 0, 93, 0
1, 32749, Note_on_c, 0, 77, 107
1, 32751, Note_on_c, 0, 89, 107
1, 32792, Note_on_c, 0, 89, 0
1, 32797, Note_on_c, 0, 77, 0
1, 32798, Note_on_c, 0, 93, 107
1, 32799, Note_on_c, 0, 81, 107
1, 32842, Note_on_c, 0, 93, 0
1, 32843, Note_on_c, 0, 81, 0
1, 32850, Note_on_c, 0, 89, 107
1, 32852, Note_on_c, 0, 77, 107
1, 32897, Note_on_c, 0, 77, 0
1, 32905, Note_on_c, 0, 89, 0
1, 32908, Note_on_c, 0, 74, 107
1, 32909, Note_on_c, 0, 86, 107
1, 32957, Note_on_c, 0, 86, 0
1, 32957, Note_on_c, 0, 74, 0
1, 32959, Note_on_c, 0, 77, 107
1, 32961, Note_on_c, 0, 89, 107
1, 33000, Note_on_c, 0, 89, 0
1, 33004, Note_on_c, 0, 77, 0
1, 33007, Note_on_c, 0, 74, 107
1, 33007, Note_on_c, 0, 86, 107
1, 33058, Note_on_c, 0, 86, 0
1, 33059, Note_on_c, 0, 74, 0
1, 33061, Note_on_c, 0, 81, 107
1, 33062, Note_on_c, 0, 69, 107
1, 33110, Note_on_c, 0, 81, 0
1, 33113, Note_on_c, 0, 69, 0
1, 33118, Note_on_c, 0, 86, 107
1, 33120, Note_on_c, 0, 74, 107
1, 33156, Note_on_c, 0, 74, 0
1, 33157, Note_on_c, 0, 86, 0
1, 33162, Note_on_c, 0, 81, 107
1, 33164, Note_on_c, 0, 69, 107
1, 33209, Note_on_c, 0, 69, 0
1, 33217, Note_on_c, 0, 81, 0
1, 33219, Note_on_c, 0, 77, 107
1, 33220, Note_on_c, 0, 65, 110
1, 33263, Note_on_c, 0, 65, 0
1, 33270, Note_on_c, 0, 77, 0
1, 33271, Note_on_c, 0, 81, 107
1, 33271, Note_on_c, 0, 69, 107
1, 33308, Note_on_c, 0, 69, 0
1, 33311, Note_on_c, 0, 81, 0
1, 33314, Note_on_c, 0, 65, 110
1, 33315, Note_on_c, 0, 77, 107
1, 33346, Note_on_c, 0, 77, 0
1, 33347, Note_on_c, 0, 65, 0
1, 33367, Note_on_c, 0, 74, 107
1, 33367, Note_on_c, 0, 62, 110
1, 33408, Note_on_c, 0, 62, 0
1, 33411, Note_on_c, 0, 74, 0
1, 33422, Note_on_c, 0, 77, 107
1, 33423, Note_on_c, 0, 65, 110
1, 33454, Note_on_c, 0, 65, 0
1, 33459, Note_on_c, 0, 77, 0
1, 33464, Note_on_c, 0, 74, 107
1, 33466, Note_on_c, 0, 62, 110
1, 33496, Note_on_c, 0, 62, 0
1, 33503, Note_on_c, 0, 74, 0
1, 33511, Note_on_c, 0, 69, 107
1, 33511, Note_on_c, 0, 57, 110
1, 33546, Note_on_c, 0, 57, 0
1, 33547, Note_on_c, 0, 69, 0
1, 33557, Note_on_c, 0, 74, 107
1, 33558, Note_on_c, 0, 62, 110
1, 33596, Note_on_c, 0, 62, 0
1, 33598, Note_on_c, 0, 74, 0
1, 33607, Note_on_c, 0, 69, 107
1, 33608, Note_on_c, 0, 57, 110
1, 33643, Note_on_c, 0, 57, 0
1, 33648, Note_on_c, 0, 69, 0
1, 33656, Note_on_c, 0, 65, 110
1, 33657, Note_on_c, 0, 53, 110
1, 33694, Note_on_c, 0, 65, 0
1, 33695, Note_on_c, 0, 53, 0
1, 33707, Note_on_c, 0, 69, 107
1, 33708, Note_on_c, 0, 57, 110
1, 33743, Note_on_c, 0, 57, 0
1, 33746, Note_on_c, 0, 69, 0
1, 33758, Note_on_c, 0, 53, 110
1, 33761, Note_on_c, 0, 65, 110
1, 33789, Note_on_c, 0, 65, 0
1, 33794, Note_on_c, 0, 53, 0
1, 33804, Note_on_c, 0, 50, 110
1, 33806, Note_on_c, 0, 62, 110
1, 33857, Note_on_c, 0, 65, 110
1, 33858, Note_on_c, 0, 53, 110
1, 33882, Note_on_c, 0, 53, 0
1, 33885, Note_on_c, 0, 65, 0
1, 33906, Note_on_c, 0, 69, 107
1, 33907, Note_on_c, 0, 57, 110
1, 33934, Note_on_c, 0, 57, 0
1, 33937, Note_on_c, 0, 69, 0
1, 33954, Note_on_c, 0, 74, 107
1, 33955, Note_on_c, 0, 62, 110
1, 33967, Note_on_c, 0, 62, 0
1, 33981, Note_on_c, 0, 74, 0
1, 33993, Note_on_c, 0, 65, 110
1, 33998, Note_on_c, 0, 77, 107
1, 34025, Note_on_c, 0, 77, 0
1, 34027, Note_on_c, 0, 50, 0
1, 34032, Note_on_c, 0, 65, 0
1, 34037, Note_on_c, 0, 62, 0
1, 34040, Note_on_c, 0, 69, 107
1, 34042, Note_on_c, 0, 81, 107
1, 34072, Note_on_c, 0, 81, 0
1, 34075, Note_on_c, 0, 69, 0
1, 34087, Note_on_c, 0, 86, 107
1, 34087, Note_on_c, 0, 74, 107
1, 34123, Note_on_c, 0, 74, 0
1, 34124, Note_on_c, 0, 86, 0
1, 34136, Note_on_c, 0, 69, 107
1, 34137, Note_on_c, 0, 81, 107
1, 34168, Note_on_c, 0, 81, 0
1, 34171, Note_on_c, 0, 69, 0
1, 34188, Note_on_c, 0, 77, 107
1, 34188, Note_on_c, 0, 65, 110
1, 34219, Note_on_c, 0, 65, 0
1, 34222, Note_on_c, 0, 77, 0
1, 34240, Note_on_c, 0, 74, 107
1, 34241, Note_on_c, 0, 62, 110
1, 34269, Note_on_c, 0, 62, 0
1, 34276, Note_on_c, 0, 74, 0
1, 34290, Note_on_c, 0, 69, 107
1, 34291, Note_on_c, 0, 57, 110
1, 34325, Note_on_c, 0, 57, 0
1, 34328, Note_on_c, 0, 69, 0
1, 34338, Note_on_c, 0, 65, 110
1, 34340, Note_on_c, 0, 53, 110
1, 34371, Note_on_c, 0, 53, 0
1, 34375, Note_on_c, 0, 65, 0
1, 34385, Note_on_c, 0, 62, 110
1, 34388, Note_on_c, 0, 50, 110
1, 34434, Note_on_c, 0, 64, 110
1, 34435, Note_on_c, 0, 52, 110
1, 34470, Note_on_c, 0, 64, 0
1, 34472, Note_on_c, 0, 52, 0
1, 34484, Note_on_c, 0, 67, 110
1, 34485, Note_on_c, 0, 55, 110
1, 34520, Note_on_c, 0, 55, 0
1, 34520, Note_on_c, 0, 67, 0
1, 34536, Note_on_c, 0, 73, 107
1, 34536, Note_on_c, 0, 61, 110
1, 34565, Note_on_c, 0, 61, 0
1, 34567, Note_on_c, 0, 73, 0
1, 34576, Note_on_c, 0, 64, 110
1, 34577, Note_on_c, 0, 76, 107
1, 34597, Note_on_c, 0, 64, 0
1, 34598, Note_on_c, 0, 76, 0
1, 34613, Note_on_c, 0, 67, 110
1, 34615, Note_on_c, 0, 79, 107
1, 34625, Note_on_c, 0, 62, 0
1, 34626, Note_on_c, 0, 50, 0
1, 34641, Note_on_c, 0, 79, 0
1, 34644, Note_on_c, 0, 67, 0
1, 34649, Note_on_c, 0, 82, 107
1, 34650, Note_on_c, 0, 70, 107
1, 34674, Note_on_c, 0, 70, 0
1, 34675, Note_on_c, 0, 82, 0
1, 34686, Note_on_c, 0, 76, 107
1, 34686, Note_on_c, 0, 88, 107
1, 34712, Note_on_c, 0, 88, 0
1, 34712, Note_on_c, 0, 76, 0
1, 34721, Note_on_c, 0, 82, 107
1, 34722, Note_on_c, 0, 70, 107
1, 34750, Note_on_c, 0, 70, 0
1, 34753, Note_on_c, 0, 82, 0
1, 34762, Note_on_c, 0, 79, 107
1, 34763, Note_on_c, 0, 67, 110
1, 34787, Note_on_c, 0, 67, 0
1, 34789, Note_on_c, 0, 79, 0
1, 34801, Note_on_c, 0, 76, 107
1, 34801, Note_on_c, 0, 64, 110
1, 34831, Note_on_c, 0, 64, 0
1, 34833, Note_on_c, 0, 76, 0
1, 34841, Note_on_c, 0, 61, 110
1, 34842, Note_on_c, 0, 73, 107
1, 34860, Note_on_c, 0, 61, 0
1, 34864, Note_on_c, 0, 73, 0
1, 34876, Note_on_c, 0, 67, 110
1, 34879, Note_on_c, 0, 55, 110
1, 34900, Note_on_c, 0, 55, 0
1, 34900, Note_on_c, 0, 67, 0
1, 34910, Note_on_c, 0, 64, 110
1, 34912, Note_on_c, 0, 52, 110
1, 34934, Note_on_c, 0, 52, 0
1, 34934, Note_on_c, 0, 64, 0
1, 34946, Note_on_c, 0, 62, 110
1, 34947, Note_on_c, 0, 50, 110
1, 34972, Note_on_c, 0, 50, 0
1, 34976, Note_on_c, 0, 62, 0
1, 34981, Note_on_c, 0, 62, 110
1, 34982, Note_on_c, 0, 50, 110
1, 35028, Note_on_c, 0, 65, 110
1, 35029, Note_on_c, 0, 53, 110
1, 35062, Note_on_c, 0, 53, 0
1, 35063, Note_on_c, 0, 65, 0
1, 35078, Note_on_c, 0, 69, 107
1, 35080, Note_on_c, 0, 57, 110
1, 35116, Note_on_c, 0, 57, 0
1, 35119, Note_on_c, 0, 69, 0
1, 35132, Note_on_c, 0, 74, 107
1, 35133, Note_on_c, 0, 62, 110
1, 35160, Note_on_c, 0, 62, 0
1, 35162, Note_on_c, 0, 74, 0
1, 35171, Note_on_c, 0, 65, 110
1, 35172, Note_on_c, 0, 77, 107
1, 35195, Note_on_c, 0, 77, 0
1, 35196, Note_on_c, 0, 65, 0
1, 35205, Note_on_c, 0, 81, 107
1, 35205, Note_on_c, 0, 69, 107
1, 35213, Note_on_c, 0, 50, 0
1, 35216, Note_on_c, 0, 62, 0
1, 35229, Note_on_c, 0, 69, 0
1, 35232, Note_on_c, 0, 81, 0
1, 35239, Note_on_c, 0, 86, 107
1, 35239, Note_on_c, 0, 74, 107
1, 35260, Note_on_c, 0, 86, 0
1, 35262, Note_on_c, 0, 74, 0
1, 35271, Note_on_c, 0, 89, 107
1, 35272, Note_on_c, 0, 77, 107
1, 35299, Note_on_c, 0, 77, 0
1, 35301, Note_on_c, 0, 89, 0
1, 35309, Note_on_c, 0, 74, 107
1, 35311, Note_on_c, 0, 86, 107
1, 35330, Note_on_c, 0, 86, 0
1, 35334, Note_on_c, 0, 74, 0
1, 35345, Note_on_c, 0, 81, 107
1, 35346, Note_on_c, 0, 69, 107
1, 35377, Note_on_c, 0, 69, 0
1, 35380, Note_on_c, 0, 81, 0
1, 35387, Note_on_c, 0, 77, 107
1, 35388, Note_on_c, 0, 65, 110
1, 35417, Note_on_c, 0, 65, 0
1, 35420, Note_on_c, 0, 77, 0
1, 35427, Note_on_c, 0, 62, 110
1, 35429, Note_on_c, 0, 74, 107
1, 35453, Note_on_c, 0, 62, 0
1, 35454, Note_on_c, 0, 74, 0
1, 35466, Note_on_c, 0, 69, 107
1, 35467, Note_on_c, 0, 57, 110
1, 35492, Note_on_c, 0, 57, 0
1, 35497, Note_on_c, 0, 69, 0
1, 35502, Note_on_c, 0, 65, 110
1, 35504, Note_on_c, 0, 53, 110
1, 35525, Note_on_c, 0, 53, 0
1, 35529, Note_on_c, 0, 65, 0
1, 35536, Note_on_c, 0, 62, 110
1, 35537, Note_on_c, 0, 50, 110
1, 35559, Note_on_c, 0, 50, 0
1, 35561, Note_on_c, 0, 62, 0
1, 35570, Note_on_c, 0, 62, 110
1, 35572, Note_on_c, 0, 50, 110
1, 35615, Note_on_c, 0, 65, 110
1, 35615, Note_on_c, 0, 53, 110
1, 35645, Note_on_c, 0, 53, 0
1, 35646, Note_on_c, 0, 65, 0
1, 35664, Note_on_c, 0, 69, 107
1, 35664, Note_on_c, 0, 57, 110
1, 35694, Note_on_c, 0, 57, 0
1, 35696, Note_on_c, 0, 69, 0
1, 35714, Note_on_c, 0, 72, 107
1, 35715, Note_on_c, 0, 60, 110
1, 35742, Note_on_c, 0, 60, 0
1, 35746, Note_on_c, 0, 72, 0
1, 35751, Note_on_c, 0, 69, 107
1, 35752, Note_on_c, 0, 81, 107
1, 35780, Note_on_c, 0, 69, 0
1, 35781, Note_on_c, 0, 81, 0
1, 35789, Note_on_c, 0, 72, 107
1, 35790, Note_on_c, 0, 84, 107
1, 35801, Note_on_c, 0, 50, 0
1, 35805, Note_on_c, 0, 62, 0
1, 35820, Note_on_c, 0, 72, 0
1, 35821, Note_on_c, 0, 84, 0
1, 35828, Note_on_c, 0, 87, 107
1, 35829, Note_on_c, 0, 75, 107
1, 35852, Note_on_c, 0, 75, 0
1, 35856, Note_on_c, 0, 87, 0
1, 35864, Note_on_c, 0, 90, 107
1, 35865, Note_on_c, 0, 78, 107
1, 35888, Note_on_c, 0, 78, 0
1, 35889, Note_on_c, 0, 90, 0
1, 35896, Note_on_c, 0, 87, 107
1, 35897, Note_on_c, 0, 75, 107
1, 35919, Note_on_c, 0, 75, 0
1, 35922, Note_on_c, 0, 87, 0
1, 35930, Note_on_c, 0, 84, 107
1, 35931, Note_on_c, 0, 72, 107
1, 35953, Note_on_c, 0, 72, 0
1, 35956, Note_on_c, 0, 84, 0
1, 35964, Note_on_c, 0, 69, 107
1, 35965, Note_on_c, 0, 81, 107
1, 35989, Note_on_c, 0, 81, 0
1, 35992, Note_on_c, 0, 69, 0
1, 36001, Note_on_c, 0, 72, 107
1, 36002, Note_on_c, 0, 60, 110
1, 36028, Note_on_c, 0, 60, 0
1, 36031, Note_on_c, 0, 72, 0
1, 36037, Note_on_c, 0, 69, 107
1, 36038, Note_on_c, 0, 57, 110
1, 36067, Note_on_c, 0, 57, 0
1, 36071, Note_on_c, 0, 69, 0
1, 36078, Note_on_c, 0, 66, 110
1, 36079, Note_on_c, 0, 54, 110
1, 36106, Note_on_c, 0, 54, 0
1, 36110, Note_on_c, 0, 66, 0
1, 36117, Note_on_c, 0, 50, 110
1, 36119, Note_on_c, 0, 62, 110
1, 36139, Note_on_c, 0, 50, 0
1, 36141, Note_on_c, 0, 62, 0
1, 36154, Note_on_c, 0, 50, 110
1, 36155, Note_on_c, 0, 62, 110
1, 36205, Note_on_c, 0, 55, 110
1, 36206, Note_on_c, 0, 67, 110
1, 36239, Note_on_c, 0, 55, 0
1, 36240, Note_on_c, 0, 67, 0
1, 36254, Note_on_c, 0, 70, 107
1, 36255, Note_on_c, 0, 58, 110
1, 36288, Note_on_c, 0, 58, 0
1, 36289, Note_on_c, 0, 70, 0
1, 36300, Note_on_c, 0, 74, 107
1, 36301, Note_on_c, 0, 62, 110
1, 36323, Note_on_c, 0, 74, 0
1, 36332, Note_on_c, 0, 79, 107
1, 36333, Note_on_c, 0, 67, 110
1, 36341, Note_on_c, 0, 62, 0
1, 36352, Note_on_c, 0, 67, 0
1, 36354, Note_on_c, 0, 79, 0
1, 36362, Note_on_c, 0, 62, 0
1, 36363, Note_on_c, 0, 70, 107
1, 36363, Note_on_c, 0, 82, 107
1, 36378, Note_on_c, 0, 50, 0
1, 36386, Note_on_c, 0, 82, 0
1, 36390, Note_on_c, 0, 70, 0
1, 36396, Note_on_c, 0, 86, 107
1, 36397, Note_on_c, 0, 74, 107
1, 36422, Note_on_c, 0, 74, 0
1, 36423, Note_on_c, 0, 86, 0
1, 36432, Note_on_c, 0, 79, 107
1, 36433, Note_on_c, 0, 91, 107
1, 36457, Note_on_c, 0, 91, 0
1, 36465, Note_on_c, 0, 79, 0
1, 36468, Note_on_c, 0, 86, 107
1, 36469, Note_on_c, 0, 74, 107
1, 36492, Note_on_c, 0, 74, 0
1, 36497, Note_on_c, 0, 86, 0
1, 36505, Note_on_c, 0, 70, 107
1, 36507, Note_on_c, 0, 82, 107
1, 36527, Note_on_c, 0, 82, 0
1, 36529, Note_on_c, 0, 70, 0
1, 36537, Note_on_c, 0, 79, 107
1, 36538, Note_on_c, 0, 67, 110
1, 36562, Note_on_c, 0, 67, 0
1, 36564, Note_on_c, 0, 79, 0
1, 36569, Note_on_c, 0, 62, 110
1, 36570, Note_on_c, 0, 74, 107
1, 36589, Note_on_c, 0, 62, 0
1, 36592, Note_on_c, 0, 74, 0
1, 36601, Note_on_c, 0, 70, 107
1, 36602, Note_on_c, 0, 58, 110
1, 36630, Note_on_c, 0, 58, 0
1, 36631, Note_on_c, 0, 70, 0
1, 36637, Note_on_c, 0, 55, 110
1, 36638, Note_on_c, 0, 67, 110
1, 36656, Note_on_c, 0, 55, 0
1, 36657, Note_on_c, 0, 67, 0
1, 36669, Note_on_c, 0, 50, 110
1, 36669, Note_on_c, 0, 62, 110
1, 36686, Note_on_c, 0, 50, 0
1, 36688, Note_on_c, 0, 62, 0
1, 36696, Note_on_c, 0, 50, 110
1, 36697, Note_on_c, 0, 62, 110
1, 36744, Note_on_c, 0, 65, 110
1, 36744, Note_on_c, 0, 53, 110
1, 36777, Note_on_c, 0, 53, 0
1, 36780, Note_on_c, 0, 65, 0
1, 36796, Note_on_c, 0, 68, 107
1, 36797, Note_on_c, 0, 56, 110
1, 36833, Note_on_c, 0, 56, 0
1, 36834, Note_on_c, 0, 68, 0
1, 36844, Note_on_c, 0, 71, 107
1, 36845, Note_on_c, 0, 59, 110
1, 36871, Note_on_c, 0, 59, 0
1, 36874, Note_on_c, 0, 71, 0
1, 36883, Note_on_c, 0, 83, 107
1, 36885, Note_on_c, 0, 71, 107
1, 36901, Note_on_c, 0, 71, 0
1, 36907, Note_on_c, 0, 83, 0
1, 36915, Note_on_c, 0, 74, 107
1, 36916, Note_on_c, 0, 86, 107
1, 36927, Note_on_c, 0, 62, 0
1, 36930, Note_on_c, 0, 50, 0
1, 36937, Note_on_c, 0, 86, 0
1, 36941, Note_on_c, 0, 74, 0
1, 36947, Note_on_c, 0, 89, 107
1, 36949, Note_on_c, 0, 77, 107
1, 36965, Note_on_c, 0, 77, 0
1, 36967, Note_on_c, 0, 89, 0
1, 36979, Note_on_c, 0, 80, 107
1, 36980, Note_on_c, 0, 92, 107
1, 37004, Note_on_c, 0, 92, 0
1, 37005, Note_on_c, 0, 80, 0
1, 37012, Note_on_c, 0, 89, 107
1, 37013, Note_on_c, 0, 77, 107
1, 37037, Note_on_c, 0, 77, 0
1, 37038, Note_on_c, 0, 89, 0
1, 37050, Note_on_c, 0, 74, 107
1, 37050, Note_on_c, 0, 86, 107
1, 37074, Note_on_c, 0, 74, 0
1, 37079, Note_on_c, 0, 86, 0
1, 37084, Note_on_c, 0, 83, 107
1, 37085, Note_on_c, 0, 71, 107
1, 37111, Note_on_c, 0, 71, 0
1, 37114, Note_on_c, 0, 83, 0
1, 37125, Note_on_c, 0, 71, 107
1, 37125, Note_on_c, 0, 59, 110
1, 37152, Note_on_c, 0, 59, 0
1, 37154, Note_on_c, 0, 71, 0
1, 37167, Note_on_c, 0, 68, 107
1, 37168, Note_on_c, 0, 56, 110
1, 37192, Note_on_c, 0, 68, 0
1, 37197, Note_on_c, 0, 56, 0
1, 37208, Note_on_c, 0, 65, 110
1, 37209, Note_on_c, 0, 53, 110
1, 37239, Note_on_c, 0, 53, 0
1, 37242, Note_on_c, 0, 65, 0
1, 37253, Note_on_c, 0, 62, 110
1, 37254, Note_on_c, 0, 50, 110
1, 37280, Note_on_c, 0, 50, 0
1, 37286, Note_on_c, 0, 62, 0
1, 37311, Note_on_c, 0, 69, 95
1, 37314, Note_on_c, 0, 64, 98
1, 37315, Note_on_c, 0, 52, 98
1, 37315, Note_on_c, 0, 61, 98
1, 37316, Note_on_c, 0, 49, 98
1, 37316, Note_on_c, 0, 57, 98
1, 37318, Note_on_c, 0, 81, 95
1, 37318, Note_on_c, 0, 93, 95
1, 37319, Note_on_c, 0, 81, 95
1, 37320, Note_on_c, 0, 69, 95
1, 37320, Note_on_c, 0, 88, 95
1, 37320, Note_on_c, 0, 85, 95
1, 37321, Note_on_c, 0, 76, 95
1, 37322, Note_on_c, 0, 73, 95
1, 37440, Note_on_c, 0, 93, 0
1, 37448, Note_on_c, 0, 93, 107
1, 37450, Note_on_c, 0, 81, 107
1, 37461, Note_on_c, 0, 81, 0
1, 37572, Note_on_c, 0, 94, 107
1, 37573, Note_on_c, 0, 82, 107
1, 37610, Note_on_c, 0, 93, 0
1, 37694, Note_on_c, 0, 94, 0
1, 37699, Note_on_c, 0, 93, 107
1, 37701, Note_on_c, 0, 82, 0
1, 37701, Note_on_c, 0, 81, 107
1, 37747, Note_on_c, 0, 81, 0
1, 37829, Note_on_c, 0, 91, 107
1, 37831, Note_on_c, 0, 79, 107
1, 37844, Note_on_c, 0, 93, 0
1, 37918, Note_on_c, 0, 81, 107
1, 37919, Note_on_c, 0, 93, 107
1, 37925, Note_on_c, 0, 91, 0
1, 37929, Note_on_c, 0, 79, 0
1, 37931, Note_on_c, 0, 81, 0
1, 37932, Note_on_c, 0, 81, 0
1, 37988, Note_on_c, 0, 93, 0
1, 37997, Note_on_c, 0, 82, 107
1, 37998, Note_on_c, 0, 94, 107
1, 38074, Note_on_c, 0, 73, 0
1, 38076, Note_on_c, 0, 88, 0
1, 38076, Note_on_c, 0, 85, 0
1, 38077, Note_on_c, 0, 76, 0
1, 38086, Note_on_c, 0, 93, 107
1, 38088, Note_on_c, 0, 94, 0
1, 38090, Note_on_c, 0, 81, 107
1, 38097, Note_on_c, 0, 82, 0
1, 38178, Note_on_c, 0, 81, 0
1, 38181, Note_on_c, 0, 93, 0
1, 38189, Note_on_c, 0, 82, 107
1, 38191, Note_on_c, 0, 94, 107
1, 38238, Note_on_c, 0, 82, 0
1, 38242, Note_on_c, 0, 94, 0
1, 38242, Note_on_c, 0, 93, 107
1, 38243, Note_on_c, 0, 81, 107
1, 38252, Note_on_c, 0, 81, 0
1, 38286, Note_on_c, 0, 93, 0
1, 38287, Note_on_c, 0, 81, 0
1, 38295, Note_on_c, 0, 94, 107
1, 38296, Note_on_c, 0, 82, 107
1, 38338, Note_on_c, 0, 82, 0
1, 38341, Note_on_c, 0, 93, 107
1, 38342, Note_on_c, 0, 81, 107
1, 38343, Note_on_c, 0, 94, 0
1, 38377, Note_on_c, 0, 81, 0
1, 38386, Note_on_c, 0, 94, 107
1, 38387, Note_on_c, 0, 93, 0
1, 38388, Note_on_c, 0, 82, 107
1, 38405, Note_on_c, 0, 69, 0
1, 38433, Note_on_c, 0, 82, 0
1, 38434, Note_on_c, 0, 94, 0
1, 38436, Note_on_c, 0, 93, 107
1, 38437, Note_on_c, 0, 81, 107
1, 38471, Note_on_c, 0, 64, 0
1, 38472, Note_on_c, 0, 57, 0
1, 38472, Note_on_c, 0, 61, 0
1, 38473, Note_on_c, 0, 49, 0
1, 38474, Note_on_c, 0, 52, 0
1, 38496, Note_on_c, 0, 81, 0
1, 38496, Note_on_c, 0, 93, 0
1, 38501, Note_on_c, 0, 79, 114
1, 38502, Note_on_c, 0, 91, 114
1, 38552, Note_on_c, 0, 81, 114
1, 38554, Note_on_c, 0, 93, 114
1, 38564, Note_on_c, 0, 91, 0
1, 38570, Note_on_c, 0, 79, 0
1, 38607, Note_on_c, 0, 93, 0
1, 38608, Note_on_c, 0, 55, 77
1, 38609, Note_on_c, 0, 61, 77
1, 38610, Note_on_c, 0, 43, 82
1, 38611, Note_on_c, 0, 64, 77
1, 38612, Note_on_c, 0, 49, 77
1, 38613, Note_on_c, 0, 52, 77
1, 38614, Note_on_c, 0, 85, 78
1, 38615, Note_on_c, 0, 76, 78
1, 38615, Note_on_c, 0, 73, 78
1, 38616, Note_on_c, 0, 79, 78
1, 38617, Note_on_c, 0, 88, 78
1, 38618, Note_on_c, 0, 94, 78
1, 38619, Note_on_c, 0, 82, 78
1, 38619, Note_on_c, 0, 91, 78
1, 38622, Note_on_c, 0, 81, 0
1, 39040, Note_on_c, 0, 55, 0
1, 39041, Note_on_c, 0, 43, 0
1, 39042, Note_on_c, 0, 61, 0
1, 39043, Note_on_c, 0, 64, 0
1, 39043, Note_on_c, 0, 49, 0
1, 39044, Note_on_c, 0, 52, 0
1, 39044, Note_on_c, 0, 73, 0
1, 39045, Note_on_c, 0, 85, 0
1, 39045, Note_on_c, 0, 76, 0
1, 39046, Note_on_c, 0, 88, 0
1, 39046, Note_on_c, 0, 79, 0
1, 39047, Note_on_c, 0, 91, 0
1, 39048, Note_on_c, 0, 82, 0
1, 39048, Note_on_c, 0, 94, 0
1, 39081, Note_on_c, 0, 69, 0
1, 39188, Note_on_c, 0, 93, 107
1, 39189, Note_on_c, 0, 81, 107
1, 39230, Note_on_c, 0, 81, 0
1, 39231, Note_on_c, 0, 93, 0
1, 39237, Note_on_c, 0, 91, 107
1, 39239, Note_on_c, 0, 79, 107
1, 39282, Note_on_c, 0, 79, 0
1, 39285, Note_on_c, 0, 91, 0
1, 39290, Note_on_c, 0, 77, 107
1, 39291, Note_on_c, 0, 89, 107
1, 39324, Note_on_c, 0, 89, 0
1, 39325, Note_on_c, 0, 77, 0
1, 39335, Note_on_c, 0, 88, 107
1, 39336, Note_on_c, 0, 76, 107
1, 39369, Note_on_c, 0, 76, 0
1, 39372, Note_on_c, 0, 88, 0
1, 39378, Note_on_c, 0, 89, 107
1, 39379, Note_on_c, 0, 77, 107
1, 39408, Note_on_c, 0, 77, 0
1, 39410, Note_on_c, 0, 89, 0
1, 39420, Note_on_c, 0, 91, 107
1, 39421, Note_on_c, 0, 79, 107
1, 39450, Note_on_c, 0, 91, 0
1, 39455, Note_on_c, 0, 79, 0
1, 39459, Note_on_c, 0, 88, 107
1, 39460, Note_on_c, 0, 76, 107
1, 39486, Note_on_c, 0, 76, 0
1, 39487, Note_on_c, 0, 88, 0
1, 39499, Note_on_c, 0, 85, 107
1, 39500, Note_on_c, 0, 73, 107
1, 39523, Note_on_c, 0, 85, 0
1, 39526, Note_on_c, 0, 73, 0
1, 39534, Note_on_c, 0, 86, 107
1, 39535, Note_on_c, 0, 74, 107
1, 39564, Note_on_c, 0, 74, 0
1, 39566, Note_on_c, 0, 86, 0
1, 39575, Note_on_c, 0, 76, 107
1, 39576, Note_on_c, 0, 88, 107
1, 39605, Note_on_c, 0, 76, 0
1, 39606, Note_on_c, 0, 88, 0
1, 39615, Note_on_c, 0, 85, 107
1, 39616, Note_on_c, 0, 73, 107
1, 39639, Note_on_c, 0, 85, 0
1, 39643, Note_on_c, 0, 73, 0
1, 39649, Note_on_c, 0, 79, 107
1, 39651, Note_on_c, 0, 67, 110
1, 39679, Note_on_c, 0, 67, 0
1, 39680, Note_on_c, 0, 79, 0
1, 39685, Note_on_c, 0, 69, 107
1, 39686, Note_on_c, 0, 81, 107
1, 39711, Note_on_c, 0, 81, 0
1, 39714, Note_on_c, 0, 69, 0
1, 39724, Note_on_c, 0, 82, 107
1, 39725, Note_on_c, 0, 70, 107
1, 39757, Note_on_c, 0, 70, 0
1, 39760, Note_on_c, 0, 82, 0
1, 39769, Note_on_c, 0, 79, 107
1, 39769, Note_on_c, 0, 67, 110
1, 39794, Note_on_c, 0, 67, 0
1, 39798, Note_on_c, 0, 79, 0
1, 39807, Note_on_c, 0, 76, 107
1, 39807, Note_on_c, 0, 64, 110
1, 39829, Note_on_c, 0, 76, 0
1, 39833, Note_on_c, 0, 64, 0
1, 39841, Note_on_c, 0, 77, 107
1, 39842, Note_on_c, 0, 65, 110
1, 39868, Note_on_c, 0, 65, 0
1, 39869, Note_on_c, 0, 77, 0
1, 39877, Note_on_c, 0, 79, 107
1, 39878, Note_on_c, 0, 67, 110
1, 39906, Note_on_c, 0, 79, 0
1, 39910, Note_on_c, 0, 67, 0
1, 39919, Note_on_c, 0, 76, 107
1, 39920, Note_on_c, 0, 64, 110
1, 39947, Note_on_c, 0, 64, 0
1, 39950, Note_on_c, 0, 76, 0
1, 39960, Note_on_c, 0, 73, 107
1, 39961, Note_on_c, 0, 61, 110
1, 39984, Note_on_c, 0, 61, 0
1, 39984, Note_on_c, 0, 73, 0
1, 39992, Note_on_c, 0, 74, 107
1, 39994, Note_on_c, 0, 62, 110
1, 40023, Note_on_c, 0, 62, 0
1, 40024, Note_on_c, 0, 74, 0
1, 40033, Note_on_c, 0, 76, 107
1, 40034, Note_on_c, 0, 64, 110
1, 40064, Note_on_c, 0, 76, 0
1, 40065, Note_on_c, 0, 64, 0
1, 40072, Note_on_c, 0, 73, 107
1, 40072, Note_on_c, 0, 61, 110
1, 40095, Note_on_c, 0, 73, 0
1, 40097, Note_on_c, 0, 61, 0
1, 40105, Note_on_c, 0, 67, 110
1, 40106, Note_on_c, 0, 55, 110
1, 40132, Note_on_c, 0, 55, 0
1, 40133, Note_on_c, 0, 67, 0
1, 40143, Note_on_c, 0, 57, 110
1, 40144, Note_on_c, 0, 69, 107
1, 40171, Note_on_c, 0, 69, 0
1, 40174, Note_on_c, 0, 57, 0
1, 40180, Note_on_c, 0, 70, 107
1, 40182, Note_on_c, 0, 58, 110
1, 40215, Note_on_c, 0, 58, 0
1, 40217, Note_on_c, 0, 70, 0
1, 40221, Note_on_c, 0, 55, 110
1, 40221, Note_on_c, 0, 67, 110
1, 40246, Note_on_c, 0, 67, 0
1, 40248, Note_on_c, 0, 55, 0
1, 40255, Note_on_c, 0, 64, 110
1, 40257, Note_on_c, 0, 52, 110
1, 40279, Note_on_c, 0, 52, 0
1, 40281, Note_on_c, 0, 64, 0
1, 40289, Note_on_c, 0, 65, 110
1, 40290, Note_on_c, 0, 53, 110
1, 40317, Note_on_c, 0, 53, 0
1, 40319, Note_on_c, 0, 65, 0
1, 40328, Note_on_c, 0, 55, 110
1, 40329, Note_on_c, 0, 67, 110
1, 40353, Note_on_c, 0, 67, 0
1, 40356, Note_on_c, 0, 55, 0
1, 40366, Note_on_c, 0, 52, 110
1, 40366, Note_on_c, 0, 64, 110
1, 40398, Note_on_c, 0, 64, 0
1, 40399, Note_on_c, 0, 52, 0
1, 40406, Note_on_c, 0, 61, 110
1, 40407, Note_on_c, 0, 49, 110
1, 40431, Note_on_c, 0, 49, 0
1, 40436, Note_on_c, 0, 61, 0
1, 40442, Note_on_c, 0, 50, 110
1, 40443, Note_on_c, 0, 62, 110
1, 40473, Note_on_c, 0, 62, 0
1, 40477, Note_on_c, 0, 50, 0
1, 40482, Note_on_c, 0, 64, 110
1, 40484, Note_on_c, 0, 52, 110
1, 40510, Note_on_c, 0, 52, 0
1, 40512, Note_on_c, 0, 64, 0
1, 40518, Note_on_c, 0, 61, 110
1, 40520, Note_on_c, 0, 49, 110
1, 40547, Note_on_c, 0, 49, 0
1, 40551, Note_on_c, 0, 61, 0
1, 40557, Note_on_c, 0, 57, 110
1, 40558, Note_on_c, 0, 45, 115
1, 40585, Note_on_c, 0, 57, 0
1, 40586, Note_on_c, 0, 45, 0
1, 40593, Note_on_c, 0, 47, 115
1, 40594, Note_on_c, 0, 59, 110
1, 40617, Note_on_c, 0, 47, 0
1, 40618, Note_on_c, 0, 59, 0
1, 40629, Note_on_c, 0, 61, 110
1, 40630, Note_on_c, 0, 49, 110
1, 40654, Note_on_c, 0, 61, 0
1, 40655, Note_on_c, 0, 49, 0
1, 40663, Note_on_c, 0, 50, 110
1, 40664, Note_on_c, 0, 62, 110
1, 40686, Note_on_c, 0, 62, 0
1, 40687, Note_on_c, 0, 50, 0
1, 40698, Note_on_c, 0, 64, 110
1, 40699, Note_on_c, 0, 52, 110
1, 40725, Note_on_c, 0, 52, 0
1, 40727, Note_on_c, 0, 64, 0
1, 40735, Note_on_c, 0, 65, 110
1, 40736, Note_on_c, 0, 53, 110
1, 40760, Note_on_c, 0, 53, 0
1, 40764, Note_on_c, 0, 65, 0
1, 40773, Note_on_c, 0, 55, 110
1, 40775, Note_on_c, 0, 67, 110
1, 40798, Note_on_c, 0, 67, 0
1, 40806, Note_on_c, 0, 55, 0
1, 40809, Note_on_c, 0, 64, 110
1, 40810, Note_on_c, 0, 52, 110
1, 40830, Note_on_c, 0, 52, 0
1, 40838, Note_on_c, 0, 64, 0
1, 40845, Note_on_c, 0, 49, 110
1, 40846, Note_on_c, 0, 61, 110
1, 40870, Note_on_c, 0, 61, 0
1, 40872, Note_on_c, 0, 49, 0
1, 40879, Note_on_c, 0, 62, 110
1, 40880, Note_on_c, 0, 50, 110
1, 40902, Note_on_c, 0, 50, 0
1, 40905, Note_on_c, 0, 62, 0
1, 40916, Note_on_c, 0, 52, 110
1, 40917, Note_on_c, 0, 64, 110
1, 40943, Note_on_c, 0, 64, 0
1, 40944, Note_on_c, 0, 52, 0
1, 40952, Note_on_c, 0, 65, 110
1, 40953, Note_on_c, 0, 53, 110
1, 40976, Note_on_c, 0, 53, 0
1, 40981, Note_on_c, 0, 65, 0
1, 40991, Note_on_c, 0, 55, 110
1, 40992, Note_on_c, 0, 67, 110
1, 41017, Note_on_c, 0, 67, 0
1, 41018, Note_on_c, 0, 55, 0
1, 41030, Note_on_c, 0, 57, 110
1, 41031, Note_on_c, 0, 69, 107
1, 41057, Note_on_c, 0, 69, 0
1, 41060, Note_on_c, 0, 57, 0
1, 41067, Note_on_c, 0, 71, 107
1, 41068, Note_on_c, 0, 59, 110
1, 41096, Note_on_c, 0, 59, 0
1, 41102, Note_on_c, 0, 71, 0
1, 41104, Note_on_c, 0, 55, 110
1, 41107, Note_on_c, 0, 67, 110
1, 41128, Note_on_c, 0, 67, 0
1, 41129, Note_on_c, 0, 55, 0
1, 41139, Note_on_c, 0, 64, 110
1, 41140, Note_on_c, 0, 52, 110
1, 41164, Note_on_c, 0, 52, 0
1, 41166, Note_on_c, 0, 64, 0
1, 41173, Note_on_c, 0, 53, 110
1, 41174, Note_on_c, 0, 65, 110
1, 41205, Note_on_c, 0, 65, 0
1, 41206, Note_on_c, 0, 53, 0
1, 41213, Note_on_c, 0, 67, 110
1, 41214, Note_on_c, 0, 55, 110
1, 41243, Note_on_c, 0, 55, 0
1, 41244, Note_on_c, 0, 67, 0
1, 41253, Note_on_c, 0, 64, 110
1, 41255, Note_on_c, 0, 52, 110
1, 41284, Note_on_c, 0, 52, 0
1, 41285, Note_on_c, 0, 64, 0
1, 41290, Note_on_c, 0, 49, 110
1, 41291, Note_on_c, 0, 61, 110
1, 41314, Note_on_c, 0, 61, 0
1, 41317, Note_on_c, 0, 49, 0
1, 41327, Note_on_c, 0, 62, 110
1, 41328, Note_on_c, 0, 50, 110
1, 41354, Note_on_c, 0, 50, 0
1, 41355, Note_on_c, 0, 62, 0
1, 41365, Note_on_c, 0, 52, 110
1, 41366, Note_on_c, 0, 64, 110
1, 41395, Note_on_c, 0, 64, 0
1, 41396, Note_on_c, 0, 52, 0
1, 41404, Note_on_c, 0, 61, 110
1, 41405, Note_on_c, 0, 49, 110
1, 41429, Note_on_c, 0, 49, 0
1, 41433, Note_on_c, 0, 61, 0
1, 41440, Note_on_c, 0, 57, 110
1, 41443, Note_on_c, 0, 45, 115
1, 41465, Note_on_c, 0, 45, 0
1, 41470, Note_on_c, 0, 57, 0
1, 41472, Note_on_c, 0, 59, 110
1, 41473, Note_on_c, 0, 47, 115
1, 41512, Note_on_c, 0, 47, 0
1, 41519, Note_on_c, 0, 59, 0
1, 41519, Note_on_c, 0, 61, 110
1, 41520, Note_on_c, 0, 49, 110
1, 41558, Note_on_c, 0, 49, 0
1, 41559, Note_on_c, 0, 61, 0
1, 41565, Note_on_c, 0, 57, 110
1, 41567, Note_on_c, 0, 45, 115
1, 41619, Note_on_c, 0, 45, 0
1, 41622, Note_on_c, 0, 57, 0
1, 41634, Note_on_c, 0, 51, 98
1, 41635, Note_on_c, 0, 63, 98
1, 41635, Note_on_c, 0, 48, 103
1, 41636, Note_on_c, 0, 60, 98
1, 41636, Note_on_c, 0, 54, 98
1, 41638, Note_on_c, 0, 57, 98
1, 41638, Note_on_c, 0, 45, 103
1, 41639, Note_on_c, 0, 42, 103
1, 41640, Note_on_c, 0, 78, 95
1, 41640, Note_on_c, 0, 66, 98
1, 41756, Note_on_c, 0, 66, 0
1, 41759, Note_on_c, 0, 78, 0
1, 41760, Note_on_c, 0, 81, 107
1, 41760, Note_on_c, 0, 69, 107
1, 41838, Note_on_c, 0, 84, 107
1, 41839, Note_on_c, 0, 72, 107
1, 41841, Note_on_c, 0, 69, 0
1, 41842, Note_on_c, 0, 81, 0
1, 41951, Note_on_c, 0, 87, 107
1, 41952, Note_on_c, 0, 75, 107
1, 41960, Note_on_c, 0, 72, 0
1, 41962, Note_on_c, 0, 84, 0
1, 42186, Note_on_c, 0, 57, 0
1, 42200, Note_on_c, 0, 54, 0
1, 42215, Note_on_c, 0, 75, 0
1, 42219, Note_on_c, 0, 87, 0
1, 42250, Note_on_c, 0, 69, 107
1, 42250, Note_on_c, 0, 57, 110
1, 42251, Note_on_c, 0, 86, 107
1, 42252, Note_on_c, 0, 74, 107
1, 42252, Note_on_c, 0, 66, 110
1, 42253, Note_on_c, 0, 54, 110
1, 42254, Note_on_c, 0, 74, 107
1, 42255, Note_on_c, 0, 62, 110
1, 42275, Note_on_c, 0, 74, 0
1, 42326, Note_on_c, 0, 78, 107
1, 42327, Note_on_c, 0, 66, 110
1, 42332, Note_on_c, 0, 51, 0
1, 42333, Note_on_c, 0, 48, 0
1, 42336, Note_on_c, 0, 45, 0
1, 42336, Note_on_c, 0, 63, 0
1, 42337, Note_on_c, 0, 60, 0
1, 42337, Note_on_c, 0, 42, 0
1, 42396, Note_on_c, 0, 81, 107
1, 42396, Note_on_c, 0, 69, 107
1, 42439, Note_on_c, 0, 66, 0
1, 42440, Note_on_c, 0, 69, 0
1, 42451, Note_on_c, 0, 78, 0
1, 42533, Note_on_c, 0, 54, 0
1, 42556, Note_on_c, 0, 81, 0
1, 42561, Note_on_c, 0, 84, 107
1, 42562, Note_on_c, 0, 62, 0
1, 42562, Note_on_c, 0, 72, 107
1, 42577, Note_on_c, 0, 57, 0
1, 42677, Note_on_c, 0, 86, 0
1, 42678, Note_on_c, 0, 74, 0
1, 42688, Note_on_c, 0, 69, 0
1, 42702, Note_on_c, 0, 66, 0
1, 42839, Note_on_c, 0, 51, 110
1, 42840, Note_on_c, 0, 63, 110
1, 42864, Note_on_c, 0, 72, 0
1, 42867, Note_on_c, 0, 84, 0
1, 42899, Note_on_c, 0, 54, 110
1, 42900, Note_on_c, 0, 66, 110
1, 42935, Note_on_c, 0, 54, 0
1, 42943, Note_on_c, 0, 66, 0
1, 42955, Note_on_c, 0, 69, 107
1, 42956, Note_on_c, 0, 57, 110
1, 42993, Note_on_c, 0, 57, 0
1, 42996, Note_on_c, 0, 69, 0
1, 43005, Note_on_c, 0, 71, 107
1, 43006, Note_on_c, 0, 59, 110
1, 43031, Note_on_c, 0, 59, 0
1, 43034, Note_on_c, 0, 71, 0
1, 43044, Note_on_c, 0, 75, 107
1, 43044, Note_on_c, 0, 63, 110
1, 43060, Note_on_c, 0, 75, 0
1, 43063, Note_on_c, 0, 63, 0
1, 43075, Note_on_c, 0, 78, 107
1, 43076, Note_on_c, 0, 66, 110
1, 43093, Note_on_c, 0, 66, 0
1, 43097, Note_on_c, 0, 78, 0
1, 43101, Note_on_c, 0, 81, 107
1, 43102, Note_on_c, 0, 69, 107
1, 43134, Note_on_c, 0, 69, 0
1, 43137, Note_on_c, 0, 81, 0
1, 43142, Note_on_c, 0, 83, 107
1, 43144, Note_on_c, 0, 71, 107
1, 43170, Note_on_c, 0, 71, 0
1, 43174, Note_on_c, 0, 83, 0
1, 43183, Note_on_c, 0, 81, 107
1, 43184, Note_on_c, 0, 69, 107
1, 43207, Note_on_c, 0, 81, 0
1, 43208, Note_on_c, 0, 69, 0
1, 43219, Note_on_c, 0, 78, 107
1, 43221, Note_on_c, 0, 66, 110
1, 43246, Note_on_c, 0, 66, 0
1, 43254, Note_on_c, 0, 78, 0
1, 43259, Note_on_c, 0, 63, 110
1, 43260, Note_on_c, 0, 63, 0
1, 43262, Note_on_c, 0, 75, 107
1, 43284, Note_on_c, 0, 75, 0
1, 43293, Note_on_c, 0, 51, 0
1, 43296, Note_on_c, 0, 71, 107
1, 43298, Note_on_c, 0, 59, 110
1, 43326, Note_on_c, 0, 59, 0
1, 43331, Note_on_c, 0, 71, 0
1, 43336, Note_on_c, 0, 69, 107
1, 43338, Note_on_c, 0, 57, 110
1, 43349, Note_on_c, 0, 63, 0
1, 43362, Note_on_c, 0, 57, 0
1, 43365, Note_on_c, 0, 69, 0
1, 43370, Note_on_c, 0, 66, 110
1, 43371, Note_on_c, 0, 54, 110
1, 43395, Note_on_c, 0, 66, 0
1, 43396, Note_on_c, 0, 54, 0
1, 43404, Note_on_c, 0, 51, 110
1, 43404, Note_on_c, 0, 63, 110
1, 43418, Note_on_c, 0, 51, 0
1, 43420, Note_on_c, 0, 63, 0
1, 43434, Note_on_c, 0, 51, 110
1, 43435, Note_on_c, 0, 63, 110
1, 43479, Note_on_c, 0, 66, 110
1, 43481, Note_on_c, 0, 54, 110
1, 43512, Note_on_c, 0, 54, 0
1, 43514, Note_on_c, 0, 66, 0
1, 43525, Note_on_c, 0, 69, 107
1, 43527, Note_on_c, 0, 57, 110
1, 43560, Note_on_c, 0, 57, 0
1, 43566, Note_on_c, 0, 69, 0
1, 43576, Note_on_c, 0, 72, 107
1, 43577, Note_on_c, 0, 60, 110
1, 43606, Note_on_c, 0, 60, 0
1, 43609, Note_on_c, 0, 72, 0
1, 43617, Note_on_c, 0, 75, 107
1, 43618, Note_on_c, 0, 63, 110
1, 43641, Note_on_c, 0, 63, 0
1, 43647, Note_on_c, 0, 75, 0
1, 43658, Note_on_c, 0, 78, 107
1, 43659, Note_on_c, 0, 66, 110
1, 43684, Note_on_c, 0, 66, 0
1, 43687, Note_on_c, 0, 78, 0
1, 43697, Note_on_c, 0, 69, 107
1, 43698, Note_on_c, 0, 81, 107
1, 43728, Note_on_c, 0, 81, 0
1, 43731, Note_on_c, 0, 69, 0
1, 43737, Note_on_c, 0, 84, 107
1, 43739, Note_on_c, 0, 72, 107
1, 43772, Note_on_c, 0, 72, 0
1, 43776, Note_on_c, 0, 84, 0
1, 43777, Note_on_c, 0, 81, 107
1, 43780, Note_on_c, 0, 69, 107
1, 43800, Note_on_c, 0, 69, 0
1, 43805, Note_on_c, 0, 81, 0
1, 43813, Note_on_c, 0, 78, 107
1, 43816, Note_on_c, 0, 66, 110
1, 43840, Note_on_c, 0, 66, 0
1, 43843, Note_on_c, 0, 78, 0
1, 43851, Note_on_c, 0, 75, 107
1, 43852, Note_on_c, 0, 63, 110
1, 43865, Note_on_c, 0, 63, 0
1, 43866, Note_on_c, 0, 51, 0
1, 43870, Note_on_c, 0, 75, 0
1, 43871, Note_on_c, 0, 63, 0
1, 43879, Note_on_c, 0, 72, 107
1, 43881, Note_on_c, 0, 60, 110
1, 43902, Note_on_c, 0, 60, 0
1, 43903, Note_on_c, 0, 72, 0
1, 43915, Note_on_c, 0, 69, 107
1, 43916, Note_on_c, 0, 57, 110
1, 43938, Note_on_c, 0, 69, 0
1, 43946, Note_on_c, 0, 57, 0
1, 43949, Note_on_c, 0, 66, 110
1, 43950, Note_on_c, 0, 54, 110
1, 43977, Note_on_c, 0, 54, 0
1, 43980, Note_on_c, 0, 66, 0
1, 43986, Note_on_c, 0, 51, 110
1, 43987, Note_on_c, 0, 63, 110
1, 44012, Note_on_c, 0, 51, 0
1, 44020, Note_on_c, 0, 63, 0
1, 44028, Note_on_c, 0, 55, 110
1, 44028, Note_on_c, 0, 67, 110
1, 44078, Note_on_c, 0, 70, 107
1, 44081, Note_on_c, 0, 58, 110
1, 44110, Note_on_c, 0, 58, 0
1, 44115, Note_on_c, 0, 70, 0
1, 44126, Note_on_c, 0, 73, 107
1, 44129, Note_on_c, 0, 61, 110
1, 44152, Note_on_c, 0, 61, 0
1, 44156, Note_on_c, 0, 73, 0
1, 44171, Note_on_c, 0, 76, 107
1, 44172, Note_on_c, 0, 64, 110
1, 44186, Note_on_c, 0, 64, 0
1, 44187, Note_on_c, 0, 76, 0
1, 44201, Note_on_c, 0, 79, 107
1, 44202, Note_on_c, 0, 67, 110
1, 44211, Note_on_c, 0, 55, 0
1, 44215, Note_on_c, 0, 67, 0
1, 44216, Note_on_c, 0, 67, 0
1, 44220, Note_on_c, 0, 79, 0
1, 44231, Note_on_c, 0, 82, 107
1, 44233, Note_on_c, 0, 70, 107
1, 44251, Note_on_c, 0, 70, 0
1, 44255, Note_on_c, 0, 82, 0
1, 44265, Note_on_c, 0, 85, 107
1, 44266, Note_on_c, 0, 73, 107
1, 44291, Note_on_c, 0, 73, 0
1, 44293, Note_on_c, 0, 85, 0
1, 44303, Note_on_c, 0, 82, 107
1, 44304, Note_on_c, 0, 70, 107
1, 44333, Note_on_c, 0, 70, 0
1, 44336, Note_on_c, 0, 82, 0
1, 44347, Note_on_c, 0, 67, 110
1, 44348, Note_on_c, 0, 79, 107
1, 44371, Note_on_c, 0, 67, 0
1, 44379, Note_on_c, 0, 79, 0
1, 44390, Note_on_c, 0, 76, 107
1, 44391, Note_on_c, 0, 64, 110
1, 44412, Note_on_c, 0, 64, 0
1, 44412, Note_on_c, 0, 76, 0
1, 44420, Note_on_c, 0, 73, 107
1, 44421, Note_on_c, 0, 61, 110
1, 44445, Note_on_c, 0, 61, 0
1, 44448, Note_on_c, 0, 73, 0
1, 44454, Note_on_c, 0, 70, 107
1, 44454, Note_on_c, 0, 58, 110
1, 44480, Note_on_c, 0, 58, 0
1, 44481, Note_on_c, 0, 70, 0
1, 44491, Note_on_c, 0, 55, 110
1, 44492, Note_on_c, 0, 67, 110
1, 44508, Note_on_c, 0, 67, 0
1, 44509, Note_on_c, 0, 55, 0
1, 44527, Note_on_c, 0, 68, 107
1, 44528, Note_on_c, 0, 56, 110
1, 44573, Note_on_c, 0, 71, 107
1, 44574, Note_on_c, 0, 59, 110
1, 44602, Note_on_c, 0, 59, 0
1, 44604, Note_on_c, 0, 71, 0
1, 44618, Note_on_c, 0, 74, 107
1, 44619, Note_on_c, 0, 62, 110
1, 44636, Note_on_c, 0, 62, 0
1, 44641, Note_on_c, 0, 74, 0
1, 44647, Note_on_c, 0, 77, 107
1, 44648, Note_on_c, 0, 65, 110
1, 44673, Note_on_c, 0, 65, 0
1, 44676, Note_on_c, 0, 77, 0
1, 44682, Note_on_c, 0, 68, 107
1, 44683, Note_on_c, 0, 80, 107
1, 44695, Note_on_c, 0, 56, 0
1, 44695, Note_on_c, 0, 68, 0
1, 44703, Note_on_c, 0, 80, 0
1, 44704, Note_on_c, 0, 68, 0
1, 44716, Note_on_c, 0, 83, 107
1, 44717, Note_on_c, 0, 71, 107
1, 44742, Note_on_c, 0, 71, 0
1, 44746, Note_on_c, 0, 83, 0
1, 44755, Note_on_c, 0, 86, 107
1, 44756, Note_on_c, 0, 74, 107
1, 44775, Note_on_c, 0, 74, 0
1, 44778, Note_on_c, 0, 86, 0
1, 44792, Note_on_c, 0, 83, 107
1, 44793, Note_on_c, 0, 71, 107
1, 44815, Note_on_c, 0, 71, 0
1, 44819, Note_on_c, 0, 83, 0
1, 44831, Note_on_c, 0, 80, 107
1, 44831, Note_on_c, 0, 68, 107
1, 44864, Note_on_c, 0, 68, 0
1, 44868, Note_on_c, 0, 80, 0
1, 44877, Note_on_c, 0, 77, 107
1, 44879, Note_on_c, 0, 65, 110
1, 44914, Note_on_c, 0, 65, 0
1, 44917, Note_on_c, 0, 77, 0
1, 44919, Note_on_c, 0, 74, 107
1, 44920, Note_on_c, 0, 62, 110
1, 44949, Note_on_c, 0, 74, 0
1, 44951, Note_on_c, 0, 62, 0
1, 44952, Note_on_c, 0, 71, 107
1, 44953, Note_on_c, 0, 59, 110
1, 44985, Note_on_c, 0, 59, 0
1, 44986, Note_on_c, 0, 68, 107
1, 44987, Note_on_c, 0, 71, 0
1, 44988, Note_on_c, 0, 56, 110
1, 45006, Note_on_c, 0, 56, 0
1, 45010, Note_on_c, 0, 68, 0
1, 45018, Note_on_c, 0, 60, 110
1, 45020, Note_on_c, 0, 48, 115
1, 45066, Note_on_c, 0, 64, 110
1, 45068, Note_on_c, 0, 52, 110
1, 45103, Note_on_c, 0, 52, 0
1, 45104, Note_on_c, 0, 64, 0
1, 45115, Note_on_c, 0, 68, 107
1, 45119, Note_on_c, 0, 56, 110
1, 45146, Note_on_c, 0, 56, 0
1, 45151, Note_on_c, 0, 68, 0
1, 45161, Note_on_c, 0, 71, 107
1, 45162, Note_on_c, 0, 59, 110
1, 45189, Note_on_c, 0, 59, 0
1, 45191, Note_on_c, 0, 71, 0
1, 45196, Note_on_c, 0, 76, 107
1, 45197, Note_on_c, 0, 64, 110
1, 45215, Note_on_c, 0, 60, 0
1, 45216, Note_on_c, 0, 48, 0
1, 45218, Note_on_c, 0, 64, 0
1, 45221, Note_on_c, 0, 76, 0
1, 45227, Note_on_c, 0, 68, 107
1, 45228, Note_on_c, 0, 80, 107
1, 45246, Note_on_c, 0, 68, 0
1, 45247, Note_on_c, 0, 80, 0
1, 45256, Note_on_c, 0, 83, 107
1, 45257, Note_on_c, 0, 71, 107
1, 45276, Note_on_c, 0, 71, 0
1, 45279, Note_on_c, 0, 83, 0
1, 45286, Note_on_c, 0, 86, 107
1, 45287, Note_on_c, 0, 74, 107
1, 45307, Note_on_c, 0, 74, 0
1, 45312, Note_on_c, 0, 86, 0
1, 45316, Note_on_c, 0, 83, 107
1, 45317, Note_on_c, 0, 71, 107
1, 45337, Note_on_c, 0, 71, 0
1, 45341, Note_on_c, 0, 83, 0
1, 45344, Note_on_c, 0, 68, 107
1, 45345, Note_on_c, 0, 80, 107
1, 45366, Note_on_c, 0, 80, 0
1, 45368, Note_on_c, 0, 68, 0
1, 45377, Note_on_c, 0, 76, 107
1, 45379, Note_on_c, 0, 64, 110
1, 45396, Note_on_c, 0, 64, 0
1, 45400, Note_on_c, 0, 76, 0
1, 45410, Note_on_c, 0, 71, 107
1, 45411, Note_on_c, 0, 59, 110
1, 45437, Note_on_c, 0, 59, 0
1, 45439, Note_on_c, 0, 71, 0
1, 45445, Note_on_c, 0, 68, 107
1, 45446, Note_on_c, 0, 56, 110
1, 45469, Note_on_c, 0, 56, 0
1, 45471, Note_on_c, 0, 68, 0
1, 45478, Note_on_c, 0, 64, 110
1, 45479, Note_on_c, 0, 52, 110
1, 45504, Note_on_c, 0, 52, 0
1, 45508, Note_on_c, 0, 64, 0
1, 45511, Note_on_c, 0, 48, 115
1, 45513, Note_on_c, 0, 60, 110
1, 45530, Note_on_c, 0, 60, 0
1, 45535, Note_on_c, 0, 48, 0
1, 45545, Note_on_c, 0, 60, 110
1, 45545, Note_on_c, 0, 48, 115
1, 45591, Note_on_c, 0, 52, 110
1, 45592, Note_on_c, 0, 64, 110
1, 45615, Note_on_c, 0, 52, 0
1, 45617, Note_on_c, 0, 64, 0
1, 45632, Note_on_c, 0, 69, 107
1, 45634, Note_on_c, 0, 57, 110
1, 45660, Note_on_c, 0, 57, 0
1, 45665, Note_on_c, 0, 69, 0
1, 45673, Note_on_c, 0, 76, 107
1, 45674, Note_on_c, 0, 64, 110
1, 45697, Note_on_c, 0, 64, 0
1, 45700, Note_on_c, 0, 76, 0
1, 45714, Note_on_c, 0, 81, 107
1, 45715, Note_on_c, 0, 69, 107
1, 45730, Note_on_c, 0, 60, 0
1, 45732, Note_on_c, 0, 48, 0
1, 45743, Note_on_c, 0, 69, 0
1, 45744, Note_on_c, 0, 81, 0
1, 45753, Note_on_c, 0, 84, 107
1, 45754, Note_on_c, 0, 72, 107
1, 45774, Note_on_c, 0, 72, 0
1, 45779, Note_on_c, 0, 84, 0
1, 45790, Note_on_c, 0, 72, 107
1, 45790, Note_on_c, 0, 84, 107
1, 45811, Note_on_c, 0, 84, 0
1, 45812, Note_on_c, 0, 72, 0
1, 45823, Note_on_c, 0, 69, 107
1, 45824, Note_on_c, 0, 81, 107
1, 45840, Note_on_c, 0, 81, 0
1, 45843, Note_on_c, 0, 69, 0
1, 45857, Note_on_c, 0, 76, 107
1, 45857, Note_on_c, 0, 64, 110
1, 45877, Note_on_c, 0, 64, 0
1, 45879, Note_on_c, 0, 76, 0
1, 45893, Note_on_c, 0, 69, 107
1, 45894, Note_on_c, 0, 57, 110
1, 45918, Note_on_c, 0, 57, 0
1, 45923, Note_on_c, 0, 69, 0
1, 45935, Note_on_c, 0, 52, 110
1, 45936, Note_on_c, 0, 64, 110
1, 45966, Note_on_c, 0, 52, 0
1, 45968, Note_on_c, 0, 64, 0
1, 45980, Note_on_c, 0, 60, 110
1, 45984, Note_on_c, 0, 48, 115
1, 46002, Note_on_c, 0, 48, 0
1, 46004, Note_on_c, 0, 60, 0
1, 46022, Note_on_c, 0, 54, 110
1, 46022, Note_on_c, 0, 66, 110
1, 46060, Note_on_c, 0, 69, 107
1, 46063, Note_on_c, 0, 57, 110
1, 46085, Note_on_c, 0, 57, 0
1, 46087, Note_on_c, 0, 69, 0
1, 46102, Note_on_c, 0, 72, 107
1, 46103, Note_on_c, 0, 60, 110
1, 46125, Note_on_c, 0, 60, 0
1, 46127, Note_on_c, 0, 72, 0
1, 46142, Note_on_c, 0, 75, 107
1, 46143, Note_on_c, 0, 63, 110
1, 46162, Note_on_c, 0, 63, 0
1, 46165, Note_on_c, 0, 75, 0
1, 46177, Note_on_c, 0, 81, 107
1, 46178, Note_on_c, 0, 69, 107
1, 46188, Note_on_c, 0, 54, 0
1, 46190, Note_on_c, 0, 66, 0
1, 46200, Note_on_c, 0, 69, 0
1, 46203, Note_on_c, 0, 81, 0
1, 46214, Note_on_c, 0, 84, 107
1, 46215, Note_on_c, 0, 72, 107
1, 46237, Note_on_c, 0, 72, 0
1, 46240, Note_on_c, 0, 84, 0
1, 46253, Note_on_c, 0, 84, 107
1, 46254, Note_on_c, 0, 72, 107
1, 46275, Note_on_c, 0, 72, 0
1, 46283, Note_on_c, 0, 84, 0
1, 46289, Note_on_c, 0, 81, 107
1, 46291, Note_on_c, 0, 69, 107
1, 46308, Note_on_c, 0, 69, 0
1, 46312, Note_on_c, 0, 81, 0
1, 46325, Note_on_c, 0, 75, 107
1, 46326, Note_on_c, 0, 63, 110
1, 46349, Note_on_c, 0, 63, 0
1, 46353, Note_on_c, 0, 75, 0
1, 46360, Note_on_c, 0, 72, 107
1, 46361, Note_on_c, 0, 60, 110
1, 46377, Note_on_c, 0, 60, 0
1, 46381, Note_on_c, 0, 72, 0
1, 46393, Note_on_c, 0, 69, 107
1, 46394, Note_on_c, 0, 57, 110
1, 46421, Note_on_c, 0, 57, 0
1, 46424, Note_on_c, 0, 69, 0
1, 46436, Note_on_c, 0, 66, 110
1, 46437, Note_on_c, 0, 54, 110
1, 46453, Note_on_c, 0, 66, 0
1, 46455, Note_on_c, 0, 54, 0
1, 46475, Note_on_c, 0, 67, 110
1, 46476, Note_on_c, 0, 55, 110
1, 46518, Note_on_c, 0, 70, 107
1, 46519, Note_on_c, 0, 58, 110
1, 46544, Note_on_c, 0, 58, 0
1, 46547, Note_on_c, 0, 70, 0
1, 46563, Note_on_c, 0, 73, 107
1, 46564, Note_on_c, 0, 61, 110
1, 46590, Note_on_c, 0, 61, 0
1, 46593, Note_on_c, 0, 73, 0
1, 46604, Note_on_c, 0, 76, 107
1, 46605, Note_on_c, 0, 64, 110
1, 46636, Note_on_c, 0, 64, 0
1, 46639, Note_on_c, 0, 76, 0
1, 46645, Note_on_c, 0, 70, 107
1, 46646, Note_on_c, 0, 82, 107
1, 46653, Note_on_c, 0, 55, 0
1, 46653, Note_on_c, 0, 67, 0
1, 46665, Note_on_c, 0, 70, 0
1, 46666, Note_on_c, 0, 82, 0
1, 46679, Note_on_c, 0, 85, 107
1, 46680, Note_on_c, 0, 73, 107
1, 46698, Note_on_c, 0, 73, 0
1, 46701, Note_on_c, 0, 85, 0
1, 46712, Note_on_c, 0, 85, 107
1, 46713, Note_on_c, 0, 73, 107
1, 46732, Note_on_c, 0, 73, 0
1, 46737, Note_on_c, 0, 85, 0
1, 46752, Note_on_c, 0, 82, 107
1, 46752, Note_on_c, 0, 70, 107
1, 46772, Note_on_c, 0, 70, 0
1, 46776, Note_on_c, 0, 82, 0
1, 46790, Note_on_c, 0, 76, 107
1, 46791, Note_on_c, 0, 64, 110
1, 46821, Note_on_c, 0, 64, 0
1, 46822, Note_on_c, 0, 76, 0
1, 46831, Note_on_c, 0, 73, 107
1, 46831, Note_on_c, 0, 61, 110
1, 46850, Note_on_c, 0, 61, 0
1, 46852, Note_on_c, 0, 73, 0
1, 46861, Note_on_c, 0, 70, 107
1, 46862, Note_on_c, 0, 58, 110
1, 46889, Note_on_c, 0, 58, 0
1, 46892, Note_on_c, 0, 70, 0
1, 46902, Note_on_c, 0, 67, 110
1, 46904, Note_on_c, 0, 55, 110
1, 46933, Note_on_c, 0, 55, 0
1, 46935, Note_on_c, 0, 67, 0
1, 46948, Note_on_c, 0, 65, 110
1, 46950, Note_on_c, 0, 53, 110
1, 46998, Note_on_c, 0, 69, 107
1, 46999, Note_on_c, 0, 57, 110
1, 47034, Note_on_c, 0, 57, 0
1, 47037, Note_on_c, 0, 69, 0
1, 47043, Note_on_c, 0, 72, 107
1, 47045, Note_on_c, 0, 60, 110
1, 47080, Note_on_c, 0, 60, 0
1, 47083, Note_on_c, 0, 72, 0
1, 47089, Note_on_c, 0, 65, 110
1, 47090, Note_on_c, 0, 77, 107
1, 47115, Note_on_c, 0, 65, 0
1, 47118, Note_on_c, 0, 77, 0
1, 47131, Note_on_c, 0, 81, 107
1, 47133, Note_on_c, 0, 69, 107
1, 47157, Note_on_c, 0, 69, 0
1, 47159, Note_on_c, 0, 81, 0
1, 47169, Note_on_c, 0, 84, 107
1, 47171, Note_on_c, 0, 72, 107
1, 47196, Note_on_c, 0, 84, 0
1, 47197, Note_on_c, 0, 72, 0
1, 47207, Note_on_c, 0, 87, 107
1, 47209, Note_on_c, 0, 75, 107
1, 47232, Note_on_c, 0, 75, 0
1, 47232, Note_on_c, 0, 87, 0
1, 47244, Note_on_c, 0, 72, 107
1, 47245, Note_on_c, 0, 84, 107
1, 47268, Note_on_c, 0, 72, 0
1, 47269, Note_on_c, 0, 84, 0
1, 47282, Note_on_c, 0, 69, 107
1, 47284, Note_on_c, 0, 81, 107
1, 47310, Note_on_c, 0, 65, 0
1, 47311, Note_on_c, 0, 69, 0
1, 47312, Note_on_c, 0, 81, 0
1, 47314, Note_on_c, 0, 53, 0
1, 47324, Note_on_c, 0, 65, 110
1, 47325, Note_on_c, 0, 77, 107
1, 47340, Note_on_c, 0, 65, 0
1, 47342, Note_on_c, 0, 77, 0
1, 47355, Note_on_c, 0, 72, 107
1, 47356, Note_on_c, 0, 60, 110
1, 47383, Note_on_c, 0, 72, 0
1, 47385, Note_on_c, 0, 60, 0
1, 47390, Note_on_c, 0, 69, 107
1, 47391, Note_on_c, 0, 57, 110
1, 47408, Note_on_c, 0, 57, 0
1, 47412, Note_on_c, 0, 69, 0
1, 47422, Note_on_c, 0, 65, 110
1, 47423, Note_on_c, 0, 53, 110
1, 47438, Note_on_c, 0, 65, 0
1, 47443, Note_on_c, 0, 53, 0
1, 47460, Note_on_c, 0, 53, 110
1, 47460, Note_on_c, 0, 65, 110
1, 47508, Note_on_c, 0, 55, 110
1, 47509, Note_on_c, 0, 67, 110
1, 47532, Note_on_c, 0, 67, 0
1, 47535, Note_on_c, 0, 55, 0
1, 47556, Note_on_c, 0, 70, 107
1, 47557, Note_on_c, 0, 58, 110
1, 47587, Note_on_c, 0, 58, 0
1, 47591, Note_on_c, 0, 70, 0
1, 47602, Note_on_c, 0, 73, 107
1, 47603, Note_on_c, 0, 61, 110
1, 47625, Note_on_c, 0, 61, 0
1, 47628, Note_on_c, 0, 73, 0
1, 47636, Note_on_c, 0, 76, 107
1, 47637, Note_on_c, 0, 64, 110
1, 47661, Note_on_c, 0, 64, 0
1, 47664, Note_on_c, 0, 76, 0
1, 47670, Note_on_c, 0, 67, 110
1, 47671, Note_on_c, 0, 79, 107
1, 47690, Note_on_c, 0, 67, 0
1, 47693, Note_on_c, 0, 79, 0
1, 47700, Note_on_c, 0, 82, 107
1, 47701, Note_on_c, 0, 70, 107
1, 47724, Note_on_c, 0, 70, 0
1, 47726, Note_on_c, 0, 82, 0
1, 47733, Note_on_c, 0, 73, 107
1, 47734, Note_on_c, 0, 85, 107
1, 47762, Note_on_c, 0, 85, 0
1, 47762, Note_on_c, 0, 73, 0
1, 47769, Note_on_c, 0, 82, 107
1, 47770, Note_on_c, 0, 70, 107
1, 47792, Note_on_c, 0, 82, 0
1, 47802, Note_on_c, 0, 79, 107
1, 47803, Note_on_c, 0, 67, 110
1, 47812, Note_on_c, 0, 70, 0
1, 47821, Note_on_c, 0, 67, 0
1, 47825, Note_on_c, 0, 79, 0
1, 47826, Note_on_c, 0, 65, 0
1, 47838, Note_on_c, 0, 76, 107
1, 47839, Note_on_c, 0, 64, 110
1, 47859, Note_on_c, 0, 53, 0
1, 47869, Note_on_c, 0, 76, 0
1, 47876, Note_on_c, 0, 73, 107
1, 47877, Note_on_c, 0, 64, 0
1, 47878, Note_on_c, 0, 61, 110
1, 47907, Note_on_c, 0, 61, 0
1, 47912, Note_on_c, 0, 73, 0
1, 47916, Note_on_c, 0, 70, 107
1, 47917, Note_on_c, 0, 58, 110
1, 47942, Note_on_c, 0, 67, 110
1, 47943, Note_on_c, 0, 55, 110
1, 47946, Note_on_c, 0, 58, 0
1, 47967, Note_on_c, 0, 70, 0
1, 47975, Note_on_c, 0, 55, 0
1, 47979, Note_on_c, 0, 67, 0
1, 47994, Note_on_c, 0, 53, 110
1, 47996, Note_on_c, 0, 65, 110
1, 48013, Note_on_c, 0, 65, 0
1, 48018, Note_on_c, 0, 53, 0
1, 48025, Note_on_c, 0, 65, 110
1, 48029, Note_on_c, 0, 53, 110
1, 48074, Note_on_c, 0, 69, 107
1, 48077, Note_on_c, 0, 57, 110
1, 48114, Note_on_c, 0, 57, 0
1, 48118, Note_on_c, 0, 69, 0
1, 48133, Note_on_c, 0, 74, 107
1, 48134, Note_on_c, 0, 62, 110
1, 48177, Note_on_c, 0, 62, 0
1, 48178, Note_on_c, 0, 74, 0
1, 48189, Note_on_c, 0, 77, 107
1, 48190, Note_on_c, 0, 65, 110
1, 48212, Note_on_c, 0, 65, 0
1, 48220, Note_on_c, 0, 77, 0
1, 48232, Note_on_c, 0, 81, 107
1, 48233, Note_on_c, 0, 69, 107
1, 48256, Note_on_c, 0, 53, 0
1, 48260, Note_on_c, 0, 81, 0
1, 48263, Note_on_c, 0, 69, 0
1, 48276, Note_on_c, 0, 86, 107
1, 48276, Note_on_c, 0, 74, 107
1, 48292, Note_on_c, 0, 65, 0
1, 48303, Note_on_c, 0, 74, 0
1, 48306, Note_on_c, 0, 86, 0
1, 48315, Note_on_c, 0, 86, 107
1, 48316, Note_on_c, 0, 74, 107
1, 48339, Note_on_c, 0, 74, 0
1, 48342, Note_on_c, 0, 86, 0
1, 48351, Note_on_c, 0, 81, 107
1, 48352, Note_on_c, 0, 69, 107
1, 48371, Note_on_c, 0, 69, 0
1, 48373, Note_on_c, 0, 81, 0
1, 48387, Note_on_c, 0, 77, 107
1, 48387, Note_on_c, 0, 65, 110
1, 48410, Note_on_c, 0, 65, 0
1, 48415, Note_on_c, 0, 77, 0
1, 48425, Note_on_c, 0, 74, 107
1, 48426, Note_on_c, 0, 62, 110
1, 48450, Note_on_c, 0, 62, 0
1, 48452, Note_on_c, 0, 74, 0
1, 48468, Note_on_c, 0, 69, 107
1, 48468, Note_on_c, 0, 57, 110
1, 48494, Note_on_c, 0, 57, 0
1, 48495, Note_on_c, 0, 69, 0
1, 48509, Note_on_c, 0, 53, 110
1, 48510, Note_on_c, 0, 65, 110
1, 48533, Note_on_c, 0, 65, 0
1, 48534, Note_on_c, 0, 53, 0
1, 48552, Note_on_c, 0, 66, 110
1, 48552, Note_on_c, 0, 54, 110
1, 48597, Note_on_c, 0, 69, 107
1, 48598, Note_on_c, 0, 57, 110
1, 48630, Note_on_c, 0, 57, 0
1, 48633, Note_on_c, 0, 69, 0
1, 48646, Note_on_c, 0, 72, 107
1, 48647, Note_on_c, 0, 60, 110
1, 48676, Note_on_c, 0, 60, 0
1, 48678, Note_on_c, 0, 72, 0
1, 48690, Note_on_c, 0, 74, 107
1, 48691, Note_on_c, 0, 62, 110
1, 48719, Note_on_c, 0, 62, 0
1, 48723, Note_on_c, 0, 74, 0
1, 48733, Note_on_c, 0, 66, 110
1, 48734, Note_on_c, 0, 78, 107
1, 48752, Note_on_c, 0, 66, 0
1, 48756, Note_on_c, 0, 78, 0
1, 48773, Note_on_c, 0, 81, 107
1, 48773, Note_on_c, 0, 69, 107
1, 48797, Note_on_c, 0, 69, 0
1, 48800, Note_on_c, 0, 81, 0
1, 48808, Note_on_c, 0, 84, 107
1, 48809, Note_on_c, 0, 72, 107
1, 48828, Note_on_c, 0, 72, 0
1, 48829, Note_on_c, 0, 84, 0
1, 48844, Note_on_c, 0, 81, 107
1, 48844, Note_on_c, 0, 69, 107
1, 48867, Note_on_c, 0, 69, 0
1, 48868, Note_on_c, 0, 81, 0
1, 48878, Note_on_c, 0, 78, 107
1, 48881, Note_on_c, 0, 66, 110
1, 48900, Note_on_c, 0, 66, 0
1, 48907, Note_on_c, 0, 78, 0
1, 48908, Note_on_c, 0, 66, 0
1, 48910, Note_on_c, 0, 54, 0
1, 48919, Note_on_c, 0, 74, 107
1, 48920, Note_on_c, 0, 62, 110
1, 48942, Note_on_c, 0, 62, 0
1, 48943, Note_on_c, 0, 74, 0
1, 48950, Note_on_c, 0, 72, 107
1, 48951, Note_on_c, 0, 60, 110
1, 48975, Note_on_c, 0, 60, 0
1, 48978, Note_on_c, 0, 72, 0
1, 48985, Note_on_c, 0, 69, 107
1, 48986, Note_on_c, 0, 57, 110
1, 49009, Note_on_c, 0, 57, 0
1, 49011, Note_on_c, 0, 69, 0
1, 49017, Note_on_c, 0, 66, 110
1, 49020, Note_on_c, 0, 54, 110
1, 49036, Note_on_c, 0, 54, 0
1, 49040, Note_on_c, 0, 66, 0
1, 49052, Note_on_c, 0, 67, 110
1, 49053, Note_on_c, 0, 55, 110
1, 49093, Note_on_c, 0, 70, 111
1, 49095, Note_on_c, 0, 58, 110
1, 49160, Note_on_c, 0, 58, 0
1, 49161, Note_on_c, 0, 70, 0
1, 49163, Note_on_c, 0, 63, 110
1, 49164, Note_on_c, 0, 75, 111
1, 49260, Note_on_c, 0, 79, 111
1, 49260, Note_on_c, 0, 67, 110
1, 49323, Note_on_c, 0, 79, 0
1, 49330, Note_on_c, 0, 67, 0
1, 49346, Note_on_c, 0, 82, 111
1, 49347, Note_on_c, 0, 70, 111
1, 49561, Note_on_c, 0, 70, 0
1, 49564, Note_on_c, 0, 82, 0
1, 49576, Note_on_c, 0, 63, 0
1, 49577, Note_on_c, 0, 75, 0
1, 49595, Note_on_c, 0, 82, 107
1, 49596, Note_on_c, 0, 70, 107
1, 49596, Note_on_c, 0, 55, 110
1, 49597, Note_on_c, 0, 43, 115
1, 49599, Note_on_c, 0, 51, 110
1, 49599, Note_on_c, 0, 58, 110
1, 49599, Note_on_c, 0, 63, 110
1, 49601, Note_on_c, 0, 55, 110
1, 49601, Note_on_c, 0, 67, 110
1, 49602, Note_on_c, 0, 46, 115
1, 49603, Note_on_c, 0, 79, 107
1, 49603, Note_on_c, 0, 75, 107
1, 49603, Note_on_c, 0, 63, 110
1, 49605, Note_on_c, 0, 67, 110
1, 49620, Note_on_c, 0, 55, 0
1, 49763, Note_on_c, 0, 67, 0
1, 49776, Note_on_c, 0, 75, 0
1, 49800, Note_on_c, 0, 63, 0
1, 49800, Note_on_c, 0, 55, 0
1, 49860, Note_on_c, 0, 74, 107
1, 49860, Note_on_c, 0, 62, 110
1, 49992, Note_on_c, 0, 46, 0
1, 49993, Note_on_c, 0, 43, 0
1, 49994, Note_on_c, 0, 79, 0
1, 49995, Note_on_c, 0, 51, 0
1, 49998, Note_on_c, 0, 58, 0
1, 50124, Note_on_c, 0, 62, 0
1, 50126, Note_on_c, 0, 74, 0
1, 50142, Note_on_c, 0, 57, 110
1, 50143, Note_on_c, 0, 45, 115
1, 50201, Note_on_c, 0, 61, 110
1, 50202, Note_on_c, 0, 49, 110
1, 50236, Note_on_c, 0, 49, 0
1, 50237, Note_on_c, 0, 61, 0
1, 50254, Note_on_c, 0, 82, 0
1, 50255, Note_on_c, 0, 70, 0
1, 50255, Note_on_c, 0, 64, 110
1, 50256, Note_on_c, 0, 52, 110
1, 50274, Note_on_c, 0, 67, 0
1, 50286, Note_on_c, 0, 64, 0
1, 50287, Note_on_c, 0, 52, 0
1, 50303, Note_on_c, 0, 67, 110
1, 50304, Note_on_c, 0, 55, 110
1, 50315, Note_on_c, 0, 67, 0
1, 50346, Note_on_c, 0, 73, 107
1, 50349, Note_on_c, 0, 61, 110
1, 50369, Note_on_c, 0, 61, 0
1, 50375, Note_on_c, 0, 73, 0
1, 50386, Note_on_c, 0, 76, 107
1, 50387, Note_on_c, 0, 64, 110
1, 50407, Note_on_c, 0, 64, 0
1, 50410, Note_on_c, 0, 76, 0
1, 50422, Note_on_c, 0, 79, 107
1, 50424, Note_on_c, 0, 67, 110
1, 50451, Note_on_c, 0, 67, 0
1, 50455, Note_on_c, 0, 79, 0
1, 50464, Note_on_c, 0, 76, 107
1, 50465, Note_on_c, 0, 64, 110
1, 50482, Note_on_c, 0, 55, 0
1, 50490, Note_on_c, 0, 64, 0
1, 50492, Note_on_c, 0, 76, 0
1, 50504, Note_on_c, 0, 73, 107
1, 50505, Note_on_c, 0, 61, 110
1, 50534, Note_on_c, 0, 61, 0
1, 50536, Note_on_c, 0, 73, 0
1, 50542, Note_on_c, 0, 45, 0
1, 50544, Note_on_c, 0, 57, 0
1, 50549, Note_on_c, 0, 67, 110
1, 50550, Note_on_c, 0, 55, 110
1, 50579, Note_on_c, 0, 55, 0
1, 50583, Note_on_c, 0, 67, 0
1, 50588, Note_on_c, 0, 64, 110
1, 50589, Note_on_c, 0, 52, 110
1, 50615, Note_on_c, 0, 52, 0
1, 50617, Note_on_c, 0, 64, 0
1, 50628, Note_on_c, 0, 49, 110
1, 50628, Note_on_c, 0, 61, 110
1, 50662, Note_on_c, 0, 49, 0
1, 50666, Note_on_c, 0, 61, 0
1, 50670, Note_on_c, 0, 57, 110
1, 50671, Note_on_c, 0, 45, 115
1, 50692, Note_on_c, 0, 45, 0
1, 50699, Note_on_c, 0, 57, 0
1, 50709, Note_on_c, 0, 57, 110
1, 50711, Note_on_c, 0, 45, 115
1, 50718, Note_on_c, 0, 63, 0
1, 50760, Note_on_c, 0, 49, 110
1, 50760, Note_on_c, 0, 61, 110
1, 50787, Note_on_c, 0, 49, 0
1, 50789, Note_on_c, 0, 61, 0
1, 50803, Note_on_c, 0, 64, 110
1, 50806, Note_on_c, 0, 52, 110
1, 50833, Note_on_c, 0, 52, 0
1, 50838, Note_on_c, 0, 64, 0
1, 50847, Note_on_c, 0, 65, 110
1, 50848, Note_on_c, 0, 53, 110
1, 50869, Note_on_c, 0, 53, 0
1, 50872, Note_on_c, 0, 65, 0
1, 50880, Note_on_c, 0, 73, 107
1, 50881, Note_on_c, 0, 61, 110
1, 50901, Note_on_c, 0, 61, 0
1, 50904, Note_on_c, 0, 73, 0
1, 50911, Note_on_c, 0, 76, 107
1, 50911, Note_on_c, 0, 64, 110
1, 50930, Note_on_c, 0, 64, 0
1, 50933, Note_on_c, 0, 76, 0
1, 50938, Note_on_c, 0, 77, 107
1, 50940, Note_on_c, 0, 65, 110
1, 50961, Note_on_c, 0, 77, 0
1, 50962, Note_on_c, 0, 65, 0
1, 50969, Note_on_c, 0, 81, 107
1, 50970, Note_on_c, 0, 69, 107
1, 50989, Note_on_c, 0, 69, 0
1, 50991, Note_on_c, 0, 81, 0
1, 51000, Note_on_c, 0, 77, 107
1, 51001, Note_on_c, 0, 65, 110
1, 51027, Note_on_c, 0, 77, 0
1, 51028, Note_on_c, 0, 65, 0
1, 51039, Note_on_c, 0, 76, 107
1, 51040, Note_on_c, 0, 64, 110
1, 51064, Note_on_c, 0, 64, 0
1, 51065, Note_on_c, 0, 76, 0
1, 51073, Note_on_c, 0, 73, 107
1, 51074, Note_on_c, 0, 61, 110
1, 51088, Note_on_c, 0, 45, 0
1, 51092, Note_on_c, 0, 57, 0
1, 51096, Note_on_c, 0, 61, 0
1, 51098, Note_on_c, 0, 73, 0
1, 51107, Note_on_c, 0, 65, 110
1, 51108, Note_on_c, 0, 53, 110
1, 51131, Note_on_c, 0, 53, 0
1, 51134, Note_on_c, 0, 65, 0
1, 51144, Note_on_c, 0, 64, 110
1, 51144, Note_on_c, 0, 52, 110
1, 51171, Note_on_c, 0, 52, 0
1, 51172, Note_on_c, 0, 64, 0
1, 51182, Note_on_c, 0, 49, 110
1, 51183, Note_on_c, 0, 61, 110
1, 51211, Note_on_c, 0, 61, 0
1, 51215, Note_on_c, 0, 49, 0
1, 51219, Note_on_c, 0, 57, 110
1, 51222, Note_on_c, 0, 45, 115
1, 51234, Note_on_c, 0, 67, 0
1, 51250, Note_on_c, 0, 45, 0
1, 51256, Note_on_c, 0, 57, 0
1, 51266, Note_on_c, 0, 53, 110
1, 51267, Note_on_c, 0, 62, 110
1, 51267, Note_on_c, 0, 65, 110
1, 51269, Note_on_c, 0, 50, 110
1, 51270, Note_on_c, 0, 46, 115
1, 51272, Note_on_c, 0, 58, 110
1, 51441, Note_on_c, 0, 74, 107
1, 51442, Note_on_c, 0, 62, 110
1, 51538, Note_on_c, 0, 74, 0
1, 51558, Note_on_c, 0, 77, 107
1, 51559, Note_on_c, 0, 55, 0
1, 51560, Note_on_c, 0, 65, 110
1, 51639, Note_on_c, 0, 65, 0
1, 51674, Note_on_c, 0, 77, 0
1, 51681, Note_on_c, 0, 81, 107
1, 51682, Note_on_c, 0, 69, 107
1, 51919, Note_on_c, 0, 50, 0
1, 51920, Note_on_c, 0, 46, 0
1, 51924, Note_on_c, 0, 65, 0
1, 51924, Note_on_c, 0, 58, 0
1, 51928, Note_on_c, 0, 53, 0
1, 51929, Note_on_c, 0, 62, 0
1, 52078, Note_on_c, 0, 67, 110
1, 52173, Note_on_c, 0, 67, 0
1, 52195, Note_on_c, 0, 65, 110
1, 52200, Note_on_c, 0, 81, 0
1, 52205, Note_on_c, 0, 69, 0
1, 52310, Note_on_c, 0, 65, 0
1, 52333, Note_on_c, 0, 64, 110
1, 52453, Note_on_c, 0, 64, 0
1, 52465, Note_on_c, 0, 65, 110
1, 52547, Note_on_c, 0, 65, 0
1, 52562, Note_on_c, 0, 61, 110
1, 52566, Note_on_c, 0, 62, 0
1, 52629, Note_on_c, 0, 61, 0
1, 52640, Note_on_c, 0, 62, 110
1, 52708, Note_on_c, 0, 62, 0
1, 52722, Note_on_c, 0, 57, 110
1, 52782, Note_on_c, 0, 57, 0
1, 52790, Note_on_c, 0, 58, 110
1, 52856, Note_on_c, 0, 58, 0
1, 52866, Note_on_c, 0, 56, 110
1, 52931, Note_on_c, 0, 56, 0
1, 52943, Note_on_c, 0, 57, 110
1, 53004, Note_on_c, 0, 57, 0
1, 53019, Note_on_c, 0, 52, 110
1, 53076, Note_on_c, 0, 52, 0
1, 53091, Note_on_c, 0, 53, 110
1, 53151, Note_on_c, 0, 53, 0
1, 53166, Note_on_c, 0, 49, 110
1, 53225, Note_on_c, 0, 49, 0
1, 53234, Note_on_c, 0, 50, 110
1, 53292, Note_on_c, 0, 50, 0
1, 53304, Note_on_c, 0, 45, 115
1, 53377, Note_on_c, 0, 45, 0
1, 53384, Note_on_c, 0, 46, 115
1, 53436, Note_on_c, 0, 46, 0
1, 53449, Note_on_c, 0, 50, 110
1, 53501, Note_on_c, 0, 50, 0
1, 53514, Note_on_c, 0, 53, 110
1, 53573, Note_on_c, 0, 53, 0
1, 53580, Note_on_c, 0, 57, 110
1, 53634, Note_on_c, 0, 57, 0
1, 53646, Note_on_c, 0, 62, 110
1, 53703, Note_on_c, 0, 62, 0
1, 53714, Note_on_c, 0, 65, 110
1, 53765, Note_on_c, 0, 65, 0
1, 53776, Note_on_c, 0, 69, 107
1, 53828, Note_on_c, 0, 69, 0
1, 53834, Note_on_c, 0, 68, 107
1, 53877, Note_on_c, 0, 68, 0
1, 53894, Note_on_c, 0, 69, 107
1, 53936, Note_on_c, 0, 69, 0
1, 53950, Note_on_c, 0, 66, 110
1, 54005, Note_on_c, 0, 66, 0
1, 54018, Note_on_c, 0, 63, 110
1, 54070, Note_on_c, 0, 63, 0
1, 54084, Note_on_c, 0, 60, 110
1, 54142, Note_on_c, 0, 60, 0
1, 54147, Note_on_c, 0, 59, 110
1, 54218, Note_on_c, 0, 57, 110
1, 54219, Note_on_c, 0, 59, 0
1, 54285, Note_on_c, 0, 54, 110
1, 54291, Note_on_c, 0, 57, 0
1, 54360, Note_on_c, 0, 52, 110
1, 54365, Note_on_c, 0, 54, 0
1, 54481, Note_on_c, 0, 52, 0
1, 54492, Note_on_c, 0, 69, 107
1, 54492, Note_on_c, 0, 63, 110
1, 54492, Note_on_c, 0, 51, 110
1, 54493, Note_on_c, 0, 72, 107
1, 54494, Note_on_c, 0, 54, 110
1, 54494, Note_on_c, 0, 60, 110
1, 54495, Note_on_c, 0, 57, 110
1, 54586, Note_on_c, 0, 78, 107
1, 54587, Note_on_c, 0, 66, 110
1, 54740, Note_on_c, 0, 81, 107
1, 54742, Note_on_c, 0, 69, 107
1, 54744, Note_on_c, 0, 69, 0
1, 54896, Note_on_c, 0, 71, 107
1, 54897, Note_on_c, 0, 59, 110
1, 54899, Note_on_c, 0, 81, 0
1, 54924, Note_on_c, 0, 78, 0
1, 54925, Note_on_c, 0, 66, 0
1, 54955, Note_on_c, 0, 72, 0
1, 54956, Note_on_c, 0, 60, 0
1, 55062, Note_on_c, 0, 51, 0
1, 55063, Note_on_c, 0, 54, 0
1, 55064, Note_on_c, 0, 57, 0
1, 55066, Note_on_c, 0, 63, 0
1, 55179, Note_on_c, 0, 40, 115
1, 55180, Note_on_c, 0, 52, 110
1, 55192, Note_on_c, 0, 71, 0
1, 55192, Note_on_c, 0, 59, 0
1, 55234, Note_on_c, 0, 57, 110
1, 55235, Note_on_c, 0, 45, 115
1, 55272, Note_on_c, 0, 57, 0
1, 55281, Note_on_c, 0, 45, 0
1, 55299, Note_on_c, 0, 60, 110
1, 55301, Note_on_c, 0, 48, 115
1, 55341, Note_on_c, 0, 48, 0
1, 55345, Note_on_c, 0, 60, 0
1, 55359, Note_on_c, 0, 64, 110
1, 55360, Note_on_c, 0, 52, 110
1, 55398, Note_on_c, 0, 64, 0
1, 55402, Note_on_c, 0, 69, 107
1, 55403, Note_on_c, 0, 57, 110
1, 55410, Note_on_c, 0, 69, 0
1, 55428, Note_on_c, 0, 57, 0
1, 55431, Note_on_c, 0, 69, 0
1, 55440, Note_on_c, 0, 72, 107
1, 55441, Note_on_c, 0, 60, 110
1, 55449, Note_on_c, 0, 52, 0
1, 55464, Note_on_c, 0, 60, 0
1, 55467, Note_on_c, 0, 72, 0
1, 55474, Note_on_c, 0, 76, 107
1, 55476, Note_on_c, 0, 64, 110
1, 55494, Note_on_c, 0, 64, 0
1, 55496, Note_on_c, 0, 76, 0
1, 55509, Note_on_c, 0, 81, 107
1, 55509, Note_on_c, 0, 69, 107
1, 55531, Note_on_c, 0, 69, 0
1, 55536, Note_on_c, 0, 81, 0
1, 55542, Note_on_c, 0, 76, 107
1, 55543, Note_on_c, 0, 64, 110
1, 55564, Note_on_c, 0, 64, 0
1, 55565, Note_on_c, 0, 76, 0
1, 55573, Note_on_c, 0, 52, 0
1, 55574, Note_on_c, 0, 72, 107
1, 55574, Note_on_c, 0, 60, 110
1, 55596, Note_on_c, 0, 60, 0
1, 55598, Note_on_c, 0, 72, 0
1, 55607, Note_on_c, 0, 69, 107
1, 55608, Note_on_c, 0, 57, 110
1, 55634, Note_on_c, 0, 57, 0
1, 55637, Note_on_c, 0, 69, 0
1, 55638, Note_on_c, 0, 40, 0
1, 55641, Note_on_c, 0, 52, 110
1, 55642, Note_on_c, 0, 64, 110
1, 55663, Note_on_c, 0, 52, 0
1, 55666, Note_on_c, 0, 64, 0
1, 55680, Note_on_c, 0, 60, 110
1, 55680, Note_on_c, 0, 48, 115
1, 55704, Note_on_c, 0, 48, 0
1, 55707, Note_on_c, 0, 60, 0
1, 55715, Note_on_c, 0, 57, 110
1, 55716, Note_on_c, 0, 45, 115
1, 55747, Note_on_c, 0, 45, 0
1, 55750, Note_on_c, 0, 57, 0
1, 55761, Note_on_c, 0, 52, 110
1, 55762, Note_on_c, 0, 40, 115
1, 55788, Note_on_c, 0, 40, 0
1, 55789, Note_on_c, 0, 52, 0
1, 55806, Note_on_c, 0, 52, 110
1, 55807, Note_on_c, 0, 40, 115
1, 55859, Note_on_c, 0, 59, 110
1, 55860, Note_on_c, 0, 47, 115
1, 55896, Note_on_c, 0, 47, 0
1, 55898, Note_on_c, 0, 59, 0
1, 55911, Note_on_c, 0, 64, 110
1, 55912, Note_on_c, 0, 52, 110
1, 55942, Note_on_c, 0, 52, 0
1, 55945, Note_on_c, 0, 64, 0
1, 55961, Note_on_c, 0, 71, 107
1, 55962, Note_on_c, 0, 59, 110
1, 55992, Note_on_c, 0, 59, 0
1, 55995, Note_on_c, 0, 71, 0
1, 56010, Note_on_c, 0, 74, 107
1, 56010, Note_on_c, 0, 62, 110
1, 56040, Note_on_c, 0, 62, 0
1, 56043, Note_on_c, 0, 74, 0
1, 56054, Note_on_c, 0, 76, 107
1, 56055, Note_on_c, 0, 64, 110
1, 56083, Note_on_c, 0, 64, 0
1, 56087, Note_on_c, 0, 76, 0
1, 56096, Note_on_c, 0, 80, 107
1, 56097, Note_on_c, 0, 68, 107
1, 56126, Note_on_c, 0, 68, 0
1, 56129, Note_on_c, 0, 80, 0
1, 56136, Note_on_c, 0, 76, 107
1, 56137, Note_on_c, 0, 64, 110
1, 56161, Note_on_c, 0, 64, 0
1, 56164, Note_on_c, 0, 76, 0
1, 56174, Note_on_c, 0, 74, 107
1, 56175, Note_on_c, 0, 62, 110
1, 56196, Note_on_c, 0, 40, 0
1, 56197, Note_on_c, 0, 62, 0
1, 56203, Note_on_c, 0, 74, 0
1, 56203, Note_on_c, 0, 52, 0
1, 56215, Note_on_c, 0, 71, 107
1, 56216, Note_on_c, 0, 59, 110
1, 56238, Note_on_c, 0, 71, 0
1, 56239, Note_on_c, 0, 59, 0
1, 56248, Note_on_c, 0, 52, 110
1, 56249, Note_on_c, 0, 64, 110
1, 56269, Note_on_c, 0, 52, 0
1, 56278, Note_on_c, 0, 64, 0
1, 56285, Note_on_c, 0, 59, 110
1, 56287, Note_on_c, 0, 47, 115
1, 56312, Note_on_c, 0, 47, 0
1, 56318, Note_on_c, 0, 59, 0
1, 56327, Note_on_c, 0, 52, 110
1, 56328, Note_on_c, 0, 40, 115
1, 56352, Note_on_c, 0, 40, 0
1, 56356, Note_on_c, 0, 52, 0
1, 56366, Note_on_c, 0, 64, 110
1, 56368, Note_on_c, 0, 52, 110
1, 56418, Note_on_c, 0, 56, 110
1, 56419, Note_on_c, 0, 68, 107
1, 56445, Note_on_c, 0, 56, 0
1, 56451, Note_on_c, 0, 68, 0
1, 56465, Note_on_c, 0, 71, 107
1, 56466, Note_on_c, 0, 59, 110
1, 56495, Note_on_c, 0, 59, 0
1, 56502, Note_on_c, 0, 71, 0
1, 56514, Note_on_c, 0, 72, 107
1, 56515, Note_on_c, 0, 60, 110
1, 56535, Note_on_c, 0, 60, 0
1, 56543, Note_on_c, 0, 72, 0
1, 56547, Note_on_c, 0, 64, 110
1, 56549, Note_on_c, 0, 76, 107
1, 56569, Note_on_c, 0, 64, 0
1, 56572, Note_on_c, 0, 76, 0
1, 56580, Note_on_c, 0, 80, 107
1, 56581, Note_on_c, 0, 68, 107
1, 56600, Note_on_c, 0, 68, 0
1, 56603, Note_on_c, 0, 80, 0
1, 56610, Note_on_c, 0, 83, 107
1, 56611, Note_on_c, 0, 71, 107
1, 56630, Note_on_c, 0, 71, 0
1, 56634, Note_on_c, 0, 83, 0
1, 56645, Note_on_c, 0, 72, 107
1, 56646, Note_on_c, 0, 84, 107
1, 56671, Note_on_c, 0, 84, 0
1, 56671, Note_on_c, 0, 72, 0
1, 56681, Note_on_c, 0, 83, 107
1, 56682, Note_on_c, 0, 71, 107
1, 56712, Note_on_c, 0, 71, 0
1, 56715, Note_on_c, 0, 83, 0
1, 56719, Note_on_c, 0, 80, 107
1, 56719, Note_on_c, 0, 68, 107
1, 56743, Note_on_c, 0, 68, 0
1, 56746, Note_on_c, 0, 80, 0
1, 56752, Note_on_c, 0, 76, 107
1, 56753, Note_on_c, 0, 64, 110
1, 56754, Note_on_c, 0, 64, 0
1, 56770, Note_on_c, 0, 52, 0
1, 56775, Note_on_c, 0, 76, 0
1, 56785, Note_on_c, 0, 64, 0
1, 56785, Note_on_c, 0, 72, 107
1, 56786, Note_on_c, 0, 60, 110
1, 56811, Note_on_c, 0, 60, 0
1, 56812, Note_on_c, 0, 72, 0
1, 56817, Note_on_c, 0, 71, 107
1, 56818, Note_on_c, 0, 59, 110
1, 56841, Note_on_c, 0, 59, 0
1, 56846, Note_on_c, 0, 71, 0
1, 56850, Note_on_c, 0, 68, 107
1, 56853, Note_on_c, 0, 56, 110
1, 56873, Note_on_c, 0, 56, 0
1, 56878, Note_on_c, 0, 68, 0
1, 56885, Note_on_c, 0, 52, 110
1, 56886, Note_on_c, 0, 64, 110
1, 56905, Note_on_c, 0, 64, 0
1, 56911, Note_on_c, 0, 52, 0
1, 56920, Note_on_c, 0, 64, 110
1, 56921, Note_on_c, 0, 52, 110
1, 56922, Note_on_c, 0, 60, 110
1, 56923, Note_on_c, 0, 48, 115
1, 56949, Note_on_c, 0, 64, 0
1, 56954, Note_on_c, 0, 52, 0
1, 56959, Note_on_c, 0, 69, 107
1, 56960, Note_on_c, 0, 57, 110
1, 56986, Note_on_c, 0, 57, 0
1, 56989, Note_on_c, 0, 69, 0
1, 56990, Note_on_c, 0, 72, 107
1, 56992, Note_on_c, 0, 60, 110
1, 57013, Note_on_c, 0, 72, 0
1, 57026, Note_on_c, 0, 76, 107
1, 57028, Note_on_c, 0, 64, 110
1, 57043, Note_on_c, 0, 60, 0
1, 57048, Note_on_c, 0, 64, 0
1, 57052, Note_on_c, 0, 76, 0
1, 57060, Note_on_c, 0, 81, 107
1, 57061, Note_on_c, 0, 69, 107
1, 57084, Note_on_c, 0, 69, 0
1, 57088, Note_on_c, 0, 81, 0
1, 57097, Note_on_c, 0, 84, 107
1, 57098, Note_on_c, 0, 72, 107
1, 57122, Note_on_c, 0, 72, 0
1, 57123, Note_on_c, 0, 48, 0
1, 57125, Note_on_c, 0, 84, 0
1, 57130, Note_on_c, 0, 60, 0
1, 57133, Note_on_c, 0, 81, 107
1, 57135, Note_on_c, 0, 69, 107
1, 57159, Note_on_c, 0, 69, 0
1, 57165, Note_on_c, 0, 81, 0
1, 57170, Note_on_c, 0, 76, 107
1, 57171, Note_on_c, 0, 64, 110
1, 57194, Note_on_c, 0, 76, 0
1, 57195, Note_on_c, 0, 64, 0
1, 57202, Note_on_c, 0, 57, 110
1, 57204, Note_on_c, 0, 72, 107
1, 57204, Note_on_c, 0, 45, 115
1, 57205, Note_on_c, 0, 60, 110
1, 57227, Note_on_c, 0, 60, 0
1, 57230, Note_on_c, 0, 72, 0
1, 57235, Note_on_c, 0, 69, 107
1, 57237, Note_on_c, 0, 57, 110
1, 57259, Note_on_c, 0, 57, 0
1, 57261, Note_on_c, 0, 69, 0
1, 57269, Note_on_c, 0, 52, 110
1, 57269, Note_on_c, 0, 64, 110
1, 57292, Note_on_c, 0, 52, 0
1, 57294, Note_on_c, 0, 64, 0
1, 57300, Note_on_c, 0, 69, 107
1, 57300, Note_on_c, 0, 57, 110
1, 57328, Note_on_c, 0, 57, 0
1, 57329, Note_on_c, 0, 69, 0
1, 57336, Note_on_c, 0, 72, 107
1, 57337, Note_on_c, 0, 60, 110
1, 57358, Note_on_c, 0, 60, 0
1, 57362, Note_on_c, 0, 72, 0
1, 57368, Note_on_c, 0, 76, 107
1, 57370, Note_on_c, 0, 64, 110
1, 57385, Note_on_c, 0, 57, 0
1, 57397, Note_on_c, 0, 64, 0
1, 57398, Note_on_c, 0, 76, 0
1, 57401, Note_on_c, 0, 45, 0
1, 57405, Note_on_c, 0, 81, 107
1, 57408, Note_on_c, 0, 69, 107
1, 57436, Note_on_c, 0, 69, 0
1, 57441, Note_on_c, 0, 81, 0
1, 57445, Note_on_c, 0, 84, 107
1, 57447, Note_on_c, 0, 72, 107
1, 57469, Note_on_c, 0, 84, 0
1, 57473, Note_on_c, 0, 72, 0
1, 57489, Note_on_c, 0, 84, 107
1, 57489, Note_on_c, 0, 53, 110
1, 57491, Note_on_c, 0, 72, 107
1, 57491, Note_on_c, 0, 41, 115
1, 57541, Note_on_c, 0, 57, 110
1, 57542, Note_on_c, 0, 45, 115
1, 57580, Note_on_c, 0, 45, 0
1, 57581, Note_on_c, 0, 57, 0
1, 57593, Note_on_c, 0, 60, 110
1, 57595, Note_on_c, 0, 48, 115
1, 57625, Note_on_c, 0, 48, 0
1, 57629, Note_on_c, 0, 60, 0
1, 57642, Note_on_c, 0, 53, 110
1, 57643, Note_on_c, 0, 65, 110
1, 57664, Note_on_c, 0, 65, 0
1, 57674, Note_on_c, 0, 72, 107
1, 57674, Note_on_c, 0, 60, 110
1, 57695, Note_on_c, 0, 60, 0
1, 57705, Note_on_c, 0, 76, 107
1, 57705, Note_on_c, 0, 64, 110
1, 57716, Note_on_c, 0, 72, 0
1, 57732, Note_on_c, 0, 64, 0
1, 57736, Note_on_c, 0, 76, 0
1, 57740, Note_on_c, 0, 69, 107
1, 57741, Note_on_c, 0, 81, 107
1, 57765, Note_on_c, 0, 69, 0
1, 57767, Note_on_c, 0, 81, 0
1, 57776, Note_on_c, 0, 72, 107
1, 57776, Note_on_c, 0, 84, 107
1, 57810, Note_on_c, 0, 81, 107
1, 57811, Note_on_c, 0, 69, 107
1, 57815, Note_on_c, 0, 53, 0
1, 57828, Note_on_c, 0, 84, 0
1, 57828, Note_on_c, 0, 72, 0
1, 57836, Note_on_c, 0, 69, 0
1, 57839, Note_on_c, 0, 81, 0
1, 57851, Note_on_c, 0, 76, 107
1, 57852, Note_on_c, 0, 64, 110
1, 57867, Note_on_c, 0, 72, 0
1, 57884, Note_on_c, 0, 64, 0
1, 57888, Note_on_c, 0, 76, 0
1, 57891, Note_on_c, 0, 84, 0
1, 57892, Note_on_c, 0, 72, 107
1, 57893, Note_on_c, 0, 60, 110
1, 57915, Note_on_c, 0, 60, 0
1, 57916, Note_on_c, 0, 72, 0
1, 57922, Note_on_c, 0, 41, 0
1, 57928, Note_on_c, 0, 53, 110
1, 57929, Note_on_c, 0, 65, 110
1, 57948, Note_on_c, 0, 53, 0
1, 57952, Note_on_c, 0, 65, 0
1, 57961, Note_on_c, 0, 60, 110
1, 57962, Note_on_c, 0, 48, 115
1, 57986, Note_on_c, 0, 48, 0
1, 57989, Note_on_c, 0, 60, 0
1, 57995, Note_on_c, 0, 53, 0
1, 57996, Note_on_c, 0, 57, 110
1, 57996, Note_on_c, 0, 45, 115
1, 58024, Note_on_c, 0, 45, 0
1, 58025, Note_on_c, 0, 57, 0
1, 58030, Note_on_c, 0, 53, 110
1, 58032, Note_on_c, 0, 41, 115
1, 58049, Note_on_c, 0, 41, 0
1, 58053, Note_on_c, 0, 53, 0
1, 58068, Note_on_c, 0, 83, 107
1, 58068, Note_on_c, 0, 54, 110
1, 58068, Note_on_c, 0, 42, 115
1, 58069, Note_on_c, 0, 71, 107
1, 58121, Note_on_c, 0, 57, 110
1, 58122, Note_on_c, 0, 45, 115
1, 58144, Note_on_c, 0, 45, 0
1, 58147, Note_on_c, 0, 57, 0
1, 58163, Note_on_c, 0, 59, 110
1, 58163, Note_on_c, 0, 47, 115
1, 58188, Note_on_c, 0, 47, 0
1, 58194, Note_on_c, 0, 59, 0
1, 58203, Note_on_c, 0, 63, 110
1, 58205, Note_on_c, 0, 51, 110
1, 58226, Note_on_c, 0, 51, 0
1, 58229, Note_on_c, 0, 63, 0
1, 58235, Note_on_c, 0, 71, 107
1, 58236, Note_on_c, 0, 59, 110
1, 58260, Note_on_c, 0, 59, 0
1, 58260, Note_on_c, 0, 71, 0
1, 58260, Note_on_c, 0, 42, 0
1, 58262, Note_on_c, 0, 54, 0
1, 58264, Note_on_c, 0, 71, 0
1, 58265, Note_on_c, 0, 83, 0
1, 58272, Note_on_c, 0, 75, 107
1, 58272, Note_on_c, 0, 63, 110
1, 58300, Note_on_c, 0, 63, 0
1, 58303, Note_on_c, 0, 75, 0
1, 58309, Note_on_c, 0, 78, 107
1, 58310, Note_on_c, 0, 66, 110
1, 58336, Note_on_c, 0, 66, 0
1, 58339, Note_on_c, 0, 78, 0
1, 58347, Note_on_c, 0, 42, 115
1, 58348, Note_on_c, 0, 69, 107
1, 58349, Note_on_c, 0, 54, 110
1, 58350, Note_on_c, 0, 81, 107
1, 58400, Note_on_c, 0, 57, 110
1, 58402, Note_on_c, 0, 45, 115
1, 58439, Note_on_c, 0, 45, 0
1, 58442, Note_on_c, 0, 57, 0
1, 58457, Note_on_c, 0, 60, 110
1, 58460, Note_on_c, 0, 48, 115
1, 58484, Note_on_c, 0, 48, 0
1, 58485, Note_on_c, 0, 60, 0
1, 58501, Note_on_c, 0, 63, 110
1, 58502, Note_on_c, 0, 51, 110
1, 58523, Note_on_c, 0, 51, 0
1, 58527, Note_on_c, 0, 63, 0
1, 58533, Note_on_c, 0, 72, 107
1, 58533, Note_on_c, 0, 60, 110
1, 58551, Note_on_c, 0, 60, 0
1, 58558, Note_on_c, 0, 72, 0
1, 58562, Note_on_c, 0, 54, 0
1, 58562, Note_on_c, 0, 42, 0
1, 58563, Note_on_c, 0, 69, 0
1, 58566, Note_on_c, 0, 81, 0
1, 58567, Note_on_c, 0, 75, 107
1, 58567, Note_on_c, 0, 63, 110
1, 58589, Note_on_c, 0, 63, 0
1, 58593, Note_on_c, 0, 75, 0
1, 58600, Note_on_c, 0, 78, 107
1, 58602, Note_on_c, 0, 66, 110
1, 58621, Note_on_c, 0, 66, 0
1, 58625, Note_on_c, 0, 78, 0
1, 58635, Note_on_c, 0, 52, 110
1, 58636, Note_on_c, 0, 40, 115
1, 58687, Note_on_c, 0, 57, 110
1, 58688, Note_on_c, 0, 45, 115
1, 58723, Note_on_c, 0, 45, 0
1, 58726, Note_on_c, 0, 57, 0
1, 58745, Note_on_c, 0, 60, 110
1, 58745, Note_on_c, 0, 48, 115
1, 58779, Note_on_c, 0, 48, 0
1, 58781, Note_on_c, 0, 60, 0
1, 58789, Note_on_c, 0, 64, 110
1, 58790, Note_on_c, 0, 52, 110
1, 58808, Note_on_c, 0, 52, 0
1, 58811, Note_on_c, 0, 64, 0
1, 58821, Note_on_c, 0, 57, 110
1, 58823, Note_on_c, 0, 69, 107
1, 58833, Note_on_c, 0, 69, 0
1, 58839, Note_on_c, 0, 57, 0
1, 58847, Note_on_c, 0, 72, 107
1, 58848, Note_on_c, 0, 60, 110
1, 58866, Note_on_c, 0, 72, 0
1, 58867, Note_on_c, 0, 60, 0
1, 58874, Note_on_c, 0, 76, 107
1, 58875, Note_on_c, 0, 64, 110
1, 58898, Note_on_c, 0, 76, 0
1, 58899, Note_on_c, 0, 64, 0
1, 58908, Note_on_c, 0, 81, 107
1, 58908, Note_on_c, 0, 69, 107
1, 58941, Note_on_c, 0, 76, 107
1, 58942, Note_on_c, 0, 64, 110
1, 58968, Note_on_c, 0, 76, 0
1, 58970, Note_on_c, 0, 64, 0
1, 58982, Note_on_c, 0, 72, 107
1, 58983, Note_on_c, 0, 60, 110
1, 59007, Note_on_c, 0, 72, 0
1, 59012, Note_on_c, 0, 60, 0
1, 59023, Note_on_c, 0, 69, 107
1, 59025, Note_on_c, 0, 57, 110
1, 59035, Note_on_c, 0, 52, 0
1, 59042, Note_on_c, 0, 69, 0
1, 59043, Note_on_c, 0, 40, 0
1, 59061, Note_on_c, 0, 65, 110
1, 59063, Note_on_c, 0, 57, 0
1, 59064, Note_on_c, 0, 53, 110
1, 59088, Note_on_c, 0, 53, 0
1, 59091, Note_on_c, 0, 65, 0
1, 59094, Note_on_c, 0, 60, 110
1, 59096, Note_on_c, 0, 48, 115
1, 59113, Note_on_c, 0, 48, 0
1, 59116, Note_on_c, 0, 81, 0
1, 59118, Note_on_c, 0, 60, 0
1, 59124, Note_on_c, 0, 69, 0
1, 59126, Note_on_c, 0, 57, 110
1, 59127, Note_on_c, 0, 45, 115
1, 59147, Note_on_c, 0, 45, 0
1, 59150, Note_on_c, 0, 57, 0
1, 59158, Note_on_c, 0, 52, 110
1, 59160, Note_on_c, 0, 40, 115
1, 59176, Note_on_c, 0, 40, 0
1, 59180, Note_on_c, 0, 52, 0
1, 59192, Note_on_c, 0, 52, 110
1, 59193, Note_on_c, 0, 69, 107
1, 59194, Note_on_c, 0, 81, 107
1, 59195, Note_on_c, 0, 40, 115
1, 59240, Note_on_c, 0, 59, 110
1, 59242, Note_on_c, 0, 47, 115
1, 59270, Note_on_c, 0, 47, 0
1, 59272, Note_on_c, 0, 59, 0
1, 59291, Note_on_c, 0, 52, 110
1, 59292, Note_on_c, 0, 64, 110
1, 59315, Note_on_c, 0, 52, 0
1, 59320, Note_on_c, 0, 64, 0
1, 59338, Note_on_c, 0, 71, 107
1, 59339, Note_on_c, 0, 59, 110
1, 59362, Note_on_c, 0, 71, 0
1, 59370, Note_on_c, 0, 59, 0
1, 59384, Note_on_c, 0, 74, 107
1, 59385, Note_on_c, 0, 62, 110
1, 59392, Note_on_c, 0, 52, 0
1, 59393, Note_on_c, 0, 69, 0
1, 59394, Note_on_c, 0, 81, 0
1, 59397, Note_on_c, 0, 40, 0
1, 59404, Note_on_c, 0, 74, 0
1, 59409, Note_on_c, 0, 62, 0
1, 59424, Note_on_c, 0, 76, 107
1, 59426, Note_on_c, 0, 64, 110
1, 59450, Note_on_c, 0, 76, 0
1, 59454, Note_on_c, 0, 64, 0
1, 59467, Note_on_c, 0, 52, 110
1, 59470, Note_on_c, 0, 80, 107
1, 59471, Note_on_c, 0, 68, 107
1, 59471, Note_on_c, 0, 40, 115
1, 59508, Note_on_c, 0, 59, 110
1, 59508, Note_on_c, 0, 47, 115
1, 59532, Note_on_c, 0, 47, 0
1, 59534, Note_on_c, 0, 59, 0
1, 59550, Note_on_c, 0, 64, 110
1, 59551, Note_on_c, 0, 52, 110
1, 59578, Note_on_c, 0, 52, 0
1, 59581, Note_on_c, 0, 64, 0
1, 59599, Note_on_c, 0, 71, 107
1, 59600, Note_on_c, 0, 59, 110
1, 59620, Note_on_c, 0, 71, 0
1, 59633, Note_on_c, 0, 59, 0
1, 59642, Note_on_c, 0, 74, 107
1, 59643, Note_on_c, 0, 62, 110
1, 59656, Note_on_c, 0, 52, 0
1, 59657, Note_on_c, 0, 40, 0
1, 59659, Note_on_c, 0, 80, 0
1, 59659, Note_on_c, 0, 68, 0
1, 59667, Note_on_c, 0, 74, 0
1, 59675, Note_on_c, 0, 62, 0
1, 59685, Note_on_c, 0, 76, 107
1, 59687, Note_on_c, 0, 64, 110
1, 59726, Note_on_c, 0, 76, 0
1, 59728, Note_on_c, 0, 64, 0
1, 59739, Note_on_c, 0, 57, 110
1, 59742, Note_on_c, 0, 74, 107
1, 59743, Note_on_c, 0, 62, 110
1, 59743, Note_on_c, 0, 45, 115
1, 59745, Note_on_c, 0, 69, 107
1, 59746, Note_on_c, 0, 81, 107
1, 59788, Note_on_c, 0, 64, 110
1, 59789, Note_on_c, 0, 52, 110
1, 59818, Note_on_c, 0, 57, 0
1, 59832, Note_on_c, 0, 52, 0
1, 59833, Note_on_c, 0, 69, 0
1, 59834, Note_on_c, 0, 64, 0
1, 59846, Note_on_c, 0, 69, 107
1, 59847, Note_on_c, 0, 57, 110
1, 59894, Note_on_c, 0, 76, 107
1, 59895, Note_on_c, 0, 64, 110
1, 59929, Note_on_c, 0, 64, 0
1, 59940, Note_on_c, 0, 69, 0
1, 59942, Note_on_c, 0, 62, 0
1, 59943, Note_on_c, 0, 45, 0
1, 59944, Note_on_c, 0, 81, 0
1, 59945, Note_on_c, 0, 69, 107
1, 59947, Note_on_c, 0, 81, 107
1, 59995, Note_on_c, 0, 74, 0
1, 60015, Note_on_c, 0, 73, 107
1, 60016, Note_on_c, 0, 61, 110
1, 60018, Note_on_c, 0, 57, 0
1, 60106, Note_on_c, 0, 81, 0
1, 60163, Note_on_c, 0, 69, 0
1, 60171, Note_on_c, 0, 76, 0
1, 60203, Note_on_c, 0, 61, 0
1, 60384, Note_on_c, 0, 73, 0
1, 60444, Note_on_c, 0, 70, 107
1, 60608, Note_on_c, 0, 69, 107
1, 60656, Note_on_c, 0, 70, 0
1, 60753, Note_on_c, 0, 67, 110
1, 60785, Note_on_c, 0, 69, 0
1, 60889, Note_on_c, 0, 66, 110
1, 60919, Note_on_c, 0, 67, 0
1, 60969, Note_on_c, 0, 66, 0
1, 60975, Note_on_c, 0, 67, 110
1, 61056, Note_on_c, 0, 67, 0
1, 61064, Note_on_c, 0, 66, 110
1, 61139, Note_on_c, 0, 66, 0
1, 61144, Note_on_c, 0, 67, 110
1, 61206, Note_on_c, 0, 67, 0
1, 61212, Note_on_c, 0, 69, 107
1, 61247, Note_on_c, 0, 69, 0
1, 61249, Note_on_c, 0, 67, 110
1, 61282, Note_on_c, 0, 67, 0
1, 61288, Note_on_c, 0, 69, 107
1, 61321, Note_on_c, 0, 67, 110
1, 61324, Note_on_c, 0, 69, 0
1, 61361, Note_on_c, 0, 67, 0
1, 61367, Note_on_c, 0, 69, 107
1, 61402, Note_on_c, 0, 69, 0
1, 61404, Note_on_c, 0, 67, 110
1, 61440, Note_on_c, 0, 67, 0
1, 61449, Note_on_c, 0, 66, 110
1, 61484, Note_on_c, 0, 66, 0
1, 61489, Note_on_c, 0, 67, 110
1, 61526, Note_on_c, 0, 67, 0
1, 61533, Note_on_c, 0, 69, 107
1, 61571, Note_on_c, 0, 69, 0
1, 61574, Note_on_c, 0, 66, 110
1, 61614, Note_on_c, 0, 66, 0
1, 61624, Note_on_c, 0, 62, 110
1, 61706, Note_on_c, 0, 62, 0
1, 61713, Note_on_c, 0, 61, 110
1, 61857, Note_on_c, 0, 61, 0
1, 61865, Note_on_c, 0, 60, 110
1, 62008, Note_on_c, 0, 60, 0
1, 62030, Note_on_c, 0, 54, 110
1, 62031, Note_on_c, 0, 81, 107
1, 62032, Note_on_c, 0, 69, 107
1, 62032, Note_on_c, 0, 60, 110
1, 62033, Note_on_c, 0, 72, 107
1, 62034, Note_on_c, 0, 42, 115
1, 62107, Note_on_c, 0, 75, 107
1, 62109, Note_on_c, 0, 56, 110
1, 62110, Note_on_c, 0, 63, 110
1, 62110, Note_on_c, 0, 44, 115
1, 62126, Note_on_c, 0, 60, 0
1, 62137, Note_on_c, 0, 42, 0
1, 62139, Note_on_c, 0, 72, 0
1, 62146, Note_on_c, 0, 54, 0
1, 62242, Note_on_c, 0, 60, 110
1, 62243, Note_on_c, 0, 48, 115
1, 62282, Note_on_c, 0, 51, 110
1, 62283, Note_on_c, 0, 63, 110
1, 62289, Note_on_c, 0, 48, 0
1, 62291, Note_on_c, 0, 60, 0
1, 62295, Note_on_c, 0, 63, 0
1, 62306, Note_on_c, 0, 80, 107
1, 62307, Note_on_c, 0, 68, 107
1, 62342, Note_on_c, 0, 56, 0
1, 62344, Note_on_c, 0, 44, 0
1, 62345, Note_on_c, 0, 75, 0
1, 62357, Note_on_c, 0, 51, 0
1, 62362, Note_on_c, 0, 63, 0
1, 62412, Note_on_c, 0, 81, 0
1, 62413, Note_on_c, 0, 69, 0
1, 62524, Note_on_c, 0, 80, 0
1, 62577, Note_on_c, 0, 68, 0
1, 62668, Note_on_c, 0, 63, 110
1, 62807, Note_on_c, 0, 65, 110
1, 62817, Note_on_c, 0, 63, 0
1, 62905, Note_on_c, 0, 67, 110
1, 62912, Note_on_c, 0, 65, 0
1, 63031, Note_on_c, 0, 68, 107
1, 63032, Note_on_c, 0, 67, 0
1, 63089, Note_on_c, 0, 68, 0
1, 63090, Note_on_c, 0, 70, 107
1, 63152, Note_on_c, 0, 70, 0
1, 63154, Note_on_c, 0, 72, 107
1, 63214, Note_on_c, 0, 73, 107
1, 63217, Note_on_c, 0, 72, 0
1, 63275, Note_on_c, 0, 72, 107
1, 63276, Note_on_c, 0, 73, 0
1, 63349, Note_on_c, 0, 72, 0
1, 63351, Note_on_c, 0, 73, 107
1, 63439, Note_on_c, 0, 73, 0
1, 63441, Note_on_c, 0, 75, 107
1, 63480, Note_on_c, 0, 75, 0
1, 63487, Note_on_c, 0, 73, 107
1, 63529, Note_on_c, 0, 73, 0
1, 63543, Note_on_c, 0, 72, 107
1, 63586, Note_on_c, 0, 72, 0
1, 63593, Note_on_c, 0, 73, 107
1, 63646, Note_on_c, 0, 73, 0
1, 63650, Note_on_c, 0, 75, 107
1, 63850, Note_on_c, 0, 75, 0
1, 63859, Note_on_c, 0, 75, 107
1, 63860, Note_on_c, 0, 75, 107
1, 63861, Note_on_c, 0, 87, 107
1, 63861, Note_on_c, 0, 60, 110
1, 63862, Note_on_c, 0, 63, 110
1, 63862, Note_on_c, 0, 48, 115
1, 63878, Note_on_c, 0, 63, 0
1, 63878, Note_on_c, 0, 75, 0
1, 63889, Note_on_c, 0, 48, 0
1, 63890, Note_on_c, 0, 78, 107
1, 63890, Note_on_c, 0, 63, 110
1, 63890, Note_on_c, 0, 51, 110
1, 63891, Note_on_c, 0, 66, 110
1, 63896, Note_on_c, 0, 60, 0
1, 63929, Note_on_c, 0, 66, 0
1, 63936, Note_on_c, 0, 63, 0
1, 63954, Note_on_c, 0, 51, 0
1, 63959, Note_on_c, 0, 70, 107
1, 63959, Note_on_c, 0, 82, 107
1, 63960, Note_on_c, 0, 54, 110
1, 63960, Note_on_c, 0, 66, 110
1, 63961, Note_on_c, 0, 78, 0
1, 64104, Note_on_c, 0, 72, 107
1, 64105, Note_on_c, 0, 60, 110
1, 64133, Note_on_c, 0, 70, 0
1, 64135, Note_on_c, 0, 66, 0
1, 64152, Note_on_c, 0, 82, 0
1, 64178, Note_on_c, 0, 69, 107
1, 64179, Note_on_c, 0, 81, 107
1, 64193, Note_on_c, 0, 54, 0
1, 64244, Note_on_c, 0, 72, 0
1, 64273, Note_on_c, 0, 60, 0
1, 64280, Note_on_c, 0, 75, 0
1, 64322, Note_on_c, 0, 87, 0
1, 64443, Note_on_c, 0, 75, 107
1, 64453, Note_on_c, 0, 81, 0
1, 64540, Note_on_c, 0, 69, 0
1, 64584, Note_on_c, 0, 78, 107
1, 64589, Note_on_c, 0, 75, 0
1, 64707, Note_on_c, 0, 77, 107
1, 64710, Note_on_c, 0, 78, 0
1, 64848, Note_on_c, 0, 75, 107
1, 64849, Note_on_c, 0, 77, 0
1, 64995, Note_on_c, 0, 73, 107
1, 65002, Note_on_c, 0, 75, 0
1, 65125, Note_on_c, 0, 72, 107
1, 65135, Note_on_c, 0, 73, 0
1, 65245, Note_on_c, 0, 72, 0
1, 65246, Note_on_c, 0, 73, 107
1, 65319, Note_on_c, 0, 73, 0
1, 65321, Note_on_c, 0, 70, 107
1, 65375, Note_on_c, 0, 70, 0
1, 65399, Note_on_c, 0, 70, 107
1, 65524, Note_on_c, 0, 70, 0
1, 65527, Note_on_c, 0, 69, 107
1, 65804, Note_on_c, 0, 69, 0
1, 65816, Note_on_c, 0, 69, 107
1, 65817, Note_on_c, 0, 66, 110
1, 65818, Note_on_c, 0, 81, 107
1, 65820, Note_on_c, 0, 60, 110
1, 65821, Note_on_c, 0, 72, 107
1, 65821, Note_on_c, 0, 54, 110
1, 65939, Note_on_c, 0, 69, 107
1, 65939, Note_on_c, 0, 57, 110
1, 65960, Note_on_c, 0, 54, 0
1, 65976, Note_on_c, 0, 57, 0
1, 65983, Note_on_c, 0, 75, 107
1, 65984, Note_on_c, 0, 63, 110
1, 65997, Note_on_c, 0, 69, 0
1, 66036, Note_on_c, 0, 66, 0
1, 66103, Note_on_c, 0, 63, 0
1, 66130, Note_on_c, 0, 75, 0
1, 66156, Note_on_c, 0, 72, 0
1, 66156, Note_on_c, 0, 60, 0
1, 66157, Note_on_c, 0, 81, 0
1, 66167, Note_on_c, 0, 69, 0
1, 66228, Note_on_c, 0, 70, 107
1, 66228, Note_on_c, 0, 61, 110
1, 66382, Note_on_c, 0, 60, 110
1, 66383, Note_on_c, 0, 69, 107
1, 66389, Note_on_c, 0, 61, 0
1, 66390, Note_on_c, 0, 70, 0
1, 66527, Note_on_c, 0, 70, 107
1, 66528, Note_on_c, 0, 61, 110
1, 66542, Note_on_c, 0, 69, 0
1, 66545, Note_on_c, 0, 60, 0
1, 66660, Note_on_c, 0, 63, 110
1, 66661, Note_on_c, 0, 72, 107
1, 66672, Note_on_c, 0, 70, 0
1, 66677, Note_on_c, 0, 61, 0
1, 66700, Note_on_c, 0, 70, 107
1, 66701, Note_on_c, 0, 61, 110
1, 66707, Note_on_c, 0, 72, 0
1, 66711, Note_on_c, 0, 63, 0
1, 66743, Note_on_c, 0, 63, 110
1, 66744, Note_on_c, 0, 70, 0
1, 66745, Note_on_c, 0, 72, 107
1, 66750, Note_on_c, 0, 61, 0
1, 66780, Note_on_c, 0, 70, 107
1, 66780, Note_on_c, 0, 61, 110
1, 66786, Note_on_c, 0, 72, 0
1, 66788, Note_on_c, 0, 63, 0
1, 66817, Note_on_c, 0, 72, 107
1, 66818, Note_on_c, 0, 63, 110
1, 66824, Note_on_c, 0, 61, 0
1, 66827, Note_on_c, 0, 70, 0
1, 66851, Note_on_c, 0, 61, 110
1, 66852, Note_on_c, 0, 70, 107
1, 66859, Note_on_c, 0, 63, 0
1, 66860, Note_on_c, 0, 72, 0
1, 66891, Note_on_c, 0, 72, 107
1, 66892, Note_on_c, 0, 63, 110
1, 66894, Note_on_c, 0, 70, 0
1, 66898, Note_on_c, 0, 61, 0
1, 66924, Note_on_c, 0, 70, 107
1, 66925, Note_on_c, 0, 61, 110
1, 66932, Note_on_c, 0, 63, 0
1, 66935, Note_on_c, 0, 72, 0
1, 66947, Note_on_c, 0, 70, 0
1, 66952, Note_on_c, 0, 61, 0
1, 66960, Note_on_c, 0, 69, 107
1, 66962, Note_on_c, 0, 60, 110
1, 67001, Note_on_c, 0, 69, 0
1, 67002, Note_on_c, 0, 60, 0
1, 67014, Note_on_c, 0, 70, 107
1, 67014, Note_on_c, 0, 61, 110
1, 67044, Note_on_c, 0, 61, 0
1, 67044, Note_on_c, 0, 70, 0
1, 67055, Note_on_c, 0, 72, 107
1, 67056, Note_on_c, 0, 63, 110
1, 67316, Note_on_c, 0, 57, 110
1, 67317, Note_on_c, 0, 75, 107
1, 67318, Note_on_c, 0, 84, 107
1, 67319, Note_on_c, 0, 72, 107
1, 67319, Note_on_c, 0, 45, 115
1, 67320, Note_on_c, 0, 63, 110
1, 67343, Note_on_c, 0, 60, 110
1, 67344, Note_on_c, 0, 48, 115
1, 67347, Note_on_c, 0, 45, 0
1, 67349, Note_on_c, 0, 57, 0
1, 67357, Note_on_c, 0, 48, 0
1, 67359, Note_on_c, 0, 51, 110
1, 67361, Note_on_c, 0, 63, 110
1, 67366, Note_on_c, 0, 60, 0
1, 67368, Note_on_c, 0, 63, 0
1, 67375, Note_on_c, 0, 63, 0
1, 67376, Note_on_c, 0, 72, 0
1, 67377, Note_on_c, 0, 54, 110
1, 67377, Note_on_c, 0, 66, 110
1, 67379, Note_on_c, 0, 51, 0
1, 67382, Note_on_c, 0, 66, 0
1, 67392, Note_on_c, 0, 78, 107
1, 67393, Note_on_c, 0, 66, 110
1, 67416, Note_on_c, 0, 69, 107
1, 67416, Note_on_c, 0, 81, 107
1, 67434, Note_on_c, 0, 66, 0
1, 67451, Note_on_c, 0, 78, 0
1, 67499, Note_on_c, 0, 54, 0
1, 67499, Note_on_c, 0, 72, 0
1, 67502, Note_on_c, 0, 75, 0
1, 67503, Note_on_c, 0, 84, 0
1, 67521, Note_on_c, 0, 63, 0
1, 67586, Note_on_c, 0, 69, 0
1, 67643, Note_on_c, 0, 81, 0
1, 67643, Note_on_c, 0, 65, 110
1, 67644, Note_on_c, 0, 73, 107
1, 67775, Note_on_c, 0, 65, 0
1, 67785, Note_on_c, 0, 72, 107
1, 67786, Note_on_c, 0, 63, 110
1, 67798, Note_on_c, 0, 73, 0
1, 67909, Note_on_c, 0, 63, 0
1, 67911, Note_on_c, 0, 72, 0
1, 67912, Note_on_c, 0, 65, 110
1, 67914, Note_on_c, 0, 73, 107
1, 68022, Note_on_c, 0, 65, 0
1, 68049, Note_on_c, 0, 73, 0
1, 68051, Note_on_c, 0, 66, 110
1, 68052, Note_on_c, 0, 75, 107
1, 68084, Note_on_c, 0, 66, 0
1, 68085, Note_on_c, 0, 65, 110
1, 68087, Note_on_c, 0, 73, 107
1, 68090, Note_on_c, 0, 75, 0
1, 68122, Note_on_c, 0, 65, 0
1, 68125, Note_on_c, 0, 73, 0
1, 68131, Note_on_c, 0, 75, 107
1, 68132, Note_on_c, 0, 66, 110
1, 68172, Note_on_c, 0, 75, 0
1, 68174, Note_on_c, 0, 66, 0
1, 68175, Note_on_c, 0, 73, 107
1, 68176, Note_on_c, 0, 65, 110
1, 68206, Note_on_c, 0, 65, 0
1, 68213, Note_on_c, 0, 73, 0
1, 68215, Note_on_c, 0, 75, 107
1, 68216, Note_on_c, 0, 66, 110
1, 68241, Note_on_c, 0, 66, 0
1, 68246, Note_on_c, 0, 75, 0
1, 68249, Note_on_c, 0, 73, 107
1, 68250, Note_on_c, 0, 65, 110
1, 68272, Note_on_c, 0, 65, 0
1, 68280, Note_on_c, 0, 73, 0
1, 68281, Note_on_c, 0, 66, 110
1, 68282, Note_on_c, 0, 75, 107
1, 68315, Note_on_c, 0, 73, 107
1, 68316, Note_on_c, 0, 65, 110
1, 68318, Note_on_c, 0, 75, 0
1, 68319, Note_on_c, 0, 66, 0
1, 68342, Note_on_c, 0, 73, 0
1, 68344, Note_on_c, 0, 65, 0
1, 68352, Note_on_c, 0, 63, 110
1, 68353, Note_on_c, 0, 72, 107
1, 68428, Note_on_c, 0, 65, 110
1, 68429, Note_on_c, 0, 72, 0
1, 68429, Note_on_c, 0, 73, 107
1, 68432, Note_on_c, 0, 63, 0
1, 68475, Note_on_c, 0, 73, 0
1, 68476, Note_on_c, 0, 65, 0
1, 68490, Note_on_c, 0, 75, 107
1, 68490, Note_on_c, 0, 66, 110
1, 68601, Note_on_c, 0, 72, 107
1, 68614, Note_on_c, 0, 75, 0
1, 68712, Note_on_c, 0, 69, 107
1, 68725, Note_on_c, 0, 72, 0
1, 68832, Note_on_c, 0, 70, 107
1, 68835, Note_on_c, 0, 69, 0
1, 68867, Note_on_c, 0, 66, 0
1, 68953, Note_on_c, 0, 70, 0
1, 68970, Note_on_c, 0, 70, 107
1, 69103, Note_on_c, 0, 70, 0
1, 69110, Note_on_c, 0, 69, 107
1, 69284, Note_on_c, 0, 69, 0
1, 69306, Note_on_c, 0, 65, 110
1, 69307, Note_on_c, 0, 53, 110
1, 69308, Note_on_c, 0, 57, 110
1, 69309, Note_on_c, 0, 60, 110
1, 69309, Note_on_c, 0, 48, 115
1, 69310, Note_on_c, 0, 53, 110
1, 69311, Note_on_c, 0, 41, 115
1, 69311, Note_on_c, 0, 45, 115
1, 69312, Note_on_c, 0, 72, 107
1, 69312, Note_on_c, 0, 60, 110
1, 69399, Note_on_c, 0, 53, 0
1, 69427, Note_on_c, 0, 60, 0
1, 69442, Note_on_c, 0, 75, 107
1, 69443, Note_on_c, 0, 63, 110
1, 69445, Note_on_c, 0, 72, 0
1, 69493, Note_on_c, 0, 77, 107
1, 69495, Note_on_c, 0, 65, 110
1, 69509, Note_on_c, 0, 63, 0
1, 69513, Note_on_c, 0, 69, 107
1, 69514, Note_on_c, 0, 81, 107
1, 69534, Note_on_c, 0, 77, 0
1, 69535, Note_on_c, 0, 65, 0
1, 69538, Note_on_c, 0, 75, 0
1, 69555, Note_on_c, 0, 65, 0
1, 69653, Note_on_c, 0, 60, 0
1, 69658, Note_on_c, 0, 48, 0
1, 69659, Note_on_c, 0, 41, 0
1, 69660, Note_on_c, 0, 45, 0
1, 69662, Note_on_c, 0, 57, 0
1, 69685, Note_on_c, 0, 69, 0
1, 69690, Note_on_c, 0, 81, 0
1, 69697, Note_on_c, 0, 65, 110
1, 69864, Note_on_c, 0, 53, 0
1, 69866, Note_on_c, 0, 65, 0
1, 69873, Note_on_c, 0, 69, 107
1, 69992, Note_on_c, 0, 69, 0
1, 70001, Note_on_c, 0, 72, 107
1, 70109, Note_on_c, 0, 72, 0
1, 70112, Note_on_c, 0, 75, 107
1, 70215, Note_on_c, 0, 75, 0
1, 70229, Note_on_c, 0, 78, 107
1, 70370, Note_on_c, 0, 78, 0
1, 70378, Note_on_c, 0, 77, 107
1, 70479, Note_on_c, 0, 75, 107
1, 70495, Note_on_c, 0, 77, 0
1, 70512, Note_on_c, 0, 75, 0
1, 70517, Note_on_c, 0, 77, 107
1, 70550, Note_on_c, 0, 77, 0
1, 70552, Note_on_c, 0, 75, 107
1, 70608, Note_on_c, 0, 75, 0
1, 70622, Note_on_c, 0, 73, 107
1, 70788, Note_on_c, 0, 73, 0
1, 70807, Note_on_c, 0, 73, 107
1, 71109, Note_on_c, 0, 73, 0
1, 71136, Note_on_c, 0, 58, 110
1, 71136, Note_on_c, 0, 61, 110
1, 71137, Note_on_c, 0, 49, 110
1, 71138, Note_on_c, 0, 52, 110
1, 71139, Note_on_c, 0, 54, 110
1, 71139, Note_on_c, 0, 42, 115
1, 71140, Note_on_c, 0, 40, 115
1, 71140, Note_on_c, 0, 46, 115
1, 71141, Note_on_c, 0, 61, 110
1, 71142, Note_on_c, 0, 73, 107
1, 71165, Note_on_c, 0, 61, 0
1, 71236, Note_on_c, 0, 78, 107
1, 71237, Note_on_c, 0, 66, 110
1, 71259, Note_on_c, 0, 66, 0
1, 71268, Note_on_c, 0, 82, 107
1, 71269, Note_on_c, 0, 70, 107
1, 71300, Note_on_c, 0, 78, 0
1, 71389, Note_on_c, 0, 49, 0
1, 71390, Note_on_c, 0, 40, 0
1, 71391, Note_on_c, 0, 46, 0
1, 71392, Note_on_c, 0, 54, 0
1, 71392, Note_on_c, 0, 58, 0
1, 71395, Note_on_c, 0, 42, 0
1, 71398, Note_on_c, 0, 52, 0
1, 71458, Note_on_c, 0, 61, 0
1, 71473, Note_on_c, 0, 70, 0
1, 71476, Note_on_c, 0, 82, 0
1, 71484, Note_on_c, 0, 73, 0
1, 71624, Note_on_c, 0, 73, 107
1, 71775, Note_on_c, 0, 76, 107
1, 71786, Note_on_c, 0, 73, 0
1, 71911, Note_on_c, 0, 75, 107
1, 71914, Note_on_c, 0, 76, 0
1, 72032, Note_on_c, 0, 75, 0
1, 72042, Note_on_c, 0, 73, 107
1, 72157, Note_on_c, 0, 73, 0
1, 72165, Note_on_c, 0, 71, 107
1, 72284, Note_on_c, 0, 70, 107
1, 72298, Note_on_c, 0, 71, 0
1, 72379, Note_on_c, 0, 71, 107
1, 72388, Note_on_c, 0, 70, 0
1, 72465, Note_on_c, 0, 73, 107
1, 72466, Note_on_c, 0, 71, 0
1, 72503, Note_on_c, 0, 73, 0
1, 72504, Note_on_c, 0, 71, 107
1, 72543, Note_on_c, 0, 71, 0
1, 72547, Note_on_c, 0, 70, 107
1, 72650, Note_on_c, 0, 71, 107
1, 72651, Note_on_c, 0, 70, 0
1, 72741, Note_on_c, 0, 73, 107
1, 72744, Note_on_c, 0, 71, 0
1, 72818, Note_on_c, 0, 68, 107
1, 72824, Note_on_c, 0, 73, 0
1, 73002, Note_on_c, 0, 67, 110
1, 73016, Note_on_c, 0, 68, 0
1, 73143, Note_on_c, 0, 67, 0
1, 73158, Note_on_c, 0, 39, 103
1, 73159, Note_on_c, 0, 58, 98
1, 73160, Note_on_c, 0, 51, 98
1, 73161, Note_on_c, 0, 63, 98
1, 73162, Note_on_c, 0, 67, 98
1, 73162, Note_on_c, 0, 46, 103
1, 73163, Note_on_c, 0, 51, 98
1, 73164, Note_on_c, 0, 73, 95
1, 73165, Note_on_c, 0, 75, 95
1, 73165, Note_on_c, 0, 79, 95
1, 73167, Note_on_c, 0, 63, 98
1, 73167, Note_on_c, 0, 61, 98
1, 73168, Note_on_c, 0, 70, 95
1, 73168, Note_on_c, 0, 58, 98
1, 73171, Note_on_c, 0, 63, 0
1, 73171, Note_on_c, 0, 51, 0
1, 73172, Note_on_c, 0, 58, 0
1, 73449, Note_on_c, 0, 61, 0
1, 73457, Note_on_c, 0, 70, 0
1, 73458, Note_on_c, 0, 79, 0
1, 73459, Note_on_c, 0, 39, 0
1, 73459, Note_on_c, 0, 46, 0
1, 73460, Note_on_c, 0, 73, 0
1, 73461, Note_on_c, 0, 75, 0
1, 73462, Note_on_c, 0, 67, 0
1, 73550, Note_on_c, 0, 67, 110
1, 73734, Note_on_c, 0, 63, 0
1, 73736, Note_on_c, 0, 51, 0
1, 73737, Note_on_c, 0, 58, 0
1, 73881, Note_on_c, 0, 67, 0
1, 73948, Note_on_c, 0, 63, 110
1, 74074, Note_on_c, 0, 65, 110
1, 74090, Note_on_c, 0, 63, 0
1, 74203, Note_on_c, 0, 65, 0
1, 74207, Note_on_c, 0, 67, 110
1, 74331, Note_on_c, 0, 67, 0
1, 74338, Note_on_c, 0, 68, 107
1, 74385, Note_on_c, 0, 68, 0
1, 74391, Note_on_c, 0, 67, 110
1, 74442, Note_on_c, 0, 67, 0
1, 74452, Note_on_c, 0, 65, 110
1, 74556, Note_on_c, 0, 68, 107
1, 74557, Note_on_c, 0, 65, 0
1, 74612, Note_on_c, 0, 68, 0
1, 74622, Note_on_c, 0, 67, 110
1, 74686, Note_on_c, 0, 67, 0
1, 74694, Note_on_c, 0, 68, 107
1, 74735, Note_on_c, 0, 68, 0
1, 74738, Note_on_c, 0, 67, 110
1, 74779, Note_on_c, 0, 67, 0
1, 74784, Note_on_c, 0, 68, 107
1, 75061, Note_on_c, 0, 68, 0
1, 75069, Note_on_c, 0, 64, 110
1, 75072, Note_on_c, 0, 68, 107
1, 75072, Note_on_c, 0, 59, 110
1, 75073, Note_on_c, 0, 52, 110
1, 75073, Note_on_c, 0, 50, 110
1, 75074, Note_on_c, 0, 80, 107
1, 75075, Note_on_c, 0, 38, 115
1, 75075, Note_on_c, 0, 47, 115
1, 75076, Note_on_c, 0, 64, 110
1, 75077, Note_on_c, 0, 76, 107
1, 75078, Note_on_c, 0, 59, 110
1, 75079, Note_on_c, 0, 71, 107
1, 75137, Note_on_c, 0, 59, 0
1, 75138, Note_on_c, 0, 64, 0
1, 75324, Note_on_c, 0, 47, 0
1, 75327, Note_on_c, 0, 52, 0
1, 75328, Note_on_c, 0, 50, 0
1, 75328, Note_on_c, 0, 76, 0
1, 75329, Note_on_c, 0, 68, 0
1, 75330, Note_on_c, 0, 80, 0
1, 75331, Note_on_c, 0, 38, 0
1, 75331, Note_on_c, 0, 71, 0
1, 75491, Note_on_c, 0, 59, 0
1, 75492, Note_on_c, 0, 64, 0
1, 75512, Note_on_c, 0, 59, 110
1, 75609, Note_on_c, 0, 59, 0
1, 75639, Note_on_c, 0, 61, 110
1, 75766, Note_on_c, 0, 63, 110
1, 75770, Note_on_c, 0, 61, 0
1, 75863, Note_on_c, 0, 63, 0
1, 75864, Note_on_c, 0, 64, 110
1, 75950, Note_on_c, 0, 64, 0
1, 75953, Note_on_c, 0, 66, 110
1, 76019, Note_on_c, 0, 66, 0
1, 76019, Note_on_c, 0, 68, 107
1, 76069, Note_on_c, 0, 68, 0
1, 76073, Note_on_c, 0, 69, 107
1, 76116, Note_on_c, 0, 71, 107
1, 76119, Note_on_c, 0, 69, 0
1, 76198, Note_on_c, 0, 74, 107
1, 76211, Note_on_c, 0, 71, 0
1, 76273, Note_on_c, 0, 74, 0
1, 76277, Note_on_c, 0, 73, 107
1, 76367, Note_on_c, 0, 76, 107
1, 76368, Note_on_c, 0, 73, 0
1, 76420, Note_on_c, 0, 76, 0
1, 76421, Note_on_c, 0, 74, 107
1, 76469, Note_on_c, 0, 74, 0
1, 76486, Note_on_c, 0, 74, 107
1, 76583, Note_on_c, 0, 74, 0
1, 76589, Note_on_c, 0, 73, 107
1, 76712, Note_on_c, 0, 73, 0
1, 76716, Note_on_c, 0, 74, 107
1, 76717, Note_on_c, 0, 61, 110
1, 76717, Note_on_c, 0, 49, 110
1, 76835, Note_on_c, 0, 65, 110
1, 76836, Note_on_c, 0, 53, 110
1, 76872, Note_on_c, 0, 49, 0
1, 76873, Note_on_c, 0, 61, 0
1, 76910, Note_on_c, 0, 68, 107
1, 76911, Note_on_c, 0, 56, 110
1, 76917, Note_on_c, 0, 53, 0
1, 76918, Note_on_c, 0, 65, 0
1, 76932, Note_on_c, 0, 74, 0
1, 76964, Note_on_c, 0, 61, 110
1, 76965, Note_on_c, 0, 73, 107
1, 76971, Note_on_c, 0, 56, 0
1, 76974, Note_on_c, 0, 68, 0
1, 77015, Note_on_c, 0, 77, 107
1, 77016, Note_on_c, 0, 65, 110
1, 77061, Note_on_c, 0, 65, 0
1, 77064, Note_on_c, 0, 80, 107
1, 77066, Note_on_c, 0, 68, 107
1, 77084, Note_on_c, 0, 77, 0
1, 77100, Note_on_c, 0, 71, 107
1, 77101, Note_on_c, 0, 83, 107
1, 77102, Note_on_c, 0, 68, 0
1, 77103, Note_on_c, 0, 80, 0
1, 77131, Note_on_c, 0, 74, 107
1, 77132, Note_on_c, 0, 71, 0
1, 77133, Note_on_c, 0, 86, 107
1, 77134, Note_on_c, 0, 83, 0
1, 77186, Note_on_c, 0, 86, 0
1, 77215, Note_on_c, 0, 73, 107
1, 77215, Note_on_c, 0, 85, 107
1, 77216, Note_on_c, 0, 74, 0
1, 77233, Note_on_c, 0, 73, 0
1, 77294, Note_on_c, 0, 61, 0
1, 77414, Note_on_c, 0, 85, 0
1, 77469, Note_on_c, 0, 71, 107
1, 77469, Note_on_c, 0, 62, 110
1, 77507, Note_on_c, 0, 73, 0
1, 77621, Note_on_c, 0, 62, 0
1, 77626, Note_on_c, 0, 71, 0
1, 77628, Note_on_c, 0, 71, 107
1, 77629, Note_on_c, 0, 62, 110
1, 77781, Note_on_c, 0, 62, 0
1, 77793, Note_on_c, 0, 71, 0
1, 77794, Note_on_c, 0, 61, 110
1, 77796, Note_on_c, 0, 69, 107
1, 77937, Note_on_c, 0, 69, 0
1, 77945, Note_on_c, 0, 61, 0
1, 77957, Note_on_c, 0, 61, 110
1, 77960, Note_on_c, 0, 69, 107
1, 78107, Note_on_c, 0, 61, 0
1, 78112, Note_on_c, 0, 69, 0
1, 78124, Note_on_c, 0, 59, 110
1, 78125, Note_on_c, 0, 68, 107
1, 78389, Note_on_c, 0, 59, 0
1, 78390, Note_on_c, 0, 68, 0
1, 78406, Note_on_c, 0, 59, 110
1, 78407, Note_on_c, 0, 68, 107
1, 78452, Note_on_c, 0, 68, 0
1, 78468, Note_on_c, 0, 69, 107
1, 78514, Note_on_c, 0, 69, 0
1, 78526, Note_on_c, 0, 71, 107
1, 78582, Note_on_c, 0, 71, 0
1, 78595, Note_on_c, 0, 73, 107
1, 78651, Note_on_c, 0, 59, 0
1, 78658, Note_on_c, 0, 73, 0
1, 78659, Note_on_c, 0, 61, 110
1, 78660, Note_on_c, 0, 74, 107
1, 78719, Note_on_c, 0, 74, 0
1, 78720, Note_on_c, 0, 71, 107
1, 78795, Note_on_c, 0, 61, 0
1, 78815, Note_on_c, 0, 71, 0
1, 78816, Note_on_c, 0, 68, 107
1, 78816, Note_on_c, 0, 62, 110
1, 78888, Note_on_c, 0, 65, 110
1, 78892, Note_on_c, 0, 68, 0
1, 79020, Note_on_c, 0, 65, 0
1, 79023, Note_on_c, 0, 66, 110
1, 79139, Note_on_c, 0, 68, 107
1, 79140, Note_on_c, 0, 74, 107
1, 79141, Note_on_c, 0, 59, 110
1, 79141, Note_on_c, 0, 47, 115
1, 79143, Note_on_c, 0, 66, 0
1, 79144, Note_on_c, 0, 78, 107
1, 79144, Note_on_c, 0, 66, 110
1, 79145, Note_on_c, 0, 62, 110
1, 79145, Note_on_c, 0, 56, 110
1, 79191, Note_on_c, 0, 62, 0
1, 79277, Note_on_c, 0, 66, 0
1, 79308, Note_on_c, 0, 78, 0
1, 79332, Note_on_c, 0, 77, 107
1, 79333, Note_on_c, 0, 65, 110
1, 79416, Note_on_c, 0, 47, 0
1, 79417, Note_on_c, 0, 56, 0
1, 79417, Note_on_c, 0, 62, 0
1, 79420, Note_on_c, 0, 68, 0
1, 79424, Note_on_c, 0, 59, 0
1, 79425, Note_on_c, 0, 74, 0
1, 79497, Note_on_c, 0, 65, 0
1, 79502, Note_on_c, 0, 77, 0
1, 79513, Note_on_c, 0, 77, 107
1, 79514, Note_on_c, 0, 65, 110
1, 79552, Note_on_c, 0, 77, 0
1, 79553, Note_on_c, 0, 65, 0
1, 79565, Note_on_c, 0, 78, 107
1, 79567, Note_on_c, 0, 66, 110
1, 79612, Note_on_c, 0, 66, 0
1, 79614, Note_on_c, 0, 78, 0
1, 79623, Note_on_c, 0, 68, 107
1, 79624, Note_on_c, 0, 80, 107
1, 79670, Note_on_c, 0, 68, 0
1, 79673, Note_on_c, 0, 80, 0
1, 79688, Note_on_c, 0, 80, 107
1, 79690, Note_on_c, 0, 68, 107
1, 79720, Note_on_c, 0, 68, 0
1, 79720, Note_on_c, 0, 80, 0
1, 79722, Note_on_c, 0, 78, 107
1, 79722, Note_on_c, 0, 66, 110
1, 79751, Note_on_c, 0, 66, 0
1, 79753, Note_on_c, 0, 78, 0
1, 79754, Note_on_c, 0, 80, 107
1, 79755, Note_on_c, 0, 68, 107
1, 79788, Note_on_c, 0, 68, 0
1, 79788, Note_on_c, 0, 66, 110
1, 79789, Note_on_c, 0, 78, 107
1, 79791, Note_on_c, 0, 80, 0
1, 79820, Note_on_c, 0, 78, 0
1, 79824, Note_on_c, 0, 66, 0
1, 79826, Note_on_c, 0, 80, 107
1, 79827, Note_on_c, 0, 68, 107
1, 79861, Note_on_c, 0, 66, 110
1, 79862, Note_on_c, 0, 68, 0
1, 79863, Note_on_c, 0, 78, 107
1, 79864, Note_on_c, 0, 80, 0
1, 79889, Note_on_c, 0, 66, 0
1, 79895, Note_on_c, 0, 78, 0
1, 79899, Note_on_c, 0, 77, 107
1, 79900, Note_on_c, 0, 65, 110
1, 79964, Note_on_c, 0, 65, 0
1, 79981, Note_on_c, 0, 68, 107
1, 79981, Note_on_c, 0, 65, 110
1, 79983, Note_on_c, 0, 77, 0
1, 79983, Note_on_c, 0, 83, 107
1, 79984, Note_on_c, 0, 53, 110
1, 79985, Note_on_c, 0, 71, 107
1, 79985, Note_on_c, 0, 56, 110
1, 80070, Note_on_c, 0, 71, 0
1, 80083, Note_on_c, 0, 83, 0
1, 80105, Note_on_c, 0, 73, 107
1, 80105, Note_on_c, 0, 85, 107
1, 80149, Note_on_c, 0, 85, 0
1, 80150, Note_on_c, 0, 73, 0
1, 80155, Note_on_c, 0, 65, 0
1, 80163, Note_on_c, 0, 86, 107
1, 80164, Note_on_c, 0, 74, 107
1, 80168, Note_on_c, 0, 68, 0
1, 80180, Note_on_c, 0, 56, 0
1, 80185, Note_on_c, 0, 53, 0
1, 80206, Note_on_c, 0, 74, 0
1, 80209, Note_on_c, 0, 86, 0
1, 80218, Note_on_c, 0, 66, 110
1, 80219, Note_on_c, 0, 69, 107
1, 80220, Note_on_c, 0, 54, 110
1, 80221, Note_on_c, 0, 85, 107
1, 80222, Note_on_c, 0, 69, 107
1, 80222, Note_on_c, 0, 81, 107
1, 80223, Note_on_c, 0, 57, 110
1, 80224, Note_on_c, 0, 73, 107
1, 80259, Note_on_c, 0, 69, 0
1, 80299, Note_on_c, 0, 73, 0
1, 80302, Note_on_c, 0, 85, 0
1, 80304, Note_on_c, 0, 81, 0
1, 80311, Note_on_c, 0, 57, 0
1, 80319, Note_on_c, 0, 71, 107
1, 80321, Note_on_c, 0, 83, 107
1, 80322, Note_on_c, 0, 80, 107
1, 80322, Note_on_c, 0, 59, 110
1, 80323, Note_on_c, 0, 68, 107
1, 80324, Note_on_c, 0, 71, 107
1, 80350, Note_on_c, 0, 69, 0
1, 80382, Note_on_c, 0, 66, 0
1, 80396, Note_on_c, 0, 71, 0
1, 80405, Note_on_c, 0, 68, 0
1, 80408, Note_on_c, 0, 54, 0
1, 80410, Note_on_c, 0, 80, 0
1, 80412, Note_on_c, 0, 83, 0
1, 80421, Note_on_c, 0, 59, 0
1, 80422, Note_on_c, 0, 71, 0
1, 80423, Note_on_c, 0, 73, 107
1, 80423, Note_on_c, 0, 78, 107
1, 80424, Note_on_c, 0, 49, 110
1, 80425, Note_on_c, 0, 69, 107
1, 80425, Note_on_c, 0, 61, 110
1, 80426, Note_on_c, 0, 81, 107
1, 80426, Note_on_c, 0, 66, 110
1, 80506, Note_on_c, 0, 81, 0
1, 80512, Note_on_c, 0, 69, 0
1, 80526, Note_on_c, 0, 68, 107
1, 80527, Note_on_c, 0, 80, 107
1, 80580, Note_on_c, 0, 80, 0
1, 80583, Note_on_c, 0, 68, 0
1, 80585, Note_on_c, 0, 83, 107
1, 80587, Note_on_c, 0, 71, 107
1, 80590, Note_on_c, 0, 66, 0
1, 80595, Note_on_c, 0, 73, 0
1, 80598, Note_on_c, 0, 78, 0
1, 80624, Note_on_c, 0, 71, 0
1, 80633, Note_on_c, 0, 83, 0
1, 80639, Note_on_c, 0, 71, 107
1, 80641, Note_on_c, 0, 77, 107
1, 80641, Note_on_c, 0, 59, 110
1, 80643, Note_on_c, 0, 69, 107
1, 80644, Note_on_c, 0, 81, 107
1, 80644, Note_on_c, 0, 65, 110
1, 80734, Note_on_c, 0, 81, 0
1, 80743, Note_on_c, 0, 80, 107
1, 80744, Note_on_c, 0, 68, 107
1, 80751, Note_on_c, 0, 69, 0
1, 80806, Note_on_c, 0, 68, 0
1, 80807, Note_on_c, 0, 78, 107
1, 80808, Note_on_c, 0, 66, 110
1, 80815, Note_on_c, 0, 71, 0
1, 80816, Note_on_c, 0, 77, 0
1, 80821, Note_on_c, 0, 80, 0
1, 80829, Note_on_c, 0, 65, 0
1, 80830, Note_on_c, 0, 49, 0
1, 80843, Note_on_c, 0, 61, 0
1, 80851, Note_on_c, 0, 59, 0
1, 80881, Note_on_c, 0, 60, 110
1, 80882, Note_on_c, 0, 48, 115
1, 80915, Note_on_c, 0, 66, 0
1, 80916, Note_on_c, 0, 78, 0
1, 80926, Note_on_c, 0, 63, 110
1, 80927, Note_on_c, 0, 78, 107
1, 80928, Note_on_c, 0, 66, 110
1, 80928, Note_on_c, 0, 51, 110
1, 80937, Note_on_c, 0, 48, 0
1, 80945, Note_on_c, 0, 60, 0
1, 80972, Note_on_c, 0, 66, 0
1, 80975, Note_on_c, 0, 69, 107
1, 80976, Note_on_c, 0, 66, 110
1, 80976, Note_on_c, 0, 54, 110
1, 80977, Note_on_c, 0, 81, 107
1, 80984, Note_on_c, 0, 51, 0
1, 80993, Note_on_c, 0, 69, 0
1, 80997, Note_on_c, 0, 78, 0
1, 81004, Note_on_c, 0, 69, 107
1, 81005, Note_on_c, 0, 75, 107
1, 81005, Note_on_c, 0, 57, 110
1, 81006, Note_on_c, 0, 87, 107
1, 81014, Note_on_c, 0, 54, 0
1, 81025, Note_on_c, 0, 63, 0
1, 81049, Note_on_c, 0, 81, 0
1, 81106, Note_on_c, 0, 66, 0
1, 81220, Note_on_c, 0, 57, 0
1, 81244, Note_on_c, 0, 87, 0
1, 81259, Note_on_c, 0, 75, 0
1, 81267, Note_on_c, 0, 69, 0
1, 81317, Note_on_c, 0, 88, 107
1, 81318, Note_on_c, 0, 76, 107
1, 81394, Note_on_c, 0, 76, 0
1, 81396, Note_on_c, 0, 75, 107
1, 81397, Note_on_c, 0, 87, 107
1, 81398, Note_on_c, 0, 88, 0
1, 81481, Note_on_c, 0, 87, 0
1, 81484, Note_on_c, 0, 75, 0
1, 81485, Note_on_c, 0, 85, 107
1, 81486, Note_on_c, 0, 73, 107
1, 81570, Note_on_c, 0, 73, 0
1, 81572, Note_on_c, 0, 85, 0
1, 81573, Note_on_c, 0, 84, 107
1, 81574, Note_on_c, 0, 72, 107
1, 81657, Note_on_c, 0, 84, 0
1, 81658, Note_on_c, 0, 72, 0
1, 81658, Note_on_c, 0, 85, 107
1, 81660, Note_on_c, 0, 73, 107
1, 81730, Note_on_c, 0, 73, 0
1, 81730, Note_on_c, 0, 85, 0
1, 81732, Note_on_c, 0, 75, 107
1, 81732, Note_on_c, 0, 87, 107
1, 81794, Note_on_c, 0, 87, 0
1, 81795, Note_on_c, 0, 90, 107
1, 81796, Note_on_c, 0, 78, 107
1, 81799, Note_on_c, 0, 75, 0
1, 81842, Note_on_c, 0, 78, 0
1, 81844, Note_on_c, 0, 93, 107
1, 81845, Note_on_c, 0, 81, 107
1, 81848, Note_on_c, 0, 90, 0
1, 82049, Note_on_c, 0, 81, 0
1, 82052, Note_on_c, 0, 93, 0
1, 82057, Note_on_c, 0, 93, 107
1, 82058, Note_on_c, 0, 81, 107
1, 82267, Note_on_c, 0, 81, 0
1, 82269, Note_on_c, 0, 93, 0
1, 82291, Note_on_c, 0, 84, 107
1, 82291, Note_on_c, 0, 56, 110
1, 82292, Note_on_c, 0, 72, 107
1, 82292, Note_on_c, 0, 44, 115
1, 82334, Note_on_c, 0, 44, 0
1, 82335, Note_on_c, 0, 60, 110
1, 82337, Note_on_c, 0, 48, 115
1, 82339, Note_on_c, 0, 56, 0
1, 82382, Note_on_c, 0, 48, 0
1, 82383, Note_on_c, 0, 63, 110
1, 82384, Note_on_c, 0, 87, 107
1, 82386, Note_on_c, 0, 51, 110
1, 82387, Note_on_c, 0, 75, 107
1, 82389, Note_on_c, 0, 60, 0
1, 82390, Note_on_c, 0, 72, 0
1, 82392, Note_on_c, 0, 84, 0
1, 82422, Note_on_c, 0, 68, 107
1, 82423, Note_on_c, 0, 56, 110
1, 82432, Note_on_c, 0, 51, 0
1, 82433, Note_on_c, 0, 63, 0
1, 82459, Note_on_c, 0, 90, 107
1, 82459, Note_on_c, 0, 78, 107
1, 82471, Note_on_c, 0, 75, 0
1, 82476, Note_on_c, 0, 87, 0
1, 82519, Note_on_c, 0, 90, 0
1, 82522, Note_on_c, 0, 78, 0
1, 82522, Note_on_c, 0, 93, 107
1, 82523, Note_on_c, 0, 81, 107
1, 82533, Note_on_c, 0, 56, 0
1, 82535, Note_on_c, 0, 68, 0
1, 82621, Note_on_c, 0, 93, 0
1, 82624, Note_on_c, 0, 81, 0
1, 82630, Note_on_c, 0, 92, 107
1, 82630, Note_on_c, 0, 80, 107
1, 82738, Note_on_c, 0, 80, 0
1, 82743, Note_on_c, 0, 92, 0
1, 82750, Note_on_c, 0, 93, 107
1, 82753, Note_on_c, 0, 81, 107
1, 82799, Note_on_c, 0, 81, 0
1, 82805, Note_on_c, 0, 93, 0
1, 82806, Note_on_c, 0, 78, 99
1, 82807, Note_on_c, 0, 90, 99
1, 82837, Note_on_c, 0, 78, 0
1, 82838, Note_on_c, 0, 90, 0
1, 82842, Note_on_c, 0, 73, 99
1, 82843, Note_on_c, 0, 68, 99
1, 82843, Note_on_c, 0, 61, 110
1, 82844, Note_on_c, 0, 56, 110
1, 82845, Note_on_c, 0, 64, 110
1, 82846, Note_on_c, 0, 52, 110
1, 82847, Note_on_c, 0, 85, 99
1, 82848, Note_on_c, 0, 68, 99
1, 82848, Note_on_c, 0, 61, 110
1, 82849, Note_on_c, 0, 80, 99
1, 82849, Note_on_c, 0, 49, 110
1, 82850, Note_on_c, 0, 73, 99
1, 82851, Note_on_c, 0, 90, 99
1, 82851, Note_on_c, 0, 78, 99
1, 82864, Note_on_c, 0, 68, 0
1, 82865, Note_on_c, 0, 73, 0
1, 82963, Note_on_c, 0, 78, 0
1, 82964, Note_on_c, 0, 90, 0
1, 82982, Note_on_c, 0, 61, 0
1, 83008, Note_on_c, 0, 88, 107
1, 83013, Note_on_c, 0, 76, 107
1, 83031, Note_on_c, 0, 80, 0
1, 83039, Note_on_c, 0, 64, 0
1, 83040, Note_on_c, 0, 85, 0
1, 83040, Note_on_c, 0, 49, 0
1, 83041, Note_on_c, 0, 56, 0
1, 83043, Note_on_c, 0, 52, 0
1, 83218, Note_on_c, 0, 76, 0
1, 83220, Note_on_c, 0, 88, 0
1, 83241, Note_on_c, 0, 85, 107
1, 83242, Note_on_c, 0, 73, 107
1, 83293, Note_on_c, 0, 73, 0
1, 83297, Note_on_c, 0, 85, 0
1, 83301, Note_on_c, 0, 72, 107
1, 83302, Note_on_c, 0, 84, 107
1, 83348, Note_on_c, 0, 84, 0
1, 83350, Note_on_c, 0, 72, 0
1, 83356, Note_on_c, 0, 73, 107
1, 83357, Note_on_c, 0, 85, 107
1, 83398, Note_on_c, 0, 85, 0
1, 83399, Note_on_c, 0, 73, 0
1, 83408, Note_on_c, 0, 80, 107
1, 83409, Note_on_c, 0, 68, 107
1, 83449, Note_on_c, 0, 68, 0
1, 83456, Note_on_c, 0, 80, 0
1, 83459, Note_on_c, 0, 78, 107
1, 83460, Note_on_c, 0, 66, 110
1, 83511, Note_on_c, 0, 66, 0
1, 83513, Note_on_c, 0, 78, 0
1, 83519, Note_on_c, 0, 80, 107
1, 83520, Note_on_c, 0, 68, 107
1, 83528, Note_on_c, 0, 73, 0
1, 83530, Note_on_c, 0, 68, 0
1, 83563, Note_on_c, 0, 68, 0
1, 83564, Note_on_c, 0, 80, 0
1, 83570, Note_on_c, 0, 76, 107
1, 83571, Note_on_c, 0, 64, 110
1, 83618, Note_on_c, 0, 64, 0
1, 83621, Note_on_c, 0, 76, 0
1, 83626, Note_on_c, 0, 75, 107
1, 83627, Note_on_c, 0, 63, 110
1, 83665, Note_on_c, 0, 63, 0
1, 83666, Note_on_c, 0, 75, 0
1, 83674, Note_on_c, 0, 76, 107
1, 83675, Note_on_c, 0, 64, 110
1, 83697, Note_on_c, 0, 61, 0
1, 83723, Note_on_c, 0, 64, 0
1, 83724, Note_on_c, 0, 76, 0
1, 83736, Note_on_c, 0, 73, 107
1, 83736, Note_on_c, 0, 61, 110
1, 83782, Note_on_c, 0, 61, 0
1, 83786, Note_on_c, 0, 73, 0
1, 83789, Note_on_c, 0, 72, 107
1, 83790, Note_on_c, 0, 60, 110
1, 83835, Note_on_c, 0, 60, 0
1, 83839, Note_on_c, 0, 72, 0
1, 83846, Note_on_c, 0, 73, 107
1, 83847, Note_on_c, 0, 61, 110
1, 83894, Note_on_c, 0, 61, 0
1, 83897, Note_on_c, 0, 73, 0
1, 83902, Note_on_c, 0, 76, 107
1, 83902, Note_on_c, 0, 64, 110
1, 83952, Note_on_c, 0, 76, 0
1, 83954, Note_on_c, 0, 64, 0
1, 83958, Note_on_c, 0, 75, 107
1, 83959, Note_on_c, 0, 63, 110
1, 83999, Note_on_c, 0, 63, 0
1, 84001, Note_on_c, 0, 75, 0
1, 84011, Note_on_c, 0, 64, 110
1, 84012, Note_on_c, 0, 76, 107
1, 84058, Note_on_c, 0, 76, 0
1, 84062, Note_on_c, 0, 64, 0
1, 84070, Note_on_c, 0, 81, 107
1, 84070, Note_on_c, 0, 69, 107
1, 84115, Note_on_c, 0, 69, 0
1, 84120, Note_on_c, 0, 81, 0
1, 84122, Note_on_c, 0, 80, 107
1, 84123, Note_on_c, 0, 68, 107
1, 84168, Note_on_c, 0, 68, 0
1, 84171, Note_on_c, 0, 80, 0
1, 84176, Note_on_c, 0, 69, 107
1, 84177, Note_on_c, 0, 81, 107
1, 84231, Note_on_c, 0, 69, 0
1, 84234, Note_on_c, 0, 81, 0
1, 84235, Note_on_c, 0, 85, 107
1, 84236, Note_on_c, 0, 73, 107
1, 84281, Note_on_c, 0, 73, 0
1, 84287, Note_on_c, 0, 85, 0
1, 84287, Note_on_c, 0, 71, 107
1, 84288, Note_on_c, 0, 83, 107
1, 84340, Note_on_c, 0, 83, 0
1, 84342, Note_on_c, 0, 73, 107
1, 84343, Note_on_c, 0, 71, 0
1, 84344, Note_on_c, 0, 85, 107
1, 84401, Note_on_c, 0, 73, 0
1, 84401, Note_on_c, 0, 76, 107
1, 84402, Note_on_c, 0, 88, 107
1, 84404, Note_on_c, 0, 85, 0
1, 84448, Note_on_c, 0, 88, 0
1, 84449, Note_on_c, 0, 76, 0
1, 84452, Note_on_c, 0, 86, 107
1, 84455, Note_on_c, 0, 74, 107
1, 84501, Note_on_c, 0, 74, 0
1, 84511, Note_on_c, 0, 86, 0
1, 84511, Note_on_c, 0, 76, 107
1, 84512, Note_on_c, 0, 88, 107
1, 84576, Note_on_c, 0, 88, 0
1, 84577, Note_on_c, 0, 76, 0
1, 84578, Note_on_c, 0, 90, 107
1, 84580, Note_on_c, 0, 78, 107
1, 84635, Note_on_c, 0, 78, 0
1, 84639, Note_on_c, 0, 90, 0
1, 84655, Note_on_c, 0, 79, 107
1, 84656, Note_on_c, 0, 91, 107
1, 84698, Note_on_c, 0, 91, 0
1, 84701, Note_on_c, 0, 79, 0
1, 84702, Note_on_c, 0, 93, 107
1, 84705, Note_on_c, 0, 81, 107
1, 84735, Note_on_c, 0, 81, 0
1, 84736, Note_on_c, 0, 91, 107
1, 84737, Note_on_c, 0, 79, 107
1, 84739, Note_on_c, 0, 93, 0
1, 84769, Note_on_c, 0, 93, 107
1, 84772, Note_on_c, 0, 81, 107
1, 84775, Note_on_c, 0, 79, 0
1, 84777, Note_on_c, 0, 91, 0
1, 84804, Note_on_c, 0, 81, 0
1, 84809, Note_on_c, 0, 93, 0
1, 84809, Note_on_c, 0, 91, 107
1, 84812, Note_on_c, 0, 79, 107
1, 84845, Note_on_c, 0, 79, 0
1, 84846, Note_on_c, 0, 91, 0
1, 84849, Note_on_c, 0, 81, 107
1, 84850, Note_on_c, 0, 93, 107
1, 84882, Note_on_c, 0, 81, 0
1, 84887, Note_on_c, 0, 93, 0
1, 84900, Note_on_c, 0, 91, 107
1, 84900, Note_on_c, 0, 79, 107
1, 84944, Note_on_c, 0, 79, 0
1, 84945, Note_on_c, 0, 91, 0
1, 84949, Note_on_c, 0, 90, 107
1, 84951, Note_on_c, 0, 78, 107
1, 84988, Note_on_c, 0, 78, 0
1, 84992, Note_on_c, 0, 90, 0
1, 84999, Note_on_c, 0, 91, 107
1, 85000, Note_on_c, 0, 79, 107
1, 85039, Note_on_c, 0, 79, 0
1, 85041, Note_on_c, 0, 91, 0
1, 85045, Note_on_c, 0, 93, 107
1, 85046, Note_on_c, 0, 81, 107
1, 85079, Note_on_c, 0, 93, 0
1, 85085, Note_on_c, 0, 81, 0
1, 85091, Note_on_c, 0, 75, 107
1, 85091, Note_on_c, 0, 87, 107
1, 85203, Note_on_c, 0, 75, 0
1, 85207, Note_on_c, 0, 87, 0
1, 85213, Note_on_c, 0, 86, 107
1, 85214, Note_on_c, 0, 74, 107
1, 85443, Note_on_c, 0, 74, 0
1, 85444, Note_on_c, 0, 86, 107
1, 85445, Note_on_c, 0, 86, 0
1, 85446, Note_on_c, 0, 74, 107
1, 85448, Note_on_c, 0, 60, 110
1, 85448, Note_on_c, 0, 48, 115
1, 85508, Note_on_c, 0, 62, 110
1, 85509, Note_on_c, 0, 74, 107
1, 85510, Note_on_c, 0, 50, 110
1, 85511, Note_on_c, 0, 62, 110
1, 85512, Note_on_c, 0, 48, 0
1, 85513, Note_on_c, 0, 60, 0
1, 85524, Note_on_c, 0, 62, 0
1, 85553, Note_on_c, 0, 74, 0
1, 85559, Note_on_c, 0, 66, 110
1, 85561, Note_on_c, 0, 78, 107
1, 85561, Note_on_c, 0, 54, 110
1, 85564, Note_on_c, 0, 66, 110
1, 85573, Note_on_c, 0, 66, 0
1, 85574, Note_on_c, 0, 66, 0
1, 85575, Note_on_c, 0, 69, 107
1, 85576, Note_on_c, 0, 54, 0
1, 85577, Note_on_c, 0, 69, 107
1, 85577, Note_on_c, 0, 81, 107
1, 85578, Note_on_c, 0, 57, 110
1, 85579, Note_on_c, 0, 50, 0
1, 85611, Note_on_c, 0, 78, 0
1, 85623, Note_on_c, 0, 74, 0
1, 85624, Note_on_c, 0, 86, 0
1, 85637, Note_on_c, 0, 62, 0
1, 85655, Note_on_c, 0, 69, 0
1, 85730, Note_on_c, 0, 81, 0
1, 85734, Note_on_c, 0, 57, 0
1, 85806, Note_on_c, 0, 69, 0
1, 85807, Note_on_c, 0, 86, 107
1, 85808, Note_on_c, 0, 74, 107
1, 85879, Note_on_c, 0, 84, 107
1, 85880, Note_on_c, 0, 72, 107
1, 85886, Note_on_c, 0, 74, 0
1, 85893, Note_on_c, 0, 86, 0
1, 85928, Note_on_c, 0, 72, 0
1, 85934, Note_on_c, 0, 84, 0
1, 85935, Note_on_c, 0, 82, 107
1, 85936, Note_on_c, 0, 70, 107
1, 85986, Note_on_c, 0, 70, 0
1, 85991, Note_on_c, 0, 82, 0
1, 85994, Note_on_c, 0, 69, 107
1, 85995, Note_on_c, 0, 81, 107
1, 86041, Note_on_c, 0, 81, 0
1, 86046, Note_on_c, 0, 69, 0
1, 86047, Note_on_c, 0, 82, 107
1, 86050, Note_on_c, 0, 70, 107
1, 86087, Note_on_c, 0, 70, 0
1, 86091, Note_on_c, 0, 82, 0
1, 86093, Note_on_c, 0, 84, 107
1, 86095, Note_on_c, 0, 72, 107
1, 86139, Note_on_c, 0, 72, 0
1, 86140, Note_on_c, 0, 87, 107
1, 86142, Note_on_c, 0, 84, 0
1, 86143, Note_on_c, 0, 75, 107
1, 86178, Note_on_c, 0, 75, 0
1, 86179, Note_on_c, 0, 87, 0
1, 86181, Note_on_c, 0, 84, 107
1, 86182, Note_on_c, 0, 72, 107
1, 86219, Note_on_c, 0, 72, 0
1, 86222, Note_on_c, 0, 84, 0
1, 86223, Note_on_c, 0, 70, 107
1, 86224, Note_on_c, 0, 82, 107
1, 86258, Note_on_c, 0, 70, 0
1, 86259, Note_on_c, 0, 82, 0
1, 86263, Note_on_c, 0, 81, 107
1, 86264, Note_on_c, 0, 69, 107
1, 86295, Note_on_c, 0, 69, 0
1, 86300, Note_on_c, 0, 81, 0
1, 86302, Note_on_c, 0, 79, 107
1, 86303, Note_on_c, 0, 67, 110
1, 86334, Note_on_c, 0, 67, 0
1, 86340, Note_on_c, 0, 79, 0
1, 86340, Note_on_c, 0, 78, 107
1, 86340, Note_on_c, 0, 66, 110
1, 86371, Note_on_c, 0, 66, 0
1, 86374, Note_on_c, 0, 78, 0
1, 86377, Note_on_c, 0, 79, 107
1, 86378, Note_on_c, 0, 67, 110
1, 86411, Note_on_c, 0, 67, 0
1, 86412, Note_on_c, 0, 81, 107
1, 86412, Note_on_c, 0, 69, 107
1, 86413, Note_on_c, 0, 79, 0
1, 86448, Note_on_c, 0, 69, 0
1, 86451, Note_on_c, 0, 81, 0
1, 86452, Note_on_c, 0, 84, 107
1, 86456, Note_on_c, 0, 72, 107
1, 86488, Note_on_c, 0, 72, 0
1, 86494, Note_on_c, 0, 84, 0
1, 86495, Note_on_c, 0, 81, 107
1, 86495, Note_on_c, 0, 69, 107
1, 86531, Note_on_c, 0, 79, 107
1, 86532, Note_on_c, 0, 81, 0
1, 86533, Note_on_c, 0, 69, 0
1, 86533, Note_on_c, 0, 67, 110
1, 86564, Note_on_c, 0, 67, 0
1, 86569, Note_on_c, 0, 79, 0
1, 86570, Note_on_c, 0, 78, 107
1, 86572, Note_on_c, 0, 66, 110
1, 86603, Note_on_c, 0, 66, 0
1, 86604, Note_on_c, 0, 64, 110
1, 86605, Note_on_c, 0, 78, 0
1, 86606, Note_on_c, 0, 76, 107
1, 86631, Note_on_c, 0, 76, 0
1, 86634, Note_on_c, 0, 64, 0
1, 86639, Note_on_c, 0, 62, 110
1, 86641, Note_on_c, 0, 74, 107
1, 86660, Note_on_c, 0, 62, 0
1, 86661, Note_on_c, 0, 74, 0
1, 86670, Note_on_c, 0, 76, 107
1, 86671, Note_on_c, 0, 64, 110
1, 86698, Note_on_c, 0, 64, 0
1, 86698, Note_on_c, 0, 76, 0
1, 86700, Note_on_c, 0, 78, 107
1, 86700, Note_on_c, 0, 66, 110
1, 86729, Note_on_c, 0, 78, 0
1, 86730, Note_on_c, 0, 66, 0
1, 86736, Note_on_c, 0, 81, 107
1, 86736, Note_on_c, 0, 69, 107
1, 86760, Note_on_c, 0, 81, 0
1, 86762, Note_on_c, 0, 69, 0
1, 86770, Note_on_c, 0, 79, 107
1, 86772, Note_on_c, 0, 67, 110
1, 86807, Note_on_c, 0, 67, 0
1, 86808, Note_on_c, 0, 79, 0
1, 86809, Note_on_c, 0, 78, 107
1, 86810, Note_on_c, 0, 66, 110
1, 86834, Note_on_c, 0, 66, 0
1, 86838, Note_on_c, 0, 78, 0
1, 86843, Note_on_c, 0, 76, 107
1, 86844, Note_on_c, 0, 64, 110
1, 86872, Note_on_c, 0, 76, 0
1, 86873, Note_on_c, 0, 64, 0
1, 86878, Note_on_c, 0, 74, 107
1, 86879, Note_on_c, 0, 62, 110
1, 86899, Note_on_c, 0, 62, 0
1, 86902, Note_on_c, 0, 74, 0
1, 86905, Note_on_c, 0, 72, 107
1, 86907, Note_on_c, 0, 60, 110
1, 86927, Note_on_c, 0, 60, 0
1, 86930, Note_on_c, 0, 72, 0
1, 86933, Note_on_c, 0, 74, 107
1, 86934, Note_on_c, 0, 62, 110
1, 86960, Note_on_c, 0, 62, 0
1, 86963, Note_on_c, 0, 74, 0
1, 86964, Note_on_c, 0, 75, 107
1, 86964, Note_on_c, 0, 63, 110
1, 86992, Note_on_c, 0, 63, 0
1, 86993, Note_on_c, 0, 75, 0
1, 86995, Note_on_c, 0, 66, 110
1, 86996, Note_on_c, 0, 78, 107
1, 87025, Note_on_c, 0, 66, 0
1, 87028, Note_on_c, 0, 78, 0
1, 87034, Note_on_c, 0, 75, 107
1, 87035, Note_on_c, 0, 63, 110
1, 87070, Note_on_c, 0, 63, 0
1, 87072, Note_on_c, 0, 74, 107
1, 87073, Note_on_c, 0, 75, 0
1, 87073, Note_on_c, 0, 62, 110
1, 87105, Note_on_c, 0, 62, 0
1, 87107, Note_on_c, 0, 74, 0
1, 87108, Note_on_c, 0, 72, 107
1, 87108, Note_on_c, 0, 60, 110
1, 87134, Note_on_c, 0, 60, 0
1, 87141, Note_on_c, 0, 72, 0
1, 87141, Note_on_c, 0, 70, 107
1, 87142, Note_on_c, 0, 58, 110
1, 87162, Note_on_c, 0, 58, 0
1, 87165, Note_on_c, 0, 70, 0
1, 87171, Note_on_c, 0, 69, 107
1, 87172, Note_on_c, 0, 57, 110
1, 87196, Note_on_c, 0, 57, 0
1, 87197, Note_on_c, 0, 69, 0
1, 87198, Note_on_c, 0, 70, 107
1, 87198, Note_on_c, 0, 58, 110
1, 87219, Note_on_c, 0, 58, 0
1, 87222, Note_on_c, 0, 70, 0
1, 87224, Note_on_c, 0, 72, 107
1, 87226, Note_on_c, 0, 60, 110
1, 87249, Note_on_c, 0, 60, 0
1, 87252, Note_on_c, 0, 72, 0
1, 87254, Note_on_c, 0, 75, 107
1, 87257, Note_on_c, 0, 63, 110
1, 87282, Note_on_c, 0, 63, 0
1, 87285, Note_on_c, 0, 75, 0
1, 87287, Note_on_c, 0, 72, 107
1, 87288, Note_on_c, 0, 60, 110
1, 87318, Note_on_c, 0, 60, 0
1, 87319, Note_on_c, 0, 70, 107
1, 87320, Note_on_c, 0, 72, 0
1, 87321, Note_on_c, 0, 58, 110
1, 87345, Note_on_c, 0, 58, 0
1, 87350, Note_on_c, 0, 70, 0
1, 87353, Note_on_c, 0, 69, 107
1, 87354, Note_on_c, 0, 57, 110
1, 87376, Note_on_c, 0, 57, 0
1, 87376, Note_on_c, 0, 69, 0
1, 87384, Note_on_c, 0, 67, 110
1, 87384, Note_on_c, 0, 55, 110
1, 87408, Note_on_c, 0, 55, 0
1, 87413, Note_on_c, 0, 67, 0
1, 87414, Note_on_c, 0, 66, 110
1, 87415, Note_on_c, 0, 54, 110
1, 87438, Note_on_c, 0, 54, 0
1, 87441, Note_on_c, 0, 66, 0
1, 87442, Note_on_c, 0, 67, 110
1, 87443, Note_on_c, 0, 55, 110
1, 87469, Note_on_c, 0, 55, 0
1, 87469, Note_on_c, 0, 67, 0
1, 87473, Note_on_c, 0, 69, 107
1, 87474, Note_on_c, 0, 57, 110
1, 87496, Note_on_c, 0, 57, 0
1, 87497, Note_on_c, 0, 69, 0
1, 87504, Note_on_c, 0, 72, 107
1, 87505, Note_on_c, 0, 60, 110
1, 87530, Note_on_c, 0, 60, 0
1, 87535, Note_on_c, 0, 72, 0
1, 87536, Note_on_c, 0, 69, 107
1, 87542, Note_on_c, 0, 57, 110
1, 87562, Note_on_c, 0, 57, 0
1, 87569, Note_on_c, 0, 69, 0
1, 87570, Note_on_c, 0, 67, 110
1, 87572, Note_on_c, 0, 55, 110
1, 87596, Note_on_c, 0, 55, 0
1, 87604, Note_on_c, 0, 67, 0
1, 87605, Note_on_c, 0, 66, 110
1, 87606, Note_on_c, 0, 54, 110
1, 87634, Note_on_c, 0, 66, 0
1, 87635, Note_on_c, 0, 54, 0
1, 87639, Note_on_c, 0, 64, 110
1, 87640, Note_on_c, 0, 52, 110
1, 87665, Note_on_c, 0, 52, 0
1, 87666, Note_on_c, 0, 64, 0
1, 87670, Note_on_c, 0, 62, 110
1, 87671, Note_on_c, 0, 50, 110
1, 87705, Note_on_c, 0, 50, 0
1, 87706, Note_on_c, 0, 62, 0
1, 87706, Note_on_c, 0, 52, 110
1, 87707, Note_on_c, 0, 64, 110
1, 87730, Note_on_c, 0, 64, 0
1, 87733, Note_on_c, 0, 52, 0
1, 87735, Note_on_c, 0, 66, 110
1, 87736, Note_on_c, 0, 54, 110
1, 87762, Note_on_c, 0, 54, 0
1, 87769, Note_on_c, 0, 66, 0
1, 87770, Note_on_c, 0, 55, 110
1, 87770, Note_on_c, 0, 67, 110
1, 87791, Note_on_c, 0, 55, 0
1, 87793, Note_on_c, 0, 67, 0
1, 87795, Note_on_c, 0, 57, 110
1, 87796, Note_on_c, 0, 69, 107
1, 87819, Note_on_c, 0, 57, 0
1, 87823, Note_on_c, 0, 69, 0
1, 87826, Note_on_c, 0, 70, 107
1, 87827, Note_on_c, 0, 58, 110
1, 87858, Note_on_c, 0, 58, 0
1, 87861, Note_on_c, 0, 70, 0
1, 87861, Note_on_c, 0, 72, 107
1, 87862, Note_on_c, 0, 60, 110
1, 87888, Note_on_c, 0, 60, 0
1, 87893, Note_on_c, 0, 72, 0
1, 87896, Note_on_c, 0, 69, 107
1, 87897, Note_on_c, 0, 57, 110
1, 87918, Note_on_c, 0, 57, 0
1, 87920, Note_on_c, 0, 69, 0
1, 87924, Note_on_c, 0, 70, 107
1, 87925, Note_on_c, 0, 58, 110
1, 87953, Note_on_c, 0, 58, 0
1, 87955, Note_on_c, 0, 70, 0
1, 87959, Note_on_c, 0, 72, 107
1, 87959, Note_on_c, 0, 60, 110
1, 87988, Note_on_c, 0, 60, 0
1, 87990, Note_on_c, 0, 72, 0
1, 87995, Note_on_c, 0, 54, 110
1, 87996, Note_on_c, 0, 66, 110
1, 88030, Note_on_c, 0, 67, 110
1, 88031, Note_on_c, 0, 54, 0
1, 88032, Note_on_c, 0, 66, 0
1, 88032, Note_on_c, 0, 55, 110
1, 88056, Note_on_c, 0, 55, 0
1, 88059, Note_on_c, 0, 67, 0
1, 88065, Note_on_c, 0, 69, 107
1, 88066, Note_on_c, 0, 57, 110
1, 88085, Note_on_c, 0, 57, 0
1, 88090, Note_on_c, 0, 69, 0
1, 88095, Note_on_c, 0, 58, 110
1, 88096, Note_on_c, 0, 70, 107
1, 88123, Note_on_c, 0, 70, 0
1, 88128, Note_on_c, 0, 58, 0
1, 88128, Note_on_c, 0, 72, 107
1, 88128, Note_on_c, 0, 60, 110
1, 88152, Note_on_c, 0, 60, 0
1, 88156, Note_on_c, 0, 72, 0
1, 88160, Note_on_c, 0, 74, 107
1, 88161, Note_on_c, 0, 62, 110
1, 88193, Note_on_c, 0, 75, 107
1, 88195, Note_on_c, 0, 63, 110
1, 88196, Note_on_c, 0, 62, 0
1, 88199, Note_on_c, 0, 74, 0
1, 88220, Note_on_c, 0, 63, 0
1, 88223, Note_on_c, 0, 75, 0
1, 88226, Note_on_c, 0, 72, 107
1, 88227, Note_on_c, 0, 60, 110
1, 88248, Note_on_c, 0, 60, 0
1, 88252, Note_on_c, 0, 72, 0
1, 88258, Note_on_c, 0, 74, 107
1, 88259, Note_on_c, 0, 62, 110
1, 88295, Note_on_c, 0, 62, 0
1, 88296, Note_on_c, 0, 74, 0
1, 88298, Note_on_c, 0, 75, 107
1, 88299, Note_on_c, 0, 63, 110
1, 88324, Note_on_c, 0, 63, 0
1, 88331, Note_on_c, 0, 69, 107
1, 88332, Note_on_c, 0, 75, 0
1, 88332, Note_on_c, 0, 57, 110
1, 88358, Note_on_c, 0, 57, 0
1, 88364, Note_on_c, 0, 69, 0
1, 88365, Note_on_c, 0, 70, 107
1, 88367, Note_on_c, 0, 58, 110
1, 88387, Note_on_c, 0, 58, 0
1, 88392, Note_on_c, 0, 70, 0
1, 88395, Note_on_c, 0, 72, 107
1, 88396, Note_on_c, 0, 60, 110
1, 88426, Note_on_c, 0, 60, 0
1, 88427, Note_on_c, 0, 74, 107
1, 88429, Note_on_c, 0, 62, 110
1, 88431, Note_on_c, 0, 72, 0
1, 88459, Note_on_c, 0, 62, 0
1, 88463, Note_on_c, 0, 74, 0
1, 88464, Note_on_c, 0, 76, 107
1, 88464, Note_on_c, 0, 64, 110
1, 88490, Note_on_c, 0, 64, 0
1, 88497, Note_on_c, 0, 78, 107
1, 88498, Note_on_c, 0, 66, 110
1, 88499, Note_on_c, 0, 76, 0
1, 88531, Note_on_c, 0, 66, 0
1, 88534, Note_on_c, 0, 78, 0
1, 88535, Note_on_c, 0, 79, 107
1, 88536, Note_on_c, 0, 67, 110
1, 88568, Note_on_c, 0, 81, 107
1, 88569, Note_on_c, 0, 69, 107
1, 88570, Note_on_c, 0, 67, 0
1, 88572, Note_on_c, 0, 79, 0
1, 88601, Note_on_c, 0, 69, 0
1, 88604, Note_on_c, 0, 81, 0
1, 88605, Note_on_c, 0, 78, 107
1, 88606, Note_on_c, 0, 66, 110
1, 88636, Note_on_c, 0, 79, 107
1, 88637, Note_on_c, 0, 67, 110
1, 88638, Note_on_c, 0, 66, 0
1, 88642, Note_on_c, 0, 78, 0
1, 88668, Note_on_c, 0, 67, 0
1, 88669, Note_on_c, 0, 79, 0
1, 88672, Note_on_c, 0, 81, 107
1, 88672, Note_on_c, 0, 69, 107
1, 88694, Note_on_c, 0, 69, 0
1, 88697, Note_on_c, 0, 81, 0
1, 88704, Note_on_c, 0, 74, 107
1, 88705, Note_on_c, 0, 62, 110
1, 88739, Note_on_c, 0, 62, 0
1, 88742, Note_on_c, 0, 74, 0
1, 88743, Note_on_c, 0, 76, 107
1, 88743, Note_on_c, 0, 64, 110
1, 88764, Note_on_c, 0, 76, 0
1, 88766, Note_on_c, 0, 64, 0
1, 88772, Note_on_c, 0, 78, 107
1, 88773, Note_on_c, 0, 66, 110
1, 88803, Note_on_c, 0, 66, 0
1, 88804, Note_on_c, 0, 79, 107
1, 88805, Note_on_c, 0, 67, 110
1, 88808, Note_on_c, 0, 78, 0
1, 88833, Note_on_c, 0, 67, 0
1, 88836, Note_on_c, 0, 79, 0
1, 88839, Note_on_c, 0, 81, 107
1, 88840, Note_on_c, 0, 69, 107
1, 88865, Note_on_c, 0, 69, 0
1, 88872, Note_on_c, 0, 82, 107
1, 88872, Note_on_c, 0, 70, 107
1, 88873, Note_on_c, 0, 81, 0
1, 88906, Note_on_c, 0, 70, 0
1, 88909, Note_on_c, 0, 82, 0
1, 88910, Note_on_c, 0, 72, 107
1, 88912, Note_on_c, 0, 84, 107
1, 88942, Note_on_c, 0, 81, 107
1, 88944, Note_on_c, 0, 84, 0
1, 88944, Note_on_c, 0, 69, 107
1, 88945, Note_on_c, 0, 72, 0
1, 88973, Note_on_c, 0, 69, 0
1, 88977, Note_on_c, 0, 81, 0
1, 88979, Note_on_c, 0, 70, 107
1, 88980, Note_on_c, 0, 82, 107
1, 89010, Note_on_c, 0, 82, 0
1, 89013, Note_on_c, 0, 72, 107
1, 89014, Note_on_c, 0, 84, 107
1, 89016, Note_on_c, 0, 70, 0
1, 89049, Note_on_c, 0, 84, 0
1, 89052, Note_on_c, 0, 72, 0
1, 89053, Note_on_c, 0, 78, 107
1, 89053, Note_on_c, 0, 66, 110
1, 89078, Note_on_c, 0, 66, 0
1, 89084, Note_on_c, 0, 79, 107
1, 89085, Note_on_c, 0, 67, 110
1, 89087, Note_on_c, 0, 78, 0
1, 89112, Note_on_c, 0, 67, 0
1, 89115, Note_on_c, 0, 79, 0
1, 89119, Note_on_c, 0, 81, 107
1, 89120, Note_on_c, 0, 69, 107
1, 89137, Note_on_c, 0, 69, 0
1, 89140, Note_on_c, 0, 81, 0
1, 89148, Note_on_c, 0, 82, 107
1, 89150, Note_on_c, 0, 70, 107
1, 89176, Note_on_c, 0, 82, 0
1, 89178, Note_on_c, 0, 70, 0
1, 89179, Note_on_c, 0, 84, 107
1, 89179, Note_on_c, 0, 72, 107
1, 89208, Note_on_c, 0, 72, 0
1, 89211, Note_on_c, 0, 84, 0
1, 89213, Note_on_c, 0, 74, 107
1, 89214, Note_on_c, 0, 86, 107
1, 89248, Note_on_c, 0, 74, 0
1, 89248, Note_on_c, 0, 87, 107
1, 89250, Note_on_c, 0, 86, 0
1, 89250, Note_on_c, 0, 75, 107
1, 89275, Note_on_c, 0, 75, 0
1, 89278, Note_on_c, 0, 87, 0
1, 89281, Note_on_c, 0, 84, 107
1, 89282, Note_on_c, 0, 72, 107
1, 89307, Note_on_c, 0, 72, 0
1, 89313, Note_on_c, 0, 86, 107
1, 89314, Note_on_c, 0, 84, 0
1, 89315, Note_on_c, 0, 74, 107
1, 89348, Note_on_c, 0, 74, 0
1, 89350, Note_on_c, 0, 75, 107
1, 89350, Note_on_c, 0, 87, 107
1, 89352, Note_on_c, 0, 86, 0
1, 89376, Note_on_c, 0, 75, 0
1, 89378, Note_on_c, 0, 81, 107
1, 89380, Note_on_c, 0, 87, 0
1, 89381, Note_on_c, 0, 69, 107
1, 89407, Note_on_c, 0, 69, 0
1, 89409, Note_on_c, 0, 81, 0
1, 89411, Note_on_c, 0, 82, 107
1, 89412, Note_on_c, 0, 70, 107
1, 89431, Note_on_c, 0, 70, 0
1, 89435, Note_on_c, 0, 82, 0
1, 89442, Note_on_c, 0, 72, 107
1, 89443, Note_on_c, 0, 84, 107
1, 89473, Note_on_c, 0, 72, 0
1, 89474, Note_on_c, 0, 86, 107
1, 89475, Note_on_c, 0, 84, 0
1, 89476, Note_on_c, 0, 74, 107
1, 89507, Note_on_c, 0, 74, 0
1, 89511, Note_on_c, 0, 86, 0
1, 89515, Note_on_c, 0, 88, 107
1, 89516, Note_on_c, 0, 76, 107
1, 89544, Note_on_c, 0, 76, 0
1, 89548, Note_on_c, 0, 90, 107
1, 89549, Note_on_c, 0, 78, 107
1, 89550, Note_on_c, 0, 88, 0
1, 89580, Note_on_c, 0, 78, 0
1, 89583, Note_on_c, 0, 90, 0
1, 89588, Note_on_c, 0, 79, 107
1, 89588, Note_on_c, 0, 91, 107
1, 89618, Note_on_c, 0, 79, 0
1, 89623, Note_on_c, 0, 91, 0
1, 89624, Note_on_c, 0, 93, 107
1, 89624, Note_on_c, 0, 81, 107
1, 89657, Note_on_c, 0, 81, 0
1, 89661, Note_on_c, 0, 93, 0
1, 89662, Note_on_c, 0, 90, 107
1, 89662, Note_on_c, 0, 78, 107
1, 89687, Note_on_c, 0, 90, 0
1, 89691, Note_on_c, 0, 78, 0
1, 89694, Note_on_c, 0, 91, 107
1, 89696, Note_on_c, 0, 79, 107
1, 89728, Note_on_c, 0, 79, 0
1, 89735, Note_on_c, 0, 91, 0
1, 89736, Note_on_c, 0, 81, 107
1, 89737, Note_on_c, 0, 93, 107
1, 89761, Note_on_c, 0, 93, 0
1, 89762, Note_on_c, 0, 81, 0
1, 89767, Note_on_c, 0, 74, 107
1, 89769, Note_on_c, 0, 86, 107
1, 89795, Note_on_c, 0, 74, 0
1, 89798, Note_on_c, 0, 86, 0
1, 89803, Note_on_c, 0, 88, 107
1, 89804, Note_on_c, 0, 76, 107
1, 89836, Note_on_c, 0, 90, 107
1, 89837, Note_on_c, 0, 78, 107
1, 89839, Note_on_c, 0, 88, 0
1, 89840, Note_on_c, 0, 76, 0
1, 89863, Note_on_c, 0, 78, 0
1, 89871, Note_on_c, 0, 90, 0
1, 89872, Note_on_c, 0, 79, 107
1, 89872, Note_on_c, 0, 91, 107
1, 89898, Note_on_c, 0, 79, 0
1, 89905, Note_on_c, 0, 93, 107
1, 89906, Note_on_c, 0, 91, 0
1, 89907, Note_on_c, 0, 81, 107
1, 89930, Note_on_c, 0, 81, 0
1, 89933, Note_on_c, 0, 93, 0
1, 89939, Note_on_c, 0, 82, 107
1, 89940, Note_on_c, 0, 94, 107
1, 89965, Note_on_c, 0, 94, 0
1, 89966, Note_on_c, 0, 82, 0
1, 89971, Note_on_c, 0, 96, 107
1, 89973, Note_on_c, 0, 84, 107
1, 89996, Note_on_c, 0, 96, 0
1, 89999, Note_on_c, 0, 84, 0
1, 90003, Note_on_c, 0, 94, 107
1, 90004, Note_on_c, 0, 82, 107
1, 90033, Note_on_c, 0, 94, 0
1, 90035, Note_on_c, 0, 82, 0
1, 90037, Note_on_c, 0, 81, 107
1, 90038, Note_on_c, 0, 93, 107
1, 90064, Note_on_c, 0, 81, 0
1, 90069, Note_on_c, 0, 93, 0
1, 90072, Note_on_c, 0, 91, 107
1, 90073, Note_on_c, 0, 79, 107
1, 90099, Note_on_c, 0, 79, 0
1, 90104, Note_on_c, 0, 78, 107
1, 90105, Note_on_c, 0, 91, 0
1, 90106, Note_on_c, 0, 90, 107
1, 90136, Note_on_c, 0, 90, 0
1, 90138, Note_on_c, 0, 78, 0
1, 90139, Note_on_c, 0, 88, 107
1, 90139, Note_on_c, 0, 76, 107
1, 90164, Note_on_c, 0, 88, 0
1, 90169, Note_on_c, 0, 76, 0
1, 90172, Note_on_c, 0, 74, 107
1, 90173, Note_on_c, 0, 86, 107
1, 90197, Note_on_c, 0, 74, 0
1, 90204, Note_on_c, 0, 86, 0
1, 90208, Note_on_c, 0, 84, 107
1, 90209, Note_on_c, 0, 72, 107
1, 90230, Note_on_c, 0, 72, 0
1, 90231, Note_on_c, 0, 84, 0
1, 90240, Note_on_c, 0, 82, 107
1, 90241, Note_on_c, 0, 70, 107
1, 90266, Note_on_c, 0, 70, 0
1, 90272, Note_on_c, 0, 82, 0
1, 90275, Note_on_c, 0, 81, 107
1, 90276, Note_on_c, 0, 69, 107
1, 90300, Note_on_c, 0, 69, 0
1, 90304, Note_on_c, 0, 81, 0
1, 90308, Note_on_c, 0, 79, 107
1, 90309, Note_on_c, 0, 67, 110
1, 90334, Note_on_c, 0, 67, 0
1, 90336, Note_on_c, 0, 79, 0
1, 90340, Note_on_c, 0, 78, 107
1, 90342, Note_on_c, 0, 66, 110
1, 90371, Note_on_c, 0, 66, 0
1, 90377, Note_on_c, 0, 78, 0
1, 90378, Note_on_c, 0, 64, 110
1, 90379, Note_on_c, 0, 76, 107
1, 90402, Note_on_c, 0, 76, 0
1, 90408, Note_on_c, 0, 64, 0
1, 90410, Note_on_c, 0, 74, 107
1, 90411, Note_on_c, 0, 62, 110
1, 90438, Note_on_c, 0, 62, 0
1, 90444, Note_on_c, 0, 74, 0
1, 90445, Note_on_c, 0, 72, 107
1, 90446, Note_on_c, 0, 60, 110
1, 90470, Note_on_c, 0, 60, 0
1, 90478, Note_on_c, 0, 72, 0
1, 90481, Note_on_c, 0, 70, 107
1, 90482, Note_on_c, 0, 58, 110
1, 90508, Note_on_c, 0, 70, 0
1, 90510, Note_on_c, 0, 58, 0
1, 90513, Note_on_c, 0, 69, 107
1, 90516, Note_on_c, 0, 57, 110
1, 90541, Note_on_c, 0, 57, 0
1, 90544, Note_on_c, 0, 69, 0
1, 90552, Note_on_c, 0, 55, 110
1, 90552, Note_on_c, 0, 67, 110
1, 90579, Note_on_c, 0, 55, 0
1, 90581, Note_on_c, 0, 67, 0
1, 90588, Note_on_c, 0, 66, 110
1, 90588, Note_on_c, 0, 54, 110
1, 90621, Note_on_c, 0, 66, 0
1, 90622, Note_on_c, 0, 54, 0
1, 90625, Note_on_c, 0, 64, 110
1, 90626, Note_on_c, 0, 52, 110
1, 90670, Note_on_c, 0, 52, 0
1, 90671, Note_on_c, 0, 64, 0
1, 90671, Note_on_c, 0, 50, 110
1, 90672, Note_on_c, 0, 62, 110
1, 90744, Note_on_c, 0, 84, 107
1, 90744, Note_on_c, 0, 72, 107
1, 90796, Note_on_c, 0, 84, 107
1, 90797, Note_on_c, 0, 72, 107
1, 90800, Note_on_c, 0, 50, 0
1, 90804, Note_on_c, 0, 62, 0
1, 90815, Note_on_c, 0, 84, 0
1, 90816, Note_on_c, 0, 72, 0
1, 90828, Note_on_c, 0, 82, 107
1, 90828, Note_on_c, 0, 70, 107
1, 90832, Note_on_c, 0, 84, 0
1, 90835, Note_on_c, 0, 72, 0
1, 90864, Note_on_c, 0, 62, 110
1, 90866, Note_on_c, 0, 50, 110
1, 90867, Note_on_c, 0, 82, 0
1, 90868, Note_on_c, 0, 54, 110
1, 90869, Note_on_c, 0, 69, 107
1, 90870, Note_on_c, 0, 70, 0
1, 90871, Note_on_c, 0, 74, 107
1, 90871, Note_on_c, 0, 66, 110
1, 90872, Note_on_c, 0, 78, 107
1, 90873, Note_on_c, 0, 84, 107
1, 90873, Note_on_c, 0, 57, 110
1, 90874, Note_on_c, 0, 72, 107
1, 90874, Note_on_c, 0, 62, 110
1, 90875, Note_on_c, 0, 66, 110
1, 90908, Note_on_c, 0, 82, 107
1, 90909, Note_on_c, 0, 70, 107
1, 90911, Note_on_c, 0, 84, 0
1, 90912, Note_on_c, 0, 72, 0
1, 90955, Note_on_c, 0, 84, 107
1, 90957, Note_on_c, 0, 72, 107
1, 90962, Note_on_c, 0, 82, 0
1, 90964, Note_on_c, 0, 70, 0
1, 90998, Note_on_c, 0, 82, 107
1, 91000, Note_on_c, 0, 70, 107
1, 91017, Note_on_c, 0, 84, 0
1, 91018, Note_on_c, 0, 72, 0
1, 91053, Note_on_c, 0, 82, 0
1, 91056, Note_on_c, 0, 84, 107
1, 91057, Note_on_c, 0, 72, 107
1, 91059, Note_on_c, 0, 70, 0
1, 91131, Note_on_c, 0, 81, 107
1, 91132, Note_on_c, 0, 69, 107
1, 91143, Note_on_c, 0, 78, 0
1, 91144, Note_on_c, 0, 74, 0
1, 91146, Note_on_c, 0, 69, 0
1, 91148, Note_on_c, 0, 54, 0
1, 91149, Note_on_c, 0, 50, 0
1, 91159, Note_on_c, 0, 69, 0
1, 91166, Note_on_c, 0, 57, 0
1, 91169, Note_on_c, 0, 43, 115
1, 91170, Note_on_c, 0, 55, 110
1, 91187, Note_on_c, 0, 84, 0
1, 91196, Note_on_c, 0, 62, 0
1, 91197, Note_on_c, 0, 66, 0
1, 91204, Note_on_c, 0, 74, 107
1, 91205, Note_on_c, 0, 81, 0
1, 91205, Note_on_c, 0, 58, 110
1, 91206, Note_on_c, 0, 62, 110
1, 91206, Note_on_c, 0, 46, 115
1, 91207, Note_on_c, 0, 72, 0
1, 91211, Note_on_c, 0, 43, 0
1, 91226, Note_on_c, 0, 55, 0
1, 91236, Note_on_c, 0, 46, 0
1, 91242, Note_on_c, 0, 62, 110
1, 91244, Note_on_c, 0, 50, 110
1, 91245, Note_on_c, 0, 79, 107
1, 91247, Note_on_c, 0, 67, 110
1, 91254, Note_on_c, 0, 74, 0
1, 91270, Note_on_c, 0, 58, 0
1, 91272, Note_on_c, 0, 67, 0
1, 91276, Note_on_c, 0, 62, 0
1, 91278, Note_on_c, 0, 62, 0
1, 91279, Note_on_c, 0, 67, 110
1, 91280, Note_on_c, 0, 82, 107
1, 91281, Note_on_c, 0, 70, 107
1, 91282, Note_on_c, 0, 55, 110
1, 91289, Note_on_c, 0, 79, 0
1, 91299, Note_on_c, 0, 50, 0
1, 91489, Note_on_c, 0, 67, 0
1, 91529, Note_on_c, 0, 55, 0
1, 91530, Note_on_c, 0, 70, 0
1, 91538, Note_on_c, 0, 82, 0
1, 91585, Note_on_c, 0, 70, 107
1, 91634, Note_on_c, 0, 70, 0
1, 91652, Note_on_c, 0, 72, 107
1, 91663, Note_on_c, 0, 62, 0
1, 91717, Note_on_c, 0, 72, 0
1, 91732, Note_on_c, 0, 74, 107
1, 91779, Note_on_c, 0, 74, 0
1, 91805, Note_on_c, 0, 75, 107
1, 91824, Note_on_c, 0, 75, 0
1, 91836, Note_on_c, 0, 74, 107
1, 91857, Note_on_c, 0, 74, 0
1, 91869, Note_on_c, 0, 75, 107
1, 91889, Note_on_c, 0, 75, 0
1, 91900, Note_on_c, 0, 74, 107
1, 91920, Note_on_c, 0, 74, 0
1, 91935, Note_on_c, 0, 75, 107
1, 91956, Note_on_c, 0, 75, 0
1, 91968, Note_on_c, 0, 74, 107
1, 91993, Note_on_c, 0, 74, 0
1, 92004, Note_on_c, 0, 72, 107
1, 92023, Note_on_c, 0, 72, 0
1, 92031, Note_on_c, 0, 74, 107
1, 92052, Note_on_c, 0, 74, 0
1, 92061, Note_on_c, 0, 75, 107
1, 92168, Note_on_c, 0, 69, 107
1, 92176, Note_on_c, 0, 75, 0
1, 92235, Note_on_c, 0, 66, 0
1, 92256, Note_on_c, 0, 69, 0
1, 92262, Note_on_c, 0, 70, 107
1, 92360, Note_on_c, 0, 70, 0
1, 92361, Note_on_c, 0, 72, 107
1, 92388, Note_on_c, 0, 72, 0
1, 92397, Note_on_c, 0, 70, 107
1, 92419, Note_on_c, 0, 70, 0
1, 92431, Note_on_c, 0, 72, 107
1, 92455, Note_on_c, 0, 72, 0
1, 92457, Note_on_c, 0, 70, 107
1, 92483, Note_on_c, 0, 70, 0
1, 92491, Note_on_c, 0, 72, 107
1, 92519, Note_on_c, 0, 72, 0
1, 92521, Note_on_c, 0, 70, 107
1, 92544, Note_on_c, 0, 70, 0
1, 92555, Note_on_c, 0, 69, 107
1, 92572, Note_on_c, 0, 69, 0
1, 92582, Note_on_c, 0, 70, 107
1, 92597, Note_on_c, 0, 70, 0
1, 92609, Note_on_c, 0, 72, 107
1, 92732, Note_on_c, 0, 72, 0
1, 92732, Note_on_c, 0, 66, 110
1, 92809, Note_on_c, 0, 67, 110
1, 92816, Note_on_c, 0, 66, 0
1, 92880, Note_on_c, 0, 67, 0
1, 92890, Note_on_c, 0, 69, 107
1, 92916, Note_on_c, 0, 69, 0
1, 92922, Note_on_c, 0, 67, 110
1, 92955, Note_on_c, 0, 67, 0
1, 92957, Note_on_c, 0, 69, 107
1, 92988, Note_on_c, 0, 69, 0
1, 92989, Note_on_c, 0, 67, 110
1, 93017, Note_on_c, 0, 67, 0
1, 93023, Note_on_c, 0, 69, 107
1, 93038, Note_on_c, 0, 69, 0
1, 93050, Note_on_c, 0, 67, 110
1, 93081, Note_on_c, 0, 66, 110
1, 93085, Note_on_c, 0, 67, 0
1, 93104, Note_on_c, 0, 66, 0
1, 93112, Note_on_c, 0, 67, 110
1, 93138, Note_on_c, 0, 67, 0
1, 93144, Note_on_c, 0, 69, 107
1, 93333, Note_on_c, 0, 69, 107
1, 93334, Note_on_c, 0, 57, 110
1, 93334, Note_on_c, 0, 66, 110
1, 93335, Note_on_c, 0, 54, 110
1, 93335, Note_on_c, 0, 63, 110
1, 93336, Note_on_c, 0, 78, 107
1, 93336, Note_on_c, 0, 51, 110
1, 93336, Note_on_c, 0, 60, 110
1, 93337, Note_on_c, 0, 66, 110
1, 93337, Note_on_c, 0, 48, 115
1, 93338, Note_on_c, 0, 75, 107
1, 93339, Note_on_c, 0, 63, 110
1, 93418, Note_on_c, 0, 66, 0
1, 93419, Note_on_c, 0, 63, 0
1, 93423, Note_on_c, 0, 69, 0
1, 93437, Note_on_c, 0, 81, 107
1, 93438, Note_on_c, 0, 69, 107
1, 93537, Note_on_c, 0, 69, 0
1, 93604, Note_on_c, 0, 81, 0
1, 93606, Note_on_c, 0, 75, 0
1, 93610, Note_on_c, 0, 48, 0
1, 93611, Note_on_c, 0, 69, 0
1, 93611, Note_on_c, 0, 78, 0
1, 93612, Note_on_c, 0, 51, 0
1, 93612, Note_on_c, 0, 60, 0
1, 93614, Note_on_c, 0, 57, 0
1, 93614, Note_on_c, 0, 54, 0
1, 93721, Note_on_c, 0, 63, 0
1, 93737, Note_on_c, 0, 66, 0
1, 93745, Note_on_c, 0, 72, 107
1, 93746, Note_on_c, 0, 84, 107
1, 93868, Note_on_c, 0, 72, 0
1, 93869, Note_on_c, 0, 84, 0
1, 93877, Note_on_c, 0, 82, 107
1, 93880, Note_on_c, 0, 70, 107
1, 94041, Note_on_c, 0, 81, 107
1, 94043, Note_on_c, 0, 69, 107
1, 94059, Note_on_c, 0, 82, 0
1, 94061, Note_on_c, 0, 70, 0
1, 94161, Note_on_c, 0, 79, 107
1, 94163, Note_on_c, 0, 69, 0
1, 94163, Note_on_c, 0, 67, 110
1, 94168, Note_on_c, 0, 81, 0
1, 94284, Note_on_c, 0, 69, 107
1, 94284, Note_on_c, 0, 81, 107
1, 94286, Note_on_c, 0, 79, 0
1, 94287, Note_on_c, 0, 67, 0
1, 94369, Note_on_c, 0, 78, 107
1, 94371, Note_on_c, 0, 66, 110
1, 94375, Note_on_c, 0, 69, 0
1, 94378, Note_on_c, 0, 81, 0
1, 94457, Note_on_c, 0, 49, 110
1, 94458, Note_on_c, 0, 61, 110
1, 94512, Note_on_c, 0, 66, 0
1, 94519, Note_on_c, 0, 52, 110
1, 94521, Note_on_c, 0, 64, 110
1, 94545, Note_on_c, 0, 49, 0
1, 94546, Note_on_c, 0, 61, 0
1, 94563, Note_on_c, 0, 64, 0
1, 94572, Note_on_c, 0, 67, 110
1, 94574, Note_on_c, 0, 64, 110
1, 94574, Note_on_c, 0, 55, 110
1, 94576, Note_on_c, 0, 78, 0
1, 94577, Note_on_c, 0, 76, 107
1, 94584, Note_on_c, 0, 52, 0
1, 94601, Note_on_c, 0, 67, 0
1, 94613, Note_on_c, 0, 79, 107
1, 94614, Note_on_c, 0, 70, 107
1, 94615, Note_on_c, 0, 67, 110
1, 94616, Note_on_c, 0, 58, 110
1, 94618, Note_on_c, 0, 76, 0
1, 94631, Note_on_c, 0, 55, 0
1, 94669, Note_on_c, 0, 64, 0
1, 94819, Note_on_c, 0, 67, 0
1, 94837, Note_on_c, 0, 70, 0
1, 94842, Note_on_c, 0, 79, 0
1, 94863, Note_on_c, 0, 81, 107
1, 94864, Note_on_c, 0, 69, 107
1, 94897, Note_on_c, 0, 58, 0
1, 94957, Note_on_c, 0, 69, 0
1, 94959, Note_on_c, 0, 81, 0
1, 94964, Note_on_c, 0, 83, 107
1, 94965, Note_on_c, 0, 71, 107
1, 95055, Note_on_c, 0, 73, 107
1, 95056, Note_on_c, 0, 83, 0
1, 95056, Note_on_c, 0, 85, 107
1, 95058, Note_on_c, 0, 71, 0
1, 95144, Note_on_c, 0, 73, 0
1, 95145, Note_on_c, 0, 85, 0
1, 95150, Note_on_c, 0, 86, 107
1, 95151, Note_on_c, 0, 74, 107
1, 95198, Note_on_c, 0, 74, 0
1, 95199, Note_on_c, 0, 76, 107
1, 95200, Note_on_c, 0, 88, 107
1, 95201, Note_on_c, 0, 86, 0
1, 95247, Note_on_c, 0, 88, 0
1, 95251, Note_on_c, 0, 76, 0
1, 95255, Note_on_c, 0, 89, 107
1, 95257, Note_on_c, 0, 77, 107
1, 95307, Note_on_c, 0, 79, 107
1, 95308, Note_on_c, 0, 77, 0
1, 95310, Note_on_c, 0, 91, 107
1, 95313, Note_on_c, 0, 89, 0
1, 95355, Note_on_c, 0, 91, 0
1, 95360, Note_on_c, 0, 79, 0
1, 95363, Note_on_c, 0, 89, 107
1, 95364, Note_on_c, 0, 77, 107
1, 95449, Note_on_c, 0, 91, 107
1, 95450, Note_on_c, 0, 79, 107
1, 95451, Note_on_c, 0, 89, 0
1, 95459, Note_on_c, 0, 77, 0
1, 95491, Note_on_c, 0, 76, 107
1, 95492, Note_on_c, 0, 88, 107
1, 95495, Note_on_c, 0, 79, 0
1, 95499, Note_on_c, 0, 91, 0
1, 95536, Note_on_c, 0, 88, 0
1, 95540, Note_on_c, 0, 69, 107
1, 95541, Note_on_c, 0, 76, 0
1, 95542, Note_on_c, 0, 57, 110
1, 95542, Note_on_c, 0, 65, 110
1, 95543, Note_on_c, 0, 62, 110
1, 95544, Note_on_c, 0, 53, 110
1, 95545, Note_on_c, 0, 50, 110
1, 95546, Note_on_c, 0, 77, 107
1, 95547, Note_on_c, 0, 89, 107
1, 95670, Note_on_c, 0, 89, 0
1, 95672, Note_on_c, 0, 74, 107
1, 95672, Note_on_c, 0, 86, 107
1, 95700, Note_on_c, 0, 77, 0
1, 95737, Note_on_c, 0, 88, 107
1, 95739, Note_on_c, 0, 76, 107
1, 95764, Note_on_c, 0, 74, 0
1, 95768, Note_on_c, 0, 86, 0
1, 95796, Note_on_c, 0, 88, 0
1, 95805, Note_on_c, 0, 60, 110
1, 95806, Note_on_c, 0, 86, 107
1, 95807, Note_on_c, 0, 76, 0
1, 95808, Note_on_c, 0, 48, 115
1, 95809, Note_on_c, 0, 50, 0
1, 95810, Note_on_c, 0, 74, 107
1, 95810, Note_on_c, 0, 89, 107
1, 95811, Note_on_c, 0, 77, 107
1, 95812, Note_on_c, 0, 62, 0
1, 95930, Note_on_c, 0, 77, 0
1, 95931, Note_on_c, 0, 91, 107
1, 95932, Note_on_c, 0, 79, 107
1, 95933, Note_on_c, 0, 89, 0
1, 95964, Note_on_c, 0, 65, 0
1, 95967, Note_on_c, 0, 69, 0
1, 95981, Note_on_c, 0, 79, 0
1, 95983, Note_on_c, 0, 91, 0
1, 95983, Note_on_c, 0, 89, 107
1, 95985, Note_on_c, 0, 77, 107
1, 96002, Note_on_c, 0, 57, 0
1, 96003, Note_on_c, 0, 53, 0
1, 96023, Note_on_c, 0, 77, 0
1, 96027, Note_on_c, 0, 88, 107
1, 96028, Note_on_c, 0, 76, 107
1, 96029, Note_on_c, 0, 89, 0
1, 96063, Note_on_c, 0, 74, 0
1, 96064, Note_on_c, 0, 88, 0
1, 96067, Note_on_c, 0, 76, 0
1, 96068, Note_on_c, 0, 86, 0
1, 96073, Note_on_c, 0, 77, 107
1, 96073, Note_on_c, 0, 89, 107
1, 96118, Note_on_c, 0, 89, 0
1, 96130, Note_on_c, 0, 77, 0
1, 96134, Note_on_c, 0, 91, 107
1, 96135, Note_on_c, 0, 79, 107
1, 96195, Note_on_c, 0, 62, 110
1, 96197, Note_on_c, 0, 79, 0
1, 96197, Note_on_c, 0, 58, 110
1, 96199, Note_on_c, 0, 91, 0
1, 96199, Note_on_c, 0, 55, 110
1, 96200, Note_on_c, 0, 50, 110
1, 96201, Note_on_c, 0, 93, 107
1, 96201, Note_on_c, 0, 67, 110
1, 96202, Note_on_c, 0, 46, 115
1, 96203, Note_on_c, 0, 74, 107
1, 96204, Note_on_c, 0, 86, 107
1, 96204, Note_on_c, 0, 81, 107
1, 96206, Note_on_c, 0, 48, 0
1, 96212, Note_on_c, 0, 60, 0
1, 96291, Note_on_c, 0, 93, 0
1, 96292, Note_on_c, 0, 79, 107
1, 96292, Note_on_c, 0, 91, 107
1, 96296, Note_on_c, 0, 81, 0
1, 96366, Note_on_c, 0, 50, 0
1, 96368, Note_on_c, 0, 79, 0
1, 96369, Note_on_c, 0, 62, 0
1, 96370, Note_on_c, 0, 91, 0
1, 96371, Note_on_c, 0, 64, 110
1, 96372, Note_on_c, 0, 93, 107
1, 96373, Note_on_c, 0, 81, 107
1, 96373, Note_on_c, 0, 52, 110
1, 96401, Note_on_c, 0, 81, 0
1, 96403, Note_on_c, 0, 91, 107
1, 96405, Note_on_c, 0, 79, 107
1, 96406, Note_on_c, 0, 93, 0
1, 96441, Note_on_c, 0, 79, 0
1, 96443, Note_on_c, 0, 91, 0
1, 96444, Note_on_c, 0, 93, 107
1, 96445, Note_on_c, 0, 81, 107
1, 96486, Note_on_c, 0, 91, 107
1, 96487, Note_on_c, 0, 79, 107
1, 96496, Note_on_c, 0, 81, 0
1, 96498, Note_on_c, 0, 93, 0
1, 96522, Note_on_c, 0, 79, 0
1, 96524, Note_on_c, 0, 91, 0
1, 96525, Note_on_c, 0, 61, 110
1, 96527, Note_on_c, 0, 93, 107
1, 96527, Note_on_c, 0, 81, 107
1, 96527, Note_on_c, 0, 49, 110
1, 96531, Note_on_c, 0, 52, 0
1, 96536, Note_on_c, 0, 64, 0
1, 96557, Note_on_c, 0, 91, 107
1, 96558, Note_on_c, 0, 79, 107
1, 96565, Note_on_c, 0, 81, 0
1, 96570, Note_on_c, 0, 93, 0
1, 96598, Note_on_c, 0, 91, 0
1, 96600, Note_on_c, 0, 79, 0
1, 96600, Note_on_c, 0, 81, 107
1, 96600, Note_on_c, 0, 93, 107
1, 96634, Note_on_c, 0, 91, 107
1, 96635, Note_on_c, 0, 79, 107
1, 96646, Note_on_c, 0, 81, 0
1, 96649, Note_on_c, 0, 93, 0
1, 96657, Note_on_c, 0, 46, 0
1, 96658, Note_on_c, 0, 86, 0
1, 96659, Note_on_c, 0, 67, 0
1, 96659, Note_on_c, 0, 55, 0
1, 96660, Note_on_c, 0, 74, 0
1, 96660, Note_on_c, 0, 58, 0
1, 96669, Note_on_c, 0, 49, 0
1, 96669, Note_on_c, 0, 62, 110
1, 96670, Note_on_c, 0, 50, 110
1, 96671, Note_on_c, 0, 89, 107
1, 96672, Note_on_c, 0, 77, 107
1, 96674, Note_on_c, 0, 61, 0
1, 96679, Note_on_c, 0, 79, 0
1, 96682, Note_on_c, 0, 91, 0
1, 96722, Note_on_c, 0, 91, 107
1, 96723, Note_on_c, 0, 79, 107
1, 96733, Note_on_c, 0, 77, 0
1, 96734, Note_on_c, 0, 89, 0
1, 96774, Note_on_c, 0, 50, 0
1, 96775, Note_on_c, 0, 62, 0
1, 96776, Note_on_c, 0, 57, 98
1, 96777, Note_on_c, 0, 69, 88
1, 96779, Note_on_c, 0, 52, 98
1, 96780, Note_on_c, 0, 61, 98
1, 96780, Note_on_c, 0, 64, 98
1, 96781, Note_on_c, 0, 49, 98
1, 96781, Note_on_c, 0, 57, 98
1, 96783, Note_on_c, 0, 93, 88
1, 96783, Note_on_c, 0, 45, 103
1, 96784, Note_on_c, 0, 81, 88
1, 96784, Note_on_c, 0, 76, 88
1, 96785, Note_on_c, 0, 88, 88
1, 96786, Note_on_c, 0, 79, 0
1, 96787, Note_on_c, 0, 85, 88
1, 96788, Note_on_c, 0, 73, 88
1, 96788, Note_on_c, 0, 69, 88
1, 96800, Note_on_c, 0, 91, 0
1, 96827, Note_on_c, 0, 57, 0
1, 96833, Note_on_c, 0, 69, 0
1, 97218, Note_on_c, 0, 73, 0
1, 97226, Note_on_c, 0, 76, 0
1, 97227, Note_on_c, 0, 88, 0
1, 97230, Note_on_c, 0, 85, 0
1, 97233, Note_on_c, 0, 45, 0
1, 97235, Note_on_c, 0, 49, 0
1, 97238, Note_on_c, 0, 52, 0
1, 97239, Note_on_c, 0, 93, 0
1, 97239, Note_on_c, 0, 61, 0
1, 97241, Note_on_c, 0, 64, 0
1, 97318, Note_on_c, 0, 81, 0
1, 97326, Note_on_c, 0, 94, 107
1, 97327, Note_on_c, 0, 82, 107
1, 97344, Note_on_c, 0, 69, 0
1, 97353, Note_on_c, 0, 57, 0
1, 97367, Note_on_c, 0, 82, 0
1, 97368, Note_on_c, 0, 94, 0
1, 97373, Note_on_c, 0, 81, 107
1, 97374, Note_on_c, 0, 93, 107
1, 97411, Note_on_c, 0, 93, 0
1, 97415, Note_on_c, 0, 81, 0
1, 97419, Note_on_c, 0, 91, 107
1, 97420, Note_on_c, 0, 79, 107
1, 97455, Note_on_c, 0, 79, 0
1, 97460, Note_on_c, 0, 91, 0
1, 97466, Note_on_c, 0, 77, 107
1, 97467, Note_on_c, 0, 89, 107
1, 97510, Note_on_c, 0, 77, 0
1, 97512, Note_on_c, 0, 89, 0
1, 97517, Note_on_c, 0, 88, 107
1, 97518, Note_on_c, 0, 76, 107
1, 97555, Note_on_c, 0, 76, 0
1, 97561, Note_on_c, 0, 88, 0
1, 97570, Note_on_c, 0, 86, 107
1, 97571, Note_on_c, 0, 74, 107
1, 97612, Note_on_c, 0, 74, 0
1, 97616, Note_on_c, 0, 86, 0
1, 97622, Note_on_c, 0, 73, 107
1, 97622, Note_on_c, 0, 85, 107
1, 97662, Note_on_c, 0, 73, 0
1, 97667, Note_on_c, 0, 85, 0
1, 97669, Note_on_c, 0, 83, 107
1, 97670, Note_on_c, 0, 71, 107
1, 97707, Note_on_c, 0, 71, 0
1, 97710, Note_on_c, 0, 83, 0
1, 97716, Note_on_c, 0, 81, 107
1, 97717, Note_on_c, 0, 69, 107
1, 97748, Note_on_c, 0, 69, 0
1, 97750, Note_on_c, 0, 81, 0
1, 97757, Note_on_c, 0, 71, 107
1, 97758, Note_on_c, 0, 83, 107
1, 97787, Note_on_c, 0, 71, 0
1, 97791, Note_on_c, 0, 83, 0
1, 97799, Note_on_c, 0, 85, 107
1, 97800, Note_on_c, 0, 73, 107
1, 97828, Note_on_c, 0, 73, 0
1, 97831, Note_on_c, 0, 85, 0
1, 97839, Note_on_c, 0, 74, 107
1, 97840, Note_on_c, 0, 86, 107
1, 97868, Note_on_c, 0, 74, 0
1, 97870, Note_on_c, 0, 86, 0
1, 97876, Note_on_c, 0, 88, 107
1, 97878, Note_on_c, 0, 76, 107
1, 97904, Note_on_c, 0, 76, 0
1, 97909, Note_on_c, 0, 88, 0
1, 97917, Note_on_c, 0, 89, 107
1, 97918, Note_on_c, 0, 77, 107
1, 97944, Note_on_c, 0, 77, 0
1, 97944, Note_on_c, 0, 89, 0
1, 97954, Note_on_c, 0, 91, 107
1, 97956, Note_on_c, 0, 79, 107
1, 98019, Note_on_c, 0, 91, 0
1, 98021, Note_on_c, 0, 79, 0
1, 98032, Note_on_c, 0, 76, 107
1, 98032, Note_on_c, 0, 88, 107
1, 98093, Note_on_c, 0, 76, 0
1, 98095, Note_on_c, 0, 88, 0
1, 98107, Note_on_c, 0, 85, 107
1, 98108, Note_on_c, 0, 73, 107
1, 98164, Note_on_c, 0, 73, 0
1, 98166, Note_on_c, 0, 85, 0
1, 98178, Note_on_c, 0, 82, 107
1, 98179, Note_on_c, 0, 70, 107
1, 98239, Note_on_c, 0, 70, 0
1, 98243, Note_on_c, 0, 82, 0
1, 98256, Note_on_c, 0, 79, 107
1, 98257, Note_on_c, 0, 67, 110
1, 98323, Note_on_c, 0, 67, 0
1, 98325, Note_on_c, 0, 79, 0
1, 98333, Note_on_c, 0, 76, 107
1, 98336, Note_on_c, 0, 64, 110
1, 98393, Note_on_c, 0, 64, 0
1, 98397, Note_on_c, 0, 76, 0
1, 98404, Note_on_c, 0, 73, 107
1, 98405, Note_on_c, 0, 61, 110
1, 98479, Note_on_c, 0, 61, 0
1, 98480, Note_on_c, 0, 73, 0
1, 98486, Note_on_c, 0, 70, 107
1, 98489, Note_on_c, 0, 58, 110
1, 98551, Note_on_c, 0, 58, 0
1, 98555, Note_on_c, 0, 70, 0
1, 98562, Note_on_c, 0, 67, 110
1, 98565, Note_on_c, 0, 55, 110
1, 98618, Note_on_c, 0, 55, 0
1, 98621, Note_on_c, 0, 67, 0
1, 98634, Note_on_c, 0, 52, 110
1, 98634, Note_on_c, 0, 64, 110
1, 98695, Note_on_c, 0, 64, 0
1, 98696, Note_on_c, 0, 52, 0
1, 98706, Note_on_c, 0, 61, 110
1, 98707, Note_on_c, 0, 49, 110
1, 98768, Note_on_c, 0, 49, 0
1, 98769, Note_on_c, 0, 61, 0
1, 98781, Note_on_c, 0, 64, 110
1, 98782, Note_on_c, 0, 52, 110
1, 98853, Note_on_c, 0, 52, 0
1, 98856, Note_on_c, 0, 64, 0
1, 98868, Note_on_c, 0, 42, 115
1, 98869, Note_on_c, 0, 54, 110
1, 99243, Note_on_c, 0, 87, 107
1, 99244, Note_on_c, 0, 75, 107
1, 99244, Note_on_c, 0, 66, 110
1, 99245, Note_on_c, 0, 54, 110
1, 99312, Note_on_c, 0, 54, 0
1, 99320, Note_on_c, 0, 69, 107
1, 99321, Note_on_c, 0, 57, 110
1, 99322, Note_on_c, 0, 54, 0
1, 99324, Note_on_c, 0, 42, 0
1, 99342, Note_on_c, 0, 66, 0
1, 99364, Note_on_c, 0, 72, 107
1, 99365, Note_on_c, 0, 57, 0
1, 99366, Note_on_c, 0, 60, 110
1, 99389, Note_on_c, 0, 78, 107
1, 99390, Note_on_c, 0, 66, 110
1, 99395, Note_on_c, 0, 60, 0
1, 99396, Note_on_c, 0, 69, 0
1, 99418, Note_on_c, 0, 69, 107
1, 99418, Note_on_c, 0, 81, 107
1, 99420, Note_on_c, 0, 66, 0
1, 99422, Note_on_c, 0, 72, 0
1, 99424, Note_on_c, 0, 78, 0
1, 99437, Note_on_c, 0, 72, 107
1, 99438, Note_on_c, 0, 84, 107
1, 99444, Note_on_c, 0, 81, 0
1, 99480, Note_on_c, 0, 69, 0
1, 99491, Note_on_c, 0, 84, 0
1, 99498, Note_on_c, 0, 86, 107
1, 99499, Note_on_c, 0, 74, 107
1, 99502, Note_on_c, 0, 72, 0
1, 99503, Note_on_c, 0, 75, 0
1, 99505, Note_on_c, 0, 87, 0
1, 99726, Note_on_c, 0, 74, 0
1, 99787, Note_on_c, 0, 62, 110
1, 99788, Note_on_c, 0, 50, 110
1, 99835, Note_on_c, 0, 86, 0
1, 99884, Note_on_c, 0, 50, 0
1, 99887, Note_on_c, 0, 62, 0
1, 99906, Note_on_c, 0, 64, 110
1, 99907, Note_on_c, 0, 52, 110
1, 99984, Note_on_c, 0, 54, 110
1, 99984, Note_on_c, 0, 66, 110
1, 99985, Note_on_c, 0, 64, 0
1, 99989, Note_on_c, 0, 52, 0
1, 100038, Note_on_c, 0, 67, 110
1, 100039, Note_on_c, 0, 55, 110
1, 100043, Note_on_c, 0, 54, 0
1, 100044, Note_on_c, 0, 66, 0
1, 100086, Note_on_c, 0, 55, 0
1, 100088, Note_on_c, 0, 67, 0
1, 100089, Note_on_c, 0, 69, 107
1, 100090, Note_on_c, 0, 57, 110
1, 100134, Note_on_c, 0, 70, 107
1, 100135, Note_on_c, 0, 57, 0
1, 100135, Note_on_c, 0, 58, 110
1, 100137, Note_on_c, 0, 69, 0
1, 100167, Note_on_c, 0, 58, 0
1, 100174, Note_on_c, 0, 70, 0
1, 100176, Note_on_c, 0, 72, 107
1, 100177, Note_on_c, 0, 60, 110
1, 100202, Note_on_c, 0, 60, 0
1, 100205, Note_on_c, 0, 72, 0
1, 100211, Note_on_c, 0, 74, 107
1, 100212, Note_on_c, 0, 62, 110
1, 100250, Note_on_c, 0, 62, 0
1, 100251, Note_on_c, 0, 75, 107
1, 100251, Note_on_c, 0, 63, 110
1, 100252, Note_on_c, 0, 74, 0
1, 100281, Note_on_c, 0, 63, 0
1, 100285, Note_on_c, 0, 75, 0
1, 100286, Note_on_c, 0, 74, 107
1, 100287, Note_on_c, 0, 62, 110
1, 100322, Note_on_c, 0, 62, 0
1, 100326, Note_on_c, 0, 74, 0
1, 100329, Note_on_c, 0, 72, 107
1, 100331, Note_on_c, 0, 60, 110
1, 100362, Note_on_c, 0, 60, 0
1, 100368, Note_on_c, 0, 70, 107
1, 100368, Note_on_c, 0, 58, 110
1, 100370, Note_on_c, 0, 72, 0
1, 100400, Note_on_c, 0, 58, 0
1, 100404, Note_on_c, 0, 70, 0
1, 100404, Note_on_c, 0, 69, 107
1, 100404, Note_on_c, 0, 57, 110
1, 100442, Note_on_c, 0, 57, 0
1, 100445, Note_on_c, 0, 69, 0
1, 100445, Note_on_c, 0, 55, 110
1, 100446, Note_on_c, 0, 67, 110
1, 100476, Note_on_c, 0, 66, 110
1, 100477, Note_on_c, 0, 55, 0
1, 100478, Note_on_c, 0, 67, 0
1, 100479, Note_on_c, 0, 54, 110
1, 100542, Note_on_c, 0, 69, 107
1, 100544, Note_on_c, 0, 57, 110
1, 100547, Note_on_c, 0, 66, 0
1, 100548, Note_on_c, 0, 54, 0
1, 100609, Note_on_c, 0, 72, 107
1, 100612, Note_on_c, 0, 60, 110
1, 100613, Note_on_c, 0, 57, 0
1, 100617, Note_on_c, 0, 69, 0
1, 100675, Note_on_c, 0, 60, 0
1, 100679, Note_on_c, 0, 72, 0
1, 100682, Note_on_c, 0, 75, 107
1, 100682, Note_on_c, 0, 63, 110
1, 100748, Note_on_c, 0, 75, 0
1, 100750, Note_on_c, 0, 63, 0
1, 100753, Note_on_c, 0, 78, 107
1, 100756, Note_on_c, 0, 66, 110
1, 100825, Note_on_c, 0, 66, 0
1, 100825, Note_on_c, 0, 81, 107
1, 100826, Note_on_c, 0, 69, 107
1, 100833, Note_on_c, 0, 78, 0
1, 100898, Note_on_c, 0, 84, 107
1, 100899, Note_on_c, 0, 69, 0
1, 100901, Note_on_c, 0, 72, 107
1, 100904, Note_on_c, 0, 81, 0
1, 100973, Note_on_c, 0, 87, 107
1, 100975, Note_on_c, 0, 75, 107
1, 100976, Note_on_c, 0, 72, 0
1, 100979, Note_on_c, 0, 84, 0
1, 101048, Note_on_c, 0, 90, 107
1, 101049, Note_on_c, 0, 75, 0
1, 101049, Note_on_c, 0, 78, 107
1, 101052, Note_on_c, 0, 87, 0
1, 101122, Note_on_c, 0, 78, 0
1, 101123, Note_on_c, 0, 93, 107
1, 101124, Note_on_c, 0, 81, 107
1, 101126, Note_on_c, 0, 90, 0
1, 101202, Note_on_c, 0, 84, 107
1, 101203, Note_on_c, 0, 96, 107
1, 101207, Note_on_c, 0, 81, 0
1, 101208, Note_on_c, 0, 93, 0
1, 101265, Note_on_c, 0, 84, 0
1, 101266, Note_on_c, 0, 96, 0
1, 101271, Note_on_c, 0, 93, 107
1, 101272, Note_on_c, 0, 81, 107
1, 101338, Note_on_c, 0, 81, 0
1, 101339, Note_on_c, 0, 93, 0
1, 101345, Note_on_c, 0, 90, 107
1, 101346, Note_on_c, 0, 78, 107
1, 101423, Note_on_c, 0, 78, 0
1, 101426, Note_on_c, 0, 90, 0
1, 101430, Note_on_c, 0, 81, 107
1, 101431, Note_on_c, 0, 93, 107
1, 101479, Note_on_c, 0, 93, 0
1, 101480, Note_on_c, 0, 90, 107
1, 101481, Note_on_c, 0, 78, 107
1, 101483, Note_on_c, 0, 81, 0
1, 101534, Note_on_c, 0, 86, 107
1, 101537, Note_on_c, 0, 74, 107
1, 101548, Note_on_c, 0, 90, 0
1, 101552, Note_on_c, 0, 78, 0
1, 101616, Note_on_c, 0, 86, 0
1, 101616, Note_on_c, 0, 74, 0
1, 101618, Note_on_c, 0, 78, 107
1, 101619, Note_on_c, 0, 90, 107
1, 101678, Note_on_c, 0, 86, 107
1, 101680, Note_on_c, 0, 74, 107
1, 101683, Note_on_c, 0, 90, 0
1, 101686, Note_on_c, 0, 78, 0
1, 101733, Note_on_c, 0, 74, 0
1, 101734, Note_on_c, 0, 86, 0
1, 101736, Note_on_c, 0, 72, 107
1, 101736, Note_on_c, 0, 84, 107
1, 101944, Note_on_c, 0, 83, 107
1, 101945, Note_on_c, 0, 71, 107
1, 101953, Note_on_c, 0, 84, 0
1, 101955, Note_on_c, 0, 72, 0
1, 102143, Note_on_c, 0, 71, 0
1, 102146, Note_on_c, 0, 83, 0
1, 102153, Note_on_c, 0, 67, 110
1, 102156, Note_on_c, 0, 50, 110
1, 102156, Note_on_c, 0, 62, 110
1, 102157, Note_on_c, 0, 55, 110
1, 102158, Note_on_c, 0, 53, 110
1, 102158, Note_on_c, 0, 59, 110
1, 102159, Note_on_c, 0, 83, 107
1, 102160, Note_on_c, 0, 79, 107
1, 102160, Note_on_c, 0, 47, 115
1, 102161, Note_on_c, 0, 71, 107
1, 102161, Note_on_c, 0, 41, 115
1, 102162, Note_on_c, 0, 67, 110
1, 102163, Note_on_c, 0, 62, 110
1, 102164, Note_on_c, 0, 74, 107
1, 102199, Note_on_c, 0, 62, 0
1, 102200, Note_on_c, 0, 67, 0
1, 102378, Note_on_c, 0, 71, 0
1, 102384, Note_on_c, 0, 83, 0
1, 102480, Note_on_c, 0, 83, 107
1, 102481, Note_on_c, 0, 71, 107
1, 102501, Note_on_c, 0, 47, 0
1, 102502, Note_on_c, 0, 50, 0
1, 102503, Note_on_c, 0, 55, 0
1, 102503, Note_on_c, 0, 41, 0
1, 102504, Note_on_c, 0, 53, 0
1, 102504, Note_on_c, 0, 74, 0
1, 102505, Note_on_c, 0, 79, 0
1, 102506, Note_on_c, 0, 59, 0
1, 102611, Note_on_c, 0, 71, 0
1, 102616, Note_on_c, 0, 85, 107
1, 102618, Note_on_c, 0, 73, 107
1, 102619, Note_on_c, 0, 83, 0
1, 102691, Note_on_c, 0, 62, 0
1, 102693, Note_on_c, 0, 67, 0
1, 102719, Note_on_c, 0, 85, 0
1, 102720, Note_on_c, 0, 73, 0
1, 102724, Note_on_c, 0, 86, 107
1, 102726, Note_on_c, 0, 74, 107
1, 102797, Note_on_c, 0, 74, 0
1, 102799, Note_on_c, 0, 86, 0
1, 102801, Note_on_c, 0, 76, 107
1, 102802, Note_on_c, 0, 88, 107
1, 102863, Note_on_c, 0, 76, 0
1, 102866, Note_on_c, 0, 88, 0
1, 102871, Note_on_c, 0, 77, 107
1, 102872, Note_on_c, 0, 89, 107
1, 102927, Note_on_c, 0, 77, 0
1, 102929, Note_on_c, 0, 89, 0
1, 102936, Note_on_c, 0, 73, 107
1, 102937, Note_on_c, 0, 61, 110
1, 102938, Note_on_c, 0, 52, 110
1, 102939, Note_on_c, 0, 67, 110
1, 102939, Note_on_c, 0, 64, 110
1, 102940, Note_on_c, 0, 79, 107
1, 102941, Note_on_c, 0, 55, 110
1, 102942, Note_on_c, 0, 88, 107
1, 102943, Note_on_c, 0, 91, 107
1, 102944, Note_on_c, 0, 73, 107
1, 102945, Note_on_c, 0, 85, 107
1, 102945, Note_on_c, 0, 76, 107
1, 102947, Note_on_c, 0, 79, 107
1, 102947, Note_on_c, 0, 67, 110
1, 102965, Note_on_c, 0, 67, 0
1, 102966, Note_on_c, 0, 79, 0
1, 102972, Note_on_c, 0, 73, 0
1, 103162, Note_on_c, 0, 85, 0
1, 103163, Note_on_c, 0, 76, 0
1, 103167, Note_on_c, 0, 91, 0
1, 103169, Note_on_c, 0, 61, 0
1, 103169, Note_on_c, 0, 64, 0
1, 103171, Note_on_c, 0, 88, 0
1, 103204, Note_on_c, 0, 74, 107
1, 103205, Note_on_c, 0, 62, 110
1, 103206, Note_on_c, 0, 65, 110
1, 103207, Note_on_c, 0, 62, 110
1, 103208, Note_on_c, 0, 53, 110
1, 103210, Note_on_c, 0, 89, 107
1, 103210, Note_on_c, 0, 50, 110
1, 103211, Note_on_c, 0, 77, 107
1, 103212, Note_on_c, 0, 74, 107
1, 103212, Note_on_c, 0, 81, 107
1, 103213, Note_on_c, 0, 81, 0
1, 103213, Note_on_c, 0, 52, 0
1, 103214, Note_on_c, 0, 55, 0
1, 103215, Note_on_c, 0, 86, 107
1, 103215, Note_on_c, 0, 69, 107
1, 103216, Note_on_c, 0, 81, 107
1, 103217, Note_on_c, 0, 62, 0
1, 103217, Note_on_c, 0, 93, 107
1, 103223, Note_on_c, 0, 74, 0
1, 103278, Note_on_c, 0, 67, 0
1, 103279, Note_on_c, 0, 73, 0
1, 103280, Note_on_c, 0, 79, 0
1, 103338, Note_on_c, 0, 67, 110
1, 103339, Note_on_c, 0, 55, 110
1, 103341, Note_on_c, 0, 65, 0
1, 103368, Note_on_c, 0, 53, 0
1, 103396, Note_on_c, 0, 69, 0
1, 103469, Note_on_c, 0, 67, 0
1, 103473, Note_on_c, 0, 93, 0
1, 103473, Note_on_c, 0, 69, 107
1, 103474, Note_on_c, 0, 57, 110
1, 103476, Note_on_c, 0, 86, 0
1, 103476, Note_on_c, 0, 81, 107
1, 103477, Note_on_c, 0, 77, 0
1, 103477, Note_on_c, 0, 89, 0
1, 103485, Note_on_c, 0, 50, 0
1, 103490, Note_on_c, 0, 55, 0
1, 103497, Note_on_c, 0, 81, 0
1, 103536, Note_on_c, 0, 86, 107
1, 103536, Note_on_c, 0, 74, 107
1, 103540, Note_on_c, 0, 74, 0
1, 103580, Note_on_c, 0, 62, 0
1, 103607, Note_on_c, 0, 89, 107
1, 103608, Note_on_c, 0, 77, 107
1, 103637, Note_on_c, 0, 86, 0
1, 103646, Note_on_c, 0, 74, 0
1, 103720, Note_on_c, 0, 57, 110
1, 103721, Note_on_c, 0, 45, 115
1, 103722, Note_on_c, 0, 73, 107
1, 103722, Note_on_c, 0, 85, 107
1, 103723, Note_on_c, 0, 79, 107
1, 103723, Note_on_c, 0, 88, 107
1, 103724, Note_on_c, 0, 67, 110
1, 103725, Note_on_c, 0, 76, 107
1, 103741, Note_on_c, 0, 77, 0
1, 103744, Note_on_c, 0, 89, 0
1, 103802, Note_on_c, 0, 73, 0
1, 103810, Note_on_c, 0, 81, 0
1, 103813, Note_on_c, 0, 76, 0
1, 103814, Note_on_c, 0, 57, 0
1, 103821, Note_on_c, 0, 88, 0
1, 103836, Note_on_c, 0, 86, 107
1, 103836, Note_on_c, 0, 74, 107
1, 103894, Note_on_c, 0, 79, 0
1, 103901, Note_on_c, 0, 85, 0
1, 103927, Note_on_c, 0, 86, 0
1, 103931, Note_on_c, 0, 67, 0
1, 103943, Note_on_c, 0, 45, 0
1, 103949, Note_on_c, 0, 69, 0
1, 103973, Note_on_c, 0, 69, 114
1, 103973, Note_on_c, 0, 62, 117
1, 103996, Note_on_c, 0, 74, 0
1, 104076, Note_on_c, 0, 50, 117
1, 104192, Note_on_c, 0, 54, 117
1, 104209, Note_on_c, 0, 57, 0
1, 104307, Note_on_c, 0, 57, 117
1, 104308, Note_on_c, 0, 54, 0
1, 104423, Note_on_c, 0, 66, 117
1, 104424, Note_on_c, 0, 60, 117
1, 104446, Note_on_c, 0, 50, 0
1, 104449, Note_on_c, 0, 57, 0
1, 104515, Note_on_c, 0, 63, 117
1, 104538, Note_on_c, 0, 60, 0
1, 104549, Note_on_c, 0, 62, 0
1, 104550, Note_on_c, 0, 69, 0
1, 104610, Note_on_c, 0, 63, 0
1, 104615, Note_on_c, 0, 62, 117
1, 104727, Note_on_c, 0, 60, 117
1, 104732, Note_on_c, 0, 62, 0
1, 104759, Note_on_c, 0, 66, 0
1, 104841, Note_on_c, 0, 67, 117
1, 104843, Note_on_c, 0, 60, 0
1, 104844, Note_on_c, 0, 62, 117
1, 104844, Note_on_c, 0, 58, 117
1, 105019, Note_on_c, 0, 74, 107
1, 105161, Note_on_c, 0, 79, 107
1, 105228, Note_on_c, 0, 74, 0
1, 105289, Note_on_c, 0, 79, 0
1, 105297, Note_on_c, 0, 82, 107
1, 105441, Note_on_c, 0, 62, 0
1, 105444, Note_on_c, 0, 58, 0
1, 105448, Note_on_c, 0, 67, 0
1, 105460, Note_on_c, 0, 62, 87
1, 105461, Note_on_c, 0, 50, 87
1, 105462, Note_on_c, 0, 55, 87
1, 105463, Note_on_c, 0, 79, 85
1, 105463, Note_on_c, 0, 70, 85
1, 105464, Note_on_c, 0, 67, 87
1, 105465, Note_on_c, 0, 74, 85
1, 105465, Note_on_c, 0, 58, 87
1, 105466, Note_on_c, 0, 76, 85
1, 105466, Note_on_c, 0, 86, 85
1, 105467, Note_on_c, 0, 67, 87
1, 105468, Note_on_c, 0, 64, 87
1, 105490, Note_on_c, 0, 82, 0
1, 105526, Note_on_c, 0, 67, 0
1, 105768, Note_on_c, 0, 86, 0
1, 105771, Note_on_c, 0, 74, 0
1, 105810, Note_on_c, 0, 85, 107
1, 105811, Note_on_c, 0, 73, 107
1, 105881, Note_on_c, 0, 62, 0
1, 105882, Note_on_c, 0, 70, 0
1, 105884, Note_on_c, 0, 50, 0
1, 105885, Note_on_c, 0, 55, 0
1, 105886, Note_on_c, 0, 64, 0
1, 105887, Note_on_c, 0, 76, 0
1, 105888, Note_on_c, 0, 58, 0
1, 105889, Note_on_c, 0, 79, 0
1, 106083, Note_on_c, 0, 57, 110
1, 106085, Note_on_c, 0, 60, 110
1, 106087, Note_on_c, 0, 66, 110
1, 106088, Note_on_c, 0, 63, 110
1, 106102, Note_on_c, 0, 85, 0
1, 106104, Note_on_c, 0, 73, 0
1, 106206, Note_on_c, 0, 72, 107
1, 106212, Note_on_c, 0, 67, 0
1, 106269, Note_on_c, 0, 72, 0
1, 106286, Note_on_c, 0, 71, 107
1, 106363, Note_on_c, 0, 71, 0
1, 106371, Note_on_c, 0, 72, 107
1, 106450, Note_on_c, 0, 78, 107
1, 106464, Note_on_c, 0, 72, 0
1, 106512, Note_on_c, 0, 78, 0
1, 106521, Note_on_c, 0, 81, 107
1, 106607, Note_on_c, 0, 57, 0
1, 106608, Note_on_c, 0, 60, 0
1, 106608, Note_on_c, 0, 63, 0
1, 106609, Note_on_c, 0, 66, 0
1, 106647, Note_on_c, 0, 71, 85
1, 106648, Note_on_c, 0, 56, 87
1, 106649, Note_on_c, 0, 65, 87
1, 106649, Note_on_c, 0, 59, 87
1, 106650, Note_on_c, 0, 68, 85
1, 106651, Note_on_c, 0, 84, 85
1, 106652, Note_on_c, 0, 77, 85
1, 106652, Note_on_c, 0, 62, 87
1, 106653, Note_on_c, 0, 72, 85
1, 106653, Note_on_c, 0, 53, 87
1, 106654, Note_on_c, 0, 74, 85
1, 106654, Note_on_c, 0, 62, 87
1, 106655, Note_on_c, 0, 50, 87
1, 106656, Note_on_c, 0, 65, 87
1, 106658, Note_on_c, 0, 81, 0
1, 106921, Note_on_c, 0, 72, 0
1, 106933, Note_on_c, 0, 84, 0
1, 106983, Note_on_c, 0, 71, 107
1, 106984, Note_on_c, 0, 83, 107
1, 107015, Note_on_c, 0, 71, 0
1, 107117, Note_on_c, 0, 59, 0
1, 107118, Note_on_c, 0, 74, 0
1, 107119, Note_on_c, 0, 77, 0
1, 107123, Note_on_c, 0, 53, 0
1, 107124, Note_on_c, 0, 50, 0
1, 107126, Note_on_c, 0, 56, 0
1, 107127, Note_on_c, 0, 68, 0
1, 107143, Note_on_c, 0, 65, 0
1, 107144, Note_on_c, 0, 62, 0
1, 107217, Note_on_c, 0, 55, 110
1, 107218, Note_on_c, 0, 58, 110
1, 107220, Note_on_c, 0, 64, 110
1, 107221, Note_on_c, 0, 61, 110
1, 107253, Note_on_c, 0, 83, 0
1, 107272, Note_on_c, 0, 71, 0
1, 107333, Note_on_c, 0, 70, 107
1, 107474, Note_on_c, 0, 70, 0
1, 107494, Note_on_c, 0, 73, 107
1, 107557, Note_on_c, 0, 73, 0
1, 107568, Note_on_c, 0, 76, 107
1, 107622, Note_on_c, 0, 76, 0
1, 107638, Note_on_c, 0, 79, 109
1, 107688, Note_on_c, 0, 58, 0
1, 107691, Note_on_c, 0, 55, 0
1, 107692, Note_on_c, 0, 61, 0
1, 107692, Note_on_c, 0, 64, 0
1, 107768, Note_on_c, 0, 66, 89
1, 107769, Note_on_c, 0, 79, 0
1, 107769, Note_on_c, 0, 62, 89
1, 107771, Note_on_c, 0, 50, 89
1, 107772, Note_on_c, 0, 82, 87
1, 107772, Note_on_c, 0, 69, 87
1, 107772, Note_on_c, 0, 54, 89
1, 107774, Note_on_c, 0, 75, 87
1, 107774, Note_on_c, 0, 70, 87
1, 107775, Note_on_c, 0, 63, 89
1, 107776, Note_on_c, 0, 72, 87
1, 107776, Note_on_c, 0, 57, 89
1, 107778, Note_on_c, 0, 60, 89
1, 107868, Note_on_c, 0, 62, 0
1, 108018, Note_on_c, 0, 70, 0
1, 108037, Note_on_c, 0, 69, 107
1, 108038, Note_on_c, 0, 81, 107
1, 108062, Note_on_c, 0, 82, 0
1, 108120, Note_on_c, 0, 69, 0
1, 108167, Note_on_c, 0, 65, 0
1, 108175, Note_on_c, 0, 57, 0
1, 108176, Note_on_c, 0, 72, 0
1, 108179, Note_on_c, 0, 54, 0
1, 108180, Note_on_c, 0, 60, 0
1, 108182, Note_on_c, 0, 63, 0
1, 108183, Note_on_c, 0, 50, 0
1, 108186, Note_on_c, 0, 75, 0
1, 108188, Note_on_c, 0, 66, 0
1, 108277, Note_on_c, 0, 81, 0
1, 108291, Note_on_c, 0, 69, 0
1, 108293, Note_on_c, 0, 57, 110
1, 108294, Note_on_c, 0, 53, 110
1, 108295, Note_on_c, 0, 62, 110
1, 108391, Note_on_c, 0, 69, 107
1, 108492, Note_on_c, 0, 62, 0
1, 108492, Note_on_c, 0, 74, 107
1, 108495, Note_on_c, 0, 69, 0
1, 108573, Note_on_c, 0, 74, 0
1, 108578, Note_on_c, 0, 73, 107
1, 108639, Note_on_c, 0, 73, 0
1, 108653, Note_on_c, 0, 74, 107
1, 108715, Note_on_c, 0, 74, 0
1, 108721, Note_on_c, 0, 76, 107
1, 108789, Note_on_c, 0, 76, 0
1, 108790, Note_on_c, 0, 77, 107
1, 108827, Note_on_c, 0, 62, 0
1, 108828, Note_on_c, 0, 53, 0
1, 108831, Note_on_c, 0, 57, 0
1, 108908, Note_on_c, 0, 68, 95
1, 108909, Note_on_c, 0, 53, 98
1, 108909, Note_on_c, 0, 56, 98
1, 108910, Note_on_c, 0, 81, 95
1, 108911, Note_on_c, 0, 74, 95
1, 108911, Note_on_c, 0, 50, 98
1, 108912, Note_on_c, 0, 69, 95
1, 108912, Note_on_c, 0, 62, 98
1, 108912, Note_on_c, 0, 65, 98
1, 108913, Note_on_c, 0, 71, 95
1, 108913, Note_on_c, 0, 59, 98
1, 108927, Note_on_c, 0, 77, 0
1, 109097, Note_on_c, 0, 69, 0
1, 109156, Note_on_c, 0, 81, 0
1, 109165, Note_on_c, 0, 80, 107
1, 109166, Note_on_c, 0, 68, 107
1, 109269, Note_on_c, 0, 68, 0
1, 109302, Note_on_c, 0, 65, 0
1, 109307, Note_on_c, 0, 56, 0
1, 109307, Note_on_c, 0, 74, 0
1, 109308, Note_on_c, 0, 53, 0
1, 109308, Note_on_c, 0, 50, 0
1, 109308, Note_on_c, 0, 59, 0
1, 109309, Note_on_c, 0, 71, 0
1, 109397, Note_on_c, 0, 68, 0
1, 109438, Note_on_c, 0, 52, 110
1, 109439, Note_on_c, 0, 55, 110
1, 109440, Note_on_c, 0, 58, 110
1, 109443, Note_on_c, 0, 61, 110
1, 109469, Note_on_c, 0, 62, 0
1, 109472, Note_on_c, 0, 80, 0
1, 109567, Note_on_c, 0, 67, 110
1, 109643, Note_on_c, 0, 67, 0
1, 109652, Note_on_c, 0, 69, 107
1, 109704, Note_on_c, 0, 69, 0
1, 109722, Note_on_c, 0, 70, 107
1, 109789, Note_on_c, 0, 70, 0
1, 109790, Note_on_c, 0, 73, 107
1, 109851, Note_on_c, 0, 74, 107
1, 109853, Note_on_c, 0, 73, 0
1, 109910, Note_on_c, 0, 74, 0
1, 109912, Note_on_c, 0, 76, 107
1, 109930, Note_on_c, 0, 52, 0
1, 109932, Note_on_c, 0, 61, 0
1, 109932, Note_on_c, 0, 55, 0
1, 109933, Note_on_c, 0, 58, 0
1, 109970, Note_on_c, 0, 50, 87
1, 109971, Note_on_c, 0, 51, 87
1, 109972, Note_on_c, 0, 79, 85
1, 109972, Note_on_c, 0, 38, 103
1, 109973, Note_on_c, 0, 63, 87
1, 109975, Note_on_c, 0, 69, 85
1, 109976, Note_on_c, 0, 72, 85
1, 109976, Note_on_c, 0, 67, 87
1, 109979, Note_on_c, 0, 57, 87
1, 109980, Note_on_c, 0, 76, 0
1, 109980, Note_on_c, 0, 60, 87
1, 110166, Note_on_c, 0, 67, 0
1, 110171, Note_on_c, 0, 79, 0
1, 110246, Note_on_c, 0, 78, 107
1, 110247, Note_on_c, 0, 66, 110
1, 110350, Note_on_c, 0, 50, 0
1, 110351, Note_on_c, 0, 51, 0
1, 110352, Note_on_c, 0, 57, 0
1, 110353, Note_on_c, 0, 60, 0
1, 110354, Note_on_c, 0, 63, 0
1, 110358, Note_on_c, 0, 72, 0
1, 110359, Note_on_c, 0, 69, 0
1, 110441, Note_on_c, 0, 38, 0
1, 110496, Note_on_c, 0, 66, 0
1, 110499, Note_on_c, 0, 78, 0
1, 110500, Note_on_c, 0, 53, 110
1, 110502, Note_on_c, 0, 50, 110
1, 110503, Note_on_c, 0, 59, 110
1, 110503, Note_on_c, 0, 56, 110
1, 110629, Note_on_c, 0, 74, 111
1, 110702, Note_on_c, 0, 71, 111
1, 110714, Note_on_c, 0, 74, 0
1, 110765, Note_on_c, 0, 68, 111
1, 110776, Note_on_c, 0, 71, 0
1, 110814, Note_on_c, 0, 68, 0
1, 110828, Note_on_c, 0, 69, 111
1, 110891, Note_on_c, 0, 71, 111
1, 110893, Note_on_c, 0, 69, 0
1, 110895, Note_on_c, 0, 56, 0
1, 110896, Note_on_c, 0, 53, 0
1, 110897, Note_on_c, 0, 50, 0
1, 110897, Note_on_c, 0, 59, 0
1, 110994, Note_on_c, 0, 61, 98
1, 110994, Note_on_c, 0, 64, 98
1, 110995, Note_on_c, 0, 49, 98
1, 110996, Note_on_c, 0, 77, 99
1, 110996, Note_on_c, 0, 52, 98
1, 110998, Note_on_c, 0, 50, 98
1, 110998, Note_on_c, 0, 65, 98
1, 110999, Note_on_c, 0, 67, 98
1, 111000, Note_on_c, 0, 71, 0
1, 111000, Note_on_c, 0, 70, 95
1, 111000, Note_on_c, 0, 38, 103
1, 111001, Note_on_c, 0, 58, 98
1, 111002, Note_on_c, 0, 55, 98
1, 111136, Note_on_c, 0, 70, 0
1, 111140, Note_on_c, 0, 65, 0
1, 111144, Note_on_c, 0, 77, 0
1, 111188, Note_on_c, 0, 74, 111
1, 111191, Note_on_c, 0, 62, 110
1, 111344, Note_on_c, 0, 74, 0
1, 111371, Note_on_c, 0, 76, 117
1, 111372, Note_on_c, 0, 64, 110
1, 111404, Note_on_c, 0, 62, 0
1, 111406, Note_on_c, 0, 76, 0
1, 111430, Note_on_c, 0, 62, 110
1, 111431, Note_on_c, 0, 74, 117
1, 111441, Note_on_c, 0, 64, 0
1, 111477, Note_on_c, 0, 74, 0
1, 111492, Note_on_c, 0, 62, 0
1, 111493, Note_on_c, 0, 76, 117
1, 111494, Note_on_c, 0, 64, 110
1, 111500, Note_on_c, 0, 64, 0
1, 111600, Note_on_c, 0, 52, 0
1, 111602, Note_on_c, 0, 50, 0
1, 111603, Note_on_c, 0, 61, 0
1, 111604, Note_on_c, 0, 55, 0
1, 111605, Note_on_c, 0, 67, 0
1, 111606, Note_on_c, 0, 58, 0
1, 111607, Note_on_c, 0, 49, 0
1, 111625, Note_on_c, 0, 64, 0
1, 111656, Note_on_c, 0, 51, 98
1, 111657, Note_on_c, 0, 54, 98
1, 111657, Note_on_c, 0, 57, 98
1, 111658, Note_on_c, 0, 48, 103
1, 111700, Note_on_c, 0, 76, 0
1, 111702, Note_on_c, 0, 38, 0
1, 111714, Note_on_c, 0, 75, 111
1, 111775, Note_on_c, 0, 75, 0
1, 111780, Note_on_c, 0, 72, 111
1, 111848, Note_on_c, 0, 72, 0
1, 111849, Note_on_c, 0, 69, 111
1, 111917, Note_on_c, 0, 69, 0
1, 111918, Note_on_c, 0, 66, 110
1, 111993, Note_on_c, 0, 66, 0
1, 111996, Note_on_c, 0, 69, 111
1, 112073, Note_on_c, 0, 63, 110
1, 112102, Note_on_c, 0, 69, 0
1, 112147, Note_on_c, 0, 57, 0
1, 112147, Note_on_c, 0, 48, 0
1, 112148, Note_on_c, 0, 51, 0
1, 112149, Note_on_c, 0, 54, 0
1, 112233, Note_on_c, 0, 63, 0
1, 112240, Note_on_c, 0, 50, 98
1, 112241, Note_on_c, 0, 38, 103
1, 112242, Note_on_c, 0, 50, 98
1, 112242, Note_on_c, 0, 62, 98
1, 112243, Note_on_c, 0, 59, 98
1, 112244, Note_on_c, 0, 53, 98
1, 112244, Note_on_c, 0, 47, 103
1, 112245, Note_on_c, 0, 65, 98
1, 112247, Note_on_c, 0, 68, 95
1, 112247, Note_on_c, 0, 75, 95
1, 112248, Note_on_c, 0, 56, 98
1, 112248, Note_on_c, 0, 63, 98
1, 112334, Note_on_c, 0, 50, 0
1, 112443, Note_on_c, 0, 75, 0
1, 112484, Note_on_c, 0, 63, 0
1, 112513, Note_on_c, 0, 74, 116
1, 112514, Note_on_c, 0, 62, 110
1, 112516, Note_on_c, 0, 62, 0
1, 112709, Note_on_c, 0, 56, 0
1, 112710, Note_on_c, 0, 38, 0
1, 112711, Note_on_c, 0, 47, 0
1, 112711, Note_on_c, 0, 53, 0
1, 112712, Note_on_c, 0, 65, 0
1, 112712, Note_on_c, 0, 59, 0
1, 112713, Note_on_c, 0, 68, 0
1, 112776, Note_on_c, 0, 55, 110
1, 112776, Note_on_c, 0, 46, 115
1, 112777, Note_on_c, 0, 50, 110
1, 112791, Note_on_c, 0, 50, 0
1, 112814, Note_on_c, 0, 74, 0
1, 112854, Note_on_c, 0, 62, 0
1, 112907, Note_on_c, 0, 62, 110
1, 112987, Note_on_c, 0, 64, 110
1, 112997, Note_on_c, 0, 62, 0
1, 113070, Note_on_c, 0, 64, 0
1, 113071, Note_on_c, 0, 66, 110
1, 113133, Note_on_c, 0, 67, 110
1, 113136, Note_on_c, 0, 66, 0
1, 113198, Note_on_c, 0, 69, 107
1, 113200, Note_on_c, 0, 67, 0
1, 113248, Note_on_c, 0, 70, 107
1, 113253, Note_on_c, 0, 69, 0
1, 113305, Note_on_c, 0, 70, 0
1, 113307, Note_on_c, 0, 69, 107
1, 113361, Note_on_c, 0, 67, 110
1, 113366, Note_on_c, 0, 69, 0
1, 113415, Note_on_c, 0, 67, 0
1, 113421, Note_on_c, 0, 65, 110
1, 113513, Note_on_c, 0, 55, 0
1, 113514, Note_on_c, 0, 46, 0
1, 113526, Note_on_c, 0, 64, 110
1, 113541, Note_on_c, 0, 65, 0
1, 113617, Note_on_c, 0, 64, 0
1, 113620, Note_on_c, 0, 65, 110
1, 113645, Note_on_c, 0, 50, 0
1, 113682, Note_on_c, 0, 67, 110
1, 113683, Note_on_c, 0, 65, 0
1, 113684, Note_on_c, 0, 79, 79
1, 113754, Note_on_c, 0, 67, 0
1, 113772, Note_on_c, 0, 79, 0
1, 113782, Note_on_c, 0, 55, 87
1, 113783, Note_on_c, 0, 64, 87
1, 113784, Note_on_c, 0, 52, 87
1, 113785, Note_on_c, 0, 67, 87
1, 113785, Note_on_c, 0, 58, 87
1, 113787, Note_on_c, 0, 50, 87
1, 113787, Note_on_c, 0, 46, 92
1, 113788, Note_on_c, 0, 74, 85
1, 113788, Note_on_c, 0, 38, 92
1, 113789, Note_on_c, 0, 62, 87
1, 114106, Note_on_c, 0, 62, 0
1, 114161, Note_on_c, 0, 73, 107
1, 114162, Note_on_c, 0, 61, 110
1, 114175, Note_on_c, 0, 74, 0
1, 114553, Note_on_c, 0, 61, 0
1, 114565, Note_on_c, 0, 62, 110
1, 114636, Note_on_c, 0, 73, 0
1, 114709, Note_on_c, 0, 61, 110
1, 114710, Note_on_c, 0, 62, 0
1, 114850, Note_on_c, 0, 61, 0
1, 114850, Note_on_c, 0, 62, 110
1, 114949, Note_on_c, 0, 61, 110
1, 114960, Note_on_c, 0, 62, 0
1, 115041, Note_on_c, 0, 62, 110
1, 115043, Note_on_c, 0, 61, 0
1, 115106, Note_on_c, 0, 61, 110
1, 115107, Note_on_c, 0, 62, 0
1, 115168, Note_on_c, 0, 61, 0
1, 115177, Note_on_c, 0, 62, 110
1, 115259, Note_on_c, 0, 61, 110
1, 115260, Note_on_c, 0, 62, 0
1, 115272, Note_on_c, 0, 46, 0
1, 115273, Note_on_c, 0, 64, 0
1, 115274, Note_on_c, 0, 38, 0
1, 115275, Note_on_c, 0, 67, 0
1, 115275, Note_on_c, 0, 52, 0
1, 115276, Note_on_c, 0, 58, 0
1, 115276, Note_on_c, 0, 55, 0
1, 115277, Note_on_c, 0, 50, 0
1, 115323, Note_on_c, 0, 61, 0
1, 115324, Note_on_c, 0, 62, 110
1, 115403, Note_on_c, 0, 62, 0
1, 115403, Note_on_c, 0, 61, 110
1, 115502, Note_on_c, 0, 59, 110
1, 115513, Note_on_c, 0, 61, 0
1, 115640, Note_on_c, 0, 61, 110
1, 115652, Note_on_c, 0, 59, 0
1, 115848, Note_on_c, 0, 61, 0
1, 115857, Note_on_c, 0, 62, 98
1, 115858, Note_on_c, 0, 54, 98
1, 115859, Note_on_c, 0, 38, 103
1, 115862, Note_on_c, 0, 69, 95
1, 115862, Note_on_c, 0, 66, 98
1, 115865, Note_on_c, 0, 74, 95
1, 115865, Note_on_c, 0, 57, 70
1, 115866, Note_on_c, 0, 45, 103
1, 115906, Note_on_c, 0, 57, 0
1, 115910, Note_on_c, 0, 57, 70
1, 115911, Note_on_c, 0, 50, 110
1, 115987, Note_on_c, 0, 45, 0
1, 115992, Note_on_c, 0, 57, 0
1, 116011, Note_on_c, 0, 45, 115
1, 116013, Note_on_c, 0, 57, 110
1, 116016, Note_on_c, 0, 50, 0
1, 116029, Note_on_c, 0, 50, 110
1, 116077, Note_on_c, 0, 62, 0
1, 116087, Note_on_c, 0, 62, 110
1, 116134, Note_on_c, 0, 54, 0
1, 116142, Note_on_c, 0, 66, 0
1, 116150, Note_on_c, 0, 66, 110
1, 116151, Note_on_c, 0, 54, 110
1, 116181, Note_on_c, 0, 57, 0
1, 116194, Note_on_c, 0, 69, 0
1, 116206, Note_on_c, 0, 69, 107
1, 116207, Note_on_c, 0, 57, 110
1, 116233, Note_on_c, 0, 74, 0
1, 116245, Note_on_c, 0, 62, 0
1, 116256, Note_on_c, 0, 74, 107
1, 116257, Note_on_c, 0, 62, 110
1, 116281, Note_on_c, 0, 57, 0
1, 116285, Note_on_c, 0, 69, 0
1, 116303, Note_on_c, 0, 69, 107
1, 116303, Note_on_c, 0, 57, 110
1, 116323, Note_on_c, 0, 66, 0
1, 116334, Note_on_c, 0, 54, 0
1, 116350, Note_on_c, 0, 66, 110
1, 116350, Note_on_c, 0, 54, 110
1, 116378, Note_on_c, 0, 62, 0
1, 116381, Note_on_c, 0, 50, 0
1, 116392, Note_on_c, 0, 62, 110
1, 116394, Note_on_c, 0, 45, 0
1, 116395, Note_on_c, 0, 50, 110
1, 116414, Note_on_c, 0, 38, 0
1, 116415, Note_on_c, 0, 57, 0
1, 116438, Note_on_c, 0, 57, 110
1, 116439, Note_on_c, 0, 45, 115
1, 116470, Note_on_c, 0, 50, 0
1, 116488, Note_on_c, 0, 38, 115
1, 116490, Note_on_c, 0, 50, 110
1, 116530, Note_on_c, 0, 45, 0
1, 116540, Note_on_c, 0, 57, 0
1, 116548, Note_on_c, 0, 57, 110
1, 116550, Note_on_c, 0, 45, 115
1, 116592, Note_on_c, 0, 50, 0
1, 116594, Note_on_c, 0, 62, 0
1, 116611, Note_on_c, 0, 50, 110
1, 116612, Note_on_c, 0, 62, 110
1, 116666, Note_on_c, 0, 54, 0
1, 116691, Note_on_c, 0, 66, 110
1, 116692, Note_on_c, 0, 54, 110
1, 116791, Note_on_c, 0, 66, 0
1, 116816, Note_on_c, 0, 57, 0
1, 116823, Note_on_c, 0, 69, 0
1, 116829, Note_on_c, 0, 57, 110
1, 116830, Note_on_c, 0, 69, 107
1, 116865, Note_on_c, 0, 54, 0
1, 116930, Note_on_c, 0, 66, 0
1, 116952, Note_on_c, 0, 62, 0
1, 116981, Note_on_c, 0, 45, 0
1, 116983, Note_on_c, 0, 38, 0
1, 116996, Note_on_c, 0, 74, 0
1, 117001, Note_on_c, 0, 74, 115
1, 117002, Note_on_c, 0, 62, 110
1, 117016, Note_on_c, 0, 50, 0
1, 117109, Note_on_c, 0, 69, 0
1, 117388, Note_on_c, 0, 62, 0
1, 117388, Note_on_c, 0, 57, 0
1, 117805, Note_on_c, 0, 74, 0
1, 118244, Note_on_c, 0, 69, 107
1, 118496, Note_on_c, 0, 69, 0
1, 118514, Note_on_c, 0, 70, 107
1, 118755, Note_on_c, 0, 70, 0
1, 118778, Note_on_c, 0, 71, 107
1, 119020, Note_on_c, 0, 71, 0
1, 119040, Note_on_c, 0, 72, 107
1, 119271, Note_on_c, 0, 72, 0
1, 119300, Note_on_c, 0, 72, 107
1, 119432, Note_on_c, 0, 71, 107
1, 119449, Note_on_c, 0, 72, 0
1, 119571, Note_on_c, 0, 72, 107
1, 119580, Note_on_c, 0, 71, 0
1, 119826, Note_on_c, 0, 72, 0
1, 119833, Note_on_c, 0, 64, 110
1, 120099, Note_on_c, 0, 64, 0
1, 120102, Note_on_c, 0, 65, 110
1, 120351, Note_on_c, 0, 65, 0
1, 120356, Note_on_c, 0, 66, 110
1, 120612, Note_on_c, 0, 66, 0
1, 120618, Note_on_c, 0, 67, 110
1, 120881, Note_on_c, 0, 67, 0
1, 120884, Note_on_c, 0, 67, 110
1, 121008, Note_on_c, 0, 66, 110
1, 121022, Note_on_c, 0, 67, 0
1, 121145, Note_on_c, 0, 67, 110
1, 121152, Note_on_c, 0, 66, 0
1, 121278, Note_on_c, 0, 69, 107
1, 121285, Note_on_c, 0, 67, 0
1, 121388, Note_on_c, 0, 69, 0
1, 121407, Note_on_c, 0, 70, 107
1, 121635, Note_on_c, 0, 70, 0
1, 121667, Note_on_c, 0, 69, 107
1, 121918, Note_on_c, 0, 69, 0
1, 121921, Note_on_c, 0, 67, 110
1, 122176, Note_on_c, 0, 67, 0
1, 122184, Note_on_c, 0, 65, 110
1, 122453, Note_on_c, 0, 65, 0
1, 122455, Note_on_c, 0, 67, 110
1, 122594, Note_on_c, 0, 65, 110
1, 122608, Note_on_c, 0, 67, 0
1, 122720, Note_on_c, 0, 64, 110
1, 122731, Note_on_c, 0, 65, 0
1, 122852, Note_on_c, 0, 62, 110
1, 122857, Note_on_c, 0, 64, 0
1, 122984, Note_on_c, 0, 64, 110
1, 122992, Note_on_c, 0, 62, 0
1, 123244, Note_on_c, 0, 64, 0
1, 123251, Note_on_c, 0, 57, 110
1, 123499, Note_on_c, 0, 57, 0
1, 123510, Note_on_c, 0, 61, 110
1, 123772, Note_on_c, 0, 61, 0
1, 123778, Note_on_c, 0, 62, 110
1, 123906, Note_on_c, 0, 62, 0
1, 123913, Note_on_c, 0, 62, 110
1, 123980, Note_on_c, 0, 62, 0
1, 123983, Note_on_c, 0, 64, 110
1, 124047, Note_on_c, 0, 64, 0
1, 124052, Note_on_c, 0, 65, 110
1, 124180, Note_on_c, 0, 65, 0
1, 124186, Note_on_c, 0, 65, 110
1, 124247, Note_on_c, 0, 65, 0
1, 124252, Note_on_c, 0, 67, 110
1, 124314, Note_on_c, 0, 67, 0
1, 124320, Note_on_c, 0, 69, 107
1, 124447, Note_on_c, 0, 69, 0
1, 124452, Note_on_c, 0, 69, 107
1, 124510, Note_on_c, 0, 69, 0
1, 124518, Note_on_c, 0, 71, 107
1, 124581, Note_on_c, 0, 71, 0
1, 124587, Note_on_c, 0, 72, 107
1, 124588, Note_on_c, 0, 62, 110
1, 124779, Note_on_c, 0, 62, 0
1, 124792, Note_on_c, 0, 64, 110
1, 124858, Note_on_c, 0, 64, 0
1, 124859, Note_on_c, 0, 65, 110
1, 125128, Note_on_c, 0, 66, 110
1, 125143, Note_on_c, 0, 65, 0
1, 125357, Note_on_c, 0, 66, 0
1, 125393, Note_on_c, 0, 67, 110
1, 125526, Note_on_c, 0, 69, 107
1, 125553, Note_on_c, 0, 67, 0
1, 125590, Note_on_c, 0, 69, 0
1, 125593, Note_on_c, 0, 70, 107
1, 125645, Note_on_c, 0, 72, 0
1, 125662, Note_on_c, 0, 72, 107
1, 125662, Note_on_c, 0, 67, 110
1, 125665, Note_on_c, 0, 70, 0
1, 125772, Note_on_c, 0, 67, 0
1, 125787, Note_on_c, 0, 72, 0
1, 125793, Note_on_c, 0, 72, 107
1, 125794, Note_on_c, 0, 66, 110
1, 125857, Note_on_c, 0, 72, 0
1, 125861, Note_on_c, 0, 74, 107
1, 125913, Note_on_c, 0, 66, 0
1, 125928, Note_on_c, 0, 74, 0
1, 125928, Note_on_c, 0, 76, 107
1, 125929, Note_on_c, 0, 67, 110
1, 126060, Note_on_c, 0, 76, 0
1, 126065, Note_on_c, 0, 76, 107
1, 126123, Note_on_c, 0, 76, 0
1, 126133, Note_on_c, 0, 77, 107
1, 126163, Note_on_c, 0, 67, 0
1, 126192, Note_on_c, 0, 77, 0
1, 126199, Note_on_c, 0, 79, 107
1, 126200, Note_on_c, 0, 59, 110
1, 126433, Note_on_c, 0, 59, 0
1, 126474, Note_on_c, 0, 60, 110
1, 126697, Note_on_c, 0, 60, 0
1, 126735, Note_on_c, 0, 61, 110
1, 126960, Note_on_c, 0, 61, 0
1, 127001, Note_on_c, 0, 62, 110
1, 127136, Note_on_c, 0, 81, 107
1, 127190, Note_on_c, 0, 79, 0
1, 127204, Note_on_c, 0, 79, 107
1, 127219, Note_on_c, 0, 81, 0
1, 127236, Note_on_c, 0, 62, 0
1, 127272, Note_on_c, 0, 62, 110
1, 127273, Note_on_c, 0, 77, 107
1, 127280, Note_on_c, 0, 79, 0
1, 127381, Note_on_c, 0, 77, 0
1, 127385, Note_on_c, 0, 62, 0
1, 127403, Note_on_c, 0, 77, 107
1, 127404, Note_on_c, 0, 61, 110
1, 127471, Note_on_c, 0, 76, 107
1, 127476, Note_on_c, 0, 77, 0
1, 127517, Note_on_c, 0, 61, 0
1, 127540, Note_on_c, 0, 62, 110
1, 127542, Note_on_c, 0, 74, 107
1, 127546, Note_on_c, 0, 76, 0
1, 127660, Note_on_c, 0, 74, 0
1, 127660, Note_on_c, 0, 62, 0
1, 127675, Note_on_c, 0, 72, 107
1, 127676, Note_on_c, 0, 64, 110
1, 127749, Note_on_c, 0, 71, 107
1, 127754, Note_on_c, 0, 72, 0
1, 127813, Note_on_c, 0, 81, 107
1, 127814, Note_on_c, 0, 65, 110
1, 127815, Note_on_c, 0, 64, 0
1, 127836, Note_on_c, 0, 71, 0
1, 127841, Note_on_c, 0, 81, 0
1, 127845, Note_on_c, 0, 80, 107
1, 127880, Note_on_c, 0, 80, 0
1, 127882, Note_on_c, 0, 81, 107
1, 127907, Note_on_c, 0, 81, 0
1, 127915, Note_on_c, 0, 80, 107
1, 127948, Note_on_c, 0, 80, 0
1, 127952, Note_on_c, 0, 81, 107
1, 127977, Note_on_c, 0, 81, 0
1, 127988, Note_on_c, 0, 80, 107
1, 128011, Note_on_c, 0, 80, 0
1, 128017, Note_on_c, 0, 81, 107
1, 128050, Note_on_c, 0, 81, 0
1, 128052, Note_on_c, 0, 80, 107
1, 128081, Note_on_c, 0, 80, 0
1, 128086, Note_on_c, 0, 64, 110
1, 128087, Note_on_c, 0, 81, 107
1, 128100, Note_on_c, 0, 65, 0
1, 128119, Note_on_c, 0, 81, 0
1, 128123, Note_on_c, 0, 80, 107
1, 128147, Note_on_c, 0, 80, 0
1, 128156, Note_on_c, 0, 81, 107
1, 128179, Note_on_c, 0, 81, 0
1, 128185, Note_on_c, 0, 80, 107
1, 128219, Note_on_c, 0, 80, 0
1, 128220, Note_on_c, 0, 81, 107
1, 128245, Note_on_c, 0, 81, 0
1, 128251, Note_on_c, 0, 80, 107
1, 128278, Note_on_c, 0, 80, 0
1, 128286, Note_on_c, 0, 81, 107
1, 128314, Note_on_c, 0, 81, 0
1, 128319, Note_on_c, 0, 80, 107
1, 128347, Note_on_c, 0, 80, 0
1, 128353, Note_on_c, 0, 81, 107
1, 128353, Note_on_c, 0, 62, 110
1, 128364, Note_on_c, 0, 64, 0
1, 128386, Note_on_c, 0, 81, 0
1, 128388, Note_on_c, 0, 80, 107
1, 128417, Note_on_c, 0, 80, 0
1, 128420, Note_on_c, 0, 81, 107
1, 128450, Note_on_c, 0, 81, 0
1, 128456, Note_on_c, 0, 80, 107
1, 128487, Note_on_c, 0, 80, 0
1, 128492, Note_on_c, 0, 78, 107
1, 128554, Note_on_c, 0, 78, 0
1, 128559, Note_on_c, 0, 80, 107
1, 128627, Note_on_c, 0, 80, 0
1, 128628, Note_on_c, 0, 81, 107
1, 128629, Note_on_c, 0, 60, 110
1, 128639, Note_on_c, 0, 62, 0
1, 128903, Note_on_c, 0, 62, 110
1, 128913, Note_on_c, 0, 60, 0
1, 129017, Note_on_c, 0, 62, 0
1, 129038, Note_on_c, 0, 60, 110
1, 129161, Note_on_c, 0, 60, 0
1, 129174, Note_on_c, 0, 59, 110
1, 129288, Note_on_c, 0, 59, 0
1, 129307, Note_on_c, 0, 57, 110
1, 129414, Note_on_c, 0, 57, 0
1, 129436, Note_on_c, 0, 59, 110
1, 129574, Note_on_c, 0, 83, 107
1, 129623, Note_on_c, 0, 81, 0
1, 129643, Note_on_c, 0, 81, 107
1, 129653, Note_on_c, 0, 83, 0
1, 129696, Note_on_c, 0, 81, 0
1, 129710, Note_on_c, 0, 80, 107
1, 129712, Note_on_c, 0, 52, 110
1, 129722, Note_on_c, 0, 59, 0
1, 129826, Note_on_c, 0, 80, 0
1, 129847, Note_on_c, 0, 80, 107
1, 129916, Note_on_c, 0, 78, 107
1, 129922, Note_on_c, 0, 80, 0
1, 129983, Note_on_c, 0, 76, 107
1, 129985, Note_on_c, 0, 56, 110
1, 129992, Note_on_c, 0, 78, 0
1, 129994, Note_on_c, 0, 52, 0
1, 130104, Note_on_c, 0, 76, 0
1, 130121, Note_on_c, 0, 76, 107
1, 130188, Note_on_c, 0, 74, 107
1, 130196, Note_on_c, 0, 76, 0
1, 130217, Note_on_c, 0, 56, 0
1, 130254, Note_on_c, 0, 72, 107
1, 130255, Note_on_c, 0, 57, 110
1, 130259, Note_on_c, 0, 74, 0
1, 130366, Note_on_c, 0, 57, 0
1, 130368, Note_on_c, 0, 72, 0
1, 130391, Note_on_c, 0, 57, 110
1, 130392, Note_on_c, 0, 64, 110
1, 130456, Note_on_c, 0, 59, 110
1, 130466, Note_on_c, 0, 57, 0
1, 130512, Note_on_c, 0, 64, 0
1, 130529, Note_on_c, 0, 69, 107
1, 130530, Note_on_c, 0, 60, 110
1, 130537, Note_on_c, 0, 59, 0
1, 130644, Note_on_c, 0, 69, 0
1, 130647, Note_on_c, 0, 60, 0
1, 130664, Note_on_c, 0, 69, 107
1, 130665, Note_on_c, 0, 60, 110
1, 130730, Note_on_c, 0, 71, 107
1, 130733, Note_on_c, 0, 62, 110
1, 130738, Note_on_c, 0, 69, 0
1, 130740, Note_on_c, 0, 60, 0
1, 130799, Note_on_c, 0, 64, 110
1, 130800, Note_on_c, 0, 72, 107
1, 130806, Note_on_c, 0, 62, 0
1, 130810, Note_on_c, 0, 71, 0
1, 130918, Note_on_c, 0, 64, 0
1, 130936, Note_on_c, 0, 64, 110
1, 131003, Note_on_c, 0, 64, 0
1, 131004, Note_on_c, 0, 66, 110
1, 131071, Note_on_c, 0, 66, 0
1, 131073, Note_on_c, 0, 67, 110
1, 131116, Note_on_c, 0, 72, 0
1, 131142, Note_on_c, 0, 70, 107
1, 131204, Note_on_c, 0, 70, 0
1, 131206, Note_on_c, 0, 69, 107
1, 131263, Note_on_c, 0, 69, 0
1, 131267, Note_on_c, 0, 70, 107
1, 131328, Note_on_c, 0, 70, 0
1, 131329, Note_on_c, 0, 72, 107
1, 131386, Note_on_c, 0, 72, 0
1, 131392, Note_on_c, 0, 74, 107
1, 131448, Note_on_c, 0, 74, 0
1, 131452, Note_on_c, 0, 75, 107
1, 131514, Note_on_c, 0, 75, 0
1, 131520, Note_on_c, 0, 74, 107
1, 131584, Note_on_c, 0, 72, 107
1, 131591, Note_on_c, 0, 74, 0
1, 131646, Note_on_c, 0, 70, 107
1, 131654, Note_on_c, 0, 72, 0
1, 131707, Note_on_c, 0, 72, 107
1, 131711, Note_on_c, 0, 70, 0
1, 131769, Note_on_c, 0, 69, 107
1, 131776, Note_on_c, 0, 72, 0
1, 131831, Note_on_c, 0, 69, 0
1, 131836, Note_on_c, 0, 70, 107
1, 131969, Note_on_c, 0, 62, 110
1, 131970, Note_on_c, 0, 70, 0
1, 131970, Note_on_c, 0, 55, 110
1, 132028, Note_on_c, 0, 55, 0
1, 132034, Note_on_c, 0, 57, 110
1, 132081, Note_on_c, 0, 62, 0
1, 132085, Note_on_c, 0, 67, 0
1, 132100, Note_on_c, 0, 57, 0
1, 132102, Note_on_c, 0, 67, 110
1, 132103, Note_on_c, 0, 58, 110
1, 132201, Note_on_c, 0, 67, 0
1, 132221, Note_on_c, 0, 58, 0
1, 132237, Note_on_c, 0, 67, 110
1, 132238, Note_on_c, 0, 58, 110
1, 132299, Note_on_c, 0, 67, 0
1, 132304, Note_on_c, 0, 69, 107
1, 132305, Note_on_c, 0, 60, 110
1, 132310, Note_on_c, 0, 58, 0
1, 132365, Note_on_c, 0, 69, 0
1, 132366, Note_on_c, 0, 60, 0
1, 132371, Note_on_c, 0, 70, 107
1, 132371, Note_on_c, 0, 62, 110
1, 132486, Note_on_c, 0, 62, 0
1, 132492, Note_on_c, 0, 70, 0
1, 132502, Note_on_c, 0, 72, 107
1, 132504, Note_on_c, 0, 62, 110
1, 132557, Note_on_c, 0, 62, 0
1, 132561, Note_on_c, 0, 72, 0
1, 132565, Note_on_c, 0, 64, 110
1, 132566, Note_on_c, 0, 70, 107
1, 132628, Note_on_c, 0, 64, 0
1, 132629, Note_on_c, 0, 70, 0
1, 132633, Note_on_c, 0, 65, 98
1, 132634, Note_on_c, 0, 77, 95
1, 132635, Note_on_c, 0, 69, 95
1, 132636, Note_on_c, 0, 69, 95
1, 132636, Note_on_c, 0, 81, 95
1, 132636, Note_on_c, 0, 57, 98
1, 132675, Note_on_c, 0, 69, 0
1, 132743, Note_on_c, 0, 81, 0
1, 132767, Note_on_c, 0, 70, 107
1, 132768, Note_on_c, 0, 82, 107
1, 132831, Note_on_c, 0, 82, 0
1, 132836, Note_on_c, 0, 72, 107
1, 132837, Note_on_c, 0, 84, 107
1, 132844, Note_on_c, 0, 70, 0
1, 132863, Note_on_c, 0, 57, 0
1, 132899, Note_on_c, 0, 84, 0
1, 132900, Note_on_c, 0, 72, 0
1, 132903, Note_on_c, 0, 58, 110
1, 132905, Note_on_c, 0, 70, 107
1, 132906, Note_on_c, 0, 86, 107
1, 132907, Note_on_c, 0, 74, 107
1, 132963, Note_on_c, 0, 74, 0
1, 132966, Note_on_c, 0, 86, 0
1, 132967, Note_on_c, 0, 75, 107
1, 132969, Note_on_c, 0, 87, 107
1, 133015, Note_on_c, 0, 69, 0
1, 133025, Note_on_c, 0, 87, 0
1, 133029, Note_on_c, 0, 75, 0
1, 133031, Note_on_c, 0, 86, 107
1, 133032, Note_on_c, 0, 74, 107
1, 133094, Note_on_c, 0, 70, 0
1, 133095, Note_on_c, 0, 74, 0
1, 133099, Note_on_c, 0, 72, 107
1, 133100, Note_on_c, 0, 84, 107
1, 133103, Note_on_c, 0, 86, 0
1, 133128, Note_on_c, 0, 58, 0
1, 133161, Note_on_c, 0, 72, 0
1, 133166, Note_on_c, 0, 86, 107
1, 133167, Note_on_c, 0, 59, 110
1, 133168, Note_on_c, 0, 71, 107
1, 133169, Note_on_c, 0, 74, 107
1, 133170, Note_on_c, 0, 84, 0
1, 133228, Note_on_c, 0, 71, 107
1, 133229, Note_on_c, 0, 83, 107
1, 133232, Note_on_c, 0, 86, 0
1, 133243, Note_on_c, 0, 71, 0
1, 133246, Note_on_c, 0, 74, 0
1, 133292, Note_on_c, 0, 83, 0
1, 133295, Note_on_c, 0, 72, 107
1, 133296, Note_on_c, 0, 84, 107
1, 133356, Note_on_c, 0, 84, 0
1, 133357, Note_on_c, 0, 72, 0
1, 133358, Note_on_c, 0, 74, 107
1, 133359, Note_on_c, 0, 86, 107
1, 133388, Note_on_c, 0, 59, 0
1, 133404, Note_on_c, 0, 71, 0
1, 133421, Note_on_c, 0, 86, 0
1, 133425, Note_on_c, 0, 74, 0
1, 133428, Note_on_c, 0, 79, 91
1, 133428, Note_on_c, 0, 60, 110
1, 133429, Note_on_c, 0, 72, 91
1, 133430, Note_on_c, 0, 67, 110
1, 133564, Note_on_c, 0, 74, 107
1, 133565, Note_on_c, 0, 62, 110
1, 133592, Note_on_c, 0, 79, 0
1, 133594, Note_on_c, 0, 72, 0
1, 133623, Note_on_c, 0, 60, 0
1, 133624, Note_on_c, 0, 67, 0
1, 133629, Note_on_c, 0, 74, 0
1, 133633, Note_on_c, 0, 76, 107
1, 133634, Note_on_c, 0, 64, 110
1, 133641, Note_on_c, 0, 62, 0
1, 133681, Note_on_c, 0, 65, 0
1, 133682, Note_on_c, 0, 77, 0
1, 133690, Note_on_c, 0, 76, 0
1, 133697, Note_on_c, 0, 60, 110
1, 133698, Note_on_c, 0, 72, 107
1, 133699, Note_on_c, 0, 65, 110
1, 133700, Note_on_c, 0, 77, 107
1, 133701, Note_on_c, 0, 64, 0
1, 133811, Note_on_c, 0, 65, 0
1, 133812, Note_on_c, 0, 77, 0
1, 133813, Note_on_c, 0, 72, 0
1, 133816, Note_on_c, 0, 60, 0
1, 133833, Note_on_c, 0, 59, 110
1, 133834, Note_on_c, 0, 77, 107
1, 133835, Note_on_c, 0, 71, 107
1, 133836, Note_on_c, 0, 65, 110
1, 133891, Note_on_c, 0, 65, 0
1, 133894, Note_on_c, 0, 77, 0
1, 133899, Note_on_c, 0, 67, 110
1, 133902, Note_on_c, 0, 79, 107
1, 133929, Note_on_c, 0, 71, 0
1, 133945, Note_on_c, 0, 59, 0
1, 133958, Note_on_c, 0, 79, 0
1, 133962, Note_on_c, 0, 67, 0
1, 133963, Note_on_c, 0, 60, 110
1, 133964, Note_on_c, 0, 69, 107
1, 133966, Note_on_c, 0, 81, 107
1, 133967, Note_on_c, 0, 72, 107
1, 134077, Note_on_c, 0, 81, 0
1, 134083, Note_on_c, 0, 69, 0
1, 134098, Note_on_c, 0, 81, 107
1, 134099, Note_on_c, 0, 69, 107
1, 134159, Note_on_c, 0, 72, 0
1, 134160, Note_on_c, 0, 81, 0
1, 134161, Note_on_c, 0, 69, 0
1, 134165, Note_on_c, 0, 71, 107
1, 134166, Note_on_c, 0, 83, 107
1, 134221, Note_on_c, 0, 83, 0
1, 134225, Note_on_c, 0, 71, 0
1, 134227, Note_on_c, 0, 72, 107
1, 134230, Note_on_c, 0, 84, 107
1, 134231, Note_on_c, 0, 52, 110
1, 134233, Note_on_c, 0, 64, 110
1, 134245, Note_on_c, 0, 60, 0
1, 134296, Note_on_c, 0, 79, 107
1, 134296, Note_on_c, 0, 67, 110
1, 134363, Note_on_c, 0, 67, 0
1, 134364, Note_on_c, 0, 79, 0
1, 134366, Note_on_c, 0, 81, 107
1, 134366, Note_on_c, 0, 69, 107
1, 134424, Note_on_c, 0, 69, 0
1, 134425, Note_on_c, 0, 81, 0
1, 134429, Note_on_c, 0, 82, 107
1, 134430, Note_on_c, 0, 70, 107
1, 134464, Note_on_c, 0, 52, 0
1, 134493, Note_on_c, 0, 70, 0
1, 134496, Note_on_c, 0, 82, 0
1, 134498, Note_on_c, 0, 65, 110
1, 134499, Note_on_c, 0, 81, 107
1, 134499, Note_on_c, 0, 53, 110
1, 134500, Note_on_c, 0, 69, 107
1, 134508, Note_on_c, 0, 64, 0
1, 134556, Note_on_c, 0, 69, 0
1, 134561, Note_on_c, 0, 81, 0
1, 134566, Note_on_c, 0, 70, 107
1, 134566, Note_on_c, 0, 82, 107
1, 134620, Note_on_c, 0, 82, 0
1, 134623, Note_on_c, 0, 70, 0
1, 134629, Note_on_c, 0, 81, 107
1, 134629, Note_on_c, 0, 69, 107
1, 134688, Note_on_c, 0, 69, 0
1, 134690, Note_on_c, 0, 81, 0
1, 134693, Note_on_c, 0, 67, 110
1, 134694, Note_on_c, 0, 79, 107
1, 134724, Note_on_c, 0, 65, 0
1, 134753, Note_on_c, 0, 79, 0
1, 134757, Note_on_c, 0, 67, 0
1, 134760, Note_on_c, 0, 81, 107
1, 134760, Note_on_c, 0, 54, 110
1, 134763, Note_on_c, 0, 69, 107
1, 134764, Note_on_c, 0, 66, 110
1, 134765, Note_on_c, 0, 53, 0
1, 134822, Note_on_c, 0, 81, 0
1, 134828, Note_on_c, 0, 78, 107
1, 134828, Note_on_c, 0, 66, 110
1, 134829, Note_on_c, 0, 69, 0
1, 134881, Note_on_c, 0, 66, 0
1, 134883, Note_on_c, 0, 78, 0
1, 134888, Note_on_c, 0, 67, 110
1, 134889, Note_on_c, 0, 79, 107
1, 134918, Note_on_c, 0, 66, 0
1, 134944, Note_on_c, 0, 79, 0
1, 134947, Note_on_c, 0, 67, 0
1, 134950, Note_on_c, 0, 69, 107
1, 134952, Note_on_c, 0, 81, 107
1, 135016, Note_on_c, 0, 62, 110
1, 135017, Note_on_c, 0, 74, 107
1, 135018, Note_on_c, 0, 67, 110
1, 135020, Note_on_c, 0, 81, 0
1, 135022, Note_on_c, 0, 55, 110
1, 135024, Note_on_c, 0, 69, 0
1, 135029, Note_on_c, 0, 54, 0
1, 135153, Note_on_c, 0, 74, 107
1, 135154, Note_on_c, 0, 86, 107
1, 135175, Note_on_c, 0, 74, 0
1, 135197, Note_on_c, 0, 84, 0
1, 135216, Note_on_c, 0, 72, 107
1, 135217, Note_on_c, 0, 84, 107
1, 135251, Note_on_c, 0, 67, 0
1, 135252, Note_on_c, 0, 74, 0
1, 135253, Note_on_c, 0, 72, 0
1, 135260, Note_on_c, 0, 86, 0
1, 135271, Note_on_c, 0, 55, 0
1, 135277, Note_on_c, 0, 84, 0
1, 135283, Note_on_c, 0, 67, 110
1, 135285, Note_on_c, 0, 74, 107
1, 135285, Note_on_c, 0, 70, 107
1, 135288, Note_on_c, 0, 86, 107
1, 135288, Note_on_c, 0, 82, 107
1, 135288, Note_on_c, 0, 55, 110
1, 135294, Note_on_c, 0, 72, 0
1, 135300, Note_on_c, 0, 62, 0
1, 135397, Note_on_c, 0, 82, 0
1, 135398, Note_on_c, 0, 70, 0
1, 135402, Note_on_c, 0, 67, 0
1, 135414, Note_on_c, 0, 82, 107
1, 135415, Note_on_c, 0, 70, 107
1, 135416, Note_on_c, 0, 66, 110
1, 135417, Note_on_c, 0, 55, 0
1, 135418, Note_on_c, 0, 54, 110
1, 135480, Note_on_c, 0, 82, 0
1, 135480, Note_on_c, 0, 81, 107
1, 135484, Note_on_c, 0, 69, 107
1, 135489, Note_on_c, 0, 70, 0
1, 135528, Note_on_c, 0, 66, 0
1, 135543, Note_on_c, 0, 81, 0
1, 135549, Note_on_c, 0, 54, 0
1, 135549, Note_on_c, 0, 79, 107
1, 135550, Note_on_c, 0, 67, 110
1, 135551, Note_on_c, 0, 55, 110
1, 135551, Note_on_c, 0, 67, 110
1, 135552, Note_on_c, 0, 69, 0
1, 135559, Note_on_c, 0, 67, 0
1, 135634, Note_on_c, 0, 74, 0
1, 135684, Note_on_c, 0, 69, 107
1, 135686, Note_on_c, 0, 65, 110
1, 135687, Note_on_c, 0, 57, 110
1, 135689, Note_on_c, 0, 79, 0
1, 135689, Note_on_c, 0, 77, 107
1, 135707, Note_on_c, 0, 86, 0
1, 135713, Note_on_c, 0, 55, 0
1, 135746, Note_on_c, 0, 77, 0
1, 135752, Note_on_c, 0, 64, 110
1, 135753, Note_on_c, 0, 76, 107
1, 135755, Note_on_c, 0, 65, 0
1, 135764, Note_on_c, 0, 67, 0
1, 135800, Note_on_c, 0, 69, 0
1, 135815, Note_on_c, 0, 76, 0
1, 135816, Note_on_c, 0, 58, 110
1, 135817, Note_on_c, 0, 74, 95
1, 135818, Note_on_c, 0, 88, 107
1, 135819, Note_on_c, 0, 70, 107
1, 135820, Note_on_c, 0, 76, 107
1, 135820, Note_on_c, 0, 86, 95
1, 135826, Note_on_c, 0, 64, 0
1, 135827, Note_on_c, 0, 57, 0
1, 135850, Note_on_c, 0, 86, 0
1, 135851, Note_on_c, 0, 74, 0
1, 135855, Note_on_c, 0, 85, 95
1, 135856, Note_on_c, 0, 73, 95
1, 135878, Note_on_c, 0, 73, 0
1, 135880, Note_on_c, 0, 85, 0
1, 135888, Note_on_c, 0, 74, 95
1, 135888, Note_on_c, 0, 86, 95
1, 135916, Note_on_c, 0, 86, 0
1, 135918, Note_on_c, 0, 74, 0
1, 135922, Note_on_c, 0, 73, 95
1, 135923, Note_on_c, 0, 85, 95
1, 135946, Note_on_c, 0, 85, 0
1, 135950, Note_on_c, 0, 73, 0
1, 135957, Note_on_c, 0, 86, 95
1, 135958, Note_on_c, 0, 74, 95
1, 135981, Note_on_c, 0, 74, 0
1, 135985, Note_on_c, 0, 86, 0
1, 135989, Note_on_c, 0, 73, 95
1, 135990, Note_on_c, 0, 85, 95
1, 136017, Note_on_c, 0, 73, 0
1, 136018, Note_on_c, 0, 85, 0
1, 136023, Note_on_c, 0, 74, 95
1, 136025, Note_on_c, 0, 86, 95
1, 136050, Note_on_c, 0, 86, 0
1, 136053, Note_on_c, 0, 74, 0
1, 136056, Note_on_c, 0, 70, 0
1, 136056, Note_on_c, 0, 85, 95
1, 136057, Note_on_c, 0, 73, 95
1, 136086, Note_on_c, 0, 73, 0
1, 136089, Note_on_c, 0, 85, 0
1, 136090, Note_on_c, 0, 69, 107
1, 136092, Note_on_c, 0, 86, 95
1, 136094, Note_on_c, 0, 74, 95
1, 136094, Note_on_c, 0, 57, 110
1, 136102, Note_on_c, 0, 58, 0
1, 136121, Note_on_c, 0, 74, 0
1, 136124, Note_on_c, 0, 86, 0
1, 136126, Note_on_c, 0, 85, 95
1, 136127, Note_on_c, 0, 73, 95
1, 136152, Note_on_c, 0, 85, 0
1, 136154, Note_on_c, 0, 73, 0
1, 136158, Note_on_c, 0, 74, 95
1, 136160, Note_on_c, 0, 86, 95
1, 136187, Note_on_c, 0, 86, 0
1, 136188, Note_on_c, 0, 74, 0
1, 136194, Note_on_c, 0, 85, 95
1, 136195, Note_on_c, 0, 73, 95
1, 136220, Note_on_c, 0, 73, 0
1, 136222, Note_on_c, 0, 85, 0
1, 136224, Note_on_c, 0, 74, 95
1, 136225, Note_on_c, 0, 86, 95
1, 136250, Note_on_c, 0, 74, 0
1, 136253, Note_on_c, 0, 86, 0
1, 136259, Note_on_c, 0, 85, 95
1, 136259, Note_on_c, 0, 73, 95
1, 136284, Note_on_c, 0, 73, 0
1, 136288, Note_on_c, 0, 85, 0
1, 136292, Note_on_c, 0, 86, 95
1, 136293, Note_on_c, 0, 74, 95
1, 136317, Note_on_c, 0, 74, 0
1, 136320, Note_on_c, 0, 86, 0
1, 136323, Note_on_c, 0, 73, 95
1, 136324, Note_on_c, 0, 85, 95
1, 136343, Note_on_c, 0, 76, 0
1, 136349, Note_on_c, 0, 88, 0
1, 136350, Note_on_c, 0, 73, 0
1, 136351, Note_on_c, 0, 85, 0
1, 136359, Note_on_c, 0, 67, 110
1, 136360, Note_on_c, 0, 86, 95
1, 136360, Note_on_c, 0, 55, 110
1, 136362, Note_on_c, 0, 74, 95
1, 136364, Note_on_c, 0, 57, 0
1, 136368, Note_on_c, 0, 69, 0
1, 136382, Note_on_c, 0, 74, 0
1, 136386, Note_on_c, 0, 86, 0
1, 136390, Note_on_c, 0, 73, 107
1, 136391, Note_on_c, 0, 85, 95
1, 136416, Note_on_c, 0, 85, 0
1, 136419, Note_on_c, 0, 73, 0
1, 136423, Note_on_c, 0, 86, 95
1, 136424, Note_on_c, 0, 74, 107
1, 136450, Note_on_c, 0, 74, 0
1, 136451, Note_on_c, 0, 86, 0
1, 136457, Note_on_c, 0, 85, 95
1, 136458, Note_on_c, 0, 73, 107
1, 136484, Note_on_c, 0, 73, 0
1, 136486, Note_on_c, 0, 85, 0
1, 136490, Note_on_c, 0, 71, 107
1, 136491, Note_on_c, 0, 83, 107
1, 136550, Note_on_c, 0, 83, 0
1, 136555, Note_on_c, 0, 73, 107
1, 136556, Note_on_c, 0, 85, 107
1, 136562, Note_on_c, 0, 71, 0
1, 136614, Note_on_c, 0, 85, 0
1, 136617, Note_on_c, 0, 73, 0
1, 136620, Note_on_c, 0, 77, 107
1, 136621, Note_on_c, 0, 65, 110
1, 136621, Note_on_c, 0, 53, 110
1, 136622, Note_on_c, 0, 89, 99
1, 136623, Note_on_c, 0, 86, 107
1, 136623, Note_on_c, 0, 74, 107
1, 136631, Note_on_c, 0, 67, 0
1, 136632, Note_on_c, 0, 55, 0
1, 136677, Note_on_c, 0, 89, 0
1, 136679, Note_on_c, 0, 77, 0
1, 136685, Note_on_c, 0, 81, 107
1, 136685, Note_on_c, 0, 93, 99
1, 136741, Note_on_c, 0, 93, 0
1, 136744, Note_on_c, 0, 81, 0
1, 136746, Note_on_c, 0, 79, 107
1, 136747, Note_on_c, 0, 91, 99
1, 136810, Note_on_c, 0, 91, 0
1, 136811, Note_on_c, 0, 79, 0
1, 136812, Note_on_c, 0, 89, 99
1, 136812, Note_on_c, 0, 77, 107
1, 136868, Note_on_c, 0, 89, 0
1, 136869, Note_on_c, 0, 77, 0
1, 136876, Note_on_c, 0, 76, 107
1, 136877, Note_on_c, 0, 67, 110
1, 136878, Note_on_c, 0, 88, 107
1, 136878, Note_on_c, 0, 55, 110
1, 136882, Note_on_c, 0, 53, 0
1, 136885, Note_on_c, 0, 65, 0
1, 136938, Note_on_c, 0, 88, 0
1, 136942, Note_on_c, 0, 76, 0
1, 136943, Note_on_c, 0, 77, 107
1, 136944, Note_on_c, 0, 89, 107
1, 136988, Note_on_c, 0, 67, 0
1, 136999, Note_on_c, 0, 89, 0
1, 137004, Note_on_c, 0, 77, 0
1, 137007, Note_on_c, 0, 76, 107
1, 137009, Note_on_c, 0, 55, 0
1, 137009, Note_on_c, 0, 65, 110
1, 137010, Note_on_c, 0, 88, 95
1, 137011, Note_on_c, 0, 53, 110
1, 137061, Note_on_c, 0, 88, 0
1, 137062, Note_on_c, 0, 76, 0
1, 137068, Note_on_c, 0, 77, 107
1, 137068, Note_on_c, 0, 89, 85
1, 137111, Note_on_c, 0, 65, 0
1, 137123, Note_on_c, 0, 74, 0
1, 137125, Note_on_c, 0, 86, 0
1, 137127, Note_on_c, 0, 77, 0
1, 137129, Note_on_c, 0, 89, 0
1, 137133, Note_on_c, 0, 53, 0
1, 137134, Note_on_c, 0, 64, 110
1, 137134, Note_on_c, 0, 52, 110
1, 137135, Note_on_c, 0, 79, 107
1, 137135, Note_on_c, 0, 91, 79
1, 137158, Note_on_c, 0, 79, 0
1, 137160, Note_on_c, 0, 91, 0
1, 137162, Note_on_c, 0, 89, 79
1, 137164, Note_on_c, 0, 77, 107
1, 137191, Note_on_c, 0, 89, 0
1, 137192, Note_on_c, 0, 77, 0
1, 137195, Note_on_c, 0, 79, 107
1, 137196, Note_on_c, 0, 91, 79
1, 137223, Note_on_c, 0, 91, 0
1, 137226, Note_on_c, 0, 79, 0
1, 137228, Note_on_c, 0, 77, 107
1, 137229, Note_on_c, 0, 89, 79
1, 137240, Note_on_c, 0, 64, 0
1, 137255, Note_on_c, 0, 77, 0
1, 137257, Note_on_c, 0, 89, 0
1, 137262, Note_on_c, 0, 91, 79
1, 137263, Note_on_c, 0, 50, 110
1, 137265, Note_on_c, 0, 52, 0
1, 137266, Note_on_c, 0, 79, 107
1, 137266, Note_on_c, 0, 62, 110
1, 137288, Note_on_c, 0, 79, 0
1, 137292, Note_on_c, 0, 91, 0
1, 137293, Note_on_c, 0, 89, 79
1, 137294, Note_on_c, 0, 77, 107
1, 137322, Note_on_c, 0, 77, 0
1, 137325, Note_on_c, 0, 89, 0
1, 137330, Note_on_c, 0, 76, 107
1, 137330, Note_on_c, 0, 88, 88
1, 137353, Note_on_c, 0, 88, 0
1, 137358, Note_on_c, 0, 76, 0
1, 137364, Note_on_c, 0, 77, 107
1, 137364, Note_on_c, 0, 89, 85
1, 137372, Note_on_c, 0, 62, 0
1, 137386, Note_on_c, 0, 77, 0
1, 137388, Note_on_c, 0, 89, 0
1, 137395, Note_on_c, 0, 52, 110
1, 137396, Note_on_c, 0, 79, 107
1, 137397, Note_on_c, 0, 91, 85
1, 137399, Note_on_c, 0, 64, 110
1, 137402, Note_on_c, 0, 50, 0
1, 137531, Note_on_c, 0, 76, 107
1, 137532, Note_on_c, 0, 88, 107
1, 137564, Note_on_c, 0, 79, 0
1, 137566, Note_on_c, 0, 91, 0
1, 137595, Note_on_c, 0, 76, 0
1, 137597, Note_on_c, 0, 88, 0
1, 137603, Note_on_c, 0, 86, 107
1, 137604, Note_on_c, 0, 74, 107
1, 137629, Note_on_c, 0, 64, 0
1, 137659, Note_on_c, 0, 74, 0
1, 137662, Note_on_c, 0, 86, 0
1, 137669, Note_on_c, 0, 85, 107
1, 137669, Note_on_c, 0, 57, 110
1, 137670, Note_on_c, 0, 45, 115
1, 137672, Note_on_c, 0, 73, 107
1, 137737, Note_on_c, 0, 52, 0
1, 137788, Note_on_c, 0, 85, 0
1, 137789, Note_on_c, 0, 73, 0
1, 137805, Note_on_c, 0, 85, 107
1, 137806, Note_on_c, 0, 76, 107
1, 137808, Note_on_c, 0, 73, 107
1, 137809, Note_on_c, 0, 88, 107
1, 137868, Note_on_c, 0, 73, 0
1, 137873, Note_on_c, 0, 85, 0
1, 137874, Note_on_c, 0, 71, 107
1, 137875, Note_on_c, 0, 83, 107
1, 137938, Note_on_c, 0, 71, 0
1, 137939, Note_on_c, 0, 83, 0
1, 137941, Note_on_c, 0, 69, 107
1, 137942, Note_on_c, 0, 61, 110
1, 137943, Note_on_c, 0, 49, 110
1, 137944, Note_on_c, 0, 81, 107
1, 137952, Note_on_c, 0, 57, 0
1, 137954, Note_on_c, 0, 45, 0
1, 138059, Note_on_c, 0, 81, 0
1, 138061, Note_on_c, 0, 69, 0
1, 138082, Note_on_c, 0, 81, 107
1, 138082, Note_on_c, 0, 69, 107
1, 138139, Note_on_c, 0, 69, 0
1, 138145, Note_on_c, 0, 81, 0
1, 138146, Note_on_c, 0, 67, 110
1, 138147, Note_on_c, 0, 79, 107
1, 138175, Note_on_c, 0, 76, 0
1, 138175, Note_on_c, 0, 88, 0
1, 138215, Note_on_c, 0, 50, 110
1, 138216, Note_on_c, 0, 65, 110
1, 138217, Note_on_c, 0, 67, 0
1, 138218, Note_on_c, 0, 79, 0
1, 138218, Note_on_c, 0, 77, 107
1, 138219, Note_on_c, 0, 62, 110
1, 138229, Note_on_c, 0, 49, 0
1, 138230, Note_on_c, 0, 61, 0
1, 138349, Note_on_c, 0, 77, 107
1, 138350, Note_on_c, 0, 89, 107
1, 138407, Note_on_c, 0, 89, 0
1, 138409, Note_on_c, 0, 62, 0
1, 138411, Note_on_c, 0, 76, 107
1, 138413, Note_on_c, 0, 88, 107
1, 138445, Note_on_c, 0, 50, 0
1, 138478, Note_on_c, 0, 88, 0
1, 138480, Note_on_c, 0, 76, 0
1, 138481, Note_on_c, 0, 74, 107
1, 138481, Note_on_c, 0, 38, 115
1, 138482, Note_on_c, 0, 86, 107
1, 138483, Note_on_c, 0, 50, 110
1, 138493, Note_on_c, 0, 77, 0
1, 138602, Note_on_c, 0, 86, 0
1, 138603, Note_on_c, 0, 74, 0
1, 138617, Note_on_c, 0, 86, 107
1, 138618, Note_on_c, 0, 74, 107
1, 138677, Note_on_c, 0, 86, 0
1, 138678, Note_on_c, 0, 74, 0
1, 138684, Note_on_c, 0, 84, 107
1, 138684, Note_on_c, 0, 72, 107
1, 138717, Note_on_c, 0, 50, 0
1, 138734, Note_on_c, 0, 65, 0
1, 138744, Note_on_c, 0, 84, 0
1, 138747, Note_on_c, 0, 72, 0
1, 138751, Note_on_c, 0, 50, 110
1, 138752, Note_on_c, 0, 62, 110
1, 138753, Note_on_c, 0, 70, 107
1, 138754, Note_on_c, 0, 82, 107
1, 138761, Note_on_c, 0, 38, 0
1, 138863, Note_on_c, 0, 70, 0
1, 138864, Note_on_c, 0, 82, 0
1, 138883, Note_on_c, 0, 70, 107
1, 138886, Note_on_c, 0, 82, 107
1, 138927, Note_on_c, 0, 77, 0
1, 138947, Note_on_c, 0, 82, 0
1, 138951, Note_on_c, 0, 70, 0
1, 138952, Note_on_c, 0, 69, 107
1, 138953, Note_on_c, 0, 81, 107
1, 138972, Note_on_c, 0, 50, 0
1, 138975, Note_on_c, 0, 62, 0
1, 139015, Note_on_c, 0, 69, 0
1, 139016, Note_on_c, 0, 81, 0
1, 139019, Note_on_c, 0, 52, 110
1, 139020, Note_on_c, 0, 79, 114
1, 139021, Note_on_c, 0, 67, 110
1, 139022, Note_on_c, 0, 64, 110
1, 139152, Note_on_c, 0, 67, 110
1, 139154, Note_on_c, 0, 59, 110
1, 139155, Note_on_c, 0, 71, 114
1, 139156, Note_on_c, 0, 52, 0
1, 139157, Note_on_c, 0, 55, 110
1, 139181, Note_on_c, 0, 64, 0
1, 139217, Note_on_c, 0, 55, 0
1, 139221, Note_on_c, 0, 53, 110
1, 139222, Note_on_c, 0, 65, 110
1, 139230, Note_on_c, 0, 67, 0
1, 139269, Note_on_c, 0, 59, 0
1, 139287, Note_on_c, 0, 53, 0
1, 139289, Note_on_c, 0, 71, 0
1, 139289, Note_on_c, 0, 72, 114
1, 139290, Note_on_c, 0, 64, 110
1, 139291, Note_on_c, 0, 52, 110
1, 139292, Note_on_c, 0, 60, 110
1, 139297, Note_on_c, 0, 65, 0
1, 139384, Note_on_c, 0, 67, 0
1, 139403, Note_on_c, 0, 60, 0
1, 139407, Note_on_c, 0, 52, 0
1, 139410, Note_on_c, 0, 64, 0
1, 139423, Note_on_c, 0, 74, 114
1, 139424, Note_on_c, 0, 72, 0
1, 139425, Note_on_c, 0, 52, 110
1, 139426, Note_on_c, 0, 64, 110
1, 139426, Note_on_c, 0, 62, 110
1, 139449, Note_on_c, 0, 79, 0
1, 139487, Note_on_c, 0, 52, 0
1, 139491, Note_on_c, 0, 50, 110
1, 139492, Note_on_c, 0, 64, 0
1, 139492, Note_on_c, 0, 62, 110
1, 139518, Note_on_c, 0, 62, 0
1, 139549, Note_on_c, 0, 50, 0
1, 139550, Note_on_c, 0, 62, 0
1, 139555, Note_on_c, 0, 76, 107
1, 139558, Note_on_c, 0, 60, 110
1, 139559, Note_on_c, 0, 64, 110
1, 139560, Note_on_c, 0, 74, 0
1, 139560, Note_on_c, 0, 48, 115
1, 139672, Note_on_c, 0, 48, 0
1, 139675, Note_on_c, 0, 60, 0
1, 139691, Note_on_c, 0, 79, 107
1, 139692, Note_on_c, 0, 67, 110
1, 139693, Note_on_c, 0, 60, 110
1, 139693, Note_on_c, 0, 48, 115
1, 139754, Note_on_c, 0, 64, 0
1, 139755, Note_on_c, 0, 48, 0
1, 139756, Note_on_c, 0, 76, 0
1, 139757, Note_on_c, 0, 60, 0
1, 139758, Note_on_c, 0, 58, 110
1, 139760, Note_on_c, 0, 46, 115
1, 139823, Note_on_c, 0, 58, 0
1, 139828, Note_on_c, 0, 46, 0
1, 139829, Note_on_c, 0, 72, 107
1, 139830, Note_on_c, 0, 67, 0
1, 139831, Note_on_c, 0, 84, 107
1, 139832, Note_on_c, 0, 57, 110
1, 139832, Note_on_c, 0, 45, 115
1, 139835, Note_on_c, 0, 79, 0
1, 139942, Note_on_c, 0, 57, 0
1, 139944, Note_on_c, 0, 45, 0
1, 139962, Note_on_c, 0, 72, 107
1, 139965, Note_on_c, 0, 76, 107
1, 139966, Note_on_c, 0, 64, 110
1, 139968, Note_on_c, 0, 60, 110
1, 140025, Note_on_c, 0, 60, 0
1, 140034, Note_on_c, 0, 70, 107
1, 140034, Note_on_c, 0, 58, 110
1, 140040, Note_on_c, 0, 72, 0
1, 140081, Note_on_c, 0, 64, 0
1, 140082, Note_on_c, 0, 76, 0
1, 140096, Note_on_c, 0, 58, 0
1, 140101, Note_on_c, 0, 69, 107
1, 140101, Note_on_c, 0, 77, 107
1, 140102, Note_on_c, 0, 65, 110
1, 140103, Note_on_c, 0, 57, 110
1, 140109, Note_on_c, 0, 70, 0
1, 140212, Note_on_c, 0, 57, 0
1, 140213, Note_on_c, 0, 77, 0
1, 140216, Note_on_c, 0, 69, 0
1, 140233, Note_on_c, 0, 69, 107
1, 140234, Note_on_c, 0, 79, 107
1, 140235, Note_on_c, 0, 67, 110
1, 140235, Note_on_c, 0, 57, 110
1, 140238, Note_on_c, 0, 65, 0
1, 140296, Note_on_c, 0, 57, 0
1, 140300, Note_on_c, 0, 55, 110
1, 140301, Note_on_c, 0, 67, 110
1, 140304, Note_on_c, 0, 69, 0
1, 140348, Note_on_c, 0, 67, 0
1, 140350, Note_on_c, 0, 79, 0
1, 140352, Note_on_c, 0, 84, 0
1, 140358, Note_on_c, 0, 72, 0
1, 140364, Note_on_c, 0, 55, 0
1, 140366, Note_on_c, 0, 81, 107
1, 140367, Note_on_c, 0, 69, 107
1, 140368, Note_on_c, 0, 53, 110
1, 140370, Note_on_c, 0, 65, 110
1, 140373, Note_on_c, 0, 67, 0
1, 140478, Note_on_c, 0, 65, 0
1, 140479, Note_on_c, 0, 53, 0
1, 140503, Note_on_c, 0, 72, 107
1, 140504, Note_on_c, 0, 84, 107
1, 140505, Note_on_c, 0, 65, 110
1, 140506, Note_on_c, 0, 53, 110
1, 140563, Note_on_c, 0, 65, 0
1, 140567, Note_on_c, 0, 53, 0
1, 140568, Note_on_c, 0, 69, 0
1, 140570, Note_on_c, 0, 64, 110
1, 140571, Note_on_c, 0, 52, 110
1, 140605, Note_on_c, 0, 81, 0
1, 140638, Note_on_c, 0, 52, 0
1, 140639, Note_on_c, 0, 64, 0
1, 140640, Note_on_c, 0, 89, 107
1, 140641, Note_on_c, 0, 77, 107
1, 140641, Note_on_c, 0, 50, 110
1, 140642, Note_on_c, 0, 62, 110
1, 140643, Note_on_c, 0, 72, 0
1, 140644, Note_on_c, 0, 84, 0
1, 140751, Note_on_c, 0, 62, 0
1, 140752, Note_on_c, 0, 50, 0
1, 140774, Note_on_c, 0, 81, 107
1, 140774, Note_on_c, 0, 69, 107
1, 140775, Note_on_c, 0, 65, 110
1, 140775, Note_on_c, 0, 53, 110
1, 140830, Note_on_c, 0, 53, 0
1, 140832, Note_on_c, 0, 65, 0
1, 140839, Note_on_c, 0, 52, 110
1, 140840, Note_on_c, 0, 64, 110
1, 140879, Note_on_c, 0, 69, 0
1, 140881, Note_on_c, 0, 81, 0
1, 140900, Note_on_c, 0, 82, 107
1, 140902, Note_on_c, 0, 70, 107
1, 140903, Note_on_c, 0, 64, 0
1, 140903, Note_on_c, 0, 62, 110
1, 140904, Note_on_c, 0, 52, 0
1, 140904, Note_on_c, 0, 50, 110
1, 141018, Note_on_c, 0, 50, 0
1, 141020, Note_on_c, 0, 62, 0
1, 141023, Note_on_c, 0, 70, 0
1, 141024, Note_on_c, 0, 82, 0
1, 141036, Note_on_c, 0, 50, 110
1, 141037, Note_on_c, 0, 72, 107
1, 141038, Note_on_c, 0, 84, 107
1, 141039, Note_on_c, 0, 62, 110
1, 141064, Note_on_c, 0, 77, 0
1, 141067, Note_on_c, 0, 89, 0
1, 141098, Note_on_c, 0, 62, 0
1, 141102, Note_on_c, 0, 50, 0
1, 141105, Note_on_c, 0, 60, 110
1, 141106, Note_on_c, 0, 48, 115
1, 141153, Note_on_c, 0, 72, 0
1, 141156, Note_on_c, 0, 84, 0
1, 141171, Note_on_c, 0, 86, 107
1, 141172, Note_on_c, 0, 74, 107
1, 141172, Note_on_c, 0, 58, 110
1, 141173, Note_on_c, 0, 46, 115
1, 141179, Note_on_c, 0, 60, 0
1, 141180, Note_on_c, 0, 48, 0
1, 141287, Note_on_c, 0, 46, 0
1, 141288, Note_on_c, 0, 58, 0
1, 141309, Note_on_c, 0, 46, 115
1, 141310, Note_on_c, 0, 77, 107
1, 141311, Note_on_c, 0, 89, 107
1, 141312, Note_on_c, 0, 58, 110
1, 141370, Note_on_c, 0, 58, 0
1, 141373, Note_on_c, 0, 74, 0
1, 141373, Note_on_c, 0, 86, 0
1, 141375, Note_on_c, 0, 46, 0
1, 141379, Note_on_c, 0, 45, 115
1, 141380, Note_on_c, 0, 57, 110
1, 141446, Note_on_c, 0, 94, 107
1, 141447, Note_on_c, 0, 82, 107
1, 141448, Note_on_c, 0, 55, 110
1, 141449, Note_on_c, 0, 43, 115
1, 141454, Note_on_c, 0, 57, 0
1, 141456, Note_on_c, 0, 45, 0
1, 141477, Note_on_c, 0, 77, 0
1, 141478, Note_on_c, 0, 89, 0
1, 141564, Note_on_c, 0, 43, 0
1, 141566, Note_on_c, 0, 55, 0
1, 141580, Note_on_c, 0, 74, 107
1, 141581, Note_on_c, 0, 86, 107
1, 141583, Note_on_c, 0, 58, 110
1, 141584, Note_on_c, 0, 70, 107
1, 141636, Note_on_c, 0, 70, 0
1, 141639, Note_on_c, 0, 58, 0
1, 141646, Note_on_c, 0, 57, 110
1, 141647, Note_on_c, 0, 69, 107
1, 141686, Note_on_c, 0, 86, 0
1, 141689, Note_on_c, 0, 74, 0
1, 141703, Note_on_c, 0, 69, 0
1, 141708, Note_on_c, 0, 57, 0
1, 141711, Note_on_c, 0, 76, 107
1, 141712, Note_on_c, 0, 88, 107
1, 141713, Note_on_c, 0, 55, 110
1, 141715, Note_on_c, 0, 67, 110
1, 141828, Note_on_c, 0, 67, 0
1, 141828, Note_on_c, 0, 55, 0
1, 141833, Note_on_c, 0, 88, 0
1, 141834, Note_on_c, 0, 76, 0
1, 141844, Note_on_c, 0, 89, 107
1, 141845, Note_on_c, 0, 77, 107
1, 141847, Note_on_c, 0, 55, 110
1, 141847, Note_on_c, 0, 67, 110
1, 141905, Note_on_c, 0, 55, 0
1, 141907, Note_on_c, 0, 67, 0
1, 141912, Note_on_c, 0, 65, 110
1, 141913, Note_on_c, 0, 53, 110
1, 141960, Note_on_c, 0, 77, 0
1, 141963, Note_on_c, 0, 89, 0
1, 141970, Note_on_c, 0, 65, 0
1, 141972, Note_on_c, 0, 53, 0
1, 141978, Note_on_c, 0, 64, 110
1, 141979, Note_on_c, 0, 91, 107
1, 141979, Note_on_c, 0, 52, 110
1, 141980, Note_on_c, 0, 79, 107
1, 142072, Note_on_c, 0, 82, 0
1, 142075, Note_on_c, 0, 94, 0
1, 142086, Note_on_c, 0, 79, 0
1, 142090, Note_on_c, 0, 52, 0
1, 142093, Note_on_c, 0, 64, 0
1, 142111, Note_on_c, 0, 64, 110
1, 142112, Note_on_c, 0, 52, 110
1, 142113, Note_on_c, 0, 89, 107
1, 142114, Note_on_c, 0, 91, 0
1, 142114, Note_on_c, 0, 77, 107
1, 142178, Note_on_c, 0, 50, 110
1, 142179, Note_on_c, 0, 62, 110
1, 142187, Note_on_c, 0, 64, 0
1, 142189, Note_on_c, 0, 52, 0
1, 142228, Note_on_c, 0, 77, 0
1, 142248, Note_on_c, 0, 76, 107
1, 142248, Note_on_c, 0, 88, 107
1, 142249, Note_on_c, 0, 48, 115
1, 142250, Note_on_c, 0, 60, 110
1, 142251, Note_on_c, 0, 89, 0
1, 142256, Note_on_c, 0, 50, 0
1, 142257, Note_on_c, 0, 62, 0
1, 142382, Note_on_c, 0, 96, 95
1, 142383, Note_on_c, 0, 84, 107
1, 142447, Note_on_c, 0, 82, 107
1, 142449, Note_on_c, 0, 94, 95
1, 142453, Note_on_c, 0, 84, 0
1, 142457, Note_on_c, 0, 96, 0
1, 142478, Note_on_c, 0, 88, 0
1, 142513, Note_on_c, 0, 94, 0
1, 142517, Note_on_c, 0, 82, 0
1, 142517, Note_on_c, 0, 81, 107
1, 142518, Note_on_c, 0, 93, 95
1, 142616, Note_on_c, 0, 76, 0
1, 142621, Note_on_c, 0, 48, 0
1, 142622, Note_on_c, 0, 60, 0
1, 142629, Note_on_c, 0, 93, 0
1, 142630, Note_on_c, 0, 81, 0
1, 142646, Note_on_c, 0, 53, 110
1, 142648, Note_on_c, 0, 69, 107
1, 142649, Note_on_c, 0, 65, 110
1, 142651, Note_on_c, 0, 81, 107
1, 142652, Note_on_c, 0, 57, 110
1, 142653, Note_on_c, 0, 93, 95
1, 142706, Note_on_c, 0, 81, 0
1, 142707, Note_on_c, 0, 93, 0
1, 142713, Note_on_c, 0, 79, 107
1, 142714, Note_on_c, 0, 91, 95
1, 142767, Note_on_c, 0, 69, 0
1, 142771, Note_on_c, 0, 57, 0
1, 142772, Note_on_c, 0, 65, 0
1, 142776, Note_on_c, 0, 53, 0
1, 142779, Note_on_c, 0, 67, 110
1, 142780, Note_on_c, 0, 70, 107
1, 142781, Note_on_c, 0, 55, 110
1, 142782, Note_on_c, 0, 77, 107
1, 142783, Note_on_c, 0, 89, 85
1, 142784, Note_on_c, 0, 91, 0
1, 142785, Note_on_c, 0, 79, 0
1, 142785, Note_on_c, 0, 58, 110
1, 142896, Note_on_c, 0, 89, 0
1, 142897, Note_on_c, 0, 77, 0
1, 142903, Note_on_c, 0, 58, 0
1, 142908, Note_on_c, 0, 55, 0
1, 142909, Note_on_c, 0, 70, 0
1, 142912, Note_on_c, 0, 67, 0
1, 142913, Note_on_c, 0, 69, 107
1, 142914, Note_on_c, 0, 72, 107
1, 142915, Note_on_c, 0, 57, 110
1, 142916, Note_on_c, 0, 89, 95
1, 142917, Note_on_c, 0, 77, 107
1, 142917, Note_on_c, 0, 60, 110
1, 142980, Note_on_c, 0, 87, 95
1, 142980, Note_on_c, 0, 75, 107
1, 142982, Note_on_c, 0, 89, 0
1, 142984, Note_on_c, 0, 77, 0
1, 143036, Note_on_c, 0, 60, 0
1, 143037, Note_on_c, 0, 87, 0
1, 143039, Note_on_c, 0, 75, 0
1, 143040, Note_on_c, 0, 57, 0
1, 143040, Note_on_c, 0, 72, 0
1, 143041, Note_on_c, 0, 74, 107
1, 143043, Note_on_c, 0, 69, 0
1, 143044, Note_on_c, 0, 70, 107
1, 143044, Note_on_c, 0, 58, 110
1, 143045, Note_on_c, 0, 62, 110
1, 143046, Note_on_c, 0, 74, 107
1, 143047, Note_on_c, 0, 86, 95
1, 143108, Note_on_c, 0, 74, 0
1, 143166, Note_on_c, 0, 58, 0
1, 143167, Note_on_c, 0, 86, 0
1, 143168, Note_on_c, 0, 62, 0
1, 143171, Note_on_c, 0, 70, 0
1, 143172, Note_on_c, 0, 72, 107
1, 143174, Note_on_c, 0, 69, 107
1, 143175, Note_on_c, 0, 77, 107
1, 143176, Note_on_c, 0, 89, 95
1, 143177, Note_on_c, 0, 60, 110
1, 143177, Note_on_c, 0, 57, 110
1, 143198, Note_on_c, 0, 74, 0
1, 143237, Note_on_c, 0, 77, 0
1, 143238, Note_on_c, 0, 89, 0
1, 143239, Note_on_c, 0, 87, 95
1, 143240, Note_on_c, 0, 75, 107
1, 143291, Note_on_c, 0, 60, 0
1, 143295, Note_on_c, 0, 57, 0
1, 143296, Note_on_c, 0, 69, 0
1, 143299, Note_on_c, 0, 75, 0
1, 143300, Note_on_c, 0, 72, 0
1, 143302, Note_on_c, 0, 87, 0
1, 143304, Note_on_c, 0, 74, 107
1, 143305, Note_on_c, 0, 70, 107
1, 143306, Note_on_c, 0, 58, 110
1, 143307, Note_on_c, 0, 86, 95
1, 143307, Note_on_c, 0, 62, 110
1, 143415, Note_on_c, 0, 74, 0
1, 143426, Note_on_c, 0, 86, 0
1, 143433, Note_on_c, 0, 62, 0
1, 143435, Note_on_c, 0, 58, 0
1, 143437, Note_on_c, 0, 70, 0
1, 143440, Note_on_c, 0, 74, 107
1, 143440, Note_on_c, 0, 86, 95
1, 143441, Note_on_c, 0, 60, 110
1, 143442, Note_on_c, 0, 72, 107
1, 143442, Note_on_c, 0, 63, 110
1, 143443, Note_on_c, 0, 75, 107
1, 143502, Note_on_c, 0, 72, 107
1, 143503, Note_on_c, 0, 84, 95
1, 143505, Note_on_c, 0, 86, 0
1, 143509, Note_on_c, 0, 72, 0
1, 143514, Note_on_c, 0, 75, 0
1, 143515, Note_on_c, 0, 74, 0
1, 143558, Note_on_c, 0, 60, 0
1, 143561, Note_on_c, 0, 63, 0
1, 143566, Note_on_c, 0, 74, 107
1, 143568, Note_on_c, 0, 82, 107
1, 143568, Note_on_c, 0, 77, 107
1, 143569, Note_on_c, 0, 70, 107
1, 143570, Note_on_c, 0, 65, 110
1, 143570, Note_on_c, 0, 62, 110
1, 143584, Note_on_c, 0, 84, 0
1, 143588, Note_on_c, 0, 72, 0
1, 143675, Note_on_c, 0, 82, 0
1, 143679, Note_on_c, 0, 70, 0
1, 143680, Note_on_c, 0, 62, 0
1, 143687, Note_on_c, 0, 65, 0
1, 143688, Note_on_c, 0, 74, 0
1, 143690, Note_on_c, 0, 77, 0
1, 143694, Note_on_c, 0, 75, 107
1, 143695, Note_on_c, 0, 63, 110
1, 143696, Note_on_c, 0, 72, 107
1, 143698, Note_on_c, 0, 70, 107
1, 143699, Note_on_c, 0, 60, 110
1, 143700, Note_on_c, 0, 82, 107
1, 143763, Note_on_c, 0, 69, 107
1, 143764, Note_on_c, 0, 81, 107
1, 143770, Note_on_c, 0, 82, 0
1, 143772, Note_on_c, 0, 70, 0
1, 143811, Note_on_c, 0, 72, 0
1, 143812, Note_on_c, 0, 63, 0
1, 143815, Note_on_c, 0, 75, 0
1, 143829, Note_on_c, 0, 74, 107
1, 143830, Note_on_c, 0, 62, 110
1, 143831, Note_on_c, 0, 70, 107
1, 143832, Note_on_c, 0, 60, 0
1, 143832, Note_on_c, 0, 79, 107
1, 143833, Note_on_c, 0, 67, 110
1, 143834, Note_on_c, 0, 81, 0
1, 143834, Note_on_c, 0, 58, 110
1, 143837, Note_on_c, 0, 69, 0
1, 143961, Note_on_c, 0, 58, 0
1, 143961, Note_on_c, 0, 69, 107
1, 143963, Note_on_c, 0, 86, 95
1, 143964, Note_on_c, 0, 67, 0
1, 143964, Note_on_c, 0, 74, 107
1, 143966, Note_on_c, 0, 57, 110
1, 143968, Note_on_c, 0, 70, 0
1, 143969, Note_on_c, 0, 79, 0
1, 143992, Note_on_c, 0, 74, 0
1, 144025, Note_on_c, 0, 72, 107
1, 144026, Note_on_c, 0, 84, 95
1, 144035, Note_on_c, 0, 86, 0
1, 144072, Note_on_c, 0, 69, 0
1, 144096, Note_on_c, 0, 70, 107
1, 144096, Note_on_c, 0, 82, 107
1, 144096, Note_on_c, 0, 67, 110
1, 144097, Note_on_c, 0, 55, 110
1, 144104, Note_on_c, 0, 84, 0
1, 144105, Note_on_c, 0, 72, 0
1, 144108, Note_on_c, 0, 57, 0
1, 144213, Note_on_c, 0, 82, 0
1, 144213, Note_on_c, 0, 70, 0
1, 144227, Note_on_c, 0, 70, 107
1, 144228, Note_on_c, 0, 82, 107
1, 144230, Note_on_c, 0, 69, 107
1, 144231, Note_on_c, 0, 57, 110
1, 144234, Note_on_c, 0, 67, 0
1, 144243, Note_on_c, 0, 55, 0
1, 144283, Note_on_c, 0, 82, 0
1, 144286, Note_on_c, 0, 70, 0
1, 144289, Note_on_c, 0, 69, 107
1, 144290, Note_on_c, 0, 81, 107
1, 144296, Note_on_c, 0, 69, 0
1, 144343, Note_on_c, 0, 57, 0
1, 144347, Note_on_c, 0, 81, 0
1, 144354, Note_on_c, 0, 67, 110
1, 144355, Note_on_c, 0, 70, 107
1, 144356, Note_on_c, 0, 79, 107
1, 144356, Note_on_c, 0, 58, 110
1, 144367, Note_on_c, 0, 69, 0
1, 144454, Note_on_c, 0, 62, 0
1, 144469, Note_on_c, 0, 79, 0
1, 144473, Note_on_c, 0, 67, 0
1, 144490, Note_on_c, 0, 67, 110
1, 144491, Note_on_c, 0, 79, 107
1, 144494, Note_on_c, 0, 74, 0
1, 144552, Note_on_c, 0, 67, 0
1, 144555, Note_on_c, 0, 70, 0
1, 144556, Note_on_c, 0, 79, 0
1, 144558, Note_on_c, 0, 77, 107
1, 144561, Note_on_c, 0, 65, 110
1, 144591, Note_on_c, 0, 58, 0
1, 144617, Note_on_c, 0, 65, 0
1, 144620, Note_on_c, 0, 77, 0
1, 144624, Note_on_c, 0, 76, 107
1, 144624, Note_on_c, 0, 72, 107
1, 144625, Note_on_c, 0, 60, 110
1, 144626, Note_on_c, 0, 64, 110
1, 144675, Note_on_c, 0, 72, 0
1, 144691, Note_on_c, 0, 72, 107
1, 144692, Note_on_c, 0, 60, 110
1, 144707, Note_on_c, 0, 60, 0
1, 144723, Note_on_c, 0, 76, 0
1, 144731, Note_on_c, 0, 64, 0
1, 144749, Note_on_c, 0, 62, 110
1, 144750, Note_on_c, 0, 74, 107
1, 144751, Note_on_c, 0, 58, 110
1, 144752, Note_on_c, 0, 70, 107
1, 144756, Note_on_c, 0, 72, 0
1, 144774, Note_on_c, 0, 60, 0
1, 144815, Note_on_c, 0, 76, 107
1, 144816, Note_on_c, 0, 64, 110
1, 144818, Note_on_c, 0, 74, 0
1, 144819, Note_on_c, 0, 62, 0
1, 144842, Note_on_c, 0, 70, 0
1, 144863, Note_on_c, 0, 58, 0
1, 144870, Note_on_c, 0, 64, 0
1, 144874, Note_on_c, 0, 76, 0
1, 144879, Note_on_c, 0, 69, 107
1, 144880, Note_on_c, 0, 77, 107
1, 144880, Note_on_c, 0, 65, 110
1, 144881, Note_on_c, 0, 72, 107
1, 144881, Note_on_c, 0, 57, 110
1, 144882, Note_on_c, 0, 60, 110
1, 144936, Note_on_c, 0, 65, 0
1, 144938, Note_on_c, 0, 77, 0
1, 144941, Note_on_c, 0, 67, 110
1, 144942, Note_on_c, 0, 79, 107
1, 144971, Note_on_c, 0, 72, 0
1, 144973, Note_on_c, 0, 69, 0
1, 144995, Note_on_c, 0, 60, 0
1, 144999, Note_on_c, 0, 57, 0
1, 145006, Note_on_c, 0, 79, 0
1, 145008, Note_on_c, 0, 69, 107
1, 145008, Note_on_c, 0, 81, 107
1, 145009, Note_on_c, 0, 55, 110
1, 145011, Note_on_c, 0, 70, 107
1, 145012, Note_on_c, 0, 67, 110
1, 145012, Note_on_c, 0, 58, 110
1, 145015, Note_on_c, 0, 67, 0
1, 145069, Note_on_c, 0, 69, 0
1, 145069, Note_on_c, 0, 81, 0
1, 145075, Note_on_c, 0, 82, 107
1, 145076, Note_on_c, 0, 70, 107
1, 145079, Note_on_c, 0, 70, 0
1, 145114, Note_on_c, 0, 70, 0
1, 145123, Note_on_c, 0, 67, 0
1, 145131, Note_on_c, 0, 58, 0
1, 145135, Note_on_c, 0, 82, 0
1, 145136, Note_on_c, 0, 55, 0
1, 145141, Note_on_c, 0, 84, 107
1, 145143, Note_on_c, 0, 72, 107
1, 145143, Note_on_c, 0, 65, 110
1, 145144, Note_on_c, 0, 53, 110
1, 145145, Note_on_c, 0, 69, 107
1, 145145, Note_on_c, 0, 57, 110
1, 145208, Note_on_c, 0, 84, 0
1, 145212, Note_on_c, 0, 82, 107
1, 145213, Note_on_c, 0, 70, 107
1, 145215, Note_on_c, 0, 72, 0
1, 145255, Note_on_c, 0, 69, 0
1, 145259, Note_on_c, 0, 65, 0
1, 145266, Note_on_c, 0, 57, 0
1, 145272, Note_on_c, 0, 53, 0
1, 145277, Note_on_c, 0, 86, 107
1, 145278, Note_on_c, 0, 82, 0
1, 145279, Note_on_c, 0, 74, 107
1, 145280, Note_on_c, 0, 67, 110
1, 145280, Note_on_c, 0, 64, 110
1, 145281, Note_on_c, 0, 52, 110
1, 145281, Note_on_c, 0, 55, 110
1, 145283, Note_on_c, 0, 70, 0
1, 145338, Note_on_c, 0, 86, 0
1, 145339, Note_on_c, 0, 74, 0
1, 145342, Note_on_c, 0, 72, 107
1, 145343, Note_on_c, 0, 84, 107
1, 145403, Note_on_c, 0, 84, 0
1, 145406, Note_on_c, 0, 72, 0
1, 145410, Note_on_c, 0, 72, 107
1, 145411, Note_on_c, 0, 55, 0
1, 145411, Note_on_c, 0, 84, 107
1, 145413, Note_on_c, 0, 57, 110
1, 145414, Note_on_c, 0, 69, 107
1, 145415, Note_on_c, 0, 52, 0
1, 145415, Note_on_c, 0, 65, 110
1, 145416, Note_on_c, 0, 53, 110
1, 145417, Note_on_c, 0, 67, 0
1, 145419, Note_on_c, 0, 64, 0
1, 145466, Note_on_c, 0, 84, 0
1, 145470, Note_on_c, 0, 72, 0
1, 145476, Note_on_c, 0, 70, 107
1, 145476, Note_on_c, 0, 82, 107
1, 145521, Note_on_c, 0, 69, 0
1, 145532, Note_on_c, 0, 57, 0
1, 145534, Note_on_c, 0, 53, 0
1, 145536, Note_on_c, 0, 65, 0
1, 145537, Note_on_c, 0, 70, 0
1, 145540, Note_on_c, 0, 82, 0
1, 145542, Note_on_c, 0, 72, 107
1, 145543, Note_on_c, 0, 84, 107
1, 145545, Note_on_c, 0, 58, 110
1, 145546, Note_on_c, 0, 65, 110
1, 145547, Note_on_c, 0, 53, 110
1, 145548, Note_on_c, 0, 46, 115
1, 145606, Note_on_c, 0, 84, 0
1, 145608, Note_on_c, 0, 72, 0
1, 145609, Note_on_c, 0, 86, 107
1, 145610, Note_on_c, 0, 74, 107
1, 145655, Note_on_c, 0, 46, 0
1, 145668, Note_on_c, 0, 74, 0
1, 145669, Note_on_c, 0, 86, 0
1, 145675, Note_on_c, 0, 81, 95
1, 145675, Note_on_c, 0, 69, 95
1, 145676, Note_on_c, 0, 60, 110
1, 145677, Note_on_c, 0, 48, 115
1, 145678, Note_on_c, 0, 58, 0
1, 145703, Note_on_c, 0, 65, 0
1, 145706, Note_on_c, 0, 79, 95
1, 145707, Note_on_c, 0, 67, 98
1, 145709, Note_on_c, 0, 81, 0
1, 145710, Note_on_c, 0, 69, 0
1, 145742, Note_on_c, 0, 69, 95
1, 145743, Note_on_c, 0, 67, 0
1, 145743, Note_on_c, 0, 81, 95
1, 145746, Note_on_c, 0, 79, 0
1, 145770, Note_on_c, 0, 53, 0
1, 145777, Note_on_c, 0, 67, 98
1, 145778, Note_on_c, 0, 69, 0
1, 145779, Note_on_c, 0, 81, 0
1, 145780, Note_on_c, 0, 79, 95
1, 145806, Note_on_c, 0, 79, 0
1, 145811, Note_on_c, 0, 67, 0
1, 145812, Note_on_c, 0, 81, 95
1, 145812, Note_on_c, 0, 69, 95
1, 145812, Note_on_c, 0, 52, 110
1, 145813, Note_on_c, 0, 64, 110
1, 145840, Note_on_c, 0, 81, 0
1, 145842, Note_on_c, 0, 69, 0
1, 145844, Note_on_c, 0, 79, 95
1, 145844, Note_on_c, 0, 67, 98
1, 145868, Note_on_c, 0, 64, 0
1, 145873, Note_on_c, 0, 52, 0
1, 145874, Note_on_c, 0, 67, 0
1, 145875, Note_on_c, 0, 79, 0
1, 145876, Note_on_c, 0, 81, 95
1, 145876, Note_on_c, 0, 69, 95
1, 145878, Note_on_c, 0, 50, 110
1, 145879, Note_on_c, 0, 62, 110
1, 145909, Note_on_c, 0, 79, 95
1, 145910, Note_on_c, 0, 69, 0
1, 145910, Note_on_c, 0, 67, 98
1, 145915, Note_on_c, 0, 81, 0
1, 145935, Note_on_c, 0, 62, 0
1, 145938, Note_on_c, 0, 50, 0
1, 145941, Note_on_c, 0, 81, 95
1, 145942, Note_on_c, 0, 67, 0
1, 145943, Note_on_c, 0, 69, 95
1, 145943, Note_on_c, 0, 64, 110
1, 145944, Note_on_c, 0, 52, 110
1, 145945, Note_on_c, 0, 79, 0
1, 145975, Note_on_c, 0, 69, 0
1, 145977, Note_on_c, 0, 79, 95
1, 145978, Note_on_c, 0, 81, 0
1, 145979, Note_on_c, 0, 67, 98
1, 146010, Note_on_c, 0, 67, 0
1, 146012, Note_on_c, 0, 69, 95
1, 146012, Note_on_c, 0, 81, 95
1, 146015, Note_on_c, 0, 79, 0
1, 146036, Note_on_c, 0, 60, 0
1, 146044, Note_on_c, 0, 81, 0
1, 146045, Note_on_c, 0, 67, 98
1, 146047, Note_on_c, 0, 69, 0
1, 146047, Note_on_c, 0, 79, 107
1, 146061, Note_on_c, 0, 64, 0
1, 146071, Note_on_c, 0, 79, 0
1, 146075, Note_on_c, 0, 67, 0
1, 146076, Note_on_c, 0, 58, 110
1, 146078, Note_on_c, 0, 77, 107
1, 146079, Note_on_c, 0, 70, 107
1, 146079, Note_on_c, 0, 65, 110
1, 146084, Note_on_c, 0, 52, 0
1, 146106, Note_on_c, 0, 48, 0
1, 146137, Note_on_c, 0, 65, 0
1, 146140, Note_on_c, 0, 77, 0
1, 146142, Note_on_c, 0, 67, 110
1, 146143, Note_on_c, 0, 79, 107
1, 146203, Note_on_c, 0, 79, 0
1, 146205, Note_on_c, 0, 77, 107
1, 146206, Note_on_c, 0, 67, 0
1, 146207, Note_on_c, 0, 65, 110
1, 146207, Note_on_c, 0, 53, 110
1, 146208, Note_on_c, 0, 65, 110
1, 146267, Note_on_c, 0, 70, 0
1, 146269, Note_on_c, 0, 58, 0
1, 146271, Note_on_c, 0, 70, 107
1, 146272, Note_on_c, 0, 58, 110
1, 146334, Note_on_c, 0, 58, 0
1, 146338, Note_on_c, 0, 70, 0
1, 146339, Note_on_c, 0, 69, 107
1, 146340, Note_on_c, 0, 57, 110
1, 146366, Note_on_c, 0, 53, 0
1, 146402, Note_on_c, 0, 57, 0
1, 146406, Note_on_c, 0, 69, 0
1, 146406, Note_on_c, 0, 55, 110
1, 146409, Note_on_c, 0, 67, 110
1, 146476, Note_on_c, 0, 57, 110
1, 146477, Note_on_c, 0, 69, 107
1, 146482, Note_on_c, 0, 67, 0
1, 146502, Note_on_c, 0, 55, 0
1, 146542, Note_on_c, 0, 55, 110
1, 146545, Note_on_c, 0, 67, 110
1, 146606, Note_on_c, 0, 65, 0
1, 146612, Note_on_c, 0, 65, 110
1, 146613, Note_on_c, 0, 53, 110
1, 146619, Note_on_c, 0, 55, 0
1, 146634, Note_on_c, 0, 67, 0
1, 146678, Note_on_c, 0, 53, 0
1, 146681, Note_on_c, 0, 64, 110
1, 146682, Note_on_c, 0, 52, 110
1, 146741, Note_on_c, 0, 57, 0
1, 146743, Note_on_c, 0, 64, 0
1, 146747, Note_on_c, 0, 62, 110
1, 146748, Note_on_c, 0, 50, 110
1, 146754, Note_on_c, 0, 52, 0
1, 146790, Note_on_c, 0, 69, 0
1, 146803, Note_on_c, 0, 65, 0
1, 146818, Note_on_c, 0, 55, 110
1, 146819, Note_on_c, 0, 67, 110
1, 146826, Note_on_c, 0, 62, 0
1, 146841, Note_on_c, 0, 50, 0
1, 146842, Note_on_c, 0, 77, 0
1, 146886, Note_on_c, 0, 67, 0
1, 146891, Note_on_c, 0, 59, 110
1, 146892, Note_on_c, 0, 53, 110
1, 146893, Note_on_c, 0, 71, 107
1, 146894, Note_on_c, 0, 65, 110
1, 146895, Note_on_c, 0, 55, 0
1, 146958, Note_on_c, 0, 55, 110
1, 146959, Note_on_c, 0, 67, 110
1, 146964, Note_on_c, 0, 53, 0
1, 146965, Note_on_c, 0, 65, 0
1, 147007, Note_on_c, 0, 71, 0
1, 147011, Note_on_c, 0, 59, 0
1, 147029, Note_on_c, 0, 72, 107
1, 147029, Note_on_c, 0, 48, 115
1, 147031, Note_on_c, 0, 60, 110
1, 147031, Note_on_c, 0, 60, 110
1, 147053, Note_on_c, 0, 67, 0
1, 147067, Note_on_c, 0, 55, 0
1, 147090, Note_on_c, 0, 60, 0
1, 147096, Note_on_c, 0, 77, 107
1, 147098, Note_on_c, 0, 65, 110
1, 147167, Note_on_c, 0, 76, 107
1, 147168, Note_on_c, 0, 64, 110
1, 147173, Note_on_c, 0, 65, 0
1, 147175, Note_on_c, 0, 77, 0
1, 147198, Note_on_c, 0, 72, 0
1, 147226, Note_on_c, 0, 48, 0
1, 147231, Note_on_c, 0, 74, 107
1, 147233, Note_on_c, 0, 62, 110
1, 147238, Note_on_c, 0, 64, 0
1, 147239, Note_on_c, 0, 76, 0
1, 147299, Note_on_c, 0, 76, 107
1, 147300, Note_on_c, 0, 64, 110
1, 147306, Note_on_c, 0, 62, 0
1, 147311, Note_on_c, 0, 74, 0
1, 147355, Note_on_c, 0, 60, 0
1, 147364, Note_on_c, 0, 62, 110
1, 147365, Note_on_c, 0, 74, 107
1, 147431, Note_on_c, 0, 60, 110
1, 147432, Note_on_c, 0, 57, 110
1, 147432, Note_on_c, 0, 45, 115
1, 147433, Note_on_c, 0, 72, 107
1, 147435, Note_on_c, 0, 74, 0
1, 147436, Note_on_c, 0, 62, 0
1, 147489, Note_on_c, 0, 64, 0
1, 147495, Note_on_c, 0, 76, 0
1, 147498, Note_on_c, 0, 70, 107
1, 147499, Note_on_c, 0, 58, 110
1, 147502, Note_on_c, 0, 72, 0
1, 147504, Note_on_c, 0, 60, 0
1, 147525, Note_on_c, 0, 57, 0
1, 147541, Note_on_c, 0, 45, 0
1, 147562, Note_on_c, 0, 58, 0
1, 147566, Note_on_c, 0, 70, 0
1, 147567, Note_on_c, 0, 50, 110
1, 147567, Note_on_c, 0, 57, 110
1, 147568, Note_on_c, 0, 69, 107
1, 147569, Note_on_c, 0, 62, 110
1, 147590, Note_on_c, 0, 65, 0
1, 147629, Note_on_c, 0, 57, 0
1, 147631, Note_on_c, 0, 69, 0
1, 147634, Note_on_c, 0, 58, 110
1, 147635, Note_on_c, 0, 70, 107
1, 147669, Note_on_c, 0, 62, 0
1, 147680, Note_on_c, 0, 50, 0
1, 147700, Note_on_c, 0, 50, 110
1, 147701, Note_on_c, 0, 72, 107
1, 147701, Note_on_c, 0, 60, 110
1, 147702, Note_on_c, 0, 38, 115
1, 147711, Note_on_c, 0, 58, 0
1, 147714, Note_on_c, 0, 70, 0
1, 147766, Note_on_c, 0, 66, 110
1, 147768, Note_on_c, 0, 78, 107
1, 147814, Note_on_c, 0, 38, 0
1, 147816, Note_on_c, 0, 60, 0
1, 147817, Note_on_c, 0, 72, 0
1, 147820, Note_on_c, 0, 50, 0
1, 147831, Note_on_c, 0, 78, 0
1, 147834, Note_on_c, 0, 55, 110
1, 147834, Note_on_c, 0, 43, 115
1, 147835, Note_on_c, 0, 66, 0
1, 147837, Note_on_c, 0, 79, 107
1, 147837, Note_on_c, 0, 67, 110
1, 147901, Note_on_c, 0, 72, 107
1, 147902, Note_on_c, 0, 60, 110
1, 147960, Note_on_c, 0, 60, 0
1, 147965, Note_on_c, 0, 72, 0
1, 147969, Note_on_c, 0, 43, 0
1, 147970, Note_on_c, 0, 50, 110
1, 147971, Note_on_c, 0, 59, 110
1, 147972, Note_on_c, 0, 55, 0
1, 147972, Note_on_c, 0, 71, 107
1, 147973, Note_on_c, 0, 62, 110
1, 148023, Note_on_c, 0, 59, 0
1, 148024, Note_on_c, 0, 71, 0
1, 148028, Note_on_c, 0, 67, 0
1, 148029, Note_on_c, 0, 79, 0
1, 148031, Note_on_c, 0, 57, 110
1, 148032, Note_on_c, 0, 69, 107
1, 148074, Note_on_c, 0, 62, 0
1, 148076, Note_on_c, 0, 50, 0
1, 148099, Note_on_c, 0, 59, 110
1, 148100, Note_on_c, 0, 71, 107
1, 148101, Note_on_c, 0, 67, 110
1, 148101, Note_on_c, 0, 55, 110
1, 148105, Note_on_c, 0, 69, 0
1, 148109, Note_on_c, 0, 57, 0
1, 148164, Note_on_c, 0, 81, 107
1, 148166, Note_on_c, 0, 69, 107
1, 148191, Note_on_c, 0, 67, 0
1, 148223, Note_on_c, 0, 69, 0
1, 148228, Note_on_c, 0, 81, 0
1, 148229, Note_on_c, 0, 55, 0
1, 148230, Note_on_c, 0, 79, 107
1, 148230, Note_on_c, 0, 52, 110
1, 148231, Note_on_c, 0, 67, 110
1, 148232, Note_on_c, 0, 64, 110
1, 148254, Note_on_c, 0, 71, 0
1, 148287, Note_on_c, 0, 59, 0
1, 148289, Note_on_c, 0, 67, 0
1, 148292, Note_on_c, 0, 79, 0
1, 148293, Note_on_c, 0, 77, 107
1, 148294, Note_on_c, 0, 65, 110
1, 148318, Note_on_c, 0, 64, 0
1, 148361, Note_on_c, 0, 64, 110
1, 148362, Note_on_c, 0, 65, 0
1, 148362, Note_on_c, 0, 76, 107
1, 148363, Note_on_c, 0, 52, 0
1, 148363, Note_on_c, 0, 69, 107
1, 148363, Note_on_c, 0, 57, 110
1, 148364, Note_on_c, 0, 77, 0
1, 148428, Note_on_c, 0, 69, 107
1, 148429, Note_on_c, 0, 81, 107
1, 148447, Note_on_c, 0, 64, 0
1, 148452, Note_on_c, 0, 76, 0
1, 148455, Note_on_c, 0, 69, 0
1, 148477, Note_on_c, 0, 57, 0
1, 148488, Note_on_c, 0, 69, 0
1, 148494, Note_on_c, 0, 45, 115
1, 148495, Note_on_c, 0, 67, 110
1, 148496, Note_on_c, 0, 79, 107
1, 148497, Note_on_c, 0, 81, 0
1, 148497, Note_on_c, 0, 61, 110
1, 148499, Note_on_c, 0, 73, 107
1, 148500, Note_on_c, 0, 57, 110
1, 148561, Note_on_c, 0, 81, 107
1, 148562, Note_on_c, 0, 69, 107
1, 148567, Note_on_c, 0, 79, 0
1, 148577, Note_on_c, 0, 67, 0
1, 148614, Note_on_c, 0, 73, 0
1, 148617, Note_on_c, 0, 61, 0
1, 148629, Note_on_c, 0, 74, 107
1, 148629, Note_on_c, 0, 50, 110
1, 148632, Note_on_c, 0, 77, 107
1, 148632, Note_on_c, 0, 62, 110
1, 148633, Note_on_c, 0, 62, 110
1, 148634, Note_on_c, 0, 65, 110
1, 148649, Note_on_c, 0, 69, 0
1, 148653, Note_on_c, 0, 81, 0
1, 148653, Note_on_c, 0, 57, 0
1, 148687, Note_on_c, 0, 45, 0
1, 148692, Note_on_c, 0, 77, 0
1, 148699, Note_on_c, 0, 81, 107
1, 148699, Note_on_c, 0, 69, 107
1, 148713, Note_on_c, 0, 65, 0
1, 148757, Note_on_c, 0, 81, 0
1, 148759, Note_on_c, 0, 69, 0
1, 148764, Note_on_c, 0, 62, 0
1, 148764, Note_on_c, 0, 71, 107
1, 148766, Note_on_c, 0, 83, 107
1, 148791, Note_on_c, 0, 74, 0
1, 148824, Note_on_c, 0, 83, 0
1, 148825, Note_on_c, 0, 71, 0
1, 148828, Note_on_c, 0, 73, 107
1, 148829, Note_on_c, 0, 85, 107
1, 148892, Note_on_c, 0, 85, 0
1, 148896, Note_on_c, 0, 73, 0
1, 148896, Note_on_c, 0, 54, 110
1, 148897, Note_on_c, 0, 74, 107
1, 148898, Note_on_c, 0, 86, 107
1, 148898, Note_on_c, 0, 66, 110
1, 148910, Note_on_c, 0, 50, 0
1, 148964, Note_on_c, 0, 76, 107
1, 148966, Note_on_c, 0, 64, 110
1, 149029, Note_on_c, 0, 64, 0
1, 149033, Note_on_c, 0, 76, 0
1, 149034, Note_on_c, 0, 74, 107
1, 149036, Note_on_c, 0, 62, 110
1, 149061, Note_on_c, 0, 66, 0
1, 149079, Note_on_c, 0, 62, 0
1, 149099, Note_on_c, 0, 72, 107
1, 149102, Note_on_c, 0, 60, 110
1, 149139, Note_on_c, 0, 74, 0
1, 149166, Note_on_c, 0, 60, 0
1, 149167, Note_on_c, 0, 72, 0
1, 149168, Note_on_c, 0, 56, 110
1, 149168, Note_on_c, 0, 59, 110
1, 149169, Note_on_c, 0, 68, 107
1, 149170, Note_on_c, 0, 71, 107
1, 149180, Note_on_c, 0, 54, 0
1, 149214, Note_on_c, 0, 74, 0
1, 149228, Note_on_c, 0, 76, 107
1, 149230, Note_on_c, 0, 64, 110
1, 149233, Note_on_c, 0, 71, 0
1, 149238, Note_on_c, 0, 59, 0
1, 149259, Note_on_c, 0, 86, 0
1, 149266, Note_on_c, 0, 62, 0
1, 149290, Note_on_c, 0, 74, 107
1, 149291, Note_on_c, 0, 62, 110
1, 149296, Note_on_c, 0, 64, 0
1, 149298, Note_on_c, 0, 76, 0
1, 149347, Note_on_c, 0, 68, 0
1, 149353, Note_on_c, 0, 76, 107
1, 149354, Note_on_c, 0, 64, 110
1, 149358, Note_on_c, 0, 74, 0
1, 149360, Note_on_c, 0, 62, 0
1, 149376, Note_on_c, 0, 56, 0
1, 149419, Note_on_c, 0, 69, 107
1, 149419, Note_on_c, 0, 57, 110
1, 149420, Note_on_c, 0, 72, 107
1, 149420, Note_on_c, 0, 60, 110
1, 149422, Note_on_c, 0, 76, 0
1, 149439, Note_on_c, 0, 64, 0
1, 149483, Note_on_c, 0, 86, 107
1, 149484, Note_on_c, 0, 74, 107
1, 149508, Note_on_c, 0, 72, 0
1, 149538, Note_on_c, 0, 60, 0
1, 149542, Note_on_c, 0, 74, 0
1, 149545, Note_on_c, 0, 86, 0
1, 149549, Note_on_c, 0, 76, 107
1, 149550, Note_on_c, 0, 84, 107
1, 149552, Note_on_c, 0, 72, 107
1, 149553, Note_on_c, 0, 64, 110
1, 149576, Note_on_c, 0, 69, 0
1, 149607, Note_on_c, 0, 72, 0
1, 149611, Note_on_c, 0, 84, 0
1, 149616, Note_on_c, 0, 71, 107
1, 149617, Note_on_c, 0, 83, 107
1, 149629, Note_on_c, 0, 57, 0
1, 149643, Note_on_c, 0, 76, 0
1, 149671, Note_on_c, 0, 64, 0
1, 149678, Note_on_c, 0, 83, 0
1, 149682, Note_on_c, 0, 71, 0
1, 149687, Note_on_c, 0, 72, 107
1, 149688, Note_on_c, 0, 81, 107
1, 149688, Note_on_c, 0, 84, 107
1, 149689, Note_on_c, 0, 69, 107
1, 149753, Note_on_c, 0, 71, 107
1, 149753, Note_on_c, 0, 59, 110
1, 149818, Note_on_c, 0, 59, 0
1, 149821, Note_on_c, 0, 69, 107
1, 149821, Note_on_c, 0, 57, 110
1, 149824, Note_on_c, 0, 69, 0
1, 149831, Note_on_c, 0, 71, 0
1, 149879, Note_on_c, 0, 57, 0
1, 149880, Note_on_c, 0, 84, 0
1, 149882, Note_on_c, 0, 72, 0
1, 149886, Note_on_c, 0, 67, 110
1, 149887, Note_on_c, 0, 55, 110
1, 149945, Note_on_c, 0, 55, 0
1, 149948, Note_on_c, 0, 67, 0
1, 149952, Note_on_c, 0, 74, 107
1, 149952, Note_on_c, 0, 86, 107
1, 149953, Note_on_c, 0, 66, 110
1, 149956, Note_on_c, 0, 54, 110
1, 150018, Note_on_c, 0, 71, 107
1, 150020, Note_on_c, 0, 59, 110
1, 150024, Note_on_c, 0, 54, 0
1, 150040, Note_on_c, 0, 66, 0
1, 150044, Note_on_c, 0, 81, 0
1, 150084, Note_on_c, 0, 69, 107
1, 150086, Note_on_c, 0, 57, 110
1, 150092, Note_on_c, 0, 71, 0
1, 150093, Note_on_c, 0, 59, 0
1, 150101, Note_on_c, 0, 69, 0
1, 150144, Note_on_c, 0, 57, 0
1, 150149, Note_on_c, 0, 69, 0
1, 150151, Note_on_c, 0, 59, 110
1, 150152, Note_on_c, 0, 71, 107
1, 150177, Note_on_c, 0, 74, 0
1, 150216, Note_on_c, 0, 71, 0
1, 150216, Note_on_c, 0, 64, 110
1, 150218, Note_on_c, 0, 52, 110
1, 150219, Note_on_c, 0, 69, 107
1, 150220, Note_on_c, 0, 59, 0
1, 150220, Note_on_c, 0, 81, 107
1, 150225, Note_on_c, 0, 86, 0
1, 150341, Note_on_c, 0, 69, 0
1, 150351, Note_on_c, 0, 71, 107
1, 150352, Note_on_c, 0, 83, 107
1, 150353, Note_on_c, 0, 81, 0
1, 150418, Note_on_c, 0, 71, 0
1, 150418, Note_on_c, 0, 69, 107
1, 150419, Note_on_c, 0, 81, 107
1, 150423, Note_on_c, 0, 83, 0
1, 150488, Note_on_c, 0, 69, 0
1, 150488, Note_on_c, 0, 80, 107
1, 150489, Note_on_c, 0, 81, 0
1, 150489, Note_on_c, 0, 68, 107
1, 150496, Note_on_c, 0, 64, 0
1, 150497, Note_on_c, 0, 52, 0
1, 150591, Note_on_c, 0, 68, 0
1, 150603, Note_on_c, 0, 80, 0
1, 150621, Note_on_c, 0, 64, 110
1, 150623, Note_on_c, 0, 80, 107
1, 150623, Note_on_c, 0, 68, 107
1, 150624, Note_on_c, 0, 52, 110
1, 150689, Note_on_c, 0, 66, 110
1, 150690, Note_on_c, 0, 78, 107
1, 150692, Note_on_c, 0, 68, 0
1, 150700, Note_on_c, 0, 80, 0
1, 150742, Note_on_c, 0, 64, 0
1, 150758, Note_on_c, 0, 64, 110
1, 150759, Note_on_c, 0, 56, 110
1, 150760, Note_on_c, 0, 52, 0
1, 150761, Note_on_c, 0, 76, 107
1, 150761, Note_on_c, 0, 68, 107
1, 150765, Note_on_c, 0, 66, 0
1, 150766, Note_on_c, 0, 78, 0
1, 150868, Note_on_c, 0, 68, 0
1, 150891, Note_on_c, 0, 52, 110
1, 150893, Note_on_c, 0, 56, 0
1, 150894, Note_on_c, 0, 74, 107
1, 150896, Note_on_c, 0, 86, 107
1, 150897, Note_on_c, 0, 64, 110
1, 150906, Note_on_c, 0, 64, 0
1, 150915, Note_on_c, 0, 76, 0
1, 151007, Note_on_c, 0, 86, 0
1, 151028, Note_on_c, 0, 74, 0
1, 151029, Note_on_c, 0, 69, 107
1, 151029, Note_on_c, 0, 72, 107
1, 151030, Note_on_c, 0, 84, 107
1, 151031, Note_on_c, 0, 57, 110
1, 151060, Note_on_c, 0, 64, 0
1, 151062, Note_on_c, 0, 52, 0
1, 151144, Note_on_c, 0, 84, 0
1, 151145, Note_on_c, 0, 72, 0
1, 151164, Note_on_c, 0, 88, 107
1, 151167, Note_on_c, 0, 76, 107
1, 151224, Note_on_c, 0, 76, 0
1, 151224, Note_on_c, 0, 69, 0
1, 151231, Note_on_c, 0, 88, 0
1, 151232, Note_on_c, 0, 74, 107
1, 151233, Note_on_c, 0, 86, 107
1, 151298, Note_on_c, 0, 65, 110
1, 151299, Note_on_c, 0, 72, 107
1, 151300, Note_on_c, 0, 84, 107
1, 151301, Note_on_c, 0, 77, 107
1, 151306, Note_on_c, 0, 86, 0
1, 151306, Note_on_c, 0, 74, 0
1, 151312, Note_on_c, 0, 57, 0
1, 151396, Note_on_c, 0, 84, 0
1, 151399, Note_on_c, 0, 72, 0
1, 151434, Note_on_c, 0, 72, 107
1, 151435, Note_on_c, 0, 84, 107
1, 151464, Note_on_c, 0, 77, 0
1, 151496, Note_on_c, 0, 65, 0
1, 151496, Note_on_c, 0, 84, 0
1, 151500, Note_on_c, 0, 72, 0
1, 151504, Note_on_c, 0, 71, 107
1, 151505, Note_on_c, 0, 83, 107
1, 151559, Note_on_c, 0, 83, 0
1, 151562, Note_on_c, 0, 71, 0
1, 151570, Note_on_c, 0, 57, 110
1, 151571, Note_on_c, 0, 45, 115
1, 151572, Note_on_c, 0, 78, 107
1, 151574, Note_on_c, 0, 69, 107
1, 151575, Note_on_c, 0, 81, 107
1, 151575, Note_on_c, 0, 66, 110
1, 151679, Note_on_c, 0, 81, 0
1, 151683, Note_on_c, 0, 69, 0
1, 151703, Note_on_c, 0, 69, 107
1, 151705, Note_on_c, 0, 81, 107
1, 151730, Note_on_c, 0, 78, 0
1, 151731, Note_on_c, 0, 81, 0
1, 151736, Note_on_c, 0, 69, 0
1, 151738, Note_on_c, 0, 83, 107
1, 151738, Note_on_c, 0, 71, 107
1, 151764, Note_on_c, 0, 83, 0
1, 151766, Note_on_c, 0, 71, 0
1, 151770, Note_on_c, 0, 72, 107
1, 151771, Note_on_c, 0, 84, 107
1, 151799, Note_on_c, 0, 66, 0
1, 151836, Note_on_c, 0, 72, 0
1, 151838, Note_on_c, 0, 84, 0
1, 151840, Note_on_c, 0, 52, 110
1, 151841, Note_on_c, 0, 79, 107
1, 151842, Note_on_c, 0, 67, 110
1, 151842, Note_on_c, 0, 64, 110
1, 151843, Note_on_c, 0, 83, 107
1, 151844, Note_on_c, 0, 71, 107
1, 151849, Note_on_c, 0, 45, 0
1, 151852, Note_on_c, 0, 57, 0
1, 151952, Note_on_c, 0, 83, 0
1, 151955, Note_on_c, 0, 71, 0
1, 151974, Note_on_c, 0, 81, 107
1, 151975, Note_on_c, 0, 69, 107
1, 152001, Note_on_c, 0, 79, 0
1, 152003, Note_on_c, 0, 67, 0
1, 152034, Note_on_c, 0, 69, 0
1, 152035, Note_on_c, 0, 81, 0
1, 152039, Note_on_c, 0, 71, 107
1, 152040, Note_on_c, 0, 83, 107
1, 152067, Note_on_c, 0, 64, 0
1, 152106, Note_on_c, 0, 79, 107
1, 152106, Note_on_c, 0, 67, 110
1, 152108, Note_on_c, 0, 84, 107
1, 152109, Note_on_c, 0, 72, 107
1, 152114, Note_on_c, 0, 83, 0
1, 152117, Note_on_c, 0, 52, 0
1, 152119, Note_on_c, 0, 71, 0
1, 152216, Note_on_c, 0, 72, 0
1, 152217, Note_on_c, 0, 84, 0
1, 152220, Note_on_c, 0, 79, 0
1, 152221, Note_on_c, 0, 67, 0
1, 152236, Note_on_c, 0, 66, 110
1, 152237, Note_on_c, 0, 78, 107
1, 152238, Note_on_c, 0, 84, 107
1, 152239, Note_on_c, 0, 72, 107
1, 152298, Note_on_c, 0, 72, 0
1, 152300, Note_on_c, 0, 84, 0
1, 152302, Note_on_c, 0, 74, 107
1, 152303, Note_on_c, 0, 86, 107
1, 152330, Note_on_c, 0, 78, 0
1, 152349, Note_on_c, 0, 66, 0
1, 152368, Note_on_c, 0, 79, 107
1, 152369, Note_on_c, 0, 88, 107
1, 152370, Note_on_c, 0, 76, 107
1, 152370, Note_on_c, 0, 67, 110
1, 152377, Note_on_c, 0, 86, 0
1, 152378, Note_on_c, 0, 74, 0
1, 152483, Note_on_c, 0, 76, 0
1, 152493, Note_on_c, 0, 88, 0
1, 152508, Note_on_c, 0, 88, 107
1, 152508, Note_on_c, 0, 76, 107
1, 152514, Note_on_c, 0, 79, 0
1, 152558, Note_on_c, 0, 88, 0
1, 152562, Note_on_c, 0, 76, 0
1, 152569, Note_on_c, 0, 78, 107
1, 152570, Note_on_c, 0, 90, 107
1, 152581, Note_on_c, 0, 67, 0
1, 152623, Note_on_c, 0, 90, 0
1, 152632, Note_on_c, 0, 71, 107
1, 152634, Note_on_c, 0, 91, 107
1, 152634, Note_on_c, 0, 79, 107
1, 152635, Note_on_c, 0, 59, 110
1, 152639, Note_on_c, 0, 78, 0
1, 152703, Note_on_c, 0, 52, 110
1, 152704, Note_on_c, 0, 64, 110
1, 152765, Note_on_c, 0, 64, 0
1, 152767, Note_on_c, 0, 52, 0
1, 152772, Note_on_c, 0, 53, 110
1, 152773, Note_on_c, 0, 65, 110
1, 152831, Note_on_c, 0, 53, 0
1, 152836, Note_on_c, 0, 67, 110
1, 152837, Note_on_c, 0, 65, 0
1, 152837, Note_on_c, 0, 55, 110
1, 152868, Note_on_c, 0, 71, 0
1, 152900, Note_on_c, 0, 55, 0
1, 152902, Note_on_c, 0, 67, 0
1, 152903, Note_on_c, 0, 72, 107
1, 152903, Note_on_c, 0, 60, 110
1, 152904, Note_on_c, 0, 57, 110
1, 152905, Note_on_c, 0, 69, 107
1, 152913, Note_on_c, 0, 59, 0
1, 153010, Note_on_c, 0, 57, 0
1, 153014, Note_on_c, 0, 69, 0
1, 153036, Note_on_c, 0, 69, 107
1, 153037, Note_on_c, 0, 57, 110
1, 153099, Note_on_c, 0, 55, 110
1, 153100, Note_on_c, 0, 67, 110
1, 153103, Note_on_c, 0, 57, 0
1, 153108, Note_on_c, 0, 69, 0
1, 153135, Note_on_c, 0, 72, 0
1, 153156, Note_on_c, 0, 79, 0
1, 153157, Note_on_c, 0, 91, 0
1, 153167, Note_on_c, 0, 73, 107
1, 153168, Note_on_c, 0, 53, 110
1, 153169, Note_on_c, 0, 61, 110
1, 153170, Note_on_c, 0, 65, 110
1, 153172, Note_on_c, 0, 55, 0
1, 153173, Note_on_c, 0, 67, 0
1, 153182, Note_on_c, 0, 60, 0
1, 153276, Note_on_c, 0, 53, 0
1, 153276, Note_on_c, 0, 65, 0
1, 153306, Note_on_c, 0, 65, 110
1, 153307, Note_on_c, 0, 53, 110
1, 153360, Note_on_c, 0, 53, 0
1, 153363, Note_on_c, 0, 65, 0
1, 153367, Note_on_c, 0, 64, 110
1, 153368, Note_on_c, 0, 52, 110
1, 153405, Note_on_c, 0, 73, 0
1, 153426, Note_on_c, 0, 64, 0
1, 153430, Note_on_c, 0, 52, 0
1, 153432, Note_on_c, 0, 74, 107
1, 153433, Note_on_c, 0, 62, 110
1, 153434, Note_on_c, 0, 50, 110
1, 153435, Note_on_c, 0, 62, 110
1, 153443, Note_on_c, 0, 61, 0
1, 153544, Note_on_c, 0, 62, 0
1, 153568, Note_on_c, 0, 81, 107
1, 153568, Note_on_c, 0, 93, 107
1, 153594, Note_on_c, 0, 50, 0
1, 153632, Note_on_c, 0, 91, 107
1, 153633, Note_on_c, 0, 79, 107
1, 153634, Note_on_c, 0, 81, 0
1, 153635, Note_on_c, 0, 93, 0
1, 153664, Note_on_c, 0, 74, 0
1, 153700, Note_on_c, 0, 91, 0
1, 153702, Note_on_c, 0, 79, 0
1, 153703, Note_on_c, 0, 74, 107
1, 153704, Note_on_c, 0, 89, 107
1, 153704, Note_on_c, 0, 77, 107
1, 153705, Note_on_c, 0, 62, 110
1, 153788, Note_on_c, 0, 62, 0
1, 153808, Note_on_c, 0, 74, 0
1, 153822, Note_on_c, 0, 77, 0
1, 153827, Note_on_c, 0, 89, 0
1, 153832, Note_on_c, 0, 62, 0
1, 153836, Note_on_c, 0, 61, 110
1, 153837, Note_on_c, 0, 73, 107
1, 153837, Note_on_c, 0, 77, 107
1, 153839, Note_on_c, 0, 89, 107
1, 153888, Note_on_c, 0, 89, 0
1, 153894, Note_on_c, 0, 77, 0
1, 153897, Note_on_c, 0, 76, 107
1, 153898, Note_on_c, 0, 88, 107
1, 153933, Note_on_c, 0, 73, 0
1, 153960, Note_on_c, 0, 61, 0
1, 153962, Note_on_c, 0, 62, 110
1, 153965, Note_on_c, 0, 76, 0
1, 153966, Note_on_c, 0, 74, 107
1, 153966, Note_on_c, 0, 74, 107
1, 153967, Note_on_c, 0, 88, 0
1, 153968, Note_on_c, 0, 86, 107
1, 154017, Note_on_c, 0, 74, 0
1, 154086, Note_on_c, 0, 86, 0
1, 154099, Note_on_c, 0, 76, 107
1, 154100, Note_on_c, 0, 86, 107
1, 154100, Note_on_c, 0, 64, 110
1, 154101, Note_on_c, 0, 74, 107
1, 154108, Note_on_c, 0, 62, 0
1, 154143, Note_on_c, 0, 74, 0
1, 154164, Note_on_c, 0, 86, 0
1, 154164, Note_on_c, 0, 72, 107
1, 154165, Note_on_c, 0, 84, 107
1, 154173, Note_on_c, 0, 74, 0
1, 154209, Note_on_c, 0, 76, 0
1, 154222, Note_on_c, 0, 64, 0
1, 154231, Note_on_c, 0, 84, 0
1, 154232, Note_on_c, 0, 83, 107
1, 154232, Note_on_c, 0, 71, 107
1, 154233, Note_on_c, 0, 69, 95
1, 154234, Note_on_c, 0, 57, 98
1, 154235, Note_on_c, 0, 74, 107
1, 154236, Note_on_c, 0, 62, 110
1, 154246, Note_on_c, 0, 72, 0
1, 154256, Note_on_c, 0, 69, 0
1, 154259, Note_on_c, 0, 57, 0
1, 154264, Note_on_c, 0, 76, 95
1, 154265, Note_on_c, 0, 62, 0
1, 154266, Note_on_c, 0, 68, 85
1, 154266, Note_on_c, 0, 64, 98
1, 154267, Note_on_c, 0, 56, 87
1, 154268, Note_on_c, 0, 74, 0
1, 154291, Note_on_c, 0, 56, 0
1, 154294, Note_on_c, 0, 68, 0
1, 154299, Note_on_c, 0, 64, 0
1, 154300, Note_on_c, 0, 65, 110
1, 154301, Note_on_c, 0, 77, 107
1, 154302, Note_on_c, 0, 69, 85
1, 154302, Note_on_c, 0, 57, 87
1, 154303, Note_on_c, 0, 76, 0
1, 154327, Note_on_c, 0, 57, 0
1, 154330, Note_on_c, 0, 69, 0
1, 154333, Note_on_c, 0, 68, 85
1, 154334, Note_on_c, 0, 56, 87
1, 154359, Note_on_c, 0, 56, 0
1, 154362, Note_on_c, 0, 68, 0
1, 154367, Note_on_c, 0, 69, 85
1, 154368, Note_on_c, 0, 57, 87
1, 154396, Note_on_c, 0, 57, 0
1, 154399, Note_on_c, 0, 69, 0
1, 154403, Note_on_c, 0, 56, 87
1, 154404, Note_on_c, 0, 68, 85
1, 154427, Note_on_c, 0, 56, 0
1, 154431, Note_on_c, 0, 68, 0
1, 154436, Note_on_c, 0, 69, 95
1, 154437, Note_on_c, 0, 57, 98
1, 154467, Note_on_c, 0, 57, 0
1, 154469, Note_on_c, 0, 69, 0
1, 154472, Note_on_c, 0, 68, 95
1, 154473, Note_on_c, 0, 65, 0
1, 154473, Note_on_c, 0, 56, 98
1, 154474, Note_on_c, 0, 77, 0
1, 154496, Note_on_c, 0, 56, 0
1, 154497, Note_on_c, 0, 68, 0
1, 154503, Note_on_c, 0, 77, 107
1, 154504, Note_on_c, 0, 65, 110
1, 154505, Note_on_c, 0, 69, 95
1, 154506, Note_on_c, 0, 57, 98
1, 154532, Note_on_c, 0, 57, 0
1, 154535, Note_on_c, 0, 69, 0
1, 154540, Note_on_c, 0, 56, 98
1, 154541, Note_on_c, 0, 68, 95
1, 154571, Note_on_c, 0, 68, 0
1, 154574, Note_on_c, 0, 56, 0
1, 154575, Note_on_c, 0, 69, 95
1, 154576, Note_on_c, 0, 57, 98
1, 154604, Note_on_c, 0, 57, 0
1, 154607, Note_on_c, 0, 69, 0
1, 154609, Note_on_c, 0, 56, 98
1, 154610, Note_on_c, 0, 68, 95
1, 154629, Note_on_c, 0, 65, 0
1, 154635, Note_on_c, 0, 68, 0
1, 154638, Note_on_c, 0, 56, 0
1, 154641, Note_on_c, 0, 77, 0
1, 154644, Note_on_c, 0, 76, 107
1, 154645, Note_on_c, 0, 69, 95
1, 154645, Note_on_c, 0, 64, 110
1, 154646, Note_on_c, 0, 57, 98
1, 154669, Note_on_c, 0, 57, 0
1, 154672, Note_on_c, 0, 69, 0
1, 154677, Note_on_c, 0, 68, 95
1, 154678, Note_on_c, 0, 56, 98
1, 154706, Note_on_c, 0, 56, 0
1, 154709, Note_on_c, 0, 68, 0
1, 154710, Note_on_c, 0, 57, 98
1, 154712, Note_on_c, 0, 69, 95
1, 154739, Note_on_c, 0, 57, 0
1, 154741, Note_on_c, 0, 69, 0
1, 154747, Note_on_c, 0, 68, 95
1, 154748, Note_on_c, 0, 56, 98
1, 154759, Note_on_c, 0, 64, 0
1, 154761, Note_on_c, 0, 71, 0
1, 154776, Note_on_c, 0, 76, 0
1, 154778, Note_on_c, 0, 56, 0
1, 154781, Note_on_c, 0, 68, 0
1, 154782, Note_on_c, 0, 76, 107
1, 154782, Note_on_c, 0, 64, 110
1, 154783, Note_on_c, 0, 57, 98
1, 154784, Note_on_c, 0, 69, 95
1, 154809, Note_on_c, 0, 69, 0
1, 154813, Note_on_c, 0, 57, 0
1, 154817, Note_on_c, 0, 68, 95
1, 154818, Note_on_c, 0, 56, 98
1, 154847, Note_on_c, 0, 56, 0
1, 154849, Note_on_c, 0, 68, 0
1, 154851, Note_on_c, 0, 69, 95
1, 154852, Note_on_c, 0, 57, 98
1, 154871, Note_on_c, 0, 83, 0
1, 154878, Note_on_c, 0, 69, 0
1, 154880, Note_on_c, 0, 57, 0
1, 154887, Note_on_c, 0, 56, 98
1, 154888, Note_on_c, 0, 68, 95
1, 154912, Note_on_c, 0, 56, 0
1, 154913, Note_on_c, 0, 68, 0
1, 154918, Note_on_c, 0, 64, 0
1, 154918, Note_on_c, 0, 76, 0
1, 154919, Note_on_c, 0, 62, 110
1, 154921, Note_on_c, 0, 69, 95
1, 154922, Note_on_c, 0, 74, 107
1, 154923, Note_on_c, 0, 57, 98
1, 154945, Note_on_c, 0, 57, 0
1, 154946, Note_on_c, 0, 69, 0
1, 154953, Note_on_c, 0, 68, 95
1, 154955, Note_on_c, 0, 56, 110
1, 154979, Note_on_c, 0, 56, 0
1, 154982, Note_on_c, 0, 68, 0
1, 154984, Note_on_c, 0, 54, 110
1, 154985, Note_on_c, 0, 66, 110
1, 155014, Note_on_c, 0, 66, 0
1, 155016, Note_on_c, 0, 54, 0
1, 155021, Note_on_c, 0, 68, 107
1, 155022, Note_on_c, 0, 56, 110
1, 155040, Note_on_c, 0, 74, 0
1, 155041, Note_on_c, 0, 68, 0
1, 155042, Note_on_c, 0, 56, 0
1, 155043, Note_on_c, 0, 62, 0
1, 155050, Note_on_c, 0, 62, 110
1, 155051, Note_on_c, 0, 69, 107
1, 155052, Note_on_c, 0, 74, 107
1, 155052, Note_on_c, 0, 57, 110
1, 155180, Note_on_c, 0, 74, 0
1, 155183, Note_on_c, 0, 62, 0
1, 155188, Note_on_c, 0, 72, 107
1, 155189, Note_on_c, 0, 93, 107
1, 155189, Note_on_c, 0, 60, 110
1, 155190, Note_on_c, 0, 81, 107
1, 155250, Note_on_c, 0, 91, 107
1, 155252, Note_on_c, 0, 79, 107
1, 155253, Note_on_c, 0, 81, 0
1, 155257, Note_on_c, 0, 93, 0
1, 155297, Note_on_c, 0, 72, 0
1, 155317, Note_on_c, 0, 89, 107
1, 155318, Note_on_c, 0, 62, 110
1, 155319, Note_on_c, 0, 60, 0
1, 155319, Note_on_c, 0, 77, 107
1, 155320, Note_on_c, 0, 74, 107
1, 155325, Note_on_c, 0, 79, 0
1, 155328, Note_on_c, 0, 91, 0
1, 155433, Note_on_c, 0, 74, 0
1, 155437, Note_on_c, 0, 89, 0
1, 155438, Note_on_c, 0, 77, 0
1, 155446, Note_on_c, 0, 62, 0
1, 155450, Note_on_c, 0, 89, 107
1, 155451, Note_on_c, 0, 77, 107
1, 155452, Note_on_c, 0, 72, 107
1, 155453, Note_on_c, 0, 60, 110
1, 155515, Note_on_c, 0, 76, 107
1, 155516, Note_on_c, 0, 88, 107
1, 155521, Note_on_c, 0, 77, 0
1, 155526, Note_on_c, 0, 89, 0
1, 155565, Note_on_c, 0, 72, 0
1, 155571, Note_on_c, 0, 69, 0
1, 155572, Note_on_c, 0, 57, 0
1, 155574, Note_on_c, 0, 60, 0
1, 155583, Note_on_c, 0, 59, 110
1, 155587, Note_on_c, 0, 74, 107
1, 155588, Note_on_c, 0, 86, 107
1, 155588, Note_on_c, 0, 71, 107
1, 155594, Note_on_c, 0, 76, 0
1, 155594, Note_on_c, 0, 88, 0
1, 155697, Note_on_c, 0, 86, 0
1, 155699, Note_on_c, 0, 74, 0
1, 155707, Note_on_c, 0, 71, 0
1, 155714, Note_on_c, 0, 59, 0
1, 155715, Note_on_c, 0, 86, 107
1, 155717, Note_on_c, 0, 74, 107
1, 155717, Note_on_c, 0, 57, 110
1, 155719, Note_on_c, 0, 69, 107
1, 155781, Note_on_c, 0, 72, 107
1, 155782, Note_on_c, 0, 84, 107
1, 155803, Note_on_c, 0, 86, 0
1, 155806, Note_on_c, 0, 74, 0
1, 155826, Note_on_c, 0, 69, 0
1, 155839, Note_on_c, 0, 57, 0
1, 155846, Note_on_c, 0, 71, 107
1, 155848, Note_on_c, 0, 74, 107
1, 155849, Note_on_c, 0, 59, 110
1, 155850, Note_on_c, 0, 86, 107
1, 155852, Note_on_c, 0, 84, 0
1, 155854, Note_on_c, 0, 72, 0
1, 155957, Note_on_c, 0, 86, 0
1, 155963, Note_on_c, 0, 74, 0
1, 155980, Note_on_c, 0, 86, 107
1, 155983, Note_on_c, 0, 74, 107
1, 156046, Note_on_c, 0, 89, 107
1, 156047, Note_on_c, 0, 77, 107
1, 156054, Note_on_c, 0, 74, 0
1, 156059, Note_on_c, 0, 86, 0
1, 156113, Note_on_c, 0, 88, 107
1, 156114, Note_on_c, 0, 64, 110
1, 156115, Note_on_c, 0, 76, 107
1, 156116, Note_on_c, 0, 68, 107
1, 156117, Note_on_c, 0, 52, 110
1, 156118, Note_on_c, 0, 56, 110
1, 156125, Note_on_c, 0, 77, 0
1, 156127, Note_on_c, 0, 89, 0
1, 156128, Note_on_c, 0, 71, 0
1, 156128, Note_on_c, 0, 59, 0
1, 156227, Note_on_c, 0, 88, 0
1, 156227, Note_on_c, 0, 76, 0
1, 156247, Note_on_c, 0, 88, 107
1, 156248, Note_on_c, 0, 76, 107
1, 156309, Note_on_c, 0, 68, 0
1, 156312, Note_on_c, 0, 86, 107
1, 156315, Note_on_c, 0, 74, 107
1, 156324, Note_on_c, 0, 52, 0
1, 156324, Note_on_c, 0, 76, 0
1, 156325, Note_on_c, 0, 56, 0
1, 156326, Note_on_c, 0, 88, 0
1, 156343, Note_on_c, 0, 64, 0
1, 156375, Note_on_c, 0, 64, 110
1, 156376, Note_on_c, 0, 72, 107
1, 156377, Note_on_c, 0, 68, 107
1, 156379, Note_on_c, 0, 84, 107
1, 156380, Note_on_c, 0, 52, 110
1, 156381, Note_on_c, 0, 56, 110
1, 156385, Note_on_c, 0, 74, 0
1, 156388, Note_on_c, 0, 86, 0
1, 156489, Note_on_c, 0, 84, 0
1, 156493, Note_on_c, 0, 72, 0
1, 156510, Note_on_c, 0, 72, 107
1, 156513, Note_on_c, 0, 84, 107
1, 156571, Note_on_c, 0, 68, 0
1, 156578, Note_on_c, 0, 71, 107
1, 156579, Note_on_c, 0, 83, 107
1, 156582, Note_on_c, 0, 84, 0
1, 156583, Note_on_c, 0, 72, 0
1, 156588, Note_on_c, 0, 52, 0
1, 156589, Note_on_c, 0, 56, 0
1, 156610, Note_on_c, 0, 64, 0
1, 156642, Note_on_c, 0, 57, 110
1, 156643, Note_on_c, 0, 72, 107
1, 156666, Note_on_c, 0, 71, 0
1, 156687, Note_on_c, 0, 83, 0
1, 156711, Note_on_c, 0, 69, 107
1, 156780, Note_on_c, 0, 64, 110
1, 156801, Note_on_c, 0, 69, 0
1, 156848, Note_on_c, 0, 60, 110
1, 156878, Note_on_c, 0, 64, 0
1, 156911, Note_on_c, 0, 57, 110
1, 156951, Note_on_c, 0, 57, 0
1, 156978, Note_on_c, 0, 64, 110
1, 156980, Note_on_c, 0, 60, 0
1, 157006, Note_on_c, 0, 57, 0
1, 157044, Note_on_c, 0, 60, 110
1, 157070, Note_on_c, 0, 64, 0
1, 157114, Note_on_c, 0, 57, 110
1, 157131, Note_on_c, 0, 60, 0
1, 157178, Note_on_c, 0, 54, 110
1, 157195, Note_on_c, 0, 57, 0
1, 157243, Note_on_c, 0, 64, 110
1, 157269, Note_on_c, 0, 72, 0
1, 157305, Note_on_c, 0, 54, 0
1, 157310, Note_on_c, 0, 69, 107
1, 157343, Note_on_c, 0, 64, 0
1, 157376, Note_on_c, 0, 72, 107
1, 157404, Note_on_c, 0, 69, 0
1, 157440, Note_on_c, 0, 72, 0
1, 157441, Note_on_c, 0, 71, 107
1, 157441, Note_on_c, 0, 55, 110
1, 157507, Note_on_c, 0, 67, 110
1, 157572, Note_on_c, 0, 62, 110
1, 157596, Note_on_c, 0, 67, 0
1, 157639, Note_on_c, 0, 59, 110
1, 157663, Note_on_c, 0, 62, 0
1, 157705, Note_on_c, 0, 55, 110
1, 157729, Note_on_c, 0, 59, 0
1, 157771, Note_on_c, 0, 62, 110
1, 157799, Note_on_c, 0, 55, 0
1, 157810, Note_on_c, 0, 55, 0
1, 157837, Note_on_c, 0, 59, 110
1, 157861, Note_on_c, 0, 62, 0
1, 157903, Note_on_c, 0, 55, 110
1, 157925, Note_on_c, 0, 59, 0
1, 157959, Note_on_c, 0, 71, 0
1, 157970, Note_on_c, 0, 52, 110
1, 157992, Note_on_c, 0, 55, 0
1, 158037, Note_on_c, 0, 60, 110
1, 158100, Note_on_c, 0, 67, 110
1, 158118, Note_on_c, 0, 52, 0
1, 158139, Note_on_c, 0, 60, 0
1, 158161, Note_on_c, 0, 70, 107
1, 158171, Note_on_c, 0, 67, 0
1, 158225, Note_on_c, 0, 70, 0
1, 158230, Note_on_c, 0, 69, 107
1, 158231, Note_on_c, 0, 53, 110
1, 158296, Note_on_c, 0, 65, 110
1, 158304, Note_on_c, 0, 69, 0
1, 158361, Note_on_c, 0, 69, 107
1, 158371, Note_on_c, 0, 65, 0
1, 158383, Note_on_c, 0, 53, 0
1, 158423, Note_on_c, 0, 69, 0
1, 158428, Note_on_c, 0, 72, 107
1, 158496, Note_on_c, 0, 77, 107
1, 158503, Note_on_c, 0, 72, 0
1, 158559, Note_on_c, 0, 69, 107
1, 158618, Note_on_c, 0, 77, 0
1, 158623, Note_on_c, 0, 65, 110
1, 158626, Note_on_c, 0, 69, 0
1, 158691, Note_on_c, 0, 65, 0
1, 158692, Note_on_c, 0, 62, 110
1, 158757, Note_on_c, 0, 59, 110
1, 158758, Note_on_c, 0, 62, 0
1, 158824, Note_on_c, 0, 67, 110
1, 158889, Note_on_c, 0, 74, 107
1, 158890, Note_on_c, 0, 67, 0
1, 158891, Note_on_c, 0, 55, 110
1, 158894, Note_on_c, 0, 59, 0
1, 158948, Note_on_c, 0, 74, 0
1, 158955, Note_on_c, 0, 77, 107
1, 159012, Note_on_c, 0, 77, 0
1, 159016, Note_on_c, 0, 76, 107
1, 159017, Note_on_c, 0, 60, 110
1, 159034, Note_on_c, 0, 55, 0
1, 159085, Note_on_c, 0, 67, 110
1, 159089, Note_on_c, 0, 76, 0
1, 159145, Note_on_c, 0, 60, 0
1, 159150, Note_on_c, 0, 72, 107
1, 159152, Note_on_c, 0, 67, 0
1, 159219, Note_on_c, 0, 72, 0
1, 159220, Note_on_c, 0, 76, 107
1, 159285, Note_on_c, 0, 76, 0
1, 159285, Note_on_c, 0, 79, 107
1, 159350, Note_on_c, 0, 70, 107
1, 159411, Note_on_c, 0, 79, 0
1, 159414, Note_on_c, 0, 70, 0
1, 159416, Note_on_c, 0, 67, 110
1, 159479, Note_on_c, 0, 67, 0
1, 159483, Note_on_c, 0, 64, 110
1, 159543, Note_on_c, 0, 64, 0
1, 159548, Note_on_c, 0, 61, 110
1, 159611, Note_on_c, 0, 69, 107
1, 159676, Note_on_c, 0, 57, 110
1, 159678, Note_on_c, 0, 76, 107
1, 159684, Note_on_c, 0, 61, 0
1, 159686, Note_on_c, 0, 69, 0
1, 159743, Note_on_c, 0, 79, 107
1, 159744, Note_on_c, 0, 76, 0
1, 159801, Note_on_c, 0, 79, 0
1, 159807, Note_on_c, 0, 77, 75
1, 159809, Note_on_c, 0, 74, 107
1, 159809, Note_on_c, 0, 89, 66
1, 159810, Note_on_c, 0, 62, 110
1, 159825, Note_on_c, 0, 57, 0
1, 159833, Note_on_c, 0, 89, 0
1, 159837, Note_on_c, 0, 77, 0
1, 159841, Note_on_c, 0, 76, 75
1, 159842, Note_on_c, 0, 88, 66
1, 159868, Note_on_c, 0, 88, 0
1, 159870, Note_on_c, 0, 76, 0
1, 159875, Note_on_c, 0, 77, 75
1, 159876, Note_on_c, 0, 86, 107
1, 159878, Note_on_c, 0, 74, 107
1, 159878, Note_on_c, 0, 89, 66
1, 159897, Note_on_c, 0, 89, 0
1, 159902, Note_on_c, 0, 77, 0
1, 159909, Note_on_c, 0, 88, 66
1, 159909, Note_on_c, 0, 76, 75
1, 159935, Note_on_c, 0, 76, 0
1, 159936, Note_on_c, 0, 74, 0
1, 159936, Note_on_c, 0, 86, 0
1, 159941, Note_on_c, 0, 88, 0
1, 159942, Note_on_c, 0, 89, 66
1, 159942, Note_on_c, 0, 77, 75
1, 159943, Note_on_c, 0, 84, 107
1, 159944, Note_on_c, 0, 72, 107
1, 159969, Note_on_c, 0, 77, 0
1, 159972, Note_on_c, 0, 89, 0
1, 159975, Note_on_c, 0, 88, 66
1, 159977, Note_on_c, 0, 76, 75
1, 159998, Note_on_c, 0, 76, 0
1, 160002, Note_on_c, 0, 88, 0
1, 160005, Note_on_c, 0, 84, 0
1, 160007, Note_on_c, 0, 72, 0
1, 160009, Note_on_c, 0, 77, 75
1, 160010, Note_on_c, 0, 89, 66
1, 160011, Note_on_c, 0, 82, 107
1, 160012, Note_on_c, 0, 70, 107
1, 160037, Note_on_c, 0, 77, 0
1, 160039, Note_on_c, 0, 89, 0
1, 160041, Note_on_c, 0, 76, 75
1, 160044, Note_on_c, 0, 88, 66
1, 160073, Note_on_c, 0, 88, 0
1, 160073, Note_on_c, 0, 82, 0
1, 160077, Note_on_c, 0, 76, 0
1, 160077, Note_on_c, 0, 70, 0
1, 160080, Note_on_c, 0, 89, 66
1, 160081, Note_on_c, 0, 69, 107
1, 160082, Note_on_c, 0, 77, 75
1, 160083, Note_on_c, 0, 81, 107
1, 160110, Note_on_c, 0, 89, 0
1, 160111, Note_on_c, 0, 77, 0
1, 160115, Note_on_c, 0, 76, 75
1, 160116, Note_on_c, 0, 88, 66
1, 160140, Note_on_c, 0, 81, 0
1, 160145, Note_on_c, 0, 69, 0
1, 160146, Note_on_c, 0, 88, 0
1, 160149, Note_on_c, 0, 76, 0
1, 160152, Note_on_c, 0, 89, 66
1, 160153, Note_on_c, 0, 77, 75
1, 160153, Note_on_c, 0, 79, 107
1, 160155, Note_on_c, 0, 67, 110
1, 160173, Note_on_c, 0, 77, 0
1, 160178, Note_on_c, 0, 89, 0
1, 160183, Note_on_c, 0, 88, 66
1, 160185, Note_on_c, 0, 76, 75
1, 160208, Note_on_c, 0, 67, 0
1, 160209, Note_on_c, 0, 88, 0
1, 160210, Note_on_c, 0, 79, 0
1, 160211, Note_on_c, 0, 76, 0
1, 160217, Note_on_c, 0, 77, 85
1, 160218, Note_on_c, 0, 77, 85
1, 160218, Note_on_c, 0, 65, 110
1, 160220, Note_on_c, 0, 89, 75
1, 160235, Note_on_c, 0, 89, 0
1, 160241, Note_on_c, 0, 77, 0
1, 160248, Note_on_c, 0, 88, 75
1, 160249, Note_on_c, 0, 76, 85
1, 160268, Note_on_c, 0, 76, 0
1, 160272, Note_on_c, 0, 88, 0
1, 160275, Note_on_c, 0, 65, 0
1, 160276, Note_on_c, 0, 77, 85
1, 160277, Note_on_c, 0, 77, 0
1, 160278, Note_on_c, 0, 76, 85
1, 160279, Note_on_c, 0, 89, 75
1, 160280, Note_on_c, 0, 64, 110
1, 160308, Note_on_c, 0, 89, 0
1, 160310, Note_on_c, 0, 77, 0
1, 160312, Note_on_c, 0, 88, 75
1, 160313, Note_on_c, 0, 76, 0
1, 160314, Note_on_c, 0, 76, 85
1, 160332, Note_on_c, 0, 74, 0
1, 160335, Note_on_c, 0, 62, 0
1, 160341, Note_on_c, 0, 88, 0
1, 160348, Note_on_c, 0, 77, 85
1, 160350, Note_on_c, 0, 89, 75
1, 160350, Note_on_c, 0, 74, 107
1, 160351, Note_on_c, 0, 62, 110
1, 160358, Note_on_c, 0, 64, 0
1, 160375, Note_on_c, 0, 76, 0
1, 160375, Note_on_c, 0, 76, 85
1, 160376, Note_on_c, 0, 89, 0
1, 160380, Note_on_c, 0, 77, 0
1, 160381, Note_on_c, 0, 88, 75
1, 160404, Note_on_c, 0, 76, 0
1, 160411, Note_on_c, 0, 88, 0
1, 160418, Note_on_c, 0, 89, 75
1, 160420, Note_on_c, 0, 77, 85
1, 160420, Note_on_c, 0, 77, 85
1, 160420, Note_on_c, 0, 65, 110
1, 160424, Note_on_c, 0, 74, 0
1, 160427, Note_on_c, 0, 62, 0
1, 160446, Note_on_c, 0, 77, 0
1, 160446, Note_on_c, 0, 89, 0
1, 160451, Note_on_c, 0, 76, 85
1, 160452, Note_on_c, 0, 88, 75
1, 160476, Note_on_c, 0, 88, 0
1, 160479, Note_on_c, 0, 76, 0
1, 160479, Note_on_c, 0, 77, 0
1, 160485, Note_on_c, 0, 89, 75
1, 160487, Note_on_c, 0, 77, 85
1, 160488, Note_on_c, 0, 72, 107
1, 160490, Note_on_c, 0, 60, 110
1, 160506, Note_on_c, 0, 89, 0
1, 160508, Note_on_c, 0, 77, 0
1, 160512, Note_on_c, 0, 65, 0
1, 160514, Note_on_c, 0, 76, 85
1, 160515, Note_on_c, 0, 88, 75
1, 160544, Note_on_c, 0, 76, 0
1, 160545, Note_on_c, 0, 88, 0
1, 160548, Note_on_c, 0, 65, 110
1, 160549, Note_on_c, 0, 89, 75
1, 160550, Note_on_c, 0, 77, 85
1, 160552, Note_on_c, 0, 77, 85
1, 160564, Note_on_c, 0, 77, 0
1, 160572, Note_on_c, 0, 60, 0
1, 160572, Note_on_c, 0, 72, 0
1, 160574, Note_on_c, 0, 89, 0
1, 160579, Note_on_c, 0, 88, 75
1, 160580, Note_on_c, 0, 76, 85
1, 160603, Note_on_c, 0, 88, 0
1, 160604, Note_on_c, 0, 76, 0
1, 160612, Note_on_c, 0, 89, 75
1, 160614, Note_on_c, 0, 77, 85
1, 160614, Note_on_c, 0, 59, 110
1, 160615, Note_on_c, 0, 77, 0
1, 160615, Note_on_c, 0, 71, 107
1, 160633, Note_on_c, 0, 65, 0
1, 160638, Note_on_c, 0, 89, 0
1, 160642, Note_on_c, 0, 77, 0
1, 160644, Note_on_c, 0, 88, 75
1, 160645, Note_on_c, 0, 76, 85
1, 160672, Note_on_c, 0, 76, 0
1, 160675, Note_on_c, 0, 88, 0
1, 160677, Note_on_c, 0, 77, 85
1, 160678, Note_on_c, 0, 89, 75
1, 160679, Note_on_c, 0, 74, 107
1, 160680, Note_on_c, 0, 62, 110
1, 160684, Note_on_c, 0, 71, 0
1, 160687, Note_on_c, 0, 59, 0
1, 160706, Note_on_c, 0, 89, 0
1, 160708, Note_on_c, 0, 77, 0
1, 160711, Note_on_c, 0, 88, 75
1, 160713, Note_on_c, 0, 76, 75
1, 160737, Note_on_c, 0, 76, 0
1, 160742, Note_on_c, 0, 88, 0
1, 160745, Note_on_c, 0, 77, 75
1, 160747, Note_on_c, 0, 76, 75
1, 160747, Note_on_c, 0, 89, 75
1, 160748, Note_on_c, 0, 64, 110
1, 160754, Note_on_c, 0, 62, 0
1, 160756, Note_on_c, 0, 74, 0
1, 160773, Note_on_c, 0, 89, 0
1, 160776, Note_on_c, 0, 77, 0
1, 160779, Note_on_c, 0, 76, 75
1, 160780, Note_on_c, 0, 88, 75
1, 160783, Note_on_c, 0, 76, 0
1, 160807, Note_on_c, 0, 88, 0
1, 160813, Note_on_c, 0, 89, 75
1, 160814, Note_on_c, 0, 77, 75
1, 160815, Note_on_c, 0, 79, 107
1, 160816, Note_on_c, 0, 67, 110
1, 160818, Note_on_c, 0, 64, 0
1, 160835, Note_on_c, 0, 76, 0
1, 160836, Note_on_c, 0, 77, 0
1, 160839, Note_on_c, 0, 89, 0
1, 160845, Note_on_c, 0, 88, 75
1, 160846, Note_on_c, 0, 76, 85
1, 160873, Note_on_c, 0, 79, 0
1, 160875, Note_on_c, 0, 76, 0
1, 160876, Note_on_c, 0, 88, 0
1, 160877, Note_on_c, 0, 77, 85
1, 160879, Note_on_c, 0, 77, 85
1, 160880, Note_on_c, 0, 65, 110
1, 160881, Note_on_c, 0, 89, 75
1, 160884, Note_on_c, 0, 67, 0
1, 160900, Note_on_c, 0, 89, 0
1, 160902, Note_on_c, 0, 77, 0
1, 160911, Note_on_c, 0, 88, 75
1, 160912, Note_on_c, 0, 76, 85
1, 160937, Note_on_c, 0, 76, 0
1, 160940, Note_on_c, 0, 65, 0
1, 160941, Note_on_c, 0, 88, 0
1, 160944, Note_on_c, 0, 77, 85
1, 160945, Note_on_c, 0, 77, 0
1, 160945, Note_on_c, 0, 89, 75
1, 160948, Note_on_c, 0, 64, 110
1, 160949, Note_on_c, 0, 76, 85
1, 160973, Note_on_c, 0, 89, 0
1, 160976, Note_on_c, 0, 77, 0
1, 160979, Note_on_c, 0, 76, 85
1, 160980, Note_on_c, 0, 88, 75
1, 160985, Note_on_c, 0, 76, 0
1, 161005, Note_on_c, 0, 88, 0
1, 161007, Note_on_c, 0, 64, 0
1, 161011, Note_on_c, 0, 89, 75
1, 161012, Note_on_c, 0, 77, 75
1, 161013, Note_on_c, 0, 62, 110
1, 161014, Note_on_c, 0, 74, 107
1, 161024, Note_on_c, 0, 76, 0
1, 161039, Note_on_c, 0, 77, 0
1, 161042, Note_on_c, 0, 89, 0
1, 161046, Note_on_c, 0, 76, 75
1, 161048, Note_on_c, 0, 88, 75
1, 161070, Note_on_c, 0, 76, 0
1, 161071, Note_on_c, 0, 88, 0
1, 161072, Note_on_c, 0, 74, 0
1, 161077, Note_on_c, 0, 62, 0
1, 161079, Note_on_c, 0, 89, 75
1, 161080, Note_on_c, 0, 77, 75
1, 161081, Note_on_c, 0, 72, 107
1, 161082, Note_on_c, 0, 60, 110
1, 161105, Note_on_c, 0, 77, 0
1, 161110, Note_on_c, 0, 89, 0
1, 161114, Note_on_c, 0, 76, 75
1, 161116, Note_on_c, 0, 88, 75
1, 161140, Note_on_c, 0, 88, 0
1, 161142, Note_on_c, 0, 76, 0
1, 161142, Note_on_c, 0, 60, 0
1, 161143, Note_on_c, 0, 72, 0
1, 161147, Note_on_c, 0, 89, 75
1, 161148, Note_on_c, 0, 77, 75
1, 161148, Note_on_c, 0, 71, 107
1, 161149, Note_on_c, 0, 59, 110
1, 161172, Note_on_c, 0, 77, 0
1, 161174, Note_on_c, 0, 89, 0
1, 161178, Note_on_c, 0, 88, 75
1, 161180, Note_on_c, 0, 76, 75
1, 161204, Note_on_c, 0, 88, 0
1, 161206, Note_on_c, 0, 76, 0
1, 161213, Note_on_c, 0, 77, 75
1, 161215, Note_on_c, 0, 74, 107
1, 161215, Note_on_c, 0, 89, 85
1, 161216, Note_on_c, 0, 62, 110
1, 161233, Note_on_c, 0, 59, 0
1, 161238, Note_on_c, 0, 71, 0
1, 161239, Note_on_c, 0, 89, 0
1, 161240, Note_on_c, 0, 77, 0
1, 161244, Note_on_c, 0, 88, 85
1, 161245, Note_on_c, 0, 76, 75
1, 161275, Note_on_c, 0, 76, 0
1, 161281, Note_on_c, 0, 88, 0
1, 161283, Note_on_c, 0, 77, 75
1, 161285, Note_on_c, 0, 89, 85
1, 161286, Note_on_c, 0, 69, 107
1, 161286, Note_on_c, 0, 57, 110
1, 161305, Note_on_c, 0, 62, 0
1, 161309, Note_on_c, 0, 89, 0
1, 161312, Note_on_c, 0, 74, 0
1, 161314, Note_on_c, 0, 77, 0
1, 161316, Note_on_c, 0, 88, 85
1, 161316, Note_on_c, 0, 76, 75
1, 161348, Note_on_c, 0, 76, 0
1, 161351, Note_on_c, 0, 88, 0
1, 161353, Note_on_c, 0, 74, 107
1, 161353, Note_on_c, 0, 62, 110
1, 161354, Note_on_c, 0, 89, 85
1, 161356, Note_on_c, 0, 77, 75
1, 161374, Note_on_c, 0, 57, 0
1, 161376, Note_on_c, 0, 69, 0
1, 161377, Note_on_c, 0, 77, 0
1, 161380, Note_on_c, 0, 89, 0
1, 161386, Note_on_c, 0, 76, 75
1, 161387, Note_on_c, 0, 88, 85
1, 161412, Note_on_c, 0, 88, 0
1, 161416, Note_on_c, 0, 76, 0
1, 161420, Note_on_c, 0, 89, 85
1, 161421, Note_on_c, 0, 77, 75
1, 161422, Note_on_c, 0, 56, 110
1, 161423, Note_on_c, 0, 68, 107
1, 161425, Note_on_c, 0, 74, 0
1, 161427, Note_on_c, 0, 62, 0
1, 161444, Note_on_c, 0, 77, 0
1, 161448, Note_on_c, 0, 89, 0
1, 161454, Note_on_c, 0, 76, 75
1, 161455, Note_on_c, 0, 88, 85
1, 161484, Note_on_c, 0, 88, 0
1, 161486, Note_on_c, 0, 76, 0
1, 161487, Note_on_c, 0, 89, 85
1, 161488, Note_on_c, 0, 77, 75
1, 161489, Note_on_c, 0, 71, 107
1, 161491, Note_on_c, 0, 59, 110
1, 161495, Note_on_c, 0, 68, 0
1, 161498, Note_on_c, 0, 56, 0
1, 161513, Note_on_c, 0, 77, 0
1, 161517, Note_on_c, 0, 89, 0
1, 161522, Note_on_c, 0, 76, 75
1, 161522, Note_on_c, 0, 88, 85
1, 161544, Note_on_c, 0, 76, 0
1, 161546, Note_on_c, 0, 88, 0
1, 161548, Note_on_c, 0, 59, 0
1, 161552, Note_on_c, 0, 71, 0
1, 161553, Note_on_c, 0, 77, 85
1, 161554, Note_on_c, 0, 60, 110
1, 161555, Note_on_c, 0, 89, 85
1, 161556, Note_on_c, 0, 72, 107
1, 161580, Note_on_c, 0, 89, 0
1, 161582, Note_on_c, 0, 77, 0
1, 161583, Note_on_c, 0, 88, 85
1, 161584, Note_on_c, 0, 76, 85
1, 161609, Note_on_c, 0, 76, 0
1, 161610, Note_on_c, 0, 60, 0
1, 161612, Note_on_c, 0, 88, 0
1, 161618, Note_on_c, 0, 89, 85
1, 161620, Note_on_c, 0, 77, 85
1, 161621, Note_on_c, 0, 76, 85
1, 161623, Note_on_c, 0, 64, 110
1, 161625, Note_on_c, 0, 72, 0
1, 161645, Note_on_c, 0, 77, 0
1, 161649, Note_on_c, 0, 89, 0
1, 161651, Note_on_c, 0, 76, 85
1, 161652, Note_on_c, 0, 76, 0
1, 161652, Note_on_c, 0, 88, 85
1, 161680, Note_on_c, 0, 64, 0
1, 161681, Note_on_c, 0, 88, 0
1, 161688, Note_on_c, 0, 77, 85
1, 161689, Note_on_c, 0, 89, 85
1, 161690, Note_on_c, 0, 74, 107
1, 161690, Note_on_c, 0, 62, 110
1, 161711, Note_on_c, 0, 76, 0
1, 161751, Note_on_c, 0, 74, 0
1, 161753, Note_on_c, 0, 62, 0
1, 161754, Note_on_c, 0, 89, 0
1, 161755, Note_on_c, 0, 76, 95
1, 161756, Note_on_c, 0, 88, 95
1, 161757, Note_on_c, 0, 60, 110
1, 161758, Note_on_c, 0, 77, 0
1, 161759, Note_on_c, 0, 72, 107
1, 161822, Note_on_c, 0, 60, 0
1, 161823, Note_on_c, 0, 72, 0
1, 161824, Note_on_c, 0, 74, 107
1, 161825, Note_on_c, 0, 88, 0
1, 161826, Note_on_c, 0, 86, 107
1, 161827, Note_on_c, 0, 71, 107
1, 161827, Note_on_c, 0, 59, 110
1, 161830, Note_on_c, 0, 76, 0
1, 161890, Note_on_c, 0, 71, 0
1, 161892, Note_on_c, 0, 59, 0
1, 161892, Note_on_c, 0, 86, 0
1, 161896, Note_on_c, 0, 72, 107
1, 161897, Note_on_c, 0, 74, 0
1, 161898, Note_on_c, 0, 84, 107
1, 161898, Note_on_c, 0, 57, 110
1, 161899, Note_on_c, 0, 69, 107
1, 161957, Note_on_c, 0, 69, 0
1, 161960, Note_on_c, 0, 84, 0
1, 161964, Note_on_c, 0, 57, 0
1, 161964, Note_on_c, 0, 72, 0
1, 161965, Note_on_c, 0, 71, 107
1, 161965, Note_on_c, 0, 56, 110
1, 161966, Note_on_c, 0, 83, 107
1, 161967, Note_on_c, 0, 68, 107
1, 162034, Note_on_c, 0, 74, 107
1, 162035, Note_on_c, 0, 86, 107
1, 162035, Note_on_c, 0, 59, 110
1, 162036, Note_on_c, 0, 71, 107
1, 162041, Note_on_c, 0, 71, 0
1, 162042, Note_on_c, 0, 68, 0
1, 162045, Note_on_c, 0, 56, 0
1, 162045, Note_on_c, 0, 83, 0
1, 162104, Note_on_c, 0, 69, 107
1, 162105, Note_on_c, 0, 81, 107
1, 162106, Note_on_c, 0, 66, 110
1, 162107, Note_on_c, 0, 54, 110
1, 162112, Note_on_c, 0, 71, 0
1, 162114, Note_on_c, 0, 59, 0
1, 162116, Note_on_c, 0, 86, 0
1, 162117, Note_on_c, 0, 74, 0
1, 162170, Note_on_c, 0, 71, 107
1, 162171, Note_on_c, 0, 86, 107
1, 162172, Note_on_c, 0, 59, 110
1, 162173, Note_on_c, 0, 74, 107
1, 162176, Note_on_c, 0, 81, 0
1, 162180, Note_on_c, 0, 69, 0
1, 162188, Note_on_c, 0, 54, 0
1, 162192, Note_on_c, 0, 66, 0
1, 162236, Note_on_c, 0, 80, 107
1, 162237, Note_on_c, 0, 68, 107
1, 162239, Note_on_c, 0, 52, 110
1, 162240, Note_on_c, 0, 64, 110
1, 162243, Note_on_c, 0, 74, 0
1, 162246, Note_on_c, 0, 59, 0
1, 162251, Note_on_c, 0, 86, 0
1, 162252, Note_on_c, 0, 71, 0
1, 162298, Note_on_c, 0, 68, 0
1, 162302, Note_on_c, 0, 80, 0
1, 162304, Note_on_c, 0, 71, 107
1, 162305, Note_on_c, 0, 83, 107
1, 162306, Note_on_c, 0, 68, 107
1, 162307, Note_on_c, 0, 56, 110
1, 162311, Note_on_c, 0, 52, 0
1, 162312, Note_on_c, 0, 64, 0
1, 162365, Note_on_c, 0, 68, 0
1, 162368, Note_on_c, 0, 83, 0
1, 162368, Note_on_c, 0, 56, 0
1, 162372, Note_on_c, 0, 71, 0
1, 162374, Note_on_c, 0, 84, 107
1, 162375, Note_on_c, 0, 72, 107
1, 162376, Note_on_c, 0, 57, 110
1, 162377, Note_on_c, 0, 69, 107
1, 162428, Note_on_c, 0, 69, 0
1, 162432, Note_on_c, 0, 72, 0
1, 162441, Note_on_c, 0, 76, 107
1, 162443, Note_on_c, 0, 88, 107
1, 162443, Note_on_c, 0, 60, 110
1, 162444, Note_on_c, 0, 72, 107
1, 162446, Note_on_c, 0, 57, 0
1, 162447, Note_on_c, 0, 84, 0
1, 162497, Note_on_c, 0, 88, 0
1, 162501, Note_on_c, 0, 72, 0
1, 162502, Note_on_c, 0, 76, 0
1, 162504, Note_on_c, 0, 60, 0
1, 162504, Note_on_c, 0, 74, 107
1, 162505, Note_on_c, 0, 59, 110
1, 162506, Note_on_c, 0, 71, 107
1, 162507, Note_on_c, 0, 86, 107
1, 162565, Note_on_c, 0, 86, 0
1, 162569, Note_on_c, 0, 71, 0
1, 162572, Note_on_c, 0, 57, 110
1, 162573, Note_on_c, 0, 74, 0
1, 162575, Note_on_c, 0, 84, 107
1, 162576, Note_on_c, 0, 59, 0
1, 162577, Note_on_c, 0, 72, 107
1, 162578, Note_on_c, 0, 69, 107
1, 162637, Note_on_c, 0, 69, 0
1, 162638, Note_on_c, 0, 57, 0
1, 162639, Note_on_c, 0, 72, 0
1, 162643, Note_on_c, 0, 84, 0
1, 162644, Note_on_c, 0, 71, 107
1, 162645, Note_on_c, 0, 83, 107
1, 162647, Note_on_c, 0, 68, 107
1, 162648, Note_on_c, 0, 56, 110
1, 162696, Note_on_c, 0, 68, 0
1, 162701, Note_on_c, 0, 56, 0
1, 162706, Note_on_c, 0, 83, 0
1, 162708, Note_on_c, 0, 71, 0
1, 162711, Note_on_c, 0, 69, 107
1, 162711, Note_on_c, 0, 81, 107
1, 162712, Note_on_c, 0, 54, 110
1, 162712, Note_on_c, 0, 66, 110
1, 162774, Note_on_c, 0, 69, 0
1, 162777, Note_on_c, 0, 81, 0
1, 162778, Note_on_c, 0, 68, 107
1, 162781, Note_on_c, 0, 80, 107
1, 162784, Note_on_c, 0, 54, 0
1, 162784, Note_on_c, 0, 52, 110
1, 162785, Note_on_c, 0, 64, 110
1, 162787, Note_on_c, 0, 66, 0
1, 162848, Note_on_c, 0, 68, 0
1, 162850, Note_on_c, 0, 71, 107
1, 162852, Note_on_c, 0, 83, 107
1, 162852, Note_on_c, 0, 68, 107
1, 162853, Note_on_c, 0, 56, 110
1, 162857, Note_on_c, 0, 52, 0
1, 162877, Note_on_c, 0, 80, 0
1, 162892, Note_on_c, 0, 64, 0
1, 162914, Note_on_c, 0, 65, 110
1, 162915, Note_on_c, 0, 77, 107
1, 162916, Note_on_c, 0, 50, 110
1, 162917, Note_on_c, 0, 62, 110
1, 162922, Note_on_c, 0, 83, 0
1, 162933, Note_on_c, 0, 56, 0
1, 162936, Note_on_c, 0, 68, 0
1, 162939, Note_on_c, 0, 71, 0
1, 162984, Note_on_c, 0, 68, 107
1, 162984, Note_on_c, 0, 71, 107
1, 162985, Note_on_c, 0, 83, 107
1, 162985, Note_on_c, 0, 56, 110
1, 162986, Note_on_c, 0, 50, 0
1, 162988, Note_on_c, 0, 77, 0
1, 163004, Note_on_c, 0, 62, 0
1, 163008, Note_on_c, 0, 65, 0
1, 163048, Note_on_c, 0, 64, 110
1, 163049, Note_on_c, 0, 76, 107
1, 163049, Note_on_c, 0, 60, 110
1, 163050, Note_on_c, 0, 48, 115
1, 163067, Note_on_c, 0, 68, 0
1, 163068, Note_on_c, 0, 56, 0
1, 163069, Note_on_c, 0, 83, 0
1, 163085, Note_on_c, 0, 71, 0
1, 163112, Note_on_c, 0, 64, 0
1, 163114, Note_on_c, 0, 68, 107
1, 163115, Note_on_c, 0, 80, 107
1, 163116, Note_on_c, 0, 52, 110
1, 163118, Note_on_c, 0, 64, 110
1, 163121, Note_on_c, 0, 60, 0
1, 163123, Note_on_c, 0, 48, 0
1, 163127, Note_on_c, 0, 76, 0
1, 163176, Note_on_c, 0, 64, 0
1, 163178, Note_on_c, 0, 52, 0
1, 163180, Note_on_c, 0, 80, 0
1, 163181, Note_on_c, 0, 68, 0
1, 163181, Note_on_c, 0, 69, 107
1, 163182, Note_on_c, 0, 81, 107
1, 163182, Note_on_c, 0, 54, 110
1, 163183, Note_on_c, 0, 66, 110
1, 163241, Note_on_c, 0, 81, 0
1, 163243, Note_on_c, 0, 54, 0
1, 163246, Note_on_c, 0, 72, 107
1, 163247, Note_on_c, 0, 84, 107
1, 163248, Note_on_c, 0, 57, 110
1, 163249, Note_on_c, 0, 66, 0
1, 163250, Note_on_c, 0, 69, 107
1, 163258, Note_on_c, 0, 69, 0
1, 163313, Note_on_c, 0, 78, 107
1, 163315, Note_on_c, 0, 66, 110
1, 163315, Note_on_c, 0, 50, 110
1, 163316, Note_on_c, 0, 62, 110
1, 163320, Note_on_c, 0, 57, 0
1, 163328, Note_on_c, 0, 69, 0
1, 163338, Note_on_c, 0, 84, 0
1, 163341, Note_on_c, 0, 72, 0
1, 163375, Note_on_c, 0, 66, 0
1, 163378, Note_on_c, 0, 50, 0
1, 163379, Note_on_c, 0, 78, 0
1, 163379, Note_on_c, 0, 69, 107
1, 163380, Note_on_c, 0, 81, 107
1, 163380, Note_on_c, 0, 54, 110
1, 163381, Note_on_c, 0, 66, 110
1, 163386, Note_on_c, 0, 62, 0
1, 163428, Note_on_c, 0, 66, 0
1, 163432, Note_on_c, 0, 54, 0
1, 163436, Note_on_c, 0, 81, 0
1, 163436, Note_on_c, 0, 69, 0
1, 163440, Note_on_c, 0, 71, 107
1, 163440, Note_on_c, 0, 56, 110
1, 163441, Note_on_c, 0, 83, 107
1, 163442, Note_on_c, 0, 68, 107
1, 163500, Note_on_c, 0, 83, 0
1, 163501, Note_on_c, 0, 56, 0
1, 163505, Note_on_c, 0, 74, 107
1, 163507, Note_on_c, 0, 86, 107
1, 163508, Note_on_c, 0, 71, 107
1, 163509, Note_on_c, 0, 59, 110
1, 163511, Note_on_c, 0, 68, 0
1, 163516, Note_on_c, 0, 71, 0
1, 163575, Note_on_c, 0, 80, 107
1, 163576, Note_on_c, 0, 68, 107
1, 163576, Note_on_c, 0, 64, 110
1, 163578, Note_on_c, 0, 52, 110
1, 163590, Note_on_c, 0, 59, 0
1, 163595, Note_on_c, 0, 71, 0
1, 163600, Note_on_c, 0, 86, 0
1, 163603, Note_on_c, 0, 74, 0
1, 163635, Note_on_c, 0, 52, 0
1, 163636, Note_on_c, 0, 80, 0
1, 163639, Note_on_c, 0, 68, 0
1, 163642, Note_on_c, 0, 83, 107
1, 163643, Note_on_c, 0, 71, 107
1, 163643, Note_on_c, 0, 66, 110
1, 163644, Note_on_c, 0, 54, 110
1, 163650, Note_on_c, 0, 64, 0
1, 163700, Note_on_c, 0, 54, 0
1, 163703, Note_on_c, 0, 71, 0
1, 163704, Note_on_c, 0, 83, 0
1, 163705, Note_on_c, 0, 72, 107
1, 163706, Note_on_c, 0, 84, 107
1, 163707, Note_on_c, 0, 69, 107
1, 163708, Note_on_c, 0, 57, 110
1, 163712, Note_on_c, 0, 66, 0
1, 163766, Note_on_c, 0, 57, 0
1, 163770, Note_on_c, 0, 84, 0
1, 163771, Note_on_c, 0, 72, 0
1, 163774, Note_on_c, 0, 69, 0
1, 163774, Note_on_c, 0, 72, 107
1, 163775, Note_on_c, 0, 76, 107
1, 163775, Note_on_c, 0, 60, 110
1, 163776, Note_on_c, 0, 88, 107
1, 163837, Note_on_c, 0, 69, 107
1, 163838, Note_on_c, 0, 81, 107
1, 163838, Note_on_c, 0, 54, 110
1, 163839, Note_on_c, 0, 66, 110
1, 163857, Note_on_c, 0, 60, 0
1, 163860, Note_on_c, 0, 76, 0
1, 163861, Note_on_c, 0, 72, 0
1, 163875, Note_on_c, 0, 88, 0
1, 163896, Note_on_c, 0, 66, 0
1, 163899, Note_on_c, 0, 54, 0
1, 163900, Note_on_c, 0, 81, 0
1, 163902, Note_on_c, 0, 71, 107
1, 163903, Note_on_c, 0, 69, 0
1, 163904, Note_on_c, 0, 56, 110
1, 163906, Note_on_c, 0, 83, 107
1, 163907, Note_on_c, 0, 68, 107
1, 163964, Note_on_c, 0, 68, 0
1, 163964, Note_on_c, 0, 56, 0
1, 163966, Note_on_c, 0, 83, 0
1, 163968, Note_on_c, 0, 71, 0
1, 163969, Note_on_c, 0, 84, 107
1, 163970, Note_on_c, 0, 72, 107
1, 163971, Note_on_c, 0, 69, 107
1, 163972, Note_on_c, 0, 57, 110
1, 164029, Note_on_c, 0, 69, 0
1, 164032, Note_on_c, 0, 72, 0
1, 164033, Note_on_c, 0, 84, 0
1, 164034, Note_on_c, 0, 57, 0
1, 164035, Note_on_c, 0, 76, 107
1, 164036, Note_on_c, 0, 88, 107
1, 164036, Note_on_c, 0, 72, 107
1, 164037, Note_on_c, 0, 60, 110
1, 164102, Note_on_c, 0, 71, 107
1, 164103, Note_on_c, 0, 83, 107
1, 164104, Note_on_c, 0, 68, 107
1, 164104, Note_on_c, 0, 56, 110
1, 164108, Note_on_c, 0, 72, 0
1, 164109, Note_on_c, 0, 60, 0
1, 164113, Note_on_c, 0, 76, 0
1, 164126, Note_on_c, 0, 88, 0
1, 164162, Note_on_c, 0, 68, 0
1, 164164, Note_on_c, 0, 56, 0
1, 164166, Note_on_c, 0, 83, 0
1, 164167, Note_on_c, 0, 72, 107
1, 164168, Note_on_c, 0, 57, 110
1, 164169, Note_on_c, 0, 71, 0
1, 164170, Note_on_c, 0, 84, 107
1, 164171, Note_on_c, 0, 69, 107
1, 164233, Note_on_c, 0, 84, 0
1, 164234, Note_on_c, 0, 69, 0
1, 164236, Note_on_c, 0, 57, 0
1, 164237, Note_on_c, 0, 74, 107
1, 164237, Note_on_c, 0, 59, 110
1, 164238, Note_on_c, 0, 86, 107
1, 164239, Note_on_c, 0, 71, 107
1, 164240, Note_on_c, 0, 72, 0
1, 164301, Note_on_c, 0, 71, 0
1, 164301, Note_on_c, 0, 59, 0
1, 164302, Note_on_c, 0, 74, 0
1, 164302, Note_on_c, 0, 89, 107
1, 164303, Note_on_c, 0, 77, 107
1, 164304, Note_on_c, 0, 86, 0
1, 164304, Note_on_c, 0, 74, 107
1, 164304, Note_on_c, 0, 62, 110
1, 164352, Note_on_c, 0, 62, 0
1, 164354, Note_on_c, 0, 74, 0
1, 164358, Note_on_c, 0, 77, 0
1, 164362, Note_on_c, 0, 89, 0
1, 164362, Note_on_c, 0, 88, 107
1, 164363, Note_on_c, 0, 76, 107
1, 164364, Note_on_c, 0, 72, 107
1, 164364, Note_on_c, 0, 60, 110
1, 164419, Note_on_c, 0, 60, 0
1, 164422, Note_on_c, 0, 72, 0
1, 164423, Note_on_c, 0, 88, 0
1, 164424, Note_on_c, 0, 76, 0
1, 164425, Note_on_c, 0, 74, 107
1, 164426, Note_on_c, 0, 59, 110
1, 164427, Note_on_c, 0, 71, 107
1, 164428, Note_on_c, 0, 86, 107
1, 164484, Note_on_c, 0, 59, 0
1, 164486, Note_on_c, 0, 71, 0
1, 164487, Note_on_c, 0, 86, 0
1, 164488, Note_on_c, 0, 74, 0
1, 164489, Note_on_c, 0, 57, 110
1, 164491, Note_on_c, 0, 84, 107
1, 164492, Note_on_c, 0, 69, 107
1, 164492, Note_on_c, 0, 72, 107
1, 164545, Note_on_c, 0, 69, 0
1, 164546, Note_on_c, 0, 57, 0
1, 164547, Note_on_c, 0, 72, 0
1, 164551, Note_on_c, 0, 84, 0
1, 164552, Note_on_c, 0, 56, 110
1, 164553, Note_on_c, 0, 68, 107
1, 164554, Note_on_c, 0, 83, 107
1, 164555, Note_on_c, 0, 71, 107
1, 164611, Note_on_c, 0, 83, 0
1, 164614, Note_on_c, 0, 71, 0
1, 164615, Note_on_c, 0, 68, 0
1, 164616, Note_on_c, 0, 72, 107
1, 164617, Note_on_c, 0, 84, 107
1, 164618, Note_on_c, 0, 69, 107
1, 164619, Note_on_c, 0, 57, 110
1, 164620, Note_on_c, 0, 56, 0
1, 164683, Note_on_c, 0, 88, 107
1, 164684, Note_on_c, 0, 76, 107
1, 164688, Note_on_c, 0, 84, 0
1, 164693, Note_on_c, 0, 72, 0
1, 164748, Note_on_c, 0, 93, 107
1, 164749, Note_on_c, 0, 81, 107
1, 164749, Note_on_c, 0, 52, 110
1, 164750, Note_on_c, 0, 64, 110
1, 164756, Note_on_c, 0, 76, 0
1, 164757, Note_on_c, 0, 88, 0
1, 164767, Note_on_c, 0, 57, 0
1, 164768, Note_on_c, 0, 69, 0
1, 164808, Note_on_c, 0, 81, 0
1, 164811, Note_on_c, 0, 93, 0
1, 164813, Note_on_c, 0, 80, 107
1, 164816, Note_on_c, 0, 92, 107
1, 164874, Note_on_c, 0, 64, 0
1, 164876, Note_on_c, 0, 92, 0
1, 164877, Note_on_c, 0, 52, 0
1, 164879, Note_on_c, 0, 80, 0
1, 164882, Note_on_c, 0, 81, 107
1, 164882, Note_on_c, 0, 53, 110
1, 164883, Note_on_c, 0, 93, 107
1, 164885, Note_on_c, 0, 65, 110
1, 164951, Note_on_c, 0, 74, 107
1, 164952, Note_on_c, 0, 86, 107
1, 164959, Note_on_c, 0, 81, 0
1, 164975, Note_on_c, 0, 93, 0
1, 165010, Note_on_c, 0, 86, 0
1, 165014, Note_on_c, 0, 74, 0
1, 165015, Note_on_c, 0, 76, 107
1, 165017, Note_on_c, 0, 88, 107
1, 165017, Note_on_c, 0, 50, 110
1, 165018, Note_on_c, 0, 62, 110
1, 165037, Note_on_c, 0, 65, 0
1, 165039, Note_on_c, 0, 53, 0
1, 165070, Note_on_c, 0, 76, 0
1, 165073, Note_on_c, 0, 88, 0
1, 165075, Note_on_c, 0, 77, 107
1, 165077, Note_on_c, 0, 89, 107
1, 165130, Note_on_c, 0, 50, 0
1, 165131, Note_on_c, 0, 62, 0
1, 165138, Note_on_c, 0, 80, 107
1, 165139, Note_on_c, 0, 68, 107
1, 165140, Note_on_c, 0, 64, 110
1, 165141, Note_on_c, 0, 52, 110
1, 165143, Note_on_c, 0, 77, 0
1, 165169, Note_on_c, 0, 89, 0
1, 165202, Note_on_c, 0, 71, 107
1, 165203, Note_on_c, 0, 83, 107
1, 165209, Note_on_c, 0, 80, 0
1, 165224, Note_on_c, 0, 68, 0
1, 165268, Note_on_c, 0, 40, 115
1, 165269, Note_on_c, 0, 76, 107
1, 165270, Note_on_c, 0, 52, 110
1, 165271, Note_on_c, 0, 88, 107
1, 165272, Note_on_c, 0, 83, 0
1, 165275, Note_on_c, 0, 71, 0
1, 165282, Note_on_c, 0, 52, 0
1, 165285, Note_on_c, 0, 64, 0
1, 165328, Note_on_c, 0, 88, 0
1, 165332, Note_on_c, 0, 74, 107
1, 165335, Note_on_c, 0, 86, 107
1, 165339, Note_on_c, 0, 76, 0
1, 165393, Note_on_c, 0, 74, 0
1, 165396, Note_on_c, 0, 52, 0
1, 165399, Note_on_c, 0, 57, 110
1, 165399, Note_on_c, 0, 45, 115
1, 165400, Note_on_c, 0, 86, 0
1, 165401, Note_on_c, 0, 69, 107
1, 165402, Note_on_c, 0, 72, 107
1, 165403, Note_on_c, 0, 81, 107
1, 165403, Note_on_c, 0, 84, 107
1, 165404, Note_on_c, 0, 33, 115
1, 165420, Note_on_c, 0, 40, 0
1, 165457, Note_on_c, 0, 72, 0
1, 165463, Note_on_c, 0, 76, 107
1, 165463, Note_on_c, 0, 88, 107
1, 165468, Note_on_c, 0, 84, 0
1, 165527, Note_on_c, 0, 92, 107
1, 165528, Note_on_c, 0, 80, 107
1, 165537, Note_on_c, 0, 88, 0
1, 165540, Note_on_c, 0, 76, 0
1, 165583, Note_on_c, 0, 92, 0
1, 165592, Note_on_c, 0, 93, 107
1, 165593, Note_on_c, 0, 81, 107
1, 165597, Note_on_c, 0, 80, 0
1, 165598, Note_on_c, 0, 81, 0
1, 165651, Note_on_c, 0, 69, 0
1, 165657, Note_on_c, 0, 70, 107
1, 165658, Note_on_c, 0, 82, 107
1, 165684, Note_on_c, 0, 93, 0
1, 165698, Note_on_c, 0, 81, 0
1, 165727, Note_on_c, 0, 74, 107
1, 165728, Note_on_c, 0, 86, 107
1, 165784, Note_on_c, 0, 86, 0
1, 165790, Note_on_c, 0, 77, 107
1, 165791, Note_on_c, 0, 89, 107
1, 165798, Note_on_c, 0, 74, 0
1, 165852, Note_on_c, 0, 89, 0
1, 165854, Note_on_c, 0, 81, 107
1, 165857, Note_on_c, 0, 93, 107
1, 165866, Note_on_c, 0, 77, 0
1, 165911, Note_on_c, 0, 82, 0
1, 165918, Note_on_c, 0, 70, 0
1, 165920, Note_on_c, 0, 71, 107
1, 165922, Note_on_c, 0, 83, 107
1, 165927, Note_on_c, 0, 81, 0
1, 165958, Note_on_c, 0, 93, 0
1, 165991, Note_on_c, 0, 74, 107
1, 165992, Note_on_c, 0, 86, 107
1, 166047, Note_on_c, 0, 86, 0
1, 166054, Note_on_c, 0, 89, 107
1, 166055, Note_on_c, 0, 77, 107
1, 166060, Note_on_c, 0, 74, 0
1, 166113, Note_on_c, 0, 89, 0
1, 166119, Note_on_c, 0, 92, 107
1, 166120, Note_on_c, 0, 80, 107
1, 166125, Note_on_c, 0, 77, 0
1, 166173, Note_on_c, 0, 71, 0
1, 166175, Note_on_c, 0, 92, 0
1, 166176, Note_on_c, 0, 80, 0
1, 166176, Note_on_c, 0, 83, 0
1, 166180, Note_on_c, 0, 93, 107
1, 166181, Note_on_c, 0, 84, 107
1, 166183, Note_on_c, 0, 81, 107
1, 166184, Note_on_c, 0, 72, 107
1, 166287, Note_on_c, 0, 33, 0
1, 166288, Note_on_c, 0, 45, 0
1, 166292, Note_on_c, 0, 57, 0
1, 166315, Note_on_c, 0, 45, 115
1, 166316, Note_on_c, 0, 57, 110
1, 166369, Note_on_c, 0, 45, 0
1, 166370, Note_on_c, 0, 57, 0
1, 166383, Note_on_c, 0, 59, 110
1, 166385, Note_on_c, 0, 47, 115
1, 166436, Note_on_c, 0, 47, 0
1, 166439, Note_on_c, 0, 81, 0
1, 166440, Note_on_c, 0, 72, 0
1, 166440, Note_on_c, 0, 59, 0
1, 166443, Note_on_c, 0, 93, 0
1, 166444, Note_on_c, 0, 84, 0
1, 166446, Note_on_c, 0, 81, 107
1, 166448, Note_on_c, 0, 93, 107
1, 166449, Note_on_c, 0, 84, 107
1, 166449, Note_on_c, 0, 72, 107
1, 166451, Note_on_c, 0, 60, 110
1, 166451, Note_on_c, 0, 48, 115
1, 166562, Note_on_c, 0, 60, 0
1, 166565, Note_on_c, 0, 48, 0
1, 166568, Note_on_c, 0, 72, 0
1, 166569, Note_on_c, 0, 84, 0
1, 166571, Note_on_c, 0, 81, 0
1, 166572, Note_on_c, 0, 93, 0
1, 166575, Note_on_c, 0, 92, 107
1, 166576, Note_on_c, 0, 83, 107
1, 166577, Note_on_c, 0, 80, 107
1, 166577, Note_on_c, 0, 71, 107
1, 166579, Note_on_c, 0, 60, 110
1, 166580, Note_on_c, 0, 48, 115
1, 166624, Note_on_c, 0, 60, 0
1, 166630, Note_on_c, 0, 48, 0
1, 166641, Note_on_c, 0, 62, 110
1, 166643, Note_on_c, 0, 50, 110
1, 166688, Note_on_c, 0, 62, 0
1, 166692, Note_on_c, 0, 50, 0
1, 166696, Note_on_c, 0, 83, 0
1, 166698, Note_on_c, 0, 80, 0
1, 166701, Note_on_c, 0, 92, 0
1, 166703, Note_on_c, 0, 71, 0
1, 166704, Note_on_c, 0, 72, 107
1, 166705, Note_on_c, 0, 93, 107
1, 166706, Note_on_c, 0, 81, 107
1, 166707, Note_on_c, 0, 84, 107
1, 166708, Note_on_c, 0, 64, 110
1, 166708, Note_on_c, 0, 52, 110
1, 166828, Note_on_c, 0, 52, 0
1, 166829, Note_on_c, 0, 64, 0
1, 166837, Note_on_c, 0, 64, 110
1, 166838, Note_on_c, 0, 52, 110
1, 166890, Note_on_c, 0, 52, 0
1, 166895, Note_on_c, 0, 64, 0
1, 166904, Note_on_c, 0, 54, 110
1, 166905, Note_on_c, 0, 66, 110
1, 166966, Note_on_c, 0, 76, 107
1, 166967, Note_on_c, 0, 44, 115
1, 166968, Note_on_c, 0, 64, 110
1, 166969, Note_on_c, 0, 66, 0
1, 166970, Note_on_c, 0, 56, 110
1, 166971, Note_on_c, 0, 54, 0
1, 166971, Note_on_c, 0, 68, 107
1, 167010, Note_on_c, 0, 84, 0
1, 167012, Note_on_c, 0, 72, 0
1, 167015, Note_on_c, 0, 93, 0
1, 167016, Note_on_c, 0, 81, 0
1, 167033, Note_on_c, 0, 74, 107
1, 167034, Note_on_c, 0, 86, 107
1, 167098, Note_on_c, 0, 76, 107
1, 167099, Note_on_c, 0, 88, 107
1, 167108, Note_on_c, 0, 86, 0
1, 167121, Note_on_c, 0, 74, 0
1, 167157, Note_on_c, 0, 76, 0
1, 167159, Note_on_c, 0, 95, 107
1, 167160, Note_on_c, 0, 83, 107
1, 167182, Note_on_c, 0, 88, 0
1, 167204, Note_on_c, 0, 68, 0
1, 167210, Note_on_c, 0, 44, 0
1, 167211, Note_on_c, 0, 56, 0
1, 167212, Note_on_c, 0, 76, 0
1, 167213, Note_on_c, 0, 64, 0
1, 167218, Note_on_c, 0, 65, 110
1, 167219, Note_on_c, 0, 45, 115
1, 167220, Note_on_c, 0, 69, 107
1, 167221, Note_on_c, 0, 77, 107
1, 167221, Note_on_c, 0, 57, 110
1, 167236, Note_on_c, 0, 83, 0
1, 167274, Note_on_c, 0, 95, 0
1, 167275, Note_on_c, 0, 72, 107
1, 167276, Note_on_c, 0, 84, 107
1, 167342, Note_on_c, 0, 88, 107
1, 167343, Note_on_c, 0, 76, 107
1, 167350, Note_on_c, 0, 84, 0
1, 167364, Note_on_c, 0, 72, 0
1, 167407, Note_on_c, 0, 81, 107
1, 167408, Note_on_c, 0, 93, 107
1, 167415, Note_on_c, 0, 76, 0
1, 167434, Note_on_c, 0, 88, 0
1, 167459, Note_on_c, 0, 77, 0
1, 167460, Note_on_c, 0, 65, 0
1, 167469, Note_on_c, 0, 66, 110
1, 167471, Note_on_c, 0, 78, 107
1, 167486, Note_on_c, 0, 81, 0
1, 167523, Note_on_c, 0, 93, 0
1, 167530, Note_on_c, 0, 69, 107
1, 167530, Note_on_c, 0, 81, 107
1, 167540, Note_on_c, 0, 69, 0
1, 167595, Note_on_c, 0, 72, 107
1, 167596, Note_on_c, 0, 84, 107
1, 167602, Note_on_c, 0, 81, 0
1, 167663, Note_on_c, 0, 75, 107
1, 167664, Note_on_c, 0, 87, 107
1, 167667, Note_on_c, 0, 84, 0
1, 167669, Note_on_c, 0, 72, 0
1, 167701, Note_on_c, 0, 45, 0
1, 167703, Note_on_c, 0, 57, 0
1, 167726, Note_on_c, 0, 87, 0
1, 167726, Note_on_c, 0, 78, 0
1, 167727, Note_on_c, 0, 40, 115
1, 167728, Note_on_c, 0, 66, 0
1, 167729, Note_on_c, 0, 75, 0
1, 167730, Note_on_c, 0, 76, 107
1, 167730, Note_on_c, 0, 88, 107
1, 167731, Note_on_c, 0, 79, 107
1, 167731, Note_on_c, 0, 52, 110
1, 167732, Note_on_c, 0, 67, 110
1, 167733, Note_on_c, 0, 64, 110
1, 167755, Note_on_c, 0, 69, 0
1, 167850, Note_on_c, 0, 64, 0
1, 167851, Note_on_c, 0, 52, 0
1, 167852, Note_on_c, 0, 40, 0
1, 167861, Note_on_c, 0, 40, 115
1, 167862, Note_on_c, 0, 52, 110
1, 167913, Note_on_c, 0, 52, 0
1, 167916, Note_on_c, 0, 40, 0
1, 167924, Note_on_c, 0, 54, 110
1, 167926, Note_on_c, 0, 42, 115
1, 167977, Note_on_c, 0, 42, 0
1, 167979, Note_on_c, 0, 54, 0
1, 167980, Note_on_c, 0, 67, 0
1, 167983, Note_on_c, 0, 79, 0
1, 167985, Note_on_c, 0, 76, 0
1, 167986, Note_on_c, 0, 88, 0
1, 167987, Note_on_c, 0, 76, 107
1, 167988, Note_on_c, 0, 67, 110
1, 167989, Note_on_c, 0, 79, 107
1, 167989, Note_on_c, 0, 88, 107
1, 167990, Note_on_c, 0, 43, 115
1, 167991, Note_on_c, 0, 55, 110
1, 168103, Note_on_c, 0, 55, 0
1, 168104, Note_on_c, 0, 43, 0
1, 168111, Note_on_c, 0, 79, 0
1, 168112, Note_on_c, 0, 88, 0
1, 168113, Note_on_c, 0, 67, 0
1, 168115, Note_on_c, 0, 75, 107
1, 168117, Note_on_c, 0, 76, 0
1, 168117, Note_on_c, 0, 87, 107
1, 168118, Note_on_c, 0, 78, 107
1, 168119, Note_on_c, 0, 66, 110
1, 168120, Note_on_c, 0, 55, 110
1, 168120, Note_on_c, 0, 43, 115
1, 168168, Note_on_c, 0, 55, 0
1, 168172, Note_on_c, 0, 43, 0
1, 168181, Note_on_c, 0, 57, 110
1, 168183, Note_on_c, 0, 45, 115
1, 168239, Note_on_c, 0, 45, 0
1, 168240, Note_on_c, 0, 57, 0
1, 168243, Note_on_c, 0, 87, 0
1, 168244, Note_on_c, 0, 66, 0
1, 168249, Note_on_c, 0, 78, 0
1, 168253, Note_on_c, 0, 75, 0
1, 168253, Note_on_c, 0, 67, 110
1, 168254, Note_on_c, 0, 79, 107
1, 168255, Note_on_c, 0, 76, 107
1, 168256, Note_on_c, 0, 88, 107
1, 168257, Note_on_c, 0, 59, 110
1, 168258, Note_on_c, 0, 47, 115
1, 168376, Note_on_c, 0, 47, 0
1, 168379, Note_on_c, 0, 59, 0
1, 168388, Note_on_c, 0, 59, 110
1, 168389, Note_on_c, 0, 47, 115
1, 168409, Note_on_c, 0, 59, 0
1, 168412, Note_on_c, 0, 47, 0
1, 168421, Note_on_c, 0, 61, 110
1, 168422, Note_on_c, 0, 49, 110
1, 168448, Note_on_c, 0, 49, 0
1, 168452, Note_on_c, 0, 61, 0
1, 168456, Note_on_c, 0, 50, 110
1, 168457, Note_on_c, 0, 62, 110
1, 168515, Note_on_c, 0, 50, 0
1, 168516, Note_on_c, 0, 62, 0
1, 168518, Note_on_c, 0, 67, 0
1, 168519, Note_on_c, 0, 79, 0
1, 168520, Note_on_c, 0, 88, 0
1, 168521, Note_on_c, 0, 76, 0
1, 168526, Note_on_c, 0, 67, 110
1, 168528, Note_on_c, 0, 76, 107
1, 168528, Note_on_c, 0, 79, 107
1, 168529, Note_on_c, 0, 88, 107
1, 168529, Note_on_c, 0, 49, 110
1, 168530, Note_on_c, 0, 61, 110
1, 168559, Note_on_c, 0, 79, 0
1, 168564, Note_on_c, 0, 67, 0
1, 168564, Note_on_c, 0, 81, 107
1, 168565, Note_on_c, 0, 69, 107
1, 168596, Note_on_c, 0, 69, 0
1, 168599, Note_on_c, 0, 81, 0
1, 168603, Note_on_c, 0, 70, 107
1, 168604, Note_on_c, 0, 82, 107
1, 168796, Note_on_c, 0, 82, 0
1, 168798, Note_on_c, 0, 70, 0
1, 168799, Note_on_c, 0, 61, 0
1, 168801, Note_on_c, 0, 70, 107
1, 168802, Note_on_c, 0, 49, 0
1, 168803, Note_on_c, 0, 82, 107
1, 168804, Note_on_c, 0, 73, 107
1, 168804, Note_on_c, 0, 61, 110
1, 168818, Note_on_c, 0, 61, 0
1, 168822, Note_on_c, 0, 73, 0
1, 168829, Note_on_c, 0, 72, 107
1, 168830, Note_on_c, 0, 60, 110
1, 168851, Note_on_c, 0, 72, 0
1, 168853, Note_on_c, 0, 60, 0
1, 168860, Note_on_c, 0, 73, 107
1, 168861, Note_on_c, 0, 61, 110
1, 168910, Note_on_c, 0, 82, 0
1, 168912, Note_on_c, 0, 70, 0
1, 168925, Note_on_c, 0, 81, 107
1, 168926, Note_on_c, 0, 69, 107
1, 169049, Note_on_c, 0, 69, 0
1, 169052, Note_on_c, 0, 81, 0
1, 169056, Note_on_c, 0, 69, 107
1, 169057, Note_on_c, 0, 81, 107
1, 169156, Note_on_c, 0, 76, 0
1, 169159, Note_on_c, 0, 88, 0
1, 169180, Note_on_c, 0, 81, 0
1, 169183, Note_on_c, 0, 69, 0
1, 169187, Note_on_c, 0, 67, 110
1, 169188, Note_on_c, 0, 79, 107
1, 169309, Note_on_c, 0, 73, 0
1, 169310, Note_on_c, 0, 61, 0
1, 169317, Note_on_c, 0, 79, 0
1, 169320, Note_on_c, 0, 67, 0
1, 169322, Note_on_c, 0, 62, 110
1, 169323, Note_on_c, 0, 79, 107
1, 169324, Note_on_c, 0, 74, 107
1, 169325, Note_on_c, 0, 67, 110
1, 169445, Note_on_c, 0, 79, 0
1, 169446, Note_on_c, 0, 67, 0
1, 169451, Note_on_c, 0, 85, 107
1, 169454, Note_on_c, 0, 73, 107
1, 169455, Note_on_c, 0, 77, 107
1, 169455, Note_on_c, 0, 65, 110
1, 169514, Note_on_c, 0, 86, 107
1, 169515, Note_on_c, 0, 74, 107
1, 169521, Note_on_c, 0, 73, 0
1, 169522, Note_on_c, 0, 85, 0
1, 169570, Note_on_c, 0, 77, 0
1, 169576, Note_on_c, 0, 74, 0
1, 169577, Note_on_c, 0, 88, 107
1, 169579, Note_on_c, 0, 76, 107
1, 169581, Note_on_c, 0, 67, 110
1, 169582, Note_on_c, 0, 79, 107
1, 169584, Note_on_c, 0, 86, 0
1, 169590, Note_on_c, 0, 65, 0
1, 169701, Note_on_c, 0, 88, 0
1, 169702, Note_on_c, 0, 76, 0
1, 169712, Note_on_c, 0, 76, 107
1, 169713, Note_on_c, 0, 88, 107
1, 169714, Note_on_c, 0, 65, 110
1, 169716, Note_on_c, 0, 77, 107
1, 169731, Note_on_c, 0, 79, 0
1, 169736, Note_on_c, 0, 67, 0
1, 169775, Note_on_c, 0, 88, 0
1, 169778, Note_on_c, 0, 77, 107
1, 169778, Note_on_c, 0, 89, 107
1, 169790, Note_on_c, 0, 76, 0
1, 169802, Note_on_c, 0, 77, 0
1, 169837, Note_on_c, 0, 89, 0
1, 169839, Note_on_c, 0, 65, 0
1, 169841, Note_on_c, 0, 79, 107
1, 169844, Note_on_c, 0, 76, 107
1, 169845, Note_on_c, 0, 91, 107
1, 169845, Note_on_c, 0, 64, 110
1, 169871, Note_on_c, 0, 77, 0
1, 169966, Note_on_c, 0, 91, 0
1, 169971, Note_on_c, 0, 79, 0
1, 169973, Note_on_c, 0, 74, 107
1, 169975, Note_on_c, 0, 79, 107
1, 169975, Note_on_c, 0, 62, 110
1, 169976, Note_on_c, 0, 91, 107
1, 170031, Note_on_c, 0, 91, 0
1, 170032, Note_on_c, 0, 79, 0
1, 170037, Note_on_c, 0, 74, 0
1, 170040, Note_on_c, 0, 81, 107
1, 170041, Note_on_c, 0, 62, 0
1, 170041, Note_on_c, 0, 93, 107
1, 170054, Note_on_c, 0, 64, 0
1, 170099, Note_on_c, 0, 76, 0
1, 170104, Note_on_c, 0, 93, 0
1, 170106, Note_on_c, 0, 76, 107
1, 170107, Note_on_c, 0, 81, 0
1, 170108, Note_on_c, 0, 92, 107
1, 170108, Note_on_c, 0, 80, 107
1, 170110, Note_on_c, 0, 64, 110
1, 170136, Note_on_c, 0, 80, 0
1, 170139, Note_on_c, 0, 92, 0
1, 170148, Note_on_c, 0, 81, 107
1, 170149, Note_on_c, 0, 93, 107
1, 170177, Note_on_c, 0, 93, 0
1, 170180, Note_on_c, 0, 81, 0
1, 170194, Note_on_c, 0, 80, 107
1, 170194, Note_on_c, 0, 92, 107
1, 170219, Note_on_c, 0, 80, 0
1, 170220, Note_on_c, 0, 92, 0
1, 170229, Note_on_c, 0, 81, 107
1, 170230, Note_on_c, 0, 93, 107
1, 170252, Note_on_c, 0, 93, 0
1, 170253, Note_on_c, 0, 81, 0
1, 170261, Note_on_c, 0, 82, 107
1, 170263, Note_on_c, 0, 94, 107
1, 170263, Note_on_c, 0, 52, 110
1, 170266, Note_on_c, 0, 64, 110
1, 170278, Note_on_c, 0, 64, 0
1, 170289, Note_on_c, 0, 74, 0
1, 170289, Note_on_c, 0, 62, 0
1, 170311, Note_on_c, 0, 52, 0
1, 170324, Note_on_c, 0, 53, 110
1, 170326, Note_on_c, 0, 65, 110
1, 170380, Note_on_c, 0, 94, 0
1, 170382, Note_on_c, 0, 76, 0
1, 170383, Note_on_c, 0, 82, 0
1, 170391, Note_on_c, 0, 65, 0
1, 170392, Note_on_c, 0, 76, 107
1, 170392, Note_on_c, 0, 82, 107
1, 170393, Note_on_c, 0, 88, 107
1, 170394, Note_on_c, 0, 53, 0
1, 170395, Note_on_c, 0, 94, 107
1, 170396, Note_on_c, 0, 67, 110
1, 170396, Note_on_c, 0, 55, 110
1, 170419, Note_on_c, 0, 64, 0
1, 170511, Note_on_c, 0, 67, 0
1, 170514, Note_on_c, 0, 55, 0
1, 170515, Note_on_c, 0, 94, 0
1, 170518, Note_on_c, 0, 93, 107
1, 170519, Note_on_c, 0, 81, 107
1, 170519, Note_on_c, 0, 67, 110
1, 170520, Note_on_c, 0, 82, 0
1, 170520, Note_on_c, 0, 55, 110
1, 170568, Note_on_c, 0, 55, 0
1, 170573, Note_on_c, 0, 67, 0
1, 170583, Note_on_c, 0, 57, 110
1, 170584, Note_on_c, 0, 69, 107
1, 170622, Note_on_c, 0, 93, 0
1, 170626, Note_on_c, 0, 81, 0
1, 170648, Note_on_c, 0, 69, 0
1, 170649, Note_on_c, 0, 81, 107
1, 170650, Note_on_c, 0, 93, 107
1, 170651, Note_on_c, 0, 71, 107
1, 170652, Note_on_c, 0, 57, 0
1, 170652, Note_on_c, 0, 59, 110
1, 170771, Note_on_c, 0, 59, 0
1, 170772, Note_on_c, 0, 71, 0
1, 170777, Note_on_c, 0, 93, 0
1, 170778, Note_on_c, 0, 81, 0
1, 170779, Note_on_c, 0, 91, 107
1, 170780, Note_on_c, 0, 79, 107
1, 170781, Note_on_c, 0, 71, 107
1, 170782, Note_on_c, 0, 59, 110
1, 170844, Note_on_c, 0, 59, 0
1, 170846, Note_on_c, 0, 61, 110
1, 170847, Note_on_c, 0, 73, 107
1, 170848, Note_on_c, 0, 71, 0
1, 170884, Note_on_c, 0, 79, 0
1, 170888, Note_on_c, 0, 91, 0
1, 170911, Note_on_c, 0, 73, 0
1, 170913, Note_on_c, 0, 91, 107
1, 170915, Note_on_c, 0, 74, 107
1, 170916, Note_on_c, 0, 61, 0
1, 170916, Note_on_c, 0, 79, 107
1, 170916, Note_on_c, 0, 62, 110
1, 171031, Note_on_c, 0, 62, 0
1, 171034, Note_on_c, 0, 79, 0
1, 171036, Note_on_c, 0, 74, 0
1, 171036, Note_on_c, 0, 91, 0
1, 171045, Note_on_c, 0, 77, 107
1, 171047, Note_on_c, 0, 89, 107
1, 171048, Note_on_c, 0, 74, 107
1, 171048, Note_on_c, 0, 62, 110
1, 171101, Note_on_c, 0, 62, 0
1, 171103, Note_on_c, 0, 74, 0
1, 171112, Note_on_c, 0, 60, 110
1, 171113, Note_on_c, 0, 72, 107
1, 171154, Note_on_c, 0, 76, 0
1, 171155, Note_on_c, 0, 88, 0
1, 171178, Note_on_c, 0, 79, 107
1, 171179, Note_on_c, 0, 72, 0
1, 171180, Note_on_c, 0, 60, 0
1, 171180, Note_on_c, 0, 86, 107
1, 171180, Note_on_c, 0, 74, 107
1, 171181, Note_on_c, 0, 91, 107
1, 171182, Note_on_c, 0, 70, 107
1, 171183, Note_on_c, 0, 58, 110
1, 171192, Note_on_c, 0, 77, 0
1, 171193, Note_on_c, 0, 89, 0
1, 171302, Note_on_c, 0, 58, 0
1, 171304, Note_on_c, 0, 70, 0
1, 171313, Note_on_c, 0, 77, 107
1, 171314, Note_on_c, 0, 89, 107
1, 171316, Note_on_c, 0, 70, 107
1, 171316, Note_on_c, 0, 58, 110
1, 171326, Note_on_c, 0, 91, 0
1, 171333, Note_on_c, 0, 79, 0
1, 171379, Note_on_c, 0, 57, 110
1, 171380, Note_on_c, 0, 70, 0
1, 171381, Note_on_c, 0, 69, 107
1, 171382, Note_on_c, 0, 58, 0
1, 171448, Note_on_c, 0, 55, 110
1, 171449, Note_on_c, 0, 76, 107
1, 171450, Note_on_c, 0, 88, 107
1, 171451, Note_on_c, 0, 67, 110
1, 171455, Note_on_c, 0, 69, 0
1, 171458, Note_on_c, 0, 57, 0
1, 171461, Note_on_c, 0, 89, 0
1, 171465, Note_on_c, 0, 77, 0
1, 171568, Note_on_c, 0, 55, 0
1, 171571, Note_on_c, 0, 67, 0
1, 171578, Note_on_c, 0, 86, 107
1, 171579, Note_on_c, 0, 86, 0
1, 171580, Note_on_c, 0, 74, 107
1, 171581, Note_on_c, 0, 74, 0
1, 171582, Note_on_c, 0, 67, 110
1, 171582, Note_on_c, 0, 55, 110
1, 171646, Note_on_c, 0, 55, 0
1, 171647, Note_on_c, 0, 53, 110
1, 171647, Note_on_c, 0, 65, 110
1, 171648, Note_on_c, 0, 67, 0
1, 171674, Note_on_c, 0, 88, 0
1, 171676, Note_on_c, 0, 76, 0
1, 171714, Note_on_c, 0, 67, 110
1, 171715, Note_on_c, 0, 88, 107
1, 171716, Note_on_c, 0, 76, 107
1, 171717, Note_on_c, 0, 65, 0
1, 171718, Note_on_c, 0, 55, 110
1, 171720, Note_on_c, 0, 53, 0
1, 171834, Note_on_c, 0, 55, 0
1, 171840, Note_on_c, 0, 67, 0
1, 171844, Note_on_c, 0, 55, 110
1, 171846, Note_on_c, 0, 67, 110
1, 171900, Note_on_c, 0, 67, 0
1, 171902, Note_on_c, 0, 55, 0
1, 171910, Note_on_c, 0, 58, 110
1, 171912, Note_on_c, 0, 70, 107
1, 171950, Note_on_c, 0, 74, 0
1, 171958, Note_on_c, 0, 70, 0
1, 171963, Note_on_c, 0, 58, 0
1, 171970, Note_on_c, 0, 86, 0
1, 171972, Note_on_c, 0, 84, 107
1, 171973, Note_on_c, 0, 72, 107
1, 171974, Note_on_c, 0, 69, 107
1, 171976, Note_on_c, 0, 57, 110
1, 172007, Note_on_c, 0, 76, 0
1, 172072, Note_on_c, 0, 88, 0
1, 172089, Note_on_c, 0, 57, 0
1, 172092, Note_on_c, 0, 69, 0
1, 172101, Note_on_c, 0, 88, 107
1, 172102, Note_on_c, 0, 76, 107
1, 172103, Note_on_c, 0, 69, 107
1, 172103, Note_on_c, 0, 57, 110
1, 172167, Note_on_c, 0, 57, 0
1, 172168, Note_on_c, 0, 67, 110
1, 172168, Note_on_c, 0, 55, 110
1, 172169, Note_on_c, 0, 69, 0
1, 172239, Note_on_c, 0, 93, 107
1, 172239, Note_on_c, 0, 65, 110
1, 172241, Note_on_c, 0, 81, 107
1, 172241, Note_on_c, 0, 53, 110
1, 172243, Note_on_c, 0, 55, 0
1, 172248, Note_on_c, 0, 67, 0
1, 172261, Note_on_c, 0, 76, 0
1, 172262, Note_on_c, 0, 88, 0
1, 172293, Note_on_c, 0, 93, 0
1, 172294, Note_on_c, 0, 81, 0
1, 172307, Note_on_c, 0, 91, 107
1, 172308, Note_on_c, 0, 79, 107
1, 172361, Note_on_c, 0, 91, 0
1, 172364, Note_on_c, 0, 79, 0
1, 172367, Note_on_c, 0, 53, 0
1, 172368, Note_on_c, 0, 65, 0
1, 172374, Note_on_c, 0, 93, 107
1, 172375, Note_on_c, 0, 81, 107
1, 172375, Note_on_c, 0, 65, 110
1, 172376, Note_on_c, 0, 53, 110
1, 172423, Note_on_c, 0, 53, 0
1, 172424, Note_on_c, 0, 65, 0
1, 172433, Note_on_c, 0, 52, 110
1, 172434, Note_on_c, 0, 64, 110
1, 172485, Note_on_c, 0, 64, 0
1, 172491, Note_on_c, 0, 52, 0
1, 172494, Note_on_c, 0, 86, 107
1, 172495, Note_on_c, 0, 66, 110
1, 172496, Note_on_c, 0, 54, 110
1, 172497, Note_on_c, 0, 74, 107
1, 172512, Note_on_c, 0, 93, 0
1, 172513, Note_on_c, 0, 81, 0
1, 172591, Note_on_c, 0, 66, 0
1, 172611, Note_on_c, 0, 72, 0
1, 172612, Note_on_c, 0, 84, 0
1, 172616, Note_on_c, 0, 54, 0
1, 172622, Note_on_c, 0, 54, 110
1, 172622, Note_on_c, 0, 66, 110
1, 172681, Note_on_c, 0, 66, 0
1, 172682, Note_on_c, 0, 54, 0
1, 172687, Note_on_c, 0, 57, 110
1, 172688, Note_on_c, 0, 69, 107
1, 172733, Note_on_c, 0, 74, 0
1, 172738, Note_on_c, 0, 86, 0
1, 172753, Note_on_c, 0, 70, 107
1, 172754, Note_on_c, 0, 82, 107
1, 172754, Note_on_c, 0, 55, 110
1, 172755, Note_on_c, 0, 67, 110
1, 172757, Note_on_c, 0, 69, 0
1, 172759, Note_on_c, 0, 57, 0
1, 172818, Note_on_c, 0, 86, 107
1, 172818, Note_on_c, 0, 74, 107
1, 172864, Note_on_c, 0, 55, 0
1, 172865, Note_on_c, 0, 67, 0
1, 172866, Note_on_c, 0, 86, 0
1, 172866, Note_on_c, 0, 74, 0
1, 172874, Note_on_c, 0, 76, 107
1, 172875, Note_on_c, 0, 88, 107
1, 172876, Note_on_c, 0, 55, 110
1, 172878, Note_on_c, 0, 67, 110
1, 172928, Note_on_c, 0, 67, 0
1, 172930, Note_on_c, 0, 88, 0
1, 172933, Note_on_c, 0, 76, 0
1, 172933, Note_on_c, 0, 55, 0
1, 172939, Note_on_c, 0, 77, 107
1, 172940, Note_on_c, 0, 53, 110
1, 172941, Note_on_c, 0, 89, 107
1, 172943, Note_on_c, 0, 65, 110
1, 172990, Note_on_c, 0, 65, 0
1, 172992, Note_on_c, 0, 89, 0
1, 172994, Note_on_c, 0, 53, 0
1, 172996, Note_on_c, 0, 77, 0
1, 173002, Note_on_c, 0, 79, 107
1, 173003, Note_on_c, 0, 91, 107
1, 173005, Note_on_c, 0, 52, 110
1, 173006, Note_on_c, 0, 64, 110
1, 173067, Note_on_c, 0, 76, 107
1, 173068, Note_on_c, 0, 79, 0
1, 173069, Note_on_c, 0, 88, 107
1, 173075, Note_on_c, 0, 91, 0
1, 173120, Note_on_c, 0, 52, 0
1, 173121, Note_on_c, 0, 64, 0
1, 173122, Note_on_c, 0, 76, 0
1, 173123, Note_on_c, 0, 88, 0
1, 173130, Note_on_c, 0, 77, 107
1, 173133, Note_on_c, 0, 89, 107
1, 173134, Note_on_c, 0, 64, 110
1, 173135, Note_on_c, 0, 52, 110
1, 173188, Note_on_c, 0, 77, 0
1, 173190, Note_on_c, 0, 52, 0
1, 173191, Note_on_c, 0, 64, 0
1, 173193, Note_on_c, 0, 89, 0
1, 173197, Note_on_c, 0, 79, 107
1, 173198, Note_on_c, 0, 50, 110
1, 173199, Note_on_c, 0, 91, 107
1, 173200, Note_on_c, 0, 62, 110
1, 173260, Note_on_c, 0, 62, 0
1, 173261, Note_on_c, 0, 50, 0
1, 173262, Note_on_c, 0, 85, 107
1, 173264, Note_on_c, 0, 73, 107
1, 173265, Note_on_c, 0, 52, 110
1, 173266, Note_on_c, 0, 64, 110
1, 173274, Note_on_c, 0, 91, 0
1, 173279, Note_on_c, 0, 79, 0
1, 173370, Note_on_c, 0, 82, 0
1, 173376, Note_on_c, 0, 70, 0
1, 173392, Note_on_c, 0, 70, 107
1, 173392, Note_on_c, 0, 82, 107
1, 173447, Note_on_c, 0, 70, 0
1, 173451, Note_on_c, 0, 82, 0
1, 173457, Note_on_c, 0, 69, 107
1, 173458, Note_on_c, 0, 81, 107
1, 173516, Note_on_c, 0, 81, 0
1, 173519, Note_on_c, 0, 69, 0
1, 173525, Note_on_c, 0, 79, 107
1, 173526, Note_on_c, 0, 67, 110
1, 173559, Note_on_c, 0, 52, 0
1, 173561, Note_on_c, 0, 64, 0
1, 173644, Note_on_c, 0, 79, 0
1, 173645, Note_on_c, 0, 67, 0
1, 173656, Note_on_c, 0, 67, 110
1, 173657, Note_on_c, 0, 64, 110
1, 173658, Note_on_c, 0, 79, 107
1, 173658, Note_on_c, 0, 52, 110
1, 173710, Note_on_c, 0, 79, 0
1, 173712, Note_on_c, 0, 67, 0
1, 173718, Note_on_c, 0, 77, 107
1, 173719, Note_on_c, 0, 65, 110
1, 173770, Note_on_c, 0, 77, 0
1, 173771, Note_on_c, 0, 64, 0
1, 173772, Note_on_c, 0, 52, 0
1, 173785, Note_on_c, 0, 65, 0
1, 173785, Note_on_c, 0, 76, 107
1, 173786, Note_on_c, 0, 64, 110
1, 173787, Note_on_c, 0, 69, 107
1, 173788, Note_on_c, 0, 57, 110
1, 173901, Note_on_c, 0, 57, 0
1, 173915, Note_on_c, 0, 64, 110
1, 173915, Note_on_c, 0, 45, 115
1, 173916, Note_on_c, 0, 57, 110
1, 173918, Note_on_c, 0, 76, 107
1, 173928, Note_on_c, 0, 76, 0
1, 173929, Note_on_c, 0, 64, 0
1, 173957, Note_on_c, 0, 69, 0
1, 173973, Note_on_c, 0, 76, 0
1, 173976, Note_on_c, 0, 64, 0
1, 173980, Note_on_c, 0, 67, 110
1, 173982, Note_on_c, 0, 79, 107
1, 174035, Note_on_c, 0, 85, 0
1, 174036, Note_on_c, 0, 73, 0
1, 174038, Note_on_c, 0, 79, 0
1, 174041, Note_on_c, 0, 45, 0
1, 174042, Note_on_c, 0, 67, 0
1, 174049, Note_on_c, 0, 65, 110
1, 174050, Note_on_c, 0, 77, 107
1, 174052, Note_on_c, 0, 74, 107
1, 174053, Note_on_c, 0, 86, 107
1, 174054, Note_on_c, 0, 50, 110
1, 174055, Note_on_c, 0, 62, 110
1, 174071, Note_on_c, 0, 57, 0
1, 174106, Note_on_c, 0, 77, 0
1, 174118, Note_on_c, 0, 69, 107
1, 174119, Note_on_c, 0, 81, 107
1, 174149, Note_on_c, 0, 65, 0
1, 174172, Note_on_c, 0, 69, 0
1, 174173, Note_on_c, 0, 62, 0
1, 174177, Note_on_c, 0, 50, 0
1, 174183, Note_on_c, 0, 74, 107
1, 174184, Note_on_c, 0, 69, 107
1, 174185, Note_on_c, 0, 62, 110
1, 174186, Note_on_c, 0, 57, 110
1, 174189, Note_on_c, 0, 74, 0
1, 174230, Note_on_c, 0, 81, 0
1, 174235, Note_on_c, 0, 62, 0
1, 174242, Note_on_c, 0, 64, 110
1, 174244, Note_on_c, 0, 76, 107
1, 174299, Note_on_c, 0, 57, 0
1, 174302, Note_on_c, 0, 69, 0
1, 174303, Note_on_c, 0, 64, 0
1, 174303, Note_on_c, 0, 76, 0
1, 174312, Note_on_c, 0, 77, 107
1, 174313, Note_on_c, 0, 74, 107
1, 174313, Note_on_c, 0, 62, 110
1, 174314, Note_on_c, 0, 65, 110
1, 174340, Note_on_c, 0, 74, 0
1, 174365, Note_on_c, 0, 77, 0
1, 174366, Note_on_c, 0, 65, 0
1, 174378, Note_on_c, 0, 79, 107
1, 174379, Note_on_c, 0, 67, 110
1, 174431, Note_on_c, 0, 67, 0
1, 174432, Note_on_c, 0, 62, 0
1, 174434, Note_on_c, 0, 79, 0
1, 174441, Note_on_c, 0, 60, 110
1, 174442, Note_on_c, 0, 77, 107
1, 174443, Note_on_c, 0, 65, 110
1, 174445, Note_on_c, 0, 72, 107
1, 174507, Note_on_c, 0, 79, 107
1, 174509, Note_on_c, 0, 65, 0
1, 174509, Note_on_c, 0, 67, 110
1, 174512, Note_on_c, 0, 77, 0
1, 174564, Note_on_c, 0, 79, 0
1, 174565, Note_on_c, 0, 72, 0
1, 174565, Note_on_c, 0, 60, 0
1, 174574, Note_on_c, 0, 67, 0
1, 174577, Note_on_c, 0, 81, 107
1, 174577, Note_on_c, 0, 69, 107
1, 174578, Note_on_c, 0, 60, 110
1, 174579, Note_on_c, 0, 72, 107
1, 174593, Note_on_c, 0, 72, 0
1, 174602, Note_on_c, 0, 81, 0
1, 174602, Note_on_c, 0, 69, 0
1, 174604, Note_on_c, 0, 60, 0
1, 174607, Note_on_c, 0, 79, 107
1, 174607, Note_on_c, 0, 58, 110
1, 174609, Note_on_c, 0, 67, 110
1, 174610, Note_on_c, 0, 70, 107
1, 174635, Note_on_c, 0, 70, 0
1, 174640, Note_on_c, 0, 67, 0
1, 174641, Note_on_c, 0, 79, 0
1, 174644, Note_on_c, 0, 58, 0
1, 174644, Note_on_c, 0, 60, 110
1, 174646, Note_on_c, 0, 81, 107
1, 174647, Note_on_c, 0, 69, 107
1, 174648, Note_on_c, 0, 72, 107
1, 174661, Note_on_c, 0, 72, 0
1, 174664, Note_on_c, 0, 69, 0
1, 174671, Note_on_c, 0, 81, 0
1, 174674, Note_on_c, 0, 60, 0
1, 174678, Note_on_c, 0, 58, 110
1, 174679, Note_on_c, 0, 79, 107
1, 174680, Note_on_c, 0, 70, 107
1, 174681, Note_on_c, 0, 67, 110
1, 174700, Note_on_c, 0, 70, 0
1, 174705, Note_on_c, 0, 67, 0
1, 174708, Note_on_c, 0, 79, 0
1, 174709, Note_on_c, 0, 60, 110
1, 174710, Note_on_c, 0, 58, 0
1, 174711, Note_on_c, 0, 69, 107
1, 174712, Note_on_c, 0, 81, 107
1, 174712, Note_on_c, 0, 72, 107
1, 174729, Note_on_c, 0, 72, 0
1, 174732, Note_on_c, 0, 81, 0
1, 174733, Note_on_c, 0, 69, 0
1, 174736, Note_on_c, 0, 60, 0
1, 174742, Note_on_c, 0, 58, 110
1, 174744, Note_on_c, 0, 79, 107
1, 174745, Note_on_c, 0, 70, 107
1, 174745, Note_on_c, 0, 67, 110
1, 174759, Note_on_c, 0, 70, 0
1, 174768, Note_on_c, 0, 67, 0
1, 174771, Note_on_c, 0, 79, 0
1, 174772, Note_on_c, 0, 57, 110
1, 174774, Note_on_c, 0, 77, 107
1, 174776, Note_on_c, 0, 58, 0
1, 174776, Note_on_c, 0, 69, 107
1, 174776, Note_on_c, 0, 65, 110
1, 174796, Note_on_c, 0, 69, 0
1, 174801, Note_on_c, 0, 65, 0
1, 174803, Note_on_c, 0, 77, 0
1, 174803, Note_on_c, 0, 57, 0
1, 174805, Note_on_c, 0, 79, 107
1, 174806, Note_on_c, 0, 67, 110
1, 174807, Note_on_c, 0, 70, 107
1, 174808, Note_on_c, 0, 58, 110
1, 174826, Note_on_c, 0, 86, 0
1, 174827, Note_on_c, 0, 70, 0
1, 174832, Note_on_c, 0, 58, 0
1, 174838, Note_on_c, 0, 67, 0
1, 174838, Note_on_c, 0, 72, 107
1, 174839, Note_on_c, 0, 81, 107
1, 174840, Note_on_c, 0, 79, 0
1, 174840, Note_on_c, 0, 69, 107
1, 174841, Note_on_c, 0, 84, 107
1, 174841, Note_on_c, 0, 69, 107
1, 174842, Note_on_c, 0, 57, 110
1, 174915, Note_on_c, 0, 69, 0
1, 174971, Note_on_c, 0, 69, 107
1, 174972, Note_on_c, 0, 81, 107
1, 174987, Note_on_c, 0, 81, 0
1, 175014, Note_on_c, 0, 72, 0
1, 175020, Note_on_c, 0, 69, 0
1, 175023, Note_on_c, 0, 84, 0
1, 175025, Note_on_c, 0, 81, 0
1, 175031, Note_on_c, 0, 71, 107
1, 175032, Note_on_c, 0, 74, 107
1, 175032, Note_on_c, 0, 83, 107
1, 175033, Note_on_c, 0, 86, 107
1, 175050, Note_on_c, 0, 74, 0
1, 175074, Note_on_c, 0, 86, 0
1, 175076, Note_on_c, 0, 57, 0
1, 175077, Note_on_c, 0, 83, 0
1, 175083, Note_on_c, 0, 71, 0
1, 175089, Note_on_c, 0, 72, 107
1, 175090, Note_on_c, 0, 84, 107
1, 175091, Note_on_c, 0, 76, 107
1, 175091, Note_on_c, 0, 88, 107
1, 175199, Note_on_c, 0, 72, 0
1, 175200, Note_on_c, 0, 84, 0
1, 175209, Note_on_c, 0, 69, 0
1, 175212, Note_on_c, 0, 72, 107
1, 175213, Note_on_c, 0, 84, 107
1, 175214, Note_on_c, 0, 69, 107
1, 175215, Note_on_c, 0, 57, 110
1, 175265, Note_on_c, 0, 72, 0
1, 175266, Note_on_c, 0, 84, 0
1, 175280, Note_on_c, 0, 71, 107
1, 175281, Note_on_c, 0, 83, 107
1, 175332, Note_on_c, 0, 88, 0
1, 175335, Note_on_c, 0, 76, 0
1, 175340, Note_on_c, 0, 69, 0
1, 175353, Note_on_c, 0, 83, 0
1, 175353, Note_on_c, 0, 81, 107
1, 175355, Note_on_c, 0, 78, 107
1, 175356, Note_on_c, 0, 71, 0
1, 175357, Note_on_c, 0, 90, 107
1, 175358, Note_on_c, 0, 69, 107
1, 175359, Note_on_c, 0, 74, 107
1, 175359, Note_on_c, 0, 62, 110
1, 175387, Note_on_c, 0, 74, 0
1, 175397, Note_on_c, 0, 57, 0
1, 175468, Note_on_c, 0, 62, 0
1, 175472, Note_on_c, 0, 74, 0
1, 175473, Note_on_c, 0, 69, 0
1, 175482, Note_on_c, 0, 74, 107
1, 175483, Note_on_c, 0, 86, 107
1, 175484, Note_on_c, 0, 50, 110
1, 175485, Note_on_c, 0, 62, 110
1, 175496, Note_on_c, 0, 81, 0
1, 175536, Note_on_c, 0, 86, 0
1, 175537, Note_on_c, 0, 74, 0
1, 175549, Note_on_c, 0, 72, 107
1, 175550, Note_on_c, 0, 84, 107
1, 175595, Note_on_c, 0, 90, 0
1, 175596, Note_on_c, 0, 78, 0
1, 175602, Note_on_c, 0, 84, 0
1, 175612, Note_on_c, 0, 71, 107
1, 175614, Note_on_c, 0, 91, 107
1, 175614, Note_on_c, 0, 83, 107
1, 175615, Note_on_c, 0, 72, 0
1, 175615, Note_on_c, 0, 79, 107
1, 175617, Note_on_c, 0, 67, 110
1, 175617, Note_on_c, 0, 55, 110
1, 175630, Note_on_c, 0, 62, 0
1, 175695, Note_on_c, 0, 50, 0
1, 175739, Note_on_c, 0, 55, 0
1, 175740, Note_on_c, 0, 83, 0
1, 175749, Note_on_c, 0, 74, 107
1, 175750, Note_on_c, 0, 43, 115
1, 175751, Note_on_c, 0, 86, 107
1, 175752, Note_on_c, 0, 55, 110
1, 175763, Note_on_c, 0, 67, 0
1, 175772, Note_on_c, 0, 71, 0
1, 175806, Note_on_c, 0, 86, 0
1, 175809, Note_on_c, 0, 74, 0
1, 175817, Note_on_c, 0, 84, 107
1, 175818, Note_on_c, 0, 72, 107
1, 175871, Note_on_c, 0, 58, 110
1, 175876, Note_on_c, 0, 72, 0
1, 175877, Note_on_c, 0, 43, 0
1, 175878, Note_on_c, 0, 55, 0
1, 175879, Note_on_c, 0, 84, 0
1, 175887, Note_on_c, 0, 83, 107
1, 175888, Note_on_c, 0, 46, 115
1, 175890, Note_on_c, 0, 71, 107
1, 175972, Note_on_c, 0, 83, 0
1, 175983, Note_on_c, 0, 71, 0
1, 175997, Note_on_c, 0, 91, 0
1, 175999, Note_on_c, 0, 46, 0
1, 176000, Note_on_c, 0, 79, 0
1, 176010, Note_on_c, 0, 83, 107
1, 176011, Note_on_c, 0, 71, 107
1, 176012, Note_on_c, 0, 79, 107
1, 176013, Note_on_c, 0, 91, 107
1, 176013, Note_on_c, 0, 50, 110
1, 176014, Note_on_c, 0, 58, 0
1, 176015, Note_on_c, 0, 62, 110
1, 176059, Note_on_c, 0, 79, 0
1, 176064, Note_on_c, 0, 91, 0
1, 176064, Note_on_c, 0, 71, 0
1, 176067, Note_on_c, 0, 83, 0
1, 176075, Note_on_c, 0, 69, 107
1, 176076, Note_on_c, 0, 81, 107
1, 176076, Note_on_c, 0, 90, 107
1, 176077, Note_on_c, 0, 78, 107
1, 176132, Note_on_c, 0, 90, 0
1, 176134, Note_on_c, 0, 78, 0
1, 176135, Note_on_c, 0, 81, 0
1, 176138, Note_on_c, 0, 69, 0
1, 176139, Note_on_c, 0, 79, 107
1, 176139, Note_on_c, 0, 71, 107
1, 176140, Note_on_c, 0, 83, 107
1, 176142, Note_on_c, 0, 91, 107
1, 176143, Note_on_c, 0, 67, 110
1, 176143, Note_on_c, 0, 55, 110
1, 176155, Note_on_c, 0, 62, 0
1, 176159, Note_on_c, 0, 50, 0
1, 176197, Note_on_c, 0, 71, 0
1, 176199, Note_on_c, 0, 83, 0
1, 176210, Note_on_c, 0, 72, 107
1, 176211, Note_on_c, 0, 84, 107
1, 176259, Note_on_c, 0, 84, 0
1, 176262, Note_on_c, 0, 72, 0
1, 176265, Note_on_c, 0, 67, 0
1, 176268, Note_on_c, 0, 55, 0
1, 176270, Note_on_c, 0, 74, 107
1, 176272, Note_on_c, 0, 53, 110
1, 176272, Note_on_c, 0, 65, 110
1, 176273, Note_on_c, 0, 86, 107
1, 176325, Note_on_c, 0, 74, 0
1, 176336, Note_on_c, 0, 71, 107
1, 176338, Note_on_c, 0, 83, 107
1, 176343, Note_on_c, 0, 86, 0
1, 176387, Note_on_c, 0, 65, 0
1, 176389, Note_on_c, 0, 53, 0
1, 176404, Note_on_c, 0, 79, 107
1, 176405, Note_on_c, 0, 52, 110
1, 176405, Note_on_c, 0, 64, 110
1, 176406, Note_on_c, 0, 67, 110
1, 176423, Note_on_c, 0, 71, 0
1, 176451, Note_on_c, 0, 79, 0
1, 176476, Note_on_c, 0, 83, 0
1, 176513, Note_on_c, 0, 91, 0
1, 176535, Note_on_c, 0, 76, 107
1, 176537, Note_on_c, 0, 88, 107
1, 176592, Note_on_c, 0, 88, 0
1, 176592, Note_on_c, 0, 69, 107
1, 176594, Note_on_c, 0, 89, 107
1, 176595, Note_on_c, 0, 77, 107
1, 176595, Note_on_c, 0, 81, 107
1, 176597, Note_on_c, 0, 76, 0
1, 176620, Note_on_c, 0, 67, 0
1, 176649, Note_on_c, 0, 79, 0
1, 176656, Note_on_c, 0, 79, 107
1, 176657, Note_on_c, 0, 91, 107
1, 176658, Note_on_c, 0, 83, 107
1, 176660, Note_on_c, 0, 81, 0
1, 176660, Note_on_c, 0, 69, 0
1, 176661, Note_on_c, 0, 71, 107
1, 176662, Note_on_c, 0, 77, 0
1, 176666, Note_on_c, 0, 89, 0
1, 176756, Note_on_c, 0, 52, 0
1, 176758, Note_on_c, 0, 64, 0
1, 176770, Note_on_c, 0, 91, 0
1, 176774, Note_on_c, 0, 79, 0
1, 176783, Note_on_c, 0, 79, 107
1, 176785, Note_on_c, 0, 91, 107
1, 176786, Note_on_c, 0, 52, 110
1, 176788, Note_on_c, 0, 64, 110
1, 176852, Note_on_c, 0, 79, 0
1, 176853, Note_on_c, 0, 89, 107
1, 176853, Note_on_c, 0, 77, 107
1, 176855, Note_on_c, 0, 91, 0
1, 176901, Note_on_c, 0, 83, 0
1, 176903, Note_on_c, 0, 71, 0
1, 176912, Note_on_c, 0, 89, 0
1, 176914, Note_on_c, 0, 77, 0
1, 176916, Note_on_c, 0, 85, 107
1, 176916, Note_on_c, 0, 76, 107
1, 176916, Note_on_c, 0, 88, 107
1, 176918, Note_on_c, 0, 73, 107
1, 176918, Note_on_c, 0, 69, 107
1, 176918, Note_on_c, 0, 57, 110
1, 176927, Note_on_c, 0, 52, 0
1, 176958, Note_on_c, 0, 64, 0
1, 177027, Note_on_c, 0, 57, 0
1, 177031, Note_on_c, 0, 88, 0
1, 177040, Note_on_c, 0, 81, 107
1, 177041, Note_on_c, 0, 93, 107
1, 177041, Note_on_c, 0, 57, 110
1, 177041, Note_on_c, 0, 45, 115
1, 177052, Note_on_c, 0, 69, 0
1, 177053, Note_on_c, 0, 76, 0
1, 177088, Note_on_c, 0, 81, 0
1, 177090, Note_on_c, 0, 93, 0
1, 177105, Note_on_c, 0, 79, 107
1, 177106, Note_on_c, 0, 91, 107
1, 177155, Note_on_c, 0, 73, 0
1, 177158, Note_on_c, 0, 85, 0
1, 177159, Note_on_c, 0, 79, 0
1, 177159, Note_on_c, 0, 45, 0
1, 177161, Note_on_c, 0, 91, 0
1, 177162, Note_on_c, 0, 57, 0
1, 177169, Note_on_c, 0, 86, 107
1, 177171, Note_on_c, 0, 74, 107
1, 177173, Note_on_c, 0, 89, 107
1, 177174, Note_on_c, 0, 77, 107
1, 177176, Note_on_c, 0, 50, 110
1, 177177, Note_on_c, 0, 62, 110
1, 177288, Note_on_c, 0, 50, 0
1, 177300, Note_on_c, 0, 81, 107
1, 177301, Note_on_c, 0, 93, 107
1, 177302, Note_on_c, 0, 38, 115
1, 177303, Note_on_c, 0, 50, 110
1, 177312, Note_on_c, 0, 89, 0
1, 177317, Note_on_c, 0, 77, 0
1, 177337, Note_on_c, 0, 62, 0
1, 177352, Note_on_c, 0, 93, 0
1, 177353, Note_on_c, 0, 81, 0
1, 177363, Note_on_c, 0, 91, 107
1, 177364, Note_on_c, 0, 79, 107
1, 177413, Note_on_c, 0, 50, 0
1, 177415, Note_on_c, 0, 91, 0
1, 177418, Note_on_c, 0, 79, 0
1, 177419, Note_on_c, 0, 38, 0
1, 177422, Note_on_c, 0, 77, 107
1, 177425, Note_on_c, 0, 41, 115
1, 177427, Note_on_c, 0, 89, 107
1, 177428, Note_on_c, 0, 53, 110
1, 177548, Note_on_c, 0, 53, 0
1, 177549, Note_on_c, 0, 89, 0
1, 177552, Note_on_c, 0, 41, 0
1, 177554, Note_on_c, 0, 77, 0
1, 177557, Note_on_c, 0, 86, 107
1, 177558, Note_on_c, 0, 74, 107
1, 177559, Note_on_c, 0, 89, 107
1, 177560, Note_on_c, 0, 77, 107
1, 177561, Note_on_c, 0, 57, 110
1, 177562, Note_on_c, 0, 45, 115
1, 177586, Note_on_c, 0, 86, 0
1, 177587, Note_on_c, 0, 74, 0
1, 177614, Note_on_c, 0, 77, 0
1, 177616, Note_on_c, 0, 89, 0
1, 177625, Note_on_c, 0, 73, 107
1, 177626, Note_on_c, 0, 85, 107
1, 177627, Note_on_c, 0, 88, 107
1, 177628, Note_on_c, 0, 76, 107
1, 177645, Note_on_c, 0, 74, 0
1, 177646, Note_on_c, 0, 86, 0
1, 177673, Note_on_c, 0, 88, 0
1, 177677, Note_on_c, 0, 85, 0
1, 177678, Note_on_c, 0, 76, 0
1, 177679, Note_on_c, 0, 73, 0
1, 177682, Note_on_c, 0, 57, 0
1, 177683, Note_on_c, 0, 45, 0
1, 177687, Note_on_c, 0, 74, 107
1, 177689, Note_on_c, 0, 77, 107
1, 177690, Note_on_c, 0, 86, 107
1, 177691, Note_on_c, 0, 50, 110
1, 177692, Note_on_c, 0, 89, 107
1, 177693, Note_on_c, 0, 62, 110
1, 177737, Note_on_c, 0, 89, 0
1, 177747, Note_on_c, 0, 77, 0
1, 177753, Note_on_c, 0, 79, 107
1, 177754, Note_on_c, 0, 91, 107
1, 177803, Note_on_c, 0, 91, 0
1, 177808, Note_on_c, 0, 62, 0
1, 177808, Note_on_c, 0, 79, 0
1, 177809, Note_on_c, 0, 50, 0
1, 177816, Note_on_c, 0, 81, 107
1, 177816, Note_on_c, 0, 93, 107
1, 177817, Note_on_c, 0, 64, 110
1, 177817, Note_on_c, 0, 52, 110
1, 177868, Note_on_c, 0, 93, 0
1, 177869, Note_on_c, 0, 81, 0
1, 177875, Note_on_c, 0, 77, 107
1, 177878, Note_on_c, 0, 89, 107
1, 177923, Note_on_c, 0, 64, 0
1, 177925, Note_on_c, 0, 74, 0
1, 177927, Note_on_c, 0, 52, 0
1, 177928, Note_on_c, 0, 86, 0
1, 177936, Note_on_c, 0, 86, 107
1, 177936, Note_on_c, 0, 74, 107
1, 177937, Note_on_c, 0, 65, 110
1, 177937, Note_on_c, 0, 53, 110
1, 177984, Note_on_c, 0, 89, 0
1, 177985, Note_on_c, 0, 77, 0
1, 178003, Note_on_c, 0, 69, 107
1, 178004, Note_on_c, 0, 81, 107
1, 178052, Note_on_c, 0, 81, 0
1, 178054, Note_on_c, 0, 53, 0
1, 178055, Note_on_c, 0, 69, 0
1, 178056, Note_on_c, 0, 65, 0
1, 178067, Note_on_c, 0, 71, 107
1, 178068, Note_on_c, 0, 83, 107
1, 178069, Note_on_c, 0, 54, 110
1, 178070, Note_on_c, 0, 66, 110
1, 178122, Note_on_c, 0, 71, 0
1, 178124, Note_on_c, 0, 83, 0
1, 178131, Note_on_c, 0, 84, 107
1, 178132, Note_on_c, 0, 72, 107
1, 178181, Note_on_c, 0, 72, 0
1, 178183, Note_on_c, 0, 66, 0
1, 178184, Note_on_c, 0, 84, 0
1, 178185, Note_on_c, 0, 54, 0
1, 178194, Note_on_c, 0, 71, 107
1, 178196, Note_on_c, 0, 67, 110
1, 178197, Note_on_c, 0, 83, 107
1, 178198, Note_on_c, 0, 55, 110
1, 178245, Note_on_c, 0, 83, 0
1, 178255, Note_on_c, 0, 69, 107
1, 178257, Note_on_c, 0, 81, 107
1, 178259, Note_on_c, 0, 71, 0
1, 178309, Note_on_c, 0, 81, 0
1, 178320, Note_on_c, 0, 79, 107
1, 178320, Note_on_c, 0, 67, 110
1, 178322, Note_on_c, 0, 69, 0
1, 178351, Note_on_c, 0, 67, 0
1, 178386, Note_on_c, 0, 61, 110
1, 178387, Note_on_c, 0, 65, 110
1, 178429, Note_on_c, 0, 79, 0
1, 178436, Note_on_c, 0, 74, 0
1, 178436, Note_on_c, 0, 55, 0
1, 178437, Note_on_c, 0, 86, 0
1, 178452, Note_on_c, 0, 65, 0
1, 178453, Note_on_c, 0, 76, 107
1, 178454, Note_on_c, 0, 68, 107
1, 178454, Note_on_c, 0, 64, 110
1, 178455, Note_on_c, 0, 56, 110
1, 178462, Note_on_c, 0, 67, 0
1, 178472, Note_on_c, 0, 61, 0
1, 178513, Note_on_c, 0, 68, 107
1, 178515, Note_on_c, 0, 80, 107
1, 178572, Note_on_c, 0, 80, 0
1, 178578, Note_on_c, 0, 83, 107
1, 178579, Note_on_c, 0, 71, 107
1, 178595, Note_on_c, 0, 68, 0
1, 178630, Note_on_c, 0, 71, 0
1, 178634, Note_on_c, 0, 83, 0
1, 178642, Note_on_c, 0, 86, 107
1, 178643, Note_on_c, 0, 74, 107
1, 178666, Note_on_c, 0, 68, 0
1, 178688, Note_on_c, 0, 56, 0
1, 178692, Note_on_c, 0, 74, 0
1, 178697, Note_on_c, 0, 86, 0
1, 178704, Note_on_c, 0, 84, 107
1, 178705, Note_on_c, 0, 72, 107
1, 178706, Note_on_c, 0, 69, 107
1, 178707, Note_on_c, 0, 57, 110
1, 178761, Note_on_c, 0, 84, 0
1, 178769, Note_on_c, 0, 81, 107
1, 178770, Note_on_c, 0, 93, 107
1, 178781, Note_on_c, 0, 72, 0
1, 178824, Note_on_c, 0, 93, 0
1, 178826, Note_on_c, 0, 81, 0
1, 178836, Note_on_c, 0, 91, 107
1, 178837, Note_on_c, 0, 79, 107
1, 178890, Note_on_c, 0, 79, 0
1, 178891, Note_on_c, 0, 91, 0
1, 178902, Note_on_c, 0, 77, 107
1, 178902, Note_on_c, 0, 89, 107
1, 178946, Note_on_c, 0, 77, 0
1, 178947, Note_on_c, 0, 57, 0
1, 178949, Note_on_c, 0, 69, 0
1, 178949, Note_on_c, 0, 89, 0
1, 178958, Note_on_c, 0, 76, 107
1, 178959, Note_on_c, 0, 88, 107
1, 178960, Note_on_c, 0, 57, 110
1, 178961, Note_on_c, 0, 69, 107
1, 178974, Note_on_c, 0, 76, 0
1, 179015, Note_on_c, 0, 88, 0
1, 179020, Note_on_c, 0, 74, 107
1, 179023, Note_on_c, 0, 86, 107
1, 179076, Note_on_c, 0, 86, 0
1, 179077, Note_on_c, 0, 69, 0
1, 179079, Note_on_c, 0, 57, 0
1, 179081, Note_on_c, 0, 74, 0
1, 179089, Note_on_c, 0, 84, 107
1, 179090, Note_on_c, 0, 72, 107
1, 179090, Note_on_c, 0, 68, 107
1, 179091, Note_on_c, 0, 56, 110
1, 179141, Note_on_c, 0, 72, 0
1, 179146, Note_on_c, 0, 84, 0
1, 179153, Note_on_c, 0, 83, 107
1, 179154, Note_on_c, 0, 71, 107
1, 179200, Note_on_c, 0, 64, 0
1, 179202, Note_on_c, 0, 56, 0
1, 179205, Note_on_c, 0, 83, 0
1, 179206, Note_on_c, 0, 68, 0
1, 179207, Note_on_c, 0, 71, 0
1, 179214, Note_on_c, 0, 69, 107
1, 179218, Note_on_c, 0, 69, 107
1, 179218, Note_on_c, 0, 81, 107
1, 179219, Note_on_c, 0, 57, 110
1, 179238, Note_on_c, 0, 69, 0
1, 179243, Note_on_c, 0, 76, 0
1, 179274, Note_on_c, 0, 81, 0
1, 179282, Note_on_c, 0, 68, 107
1, 179283, Note_on_c, 0, 80, 107
1, 179337, Note_on_c, 0, 68, 0
1, 179338, Note_on_c, 0, 80, 0
1, 179347, Note_on_c, 0, 78, 107
1, 179348, Note_on_c, 0, 66, 110
1, 179402, Note_on_c, 0, 66, 0
1, 179406, Note_on_c, 0, 78, 0
1, 179411, Note_on_c, 0, 76, 107
1, 179411, Note_on_c, 0, 64, 110
1, 179466, Note_on_c, 0, 57, 0
1, 179471, Note_on_c, 0, 69, 107
1, 179472, Note_on_c, 0, 81, 107
1, 179472, Note_on_c, 0, 48, 115
1, 179473, Note_on_c, 0, 60, 110
1, 179476, Note_on_c, 0, 69, 0
1, 179504, Note_on_c, 0, 64, 0
1, 179505, Note_on_c, 0, 76, 0
1, 179538, Note_on_c, 0, 64, 110
1, 179540, Note_on_c, 0, 76, 107
1, 179596, Note_on_c, 0, 76, 0
1, 179597, Note_on_c, 0, 60, 0
1, 179599, Note_on_c, 0, 48, 0
1, 179600, Note_on_c, 0, 64, 0
1, 179607, Note_on_c, 0, 78, 107
1, 179608, Note_on_c, 0, 66, 110
1, 179608, Note_on_c, 0, 61, 110
1, 179610, Note_on_c, 0, 49, 110
1, 179655, Note_on_c, 0, 66, 0
1, 179660, Note_on_c, 0, 78, 0
1, 179671, Note_on_c, 0, 79, 107
1, 179671, Note_on_c, 0, 67, 110
1, 179722, Note_on_c, 0, 61, 0
1, 179723, Note_on_c, 0, 49, 0
1, 179725, Note_on_c, 0, 79, 0
1, 179727, Note_on_c, 0, 67, 0
1, 179736, Note_on_c, 0, 66, 110
1, 179737, Note_on_c, 0, 78, 107
1, 179738, Note_on_c, 0, 50, 110
1, 179738, Note_on_c, 0, 62, 110
1, 179791, Note_on_c, 0, 78, 0
1, 179792, Note_on_c, 0, 66, 0
1, 179802, Note_on_c, 0, 76, 107
1, 179803, Note_on_c, 0, 64, 110
1, 179849, Note_on_c, 0, 64, 0
1, 179859, Note_on_c, 0, 76, 0
1, 179865, Note_on_c, 0, 74, 107
1, 179866, Note_on_c, 0, 62, 110
1, 179895, Note_on_c, 0, 62, 0
1, 179917, Note_on_c, 0, 74, 0
1, 179929, Note_on_c, 0, 72, 107
1, 179929, Note_on_c, 0, 60, 110
1, 179977, Note_on_c, 0, 81, 0
1, 179984, Note_on_c, 0, 50, 0
1, 179991, Note_on_c, 0, 60, 0
1, 179992, Note_on_c, 0, 59, 110
1, 179994, Note_on_c, 0, 71, 107
1, 179995, Note_on_c, 0, 51, 110
1, 179996, Note_on_c, 0, 72, 0
1, 179996, Note_on_c, 0, 63, 110
1, 179998, Note_on_c, 0, 69, 0
1, 180007, Note_on_c, 0, 62, 0
1, 180058, Note_on_c, 0, 75, 107
1, 180058, Note_on_c, 0, 63, 110
1, 180108, Note_on_c, 0, 75, 0
1, 180109, Note_on_c, 0, 63, 0
1, 180120, Note_on_c, 0, 78, 107
1, 180121, Note_on_c, 0, 66, 110
1, 180166, Note_on_c, 0, 66, 0
1, 180170, Note_on_c, 0, 78, 0
1, 180178, Note_on_c, 0, 81, 107
1, 180179, Note_on_c, 0, 69, 107
1, 180231, Note_on_c, 0, 81, 0
1, 180232, Note_on_c, 0, 51, 0
1, 180233, Note_on_c, 0, 63, 0
1, 180235, Note_on_c, 0, 71, 0
1, 180236, Note_on_c, 0, 69, 0
1, 180240, Note_on_c, 0, 59, 0
1, 180243, Note_on_c, 0, 67, 110
1, 180244, Note_on_c, 0, 79, 107
1, 180245, Note_on_c, 0, 52, 110
1, 180246, Note_on_c, 0, 64, 110
1, 180297, Note_on_c, 0, 79, 0
1, 180306, Note_on_c, 0, 76, 107
1, 180307, Note_on_c, 0, 88, 107
1, 180324, Note_on_c, 0, 67, 0
1, 180363, Note_on_c, 0, 88, 0
1, 180365, Note_on_c, 0, 76, 0
1, 180371, Note_on_c, 0, 74, 107
1, 180372, Note_on_c, 0, 86, 107
1, 180421, Note_on_c, 0, 86, 0
1, 180424, Note_on_c, 0, 74, 0
1, 180432, Note_on_c, 0, 84, 107
1, 180433, Note_on_c, 0, 72, 107
1, 180483, Note_on_c, 0, 64, 0
1, 180487, Note_on_c, 0, 72, 0
1, 180488, Note_on_c, 0, 84, 0
1, 180488, Note_on_c, 0, 52, 0
1, 180496, Note_on_c, 0, 83, 107
1, 180497, Note_on_c, 0, 71, 107
1, 180497, Note_on_c, 0, 52, 110
1, 180498, Note_on_c, 0, 64, 110
1, 180550, Note_on_c, 0, 71, 0
1, 180552, Note_on_c, 0, 83, 0
1, 180562, Note_on_c, 0, 69, 107
1, 180563, Note_on_c, 0, 81, 107
1, 180614, Note_on_c, 0, 64, 0
1, 180616, Note_on_c, 0, 81, 0
1, 180618, Note_on_c, 0, 69, 0
1, 180619, Note_on_c, 0, 52, 0
1, 180626, Note_on_c, 0, 79, 107
1, 180627, Note_on_c, 0, 51, 110
1, 180628, Note_on_c, 0, 63, 110
1, 180628, Note_on_c, 0, 67, 110
1, 180682, Note_on_c, 0, 79, 0
1, 180684, Note_on_c, 0, 67, 0
1, 180693, Note_on_c, 0, 78, 107
1, 180694, Note_on_c, 0, 66, 110
1, 180745, Note_on_c, 0, 66, 0
1, 180748, Note_on_c, 0, 78, 0
1, 180750, Note_on_c, 0, 63, 0
1, 180753, Note_on_c, 0, 51, 0
1, 180760, Note_on_c, 0, 64, 110
1, 180761, Note_on_c, 0, 52, 110
1, 180762, Note_on_c, 0, 76, 107
1, 180763, Note_on_c, 0, 64, 110
1, 180813, Note_on_c, 0, 76, 0
1, 180818, Note_on_c, 0, 64, 0
1, 180826, Note_on_c, 0, 74, 107
1, 180827, Note_on_c, 0, 62, 110
1, 180878, Note_on_c, 0, 62, 0
1, 180882, Note_on_c, 0, 64, 0
1, 180882, Note_on_c, 0, 52, 0
1, 180882, Note_on_c, 0, 74, 0
1, 180887, Note_on_c, 0, 61, 110
1, 180888, Note_on_c, 0, 73, 107
1, 180890, Note_on_c, 0, 54, 110
1, 180891, Note_on_c, 0, 66, 110
1, 180944, Note_on_c, 0, 73, 0
1, 180948, Note_on_c, 0, 61, 0
1, 180954, Note_on_c, 0, 71, 107
1, 180955, Note_on_c, 0, 59, 110
1, 181007, Note_on_c, 0, 71, 0
1, 181014, Note_on_c, 0, 66, 0
1, 181018, Note_on_c, 0, 54, 0
1, 181020, Note_on_c, 0, 71, 95
1, 181021, Note_on_c, 0, 83, 95
1, 181022, Note_on_c, 0, 67, 110
1, 181022, Note_on_c, 0, 55, 110
1, 181034, Note_on_c, 0, 59, 0
1, 181041, Note_on_c, 0, 83, 0
1, 181044, Note_on_c, 0, 71, 0
1, 181050, Note_on_c, 0, 82, 95
1, 181053, Note_on_c, 0, 70, 95
1, 181080, Note_on_c, 0, 70, 0
1, 181083, Note_on_c, 0, 82, 0
1, 181088, Note_on_c, 0, 71, 95
1, 181089, Note_on_c, 0, 83, 95
1, 181106, Note_on_c, 0, 83, 0
1, 181107, Note_on_c, 0, 71, 0
1, 181119, Note_on_c, 0, 82, 95
1, 181120, Note_on_c, 0, 70, 95
1, 181141, Note_on_c, 0, 82, 0
1, 181143, Note_on_c, 0, 67, 0
1, 181143, Note_on_c, 0, 55, 0
1, 181146, Note_on_c, 0, 70, 0
1, 181152, Note_on_c, 0, 54, 110
1, 181153, Note_on_c, 0, 83, 95
1, 181155, Note_on_c, 0, 71, 95
1, 181156, Note_on_c, 0, 66, 110
1, 181176, Note_on_c, 0, 71, 0
1, 181180, Note_on_c, 0, 83, 0
1, 181188, Note_on_c, 0, 82, 103
1, 181188, Note_on_c, 0, 70, 103
1, 181204, Note_on_c, 0, 82, 0
1, 181207, Note_on_c, 0, 70, 0
1, 181218, Note_on_c, 0, 71, 103
1, 181219, Note_on_c, 0, 83, 103
1, 181239, Note_on_c, 0, 83, 0
1, 181241, Note_on_c, 0, 71, 0
1, 181251, Note_on_c, 0, 70, 103
1, 181253, Note_on_c, 0, 82, 103
1, 181274, Note_on_c, 0, 66, 0
1, 181276, Note_on_c, 0, 82, 0
1, 181278, Note_on_c, 0, 70, 0
1, 181279, Note_on_c, 0, 54, 0
1, 181284, Note_on_c, 0, 71, 103
1, 181285, Note_on_c, 0, 83, 103
1, 181286, Note_on_c, 0, 54, 110
1, 181286, Note_on_c, 0, 66, 110
1, 181301, Note_on_c, 0, 83, 0
1, 181305, Note_on_c, 0, 71, 0
1, 181312, Note_on_c, 0, 82, 103
1, 181313, Note_on_c, 0, 70, 103
1, 181338, Note_on_c, 0, 70, 0
1, 181338, Note_on_c, 0, 82, 0
1, 181346, Note_on_c, 0, 71, 103
1, 181348, Note_on_c, 0, 83, 103
1, 181370, Note_on_c, 0, 83, 0
1, 181374, Note_on_c, 0, 71, 0
1, 181380, Note_on_c, 0, 70, 103
1, 181381, Note_on_c, 0, 82, 103
1, 181395, Note_on_c, 0, 66, 0
1, 181397, Note_on_c, 0, 82, 0
1, 181398, Note_on_c, 0, 54, 0
1, 181401, Note_on_c, 0, 70, 0
1, 181410, Note_on_c, 0, 52, 110
1, 181411, Note_on_c, 0, 83, 103
1, 181413, Note_on_c, 0, 71, 103
1, 181414, Note_on_c, 0, 64, 110
1, 181439, Note_on_c, 0, 83, 0
1, 181440, Note_on_c, 0, 71, 0
1, 181448, Note_on_c, 0, 70, 103
1, 181449, Note_on_c, 0, 82, 103
1, 181466, Note_on_c, 0, 82, 0
1, 181467, Note_on_c, 0, 70, 0
1, 181481, Note_on_c, 0, 71, 103
1, 181481, Note_on_c, 0, 83, 103
1, 181500, Note_on_c, 0, 71, 0
1, 181502, Note_on_c, 0, 83, 0
1, 181511, Note_on_c, 0, 70, 103
1, 181513, Note_on_c, 0, 82, 103
1, 181537, Note_on_c, 0, 82, 0
1, 181539, Note_on_c, 0, 64, 0
1, 181541, Note_on_c, 0, 70, 0
1, 181543, Note_on_c, 0, 52, 0
1, 181547, Note_on_c, 0, 71, 103
1, 181548, Note_on_c, 0, 83, 103
1, 181548, Note_on_c, 0, 64, 110
1, 181549, Note_on_c, 0, 52, 110
1, 181563, Note_on_c, 0, 83, 0
1, 181569, Note_on_c, 0, 71, 0
1, 181578, Note_on_c, 0, 70, 103
1, 181581, Note_on_c, 0, 82, 103
1, 181600, Note_on_c, 0, 82, 0
1, 181603, Note_on_c, 0, 70, 0
1, 181612, Note_on_c, 0, 71, 103
1, 181614, Note_on_c, 0, 83, 103
1, 181634, Note_on_c, 0, 83, 0
1, 181639, Note_on_c, 0, 71, 0
1, 181646, Note_on_c, 0, 70, 103
1, 181646, Note_on_c, 0, 82, 103
1, 181662, Note_on_c, 0, 64, 0
1, 181664, Note_on_c, 0, 52, 0
1, 181666, Note_on_c, 0, 70, 0
1, 181668, Note_on_c, 0, 82, 0
1, 181677, Note_on_c, 0, 50, 110
1, 181678, Note_on_c, 0, 83, 114
1, 181680, Note_on_c, 0, 71, 114
1, 181680, Note_on_c, 0, 62, 110
1, 181699, Note_on_c, 0, 71, 0
1, 181700, Note_on_c, 0, 83, 0
1, 181709, Note_on_c, 0, 70, 114
1, 181711, Note_on_c, 0, 82, 114
1, 181729, Note_on_c, 0, 82, 0
1, 181733, Note_on_c, 0, 70, 0
1, 181744, Note_on_c, 0, 80, 114
1, 181744, Note_on_c, 0, 68, 114
1, 181764, Note_on_c, 0, 68, 0
1, 181768, Note_on_c, 0, 80, 0
1, 181776, Note_on_c, 0, 70, 114
1, 181776, Note_on_c, 0, 82, 114
1, 181798, Note_on_c, 0, 82, 0
1, 181799, Note_on_c, 0, 62, 0
1, 181801, Note_on_c, 0, 70, 0
1, 181802, Note_on_c, 0, 50, 0
1, 181809, Note_on_c, 0, 71, 107
1, 181811, Note_on_c, 0, 83, 107
1, 181812, Note_on_c, 0, 50, 110
1, 181813, Note_on_c, 0, 62, 110
1, 181921, Note_on_c, 0, 62, 0
1, 181929, Note_on_c, 0, 50, 0
1, 181938, Note_on_c, 0, 78, 107
1, 181938, Note_on_c, 0, 66, 110
1, 181940, Note_on_c, 0, 61, 110
1, 181940, Note_on_c, 0, 49, 110
1, 181990, Note_on_c, 0, 66, 0
1, 181993, Note_on_c, 0, 78, 0
1, 182005, Note_on_c, 0, 81, 107
1, 182005, Note_on_c, 0, 69, 107
1, 182056, Note_on_c, 0, 69, 0
1, 182061, Note_on_c, 0, 61, 0
1, 182061, Note_on_c, 0, 81, 0
1, 182062, Note_on_c, 0, 49, 0
1, 182066, Note_on_c, 0, 67, 110
1, 182070, Note_on_c, 0, 79, 107
1, 182071, Note_on_c, 0, 52, 110
1, 182072, Note_on_c, 0, 64, 110
1, 182184, Note_on_c, 0, 79, 0
1, 182192, Note_on_c, 0, 67, 0
1, 182200, Note_on_c, 0, 79, 107
1, 182201, Note_on_c, 0, 62, 110
1, 182201, Note_on_c, 0, 50, 110
1, 182202, Note_on_c, 0, 67, 110
1, 182215, Note_on_c, 0, 52, 0
1, 182217, Note_on_c, 0, 64, 0
1, 182252, Note_on_c, 0, 67, 0
1, 182255, Note_on_c, 0, 79, 0
1, 182266, Note_on_c, 0, 66, 110
1, 182267, Note_on_c, 0, 78, 107
1, 182319, Note_on_c, 0, 78, 0
1, 182322, Note_on_c, 0, 66, 0
1, 182323, Note_on_c, 0, 62, 0
1, 182324, Note_on_c, 0, 50, 0
1, 182329, Note_on_c, 0, 64, 110
1, 182331, Note_on_c, 0, 76, 107
1, 182333, Note_on_c, 0, 49, 110
1, 182334, Note_on_c, 0, 61, 110
1, 182445, Note_on_c, 0, 61, 0
1, 182448, Note_on_c, 0, 49, 0
1, 182449, Note_on_c, 0, 76, 0
1, 182452, Note_on_c, 0, 64, 0
1, 182459, Note_on_c, 0, 76, 107
1, 182460, Note_on_c, 0, 64, 110
1, 182460, Note_on_c, 0, 59, 110
1, 182461, Note_on_c, 0, 47, 115
1, 182505, Note_on_c, 0, 64, 0
1, 182509, Note_on_c, 0, 76, 0
1, 182520, Note_on_c, 0, 74, 107
1, 182521, Note_on_c, 0, 62, 110
1, 182562, Note_on_c, 0, 71, 0
1, 182566, Note_on_c, 0, 83, 0
1, 182571, Note_on_c, 0, 59, 0
1, 182572, Note_on_c, 0, 47, 0
1, 182573, Note_on_c, 0, 62, 0
1, 182574, Note_on_c, 0, 74, 0
1, 182583, Note_on_c, 0, 76, 107
1, 182584, Note_on_c, 0, 64, 110
1, 182587, Note_on_c, 0, 49, 110
1, 182588, Note_on_c, 0, 61, 110
1, 182707, Note_on_c, 0, 76, 0
1, 182712, Note_on_c, 0, 88, 107
1, 182713, Note_on_c, 0, 76, 107
1, 182714, Note_on_c, 0, 59, 110
1, 182715, Note_on_c, 0, 47, 115
1, 182724, Note_on_c, 0, 61, 0
1, 182729, Note_on_c, 0, 49, 0
1, 182735, Note_on_c, 0, 64, 0
1, 182765, Note_on_c, 0, 76, 0
1, 182768, Note_on_c, 0, 88, 0
1, 182780, Note_on_c, 0, 91, 107
1, 182781, Note_on_c, 0, 79, 107
1, 182831, Note_on_c, 0, 47, 0
1, 182832, Note_on_c, 0, 59, 0
1, 182834, Note_on_c, 0, 79, 0
1, 182835, Note_on_c, 0, 91, 0
1, 182840, Note_on_c, 0, 90, 107
1, 182841, Note_on_c, 0, 78, 107
1, 182842, Note_on_c, 0, 58, 110
1, 182843, Note_on_c, 0, 46, 115
1, 182970, Note_on_c, 0, 78, 0
1, 182974, Note_on_c, 0, 90, 0
1, 182976, Note_on_c, 0, 78, 107
1, 182976, Note_on_c, 0, 49, 110
1, 182977, Note_on_c, 0, 90, 107
1, 182978, Note_on_c, 0, 61, 110
1, 182988, Note_on_c, 0, 58, 0
1, 182990, Note_on_c, 0, 46, 0
1, 183027, Note_on_c, 0, 90, 0
1, 183032, Note_on_c, 0, 78, 0
1, 183039, Note_on_c, 0, 76, 107
1, 183040, Note_on_c, 0, 88, 107
1, 183091, Note_on_c, 0, 61, 0
1, 183093, Note_on_c, 0, 49, 0
1, 183102, Note_on_c, 0, 66, 110
1, 183103, Note_on_c, 0, 78, 107
1, 183104, Note_on_c, 0, 74, 107
1, 183105, Note_on_c, 0, 86, 107
1, 183106, Note_on_c, 0, 88, 0
1, 183107, Note_on_c, 0, 54, 110
1, 183107, Note_on_c, 0, 42, 115
1, 183108, Note_on_c, 0, 76, 0
1, 183222, Note_on_c, 0, 86, 0
1, 183223, Note_on_c, 0, 74, 0
1, 183237, Note_on_c, 0, 86, 107
1, 183238, Note_on_c, 0, 74, 107
1, 183239, Note_on_c, 0, 58, 110
1, 183240, Note_on_c, 0, 46, 115
1, 183245, Note_on_c, 0, 42, 0
1, 183246, Note_on_c, 0, 54, 0
1, 183288, Note_on_c, 0, 74, 0
1, 183290, Note_on_c, 0, 86, 0
1, 183299, Note_on_c, 0, 85, 107
1, 183300, Note_on_c, 0, 73, 107
1, 183353, Note_on_c, 0, 46, 0
1, 183355, Note_on_c, 0, 58, 0
1, 183356, Note_on_c, 0, 73, 0
1, 183360, Note_on_c, 0, 85, 0
1, 183363, Note_on_c, 0, 47, 115
1, 183364, Note_on_c, 0, 74, 107
1, 183365, Note_on_c, 0, 86, 107
1, 183367, Note_on_c, 0, 59, 110
1, 183494, Note_on_c, 0, 83, 107
1, 183496, Note_on_c, 0, 71, 107
1, 183514, Note_on_c, 0, 86, 0
1, 183515, Note_on_c, 0, 74, 0
1, 183552, Note_on_c, 0, 71, 0
1, 183553, Note_on_c, 0, 83, 0
1, 183559, Note_on_c, 0, 73, 107
1, 183560, Note_on_c, 0, 85, 107
1, 183602, Note_on_c, 0, 78, 0
1, 183607, Note_on_c, 0, 66, 0
1, 183614, Note_on_c, 0, 85, 0
1, 183615, Note_on_c, 0, 73, 0
1, 183622, Note_on_c, 0, 86, 107
1, 183623, Note_on_c, 0, 74, 107
1, 183667, Note_on_c, 0, 59, 0
1, 183668, Note_on_c, 0, 47, 0
1, 183744, Note_on_c, 0, 74, 0
1, 183745, Note_on_c, 0, 86, 0
1, 183752, Note_on_c, 0, 86, 107
1, 183753, Note_on_c, 0, 59, 110
1, 183754, Note_on_c, 0, 74, 107
1, 183754, Note_on_c, 0, 47, 115
1, 183812, Note_on_c, 0, 74, 0
1, 183812, Note_on_c, 0, 59, 0
1, 183814, Note_on_c, 0, 47, 0
1, 183815, Note_on_c, 0, 86, 0
1, 183818, Note_on_c, 0, 88, 107
1, 183818, Note_on_c, 0, 76, 107
1, 183819, Note_on_c, 0, 49, 110
1, 183820, Note_on_c, 0, 61, 110
1, 183866, Note_on_c, 0, 61, 0
1, 183869, Note_on_c, 0, 49, 0
1, 183872, Note_on_c, 0, 88, 0
1, 183876, Note_on_c, 0, 76, 0
1, 183878, Note_on_c, 0, 78, 107
1, 183879, Note_on_c, 0, 90, 107
1, 183879, Note_on_c, 0, 62, 110
1, 183880, Note_on_c, 0, 50, 110
1, 183965, Note_on_c, 0, 90, 0
1, 184001, Note_on_c, 0, 50, 0
1, 184005, Note_on_c, 0, 62, 0
1, 184007, Note_on_c, 0, 78, 0
1, 184010, Note_on_c, 0, 78, 107
1, 184010, Note_on_c, 0, 90, 107
1, 184011, Note_on_c, 0, 50, 110
1, 184012, Note_on_c, 0, 62, 110
1, 184066, Note_on_c, 0, 62, 0
1, 184069, Note_on_c, 0, 50, 0
1, 184069, Note_on_c, 0, 90, 0
1, 184073, Note_on_c, 0, 78, 0
1, 184075, Note_on_c, 0, 92, 107
1, 184076, Note_on_c, 0, 64, 110
1, 184077, Note_on_c, 0, 80, 107
1, 184079, Note_on_c, 0, 52, 110
1, 184126, Note_on_c, 0, 52, 0
1, 184130, Note_on_c, 0, 80, 0
1, 184132, Note_on_c, 0, 64, 0
1, 184134, Note_on_c, 0, 92, 0
1, 184135, Note_on_c, 0, 66, 110
1, 184137, Note_on_c, 0, 93, 107
1, 184138, Note_on_c, 0, 54, 110
1, 184139, Note_on_c, 0, 81, 107
1, 184265, Note_on_c, 0, 78, 107
1, 184265, Note_on_c, 0, 66, 110
1, 184315, Note_on_c, 0, 78, 0
1, 184317, Note_on_c, 0, 66, 0
1, 184330, Note_on_c, 0, 68, 107
1, 184331, Note_on_c, 0, 80, 107
1, 184382, Note_on_c, 0, 80, 0
1, 184384, Note_on_c, 0, 68, 0
1, 184391, Note_on_c, 0, 66, 0
1, 184392, Note_on_c, 0, 81, 107
1, 184392, Note_on_c, 0, 69, 107
1, 184394, Note_on_c, 0, 81, 0
1, 184442, Note_on_c, 0, 93, 0
1, 184443, Note_on_c, 0, 54, 0
1, 184514, Note_on_c, 0, 81, 0
1, 184519, Note_on_c, 0, 69, 0
1, 184524, Note_on_c, 0, 69, 107
1, 184526, Note_on_c, 0, 81, 107
1, 184527, Note_on_c, 0, 93, 107
1, 184527, Note_on_c, 0, 81, 107
1, 184569, Note_on_c, 0, 81, 0
1, 184575, Note_on_c, 0, 93, 0
1, 184586, Note_on_c, 0, 69, 0
1, 184587, Note_on_c, 0, 71, 107
1, 184588, Note_on_c, 0, 80, 107
1, 184589, Note_on_c, 0, 83, 107
1, 184589, Note_on_c, 0, 92, 107
1, 184597, Note_on_c, 0, 81, 0
1, 184646, Note_on_c, 0, 92, 0
1, 184649, Note_on_c, 0, 80, 0
1, 184651, Note_on_c, 0, 83, 0
1, 184654, Note_on_c, 0, 71, 0
1, 184655, Note_on_c, 0, 85, 107
1, 184655, Note_on_c, 0, 81, 107
1, 184656, Note_on_c, 0, 93, 107
1, 184656, Note_on_c, 0, 73, 107
1, 184783, Note_on_c, 0, 73, 0
1, 184784, Note_on_c, 0, 85, 0
1, 184786, Note_on_c, 0, 93, 0
1, 184787, Note_on_c, 0, 81, 0
1, 184787, Note_on_c, 0, 73, 107
1, 184788, Note_on_c, 0, 95, 107
1, 184788, Note_on_c, 0, 85, 107
1, 184788, Note_on_c, 0, 83, 107
1, 184841, Note_on_c, 0, 95, 0
1, 184842, Note_on_c, 0, 83, 0
1, 184844, Note_on_c, 0, 85, 0
1, 184845, Note_on_c, 0, 73, 0
1, 184847, Note_on_c, 0, 75, 107
1, 184848, Note_on_c, 0, 87, 107
1, 184850, Note_on_c, 0, 81, 107
1, 184851, Note_on_c, 0, 93, 107
1, 184904, Note_on_c, 0, 81, 0
1, 184906, Note_on_c, 0, 93, 0
1, 184908, Note_on_c, 0, 75, 0
1, 184909, Note_on_c, 0, 87, 0
1, 184914, Note_on_c, 0, 91, 107
1, 184915, Note_on_c, 0, 88, 107
1, 184916, Note_on_c, 0, 79, 107
1, 184917, Note_on_c, 0, 76, 107
1, 185045, Note_on_c, 0, 64, 110
1, 185046, Note_on_c, 0, 71, 107
1, 185047, Note_on_c, 0, 52, 110
1, 185048, Note_on_c, 0, 83, 107
1, 185063, Note_on_c, 0, 88, 0
1, 185064, Note_on_c, 0, 76, 0
1, 185072, Note_on_c, 0, 79, 0
1, 185073, Note_on_c, 0, 91, 0
1, 185096, Note_on_c, 0, 52, 0
1, 185101, Note_on_c, 0, 64, 0
1, 185109, Note_on_c, 0, 54, 110
1, 185110, Note_on_c, 0, 66, 110
1, 185158, Note_on_c, 0, 66, 0
1, 185161, Note_on_c, 0, 54, 0
1, 185170, Note_on_c, 0, 88, 107
1, 185172, Note_on_c, 0, 76, 107
1, 185173, Note_on_c, 0, 55, 110
1, 185174, Note_on_c, 0, 67, 110
1, 185180, Note_on_c, 0, 83, 0
1, 185184, Note_on_c, 0, 71, 0
1, 185236, Note_on_c, 0, 64, 110
1, 185239, Note_on_c, 0, 52, 110
1, 185245, Note_on_c, 0, 67, 0
1, 185252, Note_on_c, 0, 55, 0
1, 185271, Note_on_c, 0, 76, 0
1, 185272, Note_on_c, 0, 88, 0
1, 185295, Note_on_c, 0, 52, 0
1, 185298, Note_on_c, 0, 64, 0
1, 185302, Note_on_c, 0, 88, 107
1, 185305, Note_on_c, 0, 76, 107
1, 185305, Note_on_c, 0, 79, 107
1, 185306, Note_on_c, 0, 67, 110
1, 185307, Note_on_c, 0, 91, 107
1, 185307, Note_on_c, 0, 55, 110
1, 185359, Note_on_c, 0, 79, 0
1, 185362, Note_on_c, 0, 91, 0
1, 185362, Note_on_c, 0, 76, 0
1, 185364, Note_on_c, 0, 69, 107
1, 185365, Note_on_c, 0, 67, 0
1, 185366, Note_on_c, 0, 55, 0
1, 185366, Note_on_c, 0, 57, 110
1, 185367, Note_on_c, 0, 87, 107
1, 185367, Note_on_c, 0, 75, 107
1, 185368, Note_on_c, 0, 78, 107
1, 185369, Note_on_c, 0, 90, 107
1, 185370, Note_on_c, 0, 88, 0
1, 185408, Note_on_c, 0, 69, 0
1, 185409, Note_on_c, 0, 57, 0
1, 185410, Note_on_c, 0, 90, 0
1, 185412, Note_on_c, 0, 78, 0
1, 185416, Note_on_c, 0, 75, 0
1, 185417, Note_on_c, 0, 87, 0
1, 185421, Note_on_c, 0, 88, 107
1, 185422, Note_on_c, 0, 76, 107
1, 185423, Note_on_c, 0, 91, 107
1, 185424, Note_on_c, 0, 79, 107
1, 185425, Note_on_c, 0, 71, 107
1, 185425, Note_on_c, 0, 59, 110
1, 185485, Note_on_c, 0, 52, 110
1, 185486, Note_on_c, 0, 64, 110
1, 185494, Note_on_c, 0, 59, 0
1, 185497, Note_on_c, 0, 71, 0
1, 185543, Note_on_c, 0, 79, 0
1, 185546, Note_on_c, 0, 91, 0
1, 185552, Note_on_c, 0, 71, 107
1, 185553, Note_on_c, 0, 93, 107
1, 185553, Note_on_c, 0, 81, 107
1, 185554, Note_on_c, 0, 59, 110
1, 185556, Note_on_c, 0, 52, 0
1, 185560, Note_on_c, 0, 64, 0
1, 185604, Note_on_c, 0, 81, 0
1, 185606, Note_on_c, 0, 93, 0
1, 185607, Note_on_c, 0, 59, 0
1, 185608, Note_on_c, 0, 73, 107
1, 185611, Note_on_c, 0, 79, 107
1, 185611, Note_on_c, 0, 91, 107
1, 185612, Note_on_c, 0, 71, 0
1, 185612, Note_on_c, 0, 61, 110
1, 185640, Note_on_c, 0, 76, 0
1, 185644, Note_on_c, 0, 88, 0
1, 185650, Note_on_c, 0, 61, 0
1, 185652, Note_on_c, 0, 73, 0
1, 185661, Note_on_c, 0, 79, 0
1, 185663, Note_on_c, 0, 91, 0
1, 185670, Note_on_c, 0, 62, 110
1, 185671, Note_on_c, 0, 74, 107
1, 185672, Note_on_c, 0, 78, 107
1, 185673, Note_on_c, 0, 90, 107
1, 185765, Note_on_c, 0, 62, 0
1, 185787, Note_on_c, 0, 74, 0
1, 185799, Note_on_c, 0, 81, 107
1, 185800, Note_on_c, 0, 62, 110
1, 185800, Note_on_c, 0, 50, 110
1, 185801, Note_on_c, 0, 69, 107
1, 185849, Note_on_c, 0, 50, 0
1, 185855, Note_on_c, 0, 62, 0
1, 185864, Note_on_c, 0, 52, 110
1, 185865, Note_on_c, 0, 64, 110
1, 185913, Note_on_c, 0, 90, 0
1, 185917, Note_on_c, 0, 78, 0
1, 185929, Note_on_c, 0, 66, 110
1, 185931, Note_on_c, 0, 86, 107
1, 185931, Note_on_c, 0, 54, 110
1, 185932, Note_on_c, 0, 52, 0
1, 185933, Note_on_c, 0, 74, 107
1, 185934, Note_on_c, 0, 64, 0
1, 185940, Note_on_c, 0, 69, 0
1, 185957, Note_on_c, 0, 81, 0
1, 185996, Note_on_c, 0, 54, 0
1, 185996, Note_on_c, 0, 62, 110
1, 185997, Note_on_c, 0, 50, 110
1, 186000, Note_on_c, 0, 66, 0
1, 186036, Note_on_c, 0, 74, 0
1, 186041, Note_on_c, 0, 86, 0
1, 186060, Note_on_c, 0, 74, 107
1, 186060, Note_on_c, 0, 53, 110
1, 186062, Note_on_c, 0, 78, 107
1, 186062, Note_on_c, 0, 86, 107
1, 186063, Note_on_c, 0, 90, 107
1, 186064, Note_on_c, 0, 65, 110
1, 186072, Note_on_c, 0, 50, 0
1, 186074, Note_on_c, 0, 62, 0
1, 186107, Note_on_c, 0, 65, 0
1, 186112, Note_on_c, 0, 53, 0
1, 186113, Note_on_c, 0, 86, 0
1, 186115, Note_on_c, 0, 90, 0
1, 186117, Note_on_c, 0, 74, 0
1, 186121, Note_on_c, 0, 85, 107
1, 186122, Note_on_c, 0, 67, 110
1, 186123, Note_on_c, 0, 73, 107
1, 186123, Note_on_c, 0, 55, 110
1, 186124, Note_on_c, 0, 76, 107
1, 186124, Note_on_c, 0, 88, 107
1, 186126, Note_on_c, 0, 78, 0
1, 186167, Note_on_c, 0, 88, 0
1, 186175, Note_on_c, 0, 73, 0
1, 186176, Note_on_c, 0, 76, 0
1, 186177, Note_on_c, 0, 85, 0
1, 186181, Note_on_c, 0, 86, 107
1, 186181, Note_on_c, 0, 69, 107
1, 186182, Note_on_c, 0, 57, 110
1, 186184, Note_on_c, 0, 55, 0
1, 186185, Note_on_c, 0, 77, 107
1, 186185, Note_on_c, 0, 89, 107
1, 186186, Note_on_c, 0, 74, 107
1, 186188, Note_on_c, 0, 67, 0
1, 186245, Note_on_c, 0, 62, 110
1, 186246, Note_on_c, 0, 50, 110
1, 186247, Note_on_c, 0, 57, 0
1, 186254, Note_on_c, 0, 69, 0
1, 186299, Note_on_c, 0, 77, 0
1, 186302, Note_on_c, 0, 89, 0
1, 186307, Note_on_c, 0, 50, 0
1, 186307, Note_on_c, 0, 69, 107
1, 186308, Note_on_c, 0, 79, 107
1, 186310, Note_on_c, 0, 91, 107
1, 186310, Note_on_c, 0, 57, 110
1, 186312, Note_on_c, 0, 62, 0
1, 186344, Note_on_c, 0, 74, 0
1, 186354, Note_on_c, 0, 57, 0
1, 186358, Note_on_c, 0, 69, 0
1, 186361, Note_on_c, 0, 59, 110
1, 186362, Note_on_c, 0, 71, 107
1, 186363, Note_on_c, 0, 77, 107
1, 186364, Note_on_c, 0, 89, 107
1, 186365, Note_on_c, 0, 91, 0
1, 186369, Note_on_c, 0, 86, 0
1, 186370, Note_on_c, 0, 79, 0
1, 186416, Note_on_c, 0, 89, 0
1, 186418, Note_on_c, 0, 59, 0
1, 186421, Note_on_c, 0, 72, 107
1, 186423, Note_on_c, 0, 74, 107
1, 186423, Note_on_c, 0, 86, 107
1, 186424, Note_on_c, 0, 60, 110
1, 186425, Note_on_c, 0, 77, 0
1, 186425, Note_on_c, 0, 76, 107
1, 186425, Note_on_c, 0, 88, 107
1, 186426, Note_on_c, 0, 71, 0
1, 186471, Note_on_c, 0, 60, 0
1, 186485, Note_on_c, 0, 74, 107
1, 186487, Note_on_c, 0, 62, 110
1, 186488, Note_on_c, 0, 72, 0
1, 186495, Note_on_c, 0, 74, 0
1, 186533, Note_on_c, 0, 62, 0
1, 186551, Note_on_c, 0, 76, 107
1, 186552, Note_on_c, 0, 76, 0
1, 186552, Note_on_c, 0, 79, 107
1, 186552, Note_on_c, 0, 67, 110
1, 186553, Note_on_c, 0, 64, 110
1, 186563, Note_on_c, 0, 86, 0
1, 186585, Note_on_c, 0, 74, 0
1, 186597, Note_on_c, 0, 64, 0
1, 186613, Note_on_c, 0, 74, 107
1, 186615, Note_on_c, 0, 62, 110
1, 186664, Note_on_c, 0, 88, 0
1, 186666, Note_on_c, 0, 67, 0
1, 186666, Note_on_c, 0, 62, 0
1, 186670, Note_on_c, 0, 79, 0
1, 186671, Note_on_c, 0, 74, 0
1, 186680, Note_on_c, 0, 72, 107
1, 186681, Note_on_c, 0, 81, 107
1, 186682, Note_on_c, 0, 69, 107
1, 186683, Note_on_c, 0, 60, 110
1, 186719, Note_on_c, 0, 76, 0
1, 186740, Note_on_c, 0, 60, 0
1, 186746, Note_on_c, 0, 76, 107
1, 186747, Note_on_c, 0, 64, 110
1, 186760, Note_on_c, 0, 72, 0
1, 186798, Note_on_c, 0, 69, 0
1, 186799, Note_on_c, 0, 81, 0
1, 186805, Note_on_c, 0, 64, 0
1, 186810, Note_on_c, 0, 76, 0
1, 186810, Note_on_c, 0, 72, 107
1, 186811, Note_on_c, 0, 60, 110
1, 186812, Note_on_c, 0, 71, 107
1, 186813, Note_on_c, 0, 83, 107
1, 186858, Note_on_c, 0, 60, 0
1, 186870, Note_on_c, 0, 71, 107
1, 186871, Note_on_c, 0, 59, 110
1, 186877, Note_on_c, 0, 72, 0
1, 186882, Note_on_c, 0, 71, 0
1, 186921, Note_on_c, 0, 83, 0
1, 186934, Note_on_c, 0, 59, 0
1, 186936, Note_on_c, 0, 72, 107
1, 186936, Note_on_c, 0, 57, 110
1, 186937, Note_on_c, 0, 84, 107
1, 186938, Note_on_c, 0, 69, 107
1, 186972, Note_on_c, 0, 71, 0
1, 186992, Note_on_c, 0, 57, 0
1, 187000, Note_on_c, 0, 69, 0
1, 187000, Note_on_c, 0, 72, 107
1, 187001, Note_on_c, 0, 60, 110
1, 187028, Note_on_c, 0, 72, 0
1, 187057, Note_on_c, 0, 60, 0
1, 187065, Note_on_c, 0, 69, 107
1, 187066, Note_on_c, 0, 76, 107
1, 187067, Note_on_c, 0, 88, 107
1, 187067, Note_on_c, 0, 57, 110
1, 187109, Note_on_c, 0, 57, 0
1, 187118, Note_on_c, 0, 69, 0
1, 187127, Note_on_c, 0, 67, 110
1, 187128, Note_on_c, 0, 55, 110
1, 187134, Note_on_c, 0, 84, 0
1, 187158, Note_on_c, 0, 72, 0
1, 187167, Note_on_c, 0, 55, 0
1, 187172, Note_on_c, 0, 67, 0
1, 187175, Note_on_c, 0, 88, 0
1, 187179, Note_on_c, 0, 76, 0
1, 187184, Note_on_c, 0, 66, 110
1, 187185, Note_on_c, 0, 72, 107
1, 187186, Note_on_c, 0, 84, 107
1, 187186, Note_on_c, 0, 54, 110
1, 187187, Note_on_c, 0, 75, 107
1, 187188, Note_on_c, 0, 87, 107
1, 187239, Note_on_c, 0, 54, 0
1, 187247, Note_on_c, 0, 66, 0
1, 187250, Note_on_c, 0, 64, 110
1, 187251, Note_on_c, 0, 76, 107
1, 187298, Note_on_c, 0, 64, 0
1, 187303, Note_on_c, 0, 72, 0
1, 187304, Note_on_c, 0, 76, 0
1, 187315, Note_on_c, 0, 75, 107
1, 187316, Note_on_c, 0, 63, 110
1, 187317, Note_on_c, 0, 78, 107
1, 187318, Note_on_c, 0, 66, 110
1, 187328, Note_on_c, 0, 84, 0
1, 187363, Note_on_c, 0, 63, 0
1, 187373, Note_on_c, 0, 75, 0
1, 187378, Note_on_c, 0, 73, 107
1, 187379, Note_on_c, 0, 61, 110
1, 187428, Note_on_c, 0, 75, 0
1, 187434, Note_on_c, 0, 66, 0
1, 187437, Note_on_c, 0, 61, 0
1, 187439, Note_on_c, 0, 73, 0
1, 187440, Note_on_c, 0, 71, 107
1, 187440, Note_on_c, 0, 80, 107
1, 187440, Note_on_c, 0, 59, 110
1, 187441, Note_on_c, 0, 68, 107
1, 187452, Note_on_c, 0, 78, 0
1, 187478, Note_on_c, 0, 87, 0
1, 187496, Note_on_c, 0, 59, 0
1, 187503, Note_on_c, 0, 74, 107
1, 187505, Note_on_c, 0, 62, 110
1, 187519, Note_on_c, 0, 71, 0
1, 187555, Note_on_c, 0, 80, 0
1, 187568, Note_on_c, 0, 59, 110
1, 187569, Note_on_c, 0, 81, 107
1, 187570, Note_on_c, 0, 62, 0
1, 187571, Note_on_c, 0, 68, 0
1, 187572, Note_on_c, 0, 71, 107
1, 187572, Note_on_c, 0, 69, 107
1, 187585, Note_on_c, 0, 74, 0
1, 187623, Note_on_c, 0, 59, 0
1, 187631, Note_on_c, 0, 69, 107
1, 187632, Note_on_c, 0, 57, 110
1, 187633, Note_on_c, 0, 69, 0
1, 187643, Note_on_c, 0, 71, 0
1, 187683, Note_on_c, 0, 57, 0
1, 187684, Note_on_c, 0, 81, 0
1, 187694, Note_on_c, 0, 68, 107
1, 187696, Note_on_c, 0, 71, 107
1, 187697, Note_on_c, 0, 83, 107
1, 187698, Note_on_c, 0, 56, 110
1, 187732, Note_on_c, 0, 69, 0
1, 187752, Note_on_c, 0, 56, 0
1, 187754, Note_on_c, 0, 68, 0
1, 187761, Note_on_c, 0, 71, 107
1, 187762, Note_on_c, 0, 59, 110
1, 187784, Note_on_c, 0, 71, 0
1, 187828, Note_on_c, 0, 56, 110
1, 187829, Note_on_c, 0, 68, 107
1, 187830, Note_on_c, 0, 59, 0
1, 187831, Note_on_c, 0, 74, 107
1, 187831, Note_on_c, 0, 86, 107
1, 187869, Note_on_c, 0, 56, 0
1, 187881, Note_on_c, 0, 68, 0
1, 187893, Note_on_c, 0, 66, 110
1, 187894, Note_on_c, 0, 54, 110
1, 187901, Note_on_c, 0, 83, 0
1, 187924, Note_on_c, 0, 71, 0
1, 187937, Note_on_c, 0, 54, 0
1, 187944, Note_on_c, 0, 66, 0
1, 187944, Note_on_c, 0, 74, 0
1, 187949, Note_on_c, 0, 86, 0
1, 187955, Note_on_c, 0, 83, 107
1, 187956, Note_on_c, 0, 52, 110
1, 187957, Note_on_c, 0, 64, 110
1, 187959, Note_on_c, 0, 71, 107
1, 187960, Note_on_c, 0, 85, 107
1, 187961, Note_on_c, 0, 73, 107
1, 187999, Note_on_c, 0, 52, 0
1, 188009, Note_on_c, 0, 64, 0
1, 188018, Note_on_c, 0, 74, 107
1, 188019, Note_on_c, 0, 62, 110
1, 188055, Note_on_c, 0, 71, 0
1, 188064, Note_on_c, 0, 74, 0
1, 188076, Note_on_c, 0, 83, 0
1, 188076, Note_on_c, 0, 62, 0
1, 188085, Note_on_c, 0, 73, 107
1, 188086, Note_on_c, 0, 76, 107
1, 188086, Note_on_c, 0, 64, 110
1, 188087, Note_on_c, 0, 61, 110
1, 188129, Note_on_c, 0, 73, 0
1, 188133, Note_on_c, 0, 61, 0
1, 188149, Note_on_c, 0, 71, 107
1, 188150, Note_on_c, 0, 59, 110
1, 188158, Note_on_c, 0, 85, 0
1, 188160, Note_on_c, 0, 73, 0
1, 188179, Note_on_c, 0, 64, 0
1, 188202, Note_on_c, 0, 76, 0
1, 188204, Note_on_c, 0, 71, 0
1, 188205, Note_on_c, 0, 59, 0
1, 188212, Note_on_c, 0, 57, 110
1, 188213, Note_on_c, 0, 69, 107
1, 188214, Note_on_c, 0, 78, 107
1, 188215, Note_on_c, 0, 66, 110
1, 188274, Note_on_c, 0, 57, 0
1, 188276, Note_on_c, 0, 69, 0
1, 188278, Note_on_c, 0, 60, 110
1, 188280, Note_on_c, 0, 72, 107
1, 188311, Note_on_c, 0, 66, 0
1, 188334, Note_on_c, 0, 60, 0
1, 188337, Note_on_c, 0, 78, 0
1, 188342, Note_on_c, 0, 69, 107
1, 188343, Note_on_c, 0, 57, 110
1, 188345, Note_on_c, 0, 79, 107
1, 188345, Note_on_c, 0, 67, 110
1, 188346, Note_on_c, 0, 72, 0
1, 188395, Note_on_c, 0, 57, 0
1, 188405, Note_on_c, 0, 67, 110
1, 188406, Note_on_c, 0, 55, 110
1, 188424, Note_on_c, 0, 69, 0
1, 188426, Note_on_c, 0, 67, 0
1, 188458, Note_on_c, 0, 55, 0
1, 188472, Note_on_c, 0, 81, 107
1, 188472, Note_on_c, 0, 66, 110
1, 188473, Note_on_c, 0, 69, 107
1, 188474, Note_on_c, 0, 54, 110
1, 188483, Note_on_c, 0, 79, 0
1, 188492, Note_on_c, 0, 67, 0
1, 188519, Note_on_c, 0, 66, 0
1, 188531, Note_on_c, 0, 54, 0
1, 188536, Note_on_c, 0, 69, 107
1, 188537, Note_on_c, 0, 57, 110
1, 188597, Note_on_c, 0, 66, 110
1, 188600, Note_on_c, 0, 57, 0
1, 188601, Note_on_c, 0, 72, 107
1, 188601, Note_on_c, 0, 84, 107
1, 188602, Note_on_c, 0, 54, 110
1, 188606, Note_on_c, 0, 69, 0
1, 188651, Note_on_c, 0, 69, 0
1, 188657, Note_on_c, 0, 66, 0
1, 188659, Note_on_c, 0, 64, 110
1, 188661, Note_on_c, 0, 52, 110
1, 188663, Note_on_c, 0, 54, 0
1, 188671, Note_on_c, 0, 81, 0
1, 188705, Note_on_c, 0, 64, 0
1, 188710, Note_on_c, 0, 72, 0
1, 188712, Note_on_c, 0, 84, 0
1, 188712, Note_on_c, 0, 52, 0
1, 188724, Note_on_c, 0, 81, 107
1, 188724, Note_on_c, 0, 63, 110
1, 188724, Note_on_c, 0, 51, 110
1, 188725, Note_on_c, 0, 83, 107
1, 188726, Note_on_c, 0, 71, 107
1, 188726, Note_on_c, 0, 69, 107
1, 188772, Note_on_c, 0, 69, 0
1, 188777, Note_on_c, 0, 81, 0
1, 188787, Note_on_c, 0, 79, 107
1, 188787, Note_on_c, 0, 67, 110
1, 188844, Note_on_c, 0, 79, 0
1, 188851, Note_on_c, 0, 78, 107
1, 188852, Note_on_c, 0, 66, 110
1, 188855, Note_on_c, 0, 67, 0
1, 188908, Note_on_c, 0, 66, 0
1, 188910, Note_on_c, 0, 78, 0
1, 188916, Note_on_c, 0, 81, 107
1, 188916, Note_on_c, 0, 69, 107
1, 188963, Note_on_c, 0, 71, 0
1, 188964, Note_on_c, 0, 63, 0
1, 188965, Note_on_c, 0, 51, 0
1, 188966, Note_on_c, 0, 83, 0
1, 188971, Note_on_c, 0, 81, 0
1, 188972, Note_on_c, 0, 69, 0
1, 188982, Note_on_c, 0, 52, 110
1, 188983, Note_on_c, 0, 79, 107
1, 188983, Note_on_c, 0, 64, 110
1, 188984, Note_on_c, 0, 84, 107
1, 188984, Note_on_c, 0, 67, 110
1, 188985, Note_on_c, 0, 72, 107
1, 189036, Note_on_c, 0, 67, 0
1, 189037, Note_on_c, 0, 79, 0
1, 189045, Note_on_c, 0, 81, 107
1, 189047, Note_on_c, 0, 69, 107
1, 189080, Note_on_c, 0, 52, 0
1, 189096, Note_on_c, 0, 64, 0
1, 189099, Note_on_c, 0, 81, 0
1, 189099, Note_on_c, 0, 69, 0
1, 189105, Note_on_c, 0, 63, 110
1, 189106, Note_on_c, 0, 51, 110
1, 189110, Note_on_c, 0, 83, 107
1, 189111, Note_on_c, 0, 71, 107
1, 189150, Note_on_c, 0, 71, 0
1, 189151, Note_on_c, 0, 83, 0
1, 189172, Note_on_c, 0, 81, 107
1, 189173, Note_on_c, 0, 69, 107
1, 189207, Note_on_c, 0, 51, 0
1, 189221, Note_on_c, 0, 72, 0
1, 189223, Note_on_c, 0, 84, 0
1, 189225, Note_on_c, 0, 69, 0
1, 189227, Note_on_c, 0, 81, 0
1, 189228, Note_on_c, 0, 63, 0
1, 189236, Note_on_c, 0, 64, 110
1, 189237, Note_on_c, 0, 85, 107
1, 189237, Note_on_c, 0, 52, 110
1, 189238, Note_on_c, 0, 79, 107
1, 189238, Note_on_c, 0, 67, 110
1, 189239, Note_on_c, 0, 73, 107
1, 189289, Note_on_c, 0, 67, 0
1, 189291, Note_on_c, 0, 79, 0
1, 189298, Note_on_c, 0, 78, 107
1, 189299, Note_on_c, 0, 66, 110
1, 189350, Note_on_c, 0, 52, 0
1, 189351, Note_on_c, 0, 64, 0
1, 189351, Note_on_c, 0, 66, 0
1, 189353, Note_on_c, 0, 78, 0
1, 189363, Note_on_c, 0, 58, 110
1, 189364, Note_on_c, 0, 76, 107
1, 189365, Note_on_c, 0, 64, 110
1, 189365, Note_on_c, 0, 46, 115
1, 189414, Note_on_c, 0, 64, 0
1, 189416, Note_on_c, 0, 76, 0
1, 189424, Note_on_c, 0, 79, 107
1, 189425, Note_on_c, 0, 67, 110
1, 189459, Note_on_c, 0, 58, 0
1, 189459, Note_on_c, 0, 46, 0
1, 189469, Note_on_c, 0, 73, 0
1, 189473, Note_on_c, 0, 85, 0
1, 189482, Note_on_c, 0, 67, 0
1, 189484, Note_on_c, 0, 79, 0
1, 189486, Note_on_c, 0, 47, 115
1, 189487, Note_on_c, 0, 78, 107
1, 189488, Note_on_c, 0, 59, 110
1, 189489, Note_on_c, 0, 86, 107
1, 189490, Note_on_c, 0, 74, 107
1, 189491, Note_on_c, 0, 66, 110
1, 189537, Note_on_c, 0, 66, 0
1, 189542, Note_on_c, 0, 78, 0
1, 189553, Note_on_c, 0, 83, 107
1, 189554, Note_on_c, 0, 71, 107
1, 189596, Note_on_c, 0, 71, 0
1, 189597, Note_on_c, 0, 83, 0
1, 189615, Note_on_c, 0, 69, 107
1, 189616, Note_on_c, 0, 81, 107
1, 189672, Note_on_c, 0, 69, 0
1, 189673, Note_on_c, 0, 81, 0
1, 189678, Note_on_c, 0, 79, 107
1, 189679, Note_on_c, 0, 67, 110
1, 189726, Note_on_c, 0, 74, 0
1, 189730, Note_on_c, 0, 86, 0
1, 189732, Note_on_c, 0, 59, 0
1, 189733, Note_on_c, 0, 67, 0
1, 189736, Note_on_c, 0, 79, 0
1, 189737, Note_on_c, 0, 47, 0
1, 189744, Note_on_c, 0, 59, 110
1, 189745, Note_on_c, 0, 66, 110
1, 189746, Note_on_c, 0, 78, 107
1, 189747, Note_on_c, 0, 86, 107
1, 189747, Note_on_c, 0, 47, 115
1, 189748, Note_on_c, 0, 74, 107
1, 189748, Note_on_c, 0, 35, 115
1, 189807, Note_on_c, 0, 78, 0
1, 189810, Note_on_c, 0, 71, 107
1, 189811, Note_on_c, 0, 83, 107
1, 189829, Note_on_c, 0, 66, 0
1, 189840, Note_on_c, 0, 86, 0
1, 189841, Note_on_c, 0, 74, 0
1, 189870, Note_on_c, 0, 83, 0
1, 189872, Note_on_c, 0, 85, 107
1, 189873, Note_on_c, 0, 76, 107
1, 189874, Note_on_c, 0, 73, 107
1, 189874, Note_on_c, 0, 64, 110
1, 189875, Note_on_c, 0, 71, 0
1, 189932, Note_on_c, 0, 82, 107
1, 189933, Note_on_c, 0, 70, 107
1, 189952, Note_on_c, 0, 76, 0
1, 189961, Note_on_c, 0, 64, 0
1, 189985, Note_on_c, 0, 73, 0
1, 189990, Note_on_c, 0, 85, 0
1, 189998, Note_on_c, 0, 82, 0
1, 190000, Note_on_c, 0, 78, 107
1, 190001, Note_on_c, 0, 86, 107
1, 190002, Note_on_c, 0, 74, 107
1, 190002, Note_on_c, 0, 66, 110
1, 190027, Note_on_c, 0, 70, 0
1, 190068, Note_on_c, 0, 71, 107
1, 190069, Note_on_c, 0, 83, 107
1, 190097, Note_on_c, 0, 66, 0
1, 190104, Note_on_c, 0, 78, 0
1, 190132, Note_on_c, 0, 83, 0
1, 190133, Note_on_c, 0, 78, 107
1, 190133, Note_on_c, 0, 66, 110
1, 190135, Note_on_c, 0, 71, 0
1, 190159, Note_on_c, 0, 47, 0
1, 190159, Note_on_c, 0, 59, 0
1, 190160, Note_on_c, 0, 35, 0
1, 190195, Note_on_c, 0, 76, 107
1, 190197, Note_on_c, 0, 64, 110
1, 190207, Note_on_c, 0, 74, 0
1, 190207, Note_on_c, 0, 66, 0
1, 190210, Note_on_c, 0, 78, 0
1, 190248, Note_on_c, 0, 64, 0
1, 190252, Note_on_c, 0, 86, 0
1, 190255, Note_on_c, 0, 76, 0
1, 190261, Note_on_c, 0, 59, 110
1, 190262, Note_on_c, 0, 74, 107
1, 190263, Note_on_c, 0, 62, 110
1, 190263, Note_on_c, 0, 35, 115
1, 190264, Note_on_c, 0, 78, 107
1, 190264, Note_on_c, 0, 47, 115
1, 190265, Note_on_c, 0, 66, 110
1, 190307, Note_on_c, 0, 62, 0
1, 190309, Note_on_c, 0, 74, 0
1, 190329, Note_on_c, 0, 64, 110
1, 190330, Note_on_c, 0, 76, 107
1, 190373, Note_on_c, 0, 76, 0
1, 190384, Note_on_c, 0, 64, 0
1, 190390, Note_on_c, 0, 74, 107
1, 190391, Note_on_c, 0, 62, 110
1, 190444, Note_on_c, 0, 62, 0
1, 190447, Note_on_c, 0, 74, 0
1, 190455, Note_on_c, 0, 73, 107
1, 190456, Note_on_c, 0, 61, 110
1, 190509, Note_on_c, 0, 78, 0
1, 190509, Note_on_c, 0, 66, 0
1, 190510, Note_on_c, 0, 61, 0
1, 190512, Note_on_c, 0, 73, 0
1, 190524, Note_on_c, 0, 71, 107
1, 190525, Note_on_c, 0, 59, 110
1, 190526, Note_on_c, 0, 67, 110
1, 190527, Note_on_c, 0, 79, 107
1, 190544, Note_on_c, 0, 59, 0
1, 190577, Note_on_c, 0, 71, 0
1, 190586, Note_on_c, 0, 74, 107
1, 190587, Note_on_c, 0, 62, 110
1, 190630, Note_on_c, 0, 62, 0
1, 190631, Note_on_c, 0, 74, 0
1, 190649, Note_on_c, 0, 73, 107
1, 190650, Note_on_c, 0, 61, 110
1, 190701, Note_on_c, 0, 61, 0
1, 190707, Note_on_c, 0, 73, 0
1, 190713, Note_on_c, 0, 71, 107
1, 190714, Note_on_c, 0, 59, 110
1, 190739, Note_on_c, 0, 59, 0
1, 190763, Note_on_c, 0, 67, 0
1, 190764, Note_on_c, 0, 79, 0
1, 190768, Note_on_c, 0, 71, 0
1, 190780, Note_on_c, 0, 76, 107
1, 190781, Note_on_c, 0, 68, 107
1, 190782, Note_on_c, 0, 80, 107
1, 190783, Note_on_c, 0, 64, 110
1, 190823, Note_on_c, 0, 64, 0
1, 190829, Note_on_c, 0, 76, 0
1, 190841, Note_on_c, 0, 77, 107
1, 190842, Note_on_c, 0, 65, 110
1, 190887, Note_on_c, 0, 65, 0
1, 190889, Note_on_c, 0, 77, 0
1, 190903, Note_on_c, 0, 76, 107
1, 190904, Note_on_c, 0, 64, 110
1, 190958, Note_on_c, 0, 64, 0
1, 190961, Note_on_c, 0, 76, 0
1, 190966, Note_on_c, 0, 35, 0
1, 190968, Note_on_c, 0, 47, 0
1, 190968, Note_on_c, 0, 74, 107
1, 190968, Note_on_c, 0, 62, 110
1, 191001, Note_on_c, 0, 59, 0
1, 191012, Note_on_c, 0, 62, 0
1, 191016, Note_on_c, 0, 74, 0
1, 191017, Note_on_c, 0, 68, 0
1, 191018, Note_on_c, 0, 80, 0
1, 191031, Note_on_c, 0, 59, 110
1, 191031, Note_on_c, 0, 35, 115
1, 191031, Note_on_c, 0, 47, 115
1, 191033, Note_on_c, 0, 81, 107
1, 191033, Note_on_c, 0, 73, 107
1, 191034, Note_on_c, 0, 69, 107
1, 191036, Note_on_c, 0, 61, 110
1, 191086, Note_on_c, 0, 61, 0
1, 191090, Note_on_c, 0, 73, 0
1, 191096, Note_on_c, 0, 76, 107
1, 191097, Note_on_c, 0, 64, 110
1, 191150, Note_on_c, 0, 64, 0
1, 191150, Note_on_c, 0, 76, 0
1, 191157, Note_on_c, 0, 74, 107
1, 191159, Note_on_c, 0, 62, 110
1, 191213, Note_on_c, 0, 62, 0
1, 191218, Note_on_c, 0, 74, 0
1, 191223, Note_on_c, 0, 61, 110
1, 191224, Note_on_c, 0, 73, 107
1, 191273, Note_on_c, 0, 81, 0
1, 191274, Note_on_c, 0, 69, 0
1, 191280, Note_on_c, 0, 73, 0
1, 191282, Note_on_c, 0, 61, 0
1, 191291, Note_on_c, 0, 69, 107
1, 191292, Note_on_c, 0, 81, 107
1, 191292, Note_on_c, 0, 78, 107
1, 191292, Note_on_c, 0, 66, 110
1, 191333, Note_on_c, 0, 78, 0
1, 191335, Note_on_c, 0, 66, 0
1, 191354, Note_on_c, 0, 79, 107
1, 191355, Note_on_c, 0, 67, 110
1, 191389, Note_on_c, 0, 81, 0
1, 191393, Note_on_c, 0, 69, 0
1, 191405, Note_on_c, 0, 79, 0
1, 191408, Note_on_c, 0, 67, 0
1, 191416, Note_on_c, 0, 78, 107
1, 191416, Note_on_c, 0, 80, 107
1, 191418, Note_on_c, 0, 68, 107
1, 191418, Note_on_c, 0, 66, 110
1, 191472, Note_on_c, 0, 66, 0
1, 191476, Note_on_c, 0, 78, 0
1, 191483, Note_on_c, 0, 76, 107
1, 191484, Note_on_c, 0, 64, 110
1, 191519, Note_on_c, 0, 80, 0
1, 191526, Note_on_c, 0, 64, 0
1, 191529, Note_on_c, 0, 76, 0
1, 191536, Note_on_c, 0, 68, 0
1, 191549, Note_on_c, 0, 69, 107
1, 191550, Note_on_c, 0, 75, 107
1, 191550, Note_on_c, 0, 63, 110
1, 191551, Note_on_c, 0, 81, 107
1, 191592, Note_on_c, 0, 75, 0
1, 191595, Note_on_c, 0, 63, 0
1, 191613, Note_on_c, 0, 64, 110
1, 191614, Note_on_c, 0, 76, 107
1, 191645, Note_on_c, 0, 81, 0
1, 191648, Note_on_c, 0, 69, 0
1, 191658, Note_on_c, 0, 76, 0
1, 191661, Note_on_c, 0, 64, 0
1, 191677, Note_on_c, 0, 83, 107
1, 191678, Note_on_c, 0, 75, 107
1, 191679, Note_on_c, 0, 63, 110
1, 191680, Note_on_c, 0, 71, 107
1, 191723, Note_on_c, 0, 63, 0
1, 191736, Note_on_c, 0, 75, 0
1, 191743, Note_on_c, 0, 73, 107
1, 191744, Note_on_c, 0, 61, 110
1, 191797, Note_on_c, 0, 71, 0
1, 191799, Note_on_c, 0, 61, 0
1, 191800, Note_on_c, 0, 73, 0
1, 191802, Note_on_c, 0, 83, 0
1, 191808, Note_on_c, 0, 59, 110
1, 191808, Note_on_c, 0, 63, 110
1, 191808, Note_on_c, 0, 47, 115
1, 191809, Note_on_c, 0, 51, 110
1, 191810, Note_on_c, 0, 54, 110
1, 191811, Note_on_c, 0, 66, 110
1, 191811, Note_on_c, 0, 59, 110
1, 191813, Note_on_c, 0, 84, 107
1, 191814, Note_on_c, 0, 75, 107
1, 191814, Note_on_c, 0, 71, 107
1, 191815, Note_on_c, 0, 72, 107
1, 191815, Note_on_c, 0, 63, 110
1, 191816, Note_on_c, 0, 81, 107
1, 191817, Note_on_c, 0, 69, 107
1, 191817, Note_on_c, 0, 78, 107
1, 191818, Note_on_c, 0, 35, 0
1, 191819, Note_on_c, 0, 66, 110
1, 191832, Note_on_c, 0, 59, 0
1, 191832, Note_on_c, 0, 47, 0
1, 191896, Note_on_c, 0, 59, 0
1, 191901, Note_on_c, 0, 71, 0
1, 191902, Note_on_c, 0, 47, 0
1, 191904, Note_on_c, 0, 59, 0
1, 191906, Note_on_c, 0, 66, 0
1, 191908, Note_on_c, 0, 63, 0
1, 191921, Note_on_c, 0, 54, 0
1, 191926, Note_on_c, 0, 51, 0
1, 191936, Note_on_c, 0, 71, 107
1, 191938, Note_on_c, 0, 59, 110
1, 191983, Note_on_c, 0, 71, 0
1, 191991, Note_on_c, 0, 59, 0
1, 192002, Note_on_c, 0, 69, 107
1, 192004, Note_on_c, 0, 57, 110
1, 192006, Note_on_c, 0, 66, 0
1, 192009, Note_on_c, 0, 78, 0
1, 192011, Note_on_c, 0, 81, 0
1, 192012, Note_on_c, 0, 72, 0
1, 192014, Note_on_c, 0, 69, 0
1, 192017, Note_on_c, 0, 84, 0
1, 192018, Note_on_c, 0, 63, 0
1, 192020, Note_on_c, 0, 75, 0
1, 192044, Note_on_c, 0, 69, 0
1, 192058, Note_on_c, 0, 57, 0
1, 192068, Note_on_c, 0, 55, 110
1, 192068, Note_on_c, 0, 67, 110
1, 192069, Note_on_c, 0, 76, 107
1, 192070, Note_on_c, 0, 83, 107
1, 192070, Note_on_c, 0, 64, 110
1, 192071, Note_on_c, 0, 71, 107
1, 192072, Note_on_c, 0, 79, 107
1, 192074, Note_on_c, 0, 76, 107
1, 192075, Note_on_c, 0, 64, 110
1, 192076, Note_on_c, 0, 67, 110
1, 192150, Note_on_c, 0, 64, 0
1, 192151, Note_on_c, 0, 76, 0
1, 192152, Note_on_c, 0, 67, 0
1, 192166, Note_on_c, 0, 55, 0
1, 192201, Note_on_c, 0, 55, 110
1, 192202, Note_on_c, 0, 67, 110
1, 192231, Note_on_c, 0, 67, 0
1, 192245, Note_on_c, 0, 55, 0
1, 192267, Note_on_c, 0, 66, 110
1, 192268, Note_on_c, 0, 54, 110
1, 192277, Note_on_c, 0, 79, 0
1, 192280, Note_on_c, 0, 71, 0
1, 192281, Note_on_c, 0, 83, 0
1, 192309, Note_on_c, 0, 67, 0
1, 192319, Note_on_c, 0, 66, 0
1, 192328, Note_on_c, 0, 64, 110
1, 192330, Note_on_c, 0, 54, 0
1, 192330, Note_on_c, 0, 71, 107
1, 192331, Note_on_c, 0, 69, 107
1, 192331, Note_on_c, 0, 59, 110
1, 192332, Note_on_c, 0, 52, 110
1, 192333, Note_on_c, 0, 81, 107
1, 192333, Note_on_c, 0, 78, 107
1, 192334, Note_on_c, 0, 66, 110
1, 192364, Note_on_c, 0, 64, 0
1, 192410, Note_on_c, 0, 76, 0
1, 192426, Note_on_c, 0, 52, 0
1, 192461, Note_on_c, 0, 52, 110
1, 192462, Note_on_c, 0, 64, 110
1, 192472, Note_on_c, 0, 64, 0
1, 192517, Note_on_c, 0, 64, 0
1, 192520, Note_on_c, 0, 52, 0
1, 192525, Note_on_c, 0, 63, 110
1, 192527, Note_on_c, 0, 51, 110
1, 192538, Note_on_c, 0, 66, 0
1, 192541, Note_on_c, 0, 71, 0
1, 192542, Note_on_c, 0, 81, 0
1, 192542, Note_on_c, 0, 78, 0
1, 192544, Note_on_c, 0, 69, 0
1, 192546, Note_on_c, 0, 59, 0
1, 192584, Note_on_c, 0, 51, 0
1, 192586, Note_on_c, 0, 63, 0
1, 192589, Note_on_c, 0, 64, 110
1, 192591, Note_on_c, 0, 76, 107
1, 192592, Note_on_c, 0, 52, 110
1, 192593, Note_on_c, 0, 79, 107
1, 192593, Note_on_c, 0, 64, 110
1, 192595, Note_on_c, 0, 67, 110
1, 192630, Note_on_c, 0, 64, 0
1, 192695, Note_on_c, 0, 52, 0
1, 192725, Note_on_c, 0, 64, 110
1, 192727, Note_on_c, 0, 52, 110
1, 192779, Note_on_c, 0, 52, 0
1, 192788, Note_on_c, 0, 62, 110
1, 192789, Note_on_c, 0, 50, 110
1, 192804, Note_on_c, 0, 67, 0
1, 192834, Note_on_c, 0, 62, 0
1, 192842, Note_on_c, 0, 79, 0
1, 192845, Note_on_c, 0, 50, 0
1, 192854, Note_on_c, 0, 60, 110
1, 192856, Note_on_c, 0, 48, 115
1, 192857, Note_on_c, 0, 81, 107
1, 192859, Note_on_c, 0, 69, 107
1, 192870, Note_on_c, 0, 64, 0
1, 192958, Note_on_c, 0, 48, 0
1, 192960, Note_on_c, 0, 60, 0
1, 192976, Note_on_c, 0, 69, 0
1, 192980, Note_on_c, 0, 81, 0
1, 192987, Note_on_c, 0, 60, 110
1, 192988, Note_on_c, 0, 79, 107
1, 192988, Note_on_c, 0, 48, 115
1, 192989, Note_on_c, 0, 67, 110
1, 193039, Note_on_c, 0, 48, 0
1, 193044, Note_on_c, 0, 60, 0
1, 193051, Note_on_c, 0, 59, 110
1, 193052, Note_on_c, 0, 47, 115
1, 193096, Note_on_c, 0, 59, 0
1, 193103, Note_on_c, 0, 67, 0
1, 193106, Note_on_c, 0, 47, 0
1, 193107, Note_on_c, 0, 79, 0
1, 193116, Note_on_c, 0, 57, 110
1, 193117, Note_on_c, 0, 45, 115
1, 193118, Note_on_c, 0, 78, 107
1, 193119, Note_on_c, 0, 66, 110
1, 193219, Note_on_c, 0, 57, 0
1, 193221, Note_on_c, 0, 45, 0
1, 193236, Note_on_c, 0, 76, 0
1, 193238, Note_on_c, 0, 66, 0
1, 193241, Note_on_c, 0, 78, 0
1, 193246, Note_on_c, 0, 45, 115
1, 193247, Note_on_c, 0, 76, 107
1, 193247, Note_on_c, 0, 57, 110
1, 193248, Note_on_c, 0, 64, 110
1, 193306, Note_on_c, 0, 57, 0
1, 193307, Note_on_c, 0, 55, 110
1, 193309, Note_on_c, 0, 43, 115
1, 193310, Note_on_c, 0, 45, 0
1, 193345, Note_on_c, 0, 64, 0
1, 193362, Note_on_c, 0, 76, 0
1, 193375, Note_on_c, 0, 45, 115
1, 193377, Note_on_c, 0, 76, 107
1, 193378, Note_on_c, 0, 57, 110
1, 193379, Note_on_c, 0, 43, 0
1, 193379, Note_on_c, 0, 78, 107
1, 193380, Note_on_c, 0, 64, 110
1, 193380, Note_on_c, 0, 66, 110
1, 193381, Note_on_c, 0, 55, 0
1, 193420, Note_on_c, 0, 78, 0
1, 193427, Note_on_c, 0, 66, 0
1, 193443, Note_on_c, 0, 79, 107
1, 193444, Note_on_c, 0, 67, 110
1, 193495, Note_on_c, 0, 67, 0
1, 193498, Note_on_c, 0, 79, 0
1, 193504, Note_on_c, 0, 81, 107
1, 193505, Note_on_c, 0, 69, 107
1, 193554, Note_on_c, 0, 69, 0
1, 193557, Note_on_c, 0, 81, 0
1, 193565, Note_on_c, 0, 83, 107
1, 193566, Note_on_c, 0, 71, 107
1, 193578, Note_on_c, 0, 45, 0
1, 193578, Note_on_c, 0, 57, 0
1, 193580, Note_on_c, 0, 64, 0
1, 193616, Note_on_c, 0, 71, 0
1, 193623, Note_on_c, 0, 83, 0
1, 193628, Note_on_c, 0, 84, 107
1, 193629, Note_on_c, 0, 57, 110
1, 193629, Note_on_c, 0, 45, 115
1, 193630, Note_on_c, 0, 72, 107
1, 193680, Note_on_c, 0, 72, 0
1, 193685, Note_on_c, 0, 57, 0
1, 193686, Note_on_c, 0, 84, 0
1, 193689, Note_on_c, 0, 45, 0
1, 193692, Note_on_c, 0, 81, 107
1, 193692, Note_on_c, 0, 42, 115
1, 193693, Note_on_c, 0, 54, 110
1, 193694, Note_on_c, 0, 69, 107
1, 193745, Note_on_c, 0, 69, 0
1, 193746, Note_on_c, 0, 81, 0
1, 193748, Note_on_c, 0, 42, 0
1, 193748, Note_on_c, 0, 54, 0
1, 193751, Note_on_c, 0, 55, 110
1, 193752, Note_on_c, 0, 83, 107
1, 193753, Note_on_c, 0, 71, 107
1, 193754, Note_on_c, 0, 43, 115
1, 193784, Note_on_c, 0, 76, 0
1, 193803, Note_on_c, 0, 71, 0
1, 193805, Note_on_c, 0, 43, 0
1, 193811, Note_on_c, 0, 83, 0
1, 193812, Note_on_c, 0, 55, 0
1, 193815, Note_on_c, 0, 57, 110
1, 193816, Note_on_c, 0, 45, 115
1, 193817, Note_on_c, 0, 72, 107
1, 193818, Note_on_c, 0, 84, 107
1, 193860, Note_on_c, 0, 57, 0
1, 193868, Note_on_c, 0, 45, 0
1, 193879, Note_on_c, 0, 47, 115
1, 193880, Note_on_c, 0, 75, 107
1, 193881, Note_on_c, 0, 63, 110
1, 193881, Note_on_c, 0, 59, 110
1, 193891, Note_on_c, 0, 64, 0
1, 193895, Note_on_c, 0, 84, 0
1, 193896, Note_on_c, 0, 72, 0
1, 193944, Note_on_c, 0, 84, 107
1, 193945, Note_on_c, 0, 72, 107
1, 193980, Note_on_c, 0, 47, 0
1, 193995, Note_on_c, 0, 59, 0
1, 194004, Note_on_c, 0, 47, 115
1, 194005, Note_on_c, 0, 72, 0
1, 194006, Note_on_c, 0, 84, 0
1, 194007, Note_on_c, 0, 83, 107
1, 194007, Note_on_c, 0, 35, 115
1, 194009, Note_on_c, 0, 71, 107
1, 194071, Note_on_c, 0, 81, 107
1, 194072, Note_on_c, 0, 71, 0
1, 194073, Note_on_c, 0, 69, 107
1, 194074, Note_on_c, 0, 83, 0
1, 194077, Note_on_c, 0, 63, 0
1, 194078, Note_on_c, 0, 75, 0
1, 194105, Note_on_c, 0, 35, 0
1, 194109, Note_on_c, 0, 47, 0
1, 194134, Note_on_c, 0, 69, 0
1, 194136, Note_on_c, 0, 79, 107
1, 194136, Note_on_c, 0, 52, 110
1, 194137, Note_on_c, 0, 40, 115
1, 194138, Note_on_c, 0, 81, 0
1, 194138, Note_on_c, 0, 67, 110
1, 194200, Note_on_c, 0, 76, 107
1, 194202, Note_on_c, 0, 64, 110
1, 194265, Note_on_c, 0, 76, 0
1, 194266, Note_on_c, 0, 71, 107
1, 194266, Note_on_c, 0, 59, 110
1, 194278, Note_on_c, 0, 64, 0
1, 194326, Note_on_c, 0, 55, 110
1, 194327, Note_on_c, 0, 67, 110
1, 194334, Note_on_c, 0, 40, 0
1, 194339, Note_on_c, 0, 59, 0
1, 194340, Note_on_c, 0, 71, 0
1, 194373, Note_on_c, 0, 52, 0
1, 194388, Note_on_c, 0, 52, 110
1, 194389, Note_on_c, 0, 64, 110
1, 194404, Note_on_c, 0, 55, 0
1, 194453, Note_on_c, 0, 71, 107
1, 194455, Note_on_c, 0, 59, 110
1, 194457, Note_on_c, 0, 52, 0
1, 194464, Note_on_c, 0, 64, 0
1, 194515, Note_on_c, 0, 67, 110
1, 194516, Note_on_c, 0, 55, 110
1, 194519, Note_on_c, 0, 67, 0
1, 194521, Note_on_c, 0, 67, 0
1, 194532, Note_on_c, 0, 71, 0
1, 194532, Note_on_c, 0, 59, 0
1, 194576, Note_on_c, 0, 52, 110
1, 194577, Note_on_c, 0, 64, 110
1, 194590, Note_on_c, 0, 55, 0
1, 194613, Note_on_c, 0, 67, 0
1, 194628, Note_on_c, 0, 79, 0
1, 194639, Note_on_c, 0, 49, 110
1, 194640, Note_on_c, 0, 52, 0
1, 194641, Note_on_c, 0, 61, 110
1, 194652, Note_on_c, 0, 64, 0
1, 194703, Note_on_c, 0, 69, 107
1, 194704, Note_on_c, 0, 57, 110
1, 194763, Note_on_c, 0, 57, 0
1, 194764, Note_on_c, 0, 76, 107
1, 194764, Note_on_c, 0, 64, 110
1, 194776, Note_on_c, 0, 69, 0
1, 194777, Note_on_c, 0, 49, 0
1, 194778, Note_on_c, 0, 61, 0
1, 194822, Note_on_c, 0, 67, 110
1, 194823, Note_on_c, 0, 79, 107
1, 194828, Note_on_c, 0, 64, 0
1, 194830, Note_on_c, 0, 76, 0
1, 194875, Note_on_c, 0, 79, 0
1, 194883, Note_on_c, 0, 78, 107
1, 194885, Note_on_c, 0, 66, 110
1, 194886, Note_on_c, 0, 67, 0
1, 194886, Note_on_c, 0, 62, 110
1, 194887, Note_on_c, 0, 50, 110
1, 194945, Note_on_c, 0, 62, 110
1, 194946, Note_on_c, 0, 74, 107
1, 194998, Note_on_c, 0, 62, 0
1, 195013, Note_on_c, 0, 69, 107
1, 195014, Note_on_c, 0, 57, 110
1, 195026, Note_on_c, 0, 74, 0
1, 195078, Note_on_c, 0, 57, 0
1, 195078, Note_on_c, 0, 54, 110
1, 195080, Note_on_c, 0, 66, 110
1, 195107, Note_on_c, 0, 69, 0
1, 195109, Note_on_c, 0, 66, 0
1, 195124, Note_on_c, 0, 50, 0
1, 195132, Note_on_c, 0, 62, 0
1, 195140, Note_on_c, 0, 62, 110
1, 195141, Note_on_c, 0, 50, 110
1, 195156, Note_on_c, 0, 54, 0
1, 195192, Note_on_c, 0, 62, 0
1, 195200, Note_on_c, 0, 69, 107
1, 195201, Note_on_c, 0, 57, 110
1, 195202, Note_on_c, 0, 50, 0
1, 195260, Note_on_c, 0, 54, 110
1, 195261, Note_on_c, 0, 66, 110
1, 195270, Note_on_c, 0, 66, 0
1, 195280, Note_on_c, 0, 57, 0
1, 195293, Note_on_c, 0, 69, 0
1, 195321, Note_on_c, 0, 50, 110
1, 195322, Note_on_c, 0, 62, 110
1, 195334, Note_on_c, 0, 54, 0
1, 195370, Note_on_c, 0, 78, 0
1, 195384, Note_on_c, 0, 59, 110
1, 195385, Note_on_c, 0, 47, 115
1, 195397, Note_on_c, 0, 62, 0
1, 195402, Note_on_c, 0, 50, 0
1, 195444, Note_on_c, 0, 55, 110
1, 195449, Note_on_c, 0, 67, 110
1, 195510, Note_on_c, 0, 62, 110
1, 195511, Note_on_c, 0, 74, 107
1, 195514, Note_on_c, 0, 55, 0
1, 195523, Note_on_c, 0, 67, 0
1, 195527, Note_on_c, 0, 47, 0
1, 195528, Note_on_c, 0, 59, 0
1, 195573, Note_on_c, 0, 77, 107
1, 195574, Note_on_c, 0, 65, 110
1, 195575, Note_on_c, 0, 74, 0
1, 195576, Note_on_c, 0, 62, 0
1, 195624, Note_on_c, 0, 77, 0
1, 195633, Note_on_c, 0, 64, 110
1, 195636, Note_on_c, 0, 65, 0
1, 195636, Note_on_c, 0, 76, 107
1, 195637, Note_on_c, 0, 60, 110
1, 195637, Note_on_c, 0, 48, 115
1, 195700, Note_on_c, 0, 76, 0
1, 195701, Note_on_c, 0, 60, 110
1, 195702, Note_on_c, 0, 72, 107
1, 195703, Note_on_c, 0, 60, 0
1, 195712, Note_on_c, 0, 64, 0
1, 195767, Note_on_c, 0, 64, 110
1, 195768, Note_on_c, 0, 76, 107
1, 195770, Note_on_c, 0, 72, 0
1, 195830, Note_on_c, 0, 76, 0
1, 195832, Note_on_c, 0, 79, 107
1, 195833, Note_on_c, 0, 67, 110
1, 195852, Note_on_c, 0, 64, 0
1, 195890, Note_on_c, 0, 48, 0
1, 195891, Note_on_c, 0, 79, 0
1, 195897, Note_on_c, 0, 84, 107
1, 195899, Note_on_c, 0, 72, 107
1, 195902, Note_on_c, 0, 67, 0
1, 195938, Note_on_c, 0, 60, 0
1, 195962, Note_on_c, 0, 64, 110
1, 195963, Note_on_c, 0, 76, 107
1, 195997, Note_on_c, 0, 72, 0
1, 196027, Note_on_c, 0, 72, 107
1, 196029, Note_on_c, 0, 60, 110
1, 196032, Note_on_c, 0, 76, 0
1, 196033, Note_on_c, 0, 64, 0
1, 196039, Note_on_c, 0, 84, 0
1, 196089, Note_on_c, 0, 60, 0
1, 196090, Note_on_c, 0, 57, 110
1, 196091, Note_on_c, 0, 72, 0
1, 196091, Note_on_c, 0, 69, 107
1, 196150, Note_on_c, 0, 54, 110
1, 196152, Note_on_c, 0, 66, 110
1, 196154, Note_on_c, 0, 57, 0
1, 196165, Note_on_c, 0, 69, 0
1, 196180, Note_on_c, 0, 66, 0
1, 196217, Note_on_c, 0, 74, 107
1, 196220, Note_on_c, 0, 62, 110
1, 196258, Note_on_c, 0, 62, 0
1, 196284, Note_on_c, 0, 69, 107
1, 196284, Note_on_c, 0, 81, 107
1, 196285, Note_on_c, 0, 50, 110
1, 196285, Note_on_c, 0, 62, 110
1, 196286, Note_on_c, 0, 74, 0
1, 196294, Note_on_c, 0, 54, 0
1, 196320, Note_on_c, 0, 66, 0
1, 196342, Note_on_c, 0, 72, 107
1, 196343, Note_on_c, 0, 69, 0
1, 196343, Note_on_c, 0, 84, 107
1, 196345, Note_on_c, 0, 81, 0
1, 196392, Note_on_c, 0, 62, 0
1, 196398, Note_on_c, 0, 84, 0
1, 196406, Note_on_c, 0, 71, 107
1, 196407, Note_on_c, 0, 83, 107
1, 196408, Note_on_c, 0, 67, 110
1, 196408, Note_on_c, 0, 55, 110
1, 196411, Note_on_c, 0, 72, 0
1, 196416, Note_on_c, 0, 50, 0
1, 196472, Note_on_c, 0, 83, 0
1, 196473, Note_on_c, 0, 74, 107
1, 196474, Note_on_c, 0, 62, 110
1, 196476, Note_on_c, 0, 71, 0
1, 196526, Note_on_c, 0, 67, 0
1, 196536, Note_on_c, 0, 79, 107
1, 196537, Note_on_c, 0, 67, 110
1, 196538, Note_on_c, 0, 62, 0
1, 196542, Note_on_c, 0, 74, 0
1, 196548, Note_on_c, 0, 55, 0
1, 196594, Note_on_c, 0, 79, 0
1, 196595, Note_on_c, 0, 67, 0
1, 196601, Note_on_c, 0, 71, 107
1, 196603, Note_on_c, 0, 83, 107
1, 196644, Note_on_c, 0, 83, 0
1, 196656, Note_on_c, 0, 71, 0
1, 196664, Note_on_c, 0, 86, 107
1, 196666, Note_on_c, 0, 74, 107
1, 196731, Note_on_c, 0, 65, 110
1, 196732, Note_on_c, 0, 77, 107
1, 196764, Note_on_c, 0, 74, 0
1, 196784, Note_on_c, 0, 77, 0
1, 196795, Note_on_c, 0, 74, 107
1, 196796, Note_on_c, 0, 62, 110
1, 196798, Note_on_c, 0, 65, 0
1, 196808, Note_on_c, 0, 86, 0
1, 196857, Note_on_c, 0, 62, 0
1, 196858, Note_on_c, 0, 59, 110
1, 196859, Note_on_c, 0, 71, 107
1, 196860, Note_on_c, 0, 74, 0
1, 196921, Note_on_c, 0, 59, 0
1, 196925, Note_on_c, 0, 71, 0
1, 196926, Note_on_c, 0, 68, 107
1, 196926, Note_on_c, 0, 56, 110
1, 196986, Note_on_c, 0, 64, 110
1, 196987, Note_on_c, 0, 76, 107
1, 197027, Note_on_c, 0, 64, 0
1, 197039, Note_on_c, 0, 76, 0
1, 197039, Note_on_c, 0, 68, 0
1, 197048, Note_on_c, 0, 71, 107
1, 197049, Note_on_c, 0, 64, 110
1, 197051, Note_on_c, 0, 83, 107
1, 197052, Note_on_c, 0, 52, 110
1, 197064, Note_on_c, 0, 56, 0
1, 197097, Note_on_c, 0, 83, 0
1, 197102, Note_on_c, 0, 71, 0
1, 197111, Note_on_c, 0, 74, 107
1, 197112, Note_on_c, 0, 86, 107
1, 197141, Note_on_c, 0, 64, 0
1, 197150, Note_on_c, 0, 86, 0
1, 197153, Note_on_c, 0, 74, 0
1, 197158, Note_on_c, 0, 52, 0
1, 197172, Note_on_c, 0, 86, 95
1, 197174, Note_on_c, 0, 69, 107
1, 197174, Note_on_c, 0, 74, 95
1, 197175, Note_on_c, 0, 57, 110
1, 197197, Note_on_c, 0, 74, 0
1, 197200, Note_on_c, 0, 86, 0
1, 197206, Note_on_c, 0, 72, 95
1, 197208, Note_on_c, 0, 84, 95
1, 197233, Note_on_c, 0, 84, 0
1, 197234, Note_on_c, 0, 72, 0
1, 197240, Note_on_c, 0, 86, 95
1, 197241, Note_on_c, 0, 69, 107
1, 197242, Note_on_c, 0, 81, 107
1, 197242, Note_on_c, 0, 74, 95
1, 197255, Note_on_c, 0, 69, 0
1, 197259, Note_on_c, 0, 74, 0
1, 197262, Note_on_c, 0, 86, 0
1, 197269, Note_on_c, 0, 84, 95
1, 197272, Note_on_c, 0, 72, 95
1, 197290, Note_on_c, 0, 81, 0
1, 197293, Note_on_c, 0, 57, 0
1, 197295, Note_on_c, 0, 72, 0
1, 197300, Note_on_c, 0, 84, 0
1, 197303, Note_on_c, 0, 67, 110
1, 197304, Note_on_c, 0, 69, 0
1, 197305, Note_on_c, 0, 86, 95
1, 197305, Note_on_c, 0, 74, 95
1, 197306, Note_on_c, 0, 79, 107
1, 197326, Note_on_c, 0, 74, 0
1, 197328, Note_on_c, 0, 86, 0
1, 197335, Note_on_c, 0, 72, 95
1, 197336, Note_on_c, 0, 84, 95
1, 197355, Note_on_c, 0, 72, 0
1, 197356, Note_on_c, 0, 84, 0
1, 197360, Note_on_c, 0, 79, 0
1, 197371, Note_on_c, 0, 65, 110
1, 197372, Note_on_c, 0, 74, 95
1, 197373, Note_on_c, 0, 67, 0
1, 197373, Note_on_c, 0, 86, 95
1, 197374, Note_on_c, 0, 77, 107
1, 197394, Note_on_c, 0, 74, 0
1, 197398, Note_on_c, 0, 86, 0
1, 197406, Note_on_c, 0, 72, 95
1, 197407, Note_on_c, 0, 84, 95
1, 197426, Note_on_c, 0, 72, 0
1, 197427, Note_on_c, 0, 84, 0
1, 197428, Note_on_c, 0, 77, 0
1, 197438, Note_on_c, 0, 74, 95
1, 197439, Note_on_c, 0, 64, 110
1, 197440, Note_on_c, 0, 86, 95
1, 197441, Note_on_c, 0, 76, 107
1, 197443, Note_on_c, 0, 65, 0
1, 197462, Note_on_c, 0, 86, 0
1, 197462, Note_on_c, 0, 74, 0
1, 197469, Note_on_c, 0, 72, 95
1, 197471, Note_on_c, 0, 84, 95
1, 197486, Note_on_c, 0, 76, 0
1, 197490, Note_on_c, 0, 84, 0
1, 197494, Note_on_c, 0, 72, 0
1, 197499, Note_on_c, 0, 86, 95
1, 197501, Note_on_c, 0, 74, 95
1, 197502, Note_on_c, 0, 74, 95
1, 197502, Note_on_c, 0, 62, 110
1, 197503, Note_on_c, 0, 64, 0
1, 197512, Note_on_c, 0, 74, 0
1, 197519, Note_on_c, 0, 86, 0
1, 197529, Note_on_c, 0, 72, 95
1, 197530, Note_on_c, 0, 84, 95
1, 197542, Note_on_c, 0, 74, 0
1, 197545, Note_on_c, 0, 72, 0
1, 197551, Note_on_c, 0, 84, 0
1, 197558, Note_on_c, 0, 62, 0
1, 197560, Note_on_c, 0, 60, 110
1, 197561, Note_on_c, 0, 86, 95
1, 197563, Note_on_c, 0, 72, 95
1, 197563, Note_on_c, 0, 74, 95
1, 197580, Note_on_c, 0, 74, 0
1, 197581, Note_on_c, 0, 86, 0
1, 197591, Note_on_c, 0, 72, 95
1, 197592, Note_on_c, 0, 84, 95
1, 197602, Note_on_c, 0, 72, 0
1, 197608, Note_on_c, 0, 72, 0
1, 197610, Note_on_c, 0, 84, 0
1, 197613, Note_on_c, 0, 60, 0
1, 197624, Note_on_c, 0, 86, 95
1, 197625, Note_on_c, 0, 71, 107
1, 197626, Note_on_c, 0, 74, 95
1, 197626, Note_on_c, 0, 59, 110
1, 197647, Note_on_c, 0, 74, 0
1, 197650, Note_on_c, 0, 86, 0
1, 197655, Note_on_c, 0, 84, 95
1, 197657, Note_on_c, 0, 72, 95
1, 197675, Note_on_c, 0, 72, 0
1, 197677, Note_on_c, 0, 59, 0
1, 197680, Note_on_c, 0, 84, 0
1, 197680, Note_on_c, 0, 71, 0
1, 197691, Note_on_c, 0, 86, 95
1, 197691, Note_on_c, 0, 57, 110
1, 197692, Note_on_c, 0, 69, 107
1, 197694, Note_on_c, 0, 74, 95
1, 197712, Note_on_c, 0, 74, 0
1, 197716, Note_on_c, 0, 86, 0
1, 197721, Note_on_c, 0, 84, 95
1, 197722, Note_on_c, 0, 72, 95
1, 197744, Note_on_c, 0, 72, 0
1, 197749, Note_on_c, 0, 84, 0
1, 197758, Note_on_c, 0, 72, 95
1, 197759, Note_on_c, 0, 74, 95
1, 197759, Note_on_c, 0, 60, 110
1, 197760, Note_on_c, 0, 86, 95
1, 197766, Note_on_c, 0, 57, 0
1, 197780, Note_on_c, 0, 74, 0
1, 197782, Note_on_c, 0, 69, 0
1, 197782, Note_on_c, 0, 86, 0
1, 197791, Note_on_c, 0, 72, 95
1, 197791, Note_on_c, 0, 84, 95
1, 197792, Note_on_c, 0, 72, 0
1, 197812, Note_on_c, 0, 84, 0
1, 197821, Note_on_c, 0, 55, 110
1, 197822, Note_on_c, 0, 86, 95
1, 197823, Note_on_c, 0, 74, 95
1, 197824, Note_on_c, 0, 67, 110
1, 197832, Note_on_c, 0, 72, 0
1, 197847, Note_on_c, 0, 74, 0
1, 197850, Note_on_c, 0, 86, 0
1, 197851, Note_on_c, 0, 60, 0
1, 197855, Note_on_c, 0, 72, 95
1, 197856, Note_on_c, 0, 84, 95
1, 197870, Note_on_c, 0, 72, 0
1, 197877, Note_on_c, 0, 84, 0
1, 197884, Note_on_c, 0, 60, 110
1, 197885, Note_on_c, 0, 86, 95
1, 197886, Note_on_c, 0, 72, 95
1, 197887, Note_on_c, 0, 74, 95
1, 197908, Note_on_c, 0, 74, 0
1, 197909, Note_on_c, 0, 86, 0
1, 197910, Note_on_c, 0, 55, 0
1, 197914, Note_on_c, 0, 72, 95
1, 197915, Note_on_c, 0, 84, 95
1, 197919, Note_on_c, 0, 72, 0
1, 197927, Note_on_c, 0, 67, 0
1, 197939, Note_on_c, 0, 84, 0
1, 197941, Note_on_c, 0, 72, 0
1, 197945, Note_on_c, 0, 66, 110
1, 197947, Note_on_c, 0, 60, 0
1, 197948, Note_on_c, 0, 86, 95
1, 197949, Note_on_c, 0, 74, 95
1, 197949, Note_on_c, 0, 66, 110
1, 197949, Note_on_c, 0, 54, 110
1, 197960, Note_on_c, 0, 74, 0
1, 197965, Note_on_c, 0, 86, 0
1, 197967, Note_on_c, 0, 66, 0
1, 197975, Note_on_c, 0, 84, 95
1, 197976, Note_on_c, 0, 72, 95
1, 197993, Note_on_c, 0, 72, 0
1, 198000, Note_on_c, 0, 84, 0
1, 198008, Note_on_c, 0, 57, 110
1, 198009, Note_on_c, 0, 74, 95
1, 198012, Note_on_c, 0, 69, 107
1, 198012, Note_on_c, 0, 86, 95
1, 198035, Note_on_c, 0, 74, 0
1, 198036, Note_on_c, 0, 86, 0
1, 198048, Note_on_c, 0, 84, 95
1, 198048, Note_on_c, 0, 72, 95
1, 198063, Note_on_c, 0, 72, 0
1, 198069, Note_on_c, 0, 84, 0
1, 198075, Note_on_c, 0, 69, 0
1, 198077, Note_on_c, 0, 57, 0
1, 198081, Note_on_c, 0, 86, 95
1, 198081, Note_on_c, 0, 58, 110
1, 198083, Note_on_c, 0, 74, 95
1, 198084, Note_on_c, 0, 70, 107
1, 198105, Note_on_c, 0, 54, 0
1, 198108, Note_on_c, 0, 74, 0
1, 198112, Note_on_c, 0, 86, 0
1, 198116, Note_on_c, 0, 72, 95
1, 198117, Note_on_c, 0, 84, 95
1, 198126, Note_on_c, 0, 72, 0
1, 198136, Note_on_c, 0, 70, 0
1, 198136, Note_on_c, 0, 84, 0
1, 198139, Note_on_c, 0, 58, 0
1, 198146, Note_on_c, 0, 74, 95
1, 198146, Note_on_c, 0, 86, 95
1, 198146, Note_on_c, 0, 62, 110
1, 198148, Note_on_c, 0, 74, 95
1, 198157, Note_on_c, 0, 74, 0
1, 198170, Note_on_c, 0, 86, 0
1, 198174, Note_on_c, 0, 72, 95
1, 198174, Note_on_c, 0, 84, 95
1, 198193, Note_on_c, 0, 74, 0
1, 198193, Note_on_c, 0, 62, 0
1, 198196, Note_on_c, 0, 72, 0
1, 198204, Note_on_c, 0, 84, 0
1, 198206, Note_on_c, 0, 74, 95
1, 198207, Note_on_c, 0, 72, 95
1, 198207, Note_on_c, 0, 60, 110
1, 198208, Note_on_c, 0, 86, 95
1, 198232, Note_on_c, 0, 86, 0
1, 198234, Note_on_c, 0, 74, 0
1, 198236, Note_on_c, 0, 84, 95
1, 198238, Note_on_c, 0, 72, 95
1, 198246, Note_on_c, 0, 66, 0
1, 198253, Note_on_c, 0, 72, 0
1, 198260, Note_on_c, 0, 72, 0
1, 198262, Note_on_c, 0, 60, 0
1, 198264, Note_on_c, 0, 84, 0
1, 198267, Note_on_c, 0, 58, 110
1, 198268, Note_on_c, 0, 70, 107
1, 198270, Note_on_c, 0, 74, 95
1, 198271, Note_on_c, 0, 86, 95
1, 198300, Note_on_c, 0, 86, 0
1, 198304, Note_on_c, 0, 72, 95
1, 198305, Note_on_c, 0, 84, 95
1, 198308, Note_on_c, 0, 74, 0
1, 198329, Note_on_c, 0, 84, 0
1, 198332, Note_on_c, 0, 72, 0
1, 198335, Note_on_c, 0, 70, 0
1, 198336, Note_on_c, 0, 58, 0
1, 198338, Note_on_c, 0, 57, 110
1, 198339, Note_on_c, 0, 86, 95
1, 198339, Note_on_c, 0, 74, 95
1, 198340, Note_on_c, 0, 69, 107
1, 198368, Note_on_c, 0, 86, 0
1, 198370, Note_on_c, 0, 72, 95
1, 198371, Note_on_c, 0, 84, 95
1, 198375, Note_on_c, 0, 74, 0
1, 198397, Note_on_c, 0, 57, 0
1, 198398, Note_on_c, 0, 84, 0
1, 198401, Note_on_c, 0, 72, 0
1, 198402, Note_on_c, 0, 55, 110
1, 198403, Note_on_c, 0, 74, 95
1, 198404, Note_on_c, 0, 86, 95
1, 198405, Note_on_c, 0, 67, 110
1, 198426, Note_on_c, 0, 86, 0
1, 198434, Note_on_c, 0, 72, 95
1, 198435, Note_on_c, 0, 84, 95
1, 198438, Note_on_c, 0, 74, 0
1, 198438, Note_on_c, 0, 69, 0
1, 198459, Note_on_c, 0, 72, 0
1, 198461, Note_on_c, 0, 84, 0
1, 198464, Note_on_c, 0, 67, 0
1, 198464, Note_on_c, 0, 86, 95
1, 198466, Note_on_c, 0, 55, 0
1, 198467, Note_on_c, 0, 74, 95
1, 198468, Note_on_c, 0, 66, 110
1, 198468, Note_on_c, 0, 66, 110
1, 198469, Note_on_c, 0, 54, 110
1, 198469, Note_on_c, 0, 54, 110
1, 198496, Note_on_c, 0, 86, 0
1, 198497, Note_on_c, 0, 72, 95
1, 198498, Note_on_c, 0, 84, 95
1, 198502, Note_on_c, 0, 74, 0
1, 198510, Note_on_c, 0, 54, 0
1, 198514, Note_on_c, 0, 66, 0
1, 198526, Note_on_c, 0, 72, 0
1, 198527, Note_on_c, 0, 84, 0
1, 198531, Note_on_c, 0, 74, 95
1, 198532, Note_on_c, 0, 86, 95
1, 198532, Note_on_c, 0, 57, 110
1, 198534, Note_on_c, 0, 69, 107
1, 198563, Note_on_c, 0, 86, 0
1, 198566, Note_on_c, 0, 74, 0
1, 198567, Note_on_c, 0, 72, 95
1, 198568, Note_on_c, 0, 84, 95
1, 198593, Note_on_c, 0, 84, 0
1, 198597, Note_on_c, 0, 72, 0
1, 198599, Note_on_c, 0, 52, 110
1, 198601, Note_on_c, 0, 74, 95
1, 198601, Note_on_c, 0, 57, 110
1, 198602, Note_on_c, 0, 64, 110
1, 198604, Note_on_c, 0, 86, 95
1, 198605, Note_on_c, 0, 54, 0
1, 198605, Note_on_c, 0, 64, 110
1, 198608, Note_on_c, 0, 66, 0
1, 198627, Note_on_c, 0, 64, 0
1, 198638, Note_on_c, 0, 86, 0
1, 198639, Note_on_c, 0, 72, 95
1, 198640, Note_on_c, 0, 84, 95
1, 198643, Note_on_c, 0, 74, 0
1, 198654, Note_on_c, 0, 69, 0
1, 198667, Note_on_c, 0, 72, 0
1, 198670, Note_on_c, 0, 84, 0
1, 198671, Note_on_c, 0, 74, 95
1, 198671, Note_on_c, 0, 57, 110
1, 198672, Note_on_c, 0, 57, 0
1, 198672, Note_on_c, 0, 69, 107
1, 198673, Note_on_c, 0, 86, 95
1, 198698, Note_on_c, 0, 86, 0
1, 198701, Note_on_c, 0, 74, 0
1, 198704, Note_on_c, 0, 84, 95
1, 198704, Note_on_c, 0, 72, 95
1, 198710, Note_on_c, 0, 57, 0
1, 198712, Note_on_c, 0, 52, 0
1, 198730, Note_on_c, 0, 72, 0
1, 198732, Note_on_c, 0, 84, 0
1, 198739, Note_on_c, 0, 62, 110
1, 198740, Note_on_c, 0, 50, 110
1, 198742, Note_on_c, 0, 72, 95
1, 198743, Note_on_c, 0, 84, 107
1, 198743, Note_on_c, 0, 62, 110
1, 198754, Note_on_c, 0, 62, 0
1, 198756, Note_on_c, 0, 64, 0
1, 198786, Note_on_c, 0, 69, 0
1, 198804, Note_on_c, 0, 72, 0
1, 198806, Note_on_c, 0, 84, 0
1, 198809, Note_on_c, 0, 81, 107
1, 198811, Note_on_c, 0, 66, 110
1, 198813, Note_on_c, 0, 69, 107
1, 198814, Note_on_c, 0, 54, 110
1, 198824, Note_on_c, 0, 57, 0
1, 198869, Note_on_c, 0, 66, 0
1, 198870, Note_on_c, 0, 69, 0
1, 198871, Note_on_c, 0, 81, 0
1, 198874, Note_on_c, 0, 54, 0
1, 198876, Note_on_c, 0, 82, 107
1, 198876, Note_on_c, 0, 67, 110
1, 198877, Note_on_c, 0, 70, 107
1, 198879, Note_on_c, 0, 55, 110
1, 198884, Note_on_c, 0, 62, 0
1, 198925, Note_on_c, 0, 70, 0
1, 198928, Note_on_c, 0, 67, 0
1, 198939, Note_on_c, 0, 74, 107
1, 198940, Note_on_c, 0, 86, 107
1, 198941, Note_on_c, 0, 70, 107
1, 198942, Note_on_c, 0, 82, 0
1, 198942, Note_on_c, 0, 58, 110
1, 198944, Note_on_c, 0, 55, 0
1, 198970, Note_on_c, 0, 50, 0
1, 198998, Note_on_c, 0, 70, 0
1, 199002, Note_on_c, 0, 58, 0
1, 199003, Note_on_c, 0, 84, 107
1, 199004, Note_on_c, 0, 72, 107
1, 199005, Note_on_c, 0, 69, 107
1, 199006, Note_on_c, 0, 86, 0
1, 199006, Note_on_c, 0, 57, 110
1, 199009, Note_on_c, 0, 74, 0
1, 199070, Note_on_c, 0, 57, 0
1, 199071, Note_on_c, 0, 69, 0
1, 199073, Note_on_c, 0, 82, 107
1, 199074, Note_on_c, 0, 67, 110
1, 199074, Note_on_c, 0, 55, 110
1, 199076, Note_on_c, 0, 84, 0
1, 199077, Note_on_c, 0, 70, 107
1, 199085, Note_on_c, 0, 72, 0
1, 199131, Note_on_c, 0, 55, 0
1, 199131, Note_on_c, 0, 70, 0
1, 199135, Note_on_c, 0, 81, 107
1, 199135, Note_on_c, 0, 54, 110
1, 199136, Note_on_c, 0, 67, 0
1, 199136, Note_on_c, 0, 69, 107
1, 199137, Note_on_c, 0, 66, 110
1, 199138, Note_on_c, 0, 82, 0
1, 199200, Note_on_c, 0, 79, 107
1, 199201, Note_on_c, 0, 64, 110
1, 199202, Note_on_c, 0, 81, 0
1, 199202, Note_on_c, 0, 52, 110
1, 199203, Note_on_c, 0, 67, 110
1, 199208, Note_on_c, 0, 66, 0
1, 199210, Note_on_c, 0, 54, 0
1, 199217, Note_on_c, 0, 69, 0
1, 199267, Note_on_c, 0, 52, 0
1, 199268, Note_on_c, 0, 67, 0
1, 199268, Note_on_c, 0, 78, 107
1, 199269, Note_on_c, 0, 79, 0
1, 199269, Note_on_c, 0, 62, 110
1, 199270, Note_on_c, 0, 62, 110
1, 199270, Note_on_c, 0, 50, 110
1, 199271, Note_on_c, 0, 50, 110
1, 199272, Note_on_c, 0, 64, 0
1, 199272, Note_on_c, 0, 66, 110
1, 199280, Note_on_c, 0, 50, 0
1, 199280, Note_on_c, 0, 62, 0
1, 199331, Note_on_c, 0, 66, 0
1, 199333, Note_on_c, 0, 81, 107
1, 199334, Note_on_c, 0, 69, 107
1, 199335, Note_on_c, 0, 54, 110
1, 199337, Note_on_c, 0, 66, 110
1, 199361, Note_on_c, 0, 78, 0
1, 199399, Note_on_c, 0, 76, 107
1, 199399, Note_on_c, 0, 48, 115
1, 199401, Note_on_c, 0, 64, 110
1, 199401, Note_on_c, 0, 48, 115
1, 199402, Note_on_c, 0, 60, 110
1, 199407, Note_on_c, 0, 48, 0
1, 199420, Note_on_c, 0, 66, 0
1, 199427, Note_on_c, 0, 50, 0
1, 199430, Note_on_c, 0, 54, 0
1, 199431, Note_on_c, 0, 62, 0
1, 199451, Note_on_c, 0, 81, 0
1, 199452, Note_on_c, 0, 69, 0
1, 199456, Note_on_c, 0, 81, 107
1, 199457, Note_on_c, 0, 54, 110
1, 199458, Note_on_c, 0, 66, 110
1, 199459, Note_on_c, 0, 69, 107
1, 199466, Note_on_c, 0, 64, 0
1, 199491, Note_on_c, 0, 76, 0
1, 199526, Note_on_c, 0, 74, 107
1, 199527, Note_on_c, 0, 74, 107
1, 199528, Note_on_c, 0, 62, 110
1, 199529, Note_on_c, 0, 62, 110
1, 199529, Note_on_c, 0, 46, 115
1, 199530, Note_on_c, 0, 58, 110
1, 199546, Note_on_c, 0, 66, 0
1, 199547, Note_on_c, 0, 69, 0
1, 199558, Note_on_c, 0, 54, 0
1, 199570, Note_on_c, 0, 81, 0
1, 199572, Note_on_c, 0, 62, 0
1, 199585, Note_on_c, 0, 74, 0
1, 199596, Note_on_c, 0, 46, 0
1, 199596, Note_on_c, 0, 78, 107
1, 199596, Note_on_c, 0, 66, 110
1, 199597, Note_on_c, 0, 62, 110
1, 199597, Note_on_c, 0, 50, 110
1, 199599, Note_on_c, 0, 62, 0
1, 199601, Note_on_c, 0, 58, 0
1, 199649, Note_on_c, 0, 78, 0
1, 199652, Note_on_c, 0, 66, 0
1, 199656, Note_on_c, 0, 50, 0
1, 199660, Note_on_c, 0, 79, 107
1, 199661, Note_on_c, 0, 67, 110
1, 199662, Note_on_c, 0, 64, 110
1, 199662, Note_on_c, 0, 52, 110
1, 199669, Note_on_c, 0, 62, 0
1, 199716, Note_on_c, 0, 67, 0
1, 199719, Note_on_c, 0, 79, 0
1, 199721, Note_on_c, 0, 52, 0
1, 199726, Note_on_c, 0, 74, 0
1, 199727, Note_on_c, 0, 82, 107
1, 199728, Note_on_c, 0, 67, 110
1, 199728, Note_on_c, 0, 55, 110
1, 199730, Note_on_c, 0, 70, 107
1, 199757, Note_on_c, 0, 64, 0
1, 199781, Note_on_c, 0, 60, 0
1, 199788, Note_on_c, 0, 48, 0
1, 199793, Note_on_c, 0, 76, 107
1, 199794, Note_on_c, 0, 48, 115
1, 199798, Note_on_c, 0, 76, 107
1, 199799, Note_on_c, 0, 64, 110
1, 199800, Note_on_c, 0, 64, 110
1, 199800, Note_on_c, 0, 60, 110
1, 199816, Note_on_c, 0, 55, 0
1, 199824, Note_on_c, 0, 67, 0
1, 199826, Note_on_c, 0, 64, 0
1, 199835, Note_on_c, 0, 70, 0
1, 199841, Note_on_c, 0, 82, 0
1, 199853, Note_on_c, 0, 60, 0
1, 199861, Note_on_c, 0, 48, 0
1, 199864, Note_on_c, 0, 79, 107
1, 199865, Note_on_c, 0, 76, 0
1, 199865, Note_on_c, 0, 67, 110
1, 199866, Note_on_c, 0, 52, 110
1, 199866, Note_on_c, 0, 64, 110
1, 199873, Note_on_c, 0, 64, 0
1, 199914, Note_on_c, 0, 67, 0
1, 199922, Note_on_c, 0, 52, 0
1, 199925, Note_on_c, 0, 54, 110
1, 199926, Note_on_c, 0, 81, 107
1, 199927, Note_on_c, 0, 79, 0
1, 199928, Note_on_c, 0, 69, 107
1, 199929, Note_on_c, 0, 66, 110
1, 199934, Note_on_c, 0, 76, 0
1, 199961, Note_on_c, 0, 64, 0
1, 199973, Note_on_c, 0, 69, 0
1, 199981, Note_on_c, 0, 54, 0
1, 199983, Note_on_c, 0, 72, 107
1, 199984, Note_on_c, 0, 84, 107
1, 199985, Note_on_c, 0, 81, 0
1, 199986, Note_on_c, 0, 69, 107
1, 199987, Note_on_c, 0, 57, 110
1, 200005, Note_on_c, 0, 66, 0
1, 200053, Note_on_c, 0, 78, 107
1, 200053, Note_on_c, 0, 78, 107
1, 200054, Note_on_c, 0, 62, 110
1, 200054, Note_on_c, 0, 66, 110
1, 200055, Note_on_c, 0, 66, 110
1, 200056, Note_on_c, 0, 50, 110
1, 200072, Note_on_c, 0, 66, 0
1, 200093, Note_on_c, 0, 57, 0
1, 200094, Note_on_c, 0, 84, 0
1, 200096, Note_on_c, 0, 69, 0
1, 200100, Note_on_c, 0, 78, 0
1, 200108, Note_on_c, 0, 72, 0
1, 200111, Note_on_c, 0, 62, 0
1, 200116, Note_on_c, 0, 81, 107
1, 200116, Note_on_c, 0, 66, 110
1, 200118, Note_on_c, 0, 69, 107
1, 200119, Note_on_c, 0, 54, 110
1, 200121, Note_on_c, 0, 50, 0
1, 200124, Note_on_c, 0, 66, 0
1, 200168, Note_on_c, 0, 81, 0
1, 200169, Note_on_c, 0, 69, 0
1, 200171, Note_on_c, 0, 54, 0
1, 200181, Note_on_c, 0, 82, 107
1, 200182, Note_on_c, 0, 70, 107
1, 200182, Note_on_c, 0, 55, 110
1, 200183, Note_on_c, 0, 67, 110
1, 200213, Note_on_c, 0, 66, 0
1, 200227, Note_on_c, 0, 70, 0
1, 200239, Note_on_c, 0, 74, 107
1, 200240, Note_on_c, 0, 86, 107
1, 200241, Note_on_c, 0, 70, 107
1, 200242, Note_on_c, 0, 58, 110
1, 200243, Note_on_c, 0, 55, 0
1, 200256, Note_on_c, 0, 78, 0
1, 200263, Note_on_c, 0, 82, 0
1, 200277, Note_on_c, 0, 67, 0
1, 200303, Note_on_c, 0, 79, 107
1, 200304, Note_on_c, 0, 79, 107
1, 200305, Note_on_c, 0, 52, 110
1, 200306, Note_on_c, 0, 67, 110
1, 200307, Note_on_c, 0, 67, 110
1, 200307, Note_on_c, 0, 64, 110
1, 200312, Note_on_c, 0, 67, 0
1, 200340, Note_on_c, 0, 58, 0
1, 200340, Note_on_c, 0, 70, 0
1, 200343, Note_on_c, 0, 86, 0
1, 200349, Note_on_c, 0, 74, 0
1, 200361, Note_on_c, 0, 79, 0
1, 200368, Note_on_c, 0, 52, 0
1, 200370, Note_on_c, 0, 82, 107
1, 200370, Note_on_c, 0, 70, 107
1, 200371, Note_on_c, 0, 55, 110
1, 200371, Note_on_c, 0, 67, 110
1, 200372, Note_on_c, 0, 67, 0
1, 200388, Note_on_c, 0, 64, 0
1, 200414, Note_on_c, 0, 70, 0
1, 200416, Note_on_c, 0, 55, 0
1, 200428, Note_on_c, 0, 82, 0
1, 200435, Note_on_c, 0, 72, 107
1, 200437, Note_on_c, 0, 69, 107
1, 200438, Note_on_c, 0, 84, 107
1, 200438, Note_on_c, 0, 57, 110
1, 200491, Note_on_c, 0, 69, 0
1, 200492, Note_on_c, 0, 57, 0
1, 200496, Note_on_c, 0, 72, 0
1, 200499, Note_on_c, 0, 84, 0
1, 200504, Note_on_c, 0, 86, 107
1, 200505, Note_on_c, 0, 74, 107
1, 200506, Note_on_c, 0, 58, 110
1, 200507, Note_on_c, 0, 70, 107
1, 200529, Note_on_c, 0, 79, 0
1, 200559, Note_on_c, 0, 70, 0
1, 200563, Note_on_c, 0, 81, 107
1, 200563, Note_on_c, 0, 81, 107
1, 200564, Note_on_c, 0, 69, 107
1, 200567, Note_on_c, 0, 66, 110
1, 200568, Note_on_c, 0, 69, 107
1, 200568, Note_on_c, 0, 54, 110
1, 200573, Note_on_c, 0, 58, 0
1, 200584, Note_on_c, 0, 74, 0
1, 200589, Note_on_c, 0, 86, 0
1, 200601, Note_on_c, 0, 69, 0
1, 200623, Note_on_c, 0, 57, 110
1, 200624, Note_on_c, 0, 84, 107
1, 200624, Note_on_c, 0, 72, 107
1, 200625, Note_on_c, 0, 54, 0
1, 200625, Note_on_c, 0, 69, 107
1, 200631, Note_on_c, 0, 66, 0
1, 200631, Note_on_c, 0, 81, 0
1, 200643, Note_on_c, 0, 67, 0
1, 200656, Note_on_c, 0, 69, 0
1, 200678, Note_on_c, 0, 69, 0
1, 200680, Note_on_c, 0, 57, 0
1, 200687, Note_on_c, 0, 74, 107
1, 200688, Note_on_c, 0, 86, 107
1, 200688, Note_on_c, 0, 58, 110
1, 200689, Note_on_c, 0, 72, 0
1, 200689, Note_on_c, 0, 70, 107
1, 200691, Note_on_c, 0, 84, 0
1, 200745, Note_on_c, 0, 70, 0
1, 200749, Note_on_c, 0, 86, 0
1, 200752, Note_on_c, 0, 74, 0
1, 200752, Note_on_c, 0, 81, 0
1, 200753, Note_on_c, 0, 87, 107
1, 200753, Note_on_c, 0, 75, 107
1, 200754, Note_on_c, 0, 72, 107
1, 200755, Note_on_c, 0, 60, 110
1, 200759, Note_on_c, 0, 58, 0
1, 200809, Note_on_c, 0, 72, 0
1, 200810, Note_on_c, 0, 75, 0
1, 200812, Note_on_c, 0, 87, 0
1, 200819, Note_on_c, 0, 86, 107
1, 200820, Note_on_c, 0, 74, 107
1, 200821, Note_on_c, 0, 70, 107
1, 200822, Note_on_c, 0, 60, 0
1, 200822, Note_on_c, 0, 58, 110
1, 200872, Note_on_c, 0, 70, 0
1, 200876, Note_on_c, 0, 74, 0
1, 200877, Note_on_c, 0, 86, 0
1, 200878, Note_on_c, 0, 58, 0
1, 200881, Note_on_c, 0, 84, 107
1, 200882, Note_on_c, 0, 72, 107
1, 200883, Note_on_c, 0, 69, 107
1, 200883, Note_on_c, 0, 57, 110
1, 200946, Note_on_c, 0, 84, 0
1, 200947, Note_on_c, 0, 57, 0
1, 200948, Note_on_c, 0, 70, 107
1, 200950, Note_on_c, 0, 69, 0
1, 200950, Note_on_c, 0, 72, 0
1, 200951, Note_on_c, 0, 82, 107
1, 200951, Note_on_c, 0, 55, 110
1, 200952, Note_on_c, 0, 67, 110
1, 201010, Note_on_c, 0, 55, 0
1, 201011, Note_on_c, 0, 67, 0
1, 201011, Note_on_c, 0, 69, 107
1, 201013, Note_on_c, 0, 54, 110
1, 201014, Note_on_c, 0, 81, 107
1, 201015, Note_on_c, 0, 66, 110
1, 201017, Note_on_c, 0, 82, 0
1, 201018, Note_on_c, 0, 70, 0
1, 201070, Note_on_c, 0, 54, 0
1, 201075, Note_on_c, 0, 66, 0
1, 201076, Note_on_c, 0, 81, 0
1, 201077, Note_on_c, 0, 70, 107
1, 201077, Note_on_c, 0, 82, 107
1, 201078, Note_on_c, 0, 55, 110
1, 201079, Note_on_c, 0, 67, 110
1, 201082, Note_on_c, 0, 69, 0
1, 201143, Note_on_c, 0, 74, 107
1, 201144, Note_on_c, 0, 86, 107
1, 201148, Note_on_c, 0, 70, 0
1, 201151, Note_on_c, 0, 82, 0
1, 201207, Note_on_c, 0, 79, 107
1, 201208, Note_on_c, 0, 50, 110
1, 201209, Note_on_c, 0, 62, 110
1, 201210, Note_on_c, 0, 55, 0
1, 201211, Note_on_c, 0, 91, 107
1, 201214, Note_on_c, 0, 86, 0
1, 201216, Note_on_c, 0, 67, 0
1, 201217, Note_on_c, 0, 74, 0
1, 201262, Note_on_c, 0, 91, 0
1, 201267, Note_on_c, 0, 79, 0
1, 201272, Note_on_c, 0, 78, 107
1, 201273, Note_on_c, 0, 90, 107
1, 201327, Note_on_c, 0, 90, 0
1, 201327, Note_on_c, 0, 50, 0
1, 201328, Note_on_c, 0, 62, 0
1, 201329, Note_on_c, 0, 78, 0
1, 201336, Note_on_c, 0, 91, 107
1, 201338, Note_on_c, 0, 79, 107
1, 201339, Note_on_c, 0, 51, 110
1, 201339, Note_on_c, 0, 63, 110
1, 201400, Note_on_c, 0, 72, 107
1, 201400, Note_on_c, 0, 84, 107
1, 201406, Note_on_c, 0, 79, 0
1, 201408, Note_on_c, 0, 91, 0
1, 201455, Note_on_c, 0, 84, 0
1, 201457, Note_on_c, 0, 72, 0
1, 201466, Note_on_c, 0, 74, 107
1, 201467, Note_on_c, 0, 86, 107
1, 201468, Note_on_c, 0, 60, 110
1, 201468, Note_on_c, 0, 48, 115
1, 201475, Note_on_c, 0, 51, 0
1, 201479, Note_on_c, 0, 63, 0
1, 201518, Note_on_c, 0, 86, 0
1, 201518, Note_on_c, 0, 74, 0
1, 201528, Note_on_c, 0, 87, 107
1, 201529, Note_on_c, 0, 75, 107
1, 201591, Note_on_c, 0, 66, 110
1, 201592, Note_on_c, 0, 78, 107
1, 201593, Note_on_c, 0, 50, 110
1, 201594, Note_on_c, 0, 62, 110
1, 201606, Note_on_c, 0, 48, 0
1, 201607, Note_on_c, 0, 60, 0
1, 201608, Note_on_c, 0, 75, 0
1, 201623, Note_on_c, 0, 87, 0
1, 201658, Note_on_c, 0, 87, 107
1, 201659, Note_on_c, 0, 75, 107
1, 201661, Note_on_c, 0, 78, 0
1, 201676, Note_on_c, 0, 66, 0
1, 201708, Note_on_c, 0, 87, 0
1, 201709, Note_on_c, 0, 75, 0
1, 201720, Note_on_c, 0, 86, 107
1, 201721, Note_on_c, 0, 38, 115
1, 201723, Note_on_c, 0, 74, 107
1, 201724, Note_on_c, 0, 50, 110
1, 201739, Note_on_c, 0, 50, 0
1, 201766, Note_on_c, 0, 62, 0
1, 201781, Note_on_c, 0, 74, 0
1, 201782, Note_on_c, 0, 86, 0
1, 201788, Note_on_c, 0, 72, 107
1, 201789, Note_on_c, 0, 84, 107
1, 201855, Note_on_c, 0, 70, 107
1, 201857, Note_on_c, 0, 82, 107
1, 201858, Note_on_c, 0, 79, 107
1, 201859, Note_on_c, 0, 67, 110
1, 201860, Note_on_c, 0, 55, 110
1, 201860, Note_on_c, 0, 43, 115
1, 201861, Note_on_c, 0, 72, 0
1, 201861, Note_on_c, 0, 31, 115
1, 201863, Note_on_c, 0, 84, 0
1, 201874, Note_on_c, 0, 38, 0
1, 201912, Note_on_c, 0, 70, 0
1, 201922, Note_on_c, 0, 74, 107
1, 201924, Note_on_c, 0, 86, 107
1, 201925, Note_on_c, 0, 50, 0
1, 201925, Note_on_c, 0, 82, 0
1, 201988, Note_on_c, 0, 79, 107
1, 201989, Note_on_c, 0, 91, 107
1, 201991, Note_on_c, 0, 86, 0
1, 201992, Note_on_c, 0, 74, 0
1, 201995, Note_on_c, 0, 79, 0
1, 202045, Note_on_c, 0, 67, 0
1, 202054, Note_on_c, 0, 69, 107
1, 202055, Note_on_c, 0, 81, 107
1, 202090, Note_on_c, 0, 91, 0
1, 202107, Note_on_c, 0, 79, 0
1, 202110, Note_on_c, 0, 81, 0
1, 202112, Note_on_c, 0, 69, 0
1, 202120, Note_on_c, 0, 70, 107
1, 202122, Note_on_c, 0, 82, 107
1, 202184, Note_on_c, 0, 72, 107
1, 202185, Note_on_c, 0, 84, 107
1, 202230, Note_on_c, 0, 84, 0
1, 202236, Note_on_c, 0, 72, 0
1, 202245, Note_on_c, 0, 74, 107
1, 202246, Note_on_c, 0, 86, 107
1, 202306, Note_on_c, 0, 86, 0
1, 202308, Note_on_c, 0, 74, 0
1, 202311, Note_on_c, 0, 75, 107
1, 202312, Note_on_c, 0, 87, 107
1, 202362, Note_on_c, 0, 82, 0
1, 202366, Note_on_c, 0, 70, 0
1, 202369, Note_on_c, 0, 87, 0
1, 202370, Note_on_c, 0, 75, 0
1, 202376, Note_on_c, 0, 77, 107
1, 202377, Note_on_c, 0, 71, 107
1, 202379, Note_on_c, 0, 83, 107
1, 202379, Note_on_c, 0, 89, 107
1, 202432, Note_on_c, 0, 77, 0
1, 202440, Note_on_c, 0, 89, 0
1, 202441, Note_on_c, 0, 80, 107
1, 202442, Note_on_c, 0, 92, 107
1, 202487, Note_on_c, 0, 31, 0
1, 202493, Note_on_c, 0, 80, 0
1, 202499, Note_on_c, 0, 92, 0
1, 202502, Note_on_c, 0, 79, 107
1, 202504, Note_on_c, 0, 91, 107
1, 202560, Note_on_c, 0, 79, 0
1, 202563, Note_on_c, 0, 91, 0
1, 202572, Note_on_c, 0, 77, 107
1, 202574, Note_on_c, 0, 89, 107
1, 202612, Note_on_c, 0, 55, 0
1, 202619, Note_on_c, 0, 83, 0
1, 202619, Note_on_c, 0, 43, 0
1, 202625, Note_on_c, 0, 71, 0
1, 202633, Note_on_c, 0, 89, 0
1, 202635, Note_on_c, 0, 43, 115
1, 202636, Note_on_c, 0, 31, 115
1, 202638, Note_on_c, 0, 77, 0
1, 202638, Note_on_c, 0, 75, 107
1, 202639, Note_on_c, 0, 72, 107
1, 202639, Note_on_c, 0, 55, 110
1, 202640, Note_on_c, 0, 84, 107
1, 202641, Note_on_c, 0, 87, 107
1, 202759, Note_on_c, 0, 79, 107
1, 202760, Note_on_c, 0, 91, 107
1, 202764, Note_on_c, 0, 87, 0
1, 202770, Note_on_c, 0, 75, 0
1, 202817, Note_on_c, 0, 91, 0
1, 202820, Note_on_c, 0, 79, 0
1, 202828, Note_on_c, 0, 89, 107
1, 202829, Note_on_c, 0, 77, 107
1, 202872, Note_on_c, 0, 72, 0
1, 202889, Note_on_c, 0, 87, 107
1, 202890, Note_on_c, 0, 89, 0
1, 202892, Note_on_c, 0, 77, 0
1, 202893, Note_on_c, 0, 75, 107
1, 202894, Note_on_c, 0, 72, 107
1, 202894, Note_on_c, 0, 84, 107
1, 202919, Note_on_c, 0, 84, 0
1, 203006, Note_on_c, 0, 72, 0
1, 203008, Note_on_c, 0, 84, 0
1, 203009, Note_on_c, 0, 75, 0
1, 203010, Note_on_c, 0, 87, 0
1, 203021, Note_on_c, 0, 71, 107
1, 203021, Note_on_c, 0, 75, 107
1, 203023, Note_on_c, 0, 87, 107
1, 203023, Note_on_c, 0, 83, 107
1, 203071, Note_on_c, 0, 87, 0
1, 203075, Note_on_c, 0, 75, 0
1, 203083, Note_on_c, 0, 86, 107
1, 203084, Note_on_c, 0, 74, 107
1, 203134, Note_on_c, 0, 83, 0
1, 203137, Note_on_c, 0, 86, 0
1, 203138, Note_on_c, 0, 71, 0
1, 203139, Note_on_c, 0, 74, 0
1, 203146, Note_on_c, 0, 87, 107
1, 203147, Note_on_c, 0, 75, 107
1, 203147, Note_on_c, 0, 72, 107
1, 203148, Note_on_c, 0, 84, 107
1, 203207, Note_on_c, 0, 68, 107
1, 203208, Note_on_c, 0, 80, 107
1, 203209, Note_on_c, 0, 84, 0
1, 203212, Note_on_c, 0, 72, 0
1, 203265, Note_on_c, 0, 80, 0
1, 203268, Note_on_c, 0, 68, 0
1, 203272, Note_on_c, 0, 79, 107
1, 203273, Note_on_c, 0, 67, 110
1, 203325, Note_on_c, 0, 67, 0
1, 203327, Note_on_c, 0, 79, 0
1, 203335, Note_on_c, 0, 31, 0
1, 203337, Note_on_c, 0, 43, 0
1, 203338, Note_on_c, 0, 55, 0
1, 203339, Note_on_c, 0, 65, 110
1, 203340, Note_on_c, 0, 77, 107
1, 203388, Note_on_c, 0, 75, 0
1, 203391, Note_on_c, 0, 87, 0
1, 203399, Note_on_c, 0, 43, 115
1, 203401, Note_on_c, 0, 55, 110
1, 203402, Note_on_c, 0, 75, 107
1, 203403, Note_on_c, 0, 63, 110
1, 203403, Note_on_c, 0, 31, 115
1, 203404, Note_on_c, 0, 75, 107
1, 203405, Note_on_c, 0, 63, 110
1, 203415, Note_on_c, 0, 77, 0
1, 203416, Note_on_c, 0, 75, 0
1, 203418, Note_on_c, 0, 63, 0
1, 203419, Note_on_c, 0, 65, 0
1, 203464, Note_on_c, 0, 79, 107
1, 203465, Note_on_c, 0, 67, 110
1, 203528, Note_on_c, 0, 72, 107
1, 203530, Note_on_c, 0, 67, 0
1, 203531, Note_on_c, 0, 84, 107
1, 203532, Note_on_c, 0, 79, 0
1, 203589, Note_on_c, 0, 76, 107
1, 203591, Note_on_c, 0, 64, 110
1, 203605, Note_on_c, 0, 84, 0
1, 203611, Note_on_c, 0, 72, 0
1, 203615, Note_on_c, 0, 63, 0
1, 203641, Note_on_c, 0, 64, 0
1, 203646, Note_on_c, 0, 76, 0
1, 203650, Note_on_c, 0, 65, 110
1, 203652, Note_on_c, 0, 77, 107
1, 203656, Note_on_c, 0, 75, 0
1, 203713, Note_on_c, 0, 79, 107
1, 203714, Note_on_c, 0, 67, 110
1, 203765, Note_on_c, 0, 67, 0
1, 203771, Note_on_c, 0, 79, 0
1, 203777, Note_on_c, 0, 81, 107
1, 203778, Note_on_c, 0, 69, 107
1, 203834, Note_on_c, 0, 69, 0
1, 203837, Note_on_c, 0, 81, 0
1, 203843, Note_on_c, 0, 70, 107
1, 203844, Note_on_c, 0, 82, 107
1, 203892, Note_on_c, 0, 82, 0
1, 203893, Note_on_c, 0, 77, 0
1, 203894, Note_on_c, 0, 70, 0
1, 203898, Note_on_c, 0, 65, 0
1, 203902, Note_on_c, 0, 72, 107
1, 203904, Note_on_c, 0, 84, 107
1, 203905, Note_on_c, 0, 78, 107
1, 203905, Note_on_c, 0, 66, 110
1, 203956, Note_on_c, 0, 84, 0
1, 203961, Note_on_c, 0, 72, 0
1, 203964, Note_on_c, 0, 87, 107
1, 203965, Note_on_c, 0, 75, 107
1, 204021, Note_on_c, 0, 75, 0
1, 204024, Note_on_c, 0, 87, 0
1, 204030, Note_on_c, 0, 74, 107
1, 204031, Note_on_c, 0, 86, 107
1, 204095, Note_on_c, 0, 31, 0
1, 204098, Note_on_c, 0, 72, 107
1, 204099, Note_on_c, 0, 84, 107
1, 204100, Note_on_c, 0, 55, 0
1, 204100, Note_on_c, 0, 43, 0
1, 204102, Note_on_c, 0, 86, 0
1, 204104, Note_on_c, 0, 74, 0
1, 204152, Note_on_c, 0, 66, 0
1, 204152, Note_on_c, 0, 78, 0
1, 204164, Note_on_c, 0, 31, 115
1, 204165, Note_on_c, 0, 43, 115
1, 204166, Note_on_c, 0, 70, 107
1, 204167, Note_on_c, 0, 82, 107
1, 204168, Note_on_c, 0, 55, 110
1, 204169, Note_on_c, 0, 72, 0
1, 204169, Note_on_c, 0, 79, 107
1, 204170, Note_on_c, 0, 67, 110
1, 204171, Note_on_c, 0, 84, 0
1, 204293, Note_on_c, 0, 74, 107
1, 204294, Note_on_c, 0, 86, 107
1, 204303, Note_on_c, 0, 82, 0
1, 204305, Note_on_c, 0, 70, 0
1, 204348, Note_on_c, 0, 86, 0
1, 204350, Note_on_c, 0, 74, 0
1, 204358, Note_on_c, 0, 72, 107
1, 204359, Note_on_c, 0, 84, 107
1, 204414, Note_on_c, 0, 67, 0
1, 204426, Note_on_c, 0, 70, 107
1, 204427, Note_on_c, 0, 72, 0
1, 204428, Note_on_c, 0, 84, 0
1, 204429, Note_on_c, 0, 82, 107
1, 204429, Note_on_c, 0, 79, 107
1, 204430, Note_on_c, 0, 67, 110
1, 204466, Note_on_c, 0, 79, 0
1, 204546, Note_on_c, 0, 82, 0
1, 204549, Note_on_c, 0, 67, 0
1, 204550, Note_on_c, 0, 70, 0
1, 204551, Note_on_c, 0, 79, 0
1, 204560, Note_on_c, 0, 82, 107
1, 204560, Note_on_c, 0, 70, 107
1, 204561, Note_on_c, 0, 78, 107
1, 204561, Note_on_c, 0, 66, 110
1, 204612, Note_on_c, 0, 82, 0
1, 204613, Note_on_c, 0, 70, 0
1, 204620, Note_on_c, 0, 81, 107
1, 204621, Note_on_c, 0, 69, 107
1, 204677, Note_on_c, 0, 78, 0
1, 204679, Note_on_c, 0, 66, 0
1, 204680, Note_on_c, 0, 81, 0
1, 204682, Note_on_c, 0, 69, 0
1, 204689, Note_on_c, 0, 70, 107
1, 204689, Note_on_c, 0, 82, 107
1, 204690, Note_on_c, 0, 79, 107
1, 204691, Note_on_c, 0, 67, 110
1, 204753, Note_on_c, 0, 86, 107
1, 204755, Note_on_c, 0, 74, 107
1, 204756, Note_on_c, 0, 82, 0
1, 204756, Note_on_c, 0, 70, 0
1, 204819, Note_on_c, 0, 79, 107
1, 204821, Note_on_c, 0, 91, 107
1, 204822, Note_on_c, 0, 74, 0
1, 204825, Note_on_c, 0, 86, 0
1, 204841, Note_on_c, 0, 79, 0
1, 204872, Note_on_c, 0, 67, 0
1, 204879, Note_on_c, 0, 81, 107
1, 204880, Note_on_c, 0, 69, 107
1, 204882, Note_on_c, 0, 91, 0
1, 204903, Note_on_c, 0, 79, 0
1, 204932, Note_on_c, 0, 69, 0
1, 204934, Note_on_c, 0, 81, 0
1, 204942, Note_on_c, 0, 74, 85
1, 204946, Note_on_c, 0, 86, 85
1, 204946, Note_on_c, 0, 82, 107
1, 204947, Note_on_c, 0, 70, 107
1, 204962, Note_on_c, 0, 74, 0
1, 204966, Note_on_c, 0, 86, 0
1, 204974, Note_on_c, 0, 85, 85
1, 204975, Note_on_c, 0, 73, 85
1, 204995, Note_on_c, 0, 73, 0
1, 204998, Note_on_c, 0, 85, 0
1, 205010, Note_on_c, 0, 86, 85
1, 205010, Note_on_c, 0, 74, 85
1, 205028, Note_on_c, 0, 74, 0
1, 205030, Note_on_c, 0, 86, 0
1, 205043, Note_on_c, 0, 73, 85
1, 205044, Note_on_c, 0, 85, 85
1, 205061, Note_on_c, 0, 73, 0
1, 205063, Note_on_c, 0, 85, 0
1, 205073, Note_on_c, 0, 86, 85
1, 205074, Note_on_c, 0, 74, 85
1, 205075, Note_on_c, 0, 58, 110
1, 205076, Note_on_c, 0, 70, 107
1, 205078, Note_on_c, 0, 70, 0
1, 205091, Note_on_c, 0, 74, 0
1, 205092, Note_on_c, 0, 86, 0
1, 205093, Note_on_c, 0, 55, 0
1, 205106, Note_on_c, 0, 73, 95
1, 205107, Note_on_c, 0, 85, 85
1, 205122, Note_on_c, 0, 70, 0
1, 205125, Note_on_c, 0, 73, 0
1, 205129, Note_on_c, 0, 85, 0
1, 205137, Note_on_c, 0, 58, 0
1, 205140, Note_on_c, 0, 86, 85
1, 205141, Note_on_c, 0, 69, 107
1, 205141, Note_on_c, 0, 74, 95
1, 205143, Note_on_c, 0, 57, 110
1, 205160, Note_on_c, 0, 74, 0
1, 205165, Note_on_c, 0, 86, 0
1, 205174, Note_on_c, 0, 73, 95
1, 205175, Note_on_c, 0, 85, 85
1, 205193, Note_on_c, 0, 73, 0
1, 205194, Note_on_c, 0, 82, 0
1, 205196, Note_on_c, 0, 85, 0
1, 205206, Note_on_c, 0, 69, 107
1, 205208, Note_on_c, 0, 69, 0
1, 205210, Note_on_c, 0, 57, 0
1, 205210, Note_on_c, 0, 81, 107
1, 205211, Note_on_c, 0, 86, 85
1, 205212, Note_on_c, 0, 74, 95
1, 205212, Note_on_c, 0, 67, 110
1, 205214, Note_on_c, 0, 55, 110
1, 205225, Note_on_c, 0, 74, 0
1, 205232, Note_on_c, 0, 86, 0
1, 205242, Note_on_c, 0, 85, 85
1, 205242, Note_on_c, 0, 73, 95
1, 205260, Note_on_c, 0, 73, 0
1, 205263, Note_on_c, 0, 85, 0
1, 205274, Note_on_c, 0, 74, 95
1, 205275, Note_on_c, 0, 86, 85
1, 205293, Note_on_c, 0, 74, 0
1, 205297, Note_on_c, 0, 86, 0
1, 205308, Note_on_c, 0, 85, 85
1, 205308, Note_on_c, 0, 73, 95
1, 205319, Note_on_c, 0, 73, 0
1, 205327, Note_on_c, 0, 85, 0
1, 205336, Note_on_c, 0, 86, 85
1, 205337, Note_on_c, 0, 67, 0
1, 205337, Note_on_c, 0, 67, 110
1, 205338, Note_on_c, 0, 74, 95
1, 205338, Note_on_c, 0, 55, 110
1, 205353, Note_on_c, 0, 74, 0
1, 205360, Note_on_c, 0, 86, 0
1, 205367, Note_on_c, 0, 73, 95
1, 205369, Note_on_c, 0, 85, 85
1, 205382, Note_on_c, 0, 73, 0
1, 205387, Note_on_c, 0, 85, 0
1, 205396, Note_on_c, 0, 86, 95
1, 205397, Note_on_c, 0, 65, 110
1, 205398, Note_on_c, 0, 74, 95
1, 205399, Note_on_c, 0, 53, 110
1, 205400, Note_on_c, 0, 67, 0
1, 205410, Note_on_c, 0, 69, 0
1, 205416, Note_on_c, 0, 74, 0
1, 205420, Note_on_c, 0, 86, 0
1, 205429, Note_on_c, 0, 85, 95
1, 205431, Note_on_c, 0, 73, 95
1, 205444, Note_on_c, 0, 81, 0
1, 205450, Note_on_c, 0, 73, 0
1, 205454, Note_on_c, 0, 85, 0
1, 205462, Note_on_c, 0, 53, 0
1, 205463, Note_on_c, 0, 79, 107
1, 205464, Note_on_c, 0, 74, 95
1, 205465, Note_on_c, 0, 86, 95
1, 205465, Note_on_c, 0, 67, 110
1, 205466, Note_on_c, 0, 65, 0
1, 205467, Note_on_c, 0, 64, 110
1, 205467, Note_on_c, 0, 52, 110
1, 205473, Note_on_c, 0, 55, 0
1, 205476, Note_on_c, 0, 74, 0
1, 205481, Note_on_c, 0, 86, 0
1, 205493, Note_on_c, 0, 85, 95
1, 205494, Note_on_c, 0, 73, 95
1, 205507, Note_on_c, 0, 73, 0
1, 205519, Note_on_c, 0, 85, 0
1, 205523, Note_on_c, 0, 74, 95
1, 205524, Note_on_c, 0, 86, 95
1, 205525, Note_on_c, 0, 69, 107
1, 205525, Note_on_c, 0, 57, 110
1, 205531, Note_on_c, 0, 52, 0
1, 205534, Note_on_c, 0, 64, 0
1, 205542, Note_on_c, 0, 74, 0
1, 205546, Note_on_c, 0, 86, 0
1, 205556, Note_on_c, 0, 73, 95
1, 205557, Note_on_c, 0, 85, 95
1, 205573, Note_on_c, 0, 73, 0
1, 205576, Note_on_c, 0, 85, 0
1, 205589, Note_on_c, 0, 86, 95
1, 205590, Note_on_c, 0, 74, 95
1, 205591, Note_on_c, 0, 67, 110
1, 205592, Note_on_c, 0, 55, 110
1, 205596, Note_on_c, 0, 67, 0
1, 205598, Note_on_c, 0, 43, 0
1, 205601, Note_on_c, 0, 31, 0
1, 205607, Note_on_c, 0, 74, 0
1, 205608, Note_on_c, 0, 69, 0
1, 205608, Note_on_c, 0, 57, 0
1, 205609, Note_on_c, 0, 55, 0
1, 205614, Note_on_c, 0, 86, 0
1, 205624, Note_on_c, 0, 85, 107
1, 205624, Note_on_c, 0, 73, 95
1, 205644, Note_on_c, 0, 85, 0
1, 205646, Note_on_c, 0, 73, 0
1, 205650, Note_on_c, 0, 55, 0
1, 205653, Note_on_c, 0, 83, 107
1, 205654, Note_on_c, 0, 69, 107
1, 205655, Note_on_c, 0, 71, 107
1, 205656, Note_on_c, 0, 57, 110
1, 205671, Note_on_c, 0, 83, 0
1, 205676, Note_on_c, 0, 71, 0
1, 205684, Note_on_c, 0, 73, 107
1, 205685, Note_on_c, 0, 85, 107
1, 205698, Note_on_c, 0, 79, 0
1, 205706, Note_on_c, 0, 85, 0
1, 205707, Note_on_c, 0, 73, 0
1, 205708, Note_on_c, 0, 67, 0
1, 205718, Note_on_c, 0, 77, 107
1, 205721, Note_on_c, 0, 65, 110
1, 205721, Note_on_c, 0, 62, 110
1, 205722, Note_on_c, 0, 50, 110
1, 205723, Note_on_c, 0, 86, 107
1, 205724, Note_on_c, 0, 74, 107
1, 205730, Note_on_c, 0, 57, 0
1, 205733, Note_on_c, 0, 69, 0
1, 205775, Note_on_c, 0, 50, 0
1, 205777, Note_on_c, 0, 62, 0
1, 205782, Note_on_c, 0, 57, 110
1, 205783, Note_on_c, 0, 69, 107
1, 205846, Note_on_c, 0, 74, 107
1, 205847, Note_on_c, 0, 74, 0
1, 205848, Note_on_c, 0, 69, 0
1, 205848, Note_on_c, 0, 62, 110
1, 205851, Note_on_c, 0, 57, 0
1, 205911, Note_on_c, 0, 72, 107
1, 205912, Note_on_c, 0, 62, 0
1, 205912, Note_on_c, 0, 60, 110
1, 205920, Note_on_c, 0, 65, 0
1, 205964, Note_on_c, 0, 77, 0
1, 205975, Note_on_c, 0, 60, 0
1, 205976, Note_on_c, 0, 67, 110
1, 205976, Note_on_c, 0, 58, 110
1, 205977, Note_on_c, 0, 70, 107
1, 205978, Note_on_c, 0, 79, 107
1, 205979, Note_on_c, 0, 72, 0
1, 206029, Note_on_c, 0, 58, 0
1, 206037, Note_on_c, 0, 72, 107
1, 206037, Note_on_c, 0, 60, 110
1, 206039, Note_on_c, 0, 70, 0
1, 206087, Note_on_c, 0, 79, 0
1, 206088, Note_on_c, 0, 67, 0
1, 206088, Note_on_c, 0, 60, 0
1, 206100, Note_on_c, 0, 65, 110
1, 206103, Note_on_c, 0, 74, 107
1, 206104, Note_on_c, 0, 77, 107
1, 206104, Note_on_c, 0, 62, 110
1, 206128, Note_on_c, 0, 72, 0
1, 206141, Note_on_c, 0, 74, 0
1, 206163, Note_on_c, 0, 62, 0
1, 206165, Note_on_c, 0, 70, 107
1, 206166, Note_on_c, 0, 58, 110
1, 206214, Note_on_c, 0, 77, 0
1, 206220, Note_on_c, 0, 65, 0
1, 206225, Note_on_c, 0, 64, 110
1, 206226, Note_on_c, 0, 58, 0
1, 206227, Note_on_c, 0, 76, 107
1, 206227, Note_on_c, 0, 55, 110
1, 206228, Note_on_c, 0, 67, 110
1, 206229, Note_on_c, 0, 70, 0
1, 206282, Note_on_c, 0, 67, 0
1, 206287, Note_on_c, 0, 57, 110
1, 206289, Note_on_c, 0, 69, 107
1, 206294, Note_on_c, 0, 55, 0
1, 206321, Note_on_c, 0, 86, 0
1, 206340, Note_on_c, 0, 76, 0
1, 206341, Note_on_c, 0, 64, 0
1, 206351, Note_on_c, 0, 69, 0
1, 206351, Note_on_c, 0, 62, 110
1, 206352, Note_on_c, 0, 70, 107
1, 206352, Note_on_c, 0, 74, 107
1, 206352, Note_on_c, 0, 58, 110
1, 206354, Note_on_c, 0, 57, 0
1, 206365, Note_on_c, 0, 74, 0
1, 206410, Note_on_c, 0, 67, 110
1, 206411, Note_on_c, 0, 55, 110
1, 206413, Note_on_c, 0, 58, 0
1, 206442, Note_on_c, 0, 70, 0
1, 206472, Note_on_c, 0, 76, 107
1, 206473, Note_on_c, 0, 61, 110
1, 206475, Note_on_c, 0, 82, 107
1, 206476, Note_on_c, 0, 70, 107
1, 206477, Note_on_c, 0, 49, 110
1, 206478, Note_on_c, 0, 64, 110
1, 206479, Note_on_c, 0, 67, 0
1, 206488, Note_on_c, 0, 74, 0
1, 206491, Note_on_c, 0, 55, 0
1, 206492, Note_on_c, 0, 62, 0
1, 206597, Note_on_c, 0, 64, 0
1, 206608, Note_on_c, 0, 79, 107
1, 206610, Note_on_c, 0, 67, 110
1, 206626, Note_on_c, 0, 76, 0
1, 206662, Note_on_c, 0, 67, 0
1, 206664, Note_on_c, 0, 79, 0
1, 206671, Note_on_c, 0, 77, 107
1, 206672, Note_on_c, 0, 65, 110
1, 206718, Note_on_c, 0, 65, 0
1, 206729, Note_on_c, 0, 77, 0
1, 206731, Note_on_c, 0, 82, 0
1, 206733, Note_on_c, 0, 70, 0
1, 206737, Note_on_c, 0, 61, 0
1, 206739, Note_on_c, 0, 69, 107
1, 206740, Note_on_c, 0, 81, 107
1, 206742, Note_on_c, 0, 76, 107
1, 206743, Note_on_c, 0, 64, 110
1, 206781, Note_on_c, 0, 49, 0
1, 206783, Note_on_c, 0, 64, 0
1, 206792, Note_on_c, 0, 76, 0
1, 206805, Note_on_c, 0, 77, 107
1, 206806, Note_on_c, 0, 65, 110
1, 206848, Note_on_c, 0, 65, 0
1, 206857, Note_on_c, 0, 77, 0
1, 206866, Note_on_c, 0, 67, 110
1, 206869, Note_on_c, 0, 79, 107
1, 206869, Note_on_c, 0, 52, 110
1, 206870, Note_on_c, 0, 64, 110
1, 206929, Note_on_c, 0, 79, 0
1, 206931, Note_on_c, 0, 76, 107
1, 206932, Note_on_c, 0, 64, 110
1, 206934, Note_on_c, 0, 67, 0
1, 206937, Note_on_c, 0, 64, 0
1, 206986, Note_on_c, 0, 81, 0
1, 206988, Note_on_c, 0, 69, 0
1, 206998, Note_on_c, 0, 67, 110
1, 206999, Note_on_c, 0, 45, 115
1, 207000, Note_on_c, 0, 79, 107
1, 207001, Note_on_c, 0, 73, 107
1, 207002, Note_on_c, 0, 57, 110
1, 207003, Note_on_c, 0, 76, 0
1, 207004, Note_on_c, 0, 61, 110
1, 207032, Note_on_c, 0, 64, 0
1, 207042, Note_on_c, 0, 52, 0
1, 207056, Note_on_c, 0, 61, 0
1, 207057, Note_on_c, 0, 73, 0
1, 207064, Note_on_c, 0, 74, 107
1, 207065, Note_on_c, 0, 62, 110
1, 207109, Note_on_c, 0, 62, 0
1, 207111, Note_on_c, 0, 74, 0
1, 207117, Note_on_c, 0, 57, 0
1, 207122, Note_on_c, 0, 45, 0
1, 207125, Note_on_c, 0, 76, 107
1, 207125, Note_on_c, 0, 61, 110
1, 207126, Note_on_c, 0, 64, 110
1, 207127, Note_on_c, 0, 49, 110
1, 207182, Note_on_c, 0, 60, 110
1, 207184, Note_on_c, 0, 61, 0
1, 207186, Note_on_c, 0, 72, 107
1, 207188, Note_on_c, 0, 64, 0
1, 207188, Note_on_c, 0, 76, 0
1, 207234, Note_on_c, 0, 49, 0
1, 207243, Note_on_c, 0, 60, 0
1, 207246, Note_on_c, 0, 65, 110
1, 207249, Note_on_c, 0, 57, 110
1, 207251, Note_on_c, 0, 72, 0
1, 207252, Note_on_c, 0, 77, 107
1, 207253, Note_on_c, 0, 69, 107
1, 207254, Note_on_c, 0, 50, 110
1, 207254, Note_on_c, 0, 62, 110
1, 207260, Note_on_c, 0, 79, 0
1, 207264, Note_on_c, 0, 67, 0
1, 207301, Note_on_c, 0, 62, 0
1, 207315, Note_on_c, 0, 50, 0
1, 207316, Note_on_c, 0, 64, 110
1, 207317, Note_on_c, 0, 52, 110
1, 207372, Note_on_c, 0, 64, 0
1, 207373, Note_on_c, 0, 57, 0
1, 207385, Note_on_c, 0, 74, 107
1, 207385, Note_on_c, 0, 53, 110
1, 207386, Note_on_c, 0, 62, 110
1, 207387, Note_on_c, 0, 52, 0
1, 207389, Note_on_c, 0, 65, 110
1, 207399, Note_on_c, 0, 69, 0
1, 207432, Note_on_c, 0, 62, 0
1, 207444, Note_on_c, 0, 53, 0
1, 207447, Note_on_c, 0, 74, 0
1, 207452, Note_on_c, 0, 65, 0
1, 207453, Note_on_c, 0, 50, 110
1, 207454, Note_on_c, 0, 73, 107
1, 207455, Note_on_c, 0, 62, 110
1, 207456, Note_on_c, 0, 61, 110
1, 207488, Note_on_c, 0, 65, 0
1, 207498, Note_on_c, 0, 61, 0
1, 207501, Note_on_c, 0, 62, 0
1, 207502, Note_on_c, 0, 77, 0
1, 207511, Note_on_c, 0, 73, 0
1, 207518, Note_on_c, 0, 79, 107
1, 207518, Note_on_c, 0, 46, 115
1, 207520, Note_on_c, 0, 67, 110
1, 207521, Note_on_c, 0, 74, 107
1, 207522, Note_on_c, 0, 58, 110
1, 207523, Note_on_c, 0, 50, 0
1, 207523, Note_on_c, 0, 62, 110
1, 207620, Note_on_c, 0, 62, 0
1, 207625, Note_on_c, 0, 58, 0
1, 207643, Note_on_c, 0, 74, 0
1, 207646, Note_on_c, 0, 67, 0
1, 207647, Note_on_c, 0, 79, 0
1, 207652, Note_on_c, 0, 57, 110
1, 207653, Note_on_c, 0, 65, 110
1, 207654, Note_on_c, 0, 77, 107
1, 207654, Note_on_c, 0, 62, 110
1, 207656, Note_on_c, 0, 74, 107
1, 207656, Note_on_c, 0, 45, 115
1, 207674, Note_on_c, 0, 46, 0
1, 207695, Note_on_c, 0, 62, 0
1, 207704, Note_on_c, 0, 74, 0
1, 207716, Note_on_c, 0, 73, 107
1, 207717, Note_on_c, 0, 61, 110
1, 207762, Note_on_c, 0, 61, 0
1, 207768, Note_on_c, 0, 65, 0
1, 207772, Note_on_c, 0, 77, 0
1, 207773, Note_on_c, 0, 73, 0
1, 207777, Note_on_c, 0, 57, 0
1, 207780, Note_on_c, 0, 64, 110
1, 207782, Note_on_c, 0, 74, 107
1, 207782, Note_on_c, 0, 43, 115
1, 207783, Note_on_c, 0, 76, 107
1, 207784, Note_on_c, 0, 55, 110
1, 207785, Note_on_c, 0, 62, 110
1, 207794, Note_on_c, 0, 45, 0
1, 207879, Note_on_c, 0, 62, 0
1, 207904, Note_on_c, 0, 76, 0
1, 207908, Note_on_c, 0, 74, 0
1, 207909, Note_on_c, 0, 55, 0
1, 207913, Note_on_c, 0, 64, 0
1, 207918, Note_on_c, 0, 53, 110
1, 207919, Note_on_c, 0, 41, 115
1, 207920, Note_on_c, 0, 74, 107
1, 207920, Note_on_c, 0, 74, 107
1, 207923, Note_on_c, 0, 62, 110
1, 207923, Note_on_c, 0, 62, 110
1, 207926, Note_on_c, 0, 62, 0
1, 207929, Note_on_c, 0, 74, 0
1, 207933, Note_on_c, 0, 43, 0
1, 207981, Note_on_c, 0, 73, 107
1, 207982, Note_on_c, 0, 61, 110
1, 208022, Note_on_c, 0, 61, 0
1, 208025, Note_on_c, 0, 73, 0
1, 208030, Note_on_c, 0, 53, 0
1, 208040, Note_on_c, 0, 62, 0
1, 208045, Note_on_c, 0, 55, 110
1, 208046, Note_on_c, 0, 76, 107
1, 208047, Note_on_c, 0, 74, 107
1, 208047, Note_on_c, 0, 43, 115
1, 208050, Note_on_c, 0, 62, 110
1, 208051, Note_on_c, 0, 64, 110
1, 208058, Note_on_c, 0, 41, 0
1, 208092, Note_on_c, 0, 74, 0
1, 208137, Note_on_c, 0, 64, 0
1, 208141, Note_on_c, 0, 76, 0
1, 208144, Note_on_c, 0, 55, 0
1, 208164, Note_on_c, 0, 43, 0
1, 208176, Note_on_c, 0, 76, 107
1, 208176, Note_on_c, 0, 67, 110
1, 208177, Note_on_c, 0, 55, 110
1, 208178, Note_on_c, 0, 64, 110
1, 208207, Note_on_c, 0, 74, 0
1, 208228, Note_on_c, 0, 67, 0
1, 208231, Note_on_c, 0, 55, 0
1, 208233, Note_on_c, 0, 76, 0
1, 208233, Note_on_c, 0, 64, 0
1, 208239, Note_on_c, 0, 77, 107
1, 208240, Note_on_c, 0, 65, 110
1, 208241, Note_on_c, 0, 65, 110
1, 208242, Note_on_c, 0, 53, 110
1, 208244, Note_on_c, 0, 62, 0
1, 208287, Note_on_c, 0, 53, 0
1, 208288, Note_on_c, 0, 77, 0
1, 208296, Note_on_c, 0, 65, 0
1, 208297, Note_on_c, 0, 65, 0
1, 208303, Note_on_c, 0, 52, 110
1, 208304, Note_on_c, 0, 79, 107
1, 208305, Note_on_c, 0, 64, 110
1, 208305, Note_on_c, 0, 67, 110
1, 208347, Note_on_c, 0, 67, 0
1, 208354, Note_on_c, 0, 79, 0
1, 208368, Note_on_c, 0, 69, 107
1, 208369, Note_on_c, 0, 81, 107
1, 208397, Note_on_c, 0, 64, 0
1, 208401, Note_on_c, 0, 52, 0
1, 208409, Note_on_c, 0, 69, 0
1, 208420, Note_on_c, 0, 81, 0
1, 208428, Note_on_c, 0, 82, 107
1, 208430, Note_on_c, 0, 70, 107
1, 208431, Note_on_c, 0, 55, 110
1, 208432, Note_on_c, 0, 67, 110
1, 208491, Note_on_c, 0, 70, 0
1, 208491, Note_on_c, 0, 67, 110
1, 208492, Note_on_c, 0, 79, 107
1, 208505, Note_on_c, 0, 82, 0
1, 208553, Note_on_c, 0, 67, 0
1, 208554, Note_on_c, 0, 72, 107
1, 208555, Note_on_c, 0, 69, 107
1, 208556, Note_on_c, 0, 60, 110
1, 208557, Note_on_c, 0, 57, 110
1, 208566, Note_on_c, 0, 55, 0
1, 208568, Note_on_c, 0, 67, 0
1, 208569, Note_on_c, 0, 79, 0
1, 208623, Note_on_c, 0, 82, 107
1, 208624, Note_on_c, 0, 70, 107
1, 208650, Note_on_c, 0, 57, 0
1, 208653, Note_on_c, 0, 69, 0
1, 208675, Note_on_c, 0, 70, 0
1, 208676, Note_on_c, 0, 82, 0
1, 208684, Note_on_c, 0, 69, 107
1, 208685, Note_on_c, 0, 81, 107
1, 208686, Note_on_c, 0, 57, 110
1, 208686, Note_on_c, 0, 45, 115
1, 208745, Note_on_c, 0, 81, 0
1, 208746, Note_on_c, 0, 69, 0
1, 208747, Note_on_c, 0, 67, 110
1, 208748, Note_on_c, 0, 79, 107
1, 208753, Note_on_c, 0, 60, 0
1, 208756, Note_on_c, 0, 72, 0
1, 208780, Note_on_c, 0, 57, 0
1, 208781, Note_on_c, 0, 45, 0
1, 208810, Note_on_c, 0, 62, 110
1, 208811, Note_on_c, 0, 60, 110
1, 208812, Note_on_c, 0, 72, 107
1, 208812, Note_on_c, 0, 78, 107
1, 208813, Note_on_c, 0, 50, 110
1, 208813, Note_on_c, 0, 66, 110
1, 208819, Note_on_c, 0, 79, 0
1, 208820, Note_on_c, 0, 67, 0
1, 208875, Note_on_c, 0, 78, 0
1, 208879, Note_on_c, 0, 74, 107
1, 208880, Note_on_c, 0, 62, 110
1, 208896, Note_on_c, 0, 66, 0
1, 208930, Note_on_c, 0, 72, 0
1, 208932, Note_on_c, 0, 60, 0
1, 208941, Note_on_c, 0, 58, 110
1, 208942, Note_on_c, 0, 78, 107
1, 208943, Note_on_c, 0, 70, 107
1, 208944, Note_on_c, 0, 66, 110
1, 208954, Note_on_c, 0, 74, 0
1, 209004, Note_on_c, 0, 66, 0
1, 209006, Note_on_c, 0, 78, 0
1, 209009, Note_on_c, 0, 79, 107
1, 209010, Note_on_c, 0, 67, 110
1, 209065, Note_on_c, 0, 70, 0
1, 209076, Note_on_c, 0, 81, 107
1, 209076, Note_on_c, 0, 57, 110
1, 209077, Note_on_c, 0, 79, 0
1, 209078, Note_on_c, 0, 69, 107
1, 209078, Note_on_c, 0, 69, 107
1, 209090, Note_on_c, 0, 58, 0
1, 209104, Note_on_c, 0, 67, 0
1, 209112, Note_on_c, 0, 69, 0
1, 209126, Note_on_c, 0, 81, 0
1, 209143, Note_on_c, 0, 78, 107
1, 209143, Note_on_c, 0, 66, 110
1, 209196, Note_on_c, 0, 66, 0
1, 209205, Note_on_c, 0, 78, 0
1, 209205, Note_on_c, 0, 55, 110
1, 209206, Note_on_c, 0, 81, 107
1, 209206, Note_on_c, 0, 67, 110
1, 209207, Note_on_c, 0, 69, 107
1, 209209, Note_on_c, 0, 69, 0
1, 209216, Note_on_c, 0, 57, 0
1, 209267, Note_on_c, 0, 62, 0
1, 209267, Note_on_c, 0, 81, 0
1, 209268, Note_on_c, 0, 83, 107
1, 209269, Note_on_c, 0, 71, 107
1, 209270, Note_on_c, 0, 69, 0
1, 209301, Note_on_c, 0, 67, 0
1, 209323, Note_on_c, 0, 83, 0
1, 209332, Note_on_c, 0, 71, 0
1, 209333, Note_on_c, 0, 84, 107
1, 209334, Note_on_c, 0, 72, 107
1, 209334, Note_on_c, 0, 54, 110
1, 209335, Note_on_c, 0, 66, 110
1, 209343, Note_on_c, 0, 55, 0
1, 209384, Note_on_c, 0, 84, 0
1, 209396, Note_on_c, 0, 81, 107
1, 209397, Note_on_c, 0, 69, 107
1, 209398, Note_on_c, 0, 72, 0
1, 209447, Note_on_c, 0, 66, 0
1, 209450, Note_on_c, 0, 50, 0
1, 209455, Note_on_c, 0, 81, 0
1, 209456, Note_on_c, 0, 69, 0
1, 209461, Note_on_c, 0, 52, 110
1, 209462, Note_on_c, 0, 83, 107
1, 209463, Note_on_c, 0, 71, 107
1, 209463, Note_on_c, 0, 64, 110
1, 209473, Note_on_c, 0, 54, 0
1, 209517, Note_on_c, 0, 71, 0
1, 209519, Note_on_c, 0, 83, 0
1, 209525, Note_on_c, 0, 72, 107
1, 209526, Note_on_c, 0, 84, 107
1, 209585, Note_on_c, 0, 62, 110
1, 209586, Note_on_c, 0, 80, 107
1, 209587, Note_on_c, 0, 68, 107
1, 209588, Note_on_c, 0, 50, 110
1, 209597, Note_on_c, 0, 84, 0
1, 209598, Note_on_c, 0, 64, 0
1, 209601, Note_on_c, 0, 72, 0
1, 209631, Note_on_c, 0, 52, 0
1, 209700, Note_on_c, 0, 50, 0
1, 209703, Note_on_c, 0, 68, 0
1, 209708, Note_on_c, 0, 80, 0
1, 209717, Note_on_c, 0, 71, 107
1, 209718, Note_on_c, 0, 83, 107
1, 209719, Note_on_c, 0, 56, 110
1, 209720, Note_on_c, 0, 68, 107
1, 209748, Note_on_c, 0, 62, 0
1, 209776, Note_on_c, 0, 68, 0
1, 209779, Note_on_c, 0, 56, 0
1, 209780, Note_on_c, 0, 72, 107
1, 209780, Note_on_c, 0, 84, 107
1, 209782, Note_on_c, 0, 69, 107
1, 209783, Note_on_c, 0, 57, 110
1, 209784, Note_on_c, 0, 83, 0
1, 209786, Note_on_c, 0, 71, 0
1, 209837, Note_on_c, 0, 69, 0
1, 209838, Note_on_c, 0, 84, 0
1, 209840, Note_on_c, 0, 57, 0
1, 209843, Note_on_c, 0, 72, 0
1, 209846, Note_on_c, 0, 74, 107
1, 209847, Note_on_c, 0, 86, 107
1, 209848, Note_on_c, 0, 71, 107
1, 209848, Note_on_c, 0, 59, 110
1, 209967, Note_on_c, 0, 59, 0
1, 209969, Note_on_c, 0, 71, 0
1, 209971, Note_on_c, 0, 74, 0
1, 209972, Note_on_c, 0, 86, 0
1, 209979, Note_on_c, 0, 86, 107
1, 209980, Note_on_c, 0, 74, 107
1, 209981, Note_on_c, 0, 71, 107
1, 209981, Note_on_c, 0, 59, 110
1, 210032, Note_on_c, 0, 86, 0
1, 210038, Note_on_c, 0, 71, 0
1, 210039, Note_on_c, 0, 88, 107
1, 210040, Note_on_c, 0, 76, 107
1, 210041, Note_on_c, 0, 72, 107
1, 210041, Note_on_c, 0, 60, 110
1, 210042, Note_on_c, 0, 59, 0
1, 210045, Note_on_c, 0, 74, 0
1, 210048, Note_on_c, 0, 62, 0
1, 210106, Note_on_c, 0, 77, 107
1, 210107, Note_on_c, 0, 62, 110
1, 210108, Note_on_c, 0, 68, 107
1, 210108, Note_on_c, 0, 89, 107
1, 210110, Note_on_c, 0, 60, 0
1, 210110, Note_on_c, 0, 74, 107
1, 210110, Note_on_c, 0, 56, 110
1, 210114, Note_on_c, 0, 88, 0
1, 210114, Note_on_c, 0, 76, 0
1, 210116, Note_on_c, 0, 72, 0
1, 210229, Note_on_c, 0, 74, 0
1, 210233, Note_on_c, 0, 89, 0
1, 210236, Note_on_c, 0, 62, 0
1, 210238, Note_on_c, 0, 77, 0
1, 210239, Note_on_c, 0, 76, 107
1, 210239, Note_on_c, 0, 88, 107
1, 210240, Note_on_c, 0, 72, 107
1, 210240, Note_on_c, 0, 60, 110
1, 210296, Note_on_c, 0, 88, 0
1, 210299, Note_on_c, 0, 60, 0
1, 210300, Note_on_c, 0, 74, 107
1, 210302, Note_on_c, 0, 86, 107
1, 210303, Note_on_c, 0, 71, 107
1, 210303, Note_on_c, 0, 59, 110
1, 210304, Note_on_c, 0, 72, 0
1, 210307, Note_on_c, 0, 76, 0
1, 210348, Note_on_c, 0, 71, 0
1, 210355, Note_on_c, 0, 56, 0
1, 210357, Note_on_c, 0, 86, 0
1, 210360, Note_on_c, 0, 68, 0
1, 210362, Note_on_c, 0, 84, 107
1, 210363, Note_on_c, 0, 59, 0
1, 210363, Note_on_c, 0, 69, 107
1, 210364, Note_on_c, 0, 57, 110
1, 210365, Note_on_c, 0, 57, 110
1, 210366, Note_on_c, 0, 74, 0
1, 210367, Note_on_c, 0, 69, 107
1, 210368, Note_on_c, 0, 72, 107
1, 210419, Note_on_c, 0, 69, 0
1, 210424, Note_on_c, 0, 57, 0
1, 210432, Note_on_c, 0, 82, 107
1, 210432, Note_on_c, 0, 70, 107
1, 210476, Note_on_c, 0, 70, 0
1, 210483, Note_on_c, 0, 69, 0
1, 210487, Note_on_c, 0, 57, 0
1, 210488, Note_on_c, 0, 82, 0
1, 210493, Note_on_c, 0, 81, 107
1, 210494, Note_on_c, 0, 58, 110
1, 210495, Note_on_c, 0, 70, 107
1, 210496, Note_on_c, 0, 69, 107
1, 210541, Note_on_c, 0, 69, 0
1, 210545, Note_on_c, 0, 70, 0
1, 210550, Note_on_c, 0, 81, 0
1, 210550, Note_on_c, 0, 58, 0
1, 210554, Note_on_c, 0, 79, 107
1, 210555, Note_on_c, 0, 72, 107
1, 210556, Note_on_c, 0, 60, 110
1, 210556, Note_on_c, 0, 67, 110
1, 210557, Note_on_c, 0, 84, 0
1, 210600, Note_on_c, 0, 72, 0
1, 210602, Note_on_c, 0, 72, 0
1, 210605, Note_on_c, 0, 67, 0
1, 210621, Note_on_c, 0, 62, 110
1, 210622, Note_on_c, 0, 78, 107
1, 210624, Note_on_c, 0, 74, 107
1, 210624, Note_on_c, 0, 66, 110
1, 210625, Note_on_c, 0, 60, 0
1, 210626, Note_on_c, 0, 79, 0
1, 210686, Note_on_c, 0, 79, 107
1, 210688, Note_on_c, 0, 67, 110
1, 210738, Note_on_c, 0, 74, 0
1, 210740, Note_on_c, 0, 67, 0
1, 210743, Note_on_c, 0, 62, 0
1, 210744, Note_on_c, 0, 79, 0
1, 210751, Note_on_c, 0, 60, 110
1, 210753, Note_on_c, 0, 81, 107
1, 210754, Note_on_c, 0, 72, 107
1, 210755, Note_on_c, 0, 69, 107
1, 210803, Note_on_c, 0, 69, 0
1, 210807, Note_on_c, 0, 81, 0
1, 210817, Note_on_c, 0, 82, 107
1, 210818, Note_on_c, 0, 70, 107
1, 210872, Note_on_c, 0, 70, 0
1, 210873, Note_on_c, 0, 72, 0
1, 210874, Note_on_c, 0, 60, 0
1, 210875, Note_on_c, 0, 82, 0
1, 210884, Note_on_c, 0, 84, 107
1, 210886, Note_on_c, 0, 70, 107
1, 210886, Note_on_c, 0, 58, 110
1, 210887, Note_on_c, 0, 72, 107
1, 210936, Note_on_c, 0, 84, 0
1, 210937, Note_on_c, 0, 72, 0
1, 210945, Note_on_c, 0, 75, 107
1, 210946, Note_on_c, 0, 87, 107
1, 210997, Note_on_c, 0, 70, 0
1, 210999, Note_on_c, 0, 58, 0
1, 211000, Note_on_c, 0, 75, 0
1, 211003, Note_on_c, 0, 87, 0
1, 211008, Note_on_c, 0, 86, 107
1, 211008, Note_on_c, 0, 57, 110
1, 211011, Note_on_c, 0, 69, 107
1, 211012, Note_on_c, 0, 74, 107
1, 211042, Note_on_c, 0, 66, 0
1, 211043, Note_on_c, 0, 78, 0
1, 211062, Note_on_c, 0, 74, 0
1, 211063, Note_on_c, 0, 86, 0
1, 211074, Note_on_c, 0, 72, 107
1, 211075, Note_on_c, 0, 84, 107
1, 211125, Note_on_c, 0, 69, 0
1, 211126, Note_on_c, 0, 84, 0
1, 211128, Note_on_c, 0, 72, 0
1, 211130, Note_on_c, 0, 57, 0
1, 211137, Note_on_c, 0, 55, 110
1, 211138, Note_on_c, 0, 67, 110
1, 211139, Note_on_c, 0, 82, 107
1, 211140, Note_on_c, 0, 70, 107
1, 211200, Note_on_c, 0, 81, 107
1, 211200, Note_on_c, 0, 69, 107
1, 211235, Note_on_c, 0, 67, 0
1, 211256, Note_on_c, 0, 55, 0
1, 211257, Note_on_c, 0, 81, 0
1, 211258, Note_on_c, 0, 69, 0
1, 211267, Note_on_c, 0, 67, 110
1, 211269, Note_on_c, 0, 79, 107
1, 211270, Note_on_c, 0, 69, 107
1, 211270, Note_on_c, 0, 57, 110
1, 211319, Note_on_c, 0, 57, 0
1, 211321, Note_on_c, 0, 79, 0
1, 211332, Note_on_c, 0, 69, 0
1, 211332, Note_on_c, 0, 77, 107
1, 211333, Note_on_c, 0, 65, 110
1, 211334, Note_on_c, 0, 70, 107
1, 211334, Note_on_c, 0, 58, 110
1, 211335, Note_on_c, 0, 67, 0
1, 211338, Note_on_c, 0, 82, 0
1, 211339, Note_on_c, 0, 70, 0
1, 211381, Note_on_c, 0, 70, 0
1, 211383, Note_on_c, 0, 77, 0
1, 211387, Note_on_c, 0, 65, 0
1, 211392, Note_on_c, 0, 76, 107
1, 211393, Note_on_c, 0, 72, 107
1, 211393, Note_on_c, 0, 60, 110
1, 211394, Note_on_c, 0, 64, 110
1, 211396, Note_on_c, 0, 58, 0
1, 211458, Note_on_c, 0, 65, 110
1, 211460, Note_on_c, 0, 77, 107
1, 211513, Note_on_c, 0, 72, 0
1, 211514, Note_on_c, 0, 77, 0
1, 211515, Note_on_c, 0, 60, 0
1, 211518, Note_on_c, 0, 65, 0
1, 211523, Note_on_c, 0, 70, 107
1, 211525, Note_on_c, 0, 67, 110
1, 211526, Note_on_c, 0, 79, 107
1, 211527, Note_on_c, 0, 58, 110
1, 211576, Note_on_c, 0, 79, 0
1, 211579, Note_on_c, 0, 67, 0
1, 211586, Note_on_c, 0, 69, 107
1, 211587, Note_on_c, 0, 81, 107
1, 211629, Note_on_c, 0, 69, 0
1, 211635, Note_on_c, 0, 81, 0
1, 211637, Note_on_c, 0, 58, 0
1, 211645, Note_on_c, 0, 70, 0
1, 211650, Note_on_c, 0, 57, 110
1, 211651, Note_on_c, 0, 69, 107
1, 211651, Note_on_c, 0, 70, 107
1, 211652, Note_on_c, 0, 82, 107
1, 211713, Note_on_c, 0, 86, 107
1, 211714, Note_on_c, 0, 70, 0
1, 211716, Note_on_c, 0, 74, 107
1, 211718, Note_on_c, 0, 82, 0
1, 211763, Note_on_c, 0, 69, 0
1, 211766, Note_on_c, 0, 57, 0
1, 211770, Note_on_c, 0, 74, 0
1, 211771, Note_on_c, 0, 86, 0
1, 211776, Note_on_c, 0, 84, 107
1, 211777, Note_on_c, 0, 72, 107
1, 211779, Note_on_c, 0, 55, 110
1, 211780, Note_on_c, 0, 67, 110
1, 211803, Note_on_c, 0, 64, 0
1, 211805, Note_on_c, 0, 76, 0
1, 211826, Note_on_c, 0, 84, 0
1, 211827, Note_on_c, 0, 72, 0
1, 211837, Note_on_c, 0, 82, 107
1, 211838, Note_on_c, 0, 70, 107
1, 211883, Note_on_c, 0, 67, 0
1, 211885, Note_on_c, 0, 70, 0
1, 211890, Note_on_c, 0, 82, 0
1, 211896, Note_on_c, 0, 65, 110
1, 211897, Note_on_c, 0, 81, 107
1, 211898, Note_on_c, 0, 69, 107
1, 211899, Note_on_c, 0, 53, 110
1, 211908, Note_on_c, 0, 55, 0
1, 211953, Note_on_c, 0, 53, 0
1, 211956, Note_on_c, 0, 65, 0
1, 211963, Note_on_c, 0, 67, 110
1, 211965, Note_on_c, 0, 79, 107
1, 211965, Note_on_c, 0, 52, 110
1, 211966, Note_on_c, 0, 64, 110
1, 212016, Note_on_c, 0, 79, 0
1, 212027, Note_on_c, 0, 64, 0
1, 212029, Note_on_c, 0, 77, 107
1, 212030, Note_on_c, 0, 62, 110
1, 212030, Note_on_c, 0, 65, 110
1, 212032, Note_on_c, 0, 50, 110
1, 212034, Note_on_c, 0, 67, 0
1, 212035, Note_on_c, 0, 52, 0
1, 212083, Note_on_c, 0, 77, 0
1, 212092, Note_on_c, 0, 62, 0
1, 212093, Note_on_c, 0, 76, 107
1, 212093, Note_on_c, 0, 64, 110
1, 212094, Note_on_c, 0, 60, 110
1, 212095, Note_on_c, 0, 50, 0
1, 212095, Note_on_c, 0, 48, 115
1, 212096, Note_on_c, 0, 65, 0
1, 212106, Note_on_c, 0, 69, 0
1, 212109, Note_on_c, 0, 81, 0
1, 212150, Note_on_c, 0, 76, 0
1, 212158, Note_on_c, 0, 59, 110
1, 212159, Note_on_c, 0, 47, 115
1, 212160, Note_on_c, 0, 74, 107
1, 212160, Note_on_c, 0, 62, 110
1, 212162, Note_on_c, 0, 48, 0
1, 212165, Note_on_c, 0, 64, 0
1, 212166, Note_on_c, 0, 60, 0
1, 212215, Note_on_c, 0, 59, 0
1, 212216, Note_on_c, 0, 47, 0
1, 212225, Note_on_c, 0, 69, 107
1, 212226, Note_on_c, 0, 49, 110
1, 212227, Note_on_c, 0, 81, 107
1, 212229, Note_on_c, 0, 61, 110
1, 212279, Note_on_c, 0, 74, 0
1, 212282, Note_on_c, 0, 62, 0
1, 212287, Note_on_c, 0, 61, 0
1, 212291, Note_on_c, 0, 71, 107
1, 212292, Note_on_c, 0, 49, 0
1, 212292, Note_on_c, 0, 83, 107
1, 212292, Note_on_c, 0, 50, 110
1, 212293, Note_on_c, 0, 62, 110
1, 212294, Note_on_c, 0, 69, 0
1, 212294, Note_on_c, 0, 81, 0
1, 212350, Note_on_c, 0, 62, 0
1, 212351, Note_on_c, 0, 85, 107
1, 212352, Note_on_c, 0, 73, 107
1, 212354, Note_on_c, 0, 50, 0
1, 212354, Note_on_c, 0, 64, 110
1, 212354, Note_on_c, 0, 52, 110
1, 212357, Note_on_c, 0, 83, 0
1, 212360, Note_on_c, 0, 71, 0
1, 212411, Note_on_c, 0, 64, 0
1, 212414, Note_on_c, 0, 73, 0
1, 212416, Note_on_c, 0, 85, 0
1, 212418, Note_on_c, 0, 74, 107
1, 212419, Note_on_c, 0, 86, 107
1, 212420, Note_on_c, 0, 53, 110
1, 212420, Note_on_c, 0, 65, 110
1, 212423, Note_on_c, 0, 52, 0
1, 212474, Note_on_c, 0, 74, 0
1, 212476, Note_on_c, 0, 86, 0
1, 212477, Note_on_c, 0, 65, 0
1, 212484, Note_on_c, 0, 77, 107
1, 212485, Note_on_c, 0, 89, 107
1, 212486, Note_on_c, 0, 69, 107
1, 212486, Note_on_c, 0, 57, 110
1, 212488, Note_on_c, 0, 53, 0
1, 212537, Note_on_c, 0, 89, 0
1, 212540, Note_on_c, 0, 77, 0
1, 212546, Note_on_c, 0, 69, 0
1, 212547, Note_on_c, 0, 76, 107
1, 212548, Note_on_c, 0, 57, 0
1, 212548, Note_on_c, 0, 88, 107
1, 212549, Note_on_c, 0, 67, 110
1, 212549, Note_on_c, 0, 55, 110
1, 212597, Note_on_c, 0, 76, 0
1, 212599, Note_on_c, 0, 88, 0
1, 212607, Note_on_c, 0, 67, 0
1, 212608, Note_on_c, 0, 55, 0
1, 212609, Note_on_c, 0, 86, 107
1, 212609, Note_on_c, 0, 74, 107
1, 212610, Note_on_c, 0, 65, 110
1, 212611, Note_on_c, 0, 53, 110
1, 212661, Note_on_c, 0, 86, 0
1, 212668, Note_on_c, 0, 74, 0
1, 212669, Note_on_c, 0, 73, 107
1, 212670, Note_on_c, 0, 65, 0
1, 212671, Note_on_c, 0, 53, 0
1, 212672, Note_on_c, 0, 85, 107
1, 212673, Note_on_c, 0, 52, 110
1, 212674, Note_on_c, 0, 64, 110
1, 212725, Note_on_c, 0, 85, 0
1, 212730, Note_on_c, 0, 73, 0
1, 212735, Note_on_c, 0, 86, 107
1, 212736, Note_on_c, 0, 52, 0
1, 212736, Note_on_c, 0, 74, 107
1, 212737, Note_on_c, 0, 64, 0
1, 212737, Note_on_c, 0, 50, 110
1, 212738, Note_on_c, 0, 62, 110
1, 212789, Note_on_c, 0, 74, 0
1, 212792, Note_on_c, 0, 86, 0
1, 212798, Note_on_c, 0, 88, 101
1, 212799, Note_on_c, 0, 76, 101
1, 212800, Note_on_c, 0, 49, 110
1, 212801, Note_on_c, 0, 50, 0
1, 212802, Note_on_c, 0, 61, 110
1, 212803, Note_on_c, 0, 62, 0
1, 212855, Note_on_c, 0, 88, 0
1, 212856, Note_on_c, 0, 76, 0
1, 212862, Note_on_c, 0, 61, 0
1, 212864, Note_on_c, 0, 77, 101
1, 212865, Note_on_c, 0, 49, 0
1, 212866, Note_on_c, 0, 89, 101
1, 212868, Note_on_c, 0, 59, 110
1, 212868, Note_on_c, 0, 47, 115
1, 212919, Note_on_c, 0, 89, 0
1, 212922, Note_on_c, 0, 77, 0
1, 212930, Note_on_c, 0, 91, 101
1, 212932, Note_on_c, 0, 59, 0
1, 212933, Note_on_c, 0, 47, 0
1, 212933, Note_on_c, 0, 79, 101
1, 212934, Note_on_c, 0, 57, 110
1, 212934, Note_on_c, 0, 45, 115
1, 212985, Note_on_c, 0, 79, 0
1, 212988, Note_on_c, 0, 91, 0
1, 212994, Note_on_c, 0, 45, 0
1, 212995, Note_on_c, 0, 77, 107
1, 212996, Note_on_c, 0, 57, 0
1, 212996, Note_on_c, 0, 89, 107
1, 212997, Note_on_c, 0, 59, 110
1, 212997, Note_on_c, 0, 47, 115
1, 213045, Note_on_c, 0, 77, 0
1, 213049, Note_on_c, 0, 89, 0
1, 213054, Note_on_c, 0, 47, 0
1, 213056, Note_on_c, 0, 59, 0
1, 213057, Note_on_c, 0, 76, 107
1, 213057, Note_on_c, 0, 88, 107
1, 213060, Note_on_c, 0, 49, 110
1, 213060, Note_on_c, 0, 61, 110
1, 213111, Note_on_c, 0, 88, 0
1, 213114, Note_on_c, 0, 76, 0
1, 213119, Note_on_c, 0, 61, 0
1, 213121, Note_on_c, 0, 77, 107
1, 213122, Note_on_c, 0, 89, 107
1, 213123, Note_on_c, 0, 62, 110
1, 213124, Note_on_c, 0, 49, 0
1, 213125, Note_on_c, 0, 50, 110
1, 213177, Note_on_c, 0, 89, 0
1, 213180, Note_on_c, 0, 77, 0
1, 213187, Note_on_c, 0, 50, 0
1, 213188, Note_on_c, 0, 91, 107
1, 213189, Note_on_c, 0, 62, 0
1, 213190, Note_on_c, 0, 79, 107
1, 213190, Note_on_c, 0, 64, 110
1, 213191, Note_on_c, 0, 52, 110
1, 213238, Note_on_c, 0, 79, 0
1, 213241, Note_on_c, 0, 91, 0
1, 213247, Note_on_c, 0, 52, 0
1, 213249, Note_on_c, 0, 82, 107
1, 213249, Note_on_c, 0, 94, 107
1, 213250, Note_on_c, 0, 64, 0
1, 213250, Note_on_c, 0, 55, 110
1, 213251, Note_on_c, 0, 67, 110
1, 213303, Note_on_c, 0, 55, 0
1, 213308, Note_on_c, 0, 81, 107
1, 213309, Note_on_c, 0, 93, 107
1, 213310, Note_on_c, 0, 67, 0
1, 213311, Note_on_c, 0, 53, 110
1, 213312, Note_on_c, 0, 65, 110
1, 213314, Note_on_c, 0, 94, 0
1, 213316, Note_on_c, 0, 82, 0
1, 213356, Note_on_c, 0, 53, 0
1, 213369, Note_on_c, 0, 93, 0
1, 213370, Note_on_c, 0, 79, 107
1, 213371, Note_on_c, 0, 65, 0
1, 213371, Note_on_c, 0, 91, 107
1, 213372, Note_on_c, 0, 52, 110
1, 213372, Note_on_c, 0, 64, 110
1, 213374, Note_on_c, 0, 81, 0
1, 213420, Note_on_c, 0, 52, 0
1, 213428, Note_on_c, 0, 62, 110
1, 213429, Note_on_c, 0, 89, 107
1, 213430, Note_on_c, 0, 77, 107
1, 213431, Note_on_c, 0, 64, 0
1, 213432, Note_on_c, 0, 50, 110
1, 213434, Note_on_c, 0, 91, 0
1, 213437, Note_on_c, 0, 79, 0
1, 213492, Note_on_c, 0, 76, 107
1, 213492, Note_on_c, 0, 88, 107
1, 213544, Note_on_c, 0, 50, 0
1, 213548, Note_on_c, 0, 62, 0
1, 213557, Note_on_c, 0, 74, 107
1, 213557, Note_on_c, 0, 64, 110
1, 213559, Note_on_c, 0, 88, 0
1, 213559, Note_on_c, 0, 86, 107
1, 213560, Note_on_c, 0, 52, 110
1, 213561, Note_on_c, 0, 76, 0
1, 213624, Note_on_c, 0, 53, 110
1, 213625, Note_on_c, 0, 52, 0
1, 213625, Note_on_c, 0, 84, 107
1, 213626, Note_on_c, 0, 72, 107
1, 213626, Note_on_c, 0, 65, 110
1, 213628, Note_on_c, 0, 86, 0
1, 213628, Note_on_c, 0, 64, 0
1, 213632, Note_on_c, 0, 77, 0
1, 213632, Note_on_c, 0, 74, 0
1, 213633, Note_on_c, 0, 89, 0
1, 213687, Note_on_c, 0, 67, 110
1, 213688, Note_on_c, 0, 71, 107
1, 213688, Note_on_c, 0, 55, 110
1, 213689, Note_on_c, 0, 65, 0
1, 213690, Note_on_c, 0, 83, 107
1, 213691, Note_on_c, 0, 72, 0
1, 213696, Note_on_c, 0, 53, 0
1, 213703, Note_on_c, 0, 84, 0
1, 213749, Note_on_c, 0, 72, 107
1, 213750, Note_on_c, 0, 84, 107
1, 213804, Note_on_c, 0, 55, 0
1, 213805, Note_on_c, 0, 67, 0
1, 213813, Note_on_c, 0, 65, 110
1, 213815, Note_on_c, 0, 86, 107
1, 213816, Note_on_c, 0, 84, 0
1, 213816, Note_on_c, 0, 53, 110
1, 213817, Note_on_c, 0, 74, 107
1, 213820, Note_on_c, 0, 72, 0
1, 213876, Note_on_c, 0, 74, 0
1, 213878, Note_on_c, 0, 88, 107
1, 213881, Note_on_c, 0, 86, 0
1, 213882, Note_on_c, 0, 76, 107
1, 213935, Note_on_c, 0, 53, 0
1, 213936, Note_on_c, 0, 65, 0
1, 213942, Note_on_c, 0, 52, 110
1, 213944, Note_on_c, 0, 76, 0
1, 213945, Note_on_c, 0, 77, 107
1, 213945, Note_on_c, 0, 89, 107
1, 213946, Note_on_c, 0, 64, 110
1, 213948, Note_on_c, 0, 88, 0
1, 213997, Note_on_c, 0, 77, 0
1, 214008, Note_on_c, 0, 89, 0
1, 214009, Note_on_c, 0, 81, 107
1, 214010, Note_on_c, 0, 93, 107
1, 214060, Note_on_c, 0, 64, 0
1, 214063, Note_on_c, 0, 93, 0
1, 214064, Note_on_c, 0, 52, 0
1, 214066, Note_on_c, 0, 81, 0
1, 214069, Note_on_c, 0, 50, 110
1, 214070, Note_on_c, 0, 79, 107
1, 214071, Note_on_c, 0, 62, 110
1, 214073, Note_on_c, 0, 91, 107
1, 214102, Note_on_c, 0, 71, 0
1, 214103, Note_on_c, 0, 83, 0
1, 214119, Note_on_c, 0, 91, 0
1, 214126, Note_on_c, 0, 79, 0
1, 214131, Note_on_c, 0, 89, 107
1, 214132, Note_on_c, 0, 77, 107
1, 214178, Note_on_c, 0, 77, 0
1, 214180, Note_on_c, 0, 50, 0
1, 214181, Note_on_c, 0, 89, 0
1, 214182, Note_on_c, 0, 62, 0
1, 214190, Note_on_c, 0, 48, 115
1, 214192, Note_on_c, 0, 76, 107
1, 214193, Note_on_c, 0, 88, 107
1, 214194, Note_on_c, 0, 74, 107
1, 214194, Note_on_c, 0, 60, 110
1, 214195, Note_on_c, 0, 86, 107
1, 214242, Note_on_c, 0, 86, 0
1, 214259, Note_on_c, 0, 72, 107
1, 214259, Note_on_c, 0, 84, 107
1, 214260, Note_on_c, 0, 74, 0
1, 214311, Note_on_c, 0, 84, 0
1, 214312, Note_on_c, 0, 60, 0
1, 214318, Note_on_c, 0, 48, 0
1, 214321, Note_on_c, 0, 72, 0
1, 214323, Note_on_c, 0, 50, 110
1, 214324, Note_on_c, 0, 82, 107
1, 214324, Note_on_c, 0, 70, 107
1, 214325, Note_on_c, 0, 62, 110
1, 214370, Note_on_c, 0, 82, 0
1, 214380, Note_on_c, 0, 52, 110
1, 214381, Note_on_c, 0, 62, 0
1, 214382, Note_on_c, 0, 81, 107
1, 214383, Note_on_c, 0, 69, 107
1, 214385, Note_on_c, 0, 70, 0
1, 214385, Note_on_c, 0, 64, 110
1, 214386, Note_on_c, 0, 50, 0
1, 214426, Note_on_c, 0, 64, 0
1, 214432, Note_on_c, 0, 52, 0
1, 214433, Note_on_c, 0, 88, 0
1, 214435, Note_on_c, 0, 76, 0
1, 214442, Note_on_c, 0, 53, 110
1, 214444, Note_on_c, 0, 65, 110
1, 214508, Note_on_c, 0, 70, 107
1, 214509, Note_on_c, 0, 82, 107
1, 214559, Note_on_c, 0, 65, 0
1, 214564, Note_on_c, 0, 53, 0
1, 214564, Note_on_c, 0, 82, 0
1, 214566, Note_on_c, 0, 70, 0
1, 214570, Note_on_c, 0, 63, 110
1, 214571, Note_on_c, 0, 84, 107
1, 214572, Note_on_c, 0, 72, 107
1, 214572, Note_on_c, 0, 51, 110
1, 214621, Note_on_c, 0, 72, 0
1, 214625, Note_on_c, 0, 84, 0
1, 214636, Note_on_c, 0, 74, 107
1, 214637, Note_on_c, 0, 86, 107
1, 214689, Note_on_c, 0, 86, 0
1, 214691, Note_on_c, 0, 51, 0
1, 214692, Note_on_c, 0, 63, 0
1, 214693, Note_on_c, 0, 74, 0
1, 214701, Note_on_c, 0, 50, 110
1, 214702, Note_on_c, 0, 75, 107
1, 214704, Note_on_c, 0, 87, 107
1, 214704, Note_on_c, 0, 62, 110
1, 214763, Note_on_c, 0, 91, 107
1, 214764, Note_on_c, 0, 79, 107
1, 214765, Note_on_c, 0, 87, 0
1, 214770, Note_on_c, 0, 75, 0
1, 214788, Note_on_c, 0, 69, 0
1, 214792, Note_on_c, 0, 81, 0
1, 214816, Note_on_c, 0, 62, 0
1, 214818, Note_on_c, 0, 79, 0
1, 214820, Note_on_c, 0, 91, 0
1, 214821, Note_on_c, 0, 50, 0
1, 214826, Note_on_c, 0, 60, 110
1, 214827, Note_on_c, 0, 77, 107
1, 214828, Note_on_c, 0, 89, 107
1, 214828, Note_on_c, 0, 48, 115
1, 214887, Note_on_c, 0, 89, 0
1, 214889, Note_on_c, 0, 75, 107
1, 214890, Note_on_c, 0, 87, 107
1, 214893, Note_on_c, 0, 77, 0
1, 214939, Note_on_c, 0, 48, 0
1, 214943, Note_on_c, 0, 60, 0
1, 214953, Note_on_c, 0, 58, 110
1, 214954, Note_on_c, 0, 46, 115
1, 214955, Note_on_c, 0, 86, 107
1, 214956, Note_on_c, 0, 87, 0
1, 214957, Note_on_c, 0, 74, 107
1, 214962, Note_on_c, 0, 75, 0
1, 215002, Note_on_c, 0, 46, 0
1, 215013, Note_on_c, 0, 58, 0
1, 215019, Note_on_c, 0, 57, 110
1, 215020, Note_on_c, 0, 72, 107
1, 215020, Note_on_c, 0, 84, 107
1, 215021, Note_on_c, 0, 45, 115
1, 215070, Note_on_c, 0, 45, 0
1, 215072, Note_on_c, 0, 84, 0
1, 215076, Note_on_c, 0, 57, 0
1, 215077, Note_on_c, 0, 72, 0
1, 215080, Note_on_c, 0, 55, 110
1, 215080, Note_on_c, 0, 43, 115
1, 215082, Note_on_c, 0, 70, 107
1, 215083, Note_on_c, 0, 82, 107
1, 215127, Note_on_c, 0, 82, 0
1, 215131, Note_on_c, 0, 70, 0
1, 215135, Note_on_c, 0, 43, 0
1, 215137, Note_on_c, 0, 55, 0
1, 215143, Note_on_c, 0, 41, 115
1, 215144, Note_on_c, 0, 69, 107
1, 215146, Note_on_c, 0, 53, 110
1, 215147, Note_on_c, 0, 81, 107
1, 215154, Note_on_c, 0, 74, 0
1, 215155, Note_on_c, 0, 86, 0
1, 215199, Note_on_c, 0, 81, 0
1, 215203, Note_on_c, 0, 69, 0
1, 215204, Note_on_c, 0, 53, 0
1, 215208, Note_on_c, 0, 41, 0
1, 215210, Note_on_c, 0, 52, 110
1, 215211, Note_on_c, 0, 40, 115
1, 215212, Note_on_c, 0, 79, 107
1, 215213, Note_on_c, 0, 67, 110
1, 215264, Note_on_c, 0, 40, 0
1, 215268, Note_on_c, 0, 52, 0
1, 215274, Note_on_c, 0, 42, 115
1, 215276, Note_on_c, 0, 81, 107
1, 215277, Note_on_c, 0, 69, 107
1, 215277, Note_on_c, 0, 54, 110
1, 215327, Note_on_c, 0, 81, 0
1, 215329, Note_on_c, 0, 54, 0
1, 215330, Note_on_c, 0, 69, 0
1, 215333, Note_on_c, 0, 42, 0
1, 215334, Note_on_c, 0, 43, 115
1, 215336, Note_on_c, 0, 55, 110
1, 215337, Note_on_c, 0, 70, 107
1, 215338, Note_on_c, 0, 82, 107
1, 215390, Note_on_c, 0, 55, 0
1, 215396, Note_on_c, 0, 43, 0
1, 215400, Note_on_c, 0, 82, 0
1, 215400, Note_on_c, 0, 57, 110
1, 215401, Note_on_c, 0, 70, 0
1, 215401, Note_on_c, 0, 45, 115
1, 215402, Note_on_c, 0, 72, 107
1, 215402, Note_on_c, 0, 84, 107
1, 215455, Note_on_c, 0, 84, 0
1, 215458, Note_on_c, 0, 72, 0
1, 215462, Note_on_c, 0, 45, 0
1, 215464, Note_on_c, 0, 57, 0
1, 215467, Note_on_c, 0, 58, 110
1, 215468, Note_on_c, 0, 46, 115
1, 215469, Note_on_c, 0, 86, 107
1, 215470, Note_on_c, 0, 74, 107
1, 215530, Note_on_c, 0, 50, 110
1, 215534, Note_on_c, 0, 86, 0
1, 215534, Note_on_c, 0, 89, 107
1, 215536, Note_on_c, 0, 74, 0
1, 215536, Note_on_c, 0, 77, 107
1, 215537, Note_on_c, 0, 62, 110
1, 215540, Note_on_c, 0, 58, 0
1, 215541, Note_on_c, 0, 46, 0
1, 215587, Note_on_c, 0, 62, 0
1, 215590, Note_on_c, 0, 77, 0
1, 215591, Note_on_c, 0, 89, 0
1, 215594, Note_on_c, 0, 50, 0
1, 215595, Note_on_c, 0, 48, 115
1, 215596, Note_on_c, 0, 75, 107
1, 215597, Note_on_c, 0, 87, 107
1, 215598, Note_on_c, 0, 60, 110
1, 215618, Note_on_c, 0, 67, 0
1, 215621, Note_on_c, 0, 79, 0
1, 215644, Note_on_c, 0, 87, 0
1, 215647, Note_on_c, 0, 60, 0
1, 215650, Note_on_c, 0, 75, 0
1, 215652, Note_on_c, 0, 48, 0
1, 215656, Note_on_c, 0, 58, 110
1, 215658, Note_on_c, 0, 74, 107
1, 215658, Note_on_c, 0, 46, 115
1, 215659, Note_on_c, 0, 86, 107
1, 215711, Note_on_c, 0, 46, 0
1, 215712, Note_on_c, 0, 86, 0
1, 215713, Note_on_c, 0, 58, 0
1, 215714, Note_on_c, 0, 74, 0
1, 215716, Note_on_c, 0, 45, 115
1, 215717, Note_on_c, 0, 57, 110
1, 215719, Note_on_c, 0, 72, 107
1, 215720, Note_on_c, 0, 84, 107
1, 215782, Note_on_c, 0, 70, 107
1, 215783, Note_on_c, 0, 82, 107
1, 215831, Note_on_c, 0, 82, 0
1, 215832, Note_on_c, 0, 70, 0
1, 215834, Note_on_c, 0, 57, 0
1, 215837, Note_on_c, 0, 45, 0
1, 215840, Note_on_c, 0, 46, 115
1, 215841, Note_on_c, 0, 58, 110
1, 215844, Note_on_c, 0, 81, 107
1, 215845, Note_on_c, 0, 69, 107
1, 215905, Note_on_c, 0, 60, 110
1, 215906, Note_on_c, 0, 48, 115
1, 215907, Note_on_c, 0, 67, 110
1, 215909, Note_on_c, 0, 79, 107
1, 215910, Note_on_c, 0, 81, 0
1, 215913, Note_on_c, 0, 69, 0
1, 215914, Note_on_c, 0, 58, 0
1, 215916, Note_on_c, 0, 72, 0
1, 215918, Note_on_c, 0, 46, 0
1, 215919, Note_on_c, 0, 84, 0
1, 215967, Note_on_c, 0, 67, 0
1, 215967, Note_on_c, 0, 48, 0
1, 215971, Note_on_c, 0, 60, 0
1, 215975, Note_on_c, 0, 78, 107
1, 215975, Note_on_c, 0, 50, 110
1, 215976, Note_on_c, 0, 66, 110
1, 215977, Note_on_c, 0, 79, 0
1, 215977, Note_on_c, 0, 62, 110
1, 216026, Note_on_c, 0, 62, 0
1, 216029, Note_on_c, 0, 50, 0
1, 216040, Note_on_c, 0, 52, 110
1, 216041, Note_on_c, 0, 64, 110
1, 216042, Note_on_c, 0, 67, 110
1, 216044, Note_on_c, 0, 79, 107
1, 216098, Note_on_c, 0, 52, 0
1, 216100, Note_on_c, 0, 79, 0
1, 216102, Note_on_c, 0, 66, 110
1, 216103, Note_on_c, 0, 54, 110
1, 216104, Note_on_c, 0, 67, 0
1, 216105, Note_on_c, 0, 64, 0
1, 216105, Note_on_c, 0, 69, 107
1, 216106, Note_on_c, 0, 81, 107
1, 216151, Note_on_c, 0, 66, 0
1, 216160, Note_on_c, 0, 54, 0
1, 216169, Note_on_c, 0, 82, 107
1, 216170, Note_on_c, 0, 70, 107
1, 216170, Note_on_c, 0, 55, 110
1, 216171, Note_on_c, 0, 67, 110
1, 216174, Note_on_c, 0, 81, 0
1, 216177, Note_on_c, 0, 69, 0
1, 216226, Note_on_c, 0, 67, 0
1, 216228, Note_on_c, 0, 70, 0
1, 216230, Note_on_c, 0, 82, 0
1, 216234, Note_on_c, 0, 55, 0
1, 216239, Note_on_c, 0, 57, 110
1, 216240, Note_on_c, 0, 72, 107
1, 216240, Note_on_c, 0, 69, 107
1, 216241, Note_on_c, 0, 84, 107
1, 216284, Note_on_c, 0, 69, 0
1, 216291, Note_on_c, 0, 72, 0
1, 216292, Note_on_c, 0, 57, 0
1, 216298, Note_on_c, 0, 84, 0
1, 216302, Note_on_c, 0, 54, 110
1, 216303, Note_on_c, 0, 81, 107
1, 216304, Note_on_c, 0, 66, 110
1, 216305, Note_on_c, 0, 69, 107
1, 216345, Note_on_c, 0, 66, 0
1, 216358, Note_on_c, 0, 69, 0
1, 216361, Note_on_c, 0, 54, 0
1, 216365, Note_on_c, 0, 52, 110
1, 216366, Note_on_c, 0, 86, 107
1, 216367, Note_on_c, 0, 74, 107
1, 216367, Note_on_c, 0, 64, 110
1, 216370, Note_on_c, 0, 81, 0
1, 216402, Note_on_c, 0, 78, 0
1, 216425, Note_on_c, 0, 52, 0
1, 216431, Note_on_c, 0, 86, 0
1, 216432, Note_on_c, 0, 81, 107
1, 216432, Note_on_c, 0, 50, 110
1, 216433, Note_on_c, 0, 69, 107
1, 216434, Note_on_c, 0, 62, 110
1, 216437, Note_on_c, 0, 64, 0
1, 216449, Note_on_c, 0, 66, 0
1, 216450, Note_on_c, 0, 74, 0
1, 216480, Note_on_c, 0, 69, 0
1, 216490, Note_on_c, 0, 81, 0
1, 216492, Note_on_c, 0, 70, 107
1, 216493, Note_on_c, 0, 67, 110
1, 216494, Note_on_c, 0, 82, 107
1, 216496, Note_on_c, 0, 79, 107
1, 216497, Note_on_c, 0, 67, 110
1, 216498, Note_on_c, 0, 55, 110
1, 216505, Note_on_c, 0, 62, 0
1, 216510, Note_on_c, 0, 50, 0
1, 216543, Note_on_c, 0, 67, 0
1, 216556, Note_on_c, 0, 50, 110
1, 216558, Note_on_c, 0, 55, 0
1, 216559, Note_on_c, 0, 62, 110
1, 216609, Note_on_c, 0, 82, 0
1, 216615, Note_on_c, 0, 70, 0
1, 216624, Note_on_c, 0, 74, 107
1, 216624, Note_on_c, 0, 86, 107
1, 216625, Note_on_c, 0, 67, 110
1, 216625, Note_on_c, 0, 55, 110
1, 216627, Note_on_c, 0, 62, 0
1, 216628, Note_on_c, 0, 50, 0
1, 216634, Note_on_c, 0, 67, 0
1, 216678, Note_on_c, 0, 55, 0
1, 216686, Note_on_c, 0, 57, 110
1, 216687, Note_on_c, 0, 69, 107
1, 216737, Note_on_c, 0, 79, 0
1, 216739, Note_on_c, 0, 74, 0
1, 216742, Note_on_c, 0, 86, 0
1, 216743, Note_on_c, 0, 57, 0
1, 216744, Note_on_c, 0, 69, 0
1, 216748, Note_on_c, 0, 79, 107
1, 216748, Note_on_c, 0, 91, 107
1, 216749, Note_on_c, 0, 58, 110
1, 216750, Note_on_c, 0, 70, 107
1, 216813, Note_on_c, 0, 55, 110
1, 216815, Note_on_c, 0, 58, 0
1, 216816, Note_on_c, 0, 70, 0
1, 216816, Note_on_c, 0, 67, 110
1, 216867, Note_on_c, 0, 67, 0
1, 216868, Note_on_c, 0, 79, 0
1, 216869, Note_on_c, 0, 91, 0
1, 216871, Note_on_c, 0, 55, 0
1, 216877, Note_on_c, 0, 91, 107
1, 216878, Note_on_c, 0, 79, 107
1, 216879, Note_on_c, 0, 82, 107
1, 216881, Note_on_c, 0, 70, 107
1, 216882, Note_on_c, 0, 70, 107
1, 216882, Note_on_c, 0, 58, 110
1, 216929, Note_on_c, 0, 70, 0
1, 216930, Note_on_c, 0, 58, 0
1, 216935, Note_on_c, 0, 82, 0
1, 216936, Note_on_c, 0, 79, 0
1, 216937, Note_on_c, 0, 70, 0
1, 216940, Note_on_c, 0, 91, 0
1, 216940, Note_on_c, 0, 78, 107
1, 216941, Note_on_c, 0, 69, 107
1, 216942, Note_on_c, 0, 90, 107
1, 216943, Note_on_c, 0, 81, 107
1, 216944, Note_on_c, 0, 60, 110
1, 216945, Note_on_c, 0, 72, 107
1, 216986, Note_on_c, 0, 67, 0
1, 216999, Note_on_c, 0, 81, 0
1, 217000, Note_on_c, 0, 72, 0
1, 217003, Note_on_c, 0, 69, 0
1, 217004, Note_on_c, 0, 90, 0
1, 217006, Note_on_c, 0, 79, 107
1, 217007, Note_on_c, 0, 60, 0
1, 217007, Note_on_c, 0, 91, 107
1, 217008, Note_on_c, 0, 78, 0
1, 217008, Note_on_c, 0, 70, 107
1, 217008, Note_on_c, 0, 82, 107
1, 217009, Note_on_c, 0, 74, 107
1, 217009, Note_on_c, 0, 62, 110
1, 217071, Note_on_c, 0, 55, 110
1, 217072, Note_on_c, 0, 67, 110
1, 217077, Note_on_c, 0, 62, 0
1, 217102, Note_on_c, 0, 74, 0
1, 217125, Note_on_c, 0, 82, 0
1, 217137, Note_on_c, 0, 72, 107
1, 217138, Note_on_c, 0, 84, 107
1, 217139, Note_on_c, 0, 74, 107
1, 217140, Note_on_c, 0, 62, 110
1, 217145, Note_on_c, 0, 55, 0
1, 217150, Note_on_c, 0, 67, 0
1, 217152, Note_on_c, 0, 70, 0
1, 217188, Note_on_c, 0, 62, 0
1, 217198, Note_on_c, 0, 70, 107
1, 217199, Note_on_c, 0, 74, 0
1, 217200, Note_on_c, 0, 64, 110
1, 217201, Note_on_c, 0, 76, 107
1, 217201, Note_on_c, 0, 82, 107
1, 217203, Note_on_c, 0, 84, 0
1, 217204, Note_on_c, 0, 72, 0
1, 217251, Note_on_c, 0, 64, 0
1, 217255, Note_on_c, 0, 70, 0
1, 217258, Note_on_c, 0, 91, 0
1, 217258, Note_on_c, 0, 79, 0
1, 217261, Note_on_c, 0, 81, 95
1, 217262, Note_on_c, 0, 76, 0
1, 217263, Note_on_c, 0, 91, 95
1, 217264, Note_on_c, 0, 82, 0
1, 217264, Note_on_c, 0, 79, 95
1, 217265, Note_on_c, 0, 69, 95
1, 217265, Note_on_c, 0, 65, 98
1, 217266, Note_on_c, 0, 77, 95
1, 217379, Note_on_c, 0, 65, 0
1, 217383, Note_on_c, 0, 91, 0
1, 217389, Note_on_c, 0, 84, 107
1, 217390, Note_on_c, 0, 72, 107
1, 217393, Note_on_c, 0, 65, 110
1, 217394, Note_on_c, 0, 53, 110
1, 217401, Note_on_c, 0, 77, 0
1, 217405, Note_on_c, 0, 79, 0
1, 217442, Note_on_c, 0, 53, 0
1, 217452, Note_on_c, 0, 65, 0
1, 217454, Note_on_c, 0, 55, 110
1, 217455, Note_on_c, 0, 67, 110
1, 217508, Note_on_c, 0, 69, 0
1, 217509, Note_on_c, 0, 55, 0
1, 217514, Note_on_c, 0, 81, 0
1, 217519, Note_on_c, 0, 77, 107
1, 217520, Note_on_c, 0, 89, 107
1, 217520, Note_on_c, 0, 69, 107
1, 217521, Note_on_c, 0, 57, 110
1, 217522, Note_on_c, 0, 84, 0
1, 217531, Note_on_c, 0, 72, 0
1, 217553, Note_on_c, 0, 67, 0
1, 217577, Note_on_c, 0, 69, 0
1, 217586, Note_on_c, 0, 65, 110
1, 217587, Note_on_c, 0, 53, 110
1, 217592, Note_on_c, 0, 57, 0
1, 217640, Note_on_c, 0, 89, 0
1, 217643, Note_on_c, 0, 77, 0
1, 217644, Note_on_c, 0, 53, 0
1, 217649, Note_on_c, 0, 77, 107
1, 217650, Note_on_c, 0, 89, 107
1, 217651, Note_on_c, 0, 69, 107
1, 217652, Note_on_c, 0, 69, 107
1, 217653, Note_on_c, 0, 81, 107
1, 217654, Note_on_c, 0, 57, 110
1, 217669, Note_on_c, 0, 65, 0
1, 217672, Note_on_c, 0, 69, 0
1, 217700, Note_on_c, 0, 57, 0
1, 217712, Note_on_c, 0, 88, 107
1, 217713, Note_on_c, 0, 76, 107
1, 217714, Note_on_c, 0, 79, 107
1, 217715, Note_on_c, 0, 67, 110
1, 217716, Note_on_c, 0, 81, 0
1, 217716, Note_on_c, 0, 70, 107
1, 217717, Note_on_c, 0, 89, 0
1, 217717, Note_on_c, 0, 58, 110
1, 217722, Note_on_c, 0, 77, 0
1, 217779, Note_on_c, 0, 70, 0
1, 217779, Note_on_c, 0, 89, 107
1, 217780, Note_on_c, 0, 80, 107
1, 217781, Note_on_c, 0, 77, 107
1, 217781, Note_on_c, 0, 68, 107
1, 217782, Note_on_c, 0, 79, 0
1, 217782, Note_on_c, 0, 72, 107
1, 217783, Note_on_c, 0, 60, 110
1, 217787, Note_on_c, 0, 88, 0
1, 217790, Note_on_c, 0, 58, 0
1, 217797, Note_on_c, 0, 67, 0
1, 217799, Note_on_c, 0, 76, 0
1, 217812, Note_on_c, 0, 69, 0
1, 217842, Note_on_c, 0, 53, 110
1, 217844, Note_on_c, 0, 65, 110
1, 217859, Note_on_c, 0, 60, 0
1, 217872, Note_on_c, 0, 72, 0
1, 217899, Note_on_c, 0, 80, 0
1, 217907, Note_on_c, 0, 82, 107
1, 217908, Note_on_c, 0, 72, 107
1, 217908, Note_on_c, 0, 70, 107
1, 217909, Note_on_c, 0, 53, 0
1, 217909, Note_on_c, 0, 60, 110
1, 217917, Note_on_c, 0, 68, 0
1, 217921, Note_on_c, 0, 65, 0
1, 217957, Note_on_c, 0, 60, 0
1, 217960, Note_on_c, 0, 72, 0
1, 217961, Note_on_c, 0, 70, 0
1, 217963, Note_on_c, 0, 82, 0
1, 217968, Note_on_c, 0, 68, 107
1, 217969, Note_on_c, 0, 80, 107
1, 217969, Note_on_c, 0, 62, 110
1, 217970, Note_on_c, 0, 74, 107
1, 218021, Note_on_c, 0, 74, 0
1, 218022, Note_on_c, 0, 62, 0
1, 218023, Note_on_c, 0, 89, 0
1, 218023, Note_on_c, 0, 77, 0
1, 218025, Note_on_c, 0, 80, 0
1, 218028, Note_on_c, 0, 68, 0
1, 218029, Note_on_c, 0, 89, 95
1, 218032, Note_on_c, 0, 77, 95
1, 218033, Note_on_c, 0, 79, 95
1, 218034, Note_on_c, 0, 67, 98
1, 218034, Note_on_c, 0, 63, 98
1, 218035, Note_on_c, 0, 75, 95
1, 218086, Note_on_c, 0, 63, 0
1, 218094, Note_on_c, 0, 75, 0
1, 218095, Note_on_c, 0, 77, 107
1, 218095, Note_on_c, 0, 65, 110
1, 218111, Note_on_c, 0, 77, 0
1, 218150, Note_on_c, 0, 67, 0
1, 218151, Note_on_c, 0, 79, 0
1, 218155, Note_on_c, 0, 89, 0
1, 218159, Note_on_c, 0, 70, 107
1, 218160, Note_on_c, 0, 82, 107
1, 218160, Note_on_c, 0, 67, 110
1, 218161, Note_on_c, 0, 79, 107
1, 218163, Note_on_c, 0, 65, 0
1, 218188, Note_on_c, 0, 77, 0
1, 218217, Note_on_c, 0, 79, 0
1, 218218, Note_on_c, 0, 67, 0
1, 218225, Note_on_c, 0, 77, 107
1, 218226, Note_on_c, 0, 65, 110
1, 218274, Note_on_c, 0, 82, 0
1, 218277, Note_on_c, 0, 70, 0
1, 218279, Note_on_c, 0, 65, 0
1, 218287, Note_on_c, 0, 72, 107
1, 218288, Note_on_c, 0, 84, 107
1, 218289, Note_on_c, 0, 75, 107
1, 218290, Note_on_c, 0, 63, 110
1, 218291, Note_on_c, 0, 77, 0
1, 218350, Note_on_c, 0, 79, 107
1, 218351, Note_on_c, 0, 67, 110
1, 218353, Note_on_c, 0, 75, 0
1, 218354, Note_on_c, 0, 63, 0
1, 218406, Note_on_c, 0, 84, 0
1, 218414, Note_on_c, 0, 74, 107
1, 218416, Note_on_c, 0, 75, 107
1, 218417, Note_on_c, 0, 79, 0
1, 218418, Note_on_c, 0, 86, 107
1, 218418, Note_on_c, 0, 63, 110
1, 218419, Note_on_c, 0, 67, 0
1, 218428, Note_on_c, 0, 72, 0
1, 218469, Note_on_c, 0, 75, 0
1, 218479, Note_on_c, 0, 74, 107
1, 218480, Note_on_c, 0, 62, 110
1, 218482, Note_on_c, 0, 63, 0
1, 218530, Note_on_c, 0, 86, 0
1, 218531, Note_on_c, 0, 74, 0
1, 218541, Note_on_c, 0, 87, 107
1, 218542, Note_on_c, 0, 75, 107
1, 218543, Note_on_c, 0, 72, 107
1, 218544, Note_on_c, 0, 60, 110
1, 218556, Note_on_c, 0, 74, 0
1, 218560, Note_on_c, 0, 62, 0
1, 218604, Note_on_c, 0, 60, 0
1, 218608, Note_on_c, 0, 75, 107
1, 218609, Note_on_c, 0, 63, 110
1, 218635, Note_on_c, 0, 72, 0
1, 218670, Note_on_c, 0, 79, 107
1, 218670, Note_on_c, 0, 67, 110
1, 218671, Note_on_c, 0, 72, 107
1, 218672, Note_on_c, 0, 60, 110
1, 218682, Note_on_c, 0, 63, 0
1, 218695, Note_on_c, 0, 75, 0
1, 218728, Note_on_c, 0, 72, 0
1, 218732, Note_on_c, 0, 60, 0
1, 218738, Note_on_c, 0, 70, 107
1, 218739, Note_on_c, 0, 58, 110
1, 218790, Note_on_c, 0, 87, 0
1, 218794, Note_on_c, 0, 58, 0
1, 218796, Note_on_c, 0, 70, 0
1, 218797, Note_on_c, 0, 79, 0
1, 218800, Note_on_c, 0, 67, 0
1, 218806, Note_on_c, 0, 87, 107
1, 218806, Note_on_c, 0, 75, 107
1, 218807, Note_on_c, 0, 66, 110
1, 218808, Note_on_c, 0, 78, 107
1, 218809, Note_on_c, 0, 69, 107
1, 218811, Note_on_c, 0, 57, 110
1, 218827, Note_on_c, 0, 75, 0
1, 218866, Note_on_c, 0, 57, 0
1, 218866, Note_on_c, 0, 60, 110
1, 218867, Note_on_c, 0, 72, 107
1, 218883, Note_on_c, 0, 69, 0
1, 218916, Note_on_c, 0, 87, 0
1, 218923, Note_on_c, 0, 60, 0
1, 218931, Note_on_c, 0, 69, 107
1, 218932, Note_on_c, 0, 81, 107
1, 218932, Note_on_c, 0, 70, 107
1, 218934, Note_on_c, 0, 58, 110
1, 218935, Note_on_c, 0, 72, 0
1, 218992, Note_on_c, 0, 58, 0
1, 218998, Note_on_c, 0, 72, 107
1, 218999, Note_on_c, 0, 60, 110
1, 219003, Note_on_c, 0, 70, 0
1, 219047, Note_on_c, 0, 78, 0
1, 219055, Note_on_c, 0, 60, 0
1, 219055, Note_on_c, 0, 81, 0
1, 219058, Note_on_c, 0, 69, 0
1, 219063, Note_on_c, 0, 71, 107
1, 219064, Note_on_c, 0, 83, 107
1, 219066, Note_on_c, 0, 74, 107
1, 219067, Note_on_c, 0, 62, 110
1, 219069, Note_on_c, 0, 72, 0
1, 219099, Note_on_c, 0, 66, 0
1, 219124, Note_on_c, 0, 65, 110
1, 219125, Note_on_c, 0, 77, 107
1, 219133, Note_on_c, 0, 74, 0
1, 219135, Note_on_c, 0, 62, 0
1, 219176, Note_on_c, 0, 83, 0
1, 219192, Note_on_c, 0, 72, 107
1, 219192, Note_on_c, 0, 84, 107
1, 219192, Note_on_c, 0, 74, 107
1, 219193, Note_on_c, 0, 62, 110
1, 219194, Note_on_c, 0, 75, 0
1, 219195, Note_on_c, 0, 65, 0
1, 219205, Note_on_c, 0, 71, 0
1, 219210, Note_on_c, 0, 77, 0
1, 219246, Note_on_c, 0, 62, 0
1, 219260, Note_on_c, 0, 72, 107
1, 219261, Note_on_c, 0, 60, 110
1, 219262, Note_on_c, 0, 72, 0
1, 219277, Note_on_c, 0, 74, 0
1, 219311, Note_on_c, 0, 60, 0
1, 219313, Note_on_c, 0, 84, 0
1, 219323, Note_on_c, 0, 59, 110
1, 219324, Note_on_c, 0, 74, 107
1, 219324, Note_on_c, 0, 86, 107
1, 219325, Note_on_c, 0, 71, 107
1, 219370, Note_on_c, 0, 72, 0
1, 219373, Note_on_c, 0, 59, 0
1, 219382, Note_on_c, 0, 74, 107
1, 219382, Note_on_c, 0, 62, 110
1, 219413, Note_on_c, 0, 71, 0
1, 219433, Note_on_c, 0, 62, 0
1, 219447, Note_on_c, 0, 77, 107
1, 219448, Note_on_c, 0, 74, 0
1, 219448, Note_on_c, 0, 71, 107
1, 219449, Note_on_c, 0, 65, 110
1, 219450, Note_on_c, 0, 59, 110
1, 219501, Note_on_c, 0, 59, 0
1, 219512, Note_on_c, 0, 71, 0
1, 219513, Note_on_c, 0, 57, 110
1, 219514, Note_on_c, 0, 69, 107
1, 219567, Note_on_c, 0, 77, 0
1, 219568, Note_on_c, 0, 86, 0
1, 219570, Note_on_c, 0, 65, 0
1, 219581, Note_on_c, 0, 74, 107
1, 219582, Note_on_c, 0, 69, 0
1, 219584, Note_on_c, 0, 76, 107
1, 219585, Note_on_c, 0, 86, 107
1, 219586, Note_on_c, 0, 57, 0
1, 219587, Note_on_c, 0, 64, 110
1, 219588, Note_on_c, 0, 67, 110
1, 219588, Note_on_c, 0, 55, 110
1, 219612, Note_on_c, 0, 74, 0
1, 219645, Note_on_c, 0, 71, 107
1, 219646, Note_on_c, 0, 59, 110
1, 219647, Note_on_c, 0, 74, 0
1, 219657, Note_on_c, 0, 55, 0
1, 219659, Note_on_c, 0, 67, 0
1, 219697, Note_on_c, 0, 86, 0
1, 219710, Note_on_c, 0, 67, 110
1, 219712, Note_on_c, 0, 69, 107
1, 219712, Note_on_c, 0, 79, 107
1, 219712, Note_on_c, 0, 57, 110
1, 219717, Note_on_c, 0, 59, 0
1, 219719, Note_on_c, 0, 71, 0
1, 219775, Note_on_c, 0, 69, 0
1, 219776, Note_on_c, 0, 59, 110
1, 219777, Note_on_c, 0, 71, 107
1, 219778, Note_on_c, 0, 57, 0
1, 219829, Note_on_c, 0, 76, 0
1, 219832, Note_on_c, 0, 79, 0
1, 219835, Note_on_c, 0, 67, 0
1, 219838, Note_on_c, 0, 71, 0
1, 219840, Note_on_c, 0, 59, 0
1, 219842, Note_on_c, 0, 69, 107
1, 219843, Note_on_c, 0, 81, 107
1, 219844, Note_on_c, 0, 72, 107
1, 219844, Note_on_c, 0, 60, 110
1, 219879, Note_on_c, 0, 64, 0
1, 219904, Note_on_c, 0, 63, 110
1, 219905, Note_on_c, 0, 75, 107
1, 219906, Note_on_c, 0, 60, 0
1, 219908, Note_on_c, 0, 72, 0
1, 219959, Note_on_c, 0, 63, 0
1, 219960, Note_on_c, 0, 69, 0
1, 219960, Note_on_c, 0, 81, 0
1, 219971, Note_on_c, 0, 70, 107
1, 219972, Note_on_c, 0, 82, 107
1, 219973, Note_on_c, 0, 72, 107
1, 219974, Note_on_c, 0, 60, 110
1, 219989, Note_on_c, 0, 75, 0
1, 220026, Note_on_c, 0, 60, 0
1, 220038, Note_on_c, 0, 71, 107
1, 220039, Note_on_c, 0, 59, 110
1, 220053, Note_on_c, 0, 72, 0
1, 220089, Note_on_c, 0, 59, 0
1, 220094, Note_on_c, 0, 70, 0
1, 220100, Note_on_c, 0, 72, 107
1, 220101, Note_on_c, 0, 71, 0
1, 220102, Note_on_c, 0, 84, 107
1, 220102, Note_on_c, 0, 69, 107
1, 220103, Note_on_c, 0, 57, 110
1, 220113, Note_on_c, 0, 82, 0
1, 220159, Note_on_c, 0, 72, 107
1, 220160, Note_on_c, 0, 60, 110
1, 220174, Note_on_c, 0, 57, 0
1, 220186, Note_on_c, 0, 69, 0
1, 220192, Note_on_c, 0, 72, 0
1, 220225, Note_on_c, 0, 63, 110
1, 220226, Note_on_c, 0, 60, 0
1, 220227, Note_on_c, 0, 75, 107
1, 220227, Note_on_c, 0, 69, 107
1, 220228, Note_on_c, 0, 57, 110
1, 220278, Note_on_c, 0, 57, 0
1, 220286, Note_on_c, 0, 69, 0
1, 220289, Note_on_c, 0, 55, 110
1, 220291, Note_on_c, 0, 67, 110
1, 220338, Note_on_c, 0, 75, 0
1, 220339, Note_on_c, 0, 63, 0
1, 220340, Note_on_c, 0, 84, 0
1, 220347, Note_on_c, 0, 55, 0
1, 220352, Note_on_c, 0, 72, 107
1, 220353, Note_on_c, 0, 67, 0
1, 220354, Note_on_c, 0, 84, 107
1, 220354, Note_on_c, 0, 62, 110
1, 220355, Note_on_c, 0, 74, 107
1, 220356, Note_on_c, 0, 54, 110
1, 220356, Note_on_c, 0, 66, 110
1, 220366, Note_on_c, 0, 72, 0
1, 220402, Note_on_c, 0, 84, 0
1, 220404, Note_on_c, 0, 72, 0
1, 220416, Note_on_c, 0, 75, 107
1, 220416, Note_on_c, 0, 87, 107
1, 220470, Note_on_c, 0, 66, 0
1, 220473, Note_on_c, 0, 54, 0
1, 220476, Note_on_c, 0, 87, 0
1, 220479, Note_on_c, 0, 75, 0
1, 220480, Note_on_c, 0, 74, 107
1, 220480, Note_on_c, 0, 86, 107
1, 220481, Note_on_c, 0, 50, 110
1, 220482, Note_on_c, 0, 62, 110
1, 220485, Note_on_c, 0, 74, 0
1, 220543, Note_on_c, 0, 84, 107
1, 220544, Note_on_c, 0, 72, 107
1, 220545, Note_on_c, 0, 86, 0
1, 220604, Note_on_c, 0, 72, 0
1, 220609, Note_on_c, 0, 70, 107
1, 220611, Note_on_c, 0, 82, 107
1, 220612, Note_on_c, 0, 75, 107
1, 220612, Note_on_c, 0, 63, 110
1, 220614, Note_on_c, 0, 55, 110
1, 220615, Note_on_c, 0, 67, 110
1, 220619, Note_on_c, 0, 84, 0
1, 220626, Note_on_c, 0, 50, 0
1, 220662, Note_on_c, 0, 74, 0
1, 220666, Note_on_c, 0, 62, 0
1, 220667, Note_on_c, 0, 70, 0
1, 220678, Note_on_c, 0, 69, 107
1, 220679, Note_on_c, 0, 81, 107
1, 220681, Note_on_c, 0, 82, 0
1, 220687, Note_on_c, 0, 62, 0
1, 220728, Note_on_c, 0, 69, 0
1, 220730, Note_on_c, 0, 67, 0
1, 220733, Note_on_c, 0, 55, 0
1, 220736, Note_on_c, 0, 81, 0
1, 220741, Note_on_c, 0, 67, 110
1, 220742, Note_on_c, 0, 65, 110
1, 220742, Note_on_c, 0, 53, 110
1, 220743, Note_on_c, 0, 79, 107
1, 220792, Note_on_c, 0, 67, 0
1, 220800, Note_on_c, 0, 81, 107
1, 220801, Note_on_c, 0, 79, 0
1, 220802, Note_on_c, 0, 69, 107
1, 220852, Note_on_c, 0, 65, 0
1, 220854, Note_on_c, 0, 53, 0
1, 220855, Note_on_c, 0, 75, 0
1, 220855, Note_on_c, 0, 63, 0
1, 220861, Note_on_c, 0, 81, 0
1, 220862, Note_on_c, 0, 69, 0
1, 220869, Note_on_c, 0, 70, 107
1, 220869, Note_on_c, 0, 82, 107
1, 220871, Note_on_c, 0, 64, 110
1, 220871, Note_on_c, 0, 55, 110
1, 220872, Note_on_c, 0, 76, 107
1, 220873, Note_on_c, 0, 67, 110
1, 220920, Note_on_c, 0, 70, 0
1, 220935, Note_on_c, 0, 74, 107
1, 220936, Note_on_c, 0, 86, 107
1, 220937, Note_on_c, 0, 82, 0
1, 220990, Note_on_c, 0, 67, 0
1, 220993, Note_on_c, 0, 55, 0
1, 220998, Note_on_c, 0, 86, 0
1, 221001, Note_on_c, 0, 74, 0
1, 221002, Note_on_c, 0, 84, 107
1, 221003, Note_on_c, 0, 72, 107
1, 221004, Note_on_c, 0, 55, 110
1, 221004, Note_on_c, 0, 43, 115
1, 221060, Note_on_c, 0, 70, 107
1, 221062, Note_on_c, 0, 82, 107
1, 221063, Note_on_c, 0, 84, 0
1, 221064, Note_on_c, 0, 72, 0
1, 221109, Note_on_c, 0, 76, 0
1, 221112, Note_on_c, 0, 64, 0
1, 221113, Note_on_c, 0, 43, 0
1, 221114, Note_on_c, 0, 55, 0
1, 221120, Note_on_c, 0, 82, 0
1, 221123, Note_on_c, 0, 70, 0
1, 221126, Note_on_c, 0, 69, 107
1, 221127, Note_on_c, 0, 81, 107
1, 221128, Note_on_c, 0, 38, 115
1, 221129, Note_on_c, 0, 77, 107
1, 221129, Note_on_c, 0, 65, 110
1, 221130, Note_on_c, 0, 50, 110
1, 221131, Note_on_c, 0, 62, 110
1, 221182, Note_on_c, 0, 69, 0
1, 221191, Note_on_c, 0, 81, 0
1, 221192, Note_on_c, 0, 74, 107
1, 221193, Note_on_c, 0, 86, 107
1, 221256, Note_on_c, 0, 86, 0
1, 221256, Note_on_c, 0, 84, 107
1, 221257, Note_on_c, 0, 74, 0
1, 221258, Note_on_c, 0, 72, 107
1, 221313, Note_on_c, 0, 84, 0
1, 221320, Note_on_c, 0, 70, 107
1, 221322, Note_on_c, 0, 82, 107
1, 221325, Note_on_c, 0, 72, 0
1, 221372, Note_on_c, 0, 77, 0
1, 221374, Note_on_c, 0, 65, 0
1, 221376, Note_on_c, 0, 70, 0
1, 221384, Note_on_c, 0, 69, 107
1, 221385, Note_on_c, 0, 65, 110
1, 221386, Note_on_c, 0, 77, 107
1, 221387, Note_on_c, 0, 81, 107
1, 221391, Note_on_c, 0, 82, 0
1, 221448, Note_on_c, 0, 81, 0
1, 221448, Note_on_c, 0, 86, 107
1, 221450, Note_on_c, 0, 74, 107
1, 221465, Note_on_c, 0, 69, 0
1, 221501, Note_on_c, 0, 65, 0
1, 221503, Note_on_c, 0, 77, 0
1, 221514, Note_on_c, 0, 79, 107
1, 221515, Note_on_c, 0, 67, 110
1, 221516, Note_on_c, 0, 76, 107
1, 221516, Note_on_c, 0, 64, 110
1, 221517, Note_on_c, 0, 74, 0
1, 221526, Note_on_c, 0, 86, 0
1, 221580, Note_on_c, 0, 73, 107
1, 221580, Note_on_c, 0, 85, 107
1, 221597, Note_on_c, 0, 67, 0
1, 221600, Note_on_c, 0, 79, 0
1, 221639, Note_on_c, 0, 64, 0
1, 221640, Note_on_c, 0, 76, 0
1, 221646, Note_on_c, 0, 81, 107
1, 221648, Note_on_c, 0, 77, 107
1, 221648, Note_on_c, 0, 69, 107
1, 221648, Note_on_c, 0, 65, 110
1, 221650, Note_on_c, 0, 73, 0
1, 221663, Note_on_c, 0, 85, 0
1, 221709, Note_on_c, 0, 74, 107
1, 221711, Note_on_c, 0, 86, 107
1, 221721, Note_on_c, 0, 81, 0
1, 221724, Note_on_c, 0, 69, 0
1, 221775, Note_on_c, 0, 69, 107
1, 221776, Note_on_c, 0, 81, 107
1, 221780, Note_on_c, 0, 74, 0
1, 221808, Note_on_c, 0, 86, 0
1, 221840, Note_on_c, 0, 79, 107
1, 221840, Note_on_c, 0, 67, 110
1, 221843, Note_on_c, 0, 81, 0
1, 221846, Note_on_c, 0, 69, 0
1, 221883, Note_on_c, 0, 38, 0
1, 221885, Note_on_c, 0, 50, 0
1, 221886, Note_on_c, 0, 62, 0
1, 221889, Note_on_c, 0, 77, 0
1, 221891, Note_on_c, 0, 65, 0
1, 221892, Note_on_c, 0, 67, 0
1, 221904, Note_on_c, 0, 62, 110
1, 221905, Note_on_c, 0, 38, 115
1, 221906, Note_on_c, 0, 79, 0
1, 221906, Note_on_c, 0, 50, 110
1, 221907, Note_on_c, 0, 77, 107
1, 221908, Note_on_c, 0, 69, 107
1, 221908, Note_on_c, 0, 57, 110
1, 221909, Note_on_c, 0, 65, 110
1, 221956, Note_on_c, 0, 65, 0
1, 221960, Note_on_c, 0, 77, 0
1, 221967, Note_on_c, 0, 79, 107
1, 221968, Note_on_c, 0, 67, 110
1, 222019, Note_on_c, 0, 79, 0
1, 222033, Note_on_c, 0, 77, 107
1, 222034, Note_on_c, 0, 65, 110
1, 222039, Note_on_c, 0, 67, 0
1, 222088, Note_on_c, 0, 77, 0
1, 222097, Note_on_c, 0, 65, 0
1, 222099, Note_on_c, 0, 76, 107
1, 222100, Note_on_c, 0, 64, 110
1, 222150, Note_on_c, 0, 76, 0
1, 222150, Note_on_c, 0, 69, 0
1, 222152, Note_on_c, 0, 57, 0
1, 222163, Note_on_c, 0, 58, 110
1, 222164, Note_on_c, 0, 62, 110
1, 222165, Note_on_c, 0, 64, 0
1, 222166, Note_on_c, 0, 74, 107
1, 222167, Note_on_c, 0, 70, 107
1, 222226, Note_on_c, 0, 65, 110
1, 222227, Note_on_c, 0, 77, 107
1, 222230, Note_on_c, 0, 74, 0
1, 222278, Note_on_c, 0, 65, 0
1, 222279, Note_on_c, 0, 77, 0
1, 222290, Note_on_c, 0, 76, 107
1, 222290, Note_on_c, 0, 64, 110
1, 222326, Note_on_c, 0, 62, 0
1, 222339, Note_on_c, 0, 64, 0
1, 222341, Note_on_c, 0, 76, 0
1, 222347, Note_on_c, 0, 62, 110
1, 222348, Note_on_c, 0, 74, 107
1, 222402, Note_on_c, 0, 58, 0
1, 222404, Note_on_c, 0, 70, 0
1, 222411, Note_on_c, 0, 62, 0
1, 222413, Note_on_c, 0, 67, 110
1, 222414, Note_on_c, 0, 79, 107
1, 222415, Note_on_c, 0, 59, 110
1, 222416, Note_on_c, 0, 74, 0
1, 222417, Note_on_c, 0, 71, 107
1, 222468, Note_on_c, 0, 67, 0
1, 222477, Note_on_c, 0, 69, 107
1, 222478, Note_on_c, 0, 81, 107
1, 222484, Note_on_c, 0, 79, 0
1, 222513, Note_on_c, 0, 62, 0
1, 222538, Note_on_c, 0, 81, 0
1, 222538, Note_on_c, 0, 79, 107
1, 222539, Note_on_c, 0, 67, 110
1, 222540, Note_on_c, 0, 69, 0
1, 222585, Note_on_c, 0, 50, 0
1, 222585, Note_on_c, 0, 38, 0
1, 222599, Note_on_c, 0, 67, 0
1, 222600, Note_on_c, 0, 77, 107
1, 222600, Note_on_c, 0, 65, 110
1, 222604, Note_on_c, 0, 79, 0
1, 222649, Note_on_c, 0, 59, 0
1, 222650, Note_on_c, 0, 71, 0
1, 222660, Note_on_c, 0, 50, 110
1, 222661, Note_on_c, 0, 38, 115
1, 222663, Note_on_c, 0, 65, 0
1, 222664, Note_on_c, 0, 77, 0
1, 222664, Note_on_c, 0, 64, 110
1, 222665, Note_on_c, 0, 72, 107
1, 222665, Note_on_c, 0, 76, 107
1, 222666, Note_on_c, 0, 62, 110
1, 222666, Note_on_c, 0, 60, 110
1, 222716, Note_on_c, 0, 64, 0
1, 222726, Note_on_c, 0, 79, 107
1, 222726, Note_on_c, 0, 67, 110
1, 222727, Note_on_c, 0, 76, 0
1, 222785, Note_on_c, 0, 77, 107
1, 222786, Note_on_c, 0, 65, 110
1, 222788, Note_on_c, 0, 79, 0
1, 222790, Note_on_c, 0, 67, 0
1, 222846, Note_on_c, 0, 76, 107
1, 222847, Note_on_c, 0, 77, 0
1, 222847, Note_on_c, 0, 64, 110
1, 222848, Note_on_c, 0, 65, 0
1, 222903, Note_on_c, 0, 72, 0
1, 222905, Note_on_c, 0, 60, 0
1, 222911, Note_on_c, 0, 64, 0
1, 222915, Note_on_c, 0, 81, 107
1, 222917, Note_on_c, 0, 69, 107
1, 222918, Note_on_c, 0, 72, 107
1, 222919, Note_on_c, 0, 60, 110
1, 222931, Note_on_c, 0, 76, 0
1, 222979, Note_on_c, 0, 82, 107
1, 222980, Note_on_c, 0, 70, 107
1, 222983, Note_on_c, 0, 69, 0
1, 222985, Note_on_c, 0, 81, 0
1, 223031, Note_on_c, 0, 72, 0
1, 223032, Note_on_c, 0, 60, 0
1, 223044, Note_on_c, 0, 81, 107
1, 223044, Note_on_c, 0, 69, 107
1, 223044, Note_on_c, 0, 71, 107
1, 223045, Note_on_c, 0, 59, 110
1, 223046, Note_on_c, 0, 82, 0
1, 223047, Note_on_c, 0, 70, 0
1, 223105, Note_on_c, 0, 81, 0
1, 223106, Note_on_c, 0, 69, 0
1, 223108, Note_on_c, 0, 67, 110
1, 223109, Note_on_c, 0, 79, 107
1, 223160, Note_on_c, 0, 59, 0
1, 223163, Note_on_c, 0, 79, 0
1, 223164, Note_on_c, 0, 71, 0
1, 223167, Note_on_c, 0, 67, 0
1, 223173, Note_on_c, 0, 66, 110
1, 223174, Note_on_c, 0, 60, 110
1, 223175, Note_on_c, 0, 72, 107
1, 223177, Note_on_c, 0, 78, 107
1, 223237, Note_on_c, 0, 67, 110
1, 223240, Note_on_c, 0, 78, 0
1, 223241, Note_on_c, 0, 79, 107
1, 223245, Note_on_c, 0, 66, 0
1, 223298, Note_on_c, 0, 67, 0
1, 223305, Note_on_c, 0, 78, 107
1, 223305, Note_on_c, 0, 66, 110
1, 223308, Note_on_c, 0, 79, 0
1, 223365, Note_on_c, 0, 78, 0
1, 223368, Note_on_c, 0, 66, 0
1, 223368, Note_on_c, 0, 64, 110
1, 223369, Note_on_c, 0, 76, 107
1, 223420, Note_on_c, 0, 72, 0
1, 223421, Note_on_c, 0, 60, 0
1, 223423, Note_on_c, 0, 64, 0
1, 223423, Note_on_c, 0, 76, 0
1, 223429, Note_on_c, 0, 84, 109
1, 223430, Note_on_c, 0, 72, 109
1, 223431, Note_on_c, 0, 87, 109
1, 223432, Note_on_c, 0, 75, 109
1, 223433, Note_on_c, 0, 69, 109
1, 223433, Note_on_c, 0, 81, 109
1, 223434, Note_on_c, 0, 78, 109
1, 223436, Note_on_c, 0, 50, 110
1, 223436, Note_on_c, 0, 62, 110
1, 223437, Note_on_c, 0, 66, 110
1, 223463, Note_on_c, 0, 54, 110
1, 223464, Note_on_c, 0, 66, 110
1, 223505, Note_on_c, 0, 62, 0
1, 223506, Note_on_c, 0, 66, 0
1, 223506, Note_on_c, 0, 50, 0
1, 223507, Note_on_c, 0, 69, 109
1, 223507, Note_on_c, 0, 57, 110
1, 223546, Note_on_c, 0, 62, 110
1, 223548, Note_on_c, 0, 74, 109
1, 223580, Note_on_c, 0, 74, 0
1, 223590, Note_on_c, 0, 57, 0
1, 223592, Note_on_c, 0, 69, 0
1, 223594, Note_on_c, 0, 74, 109
1, 223595, Note_on_c, 0, 62, 110
1, 223608, Note_on_c, 0, 54, 0
1, 223625, Note_on_c, 0, 62, 0
1, 223646, Note_on_c, 0, 74, 0
1, 223658, Note_on_c, 0, 72, 109
1, 223659, Note_on_c, 0, 60, 110
1, 223682, Note_on_c, 0, 62, 0
1, 223708, Note_on_c, 0, 81, 0
1, 223709, Note_on_c, 0, 78, 0
1, 223713, Note_on_c, 0, 72, 0
1, 223713, Note_on_c, 0, 60, 0
1, 223714, Note_on_c, 0, 87, 0
1, 223715, Note_on_c, 0, 75, 0
1, 223716, Note_on_c, 0, 69, 0
1, 223717, Note_on_c, 0, 72, 0
1, 223718, Note_on_c, 0, 84, 0
1, 223720, Note_on_c, 0, 70, 109
1, 223722, Note_on_c, 0, 74, 109
1, 223724, Note_on_c, 0, 82, 109
1, 223725, Note_on_c, 0, 86, 109
1, 223726, Note_on_c, 0, 70, 109
1, 223726, Note_on_c, 0, 67, 110
1, 223727, Note_on_c, 0, 79, 109
1, 223727, Note_on_c, 0, 58, 110
1, 223743, Note_on_c, 0, 70, 0
1, 223809, Note_on_c, 0, 66, 0
1, 223836, Note_on_c, 0, 58, 0
1, 223853, Note_on_c, 0, 58, 110
1, 223854, Note_on_c, 0, 70, 109
1, 223869, Note_on_c, 0, 70, 0
1, 223903, Note_on_c, 0, 58, 0
1, 223919, Note_on_c, 0, 69, 109
1, 223921, Note_on_c, 0, 57, 110
1, 223956, Note_on_c, 0, 38, 0
1, 223972, Note_on_c, 0, 67, 0
1, 223972, Note_on_c, 0, 79, 0
1, 223976, Note_on_c, 0, 86, 0
1, 223977, Note_on_c, 0, 57, 0
1, 223977, Note_on_c, 0, 74, 0
1, 223978, Note_on_c, 0, 82, 0
1, 223981, Note_on_c, 0, 69, 0
1, 223985, Note_on_c, 0, 81, 109
1, 223985, Note_on_c, 0, 69, 109
1, 223986, Note_on_c, 0, 84, 109
1, 223988, Note_on_c, 0, 72, 109
1, 223989, Note_on_c, 0, 62, 110
1, 223990, Note_on_c, 0, 67, 110
1, 223991, Note_on_c, 0, 62, 0
1, 223991, Note_on_c, 0, 74, 109
1, 223992, Note_on_c, 0, 55, 110
1, 224031, Note_on_c, 0, 50, 0
1, 224102, Note_on_c, 0, 55, 0
1, 224103, Note_on_c, 0, 67, 0
1, 224103, Note_on_c, 0, 70, 0
1, 224117, Note_on_c, 0, 67, 110
1, 224119, Note_on_c, 0, 55, 110
1, 224165, Note_on_c, 0, 55, 0
1, 224169, Note_on_c, 0, 67, 0
1, 224182, Note_on_c, 0, 54, 110
1, 224183, Note_on_c, 0, 66, 110
1, 224194, Note_on_c, 0, 62, 0
1, 224235, Note_on_c, 0, 74, 0
1, 224241, Note_on_c, 0, 66, 0
1, 224243, Note_on_c, 0, 84, 0
1, 224244, Note_on_c, 0, 54, 0
1, 224245, Note_on_c, 0, 72, 0
1, 224246, Note_on_c, 0, 81, 0
1, 224247, Note_on_c, 0, 69, 0
1, 224251, Note_on_c, 0, 69, 109
1, 224252, Note_on_c, 0, 70, 109
1, 224253, Note_on_c, 0, 82, 109
1, 224255, Note_on_c, 0, 74, 109
1, 224255, Note_on_c, 0, 81, 109
1, 224255, Note_on_c, 0, 62, 110
1, 224257, Note_on_c, 0, 67, 110
1, 224258, Note_on_c, 0, 55, 110
1, 224362, Note_on_c, 0, 55, 0
1, 224364, Note_on_c, 0, 67, 0
1, 224377, Note_on_c, 0, 55, 110
1, 224378, Note_on_c, 0, 67, 110
1, 224430, Note_on_c, 0, 55, 0
1, 224432, Note_on_c, 0, 67, 0
1, 224440, Note_on_c, 0, 53, 110
1, 224441, Note_on_c, 0, 65, 110
1, 224492, Note_on_c, 0, 70, 0
1, 224493, Note_on_c, 0, 74, 0
1, 224493, Note_on_c, 0, 82, 0
1, 224494, Note_on_c, 0, 62, 0
1, 224497, Note_on_c, 0, 69, 0
1, 224499, Note_on_c, 0, 65, 0
1, 224499, Note_on_c, 0, 81, 0
1, 224500, Note_on_c, 0, 53, 0
1, 224503, Note_on_c, 0, 67, 110
1, 224505, Note_on_c, 0, 79, 109
1, 224507, Note_on_c, 0, 72, 109
1, 224508, Note_on_c, 0, 84, 109
1, 224509, Note_on_c, 0, 51, 110
1, 224510, Note_on_c, 0, 63, 110
1, 224622, Note_on_c, 0, 63, 0
1, 224624, Note_on_c, 0, 51, 0
1, 224628, Note_on_c, 0, 84, 0
1, 224629, Note_on_c, 0, 72, 0
1, 224636, Note_on_c, 0, 82, 109
1, 224637, Note_on_c, 0, 70, 109
1, 224637, Note_on_c, 0, 63, 110
1, 224638, Note_on_c, 0, 51, 110
1, 224689, Note_on_c, 0, 51, 0
1, 224692, Note_on_c, 0, 63, 0
1, 224703, Note_on_c, 0, 50, 110
1, 224704, Note_on_c, 0, 62, 110
1, 224754, Note_on_c, 0, 62, 0
1, 224755, Note_on_c, 0, 70, 0
1, 224757, Note_on_c, 0, 50, 0
1, 224760, Note_on_c, 0, 82, 0
1, 224766, Note_on_c, 0, 69, 109
1, 224767, Note_on_c, 0, 48, 115
1, 224768, Note_on_c, 0, 81, 109
1, 224769, Note_on_c, 0, 60, 110
1, 224890, Note_on_c, 0, 60, 0
1, 224891, Note_on_c, 0, 48, 0
1, 224901, Note_on_c, 0, 79, 109
1, 224901, Note_on_c, 0, 48, 115
1, 224902, Note_on_c, 0, 67, 110
1, 224902, Note_on_c, 0, 60, 110
1, 224918, Note_on_c, 0, 67, 0
1, 224933, Note_on_c, 0, 79, 0
1, 224958, Note_on_c, 0, 60, 0
1, 224959, Note_on_c, 0, 48, 0
1, 224970, Note_on_c, 0, 58, 110
1, 224971, Note_on_c, 0, 46, 115
1, 225026, Note_on_c, 0, 79, 0
1, 225030, Note_on_c, 0, 46, 0
1, 225031, Note_on_c, 0, 58, 0
1, 225031, Note_on_c, 0, 69, 0
1, 225032, Note_on_c, 0, 81, 0
1, 225037, Note_on_c, 0, 73, 111
1, 225038, Note_on_c, 0, 70, 111
1, 225040, Note_on_c, 0, 82, 111
1, 225041, Note_on_c, 0, 85, 111
1, 225041, Note_on_c, 0, 57, 110
1, 225042, Note_on_c, 0, 45, 115
1, 225119, Note_on_c, 0, 67, 0
1, 225154, Note_on_c, 0, 57, 0
1, 225157, Note_on_c, 0, 45, 0
1, 225164, Note_on_c, 0, 57, 110
1, 225165, Note_on_c, 0, 69, 111
1, 225217, Note_on_c, 0, 57, 0
1, 225218, Note_on_c, 0, 69, 0
1, 225228, Note_on_c, 0, 55, 110
1, 225229, Note_on_c, 0, 67, 110
1, 225277, Note_on_c, 0, 85, 0
1, 225282, Note_on_c, 0, 82, 0
1, 225282, Note_on_c, 0, 73, 0
1, 225283, Note_on_c, 0, 67, 0
1, 225286, Note_on_c, 0, 70, 0
1, 225286, Note_on_c, 0, 55, 0
1, 225292, Note_on_c, 0, 86, 111
1, 225293, Note_on_c, 0, 74, 111
1, 225294, Note_on_c, 0, 81, 111
1, 225295, Note_on_c, 0, 69, 111
1, 225296, Note_on_c, 0, 65, 110
1, 225297, Note_on_c, 0, 53, 110
1, 225409, Note_on_c, 0, 53, 0
1, 225412, Note_on_c, 0, 65, 0
1, 225419, Note_on_c, 0, 53, 110
1, 225420, Note_on_c, 0, 65, 110
1, 225478, Note_on_c, 0, 65, 0
1, 225480, Note_on_c, 0, 53, 0
1, 225486, Note_on_c, 0, 52, 110
1, 225487, Note_on_c, 0, 64, 110
1, 225540, Note_on_c, 0, 81, 0
1, 225542, Note_on_c, 0, 64, 0
1, 225543, Note_on_c, 0, 69, 0
1, 225544, Note_on_c, 0, 86, 0
1, 225545, Note_on_c, 0, 74, 0
1, 225547, Note_on_c, 0, 52, 0
1, 225552, Note_on_c, 0, 88, 111
1, 225553, Note_on_c, 0, 76, 111
1, 225554, Note_on_c, 0, 79, 111
1, 225556, Note_on_c, 0, 67, 110
1, 225557, Note_on_c, 0, 50, 110
1, 225557, Note_on_c, 0, 62, 110
1, 225672, Note_on_c, 0, 50, 0
1, 225674, Note_on_c, 0, 62, 0
1, 225683, Note_on_c, 0, 50, 110
1, 225685, Note_on_c, 0, 62, 110
1, 225739, Note_on_c, 0, 50, 0
1, 225741, Note_on_c, 0, 62, 0
1, 225751, Note_on_c, 0, 49, 110
1, 225752, Note_on_c, 0, 61, 110
1, 225789, Note_on_c, 0, 76, 0
1, 225807, Note_on_c, 0, 79, 0
1, 225808, Note_on_c, 0, 67, 0
1, 225809, Note_on_c, 0, 61, 0
1, 225812, Note_on_c, 0, 49, 0
1, 225813, Note_on_c, 0, 88, 0
1, 225818, Note_on_c, 0, 76, 111
1, 225820, Note_on_c, 0, 77, 111
1, 225820, Note_on_c, 0, 88, 111
1, 225821, Note_on_c, 0, 65, 110
1, 225822, Note_on_c, 0, 50, 110
1, 225823, Note_on_c, 0, 62, 110
1, 225933, Note_on_c, 0, 50, 0
1, 225934, Note_on_c, 0, 62, 0
1, 225945, Note_on_c, 0, 50, 110
1, 225946, Note_on_c, 0, 62, 110
1, 226000, Note_on_c, 0, 62, 0
1, 226003, Note_on_c, 0, 50, 0
1, 226009, Note_on_c, 0, 48, 115
1, 226010, Note_on_c, 0, 60, 110
1, 226057, Note_on_c, 0, 77, 0
1, 226058, Note_on_c, 0, 65, 0
1, 226062, Note_on_c, 0, 88, 0
1, 226064, Note_on_c, 0, 76, 0
1, 226066, Note_on_c, 0, 60, 0
1, 226069, Note_on_c, 0, 48, 0
1, 226076, Note_on_c, 0, 74, 111
1, 226078, Note_on_c, 0, 86, 111
1, 226079, Note_on_c, 0, 79, 111
1, 226079, Note_on_c, 0, 67, 110
1, 226080, Note_on_c, 0, 58, 110
1, 226080, Note_on_c, 0, 46, 115
1, 226193, Note_on_c, 0, 58, 0
1, 226195, Note_on_c, 0, 46, 0
1, 226196, Note_on_c, 0, 79, 0
1, 226198, Note_on_c, 0, 67, 0
1, 226207, Note_on_c, 0, 77, 111
1, 226208, Note_on_c, 0, 65, 110
1, 226208, Note_on_c, 0, 58, 110
1, 226209, Note_on_c, 0, 46, 115
1, 226264, Note_on_c, 0, 46, 0
1, 226265, Note_on_c, 0, 58, 0
1, 226273, Note_on_c, 0, 57, 110
1, 226274, Note_on_c, 0, 45, 115
1, 226324, Note_on_c, 0, 57, 0
1, 226325, Note_on_c, 0, 45, 0
1, 226327, Note_on_c, 0, 77, 0
1, 226332, Note_on_c, 0, 65, 0
1, 226336, Note_on_c, 0, 64, 110
1, 226337, Note_on_c, 0, 76, 111
1, 226337, Note_on_c, 0, 43, 115
1, 226338, Note_on_c, 0, 55, 110
1, 226452, Note_on_c, 0, 43, 0
1, 226454, Note_on_c, 0, 55, 0
1, 226458, Note_on_c, 0, 76, 0
1, 226461, Note_on_c, 0, 64, 0
1, 226467, Note_on_c, 0, 62, 110
1, 226468, Note_on_c, 0, 55, 110
1, 226469, Note_on_c, 0, 74, 111
1, 226469, Note_on_c, 0, 43, 115
1, 226505, Note_on_c, 0, 74, 0
1, 226516, Note_on_c, 0, 43, 0
1, 226518, Note_on_c, 0, 55, 0
1, 226528, Note_on_c, 0, 53, 110
1, 226529, Note_on_c, 0, 41, 115
1, 226579, Note_on_c, 0, 86, 0
1, 226584, Note_on_c, 0, 53, 0
1, 226584, Note_on_c, 0, 62, 0
1, 226585, Note_on_c, 0, 41, 0
1, 226595, Note_on_c, 0, 74, 111
1, 226596, Note_on_c, 0, 77, 111
1, 226596, Note_on_c, 0, 89, 111
1, 226596, Note_on_c, 0, 86, 111
1, 226597, Note_on_c, 0, 68, 111
1, 226598, Note_on_c, 0, 80, 111
1, 226599, Note_on_c, 0, 71, 111
1, 226599, Note_on_c, 0, 40, 115
1, 226600, Note_on_c, 0, 74, 0
1, 226601, Note_on_c, 0, 83, 111
1, 226602, Note_on_c, 0, 52, 110
1, 226716, Note_on_c, 0, 52, 0
1, 226720, Note_on_c, 0, 40, 0
1, 226728, Note_on_c, 0, 52, 110
1, 226729, Note_on_c, 0, 64, 110
1, 226781, Note_on_c, 0, 64, 0
1, 226785, Note_on_c, 0, 52, 0
1, 226790, Note_on_c, 0, 50, 110
1, 226791, Note_on_c, 0, 62, 110
1, 226843, Note_on_c, 0, 77, 0
1, 226845, Note_on_c, 0, 71, 0
1, 226847, Note_on_c, 0, 86, 0
1, 226848, Note_on_c, 0, 62, 0
1, 226851, Note_on_c, 0, 50, 0
1, 226852, Note_on_c, 0, 83, 0
1, 226853, Note_on_c, 0, 89, 0
1, 226854, Note_on_c, 0, 68, 0
1, 226854, Note_on_c, 0, 84, 111
1, 226856, Note_on_c, 0, 72, 111
1, 226857, Note_on_c, 0, 80, 0
1, 226857, Note_on_c, 0, 88, 111
1, 226858, Note_on_c, 0, 76, 111
1, 226859, Note_on_c, 0, 76, 111
1, 226859, Note_on_c, 0, 64, 110
1, 226860, Note_on_c, 0, 69, 111
1, 226860, Note_on_c, 0, 81, 111
1, 226861, Note_on_c, 0, 60, 110
1, 226861, Note_on_c, 0, 48, 115
1, 226901, Note_on_c, 0, 74, 0
1, 226931, Note_on_c, 0, 76, 0
1, 226966, Note_on_c, 0, 60, 0
1, 226971, Note_on_c, 0, 48, 0
1, 226980, Note_on_c, 0, 48, 115
1, 226982, Note_on_c, 0, 60, 110
1, 227028, Note_on_c, 0, 60, 0
1, 227033, Note_on_c, 0, 48, 0
1, 227044, Note_on_c, 0, 59, 110
1, 227045, Note_on_c, 0, 47, 115
1, 227097, Note_on_c, 0, 72, 0
1, 227098, Note_on_c, 0, 47, 0
1, 227099, Note_on_c, 0, 59, 0
1, 227100, Note_on_c, 0, 81, 0
1, 227100, Note_on_c, 0, 88, 0
1, 227100, Note_on_c, 0, 84, 0
1, 227101, Note_on_c, 0, 69, 0
1, 227102, Note_on_c, 0, 64, 0
1, 227108, Note_on_c, 0, 71, 111
1, 227109, Note_on_c, 0, 83, 111
1, 227110, Note_on_c, 0, 74, 111
1, 227111, Note_on_c, 0, 77, 111
1, 227112, Note_on_c, 0, 86, 111
1, 227113, Note_on_c, 0, 65, 110
1, 227113, Note_on_c, 0, 57, 110
1, 227114, Note_on_c, 0, 45, 115
1, 227222, Note_on_c, 0, 57, 0
1, 227225, Note_on_c, 0, 45, 0
1, 227240, Note_on_c, 0, 57, 112
1, 227241, Note_on_c, 0, 45, 115
1, 227241, Note_on_c, 0, 33, 115
1, 227268, Note_on_c, 0, 76, 0
1, 227293, Note_on_c, 0, 45, 0
1, 227296, Note_on_c, 0, 33, 0
1, 227298, Note_on_c, 0, 57, 0
1, 227303, Note_on_c, 0, 32, 115
1, 227305, Note_on_c, 0, 56, 112
1, 227305, Note_on_c, 0, 44, 115
1, 227356, Note_on_c, 0, 74, 0
1, 227357, Note_on_c, 0, 77, 0
1, 227360, Note_on_c, 0, 56, 0
1, 227361, Note_on_c, 0, 86, 0
1, 227361, Note_on_c, 0, 65, 0
1, 227362, Note_on_c, 0, 44, 0
1, 227364, Note_on_c, 0, 71, 0
1, 227364, Note_on_c, 0, 83, 0
1, 227366, Note_on_c, 0, 32, 0
1, 227367, Note_on_c, 0, 69, 111
1, 227368, Note_on_c, 0, 33, 115
1, 227369, Note_on_c, 0, 81, 111
1, 227371, Note_on_c, 0, 73, 111
1, 227372, Note_on_c, 0, 85, 111
1, 227373, Note_on_c, 0, 64, 112
1, 227374, Note_on_c, 0, 76, 111
1, 227374, Note_on_c, 0, 45, 115
1, 227375, Note_on_c, 0, 57, 112
1, 227434, Note_on_c, 0, 76, 0
1, 227435, Note_on_c, 0, 69, 111
1, 227435, Note_on_c, 0, 81, 111
1, 227436, Note_on_c, 0, 64, 0
1, 227439, Note_on_c, 0, 85, 0
1, 227442, Note_on_c, 0, 73, 0
1, 227444, Note_on_c, 0, 69, 0
1, 227446, Note_on_c, 0, 81, 0
1, 227500, Note_on_c, 0, 83, 111
1, 227500, Note_on_c, 0, 71, 111
1, 227502, Note_on_c, 0, 69, 0
1, 227503, Note_on_c, 0, 81, 0
1, 227558, Note_on_c, 0, 83, 0
1, 227559, Note_on_c, 0, 73, 111
1, 227559, Note_on_c, 0, 85, 111
1, 227561, Note_on_c, 0, 71, 0
1, 227609, Note_on_c, 0, 57, 0
1, 227611, Note_on_c, 0, 45, 0
1, 227615, Note_on_c, 0, 33, 0
1, 227619, Note_on_c, 0, 74, 111
1, 227620, Note_on_c, 0, 85, 0
1, 227621, Note_on_c, 0, 86, 111
1, 227621, Note_on_c, 0, 34, 115
1, 227622, Note_on_c, 0, 58, 112
1, 227623, Note_on_c, 0, 46, 115
1, 227625, Note_on_c, 0, 73, 0
1, 227681, Note_on_c, 0, 72, 111
1, 227682, Note_on_c, 0, 84, 111
1, 227684, Note_on_c, 0, 86, 0
1, 227685, Note_on_c, 0, 74, 0
1, 227744, Note_on_c, 0, 84, 0
1, 227748, Note_on_c, 0, 70, 111
1, 227749, Note_on_c, 0, 82, 111
1, 227751, Note_on_c, 0, 72, 0
1, 227809, Note_on_c, 0, 82, 0
1, 227809, Note_on_c, 0, 69, 111
1, 227810, Note_on_c, 0, 81, 111
1, 227814, Note_on_c, 0, 70, 0
1, 227868, Note_on_c, 0, 46, 0
1, 227868, Note_on_c, 0, 34, 0
1, 227868, Note_on_c, 0, 81, 0
1, 227869, Note_on_c, 0, 58, 0
1, 227877, Note_on_c, 0, 67, 112
1, 227878, Note_on_c, 0, 35, 115
1, 227880, Note_on_c, 0, 69, 0
1, 227880, Note_on_c, 0, 79, 111
1, 227881, Note_on_c, 0, 47, 115
1, 227882, Note_on_c, 0, 59, 112
1, 227943, Note_on_c, 0, 71, 111
1, 227944, Note_on_c, 0, 83, 111
1, 228001, Note_on_c, 0, 83, 0
1, 228003, Note_on_c, 0, 71, 0
1, 228005, Note_on_c, 0, 86, 99
1, 228006, Note_on_c, 0, 74, 111
1, 228062, Note_on_c, 0, 74, 0
1, 228063, Note_on_c, 0, 86, 0
1, 228066, Note_on_c, 0, 77, 111
1, 228067, Note_on_c, 0, 89, 99
1, 228121, Note_on_c, 0, 59, 0
1, 228122, Note_on_c, 0, 77, 0
1, 228122, Note_on_c, 0, 89, 0
1, 228125, Note_on_c, 0, 47, 0
1, 228128, Note_on_c, 0, 79, 0
1, 228129, Note_on_c, 0, 35, 0
1, 228131, Note_on_c, 0, 67, 112
1, 228132, Note_on_c, 0, 67, 0
1, 228132, Note_on_c, 0, 79, 111
1, 228132, Note_on_c, 0, 76, 111
1, 228133, Note_on_c, 0, 88, 99
1, 228134, Note_on_c, 0, 60, 112
1, 228134, Note_on_c, 0, 48, 115
1, 228135, Note_on_c, 0, 36, 115
1, 228186, Note_on_c, 0, 79, 0
1, 228189, Note_on_c, 0, 67, 0
1, 228194, Note_on_c, 0, 84, 109
1, 228195, Note_on_c, 0, 96, 97
1, 228208, Note_on_c, 0, 88, 0
1, 228209, Note_on_c, 0, 76, 0
1, 228258, Note_on_c, 0, 96, 0
1, 228259, Note_on_c, 0, 84, 0
1, 228260, Note_on_c, 0, 83, 109
1, 228263, Note_on_c, 0, 95, 97
1, 228314, Note_on_c, 0, 83, 0
1, 228320, Note_on_c, 0, 95, 0
1, 228323, Note_on_c, 0, 93, 97
1, 228324, Note_on_c, 0, 81, 109
1, 228371, Note_on_c, 0, 36, 0
1, 228372, Note_on_c, 0, 48, 0
1, 228372, Note_on_c, 0, 60, 0
1, 228379, Note_on_c, 0, 81, 0
1, 228382, Note_on_c, 0, 93, 0
1, 228383, Note_on_c, 0, 79, 109
1, 228384, Note_on_c, 0, 36, 115
1, 228385, Note_on_c, 0, 91, 97
1, 228386, Note_on_c, 0, 60, 112
1, 228386, Note_on_c, 0, 48, 115
1, 228447, Note_on_c, 0, 91, 0
1, 228447, Note_on_c, 0, 79, 0
1, 228448, Note_on_c, 0, 77, 109
1, 228449, Note_on_c, 0, 89, 97
1, 228501, Note_on_c, 0, 60, 0
1, 228503, Note_on_c, 0, 89, 0
1, 228507, Note_on_c, 0, 48, 0
1, 228508, Note_on_c, 0, 36, 0
1, 228508, Note_on_c, 0, 77, 0
1, 228513, Note_on_c, 0, 76, 109
1, 228514, Note_on_c, 0, 88, 97
1, 228515, Note_on_c, 0, 47, 115
1, 228516, Note_on_c, 0, 59, 112
1, 228516, Note_on_c, 0, 35, 115
1, 228571, Note_on_c, 0, 76, 0
1, 228573, Note_on_c, 0, 88, 0
1, 228576, Note_on_c, 0, 86, 97
1, 228578, Note_on_c, 0, 74, 109
1, 228628, Note_on_c, 0, 47, 0
1, 228630, Note_on_c, 0, 59, 0
1, 228631, Note_on_c, 0, 35, 0
1, 228637, Note_on_c, 0, 74, 0
1, 228642, Note_on_c, 0, 86, 0
1, 228642, Note_on_c, 0, 84, 109
1, 228643, Note_on_c, 0, 72, 109
1, 228643, Note_on_c, 0, 36, 115
1, 228644, Note_on_c, 0, 60, 112
1, 228645, Note_on_c, 0, 48, 115
1, 228699, Note_on_c, 0, 84, 0
1, 228700, Note_on_c, 0, 72, 0
1, 228706, Note_on_c, 0, 71, 109
1, 228707, Note_on_c, 0, 83, 109
1, 228766, Note_on_c, 0, 83, 0
1, 228768, Note_on_c, 0, 71, 0
1, 228768, Note_on_c, 0, 81, 109
1, 228769, Note_on_c, 0, 69, 109
1, 228828, Note_on_c, 0, 69, 0
1, 228828, Note_on_c, 0, 81, 0
1, 228835, Note_on_c, 0, 79, 109
1, 228837, Note_on_c, 0, 67, 112
1, 228882, Note_on_c, 0, 60, 0
1, 228885, Note_on_c, 0, 36, 0
1, 228886, Note_on_c, 0, 48, 0
1, 228899, Note_on_c, 0, 72, 109
1, 228900, Note_on_c, 0, 40, 115
1, 228901, Note_on_c, 0, 84, 109
1, 228902, Note_on_c, 0, 52, 112
1, 228902, Note_on_c, 0, 28, 115
1, 228906, Note_on_c, 0, 67, 0
1, 228906, Note_on_c, 0, 79, 0
1, 228961, Note_on_c, 0, 67, 112
1, 228963, Note_on_c, 0, 79, 109
1, 229015, Note_on_c, 0, 79, 0
1, 229020, Note_on_c, 0, 67, 0
1, 229026, Note_on_c, 0, 81, 109
1, 229026, Note_on_c, 0, 69, 109
1, 229074, Note_on_c, 0, 69, 0
1, 229081, Note_on_c, 0, 81, 0
1, 229092, Note_on_c, 0, 82, 109
1, 229093, Note_on_c, 0, 70, 109
1, 229135, Note_on_c, 0, 52, 0
1, 229140, Note_on_c, 0, 28, 0
1, 229143, Note_on_c, 0, 40, 0
1, 229148, Note_on_c, 0, 70, 0
1, 229153, Note_on_c, 0, 82, 0
1, 229154, Note_on_c, 0, 69, 109
1, 229155, Note_on_c, 0, 29, 115
1, 229156, Note_on_c, 0, 81, 109
1, 229157, Note_on_c, 0, 53, 112
1, 229158, Note_on_c, 0, 41, 115
1, 229214, Note_on_c, 0, 81, 0
1, 229215, Note_on_c, 0, 67, 112
1, 229217, Note_on_c, 0, 79, 109
1, 229221, Note_on_c, 0, 69, 0
1, 229268, Note_on_c, 0, 79, 0
1, 229268, Note_on_c, 0, 67, 0
1, 229278, Note_on_c, 0, 77, 109
1, 229279, Note_on_c, 0, 65, 112
1, 229345, Note_on_c, 0, 75, 109
1, 229346, Note_on_c, 0, 63, 112
1, 229348, Note_on_c, 0, 65, 0
1, 229349, Note_on_c, 0, 77, 0
1, 229394, Note_on_c, 0, 41, 0
1, 229395, Note_on_c, 0, 53, 0
1, 229396, Note_on_c, 0, 72, 0
1, 229398, Note_on_c, 0, 84, 0
1, 229399, Note_on_c, 0, 29, 0
1, 229412, Note_on_c, 0, 62, 112
1, 229413, Note_on_c, 0, 74, 109
1, 229414, Note_on_c, 0, 30, 115
1, 229415, Note_on_c, 0, 54, 112
1, 229415, Note_on_c, 0, 42, 115
1, 229416, Note_on_c, 0, 75, 0
1, 229419, Note_on_c, 0, 63, 0
1, 229480, Note_on_c, 0, 78, 109
1, 229481, Note_on_c, 0, 66, 112
1, 229538, Note_on_c, 0, 78, 0
1, 229539, Note_on_c, 0, 66, 0
1, 229543, Note_on_c, 0, 81, 109
1, 229545, Note_on_c, 0, 69, 109
1, 229608, Note_on_c, 0, 69, 0
1, 229609, Note_on_c, 0, 81, 0
1, 229609, Note_on_c, 0, 72, 109
1, 229610, Note_on_c, 0, 84, 109
1, 229660, Note_on_c, 0, 30, 0
1, 229661, Note_on_c, 0, 42, 0
1, 229662, Note_on_c, 0, 54, 0
1, 229664, Note_on_c, 0, 62, 0
1, 229666, Note_on_c, 0, 74, 0
1, 229672, Note_on_c, 0, 70, 109
1, 229673, Note_on_c, 0, 82, 109
1, 229673, Note_on_c, 0, 55, 112
1, 229674, Note_on_c, 0, 43, 115
1, 229675, Note_on_c, 0, 31, 115
1, 229681, Note_on_c, 0, 72, 0
1, 229682, Note_on_c, 0, 84, 0
1, 229733, Note_on_c, 0, 79, 109
1, 229735, Note_on_c, 0, 67, 112
1, 229799, Note_on_c, 0, 67, 0
1, 229800, Note_on_c, 0, 70, 0
1, 229800, Note_on_c, 0, 82, 0
1, 229801, Note_on_c, 0, 79, 0
1, 229802, Note_on_c, 0, 77, 109
1, 229803, Note_on_c, 0, 65, 112
1, 229862, Note_on_c, 0, 77, 0
1, 229863, Note_on_c, 0, 65, 0
1, 229867, Note_on_c, 0, 63, 112
1, 229869, Note_on_c, 0, 75, 109
1, 229920, Note_on_c, 0, 43, 0
1, 229920, Note_on_c, 0, 31, 0
1, 229924, Note_on_c, 0, 55, 0
1, 229925, Note_on_c, 0, 75, 0
1, 229929, Note_on_c, 0, 63, 0
1, 229932, Note_on_c, 0, 74, 109
1, 229934, Note_on_c, 0, 62, 112
1, 229934, Note_on_c, 0, 31, 115
1, 229935, Note_on_c, 0, 55, 112
1, 229935, Note_on_c, 0, 43, 115
1, 229992, Note_on_c, 0, 62, 0
1, 229993, Note_on_c, 0, 74, 0
1, 229998, Note_on_c, 0, 72, 109
1, 229999, Note_on_c, 0, 60, 112
1, 230051, Note_on_c, 0, 31, 0
1, 230052, Note_on_c, 0, 43, 0
1, 230054, Note_on_c, 0, 55, 0
1, 230063, Note_on_c, 0, 60, 0
1, 230065, Note_on_c, 0, 72, 0
1, 230066, Note_on_c, 0, 70, 109
1, 230066, Note_on_c, 0, 58, 112
1, 230067, Note_on_c, 0, 54, 112
1, 230068, Note_on_c, 0, 42, 115
1, 230068, Note_on_c, 0, 30, 115
1, 230121, Note_on_c, 0, 58, 0
1, 230122, Note_on_c, 0, 70, 0
1, 230130, Note_on_c, 0, 57, 112
1, 230131, Note_on_c, 0, 69, 109
1, 230184, Note_on_c, 0, 69, 0
1, 230186, Note_on_c, 0, 57, 0
1, 230187, Note_on_c, 0, 54, 0
1, 230196, Note_on_c, 0, 67, 112
1, 230197, Note_on_c, 0, 55, 112
1, 230198, Note_on_c, 0, 42, 0
1, 230199, Note_on_c, 0, 55, 112
1, 230199, Note_on_c, 0, 31, 115
1, 230200, Note_on_c, 0, 43, 115
1, 230201, Note_on_c, 0, 30, 0
1, 230202, Note_on_c, 0, 55, 0
1, 230248, Note_on_c, 0, 67, 0
1, 230261, Note_on_c, 0, 53, 112
1, 230262, Note_on_c, 0, 65, 112
1, 230313, Note_on_c, 0, 53, 0
1, 230316, Note_on_c, 0, 65, 0
1, 230325, Note_on_c, 0, 51, 112
1, 230326, Note_on_c, 0, 63, 112
1, 230327, Note_on_c, 0, 57, 112
1, 230328, Note_on_c, 0, 45, 115
1, 230328, Note_on_c, 0, 33, 115
1, 230332, Note_on_c, 0, 43, 0
1, 230333, Note_on_c, 0, 31, 0
1, 230365, Note_on_c, 0, 55, 0
1, 230377, Note_on_c, 0, 63, 0
1, 230383, Note_on_c, 0, 51, 0
1, 230386, Note_on_c, 0, 50, 112
1, 230387, Note_on_c, 0, 62, 112
1, 230437, Note_on_c, 0, 62, 0
1, 230443, Note_on_c, 0, 50, 0
1, 230445, Note_on_c, 0, 57, 0
1, 230448, Note_on_c, 0, 45, 0
1, 230450, Note_on_c, 0, 33, 0
1, 230451, Note_on_c, 0, 58, 112
1, 230452, Note_on_c, 0, 74, 105
1, 230453, Note_on_c, 0, 62, 100
1, 230453, Note_on_c, 0, 46, 115
1, 230454, Note_on_c, 0, 34, 115
1, 230466, Note_on_c, 0, 62, 0
1, 230469, Note_on_c, 0, 74, 0
1, 230483, Note_on_c, 0, 61, 100
1, 230485, Note_on_c, 0, 73, 105
1, 230504, Note_on_c, 0, 73, 0
1, 230507, Note_on_c, 0, 61, 0
1, 230519, Note_on_c, 0, 74, 105
1, 230520, Note_on_c, 0, 62, 100
1, 230534, Note_on_c, 0, 62, 0
1, 230537, Note_on_c, 0, 74, 0
1, 230550, Note_on_c, 0, 61, 100
1, 230551, Note_on_c, 0, 73, 105
1, 230561, Note_on_c, 0, 34, 0
1, 230561, Note_on_c, 0, 46, 0
1, 230565, Note_on_c, 0, 61, 0
1, 230566, Note_on_c, 0, 73, 0
1, 230566, Note_on_c, 0, 58, 0
1, 230581, Note_on_c, 0, 57, 112
1, 230582, Note_on_c, 0, 74, 105
1, 230583, Note_on_c, 0, 62, 100
1, 230583, Note_on_c, 0, 45, 115
1, 230584, Note_on_c, 0, 33, 115
1, 230603, Note_on_c, 0, 62, 0
1, 230607, Note_on_c, 0, 74, 0
1, 230617, Note_on_c, 0, 73, 105
1, 230618, Note_on_c, 0, 61, 100
1, 230631, Note_on_c, 0, 61, 0
1, 230631, Note_on_c, 0, 73, 0
1, 230644, Note_on_c, 0, 74, 105
1, 230645, Note_on_c, 0, 62, 100
1, 230659, Note_on_c, 0, 62, 0
1, 230661, Note_on_c, 0, 74, 0
1, 230676, Note_on_c, 0, 73, 105
1, 230677, Note_on_c, 0, 61, 100
1, 230691, Note_on_c, 0, 33, 0
1, 230694, Note_on_c, 0, 45, 0
1, 230696, Note_on_c, 0, 57, 0
1, 230700, Note_on_c, 0, 61, 0
1, 230703, Note_on_c, 0, 73, 0
1, 230713, Note_on_c, 0, 74, 105
1, 230714, Note_on_c, 0, 57, 112
1, 230715, Note_on_c, 0, 62, 100
1, 230715, Note_on_c, 0, 45, 115
1, 230716, Note_on_c, 0, 33, 115
1, 230728, Note_on_c, 0, 62, 0
1, 230730, Note_on_c, 0, 74, 0
1, 230736, Marker_t, "Copyright 1997 (P) S.D.Rodrian -  NOT to be reproduced or sold sans permission !"
1, 230744, Note_on_c, 0, 61, 100
1, 230745, Note_on_c, 0, 73, 105
1, 230763, Note_on_c, 0, 73, 0
1, 230767, Note_on_c, 0, 61, 0
1, 230779, Note_on_c, 0, 74, 105
1, 230781, Note_on_c, 0, 62, 100
1, 230794, Note_on_c, 0, 62, 0
1, 230797, Note_on_c, 0, 74, 0
1, 230810, Note_on_c, 0, 73, 105
1, 230811, Note_on_c, 0, 61, 100
1, 230825, Note_on_c, 0, 73, 0
1, 230826, Note_on_c, 0, 61, 0
1, 230841, Note_on_c, 0, 74, 105
1, 230842, Note_on_c, 0, 55, 112
1, 230844, Note_on_c, 0, 33, 0
1, 230844, Note_on_c, 0, 62, 100
1, 230844, Note_on_c, 0, 43, 115
1, 230845, Note_on_c, 0, 31, 115
1, 230849, Note_on_c, 0, 45, 0
1, 230850, Note_on_c, 0, 57, 0
1, 230864, Note_on_c, 0, 74, 0
1, 230864, Note_on_c, 0, 62, 0
1, 230874, Note_on_c, 0, 73, 105
1, 230876, Note_on_c, 0, 61, 100
1, 230890, Note_on_c, 0, 73, 0
1, 230891, Note_on_c, 0, 61, 0
1, 230907, Note_on_c, 0, 74, 105
1, 230908, Note_on_c, 0, 62, 100
1, 230924, Note_on_c, 0, 62, 0
1, 230926, Note_on_c, 0, 74, 0
1, 230938, Note_on_c, 0, 73, 105
1, 230939, Note_on_c, 0, 61, 100
1, 230945, Note_on_c, 0, 31, 0
1, 230948, Note_on_c, 0, 43, 0
1, 230954, Note_on_c, 0, 55, 0
1, 230961, Note_on_c, 0, 61, 0
1, 230964, Note_on_c, 0, 73, 0
1, 230973, Note_on_c, 0, 55, 112
1, 230975, Note_on_c, 0, 74, 105
1, 230976, Note_on_c, 0, 62, 100
1, 230976, Note_on_c, 0, 31, 115
1, 230976, Note_on_c, 0, 43, 115
1, 230988, Note_on_c, 0, 62, 0
1, 230995, Note_on_c, 0, 74, 0
1, 231005, Note_on_c, 0, 73, 105
1, 231005, Note_on_c, 0, 61, 100
1, 231020, Note_on_c, 0, 73, 0
1, 231021, Note_on_c, 0, 61, 0
1, 231035, Note_on_c, 0, 74, 105
1, 231037, Note_on_c, 0, 62, 100
1, 231055, Note_on_c, 0, 62, 0
1, 231059, Note_on_c, 0, 74, 0
1, 231071, Note_on_c, 0, 73, 105
1, 231071, Note_on_c, 0, 61, 100
1, 231082, Note_on_c, 0, 43, 0
1, 231084, Note_on_c, 0, 73, 0
1, 231085, Note_on_c, 0, 31, 0
1, 231088, Note_on_c, 0, 61, 0
1, 231089, Note_on_c, 0, 55, 0
1, 231101, Note_on_c, 0, 74, 105
1, 231102, Note_on_c, 0, 62, 112
1, 231102, Note_on_c, 0, 53, 112
1, 231104, Note_on_c, 0, 29, 115
1, 231104, Note_on_c, 0, 41, 115
1, 231118, Note_on_c, 0, 74, 0
1, 231120, Note_on_c, 0, 62, 0
1, 231132, Note_on_c, 0, 73, 116
1, 231133, Note_on_c, 0, 61, 112
1, 231157, Note_on_c, 0, 61, 0
1, 231159, Note_on_c, 0, 73, 0
1, 231167, Note_on_c, 0, 59, 112
1, 231168, Note_on_c, 0, 71, 116
1, 231195, Note_on_c, 0, 71, 0
1, 231195, Note_on_c, 0, 59, 0
1, 231200, Note_on_c, 0, 61, 112
1, 231202, Note_on_c, 0, 73, 116
1, 231208, Note_on_c, 0, 29, 0
1, 231211, Note_on_c, 0, 41, 0
1, 231212, Note_on_c, 0, 53, 0
1, 231220, Note_on_c, 0, 73, 0
1, 231225, Note_on_c, 0, 61, 0
1, 231235, Note_on_c, 0, 53, 112
1, 231236, Note_on_c, 0, 74, 116
1, 231237, Note_on_c, 0, 41, 115
1, 231237, Note_on_c, 0, 29, 115
1, 231239, Note_on_c, 0, 62, 112
1, 231358, Note_on_c, 0, 29, 0
1, 231359, Note_on_c, 0, 53, 0
1, 231361, Note_on_c, 0, 52, 112
1, 231361, Note_on_c, 0, 28, 115
1, 231361, Note_on_c, 0, 40, 115
1, 231362, Note_on_c, 0, 81, 109
1, 231364, Note_on_c, 0, 41, 0
1, 231364, Note_on_c, 0, 69, 109
1, 231420, Note_on_c, 0, 69, 0
1, 231421, Note_on_c, 0, 84, 109
1, 231424, Note_on_c, 0, 81, 0
1, 231425, Note_on_c, 0, 72, 109
1, 231474, Note_on_c, 0, 52, 0
1, 231480, Note_on_c, 0, 84, 0
1, 231484, Note_on_c, 0, 40, 0
1, 231486, Note_on_c, 0, 28, 0
1, 231488, Note_on_c, 0, 55, 112
1, 231489, Note_on_c, 0, 70, 109
1, 231491, Note_on_c, 0, 43, 115
1, 231492, Note_on_c, 0, 72, 0
1, 231492, Note_on_c, 0, 82, 109
1, 231493, Note_on_c, 0, 31, 115
1, 231598, Note_on_c, 0, 31, 0
1, 231599, Note_on_c, 0, 82, 0
1, 231613, Note_on_c, 0, 70, 0
1, 231616, Note_on_c, 0, 43, 0
1, 231618, Note_on_c, 0, 55, 0
1, 231619, Note_on_c, 0, 41, 115
1, 231620, Note_on_c, 0, 82, 109
1, 231623, Note_on_c, 0, 53, 112
1, 231623, Note_on_c, 0, 29, 115
1, 231624, Note_on_c, 0, 70, 109
1, 231673, Note_on_c, 0, 82, 0
1, 231674, Note_on_c, 0, 70, 0
1, 231678, Note_on_c, 0, 81, 109
1, 231680, Note_on_c, 0, 69, 109
1, 231709, Note_on_c, 0, 53, 0
1, 231716, Note_on_c, 0, 41, 0
1, 231723, Note_on_c, 0, 29, 0
1, 231737, Note_on_c, 0, 69, 0
1, 231738, Note_on_c, 0, 81, 0
1, 231744, Note_on_c, 0, 79, 109
1, 231744, Note_on_c, 0, 52, 112
1, 231745, Note_on_c, 0, 28, 115
1, 231745, Note_on_c, 0, 40, 115
1, 231747, Note_on_c, 0, 67, 112
1, 231855, Note_on_c, 0, 67, 0
1, 231856, Note_on_c, 0, 62, 0
1, 231861, Note_on_c, 0, 74, 0
1, 231868, Note_on_c, 0, 79, 0
1, 231870, Note_on_c, 0, 40, 0
1, 231871, Note_on_c, 0, 52, 0
1, 231877, Note_on_c, 0, 50, 112
1, 231879, Note_on_c, 0, 38, 115
1, 231880, Note_on_c, 0, 67, 112
1, 231881, Note_on_c, 0, 26, 115
1, 231882, Note_on_c, 0, 79, 109
1, 231883, Note_on_c, 0, 28, 0
1, 231942, Note_on_c, 0, 79, 0
1, 231943, Note_on_c, 0, 77, 109
1, 231944, Note_on_c, 0, 65, 112
1, 231947, Note_on_c, 0, 67, 0
1, 231996, Note_on_c, 0, 38, 0
1, 231999, Note_on_c, 0, 50, 0
1, 232004, Note_on_c, 0, 26, 0
1, 232005, Note_on_c, 0, 65, 0
1, 232007, Note_on_c, 0, 52, 112
1, 232008, Note_on_c, 0, 40, 115
1, 232009, Note_on_c, 0, 77, 0
1, 232009, Note_on_c, 0, 74, 109
1, 232010, Note_on_c, 0, 62, 112
1, 232011, Note_on_c, 0, 79, 109
1, 232011, Note_on_c, 0, 28, 115
1, 232012, Note_on_c, 0, 67, 112
1, 232116, Note_on_c, 0, 67, 0
1, 232129, Note_on_c, 0, 79, 0
1, 232136, Note_on_c, 0, 79, 109
1, 232137, Note_on_c, 0, 67, 112
1, 232198, Note_on_c, 0, 70, 109
1, 232200, Note_on_c, 0, 82, 109
1, 232208, Note_on_c, 0, 79, 0
1, 232213, Note_on_c, 0, 67, 0
1, 232243, Note_on_c, 0, 82, 0
1, 232247, Note_on_c, 0, 70, 0
1, 232248, Note_on_c, 0, 40, 0
1, 232250, Note_on_c, 0, 52, 0
1, 232259, Note_on_c, 0, 73, 109
1, 232261, Note_on_c, 0, 69, 109
1, 232262, Note_on_c, 0, 61, 112
1, 232263, Note_on_c, 0, 81, 109
1, 232271, Note_on_c, 0, 28, 0
1, 232324, Note_on_c, 0, 52, 112
1, 232325, Note_on_c, 0, 40, 115
1, 232368, Note_on_c, 0, 81, 0
1, 232372, Note_on_c, 0, 69, 0
1, 232386, Note_on_c, 0, 40, 0
1, 232389, Note_on_c, 0, 69, 109
1, 232390, Note_on_c, 0, 81, 109
1, 232391, Note_on_c, 0, 52, 0
1, 232392, Note_on_c, 0, 53, 112
1, 232392, Note_on_c, 0, 41, 115
1, 232412, Note_on_c, 0, 62, 0
1, 232416, Note_on_c, 0, 74, 0
1, 232440, Note_on_c, 0, 41, 0
1, 232444, Note_on_c, 0, 53, 0
1, 232451, Note_on_c, 0, 81, 0
1, 232451, Note_on_c, 0, 67, 112
1, 232452, Note_on_c, 0, 79, 109
1, 232452, Note_on_c, 0, 43, 115
1, 232453, Note_on_c, 0, 69, 0
1, 232454, Note_on_c, 0, 55, 112
1, 232507, Note_on_c, 0, 67, 0
1, 232508, Note_on_c, 0, 55, 0
1, 232514, Note_on_c, 0, 43, 0
1, 232517, Note_on_c, 0, 65, 112
1, 232519, Note_on_c, 0, 79, 0
1, 232519, Note_on_c, 0, 77, 109
1, 232520, Note_on_c, 0, 57, 112
1, 232520, Note_on_c, 0, 45, 115
1, 232576, Note_on_c, 0, 57, 0
1, 232579, Note_on_c, 0, 45, 0
1, 232580, Note_on_c, 0, 55, 112
1, 232583, Note_on_c, 0, 43, 115
1, 232626, Note_on_c, 0, 77, 0
1, 232630, Note_on_c, 0, 65, 0
1, 232644, Note_on_c, 0, 43, 0
1, 232645, Note_on_c, 0, 55, 0
1, 232646, Note_on_c, 0, 57, 112
1, 232646, Note_on_c, 0, 65, 112
1, 232647, Note_on_c, 0, 45, 115
1, 232648, Note_on_c, 0, 77, 109
1, 232704, Note_on_c, 0, 64, 112
1, 232707, Note_on_c, 0, 76, 109
1, 232712, Note_on_c, 0, 65, 0
1, 232715, Note_on_c, 0, 77, 0
1, 232772, Note_on_c, 0, 77, 109
1, 232776, Note_on_c, 0, 50, 112
1, 232776, Note_on_c, 0, 65, 112
1, 232777, Note_on_c, 0, 38, 115
1, 232782, Note_on_c, 0, 45, 0
1, 232784, Note_on_c, 0, 76, 0
1, 232787, Note_on_c, 0, 57, 0
1, 232787, Note_on_c, 0, 64, 0
1, 232823, Note_on_c, 0, 50, 0
1, 232832, Note_on_c, 0, 38, 0
1, 232837, Note_on_c, 0, 76, 109
1, 232838, Note_on_c, 0, 62, 112
1, 232840, Note_on_c, 0, 50, 112
1, 232841, Note_on_c, 0, 64, 112
1, 232845, Note_on_c, 0, 61, 0
1, 232846, Note_on_c, 0, 73, 0
1, 232883, Note_on_c, 0, 62, 0
1, 232884, Note_on_c, 0, 64, 0
1, 232898, Note_on_c, 0, 50, 0
1, 232899, Note_on_c, 0, 74, 109
1, 232899, Note_on_c, 0, 52, 112
1, 232900, Note_on_c, 0, 62, 112
1, 232901, Note_on_c, 0, 64, 112
1, 232904, Note_on_c, 0, 76, 0
1, 232964, Note_on_c, 0, 72, 109
1, 232965, Note_on_c, 0, 52, 0
1, 232966, Note_on_c, 0, 53, 112
1, 232966, Note_on_c, 0, 60, 112
1, 232967, Note_on_c, 0, 65, 112
1, 232970, Note_on_c, 0, 64, 0
1, 232973, Note_on_c, 0, 62, 0
1, 232975, Note_on_c, 0, 74, 0
1, 232992, Note_on_c, 0, 77, 0
1, 232995, Note_on_c, 0, 65, 0
1, 233004, Note_on_c, 0, 65, 0
1, 233025, Note_on_c, 0, 53, 0
1, 233025, Note_on_c, 0, 71, 109
1, 233026, Note_on_c, 0, 67, 112
1, 233027, Note_on_c, 0, 59, 112
1, 233028, Note_on_c, 0, 55, 112
1, 233031, Note_on_c, 0, 60, 0
1, 233036, Note_on_c, 0, 72, 0
1, 233085, Note_on_c, 0, 72, 109
1, 233086, Note_on_c, 0, 60, 112
1, 233125, Note_on_c, 0, 67, 0
1, 233144, Note_on_c, 0, 60, 0
1, 233145, Note_on_c, 0, 74, 109
1, 233146, Note_on_c, 0, 55, 0
1, 233147, Note_on_c, 0, 53, 112
1, 233147, Note_on_c, 0, 65, 112
1, 233148, Note_on_c, 0, 62, 112
1, 233150, Note_on_c, 0, 72, 0
1, 233200, Note_on_c, 0, 62, 0
1, 233209, Note_on_c, 0, 76, 109
1, 233209, Note_on_c, 0, 64, 112
1, 233215, Note_on_c, 0, 74, 0
1, 233252, Note_on_c, 0, 65, 0
1, 233270, Note_on_c, 0, 76, 0
1, 233272, Note_on_c, 0, 64, 0
1, 233275, Note_on_c, 0, 77, 109
1, 233276, Note_on_c, 0, 64, 112
1, 233276, Note_on_c, 0, 65, 112
1, 233277, Note_on_c, 0, 52, 112
1, 233278, Note_on_c, 0, 53, 0
1, 233330, Note_on_c, 0, 65, 0
1, 233338, Note_on_c, 0, 69, 109
1, 233340, Note_on_c, 0, 81, 109
1, 233344, Note_on_c, 0, 77, 0
1, 233388, Note_on_c, 0, 64, 0
1, 233392, Note_on_c, 0, 69, 0
1, 233402, Note_on_c, 0, 52, 0
1, 233403, Note_on_c, 0, 79, 109
1, 233403, Note_on_c, 0, 67, 112
1, 233404, Note_on_c, 0, 62, 112
1, 233406, Note_on_c, 0, 50, 112
1, 233410, Note_on_c, 0, 81, 0
1, 233455, Note_on_c, 0, 67, 0
1, 233460, Note_on_c, 0, 79, 0
1, 233464, Note_on_c, 0, 77, 109
1, 233465, Note_on_c, 0, 65, 112
1, 233473, Note_on_c, 0, 59, 0
1, 233474, Note_on_c, 0, 71, 0
1, 233504, Note_on_c, 0, 62, 0
1, 233512, Note_on_c, 0, 65, 0
1, 233522, Note_on_c, 0, 77, 0
1, 233525, Note_on_c, 0, 50, 0
1, 233526, Note_on_c, 0, 76, 109
1, 233527, Note_on_c, 0, 64, 112
1, 233528, Note_on_c, 0, 60, 112
1, 233530, Note_on_c, 0, 48, 115
1, 233589, Note_on_c, 0, 74, 109
1, 233590, Note_on_c, 0, 62, 112
1, 233633, Note_on_c, 0, 60, 0
1, 233639, Note_on_c, 0, 62, 0
1, 233651, Note_on_c, 0, 48, 0
1, 233655, Note_on_c, 0, 72, 109
1, 233659, Note_on_c, 0, 74, 0
1, 233659, Note_on_c, 0, 60, 112
1, 233660, Note_on_c, 0, 50, 112
1, 233660, Note_on_c, 0, 62, 112
1, 233717, Note_on_c, 0, 70, 109
1, 233718, Note_on_c, 0, 58, 112
1, 233719, Note_on_c, 0, 50, 0
1, 233719, Note_on_c, 0, 64, 112
1, 233721, Note_on_c, 0, 52, 112
1, 233722, Note_on_c, 0, 62, 0
1, 233725, Note_on_c, 0, 72, 0
1, 233729, Note_on_c, 0, 60, 0
1, 233744, Note_on_c, 0, 64, 0
1, 233748, Note_on_c, 0, 76, 0
1, 233766, Note_on_c, 0, 64, 0
1, 233782, Note_on_c, 0, 70, 0
1, 233782, Note_on_c, 0, 53, 112
1, 233784, Note_on_c, 0, 52, 0
1, 233784, Note_on_c, 0, 69, 109
1, 233784, Note_on_c, 0, 57, 112
1, 233785, Note_on_c, 0, 65, 112
1, 233792, Note_on_c, 0, 58, 0
1, 233840, Note_on_c, 0, 70, 109
1, 233841, Note_on_c, 0, 58, 112
1, 233880, Note_on_c, 0, 65, 0
1, 233884, Note_on_c, 0, 53, 0
1, 233897, Note_on_c, 0, 58, 0
1, 233906, Note_on_c, 0, 72, 109
1, 233907, Note_on_c, 0, 51, 112
1, 233908, Note_on_c, 0, 63, 112
1, 233908, Note_on_c, 0, 60, 112
1, 233909, Note_on_c, 0, 70, 0
1, 233959, Note_on_c, 0, 60, 0
1, 233966, Note_on_c, 0, 74, 109
1, 233967, Note_on_c, 0, 72, 0
1, 233967, Note_on_c, 0, 62, 112
1, 234008, Note_on_c, 0, 51, 0
1, 234010, Note_on_c, 0, 63, 0
1, 234014, Note_on_c, 0, 62, 0
1, 234024, Note_on_c, 0, 74, 0
1, 234026, Note_on_c, 0, 63, 112
1, 234028, Note_on_c, 0, 75, 109
1, 234029, Note_on_c, 0, 50, 112
1, 234029, Note_on_c, 0, 62, 112
1, 234082, Note_on_c, 0, 63, 0
1, 234086, Note_on_c, 0, 79, 109
1, 234086, Note_on_c, 0, 67, 112
1, 234089, Note_on_c, 0, 75, 0
1, 234124, Note_on_c, 0, 62, 0
1, 234126, Note_on_c, 0, 50, 0
1, 234144, Note_on_c, 0, 79, 0
1, 234146, Note_on_c, 0, 48, 115
1, 234147, Note_on_c, 0, 77, 109
1, 234148, Note_on_c, 0, 67, 0
1, 234149, Note_on_c, 0, 65, 112
1, 234150, Note_on_c, 0, 60, 112
1, 234205, Note_on_c, 0, 65, 0
1, 234211, Note_on_c, 0, 77, 0
1, 234214, Note_on_c, 0, 57, 0
1, 234214, Note_on_c, 0, 75, 109
1, 234215, Note_on_c, 0, 63, 112
1, 234216, Note_on_c, 0, 69, 0
1, 234252, Note_on_c, 0, 60, 0
1, 234266, Note_on_c, 0, 63, 0
1, 234267, Note_on_c, 0, 75, 0
1, 234273, Note_on_c, 0, 46, 115
1, 234274, Note_on_c, 0, 62, 112
1, 234276, Note_on_c, 0, 74, 109
1, 234277, Note_on_c, 0, 48, 0
1, 234278, Note_on_c, 0, 58, 112
1, 234333, Note_on_c, 0, 58, 0
1, 234337, Note_on_c, 0, 46, 0
1, 234338, Note_on_c, 0, 45, 115
1, 234339, Note_on_c, 0, 72, 109
1, 234340, Note_on_c, 0, 60, 112
1, 234340, Note_on_c, 0, 57, 112
1, 234398, Note_on_c, 0, 57, 0
1, 234402, Note_on_c, 0, 60, 0
1, 234405, Note_on_c, 0, 72, 0
1, 234406, Note_on_c, 0, 45, 0
1, 234406, Note_on_c, 0, 43, 115
1, 234407, Note_on_c, 0, 70, 109
1, 234408, Note_on_c, 0, 58, 112
1, 234408, Note_on_c, 0, 55, 112
1, 234459, Note_on_c, 0, 55, 0
1, 234461, Note_on_c, 0, 58, 0
1, 234464, Note_on_c, 0, 70, 0
1, 234467, Note_on_c, 0, 57, 112
1, 234468, Note_on_c, 0, 43, 0
1, 234468, Note_on_c, 0, 41, 115
1, 234469, Note_on_c, 0, 69, 109
1, 234470, Note_on_c, 0, 53, 112
1, 234490, Note_on_c, 0, 74, 0
1, 234493, Note_on_c, 0, 62, 0
1, 234523, Note_on_c, 0, 57, 0
1, 234523, Note_on_c, 0, 53, 0
1, 234525, Note_on_c, 0, 41, 0
1, 234527, Note_on_c, 0, 40, 115
1, 234528, Note_on_c, 0, 69, 0
1, 234528, Note_on_c, 0, 52, 112
1, 234528, Note_on_c, 0, 67, 112
1, 234529, Note_on_c, 0, 55, 112
1, 234575, Note_on_c, 0, 52, 0
1, 234586, Note_on_c, 0, 40, 0
1, 234589, Note_on_c, 0, 42, 115
1, 234590, Note_on_c, 0, 74, 109
1, 234593, Note_on_c, 0, 54, 112
1, 234593, Note_on_c, 0, 62, 112
1, 234631, Note_on_c, 0, 55, 0
1, 234636, Note_on_c, 0, 54, 0
1, 234648, Note_on_c, 0, 62, 0
1, 234651, Note_on_c, 0, 42, 0
1, 234652, Note_on_c, 0, 74, 0
1, 234653, Note_on_c, 0, 67, 0
1, 234654, Note_on_c, 0, 76, 109
1, 234655, Note_on_c, 0, 55, 112
1, 234656, Note_on_c, 0, 64, 112
1, 234657, Note_on_c, 0, 43, 115
1, 234699, Note_on_c, 0, 55, 0
1, 234715, Note_on_c, 0, 64, 0
1, 234716, Note_on_c, 0, 43, 0
1, 234719, Note_on_c, 0, 45, 115
1, 234720, Note_on_c, 0, 76, 0
1, 234720, Note_on_c, 0, 66, 112
1, 234721, Note_on_c, 0, 78, 109
1, 234722, Note_on_c, 0, 57, 112
1, 234766, Note_on_c, 0, 57, 0
1, 234776, Note_on_c, 0, 78, 0
1, 234781, Note_on_c, 0, 66, 0
1, 234782, Note_on_c, 0, 46, 115
1, 234783, Note_on_c, 0, 79, 109
1, 234785, Note_on_c, 0, 45, 0
1, 234785, Note_on_c, 0, 58, 112
1, 234786, Note_on_c, 0, 67, 112
1, 234841, Note_on_c, 0, 58, 0
1, 234849, Note_on_c, 0, 62, 112
1, 234850, Note_on_c, 0, 70, 109
1, 234851, Note_on_c, 0, 82, 109
1, 234852, Note_on_c, 0, 50, 112
1, 234855, Note_on_c, 0, 67, 0
1, 234859, Note_on_c, 0, 79, 0
1, 234862, Note_on_c, 0, 46, 0
1, 234905, Note_on_c, 0, 82, 0
1, 234908, Note_on_c, 0, 50, 0
1, 234909, Note_on_c, 0, 70, 0
1, 234912, Note_on_c, 0, 62, 0
1, 234913, Note_on_c, 0, 81, 109
1, 234914, Note_on_c, 0, 69, 109
1, 234914, Note_on_c, 0, 60, 112
1, 234915, Note_on_c, 0, 48, 115
1, 234969, Note_on_c, 0, 60, 0
1, 234974, Note_on_c, 0, 79, 109
1, 234975, Note_on_c, 0, 67, 112
1, 234976, Note_on_c, 0, 58, 112
1, 234976, Note_on_c, 0, 46, 115
1, 234977, Note_on_c, 0, 69, 0
1, 234979, Note_on_c, 0, 48, 0
1, 234983, Note_on_c, 0, 81, 0
1, 235024, Note_on_c, 0, 58, 0
1, 235032, Note_on_c, 0, 78, 109
1, 235033, Note_on_c, 0, 66, 112
1, 235033, Note_on_c, 0, 45, 115
1, 235034, Note_on_c, 0, 57, 112
1, 235038, Note_on_c, 0, 46, 0
1, 235044, Note_on_c, 0, 79, 0
1, 235044, Note_on_c, 0, 67, 0
1, 235087, Note_on_c, 0, 57, 0
1, 235092, Note_on_c, 0, 66, 0
1, 235096, Note_on_c, 0, 43, 115
1, 235097, Note_on_c, 0, 55, 112
1, 235098, Note_on_c, 0, 79, 109
1, 235098, Note_on_c, 0, 67, 112
1, 235102, Note_on_c, 0, 78, 0
1, 235104, Note_on_c, 0, 45, 0
1, 235160, Note_on_c, 0, 81, 109
1, 235162, Note_on_c, 0, 43, 0
1, 235163, Note_on_c, 0, 69, 109
1, 235163, Note_on_c, 0, 54, 112
1, 235164, Note_on_c, 0, 67, 0
1, 235164, Note_on_c, 0, 79, 0
1, 235164, Note_on_c, 0, 42, 115
1, 235168, Note_on_c, 0, 55, 0
1, 235219, Note_on_c, 0, 54, 0
1, 235221, Note_on_c, 0, 42, 0
1, 235221, Note_on_c, 0, 69, 0
1, 235222, Note_on_c, 0, 82, 109
1, 235223, Note_on_c, 0, 40, 115
1, 235224, Note_on_c, 0, 81, 0
1, 235224, Note_on_c, 0, 70, 109
1, 235224, Note_on_c, 0, 52, 112
1, 235283, Note_on_c, 0, 52, 0
1, 235284, Note_on_c, 0, 38, 115
1, 235285, Note_on_c, 0, 70, 0
1, 235285, Note_on_c, 0, 84, 109
1, 235286, Note_on_c, 0, 72, 109
1, 235286, Note_on_c, 0, 50, 112
1, 235289, Note_on_c, 0, 82, 0
1, 235290, Note_on_c, 0, 40, 0
1, 235342, Note_on_c, 0, 50, 0
1, 235350, Note_on_c, 0, 70, 109
1, 235351, Note_on_c, 0, 40, 115
1, 235352, Note_on_c, 0, 82, 109
1, 235353, Note_on_c, 0, 52, 112
1, 235358, Note_on_c, 0, 72, 0
1, 235361, Note_on_c, 0, 84, 0
1, 235363, Note_on_c, 0, 38, 0
1, 235411, Note_on_c, 0, 52, 0
1, 235414, Note_on_c, 0, 82, 0
1, 235415, Note_on_c, 0, 70, 0
1, 235417, Note_on_c, 0, 40, 0
1, 235418, Note_on_c, 0, 69, 109
1, 235418, Note_on_c, 0, 81, 109
1, 235420, Note_on_c, 0, 53, 112
1, 235421, Note_on_c, 0, 41, 115
1, 235481, Note_on_c, 0, 53, 0
1, 235482, Note_on_c, 0, 69, 0
1, 235483, Note_on_c, 0, 41, 0
1, 235484, Note_on_c, 0, 82, 109
1, 235485, Note_on_c, 0, 70, 109
1, 235485, Note_on_c, 0, 55, 112
1, 235486, Note_on_c, 0, 81, 0
1, 235486, Note_on_c, 0, 43, 115
1, 235547, Note_on_c, 0, 55, 0
1, 235548, Note_on_c, 0, 72, 109
1, 235548, Note_on_c, 0, 45, 115
1, 235550, Note_on_c, 0, 70, 0
1, 235550, Note_on_c, 0, 84, 109
1, 235551, Note_on_c, 0, 43, 0
1, 235552, Note_on_c, 0, 57, 112
1, 235553, Note_on_c, 0, 82, 0
1, 235614, Note_on_c, 0, 48, 115
1, 235615, Note_on_c, 0, 57, 0
1, 235616, Note_on_c, 0, 87, 109
1, 235616, Note_on_c, 0, 75, 109
1, 235617, Note_on_c, 0, 60, 112
1, 235619, Note_on_c, 0, 84, 0
1, 235620, Note_on_c, 0, 45, 0
1, 235621, Note_on_c, 0, 72, 0
1, 235671, Note_on_c, 0, 75, 0
1, 235674, Note_on_c, 0, 87, 0
1, 235677, Note_on_c, 0, 48, 0
1, 235678, Note_on_c, 0, 46, 115
1, 235679, Note_on_c, 0, 74, 109
1, 235680, Note_on_c, 0, 86, 109
1, 235680, Note_on_c, 0, 58, 112
1, 235684, Note_on_c, 0, 60, 0
1, 235733, Note_on_c, 0, 58, 0
1, 235734, Note_on_c, 0, 72, 109
1, 235735, Note_on_c, 0, 86, 0
1, 235737, Note_on_c, 0, 84, 109
1, 235738, Note_on_c, 0, 57, 112
1, 235738, Note_on_c, 0, 45, 115
1, 235739, Note_on_c, 0, 74, 0
1, 235742, Note_on_c, 0, 46, 0
1, 235800, Note_on_c, 0, 82, 109
1, 235800, Note_on_c, 0, 70, 109
1, 235801, Note_on_c, 0, 43, 115
1, 235802, Note_on_c, 0, 45, 0
1, 235802, Note_on_c, 0, 55, 112
1, 235803, Note_on_c, 0, 57, 0
1, 235804, Note_on_c, 0, 84, 0
1, 235810, Note_on_c, 0, 72, 0
1, 235868, Note_on_c, 0, 69, 109
1, 235869, Note_on_c, 0, 81, 109
1, 235909, Note_on_c, 0, 55, 0
1, 235934, Note_on_c, 0, 79, 109
1, 235934, Note_on_c, 0, 67, 112
1, 235935, Note_on_c, 0, 43, 0
1, 235935, Note_on_c, 0, 45, 115
1, 235936, Note_on_c, 0, 57, 112
1, 235939, Note_on_c, 0, 81, 0
1, 235943, Note_on_c, 0, 69, 0
1, 235986, Note_on_c, 0, 57, 0
1, 235991, Note_on_c, 0, 45, 0
1, 235998, Note_on_c, 0, 77, 109
1, 235999, Note_on_c, 0, 65, 112
1, 236000, Note_on_c, 0, 58, 112
1, 236000, Note_on_c, 0, 46, 115
1, 236001, Note_on_c, 0, 67, 0
1, 236003, Note_on_c, 0, 79, 0
1, 236027, Note_on_c, 0, 70, 0
1, 236030, Note_on_c, 0, 82, 0
1, 236060, Note_on_c, 0, 64, 112
1, 236062, Note_on_c, 0, 46, 0
1, 236063, Note_on_c, 0, 76, 109
1, 236064, Marker_t, "This file may be freely distributed on the WWW, as long as it's not modified. SDR"
1, 236064, Note_on_c, 0, 58, 0
1, 236064, Note_on_c, 0, 60, 112
1, 236064, Note_on_c, 0, 48, 115
1, 236066, Note_on_c, 0, 65, 0
1, 236068, Note_on_c, 0, 77, 0
1, 236120, Note_on_c, 0, 77, 109
1, 236123, Note_on_c, 0, 65, 112
1, 236179, Note_on_c, 0, 65, 0
1, 236181, Note_on_c, 0, 48, 0
1, 236183, Note_on_c, 0, 67, 112
1, 236185, Note_on_c, 0, 46, 115
1, 236187, Note_on_c, 0, 79, 109
1, 236188, Note_on_c, 0, 60, 0
1, 236188, Note_on_c, 0, 58, 112
1, 236194, Note_on_c, 0, 77, 0
1, 236244, Note_on_c, 0, 67, 0
1, 236248, Note_on_c, 0, 69, 109
1, 236249, Note_on_c, 0, 81, 109
1, 236257, Note_on_c, 0, 79, 0
1, 236303, Note_on_c, 0, 58, 0
1, 236308, Note_on_c, 0, 46, 0
1, 236313, Note_on_c, 0, 81, 0
1, 236316, Note_on_c, 0, 69, 0
1, 236316, Note_on_c, 0, 70, 109
1, 236316, Note_on_c, 0, 82, 109
1, 236317, Note_on_c, 0, 57, 112
1, 236318, Note_on_c, 0, 45, 115
1, 236379, Note_on_c, 0, 74, 109
1, 236380, Note_on_c, 0, 86, 109
1, 236387, Note_on_c, 0, 70, 0
1, 236388, Note_on_c, 0, 82, 0
1, 236425, Note_on_c, 0, 45, 0
1, 236427, Note_on_c, 0, 57, 0
1, 236439, Note_on_c, 0, 72, 109
1, 236440, Note_on_c, 0, 84, 109
1, 236441, Note_on_c, 0, 43, 115
1, 236443, Note_on_c, 0, 86, 0
1, 236444, Note_on_c, 0, 55, 112
1, 236446, Note_on_c, 0, 74, 0
1, 236506, Note_on_c, 0, 84, 0
1, 236506, Note_on_c, 0, 82, 109
1, 236507, Note_on_c, 0, 70, 109
1, 236508, Note_on_c, 0, 72, 0
1, 236513, Note_on_c, 0, 64, 0
1, 236514, Note_on_c, 0, 76, 0
1, 236558, Note_on_c, 0, 43, 0
1, 236563, Note_on_c, 0, 82, 0
1, 236564, Note_on_c, 0, 70, 0
1, 236567, Note_on_c, 0, 69, 109
1, 236568, Note_on_c, 0, 81, 109
1, 236569, Note_on_c, 0, 53, 112
1, 236570, Note_on_c, 0, 41, 115
1, 236580, Note_on_c, 0, 55, 0
1, 236631, Note_on_c, 0, 52, 112
1, 236632, Note_on_c, 0, 79, 109
1, 236633, Note_on_c, 0, 64, 112
1, 236633, Note_on_c, 0, 67, 112
1, 236636, Note_on_c, 0, 41, 0
1, 236640, Note_on_c, 0, 53, 0
1, 236692, Note_on_c, 0, 67, 0
1, 236695, Note_on_c, 0, 79, 0
1, 236698, Note_on_c, 0, 50, 112
1, 236699, Note_on_c, 0, 77, 109
1, 236699, Note_on_c, 0, 65, 112
1, 236700, Note_on_c, 0, 62, 112
1, 236701, Note_on_c, 0, 52, 0
1, 236703, Note_on_c, 0, 64, 0
1, 236749, Note_on_c, 0, 77, 0
1, 236752, Note_on_c, 0, 50, 0
1, 236757, Note_on_c, 0, 76, 109
1, 236758, Note_on_c, 0, 61, 112
1, 236759, Note_on_c, 0, 49, 112
1, 236760, Note_on_c, 0, 64, 112
1, 236761, Note_on_c, 0, 65, 0
1, 236768, Note_on_c, 0, 62, 0
1, 236780, Note_on_c, 0, 81, 0
1, 236783, Note_on_c, 0, 69, 0
1, 236817, Note_on_c, 0, 76, 0
1, 236820, Note_on_c, 0, 74, 109
1, 236820, Note_on_c, 0, 62, 112
1, 236821, Note_on_c, 0, 59, 112
1, 236821, Note_on_c, 0, 47, 115
1, 236823, Note_on_c, 0, 49, 0
1, 236825, Note_on_c, 0, 61, 0
1, 236826, Note_on_c, 0, 64, 0
1, 236873, Note_on_c, 0, 59, 0
1, 236879, Note_on_c, 0, 81, 109
1, 236881, Note_on_c, 0, 69, 109
1, 236882, Note_on_c, 0, 61, 112
1, 236884, Note_on_c, 0, 49, 112
1, 236885, Note_on_c, 0, 47, 0
1, 236921, Note_on_c, 0, 62, 0
1, 236930, Note_on_c, 0, 61, 0
1, 236941, Note_on_c, 0, 74, 0
1, 236945, Note_on_c, 0, 81, 0
1, 236946, Note_on_c, 0, 83, 109
1, 236946, Note_on_c, 0, 71, 109
1, 236947, Note_on_c, 0, 62, 112
1, 236947, Note_on_c, 0, 50, 112
1, 236953, Note_on_c, 0, 49, 0
1, 236956, Note_on_c, 0, 69, 0
1, 236990, Note_on_c, 0, 62, 0
1, 237006, Note_on_c, 0, 83, 0
1, 237011, Note_on_c, 0, 85, 109
1, 237012, Note_on_c, 0, 73, 109
1, 237012, Note_on_c, 0, 52, 112
1, 237013, Note_on_c, 0, 64, 112
1, 237018, Note_on_c, 0, 50, 0
1, 237021, Note_on_c, 0, 71, 0
1, 237066, Note_on_c, 0, 64, 0
1, 237070, Note_on_c, 0, 52, 0
1, 237073, Note_on_c, 0, 85, 0
1, 237074, Note_on_c, 0, 86, 109
1, 237077, Note_on_c, 0, 74, 109
1, 237078, Note_on_c, 0, 53, 112
1, 237079, Note_on_c, 0, 65, 112
1, 237082, Note_on_c, 0, 73, 0
1, 237139, Note_on_c, 0, 89, 109
1, 237140, Note_on_c, 0, 69, 109
1, 237141, Note_on_c, 0, 65, 0
1, 237142, Note_on_c, 0, 77, 109
1, 237142, Note_on_c, 0, 57, 112
1, 237144, Note_on_c, 0, 74, 0
1, 237148, Note_on_c, 0, 86, 0
1, 237152, Note_on_c, 0, 53, 0
1, 237197, Note_on_c, 0, 89, 0
1, 237198, Note_on_c, 0, 77, 0
1, 237204, Note_on_c, 0, 57, 0
1, 237205, Note_on_c, 0, 88, 109
1, 237205, Note_on_c, 0, 76, 109
1, 237206, Note_on_c, 0, 67, 112
1, 237207, Note_on_c, 0, 55, 112
1, 237212, Note_on_c, 0, 69, 0
1, 237266, Note_on_c, 0, 55, 0
1, 237270, Note_on_c, 0, 53, 112
1, 237271, Note_on_c, 0, 88, 0
1, 237272, Note_on_c, 0, 76, 0
1, 237272, Note_on_c, 0, 86, 109
1, 237273, Note_on_c, 0, 74, 109
1, 237274, Note_on_c, 0, 67, 0
1, 237274, Note_on_c, 0, 65, 112
1, 237324, Note_on_c, 0, 74, 0
1, 237327, Note_on_c, 0, 86, 0
1, 237331, Note_on_c, 0, 53, 0
1, 237332, Note_on_c, 0, 73, 109
1, 237333, Note_on_c, 0, 65, 0
1, 237334, Note_on_c, 0, 85, 109
1, 237335, Note_on_c, 0, 64, 112
1, 237335, Note_on_c, 0, 52, 112
1, 237394, Note_on_c, 0, 52, 0
1, 237396, Note_on_c, 0, 73, 0
1, 237398, Note_on_c, 0, 85, 0
1, 237399, Note_on_c, 0, 86, 109
1, 237399, Note_on_c, 0, 74, 109
1, 237400, Note_on_c, 0, 62, 112
1, 237401, Note_on_c, 0, 50, 112
1, 237402, Note_on_c, 0, 64, 0
1, 237464, Note_on_c, 0, 86, 0
1, 237465, Note_on_c, 0, 88, 109
1, 237466, Note_on_c, 0, 76, 109
1, 237467, Note_on_c, 0, 49, 112
1, 237468, Note_on_c, 0, 61, 112
1, 237472, Note_on_c, 0, 62, 0
1, 237474, Note_on_c, 0, 50, 0
1, 237476, Note_on_c, 0, 74, 0
1, 237524, Note_on_c, 0, 49, 0
1, 237528, Note_on_c, 0, 77, 109
1, 237528, Note_on_c, 0, 89, 109
1, 237529, Note_on_c, 0, 61, 0
1, 237531, Note_on_c, 0, 88, 0
1, 237531, Note_on_c, 0, 59, 112
1, 237532, Note_on_c, 0, 47, 115
1, 237534, Note_on_c, 0, 76, 0
1, 237588, Note_on_c, 0, 47, 0
1, 237593, Note_on_c, 0, 89, 0
1, 237595, Note_on_c, 0, 79, 109
1, 237595, Note_on_c, 0, 91, 109
1, 237596, Note_on_c, 0, 57, 112
1, 237596, Note_on_c, 0, 45, 115
1, 237598, Note_on_c, 0, 59, 0
1, 237601, Note_on_c, 0, 77, 0
1, 237652, Note_on_c, 0, 45, 0
1, 237657, Note_on_c, 0, 89, 109
1, 237658, Note_on_c, 0, 77, 109
1, 237660, Note_on_c, 0, 91, 0
1, 237661, Note_on_c, 0, 59, 112
1, 237661, Note_on_c, 0, 47, 115
1, 237665, Note_on_c, 0, 57, 0
1, 237666, Note_on_c, 0, 79, 0
1, 237718, Note_on_c, 0, 47, 0
1, 237723, Note_on_c, 0, 76, 109
1, 237724, Note_on_c, 0, 88, 109
1, 237725, Note_on_c, 0, 61, 112
1, 237725, Note_on_c, 0, 49, 112
1, 237729, Note_on_c, 0, 89, 0
1, 237732, Note_on_c, 0, 59, 0
1, 237738, Note_on_c, 0, 77, 0
1, 237779, Note_on_c, 0, 49, 0
1, 237784, Note_on_c, 0, 89, 109
1, 237787, Note_on_c, 0, 88, 0
1, 237788, Note_on_c, 0, 77, 109
1, 237789, Note_on_c, 0, 62, 112
1, 237790, Note_on_c, 0, 50, 112
1, 237791, Note_on_c, 0, 61, 0
1, 237795, Note_on_c, 0, 76, 0
1, 237847, Note_on_c, 0, 50, 0
1, 237852, Note_on_c, 0, 79, 109
1, 237852, Note_on_c, 0, 91, 109
1, 237853, Note_on_c, 0, 89, 0
1, 237854, Note_on_c, 0, 52, 112
1, 237854, Note_on_c, 0, 64, 112
1, 237855, Note_on_c, 0, 62, 0
1, 237857, Note_on_c, 0, 77, 0
1, 237915, Note_on_c, 0, 82, 109
1, 237916, Note_on_c, 0, 79, 0
1, 237916, Note_on_c, 0, 94, 109
1, 237917, Note_on_c, 0, 55, 112
1, 237918, Note_on_c, 0, 67, 112
1, 237919, Note_on_c, 0, 91, 0
1, 237920, Note_on_c, 0, 52, 0
1, 237928, Note_on_c, 0, 64, 0
1, 237979, Note_on_c, 0, 82, 0
1, 237980, Note_on_c, 0, 94, 0
1, 237981, Note_on_c, 0, 93, 109
1, 237982, Note_on_c, 0, 67, 0
1, 237983, Note_on_c, 0, 55, 0
1, 237983, Note_on_c, 0, 81, 109
1, 237984, Note_on_c, 0, 53, 112
1, 237984, Note_on_c, 0, 65, 112
1, 238041, Note_on_c, 0, 91, 109
1, 238042, Note_on_c, 0, 79, 109
1, 238044, Note_on_c, 0, 64, 112
1, 238044, Note_on_c, 0, 52, 112
1, 238048, Note_on_c, 0, 65, 0
1, 238050, Note_on_c, 0, 53, 0
1, 238053, Note_on_c, 0, 93, 0
1, 238054, Note_on_c, 0, 81, 0
1, 238086, Note_on_c, 0, 79, 0
1, 238089, Note_on_c, 0, 91, 0
1, 238093, Note_on_c, 0, 52, 0
1, 238095, Note_on_c, 0, 64, 0
1, 238103, Note_on_c, 0, 79, 109
1, 238104, Note_on_c, 0, 81, 109
1, 238105, Note_on_c, 0, 93, 113
1, 238105, Note_on_c, 0, 91, 109
1, 238106, Note_on_c, 0, 62, 112
1, 238107, Note_on_c, 0, 50, 112
1, 238108, Note_on_c, 0, 38, 115
1, 238149, Note_on_c, 0, 91, 0
1, 238162, Note_on_c, 0, 79, 0
1, 238168, Note_on_c, 0, 89, 109
1, 238168, Note_on_c, 0, 77, 109
1, 238233, Note_on_c, 0, 76, 109
1, 238234, Note_on_c, 0, 88, 109
1, 238235, Note_on_c, 0, 76, 109
1, 238236, Note_on_c, 0, 88, 109
1, 238244, Note_on_c, 0, 89, 0
1, 238245, Note_on_c, 0, 77, 0
1, 238252, Note_on_c, 0, 88, 0
1, 238253, Note_on_c, 0, 76, 0
1, 238296, Note_on_c, 0, 79, 109
1, 238297, Note_on_c, 0, 91, 109
1, 238326, Note_on_c, 0, 93, 0
1, 238333, Note_on_c, 0, 81, 0
1, 238351, Note_on_c, 0, 88, 0
1, 238354, Note_on_c, 0, 91, 0
1, 238359, Note_on_c, 0, 76, 0
1, 238359, Note_on_c, 0, 94, 113
1, 238362, Note_on_c, 0, 77, 109
1, 238363, Note_on_c, 0, 82, 109
1, 238364, Note_on_c, 0, 89, 109
1, 238367, Note_on_c, 0, 79, 0
1, 238421, Note_on_c, 0, 64, 112
1, 238422, Note_on_c, 0, 89, 0
1, 238423, Note_on_c, 0, 79, 109
1, 238423, Note_on_c, 0, 52, 112
1, 238424, Note_on_c, 0, 91, 109
1, 238424, Note_on_c, 0, 40, 115
1, 238430, Note_on_c, 0, 77, 0
1, 238450, Note_on_c, 0, 50, 0
1, 238453, Note_on_c, 0, 38, 0
1, 238456, Note_on_c, 0, 62, 0
1, 238477, Note_on_c, 0, 91, 0
1, 238483, Note_on_c, 0, 40, 0
1, 238484, Note_on_c, 0, 65, 112
1, 238484, Note_on_c, 0, 41, 115
1, 238485, Note_on_c, 0, 52, 0
1, 238485, Note_on_c, 0, 53, 112
1, 238487, Note_on_c, 0, 93, 109
1, 238488, Note_on_c, 0, 79, 0
1, 238488, Note_on_c, 0, 81, 109
1, 238491, Note_on_c, 0, 64, 0
1, 238538, Note_on_c, 0, 93, 0
1, 238540, Note_on_c, 0, 81, 0
1, 238541, Note_on_c, 0, 53, 0
1, 238543, Note_on_c, 0, 79, 109
1, 238545, Note_on_c, 0, 52, 112
1, 238547, Note_on_c, 0, 64, 112
1, 238548, Note_on_c, 0, 41, 0
1, 238548, Note_on_c, 0, 40, 115
1, 238549, Note_on_c, 0, 91, 109
1, 238551, Note_on_c, 0, 65, 0
1, 238577, Note_on_c, 0, 94, 0
1, 238577, Note_on_c, 0, 82, 0
1, 238605, Note_on_c, 0, 40, 0
1, 238606, Note_on_c, 0, 91, 0
1, 238609, Note_on_c, 0, 52, 0
1, 238610, Note_on_c, 0, 77, 109
1, 238611, Note_on_c, 0, 89, 109
1, 238611, Note_on_c, 0, 50, 112
1, 238612, Note_on_c, 0, 95, 113
1, 238613, Note_on_c, 0, 83, 109
1, 238613, Note_on_c, 0, 62, 112
1, 238614, Note_on_c, 0, 38, 115
1, 238617, Note_on_c, 0, 64, 0
1, 238623, Note_on_c, 0, 79, 0
1, 238675, Note_on_c, 0, 38, 0
1, 238679, Note_on_c, 0, 50, 0
1, 238680, Note_on_c, 0, 62, 0
1, 238680, Note_on_c, 0, 76, 109
1, 238681, Note_on_c, 0, 88, 109
1, 238681, Note_on_c, 0, 64, 112
1, 238682, Note_on_c, 0, 52, 112
1, 238683, Note_on_c, 0, 40, 115
1, 238688, Note_on_c, 0, 89, 0
1, 238692, Note_on_c, 0, 77, 0
1, 238738, Note_on_c, 0, 52, 0
1, 238739, Note_on_c, 0, 40, 0
1, 238741, Note_on_c, 0, 74, 109
1, 238745, Note_on_c, 0, 86, 109
1, 238745, Note_on_c, 0, 65, 112
1, 238746, Note_on_c, 0, 53, 112
1, 238747, Note_on_c, 0, 41, 115
1, 238750, Note_on_c, 0, 88, 0
1, 238752, Note_on_c, 0, 64, 0
1, 238755, Note_on_c, 0, 76, 0
1, 238797, Note_on_c, 0, 41, 0
1, 238800, Note_on_c, 0, 53, 0
1, 238802, Note_on_c, 0, 44, 115
1, 238804, Note_on_c, 0, 56, 112
1, 238805, Note_on_c, 0, 89, 109
1, 238806, Note_on_c, 0, 68, 109
1, 238807, Note_on_c, 0, 77, 109
1, 238808, Note_on_c, 0, 65, 0
1, 238809, Note_on_c, 0, 86, 0
1, 238812, Note_on_c, 0, 74, 0
1, 238824, Note_on_c, 0, 95, 0
1, 238836, Note_on_c, 0, 83, 0
1, 238870, Note_on_c, 0, 77, 0
1, 238871, Note_on_c, 0, 89, 0
1, 238872, Note_on_c, 0, 44, 0
1, 238872, Note_on_c, 0, 88, 109
1, 238873, Note_on_c, 0, 76, 109
1, 238873, Note_on_c, 0, 57, 112
1, 238874, Note_on_c, 0, 56, 0
1, 238875, Note_on_c, 0, 84, 109
1, 238876, Note_on_c, 0, 96, 113
1, 238876, Note_on_c, 0, 45, 115
1, 238877, Note_on_c, 0, 33, 115
1, 238880, Note_on_c, 0, 68, 0
1, 238937, Note_on_c, 0, 93, 109
1, 238937, Note_on_c, 0, 81, 109
1, 238945, Note_on_c, 0, 76, 0
1, 238948, Note_on_c, 0, 88, 0
1, 238993, Note_on_c, 0, 81, 0
1, 239000, Note_on_c, 0, 79, 109
1, 239001, Note_on_c, 0, 91, 109
1, 239004, Note_on_c, 0, 93, 0
1, 239070, Note_on_c, 0, 77, 109
1, 239071, Note_on_c, 0, 89, 109
1, 239079, Note_on_c, 0, 91, 0
1, 239081, Note_on_c, 0, 79, 0
1, 239082, Note_on_c, 0, 96, 0
1, 239097, Note_on_c, 0, 84, 0
1, 239132, Note_on_c, 0, 89, 0
1, 239134, Note_on_c, 0, 77, 0
1, 239134, Note_on_c, 0, 76, 109
1, 239136, Note_on_c, 0, 84, 109
1, 239136, Note_on_c, 0, 88, 109
1, 239137, Note_on_c, 0, 96, 113
1, 239197, Note_on_c, 0, 93, 113
1, 239198, Note_on_c, 0, 81, 109
1, 239218, Note_on_c, 0, 88, 0
1, 239230, Note_on_c, 0, 96, 0
1, 239236, Note_on_c, 0, 76, 0
1, 239242, Note_on_c, 0, 84, 0
1, 239258, Note_on_c, 0, 74, 109
1, 239261, Note_on_c, 0, 83, 109
1, 239262, Note_on_c, 0, 95, 113
1, 239264, Note_on_c, 0, 86, 109
1, 239266, Note_on_c, 0, 81, 0
1, 239284, Note_on_c, 0, 93, 0
1, 239328, Note_on_c, 0, 80, 109
1, 239329, Note_on_c, 0, 92, 109
1, 239350, Note_on_c, 0, 86, 0
1, 239370, Note_on_c, 0, 83, 0
1, 239378, Note_on_c, 0, 74, 0
1, 239380, Note_on_c, 0, 95, 0
1, 239390, Note_on_c, 0, 84, 109
1, 239391, Note_on_c, 0, 96, 109
1, 239392, Note_on_c, 0, 76, 109
1, 239392, Note_on_c, 0, 88, 109
1, 239410, Note_on_c, 0, 92, 0
1, 239414, Note_on_c, 0, 80, 0
1, 239450, Note_on_c, 0, 93, 109
1, 239452, Note_on_c, 0, 81, 109
1, 239471, Note_on_c, 0, 88, 0
1, 239487, Note_on_c, 0, 76, 0
1, 239514, Note_on_c, 0, 76, 109
1, 239515, Note_on_c, 0, 88, 109
1, 239518, Note_on_c, 0, 81, 0
1, 239538, Note_on_c, 0, 93, 0
1, 239567, Note_on_c, 0, 45, 0
1, 239569, Note_on_c, 0, 33, 0
1, 239571, Note_on_c, 0, 57, 0
1, 239583, Note_on_c, 0, 88, 0
1, 239583, Note_on_c, 0, 74, 109
1, 239584, Note_on_c, 0, 76, 0
1, 239585, Note_on_c, 0, 86, 109
1, 239590, Note_on_c, 0, 96, 0
1, 239614, Note_on_c, 0, 84, 0
1, 239646, Note_on_c, 0, 86, 0
1, 239650, Note_on_c, 0, 72, 109
1, 239651, Note_on_c, 0, 45, 115
1, 239652, Note_on_c, 0, 33, 115
1, 239653, Note_on_c, 0, 88, 113
1, 239653, Note_on_c, 0, 84, 109
1, 239654, Note_on_c, 0, 76, 109
1, 239654, Note_on_c, 0, 57, 112
1, 239664, Note_on_c, 0, 74, 0
1, 239701, Note_on_c, 0, 84, 0
1, 239708, Note_on_c, 0, 72, 0
1, 239712, Note_on_c, 0, 86, 109
1, 239712, Note_on_c, 0, 74, 109
1, 239774, Note_on_c, 0, 86, 0
1, 239775, Note_on_c, 0, 74, 0
1, 239778, Note_on_c, 0, 72, 109
1, 239779, Note_on_c, 0, 84, 109
1, 239838, Note_on_c, 0, 84, 0
1, 239841, Note_on_c, 0, 72, 0
1, 239845, Note_on_c, 0, 82, 109
1, 239845, Note_on_c, 0, 70, 109
1, 239867, Note_on_c, 0, 76, 0
1, 239872, Note_on_c, 0, 88, 0
1, 239900, Note_on_c, 0, 70, 0
1, 239904, Note_on_c, 0, 82, 0
1, 239905, Note_on_c, 0, 69, 109
1, 239906, Note_on_c, 0, 77, 109
1, 239907, Note_on_c, 0, 89, 113
1, 239907, Note_on_c, 0, 81, 109
1, 239968, Note_on_c, 0, 72, 109
1, 239969, Note_on_c, 0, 84, 109
1, 239974, Note_on_c, 0, 69, 0
1, 239988, Note_on_c, 0, 81, 0
1, 240033, Note_on_c, 0, 82, 109
1, 240034, Note_on_c, 0, 70, 109
1, 240036, Note_on_c, 0, 72, 0
1, 240041, Note_on_c, 0, 84, 0
1, 240091, Note_on_c, 0, 70, 0
1, 240093, Note_on_c, 0, 82, 0
1, 240097, Note_on_c, 0, 69, 109
1, 240098, Note_on_c, 0, 81, 109
1, 240127, Note_on_c, 0, 89, 0
1, 240165, Note_on_c, 0, 78, 109
1, 240165, Note_on_c, 0, 74, 109
1, 240166, Note_on_c, 0, 90, 109
1, 240167, Note_on_c, 0, 86, 109
1, 240169, Note_on_c, 0, 69, 0
1, 240172, Note_on_c, 0, 81, 0
1, 240173, Note_on_c, 0, 77, 0
1, 240231, Note_on_c, 0, 75, 109
1, 240232, Note_on_c, 0, 87, 109
1, 240237, Note_on_c, 0, 74, 0
1, 240238, Note_on_c, 0, 86, 0
1, 240290, Note_on_c, 0, 75, 0
1, 240295, Note_on_c, 0, 74, 109
1, 240296, Note_on_c, 0, 87, 0
1, 240297, Note_on_c, 0, 86, 109
1, 240344, Note_on_c, 0, 33, 0
1, 240347, Note_on_c, 0, 57, 0
1, 240347, Note_on_c, 0, 45, 0
1, 240361, Note_on_c, 0, 84, 109
1, 240362, Note_on_c, 0, 72, 109
1, 240365, Note_on_c, 0, 86, 0
1, 240370, Note_on_c, 0, 74, 0
1, 240392, Note_on_c, 0, 90, 0
1, 240393, Note_on_c, 0, 78, 0
1, 240425, Note_on_c, 0, 57, 112
1, 240426, Note_on_c, 0, 72, 0
1, 240427, Note_on_c, 0, 71, 109
1, 240427, Note_on_c, 0, 45, 115
1, 240428, Note_on_c, 0, 83, 109
1, 240428, Note_on_c, 0, 33, 115
1, 240429, Note_on_c, 0, 84, 0
1, 240429, Note_on_c, 0, 91, 113
1, 240430, Note_on_c, 0, 79, 109
1, 240492, Note_on_c, 0, 74, 109
1, 240492, Note_on_c, 0, 86, 109
1, 240498, Note_on_c, 0, 83, 0
1, 240502, Note_on_c, 0, 71, 0
1, 240552, Note_on_c, 0, 74, 0
1, 240557, Note_on_c, 0, 86, 0
1, 240558, Note_on_c, 0, 72, 109
1, 240562, Note_on_c, 0, 84, 109
1, 240622, Note_on_c, 0, 84, 0
1, 240626, Note_on_c, 0, 72, 0
1, 240630, Note_on_c, 0, 83, 109
1, 240631, Note_on_c, 0, 71, 109
1, 240661, Note_on_c, 0, 91, 0
1, 240663, Note_on_c, 0, 79, 0
1, 240692, Note_on_c, 0, 76, 109
1, 240693, Note_on_c, 0, 88, 109
1, 240694, Note_on_c, 0, 91, 113
1, 240695, Note_on_c, 0, 79, 109
1, 240696, Note_on_c, 0, 71, 0
1, 240699, Note_on_c, 0, 83, 0
1, 240750, Note_on_c, 0, 88, 0
1, 240753, Note_on_c, 0, 76, 0
1, 240754, Note_on_c, 0, 77, 109
1, 240756, Note_on_c, 0, 89, 113
1, 240797, Note_on_c, 0, 91, 0
1, 240800, Note_on_c, 0, 79, 0
1, 240815, Note_on_c, 0, 76, 109
1, 240817, Note_on_c, 0, 78, 109
1, 240818, Note_on_c, 0, 88, 109
1, 240819, Note_on_c, 0, 90, 113
1, 240820, Note_on_c, 0, 89, 0
1, 240823, Note_on_c, 0, 77, 0
1, 240874, Note_on_c, 0, 88, 0
1, 240878, Note_on_c, 0, 76, 0
1, 240879, Note_on_c, 0, 86, 109
1, 240879, Note_on_c, 0, 74, 109
1, 240921, Note_on_c, 0, 78, 0
1, 240923, Note_on_c, 0, 90, 0
1, 240934, Note_on_c, 0, 74, 0
1, 240937, Note_on_c, 0, 86, 0
1, 240944, Note_on_c, 0, 73, 109
1, 240945, Note_on_c, 0, 79, 109
1, 240945, Note_on_c, 0, 91, 113
1, 240946, Note_on_c, 0, 85, 109
1, 241000, Note_on_c, 0, 85, 0
1, 241005, Note_on_c, 0, 88, 109
1, 241007, Note_on_c, 0, 76, 109
1, 241012, Note_on_c, 0, 73, 0
1, 241047, Note_on_c, 0, 91, 0
1, 241049, Note_on_c, 0, 79, 0
1, 241064, Note_on_c, 0, 76, 0
1, 241064, Note_on_c, 0, 88, 0
1, 241068, Note_on_c, 0, 74, 109
1, 241069, Note_on_c, 0, 86, 109
1, 241070, Note_on_c, 0, 93, 113
1, 241071, Note_on_c, 0, 81, 109
1, 241122, Note_on_c, 0, 86, 0
1, 241124, Note_on_c, 0, 74, 0
1, 241129, Note_on_c, 0, 85, 109
1, 241130, Note_on_c, 0, 73, 109
1, 241166, Note_on_c, 0, 93, 0
1, 241167, Note_on_c, 0, 81, 0
1, 241182, Note_on_c, 0, 85, 0
1, 241191, Note_on_c, 0, 73, 0
1, 241195, Note_on_c, 0, 73, 104
1, 241196, Note_on_c, 0, 45, 115
1, 241197, Note_on_c, 0, 85, 104
1, 241199, Note_on_c, 0, 45, 0
1, 241200, Note_on_c, 0, 88, 104
1, 241200, Note_on_c, 0, 76, 104
1, 241201, Note_on_c, 0, 79, 104
1, 241202, Note_on_c, 0, 91, 104
1, 241204, Note_on_c, 0, 94, 104
1, 241205, Note_on_c, 0, 76, 104
1, 241206, Note_on_c, 0, 82, 104
1, 241206, Note_on_c, 0, 81, 104
1, 241207, Note_on_c, 0, 69, 104
1, 241207, Note_on_c, 0, 64, 112
1, 241208, Note_on_c, 0, 73, 104
1, 241208, Note_on_c, 0, 61, 112
1, 241211, Note_on_c, 0, 69, 104
1, 241212, Note_on_c, 0, 57, 112
1, 241216, Note_on_c, 0, 69, 0
1, 241223, Note_on_c, 0, 57, 0
1, 241226, Note_on_c, 0, 76, 0
1, 241231, Note_on_c, 0, 73, 0
1, 241286, Note_on_c, 0, 33, 0
1, 241324, Note_on_c, 0, 61, 0
1, 241325, Note_on_c, 0, 64, 0
1, 241328, Note_on_c, 0, 81, 0
1, 241338, Note_on_c, 0, 45, 115
1, 241339, Note_on_c, 0, 69, 109
1, 241340, Note_on_c, 0, 81, 109
1, 241340, Note_on_c, 0, 57, 112
1, 241341, Note_on_c, 0, 69, 109
1, 241351, Note_on_c, 0, 69, 0
1, 241352, Note_on_c, 0, 69, 0
1, 241352, Note_on_c, 0, 57, 0
1, 241353, Note_on_c, 0, 45, 0
1, 241390, Note_on_c, 0, 81, 0
1, 241404, Note_on_c, 0, 55, 112
1, 241405, Note_on_c, 0, 79, 109
1, 241406, Note_on_c, 0, 67, 112
1, 241406, Note_on_c, 0, 43, 115
1, 241407, Note_on_c, 0, 67, 112
1, 241416, Note_on_c, 0, 57, 0
1, 241433, Note_on_c, 0, 79, 0
1, 241437, Note_on_c, 0, 67, 0
1, 241445, Note_on_c, 0, 82, 0
1, 241448, Note_on_c, 0, 91, 0
1, 241448, Note_on_c, 0, 88, 0
1, 241449, Note_on_c, 0, 94, 0
1, 241451, Note_on_c, 0, 85, 0
1, 241451, Note_on_c, 0, 45, 0
1, 241455, Note_on_c, 0, 55, 0
1, 241457, Note_on_c, 0, 43, 0
1, 241464, Note_on_c, 0, 79, 0
1, 241470, Note_on_c, 0, 69, 109
1, 241471, Note_on_c, 0, 81, 109
1, 241472, Note_on_c, 0, 93, 109
1, 241472, Note_on_c, 0, 86, 109
1, 241473, Note_on_c, 0, 67, 0
1, 241473, Note_on_c, 0, 74, 109
1, 241474, Note_on_c, 0, 41, 115
1, 241475, Note_on_c, 0, 81, 109
1, 241476, Note_on_c, 0, 89, 109
1, 241477, Note_on_c, 0, 77, 109
1, 241477, Note_on_c, 0, 77, 109
1, 241478, Note_on_c, 0, 65, 112
1, 241478, Note_on_c, 0, 53, 112
1, 241479, Note_on_c, 0, 65, 112
1, 241499, Note_on_c, 0, 77, 0
1, 241500, Note_on_c, 0, 65, 0
1, 241502, Note_on_c, 0, 81, 0
1, 241503, Note_on_c, 0, 69, 0
1, 241535, Note_on_c, 0, 73, 0
1, 241536, Note_on_c, 0, 76, 0
1, 241576, Note_on_c, 0, 53, 0
1, 241577, Note_on_c, 0, 41, 0
1, 241595, Note_on_c, 0, 41, 115
1, 241596, Note_on_c, 0, 53, 112
1, 241599, Note_on_c, 0, 65, 112
1, 241600, Note_on_c, 0, 65, 112
1, 241601, Note_on_c, 0, 77, 109
1, 241622, Note_on_c, 0, 77, 0
1, 241647, Note_on_c, 0, 53, 0
1, 241650, Note_on_c, 0, 65, 0
1, 241652, Note_on_c, 0, 41, 0
1, 241660, Note_on_c, 0, 64, 112
1, 241661, Note_on_c, 0, 76, 109
1, 241662, Note_on_c, 0, 64, 112
1, 241662, Note_on_c, 0, 52, 112
1, 241663, Note_on_c, 0, 40, 115
1, 241672, Note_on_c, 0, 65, 0
1, 241677, Note_on_c, 0, 64, 0
1, 241693, Note_on_c, 0, 89, 0
1, 241696, Note_on_c, 0, 74, 0
1, 241697, Note_on_c, 0, 69, 0
1, 241699, Note_on_c, 0, 93, 0
1, 241701, Note_on_c, 0, 86, 0
1, 241711, Note_on_c, 0, 52, 0
1, 241714, Note_on_c, 0, 40, 0
1, 241715, Note_on_c, 0, 76, 0
1, 241729, Note_on_c, 0, 70, 109
1, 241730, Note_on_c, 0, 82, 109
1, 241731, Note_on_c, 0, 38, 115
1, 241732, Note_on_c, 0, 91, 109
1, 241733, Note_on_c, 0, 76, 109
1, 241733, Note_on_c, 0, 88, 109
1, 241734, Note_on_c, 0, 79, 109
1, 241734, Note_on_c, 0, 74, 109
1, 241735, Note_on_c, 0, 62, 112
1, 241735, Note_on_c, 0, 62, 112
1, 241736, Note_on_c, 0, 50, 112
1, 241738, Note_on_c, 0, 62, 0
1, 241780, Note_on_c, 0, 64, 0
1, 241796, Note_on_c, 0, 77, 0
1, 241798, Note_on_c, 0, 65, 0
1, 241842, Note_on_c, 0, 50, 0
1, 241843, Note_on_c, 0, 38, 0
1, 241848, Note_on_c, 0, 74, 0
1, 241862, Note_on_c, 0, 38, 115
1, 241863, Note_on_c, 0, 74, 109
1, 241864, Note_on_c, 0, 62, 112
1, 241864, Note_on_c, 0, 50, 112
1, 241865, Note_on_c, 0, 62, 112
1, 241892, Note_on_c, 0, 81, 0
1, 241908, Note_on_c, 0, 50, 0
1, 241910, Note_on_c, 0, 74, 0
1, 241912, Note_on_c, 0, 38, 0
1, 241917, Note_on_c, 0, 62, 0
1, 241924, Note_on_c, 0, 61, 112
1, 241925, Note_on_c, 0, 73, 109
1, 241928, Note_on_c, 0, 61, 112
1, 241928, Note_on_c, 0, 37, 115
1, 241929, Note_on_c, 0, 49, 112
1, 241932, Note_on_c, 0, 61, 0
1, 241958, Note_on_c, 0, 91, 0
1, 241959, Note_on_c, 0, 79, 0
1, 241959, Note_on_c, 0, 88, 0
1, 241961, Note_on_c, 0, 76, 0
1, 241963, Note_on_c, 0, 70, 0
1, 241965, Note_on_c, 0, 82, 0
1, 241971, Note_on_c, 0, 61, 0
1, 241973, Note_on_c, 0, 49, 0
1, 241975, Note_on_c, 0, 37, 0
1, 241980, Note_on_c, 0, 73, 0
1, 241990, Note_on_c, 0, 69, 109
1, 241991, Note_on_c, 0, 81, 109
1, 241992, Note_on_c, 0, 77, 109
1, 241992, Note_on_c, 0, 38, 115
1, 241993, Note_on_c, 0, 89, 109
1, 241994, Note_on_c, 0, 86, 109
1, 241994, Note_on_c, 0, 74, 109
1, 241995, Note_on_c, 0, 74, 109
1, 241996, Note_on_c, 0, 62, 112
1, 241996, Note_on_c, 0, 62, 112
1, 241998, Note_on_c, 0, 62, 0
1, 241998, Note_on_c, 0, 50, 112
1, 242033, Note_on_c, 0, 62, 0
1, 242043, Note_on_c, 0, 62, 0
1, 242064, Note_on_c, 0, 74, 0
1, 242093, Note_on_c, 0, 50, 0
1, 242100, Note_on_c, 0, 38, 0
1, 242118, Note_on_c, 0, 74, 109
1, 242119, Note_on_c, 0, 62, 112
1, 242119, Note_on_c, 0, 38, 115
1, 242120, Note_on_c, 0, 62, 112
1, 242120, Note_on_c, 0, 50, 112
1, 242154, Note_on_c, 0, 74, 0
1, 242156, Note_on_c, 0, 62, 0
1, 242171, Note_on_c, 0, 50, 0
1, 242174, Note_on_c, 0, 38, 0
1, 242186, Note_on_c, 0, 62, 0
1, 242188, Note_on_c, 0, 72, 109
1, 242188, Note_on_c, 0, 60, 112
1, 242189, Note_on_c, 0, 60, 112
1, 242190, Note_on_c, 0, 48, 115
1, 242190, Note_on_c, 0, 36, 115
1, 242199, Note_on_c, 0, 62, 0
1, 242211, Note_on_c, 0, 89, 0
1, 242216, Note_on_c, 0, 60, 0
1, 242220, Note_on_c, 0, 86, 0
1, 242222, Note_on_c, 0, 81, 0
1, 242223, Note_on_c, 0, 77, 0
1, 242227, Note_on_c, 0, 69, 0
1, 242239, Note_on_c, 0, 48, 0
1, 242242, Note_on_c, 0, 36, 0
1, 242243, Note_on_c, 0, 72, 0
1, 242255, Note_on_c, 0, 79, 109
1, 242257, Note_on_c, 0, 34, 115
1, 242258, Note_on_c, 0, 79, 109
1, 242258, Note_on_c, 0, 86, 109
1, 242259, Note_on_c, 0, 67, 112
1, 242260, Note_on_c, 0, 91, 109
1, 242260, Note_on_c, 0, 74, 109
1, 242261, Note_on_c, 0, 70, 109
1, 242262, Note_on_c, 0, 74, 0
1, 242262, Note_on_c, 0, 58, 112
1, 242263, Note_on_c, 0, 58, 112
1, 242263, Note_on_c, 0, 46, 115
1, 242304, Note_on_c, 0, 58, 0
1, 242304, Note_on_c, 0, 79, 0
1, 242316, Note_on_c, 0, 60, 0
1, 242351, Note_on_c, 0, 46, 0
1, 242356, Note_on_c, 0, 70, 0
1, 242360, Note_on_c, 0, 74, 0
1, 242362, Note_on_c, 0, 86, 0
1, 242364, Note_on_c, 0, 34, 0
1, 242364, Note_on_c, 0, 91, 0
1, 242366, Note_on_c, 0, 67, 0
1, 242378, Note_on_c, 0, 81, 109
1, 242378, Note_on_c, 0, 69, 109
1, 242381, Note_on_c, 0, 74, 109
1, 242381, Note_on_c, 0, 34, 115
1, 242382, Note_on_c, 0, 86, 109
1, 242383, Note_on_c, 0, 89, 109
1, 242383, Note_on_c, 0, 77, 109
1, 242385, Note_on_c, 0, 70, 109
1, 242385, Note_on_c, 0, 58, 112
1, 242386, Note_on_c, 0, 58, 112
1, 242386, Note_on_c, 0, 46, 115
1, 242395, Note_on_c, 0, 58, 0
1, 242408, Note_on_c, 0, 58, 0
1, 242425, Note_on_c, 0, 46, 0
1, 242427, Note_on_c, 0, 79, 0
1, 242428, Note_on_c, 0, 70, 0
1, 242428, Note_on_c, 0, 34, 0
1, 242440, Note_on_c, 0, 57, 112
1, 242442, Note_on_c, 0, 33, 115
1, 242446, Note_on_c, 0, 69, 109
1, 242446, Note_on_c, 0, 57, 112
1, 242447, Note_on_c, 0, 45, 115
1, 242460, Note_on_c, 0, 57, 0
1, 242461, Note_on_c, 0, 69, 0
1, 242483, Note_on_c, 0, 58, 0
1, 242488, Note_on_c, 0, 77, 0
1, 242489, Note_on_c, 0, 74, 0
1, 242490, Note_on_c, 0, 86, 0
1, 242491, Note_on_c, 0, 89, 0
1, 242492, Note_on_c, 0, 81, 0
1, 242494, Note_on_c, 0, 45, 0
1, 242501, Note_on_c, 0, 33, 0
1, 242508, Marker_t, "SDRodrian@aol.com  626 Lalor Trenton NJ 08611 http://members.aol.com/sdrodrian"
1, 242510, Note_on_c, 0, 70, 109
1, 242511, Note_on_c, 0, 76, 109
1, 242512, Note_on_c, 0, 82, 109
1, 242513, Note_on_c, 0, 73, 109
1, 242515, Note_on_c, 0, 85, 109
1, 242515, Note_on_c, 0, 88, 109
1, 242515, Note_on_c, 0, 31, 115
1, 242517, Note_on_c, 0, 67, 112
1, 242517, Note_on_c, 0, 55, 112
1, 242518, Note_on_c, 0, 55, 112
1, 242519, Note_on_c, 0, 43, 115
1, 242523, Note_on_c, 0, 69, 0
1, 242544, Note_on_c, 0, 55, 0
1, 242612, Note_on_c, 0, 57, 0
1, 242616, Note_on_c, 0, 67, 0
1, 242618, Note_on_c, 0, 43, 0
1, 242620, Note_on_c, 0, 85, 0
1, 242624, Note_on_c, 0, 88, 0
1, 242625, Note_on_c, 0, 73, 0
1, 242627, Note_on_c, 0, 31, 0
1, 242628, Note_on_c, 0, 82, 0
1, 242628, Note_on_c, 0, 76, 0
1, 242632, Note_on_c, 0, 70, 0
1, 242637, Note_on_c, 0, 69, 109
1, 242638, Note_on_c, 0, 81, 109
1, 242639, Note_on_c, 0, 74, 109
1, 242640, Note_on_c, 0, 86, 109
1, 242640, Note_on_c, 0, 31, 115
1, 242641, Note_on_c, 0, 67, 112
1, 242642, Note_on_c, 0, 55, 112
1, 242642, Note_on_c, 0, 43, 115
1, 242643, Note_on_c, 0, 55, 0
1, 242643, Note_on_c, 0, 55, 112
1, 242645, Note_on_c, 0, 55, 0
1, 242682, Note_on_c, 0, 43, 0
1, 242683, Note_on_c, 0, 31, 0
1, 242684, Note_on_c, 0, 67, 0
1, 242698, Note_on_c, 0, 65, 112
1, 242699, Note_on_c, 0, 29, 115
1, 242700, Note_on_c, 0, 53, 112
1, 242701, Note_on_c, 0, 53, 112
1, 242701, Note_on_c, 0, 41, 115
1, 242738, Note_on_c, 0, 86, 0
1, 242738, Note_on_c, 0, 81, 0
1, 242740, Note_on_c, 0, 74, 0
1, 242743, Note_on_c, 0, 69, 0
1, 242745, Note_on_c, 0, 41, 0
1, 242746, Note_on_c, 0, 53, 0
1, 242749, Note_on_c, 0, 29, 0
1, 242754, Note_on_c, 0, 53, 0
1, 242756, Note_on_c, 0, 65, 0
1, 242759, Note_on_c, 0, 55, 0
1, 242761, Note_on_c, 0, 70, 109
1, 242762, Note_on_c, 0, 82, 109
1, 242763, Note_on_c, 0, 86, 109
1, 242764, Note_on_c, 0, 31, 115
1, 242765, Note_on_c, 0, 74, 109
1, 242766, Note_on_c, 0, 67, 112
1, 242766, Note_on_c, 0, 43, 115
1, 242767, Note_on_c, 0, 76, 109
1, 242767, Note_on_c, 0, 55, 112
1, 242768, Note_on_c, 0, 55, 112
1, 242769, Note_on_c, 0, 88, 109
1, 242783, Note_on_c, 0, 55, 0
1, 242794, Note_on_c, 0, 57, 112
1, 242795, Note_on_c, 0, 69, 113
1, 242797, Note_on_c, 0, 67, 0
1, 242828, Note_on_c, 0, 76, 0
1, 242831, Note_on_c, 0, 70, 0
1, 242832, Note_on_c, 0, 59, 112
1, 242833, Note_on_c, 0, 71, 113
1, 242834, Note_on_c, 0, 74, 0
1, 242836, Note_on_c, 0, 69, 0
1, 242837, Note_on_c, 0, 88, 0
1, 242840, Note_on_c, 0, 57, 0
1, 242841, Note_on_c, 0, 86, 0
1, 242843, Note_on_c, 0, 82, 0
1, 242844, Note_on_c, 0, 31, 0
1, 242844, Note_on_c, 0, 43, 0
1, 242852, Note_on_c, 0, 55, 0
1, 242875, Note_on_c, 0, 73, 113
1, 242876, Note_on_c, 0, 61, 112
1, 242881, Note_on_c, 0, 71, 0
1, 242884, Note_on_c, 0, 59, 0
1, 242919, Note_on_c, 0, 61, 0
1, 242920, Note_on_c, 0, 62, 112
1, 242922, Note_on_c, 0, 74, 113
1, 242924, Note_on_c, 0, 73, 0
1, 242963, Note_on_c, 0, 64, 112
1, 242964, Note_on_c, 0, 74, 0
1, 242965, Note_on_c, 0, 76, 113
1, 242972, Note_on_c, 0, 62, 0
1, 243010, Note_on_c, 0, 77, 113
1, 243011, Note_on_c, 0, 65, 112
1, 243018, Note_on_c, 0, 76, 0
1, 243023, Note_on_c, 0, 64, 0
1, 243053, Note_on_c, 0, 77, 0
1, 243054, Note_on_c, 0, 79, 113
1, 243055, Note_on_c, 0, 65, 0
1, 243055, Note_on_c, 0, 67, 112
1, 243097, Note_on_c, 0, 69, 109
1, 243098, Note_on_c, 0, 81, 113
1, 243104, Note_on_c, 0, 79, 0
1, 243105, Note_on_c, 0, 67, 0
1, 243144, Note_on_c, 0, 71, 109
1, 243144, Note_on_c, 0, 83, 117
1, 243145, Note_on_c, 0, 81, 0
1, 243147, Note_on_c, 0, 69, 0
1, 243190, Note_on_c, 0, 73, 109
1, 243190, Note_on_c, 0, 85, 113
1, 243195, Note_on_c, 0, 83, 0
1, 243198, Note_on_c, 0, 71, 0
1, 243227, Note_on_c, 0, 85, 0
1, 243228, Note_on_c, 0, 74, 109
1, 243229, Note_on_c, 0, 86, 113
1, 243230, Note_on_c, 0, 73, 0
1, 243264, Note_on_c, 0, 86, 0
1, 243264, Note_on_c, 0, 88, 113
1, 243264, Note_on_c, 0, 76, 109
1, 243266, Note_on_c, 0, 74, 0
1, 243308, Note_on_c, 0, 88, 0
1, 243308, Note_on_c, 0, 89, 113
1, 243309, Note_on_c, 0, 77, 109
1, 243312, Note_on_c, 0, 76, 0
1, 243357, Note_on_c, 0, 79, 109
1, 243358, Note_on_c, 0, 91, 113
1, 243360, Note_on_c, 0, 77, 0
1, 243363, Note_on_c, 0, 89, 0
1, 243415, Note_on_c, 0, 76, 109
1, 243416, Note_on_c, 0, 88, 113
1, 243423, Note_on_c, 0, 79, 0
1, 243424, Note_on_c, 0, 91, 0
1, 243467, Note_on_c, 0, 85, 113
1, 243468, Note_on_c, 0, 73, 109
1, 243481, Note_on_c, 0, 88, 0
1, 243483, Note_on_c, 0, 76, 0
1, 243509, Note_on_c, 0, 85, 0
1, 243510, Note_on_c, 0, 83, 113
1, 243511, Note_on_c, 0, 73, 0
1, 243512, Note_on_c, 0, 71, 109
1, 243561, Note_on_c, 0, 73, 109
1, 243562, Note_on_c, 0, 85, 113
1, 243574, Note_on_c, 0, 83, 0
1, 243575, Note_on_c, 0, 71, 0
1, 243721, Note_on_c, 0, 85, 0
1, 243727, Note_on_c, 0, 73, 0
1, 243744, Note_on_c, 0, 79, 109
1, 243745, Note_on_c, 0, 69, 109
1, 243746, Note_on_c, 0, 67, 112
1, 243747, Note_on_c, 0, 52, 112
1, 243748, Note_on_c, 0, 81, 109
1, 243748, Note_on_c, 0, 57, 112
1, 243750, Note_on_c, 0, 64, 112
1, 243750, Note_on_c, 0, 33, 115
1, 243751, Note_on_c, 0, 45, 115
1, 243936, Note_on_c, 0, 74, 109
1, 243936, Note_on_c, 0, 86, 109
1, 244149, Note_on_c, 0, 86, 0
1, 244150, Note_on_c, 0, 74, 0
1, 244151, Note_on_c, 0, 67, 0
1, 244155, Note_on_c, 0, 81, 0
1, 244156, Note_on_c, 0, 79, 0
1, 244156, Note_on_c, 0, 52, 0
1, 244156, Note_on_c, 0, 69, 0
1, 244157, Note_on_c, 0, 69, 109
1, 244158, Note_on_c, 0, 64, 0
1, 244158, Note_on_c, 0, 57, 0
1, 244159, Note_on_c, 0, 66, 112
1, 244161, Note_on_c, 0, 74, 109
1, 244161, Note_on_c, 0, 86, 109
1, 244163, Note_on_c, 0, 33, 0
1, 244163, Note_on_c, 0, 78, 109
1, 244164, Note_on_c, 0, 81, 109
1, 244164, Note_on_c, 0, 62, 112
1, 244165, Note_on_c, 0, 38, 115
1, 244166, Note_on_c, 0, 45, 0
1, 244166, Note_on_c, 0, 69, 109
1, 244167, Note_on_c, 0, 50, 112
1, 244168, Note_on_c, 0, 57, 112
1, 244731, Note_on_c, 0, 26, 115
1, 244819, Note_on_c, 0, 57, 0
1, 245249, Note_on_c, 0, 69, 0
1, 247152, Note_on_c, 0, 69, 0
1, 247554, Note_on_c, 0, 26, 0
1, 247574, Note_on_c, 0, 66, 0
1, 247574, Note_on_c, 0, 78, 0
1, 247575, Note_on_c, 0, 38, 0
1, 247575, Note_on_c, 0, 74, 0
1, 247576, Note_on_c, 0, 86, 0
1, 247578, Note_on_c, 0, 50, 0
1, 247578, Note_on_c, 0, 62, 0
1, 247579, Note_on_c, 0, 81, 0
1, 247748, Control_c, 0, 64, 0
1, 247749, Control_c, 0, 64, 0
1, 247750, Control_c, 0, 64, 0
1, 247776, Control_c, 0, 64, 0
1, 247776, Control_c, 0, 64, 0
1, 247777, Control_c, 0, 64, 0
1, 248011, Control_c, 0, 64, 0
1, 248012, Control_c, 0, 64, 0
1, 248013, Control_c, 0, 64, 0
1, 248036, Control_c, 0, 64, 0
1, 248037, Control_c, 0, 64, 0
1, 248038, Control_c, 0, 64, 0
1, 248280, Marker_t, "1121 Deutz Ave Trenton NJ 08611 http://www.geocities.com/Paris/LeftBank/3214"
1, 248280, End_track
0, 0, End_of_file
