0, 0, Header, 1, 13, 384
1, 0, Start_track
1, 0, Title_t, "--------"
1, 0, Text_t, "harpsichord: John Sankey\012"
1, 0, SMPTE_offset, 96, 0, 3, 0, 0
1, 0, Time_signature, 4, 2, 24, 8
1, 0, Key_signature, 0, "major"
1, 0, Tempo, 789474
1, 24576, Tempo, 821918
1, 53760, Tempo, 681818
1, 190464, Tempo, 1363636
1, 232704, Tempo, 600000
1, 233472, Time_signature, 3, 2, 24, 8
1, 233472, End_track
2, 0, Start_track
2, 0, Title_t, "Harpsichord"
2, 0, Program_c, 0, 0
2, 0, Control_c, 0, 7, 100
2, 0, Control_c, 0, 10, 64
2, 0, Pitch_bend_c, 0, 8192
2, 1445, Note_on_c, 0, 60, 100
2, 1553, Note_on_c, 0, 60, 0
2, 2087, Note_on_c, 0, 60, 100
2, 2179, Note_on_c, 0, 48, 100
2, 2191, Note_on_c, 0, 60, 0
2, 2270, Note_on_c, 0, 60, 100
2, 2274, Note_on_c, 0, 48, 0
2, 2374, Note_on_c, 0, 60, 0
2, 2453, Note_on_c, 0, 60, 100
2, 2543, Note_on_c, 0, 60, 0
2, 8045, Note_on_c, 0, 72, 100
2, 8085, Note_on_c, 0, 72, 0
2, 8212, Note_on_c, 0, 72, 100
2, 8252, Note_on_c, 0, 72, 0
2, 14165, Note_on_c, 0, 72, 100
2, 14255, Note_on_c, 0, 72, 0
2, 15079, Note_on_c, 0, 72, 100
2, 15169, Note_on_c, 0, 72, 0
2, 25920, Note_on_c, 0, 60, 100
2, 26111, Note_on_c, 0, 60, 0
2, 28608, Note_on_c, 0, 60, 100
2, 28799, Note_on_c, 0, 60, 0
2, 29184, Note_on_c, 0, 60, 100
2, 29375, Note_on_c, 0, 60, 0
2, 29568, Note_on_c, 0, 60, 100
2, 29948, Note_on_c, 0, 60, 0
2, 31296, Note_on_c, 0, 48, 100
2, 31487, Note_on_c, 0, 48, 0
2, 32072, Note_on_c, 0, 60, 100
2, 32263, Note_on_c, 0, 60, 0
2, 32648, Note_on_c, 0, 60, 100
2, 32648, Note_on_c, 0, 48, 100
2, 33008, Note_on_c, 0, 48, 0
2, 33223, Note_on_c, 0, 60, 0
2, 33808, Note_on_c, 0, 72, 100
2, 33845, Note_on_c, 0, 72, 0
2, 33884, Note_on_c, 0, 72, 100
2, 33999, Note_on_c, 0, 72, 0
2, 35152, Note_on_c, 0, 48, 100
2, 35343, Note_on_c, 0, 48, 0
2, 35632, Note_on_c, 0, 60, 100
2, 35727, Note_on_c, 0, 60, 0
2, 35728, Note_on_c, 0, 60, 100
2, 35728, Note_on_c, 0, 48, 100
2, 35919, Note_on_c, 0, 48, 0
2, 35920, Note_on_c, 0, 72, 100
2, 36015, Note_on_c, 0, 72, 0
2, 36303, Note_on_c, 0, 60, 0
2, 36304, Note_on_c, 0, 60, 100
2, 36495, Note_on_c, 0, 60, 0
2, 37840, Note_on_c, 0, 48, 100
2, 37935, Note_on_c, 0, 48, 0
2, 39076, Note_on_c, 0, 60, 100
2, 39129, Note_on_c, 0, 60, 0
2, 40384, Note_on_c, 0, 48, 100
2, 40431, Note_on_c, 0, 48, 0
2, 40612, Note_on_c, 0, 60, 100
2, 40665, Note_on_c, 0, 60, 0
2, 46526, Note_on_c, 0, 60, 100
2, 46609, Note_on_c, 0, 60, 0
2, 56832, Note_on_c, 0, 60, 100
2, 57023, Note_on_c, 0, 60, 0
2, 57792, Note_on_c, 0, 60, 100
2, 57887, Note_on_c, 0, 60, 0
2, 60288, Note_on_c, 0, 60, 100
2, 60671, Note_on_c, 0, 60, 0
2, 60864, Note_on_c, 0, 48, 100
2, 60959, Note_on_c, 0, 48, 0
2, 61440, Note_on_c, 0, 48, 100
2, 61610, Note_on_c, 0, 48, 0
2, 61824, Note_on_c, 0, 60, 100
2, 62207, Note_on_c, 0, 60, 0
2, 62400, Note_on_c, 0, 72, 100
2, 62495, Note_on_c, 0, 72, 0
2, 62976, Note_on_c, 0, 72, 100
2, 63146, Note_on_c, 0, 72, 0
2, 63552, Note_on_c, 0, 72, 100
2, 63743, Note_on_c, 0, 72, 0
2, 64128, Note_on_c, 0, 72, 100
2, 64128, Note_on_c, 0, 60, 100
2, 64319, Note_on_c, 0, 60, 0
2, 64511, Note_on_c, 0, 72, 0
2, 65664, Note_on_c, 0, 72, 100
2, 65855, Note_on_c, 0, 72, 0
2, 65952, Note_on_c, 0, 72, 100
2, 66047, Note_on_c, 0, 72, 0
2, 66240, Note_on_c, 0, 72, 100
2, 66240, Note_on_c, 0, 60, 100
2, 66335, Note_on_c, 0, 72, 0
2, 66431, Note_on_c, 0, 60, 0
2, 66816, Note_on_c, 0, 72, 100
2, 66996, Note_on_c, 0, 72, 0
2, 67200, Note_on_c, 0, 72, 100
2, 67583, Note_on_c, 0, 72, 0
2, 67776, Note_on_c, 0, 48, 100
2, 67871, Note_on_c, 0, 48, 0
2, 68352, Note_on_c, 0, 48, 100
2, 68532, Note_on_c, 0, 48, 0
2, 68736, Note_on_c, 0, 60, 100
2, 69119, Note_on_c, 0, 60, 0
2, 69504, Note_on_c, 0, 84, 100
2, 69695, Note_on_c, 0, 84, 0
2, 71040, Note_on_c, 0, 48, 100
2, 71231, Note_on_c, 0, 48, 0
2, 71328, Note_on_c, 0, 48, 100
2, 71423, Note_on_c, 0, 48, 0
2, 71616, Note_on_c, 0, 72, 100
2, 71616, Note_on_c, 0, 48, 100
2, 71711, Note_on_c, 0, 48, 0
2, 71807, Note_on_c, 0, 72, 0
2, 73344, Note_on_c, 0, 48, 100
2, 73535, Note_on_c, 0, 48, 0
2, 79104, Note_on_c, 0, 60, 100
2, 79295, Note_on_c, 0, 60, 0
2, 80256, Note_on_c, 0, 72, 100
2, 80823, Note_on_c, 0, 72, 0
2, 83712, Note_on_c, 0, 72, 100
2, 83903, Note_on_c, 0, 72, 0
2, 84672, Note_on_c, 0, 72, 100
2, 84767, Note_on_c, 0, 72, 0
2, 88512, Note_on_c, 0, 48, 100
2, 88703, Note_on_c, 0, 48, 0
2, 90528, Note_on_c, 0, 48, 100
2, 90623, Note_on_c, 0, 48, 0
2, 91008, Note_on_c, 0, 60, 100
2, 91008, Note_on_c, 0, 48, 100
2, 91199, Note_on_c, 0, 48, 0
2, 91199, Note_on_c, 0, 60, 0
2, 91200, Note_on_c, 0, 36, 100
2, 91391, Note_on_c, 0, 36, 0
2, 92544, Note_on_c, 0, 72, 100
2, 92544, Note_on_c, 0, 48, 100
2, 92735, Note_on_c, 0, 48, 0
2, 92735, Note_on_c, 0, 72, 0
2, 92736, Note_on_c, 0, 36, 100
2, 92927, Note_on_c, 0, 36, 0
2, 94080, Note_on_c, 0, 84, 100
2, 94080, Note_on_c, 0, 60, 100
2, 94271, Note_on_c, 0, 60, 0
2, 94271, Note_on_c, 0, 84, 0
2, 94272, Note_on_c, 0, 48, 100
2, 94463, Note_on_c, 0, 48, 0
2, 95232, Note_on_c, 0, 72, 100
2, 95423, Note_on_c, 0, 72, 0
2, 95424, Note_on_c, 0, 60, 100
2, 95615, Note_on_c, 0, 60, 0
2, 96384, Note_on_c, 0, 72, 100
2, 96767, Note_on_c, 0, 72, 0
2, 97152, Note_on_c, 0, 60, 100
2, 97343, Note_on_c, 0, 60, 0
2, 98688, Note_on_c, 0, 72, 100
2, 99071, Note_on_c, 0, 72, 0
2, 99264, Note_on_c, 0, 48, 100
2, 99359, Note_on_c, 0, 48, 0
2, 100416, Note_on_c, 0, 48, 100
2, 100607, Note_on_c, 0, 48, 0
2, 100992, Note_on_c, 0, 60, 100
2, 100992, Note_on_c, 0, 48, 100
2, 101183, Note_on_c, 0, 48, 0
2, 101567, Note_on_c, 0, 60, 0
2, 101664, Note_on_c, 0, 60, 100
2, 101759, Note_on_c, 0, 60, 0
2, 103392, Note_on_c, 0, 60, 100
2, 103487, Note_on_c, 0, 60, 0
2, 104928, Note_on_c, 0, 84, 100
2, 105023, Note_on_c, 0, 84, 0
2, 106656, Note_on_c, 0, 60, 100
2, 106751, Note_on_c, 0, 60, 0
2, 107136, Note_on_c, 0, 72, 100
2, 107136, Note_on_c, 0, 60, 100
2, 107327, Note_on_c, 0, 60, 0
2, 107903, Note_on_c, 0, 72, 0
2, 108000, Note_on_c, 0, 60, 100
2, 108095, Note_on_c, 0, 60, 0
2, 108672, Note_on_c, 0, 72, 100
2, 109439, Note_on_c, 0, 72, 0
2, 109824, Note_on_c, 0, 48, 100
2, 110015, Note_on_c, 0, 48, 0
2, 110400, Note_on_c, 0, 60, 100
2, 110591, Note_on_c, 0, 60, 0
2, 111360, Note_on_c, 0, 48, 100
2, 111551, Note_on_c, 0, 48, 0
2, 111648, Note_on_c, 0, 60, 100
2, 111743, Note_on_c, 0, 60, 0
2, 111936, Note_on_c, 0, 60, 100
2, 112127, Note_on_c, 0, 60, 0
2, 112896, Note_on_c, 0, 72, 100
2, 113087, Note_on_c, 0, 72, 0
2, 113184, Note_on_c, 0, 60, 100
2, 113279, Note_on_c, 0, 60, 0
2, 113568, Note_on_c, 0, 72, 100
2, 113663, Note_on_c, 0, 72, 0
2, 114048, Note_on_c, 0, 60, 100
2, 114239, Note_on_c, 0, 60, 0
2, 114432, Note_on_c, 0, 72, 100
2, 114623, Note_on_c, 0, 72, 0
2, 115392, Note_on_c, 0, 60, 100
2, 115392, Note_on_c, 0, 48, 100
2, 115583, Note_on_c, 0, 48, 0
2, 115775, Note_on_c, 0, 60, 0
2, 116736, Note_on_c, 0, 60, 100
2, 116927, Note_on_c, 0, 60, 0
2, 117024, Note_on_c, 0, 72, 100
2, 117119, Note_on_c, 0, 72, 0
2, 117312, Note_on_c, 0, 72, 100
2, 117503, Note_on_c, 0, 72, 0
2, 118272, Note_on_c, 0, 60, 100
2, 118368, Note_on_c, 0, 72, 100
2, 118463, Note_on_c, 0, 72, 0
2, 118463, Note_on_c, 0, 60, 0
2, 118560, Note_on_c, 0, 72, 100
2, 118655, Note_on_c, 0, 72, 0
2, 118752, Note_on_c, 0, 72, 100
2, 118847, Note_on_c, 0, 72, 0
2, 118944, Note_on_c, 0, 72, 100
2, 119039, Note_on_c, 0, 72, 0
2, 119808, Note_on_c, 0, 72, 100
2, 120188, Note_on_c, 0, 72, 0
2, 120672, Note_on_c, 0, 72, 100
2, 120767, Note_on_c, 0, 72, 0
2, 120864, Note_on_c, 0, 72, 100
2, 120959, Note_on_c, 0, 72, 0
2, 121344, Note_on_c, 0, 60, 100
2, 121535, Note_on_c, 0, 60, 0
2, 121632, Note_on_c, 0, 48, 100
2, 121727, Note_on_c, 0, 48, 0
2, 121920, Note_on_c, 0, 48, 100
2, 122111, Note_on_c, 0, 48, 0
2, 124032, Note_on_c, 0, 48, 100
2, 124799, Note_on_c, 0, 48, 0
2, 124992, Note_on_c, 0, 48, 100
2, 125087, Note_on_c, 0, 48, 0
2, 125472, Note_on_c, 0, 48, 100
2, 125567, Note_on_c, 0, 48, 0
2, 125760, Note_on_c, 0, 48, 100
2, 125951, Note_on_c, 0, 48, 0
2, 127872, Note_on_c, 0, 60, 100
2, 128064, Note_on_c, 0, 48, 100
2, 128255, Note_on_c, 0, 48, 0
2, 128639, Note_on_c, 0, 60, 0
2, 129024, Note_on_c, 0, 60, 100
2, 129404, Note_on_c, 0, 60, 0
2, 129792, Note_on_c, 0, 48, 100
2, 129983, Note_on_c, 0, 48, 0
2, 130080, Note_on_c, 0, 72, 100
2, 130175, Note_on_c, 0, 72, 0
2, 130368, Note_on_c, 0, 72, 100
2, 130559, Note_on_c, 0, 72, 0
2, 133344, Note_on_c, 0, 84, 100
2, 133439, Note_on_c, 0, 84, 0
2, 134016, Note_on_c, 0, 84, 100
2, 134111, Note_on_c, 0, 84, 0
2, 134208, Note_on_c, 0, 60, 100
2, 134399, Note_on_c, 0, 60, 0
2, 134688, Note_on_c, 0, 72, 100
2, 134783, Note_on_c, 0, 72, 0
2, 135168, Note_on_c, 0, 72, 100
2, 135360, Note_on_c, 0, 60, 100
2, 135548, Note_on_c, 0, 72, 0
2, 135551, Note_on_c, 0, 60, 0
2, 135648, Note_on_c, 0, 72, 100
2, 135743, Note_on_c, 0, 72, 0
2, 136224, Note_on_c, 0, 60, 100
2, 136319, Note_on_c, 0, 60, 0
2, 136704, Note_on_c, 0, 48, 100
2, 136799, Note_on_c, 0, 48, 0
2, 136896, Note_on_c, 0, 48, 100
2, 136991, Note_on_c, 0, 48, 0
2, 137280, Note_on_c, 0, 60, 100
2, 137471, Note_on_c, 0, 60, 0
2, 137856, Note_on_c, 0, 48, 100
2, 138047, Note_on_c, 0, 48, 0
2, 138048, Note_on_c, 0, 36, 100
2, 138239, Note_on_c, 0, 36, 0
2, 141792, Note_on_c, 0, 60, 100
2, 141887, Note_on_c, 0, 60, 0
2, 144000, Note_on_c, 0, 60, 100
2, 144192, Note_on_c, 0, 72, 100
2, 144192, Note_on_c, 0, 48, 100
2, 144287, Note_on_c, 0, 72, 0
2, 144380, Note_on_c, 0, 60, 0
2, 144383, Note_on_c, 0, 48, 0
2, 144576, Note_on_c, 0, 60, 100
2, 144671, Note_on_c, 0, 60, 0
2, 147936, Note_on_c, 0, 72, 100
2, 148031, Note_on_c, 0, 72, 0
2, 148608, Note_on_c, 0, 72, 100
2, 149375, Note_on_c, 0, 72, 0
2, 150912, Note_on_c, 0, 60, 100
2, 151007, Note_on_c, 0, 60, 0
2, 151776, Note_on_c, 0, 60, 100
2, 151871, Note_on_c, 0, 60, 0
2, 152448, Note_on_c, 0, 72, 100
2, 152640, Note_on_c, 0, 60, 100
2, 152735, Note_on_c, 0, 60, 0
2, 153215, Note_on_c, 0, 72, 0
2, 154272, Note_on_c, 0, 48, 100
2, 154367, Note_on_c, 0, 48, 0
2, 157344, Note_on_c, 0, 72, 100
2, 157439, Note_on_c, 0, 72, 0
2, 158688, Note_on_c, 0, 72, 100
2, 158783, Note_on_c, 0, 72, 0
2, 158784, Note_on_c, 0, 60, 100
2, 158975, Note_on_c, 0, 60, 0
2, 159072, Note_on_c, 0, 72, 100
2, 159167, Note_on_c, 0, 72, 0
2, 159744, Note_on_c, 0, 60, 100
2, 159936, Note_on_c, 0, 72, 100
2, 160031, Note_on_c, 0, 72, 0
2, 160224, Note_on_c, 0, 60, 0
2, 167528, Note_on_c, 0, 60, 100
2, 167719, Note_on_c, 0, 60, 0
2, 170232, Note_on_c, 0, 60, 100
2, 170999, Note_on_c, 0, 60, 0
2, 172656, Note_on_c, 0, 48, 100
2, 172751, Note_on_c, 0, 48, 0
2, 192896, Note_on_c, 0, 60, 100
2, 192896, Note_on_c, 0, 48, 100
2, 193129, Note_on_c, 0, 60, 0
2, 193292, Note_on_c, 0, 72, 100
2, 193349, Note_on_c, 0, 72, 0
2, 193636, Note_on_c, 0, 48, 0
2, 194338, Note_on_c, 0, 60, 100
2, 194422, Note_on_c, 0, 60, 0
2, 194880, Note_on_c, 0, 48, 100
2, 194943, Note_on_c, 0, 48, 0
2, 195206, Note_on_c, 0, 36, 100
2, 195396, Note_on_c, 0, 72, 100
2, 195471, Note_on_c, 0, 72, 0
2, 195632, Note_on_c, 0, 72, 100
2, 195711, Note_on_c, 0, 72, 0
2, 195886, Note_on_c, 0, 36, 0
2, 196224, Note_on_c, 0, 60, 100
2, 196544, Note_on_c, 0, 60, 0
2, 196896, Note_on_c, 0, 72, 100
2, 196991, Note_on_c, 0, 72, 0
2, 196992, Note_on_c, 0, 72, 100
2, 197272, Note_on_c, 0, 72, 0
2, 197280, Note_on_c, 0, 72, 100
2, 197375, Note_on_c, 0, 72, 0
2, 197376, Note_on_c, 0, 72, 100
2, 197471, Note_on_c, 0, 72, 0
2, 197472, Note_on_c, 0, 72, 100
2, 197567, Note_on_c, 0, 72, 0
2, 197664, Note_on_c, 0, 72, 100
2, 197759, Note_on_c, 0, 72, 0
2, 197760, Note_on_c, 0, 72, 100
2, 198040, Note_on_c, 0, 72, 0
2, 198048, Note_on_c, 0, 72, 100
2, 198143, Note_on_c, 0, 72, 0
2, 199488, Note_on_c, 0, 60, 100
2, 199679, Note_on_c, 0, 60, 0
2, 199680, Note_on_c, 0, 60, 100
2, 200160, Note_on_c, 0, 60, 0
2, 200256, Note_on_c, 0, 72, 100
2, 200446, Note_on_c, 0, 72, 0
2, 201216, Note_on_c, 0, 72, 100
2, 201216, Note_on_c, 0, 60, 100
2, 201386, Note_on_c, 0, 60, 0
2, 201504, Note_on_c, 0, 60, 100
2, 201599, Note_on_c, 0, 60, 0
2, 201600, Note_on_c, 0, 60, 100
2, 201696, Note_on_c, 0, 72, 0
2, 201792, Note_on_c, 0, 72, 100
2, 201887, Note_on_c, 0, 60, 0
2, 201888, Note_on_c, 0, 60, 100
2, 201983, Note_on_c, 0, 60, 0
2, 201983, Note_on_c, 0, 72, 0
2, 202560, Note_on_c, 0, 72, 100
2, 202751, Note_on_c, 0, 72, 0
2, 202752, Note_on_c, 0, 72, 100
2, 202944, Note_on_c, 0, 60, 100
2, 203039, Note_on_c, 0, 60, 0
2, 203232, Note_on_c, 0, 72, 0
2, 203328, Note_on_c, 0, 72, 100
2, 203519, Note_on_c, 0, 72, 0
2, 204288, Note_on_c, 0, 72, 100
2, 204768, Note_on_c, 0, 72, 0
2, 204864, Note_on_c, 0, 72, 100
2, 205054, Note_on_c, 0, 72, 0
2, 205056, Note_on_c, 0, 72, 100
2, 205536, Note_on_c, 0, 72, 0
2, 205632, Note_on_c, 0, 72, 100
2, 205822, Note_on_c, 0, 72, 0
2, 208128, Note_on_c, 0, 72, 100
2, 208128, Note_on_c, 0, 60, 100
2, 208223, Note_on_c, 0, 60, 0
2, 208224, Note_on_c, 0, 60, 100
2, 208319, Note_on_c, 0, 60, 0
2, 208416, Note_on_c, 0, 60, 100
2, 208511, Note_on_c, 0, 60, 0
2, 208512, Note_on_c, 0, 60, 100
2, 208608, Note_on_c, 0, 72, 0
2, 208799, Note_on_c, 0, 60, 0
2, 208800, Note_on_c, 0, 60, 100
2, 208895, Note_on_c, 0, 60, 0
2, 208896, Note_on_c, 0, 72, 100
2, 209376, Note_on_c, 0, 72, 0
2, 209472, Note_on_c, 0, 72, 100
2, 209662, Note_on_c, 0, 72, 0
2, 209664, Note_on_c, 0, 72, 100
2, 210144, Note_on_c, 0, 72, 0
2, 210240, Note_on_c, 0, 72, 100
2, 210430, Note_on_c, 0, 72, 0
2, 211776, Note_on_c, 0, 60, 100
2, 211967, Note_on_c, 0, 60, 0
2, 211968, Note_on_c, 0, 60, 100
2, 212348, Note_on_c, 0, 60, 0
2, 213504, Note_on_c, 0, 72, 100
2, 213888, Note_on_c, 0, 60, 100
2, 213983, Note_on_c, 0, 60, 0
2, 213984, Note_on_c, 0, 72, 0
2, 214080, Note_on_c, 0, 72, 100
2, 214176, Note_on_c, 0, 60, 100
2, 214271, Note_on_c, 0, 60, 0
2, 214271, Note_on_c, 0, 72, 0
2, 214272, Note_on_c, 0, 72, 100
2, 214442, Note_on_c, 0, 72, 0
2, 214560, Note_on_c, 0, 72, 100
2, 214655, Note_on_c, 0, 72, 0
2, 214656, Note_on_c, 0, 72, 100
2, 214936, Note_on_c, 0, 72, 0
2, 214944, Note_on_c, 0, 72, 100
2, 215039, Note_on_c, 0, 72, 0
2, 215040, Note_on_c, 0, 72, 100
2, 215135, Note_on_c, 0, 72, 0
2, 215136, Note_on_c, 0, 72, 100
2, 215231, Note_on_c, 0, 72, 0
2, 215328, Note_on_c, 0, 72, 100
2, 215423, Note_on_c, 0, 72, 0
2, 215424, Note_on_c, 0, 72, 100
2, 215704, Note_on_c, 0, 72, 0
2, 217736, Note_on_c, 0, 72, 100
2, 217831, Note_on_c, 0, 72, 0
2, 218024, Note_on_c, 0, 72, 100
2, 218119, Note_on_c, 0, 72, 0
2, 219664, Note_on_c, 0, 72, 100
2, 219664, Note_on_c, 0, 60, 100
2, 219759, Note_on_c, 0, 72, 0
2, 219760, Note_on_c, 0, 72, 100
2, 219855, Note_on_c, 0, 72, 0
2, 219952, Note_on_c, 0, 72, 100
2, 220047, Note_on_c, 0, 72, 0
2, 220048, Note_on_c, 0, 72, 100
2, 220144, Note_on_c, 0, 60, 0
2, 220240, Note_on_c, 0, 60, 100
2, 220328, Note_on_c, 0, 72, 0
2, 220336, Note_on_c, 0, 72, 100
2, 220431, Note_on_c, 0, 72, 0
2, 220431, Note_on_c, 0, 60, 0
2, 221392, Note_on_c, 0, 72, 100
2, 221392, Note_on_c, 0, 60, 100
2, 221487, Note_on_c, 0, 72, 0
2, 221672, Note_on_c, 0, 60, 0
2, 221968, Note_on_c, 0, 60, 100
2, 222063, Note_on_c, 0, 60, 0
2, 222064, Note_on_c, 0, 60, 100
2, 222159, Note_on_c, 0, 60, 0
2, 222160, Note_on_c, 0, 72, 100
2, 222255, Note_on_c, 0, 72, 0
2, 222256, Note_on_c, 0, 60, 100
2, 222351, Note_on_c, 0, 60, 0
2, 226248, Note_on_c, 0, 60, 100
2, 226334, Note_on_c, 0, 60, 0
2, 237976, Note_on_c, 0, 60, 100
2, 238071, Note_on_c, 0, 60, 0
2, 238456, Note_on_c, 0, 60, 100
2, 238936, Note_on_c, 0, 60, 0
2, 239032, Note_on_c, 0, 60, 100
2, 239032, Note_on_c, 0, 72, 100
2, 239127, Note_on_c, 0, 60, 0
2, 239223, Note_on_c, 0, 72, 0
2, 240376, Note_on_c, 0, 60, 100
2, 240567, Note_on_c, 0, 60, 0
2, 240952, Note_on_c, 0, 60, 100
2, 241143, Note_on_c, 0, 60, 0
2, 242872, Note_on_c, 0, 60, 100
2, 243063, Note_on_c, 0, 60, 0
2, 248248, Note_on_c, 0, 72, 100
2, 248439, Note_on_c, 0, 72, 0
2, 248632, Note_on_c, 0, 72, 100
2, 248823, Note_on_c, 0, 72, 0
2, 249208, Note_on_c, 0, 48, 100
2, 249208, Note_on_c, 0, 72, 100
2, 249399, Note_on_c, 0, 48, 0
2, 249588, Note_on_c, 0, 72, 0
2, 249592, Note_on_c, 0, 60, 100
2, 249975, Note_on_c, 0, 60, 0
2, 251128, Note_on_c, 0, 72, 100
2, 251511, Note_on_c, 0, 72, 0
2, 252952, Note_on_c, 0, 72, 100
2, 253047, Note_on_c, 0, 72, 0
2, 255736, Note_on_c, 0, 48, 100
2, 255927, Note_on_c, 0, 48, 0
2, 256312, Note_on_c, 0, 48, 100
2, 256503, Note_on_c, 0, 48, 0
2, 256504, Note_on_c, 0, 60, 100
2, 256887, Note_on_c, 0, 60, 0
2, 256888, Note_on_c, 0, 60, 100
2, 257268, Note_on_c, 0, 60, 0
2, 259480, Note_on_c, 0, 48, 100
2, 259575, Note_on_c, 0, 48, 0
2, 259960, Note_on_c, 0, 48, 100
2, 260440, Note_on_c, 0, 48, 0
2, 260536, Note_on_c, 0, 48, 100
2, 260631, Note_on_c, 0, 48, 0
2, 263224, Note_on_c, 0, 60, 100
2, 263415, Note_on_c, 0, 60, 0
2, 265528, Note_on_c, 0, 60, 100
2, 265719, Note_on_c, 0, 60, 0
2, 265912, Note_on_c, 0, 72, 100
2, 266103, Note_on_c, 0, 72, 0
2, 266488, Note_on_c, 0, 72, 100
2, 266679, Note_on_c, 0, 72, 0
2, 267064, Note_on_c, 0, 72, 100
2, 267255, Note_on_c, 0, 72, 0
2, 267448, Note_on_c, 0, 72, 100
2, 267639, Note_on_c, 0, 72, 0
2, 268408, Note_on_c, 0, 60, 100
2, 268599, Note_on_c, 0, 60, 0
2, 268792, Note_on_c, 0, 60, 100
2, 268983, Note_on_c, 0, 60, 0
2, 268984, Note_on_c, 0, 72, 100
2, 269175, Note_on_c, 0, 72, 0
2, 269368, Note_on_c, 0, 72, 100
2, 269463, Note_on_c, 0, 72, 0
2, 269848, Note_on_c, 0, 60, 100
2, 269943, Note_on_c, 0, 60, 0
2, 270328, Note_on_c, 0, 72, 100
2, 270423, Note_on_c, 0, 72, 0
2, 270520, Note_on_c, 0, 48, 100
2, 270616, Note_on_c, 0, 72, 100
2, 270711, Note_on_c, 0, 72, 0
2, 270711, Note_on_c, 0, 48, 0
2, 270904, Note_on_c, 0, 60, 100
2, 270999, Note_on_c, 0, 60, 0
2, 271576, Note_on_c, 0, 72, 100
2, 271671, Note_on_c, 0, 72, 0
2, 272632, Note_on_c, 0, 72, 100
2, 272823, Note_on_c, 0, 72, 0
2, 273208, Note_on_c, 0, 72, 100
2, 273303, Note_on_c, 0, 72, 0
2, 273400, Note_on_c, 0, 48, 100
2, 273591, Note_on_c, 0, 48, 0
2, 273688, Note_on_c, 0, 72, 100
2, 273783, Note_on_c, 0, 72, 0
2, 273784, Note_on_c, 0, 72, 100
2, 273847, Note_on_c, 0, 72, 0
2, 273912, Note_on_c, 0, 72, 100
2, 273975, Note_on_c, 0, 72, 0
2, 274552, Note_on_c, 0, 60, 100
2, 274743, Note_on_c, 0, 60, 0
2, 275128, Note_on_c, 0, 72, 100
2, 275319, Note_on_c, 0, 72, 0
2, 277432, Note_on_c, 0, 48, 100
2, 277527, Note_on_c, 0, 48, 0
2, 277912, Note_on_c, 0, 48, 100
2, 278007, Note_on_c, 0, 48, 0
2, 278392, Note_on_c, 0, 48, 100
2, 278487, Note_on_c, 0, 48, 0
2, 278584, Note_on_c, 0, 72, 100
2, 278680, Note_on_c, 0, 48, 100
2, 278775, Note_on_c, 0, 48, 0
2, 278775, Note_on_c, 0, 72, 0
2, 278968, Note_on_c, 0, 48, 100
2, 279063, Note_on_c, 0, 48, 0
2, 279640, Note_on_c, 0, 48, 100
2, 279735, Note_on_c, 0, 48, 0
2, 280696, Note_on_c, 0, 60, 100
2, 281271, Note_on_c, 0, 60, 0
2, 281464, Note_on_c, 0, 48, 100
2, 281752, Note_on_c, 0, 60, 100
2, 281847, Note_on_c, 0, 60, 0
2, 281847, Note_on_c, 0, 48, 0
2, 282040, Note_on_c, 0, 60, 100
2, 282135, Note_on_c, 0, 60, 0
2, 282232, Note_on_c, 0, 60, 100
2, 282612, Note_on_c, 0, 60, 0
2, 282808, Note_on_c, 0, 60, 100
2, 282999, Note_on_c, 0, 60, 0
2, 283000, Note_on_c, 0, 60, 100
2, 283063, Note_on_c, 0, 60, 0
2, 283128, Note_on_c, 0, 60, 100
2, 283191, Note_on_c, 0, 60, 0
2, 287416, Note_on_c, 0, 60, 100
2, 287607, Note_on_c, 0, 60, 0
2, 287992, Note_on_c, 0, 60, 100
2, 288183, Note_on_c, 0, 60, 0
2, 288376, Note_on_c, 0, 60, 100
2, 288567, Note_on_c, 0, 60, 0
2, 288760, Note_on_c, 0, 60, 100
2, 289140, Note_on_c, 0, 60, 0
2, 289432, Note_on_c, 0, 60, 100
2, 289527, Note_on_c, 0, 60, 0
2, 290296, Note_on_c, 0, 72, 100
2, 290488, Note_on_c, 0, 60, 100
2, 290583, Note_on_c, 0, 60, 0
2, 290676, Note_on_c, 0, 72, 0
2, 290680, Note_on_c, 0, 60, 100
2, 290871, Note_on_c, 0, 60, 0
2, 291352, Note_on_c, 0, 72, 100
2, 291447, Note_on_c, 0, 72, 0
2, 291640, Note_on_c, 0, 60, 100
2, 291831, Note_on_c, 0, 60, 0
2, 296728, Note_on_c, 0, 48, 100
2, 296823, Note_on_c, 0, 48, 0
2, 297208, Note_on_c, 0, 48, 100
2, 297303, Note_on_c, 0, 48, 0
2, 297496, Note_on_c, 0, 48, 100
2, 297591, Note_on_c, 0, 48, 0
2, 297784, Note_on_c, 0, 48, 100
2, 297975, Note_on_c, 0, 48, 0
2, 298072, Note_on_c, 0, 48, 100
2, 298167, Note_on_c, 0, 48, 0
2, 298744, Note_on_c, 0, 60, 100
2, 298839, Note_on_c, 0, 60, 0
2, 299032, Note_on_c, 0, 60, 100
2, 299127, Note_on_c, 0, 60, 0
2, 299224, Note_on_c, 0, 60, 100
2, 299319, Note_on_c, 0, 60, 0
2, 299896, Note_on_c, 0, 48, 100
2, 300087, Note_on_c, 0, 48, 0
2, 300472, Note_on_c, 0, 48, 100
2, 300663, Note_on_c, 0, 48, 0
2, 301816, Note_on_c, 0, 72, 100
2, 302196, Note_on_c, 0, 72, 0
2, 302200, Note_on_c, 0, 60, 100
2, 302391, Note_on_c, 0, 60, 0
2, 302584, Note_on_c, 0, 72, 100
2, 302775, Note_on_c, 0, 72, 0
2, 305080, Note_on_c, 0, 60, 100
2, 305175, Note_on_c, 0, 60, 0
2, 305560, Note_on_c, 0, 60, 100
2, 305655, Note_on_c, 0, 60, 0
2, 306040, Note_on_c, 0, 60, 100
2, 306135, Note_on_c, 0, 60, 0
2, 306328, Note_on_c, 0, 60, 100
2, 306423, Note_on_c, 0, 60, 0
2, 306424, Note_on_c, 0, 72, 100
2, 306615, Note_on_c, 0, 72, 0
2, 306616, Note_on_c, 0, 60, 100
2, 306711, Note_on_c, 0, 60, 0
2, 307288, Note_on_c, 0, 60, 100
2, 307383, Note_on_c, 0, 60, 0
2, 308728, Note_on_c, 0, 60, 100
2, 309303, Note_on_c, 0, 60, 0
2, 309304, Note_on_c, 0, 60, 100
2, 309495, Note_on_c, 0, 60, 0
2, 312184, Note_on_c, 0, 60, 100
2, 312375, Note_on_c, 0, 60, 0
2, 312472, Note_on_c, 0, 48, 100
2, 312567, Note_on_c, 0, 48, 0
2, 313336, Note_on_c, 0, 60, 100
2, 313719, Note_on_c, 0, 60, 0
2, 313912, Note_on_c, 0, 72, 100
2, 314103, Note_on_c, 0, 72, 0
2, 314776, Note_on_c, 0, 72, 100
2, 314871, Note_on_c, 0, 72, 0
2, 316216, Note_on_c, 0, 72, 100
2, 316407, Note_on_c, 0, 72, 0
2, 317080, Note_on_c, 0, 60, 100
2, 317175, Note_on_c, 0, 60, 0
2, 317944, Note_on_c, 0, 72, 100
2, 318327, Note_on_c, 0, 72, 0
2, 318328, Note_on_c, 0, 72, 100
2, 318520, Note_on_c, 0, 60, 100
2, 318711, Note_on_c, 0, 60, 0
2, 318903, Note_on_c, 0, 72, 0
2, 318904, Note_on_c, 0, 72, 100
2, 319124, Note_on_c, 0, 72, 0
2, 320440, Note_on_c, 0, 60, 100
2, 321015, Note_on_c, 0, 60, 0
2, 322552, Note_on_c, 0, 48, 100
2, 322743, Note_on_c, 0, 48, 0
2, 322936, Note_on_c, 0, 48, 100
2, 323127, Note_on_c, 0, 48, 0
2, 323512, Note_on_c, 0, 60, 100
2, 323703, Note_on_c, 0, 60, 0
2, 324664, Note_on_c, 0, 60, 100
2, 324855, Note_on_c, 0, 60, 0
2, 335896, Note_on_c, 0, 48, 100
2, 335991, Note_on_c, 0, 48, 0
2, 336376, Note_on_c, 0, 48, 100
2, 336856, Note_on_c, 0, 48, 0
2, 336952, Note_on_c, 0, 60, 100
2, 336952, Note_on_c, 0, 72, 100
2, 337047, Note_on_c, 0, 60, 0
2, 337143, Note_on_c, 0, 72, 0
2, 339640, Note_on_c, 0, 48, 100
2, 339831, Note_on_c, 0, 48, 0
2, 342136, Note_on_c, 0, 60, 100
2, 342616, Note_on_c, 0, 60, 0
2, 342712, Note_on_c, 0, 60, 100
2, 342712, Note_on_c, 0, 72, 100
2, 342903, Note_on_c, 0, 72, 0
2, 342903, Note_on_c, 0, 60, 0
2, 342904, Note_on_c, 0, 60, 100
2, 343287, Note_on_c, 0, 60, 0
2, 344248, Note_on_c, 0, 60, 100
2, 344439, Note_on_c, 0, 60, 0
2, 344728, Note_on_c, 0, 72, 100
2, 344823, Note_on_c, 0, 72, 0
2, 345208, Note_on_c, 0, 60, 100
2, 345399, Note_on_c, 0, 60, 0
2, 346744, Note_on_c, 0, 60, 100
2, 347224, Note_on_c, 0, 60, 0
2, 347320, Note_on_c, 0, 60, 100
2, 347511, Note_on_c, 0, 60, 0
2, 347896, Note_on_c, 0, 60, 100
2, 348416, Note_on_c, 0, 60, 0
2, 348472, Note_on_c, 0, 60, 100
2, 348663, Note_on_c, 0, 60, 0
2, 349048, Note_on_c, 0, 60, 100
2, 349528, Note_on_c, 0, 60, 0
2, 349624, Note_on_c, 0, 60, 100
2, 349719, Note_on_c, 0, 60, 0
2, 349816, Note_on_c, 0, 72, 100
2, 350007, Note_on_c, 0, 72, 0
2, 350008, Note_on_c, 0, 60, 100
2, 350199, Note_on_c, 0, 60, 0
2, 350392, Note_on_c, 0, 84, 100
2, 350487, Note_on_c, 0, 84, 0
2, 350776, Note_on_c, 0, 84, 100
2, 350967, Note_on_c, 0, 84, 0
2, 351736, Note_on_c, 0, 48, 100
2, 352016, Note_on_c, 0, 48, 0
2, 352504, Note_on_c, 0, 72, 100
2, 352599, Note_on_c, 0, 72, 0
2, 353272, Note_on_c, 0, 48, 100
2, 353552, Note_on_c, 0, 48, 0
2, 354040, Note_on_c, 0, 48, 100
2, 354231, Note_on_c, 0, 48, 0
2, 355096, Note_on_c, 0, 60, 100
2, 355191, Note_on_c, 0, 60, 0
2, 356536, Note_on_c, 0, 72, 100
2, 356727, Note_on_c, 0, 72, 0
2, 357400, Note_on_c, 0, 60, 100
2, 357495, Note_on_c, 0, 60, 0
2, 357880, Note_on_c, 0, 72, 100
2, 357975, Note_on_c, 0, 72, 0
2, 358072, Note_on_c, 0, 48, 100
2, 358168, Note_on_c, 0, 72, 100
2, 358263, Note_on_c, 0, 72, 0
2, 358263, Note_on_c, 0, 48, 0
2, 358456, Note_on_c, 0, 60, 100
2, 358551, Note_on_c, 0, 60, 0
2, 359128, Note_on_c, 0, 72, 100
2, 359223, Note_on_c, 0, 72, 0
2, 360184, Note_on_c, 0, 48, 100
2, 360375, Note_on_c, 0, 48, 0
2, 361720, Note_on_c, 0, 48, 100
2, 361911, Note_on_c, 0, 48, 0
2, 362296, Note_on_c, 0, 48, 100
2, 362487, Note_on_c, 0, 48, 0
2, 362488, Note_on_c, 0, 60, 100
2, 362871, Note_on_c, 0, 60, 0
2, 363448, Note_on_c, 0, 48, 100
2, 363639, Note_on_c, 0, 48, 0
2, 364024, Note_on_c, 0, 60, 100
2, 364215, Note_on_c, 0, 60, 0
2, 364984, Note_on_c, 0, 60, 100
2, 365175, Note_on_c, 0, 60, 0
2, 366328, Note_on_c, 0, 60, 100
2, 366328, Note_on_c, 0, 72, 100
2, 366519, Note_on_c, 0, 60, 0
2, 366711, Note_on_c, 0, 72, 0
2, 366712, Note_on_c, 0, 72, 100
2, 367287, Note_on_c, 0, 72, 0
2, 367288, Note_on_c, 0, 60, 100
2, 367288, Note_on_c, 0, 72, 100
2, 367479, Note_on_c, 0, 72, 0
2, 367479, Note_on_c, 0, 60, 0
2, 368152, Note_on_c, 0, 60, 100
2, 368247, Note_on_c, 0, 60, 0
2, 368632, Note_on_c, 0, 60, 100
2, 369016, Note_on_c, 0, 72, 100
2, 369112, Note_on_c, 0, 60, 0
2, 369207, Note_on_c, 0, 72, 0
2, 369208, Note_on_c, 0, 60, 100
2, 369303, Note_on_c, 0, 60, 0
2, 371320, Note_on_c, 0, 48, 100
2, 371511, Note_on_c, 0, 48, 0
2, 371512, Note_on_c, 0, 60, 100
2, 371703, Note_on_c, 0, 60, 0
2, 373528, Note_on_c, 0, 60, 100
2, 373623, Note_on_c, 0, 60, 0
2, 392824, Note_on_c, 0, 60, 100
2, 393204, Note_on_c, 0, 60, 0
2, 393400, Note_on_c, 0, 60, 100
2, 393400, Note_on_c, 0, 72, 100
2, 393591, Note_on_c, 0, 72, 0
2, 393591, Note_on_c, 0, 60, 0
2, 393592, Note_on_c, 0, 60, 100
2, 393975, Note_on_c, 0, 60, 0
2, 396568, Note_on_c, 0, 72, 100
2, 396663, Note_on_c, 0, 72, 0
2, 398104, Note_on_c, 0, 48, 100
2, 398199, Note_on_c, 0, 48, 0
2, 398584, Note_on_c, 0, 48, 100
2, 398679, Note_on_c, 0, 48, 0
2, 398776, Note_on_c, 0, 48, 100
2, 398871, Note_on_c, 0, 48, 0
2, 399064, Note_on_c, 0, 48, 100
2, 399159, Note_on_c, 0, 48, 0
2, 399448, Note_on_c, 0, 48, 100
2, 399543, Note_on_c, 0, 48, 0
2, 400888, Note_on_c, 0, 48, 100
2, 400983, Note_on_c, 0, 48, 0
2, 401848, Note_on_c, 0, 72, 100
2, 401943, Note_on_c, 0, 72, 0
2, 401944, Note_on_c, 0, 48, 100
2, 402039, Note_on_c, 0, 48, 0
2, 402328, Note_on_c, 0, 72, 100
2, 402423, Note_on_c, 0, 72, 0
2, 402423, End_track
3, 0, Start_track
3, 0, Title_t, "Harpsichord"
3, 0, Program_c, 0, 6
3, 0, Control_c, 0, 7, 100
3, 0, Control_c, 0, 10, 64
3, 0, Pitch_bend_c, 0, 7790
3, 320, Note_on_c, 0, 61, 100
3, 410, Note_on_c, 0, 61, 0
3, 695, Note_on_c, 0, 61, 100
3, 785, Note_on_c, 0, 61, 0
3, 1070, Note_on_c, 0, 61, 100
3, 1160, Note_on_c, 0, 61, 0
3, 3459, Note_on_c, 0, 49, 100
3, 3620, Note_on_c, 0, 49, 0
3, 4396, Note_on_c, 0, 49, 100
3, 4510, Note_on_c, 0, 49, 0
3, 5332, Note_on_c, 0, 61, 100
3, 5680, Note_on_c, 0, 61, 0
3, 6859, Note_on_c, 0, 73, 100
3, 6901, Note_on_c, 0, 73, 0
3, 6990, Note_on_c, 0, 61, 100
3, 7032, Note_on_c, 0, 61, 0
3, 8505, Note_on_c, 0, 61, 100
3, 8545, Note_on_c, 0, 61, 0
3, 9005, Note_on_c, 0, 61, 100
3, 9045, Note_on_c, 0, 61, 0
3, 9826, Note_on_c, 0, 61, 100
3, 9919, Note_on_c, 0, 61, 0
3, 10492, Note_on_c, 0, 61, 100
3, 10707, Note_on_c, 0, 61, 0
3, 11306, Note_on_c, 0, 61, 100
3, 11506, Note_on_c, 0, 61, 0
3, 11605, Note_on_c, 0, 61, 100
3, 11695, Note_on_c, 0, 61, 0
3, 11970, Note_on_c, 0, 61, 100
3, 12060, Note_on_c, 0, 61, 0
3, 13525, Note_on_c, 0, 73, 100
3, 13705, Note_on_c, 0, 73, 0
3, 13799, Note_on_c, 0, 73, 100
3, 13889, Note_on_c, 0, 73, 0
3, 15857, Note_on_c, 0, 73, 100
3, 16037, Note_on_c, 0, 73, 0
3, 16650, Note_on_c, 0, 73, 100
3, 16879, Note_on_c, 0, 73, 0
3, 17035, Note_on_c, 0, 49, 100
3, 17176, Note_on_c, 0, 49, 0
3, 17862, Note_on_c, 0, 61, 100
3, 17918, Note_on_c, 0, 61, 0
3, 18508, Note_on_c, 0, 73, 100
3, 18607, Note_on_c, 0, 73, 0
3, 18710, Note_on_c, 0, 61, 100
3, 18809, Note_on_c, 0, 61, 0
3, 19113, Note_on_c, 0, 73, 100
3, 19212, Note_on_c, 0, 73, 0
3, 19315, Note_on_c, 0, 61, 100
3, 19414, Note_on_c, 0, 61, 0
3, 19718, Note_on_c, 0, 73, 100
3, 19817, Note_on_c, 0, 73, 0
3, 19920, Note_on_c, 0, 61, 100
3, 20019, Note_on_c, 0, 61, 0
3, 20121, Note_on_c, 0, 73, 100
3, 20220, Note_on_c, 0, 73, 0
3, 20527, Note_on_c, 0, 73, 100
3, 20630, Note_on_c, 0, 73, 0
3, 20957, Note_on_c, 0, 73, 100
3, 21064, Note_on_c, 0, 73, 0
3, 21176, Note_on_c, 0, 49, 100
3, 21283, Note_on_c, 0, 49, 0
3, 21397, Note_on_c, 0, 73, 100
3, 21504, Note_on_c, 0, 73, 0
3, 21987, Note_on_c, 0, 61, 100
3, 22117, Note_on_c, 0, 61, 0
3, 22263, Note_on_c, 0, 61, 100
3, 22581, Note_on_c, 0, 49, 100
3, 22711, Note_on_c, 0, 49, 0
3, 23136, Note_on_c, 0, 61, 0
3, 25344, Note_on_c, 0, 61, 100
3, 25727, Note_on_c, 0, 61, 0
3, 26496, Note_on_c, 0, 61, 100
3, 26879, Note_on_c, 0, 61, 0
3, 28032, Note_on_c, 0, 61, 100
3, 28415, Note_on_c, 0, 61, 0
3, 30624, Note_on_c, 0, 61, 100
3, 30719, Note_on_c, 0, 61, 0
3, 30720, Note_on_c, 0, 61, 100
3, 31103, Note_on_c, 0, 61, 0
3, 34576, Note_on_c, 0, 49, 100
3, 34926, Note_on_c, 0, 49, 0
3, 37168, Note_on_c, 0, 49, 100
3, 37263, Note_on_c, 0, 49, 0
3, 37264, Note_on_c, 0, 49, 100
3, 37647, Note_on_c, 0, 49, 0
3, 38224, Note_on_c, 0, 61, 100
3, 38319, Note_on_c, 0, 61, 0
3, 38416, Note_on_c, 0, 49, 100
3, 38608, Note_on_c, 0, 61, 100
3, 38671, Note_on_c, 0, 61, 0
3, 38799, Note_on_c, 0, 49, 0
3, 39376, Note_on_c, 0, 61, 100
3, 39471, Note_on_c, 0, 61, 0
3, 39568, Note_on_c, 0, 61, 100
3, 39759, Note_on_c, 0, 61, 0
3, 41872, Note_on_c, 0, 49, 100
3, 42082, Note_on_c, 0, 61, 100
3, 42177, Note_on_c, 0, 61, 0
3, 42252, Note_on_c, 0, 49, 0
3, 43624, Note_on_c, 0, 49, 100
3, 43815, Note_on_c, 0, 49, 0
3, 44575, Note_on_c, 0, 73, 100
3, 44649, Note_on_c, 0, 73, 0
3, 44800, Note_on_c, 0, 49, 100
3, 45130, Note_on_c, 0, 73, 100
3, 45180, Note_on_c, 0, 49, 0
3, 45207, Note_on_c, 0, 73, 0
3, 45806, Note_on_c, 0, 61, 100
3, 45875, Note_on_c, 0, 61, 0
3, 47084, Note_on_c, 0, 73, 100
3, 47164, Note_on_c, 0, 73, 0
3, 48064, Note_on_c, 0, 73, 100
3, 48261, Note_on_c, 0, 73, 0
3, 49560, Note_on_c, 0, 73, 100
3, 49726, Note_on_c, 0, 73, 0
3, 50460, Note_on_c, 0, 73, 100
3, 50668, Note_on_c, 0, 73, 0
3, 55680, Note_on_c, 0, 61, 100
3, 56063, Note_on_c, 0, 61, 0
3, 58368, Note_on_c, 0, 61, 100
3, 58543, Note_on_c, 0, 61, 0
3, 59520, Note_on_c, 0, 61, 100
3, 59903, Note_on_c, 0, 61, 0
3, 72192, Note_on_c, 0, 49, 100
3, 72383, Note_on_c, 0, 49, 0
3, 74880, Note_on_c, 0, 73, 100
3, 75263, Note_on_c, 0, 73, 0
3, 76416, Note_on_c, 0, 49, 100
3, 76799, Note_on_c, 0, 49, 0
3, 77952, Note_on_c, 0, 61, 100
3, 78335, Note_on_c, 0, 61, 0
3, 81696, Note_on_c, 0, 73, 100
3, 81791, Note_on_c, 0, 73, 0
3, 82560, Note_on_c, 0, 73, 100
3, 82943, Note_on_c, 0, 73, 0
3, 85248, Note_on_c, 0, 73, 100
3, 85428, Note_on_c, 0, 73, 0
3, 86400, Note_on_c, 0, 73, 100
3, 86783, Note_on_c, 0, 73, 0
3, 87936, Note_on_c, 0, 73, 100
3, 88319, Note_on_c, 0, 73, 0
3, 89472, Note_on_c, 0, 73, 100
3, 89855, Note_on_c, 0, 73, 0
3, 99840, Note_on_c, 0, 49, 100
3, 100031, Note_on_c, 0, 49, 0
3, 100032, Note_on_c, 0, 61, 100
3, 100223, Note_on_c, 0, 61, 0
3, 102528, Note_on_c, 0, 49, 100
3, 102911, Note_on_c, 0, 49, 0
3, 104064, Note_on_c, 0, 73, 100
3, 104447, Note_on_c, 0, 73, 0
3, 105600, Note_on_c, 0, 73, 100
3, 105980, Note_on_c, 0, 73, 0
3, 132480, Note_on_c, 0, 73, 100
3, 132863, Note_on_c, 0, 73, 0
3, 139392, Note_on_c, 0, 49, 100
3, 139772, Note_on_c, 0, 49, 0
3, 140928, Note_on_c, 0, 49, 100
3, 141311, Note_on_c, 0, 49, 0
3, 142464, Note_on_c, 0, 61, 100
3, 142847, Note_on_c, 0, 61, 0
3, 145536, Note_on_c, 0, 49, 100
3, 145727, Note_on_c, 0, 49, 0
3, 147072, Note_on_c, 0, 73, 100
3, 147455, Note_on_c, 0, 73, 0
3, 149760, Note_on_c, 0, 61, 100
3, 149855, Note_on_c, 0, 61, 0
3, 150048, Note_on_c, 0, 61, 100
3, 150143, Note_on_c, 0, 61, 0
3, 153600, Note_on_c, 0, 61, 100
3, 153983, Note_on_c, 0, 61, 0
3, 154944, Note_on_c, 0, 49, 100
3, 155135, Note_on_c, 0, 49, 0
3, 156480, Note_on_c, 0, 49, 100
3, 156671, Note_on_c, 0, 49, 0
3, 156960, Note_on_c, 0, 61, 100
3, 157055, Note_on_c, 0, 61, 0
3, 158208, Note_on_c, 0, 73, 100
3, 158303, Note_on_c, 0, 73, 0
3, 160320, Note_on_c, 0, 61, 100
3, 160511, Note_on_c, 0, 61, 0
3, 161104, Note_on_c, 0, 73, 100
3, 161199, Note_on_c, 0, 73, 0
3, 161404, Note_on_c, 0, 61, 100
3, 161499, Note_on_c, 0, 61, 0
3, 161888, Note_on_c, 0, 73, 100
3, 161983, Note_on_c, 0, 73, 0
3, 162080, Note_on_c, 0, 73, 100
3, 162460, Note_on_c, 0, 73, 0
3, 162784, Note_on_c, 0, 73, 100
3, 162879, Note_on_c, 0, 73, 0
3, 163456, Note_on_c, 0, 73, 100
3, 163600, Note_on_c, 0, 73, 0
3, 164824, Note_on_c, 0, 73, 100
3, 165207, Note_on_c, 0, 73, 0
3, 166360, Note_on_c, 0, 49, 100
3, 166743, Note_on_c, 0, 49, 0
3, 168504, Note_on_c, 0, 61, 100
3, 168599, Note_on_c, 0, 61, 0
3, 169080, Note_on_c, 0, 61, 100
3, 169368, Note_on_c, 0, 49, 100
3, 169463, Note_on_c, 0, 49, 0
3, 169463, Note_on_c, 0, 61, 0
3, 171768, Note_on_c, 0, 61, 100
3, 172151, Note_on_c, 0, 61, 0
3, 173232, Note_on_c, 0, 61, 100
3, 173327, Note_on_c, 0, 61, 0
3, 174000, Note_on_c, 0, 61, 100
3, 174095, Note_on_c, 0, 61, 0
3, 174768, Note_on_c, 0, 61, 100
3, 174863, Note_on_c, 0, 61, 0
3, 175536, Note_on_c, 0, 61, 100
3, 175631, Note_on_c, 0, 61, 0
3, 176304, Note_on_c, 0, 61, 100
3, 176399, Note_on_c, 0, 61, 0
3, 176688, Note_on_c, 0, 49, 100
3, 176783, Note_on_c, 0, 49, 0
3, 177264, Note_on_c, 0, 61, 100
3, 177359, Note_on_c, 0, 61, 0
3, 177552, Note_on_c, 0, 61, 100
3, 177992, Note_on_c, 0, 61, 0
3, 178152, Note_on_c, 0, 61, 100
3, 178247, Note_on_c, 0, 61, 0
3, 179304, Note_on_c, 0, 61, 100
3, 179399, Note_on_c, 0, 61, 0
3, 179688, Note_on_c, 0, 73, 100
3, 179783, Note_on_c, 0, 73, 0
3, 180840, Note_on_c, 0, 73, 100
3, 180935, Note_on_c, 0, 73, 0
3, 181512, Note_on_c, 0, 73, 100
3, 181607, Note_on_c, 0, 73, 0
3, 182376, Note_on_c, 0, 61, 100
3, 182471, Note_on_c, 0, 61, 0
3, 183144, Note_on_c, 0, 61, 100
3, 183239, Note_on_c, 0, 61, 0
3, 184296, Note_on_c, 0, 61, 100
3, 184486, Note_on_c, 0, 61, 0
3, 184608, Note_on_c, 0, 61, 100
3, 184703, Note_on_c, 0, 61, 0
3, 187128, Note_on_c, 0, 61, 100
3, 187168, Note_on_c, 0, 61, 0
3, 187202, Note_on_c, 0, 61, 100
3, 187242, Note_on_c, 0, 61, 0
3, 187264, Note_on_c, 0, 61, 100
3, 187304, Note_on_c, 0, 61, 0
3, 187320, Note_on_c, 0, 61, 100
3, 187408, Note_on_c, 0, 61, 0
3, 188460, Note_on_c, 0, 49, 100
3, 188564, Note_on_c, 0, 49, 0
3, 193970, Note_on_c, 0, 61, 100
3, 194063, Note_on_c, 0, 61, 0
3, 198912, Note_on_c, 0, 61, 100
3, 199104, Note_on_c, 0, 73, 100
3, 199199, Note_on_c, 0, 73, 0
3, 199392, Note_on_c, 0, 61, 0
3, 201984, Note_on_c, 0, 73, 100
3, 202176, Note_on_c, 0, 61, 100
3, 202271, Note_on_c, 0, 61, 0
3, 202464, Note_on_c, 0, 73, 0
3, 210336, Note_on_c, 0, 73, 100
3, 210431, Note_on_c, 0, 73, 0
3, 210432, Note_on_c, 0, 73, 100
3, 210602, Note_on_c, 0, 73, 0
3, 210624, Note_on_c, 0, 73, 100
3, 210719, Note_on_c, 0, 73, 0
3, 211008, Note_on_c, 0, 61, 100
3, 211199, Note_on_c, 0, 61, 0
3, 211200, Note_on_c, 0, 61, 100
3, 211392, Note_on_c, 0, 73, 100
3, 211487, Note_on_c, 0, 73, 0
3, 211680, Note_on_c, 0, 61, 0
3, 212352, Note_on_c, 0, 73, 100
3, 212472, Note_on_c, 0, 73, 0
3, 212640, Note_on_c, 0, 73, 100
3, 212735, Note_on_c, 0, 73, 0
3, 216576, Note_on_c, 0, 49, 100
3, 217056, Note_on_c, 0, 49, 0
3, 217152, Note_on_c, 0, 49, 100
3, 217343, Note_on_c, 0, 49, 0
3, 223504, Note_on_c, 0, 49, 100
3, 223984, Note_on_c, 0, 49, 0
3, 224080, Note_on_c, 0, 49, 100
3, 224271, Note_on_c, 0, 49, 0
3, 224828, Note_on_c, 0, 61, 100
3, 224914, Note_on_c, 0, 61, 0
3, 225526, Note_on_c, 0, 49, 100
3, 225612, Note_on_c, 0, 49, 0
3, 227544, Note_on_c, 0, 61, 100
3, 227639, Note_on_c, 0, 61, 0
3, 227928, Note_on_c, 0, 61, 100
3, 228023, Note_on_c, 0, 61, 0
3, 228696, Note_on_c, 0, 61, 100
3, 228791, Note_on_c, 0, 61, 0
3, 230294, Note_on_c, 0, 61, 100
3, 230674, Note_on_c, 0, 61, 0
3, 234232, Note_on_c, 0, 73, 100
3, 234807, Note_on_c, 0, 73, 0
3, 234808, Note_on_c, 0, 73, 100
3, 234999, Note_on_c, 0, 73, 0
3, 236536, Note_on_c, 0, 61, 100
3, 237111, Note_on_c, 0, 61, 0
3, 237112, Note_on_c, 0, 61, 100
3, 237303, Note_on_c, 0, 61, 0
3, 241912, Note_on_c, 0, 73, 100
3, 242103, Note_on_c, 0, 73, 0
3, 244120, Note_on_c, 0, 73, 100
3, 244215, Note_on_c, 0, 73, 0
3, 245048, Note_on_c, 0, 73, 100
3, 245111, Note_on_c, 0, 73, 0
3, 245176, Note_on_c, 0, 73, 100
3, 245296, Note_on_c, 0, 73, 0
3, 246904, Note_on_c, 0, 73, 100
3, 247479, Note_on_c, 0, 73, 0
3, 247480, Note_on_c, 0, 73, 100
3, 247671, Note_on_c, 0, 73, 0
3, 251512, Note_on_c, 0, 73, 100
3, 252087, Note_on_c, 0, 73, 0
3, 252088, Note_on_c, 0, 73, 100
3, 252279, Note_on_c, 0, 73, 0
3, 253816, Note_on_c, 0, 61, 100
3, 254391, Note_on_c, 0, 61, 0
3, 254392, Note_on_c, 0, 61, 100
3, 254583, Note_on_c, 0, 61, 0
3, 258040, Note_on_c, 0, 61, 100
3, 258420, Note_on_c, 0, 61, 0
3, 258424, Note_on_c, 0, 49, 100
3, 258615, Note_on_c, 0, 49, 0
3, 262264, Note_on_c, 0, 73, 100
3, 262455, Note_on_c, 0, 73, 0
3, 264184, Note_on_c, 0, 73, 100
3, 264759, Note_on_c, 0, 73, 0
3, 264760, Note_on_c, 0, 73, 100
3, 264951, Note_on_c, 0, 73, 0
3, 276472, Note_on_c, 0, 49, 100
3, 276663, Note_on_c, 0, 49, 0
3, 276856, Note_on_c, 0, 49, 100
3, 277047, Note_on_c, 0, 49, 0
3, 283768, Note_on_c, 0, 73, 100
3, 283959, Note_on_c, 0, 73, 0
3, 284152, Note_on_c, 0, 61, 100
3, 284343, Note_on_c, 0, 61, 0
3, 286072, Note_on_c, 0, 73, 100
3, 286647, Note_on_c, 0, 73, 0
3, 286648, Note_on_c, 0, 73, 100
3, 286839, Note_on_c, 0, 73, 0
3, 292408, Note_on_c, 0, 61, 100
3, 292503, Note_on_c, 0, 61, 0
3, 293560, Note_on_c, 0, 61, 100
3, 293751, Note_on_c, 0, 61, 0
3, 295288, Note_on_c, 0, 49, 100
3, 295863, Note_on_c, 0, 49, 0
3, 295864, Note_on_c, 0, 49, 100
3, 296055, Note_on_c, 0, 49, 0
3, 304120, Note_on_c, 0, 61, 100
3, 304311, Note_on_c, 0, 61, 0
3, 304504, Note_on_c, 0, 61, 100
3, 304695, Note_on_c, 0, 61, 0
3, 308344, Note_on_c, 0, 61, 100
3, 308727, Note_on_c, 0, 61, 0
3, 310264, Note_on_c, 0, 49, 100
3, 310359, Note_on_c, 0, 49, 0
3, 310552, Note_on_c, 0, 49, 100
3, 310647, Note_on_c, 0, 49, 0
3, 311800, Note_on_c, 0, 61, 100
3, 312183, Note_on_c, 0, 61, 0
3, 324856, Note_on_c, 0, 49, 100
3, 325047, Note_on_c, 0, 49, 0
3, 325240, Note_on_c, 0, 49, 100
3, 325431, Note_on_c, 0, 49, 0
3, 325816, Note_on_c, 0, 49, 100
3, 326007, Note_on_c, 0, 49, 0
3, 326008, Note_on_c, 0, 61, 100
3, 326391, Note_on_c, 0, 61, 0
3, 326392, Note_on_c, 0, 49, 100
3, 326583, Note_on_c, 0, 49, 0
3, 328120, Note_on_c, 0, 61, 100
3, 328311, Note_on_c, 0, 61, 0
3, 329848, Note_on_c, 0, 61, 100
3, 330423, Note_on_c, 0, 61, 0
3, 330424, Note_on_c, 0, 61, 100
3, 330615, Note_on_c, 0, 61, 0
3, 332152, Note_on_c, 0, 73, 100
3, 332727, Note_on_c, 0, 73, 0
3, 332728, Note_on_c, 0, 73, 100
3, 332919, Note_on_c, 0, 73, 0
3, 334456, Note_on_c, 0, 49, 100
3, 335031, Note_on_c, 0, 49, 0
3, 335032, Note_on_c, 0, 49, 100
3, 335223, Note_on_c, 0, 49, 0
3, 338680, Note_on_c, 0, 73, 100
3, 338871, Note_on_c, 0, 73, 0
3, 372088, Note_on_c, 0, 73, 100
3, 372471, Note_on_c, 0, 73, 0
3, 372472, Note_on_c, 0, 61, 100
3, 372663, Note_on_c, 0, 61, 0
3, 373048, Note_on_c, 0, 61, 100
3, 373239, Note_on_c, 0, 61, 0
3, 374584, Note_on_c, 0, 61, 100
3, 374679, Note_on_c, 0, 61, 0
3, 374776, Note_on_c, 0, 73, 100
3, 374968, Note_on_c, 0, 61, 100
3, 375159, Note_on_c, 0, 61, 0
3, 375351, Note_on_c, 0, 73, 0
3, 375352, Note_on_c, 0, 73, 100
3, 375543, Note_on_c, 0, 73, 0
3, 375544, Note_on_c, 0, 73, 100
3, 375924, Note_on_c, 0, 73, 0
3, 375928, Note_on_c, 0, 61, 100
3, 376119, Note_on_c, 0, 61, 0
3, 376792, Note_on_c, 0, 73, 100
3, 376887, Note_on_c, 0, 73, 0
3, 376984, Note_on_c, 0, 73, 100
3, 377079, Note_on_c, 0, 73, 0
3, 377176, Note_on_c, 0, 73, 100
3, 377271, Note_on_c, 0, 73, 0
3, 377368, Note_on_c, 0, 73, 100
3, 377463, Note_on_c, 0, 73, 0
3, 377560, Note_on_c, 0, 73, 100
3, 377655, Note_on_c, 0, 73, 0
3, 377752, Note_on_c, 0, 73, 100
3, 377847, Note_on_c, 0, 73, 0
3, 377944, Note_on_c, 0, 73, 100
3, 378039, Note_on_c, 0, 73, 0
3, 378136, Note_on_c, 0, 73, 100
3, 378231, Note_on_c, 0, 73, 0
3, 378328, Note_on_c, 0, 73, 100
3, 378423, Note_on_c, 0, 73, 0
3, 378520, Note_on_c, 0, 73, 100
3, 378615, Note_on_c, 0, 73, 0
3, 378712, Note_on_c, 0, 73, 100
3, 378807, Note_on_c, 0, 73, 0
3, 378904, Note_on_c, 0, 73, 100
3, 378999, Note_on_c, 0, 73, 0
3, 382456, Note_on_c, 0, 61, 100
3, 382647, Note_on_c, 0, 61, 0
3, 382840, Note_on_c, 0, 61, 100
3, 383031, Note_on_c, 0, 61, 0
3, 384568, Note_on_c, 0, 61, 100
3, 384759, Note_on_c, 0, 61, 0
3, 386296, Note_on_c, 0, 61, 100
3, 386871, Note_on_c, 0, 61, 0
3, 386872, Note_on_c, 0, 61, 100
3, 387063, Note_on_c, 0, 61, 0
3, 388600, Note_on_c, 0, 73, 100
3, 389175, Note_on_c, 0, 73, 0
3, 389176, Note_on_c, 0, 73, 100
3, 389367, Note_on_c, 0, 73, 0
3, 390904, Note_on_c, 0, 49, 100
3, 391479, Note_on_c, 0, 49, 0
3, 391480, Note_on_c, 0, 49, 100
3, 391671, Note_on_c, 0, 49, 0
3, 394264, Note_on_c, 0, 73, 100
3, 394359, Note_on_c, 0, 73, 0
3, 395416, Note_on_c, 0, 73, 100
3, 395511, Note_on_c, 0, 73, 0
3, 397432, Note_on_c, 0, 49, 100
3, 397527, Note_on_c, 0, 49, 0
3, 397624, Note_on_c, 0, 49, 100
3, 397719, Note_on_c, 0, 49, 0
3, 400120, Note_on_c, 0, 61, 100
3, 400216, Note_on_c, 0, 49, 100
3, 400311, Note_on_c, 0, 49, 0
3, 400311, Note_on_c, 0, 61, 0
3, 401080, Note_on_c, 0, 49, 100
3, 401175, Note_on_c, 0, 49, 0
3, 403192, Note_on_c, 0, 73, 100
3, 403287, Note_on_c, 0, 73, 0
3, 403395, Note_on_c, 0, 61, 100
3, 403595, Note_on_c, 0, 61, 0
3, 404005, Note_on_c, 0, 73, 100
3, 404407, Note_on_c, 0, 73, 0
3, 404652, Note_on_c, 0, 61, 100
3, 404865, Note_on_c, 0, 61, 0
3, 405318, Note_on_c, 0, 73, 100
3, 405801, Note_on_c, 0, 73, 0
3, 405801, End_track
4, 0, Start_track
4, 0, Title_t, "Johann Sebastian Bach  (1685-1750)"
4, 0, Program_c, 0, 6
4, 0, Control_c, 0, 7, 100
4, 0, Control_c, 0, 10, 64
4, 0, Pitch_bend_c, 0, 7876
4, 45, Note_on_c, 0, 50, 100
4, 228, Note_on_c, 0, 62, 100
4, 318, Note_on_c, 0, 62, 0
4, 411, Note_on_c, 0, 62, 100
4, 502, Note_on_c, 0, 50, 0
4, 525, Note_on_c, 0, 62, 0
4, 603, Note_on_c, 0, 62, 100
4, 693, Note_on_c, 0, 62, 0
4, 786, Note_on_c, 0, 62, 100
4, 900, Note_on_c, 0, 62, 0
4, 979, Note_on_c, 0, 62, 100
4, 1069, Note_on_c, 0, 62, 0
4, 1161, Note_on_c, 0, 62, 100
4, 1253, Note_on_c, 0, 50, 100
4, 1275, Note_on_c, 0, 62, 0
4, 1354, Note_on_c, 0, 62, 100
4, 1433, Note_on_c, 0, 50, 0
4, 1462, Note_on_c, 0, 62, 0
4, 1537, Note_on_c, 0, 62, 100
4, 1641, Note_on_c, 0, 62, 0
4, 1721, Note_on_c, 0, 62, 100
4, 1811, Note_on_c, 0, 62, 0
4, 2727, Note_on_c, 0, 50, 100
4, 2907, Note_on_c, 0, 50, 0
4, 4030, Note_on_c, 0, 50, 100
4, 4182, Note_on_c, 0, 50, 0
4, 4579, Note_on_c, 0, 50, 100
4, 4915, Note_on_c, 0, 62, 100
4, 4983, Note_on_c, 0, 38, 100
4, 5087, Note_on_c, 0, 62, 0
4, 5140, Note_on_c, 0, 50, 0
4, 5155, Note_on_c, 0, 38, 0
4, 5264, Note_on_c, 0, 62, 100
4, 5330, Note_on_c, 0, 62, 0
4, 6030, Note_on_c, 0, 62, 100
4, 6312, Note_on_c, 0, 74, 100
4, 6379, Note_on_c, 0, 50, 100
4, 6512, Note_on_c, 0, 74, 0
4, 6529, Note_on_c, 0, 50, 0
4, 6530, Note_on_c, 0, 62, 0
4, 6661, Note_on_c, 0, 74, 100
4, 6727, Note_on_c, 0, 74, 0
4, 8004, Note_on_c, 0, 74, 100
4, 8044, Note_on_c, 0, 74, 0
4, 8463, Note_on_c, 0, 62, 100
4, 8503, Note_on_c, 0, 62, 0
4, 8546, Note_on_c, 0, 62, 100
4, 8586, Note_on_c, 0, 62, 0
4, 8964, Note_on_c, 0, 62, 100
4, 9004, Note_on_c, 0, 62, 0
4, 9921, Note_on_c, 0, 62, 100
4, 10203, Note_on_c, 0, 50, 100
4, 10296, Note_on_c, 0, 50, 0
4, 10479, Note_on_c, 0, 62, 0
4, 10688, Note_on_c, 0, 50, 100
4, 10805, Note_on_c, 0, 38, 100
4, 10878, Note_on_c, 0, 50, 0
4, 11114, Note_on_c, 0, 62, 100
4, 11305, Note_on_c, 0, 62, 0
4, 11482, Note_on_c, 0, 38, 0
4, 11513, Note_on_c, 0, 50, 100
4, 11513, Note_on_c, 0, 38, 100
4, 11513, Note_on_c, 0, 62, 100
4, 11603, Note_on_c, 0, 62, 0
4, 11696, Note_on_c, 0, 62, 100
4, 11962, Note_on_c, 0, 62, 0
4, 12062, Note_on_c, 0, 62, 100
4, 12243, Note_on_c, 0, 38, 0
4, 12243, Note_on_c, 0, 50, 0
4, 12245, Note_on_c, 0, 38, 100
4, 12245, Note_on_c, 0, 50, 100
4, 12328, Note_on_c, 0, 62, 0
4, 12519, Note_on_c, 0, 62, 100
4, 12699, Note_on_c, 0, 62, 0
4, 12885, Note_on_c, 0, 62, 100
4, 12975, Note_on_c, 0, 50, 0
4, 12975, Note_on_c, 0, 38, 0
4, 12976, Note_on_c, 0, 38, 100
4, 12976, Note_on_c, 0, 50, 100
4, 12976, Note_on_c, 0, 74, 100
4, 13246, Note_on_c, 0, 62, 0
4, 13318, Note_on_c, 0, 74, 0
4, 13706, Note_on_c, 0, 50, 0
4, 13706, Note_on_c, 0, 38, 0
4, 13707, Note_on_c, 0, 50, 100
4, 13707, Note_on_c, 0, 38, 100
4, 13890, Note_on_c, 0, 74, 100
4, 14156, Note_on_c, 0, 74, 0
4, 14256, Note_on_c, 0, 74, 100
4, 14437, Note_on_c, 0, 38, 0
4, 14437, Note_on_c, 0, 50, 0
4, 14439, Note_on_c, 0, 38, 100
4, 14439, Note_on_c, 0, 50, 100
4, 14522, Note_on_c, 0, 74, 0
4, 14530, Note_on_c, 0, 74, 100
4, 14620, Note_on_c, 0, 74, 0
4, 15169, Note_on_c, 0, 50, 0
4, 15169, Note_on_c, 0, 38, 0
4, 15170, Note_on_c, 0, 50, 100
4, 15170, Note_on_c, 0, 38, 100
4, 15460, Note_on_c, 0, 74, 100
4, 15640, Note_on_c, 0, 74, 0
4, 15658, Note_on_c, 0, 74, 100
4, 15748, Note_on_c, 0, 74, 0
4, 15900, Note_on_c, 0, 38, 0
4, 15900, Note_on_c, 0, 50, 0
4, 15960, Note_on_c, 0, 50, 100
4, 15960, Note_on_c, 0, 38, 100
4, 16420, Note_on_c, 0, 74, 100
4, 16649, Note_on_c, 0, 74, 0
4, 16883, Note_on_c, 0, 74, 100
4, 17010, Note_on_c, 0, 50, 0
4, 17110, Note_on_c, 0, 38, 0
4, 17178, Note_on_c, 0, 50, 100
4, 17302, Note_on_c, 0, 50, 0
4, 17304, Note_on_c, 0, 38, 100
4, 17428, Note_on_c, 0, 38, 0
4, 17430, Note_on_c, 0, 50, 100
4, 17609, Note_on_c, 0, 50, 0
4, 17913, Note_on_c, 0, 62, 100
4, 17933, Note_on_c, 0, 74, 0
4, 17978, Note_on_c, 0, 62, 0
4, 18408, Note_on_c, 0, 74, 100
4, 18507, Note_on_c, 0, 74, 0
4, 18609, Note_on_c, 0, 62, 100
4, 18609, Note_on_c, 0, 74, 100
4, 18708, Note_on_c, 0, 74, 0
4, 18708, Note_on_c, 0, 62, 0
4, 18811, Note_on_c, 0, 62, 100
4, 18910, Note_on_c, 0, 62, 0
4, 19012, Note_on_c, 0, 74, 100
4, 19111, Note_on_c, 0, 74, 0
4, 19214, Note_on_c, 0, 62, 100
4, 19214, Note_on_c, 0, 74, 100
4, 19313, Note_on_c, 0, 74, 0
4, 19313, Note_on_c, 0, 62, 0
4, 19416, Note_on_c, 0, 62, 100
4, 19515, Note_on_c, 0, 62, 0
4, 19617, Note_on_c, 0, 74, 100
4, 19716, Note_on_c, 0, 74, 0
4, 19819, Note_on_c, 0, 62, 100
4, 19819, Note_on_c, 0, 74, 100
4, 19918, Note_on_c, 0, 74, 0
4, 19918, Note_on_c, 0, 62, 0
4, 20020, Note_on_c, 0, 62, 100
4, 20119, Note_on_c, 0, 62, 0
4, 20222, Note_on_c, 0, 74, 100
4, 20505, Note_on_c, 0, 74, 0
4, 20632, Note_on_c, 0, 74, 100
4, 20915, Note_on_c, 0, 74, 0
4, 21067, Note_on_c, 0, 74, 100
4, 21287, Note_on_c, 0, 50, 100
4, 21328, Note_on_c, 0, 74, 0
4, 21507, Note_on_c, 0, 74, 100
4, 21612, Note_on_c, 0, 50, 0
4, 21847, Note_on_c, 0, 74, 0
4, 21847, Note_on_c, 0, 62, 100
4, 21977, Note_on_c, 0, 62, 0
4, 24560, Note_on_c, 0, 62, 100
4, 24951, Note_on_c, 0, 62, 0
4, 25152, Note_on_c, 0, 62, 100
4, 25343, Note_on_c, 0, 62, 0
4, 25728, Note_on_c, 0, 62, 100
4, 25919, Note_on_c, 0, 62, 0
4, 26016, Note_on_c, 0, 62, 100
4, 26111, Note_on_c, 0, 62, 0
4, 26112, Note_on_c, 0, 62, 100
4, 26392, Note_on_c, 0, 62, 0
4, 26400, Note_on_c, 0, 62, 100
4, 26495, Note_on_c, 0, 62, 0
4, 26880, Note_on_c, 0, 50, 100
4, 26880, Note_on_c, 0, 62, 100
4, 27263, Note_on_c, 0, 62, 0
4, 27264, Note_on_c, 0, 62, 100
4, 27270, Note_on_c, 0, 50, 0
4, 27647, Note_on_c, 0, 62, 0
4, 27840, Note_on_c, 0, 62, 100
4, 28031, Note_on_c, 0, 62, 0
4, 28416, Note_on_c, 0, 50, 100
4, 28416, Note_on_c, 0, 62, 100
4, 28607, Note_on_c, 0, 62, 0
4, 28800, Note_on_c, 0, 62, 100
4, 28916, Note_on_c, 0, 50, 0
4, 29165, Note_on_c, 0, 62, 0
4, 29856, Note_on_c, 0, 62, 100
4, 29951, Note_on_c, 0, 62, 0
4, 29952, Note_on_c, 0, 62, 100
4, 30312, Note_on_c, 0, 62, 0
4, 30528, Note_on_c, 0, 62, 100
4, 30623, Note_on_c, 0, 62, 0
4, 31104, Note_on_c, 0, 50, 100
4, 31104, Note_on_c, 0, 62, 100
4, 31295, Note_on_c, 0, 50, 0
4, 31392, Note_on_c, 0, 50, 100
4, 31487, Note_on_c, 0, 50, 0
4, 31488, Note_on_c, 0, 50, 100
4, 31679, Note_on_c, 0, 50, 0
4, 32063, Note_on_c, 0, 62, 0
4, 32264, Note_on_c, 0, 62, 100
4, 32264, Note_on_c, 0, 50, 100
4, 32327, Note_on_c, 0, 62, 0
4, 32647, Note_on_c, 0, 50, 0
4, 34000, Note_on_c, 0, 74, 100
4, 34095, Note_on_c, 0, 74, 0
4, 34384, Note_on_c, 0, 50, 100
4, 34575, Note_on_c, 0, 50, 0
4, 34960, Note_on_c, 0, 62, 100
4, 34960, Note_on_c, 0, 50, 100
4, 35151, Note_on_c, 0, 50, 0
4, 35152, Note_on_c, 0, 74, 100
4, 35247, Note_on_c, 0, 74, 0
4, 35535, Note_on_c, 0, 62, 0
4, 35536, Note_on_c, 0, 62, 100
4, 35631, Note_on_c, 0, 62, 0
4, 36400, Note_on_c, 0, 50, 100
4, 36495, Note_on_c, 0, 50, 0
4, 36496, Note_on_c, 0, 50, 100
4, 37071, Note_on_c, 0, 50, 0
4, 37072, Note_on_c, 0, 50, 100
4, 37167, Note_on_c, 0, 50, 0
4, 37552, Note_on_c, 0, 62, 100
4, 37647, Note_on_c, 0, 62, 0
4, 37648, Note_on_c, 0, 62, 100
4, 37648, Note_on_c, 0, 50, 100
4, 37839, Note_on_c, 0, 50, 0
4, 38127, Note_on_c, 0, 62, 0
4, 38128, Note_on_c, 0, 62, 100
4, 38223, Note_on_c, 0, 62, 0
4, 38320, Note_on_c, 0, 62, 100
4, 38415, Note_on_c, 0, 62, 0
4, 38544, Note_on_c, 0, 62, 100
4, 38607, Note_on_c, 0, 62, 0
4, 38800, Note_on_c, 0, 50, 100
4, 39472, Note_on_c, 0, 62, 100
4, 39567, Note_on_c, 0, 62, 0
4, 39567, Note_on_c, 0, 50, 0
4, 39760, Note_on_c, 0, 62, 100
4, 39855, Note_on_c, 0, 62, 0
4, 40336, Note_on_c, 0, 50, 100
4, 40383, Note_on_c, 0, 50, 0
4, 40432, Note_on_c, 0, 50, 100
4, 40911, Note_on_c, 0, 50, 0
4, 40912, Note_on_c, 0, 50, 100
4, 41295, Note_on_c, 0, 50, 0
4, 41296, Note_on_c, 0, 50, 100
4, 41679, Note_on_c, 0, 50, 0
4, 41680, Note_on_c, 0, 50, 100
4, 41871, Note_on_c, 0, 50, 0
4, 42183, Note_on_c, 0, 62, 100
4, 42278, Note_on_c, 0, 62, 0
4, 42472, Note_on_c, 0, 50, 100
4, 42855, Note_on_c, 0, 50, 0
4, 42856, Note_on_c, 0, 50, 100
4, 43239, Note_on_c, 0, 50, 0
4, 43240, Note_on_c, 0, 50, 100
4, 43623, Note_on_c, 0, 50, 0
4, 43720, Note_on_c, 0, 62, 100
4, 43815, Note_on_c, 0, 62, 0
4, 43816, Note_on_c, 0, 50, 100
4, 43816, Note_on_c, 0, 62, 100
4, 44256, Note_on_c, 0, 62, 0
4, 44391, Note_on_c, 0, 50, 0
4, 44650, Note_on_c, 0, 74, 100
4, 44724, Note_on_c, 0, 74, 0
4, 45208, Note_on_c, 0, 74, 100
4, 45594, Note_on_c, 0, 74, 0
4, 45595, Note_on_c, 0, 74, 100
4, 45875, Note_on_c, 0, 74, 0
4, 45876, Note_on_c, 0, 62, 100
4, 45876, Note_on_c, 0, 74, 100
4, 45946, Note_on_c, 0, 62, 0
4, 46157, Note_on_c, 0, 74, 0
4, 46158, Note_on_c, 0, 74, 100
4, 46439, Note_on_c, 0, 74, 0
4, 46440, Note_on_c, 0, 50, 100
4, 46440, Note_on_c, 0, 74, 100
4, 46525, Note_on_c, 0, 50, 0
4, 46820, Note_on_c, 0, 74, 0
4, 47164, Note_on_c, 0, 74, 100
4, 47544, Note_on_c, 0, 74, 0
4, 47711, Note_on_c, 0, 74, 100
4, 47798, Note_on_c, 0, 62, 100
4, 47884, Note_on_c, 0, 62, 0
4, 48058, Note_on_c, 0, 74, 0
4, 48248, Note_on_c, 0, 50, 100
4, 48248, Note_on_c, 0, 62, 100
4, 48463, Note_on_c, 0, 74, 100
4, 48551, Note_on_c, 0, 74, 0
4, 49011, Note_on_c, 0, 74, 100
4, 49045, Note_on_c, 0, 62, 0
4, 49282, Note_on_c, 0, 74, 0
4, 49286, Note_on_c, 0, 74, 100
4, 49374, Note_on_c, 0, 74, 0
4, 49753, Note_on_c, 0, 74, 100
4, 50231, Note_on_c, 0, 74, 0
4, 50257, Note_on_c, 0, 74, 100
4, 50453, Note_on_c, 0, 74, 0
4, 50562, Note_on_c, 0, 62, 100
4, 50871, Note_on_c, 0, 50, 0
4, 50933, Note_on_c, 0, 74, 100
4, 51137, Note_on_c, 0, 62, 0
4, 51142, Note_on_c, 0, 38, 100
4, 51165, Note_on_c, 0, 74, 0
4, 52292, Note_on_c, 0, 38, 0
4, 53576, Note_on_c, 0, 50, 100
4, 53743, Note_on_c, 0, 50, 0
4, 54720, Note_on_c, 0, 50, 100
4, 54911, Note_on_c, 0, 50, 0
4, 54912, Note_on_c, 0, 62, 100
4, 55102, Note_on_c, 0, 62, 0
4, 55104, Note_on_c, 0, 62, 100
4, 55679, Note_on_c, 0, 62, 0
4, 56064, Note_on_c, 0, 62, 100
4, 56254, Note_on_c, 0, 62, 0
4, 56256, Note_on_c, 0, 62, 100
4, 56496, Note_on_c, 0, 62, 0
4, 56640, Note_on_c, 0, 62, 100
4, 56831, Note_on_c, 0, 62, 0
4, 57024, Note_on_c, 0, 62, 100
4, 57119, Note_on_c, 0, 62, 0
4, 57888, Note_on_c, 0, 62, 100
4, 57983, Note_on_c, 0, 62, 0
4, 58752, Note_on_c, 0, 62, 100
4, 59519, Note_on_c, 0, 62, 0
4, 59904, Note_on_c, 0, 62, 100
4, 60094, Note_on_c, 0, 62, 0
4, 60096, Note_on_c, 0, 62, 100
4, 60286, Note_on_c, 0, 62, 0
4, 60672, Note_on_c, 0, 62, 100
4, 60960, Note_on_c, 0, 50, 100
4, 61055, Note_on_c, 0, 50, 0
4, 61055, Note_on_c, 0, 62, 0
4, 61248, Note_on_c, 0, 50, 100
4, 61439, Note_on_c, 0, 50, 0
4, 62208, Note_on_c, 0, 62, 100
4, 62496, Note_on_c, 0, 74, 100
4, 62591, Note_on_c, 0, 74, 0
4, 62591, Note_on_c, 0, 62, 0
4, 62784, Note_on_c, 0, 74, 100
4, 62975, Note_on_c, 0, 74, 0
4, 63744, Note_on_c, 0, 74, 100
4, 64127, Note_on_c, 0, 74, 0
4, 64896, Note_on_c, 0, 74, 100
4, 65663, Note_on_c, 0, 74, 0
4, 65856, Note_on_c, 0, 74, 100
4, 65951, Note_on_c, 0, 74, 0
4, 66048, Note_on_c, 0, 62, 100
4, 66239, Note_on_c, 0, 62, 0
4, 66336, Note_on_c, 0, 74, 100
4, 66431, Note_on_c, 0, 74, 0
4, 66624, Note_on_c, 0, 74, 100
4, 66815, Note_on_c, 0, 74, 0
4, 67584, Note_on_c, 0, 74, 100
4, 67872, Note_on_c, 0, 50, 100
4, 67967, Note_on_c, 0, 50, 0
4, 67967, Note_on_c, 0, 74, 0
4, 68160, Note_on_c, 0, 50, 100
4, 68351, Note_on_c, 0, 50, 0
4, 70272, Note_on_c, 0, 50, 100
4, 71039, Note_on_c, 0, 50, 0
4, 71232, Note_on_c, 0, 50, 100
4, 71327, Note_on_c, 0, 50, 0
4, 71424, Note_on_c, 0, 74, 100
4, 71615, Note_on_c, 0, 74, 0
4, 71712, Note_on_c, 0, 50, 100
4, 71807, Note_on_c, 0, 50, 0
4, 72000, Note_on_c, 0, 50, 100
4, 72191, Note_on_c, 0, 50, 0
4, 72576, Note_on_c, 0, 50, 100
4, 72767, Note_on_c, 0, 50, 0
4, 74112, Note_on_c, 0, 74, 100
4, 74304, Note_on_c, 0, 38, 100
4, 74495, Note_on_c, 0, 38, 0
4, 74879, Note_on_c, 0, 74, 0
4, 75264, Note_on_c, 0, 74, 100
4, 75456, Note_on_c, 0, 38, 100
4, 75647, Note_on_c, 0, 38, 0
4, 75648, Note_on_c, 0, 50, 100
4, 75838, Note_on_c, 0, 50, 0
4, 75840, Note_on_c, 0, 50, 100
4, 76031, Note_on_c, 0, 74, 0
4, 76415, Note_on_c, 0, 50, 0
4, 76800, Note_on_c, 0, 62, 100
4, 76800, Note_on_c, 0, 50, 100
4, 76990, Note_on_c, 0, 50, 0
4, 76992, Note_on_c, 0, 50, 100
4, 77183, Note_on_c, 0, 62, 0
4, 77184, Note_on_c, 0, 62, 100
4, 77374, Note_on_c, 0, 62, 0
4, 77376, Note_on_c, 0, 62, 100
4, 77567, Note_on_c, 0, 50, 0
4, 77951, Note_on_c, 0, 62, 0
4, 78336, Note_on_c, 0, 62, 100
4, 78336, Note_on_c, 0, 50, 100
4, 78528, Note_on_c, 0, 38, 100
4, 78616, Note_on_c, 0, 50, 0
4, 78616, Note_on_c, 0, 62, 0
4, 78624, Note_on_c, 0, 62, 100
4, 78708, Note_on_c, 0, 38, 0
4, 78814, Note_on_c, 0, 62, 0
4, 78912, Note_on_c, 0, 62, 100
4, 79087, Note_on_c, 0, 62, 0
4, 79296, Note_on_c, 0, 62, 100
4, 79391, Note_on_c, 0, 62, 0
4, 80640, Note_on_c, 0, 62, 100
4, 80831, Note_on_c, 0, 62, 0
4, 81792, Note_on_c, 0, 74, 100
4, 82559, Note_on_c, 0, 74, 0
4, 82944, Note_on_c, 0, 74, 100
4, 83136, Note_on_c, 0, 62, 100
4, 83316, Note_on_c, 0, 62, 0
4, 83424, Note_on_c, 0, 74, 0
4, 83520, Note_on_c, 0, 74, 100
4, 83711, Note_on_c, 0, 74, 0
4, 83904, Note_on_c, 0, 74, 100
4, 83999, Note_on_c, 0, 74, 0
4, 84768, Note_on_c, 0, 74, 100
4, 84863, Note_on_c, 0, 74, 0
4, 85632, Note_on_c, 0, 74, 100
4, 86399, Note_on_c, 0, 74, 0
4, 86784, Note_on_c, 0, 74, 100
4, 86784, Note_on_c, 0, 50, 100
4, 86975, Note_on_c, 0, 50, 0
4, 86976, Note_on_c, 0, 62, 100
4, 87164, Note_on_c, 0, 74, 0
4, 87167, Note_on_c, 0, 62, 0
4, 87168, Note_on_c, 0, 74, 100
4, 87358, Note_on_c, 0, 74, 0
4, 87360, Note_on_c, 0, 74, 100
4, 87360, Note_on_c, 0, 50, 100
4, 87551, Note_on_c, 0, 50, 0
4, 87935, Note_on_c, 0, 74, 0
4, 88320, Note_on_c, 0, 74, 100
4, 88320, Note_on_c, 0, 50, 100
4, 88511, Note_on_c, 0, 50, 0
4, 88700, Note_on_c, 0, 74, 0
4, 88704, Note_on_c, 0, 74, 100
4, 88896, Note_on_c, 0, 62, 100
4, 89087, Note_on_c, 0, 62, 0
4, 89471, Note_on_c, 0, 74, 0
4, 89856, Note_on_c, 0, 74, 100
4, 89856, Note_on_c, 0, 38, 100
4, 90048, Note_on_c, 0, 62, 100
4, 90236, Note_on_c, 0, 74, 0
4, 90239, Note_on_c, 0, 62, 0
4, 90386, Note_on_c, 0, 38, 0
4, 90432, Note_on_c, 0, 50, 100
4, 90527, Note_on_c, 0, 50, 0
4, 94848, Note_on_c, 0, 74, 100
4, 95039, Note_on_c, 0, 74, 0
4, 95040, Note_on_c, 0, 62, 100
4, 95231, Note_on_c, 0, 62, 0
4, 95424, Note_on_c, 0, 74, 100
4, 95519, Note_on_c, 0, 74, 0
4, 96000, Note_on_c, 0, 74, 100
4, 96383, Note_on_c, 0, 74, 0
4, 97920, Note_on_c, 0, 74, 100
4, 98687, Note_on_c, 0, 74, 0
4, 99072, Note_on_c, 0, 62, 100
4, 99263, Note_on_c, 0, 62, 0
4, 99360, Note_on_c, 0, 50, 100
4, 99455, Note_on_c, 0, 50, 0
4, 99648, Note_on_c, 0, 50, 100
4, 99839, Note_on_c, 0, 50, 0
4, 100224, Note_on_c, 0, 62, 100
4, 100224, Note_on_c, 0, 50, 100
4, 100415, Note_on_c, 0, 50, 0
4, 100799, Note_on_c, 0, 62, 0
4, 100896, Note_on_c, 0, 62, 100
4, 100991, Note_on_c, 0, 62, 0
4, 101568, Note_on_c, 0, 62, 100
4, 101663, Note_on_c, 0, 62, 0
4, 101760, Note_on_c, 0, 50, 100
4, 102527, Note_on_c, 0, 50, 0
4, 102912, Note_on_c, 0, 50, 100
4, 102912, Note_on_c, 0, 38, 100
4, 103104, Note_on_c, 0, 62, 100
4, 103292, Note_on_c, 0, 38, 0
4, 103292, Note_on_c, 0, 50, 0
4, 103296, Note_on_c, 0, 74, 100
4, 103484, Note_on_c, 0, 62, 0
4, 103488, Note_on_c, 0, 62, 100
4, 103679, Note_on_c, 0, 62, 0
4, 104063, Note_on_c, 0, 74, 0
4, 104448, Note_on_c, 0, 74, 100
4, 104448, Note_on_c, 0, 50, 100
4, 104640, Note_on_c, 0, 62, 100
4, 104828, Note_on_c, 0, 50, 0
4, 104828, Note_on_c, 0, 74, 0
4, 104831, Note_on_c, 0, 62, 0
4, 104832, Note_on_c, 0, 74, 100
4, 105024, Note_on_c, 0, 62, 100
4, 105215, Note_on_c, 0, 62, 0
4, 105599, Note_on_c, 0, 74, 0
4, 105984, Note_on_c, 0, 74, 100
4, 106176, Note_on_c, 0, 62, 100
4, 106364, Note_on_c, 0, 74, 0
4, 106367, Note_on_c, 0, 62, 0
4, 106368, Note_on_c, 0, 74, 100
4, 106560, Note_on_c, 0, 62, 100
4, 106655, Note_on_c, 0, 62, 0
4, 107135, Note_on_c, 0, 74, 0
4, 107904, Note_on_c, 0, 74, 100
4, 108671, Note_on_c, 0, 74, 0
4, 109056, Note_on_c, 0, 62, 100
4, 109344, Note_on_c, 0, 50, 100
4, 109439, Note_on_c, 0, 50, 0
4, 109728, Note_on_c, 0, 50, 100
4, 109823, Note_on_c, 0, 50, 0
4, 109823, Note_on_c, 0, 62, 0
4, 110208, Note_on_c, 0, 62, 100
4, 110208, Note_on_c, 0, 50, 100
4, 110399, Note_on_c, 0, 50, 0
4, 110399, Note_on_c, 0, 62, 0
4, 110400, Note_on_c, 0, 38, 100
4, 110591, Note_on_c, 0, 38, 0
4, 110784, Note_on_c, 0, 62, 100
4, 110975, Note_on_c, 0, 62, 0
4, 111264, Note_on_c, 0, 50, 100
4, 111359, Note_on_c, 0, 50, 0
4, 111744, Note_on_c, 0, 62, 100
4, 111744, Note_on_c, 0, 50, 100
4, 111935, Note_on_c, 0, 50, 0
4, 111935, Note_on_c, 0, 62, 0
4, 111936, Note_on_c, 0, 38, 100
4, 112127, Note_on_c, 0, 38, 0
4, 112800, Note_on_c, 0, 74, 100
4, 112895, Note_on_c, 0, 74, 0
4, 113280, Note_on_c, 0, 62, 100
4, 113471, Note_on_c, 0, 62, 0
4, 113472, Note_on_c, 0, 74, 100
4, 113567, Note_on_c, 0, 74, 0
4, 114336, Note_on_c, 0, 74, 100
4, 114431, Note_on_c, 0, 74, 0
4, 114816, Note_on_c, 0, 50, 100
4, 115007, Note_on_c, 0, 50, 0
4, 115968, Note_on_c, 0, 62, 100
4, 116160, Note_on_c, 0, 74, 100
4, 116340, Note_on_c, 0, 74, 0
4, 116348, Note_on_c, 0, 62, 0
4, 116640, Note_on_c, 0, 62, 100
4, 116735, Note_on_c, 0, 62, 0
4, 117120, Note_on_c, 0, 74, 100
4, 117120, Note_on_c, 0, 62, 100
4, 117300, Note_on_c, 0, 62, 0
4, 117311, Note_on_c, 0, 74, 0
4, 117312, Note_on_c, 0, 50, 100
4, 117502, Note_on_c, 0, 50, 0
4, 117600, Note_on_c, 0, 74, 100
4, 117695, Note_on_c, 0, 74, 0
4, 117792, Note_on_c, 0, 74, 100
4, 117887, Note_on_c, 0, 74, 0
4, 117984, Note_on_c, 0, 74, 100
4, 118079, Note_on_c, 0, 74, 0
4, 118176, Note_on_c, 0, 74, 100
4, 118271, Note_on_c, 0, 74, 0
4, 119040, Note_on_c, 0, 74, 100
4, 119420, Note_on_c, 0, 74, 0
4, 120192, Note_on_c, 0, 62, 100
4, 120384, Note_on_c, 0, 74, 100
4, 120384, Note_on_c, 0, 50, 100
4, 120479, Note_on_c, 0, 74, 0
4, 120575, Note_on_c, 0, 50, 0
4, 120768, Note_on_c, 0, 50, 100
4, 120959, Note_on_c, 0, 50, 0
4, 120959, Note_on_c, 0, 62, 0
4, 121152, Note_on_c, 0, 62, 100
4, 121343, Note_on_c, 0, 62, 0
4, 121728, Note_on_c, 0, 50, 100
4, 121919, Note_on_c, 0, 50, 0
4, 121920, Note_on_c, 0, 62, 100
4, 122111, Note_on_c, 0, 62, 0
4, 123264, Note_on_c, 0, 50, 100
4, 123454, Note_on_c, 0, 50, 0
4, 123456, Note_on_c, 0, 50, 100
4, 124031, Note_on_c, 0, 50, 0
4, 124608, Note_on_c, 0, 50, 100
4, 124799, Note_on_c, 0, 50, 0
4, 125568, Note_on_c, 0, 50, 100
4, 125759, Note_on_c, 0, 50, 0
4, 127104, Note_on_c, 0, 50, 100
4, 127487, Note_on_c, 0, 50, 0
4, 128256, Note_on_c, 0, 50, 100
4, 128447, Note_on_c, 0, 50, 0
4, 128544, Note_on_c, 0, 62, 100
4, 128639, Note_on_c, 0, 62, 0
4, 129696, Note_on_c, 0, 50, 100
4, 129791, Note_on_c, 0, 50, 0
4, 130176, Note_on_c, 0, 74, 100
4, 130176, Note_on_c, 0, 50, 100
4, 130367, Note_on_c, 0, 50, 0
4, 130367, Note_on_c, 0, 74, 0
4, 130368, Note_on_c, 0, 38, 100
4, 130559, Note_on_c, 0, 38, 0
4, 131712, Note_on_c, 0, 74, 100
4, 131904, Note_on_c, 0, 50, 100
4, 132095, Note_on_c, 0, 50, 0
4, 132479, Note_on_c, 0, 74, 0
4, 132864, Note_on_c, 0, 74, 100
4, 132864, Note_on_c, 0, 62, 100
4, 133056, Note_on_c, 0, 50, 100
4, 133244, Note_on_c, 0, 62, 0
4, 133244, Note_on_c, 0, 74, 0
4, 133247, Note_on_c, 0, 50, 0
4, 133248, Note_on_c, 0, 62, 100
4, 134015, Note_on_c, 0, 62, 0
4, 134400, Note_on_c, 0, 62, 100
4, 134591, Note_on_c, 0, 62, 0
4, 134592, Note_on_c, 0, 74, 100
4, 134687, Note_on_c, 0, 74, 0
4, 135072, Note_on_c, 0, 74, 100
4, 135167, Note_on_c, 0, 74, 0
4, 135552, Note_on_c, 0, 62, 100
4, 135743, Note_on_c, 0, 62, 0
4, 135744, Note_on_c, 0, 50, 100
4, 135935, Note_on_c, 0, 50, 0
4, 136128, Note_on_c, 0, 62, 100
4, 136223, Note_on_c, 0, 62, 0
4, 136320, Note_on_c, 0, 50, 100
4, 136415, Note_on_c, 0, 50, 0
4, 136608, Note_on_c, 0, 50, 100
4, 136703, Note_on_c, 0, 50, 0
4, 138624, Note_on_c, 0, 50, 100
4, 138816, Note_on_c, 0, 38, 100
4, 139007, Note_on_c, 0, 38, 0
4, 139391, Note_on_c, 0, 50, 0
4, 139680, Note_on_c, 0, 50, 100
4, 139775, Note_on_c, 0, 50, 0
4, 139776, Note_on_c, 0, 50, 100
4, 139968, Note_on_c, 0, 38, 100
4, 140156, Note_on_c, 0, 50, 0
4, 140159, Note_on_c, 0, 38, 0
4, 140160, Note_on_c, 0, 50, 100
4, 140350, Note_on_c, 0, 50, 0
4, 140352, Note_on_c, 0, 50, 100
4, 140927, Note_on_c, 0, 50, 0
4, 141312, Note_on_c, 0, 50, 100
4, 141502, Note_on_c, 0, 50, 0
4, 141504, Note_on_c, 0, 50, 100
4, 141696, Note_on_c, 0, 62, 100
4, 141724, Note_on_c, 0, 50, 0
4, 141886, Note_on_c, 0, 62, 0
4, 141888, Note_on_c, 0, 62, 100
4, 142463, Note_on_c, 0, 62, 0
4, 142848, Note_on_c, 0, 62, 100
4, 142848, Note_on_c, 0, 50, 100
4, 143038, Note_on_c, 0, 62, 0
4, 143039, Note_on_c, 0, 50, 0
4, 143040, Note_on_c, 0, 62, 100
4, 143230, Note_on_c, 0, 62, 0
4, 143424, Note_on_c, 0, 74, 100
4, 143424, Note_on_c, 0, 50, 100
4, 143519, Note_on_c, 0, 74, 0
4, 143615, Note_on_c, 0, 50, 0
4, 143808, Note_on_c, 0, 62, 100
4, 143903, Note_on_c, 0, 62, 0
4, 144768, Note_on_c, 0, 50, 100
4, 144959, Note_on_c, 0, 50, 0
4, 145344, Note_on_c, 0, 50, 100
4, 145535, Note_on_c, 0, 50, 0
4, 145920, Note_on_c, 0, 50, 100
4, 146016, Note_on_c, 0, 62, 100
4, 146111, Note_on_c, 0, 62, 0
4, 146208, Note_on_c, 0, 62, 100
4, 146300, Note_on_c, 0, 50, 0
4, 146303, Note_on_c, 0, 62, 0
4, 146304, Note_on_c, 0, 74, 100
4, 146592, Note_on_c, 0, 62, 100
4, 146687, Note_on_c, 0, 62, 0
4, 147071, Note_on_c, 0, 74, 0
4, 147456, Note_on_c, 0, 74, 100
4, 147456, Note_on_c, 0, 50, 100
4, 147456, Note_on_c, 0, 38, 100
4, 147648, Note_on_c, 0, 62, 100
4, 147836, Note_on_c, 0, 38, 0
4, 147836, Note_on_c, 0, 74, 0
4, 147836, Note_on_c, 0, 50, 0
4, 147839, Note_on_c, 0, 62, 0
4, 147840, Note_on_c, 0, 74, 100
4, 148607, Note_on_c, 0, 74, 0
4, 148992, Note_on_c, 0, 74, 100
4, 149183, Note_on_c, 0, 74, 0
4, 149280, Note_on_c, 0, 62, 100
4, 149375, Note_on_c, 0, 62, 0
4, 150144, Note_on_c, 0, 62, 100
4, 150239, Note_on_c, 0, 62, 0
4, 151008, Note_on_c, 0, 62, 100
4, 151103, Note_on_c, 0, 62, 0
4, 151680, Note_on_c, 0, 74, 100
4, 151872, Note_on_c, 0, 62, 100
4, 151967, Note_on_c, 0, 62, 0
4, 152447, Note_on_c, 0, 74, 0
4, 152832, Note_on_c, 0, 62, 100
4, 152928, Note_on_c, 0, 50, 100
4, 153023, Note_on_c, 0, 50, 0
4, 153311, Note_on_c, 0, 62, 0
4, 153504, Note_on_c, 0, 62, 100
4, 153599, Note_on_c, 0, 62, 0
4, 153984, Note_on_c, 0, 62, 100
4, 154175, Note_on_c, 0, 62, 0
4, 154176, Note_on_c, 0, 50, 100
4, 154271, Note_on_c, 0, 50, 0
4, 154368, Note_on_c, 0, 62, 100
4, 154943, Note_on_c, 0, 62, 0
4, 155136, Note_on_c, 0, 50, 100
4, 155616, Note_on_c, 0, 50, 0
4, 155712, Note_on_c, 0, 62, 100
4, 155712, Note_on_c, 0, 50, 100
4, 155903, Note_on_c, 0, 50, 0
4, 155903, Note_on_c, 0, 62, 0
4, 156192, Note_on_c, 0, 62, 100
4, 156287, Note_on_c, 0, 62, 0
4, 156672, Note_on_c, 0, 50, 100
4, 156864, Note_on_c, 0, 62, 100
4, 156959, Note_on_c, 0, 62, 0
4, 157056, Note_on_c, 0, 62, 100
4, 157151, Note_on_c, 0, 62, 0
4, 157152, Note_on_c, 0, 50, 0
4, 157248, Note_on_c, 0, 74, 100
4, 157343, Note_on_c, 0, 74, 0
4, 158112, Note_on_c, 0, 74, 100
4, 158207, Note_on_c, 0, 74, 0
4, 158976, Note_on_c, 0, 74, 100
4, 159071, Note_on_c, 0, 74, 0
4, 159456, Note_on_c, 0, 74, 100
4, 159551, Note_on_c, 0, 74, 0
4, 159552, Note_on_c, 0, 62, 100
4, 159742, Note_on_c, 0, 62, 0
4, 159840, Note_on_c, 0, 74, 100
4, 159935, Note_on_c, 0, 74, 0
4, 160512, Note_on_c, 0, 62, 100
4, 161200, Note_on_c, 0, 74, 100
4, 161279, Note_on_c, 0, 62, 0
4, 161320, Note_on_c, 0, 74, 0
4, 161504, Note_on_c, 0, 62, 100
4, 161599, Note_on_c, 0, 62, 0
4, 161984, Note_on_c, 0, 74, 100
4, 162079, Note_on_c, 0, 74, 0
4, 162480, Note_on_c, 0, 62, 100
4, 162880, Note_on_c, 0, 74, 100
4, 162975, Note_on_c, 0, 74, 0
4, 163055, Note_on_c, 0, 62, 0
4, 163072, Note_on_c, 0, 62, 100
4, 163168, Note_on_c, 0, 74, 100
4, 163263, Note_on_c, 0, 74, 0
4, 163263, Note_on_c, 0, 62, 0
4, 163656, Note_on_c, 0, 62, 100
4, 164036, Note_on_c, 0, 62, 0
4, 164056, Note_on_c, 0, 74, 100
4, 164248, Note_on_c, 0, 38, 100
4, 164439, Note_on_c, 0, 38, 0
4, 164823, Note_on_c, 0, 74, 0
4, 165208, Note_on_c, 0, 62, 100
4, 165208, Note_on_c, 0, 74, 100
4, 165398, Note_on_c, 0, 62, 0
4, 165400, Note_on_c, 0, 38, 100
4, 165588, Note_on_c, 0, 74, 0
4, 165591, Note_on_c, 0, 38, 0
4, 165592, Note_on_c, 0, 50, 100
4, 165784, Note_on_c, 0, 62, 100
4, 165975, Note_on_c, 0, 62, 0
4, 166359, Note_on_c, 0, 50, 0
4, 166744, Note_on_c, 0, 50, 100
4, 166936, Note_on_c, 0, 62, 100
4, 167124, Note_on_c, 0, 50, 0
4, 167127, Note_on_c, 0, 62, 0
4, 167333, Note_on_c, 0, 62, 100
4, 167524, Note_on_c, 0, 62, 0
4, 167720, Note_on_c, 0, 62, 100
4, 167815, Note_on_c, 0, 62, 0
4, 168600, Note_on_c, 0, 62, 100
4, 168695, Note_on_c, 0, 62, 0
4, 169464, Note_on_c, 0, 50, 100
4, 169464, Note_on_c, 0, 62, 100
4, 169744, Note_on_c, 0, 50, 0
4, 170231, Note_on_c, 0, 62, 0
4, 171000, Note_on_c, 0, 62, 100
4, 171192, Note_on_c, 0, 38, 100
4, 171383, Note_on_c, 0, 38, 0
4, 171767, Note_on_c, 0, 62, 0
4, 172152, Note_on_c, 0, 50, 100
4, 172152, Note_on_c, 0, 62, 100
4, 172344, Note_on_c, 0, 38, 100
4, 172532, Note_on_c, 0, 62, 0
4, 172543, Note_on_c, 0, 38, 0
4, 172543, Note_on_c, 0, 50, 0
4, 173040, Note_on_c, 0, 62, 100
4, 173135, Note_on_c, 0, 62, 0
4, 173328, Note_on_c, 0, 62, 100
4, 173616, Note_on_c, 0, 50, 100
4, 173708, Note_on_c, 0, 62, 0
4, 173711, Note_on_c, 0, 50, 0
4, 173808, Note_on_c, 0, 62, 100
4, 173903, Note_on_c, 0, 62, 0
4, 174096, Note_on_c, 0, 62, 100
4, 174288, Note_on_c, 0, 50, 100
4, 174383, Note_on_c, 0, 50, 0
4, 174476, Note_on_c, 0, 62, 0
4, 174576, Note_on_c, 0, 62, 100
4, 174671, Note_on_c, 0, 62, 0
4, 174864, Note_on_c, 0, 62, 100
4, 175244, Note_on_c, 0, 62, 0
4, 175344, Note_on_c, 0, 62, 100
4, 175439, Note_on_c, 0, 62, 0
4, 175632, Note_on_c, 0, 62, 100
4, 176012, Note_on_c, 0, 62, 0
4, 176112, Note_on_c, 0, 62, 100
4, 176207, Note_on_c, 0, 62, 0
4, 176400, Note_on_c, 0, 62, 100
4, 176784, Note_on_c, 0, 50, 100
4, 177167, Note_on_c, 0, 62, 0
4, 177360, Note_on_c, 0, 62, 100
4, 177455, Note_on_c, 0, 62, 0
4, 177551, Note_on_c, 0, 50, 0
4, 178344, Note_on_c, 0, 62, 100
4, 178632, Note_on_c, 0, 50, 100
4, 178727, Note_on_c, 0, 50, 0
4, 178784, Note_on_c, 0, 62, 0
4, 179016, Note_on_c, 0, 62, 100
4, 179111, Note_on_c, 0, 62, 0
4, 179496, Note_on_c, 0, 62, 100
4, 179880, Note_on_c, 0, 74, 100
4, 179936, Note_on_c, 0, 62, 0
4, 180168, Note_on_c, 0, 62, 100
4, 180263, Note_on_c, 0, 62, 0
4, 180320, Note_on_c, 0, 74, 0
4, 180552, Note_on_c, 0, 74, 100
4, 180647, Note_on_c, 0, 74, 0
4, 181032, Note_on_c, 0, 74, 100
4, 181412, Note_on_c, 0, 74, 0
4, 181608, Note_on_c, 0, 74, 100
4, 181703, Note_on_c, 0, 74, 0
4, 182088, Note_on_c, 0, 62, 100
4, 182183, Note_on_c, 0, 62, 0
4, 183336, Note_on_c, 0, 62, 100
4, 183624, Note_on_c, 0, 50, 100
4, 183719, Note_on_c, 0, 50, 0
4, 183719, Note_on_c, 0, 62, 0
4, 183720, Note_on_c, 0, 62, 100
4, 184100, Note_on_c, 0, 62, 0
4, 184488, Note_on_c, 0, 50, 100
4, 184704, Note_on_c, 0, 62, 100
4, 184799, Note_on_c, 0, 62, 0
4, 185200, Note_on_c, 0, 62, 100
4, 185696, Note_on_c, 0, 74, 100
4, 185791, Note_on_c, 0, 74, 0
4, 186000, Note_on_c, 0, 74, 100
4, 186095, Note_on_c, 0, 74, 0
4, 186109, Note_on_c, 0, 62, 0
4, 186208, Note_on_c, 0, 74, 100
4, 186283, Note_on_c, 0, 50, 0
4, 186392, Note_on_c, 0, 74, 0
4, 186400, Note_on_c, 0, 74, 100
4, 186447, Note_on_c, 0, 74, 0
4, 187064, Note_on_c, 0, 62, 100
4, 187127, Note_on_c, 0, 62, 0
4, 187160, Note_on_c, 0, 62, 100
4, 187200, Note_on_c, 0, 62, 0
4, 187234, Note_on_c, 0, 62, 100
4, 187274, Note_on_c, 0, 62, 0
4, 187288, Note_on_c, 0, 62, 100
4, 187328, Note_on_c, 0, 62, 0
4, 187416, Note_on_c, 0, 62, 100
4, 187520, Note_on_c, 0, 62, 0
4, 187528, Note_on_c, 0, 50, 100
4, 187528, Note_on_c, 0, 62, 100
4, 187908, Note_on_c, 0, 50, 0
4, 188568, Note_on_c, 0, 50, 100
4, 188678, Note_on_c, 0, 62, 0
4, 188854, Note_on_c, 0, 38, 100
4, 188948, Note_on_c, 0, 50, 0
4, 190114, Note_on_c, 0, 38, 0
4, 192000, Note_on_c, 0, 62, 100
4, 192000, Note_on_c, 0, 50, 100
4, 192480, Note_on_c, 0, 62, 0
4, 192767, Note_on_c, 0, 50, 0
4, 193350, Note_on_c, 0, 74, 100
4, 193407, Note_on_c, 0, 74, 0
4, 194064, Note_on_c, 0, 62, 100
4, 194444, Note_on_c, 0, 62, 0
4, 194624, Note_on_c, 0, 50, 100
4, 194687, Note_on_c, 0, 50, 0
4, 194944, Note_on_c, 0, 50, 100
4, 195007, Note_on_c, 0, 50, 0
4, 195472, Note_on_c, 0, 74, 100
4, 195551, Note_on_c, 0, 74, 0
4, 196136, Note_on_c, 0, 62, 100
4, 196223, Note_on_c, 0, 62, 0
4, 197952, Note_on_c, 0, 62, 100
4, 198143, Note_on_c, 0, 62, 0
4, 198144, Note_on_c, 0, 62, 100
4, 198336, Note_on_c, 0, 74, 100
4, 198431, Note_on_c, 0, 74, 0
4, 198624, Note_on_c, 0, 62, 0
4, 198720, Note_on_c, 0, 62, 100
4, 198911, Note_on_c, 0, 62, 0
4, 200448, Note_on_c, 0, 74, 100
4, 200928, Note_on_c, 0, 74, 0
4, 201024, Note_on_c, 0, 74, 100
4, 201214, Note_on_c, 0, 74, 0
4, 205824, Note_on_c, 0, 74, 100
4, 206304, Note_on_c, 0, 74, 0
4, 206400, Note_on_c, 0, 74, 100
4, 206590, Note_on_c, 0, 74, 0
4, 206592, Note_on_c, 0, 74, 100
4, 207072, Note_on_c, 0, 74, 0
4, 207168, Note_on_c, 0, 74, 100
4, 207358, Note_on_c, 0, 74, 0
4, 212832, Note_on_c, 0, 74, 100
4, 212927, Note_on_c, 0, 74, 0
4, 212928, Note_on_c, 0, 74, 100
4, 213023, Note_on_c, 0, 74, 0
4, 215616, Note_on_c, 0, 62, 100
4, 215807, Note_on_c, 0, 62, 0
4, 215808, Note_on_c, 0, 62, 100
4, 216288, Note_on_c, 0, 62, 0
4, 216384, Note_on_c, 0, 74, 100
4, 216574, Note_on_c, 0, 74, 0
4, 217344, Note_on_c, 0, 50, 100
4, 217448, Note_on_c, 0, 74, 100
4, 217543, Note_on_c, 0, 74, 0
4, 217640, Note_on_c, 0, 74, 100
4, 217724, Note_on_c, 0, 50, 0
4, 217735, Note_on_c, 0, 74, 0
4, 217832, Note_on_c, 0, 74, 100
4, 217927, Note_on_c, 0, 74, 0
4, 218120, Note_on_c, 0, 74, 100
4, 218120, Note_on_c, 0, 50, 100
4, 218312, Note_on_c, 0, 62, 100
4, 218407, Note_on_c, 0, 62, 0
4, 218600, Note_on_c, 0, 50, 0
4, 218600, Note_on_c, 0, 74, 0
4, 218704, Note_on_c, 0, 74, 100
4, 218704, Note_on_c, 0, 50, 100
4, 218889, Note_on_c, 0, 74, 0
4, 218895, Note_on_c, 0, 50, 0
4, 218896, Note_on_c, 0, 74, 100
4, 218985, Note_on_c, 0, 74, 0
4, 218992, Note_on_c, 0, 74, 100
4, 219087, Note_on_c, 0, 74, 0
4, 219184, Note_on_c, 0, 74, 100
4, 219279, Note_on_c, 0, 74, 0
4, 219280, Note_on_c, 0, 74, 100
4, 219560, Note_on_c, 0, 74, 0
4, 219568, Note_on_c, 0, 74, 100
4, 219663, Note_on_c, 0, 74, 0
4, 220432, Note_on_c, 0, 62, 100
4, 220432, Note_on_c, 0, 50, 100
4, 220624, Note_on_c, 0, 74, 100
4, 220719, Note_on_c, 0, 74, 0
4, 220912, Note_on_c, 0, 74, 100
4, 221007, Note_on_c, 0, 74, 0
4, 221008, Note_on_c, 0, 74, 100
4, 221103, Note_on_c, 0, 74, 0
4, 221190, Note_on_c, 0, 62, 0
4, 221199, Note_on_c, 0, 50, 0
4, 222736, Note_on_c, 0, 50, 100
4, 223216, Note_on_c, 0, 50, 0
4, 223312, Note_on_c, 0, 50, 100
4, 223503, Note_on_c, 0, 50, 0
4, 224280, Note_on_c, 0, 62, 100
4, 224280, Note_on_c, 0, 50, 100
4, 224540, Note_on_c, 0, 62, 0
4, 224915, Note_on_c, 0, 62, 100
4, 225001, Note_on_c, 0, 62, 0
4, 225047, Note_on_c, 0, 50, 0
4, 225609, Note_on_c, 0, 50, 100
4, 225695, Note_on_c, 0, 50, 0
4, 225900, Note_on_c, 0, 62, 100
4, 225985, Note_on_c, 0, 62, 0
4, 226161, Note_on_c, 0, 62, 100
4, 226247, Note_on_c, 0, 62, 0
4, 226770, Note_on_c, 0, 62, 100
4, 226890, Note_on_c, 0, 62, 0
4, 226968, Note_on_c, 0, 62, 100
4, 227158, Note_on_c, 0, 62, 0
4, 227160, Note_on_c, 0, 62, 100
4, 227350, Note_on_c, 0, 62, 0
4, 227352, Note_on_c, 0, 62, 100
4, 227542, Note_on_c, 0, 62, 0
4, 227640, Note_on_c, 0, 62, 100
4, 227735, Note_on_c, 0, 62, 0
4, 228024, Note_on_c, 0, 62, 100
4, 228119, Note_on_c, 0, 62, 0
4, 228312, Note_on_c, 0, 62, 100
4, 228502, Note_on_c, 0, 62, 0
4, 228504, Note_on_c, 0, 62, 100
4, 228694, Note_on_c, 0, 62, 0
4, 228792, Note_on_c, 0, 62, 100
4, 229137, Note_on_c, 0, 62, 0
4, 229138, Note_on_c, 0, 62, 100
4, 229322, Note_on_c, 0, 62, 0
4, 229328, Note_on_c, 0, 62, 100
4, 229708, Note_on_c, 0, 62, 0
4, 229738, Note_on_c, 0, 62, 100
4, 229938, Note_on_c, 0, 62, 0
4, 229972, Note_on_c, 0, 62, 100
4, 230075, Note_on_c, 0, 62, 0
4, 233272, Note_on_c, 0, 62, 100
4, 233463, Note_on_c, 0, 62, 0
4, 233464, Note_on_c, 0, 74, 100
4, 233656, Note_on_c, 0, 50, 100
4, 233847, Note_on_c, 0, 50, 0
4, 234231, Note_on_c, 0, 74, 0
4, 235000, Note_on_c, 0, 74, 100
4, 235576, Note_on_c, 0, 50, 100
4, 235767, Note_on_c, 0, 50, 0
4, 235767, Note_on_c, 0, 74, 0
4, 235768, Note_on_c, 0, 62, 100
4, 235960, Note_on_c, 0, 74, 100
4, 236151, Note_on_c, 0, 74, 0
4, 236535, Note_on_c, 0, 62, 0
4, 237304, Note_on_c, 0, 62, 100
4, 237784, Note_on_c, 0, 62, 0
4, 237880, Note_on_c, 0, 62, 100
4, 237880, Note_on_c, 0, 74, 100
4, 237975, Note_on_c, 0, 62, 0
4, 238071, Note_on_c, 0, 74, 0
4, 239800, Note_on_c, 0, 74, 100
4, 239991, Note_on_c, 0, 74, 0
4, 241144, Note_on_c, 0, 74, 100
4, 241335, Note_on_c, 0, 74, 0
4, 241720, Note_on_c, 0, 74, 100
4, 241911, Note_on_c, 0, 74, 0
4, 242680, Note_on_c, 0, 62, 100
4, 242871, Note_on_c, 0, 62, 0
4, 243736, Note_on_c, 0, 74, 100
4, 243831, Note_on_c, 0, 74, 0
4, 244024, Note_on_c, 0, 74, 100
4, 244119, Note_on_c, 0, 74, 0
4, 244216, Note_on_c, 0, 74, 100
4, 244407, Note_on_c, 0, 74, 0
4, 244504, Note_on_c, 0, 50, 100
4, 244599, Note_on_c, 0, 50, 0
4, 244600, Note_on_c, 0, 74, 100
4, 244983, Note_on_c, 0, 74, 0
4, 244984, Note_on_c, 0, 74, 100
4, 245047, Note_on_c, 0, 74, 0
4, 245112, Note_on_c, 0, 74, 100
4, 245175, Note_on_c, 0, 74, 0
4, 245304, Note_on_c, 0, 74, 100
4, 245367, Note_on_c, 0, 74, 0
4, 245368, Note_on_c, 0, 50, 100
4, 245368, Note_on_c, 0, 74, 100
4, 245560, Note_on_c, 0, 38, 100
4, 245748, Note_on_c, 0, 74, 0
4, 245848, Note_on_c, 0, 50, 0
4, 245940, Note_on_c, 0, 38, 0
4, 245944, Note_on_c, 0, 62, 100
4, 246135, Note_on_c, 0, 62, 0
4, 246136, Note_on_c, 0, 74, 100
4, 246328, Note_on_c, 0, 62, 100
4, 246519, Note_on_c, 0, 62, 0
4, 246903, Note_on_c, 0, 74, 0
4, 247672, Note_on_c, 0, 74, 100
4, 247863, Note_on_c, 0, 74, 0
4, 247864, Note_on_c, 0, 62, 100
4, 248055, Note_on_c, 0, 62, 0
4, 248056, Note_on_c, 0, 74, 100
4, 248247, Note_on_c, 0, 74, 0
4, 248440, Note_on_c, 0, 74, 100
4, 248631, Note_on_c, 0, 74, 0
4, 249112, Note_on_c, 0, 50, 100
4, 249207, Note_on_c, 0, 50, 0
4, 249976, Note_on_c, 0, 62, 100
4, 250359, Note_on_c, 0, 62, 0
4, 250552, Note_on_c, 0, 74, 100
4, 250743, Note_on_c, 0, 74, 0
4, 252280, Note_on_c, 0, 50, 100
4, 252280, Note_on_c, 0, 74, 100
4, 252660, Note_on_c, 0, 74, 0
4, 252660, Note_on_c, 0, 50, 0
4, 252856, Note_on_c, 0, 50, 100
4, 252856, Note_on_c, 0, 74, 100
4, 252951, Note_on_c, 0, 74, 0
4, 253047, Note_on_c, 0, 50, 0
4, 253048, Note_on_c, 0, 62, 100
4, 253240, Note_on_c, 0, 50, 100
4, 253431, Note_on_c, 0, 50, 0
4, 253815, Note_on_c, 0, 62, 0
4, 254584, Note_on_c, 0, 62, 100
4, 254964, Note_on_c, 0, 62, 0
4, 255160, Note_on_c, 0, 50, 100
4, 255351, Note_on_c, 0, 50, 0
4, 255352, Note_on_c, 0, 62, 100
4, 255735, Note_on_c, 0, 62, 0
4, 255736, Note_on_c, 0, 62, 100
4, 256116, Note_on_c, 0, 62, 0
4, 256888, Note_on_c, 0, 62, 100
4, 257268, Note_on_c, 0, 62, 0
4, 257272, Note_on_c, 0, 50, 100
4, 257463, Note_on_c, 0, 50, 0
4, 257464, Note_on_c, 0, 62, 100
4, 257655, Note_on_c, 0, 62, 0
4, 257848, Note_on_c, 0, 62, 100
4, 257943, Note_on_c, 0, 62, 0
4, 258328, Note_on_c, 0, 50, 100
4, 258423, Note_on_c, 0, 50, 0
4, 258808, Note_on_c, 0, 50, 100
4, 259000, Note_on_c, 0, 62, 100
4, 259191, Note_on_c, 0, 62, 0
4, 259288, Note_on_c, 0, 50, 0
4, 259384, Note_on_c, 0, 50, 100
4, 259479, Note_on_c, 0, 50, 0
4, 261304, Note_on_c, 0, 62, 100
4, 261495, Note_on_c, 0, 62, 0
4, 262168, Note_on_c, 0, 74, 100
4, 262263, Note_on_c, 0, 74, 0
4, 262648, Note_on_c, 0, 74, 100
4, 262839, Note_on_c, 0, 74, 0
4, 263032, Note_on_c, 0, 62, 100
4, 263223, Note_on_c, 0, 62, 0
4, 263224, Note_on_c, 0, 62, 100
4, 263415, Note_on_c, 0, 62, 0
4, 263416, Note_on_c, 0, 74, 100
4, 263608, Note_on_c, 0, 62, 100
4, 263799, Note_on_c, 0, 62, 0
4, 264183, Note_on_c, 0, 74, 0
4, 264952, Note_on_c, 0, 50, 100
4, 264952, Note_on_c, 0, 74, 100
4, 265332, Note_on_c, 0, 74, 0
4, 265336, Note_on_c, 0, 62, 100
4, 265527, Note_on_c, 0, 62, 0
4, 265527, Note_on_c, 0, 50, 0
4, 265720, Note_on_c, 0, 74, 100
4, 265911, Note_on_c, 0, 74, 0
4, 266392, Note_on_c, 0, 74, 100
4, 266487, Note_on_c, 0, 74, 0
4, 267256, Note_on_c, 0, 74, 100
4, 267447, Note_on_c, 0, 74, 0
4, 267832, Note_on_c, 0, 62, 100
4, 268023, Note_on_c, 0, 62, 0
4, 268696, Note_on_c, 0, 62, 100
4, 268791, Note_on_c, 0, 62, 0
4, 269176, Note_on_c, 0, 74, 100
4, 269271, Note_on_c, 0, 74, 0
4, 269368, Note_on_c, 0, 50, 100
4, 269464, Note_on_c, 0, 74, 100
4, 269559, Note_on_c, 0, 74, 0
4, 269559, Note_on_c, 0, 50, 0
4, 269752, Note_on_c, 0, 62, 100
4, 269847, Note_on_c, 0, 62, 0
4, 270424, Note_on_c, 0, 74, 100
4, 270519, Note_on_c, 0, 74, 0
4, 271480, Note_on_c, 0, 50, 100
4, 271671, Note_on_c, 0, 50, 0
4, 272536, Note_on_c, 0, 74, 100
4, 272631, Note_on_c, 0, 74, 0
4, 273016, Note_on_c, 0, 74, 100
4, 273207, Note_on_c, 0, 74, 0
4, 273304, Note_on_c, 0, 50, 100
4, 273399, Note_on_c, 0, 50, 0
4, 273592, Note_on_c, 0, 74, 100
4, 273687, Note_on_c, 0, 74, 0
4, 274456, Note_on_c, 0, 62, 100
4, 274551, Note_on_c, 0, 62, 0
4, 275320, Note_on_c, 0, 74, 100
4, 275703, Note_on_c, 0, 74, 0
4, 275896, Note_on_c, 0, 50, 100
4, 276087, Note_on_c, 0, 50, 0
4, 276760, Note_on_c, 0, 50, 100
4, 276855, Note_on_c, 0, 50, 0
4, 277240, Note_on_c, 0, 50, 100
4, 277335, Note_on_c, 0, 50, 0
4, 277432, Note_on_c, 0, 74, 100
4, 277528, Note_on_c, 0, 50, 100
4, 277623, Note_on_c, 0, 50, 0
4, 277623, Note_on_c, 0, 74, 0
4, 277816, Note_on_c, 0, 50, 100
4, 277911, Note_on_c, 0, 50, 0
4, 278488, Note_on_c, 0, 50, 100
4, 278583, Note_on_c, 0, 50, 0
4, 279544, Note_on_c, 0, 62, 100
4, 279927, Note_on_c, 0, 62, 0
4, 279928, Note_on_c, 0, 62, 100
4, 280458, Note_on_c, 0, 62, 0
4, 280504, Note_on_c, 0, 62, 100
4, 280695, Note_on_c, 0, 62, 0
4, 281080, Note_on_c, 0, 50, 100
4, 281368, Note_on_c, 0, 62, 100
4, 281463, Note_on_c, 0, 62, 0
4, 281463, Note_on_c, 0, 50, 0
4, 281656, Note_on_c, 0, 62, 100
4, 281751, Note_on_c, 0, 62, 0
4, 281848, Note_on_c, 0, 62, 100
4, 282039, Note_on_c, 0, 62, 0
4, 282616, Note_on_c, 0, 50, 100
4, 282807, Note_on_c, 0, 50, 0
4, 283672, Note_on_c, 0, 74, 100
4, 283767, Note_on_c, 0, 74, 0
4, 284056, Note_on_c, 0, 62, 100
4, 284151, Note_on_c, 0, 62, 0
4, 284536, Note_on_c, 0, 62, 100
4, 284916, Note_on_c, 0, 62, 0
4, 285112, Note_on_c, 0, 62, 100
4, 285303, Note_on_c, 0, 62, 0
4, 285304, Note_on_c, 0, 74, 100
4, 285496, Note_on_c, 0, 62, 100
4, 285687, Note_on_c, 0, 62, 0
4, 286071, Note_on_c, 0, 74, 0
4, 286840, Note_on_c, 0, 74, 100
4, 287220, Note_on_c, 0, 74, 0
4, 287224, Note_on_c, 0, 62, 100
4, 287415, Note_on_c, 0, 62, 0
4, 288280, Note_on_c, 0, 62, 100
4, 288375, Note_on_c, 0, 62, 0
4, 288568, Note_on_c, 0, 62, 100
4, 288759, Note_on_c, 0, 62, 0
4, 289144, Note_on_c, 0, 74, 100
4, 289335, Note_on_c, 0, 74, 0
4, 289336, Note_on_c, 0, 62, 100
4, 289431, Note_on_c, 0, 62, 0
4, 289528, Note_on_c, 0, 74, 100
4, 289908, Note_on_c, 0, 74, 0
4, 290200, Note_on_c, 0, 74, 100
4, 290295, Note_on_c, 0, 74, 0
4, 290584, Note_on_c, 0, 62, 100
4, 290679, Note_on_c, 0, 62, 0
4, 291064, Note_on_c, 0, 62, 100
4, 291255, Note_on_c, 0, 62, 0
4, 291256, Note_on_c, 0, 50, 100
4, 291256, Note_on_c, 0, 74, 100
4, 291351, Note_on_c, 0, 74, 0
4, 291447, Note_on_c, 0, 50, 0
4, 291832, Note_on_c, 0, 62, 100
4, 292407, Note_on_c, 0, 62, 0
4, 292600, Note_on_c, 0, 50, 100
4, 292600, Note_on_c, 0, 62, 100
4, 292791, Note_on_c, 0, 50, 0
4, 292983, Note_on_c, 0, 62, 0
4, 292984, Note_on_c, 0, 62, 100
4, 293559, Note_on_c, 0, 62, 0
4, 293752, Note_on_c, 0, 50, 100
4, 293752, Note_on_c, 0, 62, 100
4, 294132, Note_on_c, 0, 62, 0
4, 294132, Note_on_c, 0, 50, 0
4, 294328, Note_on_c, 0, 38, 100
4, 294519, Note_on_c, 0, 38, 0
4, 294520, Note_on_c, 0, 50, 100
4, 294712, Note_on_c, 0, 62, 100
4, 294903, Note_on_c, 0, 62, 0
4, 295287, Note_on_c, 0, 50, 0
4, 296056, Note_on_c, 0, 50, 100
4, 296536, Note_on_c, 0, 50, 0
4, 296632, Note_on_c, 0, 50, 100
4, 296632, Note_on_c, 0, 62, 100
4, 296727, Note_on_c, 0, 50, 0
4, 296823, Note_on_c, 0, 62, 0
4, 297304, Note_on_c, 0, 50, 100
4, 297399, Note_on_c, 0, 50, 0
4, 297976, Note_on_c, 0, 62, 100
4, 298167, Note_on_c, 0, 62, 0
4, 298552, Note_on_c, 0, 62, 100
4, 298647, Note_on_c, 0, 62, 0
4, 298840, Note_on_c, 0, 62, 100
4, 298935, Note_on_c, 0, 62, 0
4, 299128, Note_on_c, 0, 62, 100
4, 299223, Note_on_c, 0, 62, 0
4, 299320, Note_on_c, 0, 38, 100
4, 299511, Note_on_c, 0, 38, 0
4, 299800, Note_on_c, 0, 50, 100
4, 299895, Note_on_c, 0, 50, 0
4, 300664, Note_on_c, 0, 50, 100
4, 301047, Note_on_c, 0, 50, 0
4, 301240, Note_on_c, 0, 74, 100
4, 301431, Note_on_c, 0, 74, 0
4, 302104, Note_on_c, 0, 62, 100
4, 302199, Note_on_c, 0, 62, 0
4, 302488, Note_on_c, 0, 74, 100
4, 302583, Note_on_c, 0, 74, 0
4, 302968, Note_on_c, 0, 74, 100
4, 303351, Note_on_c, 0, 74, 0
4, 303544, Note_on_c, 0, 62, 100
4, 303735, Note_on_c, 0, 62, 0
4, 304408, Note_on_c, 0, 62, 100
4, 304503, Note_on_c, 0, 62, 0
4, 304888, Note_on_c, 0, 62, 100
4, 304983, Note_on_c, 0, 62, 0
4, 305176, Note_on_c, 0, 62, 100
4, 305271, Note_on_c, 0, 62, 0
4, 305272, Note_on_c, 0, 74, 100
4, 305463, Note_on_c, 0, 74, 0
4, 305464, Note_on_c, 0, 62, 100
4, 305559, Note_on_c, 0, 62, 0
4, 306136, Note_on_c, 0, 62, 100
4, 306231, Note_on_c, 0, 62, 0
4, 307192, Note_on_c, 0, 62, 100
4, 307575, Note_on_c, 0, 62, 0
4, 307576, Note_on_c, 0, 62, 100
4, 308151, Note_on_c, 0, 62, 0
4, 308152, Note_on_c, 0, 62, 100
4, 308343, Note_on_c, 0, 62, 0
4, 308920, Note_on_c, 0, 62, 100
4, 309111, Note_on_c, 0, 62, 0
4, 309112, Note_on_c, 0, 62, 100
4, 309304, Note_on_c, 0, 50, 100
4, 309495, Note_on_c, 0, 50, 0
4, 309687, Note_on_c, 0, 62, 0
4, 309688, Note_on_c, 0, 62, 100
4, 309879, Note_on_c, 0, 62, 0
4, 310072, Note_on_c, 0, 50, 100
4, 310167, Note_on_c, 0, 50, 0
4, 310360, Note_on_c, 0, 50, 100
4, 310455, Note_on_c, 0, 50, 0
4, 310648, Note_on_c, 0, 50, 100
4, 310743, Note_on_c, 0, 50, 0
4, 310840, Note_on_c, 0, 62, 100
4, 310936, Note_on_c, 0, 50, 100
4, 311031, Note_on_c, 0, 50, 0
4, 311415, Note_on_c, 0, 62, 0
4, 311608, Note_on_c, 0, 62, 100
4, 311799, Note_on_c, 0, 62, 0
4, 312184, Note_on_c, 0, 50, 100
4, 312375, Note_on_c, 0, 50, 0
4, 312376, Note_on_c, 0, 50, 100
4, 312471, Note_on_c, 0, 50, 0
4, 312568, Note_on_c, 0, 62, 100
4, 312951, Note_on_c, 0, 62, 0
4, 313144, Note_on_c, 0, 62, 100
4, 313335, Note_on_c, 0, 62, 0
4, 313528, Note_on_c, 0, 62, 100
4, 313719, Note_on_c, 0, 62, 0
4, 313720, Note_on_c, 0, 62, 100
4, 313720, Note_on_c, 0, 74, 100
4, 313911, Note_on_c, 0, 74, 0
4, 314104, Note_on_c, 0, 74, 100
4, 314295, Note_on_c, 0, 74, 0
4, 314295, Note_on_c, 0, 62, 0
4, 314296, Note_on_c, 0, 62, 100
4, 314487, Note_on_c, 0, 62, 0
4, 314488, Note_on_c, 0, 62, 100
4, 314680, Note_on_c, 0, 74, 100
4, 314775, Note_on_c, 0, 74, 0
4, 314868, Note_on_c, 0, 62, 0
4, 315832, Note_on_c, 0, 62, 100
4, 316023, Note_on_c, 0, 62, 0
4, 316024, Note_on_c, 0, 74, 100
4, 316215, Note_on_c, 0, 74, 0
4, 316408, Note_on_c, 0, 74, 100
4, 316599, Note_on_c, 0, 74, 0
4, 316984, Note_on_c, 0, 62, 100
4, 317079, Note_on_c, 0, 62, 0
4, 317368, Note_on_c, 0, 74, 100
4, 317559, Note_on_c, 0, 74, 0
4, 317752, Note_on_c, 0, 74, 100
4, 317943, Note_on_c, 0, 74, 0
4, 318136, Note_on_c, 0, 50, 100
4, 318327, Note_on_c, 0, 50, 0
4, 318328, Note_on_c, 0, 62, 100
4, 318519, Note_on_c, 0, 62, 0
4, 318712, Note_on_c, 0, 62, 100
4, 318903, Note_on_c, 0, 62, 0
4, 319288, Note_on_c, 0, 62, 100
4, 319863, Note_on_c, 0, 62, 0
4, 321400, Note_on_c, 0, 50, 100
4, 321783, Note_on_c, 0, 50, 0
4, 322840, Note_on_c, 0, 50, 100
4, 322935, Note_on_c, 0, 50, 0
4, 323512, Note_on_c, 0, 50, 100
4, 323512, Note_on_c, 0, 62, 100
4, 323703, Note_on_c, 0, 62, 0
4, 323703, Note_on_c, 0, 50, 0
4, 323704, Note_on_c, 0, 62, 100
4, 324087, Note_on_c, 0, 62, 0
4, 324088, Note_on_c, 0, 62, 100
4, 324663, Note_on_c, 0, 62, 0
4, 325144, Note_on_c, 0, 50, 100
4, 325239, Note_on_c, 0, 50, 0
4, 326296, Note_on_c, 0, 50, 100
4, 326391, Note_on_c, 0, 50, 0
4, 326776, Note_on_c, 0, 50, 100
4, 326967, Note_on_c, 0, 50, 0
4, 326968, Note_on_c, 0, 62, 100
4, 327159, Note_on_c, 0, 62, 0
4, 327160, Note_on_c, 0, 62, 100
4, 327543, Note_on_c, 0, 62, 0
4, 327544, Note_on_c, 0, 62, 100
4, 328024, Note_on_c, 0, 62, 0
4, 328312, Note_on_c, 0, 38, 100
4, 328312, Note_on_c, 0, 62, 100
4, 328503, Note_on_c, 0, 38, 0
4, 328692, Note_on_c, 0, 62, 0
4, 328888, Note_on_c, 0, 50, 100
4, 329079, Note_on_c, 0, 50, 0
4, 329080, Note_on_c, 0, 62, 100
4, 329272, Note_on_c, 0, 74, 100
4, 329463, Note_on_c, 0, 74, 0
4, 329847, Note_on_c, 0, 62, 0
4, 330616, Note_on_c, 0, 62, 100
4, 331096, Note_on_c, 0, 62, 0
4, 331192, Note_on_c, 0, 62, 100
4, 331383, Note_on_c, 0, 62, 0
4, 331384, Note_on_c, 0, 74, 100
4, 331576, Note_on_c, 0, 50, 100
4, 331767, Note_on_c, 0, 50, 0
4, 332151, Note_on_c, 0, 74, 0
4, 332920, Note_on_c, 0, 74, 100
4, 333300, Note_on_c, 0, 74, 0
4, 333496, Note_on_c, 0, 38, 100
4, 333687, Note_on_c, 0, 38, 0
4, 333688, Note_on_c, 0, 50, 100
4, 333880, Note_on_c, 0, 62, 100
4, 334071, Note_on_c, 0, 62, 0
4, 334455, Note_on_c, 0, 50, 0
4, 335224, Note_on_c, 0, 50, 100
4, 335704, Note_on_c, 0, 50, 0
4, 335800, Note_on_c, 0, 50, 100
4, 335800, Note_on_c, 0, 62, 100
4, 335895, Note_on_c, 0, 50, 0
4, 335991, Note_on_c, 0, 62, 0
4, 337720, Note_on_c, 0, 74, 100
4, 337911, Note_on_c, 0, 74, 0
4, 338488, Note_on_c, 0, 74, 100
4, 338679, Note_on_c, 0, 74, 0
4, 339448, Note_on_c, 0, 50, 100
4, 339639, Note_on_c, 0, 50, 0
4, 339832, Note_on_c, 0, 74, 100
4, 340023, Note_on_c, 0, 74, 0
4, 340888, Note_on_c, 0, 74, 100
4, 340983, Note_on_c, 0, 74, 0
4, 340984, Note_on_c, 0, 38, 100
4, 340984, Note_on_c, 0, 74, 100
4, 341175, Note_on_c, 0, 74, 0
4, 341464, Note_on_c, 0, 38, 0
4, 341560, Note_on_c, 0, 62, 100
4, 341560, Note_on_c, 0, 74, 100
4, 341751, Note_on_c, 0, 74, 0
4, 341751, Note_on_c, 0, 62, 0
4, 341752, Note_on_c, 0, 62, 100
4, 342135, Note_on_c, 0, 62, 0
4, 343288, Note_on_c, 0, 74, 100
4, 343479, Note_on_c, 0, 74, 0
4, 343672, Note_on_c, 0, 74, 100
4, 343863, Note_on_c, 0, 74, 0
4, 344632, Note_on_c, 0, 74, 100
4, 344727, Note_on_c, 0, 74, 0
4, 345592, Note_on_c, 0, 62, 100
4, 346072, Note_on_c, 0, 62, 0
4, 346168, Note_on_c, 0, 62, 100
4, 346168, Note_on_c, 0, 74, 100
4, 346359, Note_on_c, 0, 74, 0
4, 346359, Note_on_c, 0, 62, 0
4, 347512, Note_on_c, 0, 74, 100
4, 347703, Note_on_c, 0, 74, 0
4, 348664, Note_on_c, 0, 74, 100
4, 348855, Note_on_c, 0, 74, 0
4, 350968, Note_on_c, 0, 50, 100
4, 351159, Note_on_c, 0, 50, 0
4, 351352, Note_on_c, 0, 74, 100
4, 351543, Note_on_c, 0, 74, 0
4, 352120, Note_on_c, 0, 74, 100
4, 352311, Note_on_c, 0, 74, 0
4, 352888, Note_on_c, 0, 50, 100
4, 353168, Note_on_c, 0, 50, 0
4, 353656, Note_on_c, 0, 50, 100
4, 353847, Note_on_c, 0, 50, 0
4, 353944, Note_on_c, 0, 50, 100
4, 354039, Note_on_c, 0, 50, 0
4, 354616, Note_on_c, 0, 50, 100
4, 354807, Note_on_c, 0, 50, 0
4, 355000, Note_on_c, 0, 62, 100
4, 355095, Note_on_c, 0, 62, 0
4, 356152, Note_on_c, 0, 62, 100
4, 356343, Note_on_c, 0, 62, 0
4, 356344, Note_on_c, 0, 74, 100
4, 356535, Note_on_c, 0, 74, 0
4, 356728, Note_on_c, 0, 74, 100
4, 356919, Note_on_c, 0, 74, 0
4, 357304, Note_on_c, 0, 62, 100
4, 357399, Note_on_c, 0, 62, 0
4, 357976, Note_on_c, 0, 74, 100
4, 358071, Note_on_c, 0, 74, 0
4, 359032, Note_on_c, 0, 50, 100
4, 359223, Note_on_c, 0, 50, 0
4, 360568, Note_on_c, 0, 50, 100
4, 360759, Note_on_c, 0, 50, 0
4, 361144, Note_on_c, 0, 50, 100
4, 361335, Note_on_c, 0, 50, 0
4, 361336, Note_on_c, 0, 62, 100
4, 361719, Note_on_c, 0, 62, 0
4, 361720, Note_on_c, 0, 62, 100
4, 362100, Note_on_c, 0, 62, 0
4, 362872, Note_on_c, 0, 62, 100
4, 363063, Note_on_c, 0, 62, 0
4, 363256, Note_on_c, 0, 62, 100
4, 363447, Note_on_c, 0, 62, 0
4, 363640, Note_on_c, 0, 50, 100
4, 364023, Note_on_c, 0, 50, 0
4, 365176, Note_on_c, 0, 62, 100
4, 365556, Note_on_c, 0, 62, 0
4, 365560, Note_on_c, 0, 74, 100
4, 365751, Note_on_c, 0, 74, 0
4, 366136, Note_on_c, 0, 74, 100
4, 366327, Note_on_c, 0, 74, 0
4, 367480, Note_on_c, 0, 62, 100
4, 367864, Note_on_c, 0, 74, 100
4, 367960, Note_on_c, 0, 62, 0
4, 368055, Note_on_c, 0, 74, 0
4, 368056, Note_on_c, 0, 62, 100
4, 368151, Note_on_c, 0, 62, 0
4, 368920, Note_on_c, 0, 74, 100
4, 369015, Note_on_c, 0, 74, 0
4, 369976, Note_on_c, 0, 74, 100
4, 370167, Note_on_c, 0, 74, 0
4, 370552, Note_on_c, 0, 62, 100
4, 371127, Note_on_c, 0, 62, 0
4, 371128, Note_on_c, 0, 50, 100
4, 371319, Note_on_c, 0, 50, 0
4, 371704, Note_on_c, 0, 74, 100
4, 371895, Note_on_c, 0, 74, 0
4, 371992, Note_on_c, 0, 74, 100
4, 372087, Note_on_c, 0, 74, 0
4, 372376, Note_on_c, 0, 62, 100
4, 372471, Note_on_c, 0, 62, 0
4, 373432, Note_on_c, 0, 62, 100
4, 373527, Note_on_c, 0, 62, 0
4, 373624, Note_on_c, 0, 74, 100
4, 373816, Note_on_c, 0, 62, 100
4, 374007, Note_on_c, 0, 62, 0
4, 374199, Note_on_c, 0, 74, 0
4, 374200, Note_on_c, 0, 74, 100
4, 374391, Note_on_c, 0, 74, 0
4, 374392, Note_on_c, 0, 74, 100
4, 374775, Note_on_c, 0, 74, 0
4, 375832, Note_on_c, 0, 62, 100
4, 375927, Note_on_c, 0, 62, 0
4, 376312, Note_on_c, 0, 62, 100
4, 376408, Note_on_c, 0, 74, 100
4, 376503, Note_on_c, 0, 74, 0
4, 376503, Note_on_c, 0, 62, 0
4, 376600, Note_on_c, 0, 74, 100
4, 376695, Note_on_c, 0, 74, 0
4, 379096, Note_on_c, 0, 74, 100
4, 379191, Note_on_c, 0, 74, 0
4, 379192, Note_on_c, 0, 62, 100
4, 379288, Note_on_c, 0, 74, 100
4, 379383, Note_on_c, 0, 74, 0
4, 379383, Note_on_c, 0, 62, 0
4, 379480, Note_on_c, 0, 74, 100
4, 379575, Note_on_c, 0, 74, 0
4, 379576, Note_on_c, 0, 62, 100
4, 379672, Note_on_c, 0, 74, 100
4, 379767, Note_on_c, 0, 74, 0
4, 379767, Note_on_c, 0, 62, 0
4, 379864, Note_on_c, 0, 74, 100
4, 379959, Note_on_c, 0, 74, 0
4, 379960, Note_on_c, 0, 62, 100
4, 380056, Note_on_c, 0, 74, 100
4, 380151, Note_on_c, 0, 74, 0
4, 380151, Note_on_c, 0, 62, 0
4, 380344, Note_on_c, 0, 62, 100
4, 380535, Note_on_c, 0, 62, 0
4, 380728, Note_on_c, 0, 62, 100
4, 380919, Note_on_c, 0, 62, 0
4, 381112, Note_on_c, 0, 62, 100
4, 381303, Note_on_c, 0, 62, 0
4, 381496, Note_on_c, 0, 62, 100
4, 381687, Note_on_c, 0, 62, 0
4, 381880, Note_on_c, 0, 62, 100
4, 382071, Note_on_c, 0, 62, 0
4, 382264, Note_on_c, 0, 62, 100
4, 382455, Note_on_c, 0, 62, 0
4, 382744, Note_on_c, 0, 62, 100
4, 382839, Note_on_c, 0, 62, 0
4, 383224, Note_on_c, 0, 62, 100
4, 383991, Note_on_c, 0, 62, 0
4, 383992, Note_on_c, 0, 62, 100
4, 384372, Note_on_c, 0, 62, 0
4, 384664, Note_on_c, 0, 74, 100
4, 384759, Note_on_c, 0, 74, 0
4, 384760, Note_on_c, 0, 50, 100
4, 384760, Note_on_c, 0, 74, 100
4, 385140, Note_on_c, 0, 74, 0
4, 385240, Note_on_c, 0, 50, 0
4, 385336, Note_on_c, 0, 50, 100
4, 385527, Note_on_c, 0, 50, 0
4, 385528, Note_on_c, 0, 62, 100
4, 385720, Note_on_c, 0, 74, 100
4, 385911, Note_on_c, 0, 74, 0
4, 386295, Note_on_c, 0, 62, 0
4, 387064, Note_on_c, 0, 62, 100
4, 387444, Note_on_c, 0, 62, 0
4, 387640, Note_on_c, 0, 62, 100
4, 387831, Note_on_c, 0, 62, 0
4, 387832, Note_on_c, 0, 74, 100
4, 388024, Note_on_c, 0, 62, 100
4, 388215, Note_on_c, 0, 62, 0
4, 388599, Note_on_c, 0, 74, 0
4, 389368, Note_on_c, 0, 74, 100
4, 389943, Note_on_c, 0, 74, 0
4, 389944, Note_on_c, 0, 38, 100
4, 390135, Note_on_c, 0, 38, 0
4, 390136, Note_on_c, 0, 50, 100
4, 390328, Note_on_c, 0, 62, 100
4, 390519, Note_on_c, 0, 62, 0
4, 390903, Note_on_c, 0, 50, 0
4, 391672, Note_on_c, 0, 50, 100
4, 392152, Note_on_c, 0, 50, 0
4, 392248, Note_on_c, 0, 62, 100
4, 392248, Note_on_c, 0, 74, 100
4, 392439, Note_on_c, 0, 74, 0
4, 392439, Note_on_c, 0, 62, 0
4, 392440, Note_on_c, 0, 62, 100
4, 392823, Note_on_c, 0, 62, 0
4, 393976, Note_on_c, 0, 74, 100
4, 394167, Note_on_c, 0, 74, 0
4, 394168, Note_on_c, 0, 74, 100
4, 394263, Note_on_c, 0, 74, 0
4, 394360, Note_on_c, 0, 74, 100
4, 394552, Note_on_c, 0, 62, 100
4, 394743, Note_on_c, 0, 62, 0
4, 394744, Note_on_c, 0, 62, 100
4, 394935, Note_on_c, 0, 62, 0
4, 394936, Note_on_c, 0, 50, 100
4, 394936, Note_on_c, 0, 62, 100
4, 395127, Note_on_c, 0, 62, 0
4, 395127, Note_on_c, 0, 50, 0
4, 395128, Note_on_c, 0, 62, 100
4, 395319, Note_on_c, 0, 74, 0
4, 395320, Note_on_c, 0, 74, 100
4, 395415, Note_on_c, 0, 74, 0
4, 395508, Note_on_c, 0, 62, 0
4, 395512, Note_on_c, 0, 74, 100
4, 395704, Note_on_c, 0, 62, 100
4, 395895, Note_on_c, 0, 62, 0
4, 395896, Note_on_c, 0, 62, 100
4, 396087, Note_on_c, 0, 62, 0
4, 396087, Note_on_c, 0, 74, 0
4, 396088, Note_on_c, 0, 50, 100
4, 396088, Note_on_c, 0, 62, 100
4, 396279, Note_on_c, 0, 62, 0
4, 396279, Note_on_c, 0, 50, 0
4, 396280, Note_on_c, 0, 62, 100
4, 396472, Note_on_c, 0, 74, 100
4, 396567, Note_on_c, 0, 74, 0
4, 396660, Note_on_c, 0, 62, 0
4, 396856, Note_on_c, 0, 74, 100
4, 397047, Note_on_c, 0, 74, 0
4, 397336, Note_on_c, 0, 50, 100
4, 397431, Note_on_c, 0, 50, 0
4, 397816, Note_on_c, 0, 50, 100
4, 397911, Note_on_c, 0, 50, 0
4, 398008, Note_on_c, 0, 50, 100
4, 398103, Note_on_c, 0, 50, 0
4, 398296, Note_on_c, 0, 50, 100
4, 398391, Note_on_c, 0, 50, 0
4, 398680, Note_on_c, 0, 50, 100
4, 398775, Note_on_c, 0, 50, 0
4, 399352, Note_on_c, 0, 62, 100
4, 399543, Note_on_c, 0, 62, 0
4, 400024, Note_on_c, 0, 62, 100
4, 400119, Note_on_c, 0, 62, 0
4, 400504, Note_on_c, 0, 62, 100
4, 400600, Note_on_c, 0, 50, 100
4, 400695, Note_on_c, 0, 50, 0
4, 400695, Note_on_c, 0, 62, 0
4, 401272, Note_on_c, 0, 50, 100
4, 401367, Note_on_c, 0, 50, 0
4, 401464, Note_on_c, 0, 50, 100
4, 401559, Note_on_c, 0, 50, 0
4, 402232, Note_on_c, 0, 74, 100
4, 402327, Note_on_c, 0, 74, 0
4, 402328, Note_on_c, 0, 50, 100
4, 402423, Note_on_c, 0, 50, 0
4, 403096, Note_on_c, 0, 74, 100
4, 403191, Note_on_c, 0, 74, 0
4, 403598, Note_on_c, 0, 62, 100
4, 403798, Note_on_c, 0, 62, 0
4, 403802, Note_on_c, 0, 74, 100
4, 403901, Note_on_c, 0, 74, 0
4, 404412, Note_on_c, 0, 74, 100
4, 404412, Note_on_c, 0, 50, 100
4, 404643, Note_on_c, 0, 50, 0
4, 404643, Note_on_c, 0, 74, 0
4, 404874, Note_on_c, 0, 62, 100
4, 405087, Note_on_c, 0, 62, 0
4, 405096, Note_on_c, 0, 74, 100
4, 405201, Note_on_c, 0, 74, 0
4, 405837, Note_on_c, 0, 74, 100
4, 405837, Note_on_c, 0, 50, 100
4, 405837, Note_on_c, 0, 38, 100
4, 407129, Note_on_c, 0, 38, 0
4, 407129, Note_on_c, 0, 50, 0
4, 407129, Note_on_c, 0, 74, 0
4, 407129, End_track
5, 0, Start_track
5, 0, Title_t, "Tocatta No. 4 in D minor - BWV 913"
5, 0, Program_c, 0, 6
5, 0, Control_c, 0, 7, 100
5, 0, Control_c, 0, 10, 64
5, 0, Pitch_bend_c, 0, 7952
5, 29760, Note_on_c, 0, 63, 100
5, 29855, Note_on_c, 0, 63, 0
5, 30336, Note_on_c, 0, 63, 100
5, 30527, Note_on_c, 0, 63, 0
5, 33416, Note_on_c, 0, 51, 100
5, 33786, Note_on_c, 0, 51, 0
5, 94080, Note_on_c, 0, 75, 100
5, 94847, Note_on_c, 0, 75, 0
5, 95232, Note_on_c, 0, 63, 100
5, 95423, Note_on_c, 0, 63, 0
5, 95520, Note_on_c, 0, 75, 100
5, 95615, Note_on_c, 0, 75, 0
5, 95808, Note_on_c, 0, 75, 100
5, 95999, Note_on_c, 0, 75, 0
5, 109632, Note_on_c, 0, 51, 100
5, 109727, Note_on_c, 0, 51, 0
5, 109824, Note_on_c, 0, 63, 100
5, 110207, Note_on_c, 0, 63, 0
5, 111168, Note_on_c, 0, 51, 100
5, 111263, Note_on_c, 0, 51, 0
5, 112704, Note_on_c, 0, 75, 100
5, 112799, Note_on_c, 0, 75, 0
5, 113376, Note_on_c, 0, 75, 100
5, 113471, Note_on_c, 0, 75, 0
5, 114048, Note_on_c, 0, 51, 100
5, 114240, Note_on_c, 0, 75, 100
5, 114335, Note_on_c, 0, 75, 0
5, 114815, Note_on_c, 0, 51, 0
5, 115200, Note_on_c, 0, 51, 100
5, 115391, Note_on_c, 0, 51, 0
5, 115776, Note_on_c, 0, 63, 100
5, 115967, Note_on_c, 0, 63, 0
5, 116544, Note_on_c, 0, 63, 100
5, 116639, Note_on_c, 0, 63, 0
5, 118272, Note_on_c, 0, 75, 100
5, 118652, Note_on_c, 0, 75, 0
5, 119424, Note_on_c, 0, 63, 100
5, 119616, Note_on_c, 0, 75, 100
5, 119616, Note_on_c, 0, 51, 100
5, 119711, Note_on_c, 0, 75, 0
5, 119804, Note_on_c, 0, 63, 0
5, 119807, Note_on_c, 0, 51, 0
5, 120000, Note_on_c, 0, 63, 100
5, 120095, Note_on_c, 0, 63, 0
5, 121536, Note_on_c, 0, 63, 100
5, 121727, Note_on_c, 0, 63, 0
5, 122496, Note_on_c, 0, 51, 100
5, 123263, Note_on_c, 0, 51, 0
5, 126336, Note_on_c, 0, 51, 100
5, 127103, Note_on_c, 0, 51, 0
5, 127488, Note_on_c, 0, 51, 100
5, 127678, Note_on_c, 0, 51, 0
5, 127680, Note_on_c, 0, 51, 100
5, 127871, Note_on_c, 0, 51, 0
5, 128448, Note_on_c, 0, 63, 100
5, 128448, Note_on_c, 0, 51, 100
5, 128543, Note_on_c, 0, 51, 0
5, 128543, Note_on_c, 0, 63, 0
5, 129024, Note_on_c, 0, 51, 100
5, 129404, Note_on_c, 0, 51, 0
5, 129600, Note_on_c, 0, 51, 100
5, 129695, Note_on_c, 0, 51, 0
5, 130944, Note_on_c, 0, 75, 100
5, 131711, Note_on_c, 0, 75, 0
5, 193408, Note_on_c, 0, 75, 100
5, 193486, Note_on_c, 0, 75, 0
5, 195552, Note_on_c, 0, 75, 100
5, 195692, Note_on_c, 0, 75, 0
5, 196048, Note_on_c, 0, 63, 100
5, 196136, Note_on_c, 0, 63, 0
5, 196800, Note_on_c, 0, 75, 100
5, 196895, Note_on_c, 0, 75, 0
5, 197184, Note_on_c, 0, 63, 100
5, 197375, Note_on_c, 0, 63, 0
5, 197376, Note_on_c, 0, 63, 100
5, 197568, Note_on_c, 0, 75, 100
5, 197663, Note_on_c, 0, 75, 0
5, 197856, Note_on_c, 0, 63, 0
5, 201120, Note_on_c, 0, 75, 100
5, 201215, Note_on_c, 0, 75, 0
5, 201216, Note_on_c, 0, 75, 100
5, 201408, Note_on_c, 0, 63, 100
5, 201503, Note_on_c, 0, 63, 0
5, 201696, Note_on_c, 0, 75, 0
5, 201792, Note_on_c, 0, 75, 100
5, 201983, Note_on_c, 0, 75, 0
5, 204096, Note_on_c, 0, 75, 100
5, 204287, Note_on_c, 0, 75, 0
5, 204288, Note_on_c, 0, 75, 100
5, 204458, Note_on_c, 0, 75, 0
5, 204576, Note_on_c, 0, 75, 100
5, 204671, Note_on_c, 0, 75, 0
5, 204672, Note_on_c, 0, 75, 100
5, 204952, Note_on_c, 0, 75, 0
5, 204960, Note_on_c, 0, 75, 100
5, 205055, Note_on_c, 0, 75, 0
5, 205056, Note_on_c, 0, 75, 100
5, 205151, Note_on_c, 0, 75, 0
5, 205152, Note_on_c, 0, 75, 100
5, 205247, Note_on_c, 0, 75, 0
5, 205344, Note_on_c, 0, 75, 100
5, 205439, Note_on_c, 0, 75, 0
5, 205440, Note_on_c, 0, 75, 100
5, 205720, Note_on_c, 0, 75, 0
5, 205728, Note_on_c, 0, 75, 100
5, 205823, Note_on_c, 0, 75, 0
5, 207360, Note_on_c, 0, 75, 100
5, 207360, Note_on_c, 0, 63, 100
5, 207530, Note_on_c, 0, 63, 0
5, 207648, Note_on_c, 0, 63, 100
5, 207743, Note_on_c, 0, 63, 0
5, 207744, Note_on_c, 0, 63, 100
5, 207840, Note_on_c, 0, 75, 0
5, 207936, Note_on_c, 0, 75, 100
5, 208031, Note_on_c, 0, 63, 0
5, 208032, Note_on_c, 0, 63, 100
5, 208127, Note_on_c, 0, 63, 0
5, 208127, Note_on_c, 0, 75, 0
5, 208128, Note_on_c, 0, 75, 100
5, 208320, Note_on_c, 0, 63, 100
5, 208415, Note_on_c, 0, 63, 0
5, 208608, Note_on_c, 0, 75, 0
5, 208704, Note_on_c, 0, 75, 100
5, 208895, Note_on_c, 0, 75, 0
5, 208896, Note_on_c, 0, 75, 100
5, 209066, Note_on_c, 0, 75, 0
5, 209184, Note_on_c, 0, 75, 100
5, 209279, Note_on_c, 0, 75, 0
5, 209280, Note_on_c, 0, 75, 100
5, 209560, Note_on_c, 0, 75, 0
5, 209568, Note_on_c, 0, 75, 100
5, 209663, Note_on_c, 0, 75, 0
5, 209664, Note_on_c, 0, 75, 100
5, 209759, Note_on_c, 0, 75, 0
5, 209760, Note_on_c, 0, 75, 100
5, 209855, Note_on_c, 0, 75, 0
5, 209952, Note_on_c, 0, 75, 100
5, 210047, Note_on_c, 0, 75, 0
5, 210048, Note_on_c, 0, 75, 100
5, 210328, Note_on_c, 0, 75, 0
5, 212256, Note_on_c, 0, 75, 100
5, 212351, Note_on_c, 0, 75, 0
5, 213504, Note_on_c, 0, 63, 100
5, 213599, Note_on_c, 0, 63, 0
5, 213792, Note_on_c, 0, 63, 100
5, 213887, Note_on_c, 0, 63, 0
5, 213984, Note_on_c, 0, 63, 100
5, 214079, Note_on_c, 0, 63, 0
5, 214080, Note_on_c, 0, 63, 100
5, 214175, Note_on_c, 0, 63, 0
5, 214464, Note_on_c, 0, 75, 100
5, 214559, Note_on_c, 0, 75, 0
5, 214848, Note_on_c, 0, 63, 100
5, 215039, Note_on_c, 0, 63, 0
5, 215040, Note_on_c, 0, 63, 100
5, 215232, Note_on_c, 0, 75, 100
5, 215327, Note_on_c, 0, 75, 0
5, 215520, Note_on_c, 0, 63, 0
5, 217544, Note_on_c, 0, 75, 100
5, 217639, Note_on_c, 0, 75, 0
5, 217928, Note_on_c, 0, 51, 100
5, 218118, Note_on_c, 0, 51, 0
5, 221392, Note_on_c, 0, 51, 100
5, 221672, Note_on_c, 0, 51, 0
5, 221776, Note_on_c, 0, 51, 100
5, 221967, Note_on_c, 0, 51, 0
5, 226074, Note_on_c, 0, 63, 100
5, 226160, Note_on_c, 0, 63, 0
5, 290968, Note_on_c, 0, 63, 100
5, 291063, Note_on_c, 0, 63, 0
5, 306424, Note_on_c, 0, 63, 100
5, 306999, Note_on_c, 0, 63, 0
5, 307000, Note_on_c, 0, 63, 100
5, 307191, Note_on_c, 0, 63, 0
5, 312952, Note_on_c, 0, 63, 100
5, 313143, Note_on_c, 0, 63, 0
5, 317560, Note_on_c, 0, 75, 100
5, 317751, Note_on_c, 0, 75, 0
5, 320248, Note_on_c, 0, 51, 100
5, 320631, Note_on_c, 0, 51, 0
5, 321784, Note_on_c, 0, 51, 100
5, 321784, Note_on_c, 0, 63, 100
5, 321975, Note_on_c, 0, 51, 0
5, 322164, Note_on_c, 0, 63, 0
5, 322168, Note_on_c, 0, 51, 100
5, 322359, Note_on_c, 0, 51, 0
5, 322744, Note_on_c, 0, 51, 100
5, 322839, Note_on_c, 0, 51, 0
5, 322936, Note_on_c, 0, 63, 100
5, 323128, Note_on_c, 0, 51, 100
5, 323319, Note_on_c, 0, 51, 0
5, 323416, Note_on_c, 0, 63, 0
5, 343576, Note_on_c, 0, 75, 100
5, 343671, Note_on_c, 0, 75, 0
5, 344056, Note_on_c, 0, 75, 100
5, 344631, Note_on_c, 0, 75, 0
5, 345400, Note_on_c, 0, 63, 100
5, 345591, Note_on_c, 0, 63, 0
5, 346744, Note_on_c, 0, 75, 100
5, 347264, Note_on_c, 0, 75, 0
5, 347320, Note_on_c, 0, 75, 100
5, 347511, Note_on_c, 0, 75, 0
5, 347896, Note_on_c, 0, 75, 100
5, 348456, Note_on_c, 0, 75, 0
5, 348472, Note_on_c, 0, 75, 100
5, 348663, Note_on_c, 0, 75, 0
5, 349048, Note_on_c, 0, 75, 100
5, 349428, Note_on_c, 0, 75, 0
5, 349432, Note_on_c, 0, 75, 100
5, 349623, Note_on_c, 0, 75, 0
5, 350008, Note_on_c, 0, 75, 100
5, 350288, Note_on_c, 0, 75, 0
5, 351736, Note_on_c, 0, 75, 100
5, 351927, Note_on_c, 0, 75, 0
5, 352504, Note_on_c, 0, 51, 100
5, 352784, Note_on_c, 0, 51, 0
5, 353848, Note_on_c, 0, 51, 100
5, 353943, Note_on_c, 0, 51, 0
5, 354232, Note_on_c, 0, 51, 100
5, 354423, Note_on_c, 0, 51, 0
5, 357880, Note_on_c, 0, 51, 100
5, 358071, Note_on_c, 0, 51, 0
5, 359416, Note_on_c, 0, 51, 100
5, 359607, Note_on_c, 0, 51, 0
5, 359992, Note_on_c, 0, 51, 100
5, 360183, Note_on_c, 0, 51, 0
5, 360184, Note_on_c, 0, 63, 100
5, 360567, Note_on_c, 0, 63, 0
5, 360568, Note_on_c, 0, 63, 100
5, 360948, Note_on_c, 0, 63, 0
5, 361720, Note_on_c, 0, 63, 100
5, 362100, Note_on_c, 0, 63, 0
5, 362104, Note_on_c, 0, 51, 100
5, 362295, Note_on_c, 0, 51, 0
5, 362296, Note_on_c, 0, 63, 100
5, 362487, Note_on_c, 0, 63, 0
5, 362680, Note_on_c, 0, 63, 100
5, 362775, Note_on_c, 0, 63, 0
5, 363160, Note_on_c, 0, 63, 100
5, 363255, Note_on_c, 0, 63, 0
5, 364024, Note_on_c, 0, 51, 100
5, 364407, Note_on_c, 0, 51, 0
5, 364600, Note_on_c, 0, 63, 100
5, 364791, Note_on_c, 0, 63, 0
5, 365464, Note_on_c, 0, 75, 100
5, 365559, Note_on_c, 0, 75, 0
5, 366328, Note_on_c, 0, 75, 100
5, 366711, Note_on_c, 0, 75, 0
5, 366712, Note_on_c, 0, 75, 100
5, 366904, Note_on_c, 0, 63, 100
5, 367095, Note_on_c, 0, 63, 0
5, 367287, Note_on_c, 0, 75, 0
5, 367288, Note_on_c, 0, 75, 100
5, 367479, Note_on_c, 0, 75, 0
5, 367768, Note_on_c, 0, 75, 100
5, 367863, Note_on_c, 0, 75, 0
5, 368824, Note_on_c, 0, 75, 100
5, 368919, Note_on_c, 0, 75, 0
5, 369208, Note_on_c, 0, 75, 100
5, 369399, Note_on_c, 0, 75, 0
5, 369399, End_track
6, 0, Start_track
6, 0, Title_t, "Harpsichord"
6, 0, Program_c, 0, 6
6, 0, Control_c, 0, 7, 100
6, 0, Control_c, 0, 10, 64
6, 0, Pitch_bend_c, 0, 7792
6, 1996, Note_on_c, 0, 52, 100
6, 2176, Note_on_c, 0, 52, 0
6, 3276, Note_on_c, 0, 52, 100
6, 3371, Note_on_c, 0, 52, 0
6, 4213, Note_on_c, 0, 52, 100
6, 4365, Note_on_c, 0, 52, 0
6, 5197, Note_on_c, 0, 64, 100
6, 5263, Note_on_c, 0, 64, 0
6, 5479, Note_on_c, 0, 64, 100
6, 5545, Note_on_c, 0, 64, 0
6, 5963, Note_on_c, 0, 64, 100
6, 6029, Note_on_c, 0, 64, 0
6, 6593, Note_on_c, 0, 76, 100
6, 6659, Note_on_c, 0, 76, 0
6, 6815, Note_on_c, 0, 76, 100
6, 6857, Note_on_c, 0, 76, 0
6, 6946, Note_on_c, 0, 64, 100
6, 6988, Note_on_c, 0, 64, 0
6, 7962, Note_on_c, 0, 76, 100
6, 8002, Note_on_c, 0, 76, 0
6, 8421, Note_on_c, 0, 64, 100
6, 8461, Note_on_c, 0, 64, 0
6, 8588, Note_on_c, 0, 64, 100
6, 8628, Note_on_c, 0, 64, 0
6, 8922, Note_on_c, 0, 64, 100
6, 8962, Note_on_c, 0, 64, 0
6, 9638, Note_on_c, 0, 64, 100
6, 9731, Note_on_c, 0, 64, 0
6, 10109, Note_on_c, 0, 52, 100
6, 10202, Note_on_c, 0, 52, 0
6, 10492, Note_on_c, 0, 64, 100
6, 10707, Note_on_c, 0, 64, 0
6, 10918, Note_on_c, 0, 64, 100
6, 11109, Note_on_c, 0, 64, 0
6, 11306, Note_on_c, 0, 64, 100
6, 11506, Note_on_c, 0, 64, 0
6, 12336, Note_on_c, 0, 64, 100
6, 12426, Note_on_c, 0, 64, 0
6, 12702, Note_on_c, 0, 64, 100
6, 12792, Note_on_c, 0, 64, 0
6, 13342, Note_on_c, 0, 76, 100
6, 13684, Note_on_c, 0, 76, 0
6, 14622, Note_on_c, 0, 76, 100
6, 14888, Note_on_c, 0, 76, 0
6, 14896, Note_on_c, 0, 76, 100
6, 14986, Note_on_c, 0, 76, 0
6, 15756, Note_on_c, 0, 76, 100
6, 15846, Note_on_c, 0, 76, 0
6, 16190, Note_on_c, 0, 76, 100
6, 16419, Note_on_c, 0, 76, 0
6, 16758, Note_on_c, 0, 76, 100
6, 16882, Note_on_c, 0, 76, 0
6, 17610, Note_on_c, 0, 52, 100
6, 17659, Note_on_c, 0, 52, 0
6, 18307, Note_on_c, 0, 76, 100
6, 18406, Note_on_c, 0, 76, 0
6, 18508, Note_on_c, 0, 64, 100
6, 18607, Note_on_c, 0, 64, 0
6, 18710, Note_on_c, 0, 76, 100
6, 18809, Note_on_c, 0, 76, 0
6, 18912, Note_on_c, 0, 64, 100
6, 18912, Note_on_c, 0, 76, 100
6, 19011, Note_on_c, 0, 76, 0
6, 19011, Note_on_c, 0, 64, 0
6, 19113, Note_on_c, 0, 64, 100
6, 19212, Note_on_c, 0, 64, 0
6, 19315, Note_on_c, 0, 76, 100
6, 19414, Note_on_c, 0, 76, 0
6, 19516, Note_on_c, 0, 64, 100
6, 19516, Note_on_c, 0, 76, 100
6, 19615, Note_on_c, 0, 76, 0
6, 19615, Note_on_c, 0, 64, 0
6, 19718, Note_on_c, 0, 64, 100
6, 19817, Note_on_c, 0, 64, 0
6, 19920, Note_on_c, 0, 76, 100
6, 20019, Note_on_c, 0, 76, 0
6, 20121, Note_on_c, 0, 64, 100
6, 20220, Note_on_c, 0, 64, 0
6, 20527, Note_on_c, 0, 64, 100
6, 20630, Note_on_c, 0, 64, 0
6, 20737, Note_on_c, 0, 52, 100
6, 20840, Note_on_c, 0, 52, 0
6, 20957, Note_on_c, 0, 64, 100
6, 21064, Note_on_c, 0, 64, 0
6, 21397, Note_on_c, 0, 64, 100
6, 21504, Note_on_c, 0, 64, 0
6, 22263, Note_on_c, 0, 64, 100
6, 22660, Note_on_c, 0, 52, 100
6, 22790, Note_on_c, 0, 52, 0
6, 23136, Note_on_c, 0, 64, 0
6, 24960, Note_on_c, 0, 64, 100
6, 25151, Note_on_c, 0, 64, 0
6, 25248, Note_on_c, 0, 64, 100
6, 25343, Note_on_c, 0, 64, 0
6, 25344, Note_on_c, 0, 64, 100
6, 25727, Note_on_c, 0, 64, 0
6, 25920, Note_on_c, 0, 64, 100
6, 26015, Note_on_c, 0, 64, 0
6, 26496, Note_on_c, 0, 52, 100
6, 26688, Note_on_c, 0, 76, 100
6, 26783, Note_on_c, 0, 76, 0
6, 26879, Note_on_c, 0, 52, 0
6, 27168, Note_on_c, 0, 64, 100
6, 27263, Note_on_c, 0, 64, 0
6, 27648, Note_on_c, 0, 64, 100
6, 27839, Note_on_c, 0, 64, 0
6, 28032, Note_on_c, 0, 64, 100
6, 28397, Note_on_c, 0, 64, 0
6, 29088, Note_on_c, 0, 64, 100
6, 29183, Note_on_c, 0, 64, 0
6, 29184, Note_on_c, 0, 64, 100
6, 29544, Note_on_c, 0, 64, 0
6, 31296, Note_on_c, 0, 52, 100
6, 31391, Note_on_c, 0, 52, 0
6, 31680, Note_on_c, 0, 52, 100
6, 31871, Note_on_c, 0, 52, 0
6, 32072, Note_on_c, 0, 52, 100
6, 32263, Note_on_c, 0, 52, 0
6, 32328, Note_on_c, 0, 64, 100
6, 32391, Note_on_c, 0, 64, 0
6, 32840, Note_on_c, 0, 64, 100
6, 33031, Note_on_c, 0, 64, 0
6, 33224, Note_on_c, 0, 52, 100
6, 33415, Note_on_c, 0, 52, 0
6, 33516, Note_on_c, 0, 64, 100
6, 33622, Note_on_c, 0, 64, 0
6, 33808, Note_on_c, 0, 64, 100
6, 33808, Note_on_c, 0, 52, 100
6, 34096, Note_on_c, 0, 76, 100
6, 34191, Note_on_c, 0, 76, 0
6, 34383, Note_on_c, 0, 52, 0
6, 34959, Note_on_c, 0, 64, 0
6, 35632, Note_on_c, 0, 52, 100
6, 35727, Note_on_c, 0, 52, 0
6, 35728, Note_on_c, 0, 52, 100
6, 36303, Note_on_c, 0, 52, 0
6, 36304, Note_on_c, 0, 52, 100
6, 36399, Note_on_c, 0, 52, 0
6, 36880, Note_on_c, 0, 64, 100
6, 37420, Note_on_c, 0, 64, 0
6, 38416, Note_on_c, 0, 64, 100
6, 38416, Note_on_c, 0, 52, 100
6, 38766, Note_on_c, 0, 64, 0
6, 38796, Note_on_c, 0, 52, 0
6, 39568, Note_on_c, 0, 52, 100
6, 39568, Note_on_c, 0, 40, 100
6, 39856, Note_on_c, 0, 64, 100
6, 39951, Note_on_c, 0, 64, 0
6, 39951, Note_on_c, 0, 40, 0
6, 40048, Note_on_c, 0, 52, 0
6, 41392, Note_on_c, 0, 64, 100
6, 41487, Note_on_c, 0, 64, 0
6, 41488, Note_on_c, 0, 64, 100
6, 41868, Note_on_c, 0, 64, 0
6, 41980, Note_on_c, 0, 64, 100
6, 42075, Note_on_c, 0, 64, 0
6, 42280, Note_on_c, 0, 64, 100
6, 42650, Note_on_c, 0, 64, 0
6, 43336, Note_on_c, 0, 64, 100
6, 43431, Note_on_c, 0, 64, 0
6, 43624, Note_on_c, 0, 64, 100
6, 43719, Note_on_c, 0, 64, 0
6, 44725, Note_on_c, 0, 76, 100
6, 44799, Note_on_c, 0, 76, 0
6, 45354, Note_on_c, 0, 64, 100
6, 45433, Note_on_c, 0, 64, 0
6, 45665, Note_on_c, 0, 64, 100
6, 45735, Note_on_c, 0, 64, 0
6, 46905, Note_on_c, 0, 76, 100
6, 46987, Note_on_c, 0, 76, 0
6, 47435, Note_on_c, 0, 64, 100
6, 47538, Note_on_c, 0, 64, 0
6, 47885, Note_on_c, 0, 64, 100
6, 48233, Note_on_c, 0, 64, 0
6, 49867, Note_on_c, 0, 64, 100
6, 49961, Note_on_c, 0, 64, 0
6, 50355, Note_on_c, 0, 64, 100
6, 50555, Note_on_c, 0, 64, 0
6, 53760, Note_on_c, 0, 52, 100
6, 53951, Note_on_c, 0, 52, 0
6, 55296, Note_on_c, 0, 64, 100
6, 55487, Note_on_c, 0, 64, 0
6, 57120, Note_on_c, 0, 64, 100
6, 57215, Note_on_c, 0, 64, 0
6, 57984, Note_on_c, 0, 64, 100
6, 58164, Note_on_c, 0, 64, 0
6, 59136, Note_on_c, 0, 64, 100
6, 59327, Note_on_c, 0, 64, 0
6, 61056, Note_on_c, 0, 52, 100
6, 61247, Note_on_c, 0, 52, 0
6, 61824, Note_on_c, 0, 64, 100
6, 62207, Note_on_c, 0, 64, 0
6, 62592, Note_on_c, 0, 76, 100
6, 62592, Note_on_c, 0, 64, 100
6, 62783, Note_on_c, 0, 76, 0
6, 62975, Note_on_c, 0, 64, 0
6, 62976, Note_on_c, 0, 64, 100
6, 63356, Note_on_c, 0, 64, 0
6, 64128, Note_on_c, 0, 76, 100
6, 64320, Note_on_c, 0, 52, 100
6, 64511, Note_on_c, 0, 52, 0
6, 64895, Note_on_c, 0, 76, 0
6, 65280, Note_on_c, 0, 64, 100
6, 65472, Note_on_c, 0, 52, 100
6, 65663, Note_on_c, 0, 52, 0
6, 65855, Note_on_c, 0, 64, 0
6, 65856, Note_on_c, 0, 64, 100
6, 66047, Note_on_c, 0, 64, 0
6, 66432, Note_on_c, 0, 76, 100
6, 66432, Note_on_c, 0, 64, 100
6, 66623, Note_on_c, 0, 76, 0
6, 66815, Note_on_c, 0, 64, 0
6, 66816, Note_on_c, 0, 64, 100
6, 67199, Note_on_c, 0, 64, 0
6, 67968, Note_on_c, 0, 52, 100
6, 68159, Note_on_c, 0, 52, 0
6, 69504, Note_on_c, 0, 52, 100
6, 69696, Note_on_c, 0, 76, 100
6, 69887, Note_on_c, 0, 76, 0
6, 70271, Note_on_c, 0, 52, 0
6, 70848, Note_on_c, 0, 76, 100
6, 71039, Note_on_c, 0, 76, 0
6, 71232, Note_on_c, 0, 76, 100
6, 71423, Note_on_c, 0, 76, 0
6, 71808, Note_on_c, 0, 52, 100
6, 71999, Note_on_c, 0, 52, 0
6, 73344, Note_on_c, 0, 76, 100
6, 74111, Note_on_c, 0, 76, 0
6, 74496, Note_on_c, 0, 40, 100
6, 74687, Note_on_c, 0, 40, 0
6, 74880, Note_on_c, 0, 64, 100
6, 75071, Note_on_c, 0, 64, 0
6, 76032, Note_on_c, 0, 52, 100
6, 76223, Note_on_c, 0, 52, 0
6, 76416, Note_on_c, 0, 64, 100
6, 76799, Note_on_c, 0, 64, 0
6, 77568, Note_on_c, 0, 64, 100
6, 77759, Note_on_c, 0, 64, 0
6, 77760, Note_on_c, 0, 52, 100
6, 77951, Note_on_c, 0, 52, 0
6, 78528, Note_on_c, 0, 64, 100
6, 78623, Note_on_c, 0, 64, 0
6, 79392, Note_on_c, 0, 64, 100
6, 79487, Note_on_c, 0, 64, 0
6, 80448, Note_on_c, 0, 64, 100
6, 80618, Note_on_c, 0, 64, 0
6, 80832, Note_on_c, 0, 64, 100
6, 80927, Note_on_c, 0, 64, 0
6, 82176, Note_on_c, 0, 64, 100
6, 82367, Note_on_c, 0, 64, 0
6, 84000, Note_on_c, 0, 76, 100
6, 84095, Note_on_c, 0, 76, 0
6, 84864, Note_on_c, 0, 76, 100
6, 85044, Note_on_c, 0, 76, 0
6, 86016, Note_on_c, 0, 64, 100
6, 86207, Note_on_c, 0, 64, 0
6, 86976, Note_on_c, 0, 52, 100
6, 87167, Note_on_c, 0, 52, 0
6, 87552, Note_on_c, 0, 76, 100
6, 87743, Note_on_c, 0, 76, 0
6, 87744, Note_on_c, 0, 52, 100
6, 87935, Note_on_c, 0, 52, 0
6, 89088, Note_on_c, 0, 64, 100
6, 89279, Note_on_c, 0, 64, 0
6, 89280, Note_on_c, 0, 40, 100
6, 89471, Note_on_c, 0, 40, 0
6, 91008, Note_on_c, 0, 64, 100
6, 91391, Note_on_c, 0, 64, 0
6, 92544, Note_on_c, 0, 64, 100
6, 92927, Note_on_c, 0, 64, 0
6, 97152, Note_on_c, 0, 76, 100
6, 97919, Note_on_c, 0, 76, 0
6, 98304, Note_on_c, 0, 64, 100
6, 98496, Note_on_c, 0, 52, 100
6, 98687, Note_on_c, 0, 52, 0
6, 99071, Note_on_c, 0, 64, 0
6, 99264, Note_on_c, 0, 64, 100
6, 99359, Note_on_c, 0, 64, 0
6, 99456, Note_on_c, 0, 52, 100
6, 99647, Note_on_c, 0, 52, 0
6, 99840, Note_on_c, 0, 64, 100
6, 100031, Note_on_c, 0, 64, 0
6, 100800, Note_on_c, 0, 64, 100
6, 100895, Note_on_c, 0, 64, 0
6, 100992, Note_on_c, 0, 52, 100
6, 101759, Note_on_c, 0, 52, 0
6, 102144, Note_on_c, 0, 64, 100
6, 102335, Note_on_c, 0, 64, 0
6, 102336, Note_on_c, 0, 40, 100
6, 102527, Note_on_c, 0, 40, 0
6, 103680, Note_on_c, 0, 64, 100
6, 103871, Note_on_c, 0, 64, 0
6, 103968, Note_on_c, 0, 52, 100
6, 104063, Note_on_c, 0, 52, 0
6, 105216, Note_on_c, 0, 64, 100
6, 105407, Note_on_c, 0, 64, 0
6, 105504, Note_on_c, 0, 76, 100
6, 105599, Note_on_c, 0, 76, 0
6, 106272, Note_on_c, 0, 76, 100
6, 106367, Note_on_c, 0, 76, 0
6, 106464, Note_on_c, 0, 64, 100
6, 106559, Note_on_c, 0, 64, 0
6, 107136, Note_on_c, 0, 76, 100
6, 107903, Note_on_c, 0, 76, 0
6, 108288, Note_on_c, 0, 64, 100
6, 108576, Note_on_c, 0, 52, 100
6, 108671, Note_on_c, 0, 52, 0
6, 109055, Note_on_c, 0, 64, 0
6, 109248, Note_on_c, 0, 52, 100
6, 109343, Note_on_c, 0, 52, 0
6, 123648, Note_on_c, 0, 52, 100
6, 123839, Note_on_c, 0, 52, 0
6, 124224, Note_on_c, 0, 52, 100
6, 124415, Note_on_c, 0, 52, 0
6, 132096, Note_on_c, 0, 52, 100
6, 132287, Note_on_c, 0, 52, 0
6, 132480, Note_on_c, 0, 64, 100
6, 132863, Note_on_c, 0, 64, 0
6, 133632, Note_on_c, 0, 64, 100
6, 133823, Note_on_c, 0, 64, 0
6, 133920, Note_on_c, 0, 76, 100
6, 134015, Note_on_c, 0, 76, 0
6, 134112, Note_on_c, 0, 76, 100
6, 134207, Note_on_c, 0, 76, 0
6, 134496, Note_on_c, 0, 76, 100
6, 134591, Note_on_c, 0, 76, 0
6, 134784, Note_on_c, 0, 64, 100
6, 134880, Note_on_c, 0, 76, 100
6, 134975, Note_on_c, 0, 76, 0
6, 134975, Note_on_c, 0, 64, 0
6, 134976, Note_on_c, 0, 52, 100
6, 135167, Note_on_c, 0, 52, 0
6, 135360, Note_on_c, 0, 64, 100
6, 135455, Note_on_c, 0, 64, 0
6, 135936, Note_on_c, 0, 52, 100
6, 136032, Note_on_c, 0, 64, 100
6, 136127, Note_on_c, 0, 64, 0
6, 136127, Note_on_c, 0, 52, 0
6, 136512, Note_on_c, 0, 52, 100
6, 136607, Note_on_c, 0, 52, 0
6, 136800, Note_on_c, 0, 52, 100
6, 136895, Note_on_c, 0, 52, 0
6, 137856, Note_on_c, 0, 52, 100
6, 138623, Note_on_c, 0, 52, 0
6, 139008, Note_on_c, 0, 40, 100
6, 139199, Note_on_c, 0, 40, 0
6, 139392, Note_on_c, 0, 52, 100
6, 139679, Note_on_c, 0, 52, 0
6, 140544, Note_on_c, 0, 52, 100
6, 140735, Note_on_c, 0, 52, 0
6, 142080, Note_on_c, 0, 64, 100
6, 142271, Note_on_c, 0, 64, 0
6, 142368, Note_on_c, 0, 52, 100
6, 142463, Note_on_c, 0, 52, 0
6, 143040, Note_on_c, 0, 52, 100
6, 143231, Note_on_c, 0, 52, 0
6, 144000, Note_on_c, 0, 52, 100
6, 144191, Note_on_c, 0, 52, 0
6, 144576, Note_on_c, 0, 52, 100
6, 144767, Note_on_c, 0, 52, 0
6, 145152, Note_on_c, 0, 52, 100
6, 145248, Note_on_c, 0, 64, 100
6, 145343, Note_on_c, 0, 64, 0
6, 145343, Note_on_c, 0, 52, 0
6, 145440, Note_on_c, 0, 64, 100
6, 145535, Note_on_c, 0, 64, 0
6, 145632, Note_on_c, 0, 64, 100
6, 145727, Note_on_c, 0, 64, 0
6, 145824, Note_on_c, 0, 64, 100
6, 145919, Note_on_c, 0, 64, 0
6, 146688, Note_on_c, 0, 64, 100
6, 146688, Note_on_c, 0, 52, 100
6, 146879, Note_on_c, 0, 64, 0
6, 146880, Note_on_c, 0, 40, 100
6, 147071, Note_on_c, 0, 40, 0
6, 147455, Note_on_c, 0, 52, 0
6, 148224, Note_on_c, 0, 76, 100
6, 148415, Note_on_c, 0, 76, 0
6, 148512, Note_on_c, 0, 64, 100
6, 148607, Note_on_c, 0, 64, 0
6, 148704, Note_on_c, 0, 64, 100
6, 148799, Note_on_c, 0, 64, 0
6, 149184, Note_on_c, 0, 76, 100
6, 149184, Note_on_c, 0, 64, 100
6, 149279, Note_on_c, 0, 64, 0
6, 149279, Note_on_c, 0, 76, 0
6, 149376, Note_on_c, 0, 64, 100
6, 149471, Note_on_c, 0, 64, 0
6, 150240, Note_on_c, 0, 64, 100
6, 150335, Note_on_c, 0, 64, 0
6, 150912, Note_on_c, 0, 76, 100
6, 151104, Note_on_c, 0, 64, 100
6, 151199, Note_on_c, 0, 64, 0
6, 151679, Note_on_c, 0, 76, 0
6, 152064, Note_on_c, 0, 64, 100
6, 152160, Note_on_c, 0, 52, 100
6, 152255, Note_on_c, 0, 52, 0
6, 152736, Note_on_c, 0, 52, 100
6, 152831, Note_on_c, 0, 52, 0
6, 152831, Note_on_c, 0, 64, 0
6, 153024, Note_on_c, 0, 52, 100
6, 153119, Note_on_c, 0, 52, 0
6, 153408, Note_on_c, 0, 64, 100
6, 153503, Note_on_c, 0, 64, 0
6, 154080, Note_on_c, 0, 52, 100
6, 154175, Note_on_c, 0, 52, 0
6, 154272, Note_on_c, 0, 64, 100
6, 154367, Note_on_c, 0, 64, 0
6, 154944, Note_on_c, 0, 64, 100
6, 155134, Note_on_c, 0, 64, 0
6, 155424, Note_on_c, 0, 64, 100
6, 155519, Note_on_c, 0, 64, 0
6, 155904, Note_on_c, 0, 52, 100
6, 156096, Note_on_c, 0, 64, 100
6, 156191, Note_on_c, 0, 64, 0
6, 156288, Note_on_c, 0, 64, 100
6, 156384, Note_on_c, 0, 52, 0
6, 156863, Note_on_c, 0, 64, 0
6, 157824, Note_on_c, 0, 64, 100
6, 157968, Note_on_c, 0, 64, 0
6, 158016, Note_on_c, 0, 76, 100
6, 158111, Note_on_c, 0, 76, 0
6, 158880, Note_on_c, 0, 76, 100
6, 158975, Note_on_c, 0, 76, 0
6, 159744, Note_on_c, 0, 76, 100
6, 159839, Note_on_c, 0, 76, 0
6, 160224, Note_on_c, 0, 76, 100
6, 160319, Note_on_c, 0, 76, 0
6, 160320, Note_on_c, 0, 64, 100
6, 160510, Note_on_c, 0, 64, 0
6, 160620, Note_on_c, 0, 64, 100
6, 160715, Note_on_c, 0, 64, 0
6, 161600, Note_on_c, 0, 64, 100
6, 161695, Note_on_c, 0, 64, 0
6, 162192, Note_on_c, 0, 64, 100
6, 162287, Note_on_c, 0, 64, 0
6, 162976, Note_on_c, 0, 76, 100
6, 163071, Note_on_c, 0, 76, 0
6, 163264, Note_on_c, 0, 64, 100
6, 163647, Note_on_c, 0, 64, 0
6, 164440, Note_on_c, 0, 40, 100
6, 164440, Note_on_c, 0, 64, 100
6, 164631, Note_on_c, 0, 40, 0
6, 164823, Note_on_c, 0, 64, 0
6, 164824, Note_on_c, 0, 64, 100
6, 165207, Note_on_c, 0, 64, 0
6, 165976, Note_on_c, 0, 64, 100
6, 166167, Note_on_c, 0, 64, 0
6, 166360, Note_on_c, 0, 52, 100
6, 166743, Note_on_c, 0, 52, 0
6, 167816, Note_on_c, 0, 64, 100
6, 167911, Note_on_c, 0, 64, 0
6, 168696, Note_on_c, 0, 64, 100
6, 169463, Note_on_c, 0, 64, 0
6, 170232, Note_on_c, 0, 64, 100
6, 170424, Note_on_c, 0, 52, 100
6, 170615, Note_on_c, 0, 52, 0
6, 170999, Note_on_c, 0, 64, 0
6, 171384, Note_on_c, 0, 40, 100
6, 171575, Note_on_c, 0, 40, 0
6, 171768, Note_on_c, 0, 52, 100
6, 172151, Note_on_c, 0, 52, 0
6, 173136, Note_on_c, 0, 64, 100
6, 173231, Note_on_c, 0, 64, 0
6, 173424, Note_on_c, 0, 52, 100
6, 173519, Note_on_c, 0, 52, 0
6, 173712, Note_on_c, 0, 52, 100
6, 173904, Note_on_c, 0, 64, 100
6, 173999, Note_on_c, 0, 64, 0
6, 174092, Note_on_c, 0, 52, 0
6, 174384, Note_on_c, 0, 52, 100
6, 174479, Note_on_c, 0, 52, 0
6, 174672, Note_on_c, 0, 64, 100
6, 174767, Note_on_c, 0, 64, 0
6, 175152, Note_on_c, 0, 52, 100
6, 175247, Note_on_c, 0, 52, 0
6, 175440, Note_on_c, 0, 64, 100
6, 175535, Note_on_c, 0, 64, 0
6, 175824, Note_on_c, 0, 52, 100
6, 175919, Note_on_c, 0, 52, 0
6, 176208, Note_on_c, 0, 64, 100
6, 176303, Note_on_c, 0, 64, 0
6, 176496, Note_on_c, 0, 52, 100
6, 176591, Note_on_c, 0, 52, 0
6, 177552, Note_on_c, 0, 52, 100
6, 177832, Note_on_c, 0, 52, 0
6, 177864, Note_on_c, 0, 52, 100
6, 177959, Note_on_c, 0, 52, 0
6, 178440, Note_on_c, 0, 52, 100
6, 178535, Note_on_c, 0, 52, 0
6, 178824, Note_on_c, 0, 64, 100
6, 178919, Note_on_c, 0, 64, 0
6, 179976, Note_on_c, 0, 64, 100
6, 180071, Note_on_c, 0, 64, 0
6, 180360, Note_on_c, 0, 76, 100
6, 180455, Note_on_c, 0, 76, 0
6, 181320, Note_on_c, 0, 76, 100
6, 181415, Note_on_c, 0, 76, 0
6, 182184, Note_on_c, 0, 64, 100
6, 182564, Note_on_c, 0, 64, 0
6, 182856, Note_on_c, 0, 64, 100
6, 182951, Note_on_c, 0, 64, 0
6, 183432, Note_on_c, 0, 52, 100
6, 183527, Note_on_c, 0, 52, 0
6, 184104, Note_on_c, 0, 64, 100
6, 184484, Note_on_c, 0, 64, 0
6, 185008, Note_on_c, 0, 64, 100
6, 185103, Note_on_c, 0, 64, 0
6, 185808, Note_on_c, 0, 76, 100
6, 185903, Note_on_c, 0, 76, 0
6, 187064, Note_on_c, 0, 52, 100
6, 187447, Note_on_c, 0, 52, 0
6, 188248, Note_on_c, 0, 52, 100
6, 188343, Note_on_c, 0, 52, 0
6, 194688, Note_on_c, 0, 52, 100
6, 194751, Note_on_c, 0, 52, 0
6, 198912, Note_on_c, 0, 52, 100
6, 199392, Note_on_c, 0, 52, 0
6, 199488, Note_on_c, 0, 52, 100
6, 199679, Note_on_c, 0, 52, 0
6, 201984, Note_on_c, 0, 76, 100
6, 202464, Note_on_c, 0, 76, 0
6, 202560, Note_on_c, 0, 76, 100
6, 202751, Note_on_c, 0, 76, 0
6, 211200, Note_on_c, 0, 52, 100
6, 211680, Note_on_c, 0, 52, 0
6, 211776, Note_on_c, 0, 52, 100
6, 211967, Note_on_c, 0, 52, 0
6, 216576, Note_on_c, 0, 76, 100
6, 217056, Note_on_c, 0, 76, 0
6, 217152, Note_on_c, 0, 76, 100
6, 217342, Note_on_c, 0, 76, 0
6, 219472, Note_on_c, 0, 64, 100
6, 219662, Note_on_c, 0, 64, 0
6, 219664, Note_on_c, 0, 64, 100
6, 219856, Note_on_c, 0, 76, 100
6, 219951, Note_on_c, 0, 76, 0
6, 220144, Note_on_c, 0, 64, 0
6, 220240, Note_on_c, 0, 64, 100
6, 220430, Note_on_c, 0, 64, 0
6, 221968, Note_on_c, 0, 52, 100
6, 222160, Note_on_c, 0, 64, 100
6, 222255, Note_on_c, 0, 64, 0
6, 222735, Note_on_c, 0, 52, 0
6, 222736, Note_on_c, 0, 64, 100
6, 223216, Note_on_c, 0, 64, 0
6, 223312, Note_on_c, 0, 64, 100
6, 223502, Note_on_c, 0, 64, 0
6, 223504, Note_on_c, 0, 64, 100
6, 223984, Note_on_c, 0, 64, 0
6, 224080, Note_on_c, 0, 64, 100
6, 224270, Note_on_c, 0, 64, 0
6, 224653, Note_on_c, 0, 64, 100
6, 224740, Note_on_c, 0, 64, 0
6, 225352, Note_on_c, 0, 52, 100
6, 225438, Note_on_c, 0, 52, 0
6, 230076, Note_on_c, 0, 64, 100
6, 230189, Note_on_c, 0, 64, 0
6, 233848, Note_on_c, 0, 52, 100
6, 234039, Note_on_c, 0, 52, 0
6, 234808, Note_on_c, 0, 52, 100
6, 234999, Note_on_c, 0, 52, 0
6, 236152, Note_on_c, 0, 76, 100
6, 236343, Note_on_c, 0, 76, 0
6, 237112, Note_on_c, 0, 76, 100
6, 237303, Note_on_c, 0, 76, 0
6, 238840, Note_on_c, 0, 76, 100
6, 239031, Note_on_c, 0, 76, 0
6, 240376, Note_on_c, 0, 76, 100
6, 240567, Note_on_c, 0, 76, 0
6, 240952, Note_on_c, 0, 76, 100
6, 241143, Note_on_c, 0, 76, 0
6, 241528, Note_on_c, 0, 76, 100
6, 241719, Note_on_c, 0, 76, 0
6, 242104, Note_on_c, 0, 76, 100
6, 242295, Note_on_c, 0, 76, 0
6, 242872, Note_on_c, 0, 76, 100
6, 242967, Note_on_c, 0, 76, 0
6, 243352, Note_on_c, 0, 76, 100
6, 243447, Note_on_c, 0, 76, 0
6, 243640, Note_on_c, 0, 76, 100
6, 243735, Note_on_c, 0, 76, 0
6, 243832, Note_on_c, 0, 76, 100
6, 244023, Note_on_c, 0, 76, 0
6, 244120, Note_on_c, 0, 52, 100
6, 244215, Note_on_c, 0, 52, 0
6, 244408, Note_on_c, 0, 52, 100
6, 244408, Note_on_c, 0, 76, 100
6, 244503, Note_on_c, 0, 76, 0
6, 244503, Note_on_c, 0, 52, 0
6, 246520, Note_on_c, 0, 64, 100
6, 246711, Note_on_c, 0, 64, 0
6, 247480, Note_on_c, 0, 64, 100
6, 247671, Note_on_c, 0, 64, 0
6, 248248, Note_on_c, 0, 76, 100
6, 248439, Note_on_c, 0, 76, 0
6, 249016, Note_on_c, 0, 52, 100
6, 249111, Note_on_c, 0, 52, 0
6, 250168, Note_on_c, 0, 64, 100
6, 250359, Note_on_c, 0, 64, 0
6, 250360, Note_on_c, 0, 76, 100
6, 250551, Note_on_c, 0, 76, 0
6, 250744, Note_on_c, 0, 76, 100
6, 250935, Note_on_c, 0, 76, 0
6, 251320, Note_on_c, 0, 64, 100
6, 251511, Note_on_c, 0, 64, 0
6, 252088, Note_on_c, 0, 64, 100
6, 252279, Note_on_c, 0, 64, 0
6, 253432, Note_on_c, 0, 52, 100
6, 253623, Note_on_c, 0, 52, 0
6, 254392, Note_on_c, 0, 52, 100
6, 254583, Note_on_c, 0, 52, 0
6, 255736, Note_on_c, 0, 64, 100
6, 256116, Note_on_c, 0, 64, 0
6, 256120, Note_on_c, 0, 52, 100
6, 256311, Note_on_c, 0, 52, 0
6, 256312, Note_on_c, 0, 64, 100
6, 256503, Note_on_c, 0, 64, 0
6, 256696, Note_on_c, 0, 64, 100
6, 256791, Note_on_c, 0, 64, 0
6, 257176, Note_on_c, 0, 52, 100
6, 257271, Note_on_c, 0, 52, 0
6, 257656, Note_on_c, 0, 64, 100
6, 257751, Note_on_c, 0, 64, 0
6, 257848, Note_on_c, 0, 40, 100
6, 257944, Note_on_c, 0, 64, 100
6, 258039, Note_on_c, 0, 64, 0
6, 258039, Note_on_c, 0, 40, 0
6, 258232, Note_on_c, 0, 52, 100
6, 258327, Note_on_c, 0, 52, 0
6, 260152, Note_on_c, 0, 64, 100
6, 260343, Note_on_c, 0, 64, 0
6, 262072, Note_on_c, 0, 52, 100
6, 262072, Note_on_c, 0, 76, 100
6, 262167, Note_on_c, 0, 76, 0
6, 262263, Note_on_c, 0, 52, 0
6, 263800, Note_on_c, 0, 64, 100
6, 263991, Note_on_c, 0, 64, 0
6, 264760, Note_on_c, 0, 64, 100
6, 264951, Note_on_c, 0, 64, 0
6, 265240, Note_on_c, 0, 64, 100
6, 265335, Note_on_c, 0, 64, 0
6, 265624, Note_on_c, 0, 76, 100
6, 265719, Note_on_c, 0, 76, 0
6, 266296, Note_on_c, 0, 52, 100
6, 266296, Note_on_c, 0, 76, 100
6, 266391, Note_on_c, 0, 76, 0
6, 266487, Note_on_c, 0, 52, 0
6, 267448, Note_on_c, 0, 52, 100
6, 267639, Note_on_c, 0, 52, 0
6, 267640, Note_on_c, 0, 64, 100
6, 267831, Note_on_c, 0, 64, 0
6, 268024, Note_on_c, 0, 64, 100
6, 268215, Note_on_c, 0, 64, 0
6, 268600, Note_on_c, 0, 64, 100
6, 268695, Note_on_c, 0, 64, 0
6, 269272, Note_on_c, 0, 76, 100
6, 269367, Note_on_c, 0, 76, 0
6, 270328, Note_on_c, 0, 52, 100
6, 270519, Note_on_c, 0, 52, 0
6, 271864, Note_on_c, 0, 52, 100
6, 272055, Note_on_c, 0, 52, 0
6, 272440, Note_on_c, 0, 52, 100
6, 272440, Note_on_c, 0, 76, 100
6, 272535, Note_on_c, 0, 76, 0
6, 272631, Note_on_c, 0, 52, 0
6, 272632, Note_on_c, 0, 64, 100
6, 273015, Note_on_c, 0, 64, 0
6, 273208, Note_on_c, 0, 52, 100
6, 273303, Note_on_c, 0, 52, 0
6, 273400, Note_on_c, 0, 76, 100
6, 273591, Note_on_c, 0, 76, 0
6, 273784, Note_on_c, 0, 52, 100
6, 274167, Note_on_c, 0, 52, 0
6, 274360, Note_on_c, 0, 64, 100
6, 274455, Note_on_c, 0, 64, 0
6, 275512, Note_on_c, 0, 40, 100
6, 275703, Note_on_c, 0, 40, 0
6, 275704, Note_on_c, 0, 52, 100
6, 275895, Note_on_c, 0, 52, 0
6, 276088, Note_on_c, 0, 52, 100
6, 276279, Note_on_c, 0, 52, 0
6, 276280, Note_on_c, 0, 76, 100
6, 276471, Note_on_c, 0, 76, 0
6, 276664, Note_on_c, 0, 52, 100
6, 276759, Note_on_c, 0, 52, 0
6, 277336, Note_on_c, 0, 52, 100
6, 277431, Note_on_c, 0, 52, 0
6, 278392, Note_on_c, 0, 64, 100
6, 278775, Note_on_c, 0, 64, 0
6, 278776, Note_on_c, 0, 64, 100
6, 279296, Note_on_c, 0, 64, 0
6, 279352, Note_on_c, 0, 64, 100
6, 279543, Note_on_c, 0, 64, 0
6, 279928, Note_on_c, 0, 64, 100
6, 280458, Note_on_c, 0, 64, 0
6, 280504, Note_on_c, 0, 52, 100
6, 280504, Note_on_c, 0, 64, 100
6, 280695, Note_on_c, 0, 64, 0
6, 280695, Note_on_c, 0, 52, 0
6, 280696, Note_on_c, 0, 64, 100
6, 280887, Note_on_c, 0, 64, 0
6, 281272, Note_on_c, 0, 64, 100
6, 281367, Note_on_c, 0, 64, 0
6, 281464, Note_on_c, 0, 64, 100
6, 281655, Note_on_c, 0, 64, 0
6, 282520, Note_on_c, 0, 52, 100
6, 282615, Note_on_c, 0, 52, 0
6, 283000, Note_on_c, 0, 52, 100
6, 283191, Note_on_c, 0, 52, 0
6, 283192, Note_on_c, 0, 40, 100
6, 283383, Note_on_c, 0, 40, 0
6, 283576, Note_on_c, 0, 76, 100
6, 283671, Note_on_c, 0, 76, 0
6, 283960, Note_on_c, 0, 64, 100
6, 284055, Note_on_c, 0, 64, 0
6, 285688, Note_on_c, 0, 64, 100
6, 285879, Note_on_c, 0, 64, 0
6, 286072, Note_on_c, 0, 76, 100
6, 286647, Note_on_c, 0, 76, 0
6, 286648, Note_on_c, 0, 64, 100
6, 286648, Note_on_c, 0, 76, 100
6, 286839, Note_on_c, 0, 76, 0
6, 286839, Note_on_c, 0, 64, 0
6, 287032, Note_on_c, 0, 64, 100
6, 287223, Note_on_c, 0, 64, 0
6, 287992, Note_on_c, 0, 76, 100
6, 288184, Note_on_c, 0, 64, 100
6, 288279, Note_on_c, 0, 64, 0
6, 288372, Note_on_c, 0, 76, 0
6, 288376, Note_on_c, 0, 64, 100
6, 288567, Note_on_c, 0, 64, 0
6, 289048, Note_on_c, 0, 76, 100
6, 289143, Note_on_c, 0, 76, 0
6, 289432, Note_on_c, 0, 76, 100
6, 289527, Note_on_c, 0, 76, 0
6, 289912, Note_on_c, 0, 64, 100
6, 290104, Note_on_c, 0, 52, 100
6, 290104, Note_on_c, 0, 76, 100
6, 290199, Note_on_c, 0, 76, 0
6, 290292, Note_on_c, 0, 64, 0
6, 290295, Note_on_c, 0, 52, 0
6, 290488, Note_on_c, 0, 64, 100
6, 290583, Note_on_c, 0, 64, 0
6, 292504, Note_on_c, 0, 64, 100
6, 292599, Note_on_c, 0, 64, 0
6, 292984, Note_on_c, 0, 64, 100
6, 293176, Note_on_c, 0, 52, 100
6, 293367, Note_on_c, 0, 52, 0
6, 293559, Note_on_c, 0, 64, 0
6, 293560, Note_on_c, 0, 64, 100
6, 293751, Note_on_c, 0, 64, 0
6, 294904, Note_on_c, 0, 64, 100
6, 295095, Note_on_c, 0, 64, 0
6, 295864, Note_on_c, 0, 64, 100
6, 296055, Note_on_c, 0, 64, 0
6, 297208, Note_on_c, 0, 64, 100
6, 297399, Note_on_c, 0, 64, 0
6, 297784, Note_on_c, 0, 64, 100
6, 297879, Note_on_c, 0, 64, 0
6, 298360, Note_on_c, 0, 64, 100
6, 298455, Note_on_c, 0, 64, 0
6, 298648, Note_on_c, 0, 64, 100
6, 298743, Note_on_c, 0, 64, 0
6, 299512, Note_on_c, 0, 40, 100
6, 299704, Note_on_c, 0, 52, 100
6, 299799, Note_on_c, 0, 52, 0
6, 299895, Note_on_c, 0, 40, 0
6, 300472, Note_on_c, 0, 64, 100
6, 300663, Note_on_c, 0, 64, 0
6, 300856, Note_on_c, 0, 64, 100
6, 301047, Note_on_c, 0, 64, 0
6, 301048, Note_on_c, 0, 52, 100
6, 301048, Note_on_c, 0, 64, 100
6, 301048, Note_on_c, 0, 76, 100
6, 301239, Note_on_c, 0, 76, 0
6, 301432, Note_on_c, 0, 76, 100
6, 301623, Note_on_c, 0, 76, 0
6, 301623, Note_on_c, 0, 64, 0
6, 301623, Note_on_c, 0, 52, 0
6, 301624, Note_on_c, 0, 52, 100
6, 301624, Note_on_c, 0, 64, 100
6, 301814, Note_on_c, 0, 64, 0
6, 301815, Note_on_c, 0, 52, 0
6, 302008, Note_on_c, 0, 64, 100
6, 302103, Note_on_c, 0, 64, 0
6, 302392, Note_on_c, 0, 76, 100
6, 302487, Note_on_c, 0, 76, 0
6, 303160, Note_on_c, 0, 52, 100
6, 303351, Note_on_c, 0, 52, 0
6, 303352, Note_on_c, 0, 64, 100
6, 303543, Note_on_c, 0, 64, 0
6, 303736, Note_on_c, 0, 64, 100
6, 303927, Note_on_c, 0, 64, 0
6, 304120, Note_on_c, 0, 76, 100
6, 304311, Note_on_c, 0, 76, 0
6, 304312, Note_on_c, 0, 64, 100
6, 304407, Note_on_c, 0, 64, 0
6, 304984, Note_on_c, 0, 64, 100
6, 305079, Note_on_c, 0, 64, 0
6, 306040, Note_on_c, 0, 64, 100
6, 306423, Note_on_c, 0, 64, 0
6, 307768, Note_on_c, 0, 64, 100
6, 307959, Note_on_c, 0, 64, 0
6, 307960, Note_on_c, 0, 64, 100
6, 308152, Note_on_c, 0, 52, 100
6, 308343, Note_on_c, 0, 52, 0
6, 308535, Note_on_c, 0, 64, 0
6, 308536, Note_on_c, 0, 64, 100
6, 308727, Note_on_c, 0, 64, 0
6, 309880, Note_on_c, 0, 52, 100
6, 309975, Note_on_c, 0, 52, 0
6, 310168, Note_on_c, 0, 52, 100
6, 310263, Note_on_c, 0, 52, 0
6, 310744, Note_on_c, 0, 52, 100
6, 310839, Note_on_c, 0, 52, 0
6, 311032, Note_on_c, 0, 64, 100
6, 311223, Note_on_c, 0, 64, 0
6, 311224, Note_on_c, 0, 52, 100
6, 311415, Note_on_c, 0, 52, 0
6, 311416, Note_on_c, 0, 64, 100
6, 311607, Note_on_c, 0, 64, 0
6, 311800, Note_on_c, 0, 64, 100
6, 311895, Note_on_c, 0, 64, 0
6, 312088, Note_on_c, 0, 64, 100
6, 312183, Note_on_c, 0, 64, 0
6, 324472, Note_on_c, 0, 52, 100
6, 324663, Note_on_c, 0, 52, 0
6, 324664, Note_on_c, 0, 64, 100
6, 324855, Note_on_c, 0, 64, 0
6, 324856, Note_on_c, 0, 64, 100
6, 325048, Note_on_c, 0, 52, 100
6, 325143, Note_on_c, 0, 52, 0
6, 325239, Note_on_c, 0, 64, 0
6, 325240, Note_on_c, 0, 64, 100
6, 325432, Note_on_c, 0, 52, 100
6, 325623, Note_on_c, 0, 52, 0
6, 325720, Note_on_c, 0, 64, 0
6, 325816, Note_on_c, 0, 64, 100
6, 326007, Note_on_c, 0, 64, 0
6, 326200, Note_on_c, 0, 52, 100
6, 326295, Note_on_c, 0, 52, 0
6, 326392, Note_on_c, 0, 64, 100
6, 326872, Note_on_c, 0, 64, 0
6, 327160, Note_on_c, 0, 64, 100
6, 327543, Note_on_c, 0, 64, 0
6, 327544, Note_on_c, 0, 64, 100
6, 327928, Note_on_c, 0, 40, 100
6, 328024, Note_on_c, 0, 64, 0
6, 328119, Note_on_c, 0, 40, 0
6, 328120, Note_on_c, 0, 64, 100
6, 328311, Note_on_c, 0, 64, 0
6, 329464, Note_on_c, 0, 76, 100
6, 329655, Note_on_c, 0, 76, 0
6, 330424, Note_on_c, 0, 76, 100
6, 330615, Note_on_c, 0, 76, 0
6, 331768, Note_on_c, 0, 52, 100
6, 331959, Note_on_c, 0, 52, 0
6, 332728, Note_on_c, 0, 52, 100
6, 332919, Note_on_c, 0, 52, 0
6, 334072, Note_on_c, 0, 64, 100
6, 334263, Note_on_c, 0, 64, 0
6, 335032, Note_on_c, 0, 64, 100
6, 335223, Note_on_c, 0, 64, 0
6, 336760, Note_on_c, 0, 76, 100
6, 336951, Note_on_c, 0, 76, 0
6, 338296, Note_on_c, 0, 76, 100
6, 338487, Note_on_c, 0, 76, 0
6, 339256, Note_on_c, 0, 52, 100
6, 339447, Note_on_c, 0, 52, 0
6, 339640, Note_on_c, 0, 76, 100
6, 339831, Note_on_c, 0, 76, 0
6, 340024, Note_on_c, 0, 76, 100
6, 340215, Note_on_c, 0, 76, 0
6, 340664, Note_on_c, 0, 76, 100
6, 340727, Note_on_c, 0, 76, 0
6, 340792, Note_on_c, 0, 76, 100
6, 340887, Note_on_c, 0, 76, 0
6, 342136, Note_on_c, 0, 76, 100
6, 342327, Note_on_c, 0, 76, 0
6, 342520, Note_on_c, 0, 76, 100
6, 342711, Note_on_c, 0, 76, 0
6, 342712, Note_on_c, 0, 64, 100
6, 342903, Note_on_c, 0, 64, 0
6, 343096, Note_on_c, 0, 76, 100
6, 343191, Note_on_c, 0, 76, 0
6, 350872, Note_on_c, 0, 52, 100
6, 350967, Note_on_c, 0, 52, 0
6, 370840, Note_on_c, 0, 76, 100
6, 370935, Note_on_c, 0, 76, 0
6, 371320, Note_on_c, 0, 76, 100
6, 371511, Note_on_c, 0, 76, 0
6, 371608, Note_on_c, 0, 76, 100
6, 371703, Note_on_c, 0, 76, 0
6, 371896, Note_on_c, 0, 76, 100
6, 371991, Note_on_c, 0, 76, 0
6, 372280, Note_on_c, 0, 64, 100
6, 372375, Note_on_c, 0, 64, 0
6, 372472, Note_on_c, 0, 76, 100
6, 372664, Note_on_c, 0, 64, 100
6, 372855, Note_on_c, 0, 64, 0
6, 373047, Note_on_c, 0, 76, 0
6, 373048, Note_on_c, 0, 76, 100
6, 373239, Note_on_c, 0, 76, 0
6, 373240, Note_on_c, 0, 76, 100
6, 373623, Note_on_c, 0, 76, 0
6, 374392, Note_on_c, 0, 52, 100
6, 374583, Note_on_c, 0, 52, 0
6, 374584, Note_on_c, 0, 76, 100
6, 374775, Note_on_c, 0, 76, 0
6, 374776, Note_on_c, 0, 76, 100
6, 375160, Note_on_c, 0, 52, 100
6, 375351, Note_on_c, 0, 52, 0
6, 375351, Note_on_c, 0, 76, 0
6, 375352, Note_on_c, 0, 76, 100
6, 375543, Note_on_c, 0, 76, 0
6, 375544, Note_on_c, 0, 76, 100
6, 375736, Note_on_c, 0, 64, 100
6, 375831, Note_on_c, 0, 64, 0
6, 375924, Note_on_c, 0, 76, 0
6, 376696, Note_on_c, 0, 52, 100
6, 376887, Note_on_c, 0, 52, 0
6, 376888, Note_on_c, 0, 64, 100
6, 377079, Note_on_c, 0, 64, 0
6, 377080, Note_on_c, 0, 52, 100
6, 377271, Note_on_c, 0, 52, 0
6, 377272, Note_on_c, 0, 64, 100
6, 377463, Note_on_c, 0, 64, 0
6, 377464, Note_on_c, 0, 52, 100
6, 377655, Note_on_c, 0, 52, 0
6, 377656, Note_on_c, 0, 64, 100
6, 377847, Note_on_c, 0, 64, 0
6, 378040, Note_on_c, 0, 64, 100
6, 378231, Note_on_c, 0, 64, 0
6, 378424, Note_on_c, 0, 64, 100
6, 378615, Note_on_c, 0, 64, 0
6, 378808, Note_on_c, 0, 64, 100
6, 378999, Note_on_c, 0, 64, 0
6, 381304, Note_on_c, 0, 76, 100
6, 381399, Note_on_c, 0, 76, 0
6, 381496, Note_on_c, 0, 64, 100
6, 381591, Note_on_c, 0, 64, 0
6, 381688, Note_on_c, 0, 76, 100
6, 381783, Note_on_c, 0, 76, 0
6, 381880, Note_on_c, 0, 64, 100
6, 381975, Note_on_c, 0, 64, 0
6, 382072, Note_on_c, 0, 76, 100
6, 382167, Note_on_c, 0, 76, 0
6, 382264, Note_on_c, 0, 64, 100
6, 382359, Note_on_c, 0, 64, 0
6, 382456, Note_on_c, 0, 76, 100
6, 382456, Note_on_c, 0, 64, 100
6, 382646, Note_on_c, 0, 64, 0
6, 382648, Note_on_c, 0, 64, 100
6, 382743, Note_on_c, 0, 64, 0
6, 383031, Note_on_c, 0, 76, 0
6, 383608, Note_on_c, 0, 76, 100
6, 383799, Note_on_c, 0, 76, 0
6, 383800, Note_on_c, 0, 52, 100
6, 383991, Note_on_c, 0, 52, 0
6, 383992, Note_on_c, 0, 76, 100
6, 384183, Note_on_c, 0, 76, 0
6, 384376, Note_on_c, 0, 76, 100
6, 384663, Note_on_c, 0, 76, 0
6, 385912, Note_on_c, 0, 76, 100
6, 386103, Note_on_c, 0, 76, 0
6, 386872, Note_on_c, 0, 76, 100
6, 387063, Note_on_c, 0, 76, 0
6, 388216, Note_on_c, 0, 64, 100
6, 388407, Note_on_c, 0, 64, 0
6, 388600, Note_on_c, 0, 76, 100
6, 389175, Note_on_c, 0, 76, 0
6, 389176, Note_on_c, 0, 64, 100
6, 389176, Note_on_c, 0, 76, 100
6, 389366, Note_on_c, 0, 64, 0
6, 389367, Note_on_c, 0, 76, 0
6, 390520, Note_on_c, 0, 64, 100
6, 390711, Note_on_c, 0, 64, 0
6, 390904, Note_on_c, 0, 52, 100
6, 391479, Note_on_c, 0, 52, 0
6, 391480, Note_on_c, 0, 64, 100
6, 391670, Note_on_c, 0, 64, 0
6, 392824, Note_on_c, 0, 64, 100
6, 392824, Note_on_c, 0, 76, 100
6, 393015, Note_on_c, 0, 76, 0
6, 393204, Note_on_c, 0, 64, 0
6, 393208, Note_on_c, 0, 76, 100
6, 393399, Note_on_c, 0, 76, 0
6, 393400, Note_on_c, 0, 64, 100
6, 393591, Note_on_c, 0, 64, 0
6, 393784, Note_on_c, 0, 76, 100
6, 393879, Note_on_c, 0, 76, 0
6, 397048, Note_on_c, 0, 52, 100
6, 397143, Note_on_c, 0, 52, 0
6, 397240, Note_on_c, 0, 52, 100
6, 397335, Note_on_c, 0, 52, 0
6, 397528, Note_on_c, 0, 52, 100
6, 397623, Note_on_c, 0, 52, 0
6, 397912, Note_on_c, 0, 52, 100
6, 398007, Note_on_c, 0, 52, 0
6, 398584, Note_on_c, 0, 64, 100
6, 398775, Note_on_c, 0, 64, 0
6, 399256, Note_on_c, 0, 64, 100
6, 399351, Note_on_c, 0, 64, 0
6, 399928, Note_on_c, 0, 64, 100
6, 400023, Note_on_c, 0, 64, 0
6, 400024, Note_on_c, 0, 40, 100
6, 400119, Note_on_c, 0, 40, 0
6, 400408, Note_on_c, 0, 64, 100
6, 400503, Note_on_c, 0, 64, 0
6, 400888, Note_on_c, 0, 64, 100
6, 400984, Note_on_c, 0, 52, 100
6, 401079, Note_on_c, 0, 52, 0
6, 401079, Note_on_c, 0, 64, 0
6, 401656, Note_on_c, 0, 52, 100
6, 401751, Note_on_c, 0, 52, 0
6, 401848, Note_on_c, 0, 52, 100
6, 401943, Note_on_c, 0, 52, 0
6, 403000, Note_on_c, 0, 76, 100
6, 403095, Note_on_c, 0, 76, 0
6, 403700, Note_on_c, 0, 76, 100
6, 403799, Note_on_c, 0, 76, 0
6, 403903, Note_on_c, 0, 76, 100
6, 404002, Note_on_c, 0, 76, 0
6, 404005, Note_on_c, 0, 64, 100
6, 404407, Note_on_c, 0, 64, 0
6, 405207, Note_on_c, 0, 76, 100
6, 405312, Note_on_c, 0, 76, 0
6, 405318, Note_on_c, 0, 64, 100
6, 405531, Note_on_c, 0, 64, 0
6, 405531, End_track
7, 0, Start_track
7, 0, Title_t, "Harpsichord"
7, 0, Program_c, 0, 6
7, 0, Control_c, 0, 7, 100
7, 0, Control_c, 0, 10, 64
7, 0, Pitch_bend_c, 0, 8112
7, 878, Note_on_c, 0, 53, 100
7, 1058, Note_on_c, 0, 53, 0
7, 2544, Note_on_c, 0, 53, 100
7, 2639, Note_on_c, 0, 53, 0
7, 3838, Note_on_c, 0, 53, 100
7, 3990, Note_on_c, 0, 53, 0
7, 4781, Note_on_c, 0, 53, 100
7, 4847, Note_on_c, 0, 53, 0
7, 5130, Note_on_c, 0, 65, 100
7, 5196, Note_on_c, 0, 65, 0
7, 5895, Note_on_c, 0, 65, 100
7, 5961, Note_on_c, 0, 65, 0
7, 6177, Note_on_c, 0, 65, 100
7, 6243, Note_on_c, 0, 65, 0
7, 6526, Note_on_c, 0, 77, 100
7, 6592, Note_on_c, 0, 77, 0
7, 7920, Note_on_c, 0, 77, 100
7, 7960, Note_on_c, 0, 77, 0
7, 8379, Note_on_c, 0, 65, 100
7, 8419, Note_on_c, 0, 65, 0
7, 8630, Note_on_c, 0, 65, 100
7, 8670, Note_on_c, 0, 65, 0
7, 8880, Note_on_c, 0, 65, 100
7, 8920, Note_on_c, 0, 65, 0
7, 9172, Note_on_c, 0, 53, 100
7, 9732, Note_on_c, 0, 65, 100
7, 9888, Note_on_c, 0, 65, 0
7, 9902, Note_on_c, 0, 53, 0
7, 9921, Note_on_c, 0, 65, 100
7, 10015, Note_on_c, 0, 53, 100
7, 10108, Note_on_c, 0, 53, 0
7, 10479, Note_on_c, 0, 65, 0
7, 11114, Note_on_c, 0, 65, 100
7, 11305, Note_on_c, 0, 65, 0
7, 11513, Note_on_c, 0, 65, 100
7, 11874, Note_on_c, 0, 65, 0
7, 11879, Note_on_c, 0, 65, 100
7, 12240, Note_on_c, 0, 65, 0
7, 12427, Note_on_c, 0, 65, 100
7, 12607, Note_on_c, 0, 65, 0
7, 12793, Note_on_c, 0, 65, 100
7, 12954, Note_on_c, 0, 65, 0
7, 13250, Note_on_c, 0, 65, 100
7, 13383, Note_on_c, 0, 65, 0
7, 13707, Note_on_c, 0, 77, 100
7, 14059, Note_on_c, 0, 77, 0
7, 16535, Note_on_c, 0, 77, 100
7, 16725, Note_on_c, 0, 77, 0
7, 16883, Note_on_c, 0, 77, 100
7, 17661, Note_on_c, 0, 53, 100
7, 17710, Note_on_c, 0, 53, 0
7, 17933, Note_on_c, 0, 77, 0
7, 18206, Note_on_c, 0, 77, 100
7, 18305, Note_on_c, 0, 77, 0
7, 18408, Note_on_c, 0, 65, 100
7, 18507, Note_on_c, 0, 65, 0
7, 18811, Note_on_c, 0, 77, 100
7, 18910, Note_on_c, 0, 77, 0
7, 19012, Note_on_c, 0, 65, 100
7, 19111, Note_on_c, 0, 65, 0
7, 19416, Note_on_c, 0, 77, 100
7, 19515, Note_on_c, 0, 77, 0
7, 19617, Note_on_c, 0, 65, 100
7, 19716, Note_on_c, 0, 65, 0
7, 20020, Note_on_c, 0, 77, 100
7, 20119, Note_on_c, 0, 77, 0
7, 20222, Note_on_c, 0, 65, 100
7, 20505, Note_on_c, 0, 65, 0
7, 20632, Note_on_c, 0, 65, 100
7, 20847, Note_on_c, 0, 53, 100
7, 20915, Note_on_c, 0, 65, 0
7, 21067, Note_on_c, 0, 65, 100
7, 21171, Note_on_c, 0, 53, 0
7, 21328, Note_on_c, 0, 65, 0
7, 21507, Note_on_c, 0, 65, 100
7, 21847, Note_on_c, 0, 65, 0
7, 24560, Note_on_c, 0, 65, 100
7, 24951, Note_on_c, 0, 65, 0
7, 25152, Note_on_c, 0, 65, 100
7, 25247, Note_on_c, 0, 65, 0
7, 25728, Note_on_c, 0, 65, 100
7, 25728, Note_on_c, 0, 53, 100
7, 25919, Note_on_c, 0, 65, 0
7, 26488, Note_on_c, 0, 53, 0
7, 27072, Note_on_c, 0, 65, 100
7, 27167, Note_on_c, 0, 65, 0
7, 27264, Note_on_c, 0, 65, 100
7, 27629, Note_on_c, 0, 65, 0
7, 28992, Note_on_c, 0, 65, 100
7, 29087, Note_on_c, 0, 65, 0
7, 29568, Note_on_c, 0, 53, 100
7, 29568, Note_on_c, 0, 65, 100
7, 29759, Note_on_c, 0, 65, 0
7, 29951, Note_on_c, 0, 53, 0
7, 31104, Note_on_c, 0, 53, 100
7, 31295, Note_on_c, 0, 53, 0
7, 31872, Note_on_c, 0, 53, 100
7, 32063, Note_on_c, 0, 53, 0
7, 32264, Note_on_c, 0, 53, 100
7, 32392, Note_on_c, 0, 65, 100
7, 32455, Note_on_c, 0, 53, 0
7, 32839, Note_on_c, 0, 65, 0
7, 33032, Note_on_c, 0, 65, 100
7, 33032, Note_on_c, 0, 53, 100
7, 33095, Note_on_c, 0, 65, 0
7, 33223, Note_on_c, 0, 53, 0
7, 34864, Note_on_c, 0, 53, 100
7, 34959, Note_on_c, 0, 53, 0
7, 34960, Note_on_c, 0, 53, 100
7, 35343, Note_on_c, 0, 53, 0
7, 35344, Note_on_c, 0, 53, 100
7, 35535, Note_on_c, 0, 53, 0
7, 35536, Note_on_c, 0, 53, 100
7, 35631, Note_on_c, 0, 53, 0
7, 36016, Note_on_c, 0, 65, 100
7, 36111, Note_on_c, 0, 65, 0
7, 36112, Note_on_c, 0, 65, 100
7, 36572, Note_on_c, 0, 65, 0
7, 36592, Note_on_c, 0, 65, 100
7, 36687, Note_on_c, 0, 65, 0
7, 36784, Note_on_c, 0, 65, 100
7, 36879, Note_on_c, 0, 65, 0
7, 38224, Note_on_c, 0, 53, 100
7, 38415, Note_on_c, 0, 53, 0
7, 38800, Note_on_c, 0, 41, 100
7, 39567, Note_on_c, 0, 41, 0
7, 39952, Note_on_c, 0, 41, 100
7, 40240, Note_on_c, 0, 65, 100
7, 40335, Note_on_c, 0, 65, 0
7, 40336, Note_on_c, 0, 65, 100
7, 40527, Note_on_c, 0, 41, 0
7, 40528, Note_on_c, 0, 41, 100
7, 40719, Note_on_c, 0, 41, 0
7, 41295, Note_on_c, 0, 65, 0
7, 41296, Note_on_c, 0, 65, 100
7, 41391, Note_on_c, 0, 65, 0
7, 42664, Note_on_c, 0, 65, 100
7, 43034, Note_on_c, 0, 65, 0
7, 43240, Note_on_c, 0, 65, 100
7, 43335, Note_on_c, 0, 65, 0
7, 43432, Note_on_c, 0, 65, 100
7, 43623, Note_on_c, 0, 65, 0
7, 44800, Note_on_c, 0, 77, 100
7, 45183, Note_on_c, 0, 77, 0
7, 45208, Note_on_c, 0, 77, 100
7, 45434, Note_on_c, 0, 65, 100
7, 45513, Note_on_c, 0, 65, 0
7, 45594, Note_on_c, 0, 77, 0
7, 45595, Note_on_c, 0, 77, 100
7, 45736, Note_on_c, 0, 65, 100
7, 45805, Note_on_c, 0, 65, 0
7, 45875, Note_on_c, 0, 77, 0
7, 45876, Note_on_c, 0, 77, 100
7, 46157, Note_on_c, 0, 77, 0
7, 46158, Note_on_c, 0, 77, 100
7, 46228, Note_on_c, 0, 53, 100
7, 46298, Note_on_c, 0, 53, 0
7, 46439, Note_on_c, 0, 77, 0
7, 46440, Note_on_c, 0, 77, 100
7, 46820, Note_on_c, 0, 77, 0
7, 46992, Note_on_c, 0, 77, 100
7, 47162, Note_on_c, 0, 77, 0
7, 47521, Note_on_c, 0, 65, 100
7, 47782, Note_on_c, 0, 65, 0
7, 53952, Note_on_c, 0, 53, 100
7, 54047, Note_on_c, 0, 53, 0
7, 54528, Note_on_c, 0, 53, 100
7, 54703, Note_on_c, 0, 53, 0
7, 55488, Note_on_c, 0, 65, 100
7, 55583, Note_on_c, 0, 65, 0
7, 56064, Note_on_c, 0, 65, 100
7, 56239, Note_on_c, 0, 65, 0
7, 57216, Note_on_c, 0, 65, 100
7, 57396, Note_on_c, 0, 65, 0
7, 58752, Note_on_c, 0, 65, 100
7, 58943, Note_on_c, 0, 65, 0
7, 59040, Note_on_c, 0, 65, 100
7, 59135, Note_on_c, 0, 65, 0
7, 59328, Note_on_c, 0, 65, 100
7, 59423, Note_on_c, 0, 65, 0
7, 59904, Note_on_c, 0, 65, 100
7, 60074, Note_on_c, 0, 65, 0
7, 62208, Note_on_c, 0, 65, 100
7, 62591, Note_on_c, 0, 65, 0
7, 63360, Note_on_c, 0, 77, 100
7, 64127, Note_on_c, 0, 77, 0
7, 66048, Note_on_c, 0, 65, 100
7, 66431, Note_on_c, 0, 65, 0
7, 68736, Note_on_c, 0, 53, 100
7, 69503, Note_on_c, 0, 53, 0
7, 72576, Note_on_c, 0, 77, 100
7, 72768, Note_on_c, 0, 41, 100
7, 72959, Note_on_c, 0, 41, 0
7, 73343, Note_on_c, 0, 77, 0
7, 73728, Note_on_c, 0, 65, 100
7, 73920, Note_on_c, 0, 41, 100
7, 74111, Note_on_c, 0, 41, 0
7, 74495, Note_on_c, 0, 65, 0
7, 74688, Note_on_c, 0, 65, 100
7, 74688, Note_on_c, 0, 41, 100
7, 74783, Note_on_c, 0, 41, 0
7, 74879, Note_on_c, 0, 65, 0
7, 75072, Note_on_c, 0, 65, 100
7, 75167, Note_on_c, 0, 65, 0
7, 75264, Note_on_c, 0, 41, 100
7, 75444, Note_on_c, 0, 41, 0
7, 75648, Note_on_c, 0, 65, 100
7, 76031, Note_on_c, 0, 65, 0
7, 76224, Note_on_c, 0, 53, 100
7, 76319, Note_on_c, 0, 53, 0
7, 76800, Note_on_c, 0, 53, 100
7, 76980, Note_on_c, 0, 53, 0
7, 77760, Note_on_c, 0, 65, 100
7, 77855, Note_on_c, 0, 65, 0
7, 78336, Note_on_c, 0, 65, 100
7, 78527, Note_on_c, 0, 65, 0
7, 79488, Note_on_c, 0, 65, 100
7, 80155, Note_on_c, 0, 65, 0
7, 81984, Note_on_c, 0, 65, 100
7, 82154, Note_on_c, 0, 65, 0
7, 82368, Note_on_c, 0, 65, 100
7, 82463, Note_on_c, 0, 65, 0
7, 82944, Note_on_c, 0, 65, 100
7, 83124, Note_on_c, 0, 65, 0
7, 84096, Note_on_c, 0, 77, 100
7, 84276, Note_on_c, 0, 77, 0
7, 85632, Note_on_c, 0, 65, 100
7, 85823, Note_on_c, 0, 65, 0
7, 85920, Note_on_c, 0, 65, 100
7, 86015, Note_on_c, 0, 65, 0
7, 86208, Note_on_c, 0, 65, 100
7, 86303, Note_on_c, 0, 65, 0
7, 86784, Note_on_c, 0, 65, 100
7, 86975, Note_on_c, 0, 65, 0
7, 87168, Note_on_c, 0, 53, 100
7, 87359, Note_on_c, 0, 53, 0
7, 87744, Note_on_c, 0, 77, 100
7, 87839, Note_on_c, 0, 77, 0
7, 88320, Note_on_c, 0, 77, 100
7, 88511, Note_on_c, 0, 77, 0
7, 89280, Note_on_c, 0, 65, 100
7, 89375, Note_on_c, 0, 65, 0
7, 89856, Note_on_c, 0, 65, 100
7, 90036, Note_on_c, 0, 65, 0
7, 90240, Note_on_c, 0, 65, 100
7, 90432, Note_on_c, 0, 53, 100
7, 90623, Note_on_c, 0, 53, 0
7, 91007, Note_on_c, 0, 65, 0
7, 91392, Note_on_c, 0, 65, 100
7, 91392, Note_on_c, 0, 41, 100
7, 91583, Note_on_c, 0, 41, 0
7, 91584, Note_on_c, 0, 53, 100
7, 91772, Note_on_c, 0, 65, 0
7, 91775, Note_on_c, 0, 53, 0
7, 91776, Note_on_c, 0, 65, 100
7, 91966, Note_on_c, 0, 65, 0
7, 91968, Note_on_c, 0, 65, 100
7, 91968, Note_on_c, 0, 41, 100
7, 92159, Note_on_c, 0, 41, 0
7, 92543, Note_on_c, 0, 65, 0
7, 92928, Note_on_c, 0, 65, 100
7, 92928, Note_on_c, 0, 41, 100
7, 93118, Note_on_c, 0, 65, 0
7, 93120, Note_on_c, 0, 65, 100
7, 93312, Note_on_c, 0, 77, 100
7, 93408, Note_on_c, 0, 41, 0
7, 93500, Note_on_c, 0, 65, 0
7, 93502, Note_on_c, 0, 77, 0
7, 93504, Note_on_c, 0, 77, 100
7, 94079, Note_on_c, 0, 77, 0
7, 94464, Note_on_c, 0, 53, 100
7, 94655, Note_on_c, 0, 53, 0
7, 94656, Note_on_c, 0, 77, 100
7, 94656, Note_on_c, 0, 65, 100
7, 94836, Note_on_c, 0, 77, 0
7, 94847, Note_on_c, 0, 65, 0
7, 95616, Note_on_c, 0, 77, 100
7, 95616, Note_on_c, 0, 65, 100
7, 95807, Note_on_c, 0, 65, 0
7, 95807, Note_on_c, 0, 77, 0
7, 95808, Note_on_c, 0, 53, 100
7, 95999, Note_on_c, 0, 53, 0
7, 96576, Note_on_c, 0, 77, 100
7, 96576, Note_on_c, 0, 53, 100
7, 96767, Note_on_c, 0, 53, 0
7, 97151, Note_on_c, 0, 77, 0
7, 97536, Note_on_c, 0, 65, 100
7, 97728, Note_on_c, 0, 53, 100
7, 97919, Note_on_c, 0, 53, 0
7, 98303, Note_on_c, 0, 65, 0
7, 99360, Note_on_c, 0, 65, 100
7, 99455, Note_on_c, 0, 65, 0
7, 99648, Note_on_c, 0, 65, 100
7, 99839, Note_on_c, 0, 65, 0
7, 100224, Note_on_c, 0, 53, 100
7, 100991, Note_on_c, 0, 53, 0
7, 101376, Note_on_c, 0, 65, 100
7, 101568, Note_on_c, 0, 41, 100
7, 101759, Note_on_c, 0, 41, 0
7, 101916, Note_on_c, 0, 65, 0
7, 102048, Note_on_c, 0, 65, 100
7, 102143, Note_on_c, 0, 65, 0
7, 102336, Note_on_c, 0, 65, 100
7, 102431, Note_on_c, 0, 65, 0
7, 102912, Note_on_c, 0, 65, 100
7, 103103, Note_on_c, 0, 65, 0
7, 103872, Note_on_c, 0, 65, 100
7, 103872, Note_on_c, 0, 53, 100
7, 103967, Note_on_c, 0, 53, 0
7, 103967, Note_on_c, 0, 65, 0
7, 104448, Note_on_c, 0, 65, 100
7, 104639, Note_on_c, 0, 65, 0
7, 105408, Note_on_c, 0, 77, 100
7, 105408, Note_on_c, 0, 65, 100
7, 105503, Note_on_c, 0, 65, 0
7, 105503, Note_on_c, 0, 77, 0
7, 105984, Note_on_c, 0, 65, 100
7, 106175, Note_on_c, 0, 65, 0
7, 106368, Note_on_c, 0, 77, 100
7, 107135, Note_on_c, 0, 77, 0
7, 107520, Note_on_c, 0, 65, 100
7, 107808, Note_on_c, 0, 53, 100
7, 107898, Note_on_c, 0, 53, 0
7, 108287, Note_on_c, 0, 65, 0
7, 108480, Note_on_c, 0, 53, 100
7, 108575, Note_on_c, 0, 53, 0
7, 109536, Note_on_c, 0, 53, 100
7, 109631, Note_on_c, 0, 53, 0
7, 111072, Note_on_c, 0, 53, 100
7, 111167, Note_on_c, 0, 53, 0
7, 112608, Note_on_c, 0, 77, 100
7, 112703, Note_on_c, 0, 77, 0
7, 113280, Note_on_c, 0, 53, 100
7, 113470, Note_on_c, 0, 53, 0
7, 113472, Note_on_c, 0, 53, 100
7, 114047, Note_on_c, 0, 53, 0
7, 114144, Note_on_c, 0, 77, 100
7, 114239, Note_on_c, 0, 77, 0
7, 114624, Note_on_c, 0, 53, 100
7, 114815, Note_on_c, 0, 53, 0
7, 114912, Note_on_c, 0, 77, 100
7, 115007, Note_on_c, 0, 77, 0
7, 115584, Note_on_c, 0, 53, 100
7, 115967, Note_on_c, 0, 53, 0
7, 116448, Note_on_c, 0, 65, 100
7, 116543, Note_on_c, 0, 65, 0
7, 118656, Note_on_c, 0, 65, 100
7, 118848, Note_on_c, 0, 77, 100
7, 118848, Note_on_c, 0, 53, 100
7, 118943, Note_on_c, 0, 77, 0
7, 119036, Note_on_c, 0, 65, 0
7, 119039, Note_on_c, 0, 53, 0
7, 119232, Note_on_c, 0, 65, 100
7, 119327, Note_on_c, 0, 65, 0
7, 122880, Note_on_c, 0, 53, 100
7, 123071, Note_on_c, 0, 53, 0
7, 123840, Note_on_c, 0, 53, 100
7, 123935, Note_on_c, 0, 53, 0
7, 126720, Note_on_c, 0, 53, 100
7, 126911, Note_on_c, 0, 53, 0
7, 127296, Note_on_c, 0, 53, 100
7, 127487, Note_on_c, 0, 53, 0
7, 128256, Note_on_c, 0, 65, 100
7, 128447, Note_on_c, 0, 65, 0
7, 128544, Note_on_c, 0, 53, 100
7, 128639, Note_on_c, 0, 53, 0
7, 128832, Note_on_c, 0, 53, 100
7, 129023, Note_on_c, 0, 53, 0
7, 129504, Note_on_c, 0, 53, 100
7, 129599, Note_on_c, 0, 53, 0
7, 131328, Note_on_c, 0, 53, 100
7, 131519, Note_on_c, 0, 53, 0
7, 131712, Note_on_c, 0, 65, 100
7, 131903, Note_on_c, 0, 65, 0
7, 132288, Note_on_c, 0, 65, 100
7, 132288, Note_on_c, 0, 53, 100
7, 132383, Note_on_c, 0, 53, 0
7, 132479, Note_on_c, 0, 65, 0
7, 132864, Note_on_c, 0, 53, 100
7, 133055, Note_on_c, 0, 53, 0
7, 133440, Note_on_c, 0, 65, 100
7, 133631, Note_on_c, 0, 65, 0
7, 134400, Note_on_c, 0, 77, 100
7, 134495, Note_on_c, 0, 77, 0
7, 135552, Note_on_c, 0, 65, 100
7, 135932, Note_on_c, 0, 65, 0
7, 136128, Note_on_c, 0, 53, 100
7, 136319, Note_on_c, 0, 53, 0
7, 136416, Note_on_c, 0, 53, 100
7, 136511, Note_on_c, 0, 53, 0
7, 137088, Note_on_c, 0, 53, 100
7, 137855, Note_on_c, 0, 53, 0
7, 138240, Note_on_c, 0, 41, 100
7, 138431, Note_on_c, 0, 41, 0
7, 138624, Note_on_c, 0, 53, 100
7, 138815, Note_on_c, 0, 53, 0
7, 139200, Note_on_c, 0, 53, 100
7, 139200, Note_on_c, 0, 41, 100
7, 139295, Note_on_c, 0, 41, 0
7, 139391, Note_on_c, 0, 53, 0
7, 139776, Note_on_c, 0, 41, 100
7, 139967, Note_on_c, 0, 41, 0
7, 140736, Note_on_c, 0, 53, 100
7, 140831, Note_on_c, 0, 53, 0
7, 141312, Note_on_c, 0, 53, 100
7, 141503, Note_on_c, 0, 53, 0
7, 142272, Note_on_c, 0, 65, 100
7, 142272, Note_on_c, 0, 53, 100
7, 142367, Note_on_c, 0, 53, 0
7, 142367, Note_on_c, 0, 65, 0
7, 142848, Note_on_c, 0, 65, 100
7, 143039, Note_on_c, 0, 65, 0
7, 143232, Note_on_c, 0, 53, 100
7, 143423, Note_on_c, 0, 53, 0
7, 143808, Note_on_c, 0, 53, 100
7, 143999, Note_on_c, 0, 53, 0
7, 144384, Note_on_c, 0, 53, 100
7, 144480, Note_on_c, 0, 65, 100
7, 144575, Note_on_c, 0, 65, 0
7, 144575, Note_on_c, 0, 53, 0
7, 144672, Note_on_c, 0, 65, 100
7, 144767, Note_on_c, 0, 65, 0
7, 144864, Note_on_c, 0, 65, 100
7, 144959, Note_on_c, 0, 65, 0
7, 145056, Note_on_c, 0, 65, 100
7, 145151, Note_on_c, 0, 65, 0
7, 145920, Note_on_c, 0, 65, 100
7, 146303, Note_on_c, 0, 65, 0
7, 146304, Note_on_c, 0, 53, 100
7, 146687, Note_on_c, 0, 53, 0
7, 146880, Note_on_c, 0, 65, 100
7, 146975, Note_on_c, 0, 65, 0
7, 147456, Note_on_c, 0, 65, 100
7, 147647, Note_on_c, 0, 65, 0
7, 148032, Note_on_c, 0, 77, 100
7, 148223, Note_on_c, 0, 77, 0
7, 148416, Note_on_c, 0, 77, 100
7, 148416, Note_on_c, 0, 65, 100
7, 148511, Note_on_c, 0, 65, 0
7, 148511, Note_on_c, 0, 77, 0
7, 148992, Note_on_c, 0, 65, 100
7, 149183, Note_on_c, 0, 65, 0
7, 149280, Note_on_c, 0, 77, 100
7, 149375, Note_on_c, 0, 77, 0
7, 149472, Note_on_c, 0, 65, 100
7, 149567, Note_on_c, 0, 65, 0
7, 150144, Note_on_c, 0, 77, 100
7, 150336, Note_on_c, 0, 65, 100
7, 150431, Note_on_c, 0, 65, 0
7, 150911, Note_on_c, 0, 77, 0
7, 151296, Note_on_c, 0, 65, 100
7, 151392, Note_on_c, 0, 53, 100
7, 151487, Note_on_c, 0, 53, 0
7, 151968, Note_on_c, 0, 53, 100
7, 152063, Note_on_c, 0, 53, 0
7, 152063, Note_on_c, 0, 65, 0
7, 152256, Note_on_c, 0, 53, 100
7, 152351, Note_on_c, 0, 53, 0
7, 153312, Note_on_c, 0, 65, 100
7, 153407, Note_on_c, 0, 65, 0
7, 153984, Note_on_c, 0, 53, 100
7, 154079, Note_on_c, 0, 53, 0
7, 154176, Note_on_c, 0, 65, 100
7, 154271, Note_on_c, 0, 65, 0
7, 154656, Note_on_c, 0, 65, 100
7, 154751, Note_on_c, 0, 65, 0
7, 155328, Note_on_c, 0, 65, 100
7, 155423, Note_on_c, 0, 65, 0
7, 155520, Note_on_c, 0, 65, 100
7, 156095, Note_on_c, 0, 65, 0
7, 156672, Note_on_c, 0, 53, 100
7, 157152, Note_on_c, 0, 53, 0
7, 157728, Note_on_c, 0, 65, 100
7, 157823, Note_on_c, 0, 65, 0
7, 158592, Note_on_c, 0, 65, 100
7, 158736, Note_on_c, 0, 65, 0
7, 158784, Note_on_c, 0, 77, 100
7, 158879, Note_on_c, 0, 77, 0
7, 159648, Note_on_c, 0, 77, 100
7, 159743, Note_on_c, 0, 77, 0
7, 160512, Note_on_c, 0, 77, 100
7, 160720, Note_on_c, 0, 65, 100
7, 160815, Note_on_c, 0, 65, 0
7, 160892, Note_on_c, 0, 77, 0
7, 161696, Note_on_c, 0, 65, 100
7, 162076, Note_on_c, 0, 65, 0
7, 163072, Note_on_c, 0, 77, 100
7, 163167, Note_on_c, 0, 77, 0
7, 163656, Note_on_c, 0, 77, 100
7, 163870, Note_on_c, 0, 77, 0
7, 164248, Note_on_c, 0, 65, 100
7, 164439, Note_on_c, 0, 65, 0
7, 164632, Note_on_c, 0, 41, 100
7, 164727, Note_on_c, 0, 41, 0
7, 165208, Note_on_c, 0, 41, 100
7, 165399, Note_on_c, 0, 41, 0
7, 165592, Note_on_c, 0, 53, 100
7, 165975, Note_on_c, 0, 53, 0
7, 166168, Note_on_c, 0, 65, 100
7, 166263, Note_on_c, 0, 65, 0
7, 166744, Note_on_c, 0, 65, 100
7, 166935, Note_on_c, 0, 65, 0
7, 167912, Note_on_c, 0, 65, 100
7, 168679, Note_on_c, 0, 65, 0
7, 169464, Note_on_c, 0, 65, 100
7, 169656, Note_on_c, 0, 53, 100
7, 169847, Note_on_c, 0, 53, 0
7, 170231, Note_on_c, 0, 65, 0
7, 170616, Note_on_c, 0, 53, 100
7, 170807, Note_on_c, 0, 53, 0
7, 171192, Note_on_c, 0, 53, 100
7, 171383, Note_on_c, 0, 53, 0
7, 171576, Note_on_c, 0, 41, 100
7, 171671, Note_on_c, 0, 41, 0
7, 172152, Note_on_c, 0, 41, 100
7, 172343, Note_on_c, 0, 41, 0
7, 173520, Note_on_c, 0, 53, 100
7, 173615, Note_on_c, 0, 53, 0
7, 174192, Note_on_c, 0, 53, 100
7, 174287, Note_on_c, 0, 53, 0
7, 174480, Note_on_c, 0, 53, 100
7, 174860, Note_on_c, 0, 53, 0
7, 174960, Note_on_c, 0, 53, 100
7, 175055, Note_on_c, 0, 53, 0
7, 175248, Note_on_c, 0, 53, 100
7, 175628, Note_on_c, 0, 53, 0
7, 175920, Note_on_c, 0, 53, 100
7, 176015, Note_on_c, 0, 53, 0
7, 176592, Note_on_c, 0, 53, 100
7, 176687, Note_on_c, 0, 53, 0
7, 177960, Note_on_c, 0, 53, 100
7, 178400, Note_on_c, 0, 53, 0
7, 178536, Note_on_c, 0, 53, 100
7, 178631, Note_on_c, 0, 53, 0
7, 178920, Note_on_c, 0, 65, 100
7, 179015, Note_on_c, 0, 65, 0
7, 180072, Note_on_c, 0, 65, 100
7, 180167, Note_on_c, 0, 65, 0
7, 180456, Note_on_c, 0, 77, 100
7, 180551, Note_on_c, 0, 77, 0
7, 181416, Note_on_c, 0, 77, 100
7, 181796, Note_on_c, 0, 77, 0
7, 181896, Note_on_c, 0, 65, 100
7, 181991, Note_on_c, 0, 65, 0
7, 182952, Note_on_c, 0, 65, 100
7, 183335, Note_on_c, 0, 65, 0
7, 183336, Note_on_c, 0, 65, 100
7, 183528, Note_on_c, 0, 53, 100
7, 183623, Note_on_c, 0, 53, 0
7, 183719, Note_on_c, 0, 65, 0
7, 183720, Note_on_c, 0, 65, 100
7, 184103, Note_on_c, 0, 65, 0
7, 192000, Note_on_c, 0, 65, 100
7, 192000, Note_on_c, 0, 53, 100
7, 192480, Note_on_c, 0, 65, 0
7, 192767, Note_on_c, 0, 53, 0
7, 195960, Note_on_c, 0, 65, 100
7, 196047, Note_on_c, 0, 65, 0
7, 199680, Note_on_c, 0, 53, 100
7, 199680, Note_on_c, 0, 65, 100
7, 199968, Note_on_c, 0, 77, 100
7, 200063, Note_on_c, 0, 77, 0
7, 200064, Note_on_c, 0, 77, 100
7, 200160, Note_on_c, 0, 65, 0
7, 200160, Note_on_c, 0, 53, 0
7, 200256, Note_on_c, 0, 65, 100
7, 200344, Note_on_c, 0, 77, 0
7, 200352, Note_on_c, 0, 77, 100
7, 200447, Note_on_c, 0, 77, 0
7, 200447, Note_on_c, 0, 65, 0
7, 200448, Note_on_c, 0, 77, 100
7, 200543, Note_on_c, 0, 77, 0
7, 200544, Note_on_c, 0, 77, 100
7, 200639, Note_on_c, 0, 77, 0
7, 200736, Note_on_c, 0, 77, 100
7, 200831, Note_on_c, 0, 77, 0
7, 200832, Note_on_c, 0, 77, 100
7, 201112, Note_on_c, 0, 77, 0
7, 202752, Note_on_c, 0, 65, 100
7, 202752, Note_on_c, 0, 77, 100
7, 203232, Note_on_c, 0, 77, 0
7, 203232, Note_on_c, 0, 65, 0
7, 203328, Note_on_c, 0, 77, 100
7, 203519, Note_on_c, 0, 77, 0
7, 203520, Note_on_c, 0, 77, 100
7, 204000, Note_on_c, 0, 77, 0
7, 204192, Note_on_c, 0, 53, 100
7, 204287, Note_on_c, 0, 53, 0
7, 204288, Note_on_c, 0, 53, 100
7, 204768, Note_on_c, 0, 53, 0
7, 204864, Note_on_c, 0, 53, 100
7, 204864, Note_on_c, 0, 65, 100
7, 205055, Note_on_c, 0, 65, 0
7, 205055, Note_on_c, 0, 53, 0
7, 205056, Note_on_c, 0, 53, 100
7, 205056, Note_on_c, 0, 65, 100
7, 205536, Note_on_c, 0, 65, 0
7, 205536, Note_on_c, 0, 53, 0
7, 205632, Note_on_c, 0, 53, 100
7, 205632, Note_on_c, 0, 65, 100
7, 205823, Note_on_c, 0, 65, 0
7, 205823, Note_on_c, 0, 53, 0
7, 205824, Note_on_c, 0, 65, 100
7, 206304, Note_on_c, 0, 65, 0
7, 206400, Note_on_c, 0, 65, 100
7, 206591, Note_on_c, 0, 65, 0
7, 206592, Note_on_c, 0, 65, 100
7, 207072, Note_on_c, 0, 65, 0
7, 207168, Note_on_c, 0, 65, 100
7, 207359, Note_on_c, 0, 65, 0
7, 210432, Note_on_c, 0, 65, 100
7, 210912, Note_on_c, 0, 65, 0
7, 211008, Note_on_c, 0, 77, 100
7, 211198, Note_on_c, 0, 77, 0
7, 211968, Note_on_c, 0, 53, 100
7, 212160, Note_on_c, 0, 77, 100
7, 212255, Note_on_c, 0, 77, 0
7, 212348, Note_on_c, 0, 53, 0
7, 212448, Note_on_c, 0, 77, 100
7, 212543, Note_on_c, 0, 77, 0
7, 212544, Note_on_c, 0, 77, 100
7, 212544, Note_on_c, 0, 65, 100
7, 212544, Note_on_c, 0, 53, 100
7, 212639, Note_on_c, 0, 77, 0
7, 212735, Note_on_c, 0, 53, 0
7, 212735, Note_on_c, 0, 65, 0
7, 212736, Note_on_c, 0, 65, 100
7, 213216, Note_on_c, 0, 65, 0
7, 213312, Note_on_c, 0, 65, 100
7, 213503, Note_on_c, 0, 65, 0
7, 218896, Note_on_c, 0, 65, 100
7, 219088, Note_on_c, 0, 77, 100
7, 219183, Note_on_c, 0, 77, 0
7, 219376, Note_on_c, 0, 65, 0
7, 220432, Note_on_c, 0, 65, 100
7, 221188, Note_on_c, 0, 65, 0
7, 224280, Note_on_c, 0, 65, 100
7, 224530, Note_on_c, 0, 65, 0
7, 224741, Note_on_c, 0, 65, 100
7, 224827, Note_on_c, 0, 65, 0
7, 225090, Note_on_c, 0, 53, 100
7, 225178, Note_on_c, 0, 53, 0
7, 225439, Note_on_c, 0, 53, 100
7, 225523, Note_on_c, 0, 53, 0
7, 225986, Note_on_c, 0, 65, 100
7, 226073, Note_on_c, 0, 65, 0
7, 227064, Note_on_c, 0, 65, 100
7, 227254, Note_on_c, 0, 65, 0
7, 227256, Note_on_c, 0, 65, 100
7, 227446, Note_on_c, 0, 65, 0
7, 227448, Note_on_c, 0, 65, 100
7, 227828, Note_on_c, 0, 65, 0
7, 227832, Note_on_c, 0, 65, 100
7, 228212, Note_on_c, 0, 65, 0
7, 228216, Note_on_c, 0, 65, 100
7, 228406, Note_on_c, 0, 65, 0
7, 228408, Note_on_c, 0, 65, 100
7, 228598, Note_on_c, 0, 65, 0
7, 228600, Note_on_c, 0, 65, 100
7, 228980, Note_on_c, 0, 65, 0
7, 229232, Note_on_c, 0, 65, 100
7, 229416, Note_on_c, 0, 65, 0
7, 233080, Note_on_c, 0, 65, 100
7, 233271, Note_on_c, 0, 65, 0
7, 235000, Note_on_c, 0, 53, 100
7, 235191, Note_on_c, 0, 53, 0
7, 235384, Note_on_c, 0, 53, 100
7, 235575, Note_on_c, 0, 53, 0
7, 237304, Note_on_c, 0, 77, 100
7, 237495, Note_on_c, 0, 77, 0
7, 237688, Note_on_c, 0, 77, 100
7, 237879, Note_on_c, 0, 77, 0
7, 238744, Note_on_c, 0, 77, 100
7, 238839, Note_on_c, 0, 77, 0
7, 239224, Note_on_c, 0, 77, 100
7, 239416, Note_on_c, 0, 53, 100
7, 239604, Note_on_c, 0, 77, 0
7, 239607, Note_on_c, 0, 53, 0
7, 240184, Note_on_c, 0, 77, 100
7, 240375, Note_on_c, 0, 77, 0
7, 240760, Note_on_c, 0, 77, 100
7, 240951, Note_on_c, 0, 77, 0
7, 241336, Note_on_c, 0, 77, 100
7, 241527, Note_on_c, 0, 77, 0
7, 242296, Note_on_c, 0, 53, 100
7, 242487, Note_on_c, 0, 53, 0
7, 242680, Note_on_c, 0, 77, 100
7, 242871, Note_on_c, 0, 77, 0
7, 242968, Note_on_c, 0, 77, 100
7, 243063, Note_on_c, 0, 77, 0
7, 243256, Note_on_c, 0, 77, 100
7, 243351, Note_on_c, 0, 77, 0
7, 243448, Note_on_c, 0, 77, 100
7, 243639, Note_on_c, 0, 77, 0
7, 243736, Note_on_c, 0, 53, 100
7, 243831, Note_on_c, 0, 53, 0
7, 244024, Note_on_c, 0, 53, 100
7, 244119, Note_on_c, 0, 53, 0
7, 244216, Note_on_c, 0, 53, 100
7, 244407, Note_on_c, 0, 53, 0
7, 244504, Note_on_c, 0, 77, 100
7, 244599, Note_on_c, 0, 77, 0
7, 245752, Note_on_c, 0, 65, 100
7, 245943, Note_on_c, 0, 65, 0
7, 247672, Note_on_c, 0, 65, 100
7, 247863, Note_on_c, 0, 65, 0
7, 248056, Note_on_c, 0, 77, 100
7, 248247, Note_on_c, 0, 77, 0
7, 252280, Note_on_c, 0, 65, 100
7, 252660, Note_on_c, 0, 65, 0
7, 252664, Note_on_c, 0, 53, 100
7, 252855, Note_on_c, 0, 53, 0
7, 253048, Note_on_c, 0, 65, 100
7, 253428, Note_on_c, 0, 65, 0
7, 254584, Note_on_c, 0, 53, 100
7, 254584, Note_on_c, 0, 65, 100
7, 254775, Note_on_c, 0, 53, 0
7, 254964, Note_on_c, 0, 65, 0
7, 254968, Note_on_c, 0, 53, 100
7, 255159, Note_on_c, 0, 53, 0
7, 255160, Note_on_c, 0, 65, 100
7, 255351, Note_on_c, 0, 65, 0
7, 255544, Note_on_c, 0, 65, 100
7, 255639, Note_on_c, 0, 65, 0
7, 256024, Note_on_c, 0, 53, 100
7, 256119, Note_on_c, 0, 53, 0
7, 256504, Note_on_c, 0, 65, 100
7, 256599, Note_on_c, 0, 65, 0
7, 256696, Note_on_c, 0, 41, 100
7, 256792, Note_on_c, 0, 65, 100
7, 256887, Note_on_c, 0, 65, 0
7, 256887, Note_on_c, 0, 41, 0
7, 257080, Note_on_c, 0, 53, 100
7, 257175, Note_on_c, 0, 53, 0
7, 257752, Note_on_c, 0, 65, 100
7, 257847, Note_on_c, 0, 65, 0
7, 258808, Note_on_c, 0, 65, 100
7, 258999, Note_on_c, 0, 65, 0
7, 260920, Note_on_c, 0, 41, 100
7, 261111, Note_on_c, 0, 41, 0
7, 261112, Note_on_c, 0, 65, 100
7, 261303, Note_on_c, 0, 65, 0
7, 262648, Note_on_c, 0, 53, 100
7, 262839, Note_on_c, 0, 53, 0
7, 263032, Note_on_c, 0, 65, 100
7, 263223, Note_on_c, 0, 65, 0
7, 264952, Note_on_c, 0, 65, 100
7, 265143, Note_on_c, 0, 65, 0
7, 265144, Note_on_c, 0, 65, 100
7, 265239, Note_on_c, 0, 65, 0
7, 265528, Note_on_c, 0, 77, 100
7, 265623, Note_on_c, 0, 77, 0
7, 269176, Note_on_c, 0, 53, 100
7, 269367, Note_on_c, 0, 53, 0
7, 270712, Note_on_c, 0, 53, 100
7, 270903, Note_on_c, 0, 53, 0
7, 271288, Note_on_c, 0, 53, 100
7, 271479, Note_on_c, 0, 53, 0
7, 271480, Note_on_c, 0, 77, 100
7, 272247, Note_on_c, 0, 77, 0
7, 273016, Note_on_c, 0, 53, 100
7, 273207, Note_on_c, 0, 53, 0
7, 277240, Note_on_c, 0, 65, 100
7, 277623, Note_on_c, 0, 65, 0
7, 277624, Note_on_c, 0, 65, 100
7, 278154, Note_on_c, 0, 65, 0
7, 278200, Note_on_c, 0, 65, 100
7, 278391, Note_on_c, 0, 65, 0
7, 278776, Note_on_c, 0, 65, 100
7, 279296, Note_on_c, 0, 65, 0
7, 279352, Note_on_c, 0, 41, 100
7, 279352, Note_on_c, 0, 65, 100
7, 279543, Note_on_c, 0, 65, 0
7, 279543, Note_on_c, 0, 41, 0
7, 279544, Note_on_c, 0, 65, 100
7, 279735, Note_on_c, 0, 65, 0
7, 281080, Note_on_c, 0, 65, 100
7, 281271, Note_on_c, 0, 65, 0
7, 282424, Note_on_c, 0, 53, 100
7, 282519, Note_on_c, 0, 53, 0
7, 284536, Note_on_c, 0, 77, 100
7, 284920, Note_on_c, 0, 65, 100
7, 285111, Note_on_c, 0, 65, 0
7, 285111, Note_on_c, 0, 77, 0
7, 285304, Note_on_c, 0, 77, 100
7, 285495, Note_on_c, 0, 77, 0
7, 286840, Note_on_c, 0, 65, 100
7, 287031, Note_on_c, 0, 65, 0
7, 287224, Note_on_c, 0, 77, 100
7, 287604, Note_on_c, 0, 77, 0
7, 287896, Note_on_c, 0, 77, 100
7, 287991, Note_on_c, 0, 77, 0
7, 288280, Note_on_c, 0, 65, 100
7, 288375, Note_on_c, 0, 65, 0
7, 288760, Note_on_c, 0, 65, 100
7, 288951, Note_on_c, 0, 65, 0
7, 288952, Note_on_c, 0, 53, 100
7, 288952, Note_on_c, 0, 77, 100
7, 289047, Note_on_c, 0, 77, 0
7, 289143, Note_on_c, 0, 53, 0
7, 289336, Note_on_c, 0, 77, 100
7, 289431, Note_on_c, 0, 77, 0
7, 289816, Note_on_c, 0, 65, 100
7, 289911, Note_on_c, 0, 65, 0
7, 290872, Note_on_c, 0, 65, 100
7, 290967, Note_on_c, 0, 65, 0
7, 291832, Note_on_c, 0, 65, 100
7, 291927, Note_on_c, 0, 65, 0
7, 292024, Note_on_c, 0, 53, 100
7, 292215, Note_on_c, 0, 53, 0
7, 292312, Note_on_c, 0, 65, 100
7, 292407, Note_on_c, 0, 65, 0
7, 292600, Note_on_c, 0, 65, 100
7, 292983, Note_on_c, 0, 65, 0
7, 294136, Note_on_c, 0, 41, 100
7, 294327, Note_on_c, 0, 41, 0
7, 296056, Note_on_c, 0, 65, 100
7, 296247, Note_on_c, 0, 65, 0
7, 296440, Note_on_c, 0, 65, 100
7, 296631, Note_on_c, 0, 65, 0
7, 297016, Note_on_c, 0, 65, 100
7, 297111, Note_on_c, 0, 65, 0
7, 297592, Note_on_c, 0, 65, 100
7, 297687, Note_on_c, 0, 65, 0
7, 297880, Note_on_c, 0, 65, 100
7, 297975, Note_on_c, 0, 65, 0
7, 298168, Note_on_c, 0, 65, 100
7, 298359, Note_on_c, 0, 65, 0
7, 298456, Note_on_c, 0, 65, 100
7, 298551, Note_on_c, 0, 65, 0
7, 299128, Note_on_c, 0, 41, 100
7, 299319, Note_on_c, 0, 41, 0
7, 299896, Note_on_c, 0, 41, 100
7, 300471, Note_on_c, 0, 41, 0
7, 300664, Note_on_c, 0, 65, 100
7, 301047, Note_on_c, 0, 65, 0
7, 302776, Note_on_c, 0, 77, 100
7, 302967, Note_on_c, 0, 77, 0
7, 305272, Note_on_c, 0, 65, 100
7, 305847, Note_on_c, 0, 65, 0
7, 305848, Note_on_c, 0, 65, 100
7, 306039, Note_on_c, 0, 65, 0
7, 306616, Note_on_c, 0, 65, 100
7, 306807, Note_on_c, 0, 65, 0
7, 306808, Note_on_c, 0, 65, 100
7, 307000, Note_on_c, 0, 53, 100
7, 307191, Note_on_c, 0, 53, 0
7, 307383, Note_on_c, 0, 65, 0
7, 307384, Note_on_c, 0, 65, 100
7, 307575, Note_on_c, 0, 65, 0
7, 309688, Note_on_c, 0, 53, 100
7, 309783, Note_on_c, 0, 53, 0
7, 309976, Note_on_c, 0, 53, 100
7, 310071, Note_on_c, 0, 53, 0
7, 310648, Note_on_c, 0, 65, 100
7, 310840, Note_on_c, 0, 53, 100
7, 310935, Note_on_c, 0, 53, 0
7, 311031, Note_on_c, 0, 65, 0
7, 311320, Note_on_c, 0, 65, 100
7, 311415, Note_on_c, 0, 65, 0
7, 320632, Note_on_c, 0, 53, 100
7, 320632, Note_on_c, 0, 65, 100
7, 320823, Note_on_c, 0, 53, 0
7, 321012, Note_on_c, 0, 65, 0
7, 321016, Note_on_c, 0, 53, 100
7, 321207, Note_on_c, 0, 53, 0
7, 322072, Note_on_c, 0, 53, 100
7, 322167, Note_on_c, 0, 53, 0
7, 326008, Note_on_c, 0, 41, 100
7, 326199, Note_on_c, 0, 41, 0
7, 326968, Note_on_c, 0, 41, 100
7, 326968, Note_on_c, 0, 65, 100
7, 327159, Note_on_c, 0, 65, 0
7, 327159, Note_on_c, 0, 41, 0
7, 328312, Note_on_c, 0, 65, 100
7, 328692, Note_on_c, 0, 65, 0
7, 328696, Note_on_c, 0, 53, 100
7, 328887, Note_on_c, 0, 53, 0
7, 330616, Note_on_c, 0, 77, 100
7, 330807, Note_on_c, 0, 77, 0
7, 331000, Note_on_c, 0, 65, 100
7, 331191, Note_on_c, 0, 65, 0
7, 332920, Note_on_c, 0, 53, 100
7, 333111, Note_on_c, 0, 53, 0
7, 333304, Note_on_c, 0, 41, 100
7, 333495, Note_on_c, 0, 41, 0
7, 335224, Note_on_c, 0, 65, 100
7, 335415, Note_on_c, 0, 65, 0
7, 335608, Note_on_c, 0, 65, 100
7, 335799, Note_on_c, 0, 65, 0
7, 336664, Note_on_c, 0, 77, 100
7, 336759, Note_on_c, 0, 77, 0
7, 337144, Note_on_c, 0, 77, 100
7, 337336, Note_on_c, 0, 53, 100
7, 337524, Note_on_c, 0, 77, 0
7, 337527, Note_on_c, 0, 53, 0
7, 338104, Note_on_c, 0, 77, 100
7, 338295, Note_on_c, 0, 77, 0
7, 339064, Note_on_c, 0, 53, 100
7, 339255, Note_on_c, 0, 53, 0
7, 339448, Note_on_c, 0, 77, 100
7, 339639, Note_on_c, 0, 77, 0
7, 340408, Note_on_c, 0, 77, 100
7, 340504, Note_on_c, 0, 41, 100
7, 340599, Note_on_c, 0, 41, 0
7, 340599, Note_on_c, 0, 77, 0
7, 340600, Note_on_c, 0, 77, 100
7, 340663, Note_on_c, 0, 77, 0
7, 340728, Note_on_c, 0, 77, 100
7, 340791, Note_on_c, 0, 77, 0
7, 341368, Note_on_c, 0, 77, 100
7, 341559, Note_on_c, 0, 77, 0
7, 341560, Note_on_c, 0, 65, 100
7, 341751, Note_on_c, 0, 65, 0
7, 341944, Note_on_c, 0, 77, 100
7, 342039, Note_on_c, 0, 77, 0
7, 342424, Note_on_c, 0, 77, 100
7, 342519, Note_on_c, 0, 77, 0
7, 342904, Note_on_c, 0, 65, 100
7, 342904, Note_on_c, 0, 77, 100
7, 342999, Note_on_c, 0, 77, 0
7, 343096, Note_on_c, 0, 53, 100
7, 343192, Note_on_c, 0, 77, 100
7, 343287, Note_on_c, 0, 77, 0
7, 343287, Note_on_c, 0, 53, 0
7, 343287, Note_on_c, 0, 65, 0
7, 343288, Note_on_c, 0, 65, 100
7, 343480, Note_on_c, 0, 77, 100
7, 343575, Note_on_c, 0, 77, 0
7, 343768, Note_on_c, 0, 65, 0
7, 349336, Note_on_c, 0, 77, 100
7, 349431, Note_on_c, 0, 77, 0
7, 351640, Note_on_c, 0, 77, 100
7, 351735, Note_on_c, 0, 77, 0
7, 358264, Note_on_c, 0, 53, 100
7, 358455, Note_on_c, 0, 53, 0
7, 358840, Note_on_c, 0, 53, 100
7, 359031, Note_on_c, 0, 53, 0
7, 359032, Note_on_c, 0, 65, 100
7, 359415, Note_on_c, 0, 65, 0
7, 359416, Note_on_c, 0, 65, 100
7, 359796, Note_on_c, 0, 65, 0
7, 360568, Note_on_c, 0, 65, 100
7, 360948, Note_on_c, 0, 65, 0
7, 360952, Note_on_c, 0, 53, 100
7, 361143, Note_on_c, 0, 53, 0
7, 361144, Note_on_c, 0, 65, 100
7, 361335, Note_on_c, 0, 65, 0
7, 361528, Note_on_c, 0, 65, 100
7, 361623, Note_on_c, 0, 65, 0
7, 362008, Note_on_c, 0, 53, 100
7, 362103, Note_on_c, 0, 53, 0
7, 362488, Note_on_c, 0, 65, 100
7, 362583, Note_on_c, 0, 65, 0
7, 362680, Note_on_c, 0, 41, 100
7, 362776, Note_on_c, 0, 65, 100
7, 362871, Note_on_c, 0, 65, 0
7, 362871, Note_on_c, 0, 41, 0
7, 363064, Note_on_c, 0, 65, 100
7, 363159, Note_on_c, 0, 65, 0
7, 364216, Note_on_c, 0, 53, 100
7, 364407, Note_on_c, 0, 53, 0
7, 364408, Note_on_c, 0, 53, 100
7, 364408, Note_on_c, 0, 65, 100
7, 364599, Note_on_c, 0, 65, 0
7, 364792, Note_on_c, 0, 65, 100
7, 364983, Note_on_c, 0, 65, 0
7, 364983, Note_on_c, 0, 53, 0
7, 364984, Note_on_c, 0, 53, 100
7, 365175, Note_on_c, 0, 53, 0
7, 365368, Note_on_c, 0, 77, 100
7, 365463, Note_on_c, 0, 77, 0
7, 366520, Note_on_c, 0, 53, 100
7, 366711, Note_on_c, 0, 53, 0
7, 366712, Note_on_c, 0, 65, 100
7, 366903, Note_on_c, 0, 65, 0
7, 367096, Note_on_c, 0, 65, 100
7, 367287, Note_on_c, 0, 65, 0
7, 367480, Note_on_c, 0, 77, 100
7, 367670, Note_on_c, 0, 77, 0
7, 367672, Note_on_c, 0, 77, 100
7, 367767, Note_on_c, 0, 77, 0
7, 368056, Note_on_c, 0, 77, 100
7, 368247, Note_on_c, 0, 77, 0
7, 369400, Note_on_c, 0, 77, 100
7, 369592, Note_on_c, 0, 53, 100
7, 369780, Note_on_c, 0, 77, 0
7, 369783, Note_on_c, 0, 53, 0
7, 370744, Note_on_c, 0, 77, 100
7, 370839, Note_on_c, 0, 77, 0
7, 370936, Note_on_c, 0, 77, 100
7, 371127, Note_on_c, 0, 77, 0
7, 371224, Note_on_c, 0, 77, 100
7, 371319, Note_on_c, 0, 77, 0
7, 371512, Note_on_c, 0, 77, 100
7, 371607, Note_on_c, 0, 77, 0
7, 373240, Note_on_c, 0, 53, 100
7, 373431, Note_on_c, 0, 53, 0
7, 373432, Note_on_c, 0, 77, 100
7, 373623, Note_on_c, 0, 77, 0
7, 373624, Note_on_c, 0, 77, 100
7, 374199, Note_on_c, 0, 77, 0
7, 374200, Note_on_c, 0, 77, 100
7, 374391, Note_on_c, 0, 77, 0
7, 374392, Note_on_c, 0, 77, 100
7, 374583, Note_on_c, 0, 77, 0
7, 375544, Note_on_c, 0, 53, 100
7, 375924, Note_on_c, 0, 53, 0
7, 376312, Note_on_c, 0, 77, 100
7, 376407, Note_on_c, 0, 77, 0
7, 376504, Note_on_c, 0, 53, 100
7, 376695, Note_on_c, 0, 53, 0
7, 377848, Note_on_c, 0, 53, 100
7, 378039, Note_on_c, 0, 53, 0
7, 378232, Note_on_c, 0, 53, 100
7, 378423, Note_on_c, 0, 53, 0
7, 378616, Note_on_c, 0, 53, 100
7, 378807, Note_on_c, 0, 53, 0
7, 379000, Note_on_c, 0, 53, 100
7, 379000, Note_on_c, 0, 77, 100
7, 379095, Note_on_c, 0, 77, 0
7, 379191, Note_on_c, 0, 53, 0
7, 379384, Note_on_c, 0, 53, 100
7, 379384, Note_on_c, 0, 77, 100
7, 379479, Note_on_c, 0, 77, 0
7, 379575, Note_on_c, 0, 53, 0
7, 379768, Note_on_c, 0, 53, 100
7, 379768, Note_on_c, 0, 77, 100
7, 379863, Note_on_c, 0, 77, 0
7, 379959, Note_on_c, 0, 53, 0
7, 380152, Note_on_c, 0, 77, 100
7, 380247, Note_on_c, 0, 77, 0
7, 380536, Note_on_c, 0, 77, 100
7, 380631, Note_on_c, 0, 77, 0
7, 380920, Note_on_c, 0, 77, 100
7, 381015, Note_on_c, 0, 77, 0
7, 383416, Note_on_c, 0, 53, 100
7, 383416, Note_on_c, 0, 77, 100
7, 383607, Note_on_c, 0, 77, 0
7, 383607, Note_on_c, 0, 53, 0
7, 383896, Note_on_c, 0, 77, 100
7, 383991, Note_on_c, 0, 77, 0
7, 384280, Note_on_c, 0, 77, 100
7, 384375, Note_on_c, 0, 77, 0
7, 384760, Note_on_c, 0, 65, 100
7, 385140, Note_on_c, 0, 65, 0
7, 385144, Note_on_c, 0, 53, 100
7, 385335, Note_on_c, 0, 53, 0
7, 387064, Note_on_c, 0, 77, 100
7, 387444, Note_on_c, 0, 77, 0
7, 387448, Note_on_c, 0, 65, 100
7, 387639, Note_on_c, 0, 65, 0
7, 389368, Note_on_c, 0, 65, 100
7, 389752, Note_on_c, 0, 41, 100
7, 389943, Note_on_c, 0, 41, 0
7, 389943, Note_on_c, 0, 65, 0
7, 390136, Note_on_c, 0, 53, 100
7, 390519, Note_on_c, 0, 53, 0
7, 391672, Note_on_c, 0, 65, 100
7, 391862, Note_on_c, 0, 65, 0
7, 392056, Note_on_c, 0, 77, 100
7, 392247, Note_on_c, 0, 77, 0
7, 392248, Note_on_c, 0, 65, 100
7, 392439, Note_on_c, 0, 65, 0
7, 392632, Note_on_c, 0, 77, 100
7, 392727, Note_on_c, 0, 77, 0
7, 393112, Note_on_c, 0, 77, 100
7, 393207, Note_on_c, 0, 77, 0
7, 393592, Note_on_c, 0, 65, 100
7, 393592, Note_on_c, 0, 77, 100
7, 393687, Note_on_c, 0, 77, 0
7, 393784, Note_on_c, 0, 53, 100
7, 393880, Note_on_c, 0, 77, 100
7, 393975, Note_on_c, 0, 77, 0
7, 393975, Note_on_c, 0, 53, 0
7, 393975, Note_on_c, 0, 65, 0
7, 393976, Note_on_c, 0, 65, 100
7, 394356, Note_on_c, 0, 65, 0
7, 396952, Note_on_c, 0, 53, 100
7, 397047, Note_on_c, 0, 53, 0
7, 397144, Note_on_c, 0, 53, 100
7, 397239, Note_on_c, 0, 53, 0
7, 397816, Note_on_c, 0, 65, 100
7, 398007, Note_on_c, 0, 65, 0
7, 398488, Note_on_c, 0, 65, 100
7, 398583, Note_on_c, 0, 65, 0
7, 399160, Note_on_c, 0, 65, 100
7, 399255, Note_on_c, 0, 65, 0
7, 399256, Note_on_c, 0, 41, 100
7, 399351, Note_on_c, 0, 41, 0
7, 399544, Note_on_c, 0, 65, 100
7, 399927, Note_on_c, 0, 65, 0
7, 400312, Note_on_c, 0, 65, 100
7, 400407, Note_on_c, 0, 65, 0
7, 400408, Note_on_c, 0, 41, 100
7, 400503, Note_on_c, 0, 41, 0
7, 400792, Note_on_c, 0, 65, 100
7, 400887, Note_on_c, 0, 65, 0
7, 401272, Note_on_c, 0, 65, 100
7, 401368, Note_on_c, 0, 53, 100
7, 401463, Note_on_c, 0, 53, 0
7, 401463, Note_on_c, 0, 65, 0
7, 402040, Note_on_c, 0, 53, 100
7, 402135, Note_on_c, 0, 53, 0
7, 402904, Note_on_c, 0, 77, 100
7, 402999, Note_on_c, 0, 77, 0
7, 403598, Note_on_c, 0, 77, 100
7, 403697, Note_on_c, 0, 77, 0
7, 403802, Note_on_c, 0, 65, 100
7, 403802, Note_on_c, 0, 53, 100
7, 403901, Note_on_c, 0, 53, 0
7, 404002, Note_on_c, 0, 65, 0
7, 404412, Note_on_c, 0, 65, 100
7, 404643, Note_on_c, 0, 65, 0
7, 404874, Note_on_c, 0, 77, 100
7, 405087, Note_on_c, 0, 77, 0
7, 405096, Note_on_c, 0, 53, 100
7, 405096, Note_on_c, 0, 65, 100
7, 405201, Note_on_c, 0, 53, 0
7, 405309, Note_on_c, 0, 65, 0
7, 405309, End_track
8, 0, Start_track
8, 0, Title_t, "Harpsichord"
8, 0, Program_c, 0, 6
8, 0, Control_c, 0, 7, 100
8, 0, Control_c, 0, 10, 64
8, 0, Pitch_bend_c, 0, 7710
8, 14073, Note_on_c, 0, 78, 100
8, 14415, Note_on_c, 0, 78, 0
8, 14987, Note_on_c, 0, 78, 100
8, 15167, Note_on_c, 0, 78, 0
8, 15277, Note_on_c, 0, 78, 100
8, 15367, Note_on_c, 0, 78, 0
8, 28320, Note_on_c, 0, 66, 100
8, 28415, Note_on_c, 0, 66, 0
8, 28416, Note_on_c, 0, 66, 100
8, 28776, Note_on_c, 0, 66, 0
8, 33416, Note_on_c, 0, 66, 100
8, 33511, Note_on_c, 0, 66, 0
8, 33616, Note_on_c, 0, 66, 100
8, 33807, Note_on_c, 0, 66, 0
8, 37648, Note_on_c, 0, 42, 100
8, 38028, Note_on_c, 0, 42, 0
8, 48248, Note_on_c, 0, 66, 100
8, 48699, Note_on_c, 0, 66, 0
8, 48737, Note_on_c, 0, 66, 100
8, 48825, Note_on_c, 0, 66, 0
8, 49964, Note_on_c, 0, 66, 100
8, 50058, Note_on_c, 0, 66, 0
8, 50159, Note_on_c, 0, 66, 100
8, 50350, Note_on_c, 0, 66, 0
8, 50684, Note_on_c, 0, 66, 100
8, 51026, Note_on_c, 0, 66, 0
8, 64512, Note_on_c, 0, 54, 100
8, 64703, Note_on_c, 0, 54, 0
8, 64896, Note_on_c, 0, 66, 100
8, 65088, Note_on_c, 0, 54, 100
8, 65276, Note_on_c, 0, 66, 0
8, 65279, Note_on_c, 0, 54, 0
8, 69888, Note_on_c, 0, 78, 100
8, 70079, Note_on_c, 0, 78, 0
8, 70272, Note_on_c, 0, 54, 100
8, 70464, Note_on_c, 0, 78, 100
8, 70655, Note_on_c, 0, 78, 0
8, 70655, Note_on_c, 0, 54, 0
8, 80928, Note_on_c, 0, 66, 100
8, 81023, Note_on_c, 0, 66, 0
8, 109056, Note_on_c, 0, 54, 100
8, 109247, Note_on_c, 0, 54, 0
8, 110208, Note_on_c, 0, 66, 100
8, 110591, Note_on_c, 0, 66, 0
8, 111744, Note_on_c, 0, 66, 100
8, 112127, Note_on_c, 0, 66, 0
8, 117120, Note_on_c, 0, 78, 100
8, 117503, Note_on_c, 0, 78, 0
8, 120192, Note_on_c, 0, 54, 100
8, 120383, Note_on_c, 0, 54, 0
8, 121728, Note_on_c, 0, 54, 100
8, 122108, Note_on_c, 0, 54, 0
8, 124416, Note_on_c, 0, 54, 100
8, 124607, Note_on_c, 0, 54, 0
8, 125568, Note_on_c, 0, 54, 100
8, 125951, Note_on_c, 0, 54, 0
8, 130176, Note_on_c, 0, 66, 100
8, 130559, Note_on_c, 0, 66, 0
8, 133824, Note_on_c, 0, 78, 100
8, 133824, Note_on_c, 0, 66, 100
8, 133919, Note_on_c, 0, 66, 0
8, 133919, Note_on_c, 0, 78, 0
8, 152832, Note_on_c, 0, 54, 100
8, 152927, Note_on_c, 0, 54, 0
8, 153120, Note_on_c, 0, 54, 100
8, 153215, Note_on_c, 0, 54, 0
8, 157248, Note_on_c, 0, 54, 100
8, 157439, Note_on_c, 0, 54, 0
8, 177072, Note_on_c, 0, 54, 100
8, 177167, Note_on_c, 0, 54, 0
8, 184488, Note_on_c, 0, 54, 100
8, 184871, Note_on_c, 0, 54, 0
8, 185104, Note_on_c, 0, 66, 100
8, 185199, Note_on_c, 0, 66, 0
8, 185904, Note_on_c, 0, 78, 100
8, 185999, Note_on_c, 0, 78, 0
8, 187528, Note_on_c, 0, 54, 100
8, 187908, Note_on_c, 0, 54, 0
8, 188056, Note_on_c, 0, 54, 100
8, 188151, Note_on_c, 0, 54, 0
8, 188344, Note_on_c, 0, 54, 100
8, 188724, Note_on_c, 0, 54, 0
8, 192896, Note_on_c, 0, 66, 100
8, 193129, Note_on_c, 0, 66, 0
8, 193472, Note_on_c, 0, 66, 100
8, 193535, Note_on_c, 0, 66, 0
8, 193782, Note_on_c, 0, 66, 100
8, 193875, Note_on_c, 0, 66, 0
8, 194423, Note_on_c, 0, 54, 100
8, 194489, Note_on_c, 0, 54, 0
8, 194752, Note_on_c, 0, 54, 100
8, 194815, Note_on_c, 0, 54, 0
8, 196608, Note_on_c, 0, 54, 100
8, 197088, Note_on_c, 0, 54, 0
8, 197184, Note_on_c, 0, 54, 100
8, 197375, Note_on_c, 0, 54, 0
8, 197376, Note_on_c, 0, 54, 100
8, 197856, Note_on_c, 0, 54, 0
8, 197952, Note_on_c, 0, 54, 100
8, 198143, Note_on_c, 0, 54, 0
8, 203520, Note_on_c, 0, 54, 100
8, 203615, Note_on_c, 0, 54, 0
8, 203616, Note_on_c, 0, 54, 100
8, 203711, Note_on_c, 0, 54, 0
8, 203808, Note_on_c, 0, 54, 100
8, 203903, Note_on_c, 0, 54, 0
8, 203904, Note_on_c, 0, 54, 100
8, 204191, Note_on_c, 0, 54, 0
8, 204480, Note_on_c, 0, 78, 100
8, 204575, Note_on_c, 0, 78, 0
8, 205248, Note_on_c, 0, 78, 100
8, 205343, Note_on_c, 0, 78, 0
8, 207264, Note_on_c, 0, 78, 100
8, 207359, Note_on_c, 0, 78, 0
8, 207360, Note_on_c, 0, 78, 100
8, 207552, Note_on_c, 0, 66, 100
8, 207647, Note_on_c, 0, 66, 0
8, 207840, Note_on_c, 0, 78, 0
8, 207936, Note_on_c, 0, 78, 100
8, 208127, Note_on_c, 0, 78, 0
8, 208128, Note_on_c, 0, 78, 100
8, 208608, Note_on_c, 0, 78, 0
8, 208704, Note_on_c, 0, 66, 100
8, 208895, Note_on_c, 0, 66, 0
8, 208896, Note_on_c, 0, 66, 100
8, 209088, Note_on_c, 0, 78, 100
8, 209183, Note_on_c, 0, 78, 0
8, 209376, Note_on_c, 0, 66, 0
8, 209472, Note_on_c, 0, 66, 100
8, 209662, Note_on_c, 0, 66, 0
8, 209664, Note_on_c, 0, 66, 100
8, 209856, Note_on_c, 0, 78, 100
8, 209951, Note_on_c, 0, 78, 0
8, 210144, Note_on_c, 0, 66, 0
8, 210240, Note_on_c, 0, 66, 100
8, 210430, Note_on_c, 0, 66, 0
8, 214272, Note_on_c, 0, 54, 100
8, 214752, Note_on_c, 0, 54, 0
8, 214848, Note_on_c, 0, 54, 100
8, 215039, Note_on_c, 0, 54, 0
8, 215040, Note_on_c, 0, 54, 100
8, 215520, Note_on_c, 0, 54, 0
8, 215616, Note_on_c, 0, 54, 100
8, 215807, Note_on_c, 0, 54, 0
8, 217344, Note_on_c, 0, 66, 100
8, 217724, Note_on_c, 0, 66, 0
8, 218504, Note_on_c, 0, 66, 100
8, 218784, Note_on_c, 0, 66, 0
8, 218800, Note_on_c, 0, 66, 100
8, 218895, Note_on_c, 0, 66, 0
8, 221200, Note_on_c, 0, 78, 100
8, 221390, Note_on_c, 0, 78, 0
8, 221392, Note_on_c, 0, 54, 100
8, 221672, Note_on_c, 0, 54, 0
8, 221776, Note_on_c, 0, 54, 100
8, 221967, Note_on_c, 0, 54, 0
8, 229550, Note_on_c, 0, 66, 100
8, 229643, Note_on_c, 0, 66, 0
8, 291064, Note_on_c, 0, 54, 100
8, 291255, Note_on_c, 0, 54, 0
8, 304888, Note_on_c, 0, 66, 100
8, 305271, Note_on_c, 0, 66, 0
8, 308728, Note_on_c, 0, 54, 100
8, 308919, Note_on_c, 0, 54, 0
8, 309112, Note_on_c, 0, 54, 100
8, 309303, Note_on_c, 0, 54, 0
8, 311896, Note_on_c, 0, 66, 100
8, 311991, Note_on_c, 0, 66, 0
8, 312184, Note_on_c, 0, 66, 100
8, 312567, Note_on_c, 0, 66, 0
8, 313720, Note_on_c, 0, 54, 100
8, 314295, Note_on_c, 0, 54, 0
8, 314296, Note_on_c, 0, 54, 100
8, 314487, Note_on_c, 0, 54, 0
8, 316024, Note_on_c, 0, 78, 100
8, 316599, Note_on_c, 0, 78, 0
8, 316600, Note_on_c, 0, 78, 100
8, 316791, Note_on_c, 0, 78, 0
8, 318328, Note_on_c, 0, 66, 100
8, 318903, Note_on_c, 0, 66, 0
8, 318904, Note_on_c, 0, 66, 100
8, 319124, Note_on_c, 0, 66, 0
8, 323512, Note_on_c, 0, 66, 100
8, 323703, Note_on_c, 0, 66, 0
8, 344440, Note_on_c, 0, 54, 100
8, 344823, Note_on_c, 0, 54, 0
8, 345592, Note_on_c, 0, 78, 100
8, 345783, Note_on_c, 0, 78, 0
8, 345976, Note_on_c, 0, 78, 100
8, 346167, Note_on_c, 0, 78, 0
8, 346168, Note_on_c, 0, 66, 100
8, 346359, Note_on_c, 0, 66, 0
8, 347032, Note_on_c, 0, 78, 100
8, 347127, Note_on_c, 0, 78, 0
8, 348184, Note_on_c, 0, 78, 100
8, 348279, Note_on_c, 0, 78, 0
8, 350200, Note_on_c, 0, 54, 100
8, 350680, Note_on_c, 0, 54, 0
8, 350776, Note_on_c, 0, 54, 100
8, 350871, Note_on_c, 0, 54, 0
8, 350968, Note_on_c, 0, 78, 100
8, 351159, Note_on_c, 0, 78, 0
8, 351160, Note_on_c, 0, 54, 100
8, 351351, Note_on_c, 0, 54, 0
8, 352696, Note_on_c, 0, 78, 100
8, 352791, Note_on_c, 0, 78, 0
8, 353080, Note_on_c, 0, 78, 100
8, 353175, Note_on_c, 0, 78, 0
8, 353464, Note_on_c, 0, 78, 100
8, 353559, Note_on_c, 0, 78, 0
8, 354488, Note_on_c, 0, 78, 100
8, 354551, Note_on_c, 0, 78, 0
8, 354616, Note_on_c, 0, 78, 100
8, 354711, Note_on_c, 0, 78, 0
8, 356344, Note_on_c, 0, 66, 100
8, 356919, Note_on_c, 0, 66, 0
8, 356920, Note_on_c, 0, 66, 100
8, 357111, Note_on_c, 0, 66, 0
8, 394744, Note_on_c, 0, 54, 100
8, 394935, Note_on_c, 0, 54, 0
8, 394936, Note_on_c, 0, 66, 100
8, 395127, Note_on_c, 0, 66, 0
8, 395896, Note_on_c, 0, 54, 100
8, 396087, Note_on_c, 0, 54, 0
8, 396088, Note_on_c, 0, 66, 100
8, 396279, Note_on_c, 0, 66, 0
8, 402232, Note_on_c, 0, 54, 100
8, 402327, Note_on_c, 0, 54, 0
8, 405837, Note_on_c, 0, 66, 100
8, 407129, Note_on_c, 0, 66, 0
8, 407129, End_track
9, 0, Start_track
9, 0, Title_t, "Harpsichord"
9, 0, Program_c, 0, 6
9, 0, Control_c, 0, 7, 100
9, 0, Control_c, 0, 10, 64
9, 0, Pitch_bend_c, 0, 8037
9, 1813, Note_on_c, 0, 55, 100
9, 1908, Note_on_c, 0, 55, 0
9, 3093, Note_on_c, 0, 55, 100
9, 3245, Note_on_c, 0, 55, 0
9, 3367, Note_on_c, 0, 55, 100
9, 3457, Note_on_c, 0, 55, 0
9, 4304, Note_on_c, 0, 55, 100
9, 4394, Note_on_c, 0, 55, 0
9, 5828, Note_on_c, 0, 67, 100
9, 5894, Note_on_c, 0, 67, 0
9, 7732, Note_on_c, 0, 79, 100
9, 7814, Note_on_c, 0, 79, 0
9, 7878, Note_on_c, 0, 79, 100
9, 7918, Note_on_c, 0, 79, 0
9, 8338, Note_on_c, 0, 67, 100
9, 8378, Note_on_c, 0, 67, 0
9, 8672, Note_on_c, 0, 67, 100
9, 8712, Note_on_c, 0, 67, 0
9, 8838, Note_on_c, 0, 67, 100
9, 8878, Note_on_c, 0, 67, 0
9, 9131, Note_on_c, 0, 55, 100
9, 9171, Note_on_c, 0, 55, 0
9, 9450, Note_on_c, 0, 67, 100
9, 9543, Note_on_c, 0, 67, 0
9, 10492, Note_on_c, 0, 55, 100
9, 10585, Note_on_c, 0, 55, 0
9, 10918, Note_on_c, 0, 67, 100
9, 11109, Note_on_c, 0, 67, 0
9, 11402, Note_on_c, 0, 55, 100
9, 11517, Note_on_c, 0, 55, 0
9, 13616, Note_on_c, 0, 67, 100
9, 13706, Note_on_c, 0, 67, 0
9, 14439, Note_on_c, 0, 79, 100
9, 14781, Note_on_c, 0, 79, 0
9, 15368, Note_on_c, 0, 79, 100
9, 15548, Note_on_c, 0, 79, 0
9, 15551, Note_on_c, 0, 79, 100
9, 15912, Note_on_c, 0, 79, 0
9, 16075, Note_on_c, 0, 79, 100
9, 16304, Note_on_c, 0, 79, 0
9, 16305, Note_on_c, 0, 79, 100
9, 16495, Note_on_c, 0, 79, 0
9, 16650, Note_on_c, 0, 67, 100
9, 16879, Note_on_c, 0, 67, 0
9, 17711, Note_on_c, 0, 55, 100
9, 17760, Note_on_c, 0, 55, 0
9, 24960, Note_on_c, 0, 67, 100
9, 24960, Note_on_c, 0, 55, 100
9, 25151, Note_on_c, 0, 67, 0
9, 25720, Note_on_c, 0, 55, 0
9, 26304, Note_on_c, 0, 67, 100
9, 26494, Note_on_c, 0, 67, 0
9, 26496, Note_on_c, 0, 67, 100
9, 27071, Note_on_c, 0, 67, 0
9, 28224, Note_on_c, 0, 67, 100
9, 28319, Note_on_c, 0, 67, 0
9, 28800, Note_on_c, 0, 67, 100
9, 28991, Note_on_c, 0, 67, 0
9, 30336, Note_on_c, 0, 55, 100
9, 30911, Note_on_c, 0, 55, 0
9, 30912, Note_on_c, 0, 55, 100
9, 31103, Note_on_c, 0, 55, 0
9, 32456, Note_on_c, 0, 55, 100
9, 32647, Note_on_c, 0, 55, 0
9, 32840, Note_on_c, 0, 55, 100
9, 33031, Note_on_c, 0, 55, 0
9, 33096, Note_on_c, 0, 67, 100
9, 33159, Note_on_c, 0, 67, 0
9, 33224, Note_on_c, 0, 67, 100
9, 33415, Note_on_c, 0, 67, 0
9, 34768, Note_on_c, 0, 55, 100
9, 34863, Note_on_c, 0, 55, 0
9, 35248, Note_on_c, 0, 67, 100
9, 35343, Note_on_c, 0, 67, 0
9, 35344, Note_on_c, 0, 67, 100
9, 35864, Note_on_c, 0, 67, 0
9, 36688, Note_on_c, 0, 67, 100
9, 36783, Note_on_c, 0, 67, 0
9, 36880, Note_on_c, 0, 43, 100
9, 37230, Note_on_c, 0, 43, 0
9, 37456, Note_on_c, 0, 43, 100
9, 37647, Note_on_c, 0, 43, 0
9, 38032, Note_on_c, 0, 55, 100
9, 38032, Note_on_c, 0, 43, 100
9, 38223, Note_on_c, 0, 55, 0
9, 38799, Note_on_c, 0, 43, 0
9, 39184, Note_on_c, 0, 67, 100
9, 40084, Note_on_c, 0, 67, 0
9, 40144, Note_on_c, 0, 67, 100
9, 40239, Note_on_c, 0, 67, 0
9, 40720, Note_on_c, 0, 43, 100
9, 41103, Note_on_c, 0, 43, 0
9, 42280, Note_on_c, 0, 55, 100
9, 42663, Note_on_c, 0, 55, 0
9, 43048, Note_on_c, 0, 43, 100
9, 43048, Note_on_c, 0, 67, 100
9, 43239, Note_on_c, 0, 67, 0
9, 43431, Note_on_c, 0, 43, 0
9, 44160, Note_on_c, 0, 55, 100
9, 44259, Note_on_c, 0, 55, 0
9, 44268, Note_on_c, 0, 55, 100
9, 44508, Note_on_c, 0, 55, 0
9, 45514, Note_on_c, 0, 67, 100
9, 45594, Note_on_c, 0, 67, 0
9, 46088, Note_on_c, 0, 55, 100
9, 46157, Note_on_c, 0, 55, 0
9, 46299, Note_on_c, 0, 55, 100
9, 46368, Note_on_c, 0, 55, 0
9, 47974, Note_on_c, 0, 67, 100
9, 48152, Note_on_c, 0, 67, 0
9, 48156, Note_on_c, 0, 67, 100
9, 48246, Note_on_c, 0, 67, 0
9, 48827, Note_on_c, 0, 67, 100
9, 49098, Note_on_c, 0, 67, 0
9, 49102, Note_on_c, 0, 67, 100
9, 49191, Note_on_c, 0, 67, 0
9, 49376, Note_on_c, 0, 79, 100
9, 49556, Note_on_c, 0, 79, 0
9, 49560, Note_on_c, 0, 67, 100
9, 49654, Note_on_c, 0, 55, 100
9, 49749, Note_on_c, 0, 55, 0
9, 49830, Note_on_c, 0, 67, 0
9, 50062, Note_on_c, 0, 67, 100
9, 50155, Note_on_c, 0, 67, 0
9, 50355, Note_on_c, 0, 55, 100
9, 50555, Note_on_c, 0, 55, 0
9, 54048, Note_on_c, 0, 55, 100
9, 54143, Note_on_c, 0, 55, 0
9, 54336, Note_on_c, 0, 55, 100
9, 54527, Note_on_c, 0, 55, 0
9, 55584, Note_on_c, 0, 67, 100
9, 55679, Note_on_c, 0, 67, 0
9, 55872, Note_on_c, 0, 67, 100
9, 56063, Note_on_c, 0, 67, 0
9, 57984, Note_on_c, 0, 67, 100
9, 58751, Note_on_c, 0, 67, 0
9, 58944, Note_on_c, 0, 67, 100
9, 59039, Note_on_c, 0, 67, 0
9, 59424, Note_on_c, 0, 67, 100
9, 59519, Note_on_c, 0, 67, 0
9, 59712, Note_on_c, 0, 67, 100
9, 59903, Note_on_c, 0, 67, 0
9, 63744, Note_on_c, 0, 55, 100
9, 63935, Note_on_c, 0, 55, 0
9, 64128, Note_on_c, 0, 67, 100
9, 64511, Note_on_c, 0, 67, 0
9, 64704, Note_on_c, 0, 55, 100
9, 64799, Note_on_c, 0, 55, 0
9, 65856, Note_on_c, 0, 67, 100
9, 66047, Note_on_c, 0, 67, 0
9, 69120, Note_on_c, 0, 79, 100
9, 69311, Note_on_c, 0, 79, 0
9, 69504, Note_on_c, 0, 55, 100
9, 69887, Note_on_c, 0, 55, 0
9, 70080, Note_on_c, 0, 79, 100
9, 70175, Note_on_c, 0, 79, 0
9, 71808, Note_on_c, 0, 79, 100
9, 72575, Note_on_c, 0, 79, 0
9, 72960, Note_on_c, 0, 43, 100
9, 73151, Note_on_c, 0, 43, 0
9, 73344, Note_on_c, 0, 67, 100
9, 73727, Note_on_c, 0, 67, 0
9, 74496, Note_on_c, 0, 67, 100
9, 74687, Note_on_c, 0, 67, 0
9, 74784, Note_on_c, 0, 43, 100
9, 74879, Note_on_c, 0, 43, 0
9, 75072, Note_on_c, 0, 43, 100
9, 75168, Note_on_c, 0, 67, 100
9, 75263, Note_on_c, 0, 67, 0
9, 75263, Note_on_c, 0, 43, 0
9, 75456, Note_on_c, 0, 67, 100
9, 75647, Note_on_c, 0, 67, 0
9, 76032, Note_on_c, 0, 67, 100
9, 76320, Note_on_c, 0, 55, 100
9, 76415, Note_on_c, 0, 55, 0
9, 76415, Note_on_c, 0, 67, 0
9, 76608, Note_on_c, 0, 55, 100
9, 76799, Note_on_c, 0, 55, 0
9, 77568, Note_on_c, 0, 55, 100
9, 77759, Note_on_c, 0, 55, 0
9, 77856, Note_on_c, 0, 67, 100
9, 77951, Note_on_c, 0, 67, 0
9, 78144, Note_on_c, 0, 67, 100
9, 78335, Note_on_c, 0, 67, 0
9, 79872, Note_on_c, 0, 67, 100
9, 80063, Note_on_c, 0, 67, 0
9, 81024, Note_on_c, 0, 67, 100
9, 81491, Note_on_c, 0, 67, 0
9, 82464, Note_on_c, 0, 67, 100
9, 82559, Note_on_c, 0, 67, 0
9, 82752, Note_on_c, 0, 67, 100
9, 82943, Note_on_c, 0, 67, 0
9, 84864, Note_on_c, 0, 67, 100
9, 85631, Note_on_c, 0, 67, 0
9, 85824, Note_on_c, 0, 67, 100
9, 85919, Note_on_c, 0, 67, 0
9, 86304, Note_on_c, 0, 67, 100
9, 86399, Note_on_c, 0, 67, 0
9, 86592, Note_on_c, 0, 67, 100
9, 86783, Note_on_c, 0, 67, 0
9, 87552, Note_on_c, 0, 55, 100
9, 87743, Note_on_c, 0, 55, 0
9, 87840, Note_on_c, 0, 79, 100
9, 87935, Note_on_c, 0, 79, 0
9, 88128, Note_on_c, 0, 79, 100
9, 88319, Note_on_c, 0, 79, 0
9, 89088, Note_on_c, 0, 43, 100
9, 89279, Note_on_c, 0, 43, 0
9, 89376, Note_on_c, 0, 67, 100
9, 89471, Note_on_c, 0, 67, 0
9, 89664, Note_on_c, 0, 67, 100
9, 89855, Note_on_c, 0, 67, 0
9, 90624, Note_on_c, 0, 55, 100
9, 90815, Note_on_c, 0, 55, 0
9, 90816, Note_on_c, 0, 43, 100
9, 91007, Note_on_c, 0, 43, 0
9, 91584, Note_on_c, 0, 43, 100
9, 91775, Note_on_c, 0, 43, 0
9, 92160, Note_on_c, 0, 67, 100
9, 92351, Note_on_c, 0, 67, 0
9, 92352, Note_on_c, 0, 43, 100
9, 92543, Note_on_c, 0, 43, 0
9, 93696, Note_on_c, 0, 79, 100
9, 93887, Note_on_c, 0, 79, 0
9, 93888, Note_on_c, 0, 55, 100
9, 94079, Note_on_c, 0, 55, 0
9, 94848, Note_on_c, 0, 67, 100
9, 95039, Note_on_c, 0, 67, 0
9, 96192, Note_on_c, 0, 79, 100
9, 96288, Note_on_c, 0, 55, 100
9, 96383, Note_on_c, 0, 55, 0
9, 96575, Note_on_c, 0, 79, 0
9, 96768, Note_on_c, 0, 55, 100
9, 96959, Note_on_c, 0, 55, 0
9, 97152, Note_on_c, 0, 67, 100
9, 97535, Note_on_c, 0, 67, 0
9, 99456, Note_on_c, 0, 67, 100
9, 99456, Note_on_c, 0, 55, 100
9, 99647, Note_on_c, 0, 67, 0
9, 100223, Note_on_c, 0, 55, 0
9, 100608, Note_on_c, 0, 67, 100
9, 100800, Note_on_c, 0, 43, 100
9, 100991, Note_on_c, 0, 43, 0
9, 101148, Note_on_c, 0, 67, 0
9, 101280, Note_on_c, 0, 67, 100
9, 101375, Note_on_c, 0, 67, 0
9, 101952, Note_on_c, 0, 67, 100
9, 102047, Note_on_c, 0, 67, 0
9, 102144, Note_on_c, 0, 43, 100
9, 102335, Note_on_c, 0, 43, 0
9, 102432, Note_on_c, 0, 67, 100
9, 102527, Note_on_c, 0, 67, 0
9, 102720, Note_on_c, 0, 67, 100
9, 102911, Note_on_c, 0, 67, 0
9, 103680, Note_on_c, 0, 55, 100
9, 103871, Note_on_c, 0, 55, 0
9, 103968, Note_on_c, 0, 67, 100
9, 104063, Note_on_c, 0, 67, 0
9, 104256, Note_on_c, 0, 67, 100
9, 104447, Note_on_c, 0, 67, 0
9, 105216, Note_on_c, 0, 79, 100
9, 105407, Note_on_c, 0, 79, 0
9, 105504, Note_on_c, 0, 67, 100
9, 105599, Note_on_c, 0, 67, 0
9, 105792, Note_on_c, 0, 67, 100
9, 105983, Note_on_c, 0, 67, 0
9, 106752, Note_on_c, 0, 67, 100
9, 107040, Note_on_c, 0, 55, 100
9, 107135, Note_on_c, 0, 55, 0
9, 107519, Note_on_c, 0, 67, 0
9, 107712, Note_on_c, 0, 55, 100
9, 107807, Note_on_c, 0, 55, 0
9, 108288, Note_on_c, 0, 55, 100
9, 108479, Note_on_c, 0, 55, 0
9, 108864, Note_on_c, 0, 55, 100
9, 109055, Note_on_c, 0, 55, 0
9, 109440, Note_on_c, 0, 67, 100
9, 109440, Note_on_c, 0, 55, 100
9, 109535, Note_on_c, 0, 55, 0
9, 109823, Note_on_c, 0, 67, 0
9, 109824, Note_on_c, 0, 67, 100
9, 110207, Note_on_c, 0, 67, 0
9, 110592, Note_on_c, 0, 67, 100
9, 110592, Note_on_c, 0, 43, 100
9, 110783, Note_on_c, 0, 67, 0
9, 110972, Note_on_c, 0, 43, 0
9, 110976, Note_on_c, 0, 67, 100
9, 111168, Note_on_c, 0, 55, 100
9, 111359, Note_on_c, 0, 55, 0
9, 111743, Note_on_c, 0, 67, 0
9, 112128, Note_on_c, 0, 67, 100
9, 112128, Note_on_c, 0, 43, 100
9, 112320, Note_on_c, 0, 55, 100
9, 112508, Note_on_c, 0, 67, 0
9, 112510, Note_on_c, 0, 55, 0
9, 112511, Note_on_c, 0, 43, 0
9, 112512, Note_on_c, 0, 55, 100
9, 113279, Note_on_c, 0, 55, 0
9, 113664, Note_on_c, 0, 55, 100
9, 113855, Note_on_c, 0, 55, 0
9, 113952, Note_on_c, 0, 67, 100
9, 114047, Note_on_c, 0, 67, 0
9, 114240, Note_on_c, 0, 55, 100
9, 114431, Note_on_c, 0, 55, 0
9, 115008, Note_on_c, 0, 79, 100
9, 115103, Note_on_c, 0, 79, 0
9, 115200, Note_on_c, 0, 79, 100
9, 115391, Note_on_c, 0, 79, 0
9, 116352, Note_on_c, 0, 79, 100
9, 116544, Note_on_c, 0, 67, 100
9, 116735, Note_on_c, 0, 67, 0
9, 117119, Note_on_c, 0, 79, 0
9, 117504, Note_on_c, 0, 79, 100
9, 117504, Note_on_c, 0, 55, 100
9, 117695, Note_on_c, 0, 55, 0
9, 117884, Note_on_c, 0, 79, 0
9, 117888, Note_on_c, 0, 67, 100
9, 118080, Note_on_c, 0, 79, 100
9, 118080, Note_on_c, 0, 55, 100
9, 118175, Note_on_c, 0, 79, 0
9, 118268, Note_on_c, 0, 67, 0
9, 118271, Note_on_c, 0, 55, 0
9, 118464, Note_on_c, 0, 67, 100
9, 118559, Note_on_c, 0, 67, 0
9, 119424, Note_on_c, 0, 55, 100
9, 119615, Note_on_c, 0, 55, 0
9, 120000, Note_on_c, 0, 55, 100
9, 120191, Note_on_c, 0, 55, 0
9, 120576, Note_on_c, 0, 55, 100
9, 120767, Note_on_c, 0, 55, 0
9, 120960, Note_on_c, 0, 55, 100
9, 121152, Note_on_c, 0, 43, 100
9, 121343, Note_on_c, 0, 43, 0
9, 121727, Note_on_c, 0, 55, 0
9, 122112, Note_on_c, 0, 67, 100
9, 122112, Note_on_c, 0, 55, 100
9, 122304, Note_on_c, 0, 43, 100
9, 122492, Note_on_c, 0, 67, 0
9, 122495, Note_on_c, 0, 43, 0
9, 122687, Note_on_c, 0, 55, 0
9, 122688, Note_on_c, 0, 55, 100
9, 122879, Note_on_c, 0, 55, 0
9, 123072, Note_on_c, 0, 55, 100
9, 123167, Note_on_c, 0, 55, 0
9, 123936, Note_on_c, 0, 55, 100
9, 124031, Note_on_c, 0, 55, 0
9, 124800, Note_on_c, 0, 55, 100
9, 125567, Note_on_c, 0, 55, 0
9, 125952, Note_on_c, 0, 55, 100
9, 126144, Note_on_c, 0, 43, 100
9, 126332, Note_on_c, 0, 55, 0
9, 126335, Note_on_c, 0, 43, 0
9, 126528, Note_on_c, 0, 55, 100
9, 126719, Note_on_c, 0, 55, 0
9, 126912, Note_on_c, 0, 55, 100
9, 127007, Note_on_c, 0, 55, 0
9, 127488, Note_on_c, 0, 55, 100
9, 127668, Note_on_c, 0, 55, 0
9, 128160, Note_on_c, 0, 67, 100
9, 128255, Note_on_c, 0, 67, 0
9, 128640, Note_on_c, 0, 67, 100
9, 128640, Note_on_c, 0, 55, 100
9, 128831, Note_on_c, 0, 55, 0
9, 128831, Note_on_c, 0, 67, 0
9, 128832, Note_on_c, 0, 55, 100
9, 129023, Note_on_c, 0, 55, 0
9, 129216, Note_on_c, 0, 55, 100
9, 129407, Note_on_c, 0, 55, 0
9, 129408, Note_on_c, 0, 67, 100
9, 129598, Note_on_c, 0, 67, 0
9, 129600, Note_on_c, 0, 67, 100
9, 130175, Note_on_c, 0, 67, 0
9, 130560, Note_on_c, 0, 67, 100
9, 130560, Note_on_c, 0, 43, 100
9, 130750, Note_on_c, 0, 67, 0
9, 130752, Note_on_c, 0, 67, 100
9, 130940, Note_on_c, 0, 43, 0
9, 130972, Note_on_c, 0, 67, 0
9, 131136, Note_on_c, 0, 55, 100
9, 131327, Note_on_c, 0, 55, 0
9, 131520, Note_on_c, 0, 67, 100
9, 131520, Note_on_c, 0, 55, 100
9, 131615, Note_on_c, 0, 55, 0
9, 131711, Note_on_c, 0, 67, 0
9, 131904, Note_on_c, 0, 67, 100
9, 131999, Note_on_c, 0, 67, 0
9, 132096, Note_on_c, 0, 67, 100
9, 132287, Note_on_c, 0, 67, 0
9, 132384, Note_on_c, 0, 55, 100
9, 132479, Note_on_c, 0, 55, 0
9, 132672, Note_on_c, 0, 55, 100
9, 132863, Note_on_c, 0, 55, 0
9, 134304, Note_on_c, 0, 79, 100
9, 134399, Note_on_c, 0, 79, 0
9, 135456, Note_on_c, 0, 67, 100
9, 135551, Note_on_c, 0, 67, 0
9, 137472, Note_on_c, 0, 43, 100
9, 137663, Note_on_c, 0, 43, 0
9, 137856, Note_on_c, 0, 55, 100
9, 138047, Note_on_c, 0, 55, 0
9, 138432, Note_on_c, 0, 55, 100
9, 138432, Note_on_c, 0, 43, 100
9, 138527, Note_on_c, 0, 43, 0
9, 138623, Note_on_c, 0, 55, 0
9, 138816, Note_on_c, 0, 55, 100
9, 138911, Note_on_c, 0, 55, 0
9, 139008, Note_on_c, 0, 55, 100
9, 139199, Note_on_c, 0, 55, 0
9, 139296, Note_on_c, 0, 43, 100
9, 139391, Note_on_c, 0, 43, 0
9, 139584, Note_on_c, 0, 43, 100
9, 139775, Note_on_c, 0, 43, 0
9, 140832, Note_on_c, 0, 55, 100
9, 140927, Note_on_c, 0, 55, 0
9, 141120, Note_on_c, 0, 55, 100
9, 141311, Note_on_c, 0, 55, 0
9, 142080, Note_on_c, 0, 55, 100
9, 142271, Note_on_c, 0, 55, 0
9, 142368, Note_on_c, 0, 67, 100
9, 142463, Note_on_c, 0, 67, 0
9, 142656, Note_on_c, 0, 67, 100
9, 142847, Note_on_c, 0, 67, 0
9, 143616, Note_on_c, 0, 55, 100
9, 143712, Note_on_c, 0, 67, 100
9, 143807, Note_on_c, 0, 67, 0
9, 143807, Note_on_c, 0, 55, 0
9, 143904, Note_on_c, 0, 67, 100
9, 143999, Note_on_c, 0, 67, 0
9, 144096, Note_on_c, 0, 67, 100
9, 144191, Note_on_c, 0, 67, 0
9, 144288, Note_on_c, 0, 67, 100
9, 144383, Note_on_c, 0, 67, 0
9, 145152, Note_on_c, 0, 67, 100
9, 145532, Note_on_c, 0, 67, 0
9, 146688, Note_on_c, 0, 43, 100
9, 146879, Note_on_c, 0, 43, 0
9, 146976, Note_on_c, 0, 67, 100
9, 147071, Note_on_c, 0, 67, 0
9, 147264, Note_on_c, 0, 67, 100
9, 147455, Note_on_c, 0, 67, 0
9, 148224, Note_on_c, 0, 67, 100
9, 148415, Note_on_c, 0, 67, 0
9, 148512, Note_on_c, 0, 79, 100
9, 148607, Note_on_c, 0, 79, 0
9, 148896, Note_on_c, 0, 67, 100
9, 148991, Note_on_c, 0, 67, 0
9, 149376, Note_on_c, 0, 79, 100
9, 149568, Note_on_c, 0, 67, 100
9, 149663, Note_on_c, 0, 67, 0
9, 150143, Note_on_c, 0, 79, 0
9, 150528, Note_on_c, 0, 67, 100
9, 150624, Note_on_c, 0, 55, 100
9, 150719, Note_on_c, 0, 55, 0
9, 151200, Note_on_c, 0, 55, 100
9, 151295, Note_on_c, 0, 55, 0
9, 151295, Note_on_c, 0, 67, 0
9, 151488, Note_on_c, 0, 55, 100
9, 151583, Note_on_c, 0, 55, 0
9, 152064, Note_on_c, 0, 55, 100
9, 152159, Note_on_c, 0, 55, 0
9, 152352, Note_on_c, 0, 55, 100
9, 152447, Note_on_c, 0, 55, 0
9, 153216, Note_on_c, 0, 55, 100
9, 153695, Note_on_c, 0, 55, 0
9, 153888, Note_on_c, 0, 55, 100
9, 153983, Note_on_c, 0, 55, 0
9, 154560, Note_on_c, 0, 67, 100
9, 154655, Note_on_c, 0, 67, 0
9, 154752, Note_on_c, 0, 67, 100
9, 155327, Note_on_c, 0, 67, 0
9, 155904, Note_on_c, 0, 55, 100
9, 156479, Note_on_c, 0, 55, 0
9, 157440, Note_on_c, 0, 55, 100
9, 157632, Note_on_c, 0, 67, 100
9, 157727, Note_on_c, 0, 67, 0
9, 157920, Note_on_c, 0, 55, 0
9, 158496, Note_on_c, 0, 67, 100
9, 158591, Note_on_c, 0, 67, 0
9, 159360, Note_on_c, 0, 67, 100
9, 159504, Note_on_c, 0, 67, 0
9, 159552, Note_on_c, 0, 79, 100
9, 159647, Note_on_c, 0, 79, 0
9, 160416, Note_on_c, 0, 79, 100
9, 160511, Note_on_c, 0, 79, 0
9, 160816, Note_on_c, 0, 67, 100
9, 160911, Note_on_c, 0, 67, 0
9, 162384, Note_on_c, 0, 67, 100
9, 162479, Note_on_c, 0, 67, 0
9, 163264, Note_on_c, 0, 79, 100
9, 163454, Note_on_c, 0, 79, 0
9, 163552, Note_on_c, 0, 79, 100
9, 163654, Note_on_c, 0, 79, 0
9, 164440, Note_on_c, 0, 67, 100
9, 164728, Note_on_c, 0, 43, 100
9, 164823, Note_on_c, 0, 43, 0
9, 164823, Note_on_c, 0, 67, 0
9, 165016, Note_on_c, 0, 43, 100
9, 165207, Note_on_c, 0, 43, 0
9, 165976, Note_on_c, 0, 55, 100
9, 166264, Note_on_c, 0, 67, 100
9, 166359, Note_on_c, 0, 67, 0
9, 166359, Note_on_c, 0, 55, 0
9, 166552, Note_on_c, 0, 67, 100
9, 166743, Note_on_c, 0, 67, 0
9, 168696, Note_on_c, 0, 67, 100
9, 168888, Note_on_c, 0, 43, 100
9, 169079, Note_on_c, 0, 43, 0
9, 169463, Note_on_c, 0, 67, 0
9, 169848, Note_on_c, 0, 55, 100
9, 170039, Note_on_c, 0, 55, 0
9, 170808, Note_on_c, 0, 55, 100
9, 170903, Note_on_c, 0, 55, 0
9, 171384, Note_on_c, 0, 55, 100
9, 171672, Note_on_c, 0, 43, 100
9, 171767, Note_on_c, 0, 43, 0
9, 171767, Note_on_c, 0, 55, 0
9, 171960, Note_on_c, 0, 43, 100
9, 172151, Note_on_c, 0, 43, 0
9, 175056, Note_on_c, 0, 55, 100
9, 175151, Note_on_c, 0, 55, 0
9, 175728, Note_on_c, 0, 55, 100
9, 175823, Note_on_c, 0, 55, 0
9, 176016, Note_on_c, 0, 55, 100
9, 176396, Note_on_c, 0, 55, 0
9, 177668, Note_on_c, 0, 55, 100
9, 177763, Note_on_c, 0, 55, 0
9, 181128, Note_on_c, 0, 79, 100
9, 181223, Note_on_c, 0, 79, 0
9, 181992, Note_on_c, 0, 67, 100
9, 182087, Note_on_c, 0, 67, 0
9, 182664, Note_on_c, 0, 67, 100
9, 182759, Note_on_c, 0, 67, 0
9, 184008, Note_on_c, 0, 43, 100
9, 184103, Note_on_c, 0, 43, 0
9, 184392, Note_on_c, 0, 55, 100
9, 184487, Note_on_c, 0, 55, 0
9, 184896, Note_on_c, 0, 55, 100
9, 185296, Note_on_c, 0, 67, 100
9, 185391, Note_on_c, 0, 67, 0
9, 185600, Note_on_c, 0, 67, 100
9, 186078, Note_on_c, 0, 67, 0
9, 186096, Note_on_c, 0, 79, 100
9, 186304, Note_on_c, 0, 67, 100
9, 186376, Note_on_c, 0, 79, 0
9, 186426, Note_on_c, 0, 55, 0
9, 186448, Note_on_c, 0, 67, 0
9, 186448, Note_on_c, 0, 79, 100
9, 186928, Note_on_c, 0, 67, 100
9, 187034, Note_on_c, 0, 79, 0
9, 187046, Note_on_c, 0, 67, 0
9, 187064, Note_on_c, 0, 55, 100
9, 187447, Note_on_c, 0, 55, 0
9, 187864, Note_on_c, 0, 55, 100
9, 187959, Note_on_c, 0, 55, 0
9, 188152, Note_on_c, 0, 55, 100
9, 188247, Note_on_c, 0, 55, 0
9, 192789, Note_on_c, 0, 67, 100
9, 192895, Note_on_c, 0, 67, 0
9, 193130, Note_on_c, 0, 67, 100
9, 193185, Note_on_c, 0, 67, 0
9, 193536, Note_on_c, 0, 67, 100
9, 193599, Note_on_c, 0, 67, 0
9, 193664, Note_on_c, 0, 55, 100
9, 193664, Note_on_c, 0, 43, 100
9, 193876, Note_on_c, 0, 67, 100
9, 194144, Note_on_c, 0, 43, 0
9, 194144, Note_on_c, 0, 55, 0
9, 194490, Note_on_c, 0, 55, 100
9, 194556, Note_on_c, 0, 55, 0
9, 194643, Note_on_c, 0, 67, 0
9, 195008, Note_on_c, 0, 43, 100
9, 195071, Note_on_c, 0, 43, 0
9, 195872, Note_on_c, 0, 67, 100
9, 195992, Note_on_c, 0, 67, 0
9, 196512, Note_on_c, 0, 55, 100
9, 196607, Note_on_c, 0, 55, 0
9, 198144, Note_on_c, 0, 67, 100
9, 198144, Note_on_c, 0, 55, 100
9, 198624, Note_on_c, 0, 55, 0
9, 198624, Note_on_c, 0, 67, 0
9, 198720, Note_on_c, 0, 67, 100
9, 198720, Note_on_c, 0, 55, 100
9, 198911, Note_on_c, 0, 55, 0
9, 198911, Note_on_c, 0, 67, 0
9, 198912, Note_on_c, 0, 67, 100
9, 199392, Note_on_c, 0, 67, 0
9, 199488, Note_on_c, 0, 67, 100
9, 199678, Note_on_c, 0, 67, 0
9, 201216, Note_on_c, 0, 67, 100
9, 201696, Note_on_c, 0, 67, 0
9, 201792, Note_on_c, 0, 67, 100
9, 201983, Note_on_c, 0, 67, 0
9, 201984, Note_on_c, 0, 67, 100
9, 202464, Note_on_c, 0, 67, 0
9, 202560, Note_on_c, 0, 67, 100
9, 202751, Note_on_c, 0, 67, 0
9, 211200, Note_on_c, 0, 79, 100
9, 211680, Note_on_c, 0, 79, 0
9, 211776, Note_on_c, 0, 79, 100
9, 211966, Note_on_c, 0, 79, 0
9, 211968, Note_on_c, 0, 79, 100
9, 212159, Note_on_c, 0, 79, 0
9, 212736, Note_on_c, 0, 67, 100
9, 212736, Note_on_c, 0, 55, 100
9, 213016, Note_on_c, 0, 67, 0
9, 213120, Note_on_c, 0, 67, 100
9, 213215, Note_on_c, 0, 67, 0
9, 213216, Note_on_c, 0, 55, 0
9, 213312, Note_on_c, 0, 67, 100
9, 213312, Note_on_c, 0, 55, 100
9, 213407, Note_on_c, 0, 67, 0
9, 213408, Note_on_c, 0, 67, 100
9, 213503, Note_on_c, 0, 67, 0
9, 213503, Note_on_c, 0, 55, 0
9, 213504, Note_on_c, 0, 67, 100
9, 213504, Note_on_c, 0, 55, 100
9, 213598, Note_on_c, 0, 67, 0
9, 213600, Note_on_c, 0, 67, 100
9, 213695, Note_on_c, 0, 67, 0
9, 213696, Note_on_c, 0, 67, 100
9, 213886, Note_on_c, 0, 67, 0
9, 213984, Note_on_c, 0, 55, 0
9, 214080, Note_on_c, 0, 67, 100
9, 214080, Note_on_c, 0, 55, 100
9, 214270, Note_on_c, 0, 55, 0
9, 214271, Note_on_c, 0, 67, 0
9, 215808, Note_on_c, 0, 67, 100
9, 215808, Note_on_c, 0, 55, 100
9, 215998, Note_on_c, 0, 67, 0
9, 216096, Note_on_c, 0, 67, 100
9, 216191, Note_on_c, 0, 67, 0
9, 216192, Note_on_c, 0, 67, 100
9, 216288, Note_on_c, 0, 55, 0
9, 216384, Note_on_c, 0, 55, 100
9, 216472, Note_on_c, 0, 67, 0
9, 216480, Note_on_c, 0, 67, 100
9, 216575, Note_on_c, 0, 67, 0
9, 216575, Note_on_c, 0, 55, 0
9, 216576, Note_on_c, 0, 67, 100
9, 216671, Note_on_c, 0, 67, 0
9, 216672, Note_on_c, 0, 67, 100
9, 216767, Note_on_c, 0, 67, 0
9, 216864, Note_on_c, 0, 67, 100
9, 216959, Note_on_c, 0, 67, 0
9, 216960, Note_on_c, 0, 67, 100
9, 217240, Note_on_c, 0, 67, 0
9, 217248, Note_on_c, 0, 67, 100
9, 217343, Note_on_c, 0, 67, 0
9, 217928, Note_on_c, 0, 67, 100
9, 217928, Note_on_c, 0, 55, 100
9, 218023, Note_on_c, 0, 55, 0
9, 218118, Note_on_c, 0, 67, 0
9, 218120, Note_on_c, 0, 67, 100
9, 218215, Note_on_c, 0, 67, 0
9, 218216, Note_on_c, 0, 67, 100
9, 218311, Note_on_c, 0, 67, 0
9, 218408, Note_on_c, 0, 67, 100
9, 218503, Note_on_c, 0, 67, 0
9, 222736, Note_on_c, 0, 67, 100
9, 222831, Note_on_c, 0, 67, 0
9, 222832, Note_on_c, 0, 67, 100
9, 222927, Note_on_c, 0, 67, 0
9, 223024, Note_on_c, 0, 67, 100
9, 223119, Note_on_c, 0, 67, 0
9, 223120, Note_on_c, 0, 67, 100
9, 223400, Note_on_c, 0, 67, 0
9, 223408, Note_on_c, 0, 67, 100
9, 223503, Note_on_c, 0, 67, 0
9, 223504, Note_on_c, 0, 67, 100
9, 223599, Note_on_c, 0, 67, 0
9, 223600, Note_on_c, 0, 67, 100
9, 223695, Note_on_c, 0, 67, 0
9, 223792, Note_on_c, 0, 67, 100
9, 223887, Note_on_c, 0, 67, 0
9, 223888, Note_on_c, 0, 67, 100
9, 224168, Note_on_c, 0, 67, 0
9, 224176, Note_on_c, 0, 67, 100
9, 224271, Note_on_c, 0, 67, 0
9, 225177, Note_on_c, 0, 55, 100
9, 225264, Note_on_c, 0, 55, 0
9, 232984, Note_on_c, 0, 67, 100
9, 233079, Note_on_c, 0, 67, 0
9, 234424, Note_on_c, 0, 55, 100
9, 234615, Note_on_c, 0, 55, 0
9, 235288, Note_on_c, 0, 55, 100
9, 235383, Note_on_c, 0, 55, 0
9, 236728, Note_on_c, 0, 79, 100
9, 236919, Note_on_c, 0, 79, 0
9, 237592, Note_on_c, 0, 79, 100
9, 237687, Note_on_c, 0, 79, 0
9, 238072, Note_on_c, 0, 79, 100
9, 238264, Note_on_c, 0, 55, 100
9, 238452, Note_on_c, 0, 79, 0
9, 238455, Note_on_c, 0, 55, 0
9, 238648, Note_on_c, 0, 79, 100
9, 238743, Note_on_c, 0, 79, 0
9, 239992, Note_on_c, 0, 79, 100
9, 240183, Note_on_c, 0, 79, 0
9, 240184, Note_on_c, 0, 55, 100
9, 240375, Note_on_c, 0, 55, 0
9, 240568, Note_on_c, 0, 79, 100
9, 240759, Note_on_c, 0, 79, 0
9, 241528, Note_on_c, 0, 55, 100
9, 241719, Note_on_c, 0, 55, 0
9, 242104, Note_on_c, 0, 55, 100
9, 242295, Note_on_c, 0, 55, 0
9, 242488, Note_on_c, 0, 79, 100
9, 242679, Note_on_c, 0, 79, 0
9, 243064, Note_on_c, 0, 79, 100
9, 243255, Note_on_c, 0, 79, 0
9, 243352, Note_on_c, 0, 55, 100
9, 243447, Note_on_c, 0, 55, 0
9, 243640, Note_on_c, 0, 55, 100
9, 243735, Note_on_c, 0, 55, 0
9, 243832, Note_on_c, 0, 55, 100
9, 244023, Note_on_c, 0, 55, 0
9, 244792, Note_on_c, 0, 55, 100
9, 244983, Note_on_c, 0, 55, 0
9, 245656, Note_on_c, 0, 67, 100
9, 245751, Note_on_c, 0, 67, 0
9, 247096, Note_on_c, 0, 67, 100
9, 247287, Note_on_c, 0, 67, 0
9, 247960, Note_on_c, 0, 79, 100
9, 248055, Note_on_c, 0, 79, 0
9, 251704, Note_on_c, 0, 67, 100
9, 251895, Note_on_c, 0, 67, 0
9, 252568, Note_on_c, 0, 55, 100
9, 252663, Note_on_c, 0, 55, 0
9, 253816, Note_on_c, 0, 67, 100
9, 254008, Note_on_c, 0, 55, 100
9, 254199, Note_on_c, 0, 55, 0
9, 254391, Note_on_c, 0, 67, 0
9, 254392, Note_on_c, 0, 67, 100
9, 254583, Note_on_c, 0, 67, 0
9, 254872, Note_on_c, 0, 55, 100
9, 254967, Note_on_c, 0, 55, 0
9, 255352, Note_on_c, 0, 67, 100
9, 255447, Note_on_c, 0, 67, 0
9, 255544, Note_on_c, 0, 43, 100
9, 255640, Note_on_c, 0, 67, 100
9, 255735, Note_on_c, 0, 67, 0
9, 255735, Note_on_c, 0, 43, 0
9, 255928, Note_on_c, 0, 55, 100
9, 256023, Note_on_c, 0, 55, 0
9, 256600, Note_on_c, 0, 67, 100
9, 256695, Note_on_c, 0, 67, 0
9, 257656, Note_on_c, 0, 43, 100
9, 257847, Note_on_c, 0, 43, 0
9, 258712, Note_on_c, 0, 67, 100
9, 258807, Note_on_c, 0, 67, 0
9, 259768, Note_on_c, 0, 43, 100
9, 259959, Note_on_c, 0, 43, 0
9, 259960, Note_on_c, 0, 67, 100
9, 260151, Note_on_c, 0, 67, 0
9, 261016, Note_on_c, 0, 67, 100
9, 261111, Note_on_c, 0, 67, 0
9, 261496, Note_on_c, 0, 67, 100
9, 261876, Note_on_c, 0, 67, 0
9, 261880, Note_on_c, 0, 55, 100
9, 262071, Note_on_c, 0, 55, 0
9, 262456, Note_on_c, 0, 55, 100
9, 262647, Note_on_c, 0, 55, 0
9, 262936, Note_on_c, 0, 67, 100
9, 263031, Note_on_c, 0, 67, 0
9, 263800, Note_on_c, 0, 55, 100
9, 264183, Note_on_c, 0, 55, 0
9, 264376, Note_on_c, 0, 67, 100
9, 264567, Note_on_c, 0, 67, 0
9, 269560, Note_on_c, 0, 55, 100
9, 269751, Note_on_c, 0, 55, 0
9, 270136, Note_on_c, 0, 55, 100
9, 270327, Note_on_c, 0, 55, 0
9, 270328, Note_on_c, 0, 79, 100
9, 271095, Note_on_c, 0, 79, 0
9, 272824, Note_on_c, 0, 55, 100
9, 273015, Note_on_c, 0, 55, 0
9, 276472, Note_on_c, 0, 67, 100
9, 277022, Note_on_c, 0, 67, 0
9, 277048, Note_on_c, 0, 67, 100
9, 277239, Note_on_c, 0, 67, 0
9, 277624, Note_on_c, 0, 67, 100
9, 278154, Note_on_c, 0, 67, 0
9, 278200, Note_on_c, 0, 43, 100
9, 278200, Note_on_c, 0, 67, 100
9, 278391, Note_on_c, 0, 67, 0
9, 278391, Note_on_c, 0, 43, 0
9, 278392, Note_on_c, 0, 67, 100
9, 278583, Note_on_c, 0, 67, 0
9, 280984, Note_on_c, 0, 67, 100
9, 281079, Note_on_c, 0, 67, 0
9, 284344, Note_on_c, 0, 79, 100
9, 284439, Note_on_c, 0, 79, 0
9, 284824, Note_on_c, 0, 67, 100
9, 284919, Note_on_c, 0, 67, 0
9, 285208, Note_on_c, 0, 79, 100
9, 285303, Note_on_c, 0, 79, 0
9, 285688, Note_on_c, 0, 79, 100
9, 286071, Note_on_c, 0, 79, 0
9, 286264, Note_on_c, 0, 67, 100
9, 286455, Note_on_c, 0, 67, 0
9, 287128, Note_on_c, 0, 79, 100
9, 287223, Note_on_c, 0, 79, 0
9, 287608, Note_on_c, 0, 67, 100
9, 287800, Note_on_c, 0, 55, 100
9, 287800, Note_on_c, 0, 79, 100
9, 287895, Note_on_c, 0, 79, 0
9, 287988, Note_on_c, 0, 67, 0
9, 287991, Note_on_c, 0, 55, 0
9, 288184, Note_on_c, 0, 67, 100
9, 288279, Note_on_c, 0, 67, 0
9, 288664, Note_on_c, 0, 67, 100
9, 288759, Note_on_c, 0, 67, 0
9, 289720, Note_on_c, 0, 67, 100
9, 289815, Note_on_c, 0, 67, 0
9, 289912, Note_on_c, 0, 55, 100
9, 290103, Note_on_c, 0, 55, 0
9, 290872, Note_on_c, 0, 55, 100
9, 291063, Note_on_c, 0, 55, 0
9, 291448, Note_on_c, 0, 55, 100
9, 291639, Note_on_c, 0, 55, 0
9, 291736, Note_on_c, 0, 67, 100
9, 291831, Note_on_c, 0, 67, 0
9, 292216, Note_on_c, 0, 55, 100
9, 292216, Note_on_c, 0, 67, 100
9, 292311, Note_on_c, 0, 67, 0
9, 292407, Note_on_c, 0, 55, 0
9, 292408, Note_on_c, 0, 67, 100
9, 292503, Note_on_c, 0, 67, 0
9, 292984, Note_on_c, 0, 55, 100
9, 293175, Note_on_c, 0, 55, 0
9, 294040, Note_on_c, 0, 43, 100
9, 294135, Note_on_c, 0, 43, 0
9, 295480, Note_on_c, 0, 67, 100
9, 295671, Note_on_c, 0, 67, 0
9, 296344, Note_on_c, 0, 67, 100
9, 296439, Note_on_c, 0, 67, 0
9, 296824, Note_on_c, 0, 67, 100
9, 296919, Note_on_c, 0, 67, 0
9, 297016, Note_on_c, 0, 43, 100
9, 297112, Note_on_c, 0, 67, 100
9, 297207, Note_on_c, 0, 67, 0
9, 297207, Note_on_c, 0, 43, 0
9, 297400, Note_on_c, 0, 67, 100
9, 297591, Note_on_c, 0, 67, 0
9, 297688, Note_on_c, 0, 67, 100
9, 297783, Note_on_c, 0, 67, 0
9, 298936, Note_on_c, 0, 43, 100
9, 299127, Note_on_c, 0, 43, 0
9, 304120, Note_on_c, 0, 67, 100
9, 304695, Note_on_c, 0, 67, 0
9, 304696, Note_on_c, 0, 67, 100
9, 304887, Note_on_c, 0, 67, 0
9, 305464, Note_on_c, 0, 67, 100
9, 305655, Note_on_c, 0, 67, 0
9, 305656, Note_on_c, 0, 67, 100
9, 305848, Note_on_c, 0, 55, 100
9, 306039, Note_on_c, 0, 55, 0
9, 306231, Note_on_c, 0, 67, 0
9, 306232, Note_on_c, 0, 67, 100
9, 306423, Note_on_c, 0, 67, 0
9, 307576, Note_on_c, 0, 55, 100
9, 307767, Note_on_c, 0, 55, 0
9, 307960, Note_on_c, 0, 55, 100
9, 308151, Note_on_c, 0, 55, 0
9, 308536, Note_on_c, 0, 55, 100
9, 308631, Note_on_c, 0, 55, 0
9, 309016, Note_on_c, 0, 55, 100
9, 309111, Note_on_c, 0, 55, 0
9, 309496, Note_on_c, 0, 55, 100
9, 309591, Note_on_c, 0, 55, 0
9, 309784, Note_on_c, 0, 55, 100
9, 309879, Note_on_c, 0, 55, 0
9, 309880, Note_on_c, 0, 67, 100
9, 310455, Note_on_c, 0, 67, 0
9, 310456, Note_on_c, 0, 67, 100
9, 310647, Note_on_c, 0, 67, 0
9, 311032, Note_on_c, 0, 55, 100
9, 311223, Note_on_c, 0, 55, 0
9, 311224, Note_on_c, 0, 67, 100
9, 311319, Note_on_c, 0, 67, 0
9, 311608, Note_on_c, 0, 55, 100
9, 311799, Note_on_c, 0, 55, 0
9, 311992, Note_on_c, 0, 67, 100
9, 312087, Note_on_c, 0, 67, 0
9, 312568, Note_on_c, 0, 67, 100
9, 312760, Note_on_c, 0, 43, 100
9, 312948, Note_on_c, 0, 67, 0
9, 312951, Note_on_c, 0, 43, 0
9, 312952, Note_on_c, 0, 55, 100
9, 313144, Note_on_c, 0, 67, 100
9, 313335, Note_on_c, 0, 67, 0
9, 313719, Note_on_c, 0, 55, 0
9, 314488, Note_on_c, 0, 55, 100
9, 314868, Note_on_c, 0, 55, 0
9, 315064, Note_on_c, 0, 67, 100
9, 315255, Note_on_c, 0, 67, 0
9, 315256, Note_on_c, 0, 79, 100
9, 315448, Note_on_c, 0, 67, 100
9, 315639, Note_on_c, 0, 67, 0
9, 316023, Note_on_c, 0, 79, 0
9, 316792, Note_on_c, 0, 79, 100
9, 317367, Note_on_c, 0, 79, 0
9, 317368, Note_on_c, 0, 55, 100
9, 317558, Note_on_c, 0, 55, 0
9, 317560, Note_on_c, 0, 67, 100
9, 317752, Note_on_c, 0, 55, 100
9, 317943, Note_on_c, 0, 55, 0
9, 317943, Note_on_c, 0, 67, 0
9, 317944, Note_on_c, 0, 67, 100
9, 318327, Note_on_c, 0, 67, 0
9, 319480, Note_on_c, 0, 67, 100
9, 319860, Note_on_c, 0, 67, 0
9, 319864, Note_on_c, 0, 55, 100
9, 320055, Note_on_c, 0, 55, 0
9, 320920, Note_on_c, 0, 55, 100
9, 321015, Note_on_c, 0, 55, 0
9, 321784, Note_on_c, 0, 67, 100
9, 321976, Note_on_c, 0, 55, 100
9, 322071, Note_on_c, 0, 55, 0
9, 322164, Note_on_c, 0, 67, 0
9, 322360, Note_on_c, 0, 55, 100
9, 322551, Note_on_c, 0, 55, 0
9, 322936, Note_on_c, 0, 67, 100
9, 323416, Note_on_c, 0, 67, 0
9, 323704, Note_on_c, 0, 43, 100
9, 323704, Note_on_c, 0, 67, 100
9, 323895, Note_on_c, 0, 43, 0
9, 324087, Note_on_c, 0, 67, 0
9, 324088, Note_on_c, 0, 55, 100
9, 324088, Note_on_c, 0, 67, 100
9, 324279, Note_on_c, 0, 55, 0
9, 324468, Note_on_c, 0, 67, 0
9, 324664, Note_on_c, 0, 55, 100
9, 324664, Note_on_c, 0, 67, 100
9, 324855, Note_on_c, 0, 67, 0
9, 324855, Note_on_c, 0, 55, 0
9, 324856, Note_on_c, 0, 67, 100
9, 325239, Note_on_c, 0, 67, 0
9, 325240, Note_on_c, 0, 67, 100
9, 325720, Note_on_c, 0, 67, 0
9, 325816, Note_on_c, 0, 67, 100
9, 326007, Note_on_c, 0, 67, 0
9, 326008, Note_on_c, 0, 67, 100
9, 326391, Note_on_c, 0, 67, 0
9, 326392, Note_on_c, 0, 67, 100
9, 326872, Note_on_c, 0, 67, 0
9, 327160, Note_on_c, 0, 43, 100
9, 327351, Note_on_c, 0, 43, 0
9, 327544, Note_on_c, 0, 43, 100
9, 327735, Note_on_c, 0, 43, 0
9, 328600, Note_on_c, 0, 55, 100
9, 328695, Note_on_c, 0, 55, 0
9, 330040, Note_on_c, 0, 79, 100
9, 330231, Note_on_c, 0, 79, 0
9, 330904, Note_on_c, 0, 67, 100
9, 330999, Note_on_c, 0, 67, 0
9, 332344, Note_on_c, 0, 55, 100
9, 332535, Note_on_c, 0, 55, 0
9, 333208, Note_on_c, 0, 43, 100
9, 333303, Note_on_c, 0, 43, 0
9, 334648, Note_on_c, 0, 67, 100
9, 334839, Note_on_c, 0, 67, 0
9, 335512, Note_on_c, 0, 67, 100
9, 335607, Note_on_c, 0, 67, 0
9, 335992, Note_on_c, 0, 67, 100
9, 336184, Note_on_c, 0, 43, 100
9, 336372, Note_on_c, 0, 67, 0
9, 336375, Note_on_c, 0, 43, 0
9, 336568, Note_on_c, 0, 79, 100
9, 336663, Note_on_c, 0, 79, 0
9, 337912, Note_on_c, 0, 79, 100
9, 338103, Note_on_c, 0, 79, 0
9, 338296, Note_on_c, 0, 55, 100
9, 338487, Note_on_c, 0, 55, 0
9, 338872, Note_on_c, 0, 55, 100
9, 339063, Note_on_c, 0, 55, 0
9, 339256, Note_on_c, 0, 79, 100
9, 339447, Note_on_c, 0, 79, 0
9, 340120, Note_on_c, 0, 43, 100
9, 340215, Note_on_c, 0, 43, 0
9, 340408, Note_on_c, 0, 43, 100
9, 340503, Note_on_c, 0, 43, 0
9, 340600, Note_on_c, 0, 43, 100
9, 340791, Note_on_c, 0, 43, 0
9, 341272, Note_on_c, 0, 79, 100
9, 341367, Note_on_c, 0, 79, 0
9, 341752, Note_on_c, 0, 67, 100
9, 341752, Note_on_c, 0, 79, 100
9, 341847, Note_on_c, 0, 79, 0
9, 341944, Note_on_c, 0, 55, 100
9, 342040, Note_on_c, 0, 79, 100
9, 342135, Note_on_c, 0, 79, 0
9, 342135, Note_on_c, 0, 55, 0
9, 342135, Note_on_c, 0, 67, 0
9, 342136, Note_on_c, 0, 67, 100
9, 342328, Note_on_c, 0, 79, 100
9, 342423, Note_on_c, 0, 79, 0
9, 342616, Note_on_c, 0, 67, 0
9, 342712, Note_on_c, 0, 67, 100
9, 342903, Note_on_c, 0, 67, 0
9, 343000, Note_on_c, 0, 79, 100
9, 343095, Note_on_c, 0, 79, 0
9, 344056, Note_on_c, 0, 55, 100
9, 344247, Note_on_c, 0, 55, 0
9, 344824, Note_on_c, 0, 55, 100
9, 345015, Note_on_c, 0, 55, 0
9, 345016, Note_on_c, 0, 67, 100
9, 345207, Note_on_c, 0, 67, 0
9, 345400, Note_on_c, 0, 79, 100
9, 345495, Note_on_c, 0, 79, 0
9, 345880, Note_on_c, 0, 79, 100
9, 345975, Note_on_c, 0, 79, 0
9, 346360, Note_on_c, 0, 67, 100
9, 346360, Note_on_c, 0, 79, 100
9, 346552, Note_on_c, 0, 55, 100
9, 346743, Note_on_c, 0, 55, 0
9, 346743, Note_on_c, 0, 79, 0
9, 346743, Note_on_c, 0, 67, 0
9, 346744, Note_on_c, 0, 67, 100
9, 346936, Note_on_c, 0, 79, 100
9, 347031, Note_on_c, 0, 79, 0
9, 347128, Note_on_c, 0, 79, 100
9, 347224, Note_on_c, 0, 67, 0
9, 347320, Note_on_c, 0, 67, 100
9, 347508, Note_on_c, 0, 79, 0
9, 347511, Note_on_c, 0, 67, 0
9, 347512, Note_on_c, 0, 67, 100
9, 347703, Note_on_c, 0, 67, 0
9, 347704, Note_on_c, 0, 55, 100
9, 347704, Note_on_c, 0, 67, 100
9, 347895, Note_on_c, 0, 67, 0
9, 347895, Note_on_c, 0, 55, 0
9, 347896, Note_on_c, 0, 67, 100
9, 348088, Note_on_c, 0, 79, 100
9, 348183, Note_on_c, 0, 79, 0
9, 348280, Note_on_c, 0, 79, 100
9, 348416, Note_on_c, 0, 67, 0
9, 348472, Note_on_c, 0, 67, 100
9, 348660, Note_on_c, 0, 79, 0
9, 348663, Note_on_c, 0, 67, 0
9, 348664, Note_on_c, 0, 67, 100
9, 348855, Note_on_c, 0, 67, 0
9, 348856, Note_on_c, 0, 55, 100
9, 348856, Note_on_c, 0, 67, 100
9, 349047, Note_on_c, 0, 67, 0
9, 349047, Note_on_c, 0, 55, 0
9, 349048, Note_on_c, 0, 67, 100
9, 349240, Note_on_c, 0, 79, 100
9, 349335, Note_on_c, 0, 79, 0
9, 349528, Note_on_c, 0, 67, 0
9, 349624, Note_on_c, 0, 79, 100
9, 349815, Note_on_c, 0, 79, 0
9, 351544, Note_on_c, 0, 79, 100
9, 351639, Note_on_c, 0, 79, 0
9, 351928, Note_on_c, 0, 79, 100
9, 352119, Note_on_c, 0, 79, 0
9, 352312, Note_on_c, 0, 79, 100
9, 352503, Note_on_c, 0, 79, 0
9, 352600, Note_on_c, 0, 79, 100
9, 352695, Note_on_c, 0, 79, 0
9, 352792, Note_on_c, 0, 79, 100
9, 352887, Note_on_c, 0, 79, 0
9, 352984, Note_on_c, 0, 79, 100
9, 353079, Note_on_c, 0, 79, 0
9, 353176, Note_on_c, 0, 79, 100
9, 353271, Note_on_c, 0, 79, 0
9, 353368, Note_on_c, 0, 79, 100
9, 353463, Note_on_c, 0, 79, 0
9, 353560, Note_on_c, 0, 79, 100
9, 353655, Note_on_c, 0, 79, 0
9, 353848, Note_on_c, 0, 79, 100
9, 354039, Note_on_c, 0, 79, 0
9, 354040, Note_on_c, 0, 79, 100
9, 354423, Note_on_c, 0, 79, 0
9, 354424, Note_on_c, 0, 79, 100
9, 354487, Note_on_c, 0, 79, 0
9, 354552, Note_on_c, 0, 79, 100
9, 354615, Note_on_c, 0, 79, 0
9, 354712, Note_on_c, 0, 79, 100
9, 354807, Note_on_c, 0, 79, 0
9, 354808, Note_on_c, 0, 43, 100
9, 354808, Note_on_c, 0, 79, 100
9, 354998, Note_on_c, 0, 79, 0
9, 355288, Note_on_c, 0, 43, 0
9, 355384, Note_on_c, 0, 55, 100
9, 355575, Note_on_c, 0, 55, 0
9, 355576, Note_on_c, 0, 67, 100
9, 355766, Note_on_c, 0, 67, 0
9, 355768, Note_on_c, 0, 67, 100
9, 356343, Note_on_c, 0, 67, 0
9, 357112, Note_on_c, 0, 67, 100
9, 357492, Note_on_c, 0, 67, 0
9, 357688, Note_on_c, 0, 55, 100
9, 357879, Note_on_c, 0, 55, 0
9, 357880, Note_on_c, 0, 67, 100
9, 358263, Note_on_c, 0, 67, 0
9, 358264, Note_on_c, 0, 67, 100
9, 358644, Note_on_c, 0, 67, 0
9, 359416, Note_on_c, 0, 67, 100
9, 359796, Note_on_c, 0, 67, 0
9, 359800, Note_on_c, 0, 55, 100
9, 359991, Note_on_c, 0, 55, 0
9, 359992, Note_on_c, 0, 67, 100
9, 360183, Note_on_c, 0, 67, 0
9, 360376, Note_on_c, 0, 67, 100
9, 360471, Note_on_c, 0, 67, 0
9, 360856, Note_on_c, 0, 55, 100
9, 360951, Note_on_c, 0, 55, 0
9, 361336, Note_on_c, 0, 67, 100
9, 361431, Note_on_c, 0, 67, 0
9, 361528, Note_on_c, 0, 43, 100
9, 361624, Note_on_c, 0, 67, 100
9, 361719, Note_on_c, 0, 67, 0
9, 361719, Note_on_c, 0, 43, 0
9, 361912, Note_on_c, 0, 55, 100
9, 362007, Note_on_c, 0, 55, 0
9, 362584, Note_on_c, 0, 67, 100
9, 362679, Note_on_c, 0, 67, 0
9, 368248, Note_on_c, 0, 79, 100
9, 368440, Note_on_c, 0, 55, 100
9, 368628, Note_on_c, 0, 79, 0
9, 368631, Note_on_c, 0, 55, 0
9, 370168, Note_on_c, 0, 79, 100
9, 370360, Note_on_c, 0, 55, 100
9, 370551, Note_on_c, 0, 55, 0
9, 370743, Note_on_c, 0, 79, 0
9, 371128, Note_on_c, 0, 79, 100
9, 371223, Note_on_c, 0, 79, 0
9, 372472, Note_on_c, 0, 79, 100
9, 373047, Note_on_c, 0, 79, 0
9, 373048, Note_on_c, 0, 79, 100
9, 373239, Note_on_c, 0, 79, 0
9, 373240, Note_on_c, 0, 79, 100
9, 373431, Note_on_c, 0, 79, 0
9, 374008, Note_on_c, 0, 55, 100
9, 374199, Note_on_c, 0, 55, 0
9, 374392, Note_on_c, 0, 67, 100
9, 374775, Note_on_c, 0, 67, 0
9, 374776, Note_on_c, 0, 67, 100
9, 375351, Note_on_c, 0, 67, 0
9, 375352, Note_on_c, 0, 55, 100
9, 375352, Note_on_c, 0, 67, 100
9, 375543, Note_on_c, 0, 67, 0
9, 375543, Note_on_c, 0, 55, 0
9, 376216, Note_on_c, 0, 79, 100
9, 376311, Note_on_c, 0, 79, 0
9, 376696, Note_on_c, 0, 79, 100
9, 376791, Note_on_c, 0, 79, 0
9, 376888, Note_on_c, 0, 67, 100
9, 376983, Note_on_c, 0, 67, 0
9, 377080, Note_on_c, 0, 79, 100
9, 377175, Note_on_c, 0, 79, 0
9, 377272, Note_on_c, 0, 67, 100
9, 377367, Note_on_c, 0, 67, 0
9, 377464, Note_on_c, 0, 79, 100
9, 377559, Note_on_c, 0, 79, 0
9, 377656, Note_on_c, 0, 67, 100
9, 377751, Note_on_c, 0, 67, 0
9, 377848, Note_on_c, 0, 79, 100
9, 377943, Note_on_c, 0, 79, 0
9, 378232, Note_on_c, 0, 79, 100
9, 378327, Note_on_c, 0, 79, 0
9, 378616, Note_on_c, 0, 79, 100
9, 378711, Note_on_c, 0, 79, 0
9, 380152, Note_on_c, 0, 55, 100
9, 380343, Note_on_c, 0, 55, 0
9, 380536, Note_on_c, 0, 55, 100
9, 380727, Note_on_c, 0, 55, 0
9, 380920, Note_on_c, 0, 55, 100
9, 381111, Note_on_c, 0, 55, 0
9, 383608, Note_on_c, 0, 55, 100
9, 383799, Note_on_c, 0, 55, 0
9, 383800, Note_on_c, 0, 67, 100
9, 383800, Note_on_c, 0, 79, 100
9, 383895, Note_on_c, 0, 79, 0
9, 383991, Note_on_c, 0, 67, 0
9, 384184, Note_on_c, 0, 55, 100
9, 384184, Note_on_c, 0, 79, 100
9, 384279, Note_on_c, 0, 79, 0
9, 384375, Note_on_c, 0, 55, 0
9, 384568, Note_on_c, 0, 67, 100
9, 384759, Note_on_c, 0, 67, 0
9, 385048, Note_on_c, 0, 55, 100
9, 385143, Note_on_c, 0, 55, 0
9, 386488, Note_on_c, 0, 79, 100
9, 386679, Note_on_c, 0, 79, 0
9, 387352, Note_on_c, 0, 67, 100
9, 387447, Note_on_c, 0, 67, 0
9, 388216, Note_on_c, 0, 79, 100
9, 388599, Note_on_c, 0, 79, 0
9, 388792, Note_on_c, 0, 67, 100
9, 388983, Note_on_c, 0, 67, 0
9, 389656, Note_on_c, 0, 43, 100
9, 389751, Note_on_c, 0, 43, 0
9, 390520, Note_on_c, 0, 55, 100
9, 390903, Note_on_c, 0, 55, 0
9, 391096, Note_on_c, 0, 67, 100
9, 391287, Note_on_c, 0, 67, 0
9, 391960, Note_on_c, 0, 79, 100
9, 392055, Note_on_c, 0, 79, 0
9, 392440, Note_on_c, 0, 67, 100
9, 392440, Note_on_c, 0, 79, 100
9, 392535, Note_on_c, 0, 79, 0
9, 392632, Note_on_c, 0, 55, 100
9, 392728, Note_on_c, 0, 79, 100
9, 392823, Note_on_c, 0, 79, 0
9, 392823, Note_on_c, 0, 55, 0
9, 392823, Note_on_c, 0, 67, 0
9, 393016, Note_on_c, 0, 79, 100
9, 393111, Note_on_c, 0, 79, 0
9, 393400, Note_on_c, 0, 67, 100
9, 393591, Note_on_c, 0, 67, 0
9, 393688, Note_on_c, 0, 79, 100
9, 393783, Note_on_c, 0, 79, 0
9, 394552, Note_on_c, 0, 55, 100
9, 394743, Note_on_c, 0, 55, 0
9, 395128, Note_on_c, 0, 55, 100
9, 395608, Note_on_c, 0, 55, 0
9, 395704, Note_on_c, 0, 55, 100
9, 395895, Note_on_c, 0, 55, 0
9, 396280, Note_on_c, 0, 55, 100
9, 396760, Note_on_c, 0, 55, 0
9, 396856, Note_on_c, 0, 55, 100
9, 396951, Note_on_c, 0, 55, 0
9, 397048, Note_on_c, 0, 67, 100
9, 397239, Note_on_c, 0, 67, 0
9, 397720, Note_on_c, 0, 67, 100
9, 397815, Note_on_c, 0, 67, 0
9, 398392, Note_on_c, 0, 67, 100
9, 398487, Note_on_c, 0, 67, 0
9, 398488, Note_on_c, 0, 43, 100
9, 398583, Note_on_c, 0, 43, 0
9, 398776, Note_on_c, 0, 67, 100
9, 399159, Note_on_c, 0, 67, 0
9, 399736, Note_on_c, 0, 43, 100
9, 399831, Note_on_c, 0, 43, 0
9, 399928, Note_on_c, 0, 43, 100
9, 400023, Note_on_c, 0, 43, 0
9, 400696, Note_on_c, 0, 67, 100
9, 400791, Note_on_c, 0, 67, 0
9, 400792, Note_on_c, 0, 43, 100
9, 400887, Note_on_c, 0, 43, 0
9, 401176, Note_on_c, 0, 67, 100
9, 401271, Note_on_c, 0, 67, 0
9, 401656, Note_on_c, 0, 67, 100
9, 401752, Note_on_c, 0, 55, 100
9, 401847, Note_on_c, 0, 55, 0
9, 401847, Note_on_c, 0, 67, 0
9, 402424, Note_on_c, 0, 55, 100
9, 402520, Note_on_c, 0, 67, 100
9, 402615, Note_on_c, 0, 67, 0
9, 402615, Note_on_c, 0, 55, 0
9, 402616, Note_on_c, 0, 43, 100
9, 402711, Note_on_c, 0, 43, 0
9, 402808, Note_on_c, 0, 79, 100
9, 402903, Note_on_c, 0, 79, 0
9, 403000, Note_on_c, 0, 43, 100
9, 403191, Note_on_c, 0, 43, 0
9, 403496, Note_on_c, 0, 79, 100
9, 403595, Note_on_c, 0, 79, 0
9, 403903, Note_on_c, 0, 55, 100
9, 404002, Note_on_c, 0, 55, 0
9, 404763, Note_on_c, 0, 79, 100
9, 404868, Note_on_c, 0, 79, 0
9, 405207, Note_on_c, 0, 55, 100
9, 405312, Note_on_c, 0, 55, 0
9, 405540, Note_on_c, 0, 67, 100
9, 405740, Note_on_c, 0, 67, 0
9, 405740, End_track
10, 0, Start_track
10, 0, Title_t, "Harpsichord"
10, 0, Program_c, 0, 6
10, 0, Control_c, 0, 7, 100
10, 0, Control_c, 0, 10, 64
10, 0, Pitch_bend_c, 0, 7870
10, 13067, Note_on_c, 0, 68, 100
10, 13157, Note_on_c, 0, 68, 0
10, 17979, Note_on_c, 0, 44, 100
10, 18546, Note_on_c, 0, 44, 0
10, 20323, Note_on_c, 0, 56, 100
10, 20422, Note_on_c, 0, 56, 0
10, 21617, Note_on_c, 0, 44, 100
10, 21724, Note_on_c, 0, 44, 0
10, 22126, Note_on_c, 0, 68, 100
10, 22256, Note_on_c, 0, 68, 0
10, 27552, Note_on_c, 0, 68, 100
10, 27647, Note_on_c, 0, 68, 0
10, 27648, Note_on_c, 0, 68, 100
10, 28008, Note_on_c, 0, 68, 0
10, 31680, Note_on_c, 0, 56, 100
10, 31871, Note_on_c, 0, 56, 0
10, 33808, Note_on_c, 0, 56, 100
10, 33999, Note_on_c, 0, 56, 0
10, 34288, Note_on_c, 0, 68, 100
10, 34335, Note_on_c, 0, 68, 0
10, 34384, Note_on_c, 0, 68, 100
10, 34479, Note_on_c, 0, 68, 0
10, 41104, Note_on_c, 0, 44, 100
10, 41487, Note_on_c, 0, 44, 0
10, 46774, Note_on_c, 0, 56, 100
10, 47463, Note_on_c, 0, 56, 0
10, 61056, Note_on_c, 0, 68, 100
10, 61439, Note_on_c, 0, 68, 0
10, 62592, Note_on_c, 0, 56, 100
10, 62975, Note_on_c, 0, 56, 0
10, 65280, Note_on_c, 0, 56, 100
10, 65471, Note_on_c, 0, 56, 0
10, 66432, Note_on_c, 0, 56, 100
10, 66812, Note_on_c, 0, 56, 0
10, 67968, Note_on_c, 0, 80, 100
10, 68351, Note_on_c, 0, 80, 0
10, 70656, Note_on_c, 0, 80, 100
10, 70847, Note_on_c, 0, 80, 0
10, 98304, Note_on_c, 0, 56, 100
10, 98495, Note_on_c, 0, 56, 0
10, 115104, Note_on_c, 0, 80, 100
10, 115199, Note_on_c, 0, 80, 0
10, 127008, Note_on_c, 0, 56, 100
10, 127103, Note_on_c, 0, 56, 0
10, 128064, Note_on_c, 0, 68, 100
10, 128159, Note_on_c, 0, 68, 0
10, 133632, Note_on_c, 0, 80, 100
10, 133823, Note_on_c, 0, 80, 0
10, 133920, Note_on_c, 0, 68, 100
10, 134015, Note_on_c, 0, 68, 0
10, 134784, Note_on_c, 0, 68, 100
10, 135164, Note_on_c, 0, 68, 0
10, 135936, Note_on_c, 0, 68, 100
10, 136127, Note_on_c, 0, 68, 0
10, 136512, Note_on_c, 0, 68, 100
10, 136703, Note_on_c, 0, 68, 0
10, 158016, Note_on_c, 0, 56, 100
10, 158207, Note_on_c, 0, 56, 0
10, 161296, Note_on_c, 0, 56, 100
10, 162063, Note_on_c, 0, 56, 0
10, 172944, Note_on_c, 0, 44, 100
10, 174474, Note_on_c, 0, 44, 0
10, 177168, Note_on_c, 0, 56, 100
10, 177608, Note_on_c, 0, 56, 0
10, 182472, Note_on_c, 0, 56, 100
10, 182567, Note_on_c, 0, 56, 0
10, 195792, Note_on_c, 0, 68, 100
10, 195871, Note_on_c, 0, 68, 0
10, 199584, Note_on_c, 0, 68, 100
10, 199679, Note_on_c, 0, 68, 0
10, 199680, Note_on_c, 0, 68, 100
10, 199872, Note_on_c, 0, 80, 100
10, 199967, Note_on_c, 0, 80, 0
10, 200060, Note_on_c, 0, 68, 0
10, 200256, Note_on_c, 0, 68, 100
10, 200446, Note_on_c, 0, 68, 0
10, 200448, Note_on_c, 0, 68, 100
10, 200640, Note_on_c, 0, 80, 100
10, 200735, Note_on_c, 0, 80, 0
10, 200928, Note_on_c, 0, 68, 0
10, 201024, Note_on_c, 0, 68, 100
10, 201214, Note_on_c, 0, 68, 0
10, 202656, Note_on_c, 0, 56, 100
10, 202751, Note_on_c, 0, 56, 0
10, 202752, Note_on_c, 0, 56, 100
10, 202847, Note_on_c, 0, 56, 0
10, 202848, Note_on_c, 0, 56, 100
10, 202943, Note_on_c, 0, 56, 0
10, 203040, Note_on_c, 0, 56, 100
10, 203135, Note_on_c, 0, 56, 0
10, 203136, Note_on_c, 0, 56, 100
10, 203423, Note_on_c, 0, 56, 0
10, 203424, Note_on_c, 0, 56, 100
10, 203519, Note_on_c, 0, 56, 0
10, 205824, Note_on_c, 0, 80, 100
10, 205994, Note_on_c, 0, 80, 0
10, 206112, Note_on_c, 0, 80, 100
10, 206207, Note_on_c, 0, 80, 0
10, 206208, Note_on_c, 0, 80, 100
10, 206488, Note_on_c, 0, 80, 0
10, 206496, Note_on_c, 0, 80, 100
10, 206591, Note_on_c, 0, 80, 0
10, 206592, Note_on_c, 0, 80, 100
10, 206687, Note_on_c, 0, 80, 0
10, 206688, Note_on_c, 0, 80, 100
10, 206783, Note_on_c, 0, 80, 0
10, 206880, Note_on_c, 0, 80, 100
10, 206975, Note_on_c, 0, 80, 0
10, 206976, Note_on_c, 0, 80, 100
10, 207256, Note_on_c, 0, 80, 0
10, 211872, Note_on_c, 0, 68, 100
10, 211967, Note_on_c, 0, 68, 0
10, 211968, Note_on_c, 0, 68, 100
10, 212348, Note_on_c, 0, 68, 0
10, 212544, Note_on_c, 0, 68, 100
10, 212734, Note_on_c, 0, 68, 0
10, 218896, Note_on_c, 0, 56, 100
10, 219376, Note_on_c, 0, 56, 0
10, 219472, Note_on_c, 0, 56, 100
10, 219663, Note_on_c, 0, 56, 0
10, 222352, Note_on_c, 0, 68, 100
10, 222592, Note_on_c, 0, 68, 0
10, 222640, Note_on_c, 0, 68, 100
10, 222735, Note_on_c, 0, 68, 0
10, 226538, Note_on_c, 0, 56, 100
10, 227113, Note_on_c, 0, 56, 0
10, 227256, Note_on_c, 0, 56, 100
10, 227447, Note_on_c, 0, 56, 0
10, 227448, Note_on_c, 0, 56, 100
10, 227734, Note_on_c, 0, 56, 0
10, 227736, Note_on_c, 0, 56, 100
10, 228116, Note_on_c, 0, 56, 0
10, 228120, Note_on_c, 0, 56, 100
10, 228215, Note_on_c, 0, 56, 0
10, 228216, Note_on_c, 0, 56, 100
10, 228887, Note_on_c, 0, 56, 0
10, 228888, Note_on_c, 0, 56, 100
10, 228983, Note_on_c, 0, 56, 0
10, 229644, Note_on_c, 0, 68, 100
10, 229830, Note_on_c, 0, 68, 0
10, 230408, Note_on_c, 0, 56, 100
10, 230529, Note_on_c, 0, 56, 0
10, 248824, Note_on_c, 0, 68, 100
10, 249207, Note_on_c, 0, 68, 0
10, 250360, Note_on_c, 0, 56, 100
10, 250935, Note_on_c, 0, 56, 0
10, 250936, Note_on_c, 0, 56, 100
10, 251127, Note_on_c, 0, 56, 0
10, 253432, Note_on_c, 0, 68, 100
10, 253815, Note_on_c, 0, 68, 0
10, 266104, Note_on_c, 0, 56, 100
10, 266295, Note_on_c, 0, 56, 0
10, 267640, Note_on_c, 0, 80, 100
10, 268215, Note_on_c, 0, 80, 0
10, 268216, Note_on_c, 0, 80, 100
10, 268407, Note_on_c, 0, 80, 0
10, 271864, Note_on_c, 0, 68, 100
10, 272247, Note_on_c, 0, 68, 0
10, 272248, Note_on_c, 0, 56, 100
10, 272439, Note_on_c, 0, 56, 0
10, 273784, Note_on_c, 0, 68, 100
10, 274124, Note_on_c, 0, 68, 0
10, 275704, Note_on_c, 0, 68, 100
10, 276254, Note_on_c, 0, 68, 0
10, 276280, Note_on_c, 0, 68, 100
10, 276471, Note_on_c, 0, 68, 0
10, 279928, Note_on_c, 0, 44, 100
10, 280119, Note_on_c, 0, 44, 0
10, 280312, Note_on_c, 0, 56, 100
10, 280503, Note_on_c, 0, 56, 0
10, 282040, Note_on_c, 0, 56, 100
10, 282231, Note_on_c, 0, 56, 0
10, 283000, Note_on_c, 0, 56, 100
10, 283280, Note_on_c, 0, 56, 0
10, 298360, Note_on_c, 0, 44, 100
10, 298551, Note_on_c, 0, 44, 0
10, 299512, Note_on_c, 0, 56, 100
10, 299895, Note_on_c, 0, 56, 0
10, 301048, Note_on_c, 0, 56, 100
10, 301623, Note_on_c, 0, 56, 0
10, 301624, Note_on_c, 0, 56, 100
10, 301815, Note_on_c, 0, 56, 0
10, 303352, Note_on_c, 0, 68, 100
10, 303927, Note_on_c, 0, 68, 0
10, 303928, Note_on_c, 0, 68, 100
10, 304119, Note_on_c, 0, 68, 0
10, 361432, Note_on_c, 0, 68, 100
10, 361527, Note_on_c, 0, 68, 0
10, 381304, Note_on_c, 0, 56, 100
10, 381495, Note_on_c, 0, 56, 0
10, 381688, Note_on_c, 0, 56, 100
10, 381879, Note_on_c, 0, 56, 0
10, 382072, Note_on_c, 0, 56, 100
10, 382263, Note_on_c, 0, 56, 0
10, 382263, End_track
11, 0, Start_track
11, 0, Title_t, "Harpsichord"
11, 0, Program_c, 0, 6
11, 0, Control_c, 0, 7, 100
11, 0, Control_c, 0, 10, 64
11, 0, Pitch_bend_c, 0, 7712
11, 502, Note_on_c, 0, 57, 100
11, 682, Note_on_c, 0, 57, 0
11, 2361, Note_on_c, 0, 57, 100
11, 2513, Note_on_c, 0, 57, 0
11, 2636, Note_on_c, 0, 57, 100
11, 2726, Note_on_c, 0, 57, 0
11, 3550, Note_on_c, 0, 57, 100
11, 3641, Note_on_c, 0, 45, 100
11, 3654, Note_on_c, 0, 57, 0
11, 3733, Note_on_c, 0, 57, 100
11, 3736, Note_on_c, 0, 45, 0
11, 3837, Note_on_c, 0, 57, 0
11, 3939, Note_on_c, 0, 57, 100
11, 4029, Note_on_c, 0, 57, 0
11, 4487, Note_on_c, 0, 57, 100
11, 4577, Note_on_c, 0, 57, 0
11, 4848, Note_on_c, 0, 57, 100
11, 4914, Note_on_c, 0, 57, 0
11, 5546, Note_on_c, 0, 69, 100
11, 5613, Note_on_c, 0, 57, 100
11, 5681, Note_on_c, 0, 45, 100
11, 5800, Note_on_c, 0, 69, 0
11, 5863, Note_on_c, 0, 45, 0
11, 5867, Note_on_c, 0, 57, 0
11, 6244, Note_on_c, 0, 69, 100
11, 6310, Note_on_c, 0, 69, 0
11, 6728, Note_on_c, 0, 81, 100
11, 6903, Note_on_c, 0, 69, 100
11, 6945, Note_on_c, 0, 69, 0
11, 7033, Note_on_c, 0, 57, 100
11, 7073, Note_on_c, 0, 81, 0
11, 7378, Note_on_c, 0, 57, 0
11, 7649, Note_on_c, 0, 81, 100
11, 7731, Note_on_c, 0, 81, 0
11, 7816, Note_on_c, 0, 81, 100
11, 7891, Note_on_c, 0, 81, 0
11, 8129, Note_on_c, 0, 69, 100
11, 8169, Note_on_c, 0, 69, 0
11, 8296, Note_on_c, 0, 69, 100
11, 8336, Note_on_c, 0, 69, 0
11, 8713, Note_on_c, 0, 69, 100
11, 8753, Note_on_c, 0, 69, 0
11, 8797, Note_on_c, 0, 69, 100
11, 8837, Note_on_c, 0, 69, 0
11, 9089, Note_on_c, 0, 57, 100
11, 9129, Note_on_c, 0, 57, 0
11, 9356, Note_on_c, 0, 69, 100
11, 9449, Note_on_c, 0, 69, 0
11, 9544, Note_on_c, 0, 69, 100
11, 9700, Note_on_c, 0, 69, 0
11, 9921, Note_on_c, 0, 57, 100
11, 10293, Note_on_c, 0, 57, 0
11, 10297, Note_on_c, 0, 57, 100
11, 10484, Note_on_c, 0, 57, 0
11, 10579, Note_on_c, 0, 45, 100
11, 10692, Note_on_c, 0, 45, 0
11, 11210, Note_on_c, 0, 57, 100
11, 11401, Note_on_c, 0, 57, 0
11, 11513, Note_on_c, 0, 57, 100
11, 11786, Note_on_c, 0, 57, 0
11, 11787, Note_on_c, 0, 57, 100
11, 12151, Note_on_c, 0, 57, 0
11, 12153, Note_on_c, 0, 57, 100
11, 12243, Note_on_c, 0, 57, 0
11, 12245, Note_on_c, 0, 69, 100
11, 12606, Note_on_c, 0, 69, 0
11, 12610, Note_on_c, 0, 69, 100
11, 12933, Note_on_c, 0, 69, 0
11, 13159, Note_on_c, 0, 69, 100
11, 13339, Note_on_c, 0, 69, 0
11, 13982, Note_on_c, 0, 69, 100
11, 14343, Note_on_c, 0, 69, 0
11, 14347, Note_on_c, 0, 69, 100
11, 14613, Note_on_c, 0, 69, 0
11, 14805, Note_on_c, 0, 81, 100
11, 15147, Note_on_c, 0, 81, 0
11, 16420, Note_on_c, 0, 69, 100
11, 16649, Note_on_c, 0, 69, 0
11, 16883, Note_on_c, 0, 69, 100
11, 17762, Note_on_c, 0, 57, 100
11, 17811, Note_on_c, 0, 57, 0
11, 17933, Note_on_c, 0, 69, 0
11, 20424, Note_on_c, 0, 57, 100
11, 20736, Note_on_c, 0, 57, 0
11, 21728, Note_on_c, 0, 45, 100
11, 21987, Note_on_c, 0, 69, 100
11, 22117, Note_on_c, 0, 69, 0
11, 22263, Note_on_c, 0, 69, 100
11, 22383, Note_on_c, 0, 45, 0
11, 22501, Note_on_c, 0, 45, 100
11, 22707, Note_on_c, 0, 45, 0
11, 22734, Note_on_c, 0, 57, 100
11, 22846, Note_on_c, 0, 45, 100
11, 23039, Note_on_c, 0, 57, 0
11, 23136, Note_on_c, 0, 69, 0
11, 23682, Note_on_c, 0, 45, 0
11, 24560, Note_on_c, 0, 57, 100
11, 24951, Note_on_c, 0, 57, 0
11, 25536, Note_on_c, 0, 69, 100
11, 26303, Note_on_c, 0, 69, 0
11, 26784, Note_on_c, 0, 69, 100
11, 26879, Note_on_c, 0, 69, 0
11, 26880, Note_on_c, 0, 69, 100
11, 27240, Note_on_c, 0, 69, 0
11, 27456, Note_on_c, 0, 69, 100
11, 27551, Note_on_c, 0, 69, 0
11, 28032, Note_on_c, 0, 57, 100
11, 28032, Note_on_c, 0, 69, 100
11, 28223, Note_on_c, 0, 69, 0
11, 28672, Note_on_c, 0, 57, 0
11, 29568, Note_on_c, 0, 57, 100
11, 30143, Note_on_c, 0, 57, 0
11, 30144, Note_on_c, 0, 57, 100
11, 30335, Note_on_c, 0, 57, 0
11, 30720, Note_on_c, 0, 57, 100
11, 31103, Note_on_c, 0, 57, 0
11, 31296, Note_on_c, 0, 57, 100
11, 31679, Note_on_c, 0, 57, 0
11, 31872, Note_on_c, 0, 45, 100
11, 31872, Note_on_c, 0, 57, 100
11, 32232, Note_on_c, 0, 45, 0
11, 32447, Note_on_c, 0, 57, 0
11, 32648, Note_on_c, 0, 57, 100
11, 32839, Note_on_c, 0, 57, 0
11, 33032, Note_on_c, 0, 57, 100
11, 33160, Note_on_c, 0, 69, 100
11, 33512, Note_on_c, 0, 57, 0
11, 33590, Note_on_c, 0, 69, 0
11, 33616, Note_on_c, 0, 57, 100
11, 33807, Note_on_c, 0, 57, 0
11, 34000, Note_on_c, 0, 57, 100
11, 34191, Note_on_c, 0, 57, 0
11, 34192, Note_on_c, 0, 69, 100
11, 34287, Note_on_c, 0, 69, 0
11, 34336, Note_on_c, 0, 69, 100
11, 34383, Note_on_c, 0, 69, 0
11, 34480, Note_on_c, 0, 69, 100
11, 34575, Note_on_c, 0, 69, 0
11, 34576, Note_on_c, 0, 69, 100
11, 34576, Note_on_c, 0, 57, 100
11, 34767, Note_on_c, 0, 57, 0
11, 35096, Note_on_c, 0, 69, 0
11, 36112, Note_on_c, 0, 45, 100
11, 36462, Note_on_c, 0, 45, 0
11, 36688, Note_on_c, 0, 45, 100
11, 36879, Note_on_c, 0, 45, 0
11, 37264, Note_on_c, 0, 57, 100
11, 37264, Note_on_c, 0, 45, 100
11, 37455, Note_on_c, 0, 45, 0
11, 37456, Note_on_c, 0, 69, 100
11, 37551, Note_on_c, 0, 69, 0
11, 37839, Note_on_c, 0, 57, 0
11, 37840, Note_on_c, 0, 57, 100
11, 38031, Note_on_c, 0, 57, 0
11, 38736, Note_on_c, 0, 57, 100
11, 38799, Note_on_c, 0, 57, 0
11, 38800, Note_on_c, 0, 69, 100
11, 38992, Note_on_c, 0, 57, 100
11, 39075, Note_on_c, 0, 57, 0
11, 39183, Note_on_c, 0, 69, 0
11, 39952, Note_on_c, 0, 57, 100
11, 40144, Note_on_c, 0, 45, 100
11, 40335, Note_on_c, 0, 45, 0
11, 40527, Note_on_c, 0, 57, 0
11, 40528, Note_on_c, 0, 57, 100
11, 40611, Note_on_c, 0, 57, 0
11, 41488, Note_on_c, 0, 57, 100
11, 41488, Note_on_c, 0, 45, 100
11, 41871, Note_on_c, 0, 57, 0
11, 41872, Note_on_c, 0, 57, 100
11, 42069, Note_on_c, 0, 45, 0
11, 42082, Note_on_c, 0, 45, 100
11, 42255, Note_on_c, 0, 57, 0
11, 42273, Note_on_c, 0, 45, 0
11, 42664, Note_on_c, 0, 45, 100
11, 42664, Note_on_c, 0, 57, 100
11, 43047, Note_on_c, 0, 57, 0
11, 43047, Note_on_c, 0, 45, 0
11, 43432, Note_on_c, 0, 45, 100
11, 43432, Note_on_c, 0, 57, 100
11, 43815, Note_on_c, 0, 45, 0
11, 44007, Note_on_c, 0, 57, 0
11, 44046, Note_on_c, 0, 57, 100
11, 44151, Note_on_c, 0, 57, 0
11, 44800, Note_on_c, 0, 57, 100
11, 44800, Note_on_c, 0, 45, 100
11, 44949, Note_on_c, 0, 57, 0
11, 44974, Note_on_c, 0, 69, 100
11, 45051, Note_on_c, 0, 69, 0
11, 45180, Note_on_c, 0, 45, 0
11, 45595, Note_on_c, 0, 69, 100
11, 45664, Note_on_c, 0, 69, 0
11, 45947, Note_on_c, 0, 57, 100
11, 46016, Note_on_c, 0, 57, 0
11, 46158, Note_on_c, 0, 57, 100
11, 46227, Note_on_c, 0, 57, 0
11, 46369, Note_on_c, 0, 57, 100
11, 46439, Note_on_c, 0, 57, 0
11, 46697, Note_on_c, 0, 57, 100
11, 46783, Note_on_c, 0, 57, 0
11, 47248, Note_on_c, 0, 69, 100
11, 47343, Note_on_c, 0, 69, 0
11, 47521, Note_on_c, 0, 57, 100
11, 47624, Note_on_c, 0, 69, 100
11, 47972, Note_on_c, 0, 69, 0
11, 48218, Note_on_c, 0, 57, 0
11, 48370, Note_on_c, 0, 69, 100
11, 48460, Note_on_c, 0, 69, 0
11, 48553, Note_on_c, 0, 69, 100
11, 48643, Note_on_c, 0, 69, 0
11, 49560, Note_on_c, 0, 57, 100
11, 49648, Note_on_c, 0, 57, 0
11, 49753, Note_on_c, 0, 57, 100
11, 50327, Note_on_c, 0, 57, 0
11, 50562, Note_on_c, 0, 57, 100
11, 50804, Note_on_c, 0, 69, 100
11, 50985, Note_on_c, 0, 69, 0
11, 51007, Note_on_c, 0, 57, 0
11, 54144, Note_on_c, 0, 57, 100
11, 54335, Note_on_c, 0, 57, 0
11, 55680, Note_on_c, 0, 69, 100
11, 55871, Note_on_c, 0, 69, 0
11, 57216, Note_on_c, 0, 69, 100
11, 57408, Note_on_c, 0, 57, 100
11, 57588, Note_on_c, 0, 57, 0
11, 57983, Note_on_c, 0, 69, 0
11, 58560, Note_on_c, 0, 57, 100
11, 58735, Note_on_c, 0, 57, 0
11, 59520, Note_on_c, 0, 69, 100
11, 59711, Note_on_c, 0, 69, 0
11, 60288, Note_on_c, 0, 69, 100
11, 60480, Note_on_c, 0, 45, 100
11, 60671, Note_on_c, 0, 45, 0
11, 61055, Note_on_c, 0, 69, 0
11, 61440, Note_on_c, 0, 69, 100
11, 61440, Note_on_c, 0, 57, 100
11, 61632, Note_on_c, 0, 45, 100
11, 61823, Note_on_c, 0, 45, 0
11, 61823, Note_on_c, 0, 57, 0
11, 61824, Note_on_c, 0, 57, 100
11, 62015, Note_on_c, 0, 69, 0
11, 62016, Note_on_c, 0, 69, 100
11, 62207, Note_on_c, 0, 69, 0
11, 62591, Note_on_c, 0, 57, 0
11, 62976, Note_on_c, 0, 57, 100
11, 63168, Note_on_c, 0, 69, 100
11, 63338, Note_on_c, 0, 69, 0
11, 63356, Note_on_c, 0, 57, 0
11, 63552, Note_on_c, 0, 69, 100
11, 63552, Note_on_c, 0, 57, 100
11, 63743, Note_on_c, 0, 57, 0
11, 63743, Note_on_c, 0, 69, 0
11, 63936, Note_on_c, 0, 57, 100
11, 64031, Note_on_c, 0, 57, 0
11, 64512, Note_on_c, 0, 69, 100
11, 64800, Note_on_c, 0, 57, 100
11, 64895, Note_on_c, 0, 57, 0
11, 64895, Note_on_c, 0, 69, 0
11, 65664, Note_on_c, 0, 69, 100
11, 65664, Note_on_c, 0, 57, 100
11, 65855, Note_on_c, 0, 69, 0
11, 66431, Note_on_c, 0, 57, 0
11, 66816, Note_on_c, 0, 57, 100
11, 67008, Note_on_c, 0, 69, 100
11, 67199, Note_on_c, 0, 69, 0
11, 67200, Note_on_c, 0, 81, 100
11, 67391, Note_on_c, 0, 57, 0
11, 67392, Note_on_c, 0, 45, 100
11, 67583, Note_on_c, 0, 45, 0
11, 67967, Note_on_c, 0, 81, 0
11, 68352, Note_on_c, 0, 81, 100
11, 68352, Note_on_c, 0, 69, 100
11, 68544, Note_on_c, 0, 45, 100
11, 68732, Note_on_c, 0, 69, 0
11, 68744, Note_on_c, 0, 45, 0
11, 68927, Note_on_c, 0, 81, 0
11, 68928, Note_on_c, 0, 81, 100
11, 69119, Note_on_c, 0, 81, 0
11, 69312, Note_on_c, 0, 81, 100
11, 69407, Note_on_c, 0, 81, 0
11, 69888, Note_on_c, 0, 57, 100
11, 70176, Note_on_c, 0, 81, 100
11, 70271, Note_on_c, 0, 81, 0
11, 70271, Note_on_c, 0, 57, 0
11, 71040, Note_on_c, 0, 81, 100
11, 71807, Note_on_c, 0, 81, 0
11, 72192, Note_on_c, 0, 69, 100
11, 72384, Note_on_c, 0, 45, 100
11, 72575, Note_on_c, 0, 45, 0
11, 72959, Note_on_c, 0, 69, 0
11, 73152, Note_on_c, 0, 69, 100
11, 73152, Note_on_c, 0, 45, 100
11, 73247, Note_on_c, 0, 45, 0
11, 73343, Note_on_c, 0, 69, 0
11, 73728, Note_on_c, 0, 45, 100
11, 73919, Note_on_c, 0, 45, 0
11, 74880, Note_on_c, 0, 45, 100
11, 75071, Note_on_c, 0, 45, 0
11, 75264, Note_on_c, 0, 69, 100
11, 75455, Note_on_c, 0, 69, 0
11, 76416, Note_on_c, 0, 69, 100
11, 76416, Note_on_c, 0, 57, 100
11, 76607, Note_on_c, 0, 57, 0
11, 76799, Note_on_c, 0, 69, 0
11, 76800, Note_on_c, 0, 69, 100
11, 77180, Note_on_c, 0, 69, 0
11, 77376, Note_on_c, 0, 57, 100
11, 77566, Note_on_c, 0, 57, 0
11, 77952, Note_on_c, 0, 69, 100
11, 77952, Note_on_c, 0, 57, 100
11, 78143, Note_on_c, 0, 69, 0
11, 78144, Note_on_c, 0, 45, 100
11, 78232, Note_on_c, 0, 57, 0
11, 78335, Note_on_c, 0, 45, 0
11, 79680, Note_on_c, 0, 69, 100
11, 79855, Note_on_c, 0, 69, 0
11, 80064, Note_on_c, 0, 69, 100
11, 80159, Note_on_c, 0, 69, 0
11, 81408, Note_on_c, 0, 69, 100
11, 81599, Note_on_c, 0, 69, 0
11, 82560, Note_on_c, 0, 69, 100
11, 82751, Note_on_c, 0, 69, 0
11, 84096, Note_on_c, 0, 69, 100
11, 84286, Note_on_c, 0, 69, 0
11, 84288, Note_on_c, 0, 69, 100
11, 84863, Note_on_c, 0, 69, 0
11, 85440, Note_on_c, 0, 69, 100
11, 85620, Note_on_c, 0, 69, 0
11, 86400, Note_on_c, 0, 69, 100
11, 86591, Note_on_c, 0, 69, 0
11, 86592, Note_on_c, 0, 57, 100
11, 86783, Note_on_c, 0, 57, 0
11, 87936, Note_on_c, 0, 81, 100
11, 87936, Note_on_c, 0, 57, 100
11, 88127, Note_on_c, 0, 57, 0
11, 88127, Note_on_c, 0, 81, 0
11, 88128, Note_on_c, 0, 45, 100
11, 88319, Note_on_c, 0, 45, 0
11, 88512, Note_on_c, 0, 69, 100
11, 88703, Note_on_c, 0, 69, 0
11, 88896, Note_on_c, 0, 45, 100
11, 89087, Note_on_c, 0, 45, 0
11, 89472, Note_on_c, 0, 69, 100
11, 89472, Note_on_c, 0, 45, 100
11, 89663, Note_on_c, 0, 69, 0
11, 89855, Note_on_c, 0, 45, 0
11, 90816, Note_on_c, 0, 57, 100
11, 90911, Note_on_c, 0, 57, 0
11, 91392, Note_on_c, 0, 57, 100
11, 91583, Note_on_c, 0, 57, 0
11, 91776, Note_on_c, 0, 45, 100
11, 91967, Note_on_c, 0, 45, 0
11, 92352, Note_on_c, 0, 69, 100
11, 92447, Note_on_c, 0, 69, 0
11, 92928, Note_on_c, 0, 69, 100
11, 93119, Note_on_c, 0, 69, 0
11, 93504, Note_on_c, 0, 57, 100
11, 93695, Note_on_c, 0, 57, 0
11, 93888, Note_on_c, 0, 81, 100
11, 93983, Note_on_c, 0, 81, 0
11, 94464, Note_on_c, 0, 81, 100
11, 94655, Note_on_c, 0, 81, 0
11, 95616, Note_on_c, 0, 81, 100
11, 96191, Note_on_c, 0, 81, 0
11, 96192, Note_on_c, 0, 57, 100
11, 96287, Note_on_c, 0, 57, 0
11, 96384, Note_on_c, 0, 57, 100
11, 96575, Note_on_c, 0, 57, 0
11, 96960, Note_on_c, 0, 69, 100
11, 96960, Note_on_c, 0, 57, 100
11, 97055, Note_on_c, 0, 57, 0
11, 97151, Note_on_c, 0, 69, 0
11, 97536, Note_on_c, 0, 57, 100
11, 97727, Note_on_c, 0, 57, 0
11, 98112, Note_on_c, 0, 57, 100
11, 98303, Note_on_c, 0, 57, 0
11, 98688, Note_on_c, 0, 57, 100
11, 98880, Note_on_c, 0, 45, 100
11, 99071, Note_on_c, 0, 45, 0
11, 99455, Note_on_c, 0, 57, 0
11, 99840, Note_on_c, 0, 69, 100
11, 100032, Note_on_c, 0, 45, 100
11, 100223, Note_on_c, 0, 45, 0
11, 100380, Note_on_c, 0, 69, 0
11, 100512, Note_on_c, 0, 69, 100
11, 100607, Note_on_c, 0, 69, 0
11, 101184, Note_on_c, 0, 69, 100
11, 101279, Note_on_c, 0, 69, 0
11, 101376, Note_on_c, 0, 45, 100
11, 101567, Note_on_c, 0, 45, 0
11, 101952, Note_on_c, 0, 45, 100
11, 102143, Note_on_c, 0, 45, 0
11, 102528, Note_on_c, 0, 69, 100
11, 102528, Note_on_c, 0, 57, 100
11, 102528, Note_on_c, 0, 45, 100
11, 102719, Note_on_c, 0, 69, 0
11, 102911, Note_on_c, 0, 45, 0
11, 102911, Note_on_c, 0, 57, 0
11, 102912, Note_on_c, 0, 57, 100
11, 103292, Note_on_c, 0, 57, 0
11, 103584, Note_on_c, 0, 57, 100
11, 103679, Note_on_c, 0, 57, 0
11, 104064, Note_on_c, 0, 69, 100
11, 104064, Note_on_c, 0, 57, 100
11, 104255, Note_on_c, 0, 57, 0
11, 104255, Note_on_c, 0, 69, 0
11, 104256, Note_on_c, 0, 45, 100
11, 104447, Note_on_c, 0, 45, 0
11, 105120, Note_on_c, 0, 81, 100
11, 105215, Note_on_c, 0, 81, 0
11, 105600, Note_on_c, 0, 81, 100
11, 105600, Note_on_c, 0, 69, 100
11, 105791, Note_on_c, 0, 69, 0
11, 105791, Note_on_c, 0, 81, 0
11, 105792, Note_on_c, 0, 69, 100
11, 105983, Note_on_c, 0, 69, 0
11, 106368, Note_on_c, 0, 69, 100
11, 106748, Note_on_c, 0, 69, 0
11, 106944, Note_on_c, 0, 57, 100
11, 107039, Note_on_c, 0, 57, 0
11, 107520, Note_on_c, 0, 57, 100
11, 107711, Note_on_c, 0, 57, 0
11, 108192, Note_on_c, 0, 57, 100
11, 108287, Note_on_c, 0, 57, 0
11, 108672, Note_on_c, 0, 69, 100
11, 108672, Note_on_c, 0, 57, 100
11, 108863, Note_on_c, 0, 57, 0
11, 109439, Note_on_c, 0, 69, 0
11, 109824, Note_on_c, 0, 69, 100
11, 110112, Note_on_c, 0, 45, 100
11, 110207, Note_on_c, 0, 45, 0
11, 110207, Note_on_c, 0, 69, 0
11, 111360, Note_on_c, 0, 57, 100
11, 111551, Note_on_c, 0, 57, 0
11, 111648, Note_on_c, 0, 45, 100
11, 111743, Note_on_c, 0, 45, 0
11, 112896, Note_on_c, 0, 57, 100
11, 113087, Note_on_c, 0, 57, 0
11, 113184, Note_on_c, 0, 69, 100
11, 113279, Note_on_c, 0, 69, 0
11, 113856, Note_on_c, 0, 69, 100
11, 113856, Note_on_c, 0, 57, 100
11, 113951, Note_on_c, 0, 57, 0
11, 113951, Note_on_c, 0, 69, 0
11, 114432, Note_on_c, 0, 57, 100
11, 114623, Note_on_c, 0, 57, 0
11, 114720, Note_on_c, 0, 69, 100
11, 114815, Note_on_c, 0, 69, 0
11, 115392, Note_on_c, 0, 81, 100
11, 115487, Note_on_c, 0, 81, 0
11, 115648, Note_on_c, 0, 81, 100
11, 115679, Note_on_c, 0, 81, 0
11, 115712, Note_on_c, 0, 81, 100
11, 115743, Note_on_c, 0, 81, 0
11, 115776, Note_on_c, 0, 81, 100
11, 115871, Note_on_c, 0, 81, 0
11, 116736, Note_on_c, 0, 69, 100
11, 116927, Note_on_c, 0, 69, 0
11, 117024, Note_on_c, 0, 57, 100
11, 117119, Note_on_c, 0, 57, 0
11, 117696, Note_on_c, 0, 57, 100
11, 117887, Note_on_c, 0, 57, 0
11, 118656, Note_on_c, 0, 57, 100
11, 118847, Note_on_c, 0, 57, 0
11, 119232, Note_on_c, 0, 57, 100
11, 119423, Note_on_c, 0, 57, 0
11, 119808, Note_on_c, 0, 57, 100
11, 119904, Note_on_c, 0, 69, 100
11, 119999, Note_on_c, 0, 69, 0
11, 119999, Note_on_c, 0, 57, 0
11, 120096, Note_on_c, 0, 69, 100
11, 120191, Note_on_c, 0, 69, 0
11, 120288, Note_on_c, 0, 69, 100
11, 120383, Note_on_c, 0, 69, 0
11, 120480, Note_on_c, 0, 69, 100
11, 120575, Note_on_c, 0, 69, 0
11, 120768, Note_on_c, 0, 69, 100
11, 120863, Note_on_c, 0, 69, 0
11, 121344, Note_on_c, 0, 69, 100
11, 121344, Note_on_c, 0, 45, 100
11, 121535, Note_on_c, 0, 45, 0
11, 121728, Note_on_c, 0, 57, 100
11, 121919, Note_on_c, 0, 57, 0
11, 122111, Note_on_c, 0, 69, 0
11, 123168, Note_on_c, 0, 57, 100
11, 123263, Note_on_c, 0, 57, 0
11, 124032, Note_on_c, 0, 57, 100
11, 124212, Note_on_c, 0, 57, 0
11, 125184, Note_on_c, 0, 45, 100
11, 125375, Note_on_c, 0, 45, 0
11, 129792, Note_on_c, 0, 69, 100
11, 129983, Note_on_c, 0, 69, 0
11, 130080, Note_on_c, 0, 45, 100
11, 130175, Note_on_c, 0, 45, 0
11, 131328, Note_on_c, 0, 69, 100
11, 131519, Note_on_c, 0, 69, 0
11, 131616, Note_on_c, 0, 57, 100
11, 131711, Note_on_c, 0, 57, 0
11, 132000, Note_on_c, 0, 69, 100
11, 132095, Note_on_c, 0, 69, 0
11, 132480, Note_on_c, 0, 57, 100
11, 132671, Note_on_c, 0, 57, 0
11, 133536, Note_on_c, 0, 81, 100
11, 133631, Note_on_c, 0, 81, 0
11, 134016, Note_on_c, 0, 69, 100
11, 134208, Note_on_c, 0, 81, 100
11, 134303, Note_on_c, 0, 81, 0
11, 134783, Note_on_c, 0, 69, 0
11, 135168, Note_on_c, 0, 57, 100
11, 135264, Note_on_c, 0, 69, 100
11, 135359, Note_on_c, 0, 69, 0
11, 135359, Note_on_c, 0, 57, 0
11, 135840, Note_on_c, 0, 69, 100
11, 135935, Note_on_c, 0, 69, 0
11, 136128, Note_on_c, 0, 69, 100
11, 136511, Note_on_c, 0, 69, 0
11, 136704, Note_on_c, 0, 69, 100
11, 136704, Note_on_c, 0, 57, 100
11, 136992, Note_on_c, 0, 45, 100
11, 137084, Note_on_c, 0, 57, 0
11, 137084, Note_on_c, 0, 69, 0
11, 137087, Note_on_c, 0, 45, 0
11, 137280, Note_on_c, 0, 45, 100
11, 137471, Note_on_c, 0, 45, 0
11, 137664, Note_on_c, 0, 57, 100
11, 137664, Note_on_c, 0, 45, 100
11, 137759, Note_on_c, 0, 45, 0
11, 137855, Note_on_c, 0, 57, 0
11, 138048, Note_on_c, 0, 57, 100
11, 138143, Note_on_c, 0, 57, 0
11, 138240, Note_on_c, 0, 57, 100
11, 138431, Note_on_c, 0, 57, 0
11, 138528, Note_on_c, 0, 45, 100
11, 138623, Note_on_c, 0, 45, 0
11, 138912, Note_on_c, 0, 57, 100
11, 139007, Note_on_c, 0, 57, 0
11, 139392, Note_on_c, 0, 45, 100
11, 139583, Note_on_c, 0, 45, 0
11, 140928, Note_on_c, 0, 57, 100
11, 141119, Note_on_c, 0, 57, 0
11, 141984, Note_on_c, 0, 57, 100
11, 142079, Note_on_c, 0, 57, 0
11, 142464, Note_on_c, 0, 69, 100
11, 142464, Note_on_c, 0, 57, 100
11, 142655, Note_on_c, 0, 57, 0
11, 142655, Note_on_c, 0, 69, 0
11, 142656, Note_on_c, 0, 45, 100
11, 142847, Note_on_c, 0, 45, 0
11, 143328, Note_on_c, 0, 69, 100
11, 143423, Note_on_c, 0, 69, 0
11, 143520, Note_on_c, 0, 69, 100
11, 143615, Note_on_c, 0, 69, 0
11, 144384, Note_on_c, 0, 69, 100
11, 144764, Note_on_c, 0, 69, 0
11, 145536, Note_on_c, 0, 57, 100
11, 145728, Note_on_c, 0, 69, 100
11, 145728, Note_on_c, 0, 45, 100
11, 145823, Note_on_c, 0, 69, 0
11, 145916, Note_on_c, 0, 57, 0
11, 145919, Note_on_c, 0, 45, 0
11, 146112, Note_on_c, 0, 57, 100
11, 146207, Note_on_c, 0, 57, 0
11, 147072, Note_on_c, 0, 69, 100
11, 147072, Note_on_c, 0, 45, 100
11, 147263, Note_on_c, 0, 69, 0
11, 147455, Note_on_c, 0, 45, 0
11, 148128, Note_on_c, 0, 69, 100
11, 148223, Note_on_c, 0, 69, 0
11, 148608, Note_on_c, 0, 81, 100
11, 148608, Note_on_c, 0, 69, 100
11, 148703, Note_on_c, 0, 69, 0
11, 148799, Note_on_c, 0, 81, 0
11, 148800, Note_on_c, 0, 69, 100
11, 148990, Note_on_c, 0, 69, 0
11, 149760, Note_on_c, 0, 69, 100
11, 149856, Note_on_c, 0, 57, 100
11, 149951, Note_on_c, 0, 57, 0
11, 150432, Note_on_c, 0, 57, 100
11, 150527, Note_on_c, 0, 57, 0
11, 150527, Note_on_c, 0, 69, 0
11, 150720, Note_on_c, 0, 57, 100
11, 150815, Note_on_c, 0, 57, 0
11, 151296, Note_on_c, 0, 57, 100
11, 151391, Note_on_c, 0, 57, 0
11, 151584, Note_on_c, 0, 57, 100
11, 151679, Note_on_c, 0, 57, 0
11, 152448, Note_on_c, 0, 57, 100
11, 152543, Note_on_c, 0, 57, 0
11, 153600, Note_on_c, 0, 69, 100
11, 153792, Note_on_c, 0, 57, 100
11, 153887, Note_on_c, 0, 57, 0
11, 154559, Note_on_c, 0, 69, 0
11, 155136, Note_on_c, 0, 57, 100
11, 155711, Note_on_c, 0, 57, 0
11, 156480, Note_on_c, 0, 57, 100
11, 156671, Note_on_c, 0, 57, 0
11, 156672, Note_on_c, 0, 57, 100
11, 157152, Note_on_c, 0, 69, 100
11, 157247, Note_on_c, 0, 69, 0
11, 157247, Note_on_c, 0, 57, 0
11, 157248, Note_on_c, 0, 57, 100
11, 157438, Note_on_c, 0, 57, 0
11, 157536, Note_on_c, 0, 69, 100
11, 157631, Note_on_c, 0, 69, 0
11, 158208, Note_on_c, 0, 57, 100
11, 158400, Note_on_c, 0, 69, 100
11, 158495, Note_on_c, 0, 69, 0
11, 158688, Note_on_c, 0, 57, 0
11, 158784, Note_on_c, 0, 57, 100
11, 158975, Note_on_c, 0, 57, 0
11, 159264, Note_on_c, 0, 69, 100
11, 159359, Note_on_c, 0, 69, 0
11, 160128, Note_on_c, 0, 69, 100
11, 160272, Note_on_c, 0, 69, 0
11, 160320, Note_on_c, 0, 81, 100
11, 160415, Note_on_c, 0, 81, 0
11, 160912, Note_on_c, 0, 69, 100
11, 161292, Note_on_c, 0, 69, 0
11, 162080, Note_on_c, 0, 57, 100
11, 162288, Note_on_c, 0, 69, 100
11, 162383, Note_on_c, 0, 69, 0
11, 162592, Note_on_c, 0, 69, 100
11, 162687, Note_on_c, 0, 69, 0
11, 163615, Note_on_c, 0, 57, 0
11, 163870, Note_on_c, 0, 69, 100
11, 164056, Note_on_c, 0, 69, 0
11, 164248, Note_on_c, 0, 69, 100
11, 164439, Note_on_c, 0, 69, 0
11, 164824, Note_on_c, 0, 45, 100
11, 165015, Note_on_c, 0, 45, 0
11, 165208, Note_on_c, 0, 69, 100
11, 165398, Note_on_c, 0, 69, 0
11, 165592, Note_on_c, 0, 57, 100
11, 165975, Note_on_c, 0, 57, 0
11, 166360, Note_on_c, 0, 57, 100
11, 166360, Note_on_c, 0, 69, 100
11, 166551, Note_on_c, 0, 69, 0
11, 166743, Note_on_c, 0, 57, 0
11, 166744, Note_on_c, 0, 57, 100
11, 167124, Note_on_c, 0, 57, 0
11, 167912, Note_on_c, 0, 69, 100
11, 168115, Note_on_c, 0, 57, 100
11, 168306, Note_on_c, 0, 57, 0
11, 168679, Note_on_c, 0, 69, 0
11, 169080, Note_on_c, 0, 45, 100
11, 169271, Note_on_c, 0, 45, 0
11, 169464, Note_on_c, 0, 57, 100
11, 169654, Note_on_c, 0, 57, 0
11, 170040, Note_on_c, 0, 57, 100
11, 170135, Note_on_c, 0, 57, 0
11, 170904, Note_on_c, 0, 57, 100
11, 170999, Note_on_c, 0, 57, 0
11, 171768, Note_on_c, 0, 45, 100
11, 171768, Note_on_c, 0, 57, 100
11, 171959, Note_on_c, 0, 45, 0
11, 172151, Note_on_c, 0, 57, 0
11, 172152, Note_on_c, 0, 57, 100
11, 172532, Note_on_c, 0, 57, 0
11, 172848, Note_on_c, 0, 45, 100
11, 172943, Note_on_c, 0, 45, 0
11, 174480, Note_on_c, 0, 45, 100
11, 176015, Note_on_c, 0, 45, 0
11, 176880, Note_on_c, 0, 57, 100
11, 176975, Note_on_c, 0, 57, 0
11, 177552, Note_on_c, 0, 45, 100
11, 177768, Note_on_c, 0, 57, 100
11, 177863, Note_on_c, 0, 57, 0
11, 178248, Note_on_c, 0, 57, 100
11, 178319, Note_on_c, 0, 45, 0
11, 178343, Note_on_c, 0, 57, 0
11, 178728, Note_on_c, 0, 57, 100
11, 179112, Note_on_c, 0, 69, 100
11, 179168, Note_on_c, 0, 57, 0
11, 179400, Note_on_c, 0, 57, 100
11, 179495, Note_on_c, 0, 57, 0
11, 179552, Note_on_c, 0, 69, 0
11, 179784, Note_on_c, 0, 69, 100
11, 179879, Note_on_c, 0, 69, 0
11, 180264, Note_on_c, 0, 69, 100
11, 180648, Note_on_c, 0, 81, 100
11, 180704, Note_on_c, 0, 69, 0
11, 180936, Note_on_c, 0, 69, 100
11, 181031, Note_on_c, 0, 69, 0
11, 181128, Note_on_c, 0, 81, 0
11, 181224, Note_on_c, 0, 81, 100
11, 181319, Note_on_c, 0, 81, 0
11, 181704, Note_on_c, 0, 69, 100
11, 181799, Note_on_c, 0, 69, 0
11, 182568, Note_on_c, 0, 57, 100
11, 182760, Note_on_c, 0, 69, 100
11, 182855, Note_on_c, 0, 69, 0
11, 182948, Note_on_c, 0, 57, 0
11, 183240, Note_on_c, 0, 57, 100
11, 183335, Note_on_c, 0, 57, 0
11, 183720, Note_on_c, 0, 57, 100
11, 183816, Note_on_c, 0, 45, 100
11, 183911, Note_on_c, 0, 45, 0
11, 184100, Note_on_c, 0, 57, 0
11, 184104, Note_on_c, 0, 45, 100
11, 184487, Note_on_c, 0, 45, 0
11, 184800, Note_on_c, 0, 57, 100
11, 184895, Note_on_c, 0, 57, 0
11, 185408, Note_on_c, 0, 69, 100
11, 185503, Note_on_c, 0, 69, 0
11, 187672, Note_on_c, 0, 57, 100
11, 187767, Note_on_c, 0, 57, 0
11, 187960, Note_on_c, 0, 57, 100
11, 188679, Note_on_c, 0, 45, 100
11, 188727, Note_on_c, 0, 57, 0
11, 188839, Note_on_c, 0, 45, 0
11, 192682, Note_on_c, 0, 69, 100
11, 192788, Note_on_c, 0, 69, 0
11, 192896, Note_on_c, 0, 45, 100
11, 192896, Note_on_c, 0, 57, 100
11, 193184, Note_on_c, 0, 69, 100
11, 193239, Note_on_c, 0, 69, 0
11, 193600, Note_on_c, 0, 69, 100
11, 193636, Note_on_c, 0, 57, 0
11, 193636, Note_on_c, 0, 45, 0
11, 193663, Note_on_c, 0, 69, 0
11, 194168, Note_on_c, 0, 57, 100
11, 194252, Note_on_c, 0, 57, 0
11, 194557, Note_on_c, 0, 57, 100
11, 194623, Note_on_c, 0, 57, 0
11, 195072, Note_on_c, 0, 45, 100
11, 195135, Note_on_c, 0, 45, 0
11, 196416, Note_on_c, 0, 57, 100
11, 196511, Note_on_c, 0, 57, 0
11, 197184, Note_on_c, 0, 69, 100
11, 197375, Note_on_c, 0, 69, 0
11, 197376, Note_on_c, 0, 69, 100
11, 197856, Note_on_c, 0, 69, 0
11, 197952, Note_on_c, 0, 69, 100
11, 198142, Note_on_c, 0, 69, 0
11, 204288, Note_on_c, 0, 81, 100
11, 204768, Note_on_c, 0, 81, 0
11, 204864, Note_on_c, 0, 81, 100
11, 205054, Note_on_c, 0, 81, 0
11, 205056, Note_on_c, 0, 81, 100
11, 205536, Note_on_c, 0, 81, 0
11, 205632, Note_on_c, 0, 81, 100
11, 205822, Note_on_c, 0, 81, 0
11, 208896, Note_on_c, 0, 57, 100
11, 209376, Note_on_c, 0, 57, 0
11, 209472, Note_on_c, 0, 57, 100
11, 209663, Note_on_c, 0, 57, 0
11, 209664, Note_on_c, 0, 57, 100
11, 210144, Note_on_c, 0, 57, 0
11, 210240, Note_on_c, 0, 57, 100
11, 210431, Note_on_c, 0, 57, 0
11, 214272, Note_on_c, 0, 69, 100
11, 214272, Note_on_c, 0, 57, 100
11, 214652, Note_on_c, 0, 69, 0
11, 214752, Note_on_c, 0, 57, 0
11, 214848, Note_on_c, 0, 69, 100
11, 215038, Note_on_c, 0, 69, 0
11, 215040, Note_on_c, 0, 69, 100
11, 215520, Note_on_c, 0, 69, 0
11, 215616, Note_on_c, 0, 69, 100
11, 215806, Note_on_c, 0, 69, 0
11, 217152, Note_on_c, 0, 57, 100
11, 217343, Note_on_c, 0, 57, 0
11, 217344, Note_on_c, 0, 57, 100
11, 217724, Note_on_c, 0, 57, 0
11, 218024, Note_on_c, 0, 57, 100
11, 218119, Note_on_c, 0, 57, 0
11, 218504, Note_on_c, 0, 57, 100
11, 218703, Note_on_c, 0, 57, 0
11, 218704, Note_on_c, 0, 57, 100
11, 218895, Note_on_c, 0, 57, 0
11, 219664, Note_on_c, 0, 57, 100
11, 220144, Note_on_c, 0, 57, 0
11, 220240, Note_on_c, 0, 57, 100
11, 220431, Note_on_c, 0, 57, 0
11, 221296, Note_on_c, 0, 69, 100
11, 221391, Note_on_c, 0, 69, 0
11, 221488, Note_on_c, 0, 69, 100
11, 221583, Note_on_c, 0, 69, 0
11, 221584, Note_on_c, 0, 69, 100
11, 221871, Note_on_c, 0, 69, 0
11, 221872, Note_on_c, 0, 69, 100
11, 221967, Note_on_c, 0, 69, 0
11, 221968, Note_on_c, 0, 69, 100
11, 222063, Note_on_c, 0, 69, 0
11, 222064, Note_on_c, 0, 69, 100
11, 222159, Note_on_c, 0, 69, 0
11, 222256, Note_on_c, 0, 69, 100
11, 222351, Note_on_c, 0, 69, 0
11, 224080, Note_on_c, 0, 57, 100
11, 224271, Note_on_c, 0, 57, 0
11, 224280, Note_on_c, 0, 57, 100
11, 224566, Note_on_c, 0, 69, 100
11, 224652, Note_on_c, 0, 69, 0
11, 224937, Note_on_c, 0, 57, 0
11, 225002, Note_on_c, 0, 57, 100
11, 225089, Note_on_c, 0, 57, 0
11, 225264, Note_on_c, 0, 57, 100
11, 225352, Note_on_c, 0, 57, 0
11, 225695, Note_on_c, 0, 45, 100
11, 225780, Note_on_c, 0, 45, 0
11, 226433, Note_on_c, 0, 57, 100
11, 226543, Note_on_c, 0, 57, 0
11, 228984, Note_on_c, 0, 45, 100
11, 228984, Note_on_c, 0, 57, 100
11, 229832, Note_on_c, 0, 69, 100
11, 230397, Note_on_c, 0, 57, 0
11, 230397, Note_on_c, 0, 45, 0
11, 230407, Note_on_c, 0, 69, 0
11, 230550, Note_on_c, 0, 57, 100
11, 232084, Note_on_c, 0, 57, 0
11, 232888, Note_on_c, 0, 69, 100
11, 232983, Note_on_c, 0, 69, 0
11, 234040, Note_on_c, 0, 45, 100
11, 234231, Note_on_c, 0, 45, 0
11, 234232, Note_on_c, 0, 57, 100
11, 234423, Note_on_c, 0, 57, 0
11, 234616, Note_on_c, 0, 57, 100
11, 234807, Note_on_c, 0, 57, 0
11, 235192, Note_on_c, 0, 57, 100
11, 235287, Note_on_c, 0, 57, 0
11, 236344, Note_on_c, 0, 69, 100
11, 236535, Note_on_c, 0, 69, 0
11, 236536, Note_on_c, 0, 81, 100
11, 236727, Note_on_c, 0, 81, 0
11, 236920, Note_on_c, 0, 81, 100
11, 237111, Note_on_c, 0, 81, 0
11, 237496, Note_on_c, 0, 81, 100
11, 237591, Note_on_c, 0, 81, 0
11, 239224, Note_on_c, 0, 57, 100
11, 239415, Note_on_c, 0, 57, 0
11, 240760, Note_on_c, 0, 57, 100
11, 240951, Note_on_c, 0, 57, 0
11, 241336, Note_on_c, 0, 57, 100
11, 241527, Note_on_c, 0, 57, 0
11, 241912, Note_on_c, 0, 57, 100
11, 242103, Note_on_c, 0, 57, 0
11, 242296, Note_on_c, 0, 81, 100
11, 242487, Note_on_c, 0, 81, 0
11, 242488, Note_on_c, 0, 57, 100
11, 242679, Note_on_c, 0, 57, 0
11, 243256, Note_on_c, 0, 57, 100
11, 243351, Note_on_c, 0, 57, 0
11, 243448, Note_on_c, 0, 57, 100
11, 243639, Note_on_c, 0, 57, 0
11, 244600, Note_on_c, 0, 57, 100
11, 244791, Note_on_c, 0, 57, 0
11, 244984, Note_on_c, 0, 57, 100
11, 245175, Note_on_c, 0, 57, 0
11, 245176, Note_on_c, 0, 45, 100
11, 245367, Note_on_c, 0, 45, 0
11, 245560, Note_on_c, 0, 69, 100
11, 245655, Note_on_c, 0, 69, 0
11, 246712, Note_on_c, 0, 57, 100
11, 246903, Note_on_c, 0, 57, 0
11, 246904, Note_on_c, 0, 69, 100
11, 247095, Note_on_c, 0, 69, 0
11, 247288, Note_on_c, 0, 69, 100
11, 247479, Note_on_c, 0, 69, 0
11, 247864, Note_on_c, 0, 81, 100
11, 247959, Note_on_c, 0, 81, 0
11, 248632, Note_on_c, 0, 69, 100
11, 248822, Note_on_c, 0, 69, 0
11, 249208, Note_on_c, 0, 69, 100
11, 249400, Note_on_c, 0, 45, 100
11, 249591, Note_on_c, 0, 45, 0
11, 249591, Note_on_c, 0, 69, 0
11, 249592, Note_on_c, 0, 57, 100
11, 249784, Note_on_c, 0, 69, 100
11, 249975, Note_on_c, 0, 69, 0
11, 250359, Note_on_c, 0, 57, 0
11, 251128, Note_on_c, 0, 57, 100
11, 251511, Note_on_c, 0, 57, 0
11, 251512, Note_on_c, 0, 57, 100
11, 251512, Note_on_c, 0, 69, 100
11, 251703, Note_on_c, 0, 69, 0
11, 251896, Note_on_c, 0, 69, 100
11, 252087, Note_on_c, 0, 69, 0
11, 252087, Note_on_c, 0, 57, 0
11, 252088, Note_on_c, 0, 57, 100
11, 252279, Note_on_c, 0, 57, 0
11, 252472, Note_on_c, 0, 57, 100
11, 252567, Note_on_c, 0, 57, 0
11, 253240, Note_on_c, 0, 69, 100
11, 253431, Note_on_c, 0, 69, 0
11, 253624, Note_on_c, 0, 45, 100
11, 253815, Note_on_c, 0, 45, 0
11, 253816, Note_on_c, 0, 57, 100
11, 254007, Note_on_c, 0, 57, 0
11, 254200, Note_on_c, 0, 57, 100
11, 254391, Note_on_c, 0, 57, 0
11, 254776, Note_on_c, 0, 57, 100
11, 254871, Note_on_c, 0, 57, 0
11, 255448, Note_on_c, 0, 69, 100
11, 255543, Note_on_c, 0, 69, 0
11, 256504, Note_on_c, 0, 45, 100
11, 256695, Note_on_c, 0, 45, 0
11, 258040, Note_on_c, 0, 45, 100
11, 258040, Note_on_c, 0, 57, 100
11, 258231, Note_on_c, 0, 45, 0
11, 258420, Note_on_c, 0, 57, 0
11, 258616, Note_on_c, 0, 45, 100
11, 258616, Note_on_c, 0, 69, 100
11, 258711, Note_on_c, 0, 69, 0
11, 258807, Note_on_c, 0, 45, 0
11, 259864, Note_on_c, 0, 69, 100
11, 259959, Note_on_c, 0, 69, 0
11, 260344, Note_on_c, 0, 69, 100
11, 260724, Note_on_c, 0, 69, 0
11, 260728, Note_on_c, 0, 45, 100
11, 260919, Note_on_c, 0, 45, 0
11, 260920, Note_on_c, 0, 69, 100
11, 261015, Note_on_c, 0, 69, 0
11, 261784, Note_on_c, 0, 57, 100
11, 261879, Note_on_c, 0, 57, 0
11, 262264, Note_on_c, 0, 57, 100
11, 262455, Note_on_c, 0, 57, 0
11, 262456, Note_on_c, 0, 69, 100
11, 262647, Note_on_c, 0, 69, 0
11, 262840, Note_on_c, 0, 57, 100
11, 262840, Note_on_c, 0, 69, 100
11, 262935, Note_on_c, 0, 69, 0
11, 263031, Note_on_c, 0, 57, 0
11, 263608, Note_on_c, 0, 57, 100
11, 263799, Note_on_c, 0, 57, 0
11, 263992, Note_on_c, 0, 57, 100
11, 264183, Note_on_c, 0, 57, 0
11, 264184, Note_on_c, 0, 57, 100
11, 264184, Note_on_c, 0, 69, 100
11, 264375, Note_on_c, 0, 69, 0
11, 264568, Note_on_c, 0, 69, 100
11, 264759, Note_on_c, 0, 69, 0
11, 264759, Note_on_c, 0, 57, 0
11, 264760, Note_on_c, 0, 57, 100
11, 264951, Note_on_c, 0, 57, 0
11, 265912, Note_on_c, 0, 57, 100
11, 266103, Note_on_c, 0, 57, 0
11, 266488, Note_on_c, 0, 57, 100
11, 266488, Note_on_c, 0, 69, 100
11, 266678, Note_on_c, 0, 69, 0
11, 266680, Note_on_c, 0, 69, 100
11, 266871, Note_on_c, 0, 69, 0
11, 266872, Note_on_c, 0, 81, 100
11, 267063, Note_on_c, 0, 57, 0
11, 267064, Note_on_c, 0, 57, 100
11, 267255, Note_on_c, 0, 57, 0
11, 267639, Note_on_c, 0, 81, 0
11, 268408, Note_on_c, 0, 69, 100
11, 268408, Note_on_c, 0, 81, 100
11, 268788, Note_on_c, 0, 81, 0
11, 268788, Note_on_c, 0, 69, 0
11, 268984, Note_on_c, 0, 57, 100
11, 269175, Note_on_c, 0, 57, 0
11, 269176, Note_on_c, 0, 81, 100
11, 269943, Note_on_c, 0, 81, 0
11, 270712, Note_on_c, 0, 69, 100
11, 271092, Note_on_c, 0, 69, 0
11, 271096, Note_on_c, 0, 57, 100
11, 271287, Note_on_c, 0, 57, 0
11, 271288, Note_on_c, 0, 69, 100
11, 271479, Note_on_c, 0, 69, 0
11, 271672, Note_on_c, 0, 69, 100
11, 271767, Note_on_c, 0, 69, 0
11, 272152, Note_on_c, 0, 57, 100
11, 272247, Note_on_c, 0, 57, 0
11, 272632, Note_on_c, 0, 57, 100
11, 272823, Note_on_c, 0, 57, 0
11, 272920, Note_on_c, 0, 69, 100
11, 273015, Note_on_c, 0, 69, 0
11, 273016, Note_on_c, 0, 69, 100
11, 273688, Note_on_c, 0, 45, 100
11, 273783, Note_on_c, 0, 45, 0
11, 273783, Note_on_c, 0, 69, 0
11, 274072, Note_on_c, 0, 69, 100
11, 274167, Note_on_c, 0, 69, 0
11, 274168, Note_on_c, 0, 57, 100
11, 274168, Note_on_c, 0, 69, 100
11, 274359, Note_on_c, 0, 57, 0
11, 274648, Note_on_c, 0, 69, 0
11, 274744, Note_on_c, 0, 57, 100
11, 274934, Note_on_c, 0, 57, 0
11, 274936, Note_on_c, 0, 69, 100
11, 275128, Note_on_c, 0, 45, 100
11, 275319, Note_on_c, 0, 45, 0
11, 275319, Note_on_c, 0, 69, 0
11, 275320, Note_on_c, 0, 69, 100
11, 275703, Note_on_c, 0, 69, 0
11, 276472, Note_on_c, 0, 69, 100
11, 277022, Note_on_c, 0, 69, 0
11, 277048, Note_on_c, 0, 45, 100
11, 277048, Note_on_c, 0, 69, 100
11, 277239, Note_on_c, 0, 69, 0
11, 277239, Note_on_c, 0, 45, 0
11, 277240, Note_on_c, 0, 69, 100
11, 277431, Note_on_c, 0, 69, 0
11, 278776, Note_on_c, 0, 45, 100
11, 278967, Note_on_c, 0, 45, 0
11, 279160, Note_on_c, 0, 45, 100
11, 279351, Note_on_c, 0, 45, 0
11, 279736, Note_on_c, 0, 45, 100
11, 279831, Note_on_c, 0, 45, 0
11, 280216, Note_on_c, 0, 57, 100
11, 280311, Note_on_c, 0, 57, 0
11, 280696, Note_on_c, 0, 57, 100
11, 280887, Note_on_c, 0, 57, 0
11, 280888, Note_on_c, 0, 45, 100
11, 280888, Note_on_c, 0, 69, 100
11, 280983, Note_on_c, 0, 69, 0
11, 281079, Note_on_c, 0, 45, 0
11, 281656, Note_on_c, 0, 57, 100
11, 282039, Note_on_c, 0, 57, 0
11, 282232, Note_on_c, 0, 45, 100
11, 282232, Note_on_c, 0, 57, 100
11, 282423, Note_on_c, 0, 45, 0
11, 282612, Note_on_c, 0, 57, 0
11, 283288, Note_on_c, 0, 57, 100
11, 283383, Note_on_c, 0, 57, 0
11, 283384, Note_on_c, 0, 45, 100
11, 283384, Note_on_c, 0, 57, 100
11, 283764, Note_on_c, 0, 57, 0
11, 283959, Note_on_c, 0, 45, 0
11, 283960, Note_on_c, 0, 69, 100
11, 284151, Note_on_c, 0, 69, 0
11, 284152, Note_on_c, 0, 81, 100
11, 284247, Note_on_c, 0, 81, 0
11, 284344, Note_on_c, 0, 57, 100
11, 284440, Note_on_c, 0, 81, 100
11, 284535, Note_on_c, 0, 81, 0
11, 284535, Note_on_c, 0, 57, 0
11, 284728, Note_on_c, 0, 69, 100
11, 284823, Note_on_c, 0, 69, 0
11, 285112, Note_on_c, 0, 81, 100
11, 285207, Note_on_c, 0, 81, 0
11, 285880, Note_on_c, 0, 57, 100
11, 286071, Note_on_c, 0, 57, 0
11, 286072, Note_on_c, 0, 69, 100
11, 286263, Note_on_c, 0, 69, 0
11, 286456, Note_on_c, 0, 69, 100
11, 286647, Note_on_c, 0, 69, 0
11, 287032, Note_on_c, 0, 81, 100
11, 287127, Note_on_c, 0, 81, 0
11, 287512, Note_on_c, 0, 69, 100
11, 287607, Note_on_c, 0, 69, 0
11, 288568, Note_on_c, 0, 69, 100
11, 288663, Note_on_c, 0, 69, 0
11, 288760, Note_on_c, 0, 57, 100
11, 288951, Note_on_c, 0, 57, 0
11, 289720, Note_on_c, 0, 57, 100
11, 289911, Note_on_c, 0, 57, 0
11, 290296, Note_on_c, 0, 57, 100
11, 290487, Note_on_c, 0, 57, 0
11, 290680, Note_on_c, 0, 57, 100
11, 290871, Note_on_c, 0, 57, 0
11, 291064, Note_on_c, 0, 57, 100
11, 291447, Note_on_c, 0, 57, 0
11, 291640, Note_on_c, 0, 57, 100
11, 291640, Note_on_c, 0, 69, 100
11, 291735, Note_on_c, 0, 69, 0
11, 291831, Note_on_c, 0, 57, 0
11, 291928, Note_on_c, 0, 69, 100
11, 292023, Note_on_c, 0, 69, 0
11, 292120, Note_on_c, 0, 69, 100
11, 292215, Note_on_c, 0, 69, 0
11, 292408, Note_on_c, 0, 57, 100
11, 292599, Note_on_c, 0, 57, 0
11, 292888, Note_on_c, 0, 57, 100
11, 292983, Note_on_c, 0, 57, 0
11, 293368, Note_on_c, 0, 57, 100
11, 293559, Note_on_c, 0, 57, 0
11, 293560, Note_on_c, 0, 45, 100
11, 293751, Note_on_c, 0, 45, 0
11, 293944, Note_on_c, 0, 45, 100
11, 294039, Note_on_c, 0, 45, 0
11, 295096, Note_on_c, 0, 57, 100
11, 295287, Note_on_c, 0, 57, 0
11, 295288, Note_on_c, 0, 69, 100
11, 295479, Note_on_c, 0, 69, 0
11, 295672, Note_on_c, 0, 69, 100
11, 295863, Note_on_c, 0, 69, 0
11, 296248, Note_on_c, 0, 69, 100
11, 296343, Note_on_c, 0, 69, 0
11, 296920, Note_on_c, 0, 69, 100
11, 297015, Note_on_c, 0, 69, 0
11, 297592, Note_on_c, 0, 45, 100
11, 297783, Note_on_c, 0, 45, 0
11, 298168, Note_on_c, 0, 45, 100
11, 298263, Note_on_c, 0, 45, 0
11, 298744, Note_on_c, 0, 45, 100
11, 298935, Note_on_c, 0, 45, 0
11, 299416, Note_on_c, 0, 57, 100
11, 299511, Note_on_c, 0, 57, 0
11, 299896, Note_on_c, 0, 57, 100
11, 300088, Note_on_c, 0, 45, 100
11, 300276, Note_on_c, 0, 57, 0
11, 300279, Note_on_c, 0, 45, 0
11, 300280, Note_on_c, 0, 57, 100
11, 300472, Note_on_c, 0, 69, 100
11, 300663, Note_on_c, 0, 69, 0
11, 301047, Note_on_c, 0, 57, 0
11, 301816, Note_on_c, 0, 45, 100
11, 301816, Note_on_c, 0, 57, 100
11, 302296, Note_on_c, 0, 57, 0
11, 302296, Note_on_c, 0, 45, 0
11, 302392, Note_on_c, 0, 57, 100
11, 302583, Note_on_c, 0, 57, 0
11, 302584, Note_on_c, 0, 69, 100
11, 302776, Note_on_c, 0, 57, 100
11, 302967, Note_on_c, 0, 57, 0
11, 303351, Note_on_c, 0, 69, 0
11, 304312, Note_on_c, 0, 69, 100
11, 304503, Note_on_c, 0, 69, 0
11, 304504, Note_on_c, 0, 69, 100
11, 304696, Note_on_c, 0, 57, 100
11, 304887, Note_on_c, 0, 57, 0
11, 305079, Note_on_c, 0, 69, 0
11, 305080, Note_on_c, 0, 69, 100
11, 305271, Note_on_c, 0, 69, 0
11, 306424, Note_on_c, 0, 57, 100
11, 306615, Note_on_c, 0, 57, 0
11, 306808, Note_on_c, 0, 57, 100
11, 306999, Note_on_c, 0, 57, 0
11, 307384, Note_on_c, 0, 57, 100
11, 307479, Note_on_c, 0, 57, 0
11, 307864, Note_on_c, 0, 57, 100
11, 307959, Note_on_c, 0, 57, 0
11, 308344, Note_on_c, 0, 57, 100
11, 308439, Note_on_c, 0, 57, 0
11, 308632, Note_on_c, 0, 57, 100
11, 308727, Note_on_c, 0, 57, 0
11, 308728, Note_on_c, 0, 69, 100
11, 308919, Note_on_c, 0, 69, 0
11, 308920, Note_on_c, 0, 57, 100
11, 309015, Note_on_c, 0, 57, 0
11, 309592, Note_on_c, 0, 57, 100
11, 309687, Note_on_c, 0, 57, 0
11, 310264, Note_on_c, 0, 57, 100
11, 310839, Note_on_c, 0, 57, 0
11, 311416, Note_on_c, 0, 57, 100
11, 311607, Note_on_c, 0, 57, 0
11, 311800, Note_on_c, 0, 57, 100
11, 311991, Note_on_c, 0, 57, 0
11, 311992, Note_on_c, 0, 45, 100
11, 312183, Note_on_c, 0, 45, 0
11, 312376, Note_on_c, 0, 57, 100
11, 312567, Note_on_c, 0, 57, 0
11, 313336, Note_on_c, 0, 69, 100
11, 313527, Note_on_c, 0, 69, 0
11, 313720, Note_on_c, 0, 57, 100
11, 314295, Note_on_c, 0, 57, 0
11, 314296, Note_on_c, 0, 57, 100
11, 314296, Note_on_c, 0, 69, 100
11, 314487, Note_on_c, 0, 69, 0
11, 314487, Note_on_c, 0, 57, 0
11, 315640, Note_on_c, 0, 69, 100
11, 315831, Note_on_c, 0, 69, 0
11, 316600, Note_on_c, 0, 69, 100
11, 316791, Note_on_c, 0, 69, 0
11, 317944, Note_on_c, 0, 57, 100
11, 317944, Note_on_c, 0, 69, 100
11, 318135, Note_on_c, 0, 57, 0
11, 318327, Note_on_c, 0, 69, 0
11, 318328, Note_on_c, 0, 69, 100
11, 318903, Note_on_c, 0, 69, 0
11, 318904, Note_on_c, 0, 57, 100
11, 318904, Note_on_c, 0, 69, 100
11, 319095, Note_on_c, 0, 57, 0
11, 319124, Note_on_c, 0, 69, 0
11, 319768, Note_on_c, 0, 57, 100
11, 319863, Note_on_c, 0, 57, 0
11, 320632, Note_on_c, 0, 69, 100
11, 320824, Note_on_c, 0, 57, 100
11, 320919, Note_on_c, 0, 57, 0
11, 321012, Note_on_c, 0, 69, 0
11, 321208, Note_on_c, 0, 57, 100
11, 321399, Note_on_c, 0, 57, 0
11, 322936, Note_on_c, 0, 57, 100
11, 323320, Note_on_c, 0, 45, 100
11, 323416, Note_on_c, 0, 57, 0
11, 323511, Note_on_c, 0, 45, 0
11, 323992, Note_on_c, 0, 57, 100
11, 324087, Note_on_c, 0, 57, 0
11, 324856, Note_on_c, 0, 57, 100
11, 325239, Note_on_c, 0, 57, 0
11, 325240, Note_on_c, 0, 57, 100
11, 325624, Note_on_c, 0, 45, 100
11, 325720, Note_on_c, 0, 57, 0
11, 325815, Note_on_c, 0, 45, 0
11, 325816, Note_on_c, 0, 57, 100
11, 326007, Note_on_c, 0, 57, 0
11, 326008, Note_on_c, 0, 57, 100
11, 326391, Note_on_c, 0, 57, 0
11, 326392, Note_on_c, 0, 57, 100
11, 326584, Note_on_c, 0, 45, 100
11, 326775, Note_on_c, 0, 45, 0
11, 326872, Note_on_c, 0, 57, 0
11, 326968, Note_on_c, 0, 57, 100
11, 327159, Note_on_c, 0, 57, 0
11, 327448, Note_on_c, 0, 45, 100
11, 327543, Note_on_c, 0, 45, 0
11, 328120, Note_on_c, 0, 45, 100
11, 328120, Note_on_c, 0, 57, 100
11, 328311, Note_on_c, 0, 57, 0
11, 328311, Note_on_c, 0, 45, 0
11, 328312, Note_on_c, 0, 57, 100
11, 328502, Note_on_c, 0, 57, 0
11, 328504, Note_on_c, 0, 57, 100
11, 328599, Note_on_c, 0, 57, 0
11, 329656, Note_on_c, 0, 69, 100
11, 329847, Note_on_c, 0, 69, 0
11, 329848, Note_on_c, 0, 81, 100
11, 330039, Note_on_c, 0, 81, 0
11, 330232, Note_on_c, 0, 81, 100
11, 330423, Note_on_c, 0, 81, 0
11, 330808, Note_on_c, 0, 69, 100
11, 330903, Note_on_c, 0, 69, 0
11, 331960, Note_on_c, 0, 45, 100
11, 332151, Note_on_c, 0, 45, 0
11, 332152, Note_on_c, 0, 57, 100
11, 332343, Note_on_c, 0, 57, 0
11, 332536, Note_on_c, 0, 57, 100
11, 332727, Note_on_c, 0, 57, 0
11, 333112, Note_on_c, 0, 45, 100
11, 333207, Note_on_c, 0, 45, 0
11, 334264, Note_on_c, 0, 57, 100
11, 334455, Note_on_c, 0, 57, 0
11, 334456, Note_on_c, 0, 69, 100
11, 334647, Note_on_c, 0, 69, 0
11, 334840, Note_on_c, 0, 69, 100
11, 335031, Note_on_c, 0, 69, 0
11, 335416, Note_on_c, 0, 69, 100
11, 335511, Note_on_c, 0, 69, 0
11, 337144, Note_on_c, 0, 57, 100
11, 337335, Note_on_c, 0, 57, 0
11, 338104, Note_on_c, 0, 57, 100
11, 338295, Note_on_c, 0, 57, 0
11, 338680, Note_on_c, 0, 57, 100
11, 338871, Note_on_c, 0, 57, 0
11, 339064, Note_on_c, 0, 81, 100
11, 339255, Note_on_c, 0, 81, 0
11, 340024, Note_on_c, 0, 45, 100
11, 340119, Note_on_c, 0, 45, 0
11, 340216, Note_on_c, 0, 45, 100
11, 340216, Note_on_c, 0, 69, 100
11, 340407, Note_on_c, 0, 69, 0
11, 340407, Note_on_c, 0, 45, 0
11, 340792, Note_on_c, 0, 45, 100
11, 340983, Note_on_c, 0, 45, 0
11, 341176, Note_on_c, 0, 81, 100
11, 341271, Note_on_c, 0, 81, 0
11, 341560, Note_on_c, 0, 69, 100
11, 341751, Note_on_c, 0, 69, 0
11, 341848, Note_on_c, 0, 81, 100
11, 341943, Note_on_c, 0, 81, 0
11, 342904, Note_on_c, 0, 57, 100
11, 343095, Note_on_c, 0, 57, 0
11, 343960, Note_on_c, 0, 57, 100
11, 344055, Note_on_c, 0, 57, 0
11, 345208, Note_on_c, 0, 81, 100
11, 345303, Note_on_c, 0, 81, 0
11, 345496, Note_on_c, 0, 81, 100
11, 345591, Note_on_c, 0, 81, 0
11, 345784, Note_on_c, 0, 81, 100
11, 345879, Note_on_c, 0, 81, 0
11, 349816, Note_on_c, 0, 57, 100
11, 350007, Note_on_c, 0, 57, 0
11, 350200, Note_on_c, 0, 69, 100
11, 350391, Note_on_c, 0, 69, 0
11, 350584, Note_on_c, 0, 81, 100
11, 350775, Note_on_c, 0, 81, 0
11, 351160, Note_on_c, 0, 81, 100
11, 351351, Note_on_c, 0, 81, 0
11, 353272, Note_on_c, 0, 69, 100
11, 353367, Note_on_c, 0, 69, 0
11, 354424, Note_on_c, 0, 45, 100
11, 354615, Note_on_c, 0, 45, 0
11, 355960, Note_on_c, 0, 69, 100
11, 356151, Note_on_c, 0, 69, 0
11, 356920, Note_on_c, 0, 69, 100
11, 357111, Note_on_c, 0, 69, 0
11, 358264, Note_on_c, 0, 69, 100
11, 358644, Note_on_c, 0, 69, 0
11, 358648, Note_on_c, 0, 57, 100
11, 358839, Note_on_c, 0, 57, 0
11, 358840, Note_on_c, 0, 69, 100
11, 359031, Note_on_c, 0, 69, 0
11, 359224, Note_on_c, 0, 69, 100
11, 359319, Note_on_c, 0, 69, 0
11, 359704, Note_on_c, 0, 57, 100
11, 359799, Note_on_c, 0, 57, 0
11, 360184, Note_on_c, 0, 69, 100
11, 360279, Note_on_c, 0, 69, 0
11, 360376, Note_on_c, 0, 45, 100
11, 360472, Note_on_c, 0, 69, 100
11, 360567, Note_on_c, 0, 69, 0
11, 360567, Note_on_c, 0, 45, 0
11, 360760, Note_on_c, 0, 57, 100
11, 360855, Note_on_c, 0, 57, 0
11, 362488, Note_on_c, 0, 45, 100
11, 362679, Note_on_c, 0, 45, 0
11, 364408, Note_on_c, 0, 69, 100
11, 364983, Note_on_c, 0, 69, 0
11, 364984, Note_on_c, 0, 69, 100
11, 365175, Note_on_c, 0, 69, 0
11, 366712, Note_on_c, 0, 81, 100
11, 367287, Note_on_c, 0, 81, 0
11, 367288, Note_on_c, 0, 81, 100
11, 367479, Note_on_c, 0, 81, 0
11, 369400, Note_on_c, 0, 57, 100
11, 369591, Note_on_c, 0, 57, 0
11, 372088, Note_on_c, 0, 45, 100
11, 372279, Note_on_c, 0, 45, 0
11, 372472, Note_on_c, 0, 69, 100
11, 372856, Note_on_c, 0, 57, 100
11, 373047, Note_on_c, 0, 57, 0
11, 373047, Note_on_c, 0, 69, 0
11, 373048, Note_on_c, 0, 69, 100
11, 373239, Note_on_c, 0, 69, 0
11, 373240, Note_on_c, 0, 69, 100
11, 373623, Note_on_c, 0, 69, 0
11, 373624, Note_on_c, 0, 69, 100
11, 374199, Note_on_c, 0, 69, 0
11, 374200, Note_on_c, 0, 69, 100
11, 374391, Note_on_c, 0, 69, 0
11, 374776, Note_on_c, 0, 57, 100
11, 374967, Note_on_c, 0, 57, 0
11, 375544, Note_on_c, 0, 69, 100
11, 375735, Note_on_c, 0, 69, 0
11, 376120, Note_on_c, 0, 57, 100
11, 376120, Note_on_c, 0, 81, 100
11, 376215, Note_on_c, 0, 81, 0
11, 376311, Note_on_c, 0, 57, 0
11, 376504, Note_on_c, 0, 69, 100
11, 376599, Note_on_c, 0, 69, 0
11, 378040, Note_on_c, 0, 69, 100
11, 378135, Note_on_c, 0, 69, 0
11, 378424, Note_on_c, 0, 69, 100
11, 378519, Note_on_c, 0, 69, 0
11, 378808, Note_on_c, 0, 69, 100
11, 378903, Note_on_c, 0, 69, 0
11, 379192, Note_on_c, 0, 69, 100
11, 379287, Note_on_c, 0, 69, 0
11, 379576, Note_on_c, 0, 69, 100
11, 379671, Note_on_c, 0, 69, 0
11, 379960, Note_on_c, 0, 69, 100
11, 380055, Note_on_c, 0, 69, 0
11, 380344, Note_on_c, 0, 69, 100
11, 380439, Note_on_c, 0, 69, 0
11, 380728, Note_on_c, 0, 69, 100
11, 380823, Note_on_c, 0, 69, 0
11, 381112, Note_on_c, 0, 69, 100
11, 381207, Note_on_c, 0, 69, 0
11, 382456, Note_on_c, 0, 57, 100
11, 382456, Note_on_c, 0, 69, 100
11, 383031, Note_on_c, 0, 69, 0
11, 383031, Note_on_c, 0, 57, 0
11, 383032, Note_on_c, 0, 57, 100
11, 383223, Note_on_c, 0, 57, 0
11, 383416, Note_on_c, 0, 69, 100
11, 383607, Note_on_c, 0, 69, 0
11, 383992, Note_on_c, 0, 57, 100
11, 383992, Note_on_c, 0, 69, 100
11, 384183, Note_on_c, 0, 57, 0
11, 384372, Note_on_c, 0, 69, 0
11, 384376, Note_on_c, 0, 57, 100
11, 384567, Note_on_c, 0, 57, 0
11, 384952, Note_on_c, 0, 57, 100
11, 385047, Note_on_c, 0, 57, 0
11, 386104, Note_on_c, 0, 69, 100
11, 386295, Note_on_c, 0, 69, 0
11, 386296, Note_on_c, 0, 81, 100
11, 386487, Note_on_c, 0, 81, 0
11, 386680, Note_on_c, 0, 81, 100
11, 386871, Note_on_c, 0, 81, 0
11, 387256, Note_on_c, 0, 69, 100
11, 387351, Note_on_c, 0, 69, 0
11, 388408, Note_on_c, 0, 57, 100
11, 388599, Note_on_c, 0, 57, 0
11, 388600, Note_on_c, 0, 69, 100
11, 388791, Note_on_c, 0, 69, 0
11, 388984, Note_on_c, 0, 69, 100
11, 389175, Note_on_c, 0, 69, 0
11, 389560, Note_on_c, 0, 45, 100
11, 389655, Note_on_c, 0, 45, 0
11, 390712, Note_on_c, 0, 57, 100
11, 390903, Note_on_c, 0, 57, 0
11, 390904, Note_on_c, 0, 69, 100
11, 391095, Note_on_c, 0, 69, 0
11, 391288, Note_on_c, 0, 69, 100
11, 391479, Note_on_c, 0, 69, 0
11, 391480, Note_on_c, 0, 57, 100
11, 391671, Note_on_c, 0, 57, 0
11, 391672, Note_on_c, 0, 57, 100
11, 391864, Note_on_c, 0, 81, 100
11, 391959, Note_on_c, 0, 81, 0
11, 392152, Note_on_c, 0, 57, 0
11, 392248, Note_on_c, 0, 69, 100
11, 392439, Note_on_c, 0, 69, 0
11, 392536, Note_on_c, 0, 81, 100
11, 392631, Note_on_c, 0, 81, 0
11, 393592, Note_on_c, 0, 57, 100
11, 393783, Note_on_c, 0, 57, 0
11, 394744, Note_on_c, 0, 69, 100
11, 394935, Note_on_c, 0, 69, 0
11, 395896, Note_on_c, 0, 69, 100
11, 396087, Note_on_c, 0, 69, 0
11, 397624, Note_on_c, 0, 69, 100
11, 397719, Note_on_c, 0, 69, 0
11, 397720, Note_on_c, 0, 45, 100
11, 397815, Note_on_c, 0, 45, 0
11, 398008, Note_on_c, 0, 69, 100
11, 398391, Note_on_c, 0, 69, 0
11, 398968, Note_on_c, 0, 45, 100
11, 399063, Note_on_c, 0, 45, 0
11, 399160, Note_on_c, 0, 45, 100
11, 399255, Note_on_c, 0, 45, 0
11, 399640, Note_on_c, 0, 45, 100
11, 399735, Note_on_c, 0, 45, 0
11, 400120, Note_on_c, 0, 45, 100
11, 400215, Note_on_c, 0, 45, 0
11, 400312, Note_on_c, 0, 45, 100
11, 400407, Note_on_c, 0, 45, 0
11, 401080, Note_on_c, 0, 69, 100
11, 401175, Note_on_c, 0, 69, 0
11, 401176, Note_on_c, 0, 45, 100
11, 401271, Note_on_c, 0, 45, 0
11, 401560, Note_on_c, 0, 69, 100
11, 401655, Note_on_c, 0, 69, 0
11, 402040, Note_on_c, 0, 69, 100
11, 402136, Note_on_c, 0, 57, 100
11, 402231, Note_on_c, 0, 57, 0
11, 402231, Note_on_c, 0, 69, 0
11, 402712, Note_on_c, 0, 45, 100
11, 402712, Note_on_c, 0, 81, 100
11, 402807, Note_on_c, 0, 81, 0
11, 402807, Note_on_c, 0, 45, 0
11, 403192, Note_on_c, 0, 45, 100
11, 403293, Note_on_c, 0, 69, 100
11, 403383, Note_on_c, 0, 45, 0
11, 403392, Note_on_c, 0, 69, 0
11, 403395, Note_on_c, 0, 81, 100
11, 403494, Note_on_c, 0, 81, 0
11, 403802, Note_on_c, 0, 69, 100
11, 404002, Note_on_c, 0, 69, 0
11, 404005, Note_on_c, 0, 69, 100
11, 404005, Note_on_c, 0, 57, 100
11, 404205, Note_on_c, 0, 57, 0
11, 404209, Note_on_c, 0, 45, 100
11, 404407, Note_on_c, 0, 69, 0
11, 404409, Note_on_c, 0, 45, 0
11, 404412, Note_on_c, 0, 69, 100
11, 404643, Note_on_c, 0, 69, 0
11, 404652, Note_on_c, 0, 81, 100
11, 404757, Note_on_c, 0, 81, 0
11, 405096, Note_on_c, 0, 69, 100
11, 405309, Note_on_c, 0, 69, 0
11, 405318, Note_on_c, 0, 57, 100
11, 405318, Note_on_c, 0, 69, 100
11, 405540, Note_on_c, 0, 45, 100
11, 405790, Note_on_c, 0, 57, 0
11, 405801, Note_on_c, 0, 69, 0
11, 405818, Note_on_c, 0, 45, 0
11, 405837, Note_on_c, 0, 69, 100
11, 407129, Note_on_c, 0, 69, 0
11, 407129, End_track
12, 0, Start_track
12, 0, Title_t, "Harpsichord"
12, 0, Program_c, 0, 6
12, 0, Control_c, 0, 7, 100
12, 0, Control_c, 0, 10, 64
12, 0, Pitch_bend_c, 0, 8032
12, 1628, Note_on_c, 0, 58, 100
12, 1780, Note_on_c, 0, 58, 0
12, 1904, Note_on_c, 0, 58, 100
12, 1994, Note_on_c, 0, 58, 0
12, 2819, Note_on_c, 0, 58, 100
12, 2909, Note_on_c, 0, 58, 0
12, 2910, Note_on_c, 0, 46, 100
12, 3001, Note_on_c, 0, 58, 100
12, 3005, Note_on_c, 0, 46, 0
12, 3105, Note_on_c, 0, 58, 0
12, 3184, Note_on_c, 0, 58, 100
12, 3274, Note_on_c, 0, 58, 0
12, 4121, Note_on_c, 0, 58, 100
12, 4211, Note_on_c, 0, 58, 0
12, 7565, Note_on_c, 0, 82, 100
12, 7647, Note_on_c, 0, 82, 0
12, 8087, Note_on_c, 0, 70, 100
12, 8127, Note_on_c, 0, 70, 0
12, 8171, Note_on_c, 0, 70, 100
12, 8211, Note_on_c, 0, 70, 0
12, 8254, Note_on_c, 0, 70, 100
12, 8294, Note_on_c, 0, 70, 0
12, 8755, Note_on_c, 0, 70, 100
12, 8795, Note_on_c, 0, 70, 0
12, 9262, Note_on_c, 0, 70, 100
12, 9355, Note_on_c, 0, 70, 0
12, 11018, Note_on_c, 0, 58, 100
12, 11209, Note_on_c, 0, 58, 0
12, 14713, Note_on_c, 0, 70, 100
12, 14803, Note_on_c, 0, 70, 0
12, 15170, Note_on_c, 0, 82, 100
12, 15531, Note_on_c, 0, 82, 0
12, 16190, Note_on_c, 0, 70, 100
12, 16419, Note_on_c, 0, 70, 0
12, 24560, Note_on_c, 0, 70, 100
12, 24951, Note_on_c, 0, 70, 0
12, 24960, Note_on_c, 0, 70, 100
12, 25535, Note_on_c, 0, 70, 0
12, 27264, Note_on_c, 0, 70, 100
12, 27455, Note_on_c, 0, 70, 0
12, 29376, Note_on_c, 0, 58, 100
12, 29567, Note_on_c, 0, 58, 0
12, 29952, Note_on_c, 0, 46, 100
12, 30336, Note_on_c, 0, 58, 100
12, 30692, Note_on_c, 0, 46, 0
12, 30719, Note_on_c, 0, 58, 0
12, 31104, Note_on_c, 0, 58, 100
12, 31295, Note_on_c, 0, 58, 0
12, 32456, Note_on_c, 0, 58, 100
12, 32647, Note_on_c, 0, 58, 0
12, 35920, Note_on_c, 0, 46, 100
12, 36111, Note_on_c, 0, 46, 0
12, 36496, Note_on_c, 0, 58, 100
12, 36496, Note_on_c, 0, 46, 100
12, 36687, Note_on_c, 0, 46, 0
12, 37071, Note_on_c, 0, 58, 0
12, 37072, Note_on_c, 0, 58, 100
12, 37263, Note_on_c, 0, 58, 0
12, 40666, Note_on_c, 0, 58, 100
12, 40719, Note_on_c, 0, 58, 0
12, 40720, Note_on_c, 0, 58, 100
12, 41103, Note_on_c, 0, 58, 0
12, 42280, Note_on_c, 0, 46, 100
12, 42663, Note_on_c, 0, 46, 0
12, 43048, Note_on_c, 0, 58, 100
12, 43431, Note_on_c, 0, 58, 0
12, 43816, Note_on_c, 0, 46, 100
12, 44391, Note_on_c, 0, 46, 0
12, 46017, Note_on_c, 0, 58, 100
12, 46087, Note_on_c, 0, 58, 0
12, 48645, Note_on_c, 0, 70, 100
12, 48915, Note_on_c, 0, 70, 0
12, 48919, Note_on_c, 0, 70, 100
12, 49008, Note_on_c, 0, 70, 0
12, 49194, Note_on_c, 0, 70, 100
12, 49468, Note_on_c, 0, 58, 100
12, 49555, Note_on_c, 0, 70, 0
12, 49558, Note_on_c, 0, 58, 0
12, 56448, Note_on_c, 0, 70, 100
12, 57215, Note_on_c, 0, 70, 0
12, 72960, Note_on_c, 0, 70, 100
12, 73151, Note_on_c, 0, 70, 0
12, 73248, Note_on_c, 0, 46, 100
12, 73343, Note_on_c, 0, 46, 0
12, 73536, Note_on_c, 0, 46, 100
12, 73727, Note_on_c, 0, 46, 0
12, 74112, Note_on_c, 0, 46, 100
12, 74303, Note_on_c, 0, 46, 0
12, 76032, Note_on_c, 0, 70, 100
12, 76415, Note_on_c, 0, 70, 0
12, 77184, Note_on_c, 0, 58, 100
12, 77375, Note_on_c, 0, 58, 0
12, 78720, Note_on_c, 0, 70, 100
12, 79487, Note_on_c, 0, 70, 0
12, 80160, Note_on_c, 0, 70, 100
12, 80255, Note_on_c, 0, 70, 0
12, 81216, Note_on_c, 0, 70, 100
12, 81391, Note_on_c, 0, 70, 0
12, 83328, Note_on_c, 0, 70, 100
12, 84095, Note_on_c, 0, 70, 0
12, 88704, Note_on_c, 0, 46, 100
12, 88895, Note_on_c, 0, 46, 0
12, 90624, Note_on_c, 0, 46, 100
12, 90815, Note_on_c, 0, 46, 0
12, 90912, Note_on_c, 0, 58, 100
12, 91007, Note_on_c, 0, 58, 0
12, 91200, Note_on_c, 0, 58, 100
12, 91391, Note_on_c, 0, 58, 0
12, 92160, Note_on_c, 0, 46, 100
12, 92351, Note_on_c, 0, 46, 0
12, 92448, Note_on_c, 0, 70, 100
12, 92543, Note_on_c, 0, 70, 0
12, 92736, Note_on_c, 0, 70, 100
12, 92927, Note_on_c, 0, 70, 0
12, 93696, Note_on_c, 0, 58, 100
12, 93887, Note_on_c, 0, 58, 0
12, 93984, Note_on_c, 0, 82, 100
12, 94079, Note_on_c, 0, 82, 0
12, 94272, Note_on_c, 0, 82, 100
12, 94463, Note_on_c, 0, 82, 0
12, 94848, Note_on_c, 0, 82, 100
12, 95040, Note_on_c, 0, 70, 100
12, 95231, Note_on_c, 0, 70, 0
12, 95615, Note_on_c, 0, 82, 0
12, 96000, Note_on_c, 0, 58, 100
12, 96191, Note_on_c, 0, 58, 0
12, 96768, Note_on_c, 0, 70, 100
12, 96959, Note_on_c, 0, 70, 0
12, 97056, Note_on_c, 0, 58, 100
12, 97151, Note_on_c, 0, 58, 0
12, 97344, Note_on_c, 0, 58, 100
12, 97535, Note_on_c, 0, 58, 0
12, 97920, Note_on_c, 0, 58, 100
12, 98111, Note_on_c, 0, 58, 0
12, 100416, Note_on_c, 0, 70, 100
12, 100511, Note_on_c, 0, 70, 0
12, 100608, Note_on_c, 0, 46, 100
12, 100799, Note_on_c, 0, 46, 0
12, 101184, Note_on_c, 0, 46, 100
12, 101375, Note_on_c, 0, 46, 0
12, 101760, Note_on_c, 0, 58, 100
12, 101760, Note_on_c, 0, 46, 100
12, 101951, Note_on_c, 0, 46, 0
12, 102527, Note_on_c, 0, 58, 0
12, 103488, Note_on_c, 0, 58, 100
12, 103583, Note_on_c, 0, 58, 0
12, 105024, Note_on_c, 0, 82, 100
12, 105119, Note_on_c, 0, 82, 0
12, 106752, Note_on_c, 0, 58, 100
12, 106943, Note_on_c, 0, 58, 0
12, 107328, Note_on_c, 0, 58, 100
12, 107519, Note_on_c, 0, 58, 0
12, 107904, Note_on_c, 0, 70, 100
12, 108096, Note_on_c, 0, 58, 100
12, 108191, Note_on_c, 0, 58, 0
12, 108671, Note_on_c, 0, 70, 0
12, 109440, Note_on_c, 0, 70, 100
12, 109823, Note_on_c, 0, 70, 0
12, 110016, Note_on_c, 0, 46, 100
12, 110111, Note_on_c, 0, 46, 0
12, 110592, Note_on_c, 0, 58, 100
12, 110972, Note_on_c, 0, 58, 0
12, 111552, Note_on_c, 0, 58, 100
12, 111552, Note_on_c, 0, 46, 100
12, 111647, Note_on_c, 0, 46, 0
12, 111647, Note_on_c, 0, 58, 0
12, 112128, Note_on_c, 0, 58, 100
12, 112319, Note_on_c, 0, 58, 0
12, 112704, Note_on_c, 0, 58, 100
12, 112895, Note_on_c, 0, 58, 0
12, 113088, Note_on_c, 0, 70, 100
12, 113088, Note_on_c, 0, 58, 100
12, 113183, Note_on_c, 0, 58, 0
12, 113183, Note_on_c, 0, 70, 0
12, 113664, Note_on_c, 0, 70, 100
12, 113855, Note_on_c, 0, 70, 0
12, 113952, Note_on_c, 0, 58, 100
12, 114047, Note_on_c, 0, 58, 0
12, 114624, Note_on_c, 0, 70, 100
12, 114719, Note_on_c, 0, 70, 0
12, 114816, Note_on_c, 0, 58, 100
12, 115008, Note_on_c, 0, 46, 100
12, 115199, Note_on_c, 0, 46, 0
12, 115391, Note_on_c, 0, 58, 0
12, 115488, Note_on_c, 0, 82, 100
12, 115583, Note_on_c, 0, 82, 0
12, 115584, Note_on_c, 0, 82, 100
12, 115647, Note_on_c, 0, 82, 0
12, 115680, Note_on_c, 0, 82, 100
12, 115711, Note_on_c, 0, 82, 0
12, 115744, Note_on_c, 0, 82, 100
12, 115775, Note_on_c, 0, 82, 0
12, 115872, Note_on_c, 0, 82, 100
12, 115967, Note_on_c, 0, 82, 0
12, 115968, Note_on_c, 0, 82, 100
12, 115968, Note_on_c, 0, 58, 100
12, 116148, Note_on_c, 0, 82, 0
12, 116348, Note_on_c, 0, 58, 0
12, 116928, Note_on_c, 0, 70, 100
12, 116928, Note_on_c, 0, 58, 100
12, 117023, Note_on_c, 0, 58, 0
12, 117023, Note_on_c, 0, 70, 0
12, 117504, Note_on_c, 0, 70, 100
12, 117599, Note_on_c, 0, 70, 0
12, 117696, Note_on_c, 0, 70, 100
12, 117791, Note_on_c, 0, 70, 0
12, 117888, Note_on_c, 0, 58, 100
12, 118079, Note_on_c, 0, 58, 0
12, 118464, Note_on_c, 0, 58, 100
12, 118655, Note_on_c, 0, 58, 0
12, 119040, Note_on_c, 0, 58, 100
12, 119136, Note_on_c, 0, 70, 100
12, 119231, Note_on_c, 0, 70, 0
12, 119231, Note_on_c, 0, 58, 0
12, 119328, Note_on_c, 0, 70, 100
12, 119423, Note_on_c, 0, 70, 0
12, 119520, Note_on_c, 0, 70, 100
12, 119615, Note_on_c, 0, 70, 0
12, 119712, Note_on_c, 0, 70, 100
12, 119807, Note_on_c, 0, 70, 0
12, 120576, Note_on_c, 0, 70, 100
12, 120671, Note_on_c, 0, 70, 0
12, 120960, Note_on_c, 0, 70, 100
12, 121343, Note_on_c, 0, 70, 0
12, 121536, Note_on_c, 0, 46, 100
12, 121631, Note_on_c, 0, 46, 0
12, 122112, Note_on_c, 0, 46, 100
12, 122303, Note_on_c, 0, 46, 0
12, 123264, Note_on_c, 0, 58, 100
12, 123444, Note_on_c, 0, 58, 0
12, 124800, Note_on_c, 0, 46, 100
12, 124991, Note_on_c, 0, 46, 0
12, 125088, Note_on_c, 0, 46, 100
12, 125183, Note_on_c, 0, 46, 0
12, 125376, Note_on_c, 0, 46, 100
12, 125471, Note_on_c, 0, 46, 0
12, 125952, Note_on_c, 0, 46, 100
12, 126143, Note_on_c, 0, 46, 0
12, 127104, Note_on_c, 0, 58, 100
12, 127295, Note_on_c, 0, 58, 0
12, 127968, Note_on_c, 0, 70, 100
12, 128063, Note_on_c, 0, 70, 0
12, 129984, Note_on_c, 0, 70, 100
12, 129984, Note_on_c, 0, 46, 100
12, 130079, Note_on_c, 0, 46, 0
12, 130079, Note_on_c, 0, 70, 0
12, 130560, Note_on_c, 0, 70, 100
12, 130751, Note_on_c, 0, 70, 0
12, 131136, Note_on_c, 0, 70, 100
12, 131327, Note_on_c, 0, 70, 0
12, 131712, Note_on_c, 0, 58, 100
12, 131903, Note_on_c, 0, 58, 0
12, 133440, Note_on_c, 0, 82, 100
12, 133535, Note_on_c, 0, 82, 0
12, 137472, Note_on_c, 0, 58, 100
12, 137663, Note_on_c, 0, 58, 0
12, 137760, Note_on_c, 0, 46, 100
12, 137855, Note_on_c, 0, 46, 0
12, 138144, Note_on_c, 0, 58, 100
12, 138239, Note_on_c, 0, 58, 0
12, 138624, Note_on_c, 0, 46, 100
12, 138815, Note_on_c, 0, 46, 0
12, 141888, Note_on_c, 0, 58, 100
12, 141983, Note_on_c, 0, 58, 0
12, 143616, Note_on_c, 0, 70, 100
12, 143996, Note_on_c, 0, 70, 0
12, 144768, Note_on_c, 0, 58, 100
12, 144960, Note_on_c, 0, 70, 100
12, 144960, Note_on_c, 0, 46, 100
12, 145055, Note_on_c, 0, 70, 0
12, 145148, Note_on_c, 0, 58, 0
12, 145151, Note_on_c, 0, 46, 0
12, 145344, Note_on_c, 0, 58, 100
12, 145439, Note_on_c, 0, 58, 0
12, 146496, Note_on_c, 0, 46, 100
12, 146687, Note_on_c, 0, 46, 0
12, 148032, Note_on_c, 0, 70, 100
12, 148127, Note_on_c, 0, 70, 0
12, 150528, Note_on_c, 0, 58, 100
12, 150623, Note_on_c, 0, 58, 0
12, 150816, Note_on_c, 0, 58, 100
12, 150911, Note_on_c, 0, 58, 0
12, 151680, Note_on_c, 0, 58, 100
12, 151775, Note_on_c, 0, 58, 0
12, 153216, Note_on_c, 0, 70, 100
12, 153599, Note_on_c, 0, 70, 0
12, 153696, Note_on_c, 0, 58, 100
12, 153791, Note_on_c, 0, 58, 0
12, 157440, Note_on_c, 0, 70, 100
12, 157535, Note_on_c, 0, 70, 0
12, 158976, Note_on_c, 0, 58, 100
12, 159168, Note_on_c, 0, 70, 100
12, 159263, Note_on_c, 0, 70, 0
12, 159456, Note_on_c, 0, 58, 0
12, 160032, Note_on_c, 0, 70, 100
12, 160127, Note_on_c, 0, 70, 0
12, 165976, Note_on_c, 0, 58, 100
12, 166359, Note_on_c, 0, 58, 0
12, 167135, Note_on_c, 0, 70, 100
12, 167902, Note_on_c, 0, 70, 0
12, 170136, Note_on_c, 0, 58, 100
12, 170423, Note_on_c, 0, 58, 0
12, 171000, Note_on_c, 0, 58, 100
12, 171767, Note_on_c, 0, 58, 0
12, 172544, Note_on_c, 0, 46, 100
12, 172653, Note_on_c, 0, 46, 0
12, 172752, Note_on_c, 0, 46, 100
12, 172847, Note_on_c, 0, 46, 0
12, 176016, Note_on_c, 0, 46, 100
12, 176783, Note_on_c, 0, 46, 0
12, 181800, Note_on_c, 0, 70, 100
12, 182180, Note_on_c, 0, 70, 0
12, 183912, Note_on_c, 0, 46, 100
12, 184007, Note_on_c, 0, 46, 0
12, 184896, Note_on_c, 0, 58, 100
12, 185504, Note_on_c, 0, 70, 100
12, 185599, Note_on_c, 0, 70, 0
12, 186256, Note_on_c, 0, 70, 100
12, 186346, Note_on_c, 0, 70, 0
12, 186352, Note_on_c, 0, 70, 100
12, 186399, Note_on_c, 0, 70, 0
12, 186426, Note_on_c, 0, 58, 0
12, 187768, Note_on_c, 0, 58, 100
12, 187863, Note_on_c, 0, 58, 0
12, 192000, Note_on_c, 0, 58, 100
12, 192000, Note_on_c, 0, 46, 100
12, 192576, Note_on_c, 0, 70, 100
12, 192681, Note_on_c, 0, 70, 0
12, 192767, Note_on_c, 0, 46, 0
12, 192767, Note_on_c, 0, 58, 0
12, 193238, Note_on_c, 0, 70, 100
12, 193299, Note_on_c, 0, 70, 0
12, 193664, Note_on_c, 0, 70, 100
12, 194253, Note_on_c, 0, 58, 100
12, 194337, Note_on_c, 0, 58, 0
12, 194604, Note_on_c, 0, 70, 0
12, 194816, Note_on_c, 0, 46, 100
12, 194879, Note_on_c, 0, 46, 0
12, 195136, Note_on_c, 0, 46, 100
12, 195199, Note_on_c, 0, 46, 0
12, 195712, Note_on_c, 0, 70, 100
12, 195791, Note_on_c, 0, 70, 0
12, 196320, Note_on_c, 0, 58, 100
12, 196415, Note_on_c, 0, 58, 0
12, 198144, Note_on_c, 0, 70, 100
12, 198304, Note_on_c, 0, 70, 0
12, 198432, Note_on_c, 0, 70, 100
12, 198527, Note_on_c, 0, 70, 0
12, 198528, Note_on_c, 0, 70, 100
12, 198808, Note_on_c, 0, 70, 0
12, 198816, Note_on_c, 0, 70, 100
12, 198911, Note_on_c, 0, 70, 0
12, 198912, Note_on_c, 0, 70, 100
12, 199007, Note_on_c, 0, 70, 0
12, 199008, Note_on_c, 0, 70, 100
12, 199103, Note_on_c, 0, 70, 0
12, 199200, Note_on_c, 0, 70, 100
12, 199295, Note_on_c, 0, 70, 0
12, 199296, Note_on_c, 0, 70, 100
12, 199576, Note_on_c, 0, 70, 0
12, 201984, Note_on_c, 0, 58, 100
12, 202079, Note_on_c, 0, 58, 0
12, 202080, Note_on_c, 0, 58, 100
12, 202175, Note_on_c, 0, 58, 0
12, 202272, Note_on_c, 0, 58, 100
12, 202367, Note_on_c, 0, 58, 0
12, 202368, Note_on_c, 0, 58, 100
12, 202655, Note_on_c, 0, 58, 0
12, 203520, Note_on_c, 0, 82, 100
12, 203520, Note_on_c, 0, 70, 100
12, 203712, Note_on_c, 0, 58, 100
12, 203807, Note_on_c, 0, 58, 0
12, 204000, Note_on_c, 0, 70, 0
12, 204000, Note_on_c, 0, 82, 0
12, 204096, Note_on_c, 0, 82, 100
12, 204096, Note_on_c, 0, 70, 100
12, 204287, Note_on_c, 0, 70, 0
12, 204287, Note_on_c, 0, 82, 0
12, 205824, Note_on_c, 0, 70, 100
12, 205824, Note_on_c, 0, 58, 100
12, 206304, Note_on_c, 0, 58, 0
12, 206304, Note_on_c, 0, 70, 0
12, 206400, Note_on_c, 0, 70, 100
12, 206400, Note_on_c, 0, 58, 100
12, 206590, Note_on_c, 0, 70, 0
12, 206591, Note_on_c, 0, 58, 0
12, 206592, Note_on_c, 0, 70, 100
12, 206592, Note_on_c, 0, 58, 100
12, 207072, Note_on_c, 0, 58, 0
12, 207072, Note_on_c, 0, 70, 0
12, 207168, Note_on_c, 0, 70, 100
12, 207168, Note_on_c, 0, 58, 100
12, 207358, Note_on_c, 0, 70, 0
12, 207359, Note_on_c, 0, 58, 0
12, 207360, Note_on_c, 0, 70, 100
12, 207840, Note_on_c, 0, 70, 0
12, 207936, Note_on_c, 0, 70, 100
12, 208127, Note_on_c, 0, 70, 0
12, 210432, Note_on_c, 0, 70, 100
12, 210432, Note_on_c, 0, 58, 100
12, 210622, Note_on_c, 0, 70, 0
12, 210720, Note_on_c, 0, 70, 100
12, 210815, Note_on_c, 0, 70, 0
12, 210816, Note_on_c, 0, 70, 100
12, 210912, Note_on_c, 0, 58, 0
12, 211008, Note_on_c, 0, 58, 100
12, 211096, Note_on_c, 0, 70, 0
12, 211104, Note_on_c, 0, 70, 100
12, 211199, Note_on_c, 0, 70, 0
12, 211199, Note_on_c, 0, 58, 0
12, 211200, Note_on_c, 0, 70, 100
12, 211295, Note_on_c, 0, 70, 0
12, 211296, Note_on_c, 0, 70, 100
12, 211391, Note_on_c, 0, 70, 0
12, 211488, Note_on_c, 0, 70, 100
12, 211583, Note_on_c, 0, 70, 0
12, 211584, Note_on_c, 0, 70, 100
12, 211775, Note_on_c, 0, 70, 0
12, 211776, Note_on_c, 0, 70, 100
12, 211871, Note_on_c, 0, 70, 0
12, 215712, Note_on_c, 0, 70, 100
12, 215807, Note_on_c, 0, 70, 0
12, 215808, Note_on_c, 0, 70, 100
12, 215978, Note_on_c, 0, 70, 0
12, 216000, Note_on_c, 0, 70, 100
12, 216095, Note_on_c, 0, 70, 0
12, 216384, Note_on_c, 0, 58, 100
12, 216575, Note_on_c, 0, 58, 0
12, 216576, Note_on_c, 0, 58, 100
12, 216768, Note_on_c, 0, 70, 100
12, 216863, Note_on_c, 0, 70, 0
12, 217056, Note_on_c, 0, 58, 0
12, 217928, Note_on_c, 0, 70, 100
12, 218023, Note_on_c, 0, 70, 0
12, 218120, Note_on_c, 0, 58, 100
12, 218215, Note_on_c, 0, 58, 0
12, 218216, Note_on_c, 0, 58, 100
12, 218311, Note_on_c, 0, 58, 0
12, 218312, Note_on_c, 0, 70, 100
12, 218407, Note_on_c, 0, 70, 0
12, 218408, Note_on_c, 0, 58, 100
12, 218503, Note_on_c, 0, 58, 0
12, 220432, Note_on_c, 0, 70, 100
12, 220527, Note_on_c, 0, 70, 0
12, 220528, Note_on_c, 0, 70, 100
12, 220623, Note_on_c, 0, 70, 0
12, 220720, Note_on_c, 0, 70, 100
12, 220815, Note_on_c, 0, 70, 0
12, 220816, Note_on_c, 0, 70, 100
12, 220911, Note_on_c, 0, 70, 0
12, 221104, Note_on_c, 0, 70, 100
12, 221187, Note_on_c, 0, 70, 0
12, 222736, Note_on_c, 0, 58, 100
12, 222928, Note_on_c, 0, 70, 100
12, 223023, Note_on_c, 0, 70, 0
12, 223216, Note_on_c, 0, 58, 0
12, 223312, Note_on_c, 0, 58, 100
12, 223503, Note_on_c, 0, 58, 0
12, 223504, Note_on_c, 0, 58, 100
12, 223696, Note_on_c, 0, 70, 100
12, 223791, Note_on_c, 0, 70, 0
12, 223984, Note_on_c, 0, 58, 0
12, 225786, Note_on_c, 0, 46, 100
12, 226166, Note_on_c, 0, 46, 0
12, 226336, Note_on_c, 0, 58, 100
12, 226430, Note_on_c, 0, 58, 0
12, 239128, Note_on_c, 0, 58, 100
12, 239223, Note_on_c, 0, 58, 0
12, 239608, Note_on_c, 0, 58, 100
12, 240088, Note_on_c, 0, 58, 0
12, 240568, Note_on_c, 0, 58, 100
12, 240759, Note_on_c, 0, 58, 0
12, 241144, Note_on_c, 0, 58, 100
12, 241335, Note_on_c, 0, 58, 0
12, 241720, Note_on_c, 0, 58, 100
12, 241911, Note_on_c, 0, 58, 0
12, 243064, Note_on_c, 0, 58, 100
12, 243255, Note_on_c, 0, 58, 0
12, 255352, Note_on_c, 0, 46, 100
12, 255543, Note_on_c, 0, 46, 0
12, 256888, Note_on_c, 0, 46, 100
12, 257079, Note_on_c, 0, 46, 0
12, 257464, Note_on_c, 0, 46, 100
12, 257655, Note_on_c, 0, 46, 0
12, 257656, Note_on_c, 0, 58, 100
12, 258039, Note_on_c, 0, 58, 0
12, 259192, Note_on_c, 0, 70, 100
12, 259572, Note_on_c, 0, 70, 0
12, 259576, Note_on_c, 0, 46, 100
12, 259767, Note_on_c, 0, 46, 0
12, 259768, Note_on_c, 0, 70, 100
12, 259863, Note_on_c, 0, 70, 0
12, 260632, Note_on_c, 0, 46, 100
12, 260727, Note_on_c, 0, 46, 0
12, 261112, Note_on_c, 0, 46, 100
12, 261592, Note_on_c, 0, 46, 0
12, 261688, Note_on_c, 0, 58, 100
12, 261783, Note_on_c, 0, 58, 0
12, 263416, Note_on_c, 0, 58, 100
12, 263607, Note_on_c, 0, 58, 0
12, 278584, Note_on_c, 0, 46, 100
12, 278679, Note_on_c, 0, 46, 0
12, 279064, Note_on_c, 0, 46, 100
12, 279159, Note_on_c, 0, 46, 0
12, 279544, Note_on_c, 0, 46, 100
12, 279639, Note_on_c, 0, 46, 0
12, 279736, Note_on_c, 0, 70, 100
12, 279832, Note_on_c, 0, 46, 100
12, 279927, Note_on_c, 0, 46, 0
12, 279927, Note_on_c, 0, 70, 0
12, 284248, Note_on_c, 0, 82, 100
12, 284343, Note_on_c, 0, 82, 0
12, 285496, Note_on_c, 0, 82, 100
12, 285687, Note_on_c, 0, 82, 0
12, 288568, Note_on_c, 0, 58, 100
12, 288759, Note_on_c, 0, 58, 0
12, 289144, Note_on_c, 0, 58, 100
12, 289335, Note_on_c, 0, 58, 0
12, 289528, Note_on_c, 0, 58, 100
12, 289719, Note_on_c, 0, 58, 0
12, 290872, Note_on_c, 0, 58, 100
12, 291063, Note_on_c, 0, 58, 0
12, 291448, Note_on_c, 0, 58, 100
12, 291448, Note_on_c, 0, 70, 100
12, 291639, Note_on_c, 0, 70, 0
12, 291639, Note_on_c, 0, 58, 0
12, 291832, Note_on_c, 0, 58, 100
12, 292023, Note_on_c, 0, 58, 0
12, 292024, Note_on_c, 0, 70, 100
12, 292119, Note_on_c, 0, 70, 0
12, 292792, Note_on_c, 0, 58, 100
12, 292887, Note_on_c, 0, 58, 0
12, 296824, Note_on_c, 0, 46, 100
12, 297015, Note_on_c, 0, 46, 0
12, 297400, Note_on_c, 0, 46, 100
12, 297495, Note_on_c, 0, 46, 0
12, 297976, Note_on_c, 0, 46, 100
12, 298071, Note_on_c, 0, 46, 0
12, 298264, Note_on_c, 0, 46, 100
12, 298359, Note_on_c, 0, 46, 0
12, 306232, Note_on_c, 0, 58, 100
12, 306327, Note_on_c, 0, 58, 0
12, 306712, Note_on_c, 0, 58, 100
12, 306807, Note_on_c, 0, 58, 0
12, 307192, Note_on_c, 0, 58, 100
12, 307287, Note_on_c, 0, 58, 0
12, 307480, Note_on_c, 0, 58, 100
12, 307575, Note_on_c, 0, 58, 0
12, 307576, Note_on_c, 0, 70, 100
12, 307767, Note_on_c, 0, 70, 0
12, 307768, Note_on_c, 0, 58, 100
12, 307863, Note_on_c, 0, 58, 0
12, 308440, Note_on_c, 0, 58, 100
12, 308535, Note_on_c, 0, 58, 0
12, 310072, Note_on_c, 0, 58, 100
12, 310263, Note_on_c, 0, 58, 0
12, 311608, Note_on_c, 0, 70, 100
12, 311799, Note_on_c, 0, 70, 0
12, 312568, Note_on_c, 0, 46, 100
12, 312568, Note_on_c, 0, 58, 100
12, 312759, Note_on_c, 0, 46, 0
12, 312951, Note_on_c, 0, 58, 0
12, 312952, Note_on_c, 0, 58, 100
12, 313143, Note_on_c, 0, 58, 0
12, 314488, Note_on_c, 0, 70, 100
12, 314679, Note_on_c, 0, 70, 0
12, 314872, Note_on_c, 0, 70, 100
12, 315063, Note_on_c, 0, 70, 0
12, 316792, Note_on_c, 0, 70, 100
12, 317172, Note_on_c, 0, 70, 0
12, 317176, Note_on_c, 0, 58, 100
12, 317367, Note_on_c, 0, 58, 0
12, 317560, Note_on_c, 0, 70, 100
12, 317943, Note_on_c, 0, 70, 0
12, 319096, Note_on_c, 0, 58, 100
12, 319480, Note_on_c, 0, 70, 100
12, 319671, Note_on_c, 0, 58, 0
12, 319672, Note_on_c, 0, 58, 100
12, 319767, Note_on_c, 0, 58, 0
12, 319860, Note_on_c, 0, 70, 0
12, 320056, Note_on_c, 0, 58, 100
12, 320247, Note_on_c, 0, 58, 0
12, 321592, Note_on_c, 0, 58, 100
12, 322167, Note_on_c, 0, 58, 0
12, 323704, Note_on_c, 0, 58, 100
12, 323894, Note_on_c, 0, 58, 0
12, 323896, Note_on_c, 0, 58, 100
12, 323991, Note_on_c, 0, 58, 0
12, 324088, Note_on_c, 0, 58, 100
12, 324278, Note_on_c, 0, 58, 0
12, 324280, Note_on_c, 0, 58, 100
12, 324660, Note_on_c, 0, 58, 0
12, 327160, Note_on_c, 0, 58, 100
12, 327352, Note_on_c, 0, 46, 100
12, 327447, Note_on_c, 0, 46, 0
12, 327543, Note_on_c, 0, 58, 0
12, 327544, Note_on_c, 0, 58, 100
12, 327736, Note_on_c, 0, 46, 100
12, 327927, Note_on_c, 0, 46, 0
12, 328024, Note_on_c, 0, 58, 0
12, 335992, Note_on_c, 0, 46, 100
12, 336183, Note_on_c, 0, 46, 0
12, 337048, Note_on_c, 0, 58, 100
12, 337143, Note_on_c, 0, 58, 0
12, 337528, Note_on_c, 0, 58, 100
12, 338103, Note_on_c, 0, 58, 0
12, 338488, Note_on_c, 0, 58, 100
12, 338679, Note_on_c, 0, 58, 0
12, 338872, Note_on_c, 0, 82, 100
12, 339063, Note_on_c, 0, 82, 0
12, 339832, Note_on_c, 0, 46, 100
12, 340023, Note_on_c, 0, 46, 0
12, 341752, Note_on_c, 0, 58, 100
12, 341943, Note_on_c, 0, 58, 0
12, 343288, Note_on_c, 0, 58, 100
12, 343768, Note_on_c, 0, 58, 0
12, 343864, Note_on_c, 0, 58, 100
12, 343864, Note_on_c, 0, 70, 100
12, 343959, Note_on_c, 0, 58, 0
12, 344055, Note_on_c, 0, 70, 0
12, 344824, Note_on_c, 0, 70, 100
12, 345015, Note_on_c, 0, 70, 0
12, 345016, Note_on_c, 0, 82, 100
12, 345207, Note_on_c, 0, 82, 0
12, 345304, Note_on_c, 0, 82, 100
12, 345399, Note_on_c, 0, 82, 0
12, 349720, Note_on_c, 0, 58, 100
12, 349815, Note_on_c, 0, 58, 0
12, 350488, Note_on_c, 0, 82, 100
12, 350583, Note_on_c, 0, 82, 0
12, 351352, Note_on_c, 0, 46, 100
12, 351632, Note_on_c, 0, 46, 0
12, 352120, Note_on_c, 0, 46, 100
12, 352400, Note_on_c, 0, 46, 0
12, 352888, Note_on_c, 0, 70, 100
12, 352983, Note_on_c, 0, 70, 0
12, 353656, Note_on_c, 0, 70, 100
12, 353847, Note_on_c, 0, 70, 0
12, 355192, Note_on_c, 0, 58, 100
12, 355383, Note_on_c, 0, 58, 0
12, 357112, Note_on_c, 0, 70, 100
12, 357492, Note_on_c, 0, 70, 0
12, 357496, Note_on_c, 0, 58, 100
12, 357687, Note_on_c, 0, 58, 0
12, 357688, Note_on_c, 0, 70, 100
12, 357879, Note_on_c, 0, 70, 0
12, 358072, Note_on_c, 0, 70, 100
12, 358167, Note_on_c, 0, 70, 0
12, 358552, Note_on_c, 0, 58, 100
12, 358647, Note_on_c, 0, 58, 0
12, 359032, Note_on_c, 0, 70, 100
12, 359127, Note_on_c, 0, 70, 0
12, 359224, Note_on_c, 0, 46, 100
12, 359320, Note_on_c, 0, 70, 100
12, 359415, Note_on_c, 0, 70, 0
12, 359415, Note_on_c, 0, 46, 0
12, 359608, Note_on_c, 0, 58, 100
12, 359703, Note_on_c, 0, 58, 0
12, 360280, Note_on_c, 0, 70, 100
12, 360375, Note_on_c, 0, 70, 0
12, 362872, Note_on_c, 0, 46, 100
12, 362872, Note_on_c, 0, 58, 100
12, 363252, Note_on_c, 0, 58, 0
12, 363447, Note_on_c, 0, 46, 0
12, 363448, Note_on_c, 0, 58, 100
12, 363639, Note_on_c, 0, 58, 0
12, 363640, Note_on_c, 0, 70, 100
12, 363832, Note_on_c, 0, 58, 100
12, 364023, Note_on_c, 0, 58, 0
12, 364407, Note_on_c, 0, 70, 0
12, 365176, Note_on_c, 0, 58, 100
12, 365176, Note_on_c, 0, 70, 100
12, 365367, Note_on_c, 0, 70, 0
12, 365556, Note_on_c, 0, 58, 0
12, 365752, Note_on_c, 0, 70, 100
12, 365943, Note_on_c, 0, 70, 0
12, 365944, Note_on_c, 0, 82, 100
12, 366136, Note_on_c, 0, 58, 100
12, 366327, Note_on_c, 0, 58, 0
12, 366711, Note_on_c, 0, 82, 0
12, 367480, Note_on_c, 0, 70, 100
12, 367480, Note_on_c, 0, 82, 100
12, 367671, Note_on_c, 0, 82, 0
12, 367860, Note_on_c, 0, 70, 0
12, 369304, Note_on_c, 0, 58, 100
12, 369399, Note_on_c, 0, 58, 0
12, 369784, Note_on_c, 0, 58, 100
12, 370264, Note_on_c, 0, 58, 0
12, 371704, Note_on_c, 0, 58, 100
12, 371895, Note_on_c, 0, 58, 0
12, 371896, Note_on_c, 0, 46, 100
12, 372087, Note_on_c, 0, 46, 0
12, 373624, Note_on_c, 0, 58, 100
12, 373815, Note_on_c, 0, 58, 0
12, 374200, Note_on_c, 0, 58, 100
12, 374391, Note_on_c, 0, 58, 0
12, 380248, Note_on_c, 0, 70, 100
12, 380343, Note_on_c, 0, 70, 0
12, 380440, Note_on_c, 0, 70, 100
12, 380535, Note_on_c, 0, 70, 0
12, 380632, Note_on_c, 0, 70, 100
12, 380727, Note_on_c, 0, 70, 0
12, 380824, Note_on_c, 0, 70, 100
12, 380919, Note_on_c, 0, 70, 0
12, 381016, Note_on_c, 0, 70, 100
12, 381111, Note_on_c, 0, 70, 0
12, 381208, Note_on_c, 0, 70, 100
12, 381303, Note_on_c, 0, 70, 0
12, 383608, Note_on_c, 0, 70, 100
12, 383799, Note_on_c, 0, 70, 0
12, 388024, Note_on_c, 0, 82, 100
12, 388215, Note_on_c, 0, 82, 0
12, 393976, Note_on_c, 0, 58, 100
12, 394456, Note_on_c, 0, 58, 0
12, 394552, Note_on_c, 0, 70, 100
12, 394743, Note_on_c, 0, 70, 0
12, 395128, Note_on_c, 0, 70, 100
12, 395508, Note_on_c, 0, 70, 0
12, 395704, Note_on_c, 0, 70, 100
12, 395895, Note_on_c, 0, 70, 0
12, 396280, Note_on_c, 0, 70, 100
12, 396660, Note_on_c, 0, 70, 0
12, 396664, Note_on_c, 0, 70, 100
12, 396855, Note_on_c, 0, 70, 0
12, 397240, Note_on_c, 0, 70, 100
12, 397623, Note_on_c, 0, 70, 0
12, 398872, Note_on_c, 0, 46, 100
12, 398967, Note_on_c, 0, 46, 0
12, 399352, Note_on_c, 0, 46, 100
12, 399447, Note_on_c, 0, 46, 0
12, 399544, Note_on_c, 0, 46, 100
12, 399639, Note_on_c, 0, 46, 0
12, 399832, Note_on_c, 0, 46, 100
12, 399927, Note_on_c, 0, 46, 0
12, 400504, Note_on_c, 0, 46, 100
12, 400599, Note_on_c, 0, 46, 0
12, 401464, Note_on_c, 0, 70, 100
12, 401559, Note_on_c, 0, 70, 0
12, 401560, Note_on_c, 0, 46, 100
12, 401655, Note_on_c, 0, 46, 0
12, 401944, Note_on_c, 0, 70, 100
12, 402039, Note_on_c, 0, 70, 0
12, 402424, Note_on_c, 0, 70, 100
12, 402519, Note_on_c, 0, 70, 0
12, 402616, Note_on_c, 0, 82, 100
12, 402711, Note_on_c, 0, 82, 0
12, 402808, Note_on_c, 0, 46, 100
12, 402999, Note_on_c, 0, 46, 0
12, 402999, End_track
13, 0, Start_track
13, 0, Title_t, "Harpsichord"
13, 0, Program_c, 0, 6
13, 0, Control_c, 0, 7, 100
13, 0, Control_c, 0, 10, 64
13, 0, Pitch_bend_c, 0, 7872
13, 9047, Note_on_c, 0, 59, 100
13, 9087, Note_on_c, 0, 59, 0
13, 10391, Note_on_c, 0, 59, 100
13, 10484, Note_on_c, 0, 59, 0
13, 13433, Note_on_c, 0, 71, 100
13, 13523, Note_on_c, 0, 71, 0
13, 17812, Note_on_c, 0, 59, 100
13, 17861, Note_on_c, 0, 59, 0
13, 21847, Note_on_c, 0, 71, 100
13, 21977, Note_on_c, 0, 71, 0
13, 22126, Note_on_c, 0, 59, 100
13, 22256, Note_on_c, 0, 59, 0
13, 26112, Note_on_c, 0, 59, 100
13, 26399, Note_on_c, 0, 59, 0
13, 28800, Note_on_c, 0, 59, 100
13, 29183, Note_on_c, 0, 59, 0
13, 31488, Note_on_c, 0, 47, 100
13, 31871, Note_on_c, 0, 47, 0
13, 33616, Note_on_c, 0, 71, 100
13, 33807, Note_on_c, 0, 71, 0
13, 33846, Note_on_c, 0, 71, 100
13, 33883, Note_on_c, 0, 71, 0
13, 34192, Note_on_c, 0, 59, 100
13, 34575, Note_on_c, 0, 59, 0
13, 35344, Note_on_c, 0, 47, 100
13, 35694, Note_on_c, 0, 47, 0
13, 37936, Note_on_c, 0, 47, 100
13, 38031, Note_on_c, 0, 47, 0
13, 38032, Note_on_c, 0, 47, 100
13, 38415, Note_on_c, 0, 47, 0
13, 38672, Note_on_c, 0, 59, 100
13, 38735, Note_on_c, 0, 59, 0
13, 39130, Note_on_c, 0, 59, 100
13, 39183, Note_on_c, 0, 59, 0
13, 39184, Note_on_c, 0, 59, 100
13, 39375, Note_on_c, 0, 59, 0
13, 41104, Note_on_c, 0, 59, 100
13, 41487, Note_on_c, 0, 59, 0
13, 45052, Note_on_c, 0, 71, 100
13, 45129, Note_on_c, 0, 71, 0
13, 46610, Note_on_c, 0, 59, 100
13, 46696, Note_on_c, 0, 59, 0
13, 47340, Note_on_c, 0, 71, 100
13, 47530, Note_on_c, 0, 71, 0
13, 57600, Note_on_c, 0, 59, 100
13, 57791, Note_on_c, 0, 59, 0
13, 58176, Note_on_c, 0, 59, 100
13, 58356, Note_on_c, 0, 59, 0
13, 60672, Note_on_c, 0, 47, 100
13, 60863, Note_on_c, 0, 47, 0
13, 61056, Note_on_c, 0, 59, 100
13, 61439, Note_on_c, 0, 59, 0
13, 62208, Note_on_c, 0, 71, 100
13, 62399, Note_on_c, 0, 71, 0
13, 62592, Note_on_c, 0, 59, 100
13, 62975, Note_on_c, 0, 59, 0
13, 63744, Note_on_c, 0, 71, 100
13, 64032, Note_on_c, 0, 59, 100
13, 64127, Note_on_c, 0, 59, 0
13, 64127, Note_on_c, 0, 71, 0
13, 64896, Note_on_c, 0, 71, 100
13, 64896, Note_on_c, 0, 59, 100
13, 65087, Note_on_c, 0, 59, 0
13, 65276, Note_on_c, 0, 71, 0
13, 66048, Note_on_c, 0, 71, 100
13, 66239, Note_on_c, 0, 71, 0
13, 66432, Note_on_c, 0, 59, 100
13, 66812, Note_on_c, 0, 59, 0
13, 67584, Note_on_c, 0, 47, 100
13, 67775, Note_on_c, 0, 47, 0
13, 67968, Note_on_c, 0, 71, 100
13, 68351, Note_on_c, 0, 71, 0
13, 69120, Note_on_c, 0, 59, 100
13, 69408, Note_on_c, 0, 83, 100
13, 69503, Note_on_c, 0, 83, 0
13, 69503, Note_on_c, 0, 59, 0
13, 70272, Note_on_c, 0, 83, 100
13, 70463, Note_on_c, 0, 83, 0
13, 70656, Note_on_c, 0, 59, 100
13, 71036, Note_on_c, 0, 59, 0
13, 71424, Note_on_c, 0, 47, 100
13, 71615, Note_on_c, 0, 47, 0
13, 71808, Note_on_c, 0, 71, 100
13, 72191, Note_on_c, 0, 71, 0
13, 81600, Note_on_c, 0, 71, 100
13, 81695, Note_on_c, 0, 71, 0
13, 84480, Note_on_c, 0, 71, 100
13, 84671, Note_on_c, 0, 71, 0
13, 85056, Note_on_c, 0, 71, 100
13, 85247, Note_on_c, 0, 71, 0
13, 99072, Note_on_c, 0, 71, 100
13, 99072, Note_on_c, 0, 47, 100
13, 99263, Note_on_c, 0, 47, 0
13, 99839, Note_on_c, 0, 71, 0
13, 128640, Note_on_c, 0, 59, 100
13, 129020, Note_on_c, 0, 59, 0
13, 134592, Note_on_c, 0, 59, 100
13, 134783, Note_on_c, 0, 59, 0
13, 134784, Note_on_c, 0, 71, 100
13, 134879, Note_on_c, 0, 71, 0
13, 134976, Note_on_c, 0, 71, 100
13, 135071, Note_on_c, 0, 71, 0
13, 135744, Note_on_c, 0, 71, 100
13, 135839, Note_on_c, 0, 71, 0
13, 136320, Note_on_c, 0, 59, 100
13, 136607, Note_on_c, 0, 59, 0
13, 136608, Note_on_c, 0, 59, 100
13, 136703, Note_on_c, 0, 59, 0
13, 149376, Note_on_c, 0, 71, 100
13, 149664, Note_on_c, 0, 59, 100
13, 149759, Note_on_c, 0, 59, 0
13, 149759, Note_on_c, 0, 71, 0
13, 149952, Note_on_c, 0, 59, 100
13, 150047, Note_on_c, 0, 59, 0
13, 152544, Note_on_c, 0, 59, 100
13, 152639, Note_on_c, 0, 59, 0
13, 154368, Note_on_c, 0, 47, 100
13, 154848, Note_on_c, 0, 47, 0
13, 157920, Note_on_c, 0, 71, 100
13, 158015, Note_on_c, 0, 71, 0
13, 158016, Note_on_c, 0, 59, 100
13, 158206, Note_on_c, 0, 59, 0
13, 158304, Note_on_c, 0, 71, 100
13, 158399, Note_on_c, 0, 71, 0
13, 159552, Note_on_c, 0, 59, 100
13, 159743, Note_on_c, 0, 59, 0
13, 161008, Note_on_c, 0, 71, 100
13, 161103, Note_on_c, 0, 71, 0
13, 161792, Note_on_c, 0, 71, 100
13, 161887, Note_on_c, 0, 71, 0
13, 162688, Note_on_c, 0, 71, 100
13, 162783, Note_on_c, 0, 71, 0
13, 163360, Note_on_c, 0, 71, 100
13, 163455, Note_on_c, 0, 71, 0
13, 168312, Note_on_c, 0, 59, 100
13, 168502, Note_on_c, 0, 59, 0
13, 168888, Note_on_c, 0, 59, 100
13, 169079, Note_on_c, 0, 59, 0
13, 169272, Note_on_c, 0, 47, 100
13, 169367, Note_on_c, 0, 47, 0
13, 176784, Note_on_c, 0, 47, 100
13, 176976, Note_on_c, 0, 59, 100
13, 177071, Note_on_c, 0, 59, 0
13, 177456, Note_on_c, 0, 59, 100
13, 177551, Note_on_c, 0, 59, 0
13, 177551, Note_on_c, 0, 47, 0
13, 178056, Note_on_c, 0, 59, 100
13, 178151, Note_on_c, 0, 59, 0
13, 179208, Note_on_c, 0, 59, 100
13, 179303, Note_on_c, 0, 59, 0
13, 179592, Note_on_c, 0, 71, 100
13, 179687, Note_on_c, 0, 71, 0
13, 180744, Note_on_c, 0, 71, 100
13, 180839, Note_on_c, 0, 71, 0
13, 182280, Note_on_c, 0, 59, 100
13, 182375, Note_on_c, 0, 59, 0
13, 183048, Note_on_c, 0, 59, 100
13, 183143, Note_on_c, 0, 59, 0
13, 184200, Note_on_c, 0, 59, 100
13, 184295, Note_on_c, 0, 59, 0
13, 195316, Note_on_c, 0, 71, 100
13, 195395, Note_on_c, 0, 71, 0
13, 200448, Note_on_c, 0, 59, 100
13, 200928, Note_on_c, 0, 59, 0
13, 201024, Note_on_c, 0, 59, 100
13, 201215, Note_on_c, 0, 59, 0
13, 206016, Note_on_c, 0, 83, 100
13, 206111, Note_on_c, 0, 83, 0
13, 206784, Note_on_c, 0, 83, 100
13, 206879, Note_on_c, 0, 83, 0
13, 212736, Note_on_c, 0, 71, 100
13, 212831, Note_on_c, 0, 71, 0
13, 213024, Note_on_c, 0, 71, 100
13, 213119, Note_on_c, 0, 71, 0
13, 213216, Note_on_c, 0, 71, 100
13, 213311, Note_on_c, 0, 71, 0
13, 213312, Note_on_c, 0, 71, 100
13, 213407, Note_on_c, 0, 71, 0
13, 218896, Note_on_c, 0, 59, 100
13, 219376, Note_on_c, 0, 59, 0
13, 219472, Note_on_c, 0, 59, 100
13, 219663, Note_on_c, 0, 59, 0
13, 221776, Note_on_c, 0, 59, 100
13, 221967, Note_on_c, 0, 59, 0
13, 222352, Note_on_c, 0, 59, 100
13, 222639, Note_on_c, 0, 59, 0
13, 222640, Note_on_c, 0, 59, 100
13, 222735, Note_on_c, 0, 59, 0
13, 226538, Note_on_c, 0, 47, 100
13, 226872, Note_on_c, 0, 71, 100
13, 227062, Note_on_c, 0, 71, 0
13, 227113, Note_on_c, 0, 47, 0
13, 227256, Note_on_c, 0, 47, 100
13, 227447, Note_on_c, 0, 47, 0
13, 227448, Note_on_c, 0, 47, 100
13, 228215, Note_on_c, 0, 47, 0
13, 228216, Note_on_c, 0, 47, 100
13, 228887, Note_on_c, 0, 47, 0
13, 229428, Note_on_c, 0, 71, 100
13, 229549, Note_on_c, 0, 71, 0
13, 230190, Note_on_c, 0, 59, 100
13, 230293, Note_on_c, 0, 59, 0
13, 238072, Note_on_c, 0, 59, 100
13, 238263, Note_on_c, 0, 59, 0
13, 248440, Note_on_c, 0, 71, 100
13, 248631, Note_on_c, 0, 71, 0
13, 248824, Note_on_c, 0, 71, 100
13, 249207, Note_on_c, 0, 71, 0
13, 249976, Note_on_c, 0, 71, 100
13, 250167, Note_on_c, 0, 71, 0
13, 250360, Note_on_c, 0, 59, 100
13, 250935, Note_on_c, 0, 59, 0
13, 250936, Note_on_c, 0, 59, 100
13, 250936, Note_on_c, 0, 71, 100
13, 251127, Note_on_c, 0, 71, 0
13, 251127, Note_on_c, 0, 59, 0
13, 253048, Note_on_c, 0, 71, 100
13, 253239, Note_on_c, 0, 71, 0
13, 265720, Note_on_c, 0, 59, 100
13, 265911, Note_on_c, 0, 59, 0
13, 266104, Note_on_c, 0, 71, 100
13, 266484, Note_on_c, 0, 71, 0
13, 267256, Note_on_c, 0, 59, 100
13, 267447, Note_on_c, 0, 59, 0
13, 267640, Note_on_c, 0, 71, 100
13, 268215, Note_on_c, 0, 71, 0
13, 268216, Note_on_c, 0, 59, 100
13, 268216, Note_on_c, 0, 71, 100
13, 268407, Note_on_c, 0, 71, 0
13, 268407, Note_on_c, 0, 59, 0
13, 269560, Note_on_c, 0, 71, 100
13, 269940, Note_on_c, 0, 71, 0
13, 269944, Note_on_c, 0, 59, 100
13, 270135, Note_on_c, 0, 59, 0
13, 270136, Note_on_c, 0, 71, 100
13, 270327, Note_on_c, 0, 71, 0
13, 270520, Note_on_c, 0, 71, 100
13, 270615, Note_on_c, 0, 71, 0
13, 271000, Note_on_c, 0, 59, 100
13, 271095, Note_on_c, 0, 59, 0
13, 271480, Note_on_c, 0, 71, 100
13, 271575, Note_on_c, 0, 71, 0
13, 271672, Note_on_c, 0, 47, 100
13, 271768, Note_on_c, 0, 71, 100
13, 271863, Note_on_c, 0, 71, 0
13, 271863, Note_on_c, 0, 47, 0
13, 272056, Note_on_c, 0, 59, 100
13, 272151, Note_on_c, 0, 59, 0
13, 272248, Note_on_c, 0, 71, 100
13, 272631, Note_on_c, 0, 71, 0
13, 272824, Note_on_c, 0, 71, 100
13, 272919, Note_on_c, 0, 71, 0
13, 273304, Note_on_c, 0, 71, 100
13, 273399, Note_on_c, 0, 71, 0
13, 273592, Note_on_c, 0, 47, 100
13, 273687, Note_on_c, 0, 47, 0
13, 273848, Note_on_c, 0, 71, 100
13, 273911, Note_on_c, 0, 71, 0
13, 273976, Note_on_c, 0, 71, 100
13, 274071, Note_on_c, 0, 71, 0
13, 275320, Note_on_c, 0, 47, 100
13, 275511, Note_on_c, 0, 47, 0
13, 275704, Note_on_c, 0, 71, 100
13, 276254, Note_on_c, 0, 71, 0
13, 276280, Note_on_c, 0, 47, 100
13, 276471, Note_on_c, 0, 47, 0
13, 277624, Note_on_c, 0, 47, 100
13, 277815, Note_on_c, 0, 47, 0
13, 278008, Note_on_c, 0, 47, 100
13, 278199, Note_on_c, 0, 47, 0
13, 280120, Note_on_c, 0, 59, 100
13, 280215, Note_on_c, 0, 59, 0
13, 281272, Note_on_c, 0, 59, 100
13, 281655, Note_on_c, 0, 59, 0
13, 281848, Note_on_c, 0, 47, 100
13, 282136, Note_on_c, 0, 59, 100
13, 282231, Note_on_c, 0, 59, 0
13, 282231, Note_on_c, 0, 47, 0
13, 282808, Note_on_c, 0, 47, 100
13, 282808, Note_on_c, 0, 59, 100
13, 282999, Note_on_c, 0, 59, 0
13, 282999, Note_on_c, 0, 47, 0
13, 283064, Note_on_c, 0, 59, 100
13, 283127, Note_on_c, 0, 59, 0
13, 283192, Note_on_c, 0, 59, 100
13, 283287, Note_on_c, 0, 59, 0
13, 287416, Note_on_c, 0, 71, 100
13, 287511, Note_on_c, 0, 71, 0
13, 287608, Note_on_c, 0, 59, 100
13, 287799, Note_on_c, 0, 59, 0
13, 290584, Note_on_c, 0, 59, 100
13, 290679, Note_on_c, 0, 59, 0
13, 298552, Note_on_c, 0, 47, 100
13, 298743, Note_on_c, 0, 47, 0
13, 298936, Note_on_c, 0, 59, 100
13, 299031, Note_on_c, 0, 59, 0
13, 299320, Note_on_c, 0, 59, 100
13, 299415, Note_on_c, 0, 59, 0
13, 300664, Note_on_c, 0, 71, 100
13, 300855, Note_on_c, 0, 71, 0
13, 301624, Note_on_c, 0, 71, 100
13, 301815, Note_on_c, 0, 71, 0
13, 302968, Note_on_c, 0, 59, 100
13, 303159, Note_on_c, 0, 59, 0
13, 303352, Note_on_c, 0, 71, 100
13, 303927, Note_on_c, 0, 71, 0
13, 303928, Note_on_c, 0, 59, 100
13, 303928, Note_on_c, 0, 71, 100
13, 304119, Note_on_c, 0, 71, 0
13, 304119, Note_on_c, 0, 59, 0
13, 305272, Note_on_c, 0, 59, 100
13, 305463, Note_on_c, 0, 59, 0
13, 305656, Note_on_c, 0, 59, 100
13, 305847, Note_on_c, 0, 59, 0
13, 309496, Note_on_c, 0, 59, 100
13, 309876, Note_on_c, 0, 59, 0
13, 310456, Note_on_c, 0, 47, 100
13, 310551, Note_on_c, 0, 47, 0
13, 346360, Note_on_c, 0, 59, 100
13, 346551, Note_on_c, 0, 59, 0
13, 347512, Note_on_c, 0, 59, 100
13, 347703, Note_on_c, 0, 59, 0
13, 347704, Note_on_c, 0, 71, 100
13, 347895, Note_on_c, 0, 71, 0
13, 348664, Note_on_c, 0, 59, 100
13, 348855, Note_on_c, 0, 59, 0
13, 348856, Note_on_c, 0, 71, 100
13, 349047, Note_on_c, 0, 71, 0
13, 361336, Note_on_c, 0, 47, 100
13, 361527, Note_on_c, 0, 47, 0
13, 368248, Note_on_c, 0, 59, 100
13, 368439, Note_on_c, 0, 59, 0
13, 374680, Note_on_c, 0, 59, 100
13, 374775, Note_on_c, 0, 59, 0
13, 381400, Note_on_c, 0, 71, 100
13, 381495, Note_on_c, 0, 71, 0
13, 381592, Note_on_c, 0, 71, 100
13, 381687, Note_on_c, 0, 71, 0
13, 381784, Note_on_c, 0, 71, 100
13, 381879, Note_on_c, 0, 71, 0
13, 381976, Note_on_c, 0, 71, 100
13, 382071, Note_on_c, 0, 71, 0
13, 382168, Note_on_c, 0, 71, 100
13, 382263, Note_on_c, 0, 71, 0
13, 382360, Note_on_c, 0, 71, 100
13, 382455, Note_on_c, 0, 71, 0
13, 392440, Note_on_c, 0, 59, 100
13, 392631, Note_on_c, 0, 59, 0
13, 398200, Note_on_c, 0, 47, 100
13, 398295, Note_on_c, 0, 47, 0
13, 398392, Note_on_c, 0, 47, 100
13, 398487, Note_on_c, 0, 47, 0
13, 400696, Note_on_c, 0, 47, 100
13, 400791, Note_on_c, 0, 47, 0
13, 400791, End_track
0, 0, End_of_file
