0, 0, Header, 0, 1, 384
1, 0, Start_track
1, 0, Tempo, 512820
1, 0, Title_t, "Das wohltemperierte Klavier I -"
1, 0, Program_c, 0, 0
1, 0, Control_c, 0, 7, 100
1, 3, Control_c, 0, 10, 64
1, 3, Control_c, 0, 91, 127
1, 3, Control_c, 0, 91, 127
1, 6, Program_c, 0, 0
1, 6, Control_c, 0, 7, 100
1, 6, Control_c, 0, 10, 64
1, 9, Control_c, 0, 91, 127
1, 9, Control_c, 0, 64, 0
1, 9, Program_c, 0, 0
1, 12, Control_c, 0, 7, 100
1, 12, Control_c, 0, 10, 64
1, 12, Program_c, 0, 0
1, 15, Control_c, 0, 7, 100
1, 15, Control_c, 0, 10, 64
1, 15, Program_c, 0, 0
1, 18, Control_c, 0, 7, 100
1, 18, Control_c, 0, 10, 64
1, 748, Note_on_c, 0, 72, 96
1, 748, Note_on_c, 0, 48, 88
1, 835, Note_on_c, 0, 63, 80
1, 835, Note_on_c, 0, 55, 73
1, 850, Note_on_c, 0, 72, 0
1, 850, Note_on_c, 0, 48, 0
1, 919, Note_on_c, 0, 62, 77
1, 919, Note_on_c, 0, 53, 72
1, 933, Note_on_c, 0, 63, 0
1, 933, Note_on_c, 0, 55, 0
1, 1003, Note_on_c, 0, 63, 77
1, 1003, Note_on_c, 0, 55, 72
1, 1018, Note_on_c, 0, 62, 0
1, 1018, Note_on_c, 0, 53, 0
1, 1093, Note_on_c, 0, 51, 80
1, 1093, Note_on_c, 0, 60, 80
1, 1107, Note_on_c, 0, 63, 0
1, 1107, Note_on_c, 0, 55, 0
1, 1180, Note_on_c, 0, 55, 72
1, 1180, Note_on_c, 0, 63, 76
1, 1195, Note_on_c, 0, 51, 0
1, 1195, Note_on_c, 0, 60, 0
1, 1266, Note_on_c, 0, 62, 76
1, 1266, Note_on_c, 0, 53, 73
1, 1279, Note_on_c, 0, 55, 0
1, 1279, Note_on_c, 0, 63, 0
1, 1349, Note_on_c, 0, 63, 76
1, 1349, Note_on_c, 0, 55, 73
1, 1366, Note_on_c, 0, 62, 0
1, 1366, Note_on_c, 0, 53, 0
1, 1438, Note_on_c, 0, 63, 0
1, 1438, Note_on_c, 0, 55, 0
1, 1441, Note_on_c, 0, 72, 96
1, 1441, Note_on_c, 0, 48, 88
1, 1529, Note_on_c, 0, 55, 74
1, 1529, Note_on_c, 0, 63, 80
1, 1546, Note_on_c, 0, 72, 0
1, 1546, Note_on_c, 0, 48, 0
1, 1613, Note_on_c, 0, 53, 74
1, 1613, Note_on_c, 0, 62, 78
1, 1627, Note_on_c, 0, 55, 0
1, 1627, Note_on_c, 0, 63, 0
1, 1697, Note_on_c, 0, 63, 78
1, 1697, Note_on_c, 0, 55, 72
1, 1712, Note_on_c, 0, 53, 0
1, 1712, Note_on_c, 0, 62, 0
1, 1784, Note_on_c, 0, 60, 80
1, 1788, Note_on_c, 0, 51, 80
1, 1799, Note_on_c, 0, 63, 0
1, 1799, Note_on_c, 0, 55, 0
1, 1872, Note_on_c, 0, 63, 78
1, 1872, Note_on_c, 0, 55, 73
1, 1886, Note_on_c, 0, 60, 0
1, 1889, Note_on_c, 0, 51, 0
1, 1953, Note_on_c, 0, 53, 73
1, 1953, Note_on_c, 0, 62, 77
1, 1967, Note_on_c, 0, 63, 0
1, 1967, Note_on_c, 0, 55, 0
1, 2034, Note_on_c, 0, 63, 77
1, 2034, Note_on_c, 0, 55, 73
1, 2049, Note_on_c, 0, 53, 0
1, 2049, Note_on_c, 0, 62, 0
1, 2125, Note_on_c, 0, 63, 0
1, 2125, Note_on_c, 0, 68, 96
1, 2125, Note_on_c, 0, 48, 88
1, 2125, Note_on_c, 0, 55, 0
1, 2214, Note_on_c, 0, 56, 73
1, 2218, Note_on_c, 0, 65, 80
1, 2228, Note_on_c, 0, 68, 0
1, 2228, Note_on_c, 0, 48, 0
1, 2300, Note_on_c, 0, 55, 73
1, 2300, Note_on_c, 0, 64, 76
1, 2313, Note_on_c, 0, 56, 0
1, 2317, Note_on_c, 0, 65, 0
1, 2384, Note_on_c, 0, 65, 76
1, 2387, Note_on_c, 0, 56, 73
1, 2399, Note_on_c, 0, 55, 0
1, 2399, Note_on_c, 0, 64, 0
1, 2471, Note_on_c, 0, 60, 80
1, 2471, Note_on_c, 0, 53, 80
1, 2486, Note_on_c, 0, 65, 0
1, 2490, Note_on_c, 0, 56, 0
1, 2560, Note_on_c, 0, 65, 76
1, 2560, Note_on_c, 0, 56, 73
1, 2574, Note_on_c, 0, 60, 0
1, 2574, Note_on_c, 0, 53, 0
1, 2644, Note_on_c, 0, 55, 73
1, 2644, Note_on_c, 0, 64, 76
1, 2658, Note_on_c, 0, 65, 0
1, 2658, Note_on_c, 0, 56, 0
1, 2731, Note_on_c, 0, 65, 76
1, 2731, Note_on_c, 0, 56, 73
1, 2743, Note_on_c, 0, 55, 0
1, 2743, Note_on_c, 0, 64, 0
1, 2818, Note_on_c, 0, 48, 88
1, 2818, Note_on_c, 0, 65, 0
1, 2818, Note_on_c, 0, 68, 96
1, 2821, Note_on_c, 0, 56, 0
1, 2906, Note_on_c, 0, 56, 74
1, 2906, Note_on_c, 0, 65, 80
1, 2920, Note_on_c, 0, 48, 0
1, 2923, Note_on_c, 0, 68, 0
1, 2992, Note_on_c, 0, 55, 72
1, 2992, Note_on_c, 0, 64, 77
1, 3006, Note_on_c, 0, 56, 0
1, 3006, Note_on_c, 0, 65, 0
1, 3077, Note_on_c, 0, 65, 77
1, 3077, Note_on_c, 0, 56, 72
1, 3092, Note_on_c, 0, 55, 0
1, 3092, Note_on_c, 0, 64, 0
1, 3169, Note_on_c, 0, 60, 80
1, 3169, Note_on_c, 0, 53, 80
1, 3182, Note_on_c, 0, 65, 0
1, 3182, Note_on_c, 0, 56, 0
1, 3255, Note_on_c, 0, 65, 76
1, 3255, Note_on_c, 0, 56, 74
1, 3270, Note_on_c, 0, 60, 0
1, 3270, Note_on_c, 0, 53, 0
1, 3339, Note_on_c, 0, 64, 76
1, 3339, Note_on_c, 0, 55, 74
1, 3354, Note_on_c, 0, 65, 0
1, 3354, Note_on_c, 0, 56, 0
1, 3423, Note_on_c, 0, 65, 76
1, 3426, Note_on_c, 0, 56, 74
1, 3439, Note_on_c, 0, 64, 0
1, 3439, Note_on_c, 0, 55, 0
1, 3513, Note_on_c, 0, 65, 0
1, 3513, Note_on_c, 0, 71, 96
1, 3517, Note_on_c, 0, 56, 0
1, 3517, Note_on_c, 0, 48, 88
1, 3604, Note_on_c, 0, 56, 74
1, 3604, Note_on_c, 0, 65, 80
1, 3618, Note_on_c, 0, 71, 0
1, 3618, Note_on_c, 0, 48, 0
1, 3688, Note_on_c, 0, 63, 76
1, 3688, Note_on_c, 0, 55, 74
1, 3701, Note_on_c, 0, 56, 0
1, 3701, Note_on_c, 0, 65, 0
1, 3771, Note_on_c, 0, 65, 75
1, 3771, Note_on_c, 0, 56, 74
1, 3787, Note_on_c, 0, 63, 0
1, 3787, Note_on_c, 0, 55, 0
1, 3858, Note_on_c, 0, 62, 80
1, 3858, Note_on_c, 0, 53, 80
1, 3874, Note_on_c, 0, 65, 0
1, 3874, Note_on_c, 0, 56, 0
1, 3945, Note_on_c, 0, 56, 74
1, 3948, Note_on_c, 0, 65, 76
1, 3959, Note_on_c, 0, 62, 0
1, 3959, Note_on_c, 0, 53, 0
1, 4028, Note_on_c, 0, 55, 74
1, 4031, Note_on_c, 0, 63, 76
1, 4043, Note_on_c, 0, 56, 0
1, 4046, Note_on_c, 0, 65, 0
1, 4114, Note_on_c, 0, 56, 73
1, 4114, Note_on_c, 0, 65, 76
1, 4127, Note_on_c, 0, 55, 0
1, 4130, Note_on_c, 0, 63, 0
1, 4202, Note_on_c, 0, 56, 0
1, 4202, Note_on_c, 0, 65, 0
1, 4202, Note_on_c, 0, 71, 96
1, 4202, Note_on_c, 0, 48, 88
1, 4290, Note_on_c, 0, 56, 75
1, 4290, Note_on_c, 0, 65, 80
1, 4306, Note_on_c, 0, 71, 0
1, 4306, Note_on_c, 0, 48, 0
1, 4373, Note_on_c, 0, 63, 76
1, 4373, Note_on_c, 0, 55, 75
1, 4388, Note_on_c, 0, 56, 0
1, 4388, Note_on_c, 0, 65, 0
1, 4458, Note_on_c, 0, 65, 80
1, 4458, Note_on_c, 0, 56, 75
1, 4472, Note_on_c, 0, 63, 0
1, 4472, Note_on_c, 0, 55, 0
1, 4547, Note_on_c, 0, 62, 80
1, 4547, Note_on_c, 0, 53, 80
1, 4562, Note_on_c, 0, 65, 0
1, 4562, Note_on_c, 0, 56, 0
1, 4636, Note_on_c, 0, 56, 74
1, 4636, Note_on_c, 0, 65, 77
1, 4648, Note_on_c, 0, 62, 0
1, 4648, Note_on_c, 0, 53, 0
1, 4719, Note_on_c, 0, 63, 77
1, 4722, Note_on_c, 0, 55, 74
1, 4735, Note_on_c, 0, 56, 0
1, 4735, Note_on_c, 0, 65, 0
1, 4804, Note_on_c, 0, 56, 74
1, 4804, Note_on_c, 0, 65, 77
1, 4818, Note_on_c, 0, 63, 0
1, 4821, Note_on_c, 0, 55, 0
1, 4895, Note_on_c, 0, 56, 0
1, 4895, Note_on_c, 0, 65, 0
1, 4895, Note_on_c, 0, 72, 96
1, 4895, Note_on_c, 0, 48, 88
1, 4987, Note_on_c, 0, 51, 75
1, 4991, Note_on_c, 0, 67, 80
1, 5004, Note_on_c, 0, 72, 0
1, 5004, Note_on_c, 0, 48, 0
1, 5073, Note_on_c, 0, 65, 75
1, 5073, Note_on_c, 0, 50, 75
1, 5084, Note_on_c, 0, 51, 0
1, 5087, Note_on_c, 0, 67, 0
1, 5155, Note_on_c, 0, 67, 75
1, 5155, Note_on_c, 0, 51, 75
1, 5171, Note_on_c, 0, 65, 0
1, 5171, Note_on_c, 0, 50, 0
1, 5242, Note_on_c, 0, 63, 80
1, 5242, Note_on_c, 0, 55, 80
1, 5258, Note_on_c, 0, 67, 0
1, 5258, Note_on_c, 0, 51, 0
1, 5331, Note_on_c, 0, 67, 76
1, 5331, Note_on_c, 0, 51, 75
1, 5345, Note_on_c, 0, 63, 0
1, 5345, Note_on_c, 0, 55, 0
1, 5410, Note_on_c, 0, 50, 75
1, 5410, Note_on_c, 0, 65, 76
1, 5424, Note_on_c, 0, 67, 0
1, 5424, Note_on_c, 0, 51, 0
1, 5491, Note_on_c, 0, 51, 75
1, 5494, Note_on_c, 0, 67, 76
1, 5505, Note_on_c, 0, 50, 0
1, 5505, Note_on_c, 0, 65, 0
1, 5578, Note_on_c, 0, 72, 96
1, 5578, Note_on_c, 0, 51, 0
1, 5578, Note_on_c, 0, 48, 88
1, 5581, Note_on_c, 0, 67, 0
1, 5668, Note_on_c, 0, 51, 75
1, 5668, Note_on_c, 0, 67, 80
1, 5682, Note_on_c, 0, 72, 0
1, 5682, Note_on_c, 0, 48, 0
1, 5751, Note_on_c, 0, 65, 75
1, 5751, Note_on_c, 0, 50, 75
1, 5765, Note_on_c, 0, 51, 0
1, 5765, Note_on_c, 0, 67, 0
1, 5834, Note_on_c, 0, 51, 75
1, 5837, Note_on_c, 0, 67, 75
1, 5849, Note_on_c, 0, 65, 0
1, 5849, Note_on_c, 0, 50, 0
1, 5925, Note_on_c, 0, 63, 80
1, 5928, Note_on_c, 0, 55, 80
1, 5940, Note_on_c, 0, 51, 0
1, 5943, Note_on_c, 0, 67, 0
1, 6015, Note_on_c, 0, 67, 76
1, 6018, Note_on_c, 0, 51, 75
1, 6029, Note_on_c, 0, 63, 0
1, 6029, Note_on_c, 0, 55, 0
1, 6099, Note_on_c, 0, 50, 75
1, 6102, Note_on_c, 0, 65, 76
1, 6112, Note_on_c, 0, 67, 0
1, 6116, Note_on_c, 0, 51, 0
1, 6180, Note_on_c, 0, 67, 76
1, 6180, Note_on_c, 0, 51, 75
1, 6195, Note_on_c, 0, 50, 0
1, 6199, Note_on_c, 0, 65, 0
1, 6275, Note_on_c, 0, 67, 0
1, 6275, Note_on_c, 0, 75, 96
1, 6275, Note_on_c, 0, 48, 88
1, 6275, Note_on_c, 0, 51, 0
1, 6373, Note_on_c, 0, 68, 80
1, 6373, Note_on_c, 0, 60, 75
1, 6385, Note_on_c, 0, 75, 0
1, 6385, Note_on_c, 0, 48, 0
1, 6458, Note_on_c, 0, 67, 76
1, 6458, Note_on_c, 0, 58, 75
1, 6471, Note_on_c, 0, 68, 0
1, 6471, Note_on_c, 0, 60, 0
1, 6542, Note_on_c, 0, 60, 75
1, 6542, Note_on_c, 0, 68, 76
1, 6558, Note_on_c, 0, 67, 0
1, 6558, Note_on_c, 0, 58, 0
1, 6634, Note_on_c, 0, 63, 80
1, 6634, Note_on_c, 0, 56, 80
1, 6648, Note_on_c, 0, 60, 0
1, 6648, Note_on_c, 0, 68, 0
1, 6720, Note_on_c, 0, 60, 75
1, 6720, Note_on_c, 0, 68, 75
1, 6737, Note_on_c, 0, 63, 0
1, 6737, Note_on_c, 0, 56, 0
1, 6805, Note_on_c, 0, 67, 75
1, 6805, Note_on_c, 0, 58, 75
1, 6818, Note_on_c, 0, 60, 0
1, 6818, Note_on_c, 0, 68, 0
1, 6891, Note_on_c, 0, 68, 76
1, 6891, Note_on_c, 0, 60, 74
1, 6904, Note_on_c, 0, 67, 0
1, 6904, Note_on_c, 0, 58, 0
1, 6980, Note_on_c, 0, 75, 96
1, 6980, Note_on_c, 0, 68, 0
1, 6980, Note_on_c, 0, 60, 0
1, 6980, Note_on_c, 0, 48, 88
1, 7068, Note_on_c, 0, 60, 76
1, 7068, Note_on_c, 0, 68, 80
1, 7084, Note_on_c, 0, 75, 0
1, 7084, Note_on_c, 0, 48, 0
1, 7157, Note_on_c, 0, 67, 75
1, 7157, Note_on_c, 0, 58, 76
1, 7167, Note_on_c, 0, 60, 0
1, 7167, Note_on_c, 0, 68, 0
1, 7240, Note_on_c, 0, 60, 76
1, 7240, Note_on_c, 0, 68, 75
1, 7256, Note_on_c, 0, 67, 0
1, 7256, Note_on_c, 0, 58, 0
1, 7326, Note_on_c, 0, 63, 80
1, 7329, Note_on_c, 0, 56, 80
1, 7343, Note_on_c, 0, 60, 0
1, 7343, Note_on_c, 0, 68, 0
1, 7415, Note_on_c, 0, 60, 75
1, 7415, Note_on_c, 0, 68, 75
1, 7429, Note_on_c, 0, 63, 0
1, 7432, Note_on_c, 0, 56, 0
1, 7500, Note_on_c, 0, 67, 76
1, 7500, Note_on_c, 0, 58, 75
1, 7513, Note_on_c, 0, 60, 0
1, 7513, Note_on_c, 0, 68, 0
1, 7585, Note_on_c, 0, 68, 76
1, 7585, Note_on_c, 0, 60, 75
1, 7599, Note_on_c, 0, 67, 0
1, 7599, Note_on_c, 0, 58, 0
1, 7673, Note_on_c, 0, 48, 88
1, 7673, Note_on_c, 0, 74, 96
1, 7676, Note_on_c, 0, 68, 0
1, 7676, Note_on_c, 0, 60, 0
1, 7769, Note_on_c, 0, 57, 76
1, 7769, Note_on_c, 0, 66, 80
1, 7782, Note_on_c, 0, 48, 0
1, 7782, Note_on_c, 0, 74, 0
1, 7851, Note_on_c, 0, 55, 76
1, 7851, Note_on_c, 0, 64, 76
1, 7866, Note_on_c, 0, 57, 0
1, 7866, Note_on_c, 0, 66, 0
1, 7934, Note_on_c, 0, 66, 76
1, 7938, Note_on_c, 0, 57, 76
1, 7949, Note_on_c, 0, 55, 0
1, 7949, Note_on_c, 0, 64, 0
1, 8025, Note_on_c, 0, 62, 80
1, 8025, Note_on_c, 0, 54, 80
1, 8040, Note_on_c, 0, 66, 0
1, 8043, Note_on_c, 0, 57, 0
1, 8115, Note_on_c, 0, 57, 75
1, 8115, Note_on_c, 0, 66, 76
1, 8129, Note_on_c, 0, 62, 0
1, 8129, Note_on_c, 0, 54, 0
1, 8199, Note_on_c, 0, 64, 76
1, 8199, Note_on_c, 0, 55, 75
1, 8210, Note_on_c, 0, 57, 0
1, 8210, Note_on_c, 0, 66, 0
1, 8278, Note_on_c, 0, 57, 75
1, 8278, Note_on_c, 0, 66, 76
1, 8294, Note_on_c, 0, 64, 0
1, 8294, Note_on_c, 0, 55, 0
1, 8365, Note_on_c, 0, 57, 0
1, 8365, Note_on_c, 0, 66, 0
1, 8365, Note_on_c, 0, 48, 88
1, 8368, Note_on_c, 0, 74, 96
1, 8452, Note_on_c, 0, 57, 75
1, 8452, Note_on_c, 0, 66, 80
1, 8468, Note_on_c, 0, 48, 0
1, 8468, Note_on_c, 0, 74, 0
1, 8534, Note_on_c, 0, 55, 75
1, 8534, Note_on_c, 0, 64, 75
1, 8548, Note_on_c, 0, 57, 0
1, 8548, Note_on_c, 0, 66, 0
1, 8617, Note_on_c, 0, 66, 75
1, 8617, Note_on_c, 0, 57, 75
1, 8631, Note_on_c, 0, 55, 0
1, 8631, Note_on_c, 0, 64, 0
1, 8706, Note_on_c, 0, 62, 80
1, 8706, Note_on_c, 0, 54, 80
1, 8719, Note_on_c, 0, 66, 0
1, 8719, Note_on_c, 0, 57, 0
1, 8792, Note_on_c, 0, 66, 76
1, 8792, Note_on_c, 0, 57, 74
1, 8806, Note_on_c, 0, 62, 0
1, 8806, Note_on_c, 0, 54, 0
1, 8872, Note_on_c, 0, 64, 77
1, 8872, Note_on_c, 0, 55, 74
1, 8887, Note_on_c, 0, 66, 0
1, 8887, Note_on_c, 0, 57, 0
1, 8957, Note_on_c, 0, 66, 77
1, 8957, Note_on_c, 0, 57, 74
1, 8969, Note_on_c, 0, 64, 0
1, 8969, Note_on_c, 0, 55, 0
1, 9045, Note_on_c, 0, 46, 88
1, 9045, Note_on_c, 0, 74, 96
1, 9045, Note_on_c, 0, 66, 0
1, 9045, Note_on_c, 0, 57, 0
1, 9138, Note_on_c, 0, 67, 80
1, 9138, Note_on_c, 0, 58, 75
1, 9153, Note_on_c, 0, 46, 0
1, 9153, Note_on_c, 0, 74, 0
1, 9223, Note_on_c, 0, 57, 75
1, 9223, Note_on_c, 0, 66, 75
1, 9234, Note_on_c, 0, 67, 0
1, 9234, Note_on_c, 0, 58, 0
1, 9302, Note_on_c, 0, 67, 75
1, 9302, Note_on_c, 0, 58, 75
1, 9320, Note_on_c, 0, 57, 0
1, 9320, Note_on_c, 0, 66, 0
1, 9396, Note_on_c, 0, 62, 80
1, 9396, Note_on_c, 0, 55, 80
1, 9407, Note_on_c, 0, 67, 0
1, 9407, Note_on_c, 0, 58, 0
1, 9482, Note_on_c, 0, 67, 75
1, 9482, Note_on_c, 0, 58, 74
1, 9496, Note_on_c, 0, 62, 0
1, 9496, Note_on_c, 0, 55, 0
1, 9563, Note_on_c, 0, 66, 75
1, 9563, Note_on_c, 0, 57, 74
1, 9578, Note_on_c, 0, 67, 0
1, 9578, Note_on_c, 0, 58, 0
1, 9645, Note_on_c, 0, 58, 74
1, 9645, Note_on_c, 0, 67, 75
1, 9660, Note_on_c, 0, 66, 0
1, 9663, Note_on_c, 0, 57, 0
1, 9733, Note_on_c, 0, 74, 96
1, 9733, Note_on_c, 0, 58, 0
1, 9733, Note_on_c, 0, 67, 0
1, 9733, Note_on_c, 0, 46, 88
1, 9821, Note_on_c, 0, 58, 74
1, 9824, Note_on_c, 0, 67, 80
1, 9834, Note_on_c, 0, 74, 0
1, 9834, Note_on_c, 0, 46, 0
1, 9906, Note_on_c, 0, 66, 76
1, 9906, Note_on_c, 0, 57, 74
1, 9917, Note_on_c, 0, 58, 0
1, 9920, Note_on_c, 0, 67, 0
1, 9986, Note_on_c, 0, 67, 77
1, 9986, Note_on_c, 0, 58, 74
1, 10003, Note_on_c, 0, 66, 0
1, 10003, Note_on_c, 0, 57, 0
1, 10074, Note_on_c, 0, 55, 80
1, 10074, Note_on_c, 0, 62, 80
1, 10087, Note_on_c, 0, 67, 0
1, 10087, Note_on_c, 0, 58, 0
1, 10161, Note_on_c, 0, 58, 74
1, 10161, Note_on_c, 0, 67, 75
1, 10175, Note_on_c, 0, 55, 0
1, 10175, Note_on_c, 0, 62, 0
1, 10242, Note_on_c, 0, 66, 75
1, 10242, Note_on_c, 0, 57, 74
1, 10254, Note_on_c, 0, 58, 0
1, 10254, Note_on_c, 0, 67, 0
1, 10320, Note_on_c, 0, 58, 74
1, 10320, Note_on_c, 0, 67, 74
1, 10338, Note_on_c, 0, 66, 0
1, 10338, Note_on_c, 0, 57, 0
1, 10411, Note_on_c, 0, 58, 0
1, 10411, Note_on_c, 0, 67, 0
1, 10411, Note_on_c, 0, 72, 96
1, 10411, Note_on_c, 0, 46, 88
1, 10501, Note_on_c, 0, 55, 75
1, 10504, Note_on_c, 0, 64, 80
1, 10515, Note_on_c, 0, 72, 0
1, 10515, Note_on_c, 0, 46, 0
1, 10582, Note_on_c, 0, 53, 75
1, 10582, Note_on_c, 0, 62, 76
1, 10595, Note_on_c, 0, 55, 0
1, 10595, Note_on_c, 0, 64, 0
1, 10661, Note_on_c, 0, 64, 76
1, 10661, Note_on_c, 0, 55, 75
1, 10676, Note_on_c, 0, 53, 0
1, 10676, Note_on_c, 0, 62, 0
1, 10750, Note_on_c, 0, 60, 80
1, 10750, Note_on_c, 0, 52, 80
1, 10763, Note_on_c, 0, 64, 0
1, 10763, Note_on_c, 0, 55, 0
1, 10839, Note_on_c, 0, 64, 76
1, 10839, Note_on_c, 0, 55, 74
1, 10852, Note_on_c, 0, 60, 0
1, 10852, Note_on_c, 0, 52, 0
1, 10921, Note_on_c, 0, 62, 76
1, 10921, Note_on_c, 0, 53, 74
1, 10936, Note_on_c, 0, 64, 0
1, 10936, Note_on_c, 0, 55, 0
1, 11004, Note_on_c, 0, 64, 75
1, 11004, Note_on_c, 0, 55, 74
1, 11019, Note_on_c, 0, 62, 0
1, 11019, Note_on_c, 0, 53, 0
1, 11091, Note_on_c, 0, 64, 0
1, 11091, Note_on_c, 0, 55, 0
1, 11091, Note_on_c, 0, 72, 96
1, 11091, Note_on_c, 0, 46, 88
1, 11179, Note_on_c, 0, 55, 73
1, 11179, Note_on_c, 0, 64, 80
1, 11193, Note_on_c, 0, 72, 0
1, 11193, Note_on_c, 0, 46, 0
1, 11261, Note_on_c, 0, 53, 73
1, 11261, Note_on_c, 0, 62, 76
1, 11275, Note_on_c, 0, 55, 0
1, 11275, Note_on_c, 0, 64, 0
1, 11344, Note_on_c, 0, 64, 76
1, 11344, Note_on_c, 0, 55, 73
1, 11358, Note_on_c, 0, 53, 0
1, 11358, Note_on_c, 0, 62, 0
1, 11429, Note_on_c, 0, 60, 80
1, 11429, Note_on_c, 0, 52, 80
1, 11445, Note_on_c, 0, 64, 0
1, 11445, Note_on_c, 0, 55, 0
1, 11515, Note_on_c, 0, 64, 75
1, 11518, Note_on_c, 0, 55, 73
1, 11530, Note_on_c, 0, 60, 0
1, 11530, Note_on_c, 0, 52, 0
1, 11598, Note_on_c, 0, 62, 75
1, 11598, Note_on_c, 0, 53, 73
1, 11611, Note_on_c, 0, 64, 0
1, 11614, Note_on_c, 0, 55, 0
1, 11679, Note_on_c, 0, 55, 73
1, 11683, Note_on_c, 0, 64, 75
1, 11696, Note_on_c, 0, 62, 0
1, 11696, Note_on_c, 0, 53, 0
1, 11769, Note_on_c, 0, 72, 96
1, 11769, Note_on_c, 0, 55, 0
1, 11772, Note_on_c, 0, 44, 88
1, 11772, Note_on_c, 0, 64, 0
1, 11868, Note_on_c, 0, 65, 80
1, 11868, Note_on_c, 0, 56, 73
1, 11880, Note_on_c, 0, 72, 0
1, 11880, Note_on_c, 0, 44, 0
1, 11951, Note_on_c, 0, 55, 73
1, 11951, Note_on_c, 0, 64, 76
1, 11965, Note_on_c, 0, 65, 0
1, 11965, Note_on_c, 0, 56, 0
1, 12034, Note_on_c, 0, 65, 76
1, 12034, Note_on_c, 0, 56, 73
1, 12048, Note_on_c, 0, 55, 0
1, 12048, Note_on_c, 0, 64, 0
1, 12119, Note_on_c, 0, 60, 80
1, 12119, Note_on_c, 0, 53, 80
1, 12135, Note_on_c, 0, 65, 0
1, 12135, Note_on_c, 0, 56, 0
1, 12208, Note_on_c, 0, 56, 73
1, 12208, Note_on_c, 0, 65, 74
1, 12220, Note_on_c, 0, 60, 0
1, 12220, Note_on_c, 0, 53, 0
1, 12291, Note_on_c, 0, 55, 73
1, 12291, Note_on_c, 0, 64, 74
1, 12305, Note_on_c, 0, 56, 0
1, 12305, Note_on_c, 0, 65, 0
1, 12372, Note_on_c, 0, 56, 74
1, 12372, Note_on_c, 0, 65, 74
1, 12389, Note_on_c, 0, 55, 0
1, 12389, Note_on_c, 0, 64, 0
1, 12462, Note_on_c, 0, 56, 0
1, 12462, Note_on_c, 0, 72, 96
1, 12462, Note_on_c, 0, 44, 88
1, 12462, Note_on_c, 0, 65, 0
1, 12553, Note_on_c, 0, 65, 80
1, 12553, Note_on_c, 0, 56, 75
1, 12567, Note_on_c, 0, 72, 0
1, 12567, Note_on_c, 0, 44, 0
1, 12635, Note_on_c, 0, 55, 76
1, 12635, Note_on_c, 0, 64, 75
1, 12650, Note_on_c, 0, 65, 0
1, 12650, Note_on_c, 0, 56, 0
1, 12721, Note_on_c, 0, 56, 74
1, 12721, Note_on_c, 0, 65, 75
1, 12733, Note_on_c, 0, 55, 0
1, 12733, Note_on_c, 0, 64, 0
1, 12807, Note_on_c, 0, 60, 80
1, 12807, Note_on_c, 0, 53, 80
1, 12824, Note_on_c, 0, 56, 0
1, 12824, Note_on_c, 0, 65, 0
1, 12894, Note_on_c, 0, 56, 74
1, 12894, Note_on_c, 0, 65, 75
1, 12908, Note_on_c, 0, 60, 0
1, 12908, Note_on_c, 0, 53, 0
1, 12976, Note_on_c, 0, 64, 75
1, 12976, Note_on_c, 0, 55, 74
1, 12988, Note_on_c, 0, 56, 0
1, 12988, Note_on_c, 0, 65, 0
1, 13058, Note_on_c, 0, 56, 74
1, 13058, Note_on_c, 0, 65, 75
1, 13072, Note_on_c, 0, 64, 0
1, 13072, Note_on_c, 0, 55, 0
1, 13148, Note_on_c, 0, 44, 88
1, 13148, Note_on_c, 0, 70, 96
1, 13151, Note_on_c, 0, 56, 0
1, 13151, Note_on_c, 0, 65, 0
1, 13246, Note_on_c, 0, 50, 75
1, 13246, Note_on_c, 0, 65, 80
1, 13259, Note_on_c, 0, 44, 0
1, 13259, Note_on_c, 0, 70, 0
1, 13328, Note_on_c, 0, 48, 75
1, 13328, Note_on_c, 0, 63, 76
1, 13342, Note_on_c, 0, 50, 0
1, 13342, Note_on_c, 0, 65, 0
1, 13411, Note_on_c, 0, 65, 76
1, 13411, Note_on_c, 0, 50, 75
1, 13425, Note_on_c, 0, 48, 0
1, 13425, Note_on_c, 0, 63, 0
1, 13499, Note_on_c, 0, 53, 79
1, 13499, Note_on_c, 0, 62, 79
1, 13513, Note_on_c, 0, 65, 0
1, 13513, Note_on_c, 0, 50, 0
1, 13586, Note_on_c, 0, 50, 74
1, 13586, Note_on_c, 0, 65, 75
1, 13599, Note_on_c, 0, 53, 0
1, 13599, Note_on_c, 0, 62, 0
1, 13669, Note_on_c, 0, 63, 74
1, 13669, Note_on_c, 0, 48, 74
1, 13684, Note_on_c, 0, 50, 0
1, 13684, Note_on_c, 0, 65, 0
1, 13754, Note_on_c, 0, 50, 74
1, 13754, Note_on_c, 0, 65, 74
1, 13768, Note_on_c, 0, 63, 0
1, 13768, Note_on_c, 0, 48, 0
1, 13841, Note_on_c, 0, 50, 0
1, 13841, Note_on_c, 0, 65, 0
1, 13841, Note_on_c, 0, 44, 86
1, 13841, Note_on_c, 0, 70, 94
1, 13927, Note_on_c, 0, 65, 78
1, 13927, Note_on_c, 0, 50, 73
1, 13944, Note_on_c, 0, 44, 0
1, 13944, Note_on_c, 0, 70, 0
1, 14015, Note_on_c, 0, 63, 74
1, 14015, Note_on_c, 0, 48, 72
1, 14025, Note_on_c, 0, 65, 0
1, 14025, Note_on_c, 0, 50, 0
1, 14098, Note_on_c, 0, 65, 74
1, 14098, Note_on_c, 0, 50, 77
1, 14114, Note_on_c, 0, 63, 0
1, 14114, Note_on_c, 0, 48, 0
1, 14183, Note_on_c, 0, 62, 77
1, 14183, Note_on_c, 0, 53, 77
1, 14199, Note_on_c, 0, 65, 0
1, 14199, Note_on_c, 0, 50, 0
1, 14271, Note_on_c, 0, 65, 76
1, 14271, Note_on_c, 0, 50, 72
1, 14283, Note_on_c, 0, 62, 0
1, 14283, Note_on_c, 0, 53, 0
1, 14354, Note_on_c, 0, 63, 73
1, 14354, Note_on_c, 0, 48, 72
1, 14369, Note_on_c, 0, 65, 0
1, 14369, Note_on_c, 0, 50, 0
1, 14438, Note_on_c, 0, 50, 72
1, 14438, Note_on_c, 0, 65, 72
1, 14452, Note_on_c, 0, 63, 0
1, 14455, Note_on_c, 0, 48, 0
1, 14525, Note_on_c, 0, 50, 0
1, 14525, Note_on_c, 0, 70, 91
1, 14525, Note_on_c, 0, 65, 0
1, 14525, Note_on_c, 0, 43, 83
1, 14619, Note_on_c, 0, 51, 72
1, 14619, Note_on_c, 0, 67, 76
1, 14635, Note_on_c, 0, 70, 0
1, 14635, Note_on_c, 0, 43, 0
1, 14703, Note_on_c, 0, 65, 72
1, 14706, Note_on_c, 0, 50, 72
1, 14717, Note_on_c, 0, 51, 0
1, 14717, Note_on_c, 0, 67, 0
1, 14788, Note_on_c, 0, 51, 72
1, 14788, Note_on_c, 0, 67, 72
1, 14801, Note_on_c, 0, 65, 0
1, 14804, Note_on_c, 0, 50, 0
1, 14873, Note_on_c, 0, 63, 75
1, 14873, Note_on_c, 0, 55, 75
1, 14890, Note_on_c, 0, 51, 0
1, 14890, Note_on_c, 0, 67, 0
1, 14961, Note_on_c, 0, 67, 72
1, 14961, Note_on_c, 0, 51, 70
1, 14975, Note_on_c, 0, 63, 0
1, 14975, Note_on_c, 0, 55, 0
1, 15048, Note_on_c, 0, 65, 72
1, 15048, Note_on_c, 0, 50, 70
1, 15059, Note_on_c, 0, 67, 0
1, 15059, Note_on_c, 0, 51, 0
1, 15128, Note_on_c, 0, 51, 70
1, 15128, Note_on_c, 0, 67, 71
1, 15146, Note_on_c, 0, 65, 0
1, 15146, Note_on_c, 0, 50, 0
1, 15216, Note_on_c, 0, 51, 0
1, 15216, Note_on_c, 0, 67, 0
1, 15216, Note_on_c, 0, 43, 81
1, 15220, Note_on_c, 0, 70, 89
1, 15305, Note_on_c, 0, 67, 74
1, 15305, Note_on_c, 0, 51, 69
1, 15319, Note_on_c, 0, 43, 0
1, 15322, Note_on_c, 0, 70, 0
1, 15390, Note_on_c, 0, 65, 69
1, 15390, Note_on_c, 0, 50, 69
1, 15404, Note_on_c, 0, 67, 0
1, 15404, Note_on_c, 0, 51, 0
1, 15473, Note_on_c, 0, 67, 69
1, 15477, Note_on_c, 0, 51, 69
1, 15489, Note_on_c, 0, 65, 0
1, 15489, Note_on_c, 0, 50, 0
1, 15564, Note_on_c, 0, 63, 73
1, 15564, Note_on_c, 0, 55, 73
1, 15575, Note_on_c, 0, 67, 0
1, 15579, Note_on_c, 0, 51, 0
1, 15650, Note_on_c, 0, 51, 67
1, 15650, Note_on_c, 0, 67, 68
1, 15664, Note_on_c, 0, 63, 0
1, 15664, Note_on_c, 0, 55, 0
1, 15735, Note_on_c, 0, 65, 68
1, 15735, Note_on_c, 0, 50, 66
1, 15749, Note_on_c, 0, 51, 0
1, 15749, Note_on_c, 0, 67, 0
1, 15818, Note_on_c, 0, 51, 66
1, 15818, Note_on_c, 0, 67, 68
1, 15834, Note_on_c, 0, 65, 0
1, 15834, Note_on_c, 0, 50, 0
1, 15908, Note_on_c, 0, 51, 0
1, 15908, Note_on_c, 0, 48, 79
1, 15908, Note_on_c, 0, 67, 0
1, 15908, Note_on_c, 0, 68, 86
1, 16004, Note_on_c, 0, 67, 72
1, 16007, Note_on_c, 0, 51, 69
1, 16019, Note_on_c, 0, 48, 0
1, 16019, Note_on_c, 0, 68, 0
1, 16087, Note_on_c, 0, 65, 68
1, 16087, Note_on_c, 0, 50, 69
1, 16102, Note_on_c, 0, 67, 0
1, 16102, Note_on_c, 0, 51, 0
1, 16170, Note_on_c, 0, 67, 68
1, 16170, Note_on_c, 0, 51, 65
1, 16185, Note_on_c, 0, 65, 0
1, 16185, Note_on_c, 0, 50, 0
1, 16258, Note_on_c, 0, 63, 71
1, 16261, Note_on_c, 0, 56, 71
1, 16273, Note_on_c, 0, 67, 0
1, 16273, Note_on_c, 0, 51, 0
1, 16348, Note_on_c, 0, 51, 65
1, 16348, Note_on_c, 0, 67, 67
1, 16361, Note_on_c, 0, 63, 0
1, 16361, Note_on_c, 0, 56, 0
1, 16434, Note_on_c, 0, 50, 63
1, 16434, Note_on_c, 0, 65, 67
1, 16447, Note_on_c, 0, 51, 0
1, 16447, Note_on_c, 0, 67, 0
1, 16516, Note_on_c, 0, 67, 66
1, 16516, Note_on_c, 0, 51, 63
1, 16533, Note_on_c, 0, 50, 0
1, 16533, Note_on_c, 0, 65, 0
1, 16604, Note_on_c, 0, 68, 84
1, 16604, Note_on_c, 0, 67, 0
1, 16607, Note_on_c, 0, 51, 0
1, 16607, Note_on_c, 0, 48, 77
1, 16694, Note_on_c, 0, 67, 70
1, 16694, Note_on_c, 0, 51, 64
1, 16706, Note_on_c, 0, 68, 0
1, 16709, Note_on_c, 0, 48, 0
1, 16777, Note_on_c, 0, 65, 65
1, 16777, Note_on_c, 0, 50, 64
1, 16794, Note_on_c, 0, 67, 0
1, 16794, Note_on_c, 0, 51, 0
1, 16863, Note_on_c, 0, 67, 65
1, 16863, Note_on_c, 0, 51, 64
1, 16877, Note_on_c, 0, 65, 0
1, 16877, Note_on_c, 0, 50, 0
1, 16951, Note_on_c, 0, 56, 69
1, 16951, Note_on_c, 0, 63, 69
1, 16965, Note_on_c, 0, 67, 0
1, 16965, Note_on_c, 0, 51, 0
1, 17040, Note_on_c, 0, 67, 63
1, 17040, Note_on_c, 0, 51, 61
1, 17051, Note_on_c, 0, 56, 0
1, 17051, Note_on_c, 0, 63, 0
1, 17121, Note_on_c, 0, 65, 63
1, 17121, Note_on_c, 0, 50, 61
1, 17134, Note_on_c, 0, 67, 0
1, 17134, Note_on_c, 0, 51, 0
1, 17200, Note_on_c, 0, 51, 61
1, 17200, Note_on_c, 0, 67, 63
1, 17217, Note_on_c, 0, 65, 0
1, 17217, Note_on_c, 0, 50, 0
1, 17291, Note_on_c, 0, 68, 81
1, 17291, Note_on_c, 0, 51, 0
1, 17291, Note_on_c, 0, 67, 0
1, 17291, Note_on_c, 0, 50, 74
1, 17386, Note_on_c, 0, 53, 59
1, 17386, Note_on_c, 0, 62, 68
1, 17400, Note_on_c, 0, 68, 0
1, 17400, Note_on_c, 0, 50, 0
1, 17469, Note_on_c, 0, 60, 64
1, 17472, Note_on_c, 0, 51, 60
1, 17482, Note_on_c, 0, 53, 0
1, 17482, Note_on_c, 0, 62, 0
1, 17551, Note_on_c, 0, 53, 59
1, 17551, Note_on_c, 0, 62, 64
1, 17565, Note_on_c, 0, 60, 0
1, 17568, Note_on_c, 0, 51, 0
1, 17638, Note_on_c, 0, 58, 67
1, 17638, Note_on_c, 0, 56, 66
1, 17653, Note_on_c, 0, 53, 0
1, 17653, Note_on_c, 0, 62, 0
1, 17726, Note_on_c, 0, 62, 61
1, 17726, Note_on_c, 0, 53, 59
1, 17739, Note_on_c, 0, 58, 0
1, 17739, Note_on_c, 0, 56, 0
1, 17807, Note_on_c, 0, 60, 61
1, 17807, Note_on_c, 0, 51, 59
1, 17822, Note_on_c, 0, 62, 0
1, 17822, Note_on_c, 0, 53, 0
1, 17891, Note_on_c, 0, 62, 61
1, 17891, Note_on_c, 0, 53, 59
1, 17904, Note_on_c, 0, 60, 0
1, 17904, Note_on_c, 0, 51, 0
1, 17976, Note_on_c, 0, 50, 73
1, 17976, Note_on_c, 0, 62, 0
1, 17976, Note_on_c, 0, 68, 79
1, 17979, Note_on_c, 0, 53, 0
1, 18064, Note_on_c, 0, 53, 56
1, 18064, Note_on_c, 0, 62, 60
1, 18078, Note_on_c, 0, 50, 0
1, 18078, Note_on_c, 0, 68, 0
1, 18148, Note_on_c, 0, 60, 57
1, 18148, Note_on_c, 0, 51, 55
1, 18162, Note_on_c, 0, 53, 0
1, 18162, Note_on_c, 0, 62, 0
1, 18232, Note_on_c, 0, 53, 55
1, 18235, Note_on_c, 0, 62, 57
1, 18247, Note_on_c, 0, 60, 0
1, 18247, Note_on_c, 0, 51, 0
1, 18321, Note_on_c, 0, 56, 61
1, 18321, Note_on_c, 0, 58, 60
1, 18334, Note_on_c, 0, 53, 0
1, 18337, Note_on_c, 0, 62, 0
1, 18408, Note_on_c, 0, 53, 56
1, 18408, Note_on_c, 0, 62, 54
1, 18423, Note_on_c, 0, 56, 0
1, 18423, Note_on_c, 0, 58, 0
1, 18493, Note_on_c, 0, 51, 56
1, 18493, Note_on_c, 0, 60, 54
1, 18505, Note_on_c, 0, 53, 0
1, 18505, Note_on_c, 0, 62, 0
1, 18573, Note_on_c, 0, 53, 56
1, 18573, Note_on_c, 0, 62, 55
1, 18592, Note_on_c, 0, 51, 0
1, 18592, Note_on_c, 0, 60, 0
1, 18666, Note_on_c, 0, 53, 0
1, 18666, Note_on_c, 0, 62, 0
1, 18666, Note_on_c, 0, 67, 76
1, 18666, Note_on_c, 0, 51, 70
1, 18762, Note_on_c, 0, 55, 53
1, 18762, Note_on_c, 0, 58, 58
1, 18777, Note_on_c, 0, 67, 0
1, 18777, Note_on_c, 0, 51, 0
1, 18848, Note_on_c, 0, 53, 53
1, 18848, Note_on_c, 0, 56, 54
1, 18859, Note_on_c, 0, 55, 0
1, 18859, Note_on_c, 0, 58, 0
1, 18929, Note_on_c, 0, 58, 54
1, 18929, Note_on_c, 0, 55, 53
1, 18946, Note_on_c, 0, 53, 0
1, 18946, Note_on_c, 0, 56, 0
1, 19019, Note_on_c, 0, 56, 57
1, 19022, Note_on_c, 0, 63, 64
1, 19035, Note_on_c, 0, 58, 0
1, 19035, Note_on_c, 0, 55, 0
1, 19107, Note_on_c, 0, 58, 54
1, 19107, Note_on_c, 0, 55, 53
1, 19121, Note_on_c, 0, 56, 0
1, 19124, Note_on_c, 0, 63, 0
1, 19191, Note_on_c, 0, 56, 54
1, 19191, Note_on_c, 0, 53, 53
1, 19203, Note_on_c, 0, 58, 0
1, 19206, Note_on_c, 0, 55, 0
1, 19272, Note_on_c, 0, 58, 54
1, 19272, Note_on_c, 0, 55, 53
1, 19289, Note_on_c, 0, 56, 0
1, 19289, Note_on_c, 0, 53, 0
1, 19361, Note_on_c, 0, 58, 0
1, 19361, Note_on_c, 0, 67, 76
1, 19361, Note_on_c, 0, 55, 0
1, 19361, Note_on_c, 0, 51, 70
1, 19450, Note_on_c, 0, 55, 53
1, 19453, Note_on_c, 0, 58, 57
1, 19465, Note_on_c, 0, 67, 0
1, 19465, Note_on_c, 0, 51, 0
1, 19532, Note_on_c, 0, 56, 53
1, 19532, Note_on_c, 0, 53, 53
1, 19545, Note_on_c, 0, 55, 0
1, 19549, Note_on_c, 0, 58, 0
1, 19613, Note_on_c, 0, 55, 53
1, 19617, Note_on_c, 0, 58, 53
1, 19628, Note_on_c, 0, 56, 0
1, 19628, Note_on_c, 0, 53, 0
1, 19702, Note_on_c, 0, 63, 57
1, 19705, Note_on_c, 0, 56, 56
1, 19716, Note_on_c, 0, 55, 0
1, 19720, Note_on_c, 0, 58, 0
1, 19791, Note_on_c, 0, 58, 53
1, 19791, Note_on_c, 0, 55, 52
1, 19805, Note_on_c, 0, 63, 0
1, 19805, Note_on_c, 0, 56, 0
1, 19875, Note_on_c, 0, 56, 53
1, 19875, Note_on_c, 0, 53, 52
1, 19886, Note_on_c, 0, 58, 0
1, 19886, Note_on_c, 0, 55, 0
1, 19955, Note_on_c, 0, 58, 53
1, 19955, Note_on_c, 0, 55, 52
1, 19972, Note_on_c, 0, 56, 0
1, 19972, Note_on_c, 0, 53, 0
1, 20045, Note_on_c, 0, 65, 76
1, 20045, Note_on_c, 0, 58, 0
1, 20045, Note_on_c, 0, 51, 70
1, 20045, Note_on_c, 0, 55, 0
1, 20144, Note_on_c, 0, 60, 58
1, 20144, Note_on_c, 0, 57, 52
1, 20156, Note_on_c, 0, 65, 0
1, 20156, Note_on_c, 0, 51, 0
1, 20224, Note_on_c, 0, 58, 53
1, 20224, Note_on_c, 0, 55, 52
1, 20237, Note_on_c, 0, 60, 0
1, 20237, Note_on_c, 0, 57, 0
1, 20303, Note_on_c, 0, 60, 53
1, 20303, Note_on_c, 0, 57, 52
1, 20318, Note_on_c, 0, 58, 0
1, 20318, Note_on_c, 0, 55, 0
1, 20389, Note_on_c, 0, 57, 0
1, 20389, Note_on_c, 0, 57, 58
1, 20389, Note_on_c, 0, 53, 55
1, 20405, Note_on_c, 0, 60, 0
1, 20476, Note_on_c, 0, 57, 52
1, 20476, Note_on_c, 0, 60, 53
1, 20491, Note_on_c, 0, 57, 0
1, 20491, Note_on_c, 0, 53, 0
1, 20562, Note_on_c, 0, 58, 53
1, 20562, Note_on_c, 0, 55, 52
1, 20574, Note_on_c, 0, 57, 0
1, 20574, Note_on_c, 0, 60, 0
1, 20645, Note_on_c, 0, 57, 52
1, 20648, Note_on_c, 0, 60, 53
1, 20661, Note_on_c, 0, 58, 0
1, 20661, Note_on_c, 0, 55, 0
1, 20732, Note_on_c, 0, 51, 70
1, 20732, Note_on_c, 0, 57, 0
1, 20735, Note_on_c, 0, 65, 76
1, 20735, Note_on_c, 0, 60, 0
1, 20821, Note_on_c, 0, 57, 51
1, 20821, Note_on_c, 0, 60, 59
1, 20834, Note_on_c, 0, 51, 0
1, 20837, Note_on_c, 0, 65, 0
1, 20906, Note_on_c, 0, 58, 54
1, 20906, Note_on_c, 0, 55, 51
1, 20918, Note_on_c, 0, 57, 0
1, 20918, Note_on_c, 0, 60, 0
1, 20988, Note_on_c, 0, 57, 51
1, 20988, Note_on_c, 0, 60, 54
1, 21004, Note_on_c, 0, 58, 0
1, 21004, Note_on_c, 0, 55, 0
1, 21073, Note_on_c, 0, 57, 0
1, 21073, Note_on_c, 0, 53, 56
1, 21073, Note_on_c, 0, 57, 59
1, 21090, Note_on_c, 0, 60, 0
1, 21161, Note_on_c, 0, 60, 54
1, 21161, Note_on_c, 0, 57, 51
1, 21175, Note_on_c, 0, 53, 0
1, 21175, Note_on_c, 0, 57, 0
1, 21244, Note_on_c, 0, 55, 51
1, 21247, Note_on_c, 0, 58, 54
1, 21259, Note_on_c, 0, 60, 0
1, 21259, Note_on_c, 0, 57, 0
1, 21330, Note_on_c, 0, 57, 51
1, 21330, Note_on_c, 0, 60, 53
1, 21344, Note_on_c, 0, 55, 0
1, 21347, Note_on_c, 0, 58, 0
1, 21423, Note_on_c, 0, 57, 0
1, 21423, Note_on_c, 0, 60, 0
1, 21423, Note_on_c, 0, 50, 70
1, 21426, Note_on_c, 0, 65, 76
1, 21523, Note_on_c, 0, 62, 60
1, 21523, Note_on_c, 0, 53, 52
1, 21538, Note_on_c, 0, 50, 0
1, 21538, Note_on_c, 0, 65, 0
1, 21606, Note_on_c, 0, 60, 55
1, 21606, Note_on_c, 0, 51, 52
1, 21619, Note_on_c, 0, 62, 0
1, 21619, Note_on_c, 0, 53, 0
1, 21688, Note_on_c, 0, 53, 52
1, 21688, Note_on_c, 0, 62, 55
1, 21702, Note_on_c, 0, 60, 0
1, 21705, Note_on_c, 0, 51, 0
1, 21776, Note_on_c, 0, 56, 58
1, 21776, Note_on_c, 0, 59, 60
1, 21790, Note_on_c, 0, 53, 0
1, 21790, Note_on_c, 0, 62, 0
1, 21864, Note_on_c, 0, 62, 55
1, 21864, Note_on_c, 0, 53, 52
1, 21877, Note_on_c, 0, 56, 0
1, 21877, Note_on_c, 0, 59, 0
1, 21947, Note_on_c, 0, 60, 55
1, 21947, Note_on_c, 0, 51, 52
1, 21962, Note_on_c, 0, 62, 0
1, 21962, Note_on_c, 0, 53, 0
1, 22031, Note_on_c, 0, 62, 55
1, 22031, Note_on_c, 0, 53, 52
1, 22047, Note_on_c, 0, 60, 0
1, 22047, Note_on_c, 0, 51, 0
1, 22122, Note_on_c, 0, 65, 76
1, 22122, Note_on_c, 0, 62, 0
1, 22122, Note_on_c, 0, 53, 0
1, 22126, Note_on_c, 0, 50, 70
1, 22215, Note_on_c, 0, 53, 54
1, 22218, Note_on_c, 0, 62, 60
1, 22229, Note_on_c, 0, 65, 0
1, 22232, Note_on_c, 0, 50, 0
1, 22300, Note_on_c, 0, 60, 56
1, 22300, Note_on_c, 0, 51, 54
1, 22312, Note_on_c, 0, 53, 0
1, 22315, Note_on_c, 0, 62, 0
1, 22383, Note_on_c, 0, 62, 56
1, 22383, Note_on_c, 0, 53, 54
1, 22398, Note_on_c, 0, 60, 0
1, 22398, Note_on_c, 0, 51, 0
1, 22470, Note_on_c, 0, 56, 60
1, 22470, Note_on_c, 0, 59, 60
1, 22485, Note_on_c, 0, 62, 0
1, 22485, Note_on_c, 0, 53, 0
1, 22556, Note_on_c, 0, 53, 53
1, 22556, Note_on_c, 0, 62, 55
1, 22570, Note_on_c, 0, 56, 0
1, 22570, Note_on_c, 0, 59, 0
1, 22636, Note_on_c, 0, 60, 55
1, 22636, Note_on_c, 0, 51, 54
1, 22650, Note_on_c, 0, 53, 0
1, 22650, Note_on_c, 0, 62, 0
1, 22717, Note_on_c, 0, 53, 54
1, 22717, Note_on_c, 0, 62, 55
1, 22732, Note_on_c, 0, 60, 0
1, 22732, Note_on_c, 0, 51, 0
1, 22809, Note_on_c, 0, 53, 0
1, 22812, Note_on_c, 0, 62, 0
1, 22812, Note_on_c, 0, 48, 70
1, 22812, Note_on_c, 0, 65, 76
1, 22908, Note_on_c, 0, 53, 52
1, 22911, Note_on_c, 0, 62, 61
1, 22923, Note_on_c, 0, 48, 0
1, 22923, Note_on_c, 0, 65, 0
1, 22990, Note_on_c, 0, 52, 52
1, 22990, Note_on_c, 0, 60, 52
1, 23005, Note_on_c, 0, 53, 0
1, 23005, Note_on_c, 0, 62, 0
1, 23073, Note_on_c, 0, 53, 52
1, 23076, Note_on_c, 0, 62, 54
1, 23087, Note_on_c, 0, 52, 0
1, 23087, Note_on_c, 0, 60, 0
1, 23160, Note_on_c, 0, 59, 61
1, 23160, Note_on_c, 0, 56, 60
1, 23174, Note_on_c, 0, 53, 0
1, 23177, Note_on_c, 0, 62, 0
1, 23250, Note_on_c, 0, 62, 55
1, 23250, Note_on_c, 0, 53, 53
1, 23261, Note_on_c, 0, 59, 0
1, 23261, Note_on_c, 0, 56, 0
1, 23334, Note_on_c, 0, 60, 55
1, 23334, Note_on_c, 0, 52, 53
1, 23347, Note_on_c, 0, 62, 0
1, 23347, Note_on_c, 0, 53, 0
1, 23415, Note_on_c, 0, 62, 55
1, 23415, Note_on_c, 0, 53, 53
1, 23432, Note_on_c, 0, 60, 0
1, 23432, Note_on_c, 0, 52, 0
1, 23503, Note_on_c, 0, 62, 0
1, 23503, Note_on_c, 0, 53, 0
1, 23503, Note_on_c, 0, 65, 76
1, 23506, Note_on_c, 0, 48, 70
1, 23591, Note_on_c, 0, 62, 61
1, 23591, Note_on_c, 0, 53, 53
1, 23607, Note_on_c, 0, 65, 0
1, 23607, Note_on_c, 0, 48, 0
1, 23676, Note_on_c, 0, 60, 55
1, 23676, Note_on_c, 0, 52, 53
1, 23690, Note_on_c, 0, 62, 0
1, 23690, Note_on_c, 0, 53, 0
1, 23759, Note_on_c, 0, 62, 55
1, 23763, Note_on_c, 0, 53, 53
1, 23775, Note_on_c, 0, 60, 0
1, 23775, Note_on_c, 0, 52, 0
1, 23850, Note_on_c, 0, 56, 60
1, 23850, Note_on_c, 0, 59, 61
1, 23862, Note_on_c, 0, 62, 0
1, 23866, Note_on_c, 0, 53, 0
1, 23938, Note_on_c, 0, 53, 53
1, 23938, Note_on_c, 0, 62, 54
1, 23952, Note_on_c, 0, 56, 0
1, 23952, Note_on_c, 0, 59, 0
1, 24020, Note_on_c, 0, 52, 53
1, 24023, Note_on_c, 0, 60, 54
1, 24037, Note_on_c, 0, 53, 0
1, 24037, Note_on_c, 0, 62, 0
1, 24105, Note_on_c, 0, 62, 54
1, 24108, Note_on_c, 0, 53, 53
1, 24120, Note_on_c, 0, 52, 0
1, 24123, Note_on_c, 0, 60, 0
1, 24196, Note_on_c, 0, 62, 0
1, 24196, Note_on_c, 0, 63, 76
1, 24196, Note_on_c, 0, 48, 70
1, 24200, Note_on_c, 0, 53, 0
1, 24294, Note_on_c, 0, 60, 61
1, 24294, Note_on_c, 0, 51, 54
1, 24308, Note_on_c, 0, 63, 0
1, 24308, Note_on_c, 0, 48, 0
1, 24376, Note_on_c, 0, 59, 61
1, 24376, Note_on_c, 0, 50, 54
1, 24390, Note_on_c, 0, 60, 0
1, 24390, Note_on_c, 0, 51, 0
1, 24460, Note_on_c, 0, 60, 55
1, 24460, Note_on_c, 0, 51, 54
1, 24473, Note_on_c, 0, 59, 0
1, 24473, Note_on_c, 0, 50, 0
1, 24548, Note_on_c, 0, 55, 61
1, 24548, Note_on_c, 0, 53, 60
1, 24562, Note_on_c, 0, 60, 0
1, 24562, Note_on_c, 0, 51, 0
1, 24635, Note_on_c, 0, 60, 55
1, 24635, Note_on_c, 0, 51, 54
1, 24650, Note_on_c, 0, 55, 0
1, 24650, Note_on_c, 0, 53, 0
1, 24717, Note_on_c, 0, 59, 55
1, 24717, Note_on_c, 0, 50, 54
1, 24732, Note_on_c, 0, 60, 0
1, 24732, Note_on_c, 0, 51, 0
1, 24798, Note_on_c, 0, 51, 54
1, 24798, Note_on_c, 0, 60, 55
1, 24815, Note_on_c, 0, 59, 0
1, 24815, Note_on_c, 0, 50, 0
1, 24890, Note_on_c, 0, 51, 0
1, 24890, Note_on_c, 0, 63, 76
1, 24890, Note_on_c, 0, 46, 70
1, 24890, Note_on_c, 0, 60, 0
1, 24983, Note_on_c, 0, 60, 61
1, 24983, Note_on_c, 0, 51, 54
1, 24996, Note_on_c, 0, 63, 0
1, 24996, Note_on_c, 0, 46, 0
1, 25064, Note_on_c, 0, 50, 54
1, 25064, Note_on_c, 0, 59, 55
1, 25078, Note_on_c, 0, 60, 0
1, 25078, Note_on_c, 0, 51, 0
1, 25145, Note_on_c, 0, 60, 55
1, 25148, Note_on_c, 0, 51, 54
1, 25160, Note_on_c, 0, 50, 0
1, 25160, Note_on_c, 0, 59, 0
1, 25233, Note_on_c, 0, 55, 61
1, 25233, Note_on_c, 0, 53, 61
1, 25247, Note_on_c, 0, 60, 0
1, 25247, Note_on_c, 0, 51, 0
1, 25322, Note_on_c, 0, 60, 55
1, 25322, Note_on_c, 0, 51, 53
1, 25333, Note_on_c, 0, 55, 0
1, 25333, Note_on_c, 0, 53, 0
1, 25403, Note_on_c, 0, 50, 53
1, 25403, Note_on_c, 0, 59, 55
1, 25419, Note_on_c, 0, 60, 0
1, 25419, Note_on_c, 0, 51, 0
1, 25489, Note_on_c, 0, 60, 56
1, 25489, Note_on_c, 0, 51, 53
1, 25502, Note_on_c, 0, 50, 0
1, 25502, Note_on_c, 0, 59, 0
1, 25580, Note_on_c, 0, 44, 70
1, 25580, Note_on_c, 0, 60, 0
1, 25580, Note_on_c, 0, 51, 0
1, 25580, Note_on_c, 0, 53, 76
1, 25677, Note_on_c, 0, 63, 64
1, 25677, Note_on_c, 0, 48, 54
1, 25689, Note_on_c, 0, 44, 0
1, 25689, Note_on_c, 0, 53, 0
1, 25754, Note_on_c, 0, 47, 53
1, 25754, Note_on_c, 0, 62, 57
1, 25770, Note_on_c, 0, 63, 0
1, 25770, Note_on_c, 0, 48, 0
1, 25835, Note_on_c, 0, 63, 57
1, 25835, Note_on_c, 0, 48, 53
1, 25849, Note_on_c, 0, 47, 0
1, 25849, Note_on_c, 0, 62, 0
1, 25925, Note_on_c, 0, 65, 64
1, 25925, Note_on_c, 0, 50, 64
1, 25936, Note_on_c, 0, 63, 0
1, 25936, Note_on_c, 0, 48, 0
1, 26010, Note_on_c, 0, 63, 58
1, 26013, Note_on_c, 0, 48, 54
1, 26027, Note_on_c, 0, 65, 0
1, 26027, Note_on_c, 0, 50, 0
1, 26093, Note_on_c, 0, 62, 58
1, 26096, Note_on_c, 0, 47, 54
1, 26107, Note_on_c, 0, 63, 0
1, 26107, Note_on_c, 0, 48, 0
1, 26176, Note_on_c, 0, 48, 54
1, 26176, Note_on_c, 0, 63, 58
1, 26190, Note_on_c, 0, 62, 0
1, 26194, Note_on_c, 0, 47, 0
1, 26265, Note_on_c, 0, 48, 0
1, 26265, Note_on_c, 0, 53, 76
1, 26265, Note_on_c, 0, 63, 0
1, 26268, Note_on_c, 0, 44, 70
1, 26355, Note_on_c, 0, 63, 64
1, 26355, Note_on_c, 0, 48, 55
1, 26368, Note_on_c, 0, 53, 0
1, 26368, Note_on_c, 0, 44, 0
1, 26439, Note_on_c, 0, 62, 57
1, 26439, Note_on_c, 0, 47, 55
1, 26452, Note_on_c, 0, 63, 0
1, 26452, Note_on_c, 0, 48, 0
1, 26519, Note_on_c, 0, 63, 59
1, 26523, Note_on_c, 0, 48, 55
1, 26538, Note_on_c, 0, 62, 0
1, 26538, Note_on_c, 0, 47, 0
1, 26611, Note_on_c, 0, 65, 64
1, 26611, Note_on_c, 0, 50, 64
1, 26622, Note_on_c, 0, 63, 0
1, 26625, Note_on_c, 0, 48, 0
1, 26697, Note_on_c, 0, 63, 57
1, 26697, Note_on_c, 0, 48, 56
1, 26712, Note_on_c, 0, 65, 0
1, 26712, Note_on_c, 0, 50, 0
1, 26780, Note_on_c, 0, 62, 57
1, 26780, Note_on_c, 0, 47, 56
1, 26795, Note_on_c, 0, 63, 0
1, 26795, Note_on_c, 0, 48, 0
1, 26863, Note_on_c, 0, 63, 57
1, 26863, Note_on_c, 0, 48, 56
1, 26879, Note_on_c, 0, 62, 0
1, 26879, Note_on_c, 0, 47, 0
1, 26955, Note_on_c, 0, 63, 0
1, 26955, Note_on_c, 0, 45, 70
1, 26955, Note_on_c, 0, 54, 76
1, 26955, Note_on_c, 0, 48, 0
1, 27053, Note_on_c, 0, 60, 64
1, 27053, Note_on_c, 0, 51, 56
1, 27067, Note_on_c, 0, 45, 0
1, 27067, Note_on_c, 0, 54, 0
1, 27135, Note_on_c, 0, 59, 57
1, 27135, Note_on_c, 0, 50, 56
1, 27148, Note_on_c, 0, 60, 0
1, 27148, Note_on_c, 0, 51, 0
1, 27218, Note_on_c, 0, 51, 56
1, 27218, Note_on_c, 0, 60, 58
1, 27231, Note_on_c, 0, 59, 0
1, 27231, Note_on_c, 0, 50, 0
1, 27307, Note_on_c, 0, 48, 64
1, 27307, Note_on_c, 0, 63, 64
1, 27324, Note_on_c, 0, 51, 0
1, 27324, Note_on_c, 0, 60, 0
1, 27398, Note_on_c, 0, 60, 58
1, 27398, Note_on_c, 0, 51, 56
1, 27410, Note_on_c, 0, 48, 0
1, 27410, Note_on_c, 0, 63, 0
1, 27478, Note_on_c, 0, 59, 58
1, 27478, Note_on_c, 0, 50, 56
1, 27494, Note_on_c, 0, 60, 0
1, 27494, Note_on_c, 0, 51, 0
1, 27560, Note_on_c, 0, 51, 56
1, 27560, Note_on_c, 0, 60, 58
1, 27576, Note_on_c, 0, 59, 0
1, 27576, Note_on_c, 0, 50, 0
1, 27652, Note_on_c, 0, 51, 0
1, 27652, Note_on_c, 0, 60, 0
1, 27652, Note_on_c, 0, 54, 76
1, 27655, Note_on_c, 0, 45, 70
1, 27745, Note_on_c, 0, 60, 64
1, 27745, Note_on_c, 0, 51, 57
1, 27759, Note_on_c, 0, 54, 0
1, 27759, Note_on_c, 0, 45, 0
1, 27826, Note_on_c, 0, 50, 58
1, 27826, Note_on_c, 0, 59, 58
1, 27841, Note_on_c, 0, 60, 0
1, 27841, Note_on_c, 0, 51, 0
1, 27909, Note_on_c, 0, 51, 58
1, 27909, Note_on_c, 0, 60, 58
1, 27922, Note_on_c, 0, 50, 0
1, 27925, Note_on_c, 0, 59, 0
1, 27997, Note_on_c, 0, 63, 64
1, 27997, Note_on_c, 0, 48, 64
1, 28011, Note_on_c, 0, 51, 0
1, 28011, Note_on_c, 0, 60, 0
1, 28084, Note_on_c, 0, 51, 56
1, 28084, Note_on_c, 0, 60, 58
1, 28098, Note_on_c, 0, 63, 0
1, 28098, Note_on_c, 0, 48, 0
1, 28166, Note_on_c, 0, 59, 58
1, 28166, Note_on_c, 0, 50, 56
1, 28179, Note_on_c, 0, 51, 0
1, 28179, Note_on_c, 0, 60, 0
1, 28246, Note_on_c, 0, 51, 56
1, 28246, Note_on_c, 0, 60, 58
1, 28263, Note_on_c, 0, 59, 0
1, 28263, Note_on_c, 0, 50, 0
1, 28339, Note_on_c, 0, 51, 0
1, 28339, Note_on_c, 0, 63, 76
1, 28339, Note_on_c, 0, 60, 0
1, 28339, Note_on_c, 0, 43, 70
1, 28434, Note_on_c, 0, 60, 64
1, 28437, Note_on_c, 0, 51, 56
1, 28449, Note_on_c, 0, 63, 0
1, 28449, Note_on_c, 0, 43, 0
1, 28517, Note_on_c, 0, 50, 56
1, 28520, Note_on_c, 0, 59, 58
1, 28531, Note_on_c, 0, 60, 0
1, 28534, Note_on_c, 0, 51, 0
1, 28600, Note_on_c, 0, 60, 58
1, 28600, Note_on_c, 0, 51, 56
1, 28614, Note_on_c, 0, 50, 0
1, 28617, Note_on_c, 0, 59, 0
1, 28690, Note_on_c, 0, 55, 63
1, 28690, Note_on_c, 0, 53, 64
1, 28702, Note_on_c, 0, 60, 0
1, 28702, Note_on_c, 0, 51, 0
1, 28777, Note_on_c, 0, 51, 56
1, 28777, Note_on_c, 0, 60, 57
1, 28792, Note_on_c, 0, 55, 0
1, 28792, Note_on_c, 0, 53, 0
1, 28859, Note_on_c, 0, 50, 56
1, 28859, Note_on_c, 0, 59, 57
1, 28873, Note_on_c, 0, 51, 0
1, 28876, Note_on_c, 0, 60, 0
1, 28942, Note_on_c, 0, 51, 56
1, 28945, Note_on_c, 0, 60, 57
1, 28956, Note_on_c, 0, 50, 0
1, 28956, Note_on_c, 0, 59, 0
1, 29031, Note_on_c, 0, 51, 0
1, 29031, Note_on_c, 0, 63, 76
1, 29031, Note_on_c, 0, 60, 0
1, 29031, Note_on_c, 0, 43, 70
1, 29120, Note_on_c, 0, 60, 58
1, 29120, Note_on_c, 0, 51, 57
1, 29134, Note_on_c, 0, 63, 0
1, 29134, Note_on_c, 0, 43, 0
1, 29205, Note_on_c, 0, 50, 57
1, 29205, Note_on_c, 0, 59, 58
1, 29218, Note_on_c, 0, 60, 0
1, 29218, Note_on_c, 0, 51, 0
1, 29287, Note_on_c, 0, 51, 57
1, 29287, Note_on_c, 0, 60, 58
1, 29303, Note_on_c, 0, 50, 0
1, 29303, Note_on_c, 0, 59, 0
1, 29375, Note_on_c, 0, 55, 63
1, 29375, Note_on_c, 0, 53, 64
1, 29390, Note_on_c, 0, 51, 0
1, 29390, Note_on_c, 0, 60, 0
1, 29464, Note_on_c, 0, 51, 57
1, 29467, Note_on_c, 0, 60, 57
1, 29479, Note_on_c, 0, 55, 0
1, 29479, Note_on_c, 0, 53, 0
1, 29549, Note_on_c, 0, 59, 58
1, 29549, Note_on_c, 0, 50, 57
1, 29561, Note_on_c, 0, 51, 0
1, 29564, Note_on_c, 0, 60, 0
1, 29631, Note_on_c, 0, 60, 58
1, 29631, Note_on_c, 0, 51, 57
1, 29648, Note_on_c, 0, 59, 0
1, 29648, Note_on_c, 0, 50, 0
1, 29723, Note_on_c, 0, 60, 0
1, 29723, Note_on_c, 0, 51, 0
1, 29723, Note_on_c, 0, 43, 70
1, 29726, Note_on_c, 0, 66, 76
1, 29818, Note_on_c, 0, 60, 64
1, 29822, Note_on_c, 0, 51, 56
1, 29833, Note_on_c, 0, 43, 0
1, 29833, Note_on_c, 0, 66, 0
1, 29902, Note_on_c, 0, 50, 56
1, 29902, Note_on_c, 0, 59, 57
1, 29915, Note_on_c, 0, 60, 0
1, 29919, Note_on_c, 0, 51, 0
1, 29984, Note_on_c, 0, 51, 56
1, 29988, Note_on_c, 0, 60, 58
1, 29999, Note_on_c, 0, 50, 0
1, 30002, Note_on_c, 0, 59, 0
1, 30074, Note_on_c, 0, 57, 63
1, 30074, Note_on_c, 0, 48, 64
1, 30086, Note_on_c, 0, 51, 0
1, 30090, Note_on_c, 0, 60, 0
1, 30160, Note_on_c, 0, 60, 57
1, 30160, Note_on_c, 0, 51, 56
1, 30176, Note_on_c, 0, 57, 0
1, 30176, Note_on_c, 0, 48, 0
1, 30244, Note_on_c, 0, 50, 56
1, 30244, Note_on_c, 0, 59, 57
1, 30258, Note_on_c, 0, 60, 0
1, 30258, Note_on_c, 0, 51, 0
1, 30328, Note_on_c, 0, 60, 57
1, 30328, Note_on_c, 0, 51, 56
1, 30343, Note_on_c, 0, 50, 0
1, 30343, Note_on_c, 0, 59, 0
1, 30419, Note_on_c, 0, 60, 0
1, 30419, Note_on_c, 0, 51, 0
1, 30419, Note_on_c, 0, 43, 71
1, 30419, Note_on_c, 0, 66, 76
1, 30507, Note_on_c, 0, 60, 64
1, 30507, Note_on_c, 0, 51, 56
1, 30522, Note_on_c, 0, 43, 0
1, 30522, Note_on_c, 0, 66, 0
1, 30590, Note_on_c, 0, 50, 56
1, 30590, Note_on_c, 0, 59, 57
1, 30602, Note_on_c, 0, 60, 0
1, 30602, Note_on_c, 0, 51, 0
1, 30671, Note_on_c, 0, 51, 56
1, 30671, Note_on_c, 0, 60, 57
1, 30685, Note_on_c, 0, 50, 0
1, 30685, Note_on_c, 0, 59, 0
1, 30758, Note_on_c, 0, 48, 65
1, 30758, Note_on_c, 0, 57, 64
1, 30773, Note_on_c, 0, 51, 0
1, 30773, Note_on_c, 0, 60, 0
1, 30844, Note_on_c, 0, 51, 56
1, 30847, Note_on_c, 0, 60, 58
1, 30859, Note_on_c, 0, 48, 0
1, 30859, Note_on_c, 0, 57, 0
1, 30930, Note_on_c, 0, 50, 57
1, 30930, Note_on_c, 0, 59, 58
1, 30941, Note_on_c, 0, 51, 0
1, 30944, Note_on_c, 0, 60, 0
1, 31011, Note_on_c, 0, 60, 58
1, 31014, Note_on_c, 0, 51, 57
1, 31028, Note_on_c, 0, 50, 0
1, 31028, Note_on_c, 0, 59, 0
1, 31102, Note_on_c, 0, 60, 0
1, 31102, Note_on_c, 0, 67, 79
1, 31102, Note_on_c, 0, 43, 73
1, 31105, Note_on_c, 0, 51, 0
1, 31200, Note_on_c, 0, 51, 58
1, 31200, Note_on_c, 0, 60, 65
1, 31211, Note_on_c, 0, 67, 0
1, 31211, Note_on_c, 0, 43, 0
1, 31281, Note_on_c, 0, 59, 57
1, 31281, Note_on_c, 0, 50, 58
1, 31294, Note_on_c, 0, 51, 0
1, 31294, Note_on_c, 0, 60, 0
1, 31360, Note_on_c, 0, 60, 58
1, 31360, Note_on_c, 0, 51, 58
1, 31376, Note_on_c, 0, 59, 0
1, 31376, Note_on_c, 0, 50, 0
1, 31447, Note_on_c, 0, 62, 66
1, 31447, Note_on_c, 0, 53, 66
1, 31462, Note_on_c, 0, 60, 0
1, 31462, Note_on_c, 0, 51, 0
1, 31534, Note_on_c, 0, 51, 58
1, 31534, Note_on_c, 0, 60, 58
1, 31548, Note_on_c, 0, 62, 0
1, 31548, Note_on_c, 0, 53, 0
1, 31617, Note_on_c, 0, 50, 58
1, 31617, Note_on_c, 0, 59, 58
1, 31629, Note_on_c, 0, 51, 0
1, 31629, Note_on_c, 0, 60, 0
1, 31698, Note_on_c, 0, 51, 58
1, 31698, Note_on_c, 0, 60, 58
1, 31714, Note_on_c, 0, 50, 0
1, 31714, Note_on_c, 0, 59, 0
1, 31790, Note_on_c, 0, 67, 79
1, 31790, Note_on_c, 0, 51, 0
1, 31790, Note_on_c, 0, 60, 0
1, 31790, Note_on_c, 0, 43, 73
1, 31881, Note_on_c, 0, 60, 67
1, 31881, Note_on_c, 0, 51, 58
1, 31894, Note_on_c, 0, 67, 0
1, 31894, Note_on_c, 0, 43, 0
1, 31963, Note_on_c, 0, 50, 58
1, 31963, Note_on_c, 0, 59, 58
1, 31976, Note_on_c, 0, 60, 0
1, 31976, Note_on_c, 0, 51, 0
1, 32043, Note_on_c, 0, 51, 58
1, 32046, Note_on_c, 0, 60, 58
1, 32060, Note_on_c, 0, 50, 0
1, 32060, Note_on_c, 0, 59, 0
1, 32136, Note_on_c, 0, 53, 67
1, 32136, Note_on_c, 0, 62, 67
1, 32148, Note_on_c, 0, 51, 0
1, 32151, Note_on_c, 0, 60, 0
1, 32223, Note_on_c, 0, 60, 59
1, 32223, Note_on_c, 0, 51, 58
1, 32237, Note_on_c, 0, 53, 0
1, 32237, Note_on_c, 0, 62, 0
1, 32306, Note_on_c, 0, 59, 59
1, 32306, Note_on_c, 0, 50, 58
1, 32320, Note_on_c, 0, 60, 0
1, 32320, Note_on_c, 0, 51, 0
1, 32391, Note_on_c, 0, 60, 59
1, 32391, Note_on_c, 0, 51, 58
1, 32405, Note_on_c, 0, 59, 0
1, 32405, Note_on_c, 0, 50, 0
1, 32482, Note_on_c, 0, 60, 0
1, 32482, Note_on_c, 0, 68, 80
1, 32482, Note_on_c, 0, 51, 0
1, 32485, Note_on_c, 0, 43, 75
1, 32567, Note_on_c, 0, 60, 67
1, 32567, Note_on_c, 0, 51, 59
1, 32584, Note_on_c, 0, 68, 0
1, 32584, Note_on_c, 0, 43, 0
1, 32650, Note_on_c, 0, 59, 61
1, 32650, Note_on_c, 0, 50, 59
1, 32662, Note_on_c, 0, 60, 0
1, 32662, Note_on_c, 0, 51, 0
1, 32731, Note_on_c, 0, 60, 61
1, 32731, Note_on_c, 0, 51, 59
1, 32746, Note_on_c, 0, 59, 0
1, 32746, Note_on_c, 0, 50, 0
1, 32817, Note_on_c, 0, 62, 68
1, 32817, Note_on_c, 0, 53, 68
1, 32833, Note_on_c, 0, 60, 0
1, 32833, Note_on_c, 0, 51, 0
1, 32906, Note_on_c, 0, 60, 60
1, 32906, Note_on_c, 0, 51, 58
1, 32920, Note_on_c, 0, 62, 0
1, 32920, Note_on_c, 0, 53, 0
1, 32992, Note_on_c, 0, 50, 58
1, 32992, Note_on_c, 0, 59, 60
1, 33003, Note_on_c, 0, 60, 0
1, 33006, Note_on_c, 0, 51, 0
1, 33073, Note_on_c, 0, 60, 60
1, 33076, Note_on_c, 0, 51, 59
1, 33090, Note_on_c, 0, 50, 0
1, 33090, Note_on_c, 0, 59, 0
1, 33160, Note_on_c, 0, 60, 0
1, 33160, Note_on_c, 0, 68, 83
1, 33164, Note_on_c, 0, 51, 0
1, 33164, Note_on_c, 0, 43, 75
1, 33250, Note_on_c, 0, 60, 69
1, 33250, Note_on_c, 0, 51, 60
1, 33263, Note_on_c, 0, 68, 0
1, 33263, Note_on_c, 0, 43, 0
1, 33332, Note_on_c, 0, 59, 62
1, 33332, Note_on_c, 0, 50, 60
1, 33347, Note_on_c, 0, 60, 0
1, 33347, Note_on_c, 0, 51, 0
1, 33415, Note_on_c, 0, 51, 60
1, 33415, Note_on_c, 0, 60, 62
1, 33429, Note_on_c, 0, 59, 0
1, 33429, Note_on_c, 0, 50, 0
1, 33502, Note_on_c, 0, 53, 69
1, 33502, Note_on_c, 0, 62, 69
1, 33518, Note_on_c, 0, 51, 0
1, 33518, Note_on_c, 0, 60, 0
1, 33591, Note_on_c, 0, 60, 61
1, 33591, Note_on_c, 0, 51, 61
1, 33605, Note_on_c, 0, 53, 0
1, 33605, Note_on_c, 0, 62, 0
1, 33674, Note_on_c, 0, 59, 61
1, 33677, Note_on_c, 0, 50, 61
1, 33688, Note_on_c, 0, 60, 0
1, 33688, Note_on_c, 0, 51, 0
1, 33758, Note_on_c, 0, 51, 61
1, 33758, Note_on_c, 0, 60, 61
1, 33772, Note_on_c, 0, 59, 0
1, 33775, Note_on_c, 0, 50, 0
1, 33850, Note_on_c, 0, 51, 0
1, 33850, Note_on_c, 0, 43, 65
1, 33850, Note_on_c, 0, 60, 0
1, 33948, Note_on_c, 0, 47, 68
1, 33964, Note_on_c, 0, 43, 0
1, 34041, Note_on_c, 0, 50, 71
1, 34056, Note_on_c, 0, 47, 0
1, 34128, Note_on_c, 0, 53, 74
1, 34142, Note_on_c, 0, 50, 0
1, 34214, Note_on_c, 0, 56, 74
1, 34228, Note_on_c, 0, 53, 0
1, 34300, Note_on_c, 0, 53, 70
1, 34314, Note_on_c, 0, 56, 0
1, 34386, Note_on_c, 0, 52, 70
1, 34400, Note_on_c, 0, 53, 0
1, 34472, Note_on_c, 0, 53, 70
1, 34486, Note_on_c, 0, 52, 0
1, 34558, Note_on_c, 0, 59, 74
1, 34573, Note_on_c, 0, 53, 0
1, 34644, Note_on_c, 0, 53, 70
1, 34659, Note_on_c, 0, 59, 0
1, 34730, Note_on_c, 0, 62, 74
1, 34745, Note_on_c, 0, 53, 0
1, 34818, Note_on_c, 0, 59, 70
1, 34833, Note_on_c, 0, 62, 0
1, 34906, Note_on_c, 0, 56, 72
1, 34920, Note_on_c, 0, 59, 0
1, 34994, Note_on_c, 0, 53, 71
1, 35008, Note_on_c, 0, 56, 0
1, 35081, Note_on_c, 0, 52, 70
1, 35096, Note_on_c, 0, 53, 0
1, 35169, Note_on_c, 0, 53, 69
1, 35184, Note_on_c, 0, 52, 0
1, 35257, Note_on_c, 0, 53, 0
1, 35257, Note_on_c, 0, 43, 64
1, 35350, Note_on_c, 0, 48, 66
1, 35365, Note_on_c, 0, 43, 0
1, 35441, Note_on_c, 0, 51, 68
1, 35455, Note_on_c, 0, 48, 0
1, 35529, Note_on_c, 0, 55, 72
1, 35543, Note_on_c, 0, 51, 0
1, 35615, Note_on_c, 0, 60, 75
1, 35629, Note_on_c, 0, 55, 0
1, 35701, Note_on_c, 0, 55, 70
1, 35715, Note_on_c, 0, 60, 0
1, 35787, Note_on_c, 0, 54, 70
1, 35801, Note_on_c, 0, 55, 0
1, 35873, Note_on_c, 0, 55, 70
1, 35887, Note_on_c, 0, 54, 0
1, 35959, Note_on_c, 0, 63, 74
1, 35973, Note_on_c, 0, 55, 0
1, 36045, Note_on_c, 0, 60, 70
1, 36059, Note_on_c, 0, 63, 0
1, 36131, Note_on_c, 0, 67, 74
1, 36146, Note_on_c, 0, 60, 0
1, 36219, Note_on_c, 0, 63, 70
1, 36233, Note_on_c, 0, 67, 0
1, 36306, Note_on_c, 0, 60, 74
1, 36321, Note_on_c, 0, 63, 0
1, 36393, Note_on_c, 0, 56, 70
1, 36408, Note_on_c, 0, 60, 0
1, 36481, Note_on_c, 0, 55, 72
1, 36495, Note_on_c, 0, 56, 0
1, 36568, Note_on_c, 0, 56, 70
1, 36583, Note_on_c, 0, 55, 0
1, 36656, Note_on_c, 0, 56, 0
1, 36656, Note_on_c, 0, 43, 67
1, 36745, Note_on_c, 0, 45, 70
1, 36760, Note_on_c, 0, 43, 0
1, 36832, Note_on_c, 0, 54, 70
1, 36846, Note_on_c, 0, 45, 0
1, 36918, Note_on_c, 0, 60, 71
1, 36932, Note_on_c, 0, 54, 0
1, 37004, Note_on_c, 0, 63, 75
1, 37018, Note_on_c, 0, 60, 0
1, 37089, Note_on_c, 0, 60, 70
1, 37104, Note_on_c, 0, 63, 0
1, 37175, Note_on_c, 0, 59, 70
1, 37189, Note_on_c, 0, 60, 0
1, 37261, Note_on_c, 0, 60, 70
1, 37275, Note_on_c, 0, 59, 0
1, 37347, Note_on_c, 0, 66, 74
1, 37361, Note_on_c, 0, 60, 0
1, 37432, Note_on_c, 0, 60, 70
1, 37447, Note_on_c, 0, 66, 0
1, 37518, Note_on_c, 0, 69, 74
1, 37532, Note_on_c, 0, 60, 0
1, 37604, Note_on_c, 0, 66, 70
1, 37618, Note_on_c, 0, 69, 0
1, 37690, Note_on_c, 0, 63, 73
1, 37704, Note_on_c, 0, 66, 0
1, 37775, Note_on_c, 0, 60, 70
1, 37790, Note_on_c, 0, 63, 0
1, 37861, Note_on_c, 0, 59, 70
1, 37875, Note_on_c, 0, 60, 0
1, 37947, Note_on_c, 0, 60, 70
1, 37961, Note_on_c, 0, 59, 0
1, 38033, Note_on_c, 0, 60, 0
1, 38033, Note_on_c, 0, 43, 67
1, 38106, Note_on_c, 0, 74, 67
1, 38178, Note_on_c, 0, 72, 65
1, 38191, Note_on_c, 0, 74, 0
1, 38251, Note_on_c, 0, 74, 65
1, 38264, Note_on_c, 0, 72, 0
1, 38324, Note_on_c, 0, 75, 72
1, 38336, Note_on_c, 0, 74, 0
1, 38395, Note_on_c, 0, 72, 67
1, 38407, Note_on_c, 0, 75, 0
1, 38466, Note_on_c, 0, 71, 63
1, 38478, Note_on_c, 0, 72, 0
1, 38538, Note_on_c, 0, 72, 63
1, 38549, Note_on_c, 0, 71, 0
1, 38609, Note_on_c, 0, 69, 73
1, 38621, Note_on_c, 0, 72, 0
1, 38680, Note_on_c, 0, 72, 67
1, 38692, Note_on_c, 0, 69, 0
1, 38751, Note_on_c, 0, 71, 64
1, 38763, Note_on_c, 0, 72, 0
1, 38822, Note_on_c, 0, 72, 64
1, 38834, Note_on_c, 0, 71, 0
1, 38893, Note_on_c, 0, 74, 67
1, 38905, Note_on_c, 0, 72, 0
1, 38963, Note_on_c, 0, 71, 64
1, 38975, Note_on_c, 0, 74, 0
1, 39033, Note_on_c, 0, 69, 64
1, 39045, Note_on_c, 0, 71, 0
1, 39103, Note_on_c, 0, 71, 64
1, 39115, Note_on_c, 0, 69, 0
1, 39177, Note_on_c, 0, 71, 0
1, 39177, Note_on_c, 0, 67, 75
1, 39253, Note_on_c, 0, 71, 67
1, 39253, Note_on_c, 0, 43, 0
1, 39253, Note_on_c, 0, 62, 60
1, 39265, Note_on_c, 0, 67, 0
1, 39324, Note_on_c, 0, 69, 64
1, 39324, Note_on_c, 0, 60, 60
1, 39336, Note_on_c, 0, 71, 0
1, 39336, Note_on_c, 0, 62, 0
1, 39395, Note_on_c, 0, 71, 64
1, 39395, Note_on_c, 0, 62, 61
1, 39407, Note_on_c, 0, 69, 0
1, 39407, Note_on_c, 0, 60, 0
1, 39466, Note_on_c, 0, 72, 70
1, 39466, Note_on_c, 0, 63, 70
1, 39478, Note_on_c, 0, 71, 0
1, 39478, Note_on_c, 0, 62, 0
1, 39536, Note_on_c, 0, 69, 64
1, 39536, Note_on_c, 0, 60, 67
1, 39548, Note_on_c, 0, 72, 0
1, 39548, Note_on_c, 0, 63, 0
1, 39606, Note_on_c, 0, 67, 64
1, 39606, Note_on_c, 0, 59, 60
1, 39617, Note_on_c, 0, 69, 0
1, 39617, Note_on_c, 0, 60, 0
1, 39676, Note_on_c, 0, 69, 65
1, 39676, Note_on_c, 0, 60, 60
1, 39687, Note_on_c, 0, 67, 0
1, 39687, Note_on_c, 0, 59, 0
1, 39747, Note_on_c, 0, 69, 0
1, 39747, Note_on_c, 0, 66, 75
1, 39747, Note_on_c, 0, 60, 0
1, 39750, Note_on_c, 0, 57, 75
1, 39818, Note_on_c, 0, 69, 67
1, 39818, Note_on_c, 0, 60, 61
1, 39830, Note_on_c, 0, 66, 0
1, 39830, Note_on_c, 0, 57, 0
1, 39890, Note_on_c, 0, 67, 64
1, 39890, Note_on_c, 0, 59, 61
1, 39901, Note_on_c, 0, 69, 0
1, 39901, Note_on_c, 0, 60, 0
1, 39961, Note_on_c, 0, 69, 64
1, 39961, Note_on_c, 0, 60, 61
1, 39972, Note_on_c, 0, 67, 0
1, 39972, Note_on_c, 0, 59, 0
1, 40032, Note_on_c, 0, 71, 70
1, 40032, Note_on_c, 0, 62, 70
1, 40043, Note_on_c, 0, 69, 0
1, 40043, Note_on_c, 0, 60, 0
1, 40102, Note_on_c, 0, 67, 65
1, 40102, Note_on_c, 0, 59, 61
1, 40113, Note_on_c, 0, 71, 0
1, 40113, Note_on_c, 0, 62, 0
1, 40172, Note_on_c, 0, 66, 65
1, 40172, Note_on_c, 0, 57, 61
1, 40183, Note_on_c, 0, 67, 0
1, 40183, Note_on_c, 0, 59, 0
1, 40242, Note_on_c, 0, 67, 65
1, 40242, Note_on_c, 0, 59, 61
1, 40254, Note_on_c, 0, 66, 0
1, 40254, Note_on_c, 0, 57, 0
1, 40317, Note_on_c, 0, 67, 0
1, 40317, Note_on_c, 0, 62, 75
1, 40317, Note_on_c, 0, 59, 0
1, 40320, Note_on_c, 0, 55, 74
1, 40394, Note_on_c, 0, 79, 70
1, 40394, Note_on_c, 0, 59, 61
1, 40406, Note_on_c, 0, 62, 0
1, 40406, Note_on_c, 0, 55, 0
1, 40465, Note_on_c, 0, 77, 67
1, 40465, Note_on_c, 0, 57, 61
1, 40477, Note_on_c, 0, 79, 0
1, 40477, Note_on_c, 0, 59, 0
1, 40536, Note_on_c, 0, 79, 67
1, 40536, Note_on_c, 0, 59, 61
1, 40548, Note_on_c, 0, 77, 0
1, 40548, Note_on_c, 0, 57, 0
1, 40607, Note_on_c, 0, 80, 73
1, 40607, Note_on_c, 0, 60, 71
1, 40619, Note_on_c, 0, 79, 0
1, 40619, Note_on_c, 0, 59, 0
1, 40677, Note_on_c, 0, 77, 68
1, 40677, Note_on_c, 0, 56, 61
1, 40689, Note_on_c, 0, 80, 0
1, 40689, Note_on_c, 0, 60, 0
1, 40747, Note_on_c, 0, 75, 68
1, 40747, Note_on_c, 0, 55, 61
1, 40758, Note_on_c, 0, 77, 0
1, 40758, Note_on_c, 0, 56, 0
1, 40817, Note_on_c, 0, 77, 68
1, 40817, Note_on_c, 0, 56, 61
1, 40829, Note_on_c, 0, 75, 0
1, 40829, Note_on_c, 0, 55, 0
1, 40889, Note_on_c, 0, 77, 0
1, 40889, Note_on_c, 0, 74, 77
1, 40889, Note_on_c, 0, 56, 0
1, 40892, Note_on_c, 0, 53, 74
1, 40960, Note_on_c, 0, 77, 70
1, 40960, Note_on_c, 0, 57, 63
1, 40972, Note_on_c, 0, 74, 0
1, 40972, Note_on_c, 0, 53, 0
1, 41031, Note_on_c, 0, 75, 66
1, 41031, Note_on_c, 0, 55, 63
1, 41043, Note_on_c, 0, 77, 0
1, 41043, Note_on_c, 0, 57, 0
1, 41102, Note_on_c, 0, 77, 66
1, 41102, Note_on_c, 0, 57, 63
1, 41114, Note_on_c, 0, 75, 0
1, 41114, Note_on_c, 0, 55, 0
1, 41173, Note_on_c, 0, 79, 73
1, 41173, Note_on_c, 0, 59, 71
1, 41184, Note_on_c, 0, 77, 0
1, 41184, Note_on_c, 0, 57, 0
1, 41243, Note_on_c, 0, 75, 67
1, 41243, Note_on_c, 0, 55, 62
1, 41255, Note_on_c, 0, 79, 0
1, 41255, Note_on_c, 0, 59, 0
1, 41313, Note_on_c, 0, 74, 67
1, 41313, Note_on_c, 0, 53, 62
1, 41325, Note_on_c, 0, 75, 0
1, 41325, Note_on_c, 0, 55, 0
1, 41383, Note_on_c, 0, 75, 68
1, 41383, Note_on_c, 0, 55, 62
1, 41396, Note_on_c, 0, 74, 0
1, 41396, Note_on_c, 0, 53, 0
1, 41458, Note_on_c, 0, 75, 0
1, 41458, Note_on_c, 0, 72, 75
1, 41458, Note_on_c, 0, 55, 0
1, 41461, Note_on_c, 0, 51, 76
1, 41533, Note_on_c, 0, 75, 67
1, 41533, Note_on_c, 0, 67, 63
1, 41544, Note_on_c, 0, 72, 0
1, 41544, Note_on_c, 0, 51, 0
1, 41603, Note_on_c, 0, 74, 65
1, 41603, Note_on_c, 0, 65, 63
1, 41615, Note_on_c, 0, 75, 0
1, 41615, Note_on_c, 0, 67, 0
1, 41674, Note_on_c, 0, 75, 67
1, 41674, Note_on_c, 0, 67, 63
1, 41686, Note_on_c, 0, 74, 0
1, 41686, Note_on_c, 0, 65, 0
1, 41745, Note_on_c, 0, 77, 71
1, 41745, Note_on_c, 0, 68, 71
1, 41756, Note_on_c, 0, 75, 0
1, 41756, Note_on_c, 0, 67, 0
1, 41814, Note_on_c, 0, 74, 65
1, 41814, Note_on_c, 0, 65, 63
1, 41826, Note_on_c, 0, 77, 0
1, 41826, Note_on_c, 0, 68, 0
1, 41884, Note_on_c, 0, 72, 65
1, 41884, Note_on_c, 0, 63, 63
1, 41896, Note_on_c, 0, 74, 0
1, 41896, Note_on_c, 0, 65, 0
1, 41954, Note_on_c, 0, 74, 65
1, 41954, Note_on_c, 0, 65, 63
1, 41967, Note_on_c, 0, 72, 0
1, 41967, Note_on_c, 0, 63, 0
1, 42027, Note_on_c, 0, 74, 0
1, 42027, Note_on_c, 0, 71, 75
1, 42027, Note_on_c, 0, 65, 0
1, 42030, Note_on_c, 0, 62, 76
1, 42098, Note_on_c, 0, 74, 67
1, 42098, Note_on_c, 0, 65, 64
1, 42110, Note_on_c, 0, 71, 0
1, 42110, Note_on_c, 0, 62, 0
1, 42169, Note_on_c, 0, 72, 65
1, 42169, Note_on_c, 0, 63, 65
1, 42180, Note_on_c, 0, 74, 0
1, 42180, Note_on_c, 0, 65, 0
1, 42240, Note_on_c, 0, 74, 67
1, 42240, Note_on_c, 0, 65, 63
1, 42251, Note_on_c, 0, 72, 0
1, 42251, Note_on_c, 0, 63, 0
1, 42310, Note_on_c, 0, 75, 71
1, 42310, Note_on_c, 0, 67, 71
1, 42322, Note_on_c, 0, 74, 0
1, 42322, Note_on_c, 0, 65, 0
1, 42380, Note_on_c, 0, 72, 65
1, 42380, Note_on_c, 0, 63, 63
1, 42392, Note_on_c, 0, 75, 0
1, 42392, Note_on_c, 0, 67, 0
1, 42450, Note_on_c, 0, 71, 65
1, 42450, Note_on_c, 0, 62, 62
1, 42462, Note_on_c, 0, 72, 0
1, 42462, Note_on_c, 0, 63, 0
1, 42520, Note_on_c, 0, 72, 65
1, 42520, Note_on_c, 0, 63, 62
1, 42533, Note_on_c, 0, 71, 0
1, 42533, Note_on_c, 0, 62, 0
1, 42595, Note_on_c, 0, 72, 0
1, 42595, Note_on_c, 0, 67, 75
1, 42595, Note_on_c, 0, 63, 0
1, 42598, Note_on_c, 0, 60, 74
1, 42671, Note_on_c, 0, 72, 67
1, 42671, Note_on_c, 0, 63, 63
1, 42683, Note_on_c, 0, 67, 0
1, 42683, Note_on_c, 0, 60, 0
1, 42743, Note_on_c, 0, 71, 64
1, 42743, Note_on_c, 0, 62, 63
1, 42755, Note_on_c, 0, 72, 0
1, 42755, Note_on_c, 0, 63, 0
1, 42815, Note_on_c, 0, 72, 65
1, 42815, Note_on_c, 0, 63, 63
1, 42827, Note_on_c, 0, 71, 0
1, 42827, Note_on_c, 0, 62, 0
1, 42887, Note_on_c, 0, 68, 80
1, 42887, Note_on_c, 0, 65, 77
1, 42899, Note_on_c, 0, 72, 0
1, 42899, Note_on_c, 0, 63, 0
1, 42959, Note_on_c, 0, 77, 65
1, 42959, Note_on_c, 0, 62, 60
1, 42971, Note_on_c, 0, 68, 0
1, 42971, Note_on_c, 0, 65, 0
1, 43030, Note_on_c, 0, 75, 65
1, 43030, Note_on_c, 0, 60, 60
1, 43042, Note_on_c, 0, 77, 0
1, 43042, Note_on_c, 0, 62, 0
1, 43102, Note_on_c, 0, 77, 64
1, 43102, Note_on_c, 0, 62, 61
1, 43114, Note_on_c, 0, 75, 0
1, 43114, Note_on_c, 0, 60, 0
1, 43175, Note_on_c, 0, 77, 0
1, 43175, Note_on_c, 0, 67, 80
1, 43175, Note_on_c, 0, 62, 0
1, 43178, Note_on_c, 0, 63, 77
1, 43247, Note_on_c, 0, 75, 67
1, 43247, Note_on_c, 0, 60, 62
1, 43259, Note_on_c, 0, 67, 0
1, 43259, Note_on_c, 0, 63, 0
1, 43319, Note_on_c, 0, 74, 65
1, 43319, Note_on_c, 0, 59, 63
1, 43331, Note_on_c, 0, 75, 0
1, 43331, Note_on_c, 0, 60, 0
1, 43391, Note_on_c, 0, 75, 67
1, 43391, Note_on_c, 0, 60, 63
1, 43403, Note_on_c, 0, 74, 0
1, 43403, Note_on_c, 0, 59, 0
1, 43463, Note_on_c, 0, 65, 81
1, 43463, Note_on_c, 0, 62, 77
1, 43475, Note_on_c, 0, 75, 0
1, 43475, Note_on_c, 0, 60, 0
1, 43534, Note_on_c, 0, 74, 65
1, 43534, Note_on_c, 0, 59, 63
1, 43546, Note_on_c, 0, 65, 0
1, 43546, Note_on_c, 0, 62, 0
1, 43606, Note_on_c, 0, 72, 65
1, 43606, Note_on_c, 0, 57, 63
1, 43618, Note_on_c, 0, 74, 0
1, 43618, Note_on_c, 0, 59, 0
1, 43678, Note_on_c, 0, 74, 65
1, 43678, Note_on_c, 0, 59, 62
1, 43690, Note_on_c, 0, 72, 0
1, 43690, Note_on_c, 0, 57, 0
1, 43751, Note_on_c, 0, 74, 0
1, 43751, Note_on_c, 0, 63, 81
1, 43751, Note_on_c, 0, 59, 0
1, 43754, Note_on_c, 0, 60, 77
1, 43824, Note_on_c, 0, 72, 67
1, 43824, Note_on_c, 0, 63, 60
1, 43837, Note_on_c, 0, 63, 0
1, 43837, Note_on_c, 0, 60, 0
1, 43898, Note_on_c, 0, 71, 65
1, 43898, Note_on_c, 0, 62, 60
1, 43910, Note_on_c, 0, 72, 0
1, 43910, Note_on_c, 0, 63, 0
1, 43971, Note_on_c, 0, 72, 67
1, 43971, Note_on_c, 0, 63, 61
1, 43983, Note_on_c, 0, 71, 0
1, 43983, Note_on_c, 0, 62, 0
1, 44045, Note_on_c, 0, 68, 81
1, 44045, Note_on_c, 0, 53, 77
1, 44057, Note_on_c, 0, 72, 0
1, 44057, Note_on_c, 0, 63, 0
1, 44118, Note_on_c, 0, 65, 66
1, 44118, Note_on_c, 0, 62, 62
1, 44130, Note_on_c, 0, 68, 0
1, 44130, Note_on_c, 0, 53, 0
1, 44191, Note_on_c, 0, 63, 66
1, 44191, Note_on_c, 0, 60, 62
1, 44204, Note_on_c, 0, 65, 0
1, 44204, Note_on_c, 0, 62, 0
1, 44265, Note_on_c, 0, 65, 66
1, 44265, Note_on_c, 0, 62, 62
1, 44277, Note_on_c, 0, 63, 0
1, 44277, Note_on_c, 0, 60, 0
1, 44338, Note_on_c, 0, 65, 0
1, 44338, Note_on_c, 0, 67, 81
1, 44338, Note_on_c, 0, 62, 0
1, 44341, Note_on_c, 0, 51, 77
1, 44416, Note_on_c, 0, 63, 67
1, 44416, Note_on_c, 0, 60, 62
1, 44429, Note_on_c, 0, 67, 0
1, 44429, Note_on_c, 0, 51, 0
1, 44494, Note_on_c, 0, 62, 65
1, 44494, Note_on_c, 0, 59, 62
1, 44507, Note_on_c, 0, 63, 0
1, 44507, Note_on_c, 0, 60, 0
1, 44571, Note_on_c, 0, 63, 65
1, 44571, Note_on_c, 0, 60, 62
1, 44584, Note_on_c, 0, 62, 0
1, 44584, Note_on_c, 0, 59, 0
1, 44649, Note_on_c, 0, 65, 81
1, 44649, Note_on_c, 0, 50, 77
1, 44663, Note_on_c, 0, 63, 0
1, 44663, Note_on_c, 0, 60, 0
1, 44732, Note_on_c, 0, 62, 66
1, 44732, Note_on_c, 0, 59, 61
1, 44746, Note_on_c, 0, 65, 0
1, 44746, Note_on_c, 0, 50, 0
1, 44815, Note_on_c, 0, 60, 66
1, 44815, Note_on_c, 0, 57, 61
1, 44829, Note_on_c, 0, 62, 0
1, 44829, Note_on_c, 0, 59, 0
1, 44898, Note_on_c, 0, 62, 67
1, 44898, Note_on_c, 0, 59, 61
1, 44912, Note_on_c, 0, 60, 0
1, 44912, Note_on_c, 0, 57, 0
1, 44981, Note_on_c, 0, 62, 0
1, 44981, Note_on_c, 0, 59, 0
1, 44981, Note_on_c, 0, 48, 67
1, 45027, Note_on_c, 0, 55, 67
1, 45073, Note_on_c, 0, 58, 67
1, 45119, Note_on_c, 0, 60, 67
1, 45165, Note_on_c, 0, 64, 67
1, 45901, Note_on_c, 0, 64, 0
1, 45901, Note_on_c, 0, 60, 58
1, 46086, Note_on_c, 0, 60, 0
1, 46086, Note_on_c, 0, 62, 60
1, 46270, Note_on_c, 0, 62, 0
1, 46270, Note_on_c, 0, 64, 63
1, 46454, Note_on_c, 0, 64, 0
1, 46454, Note_on_c, 0, 60, 0
1, 46454, Note_on_c, 0, 65, 66
1, 46457, Note_on_c, 0, 58, 0
1, 46457, Note_on_c, 0, 55, 0
1, 46457, Note_on_c, 0, 48, 0
1, 46546, Note_on_c, 0, 65, 0
1, 46546, Note_on_c, 0, 67, 67
1, 46638, Note_on_c, 0, 67, 0
1, 46638, Note_on_c, 0, 68, 68
1, 46730, Note_on_c, 0, 68, 0
1, 46730, Note_on_c, 0, 70, 68
1, 46822, Note_on_c, 0, 70, 0
1, 46822, Note_on_c, 0, 72, 66
1, 46914, Note_on_c, 0, 72, 0
1, 46914, Note_on_c, 0, 70, 65
1, 47006, Note_on_c, 0, 70, 0
1, 47006, Note_on_c, 0, 68, 64
1, 47098, Note_on_c, 0, 68, 0
1, 47098, Note_on_c, 0, 67, 63
1, 47190, Note_on_c, 0, 67, 0
1, 47190, Note_on_c, 0, 65, 62
1, 47559, Note_on_c, 0, 65, 0
1, 47559, Note_on_c, 0, 67, 67
1, 47743, Note_on_c, 0, 67, 0
1, 47743, Note_on_c, 0, 64, 67
1, 47927, Note_on_c, 0, 64, 0
1, 47927, Note_on_c, 0, 48, 67
1, 47973, Note_on_c, 0, 53, 67
1, 48019, Note_on_c, 0, 56, 67
1, 48065, Note_on_c, 0, 60, 67
1, 48111, Note_on_c, 0, 65, 80
1, 48172, Note_on_c, 0, 65, 0
1, 48172, Note_on_c, 0, 64, 70
1, 48234, Note_on_c, 0, 64, 0
1, 48234, Note_on_c, 0, 65, 78
1, 48847, Note_on_c, 0, 65, 0
1, 48847, Note_on_c, 0, 67, 67
1, 49032, Note_on_c, 0, 67, 0
1, 49032, Note_on_c, 0, 65, 64
1, 49216, Note_on_c, 0, 65, 0
1, 49216, Note_on_c, 0, 64, 64
1, 49400, Note_on_c, 0, 64, 0
1, 49400, Note_on_c, 0, 60, 0
1, 49400, Note_on_c, 0, 65, 65
1, 49403, Note_on_c, 0, 56, 0
1, 49403, Note_on_c, 0, 53, 0
1, 49403, Note_on_c, 0, 48, 0
1, 49584, Note_on_c, 0, 65, 0
1, 49584, Note_on_c, 0, 67, 65
1, 49768, Note_on_c, 0, 67, 0
1, 49768, Note_on_c, 0, 68, 67
1, 49952, Note_on_c, 0, 68, 0
1, 49952, Note_on_c, 0, 67, 67
1, 50136, Note_on_c, 0, 67, 0
1, 50136, Note_on_c, 0, 65, 66
1, 50228, Note_on_c, 0, 65, 0
1, 50228, Note_on_c, 0, 63, 65
1, 50321, Note_on_c, 0, 63, 0
1, 50321, Note_on_c, 0, 62, 64
1, 50413, Note_on_c, 0, 62, 0
1, 50413, Note_on_c, 0, 63, 65
1, 50505, Note_on_c, 0, 63, 0
1, 50505, Note_on_c, 0, 65, 68
1, 50597, Note_on_c, 0, 65, 0
1, 50597, Note_on_c, 0, 62, 63
1, 50689, Note_on_c, 0, 62, 0
1, 50689, Note_on_c, 0, 63, 65
1, 50781, Note_on_c, 0, 63, 0
1, 50781, Note_on_c, 0, 65, 67
1, 50873, Note_on_c, 0, 65, 0
1, 50873, Note_on_c, 0, 59, 67
1, 50958, Note_on_c, 0, 36, 60
1, 51044, Note_on_c, 0, 47, 65
1, 51058, Note_on_c, 0, 36, 0
1, 51129, Note_on_c, 0, 59, 0
1, 51129, Note_on_c, 0, 50, 69
1, 51215, Note_on_c, 0, 53, 69
1, 51228, Note_on_c, 0, 50, 0
1, 51295, Note_on_c, 0, 56, 72
1, 51308, Note_on_c, 0, 53, 0
1, 51374, Note_on_c, 0, 55, 71
1, 51388, Note_on_c, 0, 56, 0
1, 51454, Note_on_c, 0, 53, 69
1, 51468, Note_on_c, 0, 55, 0
1, 51534, Note_on_c, 0, 59, 72
1, 51548, Note_on_c, 0, 53, 0
1, 51614, Note_on_c, 0, 53, 67
1, 51628, Note_on_c, 0, 59, 0
1, 51694, Note_on_c, 0, 62, 74
1, 51708, Note_on_c, 0, 53, 0
1, 51774, Note_on_c, 0, 53, 67
1, 51788, Note_on_c, 0, 62, 0
1, 51854, Note_on_c, 0, 59, 70
1, 51867, Note_on_c, 0, 53, 0
1, 51933, Note_on_c, 0, 56, 69
1, 51946, Note_on_c, 0, 59, 0
1, 52012, Note_on_c, 0, 55, 68
1, 52026, Note_on_c, 0, 56, 0
1, 52091, Note_on_c, 0, 53, 67
1, 52105, Note_on_c, 0, 55, 0
1, 52173, Note_on_c, 0, 53, 0
1, 52173, Note_on_c, 0, 52, 72
1, 52173, Note_on_c, 0, 47, 0
1, 52260, Note_on_c, 0, 61, 67
1, 52274, Note_on_c, 0, 52, 0
1, 52340, Note_on_c, 0, 58, 67
1, 52354, Note_on_c, 0, 61, 0
1, 52421, Note_on_c, 0, 55, 67
1, 52434, Note_on_c, 0, 58, 0
1, 52501, Note_on_c, 0, 60, 72
1, 52514, Note_on_c, 0, 55, 0
1, 52580, Note_on_c, 0, 56, 67
1, 52594, Note_on_c, 0, 60, 0
1, 52660, Note_on_c, 0, 53, 67
1, 52673, Note_on_c, 0, 56, 0
1, 52740, Note_on_c, 0, 56, 67
1, 52753, Note_on_c, 0, 53, 0
1, 52821, Note_on_c, 0, 55, 72
1, 52834, Note_on_c, 0, 56, 0
1, 52901, Note_on_c, 0, 58, 67
1, 52914, Note_on_c, 0, 55, 0
1, 52981, Note_on_c, 0, 55, 67
1, 52994, Note_on_c, 0, 58, 0
1, 53060, Note_on_c, 0, 52, 67
1, 53074, Note_on_c, 0, 55, 0
1, 53142, Note_on_c, 0, 56, 72
1, 53156, Note_on_c, 0, 52, 0
1, 53225, Note_on_c, 0, 53, 67
1, 53239, Note_on_c, 0, 56, 0
1, 53306, Note_on_c, 0, 50, 67
1, 53319, Note_on_c, 0, 53, 0
1, 53384, Note_on_c, 0, 53, 67
1, 53398, Note_on_c, 0, 50, 0
1, 53466, Note_on_c, 0, 52, 71
1, 53480, Note_on_c, 0, 53, 0
1, 53548, Note_on_c, 0, 55, 67
1, 53561, Note_on_c, 0, 52, 0
1, 53628, Note_on_c, 0, 52, 67
1, 53641, Note_on_c, 0, 55, 0
1, 53707, Note_on_c, 0, 48, 67
1, 53721, Note_on_c, 0, 52, 0
1, 53789, Note_on_c, 0, 53, 73
1, 53803, Note_on_c, 0, 48, 0
1, 53869, Note_on_c, 0, 50, 67
1, 53883, Note_on_c, 0, 53, 0
1, 53950, Note_on_c, 0, 47, 67
1, 53963, Note_on_c, 0, 50, 0
1, 54028, Note_on_c, 0, 50, 67
1, 54042, Note_on_c, 0, 47, 0
1, 54110, Note_on_c, 0, 50, 0
1, 54110, Note_on_c, 0, 36, 72
1, 54194, Note_on_c, 0, 43, 67
1, 54278, Note_on_c, 0, 48, 67
1, 54291, Note_on_c, 0, 43, 0
1, 54358, Note_on_c, 0, 50, 67
1, 54439, Note_on_c, 0, 52, 68
1, 54452, Note_on_c, 0, 50, 0
1, 54519, Note_on_c, 0, 55, 67
1, 54532, Note_on_c, 0, 52, 0
1, 54600, Note_on_c, 0, 58, 71
1, 54613, Note_on_c, 0, 55, 0
1, 54680, Note_on_c, 0, 55, 67
1, 54694, Note_on_c, 0, 58, 0
1, 54761, Note_on_c, 0, 56, 68
1, 54774, Note_on_c, 0, 55, 0
1, 54843, Note_on_c, 0, 60, 65
1, 54857, Note_on_c, 0, 56, 0
1, 54925, Note_on_c, 0, 65, 68
1, 54940, Note_on_c, 0, 60, 0
1, 55012, Note_on_c, 0, 62, 67
1, 55026, Note_on_c, 0, 65, 0
1, 55098, Note_on_c, 0, 65, 64
1, 55114, Note_on_c, 0, 62, 0
1, 55195, Note_on_c, 0, 68, 59
1, 55211, Note_on_c, 0, 65, 0
1, 55292, Note_on_c, 0, 72, 62
1, 55309, Note_on_c, 0, 68, 0
1, 55398, Note_on_c, 0, 71, 57
1, 55416, Note_on_c, 0, 72, 0
1, 55505, Note_on_c, 0, 72, 59
1, 55525, Note_on_c, 0, 71, 0
1, 55627, Note_on_c, 0, 67, 54
1, 55650, Note_on_c, 0, 72, 0
1, 55763, Note_on_c, 0, 65, 52
1, 55788, Note_on_c, 0, 67, 0
1, 55912, Note_on_c, 0, 62, 49
1, 55972, Note_on_c, 0, 65, 0
1, 56269, Note_on_c, 0, 64, 42
1, 56344, Note_on_c, 0, 62, 0
1, 57617, Note_on_c, 0, 64, 0
1, 57617, Note_on_c, 0, 48, 0
1, 57617, Note_on_c, 0, 36, 0
1, 59021, Control_c, 0, 91, 127
1, 59021, Control_c, 0, 91, 127
1, 59021, Control_c, 0, 91, 127
1, 59330, Note_on_c, 0, 72, 81
1, 59485, Note_on_c, 0, 72, 0
1, 59485, Note_on_c, 0, 71, 81
1, 59640, Note_on_c, 0, 71, 0
1, 59640, Note_on_c, 0, 72, 86
1, 59795, Note_on_c, 0, 72, 0
1, 59950, Note_on_c, 0, 67, 71
1, 60269, Note_on_c, 0, 67, 0
1, 60269, Note_on_c, 0, 68, 72
1, 60424, Note_on_c, 0, 68, 0
1, 60579, Note_on_c, 0, 72, 81
1, 60733, Note_on_c, 0, 72, 0
1, 60733, Note_on_c, 0, 71, 81
1, 60888, Note_on_c, 0, 71, 0
1, 60888, Note_on_c, 0, 72, 86
1, 61043, Note_on_c, 0, 72, 0
1, 61198, Note_on_c, 0, 74, 76
1, 61507, Note_on_c, 0, 74, 0
1, 61507, Note_on_c, 0, 67, 73
1, 61662, Note_on_c, 0, 67, 0
1, 61817, Note_on_c, 0, 72, 81
1, 61972, Note_on_c, 0, 72, 0
1, 61972, Note_on_c, 0, 71, 81
1, 62127, Note_on_c, 0, 71, 0
1, 62127, Note_on_c, 0, 72, 86
1, 62281, Note_on_c, 0, 72, 0
1, 62436, Note_on_c, 0, 74, 77
1, 62591, Note_on_c, 0, 74, 0
1, 62746, Note_on_c, 0, 65, 75
1, 62905, Note_on_c, 0, 65, 0
1, 62905, Note_on_c, 0, 67, 75
1, 63063, Note_on_c, 0, 67, 0
1, 63063, Note_on_c, 0, 68, 81
1, 63690, Note_on_c, 0, 68, 0
1, 63690, Note_on_c, 0, 67, 73
1, 63845, Note_on_c, 0, 67, 0
1, 63845, Note_on_c, 0, 65, 71
1, 64000, Control_c, 0, 91, 127
1, 64000, Note_on_c, 0, 65, 0
1, 64000, Note_on_c, 0, 63, 75
1, 64077, Note_on_c, 0, 63, 0
1, 64155, Note_on_c, 0, 72, 71
1, 64309, Note_on_c, 0, 79, 81
1, 64309, Note_on_c, 0, 72, 0
1, 64309, Note_on_c, 0, 71, 62
1, 64464, Note_on_c, 0, 79, 0
1, 64464, Note_on_c, 0, 78, 81
1, 64464, Note_on_c, 0, 71, 0
1, 64467, Note_on_c, 0, 68, 62
1, 64619, Note_on_c, 0, 78, 0
1, 64619, Note_on_c, 0, 79, 86
1, 64619, Note_on_c, 0, 68, 0
1, 64622, Note_on_c, 0, 67, 62
1, 64774, Note_on_c, 0, 79, 0
1, 64774, Note_on_c, 0, 67, 0
1, 64774, Note_on_c, 0, 65, 62
1, 64929, Note_on_c, 0, 72, 71
1, 64929, Note_on_c, 0, 65, 0
1, 64929, Note_on_c, 0, 63, 62
1, 65084, Note_on_c, 0, 63, 0
1, 65084, Note_on_c, 0, 62, 62
1, 65238, Note_on_c, 0, 72, 0
1, 65238, Note_on_c, 0, 75, 72
1, 65238, Note_on_c, 0, 62, 0
1, 65241, Note_on_c, 0, 60, 67
1, 65393, Note_on_c, 0, 75, 0
1, 65393, Note_on_c, 0, 60, 0
1, 65548, Note_on_c, 0, 79, 81
1, 65548, Note_on_c, 0, 75, 65
1, 65703, Note_on_c, 0, 79, 0
1, 65703, Note_on_c, 0, 78, 81
1, 65858, Note_on_c, 0, 78, 0
1, 65858, Note_on_c, 0, 79, 86
1, 65858, Note_on_c, 0, 75, 0
1, 65861, Note_on_c, 0, 74, 65
1, 66012, Note_on_c, 0, 79, 0
1, 66167, Note_on_c, 0, 81, 76
1, 66167, Note_on_c, 0, 74, 0
1, 66167, Note_on_c, 0, 72, 65
1, 66477, Note_on_c, 0, 81, 0
1, 66477, Note_on_c, 0, 74, 73
1, 66477, Note_on_c, 0, 72, 0
1, 66480, Note_on_c, 0, 70, 68
1, 66632, Note_on_c, 0, 74, 0
1, 66632, Note_on_c, 0, 70, 0
1, 66787, Note_on_c, 0, 79, 81
1, 66787, Note_on_c, 0, 69, 63
1, 66941, Note_on_c, 0, 79, 0
1, 66941, Note_on_c, 0, 78, 81
1, 67096, Note_on_c, 0, 78, 0
1, 67096, Note_on_c, 0, 79, 86
1, 67096, Note_on_c, 0, 69, 0
1, 67099, Note_on_c, 0, 70, 67
1, 67251, Note_on_c, 0, 79, 0
1, 67406, Note_on_c, 0, 81, 77
1, 67406, Note_on_c, 0, 70, 0
1, 67406, Note_on_c, 0, 72, 62
1, 67713, Note_on_c, 0, 72, 0
1, 67713, Note_on_c, 0, 81, 0
1, 67713, Note_on_c, 0, 72, 75
1, 67713, Note_on_c, 0, 66, 67
1, 67876, Note_on_c, 0, 72, 0
1, 67876, Note_on_c, 0, 74, 75
1, 68037, Note_on_c, 0, 74, 0
1, 68037, Note_on_c, 0, 75, 81
1, 68037, Note_on_c, 0, 66, 0
1, 68040, Note_on_c, 0, 67, 62
1, 68358, Note_on_c, 0, 67, 0
1, 68358, Note_on_c, 0, 69, 66
1, 68668, Note_on_c, 0, 75, 0
1, 68668, Note_on_c, 0, 74, 73
1, 68668, Note_on_c, 0, 69, 0
1, 68671, Note_on_c, 0, 66, 63
1, 68822, Note_on_c, 0, 74, 0
1, 68822, Note_on_c, 0, 72, 73
1, 68977, Note_on_c, 0, 72, 0
1, 68977, Note_on_c, 0, 70, 78
1, 68977, Control_c, 0, 91, 127
1, 68980, Note_on_c, 0, 66, 0
1, 68980, Note_on_c, 0, 67, 69
1, 69132, Note_on_c, 0, 70, 0
1, 69287, Note_on_c, 0, 75, 81
1, 69442, Note_on_c, 0, 75, 0
1, 69442, Note_on_c, 0, 74, 81
1, 69597, Note_on_c, 0, 74, 0
1, 69597, Note_on_c, 0, 75, 86
1, 69597, Note_on_c, 0, 67, 0
1, 69751, Note_on_c, 0, 75, 0
1, 69751, Note_on_c, 0, 60, 70
1, 69906, Note_on_c, 0, 67, 71
1, 69906, Note_on_c, 0, 60, 0
1, 69906, Note_on_c, 0, 62, 72
1, 70061, Note_on_c, 0, 62, 0
1, 70061, Note_on_c, 0, 63, 74
1, 70216, Note_on_c, 0, 67, 0
1, 70216, Note_on_c, 0, 68, 72
1, 70216, Note_on_c, 0, 63, 0
1, 70219, Note_on_c, 0, 65, 75
1, 70371, Note_on_c, 0, 68, 0
1, 70371, Note_on_c, 0, 65, 0
1, 70371, Note_on_c, 0, 67, 75
1, 70525, Note_on_c, 0, 77, 81
1, 70525, Note_on_c, 0, 67, 0
1, 70525, Note_on_c, 0, 68, 79
1, 70680, Note_on_c, 0, 77, 0
1, 70680, Note_on_c, 0, 75, 81
1, 70835, Note_on_c, 0, 75, 0
1, 70835, Note_on_c, 0, 77, 86
1, 70990, Note_on_c, 0, 77, 0
1, 70990, Note_on_c, 0, 68, 0
1, 70990, Note_on_c, 0, 62, 71
1, 71145, Note_on_c, 0, 69, 76
1, 71145, Note_on_c, 0, 62, 0
1, 71145, Note_on_c, 0, 63, 73
1, 71300, Note_on_c, 0, 63, 0
1, 71300, Note_on_c, 0, 65, 74
1, 71454, Note_on_c, 0, 69, 0
1, 71454, Note_on_c, 0, 70, 78
1, 71454, Control_c, 0, 91, 127
1, 71457, Note_on_c, 0, 65, 0
1, 71457, Note_on_c, 0, 67, 76
1, 71609, Note_on_c, 0, 70, 0
1, 71609, Note_on_c, 0, 67, 0
1, 71609, Note_on_c, 0, 69, 77
1, 71764, Note_on_c, 0, 79, 81
1, 71764, Note_on_c, 0, 69, 0
1, 71764, Note_on_c, 0, 70, 79
1, 71919, Note_on_c, 0, 79, 0
1, 71919, Note_on_c, 0, 77, 81
1, 72074, Note_on_c, 0, 77, 0
1, 72074, Note_on_c, 0, 79, 86
1, 72228, Note_on_c, 0, 79, 0
1, 72228, Note_on_c, 0, 70, 0
1, 72228, Note_on_c, 0, 63, 69
1, 72383, Note_on_c, 0, 71, 71
1, 72383, Note_on_c, 0, 63, 0
1, 72383, Note_on_c, 0, 65, 71
1, 72538, Note_on_c, 0, 65, 0
1, 72538, Note_on_c, 0, 67, 73
1, 72693, Note_on_c, 0, 71, 0
1, 72693, Note_on_c, 0, 72, 72
1, 72693, Note_on_c, 0, 67, 0
1, 72696, Note_on_c, 0, 68, 74
1, 72848, Note_on_c, 0, 72, 0
1, 72848, Note_on_c, 0, 68, 0
1, 72848, Note_on_c, 0, 67, 73
1, 73002, Note_on_c, 0, 74, 81
1, 73002, Note_on_c, 0, 67, 0
1, 73002, Note_on_c, 0, 65, 72
1, 73157, Note_on_c, 0, 74, 0
1, 73157, Note_on_c, 0, 75, 81
1, 73157, Note_on_c, 0, 65, 0
1, 73160, Note_on_c, 0, 63, 71
1, 73312, Note_on_c, 0, 75, 0
1, 73312, Note_on_c, 0, 77, 86
1, 73312, Note_on_c, 0, 63, 0
1, 73315, Note_on_c, 0, 62, 70
1, 73467, Note_on_c, 0, 62, 0
1, 73622, Note_on_c, 0, 72, 78
1, 73777, Note_on_c, 0, 72, 0
1, 73777, Note_on_c, 0, 71, 78
1, 73931, Note_on_c, 0, 71, 0
1, 73931, Note_on_c, 0, 72, 83
1, 73931, Control_c, 0, 91, 127
1, 74086, Note_on_c, 0, 72, 0
1, 74241, Note_on_c, 0, 77, 0
1, 74241, Note_on_c, 0, 75, 71
1, 74241, Note_on_c, 0, 60, 81
1, 74396, Note_on_c, 0, 75, 0
1, 74396, Note_on_c, 0, 74, 71
1, 74396, Note_on_c, 0, 60, 0
1, 74399, Note_on_c, 0, 59, 81
1, 74551, Note_on_c, 0, 74, 0
1, 74551, Note_on_c, 0, 72, 70
1, 74551, Note_on_c, 0, 59, 0
1, 74554, Note_on_c, 0, 60, 86
1, 74705, Note_on_c, 0, 72, 0
1, 74705, Note_on_c, 0, 70, 69
1, 74705, Note_on_c, 0, 60, 0
1, 74860, Note_on_c, 0, 70, 0
1, 74860, Note_on_c, 0, 68, 69
1, 74860, Note_on_c, 0, 55, 71
1, 75022, Note_on_c, 0, 68, 0
1, 75022, Note_on_c, 0, 67, 68
1, 75184, Note_on_c, 0, 67, 0
1, 75184, Note_on_c, 0, 65, 68
1, 75184, Note_on_c, 0, 55, 0
1, 75187, Note_on_c, 0, 56, 72
1, 75338, Note_on_c, 0, 65, 0
1, 75338, Note_on_c, 0, 56, 0
1, 75493, Note_on_c, 0, 80, 74
1, 75493, Note_on_c, 0, 77, 74
1, 75493, Note_on_c, 0, 60, 81
1, 75648, Note_on_c, 0, 60, 0
1, 75648, Note_on_c, 0, 59, 81
1, 75803, Note_on_c, 0, 80, 0
1, 75803, Note_on_c, 0, 79, 73
1, 75803, Note_on_c, 0, 77, 0
1, 75806, Note_on_c, 0, 75, 73
1, 75806, Note_on_c, 0, 59, 0
1, 75806, Note_on_c, 0, 60, 86
1, 75958, Note_on_c, 0, 60, 0
1, 76113, Note_on_c, 0, 79, 0
1, 76113, Note_on_c, 0, 77, 73
1, 76113, Note_on_c, 0, 75, 0
1, 76116, Note_on_c, 0, 74, 72
1, 76116, Note_on_c, 0, 62, 76
1, 76422, Note_on_c, 0, 77, 0
1, 76422, Note_on_c, 0, 75, 72
1, 76422, Note_on_c, 0, 74, 0
1, 76425, Note_on_c, 0, 62, 0
1, 76425, Note_on_c, 0, 55, 73
1, 76577, Note_on_c, 0, 75, 0
1, 76577, Note_on_c, 0, 55, 0
1, 76732, Note_on_c, 0, 74, 74
1, 76732, Note_on_c, 0, 68, 73
1, 76732, Note_on_c, 0, 60, 81
1, 76887, Note_on_c, 0, 60, 0
1, 76887, Note_on_c, 0, 59, 81
1, 77041, Note_on_c, 0, 74, 0
1, 77041, Note_on_c, 0, 75, 74
1, 77041, Note_on_c, 0, 68, 0
1, 77044, Note_on_c, 0, 67, 73
1, 77044, Note_on_c, 0, 59, 0
1, 77044, Note_on_c, 0, 60, 86
1, 77196, Note_on_c, 0, 60, 0
1, 77351, Note_on_c, 0, 75, 0
1, 77351, Note_on_c, 0, 77, 74
1, 77351, Note_on_c, 0, 67, 0
1, 77354, Note_on_c, 0, 65, 73
1, 77354, Note_on_c, 0, 62, 77
1, 77506, Note_on_c, 0, 62, 0
1, 77661, Note_on_c, 0, 77, 0
1, 77661, Note_on_c, 0, 71, 81
1, 77661, Note_on_c, 0, 65, 0
1, 77664, Note_on_c, 0, 67, 75
1, 77664, Note_on_c, 0, 53, 72
1, 77821, Note_on_c, 0, 71, 0
1, 77821, Note_on_c, 0, 67, 0
1, 77821, Note_on_c, 0, 53, 0
1, 77824, Note_on_c, 0, 55, 72
1, 77982, Note_on_c, 0, 72, 77
1, 77982, Note_on_c, 0, 65, 78
1, 77982, Note_on_c, 0, 55, 0
1, 77985, Note_on_c, 0, 56, 74
1, 78143, Note_on_c, 0, 65, 0
1, 78143, Note_on_c, 0, 63, 78
1, 78303, Note_on_c, 0, 72, 0
1, 78303, Note_on_c, 0, 74, 77
1, 78303, Note_on_c, 0, 63, 0
1, 78306, Note_on_c, 0, 65, 84
1, 78458, Note_on_c, 0, 65, 0
1, 78613, Note_on_c, 0, 74, 0
1, 78613, Note_on_c, 0, 71, 77
1, 78613, Note_on_c, 0, 62, 76
1, 78616, Note_on_c, 0, 56, 0
1, 78616, Note_on_c, 0, 55, 73
1, 78768, Note_on_c, 0, 55, 0
1, 78768, Note_on_c, 0, 53, 73
1, 78923, Note_on_c, 0, 71, 0
1, 78923, Note_on_c, 0, 72, 81
1, 78923, Control_c, 0, 91, 127
1, 78926, Note_on_c, 0, 62, 0
1, 78926, Note_on_c, 0, 67, 82
1, 78926, Note_on_c, 0, 53, 0
1, 78929, Note_on_c, 0, 51, 72
1, 79000, Note_on_c, 0, 51, 0
1, 79077, Note_on_c, 0, 60, 75
1, 79232, Note_on_c, 0, 72, 0
1, 79232, Note_on_c, 0, 79, 81
1, 79232, Note_on_c, 0, 60, 0
1, 79235, Note_on_c, 0, 59, 74
1, 79387, Note_on_c, 0, 79, 0
1, 79387, Note_on_c, 0, 78, 81
1, 79387, Note_on_c, 0, 59, 0
1, 79390, Note_on_c, 0, 57, 73
1, 79542, Note_on_c, 0, 78, 0
1, 79542, Note_on_c, 0, 79, 86
1, 79542, Note_on_c, 0, 67, 0
1, 79545, Note_on_c, 0, 57, 0
1, 79545, Note_on_c, 0, 55, 72
1, 79697, Note_on_c, 0, 79, 0
1, 79697, Note_on_c, 0, 55, 0
1, 79697, Note_on_c, 0, 53, 70
1, 79851, Note_on_c, 0, 74, 71
1, 79851, Note_on_c, 0, 71, 72
1, 79851, Note_on_c, 0, 53, 0
1, 79854, Note_on_c, 0, 51, 69
1, 80010, Note_on_c, 0, 51, 0
1, 80010, Note_on_c, 0, 50, 68
1, 80169, Note_on_c, 0, 74, 0
1, 80169, Note_on_c, 0, 75, 72
1, 80169, Note_on_c, 0, 71, 0
1, 80172, Note_on_c, 0, 72, 72
1, 80172, Note_on_c, 0, 50, 0
1, 80172, Note_on_c, 0, 48, 67
1, 80327, Note_on_c, 0, 72, 0
1, 80327, Note_on_c, 0, 48, 0
1, 80327, Note_on_c, 0, 50, 70
1, 80486, Note_on_c, 0, 72, 82
1, 80486, Note_on_c, 0, 50, 0
1, 80486, Note_on_c, 0, 51, 71
1, 80641, Note_on_c, 0, 72, 0
1, 80641, Note_on_c, 0, 71, 82
1, 80641, Note_on_c, 0, 51, 0
1, 80644, Note_on_c, 0, 50, 70
1, 80796, Note_on_c, 0, 75, 0
1, 80796, Note_on_c, 0, 71, 0
1, 80796, Note_on_c, 0, 72, 87
1, 80799, Note_on_c, 0, 50, 0
1, 80799, Note_on_c, 0, 48, 67
1, 80951, Note_on_c, 0, 72, 0
1, 80951, Note_on_c, 0, 48, 0
1, 80951, Note_on_c, 0, 46, 71
1, 81105, Note_on_c, 0, 76, 72
1, 81105, Note_on_c, 0, 67, 73
1, 81105, Note_on_c, 0, 46, 0
1, 81108, Note_on_c, 0, 44, 70
1, 81266, Note_on_c, 0, 44, 0
1, 81266, Note_on_c, 0, 43, 68
1, 81427, Note_on_c, 0, 76, 0
1, 81427, Note_on_c, 0, 77, 81
1, 81427, Control_c, 0, 91, 127
1, 81430, Note_on_c, 0, 67, 0
1, 81430, Note_on_c, 0, 68, 73
1, 81430, Note_on_c, 0, 43, 0
1, 81433, Note_on_c, 0, 41, 67
1, 81507, Note_on_c, 0, 41, 0
1, 81587, Note_on_c, 0, 77, 0
1, 81587, Note_on_c, 0, 58, 74
1, 81748, Note_on_c, 0, 77, 81
1, 81748, Note_on_c, 0, 58, 0
1, 81748, Note_on_c, 0, 56, 74
1, 81903, Note_on_c, 0, 77, 0
1, 81903, Note_on_c, 0, 76, 81
1, 81903, Note_on_c, 0, 56, 0
1, 81906, Note_on_c, 0, 55, 73
1, 82058, Note_on_c, 0, 76, 0
1, 82058, Note_on_c, 0, 77, 86
1, 82058, Note_on_c, 0, 68, 0
1, 82061, Note_on_c, 0, 55, 0
1, 82061, Note_on_c, 0, 53, 72
1, 82212, Note_on_c, 0, 77, 0
1, 82212, Note_on_c, 0, 53, 0
1, 82212, Note_on_c, 0, 51, 72
1, 82367, Note_on_c, 0, 72, 71
1, 82367, Note_on_c, 0, 69, 71
1, 82367, Note_on_c, 0, 51, 0
1, 82370, Note_on_c, 0, 50, 71
1, 82522, Note_on_c, 0, 50, 0
1, 82522, Note_on_c, 0, 48, 70
1, 82677, Note_on_c, 0, 72, 0
1, 82677, Note_on_c, 0, 74, 72
1, 82677, Note_on_c, 0, 69, 0
1, 82680, Note_on_c, 0, 70, 71
1, 82680, Note_on_c, 0, 48, 0
1, 82680, Note_on_c, 0, 46, 70
1, 82832, Note_on_c, 0, 70, 0
1, 82832, Note_on_c, 0, 46, 0
1, 82832, Note_on_c, 0, 48, 71
1, 82986, Note_on_c, 0, 70, 82
1, 82986, Note_on_c, 0, 48, 0
1, 82986, Note_on_c, 0, 50, 71
1, 83141, Note_on_c, 0, 70, 0
1, 83141, Note_on_c, 0, 69, 82
1, 83141, Note_on_c, 0, 50, 0
1, 83144, Note_on_c, 0, 48, 73
1, 83296, Note_on_c, 0, 74, 0
1, 83296, Note_on_c, 0, 69, 0
1, 83296, Note_on_c, 0, 70, 86
1, 83299, Note_on_c, 0, 48, 0
1, 83299, Note_on_c, 0, 46, 71
1, 83451, Note_on_c, 0, 70, 0
1, 83451, Note_on_c, 0, 46, 0
1, 83451, Note_on_c, 0, 44, 70
1, 83606, Note_on_c, 0, 74, 72
1, 83606, Note_on_c, 0, 65, 75
1, 83606, Note_on_c, 0, 44, 0
1, 83609, Note_on_c, 0, 43, 68
1, 83766, Note_on_c, 0, 43, 0
1, 83766, Note_on_c, 0, 41, 66
1, 83927, Note_on_c, 0, 74, 0
1, 83927, Note_on_c, 0, 75, 81
1, 83927, Control_c, 0, 91, 127
1, 83930, Note_on_c, 0, 65, 0
1, 83930, Note_on_c, 0, 67, 75
1, 83930, Note_on_c, 0, 41, 0
1, 83933, Note_on_c, 0, 39, 65
1, 84007, Note_on_c, 0, 39, 0
1, 84088, Note_on_c, 0, 75, 0
1, 84088, Note_on_c, 0, 56, 75
1, 84248, Note_on_c, 0, 75, 81
1, 84248, Note_on_c, 0, 56, 0
1, 84248, Note_on_c, 0, 55, 74
1, 84403, Note_on_c, 0, 75, 0
1, 84403, Note_on_c, 0, 74, 81
1, 84403, Note_on_c, 0, 55, 0
1, 84406, Note_on_c, 0, 53, 73
1, 84558, Note_on_c, 0, 74, 0
1, 84558, Note_on_c, 0, 75, 86
1, 84558, Note_on_c, 0, 67, 0
1, 84561, Note_on_c, 0, 53, 0
1, 84561, Note_on_c, 0, 51, 72
1, 84713, Note_on_c, 0, 75, 0
1, 84713, Note_on_c, 0, 51, 0
1, 84713, Note_on_c, 0, 49, 71
1, 84868, Note_on_c, 0, 70, 71
1, 84868, Note_on_c, 0, 67, 74
1, 84868, Note_on_c, 0, 49, 0
1, 84871, Note_on_c, 0, 48, 70
1, 85022, Note_on_c, 0, 48, 0
1, 85022, Note_on_c, 0, 46, 69
1, 85177, Note_on_c, 0, 70, 0
1, 85177, Note_on_c, 0, 72, 76
1, 85177, Control_c, 0, 91, 127
1, 85180, Note_on_c, 0, 67, 0
1, 85180, Note_on_c, 0, 68, 74
1, 85180, Note_on_c, 0, 46, 0
1, 85183, Note_on_c, 0, 44, 68
1, 85332, Note_on_c, 0, 72, 0
1, 85332, Note_on_c, 0, 68, 0
1, 85332, Note_on_c, 0, 44, 0
1, 85487, Note_on_c, 0, 75, 81
1, 85487, Note_on_c, 0, 68, 75
1, 85487, Note_on_c, 0, 60, 75
1, 85644, Note_on_c, 0, 75, 0
1, 85644, Note_on_c, 0, 74, 81
1, 85802, Note_on_c, 0, 74, 0
1, 85802, Note_on_c, 0, 75, 86
1, 85802, Note_on_c, 0, 68, 0
1, 85805, Note_on_c, 0, 67, 74
1, 85805, Note_on_c, 0, 60, 0
1, 85805, Note_on_c, 0, 58, 74
1, 85960, Note_on_c, 0, 75, 0
1, 86118, Note_on_c, 0, 77, 81
1, 86118, Note_on_c, 0, 67, 0
1, 86118, Note_on_c, 0, 65, 72
1, 86121, Note_on_c, 0, 58, 0
1, 86121, Note_on_c, 0, 56, 72
1, 86433, Note_on_c, 0, 77, 0
1, 86433, Note_on_c, 0, 70, 81
1, 86433, Control_c, 0, 91, 127
1, 86436, Note_on_c, 0, 65, 0
1, 86436, Note_on_c, 0, 56, 0
1, 86436, Note_on_c, 0, 55, 72
1, 86591, Note_on_c, 0, 70, 0
1, 86591, Note_on_c, 0, 55, 0
1, 86748, Note_on_c, 0, 75, 81
1, 86748, Note_on_c, 0, 56, 66
1, 86748, Note_on_c, 0, 53, 66
1, 86906, Note_on_c, 0, 75, 0
1, 86906, Note_on_c, 0, 74, 81
1, 87064, Note_on_c, 0, 74, 0
1, 87064, Note_on_c, 0, 75, 86
1, 87064, Note_on_c, 0, 56, 0
1, 87067, Note_on_c, 0, 58, 69
1, 87067, Note_on_c, 0, 53, 0
1, 87067, Note_on_c, 0, 55, 69
1, 87379, Note_on_c, 0, 75, 0
1, 87379, Note_on_c, 0, 77, 81
1, 87379, Note_on_c, 0, 58, 0
1, 87382, Note_on_c, 0, 60, 71
1, 87382, Note_on_c, 0, 55, 0
1, 87382, Note_on_c, 0, 56, 71
1, 87616, Note_on_c, 0, 77, 0
1, 87616, Note_on_c, 0, 60, 0
1, 87616, Note_on_c, 0, 56, 0
1, 87694, Note_on_c, 0, 68, 75
1, 87694, Note_on_c, 0, 50, 65
1, 87855, Note_on_c, 0, 68, 0
1, 87855, Note_on_c, 0, 70, 75
1, 88016, Note_on_c, 0, 70, 0
1, 88016, Note_on_c, 0, 72, 81
1, 88016, Note_on_c, 0, 56, 73
1, 88019, Note_on_c, 0, 50, 0
1, 88019, Note_on_c, 0, 51, 69
1, 88176, Note_on_c, 0, 56, 0
1, 88176, Note_on_c, 0, 55, 73
1, 88337, Note_on_c, 0, 55, 0
1, 88337, Note_on_c, 0, 56, 78
1, 88337, Note_on_c, 0, 51, 0
1, 88340, Note_on_c, 0, 53, 72
1, 88494, Note_on_c, 0, 56, 0
1, 88650, Note_on_c, 0, 72, 0
1, 88650, Note_on_c, 0, 70, 76
1, 88650, Note_on_c, 0, 53, 72
1, 88653, Note_on_c, 0, 53, 0
1, 88653, Note_on_c, 0, 50, 68
1, 88807, Note_on_c, 0, 70, 0
1, 88807, Note_on_c, 0, 68, 76
1, 88964, Note_on_c, 0, 68, 0
1, 88964, Note_on_c, 0, 67, 72
1, 88964, Note_on_c, 0, 53, 0
1, 88967, Note_on_c, 0, 58, 71
1, 88967, Note_on_c, 0, 50, 0
1, 88967, Note_on_c, 0, 51, 67
1, 89042, Note_on_c, 0, 67, 0
1, 89121, Note_on_c, 0, 63, 69
1, 89121, Note_on_c, 0, 58, 0
1, 89121, Note_on_c, 0, 51, 0
1, 89277, Note_on_c, 0, 63, 0
1, 89277, Note_on_c, 0, 65, 70
1, 89277, Note_on_c, 0, 60, 65
1, 89280, Note_on_c, 0, 56, 56
1, 89432, Note_on_c, 0, 65, 0
1, 89432, Note_on_c, 0, 67, 71
1, 89587, Note_on_c, 0, 67, 0
1, 89587, Note_on_c, 0, 68, 72
1, 89587, Note_on_c, 0, 60, 0
1, 89590, Note_on_c, 0, 58, 63
1, 89590, Note_on_c, 0, 56, 0
1, 89590, Note_on_c, 0, 55, 55
1, 89742, Note_on_c, 0, 68, 0
1, 89742, Note_on_c, 0, 70, 74
1, 89897, Note_on_c, 0, 70, 0
1, 89897, Note_on_c, 0, 72, 75
1, 89897, Note_on_c, 0, 58, 0
1, 89900, Note_on_c, 0, 56, 61
1, 89900, Note_on_c, 0, 55, 0
1, 89900, Note_on_c, 0, 53, 53
1, 90052, Note_on_c, 0, 72, 0
1, 90052, Note_on_c, 0, 74, 76
1, 90206, Note_on_c, 0, 74, 0
1, 90206, Note_on_c, 0, 75, 77
1, 90206, Note_on_c, 0, 56, 0
1, 90209, Note_on_c, 0, 58, 57
1, 90209, Note_on_c, 0, 53, 0
1, 90209, Note_on_c, 0, 55, 55
1, 90361, Note_on_c, 0, 75, 0
1, 90361, Note_on_c, 0, 74, 76
1, 90361, Note_on_c, 0, 58, 0
1, 90364, Note_on_c, 0, 55, 0
1, 90516, Note_on_c, 0, 74, 0
1, 90516, Note_on_c, 0, 72, 75
1, 90516, Note_on_c, 0, 55, 68
1, 90519, Note_on_c, 0, 53, 56
1, 90671, Note_on_c, 0, 72, 0
1, 90671, Note_on_c, 0, 74, 75
1, 90826, Note_on_c, 0, 74, 0
1, 90826, Note_on_c, 0, 75, 77
1, 90826, Note_on_c, 0, 55, 0
1, 90829, Note_on_c, 0, 53, 66
1, 90829, Note_on_c, 0, 53, 0
1, 90829, Note_on_c, 0, 50, 55
1, 90980, Note_on_c, 0, 75, 0
1, 90980, Note_on_c, 0, 77, 80
1, 91135, Note_on_c, 0, 77, 0
1, 91135, Note_on_c, 0, 79, 82
1, 91135, Note_on_c, 0, 53, 0
1, 91138, Note_on_c, 0, 51, 65
1, 91138, Note_on_c, 0, 50, 0
1, 91138, Note_on_c, 0, 48, 52
1, 91290, Note_on_c, 0, 79, 0
1, 91290, Note_on_c, 0, 81, 85
1, 91445, Note_on_c, 0, 81, 0
1, 91445, Note_on_c, 0, 82, 88
1, 91445, Note_on_c, 0, 51, 0
1, 91448, Note_on_c, 0, 53, 63
1, 91448, Note_on_c, 0, 48, 0
1, 91448, Note_on_c, 0, 50, 50
1, 91522, Note_on_c, 0, 82, 0
1, 91600, Note_on_c, 0, 65, 67
1, 91600, Note_on_c, 0, 53, 0
1, 91600, Note_on_c, 0, 50, 0
1, 91754, Note_on_c, 0, 65, 0
1, 91754, Note_on_c, 0, 67, 68
1, 91754, Note_on_c, 0, 61, 71
1, 91757, Note_on_c, 0, 58, 54
1, 91909, Note_on_c, 0, 67, 0
1, 91909, Note_on_c, 0, 68, 69
1, 92064, Note_on_c, 0, 68, 0
1, 92064, Note_on_c, 0, 70, 71
1, 92064, Note_on_c, 0, 61, 0
1, 92067, Note_on_c, 0, 60, 69
1, 92067, Note_on_c, 0, 58, 0
1, 92067, Note_on_c, 0, 56, 52
1, 92219, Note_on_c, 0, 70, 0
1, 92219, Note_on_c, 0, 72, 72
1, 92374, Note_on_c, 0, 72, 0
1, 92374, Note_on_c, 0, 74, 73
1, 92374, Note_on_c, 0, 60, 0
1, 92377, Note_on_c, 0, 58, 67
1, 92377, Note_on_c, 0, 56, 0
1, 92377, Note_on_c, 0, 55, 51
1, 92529, Note_on_c, 0, 74, 0
1, 92529, Note_on_c, 0, 76, 74
1, 92683, Note_on_c, 0, 76, 0
1, 92683, Note_on_c, 0, 77, 76
1, 92683, Note_on_c, 0, 58, 0
1, 92686, Note_on_c, 0, 60, 65
1, 92686, Note_on_c, 0, 55, 0
1, 92686, Note_on_c, 0, 56, 54
1, 92838, Note_on_c, 0, 77, 0
1, 92838, Note_on_c, 0, 75, 75
1, 92838, Note_on_c, 0, 60, 0
1, 92841, Note_on_c, 0, 56, 0
1, 92993, Note_on_c, 0, 75, 0
1, 92993, Note_on_c, 0, 74, 73
1, 92993, Note_on_c, 0, 56, 68
1, 92996, Note_on_c, 0, 53, 55
1, 93148, Note_on_c, 0, 74, 0
1, 93148, Note_on_c, 0, 75, 76
1, 93303, Note_on_c, 0, 75, 0
1, 93303, Note_on_c, 0, 77, 75
1, 93303, Note_on_c, 0, 56, 0
1, 93306, Note_on_c, 0, 55, 67
1, 93306, Note_on_c, 0, 53, 0
1, 93306, Note_on_c, 0, 51, 52
1, 93457, Note_on_c, 0, 77, 0
1, 93457, Note_on_c, 0, 79, 78
1, 93612, Note_on_c, 0, 79, 0
1, 93612, Note_on_c, 0, 81, 81
1, 93612, Note_on_c, 0, 55, 0
1, 93615, Note_on_c, 0, 53, 65
1, 93615, Note_on_c, 0, 51, 0
1, 93615, Note_on_c, 0, 50, 48
1, 93767, Note_on_c, 0, 81, 0
1, 93767, Note_on_c, 0, 83, 84
1, 93922, Note_on_c, 0, 83, 0
1, 93922, Note_on_c, 0, 84, 87
1, 93922, Note_on_c, 0, 53, 0
1, 93925, Note_on_c, 0, 55, 64
1, 93925, Note_on_c, 0, 50, 0
1, 93925, Note_on_c, 0, 51, 63
1, 94077, Note_on_c, 0, 84, 0
1, 94077, Note_on_c, 0, 55, 0
1, 94077, Note_on_c, 0, 51, 0
1, 94232, Note_on_c, 0, 83, 82
1, 94232, Note_on_c, 0, 67, 80
1, 94386, Note_on_c, 0, 83, 0
1, 94386, Note_on_c, 0, 81, 80
1, 94386, Note_on_c, 0, 67, 0
1, 94389, Note_on_c, 0, 66, 80
1, 94541, Note_on_c, 0, 81, 0
1, 94541, Note_on_c, 0, 79, 79
1, 94541, Note_on_c, 0, 66, 0
1, 94544, Note_on_c, 0, 67, 88
1, 94696, Note_on_c, 0, 79, 0
1, 94696, Note_on_c, 0, 77, 78
1, 94696, Note_on_c, 0, 67, 0
1, 94851, Note_on_c, 0, 77, 0
1, 94851, Note_on_c, 0, 75, 77
1, 94851, Note_on_c, 0, 60, 74
1, 95006, Note_on_c, 0, 75, 0
1, 95006, Note_on_c, 0, 74, 76
1, 95160, Note_on_c, 0, 74, 0
1, 95160, Note_on_c, 0, 72, 75
1, 95160, Note_on_c, 0, 60, 0
1, 95163, Note_on_c, 0, 63, 74
1, 95315, Note_on_c, 0, 72, 0
1, 95315, Note_on_c, 0, 63, 0
1, 95470, Note_on_c, 0, 75, 73
1, 95470, Note_on_c, 0, 67, 80
1, 95470, Note_on_c, 0, 48, 59
1, 95630, Note_on_c, 0, 67, 0
1, 95630, Note_on_c, 0, 66, 80
1, 95789, Note_on_c, 0, 75, 0
1, 95789, Note_on_c, 0, 74, 71
1, 95789, Note_on_c, 0, 66, 0
1, 95792, Note_on_c, 0, 67, 87
1, 95792, Note_on_c, 0, 48, 0
1, 95792, Note_on_c, 0, 46, 58
1, 96109, Note_on_c, 0, 74, 0
1, 96109, Note_on_c, 0, 72, 70
1, 96109, Note_on_c, 0, 67, 0
1, 96112, Note_on_c, 0, 69, 77
1, 96112, Note_on_c, 0, 46, 0
1, 96112, Note_on_c, 0, 45, 56
1, 96428, Note_on_c, 0, 72, 0
1, 96428, Note_on_c, 0, 70, 68
1, 96428, Note_on_c, 0, 69, 0
1, 96431, Note_on_c, 0, 62, 76
1, 96431, Note_on_c, 0, 45, 0
1, 96588, Note_on_c, 0, 70, 0
1, 96588, Note_on_c, 0, 62, 0
1, 96747, Note_on_c, 0, 69, 67
1, 96747, Note_on_c, 0, 67, 80
1, 96747, Note_on_c, 0, 51, 57
1, 96907, Note_on_c, 0, 67, 0
1, 96907, Note_on_c, 0, 66, 80
1, 97067, Note_on_c, 0, 69, 0
1, 97067, Note_on_c, 0, 70, 68
1, 97067, Note_on_c, 0, 66, 0
1, 97070, Note_on_c, 0, 67, 86
1, 97070, Note_on_c, 0, 51, 0
1, 97070, Note_on_c, 0, 50, 56
1, 97386, Note_on_c, 0, 70, 0
1, 97386, Note_on_c, 0, 72, 72
1, 97386, Note_on_c, 0, 67, 0
1, 97389, Note_on_c, 0, 69, 79
1, 97389, Note_on_c, 0, 50, 0
1, 97389, Note_on_c, 0, 48, 55
1, 97626, Note_on_c, 0, 72, 0
1, 97626, Note_on_c, 0, 69, 0
1, 97626, Note_on_c, 0, 48, 0
1, 97705, Note_on_c, 0, 66, 67
1, 97705, Note_on_c, 0, 60, 73
1, 97705, Note_on_c, 0, 50, 59
1, 97868, Note_on_c, 0, 60, 0
1, 97868, Note_on_c, 0, 62, 73
1, 98031, Note_on_c, 0, 66, 0
1, 98031, Note_on_c, 0, 67, 67
1, 98031, Note_on_c, 0, 62, 0
1, 98034, Note_on_c, 0, 63, 80
1, 98034, Note_on_c, 0, 50, 0
1, 98034, Note_on_c, 0, 48, 58
1, 98194, Note_on_c, 0, 48, 0
1, 98194, Note_on_c, 0, 46, 58
1, 98356, Note_on_c, 0, 67, 0
1, 98356, Note_on_c, 0, 69, 70
1, 98356, Note_on_c, 0, 46, 0
1, 98359, Note_on_c, 0, 48, 58
1, 98680, Note_on_c, 0, 69, 0
1, 98680, Note_on_c, 0, 66, 65
1, 98680, Note_on_c, 0, 63, 0
1, 98683, Note_on_c, 0, 62, 77
1, 98683, Note_on_c, 0, 48, 0
1, 98683, Note_on_c, 0, 50, 56
1, 98840, Note_on_c, 0, 62, 0
1, 98840, Note_on_c, 0, 60, 77
1, 99001, Note_on_c, 0, 66, 0
1, 99001, Note_on_c, 0, 67, 71
1, 99001, Note_on_c, 0, 60, 0
1, 99004, Note_on_c, 0, 58, 75
1, 99004, Note_on_c, 0, 50, 0
1, 99004, Note_on_c, 0, 43, 63
1, 99162, Note_on_c, 0, 67, 0
1, 99162, Note_on_c, 0, 58, 0
1, 99162, Note_on_c, 0, 43, 0
1, 99322, Note_on_c, 0, 74, 72
1, 99322, Note_on_c, 0, 58, 70
1, 99477, Note_on_c, 0, 74, 0
1, 99477, Note_on_c, 0, 72, 72
1, 99477, Note_on_c, 0, 58, 0
1, 99480, Note_on_c, 0, 57, 70
1, 99632, Note_on_c, 0, 72, 0
1, 99632, Note_on_c, 0, 74, 76
1, 99632, Note_on_c, 0, 57, 0
1, 99635, Note_on_c, 0, 58, 73
1, 99787, Note_on_c, 0, 62, 67
1, 99787, Note_on_c, 0, 58, 0
1, 99942, Note_on_c, 0, 74, 0
1, 99942, Note_on_c, 0, 62, 0
1, 99942, Note_on_c, 0, 64, 69
1, 99945, Note_on_c, 0, 50, 58
1, 100099, Note_on_c, 0, 64, 0
1, 100099, Note_on_c, 0, 66, 71
1, 100099, Note_on_c, 0, 50, 0
1, 100257, Note_on_c, 0, 66, 0
1, 100257, Note_on_c, 0, 67, 73
1, 100257, Note_on_c, 0, 51, 63
1, 100415, Note_on_c, 0, 67, 0
1, 100415, Note_on_c, 0, 69, 75
1, 100415, Note_on_c, 0, 51, 0
1, 100572, Note_on_c, 0, 76, 77
1, 100572, Note_on_c, 0, 69, 0
1, 100572, Note_on_c, 0, 70, 77
1, 100575, Note_on_c, 0, 60, 69
1, 100727, Note_on_c, 0, 76, 0
1, 100727, Note_on_c, 0, 74, 77
1, 100727, Note_on_c, 0, 60, 0
1, 100730, Note_on_c, 0, 59, 69
1, 100882, Note_on_c, 0, 74, 0
1, 100882, Note_on_c, 0, 76, 81
1, 100882, Note_on_c, 0, 59, 0
1, 100885, Note_on_c, 0, 60, 73
1, 101037, Note_on_c, 0, 70, 0
1, 101037, Note_on_c, 0, 64, 73
1, 101037, Note_on_c, 0, 60, 0
1, 101192, Note_on_c, 0, 76, 0
1, 101192, Note_on_c, 0, 64, 0
1, 101192, Note_on_c, 0, 65, 75
1, 101195, Note_on_c, 0, 52, 58
1, 101351, Note_on_c, 0, 65, 0
1, 101351, Note_on_c, 0, 67, 77
1, 101351, Note_on_c, 0, 52, 0
1, 101511, Note_on_c, 0, 67, 0
1, 101511, Note_on_c, 0, 69, 79
1, 101511, Note_on_c, 0, 53, 63
1, 101671, Note_on_c, 0, 69, 0
1, 101671, Note_on_c, 0, 70, 79
1, 101671, Note_on_c, 0, 53, 0
1, 101830, Note_on_c, 0, 78, 84
1, 101830, Note_on_c, 0, 70, 0
1, 101830, Note_on_c, 0, 72, 83
1, 101833, Note_on_c, 0, 62, 75
1, 101985, Note_on_c, 0, 78, 0
1, 101985, Note_on_c, 0, 76, 84
1, 101985, Note_on_c, 0, 62, 0
1, 101988, Note_on_c, 0, 60, 75
1, 102140, Note_on_c, 0, 76, 0
1, 102140, Note_on_c, 0, 78, 89
1, 102140, Note_on_c, 0, 60, 0
1, 102143, Note_on_c, 0, 62, 80
1, 102295, Note_on_c, 0, 72, 0
1, 102295, Note_on_c, 0, 66, 75
1, 102295, Note_on_c, 0, 62, 0
1, 102449, Note_on_c, 0, 78, 0
1, 102449, Note_on_c, 0, 66, 0
1, 102449, Note_on_c, 0, 67, 78
1, 102452, Note_on_c, 0, 54, 63
1, 102607, Note_on_c, 0, 67, 0
1, 102607, Note_on_c, 0, 69, 80
1, 102607, Note_on_c, 0, 54, 0
1, 102765, Note_on_c, 0, 69, 0
1, 102765, Note_on_c, 0, 70, 83
1, 102765, Note_on_c, 0, 55, 65
1, 102922, Note_on_c, 0, 55, 0
1, 103080, Note_on_c, 0, 67, 72
1, 103080, Note_on_c, 0, 70, 0
1, 103080, Note_on_c, 0, 63, 71
1, 103235, Note_on_c, 0, 67, 0
1, 103235, Note_on_c, 0, 65, 72
1, 103235, Note_on_c, 0, 63, 0
1, 103238, Note_on_c, 0, 62, 71
1, 103390, Note_on_c, 0, 65, 0
1, 103390, Note_on_c, 0, 67, 77
1, 103390, Note_on_c, 0, 62, 0
1, 103393, Note_on_c, 0, 63, 74
1, 103545, Note_on_c, 0, 67, 0
1, 103545, Note_on_c, 0, 63, 0
1, 103545, Note_on_c, 0, 43, 54
1, 103699, Note_on_c, 0, 55, 64
1, 103699, Note_on_c, 0, 43, 0
1, 103699, Note_on_c, 0, 45, 57
1, 103856, Note_on_c, 0, 55, 0
1, 103856, Note_on_c, 0, 45, 0
1, 103856, Note_on_c, 0, 47, 59
1, 104013, Note_on_c, 0, 56, 64
1, 104013, Note_on_c, 0, 47, 0
1, 104013, Note_on_c, 0, 48, 62
1, 104170, Note_on_c, 0, 56, 0
1, 104170, Note_on_c, 0, 48, 0
1, 104170, Note_on_c, 0, 50, 64
1, 104326, Note_on_c, 0, 69, 71
1, 104326, Note_on_c, 0, 65, 72
1, 104326, Note_on_c, 0, 50, 0
1, 104329, Note_on_c, 0, 51, 66
1, 104481, Note_on_c, 0, 69, 0
1, 104481, Note_on_c, 0, 67, 71
1, 104481, Note_on_c, 0, 65, 0
1, 104484, Note_on_c, 0, 63, 72
1, 104636, Note_on_c, 0, 67, 0
1, 104636, Note_on_c, 0, 69, 76
1, 104636, Note_on_c, 0, 63, 0
1, 104639, Note_on_c, 0, 65, 76
1, 104791, Note_on_c, 0, 69, 0
1, 104791, Note_on_c, 0, 65, 0
1, 104791, Note_on_c, 0, 51, 0
1, 104794, Note_on_c, 0, 45, 58
1, 104946, Note_on_c, 0, 57, 64
1, 104946, Note_on_c, 0, 45, 0
1, 104946, Note_on_c, 0, 46, 60
1, 105101, Note_on_c, 0, 57, 0
1, 105101, Note_on_c, 0, 46, 0
1, 105101, Note_on_c, 0, 48, 63
1, 105255, Note_on_c, 0, 58, 64
1, 105255, Note_on_c, 0, 48, 0
1, 105255, Note_on_c, 0, 50, 65
1, 105410, Note_on_c, 0, 58, 0
1, 105410, Note_on_c, 0, 50, 0
1, 105410, Note_on_c, 0, 51, 67
1, 105565, Note_on_c, 0, 71, 71
1, 105565, Note_on_c, 0, 67, 72
1, 105565, Note_on_c, 0, 51, 0
1, 105568, Note_on_c, 0, 53, 70
1, 105720, Note_on_c, 0, 71, 0
1, 105720, Note_on_c, 0, 69, 71
1, 105720, Note_on_c, 0, 67, 0
1, 105723, Note_on_c, 0, 65, 72
1, 105875, Note_on_c, 0, 69, 0
1, 105875, Note_on_c, 0, 71, 76
1, 105875, Note_on_c, 0, 65, 0
1, 105878, Note_on_c, 0, 67, 75
1, 106029, Note_on_c, 0, 71, 0
1, 106029, Note_on_c, 0, 67, 0
1, 106029, Note_on_c, 0, 53, 0
1, 106032, Note_on_c, 0, 47, 59
1, 106184, Note_on_c, 0, 59, 64
1, 106184, Note_on_c, 0, 47, 0
1, 106184, Note_on_c, 0, 48, 62
1, 106343, Note_on_c, 0, 59, 0
1, 106343, Note_on_c, 0, 48, 0
1, 106343, Note_on_c, 0, 50, 64
1, 106502, Control_c, 0, 91, 127
1, 106502, Note_on_c, 0, 60, 69
1, 106502, Note_on_c, 0, 50, 0
1, 106505, Note_on_c, 0, 51, 67
1, 106581, Note_on_c, 0, 60, 0
1, 106660, Note_on_c, 0, 65, 68
1, 106660, Note_on_c, 0, 51, 0
1, 106819, Note_on_c, 0, 72, 81
1, 106819, Note_on_c, 0, 65, 0
1, 106819, Note_on_c, 0, 63, 67
1, 106974, Note_on_c, 0, 72, 0
1, 106974, Note_on_c, 0, 71, 81
1, 106974, Note_on_c, 0, 63, 0
1, 106977, Note_on_c, 0, 62, 66
1, 107128, Note_on_c, 0, 71, 0
1, 107128, Note_on_c, 0, 72, 86
1, 107128, Note_on_c, 0, 62, 0
1, 107131, Note_on_c, 0, 60, 66
1, 107283, Note_on_c, 0, 72, 0
1, 107283, Note_on_c, 0, 60, 0
1, 107283, Note_on_c, 0, 58, 65
1, 107438, Note_on_c, 0, 67, 71
1, 107438, Note_on_c, 0, 58, 0
1, 107438, Note_on_c, 0, 56, 64
1, 107441, Note_on_c, 0, 52, 61
1, 107593, Note_on_c, 0, 56, 0
1, 107593, Note_on_c, 0, 55, 63
1, 107748, Note_on_c, 0, 67, 0
1, 107748, Note_on_c, 0, 68, 72
1, 107748, Note_on_c, 0, 55, 0
1, 107751, Note_on_c, 0, 53, 62
1, 107751, Note_on_c, 0, 52, 0
1, 107751, Note_on_c, 0, 56, 66
1, 107903, Note_on_c, 0, 68, 0
1, 107903, Note_on_c, 0, 53, 0
1, 107903, Note_on_c, 0, 56, 0
1, 108057, Note_on_c, 0, 72, 81
1, 108057, Note_on_c, 0, 68, 64
1, 108057, Note_on_c, 0, 41, 60
1, 108212, Note_on_c, 0, 72, 0
1, 108212, Note_on_c, 0, 71, 81
1, 108367, Note_on_c, 0, 71, 0
1, 108367, Note_on_c, 0, 72, 86
1, 108367, Note_on_c, 0, 68, 0
1, 108370, Note_on_c, 0, 67, 68
1, 108370, Note_on_c, 0, 41, 0
1, 108370, Note_on_c, 0, 39, 59
1, 108522, Note_on_c, 0, 72, 0
1, 108677, Note_on_c, 0, 74, 76
1, 108677, Note_on_c, 0, 67, 0
1, 108677, Note_on_c, 0, 65, 68
1, 108680, Note_on_c, 0, 39, 0
1, 108680, Note_on_c, 0, 38, 58
1, 108996, Note_on_c, 0, 74, 0
1, 108996, Note_on_c, 0, 67, 73
1, 108996, Note_on_c, 0, 65, 0
1, 108999, Note_on_c, 0, 63, 66
1, 108999, Note_on_c, 0, 38, 0
1, 109156, Note_on_c, 0, 67, 0
1, 109156, Note_on_c, 0, 63, 0
1, 109315, Note_on_c, 0, 72, 81
1, 109315, Note_on_c, 0, 62, 64
1, 109315, Note_on_c, 0, 44, 61
1, 109470, Note_on_c, 0, 72, 0
1, 109470, Note_on_c, 0, 71, 81
1, 109625, Note_on_c, 0, 71, 0
1, 109625, Note_on_c, 0, 72, 86
1, 109625, Note_on_c, 0, 62, 0
1, 109628, Note_on_c, 0, 63, 64
1, 109628, Note_on_c, 0, 44, 0
1, 109628, Note_on_c, 0, 43, 59
1, 109780, Note_on_c, 0, 72, 0
1, 109935, Note_on_c, 0, 74, 77
1, 109935, Note_on_c, 0, 63, 0
1, 109935, Note_on_c, 0, 65, 64
1, 109938, Note_on_c, 0, 43, 0
1, 109938, Note_on_c, 0, 41, 57
1, 110089, Note_on_c, 0, 74, 0
1, 110242, Note_on_c, 0, 65, 0
1, 110242, Note_on_c, 0, 65, 75
1, 110242, Note_on_c, 0, 59, 69
1, 110242, Note_on_c, 0, 41, 0
1, 110242, Note_on_c, 0, 43, 56
1, 110402, Note_on_c, 0, 65, 0
1, 110402, Note_on_c, 0, 67, 75
1, 110402, Note_on_c, 0, 59, 0
1, 110405, Note_on_c, 0, 43, 0
1, 110560, Note_on_c, 0, 67, 0
1, 110560, Note_on_c, 0, 68, 81
1, 110560, Note_on_c, 0, 60, 64
1, 110563, Note_on_c, 0, 41, 62
1, 110717, Note_on_c, 0, 41, 0
1, 110717, Note_on_c, 0, 39, 62
1, 110875, Note_on_c, 0, 60, 0
1, 110875, Note_on_c, 0, 62, 67
1, 110875, Note_on_c, 0, 39, 0
1, 110878, Note_on_c, 0, 41, 67
1, 111030, Note_on_c, 0, 41, 0
1, 111185, Note_on_c, 0, 68, 0
1, 111185, Note_on_c, 0, 67, 73
1, 111185, Note_on_c, 0, 62, 0
1, 111188, Note_on_c, 0, 59, 59
1, 111188, Note_on_c, 0, 43, 55
1, 111339, Note_on_c, 0, 67, 0
1, 111339, Note_on_c, 0, 65, 73
1, 111339, Note_on_c, 0, 43, 0
1, 111494, Note_on_c, 0, 65, 0
1, 111494, Note_on_c, 0, 63, 73
1, 111494, Control_c, 0, 91, 127
1, 111497, Note_on_c, 0, 59, 0
1, 111497, Note_on_c, 0, 60, 66
1, 111497, Note_on_c, 0, 48, 58
1, 111649, Note_on_c, 0, 63, 0
1, 111649, Note_on_c, 0, 48, 0
1, 111649, Note_on_c, 0, 50, 58
1, 111804, Note_on_c, 0, 72, 81
1, 111804, Note_on_c, 0, 50, 0
1, 111804, Note_on_c, 0, 51, 59
1, 111959, Note_on_c, 0, 72, 0
1, 111959, Note_on_c, 0, 71, 81
1, 111959, Note_on_c, 0, 51, 0
1, 111962, Note_on_c, 0, 50, 58
1, 112113, Note_on_c, 0, 71, 0
1, 112113, Note_on_c, 0, 72, 86
1, 112113, Note_on_c, 0, 60, 0
1, 112116, Note_on_c, 0, 50, 0
1, 112116, Note_on_c, 0, 48, 57
1, 112273, Note_on_c, 0, 72, 0
1, 112273, Note_on_c, 0, 48, 0
1, 112273, Note_on_c, 0, 46, 57
1, 112433, Note_on_c, 0, 67, 71
1, 112433, Note_on_c, 0, 64, 64
1, 112433, Note_on_c, 0, 46, 0
1, 112436, Note_on_c, 0, 44, 56
1, 112588, Note_on_c, 0, 44, 0
1, 112588, Note_on_c, 0, 43, 55
1, 112742, Note_on_c, 0, 67, 0
1, 112742, Note_on_c, 0, 68, 72
1, 112742, Note_on_c, 0, 64, 0
1, 112745, Note_on_c, 0, 65, 64
1, 112745, Note_on_c, 0, 43, 0
1, 112745, Note_on_c, 0, 41, 54
1, 112820, Note_on_c, 0, 41, 0
1, 112897, Note_on_c, 0, 65, 0
1, 112897, Note_on_c, 0, 58, 59
1, 113052, Note_on_c, 0, 65, 82
1, 113052, Note_on_c, 0, 58, 0
1, 113052, Note_on_c, 0, 56, 59
1, 113207, Note_on_c, 0, 65, 0
1, 113207, Note_on_c, 0, 64, 82
1, 113207, Note_on_c, 0, 56, 0
1, 113210, Note_on_c, 0, 55, 58
1, 113362, Note_on_c, 0, 68, 0
1, 113362, Note_on_c, 0, 64, 0
1, 113362, Note_on_c, 0, 65, 84
1, 113365, Note_on_c, 0, 55, 0
1, 113365, Note_on_c, 0, 53, 57
1, 113516, Note_on_c, 0, 65, 0
1, 113516, Note_on_c, 0, 53, 0
1, 113516, Note_on_c, 0, 51, 57
1, 113671, Note_on_c, 0, 69, 72
1, 113671, Note_on_c, 0, 60, 72
1, 113671, Note_on_c, 0, 51, 0
1, 113674, Note_on_c, 0, 50, 56
1, 113826, Note_on_c, 0, 50, 0
1, 113826, Note_on_c, 0, 48, 55
1, 113981, Note_on_c, 0, 69, 0
1, 113981, Note_on_c, 0, 70, 73
1, 113981, Control_c, 0, 91, 127
1, 113984, Note_on_c, 0, 60, 0
1, 113984, Note_on_c, 0, 62, 72
1, 113984, Note_on_c, 0, 48, 0
1, 113987, Note_on_c, 0, 46, 55
1, 114136, Note_on_c, 0, 70, 0
1, 114136, Note_on_c, 0, 46, 0
1, 114136, Note_on_c, 0, 48, 57
1, 114291, Note_on_c, 0, 70, 81
1, 114291, Note_on_c, 0, 48, 0
1, 114291, Note_on_c, 0, 50, 60
1, 114445, Note_on_c, 0, 70, 0
1, 114445, Note_on_c, 0, 69, 81
1, 114445, Note_on_c, 0, 50, 0
1, 114448, Note_on_c, 0, 48, 59
1, 114600, Note_on_c, 0, 69, 0
1, 114600, Note_on_c, 0, 70, 86
1, 114600, Note_on_c, 0, 62, 0
1, 114603, Note_on_c, 0, 48, 0
1, 114603, Note_on_c, 0, 46, 58
1, 114760, Note_on_c, 0, 70, 0
1, 114760, Note_on_c, 0, 46, 0
1, 114760, Note_on_c, 0, 44, 57
1, 114920, Note_on_c, 0, 65, 71
1, 114920, Note_on_c, 0, 62, 69
1, 114920, Note_on_c, 0, 44, 0
1, 114923, Note_on_c, 0, 43, 57
1, 115074, Note_on_c, 0, 43, 0
1, 115074, Note_on_c, 0, 41, 56
1, 115229, Note_on_c, 0, 65, 0
1, 115229, Note_on_c, 0, 67, 72
1, 115229, Note_on_c, 0, 62, 0
1, 115232, Note_on_c, 0, 63, 69
1, 115232, Note_on_c, 0, 41, 0
1, 115232, Note_on_c, 0, 39, 55
1, 115307, Note_on_c, 0, 39, 0
1, 115384, Note_on_c, 0, 63, 0
1, 115384, Note_on_c, 0, 56, 61
1, 115539, Note_on_c, 0, 63, 79
1, 115539, Note_on_c, 0, 56, 0
1, 115539, Note_on_c, 0, 55, 60
1, 115694, Note_on_c, 0, 63, 0
1, 115694, Note_on_c, 0, 62, 79
1, 115694, Note_on_c, 0, 55, 0
1, 115697, Note_on_c, 0, 53, 60
1, 115848, Note_on_c, 0, 67, 0
1, 115848, Note_on_c, 0, 62, 0
1, 115848, Note_on_c, 0, 63, 84
1, 115851, Note_on_c, 0, 53, 0
1, 115851, Note_on_c, 0, 51, 59
1, 116003, Note_on_c, 0, 63, 0
1, 116003, Note_on_c, 0, 51, 0
1, 116003, Note_on_c, 0, 50, 58
1, 116158, Note_on_c, 0, 67, 72
1, 116158, Note_on_c, 0, 58, 73
1, 116158, Note_on_c, 0, 50, 0
1, 116161, Note_on_c, 0, 48, 57
1, 116313, Note_on_c, 0, 48, 0
1, 116313, Note_on_c, 0, 46, 57
1, 116468, Note_on_c, 0, 58, 0
1, 116468, Note_on_c, 0, 60, 73
1, 116468, Note_on_c, 0, 46, 0
1, 116471, Note_on_c, 0, 44, 56
1, 116623, Note_on_c, 0, 44, 0
1, 116623, Note_on_c, 0, 46, 57
1, 116777, Note_on_c, 0, 67, 0
1, 116777, Note_on_c, 0, 68, 71
1, 116777, Note_on_c, 0, 46, 0
1, 116780, Note_on_c, 0, 48, 60
1, 116932, Note_on_c, 0, 68, 0
1, 116932, Note_on_c, 0, 70, 72
1, 116932, Note_on_c, 0, 48, 0
1, 116935, Note_on_c, 0, 46, 58
1, 117087, Note_on_c, 0, 70, 0
1, 117087, Note_on_c, 0, 72, 74
1, 117087, Note_on_c, 0, 46, 0
1, 117090, Note_on_c, 0, 44, 58
1, 117242, Note_on_c, 0, 72, 0
1, 117242, Note_on_c, 0, 71, 72
1, 117242, Note_on_c, 0, 44, 0
1, 117245, Note_on_c, 0, 43, 57
1, 117397, Note_on_c, 0, 71, 0
1, 117397, Note_on_c, 0, 72, 76
1, 117397, Note_on_c, 0, 43, 0
1, 117400, Note_on_c, 0, 41, 57
1, 117551, Note_on_c, 0, 72, 0
1, 117551, Note_on_c, 0, 68, 72
1, 117551, Note_on_c, 0, 41, 0
1, 117554, Note_on_c, 0, 39, 56
1, 117706, Note_on_c, 0, 68, 0
1, 117706, Note_on_c, 0, 65, 76
1, 117706, Note_on_c, 0, 39, 0
1, 117709, Note_on_c, 0, 38, 56
1, 117784, Note_on_c, 0, 38, 0
1, 117861, Note_on_c, 0, 55, 56
1, 118016, Note_on_c, 0, 60, 0
1, 118016, Note_on_c, 0, 62, 72
1, 118016, Note_on_c, 0, 55, 0
1, 118019, Note_on_c, 0, 53, 60
1, 118171, Note_on_c, 0, 62, 0
1, 118171, Note_on_c, 0, 63, 73
1, 118171, Note_on_c, 0, 53, 0
1, 118174, Note_on_c, 0, 51, 59
1, 118325, Note_on_c, 0, 63, 0
1, 118325, Note_on_c, 0, 65, 75
1, 118325, Note_on_c, 0, 51, 0
1, 118328, Note_on_c, 0, 50, 59
1, 118480, Note_on_c, 0, 65, 0
1, 118480, Note_on_c, 0, 63, 73
1, 118480, Note_on_c, 0, 50, 0
1, 118483, Note_on_c, 0, 48, 58
1, 118635, Note_on_c, 0, 63, 0
1, 118635, Note_on_c, 0, 65, 75
1, 118635, Note_on_c, 0, 48, 0
1, 118638, Note_on_c, 0, 47, 57
1, 118790, Note_on_c, 0, 65, 0
1, 118790, Note_on_c, 0, 62, 73
1, 118790, Note_on_c, 0, 47, 0
1, 118793, Note_on_c, 0, 45, 56
1, 118945, Note_on_c, 0, 62, 0
1, 118945, Note_on_c, 0, 59, 75
1, 118945, Note_on_c, 0, 45, 0
1, 118948, Note_on_c, 0, 43, 55
1, 119100, Note_on_c, 0, 59, 0
1, 119254, Note_on_c, 0, 65, 0
1, 119254, Note_on_c, 0, 74, 80
1, 119409, Note_on_c, 0, 74, 0
1, 119409, Note_on_c, 0, 72, 80
1, 119564, Note_on_c, 0, 72, 0
1, 119564, Note_on_c, 0, 74, 86
1, 119564, Note_on_c, 0, 43, 0
1, 119719, Note_on_c, 0, 74, 0
1, 119874, Note_on_c, 0, 65, 73
1, 119874, Note_on_c, 0, 59, 63
1, 120195, Note_on_c, 0, 65, 0
1, 120195, Note_on_c, 0, 63, 73
1, 120195, Note_on_c, 0, 59, 0
1, 120198, Note_on_c, 0, 60, 63
1, 120350, Note_on_c, 0, 63, 0
1, 120350, Note_on_c, 0, 60, 0
1, 120350, Note_on_c, 0, 43, 49
1, 120505, Note_on_c, 0, 75, 80
1, 120505, Note_on_c, 0, 43, 0
1, 120505, Note_on_c, 0, 45, 51
1, 120659, Note_on_c, 0, 75, 0
1, 120659, Note_on_c, 0, 74, 80
1, 120659, Note_on_c, 0, 45, 0
1, 120662, Note_on_c, 0, 47, 52
1, 120814, Note_on_c, 0, 74, 0
1, 120814, Note_on_c, 0, 75, 84
1, 120814, Note_on_c, 0, 47, 0
1, 120817, Note_on_c, 0, 48, 54
1, 120969, Note_on_c, 0, 75, 0
1, 120969, Note_on_c, 0, 48, 0
1, 120969, Note_on_c, 0, 50, 55
1, 121124, Note_on_c, 0, 67, 73
1, 121124, Note_on_c, 0, 63, 65
1, 121124, Note_on_c, 0, 50, 0
1, 121127, Note_on_c, 0, 51, 57
1, 121279, Note_on_c, 0, 51, 0
1, 121279, Note_on_c, 0, 53, 58
1, 121433, Note_on_c, 0, 67, 0
1, 121433, Note_on_c, 0, 65, 73
1, 121433, Note_on_c, 0, 63, 0
1, 121436, Note_on_c, 0, 62, 65
1, 121436, Note_on_c, 0, 53, 0
1, 121436, Note_on_c, 0, 55, 60
1, 121588, Note_on_c, 0, 65, 0
1, 121588, Note_on_c, 0, 62, 0
1, 121588, Note_on_c, 0, 55, 0
1, 121591, Note_on_c, 0, 53, 57
1, 121743, Note_on_c, 0, 77, 82
1, 121743, Note_on_c, 0, 53, 0
1, 121743, Note_on_c, 0, 56, 62
1, 121898, Note_on_c, 0, 77, 0
1, 121898, Note_on_c, 0, 75, 82
1, 121898, Note_on_c, 0, 56, 0
1, 121901, Note_on_c, 0, 55, 61
1, 122053, Note_on_c, 0, 75, 0
1, 122053, Note_on_c, 0, 77, 88
1, 122053, Note_on_c, 0, 55, 0
1, 122056, Note_on_c, 0, 53, 60
1, 122208, Note_on_c, 0, 77, 0
1, 122208, Note_on_c, 0, 53, 0
1, 122208, Note_on_c, 0, 51, 59
1, 122362, Note_on_c, 0, 68, 77
1, 122362, Note_on_c, 0, 65, 70
1, 122362, Note_on_c, 0, 51, 0
1, 122365, Note_on_c, 0, 50, 58
1, 122517, Note_on_c, 0, 50, 0
1, 122517, Note_on_c, 0, 48, 57
1, 122672, Note_on_c, 0, 68, 0
1, 122672, Note_on_c, 0, 67, 77
1, 122672, Note_on_c, 0, 48, 0
1, 122675, Note_on_c, 0, 47, 56
1, 122749, Note_on_c, 0, 67, 0
1, 122827, Note_on_c, 0, 77, 81
1, 122827, Note_on_c, 0, 47, 0
1, 122982, Note_on_c, 0, 77, 0
1, 122982, Note_on_c, 0, 75, 80
1, 122982, Note_on_c, 0, 65, 0
1, 122985, Note_on_c, 0, 48, 77
1, 123136, Note_on_c, 0, 75, 0
1, 123136, Note_on_c, 0, 74, 79
1, 123136, Note_on_c, 0, 48, 0
1, 123139, Note_on_c, 0, 47, 77
1, 123291, Note_on_c, 0, 74, 0
1, 123291, Note_on_c, 0, 72, 78
1, 123291, Note_on_c, 0, 47, 0
1, 123294, Note_on_c, 0, 48, 80
1, 123446, Note_on_c, 0, 72, 0
1, 123446, Note_on_c, 0, 71, 77
1, 123446, Note_on_c, 0, 48, 0
1, 123601, Note_on_c, 0, 71, 0
1, 123601, Note_on_c, 0, 69, 76
1, 123601, Note_on_c, 0, 65, 67
1, 123604, Note_on_c, 0, 43, 71
1, 123756, Note_on_c, 0, 69, 0
1, 123756, Note_on_c, 0, 67, 75
1, 123911, Note_on_c, 0, 67, 0
1, 123911, Note_on_c, 0, 72, 73
1, 123911, Note_on_c, 0, 65, 0
1, 123914, Note_on_c, 0, 63, 65
1, 123914, Note_on_c, 0, 43, 0
1, 123914, Note_on_c, 0, 44, 71
1, 124074, Note_on_c, 0, 72, 0
1, 124074, Note_on_c, 0, 63, 0
1, 124074, Note_on_c, 0, 44, 0
1, 124238, Note_on_c, 0, 77, 78
1, 124238, Note_on_c, 0, 68, 66
1, 124238, Note_on_c, 0, 48, 78
1, 124402, Note_on_c, 0, 48, 0
1, 124402, Note_on_c, 0, 47, 78
1, 124565, Note_on_c, 0, 77, 0
1, 124565, Note_on_c, 0, 75, 76
1, 124565, Note_on_c, 0, 68, 0
1, 124568, Note_on_c, 0, 67, 65
1, 124568, Note_on_c, 0, 47, 0
1, 124568, Note_on_c, 0, 48, 81
1, 124729, Note_on_c, 0, 48, 0
1, 124893, Note_on_c, 0, 75, 0
1, 124893, Note_on_c, 0, 74, 73
1, 124893, Note_on_c, 0, 67, 0
1, 124896, Note_on_c, 0, 65, 64
1, 124896, Note_on_c, 0, 50, 75
1, 125220, Note_on_c, 0, 74, 0
1, 125220, Note_on_c, 0, 65, 0
1, 125220, Note_on_c, 0, 63, 71
1, 125223, Note_on_c, 0, 50, 0
1, 125223, Note_on_c, 0, 43, 71
1, 125395, Note_on_c, 0, 63, 0
1, 125395, Note_on_c, 0, 43, 0
1, 125570, Note_on_c, 0, 68, 76
1, 125570, Note_on_c, 0, 62, 69
1, 125570, Note_on_c, 0, 48, 77
1, 125740, Note_on_c, 0, 48, 0
1, 125740, Note_on_c, 0, 47, 77
1, 125909, Note_on_c, 0, 68, 0
1, 125909, Note_on_c, 0, 67, 74
1, 125909, Note_on_c, 0, 62, 0
1, 125912, Note_on_c, 0, 63, 67
1, 125912, Note_on_c, 0, 47, 0
1, 125912, Note_on_c, 0, 48, 80
1, 126086, Note_on_c, 0, 48, 0
1, 126263, Note_on_c, 0, 67, 0
1, 126263, Note_on_c, 0, 65, 71
1, 126263, Note_on_c, 0, 63, 0
1, 126266, Note_on_c, 0, 50, 71
1, 126441, Note_on_c, 0, 50, 0
1, 126618, Note_on_c, 0, 65, 0
1, 126618, Note_on_c, 0, 67, 73
1, 126618, Note_on_c, 0, 59, 69
1, 126621, Note_on_c, 0, 41, 74
1, 126805, Note_on_c, 0, 67, 0
1, 126805, Note_on_c, 0, 59, 0
1, 126805, Note_on_c, 0, 41, 0
1, 126808, Note_on_c, 0, 43, 74
1, 126991, Note_on_c, 0, 65, 76
1, 126991, Note_on_c, 0, 60, 65
1, 126991, Note_on_c, 0, 43, 0
1, 126994, Note_on_c, 0, 44, 78
1, 127183, Note_on_c, 0, 65, 0
1, 127183, Note_on_c, 0, 63, 76
1, 127375, Note_on_c, 0, 63, 0
1, 127375, Note_on_c, 0, 65, 81
1, 127375, Note_on_c, 0, 60, 0
1, 127378, Note_on_c, 0, 62, 69
1, 127567, Note_on_c, 0, 65, 0
1, 127567, Note_on_c, 0, 62, 0
1, 127759, Note_on_c, 0, 62, 73
1, 127759, Note_on_c, 0, 59, 65
1, 127759, Note_on_c, 0, 44, 0
1, 127762, Note_on_c, 0, 43, 73
1, 127967, Note_on_c, 0, 43, 0
1, 127967, Note_on_c, 0, 41, 73
1, 128175, Note_on_c, 0, 62, 0
1, 128175, Note_on_c, 0, 68, 89
1, 128175, Note_on_c, 0, 59, 0
1, 128178, Note_on_c, 0, 59, 88
1, 128178, Note_on_c, 0, 41, 0
1, 128178, Note_on_c, 0, 39, 69
1, 128631, Note_on_c, 0, 68, 0
1, 128631, Note_on_c, 0, 67, 76
1, 128631, Note_on_c, 0, 59, 0
1, 128634, Note_on_c, 0, 60, 62
1, 129087, Note_on_c, 0, 67, 0
1, 129087, Note_on_c, 0, 60, 0
1, 129087, Note_on_c, 0, 39, 0
1, 129544, Note_on_c, 0, 69, 78
1, 129544, Note_on_c, 0, 60, 68
1, 129544, Note_on_c, 0, 51, 57
1, 130000, Note_on_c, 0, 69, 0
1, 130000, Note_on_c, 0, 71, 82
1, 130000, Note_on_c, 0, 60, 0
1, 130003, Note_on_c, 0, 65, 75
1, 130003, Note_on_c, 0, 51, 0
1, 130003, Note_on_c, 0, 50, 61
1, 130228, Note_on_c, 0, 65, 0
1, 130228, Note_on_c, 0, 62, 72
1, 130456, Note_on_c, 0, 71, 0
1, 130456, Note_on_c, 0, 72, 80
1, 130456, Note_on_c, 0, 62, 0
1, 130459, Note_on_c, 0, 63, 77
1, 130459, Note_on_c, 0, 50, 0
1, 130459, Note_on_c, 0, 48, 57
1, 130684, Note_on_c, 0, 63, 0
1, 130684, Note_on_c, 0, 60, 71
1, 130912, Note_on_c, 0, 72, 0
1, 130912, Note_on_c, 0, 65, 76
1, 130912, Note_on_c, 0, 48, 0
1, 130915, Note_on_c, 0, 55, 69
1, 131149, Note_on_c, 0, 65, 0
1, 131149, Note_on_c, 0, 63, 75
1, 131393, Note_on_c, 0, 63, 0
1, 131393, Note_on_c, 0, 62, 75
1, 131393, Note_on_c, 0, 60, 0
1, 131396, Note_on_c, 0, 59, 74
1, 131396, Note_on_c, 0, 55, 0
1, 131396, Note_on_c, 0, 43, 64
1, 131645, Note_on_c, 0, 62, 0
1, 131645, Note_on_c, 0, 60, 74
1, 131969, Note_on_c, 0, 60, 0
1, 131969, Note_on_c, 0, 59, 0
1, 131969, Note_on_c, 0, 60, 81
1, 131972, Note_on_c, 0, 43, 0
1, 131972, Note_on_c, 0, 48, 82
1, 131972, Note_on_c, 0, 36, 82
1, 132409, Note_on_c, 0, 72, 81
1, 132409, Note_on_c, 0, 60, 0
1, 132607, Note_on_c, 0, 72, 0
1, 132607, Note_on_c, 0, 71, 81
1, 132805, Note_on_c, 0, 71, 0
1, 132805, Note_on_c, 0, 72, 87
1, 132986, Note_on_c, 0, 72, 0
1, 133167, Note_on_c, 0, 67, 77
1, 133167, Note_on_c, 0, 64, 65
1, 133530, Note_on_c, 0, 67, 0
1, 133530, Note_on_c, 0, 68, 77
1, 133530, Note_on_c, 0, 64, 0
1, 133533, Note_on_c, 0, 65, 66
1, 133711, Note_on_c, 0, 68, 0
1, 133711, Note_on_c, 0, 65, 0
1, 133892, Note_on_c, 0, 72, 80
1, 134077, Note_on_c, 0, 72, 0
1, 134077, Note_on_c, 0, 71, 80
1, 134262, Note_on_c, 0, 71, 0
1, 134262, Note_on_c, 0, 72, 86
1, 134633, Note_on_c, 0, 72, 0
1, 134633, Note_on_c, 0, 74, 74
1, 134633, Note_on_c, 0, 71, 45
1, 134636, Note_on_c, 0, 68, 45
1, 134636, Note_on_c, 0, 65, 45
1, 135003, Note_on_c, 0, 74, 0
1, 135003, Note_on_c, 0, 67, 76
1, 135003, Note_on_c, 0, 65, 0
1, 135006, Note_on_c, 0, 68, 0
1, 135006, Note_on_c, 0, 71, 0
1, 135006, Note_on_c, 0, 65, 60
1, 135188, Note_on_c, 0, 67, 0
1, 135188, Note_on_c, 0, 65, 0
1, 135373, Note_on_c, 0, 72, 79
1, 135373, Note_on_c, 0, 63, 64
1, 135564, Note_on_c, 0, 72, 0
1, 135564, Note_on_c, 0, 71, 79
1, 135564, Note_on_c, 0, 63, 0
1, 135567, Note_on_c, 0, 62, 64
1, 135754, Note_on_c, 0, 71, 0
1, 135754, Note_on_c, 0, 72, 86
1, 135754, Note_on_c, 0, 62, 0
1, 135757, Note_on_c, 0, 63, 69
1, 136148, Note_on_c, 0, 72, 0
1, 136148, Note_on_c, 0, 74, 78
1, 136148, Note_on_c, 0, 63, 0
1, 136151, Note_on_c, 0, 68, 57
1, 136151, Note_on_c, 0, 65, 57
1, 136508, Note_on_c, 0, 74, 0
1, 136508, Note_on_c, 0, 65, 0
1, 136508, Note_on_c, 0, 68, 0
1, 136544, Note_on_c, 0, 65, 56
1, 136544, Note_on_c, 0, 59, 53
1, 136544, Note_on_c, 0, 62, 53
1, 136780, Note_on_c, 0, 65, 0
1, 136780, Note_on_c, 0, 67, 56
1, 137017, Note_on_c, 0, 67, 0
1, 137017, Note_on_c, 0, 68, 60
1, 137017, Note_on_c, 0, 62, 0
1, 137020, Note_on_c, 0, 59, 0
1, 137499, Note_on_c, 0, 59, 46
1, 137499, Note_on_c, 0, 62, 46
1, 138000, Note_on_c, 0, 68, 0
1, 138000, Note_on_c, 0, 67, 47
1, 138000, Note_on_c, 0, 62, 0
1, 138003, Note_on_c, 0, 59, 0
1, 138323, Note_on_c, 0, 67, 0
1, 138323, Note_on_c, 0, 65, 45
1, 138824, Note_on_c, 0, 65, 0
1, 138824, Note_on_c, 0, 64, 43
1, 138824, Note_on_c, 0, 55, 36
1, 138827, Note_on_c, 0, 60, 36
1, 142834, Note_on_c, 0, 64, 0
1, 142834, Note_on_c, 0, 60, 0
1, 142834, Note_on_c, 0, 55, 0
1, 142837, Note_on_c, 0, 36, 0
1, 142837, Note_on_c, 0, 48, 0
1, 144335, End_track
0, 0, End_of_file
