0, 0, Header, 0, 1, 480
1, 0, Start_track
1, 0, Title_t, "Fantasy & Fugue Ali Hirech"
1, 0, Time_signature, 4, 2, 24, 8
1, 0, Tempo, 512820
1, 0, Text_t, "Bach Fantasy & Fugue in A Minor performed on the Yamaha Disklavier by Ali Hireche--06/10/02"
1, 0, SMPTE_offset, 96, 0, 0, 0, 0
1, 0, System_exclusive, 5, 126, 127, 9, 1, 247
1, 1, System_exclusive, 8, 67, 16, 76, 0, 0, 126, 0, 247
1, 2, System_exclusive, 6, 67, 113, 126, 10, 0, 247
1, 5, Control_c, 0, 0, 0
1, 6, Control_c, 0, 32, 0
1, 7, Program_c, 0, 0
1, 8, Control_c, 0, 7, 100
1, 10, Control_c, 0, 64, 8
1, 27, Control_c, 0, 64, 13
1, 47, Control_c, 0, 64, 23
1, 65, Control_c, 0, 64, 34
1, 84, Control_c, 0, 64, 41
1, 177, Control_c, 0, 64, 30
1, 196, Control_c, 0, 64, 21
1, 214, Control_c, 0, 64, 15
1, 515, Control_c, 0, 64, 11
1, 1338, Control_c, 0, 64, 0
1, 2678, Note_on_c, 0, 76, 88
1, 2683, Note_on_c, 0, 64, 80
1, 2689, Note_on_c, 0, 57, 74
1, 2689, Note_on_c, 0, 69, 81
1, 2689, Note_on_c, 0, 72, 79
1, 3966, Note_on_c, 0, 77, 92
1, 4039, Note_off_c, 0, 76, 61
1, 4516, Control_c, 0, 64, 117
1, 4534, Control_c, 0, 64, 79
1, 4540, Note_on_c, 0, 62, 83
1, 4552, Control_c, 0, 64, 54
1, 4572, Control_c, 0, 64, 31
1, 4590, Control_c, 0, 64, 20
1, 4592, Note_off_c, 0, 64, 62
1, 4628, Control_c, 0, 64, 27
1, 4646, Control_c, 0, 64, 37
1, 4665, Control_c, 0, 64, 49
1, 4683, Control_c, 0, 64, 58
1, 4703, Control_c, 0, 64, 64
1, 4721, Control_c, 0, 64, 68
1, 4741, Control_c, 0, 64, 74
1, 4758, Control_c, 0, 64, 83
1, 4778, Control_c, 0, 64, 101
1, 4797, Control_c, 0, 64, 127
1, 4800, Note_on_c, 0, 60, 86
1, 4828, Note_off_c, 0, 62, 62
1, 5132, Note_on_c, 0, 59, 71
1, 5133, Note_on_c, 0, 55, 63
1, 5133, Note_on_c, 0, 74, 71
1, 5134, Note_off_c, 0, 57, 62
1, 5141, Note_on_c, 0, 71, 63
1, 5148, Control_c, 0, 64, 118
1, 5167, Control_c, 0, 64, 81
1, 5180, Note_off_c, 0, 60, 57
1, 5184, Control_c, 0, 64, 57
1, 5204, Control_c, 0, 64, 35
1, 5212, Note_off_c, 0, 69, 52
1, 5217, Note_off_c, 0, 72, 49
1, 5224, Control_c, 0, 64, 21
1, 5560, Control_c, 0, 64, 17
1, 5766, Control_c, 0, 64, 13
1, 6269, Note_on_c, 0, 76, 80
1, 6378, Note_off_c, 0, 74, 53
1, 6471, Note_off_c, 0, 77, 43
1, 6814, Note_on_c, 0, 57, 80
1, 6859, Note_off_c, 0, 59, 60
1, 7072, Note_off_c, 0, 57, 61
1, 7080, Note_on_c, 0, 59, 80
1, 7114, Control_c, 0, 64, 18
1, 7368, Note_on_c, 0, 60, 81
1, 7379, Note_on_c, 0, 53, 79
1, 7383, Note_off_c, 0, 59, 59
1, 7393, Note_off_c, 0, 55, 61
1, 7423, Note_on_c, 0, 69, 80
1, 7463, Note_off_c, 0, 71, 63
1, 7942, Note_on_c, 0, 81, 89
1, 7971, Note_off_c, 0, 76, 63
1, 8106, Control_c, 0, 64, 24
1, 8124, Control_c, 0, 64, 30
1, 8143, Control_c, 0, 64, 36
1, 8161, Control_c, 0, 64, 45
1, 8181, Control_c, 0, 64, 54
1, 8195, Note_on_c, 0, 80, 88
1, 8199, Control_c, 0, 64, 61
1, 8218, Control_c, 0, 64, 65
1, 8237, Note_off_c, 0, 81, 63
1, 8237, Control_c, 0, 64, 70
1, 8255, Control_c, 0, 64, 76
1, 8275, Control_c, 0, 64, 85
1, 8294, Control_c, 0, 64, 103
1, 8311, Control_c, 0, 64, 127
1, 8480, Control_c, 0, 64, 94
1, 8486, Note_on_c, 0, 81, 81
1, 8487, Note_on_c, 0, 74, 71
1, 8499, Control_c, 0, 64, 69
1, 8507, Note_off_c, 0, 60, 58
1, 8516, Note_on_c, 0, 62, 54
1, 8516, Control_c, 0, 64, 49
1, 8537, Control_c, 0, 64, 35
1, 8555, Control_c, 0, 64, 27
1, 8593, Control_c, 0, 64, 23
1, 8661, Note_off_c, 0, 80, 39
1, 8668, Control_c, 0, 64, 18
1, 8758, Note_on_c, 0, 60, 70
1, 8798, Note_off_c, 0, 62, 63
1, 8798, Control_c, 0, 64, 26
1, 8817, Control_c, 0, 64, 38
1, 8825, Note_off_c, 0, 69, 56
1, 8836, Control_c, 0, 64, 53
1, 8855, Control_c, 0, 64, 64
1, 8873, Control_c, 0, 64, 73
1, 8892, Control_c, 0, 64, 84
1, 8911, Control_c, 0, 64, 101
1, 8929, Control_c, 0, 64, 127
1, 9023, Control_c, 0, 64, 94
1, 9040, Note_on_c, 0, 71, 76
1, 9041, Control_c, 0, 64, 68
1, 9052, Note_on_c, 0, 59, 58
1, 9058, Control_c, 0, 64, 45
1, 9079, Control_c, 0, 64, 25
1, 9093, Note_off_c, 0, 60, 56
1, 9097, Control_c, 0, 64, 15
1, 9102, Note_off_c, 0, 74, 60
1, 9153, Control_c, 0, 64, 20
1, 9173, Control_c, 0, 64, 29
1, 9193, Control_c, 0, 64, 44
1, 9211, Control_c, 0, 64, 60
1, 9229, Control_c, 0, 64, 70
1, 9249, Control_c, 0, 64, 75
1, 9267, Control_c, 0, 64, 77
1, 9285, Control_c, 0, 64, 80
1, 9300, Note_on_c, 0, 57, 58
1, 9304, Control_c, 0, 64, 86
1, 9323, Control_c, 0, 64, 97
1, 9331, Note_off_c, 0, 59, 58
1, 9341, Control_c, 0, 64, 124
1, 9566, Control_c, 0, 64, 103
1, 9585, Note_on_c, 0, 52, 51
1, 9585, Control_c, 0, 64, 77
1, 9587, Note_on_c, 0, 76, 58
1, 9591, Note_off_c, 0, 53, 46
1, 9600, Note_on_c, 0, 72, 52
1, 9604, Control_c, 0, 64, 58
1, 9622, Control_c, 0, 64, 44
1, 9641, Control_c, 0, 64, 36
1, 9660, Note_off_c, 0, 71, 53
1, 9696, Control_c, 0, 64, 32
1, 9810, Control_c, 0, 64, 28
1, 9847, Control_c, 0, 64, 24
1, 9859, Note_on_c, 0, 60, 65
1, 9861, Note_off_c, 0, 57, 62
1, 9902, Control_c, 0, 64, 20
1, 10108, Control_c, 0, 64, 16
1, 10121, Note_on_c, 0, 59, 66
1, 10161, Note_off_c, 0, 60, 57
1, 10295, Control_c, 0, 64, 25
1, 10315, Control_c, 0, 64, 34
1, 10333, Control_c, 0, 64, 45
1, 10352, Control_c, 0, 64, 56
1, 10369, Note_on_c, 0, 57, 71
1, 10370, Control_c, 0, 64, 62
1, 10389, Control_c, 0, 64, 67
1, 10409, Control_c, 0, 64, 73
1, 10410, Note_off_c, 0, 59, 62
1, 10429, Control_c, 0, 64, 84
1, 10445, Control_c, 0, 64, 107
1, 10465, Control_c, 0, 64, 127
1, 10564, Note_off_c, 0, 72, 37
1, 10704, Note_on_c, 0, 80, 75
1, 10727, Note_on_c, 0, 71, 62
1, 10727, Control_c, 0, 64, 117
1, 10729, Note_on_c, 0, 64, 69
1, 10746, Control_c, 0, 64, 83
1, 10764, Control_c, 0, 64, 61
1, 10771, Note_off_c, 0, 57, 64
1, 10783, Control_c, 0, 64, 41
1, 10801, Control_c, 0, 64, 26
1, 10813, Note_off_c, 0, 81, 57
1, 10820, Control_c, 0, 64, 19
1, 10894, Control_c, 0, 64, 13
1, 10914, Control_c, 0, 64, 9
1, 11025, Control_c, 0, 64, 0
1, 11362, Control_c, 0, 64, 14
1, 11369, Note_on_c, 0, 50, 63
1, 11382, Control_c, 0, 64, 24
1, 11401, Control_c, 0, 64, 38
1, 11402, Note_off_c, 0, 52, 55
1, 11419, Control_c, 0, 64, 54
1, 11437, Control_c, 0, 64, 64
1, 11458, Control_c, 0, 64, 72
1, 11475, Control_c, 0, 64, 77
1, 11494, Control_c, 0, 64, 85
1, 11514, Control_c, 0, 64, 95
1, 11527, Note_off_c, 0, 64, 58
1, 11530, Control_c, 0, 64, 116
1, 11536, Note_off_c, 0, 76, 61
1, 11548, Note_off_c, 0, 71, 58
1, 11549, Control_c, 0, 64, 127
1, 12007, Note_on_c, 0, 81, 81
1, 12016, Control_c, 0, 64, 93
1, 12037, Note_off_c, 0, 50, 60
1, 12038, Control_c, 0, 64, 67
1, 12044, Note_on_c, 0, 52, 38
1, 12056, Control_c, 0, 64, 45
1, 12058, Note_on_c, 0, 69, 50
1, 12061, Note_on_c, 0, 57, 51
1, 12062, Note_on_c, 0, 48, 54
1, 12063, Note_on_c, 0, 76, 37
1, 12078, Control_c, 0, 64, 28
1, 12092, Control_c, 0, 64, 19
1, 12130, Control_c, 0, 64, 14
1, 12141, Note_off_c, 0, 80, 43
1, 12523, Control_c, 0, 64, 9
1, 12560, Control_c, 0, 64, 17
1, 12567, Note_on_c, 0, 79, 79
1, 12579, Control_c, 0, 64, 25
1, 12598, Control_c, 0, 64, 38
1, 12617, Control_c, 0, 64, 54
1, 12635, Control_c, 0, 64, 64
1, 12655, Control_c, 0, 64, 69
1, 12673, Control_c, 0, 64, 76
1, 12692, Control_c, 0, 64, 85
1, 12710, Control_c, 0, 64, 103
1, 12729, Control_c, 0, 64, 127
1, 12831, Note_on_c, 0, 77, 82
1, 12886, Note_off_c, 0, 81, 59
1, 12900, Note_off_c, 0, 76, 56
1, 12901, Poly_aftertouch_c, 0, 76, 0
1, 12912, Note_off_c, 0, 52, 50
1, 12922, Note_off_c, 0, 69, 56
1, 12940, Note_off_c, 0, 79, 53
1, 12972, Note_off_c, 0, 57, 31
1, 13136, Note_on_c, 0, 79, 80
1, 13156, Note_on_c, 0, 76, 58
1, 13160, Control_c, 0, 64, 95
1, 13174, Note_off_c, 0, 48, 60
1, 13178, Control_c, 0, 64, 68
1, 13182, Note_on_c, 0, 69, 45
1, 13185, Note_on_c, 0, 57, 48
1, 13194, Note_on_c, 0, 52, 45
1, 13195, Note_on_c, 0, 49, 51
1, 13197, Control_c, 0, 64, 47
1, 13198, Note_off_c, 0, 77, 55
1, 13216, Control_c, 0, 64, 30
1, 13235, Control_c, 0, 64, 19
1, 13253, Control_c, 0, 64, 11
1, 13309, Control_c, 0, 64, 0
1, 13674, Note_on_c, 0, 77, 76
1, 13702, Control_c, 0, 64, 10
1, 13722, Control_c, 0, 64, 15
1, 13740, Control_c, 0, 64, 23
1, 13759, Control_c, 0, 64, 37
1, 13765, Note_off_c, 0, 76, 55
1, 13778, Control_c, 0, 64, 58
1, 13796, Control_c, 0, 64, 73
1, 13816, Control_c, 0, 64, 85
1, 13833, Control_c, 0, 64, 96
1, 13852, Control_c, 0, 64, 105
1, 13871, Control_c, 0, 64, 127
1, 13946, Note_on_c, 0, 76, 75
1, 13989, Note_off_c, 0, 79, 61
1, 14028, Note_off_c, 0, 77, 61
1, 14039, Note_off_c, 0, 69, 56
1, 14239, Note_on_c, 0, 77, 69
1, 14240, Note_on_c, 0, 69, 51
1, 14245, Control_c, 0, 64, 101
1, 14256, Note_on_c, 0, 50, 51
1, 14260, Note_off_c, 0, 49, 56
1, 14264, Control_c, 0, 64, 74
1, 14274, Note_off_c, 0, 76, 59
1, 14282, Control_c, 0, 64, 53
1, 14302, Control_c, 0, 64, 36
1, 14317, Note_off_c, 0, 52, 36
1, 14318, Note_off_c, 0, 57, 59
1, 14321, Control_c, 0, 64, 26
1, 14339, Control_c, 0, 64, 21
1, 14414, Control_c, 0, 64, 17
1, 14506, Control_c, 0, 64, 13
1, 14535, Note_on_c, 0, 55, 50
1, 14620, Control_c, 0, 64, 9
1, 14779, Note_on_c, 0, 74, 62
1, 14806, Note_on_c, 0, 53, 45
1, 14806, Control_c, 0, 64, 14
1, 14826, Control_c, 0, 64, 20
1, 14829, Note_off_c, 0, 55, 50
1, 14845, Control_c, 0, 64, 29
1, 14863, Control_c, 0, 64, 42
1, 14883, Control_c, 0, 64, 56
1, 14900, Control_c, 0, 64, 64
1, 14919, Control_c, 0, 64, 68
1, 14958, Control_c, 0, 64, 73
1, 14976, Control_c, 0, 64, 82
1, 14994, Control_c, 0, 64, 101
1, 15012, Control_c, 0, 64, 127
1, 15043, Note_on_c, 0, 73, 66
1, 15050, Note_on_c, 0, 52, 52
1, 15075, Note_off_c, 0, 53, 52
1, 15085, Note_off_c, 0, 74, 54
1, 15105, Note_off_c, 0, 50, 38
1, 15134, Note_off_c, 0, 52, 46
1, 15324, Note_on_c, 0, 74, 63
1, 15332, Note_on_c, 0, 50, 56
1, 15351, Control_c, 0, 64, 89
1, 15368, Control_c, 0, 64, 71
1, 15382, Note_off_c, 0, 73, 53
1, 15386, Control_c, 0, 64, 57
1, 15407, Control_c, 0, 64, 49
1, 15425, Control_c, 0, 64, 47
1, 15518, Control_c, 0, 64, 44
1, 15568, Note_on_c, 0, 48, 59
1, 15593, Control_c, 0, 64, 42
1, 15847, Note_on_c, 0, 47, 63
1, 15906, Note_off_c, 0, 48, 52
1, 16118, Note_on_c, 0, 45, 65
1, 16135, Note_off_c, 0, 47, 58
1, 16470, Note_on_c, 0, 44, 62
1, 16488, Note_on_c, 0, 71, 55
1, 16492, Control_c, 0, 64, 40
1, 16500, Note_off_c, 0, 45, 56
1, 16516, Note_off_c, 0, 50, 62
1, 16537, Note_off_c, 0, 69, 54
1, 16547, Control_c, 0, 64, 32
1, 16567, Control_c, 0, 64, 24
1, 16584, Control_c, 0, 64, 18
1, 16622, Control_c, 0, 64, 12
1, 16636, Note_off_c, 0, 74, 55
1, 16753, Control_c, 0, 64, 0
1, 17170, Note_on_c, 0, 76, 73
1, 17200, Note_on_c, 0, 47, 51
1, 17297, Control_c, 0, 64, 13
1, 17315, Control_c, 0, 64, 26
1, 17334, Control_c, 0, 64, 48
1, 17353, Control_c, 0, 64, 65
1, 17372, Control_c, 0, 64, 72
1, 17390, Control_c, 0, 64, 74
1, 17446, Control_c, 0, 64, 78
1, 17456, Note_on_c, 0, 74, 80
1, 17463, Control_c, 0, 64, 85
1, 17483, Control_c, 0, 64, 99
1, 17503, Control_c, 0, 64, 127
1, 17509, Note_off_c, 0, 77, 60
1, 17533, Note_off_c, 0, 76, 61
1, 17763, Control_c, 0, 64, 103
1, 17765, Note_on_c, 0, 76, 77
1, 17773, Note_on_c, 0, 52, 61
1, 17775, Note_off_c, 0, 47, 60
1, 17782, Control_c, 0, 64, 73
1, 17798, Note_off_c, 0, 74, 60
1, 17802, Control_c, 0, 64, 49
1, 17821, Control_c, 0, 64, 25
1, 17933, Control_c, 0, 64, 0
1, 18032, Note_on_c, 0, 74, 76
1, 18110, Note_off_c, 0, 76, 53
1, 18214, Control_c, 0, 64, 14
1, 18233, Control_c, 0, 64, 23
1, 18252, Control_c, 0, 64, 35
1, 18270, Control_c, 0, 64, 50
1, 18289, Control_c, 0, 64, 61
1, 18307, Control_c, 0, 64, 66
1, 18308, Note_on_c, 0, 72, 74
1, 18325, Control_c, 0, 64, 69
1, 18345, Control_c, 0, 64, 71
1, 18349, Note_off_c, 0, 71, 57
1, 18364, Control_c, 0, 64, 74
1, 18373, Note_off_c, 0, 74, 56
1, 18381, Control_c, 0, 64, 80
1, 18402, Control_c, 0, 64, 89
1, 18420, Control_c, 0, 64, 102
1, 18438, Control_c, 0, 64, 127
1, 18556, Note_on_c, 0, 71, 77
1, 18565, Note_off_c, 0, 72, 63
1, 18879, Note_on_c, 0, 72, 74
1, 18887, Control_c, 0, 64, 103
1, 18899, Note_on_c, 0, 45, 61
1, 18906, Control_c, 0, 64, 78
1, 18925, Control_c, 0, 64, 61
1, 18938, Note_off_c, 0, 71, 55
1, 18942, Control_c, 0, 64, 51
1, 18950, Note_off_c, 0, 44, 39
1, 18963, Control_c, 0, 64, 48
1, 18964, Note_off_c, 0, 52, 55
1, 19019, Control_c, 0, 64, 44
1, 19038, Control_c, 0, 64, 40
1, 19056, Control_c, 0, 64, 35
1, 19093, Control_c, 0, 64, 31
1, 19150, Control_c, 0, 64, 23
1, 19169, Control_c, 0, 64, 18
1, 19185, Note_on_c, 0, 71, 70
1, 19205, Control_c, 0, 64, 14
1, 19280, Control_c, 0, 64, 0
1, 19469, Note_on_c, 0, 52, 46
1, 19469, Note_on_c, 0, 69, 65
1, 19609, Note_off_c, 0, 71, 37
1, 19748, Note_on_c, 0, 68, 65
1, 19781, Note_off_c, 0, 69, 56
1, 20075, Note_on_c, 0, 69, 55
1, 20087, Note_on_c, 0, 57, 40
1, 20098, Note_on_c, 0, 64, 51
1, 20159, Note_off_c, 0, 68, 51
1, 20189, Note_off_c, 0, 52, 57
1, 20717, Note_on_c, 0, 47, 58
1, 20788, Note_off_c, 0, 45, 56
1, 20995, Note_on_c, 0, 48, 56
1, 21007, Note_off_c, 0, 47, 58
1, 21348, Note_off_c, 0, 64, 57
1, 21353, Note_off_c, 0, 48, 58
1, 21353, Note_on_c, 0, 65, 50
1, 21372, Note_on_c, 0, 50, 51
1, 21621, Control_c, 0, 64, 14
1, 21639, Control_c, 0, 64, 24
1, 21658, Control_c, 0, 64, 37
1, 21676, Control_c, 0, 64, 53
1, 21696, Control_c, 0, 64, 63
1, 21714, Control_c, 0, 64, 69
1, 21733, Control_c, 0, 64, 74
1, 21735, Note_off_c, 0, 57, 56
1, 21752, Control_c, 0, 64, 79
1, 21770, Control_c, 0, 64, 86
1, 21789, Control_c, 0, 64, 97
1, 21807, Control_c, 0, 64, 114
1, 21826, Control_c, 0, 64, 127
1, 21977, Control_c, 0, 64, 91
1, 21995, Control_c, 0, 64, 69
1, 22008, Note_on_c, 0, 74, 60
1, 22014, Control_c, 0, 64, 51
1, 22024, Note_on_c, 0, 57, 38
1, 22030, Control_c, 0, 64, 38
1, 22052, Note_off_c, 0, 69, 56
1, 22052, Control_c, 0, 64, 31
1, 22093, Note_off_c, 0, 72, 59
1, 22125, Control_c, 0, 64, 35
1, 22144, Control_c, 0, 64, 47
1, 22164, Control_c, 0, 64, 61
1, 22182, Control_c, 0, 64, 72
1, 22201, Control_c, 0, 64, 82
1, 22219, Control_c, 0, 64, 94
1, 22238, Control_c, 0, 64, 112
1, 22257, Control_c, 0, 64, 127
1, 22271, Note_on_c, 0, 72, 78
1, 22542, Note_on_c, 0, 71, 77
1, 22547, Note_off_c, 0, 65, 58
1, 22547, Note_on_c, 0, 62, 61
1, 22556, Control_c, 0, 64, 86
1, 22576, Control_c, 0, 64, 58
1, 22585, Note_off_c, 0, 57, 62
1, 22593, Control_c, 0, 64, 33
1, 22612, Control_c, 0, 64, 18
1, 22651, Control_c, 0, 64, 25
1, 22668, Control_c, 0, 64, 41
1, 22687, Control_c, 0, 64, 62
1, 22694, Note_off_c, 0, 72, 52
1, 22707, Control_c, 0, 64, 79
1, 22708, Note_off_c, 0, 74, 38
1, 22725, Control_c, 0, 64, 106
1, 22743, Control_c, 0, 64, 127
1, 22808, Note_on_c, 0, 69, 79
1, 22826, Note_off_c, 0, 71, 61
1, 23080, Control_c, 0, 64, 105
1, 23081, Note_on_c, 0, 68, 72
1, 23099, Note_on_c, 0, 59, 56
1, 23099, Control_c, 0, 64, 70
1, 23118, Control_c, 0, 64, 39
1, 23145, Note_off_c, 0, 69, 56
1, 23155, Control_c, 0, 64, 0
1, 23230, Control_c, 0, 64, 18
1, 23251, Control_c, 0, 64, 48
1, 23267, Control_c, 0, 64, 78
1, 23287, Control_c, 0, 64, 127
1, 23349, Note_on_c, 0, 66, 75
1, 23377, Note_off_c, 0, 50, 59
1, 23382, Note_off_c, 0, 68, 60
1, 23646, Note_on_c, 0, 52, 66
1, 23652, Note_on_c, 0, 69, 64
1, 23660, Control_c, 0, 64, 112
1, 23679, Control_c, 0, 64, 82
1, 23686, Note_off_c, 0, 66, 58
1, 23698, Control_c, 0, 64, 62
1, 23717, Control_c, 0, 64, 45
1, 23736, Control_c, 0, 64, 34
1, 23754, Control_c, 0, 64, 27
1, 23773, Control_c, 0, 64, 18
1, 23792, Control_c, 0, 64, 10
1, 23866, Control_c, 0, 64, 0
1, 23933, Note_on_c, 0, 68, 68
1, 24014, Note_off_c, 0, 69, 51
1, 24222, Note_on_c, 0, 66, 71
1, 24281, Note_off_c, 0, 68, 58
1, 24498, Note_on_c, 0, 64, 73
1, 24510, Note_off_c, 0, 66, 63
1, 24522, Control_c, 0, 64, 12
1, 24540, Control_c, 0, 64, 19
1, 24559, Control_c, 0, 64, 31
1, 24578, Control_c, 0, 64, 47
1, 24597, Control_c, 0, 64, 61
1, 24615, Control_c, 0, 64, 68
1, 24634, Control_c, 0, 64, 72
1, 24653, Control_c, 0, 64, 78
1, 24671, Control_c, 0, 64, 90
1, 24690, Control_c, 0, 64, 115
1, 24709, Control_c, 0, 64, 127
1, 24769, Note_on_c, 0, 68, 66
1, 24868, Note_on_c, 0, 71, 61
1, 24943, Note_on_c, 0, 76, 84
1, 24990, Control_c, 0, 64, 112
1, 25008, Control_c, 0, 64, 77
1, 25027, Control_c, 0, 64, 50
1, 25047, Control_c, 0, 64, 13
1, 25065, Control_c, 0, 64, 0
1, 25233, Control_c, 0, 64, 15
1, 25252, Control_c, 0, 64, 34
1, 25270, Control_c, 0, 64, 55
1, 25289, Control_c, 0, 64, 69
1, 25309, Control_c, 0, 64, 76
1, 25327, Control_c, 0, 64, 80
1, 25346, Control_c, 0, 64, 84
1, 25350, Note_off_c, 0, 62, 57
1, 25364, Control_c, 0, 64, 90
1, 25383, Control_c, 0, 64, 100
1, 25401, Control_c, 0, 64, 116
1, 25421, Control_c, 0, 64, 127
1, 25573, Note_on_c, 0, 60, 69
1, 25575, Note_off_c, 0, 59, 61
1, 25826, Note_on_c, 0, 59, 73
1, 25848, Note_off_c, 0, 60, 59
1, 26162, Note_on_c, 0, 60, 78
1, 26165, Note_off_c, 0, 59, 62
1, 26169, Control_c, 0, 64, 116
1, 26189, Control_c, 0, 64, 82
1, 26207, Control_c, 0, 64, 58
1, 26225, Control_c, 0, 64, 29
1, 26244, Control_c, 0, 64, 0
1, 26375, Control_c, 0, 64, 10
1, 26394, Control_c, 0, 64, 29
1, 26411, Control_c, 0, 64, 57
1, 26431, Control_c, 0, 64, 84
1, 26434, Note_off_c, 0, 68, 62
1, 26450, Control_c, 0, 64, 127
1, 26768, Control_c, 0, 64, 94
1, 26778, Note_on_c, 0, 69, 80
1, 26785, Control_c, 0, 64, 69
1, 26805, Control_c, 0, 64, 52
1, 26820, Note_off_c, 0, 71, 61
1, 26824, Control_c, 0, 64, 47
1, 26843, Control_c, 0, 64, 56
1, 26862, Control_c, 0, 64, 70
1, 26880, Control_c, 0, 64, 98
1, 26899, Control_c, 0, 64, 127
1, 27012, Note_off_c, 0, 60, 57
1, 27219, Note_on_c, 0, 60, 54
1, 27267, Note_off_c, 0, 60, 56
1, 27337, Note_on_c, 0, 59, 40
1, 27377, Note_off_c, 0, 59, 56
1, 27384, Note_on_c, 0, 60, 61
1, 27384, Note_on_c, 0, 74, 59
1, 27460, Control_c, 0, 64, 96
1, 27462, Note_on_c, 0, 59, 61
1, 27479, Control_c, 0, 64, 69
1, 27480, Note_off_c, 0, 76, 59
1, 27500, Control_c, 0, 64, 49
1, 27503, Note_off_c, 0, 60, 33
1, 27516, Control_c, 0, 64, 35
1, 27536, Control_c, 0, 64, 25
1, 27554, Control_c, 0, 64, 18
1, 27573, Control_c, 0, 64, 13
1, 27610, Control_c, 0, 64, 9
1, 27685, Control_c, 0, 64, 0
1, 27928, Control_c, 0, 67, 9
1, 27966, Control_c, 0, 67, 15
1, 27985, Control_c, 0, 67, 19
1, 28022, Control_c, 0, 67, 24
1, 28059, Control_c, 0, 67, 29
1, 28096, Control_c, 0, 67, 36
1, 28134, Control_c, 0, 67, 42
1, 28171, Control_c, 0, 67, 49
1, 28191, Control_c, 0, 67, 53
1, 28209, Control_c, 0, 67, 58
1, 28228, Control_c, 0, 67, 63
1, 28246, Control_c, 0, 67, 69
1, 28266, Control_c, 0, 67, 75
1, 28283, Control_c, 0, 67, 81
1, 28303, Control_c, 0, 67, 88
1, 28322, Control_c, 0, 67, 95
1, 28341, Control_c, 0, 67, 103
1, 28359, Control_c, 0, 67, 109
1, 28377, Control_c, 0, 67, 114
1, 28397, Control_c, 0, 67, 119
1, 28410, Note_on_c, 0, 68, 49
1, 28434, Control_c, 0, 67, 125
1, 28448, Note_off_c, 0, 69, 47
1, 28696, Control_c, 0, 64, 13
1, 28715, Control_c, 0, 64, 24
1, 28734, Control_c, 0, 64, 40
1, 28753, Control_c, 0, 64, 55
1, 28770, Control_c, 0, 64, 63
1, 28790, Control_c, 0, 64, 65
1, 28810, Control_c, 0, 64, 68
1, 28827, Control_c, 0, 64, 72
1, 28845, Control_c, 0, 64, 78
1, 28865, Control_c, 0, 64, 89
1, 28883, Control_c, 0, 64, 103
1, 28901, Control_c, 0, 64, 127
1, 28941, Note_off_c, 0, 68, 54
1, 28954, Note_off_c, 0, 64, 53
1, 29000, Note_off_c, 0, 59, 36
1, 29573, Note_on_c, 0, 64, 58
1, 29594, Control_c, 0, 64, 106
1, 29601, Note_on_c, 0, 45, 46
1, 29601, Note_on_c, 0, 57, 42
1, 29614, Control_c, 0, 64, 94
1, 29630, Note_off_c, 0, 52, 35
1, 29630, Control_c, 0, 64, 81
1, 29651, Control_c, 0, 64, 67
1, 29671, Control_c, 0, 64, 55
1, 29687, Control_c, 0, 64, 51
1, 29763, Control_c, 0, 64, 48
1, 29781, Control_c, 0, 64, 43
1, 29801, Control_c, 0, 64, 40
1, 30252, Note_on_c, 0, 72, 50
1, 30503, Note_on_c, 0, 71, 60
1, 30547, Note_off_c, 0, 72, 52
1, 30699, Control_c, 0, 64, 36
1, 30773, Control_c, 0, 64, 32
1, 30793, Control_c, 0, 64, 26
1, 30811, Control_c, 0, 64, 17
1, 30815, Note_on_c, 0, 69, 62
1, 30818, Note_off_c, 0, 71, 53
1, 30818, Note_on_c, 0, 72, 52
1, 30829, Control_c, 0, 64, 9
1, 30875, Note_off_c, 0, 64, 43
1, 30904, Control_c, 0, 64, 0
1, 30918, Note_off_c, 0, 74, 54
1, 31365, Note_on_c, 0, 74, 53
1, 31383, Note_off_c, 0, 72, 52
1, 31632, Note_on_c, 0, 72, 52
1, 31913, Note_off_c, 0, 74, 50
1, 31920, Note_on_c, 0, 59, 59
1, 31928, Note_on_c, 0, 71, 55
1, 31948, Note_off_c, 0, 72, 55
1, 31977, Note_off_c, 0, 57, 37
1, 31997, Note_off_c, 0, 45, 55
1, 32455, Note_on_c, 0, 67, 48
1, 32464, Note_off_c, 0, 69, 52
1, 32705, Note_off_c, 0, 67, 58
1, 32708, Note_on_c, 0, 65, 49
1, 33001, Note_on_c, 0, 67, 44
1, 33006, Note_off_c, 0, 59, 62
1, 33009, Note_on_c, 0, 64, 61
1, 33013, Note_off_c, 0, 65, 54
1, 33548, Note_on_c, 0, 72, 52
1, 33552, Note_on_c, 0, 69, 38
1, 33553, Note_off_c, 0, 71, 53
1, 33571, Note_off_c, 0, 67, 42
1, 33822, Note_on_c, 0, 71, 52
1, 33835, Note_on_c, 0, 67, 47
1, 33916, Note_off_c, 0, 69, 38
1, 33987, Note_off_c, 0, 72, 30
1, 34123, Note_on_c, 0, 69, 56
1, 34144, Note_on_c, 0, 65, 39
1, 34160, Note_off_c, 0, 67, 49
1, 34169, Note_off_c, 0, 71, 48
1, 34702, Note_on_c, 0, 62, 48
1, 34855, Note_off_c, 0, 64, 34
1, 34951, Note_on_c, 0, 60, 52
1, 34983, Note_off_c, 0, 62, 51
1, 35273, Note_on_c, 0, 71, 50
1, 35278, Note_on_c, 0, 62, 52
1, 35288, Note_off_c, 0, 60, 56
1, 35311, Note_off_c, 0, 69, 49
1, 35876, Note_on_c, 0, 67, 48
1, 35887, Note_off_c, 0, 62, 60
1, 35893, Note_on_c, 0, 64, 46
1, 36034, Note_off_c, 0, 65, 35
1, 36135, Note_on_c, 0, 62, 58
1, 36138, Note_off_c, 0, 64, 56
1, 36162, Note_on_c, 0, 65, 56
1, 36255, Note_off_c, 0, 67, 36
1, 36473, Note_on_c, 0, 64, 50
1, 36481, Note_on_c, 0, 52, 53
1, 36483, Note_off_c, 0, 62, 61
1, 36500, Note_off_c, 0, 65, 59
1, 36500, Note_on_c, 0, 60, 61
1, 37072, Note_on_c, 0, 69, 57
1, 37335, Note_on_c, 0, 68, 61
1, 37371, Note_off_c, 0, 69, 56
1, 37415, Note_off_c, 0, 71, 58
1, 37656, Note_on_c, 0, 69, 60
1, 37663, Note_off_c, 0, 68, 62
1, 37666, Note_on_c, 0, 57, 54
1, 37701, Note_off_c, 0, 52, 59
1, 38225, Note_on_c, 0, 71, 57
1, 38263, Note_off_c, 0, 69, 54
1, 38335, Control_c, 0, 64, 8
1, 38355, Control_c, 0, 64, 22
1, 38373, Control_c, 0, 64, 42
1, 38392, Control_c, 0, 64, 59
1, 38411, Control_c, 0, 64, 64
1, 38447, Control_c, 0, 64, 66
1, 38467, Control_c, 0, 64, 68
1, 38482, Note_on_c, 0, 72, 61
1, 38484, Control_c, 0, 64, 72
1, 38506, Control_c, 0, 64, 77
1, 38508, Note_off_c, 0, 71, 60
1, 38523, Control_c, 0, 64, 85
1, 38537, Note_off_c, 0, 64, 59
1, 38540, Control_c, 0, 64, 94
1, 38558, Note_off_c, 0, 60, 56
1, 38560, Control_c, 0, 64, 99
1, 38636, Control_c, 0, 64, 103
1, 38747, Control_c, 0, 64, 90
1, 38767, Control_c, 0, 64, 79
1, 38784, Control_c, 0, 64, 68
1, 38786, Note_on_c, 0, 66, 61
1, 38803, Control_c, 0, 64, 58
1, 38812, Note_on_c, 0, 59, 50
1, 38821, Note_on_c, 0, 63, 34
1, 38821, Control_c, 0, 64, 50
1, 38842, Control_c, 0, 64, 43
1, 38860, Control_c, 0, 64, 37
1, 38879, Control_c, 0, 64, 30
1, 38887, Note_off_c, 0, 72, 60
1, 38896, Control_c, 0, 64, 21
1, 38916, Control_c, 0, 64, 12
1, 38954, Control_c, 0, 64, 8
1, 39372, Note_on_c, 0, 71, 61
1, 39384, Note_on_c, 0, 55, 52
1, 39426, Note_off_c, 0, 57, 56
1, 39608, Control_c, 0, 64, 13
1, 39619, Note_on_c, 0, 54, 62
1, 39626, Control_c, 0, 64, 21
1, 39646, Control_c, 0, 64, 33
1, 39655, Note_off_c, 0, 55, 60
1, 39664, Control_c, 0, 64, 47
1, 39684, Control_c, 0, 64, 56
1, 39702, Control_c, 0, 64, 60
1, 39721, Control_c, 0, 64, 63
1, 39739, Control_c, 0, 64, 66
1, 39759, Control_c, 0, 64, 69
1, 39777, Control_c, 0, 64, 73
1, 39796, Control_c, 0, 64, 78
1, 39815, Control_c, 0, 64, 82
1, 39880, Note_off_c, 0, 63, 63
1, 39889, Control_c, 0, 64, 76
1, 39890, Control_c, 0, 67, 121
1, 39909, Control_c, 0, 64, 69
1, 39920, Note_on_c, 0, 64, 59
1, 39927, Control_c, 0, 64, 61
1, 39940, Note_on_c, 0, 55, 62
1, 39943, Note_off_c, 0, 66, 60
1, 39946, Control_c, 0, 64, 52
1, 39952, Note_off_c, 0, 54, 62
1, 39966, Control_c, 0, 64, 45
1, 39983, Control_c, 0, 64, 39
1, 40002, Control_c, 0, 64, 31
1, 40022, Control_c, 0, 64, 22
1, 40040, Control_c, 0, 64, 13
1, 40058, Control_c, 0, 64, 8
1, 40151, Control_c, 0, 67, 117
1, 40227, Control_c, 0, 67, 109
1, 40246, Control_c, 0, 67, 103
1, 40264, Control_c, 0, 67, 97
1, 40282, Control_c, 0, 67, 93
1, 40320, Control_c, 0, 67, 89
1, 40507, Note_on_c, 0, 76, 78
1, 40524, Note_on_c, 0, 57, 60
1, 40538, Note_off_c, 0, 55, 62
1, 40565, Control_c, 0, 67, 84
1, 40600, Control_c, 0, 67, 78
1, 40621, Control_c, 0, 67, 73
1, 40638, Control_c, 0, 67, 69
1, 40657, Control_c, 0, 64, 20
1, 40658, Control_c, 0, 67, 65
1, 40677, Control_c, 0, 64, 35
1, 40694, Control_c, 0, 64, 53
1, 40695, Control_c, 0, 67, 61
1, 40714, Control_c, 0, 64, 64
1, 40732, Control_c, 0, 64, 68
1, 40749, Note_on_c, 0, 55, 60
1, 40770, Control_c, 0, 64, 70
1, 40775, Note_off_c, 0, 57, 57
1, 40787, Control_c, 0, 64, 73
1, 40804, Note_off_c, 0, 64, 63
1, 40805, Control_c, 0, 64, 80
1, 40806, Control_c, 0, 67, 57
1, 40826, Control_c, 0, 64, 90
1, 40845, Control_c, 0, 64, 103
1, 40862, Control_c, 0, 64, 127
1, 41013, Control_c, 0, 67, 61
1, 41050, Control_c, 0, 64, 122
1, 41068, Control_c, 0, 64, 92
1, 41088, Control_c, 0, 64, 72
1, 41090, Note_on_c, 0, 57, 55
1, 41096, Note_on_c, 0, 66, 53
1, 41097, Note_off_c, 0, 55, 60
1, 41103, Note_on_c, 0, 54, 57
1, 41106, Control_c, 0, 64, 57
1, 41124, Control_c, 0, 64, 45
1, 41134, Note_off_c, 0, 71, 61
1, 41144, Control_c, 0, 64, 40
1, 41170, Note_off_c, 0, 59, 57
1, 41182, Control_c, 0, 64, 34
1, 41200, Control_c, 0, 64, 29
1, 41219, Control_c, 0, 64, 22
1, 41237, Control_c, 0, 64, 16
1, 41349, Control_c, 0, 64, 12
1, 41656, Note_on_c, 0, 69, 60
1, 41764, Note_off_c, 0, 66, 52
1, 41780, Control_c, 0, 64, 18
1, 41799, Control_c, 0, 64, 22
1, 41818, Control_c, 0, 64, 29
1, 41837, Control_c, 0, 64, 37
1, 41854, Control_c, 0, 64, 47
1, 41875, Control_c, 0, 64, 55
1, 41892, Control_c, 0, 64, 58
1, 41921, Note_on_c, 0, 67, 62
1, 41929, Control_c, 0, 64, 60
1, 41945, Note_off_c, 0, 69, 60
1, 41949, Control_c, 0, 64, 62
1, 41969, Control_c, 0, 64, 66
1, 41986, Control_c, 0, 64, 69
1, 42005, Control_c, 0, 64, 73
1, 42024, Control_c, 0, 64, 78
1, 42042, Control_c, 0, 64, 83
1, 42061, Control_c, 0, 64, 91
1, 42079, Control_c, 0, 64, 100
1, 42099, Control_c, 0, 64, 115
1, 42117, Control_c, 0, 64, 127
1, 42230, Control_c, 0, 64, 108
1, 42232, Note_on_c, 0, 75, 64
1, 42235, Note_on_c, 0, 69, 56
1, 42249, Control_c, 0, 64, 91
1, 42266, Control_c, 0, 64, 76
1, 42286, Control_c, 0, 64, 64
1, 42301, Note_off_c, 0, 67, 56
1, 42306, Control_c, 0, 64, 53
1, 42324, Control_c, 0, 64, 48
1, 42350, Note_off_c, 0, 76, 59
1, 42360, Control_c, 0, 64, 46
1, 42416, Control_c, 0, 64, 43
1, 42454, Control_c, 0, 64, 41
1, 42548, Control_c, 0, 64, 37
1, 42585, Control_c, 0, 64, 32
1, 42641, Control_c, 0, 64, 28
1, 42678, Control_c, 0, 64, 23
1, 42772, Control_c, 0, 64, 19
1, 42822, Note_on_c, 0, 71, 54
1, 42867, Note_off_c, 0, 69, 61
1, 42940, Control_c, 0, 64, 26
1, 42959, Control_c, 0, 64, 33
1, 42978, Control_c, 0, 64, 42
1, 42997, Control_c, 0, 64, 52
1, 43015, Control_c, 0, 64, 58
1, 43053, Control_c, 0, 64, 60
1, 43069, Note_off_c, 0, 71, 57
1, 43070, Control_c, 0, 64, 61
1, 43082, Note_on_c, 0, 69, 56
1, 43089, Control_c, 0, 64, 64
1, 43109, Control_c, 0, 64, 68
1, 43127, Control_c, 0, 64, 72
1, 43146, Control_c, 0, 64, 76
1, 43166, Control_c, 0, 64, 80
1, 43184, Control_c, 0, 64, 84
1, 43202, Control_c, 0, 64, 90
1, 43221, Control_c, 0, 64, 97
1, 43240, Control_c, 0, 64, 107
1, 43259, Control_c, 0, 64, 127
1, 43372, Control_c, 0, 64, 111
1, 43390, Control_c, 0, 64, 89
1, 43404, Note_off_c, 0, 54, 47
1, 43409, Note_on_c, 0, 76, 51
1, 43409, Control_c, 0, 64, 70
1, 43412, Note_on_c, 0, 59, 55
1, 43418, Note_on_c, 0, 52, 50
1, 43419, Note_off_c, 0, 57, 54
1, 43424, Note_on_c, 0, 67, 40
1, 43427, Control_c, 0, 64, 54
1, 43447, Control_c, 0, 64, 44
1, 43450, Note_off_c, 0, 69, 57
1, 43464, Control_c, 0, 64, 38
1, 43495, Note_off_c, 0, 75, 64
1, 43502, Control_c, 0, 64, 34
1, 43539, Control_c, 0, 64, 26
1, 43540, Control_c, 0, 67, 57
1, 43559, Control_c, 0, 64, 22
1, 43577, Control_c, 0, 67, 52
1, 43595, Control_c, 0, 67, 37
1, 43614, Control_c, 0, 67, 15
1, 43633, Control_c, 0, 64, 18
1, 43635, Control_c, 0, 67, 0
1, 44009, Note_on_c, 0, 66, 43
1, 44019, Note_on_c, 0, 71, 40
1, 44046, Control_c, 0, 64, 22
1, 44063, Control_c, 0, 64, 28
1, 44083, Control_c, 0, 64, 36
1, 44101, Control_c, 0, 64, 47
1, 44120, Control_c, 0, 64, 56
1, 44139, Control_c, 0, 64, 61
1, 44157, Control_c, 0, 64, 62
1, 44176, Control_c, 0, 64, 64
1, 44194, Control_c, 0, 64, 66
1, 44213, Control_c, 0, 64, 69
1, 44219, Note_off_c, 0, 67, 35
1, 44232, Control_c, 0, 64, 73
1, 44252, Control_c, 0, 64, 78
1, 44269, Control_c, 0, 64, 86
1, 44284, Note_on_c, 0, 69, 57
1, 44286, Control_c, 0, 64, 95
1, 44308, Control_c, 0, 64, 106
1, 44326, Control_c, 0, 64, 127
1, 44327, Note_off_c, 0, 71, 61
1, 44332, Note_off_c, 0, 76, 58
1, 44588, Control_c, 0, 64, 92
1, 44589, Note_on_c, 0, 71, 57
1, 44591, Note_on_c, 0, 67, 55
1, 44594, Note_on_c, 0, 64, 59
1, 44606, Control_c, 0, 64, 70
1, 44625, Control_c, 0, 64, 52
1, 44628, Note_off_c, 0, 66, 55
1, 44636, Note_off_c, 0, 59, 56
1, 44644, Control_c, 0, 64, 39
1, 44645, Note_off_c, 0, 69, 50
1, 44662, Control_c, 0, 64, 31
1, 44682, Control_c, 0, 64, 27
1, 44720, Control_c, 0, 64, 21
1, 44794, Control_c, 0, 64, 17
1, 44867, Control_c, 0, 64, 13
1, 44943, Control_c, 0, 64, 9
1, 45163, Note_on_c, 0, 72, 61
1, 45223, Note_off_c, 0, 71, 60
1, 45224, Control_c, 0, 64, 16
1, 45243, Control_c, 0, 64, 24
1, 45262, Control_c, 0, 64, 37
1, 45280, Control_c, 0, 64, 53
1, 45299, Control_c, 0, 64, 62
1, 45320, Control_c, 0, 64, 63
1, 45355, Control_c, 0, 64, 65
1, 45374, Control_c, 0, 64, 67
1, 45393, Control_c, 0, 64, 72
1, 45411, Control_c, 0, 64, 78
1, 45428, Note_on_c, 0, 71, 61
1, 45429, Control_c, 0, 64, 86
1, 45450, Control_c, 0, 64, 93
1, 45467, Control_c, 0, 64, 102
1, 45487, Control_c, 0, 64, 118
1, 45505, Control_c, 0, 64, 127
1, 45730, Control_c, 0, 64, 114
1, 45736, Note_on_c, 0, 66, 67
1, 45739, Note_off_c, 0, 72, 33
1, 45744, Note_on_c, 0, 69, 63
1, 45748, Control_c, 0, 64, 83
1, 45767, Note_on_c, 0, 54, 54
1, 45767, Control_c, 0, 64, 62
1, 45784, Note_off_c, 0, 52, 59
1, 45785, Control_c, 0, 64, 46
1, 45804, Control_c, 0, 64, 37
1, 45824, Control_c, 0, 64, 32
1, 45843, Control_c, 0, 64, 27
1, 45850, Note_off_c, 0, 67, 59
1, 45859, Note_off_c, 0, 71, 60
1, 45862, Control_c, 0, 64, 22
1, 45879, Control_c, 0, 64, 17
1, 45973, Control_c, 0, 64, 13
1, 46180, Control_c, 0, 64, 17
1, 46235, Control_c, 0, 64, 22
1, 46254, Control_c, 0, 64, 27
1, 46271, Control_c, 0, 64, 34
1, 46291, Control_c, 0, 64, 46
1, 46309, Control_c, 0, 64, 56
1, 46319, Note_on_c, 0, 62, 60
1, 46327, Control_c, 0, 64, 61
1, 46347, Control_c, 0, 64, 63
1, 46367, Control_c, 0, 64, 64
1, 46373, Note_off_c, 0, 64, 61
1, 46385, Control_c, 0, 64, 68
1, 46403, Control_c, 0, 64, 73
1, 46422, Control_c, 0, 64, 82
1, 46441, Control_c, 0, 64, 96
1, 46459, Control_c, 0, 64, 116
1, 46479, Control_c, 0, 64, 127
1, 46570, Note_on_c, 0, 60, 74
1, 46585, Note_off_c, 0, 62, 59
1, 46865, Note_on_c, 0, 62, 64
1, 46881, Note_on_c, 0, 56, 63
1, 46886, Note_on_c, 0, 65, 64
1, 46887, Note_on_c, 0, 71, 64
1, 46909, Control_c, 0, 64, 100
1, 46929, Note_off_c, 0, 60, 57
1, 46929, Note_off_c, 0, 54, 56
1, 46929, Control_c, 0, 64, 76
1, 46937, Note_off_c, 0, 69, 57
1, 46941, Note_off_c, 0, 66, 60
1, 46945, Control_c, 0, 64, 59
1, 46965, Control_c, 0, 64, 45
1, 46983, Control_c, 0, 64, 38
1, 47021, Control_c, 0, 64, 33
1, 47059, Control_c, 0, 64, 28
1, 47117, Control_c, 0, 64, 23
1, 47152, Control_c, 0, 64, 18
1, 47450, Note_on_c, 0, 64, 64
1, 47504, Note_off_c, 0, 62, 51
1, 47508, Control_c, 0, 64, 26
1, 47527, Control_c, 0, 64, 34
1, 47545, Control_c, 0, 64, 48
1, 47565, Control_c, 0, 64, 62
1, 47583, Control_c, 0, 64, 69
1, 47602, Control_c, 0, 64, 72
1, 47639, Control_c, 0, 64, 75
1, 47658, Control_c, 0, 64, 81
1, 47676, Control_c, 0, 64, 92
1, 47695, Control_c, 0, 64, 112
1, 47713, Note_on_c, 0, 62, 71
1, 47713, Control_c, 0, 64, 127
1, 47722, Note_off_c, 0, 64, 61
1, 48023, Note_on_c, 0, 64, 80
1, 48031, Note_off_c, 0, 65, 61
1, 48040, Note_on_c, 0, 57, 54
1, 48041, Note_off_c, 0, 56, 55
1, 48069, Control_c, 0, 64, 103
1, 48081, Note_on_c, 0, 60, 52
1, 48087, Control_c, 0, 64, 80
1, 48104, Poly_aftertouch_c, 0, 56, 0
1, 48106, Control_c, 0, 64, 63
1, 48112, Note_off_c, 0, 62, 52
1, 48126, Control_c, 0, 64, 51
1, 48145, Control_c, 0, 64, 47
1, 48219, Control_c, 0, 64, 45
1, 48257, Control_c, 0, 64, 42
1, 48275, Control_c, 0, 64, 40
1, 48313, Control_c, 0, 64, 32
1, 48332, Control_c, 0, 64, 27
1, 48369, Control_c, 0, 64, 22
1, 48481, Control_c, 0, 64, 18
1, 48538, Control_c, 0, 64, 13
1, 48602, Note_on_c, 0, 76, 75
1, 48655, Note_off_c, 0, 71, 62
1, 48688, Control_c, 0, 64, 20
1, 48706, Control_c, 0, 64, 27
1, 48725, Control_c, 0, 64, 37
1, 48743, Control_c, 0, 64, 51
1, 48762, Control_c, 0, 64, 61
1, 48780, Control_c, 0, 64, 64
1, 48800, Control_c, 0, 64, 65
1, 48817, Control_c, 0, 64, 68
1, 48837, Control_c, 0, 64, 72
1, 48855, Control_c, 0, 64, 78
1, 48861, Note_on_c, 0, 74, 79
1, 48875, Control_c, 0, 64, 87
1, 48893, Control_c, 0, 64, 99
1, 48911, Control_c, 0, 64, 114
1, 48930, Control_c, 0, 64, 127
1, 48950, Note_off_c, 0, 76, 56
1, 49173, Note_on_c, 0, 76, 82
1, 49173, Control_c, 0, 64, 105
1, 49182, Note_on_c, 0, 69, 71
1, 49191, Control_c, 0, 64, 75
1, 49211, Control_c, 0, 64, 49
1, 49227, Note_off_c, 0, 64, 58
1, 49228, Note_off_c, 0, 74, 58
1, 49230, Control_c, 0, 64, 24
1, 49379, Control_c, 0, 64, 15
1, 49399, Control_c, 0, 64, 25
1, 49416, Control_c, 0, 64, 40
1, 49436, Control_c, 0, 64, 56
1, 49455, Control_c, 0, 64, 65
1, 49474, Control_c, 0, 64, 70
1, 49492, Control_c, 0, 64, 75
1, 49511, Control_c, 0, 64, 84
1, 49530, Control_c, 0, 64, 104
1, 49548, Control_c, 0, 64, 127
1, 49771, Note_on_c, 0, 77, 80
1, 49772, Control_c, 0, 64, 92
1, 49792, Control_c, 0, 64, 64
1, 49810, Control_c, 0, 64, 41
1, 49813, Note_on_c, 0, 55, 43
1, 49815, Note_off_c, 0, 57, 58
1, 49825, Note_off_c, 0, 76, 59
1, 49828, Control_c, 0, 64, 28
1, 49904, Control_c, 0, 64, 40
1, 49923, Control_c, 0, 64, 54
1, 49942, Control_c, 0, 64, 67
1, 49960, Control_c, 0, 64, 76
1, 49979, Control_c, 0, 64, 88
1, 49998, Control_c, 0, 64, 105
1, 50015, Control_c, 0, 64, 127
1, 50042, Note_on_c, 0, 76, 80
1, 50369, Note_on_c, 0, 74, 77
1, 50371, Control_c, 0, 64, 108
1, 50390, Control_c, 0, 64, 76
1, 50403, Note_off_c, 0, 55, 48
1, 50409, Note_on_c, 0, 53, 46
1, 50409, Control_c, 0, 64, 51
1, 50428, Control_c, 0, 64, 31
1, 50446, Control_c, 0, 64, 19
1, 50466, Control_c, 0, 64, 13
1, 50484, Control_c, 0, 64, 9
1, 50496, Note_off_c, 0, 77, 31
1, 50517, Note_off_c, 0, 76, 54
1, 50634, Control_c, 0, 64, 25
1, 50652, Control_c, 0, 64, 49
1, 50672, Control_c, 0, 64, 72
1, 50691, Control_c, 0, 64, 93
1, 50708, Control_c, 0, 64, 127
1, 50930, Note_on_c, 0, 77, 71
1, 51031, Note_off_c, 0, 74, 59
1, 51201, Note_on_c, 0, 76, 72
1, 51278, Note_off_c, 0, 69, 59
1, 51307, Control_c, 0, 67, 11
1, 51327, Control_c, 0, 67, 16
1, 51345, Control_c, 0, 67, 21
1, 51364, Control_c, 0, 67, 26
1, 51382, Control_c, 0, 67, 30
1, 51409, Note_on_c, 0, 67, 58
1, 51420, Control_c, 0, 67, 36
1, 51457, Control_c, 0, 67, 41
1, 51471, Note_off_c, 0, 77, 51
1, 51494, Note_on_c, 0, 74, 65
1, 51537, Note_off_c, 0, 76, 55
1, 51629, Note_on_c, 0, 77, 80
1, 51645, Control_c, 0, 64, 103
1, 51651, Note_on_c, 0, 55, 45
1, 51665, Control_c, 0, 64, 78
1, 51682, Control_c, 0, 64, 59
1, 51684, Note_off_c, 0, 53, 37
1, 51701, Control_c, 0, 64, 47
1, 51720, Control_c, 0, 64, 40
1, 51739, Control_c, 0, 64, 34
1, 51757, Control_c, 0, 64, 26
1, 51775, Control_c, 0, 64, 18
1, 51795, Control_c, 0, 64, 13
1, 51828, Note_off_c, 0, 60, 34
1, 51851, Control_c, 0, 64, 8
1, 52076, Control_c, 0, 67, 47
1, 52094, Control_c, 0, 67, 52
1, 52113, Control_c, 0, 67, 57
1, 52131, Control_c, 0, 67, 62
1, 52151, Control_c, 0, 67, 68
1, 52168, Control_c, 0, 67, 73
1, 52188, Control_c, 0, 67, 79
1, 52206, Control_c, 0, 67, 83
1, 52225, Control_c, 0, 67, 88
1, 52243, Control_c, 0, 67, 92
1, 52263, Control_c, 0, 67, 97
1, 52281, Control_c, 0, 67, 102
1, 52299, Control_c, 0, 67, 108
1, 52320, Control_c, 0, 67, 114
1, 52337, Control_c, 0, 67, 120
1, 52356, Control_c, 0, 67, 127
1, 52424, Note_on_c, 0, 59, 28
1, 52450, Control_c, 0, 64, 15
1, 52468, Control_c, 0, 64, 22
1, 52487, Control_c, 0, 64, 31
1, 52505, Control_c, 0, 64, 45
1, 52524, Control_c, 0, 64, 59
1, 52544, Control_c, 0, 64, 67
1, 52561, Control_c, 0, 64, 70
1, 52581, Control_c, 0, 64, 73
1, 52599, Control_c, 0, 64, 76
1, 52619, Control_c, 0, 64, 81
1, 52636, Control_c, 0, 64, 86
1, 52655, Control_c, 0, 64, 93
1, 52674, Control_c, 0, 64, 102
1, 52693, Control_c, 0, 64, 110
1, 52694, Note_off_c, 0, 59, 60
1, 52696, Note_off_c, 0, 74, 57
1, 52704, Note_off_c, 0, 55, 60
1, 52712, Control_c, 0, 64, 118
1, 52730, Control_c, 0, 64, 127
1, 52736, Note_off_c, 0, 67, 32
1, 53270, Note_on_c, 0, 67, 64
1, 53273, Control_c, 0, 64, 109
1, 53293, Control_c, 0, 64, 83
1, 53300, Note_on_c, 0, 60, 41
1, 53307, Note_on_c, 0, 48, 35
1, 53311, Note_on_c, 0, 72, 36
1, 53313, Control_c, 0, 64, 64
1, 53330, Control_c, 0, 64, 48
1, 53348, Control_c, 0, 64, 37
1, 53366, Control_c, 0, 64, 31
1, 53385, Control_c, 0, 64, 26
1, 53404, Control_c, 0, 64, 21
1, 53423, Control_c, 0, 64, 17
1, 53479, Control_c, 0, 64, 13
1, 53554, Control_c, 0, 64, 9
1, 53759, Control_c, 0, 64, 16
1, 53779, Control_c, 0, 64, 20
1, 53797, Control_c, 0, 64, 25
1, 53817, Control_c, 0, 64, 32
1, 53834, Control_c, 0, 64, 41
1, 53853, Control_c, 0, 64, 50
1, 53873, Control_c, 0, 64, 55
1, 53929, Control_c, 0, 64, 58
1, 53966, Control_c, 0, 64, 61
1, 53984, Control_c, 0, 64, 63
1, 54004, Control_c, 0, 64, 64
1, 54041, Control_c, 0, 64, 65
1, 54053, Note_on_c, 0, 76, 44
1, 54060, Control_c, 0, 64, 67
1, 54078, Control_c, 0, 64, 69
1, 54096, Control_c, 0, 64, 72
1, 54115, Control_c, 0, 64, 74
1, 54134, Control_c, 0, 64, 76
1, 54153, Control_c, 0, 64, 79
1, 54172, Control_c, 0, 64, 83
1, 54190, Control_c, 0, 64, 86
1, 54227, Control_c, 0, 64, 91
1, 54284, Control_c, 0, 64, 98
1, 54321, Note_on_c, 0, 74, 52
1, 54322, Control_c, 0, 64, 106
1, 54331, Note_off_c, 0, 76, 53
1, 54339, Control_c, 0, 64, 113
1, 54344, Note_off_c, 0, 72, 49
1, 54358, Note_off_c, 0, 48, 51
1, 54358, Control_c, 0, 64, 127
1, 54417, Note_off_c, 0, 60, 55
1, 54625, Note_on_c, 0, 72, 61
1, 54634, Note_on_c, 0, 76, 61
1, 54638, Control_c, 0, 64, 103
1, 54658, Control_c, 0, 64, 81
1, 54677, Note_off_c, 0, 74, 38
1, 54677, Control_c, 0, 64, 64
1, 54683, Note_off_c, 0, 67, 37
1, 54695, Control_c, 0, 64, 52
1, 54715, Control_c, 0, 64, 46
1, 54730, Note_off_c, 0, 77, 50
1, 54732, Control_c, 0, 64, 43
1, 54753, Control_c, 0, 64, 41
1, 54791, Control_c, 0, 64, 34
1, 54808, Control_c, 0, 64, 29
1, 54827, Control_c, 0, 64, 25
1, 54865, Control_c, 0, 64, 20
1, 55201, Note_on_c, 0, 77, 53
1, 55201, Control_c, 0, 64, 14
1, 55210, Note_on_c, 0, 60, 36
1, 55219, Control_c, 0, 64, 10
1, 55239, Note_off_c, 0, 76, 55
1, 55257, Control_c, 0, 64, 0
1, 55444, Control_c, 0, 64, 9
1, 55462, Control_c, 0, 64, 24
1, 55465, Note_on_c, 0, 76, 62
1, 55482, Control_c, 0, 64, 46
1, 55501, Control_c, 0, 64, 64
1, 55519, Control_c, 0, 64, 74
1, 55529, Note_off_c, 0, 60, 58
1, 55537, Control_c, 0, 64, 80
1, 55557, Control_c, 0, 64, 84
1, 55575, Control_c, 0, 64, 89
1, 55595, Control_c, 0, 64, 98
1, 55614, Control_c, 0, 64, 122
1, 55631, Control_c, 0, 64, 127
1, 55744, Control_c, 0, 64, 109
1, 55763, Control_c, 0, 64, 80
1, 55768, Note_on_c, 0, 74, 65
1, 55770, Note_off_c, 0, 77, 54
1, 55775, Note_on_c, 0, 67, 54
1, 55781, Control_c, 0, 64, 57
1, 55800, Control_c, 0, 64, 34
1, 55816, Note_off_c, 0, 76, 56
1, 55817, Control_c, 0, 64, 15
1, 55837, Control_c, 0, 64, 8
1, 56006, Control_c, 0, 64, 14
1, 56025, Control_c, 0, 64, 25
1, 56044, Control_c, 0, 64, 42
1, 56062, Control_c, 0, 64, 61
1, 56081, Control_c, 0, 64, 71
1, 56099, Control_c, 0, 64, 78
1, 56118, Control_c, 0, 64, 84
1, 56137, Control_c, 0, 64, 93
1, 56157, Control_c, 0, 64, 109
1, 56174, Control_c, 0, 64, 127
1, 56357, Note_on_c, 0, 71, 56
1, 56362, Control_c, 0, 64, 84
1, 56366, Note_on_c, 0, 65, 54
1, 56380, Control_c, 0, 64, 58
1, 56384, Note_off_c, 0, 72, 50
1, 56399, Control_c, 0, 64, 33
1, 56412, Note_off_c, 0, 67, 50
1, 56417, Control_c, 0, 64, 14
1, 56436, Control_c, 0, 64, 9
1, 56530, Control_c, 0, 64, 17
1, 56549, Control_c, 0, 64, 26
1, 56568, Control_c, 0, 64, 40
1, 56586, Control_c, 0, 64, 57
1, 56605, Control_c, 0, 64, 66
1, 56618, Note_on_c, 0, 69, 68
1, 56623, Control_c, 0, 64, 71
1, 56629, Note_off_c, 0, 71, 60
1, 56642, Control_c, 0, 64, 75
1, 56661, Control_c, 0, 64, 79
1, 56681, Control_c, 0, 64, 87
1, 56699, Control_c, 0, 64, 100
1, 56718, Control_c, 0, 64, 127
1, 56904, Control_c, 0, 64, 83
1, 56908, Note_on_c, 0, 79, 71
1, 56910, Note_off_c, 0, 69, 51
1, 56919, Note_off_c, 0, 65, 60
1, 56923, Control_c, 0, 64, 58
1, 56933, Note_on_c, 0, 71, 50
1, 56935, Note_on_c, 0, 64, 51
1, 56942, Control_c, 0, 64, 34
1, 56960, Note_off_c, 0, 74, 45
1, 56961, Control_c, 0, 64, 14
1, 57204, Control_c, 0, 64, 26
1, 57224, Control_c, 0, 64, 45
1, 57242, Control_c, 0, 64, 64
1, 57261, Control_c, 0, 64, 73
1, 57279, Control_c, 0, 64, 80
1, 57299, Control_c, 0, 64, 88
1, 57316, Control_c, 0, 64, 102
1, 57335, Control_c, 0, 64, 127
1, 57485, Control_c, 0, 64, 90
1, 57500, Note_on_c, 0, 72, 59
1, 57502, Control_c, 0, 64, 65
1, 57507, Note_on_c, 0, 62, 47
1, 57521, Control_c, 0, 64, 44
1, 57541, Control_c, 0, 64, 28
1, 57552, Note_off_c, 0, 64, 47
1, 57559, Control_c, 0, 64, 22
1, 57573, Note_off_c, 0, 71, 59
1, 57635, Control_c, 0, 64, 27
1, 57653, Control_c, 0, 64, 37
1, 57671, Control_c, 0, 64, 52
1, 57691, Control_c, 0, 64, 64
1, 57710, Control_c, 0, 64, 69
1, 57711, Control_c, 0, 67, 123
1, 57728, Control_c, 0, 64, 72
1, 57744, Note_on_c, 0, 71, 69
1, 57746, Control_c, 0, 64, 76
1, 57766, Control_c, 0, 64, 83
1, 57784, Control_c, 0, 64, 99
1, 57788, Note_off_c, 0, 72, 56
1, 57804, Control_c, 0, 64, 127
1, 57861, Note_off_c, 0, 62, 60
1, 58065, Control_c, 0, 64, 84
1, 58067, Note_on_c, 0, 69, 72
1, 58071, Note_on_c, 0, 61, 56
1, 58085, Control_c, 0, 64, 58
1, 58101, Note_off_c, 0, 71, 62
1, 58103, Control_c, 0, 64, 32
1, 58103, Control_c, 0, 67, 119
1, 58121, Control_c, 0, 64, 12
1, 58234, Control_c, 0, 64, 30
1, 58252, Control_c, 0, 64, 51
1, 58271, Control_c, 0, 64, 68
1, 58290, Control_c, 0, 64, 76
1, 58308, Control_c, 0, 64, 80
1, 58322, Note_off_c, 0, 61, 59
1, 58325, Control_c, 0, 64, 84
1, 58345, Control_c, 0, 64, 92
1, 58366, Control_c, 0, 64, 110
1, 58366, Control_c, 0, 67, 115
1, 58383, Control_c, 0, 64, 127
1, 58570, Control_c, 0, 67, 110
1, 58589, Control_c, 0, 67, 103
1, 58608, Control_c, 0, 67, 97
1, 58627, Control_c, 0, 67, 93
1, 58638, Note_on_c, 0, 77, 69
1, 58645, Control_c, 0, 64, 83
1, 58652, Note_on_c, 0, 57, 50
1, 58664, Control_c, 0, 64, 57
1, 58684, Control_c, 0, 64, 30
1, 58685, Control_c, 0, 67, 89
1, 58702, Control_c, 0, 64, 10
1, 58795, Control_c, 0, 64, 17
1, 58814, Control_c, 0, 64, 31
1, 58833, Control_c, 0, 64, 51
1, 58851, Control_c, 0, 64, 67
1, 58870, Control_c, 0, 64, 75
1, 58890, Control_c, 0, 64, 79
1, 58896, Note_on_c, 0, 76, 72
1, 58907, Control_c, 0, 64, 85
1, 58925, Control_c, 0, 64, 96
1, 58946, Control_c, 0, 64, 127
1, 58947, Control_c, 0, 67, 81
1, 58954, Note_off_c, 0, 77, 57
1, 58962, Control_c, 0, 67, 77
1, 58963, Note_off_c, 0, 79, 59
1, 58981, Control_c, 0, 67, 73
1, 58987, Note_off_c, 0, 57, 62
1, 59001, Control_c, 0, 67, 69
1, 59039, Control_c, 0, 67, 64
1, 59206, Control_c, 0, 64, 87
1, 59207, Note_on_c, 0, 77, 71
1, 59212, Note_on_c, 0, 74, 71
1, 59226, Control_c, 0, 64, 60
1, 59244, Control_c, 0, 64, 33
1, 59251, Note_off_c, 0, 69, 52
1, 59263, Control_c, 0, 64, 11
1, 59264, Control_c, 0, 67, 59
1, 59270, Note_off_c, 0, 76, 52
1, 59357, Control_c, 0, 67, 51
1, 59375, Control_c, 0, 67, 45
1, 59394, Control_c, 0, 67, 39
1, 59412, Control_c, 0, 67, 33
1, 59432, Control_c, 0, 64, 24
1, 59433, Control_c, 0, 67, 26
1, 59450, Control_c, 0, 64, 44
1, 59450, Control_c, 0, 67, 18
1, 59468, Control_c, 0, 64, 65
1, 59469, Control_c, 0, 67, 9
1, 59488, Control_c, 0, 64, 79
1, 59507, Control_c, 0, 64, 89
1, 59525, Control_c, 0, 64, 94
1, 59544, Control_c, 0, 64, 98
1, 59562, Control_c, 0, 64, 108
1, 59581, Control_c, 0, 64, 127
1, 59768, Control_c, 0, 64, 103
1, 59787, Control_c, 0, 64, 75
1, 59793, Note_on_c, 0, 79, 73
1, 59801, Note_on_c, 0, 62, 52
1, 59806, Control_c, 0, 64, 53
1, 59821, Note_off_c, 0, 77, 55
1, 59824, Control_c, 0, 64, 34
1, 59843, Control_c, 0, 64, 22
1, 59918, Control_c, 0, 64, 30
1, 59937, Control_c, 0, 64, 45
1, 59956, Control_c, 0, 64, 64
1, 59975, Control_c, 0, 64, 75
1, 59992, Control_c, 0, 64, 81
1, 60012, Control_c, 0, 64, 83
1, 60031, Control_c, 0, 64, 86
1, 60049, Control_c, 0, 64, 95
1, 60061, Note_on_c, 0, 77, 76
1, 60068, Control_c, 0, 64, 117
1, 60087, Control_c, 0, 64, 127
1, 60129, Note_off_c, 0, 62, 61
1, 60349, Control_c, 0, 64, 109
1, 60367, Control_c, 0, 64, 76
1, 60370, Note_on_c, 0, 76, 72
1, 60380, Note_on_c, 0, 69, 66
1, 60385, Control_c, 0, 64, 50
1, 60405, Control_c, 0, 64, 25
1, 60417, Note_off_c, 0, 79, 33
1, 60424, Control_c, 0, 64, 9
1, 60443, Note_off_c, 0, 77, 54
1, 60536, Control_c, 0, 64, 15
1, 60556, Control_c, 0, 64, 28
1, 60573, Control_c, 0, 64, 46
1, 60591, Control_c, 0, 64, 64
1, 60610, Control_c, 0, 64, 75
1, 60630, Control_c, 0, 64, 84
1, 60648, Control_c, 0, 64, 95
1, 60668, Control_c, 0, 64, 118
1, 60685, Control_c, 0, 64, 127
1, 60948, Note_on_c, 0, 72, 64
1, 60948, Control_c, 0, 64, 83
1, 60950, Note_on_c, 0, 67, 64
1, 60967, Control_c, 0, 64, 56
1, 60985, Control_c, 0, 64, 30
1, 60991, Note_off_c, 0, 74, 52
1, 61004, Control_c, 0, 64, 14
1, 61006, Note_off_c, 0, 69, 52
1, 61098, Control_c, 0, 64, 25
1, 61116, Control_c, 0, 64, 40
1, 61134, Control_c, 0, 64, 60
1, 61154, Control_c, 0, 64, 74
1, 61172, Control_c, 0, 64, 84
1, 61191, Control_c, 0, 64, 95
1, 61204, Note_on_c, 0, 71, 74
1, 61210, Control_c, 0, 64, 112
1, 61221, Note_off_c, 0, 72, 61
1, 61227, Control_c, 0, 64, 127
1, 61247, Control_c, 0, 67, 0
1, 61510, Control_c, 0, 64, 118
1, 61514, Note_on_c, 0, 81, 78
1, 61527, Control_c, 0, 64, 76
1, 61531, Note_on_c, 0, 66, 59
1, 61533, Note_off_c, 0, 67, 60
1, 61541, Note_on_c, 0, 72, 53
1, 61544, Note_off_c, 0, 71, 52
1, 61545, Control_c, 0, 64, 47
1, 61564, Note_off_c, 0, 76, 48
1, 61566, Control_c, 0, 64, 16
1, 61584, Control_c, 0, 64, 0
1, 61734, Control_c, 0, 64, 14
1, 61752, Control_c, 0, 64, 30
1, 61773, Control_c, 0, 64, 56
1, 61789, Control_c, 0, 64, 79
1, 61809, Control_c, 0, 64, 108
1, 61829, Control_c, 0, 64, 127
1, 62104, Note_on_c, 0, 74, 74
1, 62109, Control_c, 0, 64, 95
1, 62110, Note_off_c, 0, 66, 59
1, 62125, Note_on_c, 0, 64, 57
1, 62126, Control_c, 0, 64, 64
1, 62146, Control_c, 0, 64, 38
1, 62164, Control_c, 0, 64, 24
1, 62191, Note_off_c, 0, 72, 59
1, 62221, Control_c, 0, 64, 43
1, 62239, Control_c, 0, 64, 68
1, 62258, Control_c, 0, 64, 93
1, 62276, Control_c, 0, 64, 127
1, 62365, Note_on_c, 0, 72, 78
1, 62419, Note_off_c, 0, 74, 59
1, 62669, Control_c, 0, 64, 86
1, 62680, Note_on_c, 0, 71, 80
1, 62683, Note_on_c, 0, 63, 61
1, 62688, Control_c, 0, 64, 51
1, 62695, Note_off_c, 0, 64, 57
1, 62707, Control_c, 0, 64, 9
1, 62716, Note_off_c, 0, 72, 61
1, 62724, Control_c, 0, 64, 0
1, 62800, Control_c, 0, 64, 10
1, 62820, Control_c, 0, 64, 37
1, 62838, Control_c, 0, 64, 73
1, 62856, Control_c, 0, 64, 127
1, 62953, Note_off_c, 0, 63, 62
1, 63286, Note_on_c, 0, 79, 79
1, 63287, Control_c, 0, 64, 81
1, 63303, Note_on_c, 0, 59, 47
1, 63305, Control_c, 0, 64, 44
1, 63324, Control_c, 0, 64, 0
1, 63418, Control_c, 0, 64, 10
1, 63438, Control_c, 0, 64, 40
1, 63456, Control_c, 0, 64, 78
1, 63474, Control_c, 0, 64, 127
1, 63555, Note_on_c, 0, 78, 84
1, 63615, Note_off_c, 0, 81, 61
1, 63622, Note_off_c, 0, 59, 61
1, 63623, Note_off_c, 0, 79, 62
1, 63855, Note_on_c, 0, 79, 76
1, 63865, Note_on_c, 0, 76, 80
1, 63867, Control_c, 0, 64, 91
1, 63886, Control_c, 0, 64, 53
1, 63890, Note_off_c, 0, 71, 53
1, 63924, Control_c, 0, 64, 0
1, 63928, Note_off_c, 0, 78, 61
1, 64093, Control_c, 0, 64, 20
1, 64111, Control_c, 0, 64, 61
1, 64130, Control_c, 0, 64, 108
1, 64148, Control_c, 0, 64, 127
1, 64453, Note_on_c, 0, 81, 80
1, 64464, Note_on_c, 0, 64, 62
1, 64466, Control_c, 0, 64, 111
1, 64486, Control_c, 0, 64, 67
1, 64490, Note_off_c, 0, 79, 62
1, 64504, Control_c, 0, 64, 29
1, 64523, Control_c, 0, 64, 0
1, 64560, Control_c, 0, 64, 12
1, 64580, Control_c, 0, 64, 44
1, 64597, Control_c, 0, 64, 87
1, 64616, Control_c, 0, 64, 127
1, 64719, Note_on_c, 0, 79, 82
1, 64806, Note_off_c, 0, 64, 61
1, 65030, Note_off_c, 0, 81, 23
1, 65046, Note_on_c, 0, 78, 81
1, 65047, Control_c, 0, 64, 73
1, 65065, Control_c, 0, 64, 37
1, 65067, Note_on_c, 0, 71, 71
1, 65084, Control_c, 0, 64, 0
1, 65132, Note_off_c, 0, 79, 59
1, 65253, Control_c, 0, 64, 17
1, 65271, Control_c, 0, 64, 38
1, 65290, Control_c, 0, 64, 62
1, 65309, Control_c, 0, 64, 75
1, 65328, Control_c, 0, 64, 85
1, 65346, Control_c, 0, 64, 94
1, 65365, Control_c, 0, 64, 109
1, 65384, Control_c, 0, 64, 127
1, 65721, Control_c, 0, 64, 80
1, 65729, Note_on_c, 0, 74, 72
1, 65739, Control_c, 0, 64, 50
1, 65747, Note_on_c, 0, 69, 56
1, 65759, Control_c, 0, 64, 19
1, 65790, Note_off_c, 0, 71, 52
1, 65833, Control_c, 0, 64, 10
1, 65853, Control_c, 0, 64, 30
1, 65870, Control_c, 0, 64, 60
1, 65890, Control_c, 0, 64, 86
1, 65908, Control_c, 0, 64, 127
1, 66024, Note_on_c, 0, 72, 74
1, 66030, Note_off_c, 0, 74, 60
1, 66370, Note_on_c, 0, 83, 82
1, 66376, Control_c, 0, 64, 91
1, 66394, Note_off_c, 0, 69, 58
1, 66395, Control_c, 0, 64, 57
1, 66399, Note_off_c, 0, 76, 59
1, 66404, Note_on_c, 0, 74, 67
1, 66407, Note_on_c, 0, 68, 44
1, 66413, Control_c, 0, 64, 23
1, 66428, Note_off_c, 0, 72, 58
1, 66451, Control_c, 0, 64, 0
1, 66454, Note_off_c, 0, 78, 59
1, 66693, Control_c, 0, 64, 22
1, 66713, Control_c, 0, 64, 49
1, 66732, Control_c, 0, 64, 73
1, 66750, Control_c, 0, 64, 92
1, 66769, Control_c, 0, 64, 127
1, 67205, Note_on_c, 0, 76, 69
1, 67215, Note_on_c, 0, 64, 44
1, 67217, Control_c, 0, 64, 105
1, 67237, Control_c, 0, 64, 68
1, 67256, Control_c, 0, 64, 37
1, 67258, Note_off_c, 0, 68, 43
1, 67274, Control_c, 0, 64, 11
1, 67277, Note_off_c, 0, 74, 57
1, 67349, Control_c, 0, 64, 17
1, 67368, Control_c, 0, 64, 44
1, 67386, Control_c, 0, 64, 78
1, 67405, Control_c, 0, 64, 127
1, 67526, Note_on_c, 0, 74, 80
1, 67586, Note_off_c, 0, 76, 59
1, 67855, Control_c, 0, 64, 99
1, 67862, Note_on_c, 0, 72, 65
1, 67873, Control_c, 0, 64, 67
1, 67891, Note_on_c, 0, 69, 54
1, 67891, Control_c, 0, 64, 36
1, 67906, Note_off_c, 0, 64, 53
1, 67912, Note_off_c, 0, 74, 61
1, 67930, Control_c, 0, 64, 0
1, 68117, Control_c, 0, 64, 15
1, 68135, Control_c, 0, 64, 32
1, 68154, Control_c, 0, 64, 55
1, 68174, Control_c, 0, 64, 71
1, 68192, Control_c, 0, 64, 83
1, 68209, Control_c, 0, 64, 103
1, 68228, Control_c, 0, 64, 127
1, 68459, Note_on_c, 0, 81, 73
1, 68472, Control_c, 0, 64, 77
1, 68479, Note_on_c, 0, 67, 44
1, 68491, Control_c, 0, 64, 45
1, 68510, Control_c, 0, 64, 10
1, 68528, Control_c, 0, 64, 0
1, 68545, Note_off_c, 0, 69, 54
1, 68622, Control_c, 0, 64, 17
1, 68642, Control_c, 0, 64, 44
1, 68661, Control_c, 0, 64, 73
1, 68678, Control_c, 0, 64, 100
1, 68698, Control_c, 0, 64, 127
1, 68743, Note_on_c, 0, 79, 78
1, 68807, Note_off_c, 0, 83, 58
1, 68838, Note_off_c, 0, 81, 62
1, 69053, Control_c, 0, 64, 114
1, 69065, Note_on_c, 0, 81, 76
1, 69070, Control_c, 0, 64, 71
1, 69089, Control_c, 0, 64, 38
1, 69110, Note_on_c, 0, 66, 43
1, 69111, Note_off_c, 0, 79, 63
1, 69123, Note_off_c, 0, 67, 52
1, 69126, Control_c, 0, 64, 0
1, 69221, Control_c, 0, 64, 28
1, 69240, Control_c, 0, 64, 62
1, 69259, Control_c, 0, 64, 102
1, 69277, Control_c, 0, 64, 127
1, 69664, Note_on_c, 0, 74, 62
1, 69689, Control_c, 0, 64, 76
1, 69703, Note_off_c, 0, 66, 54
1, 69703, Note_on_c, 0, 64, 43
1, 69707, Control_c, 0, 64, 44
1, 69726, Control_c, 0, 64, 13
1, 69774, Note_off_c, 0, 72, 57
1, 69802, Control_c, 0, 64, 36
1, 69819, Control_c, 0, 64, 67
1, 69839, Control_c, 0, 64, 98
1, 69858, Control_c, 0, 64, 127
1, 69961, Note_on_c, 0, 72, 64
1, 70008, Note_off_c, 0, 74, 58
1, 70271, Control_c, 0, 64, 94
1, 70288, Control_c, 0, 64, 63
1, 70298, Note_on_c, 0, 71, 60
1, 70308, Control_c, 0, 64, 32
1, 70320, Note_on_c, 0, 63, 41
1, 70324, Note_off_c, 0, 72, 56
1, 70328, Note_off_c, 0, 64, 51
1, 70344, Control_c, 0, 64, 0
1, 70494, Control_c, 0, 64, 18
1, 70512, Control_c, 0, 64, 39
1, 70531, Control_c, 0, 64, 63
1, 70549, Control_c, 0, 64, 82
1, 70568, Control_c, 0, 64, 110
1, 70588, Control_c, 0, 64, 127
1, 70887, Control_c, 0, 64, 95
1, 70895, Note_on_c, 0, 59, 45
1, 70905, Control_c, 0, 64, 60
1, 70909, Note_on_c, 0, 79, 60
1, 70925, Control_c, 0, 64, 24
1, 70944, Control_c, 0, 64, 0
1, 70947, Note_off_c, 0, 63, 36
1, 71055, Control_c, 0, 64, 10
1, 71075, Control_c, 0, 64, 21
1, 71092, Control_c, 0, 64, 40
1, 71113, Control_c, 0, 64, 63
1, 71130, Control_c, 0, 64, 82
1, 71149, Control_c, 0, 64, 127
1, 71185, Note_on_c, 0, 78, 70
1, 71224, Note_off_c, 0, 81, 62
1, 71240, Note_off_c, 0, 79, 60
1, 71505, Control_c, 0, 64, 86
1, 71518, Note_on_c, 0, 79, 51
1, 71524, Control_c, 0, 64, 54
1, 71532, Note_off_c, 0, 59, 57
1, 71542, Control_c, 0, 64, 21
1, 71552, Note_off_c, 0, 78, 61
1, 71558, Note_on_c, 0, 64, 35
1, 71560, Control_c, 0, 64, 0
1, 71692, Control_c, 0, 64, 11
1, 71710, Control_c, 0, 64, 27
1, 71730, Control_c, 0, 64, 51
1, 71748, Control_c, 0, 64, 72
1, 71767, Control_c, 0, 64, 88
1, 71786, Control_c, 0, 64, 116
1, 71804, Control_c, 0, 64, 127
1, 72104, Control_c, 0, 64, 103
1, 72122, Control_c, 0, 64, 67
1, 72129, Note_on_c, 0, 62, 40
1, 72133, Note_on_c, 0, 72, 46
1, 72141, Control_c, 0, 64, 34
1, 72168, Note_off_c, 0, 64, 38
1, 72169, Note_off_c, 0, 71, 52
1, 72177, Control_c, 0, 64, 0
1, 72234, Control_c, 0, 64, 13
1, 72253, Control_c, 0, 64, 39
1, 72272, Control_c, 0, 64, 69
1, 72291, Control_c, 0, 64, 98
1, 72309, Control_c, 0, 64, 127
1, 72437, Note_on_c, 0, 71, 52
1, 72477, Note_off_c, 0, 72, 51
1, 72609, Control_c, 0, 67, 9
1, 72646, Control_c, 0, 67, 14
1, 72684, Control_c, 0, 67, 19
1, 72721, Control_c, 0, 67, 26
1, 72758, Control_c, 0, 67, 32
1, 72797, Control_c, 0, 64, 115
1, 72815, Note_on_c, 0, 69, 56
1, 72816, Control_c, 0, 64, 75
1, 72818, Control_c, 0, 67, 37
1, 72821, Note_off_c, 0, 62, 43
1, 72833, Control_c, 0, 64, 43
1, 72838, Note_on_c, 0, 61, 35
1, 72853, Control_c, 0, 67, 41
1, 72870, Note_off_c, 0, 71, 55
1, 72871, Control_c, 0, 64, 0
1, 72889, Control_c, 0, 67, 47
1, 72908, Control_c, 0, 67, 51
1, 72927, Control_c, 0, 67, 57
1, 72948, Control_c, 0, 67, 65
1, 72964, Control_c, 0, 67, 72
1, 72984, Control_c, 0, 64, 19
1, 72985, Control_c, 0, 67, 76
1, 73002, Control_c, 0, 64, 37
1, 73021, Control_c, 0, 64, 59
1, 73039, Control_c, 0, 64, 70
1, 73058, Control_c, 0, 64, 74
1, 73096, Control_c, 0, 64, 76
1, 73097, Control_c, 0, 67, 80
1, 73115, Control_c, 0, 64, 81
1, 73133, Control_c, 0, 64, 91
1, 73135, Control_c, 0, 67, 88
1, 73152, Control_c, 0, 64, 103
1, 73171, Control_c, 0, 64, 118
1, 73172, Control_c, 0, 67, 94
1, 73189, Control_c, 0, 64, 127
1, 73320, Control_c, 0, 67, 98
1, 73415, Control_c, 0, 64, 103
1, 73432, Control_c, 0, 64, 71
1, 73436, Note_on_c, 0, 63, 46
1, 73436, Control_c, 0, 67, 102
1, 73452, Control_c, 0, 64, 47
1, 73453, Control_c, 0, 67, 106
1, 73470, Control_c, 0, 64, 40
1, 73472, Control_c, 0, 67, 110
1, 73490, Control_c, 0, 64, 48
1, 73492, Control_c, 0, 67, 114
1, 73507, Control_c, 0, 64, 63
1, 73527, Control_c, 0, 64, 81
1, 73529, Control_c, 0, 67, 122
1, 73546, Control_c, 0, 64, 127
1, 73548, Control_c, 0, 67, 126
1, 73581, Note_off_c, 0, 61, 30
1, 73708, Note_off_c, 0, 63, 57
1, 73723, Note_on_c, 0, 64, 48
1, 73778, Note_off_c, 0, 64, 59
1, 73909, Note_on_c, 0, 63, 59
1, 73957, Note_off_c, 0, 63, 60
1, 73974, Note_on_c, 0, 78, 61
1, 74014, Control_c, 0, 64, 101
1, 74030, Note_on_c, 0, 64, 40
1, 74031, Control_c, 0, 64, 74
1, 74051, Control_c, 0, 64, 53
1, 74063, Note_off_c, 0, 79, 59
1, 74068, Control_c, 0, 64, 35
1, 74072, Note_on_c, 0, 63, 53
1, 74088, Control_c, 0, 64, 22
1, 74107, Control_c, 0, 64, 17
1, 74146, Note_off_c, 0, 64, 37
1, 74387, Control_c, 0, 64, 25
1, 74406, Control_c, 0, 64, 34
1, 74425, Control_c, 0, 64, 46
1, 74443, Control_c, 0, 64, 56
1, 74463, Control_c, 0, 64, 61
1, 74481, Control_c, 0, 64, 63
1, 74500, Control_c, 0, 64, 64
1, 74518, Control_c, 0, 64, 67
1, 74537, Control_c, 0, 64, 71
1, 74556, Control_c, 0, 64, 76
1, 74574, Control_c, 0, 64, 82
1, 74593, Control_c, 0, 64, 87
1, 74612, Control_c, 0, 64, 92
1, 74631, Control_c, 0, 64, 96
1, 74650, Control_c, 0, 64, 101
1, 74669, Control_c, 0, 64, 110
1, 74686, Control_c, 0, 64, 127
1, 74688, Note_on_c, 0, 61, 48
1, 74708, Note_off_c, 0, 63, 55
1, 74836, Control_c, 0, 67, 121
1, 74855, Control_c, 0, 67, 113
1, 74874, Control_c, 0, 67, 103
1, 74893, Control_c, 0, 67, 85
1, 74912, Control_c, 0, 67, 60
1, 74930, Control_c, 0, 67, 26
1, 74940, Note_off_c, 0, 61, 60
1, 74949, Control_c, 0, 67, 0
1, 74966, Note_on_c, 0, 63, 57
1, 75013, Note_off_c, 0, 69, 57
1, 75033, Note_off_c, 0, 63, 59
1, 75361, Note_on_c, 0, 67, 79
1, 75366, Note_on_c, 0, 71, 77
1, 75374, Note_on_c, 0, 64, 86
1, 75375, Note_on_c, 0, 52, 79
1, 75380, Note_on_c, 0, 59, 80
1, 75380, Control_c, 0, 64, 73
1, 75398, Control_c, 0, 64, 33
1, 75417, Control_c, 0, 64, 0
1, 75983, Note_on_c, 0, 76, 75
1, 76109, Control_c, 0, 64, 12
1, 76129, Control_c, 0, 64, 30
1, 76147, Control_c, 0, 64, 49
1, 76166, Control_c, 0, 64, 65
1, 76184, Control_c, 0, 64, 80
1, 76204, Control_c, 0, 64, 113
1, 76222, Control_c, 0, 64, 127
1, 76236, Note_on_c, 0, 75, 81
1, 76270, Note_off_c, 0, 71, 58
1, 76292, Note_off_c, 0, 76, 60
1, 76310, Note_off_c, 0, 67, 60
1, 76320, Note_off_c, 0, 78, 56
1, 76347, Note_off_c, 0, 75, 63
1, 76554, Note_on_c, 0, 76, 80
1, 76558, Control_c, 0, 64, 77
1, 76570, Note_on_c, 0, 67, 68
1, 76576, Control_c, 0, 64, 36
1, 76577, Note_on_c, 0, 72, 68
1, 76596, Control_c, 0, 64, 0
1, 76690, Control_c, 0, 64, 15
1, 76708, Control_c, 0, 64, 50
1, 76727, Control_c, 0, 64, 84
1, 76746, Control_c, 0, 64, 127
1, 76843, Note_off_c, 0, 59, 60
1, 76844, Note_off_c, 0, 64, 60
1, 76863, Note_off_c, 0, 52, 58
1, 77110, Note_on_c, 0, 57, 86
1, 77195, Note_off_c, 0, 57, 62
1, 77277, Note_off_c, 0, 67, 57
1, 77370, Note_on_c, 0, 55, 94
1, 77440, Note_off_c, 0, 55, 64
1, 77691, Note_on_c, 0, 54, 85
1, 77694, Note_on_c, 0, 57, 83
1, 77705, Note_on_c, 0, 69, 74
1, 77705, Note_on_c, 0, 50, 77
1, 77706, Note_on_c, 0, 78, 82
1, 77719, Control_c, 0, 64, 87
1, 77738, Control_c, 0, 64, 51
1, 77775, Control_c, 0, 64, 0
1, 77999, Control_c, 0, 64, 20
1, 78019, Control_c, 0, 64, 46
1, 78037, Control_c, 0, 64, 65
1, 78056, Control_c, 0, 64, 76
1, 78075, Control_c, 0, 64, 96
1, 78093, Control_c, 0, 64, 127
1, 78172, Note_off_c, 0, 69, 56
1, 78303, Note_on_c, 0, 67, 83
1, 78324, Note_off_c, 0, 76, 62
1, 78387, Note_off_c, 0, 72, 58
1, 78419, Note_off_c, 0, 78, 63
1, 78878, Note_on_c, 0, 66, 71
1, 78879, Note_on_c, 0, 71, 75
1, 78879, Control_c, 0, 64, 114
1, 78882, Note_on_c, 0, 59, 71
1, 78898, Control_c, 0, 64, 69
1, 78917, Control_c, 0, 64, 29
1, 78936, Control_c, 0, 64, 0
1, 78938, Note_off_c, 0, 67, 55
1, 78945, Note_off_c, 0, 57, 54
1, 79030, Control_c, 0, 64, 26
1, 79047, Control_c, 0, 64, 56
1, 79068, Control_c, 0, 64, 81
1, 79085, Control_c, 0, 64, 122
1, 79105, Control_c, 0, 64, 127
1, 79113, Note_off_c, 0, 54, 58
1, 79433, Note_on_c, 0, 52, 78
1, 79476, Note_off_c, 0, 59, 47
1, 79500, Note_off_c, 0, 50, 58
1, 79683, Note_on_c, 0, 54, 86
1, 79702, Note_off_c, 0, 52, 58
1, 79955, Note_off_c, 0, 54, 64
1, 79993, Note_on_c, 0, 55, 79
1, 79994, Note_on_c, 0, 60, 81
1, 79995, Note_on_c, 0, 64, 79
1, 79997, Note_on_c, 0, 48, 78
1, 80022, Control_c, 0, 64, 70
1, 80038, Note_off_c, 0, 66, 63
1, 80039, Control_c, 0, 64, 28
1, 80059, Control_c, 0, 64, 0
1, 80580, Note_on_c, 0, 76, 82
1, 80639, Control_c, 0, 64, 14
1, 80643, Note_off_c, 0, 71, 62
1, 80658, Control_c, 0, 64, 55
1, 80678, Control_c, 0, 64, 87
1, 80695, Control_c, 0, 64, 127
1, 80836, Note_on_c, 0, 75, 82
1, 80895, Note_off_c, 0, 76, 62
1, 80926, Note_off_c, 0, 60, 58
1, 81135, Note_on_c, 0, 69, 68
1, 81139, Note_on_c, 0, 76, 81
1, 81152, Note_on_c, 0, 57, 67
1, 81157, Note_off_c, 0, 55, 61
1, 81162, Control_c, 0, 64, 70
1, 81182, Control_c, 0, 64, 29
1, 81197, Note_off_c, 0, 75, 63
1, 81200, Control_c, 0, 64, 0
1, 81351, Control_c, 0, 64, 17
1, 81371, Control_c, 0, 64, 34
1, 81388, Control_c, 0, 64, 54
1, 81395, Note_on_c, 0, 55, 71
1, 81407, Control_c, 0, 64, 70
1, 81425, Control_c, 0, 64, 88
1, 81444, Control_c, 0, 64, 127
1, 81451, Note_off_c, 0, 57, 62
1, 81470, Note_off_c, 0, 64, 61
1, 81686, Note_on_c, 0, 66, 77
1, 81688, Note_on_c, 0, 54, 69
1, 81707, Control_c, 0, 64, 81
1, 81723, Note_off_c, 0, 55, 58
1, 81724, Control_c, 0, 64, 46
1, 81763, Control_c, 0, 64, 0
1, 81800, Control_c, 0, 64, 27
1, 81818, Control_c, 0, 64, 60
1, 81839, Control_c, 0, 64, 93
1, 81855, Control_c, 0, 64, 127
1, 81924, Note_off_c, 0, 48, 60
1, 81952, Note_on_c, 0, 52, 71
1, 82161, Note_off_c, 0, 66, 53
1, 82218, Note_off_c, 0, 54, 60
1, 82225, Note_on_c, 0, 47, 62
1, 82229, Control_c, 0, 64, 116
1, 82234, Note_on_c, 0, 71, 68
1, 82239, Note_on_c, 0, 67, 58
1, 82248, Control_c, 0, 64, 75
1, 82257, Note_off_c, 0, 69, 53
1, 82267, Control_c, 0, 64, 47
1, 82287, Control_c, 0, 64, 20
1, 82342, Control_c, 0, 64, 0
1, 82504, Note_on_c, 0, 55, 71
1, 82573, Poly_aftertouch_c, 0, 72, 0
1, 82576, Note_off_c, 0, 52, 59
1, 82781, Note_on_c, 0, 54, 74
1, 82835, Note_off_c, 0, 55, 60
1, 82941, Control_c, 0, 64, 10
1, 82962, Control_c, 0, 64, 18
1, 82979, Control_c, 0, 64, 34
1, 82998, Control_c, 0, 64, 54
1, 83018, Control_c, 0, 64, 69
1, 83035, Control_c, 0, 64, 81
1, 83045, Note_on_c, 0, 52, 75
1, 83054, Control_c, 0, 64, 99
1, 83073, Control_c, 0, 64, 127
1, 83106, Note_off_c, 0, 54, 55
1, 83172, Note_off_c, 0, 67, 54
1, 83365, Note_on_c, 0, 75, 73
1, 83373, Note_on_c, 0, 59, 62
1, 83374, Note_on_c, 0, 66, 69
1, 83392, Control_c, 0, 64, 86
1, 83399, Poly_aftertouch_c, 0, 54, 0
1, 83408, Note_off_c, 0, 52, 37
1, 83408, Control_c, 0, 64, 57
1, 83428, Control_c, 0, 64, 19
1, 83447, Control_c, 0, 64, 0
1, 83494, Note_off_c, 0, 76, 57
1, 83954, Control_c, 0, 64, 17
1, 83971, Control_c, 0, 64, 45
1, 83989, Control_c, 0, 64, 71
1, 83990, Note_on_c, 0, 45, 70
1, 84009, Control_c, 0, 64, 95
1, 84027, Control_c, 0, 64, 127
1, 84040, Note_off_c, 0, 47, 61
1, 84150, Note_off_c, 0, 59, 60
1, 84154, Note_off_c, 0, 71, 59
1, 84216, Note_off_c, 0, 66, 59
1, 84607, Control_c, 0, 64, 114
1, 84619, Note_on_c, 0, 76, 77
1, 84626, Control_c, 0, 64, 74
1, 84632, Note_off_c, 0, 45, 61
1, 84638, Note_on_c, 0, 52, 59
1, 84641, Note_on_c, 0, 43, 56
1, 84644, Control_c, 0, 64, 44
1, 84648, Note_on_c, 0, 64, 44
1, 84649, Note_on_c, 0, 71, 49
1, 84651, Note_on_c, 0, 47, 56
1, 84665, Control_c, 0, 64, 16
1, 84682, Control_c, 0, 64, 0
1, 84700, Note_off_c, 0, 75, 47
1, 85204, Note_on_c, 0, 74, 80
1, 85356, Control_c, 0, 64, 10
1, 85376, Control_c, 0, 64, 25
1, 85394, Control_c, 0, 64, 53
1, 85412, Control_c, 0, 64, 79
1, 85433, Control_c, 0, 64, 127
1, 85453, Note_on_c, 0, 72, 81
1, 85515, Note_off_c, 0, 71, 62
1, 85525, Note_off_c, 0, 76, 60
1, 85540, Note_off_c, 0, 47, 56
1, 85545, Note_off_c, 0, 52, 55
1, 85550, Note_off_c, 0, 64, 59
1, 85571, Note_off_c, 0, 74, 54
1, 85774, Note_on_c, 0, 74, 79
1, 85792, Note_off_c, 0, 43, 61
1, 85792, Note_on_c, 0, 47, 55
1, 85797, Note_on_c, 0, 52, 62
1, 85798, Note_on_c, 0, 71, 53
1, 85800, Note_on_c, 0, 64, 49
1, 85803, Note_on_c, 0, 44, 67
1, 85804, Control_c, 0, 64, 86
1, 85824, Control_c, 0, 64, 52
1, 85844, Control_c, 0, 64, 9
1, 85856, Note_off_c, 0, 72, 45
1, 85861, Control_c, 0, 64, 0
1, 86337, Note_on_c, 0, 72, 80
1, 86365, Note_off_c, 0, 71, 61
1, 86442, Control_c, 0, 64, 16
1, 86461, Control_c, 0, 64, 44
1, 86479, Control_c, 0, 64, 74
1, 86498, Control_c, 0, 64, 116
1, 86518, Control_c, 0, 64, 127
1, 86608, Note_on_c, 0, 71, 79
1, 86634, Note_off_c, 0, 74, 60
1, 86659, Note_off_c, 0, 72, 58
1, 86687, Note_off_c, 0, 64, 58
1, 86872, Control_c, 0, 64, 107
1, 86888, Note_on_c, 0, 72, 71
1, 86890, Note_on_c, 0, 64, 53
1, 86891, Control_c, 0, 64, 68
1, 86910, Control_c, 0, 64, 34
1, 86912, Note_on_c, 0, 45, 50
1, 86915, Note_off_c, 0, 71, 56
1, 86929, Control_c, 0, 64, 0
1, 86932, Note_off_c, 0, 44, 52
1, 86959, Note_off_c, 0, 47, 59
1, 86963, Note_off_c, 0, 52, 55
1, 87178, Note_on_c, 0, 50, 54
1, 87397, Control_c, 0, 64, 10
1, 87415, Control_c, 0, 64, 20
1, 87434, Control_c, 0, 64, 38
1, 87453, Control_c, 0, 64, 61
1, 87456, Note_on_c, 0, 48, 54
1, 87459, Note_on_c, 0, 69, 63
1, 87471, Control_c, 0, 64, 76
1, 87481, Note_off_c, 0, 50, 57
1, 87490, Control_c, 0, 64, 91
1, 87509, Control_c, 0, 64, 127
1, 87719, Note_on_c, 0, 68, 68
1, 87721, Note_on_c, 0, 47, 59
1, 87735, Note_off_c, 0, 48, 55
1, 87761, Note_off_c, 0, 45, 45
1, 87763, Note_off_c, 0, 69, 55
1, 87807, Note_off_c, 0, 47, 60
1, 88009, Note_on_c, 0, 45, 64
1, 88013, Note_on_c, 0, 69, 67
1, 88034, Control_c, 0, 64, 87
1, 88052, Control_c, 0, 64, 66
1, 88061, Note_off_c, 0, 68, 58
1, 88070, Control_c, 0, 64, 51
1, 88088, Control_c, 0, 64, 43
1, 88108, Control_c, 0, 64, 41
1, 88184, Control_c, 0, 64, 36
1, 88284, Note_on_c, 0, 43, 61
1, 88567, Note_on_c, 0, 42, 75
1, 88654, Note_off_c, 0, 43, 55
1, 88781, Control_c, 0, 64, 40
1, 88849, Note_on_c, 0, 40, 72
1, 88886, Note_off_c, 0, 42, 59
1, 88988, Control_c, 0, 64, 42
1, 89120, Control_c, 0, 64, 40
1, 89221, Note_on_c, 0, 39, 66
1, 89231, Control_c, 0, 64, 34
1, 89240, Note_on_c, 0, 66, 63
1, 89265, Note_off_c, 0, 45, 60
1, 89269, Control_c, 0, 64, 26
1, 89273, Note_off_c, 0, 40, 57
1, 89280, Control_c, 0, 64, 19
1, 89299, Control_c, 0, 64, 10
1, 89335, Note_off_c, 0, 64, 58
1, 89335, Control_c, 0, 64, 0
1, 89561, Control_c, 0, 64, 26
1, 89579, Control_c, 0, 64, 55
1, 89592, Note_off_c, 0, 72, 57
1, 89598, Control_c, 0, 64, 79
1, 89617, Control_c, 0, 64, 103
1, 89635, Control_c, 0, 64, 127
1, 89823, Control_c, 0, 64, 121
1, 89834, Note_on_c, 0, 42, 77
1, 89841, Control_c, 0, 64, 74
1, 89857, Note_on_c, 0, 71, 72
1, 89860, Control_c, 0, 64, 39
1, 89878, Control_c, 0, 64, 0
1, 89884, Note_off_c, 0, 69, 60
1, 89950, Note_off_c, 0, 66, 63
1, 89992, Control_c, 0, 64, 17
1, 90009, Control_c, 0, 64, 40
1, 90029, Control_c, 0, 64, 64
1, 90047, Control_c, 0, 64, 78
1, 90067, Control_c, 0, 64, 91
1, 90086, Control_c, 0, 64, 108
1, 90104, Control_c, 0, 64, 127
1, 90140, Note_on_c, 0, 69, 80
1, 90166, Note_off_c, 0, 42, 62
1, 90194, Note_off_c, 0, 71, 60
1, 90441, Control_c, 0, 64, 83
1, 90444, Note_on_c, 0, 47, 71
1, 90453, Note_on_c, 0, 71, 76
1, 90460, Control_c, 0, 64, 55
1, 90470, Note_off_c, 0, 69, 59
1, 90478, Control_c, 0, 64, 27
1, 90516, Control_c, 0, 64, 0
1, 90736, Note_on_c, 0, 69, 79
1, 91008, Note_on_c, 0, 67, 76
1, 91039, Control_c, 0, 64, 18
1, 91059, Control_c, 0, 64, 38
1, 91078, Control_c, 0, 64, 61
1, 91095, Control_c, 0, 64, 76
1, 91115, Control_c, 0, 64, 89
1, 91134, Control_c, 0, 64, 100
1, 91152, Control_c, 0, 64, 105
1, 91190, Control_c, 0, 64, 111
1, 91208, Control_c, 0, 64, 115
1, 91227, Control_c, 0, 64, 127
1, 91262, Note_on_c, 0, 66, 78
1, 91304, Note_off_c, 0, 67, 60
1, 91304, Note_off_c, 0, 71, 57
1, 91312, Note_off_c, 0, 69, 57
1, 91564, Control_c, 0, 64, 112
1, 91582, Note_on_c, 0, 67, 73
1, 91584, Control_c, 0, 64, 80
1, 91593, Note_on_c, 0, 40, 65
1, 91602, Note_off_c, 0, 39, 62
1, 91602, Control_c, 0, 64, 59
1, 91619, Control_c, 0, 64, 42
1, 91623, Note_off_c, 0, 66, 61
1, 91639, Control_c, 0, 64, 35
1, 91679, Note_off_c, 0, 47, 60
1, 91695, Control_c, 0, 64, 30
1, 91732, Control_c, 0, 64, 25
1, 91861, Note_on_c, 0, 66, 68
1, 91901, Control_c, 0, 64, 20
1, 91956, Control_c, 0, 64, 15
1, 92012, Control_c, 0, 64, 10
1, 92087, Control_c, 0, 64, 0
1, 92147, Note_on_c, 0, 47, 65
1, 92150, Note_on_c, 0, 64, 67
1, 92186, Note_off_c, 0, 66, 59
1, 92291, Note_on_c, 0, 69, 16
1, 92292, Note_off_c, 0, 69, 127
1, 92331, Control_c, 0, 64, 28
1, 92350, Control_c, 0, 64, 58
1, 92369, Control_c, 0, 64, 85
1, 92387, Control_c, 0, 64, 127
1, 92426, Note_on_c, 0, 63, 75
1, 92456, Note_off_c, 0, 47, 61
1, 92461, Note_off_c, 0, 64, 60
1, 92724, Control_c, 0, 64, 100
1, 92744, Control_c, 0, 64, 76
1, 92758, Note_on_c, 0, 59, 65
1, 92760, Control_c, 0, 64, 53
1, 92762, Note_on_c, 0, 64, 63
1, 92774, Note_on_c, 0, 52, 63
1, 92779, Control_c, 0, 64, 26
1, 92804, Note_off_c, 0, 63, 55
1, 92856, Control_c, 0, 64, 0
1, 93388, Note_on_c, 0, 42, 66
1, 93461, Note_off_c, 0, 40, 60
1, 93474, Control_c, 0, 64, 11
1, 93491, Control_c, 0, 64, 20
1, 93510, Control_c, 0, 64, 31
1, 93529, Control_c, 0, 64, 44
1, 93548, Control_c, 0, 64, 54
1, 93567, Control_c, 0, 64, 57
1, 93623, Control_c, 0, 64, 61
1, 93641, Control_c, 0, 64, 63
1, 93661, Control_c, 0, 64, 67
1, 93663, Note_on_c, 0, 43, 69
1, 93679, Control_c, 0, 64, 70
1, 93681, Note_off_c, 0, 42, 62
1, 93697, Control_c, 0, 64, 76
1, 93717, Control_c, 0, 64, 84
1, 93735, Control_c, 0, 64, 99
1, 93753, Control_c, 0, 64, 127
1, 93998, Control_c, 0, 64, 117
1, 94013, Note_off_c, 0, 43, 62
1, 94013, Note_on_c, 0, 45, 67
1, 94016, Control_c, 0, 64, 77
1, 94019, Note_on_c, 0, 60, 63
1, 94035, Control_c, 0, 64, 50
1, 94042, Note_off_c, 0, 59, 59
1, 94053, Control_c, 0, 64, 24
1, 94109, Control_c, 0, 64, 0
1, 94342, Note_off_c, 0, 52, 59
1, 94352, Control_c, 0, 64, 21
1, 94371, Control_c, 0, 64, 49
1, 94390, Control_c, 0, 64, 76
1, 94409, Control_c, 0, 64, 99
1, 94427, Control_c, 0, 64, 127
1, 94596, Control_c, 0, 64, 109
1, 94615, Control_c, 0, 64, 76
1, 94633, Control_c, 0, 64, 48
1, 94642, Note_on_c, 0, 69, 65
1, 94643, Note_on_c, 0, 52, 55
1, 94652, Control_c, 0, 64, 20
1, 94703, Note_off_c, 0, 64, 61
1, 94720, Note_off_c, 0, 67, 60
1, 94764, Control_c, 0, 64, 45
1, 94783, Control_c, 0, 64, 71
1, 94803, Control_c, 0, 64, 91
1, 94821, Control_c, 0, 64, 127
1, 94897, Note_on_c, 0, 67, 73
1, 95176, Control_c, 0, 64, 118
1, 95182, Note_on_c, 0, 57, 55
1, 95191, Note_on_c, 0, 66, 70
1, 95195, Control_c, 0, 64, 73
1, 95214, Control_c, 0, 64, 39
1, 95222, Note_off_c, 0, 60, 60
1, 95243, Note_off_c, 0, 52, 60
1, 95250, Control_c, 0, 64, 0
1, 95307, Control_c, 0, 64, 10
1, 95326, Control_c, 0, 64, 32
1, 95345, Control_c, 0, 64, 62
1, 95363, Control_c, 0, 64, 85
1, 95382, Control_c, 0, 64, 127
1, 95392, Note_off_c, 0, 69, 35
1, 95464, Note_on_c, 0, 64, 76
1, 95502, Note_off_c, 0, 67, 34
1, 95515, Note_off_c, 0, 66, 61
1, 95719, Control_c, 0, 64, 118
1, 95737, Control_c, 0, 64, 72
1, 95741, Note_on_c, 0, 63, 72
1, 95746, Note_on_c, 0, 54, 70
1, 95756, Control_c, 0, 64, 38
1, 95794, Control_c, 0, 64, 0
1, 95822, Note_off_c, 0, 64, 59
1, 95829, Control_c, 0, 64, 18
1, 95850, Control_c, 0, 64, 45
1, 95869, Control_c, 0, 64, 75
1, 95888, Control_c, 0, 64, 118
1, 95906, Control_c, 0, 64, 127
1, 96016, Note_on_c, 0, 61, 75
1, 96048, Note_off_c, 0, 45, 60
1, 96052, Note_off_c, 0, 63, 60
1, 96311, Note_on_c, 0, 47, 73
1, 96312, Note_on_c, 0, 64, 66
1, 96337, Control_c, 0, 64, 110
1, 96356, Control_c, 0, 64, 78
1, 96360, Note_off_c, 0, 61, 57
1, 96374, Control_c, 0, 64, 56
1, 96394, Control_c, 0, 64, 34
1, 96412, Control_c, 0, 64, 18
1, 96430, Control_c, 0, 64, 12
1, 96486, Control_c, 0, 64, 0
1, 96594, Note_on_c, 0, 63, 74
1, 96677, Note_off_c, 0, 64, 52
1, 96874, Note_on_c, 0, 61, 74
1, 96935, Note_off_c, 0, 63, 58
1, 97123, Control_c, 0, 64, 12
1, 97142, Control_c, 0, 64, 24
1, 97149, Note_on_c, 0, 59, 73
1, 97157, Note_off_c, 0, 61, 61
1, 97160, Control_c, 0, 64, 43
1, 97179, Control_c, 0, 64, 64
1, 97198, Control_c, 0, 64, 76
1, 97218, Control_c, 0, 64, 90
1, 97235, Control_c, 0, 64, 121
1, 97254, Control_c, 0, 64, 127
1, 97418, Note_on_c, 0, 63, 67
1, 97491, Note_on_c, 0, 66, 63
1, 97583, Note_on_c, 0, 71, 80
1, 97628, Control_c, 0, 64, 89
1, 97647, Control_c, 0, 64, 56
1, 97685, Control_c, 0, 64, 0
1, 97872, Control_c, 0, 64, 25
1, 97891, Control_c, 0, 64, 55
1, 97909, Control_c, 0, 64, 79
1, 97929, Control_c, 0, 64, 110
1, 97947, Control_c, 0, 64, 127
1, 98020, Note_off_c, 0, 57, 61
1, 98210, Note_on_c, 0, 55, 75
1, 98215, Note_off_c, 0, 54, 62
1, 98495, Note_on_c, 0, 54, 78
1, 98528, Note_off_c, 0, 55, 60
1, 98583, Control_c, 0, 64, 85
1, 98602, Control_c, 0, 64, 59
1, 98620, Control_c, 0, 64, 38
1, 98639, Control_c, 0, 64, 23
1, 98657, Control_c, 0, 64, 18
1, 98807, Control_c, 0, 64, 13
1, 98813, Note_on_c, 0, 55, 79
1, 98817, Note_off_c, 0, 54, 63
1, 98825, Control_c, 0, 64, 8
1, 98882, Control_c, 0, 64, 0
1, 99070, Control_c, 0, 64, 8
1, 99089, Control_c, 0, 64, 23
1, 99109, Control_c, 0, 64, 47
1, 99126, Control_c, 0, 64, 69
1, 99145, Control_c, 0, 64, 80
1, 99164, Control_c, 0, 64, 91
1, 99181, Control_c, 0, 64, 103
1, 99201, Control_c, 0, 64, 127
1, 99230, Note_off_c, 0, 63, 58
1, 99440, Note_on_c, 0, 64, 75
1, 99500, Control_c, 0, 64, 85
1, 99506, Note_off_c, 0, 66, 56
1, 99520, Control_c, 0, 64, 55
1, 99538, Control_c, 0, 64, 28
1, 99575, Control_c, 0, 64, 45
1, 99594, Control_c, 0, 64, 71
1, 99613, Control_c, 0, 64, 101
1, 99631, Control_c, 0, 64, 127
1, 99672, Note_off_c, 0, 55, 60
1, 99870, Note_on_c, 0, 55, 59
1, 99926, Note_off_c, 0, 55, 62
1, 99956, Note_on_c, 0, 54, 51
1, 100001, Note_on_c, 0, 69, 63
1, 100003, Note_off_c, 0, 54, 65
1, 100028, Note_on_c, 0, 55, 61
1, 100051, Note_off_c, 0, 71, 57
1, 100081, Control_c, 0, 64, 84
1, 100100, Control_c, 0, 64, 53
1, 100105, Note_on_c, 0, 54, 65
1, 100110, Note_off_c, 0, 55, 54
1, 100118, Control_c, 0, 64, 18
1, 100137, Control_c, 0, 64, 0
1, 100867, Control_c, 0, 67, 8
1, 100885, Note_on_c, 0, 63, 53
1, 100904, Control_c, 0, 67, 14
1, 100922, Control_c, 0, 67, 23
1, 100934, Note_off_c, 0, 64, 58
1, 100941, Control_c, 0, 67, 37
1, 100960, Control_c, 0, 67, 56
1, 100979, Control_c, 0, 67, 74
1, 100998, Control_c, 0, 64, 13
1, 101000, Control_c, 0, 67, 89
1, 101017, Control_c, 0, 64, 29
1, 101018, Control_c, 0, 67, 99
1, 101035, Control_c, 0, 64, 50
1, 101036, Control_c, 0, 67, 106
1, 101054, Control_c, 0, 64, 64
1, 101056, Control_c, 0, 67, 112
1, 101073, Control_c, 0, 64, 69
1, 101074, Control_c, 0, 67, 118
1, 101092, Control_c, 0, 67, 123
1, 101110, Control_c, 0, 67, 127
1, 101128, Control_c, 0, 64, 73
1, 101149, Control_c, 0, 64, 80
1, 101166, Control_c, 0, 64, 91
1, 101184, Control_c, 0, 64, 108
1, 101204, Control_c, 0, 64, 127
1, 101217, Note_off_c, 0, 54, 61
1, 101324, Note_off_c, 0, 63, 61
1, 101324, Note_off_c, 0, 59, 58
1, 101945, Note_on_c, 0, 59, 63
1, 101952, Control_c, 0, 64, 103
1, 101971, Control_c, 0, 64, 78
1, 101974, Note_on_c, 0, 64, 35
1, 101980, Note_on_c, 0, 40, 38
1, 101981, Note_on_c, 0, 52, 40
1, 101988, Control_c, 0, 64, 60
1, 102002, Note_off_c, 0, 47, 36
1, 102008, Control_c, 0, 64, 47
1, 102028, Control_c, 0, 64, 40
1, 102065, Control_c, 0, 64, 34
1, 102085, Control_c, 0, 64, 29
1, 102102, Control_c, 0, 64, 22
1, 102121, Control_c, 0, 64, 17
1, 102196, Control_c, 0, 64, 11
1, 102702, Control_c, 0, 64, 17
1, 102719, Control_c, 0, 64, 21
1, 102739, Control_c, 0, 64, 28
1, 102746, Note_on_c, 0, 67, 50
1, 102758, Control_c, 0, 64, 38
1, 102776, Control_c, 0, 64, 49
1, 102795, Control_c, 0, 64, 56
1, 102813, Control_c, 0, 64, 58
1, 102850, Control_c, 0, 64, 61
1, 102870, Control_c, 0, 64, 64
1, 102888, Control_c, 0, 64, 67
1, 102908, Control_c, 0, 64, 70
1, 102925, Control_c, 0, 64, 73
1, 102945, Control_c, 0, 64, 77
1, 102963, Control_c, 0, 64, 83
1, 102974, Poly_aftertouch_c, 0, 64, 24
1, 102981, Note_off_c, 0, 40, 53
1, 102981, Control_c, 0, 64, 91
1, 103001, Control_c, 0, 64, 99
1, 103010, Note_on_c, 0, 66, 51
1, 103017, Note_off_c, 0, 67, 56
1, 103018, Control_c, 0, 64, 110
1, 103021, Note_off_c, 0, 64, 39
1, 103021, Poly_aftertouch_c, 0, 64, 0
1, 103022, Poly_aftertouch_c, 0, 64, 0
1, 103039, Control_c, 0, 64, 127
1, 103051, Note_off_c, 0, 52, 60
1, 103281, Control_c, 0, 64, 111
1, 103294, Note_off_c, 0, 66, 51
1, 103299, Control_c, 0, 64, 81
1, 103306, Note_on_c, 0, 64, 51
1, 103316, Note_on_c, 0, 67, 50
1, 103317, Control_c, 0, 64, 59
1, 103319, Note_off_c, 0, 59, 49
1, 103338, Control_c, 0, 64, 39
1, 103353, Note_off_c, 0, 69, 53
1, 103356, Control_c, 0, 64, 24
1, 103375, Control_c, 0, 64, 18
1, 103524, Control_c, 0, 64, 13
1, 103578, Note_on_c, 0, 52, 35
1, 103655, Control_c, 0, 64, 8
1, 103656, Note_off_c, 0, 52, 59
1, 103834, Note_on_c, 0, 54, 45
1, 103929, Note_off_c, 0, 54, 59
1, 104096, Note_on_c, 0, 55, 44
1, 104164, Note_off_c, 0, 55, 60
1, 104180, Control_c, 0, 64, 0
1, 104395, Note_on_c, 0, 57, 42
1, 104395, Note_on_c, 0, 65, 49
1, 104470, Note_off_c, 0, 64, 51
1, 104515, Note_off_c, 0, 67, 27
1, 104656, Note_on_c, 0, 64, 49
1, 104947, Note_on_c, 0, 62, 49
1, 104964, Note_off_c, 0, 64, 52
1, 105197, Note_on_c, 0, 60, 44
1, 105224, Note_off_c, 0, 62, 52
1, 105477, Note_off_c, 0, 60, 56
1, 105482, Note_on_c, 0, 62, 49
1, 105518, Note_off_c, 0, 57, 62
1, 105747, Note_on_c, 0, 60, 47
1, 105843, Note_off_c, 0, 60, 57
1, 106009, Note_on_c, 0, 59, 51
1, 106076, Note_off_c, 0, 59, 54
1, 106262, Note_on_c, 0, 57, 44
1, 106328, Note_off_c, 0, 65, 60
1, 106351, Note_off_c, 0, 57, 57
1, 106550, Note_on_c, 0, 56, 41
1, 106556, Note_on_c, 0, 64, 48
1, 106613, Note_off_c, 0, 62, 60
1, 106800, Note_off_c, 0, 56, 59
1, 106833, Note_on_c, 0, 62, 47
1, 107120, Note_on_c, 0, 52, 46
1, 107126, Note_on_c, 0, 60, 48
1, 107163, Note_off_c, 0, 62, 52
1, 107364, Note_off_c, 0, 52, 60
1, 107373, Note_on_c, 0, 59, 56
1, 107383, Note_off_c, 0, 60, 57
1, 107654, Note_on_c, 0, 57, 51
1, 107656, Note_on_c, 0, 60, 53
1, 107658, Note_off_c, 0, 59, 61
1, 107690, Note_off_c, 0, 64, 59
1, 107910, Note_on_c, 0, 64, 62
1, 108194, Note_on_c, 0, 65, 67
1, 108212, Note_on_c, 0, 55, 42
1, 108229, Note_off_c, 0, 64, 61
1, 108257, Note_off_c, 0, 57, 53
1, 108445, Note_on_c, 0, 67, 67
1, 108464, Note_off_c, 0, 65, 61
1, 108741, Note_on_c, 0, 69, 67
1, 108745, Note_off_c, 0, 55, 57
1, 108762, Note_on_c, 0, 53, 46
1, 108766, Note_off_c, 0, 67, 58
1, 108802, Note_off_c, 0, 60, 59
1, 109035, Note_on_c, 0, 60, 52
1, 109304, Note_on_c, 0, 62, 56
1, 109311, Note_on_c, 0, 52, 43
1, 109349, Note_off_c, 0, 53, 46
1, 109433, Note_off_c, 0, 60, 32
1, 109550, Note_on_c, 0, 64, 60
1, 109585, Note_off_c, 0, 62, 56
1, 109828, Note_off_c, 0, 64, 60
1, 109833, Note_on_c, 0, 65, 65
1, 109848, Note_on_c, 0, 50, 47
1, 109859, Note_off_c, 0, 52, 52
1, 109887, Note_off_c, 0, 69, 58
1, 110091, Note_on_c, 0, 69, 72
1, 110373, Note_on_c, 0, 71, 77
1, 110390, Note_on_c, 0, 48, 53
1, 110420, Note_off_c, 0, 50, 54
1, 110422, Note_off_c, 0, 69, 59
1, 110431, Control_c, 0, 67, 123
1, 110617, Note_on_c, 0, 72, 79
1, 110648, Note_off_c, 0, 71, 57
1, 110655, Control_c, 0, 67, 119
1, 110944, Note_on_c, 0, 74, 81
1, 110967, Note_off_c, 0, 72, 61
1, 110967, Note_on_c, 0, 47, 43
1, 110975, Note_off_c, 0, 48, 55
1, 111205, Note_off_c, 0, 47, 50
1, 111212, Note_on_c, 0, 43, 38
1, 111240, Note_off_c, 0, 65, 62
1, 111483, Note_off_c, 0, 43, 56
1, 111498, Note_on_c, 0, 65, 55
1, 111507, Note_on_c, 0, 45, 47
1, 111738, Note_off_c, 0, 45, 61
1, 111745, Note_on_c, 0, 47, 56
1, 112035, Note_on_c, 0, 64, 72
1, 112053, Note_on_c, 0, 48, 55
1, 112062, Note_off_c, 0, 65, 60
1, 112070, Note_off_c, 0, 47, 61
1, 112307, Note_on_c, 0, 50, 65
1, 112309, Note_off_c, 0, 48, 63
1, 112588, Note_on_c, 0, 72, 79
1, 112605, Note_on_c, 0, 52, 53
1, 112650, Note_off_c, 0, 50, 40
1, 112663, Note_off_c, 0, 74, 50
1, 112854, Note_on_c, 0, 53, 51
1, 112858, Note_off_c, 0, 52, 61
1, 113182, Note_off_c, 0, 53, 61
1, 113191, Note_on_c, 0, 62, 77
1, 113213, Note_off_c, 0, 64, 62
1, 113215, Note_on_c, 0, 55, 48
1, 113269, Note_off_c, 0, 72, 57
1, 113475, Note_on_c, 0, 72, 49
1, 113751, Note_on_c, 0, 71, 64
1, 114002, Note_on_c, 0, 69, 73
1, 114071, Note_off_c, 0, 71, 56
1, 114290, Note_on_c, 0, 67, 76
1, 114299, Note_on_c, 0, 71, 70
1, 114319, Note_off_c, 0, 69, 53
1, 114340, Note_off_c, 0, 72, 59
1, 114344, Note_off_c, 0, 62, 58
1, 114562, Note_on_c, 0, 57, 61
1, 114598, Note_off_c, 0, 55, 47
1, 114828, Note_on_c, 0, 59, 71
1, 114868, Control_c, 0, 67, 113
1, 114871, Note_off_c, 0, 57, 63
1, 114905, Control_c, 0, 67, 108
1, 114944, Control_c, 0, 67, 104
1, 115091, Note_on_c, 0, 60, 72
1, 115110, Note_off_c, 0, 59, 63
1, 115373, Note_on_c, 0, 69, 80
1, 115383, Note_off_c, 0, 60, 63
1, 115410, Note_on_c, 0, 62, 54
1, 115424, Note_off_c, 0, 67, 61
1, 115483, Note_off_c, 0, 71, 53
1, 115635, Control_c, 0, 64, 9
1, 115645, Note_on_c, 0, 67, 65
1, 115654, Control_c, 0, 64, 16
1, 115673, Control_c, 0, 64, 30
1, 115691, Control_c, 0, 64, 47
1, 115710, Control_c, 0, 64, 60
1, 115729, Control_c, 0, 64, 63
1, 115805, Control_c, 0, 64, 64
1, 115879, Control_c, 0, 64, 62
1, 115898, Control_c, 0, 64, 61
1, 115928, Note_on_c, 0, 65, 67
1, 115950, Note_off_c, 0, 67, 57
1, 115991, Control_c, 0, 64, 62
1, 116028, Control_c, 0, 64, 63
1, 116085, Control_c, 0, 64, 65
1, 116104, Control_c, 0, 64, 67
1, 116122, Control_c, 0, 64, 70
1, 116141, Control_c, 0, 64, 73
1, 116159, Control_c, 0, 64, 76
1, 116179, Control_c, 0, 64, 80
1, 116194, Note_on_c, 0, 64, 68
1, 116196, Control_c, 0, 64, 84
1, 116203, Note_off_c, 0, 65, 61
1, 116216, Control_c, 0, 64, 88
1, 116234, Control_c, 0, 64, 93
1, 116254, Control_c, 0, 64, 100
1, 116255, Control_c, 0, 67, 100
1, 116272, Control_c, 0, 64, 108
1, 116290, Control_c, 0, 64, 124
1, 116440, Control_c, 0, 64, 96
1, 116459, Control_c, 0, 64, 74
1, 116468, Note_off_c, 0, 64, 53
1, 116472, Note_on_c, 0, 74, 76
1, 116479, Control_c, 0, 64, 56
1, 116492, Note_on_c, 0, 65, 53
1, 116495, Control_c, 0, 64, 41
1, 116515, Control_c, 0, 64, 30
1, 116534, Control_c, 0, 64, 20
1, 116553, Control_c, 0, 64, 11
1, 116601, Note_off_c, 0, 69, 56
1, 116702, Control_c, 0, 64, 19
1, 116721, Control_c, 0, 64, 32
1, 116740, Note_on_c, 0, 60, 56
1, 116740, Control_c, 0, 64, 50
1, 116760, Control_c, 0, 64, 62
1, 116777, Control_c, 0, 64, 66
1, 116786, Note_off_c, 0, 62, 60
1, 116815, Control_c, 0, 64, 68
1, 116852, Control_c, 0, 64, 73
1, 116873, Control_c, 0, 64, 78
1, 116889, Control_c, 0, 64, 83
1, 116909, Control_c, 0, 64, 85
1, 116929, Control_c, 0, 64, 81
1, 116946, Control_c, 0, 64, 74
1, 116964, Control_c, 0, 64, 66
1, 116983, Control_c, 0, 64, 55
1, 117002, Control_c, 0, 64, 46
1, 117009, Note_on_c, 0, 67, 70
1, 117012, Note_off_c, 0, 60, 60
1, 117021, Control_c, 0, 64, 39
1, 117031, Note_on_c, 0, 59, 52
1, 117069, Note_off_c, 0, 65, 57
1, 117095, Control_c, 0, 64, 44
1, 117114, Control_c, 0, 64, 51
1, 117133, Control_c, 0, 64, 59
1, 117152, Control_c, 0, 64, 64
1, 117170, Control_c, 0, 64, 68
1, 117190, Control_c, 0, 64, 70
1, 117208, Control_c, 0, 64, 74
1, 117226, Control_c, 0, 64, 78
1, 117245, Control_c, 0, 64, 86
1, 117265, Note_on_c, 0, 65, 76
1, 117266, Control_c, 0, 64, 98
1, 117279, Note_on_c, 0, 57, 47
1, 117284, Control_c, 0, 64, 118
1, 117299, Note_off_c, 0, 67, 61
1, 117301, Control_c, 0, 64, 127
1, 117314, Note_off_c, 0, 59, 45
1, 117357, Control_c, 0, 67, 94
1, 117526, Control_c, 0, 64, 105
1, 117544, Note_off_c, 0, 57, 59
1, 117545, Control_c, 0, 64, 77
1, 117548, Note_on_c, 0, 64, 82
1, 117555, Note_on_c, 0, 56, 52
1, 117557, Note_off_c, 0, 65, 65
1, 117562, Control_c, 0, 64, 57
1, 117582, Control_c, 0, 64, 42
1, 117594, Note_off_c, 0, 74, 58
1, 117600, Control_c, 0, 64, 33
1, 117620, Control_c, 0, 64, 26
1, 117639, Control_c, 0, 64, 20
1, 117713, Control_c, 0, 64, 24
1, 117732, Control_c, 0, 64, 34
1, 117751, Control_c, 0, 64, 49
1, 117770, Control_c, 0, 64, 62
1, 117788, Control_c, 0, 64, 67
1, 117807, Control_c, 0, 64, 69
1, 117808, Note_off_c, 0, 56, 60
1, 117825, Control_c, 0, 64, 72
1, 117832, Note_on_c, 0, 74, 58
1, 117834, Note_on_c, 0, 59, 52
1, 117844, Control_c, 0, 64, 77
1, 117863, Control_c, 0, 64, 85
1, 117882, Control_c, 0, 64, 96
1, 117895, Note_on_c, 0, 76, 14
1, 117896, Note_off_c, 0, 76, 127
1, 117899, Control_c, 0, 64, 108
1, 117919, Control_c, 0, 64, 124
1, 118051, Control_c, 0, 67, 90
1, 118090, Note_on_c, 0, 57, 51
1, 118091, Note_on_c, 0, 72, 74
1, 118147, Note_off_c, 0, 59, 50
1, 118339, Note_on_c, 0, 56, 55
1, 118341, Note_off_c, 0, 57, 57
1, 118342, Note_on_c, 0, 71, 77
1, 118431, Note_off_c, 0, 74, 57
1, 118436, Note_off_c, 0, 72, 51
1, 118612, Control_c, 0, 64, 85
1, 118624, Note_on_c, 0, 72, 72
1, 118626, Note_on_c, 0, 69, 76
1, 118630, Control_c, 0, 64, 59
1, 118636, Note_off_c, 0, 56, 60
1, 118649, Control_c, 0, 64, 36
1, 118651, Note_off_c, 0, 64, 49
1, 118662, Note_on_c, 0, 57, 50
1, 118667, Control_c, 0, 64, 20
1, 118687, Control_c, 0, 64, 11
1, 118699, Note_off_c, 0, 71, 59
1, 118799, Control_c, 0, 64, 16
1, 118818, Control_c, 0, 64, 28
1, 118836, Control_c, 0, 64, 48
1, 118855, Control_c, 0, 64, 67
1, 118874, Control_c, 0, 64, 76
1, 118891, Note_on_c, 0, 55, 59
1, 118891, Control_c, 0, 64, 83
1, 118908, Note_off_c, 0, 57, 57
1, 118909, Control_c, 0, 64, 89
1, 118930, Control_c, 0, 64, 101
1, 118949, Control_c, 0, 64, 127
1, 119155, Control_c, 0, 64, 95
1, 119164, Note_on_c, 0, 54, 55
1, 119165, Note_on_c, 0, 74, 74
1, 119167, Note_off_c, 0, 55, 60
1, 119174, Control_c, 0, 64, 68
1, 119185, Note_off_c, 0, 72, 60
1, 119191, Control_c, 0, 64, 47
1, 119192, Control_c, 0, 67, 86
1, 119211, Control_c, 0, 64, 37
1, 119229, Control_c, 0, 67, 79
1, 119268, Control_c, 0, 64, 41
1, 119270, Control_c, 0, 67, 75
1, 119286, Control_c, 0, 64, 52
1, 119304, Control_c, 0, 64, 65
1, 119323, Control_c, 0, 64, 76
1, 119342, Control_c, 0, 64, 90
1, 119361, Control_c, 0, 64, 115
1, 119362, Control_c, 0, 67, 69
1, 119376, Note_off_c, 0, 54, 62
1, 119378, Control_c, 0, 64, 127
1, 119379, Control_c, 0, 67, 64
1, 119398, Control_c, 0, 67, 59
1, 119405, Note_on_c, 0, 52, 57
1, 119408, Note_on_c, 0, 72, 79
1, 119434, Control_c, 0, 67, 54
1, 119642, Control_c, 0, 64, 91
1, 119660, Control_c, 0, 64, 61
1, 119679, Control_c, 0, 64, 33
1, 119684, Note_on_c, 0, 71, 76
1, 119693, Note_on_c, 0, 51, 51
1, 119695, Note_off_c, 0, 52, 50
1, 119696, Note_off_c, 0, 74, 41
1, 119698, Control_c, 0, 64, 17
1, 119720, Note_off_c, 0, 72, 59
1, 119735, Control_c, 0, 64, 25
1, 119754, Control_c, 0, 64, 43
1, 119755, Control_c, 0, 67, 49
1, 119773, Control_c, 0, 64, 67
1, 119791, Control_c, 0, 64, 83
1, 119792, Control_c, 0, 67, 41
1, 119810, Control_c, 0, 64, 101
1, 119827, Note_off_c, 0, 69, 58
1, 119829, Control_c, 0, 64, 114
1, 119830, Control_c, 0, 67, 37
1, 119847, Control_c, 0, 64, 121
1, 119866, Control_c, 0, 64, 127
1, 119951, Note_on_c, 0, 69, 80
1, 119954, Note_on_c, 0, 54, 53
1, 119997, Control_c, 0, 67, 29
1, 120013, Note_off_c, 0, 51, 51
1, 120015, Control_c, 0, 67, 20
1, 120035, Control_c, 0, 67, 9
1, 120053, Control_c, 0, 67, 0
1, 120183, Control_c, 0, 64, 107
1, 120202, Note_on_c, 0, 67, 74
1, 120203, Control_c, 0, 64, 73
1, 120222, Note_on_c, 0, 52, 64
1, 120222, Control_c, 0, 64, 50
1, 120225, Note_off_c, 0, 54, 63
1, 120240, Control_c, 0, 64, 42
1, 120258, Control_c, 0, 64, 44
1, 120267, Note_off_c, 0, 69, 50
1, 120278, Control_c, 0, 64, 55
1, 120297, Control_c, 0, 64, 68
1, 120315, Control_c, 0, 64, 83
1, 120333, Control_c, 0, 64, 106
1, 120352, Control_c, 0, 64, 127
1, 120450, Note_on_c, 0, 66, 80
1, 120461, Note_off_c, 0, 67, 62
1, 120471, Note_on_c, 0, 51, 63
1, 120472, Note_off_c, 0, 52, 57
1, 120486, Note_off_c, 0, 71, 61
1, 120726, Control_c, 0, 64, 82
1, 120729, Note_on_c, 0, 76, 77
1, 120746, Control_c, 0, 64, 56
1, 120749, Note_off_c, 0, 51, 61
1, 120751, Note_off_c, 0, 66, 61
1, 120756, Note_on_c, 0, 67, 61
1, 120757, Note_on_c, 0, 52, 60
1, 120764, Control_c, 0, 64, 32
1, 120783, Control_c, 0, 64, 17
1, 120802, Control_c, 0, 64, 10
1, 120858, Control_c, 0, 64, 0
1, 120952, Control_c, 0, 64, 11
1, 120970, Control_c, 0, 64, 26
1, 120990, Control_c, 0, 64, 49
1, 121006, Note_on_c, 0, 50, 64
1, 121007, Control_c, 0, 64, 71
1, 121026, Control_c, 0, 64, 88
1, 121042, Note_off_c, 0, 52, 52
1, 121044, Control_c, 0, 64, 118
1, 121064, Control_c, 0, 64, 127
1, 121265, Note_on_c, 0, 69, 74
1, 121268, Control_c, 0, 64, 119
1, 121276, Note_on_c, 0, 48, 60
1, 121289, Control_c, 0, 64, 74
1, 121307, Control_c, 0, 64, 43
1, 121313, Note_off_c, 0, 50, 55
1, 121325, Control_c, 0, 64, 15
1, 121380, Note_off_c, 0, 67, 60
1, 121401, Control_c, 0, 64, 33
1, 121419, Control_c, 0, 64, 64
1, 121438, Control_c, 0, 64, 95
1, 121456, Control_c, 0, 64, 127
1, 121524, Note_on_c, 0, 67, 80
1, 121528, Note_off_c, 0, 48, 59
1, 121531, Note_on_c, 0, 47, 60
1, 121544, Note_off_c, 0, 69, 60
1, 121774, Control_c, 0, 64, 92
1, 121779, Note_off_c, 0, 47, 62
1, 121790, Note_on_c, 0, 66, 75
1, 121793, Note_on_c, 0, 45, 59
1, 121794, Control_c, 0, 64, 59
1, 121812, Control_c, 0, 64, 28
1, 121819, Note_off_c, 0, 67, 55
1, 121832, Control_c, 0, 64, 11
1, 121869, Control_c, 0, 64, 24
1, 121889, Control_c, 0, 64, 53
1, 121900, Note_off_c, 0, 76, 59
1, 121906, Control_c, 0, 64, 93
1, 121924, Control_c, 0, 64, 127
1, 122037, Control_c, 0, 64, 111
1, 122052, Note_on_c, 0, 76, 83
1, 122055, Control_c, 0, 64, 70
1, 122069, Note_on_c, 0, 54, 64
1, 122073, Control_c, 0, 64, 44
1, 122093, Control_c, 0, 64, 38
1, 122111, Control_c, 0, 64, 52
1, 122130, Control_c, 0, 64, 78
1, 122149, Control_c, 0, 64, 127
1, 122299, Control_c, 0, 64, 93
1, 122316, Control_c, 0, 64, 59
1, 122321, Note_on_c, 0, 75, 80
1, 122336, Control_c, 0, 64, 34
1, 122337, Note_on_c, 0, 55, 68
1, 122359, Note_off_c, 0, 54, 64
1, 122374, Control_c, 0, 64, 51
1, 122392, Control_c, 0, 64, 83
1, 122411, Control_c, 0, 64, 127
1, 122561, Control_c, 0, 64, 101
1, 122564, Note_off_c, 0, 76, 60
1, 122567, Note_off_c, 0, 45, 50
1, 122572, Note_on_c, 0, 73, 82
1, 122579, Note_off_c, 0, 55, 64
1, 122580, Control_c, 0, 64, 64
1, 122585, Note_on_c, 0, 57, 68
1, 122599, Control_c, 0, 64, 38
1, 122618, Control_c, 0, 64, 34
1, 122635, Note_off_c, 0, 75, 60
1, 122635, Control_c, 0, 64, 48
1, 122654, Control_c, 0, 64, 78
1, 122674, Control_c, 0, 64, 127
1, 122842, Control_c, 0, 64, 84
1, 122857, Note_on_c, 0, 75, 81
1, 122860, Control_c, 0, 64, 43
1, 122875, Note_off_c, 0, 57, 61
1, 122878, Note_on_c, 0, 59, 63
1, 122882, Control_c, 0, 64, 0
1, 122916, Note_off_c, 0, 73, 60
1, 122956, Control_c, 0, 64, 42
1, 122973, Control_c, 0, 64, 87
1, 122991, Control_c, 0, 64, 127
1, 123113, Note_on_c, 0, 60, 66
1, 123117, Note_off_c, 0, 59, 57
1, 123121, Control_c, 0, 64, 89
1, 123141, Control_c, 0, 64, 59
1, 123160, Control_c, 0, 64, 56
1, 123178, Control_c, 0, 64, 72
1, 123197, Control_c, 0, 64, 116
1, 123217, Control_c, 0, 64, 127
1, 123367, Control_c, 0, 64, 99
1, 123384, Control_c, 0, 64, 60
1, 123386, Note_on_c, 0, 59, 68
1, 123392, Note_on_c, 0, 76, 80
1, 123403, Control_c, 0, 64, 32
1, 123422, Control_c, 0, 64, 37
1, 123434, Note_off_c, 0, 60, 55
1, 123440, Note_off_c, 0, 75, 64
1, 123442, Control_c, 0, 64, 62
1, 123459, Control_c, 0, 64, 117
1, 123479, Control_c, 0, 64, 127
1, 123629, Control_c, 0, 64, 71
1, 123647, Control_c, 0, 64, 45
1, 123651, Note_on_c, 0, 78, 81
1, 123657, Note_on_c, 0, 57, 60
1, 123666, Control_c, 0, 64, 48
1, 123676, Note_off_c, 0, 59, 59
1, 123684, Control_c, 0, 64, 69
1, 123703, Control_c, 0, 64, 127
1, 123705, Note_off_c, 0, 76, 58
1, 123778, Note_off_c, 0, 78, 64
1, 124020, Control_c, 0, 64, 109
1, 124025, Note_on_c, 0, 71, 73
1, 124039, Note_off_c, 0, 57, 61
1, 124039, Control_c, 0, 64, 78
1, 124041, Note_on_c, 0, 55, 53
1, 124060, Control_c, 0, 64, 56
1, 124077, Control_c, 0, 64, 41
1, 124087, Note_off_c, 0, 66, 60
1, 124095, Control_c, 0, 64, 34
1, 124115, Control_c, 0, 64, 28
1, 124133, Control_c, 0, 64, 21
1, 124152, Control_c, 0, 64, 14
1, 124171, Control_c, 0, 64, 9
1, 124302, Note_on_c, 0, 66, 65
1, 124452, Control_c, 0, 64, 0
1, 124577, Note_on_c, 0, 64, 65
1, 124617, Note_off_c, 0, 66, 59
1, 124831, Note_on_c, 0, 63, 65
1, 124863, Control_c, 0, 64, 14
1, 124866, Note_off_c, 0, 64, 61
1, 124882, Control_c, 0, 64, 28
1, 124901, Control_c, 0, 64, 48
1, 124919, Control_c, 0, 64, 66
1, 124938, Control_c, 0, 64, 75
1, 124957, Control_c, 0, 64, 83
1, 124977, Control_c, 0, 64, 102
1, 124994, Control_c, 0, 64, 127
1, 125119, Note_on_c, 0, 64, 64
1, 125124, Control_c, 0, 64, 105
1, 125132, Note_off_c, 0, 63, 61
1, 125145, Control_c, 0, 64, 72
1, 125163, Control_c, 0, 64, 45
1, 125182, Control_c, 0, 64, 23
1, 125202, Control_c, 0, 64, 16
1, 125258, Control_c, 0, 64, 25
1, 125275, Control_c, 0, 64, 38
1, 125295, Control_c, 0, 64, 56
1, 125314, Control_c, 0, 64, 68
1, 125331, Control_c, 0, 64, 76
1, 125351, Control_c, 0, 64, 84
1, 125358, Note_on_c, 0, 66, 64
1, 125370, Control_c, 0, 64, 97
1, 125387, Control_c, 0, 64, 127
1, 125417, Note_off_c, 0, 64, 55
1, 125649, Control_c, 0, 64, 87
1, 125652, Note_on_c, 0, 67, 62
1, 125668, Control_c, 0, 64, 58
1, 125688, Control_c, 0, 64, 38
1, 125696, Note_off_c, 0, 66, 56
1, 125724, Control_c, 0, 64, 49
1, 125745, Control_c, 0, 64, 67
1, 125762, Control_c, 0, 64, 90
1, 125781, Control_c, 0, 64, 127
1, 125913, Note_on_c, 0, 64, 65
1, 125928, Note_off_c, 0, 67, 54
1, 126174, Control_c, 0, 64, 98
1, 126192, Control_c, 0, 64, 62
1, 126208, Note_on_c, 0, 61, 73
1, 126210, Control_c, 0, 64, 31
1, 126226, Note_off_c, 0, 64, 59
1, 126230, Control_c, 0, 64, 17
1, 126267, Control_c, 0, 64, 23
1, 126286, Control_c, 0, 64, 40
1, 126306, Control_c, 0, 64, 66
1, 126323, Note_off_c, 0, 55, 61
1, 126323, Control_c, 0, 64, 93
1, 126342, Control_c, 0, 64, 127
1, 126478, Note_on_c, 0, 55, 61
1, 126734, Control_c, 0, 64, 91
1, 126736, Note_on_c, 0, 69, 65
1, 126740, Note_on_c, 0, 54, 56
1, 126754, Control_c, 0, 64, 62
1, 126773, Control_c, 0, 64, 43
1, 126810, Control_c, 0, 64, 50
1, 126829, Control_c, 0, 64, 61
1, 126847, Control_c, 0, 64, 71
1, 126866, Control_c, 0, 64, 80
1, 126885, Control_c, 0, 64, 97
1, 126904, Control_c, 0, 64, 127
1, 126960, Note_off_c, 0, 55, 31
1, 126994, Note_on_c, 0, 67, 70
1, 127004, Note_on_c, 0, 52, 63
1, 127010, Note_off_c, 0, 54, 58
1, 127028, Note_off_c, 0, 71, 53
1, 127062, Note_off_c, 0, 69, 47
1, 127259, Control_c, 0, 64, 89
1, 127272, Note_on_c, 0, 60, 63
1, 127274, Note_off_c, 0, 61, 57
1, 127277, Note_on_c, 0, 69, 67
1, 127277, Control_c, 0, 64, 57
1, 127286, Note_on_c, 0, 54, 59
1, 127297, Control_c, 0, 64, 27
1, 127310, Note_off_c, 0, 67, 48
1, 127314, Control_c, 0, 64, 8
1, 127347, Note_off_c, 0, 52, 52
1, 127447, Control_c, 0, 64, 24
1, 127464, Control_c, 0, 64, 44
1, 127484, Control_c, 0, 64, 64
1, 127497, Note_off_c, 0, 54, 63
1, 127502, Control_c, 0, 64, 76
1, 127522, Control_c, 0, 64, 84
1, 127537, Note_on_c, 0, 55, 63
1, 127541, Control_c, 0, 64, 93
1, 127559, Control_c, 0, 64, 107
1, 127578, Control_c, 0, 64, 127
1, 127800, Note_off_c, 0, 55, 61
1, 127814, Note_on_c, 0, 57, 62
1, 127821, Control_c, 0, 64, 93
1, 127840, Control_c, 0, 64, 66
1, 127858, Control_c, 0, 64, 44
1, 127877, Control_c, 0, 64, 28
1, 127896, Control_c, 0, 64, 22
1, 127952, Control_c, 0, 64, 18
1, 127990, Control_c, 0, 64, 10
1, 128048, Note_on_c, 0, 54, 63
1, 128069, Note_off_c, 0, 57, 57
1, 128102, Control_c, 0, 64, 16
1, 128121, Control_c, 0, 64, 34
1, 128140, Control_c, 0, 64, 60
1, 128158, Control_c, 0, 64, 82
1, 128178, Control_c, 0, 64, 119
1, 128196, Control_c, 0, 64, 127
1, 128337, Note_off_c, 0, 54, 56
1, 128341, Note_on_c, 0, 59, 62
1, 128345, Note_on_c, 0, 51, 56
1, 128364, Control_c, 0, 64, 115
1, 128372, Note_off_c, 0, 69, 55
1, 128383, Control_c, 0, 64, 85
1, 128403, Control_c, 0, 64, 66
1, 128413, Note_off_c, 0, 60, 41
1, 128419, Control_c, 0, 64, 53
1, 128439, Control_c, 0, 64, 50
1, 128581, Note_on_c, 0, 69, 63
1, 128588, Control_c, 0, 64, 48
1, 128645, Control_c, 0, 64, 45
1, 128682, Control_c, 0, 64, 42
1, 128720, Control_c, 0, 64, 35
1, 128737, Control_c, 0, 64, 30
1, 128775, Control_c, 0, 64, 24
1, 128831, Control_c, 0, 64, 19
1, 128869, Control_c, 0, 64, 13
1, 128872, Note_on_c, 0, 47, 58
1, 128874, Note_on_c, 0, 67, 65
1, 128924, Note_off_c, 0, 51, 58
1, 128944, Control_c, 0, 64, 9
1, 129113, Control_c, 0, 64, 20
1, 129121, Note_on_c, 0, 66, 69
1, 129131, Control_c, 0, 64, 31
1, 129143, Note_off_c, 0, 69, 28
1, 129148, Control_c, 0, 64, 49
1, 129155, Note_off_c, 0, 67, 61
1, 129169, Control_c, 0, 64, 64
1, 129188, Control_c, 0, 64, 73
1, 129206, Control_c, 0, 64, 81
1, 129225, Control_c, 0, 64, 92
1, 129243, Control_c, 0, 64, 118
1, 129262, Control_c, 0, 64, 127
1, 129393, Control_c, 0, 64, 108
1, 129397, Note_on_c, 0, 67, 71
1, 129398, Note_on_c, 0, 52, 70
1, 129413, Control_c, 0, 64, 83
1, 129432, Control_c, 0, 64, 64
1, 129445, Note_off_c, 0, 66, 56
1, 129448, Control_c, 0, 64, 49
1, 129468, Control_c, 0, 64, 44
1, 129501, Note_off_c, 0, 47, 49
1, 129544, Control_c, 0, 64, 42
1, 129562, Control_c, 0, 64, 40
1, 129619, Control_c, 0, 64, 34
1, 129656, Control_c, 0, 64, 30
1, 129663, Note_on_c, 0, 69, 73
1, 129716, Note_off_c, 0, 67, 58
1, 129926, Note_on_c, 0, 71, 68
1, 129927, Note_on_c, 0, 50, 68
1, 129957, Note_off_c, 0, 69, 52
1, 129993, Note_off_c, 0, 52, 60
1, 130168, Note_on_c, 0, 67, 70
1, 130406, Note_off_c, 0, 71, 35
1, 130452, Note_on_c, 0, 64, 71
1, 130453, Note_on_c, 0, 49, 66
1, 130464, Note_off_c, 0, 67, 61
1, 130506, Note_off_c, 0, 50, 62
1, 130536, Control_c, 0, 64, 26
1, 130710, Note_on_c, 0, 67, 69
1, 130762, Note_off_c, 0, 59, 62
1, 130782, Note_off_c, 0, 64, 54
1, 130988, Note_on_c, 0, 66, 70
1, 130990, Note_on_c, 0, 57, 64
1, 131082, Note_off_c, 0, 67, 50
1, 131234, Note_on_c, 0, 55, 64
1, 131242, Note_on_c, 0, 64, 68
1, 131276, Note_off_c, 0, 57, 58
1, 131284, Note_off_c, 0, 66, 59
1, 131515, Note_on_c, 0, 66, 64
1, 131529, Note_on_c, 0, 48, 57
1, 131531, Note_on_c, 0, 57, 57
1, 131549, Note_off_c, 0, 49, 63
1, 131567, Note_off_c, 0, 55, 57
1, 131588, Note_off_c, 0, 64, 48
1, 131786, Note_on_c, 0, 67, 62
1, 131846, Note_off_c, 0, 66, 56
1, 132041, Note_on_c, 0, 69, 59
1, 132083, Note_off_c, 0, 67, 55
1, 132287, Note_on_c, 0, 66, 62
1, 132313, Control_c, 0, 64, 31
1, 132370, Control_c, 0, 64, 37
1, 132426, Control_c, 0, 64, 40
1, 132438, Note_off_c, 0, 69, 29
1, 132557, Control_c, 0, 64, 35
1, 132567, Note_on_c, 0, 63, 56
1, 132585, Note_on_c, 0, 47, 55
1, 132589, Note_off_c, 0, 48, 59
1, 132626, Note_off_c, 0, 66, 54
1, 132631, Control_c, 0, 64, 31
1, 132726, Control_c, 0, 64, 38
1, 132743, Control_c, 0, 64, 47
1, 132763, Control_c, 0, 64, 56
1, 132783, Control_c, 0, 64, 62
1, 132801, Control_c, 0, 64, 64
1, 132819, Control_c, 0, 64, 68
1, 132826, Note_on_c, 0, 59, 63
1, 132838, Control_c, 0, 64, 74
1, 132856, Control_c, 0, 64, 83
1, 132868, Note_off_c, 0, 63, 60
1, 132875, Control_c, 0, 64, 98
1, 132893, Control_c, 0, 64, 127
1, 132896, Note_off_c, 0, 57, 62
1, 133080, Control_c, 0, 64, 102
1, 133099, Control_c, 0, 64, 74
1, 133104, Note_on_c, 0, 61, 67
1, 133108, Note_on_c, 0, 57, 63
1, 133118, Control_c, 0, 64, 52
1, 133138, Control_c, 0, 64, 33
1, 133146, Note_off_c, 0, 59, 60
1, 133154, Control_c, 0, 64, 21
1, 133268, Control_c, 0, 64, 27
1, 133287, Control_c, 0, 64, 34
1, 133305, Control_c, 0, 64, 45
1, 133325, Control_c, 0, 64, 60
1, 133343, Control_c, 0, 64, 68
1, 133357, Note_on_c, 0, 63, 70
1, 133360, Control_c, 0, 64, 72
1, 133380, Control_c, 0, 64, 76
1, 133400, Control_c, 0, 64, 84
1, 133402, Note_off_c, 0, 61, 61
1, 133417, Control_c, 0, 64, 102
1, 133436, Control_c, 0, 64, 127
1, 133621, Note_on_c, 0, 64, 72
1, 133622, Control_c, 0, 64, 99
1, 133626, Note_off_c, 0, 63, 63
1, 133642, Note_on_c, 0, 55, 61
1, 133643, Control_c, 0, 64, 70
1, 133662, Control_c, 0, 64, 47
1, 133679, Control_c, 0, 64, 26
1, 133699, Control_c, 0, 64, 12
1, 133704, Note_off_c, 0, 57, 60
1, 133867, Control_c, 0, 64, 18
1, 133881, Note_on_c, 0, 66, 73
1, 133885, Control_c, 0, 64, 38
1, 133905, Control_c, 0, 64, 64
1, 133924, Control_c, 0, 64, 80
1, 133942, Control_c, 0, 64, 96
1, 133961, Control_c, 0, 64, 116
1, 133979, Control_c, 0, 64, 127
1, 134158, Note_on_c, 0, 67, 74
1, 134168, Control_c, 0, 64, 78
1, 134176, Note_on_c, 0, 54, 57
1, 134186, Control_c, 0, 64, 50
1, 134195, Note_off_c, 0, 55, 55
1, 134196, Note_off_c, 0, 66, 59
1, 134204, Control_c, 0, 64, 20
1, 134241, Control_c, 0, 64, 0
1, 134415, Note_on_c, 0, 69, 78
1, 134428, Control_c, 0, 64, 10
1, 134447, Control_c, 0, 64, 26
1, 134451, Note_off_c, 0, 67, 63
1, 134466, Control_c, 0, 64, 48
1, 134484, Control_c, 0, 64, 68
1, 134503, Control_c, 0, 64, 81
1, 134522, Control_c, 0, 64, 97
1, 134541, Control_c, 0, 64, 127
1, 134738, Note_on_c, 0, 71, 78
1, 134747, Control_c, 0, 64, 94
1, 134759, Note_on_c, 0, 55, 52
1, 134764, Note_off_c, 0, 69, 58
1, 134765, Control_c, 0, 64, 65
1, 134767, Note_off_c, 0, 54, 59
1, 134785, Control_c, 0, 64, 38
1, 134803, Control_c, 0, 64, 15
1, 134935, Control_c, 0, 64, 22
1, 134952, Control_c, 0, 64, 40
1, 134971, Control_c, 0, 64, 64
1, 134990, Control_c, 0, 64, 81
1, 135009, Control_c, 0, 64, 101
1, 135013, Note_on_c, 0, 67, 69
1, 135027, Control_c, 0, 64, 127
1, 135271, Control_c, 0, 64, 85
1, 135289, Note_on_c, 0, 57, 54
1, 135289, Control_c, 0, 64, 53
1, 135292, Note_off_c, 0, 55, 60
1, 135297, Note_on_c, 0, 66, 65
1, 135308, Control_c, 0, 64, 18
1, 135327, Control_c, 0, 64, 0
1, 135352, Note_off_c, 0, 64, 57
1, 135383, Control_c, 0, 64, 9
1, 135397, Note_off_c, 0, 67, 36
1, 135400, Control_c, 0, 64, 27
1, 135421, Control_c, 0, 64, 56
1, 135439, Control_c, 0, 64, 79
1, 135459, Control_c, 0, 64, 107
1, 135477, Control_c, 0, 64, 127
1, 135565, Note_on_c, 0, 64, 69
1, 135590, Note_off_c, 0, 66, 61
1, 135889, Control_c, 0, 64, 90
1, 135903, Note_on_c, 0, 63, 70
1, 135907, Control_c, 0, 64, 61
1, 135923, Note_off_c, 0, 57, 61
1, 135927, Control_c, 0, 64, 30
1, 135928, Note_on_c, 0, 59, 51
1, 135963, Control_c, 0, 64, 0
1, 135983, Note_off_c, 0, 64, 51
1, 136076, Control_c, 0, 64, 21
1, 136095, Control_c, 0, 64, 42
1, 136113, Control_c, 0, 64, 66
1, 136134, Control_c, 0, 64, 83
1, 136151, Control_c, 0, 64, 108
1, 136169, Control_c, 0, 64, 127
1, 136210, Note_on_c, 0, 66, 72
1, 136262, Note_off_c, 0, 71, 56
1, 136282, Note_off_c, 0, 47, 59
1, 136507, Note_on_c, 0, 47, 66
1, 136514, Note_on_c, 0, 67, 69
1, 136524, Control_c, 0, 64, 102
1, 136544, Control_c, 0, 64, 67
1, 136562, Control_c, 0, 64, 36
1, 136574, Note_off_c, 0, 66, 55
1, 136580, Control_c, 0, 64, 10
1, 136675, Control_c, 0, 64, 19
1, 136693, Control_c, 0, 64, 39
1, 136714, Control_c, 0, 64, 67
1, 136731, Control_c, 0, 64, 94
1, 136749, Control_c, 0, 64, 127
1, 136789, Note_off_c, 0, 47, 61
1, 136792, Note_on_c, 0, 69, 72
1, 136809, Note_off_c, 0, 67, 60
1, 137144, Control_c, 0, 64, 92
1, 137156, Note_on_c, 0, 67, 62
1, 137161, Control_c, 0, 64, 61
1, 137174, Note_on_c, 0, 52, 45
1, 137178, Note_on_c, 0, 64, 45
1, 137180, Control_c, 0, 64, 31
1, 137181, Note_off_c, 0, 63, 55
1, 137224, Note_off_c, 0, 69, 49
1, 137244, Note_off_c, 0, 59, 54
1, 137255, Control_c, 0, 64, 0
1, 137405, Control_c, 0, 64, 11
1, 137423, Control_c, 0, 64, 26
1, 137442, Control_c, 0, 64, 48
1, 137461, Control_c, 0, 64, 67
1, 137480, Control_c, 0, 64, 76
1, 137498, Control_c, 0, 64, 81
1, 137510, Note_on_c, 0, 59, 69
1, 137518, Control_c, 0, 64, 85
1, 137536, Control_c, 0, 64, 95
1, 137554, Control_c, 0, 64, 127
1, 137787, Note_on_c, 0, 61, 73
1, 137817, Control_c, 0, 64, 81
1, 137830, Note_off_c, 0, 59, 54
1, 137835, Control_c, 0, 64, 65
1, 137854, Control_c, 0, 64, 68
1, 137873, Control_c, 0, 64, 77
1, 137891, Control_c, 0, 64, 95
1, 137910, Control_c, 0, 64, 127
1, 137921, Note_off_c, 0, 64, 36
1, 138022, Control_c, 0, 64, 115
1, 138032, Note_on_c, 0, 63, 78
1, 138040, Control_c, 0, 64, 74
1, 138051, Note_off_c, 0, 61, 61
1, 138059, Control_c, 0, 64, 50
1, 138078, Control_c, 0, 64, 48
1, 138098, Control_c, 0, 64, 59
1, 138115, Control_c, 0, 64, 76
1, 138135, Control_c, 0, 64, 127
1, 138149, Poly_aftertouch_c, 0, 58, 0
1, 138217, Note_off_c, 0, 67, 58
1, 138334, Note_on_c, 0, 64, 78
1, 138342, Control_c, 0, 64, 73
1, 138354, Note_off_c, 0, 63, 64
1, 138359, Control_c, 0, 64, 41
1, 138377, Control_c, 0, 64, 16
1, 138399, Note_off_c, 0, 52, 60
1, 138416, Control_c, 0, 64, 22
1, 138434, Control_c, 0, 64, 48
1, 138452, Control_c, 0, 64, 82
1, 138473, Control_c, 0, 64, 127
1, 138608, Note_on_c, 0, 67, 70
1, 138613, Note_on_c, 0, 62, 65
1, 138622, Control_c, 0, 64, 81
1, 138640, Control_c, 0, 64, 53
1, 138659, Control_c, 0, 64, 39
1, 138678, Control_c, 0, 64, 45
1, 138696, Control_c, 0, 64, 62
1, 138716, Control_c, 0, 64, 85
1, 138734, Control_c, 0, 64, 127
1, 138865, Control_c, 0, 64, 103
1, 138884, Control_c, 0, 64, 67
1, 138888, Note_on_c, 0, 69, 73
1, 138891, Note_on_c, 0, 60, 61
1, 138902, Control_c, 0, 64, 40
1, 138920, Note_off_c, 0, 67, 57
1, 138920, Control_c, 0, 64, 35
1, 138941, Control_c, 0, 64, 48
1, 138946, Note_off_c, 0, 62, 56
1, 138959, Control_c, 0, 64, 71
1, 138977, Control_c, 0, 64, 105
1, 138996, Control_c, 0, 64, 127
1, 139127, Control_c, 0, 64, 97
1, 139146, Control_c, 0, 64, 63
1, 139154, Note_on_c, 0, 71, 76
1, 139161, Note_on_c, 0, 59, 67
1, 139165, Control_c, 0, 64, 35
1, 139166, Note_off_c, 0, 60, 61
1, 139183, Control_c, 0, 64, 25
1, 139199, Note_off_c, 0, 69, 56
1, 139201, Control_c, 0, 64, 33
1, 139221, Control_c, 0, 64, 58
1, 139239, Control_c, 0, 64, 89
1, 139259, Control_c, 0, 64, 127
1, 139389, Control_c, 0, 64, 97
1, 139409, Control_c, 0, 64, 62
1, 139424, Note_on_c, 0, 72, 73
1, 139425, Note_on_c, 0, 57, 68
1, 139426, Note_off_c, 0, 59, 62
1, 139427, Control_c, 0, 64, 31
1, 139436, Note_off_c, 0, 71, 58
1, 139444, Control_c, 0, 64, 22
1, 139464, Control_c, 0, 64, 29
1, 139482, Control_c, 0, 64, 57
1, 139501, Control_c, 0, 64, 93
1, 139521, Control_c, 0, 64, 127
1, 139670, Control_c, 0, 64, 93
1, 139688, Control_c, 0, 64, 61
1, 139691, Note_on_c, 0, 55, 58
1, 139705, Note_off_c, 0, 57, 63
1, 139706, Control_c, 0, 64, 46
1, 139726, Control_c, 0, 64, 56
1, 139744, Control_c, 0, 64, 72
1, 139763, Control_c, 0, 64, 108
1, 139782, Control_c, 0, 64, 127
1, 139951, Control_c, 0, 64, 76
1, 139958, Note_off_c, 0, 55, 62
1, 139966, Note_on_c, 0, 62, 57
1, 139967, Note_on_c, 0, 54, 62
1, 139969, Control_c, 0, 64, 47
1, 139978, Note_off_c, 0, 64, 45
1, 139988, Control_c, 0, 64, 32
1, 140027, Control_c, 0, 64, 50
1, 140043, Control_c, 0, 64, 77
1, 140062, Control_c, 0, 64, 127
1, 140208, Note_on_c, 0, 60, 77
1, 140230, Note_on_c, 0, 52, 60
1, 140231, Control_c, 0, 64, 104
1, 140238, Note_off_c, 0, 54, 53
1, 140243, Note_off_c, 0, 62, 61
1, 140250, Control_c, 0, 64, 66
1, 140268, Control_c, 0, 64, 36
1, 140287, Control_c, 0, 64, 21
1, 140325, Control_c, 0, 64, 36
1, 140344, Control_c, 0, 64, 64
1, 140363, Control_c, 0, 64, 105
1, 140381, Control_c, 0, 64, 127
1, 140493, Note_on_c, 0, 54, 68
1, 140493, Note_on_c, 0, 62, 80
1, 140506, Note_off_c, 0, 52, 58
1, 140512, Control_c, 0, 64, 107
1, 140531, Control_c, 0, 64, 65
1, 140547, Note_off_c, 0, 60, 58
1, 140549, Control_c, 0, 64, 28
1, 140606, Control_c, 0, 64, 17
1, 140624, Control_c, 0, 64, 49
1, 140644, Control_c, 0, 64, 97
1, 140661, Control_c, 0, 64, 127
1, 140745, Note_on_c, 0, 57, 71
1, 140754, Note_off_c, 0, 72, 60
1, 140778, Note_off_c, 0, 54, 60
1, 140998, Control_c, 0, 64, 81
1, 141017, Control_c, 0, 64, 46
1, 141018, Note_on_c, 0, 71, 68
1, 141019, Note_on_c, 0, 56, 62
1, 141033, Note_on_c, 0, 64, 67
1, 141035, Control_c, 0, 64, 12
1, 141050, Note_off_c, 0, 57, 58
1, 141071, Note_off_c, 0, 62, 58
1, 141093, Control_c, 0, 64, 8
1, 141110, Control_c, 0, 64, 23
1, 141130, Control_c, 0, 64, 52
1, 141150, Control_c, 0, 64, 84
1, 141167, Control_c, 0, 64, 127
1, 141259, Note_on_c, 0, 62, 72
1, 141263, Note_on_c, 0, 59, 68
1, 141292, Note_off_c, 0, 56, 61
1, 141293, Note_off_c, 0, 64, 59
1, 141538, Note_on_c, 0, 60, 74
1, 141539, Note_off_c, 0, 59, 60
1, 141539, Note_off_c, 0, 62, 62
1, 141546, Note_on_c, 0, 57, 75
1, 141560, Control_c, 0, 64, 97
1, 141567, Note_off_c, 0, 71, 60
1, 141579, Control_c, 0, 64, 62
1, 141598, Control_c, 0, 64, 29
1, 141809, Note_on_c, 0, 64, 78
1, 141860, Control_c, 0, 64, 14
1, 141879, Control_c, 0, 64, 28
1, 141897, Control_c, 0, 64, 50
1, 141916, Control_c, 0, 64, 69
1, 141934, Control_c, 0, 64, 84
1, 141954, Control_c, 0, 64, 118
1, 141972, Control_c, 0, 64, 127
1, 142069, Note_on_c, 0, 65, 79
1, 142071, Note_on_c, 0, 55, 71
1, 142084, Control_c, 0, 64, 85
1, 142098, Note_off_c, 0, 57, 61
1, 142103, Control_c, 0, 64, 55
1, 142122, Control_c, 0, 64, 25
1, 142134, Note_off_c, 0, 64, 56
1, 142177, Control_c, 0, 64, 11
1, 142196, Control_c, 0, 64, 27
1, 142215, Control_c, 0, 64, 51
1, 142235, Control_c, 0, 64, 72
1, 142252, Control_c, 0, 64, 90
1, 142271, Control_c, 0, 64, 127
1, 142315, Note_on_c, 0, 67, 80
1, 142356, Note_off_c, 0, 65, 60
1, 142571, Control_c, 0, 64, 84
1, 142586, Note_on_c, 0, 69, 77
1, 142588, Note_off_c, 0, 67, 62
1, 142588, Note_on_c, 0, 53, 72
1, 142589, Control_c, 0, 64, 51
1, 142597, Note_off_c, 0, 55, 63
1, 142608, Control_c, 0, 64, 12
1, 142629, Control_c, 0, 64, 0
1, 142702, Control_c, 0, 64, 22
1, 142721, Control_c, 0, 64, 48
1, 142739, Control_c, 0, 64, 72
1, 142759, Control_c, 0, 64, 94
1, 142777, Control_c, 0, 64, 127
1, 142842, Note_on_c, 0, 72, 80
1, 143095, Control_c, 0, 64, 101
1, 143110, Note_on_c, 0, 74, 85
1, 143112, Note_on_c, 0, 61, 76
1, 143113, Control_c, 0, 64, 59
1, 143119, Note_on_c, 0, 52, 71
1, 143132, Control_c, 0, 64, 8
1, 143152, Control_c, 0, 64, 0
1, 143154, Note_off_c, 0, 72, 62
1, 143191, Note_off_c, 0, 53, 52
1, 143191, Note_off_c, 0, 60, 47
1, 143207, Control_c, 0, 64, 11
1, 143227, Control_c, 0, 64, 44
1, 143244, Control_c, 0, 64, 78
1, 143264, Control_c, 0, 64, 127
1, 143371, Note_on_c, 0, 76, 84
1, 143401, Note_off_c, 0, 74, 56
1, 143408, Note_off_c, 0, 52, 60
1, 143598, Note_off_c, 0, 61, 59
1, 143636, Note_on_c, 0, 77, 79
1, 143638, Control_c, 0, 64, 84
1, 143641, Note_on_c, 0, 62, 66
1, 143653, Note_on_c, 0, 50, 71
1, 143656, Control_c, 0, 64, 48
1, 143677, Note_off_c, 0, 76, 60
1, 143694, Control_c, 0, 64, 0
1, 143769, Control_c, 0, 64, 11
1, 143787, Control_c, 0, 64, 38
1, 143806, Control_c, 0, 64, 69
1, 143826, Control_c, 0, 64, 97
1, 143844, Control_c, 0, 64, 127
1, 143900, Note_on_c, 0, 53, 79
1, 143958, Note_off_c, 0, 50, 55
1, 144166, Note_on_c, 0, 55, 82
1, 144169, Note_on_c, 0, 67, 80
1, 144181, Control_c, 0, 64, 85
1, 144199, Control_c, 0, 64, 48
1, 144205, Note_off_c, 0, 53, 61
1, 144217, Note_off_c, 0, 69, 61
1, 144238, Control_c, 0, 64, 0
1, 144276, Control_c, 0, 64, 18
1, 144293, Control_c, 0, 64, 52
1, 144312, Control_c, 0, 64, 92
1, 144330, Control_c, 0, 64, 127
1, 144408, Note_on_c, 0, 65, 80
1, 144414, Note_on_c, 0, 57, 83
1, 144431, Note_off_c, 0, 67, 59
1, 144451, Note_off_c, 0, 55, 63
1, 144554, Note_off_c, 0, 57, 64
1, 144696, Note_on_c, 0, 67, 81
1, 144703, Note_on_c, 0, 58, 81
1, 144706, Control_c, 0, 64, 77
1, 144724, Control_c, 0, 64, 36
1, 144737, Note_off_c, 0, 65, 58
1, 144742, Control_c, 0, 64, 0
1, 144825, Note_off_c, 0, 77, 61
1, 144836, Control_c, 0, 64, 10
1, 144855, Control_c, 0, 64, 36
1, 144873, Control_c, 0, 64, 68
1, 144893, Control_c, 0, 64, 97
1, 144911, Control_c, 0, 64, 127
1, 144960, Note_on_c, 0, 76, 80
1, 145218, Note_on_c, 0, 61, 76
1, 145226, Note_on_c, 0, 69, 75
1, 145228, Control_c, 0, 64, 81
1, 145236, Note_on_c, 0, 52, 64
1, 145248, Control_c, 0, 64, 43
1, 145250, Note_off_c, 0, 58, 59
1, 145266, Control_c, 0, 64, 0
1, 145283, Note_off_c, 0, 67, 56
1, 145296, Note_off_c, 0, 62, 41
1, 145323, Control_c, 0, 64, 17
1, 145341, Control_c, 0, 64, 48
1, 145360, Control_c, 0, 64, 78
1, 145379, Control_c, 0, 64, 115
1, 145397, Control_c, 0, 64, 127
1, 145471, Note_on_c, 0, 67, 79
1, 145508, Note_off_c, 0, 69, 56
1, 145740, Note_off_c, 0, 61, 60
1, 145753, Control_c, 0, 64, 91
1, 145760, Note_on_c, 0, 65, 80
1, 145767, Note_on_c, 0, 62, 74
1, 145768, Note_on_c, 0, 53, 71
1, 145769, Note_off_c, 0, 52, 52
1, 145773, Control_c, 0, 64, 52
1, 145781, Note_off_c, 0, 67, 60
1, 145789, Control_c, 0, 64, 0
1, 145921, Control_c, 0, 64, 26
1, 145940, Control_c, 0, 64, 50
1, 145959, Control_c, 0, 64, 69
1, 145978, Control_c, 0, 64, 80
1, 145996, Control_c, 0, 64, 94
1, 146016, Control_c, 0, 64, 127
1, 146017, Note_on_c, 0, 69, 83
1, 146064, Note_off_c, 0, 76, 43
1, 146268, Note_on_c, 0, 52, 79
1, 146272, Note_on_c, 0, 71, 81
1, 146276, Control_c, 0, 64, 81
1, 146278, Note_off_c, 0, 53, 61
1, 146296, Control_c, 0, 64, 46
1, 146333, Control_c, 0, 64, 0
1, 146427, Control_c, 0, 64, 13
1, 146446, Control_c, 0, 64, 34
1, 146464, Control_c, 0, 64, 62
1, 146484, Control_c, 0, 64, 85
1, 146502, Control_c, 0, 64, 127
1, 146528, Note_on_c, 0, 73, 83
1, 146578, Note_off_c, 0, 65, 60
1, 146598, Note_off_c, 0, 71, 59
1, 146598, Note_off_c, 0, 69, 52
1, 146792, Note_off_c, 0, 73, 63
1, 146800, Control_c, 0, 64, 83
1, 146803, Note_on_c, 0, 74, 84
1, 146813, Note_on_c, 0, 53, 74
1, 146819, Control_c, 0, 64, 46
1, 146840, Control_c, 0, 64, 0
1, 146848, Note_off_c, 0, 52, 59
1, 146952, Control_c, 0, 64, 18
1, 146970, Control_c, 0, 64, 41
1, 146988, Control_c, 0, 64, 64
1, 147007, Control_c, 0, 64, 78
1, 147026, Control_c, 0, 64, 93
1, 147045, Control_c, 0, 64, 127
1, 147061, Note_on_c, 0, 77, 89
1, 147322, Note_on_c, 0, 79, 91
1, 147324, Control_c, 0, 64, 74
1, 147328, Note_on_c, 0, 50, 80
1, 147338, Note_off_c, 0, 53, 62
1, 147342, Control_c, 0, 64, 15
1, 147364, Control_c, 0, 64, 0
1, 147383, Note_off_c, 0, 77, 60
1, 147420, Control_c, 0, 64, 30
1, 147438, Control_c, 0, 64, 112
1, 147456, Control_c, 0, 64, 127
1, 147569, Note_off_c, 0, 50, 61
1, 147582, Note_on_c, 0, 81, 93
1, 147601, Note_off_c, 0, 79, 63
1, 147867, Note_on_c, 0, 55, 80
1, 147872, Note_on_c, 0, 82, 90
1, 147886, Control_c, 0, 64, 86
1, 147897, Note_off_c, 0, 62, 61
1, 147906, Control_c, 0, 64, 44
1, 147922, Note_off_c, 0, 81, 59
1, 147924, Control_c, 0, 64, 0
1, 148056, Control_c, 0, 64, 19
1, 148074, Control_c, 0, 64, 48
1, 148093, Control_c, 0, 64, 76
1, 148113, Control_c, 0, 64, 101
1, 148129, Note_on_c, 0, 58, 79
1, 148129, Control_c, 0, 64, 127
1, 148385, Note_on_c, 0, 60, 77
1, 148391, Note_on_c, 0, 72, 74
1, 148411, Control_c, 0, 64, 81
1, 148420, Note_off_c, 0, 74, 60
1, 148426, Note_on_c, 0, 73, 38
1, 148430, Control_c, 0, 64, 44
1, 148458, Note_off_c, 0, 58, 48
1, 148476, Note_off_c, 0, 73, 33
1, 148486, Control_c, 0, 64, 16
1, 148505, Control_c, 0, 64, 48
1, 148524, Control_c, 0, 64, 84
1, 148542, Control_c, 0, 64, 127
1, 148638, Note_on_c, 0, 62, 81
1, 148644, Note_on_c, 0, 70, 81
1, 148670, Note_off_c, 0, 60, 60
1, 148689, Note_off_c, 0, 72, 58
1, 148745, Poly_aftertouch_c, 0, 80, 0
1, 148879, Control_c, 0, 64, 101
1, 148899, Control_c, 0, 64, 53
1, 148902, Note_off_c, 0, 62, 49
1, 148913, Note_on_c, 0, 63, 83
1, 148918, Control_c, 0, 64, 0
1, 148926, Note_on_c, 0, 72, 84
1, 148955, Poly_aftertouch_c, 0, 80, 0
1, 148965, Note_off_c, 0, 70, 57
1, 148992, Control_c, 0, 64, 23
1, 149010, Control_c, 0, 64, 64
1, 149018, Note_off_c, 0, 82, 64
1, 149028, Control_c, 0, 64, 127
1, 149147, Note_on_c, 0, 81, 82
1, 149433, Note_on_c, 0, 57, 72
1, 149441, Control_c, 0, 64, 71
1, 149444, Note_on_c, 0, 74, 79
1, 149445, Note_on_c, 0, 54, 66
1, 149460, Control_c, 0, 64, 35
1, 149469, Note_off_c, 0, 55, 58
1, 149479, Note_off_c, 0, 72, 58
1, 149496, Control_c, 0, 64, 11
1, 149517, Control_c, 0, 64, 36
1, 149524, Note_off_c, 0, 63, 60
1, 149534, Control_c, 0, 64, 80
1, 149553, Control_c, 0, 64, 127
1, 149694, Note_on_c, 0, 72, 84
1, 149707, Note_off_c, 0, 74, 61
1, 149945, Note_off_c, 0, 57, 59
1, 149945, Control_c, 0, 64, 86
1, 149965, Control_c, 0, 64, 45
1, 149975, Note_on_c, 0, 55, 65
1, 149976, Note_off_c, 0, 54, 62
1, 149980, Note_on_c, 0, 70, 83
1, 149984, Control_c, 0, 64, 0
1, 149986, Note_on_c, 0, 62, 67
1, 149990, Note_off_c, 0, 72, 55
1, 150077, Control_c, 0, 64, 31
1, 150096, Control_c, 0, 64, 71
1, 150115, Control_c, 0, 64, 127
1, 150218, Note_on_c, 0, 57, 76
1, 150241, Note_off_c, 0, 81, 54
1, 150496, Note_on_c, 0, 79, 86
1, 150498, Note_on_c, 0, 58, 74
1, 150508, Control_c, 0, 64, 83
1, 150521, Note_off_c, 0, 57, 62
1, 150525, Control_c, 0, 64, 47
1, 150564, Control_c, 0, 64, 0
1, 150619, Control_c, 0, 64, 30
1, 150639, Control_c, 0, 64, 67
1, 150657, Control_c, 0, 64, 127
1, 150745, Note_on_c, 0, 60, 79
1, 150780, Note_off_c, 0, 62, 60
1, 150785, Note_off_c, 0, 58, 64
1, 151008, Note_on_c, 0, 69, 80
1, 151011, Control_c, 0, 64, 67
1, 151022, Note_on_c, 0, 62, 76
1, 151030, Control_c, 0, 64, 18
1, 151032, Note_off_c, 0, 60, 62
1, 151052, Control_c, 0, 64, 0
1, 151053, Note_off_c, 0, 70, 62
1, 151101, Note_off_c, 0, 55, 61
1, 151105, Control_c, 0, 64, 40
1, 151126, Control_c, 0, 64, 91
1, 151143, Control_c, 0, 64, 127
1, 151272, Note_on_c, 0, 64, 78
1, 151530, Note_on_c, 0, 77, 87
1, 151537, Control_c, 0, 64, 67
1, 151543, Note_on_c, 0, 65, 78
1, 151555, Control_c, 0, 64, 24
1, 151561, Note_off_c, 0, 64, 61
1, 151574, Control_c, 0, 64, 0
1, 151584, Note_off_c, 0, 62, 60
1, 151602, Note_off_c, 0, 79, 61
1, 151611, Control_c, 0, 64, 34
1, 151631, Control_c, 0, 64, 85
1, 151649, Control_c, 0, 64, 127
1, 151791, Note_on_c, 0, 62, 76
1, 152067, Note_on_c, 0, 76, 80
1, 152073, Note_on_c, 0, 70, 80
1, 152079, Control_c, 0, 64, 75
1, 152096, Note_on_c, 0, 67, 76
1, 152099, Control_c, 0, 64, 29
1, 152105, Note_off_c, 0, 65, 56
1, 152109, Note_off_c, 0, 62, 52
1, 152116, Control_c, 0, 64, 0
1, 152120, Note_off_c, 0, 69, 56
1, 152145, Note_off_c, 0, 77, 59
1, 152211, Control_c, 0, 64, 28
1, 152230, Control_c, 0, 64, 59
1, 152249, Control_c, 0, 64, 82
1, 152268, Control_c, 0, 64, 110
1, 152286, Control_c, 0, 64, 127
1, 152352, Note_on_c, 0, 62, 79
1, 152596, Note_on_c, 0, 60, 74
1, 152603, Control_c, 0, 64, 82
1, 152617, Note_off_c, 0, 62, 56
1, 152622, Control_c, 0, 64, 49
1, 152642, Control_c, 0, 64, 30
1, 152660, Control_c, 0, 64, 38
1, 152679, Control_c, 0, 64, 57
1, 152697, Control_c, 0, 64, 78
1, 152717, Control_c, 0, 64, 127
1, 152849, Note_on_c, 0, 58, 79
1, 152879, Note_off_c, 0, 60, 60
1, 153110, Control_c, 0, 64, 78
1, 153120, Note_off_c, 0, 58, 63
1, 153125, Note_on_c, 0, 60, 76
1, 153126, Note_on_c, 0, 64, 81
1, 153129, Control_c, 0, 64, 37
1, 153146, Control_c, 0, 64, 0
1, 153150, Note_off_c, 0, 67, 59
1, 153222, Control_c, 0, 64, 25
1, 153240, Control_c, 0, 64, 59
1, 153260, Control_c, 0, 64, 88
1, 153277, Control_c, 0, 64, 127
1, 153390, Note_on_c, 0, 69, 83
1, 153435, Note_off_c, 0, 70, 59
1, 153644, Note_off_c, 0, 60, 58
1, 153653, Control_c, 0, 64, 76
1, 153654, Note_on_c, 0, 62, 79
1, 153672, Control_c, 0, 64, 42
1, 153690, Control_c, 0, 64, 17
1, 153708, Control_c, 0, 64, 23
1, 153728, Control_c, 0, 64, 49
1, 153745, Control_c, 0, 64, 89
1, 153764, Control_c, 0, 64, 127
1, 153914, Note_on_c, 0, 60, 78
1, 153948, Note_off_c, 0, 62, 60
1, 154177, Control_c, 0, 64, 102
1, 154189, Note_on_c, 0, 74, 89
1, 154195, Control_c, 0, 64, 60
1, 154197, Note_on_c, 0, 58, 68
1, 154200, Note_on_c, 0, 65, 64
1, 154207, Note_off_c, 0, 60, 56
1, 154213, Control_c, 0, 64, 14
1, 154232, Control_c, 0, 64, 0
1, 154243, Note_off_c, 0, 76, 56
1, 154255, Note_off_c, 0, 64, 52
1, 154326, Control_c, 0, 64, 11
1, 154345, Control_c, 0, 64, 39
1, 154363, Control_c, 0, 64, 72
1, 154382, Control_c, 0, 64, 116
1, 154401, Control_c, 0, 64, 127
1, 154448, Note_off_c, 0, 65, 61
1, 154455, Note_on_c, 0, 67, 73
1, 154702, Note_on_c, 0, 65, 72
1, 154740, Note_off_c, 0, 67, 58
1, 154946, Note_on_c, 0, 64, 72
1, 154977, Note_off_c, 0, 65, 58
1, 155017, Note_off_c, 0, 69, 52
1, 155206, Control_c, 0, 64, 99
1, 155208, Note_on_c, 0, 79, 88
1, 155217, Note_on_c, 0, 67, 82
1, 155224, Control_c, 0, 64, 59
1, 155239, Note_off_c, 0, 74, 60
1, 155242, Note_on_c, 0, 62, 71
1, 155242, Control_c, 0, 64, 14
1, 155252, Note_off_c, 0, 64, 56
1, 155260, Control_c, 0, 64, 0
1, 155430, Control_c, 0, 64, 12
1, 155450, Control_c, 0, 64, 31
1, 155468, Control_c, 0, 64, 57
1, 155484, Note_on_c, 0, 65, 74
1, 155485, Control_c, 0, 64, 74
1, 155497, Note_off_c, 0, 62, 60
1, 155504, Control_c, 0, 64, 89
1, 155524, Control_c, 0, 64, 114
1, 155543, Control_c, 0, 64, 127
1, 155746, Note_on_c, 0, 64, 73
1, 155755, Note_off_c, 0, 65, 61
1, 155983, Note_on_c, 0, 62, 78
1, 156003, Note_off_c, 0, 58, 60
1, 156012, Note_off_c, 0, 67, 61
1, 156036, Note_off_c, 0, 64, 57
1, 156255, Control_c, 0, 64, 92
1, 156272, Control_c, 0, 64, 52
1, 156276, Note_on_c, 0, 57, 62
1, 156276, Note_on_c, 0, 69, 87
1, 156280, Note_off_c, 0, 62, 60
1, 156280, Note_on_c, 0, 61, 66
1, 156310, Control_c, 0, 64, 0
1, 156348, Note_off_c, 0, 79, 61
1, 156404, Control_c, 0, 64, 15
1, 156421, Control_c, 0, 64, 39
1, 156441, Control_c, 0, 64, 67
1, 156460, Control_c, 0, 64, 88
1, 156479, Control_c, 0, 64, 127
1, 156525, Note_on_c, 0, 79, 82
1, 156786, Note_on_c, 0, 77, 80
1, 157019, Note_on_c, 0, 76, 77
1, 157073, Note_off_c, 0, 77, 57
1, 157102, Note_off_c, 0, 79, 61
1, 157212, Note_off_c, 0, 57, 59
1, 157243, Note_off_c, 0, 61, 56
1, 157290, Note_on_c, 0, 77, 80
1, 157291, Note_on_c, 0, 74, 82
1, 157303, Control_c, 0, 64, 105
1, 157322, Control_c, 0, 64, 64
1, 157327, Note_off_c, 0, 69, 50
1, 157340, Control_c, 0, 64, 27
1, 157345, Note_off_c, 0, 76, 51
1, 157359, Control_c, 0, 64, 0
1, 157434, Control_c, 0, 64, 23
1, 157452, Control_c, 0, 64, 52
1, 157471, Control_c, 0, 64, 81
1, 157489, Control_c, 0, 64, 127
1, 157542, Note_on_c, 0, 62, 78
1, 157806, Note_on_c, 0, 79, 80
1, 157818, Note_on_c, 0, 64, 80
1, 157825, Control_c, 0, 64, 115
1, 157831, Note_off_c, 0, 62, 62
1, 157843, Note_off_c, 0, 77, 59
1, 157844, Control_c, 0, 64, 72
1, 157864, Control_c, 0, 64, 45
1, 157883, Control_c, 0, 64, 32
1, 157919, Control_c, 0, 64, 50
1, 157940, Control_c, 0, 64, 71
1, 157957, Control_c, 0, 64, 97
1, 157976, Control_c, 0, 64, 127
1, 158055, Note_on_c, 0, 77, 80
1, 158069, Note_on_c, 0, 65, 80
1, 158098, Note_off_c, 0, 64, 59
1, 158314, Control_c, 0, 64, 82
1, 158329, Note_on_c, 0, 76, 78
1, 158330, Note_off_c, 0, 79, 29
1, 158333, Control_c, 0, 64, 50
1, 158338, Note_off_c, 0, 65, 62
1, 158347, Note_on_c, 0, 67, 76
1, 158352, Control_c, 0, 64, 22
1, 158370, Control_c, 0, 64, 15
1, 158387, Control_c, 0, 64, 20
1, 158388, Note_off_c, 0, 77, 56
1, 158407, Control_c, 0, 64, 40
1, 158425, Control_c, 0, 64, 68
1, 158445, Control_c, 0, 64, 95
1, 158463, Control_c, 0, 64, 127
1, 158567, Note_on_c, 0, 65, 73
1, 158597, Note_off_c, 0, 67, 54
1, 158632, Note_off_c, 0, 74, 59
1, 158836, Note_on_c, 0, 73, 75
1, 158846, Note_on_c, 0, 67, 75
1, 158856, Control_c, 0, 64, 85
1, 158875, Control_c, 0, 64, 53
1, 158893, Control_c, 0, 64, 25
1, 158905, Note_off_c, 0, 65, 62
1, 158911, Control_c, 0, 64, 16
1, 158951, Control_c, 0, 64, 37
1, 158968, Control_c, 0, 64, 65
1, 158988, Control_c, 0, 64, 94
1, 159005, Control_c, 0, 64, 127
1, 159089, Note_on_c, 0, 71, 77
1, 159096, Note_on_c, 0, 69, 78
1, 159098, Note_off_c, 0, 67, 64
1, 159128, Note_off_c, 0, 73, 61
1, 159342, Control_c, 0, 64, 103
1, 159359, Note_on_c, 0, 67, 81
1, 159361, Control_c, 0, 64, 62
1, 159366, Note_on_c, 0, 73, 80
1, 159380, Control_c, 0, 64, 21
1, 159381, Note_off_c, 0, 69, 59
1, 159393, Note_off_c, 0, 71, 60
1, 159398, Control_c, 0, 64, 0
1, 159455, Control_c, 0, 64, 22
1, 159474, Control_c, 0, 64, 57
1, 159493, Control_c, 0, 64, 101
1, 159511, Control_c, 0, 64, 127
1, 159616, Note_on_c, 0, 70, 86
1, 159662, Note_off_c, 0, 67, 59
1, 159868, Control_c, 0, 64, 84
1, 159883, Note_on_c, 0, 69, 83
1, 159886, Control_c, 0, 64, 49
1, 159896, Note_off_c, 0, 70, 61
1, 159903, Control_c, 0, 64, 45
1, 159922, Control_c, 0, 64, 66
1, 159942, Control_c, 0, 64, 127
1, 160132, Note_on_c, 0, 67, 82
1, 160299, Note_off_c, 0, 69, 48
1, 160437, Note_on_c, 0, 65, 79
1, 160441, Note_on_c, 0, 62, 79
1, 160441, Note_on_c, 0, 69, 86
1, 160459, Note_off_c, 0, 73, 58
1, 160464, Control_c, 0, 64, 107
1, 160481, Note_off_c, 0, 67, 57
1, 160483, Control_c, 0, 64, 62
1, 160503, Control_c, 0, 64, 16
1, 160521, Control_c, 0, 64, 0
1, 160989, Note_on_c, 0, 74, 86
1, 161083, Control_c, 0, 64, 24
1, 161102, Control_c, 0, 64, 53
1, 161121, Control_c, 0, 64, 69
1, 161140, Control_c, 0, 64, 71
1, 161158, Control_c, 0, 64, 73
1, 161178, Control_c, 0, 64, 79
1, 161196, Control_c, 0, 64, 94
1, 161214, Control_c, 0, 64, 127
1, 161242, Note_on_c, 0, 73, 88
1, 161269, Note_off_c, 0, 76, 60
1, 161282, Note_off_c, 0, 74, 62
1, 161526, Note_on_c, 0, 70, 82
1, 161526, Note_on_c, 0, 74, 86
1, 161553, Control_c, 0, 64, 84
1, 161562, Note_off_c, 0, 73, 58
1, 161570, Control_c, 0, 64, 43
1, 161587, Note_off_c, 0, 69, 43
1, 161588, Control_c, 0, 64, 0
1, 161738, Control_c, 0, 64, 21
1, 161758, Control_c, 0, 64, 48
1, 161775, Control_c, 0, 64, 73
1, 161795, Control_c, 0, 64, 108
1, 161814, Control_c, 0, 64, 127
1, 162091, Note_on_c, 0, 67, 80
1, 162094, Control_c, 0, 64, 70
1, 162098, Note_off_c, 0, 65, 62
1, 162113, Control_c, 0, 64, 30
1, 162151, Control_c, 0, 64, 17
1, 162169, Control_c, 0, 64, 56
1, 162188, Control_c, 0, 64, 127
1, 162339, Note_on_c, 0, 65, 85
1, 162374, Note_off_c, 0, 67, 61
1, 162625, Note_on_c, 0, 76, 80
1, 162626, Note_on_c, 0, 64, 80
1, 162629, Note_on_c, 0, 60, 76
1, 162630, Note_off_c, 0, 62, 62
1, 162652, Note_off_c, 0, 74, 56
1, 162654, Control_c, 0, 64, 85
1, 162667, Note_off_c, 0, 65, 60
1, 162674, Control_c, 0, 64, 39
1, 162693, Control_c, 0, 64, 0
1, 163191, Note_on_c, 0, 69, 80
1, 163198, Control_c, 0, 64, 16
1, 163218, Control_c, 0, 64, 34
1, 163226, Note_off_c, 0, 70, 63
1, 163237, Control_c, 0, 64, 56
1, 163254, Control_c, 0, 64, 71
1, 163275, Control_c, 0, 64, 82
1, 163293, Control_c, 0, 64, 97
1, 163310, Control_c, 0, 64, 127
1, 163432, Note_on_c, 0, 67, 80
1, 163453, Note_off_c, 0, 69, 60
1, 163725, Note_on_c, 0, 69, 85
1, 163741, Control_c, 0, 64, 77
1, 163762, Control_c, 0, 64, 38
1, 163766, Note_off_c, 0, 67, 61
1, 163778, Control_c, 0, 64, 0
1, 163966, Control_c, 0, 64, 14
1, 163985, Control_c, 0, 64, 35
1, 164003, Control_c, 0, 64, 58
1, 164023, Control_c, 0, 64, 74
1, 164041, Control_c, 0, 64, 89
1, 164059, Control_c, 0, 64, 118
1, 164078, Control_c, 0, 64, 127
1, 164257, Note_on_c, 0, 65, 76
1, 164297, Note_off_c, 0, 64, 57
1, 164496, Note_on_c, 0, 64, 80
1, 164542, Note_off_c, 0, 65, 60
1, 164812, Note_on_c, 0, 58, 70
1, 164813, Note_on_c, 0, 62, 76
1, 164828, Control_c, 0, 64, 68
1, 164846, Control_c, 0, 64, 22
1, 164853, Note_off_c, 0, 64, 38
1, 164857, Note_off_c, 0, 60, 52
1, 164864, Control_c, 0, 64, 0
1, 165344, Note_on_c, 0, 74, 81
1, 165426, Control_c, 0, 64, 11
1, 165445, Control_c, 0, 64, 39
1, 165463, Control_c, 0, 64, 67
1, 165483, Control_c, 0, 64, 88
1, 165502, Control_c, 0, 64, 127
1, 165606, Note_on_c, 0, 73, 82
1, 165651, Note_off_c, 0, 76, 60
1, 165656, Note_off_c, 0, 74, 60
1, 165694, Note_off_c, 0, 69, 56
1, 165896, Note_on_c, 0, 67, 77
1, 165902, Note_on_c, 0, 74, 81
1, 165913, Control_c, 0, 64, 83
1, 165931, Control_c, 0, 64, 47
1, 165950, Control_c, 0, 64, 0
1, 165985, Note_off_c, 0, 73, 58
1, 166118, Control_c, 0, 64, 13
1, 166137, Control_c, 0, 64, 20
1, 166156, Control_c, 0, 64, 39
1, 166175, Control_c, 0, 64, 66
1, 166194, Control_c, 0, 64, 91
1, 166212, Control_c, 0, 64, 127
1, 166444, Note_on_c, 0, 64, 79
1, 166455, Control_c, 0, 64, 121
1, 166475, Control_c, 0, 64, 68
1, 166493, Control_c, 0, 64, 33
1, 166512, Control_c, 0, 64, 17
1, 166530, Control_c, 0, 64, 33
1, 166549, Control_c, 0, 64, 72
1, 166568, Control_c, 0, 64, 127
1, 166578, Note_off_c, 0, 62, 58
1, 166702, Note_off_c, 0, 67, 62
1, 166948, Note_off_c, 0, 58, 60
1, 166958, Note_on_c, 0, 69, 79
1, 166966, Note_on_c, 0, 65, 72
1, 166973, Note_on_c, 0, 57, 63
1, 166977, Note_off_c, 0, 64, 59
1, 166998, Control_c, 0, 64, 67
1, 167017, Control_c, 0, 64, 22
1, 167037, Control_c, 0, 64, 0
1, 167205, Control_c, 0, 64, 32
1, 167223, Control_c, 0, 64, 68
1, 167225, Note_on_c, 0, 77, 80
1, 167242, Control_c, 0, 64, 114
1, 167260, Control_c, 0, 64, 127
1, 167275, Note_off_c, 0, 74, 61
1, 167469, Note_on_c, 0, 76, 80
1, 167504, Control_c, 0, 64, 100
1, 167523, Control_c, 0, 64, 69
1, 167537, Note_off_c, 0, 77, 55
1, 167541, Control_c, 0, 64, 61
1, 167560, Control_c, 0, 64, 71
1, 167581, Control_c, 0, 64, 94
1, 167597, Control_c, 0, 64, 127
1, 167704, Note_on_c, 0, 74, 80
1, 167934, Control_c, 0, 64, 109
1, 167950, Note_off_c, 0, 76, 64
1, 167950, Note_on_c, 0, 76, 21
1, 167954, Control_c, 0, 64, 68
1, 167971, Control_c, 0, 64, 28
1, 167973, Note_on_c, 0, 64, 73
1, 167984, Note_on_c, 0, 81, 74
1, 167990, Control_c, 0, 64, 0
1, 168006, Note_off_c, 0, 65, 58
1, 168024, Note_off_c, 0, 74, 60
1, 168029, Note_off_c, 0, 76, 60
1, 168065, Control_c, 0, 64, 25
1, 168084, Control_c, 0, 64, 61
1, 168104, Control_c, 0, 64, 94
1, 168122, Control_c, 0, 64, 127
1, 168219, Note_on_c, 0, 71, 78
1, 168290, Note_off_c, 0, 81, 60
1, 168491, Note_on_c, 0, 55, 67
1, 168495, Control_c, 0, 64, 83
1, 168503, Note_on_c, 0, 73, 75
1, 168511, Note_off_c, 0, 57, 57
1, 168514, Control_c, 0, 64, 43
1, 168533, Control_c, 0, 64, 0
1, 168542, Note_off_c, 0, 71, 57
1, 168646, Control_c, 0, 64, 28
1, 168663, Control_c, 0, 64, 57
1, 168683, Control_c, 0, 64, 80
1, 168702, Control_c, 0, 64, 112
1, 168721, Control_c, 0, 64, 127
1, 168739, Note_on_c, 0, 76, 75
1, 168777, Note_off_c, 0, 73, 61
1, 168804, Note_off_c, 0, 69, 57
1, 169020, Note_on_c, 0, 57, 70
1, 169020, Control_c, 0, 64, 93
1, 169025, Note_on_c, 0, 53, 67
1, 169026, Note_off_c, 0, 55, 62
1, 169039, Control_c, 0, 64, 57
1, 169058, Control_c, 0, 64, 14
1, 169076, Control_c, 0, 64, 0
1, 169094, Note_off_c, 0, 64, 52
1, 169245, Control_c, 0, 64, 15
1, 169263, Control_c, 0, 64, 45
1, 169276, Note_on_c, 0, 74, 77
1, 169282, Control_c, 0, 64, 73
1, 169302, Control_c, 0, 64, 95
1, 169319, Control_c, 0, 64, 127
1, 169528, Note_on_c, 0, 72, 80
1, 169775, Note_on_c, 0, 70, 81
1, 169784, Note_off_c, 0, 76, 53
1, 169789, Note_off_c, 0, 74, 59
1, 169802, Note_off_c, 0, 72, 59
1, 170011, Control_c, 0, 64, 91
1, 170026, Note_off_c, 0, 53, 60
1, 170029, Control_c, 0, 64, 61
1, 170038, Note_on_c, 0, 54, 64
1, 170038, Note_on_c, 0, 74, 73
1, 170051, Control_c, 0, 64, 28
1, 170068, Control_c, 0, 64, 0
1, 170081, Note_off_c, 0, 70, 62
1, 170198, Control_c, 0, 64, 9
1, 170218, Control_c, 0, 64, 25
1, 170236, Control_c, 0, 64, 50
1, 170256, Control_c, 0, 64, 70
1, 170274, Control_c, 0, 64, 82
1, 170284, Note_on_c, 0, 72, 79
1, 170294, Control_c, 0, 64, 98
1, 170312, Control_c, 0, 64, 127
1, 170546, Note_on_c, 0, 70, 80
1, 170550, Note_on_c, 0, 62, 65
1, 170554, Control_c, 0, 64, 101
1, 170574, Control_c, 0, 64, 60
1, 170584, Note_off_c, 0, 57, 61
1, 170592, Control_c, 0, 64, 14
1, 170610, Control_c, 0, 64, 0
1, 170686, Control_c, 0, 64, 35
1, 170705, Control_c, 0, 64, 73
1, 170724, Control_c, 0, 64, 127
1, 170798, Note_on_c, 0, 69, 80
1, 170810, Note_off_c, 0, 72, 46
1, 170852, Note_off_c, 0, 70, 60
1, 170860, Note_off_c, 0, 74, 43
1, 171023, Control_c, 0, 64, 114
1, 171042, Control_c, 0, 64, 65
1, 171055, Note_on_c, 0, 55, 50
1, 171061, Control_c, 0, 64, 20
1, 171065, Note_off_c, 0, 54, 56
1, 171073, Note_on_c, 0, 70, 80
1, 171079, Control_c, 0, 64, 0
1, 171118, Note_off_c, 0, 69, 55
1, 171121, Note_off_c, 0, 62, 56
1, 171154, Control_c, 0, 64, 11
1, 171174, Control_c, 0, 64, 43
1, 171192, Control_c, 0, 64, 82
1, 171209, Control_c, 0, 64, 127
1, 171322, Note_on_c, 0, 60, 64
1, 171337, Note_on_c, 0, 69, 76
1, 171576, Note_off_c, 0, 69, 58
1, 171579, Note_on_c, 0, 67, 73
1, 171588, Note_on_c, 0, 58, 52
1, 171588, Control_c, 0, 64, 94
1, 171603, Control_c, 0, 64, 59
1, 171617, Note_off_c, 0, 60, 46
1, 171621, Control_c, 0, 64, 29
1, 171659, Control_c, 0, 64, 51
1, 171679, Control_c, 0, 64, 85
1, 171697, Control_c, 0, 64, 127
1, 171811, Note_on_c, 0, 66, 75
1, 171817, Note_on_c, 0, 57, 63
1, 171824, Note_off_c, 0, 58, 60
1, 171843, Note_off_c, 0, 55, 52
1, 171845, Note_off_c, 0, 67, 59
1, 171891, Note_off_c, 0, 57, 62
1, 172071, Note_on_c, 0, 55, 63
1, 172074, Note_on_c, 0, 67, 68
1, 172078, Note_on_c, 0, 62, 58
1, 172091, Control_c, 0, 64, 92
1, 172093, Note_off_c, 0, 66, 52
1, 172109, Control_c, 0, 64, 68
1, 172127, Control_c, 0, 64, 50
1, 172146, Control_c, 0, 64, 41
1, 172164, Control_c, 0, 64, 36
1, 172202, Control_c, 0, 64, 28
1, 172221, Control_c, 0, 64, 20
1, 172239, Control_c, 0, 64, 15
1, 172322, Note_on_c, 0, 53, 67
1, 172586, Note_on_c, 0, 52, 72
1, 172623, Note_off_c, 0, 53, 57
1, 172838, Control_c, 0, 64, 24
1, 172845, Note_on_c, 0, 50, 72
1, 172856, Note_off_c, 0, 52, 60
1, 172856, Control_c, 0, 64, 34
1, 172875, Control_c, 0, 64, 47
1, 172894, Control_c, 0, 64, 59
1, 172913, Control_c, 0, 64, 65
1, 172932, Control_c, 0, 64, 70
1, 172951, Control_c, 0, 64, 76
1, 172970, Control_c, 0, 64, 86
1, 172988, Control_c, 0, 64, 103
1, 173006, Control_c, 0, 64, 127
1, 173119, Control_c, 0, 64, 96
1, 173134, Note_on_c, 0, 49, 68
1, 173138, Control_c, 0, 64, 67
1, 173157, Control_c, 0, 64, 38
1, 173167, Note_off_c, 0, 50, 49
1, 173167, Note_on_c, 0, 64, 69
1, 173175, Note_off_c, 0, 55, 60
1, 173194, Control_c, 0, 64, 0
1, 173215, Note_off_c, 0, 67, 60
1, 173239, Note_off_c, 0, 62, 37
1, 173240, Note_off_c, 0, 70, 64
1, 173287, Control_c, 0, 64, 16
1, 173307, Control_c, 0, 64, 35
1, 173327, Control_c, 0, 64, 59
1, 173344, Control_c, 0, 64, 74
1, 173363, Control_c, 0, 64, 84
1, 173381, Control_c, 0, 64, 95
1, 173394, Note_on_c, 0, 70, 79
1, 173401, Control_c, 0, 64, 121
1, 173418, Control_c, 0, 64, 127
1, 173431, Note_off_c, 0, 64, 59
1, 173661, Note_on_c, 0, 52, 69
1, 173665, Note_on_c, 0, 69, 73
1, 173680, Control_c, 0, 64, 93
1, 173699, Note_off_c, 0, 70, 62
1, 173700, Control_c, 0, 64, 61
1, 173719, Control_c, 0, 64, 28
1, 173737, Control_c, 0, 64, 0
1, 173830, Control_c, 0, 64, 19
1, 173850, Control_c, 0, 64, 43
1, 173868, Control_c, 0, 64, 70
1, 173887, Control_c, 0, 64, 89
1, 173897, Note_on_c, 0, 67, 74
1, 173906, Control_c, 0, 64, 127
1, 173944, Note_off_c, 0, 69, 58
1, 174162, Note_on_c, 0, 69, 75
1, 174167, Control_c, 0, 64, 87
1, 174172, Note_on_c, 0, 57, 64
1, 174187, Control_c, 0, 64, 54
1, 174189, Note_off_c, 0, 67, 57
1, 174196, Note_off_c, 0, 52, 54
1, 174206, Control_c, 0, 64, 17
1, 174223, Control_c, 0, 64, 0
1, 174317, Control_c, 0, 64, 16
1, 174336, Control_c, 0, 64, 45
1, 174355, Control_c, 0, 64, 75
1, 174374, Control_c, 0, 64, 104
1, 174393, Control_c, 0, 64, 127
1, 174414, Note_on_c, 0, 67, 76
1, 174636, Control_c, 0, 64, 103
1, 174654, Control_c, 0, 64, 69
1, 174658, Note_on_c, 0, 45, 60
1, 174670, Note_off_c, 0, 49, 57
1, 174674, Control_c, 0, 64, 40
1, 174676, Note_on_c, 0, 65, 66
1, 174691, Control_c, 0, 64, 11
1, 174709, Control_c, 0, 64, 0
1, 174841, Control_c, 0, 64, 15
1, 174861, Control_c, 0, 64, 38
1, 174878, Control_c, 0, 64, 65
1, 174898, Control_c, 0, 64, 86
1, 174913, Note_on_c, 0, 64, 66
1, 174916, Control_c, 0, 64, 127
1, 174961, Note_off_c, 0, 67, 56
1, 174965, Note_off_c, 0, 65, 59
1, 174981, Poly_aftertouch_c, 0, 69, 22
1, 175027, Note_off_c, 0, 69, 33
1, 175027, Poly_aftertouch_c, 0, 69, 0
1, 175159, Control_c, 0, 64, 94
1, 175178, Control_c, 0, 64, 63
1, 175186, Note_off_c, 0, 45, 55
1, 175192, Note_on_c, 0, 65, 62
1, 175197, Control_c, 0, 64, 33
1, 175200, Note_on_c, 0, 50, 56
1, 175215, Control_c, 0, 64, 9
1, 175224, Note_off_c, 0, 64, 61
1, 175242, Note_off_c, 0, 57, 54
1, 175453, Note_on_c, 0, 55, 49
1, 175455, Note_on_c, 0, 64, 57
1, 175698, Note_on_c, 0, 53, 51
1, 175701, Note_on_c, 0, 62, 62
1, 175707, Note_off_c, 0, 64, 59
1, 175715, Note_off_c, 0, 55, 57
1, 175777, Control_c, 0, 64, 15
1, 175796, Control_c, 0, 64, 24
1, 175815, Control_c, 0, 64, 38
1, 175833, Control_c, 0, 64, 55
1, 175853, Control_c, 0, 64, 64
1, 175871, Control_c, 0, 64, 66
1, 175890, Control_c, 0, 64, 67
1, 175908, Control_c, 0, 64, 69
1, 175927, Control_c, 0, 64, 76
1, 175946, Control_c, 0, 64, 85
1, 175947, Note_on_c, 0, 61, 64
1, 175954, Note_on_c, 0, 52, 55
1, 175955, Note_off_c, 0, 62, 56
1, 175955, Note_off_c, 0, 53, 55
1, 175964, Control_c, 0, 64, 99
1, 175983, Control_c, 0, 64, 127
1, 175998, Note_off_c, 0, 50, 54
1, 176016, Note_off_c, 0, 52, 56
1, 176208, Control_c, 0, 64, 115
1, 176224, Note_on_c, 0, 62, 60
1, 176227, Control_c, 0, 64, 85
1, 176231, Note_on_c, 0, 50, 58
1, 176232, Note_on_c, 0, 57, 56
1, 176245, Control_c, 0, 64, 65
1, 176253, Note_off_c, 0, 61, 56
1, 176264, Control_c, 0, 64, 50
1, 176283, Control_c, 0, 64, 41
1, 176320, Control_c, 0, 64, 37
1, 176474, Note_on_c, 0, 48, 46
1, 176601, Control_c, 0, 64, 33
1, 176657, Control_c, 0, 64, 28
1, 176736, Note_on_c, 0, 46, 55
1, 176757, Note_off_c, 0, 48, 54
1, 176769, Control_c, 0, 64, 32
1, 176789, Control_c, 0, 64, 45
1, 176808, Control_c, 0, 64, 60
1, 176826, Control_c, 0, 64, 70
1, 176844, Control_c, 0, 64, 78
1, 176865, Control_c, 0, 64, 87
1, 176882, Control_c, 0, 64, 102
1, 176900, Control_c, 0, 64, 127
1, 176972, Note_off_c, 0, 46, 48
1, 176973, Note_on_c, 0, 45, 56
1, 176985, Note_off_c, 0, 57, 59
1, 177237, Control_c, 0, 64, 90
1, 177256, Control_c, 0, 64, 64
1, 177268, Note_on_c, 0, 58, 55
1, 177272, Note_off_c, 0, 45, 58
1, 177275, Control_c, 0, 64, 39
1, 177282, Note_off_c, 0, 50, 53
1, 177287, Note_on_c, 0, 43, 43
1, 177293, Control_c, 0, 64, 18
1, 177462, Control_c, 0, 64, 27
1, 177481, Control_c, 0, 64, 45
1, 177500, Control_c, 0, 64, 64
1, 177508, Note_on_c, 0, 69, 63
1, 177518, Control_c, 0, 64, 73
1, 177537, Control_c, 0, 64, 79
1, 177555, Control_c, 0, 64, 84
1, 177567, Note_off_c, 0, 65, 59
1, 177573, Control_c, 0, 64, 93
1, 177582, Note_off_c, 0, 62, 61
1, 177593, Control_c, 0, 64, 116
1, 177612, Control_c, 0, 64, 127
1, 177780, Control_c, 0, 64, 108
1, 177784, Note_on_c, 0, 50, 65
1, 177788, Note_on_c, 0, 67, 65
1, 177800, Control_c, 0, 64, 72
1, 177818, Control_c, 0, 64, 43
1, 177837, Control_c, 0, 64, 23
1, 177875, Control_c, 0, 64, 40
1, 177892, Control_c, 0, 64, 63
1, 177912, Control_c, 0, 64, 85
1, 177930, Control_c, 0, 64, 127
1, 178028, Note_on_c, 0, 65, 72
1, 178271, Note_off_c, 0, 58, 36
1, 178286, Control_c, 0, 64, 79
1, 178290, Note_on_c, 0, 64, 70
1, 178299, Note_on_c, 0, 55, 66
1, 178304, Control_c, 0, 64, 47
1, 178323, Control_c, 0, 64, 16
1, 178333, Note_off_c, 0, 65, 50
1, 178341, Note_off_c, 0, 50, 62
1, 178355, Poly_aftertouch_c, 0, 69, 20
1, 178360, Control_c, 0, 64, 8
1, 178373, Note_off_c, 0, 69, 28
1, 178373, Poly_aftertouch_c, 0, 69, 0
1, 178379, Control_c, 0, 64, 21
1, 178398, Control_c, 0, 64, 46
1, 178417, Control_c, 0, 64, 75
1, 178435, Control_c, 0, 64, 110
1, 178453, Control_c, 0, 64, 127
1, 178543, Note_on_c, 0, 62, 78
1, 178544, Note_off_c, 0, 67, 19
1, 178555, Note_off_c, 0, 64, 61
1, 178798, Note_on_c, 0, 61, 71
1, 178810, Control_c, 0, 64, 80
1, 178812, Note_on_c, 0, 52, 68
1, 178829, Control_c, 0, 64, 45
1, 178846, Control_c, 0, 64, 8
1, 178858, Note_off_c, 0, 62, 59
1, 178866, Control_c, 0, 64, 0
1, 178903, Control_c, 0, 64, 14
1, 178921, Control_c, 0, 64, 42
1, 178941, Control_c, 0, 64, 80
1, 178959, Control_c, 0, 64, 127
1, 179060, Note_on_c, 0, 59, 78
1, 179083, Note_off_c, 0, 43, 60
1, 179105, Note_off_c, 0, 61, 59
1, 179369, Note_on_c, 0, 62, 66
1, 179376, Note_on_c, 0, 45, 80
1, 179408, Note_off_c, 0, 59, 59
1, 179446, Control_c, 0, 64, 89
1, 179465, Control_c, 0, 64, 69
1, 179483, Control_c, 0, 64, 53
1, 179502, Control_c, 0, 64, 45
1, 179520, Control_c, 0, 64, 42
1, 179577, Control_c, 0, 64, 34
1, 179597, Control_c, 0, 64, 29
1, 179615, Control_c, 0, 64, 24
1, 179642, Note_on_c, 0, 61, 73
1, 179670, Control_c, 0, 64, 20
1, 179709, Note_off_c, 0, 62, 56
1, 179727, Control_c, 0, 64, 15
1, 179783, Control_c, 0, 64, 11
1, 179911, Note_on_c, 0, 59, 75
1, 179960, Note_off_c, 0, 61, 60
1, 180064, Control_c, 0, 64, 16
1, 180082, Control_c, 0, 64, 29
1, 180101, Control_c, 0, 64, 51
1, 180119, Control_c, 0, 64, 70
1, 180139, Control_c, 0, 64, 82
1, 180158, Control_c, 0, 64, 103
1, 180159, Note_on_c, 0, 57, 77
1, 180166, Note_off_c, 0, 59, 63
1, 180175, Control_c, 0, 64, 127
1, 180404, Note_on_c, 0, 61, 67
1, 180487, Note_on_c, 0, 64, 63
1, 180617, Note_on_c, 0, 69, 88
1, 180663, Control_c, 0, 64, 103
1, 180682, Control_c, 0, 64, 68
1, 180700, Control_c, 0, 64, 33
1, 180719, Control_c, 0, 64, 0
1, 180925, Control_c, 0, 64, 17
1, 180945, Control_c, 0, 64, 42
1, 180962, Control_c, 0, 64, 69
1, 180981, Control_c, 0, 64, 89
1, 181000, Control_c, 0, 64, 127
1, 181089, Note_off_c, 0, 55, 58
1, 181247, Note_on_c, 0, 53, 77
1, 181251, Note_off_c, 0, 52, 60
1, 181513, Note_on_c, 0, 52, 81
1, 181539, Note_off_c, 0, 53, 59
1, 181561, Control_c, 0, 64, 118
1, 181580, Control_c, 0, 64, 88
1, 181598, Control_c, 0, 64, 81
1, 181618, Control_c, 0, 64, 87
1, 181636, Control_c, 0, 64, 103
1, 181656, Control_c, 0, 64, 127
1, 181805, Control_c, 0, 64, 102
1, 181825, Control_c, 0, 64, 72
1, 181842, Control_c, 0, 64, 41
1, 181844, Note_off_c, 0, 52, 60
1, 181848, Note_on_c, 0, 53, 74
1, 181861, Control_c, 0, 64, 0
1, 181973, Control_c, 0, 64, 11
1, 181992, Control_c, 0, 64, 35
1, 182010, Control_c, 0, 64, 67
1, 182030, Control_c, 0, 64, 96
1, 182048, Control_c, 0, 64, 127
1, 182065, Note_off_c, 0, 61, 57
1, 182458, Note_on_c, 0, 62, 81
1, 182460, Control_c, 0, 64, 87
1, 182479, Control_c, 0, 64, 58
1, 182497, Control_c, 0, 64, 33
1, 182505, Note_off_c, 0, 64, 61
1, 182516, Control_c, 0, 64, 26
1, 182534, Control_c, 0, 64, 32
1, 182554, Control_c, 0, 64, 50
1, 182571, Control_c, 0, 64, 73
1, 182591, Control_c, 0, 64, 102
1, 182610, Control_c, 0, 64, 127
1, 182646, Note_off_c, 0, 53, 57
1, 182721, Control_c, 0, 67, 8
1, 182760, Control_c, 0, 67, 17
1, 182778, Control_c, 0, 67, 23
1, 182796, Control_c, 0, 67, 29
1, 182811, Note_on_c, 0, 53, 61
1, 182814, Control_c, 0, 67, 36
1, 182835, Control_c, 0, 67, 41
1, 182852, Control_c, 0, 67, 45
1, 182857, Note_off_c, 0, 53, 59
1, 182890, Control_c, 0, 67, 51
1, 182905, Note_on_c, 0, 52, 46
1, 182928, Control_c, 0, 67, 56
1, 182945, Note_off_c, 0, 52, 50
1, 182965, Control_c, 0, 67, 62
1, 182970, Note_on_c, 0, 53, 62
1, 183015, Note_off_c, 0, 53, 60
1, 183023, Note_on_c, 0, 67, 65
1, 183044, Note_on_c, 0, 52, 59
1, 183059, Control_c, 0, 64, 79
1, 183078, Control_c, 0, 64, 53
1, 183092, Note_off_c, 0, 69, 54
1, 183092, Poly_aftertouch_c, 0, 69, 0
1, 183095, Control_c, 0, 64, 30
1, 183115, Control_c, 0, 64, 18
1, 183395, Control_c, 0, 64, 13
1, 183433, Control_c, 0, 67, 67
1, 183452, Control_c, 0, 64, 0
1, 183453, Control_c, 0, 67, 72
1, 183472, Control_c, 0, 67, 77
1, 183507, Control_c, 0, 67, 84
1, 183526, Control_c, 0, 67, 88
1, 183545, Control_c, 0, 67, 92
1, 183564, Control_c, 0, 67, 96
1, 183583, Control_c, 0, 67, 100
1, 183601, Control_c, 0, 67, 106
1, 183620, Control_c, 0, 67, 113
1, 183639, Control_c, 0, 67, 121
1, 183658, Control_c, 0, 67, 127
1, 183945, Note_on_c, 0, 61, 50
1, 184011, Note_off_c, 0, 62, 56
1, 184107, Control_c, 0, 64, 19
1, 184125, Control_c, 0, 64, 40
1, 184145, Control_c, 0, 64, 62
1, 184163, Control_c, 0, 64, 74
1, 184182, Control_c, 0, 64, 84
1, 184200, Control_c, 0, 64, 93
1, 184219, Control_c, 0, 64, 105
1, 184238, Control_c, 0, 64, 127
1, 184371, Note_off_c, 0, 61, 57
1, 184396, Note_off_c, 0, 57, 56
1, 184456, Note_off_c, 0, 52, 35
1, 184986, Note_on_c, 0, 57, 62
1, 185006, Control_c, 0, 64, 108
1, 185023, Control_c, 0, 64, 84
1, 185029, Note_on_c, 0, 38, 41
1, 185043, Control_c, 0, 64, 66
1, 185047, Note_on_c, 0, 50, 36
1, 185050, Note_off_c, 0, 45, 35
1, 185061, Control_c, 0, 64, 52
1, 185079, Control_c, 0, 64, 44
1, 185099, Control_c, 0, 64, 39
1, 185118, Control_c, 0, 64, 34
1, 185124, Poly_aftertouch_c, 0, 62, 127
1, 185136, Control_c, 0, 64, 27
1, 185156, Control_c, 0, 64, 19
1, 185193, Control_c, 0, 64, 15
1, 185306, Control_c, 0, 64, 11
1, 185418, Control_c, 0, 64, 0
1, 185657, Note_on_c, 0, 65, 52
1, 185773, Control_c, 0, 64, 8
1, 185791, Control_c, 0, 64, 14
1, 185811, Control_c, 0, 64, 21
1, 185829, Control_c, 0, 64, 30
1, 185847, Control_c, 0, 64, 43
1, 185867, Control_c, 0, 64, 58
1, 185886, Control_c, 0, 64, 65
1, 185900, Note_on_c, 0, 64, 56
1, 185904, Control_c, 0, 64, 67
1, 185933, Poly_aftertouch_c, 0, 62, 0
1, 185936, Note_off_c, 0, 65, 51
1, 185960, Control_c, 0, 64, 70
1, 185979, Control_c, 0, 64, 74
1, 185997, Control_c, 0, 64, 81
1, 186017, Control_c, 0, 64, 89
1, 186035, Control_c, 0, 64, 96
1, 186053, Control_c, 0, 64, 100
1, 186110, Control_c, 0, 64, 92
1, 186128, Control_c, 0, 64, 85
1, 186147, Control_c, 0, 64, 76
1, 186166, Control_c, 0, 64, 64
1, 186184, Note_on_c, 0, 62, 62
1, 186184, Control_c, 0, 64, 48
1, 186186, Note_off_c, 0, 64, 56
1, 186202, Note_on_c, 0, 65, 52
1, 186202, Control_c, 0, 64, 25
1, 186223, Control_c, 0, 64, 0
1, 186242, Note_off_c, 0, 67, 55
1, 186254, Note_off_c, 0, 57, 38
1, 186653, Control_c, 0, 64, 12
1, 186671, Control_c, 0, 64, 24
1, 186691, Control_c, 0, 64, 40
1, 186709, Control_c, 0, 64, 57
1, 186721, Note_on_c, 0, 67, 50
1, 186727, Control_c, 0, 64, 64
1, 186728, Note_off_c, 0, 65, 56
1, 186746, Control_c, 0, 64, 66
1, 186765, Control_c, 0, 64, 67
1, 186779, Note_off_c, 0, 38, 61
1, 186802, Control_c, 0, 64, 72
1, 186821, Control_c, 0, 64, 78
1, 186841, Control_c, 0, 64, 85
1, 186843, Note_off_c, 0, 50, 62
1, 186858, Control_c, 0, 64, 91
1, 186877, Control_c, 0, 64, 97
1, 186896, Control_c, 0, 64, 101
1, 186933, Control_c, 0, 64, 105
1, 186968, Note_on_c, 0, 65, 57
1, 186971, Control_c, 0, 64, 110
1, 186989, Control_c, 0, 64, 127
1, 186996, Note_off_c, 0, 67, 50
1, 187251, Control_c, 0, 64, 102
1, 187266, Note_on_c, 0, 64, 61
1, 187270, Control_c, 0, 64, 78
1, 187279, Note_off_c, 0, 65, 59
1, 187290, Control_c, 0, 64, 59
1, 187309, Control_c, 0, 64, 41
1, 187327, Control_c, 0, 64, 29
1, 187345, Control_c, 0, 64, 22
1, 187439, Control_c, 0, 64, 18
1, 187506, Note_on_c, 0, 71, 60
1, 187768, Note_on_c, 0, 76, 64
1, 187832, Control_c, 0, 64, 14
1, 187842, Note_off_c, 0, 71, 41
1, 188007, Note_on_c, 0, 80, 68
1, 188039, Note_off_c, 0, 76, 57
1, 188279, Note_on_c, 0, 81, 66
1, 188294, Note_off_c, 0, 62, 56
1, 188301, Note_off_c, 0, 80, 61
1, 188301, Note_on_c, 0, 60, 39
1, 188542, Note_on_c, 0, 76, 68
1, 188694, Note_off_c, 0, 81, 30
1, 188807, Note_on_c, 0, 72, 62
1, 188859, Note_off_c, 0, 76, 57
1, 189028, Note_off_c, 0, 72, 60
1, 189040, Note_on_c, 0, 69, 68
1, 189339, Note_on_c, 0, 74, 58
1, 189363, Note_on_c, 0, 66, 53
1, 189385, Note_off_c, 0, 64, 59
1, 189398, Note_off_c, 0, 69, 57
1, 189398, Poly_aftertouch_c, 0, 69, 0
1, 189887, Note_on_c, 0, 59, 49
1, 189948, Note_off_c, 0, 60, 52
1, 190126, Note_off_c, 0, 59, 59
1, 190140, Note_on_c, 0, 57, 46
1, 190190, Control_c, 0, 67, 123
1, 190303, Control_c, 0, 67, 119
1, 190420, Note_on_c, 0, 68, 55
1, 190426, Note_off_c, 0, 57, 62
1, 190438, Note_on_c, 0, 59, 43
1, 190488, Note_off_c, 0, 66, 57
1, 190546, Control_c, 0, 67, 111
1, 190565, Control_c, 0, 67, 102
1, 190584, Control_c, 0, 67, 90
1, 190603, Control_c, 0, 67, 75
1, 190620, Control_c, 0, 67, 61
1, 190640, Control_c, 0, 67, 50
1, 190658, Control_c, 0, 67, 43
1, 190695, Control_c, 0, 67, 39
1, 190958, Control_c, 0, 67, 35
1, 190966, Note_off_c, 0, 59, 60
1, 190969, Note_on_c, 0, 60, 38
1, 190995, Control_c, 0, 67, 27
1, 191013, Control_c, 0, 67, 16
1, 191052, Control_c, 0, 67, 0
1, 191070, Control_c, 0, 64, 21
1, 191088, Control_c, 0, 64, 25
1, 191108, Control_c, 0, 64, 33
1, 191126, Control_c, 0, 64, 43
1, 191145, Control_c, 0, 64, 53
1, 191163, Control_c, 0, 64, 58
1, 191211, Note_on_c, 0, 59, 39
1, 191219, Control_c, 0, 64, 60
1, 191238, Control_c, 0, 64, 62
1, 191257, Note_off_c, 0, 60, 36
1, 191257, Control_c, 0, 64, 64
1, 191276, Control_c, 0, 64, 66
1, 191295, Control_c, 0, 64, 68
1, 191332, Control_c, 0, 64, 73
1, 191351, Control_c, 0, 64, 77
1, 191370, Control_c, 0, 64, 82
1, 191389, Control_c, 0, 64, 85
1, 191407, Control_c, 0, 64, 83
1, 191426, Control_c, 0, 64, 76
1, 191445, Control_c, 0, 64, 66
1, 191463, Control_c, 0, 64, 55
1, 191482, Control_c, 0, 64, 43
1, 191488, Note_off_c, 0, 59, 50
1, 191492, Note_on_c, 0, 57, 46
1, 191496, Note_on_c, 0, 69, 54
1, 191501, Control_c, 0, 64, 28
1, 191519, Control_c, 0, 64, 14
1, 191530, Note_off_c, 0, 68, 61
1, 191537, Control_c, 0, 64, 9
1, 191613, Control_c, 0, 64, 18
1, 191631, Control_c, 0, 64, 31
1, 191651, Control_c, 0, 64, 50
1, 191668, Control_c, 0, 64, 67
1, 191688, Control_c, 0, 64, 76
1, 191706, Control_c, 0, 64, 82
1, 191726, Control_c, 0, 64, 86
1, 191742, Note_on_c, 0, 60, 55
1, 191744, Control_c, 0, 64, 91
1, 191763, Control_c, 0, 64, 99
1, 191782, Control_c, 0, 64, 114
1, 191800, Control_c, 0, 64, 127
1, 192006, Control_c, 0, 64, 86
1, 192016, Note_on_c, 0, 72, 74
1, 192021, Note_off_c, 0, 60, 59
1, 192024, Control_c, 0, 64, 62
1, 192033, Note_on_c, 0, 64, 47
1, 192045, Control_c, 0, 64, 38
1, 192062, Control_c, 0, 64, 20
1, 192081, Control_c, 0, 64, 13
1, 192155, Control_c, 0, 64, 29
1, 192175, Control_c, 0, 64, 49
1, 192193, Control_c, 0, 64, 67
1, 192213, Control_c, 0, 64, 78
1, 192230, Control_c, 0, 64, 88
1, 192249, Control_c, 0, 64, 99
1, 192262, Note_off_c, 0, 64, 62
1, 192262, Note_off_c, 0, 57, 48
1, 192268, Control_c, 0, 64, 127
1, 192274, Note_on_c, 0, 71, 79
1, 192278, Note_on_c, 0, 67, 54
1, 192313, Note_off_c, 0, 69, 56
1, 192313, Poly_aftertouch_c, 0, 69, 0
1, 192330, Note_off_c, 0, 72, 59
1, 192347, Note_off_c, 0, 74, 50
1, 192531, Control_c, 0, 64, 80
1, 192547, Control_c, 0, 64, 53
1, 192551, Note_on_c, 0, 72, 71
1, 192566, Control_c, 0, 64, 29
1, 192571, Note_on_c, 0, 66, 51
1, 192572, Note_off_c, 0, 67, 51
1, 192581, Note_on_c, 0, 69, 46
1, 192582, Note_off_c, 0, 71, 57
1, 192585, Control_c, 0, 64, 13
1, 192604, Control_c, 0, 64, 8
1, 192698, Control_c, 0, 64, 13
1, 192718, Control_c, 0, 64, 26
1, 192736, Control_c, 0, 64, 47
1, 192755, Control_c, 0, 64, 69
1, 192774, Control_c, 0, 64, 84
1, 192793, Control_c, 0, 64, 101
1, 192803, Note_off_c, 0, 66, 57
1, 192803, Note_on_c, 0, 62, 59
1, 192810, Control_c, 0, 64, 116
1, 192829, Control_c, 0, 64, 127
1, 193035, Control_c, 0, 64, 107
1, 193056, Control_c, 0, 64, 75
1, 193058, Note_off_c, 0, 62, 53
1, 193059, Note_on_c, 0, 74, 62
1, 193066, Note_on_c, 0, 59, 46
1, 193073, Control_c, 0, 64, 49
1, 193079, Note_off_c, 0, 72, 60
1, 193091, Control_c, 0, 64, 27
1, 193111, Control_c, 0, 64, 13
1, 193204, Control_c, 0, 64, 31
1, 193222, Control_c, 0, 64, 54
1, 193242, Control_c, 0, 64, 72
1, 193260, Control_c, 0, 64, 83
1, 193279, Control_c, 0, 64, 92
1, 193290, Note_off_c, 0, 59, 61
1, 193296, Control_c, 0, 64, 96
1, 193315, Control_c, 0, 64, 104
1, 193318, Note_on_c, 0, 62, 47
1, 193318, Note_on_c, 0, 72, 69
1, 193335, Control_c, 0, 64, 127
1, 193358, Note_off_c, 0, 74, 59
1, 193560, Control_c, 0, 64, 79
1, 193574, Note_on_c, 0, 71, 60
1, 193577, Note_off_c, 0, 62, 55
1, 193579, Control_c, 0, 64, 50
1, 193587, Note_on_c, 0, 55, 43
1, 193598, Control_c, 0, 64, 19
1, 193641, Note_off_c, 0, 72, 50
1, 193654, Control_c, 0, 64, 8
1, 193658, Note_off_c, 0, 69, 56
1, 193658, Poly_aftertouch_c, 0, 69, 0
1, 193672, Control_c, 0, 64, 24
1, 193690, Control_c, 0, 64, 51
1, 193710, Control_c, 0, 64, 78
1, 193728, Control_c, 0, 64, 110
1, 193746, Control_c, 0, 64, 127
1, 193821, Note_off_c, 0, 71, 62
1, 193829, Note_on_c, 0, 59, 50
1, 193931, Note_off_c, 0, 55, 35
1, 194066, Control_c, 0, 64, 88
1, 194073, Note_on_c, 0, 71, 77
1, 194083, Control_c, 0, 64, 57
1, 194096, Note_on_c, 0, 62, 53
1, 194102, Control_c, 0, 64, 27
1, 194105, Note_off_c, 0, 59, 59
1, 194121, Control_c, 0, 64, 8
1, 194177, Control_c, 0, 64, 14
1, 194197, Control_c, 0, 64, 32
1, 194214, Control_c, 0, 64, 60
1, 194233, Control_c, 0, 64, 86
1, 194252, Control_c, 0, 64, 127
1, 194312, Note_on_c, 0, 69, 79
1, 194318, Note_off_c, 0, 62, 63
1, 194332, Note_on_c, 0, 65, 62
1, 194347, Note_off_c, 0, 71, 59
1, 194570, Control_c, 0, 64, 108
1, 194589, Control_c, 0, 64, 70
1, 194591, Note_on_c, 0, 70, 75
1, 194608, Note_on_c, 0, 64, 49
1, 194608, Control_c, 0, 64, 39
1, 194621, Note_off_c, 0, 69, 56
1, 194621, Poly_aftertouch_c, 0, 69, 0
1, 194626, Control_c, 0, 64, 11
1, 194629, Note_off_c, 0, 65, 50
1, 194639, Note_on_c, 0, 67, 40
1, 194776, Control_c, 0, 64, 21
1, 194795, Control_c, 0, 64, 31
1, 194813, Control_c, 0, 64, 51
1, 194832, Control_c, 0, 64, 71
1, 194852, Control_c, 0, 64, 88
1, 194870, Note_on_c, 0, 60, 62
1, 194871, Control_c, 0, 64, 127
1, 194891, Note_off_c, 0, 64, 53
1, 195121, Note_on_c, 0, 72, 65
1, 195132, Control_c, 0, 64, 85
1, 195137, Note_on_c, 0, 57, 53
1, 195138, Note_off_c, 0, 60, 57
1, 195151, Control_c, 0, 64, 58
1, 195169, Control_c, 0, 64, 38
1, 195172, Note_off_c, 0, 70, 59
1, 195188, Control_c, 0, 64, 34
1, 195225, Control_c, 0, 64, 51
1, 195246, Control_c, 0, 64, 69
1, 195263, Control_c, 0, 64, 88
1, 195281, Control_c, 0, 64, 127
1, 195336, Note_off_c, 0, 57, 61
1, 195365, Note_on_c, 0, 70, 71
1, 195373, Note_off_c, 0, 72, 58
1, 195378, Note_on_c, 0, 60, 54
1, 195454, Note_off_c, 0, 70, 62
1, 195618, Control_c, 0, 64, 85
1, 195638, Note_on_c, 0, 69, 70
1, 195638, Control_c, 0, 64, 57
1, 195647, Note_on_c, 0, 53, 52
1, 195656, Control_c, 0, 64, 31
1, 195675, Note_off_c, 0, 60, 36
1, 195675, Control_c, 0, 64, 13
1, 195692, Note_off_c, 0, 67, 61
1, 195694, Control_c, 0, 64, 8
1, 195768, Control_c, 0, 64, 16
1, 195787, Control_c, 0, 64, 33
1, 195806, Control_c, 0, 64, 55
1, 195825, Control_c, 0, 64, 74
1, 195844, Control_c, 0, 64, 91
1, 195862, Control_c, 0, 64, 127
1, 195895, Note_on_c, 0, 64, 57
1, 195945, Note_off_c, 0, 53, 59
1, 196143, Control_c, 0, 64, 89
1, 196148, Note_on_c, 0, 60, 53
1, 196154, Note_on_c, 0, 57, 60
1, 196160, Note_off_c, 0, 64, 56
1, 196161, Control_c, 0, 64, 59
1, 196180, Control_c, 0, 64, 33
1, 196201, Control_c, 0, 64, 21
1, 196236, Control_c, 0, 64, 25
1, 196255, Control_c, 0, 64, 40
1, 196274, Control_c, 0, 64, 64
1, 196292, Control_c, 0, 64, 85
1, 196311, Control_c, 0, 64, 127
1, 196385, Note_off_c, 0, 57, 60
1, 196392, Note_on_c, 0, 64, 64
1, 196438, Note_off_c, 0, 60, 49
1, 196629, Control_c, 0, 64, 97
1, 196647, Control_c, 0, 64, 65
1, 196651, Note_on_c, 0, 50, 62
1, 196663, Note_on_c, 0, 65, 54
1, 196666, Control_c, 0, 64, 39
1, 196685, Control_c, 0, 64, 20
1, 196690, Note_off_c, 0, 64, 59
1, 196704, Control_c, 0, 64, 14
1, 196779, Control_c, 0, 64, 27
1, 196799, Control_c, 0, 64, 50
1, 196816, Control_c, 0, 64, 74
1, 196836, Control_c, 0, 64, 100
1, 196854, Control_c, 0, 64, 127
1, 196898, Note_on_c, 0, 62, 65
1, 196941, Note_off_c, 0, 50, 62
1, 196946, Note_off_c, 0, 65, 54
1, 197182, Note_on_c, 0, 57, 59
1, 197186, Note_on_c, 0, 53, 68
1, 197191, Control_c, 0, 64, 91
1, 197192, Note_off_c, 0, 62, 61
1, 197210, Control_c, 0, 64, 64
1, 197228, Control_c, 0, 64, 41
1, 197246, Control_c, 0, 64, 25
1, 197266, Control_c, 0, 64, 15
1, 197284, Control_c, 0, 64, 8
1, 197428, Note_on_c, 0, 60, 61
1, 197433, Control_c, 0, 64, 19
1, 197454, Control_c, 0, 64, 43
1, 197472, Control_c, 0, 64, 72
1, 197492, Control_c, 0, 64, 99
1, 197495, Note_off_c, 0, 57, 47
1, 197501, Note_off_c, 0, 69, 53
1, 197501, Poly_aftertouch_c, 0, 69, 0
1, 197508, Control_c, 0, 64, 127
1, 197691, Note_on_c, 0, 67, 69
1, 197704, Note_off_c, 0, 60, 58
1, 197711, Note_on_c, 0, 59, 55
1, 197714, Control_c, 0, 64, 92
1, 197735, Control_c, 0, 64, 63
1, 197752, Control_c, 0, 64, 39
1, 197771, Control_c, 0, 64, 26
1, 197827, Control_c, 0, 64, 31
1, 197845, Control_c, 0, 64, 46
1, 197866, Control_c, 0, 64, 64
1, 197884, Control_c, 0, 64, 79
1, 197902, Control_c, 0, 64, 99
1, 197921, Control_c, 0, 64, 127
1, 197951, Note_on_c, 0, 62, 63
1, 198201, Control_c, 0, 64, 99
1, 198220, Note_on_c, 0, 61, 59
1, 198220, Control_c, 0, 64, 67
1, 198222, Note_on_c, 0, 52, 55
1, 198238, Control_c, 0, 64, 41
1, 198258, Control_c, 0, 64, 21
1, 198264, Note_off_c, 0, 59, 55
1, 198279, Note_off_c, 0, 53, 49
1, 198280, Note_off_c, 0, 62, 54
1, 198333, Control_c, 0, 64, 39
1, 198352, Control_c, 0, 64, 60
1, 198370, Control_c, 0, 64, 74
1, 198389, Control_c, 0, 64, 87
1, 198408, Control_c, 0, 64, 101
1, 198426, Control_c, 0, 64, 127
1, 198472, Note_on_c, 0, 59, 57
1, 198475, Note_on_c, 0, 50, 61
1, 198502, Note_off_c, 0, 61, 55
1, 198507, Note_off_c, 0, 52, 48
1, 198690, Control_c, 0, 64, 114
1, 198707, Control_c, 0, 64, 78
1, 198726, Control_c, 0, 64, 52
1, 198738, Note_on_c, 0, 52, 67
1, 198741, Note_off_c, 0, 50, 64
1, 198744, Control_c, 0, 64, 27
1, 198747, Note_on_c, 0, 61, 60
1, 198763, Control_c, 0, 64, 9
1, 198795, Note_off_c, 0, 59, 50
1, 198912, Control_c, 0, 64, 17
1, 198932, Control_c, 0, 64, 30
1, 198950, Control_c, 0, 64, 48
1, 198969, Control_c, 0, 64, 65
1, 198987, Control_c, 0, 64, 73
1, 199007, Control_c, 0, 64, 80
1, 199011, Note_on_c, 0, 64, 62
1, 199025, Control_c, 0, 64, 89
1, 199041, Note_off_c, 0, 61, 58
1, 199043, Control_c, 0, 64, 107
1, 199063, Control_c, 0, 64, 127
1, 199230, Control_c, 0, 64, 96
1, 199247, Note_on_c, 0, 62, 60
1, 199250, Control_c, 0, 64, 65
1, 199251, Note_on_c, 0, 53, 48
1, 199259, Note_off_c, 0, 52, 58
1, 199269, Control_c, 0, 64, 38
1, 199288, Control_c, 0, 64, 16
1, 199307, Control_c, 0, 64, 10
1, 199372, Note_off_c, 0, 64, 50
1, 199380, Control_c, 0, 64, 19
1, 199400, Control_c, 0, 64, 33
1, 199419, Control_c, 0, 64, 55
1, 199437, Control_c, 0, 64, 75
1, 199457, Control_c, 0, 64, 97
1, 199475, Control_c, 0, 64, 127
1, 199492, Note_on_c, 0, 61, 61
1, 199499, Note_on_c, 0, 52, 55
1, 199535, Note_off_c, 0, 53, 49
1, 199536, Note_off_c, 0, 62, 61
1, 199737, Control_c, 0, 64, 112
1, 199756, Control_c, 0, 64, 74
1, 199773, Control_c, 0, 64, 45
1, 199778, Note_on_c, 0, 50, 49
1, 199785, Note_on_c, 0, 62, 62
1, 199790, Note_off_c, 0, 52, 56
1, 199792, Control_c, 0, 64, 19
1, 199800, Note_off_c, 0, 61, 60
1, 199822, Note_off_c, 0, 67, 58
1, 199924, Control_c, 0, 64, 9
1, 199943, Control_c, 0, 64, 17
1, 199961, Control_c, 0, 64, 30
1, 199980, Control_c, 0, 64, 50
1, 199998, Control_c, 0, 64, 69
1, 200018, Control_c, 0, 64, 81
1, 200035, Control_c, 0, 64, 92
1, 200047, Note_on_c, 0, 65, 63
1, 200054, Control_c, 0, 64, 102
1, 200074, Control_c, 0, 64, 127
1, 200310, Note_on_c, 0, 69, 68
1, 200316, Control_c, 0, 64, 82
1, 200328, Note_on_c, 0, 53, 50
1, 200330, Note_off_c, 0, 50, 61
1, 200335, Control_c, 0, 64, 56
1, 200355, Note_off_c, 0, 65, 59
1, 200356, Control_c, 0, 64, 32
1, 200373, Control_c, 0, 64, 18
1, 200448, Control_c, 0, 64, 38
1, 200467, Control_c, 0, 64, 64
1, 200486, Control_c, 0, 64, 86
1, 200504, Control_c, 0, 64, 127
1, 200556, Note_on_c, 0, 73, 78
1, 200565, Note_off_c, 0, 69, 59
1, 200565, Poly_aftertouch_c, 0, 69, 0
1, 200608, Note_off_c, 0, 53, 59
1, 200823, Control_c, 0, 64, 78
1, 200835, Note_on_c, 0, 74, 68
1, 200841, Control_c, 0, 64, 46
1, 200858, Note_on_c, 0, 47, 47
1, 200860, Control_c, 0, 64, 14
1, 200889, Note_off_c, 0, 73, 62
1, 200991, Control_c, 0, 64, 37
1, 201010, Control_c, 0, 64, 66
1, 201028, Control_c, 0, 64, 93
1, 201047, Control_c, 0, 64, 127
1, 201082, Note_on_c, 0, 71, 65
1, 201120, Note_off_c, 0, 47, 61
1, 201309, Control_c, 0, 64, 115
1, 201328, Control_c, 0, 64, 71
1, 201346, Note_on_c, 0, 50, 62
1, 201349, Control_c, 0, 64, 38
1, 201350, Note_on_c, 0, 66, 68
1, 201365, Control_c, 0, 64, 12
1, 201385, Control_c, 0, 64, 8
1, 201401, Note_off_c, 0, 71, 61
1, 201401, Note_off_c, 0, 74, 52
1, 201422, Control_c, 0, 64, 16
1, 201439, Control_c, 0, 64, 41
1, 201459, Control_c, 0, 64, 80
1, 201478, Control_c, 0, 64, 127
1, 201578, Note_on_c, 0, 69, 73
1, 201608, Note_off_c, 0, 50, 62
1, 201609, Note_off_c, 0, 66, 60
1, 201848, Note_on_c, 0, 68, 69
1, 201851, Control_c, 0, 64, 98
1, 201854, Note_on_c, 0, 52, 67
1, 201870, Control_c, 0, 64, 59
1, 201890, Control_c, 0, 64, 17
1, 201908, Control_c, 0, 64, 0
1, 201949, Note_off_c, 0, 69, 54
1, 201949, Poly_aftertouch_c, 0, 69, 0
1, 202058, Control_c, 0, 64, 23
1, 202077, Control_c, 0, 64, 49
1, 202096, Control_c, 0, 64, 74
1, 202107, Note_on_c, 0, 64, 75
1, 202113, Control_c, 0, 64, 96
1, 202133, Control_c, 0, 64, 127
1, 202154, Note_off_c, 0, 68, 60
1, 202356, Note_on_c, 0, 68, 77
1, 202390, Note_off_c, 0, 64, 57
1, 202574, Note_off_c, 0, 62, 28
1, 202593, Note_on_c, 0, 71, 77
1, 202682, Note_off_c, 0, 68, 52
1, 202862, Control_c, 0, 64, 103
1, 202876, Note_on_c, 0, 76, 72
1, 202877, Note_on_c, 0, 60, 66
1, 202881, Control_c, 0, 64, 68
1, 202895, Note_off_c, 0, 71, 59
1, 202900, Control_c, 0, 64, 39
1, 202919, Control_c, 0, 64, 15
1, 202937, Control_c, 0, 64, 8
1, 202994, Control_c, 0, 64, 0
1, 203122, Note_on_c, 0, 72, 68
1, 203125, Control_c, 0, 64, 11
1, 203144, Control_c, 0, 64, 22
1, 203162, Control_c, 0, 64, 42
1, 203181, Control_c, 0, 64, 65
1, 203199, Control_c, 0, 64, 81
1, 203219, Control_c, 0, 64, 101
1, 203237, Control_c, 0, 64, 127
1, 203383, Note_on_c, 0, 69, 72
1, 203416, Note_off_c, 0, 72, 58
1, 203619, Note_on_c, 0, 72, 70
1, 203639, Note_off_c, 0, 69, 56
1, 203639, Poly_aftertouch_c, 0, 69, 0
1, 203662, Note_off_c, 0, 76, 59
1, 203875, Control_c, 0, 64, 87
1, 203889, Note_on_c, 0, 74, 70
1, 203892, Control_c, 0, 64, 57
1, 203904, Note_on_c, 0, 54, 57
1, 203908, Note_off_c, 0, 52, 58
1, 203910, Control_c, 0, 64, 30
1, 203915, Note_off_c, 0, 72, 51
1, 203929, Control_c, 0, 64, 17
1, 203985, Control_c, 0, 64, 23
1, 204005, Control_c, 0, 64, 36
1, 204025, Control_c, 0, 64, 55
1, 204041, Control_c, 0, 64, 71
1, 204061, Control_c, 0, 64, 85
1, 204079, Control_c, 0, 64, 110
1, 204098, Control_c, 0, 64, 127
1, 204148, Note_on_c, 0, 69, 67
1, 204259, Note_off_c, 0, 74, 52
1, 204398, Control_c, 0, 64, 78
1, 204414, Note_on_c, 0, 62, 64
1, 204417, Control_c, 0, 64, 46
1, 204421, Note_on_c, 0, 59, 61
1, 204436, Control_c, 0, 64, 13
1, 204470, Note_off_c, 0, 69, 52
1, 204470, Poly_aftertouch_c, 0, 69, 0
1, 204474, Note_off_c, 0, 60, 57
1, 204529, Control_c, 0, 64, 33
1, 204547, Control_c, 0, 64, 60
1, 204567, Control_c, 0, 64, 82
1, 204585, Control_c, 0, 64, 119
1, 204603, Control_c, 0, 64, 127
1, 204659, Note_on_c, 0, 72, 67
1, 204662, Note_on_c, 0, 57, 67
1, 204671, Note_off_c, 0, 59, 56
1, 204685, Note_off_c, 0, 62, 56
1, 204914, Note_on_c, 0, 56, 57
1, 204915, Note_off_c, 0, 54, 58
1, 204919, Note_on_c, 0, 59, 55
1, 204922, Note_on_c, 0, 64, 69
1, 204922, Control_c, 0, 64, 95
1, 204929, Note_off_c, 0, 57, 63
1, 204941, Control_c, 0, 64, 61
1, 204959, Control_c, 0, 64, 26
1, 204976, Note_off_c, 0, 72, 47
1, 204977, Control_c, 0, 64, 0
1, 205109, Control_c, 0, 64, 18
1, 205127, Control_c, 0, 64, 40
1, 205147, Control_c, 0, 64, 68
1, 205166, Control_c, 0, 64, 97
1, 205180, Note_on_c, 0, 68, 70
1, 205184, Control_c, 0, 64, 127
1, 205329, Note_off_c, 0, 64, 32
1, 205440, Note_on_c, 0, 71, 76
1, 205443, Note_off_c, 0, 59, 60
1, 205443, Note_on_c, 0, 60, 67
1, 205445, Control_c, 0, 64, 78
1, 205464, Control_c, 0, 64, 46
1, 205483, Control_c, 0, 64, 18
1, 205495, Note_off_c, 0, 68, 57
1, 205540, Control_c, 0, 64, 41
1, 205558, Control_c, 0, 64, 76
1, 205577, Control_c, 0, 64, 127
1, 205665, Note_on_c, 0, 74, 71
1, 205685, Note_on_c, 0, 59, 65
1, 205703, Note_off_c, 0, 71, 60
1, 205711, Note_off_c, 0, 56, 59
1, 205736, Note_off_c, 0, 60, 55
1, 205965, Note_on_c, 0, 72, 74
1, 205967, Note_on_c, 0, 57, 57
1, 205968, Note_off_c, 0, 59, 56
1, 205988, Control_c, 0, 64, 87
1, 206008, Control_c, 0, 64, 57
1, 206027, Control_c, 0, 64, 34
1, 206045, Control_c, 0, 64, 24
1, 206080, Note_off_c, 0, 74, 54
1, 206209, Note_on_c, 0, 60, 68
1, 206464, Note_on_c, 0, 64, 72
1, 206493, Note_off_c, 0, 60, 60
1, 206588, Control_c, 0, 64, 35
1, 206606, Control_c, 0, 64, 48
1, 206625, Control_c, 0, 64, 61
1, 206644, Control_c, 0, 64, 67
1, 206662, Control_c, 0, 64, 70
1, 206681, Control_c, 0, 64, 72
1, 206701, Control_c, 0, 64, 76
1, 206707, Note_off_c, 0, 64, 62
1, 206711, Note_on_c, 0, 67, 78
1, 206719, Control_c, 0, 64, 83
1, 206737, Control_c, 0, 64, 100
1, 206755, Control_c, 0, 64, 127
1, 207015, Note_on_c, 0, 65, 76
1, 207016, Control_c, 0, 64, 98
1, 207026, Note_off_c, 0, 67, 60
1, 207038, Control_c, 0, 64, 66
1, 207055, Control_c, 0, 64, 40
1, 207075, Control_c, 0, 64, 27
1, 207112, Control_c, 0, 64, 37
1, 207132, Control_c, 0, 64, 55
1, 207149, Control_c, 0, 64, 72
1, 207168, Control_c, 0, 64, 86
1, 207186, Control_c, 0, 64, 109
1, 207204, Control_c, 0, 64, 127
1, 207250, Note_on_c, 0, 69, 79
1, 207273, Note_off_c, 0, 72, 52
1, 207335, Note_off_c, 0, 57, 61
1, 207519, Note_on_c, 0, 57, 71
1, 207528, Note_on_c, 0, 72, 80
1, 207542, Control_c, 0, 64, 72
1, 207561, Control_c, 0, 64, 38
1, 207577, Note_off_c, 0, 69, 58
1, 207577, Poly_aftertouch_c, 0, 69, 0
1, 207580, Control_c, 0, 64, 8
1, 207654, Control_c, 0, 64, 36
1, 207673, Control_c, 0, 64, 72
1, 207692, Control_c, 0, 64, 127
1, 207752, Note_on_c, 0, 76, 81
1, 207785, Note_off_c, 0, 72, 60
1, 207810, Note_off_c, 0, 57, 62
1, 208034, Note_on_c, 0, 74, 83
1, 208040, Note_on_c, 0, 59, 68
1, 208066, Control_c, 0, 64, 72
1, 208071, Note_off_c, 0, 65, 50
1, 208086, Control_c, 0, 64, 41
1, 208104, Control_c, 0, 64, 17
1, 208122, Control_c, 0, 64, 11
1, 208179, Note_off_c, 0, 76, 58
1, 208236, Control_c, 0, 64, 30
1, 208253, Control_c, 0, 64, 63
1, 208273, Control_c, 0, 64, 102
1, 208283, Note_on_c, 0, 62, 76
1, 208292, Control_c, 0, 64, 127
1, 208531, Note_on_c, 0, 65, 80
1, 208565, Note_off_c, 0, 62, 60
1, 208771, Note_on_c, 0, 69, 81
1, 208776, Note_off_c, 0, 65, 61
1, 208796, Control_c, 0, 64, 87
1, 208816, Control_c, 0, 64, 58
1, 208834, Control_c, 0, 64, 43
1, 208852, Control_c, 0, 64, 45
1, 208871, Control_c, 0, 64, 55
1, 208890, Control_c, 0, 64, 67
1, 208909, Control_c, 0, 64, 83
1, 208927, Control_c, 0, 64, 127
1, 209013, Note_on_c, 0, 67, 81
1, 209057, Note_off_c, 0, 69, 58
1, 209057, Poly_aftertouch_c, 0, 69, 0
1, 209260, Note_on_c, 0, 71, 83
1, 209270, Note_off_c, 0, 74, 58
1, 209319, Note_off_c, 0, 59, 61
1, 209513, Note_on_c, 0, 59, 72
1, 209525, Note_on_c, 0, 74, 83
1, 209526, Control_c, 0, 64, 99
1, 209546, Control_c, 0, 64, 58
1, 209564, Control_c, 0, 64, 14
1, 209580, Note_off_c, 0, 71, 61
1, 209582, Control_c, 0, 64, 0
1, 209619, Control_c, 0, 64, 17
1, 209639, Control_c, 0, 64, 53
1, 209657, Control_c, 0, 64, 116
1, 209675, Control_c, 0, 64, 127
1, 209753, Note_on_c, 0, 77, 84
1, 209763, Note_off_c, 0, 59, 61
1, 209784, Note_off_c, 0, 74, 63
1, 210015, Note_on_c, 0, 76, 81
1, 210027, Note_on_c, 0, 60, 71
1, 210050, Control_c, 0, 64, 76
1, 210053, Note_off_c, 0, 67, 46
1, 210070, Control_c, 0, 64, 38
1, 210107, Control_c, 0, 64, 0
1, 210147, Note_off_c, 0, 77, 56
1, 210219, Control_c, 0, 64, 21
1, 210238, Control_c, 0, 64, 55
1, 210257, Control_c, 0, 64, 99
1, 210267, Note_on_c, 0, 64, 79
1, 210274, Control_c, 0, 64, 127
1, 210510, Note_on_c, 0, 68, 80
1, 210561, Note_off_c, 0, 64, 61
1, 210754, Note_on_c, 0, 71, 80
1, 210782, Note_off_c, 0, 68, 63
1, 211005, Control_c, 0, 64, 87
1, 211016, Note_on_c, 0, 69, 82
1, 211024, Control_c, 0, 64, 53
1, 211043, Control_c, 0, 64, 19
1, 211045, Note_off_c, 0, 71, 56
1, 211119, Control_c, 0, 64, 45
1, 211136, Control_c, 0, 64, 85
1, 211155, Control_c, 0, 64, 127
1, 211258, Note_on_c, 0, 72, 87
1, 211274, Note_off_c, 0, 76, 60
1, 211522, Note_on_c, 0, 76, 83
1, 211538, Note_on_c, 0, 61, 79
1, 211548, Control_c, 0, 64, 71
1, 211558, Note_off_c, 0, 60, 60
1, 211566, Control_c, 0, 64, 32
1, 211583, Note_off_c, 0, 72, 56
1, 211605, Control_c, 0, 64, 8
1, 211622, Control_c, 0, 64, 32
1, 211641, Control_c, 0, 64, 74
1, 211661, Control_c, 0, 64, 127
1, 211774, Note_on_c, 0, 79, 84
1, 211801, Note_off_c, 0, 76, 62
1, 212019, Note_off_c, 0, 61, 61
1, 212037, Control_c, 0, 64, 111
1, 212039, Note_on_c, 0, 77, 78
1, 212045, Note_on_c, 0, 62, 61
1, 212054, Control_c, 0, 64, 64
1, 212071, Control_c, 0, 64, 24
1, 212110, Note_off_c, 0, 69, 54
1, 212110, Poly_aftertouch_c, 0, 69, 0
1, 212128, Control_c, 0, 64, 17
1, 212147, Control_c, 0, 64, 54
1, 212165, Control_c, 0, 64, 127
1, 212199, Note_off_c, 0, 79, 47
1, 212293, Note_on_c, 0, 74, 80
1, 212297, Note_on_c, 0, 65, 70
1, 212298, Note_off_c, 0, 77, 62
1, 212529, Note_on_c, 0, 77, 81
1, 212537, Note_on_c, 0, 69, 80
1, 212560, Control_c, 0, 64, 110
1, 212568, Note_off_c, 0, 65, 60
1, 212578, Control_c, 0, 64, 66
1, 212597, Control_c, 0, 64, 38
1, 212602, Note_off_c, 0, 74, 59
1, 212634, Control_c, 0, 64, 58
1, 212652, Control_c, 0, 64, 93
1, 212670, Control_c, 0, 64, 127
1, 212776, Note_on_c, 0, 72, 78
1, 212780, Note_on_c, 0, 81, 81
1, 212793, Note_off_c, 0, 69, 60
1, 212793, Poly_aftertouch_c, 0, 69, 0
1, 212802, Note_off_c, 0, 77, 62
1, 213082, Control_c, 0, 64, 108
1, 213089, Note_on_c, 0, 80, 89
1, 213091, Note_on_c, 0, 71, 83
1, 213102, Control_c, 0, 64, 63
1, 213120, Control_c, 0, 64, 21
1, 213127, Note_off_c, 0, 72, 59
1, 213139, Control_c, 0, 64, 0
1, 213171, Note_off_c, 0, 81, 62
1, 213214, Control_c, 0, 64, 20
1, 213232, Control_c, 0, 64, 53
1, 213253, Control_c, 0, 64, 88
1, 213270, Control_c, 0, 64, 127
1, 213358, Note_on_c, 0, 83, 87
1, 213402, Note_off_c, 0, 80, 55
1, 213422, Note_off_c, 0, 62, 60
1, 213626, Control_c, 0, 64, 103
1, 213632, Note_on_c, 0, 80, 84
1, 213638, Note_on_c, 0, 64, 79
1, 213645, Control_c, 0, 64, 59
1, 213664, Control_c, 0, 64, 14
1, 213681, Control_c, 0, 64, 0
1, 213719, Control_c, 0, 64, 24
1, 213738, Control_c, 0, 64, 64
1, 213756, Control_c, 0, 64, 127
1, 213879, Note_on_c, 0, 76, 80
1, 213886, Note_on_c, 0, 62, 78
1, 213919, Note_off_c, 0, 64, 60
1, 213929, Note_off_c, 0, 83, 59
1, 213938, Note_off_c, 0, 80, 63
1, 214140, Note_on_c, 0, 81, 80
1, 214158, Note_on_c, 0, 60, 80
1, 214169, Control_c, 0, 64, 74
1, 214184, Note_off_c, 0, 62, 61
1, 214185, Note_off_c, 0, 76, 63
1, 214188, Control_c, 0, 64, 32
1, 214206, Control_c, 0, 64, 0
1, 214262, Control_c, 0, 64, 12
1, 214281, Control_c, 0, 64, 51
1, 214300, Control_c, 0, 64, 108
1, 214318, Control_c, 0, 64, 127
1, 214361, Note_off_c, 0, 71, 61
1, 214395, Note_on_c, 0, 76, 85
1, 214669, Note_on_c, 0, 77, 48
1, 214673, Note_on_c, 0, 64, 79
1, 214674, Control_c, 0, 64, 98
1, 214681, Note_on_c, 0, 72, 82
1, 214693, Control_c, 0, 64, 51
1, 214711, Control_c, 0, 64, 0
1, 214718, Note_off_c, 0, 77, 47
1, 214748, Note_off_c, 0, 76, 59
1, 214748, Note_off_c, 0, 81, 37
1, 214767, Control_c, 0, 64, 13
1, 214787, Control_c, 0, 64, 54
1, 214805, Control_c, 0, 64, 127
1, 214927, Note_off_c, 0, 72, 61
1, 214929, Note_on_c, 0, 69, 81
1, 214958, Note_off_c, 0, 64, 59
1, 215179, Control_c, 0, 64, 115
1, 215199, Control_c, 0, 64, 64
1, 215207, Note_on_c, 0, 74, 82
1, 215217, Control_c, 0, 64, 19
1, 215223, Note_on_c, 0, 66, 78
1, 215236, Control_c, 0, 64, 0
1, 215256, Note_off_c, 0, 69, 58
1, 215256, Poly_aftertouch_c, 0, 69, 0
1, 215273, Control_c, 0, 64, 25
1, 215291, Control_c, 0, 64, 69
1, 215305, Note_off_c, 0, 60, 61
1, 215310, Control_c, 0, 64, 127
1, 215479, Note_on_c, 0, 60, 75
1, 215742, Note_on_c, 0, 68, 80
1, 215746, Note_on_c, 0, 59, 78
1, 215779, Control_c, 0, 64, 79
1, 215787, Note_off_c, 0, 60, 60
1, 215797, Control_c, 0, 64, 42
1, 215803, Note_off_c, 0, 66, 59
1, 215834, Control_c, 0, 64, 0
1, 215891, Control_c, 0, 64, 18
1, 215909, Control_c, 0, 64, 47
1, 215929, Control_c, 0, 64, 81
1, 215946, Control_c, 0, 64, 127
1, 215985, Note_on_c, 0, 69, 80
1, 215994, Note_off_c, 0, 68, 63
1, 215998, Note_on_c, 0, 57, 72
1, 216016, Note_off_c, 0, 59, 59
1, 216261, Note_on_c, 0, 56, 73
1, 216268, Note_on_c, 0, 71, 84
1, 216283, Control_c, 0, 64, 74
1, 216292, Note_off_c, 0, 57, 60
1, 216301, Note_off_c, 0, 69, 62
1, 216301, Poly_aftertouch_c, 0, 69, 0
1, 216302, Control_c, 0, 64, 22
1, 216321, Control_c, 0, 64, 0
1, 216433, Control_c, 0, 64, 17
1, 216453, Control_c, 0, 64, 48
1, 216471, Control_c, 0, 64, 76
1, 216490, Control_c, 0, 64, 107
1, 216508, Control_c, 0, 64, 127
1, 216527, Note_off_c, 0, 56, 58
1, 216534, Note_on_c, 0, 59, 66
1, 216535, Note_on_c, 0, 60, 65
1, 216628, Note_off_c, 0, 60, 58
1, 216780, Note_on_c, 0, 56, 68
1, 216788, Note_on_c, 0, 76, 83
1, 216789, Control_c, 0, 64, 81
1, 216808, Control_c, 0, 64, 42
1, 216812, Note_off_c, 0, 74, 59
1, 216864, Control_c, 0, 64, 18
1, 216882, Control_c, 0, 64, 46
1, 216902, Control_c, 0, 64, 76
1, 216920, Control_c, 0, 64, 127
1, 216960, Note_off_c, 0, 59, 40
1, 217028, Note_on_c, 0, 74, 84
1, 217035, Note_on_c, 0, 52, 72
1, 217082, Note_off_c, 0, 56, 59
1, 217302, Note_on_c, 0, 72, 81
1, 217304, Note_off_c, 0, 52, 61
1, 217313, Control_c, 0, 64, 70
1, 217325, Note_on_c, 0, 57, 69
1, 217326, Note_off_c, 0, 76, 59
1, 217331, Control_c, 0, 64, 11
1, 217347, Note_off_c, 0, 74, 59
1, 217350, Control_c, 0, 64, 0
1, 217425, Control_c, 0, 64, 26
1, 217446, Control_c, 0, 64, 73
1, 217463, Control_c, 0, 64, 127
1, 217542, Note_on_c, 0, 52, 74
1, 217594, Note_off_c, 0, 71, 60
1, 217621, Note_off_c, 0, 57, 55
1, 217819, Note_on_c, 0, 69, 79
1, 217820, Note_on_c, 0, 48, 65
1, 217836, Control_c, 0, 64, 92
1, 217847, Note_off_c, 0, 52, 46
1, 217856, Control_c, 0, 64, 57
1, 217875, Control_c, 0, 64, 30
1, 217894, Control_c, 0, 64, 24
1, 217912, Control_c, 0, 64, 34
1, 217932, Control_c, 0, 64, 60
1, 217950, Control_c, 0, 64, 91
1, 217968, Control_c, 0, 64, 127
1, 218053, Note_on_c, 0, 67, 79
1, 218058, Note_on_c, 0, 45, 63
1, 218079, Note_off_c, 0, 48, 58
1, 218094, Note_off_c, 0, 69, 57
1, 218094, Poly_aftertouch_c, 0, 69, 0
1, 218333, Note_on_c, 0, 65, 73
1, 218343, Control_c, 0, 64, 86
1, 218345, Note_off_c, 0, 45, 59
1, 218345, Note_on_c, 0, 50, 69
1, 218356, Note_off_c, 0, 67, 60
1, 218359, Control_c, 0, 64, 48
1, 218399, Control_c, 0, 64, 0
1, 218474, Control_c, 0, 64, 28
1, 218493, Control_c, 0, 64, 73
1, 218511, Control_c, 0, 64, 127
1, 218579, Note_on_c, 0, 38, 64
1, 218603, Note_off_c, 0, 72, 57
1, 218857, Note_on_c, 0, 72, 77
1, 218866, Note_on_c, 0, 41, 62
1, 218867, Control_c, 0, 64, 71
1, 218886, Control_c, 0, 64, 36
1, 218904, Control_c, 0, 64, 13
1, 218918, Note_off_c, 0, 50, 39
1, 218942, Control_c, 0, 64, 28
1, 218960, Control_c, 0, 64, 62
1, 218979, Control_c, 0, 64, 127
1, 219105, Note_on_c, 0, 45, 71
1, 219159, Note_off_c, 0, 41, 59
1, 219334, Control_c, 0, 64, 90
1, 219354, Control_c, 0, 64, 49
1, 219365, Note_on_c, 0, 71, 79
1, 219369, Note_off_c, 0, 45, 63
1, 219373, Control_c, 0, 64, 19
1, 219376, Note_on_c, 0, 50, 68
1, 219386, Note_off_c, 0, 38, 55
1, 219390, Control_c, 0, 64, 23
1, 219397, Note_off_c, 0, 72, 61
1, 219410, Control_c, 0, 64, 44
1, 219428, Control_c, 0, 64, 80
1, 219447, Control_c, 0, 64, 127
1, 219622, Note_on_c, 0, 74, 80
1, 219624, Note_on_c, 0, 53, 68
1, 219656, Note_off_c, 0, 50, 59
1, 219674, Note_off_c, 0, 71, 56
1, 219872, Note_on_c, 0, 77, 81
1, 219877, Control_c, 0, 64, 72
1, 219889, Note_on_c, 0, 57, 63
1, 219895, Note_off_c, 0, 74, 57
1, 219895, Control_c, 0, 64, 37
1, 219915, Control_c, 0, 64, 24
1, 219933, Control_c, 0, 64, 34
1, 219953, Control_c, 0, 64, 65
1, 219971, Control_c, 0, 64, 127
1, 220109, Note_off_c, 0, 77, 57
1, 220126, Note_on_c, 0, 69, 80
1, 220144, Note_on_c, 0, 62, 66
1, 220165, Note_off_c, 0, 57, 59
1, 220185, Note_off_c, 0, 53, 56
1, 220261, Note_off_c, 0, 65, 61
1, 220465, Note_on_c, 0, 68, 71
1, 220471, Note_on_c, 0, 64, 58
1, 220477, Note_on_c, 0, 52, 53
1, 220477, Control_c, 0, 64, 84
1, 220491, Note_off_c, 0, 62, 53
1, 220496, Control_c, 0, 64, 43
1, 220505, Note_off_c, 0, 69, 52
1, 220505, Poly_aftertouch_c, 0, 69, 0
1, 220515, Control_c, 0, 64, 0
1, 220645, Control_c, 0, 64, 8
1, 220664, Control_c, 0, 64, 36
1, 220685, Control_c, 0, 64, 72
1, 220701, Control_c, 0, 64, 127
1, 220810, Note_on_c, 0, 62, 57
1, 220829, Note_on_c, 0, 71, 77
1, 220907, Note_off_c, 0, 68, 54
1, 221089, Note_on_c, 0, 69, 80
1, 221094, Note_on_c, 0, 60, 67
1, 221113, Control_c, 0, 64, 79
1, 221129, Note_off_c, 0, 62, 60
1, 221130, Control_c, 0, 64, 50
1, 221152, Control_c, 0, 64, 38
1, 221169, Control_c, 0, 64, 45
1, 221187, Control_c, 0, 64, 60
1, 221208, Control_c, 0, 64, 78
1, 221226, Control_c, 0, 64, 127
1, 221335, Note_on_c, 0, 59, 73
1, 221339, Note_on_c, 0, 68, 80
1, 221362, Note_off_c, 0, 71, 57
1, 221366, Note_off_c, 0, 60, 59
1, 221374, Note_off_c, 0, 69, 60
1, 221374, Poly_aftertouch_c, 0, 69, 0
1, 221600, Control_c, 0, 64, 71
1, 221605, Note_on_c, 0, 69, 81
1, 221611, Note_off_c, 0, 59, 64
1, 221619, Control_c, 0, 64, 27
1, 221628, Note_on_c, 0, 60, 70
1, 221636, Control_c, 0, 64, 0
1, 221646, Note_off_c, 0, 68, 59
1, 221674, Note_off_c, 0, 52, 60
1, 221712, Control_c, 0, 64, 11
1, 221731, Control_c, 0, 64, 45
1, 221750, Control_c, 0, 64, 84
1, 221767, Control_c, 0, 64, 127
1, 221863, Note_on_c, 0, 57, 73
1, 221863, Note_on_c, 0, 72, 78
1, 221890, Note_off_c, 0, 69, 60
1, 221890, Poly_aftertouch_c, 0, 69, 0
1, 221922, Note_off_c, 0, 60, 56
1, 222105, Control_c, 0, 64, 103
1, 222124, Control_c, 0, 64, 62
1, 222128, Note_on_c, 0, 71, 82
1, 222132, Note_on_c, 0, 56, 68
1, 222140, Note_off_c, 0, 57, 63
1, 222142, Control_c, 0, 64, 27
1, 222161, Control_c, 0, 64, 18
1, 222180, Control_c, 0, 64, 30
1, 222182, Note_off_c, 0, 64, 57
1, 222198, Control_c, 0, 64, 62
1, 222218, Control_c, 0, 64, 115
1, 222236, Control_c, 0, 64, 127
1, 222355, Note_off_c, 0, 72, 31
1, 222372, Note_on_c, 0, 69, 81
1, 222378, Note_on_c, 0, 54, 71
1, 222398, Note_off_c, 0, 56, 59
1, 222423, Note_off_c, 0, 71, 59
1, 222685, Control_c, 0, 64, 112
1, 222693, Note_on_c, 0, 76, 89
1, 222704, Control_c, 0, 64, 66
1, 222705, Note_off_c, 0, 54, 61
1, 222705, Note_on_c, 0, 56, 68
1, 222723, Control_c, 0, 64, 28
1, 222738, Note_off_c, 0, 69, 58
1, 222738, Poly_aftertouch_c, 0, 69, 0
1, 222740, Control_c, 0, 64, 0
1, 222835, Control_c, 0, 64, 33
1, 222853, Control_c, 0, 64, 67
1, 222873, Control_c, 0, 64, 111
1, 222892, Control_c, 0, 64, 127
1, 222998, Note_off_c, 0, 56, 59
1, 223004, Note_on_c, 0, 59, 61
1, 223005, Note_on_c, 0, 74, 81
1, 223040, Control_c, 0, 64, 104
1, 223060, Control_c, 0, 64, 65
1, 223078, Control_c, 0, 64, 48
1, 223098, Control_c, 0, 64, 60
1, 223115, Control_c, 0, 64, 84
1, 223134, Control_c, 0, 64, 127
1, 223246, Control_c, 0, 64, 110
1, 223263, Note_on_c, 0, 72, 80
1, 223266, Control_c, 0, 64, 64
1, 223267, Note_on_c, 0, 57, 64
1, 223284, Control_c, 0, 64, 31
1, 223297, Note_off_c, 0, 59, 56
1, 223303, Control_c, 0, 64, 27
1, 223321, Control_c, 0, 64, 50
1, 223341, Control_c, 0, 64, 99
1, 223361, Control_c, 0, 64, 127
1, 223509, Control_c, 0, 64, 102
1, 223519, Note_on_c, 0, 71, 80
1, 223528, Control_c, 0, 64, 64
1, 223531, Note_on_c, 0, 56, 68
1, 223537, Note_off_c, 0, 57, 63
1, 223547, Control_c, 0, 64, 50
1, 223551, Note_off_c, 0, 72, 60
1, 223560, Note_off_c, 0, 74, 56
1, 223566, Control_c, 0, 64, 64
1, 223584, Control_c, 0, 64, 104
1, 223603, Control_c, 0, 64, 127
1, 223771, Control_c, 0, 64, 84
1, 223785, Note_off_c, 0, 56, 61
1, 223789, Control_c, 0, 64, 48
1, 223794, Note_on_c, 0, 72, 76
1, 223798, Note_on_c, 0, 57, 64
1, 223809, Control_c, 0, 64, 25
1, 223815, Note_off_c, 0, 71, 61
1, 223828, Control_c, 0, 64, 36
1, 223846, Control_c, 0, 64, 69
1, 223865, Control_c, 0, 64, 127
1, 224036, Note_on_c, 0, 54, 74
1, 224063, Note_off_c, 0, 57, 53
1, 224311, Note_on_c, 0, 81, 93
1, 224314, Control_c, 0, 64, 70
1, 224322, Note_off_c, 0, 54, 63
1, 224327, Note_on_c, 0, 52, 70
1, 224333, Note_off_c, 0, 76, 63
1, 224333, Control_c, 0, 64, 28
1, 224352, Control_c, 0, 64, 0
1, 224407, Control_c, 0, 64, 24
1, 224426, Control_c, 0, 64, 66
1, 224444, Control_c, 0, 64, 127
1, 224603, Note_on_c, 0, 51, 79
1, 224638, Note_off_c, 0, 52, 52
1, 224923, Note_on_c, 0, 52, 81
1, 224925, Note_off_c, 0, 51, 63
1, 224930, Control_c, 0, 64, 112
1, 224951, Control_c, 0, 64, 61
1, 224969, Control_c, 0, 64, 10
1, 224987, Control_c, 0, 64, 0
1, 225043, Control_c, 0, 64, 36
1, 225063, Control_c, 0, 64, 76
1, 225081, Control_c, 0, 64, 127
1, 225192, Note_on_c, 0, 40, 81
1, 225254, Note_off_c, 0, 52, 58
1, 225510, Note_on_c, 0, 80, 80
1, 225513, Note_on_c, 0, 71, 79
1, 225515, Note_off_c, 0, 72, 62
1, 225523, Note_on_c, 0, 52, 80
1, 225531, Control_c, 0, 64, 83
1, 225549, Control_c, 0, 64, 45
1, 225569, Control_c, 0, 64, 17
1, 225586, Control_c, 0, 64, 21
1, 225606, Control_c, 0, 64, 47
1, 225624, Control_c, 0, 64, 85
1, 225642, Note_off_c, 0, 40, 62
1, 225643, Control_c, 0, 64, 127
1, 225648, Note_off_c, 0, 81, 48
1, 225810, Note_on_c, 0, 56, 80
1, 225816, Note_off_c, 0, 52, 59
1, 226080, Note_on_c, 0, 59, 82
1, 226095, Note_off_c, 0, 56, 61
1, 226315, Note_off_c, 0, 59, 63
1, 226331, Note_on_c, 0, 62, 84
1, 226354, Control_c, 0, 64, 110
1, 226373, Control_c, 0, 64, 66
1, 226391, Control_c, 0, 64, 54
1, 226411, Control_c, 0, 64, 68
1, 226429, Control_c, 0, 64, 104
1, 226447, Control_c, 0, 64, 127
1, 226612, Note_on_c, 0, 65, 86
1, 226637, Note_off_c, 0, 62, 56
1, 226660, Note_off_c, 0, 71, 60
1, 226697, Note_off_c, 0, 80, 63
1, 226710, Control_c, 0, 64, 77
1, 226728, Control_c, 0, 64, 72
1, 226747, Control_c, 0, 64, 127
1, 226850, Note_off_c, 0, 65, 60
1, 226897, Note_on_c, 0, 68, 75
1, 226997, Note_off_c, 0, 68, 63
1, 227447, Note_on_c, 0, 76, 91
1, 227449, Note_on_c, 0, 64, 86
1, 227449, Note_on_c, 0, 69, 86
1, 227450, Note_on_c, 0, 57, 81
1, 227453, Note_on_c, 0, 72, 79
1, 227478, Control_c, 0, 64, 122
1, 227496, Control_c, 0, 64, 66
1, 227515, Control_c, 0, 64, 23
1, 227534, Control_c, 0, 64, 0
1, 228057, Control_c, 0, 64, 13
1, 228076, Control_c, 0, 64, 35
1, 228096, Control_c, 0, 64, 60
1, 228114, Control_c, 0, 64, 76
1, 228133, Control_c, 0, 64, 95
1, 228151, Control_c, 0, 64, 127
1, 228720, Note_on_c, 0, 77, 92
1, 228763, Note_off_c, 0, 76, 58
1, 228806, Control_c, 0, 64, 98
1, 228825, Control_c, 0, 64, 61
1, 228844, Control_c, 0, 64, 18
1, 228862, Control_c, 0, 64, 0
1, 229031, Control_c, 0, 64, 38
1, 229050, Control_c, 0, 64, 86
1, 229067, Control_c, 0, 64, 127
1, 229291, Note_on_c, 0, 62, 87
1, 229340, Note_off_c, 0, 64, 60
1, 229530, Note_on_c, 0, 60, 86
1, 229554, Note_off_c, 0, 62, 62
1, 229852, Note_on_c, 0, 74, 72
1, 229855, Note_on_c, 0, 59, 76
1, 229857, Note_on_c, 0, 71, 72
1, 229857, Note_on_c, 0, 55, 79
1, 229858, Note_off_c, 0, 57, 62
1, 229910, Note_off_c, 0, 60, 55
1, 229910, Control_c, 0, 64, 77
1, 229915, Note_off_c, 0, 72, 55
1, 229924, Note_off_c, 0, 69, 54
1, 229924, Poly_aftertouch_c, 0, 69, 0
1, 229928, Control_c, 0, 64, 48
1, 229948, Control_c, 0, 64, 21
1, 229966, Control_c, 0, 64, 8
1, 230585, Control_c, 0, 64, 14
1, 230603, Control_c, 0, 64, 21
1, 230623, Control_c, 0, 64, 32
1, 230641, Control_c, 0, 64, 47
1, 230659, Control_c, 0, 64, 61
1, 230678, Control_c, 0, 64, 67
1, 230697, Control_c, 0, 64, 72
1, 230716, Control_c, 0, 64, 76
1, 230734, Control_c, 0, 64, 84
1, 230752, Control_c, 0, 64, 101
1, 230772, Control_c, 0, 64, 127
1, 231023, Note_on_c, 0, 76, 83
1, 231071, Control_c, 0, 64, 88
1, 231091, Control_c, 0, 64, 65
1, 231108, Control_c, 0, 64, 47
1, 231127, Control_c, 0, 64, 35
1, 231133, Note_off_c, 0, 74, 56
1, 231146, Control_c, 0, 64, 29
1, 231165, Control_c, 0, 64, 24
1, 231239, Control_c, 0, 64, 31
1, 231254, Note_off_c, 0, 77, 51
1, 231276, Control_c, 0, 64, 40
1, 231296, Control_c, 0, 64, 48
1, 231315, Control_c, 0, 64, 59
1, 231333, Control_c, 0, 64, 67
1, 231351, Control_c, 0, 64, 70
1, 231372, Control_c, 0, 64, 74
1, 231390, Control_c, 0, 64, 79
1, 231407, Control_c, 0, 64, 90
1, 231427, Control_c, 0, 64, 113
1, 231446, Control_c, 0, 64, 127
1, 231597, Note_on_c, 0, 57, 81
1, 231633, Note_off_c, 0, 59, 60
1, 231855, Note_on_c, 0, 59, 87
1, 231899, Note_off_c, 0, 57, 60
1, 232156, Note_off_c, 0, 55, 61
1, 232171, Note_off_c, 0, 59, 61
1, 232177, Note_on_c, 0, 53, 77
1, 232177, Note_on_c, 0, 60, 81
1, 232177, Control_c, 0, 64, 116
1, 232187, Note_on_c, 0, 69, 81
1, 232195, Control_c, 0, 64, 79
1, 232213, Control_c, 0, 64, 52
1, 232224, Note_off_c, 0, 71, 62
1, 232232, Control_c, 0, 64, 26
1, 232251, Control_c, 0, 64, 11
1, 232362, Control_c, 0, 64, 0
1, 232531, Control_c, 0, 64, 12
1, 232550, Control_c, 0, 64, 23
1, 232568, Control_c, 0, 64, 41
1, 232588, Control_c, 0, 64, 62
1, 232605, Control_c, 0, 64, 76
1, 232625, Control_c, 0, 64, 87
1, 232644, Control_c, 0, 64, 96
1, 232663, Control_c, 0, 64, 103
1, 232681, Control_c, 0, 64, 118
1, 232699, Control_c, 0, 64, 127
1, 232754, Note_on_c, 0, 81, 94
1, 232787, Note_off_c, 0, 76, 64
1, 233005, Note_on_c, 0, 80, 90
1, 233061, Note_off_c, 0, 81, 62
1, 233297, Note_on_c, 0, 81, 86
1, 233300, Note_on_c, 0, 74, 77
1, 233300, Control_c, 0, 64, 98
1, 233317, Control_c, 0, 64, 59
1, 233318, Note_off_c, 0, 60, 58
1, 233322, Note_on_c, 0, 62, 65
1, 233336, Control_c, 0, 64, 16
1, 233353, Note_off_c, 0, 80, 65
1, 233354, Control_c, 0, 64, 0
1, 233388, Poly_aftertouch_c, 0, 73, 0
1, 233449, Control_c, 0, 64, 19
1, 233467, Control_c, 0, 64, 41
1, 233485, Control_c, 0, 64, 64
1, 233505, Control_c, 0, 64, 81
1, 233523, Control_c, 0, 64, 106
1, 233541, Control_c, 0, 64, 127
1, 233575, Note_on_c, 0, 60, 74
1, 233581, Poly_aftertouch_c, 0, 73, 0
1, 233593, Note_off_c, 0, 69, 55
1, 233593, Poly_aftertouch_c, 0, 69, 0
1, 233600, Note_off_c, 0, 62, 60
1, 233852, Note_on_c, 0, 71, 79
1, 233859, Control_c, 0, 64, 104
1, 233881, Control_c, 0, 64, 62
1, 233883, Note_on_c, 0, 59, 61
1, 233898, Control_c, 0, 64, 17
1, 233918, Control_c, 0, 64, 0
1, 233921, Note_off_c, 0, 74, 58
1, 233930, Note_off_c, 0, 60, 61
1, 233991, Control_c, 0, 64, 17
1, 234010, Control_c, 0, 64, 47
1, 234028, Control_c, 0, 64, 76
1, 234048, Control_c, 0, 64, 107
1, 234067, Control_c, 0, 64, 127
1, 234096, Note_on_c, 0, 57, 69
1, 234172, Note_off_c, 0, 59, 59
1, 234380, Note_on_c, 0, 76, 68
1, 234382, Note_on_c, 0, 72, 64
1, 234385, Note_on_c, 0, 52, 56
1, 234389, Note_off_c, 0, 53, 58
1, 234403, Control_c, 0, 64, 76
1, 234421, Control_c, 0, 64, 47
1, 234432, Note_off_c, 0, 71, 54
1, 234440, Control_c, 0, 64, 20
1, 234460, Control_c, 0, 64, 8
1, 234624, Note_on_c, 0, 60, 63
1, 234637, Note_off_c, 0, 57, 63
1, 234903, Note_on_c, 0, 59, 70
1, 234946, Control_c, 0, 64, 18
1, 234948, Note_off_c, 0, 60, 56
1, 234964, Control_c, 0, 64, 31
1, 234985, Control_c, 0, 64, 50
1, 235002, Control_c, 0, 64, 66
1, 235021, Control_c, 0, 64, 76
1, 235040, Control_c, 0, 64, 84
1, 235058, Control_c, 0, 64, 95
1, 235077, Control_c, 0, 64, 127
1, 235154, Note_on_c, 0, 57, 77
1, 235178, Note_off_c, 0, 59, 60
1, 235300, Note_off_c, 0, 72, 54
1, 235474, Note_on_c, 0, 80, 78
1, 235506, Note_on_c, 0, 71, 62
1, 235513, Note_on_c, 0, 64, 70
1, 235526, Control_c, 0, 64, 94
1, 235532, Note_off_c, 0, 57, 62
1, 235544, Control_c, 0, 64, 67
1, 235564, Control_c, 0, 64, 43
1, 235580, Note_off_c, 0, 81, 58
1, 235581, Control_c, 0, 64, 25
1, 235601, Control_c, 0, 64, 19
1, 235845, Control_c, 0, 64, 14
1, 235882, Control_c, 0, 64, 9
1, 236013, Control_c, 0, 64, 0
1, 236223, Note_on_c, 0, 50, 70
1, 236255, Note_off_c, 0, 52, 57
1, 236275, Control_c, 0, 64, 18
1, 236294, Control_c, 0, 64, 37
1, 236312, Control_c, 0, 64, 61
1, 236331, Control_c, 0, 64, 78
1, 236349, Control_c, 0, 64, 96
1, 236369, Control_c, 0, 64, 127
1, 236380, Note_off_c, 0, 64, 59
1, 236430, Note_off_c, 0, 76, 62
1, 236449, Note_off_c, 0, 71, 53
1, 236868, Note_on_c, 0, 81, 81
1, 236874, Note_off_c, 0, 50, 52
1, 236879, Note_on_c, 0, 76, 50
1, 236894, Control_c, 0, 64, 121
1, 236900, Note_on_c, 0, 52, 59
1, 236902, Note_on_c, 0, 69, 45
1, 236905, Note_on_c, 0, 57, 65
1, 236914, Note_on_c, 0, 48, 58
1, 236914, Control_c, 0, 64, 74
1, 236930, Control_c, 0, 64, 42
1, 236967, Control_c, 0, 64, 0
1, 236991, Note_off_c, 0, 80, 43
1, 237304, Control_c, 0, 64, 9
1, 237323, Control_c, 0, 64, 19
1, 237342, Control_c, 0, 64, 37
1, 237360, Control_c, 0, 64, 59
1, 237379, Control_c, 0, 64, 73
1, 237398, Control_c, 0, 64, 84
1, 237416, Control_c, 0, 64, 98
1, 237428, Note_on_c, 0, 79, 84
1, 237435, Control_c, 0, 64, 127
1, 237685, Note_on_c, 0, 77, 86
1, 237731, Note_off_c, 0, 52, 59
1, 237738, Note_off_c, 0, 81, 60
1, 237740, Note_off_c, 0, 57, 61
1, 237752, Note_off_c, 0, 76, 61
1, 237769, Note_off_c, 0, 69, 56
1, 237769, Poly_aftertouch_c, 0, 69, 0
1, 237782, Note_off_c, 0, 79, 59
1, 238002, Note_on_c, 0, 79, 82
1, 238021, Note_on_c, 0, 76, 62
1, 238026, Note_on_c, 0, 52, 64
1, 238029, Note_on_c, 0, 49, 69
1, 238030, Note_off_c, 0, 48, 60
1, 238030, Note_on_c, 0, 57, 64
1, 238030, Note_on_c, 0, 69, 57
1, 238056, Control_c, 0, 64, 82
1, 238059, Note_off_c, 0, 77, 56
1, 238074, Control_c, 0, 64, 55
1, 238091, Control_c, 0, 64, 28
1, 238147, Control_c, 0, 64, 0
1, 238502, Control_c, 0, 64, 16
1, 238521, Control_c, 0, 64, 31
1, 238541, Control_c, 0, 64, 52
1, 238558, Control_c, 0, 64, 68
1, 238577, Control_c, 0, 64, 79
1, 238593, Note_on_c, 0, 77, 83
1, 238595, Control_c, 0, 64, 96
1, 238615, Control_c, 0, 64, 127
1, 238622, Note_off_c, 0, 76, 60
1, 238846, Note_on_c, 0, 76, 82
1, 238884, Note_off_c, 0, 79, 60
1, 238910, Note_off_c, 0, 77, 56
1, 238915, Note_off_c, 0, 69, 56
1, 238915, Poly_aftertouch_c, 0, 69, 0
1, 239135, Note_on_c, 0, 77, 75
1, 239153, Note_on_c, 0, 69, 58
1, 239156, Control_c, 0, 64, 83
1, 239175, Note_off_c, 0, 76, 57
1, 239175, Control_c, 0, 64, 56
1, 239181, Note_on_c, 0, 50, 50
1, 239185, Note_off_c, 0, 49, 57
1, 239195, Control_c, 0, 64, 29
1, 239215, Note_off_c, 0, 52, 51
1, 239231, Note_off_c, 0, 57, 61
1, 239270, Control_c, 0, 64, 0
1, 239414, Note_on_c, 0, 55, 57
1, 239477, Control_c, 0, 64, 11
1, 239494, Control_c, 0, 64, 27
1, 239514, Control_c, 0, 64, 50
1, 239532, Control_c, 0, 64, 70
1, 239551, Control_c, 0, 64, 85
1, 239569, Control_c, 0, 64, 102
1, 239588, Control_c, 0, 64, 116
1, 239606, Control_c, 0, 64, 127
1, 239664, Note_on_c, 0, 53, 66
1, 239669, Note_on_c, 0, 74, 74
1, 239714, Note_off_c, 0, 55, 54
1, 239918, Note_on_c, 0, 52, 63
1, 239921, Note_on_c, 0, 73, 76
1, 239951, Note_off_c, 0, 53, 58
1, 239951, Note_off_c, 0, 50, 56
1, 239972, Note_off_c, 0, 74, 60
1, 240006, Note_off_c, 0, 52, 61
1, 240209, Note_on_c, 0, 50, 66
1, 240223, Note_on_c, 0, 74, 73
1, 240243, Control_c, 0, 64, 99
1, 240262, Control_c, 0, 64, 73
1, 240271, Note_off_c, 0, 73, 59
1, 240281, Control_c, 0, 64, 53
1, 240299, Control_c, 0, 64, 36
1, 240318, Control_c, 0, 64, 26
1, 240338, Control_c, 0, 64, 21
1, 240412, Control_c, 0, 64, 17
1, 240467, Control_c, 0, 64, 13
1, 240469, Note_on_c, 0, 48, 63
1, 240580, Control_c, 0, 64, 8
1, 240731, Note_on_c, 0, 47, 73
1, 240767, Control_c, 0, 64, 0
1, 240776, Note_off_c, 0, 48, 57
1, 240880, Control_c, 0, 64, 17
1, 240898, Control_c, 0, 64, 31
1, 240916, Control_c, 0, 64, 49
1, 240937, Control_c, 0, 64, 62
1, 240955, Control_c, 0, 64, 65
1, 241000, Note_on_c, 0, 45, 76
1, 241010, Note_off_c, 0, 47, 64
1, 241011, Control_c, 0, 64, 68
1, 241029, Control_c, 0, 64, 72
1, 241050, Control_c, 0, 64, 79
1, 241067, Control_c, 0, 64, 88
1, 241085, Control_c, 0, 64, 98
1, 241104, Control_c, 0, 64, 108
1, 241122, Control_c, 0, 64, 127
1, 241331, Note_on_c, 0, 44, 75
1, 241348, Control_c, 0, 64, 102
1, 241356, Note_off_c, 0, 45, 58
1, 241361, Note_on_c, 0, 71, 67
1, 241366, Control_c, 0, 64, 70
1, 241371, Note_off_c, 0, 50, 61
1, 241385, Control_c, 0, 64, 41
1, 241396, Note_off_c, 0, 69, 55
1, 241396, Poly_aftertouch_c, 0, 69, 0
1, 241402, Control_c, 0, 64, 8
1, 241422, Control_c, 0, 64, 0
1, 241436, Note_off_c, 0, 74, 57
1, 241684, Control_c, 0, 64, 10
1, 241703, Control_c, 0, 64, 28
1, 241721, Control_c, 0, 64, 53
1, 241741, Control_c, 0, 64, 73
1, 241760, Control_c, 0, 64, 85
1, 241778, Control_c, 0, 64, 97
1, 241797, Control_c, 0, 64, 113
1, 241815, Control_c, 0, 64, 127
1, 242038, Control_c, 0, 64, 82
1, 242043, Note_on_c, 0, 76, 77
1, 242052, Note_on_c, 0, 47, 66
1, 242057, Control_c, 0, 64, 52
1, 242077, Control_c, 0, 64, 20
1, 242096, Control_c, 0, 64, 0
1, 242190, Control_c, 0, 64, 11
1, 242208, Control_c, 0, 64, 34
1, 242228, Control_c, 0, 64, 63
1, 242246, Control_c, 0, 64, 79
1, 242265, Control_c, 0, 64, 93
1, 242285, Control_c, 0, 64, 107
1, 242301, Control_c, 0, 64, 127
1, 242315, Note_on_c, 0, 74, 81
1, 242351, Note_off_c, 0, 47, 62
1, 242357, Note_off_c, 0, 77, 61
1, 242376, Note_off_c, 0, 76, 62
1, 242564, Control_c, 0, 64, 84
1, 242583, Control_c, 0, 64, 49
1, 242601, Control_c, 0, 64, 0
1, 242603, Note_on_c, 0, 52, 75
1, 242608, Note_on_c, 0, 76, 78
1, 242628, Note_off_c, 0, 74, 57
1, 242886, Note_on_c, 0, 74, 79
1, 242900, Control_c, 0, 64, 20
1, 242919, Control_c, 0, 64, 42
1, 242938, Control_c, 0, 64, 63
1, 242946, Note_off_c, 0, 76, 57
1, 242958, Control_c, 0, 64, 75
1, 242975, Control_c, 0, 64, 85
1, 242994, Control_c, 0, 64, 98
1, 243014, Control_c, 0, 64, 127
1, 243164, Note_on_c, 0, 72, 80
1, 243196, Note_off_c, 0, 71, 57
1, 243252, Note_off_c, 0, 74, 52
1, 243420, Note_on_c, 0, 71, 79
1, 243422, Note_off_c, 0, 72, 62
1, 243732, Note_on_c, 0, 72, 71
1, 243743, Control_c, 0, 64, 84
1, 243750, Note_on_c, 0, 45, 66
1, 243753, Note_off_c, 0, 44, 61
1, 243762, Control_c, 0, 64, 62
1, 243778, Note_off_c, 0, 71, 60
1, 243780, Control_c, 0, 64, 45
1, 243800, Control_c, 0, 64, 36
1, 243817, Note_off_c, 0, 52, 56
1, 243817, Control_c, 0, 64, 31
1, 243837, Control_c, 0, 64, 26
1, 243856, Control_c, 0, 64, 21
1, 243893, Control_c, 0, 64, 17
1, 244025, Note_on_c, 0, 71, 74
1, 244080, Control_c, 0, 64, 13
1, 244156, Control_c, 0, 64, 8
1, 244267, Control_c, 0, 64, 0
1, 244304, Note_on_c, 0, 52, 61
1, 244307, Note_on_c, 0, 69, 68
1, 244375, Note_off_c, 0, 71, 52
1, 244436, Control_c, 0, 64, 15
1, 244455, Control_c, 0, 64, 28
1, 244473, Control_c, 0, 64, 45
1, 244493, Control_c, 0, 64, 58
1, 244510, Control_c, 0, 64, 60
1, 244582, Note_on_c, 0, 68, 71
1, 244585, Control_c, 0, 64, 63
1, 244605, Control_c, 0, 64, 66
1, 244608, Note_off_c, 0, 69, 56
1, 244608, Poly_aftertouch_c, 0, 69, 0
1, 244623, Control_c, 0, 64, 70
1, 244642, Control_c, 0, 64, 76
1, 244661, Control_c, 0, 64, 84
1, 244679, Control_c, 0, 64, 99
1, 244699, Control_c, 0, 64, 127
1, 244933, Note_on_c, 0, 69, 65
1, 244940, Note_on_c, 0, 64, 56
1, 244940, Control_c, 0, 64, 112
1, 244956, Note_on_c, 0, 57, 59
1, 244959, Control_c, 0, 64, 79
1, 244978, Control_c, 0, 64, 56
1, 244998, Control_c, 0, 64, 35
1, 245005, Note_off_c, 0, 68, 55
1, 245017, Control_c, 0, 64, 18
1, 245035, Control_c, 0, 64, 10
1, 245041, Note_off_c, 0, 52, 59
1, 245447, Control_c, 0, 64, 15
1, 245503, Control_c, 0, 64, 20
1, 245560, Control_c, 0, 64, 25
1, 245571, Note_on_c, 0, 47, 65
1, 245578, Control_c, 0, 64, 30
1, 245597, Control_c, 0, 64, 38
1, 245615, Control_c, 0, 64, 48
1, 245620, Note_off_c, 0, 45, 57
1, 245634, Control_c, 0, 64, 56
1, 245653, Control_c, 0, 64, 59
1, 245691, Control_c, 0, 64, 61
1, 245708, Control_c, 0, 64, 64
1, 245727, Control_c, 0, 64, 69
1, 245746, Control_c, 0, 64, 73
1, 245766, Control_c, 0, 64, 76
1, 245802, Control_c, 0, 64, 79
1, 245834, Note_on_c, 0, 48, 74
1, 245877, Control_c, 0, 64, 81
1, 245880, Note_off_c, 0, 47, 62
1, 245896, Control_c, 0, 64, 83
1, 245915, Control_c, 0, 64, 88
1, 245933, Control_c, 0, 64, 95
1, 245953, Control_c, 0, 64, 108
1, 245971, Control_c, 0, 64, 127
1, 246140, Control_c, 0, 64, 85
1, 246150, Note_on_c, 0, 50, 68
1, 246156, Note_on_c, 0, 65, 68
1, 246159, Control_c, 0, 64, 58
1, 246162, Note_off_c, 0, 48, 62
1, 246168, Note_off_c, 0, 64, 58
1, 246177, Control_c, 0, 64, 26
1, 246195, Control_c, 0, 64, 0
1, 246402, Control_c, 0, 64, 17
1, 246420, Control_c, 0, 64, 36
1, 246439, Control_c, 0, 64, 59
1, 246457, Control_c, 0, 64, 73
1, 246466, Note_off_c, 0, 57, 61
1, 246476, Control_c, 0, 64, 82
1, 246495, Control_c, 0, 64, 89
1, 246514, Control_c, 0, 64, 98
1, 246532, Control_c, 0, 64, 127
1, 246739, Control_c, 0, 64, 91
1, 246746, Note_on_c, 0, 74, 66
1, 246757, Control_c, 0, 64, 66
1, 246769, Note_on_c, 0, 57, 64
1, 246775, Control_c, 0, 64, 47
1, 246795, Control_c, 0, 64, 36
1, 246802, Note_off_c, 0, 69, 58
1, 246802, Poly_aftertouch_c, 0, 69, 0
1, 246813, Control_c, 0, 64, 32
1, 246821, Note_off_c, 0, 72, 60
1, 246870, Control_c, 0, 64, 42
1, 246889, Control_c, 0, 64, 55
1, 246907, Control_c, 0, 64, 68
1, 246925, Control_c, 0, 64, 78
1, 246944, Control_c, 0, 64, 88
1, 246963, Control_c, 0, 64, 101
1, 246981, Control_c, 0, 64, 127
1, 247025, Note_on_c, 0, 72, 76
1, 247297, Note_on_c, 0, 62, 67
1, 247308, Note_on_c, 0, 71, 74
1, 247317, Note_off_c, 0, 65, 42
1, 247317, Control_c, 0, 64, 88
1, 247320, Note_off_c, 0, 57, 61
1, 247337, Control_c, 0, 64, 55
1, 247356, Control_c, 0, 64, 18
1, 247376, Control_c, 0, 64, 0
1, 247449, Control_c, 0, 64, 34
1, 247468, Control_c, 0, 64, 69
1, 247487, Control_c, 0, 64, 116
1, 247506, Control_c, 0, 64, 127
1, 247565, Note_on_c, 0, 69, 76
1, 247589, Note_off_c, 0, 71, 61
1, 247598, Note_off_c, 0, 72, 35
1, 247654, Note_off_c, 0, 74, 25
1, 247830, Note_on_c, 0, 68, 73
1, 247840, Note_on_c, 0, 59, 72
1, 247843, Control_c, 0, 64, 94
1, 247861, Control_c, 0, 64, 60
1, 247880, Control_c, 0, 64, 28
1, 247897, Note_off_c, 0, 69, 57
1, 247897, Poly_aftertouch_c, 0, 69, 0
1, 247898, Control_c, 0, 64, 10
1, 247936, Control_c, 0, 64, 23
1, 247955, Control_c, 0, 64, 48
1, 247974, Control_c, 0, 64, 80
1, 247992, Control_c, 0, 64, 127
1, 248109, Note_on_c, 0, 66, 78
1, 248175, Note_off_c, 0, 68, 59
1, 248179, Note_off_c, 0, 50, 60
1, 248425, Note_on_c, 0, 69, 68
1, 248432, Note_on_c, 0, 52, 79
1, 248441, Control_c, 0, 64, 122
1, 248460, Control_c, 0, 64, 88
1, 248473, Note_off_c, 0, 66, 57
1, 248478, Control_c, 0, 64, 69
1, 248500, Control_c, 0, 64, 54
1, 248517, Control_c, 0, 64, 45
1, 248535, Control_c, 0, 64, 41
1, 248574, Control_c, 0, 64, 35
1, 248591, Control_c, 0, 64, 28
1, 248610, Control_c, 0, 64, 19
1, 248629, Control_c, 0, 64, 13
1, 248712, Note_on_c, 0, 68, 75
1, 248779, Control_c, 0, 64, 0
1, 248781, Note_off_c, 0, 69, 50
1, 248781, Poly_aftertouch_c, 0, 69, 0
1, 248985, Control_c, 0, 64, 13
1, 248998, Note_on_c, 0, 66, 74
1, 249003, Control_c, 0, 64, 27
1, 249022, Control_c, 0, 64, 47
1, 249034, Note_off_c, 0, 68, 62
1, 249041, Control_c, 0, 64, 63
1, 249059, Control_c, 0, 64, 69
1, 249077, Control_c, 0, 64, 71
1, 249097, Control_c, 0, 64, 73
1, 249115, Control_c, 0, 64, 76
1, 249135, Control_c, 0, 64, 82
1, 249153, Control_c, 0, 64, 88
1, 249172, Control_c, 0, 64, 93
1, 249209, Control_c, 0, 64, 98
1, 249244, Note_on_c, 0, 64, 74
1, 249246, Note_off_c, 0, 66, 62
1, 249302, Control_c, 0, 64, 103
1, 249340, Control_c, 0, 64, 113
1, 249359, Control_c, 0, 64, 127
1, 249482, Note_on_c, 0, 68, 68
1, 249563, Note_on_c, 0, 71, 62
1, 249640, Control_c, 0, 64, 114
1, 249651, Note_on_c, 0, 76, 86
1, 249658, Control_c, 0, 64, 75
1, 249677, Control_c, 0, 64, 43
1, 249714, Control_c, 0, 64, 0
1, 249808, Control_c, 0, 64, 8
1, 249827, Control_c, 0, 64, 26
1, 249847, Control_c, 0, 64, 53
1, 249864, Control_c, 0, 64, 74
1, 249884, Control_c, 0, 64, 89
1, 249903, Control_c, 0, 64, 102
1, 249921, Control_c, 0, 64, 108
1, 249938, Control_c, 0, 64, 127
1, 249953, Note_off_c, 0, 62, 54
1, 250224, Note_on_c, 0, 60, 73
1, 250228, Note_off_c, 0, 59, 60
1, 250294, Control_c, 0, 64, 96
1, 250314, Control_c, 0, 64, 67
1, 250332, Control_c, 0, 64, 44
1, 250351, Control_c, 0, 64, 30
1, 250389, Control_c, 0, 64, 40
1, 250406, Control_c, 0, 64, 57
1, 250426, Control_c, 0, 64, 71
1, 250446, Control_c, 0, 64, 84
1, 250463, Control_c, 0, 64, 97
1, 250482, Control_c, 0, 64, 116
1, 250500, Control_c, 0, 64, 127
1, 250515, Note_on_c, 0, 59, 79
1, 250546, Note_off_c, 0, 60, 60
1, 250870, Note_off_c, 0, 59, 62
1, 250880, Note_on_c, 0, 60, 80
1, 250913, Control_c, 0, 64, 96
1, 250933, Control_c, 0, 64, 62
1, 250950, Control_c, 0, 64, 32
1, 250969, Control_c, 0, 64, 13
1, 251003, Note_off_c, 0, 71, 62
1, 251004, Control_c, 0, 64, 30
1, 251024, Control_c, 0, 64, 62
1, 251027, Note_off_c, 0, 68, 61
1, 251044, Control_c, 0, 64, 99
1, 251062, Control_c, 0, 64, 127
1, 251154, Note_on_c, 0, 71, 80
1, 251472, Note_on_c, 0, 72, 74
1, 251472, Control_c, 0, 64, 80
1, 251493, Control_c, 0, 64, 59
1, 251511, Control_c, 0, 64, 57
1, 251530, Control_c, 0, 64, 64
1, 251545, Note_off_c, 0, 71, 54
1, 251548, Control_c, 0, 64, 73
1, 251568, Control_c, 0, 64, 89
1, 251587, Control_c, 0, 64, 127
1, 251734, Note_on_c, 0, 69, 80
1, 251786, Note_off_c, 0, 72, 56
1, 251807, Note_off_c, 0, 64, 59
1, 251994, Note_on_c, 0, 59, 62
1, 251995, Note_off_c, 0, 60, 59
1, 252091, Control_c, 0, 64, 108
1, 252109, Control_c, 0, 64, 69
1, 252114, Note_on_c, 0, 64, 70
1, 252114, Note_on_c, 0, 62, 73
1, 252129, Control_c, 0, 64, 34
1, 252167, Control_c, 0, 64, 0
1, 252173, Note_off_c, 0, 76, 48
1, 252178, Note_off_c, 0, 69, 57
1, 252178, Poly_aftertouch_c, 0, 69, 0
1, 252223, Control_c, 0, 64, 26
1, 252242, Control_c, 0, 64, 56
1, 252261, Control_c, 0, 64, 83
1, 252274, Note_off_c, 0, 59, 60
1, 252278, Control_c, 0, 64, 127
1, 252314, Note_on_c, 0, 60, 61
1, 252374, Note_off_c, 0, 60, 51
1, 252432, Note_on_c, 0, 59, 66
1, 252432, Note_on_c, 0, 69, 81
1, 252481, Note_off_c, 0, 59, 56
1, 252536, Note_on_c, 0, 60, 59
1, 252577, Note_off_c, 0, 60, 59
1, 252618, Note_on_c, 0, 59, 64
1, 252654, Note_off_c, 0, 59, 63
1, 252699, Note_on_c, 0, 60, 67
1, 252746, Note_off_c, 0, 60, 55
1, 252763, Note_on_c, 0, 59, 64
1, 252797, Note_on_c, 0, 71, 86
1, 252819, Note_off_c, 0, 59, 55
1, 252821, Control_c, 0, 64, 85
1, 252824, Note_off_c, 0, 69, 53
1, 252824, Poly_aftertouch_c, 0, 69, 0
1, 252840, Control_c, 0, 64, 50
1, 252852, Note_on_c, 0, 60, 66
1, 252859, Control_c, 0, 64, 16
1, 252894, Note_off_c, 0, 60, 55
1, 252915, Control_c, 0, 64, 49
1, 252936, Note_on_c, 0, 59, 64
1, 252936, Control_c, 0, 64, 97
1, 252952, Control_c, 0, 64, 127
1, 252970, Note_off_c, 0, 59, 63
1, 253003, Note_on_c, 0, 60, 75
1, 253065, Note_on_c, 0, 59, 68
1, 253067, Note_off_c, 0, 60, 56
1, 253138, Note_off_c, 0, 59, 61
1, 253148, Note_on_c, 0, 60, 63
1, 253212, Note_on_c, 0, 68, 84
1, 253217, Note_on_c, 0, 59, 64
1, 253226, Note_off_c, 0, 60, 56
1, 253255, Note_off_c, 0, 71, 57
1, 253357, Note_off_c, 0, 59, 63
1, 253397, Note_off_c, 0, 62, 50
1, 253401, Note_off_c, 0, 64, 32
1, 253421, Note_off_c, 0, 52, 58
1, 253452, Note_off_c, 0, 68, 63
1, 254039, Note_on_c, 0, 57, 79
1, 254040, Note_on_c, 0, 68, 84
1, 254043, Note_on_c, 0, 64, 73
1, 254044, Note_on_c, 0, 45, 72
1, 254045, Note_on_c, 0, 52, 77
1, 254049, Note_on_c, 0, 62, 72
1, 254094, Control_c, 0, 64, 105
1, 254114, Control_c, 0, 64, 65
1, 254132, Control_c, 0, 64, 30
1, 254169, Control_c, 0, 64, 0
1, 255405, Control_c, 0, 64, 16
1, 255423, Control_c, 0, 64, 27
1, 255442, Control_c, 0, 64, 40
1, 255461, Control_c, 0, 64, 50
1, 255479, Control_c, 0, 64, 57
1, 255498, Control_c, 0, 64, 61
1, 255518, Control_c, 0, 64, 64
1, 255537, Control_c, 0, 64, 67
1, 255555, Control_c, 0, 64, 70
1, 255573, Control_c, 0, 64, 74
1, 255594, Control_c, 0, 64, 79
1, 255611, Control_c, 0, 64, 87
1, 255629, Control_c, 0, 64, 97
1, 255649, Control_c, 0, 64, 109
1, 255667, Control_c, 0, 64, 127
1, 256808, Note_on_c, 0, 69, 54
1, 256833, Note_off_c, 0, 68, 61
1, 256842, Note_on_c, 0, 61, 46
1, 256846, Control_c, 0, 64, 91
1, 256867, Control_c, 0, 64, 72
1, 256883, Control_c, 0, 64, 57
1, 256902, Control_c, 0, 64, 45
1, 256921, Control_c, 0, 64, 38
1, 256940, Control_c, 0, 64, 33
1, 256943, Note_off_c, 0, 62, 38
1, 256958, Control_c, 0, 64, 28
1, 256977, Control_c, 0, 64, 23
1, 256997, Control_c, 0, 64, 18
1, 257033, Control_c, 0, 64, 13
1, 257071, Control_c, 0, 64, 8
1, 257314, Control_c, 0, 64, 0
1, 258024, Control_c, 0, 64, 8
1, 258063, Control_c, 0, 64, 14
1, 258100, Control_c, 0, 64, 20
1, 258119, Control_c, 0, 64, 24
1, 258138, Control_c, 0, 64, 32
1, 258156, Control_c, 0, 64, 40
1, 258175, Control_c, 0, 64, 48
1, 258194, Control_c, 0, 64, 52
1, 258475, Control_c, 0, 64, 54
1, 258531, Control_c, 0, 64, 56
1, 258623, Control_c, 0, 64, 58
1, 259054, Control_c, 0, 64, 60
1, 259092, Control_c, 0, 64, 61
1, 259167, Control_c, 0, 64, 62
1, 259261, Control_c, 0, 64, 63
1, 259280, Control_c, 0, 64, 64
1, 259317, Control_c, 0, 64, 65
1, 259336, Control_c, 0, 64, 66
1, 259354, Control_c, 0, 64, 67
1, 259373, Control_c, 0, 64, 68
1, 259429, Control_c, 0, 64, 70
1, 259504, Control_c, 0, 64, 72
1, 259541, Control_c, 0, 64, 74
1, 259578, Control_c, 0, 64, 76
1, 259822, Control_c, 0, 64, 78
1, 259879, Control_c, 0, 64, 81
1, 259897, Control_c, 0, 64, 83
1, 259916, Control_c, 0, 64, 86
1, 259935, Control_c, 0, 64, 90
1, 259953, Control_c, 0, 64, 96
1, 259972, Control_c, 0, 64, 104
1, 259991, Control_c, 0, 64, 113
1, 260009, Control_c, 0, 64, 127
1, 261284, Note_off_c, 0, 64, 29
1, 261322, Note_off_c, 0, 45, 33
1, 261330, Note_off_c, 0, 52, 44
1, 261331, Note_off_c, 0, 57, 38
1, 261359, Note_off_c, 0, 61, 35
1, 261370, Note_off_c, 0, 69, 38
1, 261370, Poly_aftertouch_c, 0, 69, 0
1, 261489, Control_c, 0, 64, 117
1, 261506, Control_c, 0, 64, 105
1, 261544, Control_c, 0, 64, 101
1, 261601, Control_c, 0, 64, 94
1, 261657, Control_c, 0, 64, 90
1, 261694, Control_c, 0, 64, 86
1, 261712, Control_c, 0, 64, 82
1, 261732, Control_c, 0, 64, 78
1, 261750, Control_c, 0, 64, 74
1, 261769, Control_c, 0, 64, 71
1, 261807, Control_c, 0, 64, 69
1, 261825, Control_c, 0, 64, 67
1, 261844, Control_c, 0, 64, 65
1, 261865, Control_c, 0, 64, 62
1, 261882, Control_c, 0, 64, 61
1, 261900, Control_c, 0, 64, 60
1, 261937, Control_c, 0, 64, 58
1, 261974, Control_c, 0, 64, 56
1, 262012, Control_c, 0, 64, 54
1, 262050, Control_c, 0, 64, 51
1, 262069, Control_c, 0, 64, 48
1, 262087, Control_c, 0, 64, 44
1, 262106, Control_c, 0, 64, 41
1, 262144, Control_c, 0, 64, 37
1, 262873, Control_c, 0, 64, 33
1, 263080, Control_c, 0, 64, 29
1, 263304, Control_c, 0, 64, 24
1, 263659, Control_c, 0, 64, 20
1, 263833, Note_on_c, 0, 69, 69
1, 263960, Control_c, 0, 64, 15
1, 263997, Control_c, 0, 64, 11
1, 264109, Control_c, 0, 64, 0
1, 264309, Note_on_c, 0, 71, 80
1, 264361, Note_off_c, 0, 69, 56
1, 264361, Poly_aftertouch_c, 0, 69, 0
1, 264728, Note_on_c, 0, 72, 82
1, 264798, Note_off_c, 0, 71, 59
1, 265155, Note_on_c, 0, 69, 78
1, 265182, Note_off_c, 0, 72, 62
1, 265622, Note_on_c, 0, 76, 83
1, 265652, Note_off_c, 0, 69, 58
1, 265652, Poly_aftertouch_c, 0, 69, 0
1, 265944, Control_c, 0, 64, 9
1, 265962, Control_c, 0, 64, 18
1, 265981, Control_c, 0, 64, 36
1, 265999, Control_c, 0, 64, 61
1, 266018, Control_c, 0, 64, 82
1, 266038, Control_c, 0, 64, 114
1, 266055, Control_c, 0, 64, 127
1, 266132, Note_off_c, 0, 76, 61
1, 266636, Control_c, 0, 64, 78
1, 266654, Control_c, 0, 64, 49
1, 266674, Control_c, 0, 64, 23
1, 266692, Control_c, 0, 64, 11
1, 266785, Control_c, 0, 64, 0
1, 267071, Note_on_c, 0, 69, 79
1, 267560, Note_on_c, 0, 77, 85
1, 267593, Note_off_c, 0, 69, 55
1, 267593, Poly_aftertouch_c, 0, 69, 0
1, 267890, Control_c, 0, 64, 10
1, 267909, Control_c, 0, 64, 19
1, 267928, Control_c, 0, 64, 31
1, 267947, Control_c, 0, 64, 45
1, 267964, Control_c, 0, 64, 56
1, 267983, Control_c, 0, 64, 59
1, 268021, Control_c, 0, 64, 61
1, 268041, Control_c, 0, 64, 65
1, 268059, Control_c, 0, 64, 73
1, 268078, Control_c, 0, 64, 86
1, 268090, Note_off_c, 0, 77, 62
1, 268094, Control_c, 0, 64, 108
1, 268114, Control_c, 0, 64, 127
1, 268582, Control_c, 0, 64, 104
1, 268602, Control_c, 0, 64, 81
1, 268620, Control_c, 0, 64, 65
1, 268640, Control_c, 0, 64, 55
1, 268657, Control_c, 0, 64, 50
1, 268751, Control_c, 0, 64, 47
1, 268769, Control_c, 0, 64, 44
1, 268788, Control_c, 0, 64, 41
1, 268826, Control_c, 0, 64, 35
1, 268902, Control_c, 0, 64, 30
1, 268957, Control_c, 0, 64, 26
1, 268994, Control_c, 0, 64, 21
1, 269007, Note_on_c, 0, 69, 64
1, 269032, Control_c, 0, 64, 17
1, 269088, Control_c, 0, 64, 13
1, 269125, Control_c, 0, 64, 8
1, 269488, Note_on_c, 0, 76, 67
1, 269518, Note_off_c, 0, 69, 55
1, 269518, Poly_aftertouch_c, 0, 69, 0
1, 269631, Control_c, 0, 64, 0
1, 269763, Control_c, 0, 64, 10
1, 269782, Control_c, 0, 64, 21
1, 269799, Control_c, 0, 64, 40
1, 269818, Control_c, 0, 64, 60
1, 269837, Control_c, 0, 64, 70
1, 269848, Note_off_c, 0, 76, 63
1, 269855, Control_c, 0, 64, 76
1, 269874, Control_c, 0, 64, 78
1, 269892, Control_c, 0, 64, 83
1, 269912, Control_c, 0, 64, 93
1, 269931, Control_c, 0, 64, 109
1, 269949, Control_c, 0, 64, 127
1, 270529, Control_c, 0, 64, 104
1, 270549, Control_c, 0, 64, 85
1, 270567, Control_c, 0, 64, 69
1, 270586, Control_c, 0, 64, 56
1, 270604, Control_c, 0, 64, 47
1, 270623, Control_c, 0, 64, 41
1, 270660, Control_c, 0, 64, 34
1, 270698, Control_c, 0, 64, 27
1, 270735, Control_c, 0, 64, 19
1, 270773, Control_c, 0, 64, 14
1, 270786, Note_on_c, 0, 74, 46
1, 271035, Note_on_c, 0, 72, 61
1, 271168, Note_off_c, 0, 74, 32
1, 271244, Note_on_c, 0, 71, 68
1, 271284, Note_off_c, 0, 72, 54
1, 271481, Note_on_c, 0, 69, 64
1, 271516, Note_off_c, 0, 71, 57
1, 271702, Note_on_c, 0, 71, 66
1, 271735, Note_off_c, 0, 69, 54
1, 271735, Poly_aftertouch_c, 0, 69, 0
1, 271821, Control_c, 0, 64, 10
1, 271924, Note_on_c, 0, 72, 67
1, 271952, Note_off_c, 0, 71, 58
1, 272136, Note_on_c, 0, 69, 64
1, 272144, Note_off_c, 0, 72, 61
1, 272397, Note_on_c, 0, 74, 70
1, 272418, Note_off_c, 0, 69, 57
1, 272418, Poly_aftertouch_c, 0, 69, 0
1, 272589, Control_c, 0, 64, 18
1, 272607, Control_c, 0, 64, 33
1, 272627, Control_c, 0, 64, 54
1, 272645, Control_c, 0, 64, 70
1, 272652, Note_off_c, 0, 74, 61
1, 272663, Control_c, 0, 64, 78
1, 272684, Control_c, 0, 64, 84
1, 272701, Control_c, 0, 64, 90
1, 272720, Control_c, 0, 64, 100
1, 272738, Control_c, 0, 64, 127
1, 272851, Control_c, 0, 64, 94
1, 272869, Control_c, 0, 64, 68
1, 272875, Note_on_c, 0, 74, 72
1, 272889, Control_c, 0, 64, 46
1, 272907, Control_c, 0, 64, 34
1, 272945, Control_c, 0, 64, 45
1, 272962, Control_c, 0, 64, 61
1, 272982, Control_c, 0, 64, 74
1, 273000, Control_c, 0, 64, 87
1, 273018, Control_c, 0, 64, 108
1, 273038, Note_off_c, 0, 74, 62
1, 273038, Control_c, 0, 64, 127
1, 273356, Control_c, 0, 64, 108
1, 273375, Control_c, 0, 64, 76
1, 273381, Note_on_c, 0, 74, 63
1, 273393, Control_c, 0, 64, 49
1, 273412, Control_c, 0, 64, 24
1, 273431, Control_c, 0, 64, 12
1, 273524, Control_c, 0, 64, 22
1, 273543, Control_c, 0, 64, 37
1, 273561, Control_c, 0, 64, 58
1, 273580, Control_c, 0, 64, 73
1, 273599, Control_c, 0, 64, 84
1, 273617, Control_c, 0, 64, 97
1, 273637, Control_c, 0, 64, 117
1, 273655, Control_c, 0, 64, 127
1, 273862, Control_c, 0, 64, 108
1, 273880, Control_c, 0, 64, 89
1, 273897, Note_on_c, 0, 72, 57
1, 273897, Control_c, 0, 64, 76
1, 273917, Control_c, 0, 64, 67
1, 273936, Control_c, 0, 64, 61
1, 273955, Control_c, 0, 64, 59
1, 273992, Control_c, 0, 64, 55
1, 274011, Control_c, 0, 64, 53
1, 274020, Note_off_c, 0, 74, 36
1, 274028, Control_c, 0, 64, 51
1, 274068, Control_c, 0, 64, 48
1, 274104, Control_c, 0, 64, 44
1, 274128, Note_on_c, 0, 71, 63
1, 274140, Note_off_c, 0, 72, 60
1, 274140, Control_c, 0, 64, 41
1, 274216, Control_c, 0, 64, 37
1, 274272, Control_c, 0, 64, 33
1, 274382, Note_on_c, 0, 74, 59
1, 274386, Note_off_c, 0, 71, 60
1, 274592, Control_c, 0, 64, 29
1, 274625, Note_on_c, 0, 72, 56
1, 274647, Control_c, 0, 64, 24
1, 274705, Note_off_c, 0, 74, 35
1, 274722, Control_c, 0, 64, 20
1, 274761, Control_c, 0, 64, 16
1, 274871, Note_on_c, 0, 71, 55
1, 274891, Note_off_c, 0, 72, 55
1, 275099, Note_off_c, 0, 71, 62
1, 275102, Note_on_c, 0, 69, 61
1, 275373, Note_on_c, 0, 72, 58
1, 275375, Note_off_c, 0, 69, 56
1, 275375, Poly_aftertouch_c, 0, 69, 0
1, 275528, Control_c, 0, 64, 23
1, 275545, Control_c, 0, 64, 29
1, 275565, Control_c, 0, 64, 38
1, 275583, Control_c, 0, 64, 51
1, 275584, Note_off_c, 0, 72, 60
1, 275602, Control_c, 0, 64, 60
1, 275605, Note_on_c, 0, 71, 63
1, 275621, Control_c, 0, 64, 62
1, 275676, Control_c, 0, 64, 64
1, 275695, Control_c, 0, 64, 65
1, 275714, Control_c, 0, 64, 67
1, 275727, Note_off_c, 0, 71, 46
1, 275733, Control_c, 0, 64, 69
1, 275748, Note_on_c, 0, 72, 60
1, 275771, Control_c, 0, 64, 72
1, 275797, Note_off_c, 0, 72, 57
1, 275807, Control_c, 0, 64, 74
1, 275863, Note_on_c, 0, 71, 53
1, 275893, Note_off_c, 0, 71, 57
1, 275929, Note_on_c, 0, 72, 52
1, 275959, Note_off_c, 0, 72, 57
1, 275983, Note_on_c, 0, 71, 65
1, 275995, Control_c, 0, 64, 76
1, 276026, Note_off_c, 0, 71, 59
1, 276031, Control_c, 0, 64, 79
1, 276051, Note_on_c, 0, 72, 66
1, 276051, Control_c, 0, 64, 83
1, 276070, Control_c, 0, 64, 89
1, 276088, Control_c, 0, 64, 97
1, 276100, Note_off_c, 0, 72, 52
1, 276107, Control_c, 0, 64, 106
1, 276127, Control_c, 0, 64, 122
1, 276144, Control_c, 0, 64, 127
1, 276146, Note_on_c, 0, 71, 56
1, 276173, Note_off_c, 0, 71, 61
1, 276209, Note_on_c, 0, 72, 56
1, 276251, Note_off_c, 0, 72, 62
1, 276261, Note_on_c, 0, 71, 70
1, 276294, Control_c, 0, 64, 96
1, 276314, Control_c, 0, 64, 74
1, 276332, Control_c, 0, 64, 57
1, 276350, Control_c, 0, 64, 46
1, 276369, Control_c, 0, 64, 42
1, 276407, Control_c, 0, 64, 37
1, 276444, Control_c, 0, 64, 31
1, 277285, Note_on_c, 0, 69, 57
1, 277337, Note_off_c, 0, 71, 57
1, 277525, Note_on_c, 0, 71, 73
1, 277561, Note_off_c, 0, 69, 56
1, 277561, Poly_aftertouch_c, 0, 69, 0
1, 277753, Note_on_c, 0, 72, 76
1, 277798, Note_off_c, 0, 71, 56
1, 277981, Note_on_c, 0, 74, 73
1, 278002, Note_off_c, 0, 72, 59
1, 278221, Note_on_c, 0, 76, 65
1, 278235, Note_off_c, 0, 74, 53
1, 278454, Note_on_c, 0, 69, 70
1, 278466, Note_off_c, 0, 76, 61
1, 278691, Note_on_c, 0, 76, 75
1, 278716, Note_off_c, 0, 69, 46
1, 278716, Poly_aftertouch_c, 0, 69, 0
1, 278904, Note_on_c, 0, 78, 75
1, 278952, Note_off_c, 0, 76, 60
1, 279153, Note_on_c, 0, 64, 80
1, 279155, Note_on_c, 0, 79, 69
1, 279193, Note_off_c, 0, 78, 61
1, 279381, Note_on_c, 0, 76, 73
1, 279420, Control_c, 0, 64, 35
1, 279429, Note_off_c, 0, 79, 40
1, 279514, Control_c, 0, 64, 39
1, 279626, Note_on_c, 0, 66, 81
1, 279628, Note_on_c, 0, 79, 71
1, 279659, Note_off_c, 0, 64, 61
1, 279688, Note_off_c, 0, 76, 59
1, 279861, Note_on_c, 0, 81, 75
1, 279933, Note_off_c, 0, 79, 57
1, 280095, Note_on_c, 0, 83, 67
1, 280102, Note_on_c, 0, 67, 80
1, 280133, Note_off_c, 0, 66, 60
1, 280134, Note_off_c, 0, 81, 61
1, 280326, Note_on_c, 0, 76, 73
1, 280338, Control_c, 0, 64, 41
1, 280354, Note_off_c, 0, 83, 63
1, 280375, Control_c, 0, 64, 43
1, 280430, Control_c, 0, 64, 46
1, 280450, Control_c, 0, 64, 49
1, 280469, Control_c, 0, 64, 51
1, 280561, Control_c, 0, 64, 49
1, 280563, Note_on_c, 0, 81, 74
1, 280571, Note_on_c, 0, 64, 78
1, 280580, Control_c, 0, 64, 47
1, 280600, Control_c, 0, 64, 44
1, 280608, Note_off_c, 0, 67, 56
1, 280627, Note_off_c, 0, 76, 56
1, 280637, Control_c, 0, 64, 42
1, 280794, Note_on_c, 0, 83, 77
1, 280876, Note_off_c, 0, 81, 57
1, 281049, Control_c, 0, 64, 36
1, 281051, Note_off_c, 0, 64, 62
1, 281058, Note_on_c, 0, 84, 70
1, 281058, Note_on_c, 0, 69, 81
1, 281082, Note_off_c, 0, 83, 64
1, 281087, Control_c, 0, 64, 29
1, 281124, Control_c, 0, 64, 22
1, 281142, Control_c, 0, 64, 17
1, 281161, Control_c, 0, 64, 13
1, 281283, Note_on_c, 0, 83, 77
1, 281349, Control_c, 0, 64, 0
1, 281394, Note_off_c, 0, 84, 54
1, 281517, Note_on_c, 0, 81, 81
1, 281545, Note_off_c, 0, 83, 63
1, 281750, Note_on_c, 0, 84, 80
1, 281785, Note_off_c, 0, 81, 61
1, 281798, Control_c, 0, 64, 18
1, 281817, Control_c, 0, 64, 33
1, 281835, Control_c, 0, 64, 55
1, 281854, Control_c, 0, 64, 72
1, 281875, Control_c, 0, 64, 84
1, 281891, Control_c, 0, 64, 103
1, 281910, Control_c, 0, 64, 127
1, 282020, Note_on_c, 0, 83, 81
1, 282045, Note_off_c, 0, 69, 58
1, 282045, Poly_aftertouch_c, 0, 69, 0
1, 282094, Note_off_c, 0, 84, 56
1, 282096, Control_c, 0, 64, 101
1, 282115, Control_c, 0, 64, 81
1, 282136, Control_c, 0, 64, 67
1, 282153, Control_c, 0, 64, 57
1, 282172, Control_c, 0, 64, 54
1, 282210, Control_c, 0, 64, 50
1, 282228, Control_c, 0, 64, 44
1, 282248, Control_c, 0, 64, 33
1, 282266, Control_c, 0, 64, 20
1, 282285, Control_c, 0, 64, 12
1, 282360, Control_c, 0, 64, 0
1, 282472, Note_on_c, 0, 64, 80
1, 282509, Control_c, 0, 64, 11
1, 282527, Control_c, 0, 64, 28
1, 282547, Control_c, 0, 64, 52
1, 282565, Control_c, 0, 64, 71
1, 282583, Control_c, 0, 64, 82
1, 282592, Note_off_c, 0, 64, 63
1, 282603, Control_c, 0, 64, 92
1, 282622, Control_c, 0, 64, 101
1, 282640, Control_c, 0, 64, 127
1, 282959, Control_c, 0, 64, 118
1, 282968, Note_on_c, 0, 72, 87
1, 282977, Control_c, 0, 64, 79
1, 282996, Control_c, 0, 64, 53
1, 283015, Control_c, 0, 64, 28
1, 283033, Control_c, 0, 64, 11
1, 283107, Control_c, 0, 64, 0
1, 283218, Note_on_c, 0, 81, 79
1, 283258, Control_c, 0, 64, 14
1, 283276, Note_off_c, 0, 83, 60
1, 283276, Control_c, 0, 64, 34
1, 283295, Control_c, 0, 64, 62
1, 283314, Control_c, 0, 64, 86
1, 283332, Control_c, 0, 64, 127
1, 283463, Note_on_c, 0, 79, 76
1, 283479, Note_off_c, 0, 81, 62
1, 283671, Note_off_c, 0, 72, 58
1, 283679, Note_on_c, 0, 83, 80
1, 283734, Note_off_c, 0, 79, 56
1, 283838, Control_c, 0, 64, 108
1, 283856, Control_c, 0, 64, 92
1, 283876, Control_c, 0, 64, 81
1, 283894, Control_c, 0, 64, 70
1, 283913, Control_c, 0, 64, 58
1, 283931, Control_c, 0, 64, 44
1, 283948, Note_on_c, 0, 81, 74
1, 283950, Control_c, 0, 64, 28
1, 283969, Control_c, 0, 64, 11
1, 284007, Control_c, 0, 64, 0
1, 284024, Note_off_c, 0, 83, 54
1, 284432, Note_on_c, 0, 64, 59
1, 284436, Control_c, 0, 64, 18
1, 284456, Control_c, 0, 64, 39
1, 284474, Control_c, 0, 64, 60
1, 284494, Control_c, 0, 64, 72
1, 284512, Control_c, 0, 64, 78
1, 284530, Control_c, 0, 64, 83
1, 284537, Note_off_c, 0, 64, 62
1, 284550, Control_c, 0, 64, 92
1, 284568, Control_c, 0, 64, 118
1, 284587, Control_c, 0, 64, 127
1, 284904, Control_c, 0, 64, 95
1, 284918, Note_on_c, 0, 71, 65
1, 284923, Control_c, 0, 64, 66
1, 284943, Control_c, 0, 64, 41
1, 284961, Control_c, 0, 64, 21
1, 284980, Control_c, 0, 64, 11
1, 285036, Control_c, 0, 64, 0
1, 285138, Note_on_c, 0, 79, 65
1, 285156, Note_off_c, 0, 81, 58
1, 285205, Control_c, 0, 64, 9
1, 285223, Control_c, 0, 64, 17
1, 285243, Control_c, 0, 64, 30
1, 285260, Control_c, 0, 64, 49
1, 285280, Control_c, 0, 64, 65
1, 285299, Control_c, 0, 64, 71
1, 285317, Control_c, 0, 64, 74
1, 285335, Control_c, 0, 64, 77
1, 285355, Control_c, 0, 64, 86
1, 285373, Control_c, 0, 64, 106
1, 285381, Note_on_c, 0, 78, 69
1, 285393, Control_c, 0, 64, 127
1, 285418, Note_off_c, 0, 79, 60
1, 285553, Note_off_c, 0, 71, 58
1, 285591, Note_on_c, 0, 81, 66
1, 285594, Note_off_c, 0, 78, 61
1, 285673, Control_c, 0, 64, 122
1, 285691, Control_c, 0, 64, 98
1, 285710, Control_c, 0, 64, 85
1, 285728, Control_c, 0, 64, 74
1, 285747, Control_c, 0, 64, 65
1, 285766, Control_c, 0, 64, 58
1, 285784, Control_c, 0, 64, 53
1, 285804, Control_c, 0, 64, 48
1, 285823, Control_c, 0, 64, 43
1, 285840, Note_on_c, 0, 79, 66
1, 285840, Control_c, 0, 64, 37
1, 285859, Control_c, 0, 64, 33
1, 285883, Note_off_c, 0, 81, 52
1, 285935, Control_c, 0, 64, 29
1, 286074, Note_on_c, 0, 69, 55
1, 286299, Note_on_c, 0, 67, 59
1, 286359, Note_off_c, 0, 69, 57
1, 286359, Poly_aftertouch_c, 0, 69, 0
1, 286530, Note_on_c, 0, 66, 66
1, 286563, Note_off_c, 0, 67, 50
1, 286785, Note_off_c, 0, 66, 57
1, 286785, Note_on_c, 0, 64, 60
1, 287016, Note_on_c, 0, 78, 64
1, 287020, Note_off_c, 0, 64, 62
1, 287024, Note_on_c, 0, 66, 64
1, 287082, Note_off_c, 0, 79, 50
1, 287252, Note_on_c, 0, 76, 61
1, 287259, Note_on_c, 0, 67, 60
1, 287264, Note_off_c, 0, 66, 60
1, 287274, Note_off_c, 0, 78, 60
1, 287451, Control_c, 0, 64, 25
1, 287486, Note_off_c, 0, 67, 61
1, 287486, Note_on_c, 0, 64, 58
1, 287490, Note_on_c, 0, 79, 63
1, 287554, Note_off_c, 0, 76, 50
1, 287562, Control_c, 0, 64, 20
1, 287599, Control_c, 0, 64, 16
1, 287638, Control_c, 0, 64, 8
1, 287694, Control_c, 0, 64, 0
1, 287739, Note_off_c, 0, 64, 62
1, 287741, Note_on_c, 0, 78, 65
1, 287752, Note_on_c, 0, 69, 63
1, 287767, Note_off_c, 0, 79, 55
1, 287937, Control_c, 0, 64, 18
1, 287956, Control_c, 0, 64, 38
1, 287967, Note_on_c, 0, 76, 61
1, 287974, Control_c, 0, 64, 63
1, 287975, Note_off_c, 0, 78, 62
1, 287993, Control_c, 0, 64, 79
1, 288000, Note_off_c, 0, 69, 60
1, 288000, Poly_aftertouch_c, 0, 69, 0
1, 288012, Control_c, 0, 64, 95
1, 288030, Control_c, 0, 64, 116
1, 288049, Control_c, 0, 64, 127
1, 288199, Control_c, 0, 64, 82
1, 288216, Note_on_c, 0, 75, 61
1, 288218, Control_c, 0, 64, 55
1, 288227, Note_on_c, 0, 69, 60
1, 288237, Control_c, 0, 64, 30
1, 288253, Note_off_c, 0, 76, 57
1, 288254, Control_c, 0, 64, 16
1, 288330, Control_c, 0, 64, 20
1, 288350, Control_c, 0, 64, 34
1, 288368, Control_c, 0, 64, 54
1, 288387, Control_c, 0, 64, 69
1, 288405, Control_c, 0, 64, 76
1, 288425, Control_c, 0, 64, 80
1, 288443, Note_off_c, 0, 69, 53
1, 288443, Poly_aftertouch_c, 0, 69, 0
1, 288443, Control_c, 0, 64, 85
1, 288451, Note_on_c, 0, 78, 59
1, 288461, Control_c, 0, 64, 94
1, 288465, Note_off_c, 0, 75, 52
1, 288480, Control_c, 0, 64, 116
1, 288498, Control_c, 0, 64, 127
1, 288667, Control_c, 0, 64, 116
1, 288687, Control_c, 0, 64, 77
1, 288705, Control_c, 0, 64, 50
1, 288716, Note_on_c, 0, 71, 55
1, 288718, Note_on_c, 0, 69, 62
1, 288723, Control_c, 0, 64, 24
1, 288743, Control_c, 0, 64, 9
1, 288775, Note_off_c, 0, 78, 38
1, 288817, Control_c, 0, 64, 14
1, 288824, Note_off_c, 0, 71, 62
1, 288836, Control_c, 0, 64, 31
1, 288854, Control_c, 0, 64, 53
1, 288873, Control_c, 0, 64, 71
1, 288892, Control_c, 0, 64, 82
1, 288911, Control_c, 0, 64, 92
1, 288929, Control_c, 0, 64, 103
1, 288949, Control_c, 0, 64, 127
1, 289191, Control_c, 0, 64, 96
1, 289211, Control_c, 0, 64, 67
1, 289214, Note_on_c, 0, 75, 63
1, 289227, Note_on_c, 0, 67, 52
1, 289229, Control_c, 0, 64, 42
1, 289248, Control_c, 0, 64, 25
1, 289266, Control_c, 0, 64, 21
1, 289269, Note_off_c, 0, 69, 45
1, 289269, Poly_aftertouch_c, 0, 69, 0
1, 289323, Control_c, 0, 64, 25
1, 289341, Control_c, 0, 64, 39
1, 289361, Control_c, 0, 64, 59
1, 289379, Control_c, 0, 64, 75
1, 289398, Control_c, 0, 64, 88
1, 289416, Control_c, 0, 64, 101
1, 289421, Note_off_c, 0, 75, 64
1, 289434, Control_c, 0, 64, 114
1, 289441, Note_on_c, 0, 66, 56
1, 289442, Note_off_c, 0, 67, 58
1, 289453, Control_c, 0, 64, 127
1, 289678, Control_c, 0, 64, 109
1, 289694, Note_off_c, 0, 66, 61
1, 289694, Note_on_c, 0, 76, 62
1, 289697, Control_c, 0, 64, 74
1, 289714, Note_on_c, 0, 69, 54
1, 289715, Control_c, 0, 64, 47
1, 289734, Control_c, 0, 64, 24
1, 289753, Control_c, 0, 64, 13
1, 289864, Control_c, 0, 64, 20
1, 289884, Control_c, 0, 64, 31
1, 289902, Control_c, 0, 64, 48
1, 289916, Note_on_c, 0, 67, 47
1, 289921, Control_c, 0, 64, 64
1, 289940, Control_c, 0, 64, 74
1, 289941, Note_off_c, 0, 69, 42
1, 289941, Poly_aftertouch_c, 0, 69, 0
1, 289960, Control_c, 0, 64, 81
1, 289978, Control_c, 0, 64, 89
1, 289996, Control_c, 0, 64, 103
1, 290014, Control_c, 0, 64, 127
1, 290153, Note_on_c, 0, 66, 55
1, 290159, Note_off_c, 0, 67, 52
1, 290184, Control_c, 0, 64, 84
1, 290202, Control_c, 0, 64, 64
1, 290221, Control_c, 0, 64, 59
1, 290240, Control_c, 0, 64, 63
1, 290258, Control_c, 0, 64, 69
1, 290277, Control_c, 0, 64, 81
1, 290297, Control_c, 0, 64, 114
1, 290315, Control_c, 0, 64, 127
1, 290359, Note_off_c, 0, 66, 56
1, 290375, Note_on_c, 0, 64, 49
1, 290589, Note_off_c, 0, 64, 51
1, 290618, Note_on_c, 0, 67, 56
1, 290670, Control_c, 0, 64, 104
1, 290690, Control_c, 0, 64, 72
1, 290692, Note_off_c, 0, 67, 46
1, 290708, Control_c, 0, 64, 50
1, 290727, Control_c, 0, 64, 44
1, 290745, Control_c, 0, 64, 48
1, 290763, Control_c, 0, 64, 58
1, 290770, Note_on_c, 0, 66, 53
1, 290783, Control_c, 0, 64, 70
1, 290801, Control_c, 0, 64, 84
1, 290820, Control_c, 0, 64, 106
1, 290838, Control_c, 0, 64, 127
1, 290839, Note_on_c, 0, 79, 68
1, 290875, Note_off_c, 0, 66, 60
1, 290926, Note_on_c, 0, 67, 47
1, 290973, Note_off_c, 0, 67, 58
1, 291019, Note_on_c, 0, 66, 55
1, 291052, Note_off_c, 0, 66, 60
1, 291067, Note_on_c, 0, 78, 73
1, 291088, Note_on_c, 0, 67, 63
1, 291108, Note_off_c, 0, 76, 56
1, 291120, Control_c, 0, 64, 87
1, 291128, Note_off_c, 0, 67, 64
1, 291138, Control_c, 0, 64, 63
1, 291157, Control_c, 0, 64, 50
1, 291172, Note_on_c, 0, 66, 54
1, 291195, Control_c, 0, 64, 58
1, 291208, Note_off_c, 0, 66, 63
1, 291212, Control_c, 0, 64, 64
1, 291232, Control_c, 0, 64, 72
1, 291240, Note_off_c, 0, 79, 41
1, 291248, Note_on_c, 0, 67, 60
1, 291250, Control_c, 0, 64, 80
1, 291269, Note_on_c, 0, 76, 67
1, 291269, Control_c, 0, 64, 96
1, 291273, Note_off_c, 0, 78, 62
1, 291288, Control_c, 0, 64, 127
1, 291291, Note_off_c, 0, 67, 61
1, 291310, Note_on_c, 0, 66, 64
1, 291350, Note_off_c, 0, 66, 63
1, 291390, Note_on_c, 0, 67, 63
1, 291448, Note_off_c, 0, 67, 53
1, 291474, Note_on_c, 0, 66, 59
1, 291491, Note_on_c, 0, 75, 68
1, 291515, Note_off_c, 0, 66, 63
1, 291531, Control_c, 0, 64, 111
1, 291545, Note_on_c, 0, 67, 53
1, 291546, Note_off_c, 0, 76, 61
1, 291548, Control_c, 0, 64, 76
1, 291569, Control_c, 0, 64, 51
1, 291583, Note_off_c, 0, 67, 54
1, 291588, Control_c, 0, 64, 31
1, 291606, Control_c, 0, 64, 21
1, 291622, Note_on_c, 0, 66, 55
1, 291727, Note_on_c, 0, 76, 58
1, 291738, Control_c, 0, 64, 17
1, 291763, Note_off_c, 0, 75, 57
1, 291961, Control_c, 0, 64, 13
1, 291964, Note_on_c, 0, 73, 57
1, 291984, Note_off_c, 0, 76, 50
1, 292204, Control_c, 0, 64, 18
1, 292211, Note_on_c, 0, 75, 59
1, 292233, Note_off_c, 0, 73, 55
1, 292242, Control_c, 0, 64, 23
1, 292261, Control_c, 0, 64, 31
1, 292281, Control_c, 0, 64, 45
1, 292299, Control_c, 0, 64, 62
1, 292317, Control_c, 0, 64, 69
1, 292429, Control_c, 0, 64, 63
1, 292447, Note_on_c, 0, 76, 63
1, 292448, Control_c, 0, 64, 50
1, 292460, Note_off_c, 0, 66, 50
1, 292466, Control_c, 0, 64, 31
1, 292474, Note_on_c, 0, 64, 47
1, 292475, Note_off_c, 0, 75, 57
1, 292487, Control_c, 0, 64, 12
1, 292580, Control_c, 0, 64, 20
1, 292597, Control_c, 0, 64, 32
1, 292617, Control_c, 0, 64, 52
1, 292635, Control_c, 0, 64, 69
1, 292655, Control_c, 0, 64, 78
1, 292673, Note_on_c, 0, 66, 62
1, 292674, Note_off_c, 0, 64, 62
1, 292675, Control_c, 0, 64, 83
1, 292692, Control_c, 0, 64, 87
1, 292711, Control_c, 0, 64, 94
1, 292716, Note_off_c, 0, 76, 61
1, 292729, Control_c, 0, 64, 113
1, 292747, Control_c, 0, 64, 127
1, 292898, Control_c, 0, 64, 101
1, 292916, Note_on_c, 0, 71, 74
1, 292916, Control_c, 0, 64, 69
1, 292922, Note_on_c, 0, 67, 64
1, 292935, Control_c, 0, 64, 43
1, 292938, Note_off_c, 0, 66, 62
1, 292954, Control_c, 0, 64, 26
1, 293010, Control_c, 0, 64, 30
1, 293028, Control_c, 0, 64, 45
1, 293049, Control_c, 0, 64, 64
1, 293066, Control_c, 0, 64, 81
1, 293085, Control_c, 0, 64, 105
1, 293093, Note_off_c, 0, 71, 59
1, 293104, Control_c, 0, 64, 127
1, 293118, Note_off_c, 0, 67, 63
1, 293138, Note_on_c, 0, 69, 68
1, 293402, Control_c, 0, 64, 101
1, 293403, Note_on_c, 0, 79, 83
1, 293407, Note_on_c, 0, 71, 61
1, 293412, Note_off_c, 0, 69, 51
1, 293412, Poly_aftertouch_c, 0, 69, 0
1, 293423, Control_c, 0, 64, 72
1, 293440, Control_c, 0, 64, 50
1, 293460, Control_c, 0, 64, 35
1, 293477, Control_c, 0, 64, 29
1, 293515, Control_c, 0, 64, 25
1, 293534, Control_c, 0, 64, 20
1, 293552, Control_c, 0, 64, 16
1, 293629, Note_off_c, 0, 71, 57
1, 293629, Note_on_c, 0, 64, 63
1, 293646, Control_c, 0, 64, 12
1, 293881, Note_on_c, 0, 71, 68
1, 293888, Control_c, 0, 64, 18
1, 293909, Control_c, 0, 64, 25
1, 293913, Note_off_c, 0, 64, 59
1, 293928, Control_c, 0, 64, 35
1, 293946, Control_c, 0, 64, 50
1, 293965, Control_c, 0, 64, 63
1, 293984, Control_c, 0, 64, 68
1, 294002, Control_c, 0, 64, 71
1, 294020, Control_c, 0, 64, 74
1, 294040, Control_c, 0, 64, 80
1, 294059, Control_c, 0, 64, 90
1, 294077, Control_c, 0, 64, 103
1, 294094, Note_on_c, 0, 73, 72
1, 294094, Control_c, 0, 64, 127
1, 294101, Note_off_c, 0, 71, 59
1, 294340, Note_off_c, 0, 73, 62
1, 294345, Note_on_c, 0, 74, 76
1, 294357, Control_c, 0, 64, 107
1, 294377, Control_c, 0, 64, 80
1, 294396, Control_c, 0, 64, 61
1, 294413, Control_c, 0, 64, 45
1, 294433, Control_c, 0, 64, 35
1, 294452, Control_c, 0, 64, 29
1, 294470, Control_c, 0, 64, 24
1, 294488, Control_c, 0, 64, 20
1, 294509, Control_c, 0, 64, 16
1, 294526, Control_c, 0, 64, 11
1, 294577, Note_on_c, 0, 77, 63
1, 294794, Note_off_c, 0, 79, 27
1, 294823, Note_on_c, 0, 76, 58
1, 294833, Note_off_c, 0, 77, 57
1, 295056, Note_on_c, 0, 79, 58
1, 295062, Note_off_c, 0, 76, 58
1, 295317, Note_on_c, 0, 77, 55
1, 295323, Note_off_c, 0, 79, 54
1, 295558, Note_on_c, 0, 72, 51
1, 295596, Note_off_c, 0, 74, 39
1, 295764, Control_c, 0, 67, 8
1, 295799, Control_c, 0, 67, 13
1, 295803, Note_off_c, 0, 72, 56
1, 295816, Control_c, 0, 67, 18
1, 295823, Note_on_c, 0, 71, 47
1, 295837, Control_c, 0, 67, 24
1, 295855, Control_c, 0, 67, 29
1, 295892, Control_c, 0, 67, 35
1, 295930, Control_c, 0, 67, 40
1, 295967, Control_c, 0, 67, 45
1, 296023, Control_c, 0, 67, 50
1, 296047, Note_off_c, 0, 71, 54
1, 296057, Note_on_c, 0, 69, 49
1, 296080, Control_c, 0, 67, 54
1, 296136, Control_c, 0, 67, 59
1, 296173, Control_c, 0, 67, 65
1, 296194, Control_c, 0, 67, 70
1, 296210, Control_c, 0, 67, 75
1, 296248, Control_c, 0, 67, 80
1, 296285, Control_c, 0, 67, 88
1, 296293, Note_off_c, 0, 69, 52
1, 296293, Poly_aftertouch_c, 0, 69, 0
1, 296298, Note_on_c, 0, 67, 47
1, 296304, Control_c, 0, 67, 93
1, 296324, Control_c, 0, 67, 98
1, 296342, Control_c, 0, 67, 103
1, 296361, Control_c, 0, 67, 107
1, 296379, Control_c, 0, 67, 112
1, 296400, Control_c, 0, 67, 117
1, 296416, Control_c, 0, 67, 122
1, 296436, Control_c, 0, 67, 126
1, 296513, Note_on_c, 0, 76, 51
1, 296535, Note_on_c, 0, 69, 40
1, 296605, Note_off_c, 0, 67, 31
1, 296724, Note_off_c, 0, 77, 33
1, 296752, Note_off_c, 0, 69, 55
1, 296752, Poly_aftertouch_c, 0, 69, 0
1, 296758, Note_off_c, 0, 76, 54
1, 296762, Note_on_c, 0, 74, 47
1, 296771, Note_on_c, 0, 71, 51
1, 296999, Note_on_c, 0, 77, 51
1, 297002, Note_off_c, 0, 71, 48
1, 297003, Note_off_c, 0, 74, 54
1, 297009, Note_on_c, 0, 67, 48
1, 297235, Note_off_c, 0, 67, 59
1, 297270, Note_on_c, 0, 72, 41
1, 297285, Note_on_c, 0, 76, 51
1, 297316, Note_off_c, 0, 77, 50
1, 297515, Note_on_c, 0, 71, 47
1, 297570, Note_off_c, 0, 72, 37
1, 297753, Note_on_c, 0, 69, 47
1, 297800, Note_off_c, 0, 71, 45
1, 297965, Note_off_c, 0, 69, 57
1, 297965, Poly_aftertouch_c, 0, 69, 0
1, 297991, Note_on_c, 0, 67, 48
1, 298191, Note_off_c, 0, 67, 56
1, 298210, Note_on_c, 0, 66, 52
1, 298432, Note_on_c, 0, 74, 50
1, 298458, Note_on_c, 0, 67, 44
1, 298554, Note_off_c, 0, 66, 30
1, 298654, Note_off_c, 0, 67, 51
1, 298666, Note_on_c, 0, 72, 47
1, 298681, Note_on_c, 0, 69, 44
1, 298683, Note_off_c, 0, 74, 52
1, 298710, Note_off_c, 0, 76, 50
1, 298891, Note_on_c, 0, 76, 58
1, 298905, Note_off_c, 0, 69, 47
1, 298905, Note_on_c, 0, 66, 47
1, 298905, Poly_aftertouch_c, 0, 69, 0
1, 298955, Note_off_c, 0, 72, 37
1, 299155, Note_off_c, 0, 66, 59
1, 299155, Note_on_c, 0, 74, 55
1, 299176, Note_on_c, 0, 71, 50
1, 299180, Note_off_c, 0, 76, 53
1, 299392, Note_on_c, 0, 69, 63
1, 299428, Note_off_c, 0, 71, 48
1, 299486, Control_c, 0, 67, 122
1, 299524, Control_c, 0, 64, 18
1, 299525, Control_c, 0, 67, 116
1, 299543, Control_c, 0, 64, 26
1, 299561, Control_c, 0, 64, 38
1, 299562, Control_c, 0, 67, 111
1, 299580, Control_c, 0, 64, 52
1, 299599, Control_c, 0, 64, 60
1, 299600, Control_c, 0, 67, 102
1, 299617, Control_c, 0, 64, 61
1, 299618, Control_c, 0, 67, 96
1, 299621, Note_on_c, 0, 68, 67
1, 299636, Control_c, 0, 67, 89
1, 299655, Control_c, 0, 64, 63
1, 299657, Control_c, 0, 67, 83
1, 299675, Control_c, 0, 64, 65
1, 299676, Control_c, 0, 67, 79
1, 299692, Note_off_c, 0, 69, 63
1, 299692, Poly_aftertouch_c, 0, 69, 0
1, 299692, Control_c, 0, 64, 67
1, 299711, Control_c, 0, 64, 70
1, 299713, Control_c, 0, 67, 74
1, 299731, Control_c, 0, 64, 72
1, 299749, Control_c, 0, 67, 67
1, 299768, Control_c, 0, 64, 76
1, 299769, Control_c, 0, 67, 63
1, 299786, Control_c, 0, 64, 78
1, 299787, Control_c, 0, 67, 58
1, 299805, Control_c, 0, 64, 80
1, 299807, Control_c, 0, 67, 52
1, 299823, Control_c, 0, 64, 83
1, 299825, Control_c, 0, 67, 46
1, 299843, Control_c, 0, 64, 86
1, 299846, Control_c, 0, 67, 38
1, 299850, Note_on_c, 0, 66, 74
1, 299861, Control_c, 0, 67, 29
1, 299880, Control_c, 0, 64, 92
1, 299880, Control_c, 0, 67, 21
1, 299891, Note_off_c, 0, 68, 61
1, 299898, Control_c, 0, 64, 96
1, 299899, Control_c, 0, 67, 15
1, 299917, Control_c, 0, 64, 102
1, 299937, Control_c, 0, 64, 111
1, 299938, Control_c, 0, 67, 10
1, 299954, Control_c, 0, 64, 127
1, 300068, Control_c, 0, 64, 104
1, 300085, Control_c, 0, 64, 81
1, 300100, Note_on_c, 0, 64, 69
1, 300103, Control_c, 0, 64, 63
1, 300106, Note_on_c, 0, 57, 80
1, 300123, Control_c, 0, 64, 48
1, 300141, Control_c, 0, 64, 40
1, 300144, Note_off_c, 0, 66, 62
1, 300160, Control_c, 0, 64, 35
1, 300178, Control_c, 0, 64, 30
1, 300198, Control_c, 0, 64, 25
1, 300217, Control_c, 0, 64, 20
1, 300235, Control_c, 0, 64, 15
1, 300254, Control_c, 0, 67, 0
1, 300350, Note_on_c, 0, 66, 74
1, 300366, Control_c, 0, 64, 21
1, 300386, Control_c, 0, 64, 36
1, 300404, Control_c, 0, 64, 57
1, 300422, Control_c, 0, 64, 72
1, 300440, Control_c, 0, 64, 80
1, 300460, Control_c, 0, 64, 83
1, 300536, Control_c, 0, 64, 80
1, 300553, Control_c, 0, 64, 72
1, 300571, Control_c, 0, 64, 60
1, 300591, Note_on_c, 0, 68, 73
1, 300591, Control_c, 0, 64, 41
1, 300594, Note_on_c, 0, 59, 82
1, 300610, Control_c, 0, 64, 24
1, 300624, Note_off_c, 0, 57, 65
1, 300627, Control_c, 0, 64, 18
1, 300636, Note_off_c, 0, 64, 51
1, 300685, Control_c, 0, 64, 33
1, 300700, Note_off_c, 0, 66, 50
1, 300703, Control_c, 0, 64, 50
1, 300722, Control_c, 0, 64, 65
1, 300741, Control_c, 0, 64, 72
1, 300759, Control_c, 0, 64, 74
1, 300778, Control_c, 0, 64, 76
1, 300796, Control_c, 0, 64, 83
1, 300802, Note_on_c, 0, 64, 74
1, 300816, Control_c, 0, 64, 96
1, 300834, Control_c, 0, 64, 127
1, 300849, Note_off_c, 0, 68, 54
1, 300885, Note_off_c, 0, 64, 59
1, 301058, Note_on_c, 0, 69, 81
1, 301072, Note_on_c, 0, 60, 77
1, 301075, Note_off_c, 0, 59, 62
1, 301077, Control_c, 0, 64, 93
1, 301096, Control_c, 0, 64, 65
1, 301115, Control_c, 0, 64, 41
1, 301133, Control_c, 0, 64, 23
1, 301153, Control_c, 0, 64, 16
1, 301283, Control_c, 0, 64, 31
1, 301293, Note_on_c, 0, 71, 79
1, 301301, Control_c, 0, 64, 51
1, 301321, Control_c, 0, 64, 72
1, 301340, Control_c, 0, 64, 89
1, 301358, Control_c, 0, 64, 127
1, 301374, Note_off_c, 0, 74, 57
1, 301521, Note_on_c, 0, 57, 77
1, 301525, Control_c, 0, 64, 91
1, 301530, Note_on_c, 0, 72, 84
1, 301540, Note_off_c, 0, 60, 51
1, 301545, Control_c, 0, 64, 62
1, 301563, Control_c, 0, 64, 34
1, 301578, Note_off_c, 0, 71, 61
1, 301583, Control_c, 0, 64, 18
1, 301659, Control_c, 0, 64, 25
1, 301677, Control_c, 0, 64, 42
1, 301694, Control_c, 0, 64, 64
1, 301715, Control_c, 0, 64, 77
1, 301733, Control_c, 0, 64, 88
1, 301751, Control_c, 0, 64, 99
1, 301763, Note_on_c, 0, 74, 81
1, 301768, Control_c, 0, 64, 127
1, 301773, Note_off_c, 0, 72, 62
1, 301785, Note_off_c, 0, 57, 63
1, 302014, Control_c, 0, 64, 106
1, 302023, Note_on_c, 0, 71, 80
1, 302028, Note_on_c, 0, 64, 84
1, 302032, Control_c, 0, 64, 71
1, 302051, Control_c, 0, 64, 42
1, 302069, Control_c, 0, 64, 18
1, 302089, Control_c, 0, 64, 11
1, 302103, Note_off_c, 0, 69, 60
1, 302103, Poly_aftertouch_c, 0, 69, 0
1, 302220, Control_c, 0, 64, 15
1, 302237, Control_c, 0, 64, 28
1, 302257, Control_c, 0, 64, 51
1, 302267, Note_off_c, 0, 71, 61
1, 302271, Note_on_c, 0, 68, 80
1, 302276, Control_c, 0, 64, 75
1, 302293, Control_c, 0, 64, 96
1, 302312, Control_c, 0, 64, 127
1, 302351, Note_off_c, 0, 68, 62
1, 302359, Note_off_c, 0, 74, 59
1, 302500, Control_c, 0, 64, 89
1, 302507, Note_on_c, 0, 69, 85
1, 302519, Control_c, 0, 64, 64
1, 302537, Control_c, 0, 64, 51
1, 302557, Control_c, 0, 64, 53
1, 302575, Control_c, 0, 64, 61
1, 302594, Control_c, 0, 64, 74
1, 302602, Note_off_c, 0, 69, 58
1, 302602, Poly_aftertouch_c, 0, 69, 0
1, 302613, Control_c, 0, 64, 99
1, 302630, Control_c, 0, 64, 127
1, 302706, Control_c, 0, 64, 105
1, 302719, Note_on_c, 0, 71, 86
1, 302723, Control_c, 0, 64, 84
1, 302743, Control_c, 0, 64, 78
1, 302762, Control_c, 0, 64, 87
1, 302781, Control_c, 0, 64, 111
1, 302799, Control_c, 0, 64, 127
1, 302810, Note_off_c, 0, 71, 61
1, 302949, Control_c, 0, 64, 95
1, 302968, Control_c, 0, 64, 64
1, 302985, Note_on_c, 0, 72, 89
1, 302987, Control_c, 0, 64, 37
1, 303007, Control_c, 0, 64, 21
1, 303062, Control_c, 0, 64, 25
1, 303080, Control_c, 0, 64, 34
1, 303089, Note_off_c, 0, 64, 58
1, 303098, Control_c, 0, 64, 47
1, 303117, Control_c, 0, 64, 61
1, 303137, Control_c, 0, 64, 72
1, 303155, Control_c, 0, 64, 82
1, 303174, Control_c, 0, 64, 91
1, 303193, Control_c, 0, 64, 97
1, 303195, Note_on_c, 0, 76, 87
1, 303212, Control_c, 0, 64, 101
1, 303230, Control_c, 0, 64, 110
1, 303249, Control_c, 0, 64, 127
1, 303418, Control_c, 0, 64, 108
1, 303437, Control_c, 0, 64, 72
1, 303445, Note_on_c, 0, 78, 86
1, 303454, Note_on_c, 0, 57, 87
1, 303456, Control_c, 0, 64, 43
1, 303473, Control_c, 0, 64, 19
1, 303493, Control_c, 0, 64, 14
1, 303498, Note_off_c, 0, 76, 54
1, 303548, Control_c, 0, 64, 20
1, 303567, Control_c, 0, 64, 32
1, 303586, Control_c, 0, 64, 51
1, 303605, Control_c, 0, 64, 70
1, 303623, Control_c, 0, 64, 84
1, 303643, Control_c, 0, 64, 100
1, 303661, Control_c, 0, 64, 127
1, 303683, Note_on_c, 0, 80, 86
1, 303687, Note_off_c, 0, 57, 64
1, 303747, Note_off_c, 0, 78, 56
1, 303930, Note_on_c, 0, 81, 77
1, 303942, Control_c, 0, 64, 105
1, 303948, Note_on_c, 0, 65, 89
1, 303961, Control_c, 0, 64, 65
1, 303978, Control_c, 0, 64, 27
1, 303983, Note_off_c, 0, 72, 60
1, 303993, Note_off_c, 0, 80, 65
1, 303997, Control_c, 0, 64, 0
1, 304147, Control_c, 0, 64, 13
1, 304167, Control_c, 0, 64, 33
1, 304180, Note_on_c, 0, 69, 80
1, 304183, Control_c, 0, 64, 62
1, 304204, Control_c, 0, 64, 84
1, 304222, Control_c, 0, 64, 117
1, 304240, Control_c, 0, 64, 127
1, 304424, Note_on_c, 0, 71, 80
1, 304446, Control_c, 0, 64, 104
1, 304466, Control_c, 0, 64, 71
1, 304478, Note_off_c, 0, 69, 57
1, 304478, Poly_aftertouch_c, 0, 69, 0
1, 304484, Control_c, 0, 64, 49
1, 304502, Control_c, 0, 64, 41
1, 304522, Control_c, 0, 64, 44
1, 304541, Control_c, 0, 64, 55
1, 304560, Control_c, 0, 64, 67
1, 304578, Control_c, 0, 64, 76
1, 304597, Control_c, 0, 64, 85
1, 304616, Control_c, 0, 64, 94
1, 304634, Control_c, 0, 64, 127
1, 304650, Note_on_c, 0, 72, 80
1, 304682, Note_off_c, 0, 71, 60
1, 304894, Note_on_c, 0, 74, 82
1, 304897, Note_off_c, 0, 72, 61
1, 304897, Control_c, 0, 64, 84
1, 304915, Control_c, 0, 64, 51
1, 304933, Control_c, 0, 64, 23
1, 304953, Control_c, 0, 64, 17
1, 304961, Note_off_c, 0, 81, 62
1, 304990, Control_c, 0, 64, 29
1, 305008, Control_c, 0, 64, 54
1, 305028, Control_c, 0, 64, 78
1, 305045, Control_c, 0, 64, 105
1, 305064, Control_c, 0, 64, 127
1, 305112, Note_on_c, 0, 81, 81
1, 305146, Note_off_c, 0, 65, 58
1, 305345, Control_c, 0, 64, 91
1, 305365, Control_c, 0, 64, 54
1, 305373, Note_on_c, 0, 79, 80
1, 305373, Note_on_c, 0, 57, 79
1, 305383, Control_c, 0, 64, 11
1, 305401, Control_c, 0, 64, 0
1, 305514, Control_c, 0, 64, 8
1, 305532, Control_c, 0, 64, 22
1, 305552, Control_c, 0, 64, 43
1, 305570, Control_c, 0, 64, 67
1, 305589, Control_c, 0, 64, 87
1, 305602, Note_on_c, 0, 77, 81
1, 305606, Control_c, 0, 64, 127
1, 305607, Note_off_c, 0, 57, 63
1, 305613, Note_off_c, 0, 81, 62
1, 305631, Note_off_c, 0, 79, 62
1, 305851, Control_c, 0, 64, 77
1, 305863, Note_on_c, 0, 79, 71
1, 305867, Note_on_c, 0, 64, 78
1, 305871, Note_off_c, 0, 77, 62
1, 305871, Control_c, 0, 64, 42
1, 305889, Control_c, 0, 64, 0
1, 306019, Control_c, 0, 64, 11
1, 306038, Control_c, 0, 64, 31
1, 306056, Control_c, 0, 64, 58
1, 306076, Control_c, 0, 64, 79
1, 306095, Control_c, 0, 64, 101
1, 306105, Note_on_c, 0, 72, 73
1, 306112, Control_c, 0, 64, 127
1, 306138, Note_off_c, 0, 74, 58
1, 306348, Note_on_c, 0, 71, 71
1, 306352, Note_off_c, 0, 72, 56
1, 306356, Control_c, 0, 64, 79
1, 306374, Control_c, 0, 64, 46
1, 306394, Control_c, 0, 64, 13
1, 306432, Control_c, 0, 64, 8
1, 306449, Control_c, 0, 64, 28
1, 306469, Control_c, 0, 64, 64
1, 306487, Control_c, 0, 64, 111
1, 306506, Control_c, 0, 64, 127
1, 306556, Note_off_c, 0, 64, 59
1, 306579, Note_on_c, 0, 74, 70
1, 306614, Note_off_c, 0, 71, 58
1, 306730, Control_c, 0, 64, 116
1, 306749, Control_c, 0, 64, 85
1, 306769, Control_c, 0, 64, 57
1, 306786, Control_c, 0, 64, 23
1, 306805, Control_c, 0, 64, 0
1, 306821, Note_off_c, 0, 74, 61
1, 306831, Note_on_c, 0, 72, 70
1, 306917, Control_c, 0, 64, 10
1, 306936, Control_c, 0, 64, 28
1, 306955, Control_c, 0, 64, 56
1, 306974, Control_c, 0, 64, 80
1, 306992, Control_c, 0, 64, 107
1, 307012, Control_c, 0, 64, 127
1, 307048, Control_c, 0, 64, 88
1, 307063, Note_on_c, 0, 77, 59
1, 307065, Note_on_c, 0, 62, 53
1, 307066, Control_c, 0, 64, 61
1, 307086, Control_c, 0, 64, 41
1, 307105, Control_c, 0, 64, 37
1, 307123, Control_c, 0, 64, 42
1, 307142, Control_c, 0, 64, 56
1, 307161, Control_c, 0, 64, 72
1, 307180, Control_c, 0, 64, 94
1, 307198, Control_c, 0, 64, 127
1, 307273, Control_c, 0, 64, 106
1, 307293, Control_c, 0, 64, 75
1, 307309, Note_on_c, 0, 76, 62
1, 307310, Control_c, 0, 64, 55
1, 307312, Note_on_c, 0, 60, 61
1, 307330, Control_c, 0, 64, 50
1, 307350, Control_c, 0, 64, 58
1, 307352, Note_off_c, 0, 79, 59
1, 307355, Note_off_c, 0, 77, 54
1, 307364, Note_off_c, 0, 62, 58
1, 307369, Control_c, 0, 64, 70
1, 307386, Control_c, 0, 64, 92
1, 307404, Control_c, 0, 64, 127
1, 307535, Control_c, 0, 64, 80
1, 307538, Note_on_c, 0, 79, 69
1, 307546, Note_on_c, 0, 59, 64
1, 307554, Control_c, 0, 64, 54
1, 307556, Note_off_c, 0, 76, 59
1, 307559, Note_off_c, 0, 60, 55
1, 307573, Control_c, 0, 64, 40
1, 307610, Control_c, 0, 64, 52
1, 307629, Control_c, 0, 64, 69
1, 307648, Control_c, 0, 64, 93
1, 307666, Control_c, 0, 64, 127
1, 307760, Control_c, 0, 64, 109
1, 307777, Note_on_c, 0, 77, 73
1, 307778, Control_c, 0, 64, 72
1, 307784, Note_off_c, 0, 59, 61
1, 307791, Note_on_c, 0, 57, 65
1, 307796, Control_c, 0, 64, 44
1, 307817, Control_c, 0, 64, 29
1, 307822, Note_off_c, 0, 79, 62
1, 307853, Control_c, 0, 64, 44
1, 307873, Control_c, 0, 64, 69
1, 307891, Control_c, 0, 64, 99
1, 307910, Control_c, 0, 64, 127
1, 308003, Control_c, 0, 64, 116
1, 308011, Note_on_c, 0, 71, 76
1, 308018, Note_on_c, 0, 59, 72
1, 308019, Note_off_c, 0, 57, 63
1, 308022, Control_c, 0, 64, 76
1, 308041, Control_c, 0, 64, 54
1, 308059, Control_c, 0, 64, 49
1, 308061, Note_off_c, 0, 72, 56
1, 308080, Control_c, 0, 64, 59
1, 308097, Control_c, 0, 64, 72
1, 308116, Control_c, 0, 64, 94
1, 308136, Control_c, 0, 64, 127
1, 308247, Control_c, 0, 64, 81
1, 308256, Note_off_c, 0, 59, 62
1, 308259, Note_on_c, 0, 60, 69
1, 308264, Note_on_c, 0, 69, 71
1, 308267, Control_c, 0, 64, 57
1, 308281, Note_off_c, 0, 71, 61
1, 308283, Control_c, 0, 64, 41
1, 308340, Control_c, 0, 64, 52
1, 308360, Control_c, 0, 64, 63
1, 308378, Control_c, 0, 64, 77
1, 308397, Control_c, 0, 64, 109
1, 308415, Control_c, 0, 64, 127
1, 308477, Note_on_c, 0, 57, 69
1, 308480, Note_on_c, 0, 72, 71
1, 308501, Note_off_c, 0, 60, 60
1, 308521, Note_off_c, 0, 69, 56
1, 308521, Poly_aftertouch_c, 0, 69, 0
1, 308715, Control_c, 0, 64, 72
1, 308734, Control_c, 0, 64, 36
1, 308741, Note_off_c, 0, 72, 61
1, 308743, Note_on_c, 0, 71, 76
1, 308745, Note_off_c, 0, 57, 63
1, 308748, Note_on_c, 0, 62, 74
1, 308846, Control_c, 0, 64, 8
1, 308864, Control_c, 0, 64, 22
1, 308884, Control_c, 0, 64, 45
1, 308902, Control_c, 0, 64, 70
1, 308921, Control_c, 0, 64, 90
1, 308938, Control_c, 0, 64, 127
1, 308971, Note_on_c, 0, 76, 77
1, 309033, Note_off_c, 0, 62, 60
1, 309201, Control_c, 0, 64, 85
1, 309223, Control_c, 0, 64, 53
1, 309227, Note_on_c, 0, 62, 69
1, 309230, Note_on_c, 0, 74, 73
1, 309240, Control_c, 0, 64, 23
1, 309246, Note_off_c, 0, 77, 49
1, 309257, Control_c, 0, 64, 15
1, 309277, Note_off_c, 0, 76, 56
1, 309297, Control_c, 0, 64, 19
1, 309314, Control_c, 0, 64, 35
1, 309333, Control_c, 0, 64, 61
1, 309351, Control_c, 0, 64, 84
1, 309370, Control_c, 0, 64, 127
1, 309460, Note_on_c, 0, 77, 75
1, 309465, Note_off_c, 0, 74, 62
1, 309492, Note_off_c, 0, 62, 62
1, 309705, Control_c, 0, 64, 77
1, 309708, Note_on_c, 0, 62, 70
1, 309709, Note_on_c, 0, 68, 69
1, 309725, Control_c, 0, 64, 45
1, 309736, Note_off_c, 0, 71, 41
1, 309743, Control_c, 0, 64, 17
1, 309763, Control_c, 0, 64, 10
1, 309856, Control_c, 0, 64, 19
1, 309875, Control_c, 0, 64, 35
1, 309895, Control_c, 0, 64, 60
1, 309913, Control_c, 0, 64, 83
1, 309931, Control_c, 0, 64, 127
1, 309942, Note_on_c, 0, 71, 76
1, 309949, Note_off_c, 0, 68, 63
1, 310157, Control_c, 0, 64, 115
1, 310175, Control_c, 0, 64, 74
1, 310192, Control_c, 0, 64, 46
1, 310193, Note_on_c, 0, 72, 66
1, 310203, Note_on_c, 0, 60, 60
1, 310211, Control_c, 0, 64, 28
1, 310230, Control_c, 0, 64, 24
1, 310282, Note_off_c, 0, 62, 49
1, 310306, Control_c, 0, 64, 35
1, 310323, Control_c, 0, 64, 59
1, 310343, Control_c, 0, 64, 80
1, 310362, Control_c, 0, 64, 107
1, 310380, Control_c, 0, 64, 127
1, 310418, Note_on_c, 0, 74, 79
1, 310424, Note_on_c, 0, 59, 63
1, 310432, Note_off_c, 0, 60, 60
1, 310442, Note_off_c, 0, 72, 61
1, 310452, Note_off_c, 0, 77, 59
1, 310643, Control_c, 0, 64, 95
1, 310648, Note_off_c, 0, 59, 61
1, 310660, Control_c, 0, 64, 61
1, 310662, Note_on_c, 0, 76, 77
1, 310664, Note_off_c, 0, 71, 56
1, 310675, Note_on_c, 0, 62, 55
1, 310680, Control_c, 0, 64, 28
1, 310692, Note_off_c, 0, 74, 56
1, 310697, Control_c, 0, 64, 8
1, 310773, Control_c, 0, 64, 17
1, 310792, Control_c, 0, 64, 34
1, 310811, Control_c, 0, 64, 60
1, 310830, Control_c, 0, 64, 84
1, 310849, Control_c, 0, 64, 127
1, 310896, Note_on_c, 0, 69, 71
1, 310909, Note_on_c, 0, 60, 59
1, 310944, Note_off_c, 0, 62, 47
1, 311129, Control_c, 0, 64, 92
1, 311135, Note_off_c, 0, 69, 59
1, 311135, Poly_aftertouch_c, 0, 69, 0
1, 311140, Note_on_c, 0, 68, 71
1, 311144, Note_off_c, 0, 60, 57
1, 311149, Note_on_c, 0, 59, 55
1, 311149, Control_c, 0, 64, 57
1, 311167, Control_c, 0, 64, 27
1, 311186, Control_c, 0, 64, 21
1, 311222, Control_c, 0, 64, 37
1, 311243, Control_c, 0, 64, 63
1, 311261, Control_c, 0, 64, 92
1, 311278, Control_c, 0, 64, 127
1, 311360, Note_on_c, 0, 69, 73
1, 311361, Note_off_c, 0, 59, 58
1, 311370, Note_off_c, 0, 68, 62
1, 311378, Note_on_c, 0, 57, 57
1, 311596, Note_off_c, 0, 57, 60
1, 311616, Control_c, 0, 64, 98
1, 311621, Note_on_c, 0, 74, 76
1, 311636, Note_on_c, 0, 60, 48
1, 311636, Control_c, 0, 64, 63
1, 311654, Control_c, 0, 64, 34
1, 311672, Control_c, 0, 64, 21
1, 311728, Control_c, 0, 64, 42
1, 311730, Note_off_c, 0, 76, 58
1, 311741, Note_off_c, 0, 60, 51
1, 311746, Control_c, 0, 64, 73
1, 311767, Control_c, 0, 64, 127
1, 311784, Note_on_c, 0, 59, 54
1, 311824, Note_on_c, 0, 72, 75
1, 311828, Note_off_c, 0, 59, 61
1, 311893, Note_on_c, 0, 60, 60
1, 311938, Note_off_c, 0, 60, 59
1, 311957, Note_on_c, 0, 59, 59
1, 311998, Note_off_c, 0, 59, 61
1, 312041, Note_on_c, 0, 60, 70
1, 312046, Control_c, 0, 64, 86
1, 312056, Note_on_c, 0, 71, 73
1, 312062, Note_off_c, 0, 69, 52
1, 312062, Poly_aftertouch_c, 0, 69, 0
1, 312064, Control_c, 0, 64, 49
1, 312083, Control_c, 0, 64, 15
1, 312092, Note_off_c, 0, 60, 58
1, 312103, Control_c, 0, 64, 9
1, 312117, Note_on_c, 0, 59, 56
1, 312122, Control_c, 0, 64, 15
1, 312140, Control_c, 0, 64, 38
1, 312159, Note_off_c, 0, 59, 63
1, 312159, Control_c, 0, 64, 75
1, 312167, Note_off_c, 0, 72, 31
1, 312178, Control_c, 0, 64, 127
1, 312197, Note_on_c, 0, 60, 63
1, 312234, Note_off_c, 0, 60, 63
1, 312257, Note_on_c, 0, 59, 68
1, 312272, Note_on_c, 0, 69, 66
1, 312275, Note_off_c, 0, 71, 61
1, 312289, Note_off_c, 0, 59, 66
1, 312337, Note_on_c, 0, 60, 64
1, 312382, Note_off_c, 0, 60, 61
1, 312416, Note_on_c, 0, 59, 56
1, 312451, Note_off_c, 0, 59, 61
1, 312458, Control_c, 0, 64, 92
1, 312471, Note_on_c, 0, 60, 58
1, 312475, Control_c, 0, 64, 61
1, 312486, Note_on_c, 0, 68, 65
1, 312494, Control_c, 0, 64, 33
1, 312505, Note_off_c, 0, 60, 57
1, 312514, Control_c, 0, 64, 18
1, 312536, Note_on_c, 0, 59, 60
1, 312537, Note_off_c, 0, 69, 56
1, 312537, Poly_aftertouch_c, 0, 69, 0
1, 312570, Control_c, 0, 64, 14
1, 312590, Control_c, 0, 64, 10
1, 312712, Note_on_c, 0, 69, 57
1, 312785, Note_off_c, 0, 68, 62
1, 312984, Note_on_c, 0, 66, 63
1, 312999, Note_off_c, 0, 69, 53
1, 312999, Poly_aftertouch_c, 0, 69, 0
1, 313095, Control_c, 0, 64, 18
1, 313114, Control_c, 0, 64, 26
1, 313132, Control_c, 0, 64, 36
1, 313151, Control_c, 0, 64, 51
1, 313170, Control_c, 0, 64, 62
1, 313189, Control_c, 0, 64, 66
1, 313207, Control_c, 0, 64, 67
1, 313219, Note_on_c, 0, 68, 70
1, 313245, Control_c, 0, 64, 73
1, 313247, Note_off_c, 0, 66, 61
1, 313263, Control_c, 0, 64, 81
1, 313282, Control_c, 0, 64, 95
1, 313301, Control_c, 0, 64, 127
1, 313469, Control_c, 0, 64, 96
1, 313475, Note_on_c, 0, 69, 68
1, 313481, Note_off_c, 0, 68, 62
1, 313488, Control_c, 0, 64, 71
1, 313489, Note_off_c, 0, 59, 55
1, 313504, Note_on_c, 0, 57, 46
1, 313507, Control_c, 0, 64, 50
1, 313526, Control_c, 0, 64, 36
1, 313543, Control_c, 0, 64, 29
1, 313600, Control_c, 0, 64, 44
1, 313619, Control_c, 0, 64, 61
1, 313638, Control_c, 0, 64, 74
1, 313657, Control_c, 0, 64, 85
1, 313675, Control_c, 0, 64, 96
1, 313695, Control_c, 0, 64, 108
1, 313699, Note_off_c, 0, 57, 60
1, 313712, Control_c, 0, 64, 127
1, 313716, Note_on_c, 0, 52, 53
1, 313937, Control_c, 0, 64, 118
1, 313949, Note_on_c, 0, 72, 78
1, 313956, Control_c, 0, 64, 76
1, 313972, Note_on_c, 0, 57, 51
1, 313973, Control_c, 0, 64, 50
1, 313977, Note_off_c, 0, 52, 54
1, 313993, Control_c, 0, 64, 40
1, 314012, Control_c, 0, 64, 44
1, 314023, Note_off_c, 0, 74, 61
1, 314029, Control_c, 0, 64, 59
1, 314050, Control_c, 0, 64, 77
1, 314067, Control_c, 0, 64, 115
1, 314086, Control_c, 0, 64, 127
1, 314185, Note_on_c, 0, 74, 80
1, 314196, Note_on_c, 0, 59, 60
1, 314204, Note_off_c, 0, 57, 61
1, 314219, Note_off_c, 0, 72, 58
1, 314423, Control_c, 0, 64, 111
1, 314430, Note_off_c, 0, 59, 62
1, 314442, Control_c, 0, 64, 68
1, 314445, Note_on_c, 0, 76, 77
1, 314458, Note_on_c, 0, 60, 54
1, 314460, Control_c, 0, 64, 34
1, 314480, Control_c, 0, 64, 13
1, 314487, Note_off_c, 0, 74, 60
1, 314555, Control_c, 0, 64, 33
1, 314574, Control_c, 0, 64, 61
1, 314593, Control_c, 0, 64, 91
1, 314610, Control_c, 0, 64, 127
1, 314676, Note_on_c, 0, 57, 62
1, 314708, Note_off_c, 0, 60, 52
1, 314907, Note_on_c, 0, 60, 64
1, 314923, Note_on_c, 0, 74, 73
1, 314948, Control_c, 0, 64, 106
1, 314967, Control_c, 0, 64, 73
1, 314985, Control_c, 0, 64, 55
1, 315022, Control_c, 0, 64, 61
1, 315042, Control_c, 0, 64, 75
1, 315061, Control_c, 0, 64, 111
1, 315079, Control_c, 0, 64, 127
1, 315123, Note_off_c, 0, 57, 27
1, 315141, Note_on_c, 0, 72, 73
1, 315160, Note_on_c, 0, 62, 58
1, 315170, Note_off_c, 0, 60, 60
1, 315174, Note_on_c, 0, 64, 52
1, 315178, Note_off_c, 0, 76, 59
1, 315196, Note_off_c, 0, 74, 59
1, 315204, Note_off_c, 0, 64, 56
1, 315224, Note_off_c, 0, 62, 59
1, 315233, Note_off_c, 0, 72, 59
1, 315397, Control_c, 0, 64, 89
1, 315398, Note_on_c, 0, 64, 81
1, 315404, Note_on_c, 0, 52, 84
1, 315415, Note_on_c, 0, 71, 76
1, 315415, Control_c, 0, 64, 56
1, 315435, Control_c, 0, 64, 28
1, 315453, Control_c, 0, 64, 18
1, 315467, Note_off_c, 0, 69, 55
1, 315467, Poly_aftertouch_c, 0, 69, 0
1, 315490, Control_c, 0, 64, 14
1, 315510, Control_c, 0, 64, 8
1, 315640, Control_c, 0, 64, 19
1, 315642, Note_on_c, 0, 69, 72
1, 315659, Control_c, 0, 64, 37
1, 315679, Control_c, 0, 64, 64
1, 315696, Control_c, 0, 64, 88
1, 315715, Control_c, 0, 64, 127
1, 315889, Note_on_c, 0, 54, 82
1, 315890, Note_on_c, 0, 67, 78
1, 315902, Control_c, 0, 64, 78
1, 315921, Control_c, 0, 64, 46
1, 315940, Control_c, 0, 64, 22
1, 315962, Note_off_c, 0, 69, 50
1, 315962, Poly_aftertouch_c, 0, 69, 0
1, 315969, Note_off_c, 0, 52, 50
1, 315977, Control_c, 0, 64, 30
1, 315996, Control_c, 0, 64, 55
1, 316015, Control_c, 0, 64, 85
1, 316033, Control_c, 0, 64, 127
1, 316117, Note_off_c, 0, 64, 59
1, 316121, Note_on_c, 0, 66, 81
1, 316141, Note_off_c, 0, 67, 61
1, 316351, Control_c, 0, 64, 86
1, 316359, Note_on_c, 0, 64, 75
1, 316362, Note_on_c, 0, 55, 81
1, 316370, Control_c, 0, 64, 44
1, 316377, Note_off_c, 0, 66, 61
1, 316389, Control_c, 0, 64, 0
1, 316464, Control_c, 0, 64, 36
1, 316483, Control_c, 0, 64, 72
1, 316502, Control_c, 0, 64, 116
1, 316520, Control_c, 0, 64, 127
1, 316593, Note_on_c, 0, 62, 76
1, 316612, Note_off_c, 0, 55, 61
1, 316612, Note_off_c, 0, 54, 34
1, 316816, Note_on_c, 0, 60, 82
1, 316820, Control_c, 0, 64, 92
1, 316829, Note_on_c, 0, 52, 73
1, 316836, Note_off_c, 0, 62, 60
1, 316839, Control_c, 0, 64, 49
1, 316857, Control_c, 0, 64, 0
1, 316933, Control_c, 0, 64, 23
1, 316950, Control_c, 0, 64, 57
1, 316969, Control_c, 0, 64, 94
1, 316988, Control_c, 0, 64, 127
1, 317067, Note_on_c, 0, 59, 79
1, 317069, Note_off_c, 0, 60, 61
1, 317078, Note_off_c, 0, 52, 61
1, 317287, Control_c, 0, 64, 109
1, 317308, Control_c, 0, 64, 61
1, 317314, Note_on_c, 0, 57, 77
1, 317318, Note_on_c, 0, 60, 72
1, 317326, Control_c, 0, 64, 8
1, 317343, Control_c, 0, 64, 0
1, 317354, Note_off_c, 0, 59, 56
1, 317401, Control_c, 0, 64, 15
1, 317418, Control_c, 0, 64, 54
1, 317438, Control_c, 0, 64, 103
1, 317451, Note_off_c, 0, 64, 60
1, 317455, Control_c, 0, 64, 127
1, 317474, Note_off_c, 0, 71, 60
1, 317518, Note_on_c, 0, 59, 77
1, 317535, Note_off_c, 0, 60, 59
1, 317766, Note_off_c, 0, 59, 62
1, 317772, Note_on_c, 0, 60, 74
1, 317772, Note_on_c, 0, 69, 82
1, 317783, Note_on_c, 0, 64, 71
1, 317793, Control_c, 0, 64, 80
1, 317811, Control_c, 0, 64, 46
1, 317830, Control_c, 0, 64, 13
1, 317887, Control_c, 0, 64, 25
1, 317905, Control_c, 0, 64, 57
1, 317924, Control_c, 0, 64, 90
1, 317942, Control_c, 0, 64, 127
1, 318003, Note_on_c, 0, 62, 80
1, 318008, Note_on_c, 0, 71, 82
1, 318019, Note_off_c, 0, 60, 63
1, 318025, Note_off_c, 0, 64, 59
1, 318074, Note_off_c, 0, 69, 51
1, 318074, Poly_aftertouch_c, 0, 69, 0
1, 318223, Control_c, 0, 64, 108
1, 318243, Control_c, 0, 64, 64
1, 318251, Note_off_c, 0, 62, 62
1, 318252, Note_on_c, 0, 72, 81
1, 318258, Note_on_c, 0, 64, 76
1, 318262, Control_c, 0, 64, 25
1, 318276, Note_off_c, 0, 71, 60
1, 318333, Note_off_c, 0, 57, 60
1, 318335, Control_c, 0, 64, 54
1, 318354, Control_c, 0, 64, 90
1, 318373, Control_c, 0, 64, 127
1, 318494, Note_on_c, 0, 69, 76
1, 318504, Note_off_c, 0, 72, 57
1, 318514, Note_on_c, 0, 67, 39
1, 318560, Note_off_c, 0, 67, 53
1, 318711, Control_c, 0, 64, 90
1, 318725, Note_on_c, 0, 52, 82
1, 318729, Control_c, 0, 64, 49
1, 318733, Note_on_c, 0, 72, 84
1, 318766, Control_c, 0, 64, 0
1, 318823, Control_c, 0, 64, 17
1, 318841, Control_c, 0, 64, 47
1, 318861, Control_c, 0, 64, 82
1, 318878, Control_c, 0, 64, 127
1, 318908, Note_off_c, 0, 52, 61
1, 318958, Note_on_c, 0, 74, 85
1, 318982, Note_off_c, 0, 72, 59
1, 319196, Note_on_c, 0, 60, 75
1, 319196, Control_c, 0, 64, 73
1, 319203, Note_on_c, 0, 76, 90
1, 319208, Note_off_c, 0, 64, 61
1, 319214, Note_off_c, 0, 74, 59
1, 319215, Control_c, 0, 64, 13
1, 319234, Control_c, 0, 64, 0
1, 319309, Control_c, 0, 64, 10
1, 319328, Control_c, 0, 64, 39
1, 319347, Control_c, 0, 64, 71
1, 319365, Control_c, 0, 64, 108
1, 319384, Control_c, 0, 64, 127
1, 319416, Note_on_c, 0, 72, 86
1, 319432, Note_on_c, 0, 64, 72
1, 319646, Control_c, 0, 64, 93
1, 319662, Note_on_c, 0, 74, 76
1, 319665, Control_c, 0, 64, 56
1, 319668, Note_on_c, 0, 66, 80
1, 319683, Control_c, 0, 64, 21
1, 319687, Note_off_c, 0, 64, 58
1, 319702, Control_c, 0, 64, 10
1, 319740, Control_c, 0, 64, 28
1, 319743, Note_off_c, 0, 72, 41
1, 319757, Control_c, 0, 64, 58
1, 319777, Control_c, 0, 64, 92
1, 319796, Control_c, 0, 64, 127
1, 319878, Note_on_c, 0, 68, 76
1, 319884, Note_on_c, 0, 71, 82
1, 319905, Note_off_c, 0, 66, 59
1, 319919, Note_off_c, 0, 69, 52
1, 319919, Poly_aftertouch_c, 0, 69, 0
1, 319936, Note_off_c, 0, 74, 54
1, 319987, Note_off_c, 0, 71, 61
1, 319991, Note_off_c, 0, 76, 60
1, 320095, Control_c, 0, 64, 89
1, 320115, Control_c, 0, 64, 52
1, 320127, Note_on_c, 0, 69, 81
1, 320133, Note_on_c, 0, 72, 83
1, 320133, Control_c, 0, 64, 14
1, 320199, Note_off_c, 0, 68, 62
1, 320208, Control_c, 0, 64, 29
1, 320226, Control_c, 0, 64, 58
1, 320231, Note_off_c, 0, 60, 61
1, 320248, Control_c, 0, 64, 92
1, 320264, Control_c, 0, 64, 127
1, 320359, Note_on_c, 0, 75, 83
1, 320581, Control_c, 0, 64, 82
1, 320585, Note_on_c, 0, 52, 83
1, 320596, Note_on_c, 0, 76, 77
1, 320600, Control_c, 0, 64, 39
1, 320619, Control_c, 0, 64, 0
1, 320694, Control_c, 0, 64, 11
1, 320714, Control_c, 0, 64, 50
1, 320732, Control_c, 0, 64, 89
1, 320736, Note_off_c, 0, 72, 52
1, 320751, Control_c, 0, 64, 127
1, 320774, Note_off_c, 0, 52, 61
1, 320833, Note_on_c, 0, 78, 85
1, 320837, Note_off_c, 0, 76, 64
1, 320873, Note_off_c, 0, 75, 52
1, 321070, Control_c, 0, 64, 97
1, 321078, Note_on_c, 0, 59, 80
1, 321087, Control_c, 0, 64, 54
1, 321089, Note_on_c, 0, 75, 81
1, 321106, Control_c, 0, 64, 0
1, 321198, Note_off_c, 0, 69, 57
1, 321198, Poly_aftertouch_c, 0, 69, 0
1, 321211, Note_off_c, 0, 78, 48
1, 321219, Control_c, 0, 64, 11
1, 321236, Control_c, 0, 64, 25
1, 321256, Control_c, 0, 64, 47
1, 321274, Control_c, 0, 64, 73
1, 321294, Control_c, 0, 64, 113
1, 321305, Note_on_c, 0, 71, 73
1, 321311, Note_on_c, 0, 67, 76
1, 321313, Control_c, 0, 64, 127
1, 321536, Note_on_c, 0, 66, 73
1, 321537, Note_off_c, 0, 71, 60
1, 321541, Note_off_c, 0, 67, 59
1, 321545, Note_on_c, 0, 69, 76
1, 321617, Note_off_c, 0, 69, 58
1, 321617, Poly_aftertouch_c, 0, 69, 0
1, 321743, Control_c, 0, 64, 81
1, 321755, Note_off_c, 0, 66, 57
1, 321759, Note_on_c, 0, 72, 79
1, 321760, Note_on_c, 0, 69, 73
1, 321761, Control_c, 0, 64, 52
1, 321780, Control_c, 0, 64, 39
1, 321799, Control_c, 0, 64, 47
1, 321819, Control_c, 0, 64, 63
1, 321836, Control_c, 0, 64, 84
1, 321854, Control_c, 0, 64, 127
1, 321919, Note_off_c, 0, 69, 59
1, 321919, Poly_aftertouch_c, 0, 69, 0
1, 321950, Note_off_c, 0, 72, 58
1, 321991, Note_off_c, 0, 59, 56
1, 322008, Note_on_c, 0, 67, 79
1, 322017, Note_on_c, 0, 71, 71
1, 322210, Control_c, 0, 64, 117
1, 322229, Control_c, 0, 64, 68
1, 322232, Note_on_c, 0, 57, 77
1, 322249, Control_c, 0, 64, 25
1, 322266, Control_c, 0, 64, 0
1, 322342, Control_c, 0, 64, 33
1, 322360, Control_c, 0, 64, 74
1, 322379, Control_c, 0, 64, 127
1, 322470, Note_on_c, 0, 76, 81
1, 322482, Note_on_c, 0, 55, 80
1, 322501, Note_off_c, 0, 71, 61
1, 322514, Note_off_c, 0, 57, 61
1, 322522, Note_off_c, 0, 75, 63
1, 322697, Control_c, 0, 64, 106
1, 322708, Note_on_c, 0, 78, 85
1, 322713, Note_on_c, 0, 54, 81
1, 322716, Note_off_c, 0, 55, 60
1, 322716, Control_c, 0, 64, 57
1, 322736, Control_c, 0, 64, 0
1, 322769, Note_off_c, 0, 76, 56
1, 322790, Control_c, 0, 64, 20
1, 322810, Control_c, 0, 64, 71
1, 322827, Control_c, 0, 64, 127
1, 322959, Control_c, 0, 64, 82
1, 322960, Note_on_c, 0, 52, 77
1, 322961, Note_on_c, 0, 79, 85
1, 322972, Note_off_c, 0, 54, 63
1, 322976, Control_c, 0, 64, 41
1, 322986, Note_off_c, 0, 78, 66
1, 322998, Control_c, 0, 64, 15
1, 323016, Control_c, 0, 64, 29
1, 323033, Control_c, 0, 64, 67
1, 323049, Note_off_c, 0, 79, 63
1, 323052, Control_c, 0, 64, 127
1, 323194, Note_off_c, 0, 67, 45
1, 323197, Note_on_c, 0, 54, 77
1, 323204, Note_on_c, 0, 66, 74
1, 323241, Note_off_c, 0, 52, 56
1, 323389, Control_c, 0, 64, 102
1, 323409, Control_c, 0, 64, 76
1, 323427, Control_c, 0, 64, 57
1, 323433, Note_on_c, 0, 64, 70
1, 323439, Note_on_c, 0, 55, 75
1, 323446, Note_off_c, 0, 66, 59
1, 323446, Control_c, 0, 64, 45
1, 323450, Note_off_c, 0, 54, 62
1, 323465, Control_c, 0, 64, 43
1, 323484, Control_c, 0, 64, 40
1, 323502, Control_c, 0, 64, 31
1, 323521, Control_c, 0, 64, 16
1, 323632, Control_c, 0, 64, 0
1, 323658, Note_on_c, 0, 52, 72
1, 323670, Note_on_c, 0, 67, 70
1, 323687, Note_off_c, 0, 55, 61
1, 323741, Note_off_c, 0, 64, 57
1, 323929, Note_on_c, 0, 57, 72
1, 323936, Note_on_c, 0, 66, 68
1, 323938, Note_off_c, 0, 52, 61
1, 323960, Note_off_c, 0, 67, 58
1, 324138, Control_c, 0, 64, 17
1, 324157, Control_c, 0, 64, 48
1, 324169, Note_on_c, 0, 64, 72
1, 324174, Control_c, 0, 64, 79
1, 324191, Note_off_c, 0, 66, 61
1, 324194, Control_c, 0, 64, 122
1, 324213, Control_c, 0, 64, 127
1, 324244, Note_off_c, 0, 57, 63
1, 324382, Control_c, 0, 64, 88
1, 324400, Control_c, 0, 64, 56
1, 324404, Note_on_c, 0, 57, 80
1, 324412, Note_on_c, 0, 63, 71
1, 324419, Control_c, 0, 64, 24
1, 324459, Note_off_c, 0, 64, 62
1, 324513, Control_c, 0, 64, 11
1, 324531, Control_c, 0, 64, 26
1, 324552, Control_c, 0, 64, 49
1, 324568, Control_c, 0, 64, 70
1, 324588, Control_c, 0, 64, 88
1, 324607, Control_c, 0, 64, 127
1, 324650, Note_on_c, 0, 66, 73
1, 324681, Note_off_c, 0, 57, 61
1, 324704, Note_off_c, 0, 63, 39
1, 324916, Note_on_c, 0, 59, 71
1, 324923, Note_on_c, 0, 57, 77
1, 324924, Control_c, 0, 64, 71
1, 324927, Note_off_c, 0, 66, 54
1, 324944, Control_c, 0, 64, 29
1, 324963, Control_c, 0, 64, 0
1, 325055, Note_off_c, 0, 59, 58
1, 325055, Control_c, 0, 64, 9
1, 325076, Control_c, 0, 64, 33
1, 325093, Control_c, 0, 64, 65
1, 325112, Control_c, 0, 64, 97
1, 325131, Control_c, 0, 64, 127
1, 325373, Control_c, 0, 64, 97
1, 325393, Control_c, 0, 64, 64
1, 325400, Note_on_c, 0, 66, 72
1, 325412, Control_c, 0, 64, 35
1, 325415, Note_on_c, 0, 63, 69
1, 325426, Note_on_c, 0, 55, 60
1, 325431, Control_c, 0, 64, 11
1, 325473, Note_off_c, 0, 57, 59
1, 325506, Control_c, 0, 64, 26
1, 325523, Control_c, 0, 64, 53
1, 325543, Control_c, 0, 64, 80
1, 325562, Control_c, 0, 64, 127
1, 325637, Note_on_c, 0, 54, 66
1, 325667, Note_off_c, 0, 55, 52
1, 325823, Control_c, 0, 64, 98
1, 325841, Control_c, 0, 64, 64
1, 325860, Control_c, 0, 64, 35
1, 325878, Control_c, 0, 64, 13
1, 325884, Note_on_c, 0, 71, 74
1, 325894, Note_off_c, 0, 54, 62
1, 325908, Note_on_c, 0, 57, 64
1, 325930, Note_off_c, 0, 66, 57
1, 325972, Control_c, 0, 64, 9
1, 325993, Control_c, 0, 64, 20
1, 326010, Control_c, 0, 64, 38
1, 326029, Control_c, 0, 64, 63
1, 326048, Control_c, 0, 64, 84
1, 326066, Control_c, 0, 64, 124
1, 326144, Note_on_c, 0, 55, 58
1, 326150, Note_on_c, 0, 64, 70
1, 326154, Note_off_c, 0, 57, 55
1, 326185, Note_off_c, 0, 63, 59
1, 326348, Control_c, 0, 64, 90
1, 326361, Note_off_c, 0, 55, 56
1, 326366, Control_c, 0, 64, 61
1, 326370, Note_on_c, 0, 54, 55
1, 326378, Note_on_c, 0, 63, 70
1, 326381, Note_off_c, 0, 64, 62
1, 326385, Control_c, 0, 64, 40
1, 326423, Control_c, 0, 64, 45
1, 326440, Control_c, 0, 64, 62
1, 326460, Control_c, 0, 64, 86
1, 326478, Control_c, 0, 64, 127
1, 326605, Note_on_c, 0, 64, 70
1, 326614, Note_off_c, 0, 54, 59
1, 326618, Note_on_c, 0, 52, 60
1, 326620, Note_off_c, 0, 63, 63
1, 326816, Control_c, 0, 64, 101
1, 326826, Note_off_c, 0, 52, 58
1, 326833, Control_c, 0, 64, 64
1, 326852, Control_c, 0, 64, 30
1, 326866, Note_on_c, 0, 69, 75
1, 326877, Note_on_c, 0, 55, 48
1, 326960, Note_off_c, 0, 71, 45
1, 326965, Control_c, 0, 64, 64
1, 326984, Control_c, 0, 64, 127
1, 327013, Note_off_c, 0, 55, 53
1, 327043, Note_on_c, 0, 54, 50
1, 327059, Control_c, 0, 67, 8
1, 327082, Note_on_c, 0, 67, 72
1, 327096, Control_c, 0, 67, 15
1, 327114, Control_c, 0, 64, 79
1, 327115, Note_off_c, 0, 54, 60
1, 327134, Control_c, 0, 64, 57
1, 327135, Control_c, 0, 67, 23
1, 327153, Control_c, 0, 64, 54
1, 327155, Control_c, 0, 67, 27
1, 327160, Note_on_c, 0, 55, 54
1, 327171, Control_c, 0, 64, 63
1, 327173, Control_c, 0, 67, 33
1, 327189, Control_c, 0, 64, 77
1, 327190, Control_c, 0, 67, 39
1, 327195, Note_off_c, 0, 55, 56
1, 327209, Control_c, 0, 64, 112
1, 327211, Control_c, 0, 67, 44
1, 327227, Control_c, 0, 64, 127
1, 327229, Control_c, 0, 67, 50
1, 327246, Control_c, 0, 67, 56
1, 327259, Note_on_c, 0, 54, 47
1, 327265, Control_c, 0, 67, 63
1, 327283, Control_c, 0, 67, 70
1, 327292, Note_off_c, 0, 54, 55
1, 327301, Control_c, 0, 64, 94
1, 327302, Control_c, 0, 67, 77
1, 327314, Note_on_c, 0, 55, 62
1, 327315, Note_on_c, 0, 66, 69
1, 327319, Control_c, 0, 64, 65
1, 327321, Control_c, 0, 67, 83
1, 327323, Note_off_c, 0, 64, 62
1, 327339, Control_c, 0, 64, 46
1, 327340, Control_c, 0, 67, 89
1, 327354, Note_off_c, 0, 55, 61
1, 327358, Control_c, 0, 67, 94
1, 327362, Note_off_c, 0, 67, 58
1, 327377, Control_c, 0, 64, 60
1, 327378, Control_c, 0, 67, 99
1, 327389, Note_on_c, 0, 54, 59
1, 327396, Control_c, 0, 64, 73
1, 327415, Control_c, 0, 64, 93
1, 327417, Control_c, 0, 67, 103
1, 327432, Note_off_c, 0, 54, 64
1, 327433, Control_c, 0, 64, 127
1, 327466, Note_on_c, 0, 55, 62
1, 327505, Note_off_c, 0, 55, 55
1, 327508, Note_off_c, 0, 66, 62
1, 327508, Note_on_c, 0, 64, 64
1, 327526, Note_on_c, 0, 54, 67
1, 327567, Note_off_c, 0, 54, 66
1, 327616, Note_on_c, 0, 55, 57
1, 327675, Note_off_c, 0, 55, 46
1, 327707, Note_on_c, 0, 54, 51
1, 327751, Control_c, 0, 64, 85
1, 327760, Note_on_c, 0, 63, 70
1, 327769, Control_c, 0, 64, 55
1, 327788, Control_c, 0, 64, 25
1, 327807, Control_c, 0, 64, 9
1, 327816, Note_off_c, 0, 64, 54
1, 327980, Note_on_c, 0, 64, 63
1, 328032, Control_c, 0, 67, 109
1, 328038, Note_off_c, 0, 63, 58
1, 328050, Control_c, 0, 67, 114
1, 328069, Control_c, 0, 67, 118
1, 328107, Control_c, 0, 67, 125
1, 328241, Note_on_c, 0, 61, 59
1, 328321, Note_off_c, 0, 64, 35
1, 328482, Note_on_c, 0, 63, 62
1, 328516, Note_off_c, 0, 61, 57
1, 328737, Note_off_c, 0, 63, 61
1, 328746, Note_on_c, 0, 64, 53
1, 328753, Note_off_c, 0, 69, 54
1, 328753, Poly_aftertouch_c, 0, 69, 0
1, 328766, Note_on_c, 0, 52, 41
1, 328775, Note_off_c, 0, 54, 61
1, 328975, Note_on_c, 0, 72, 72
1, 329154, Control_c, 0, 64, 0
1, 329241, Note_on_c, 0, 43, 55
1, 329247, Note_on_c, 0, 71, 73
1, 329276, Note_off_c, 0, 52, 37
1, 329468, Note_on_c, 0, 69, 75
1, 329524, Note_off_c, 0, 72, 57
1, 329527, Note_off_c, 0, 71, 58
1, 329724, Note_on_c, 0, 67, 65
1, 329727, Note_off_c, 0, 69, 58
1, 329727, Poly_aftertouch_c, 0, 69, 0
1, 329731, Note_off_c, 0, 43, 61
1, 329732, Note_on_c, 0, 45, 59
1, 329940, Note_on_c, 0, 69, 59
1, 329958, Note_off_c, 0, 67, 55
1, 330190, Note_on_c, 0, 63, 55
1, 330213, Note_on_c, 0, 66, 52
1, 330216, Note_off_c, 0, 45, 60
1, 330222, Note_off_c, 0, 64, 46
1, 330233, Note_off_c, 0, 69, 54
1, 330233, Note_on_c, 0, 47, 42
1, 330233, Poly_aftertouch_c, 0, 69, 0
1, 330439, Note_on_c, 0, 69, 55
1, 330460, Note_off_c, 0, 66, 58
1, 330478, Note_off_c, 0, 63, 60
1, 330714, Note_on_c, 0, 67, 51
1, 330718, Note_off_c, 0, 69, 51
1, 330718, Poly_aftertouch_c, 0, 69, 0
1, 330727, Note_on_c, 0, 64, 38
1, 330728, Note_off_c, 0, 47, 55
1, 330743, Note_on_c, 0, 40, 36
1, 330977, Note_on_c, 0, 47, 44
1, 331230, Note_on_c, 0, 59, 72
1, 331233, Note_off_c, 0, 47, 62
1, 331257, Note_off_c, 0, 64, 59
1, 331265, Note_on_c, 0, 52, 47
1, 331276, Note_off_c, 0, 40, 53
1, 331504, Note_on_c, 0, 50, 47
1, 331568, Note_off_c, 0, 52, 55
1, 331788, Note_on_c, 0, 64, 81
1, 331800, Note_off_c, 0, 50, 61
1, 331813, Note_on_c, 0, 49, 52
1, 331849, Note_off_c, 0, 59, 58
1, 332002, Note_off_c, 0, 49, 62
1, 332029, Note_off_c, 0, 67, 56
1, 332035, Note_on_c, 0, 50, 38
1, 332272, Note_on_c, 0, 67, 57
1, 332275, Note_on_c, 0, 47, 40
1, 332285, Note_off_c, 0, 50, 46
1, 332473, Note_off_c, 0, 47, 56
1, 332495, Note_on_c, 0, 49, 44
1, 332767, Note_on_c, 0, 65, 59
1, 332772, Note_on_c, 0, 50, 45
1, 332789, Note_off_c, 0, 49, 60
1, 332850, Note_off_c, 0, 67, 33
1, 332983, Note_off_c, 0, 50, 56
1, 333005, Note_on_c, 0, 52, 42
1, 333246, Note_on_c, 0, 57, 67
1, 333250, Note_off_c, 0, 64, 61
1, 333266, Note_on_c, 0, 50, 44
1, 333278, Note_off_c, 0, 52, 54
1, 333486, Note_off_c, 0, 50, 61
1, 333517, Note_on_c, 0, 48, 52
1, 333750, Note_on_c, 0, 62, 70
1, 333752, Note_off_c, 0, 48, 59
1, 333766, Note_on_c, 0, 47, 46
1, 333807, Note_off_c, 0, 57, 56
1, 333977, Note_off_c, 0, 47, 55
1, 333979, Note_off_c, 0, 65, 59
1, 333991, Note_on_c, 0, 48, 47
1, 334203, Note_off_c, 0, 48, 51
1, 334236, Note_on_c, 0, 65, 56
1, 334250, Note_on_c, 0, 45, 42
1, 334454, Note_off_c, 0, 45, 53
1, 334462, Note_on_c, 0, 47, 45
1, 334709, Note_on_c, 0, 64, 52
1, 334735, Note_on_c, 0, 48, 43
1, 334742, Note_off_c, 0, 47, 52
1, 334937, Note_off_c, 0, 48, 60
1, 334956, Note_off_c, 0, 65, 31
1, 334956, Note_on_c, 0, 50, 54
1, 334961, Note_on_c, 0, 57, 51
1, 334962, Note_off_c, 0, 62, 59
1, 334968, Note_on_c, 0, 59, 53
1, 335111, Note_off_c, 0, 57, 37
1, 335161, Note_off_c, 0, 59, 49
1, 335177, Note_on_c, 0, 60, 66
1, 335185, Note_off_c, 0, 50, 59
1, 335193, Note_on_c, 0, 48, 51
1, 335390, Note_off_c, 0, 48, 61
1, 335406, Note_on_c, 0, 62, 69
1, 335420, Note_on_c, 0, 47, 54
1, 335427, Note_off_c, 0, 60, 58
1, 335445, Control_c, 0, 64, 22
1, 335463, Control_c, 0, 64, 44
1, 335464, Note_off_c, 0, 64, 61
1, 335482, Control_c, 0, 64, 61
1, 335502, Control_c, 0, 64, 66
1, 335575, Control_c, 0, 64, 67
1, 335612, Control_c, 0, 64, 70
1, 335621, Note_off_c, 0, 62, 62
1, 335645, Note_off_c, 0, 47, 60
1, 335649, Note_on_c, 0, 64, 64
1, 335672, Note_on_c, 0, 45, 52
1, 335687, Control_c, 0, 64, 68
1, 335707, Control_c, 0, 64, 66
1, 335725, Control_c, 0, 64, 65
1, 335762, Control_c, 0, 64, 64
1, 335871, Note_off_c, 0, 45, 61
1, 335896, Note_on_c, 0, 47, 54
1, 335931, Control_c, 0, 64, 65
1, 336043, Control_c, 0, 64, 64
1, 336063, Control_c, 0, 64, 63
1, 336080, Control_c, 0, 64, 59
1, 336100, Control_c, 0, 64, 54
1, 336118, Control_c, 0, 64, 47
1, 336137, Control_c, 0, 64, 35
1, 336138, Note_on_c, 0, 72, 70
1, 336140, Note_off_c, 0, 47, 59
1, 336147, Note_on_c, 0, 69, 48
1, 336156, Note_on_c, 0, 44, 52
1, 336156, Control_c, 0, 64, 20
1, 336230, Note_off_c, 0, 64, 54
1, 336348, Poly_aftertouch_c, 0, 64, 0
1, 336355, Note_on_c, 0, 45, 54
1, 336360, Note_off_c, 0, 44, 54
1, 336455, Control_c, 0, 64, 8
1, 336548, Control_c, 0, 64, 13
1, 336604, Control_c, 0, 64, 18
1, 336612, Note_on_c, 0, 62, 57
1, 336643, Note_on_c, 0, 47, 46
1, 336647, Note_off_c, 0, 45, 54
1, 336679, Control_c, 0, 64, 23
1, 336717, Control_c, 0, 64, 29
1, 336754, Control_c, 0, 64, 35
1, 336792, Control_c, 0, 64, 42
1, 336811, Control_c, 0, 64, 46
1, 336829, Control_c, 0, 64, 51
1, 336841, Note_off_c, 0, 47, 59
1, 336854, Note_on_c, 0, 66, 63
1, 336864, Note_on_c, 0, 48, 41
1, 336911, Note_off_c, 0, 69, 58
1, 336911, Poly_aftertouch_c, 0, 69, 0
1, 336924, Control_c, 0, 64, 53
1, 337102, Note_on_c, 0, 68, 76
1, 337104, Note_off_c, 0, 48, 50
1, 337108, Note_on_c, 0, 47, 45
1, 337142, Note_off_c, 0, 66, 60
1, 337307, Note_off_c, 0, 47, 61
1, 337325, Note_on_c, 0, 69, 71
1, 337338, Note_on_c, 0, 45, 47
1, 337381, Note_off_c, 0, 72, 58
1, 337390, Control_c, 0, 64, 55
1, 337578, Control_c, 0, 64, 51
1, 337579, Note_off_c, 0, 45, 53
1, 337593, Note_on_c, 0, 44, 44
1, 337596, Note_on_c, 0, 71, 66
1, 337596, Control_c, 0, 64, 47
1, 337615, Control_c, 0, 64, 42
1, 337631, Note_off_c, 0, 68, 46
1, 337632, Poly_aftertouch_c, 0, 68, 0
1, 337635, Control_c, 0, 64, 34
1, 337640, Note_off_c, 0, 69, 56
1, 337640, Poly_aftertouch_c, 0, 69, 0
1, 337655, Control_c, 0, 64, 25
1, 337672, Control_c, 0, 64, 21
1, 337789, Note_off_c, 0, 44, 60
1, 337816, Note_on_c, 0, 45, 45
1, 337820, Control_c, 0, 64, 26
1, 337840, Control_c, 0, 64, 31
1, 337855, Note_off_c, 0, 62, 60
1, 337858, Control_c, 0, 64, 39
1, 337877, Control_c, 0, 64, 50
1, 337897, Control_c, 0, 64, 57
1, 337991, Control_c, 0, 64, 59
1, 338008, Control_c, 0, 64, 60
1, 338065, Control_c, 0, 64, 55
1, 338071, Note_off_c, 0, 45, 54
1, 338083, Control_c, 0, 64, 50
1, 338086, Note_on_c, 0, 42, 47
1, 338087, Note_on_c, 0, 62, 56
1, 338102, Control_c, 0, 64, 44
1, 338121, Control_c, 0, 64, 40
1, 338177, Control_c, 0, 64, 44
1, 338196, Control_c, 0, 64, 48
1, 338214, Control_c, 0, 64, 52
1, 338234, Control_c, 0, 64, 55
1, 338252, Control_c, 0, 64, 59
1, 338272, Control_c, 0, 64, 62
1, 338289, Control_c, 0, 64, 64
1, 338308, Control_c, 0, 64, 65
1, 338325, Note_on_c, 0, 44, 48
1, 338327, Note_off_c, 0, 42, 49
1, 338327, Control_c, 0, 64, 66
1, 338345, Control_c, 0, 64, 67
1, 338383, Control_c, 0, 64, 70
1, 338403, Control_c, 0, 64, 73
1, 338420, Control_c, 0, 64, 78
1, 338441, Control_c, 0, 64, 84
1, 338458, Control_c, 0, 64, 89
1, 338533, Control_c, 0, 64, 84
1, 338552, Control_c, 0, 64, 75
1, 338563, Note_off_c, 0, 44, 60
1, 338570, Control_c, 0, 64, 63
1, 338581, Note_on_c, 0, 60, 53
1, 338589, Note_off_c, 0, 62, 59
1, 338589, Note_on_c, 0, 45, 47
1, 338589, Control_c, 0, 64, 50
1, 338608, Control_c, 0, 64, 42
1, 338757, Control_c, 0, 64, 40
1, 338816, Note_on_c, 0, 64, 58
1, 338854, Note_off_c, 0, 71, 47
1, 339021, Control_c, 0, 64, 35
1, 339058, Control_c, 0, 64, 30
1, 339064, Note_on_c, 0, 47, 57
1, 339071, Note_on_c, 0, 69, 64
1, 339076, Control_c, 0, 64, 24
1, 339094, Note_off_c, 0, 45, 54
1, 339104, Note_off_c, 0, 64, 60
1, 339282, Note_on_c, 0, 68, 63
1, 339320, Control_c, 0, 67, 120
1, 339331, Note_off_c, 0, 69, 58
1, 339331, Poly_aftertouch_c, 0, 69, 0
1, 339357, Control_c, 0, 67, 113
1, 339395, Control_c, 0, 67, 109
1, 339489, Control_c, 0, 67, 104
1, 339550, Note_on_c, 0, 69, 61
1, 339559, Note_on_c, 0, 48, 50
1, 339567, Note_off_c, 0, 68, 61
1, 339571, Note_off_c, 0, 47, 59
1, 339618, Control_c, 0, 67, 99
1, 339656, Control_c, 0, 67, 95
1, 339695, Control_c, 0, 67, 89
1, 339732, Control_c, 0, 67, 84
1, 339786, Control_c, 0, 67, 79
1, 339788, Note_on_c, 0, 64, 62
1, 339823, Note_off_c, 0, 60, 49
1, 339918, Control_c, 0, 67, 75
1, 340034, Note_on_c, 0, 62, 56
1, 340039, Note_on_c, 0, 45, 49
1, 340078, Note_off_c, 0, 48, 61
1, 340100, Note_off_c, 0, 64, 48
1, 340259, Note_on_c, 0, 60, 58
1, 340260, Note_off_c, 0, 62, 60
1, 340499, Note_off_c, 0, 60, 60
1, 340511, Note_on_c, 0, 59, 60
1, 340517, Note_off_c, 0, 45, 61
1, 340530, Note_on_c, 0, 52, 44
1, 340557, Note_off_c, 0, 69, 52
1, 340557, Poly_aftertouch_c, 0, 69, 0
1, 340746, Note_on_c, 0, 69, 64
1, 340816, Control_c, 0, 64, 28
1, 340854, Control_c, 0, 64, 33
1, 340872, Control_c, 0, 64, 37
1, 340891, Control_c, 0, 64, 40
1, 340909, Control_c, 0, 64, 42
1, 340966, Control_c, 0, 64, 45
1, 340993, Note_on_c, 0, 40, 48
1, 341004, Control_c, 0, 64, 49
1, 341006, Note_off_c, 0, 52, 54
1, 341012, Note_on_c, 0, 67, 55
1, 341041, Control_c, 0, 64, 52
1, 341080, Control_c, 0, 67, 69
1, 341097, Control_c, 0, 64, 55
1, 341098, Control_c, 0, 67, 63
1, 341116, Control_c, 0, 67, 58
1, 341135, Control_c, 0, 64, 57
1, 341154, Control_c, 0, 64, 59
1, 341156, Control_c, 0, 67, 53
1, 341172, Control_c, 0, 64, 61
1, 341191, Control_c, 0, 64, 62
1, 341210, Control_c, 0, 64, 63
1, 341228, Control_c, 0, 64, 64
1, 341239, Note_on_c, 0, 66, 60
1, 341247, Note_off_c, 0, 69, 55
1, 341247, Poly_aftertouch_c, 0, 69, 0
1, 341247, Control_c, 0, 64, 65
1, 341266, Control_c, 0, 64, 67
1, 341273, Note_off_c, 0, 67, 59
1, 341303, Control_c, 0, 64, 70
1, 341341, Control_c, 0, 64, 72
1, 341378, Control_c, 0, 64, 75
1, 341434, Control_c, 0, 64, 72
1, 341453, Control_c, 0, 64, 66
1, 341471, Control_c, 0, 64, 58
1, 341477, Note_off_c, 0, 40, 57
1, 341479, Note_off_c, 0, 59, 60
1, 341485, Note_on_c, 0, 67, 55
1, 341488, Note_on_c, 0, 52, 53
1, 341489, Control_c, 0, 64, 48
1, 341509, Control_c, 0, 64, 38
1, 341529, Control_c, 0, 64, 31
1, 341530, Note_off_c, 0, 66, 56
1, 341546, Control_c, 0, 64, 27
1, 341678, Control_c, 0, 67, 48
1, 341696, Control_c, 0, 67, 40
1, 341708, Note_on_c, 0, 59, 64
1, 341716, Control_c, 0, 67, 32
1, 341734, Control_c, 0, 67, 22
1, 341753, Control_c, 0, 67, 8
1, 341771, Control_c, 0, 67, 0
1, 341946, Note_on_c, 0, 64, 70
1, 341951, Note_on_c, 0, 50, 67
1, 342003, Note_off_c, 0, 59, 56
1, 342012, Note_off_c, 0, 52, 57
1, 342174, Note_on_c, 0, 62, 74
1, 342206, Note_off_c, 0, 64, 61
1, 342429, Note_on_c, 0, 64, 69
1, 342430, Note_off_c, 0, 67, 58
1, 342431, Note_on_c, 0, 48, 64
1, 342435, Note_off_c, 0, 62, 61
1, 342472, Note_off_c, 0, 50, 54
1, 342652, Note_on_c, 0, 67, 72
1, 342669, Control_c, 0, 64, 31
1, 342782, Control_c, 0, 64, 36
1, 342908, Note_on_c, 0, 50, 53
1, 342909, Note_on_c, 0, 72, 75
1, 342922, Note_off_c, 0, 48, 59
1, 342940, Note_off_c, 0, 67, 62
1, 343133, Note_on_c, 0, 71, 79
1, 343184, Note_off_c, 0, 72, 59
1, 343390, Note_on_c, 0, 72, 78
1, 343395, Note_on_c, 0, 52, 50
1, 343400, Note_off_c, 0, 50, 59
1, 343401, Control_c, 0, 64, 40
1, 343402, Note_off_c, 0, 71, 63
1, 343456, Control_c, 0, 64, 42
1, 343493, Control_c, 0, 64, 45
1, 343532, Control_c, 0, 64, 47
1, 343626, Note_on_c, 0, 67, 65
1, 343725, Note_off_c, 0, 64, 37
1, 343860, Note_on_c, 0, 65, 59
1, 343861, Note_on_c, 0, 48, 44
1, 343878, Note_off_c, 0, 52, 54
1, 343972, Note_off_c, 0, 67, 35
1, 343998, Control_c, 0, 64, 49
1, 344088, Note_on_c, 0, 64, 64
1, 344097, Note_off_c, 0, 65, 60
1, 344129, Control_c, 0, 64, 51
1, 344336, Note_off_c, 0, 48, 61
1, 344336, Note_on_c, 0, 62, 55
1, 344336, Control_c, 0, 64, 53
1, 344345, Note_off_c, 0, 64, 61
1, 344349, Note_on_c, 0, 55, 45
1, 344391, Note_off_c, 0, 72, 57
1, 344485, Control_c, 0, 64, 55
1, 344542, Control_c, 0, 64, 57
1, 344573, Note_on_c, 0, 72, 65
1, 344672, Control_c, 0, 64, 59
1, 344807, Note_on_c, 0, 43, 51
1, 344819, Note_off_c, 0, 55, 58
1, 344824, Note_on_c, 0, 71, 62
1, 344840, Control_c, 0, 64, 60
1, 344861, Control_c, 0, 64, 61
1, 344897, Control_c, 0, 64, 62
1, 344915, Control_c, 0, 64, 64
1, 344934, Control_c, 0, 64, 66
1, 344953, Control_c, 0, 64, 68
1, 344972, Control_c, 0, 64, 71
1, 344990, Control_c, 0, 64, 75
1, 345010, Control_c, 0, 64, 79
1, 345017, Note_off_c, 0, 72, 54
1, 345028, Control_c, 0, 64, 84
1, 345037, Note_on_c, 0, 69, 74
1, 345044, Control_c, 0, 64, 91
1, 345066, Control_c, 0, 64, 101
1, 345070, Note_off_c, 0, 71, 61
1, 345084, Control_c, 0, 64, 118
1, 345103, Control_c, 0, 64, 127
1, 345270, Control_c, 0, 64, 99
1, 345274, Note_on_c, 0, 55, 72
1, 345278, Note_off_c, 0, 43, 61
1, 345290, Control_c, 0, 64, 76
1, 345301, Note_on_c, 0, 71, 73
1, 345307, Control_c, 0, 64, 60
1, 345328, Control_c, 0, 64, 52
1, 345357, Note_off_c, 0, 69, 47
1, 345357, Poly_aftertouch_c, 0, 69, 0
1, 345362, Note_off_c, 0, 62, 55
1, 345439, Control_c, 0, 64, 54
1, 345477, Control_c, 0, 64, 57
1, 345514, Control_c, 0, 64, 61
1, 345522, Note_on_c, 0, 62, 73
1, 345535, Control_c, 0, 64, 63
1, 345552, Control_c, 0, 64, 64
1, 345571, Control_c, 0, 64, 67
1, 345590, Control_c, 0, 64, 69
1, 345609, Control_c, 0, 64, 71
1, 345664, Control_c, 0, 64, 73
1, 345701, Control_c, 0, 64, 70
1, 345720, Control_c, 0, 64, 64
1, 345739, Control_c, 0, 64, 55
1, 345759, Control_c, 0, 64, 47
1, 345761, Note_on_c, 0, 54, 84
1, 345771, Note_on_c, 0, 67, 75
1, 345778, Control_c, 0, 64, 41
1, 345789, Note_off_c, 0, 55, 61
1, 345815, Control_c, 0, 64, 37
1, 345842, Note_off_c, 0, 62, 58
1, 345926, Control_c, 0, 64, 43
1, 345945, Control_c, 0, 64, 50
1, 345964, Control_c, 0, 64, 59
1, 345979, Note_on_c, 0, 66, 79
1, 345982, Control_c, 0, 64, 66
1, 346001, Control_c, 0, 64, 72
1, 346005, Note_off_c, 0, 67, 60
1, 346020, Control_c, 0, 64, 78
1, 346039, Control_c, 0, 64, 91
1, 346054, Note_off_c, 0, 71, 58
1, 346056, Control_c, 0, 64, 127
1, 346238, Note_off_c, 0, 66, 62
1, 346241, Note_on_c, 0, 67, 80
1, 346242, Note_on_c, 0, 52, 82
1, 346265, Control_c, 0, 64, 100
1, 346283, Control_c, 0, 64, 75
1, 346293, Note_off_c, 0, 54, 39
1, 346301, Control_c, 0, 64, 56
1, 346319, Control_c, 0, 64, 43
1, 346339, Control_c, 0, 64, 41
1, 346470, Note_on_c, 0, 71, 82
1, 346710, Note_on_c, 0, 54, 85
1, 346716, Note_on_c, 0, 76, 82
1, 346723, Note_off_c, 0, 52, 61
1, 346741, Note_off_c, 0, 71, 60
1, 346937, Note_on_c, 0, 75, 83
1, 346937, Control_c, 0, 64, 37
1, 346973, Note_off_c, 0, 76, 62
1, 347106, Control_c, 0, 64, 32
1, 347188, Note_on_c, 0, 76, 83
1, 347195, Note_on_c, 0, 55, 82
1, 347213, Note_off_c, 0, 54, 61
1, 347231, Note_off_c, 0, 75, 64
1, 347237, Control_c, 0, 64, 28
1, 347330, Control_c, 0, 64, 36
1, 347350, Control_c, 0, 64, 42
1, 347365, Note_off_c, 0, 67, 58
1, 347368, Control_c, 0, 64, 44
1, 347422, Note_on_c, 0, 71, 85
1, 347513, Note_off_c, 0, 71, 62
1, 347516, Control_c, 0, 64, 42
1, 347612, Control_c, 0, 64, 40
1, 347654, Note_on_c, 0, 69, 86
1, 347661, Note_on_c, 0, 52, 79
1, 347677, Note_off_c, 0, 55, 55
1, 347749, Note_off_c, 0, 69, 55
1, 347749, Poly_aftertouch_c, 0, 69, 0
1, 347761, Control_c, 0, 64, 43
1, 347779, Control_c, 0, 64, 48
1, 347798, Control_c, 0, 64, 55
1, 347817, Control_c, 0, 64, 62
1, 347836, Control_c, 0, 64, 67
1, 347854, Control_c, 0, 64, 70
1, 347873, Note_on_c, 0, 67, 87
1, 347892, Control_c, 0, 64, 72
1, 347929, Control_c, 0, 64, 75
1, 347937, Note_off_c, 0, 67, 63
1, 347948, Control_c, 0, 64, 78
1, 347967, Control_c, 0, 64, 84
1, 347985, Control_c, 0, 64, 92
1, 348004, Control_c, 0, 64, 100
1, 348023, Control_c, 0, 64, 105
1, 348079, Control_c, 0, 64, 97
1, 348098, Control_c, 0, 64, 86
1, 348115, Note_off_c, 0, 52, 62
1, 348115, Control_c, 0, 64, 71
1, 348129, Note_on_c, 0, 59, 82
1, 348136, Control_c, 0, 64, 54
1, 348138, Note_on_c, 0, 66, 88
1, 348154, Control_c, 0, 64, 40
1, 348170, Note_off_c, 0, 76, 59
1, 348172, Control_c, 0, 64, 34
1, 348248, Control_c, 0, 64, 29
1, 348266, Control_c, 0, 64, 25
1, 348304, Control_c, 0, 64, 21
1, 348365, Note_on_c, 0, 76, 87
1, 348416, Control_c, 0, 64, 17
1, 348472, Control_c, 0, 64, 12
1, 348584, Control_c, 0, 64, 8
1, 348600, Note_on_c, 0, 74, 80
1, 348699, Note_off_c, 0, 76, 54
1, 348772, Control_c, 0, 64, 13
1, 348791, Control_c, 0, 64, 19
1, 348809, Control_c, 0, 64, 28
1, 348824, Note_on_c, 0, 73, 84
1, 348829, Control_c, 0, 64, 40
1, 348840, Note_off_c, 0, 74, 62
1, 348846, Control_c, 0, 64, 54
1, 348866, Control_c, 0, 64, 62
1, 348884, Control_c, 0, 64, 63
1, 348923, Control_c, 0, 64, 64
1, 348940, Control_c, 0, 64, 68
1, 348960, Control_c, 0, 64, 73
1, 348977, Control_c, 0, 64, 81
1, 348997, Control_c, 0, 64, 92
1, 349016, Control_c, 0, 64, 101
1, 349063, Note_on_c, 0, 74, 87
1, 349065, Note_off_c, 0, 73, 63
1, 349083, Note_off_c, 0, 66, 61
1, 349109, Control_c, 0, 64, 92
1, 349128, Control_c, 0, 64, 88
1, 349146, Control_c, 0, 64, 85
1, 349166, Control_c, 0, 64, 83
1, 349183, Control_c, 0, 64, 80
1, 349203, Control_c, 0, 64, 74
1, 349221, Control_c, 0, 64, 67
1, 349240, Control_c, 0, 64, 60
1, 349259, Control_c, 0, 64, 55
1, 349277, Control_c, 0, 64, 53
1, 349288, Note_on_c, 0, 69, 80
1, 349297, Control_c, 0, 64, 50
1, 349313, Note_off_c, 0, 59, 60
1, 349314, Control_c, 0, 64, 47
1, 349333, Control_c, 0, 64, 44
1, 349352, Control_c, 0, 64, 41
1, 349389, Control_c, 0, 64, 35
1, 349408, Control_c, 0, 64, 30
1, 349428, Control_c, 0, 64, 22
1, 349445, Control_c, 0, 64, 18
1, 349483, Control_c, 0, 64, 13
1, 349520, Control_c, 0, 64, 9
1, 349529, Note_on_c, 0, 68, 78
1, 349537, Note_on_c, 0, 52, 84
1, 349584, Note_off_c, 0, 69, 51
1, 349584, Poly_aftertouch_c, 0, 69, 0
1, 349724, Note_off_c, 0, 52, 61
1, 349748, Note_on_c, 0, 66, 83
1, 349783, Note_off_c, 0, 68, 59
1, 350013, Note_on_c, 0, 60, 86
1, 350023, Note_on_c, 0, 64, 78
1, 350050, Note_off_c, 0, 66, 60
1, 350066, Note_off_c, 0, 74, 53
1, 350232, Note_on_c, 0, 74, 81
1, 350484, Note_on_c, 0, 72, 80
1, 350644, Control_c, 0, 64, 0
1, 350707, Note_on_c, 0, 71, 82
1, 350728, Note_off_c, 0, 74, 58
1, 350760, Note_off_c, 0, 72, 61
1, 350793, Control_c, 0, 64, 11
1, 350812, Control_c, 0, 64, 20
1, 350831, Control_c, 0, 64, 30
1, 350849, Control_c, 0, 64, 41
1, 350868, Control_c, 0, 64, 45
1, 350887, Control_c, 0, 64, 40
1, 350905, Control_c, 0, 64, 27
1, 350924, Control_c, 0, 64, 11
1, 350960, Note_on_c, 0, 72, 87
1, 350986, Note_off_c, 0, 71, 61
1, 351018, Control_c, 0, 64, 21
1, 351037, Control_c, 0, 64, 31
1, 351055, Control_c, 0, 64, 44
1, 351075, Control_c, 0, 64, 58
1, 351093, Control_c, 0, 64, 64
1, 351112, Control_c, 0, 64, 67
1, 351130, Control_c, 0, 64, 71
1, 351149, Control_c, 0, 64, 77
1, 351164, Note_on_c, 0, 69, 76
1, 351168, Control_c, 0, 64, 89
1, 351187, Control_c, 0, 64, 111
1, 351205, Control_c, 0, 64, 127
1, 351225, Note_off_c, 0, 60, 58
1, 351256, Poly_aftertouch_c, 0, 71, 0
1, 351337, Control_c, 0, 64, 103
1, 351355, Control_c, 0, 64, 76
1, 351375, Control_c, 0, 64, 55
1, 351393, Control_c, 0, 64, 37
1, 351410, Control_c, 0, 64, 26
1, 351423, Note_on_c, 0, 52, 77
1, 351429, Note_on_c, 0, 68, 77
1, 351435, Note_off_c, 0, 69, 60
1, 351435, Poly_aftertouch_c, 0, 69, 0
1, 351486, Control_c, 0, 64, 20
1, 351522, Control_c, 0, 64, 16
1, 351628, Note_off_c, 0, 52, 61
1, 351646, Note_on_c, 0, 69, 75
1, 351688, Note_off_c, 0, 64, 57
1, 351774, Note_off_c, 0, 68, 37
1, 351842, Control_c, 0, 64, 11
1, 351907, Note_on_c, 0, 59, 78
1, 351912, Note_on_c, 0, 62, 73
1, 351929, Note_off_c, 0, 69, 57
1, 351929, Poly_aftertouch_c, 0, 69, 0
1, 351956, Note_off_c, 0, 72, 52
1, 351973, Control_c, 0, 64, 0
1, 352140, Note_on_c, 0, 72, 78
1, 352377, Note_on_c, 0, 71, 73
1, 352402, Control_c, 0, 64, 12
1, 352422, Control_c, 0, 64, 19
1, 352441, Control_c, 0, 64, 30
1, 352459, Control_c, 0, 64, 46
1, 352478, Control_c, 0, 64, 61
1, 352497, Control_c, 0, 64, 67
1, 352534, Control_c, 0, 64, 70
1, 352553, Control_c, 0, 64, 73
1, 352566, Note_off_c, 0, 72, 54
1, 352571, Control_c, 0, 64, 80
1, 352587, Note_on_c, 0, 69, 76
1, 352589, Control_c, 0, 64, 99
1, 352609, Control_c, 0, 64, 127
1, 352627, Note_off_c, 0, 71, 61
1, 352834, Control_c, 0, 64, 122
1, 352836, Note_on_c, 0, 71, 72
1, 352845, Note_off_c, 0, 69, 58
1, 352845, Poly_aftertouch_c, 0, 69, 0
1, 352853, Control_c, 0, 64, 94
1, 352871, Control_c, 0, 64, 76
1, 352873, Note_off_c, 0, 59, 61
1, 352890, Control_c, 0, 64, 61
1, 352909, Control_c, 0, 64, 50
1, 352927, Control_c, 0, 64, 45
1, 352945, Control_c, 0, 64, 40
1, 352965, Control_c, 0, 64, 30
1, 352983, Control_c, 0, 64, 21
1, 353002, Control_c, 0, 64, 17
1, 353072, Note_on_c, 0, 65, 61
1, 353074, Note_on_c, 0, 57, 61
1, 353103, Note_off_c, 0, 62, 58
1, 353305, Note_on_c, 0, 56, 68
1, 353314, Note_on_c, 0, 64, 68
1, 353361, Note_off_c, 0, 57, 59
1, 353456, Note_off_c, 0, 65, 33
1, 353526, Note_on_c, 0, 54, 65
1, 353530, Note_on_c, 0, 62, 74
1, 353570, Note_off_c, 0, 64, 61
1, 353587, Note_off_c, 0, 56, 54
1, 353774, Note_on_c, 0, 52, 65
1, 353779, Note_on_c, 0, 60, 66
1, 353794, Note_off_c, 0, 54, 61
1, 353806, Note_off_c, 0, 62, 61
1, 354007, Note_on_c, 0, 69, 76
1, 354012, Note_on_c, 0, 54, 73
1, 354039, Note_off_c, 0, 52, 60
1, 354069, Control_c, 0, 64, 22
1, 354081, Note_off_c, 0, 71, 57
1, 354088, Control_c, 0, 64, 31
1, 354107, Control_c, 0, 64, 45
1, 354125, Control_c, 0, 64, 60
1, 354144, Control_c, 0, 64, 65
1, 354200, Control_c, 0, 64, 62
1, 354219, Control_c, 0, 64, 57
1, 354238, Control_c, 0, 64, 52
1, 354241, Note_on_c, 0, 56, 69
1, 354249, Note_on_c, 0, 71, 76
1, 354257, Control_c, 0, 64, 47
1, 354270, Note_off_c, 0, 54, 62
1, 354302, Note_off_c, 0, 69, 59
1, 354302, Poly_aftertouch_c, 0, 69, 0
1, 354311, Control_c, 0, 64, 50
1, 354330, Control_c, 0, 64, 55
1, 354351, Control_c, 0, 64, 61
1, 354368, Control_c, 0, 64, 67
1, 354388, Control_c, 0, 64, 72
1, 354406, Control_c, 0, 64, 76
1, 354425, Control_c, 0, 64, 78
1, 354444, Control_c, 0, 64, 76
1, 354462, Control_c, 0, 64, 68
1, 354463, Note_on_c, 0, 52, 69
1, 354470, Note_on_c, 0, 68, 75
1, 354480, Control_c, 0, 64, 56
1, 354481, Note_off_c, 0, 56, 61
1, 354501, Control_c, 0, 64, 47
1, 354516, Note_off_c, 0, 71, 61
1, 354519, Control_c, 0, 64, 44
1, 354537, Control_c, 0, 64, 47
1, 354557, Control_c, 0, 64, 54
1, 354574, Control_c, 0, 64, 63
1, 354593, Control_c, 0, 64, 73
1, 354611, Control_c, 0, 64, 84
1, 354631, Control_c, 0, 64, 99
1, 354649, Control_c, 0, 64, 127
1, 354686, Control_c, 0, 64, 98
1, 354706, Control_c, 0, 64, 73
1, 354724, Control_c, 0, 64, 48
1, 354725, Note_on_c, 0, 57, 75
1, 354726, Note_on_c, 0, 69, 73
1, 354741, Note_off_c, 0, 52, 52
1, 354742, Control_c, 0, 64, 31
1, 354778, Note_off_c, 0, 68, 56
1, 354837, Control_c, 0, 64, 40
1, 354857, Control_c, 0, 64, 57
1, 354873, Control_c, 0, 64, 74
1, 354893, Control_c, 0, 64, 91
1, 354911, Control_c, 0, 64, 124
1, 354967, Note_on_c, 0, 72, 72
1, 355009, Note_off_c, 0, 57, 62
1, 355011, Note_off_c, 0, 69, 56
1, 355011, Poly_aftertouch_c, 0, 69, 0
1, 355192, Note_on_c, 0, 57, 77
1, 355192, Control_c, 0, 64, 106
1, 355211, Control_c, 0, 64, 74
1, 355217, Note_on_c, 0, 66, 68
1, 355230, Control_c, 0, 64, 53
1, 355245, Note_off_c, 0, 60, 57
1, 355249, Control_c, 0, 64, 45
1, 355287, Control_c, 0, 64, 47
1, 355305, Control_c, 0, 64, 53
1, 355324, Control_c, 0, 64, 61
1, 355342, Control_c, 0, 64, 69
1, 355361, Control_c, 0, 64, 82
1, 355379, Control_c, 0, 64, 109
1, 355398, Control_c, 0, 64, 127
1, 355425, Note_on_c, 0, 64, 74
1, 355437, Note_off_c, 0, 57, 63
1, 355450, Note_off_c, 0, 66, 61
1, 355680, Control_c, 0, 64, 104
1, 355693, Note_on_c, 0, 59, 69
1, 355698, Note_on_c, 0, 57, 67
1, 355698, Control_c, 0, 64, 75
1, 355699, Note_on_c, 0, 63, 67
1, 355717, Control_c, 0, 64, 56
1, 355734, Control_c, 0, 64, 44
1, 355754, Note_off_c, 0, 64, 60
1, 355754, Control_c, 0, 64, 37
1, 355772, Control_c, 0, 64, 29
1, 355791, Control_c, 0, 64, 19
1, 355810, Control_c, 0, 64, 10
1, 355923, Note_on_c, 0, 66, 70
1, 355941, Control_c, 0, 64, 28
1, 355960, Control_c, 0, 64, 55
1, 355979, Control_c, 0, 64, 78
1, 355987, Note_off_c, 0, 63, 59
1, 355996, Control_c, 0, 64, 101
1, 356016, Control_c, 0, 64, 127
1, 356091, Control_c, 0, 64, 115
1, 356109, Control_c, 0, 64, 87
1, 356122, Note_off_c, 0, 57, 60
1, 356127, Control_c, 0, 64, 63
1, 356145, Control_c, 0, 64, 38
1, 356147, Note_on_c, 0, 55, 67
1, 356161, Note_off_c, 0, 66, 61
1, 356166, Control_c, 0, 64, 22
1, 356168, Note_on_c, 0, 67, 69
1, 356240, Control_c, 0, 64, 34
1, 356260, Control_c, 0, 64, 57
1, 356279, Control_c, 0, 64, 77
1, 356297, Control_c, 0, 64, 98
1, 356316, Control_c, 0, 64, 127
1, 356378, Note_on_c, 0, 54, 71
1, 356389, Note_off_c, 0, 55, 61
1, 356394, Note_on_c, 0, 69, 74
1, 356401, Note_off_c, 0, 72, 56
1, 356597, Control_c, 0, 64, 98
1, 356614, Control_c, 0, 64, 66
1, 356633, Control_c, 0, 64, 40
1, 356641, Note_on_c, 0, 57, 70
1, 356647, Note_on_c, 0, 71, 77
1, 356649, Note_off_c, 0, 59, 61
1, 356651, Note_off_c, 0, 69, 61
1, 356651, Note_off_c, 0, 67, 56
1, 356651, Poly_aftertouch_c, 0, 69, 0
1, 356652, Control_c, 0, 64, 26
1, 356709, Control_c, 0, 64, 30
1, 356711, Note_off_c, 0, 54, 60
1, 356728, Control_c, 0, 64, 42
1, 356746, Control_c, 0, 64, 59
1, 356765, Control_c, 0, 64, 69
1, 356783, Control_c, 0, 64, 76
1, 356802, Control_c, 0, 64, 79
1, 356820, Control_c, 0, 64, 84
1, 356840, Control_c, 0, 64, 95
1, 356846, Note_off_c, 0, 57, 63
1, 356860, Control_c, 0, 64, 127
1, 356864, Note_on_c, 0, 55, 68
1, 357102, Control_c, 0, 64, 95
1, 357110, Note_on_c, 0, 64, 81
1, 357116, Note_on_c, 0, 54, 57
1, 357121, Control_c, 0, 64, 69
1, 357139, Control_c, 0, 64, 51
1, 357160, Note_off_c, 0, 71, 56
1, 357167, Note_off_c, 0, 55, 42
1, 357176, Control_c, 0, 64, 56
1, 357195, Control_c, 0, 64, 66
1, 357215, Control_c, 0, 64, 81
1, 357232, Control_c, 0, 64, 119
1, 357251, Control_c, 0, 64, 127
1, 357313, Note_off_c, 0, 54, 61
1, 357315, Note_on_c, 0, 52, 63
1, 357577, Note_on_c, 0, 57, 83
1, 357591, Note_off_c, 0, 52, 59
1, 357607, Control_c, 0, 64, 76
1, 357625, Note_on_c, 0, 55, 49
1, 357625, Control_c, 0, 64, 48
1, 357644, Control_c, 0, 64, 35
1, 357682, Control_c, 0, 64, 53
1, 357700, Control_c, 0, 64, 78
1, 357719, Control_c, 0, 64, 127
1, 357747, Note_off_c, 0, 55, 56
1, 357791, Note_on_c, 0, 54, 52
1, 357824, Note_on_c, 0, 67, 76
1, 357858, Note_off_c, 0, 54, 61
1, 357870, Note_off_c, 0, 57, 62
1, 357875, Note_off_c, 0, 64, 61
1, 357895, Note_on_c, 0, 55, 59
1, 357962, Note_off_c, 0, 55, 55
1, 357982, Note_on_c, 0, 54, 57
1, 358028, Note_off_c, 0, 54, 61
1, 358039, Note_on_c, 0, 66, 80
1, 358043, Note_on_c, 0, 59, 81
1, 358056, Control_c, 0, 64, 92
1, 358063, Note_on_c, 0, 55, 75
1, 358075, Control_c, 0, 64, 58
1, 358089, Note_off_c, 0, 67, 60
1, 358092, Control_c, 0, 64, 35
1, 358123, Note_off_c, 0, 55, 60
1, 358129, Control_c, 0, 64, 48
1, 358139, Note_on_c, 0, 54, 63
1, 358147, Control_c, 0, 64, 77
1, 358168, Control_c, 0, 64, 127
1, 358190, Note_off_c, 0, 54, 66
1, 358209, Note_on_c, 0, 55, 67
1, 358254, Note_on_c, 0, 64, 79
1, 358282, Note_off_c, 0, 55, 61
1, 358282, Note_on_c, 0, 54, 75
1, 358317, Note_off_c, 0, 66, 59
1, 358350, Note_off_c, 0, 54, 60
1, 358350, Note_on_c, 0, 55, 68
1, 358358, Note_off_c, 0, 59, 59
1, 358467, Note_on_c, 0, 54, 29
1, 358493, Note_off_c, 0, 55, 64
1, 358493, Note_on_c, 0, 55, 26
1, 358499, Note_on_c, 0, 60, 77
1, 358501, Note_on_c, 0, 63, 80
1, 358504, Control_c, 0, 64, 96
1, 358521, Note_off_c, 0, 64, 56
1, 358523, Control_c, 0, 64, 50
1, 358526, Note_off_c, 0, 55, 59
1, 358542, Control_c, 0, 64, 0
1, 358618, Control_c, 0, 64, 39
1, 358636, Control_c, 0, 64, 83
1, 358655, Control_c, 0, 64, 127
1, 358742, Note_on_c, 0, 66, 79
1, 358816, Note_off_c, 0, 63, 57
1, 358977, Note_on_c, 0, 57, 79
1, 358986, Note_on_c, 0, 71, 80
1, 358991, Control_c, 0, 64, 79
1, 359010, Control_c, 0, 64, 38
1, 359018, Note_off_c, 0, 60, 53
1, 359026, Note_off_c, 0, 66, 62
1, 359028, Control_c, 0, 64, 11
1, 359048, Control_c, 0, 64, 24
1, 359067, Control_c, 0, 64, 64
1, 359085, Control_c, 0, 64, 127
1, 359168, Note_off_c, 0, 57, 62
1, 359192, Note_on_c, 0, 69, 80
1, 359207, Note_off_c, 0, 54, 52
1, 359236, Note_off_c, 0, 71, 61
1, 359439, Note_on_c, 0, 64, 85
1, 359442, Note_off_c, 0, 69, 59
1, 359442, Poly_aftertouch_c, 0, 69, 0
1, 359455, Note_on_c, 0, 67, 80
1, 359456, Note_on_c, 0, 52, 81
1, 359460, Control_c, 0, 64, 87
1, 359480, Control_c, 0, 64, 47
1, 359516, Control_c, 0, 64, 0
1, 359610, Control_c, 0, 64, 15
1, 359628, Control_c, 0, 64, 48
1, 359647, Control_c, 0, 64, 89
1, 359666, Control_c, 0, 64, 127
1, 359673, Note_on_c, 0, 71, 79
1, 359711, Note_off_c, 0, 52, 60
1, 359908, Note_on_c, 0, 50, 81
1, 359909, Control_c, 0, 64, 87
1, 359915, Note_on_c, 0, 72, 81
1, 359929, Control_c, 0, 64, 44
1, 359939, Note_off_c, 0, 71, 61
1, 359945, Control_c, 0, 64, 0
1, 360021, Control_c, 0, 64, 37
1, 360041, Control_c, 0, 64, 73
1, 360060, Control_c, 0, 64, 127
1, 360122, Note_off_c, 0, 50, 62
1, 360141, Note_on_c, 0, 74, 79
1, 360171, Note_off_c, 0, 72, 58
1, 360377, Control_c, 0, 64, 82
1, 360381, Note_on_c, 0, 76, 80
1, 360385, Note_on_c, 0, 49, 77
1, 360396, Control_c, 0, 64, 33
1, 360414, Control_c, 0, 64, 0
1, 360421, Note_off_c, 0, 74, 57
1, 360429, Note_off_c, 0, 67, 55
1, 360471, Control_c, 0, 64, 23
1, 360490, Control_c, 0, 64, 64
1, 360508, Control_c, 0, 64, 115
1, 360527, Control_c, 0, 64, 127
1, 360566, Note_off_c, 0, 64, 59
1, 360593, Note_on_c, 0, 67, 78
1, 360627, Note_off_c, 0, 49, 61
1, 360788, Control_c, 0, 64, 105
1, 360798, Note_off_c, 0, 76, 28
1, 360808, Control_c, 0, 64, 51
1, 360826, Control_c, 0, 64, 0
1, 360833, Note_on_c, 0, 57, 92
1, 360848, Note_on_c, 0, 65, 75
1, 360850, Note_off_c, 0, 67, 62
1, 360920, Control_c, 0, 64, 27
1, 360939, Control_c, 0, 64, 61
1, 360958, Control_c, 0, 64, 89
1, 360976, Control_c, 0, 64, 127
1, 361007, Note_off_c, 0, 57, 64
1, 361043, Note_on_c, 0, 64, 80
1, 361061, Note_off_c, 0, 65, 59
1, 361294, Control_c, 0, 64, 96
1, 361300, Note_on_c, 0, 65, 96
1, 361306, Note_off_c, 0, 64, 59
1, 361313, Control_c, 0, 64, 49
1, 361320, Note_on_c, 0, 62, 72
1, 361332, Control_c, 0, 64, 0
1, 361334, Note_on_c, 0, 50, 66
1, 361388, Control_c, 0, 64, 47
1, 361407, Control_c, 0, 64, 124
1, 361449, Note_off_c, 0, 62, 57
1, 361506, Note_off_c, 0, 50, 62
1, 361544, Note_on_c, 0, 69, 75
1, 361762, Control_c, 0, 64, 76
1, 361775, Note_on_c, 0, 38, 81
1, 361780, Control_c, 0, 64, 24
1, 361788, Note_on_c, 0, 71, 81
1, 361800, Control_c, 0, 64, 0
1, 361833, Note_off_c, 0, 69, 58
1, 361833, Poly_aftertouch_c, 0, 69, 0
1, 361856, Control_c, 0, 64, 29
1, 361863, Note_off_c, 0, 38, 63
1, 361875, Control_c, 0, 64, 78
1, 361894, Control_c, 0, 64, 127
1, 361998, Note_on_c, 0, 72, 74
1, 362045, Note_off_c, 0, 71, 57
1, 362234, Note_on_c, 0, 74, 78
1, 362238, Note_on_c, 0, 50, 81
1, 362248, Control_c, 0, 64, 89
1, 362257, Note_off_c, 0, 72, 54
1, 362270, Control_c, 0, 64, 46
1, 362286, Control_c, 0, 64, 0
1, 362302, Note_off_c, 0, 65, 57
1, 362361, Control_c, 0, 64, 17
1, 362379, Control_c, 0, 64, 45
1, 362399, Control_c, 0, 64, 85
1, 362418, Control_c, 0, 64, 127
1, 362462, Note_on_c, 0, 65, 73
1, 362680, Control_c, 0, 64, 91
1, 362698, Note_on_c, 0, 57, 83
1, 362698, Control_c, 0, 64, 47
1, 362709, Note_on_c, 0, 64, 81
1, 362715, Control_c, 0, 64, 0
1, 362727, Note_off_c, 0, 65, 61
1, 362740, Note_off_c, 0, 74, 57
1, 362773, Control_c, 0, 64, 8
1, 362792, Control_c, 0, 64, 41
1, 362811, Control_c, 0, 64, 80
1, 362829, Control_c, 0, 64, 127
1, 362840, Note_off_c, 0, 57, 63
1, 362932, Note_on_c, 0, 62, 81
1, 362954, Note_off_c, 0, 64, 57
1, 363025, Note_off_c, 0, 62, 60
1, 363148, Control_c, 0, 64, 71
1, 363165, Control_c, 0, 64, 28
1, 363182, Note_on_c, 0, 64, 91
1, 363183, Control_c, 0, 64, 0
1, 363196, Note_on_c, 0, 68, 77
1, 363253, Note_off_c, 0, 50, 59
1, 363279, Control_c, 0, 64, 12
1, 363297, Control_c, 0, 64, 41
1, 363315, Control_c, 0, 64, 78
1, 363336, Control_c, 0, 64, 127
1, 363375, Note_off_c, 0, 68, 57
1, 363435, Note_on_c, 0, 48, 67
1, 363676, Note_on_c, 0, 71, 80
1, 363677, Note_on_c, 0, 47, 73
1, 363682, Note_off_c, 0, 48, 61
1, 363690, Control_c, 0, 64, 74
1, 363709, Control_c, 0, 64, 33
1, 363747, Control_c, 0, 64, 8
1, 363764, Control_c, 0, 64, 30
1, 363784, Control_c, 0, 64, 69
1, 363802, Control_c, 0, 64, 127
1, 363859, Note_off_c, 0, 71, 60
1, 363881, Note_on_c, 0, 50, 75
1, 363884, Note_off_c, 0, 64, 61
1, 363955, Note_off_c, 0, 47, 60
1, 364115, Note_on_c, 0, 48, 71
1, 364116, Note_off_c, 0, 50, 62
1, 364117, Note_on_c, 0, 64, 84
1, 364140, Control_c, 0, 64, 89
1, 364158, Control_c, 0, 64, 69
1, 364177, Control_c, 0, 64, 56
1, 364196, Control_c, 0, 64, 51
1, 364233, Control_c, 0, 64, 49
1, 364271, Control_c, 0, 64, 47
1, 364339, Note_on_c, 0, 47, 73
1, 364353, Note_on_c, 0, 62, 80
1, 364396, Note_off_c, 0, 48, 48
1, 364578, Note_on_c, 0, 45, 76
1, 364580, Note_on_c, 0, 60, 78
1, 364605, Note_off_c, 0, 47, 58
1, 364653, Note_off_c, 0, 62, 52
1, 364806, Note_on_c, 0, 43, 69
1, 364806, Note_on_c, 0, 59, 78
1, 364826, Note_off_c, 0, 45, 59
1, 364850, Note_off_c, 0, 60, 61
1, 365054, Note_on_c, 0, 41, 74
1, 365060, Note_on_c, 0, 57, 80
1, 365076, Note_off_c, 0, 43, 56
1, 365089, Note_off_c, 0, 59, 61
1, 365281, Control_c, 0, 64, 44
1, 365296, Note_on_c, 0, 59, 77
1, 365356, Note_off_c, 0, 57, 56
1, 365357, Control_c, 0, 64, 42
1, 365394, Control_c, 0, 64, 40
1, 365488, Control_c, 0, 64, 34
1, 365525, Control_c, 0, 64, 28
1, 365537, Note_on_c, 0, 60, 75
1, 365583, Note_off_c, 0, 59, 61
1, 365656, Control_c, 0, 64, 32
1, 365674, Control_c, 0, 64, 38
1, 365694, Control_c, 0, 64, 47
1, 365711, Control_c, 0, 64, 55
1, 365731, Control_c, 0, 64, 58
1, 365752, Note_on_c, 0, 57, 79
1, 365767, Note_off_c, 0, 60, 62
1, 365786, Control_c, 0, 64, 61
1, 365806, Control_c, 0, 64, 64
1, 365825, Control_c, 0, 64, 69
1, 365843, Control_c, 0, 64, 75
1, 365862, Control_c, 0, 64, 82
1, 365881, Control_c, 0, 64, 91
1, 365899, Control_c, 0, 64, 104
1, 365917, Control_c, 0, 64, 127
1, 366011, Control_c, 0, 64, 119
1, 366030, Note_on_c, 0, 62, 83
1, 366030, Control_c, 0, 64, 87
1, 366049, Control_c, 0, 64, 64
1, 366067, Control_c, 0, 64, 42
1, 366087, Control_c, 0, 64, 27
1, 366104, Control_c, 0, 64, 22
1, 366198, Control_c, 0, 64, 42
1, 366217, Control_c, 0, 64, 66
1, 366236, Control_c, 0, 64, 87
1, 366254, Control_c, 0, 64, 127
1, 366267, Note_on_c, 0, 60, 79
1, 366308, Note_off_c, 0, 64, 59
1, 366322, Note_off_c, 0, 62, 61
1, 366498, Control_c, 0, 64, 106
1, 366512, Note_on_c, 0, 62, 80
1, 366517, Control_c, 0, 64, 70
1, 366518, Note_on_c, 0, 59, 75
1, 366521, Note_off_c, 0, 57, 59
1, 366536, Control_c, 0, 64, 45
1, 366542, Note_off_c, 0, 60, 54
1, 366555, Control_c, 0, 64, 33
1, 366593, Control_c, 0, 64, 43
1, 366610, Control_c, 0, 64, 63
1, 366630, Control_c, 0, 64, 85
1, 366648, Control_c, 0, 64, 127
1, 366745, Note_on_c, 0, 57, 80
1, 366748, Note_off_c, 0, 59, 62
1, 366785, Note_off_c, 0, 62, 62
1, 367003, Control_c, 0, 64, 72
1, 367006, Note_on_c, 0, 62, 80
1, 367010, Note_off_c, 0, 41, 61
1, 367010, Note_on_c, 0, 40, 70
1, 367018, Note_on_c, 0, 56, 70
1, 367021, Control_c, 0, 64, 33
1, 367040, Control_c, 0, 64, 0
1, 367061, Note_off_c, 0, 57, 64
1, 367134, Control_c, 0, 64, 12
1, 367154, Control_c, 0, 64, 42
1, 367172, Control_c, 0, 64, 76
1, 367191, Control_c, 0, 64, 127
1, 367238, Note_off_c, 0, 56, 61
1, 367242, Note_off_c, 0, 62, 62
1, 367472, Control_c, 0, 64, 102
1, 367481, Note_on_c, 0, 64, 80
1, 367492, Control_c, 0, 64, 67
1, 367493, Note_on_c, 0, 52, 71
1, 367504, Note_on_c, 0, 60, 69
1, 367507, Note_off_c, 0, 40, 61
1, 367510, Control_c, 0, 64, 37
1, 367527, Control_c, 0, 64, 11
1, 367603, Control_c, 0, 64, 16
1, 367621, Control_c, 0, 64, 41
1, 367639, Control_c, 0, 64, 75
1, 367659, Control_c, 0, 64, 127
1, 367725, Note_on_c, 0, 59, 77
1, 367763, Note_off_c, 0, 60, 59
1, 367813, Note_off_c, 0, 59, 62
1, 367816, Note_off_c, 0, 64, 54
1, 367977, Control_c, 0, 64, 96
1, 367995, Control_c, 0, 64, 59
1, 367999, Note_on_c, 0, 53, 67
1, 367999, Note_on_c, 0, 69, 79
1, 368007, Note_on_c, 0, 62, 74
1, 368014, Control_c, 0, 64, 22
1, 368033, Control_c, 0, 64, 0
1, 368065, Note_off_c, 0, 52, 58
1, 368126, Control_c, 0, 64, 15
1, 368146, Control_c, 0, 64, 41
1, 368164, Control_c, 0, 64, 72
1, 368183, Control_c, 0, 64, 114
1, 368201, Control_c, 0, 64, 127
1, 368264, Note_on_c, 0, 60, 79
1, 368316, Note_off_c, 0, 62, 56
1, 368511, Note_on_c, 0, 48, 62
1, 368517, Note_on_c, 0, 59, 76
1, 368518, Control_c, 0, 64, 78
1, 368537, Note_off_c, 0, 60, 58
1, 368537, Control_c, 0, 64, 30
1, 368556, Note_off_c, 0, 53, 52
1, 368556, Control_c, 0, 64, 0
1, 368632, Control_c, 0, 64, 37
1, 368650, Control_c, 0, 64, 83
1, 368670, Control_c, 0, 64, 127
1, 368728, Note_on_c, 0, 57, 82
1, 368731, Note_off_c, 0, 48, 61
1, 368739, Note_off_c, 0, 59, 62
1, 368789, Note_off_c, 0, 57, 63
1, 368965, Note_on_c, 0, 59, 56
1, 369003, Note_on_c, 0, 50, 50
1, 369004, Note_off_c, 0, 59, 65
1, 369017, Note_on_c, 0, 60, 67
1, 369102, Note_on_c, 0, 59, 79
1, 369119, Control_c, 0, 64, 97
1, 369131, Poly_aftertouch_c, 0, 52, 0
1, 369137, Control_c, 0, 64, 63
1, 369157, Control_c, 0, 64, 26
1, 369167, Note_off_c, 0, 60, 50
1, 369174, Control_c, 0, 64, 0
1, 369269, Control_c, 0, 64, 15
1, 369288, Control_c, 0, 64, 38
1, 369306, Control_c, 0, 64, 63
1, 369326, Control_c, 0, 64, 80
1, 369343, Control_c, 0, 64, 102
1, 369362, Control_c, 0, 64, 127
1, 369416, Note_on_c, 0, 68, 71
1, 369461, Note_off_c, 0, 50, 61
1, 369482, Note_off_c, 0, 69, 58
1, 369482, Poly_aftertouch_c, 0, 69, 0
1, 369656, Note_on_c, 0, 47, 64
1, 369660, Control_c, 0, 64, 104
1, 369671, Note_on_c, 0, 69, 72
1, 369679, Control_c, 0, 64, 59
1, 369709, Note_off_c, 0, 59, 54
1, 369717, Control_c, 0, 64, 0
1, 369718, Note_off_c, 0, 68, 59
1, 369774, Control_c, 0, 64, 21
1, 369792, Control_c, 0, 64, 61
1, 369811, Control_c, 0, 64, 108
1, 369830, Control_c, 0, 64, 127
1, 369893, Note_on_c, 0, 66, 75
1, 369914, Note_off_c, 0, 69, 59
1, 369914, Poly_aftertouch_c, 0, 69, 0
1, 370140, Note_off_c, 0, 47, 59
1, 370146, Note_on_c, 0, 68, 71
1, 370147, Control_c, 0, 64, 84
1, 370151, Note_on_c, 0, 52, 58
1, 370168, Control_c, 0, 64, 51
1, 370182, Note_off_c, 0, 66, 55
1, 370184, Control_c, 0, 64, 25
1, 370204, Control_c, 0, 64, 20
1, 370410, Note_on_c, 0, 71, 59
1, 370447, Note_off_c, 0, 68, 54
1, 370617, Control_c, 0, 64, 15
1, 370618, Control_c, 0, 67, 9
1, 370653, Control_c, 0, 67, 14
1, 370688, Note_on_c, 0, 40, 44
1, 370690, Control_c, 0, 67, 22
1, 370697, Note_on_c, 0, 64, 60
1, 370710, Control_c, 0, 67, 27
1, 370728, Control_c, 0, 67, 33
1, 370747, Control_c, 0, 64, 11
1, 370748, Control_c, 0, 67, 39
1, 370766, Control_c, 0, 64, 24
1, 370768, Note_off_c, 0, 71, 49
1, 370768, Control_c, 0, 67, 44
1, 370784, Control_c, 0, 64, 45
1, 370785, Control_c, 0, 67, 50
1, 370803, Control_c, 0, 64, 69
1, 370804, Control_c, 0, 67, 54
1, 370822, Control_c, 0, 64, 87
1, 370824, Control_c, 0, 67, 58
1, 370841, Control_c, 0, 64, 127
1, 370842, Control_c, 0, 67, 63
1, 370859, Control_c, 0, 67, 68
1, 370878, Control_c, 0, 67, 75
1, 370897, Control_c, 0, 67, 83
1, 370905, Note_off_c, 0, 52, 52
1, 370913, Note_off_c, 0, 40, 59
1, 370914, Control_c, 0, 67, 90
1, 370936, Control_c, 0, 67, 94
1, 370961, Note_on_c, 0, 62, 62
1, 370973, Control_c, 0, 67, 98
1, 371010, Control_c, 0, 67, 102
1, 371013, Note_off_c, 0, 64, 56
1, 371047, Control_c, 0, 67, 106
1, 371327, Control_c, 0, 64, 87
1, 371337, Note_on_c, 0, 60, 52
1, 371339, Note_off_c, 0, 62, 58
1, 371346, Note_on_c, 0, 45, 48
1, 371347, Control_c, 0, 64, 59
1, 371360, Note_on_c, 0, 57, 45
1, 371365, Control_c, 0, 64, 32
1, 371384, Control_c, 0, 64, 14
1, 371440, Control_c, 0, 64, 10
1, 371534, Control_c, 0, 67, 114
1, 371552, Control_c, 0, 67, 119
1, 371571, Control_c, 0, 67, 126
1, 371624, Note_on_c, 0, 52, 53
1, 371627, Control_c, 0, 64, 14
1, 371646, Control_c, 0, 64, 25
1, 371661, Note_off_c, 0, 57, 35
1, 371664, Control_c, 0, 64, 42
1, 371683, Control_c, 0, 64, 64
1, 371702, Control_c, 0, 64, 79
1, 371720, Control_c, 0, 64, 97
1, 371738, Control_c, 0, 64, 127
1, 371851, Control_c, 0, 64, 101
1, 371863, Note_off_c, 0, 45, 58
1, 371864, Note_off_c, 0, 52, 59
1, 371871, Control_c, 0, 64, 71
1, 371880, Note_off_c, 0, 60, 58
1, 371883, Note_on_c, 0, 64, 53
1, 371887, Control_c, 0, 64, 50
1, 371891, Note_on_c, 0, 57, 47
1, 371908, Control_c, 0, 64, 41
1, 371945, Control_c, 0, 64, 50
1, 371964, Control_c, 0, 64, 62
1, 371983, Control_c, 0, 64, 72
1, 372001, Control_c, 0, 64, 81
1, 372021, Control_c, 0, 64, 90
1, 372039, Control_c, 0, 64, 97
1, 372057, Control_c, 0, 64, 108
1, 372075, Control_c, 0, 64, 127
1, 372101, Note_off_c, 0, 57, 62
1, 372113, Note_on_c, 0, 59, 51
1, 372355, Note_off_c, 0, 59, 61
1, 372356, Control_c, 0, 64, 118
1, 372370, Note_on_c, 0, 69, 61
1, 372376, Control_c, 0, 64, 75
1, 372385, Note_on_c, 0, 60, 47
1, 372393, Control_c, 0, 64, 46
1, 372413, Control_c, 0, 64, 23
1, 372432, Control_c, 0, 64, 19
1, 372437, Note_off_c, 0, 64, 55
1, 372487, Control_c, 0, 64, 32
1, 372507, Control_c, 0, 64, 53
1, 372525, Control_c, 0, 64, 75
1, 372544, Control_c, 0, 64, 98
1, 372563, Control_c, 0, 64, 127
1, 372598, Note_on_c, 0, 57, 56
1, 372638, Note_off_c, 0, 60, 50
1, 372680, Note_off_c, 0, 69, 49
1, 372680, Poly_aftertouch_c, 0, 69, 0
1, 372826, Control_c, 0, 64, 82
1, 372839, Note_on_c, 0, 69, 74
1, 372846, Control_c, 0, 64, 53
1, 372858, Note_on_c, 0, 60, 60
1, 372864, Control_c, 0, 64, 29
1, 372881, Control_c, 0, 64, 23
1, 372889, Note_off_c, 0, 57, 63
1, 372937, Control_c, 0, 64, 30
1, 372956, Control_c, 0, 64, 47
1, 372975, Control_c, 0, 64, 68
1, 372993, Control_c, 0, 64, 87
1, 373011, Control_c, 0, 64, 127
1, 373054, Note_on_c, 0, 62, 76
1, 373080, Note_off_c, 0, 60, 56
1, 373130, Note_off_c, 0, 69, 47
1, 373130, Poly_aftertouch_c, 0, 69, 0
1, 373325, Note_on_c, 0, 69, 65
1, 373328, Note_off_c, 0, 62, 61
1, 373329, Control_c, 0, 64, 103
1, 373332, Note_on_c, 0, 64, 64
1, 373350, Control_c, 0, 64, 65
1, 373368, Control_c, 0, 64, 33
1, 373387, Control_c, 0, 64, 15
1, 373499, Control_c, 0, 64, 26
1, 373518, Control_c, 0, 64, 39
1, 373536, Control_c, 0, 64, 60
1, 373555, Control_c, 0, 64, 76
1, 373571, Note_on_c, 0, 40, 49
1, 373574, Control_c, 0, 64, 89
1, 373591, Control_c, 0, 64, 106
1, 373610, Control_c, 0, 64, 127
1, 373794, Note_off_c, 0, 40, 57
1, 373817, Note_on_c, 0, 67, 64
1, 373834, Control_c, 0, 64, 79
1, 373836, Note_on_c, 0, 52, 45
1, 373854, Control_c, 0, 64, 50
1, 373873, Control_c, 0, 64, 29
1, 373948, Control_c, 0, 64, 41
1, 373967, Control_c, 0, 64, 59
1, 373986, Control_c, 0, 64, 76
1, 374004, Control_c, 0, 64, 95
1, 374023, Control_c, 0, 64, 127
1, 374043, Note_on_c, 0, 65, 68
1, 374055, Note_off_c, 0, 52, 53
1, 374070, Note_on_c, 0, 50, 45
1, 374089, Note_off_c, 0, 67, 59
1, 374094, Note_off_c, 0, 69, 56
1, 374094, Poly_aftertouch_c, 0, 69, 0
1, 374284, Control_c, 0, 64, 102
1, 374287, Note_on_c, 0, 69, 65
1, 374304, Control_c, 0, 64, 67
1, 374305, Note_off_c, 0, 65, 59
1, 374323, Control_c, 0, 64, 40
1, 374326, Note_off_c, 0, 50, 49
1, 374332, Note_on_c, 0, 49, 48
1, 374340, Control_c, 0, 64, 27
1, 374397, Control_c, 0, 64, 39
1, 374416, Control_c, 0, 64, 63
1, 374428, Note_off_c, 0, 49, 55
1, 374434, Control_c, 0, 64, 91
1, 374453, Control_c, 0, 64, 127
1, 374483, Note_on_c, 0, 52, 48
1, 374523, Note_on_c, 0, 67, 71
1, 374593, Note_off_c, 0, 69, 48
1, 374593, Poly_aftertouch_c, 0, 69, 0
1, 374734, Control_c, 0, 64, 118
1, 374748, Note_on_c, 0, 65, 69
1, 374753, Control_c, 0, 64, 79
1, 374772, Control_c, 0, 64, 62
1, 374784, Note_off_c, 0, 67, 58
1, 374790, Control_c, 0, 64, 61
1, 374791, Note_off_c, 0, 64, 61
1, 374806, Note_off_c, 0, 52, 58
1, 374807, Control_c, 0, 64, 67
1, 374827, Control_c, 0, 64, 77
1, 374841, Note_on_c, 0, 49, 19
1, 374845, Control_c, 0, 64, 101
1, 374864, Control_c, 0, 64, 127
1, 374913, Note_off_c, 0, 49, 27
1, 374963, Note_on_c, 0, 64, 70
1, 374972, Note_off_c, 0, 65, 61
1, 374972, Note_on_c, 0, 45, 63
1, 375010, Note_off_c, 0, 45, 63
1, 375220, Control_c, 0, 64, 82
1, 375235, Note_on_c, 0, 65, 75
1, 375240, Control_c, 0, 64, 51
1, 375242, Note_on_c, 0, 50, 58
1, 375259, Control_c, 0, 64, 22
1, 375268, Note_off_c, 0, 64, 56
1, 375275, Control_c, 0, 64, 15
1, 375333, Control_c, 0, 64, 21
1, 375351, Control_c, 0, 64, 36
1, 375372, Control_c, 0, 64, 60
1, 375389, Control_c, 0, 64, 81
1, 375408, Control_c, 0, 64, 106
1, 375427, Control_c, 0, 64, 127
1, 375443, Note_on_c, 0, 57, 66
1, 375688, Note_on_c, 0, 69, 82
1, 375691, Note_off_c, 0, 57, 63
1, 375704, Note_on_c, 0, 62, 71
1, 375707, Note_off_c, 0, 50, 60
1, 375708, Control_c, 0, 64, 106
1, 375727, Control_c, 0, 64, 68
1, 375729, Note_off_c, 0, 65, 61
1, 375745, Control_c, 0, 64, 40
1, 375763, Control_c, 0, 64, 27
1, 375819, Control_c, 0, 64, 45
1, 375839, Control_c, 0, 64, 67
1, 375858, Control_c, 0, 64, 88
1, 375875, Control_c, 0, 64, 127
1, 375917, Note_on_c, 0, 64, 72
1, 375924, Note_off_c, 0, 62, 59
1, 375969, Control_c, 0, 67, 122
1, 376006, Control_c, 0, 67, 117
1, 376163, Note_off_c, 0, 64, 61
1, 376172, Note_on_c, 0, 74, 81
1, 376175, Note_on_c, 0, 65, 74
1, 376176, Control_c, 0, 64, 105
1, 376177, Control_c, 0, 67, 112
1, 376190, Note_off_c, 0, 69, 57
1, 376190, Poly_aftertouch_c, 0, 69, 0
1, 376195, Control_c, 0, 64, 66
1, 376213, Control_c, 0, 64, 36
1, 376231, Control_c, 0, 64, 26
1, 376269, Control_c, 0, 64, 36
1, 376287, Control_c, 0, 64, 61
1, 376306, Control_c, 0, 64, 87
1, 376326, Control_c, 0, 64, 127
1, 376328, Control_c, 0, 67, 105
1, 376344, Control_c, 0, 67, 99
1, 376362, Control_c, 0, 67, 92
1, 376381, Control_c, 0, 67, 86
1, 376385, Note_on_c, 0, 62, 76
1, 376391, Note_off_c, 0, 65, 58
1, 376400, Control_c, 0, 67, 80
1, 376418, Control_c, 0, 67, 76
1, 376457, Control_c, 0, 67, 70
1, 376465, Note_off_c, 0, 74, 58
1, 376494, Control_c, 0, 67, 65
1, 376587, Control_c, 0, 67, 61
1, 376625, Control_c, 0, 64, 100
1, 376626, Control_c, 0, 67, 55
1, 376639, Note_on_c, 0, 74, 83
1, 376643, Control_c, 0, 64, 62
1, 376646, Note_on_c, 0, 65, 78
1, 376648, Note_off_c, 0, 62, 62
1, 376662, Control_c, 0, 64, 25
1, 376663, Control_c, 0, 67, 48
1, 376699, Control_c, 0, 67, 41
1, 376737, Control_c, 0, 64, 17
1, 376738, Control_c, 0, 67, 33
1, 376756, Control_c, 0, 64, 42
1, 376757, Control_c, 0, 67, 25
1, 376774, Control_c, 0, 64, 78
1, 376775, Control_c, 0, 67, 10
1, 376793, Control_c, 0, 64, 127
1, 376794, Control_c, 0, 67, 0
1, 376863, Note_on_c, 0, 67, 76
1, 376883, Note_off_c, 0, 65, 54
1, 376941, Note_off_c, 0, 74, 59
1, 377114, Note_on_c, 0, 74, 76
1, 377120, Note_on_c, 0, 69, 70
1, 377122, Note_off_c, 0, 67, 61
1, 377130, Control_c, 0, 64, 104
1, 377150, Control_c, 0, 64, 62
1, 377167, Control_c, 0, 64, 23
1, 377243, Control_c, 0, 64, 8
1, 377261, Control_c, 0, 64, 20
1, 377280, Control_c, 0, 64, 40
1, 377298, Control_c, 0, 64, 67
1, 377318, Control_c, 0, 64, 94
1, 377336, Control_c, 0, 64, 127
1, 377360, Note_on_c, 0, 45, 55
1, 377588, Note_on_c, 0, 72, 71
1, 377593, Note_off_c, 0, 45, 59
1, 377616, Control_c, 0, 64, 97
1, 377619, Note_on_c, 0, 57, 55
1, 377636, Control_c, 0, 64, 61
1, 377654, Control_c, 0, 64, 31
1, 377673, Control_c, 0, 64, 19
1, 377711, Control_c, 0, 64, 24
1, 377729, Control_c, 0, 64, 42
1, 377748, Control_c, 0, 64, 72
1, 377766, Control_c, 0, 64, 117
1, 377786, Control_c, 0, 64, 127
1, 377818, Note_on_c, 0, 71, 79
1, 377829, Note_on_c, 0, 55, 57
1, 377877, Note_off_c, 0, 57, 35
1, 377878, Note_off_c, 0, 72, 58
1, 377879, Note_off_c, 0, 74, 59
1, 378066, Control_c, 0, 64, 72
1, 378075, Note_on_c, 0, 74, 70
1, 378081, Note_on_c, 0, 54, 56
1, 378084, Control_c, 0, 64, 41
1, 378087, Note_off_c, 0, 71, 61
1, 378091, Note_off_c, 0, 55, 54
1, 378104, Control_c, 0, 64, 25
1, 378160, Control_c, 0, 64, 46
1, 378178, Control_c, 0, 64, 76
1, 378197, Control_c, 0, 64, 127
1, 378245, Note_off_c, 0, 54, 59
1, 378280, Note_on_c, 0, 57, 55
1, 378311, Note_on_c, 0, 72, 73
1, 378365, Control_c, 0, 64, 106
1, 378384, Control_c, 0, 64, 127
1, 378520, Note_on_c, 0, 50, 54
1, 378535, Control_c, 0, 64, 73
1, 378543, Note_on_c, 0, 71, 70
1, 378552, Control_c, 0, 64, 47
1, 378557, Note_off_c, 0, 57, 48
1, 378565, Note_off_c, 0, 69, 49
1, 378565, Poly_aftertouch_c, 0, 69, 0
1, 378570, Control_c, 0, 64, 43
1, 378590, Control_c, 0, 64, 61
1, 378609, Control_c, 0, 64, 99
1, 378624, Poly_aftertouch_c, 0, 74, 20
1, 378626, Control_c, 0, 64, 127
1, 378628, Note_off_c, 0, 74, 19
1, 378628, Poly_aftertouch_c, 0, 74, 0
1, 378707, Note_off_c, 0, 72, 29
1, 378740, Note_on_c, 0, 54, 62
1, 378753, Note_on_c, 0, 69, 73
1, 378763, Note_off_c, 0, 71, 63
1, 378802, Note_off_c, 0, 50, 46
1, 378803, Note_off_c, 0, 54, 60
1, 378984, Control_c, 0, 64, 87
1, 378995, Note_on_c, 0, 71, 72
1, 378997, Note_on_c, 0, 43, 55
1, 379003, Control_c, 0, 64, 51
1, 379020, Control_c, 0, 64, 14
1, 379052, Note_off_c, 0, 69, 58
1, 379052, Poly_aftertouch_c, 0, 69, 0
1, 379151, Control_c, 0, 64, 21
1, 379171, Control_c, 0, 64, 47
1, 379189, Control_c, 0, 64, 73
1, 379208, Control_c, 0, 64, 98
1, 379216, Note_on_c, 0, 50, 62
1, 379225, Control_c, 0, 64, 127
1, 379459, Note_on_c, 0, 62, 78
1, 379469, Note_off_c, 0, 50, 62
1, 379476, Note_on_c, 0, 55, 69
1, 379488, Control_c, 0, 64, 75
1, 379494, Note_off_c, 0, 43, 61
1, 379507, Control_c, 0, 64, 47
1, 379526, Control_c, 0, 64, 29
1, 379582, Control_c, 0, 64, 35
1, 379601, Control_c, 0, 64, 52
1, 379620, Control_c, 0, 64, 72
1, 379639, Control_c, 0, 64, 94
1, 379657, Control_c, 0, 64, 127
1, 379692, Note_on_c, 0, 57, 69
1, 379723, Note_off_c, 0, 55, 53
1, 379926, Note_on_c, 0, 67, 79
1, 379934, Note_off_c, 0, 57, 63
1, 379937, Note_on_c, 0, 59, 67
1, 379937, Control_c, 0, 64, 95
1, 379956, Control_c, 0, 64, 57
1, 379975, Control_c, 0, 64, 19
1, 380022, Note_off_c, 0, 71, 54
1, 380050, Control_c, 0, 64, 52
1, 380069, Control_c, 0, 64, 92
1, 380087, Control_c, 0, 64, 127
1, 380158, Note_on_c, 0, 55, 77
1, 380173, Note_off_c, 0, 67, 60
1, 380177, Note_off_c, 0, 59, 58
1, 380187, Note_off_c, 0, 62, 60
1, 380387, Note_on_c, 0, 67, 81
1, 380387, Control_c, 0, 64, 78
1, 380403, Note_on_c, 0, 59, 71
1, 380405, Control_c, 0, 64, 41
1, 380443, Control_c, 0, 64, 0
1, 380456, Note_off_c, 0, 55, 62
1, 380500, Control_c, 0, 64, 10
1, 380519, Control_c, 0, 64, 33
1, 380536, Control_c, 0, 64, 66
1, 380555, Control_c, 0, 64, 108
1, 380574, Control_c, 0, 64, 127
1, 380610, Note_on_c, 0, 60, 77
1, 380720, Note_off_c, 0, 67, 59
1, 380728, Note_off_c, 0, 59, 46
1, 380860, Note_off_c, 0, 60, 60
1, 380865, Note_on_c, 0, 67, 71
1, 380866, Note_on_c, 0, 62, 66
1, 380874, Control_c, 0, 64, 92
1, 380894, Control_c, 0, 64, 55
1, 380911, Control_c, 0, 64, 17
1, 380930, Control_c, 0, 64, 0
1, 381024, Control_c, 0, 64, 18
1, 381042, Control_c, 0, 64, 44
1, 381061, Control_c, 0, 64, 72
1, 381080, Control_c, 0, 64, 103
1, 381098, Control_c, 0, 64, 127
1, 381114, Note_on_c, 0, 38, 50
1, 381334, Note_off_c, 0, 38, 59
1, 381344, Note_on_c, 0, 65, 58
1, 381359, Control_c, 0, 64, 82
1, 381366, Note_on_c, 0, 50, 47
1, 381379, Control_c, 0, 64, 48
1, 381398, Control_c, 0, 64, 21
1, 381454, Control_c, 0, 64, 46
1, 381474, Control_c, 0, 64, 77
1, 381490, Control_c, 0, 64, 127
1, 381573, Note_on_c, 0, 64, 69
1, 381593, Note_on_c, 0, 48, 46
1, 381606, Note_off_c, 0, 65, 60
1, 381623, Note_off_c, 0, 67, 48
1, 381639, Note_off_c, 0, 50, 35
1, 381810, Control_c, 0, 64, 81
1, 381825, Note_off_c, 0, 64, 59
1, 381828, Note_on_c, 0, 67, 53
1, 381828, Control_c, 0, 64, 45
1, 381830, Note_off_c, 0, 48, 53
1, 381841, Note_on_c, 0, 47, 44
1, 381847, Control_c, 0, 64, 10
1, 381940, Control_c, 0, 64, 31
1, 381960, Control_c, 0, 64, 59
1, 381977, Control_c, 0, 64, 84
1, 381996, Control_c, 0, 64, 127
1, 382011, Note_off_c, 0, 47, 60
1, 382044, Note_on_c, 0, 65, 60
1, 382045, Note_on_c, 0, 50, 47
1, 382259, Control_c, 0, 64, 99
1, 382272, Note_on_c, 0, 64, 64
1, 382277, Note_on_c, 0, 43, 39
1, 382278, Control_c, 0, 64, 62
1, 382282, Note_off_c, 0, 50, 41
1, 382295, Note_off_c, 0, 62, 51
1, 382295, Control_c, 0, 64, 31
1, 382314, Control_c, 0, 64, 21
1, 382346, Note_off_c, 0, 65, 48
1, 382351, Poly_aftertouch_c, 0, 67, 20
1, 382352, Control_c, 0, 64, 38
1, 382362, Note_off_c, 0, 67, 19
1, 382362, Poly_aftertouch_c, 0, 67, 0
1, 382371, Control_c, 0, 64, 66
1, 382390, Control_c, 0, 64, 100
1, 382408, Control_c, 0, 64, 127
1, 382480, Note_on_c, 0, 62, 65
1, 382489, Note_on_c, 0, 47, 57
1, 382506, Note_off_c, 0, 43, 51
1, 382512, Note_off_c, 0, 64, 61
1, 382547, Note_off_c, 0, 47, 63
1, 382738, Note_on_c, 0, 64, 73
1, 382741, Note_on_c, 0, 48, 57
1, 382745, Control_c, 0, 64, 74
1, 382764, Control_c, 0, 64, 37
1, 382802, Note_off_c, 0, 62, 54
1, 382878, Control_c, 0, 64, 12
1, 382895, Control_c, 0, 64, 29
1, 382914, Control_c, 0, 64, 54
1, 382933, Control_c, 0, 64, 76
1, 382947, Note_on_c, 0, 55, 65
1, 382952, Control_c, 0, 64, 102
1, 382971, Control_c, 0, 64, 127
1, 383207, Note_on_c, 0, 67, 78
1, 383213, Note_off_c, 0, 55, 63
1, 383213, Control_c, 0, 64, 116
1, 383229, Note_on_c, 0, 60, 61
1, 383231, Control_c, 0, 64, 69
1, 383251, Control_c, 0, 64, 37
1, 383258, Note_off_c, 0, 64, 60
1, 383262, Note_off_c, 0, 48, 62
1, 383270, Control_c, 0, 64, 21
1, 383307, Control_c, 0, 64, 33
1, 383325, Control_c, 0, 64, 60
1, 383345, Control_c, 0, 64, 90
1, 383363, Control_c, 0, 64, 127
1, 383451, Note_on_c, 0, 62, 62
1, 383460, Note_off_c, 0, 60, 60
1, 383678, Note_off_c, 0, 62, 61
1, 383682, Note_on_c, 0, 72, 73
1, 383683, Control_c, 0, 64, 110
1, 383684, Note_on_c, 0, 64, 63
1, 383701, Control_c, 0, 64, 68
1, 383716, Note_off_c, 0, 67, 62
1, 383716, Poly_aftertouch_c, 0, 67, 0
1, 383718, Control_c, 0, 64, 40
1, 383738, Control_c, 0, 64, 29
1, 383775, Control_c, 0, 64, 45
1, 383794, Control_c, 0, 64, 72
1, 383815, Control_c, 0, 64, 127
1, 383899, Note_on_c, 0, 60, 67
1, 383907, Note_off_c, 0, 64, 57
1, 383962, Note_off_c, 0, 72, 57
1, 384141, Note_on_c, 0, 72, 76
1, 384145, Note_on_c, 0, 64, 67
1, 384148, Control_c, 0, 64, 74
1, 384168, Control_c, 0, 64, 41
1, 384187, Control_c, 0, 64, 23
1, 384195, Note_off_c, 0, 60, 60
1, 384224, Control_c, 0, 64, 34
1, 384242, Control_c, 0, 64, 60
1, 384262, Control_c, 0, 64, 93
1, 384280, Control_c, 0, 64, 127
1, 384359, Note_on_c, 0, 65, 73
1, 384379, Note_off_c, 0, 64, 60
1, 384441, Note_off_c, 0, 72, 58
1, 384607, Note_on_c, 0, 72, 71
1, 384612, Note_off_c, 0, 65, 62
1, 384618, Note_on_c, 0, 67, 69
1, 384618, Control_c, 0, 64, 79
1, 384636, Control_c, 0, 64, 46
1, 384654, Control_c, 0, 64, 23
1, 384712, Control_c, 0, 64, 37
1, 384730, Control_c, 0, 64, 61
1, 384749, Control_c, 0, 64, 85
1, 384768, Control_c, 0, 64, 127
1, 384843, Note_on_c, 0, 43, 49
1, 385056, Note_off_c, 0, 43, 58
1, 385079, Note_on_c, 0, 70, 73
1, 385085, Note_on_c, 0, 55, 54
1, 385085, Control_c, 0, 64, 89
1, 385104, Control_c, 0, 64, 59
1, 385123, Control_c, 0, 64, 39
1, 385160, Control_c, 0, 64, 41
1, 385178, Control_c, 0, 64, 61
1, 385199, Control_c, 0, 64, 89
1, 385216, Control_c, 0, 64, 127
1, 385311, Note_on_c, 0, 53, 63
1, 385325, Note_on_c, 0, 69, 73
1, 385326, Note_off_c, 0, 55, 49
1, 385366, Note_off_c, 0, 70, 62
1, 385371, Note_off_c, 0, 72, 55
1, 385557, Note_on_c, 0, 72, 67
1, 385571, Note_off_c, 0, 69, 56
1, 385571, Poly_aftertouch_c, 0, 69, 0
1, 385572, Control_c, 0, 64, 75
1, 385576, Note_on_c, 0, 52, 52
1, 385577, Note_off_c, 0, 53, 55
1, 385591, Control_c, 0, 64, 48
1, 385609, Control_c, 0, 64, 41
1, 385628, Control_c, 0, 64, 47
1, 385646, Control_c, 0, 64, 62
1, 385666, Control_c, 0, 64, 84
1, 385684, Control_c, 0, 64, 127
1, 385756, Note_on_c, 0, 70, 74
1, 385762, Note_off_c, 0, 52, 57
1, 385800, Note_on_c, 0, 55, 49
1, 386008, Note_on_c, 0, 69, 70
1, 386013, Note_on_c, 0, 48, 55
1, 386023, Note_off_c, 0, 55, 49
1, 386054, Note_off_c, 0, 67, 59
1, 386054, Poly_aftertouch_c, 0, 67, 0
1, 386054, Poly_aftertouch_c, 0, 72, 20
1, 386058, Control_c, 0, 64, 85
1, 386067, Note_off_c, 0, 72, 18
1, 386067, Poly_aftertouch_c, 0, 72, 0
1, 386078, Control_c, 0, 64, 57
1, 386081, Note_off_c, 0, 70, 51
1, 386096, Control_c, 0, 64, 47
1, 386114, Control_c, 0, 64, 53
1, 386134, Control_c, 0, 64, 66
1, 386152, Control_c, 0, 64, 91
1, 386171, Control_c, 0, 64, 127
1, 386218, Note_on_c, 0, 67, 72
1, 386231, Note_on_c, 0, 52, 58
1, 386250, Note_off_c, 0, 69, 58
1, 386250, Poly_aftertouch_c, 0, 69, 0
1, 386270, Note_off_c, 0, 48, 59
1, 386281, Note_off_c, 0, 52, 60
1, 386471, Control_c, 0, 64, 108
1, 386475, Note_on_c, 0, 53, 70
1, 386480, Note_on_c, 0, 69, 85
1, 386490, Control_c, 0, 64, 66
1, 386507, Control_c, 0, 64, 30
1, 386539, Note_off_c, 0, 67, 58
1, 386539, Poly_aftertouch_c, 0, 67, 0
1, 386639, Control_c, 0, 64, 8
1, 386657, Control_c, 0, 64, 15
1, 386676, Control_c, 0, 64, 28
1, 386696, Note_on_c, 0, 60, 74
1, 386696, Control_c, 0, 64, 55
1, 386713, Control_c, 0, 64, 83
1, 386733, Control_c, 0, 64, 127
1, 386928, Note_on_c, 0, 62, 80
1, 386933, Note_on_c, 0, 71, 83
1, 386939, Control_c, 0, 64, 109
1, 386945, Note_off_c, 0, 60, 61
1, 386957, Control_c, 0, 64, 67
1, 386976, Control_c, 0, 64, 35
1, 386994, Control_c, 0, 64, 17
1, 387032, Control_c, 0, 64, 21
1, 387051, Control_c, 0, 64, 41
1, 387069, Control_c, 0, 64, 70
1, 387089, Control_c, 0, 64, 107
1, 387107, Control_c, 0, 64, 127
1, 387154, Note_on_c, 0, 64, 80
1, 387162, Note_off_c, 0, 62, 63
1, 387384, Note_on_c, 0, 72, 77
1, 387388, Control_c, 0, 64, 87
1, 387392, Note_on_c, 0, 57, 74
1, 387407, Control_c, 0, 64, 52
1, 387411, Note_off_c, 0, 64, 57
1, 387425, Control_c, 0, 64, 16
1, 387427, Note_off_c, 0, 71, 60
1, 387427, Note_off_c, 0, 69, 58
1, 387427, Poly_aftertouch_c, 0, 69, 0
1, 387500, Control_c, 0, 64, 36
1, 387519, Control_c, 0, 64, 72
1, 387537, Control_c, 0, 64, 127
1, 387606, Note_on_c, 0, 69, 80
1, 387722, Note_off_c, 0, 72, 56
1, 387722, Poly_aftertouch_c, 0, 72, 0
1, 387727, Note_off_c, 0, 69, 58
1, 387727, Poly_aftertouch_c, 0, 69, 0
1, 387837, Control_c, 0, 64, 107
1, 387848, Note_on_c, 0, 62, 76
1, 387848, Note_on_c, 0, 69, 87
1, 387850, Note_on_c, 0, 67, 82
1, 387856, Control_c, 0, 64, 62
1, 387866, Note_off_c, 0, 57, 64
1, 387875, Control_c, 0, 64, 21
1, 387931, Control_c, 0, 64, 25
1, 387950, Control_c, 0, 64, 61
1, 387968, Control_c, 0, 64, 116
1, 387987, Control_c, 0, 64, 127
1, 388036, Note_off_c, 0, 69, 59
1, 388036, Poly_aftertouch_c, 0, 69, 0
1, 388061, Note_on_c, 0, 65, 80
1, 388063, Note_off_c, 0, 67, 62
1, 388063, Poly_aftertouch_c, 0, 67, 0
1, 388094, Note_off_c, 0, 53, 59
1, 388180, Note_off_c, 0, 65, 57
1, 388305, Control_c, 0, 64, 111
1, 388318, Note_on_c, 0, 76, 90
1, 388319, Note_on_c, 0, 52, 75
1, 388324, Control_c, 0, 64, 68
1, 388330, Note_on_c, 0, 67, 83
1, 388334, Note_off_c, 0, 62, 54
1, 388342, Control_c, 0, 64, 33
1, 388362, Control_c, 0, 64, 9
1, 388554, Note_on_c, 0, 62, 76
1, 388624, Control_c, 0, 64, 0
1, 388798, Note_on_c, 0, 61, 78
1, 388830, Control_c, 0, 64, 12
1, 388847, Control_c, 0, 64, 25
1, 388866, Control_c, 0, 64, 47
1, 388885, Note_off_c, 0, 62, 50
1, 388885, Control_c, 0, 64, 69
1, 388904, Control_c, 0, 64, 83
1, 388922, Control_c, 0, 64, 98
1, 388942, Control_c, 0, 64, 103
1, 388979, Control_c, 0, 64, 127
1, 389022, Note_on_c, 0, 59, 79
1, 389074, Note_off_c, 0, 61, 58
1, 389259, Control_c, 0, 64, 111
1, 389262, Note_off_c, 0, 59, 61
1, 389263, Note_on_c, 0, 61, 82
1, 389279, Control_c, 0, 64, 71
1, 389297, Control_c, 0, 64, 40
1, 389316, Control_c, 0, 64, 20
1, 389353, Control_c, 0, 64, 37
1, 389372, Control_c, 0, 64, 65
1, 389391, Control_c, 0, 64, 103
1, 389409, Control_c, 0, 64, 127
1, 389450, Note_off_c, 0, 52, 39
1, 389475, Note_on_c, 0, 65, 81
1, 389476, Note_on_c, 0, 57, 74
1, 389495, Note_off_c, 0, 76, 53
1, 389523, Note_off_c, 0, 67, 59
1, 389523, Poly_aftertouch_c, 0, 67, 0
1, 389559, Note_off_c, 0, 65, 60
1, 389708, Control_c, 0, 64, 94
1, 389720, Note_on_c, 0, 69, 94
1, 389727, Control_c, 0, 64, 52
1, 389732, Note_on_c, 0, 64, 74
1, 389734, Note_on_c, 0, 55, 72
1, 389746, Control_c, 0, 64, 0
1, 389757, Note_off_c, 0, 57, 59
1, 389858, Control_c, 0, 64, 23
1, 389877, Control_c, 0, 64, 54
1, 389896, Control_c, 0, 64, 82
1, 389914, Control_c, 0, 64, 127
1, 389941, Note_on_c, 0, 57, 75
1, 389941, Note_on_c, 0, 67, 86
1, 389956, Note_off_c, 0, 55, 60
1, 389969, Note_off_c, 0, 69, 58
1, 389969, Poly_aftertouch_c, 0, 69, 0
1, 389976, Note_off_c, 0, 64, 57
1, 390016, Note_off_c, 0, 67, 63
1, 390016, Poly_aftertouch_c, 0, 67, 0
1, 390065, Note_off_c, 0, 57, 62
1, 390083, Note_off_c, 0, 61, 60
1, 390186, Note_on_c, 0, 77, 94
1, 390189, Note_on_c, 0, 50, 75
1, 390193, Note_on_c, 0, 65, 88
1, 390214, Control_c, 0, 64, 86
1, 390234, Control_c, 0, 64, 54
1, 390251, Control_c, 0, 64, 24
1, 390270, Control_c, 0, 64, 11
1, 390382, Control_c, 0, 64, 0
1, 390416, Note_on_c, 0, 57, 69
1, 390647, Note_off_c, 0, 57, 63
1, 390653, Note_on_c, 0, 59, 78
1, 390701, Control_c, 0, 64, 11
1, 390720, Control_c, 0, 64, 26
1, 390738, Control_c, 0, 64, 48
1, 390758, Control_c, 0, 64, 67
1, 390776, Control_c, 0, 64, 78
1, 390795, Control_c, 0, 64, 87
1, 390813, Control_c, 0, 64, 96
1, 390832, Control_c, 0, 64, 114
1, 390849, Control_c, 0, 64, 127
1, 390858, Note_on_c, 0, 61, 79
1, 390907, Control_c, 0, 64, 94
1, 390908, Note_off_c, 0, 59, 60
1, 390926, Control_c, 0, 64, 64
1, 390944, Control_c, 0, 64, 38
1, 390963, Control_c, 0, 64, 31
1, 390981, Control_c, 0, 64, 38
1, 391000, Control_c, 0, 64, 59
1, 391021, Control_c, 0, 64, 90
1, 391038, Control_c, 0, 64, 127
1, 391101, Note_off_c, 0, 61, 59
1, 391103, Note_on_c, 0, 62, 86
1, 391185, Note_off_c, 0, 77, 61
1, 391335, Note_on_c, 0, 64, 76
1, 391409, Note_off_c, 0, 65, 60
1, 391563, Control_c, 0, 64, 93
1, 391572, Note_on_c, 0, 69, 84
1, 391578, Note_on_c, 0, 65, 76
1, 391580, Note_on_c, 0, 60, 80
1, 391582, Control_c, 0, 64, 53
1, 391594, Note_off_c, 0, 62, 60
1, 391598, Note_off_c, 0, 64, 59
1, 391598, Control_c, 0, 64, 0
1, 391693, Control_c, 0, 64, 33
1, 391712, Control_c, 0, 64, 67
1, 391730, Control_c, 0, 64, 97
1, 391749, Control_c, 0, 64, 127
1, 391797, Note_off_c, 0, 65, 60
1, 391802, Note_on_c, 0, 62, 85
1, 391819, Note_off_c, 0, 69, 59
1, 391819, Poly_aftertouch_c, 0, 69, 0
1, 391889, Note_off_c, 0, 62, 59
1, 392030, Control_c, 0, 64, 117
1, 392049, Control_c, 0, 64, 66
1, 392062, Note_on_c, 0, 76, 88
1, 392068, Control_c, 0, 64, 19
1, 392077, Note_off_c, 0, 60, 62
1, 392080, Note_on_c, 0, 68, 83
1, 392086, Control_c, 0, 64, 0
1, 392089, Note_on_c, 0, 59, 73
1, 392152, Note_off_c, 0, 50, 62
1, 392180, Control_c, 0, 64, 22
1, 392199, Control_c, 0, 64, 57
1, 392217, Control_c, 0, 64, 90
1, 392235, Control_c, 0, 64, 127
1, 392299, Note_on_c, 0, 50, 77
1, 392534, Control_c, 0, 64, 99
1, 392536, Note_on_c, 0, 48, 76
1, 392554, Control_c, 0, 64, 74
1, 392573, Control_c, 0, 64, 57
1, 392581, Note_off_c, 0, 50, 59
1, 392591, Control_c, 0, 64, 47
1, 392610, Control_c, 0, 64, 41
1, 392629, Control_c, 0, 64, 29
1, 392648, Control_c, 0, 64, 10
1, 392666, Control_c, 0, 64, 0
1, 392759, Control_c, 0, 64, 14
1, 392765, Note_on_c, 0, 47, 77
1, 392779, Control_c, 0, 64, 26
1, 392794, Note_off_c, 0, 48, 62
1, 392796, Control_c, 0, 64, 47
1, 392816, Control_c, 0, 64, 69
1, 392836, Control_c, 0, 64, 85
1, 392853, Control_c, 0, 64, 118
1, 392859, Note_off_c, 0, 59, 52
1, 392872, Control_c, 0, 64, 127
1, 392881, Note_off_c, 0, 68, 62
1, 393002, Note_on_c, 0, 48, 77
1, 393029, Note_off_c, 0, 47, 61
1, 393078, Control_c, 0, 64, 107
1, 393097, Control_c, 0, 64, 72
1, 393115, Control_c, 0, 64, 49
1, 393134, Control_c, 0, 64, 38
1, 393172, Control_c, 0, 64, 50
1, 393189, Control_c, 0, 64, 67
1, 393209, Control_c, 0, 64, 85
1, 393219, Note_on_c, 0, 74, 81
1, 393228, Control_c, 0, 64, 127
1, 393236, Note_on_c, 0, 50, 74
1, 393292, Note_off_c, 0, 48, 61
1, 393452, Control_c, 0, 64, 92
1, 393455, Note_off_c, 0, 50, 63
1, 393458, Note_on_c, 0, 52, 68
1, 393462, Note_on_c, 0, 72, 82
1, 393470, Control_c, 0, 64, 55
1, 393490, Control_c, 0, 64, 16
1, 393564, Control_c, 0, 64, 27
1, 393584, Control_c, 0, 64, 58
1, 393601, Control_c, 0, 64, 92
1, 393621, Control_c, 0, 64, 127
1, 393681, Note_on_c, 0, 48, 67
1, 393689, Note_on_c, 0, 71, 81
1, 393692, Note_off_c, 0, 52, 58
1, 393757, Note_off_c, 0, 72, 55
1, 393757, Poly_aftertouch_c, 0, 72, 0
1, 393777, Note_off_c, 0, 74, 30
1, 393777, Poly_aftertouch_c, 0, 74, 0
1, 393878, Poly_aftertouch_c, 0, 76, 20
1, 393893, Note_off_c, 0, 76, 32
1, 393893, Poly_aftertouch_c, 0, 76, 0
1, 393921, Control_c, 0, 64, 103
1, 393932, Note_on_c, 0, 69, 80
1, 393937, Control_c, 0, 64, 62
1, 393939, Note_off_c, 0, 48, 62
1, 393944, Note_on_c, 0, 53, 68
1, 393959, Control_c, 0, 64, 23
1, 394052, Control_c, 0, 64, 48
1, 394070, Control_c, 0, 64, 85
1, 394075, Note_off_c, 0, 71, 20
1, 394088, Control_c, 0, 64, 127
1, 394164, Note_on_c, 0, 71, 80
1, 394175, Note_on_c, 0, 50, 73
1, 394184, Note_off_c, 0, 53, 59
1, 394207, Note_off_c, 0, 69, 58
1, 394207, Poly_aftertouch_c, 0, 69, 0
1, 394220, Control_c, 0, 64, 95
1, 394257, Control_c, 0, 64, 127
1, 394391, Control_c, 0, 64, 97
1, 394398, Note_on_c, 0, 52, 74
1, 394404, Note_on_c, 0, 72, 78
1, 394410, Control_c, 0, 64, 66
1, 394427, Control_c, 0, 64, 44
1, 394448, Note_off_c, 0, 50, 58
1, 394449, Note_off_c, 0, 71, 59
1, 394463, Control_c, 0, 64, 58
1, 394482, Control_c, 0, 64, 80
1, 394501, Control_c, 0, 64, 127
1, 394613, Note_on_c, 0, 69, 78
1, 394619, Note_on_c, 0, 53, 72
1, 394621, Note_off_c, 0, 52, 59
1, 394627, Note_off_c, 0, 72, 59
1, 394627, Poly_aftertouch_c, 0, 72, 0
1, 394838, Control_c, 0, 64, 104
1, 394859, Control_c, 0, 64, 63
1, 394871, Note_on_c, 0, 47, 72
1, 394871, Note_on_c, 0, 74, 87
1, 394876, Note_off_c, 0, 53, 50
1, 394878, Control_c, 0, 64, 23
1, 394893, Control_c, 0, 64, 0
1, 394988, Control_c, 0, 64, 19
1, 395005, Control_c, 0, 64, 43
1, 395025, Control_c, 0, 64, 72
1, 395044, Control_c, 0, 64, 104
1, 395061, Control_c, 0, 64, 127
1, 395106, Note_on_c, 0, 48, 73
1, 395108, Note_on_c, 0, 72, 82
1, 395125, Note_off_c, 0, 47, 59
1, 395186, Note_off_c, 0, 74, 59
1, 395186, Poly_aftertouch_c, 0, 74, 0
1, 395351, Note_on_c, 0, 74, 82
1, 395354, Note_on_c, 0, 71, 80
1, 395362, Control_c, 0, 64, 90
1, 395364, Note_off_c, 0, 72, 59
1, 395364, Poly_aftertouch_c, 0, 72, 0
1, 395368, Note_off_c, 0, 48, 62
1, 395368, Note_on_c, 0, 50, 73
1, 395375, Note_off_c, 0, 69, 56
1, 395375, Poly_aftertouch_c, 0, 69, 0
1, 395380, Control_c, 0, 64, 49
1, 395399, Control_c, 0, 64, 0
1, 395493, Control_c, 0, 64, 30
1, 395511, Control_c, 0, 64, 63
1, 395530, Control_c, 0, 64, 93
1, 395549, Control_c, 0, 64, 127
1, 395596, Note_on_c, 0, 47, 72
1, 395596, Note_on_c, 0, 69, 82
1, 395602, Note_off_c, 0, 71, 63
1, 395615, Note_off_c, 0, 50, 61
1, 395632, Note_off_c, 0, 74, 61
1, 395632, Poly_aftertouch_c, 0, 74, 0
1, 395831, Note_on_c, 0, 74, 80
1, 395836, Note_off_c, 0, 47, 61
1, 395847, Note_on_c, 0, 52, 70
1, 395849, Control_c, 0, 64, 69
1, 395851, Note_on_c, 0, 68, 79
1, 395867, Control_c, 0, 64, 26
1, 395886, Note_off_c, 0, 69, 60
1, 395886, Poly_aftertouch_c, 0, 69, 0
1, 395886, Control_c, 0, 64, 0
1, 395960, Control_c, 0, 64, 8
1, 395980, Control_c, 0, 64, 40
1, 395997, Control_c, 0, 64, 75
1, 396017, Control_c, 0, 64, 127
1, 396081, Note_on_c, 0, 54, 71
1, 396085, Note_on_c, 0, 71, 77
1, 396109, Note_off_c, 0, 52, 57
1, 396315, Note_on_c, 0, 56, 75
1, 396315, Control_c, 0, 64, 97
1, 396332, Note_on_c, 0, 64, 70
1, 396334, Note_on_c, 0, 72, 78
1, 396336, Control_c, 0, 64, 59
1, 396342, Note_off_c, 0, 54, 61
1, 396355, Control_c, 0, 64, 28
1, 396362, Note_off_c, 0, 68, 61
1, 396372, Control_c, 0, 64, 17
1, 396380, Note_off_c, 0, 71, 60
1, 396409, Control_c, 0, 64, 33
1, 396429, Control_c, 0, 64, 62
1, 396448, Control_c, 0, 64, 96
1, 396465, Control_c, 0, 64, 127
1, 396556, Note_on_c, 0, 71, 80
1, 396562, Note_on_c, 0, 52, 71
1, 396599, Note_off_c, 0, 74, 60
1, 396599, Poly_aftertouch_c, 0, 74, 0
1, 396608, Note_off_c, 0, 72, 59
1, 396608, Poly_aftertouch_c, 0, 72, 0
1, 396822, Control_c, 0, 64, 108
1, 396829, Note_on_c, 0, 74, 77
1, 396840, Control_c, 0, 64, 65
1, 396844, Note_off_c, 0, 71, 62
1, 396852, Note_on_c, 0, 57, 74
1, 396853, Note_off_c, 0, 52, 59
1, 396854, Note_off_c, 0, 56, 59
1, 396859, Control_c, 0, 64, 28
1, 396877, Control_c, 0, 64, 0
1, 396953, Control_c, 0, 64, 28
1, 396972, Control_c, 0, 64, 69
1, 396990, Control_c, 0, 64, 127
1, 397068, Note_on_c, 0, 72, 81
1, 397117, Note_off_c, 0, 74, 56
1, 397117, Poly_aftertouch_c, 0, 74, 0
1, 397179, Note_off_c, 0, 72, 61
1, 397179, Poly_aftertouch_c, 0, 72, 0
1, 397334, Note_on_c, 0, 71, 78
1, 397339, Note_on_c, 0, 53, 68
1, 397344, Control_c, 0, 64, 115
1, 397355, Note_on_c, 0, 62, 64
1, 397363, Control_c, 0, 64, 68
1, 397384, Control_c, 0, 64, 34
1, 397401, Control_c, 0, 64, 16
1, 397405, Note_off_c, 0, 64, 58
1, 397439, Control_c, 0, 64, 27
1, 397459, Control_c, 0, 64, 53
1, 397476, Control_c, 0, 64, 84
1, 397495, Control_c, 0, 64, 127
1, 397576, Note_off_c, 0, 62, 57
1, 397580, Note_on_c, 0, 60, 72
1, 397587, Note_on_c, 0, 69, 79
1, 397654, Note_off_c, 0, 71, 58
1, 397892, Note_on_c, 0, 72, 80
1, 397897, Note_on_c, 0, 50, 71
1, 397900, Note_on_c, 0, 65, 65
1, 397902, Note_off_c, 0, 60, 53
1, 397926, Control_c, 0, 64, 74
1, 397939, Note_off_c, 0, 69, 49
1, 397939, Poly_aftertouch_c, 0, 69, 0
1, 397943, Control_c, 0, 64, 33
1, 397964, Control_c, 0, 64, 0
1, 397969, Note_off_c, 0, 53, 60
1, 398076, Control_c, 0, 64, 30
1, 398094, Control_c, 0, 64, 63
1, 398114, Control_c, 0, 64, 89
1, 398133, Control_c, 0, 64, 127
1, 398279, Note_on_c, 0, 71, 71
1, 398283, Note_off_c, 0, 65, 60
1, 398329, Note_off_c, 0, 72, 64
1, 398329, Poly_aftertouch_c, 0, 72, 0
1, 398350, Note_off_c, 0, 50, 61
1, 398374, Note_off_c, 0, 57, 63
1, 398428, Note_off_c, 0, 71, 60
1, 398433, Note_on_c, 0, 72, 73
1, 398500, Note_off_c, 0, 72, 60
1, 398500, Poly_aftertouch_c, 0, 72, 0
1, 398537, Note_on_c, 0, 71, 74
1, 398614, Note_off_c, 0, 71, 64
1, 398627, Note_on_c, 0, 72, 70
1, 398693, Note_off_c, 0, 72, 56
1, 398693, Poly_aftertouch_c, 0, 72, 0
1, 398700, Note_on_c, 0, 71, 73
1, 398753, Note_off_c, 0, 71, 60
1, 398779, Note_on_c, 0, 72, 67
1, 398832, Note_off_c, 0, 72, 58
1, 398832, Poly_aftertouch_c, 0, 72, 0
1, 398845, Note_on_c, 0, 71, 70
1, 398910, Note_off_c, 0, 71, 56
1, 398914, Note_on_c, 0, 72, 71
1, 398974, Note_off_c, 0, 72, 59
1, 398974, Poly_aftertouch_c, 0, 72, 0
1, 398987, Note_on_c, 0, 71, 69
1, 399013, Poly_aftertouch_c, 0, 74, 0
1, 399041, Note_off_c, 0, 71, 61
1, 399041, Note_on_c, 0, 72, 72
1, 399098, Poly_aftertouch_c, 0, 74, 0
1, 399112, Note_off_c, 0, 72, 61
1, 399112, Note_on_c, 0, 71, 74
1, 399112, Poly_aftertouch_c, 0, 72, 0
1, 399170, Note_off_c, 0, 71, 59
1, 399187, Note_on_c, 0, 72, 61
1, 399234, Note_on_c, 0, 71, 72
1, 399240, Note_off_c, 0, 72, 60
1, 399240, Poly_aftertouch_c, 0, 72, 0
1, 399262, Note_on_c, 0, 56, 63
1, 399268, Note_on_c, 0, 64, 76
1, 399270, Note_on_c, 0, 52, 67
1, 399311, Control_c, 0, 64, 88
1, 399330, Control_c, 0, 64, 62
1, 399349, Control_c, 0, 64, 46
1, 399367, Control_c, 0, 64, 41
1, 399405, Control_c, 0, 64, 34
1, 399424, Control_c, 0, 64, 26
1, 399442, Control_c, 0, 64, 19
1, 399498, Control_c, 0, 64, 15
1, 399536, Control_c, 0, 64, 10
1, 399630, Control_c, 0, 64, 0
1, 399816, Control_c, 0, 64, 22
1, 399836, Control_c, 0, 64, 45
1, 399854, Control_c, 0, 64, 72
1, 399873, Control_c, 0, 64, 104
1, 399891, Control_c, 0, 64, 127
1, 399922, Note_on_c, 0, 62, 81
1, 399938, Note_off_c, 0, 64, 62
1, 400042, Note_off_c, 0, 71, 62
1, 400088, Note_off_c, 0, 62, 62
1, 400105, Note_off_c, 0, 52, 58
1, 400132, Note_off_c, 0, 56, 61
1, 400772, Note_on_c, 0, 69, 80
1, 400773, Note_on_c, 0, 62, 74
1, 400780, Note_on_c, 0, 57, 82
1, 400782, Note_on_c, 0, 45, 77
1, 400791, Note_on_c, 0, 52, 77
1, 400845, Control_c, 0, 64, 91
1, 400865, Control_c, 0, 64, 67
1, 400883, Control_c, 0, 64, 52
1, 400902, Control_c, 0, 64, 46
1, 400922, Control_c, 0, 64, 42
1, 400939, Control_c, 0, 64, 36
1, 400958, Control_c, 0, 64, 27
1, 400977, Control_c, 0, 64, 18
1, 400996, Control_c, 0, 64, 13
1, 401014, Control_c, 0, 64, 8
1, 401051, Control_c, 0, 64, 0
1, 401998, Note_on_c, 0, 60, 49
1, 402052, Note_off_c, 0, 62, 54
1, 402063, Control_c, 0, 64, 17
1, 402081, Control_c, 0, 64, 36
1, 402100, Control_c, 0, 64, 60
1, 402118, Control_c, 0, 64, 75
1, 402138, Control_c, 0, 64, 89
1, 402156, Control_c, 0, 64, 109
1, 402157, Control_c, 0, 67, 9
1, 402175, Control_c, 0, 64, 127
1, 402176, Control_c, 0, 67, 17
1, 402194, Control_c, 0, 67, 31
1, 402213, Control_c, 0, 67, 51
1, 402231, Control_c, 0, 67, 78
1, 402250, Control_c, 0, 67, 106
1, 402257, Note_off_c, 0, 57, 59
1, 402268, Control_c, 0, 67, 127
1, 402343, Note_off_c, 0, 45, 29
1, 402355, Note_off_c, 0, 52, 36
1, 402917, Poly_aftertouch_c, 0, 69, 24
1, 402936, Note_off_c, 0, 60, 34
1, 402936, Note_on_c, 0, 57, 44
1, 402952, Note_off_c, 0, 69, 43
1, 402952, Poly_aftertouch_c, 0, 69, 0
1, 402960, Control_c, 0, 64, 104
1, 402980, Control_c, 0, 64, 85
1, 402999, Control_c, 0, 64, 68
1, 403017, Control_c, 0, 64, 54
1, 403036, Control_c, 0, 64, 45
1, 403056, Control_c, 0, 64, 40
1, 403074, Control_c, 0, 64, 34
1, 403091, Control_c, 0, 64, 24
1, 403111, Control_c, 0, 64, 17
1, 403185, Control_c, 0, 64, 11
1, 403298, Control_c, 0, 64, 0
1, 403957, Note_on_c, 0, 56, 44
1, 404041, Note_off_c, 0, 57, 58
1, 404896, Note_on_c, 0, 64, 44
1, 404918, Note_on_c, 0, 55, 29
1, 404963, Note_off_c, 0, 56, 53
1, 405835, Note_on_c, 0, 63, 43
1, 405846, Note_on_c, 0, 54, 38
1, 405901, Note_off_c, 0, 64, 49
1, 405913, Note_off_c, 0, 55, 47
1, 406776, Note_on_c, 0, 62, 42
1, 406801, Note_on_c, 0, 53, 44
1, 406866, Note_off_c, 0, 54, 39
1, 406879, Note_off_c, 0, 63, 45
1, 407756, Note_off_c, 0, 53, 49
1, 407776, Note_on_c, 0, 52, 39
1, 407781, Note_on_c, 0, 61, 41
1, 407893, Note_off_c, 0, 62, 54
1, 408424, Note_off_c, 0, 52, 60
1, 408774, Note_on_c, 0, 60, 43
1, 408790, Note_on_c, 0, 57, 42
1, 408844, Note_off_c, 0, 61, 53
1, 409869, Note_on_c, 0, 59, 39
1, 409911, Note_off_c, 0, 60, 37
1, 410205, Control_c, 0, 64, 14
1, 410224, Control_c, 0, 64, 34
1, 410242, Control_c, 0, 64, 59
1, 410261, Control_c, 0, 64, 74
1, 410281, Control_c, 0, 64, 85
1, 410299, Control_c, 0, 64, 98
1, 410313, Note_off_c, 0, 59, 62
1, 410317, Control_c, 0, 64, 121
1, 410337, Control_c, 0, 64, 127
1, 410467, Control_c, 0, 64, 114
1, 410486, Control_c, 0, 64, 97
1, 410505, Control_c, 0, 64, 83
1, 410523, Control_c, 0, 64, 70
1, 410542, Control_c, 0, 64, 61
1, 410560, Control_c, 0, 64, 56
1, 410598, Control_c, 0, 64, 54
1, 410636, Control_c, 0, 64, 51
1, 410654, Control_c, 0, 64, 48
1, 410673, Control_c, 0, 64, 46
1, 410692, Control_c, 0, 64, 43
1, 410729, Control_c, 0, 64, 40
1, 410767, Control_c, 0, 64, 34
1, 410823, Control_c, 0, 64, 30
1, 410899, Control_c, 0, 64, 26
1, 410922, Note_on_c, 0, 56, 31
1, 410925, Note_on_c, 0, 64, 45
1, 410935, Control_c, 0, 64, 21
1, 410991, Control_c, 0, 64, 16
1, 411029, Control_c, 0, 64, 10
1, 411030, Note_off_c, 0, 57, 38
1, 411291, Control_c, 0, 64, 16
1, 411310, Control_c, 0, 64, 25
1, 411328, Control_c, 0, 64, 40
1, 411347, Control_c, 0, 64, 59
1, 411368, Control_c, 0, 64, 69
1, 411384, Control_c, 0, 64, 73
1, 411401, Note_off_c, 0, 56, 57
1, 411422, Control_c, 0, 64, 77
1, 411440, Control_c, 0, 64, 81
1, 411459, Control_c, 0, 64, 87
1, 411478, Control_c, 0, 64, 93
1, 411498, Control_c, 0, 64, 99
1, 411535, Control_c, 0, 64, 105
1, 411646, Control_c, 0, 64, 110
1, 411853, Control_c, 0, 64, 106
1, 411891, Control_c, 0, 64, 98
1, 411909, Control_c, 0, 64, 94
1, 411928, Control_c, 0, 64, 89
1, 411946, Control_c, 0, 64, 83
1, 411957, Note_on_c, 0, 57, 47
1, 411966, Control_c, 0, 64, 76
1, 411983, Control_c, 0, 64, 68
1, 412002, Control_c, 0, 64, 59
1, 412021, Control_c, 0, 64, 52
1, 412040, Control_c, 0, 64, 49
1, 412077, Control_c, 0, 64, 47
1, 412114, Control_c, 0, 64, 45
1, 412132, Control_c, 0, 64, 42
1, 412170, Control_c, 0, 64, 36
1, 412204, Note_on_c, 0, 59, 58
1, 412208, Control_c, 0, 64, 31
1, 412245, Note_off_c, 0, 57, 62
1, 412245, Control_c, 0, 64, 27
1, 412451, Note_off_c, 0, 59, 62
1, 412471, Note_on_c, 0, 60, 53
1, 412489, Control_c, 0, 64, 23
1, 412564, Control_c, 0, 64, 18
1, 413049, Note_on_c, 0, 63, 38
1, 413143, Control_c, 0, 64, 14
1, 413180, Note_off_c, 0, 64, 55
1, 413237, Control_c, 0, 64, 10
1, 413287, Note_on_c, 0, 57, 44
1, 413429, Note_off_c, 0, 60, 26
1, 413530, Note_on_c, 0, 54, 46
1, 413605, Note_off_c, 0, 57, 37
1, 413723, Note_off_c, 0, 54, 61
1, 413738, Note_on_c, 0, 59, 42
1, 413984, Note_off_c, 0, 63, 62
1, 414010, Note_on_c, 0, 64, 59
1, 414017, Note_on_c, 0, 55, 43
1, 414118, Note_off_c, 0, 59, 34
1, 414229, Note_off_c, 0, 55, 59
1, 414234, Note_on_c, 0, 66, 69
1, 414271, Note_off_c, 0, 64, 59
1, 414499, Note_on_c, 0, 67, 67
1, 414508, Note_on_c, 0, 52, 50
1, 414519, Note_off_c, 0, 66, 62
1, 414669, Note_off_c, 0, 52, 60
1, 415002, Note_on_c, 0, 49, 46
1, 415187, Note_off_c, 0, 49, 59
1, 415192, Note_on_c, 0, 64, 47
1, 415381, Note_off_c, 0, 67, 36
1, 415381, Poly_aftertouch_c, 0, 67, 0
1, 415438, Note_off_c, 0, 64, 56
1, 415447, Note_on_c, 0, 61, 47
1, 415481, Note_on_c, 0, 57, 37
1, 415639, Note_off_c, 0, 57, 46
1, 415677, Note_on_c, 0, 69, 52
1, 415684, Note_off_c, 0, 61, 54
1, 415939, Note_on_c, 0, 65, 42
1, 415942, Note_on_c, 0, 50, 44
1, 416055, Note_off_c, 0, 69, 32
1, 416055, Poly_aftertouch_c, 0, 69, 0
1, 416154, Note_on_c, 0, 52, 51
1, 416168, Note_off_c, 0, 50, 63
1, 416170, Note_off_c, 0, 65, 57
1, 416417, Note_on_c, 0, 62, 49
1, 416424, Note_on_c, 0, 53, 48
1, 416425, Note_off_c, 0, 52, 56
1, 416589, Note_off_c, 0, 62, 59
1, 416701, Control_c, 0, 64, 0
1, 416922, Note_on_c, 0, 59, 48
1, 417141, Note_off_c, 0, 59, 62
1, 417145, Note_on_c, 0, 50, 45
1, 417336, Note_off_c, 0, 53, 52
1, 417389, Note_on_c, 0, 68, 49
1, 417393, Note_on_c, 0, 47, 41
1, 417447, Note_off_c, 0, 50, 35
1, 417579, Note_off_c, 0, 47, 57
1, 417592, Note_on_c, 0, 52, 46
1, 417606, Note_off_c, 0, 68, 58
1, 417871, Note_on_c, 0, 69, 62
1, 417917, Note_on_c, 0, 48, 25
1, 418044, Note_off_c, 0, 52, 35
1, 418095, Note_off_c, 0, 48, 54
1, 418101, Note_off_c, 0, 69, 55
1, 418101, Note_on_c, 0, 71, 65
1, 418101, Poly_aftertouch_c, 0, 69, 0
1, 418369, Note_on_c, 0, 72, 58
1, 418378, Note_off_c, 0, 71, 54
1, 418385, Note_on_c, 0, 45, 42
1, 418533, Note_off_c, 0, 45, 61
1, 418870, Note_on_c, 0, 42, 49
1, 419054, Note_off_c, 0, 42, 50
1, 419074, Note_on_c, 0, 69, 40
1, 419323, Note_off_c, 0, 69, 58
1, 419323, Poly_aftertouch_c, 0, 69, 0
1, 419341, Note_on_c, 0, 51, 39
1, 419342, Note_on_c, 0, 66, 48
1, 419471, Note_off_c, 0, 51, 57
1, 419559, Note_off_c, 0, 66, 58
1, 419572, Note_on_c, 0, 71, 52
1, 419617, Note_off_c, 0, 72, 44
1, 419617, Poly_aftertouch_c, 0, 72, 0
1, 419849, Note_on_c, 0, 67, 46
1, 419852, Note_on_c, 0, 52, 37
1, 419890, Note_off_c, 0, 71, 50
1, 420050, Note_on_c, 0, 54, 47
1, 420118, Note_off_c, 0, 67, 57
1, 420118, Poly_aftertouch_c, 0, 67, 0
1, 420137, Note_off_c, 0, 52, 46
1, 420325, Note_off_c, 0, 54, 61
1, 420338, Note_on_c, 0, 55, 47
1, 420347, Note_on_c, 0, 64, 51
1, 420501, Note_off_c, 0, 64, 61
1, 420826, Note_on_c, 0, 76, 63
1, 420855, Note_on_c, 0, 61, 47
1, 421018, Note_off_c, 0, 61, 53
1, 421069, Note_on_c, 0, 52, 50
1, 421237, Note_off_c, 0, 55, 37
1, 421294, Note_on_c, 0, 70, 50
1, 421311, Note_on_c, 0, 49, 48
1, 421326, Note_off_c, 0, 52, 53
1, 421505, Note_off_c, 0, 70, 57
1, 421509, Note_off_c, 0, 49, 58
1, 421533, Note_on_c, 0, 54, 50
1, 421751, Note_on_c, 0, 75, 63
1, 421761, Note_on_c, 0, 47, 44
1, 421765, Note_on_c, 0, 71, 49
1, 421783, Note_off_c, 0, 54, 53
1, 421861, Note_off_c, 0, 76, 57
1, 421861, Poly_aftertouch_c, 0, 76, 0
1, 421912, Note_off_c, 0, 71, 59
1, 421970, Note_on_c, 0, 54, 53
1, 422209, Note_off_c, 0, 54, 60
1, 422223, Note_on_c, 0, 66, 59
1, 422224, Note_off_c, 0, 47, 53
1, 422235, Note_on_c, 0, 55, 55
1, 422440, Note_off_c, 0, 55, 61
1, 422441, Note_on_c, 0, 57, 54
1, 422688, Note_off_c, 0, 57, 62
1, 422698, Note_on_c, 0, 74, 61
1, 422704, Note_on_c, 0, 59, 56
1, 422736, Note_off_c, 0, 75, 65
1, 422991, Note_on_c, 0, 64, 63
1, 423012, Note_off_c, 0, 66, 56
1, 423214, Note_on_c, 0, 62, 47
1, 423256, Note_off_c, 0, 64, 59
1, 423445, Note_on_c, 0, 67, 44
1, 423486, Note_off_c, 0, 74, 60
1, 423697, Note_on_c, 0, 73, 69
1, 423713, Note_on_c, 0, 64, 53
1, 423775, Note_off_c, 0, 62, 56
1, 423809, Note_off_c, 0, 67, 53
1, 423809, Poly_aftertouch_c, 0, 67, 0
1, 423928, Note_off_c, 0, 64, 60
1, 423934, Note_on_c, 0, 55, 52
1, 424056, Note_off_c, 0, 59, 56
1, 424170, Note_on_c, 0, 52, 53
1, 424180, Note_on_c, 0, 61, 51
1, 424197, Note_off_c, 0, 55, 51
1, 424281, Control_c, 0, 64, 8
1, 424300, Control_c, 0, 64, 14
1, 424318, Control_c, 0, 64, 21
1, 424337, Control_c, 0, 64, 31
1, 424356, Control_c, 0, 64, 43
1, 424376, Control_c, 0, 64, 57
1, 424380, Note_on_c, 0, 57, 51
1, 424395, Control_c, 0, 64, 64
1, 424412, Control_c, 0, 64, 66
1, 424431, Control_c, 0, 64, 68
1, 424432, Note_off_c, 0, 52, 58
1, 424450, Control_c, 0, 64, 70
1, 424469, Control_c, 0, 64, 74
1, 424472, Note_off_c, 0, 57, 62
1, 424487, Control_c, 0, 64, 77
1, 424505, Control_c, 0, 64, 82
1, 424525, Control_c, 0, 64, 86
1, 424562, Control_c, 0, 64, 92
1, 424602, Note_off_c, 0, 73, 45
1, 424618, Control_c, 0, 64, 87
1, 424637, Control_c, 0, 64, 77
1, 424648, Note_on_c, 0, 72, 66
1, 424648, Note_on_c, 0, 57, 73
1, 424650, Note_off_c, 0, 61, 57
1, 424657, Control_c, 0, 64, 65
1, 424673, Control_c, 0, 64, 51
1, 424682, Note_on_c, 0, 54, 53
1, 424684, Note_on_c, 0, 63, 24
1, 424691, Control_c, 0, 64, 39
1, 424711, Control_c, 0, 64, 30
1, 424731, Control_c, 0, 64, 25
1, 424768, Control_c, 0, 64, 20
1, 424843, Note_off_c, 0, 63, 44
1, 424865, Note_on_c, 0, 64, 64
1, 424886, Note_off_c, 0, 54, 62
1, 424918, Control_c, 0, 64, 16
1, 425012, Control_c, 0, 64, 12
1, 425067, Control_c, 0, 64, 8
1, 425119, Note_on_c, 0, 66, 63
1, 425128, Note_on_c, 0, 51, 63
1, 425218, Control_c, 0, 64, 22
1, 425235, Control_c, 0, 64, 37
1, 425255, Control_c, 0, 64, 54
1, 425273, Control_c, 0, 64, 62
1, 425275, Note_off_c, 0, 72, 56
1, 425275, Poly_aftertouch_c, 0, 72, 0
1, 425292, Control_c, 0, 64, 63
1, 425306, Note_off_c, 0, 51, 58
1, 425330, Control_c, 0, 64, 64
1, 425348, Control_c, 0, 64, 66
1, 425367, Control_c, 0, 64, 69
1, 425372, Note_on_c, 0, 71, 71
1, 425386, Control_c, 0, 64, 71
1, 425404, Control_c, 0, 64, 74
1, 425423, Control_c, 0, 64, 76
1, 425442, Control_c, 0, 64, 78
1, 425461, Control_c, 0, 64, 80
1, 425462, Note_off_c, 0, 71, 61
1, 425498, Control_c, 0, 64, 82
1, 425592, Control_c, 0, 64, 79
1, 425611, Control_c, 0, 64, 72
1, 425623, Note_on_c, 0, 71, 69
1, 425628, Note_on_c, 0, 56, 67
1, 425628, Control_c, 0, 64, 61
1, 425647, Note_on_c, 0, 52, 53
1, 425648, Control_c, 0, 64, 46
1, 425667, Control_c, 0, 64, 34
1, 425670, Note_off_c, 0, 64, 61
1, 425678, Note_off_c, 0, 66, 36
1, 425684, Control_c, 0, 64, 26
1, 425703, Note_off_c, 0, 57, 58
1, 425798, Control_c, 0, 64, 31
1, 425817, Control_c, 0, 64, 40
1, 425835, Control_c, 0, 64, 50
1, 425848, Note_on_c, 0, 64, 51
1, 425852, Control_c, 0, 64, 57
1, 425873, Control_c, 0, 64, 59
1, 425891, Control_c, 0, 64, 60
1, 425910, Control_c, 0, 64, 62
1, 425928, Control_c, 0, 64, 64
1, 425948, Control_c, 0, 64, 66
1, 425965, Control_c, 0, 64, 67
1, 426003, Control_c, 0, 64, 68
1, 426039, Note_off_c, 0, 64, 60
1, 426060, Control_c, 0, 64, 67
1, 426064, Note_on_c, 0, 59, 64
1, 426078, Control_c, 0, 64, 65
1, 426097, Control_c, 0, 64, 64
1, 426171, Control_c, 0, 64, 65
1, 426209, Control_c, 0, 64, 67
1, 426247, Control_c, 0, 64, 70
1, 426266, Control_c, 0, 64, 72
1, 426284, Control_c, 0, 64, 76
1, 426302, Note_on_c, 0, 62, 65
1, 426302, Control_c, 0, 64, 81
1, 426314, Note_off_c, 0, 59, 47
1, 426321, Control_c, 0, 64, 87
1, 426340, Control_c, 0, 64, 93
1, 426345, Note_off_c, 0, 71, 60
1, 426353, Note_off_c, 0, 62, 60
1, 426359, Control_c, 0, 64, 99
1, 426378, Control_c, 0, 64, 104
1, 426396, Control_c, 0, 64, 112
1, 426416, Control_c, 0, 64, 127
1, 426528, Control_c, 0, 64, 104
1, 426547, Control_c, 0, 64, 87
1, 426555, Note_on_c, 0, 70, 71
1, 426558, Note_on_c, 0, 55, 64
1, 426564, Note_on_c, 0, 61, 63
1, 426566, Note_off_c, 0, 52, 61
1, 426566, Note_off_c, 0, 56, 51
1, 426566, Control_c, 0, 64, 72
1, 426584, Control_c, 0, 64, 60
1, 426603, Control_c, 0, 64, 51
1, 426622, Control_c, 0, 64, 47
1, 426639, Control_c, 0, 64, 44
1, 426659, Control_c, 0, 64, 41
1, 426677, Control_c, 0, 64, 37
1, 426696, Control_c, 0, 64, 33
1, 426771, Control_c, 0, 64, 28
1, 426786, Note_off_c, 0, 61, 60
1, 426788, Note_on_c, 0, 62, 66
1, 426845, Control_c, 0, 64, 24
1, 427033, Note_on_c, 0, 64, 64
1, 427060, Note_off_c, 0, 62, 56
1, 427108, Control_c, 0, 64, 32
1, 427126, Control_c, 0, 64, 47
1, 427146, Control_c, 0, 64, 63
1, 427164, Control_c, 0, 64, 70
1, 427182, Control_c, 0, 64, 73
1, 427221, Control_c, 0, 64, 76
1, 427239, Control_c, 0, 64, 82
1, 427240, Control_c, 0, 67, 123
1, 427258, Control_c, 0, 64, 90
1, 427277, Control_c, 0, 64, 99
1, 427278, Control_c, 0, 67, 117
1, 427295, Control_c, 0, 64, 105
1, 427313, Control_c, 0, 67, 113
1, 427333, Control_c, 0, 64, 113
1, 427351, Control_c, 0, 64, 124
1, 427467, Note_off_c, 0, 70, 43
1, 427525, Note_on_c, 0, 69, 65
1, 427529, Note_on_c, 0, 54, 56
1, 427539, Control_c, 0, 64, 103
1, 427557, Control_c, 0, 64, 82
1, 427576, Control_c, 0, 64, 64
1, 427590, Note_off_c, 0, 64, 57
1, 427593, Control_c, 0, 64, 50
1, 427613, Control_c, 0, 64, 43
1, 427646, Note_off_c, 0, 55, 59
1, 427690, Control_c, 0, 64, 48
1, 427706, Control_c, 0, 64, 53
1, 427725, Control_c, 0, 64, 59
1, 427745, Control_c, 0, 64, 65
1, 427762, Control_c, 0, 64, 69
1, 427766, Note_on_c, 0, 62, 50
1, 427782, Control_c, 0, 64, 72
1, 427800, Control_c, 0, 64, 75
1, 427820, Control_c, 0, 64, 78
1, 427837, Control_c, 0, 64, 82
1, 427857, Control_c, 0, 64, 87
1, 427876, Control_c, 0, 64, 92
1, 427894, Control_c, 0, 64, 96
1, 427966, Note_off_c, 0, 62, 60
1, 427983, Note_on_c, 0, 57, 60
1, 428063, Control_c, 0, 64, 100
1, 428100, Control_c, 0, 64, 105
1, 428138, Control_c, 0, 64, 110
1, 428156, Control_c, 0, 64, 116
1, 428174, Control_c, 0, 64, 127
1, 428222, Note_off_c, 0, 57, 35
1, 428222, Note_on_c, 0, 60, 54
1, 428271, Note_off_c, 0, 60, 63
1, 428299, Note_off_c, 0, 69, 58
1, 428299, Poly_aftertouch_c, 0, 69, 0
1, 428455, Note_off_c, 0, 54, 48
1, 428477, Note_on_c, 0, 53, 51
1, 428477, Control_c, 0, 64, 95
1, 428485, Note_on_c, 0, 74, 75
1, 428489, Note_on_c, 0, 59, 42
1, 428495, Control_c, 0, 64, 78
1, 428511, Control_c, 0, 64, 66
1, 428531, Control_c, 0, 64, 57
1, 428549, Control_c, 0, 64, 52
1, 428586, Control_c, 0, 64, 50
1, 428625, Control_c, 0, 64, 47
1, 428661, Control_c, 0, 64, 44
1, 428699, Note_on_c, 0, 55, 69
1, 428700, Control_c, 0, 64, 41
1, 428712, Note_off_c, 0, 59, 55
1, 428914, Note_on_c, 0, 59, 61
1, 428975, Note_off_c, 0, 55, 60
1, 429092, Control_c, 0, 64, 44
1, 429111, Control_c, 0, 64, 50
1, 429129, Control_c, 0, 64, 55
1, 429139, Note_on_c, 0, 62, 67
1, 429148, Control_c, 0, 64, 59
1, 429153, Note_off_c, 0, 59, 63
1, 429167, Control_c, 0, 64, 61
1, 429186, Control_c, 0, 64, 62
1, 429205, Control_c, 0, 64, 63
1, 429206, Control_c, 0, 67, 108
1, 429224, Control_c, 0, 64, 64
1, 429241, Control_c, 0, 64, 67
1, 429242, Control_c, 0, 67, 102
1, 429260, Control_c, 0, 64, 71
1, 429279, Control_c, 0, 64, 75
1, 429280, Control_c, 0, 67, 98
1, 429298, Control_c, 0, 64, 79
1, 429317, Control_c, 0, 64, 83
1, 429335, Control_c, 0, 64, 86
1, 429372, Control_c, 0, 64, 81
1, 429391, Control_c, 0, 64, 74
1, 429408, Note_on_c, 0, 67, 70
1, 429411, Control_c, 0, 64, 64
1, 429415, Note_on_c, 0, 52, 56
1, 429430, Control_c, 0, 64, 54
1, 429446, Note_off_c, 0, 53, 61
1, 429448, Control_c, 0, 64, 45
1, 429467, Control_c, 0, 64, 38
1, 429485, Control_c, 0, 64, 32
1, 429504, Control_c, 0, 64, 26
1, 429509, Note_off_c, 0, 62, 57
1, 429542, Control_c, 0, 64, 20
1, 429637, Note_on_c, 0, 69, 75
1, 429673, Control_c, 0, 64, 28
1, 429691, Control_c, 0, 64, 38
1, 429704, Note_off_c, 0, 67, 58
1, 429704, Poly_aftertouch_c, 0, 67, 0
1, 429709, Control_c, 0, 64, 53
1, 429730, Control_c, 0, 64, 63
1, 429747, Control_c, 0, 64, 64
1, 429803, Control_c, 0, 64, 66
1, 429822, Control_c, 0, 64, 67
1, 429860, Control_c, 0, 64, 63
1, 429878, Control_c, 0, 64, 55
1, 429897, Control_c, 0, 64, 44
1, 429901, Note_on_c, 0, 70, 71
1, 429916, Control_c, 0, 64, 28
1, 429935, Control_c, 0, 64, 15
1, 429942, Note_off_c, 0, 69, 54
1, 429942, Poly_aftertouch_c, 0, 69, 0
1, 429954, Control_c, 0, 64, 10
1, 430065, Control_c, 0, 64, 16
1, 430085, Control_c, 0, 64, 23
1, 430086, Control_c, 0, 67, 102
1, 430103, Control_c, 0, 64, 33
1, 430121, Control_c, 0, 64, 48
1, 430140, Control_c, 0, 64, 61
1, 430159, Control_c, 0, 64, 66
1, 430177, Control_c, 0, 67, 107
1, 430196, Control_c, 0, 64, 67
1, 430216, Control_c, 0, 64, 69
1, 430234, Control_c, 0, 64, 71
1, 430253, Control_c, 0, 64, 74
1, 430271, Control_c, 0, 64, 78
1, 430272, Control_c, 0, 67, 111
1, 430291, Control_c, 0, 64, 81
1, 430308, Control_c, 0, 64, 83
1, 430327, Control_c, 0, 67, 115
1, 430346, Control_c, 0, 64, 79
1, 430365, Control_c, 0, 64, 69
1, 430367, Control_c, 0, 67, 120
1, 430384, Control_c, 0, 64, 54
1, 430394, Note_on_c, 0, 73, 59
1, 430403, Control_c, 0, 64, 36
1, 430412, Note_on_c, 0, 57, 60
1, 430413, Note_off_c, 0, 52, 59
1, 430422, Control_c, 0, 64, 19
1, 430423, Control_c, 0, 67, 124
1, 430440, Control_c, 0, 64, 12
1, 430571, Control_c, 0, 64, 22
1, 430589, Control_c, 0, 64, 32
1, 430608, Control_c, 0, 64, 48
1, 430627, Control_c, 0, 64, 62
1, 430645, Note_on_c, 0, 67, 56
1, 430645, Control_c, 0, 64, 66
1, 430665, Control_c, 0, 64, 67
1, 430696, Poly_aftertouch_c, 0, 70, 20
1, 430703, Control_c, 0, 64, 70
1, 430704, Note_off_c, 0, 70, 19
1, 430704, Poly_aftertouch_c, 0, 70, 0
1, 430720, Control_c, 0, 64, 75
1, 430740, Control_c, 0, 64, 81
1, 430758, Control_c, 0, 64, 88
1, 430776, Control_c, 0, 64, 93
1, 430851, Control_c, 0, 64, 85
1, 430870, Control_c, 0, 64, 75
1, 430885, Note_off_c, 0, 67, 59
1, 430885, Note_on_c, 0, 64, 59
1, 430885, Poly_aftertouch_c, 0, 67, 0
1, 430889, Control_c, 0, 64, 64
1, 430908, Control_c, 0, 64, 59
1, 430926, Control_c, 0, 64, 61
1, 430930, Note_off_c, 0, 73, 30
1, 430945, Control_c, 0, 64, 64
1, 430965, Control_c, 0, 64, 68
1, 430982, Control_c, 0, 64, 73
1, 431001, Control_c, 0, 64, 78
1, 431020, Control_c, 0, 64, 86
1, 431039, Control_c, 0, 64, 94
1, 431058, Control_c, 0, 64, 103
1, 431076, Control_c, 0, 64, 115
1, 431095, Note_off_c, 0, 64, 49
1, 431095, Control_c, 0, 64, 127
1, 431108, Note_on_c, 0, 69, 62
1, 431177, Note_off_c, 0, 69, 58
1, 431177, Poly_aftertouch_c, 0, 69, 0
1, 431193, Note_off_c, 0, 74, 61
1, 431301, Control_c, 0, 64, 108
1, 431319, Control_c, 0, 64, 83
1, 431339, Control_c, 0, 64, 63
1, 431357, Control_c, 0, 64, 48
1, 431365, Note_on_c, 0, 74, 66
1, 431371, Note_on_c, 0, 65, 53
1, 431376, Control_c, 0, 64, 41
1, 431450, Control_c, 0, 64, 36
1, 431548, Note_off_c, 0, 65, 56
1, 431581, Note_on_c, 0, 76, 62
1, 431600, Note_off_c, 0, 74, 52
1, 431837, Note_on_c, 0, 62, 47
1, 431838, Note_on_c, 0, 77, 53
1, 431839, Note_off_c, 0, 76, 55
1, 431839, Poly_aftertouch_c, 0, 76, 0
1, 431918, Control_c, 0, 64, 32
1, 431961, Note_off_c, 0, 62, 55
1, 432312, Note_on_c, 0, 59, 47
1, 432324, Note_on_c, 0, 56, 42
1, 432361, Note_off_c, 0, 57, 59
1, 432543, Note_on_c, 0, 74, 48
1, 432687, Note_off_c, 0, 77, 31
1, 432776, Note_off_c, 0, 59, 60
1, 432782, Note_off_c, 0, 74, 60
1, 432794, Note_on_c, 0, 64, 47
1, 432799, Note_on_c, 0, 71, 54
1, 432817, Control_c, 0, 64, 28
1, 433014, Note_on_c, 0, 76, 62
1, 433248, Control_c, 0, 64, 24
1, 433257, Note_off_c, 0, 56, 56
1, 433262, Note_on_c, 0, 57, 47
1, 433278, Note_on_c, 0, 72, 56
1, 433353, Note_off_c, 0, 71, 50
1, 433395, Note_off_c, 0, 76, 32
1, 433395, Poly_aftertouch_c, 0, 76, 0
1, 433431, Note_off_c, 0, 64, 35
1, 433453, Control_c, 0, 64, 29
1, 433480, Note_off_c, 0, 72, 56
1, 433480, Poly_aftertouch_c, 0, 72, 0
1, 433482, Note_on_c, 0, 59, 51
1, 433491, Control_c, 0, 64, 34
1, 433529, Control_c, 0, 64, 39
1, 433574, Note_off_c, 0, 57, 60
1, 433659, Control_c, 0, 64, 35
1, 433715, Control_c, 0, 64, 29
1, 433750, Note_on_c, 0, 69, 56
1, 433752, Control_c, 0, 64, 25
1, 433758, Note_on_c, 0, 60, 53
1, 433759, Note_on_c, 0, 64, 40
1, 433773, Note_off_c, 0, 59, 59
1, 433940, Note_off_c, 0, 64, 60
1, 433940, Note_off_c, 0, 69, 60
1, 433940, Poly_aftertouch_c, 0, 69, 0
1, 434256, Note_on_c, 0, 66, 63
1, 434266, Note_on_c, 0, 63, 42
1, 434456, Note_off_c, 0, 63, 56
1, 434477, Note_off_c, 0, 66, 59
1, 434482, Note_on_c, 0, 57, 47
1, 434709, Note_off_c, 0, 60, 55
1, 434727, Note_on_c, 0, 75, 68
1, 434733, Note_on_c, 0, 54, 55
1, 434746, Note_on_c, 0, 63, 46
1, 434749, Note_on_c, 0, 66, 51
1, 434801, Note_off_c, 0, 63, 53
1, 434801, Control_c, 0, 64, 34
1, 434820, Control_c, 0, 64, 43
1, 434839, Control_c, 0, 64, 55
1, 434858, Control_c, 0, 64, 61
1, 434861, Note_off_c, 0, 66, 60
1, 434876, Control_c, 0, 64, 62
1, 434894, Control_c, 0, 64, 63
1, 434905, Note_off_c, 0, 57, 53
1, 434906, Note_off_c, 0, 75, 62
1, 434931, Control_c, 0, 64, 65
1, 434941, Note_on_c, 0, 59, 49
1, 434945, Note_off_c, 0, 54, 62
1, 434951, Control_c, 0, 64, 67
1, 434970, Control_c, 0, 64, 70
1, 434988, Control_c, 0, 64, 73
1, 435007, Control_c, 0, 64, 78
1, 435026, Control_c, 0, 64, 84
1, 435044, Control_c, 0, 64, 91
1, 435063, Control_c, 0, 64, 97
1, 435082, Control_c, 0, 64, 103
1, 435083, Control_c, 0, 67, 120
1, 435101, Control_c, 0, 64, 109
1, 435119, Control_c, 0, 67, 115
1, 435156, Control_c, 0, 67, 111
1, 435176, Control_c, 0, 64, 97
1, 435193, Control_c, 0, 64, 84
1, 435213, Control_c, 0, 64, 70
1, 435214, Note_on_c, 0, 76, 74
1, 435227, Note_on_c, 0, 71, 56
1, 435232, Control_c, 0, 64, 57
1, 435233, Control_c, 0, 67, 106
1, 435248, Note_on_c, 0, 55, 41
1, 435250, Control_c, 0, 64, 48
1, 435269, Control_c, 0, 64, 42
1, 435287, Control_c, 0, 64, 40
1, 435307, Control_c, 0, 67, 102
1, 435344, Control_c, 0, 64, 35
1, 435345, Control_c, 0, 67, 95
1, 435362, Control_c, 0, 67, 91
1, 435363, Note_off_c, 0, 59, 52
1, 435382, Control_c, 0, 67, 87
1, 435401, Control_c, 0, 67, 83
1, 435419, Control_c, 0, 67, 78
1, 435430, Note_on_c, 0, 78, 82
1, 435436, Control_c, 0, 67, 73
1, 435458, Control_c, 0, 67, 69
1, 435493, Control_c, 0, 64, 30
1, 435494, Control_c, 0, 67, 64
1, 435495, Note_off_c, 0, 55, 56
1, 435549, Note_off_c, 0, 76, 60
1, 435549, Poly_aftertouch_c, 0, 76, 0
1, 435705, Note_on_c, 0, 79, 80
1, 435718, Note_on_c, 0, 52, 53
1, 435745, Note_off_c, 0, 78, 65
1, 435887, Control_c, 0, 64, 38
1, 435905, Control_c, 0, 64, 44
1, 435924, Control_c, 0, 64, 50
1, 435943, Control_c, 0, 64, 52
1, 435952, Note_off_c, 0, 52, 60
1, 436017, Control_c, 0, 64, 54
1, 436055, Control_c, 0, 64, 57
1, 436130, Control_c, 0, 64, 53
1, 436148, Control_c, 0, 64, 50
1, 436168, Control_c, 0, 64, 47
1, 436186, Control_c, 0, 64, 42
1, 436205, Control_c, 0, 64, 37
1, 436216, Note_on_c, 0, 69, 68
1, 436218, Note_on_c, 0, 49, 45
1, 436224, Control_c, 0, 64, 33
1, 436246, Note_off_c, 0, 71, 61
1, 436449, Note_on_c, 0, 76, 71
1, 436454, Note_off_c, 0, 49, 59
1, 436467, Control_c, 0, 64, 38
1, 436486, Control_c, 0, 64, 41
1, 436504, Control_c, 0, 64, 43
1, 436581, Control_c, 0, 64, 41
1, 436617, Control_c, 0, 64, 34
1, 436635, Control_c, 0, 64, 29
1, 436655, Control_c, 0, 64, 23
1, 436678, Note_on_c, 0, 73, 76
1, 436681, Note_on_c, 0, 57, 57
1, 436691, Control_c, 0, 64, 19
1, 436710, Note_off_c, 0, 79, 56
1, 436714, Note_off_c, 0, 76, 61
1, 436714, Poly_aftertouch_c, 0, 76, 0
1, 436766, Control_c, 0, 64, 26
1, 436786, Control_c, 0, 64, 34
1, 436803, Control_c, 0, 64, 45
1, 436823, Control_c, 0, 64, 57
1, 436843, Control_c, 0, 64, 64
1, 436860, Control_c, 0, 64, 65
1, 436875, Note_off_c, 0, 57, 63
1, 436878, Control_c, 0, 64, 67
1, 436897, Control_c, 0, 64, 69
1, 436904, Note_on_c, 0, 81, 73
1, 436917, Control_c, 0, 64, 71
1, 436935, Control_c, 0, 64, 75
1, 436954, Control_c, 0, 64, 78
1, 436973, Control_c, 0, 64, 82
1, 436992, Control_c, 0, 64, 85
1, 437009, Note_off_c, 0, 73, 48
1, 437028, Control_c, 0, 64, 92
1, 437122, Control_c, 0, 64, 83
1, 437141, Control_c, 0, 64, 71
1, 437148, Note_on_c, 0, 77, 71
1, 437151, Note_on_c, 0, 62, 58
1, 437160, Control_c, 0, 64, 58
1, 437179, Control_c, 0, 64, 45
1, 437197, Control_c, 0, 64, 34
1, 437216, Control_c, 0, 64, 25
1, 437234, Control_c, 0, 64, 19
1, 437347, Control_c, 0, 64, 27
1, 437367, Control_c, 0, 64, 37
1, 437372, Note_on_c, 0, 64, 67
1, 437385, Control_c, 0, 64, 52
1, 437386, Note_off_c, 0, 69, 56
1, 437386, Poly_aftertouch_c, 0, 69, 0
1, 437399, Note_off_c, 0, 62, 62
1, 437402, Control_c, 0, 64, 64
1, 437422, Control_c, 0, 64, 68
1, 437429, Note_off_c, 0, 77, 56
1, 437429, Note_off_c, 0, 81, 34
1, 437459, Control_c, 0, 67, 60
1, 437478, Control_c, 0, 64, 70
1, 437498, Control_c, 0, 64, 72
1, 437500, Control_c, 0, 67, 55
1, 437534, Control_c, 0, 64, 74
1, 437571, Control_c, 0, 64, 70
1, 437591, Control_c, 0, 64, 66
1, 437608, Control_c, 0, 64, 60
1, 437628, Control_c, 0, 64, 51
1, 437629, Control_c, 0, 67, 51
1, 437643, Note_on_c, 0, 65, 65
1, 437645, Note_off_c, 0, 64, 63
1, 437647, Note_on_c, 0, 74, 68
1, 437647, Control_c, 0, 64, 38
1, 437665, Control_c, 0, 64, 23
1, 437672, Note_on_c, 0, 69, 58
1, 437685, Control_c, 0, 64, 13
1, 437702, Control_c, 0, 67, 45
1, 437739, Control_c, 0, 67, 36
1, 437758, Control_c, 0, 67, 27
1, 437777, Control_c, 0, 67, 11
1, 437796, Control_c, 0, 64, 20
1, 437798, Control_c, 0, 67, 0
1, 437814, Control_c, 0, 64, 31
1, 437816, Note_off_c, 0, 69, 59
1, 437816, Poly_aftertouch_c, 0, 69, 0
1, 437828, Note_off_c, 0, 74, 60
1, 437832, Control_c, 0, 64, 47
1, 437853, Control_c, 0, 64, 62
1, 437870, Control_c, 0, 64, 66
1, 437890, Control_c, 0, 64, 67
1, 437908, Control_c, 0, 64, 69
1, 437928, Control_c, 0, 64, 73
1, 437945, Control_c, 0, 64, 78
1, 437965, Control_c, 0, 64, 85
1, 437984, Control_c, 0, 64, 87
1, 438002, Control_c, 0, 64, 83
1, 438021, Control_c, 0, 64, 76
1, 438040, Control_c, 0, 64, 67
1, 438059, Control_c, 0, 64, 54
1, 438077, Control_c, 0, 64, 41
1, 438095, Control_c, 0, 64, 27
1, 438116, Control_c, 0, 64, 16
1, 438132, Control_c, 0, 64, 10
1, 438137, Note_on_c, 0, 71, 71
1, 438150, Note_on_c, 0, 68, 60
1, 438265, Control_c, 0, 64, 21
1, 438282, Control_c, 0, 64, 36
1, 438302, Control_c, 0, 64, 57
1, 438320, Control_c, 0, 64, 69
1, 438339, Control_c, 0, 64, 72
1, 438357, Note_on_c, 0, 62, 57
1, 438363, Note_off_c, 0, 71, 59
1, 438377, Control_c, 0, 64, 76
1, 438392, Note_off_c, 0, 68, 37
1, 438395, Control_c, 0, 64, 83
1, 438413, Control_c, 0, 64, 93
1, 438433, Control_c, 0, 64, 105
1, 438451, Control_c, 0, 64, 117
1, 438469, Control_c, 0, 64, 127
1, 438526, Control_c, 0, 64, 108
1, 438545, Control_c, 0, 64, 90
1, 438563, Control_c, 0, 64, 69
1, 438582, Control_c, 0, 64, 47
1, 438601, Note_on_c, 0, 80, 81
1, 438601, Control_c, 0, 64, 23
1, 438613, Note_on_c, 0, 59, 57
1, 438617, Note_on_c, 0, 71, 66
1, 438620, Note_on_c, 0, 68, 55
1, 438707, Note_off_c, 0, 68, 62
1, 438713, Control_c, 0, 64, 16
1, 438720, Note_off_c, 0, 71, 61
1, 438732, Control_c, 0, 64, 29
1, 438750, Control_c, 0, 64, 48
1, 438769, Note_off_c, 0, 65, 41
1, 438769, Control_c, 0, 64, 64
1, 438788, Control_c, 0, 64, 70
1, 438791, Note_off_c, 0, 80, 63
1, 438807, Control_c, 0, 64, 72
1, 438814, Note_off_c, 0, 62, 59
1, 438845, Control_c, 0, 64, 77
1, 438863, Control_c, 0, 64, 86
1, 438868, Note_on_c, 0, 64, 57
1, 438883, Control_c, 0, 64, 98
1, 438890, Note_off_c, 0, 59, 56
1, 438900, Control_c, 0, 64, 116
1, 438920, Control_c, 0, 64, 127
1, 438954, Note_off_c, 0, 64, 59
1, 439087, Control_c, 0, 64, 97
1, 439106, Control_c, 0, 64, 73
1, 439108, Note_on_c, 0, 81, 84
1, 439122, Note_on_c, 0, 64, 73
1, 439125, Control_c, 0, 64, 53
1, 439139, Note_on_c, 0, 60, 64
1, 439142, Control_c, 0, 64, 40
1, 439162, Control_c, 0, 64, 33
1, 439182, Control_c, 0, 64, 27
1, 439200, Control_c, 0, 64, 23
1, 439237, Control_c, 0, 64, 18
1, 439320, Note_off_c, 0, 60, 55
1, 439338, Note_on_c, 0, 83, 87
1, 439387, Note_off_c, 0, 81, 62
1, 439613, Note_on_c, 0, 84, 84
1, 439635, Note_on_c, 0, 57, 60
1, 439641, Note_off_c, 0, 83, 63
1, 439799, Control_c, 0, 64, 30
1, 439817, Control_c, 0, 64, 42
1, 439834, Note_off_c, 0, 57, 61
1, 439835, Control_c, 0, 64, 54
1, 439855, Control_c, 0, 64, 59
1, 439911, Control_c, 0, 64, 56
1, 439930, Control_c, 0, 64, 54
1, 439948, Control_c, 0, 64, 52
1, 439967, Control_c, 0, 64, 49
1, 439986, Control_c, 0, 64, 45
1, 440005, Control_c, 0, 64, 40
1, 440023, Control_c, 0, 64, 33
1, 440043, Control_c, 0, 64, 27
1, 440061, Control_c, 0, 64, 21
1, 440080, Control_c, 0, 64, 17
1, 440098, Note_on_c, 0, 54, 62
1, 440117, Control_c, 0, 64, 12
1, 440229, Control_c, 0, 64, 19
1, 440249, Control_c, 0, 64, 25
1, 440267, Control_c, 0, 64, 34
1, 440286, Control_c, 0, 64, 49
1, 440291, Note_off_c, 0, 64, 62
1, 440300, Note_on_c, 0, 81, 67
1, 440305, Control_c, 0, 64, 60
1, 440323, Control_c, 0, 64, 63
1, 440341, Control_c, 0, 64, 64
1, 440361, Control_c, 0, 64, 67
1, 440379, Control_c, 0, 64, 70
1, 440380, Note_off_c, 0, 54, 62
1, 440399, Control_c, 0, 64, 75
1, 440416, Control_c, 0, 64, 79
1, 440436, Control_c, 0, 64, 82
1, 440529, Control_c, 0, 64, 78
1, 440547, Control_c, 0, 64, 68
1, 440560, Note_on_c, 0, 63, 67
1, 440566, Control_c, 0, 64, 55
1, 440575, Note_on_c, 0, 78, 71
1, 440586, Control_c, 0, 64, 41
1, 440597, Note_off_c, 0, 81, 61
1, 440603, Control_c, 0, 64, 29
1, 440622, Control_c, 0, 64, 22
1, 440697, Control_c, 0, 64, 36
1, 440716, Control_c, 0, 64, 53
1, 440735, Control_c, 0, 64, 65
1, 440753, Control_c, 0, 64, 70
1, 440791, Note_off_c, 0, 63, 52
1, 440791, Control_c, 0, 64, 75
1, 440793, Note_on_c, 0, 83, 70
1, 440809, Control_c, 0, 64, 81
1, 440814, Note_off_c, 0, 78, 62
1, 440830, Control_c, 0, 64, 93
1, 440847, Control_c, 0, 64, 114
1, 440866, Control_c, 0, 64, 127
1, 441014, Control_c, 0, 64, 97
1, 441034, Control_c, 0, 64, 75
1, 441046, Note_on_c, 0, 79, 75
1, 441047, Note_on_c, 0, 64, 67
1, 441054, Control_c, 0, 64, 57
1, 441072, Control_c, 0, 64, 43
1, 441091, Control_c, 0, 64, 36
1, 441128, Control_c, 0, 64, 32
1, 441131, Note_off_c, 0, 83, 59
1, 441177, Note_off_c, 0, 84, 55
1, 441240, Control_c, 0, 64, 28
1, 441282, Note_on_c, 0, 81, 80
1, 441333, Note_off_c, 0, 79, 60
1, 441543, Note_on_c, 0, 82, 72
1, 441561, Note_on_c, 0, 67, 58
1, 441591, Note_off_c, 0, 81, 58
1, 441741, Note_off_c, 0, 67, 43
1, 441741, Poly_aftertouch_c, 0, 67, 0
1, 442035, Note_on_c, 0, 61, 48
1, 442195, Note_off_c, 0, 61, 59
1, 442257, Note_on_c, 0, 79, 56
1, 442505, Note_on_c, 0, 61, 52
1, 442505, Note_on_c, 0, 69, 49
1, 442513, Note_on_c, 0, 76, 54
1, 442516, Note_off_c, 0, 79, 56
1, 442526, Note_off_c, 0, 82, 59
1, 442571, Note_off_c, 0, 64, 53
1, 442729, Note_on_c, 0, 81, 59
1, 442762, Note_off_c, 0, 76, 54
1, 442762, Poly_aftertouch_c, 0, 76, 0
1, 442851, Control_c, 0, 64, 24
1, 442992, Note_on_c, 0, 77, 63
1, 443011, Note_on_c, 0, 62, 56
1, 443013, Note_off_c, 0, 61, 61
1, 443026, Note_off_c, 0, 69, 54
1, 443026, Poly_aftertouch_c, 0, 69, 0
1, 443164, Note_off_c, 0, 81, 32
1, 443219, Note_on_c, 0, 79, 63
1, 443260, Note_off_c, 0, 77, 56
1, 443464, Note_on_c, 0, 80, 59
1, 443471, Note_off_c, 0, 79, 54
1, 443491, Note_on_c, 0, 65, 44
1, 443845, Note_off_c, 0, 65, 38
1, 443997, Note_on_c, 0, 59, 45
1, 444069, Note_off_c, 0, 59, 52
1, 444199, Note_on_c, 0, 77, 59
1, 444273, Control_c, 0, 67, 8
1, 444329, Control_c, 0, 67, 14
1, 444366, Control_c, 0, 67, 18
1, 444438, Note_off_c, 0, 62, 54
1, 444446, Note_on_c, 0, 74, 52
1, 444447, Note_off_c, 0, 77, 56
1, 444453, Note_on_c, 0, 59, 43
1, 444466, Note_off_c, 0, 80, 53
1, 444476, Note_on_c, 0, 67, 33
1, 444531, Poly_aftertouch_c, 0, 65, 0
1, 444663, Note_on_c, 0, 79, 68
1, 444745, Note_off_c, 0, 74, 54
1, 444890, Control_c, 0, 67, 14
1, 444899, Note_off_c, 0, 59, 60
1, 444904, Note_off_c, 0, 67, 52
1, 444904, Poly_aftertouch_c, 0, 67, 0
1, 444909, Note_on_c, 0, 76, 70
1, 444919, Note_on_c, 0, 72, 70
1, 444920, Note_on_c, 0, 60, 56
1, 444938, Note_off_c, 0, 79, 52
1, 445058, Control_c, 0, 64, 34
1, 445078, Control_c, 0, 64, 46
1, 445095, Control_c, 0, 64, 57
1, 445115, Control_c, 0, 64, 63
1, 445118, Note_off_c, 0, 76, 61
1, 445118, Poly_aftertouch_c, 0, 76, 0
1, 445122, Note_off_c, 0, 72, 58
1, 445122, Poly_aftertouch_c, 0, 72, 0
1, 445129, Note_on_c, 0, 74, 80
1, 445135, Control_c, 0, 64, 65
1, 445153, Control_c, 0, 64, 69
1, 445170, Control_c, 0, 64, 73
1, 445172, Note_off_c, 0, 60, 61
1, 445190, Control_c, 0, 64, 80
1, 445209, Control_c, 0, 64, 87
1, 445227, Control_c, 0, 64, 92
1, 445265, Control_c, 0, 64, 97
1, 445320, Control_c, 0, 64, 86
1, 445340, Control_c, 0, 64, 71
1, 445357, Control_c, 0, 64, 54
1, 445377, Control_c, 0, 64, 37
1, 445382, Note_on_c, 0, 81, 76
1, 445383, Note_on_c, 0, 75, 86
1, 445390, Note_on_c, 0, 72, 71
1, 445397, Control_c, 0, 64, 25
1, 445415, Control_c, 0, 64, 21
1, 445422, Note_off_c, 0, 74, 61
1, 445489, Control_c, 0, 64, 29
1, 445508, Control_c, 0, 64, 43
1, 445527, Control_c, 0, 64, 60
1, 445546, Control_c, 0, 64, 69
1, 445553, Note_off_c, 0, 72, 59
1, 445553, Poly_aftertouch_c, 0, 72, 0
1, 445564, Control_c, 0, 64, 74
1, 445583, Control_c, 0, 64, 77
1, 445602, Control_c, 0, 64, 82
1, 445621, Control_c, 0, 64, 91
1, 445638, Control_c, 0, 64, 101
1, 445658, Control_c, 0, 64, 108
1, 445695, Control_c, 0, 64, 113
1, 445714, Control_c, 0, 64, 124
1, 445863, Control_c, 0, 64, 89
1, 445868, Note_on_c, 0, 60, 84
1, 445871, Note_on_c, 0, 69, 80
1, 445875, Note_on_c, 0, 78, 79
1, 445882, Control_c, 0, 64, 63
1, 445900, Control_c, 0, 64, 41
1, 445920, Control_c, 0, 64, 27
1, 445925, Note_off_c, 0, 75, 62
1, 445939, Control_c, 0, 64, 22
1, 446013, Control_c, 0, 64, 30
1, 446032, Control_c, 0, 64, 37
1, 446050, Control_c, 0, 64, 46
1, 446070, Control_c, 0, 64, 55
1, 446082, Note_off_c, 0, 69, 53
1, 446082, Poly_aftertouch_c, 0, 69, 0
1, 446088, Control_c, 0, 64, 61
1, 446098, Note_on_c, 0, 72, 79
1, 446106, Control_c, 0, 64, 65
1, 446127, Control_c, 0, 64, 67
1, 446163, Control_c, 0, 64, 70
1, 446220, Control_c, 0, 64, 72
1, 446283, Poly_aftertouch_c, 0, 81, 24
1, 446334, Note_on_c, 0, 69, 75
1, 446337, Note_on_c, 0, 62, 76
1, 446340, Note_off_c, 0, 72, 59
1, 446340, Poly_aftertouch_c, 0, 72, 0
1, 446350, Control_c, 0, 64, 70
1, 446500, Note_off_c, 0, 81, 19
1, 446500, Poly_aftertouch_c, 0, 81, 0
1, 446538, Control_c, 0, 67, 9
1, 446545, Note_on_c, 0, 74, 78
1, 446575, Control_c, 0, 64, 72
1, 446576, Control_c, 0, 67, 0
1, 446597, Note_off_c, 0, 69, 56
1, 446597, Poly_aftertouch_c, 0, 69, 0
1, 446612, Control_c, 0, 64, 76
1, 446631, Control_c, 0, 64, 78
1, 446649, Control_c, 0, 64, 82
1, 446669, Control_c, 0, 64, 86
1, 446674, Note_off_c, 0, 78, 56
1, 446706, Control_c, 0, 64, 92
1, 446781, Control_c, 0, 64, 83
1, 446799, Control_c, 0, 64, 71
1, 446809, Note_on_c, 0, 79, 86
1, 446818, Control_c, 0, 64, 54
1, 446820, Note_on_c, 0, 59, 74
1, 446826, Note_off_c, 0, 74, 61
1, 446826, Note_on_c, 0, 67, 61
1, 446836, Control_c, 0, 64, 37
1, 446845, Note_off_c, 0, 60, 42
1, 446857, Control_c, 0, 64, 22
1, 446875, Control_c, 0, 64, 14
1, 446893, Note_on_c, 0, 69, 17
1, 446893, Poly_aftertouch_c, 0, 69, 0
1, 446894, Note_off_c, 0, 69, 127
1, 446912, Control_c, 0, 64, 10
1, 447025, Control_c, 0, 64, 14
1, 447043, Control_c, 0, 64, 20
1, 447061, Control_c, 0, 64, 30
1, 447069, Note_on_c, 0, 73, 82
1, 447081, Control_c, 0, 64, 45
1, 447098, Control_c, 0, 64, 61
1, 447119, Control_c, 0, 64, 67
1, 447173, Control_c, 0, 64, 71
1, 447193, Control_c, 0, 64, 73
1, 447211, Control_c, 0, 64, 76
1, 447230, Control_c, 0, 64, 79
1, 447287, Control_c, 0, 64, 81
1, 447301, Note_on_c, 0, 74, 82
1, 447304, Control_c, 0, 64, 84
1, 447325, Control_c, 0, 64, 88
1, 447343, Control_c, 0, 64, 96
1, 447351, Note_off_c, 0, 67, 58
1, 447351, Poly_aftertouch_c, 0, 67, 0
1, 447360, Note_off_c, 0, 73, 56
1, 447361, Control_c, 0, 64, 104
1, 447379, Control_c, 0, 64, 112
1, 447398, Control_c, 0, 64, 119
1, 447417, Control_c, 0, 64, 127
1, 447499, Note_on_c, 0, 66, 83
1, 447588, Note_off_c, 0, 59, 61
1, 447596, Note_off_c, 0, 66, 54
1, 447755, Control_c, 0, 64, 114
1, 447759, Note_on_c, 0, 58, 84
1, 447764, Note_on_c, 0, 67, 83
1, 447773, Control_c, 0, 64, 79
1, 447776, Note_off_c, 0, 62, 61
1, 447791, Control_c, 0, 64, 54
1, 447812, Control_c, 0, 64, 35
1, 447829, Control_c, 0, 64, 26
1, 447922, Control_c, 0, 64, 35
1, 447942, Control_c, 0, 64, 49
1, 447960, Control_c, 0, 64, 63
1, 447980, Control_c, 0, 64, 69
1, 447997, Control_c, 0, 64, 71
1, 448000, Note_on_c, 0, 70, 79
1, 448016, Control_c, 0, 64, 73
1, 448035, Note_off_c, 0, 67, 59
1, 448035, Poly_aftertouch_c, 0, 67, 0
1, 448035, Control_c, 0, 64, 78
1, 448054, Control_c, 0, 64, 89
1, 448072, Control_c, 0, 64, 108
1, 448092, Control_c, 0, 64, 127
1, 448115, Note_off_c, 0, 74, 55
1, 448203, Control_c, 0, 64, 104
1, 448223, Note_on_c, 0, 64, 80
1, 448223, Control_c, 0, 64, 77
1, 448237, Note_on_c, 0, 67, 73
1, 448239, Control_c, 0, 64, 57
1, 448248, Note_off_c, 0, 70, 57
1, 448248, Poly_aftertouch_c, 0, 70, 0
1, 448259, Control_c, 0, 64, 47
1, 448297, Control_c, 0, 64, 55
1, 448302, Note_off_c, 0, 79, 31
1, 448315, Control_c, 0, 64, 62
1, 448335, Control_c, 0, 64, 67
1, 448349, Note_off_c, 0, 67, 60
1, 448349, Poly_aftertouch_c, 0, 67, 0
1, 448353, Control_c, 0, 64, 72
1, 448371, Control_c, 0, 64, 76
1, 448390, Control_c, 0, 64, 81
1, 448410, Control_c, 0, 64, 89
1, 448429, Control_c, 0, 64, 98
1, 448434, Note_on_c, 0, 76, 72
1, 448436, Note_off_c, 0, 64, 60
1, 448446, Control_c, 0, 64, 111
1, 448448, Note_on_c, 0, 67, 80
1, 448465, Control_c, 0, 64, 127
1, 448643, Note_off_c, 0, 58, 59
1, 448666, Note_off_c, 0, 67, 56
1, 448666, Poly_aftertouch_c, 0, 67, 0
1, 448670, Control_c, 0, 64, 116
1, 448682, Note_on_c, 0, 77, 78
1, 448690, Control_c, 0, 64, 81
1, 448693, Note_on_c, 0, 60, 72
1, 448695, Note_on_c, 0, 57, 80
1, 448710, Control_c, 0, 64, 59
1, 448714, Note_off_c, 0, 76, 57
1, 448714, Poly_aftertouch_c, 0, 76, 0
1, 448727, Control_c, 0, 64, 44
1, 448747, Control_c, 0, 64, 39
1, 448918, Note_on_c, 0, 71, 74
1, 449064, Control_c, 0, 64, 35
1, 449142, Note_on_c, 0, 72, 80
1, 449177, Control_c, 0, 64, 41
1, 449189, Note_off_c, 0, 71, 60
1, 449194, Control_c, 0, 64, 52
1, 449214, Control_c, 0, 64, 61
1, 449233, Control_c, 0, 64, 65
1, 449251, Control_c, 0, 64, 67
1, 449289, Control_c, 0, 64, 70
1, 449308, Control_c, 0, 64, 75
1, 449326, Control_c, 0, 64, 80
1, 449346, Control_c, 0, 64, 89
1, 449359, Note_on_c, 0, 64, 70
1, 449365, Control_c, 0, 64, 98
1, 449367, Note_off_c, 0, 60, 60
1, 449382, Control_c, 0, 64, 109
1, 449401, Control_c, 0, 64, 127
1, 449442, Note_off_c, 0, 64, 61
1, 449588, Note_on_c, 0, 56, 81
1, 449588, Control_c, 0, 64, 105
1, 449608, Control_c, 0, 64, 73
1, 449615, Note_on_c, 0, 65, 70
1, 449625, Note_off_c, 0, 57, 62
1, 449625, Control_c, 0, 64, 47
1, 449644, Control_c, 0, 64, 28
1, 449664, Control_c, 0, 64, 23
1, 449719, Control_c, 0, 64, 28
1, 449739, Control_c, 0, 64, 36
1, 449757, Control_c, 0, 64, 48
1, 449776, Control_c, 0, 64, 62
1, 449794, Control_c, 0, 64, 70
1, 449814, Control_c, 0, 64, 76
1, 449821, Note_on_c, 0, 68, 70
1, 449823, Note_off_c, 0, 72, 60
1, 449823, Poly_aftertouch_c, 0, 72, 0
1, 449832, Note_off_c, 0, 65, 60
1, 449833, Control_c, 0, 64, 82
1, 449850, Control_c, 0, 64, 92
1, 449869, Control_c, 0, 64, 112
1, 449890, Control_c, 0, 64, 127
1, 450038, Control_c, 0, 64, 107
1, 450055, Control_c, 0, 64, 76
1, 450059, Note_on_c, 0, 62, 73
1, 450062, Note_off_c, 0, 68, 59
1, 450066, Note_on_c, 0, 65, 75
1, 450075, Control_c, 0, 64, 54
1, 450094, Control_c, 0, 64, 38
1, 450150, Control_c, 0, 64, 52
1, 450169, Control_c, 0, 64, 68
1, 450180, Note_off_c, 0, 65, 53
1, 450187, Control_c, 0, 64, 81
1, 450206, Control_c, 0, 64, 94
1, 450225, Control_c, 0, 64, 102
1, 450243, Control_c, 0, 64, 107
1, 450262, Control_c, 0, 64, 115
1, 450265, Note_on_c, 0, 74, 74
1, 450270, Note_off_c, 0, 62, 54
1, 450281, Control_c, 0, 64, 127
1, 450282, Note_on_c, 0, 65, 68
1, 450506, Control_c, 0, 64, 103
1, 450520, Note_off_c, 0, 74, 59
1, 450520, Note_on_c, 0, 59, 72
1, 450524, Control_c, 0, 64, 74
1, 450525, Note_off_c, 0, 56, 60
1, 450527, Note_on_c, 0, 75, 78
1, 450529, Note_off_c, 0, 65, 55
1, 450529, Note_on_c, 0, 55, 69
1, 450545, Control_c, 0, 64, 52
1, 450550, Poly_aftertouch_c, 0, 77, 24
1, 450562, Control_c, 0, 64, 37
1, 450570, Note_off_c, 0, 77, 46
1, 450570, Poly_aftertouch_c, 0, 77, 0
1, 450580, Control_c, 0, 64, 32
1, 450749, Control_c, 0, 64, 38
1, 450755, Note_on_c, 0, 74, 76
1, 450759, Note_off_c, 0, 75, 53
1, 450767, Control_c, 0, 64, 42
1, 450786, Control_c, 0, 64, 45
1, 450806, Control_c, 0, 64, 47
1, 450824, Control_c, 0, 64, 51
1, 450843, Control_c, 0, 64, 58
1, 450861, Control_c, 0, 64, 65
1, 450881, Control_c, 0, 64, 69
1, 450899, Control_c, 0, 64, 71
1, 450936, Control_c, 0, 64, 69
1, 450956, Control_c, 0, 64, 63
1, 450974, Control_c, 0, 64, 55
1, 450992, Control_c, 0, 64, 47
1, 450998, Note_on_c, 0, 77, 74
1, 451003, Note_on_c, 0, 62, 66
1, 451005, Note_off_c, 0, 59, 62
1, 451010, Control_c, 0, 64, 42
1, 451012, Note_off_c, 0, 74, 63
1, 451048, Control_c, 0, 64, 44
1, 451068, Control_c, 0, 64, 51
1, 451086, Control_c, 0, 64, 58
1, 451105, Control_c, 0, 64, 64
1, 451123, Control_c, 0, 64, 71
1, 451143, Control_c, 0, 64, 78
1, 451161, Control_c, 0, 64, 88
1, 451179, Control_c, 0, 64, 100
1, 451198, Control_c, 0, 64, 116
1, 451217, Control_c, 0, 64, 127
1, 451497, Control_c, 0, 64, 85
1, 451499, Note_on_c, 0, 67, 86
1, 451509, Note_on_c, 0, 60, 72
1, 451515, Control_c, 0, 64, 58
1, 451535, Control_c, 0, 64, 31
1, 451555, Control_c, 0, 64, 11
1, 451561, Note_off_c, 0, 62, 54
1, 451585, Note_off_c, 0, 55, 59
1, 451666, Control_c, 0, 64, 21
1, 451685, Control_c, 0, 64, 34
1, 451704, Control_c, 0, 64, 55
1, 451722, Control_c, 0, 64, 73
1, 451740, Control_c, 0, 64, 89
1, 451745, Note_on_c, 0, 75, 80
1, 451760, Control_c, 0, 64, 108
1, 451778, Control_c, 0, 64, 127
1, 451826, Note_off_c, 0, 77, 59
1, 451826, Poly_aftertouch_c, 0, 77, 0
1, 451985, Control_c, 0, 64, 92
1, 451988, Note_on_c, 0, 72, 78
1, 451996, Note_off_c, 0, 75, 63
1, 452004, Control_c, 0, 64, 64
1, 452012, Note_on_c, 0, 63, 59
1, 452022, Control_c, 0, 64, 43
1, 452059, Control_c, 0, 64, 50
1, 452078, Control_c, 0, 64, 65
1, 452098, Control_c, 0, 64, 81
1, 452116, Control_c, 0, 64, 105
1, 452134, Control_c, 0, 64, 127
1, 452206, Note_on_c, 0, 75, 74
1, 452225, Note_off_c, 0, 72, 62
1, 452225, Poly_aftertouch_c, 0, 72, 0
1, 452267, Note_off_c, 0, 67, 61
1, 452267, Poly_aftertouch_c, 0, 67, 0
1, 452420, Note_off_c, 0, 63, 38
1, 452435, Control_c, 0, 64, 116
1, 452448, Note_on_c, 0, 66, 82
1, 452451, Control_c, 0, 64, 78
1, 452460, Note_on_c, 0, 62, 63
1, 452470, Control_c, 0, 64, 53
1, 452471, Note_on_c, 0, 69, 58
1, 452490, Control_c, 0, 64, 33
1, 452500, Note_on_c, 0, 68, 41
1, 452501, Note_off_c, 0, 75, 63
1, 452507, Control_c, 0, 64, 23
1, 452546, Control_c, 0, 64, 18
1, 452557, Note_off_c, 0, 68, 29
1, 452671, Note_on_c, 0, 75, 75
1, 452672, Poly_aftertouch_c, 0, 68, 0
1, 452922, Note_on_c, 0, 74, 76
1, 452961, Note_off_c, 0, 69, 58
1, 452961, Poly_aftertouch_c, 0, 69, 0
1, 452990, Note_off_c, 0, 75, 62
1, 452994, Control_c, 0, 64, 23
1, 453015, Control_c, 0, 64, 36
1, 453033, Control_c, 0, 64, 54
1, 453050, Control_c, 0, 64, 65
1, 453070, Control_c, 0, 64, 69
1, 453108, Control_c, 0, 64, 73
1, 453126, Control_c, 0, 64, 80
1, 453145, Control_c, 0, 64, 93
1, 453164, Control_c, 0, 64, 118
1, 453182, Control_c, 0, 64, 127
1, 453404, Note_on_c, 0, 65, 76
1, 453408, Note_off_c, 0, 60, 60
1, 453417, Note_on_c, 0, 59, 76
1, 453426, Control_c, 0, 64, 76
1, 453432, Note_off_c, 0, 62, 56
1, 453446, Control_c, 0, 64, 45
1, 453463, Control_c, 0, 64, 19
1, 453483, Control_c, 0, 64, 12
1, 453538, Control_c, 0, 64, 25
1, 453558, Control_c, 0, 64, 41
1, 453576, Control_c, 0, 64, 62
1, 453594, Control_c, 0, 64, 76
1, 453613, Control_c, 0, 64, 88
1, 453630, Note_on_c, 0, 68, 81
1, 453630, Control_c, 0, 64, 103
1, 453650, Control_c, 0, 64, 127
1, 453670, Note_off_c, 0, 66, 61
1, 453837, Note_off_c, 0, 74, 55
1, 453858, Note_on_c, 0, 67, 85
1, 453871, Note_off_c, 0, 68, 63
1, 454080, Note_on_c, 0, 74, 84
1, 454107, Note_off_c, 0, 67, 57
1, 454107, Poly_aftertouch_c, 0, 67, 0
1, 454139, Note_off_c, 0, 65, 61
1, 454306, Control_c, 0, 64, 87
1, 454323, Note_off_c, 0, 59, 62
1, 454324, Control_c, 0, 64, 50
1, 454326, Note_on_c, 0, 60, 73
1, 454328, Note_on_c, 0, 79, 81
1, 454332, Note_on_c, 0, 64, 73
1, 454348, Note_off_c, 0, 74, 61
1, 454362, Control_c, 0, 64, 0
1, 454437, Control_c, 0, 64, 16
1, 454455, Control_c, 0, 64, 42
1, 454475, Control_c, 0, 64, 69
1, 454493, Control_c, 0, 64, 86
1, 454512, Control_c, 0, 64, 102
1, 454530, Control_c, 0, 64, 110
1, 454537, Note_on_c, 0, 71, 81
1, 454549, Control_c, 0, 64, 127
1, 454634, Note_off_c, 0, 79, 45
1, 454787, Note_on_c, 0, 72, 85
1, 454792, Control_c, 0, 64, 86
1, 454793, Note_on_c, 0, 57, 76
1, 454811, Control_c, 0, 64, 51
1, 454828, Note_off_c, 0, 71, 61
1, 454828, Control_c, 0, 64, 16
1, 454857, Note_off_c, 0, 60, 49
1, 454886, Control_c, 0, 64, 27
1, 454904, Control_c, 0, 64, 63
1, 454923, Control_c, 0, 64, 110
1, 454942, Control_c, 0, 64, 127
1, 455016, Note_off_c, 0, 64, 61
1, 455259, Control_c, 0, 64, 76
1, 455262, Note_on_c, 0, 63, 87
1, 455269, Note_off_c, 0, 57, 62
1, 455273, Note_on_c, 0, 55, 74
1, 455278, Control_c, 0, 64, 24
1, 455297, Control_c, 0, 64, 0
1, 455373, Control_c, 0, 64, 54
1, 455391, Control_c, 0, 64, 127
1, 455492, Note_on_c, 0, 81, 88
1, 455533, Note_off_c, 0, 72, 59
1, 455533, Poly_aftertouch_c, 0, 72, 0
1, 455757, Note_on_c, 0, 54, 74
1, 455758, Note_on_c, 0, 71, 90
1, 455766, Control_c, 0, 64, 78
1, 455784, Control_c, 0, 64, 27
1, 455790, Note_off_c, 0, 55, 61
1, 455803, Control_c, 0, 64, 0
1, 455859, Control_c, 0, 64, 37
1, 455878, Control_c, 0, 64, 99
1, 455897, Control_c, 0, 64, 127
1, 455989, Note_on_c, 0, 72, 87
1, 456023, Note_off_c, 0, 71, 58
1, 456138, Note_off_c, 0, 63, 34
1, 456217, Note_off_c, 0, 81, 26
1, 456217, Poly_aftertouch_c, 0, 81, 0
1, 456239, Note_off_c, 0, 72, 61
1, 456239, Poly_aftertouch_c, 0, 72, 0
1, 456240, Note_on_c, 0, 71, 80
1, 456247, Note_off_c, 0, 54, 59
1, 456252, Control_c, 0, 64, 122
1, 456258, Note_on_c, 0, 62, 70
1, 456260, Note_on_c, 0, 55, 59
1, 456272, Control_c, 0, 64, 62
1, 456290, Control_c, 0, 64, 0
1, 456421, Control_c, 0, 64, 21
1, 456439, Control_c, 0, 64, 55
1, 456458, Control_c, 0, 64, 91
1, 456477, Control_c, 0, 64, 127
1, 456750, Note_on_c, 0, 67, 62
1, 456795, Control_c, 0, 64, 80
1, 456815, Control_c, 0, 64, 56
1, 456833, Control_c, 0, 64, 43
1, 456871, Control_c, 0, 67, 8
1, 456888, Control_c, 0, 67, 15
1, 456907, Control_c, 0, 67, 19
1, 456944, Control_c, 0, 64, 41
1, 456945, Control_c, 0, 67, 24
1, 456951, Note_on_c, 0, 66, 63
1, 456955, Note_off_c, 0, 67, 60
1, 456955, Poly_aftertouch_c, 0, 67, 0
1, 456963, Control_c, 0, 67, 29
1, 456983, Control_c, 0, 67, 37
1, 457001, Control_c, 0, 64, 37
1, 457002, Control_c, 0, 67, 48
1, 457020, Note_off_c, 0, 62, 61
1, 457020, Control_c, 0, 67, 59
1, 457038, Control_c, 0, 64, 32
1, 457040, Control_c, 0, 67, 68
1, 457058, Control_c, 0, 67, 75
1, 457076, Control_c, 0, 64, 22
1, 457077, Control_c, 0, 67, 84
1, 457085, Note_off_c, 0, 55, 60
1, 457095, Control_c, 0, 64, 16
1, 457097, Control_c, 0, 67, 95
1, 457113, Control_c, 0, 67, 106
1, 457132, Control_c, 0, 64, 10
1, 457133, Control_c, 0, 67, 113
1, 457151, Control_c, 0, 67, 119
1, 457170, Control_c, 0, 64, 0
1, 457171, Control_c, 0, 67, 127
1, 457223, Note_on_c, 0, 70, 60
1, 457229, Note_on_c, 0, 67, 53
1, 457237, Note_off_c, 0, 66, 61
1, 457275, Note_off_c, 0, 71, 61
1, 457483, Note_on_c, 0, 52, 54
1, 457699, Note_on_c, 0, 53, 52
1, 457719, Note_off_c, 0, 52, 51
1, 457894, Note_off_c, 0, 53, 60
1, 457915, Note_on_c, 0, 55, 52
1, 458176, Note_on_c, 0, 69, 61
1, 458179, Note_on_c, 0, 49, 46
1, 458187, Note_off_c, 0, 55, 50
1, 458198, Note_off_c, 0, 70, 51
1, 458198, Poly_aftertouch_c, 0, 70, 0
1, 458389, Note_on_c, 0, 52, 56
1, 458392, Note_off_c, 0, 49, 56
1, 458641, Note_off_c, 0, 52, 55
1, 458649, Note_on_c, 0, 74, 58
1, 458652, Note_on_c, 0, 45, 51
1, 458871, Note_on_c, 0, 73, 63
1, 458918, Note_off_c, 0, 67, 55
1, 458918, Poly_aftertouch_c, 0, 67, 0
1, 458923, Note_off_c, 0, 74, 50
1, 459106, Note_on_c, 0, 74, 61
1, 459124, Note_on_c, 0, 65, 59
1, 459139, Poly_aftertouch_c, 0, 69, 24
1, 459152, Note_off_c, 0, 69, 57
1, 459152, Poly_aftertouch_c, 0, 69, 0
1, 459173, Note_off_c, 0, 73, 52
1, 459330, Note_off_c, 0, 45, 60
1, 459345, Note_on_c, 0, 59, 63
1, 459580, Note_off_c, 0, 59, 62
1, 459586, Note_on_c, 0, 60, 61
1, 459770, Note_off_c, 0, 60, 61
1, 459796, Note_on_c, 0, 62, 59
1, 460037, Note_on_c, 0, 64, 53
1, 460050, Note_off_c, 0, 65, 52
1, 460061, Note_on_c, 0, 56, 52
1, 460069, Note_off_c, 0, 62, 49
1, 460242, Note_off_c, 0, 56, 54
1, 460263, Note_on_c, 0, 59, 46
1, 460482, Note_off_c, 0, 59, 54
1, 460504, Note_on_c, 0, 52, 40
1, 460507, Note_on_c, 0, 69, 57
1, 460741, Note_off_c, 0, 69, 58
1, 460741, Poly_aftertouch_c, 0, 69, 0
1, 460755, Note_on_c, 0, 68, 56
1, 460777, Note_off_c, 0, 74, 47
1, 460986, Note_off_c, 0, 68, 50
1, 461001, Note_on_c, 0, 69, 51
1, 461004, Note_on_c, 0, 72, 57
1, 461011, Note_off_c, 0, 64, 50
1, 461241, Note_on_c, 0, 54, 47
1, 461458, Note_on_c, 0, 55, 52
1, 461492, Note_off_c, 0, 54, 57
1, 461514, Note_off_c, 0, 52, 34
1, 461635, Note_off_c, 0, 55, 61
1, 461664, Note_on_c, 0, 57, 49
1, 461922, Note_on_c, 0, 71, 59
1, 461939, Note_on_c, 0, 51, 43
1, 461957, Note_off_c, 0, 72, 52
1, 461957, Poly_aftertouch_c, 0, 72, 0
1, 461972, Note_off_c, 0, 57, 35
1, 462131, Note_off_c, 0, 51, 60
1, 462148, Note_on_c, 0, 54, 51
1, 462396, Note_off_c, 0, 54, 53
1, 462398, Note_on_c, 0, 47, 43
1, 462404, Note_on_c, 0, 76, 60
1, 462619, Note_on_c, 0, 75, 61
1, 462669, Note_off_c, 0, 69, 56
1, 462669, Poly_aftertouch_c, 0, 69, 0
1, 462674, Note_off_c, 0, 76, 56
1, 462674, Poly_aftertouch_c, 0, 76, 0
1, 462872, Note_on_c, 0, 76, 57
1, 462874, Note_off_c, 0, 71, 57
1, 462904, Note_on_c, 0, 67, 45
1, 462937, Note_off_c, 0, 75, 60
1, 463123, Note_on_c, 0, 52, 53
1, 463343, Note_on_c, 0, 54, 69
1, 463384, Note_off_c, 0, 52, 58
1, 463551, Note_on_c, 0, 55, 70
1, 463556, Note_off_c, 0, 47, 61
1, 463575, Note_off_c, 0, 54, 61
1, 463824, Note_on_c, 0, 57, 71
1, 463825, Note_on_c, 0, 66, 67
1, 463838, Note_off_c, 0, 55, 57
1, 463839, Note_off_c, 0, 67, 55
1, 463839, Poly_aftertouch_c, 0, 67, 0
1, 464047, Note_on_c, 0, 59, 67
1, 464079, Note_off_c, 0, 57, 65
1, 464311, Note_off_c, 0, 59, 63
1, 464318, Note_on_c, 0, 60, 67
1, 464826, Note_on_c, 0, 75, 57
1, 464897, Note_off_c, 0, 76, 53
1, 464897, Poly_aftertouch_c, 0, 76, 0
1, 465047, Note_on_c, 0, 57, 40
1, 465181, Control_c, 0, 64, 8
1, 465200, Control_c, 0, 64, 12
1, 465204, Note_off_c, 0, 60, 33
1, 465219, Control_c, 0, 64, 18
1, 465237, Control_c, 0, 64, 28
1, 465257, Control_c, 0, 64, 40
1, 465275, Control_c, 0, 64, 52
1, 465278, Note_on_c, 0, 54, 52
1, 465292, Control_c, 0, 64, 58
1, 465330, Control_c, 0, 64, 60
1, 465350, Control_c, 0, 64, 63
1, 465367, Control_c, 0, 64, 67
1, 465387, Control_c, 0, 64, 71
1, 465395, Note_off_c, 0, 66, 54
1, 465407, Control_c, 0, 64, 76
1, 465424, Control_c, 0, 64, 80
1, 465432, Note_off_c, 0, 57, 37
1, 465443, Control_c, 0, 64, 85
1, 465462, Control_c, 0, 64, 90
1, 465467, Note_off_c, 0, 54, 62
1, 465480, Control_c, 0, 64, 97
1, 465483, Note_on_c, 0, 59, 48
1, 465499, Control_c, 0, 64, 108
1, 465518, Control_c, 0, 64, 127
1, 465705, Control_c, 0, 64, 121
1, 465724, Control_c, 0, 64, 89
1, 465741, Note_on_c, 0, 76, 51
1, 465743, Control_c, 0, 64, 70
1, 465758, Note_off_c, 0, 59, 56
1, 465760, Note_on_c, 0, 55, 45
1, 465761, Control_c, 0, 64, 54
1, 465773, Note_on_c, 0, 64, 31
1, 465778, Control_c, 0, 64, 41
1, 465799, Control_c, 0, 64, 33
1, 465807, Note_off_c, 0, 75, 61
1, 465818, Control_c, 0, 64, 28
1, 465854, Control_c, 0, 64, 24
1, 465972, Note_off_c, 0, 55, 62
1, 465993, Note_on_c, 0, 57, 49
1, 466173, Control_c, 0, 64, 20
1, 466229, Control_c, 0, 64, 14
1, 466242, Note_on_c, 0, 74, 52
1, 466249, Note_on_c, 0, 58, 56
1, 466252, Note_off_c, 0, 57, 61
1, 466267, Control_c, 0, 64, 9
1, 466436, Control_c, 0, 64, 0
1, 466438, Note_off_c, 0, 76, 59
1, 466438, Poly_aftertouch_c, 0, 76, 0
1, 466768, Note_on_c, 0, 73, 59
1, 466813, Note_off_c, 0, 74, 52
1, 466994, Note_on_c, 0, 55, 43
1, 467219, Note_on_c, 0, 76, 51
1, 467244, Note_off_c, 0, 58, 23
1, 467256, Note_off_c, 0, 73, 58
1, 467283, Note_off_c, 0, 55, 59
1, 467295, Control_c, 0, 64, 9
1, 467296, Note_on_c, 0, 52, 36
1, 467315, Control_c, 0, 64, 14
1, 467334, Control_c, 0, 64, 20
1, 467353, Control_c, 0, 64, 29
1, 467362, Poly_aftertouch_c, 0, 50, 0
1, 467370, Control_c, 0, 64, 40
1, 467390, Control_c, 0, 64, 50
1, 467409, Control_c, 0, 64, 55
1, 467502, Control_c, 0, 64, 58
1, 467517, Note_on_c, 0, 57, 50
1, 467576, Control_c, 0, 64, 60
1, 467596, Control_c, 0, 64, 61
1, 467633, Control_c, 0, 64, 62
1, 467651, Control_c, 0, 64, 63
1, 467689, Control_c, 0, 64, 64
1, 467733, Note_on_c, 0, 69, 61
1, 467736, Note_off_c, 0, 57, 54
1, 467745, Control_c, 0, 64, 60
1, 467749, Note_on_c, 0, 54, 49
1, 467764, Control_c, 0, 64, 57
1, 467782, Control_c, 0, 64, 54
1, 467858, Control_c, 0, 64, 57
1, 467895, Control_c, 0, 64, 59
1, 467913, Control_c, 0, 64, 61
1, 467919, Note_off_c, 0, 52, 53
1, 467933, Control_c, 0, 64, 62
1, 467951, Control_c, 0, 64, 64
1, 467969, Note_on_c, 0, 73, 76
1, 467987, Control_c, 0, 64, 66
1, 467990, Note_on_c, 0, 57, 45
1, 468007, Control_c, 0, 64, 67
1, 468021, Note_off_c, 0, 76, 59
1, 468021, Poly_aftertouch_c, 0, 76, 0
1, 468044, Control_c, 0, 64, 71
1, 468064, Control_c, 0, 64, 73
1, 468082, Control_c, 0, 64, 76
1, 468119, Control_c, 0, 64, 79
1, 468176, Control_c, 0, 64, 77
1, 468195, Control_c, 0, 64, 71
1, 468214, Control_c, 0, 64, 62
1, 468222, Note_on_c, 0, 59, 64
1, 468227, Note_off_c, 0, 57, 62
1, 468232, Control_c, 0, 64, 50
1, 468233, Note_on_c, 0, 74, 74
1, 468252, Control_c, 0, 64, 41
1, 468269, Control_c, 0, 64, 36
1, 468270, Note_off_c, 0, 69, 54
1, 468270, Poly_aftertouch_c, 0, 69, 0
1, 468292, Note_off_c, 0, 64, 42
1, 468309, Note_off_c, 0, 73, 54
1, 468363, Control_c, 0, 64, 40
1, 468382, Control_c, 0, 64, 45
1, 468400, Control_c, 0, 64, 50
1, 468420, Control_c, 0, 64, 57
1, 468434, Note_on_c, 0, 61, 69
1, 468436, Control_c, 0, 64, 62
1, 468457, Control_c, 0, 64, 66
1, 468458, Control_c, 0, 67, 122
1, 468475, Control_c, 0, 64, 69
1, 468495, Control_c, 0, 64, 73
1, 468512, Control_c, 0, 64, 78
1, 468513, Control_c, 0, 67, 117
1, 468532, Control_c, 0, 64, 87
1, 468550, Control_c, 0, 64, 98
1, 468568, Control_c, 0, 64, 110
1, 468569, Control_c, 0, 67, 113
1, 468588, Control_c, 0, 64, 127
1, 468643, Control_c, 0, 67, 109
1, 468646, Note_off_c, 0, 61, 62
1, 468650, Note_off_c, 0, 54, 54
1, 468681, Note_on_c, 0, 62, 66
1, 468681, Control_c, 0, 64, 119
1, 468687, Note_on_c, 0, 53, 61
1, 468692, Note_off_c, 0, 59, 28
1, 468699, Control_c, 0, 64, 98
1, 468719, Control_c, 0, 64, 83
1, 468737, Control_c, 0, 64, 70
1, 468740, Control_c, 0, 67, 105
1, 468756, Control_c, 0, 64, 62
1, 468776, Control_c, 0, 64, 58
1, 468813, Control_c, 0, 64, 55
1, 468831, Control_c, 0, 64, 52
1, 468850, Control_c, 0, 64, 48
1, 468868, Control_c, 0, 64, 42
1, 468888, Control_c, 0, 64, 38
1, 468914, Note_on_c, 0, 72, 65
1, 468917, Note_on_c, 0, 57, 63
1, 468924, Control_c, 0, 64, 33
1, 468938, Note_off_c, 0, 62, 52
1, 468943, Control_c, 0, 67, 101
1, 468963, Control_c, 0, 64, 28
1, 469000, Control_c, 0, 64, 23
1, 469001, Control_c, 0, 67, 97
1, 469074, Control_c, 0, 67, 93
1, 469111, Control_c, 0, 67, 87
1, 469141, Note_on_c, 0, 71, 68
1, 469148, Control_c, 0, 67, 83
1, 469156, Note_on_c, 0, 62, 65
1, 469157, Note_off_c, 0, 57, 62
1, 469187, Control_c, 0, 64, 30
1, 469205, Control_c, 0, 64, 37
1, 469206, Control_c, 0, 67, 78
1, 469224, Control_c, 0, 64, 48
1, 469242, Control_c, 0, 64, 60
1, 469243, Control_c, 0, 67, 71
1, 469261, Control_c, 0, 64, 67
1, 469262, Control_c, 0, 67, 66
1, 469281, Control_c, 0, 64, 70
1, 469282, Control_c, 0, 67, 62
1, 469299, Control_c, 0, 64, 72
1, 469312, Note_off_c, 0, 72, 25
1, 469312, Poly_aftertouch_c, 0, 72, 0
1, 469317, Control_c, 0, 64, 74
1, 469337, Control_c, 0, 64, 77
1, 469355, Control_c, 0, 64, 81
1, 469363, Note_off_c, 0, 71, 61
1, 469367, Note_on_c, 0, 69, 70
1, 469374, Control_c, 0, 64, 85
1, 469381, Note_off_c, 0, 74, 56
1, 469392, Control_c, 0, 64, 89
1, 469412, Control_c, 0, 64, 93
1, 469413, Control_c, 0, 67, 58
1, 469430, Control_c, 0, 64, 99
1, 469449, Control_c, 0, 64, 110
1, 469468, Control_c, 0, 64, 127
1, 469469, Control_c, 0, 67, 54
1, 469542, Control_c, 0, 67, 49
1, 469622, Note_on_c, 0, 52, 65
1, 469635, Control_c, 0, 64, 101
1, 469642, Note_on_c, 0, 68, 75
1, 469650, Note_off_c, 0, 53, 57
1, 469654, Control_c, 0, 64, 76
1, 469674, Control_c, 0, 64, 55
1, 469687, Note_off_c, 0, 69, 55
1, 469687, Note_off_c, 0, 62, 52
1, 469687, Poly_aftertouch_c, 0, 69, 0
1, 469691, Control_c, 0, 64, 40
1, 469710, Control_c, 0, 64, 32
1, 469729, Control_c, 0, 64, 28
1, 469824, Control_c, 0, 64, 33
1, 469841, Control_c, 0, 64, 44
1, 469842, Control_c, 0, 67, 45
1, 469860, Control_c, 0, 64, 55
1, 469880, Control_c, 0, 64, 62
1, 469881, Note_on_c, 0, 64, 70
1, 469881, Control_c, 0, 67, 36
1, 469898, Control_c, 0, 64, 66
1, 469899, Control_c, 0, 67, 28
1, 469916, Control_c, 0, 64, 68
1, 469916, Control_c, 0, 67, 21
1, 469937, Control_c, 0, 64, 71
1, 469938, Control_c, 0, 67, 16
1, 469955, Control_c, 0, 64, 76
1, 469972, Control_c, 0, 64, 83
1, 469975, Control_c, 0, 67, 12
1, 469992, Control_c, 0, 64, 93
1, 470010, Control_c, 0, 64, 102
1, 470029, Control_c, 0, 64, 108
1, 470047, Control_c, 0, 67, 8
1, 470092, Note_off_c, 0, 64, 61
1, 470106, Note_on_c, 0, 59, 76
1, 470122, Control_c, 0, 64, 112
1, 470160, Control_c, 0, 64, 122
1, 470161, Control_c, 0, 67, 0
1, 470178, Control_c, 0, 64, 127
1, 470325, Note_on_c, 0, 62, 75
1, 470371, Note_off_c, 0, 59, 57
1, 470553, Control_c, 0, 64, 113
1, 470571, Control_c, 0, 64, 81
1, 470577, Note_on_c, 0, 51, 69
1, 470578, Note_on_c, 0, 60, 73
1, 470583, Note_off_c, 0, 62, 63
1, 470590, Control_c, 0, 64, 59
1, 470609, Control_c, 0, 64, 45
1, 470619, Note_off_c, 0, 52, 58
1, 470620, Note_off_c, 0, 68, 56
1, 470627, Control_c, 0, 64, 40
1, 470704, Control_c, 0, 64, 44
1, 470721, Control_c, 0, 64, 50
1, 470741, Control_c, 0, 64, 57
1, 470759, Control_c, 0, 64, 63
1, 470777, Control_c, 0, 64, 67
1, 470796, Control_c, 0, 64, 70
1, 470812, Note_on_c, 0, 68, 75
1, 470815, Control_c, 0, 64, 73
1, 470834, Control_c, 0, 64, 76
1, 470852, Control_c, 0, 64, 83
1, 470872, Control_c, 0, 64, 92
1, 470890, Control_c, 0, 64, 103
1, 470908, Control_c, 0, 64, 114
1, 470927, Control_c, 0, 64, 127
1, 471053, Note_on_c, 0, 69, 79
1, 471078, Note_off_c, 0, 60, 54
1, 471104, Note_off_c, 0, 68, 59
1, 471303, Note_on_c, 0, 60, 78
1, 471546, Control_c, 0, 64, 89
1, 471555, Note_on_c, 0, 59, 80
1, 471557, Note_off_c, 0, 51, 61
1, 471558, Note_off_c, 0, 60, 63
1, 471563, Note_on_c, 0, 52, 64
1, 471565, Control_c, 0, 64, 64
1, 471582, Control_c, 0, 64, 47
1, 471601, Control_c, 0, 64, 44
1, 471639, Control_c, 0, 64, 47
1, 471657, Control_c, 0, 64, 55
1, 471676, Control_c, 0, 64, 62
1, 471695, Control_c, 0, 64, 69
1, 471713, Control_c, 0, 64, 77
1, 471732, Control_c, 0, 64, 86
1, 471751, Control_c, 0, 64, 96
1, 471771, Control_c, 0, 64, 109
1, 471787, Control_c, 0, 64, 127
1, 471795, Note_on_c, 0, 66, 79
1, 471810, Note_off_c, 0, 59, 58
1, 471916, Note_off_c, 0, 69, 51
1, 471916, Poly_aftertouch_c, 0, 69, 0
1, 472044, Note_on_c, 0, 68, 77
1, 472056, Note_on_c, 0, 64, 75
1, 472067, Note_off_c, 0, 66, 55
1, 472276, Note_on_c, 0, 69, 75
1, 472279, Note_on_c, 0, 66, 78
1, 472318, Note_off_c, 0, 64, 59
1, 472331, Note_off_c, 0, 68, 56
1, 472586, Note_off_c, 0, 69, 55
1, 472586, Poly_aftertouch_c, 0, 69, 0
1, 472597, Note_on_c, 0, 71, 77
1, 472600, Note_on_c, 0, 62, 90
1, 472608, Note_off_c, 0, 52, 55
1, 472612, Control_c, 0, 64, 84
1, 472617, Note_on_c, 0, 40, 62
1, 472632, Control_c, 0, 64, 57
1, 472634, Note_off_c, 0, 66, 59
1, 472639, Note_on_c, 0, 68, 50
1, 472650, Control_c, 0, 64, 32
1, 472668, Control_c, 0, 64, 17
1, 472707, Control_c, 0, 64, 12
1, 472837, Control_c, 0, 64, 24
1, 472844, Note_on_c, 0, 69, 76
1, 472855, Control_c, 0, 64, 38
1, 472876, Control_c, 0, 64, 57
1, 472891, Note_off_c, 0, 71, 57
1, 472893, Control_c, 0, 64, 69
1, 472911, Control_c, 0, 64, 74
1, 472930, Control_c, 0, 64, 78
1, 472949, Control_c, 0, 64, 85
1, 472968, Control_c, 0, 64, 100
1, 472986, Control_c, 0, 64, 127
1, 473121, Note_on_c, 0, 71, 80
1, 473127, Note_off_c, 0, 69, 55
1, 473127, Poly_aftertouch_c, 0, 69, 0
1, 473287, Note_off_c, 0, 62, 62
1, 473719, Note_on_c, 0, 61, 90
1, 473731, Note_on_c, 0, 45, 66
1, 473733, Note_off_c, 0, 68, 61
1, 473733, Control_c, 0, 64, 85
1, 473754, Control_c, 0, 64, 56
1, 473771, Note_off_c, 0, 40, 40
1, 473773, Control_c, 0, 64, 27
1, 473791, Control_c, 0, 64, 11
1, 473865, Control_c, 0, 64, 20
1, 473885, Control_c, 0, 64, 34
1, 473904, Control_c, 0, 64, 52
1, 473922, Control_c, 0, 64, 66
1, 473941, Control_c, 0, 64, 74
1, 473961, Control_c, 0, 64, 78
1, 473979, Control_c, 0, 64, 83
1, 473993, Note_on_c, 0, 68, 71
1, 473997, Control_c, 0, 64, 93
1, 474015, Control_c, 0, 64, 118
1, 474035, Control_c, 0, 64, 127
1, 474229, Note_on_c, 0, 64, 72
1, 474263, Note_off_c, 0, 71, 51
1, 474312, Note_off_c, 0, 68, 49
1, 474439, Note_on_c, 0, 69, 76
1, 474476, Note_off_c, 0, 64, 61
1, 474500, Note_off_c, 0, 61, 60
1, 474691, Note_on_c, 0, 60, 87
1, 474708, Note_off_c, 0, 45, 53
1, 474708, Control_c, 0, 64, 74
1, 474717, Note_on_c, 0, 39, 48
1, 474724, Note_on_c, 0, 66, 62
1, 474726, Control_c, 0, 64, 41
1, 474746, Control_c, 0, 64, 9
1, 474767, Note_off_c, 0, 69, 60
1, 474767, Poly_aftertouch_c, 0, 69, 0
1, 474896, Control_c, 0, 64, 17
1, 474914, Control_c, 0, 64, 32
1, 474923, Note_on_c, 0, 68, 77
1, 474933, Control_c, 0, 64, 55
1, 474952, Control_c, 0, 64, 72
1, 474970, Control_c, 0, 64, 83
1, 474989, Control_c, 0, 64, 94
1, 475007, Control_c, 0, 64, 104
1, 475027, Control_c, 0, 64, 127
1, 475170, Note_on_c, 0, 71, 68
1, 475432, Note_off_c, 0, 60, 60
1, 475658, Note_on_c, 0, 59, 86
1, 475674, Note_off_c, 0, 66, 61
1, 475678, Note_on_c, 0, 40, 64
1, 475703, Control_c, 0, 64, 77
1, 475706, Note_off_c, 0, 39, 43
1, 475715, Note_off_c, 0, 68, 41
1, 475719, Control_c, 0, 64, 51
1, 475737, Control_c, 0, 64, 39
1, 475757, Control_c, 0, 64, 41
1, 475775, Control_c, 0, 64, 52
1, 475794, Control_c, 0, 64, 70
1, 475813, Control_c, 0, 64, 93
1, 475831, Control_c, 0, 64, 127
1, 475893, Note_on_c, 0, 66, 74
1, 475932, Note_off_c, 0, 71, 63
1, 476100, Note_off_c, 0, 40, 56
1, 476129, Note_on_c, 0, 68, 71
1, 476131, Note_on_c, 0, 52, 60
1, 476354, Note_on_c, 0, 71, 71
1, 476358, Note_off_c, 0, 66, 58
1, 476394, Note_off_c, 0, 68, 54
1, 476602, Note_on_c, 0, 58, 83
1, 476618, Note_on_c, 0, 64, 74
1, 476618, Control_c, 0, 64, 99
1, 476630, Note_on_c, 0, 50, 67
1, 476635, Control_c, 0, 64, 63
1, 476636, Note_off_c, 0, 52, 59
1, 476636, Note_off_c, 0, 59, 55
1, 476642, Note_off_c, 0, 71, 51
1, 476655, Control_c, 0, 64, 32
1, 476674, Control_c, 0, 64, 9
1, 476768, Control_c, 0, 64, 20
1, 476787, Control_c, 0, 64, 33
1, 476805, Control_c, 0, 64, 50
1, 476823, Control_c, 0, 64, 64
1, 476841, Control_c, 0, 64, 74
1, 476846, Note_on_c, 0, 65, 71
1, 476861, Control_c, 0, 64, 85
1, 476880, Control_c, 0, 64, 115
1, 476899, Control_c, 0, 64, 127
1, 477078, Note_on_c, 0, 67, 60
1, 477079, Note_on_c, 0, 49, 66
1, 477085, Control_c, 0, 64, 106
1, 477105, Control_c, 0, 64, 74
1, 477113, Note_off_c, 0, 50, 41
1, 477114, Note_off_c, 0, 64, 22
1, 477123, Note_off_c, 0, 65, 56
1, 477123, Control_c, 0, 64, 55
1, 477142, Control_c, 0, 64, 53
1, 477160, Control_c, 0, 64, 59
1, 477180, Control_c, 0, 64, 67
1, 477199, Control_c, 0, 64, 78
1, 477217, Control_c, 0, 64, 93
1, 477235, Control_c, 0, 64, 127
1, 477395, Note_off_c, 0, 58, 56
1, 477572, Control_c, 0, 64, 119
1, 477577, Note_on_c, 0, 57, 81
1, 477591, Note_off_c, 0, 49, 63
1, 477591, Control_c, 0, 64, 74
1, 477601, Note_on_c, 0, 50, 71
1, 477608, Control_c, 0, 64, 46
1, 477629, Control_c, 0, 64, 27
1, 477684, Control_c, 0, 64, 45
1, 477704, Control_c, 0, 64, 67
1, 477722, Control_c, 0, 64, 84
1, 477741, Control_c, 0, 64, 107
1, 477759, Control_c, 0, 64, 127
1, 477810, Note_on_c, 0, 64, 72
1, 477891, Note_off_c, 0, 67, 48
1, 477891, Poly_aftertouch_c, 0, 67, 0
1, 478059, Control_c, 0, 64, 81
1, 478072, Note_on_c, 0, 66, 70
1, 478074, Note_on_c, 0, 48, 64
1, 478078, Control_c, 0, 64, 55
1, 478089, Note_off_c, 0, 50, 58
1, 478097, Control_c, 0, 64, 43
1, 478115, Control_c, 0, 64, 47
1, 478135, Control_c, 0, 64, 58
1, 478152, Control_c, 0, 64, 72
1, 478172, Control_c, 0, 64, 93
1, 478190, Control_c, 0, 64, 127
1, 478292, Note_on_c, 0, 69, 76
1, 478322, Note_off_c, 0, 64, 58
1, 478323, Note_off_c, 0, 66, 58
1, 478546, Control_c, 0, 64, 92
1, 478551, Note_on_c, 0, 62, 85
1, 478566, Control_c, 0, 64, 57
1, 478567, Note_off_c, 0, 48, 61
1, 478578, Note_on_c, 0, 47, 56
1, 478585, Control_c, 0, 64, 23
1, 478619, Note_off_c, 0, 57, 52
1, 478677, Control_c, 0, 64, 9
1, 478695, Control_c, 0, 64, 27
1, 478715, Control_c, 0, 64, 52
1, 478732, Control_c, 0, 64, 76
1, 478752, Control_c, 0, 64, 99
1, 478761, Note_off_c, 0, 69, 50
1, 478761, Poly_aftertouch_c, 0, 69, 0
1, 478769, Control_c, 0, 64, 127
1, 478786, Note_on_c, 0, 64, 70
1, 479048, Note_on_c, 0, 45, 58
1, 479052, Note_on_c, 0, 65, 69
1, 479052, Control_c, 0, 64, 87
1, 479054, Note_off_c, 0, 64, 63
1, 479062, Note_off_c, 0, 47, 57
1, 479069, Control_c, 0, 64, 56
1, 479088, Control_c, 0, 64, 29
1, 479108, Control_c, 0, 64, 18
1, 479163, Control_c, 0, 64, 25
1, 479182, Control_c, 0, 64, 41
1, 479200, Control_c, 0, 64, 63
1, 479220, Control_c, 0, 64, 79
1, 479238, Control_c, 0, 64, 98
1, 479258, Control_c, 0, 64, 127
1, 479529, Note_off_c, 0, 45, 61
1, 479532, Note_on_c, 0, 44, 68
1, 479538, Control_c, 0, 64, 101
1, 479550, Note_on_c, 0, 64, 70
1, 479557, Control_c, 0, 64, 61
1, 479576, Control_c, 0, 64, 22
1, 479595, Control_c, 0, 64, 0
1, 479599, Note_off_c, 0, 65, 59
1, 479650, Control_c, 0, 64, 18
1, 479668, Control_c, 0, 64, 45
1, 479687, Control_c, 0, 64, 77
1, 479707, Control_c, 0, 64, 121
1, 479725, Control_c, 0, 64, 127
1, 479776, Note_on_c, 0, 60, 70
1, 479816, Note_off_c, 0, 62, 57
1, 480005, Control_c, 0, 64, 84
1, 480018, Note_on_c, 0, 59, 76
1, 480021, Note_on_c, 0, 56, 67
1, 480024, Control_c, 0, 64, 63
1, 480031, Note_off_c, 0, 60, 61
1, 480044, Control_c, 0, 64, 64
1, 480055, Note_off_c, 0, 44, 60
1, 480062, Control_c, 0, 64, 75
1, 480080, Control_c, 0, 64, 102
1, 480094, Note_off_c, 0, 56, 55
1, 480097, Control_c, 0, 64, 127
1, 480224, Note_on_c, 0, 62, 80
1, 480239, Note_off_c, 0, 59, 60
1, 480271, Note_off_c, 0, 64, 60
1, 480287, Note_off_c, 0, 62, 62
1, 480503, Note_on_c, 0, 76, 92
1, 480511, Note_on_c, 0, 60, 72
1, 480511, Control_c, 0, 64, 79
1, 480521, Note_on_c, 0, 57, 70
1, 480525, Note_on_c, 0, 64, 78
1, 480530, Control_c, 0, 64, 55
1, 480548, Control_c, 0, 64, 37
1, 480567, Control_c, 0, 64, 27
1, 480587, Control_c, 0, 64, 21
1, 480604, Control_c, 0, 64, 15
1, 480623, Control_c, 0, 64, 8
1, 480679, Control_c, 0, 64, 0
1, 480739, Note_on_c, 0, 68, 78
1, 480780, Note_off_c, 0, 64, 60
1, 480980, Control_c, 0, 64, 14
1, 480987, Note_on_c, 0, 69, 80
1, 480996, Control_c, 0, 64, 33
1, 481017, Control_c, 0, 64, 57
1, 481027, Note_off_c, 0, 68, 61
1, 481034, Control_c, 0, 64, 72
1, 481054, Control_c, 0, 64, 80
1, 481073, Control_c, 0, 64, 85
1, 481091, Control_c, 0, 64, 91
1, 481110, Control_c, 0, 64, 102
1, 481129, Control_c, 0, 64, 127
1, 481204, Note_on_c, 0, 72, 82
1, 481240, Note_off_c, 0, 69, 60
1, 481240, Poly_aftertouch_c, 0, 69, 0
1, 481441, Note_on_c, 0, 75, 86
1, 481450, Note_on_c, 0, 66, 83
1, 481467, Control_c, 0, 64, 72
1, 481484, Control_c, 0, 64, 37
1, 481491, Note_off_c, 0, 72, 58
1, 481491, Poly_aftertouch_c, 0, 72, 0
1, 481511, Note_off_c, 0, 76, 59
1, 481511, Poly_aftertouch_c, 0, 76, 0
1, 481540, Control_c, 0, 64, 11
1, 481559, Control_c, 0, 64, 32
1, 481578, Control_c, 0, 64, 62
1, 481598, Control_c, 0, 64, 85
1, 481616, Control_c, 0, 64, 127
1, 481685, Note_on_c, 0, 68, 80
1, 481716, Note_off_c, 0, 66, 58
1, 481760, Note_off_c, 0, 60, 55
1, 481948, Note_on_c, 0, 54, 72
1, 481950, Note_off_c, 0, 57, 61
1, 481950, Note_on_c, 0, 69, 78
1, 481952, Control_c, 0, 64, 79
1, 481959, Note_on_c, 0, 59, 74
1, 481971, Control_c, 0, 64, 52
1, 481981, Note_off_c, 0, 68, 62
1, 481989, Control_c, 0, 64, 41
1, 482008, Control_c, 0, 64, 48
1, 482027, Control_c, 0, 64, 61
1, 482046, Control_c, 0, 64, 76
1, 482066, Control_c, 0, 64, 102
1, 482082, Control_c, 0, 64, 127
1, 482165, Note_on_c, 0, 57, 81
1, 482188, Note_off_c, 0, 59, 59
1, 482219, Note_off_c, 0, 54, 60
1, 482414, Note_off_c, 0, 57, 64
1, 482416, Note_on_c, 0, 74, 87
1, 482419, Note_on_c, 0, 59, 81
1, 482432, Note_off_c, 0, 75, 65
1, 482439, Control_c, 0, 64, 69
1, 482460, Control_c, 0, 64, 27
1, 482476, Control_c, 0, 64, 0
1, 482533, Control_c, 0, 64, 8
1, 482551, Control_c, 0, 64, 34
1, 482570, Control_c, 0, 64, 68
1, 482589, Control_c, 0, 64, 101
1, 482608, Control_c, 0, 64, 127
1, 482639, Note_on_c, 0, 66, 76
1, 482874, Note_on_c, 0, 68, 80
1, 482897, Note_on_c, 0, 52, 80
1, 482902, Note_off_c, 0, 69, 40
1, 482902, Poly_aftertouch_c, 0, 69, 0
1, 482907, Control_c, 0, 64, 75
1, 482926, Control_c, 0, 64, 45
1, 482945, Control_c, 0, 64, 35
1, 482963, Control_c, 0, 64, 43
1, 482983, Control_c, 0, 64, 63
1, 483001, Control_c, 0, 64, 88
1, 483019, Control_c, 0, 64, 127
1, 483100, Note_off_c, 0, 74, 59
1, 483113, Note_on_c, 0, 71, 76
1, 483356, Note_on_c, 0, 73, 88
1, 483356, Control_c, 0, 64, 88
1, 483362, Note_on_c, 0, 64, 79
1, 483375, Control_c, 0, 64, 52
1, 483381, Note_off_c, 0, 68, 59
1, 483390, Note_off_c, 0, 66, 55
1, 483394, Control_c, 0, 64, 14
1, 483419, Note_off_c, 0, 71, 59
1, 483450, Control_c, 0, 64, 9
1, 483471, Control_c, 0, 64, 30
1, 483487, Control_c, 0, 64, 62
1, 483507, Control_c, 0, 64, 94
1, 483524, Control_c, 0, 64, 127
1, 483574, Note_on_c, 0, 66, 74
1, 483597, Note_off_c, 0, 64, 59
1, 483614, Note_off_c, 0, 59, 59
1, 483765, Note_off_c, 0, 52, 61
1, 483787, Control_c, 0, 64, 111
1, 483805, Control_c, 0, 64, 68
1, 483822, Note_on_c, 0, 45, 71
1, 483824, Control_c, 0, 64, 37
1, 483825, Note_on_c, 0, 67, 74
1, 483826, Note_on_c, 0, 57, 75
1, 483843, Control_c, 0, 64, 21
1, 483862, Note_off_c, 0, 66, 60
1, 483880, Control_c, 0, 64, 29
1, 483899, Control_c, 0, 64, 53
1, 483918, Control_c, 0, 64, 82
1, 483921, Note_off_c, 0, 45, 62
1, 483936, Control_c, 0, 64, 127
1, 484044, Note_on_c, 0, 59, 76
1, 484075, Note_off_c, 0, 57, 58
1, 484192, Note_off_c, 0, 73, 54
1, 484292, Control_c, 0, 64, 110
1, 484299, Note_on_c, 0, 60, 78
1, 484304, Note_on_c, 0, 72, 83
1, 484306, Note_on_c, 0, 57, 80
1, 484311, Control_c, 0, 64, 66
1, 484313, Note_off_c, 0, 59, 58
1, 484330, Control_c, 0, 64, 32
1, 484334, Note_off_c, 0, 67, 61
1, 484334, Poly_aftertouch_c, 0, 67, 0
1, 484348, Control_c, 0, 64, 13
1, 484405, Control_c, 0, 64, 33
1, 484423, Control_c, 0, 64, 61
1, 484442, Control_c, 0, 64, 89
1, 484461, Control_c, 0, 64, 127
1, 484522, Note_on_c, 0, 64, 78
1, 484543, Note_off_c, 0, 57, 62
1, 484760, Control_c, 0, 64, 104
1, 484774, Note_on_c, 0, 66, 77
1, 484778, Note_on_c, 0, 57, 69
1, 484779, Note_on_c, 0, 54, 70
1, 484779, Control_c, 0, 64, 64
1, 484798, Control_c, 0, 64, 33
1, 484816, Control_c, 0, 64, 21
1, 484853, Control_c, 0, 64, 32
1, 484873, Control_c, 0, 64, 56
1, 484890, Control_c, 0, 64, 81
1, 484910, Control_c, 0, 64, 127
1, 484986, Note_on_c, 0, 69, 75
1, 485014, Note_off_c, 0, 66, 60
1, 485110, Note_off_c, 0, 72, 56
1, 485110, Poly_aftertouch_c, 0, 72, 0
1, 485214, Note_off_c, 0, 60, 51
1, 485242, Note_on_c, 0, 71, 80
1, 485247, Control_c, 0, 64, 74
1, 485254, Note_on_c, 0, 55, 71
1, 485255, Note_on_c, 0, 63, 75
1, 485266, Control_c, 0, 64, 40
1, 485273, Note_off_c, 0, 57, 60
1, 485274, Note_off_c, 0, 64, 59
1, 485284, Control_c, 0, 64, 17
1, 485294, Note_off_c, 0, 54, 55
1, 485308, Note_off_c, 0, 69, 55
1, 485308, Poly_aftertouch_c, 0, 69, 0
1, 485322, Control_c, 0, 64, 28
1, 485341, Control_c, 0, 64, 54
1, 485360, Control_c, 0, 64, 82
1, 485377, Control_c, 0, 64, 127
1, 485475, Note_on_c, 0, 60, 69
1, 485479, Note_on_c, 0, 64, 76
1, 485488, Note_off_c, 0, 63, 61
1, 485497, Note_off_c, 0, 55, 62
1, 485715, Control_c, 0, 64, 87
1, 485727, Note_on_c, 0, 51, 65
1, 485733, Note_on_c, 0, 66, 75
1, 485733, Control_c, 0, 64, 52
1, 485738, Note_on_c, 0, 59, 68
1, 485743, Note_off_c, 0, 60, 59
1, 485752, Control_c, 0, 64, 23
1, 485787, Note_off_c, 0, 64, 59
1, 485809, Control_c, 0, 64, 48
1, 485827, Control_c, 0, 64, 77
1, 485845, Control_c, 0, 64, 127
1, 485956, Note_off_c, 0, 59, 62
1, 485970, Note_on_c, 0, 57, 75
1, 485992, Note_off_c, 0, 71, 62
1, 486001, Note_off_c, 0, 66, 62
1, 486012, Note_off_c, 0, 51, 59
1, 486220, Control_c, 0, 64, 110
1, 486237, Note_on_c, 0, 76, 90
1, 486238, Control_c, 0, 64, 69
1, 486246, Note_on_c, 0, 55, 68
1, 486247, Note_on_c, 0, 52, 63
1, 486256, Control_c, 0, 64, 38
1, 486258, Note_on_c, 0, 64, 73
1, 486276, Control_c, 0, 64, 17
1, 486283, Note_off_c, 0, 57, 54
1, 486295, Control_c, 0, 64, 13
1, 486370, Control_c, 0, 64, 9
1, 486476, Note_on_c, 0, 54, 74
1, 486497, Note_off_c, 0, 55, 60
1, 486538, Control_c, 0, 64, 17
1, 486557, Control_c, 0, 64, 31
1, 486575, Control_c, 0, 64, 49
1, 486596, Control_c, 0, 64, 65
1, 486613, Control_c, 0, 64, 73
1, 486632, Control_c, 0, 64, 79
1, 486651, Control_c, 0, 64, 87
1, 486670, Control_c, 0, 64, 103
1, 486688, Control_c, 0, 64, 127
1, 486704, Note_on_c, 0, 55, 68
1, 486718, Note_off_c, 0, 54, 61
1, 486742, Note_off_c, 0, 52, 61
1, 486926, Note_on_c, 0, 46, 76
1, 486951, Control_c, 0, 64, 76
1, 486969, Control_c, 0, 64, 43
1, 486988, Control_c, 0, 64, 26
1, 487006, Control_c, 0, 64, 32
1, 487026, Control_c, 0, 64, 54
1, 487044, Control_c, 0, 64, 88
1, 487062, Control_c, 0, 64, 127
1, 487066, Note_off_c, 0, 46, 61
1, 487194, Note_on_c, 0, 47, 76
1, 487212, Control_c, 0, 64, 95
1, 487230, Control_c, 0, 64, 61
1, 487250, Control_c, 0, 64, 32
1, 487268, Control_c, 0, 64, 11
1, 487432, Note_on_c, 0, 54, 80
1, 487469, Note_off_c, 0, 55, 56
1, 487681, Note_on_c, 0, 55, 72
1, 487692, Note_off_c, 0, 54, 61
1, 487736, Control_c, 0, 64, 26
1, 487755, Control_c, 0, 64, 45
1, 487774, Control_c, 0, 64, 65
1, 487793, Control_c, 0, 64, 78
1, 487811, Control_c, 0, 64, 91
1, 487831, Control_c, 0, 64, 108
1, 487849, Control_c, 0, 64, 127
1, 487901, Note_off_c, 0, 55, 60
1, 487903, Note_on_c, 0, 52, 72
1, 487983, Note_off_c, 0, 52, 59
1, 488133, Note_on_c, 0, 55, 70
1, 488148, Control_c, 0, 64, 97
1, 488149, Note_on_c, 0, 75, 78
1, 488157, Note_on_c, 0, 69, 75
1, 488163, Note_off_c, 0, 64, 61
1, 488167, Control_c, 0, 64, 68
1, 488185, Control_c, 0, 64, 44
1, 488204, Control_c, 0, 64, 30
1, 488219, Note_on_c, 0, 54, 69
1, 488220, Note_off_c, 0, 55, 61
1, 488223, Control_c, 0, 64, 24
1, 488224, Note_off_c, 0, 76, 59
1, 488224, Poly_aftertouch_c, 0, 76, 0
1, 488280, Control_c, 0, 64, 18
1, 488297, Control_c, 0, 64, 14
1, 488324, Note_off_c, 0, 54, 61
1, 488324, Note_on_c, 0, 55, 74
1, 488466, Control_c, 0, 64, 20
1, 488510, Note_on_c, 0, 54, 64
1, 488545, Note_off_c, 0, 55, 49
1, 488710, Control_c, 0, 64, 14
1, 488747, Control_c, 0, 64, 8
1, 488880, Control_c, 0, 64, 14
1, 488897, Control_c, 0, 64, 18
1, 488916, Control_c, 0, 64, 24
1, 488934, Control_c, 0, 64, 34
1, 488953, Control_c, 0, 64, 51
1, 488971, Control_c, 0, 64, 64
1, 488990, Control_c, 0, 64, 70
1, 489009, Control_c, 0, 64, 72
1, 489046, Control_c, 0, 64, 76
1, 489065, Control_c, 0, 64, 81
1, 489084, Control_c, 0, 64, 93
1, 489101, Note_off_c, 0, 54, 61
1, 489103, Control_c, 0, 64, 115
1, 489108, Note_on_c, 0, 52, 61
1, 489121, Control_c, 0, 64, 127
1, 489179, Note_off_c, 0, 52, 61
1, 489239, Note_off_c, 0, 47, 33
1, 489439, Control_c, 0, 64, 101
1, 489445, Note_on_c, 0, 68, 72
1, 489456, Note_on_c, 0, 76, 58
1, 489458, Control_c, 0, 64, 66
1, 489481, Note_on_c, 0, 40, 43
1, 489481, Note_on_c, 0, 52, 44
1, 489482, Control_c, 0, 64, 36
1, 489496, Control_c, 0, 64, 12
1, 489524, Note_off_c, 0, 69, 57
1, 489524, Poly_aftertouch_c, 0, 69, 0
1, 489533, Control_c, 0, 64, 0
1, 489536, Note_off_c, 0, 75, 61
1, 489627, Control_c, 0, 64, 12
1, 489645, Control_c, 0, 64, 31
1, 489664, Control_c, 0, 64, 54
1, 489683, Control_c, 0, 64, 72
1, 489690, Note_on_c, 0, 71, 64
1, 489701, Control_c, 0, 64, 89
1, 489720, Control_c, 0, 64, 127
1, 489723, Note_off_c, 0, 40, 55
1, 489725, Note_off_c, 0, 76, 52
1, 489725, Poly_aftertouch_c, 0, 76, 0
1, 489788, Note_off_c, 0, 52, 60
1, 489928, Note_on_c, 0, 76, 71
1, 490145, Note_on_c, 0, 59, 68
1, 490175, Note_off_c, 0, 59, 66
1, 490394, Control_c, 0, 64, 102
1, 490412, Note_on_c, 0, 67, 80
1, 490413, Control_c, 0, 64, 68
1, 490419, Note_on_c, 0, 64, 62
1, 490432, Control_c, 0, 64, 38
1, 490447, Note_off_c, 0, 71, 61
1, 490450, Control_c, 0, 64, 13
1, 490471, Note_off_c, 0, 68, 61
1, 490479, Note_off_c, 0, 76, 59
1, 490479, Poly_aftertouch_c, 0, 76, 0
1, 490526, Control_c, 0, 64, 19
1, 490544, Control_c, 0, 64, 32
1, 490564, Control_c, 0, 64, 50
1, 490581, Control_c, 0, 64, 65
1, 490601, Control_c, 0, 64, 75
1, 490620, Control_c, 0, 64, 85
1, 490637, Control_c, 0, 64, 100
1, 490640, Note_on_c, 0, 74, 74
1, 490656, Control_c, 0, 64, 127
1, 490864, Note_on_c, 0, 72, 78
1, 491073, Note_on_c, 0, 71, 77
1, 491090, Note_off_c, 0, 74, 51
1, 491147, Note_off_c, 0, 72, 52
1, 491147, Note_off_c, 0, 67, 62
1, 491147, Poly_aftertouch_c, 0, 67, 0
1, 491147, Poly_aftertouch_c, 0, 72, 0
1, 491174, Note_off_c, 0, 71, 62
1, 491311, Control_c, 0, 64, 110
1, 491323, Note_on_c, 0, 66, 83
1, 491329, Control_c, 0, 64, 70
1, 491338, Note_on_c, 0, 69, 66
1, 491350, Control_c, 0, 64, 40
1, 491368, Control_c, 0, 64, 19
1, 491416, Note_on_c, 0, 73, 29
1, 491443, Control_c, 0, 64, 26
1, 491461, Control_c, 0, 64, 41
1, 491481, Control_c, 0, 64, 63
1, 491485, Note_off_c, 0, 73, 42
1, 491499, Control_c, 0, 64, 79
1, 491518, Control_c, 0, 64, 100
1, 491536, Control_c, 0, 64, 127
1, 491574, Note_on_c, 0, 62, 66
1, 491676, Note_off_c, 0, 64, 56
1, 491805, Note_on_c, 0, 60, 61
1, 491805, Note_on_c, 0, 74, 71
1, 491808, Note_off_c, 0, 69, 47
1, 491808, Poly_aftertouch_c, 0, 69, 0
1, 491817, Control_c, 0, 64, 82
1, 491836, Control_c, 0, 64, 58
1, 491840, Note_off_c, 0, 62, 53
1, 491854, Control_c, 0, 64, 47
1, 491892, Control_c, 0, 64, 52
1, 491910, Control_c, 0, 64, 60
1, 491930, Control_c, 0, 64, 66
1, 491948, Control_c, 0, 64, 72
1, 491967, Control_c, 0, 64, 82
1, 491985, Control_c, 0, 64, 103
1, 492003, Control_c, 0, 64, 127
1, 492010, Note_off_c, 0, 60, 58
1, 492014, Note_on_c, 0, 59, 60
1, 492248, Control_c, 0, 64, 76
1, 492261, Note_on_c, 0, 65, 79
1, 492263, Note_off_c, 0, 59, 63
1, 492267, Control_c, 0, 64, 48
1, 492275, Note_on_c, 0, 57, 59
1, 492285, Control_c, 0, 64, 30
1, 492288, Note_off_c, 0, 74, 56
1, 492309, Note_off_c, 0, 66, 58
1, 492341, Control_c, 0, 64, 51
1, 492360, Control_c, 0, 64, 73
1, 492378, Control_c, 0, 64, 101
1, 492397, Control_c, 0, 64, 127
1, 492482, Note_on_c, 0, 72, 76
1, 492485, Note_off_c, 0, 57, 63
1, 492715, Control_c, 0, 64, 103
1, 492731, Note_on_c, 0, 62, 72
1, 492734, Control_c, 0, 64, 67
1, 492741, Note_on_c, 0, 71, 74
1, 492753, Control_c, 0, 64, 37
1, 492772, Control_c, 0, 64, 18
1, 492846, Control_c, 0, 64, 27
1, 492865, Control_c, 0, 64, 48
1, 492886, Control_c, 0, 64, 74
1, 492903, Control_c, 0, 64, 104
1, 492920, Control_c, 0, 64, 127
1, 492935, Note_on_c, 0, 69, 78
1, 492951, Note_off_c, 0, 72, 45
1, 492951, Poly_aftertouch_c, 0, 72, 0
1, 493007, Note_off_c, 0, 65, 60
1, 493044, Note_off_c, 0, 71, 54
1, 493187, Note_off_c, 0, 69, 56
1, 493187, Note_on_c, 0, 68, 72
1, 493187, Poly_aftertouch_c, 0, 69, 0
1, 493193, Note_on_c, 0, 64, 75
1, 493202, Control_c, 0, 64, 92
1, 493221, Control_c, 0, 64, 63
1, 493240, Control_c, 0, 64, 44
1, 493277, Control_c, 0, 64, 50
1, 493297, Control_c, 0, 64, 61
1, 493314, Control_c, 0, 64, 70
1, 493333, Control_c, 0, 64, 78
1, 493354, Control_c, 0, 64, 90
1, 493371, Control_c, 0, 64, 112
1, 493389, Control_c, 0, 64, 127
1, 493411, Note_on_c, 0, 60, 61
1, 493516, Note_off_c, 0, 62, 53
1, 493651, Control_c, 0, 64, 98
1, 493656, Note_on_c, 0, 76, 75
1, 493658, Note_on_c, 0, 59, 55
1, 493671, Control_c, 0, 64, 68
1, 493672, Note_off_c, 0, 60, 54
1, 493689, Control_c, 0, 64, 48
1, 493708, Control_c, 0, 64, 40
1, 493728, Note_off_c, 0, 68, 59
1, 493744, Control_c, 0, 64, 51
1, 493764, Control_c, 0, 64, 64
1, 493782, Control_c, 0, 64, 78
1, 493802, Control_c, 0, 64, 97
1, 493820, Control_c, 0, 64, 127
1, 493843, Note_off_c, 0, 59, 61
1, 493865, Note_on_c, 0, 62, 54
1, 494101, Control_c, 0, 64, 107
1, 494109, Note_on_c, 0, 69, 73
1, 494119, Control_c, 0, 64, 78
1, 494121, Note_on_c, 0, 60, 50
1, 494137, Note_off_c, 0, 62, 50
1, 494137, Control_c, 0, 64, 63
1, 494147, Note_off_c, 0, 64, 58
1, 494158, Control_c, 0, 64, 61
1, 494176, Control_c, 0, 64, 64
1, 494193, Control_c, 0, 64, 69
1, 494213, Control_c, 0, 64, 76
1, 494232, Control_c, 0, 64, 85
1, 494250, Control_c, 0, 64, 105
1, 494269, Control_c, 0, 64, 127
1, 494350, Note_on_c, 0, 74, 73
1, 494354, Note_off_c, 0, 60, 59
1, 494357, Note_on_c, 0, 59, 60
1, 494562, Note_off_c, 0, 59, 56
1, 494575, Note_on_c, 0, 72, 73
1, 494588, Note_off_c, 0, 76, 59
1, 494588, Poly_aftertouch_c, 0, 76, 0
1, 494594, Note_on_c, 0, 57, 56
1, 494615, Note_off_c, 0, 74, 56
1, 494791, Note_off_c, 0, 57, 59
1, 494805, Note_on_c, 0, 76, 73
1, 494807, Note_on_c, 0, 60, 56
1, 494832, Note_off_c, 0, 72, 58
1, 494832, Poly_aftertouch_c, 0, 72, 0
1, 495037, Control_c, 0, 64, 85
1, 495039, Note_off_c, 0, 60, 56
1, 495045, Note_on_c, 0, 74, 76
1, 495053, Note_on_c, 0, 59, 58
1, 495055, Control_c, 0, 64, 52
1, 495073, Control_c, 0, 64, 25
1, 495093, Control_c, 0, 64, 20
1, 495130, Control_c, 0, 64, 31
1, 495150, Control_c, 0, 64, 52
1, 495168, Control_c, 0, 64, 74
1, 495186, Control_c, 0, 64, 97
1, 495204, Control_c, 0, 64, 127
1, 495264, Note_on_c, 0, 72, 70
1, 495500, Note_on_c, 0, 62, 65
1, 495504, Control_c, 0, 64, 86
1, 495507, Note_off_c, 0, 59, 61
1, 495524, Control_c, 0, 64, 58
1, 495526, Note_off_c, 0, 76, 32
1, 495526, Poly_aftertouch_c, 0, 76, 0
1, 495528, Note_on_c, 0, 71, 73
1, 495535, Note_off_c, 0, 74, 54
1, 495543, Control_c, 0, 64, 40
1, 495579, Control_c, 0, 64, 42
1, 495598, Control_c, 0, 64, 56
1, 495602, Note_off_c, 0, 72, 59
1, 495602, Poly_aftertouch_c, 0, 72, 0
1, 495617, Control_c, 0, 64, 72
1, 495636, Control_c, 0, 64, 91
1, 495654, Control_c, 0, 64, 127
1, 495724, Note_on_c, 0, 74, 66
1, 495763, Note_off_c, 0, 71, 62
1, 495963, Note_off_c, 0, 62, 60
1, 495971, Control_c, 0, 64, 109
1, 495974, Note_on_c, 0, 68, 72
1, 495986, Note_on_c, 0, 64, 62
1, 495990, Control_c, 0, 64, 69
1, 495991, Note_off_c, 0, 74, 55
1, 496009, Control_c, 0, 64, 42
1, 496029, Control_c, 0, 64, 30
1, 496033, Note_off_c, 0, 69, 57
1, 496033, Poly_aftertouch_c, 0, 69, 0
1, 496066, Control_c, 0, 64, 43
1, 496084, Control_c, 0, 64, 66
1, 496104, Control_c, 0, 64, 95
1, 496122, Control_c, 0, 64, 127
1, 496207, Note_on_c, 0, 74, 74
1, 496435, Note_on_c, 0, 52, 70
1, 496456, Note_on_c, 0, 72, 80
1, 496463, Note_off_c, 0, 64, 59
1, 496506, Note_off_c, 0, 68, 40
1, 496529, Note_off_c, 0, 52, 61
1, 496657, Note_on_c, 0, 71, 79
1, 496668, Note_off_c, 0, 74, 51
1, 496752, Note_off_c, 0, 72, 54
1, 496752, Poly_aftertouch_c, 0, 72, 0
1, 496903, Note_on_c, 0, 69, 73
1, 496903, Note_on_c, 0, 72, 79
1, 496904, Note_on_c, 0, 57, 89
1, 496906, Note_on_c, 0, 45, 91
1, 496907, Note_off_c, 0, 45, 127
1, 496909, Control_c, 0, 64, 73
1, 496925, Note_off_c, 0, 71, 54
1, 496926, Control_c, 0, 64, 34
1, 496946, Control_c, 0, 64, 0
1, 496959, Poly_aftertouch_c, 0, 45, 127
1, 497040, Control_c, 0, 64, 10
1, 497058, Control_c, 0, 64, 28
1, 497077, Control_c, 0, 64, 58
1, 497095, Control_c, 0, 64, 89
1, 497114, Control_c, 0, 64, 127
1, 497137, Note_on_c, 0, 64, 79
1, 497138, Note_off_c, 0, 69, 61
1, 497138, Poly_aftertouch_c, 0, 69, 0
1, 497376, Note_on_c, 0, 47, 87
1, 497379, Note_on_c, 0, 69, 83
1, 497415, Control_c, 0, 64, 82
1, 497429, Poly_aftertouch_c, 0, 45, 0
1, 497432, Control_c, 0, 64, 42
1, 497453, Note_off_c, 0, 57, 58
1, 497467, Note_off_c, 0, 64, 55
1, 497468, Control_c, 0, 64, 0
1, 497497, Poly_aftertouch_c, 0, 71, 0
1, 497508, Control_c, 0, 64, 25
1, 497526, Control_c, 0, 64, 57
1, 497545, Control_c, 0, 64, 86
1, 497564, Control_c, 0, 64, 127
1, 497589, Note_on_c, 0, 68, 83
1, 497628, Note_off_c, 0, 69, 57
1, 497628, Poly_aftertouch_c, 0, 69, 0
1, 497805, Note_off_c, 0, 72, 58
1, 497805, Poly_aftertouch_c, 0, 72, 0
1, 497839, Note_on_c, 0, 48, 91
1, 497849, Note_on_c, 0, 69, 85
1, 497852, Note_off_c, 0, 47, 63
1, 497866, Note_off_c, 0, 68, 61
1, 497883, Control_c, 0, 64, 74
1, 497900, Control_c, 0, 64, 40
1, 497919, Control_c, 0, 64, 18
1, 497956, Control_c, 0, 64, 33
1, 497976, Control_c, 0, 64, 63
1, 497994, Control_c, 0, 64, 96
1, 498012, Control_c, 0, 64, 127
1, 498064, Note_on_c, 0, 76, 84
1, 498301, Note_on_c, 0, 45, 85
1, 498304, Note_off_c, 0, 48, 63
1, 498309, Note_on_c, 0, 74, 81
1, 498311, Control_c, 0, 64, 103
1, 498332, Control_c, 0, 64, 54
1, 498349, Control_c, 0, 64, 0
1, 498405, Control_c, 0, 64, 21
1, 498425, Control_c, 0, 64, 65
1, 498444, Control_c, 0, 64, 127
1, 498509, Note_on_c, 0, 72, 81
1, 498510, Note_off_c, 0, 76, 56
1, 498510, Poly_aftertouch_c, 0, 76, 0
1, 498545, Note_off_c, 0, 74, 62
1, 498599, Note_off_c, 0, 72, 59
1, 498599, Poly_aftertouch_c, 0, 72, 0
1, 498775, Note_on_c, 0, 52, 83
1, 498783, Note_off_c, 0, 45, 60
1, 498794, Note_on_c, 0, 71, 81
1, 498817, Control_c, 0, 64, 74
1, 498830, Note_off_c, 0, 69, 58
1, 498830, Poly_aftertouch_c, 0, 69, 0
1, 498836, Control_c, 0, 64, 34
1, 498855, Control_c, 0, 64, 0
1, 499006, Note_on_c, 0, 69, 80
1, 499245, Note_on_c, 0, 67, 80
1, 499306, Control_c, 0, 64, 12
1, 499319, Note_off_c, 0, 69, 48
1, 499319, Poly_aftertouch_c, 0, 69, 0
1, 499322, Control_c, 0, 64, 32
1, 499342, Control_c, 0, 64, 55
1, 499360, Control_c, 0, 64, 71
1, 499380, Control_c, 0, 64, 83
1, 499398, Control_c, 0, 64, 99
1, 499416, Control_c, 0, 64, 127
1, 499470, Note_on_c, 0, 66, 81
1, 499500, Note_off_c, 0, 67, 60
1, 499500, Poly_aftertouch_c, 0, 67, 0
1, 499523, Note_off_c, 0, 71, 59
1, 499711, Note_on_c, 0, 67, 87
1, 499712, Note_off_c, 0, 66, 63
1, 499734, Control_c, 0, 64, 114
1, 499754, Control_c, 0, 64, 63
1, 499772, Control_c, 0, 64, 13
1, 499791, Control_c, 0, 64, 0
1, 499900, Note_off_c, 0, 52, 43
1, 499902, Control_c, 0, 64, 13
1, 499922, Control_c, 0, 64, 32
1, 499930, Note_on_c, 0, 74, 84
1, 499941, Control_c, 0, 64, 64
1, 499959, Control_c, 0, 64, 92
1, 499978, Control_c, 0, 64, 127
1, 500146, Control_c, 0, 64, 68
1, 500158, Note_on_c, 0, 45, 88
1, 500164, Control_c, 0, 64, 13
1, 500175, Note_on_c, 0, 73, 82
1, 500183, Control_c, 0, 64, 0
1, 500217, Note_off_c, 0, 74, 62
1, 500240, Control_c, 0, 64, 13
1, 500259, Control_c, 0, 64, 53
1, 500278, Control_c, 0, 64, 100
1, 500296, Control_c, 0, 64, 127
1, 500388, Note_off_c, 0, 45, 60
1, 500407, Note_on_c, 0, 76, 84
1, 500440, Note_off_c, 0, 73, 63
1, 500509, Note_off_c, 0, 76, 61
1, 500509, Poly_aftertouch_c, 0, 76, 0
1, 500658, Note_on_c, 0, 53, 90
1, 500670, Control_c, 0, 64, 84
1, 500677, Note_on_c, 0, 69, 79
1, 500690, Control_c, 0, 64, 41
1, 500708, Control_c, 0, 64, 0
1, 500718, Note_off_c, 0, 67, 61
1, 500718, Poly_aftertouch_c, 0, 67, 0
1, 500860, Control_c, 0, 64, 28
1, 500876, Control_c, 0, 64, 63
1, 500896, Control_c, 0, 64, 97
1, 500901, Note_on_c, 0, 67, 80
1, 500915, Control_c, 0, 64, 127
1, 501141, Note_on_c, 0, 65, 82
1, 501165, Note_off_c, 0, 69, 52
1, 501165, Poly_aftertouch_c, 0, 69, 0
1, 501189, Note_off_c, 0, 67, 60
1, 501189, Poly_aftertouch_c, 0, 67, 0
1, 501345, Note_on_c, 0, 64, 81
1, 501386, Note_off_c, 0, 65, 61
1, 501453, Note_off_c, 0, 64, 62
1, 501607, Control_c, 0, 64, 84
1, 501620, Note_on_c, 0, 74, 87
1, 501621, Note_on_c, 0, 69, 86
1, 501623, Note_on_c, 0, 65, 88
1, 501625, Control_c, 0, 64, 43
1, 501644, Control_c, 0, 64, 0
1, 501719, Control_c, 0, 64, 18
1, 501738, Control_c, 0, 64, 55
1, 501756, Control_c, 0, 64, 94
1, 501775, Control_c, 0, 64, 127
1, 501823, Note_off_c, 0, 53, 58
1, 501841, Note_on_c, 0, 64, 82
1, 501874, Note_off_c, 0, 65, 61
1, 502074, Control_c, 0, 64, 117
1, 502075, Note_on_c, 0, 45, 84
1, 502088, Note_on_c, 0, 65, 86
1, 502092, Control_c, 0, 64, 51
1, 502113, Control_c, 0, 64, 0
1, 502118, Note_off_c, 0, 64, 61
1, 502170, Control_c, 0, 64, 48
1, 502187, Control_c, 0, 64, 127
1, 502219, Note_off_c, 0, 45, 61
1, 502307, Note_on_c, 0, 62, 84
1, 502324, Note_off_c, 0, 65, 66
1, 502555, Note_on_c, 0, 68, 92
1, 502563, Note_on_c, 0, 52, 75
1, 502571, Note_on_c, 0, 59, 81
1, 502578, Control_c, 0, 64, 70
1, 502591, Note_off_c, 0, 69, 60
1, 502591, Poly_aftertouch_c, 0, 69, 0
1, 502599, Note_off_c, 0, 62, 59
1, 502618, Control_c, 0, 64, 0
1, 502692, Control_c, 0, 64, 28
1, 502713, Control_c, 0, 64, 78
1, 502730, Control_c, 0, 64, 127
1, 502805, Note_on_c, 0, 62, 81
1, 502808, Note_off_c, 0, 59, 60
1, 503039, Note_on_c, 0, 60, 81
1, 503077, Note_off_c, 0, 62, 62
1, 503245, Note_on_c, 0, 59, 83
1, 503273, Note_off_c, 0, 60, 61
1, 503493, Note_off_c, 0, 59, 62
1, 503496, Control_c, 0, 64, 83
1, 503517, Control_c, 0, 64, 43
1, 503519, Note_on_c, 0, 67, 92
1, 503521, Note_on_c, 0, 57, 77
1, 503529, Note_on_c, 0, 73, 80
1, 503535, Control_c, 0, 64, 0
1, 503548, Note_off_c, 0, 52, 58
1, 503561, Note_off_c, 0, 68, 61
1, 503628, Control_c, 0, 64, 18
1, 503647, Control_c, 0, 64, 50
1, 503659, Note_off_c, 0, 74, 32
1, 503665, Control_c, 0, 64, 85
1, 503684, Control_c, 0, 64, 127
1, 503750, Note_on_c, 0, 50, 73
1, 503991, Note_on_c, 0, 49, 83
1, 504040, Control_c, 0, 64, 81
1, 504059, Control_c, 0, 64, 46
1, 504062, Note_off_c, 0, 50, 51
1, 504078, Control_c, 0, 64, 31
1, 504095, Control_c, 0, 64, 43
1, 504115, Control_c, 0, 64, 72
1, 504134, Control_c, 0, 64, 127
1, 504237, Note_on_c, 0, 47, 78
1, 504277, Note_off_c, 0, 49, 60
1, 504481, Note_on_c, 0, 66, 89
1, 504486, Note_on_c, 0, 45, 75
1, 504489, Control_c, 0, 64, 91
1, 504492, Note_off_c, 0, 47, 62
1, 504508, Control_c, 0, 64, 45
1, 504527, Control_c, 0, 64, 0
1, 504620, Note_off_c, 0, 67, 55
1, 504620, Poly_aftertouch_c, 0, 67, 0
1, 504620, Control_c, 0, 64, 28
1, 504638, Control_c, 0, 64, 64
1, 504658, Control_c, 0, 64, 109
1, 504677, Control_c, 0, 64, 127
1, 504710, Note_off_c, 0, 57, 48
1, 504713, Note_on_c, 0, 47, 81
1, 504740, Note_off_c, 0, 45, 57
1, 504951, Note_on_c, 0, 49, 81
1, 504962, Note_off_c, 0, 47, 62
1, 504995, Control_c, 0, 64, 75
1, 505014, Control_c, 0, 64, 31
1, 505032, Control_c, 0, 64, 0
1, 505070, Control_c, 0, 64, 35
1, 505088, Control_c, 0, 64, 84
1, 505108, Control_c, 0, 64, 127
1, 505175, Note_on_c, 0, 45, 80
1, 505204, Note_off_c, 0, 49, 62
1, 505434, Note_off_c, 0, 45, 62
1, 505436, Note_on_c, 0, 65, 86
1, 505438, Note_on_c, 0, 50, 73
1, 505444, Control_c, 0, 64, 75
1, 505463, Control_c, 0, 64, 34
1, 505478, Note_off_c, 0, 66, 63
1, 505481, Control_c, 0, 64, 0
1, 505519, Note_off_c, 0, 73, 59
1, 505520, Control_c, 0, 64, 17
1, 505537, Control_c, 0, 64, 56
1, 505556, Control_c, 0, 64, 127
1, 505669, Note_on_c, 0, 72, 84
1, 505712, Note_off_c, 0, 50, 62
1, 505906, Note_on_c, 0, 50, 83
1, 505913, Control_c, 0, 64, 91
1, 505921, Note_on_c, 0, 71, 80
1, 505931, Control_c, 0, 64, 57
1, 505950, Control_c, 0, 64, 30
1, 505987, Control_c, 0, 64, 43
1, 506005, Control_c, 0, 64, 74
1, 506024, Control_c, 0, 64, 127
1, 506027, Note_off_c, 0, 72, 46
1, 506027, Poly_aftertouch_c, 0, 72, 0
1, 506125, Note_on_c, 0, 69, 80
1, 506180, Note_off_c, 0, 71, 52
1, 506183, Note_off_c, 0, 50, 62
1, 506199, Note_off_c, 0, 65, 59
1, 506374, Note_on_c, 0, 64, 77
1, 506374, Note_on_c, 0, 68, 81
1, 506378, Note_on_c, 0, 50, 80
1, 506379, Note_off_c, 0, 69, 59
1, 506379, Poly_aftertouch_c, 0, 69, 0
1, 506399, Control_c, 0, 64, 70
1, 506418, Control_c, 0, 64, 36
1, 506437, Control_c, 0, 64, 11
1, 506530, Control_c, 0, 64, 30
1, 506549, Control_c, 0, 64, 57
1, 506567, Control_c, 0, 64, 84
1, 506586, Control_c, 0, 64, 127
1, 506599, Note_on_c, 0, 71, 82
1, 506647, Note_off_c, 0, 68, 62
1, 506847, Control_c, 0, 64, 88
1, 506853, Note_on_c, 0, 76, 79
1, 506855, Note_on_c, 0, 48, 72
1, 506867, Control_c, 0, 64, 52
1, 506885, Control_c, 0, 64, 23
1, 506904, Control_c, 0, 64, 18
1, 506942, Control_c, 0, 64, 38
1, 506959, Control_c, 0, 64, 69
1, 506979, Control_c, 0, 64, 127
1, 507061, Note_off_c, 0, 64, 57
1, 507078, Note_on_c, 0, 47, 78
1, 507079, Note_off_c, 0, 50, 39
1, 507105, Note_off_c, 0, 48, 55
1, 507328, Note_off_c, 0, 47, 63
1, 507336, Note_off_c, 0, 71, 61
1, 507340, Note_on_c, 0, 50, 71
1, 507343, Note_on_c, 0, 69, 89
1, 507354, Control_c, 0, 64, 74
1, 507369, Note_off_c, 0, 76, 62
1, 507369, Poly_aftertouch_c, 0, 76, 0
1, 507372, Control_c, 0, 64, 37
1, 507391, Control_c, 0, 64, 10
1, 507448, Control_c, 0, 64, 19
1, 507466, Control_c, 0, 64, 45
1, 507484, Control_c, 0, 64, 83
1, 507505, Control_c, 0, 64, 127
1, 507581, Note_on_c, 0, 81, 87
1, 507589, Note_on_c, 0, 48, 73
1, 507602, Note_off_c, 0, 50, 59
1, 507810, Note_on_c, 0, 80, 88
1, 507820, Note_on_c, 0, 47, 71
1, 507820, Control_c, 0, 64, 113
1, 507832, Note_off_c, 0, 48, 57
1, 507838, Control_c, 0, 64, 62
1, 507855, Note_off_c, 0, 81, 62
1, 507855, Poly_aftertouch_c, 0, 81, 0
1, 507858, Control_c, 0, 64, 18
1, 507878, Control_c, 0, 64, 0
1, 507933, Control_c, 0, 64, 32
1, 507953, Control_c, 0, 64, 71
1, 507972, Control_c, 0, 64, 127
1, 508032, Note_off_c, 0, 47, 62
1, 508034, Note_on_c, 0, 81, 85
1, 508040, Note_on_c, 0, 45, 70
1, 508078, Note_off_c, 0, 80, 63
1, 508276, Note_off_c, 0, 45, 61
1, 508290, Control_c, 0, 64, 121
1, 508302, Note_on_c, 0, 74, 87
1, 508306, Control_c, 0, 64, 63
1, 508310, Note_on_c, 0, 48, 61
1, 508328, Control_c, 0, 64, 8
1, 508345, Control_c, 0, 64, 0
1, 508364, Note_off_c, 0, 81, 60
1, 508364, Poly_aftertouch_c, 0, 81, 0
1, 508388, Poly_aftertouch_c, 0, 79, 0
1, 508413, Note_off_c, 0, 48, 58
1, 508435, Note_on_c, 0, 47, 68
1, 508457, Control_c, 0, 64, 36
1, 508477, Control_c, 0, 64, 64
1, 508495, Control_c, 0, 64, 77
1, 508514, Control_c, 0, 64, 80
1, 508515, Note_off_c, 0, 47, 61
1, 508532, Control_c, 0, 64, 74
1, 508539, Note_on_c, 0, 76, 87
1, 508550, Note_on_c, 0, 48, 67
1, 508551, Control_c, 0, 64, 60
1, 508570, Control_c, 0, 64, 37
1, 508588, Control_c, 0, 64, 13
1, 508590, Note_off_c, 0, 74, 62
1, 508594, Note_off_c, 0, 48, 61
1, 508607, Control_c, 0, 64, 8
1, 508625, Note_on_c, 0, 47, 64
1, 508674, Note_off_c, 0, 47, 66
1, 508681, Control_c, 0, 64, 17
1, 508700, Control_c, 0, 64, 31
1, 508704, Note_on_c, 0, 48, 66
1, 508720, Control_c, 0, 64, 50
1, 508738, Control_c, 0, 64, 64
1, 508755, Note_off_c, 0, 48, 61
1, 508757, Control_c, 0, 64, 67
1, 508771, Note_on_c, 0, 47, 69
1, 508771, Note_on_c, 0, 77, 88
1, 508775, Control_c, 0, 64, 66
1, 508799, Note_off_c, 0, 76, 63
1, 508799, Poly_aftertouch_c, 0, 76, 0
1, 508809, Note_off_c, 0, 47, 66
1, 508812, Control_c, 0, 64, 69
1, 508832, Control_c, 0, 64, 77
1, 508850, Control_c, 0, 64, 93
1, 508851, Note_on_c, 0, 48, 70
1, 508869, Control_c, 0, 64, 127
1, 508890, Note_off_c, 0, 48, 61
1, 508912, Note_on_c, 0, 47, 69
1, 508976, Note_off_c, 0, 47, 60
1, 508992, Note_on_c, 0, 48, 67
1, 509037, Note_off_c, 0, 48, 60
1, 509051, Note_on_c, 0, 47, 64
1, 509092, Note_off_c, 0, 47, 65
1, 509120, Note_on_c, 0, 48, 74
1, 509177, Note_off_c, 0, 48, 50
1, 509202, Note_on_c, 0, 47, 72
1, 509216, Note_on_c, 0, 68, 86
1, 509225, Control_c, 0, 64, 90
1, 509244, Control_c, 0, 64, 65
1, 509262, Control_c, 0, 64, 45
1, 509282, Control_c, 0, 64, 35
1, 509303, Note_off_c, 0, 69, 53
1, 509303, Poly_aftertouch_c, 0, 69, 0
1, 509375, Control_c, 0, 64, 31
1, 509431, Control_c, 0, 64, 23
1, 509450, Control_c, 0, 64, 18
1, 509463, Note_on_c, 0, 74, 74
1, 509468, Control_c, 0, 64, 14
1, 509505, Control_c, 0, 64, 10
1, 509697, Note_on_c, 0, 71, 79
1, 509730, Control_c, 0, 64, 25
1, 509750, Control_c, 0, 64, 52
1, 509753, Note_off_c, 0, 77, 54
1, 509753, Poly_aftertouch_c, 0, 77, 0
1, 509768, Control_c, 0, 64, 76
1, 509777, Note_off_c, 0, 74, 56
1, 509787, Control_c, 0, 64, 102
1, 509806, Control_c, 0, 64, 127
1, 509917, Note_on_c, 0, 76, 79
1, 509957, Note_off_c, 0, 71, 60
1, 509960, Note_off_c, 0, 68, 63
1, 510161, Control_c, 0, 64, 118
1, 510162, Note_off_c, 0, 47, 60
1, 510170, Note_on_c, 0, 69, 77
1, 510172, Note_on_c, 0, 45, 62
1, 510174, Note_on_c, 0, 72, 73
1, 510179, Control_c, 0, 64, 69
1, 510198, Control_c, 0, 64, 33
1, 510217, Control_c, 0, 64, 0
1, 510257, Note_off_c, 0, 76, 61
1, 510257, Poly_aftertouch_c, 0, 76, 0
1, 510349, Control_c, 0, 64, 12
1, 510367, Control_c, 0, 64, 32
1, 510385, Control_c, 0, 64, 59
1, 510404, Control_c, 0, 64, 82
1, 510415, Note_on_c, 0, 74, 73
1, 510422, Control_c, 0, 64, 115
1, 510441, Control_c, 0, 64, 127
1, 510518, Note_off_c, 0, 45, 61
1, 510611, Note_off_c, 0, 74, 56
1, 510623, Note_on_c, 0, 75, 68
1, 510670, Note_off_c, 0, 72, 50
1, 510670, Poly_aftertouch_c, 0, 72, 0
1, 510863, Note_on_c, 0, 67, 79
1, 510869, Note_off_c, 0, 69, 61
1, 510869, Poly_aftertouch_c, 0, 69, 0
1, 511142, Note_on_c, 0, 57, 80
1, 511153, Control_c, 0, 64, 108
1, 511172, Control_c, 0, 64, 70
1, 511181, Note_on_c, 0, 66, 69
1, 511190, Control_c, 0, 64, 41
1, 511209, Control_c, 0, 64, 19
1, 511228, Control_c, 0, 64, 12
1, 511304, Note_off_c, 0, 67, 46
1, 511304, Poly_aftertouch_c, 0, 67, 0
1, 511396, Control_c, 0, 64, 17
1, 511412, Note_on_c, 0, 72, 73
1, 511414, Control_c, 0, 64, 31
1, 511434, Control_c, 0, 64, 56
1, 511453, Control_c, 0, 64, 79
1, 511472, Control_c, 0, 64, 115
1, 511490, Control_c, 0, 64, 127
1, 511646, Note_on_c, 0, 69, 76
1, 511682, Note_off_c, 0, 75, 59
1, 511702, Note_off_c, 0, 72, 58
1, 511702, Poly_aftertouch_c, 0, 72, 0
1, 511856, Note_on_c, 0, 74, 71
1, 512109, Control_c, 0, 64, 108
1, 512123, Note_on_c, 0, 71, 64
1, 512123, Note_on_c, 0, 56, 78
1, 512128, Control_c, 0, 64, 66
1, 512145, Control_c, 0, 64, 30
1, 512165, Control_c, 0, 64, 0
1, 512174, Note_off_c, 0, 57, 52
1, 512285, Note_off_c, 0, 69, 33
1, 512285, Poly_aftertouch_c, 0, 69, 0
1, 512315, Control_c, 0, 64, 14
1, 512332, Control_c, 0, 64, 25
1, 512349, Note_on_c, 0, 64, 67
1, 512351, Control_c, 0, 64, 45
1, 512360, Note_off_c, 0, 66, 62
1, 512369, Control_c, 0, 64, 68
1, 512388, Control_c, 0, 64, 87
1, 512408, Control_c, 0, 64, 127
1, 512585, Note_on_c, 0, 66, 80
1, 512625, Note_off_c, 0, 64, 58
1, 512804, Note_on_c, 0, 68, 81
1, 512844, Note_off_c, 0, 74, 53
1, 512856, Note_off_c, 0, 71, 56
1, 512935, Note_off_c, 0, 66, 46
1, 513047, Note_on_c, 0, 69, 79
1, 513049, Note_off_c, 0, 68, 65
1, 513058, Note_on_c, 0, 55, 80
1, 513061, Control_c, 0, 64, 84
1, 513069, Note_off_c, 0, 56, 61
1, 513082, Control_c, 0, 64, 48
1, 513100, Control_c, 0, 64, 10
1, 513119, Control_c, 0, 64, 0
1, 513212, Control_c, 0, 64, 8
1, 513232, Control_c, 0, 64, 26
1, 513249, Control_c, 0, 64, 53
1, 513269, Control_c, 0, 64, 78
1, 513275, Note_on_c, 0, 73, 80
1, 513287, Control_c, 0, 64, 108
1, 513306, Control_c, 0, 64, 127
1, 513503, Note_on_c, 0, 75, 84
1, 513572, Note_off_c, 0, 73, 56
1, 513716, Note_on_c, 0, 76, 84
1, 513776, Note_off_c, 0, 75, 51
1, 513961, Control_c, 0, 64, 106
1, 513962, Note_on_c, 0, 54, 69
1, 513967, Note_on_c, 0, 75, 82
1, 513979, Control_c, 0, 64, 63
1, 513998, Control_c, 0, 64, 24
1, 514023, Note_off_c, 0, 55, 59
1, 514037, Note_off_c, 0, 76, 59
1, 514037, Poly_aftertouch_c, 0, 76, 0
1, 514073, Control_c, 0, 64, 10
1, 514092, Control_c, 0, 64, 24
1, 514111, Control_c, 0, 64, 44
1, 514129, Control_c, 0, 64, 65
1, 514148, Control_c, 0, 64, 81
1, 514168, Control_c, 0, 64, 101
1, 514184, Control_c, 0, 64, 127
1, 514186, Note_on_c, 0, 57, 77
1, 514421, Note_on_c, 0, 59, 80
1, 514447, Control_c, 0, 64, 119
1, 514462, Note_off_c, 0, 57, 58
1, 514465, Control_c, 0, 64, 78
1, 514485, Control_c, 0, 64, 59
1, 514522, Control_c, 0, 64, 69
1, 514541, Control_c, 0, 64, 90
1, 514560, Control_c, 0, 64, 127
1, 514646, Note_on_c, 0, 61, 77
1, 514875, Note_off_c, 0, 61, 61
1, 514880, Note_off_c, 0, 59, 59
1, 514886, Note_off_c, 0, 69, 53
1, 514886, Poly_aftertouch_c, 0, 69, 0
1, 514896, Note_on_c, 0, 62, 79
1, 514898, Note_off_c, 0, 54, 63
1, 514900, Note_on_c, 0, 53, 74
1, 514916, Control_c, 0, 64, 89
1, 514935, Control_c, 0, 64, 52
1, 514953, Control_c, 0, 64, 18
1, 514972, Control_c, 0, 64, 13
1, 514990, Control_c, 0, 64, 18
1, 514995, Note_off_c, 0, 75, 64
1, 515008, Control_c, 0, 64, 38
1, 515028, Control_c, 0, 64, 71
1, 515046, Control_c, 0, 64, 127
1, 515103, Note_on_c, 0, 74, 86
1, 515345, Note_on_c, 0, 76, 86
1, 515365, Control_c, 0, 64, 118
1, 515383, Control_c, 0, 64, 87
1, 515422, Control_c, 0, 64, 115
1, 515439, Control_c, 0, 64, 127
1, 515539, Note_off_c, 0, 74, 27
1, 515561, Note_on_c, 0, 77, 84
1, 515606, Note_off_c, 0, 76, 64
1, 515606, Poly_aftertouch_c, 0, 76, 0
1, 515803, Note_on_c, 0, 52, 79
1, 515807, Note_on_c, 0, 61, 82
1, 515808, Note_on_c, 0, 79, 84
1, 515809, Note_off_c, 0, 77, 62
1, 515809, Poly_aftertouch_c, 0, 77, 0
1, 515813, Control_c, 0, 64, 75
1, 515834, Control_c, 0, 64, 37
1, 515847, Note_off_c, 0, 53, 60
1, 515915, Note_off_c, 0, 62, 59
1, 515946, Control_c, 0, 64, 21
1, 515963, Control_c, 0, 64, 44
1, 515983, Control_c, 0, 64, 70
1, 516001, Control_c, 0, 64, 94
1, 516019, Control_c, 0, 64, 127
1, 516049, Note_on_c, 0, 81, 89
1, 516088, Note_off_c, 0, 79, 63
1, 516280, Note_on_c, 0, 82, 88
1, 516304, Note_off_c, 0, 81, 59
1, 516304, Poly_aftertouch_c, 0, 81, 0
1, 516507, Note_on_c, 0, 79, 86
1, 516737, Note_off_c, 0, 61, 60
1, 516746, Note_on_c, 0, 76, 83
1, 516749, Note_off_c, 0, 52, 59
1, 516753, Note_on_c, 0, 57, 68
1, 516755, Note_on_c, 0, 60, 80
1, 516758, Note_off_c, 0, 79, 63
1, 516769, Control_c, 0, 64, 113
1, 516787, Control_c, 0, 64, 67
1, 516806, Control_c, 0, 64, 34
1, 516825, Control_c, 0, 64, 11
1, 516937, Control_c, 0, 64, 22
1, 516955, Control_c, 0, 64, 46
1, 516971, Note_on_c, 0, 79, 82
1, 516974, Control_c, 0, 64, 75
1, 516993, Control_c, 0, 64, 106
1, 517011, Control_c, 0, 64, 127
1, 517216, Note_on_c, 0, 78, 87
1, 517254, Note_off_c, 0, 79, 63
1, 517255, Note_off_c, 0, 82, 61
1, 517419, Note_on_c, 0, 81, 81
1, 517463, Note_off_c, 0, 78, 63
1, 517667, Note_off_c, 0, 76, 59
1, 517667, Poly_aftertouch_c, 0, 76, 0
1, 517667, Control_c, 0, 64, 113
1, 517670, Note_on_c, 0, 75, 77
1, 517677, Note_on_c, 0, 59, 80
1, 517686, Control_c, 0, 64, 69
1, 517701, Note_off_c, 0, 60, 56
1, 517704, Control_c, 0, 64, 40
1, 517723, Control_c, 0, 64, 33
1, 517742, Control_c, 0, 64, 40
1, 517760, Control_c, 0, 64, 62
1, 517780, Control_c, 0, 64, 90
1, 517797, Control_c, 0, 64, 127
1, 517911, Note_on_c, 0, 78, 80
1, 517955, Note_off_c, 0, 75, 62
1, 518139, Note_on_c, 0, 76, 81
1, 518380, Note_on_c, 0, 75, 80
1, 518408, Note_off_c, 0, 76, 61
1, 518408, Poly_aftertouch_c, 0, 76, 0
1, 518630, Note_on_c, 0, 58, 75
1, 518635, Note_on_c, 0, 76, 80
1, 518640, Note_off_c, 0, 57, 61
1, 518640, Note_on_c, 0, 55, 72
1, 518640, Control_c, 0, 64, 86
1, 518659, Control_c, 0, 64, 49
1, 518662, Note_off_c, 0, 59, 59
1, 518663, Note_off_c, 0, 81, 50
1, 518663, Poly_aftertouch_c, 0, 81, 0
1, 518679, Control_c, 0, 64, 11
1, 518697, Control_c, 0, 64, 0
1, 518770, Note_off_c, 0, 78, 32
1, 518771, Control_c, 0, 64, 10
1, 518791, Control_c, 0, 64, 33
1, 518808, Control_c, 0, 64, 64
1, 518828, Control_c, 0, 64, 97
1, 518847, Control_c, 0, 64, 127
1, 518861, Note_on_c, 0, 79, 78
1, 518920, Note_off_c, 0, 75, 35
1, 518928, Note_off_c, 0, 76, 59
1, 518928, Poly_aftertouch_c, 0, 76, 0
1, 519118, Note_on_c, 0, 73, 76
1, 519324, Note_on_c, 0, 76, 80
1, 519372, Note_off_c, 0, 79, 49
1, 519536, Note_off_c, 0, 58, 62
1, 519588, Note_on_c, 0, 81, 78
1, 519600, Note_on_c, 0, 57, 80
1, 519642, Note_off_c, 0, 73, 60
1, 519651, Control_c, 0, 64, 86
1, 519669, Control_c, 0, 64, 56
1, 519676, Note_off_c, 0, 76, 59
1, 519676, Poly_aftertouch_c, 0, 76, 0
1, 519688, Control_c, 0, 64, 32
1, 519708, Control_c, 0, 64, 22
1, 519745, Control_c, 0, 64, 17
1, 519839, Control_c, 0, 64, 38
1, 519844, Note_on_c, 0, 73, 80
1, 519857, Control_c, 0, 64, 69
1, 519876, Control_c, 0, 64, 116
1, 519894, Control_c, 0, 64, 127
1, 520074, Note_on_c, 0, 74, 80
1, 520092, Note_off_c, 0, 73, 60
1, 520294, Note_on_c, 0, 76, 81
1, 520324, Note_off_c, 0, 74, 60
1, 520513, Control_c, 0, 64, 80
1, 520531, Control_c, 0, 64, 51
1, 520543, Note_on_c, 0, 62, 77
1, 520544, Note_on_c, 0, 77, 83
1, 520546, Note_off_c, 0, 76, 62
1, 520546, Poly_aftertouch_c, 0, 76, 0
1, 520550, Control_c, 0, 64, 39
1, 520556, Note_off_c, 0, 57, 63
1, 520558, Note_off_c, 0, 81, 59
1, 520558, Poly_aftertouch_c, 0, 81, 0
1, 520568, Control_c, 0, 64, 45
1, 520587, Control_c, 0, 64, 62
1, 520597, Note_off_c, 0, 55, 63
1, 520605, Control_c, 0, 64, 86
1, 520624, Control_c, 0, 64, 127
1, 520766, Note_on_c, 0, 81, 82
1, 520780, Note_on_c, 0, 53, 74
1, 520794, Control_c, 0, 64, 77
1, 520811, Control_c, 0, 64, 59
1, 520831, Control_c, 0, 64, 65
1, 520849, Control_c, 0, 64, 86
1, 520868, Control_c, 0, 64, 127
1, 520913, Poly_aftertouch_c, 0, 83, 0
1, 520981, Control_c, 0, 64, 79
1, 520999, Control_c, 0, 64, 56
1, 521006, Note_on_c, 0, 52, 74
1, 521014, Note_on_c, 0, 79, 83
1, 521036, Control_c, 0, 64, 73
1, 521038, Note_off_c, 0, 53, 59
1, 521055, Control_c, 0, 64, 127
1, 521057, Note_off_c, 0, 81, 63
1, 521057, Poly_aftertouch_c, 0, 81, 0
1, 521219, Note_on_c, 0, 53, 76
1, 521220, Note_on_c, 0, 81, 83
1, 521257, Note_off_c, 0, 52, 58
1, 521271, Note_off_c, 0, 79, 62
1, 521350, Note_off_c, 0, 53, 60
1, 521449, Control_c, 0, 64, 90
1, 521465, Note_on_c, 0, 55, 80
1, 521466, Control_c, 0, 64, 51
1, 521471, Note_on_c, 0, 82, 82
1, 521485, Control_c, 0, 64, 16
1, 521505, Control_c, 0, 64, 10
1, 521516, Note_off_c, 0, 81, 62
1, 521516, Poly_aftertouch_c, 0, 81, 0
1, 521542, Control_c, 0, 64, 34
1, 521560, Control_c, 0, 64, 76
1, 521580, Control_c, 0, 64, 127
1, 521688, Note_on_c, 0, 57, 79
1, 521694, Note_on_c, 0, 81, 80
1, 521728, Note_off_c, 0, 55, 63
1, 521795, Note_off_c, 0, 82, 61
1, 521816, Note_off_c, 0, 81, 62
1, 521816, Poly_aftertouch_c, 0, 81, 0
1, 521934, Note_on_c, 0, 58, 80
1, 521946, Note_on_c, 0, 79, 82
1, 521952, Control_c, 0, 64, 92
1, 521972, Note_off_c, 0, 57, 61
1, 521972, Control_c, 0, 64, 55
1, 521992, Control_c, 0, 64, 23
1, 522009, Control_c, 0, 64, 15
1, 522013, Note_off_c, 0, 77, 56
1, 522013, Poly_aftertouch_c, 0, 77, 0
1, 522047, Control_c, 0, 64, 28
1, 522066, Control_c, 0, 64, 60
1, 522084, Control_c, 0, 64, 114
1, 522103, Control_c, 0, 64, 127
1, 522164, Note_on_c, 0, 77, 80
1, 522214, Note_off_c, 0, 62, 61
1, 522392, Note_off_c, 0, 58, 63
1, 522397, Note_on_c, 0, 61, 77
1, 522398, Note_on_c, 0, 76, 77
1, 522403, Control_c, 0, 64, 82
1, 522422, Control_c, 0, 64, 49
1, 522440, Control_c, 0, 64, 30
1, 522459, Control_c, 0, 64, 34
1, 522462, Note_off_c, 0, 77, 56
1, 522462, Poly_aftertouch_c, 0, 77, 0
1, 522478, Control_c, 0, 64, 58
1, 522496, Control_c, 0, 64, 104
1, 522515, Control_c, 0, 64, 127
1, 522614, Note_on_c, 0, 55, 73
1, 522634, Note_on_c, 0, 74, 74
1, 522656, Note_off_c, 0, 76, 60
1, 522656, Poly_aftertouch_c, 0, 76, 0
1, 522664, Control_c, 0, 64, 106
1, 522683, Control_c, 0, 64, 127
1, 522835, Note_on_c, 0, 52, 71
1, 522853, Note_off_c, 0, 55, 55
1, 522871, Control_c, 0, 64, 80
1, 522874, Note_on_c, 0, 76, 82
1, 522886, Note_off_c, 0, 79, 62
1, 522889, Control_c, 0, 64, 54
1, 522927, Control_c, 0, 64, 68
1, 522947, Control_c, 0, 64, 110
1, 522964, Control_c, 0, 64, 127
1, 523079, Note_on_c, 0, 79, 81
1, 523087, Note_on_c, 0, 57, 78
1, 523091, Note_off_c, 0, 76, 60
1, 523091, Poly_aftertouch_c, 0, 76, 0
1, 523104, Note_off_c, 0, 52, 56
1, 523191, Note_off_c, 0, 61, 59
1, 523328, Note_on_c, 0, 62, 84
1, 523332, Note_on_c, 0, 50, 81
1, 523332, Note_on_c, 0, 77, 81
1, 523335, Note_off_c, 0, 57, 61
1, 523339, Control_c, 0, 64, 71
1, 523357, Control_c, 0, 64, 17
1, 523375, Control_c, 0, 64, 0
1, 523451, Control_c, 0, 64, 22
1, 523471, Control_c, 0, 64, 64
1, 523488, Control_c, 0, 64, 127
1, 523559, Note_on_c, 0, 76, 80
1, 523570, Note_off_c, 0, 50, 62
1, 523592, Note_off_c, 0, 74, 60
1, 523711, Poly_aftertouch_c, 0, 79, 24
1, 523784, Note_off_c, 0, 77, 28
1, 523784, Poly_aftertouch_c, 0, 77, 0
1, 523795, Note_off_c, 0, 79, 34
1, 523795, Poly_aftertouch_c, 0, 79, 0
1, 523796, Note_on_c, 0, 64, 89
1, 523796, Poly_aftertouch_c, 0, 79, 0
1, 523798, Note_on_c, 0, 74, 77
1, 523806, Control_c, 0, 64, 105
1, 523816, Note_off_c, 0, 76, 63
1, 523816, Poly_aftertouch_c, 0, 76, 0
1, 523823, Control_c, 0, 64, 78
1, 523831, Note_off_c, 0, 62, 63
1, 523845, Control_c, 0, 64, 74
1, 523863, Control_c, 0, 64, 93
1, 523881, Control_c, 0, 64, 127
1, 524015, Note_on_c, 0, 73, 82
1, 524025, Note_off_c, 0, 74, 57
1, 524241, Note_off_c, 0, 64, 62
1, 524250, Note_on_c, 0, 65, 86
1, 524255, Control_c, 0, 64, 76
1, 524261, Note_on_c, 0, 74, 81
1, 524275, Control_c, 0, 64, 33
1, 524279, Note_off_c, 0, 73, 61
1, 524293, Control_c, 0, 64, 0
1, 524331, Control_c, 0, 64, 29
1, 524349, Control_c, 0, 64, 76
1, 524369, Control_c, 0, 64, 127
1, 524468, Note_on_c, 0, 81, 78
1, 524717, Note_on_c, 0, 62, 86
1, 524723, Control_c, 0, 64, 97
1, 524727, Note_on_c, 0, 79, 83
1, 524743, Control_c, 0, 64, 53
1, 524745, Note_off_c, 0, 65, 60
1, 524760, Control_c, 0, 64, 23
1, 524780, Control_c, 0, 64, 31
1, 524800, Control_c, 0, 64, 63
1, 524817, Control_c, 0, 64, 127
1, 524939, Note_on_c, 0, 77, 82
1, 524955, Note_off_c, 0, 81, 33
1, 524955, Poly_aftertouch_c, 0, 81, 0
1, 524980, Note_off_c, 0, 79, 62
1, 525034, Note_off_c, 0, 77, 61
1, 525034, Poly_aftertouch_c, 0, 77, 0
1, 525131, Note_off_c, 0, 74, 60
1, 525176, Note_off_c, 0, 62, 63
1, 525189, Note_on_c, 0, 69, 84
1, 525196, Note_on_c, 0, 76, 86
1, 525211, Control_c, 0, 64, 78
1, 525230, Control_c, 0, 64, 43
1, 525249, Control_c, 0, 64, 12
1, 525267, Control_c, 0, 64, 8
1, 525323, Control_c, 0, 64, 28
1, 525342, Control_c, 0, 64, 63
1, 525361, Control_c, 0, 64, 127
1, 525422, Note_on_c, 0, 71, 80
1, 525664, Note_on_c, 0, 73, 84
1, 525679, Note_off_c, 0, 76, 58
1, 525679, Poly_aftertouch_c, 0, 76, 0
1, 525697, Control_c, 0, 64, 84
1, 525717, Control_c, 0, 64, 56
1, 525735, Control_c, 0, 64, 52
1, 525754, Control_c, 0, 64, 66
1, 525772, Control_c, 0, 64, 104
1, 525791, Control_c, 0, 64, 127
1, 525876, Note_on_c, 0, 76, 80
1, 525903, Control_c, 0, 64, 107
1, 525908, Note_off_c, 0, 73, 60
1, 525922, Control_c, 0, 64, 69
1, 525941, Control_c, 0, 64, 60
1, 525958, Control_c, 0, 64, 73
1, 525978, Control_c, 0, 64, 117
1, 525996, Control_c, 0, 64, 127
1, 526128, Control_c, 0, 64, 70
1, 526129, Note_on_c, 0, 77, 86
1, 526147, Control_c, 0, 64, 31
1, 526164, Control_c, 0, 64, 17
1, 526182, Note_off_c, 0, 71, 54
1, 526184, Control_c, 0, 64, 31
1, 526191, Note_off_c, 0, 76, 54
1, 526191, Poly_aftertouch_c, 0, 76, 0
1, 526203, Control_c, 0, 64, 69
1, 526220, Control_c, 0, 64, 127
1, 526258, Note_off_c, 0, 69, 43
1, 526258, Poly_aftertouch_c, 0, 69, 0
1, 526351, Note_on_c, 0, 73, 81
1, 526557, Control_c, 0, 64, 81
1, 526573, Note_on_c, 0, 62, 80
1, 526577, Control_c, 0, 64, 40
1, 526589, Note_on_c, 0, 74, 80
1, 526596, Control_c, 0, 64, 13
1, 526601, Note_off_c, 0, 73, 60
1, 526615, Control_c, 0, 64, 17
1, 526618, Note_off_c, 0, 77, 57
1, 526618, Poly_aftertouch_c, 0, 77, 0
1, 526632, Control_c, 0, 64, 40
1, 526652, Control_c, 0, 64, 81
1, 526671, Control_c, 0, 64, 127
1, 526792, Note_off_c, 0, 62, 59
1, 526802, Note_on_c, 0, 77, 77
1, 527044, Control_c, 0, 64, 97
1, 527062, Control_c, 0, 64, 43
1, 527064, Note_on_c, 0, 70, 90
1, 527068, Note_on_c, 0, 79, 83
1, 527083, Control_c, 0, 64, 0
1, 527086, Note_off_c, 0, 77, 61
1, 527086, Poly_aftertouch_c, 0, 77, 0
1, 527112, Note_off_c, 0, 74, 58
1, 527139, Control_c, 0, 64, 26
1, 527157, Control_c, 0, 64, 83
1, 527176, Control_c, 0, 64, 127
1, 527284, Note_on_c, 0, 74, 80
1, 527338, Note_off_c, 0, 70, 63
1, 527338, Poly_aftertouch_c, 0, 70, 0
1, 527512, Note_on_c, 0, 76, 78
1, 527585, Note_off_c, 0, 74, 56
1, 527734, Note_on_c, 0, 73, 80
1, 527873, Note_off_c, 0, 76, 30
1, 527873, Poly_aftertouch_c, 0, 76, 0
1, 527964, Control_c, 0, 64, 77
1, 527975, Note_on_c, 0, 50, 89
1, 527983, Control_c, 0, 64, 17
1, 527990, Note_on_c, 0, 69, 71
1, 527999, Control_c, 0, 64, 0
1, 528012, Note_off_c, 0, 73, 61
1, 528056, Control_c, 0, 64, 31
1, 528075, Control_c, 0, 64, 101
1, 528092, Control_c, 0, 64, 127
1, 528202, Note_on_c, 0, 73, 78
1, 528206, Note_off_c, 0, 69, 58
1, 528206, Poly_aftertouch_c, 0, 69, 0
1, 528448, Note_on_c, 0, 62, 87
1, 528448, Control_c, 0, 64, 71
1, 528456, Note_on_c, 0, 74, 82
1, 528467, Control_c, 0, 64, 20
1, 528470, Note_off_c, 0, 73, 61
1, 528486, Control_c, 0, 64, 0
1, 528505, Control_c, 0, 64, 14
1, 528523, Control_c, 0, 64, 62
1, 528543, Control_c, 0, 64, 127
1, 528660, Note_on_c, 0, 77, 80
1, 528662, Note_off_c, 0, 62, 58
1, 528707, Note_off_c, 0, 74, 62
1, 528727, Note_off_c, 0, 79, 53
1, 528759, Note_off_c, 0, 77, 61
1, 528759, Poly_aftertouch_c, 0, 77, 0
1, 528955, Control_c, 0, 64, 101
1, 528956, Note_on_c, 0, 69, 89
1, 528958, Note_on_c, 0, 49, 85
1, 528961, Note_on_c, 0, 76, 84
1, 528966, Note_off_c, 0, 50, 64
1, 528972, Control_c, 0, 64, 57
1, 528992, Control_c, 0, 64, 8
1, 529010, Control_c, 0, 64, 0
1, 529143, Control_c, 0, 64, 14
1, 529160, Control_c, 0, 64, 48
1, 529179, Control_c, 0, 64, 85
1, 529192, Note_on_c, 0, 74, 80
1, 529197, Control_c, 0, 64, 127
1, 529424, Note_on_c, 0, 73, 80
1, 529636, Note_on_c, 0, 71, 80
1, 529642, Note_off_c, 0, 69, 55
1, 529642, Poly_aftertouch_c, 0, 69, 0
1, 529659, Note_off_c, 0, 74, 20
1, 529692, Note_off_c, 0, 73, 61
1, 529708, Note_off_c, 0, 76, 19
1, 529708, Poly_aftertouch_c, 0, 76, 0
1, 529728, Note_off_c, 0, 71, 61
1, 529878, Note_on_c, 0, 48, 82
1, 529883, Note_off_c, 0, 49, 64
1, 529890, Note_on_c, 0, 69, 85
1, 529909, Control_c, 0, 64, 94
1, 529928, Control_c, 0, 64, 64
1, 529947, Control_c, 0, 64, 41
1, 529964, Control_c, 0, 64, 32
1, 530022, Control_c, 0, 64, 27
1, 530116, Note_on_c, 0, 67, 81
1, 530133, Control_c, 0, 64, 39
1, 530152, Control_c, 0, 64, 58
1, 530171, Control_c, 0, 64, 76
1, 530190, Control_c, 0, 64, 95
1, 530208, Control_c, 0, 64, 127
1, 530341, Note_on_c, 0, 65, 80
1, 530376, Control_c, 0, 64, 83
1, 530396, Control_c, 0, 64, 55
1, 530414, Control_c, 0, 64, 39
1, 530438, Note_off_c, 0, 67, 51
1, 530438, Poly_aftertouch_c, 0, 67, 0
1, 530451, Control_c, 0, 64, 51
1, 530471, Control_c, 0, 64, 69
1, 530490, Control_c, 0, 64, 98
1, 530507, Control_c, 0, 64, 127
1, 530562, Note_on_c, 0, 64, 82
1, 530612, Note_off_c, 0, 65, 60
1, 530813, Note_on_c, 0, 47, 83
1, 530814, Note_on_c, 0, 62, 79
1, 530827, Control_c, 0, 64, 78
1, 530845, Control_c, 0, 64, 47
1, 530854, Note_off_c, 0, 64, 61
1, 530862, Control_c, 0, 64, 16
1, 530865, Note_off_c, 0, 48, 61
1, 531013, Control_c, 0, 64, 11
1, 531032, Control_c, 0, 64, 26
1, 531049, Note_on_c, 0, 64, 82
1, 531050, Control_c, 0, 64, 52
1, 531069, Control_c, 0, 64, 76
1, 531090, Control_c, 0, 64, 103
1, 531105, Note_off_c, 0, 62, 58
1, 531106, Control_c, 0, 64, 127
1, 531273, Note_on_c, 0, 65, 81
1, 531338, Note_off_c, 0, 64, 56
1, 531492, Note_on_c, 0, 62, 82
1, 531500, Note_off_c, 0, 65, 63
1, 531740, Note_on_c, 0, 46, 80
1, 531743, Control_c, 0, 64, 77
1, 531745, Note_on_c, 0, 67, 83
1, 531763, Control_c, 0, 64, 34
1, 531775, Note_off_c, 0, 47, 59
1, 531780, Control_c, 0, 64, 0
1, 531874, Control_c, 0, 64, 14
1, 531893, Control_c, 0, 64, 50
1, 531911, Control_c, 0, 64, 91
1, 531930, Control_c, 0, 64, 127
1, 531966, Note_on_c, 0, 65, 83
1, 532002, Note_off_c, 0, 69, 55
1, 532002, Poly_aftertouch_c, 0, 69, 0
1, 532018, Note_off_c, 0, 67, 62
1, 532018, Poly_aftertouch_c, 0, 67, 0
1, 532212, Note_on_c, 0, 67, 84
1, 532213, Note_on_c, 0, 64, 80
1, 532230, Control_c, 0, 64, 106
1, 532232, Note_off_c, 0, 62, 54
1, 532239, Note_off_c, 0, 65, 56
1, 532249, Control_c, 0, 64, 59
1, 532267, Control_c, 0, 64, 16
1, 532304, Control_c, 0, 64, 24
1, 532324, Control_c, 0, 64, 65
1, 532342, Control_c, 0, 64, 127
1, 532436, Note_on_c, 0, 62, 81
1, 532440, Note_off_c, 0, 64, 63
1, 532480, Note_off_c, 0, 67, 60
1, 532480, Poly_aftertouch_c, 0, 67, 0
1, 532682, Note_on_c, 0, 67, 82
1, 532683, Note_on_c, 0, 45, 77
1, 532685, Note_off_c, 0, 46, 60
1, 532695, Note_on_c, 0, 61, 80
1, 532697, Control_c, 0, 64, 121
1, 532716, Control_c, 0, 64, 69
1, 532730, Note_off_c, 0, 62, 61
1, 532733, Control_c, 0, 64, 32
1, 532754, Control_c, 0, 64, 0
1, 532848, Control_c, 0, 64, 20
1, 532866, Control_c, 0, 64, 55
1, 532886, Control_c, 0, 64, 97
1, 532903, Control_c, 0, 64, 127
1, 532925, Note_on_c, 0, 59, 80
1, 532957, Note_off_c, 0, 61, 59
1, 533172, Note_on_c, 0, 65, 80
1, 533197, Note_on_c, 0, 61, 67
1, 533252, Note_off_c, 0, 59, 56
1, 533389, Note_on_c, 0, 64, 78
1, 533422, Note_off_c, 0, 67, 59
1, 533422, Poly_aftertouch_c, 0, 67, 0
1, 533444, Note_off_c, 0, 65, 58
1, 533660, Note_on_c, 0, 50, 80
1, 533662, Note_on_c, 0, 57, 69
1, 533663, Note_on_c, 0, 67, 80
1, 533671, Control_c, 0, 64, 93
1, 533678, Note_off_c, 0, 45, 58
1, 533691, Control_c, 0, 64, 54
1, 533695, Note_off_c, 0, 64, 60
1, 533695, Note_off_c, 0, 61, 58
1, 533708, Control_c, 0, 64, 11
1, 533727, Control_c, 0, 64, 0
1, 533877, Control_c, 0, 64, 25
1, 533896, Control_c, 0, 64, 54
1, 533913, Control_c, 0, 64, 78
1, 533917, Note_on_c, 0, 65, 75
1, 533933, Control_c, 0, 64, 109
1, 533953, Control_c, 0, 64, 127
1, 533981, Note_off_c, 0, 57, 54
1, 534162, Note_on_c, 0, 64, 82
1, 534195, Control_c, 0, 64, 103
1, 534214, Control_c, 0, 64, 82
1, 534234, Control_c, 0, 64, 88
1, 534249, Note_off_c, 0, 65, 54
1, 534250, Control_c, 0, 64, 127
1, 534381, Note_off_c, 0, 67, 54
1, 534381, Poly_aftertouch_c, 0, 67, 0
1, 534397, Note_on_c, 0, 62, 78
1, 534416, Note_off_c, 0, 64, 61
1, 534663, Control_c, 0, 64, 84
1, 534682, Control_c, 0, 64, 43
1, 534686, Note_on_c, 0, 64, 78
1, 534701, Control_c, 0, 64, 0
1, 534732, Note_off_c, 0, 62, 61
1, 534776, Control_c, 0, 64, 30
1, 534794, Control_c, 0, 64, 66
1, 534814, Control_c, 0, 64, 127
1, 535001, Note_on_c, 0, 67, 82
1, 535278, Note_on_c, 0, 69, 82
1, 535318, Control_c, 0, 64, 101
1, 535337, Control_c, 0, 64, 62
1, 535343, Note_off_c, 0, 67, 60
1, 535343, Poly_aftertouch_c, 0, 67, 0
1, 535356, Control_c, 0, 64, 31
1, 535375, Control_c, 0, 64, 21
1, 535412, Control_c, 0, 64, 42
1, 535431, Control_c, 0, 64, 79
1, 535449, Control_c, 0, 64, 127
1, 535537, Note_on_c, 0, 70, 86
1, 535581, Note_off_c, 0, 69, 59
1, 535581, Poly_aftertouch_c, 0, 69, 0
1, 535821, Note_on_c, 0, 69, 81
1, 535822, Control_c, 0, 64, 96
1, 535826, Note_on_c, 0, 49, 68
1, 535843, Control_c, 0, 64, 55
1, 535863, Control_c, 0, 64, 13
1, 535877, Note_off_c, 0, 70, 60
1, 535877, Poly_aftertouch_c, 0, 70, 0
1, 535878, Control_c, 0, 64, 0
1, 535905, Note_off_c, 0, 50, 60
1, 535936, Control_c, 0, 64, 24
1, 535955, Control_c, 0, 64, 63
1, 535973, Control_c, 0, 64, 127
1, 536083, Note_on_c, 0, 67, 83
1, 536122, Note_off_c, 0, 69, 57
1, 536122, Poly_aftertouch_c, 0, 69, 0
1, 536386, Note_on_c, 0, 76, 80
1, 536423, Control_c, 0, 64, 74
1, 536441, Control_c, 0, 64, 40
1, 536461, Control_c, 0, 64, 12
1, 536470, Note_off_c, 0, 67, 61
1, 536470, Poly_aftertouch_c, 0, 67, 0
1, 536535, Control_c, 0, 64, 28
1, 536554, Control_c, 0, 64, 59
1, 536573, Control_c, 0, 64, 114
1, 536590, Control_c, 0, 64, 127
1, 536649, Note_on_c, 0, 67, 73
1, 536946, Control_c, 0, 64, 115
1, 536959, Note_off_c, 0, 76, 62
1, 536959, Poly_aftertouch_c, 0, 76, 0
1, 536965, Control_c, 0, 64, 60
1, 536974, Note_on_c, 0, 65, 71
1, 536990, Note_on_c, 0, 50, 54
1, 536997, Note_off_c, 0, 49, 58
1, 537002, Control_c, 0, 64, 0
1, 537012, Note_off_c, 0, 67, 57
1, 537012, Poly_aftertouch_c, 0, 67, 0
1, 537059, Control_c, 0, 64, 25
1, 537078, Control_c, 0, 64, 66
1, 537096, Control_c, 0, 64, 127
1, 537125, Note_off_c, 0, 64, 57
1, 537234, Note_off_c, 0, 50, 59
1, 537237, Note_on_c, 0, 45, 60
1, 537483, Note_on_c, 0, 57, 73
1, 537488, Control_c, 0, 64, 92
1, 537502, Note_on_c, 0, 50, 63
1, 537506, Control_c, 0, 64, 54
1, 537526, Control_c, 0, 64, 20
1, 537547, Control_c, 0, 64, 10
1, 537584, Control_c, 0, 64, 23
1, 537601, Control_c, 0, 64, 47
1, 537621, Control_c, 0, 64, 77
1, 537639, Control_c, 0, 64, 127
1, 537717, Note_on_c, 0, 52, 69
1, 537753, Note_off_c, 0, 50, 59
1, 537768, Note_off_c, 0, 45, 47
1, 537958, Control_c, 0, 64, 109
1, 537964, Note_on_c, 0, 62, 79
1, 537970, Note_off_c, 0, 52, 61
1, 537975, Note_on_c, 0, 53, 65
1, 537978, Control_c, 0, 64, 68
1, 537995, Control_c, 0, 64, 37
1, 538013, Control_c, 0, 64, 20
1, 538017, Note_off_c, 0, 57, 56
1, 538070, Control_c, 0, 64, 27
1, 538088, Control_c, 0, 64, 39
1, 538108, Control_c, 0, 64, 62
1, 538126, Control_c, 0, 64, 92
1, 538144, Control_c, 0, 64, 127
1, 538176, Note_on_c, 0, 50, 69
1, 538210, Note_off_c, 0, 53, 56
1, 538292, Note_off_c, 0, 62, 62
1, 538435, Note_on_c, 0, 62, 81
1, 538437, Note_on_c, 0, 53, 70
1, 538462, Control_c, 0, 64, 102
1, 538475, Note_off_c, 0, 50, 50
1, 538482, Control_c, 0, 64, 65
1, 538501, Control_c, 0, 64, 43
1, 538538, Control_c, 0, 64, 54
1, 538556, Control_c, 0, 64, 77
1, 538577, Control_c, 0, 64, 127
1, 538651, Note_on_c, 0, 55, 74
1, 538680, Note_off_c, 0, 53, 59
1, 538703, Note_off_c, 0, 62, 62
1, 538875, Control_c, 0, 64, 72
1, 538892, Note_on_c, 0, 62, 70
1, 538893, Note_on_c, 0, 64, 71
1, 538894, Control_c, 0, 64, 38
1, 538899, Note_off_c, 0, 55, 63
1, 538907, Note_on_c, 0, 57, 67
1, 538912, Control_c, 0, 64, 21
1, 538949, Control_c, 0, 64, 43
1, 538969, Control_c, 0, 64, 80
1, 538970, Control_c, 0, 67, 8
1, 538982, Note_off_c, 0, 57, 62
1, 538987, Control_c, 0, 64, 127
1, 539123, Note_on_c, 0, 40, 71
1, 539155, Control_c, 0, 67, 12
1, 539210, Note_off_c, 0, 64, 60
1, 539226, Note_off_c, 0, 65, 61
1, 539375, Note_on_c, 0, 45, 70
1, 539379, Note_on_c, 0, 64, 84
1, 539380, Control_c, 0, 64, 79
1, 539398, Control_c, 0, 64, 44
1, 539418, Control_c, 0, 64, 12
1, 539473, Control_c, 0, 64, 18
1, 539493, Control_c, 0, 64, 49
1, 539512, Control_c, 0, 64, 98
1, 539529, Control_c, 0, 64, 127
1, 539601, Note_on_c, 0, 47, 76
1, 539621, Note_off_c, 0, 45, 61
1, 539641, Note_off_c, 0, 40, 37
1, 539842, Note_off_c, 0, 47, 63
1, 539852, Note_on_c, 0, 69, 79
1, 539855, Note_on_c, 0, 48, 67
1, 539855, Note_on_c, 0, 60, 73
1, 539868, Control_c, 0, 64, 89
1, 539877, Note_off_c, 0, 62, 58
1, 539878, Note_off_c, 0, 64, 53
1, 539885, Control_c, 0, 64, 52
1, 539904, Control_c, 0, 64, 21
1, 539924, Control_c, 0, 64, 14
1, 539961, Control_c, 0, 64, 19
1, 539979, Control_c, 0, 64, 38
1, 539997, Control_c, 0, 64, 70
1, 540016, Control_c, 0, 64, 127
1, 540076, Note_on_c, 0, 45, 67
1, 540084, Note_off_c, 0, 48, 59
1, 540183, Note_off_c, 0, 69, 55
1, 540183, Poly_aftertouch_c, 0, 69, 0
1, 540308, Note_on_c, 0, 48, 67
1, 540315, Control_c, 0, 64, 103
1, 540317, Note_on_c, 0, 69, 81
1, 540335, Control_c, 0, 64, 64
1, 540354, Control_c, 0, 64, 36
1, 540372, Control_c, 0, 64, 30
1, 540392, Control_c, 0, 64, 36
1, 540393, Note_off_c, 0, 45, 36
1, 540409, Control_c, 0, 64, 57
1, 540429, Control_c, 0, 64, 89
1, 540448, Control_c, 0, 64, 127
1, 540528, Note_on_c, 0, 50, 74
1, 540557, Note_off_c, 0, 48, 61
1, 540612, Note_off_c, 0, 69, 50
1, 540612, Poly_aftertouch_c, 0, 69, 0
1, 540765, Control_c, 0, 64, 103
1, 540772, Note_on_c, 0, 69, 75
1, 540774, Note_on_c, 0, 59, 76
1, 540780, Note_off_c, 0, 60, 56
1, 540784, Control_c, 0, 64, 64
1, 540801, Note_off_c, 0, 50, 63
1, 540804, Control_c, 0, 64, 35
1, 540807, Note_on_c, 0, 52, 68
1, 540821, Control_c, 0, 64, 18
1, 540877, Control_c, 0, 64, 43
1, 540897, Control_c, 0, 64, 80
1, 540899, Control_c, 0, 67, 8
1, 540911, Note_off_c, 0, 59, 62
1, 540915, Control_c, 0, 64, 127
1, 540971, Control_c, 0, 67, 0
1, 541009, Note_on_c, 0, 59, 79
1, 541178, Note_off_c, 0, 52, 35
1, 541232, Control_c, 0, 64, 105
1, 541237, Note_on_c, 0, 40, 65
1, 541237, Note_on_c, 0, 60, 78
1, 541254, Control_c, 0, 64, 63
1, 541270, Control_c, 0, 64, 32
1, 541290, Control_c, 0, 64, 22
1, 541299, Note_off_c, 0, 59, 61
1, 541327, Control_c, 0, 64, 30
1, 541345, Control_c, 0, 64, 52
1, 541364, Control_c, 0, 64, 81
1, 541384, Control_c, 0, 64, 127
1, 541452, Note_on_c, 0, 62, 80
1, 541487, Note_off_c, 0, 60, 62
1, 541697, Note_on_c, 0, 64, 82
1, 541708, Note_off_c, 0, 62, 63
1, 541711, Note_off_c, 0, 40, 60
1, 541720, Control_c, 0, 64, 71
1, 541739, Control_c, 0, 64, 37
1, 541757, Control_c, 0, 64, 21
1, 541796, Control_c, 0, 64, 41
1, 541814, Control_c, 0, 64, 74
1, 541832, Control_c, 0, 64, 127
1, 541924, Note_on_c, 0, 52, 67
1, 541964, Note_off_c, 0, 64, 61
1, 542133, Note_on_c, 0, 68, 81
1, 542149, Note_on_c, 0, 64, 65
1, 542154, Note_on_c, 0, 50, 78
1, 542160, Note_off_c, 0, 52, 60
1, 542167, Control_c, 0, 64, 83
1, 542186, Note_off_c, 0, 69, 56
1, 542186, Poly_aftertouch_c, 0, 69, 0
1, 542187, Control_c, 0, 64, 52
1, 542206, Control_c, 0, 64, 30
1, 542244, Control_c, 0, 64, 36
1, 542263, Control_c, 0, 64, 60
1, 542281, Control_c, 0, 64, 102
1, 542300, Control_c, 0, 64, 127
1, 542379, Note_on_c, 0, 52, 77
1, 542385, Note_off_c, 0, 50, 63
1, 542410, Note_off_c, 0, 64, 59
1, 542542, Note_off_c, 0, 68, 53
1, 542596, Note_on_c, 0, 69, 76
1, 542606, Note_on_c, 0, 64, 73
1, 542615, Note_on_c, 0, 54, 71
1, 542617, Control_c, 0, 64, 93
1, 542636, Note_off_c, 0, 52, 52
1, 542636, Control_c, 0, 64, 58
1, 542656, Control_c, 0, 64, 32
1, 542675, Control_c, 0, 64, 27
1, 542712, Control_c, 0, 64, 43
1, 542731, Control_c, 0, 64, 70
1, 542750, Control_c, 0, 64, 127
1, 542827, Note_on_c, 0, 52, 73
1, 542839, Note_off_c, 0, 54, 60
1, 543058, Note_on_c, 0, 62, 74
1, 543075, Note_on_c, 0, 54, 72
1, 543085, Note_off_c, 0, 64, 62
1, 543085, Control_c, 0, 64, 92
1, 543106, Control_c, 0, 64, 55
1, 543125, Control_c, 0, 64, 24
1, 543127, Note_off_c, 0, 52, 60
1, 543142, Control_c, 0, 64, 18
1, 543180, Control_c, 0, 64, 31
1, 543200, Control_c, 0, 64, 61
1, 543217, Control_c, 0, 64, 114
1, 543236, Control_c, 0, 64, 127
1, 543277, Note_on_c, 0, 57, 72
1, 543291, Note_off_c, 0, 54, 59
1, 543517, Note_on_c, 0, 71, 84
1, 543521, Note_on_c, 0, 56, 74
1, 543537, Control_c, 0, 64, 70
1, 543555, Control_c, 0, 64, 39
1, 543557, Note_off_c, 0, 57, 62
1, 543573, Control_c, 0, 64, 24
1, 543574, Note_off_c, 0, 69, 55
1, 543574, Poly_aftertouch_c, 0, 69, 0
1, 543610, Control_c, 0, 64, 41
1, 543630, Control_c, 0, 64, 73
1, 543648, Control_c, 0, 64, 127
1, 543736, Note_on_c, 0, 59, 72
1, 543756, Note_off_c, 0, 56, 61
1, 543979, Note_on_c, 0, 60, 74
1, 543984, Note_on_c, 0, 57, 48
1, 544004, Control_c, 0, 64, 77
1, 544014, Note_off_c, 0, 59, 61
1, 544021, Control_c, 0, 64, 40
1, 544042, Control_c, 0, 64, 13
1, 544078, Control_c, 0, 64, 26
1, 544097, Control_c, 0, 64, 58
1, 544117, Control_c, 0, 64, 108
1, 544135, Control_c, 0, 64, 127
1, 544153, Note_off_c, 0, 62, 50
1, 544181, Note_off_c, 0, 60, 59
1, 544195, Note_on_c, 0, 59, 75
1, 544196, Note_on_c, 0, 56, 73
1, 544209, Note_off_c, 0, 57, 61
1, 544422, Note_off_c, 0, 56, 60
1, 544428, Note_on_c, 0, 57, 72
1, 544439, Note_on_c, 0, 60, 71
1, 544453, Note_off_c, 0, 59, 56
1, 544453, Control_c, 0, 64, 89
1, 544472, Control_c, 0, 64, 47
1, 544508, Control_c, 0, 64, 0
1, 544546, Control_c, 0, 64, 15
1, 544565, Control_c, 0, 64, 52
1, 544585, Control_c, 0, 64, 108
1, 544603, Control_c, 0, 64, 127
1, 544649, Note_off_c, 0, 57, 62
1, 544654, Note_on_c, 0, 64, 79
1, 544794, Note_off_c, 0, 71, 35
1, 544897, Note_on_c, 0, 66, 81
1, 544899, Note_on_c, 0, 45, 63
1, 544901, Control_c, 0, 64, 76
1, 544908, Note_off_c, 0, 60, 35
1, 544921, Control_c, 0, 64, 36
1, 544941, Control_c, 0, 64, 0
1, 544955, Poly_aftertouch_c, 0, 71, 127
1, 544997, Control_c, 0, 64, 20
1, 545005, Poly_aftertouch_c, 0, 71, 0
1, 545009, Poly_aftertouch_c, 0, 47, 0
1, 545014, Control_c, 0, 64, 54
1, 545034, Control_c, 0, 64, 95
1, 545052, Control_c, 0, 64, 127
1, 545116, Note_on_c, 0, 68, 82
1, 545128, Note_off_c, 0, 64, 59
1, 545164, Note_off_c, 0, 66, 60
1, 545348, Note_on_c, 0, 69, 83
1, 545358, Note_off_c, 0, 45, 58
1, 545370, Control_c, 0, 64, 112
1, 545374, Note_off_c, 0, 68, 63
1, 545389, Control_c, 0, 64, 58
1, 545426, Control_c, 0, 64, 0
1, 545464, Control_c, 0, 64, 26
1, 545483, Control_c, 0, 64, 76
1, 545501, Control_c, 0, 64, 127
1, 545570, Note_on_c, 0, 45, 71
1, 545657, Note_off_c, 0, 69, 56
1, 545657, Poly_aftertouch_c, 0, 69, 0
1, 545798, Note_off_c, 0, 45, 59
1, 545811, Note_on_c, 0, 43, 57
1, 545813, Note_on_c, 0, 69, 81
1, 545819, Control_c, 0, 64, 97
1, 545833, Note_on_c, 0, 61, 69
1, 545837, Control_c, 0, 64, 58
1, 545857, Control_c, 0, 64, 21
1, 545875, Control_c, 0, 64, 8
1, 545913, Control_c, 0, 64, 28
1, 545932, Control_c, 0, 64, 63
1, 545950, Control_c, 0, 64, 127
1, 546035, Note_on_c, 0, 45, 72
1, 546049, Note_off_c, 0, 43, 62
1, 546081, Note_off_c, 0, 69, 55
1, 546081, Poly_aftertouch_c, 0, 69, 0
1, 546267, Note_off_c, 0, 45, 62
1, 546273, Note_on_c, 0, 69, 80
1, 546278, Note_on_c, 0, 47, 67
1, 546279, Note_on_c, 0, 62, 72
1, 546287, Control_c, 0, 64, 69
1, 546306, Control_c, 0, 64, 32
1, 546309, Note_off_c, 0, 61, 56
1, 546325, Control_c, 0, 64, 8
1, 546362, Control_c, 0, 64, 12
1, 546382, Control_c, 0, 64, 32
1, 546400, Control_c, 0, 64, 68
1, 546418, Control_c, 0, 64, 127
1, 546495, Note_on_c, 0, 45, 73
1, 546504, Note_off_c, 0, 47, 62
1, 546745, Note_on_c, 0, 67, 82
1, 546754, Control_c, 0, 64, 80
1, 546763, Note_on_c, 0, 47, 65
1, 546775, Control_c, 0, 64, 41
1, 546783, Note_off_c, 0, 45, 58
1, 546792, Control_c, 0, 64, 0
1, 546868, Control_c, 0, 64, 10
1, 546886, Control_c, 0, 64, 41
1, 546905, Control_c, 0, 64, 82
1, 546923, Control_c, 0, 64, 127
1, 546950, Note_off_c, 0, 47, 62
1, 546956, Note_on_c, 0, 50, 67
1, 547196, Note_on_c, 0, 49, 66
1, 547197, Note_off_c, 0, 50, 61
1, 547205, Note_on_c, 0, 64, 77
1, 547223, Control_c, 0, 64, 77
1, 547243, Control_c, 0, 64, 39
1, 547299, Control_c, 0, 64, 19
1, 547316, Note_off_c, 0, 62, 32
1, 547316, Control_c, 0, 64, 52
1, 547336, Control_c, 0, 64, 109
1, 547354, Control_c, 0, 64, 127
1, 547404, Note_off_c, 0, 69, 24
1, 547404, Note_on_c, 0, 52, 68
1, 547404, Poly_aftertouch_c, 0, 69, 0
1, 547424, Note_off_c, 0, 49, 58
1, 547656, Note_on_c, 0, 65, 75
1, 547661, Note_on_c, 0, 50, 70
1, 547672, Control_c, 0, 64, 97
1, 547690, Note_off_c, 0, 52, 53
1, 547691, Control_c, 0, 64, 60
1, 547699, Note_off_c, 0, 64, 55
1, 547711, Control_c, 0, 64, 35
1, 547748, Control_c, 0, 64, 57
1, 547768, Control_c, 0, 64, 93
1, 547785, Control_c, 0, 64, 127
1, 547860, Note_on_c, 0, 49, 70
1, 547872, Note_on_c, 0, 64, 76
1, 547874, Note_off_c, 0, 50, 59
1, 547896, Note_off_c, 0, 67, 54
1, 547896, Poly_aftertouch_c, 0, 67, 0
1, 547915, Note_off_c, 0, 65, 59
1, 548071, Note_off_c, 0, 49, 63
1, 548103, Control_c, 0, 64, 95
1, 548106, Note_on_c, 0, 50, 77
1, 548108, Note_on_c, 0, 65, 83
1, 548112, Note_on_c, 0, 69, 87
1, 548113, Note_on_c, 0, 57, 79
1, 548118, Note_off_c, 0, 64, 64
1, 548122, Control_c, 0, 64, 43
1, 548141, Control_c, 0, 64, 0
1, 548234, Control_c, 0, 64, 38
1, 548246, Note_off_c, 0, 69, 58
1, 548246, Poly_aftertouch_c, 0, 69, 0
1, 548251, Control_c, 0, 64, 92
1, 548273, Control_c, 0, 64, 127
1, 548332, Note_on_c, 0, 69, 80
1, 548561, Note_on_c, 0, 71, 85
1, 548571, Note_on_c, 0, 67, 78
1, 548571, Control_c, 0, 64, 77
1, 548582, Note_off_c, 0, 65, 59
1, 548588, Control_c, 0, 64, 41
1, 548609, Control_c, 0, 64, 23
1, 548610, Note_off_c, 0, 69, 59
1, 548610, Poly_aftertouch_c, 0, 69, 0
1, 548626, Control_c, 0, 64, 33
1, 548646, Control_c, 0, 64, 58
1, 548665, Control_c, 0, 64, 90
1, 548683, Control_c, 0, 64, 127
1, 548775, Note_on_c, 0, 65, 80
1, 548793, Note_off_c, 0, 67, 61
1, 548793, Poly_aftertouch_c, 0, 67, 0
1, 549001, Control_c, 0, 64, 85
1, 549003, Note_on_c, 0, 72, 84
1, 549010, Note_on_c, 0, 48, 74
1, 549010, Note_on_c, 0, 64, 80
1, 549021, Control_c, 0, 64, 46
1, 549050, Note_off_c, 0, 71, 60
1, 549053, Note_off_c, 0, 50, 56
1, 549056, Control_c, 0, 64, 0
1, 549063, Note_off_c, 0, 65, 55
1, 549094, Control_c, 0, 64, 29
1, 549114, Control_c, 0, 64, 67
1, 549133, Control_c, 0, 64, 127
1, 549211, Note_on_c, 0, 67, 80
1, 549244, Note_off_c, 0, 64, 59
1, 549449, Note_on_c, 0, 65, 84
1, 549452, Note_on_c, 0, 69, 83
1, 549470, Control_c, 0, 64, 64
1, 549489, Control_c, 0, 64, 10
1, 549506, Control_c, 0, 64, 0
1, 549523, Note_off_c, 0, 67, 54
1, 549523, Poly_aftertouch_c, 0, 67, 0
1, 549524, Control_c, 0, 64, 8
1, 549545, Control_c, 0, 64, 50
1, 549553, Note_off_c, 0, 72, 53
1, 549553, Poly_aftertouch_c, 0, 72, 0
1, 549562, Control_c, 0, 64, 127
1, 549672, Note_on_c, 0, 64, 81
1, 549686, Note_off_c, 0, 65, 59
1, 549694, Note_off_c, 0, 69, 58
1, 549694, Poly_aftertouch_c, 0, 69, 0
1, 549753, Note_off_c, 0, 64, 62
1, 549919, Control_c, 0, 64, 95
1, 549928, Note_on_c, 0, 74, 91
1, 549938, Control_c, 0, 64, 50
1, 549942, Note_on_c, 0, 62, 84
1, 549943, Note_on_c, 0, 47, 70
1, 549952, Note_off_c, 0, 48, 60
1, 549957, Control_c, 0, 64, 0
1, 549994, Note_off_c, 0, 57, 61
1, 550049, Control_c, 0, 64, 35
1, 550070, Control_c, 0, 64, 78
1, 550087, Control_c, 0, 64, 127
1, 550162, Note_on_c, 0, 57, 79
1, 550383, Note_on_c, 0, 55, 81
1, 550403, Note_off_c, 0, 57, 62
1, 550462, Control_c, 0, 64, 70
1, 550481, Control_c, 0, 64, 24
1, 550499, Control_c, 0, 64, 0
1, 550597, Note_on_c, 0, 53, 80
1, 550613, Control_c, 0, 64, 23
1, 550617, Note_off_c, 0, 55, 63
1, 550630, Control_c, 0, 64, 68
1, 550649, Control_c, 0, 64, 103
1, 550668, Control_c, 0, 64, 127
1, 550835, Control_c, 0, 64, 110
1, 550851, Note_on_c, 0, 52, 79
1, 550854, Control_c, 0, 64, 63
1, 550855, Note_on_c, 0, 49, 75
1, 550867, Note_off_c, 0, 47, 59
1, 550873, Control_c, 0, 64, 9
1, 550893, Control_c, 0, 64, 0
1, 550909, Note_off_c, 0, 53, 55
1, 550949, Control_c, 0, 64, 31
1, 550966, Control_c, 0, 64, 69
1, 550986, Control_c, 0, 64, 110
1, 551005, Control_c, 0, 64, 127
1, 551059, Note_off_c, 0, 62, 55
1, 551069, Note_off_c, 0, 52, 58
1, 551071, Note_on_c, 0, 55, 78
1, 551158, Note_off_c, 0, 74, 55
1, 551303, Control_c, 0, 64, 74
1, 551320, Note_on_c, 0, 69, 93
1, 551322, Control_c, 0, 64, 17
1, 551334, Note_on_c, 0, 53, 77
1, 551341, Control_c, 0, 64, 0
1, 551353, Note_off_c, 0, 55, 57
1, 551397, Control_c, 0, 64, 23
1, 551417, Control_c, 0, 64, 74
1, 551434, Control_c, 0, 64, 127
1, 551502, Note_off_c, 0, 49, 60
1, 551551, Note_on_c, 0, 52, 80
1, 551590, Note_off_c, 0, 53, 59
1, 551649, Note_off_c, 0, 69, 60
1, 551649, Poly_aftertouch_c, 0, 69, 0
1, 551804, Note_off_c, 0, 52, 60
1, 551807, Control_c, 0, 64, 76
1, 551813, Note_on_c, 0, 50, 72
1, 551815, Note_on_c, 0, 77, 94
1, 551828, Control_c, 0, 64, 38
1, 551847, Control_c, 0, 64, 0
1, 552015, Control_c, 0, 64, 21
1, 552034, Control_c, 0, 64, 53
1, 552052, Control_c, 0, 64, 87
1, 552061, Note_on_c, 0, 70, 87
1, 552071, Control_c, 0, 64, 127
1, 552255, Note_off_c, 0, 70, 64
1, 552255, Poly_aftertouch_c, 0, 70, 0
1, 552269, Note_on_c, 0, 69, 84
1, 552296, Control_c, 0, 64, 89
1, 552315, Control_c, 0, 64, 64
1, 552333, Control_c, 0, 64, 60
1, 552353, Control_c, 0, 64, 71
1, 552370, Control_c, 0, 64, 93
1, 552389, Control_c, 0, 64, 127
1, 552506, Note_on_c, 0, 67, 85
1, 552520, Control_c, 0, 64, 103
1, 552537, Note_off_c, 0, 69, 57
1, 552537, Poly_aftertouch_c, 0, 69, 0
1, 552540, Control_c, 0, 64, 69
1, 552558, Control_c, 0, 64, 57
1, 552576, Control_c, 0, 64, 66
1, 552595, Control_c, 0, 64, 83
1, 552614, Control_c, 0, 64, 127
1, 552707, Control_c, 0, 64, 103
1, 552727, Control_c, 0, 64, 67
1, 552745, Control_c, 0, 64, 47
1, 552746, Note_on_c, 0, 65, 85
1, 552765, Control_c, 0, 64, 51
1, 552773, Note_off_c, 0, 67, 61
1, 552773, Poly_aftertouch_c, 0, 67, 0
1, 552783, Control_c, 0, 64, 63
1, 552801, Control_c, 0, 64, 78
1, 552820, Control_c, 0, 64, 127
1, 552970, Control_c, 0, 64, 94
1, 552983, Note_on_c, 0, 64, 81
1, 552989, Control_c, 0, 64, 77
1, 553007, Control_c, 0, 64, 82
1, 553026, Control_c, 0, 64, 114
1, 553044, Control_c, 0, 64, 127
1, 553065, Note_off_c, 0, 65, 56
1, 553175, Control_c, 0, 64, 116
1, 553194, Control_c, 0, 64, 72
1, 553214, Control_c, 0, 64, 43
1, 553226, Note_on_c, 0, 69, 89
1, 553232, Control_c, 0, 64, 28
1, 553246, Note_on_c, 0, 62, 71
1, 553263, Note_off_c, 0, 64, 52
1, 553269, Control_c, 0, 64, 52
1, 553288, Control_c, 0, 64, 89
1, 553306, Control_c, 0, 64, 127
1, 553451, Note_off_c, 0, 77, 59
1, 553451, Poly_aftertouch_c, 0, 77, 0
1, 553460, Note_off_c, 0, 69, 58
1, 553460, Poly_aftertouch_c, 0, 69, 0
1, 553463, Note_on_c, 0, 60, 69
1, 553468, Note_off_c, 0, 62, 60
1, 553568, Note_off_c, 0, 60, 61
1, 553590, Note_off_c, 0, 50, 57
1, 553737, Control_c, 0, 64, 83
1, 553751, Note_on_c, 0, 68, 90
1, 553752, Note_on_c, 0, 76, 80
1, 553755, Note_on_c, 0, 59, 71
1, 553755, Control_c, 0, 64, 48
1, 553774, Control_c, 0, 64, 15
1, 553831, Control_c, 0, 64, 10
1, 553849, Control_c, 0, 64, 29
1, 553869, Control_c, 0, 64, 62
1, 553887, Control_c, 0, 64, 109
1, 553906, Control_c, 0, 64, 127
1, 553986, Note_on_c, 0, 50, 72
1, 554204, Note_on_c, 0, 49, 74
1, 554224, Control_c, 0, 64, 116
1, 554242, Control_c, 0, 64, 70
1, 554261, Control_c, 0, 64, 43
1, 554273, Note_off_c, 0, 50, 61
1, 554279, Control_c, 0, 64, 38
1, 554299, Control_c, 0, 64, 46
1, 554317, Control_c, 0, 64, 63
1, 554337, Control_c, 0, 64, 82
1, 554355, Control_c, 0, 64, 127
1, 554432, Note_on_c, 0, 47, 72
1, 554458, Note_off_c, 0, 59, 59
1, 554469, Note_off_c, 0, 49, 61
1, 554654, Control_c, 0, 64, 108
1, 554674, Control_c, 0, 64, 65
1, 554691, Control_c, 0, 64, 28
1, 554693, Note_on_c, 0, 67, 89
1, 554700, Note_on_c, 0, 49, 71
1, 554702, Note_off_c, 0, 47, 63
1, 554702, Note_on_c, 0, 57, 68
1, 554731, Note_off_c, 0, 68, 63
1, 554749, Control_c, 0, 64, 18
1, 554767, Control_c, 0, 64, 44
1, 554784, Control_c, 0, 64, 80
1, 554804, Control_c, 0, 64, 127
1, 554925, Note_on_c, 0, 52, 67
1, 554927, Note_on_c, 0, 74, 80
1, 554929, Note_off_c, 0, 49, 59
1, 555141, Control_c, 0, 64, 102
1, 555145, Note_on_c, 0, 45, 70
1, 555159, Note_off_c, 0, 52, 60
1, 555161, Control_c, 0, 64, 62
1, 555168, Note_on_c, 0, 73, 80
1, 555178, Control_c, 0, 64, 29
1, 555197, Control_c, 0, 64, 23
1, 555216, Control_c, 0, 64, 35
1, 555235, Control_c, 0, 64, 66
1, 555254, Control_c, 0, 64, 127
1, 555380, Note_on_c, 0, 47, 75
1, 555383, Note_on_c, 0, 71, 76
1, 555385, Note_off_c, 0, 74, 58
1, 555400, Note_off_c, 0, 73, 60
1, 555412, Note_off_c, 0, 45, 56
1, 555432, Note_off_c, 0, 57, 59
1, 555434, Note_off_c, 0, 76, 26
1, 555434, Poly_aftertouch_c, 0, 76, 0
1, 555448, Note_off_c, 0, 67, 59
1, 555448, Poly_aftertouch_c, 0, 67, 0
1, 555453, Note_off_c, 0, 71, 64
1, 555609, Control_c, 0, 64, 82
1, 555628, Control_c, 0, 64, 50
1, 555632, Note_on_c, 0, 66, 84
1, 555637, Note_on_c, 0, 62, 78
1, 555643, Note_on_c, 0, 69, 79
1, 555646, Control_c, 0, 64, 21
1, 555658, Note_on_c, 0, 48, 67
1, 555665, Control_c, 0, 64, 10
1, 555700, Note_off_c, 0, 47, 55
1, 555759, Control_c, 0, 64, 27
1, 555778, Control_c, 0, 64, 52
1, 555796, Control_c, 0, 64, 78
1, 555816, Control_c, 0, 64, 110
1, 555834, Control_c, 0, 64, 127
1, 555862, Note_on_c, 0, 52, 67
1, 555866, Note_off_c, 0, 48, 61
1, 555866, Note_on_c, 0, 71, 77
1, 556102, Note_on_c, 0, 50, 70
1, 556112, Note_on_c, 0, 72, 79
1, 556114, Control_c, 0, 64, 103
1, 556124, Note_off_c, 0, 52, 55
1, 556133, Control_c, 0, 64, 66
1, 556140, Note_off_c, 0, 69, 50
1, 556140, Poly_aftertouch_c, 0, 69, 0
1, 556147, Note_off_c, 0, 71, 61
1, 556152, Control_c, 0, 64, 43
1, 556171, Control_c, 0, 64, 41
1, 556189, Control_c, 0, 64, 51
1, 556208, Control_c, 0, 64, 67
1, 556228, Control_c, 0, 64, 89
1, 556246, Control_c, 0, 64, 127
1, 556315, Note_on_c, 0, 69, 73
1, 556333, Note_on_c, 0, 48, 71
1, 556344, Note_off_c, 0, 50, 59
1, 556353, Note_off_c, 0, 66, 60
1, 556398, Note_off_c, 0, 72, 56
1, 556398, Poly_aftertouch_c, 0, 72, 0
1, 556554, Note_off_c, 0, 62, 55
1, 556581, Note_on_c, 0, 74, 80
1, 556582, Control_c, 0, 64, 78
1, 556585, Note_on_c, 0, 65, 79
1, 556590, Note_on_c, 0, 47, 70
1, 556591, Note_off_c, 0, 48, 62
1, 556600, Control_c, 0, 64, 42
1, 556623, Note_off_c, 0, 69, 54
1, 556623, Poly_aftertouch_c, 0, 69, 0
1, 556638, Control_c, 0, 64, 0
1, 556695, Control_c, 0, 64, 22
1, 556714, Control_c, 0, 64, 47
1, 556733, Control_c, 0, 64, 73
1, 556752, Control_c, 0, 64, 92
1, 556770, Control_c, 0, 64, 127
1, 556820, Note_on_c, 0, 45, 75
1, 556823, Note_off_c, 0, 47, 62
1, 556971, Note_off_c, 0, 74, 60
1, 557076, Note_on_c, 0, 44, 80
1, 557087, Note_off_c, 0, 45, 61
1, 557096, Note_on_c, 0, 74, 86
1, 557107, Control_c, 0, 64, 78
1, 557125, Control_c, 0, 64, 40
1, 557200, Control_c, 0, 64, 26
1, 557218, Control_c, 0, 64, 64
1, 557238, Control_c, 0, 64, 127
1, 557282, Note_off_c, 0, 44, 62
1, 557302, Note_on_c, 0, 47, 75
1, 557432, Note_off_c, 0, 74, 60
1, 557594, Control_c, 0, 64, 85
1, 557607, Note_on_c, 0, 74, 81
1, 557609, Note_on_c, 0, 36, 72
1, 557611, Note_off_c, 0, 47, 63
1, 557614, Control_c, 0, 64, 40
1, 557615, Note_on_c, 0, 64, 74
1, 557630, Control_c, 0, 64, 0
1, 557631, Note_off_c, 0, 65, 59
1, 557743, Control_c, 0, 64, 17
1, 557761, Control_c, 0, 64, 34
1, 557781, Control_c, 0, 64, 54
1, 557799, Control_c, 0, 64, 70
1, 557814, Note_off_c, 0, 36, 61
1, 557817, Control_c, 0, 64, 86
1, 557836, Control_c, 0, 64, 127
1, 558159, Note_on_c, 0, 56, 78
1, 558174, Control_c, 0, 64, 85
1, 558184, Note_on_c, 0, 72, 78
1, 558192, Control_c, 0, 64, 46
1, 558210, Control_c, 0, 64, 17
1, 558230, Control_c, 0, 64, 21
1, 558248, Control_c, 0, 64, 41
1, 558267, Control_c, 0, 64, 76
1, 558285, Control_c, 0, 64, 127
1, 558419, Note_on_c, 0, 71, 80
1, 558491, Note_off_c, 0, 74, 59
1, 558516, Note_off_c, 0, 72, 55
1, 558516, Poly_aftertouch_c, 0, 72, 0
1, 558686, Note_on_c, 0, 74, 80
1, 558686, Note_on_c, 0, 69, 80
1, 558699, Control_c, 0, 64, 70
1, 558706, Note_on_c, 0, 57, 73
1, 558709, Note_off_c, 0, 71, 57
1, 558717, Control_c, 0, 64, 35
1, 558728, Note_off_c, 0, 56, 59
1, 558737, Note_off_c, 0, 64, 57
1, 558791, Control_c, 0, 64, 20
1, 558810, Control_c, 0, 64, 52
1, 558829, Control_c, 0, 64, 97
1, 558848, Control_c, 0, 64, 127
1, 558932, Note_on_c, 0, 72, 83
1, 559165, Control_c, 0, 64, 85
1, 559168, Note_on_c, 0, 60, 72
1, 559176, Note_on_c, 0, 71, 78
1, 559178, Note_on_c, 0, 53, 74
1, 559183, Control_c, 0, 64, 49
1, 559203, Control_c, 0, 64, 16
1, 559208, Note_off_c, 0, 69, 51
1, 559208, Poly_aftertouch_c, 0, 69, 0
1, 559221, Control_c, 0, 64, 11
1, 559241, Control_c, 0, 64, 22
1, 559244, Note_off_c, 0, 57, 56
1, 559259, Control_c, 0, 64, 53
1, 559278, Control_c, 0, 64, 100
1, 559297, Control_c, 0, 64, 127
1, 559406, Note_on_c, 0, 69, 82
1, 559413, Note_off_c, 0, 53, 60
1, 559456, Note_off_c, 0, 72, 56
1, 559456, Poly_aftertouch_c, 0, 72, 0
1, 559468, Note_off_c, 0, 71, 59
1, 559484, Note_off_c, 0, 74, 59
1, 559671, Control_c, 0, 64, 68
1, 559689, Note_on_c, 0, 53, 68
1, 559689, Note_on_c, 0, 71, 82
1, 559689, Control_c, 0, 64, 31
1, 559691, Note_on_c, 0, 50, 73
1, 559729, Note_off_c, 0, 69, 59
1, 559729, Poly_aftertouch_c, 0, 69, 0
1, 559764, Control_c, 0, 64, 22
1, 559771, Note_off_c, 0, 60, 43
1, 559784, Control_c, 0, 64, 49
1, 559802, Control_c, 0, 64, 82
1, 559821, Control_c, 0, 64, 127
1, 559862, Note_off_c, 0, 53, 59
1, 559928, Note_on_c, 0, 52, 75
1, 560002, Note_off_c, 0, 50, 61
1, 560209, Note_on_c, 0, 53, 78
1, 560213, Control_c, 0, 64, 88
1, 560220, Note_on_c, 0, 62, 79
1, 560233, Control_c, 0, 64, 50
1, 560241, Note_off_c, 0, 52, 57
1, 560252, Control_c, 0, 64, 13
1, 560289, Control_c, 0, 64, 8
1, 560307, Control_c, 0, 64, 27
1, 560327, Control_c, 0, 64, 61
1, 560344, Control_c, 0, 64, 122
1, 560364, Control_c, 0, 64, 127
1, 560483, Note_off_c, 0, 62, 60
1, 560702, Note_on_c, 0, 68, 77
1, 560717, Note_on_c, 0, 59, 75
1, 560718, Control_c, 0, 64, 98
1, 560737, Control_c, 0, 64, 60
1, 560757, Control_c, 0, 64, 31
1, 560775, Control_c, 0, 64, 25
1, 560794, Control_c, 0, 64, 37
1, 560812, Control_c, 0, 64, 65
1, 560832, Control_c, 0, 64, 127
1, 560945, Note_off_c, 0, 59, 55
1, 560950, Note_on_c, 0, 50, 75
1, 561055, Note_off_c, 0, 53, 37
1, 561202, Note_off_c, 0, 50, 60
1, 561216, Note_on_c, 0, 47, 49
1, 561242, Control_c, 0, 64, 110
1, 561247, Note_on_c, 0, 62, 66
1, 561262, Control_c, 0, 64, 66
1, 561280, Control_c, 0, 64, 35
1, 561300, Control_c, 0, 64, 25
1, 561318, Control_c, 0, 64, 31
1, 561336, Control_c, 0, 64, 53
1, 561349, Note_off_c, 0, 71, 53
1, 561354, Control_c, 0, 64, 89
1, 561358, Note_on_c, 0, 55, 20
1, 561359, Note_off_c, 0, 55, 127
1, 561374, Control_c, 0, 64, 127
1, 561480, Note_on_c, 0, 71, 80
1, 561485, Note_on_c, 0, 52, 75
1, 561487, Note_off_c, 0, 47, 61
1, 561760, Note_on_c, 0, 48, 79
1, 561765, Note_on_c, 0, 64, 79
1, 561765, Control_c, 0, 64, 98
1, 561778, Note_off_c, 0, 52, 60
1, 561787, Control_c, 0, 64, 57
1, 561796, Note_off_c, 0, 68, 60
1, 561804, Control_c, 0, 64, 14
1, 561824, Control_c, 0, 64, 0
1, 561881, Control_c, 0, 64, 33
1, 561898, Control_c, 0, 64, 70
1, 561918, Control_c, 0, 64, 127
1, 562006, Note_on_c, 0, 50, 80
1, 562008, Note_off_c, 0, 62, 58
1, 562052, Note_off_c, 0, 48, 59
1, 562104, Note_off_c, 0, 64, 59
1, 562306, Note_on_c, 0, 68, 83
1, 562308, Note_off_c, 0, 50, 62
1, 562315, Note_on_c, 0, 59, 74
1, 562317, Note_on_c, 0, 52, 75
1, 562317, Note_on_c, 0, 64, 80
1, 562328, Control_c, 0, 64, 119
1, 562347, Control_c, 0, 64, 67
1, 562366, Control_c, 0, 64, 21
1, 562385, Control_c, 0, 64, 0
1, 562508, Note_off_c, 0, 71, 36
1, 562515, Control_c, 0, 64, 9
1, 562535, Control_c, 0, 64, 41
1, 562553, Control_c, 0, 64, 65
1, 562573, Control_c, 0, 64, 78
1, 562591, Control_c, 0, 64, 103
1, 562609, Control_c, 0, 64, 127
1, 562686, Note_off_c, 0, 64, 55
1, 562984, Control_c, 0, 64, 74
1, 562987, Note_on_c, 0, 69, 80
1, 562994, Note_on_c, 0, 64, 73
1, 562995, Note_on_c, 0, 60, 68
1, 563002, Control_c, 0, 64, 24
1, 563021, Control_c, 0, 64, 0
1, 563042, Note_off_c, 0, 59, 56
1, 563076, Note_off_c, 0, 68, 29
1, 563077, Control_c, 0, 64, 48
1, 563096, Control_c, 0, 64, 122
1, 563116, Control_c, 0, 64, 127
1, 563141, Note_off_c, 0, 52, 62
1, 563286, Control_c, 0, 64, 67
1, 563293, Note_on_c, 0, 48, 75
1, 563302, Control_c, 0, 64, 31
1, 563339, Control_c, 0, 64, 47
1, 563358, Control_c, 0, 64, 77
1, 563367, Note_off_c, 0, 64, 59
1, 563377, Control_c, 0, 64, 127
1, 563572, Note_on_c, 0, 45, 77
1, 563576, Note_on_c, 0, 63, 80
1, 563583, Control_c, 0, 64, 73
1, 563602, Control_c, 0, 64, 41
1, 563603, Note_off_c, 0, 48, 52
1, 563620, Control_c, 0, 64, 29
1, 563638, Note_off_c, 0, 60, 55
1, 563638, Control_c, 0, 64, 43
1, 563658, Control_c, 0, 64, 73
1, 563676, Control_c, 0, 64, 127
1, 563827, Control_c, 0, 64, 111
1, 563828, Note_off_c, 0, 45, 61
1, 563836, Note_on_c, 0, 48, 81
1, 563844, Note_on_c, 0, 64, 80
1, 563844, Control_c, 0, 64, 68
1, 563862, Note_off_c, 0, 63, 62
1, 563863, Control_c, 0, 64, 43
1, 563901, Control_c, 0, 64, 63
1, 563920, Control_c, 0, 64, 93
1, 563939, Control_c, 0, 64, 127
1, 564163, Control_c, 0, 64, 97
1, 564164, Note_off_c, 0, 48, 58
1, 564178, Note_on_c, 0, 39, 81
1, 564181, Control_c, 0, 64, 55
1, 564191, Note_on_c, 0, 66, 78
1, 564218, Control_c, 0, 64, 0
1, 564262, Note_off_c, 0, 64, 58
1, 564317, Note_off_c, 0, 69, 56
1, 564317, Poly_aftertouch_c, 0, 69, 0
1, 564463, Control_c, 0, 64, 23
1, 564481, Control_c, 0, 64, 47
1, 564501, Control_c, 0, 64, 67
1, 564519, Control_c, 0, 64, 80
1, 564524, Note_on_c, 0, 71, 79
1, 564538, Control_c, 0, 64, 92
1, 564556, Control_c, 0, 64, 105
1, 564575, Control_c, 0, 64, 127
1, 564674, Note_off_c, 0, 39, 62
1, 564801, Note_on_c, 0, 72, 72
1, 564841, Note_off_c, 0, 66, 61
1, 564856, Note_off_c, 0, 71, 58
1, 565057, Note_on_c, 0, 66, 81
1, 565336, Note_on_c, 0, 57, 79
1, 565343, Control_c, 0, 64, 89
1, 565361, Control_c, 0, 64, 54
1, 565380, Control_c, 0, 64, 21
1, 565401, Control_c, 0, 64, 15
1, 565417, Control_c, 0, 64, 30
1, 565435, Control_c, 0, 64, 61
1, 565455, Control_c, 0, 64, 103
1, 565474, Control_c, 0, 64, 127
1, 565564, Note_on_c, 0, 69, 80
1, 565608, Note_off_c, 0, 66, 59
1, 565829, Control_c, 0, 64, 122
1, 565837, Note_on_c, 0, 51, 71
1, 565840, Note_on_c, 0, 66, 75
1, 565842, Note_on_c, 0, 59, 73
1, 565849, Control_c, 0, 64, 68
1, 565858, Note_off_c, 0, 57, 56
1, 565864, Note_off_c, 0, 72, 48
1, 565864, Poly_aftertouch_c, 0, 72, 0
1, 565868, Control_c, 0, 64, 30
1, 565924, Note_off_c, 0, 69, 48
1, 565924, Poly_aftertouch_c, 0, 69, 0
1, 565924, Control_c, 0, 64, 16
1, 565942, Control_c, 0, 64, 41
1, 565960, Control_c, 0, 64, 74
1, 565979, Control_c, 0, 64, 127
1, 566094, Note_on_c, 0, 71, 73
1, 566154, Note_off_c, 0, 51, 50
1, 566373, Note_off_c, 0, 59, 61
1, 566380, Note_on_c, 0, 60, 74
1, 566384, Note_on_c, 0, 69, 75
1, 566385, Note_off_c, 0, 66, 57
1, 566385, Note_on_c, 0, 64, 63
1, 566389, Note_on_c, 0, 52, 57
1, 566409, Control_c, 0, 64, 94
1, 566428, Control_c, 0, 64, 63
1, 566448, Control_c, 0, 64, 38
1, 566466, Control_c, 0, 64, 22
1, 566559, Control_c, 0, 64, 31
1, 566578, Control_c, 0, 64, 46
1, 566597, Control_c, 0, 64, 64
1, 566615, Control_c, 0, 64, 76
1, 566634, Control_c, 0, 64, 85
1, 566644, Note_on_c, 0, 68, 77
1, 566652, Control_c, 0, 64, 93
1, 566672, Control_c, 0, 64, 105
1, 566689, Control_c, 0, 64, 127
1, 566796, Poly_aftertouch_c, 0, 71, 24
1, 566834, Note_off_c, 0, 71, 36
1, 566834, Poly_aftertouch_c, 0, 71, 0
1, 566905, Note_on_c, 0, 66, 78
1, 566910, Note_off_c, 0, 64, 61
1, 566936, Poly_aftertouch_c, 0, 69, 24
1, 566993, Note_off_c, 0, 69, 19
1, 566993, Poly_aftertouch_c, 0, 69, 0
1, 567016, Note_off_c, 0, 68, 54
1, 567068, Poly_aftertouch_c, 0, 71, 0
1, 567155, Note_on_c, 0, 64, 75
1, 567177, Note_off_c, 0, 66, 58
1, 567438, Control_c, 0, 64, 89
1, 567439, Note_on_c, 0, 69, 80
1, 567458, Control_c, 0, 64, 60
1, 567475, Note_off_c, 0, 64, 58
1, 567476, Control_c, 0, 64, 39
1, 567514, Control_c, 0, 64, 54
1, 567532, Control_c, 0, 64, 77
1, 567551, Control_c, 0, 64, 127
1, 567681, Note_on_c, 0, 64, 73
1, 567732, Note_off_c, 0, 69, 59
1, 567732, Poly_aftertouch_c, 0, 69, 0
1, 567958, Note_on_c, 0, 66, 76
1, 567958, Note_on_c, 0, 69, 81
1, 567963, Control_c, 0, 64, 119
1, 567981, Control_c, 0, 64, 78
1, 568002, Control_c, 0, 64, 60
1, 568019, Control_c, 0, 64, 61
1, 568020, Note_off_c, 0, 64, 51
1, 568037, Control_c, 0, 64, 69
1, 568058, Control_c, 0, 64, 82
1, 568075, Control_c, 0, 64, 121
1, 568094, Control_c, 0, 64, 127
1, 568197, Note_on_c, 0, 63, 75
1, 568243, Note_off_c, 0, 66, 57
1, 568492, Note_on_c, 0, 64, 64
1, 568501, Note_on_c, 0, 59, 47
1, 568503, Note_off_c, 0, 60, 52
1, 568505, Control_c, 0, 64, 106
1, 568513, Note_off_c, 0, 63, 63
1, 568525, Control_c, 0, 64, 71
1, 568543, Control_c, 0, 64, 47
1, 568562, Control_c, 0, 64, 32
1, 568618, Control_c, 0, 64, 38
1, 568638, Control_c, 0, 64, 53
1, 568655, Control_c, 0, 64, 71
1, 568675, Control_c, 0, 64, 90
1, 568692, Control_c, 0, 64, 127
1, 568754, Note_on_c, 0, 68, 80
1, 568799, Note_off_c, 0, 69, 59
1, 568799, Poly_aftertouch_c, 0, 69, 0
1, 569045, Note_on_c, 0, 69, 81
1, 569067, Control_c, 0, 64, 85
1, 569077, Note_off_c, 0, 68, 62
1, 569087, Control_c, 0, 64, 56
1, 569104, Control_c, 0, 64, 40
1, 569124, Control_c, 0, 64, 47
1, 569143, Control_c, 0, 64, 63
1, 569160, Control_c, 0, 64, 82
1, 569181, Control_c, 0, 64, 127
1, 569308, Note_on_c, 0, 66, 81
1, 569358, Note_off_c, 0, 69, 59
1, 569358, Poly_aftertouch_c, 0, 69, 0
1, 569611, Control_c, 0, 64, 117
1, 569619, Note_on_c, 0, 69, 82
1, 569629, Control_c, 0, 64, 69
1, 569644, Note_off_c, 0, 66, 61
1, 569649, Control_c, 0, 64, 32
1, 569667, Control_c, 0, 64, 0
1, 569724, Control_c, 0, 64, 16
1, 569742, Control_c, 0, 64, 36
1, 569760, Control_c, 0, 64, 63
1, 569779, Control_c, 0, 64, 80
1, 569797, Control_c, 0, 64, 94
1, 569817, Control_c, 0, 64, 103
1, 569834, Control_c, 0, 64, 116
1, 569853, Control_c, 0, 64, 127
1, 569869, Note_off_c, 0, 69, 58
1, 569869, Poly_aftertouch_c, 0, 69, 0
1, 569876, Note_on_c, 0, 68, 71
1, 569976, Note_off_c, 0, 68, 61
1, 569998, Note_on_c, 0, 69, 69
1, 570076, Note_off_c, 0, 69, 57
1, 570076, Poly_aftertouch_c, 0, 69, 0
1, 570105, Note_on_c, 0, 68, 72
1, 570179, Note_off_c, 0, 68, 60
1, 570191, Note_on_c, 0, 69, 68
1, 570240, Note_off_c, 0, 69, 52
1, 570240, Poly_aftertouch_c, 0, 69, 0
1, 570274, Note_on_c, 0, 68, 67
1, 570344, Note_off_c, 0, 68, 62
1, 570348, Note_on_c, 0, 69, 73
1, 570417, Note_off_c, 0, 69, 57
1, 570417, Poly_aftertouch_c, 0, 69, 0
1, 570440, Note_on_c, 0, 68, 68
1, 570441, Poly_aftertouch_c, 0, 71, 0
1, 570496, Note_on_c, 0, 69, 71
1, 570503, Note_off_c, 0, 68, 61
1, 570576, Note_off_c, 0, 69, 60
1, 570576, Poly_aftertouch_c, 0, 69, 0
1, 570604, Note_on_c, 0, 68, 45
1, 570630, Note_off_c, 0, 68, 62
1, 570630, Note_on_c, 0, 69, 64
1, 570678, Control_c, 0, 64, 94
1, 570689, Note_on_c, 0, 68, 78
1, 570696, Note_off_c, 0, 69, 60
1, 570696, Poly_aftertouch_c, 0, 69, 0
1, 570696, Control_c, 0, 64, 63
1, 570714, Control_c, 0, 64, 34
1, 570753, Control_c, 0, 64, 0
1, 571034, Control_c, 0, 64, 23
1, 571051, Control_c, 0, 64, 50
1, 571071, Control_c, 0, 64, 76
1, 571089, Control_c, 0, 64, 102
1, 571107, Control_c, 0, 64, 127
1, 571237, Note_off_c, 0, 59, 58
1, 571251, Note_off_c, 0, 52, 56
1, 571342, Note_off_c, 0, 64, 50
1, 571343, Note_off_c, 0, 68, 59
1, 571590, Note_on_c, 0, 69, 94
1, 571698, Note_off_c, 0, 69, 57
1, 571698, Poly_aftertouch_c, 0, 69, 0
1, 572316, Note_on_c, 0, 69, 83
1, 572317, Note_on_c, 0, 61, 77
1, 572319, Note_on_c, 0, 57, 79
1, 572322, Note_on_c, 0, 64, 75
1, 572326, Note_on_c, 0, 45, 75
1, 572332, Note_on_c, 0, 52, 75
1, 572362, Control_c, 0, 64, 122
1, 572381, Control_c, 0, 64, 76
1, 572400, Control_c, 0, 64, 49
1, 572418, Control_c, 0, 64, 27
1, 572437, Control_c, 0, 64, 15
1, 574702, Control_c, 0, 64, 25
1, 574720, Control_c, 0, 64, 32
1, 574739, Control_c, 0, 64, 41
1, 574757, Control_c, 0, 64, 50
1, 574776, Control_c, 0, 64, 56
1, 574794, Control_c, 0, 64, 59
1, 574833, Control_c, 0, 64, 60
1, 574889, Control_c, 0, 64, 61
1, 574908, Control_c, 0, 64, 62
1, 574926, Control_c, 0, 64, 64
1, 574945, Control_c, 0, 64, 65
1, 574964, Control_c, 0, 64, 66
1, 575001, Control_c, 0, 64, 67
1, 575057, Control_c, 0, 64, 70
1, 575113, Control_c, 0, 64, 73
1, 575151, Control_c, 0, 64, 75
1, 575319, Control_c, 0, 64, 77
1, 575357, Control_c, 0, 64, 81
1, 575376, Control_c, 0, 64, 85
1, 575395, Control_c, 0, 64, 90
1, 575413, Control_c, 0, 64, 95
1, 575432, Control_c, 0, 64, 101
1, 575450, Control_c, 0, 64, 108
1, 575469, Control_c, 0, 64, 117
1, 575488, Control_c, 0, 64, 127
1, 576052, Poly_aftertouch_c, 0, 57, 20
1, 576061, Note_off_c, 0, 57, 18
1, 576061, Poly_aftertouch_c, 0, 57, 0
1, 576167, Poly_aftertouch_c, 0, 64, 24
1, 576209, Note_off_c, 0, 61, 34
1, 576223, Poly_aftertouch_c, 0, 52, 20
1, 576230, Note_off_c, 0, 52, 32
1, 576230, Poly_aftertouch_c, 0, 52, 0
1, 576258, Note_off_c, 0, 64, 29
1, 576258, Poly_aftertouch_c, 0, 64, 0
1, 576271, Poly_aftertouch_c, 0, 69, 24
1, 576366, Note_off_c, 0, 69, 30
1, 576366, Poly_aftertouch_c, 0, 69, 0
1, 576395, Poly_aftertouch_c, 0, 45, 22
1, 576444, Note_off_c, 0, 45, 24
1, 576444, Poly_aftertouch_c, 0, 45, 0
1, 577173, Control_c, 0, 64, 115
1, 577191, Control_c, 0, 64, 107
1, 577210, Control_c, 0, 64, 99
1, 577228, Control_c, 0, 64, 91
1, 577248, Control_c, 0, 64, 81
1, 577267, Control_c, 0, 64, 74
1, 577285, Control_c, 0, 64, 71
1, 577360, Control_c, 0, 64, 68
1, 577379, Control_c, 0, 64, 66
1, 577416, Control_c, 0, 64, 65
1, 577453, Control_c, 0, 64, 64
1, 577472, Control_c, 0, 64, 62
1, 577491, Control_c, 0, 64, 60
1, 577565, Control_c, 0, 64, 58
1, 577622, Control_c, 0, 64, 56
1, 577660, Control_c, 0, 64, 54
1, 577716, Control_c, 0, 64, 52
1, 577771, Control_c, 0, 64, 49
1, 577847, Control_c, 0, 64, 47
1, 577903, Control_c, 0, 64, 45
1, 577978, Control_c, 0, 64, 43
1, 578052, Control_c, 0, 64, 41
1, 578127, Control_c, 0, 64, 37
1, 578296, Control_c, 0, 64, 33
1, 578427, Control_c, 0, 64, 28
1, 578520, Control_c, 0, 64, 24
1, 578594, Control_c, 0, 64, 20
1, 578745, Control_c, 0, 64, 16
1, 578895, Control_c, 0, 64, 12
1, 578988, Control_c, 0, 64, 8
1, 579175, Control_c, 0, 64, 0
1, 580800, End_track
0, 0, End_of_file
