0, 0, Header, 0, 1, 384
1, 0, Start_track
1, 0, Tempo, 512820
1, 0, Title_t, "Fantasie über ""Stille Nacht, hei"
1, 0, Program_c, 0, 0
1, 0, Control_c, 0, 7, 100
1, 748, Note_on_c, 0, 53, 46
1, 748, Note_on_c, 0, 56, 46
1, 748, Control_c, 0, 91, 127
1, 751, Control_c, 0, 91, 127
1, 751, Program_c, 0, 0
1, 751, Control_c, 0, 7, 100
1, 754, Note_on_c, 0, 37, 38
1, 754, Note_on_c, 0, 44, 38
1, 754, Note_on_c, 0, 49, 38
1, 757, Control_c, 0, 64, 0
1, 1409, Note_on_c, 0, 54, 37
1, 1409, Note_on_c, 0, 58, 37
1, 1483, Note_on_c, 0, 56, 0
1, 1483, Note_on_c, 0, 53, 0
1, 1633, Note_on_c, 0, 56, 37
1, 1633, Note_on_c, 0, 53, 37
1, 1633, Note_on_c, 0, 49, 0
1, 1636, Note_on_c, 0, 44, 0
1, 1636, Note_on_c, 0, 37, 0
1, 1636, Note_on_c, 0, 44, 30
1, 1639, Note_on_c, 0, 37, 30
1, 1639, Note_on_c, 0, 49, 30
1, 1711, Note_on_c, 0, 54, 0
1, 1711, Note_on_c, 0, 58, 0
1, 2102, Note_on_c, 0, 53, 0
1, 2106, Note_on_c, 0, 56, 0
1, 2106, Note_on_c, 0, 53, 46
1, 2106, Note_on_c, 0, 49, 0
1, 2109, Note_on_c, 0, 37, 0
1, 2109, Note_on_c, 0, 44, 0
1, 2109, Note_on_c, 0, 37, 32
1, 2112, Note_on_c, 0, 49, 32
1, 2112, Note_on_c, 0, 44, 32
1, 2151, Control_c, 0, 64, 127
1, 2215, Note_on_c, 0, 53, 0
1, 2215, Note_on_c, 0, 56, 39
1, 2323, Note_on_c, 0, 56, 0
1, 2323, Note_on_c, 0, 61, 43
1, 2430, Note_on_c, 0, 61, 0
1, 2430, Note_on_c, 0, 65, 40
1, 2536, Note_on_c, 0, 65, 0
1, 2536, Note_on_c, 0, 68, 43
1, 2641, Note_on_c, 0, 68, 0
1, 2641, Note_on_c, 0, 73, 43
1, 2745, Note_on_c, 0, 73, 0
1, 2745, Note_on_c, 0, 77, 44
1, 2849, Note_on_c, 0, 77, 0
1, 2849, Note_on_c, 0, 80, 47
1, 2956, Note_on_c, 0, 80, 0
1, 2956, Note_on_c, 0, 85, 52
1, 2956, Note_on_c, 0, 44, 0
1, 2959, Note_on_c, 0, 49, 0
1, 2959, Note_on_c, 0, 37, 0
1, 2959, Note_on_c, 0, 61, 30
1, 2962, Note_on_c, 0, 65, 30
1, 2962, Note_on_c, 0, 56, 30
1, 3378, Control_c, 0, 64, 0
1, 3409, Note_on_c, 0, 85, 0
1, 3409, Note_on_c, 0, 56, 0
1, 3409, Note_on_c, 0, 65, 0
1, 3412, Note_on_c, 0, 61, 0
1, 3450, Note_on_c, 0, 68, 38
1, 3450, Note_on_c, 0, 65, 38
1, 3450, Note_on_c, 0, 56, 31
1, 3453, Note_on_c, 0, 49, 31
1, 3453, Note_on_c, 0, 61, 31
1, 4104, Note_on_c, 0, 66, 35
1, 4104, Note_on_c, 0, 70, 35
1, 4177, Note_on_c, 0, 65, 0
1, 4177, Note_on_c, 0, 68, 0
1, 4324, Note_on_c, 0, 65, 36
1, 4324, Note_on_c, 0, 68, 36
1, 4324, Note_on_c, 0, 61, 0
1, 4327, Note_on_c, 0, 49, 0
1, 4327, Note_on_c, 0, 56, 0
1, 4327, Note_on_c, 0, 49, 30
1, 4330, Note_on_c, 0, 61, 30
1, 4330, Note_on_c, 0, 56, 30
1, 4402, Note_on_c, 0, 66, 0
1, 4402, Note_on_c, 0, 70, 0
1, 4797, Note_on_c, 0, 65, 0
1, 4797, Note_on_c, 0, 68, 0
1, 4797, Note_on_c, 0, 65, 38
1, 4800, Note_on_c, 0, 56, 0
1, 4800, Note_on_c, 0, 61, 0
1, 4800, Note_on_c, 0, 49, 0
1, 4803, Control_c, 0, 64, 127
1, 4803, Note_on_c, 0, 56, 32
1, 4803, Note_on_c, 0, 49, 32
1, 4806, Note_on_c, 0, 61, 32
1, 4906, Note_on_c, 0, 65, 0
1, 4906, Note_on_c, 0, 68, 32
1, 5014, Note_on_c, 0, 68, 0
1, 5014, Note_on_c, 0, 73, 36
1, 5121, Note_on_c, 0, 73, 0
1, 5121, Note_on_c, 0, 77, 34
1, 5227, Note_on_c, 0, 77, 0
1, 5227, Note_on_c, 0, 80, 36
1, 5332, Note_on_c, 0, 80, 0
1, 5332, Note_on_c, 0, 85, 36
1, 5436, Note_on_c, 0, 85, 0
1, 5436, Note_on_c, 0, 89, 37
1, 5540, Note_on_c, 0, 89, 0
1, 5540, Note_on_c, 0, 92, 38
1, 5645, Note_on_c, 0, 92, 0
1, 5645, Note_on_c, 0, 97, 42
1, 5645, Note_on_c, 0, 61, 0
1, 5648, Note_on_c, 0, 49, 0
1, 5648, Note_on_c, 0, 56, 0
1, 5648, Note_on_c, 0, 73, 25
1, 5651, Note_on_c, 0, 68, 25
1, 5651, Note_on_c, 0, 77, 25
1, 6101, Control_c, 0, 64, 0
1, 6138, Note_on_c, 0, 97, 0
1, 6138, Note_on_c, 0, 54, 46
1, 6138, Note_on_c, 0, 63, 46
1, 6141, Note_on_c, 0, 77, 0
1, 6141, Note_on_c, 0, 68, 0
1, 6141, Note_on_c, 0, 73, 0
1, 6144, Note_on_c, 0, 48, 40
1, 6144, Control_c, 0, 64, 127
1, 6144, Note_on_c, 0, 44, 40
1, 7011, Note_on_c, 0, 63, 0
1, 7011, Note_on_c, 0, 54, 0
1, 7011, Note_on_c, 0, 54, 46
1, 7014, Note_on_c, 0, 63, 46
1, 7014, Note_on_c, 0, 44, 0
1, 7014, Note_on_c, 0, 48, 0
1, 7017, Note_on_c, 0, 44, 39
1, 7017, Note_on_c, 0, 48, 39
1, 7351, Note_on_c, 0, 63, 0
1, 7351, Note_on_c, 0, 60, 42
1, 7351, Note_on_c, 0, 48, 0
1, 7354, Note_on_c, 0, 51, 36
1, 7476, Note_on_c, 0, 60, 0
1, 7476, Note_on_c, 0, 54, 0
1, 7476, Note_on_c, 0, 54, 42
1, 7479, Note_on_c, 0, 60, 42
1, 7479, Note_on_c, 0, 51, 0
1, 7479, Note_on_c, 0, 44, 0
1, 7482, Note_on_c, 0, 44, 42
1, 7482, Note_on_c, 0, 51, 42
1, 7601, Note_on_c, 0, 60, 0
1, 7601, Note_on_c, 0, 54, 0
1, 7601, Note_on_c, 0, 80, 46
1, 7707, Note_on_c, 0, 80, 0
1, 7707, Note_on_c, 0, 78, 43
1, 7813, Note_on_c, 0, 78, 0
1, 7813, Note_on_c, 0, 75, 43
1, 7918, Note_on_c, 0, 75, 0
1, 7918, Note_on_c, 0, 72, 49
1, 8024, Note_on_c, 0, 72, 0
1, 8024, Note_on_c, 0, 68, 48
1, 8130, Note_on_c, 0, 68, 0
1, 8130, Note_on_c, 0, 66, 44
1, 8236, Note_on_c, 0, 66, 0
1, 8236, Note_on_c, 0, 63, 44
1, 8342, Note_on_c, 0, 63, 0
1, 8342, Note_on_c, 0, 60, 46
1, 8342, Note_on_c, 0, 51, 0
1, 8345, Note_on_c, 0, 44, 0
1, 8345, Note_on_c, 0, 48, 35
1, 8345, Note_on_c, 0, 44, 35
1, 8448, Note_on_c, 0, 60, 0
1, 8448, Note_on_c, 0, 56, 42
1, 8556, Note_on_c, 0, 56, 0
1, 8556, Note_on_c, 0, 55, 46
1, 8666, Note_on_c, 0, 55, 0
1, 8666, Note_on_c, 0, 54, 42
1, 8795, Note_on_c, 0, 54, 0
1, 8795, Note_on_c, 0, 61, 46
1, 8795, Note_on_c, 0, 53, 46
1, 8798, Note_on_c, 0, 44, 0
1, 8798, Note_on_c, 0, 48, 0
1, 8798, Control_c, 0, 64, 0
1, 8801, Note_on_c, 0, 44, 39
1, 8801, Note_on_c, 0, 37, 39
1, 8801, Note_on_c, 0, 49, 39
1, 8892, Control_c, 0, 64, 127
1, 9668, Note_on_c, 0, 53, 0
1, 9668, Note_on_c, 0, 61, 0
1, 9668, Note_on_c, 0, 53, 44
1, 9671, Note_on_c, 0, 61, 44
1, 9671, Note_on_c, 0, 49, 0
1, 9671, Note_on_c, 0, 37, 0
1, 9674, Note_on_c, 0, 44, 0
1, 9674, Note_on_c, 0, 37, 37
1, 9674, Note_on_c, 0, 49, 37
1, 9677, Note_on_c, 0, 44, 37
1, 10136, Note_on_c, 0, 61, 0
1, 10136, Note_on_c, 0, 53, 0
1, 10136, Note_on_c, 0, 53, 42
1, 10139, Note_on_c, 0, 56, 42
1, 10139, Note_on_c, 0, 44, 0
1, 10139, Note_on_c, 0, 49, 0
1, 10142, Note_on_c, 0, 37, 0
1, 10142, Note_on_c, 0, 44, 35
1, 10142, Note_on_c, 0, 49, 35
1, 10145, Note_on_c, 0, 37, 35
1, 10256, Note_on_c, 0, 56, 0
1, 10256, Note_on_c, 0, 53, 0
1, 10256, Note_on_c, 0, 77, 49
1, 10362, Note_on_c, 0, 77, 0
1, 10362, Note_on_c, 0, 73, 46
1, 10468, Note_on_c, 0, 73, 0
1, 10468, Note_on_c, 0, 68, 46
1, 10574, Note_on_c, 0, 68, 0
1, 10574, Note_on_c, 0, 65, 49
1, 10680, Note_on_c, 0, 65, 0
1, 10680, Note_on_c, 0, 61, 43
1, 10786, Note_on_c, 0, 61, 0
1, 10786, Note_on_c, 0, 56, 46
1, 10892, Note_on_c, 0, 56, 0
1, 10892, Note_on_c, 0, 53, 43
1, 10998, Note_on_c, 0, 53, 0
1, 10998, Note_on_c, 0, 37, 0
1, 10998, Note_on_c, 0, 49, 0
1, 11001, Note_on_c, 0, 44, 0
1, 11001, Note_on_c, 0, 49, 42
1, 11105, Note_on_c, 0, 49, 0
1, 11105, Note_on_c, 0, 44, 38
1, 11216, Note_on_c, 0, 44, 0
1, 11216, Note_on_c, 0, 41, 40
1, 11333, Note_on_c, 0, 41, 0
1, 11333, Note_on_c, 0, 37, 39
1, 11477, Note_on_c, 0, 50, 43
1, 11477, Note_on_c, 0, 56, 43
1, 11477, Note_on_c, 0, 58, 43
1, 11480, Note_on_c, 0, 37, 0
1, 11480, Note_on_c, 0, 34, 39
1, 11480, Note_on_c, 0, 41, 39
1, 11483, Note_on_c, 0, 46, 39
1, 11483, Control_c, 0, 64, 0
1, 12095, Note_on_c, 0, 58, 0
1, 12095, Note_on_c, 0, 59, 42
1, 12301, Note_on_c, 0, 59, 0
1, 12301, Note_on_c, 0, 56, 0
1, 12301, Note_on_c, 0, 50, 0
1, 12304, Note_on_c, 0, 58, 39
1, 12304, Note_on_c, 0, 56, 39
1, 12304, Note_on_c, 0, 50, 39
1, 12307, Note_on_c, 0, 46, 0
1, 12307, Note_on_c, 0, 41, 0
1, 12307, Note_on_c, 0, 34, 0
1, 12310, Note_on_c, 0, 34, 38
1, 12310, Note_on_c, 0, 46, 38
1, 12310, Note_on_c, 0, 41, 38
1, 12729, Note_on_c, 0, 50, 0
1, 12729, Note_on_c, 0, 56, 0
1, 12729, Note_on_c, 0, 58, 0
1, 12732, Note_on_c, 0, 51, 39
1, 12732, Note_on_c, 0, 54, 39
1, 12732, Note_on_c, 0, 41, 0
1, 12735, Note_on_c, 0, 46, 0
1, 12735, Note_on_c, 0, 34, 0
1, 12735, Note_on_c, 0, 39, 36
1, 12738, Control_c, 0, 64, 127
1, 12738, Note_on_c, 0, 46, 36
1, 12831, Note_on_c, 0, 54, 0
1, 12831, Note_on_c, 0, 51, 0
1, 12831, Note_on_c, 0, 51, 39
1, 12933, Note_on_c, 0, 51, 0
1, 12933, Note_on_c, 0, 54, 42
1, 13035, Note_on_c, 0, 54, 0
1, 13035, Note_on_c, 0, 58, 42
1, 13137, Note_on_c, 0, 58, 0
1, 13137, Note_on_c, 0, 63, 48
1, 13240, Note_on_c, 0, 63, 0
1, 13240, Note_on_c, 0, 66, 44
1, 13342, Note_on_c, 0, 66, 0
1, 13342, Note_on_c, 0, 70, 49
1, 13444, Note_on_c, 0, 70, 0
1, 13444, Note_on_c, 0, 66, 50
1, 13546, Note_on_c, 0, 66, 0
1, 13546, Note_on_c, 0, 75, 63
1, 13546, Note_on_c, 0, 46, 0
1, 13549, Note_on_c, 0, 39, 0
1, 13549, Note_on_c, 0, 63, 31
1, 13549, Note_on_c, 0, 54, 31
1, 13552, Note_on_c, 0, 58, 31
1, 13653, Control_c, 0, 64, 0
1, 14029, Note_on_c, 0, 75, 0
1, 14029, Note_on_c, 0, 62, 54
1, 14029, Note_on_c, 0, 68, 54
1, 14032, Note_on_c, 0, 70, 54
1, 14032, Note_on_c, 0, 58, 0
1, 14032, Note_on_c, 0, 54, 0
1, 14035, Note_on_c, 0, 63, 0
1, 14035, Note_on_c, 0, 53, 39
1, 14035, Note_on_c, 0, 46, 39
1, 14038, Note_on_c, 0, 58, 39
1, 14636, Note_on_c, 0, 70, 0
1, 14636, Note_on_c, 0, 71, 52
1, 14831, Note_on_c, 0, 71, 0
1, 14831, Note_on_c, 0, 68, 0
1, 14831, Note_on_c, 0, 62, 0
1, 14834, Note_on_c, 0, 68, 52
1, 14834, Note_on_c, 0, 62, 52
1, 14834, Note_on_c, 0, 70, 52
1, 14837, Note_on_c, 0, 58, 0
1, 14837, Note_on_c, 0, 46, 0
1, 14837, Note_on_c, 0, 53, 0
1, 14840, Note_on_c, 0, 53, 38
1, 14840, Note_on_c, 0, 58, 38
1, 14840, Note_on_c, 0, 46, 38
1, 15255, Note_on_c, 0, 70, 0
1, 15255, Note_on_c, 0, 62, 0
1, 15255, Note_on_c, 0, 68, 0
1, 15258, Note_on_c, 0, 63, 57
1, 15258, Note_on_c, 0, 66, 57
1, 15258, Note_on_c, 0, 46, 0
1, 15261, Note_on_c, 0, 58, 0
1, 15261, Note_on_c, 0, 53, 0
1, 15261, Control_c, 0, 64, 127
1, 15264, Note_on_c, 0, 58, 49
1, 15264, Note_on_c, 0, 51, 49
1, 15356, Note_on_c, 0, 66, 0
1, 15356, Note_on_c, 0, 63, 0
1, 15356, Note_on_c, 0, 63, 49
1, 15456, Note_on_c, 0, 63, 0
1, 15456, Note_on_c, 0, 66, 57
1, 15556, Note_on_c, 0, 66, 0
1, 15556, Note_on_c, 0, 70, 51
1, 15656, Note_on_c, 0, 70, 0
1, 15656, Note_on_c, 0, 75, 55
1, 15757, Note_on_c, 0, 75, 0
1, 15757, Note_on_c, 0, 78, 59
1, 15857, Note_on_c, 0, 78, 0
1, 15857, Note_on_c, 0, 82, 64
1, 15957, Note_on_c, 0, 82, 0
1, 15957, Note_on_c, 0, 78, 69
1, 16058, Note_on_c, 0, 78, 0
1, 16058, Note_on_c, 0, 87, 75
1, 16058, Note_on_c, 0, 51, 0
1, 16061, Note_on_c, 0, 58, 0
1, 16061, Note_on_c, 0, 58, 53
1, 16061, Note_on_c, 0, 54, 53
1, 16064, Note_on_c, 0, 63, 53
1, 16290, Control_c, 0, 64, 0
1, 16370, Note_on_c, 0, 87, 0
1, 16370, Note_on_c, 0, 85, 65
1, 16489, Note_on_c, 0, 85, 0
1, 16489, Note_on_c, 0, 84, 71
1, 16489, Note_on_c, 0, 63, 0
1, 16492, Note_on_c, 0, 54, 0
1, 16492, Note_on_c, 0, 58, 0
1, 16492, Note_on_c, 0, 32, 64
1, 16495, Note_on_c, 0, 44, 64
1, 16592, Note_on_c, 0, 84, 0
1, 16592, Note_on_c, 0, 92, 76
1, 16692, Note_on_c, 0, 92, 0
1, 16692, Note_on_c, 0, 90, 72
1, 16791, Note_on_c, 0, 90, 0
1, 16791, Note_on_c, 0, 87, 72
1, 16889, Note_on_c, 0, 87, 0
1, 16889, Note_on_c, 0, 84, 77
1, 16988, Note_on_c, 0, 84, 0
1, 16988, Note_on_c, 0, 80, 72
1, 17086, Note_on_c, 0, 80, 0
1, 17086, Note_on_c, 0, 78, 72
1, 17185, Note_on_c, 0, 78, 0
1, 17185, Note_on_c, 0, 75, 72
1, 17283, Note_on_c, 0, 75, 0
1, 17283, Note_on_c, 0, 72, 74
1, 17283, Note_on_c, 0, 44, 0
1, 17286, Note_on_c, 0, 32, 0
1, 17286, Note_on_c, 0, 60, 60
1, 17286, Note_on_c, 0, 56, 60
1, 17289, Note_on_c, 0, 66, 60
1, 17382, Note_on_c, 0, 72, 0
1, 17382, Note_on_c, 0, 68, 72
1, 17480, Note_on_c, 0, 68, 0
1, 17480, Note_on_c, 0, 66, 72
1, 17579, Note_on_c, 0, 66, 0
1, 17579, Note_on_c, 0, 63, 72
1, 17669, Note_on_c, 0, 60, 0
1, 17677, Note_on_c, 0, 63, 0
1, 17677, Note_on_c, 0, 60, 71
1, 17677, Note_on_c, 0, 66, 0
1, 17680, Note_on_c, 0, 56, 0
1, 17680, Note_on_c, 0, 44, 65
1, 17680, Note_on_c, 0, 32, 65
1, 17781, Note_on_c, 0, 60, 0
1, 17781, Note_on_c, 0, 56, 67
1, 17884, Note_on_c, 0, 56, 0
1, 17884, Note_on_c, 0, 55, 71
1, 17987, Note_on_c, 0, 55, 0
1, 17987, Note_on_c, 0, 56, 67
1, 18090, Note_on_c, 0, 56, 0
1, 18090, Note_on_c, 0, 58, 66
1, 18193, Note_on_c, 0, 58, 0
1, 18193, Note_on_c, 0, 56, 59
1, 18296, Note_on_c, 0, 56, 0
1, 18296, Note_on_c, 0, 55, 66
1, 18403, Note_on_c, 0, 55, 0
1, 18403, Note_on_c, 0, 56, 59
1, 18510, Note_on_c, 0, 65, 65
1, 18510, Note_on_c, 0, 32, 0
1, 18510, Note_on_c, 0, 44, 0
1, 18513, Note_on_c, 0, 44, 60
1, 18513, Note_on_c, 0, 48, 60
1, 18843, Note_on_c, 0, 65, 0
1, 18843, Note_on_c, 0, 56, 0
1, 18843, Note_on_c, 0, 54, 61
1, 18846, Note_on_c, 0, 63, 61
1, 18955, Note_on_c, 0, 63, 0
1, 18955, Note_on_c, 0, 54, 0
1, 18955, Note_on_c, 0, 61, 65
1, 18958, Note_on_c, 0, 53, 65
1, 18958, Note_on_c, 0, 48, 0
1, 18958, Note_on_c, 0, 44, 0
1, 18961, Note_on_c, 0, 37, 60
1, 18961, Note_on_c, 0, 49, 60
1, 18961, Note_on_c, 0, 44, 60
1, 19048, Control_c, 0, 64, 127
1, 19060, Note_on_c, 0, 53, 0
1, 19060, Note_on_c, 0, 61, 0
1, 19060, Note_on_c, 0, 53, 64
1, 19162, Note_on_c, 0, 53, 0
1, 19162, Note_on_c, 0, 56, 64
1, 19261, Note_on_c, 0, 56, 0
1, 19261, Note_on_c, 0, 61, 64
1, 19361, Note_on_c, 0, 61, 0
1, 19361, Note_on_c, 0, 65, 64
1, 19460, Note_on_c, 0, 65, 0
1, 19460, Note_on_c, 0, 68, 63
1, 19560, Note_on_c, 0, 68, 0
1, 19560, Note_on_c, 0, 73, 61
1, 19661, Note_on_c, 0, 73, 0
1, 19661, Note_on_c, 0, 77, 61
1, 19762, Note_on_c, 0, 77, 0
1, 19762, Note_on_c, 0, 80, 61
1, 19762, Note_on_c, 0, 44, 0
1, 19765, Note_on_c, 0, 49, 0
1, 19765, Note_on_c, 0, 37, 0
1, 19765, Note_on_c, 0, 61, 43
1, 19768, Note_on_c, 0, 56, 43
1, 19768, Note_on_c, 0, 65, 43
1, 19864, Note_on_c, 0, 80, 0
1, 19864, Note_on_c, 0, 85, 63
1, 19969, Note_on_c, 0, 85, 0
1, 19969, Note_on_c, 0, 89, 64
1, 20080, Note_on_c, 0, 89, 0
1, 20080, Note_on_c, 0, 92, 65
1, 20206, Note_on_c, 0, 92, 0
1, 20206, Note_on_c, 0, 97, 77
1, 20206, Note_on_c, 0, 65, 0
1, 20209, Note_on_c, 0, 56, 0
1, 20209, Note_on_c, 0, 61, 0
1, 20209, Note_on_c, 0, 65, 43
1, 20212, Note_on_c, 0, 56, 43
1, 20212, Note_on_c, 0, 61, 43
1, 20658, Control_c, 0, 64, 0
1, 20711, Note_on_c, 0, 97, 0
1, 20711, Note_on_c, 0, 61, 0
1, 20711, Note_on_c, 0, 56, 0
1, 20714, Note_on_c, 0, 65, 0
1, 21179, Note_on_c, 0, 61, 61
1, 21530, Note_on_c, 0, 61, 0
1, 21530, Note_on_c, 0, 65, 54
1, 21647, Note_on_c, 0, 65, 0
1, 21647, Note_on_c, 0, 65, 63
1, 21647, Note_on_c, 0, 39, 54
1, 21650, Control_c, 0, 64, 127
1, 21650, Note_on_c, 0, 51, 54
1, 21860, Note_on_c, 0, 51, 0
1, 21860, Note_on_c, 0, 39, 0
1, 21860, Note_on_c, 0, 51, 49
1, 22073, Note_on_c, 0, 51, 0
1, 22073, Note_on_c, 0, 61, 49
1, 22073, Note_on_c, 0, 55, 49
1, 22285, Note_on_c, 0, 65, 0
1, 22285, Note_on_c, 0, 63, 57
1, 22285, Note_on_c, 0, 55, 0
1, 22288, Note_on_c, 0, 61, 0
1, 22288, Note_on_c, 0, 51, 49
1, 22392, Note_on_c, 0, 63, 0
1, 22392, Note_on_c, 0, 65, 58
1, 22499, Note_on_c, 0, 65, 0
1, 22499, Note_on_c, 0, 67, 59
1, 22499, Note_on_c, 0, 51, 0
1, 22502, Note_on_c, 0, 55, 49
1, 22502, Note_on_c, 0, 61, 49
1, 22608, Note_on_c, 0, 67, 0
1, 22608, Note_on_c, 0, 68, 61
1, 22650, Control_c, 0, 64, 0
1, 22717, Note_on_c, 0, 68, 0
1, 22717, Note_on_c, 0, 70, 63
1, 22717, Note_on_c, 0, 61, 0
1, 22720, Note_on_c, 0, 55, 0
1, 22720, Note_on_c, 0, 51, 49
1, 22828, Note_on_c, 0, 70, 0
1, 22828, Note_on_c, 0, 72, 64
1, 22938, Note_on_c, 0, 72, 0
1, 22938, Note_on_c, 0, 73, 66
1, 22938, Note_on_c, 0, 51, 0
1, 22941, Note_on_c, 0, 39, 54
1, 22941, Control_c, 0, 64, 127
1, 22941, Note_on_c, 0, 51, 54
1, 23152, Note_on_c, 0, 51, 0
1, 23152, Note_on_c, 0, 39, 0
1, 23152, Note_on_c, 0, 51, 47
1, 23365, Note_on_c, 0, 51, 0
1, 23365, Note_on_c, 0, 61, 47
1, 23365, Note_on_c, 0, 55, 47
1, 23471, Note_on_c, 0, 73, 0
1, 23471, Note_on_c, 0, 75, 64
1, 23506, Note_on_c, 0, 75, 0
1, 23506, Note_on_c, 0, 77, 64
1, 23542, Note_on_c, 0, 77, 0
1, 23542, Note_on_c, 0, 75, 64
1, 23577, Note_on_c, 0, 75, 0
1, 23577, Note_on_c, 0, 74, 64
1, 23577, Note_on_c, 0, 55, 0
1, 23580, Note_on_c, 0, 61, 0
1, 23580, Note_on_c, 0, 51, 47
1, 23684, Note_on_c, 0, 74, 0
1, 23684, Note_on_c, 0, 75, 66
1, 23794, Note_on_c, 0, 75, 0
1, 23794, Note_on_c, 0, 77, 70
1, 23794, Note_on_c, 0, 51, 0
1, 23797, Note_on_c, 0, 61, 47
1, 23797, Note_on_c, 0, 55, 47
1, 23904, Note_on_c, 0, 77, 0
1, 23904, Note_on_c, 0, 79, 73
1, 24016, Note_on_c, 0, 79, 0
1, 24016, Note_on_c, 0, 80, 76
1, 24016, Note_on_c, 0, 55, 0
1, 24019, Note_on_c, 0, 61, 0
1, 24019, Note_on_c, 0, 51, 47
1, 24129, Note_on_c, 0, 80, 0
1, 24129, Note_on_c, 0, 82, 80
1, 24254, Note_on_c, 0, 82, 0
1, 24254, Note_on_c, 0, 84, 84
1, 24254, Note_on_c, 0, 51, 0
1, 24257, Control_c, 0, 64, 0
1, 24257, Note_on_c, 0, 44, 54
1, 24257, Note_on_c, 0, 32, 54
1, 24360, Control_c, 0, 64, 127
1, 24493, Note_on_c, 0, 32, 0
1, 24493, Note_on_c, 0, 44, 0
1, 24493, Note_on_c, 0, 51, 48
1, 24710, Note_on_c, 0, 51, 0
1, 24710, Note_on_c, 0, 60, 48
1, 24710, Note_on_c, 0, 56, 48
1, 24928, Note_on_c, 0, 84, 0
1, 24928, Note_on_c, 0, 82, 64
1, 24928, Note_on_c, 0, 56, 0
1, 24931, Note_on_c, 0, 60, 0
1, 24931, Note_on_c, 0, 51, 42
1, 25037, Note_on_c, 0, 82, 0
1, 25037, Note_on_c, 0, 80, 64
1, 25145, Note_on_c, 0, 80, 0
1, 25145, Note_on_c, 0, 79, 70
1, 25145, Note_on_c, 0, 51, 0
1, 25148, Note_on_c, 0, 56, 42
1, 25148, Note_on_c, 0, 60, 42
1, 25261, Note_on_c, 0, 79, 0
1, 25261, Note_on_c, 0, 82, 63
1, 25377, Note_on_c, 0, 82, 0
1, 25377, Note_on_c, 0, 80, 65
1, 25377, Note_on_c, 0, 60, 0
1, 25380, Note_on_c, 0, 56, 0
1, 25380, Note_on_c, 0, 51, 42
1, 25487, Note_on_c, 0, 80, 0
1, 25487, Note_on_c, 0, 77, 60
1, 25597, Note_on_c, 0, 77, 0
1, 25597, Note_on_c, 0, 75, 60
1, 25597, Note_on_c, 0, 51, 0
1, 25600, Note_on_c, 0, 32, 54
1, 25600, Note_on_c, 0, 44, 54
1, 25817, Note_on_c, 0, 44, 0
1, 25817, Note_on_c, 0, 32, 0
1, 25817, Note_on_c, 0, 51, 37
1, 26039, Note_on_c, 0, 51, 0
1, 26039, Note_on_c, 0, 60, 37
1, 26039, Note_on_c, 0, 56, 37
1, 26261, Note_on_c, 0, 56, 0
1, 26261, Note_on_c, 0, 60, 0
1, 26261, Note_on_c, 0, 51, 37
1, 26309, Control_c, 0, 64, 0
1, 26483, Note_on_c, 0, 75, 0
1, 26483, Note_on_c, 0, 72, 60
1, 26483, Note_on_c, 0, 75, 60
1, 26486, Note_on_c, 0, 51, 0
1, 26486, Note_on_c, 0, 56, 37
1, 26486, Note_on_c, 0, 60, 37
1, 26702, Note_on_c, 0, 60, 0
1, 26702, Note_on_c, 0, 56, 0
1, 26702, Note_on_c, 0, 51, 37
1, 26812, Note_on_c, 0, 75, 0
1, 26812, Note_on_c, 0, 72, 0
1, 26812, Note_on_c, 0, 73, 57
1, 26815, Note_on_c, 0, 77, 57
1, 26933, Note_on_c, 0, 77, 0
1, 26933, Note_on_c, 0, 73, 0
1, 26933, Note_on_c, 0, 73, 60
1, 26936, Note_on_c, 0, 77, 60
1, 26936, Note_on_c, 0, 51, 0
1, 26936, Control_c, 0, 64, 127
1, 26939, Note_on_c, 0, 51, 54
1, 26939, Note_on_c, 0, 39, 54
1, 27148, Note_on_c, 0, 77, 0
1, 27148, Note_on_c, 0, 73, 0
1, 27148, Note_on_c, 0, 67, 57
1, 27151, Note_on_c, 0, 39, 0
1, 27151, Note_on_c, 0, 51, 0
1, 27151, Note_on_c, 0, 51, 37
1, 27368, Note_on_c, 0, 67, 0
1, 27368, Note_on_c, 0, 51, 0
1, 27368, Note_on_c, 0, 55, 37
1, 27371, Note_on_c, 0, 61, 37
1, 27587, Note_on_c, 0, 73, 58
1, 27587, Note_on_c, 0, 77, 58
1, 27587, Note_on_c, 0, 61, 0
1, 27590, Note_on_c, 0, 55, 0
1, 27590, Note_on_c, 0, 51, 37
1, 27799, Note_on_c, 0, 77, 0
1, 27799, Note_on_c, 0, 73, 0
1, 27799, Note_on_c, 0, 67, 53
1, 27802, Note_on_c, 0, 51, 0
1, 27802, Note_on_c, 0, 55, 37
1, 27802, Note_on_c, 0, 61, 37
1, 28011, Note_on_c, 0, 67, 0
1, 28011, Note_on_c, 0, 77, 58
1, 28011, Note_on_c, 0, 73, 58
1, 28014, Note_on_c, 0, 61, 0
1, 28014, Note_on_c, 0, 55, 0
1, 28014, Note_on_c, 0, 51, 37
1, 28238, Note_on_c, 0, 73, 0
1, 28238, Note_on_c, 0, 77, 0
1, 28238, Note_on_c, 0, 73, 60
1, 28241, Note_on_c, 0, 77, 60
1, 28241, Note_on_c, 0, 51, 0
1, 28241, Note_on_c, 0, 51, 54
1, 28244, Note_on_c, 0, 39, 54
1, 28453, Note_on_c, 0, 77, 0
1, 28453, Note_on_c, 0, 73, 0
1, 28453, Note_on_c, 0, 67, 58
1, 28456, Note_on_c, 0, 39, 0
1, 28456, Note_on_c, 0, 51, 0
1, 28456, Note_on_c, 0, 51, 37
1, 28673, Note_on_c, 0, 67, 0
1, 28673, Note_on_c, 0, 51, 0
1, 28673, Control_c, 0, 64, 0
1, 28676, Note_on_c, 0, 55, 37
1, 28676, Note_on_c, 0, 61, 37
1, 28892, Note_on_c, 0, 65, 60
1, 28892, Note_on_c, 0, 73, 60
1, 28892, Note_on_c, 0, 61, 0
1, 28895, Note_on_c, 0, 55, 0
1, 28895, Note_on_c, 0, 51, 37
1, 29112, Note_on_c, 0, 73, 0
1, 29112, Note_on_c, 0, 65, 0
1, 29112, Note_on_c, 0, 63, 60
1, 29115, Note_on_c, 0, 72, 60
1, 29115, Note_on_c, 0, 51, 0
1, 29115, Note_on_c, 0, 55, 37
1, 29331, Note_on_c, 0, 72, 0
1, 29331, Note_on_c, 0, 63, 0
1, 29331, Note_on_c, 0, 61, 57
1, 29334, Note_on_c, 0, 70, 57
1, 29334, Note_on_c, 0, 55, 0
1, 29334, Note_on_c, 0, 51, 37
1, 29558, Note_on_c, 0, 70, 0
1, 29558, Note_on_c, 0, 61, 0
1, 29558, Note_on_c, 0, 60, 54
1, 29561, Note_on_c, 0, 51, 0
1, 29561, Note_on_c, 0, 44, 54
1, 29561, Note_on_c, 0, 32, 54
1, 29628, Control_c, 0, 64, 127
1, 29671, Note_on_c, 0, 60, 0
1, 29671, Note_on_c, 0, 72, 60
1, 29780, Note_on_c, 0, 32, 0
1, 29780, Note_on_c, 0, 44, 0
1, 29780, Note_on_c, 0, 51, 37
1, 29997, Note_on_c, 0, 51, 0
1, 29997, Note_on_c, 0, 60, 37
1, 29997, Note_on_c, 0, 56, 37
1, 30215, Note_on_c, 0, 72, 0
1, 30215, Note_on_c, 0, 70, 59
1, 30215, Note_on_c, 0, 56, 0
1, 30218, Note_on_c, 0, 60, 0
1, 30218, Note_on_c, 0, 51, 37
1, 30320, Note_on_c, 0, 70, 0
1, 30320, Note_on_c, 0, 68, 57
1, 30426, Note_on_c, 0, 68, 0
1, 30426, Note_on_c, 0, 67, 57
1, 30426, Note_on_c, 0, 51, 0
1, 30429, Note_on_c, 0, 60, 37
1, 30429, Note_on_c, 0, 56, 37
1, 30530, Note_on_c, 0, 67, 0
1, 30530, Note_on_c, 0, 70, 59
1, 30636, Note_on_c, 0, 70, 0
1, 30636, Note_on_c, 0, 68, 58
1, 30636, Note_on_c, 0, 56, 0
1, 30639, Note_on_c, 0, 60, 0
1, 30639, Note_on_c, 0, 51, 37
1, 30742, Note_on_c, 0, 68, 0
1, 30742, Note_on_c, 0, 65, 54
1, 30850, Note_on_c, 0, 65, 0
1, 30850, Note_on_c, 0, 63, 53
1, 30850, Note_on_c, 0, 51, 0
1, 30853, Note_on_c, 0, 44, 54
1, 30853, Note_on_c, 0, 32, 54
1, 31067, Note_on_c, 0, 32, 0
1, 31067, Note_on_c, 0, 44, 0
1, 31067, Note_on_c, 0, 51, 37
1, 31285, Note_on_c, 0, 51, 0
1, 31285, Note_on_c, 0, 56, 37
1, 31285, Note_on_c, 0, 60, 37
1, 31502, Note_on_c, 0, 60, 0
1, 31502, Note_on_c, 0, 56, 0
1, 31502, Note_on_c, 0, 51, 37
1, 31627, Control_c, 0, 64, 0
1, 31720, Note_on_c, 0, 63, 0
1, 31720, Note_on_c, 0, 63, 64
1, 31720, Note_on_c, 0, 51, 0
1, 31723, Note_on_c, 0, 56, 37
1, 31723, Note_on_c, 0, 60, 37
1, 31946, Note_on_c, 0, 60, 0
1, 31946, Note_on_c, 0, 56, 0
1, 31946, Note_on_c, 0, 51, 37
1, 32059, Note_on_c, 0, 63, 0
1, 32059, Note_on_c, 0, 65, 59
1, 32184, Note_on_c, 0, 65, 0
1, 32184, Note_on_c, 0, 65, 63
1, 32184, Note_on_c, 0, 51, 0
1, 32187, Control_c, 0, 64, 127
1, 32187, Note_on_c, 0, 51, 54
1, 32187, Note_on_c, 0, 39, 54
1, 32397, Note_on_c, 0, 39, 0
1, 32397, Note_on_c, 0, 51, 0
1, 32397, Note_on_c, 0, 51, 49
1, 32610, Note_on_c, 0, 51, 0
1, 32610, Note_on_c, 0, 61, 49
1, 32610, Note_on_c, 0, 55, 49
1, 32822, Note_on_c, 0, 65, 0
1, 32822, Note_on_c, 0, 63, 57
1, 32822, Note_on_c, 0, 55, 0
1, 32825, Note_on_c, 0, 61, 0
1, 32825, Note_on_c, 0, 51, 49
1, 32929, Note_on_c, 0, 63, 0
1, 32929, Note_on_c, 0, 65, 58
1, 33037, Note_on_c, 0, 65, 0
1, 33037, Note_on_c, 0, 67, 59
1, 33037, Note_on_c, 0, 51, 0
1, 33040, Note_on_c, 0, 61, 49
1, 33040, Note_on_c, 0, 55, 49
1, 33146, Note_on_c, 0, 67, 0
1, 33146, Note_on_c, 0, 68, 61
1, 33187, Control_c, 0, 64, 0
1, 33255, Note_on_c, 0, 68, 0
1, 33255, Note_on_c, 0, 70, 63
1, 33255, Note_on_c, 0, 55, 0
1, 33258, Note_on_c, 0, 61, 0
1, 33258, Note_on_c, 0, 51, 49
1, 33365, Note_on_c, 0, 70, 0
1, 33365, Note_on_c, 0, 72, 64
1, 33476, Note_on_c, 0, 72, 0
1, 33476, Note_on_c, 0, 73, 66
1, 33476, Note_on_c, 0, 51, 0
1, 33479, Note_on_c, 0, 39, 54
1, 33479, Note_on_c, 0, 51, 54
1, 33479, Control_c, 0, 64, 127
1, 33689, Note_on_c, 0, 51, 0
1, 33689, Note_on_c, 0, 39, 0
1, 33689, Note_on_c, 0, 51, 47
1, 33903, Note_on_c, 0, 51, 0
1, 33903, Note_on_c, 0, 55, 47
1, 33903, Note_on_c, 0, 61, 47
1, 34009, Note_on_c, 0, 73, 0
1, 34009, Note_on_c, 0, 75, 64
1, 34044, Note_on_c, 0, 75, 0
1, 34044, Note_on_c, 0, 77, 64
1, 34079, Note_on_c, 0, 77, 0
1, 34079, Note_on_c, 0, 75, 64
1, 34115, Note_on_c, 0, 75, 0
1, 34115, Note_on_c, 0, 74, 64
1, 34115, Note_on_c, 0, 61, 0
1, 34118, Note_on_c, 0, 55, 0
1, 34118, Note_on_c, 0, 51, 47
1, 34222, Note_on_c, 0, 74, 0
1, 34222, Note_on_c, 0, 75, 66
1, 34331, Note_on_c, 0, 75, 0
1, 34331, Note_on_c, 0, 77, 70
1, 34331, Note_on_c, 0, 51, 0
1, 34334, Note_on_c, 0, 61, 47
1, 34334, Note_on_c, 0, 55, 47
1, 34442, Note_on_c, 0, 77, 0
1, 34442, Note_on_c, 0, 79, 73
1, 34553, Note_on_c, 0, 79, 0
1, 34553, Note_on_c, 0, 80, 76
1, 34553, Note_on_c, 0, 55, 0
1, 34556, Note_on_c, 0, 61, 0
1, 34556, Note_on_c, 0, 51, 47
1, 34667, Note_on_c, 0, 80, 0
1, 34667, Note_on_c, 0, 82, 80
1, 34792, Note_on_c, 0, 82, 0
1, 34792, Note_on_c, 0, 84, 84
1, 34792, Note_on_c, 0, 51, 0
1, 34795, Control_c, 0, 64, 0
1, 34795, Note_on_c, 0, 44, 54
1, 34795, Note_on_c, 0, 32, 54
1, 34887, Control_c, 0, 64, 127
1, 35031, Note_on_c, 0, 32, 0
1, 35031, Note_on_c, 0, 44, 0
1, 35031, Note_on_c, 0, 51, 48
1, 35248, Note_on_c, 0, 51, 0
1, 35248, Note_on_c, 0, 60, 48
1, 35248, Note_on_c, 0, 56, 48
1, 35466, Note_on_c, 0, 84, 0
1, 35466, Note_on_c, 0, 82, 64
1, 35466, Note_on_c, 0, 56, 0
1, 35469, Note_on_c, 0, 60, 0
1, 35469, Note_on_c, 0, 51, 42
1, 35574, Note_on_c, 0, 82, 0
1, 35574, Note_on_c, 0, 80, 64
1, 35683, Note_on_c, 0, 80, 0
1, 35683, Note_on_c, 0, 79, 70
1, 35683, Note_on_c, 0, 51, 0
1, 35686, Note_on_c, 0, 56, 42
1, 35686, Note_on_c, 0, 60, 42
1, 35799, Note_on_c, 0, 79, 0
1, 35799, Note_on_c, 0, 82, 63
1, 35914, Note_on_c, 0, 82, 0
1, 35914, Note_on_c, 0, 80, 65
1, 35914, Note_on_c, 0, 60, 0
1, 35917, Note_on_c, 0, 56, 0
1, 35917, Note_on_c, 0, 51, 42
1, 36030, Note_on_c, 0, 80, 0
1, 36030, Note_on_c, 0, 77, 60
1, 36145, Note_on_c, 0, 77, 0
1, 36145, Note_on_c, 0, 75, 60
1, 36145, Note_on_c, 0, 51, 0
1, 36148, Note_on_c, 0, 44, 54
1, 36148, Note_on_c, 0, 32, 54
1, 36377, Note_on_c, 0, 32, 0
1, 36377, Note_on_c, 0, 44, 0
1, 36377, Note_on_c, 0, 51, 37
1, 36599, Note_on_c, 0, 51, 0
1, 36599, Note_on_c, 0, 56, 37
1, 36599, Note_on_c, 0, 60, 37
1, 36820, Note_on_c, 0, 60, 0
1, 36820, Note_on_c, 0, 56, 0
1, 36820, Note_on_c, 0, 51, 37
1, 36868, Control_c, 0, 64, 0
1, 37042, Note_on_c, 0, 75, 0
1, 37042, Note_on_c, 0, 72, 60
1, 37042, Note_on_c, 0, 75, 60
1, 37045, Note_on_c, 0, 51, 0
1, 37045, Note_on_c, 0, 56, 37
1, 37045, Note_on_c, 0, 60, 37
1, 37262, Note_on_c, 0, 60, 0
1, 37262, Note_on_c, 0, 56, 0
1, 37262, Note_on_c, 0, 51, 37
1, 37372, Note_on_c, 0, 75, 0
1, 37372, Note_on_c, 0, 72, 0
1, 37372, Note_on_c, 0, 73, 57
1, 37375, Note_on_c, 0, 77, 57
1, 37492, Note_on_c, 0, 77, 0
1, 37492, Note_on_c, 0, 73, 0
1, 37492, Note_on_c, 0, 73, 60
1, 37495, Note_on_c, 0, 77, 60
1, 37495, Note_on_c, 0, 51, 0
1, 37495, Control_c, 0, 64, 127
1, 37498, Note_on_c, 0, 51, 54
1, 37498, Note_on_c, 0, 39, 54
1, 37708, Note_on_c, 0, 77, 0
1, 37708, Note_on_c, 0, 73, 0
1, 37708, Note_on_c, 0, 67, 57
1, 37711, Note_on_c, 0, 39, 0
1, 37711, Note_on_c, 0, 51, 0
1, 37711, Note_on_c, 0, 51, 37
1, 37927, Note_on_c, 0, 67, 0
1, 37927, Note_on_c, 0, 51, 0
1, 37927, Note_on_c, 0, 55, 37
1, 37930, Note_on_c, 0, 61, 37
1, 38147, Note_on_c, 0, 77, 58
1, 38147, Note_on_c, 0, 73, 58
1, 38147, Note_on_c, 0, 61, 0
1, 38150, Note_on_c, 0, 55, 0
1, 38150, Note_on_c, 0, 51, 37
1, 38359, Note_on_c, 0, 73, 0
1, 38359, Note_on_c, 0, 77, 0
1, 38359, Note_on_c, 0, 67, 53
1, 38362, Note_on_c, 0, 51, 0
1, 38362, Note_on_c, 0, 55, 37
1, 38362, Note_on_c, 0, 61, 37
1, 38571, Note_on_c, 0, 67, 0
1, 38571, Note_on_c, 0, 73, 58
1, 38571, Note_on_c, 0, 77, 58
1, 38574, Note_on_c, 0, 61, 0
1, 38574, Note_on_c, 0, 55, 0
1, 38574, Note_on_c, 0, 51, 37
1, 38797, Note_on_c, 0, 77, 0
1, 38797, Note_on_c, 0, 73, 0
1, 38797, Note_on_c, 0, 77, 60
1, 38800, Note_on_c, 0, 73, 60
1, 38800, Note_on_c, 0, 51, 0
1, 38800, Note_on_c, 0, 51, 54
1, 38803, Note_on_c, 0, 39, 54
1, 39013, Note_on_c, 0, 73, 0
1, 39013, Note_on_c, 0, 77, 0
1, 39013, Note_on_c, 0, 67, 58
1, 39016, Note_on_c, 0, 39, 0
1, 39016, Note_on_c, 0, 51, 0
1, 39016, Note_on_c, 0, 51, 37
1, 39232, Note_on_c, 0, 67, 0
1, 39232, Note_on_c, 0, 51, 0
1, 39232, Note_on_c, 0, 61, 37
1, 39235, Control_c, 0, 64, 0
1, 39235, Note_on_c, 0, 55, 37
1, 39452, Note_on_c, 0, 65, 60
1, 39452, Note_on_c, 0, 73, 60
1, 39452, Note_on_c, 0, 55, 0
1, 39455, Note_on_c, 0, 61, 0
1, 39455, Note_on_c, 0, 51, 37
1, 39562, Note_on_c, 0, 73, 0
1, 39562, Note_on_c, 0, 65, 0
1, 39671, Note_on_c, 0, 63, 60
1, 39671, Note_on_c, 0, 72, 60
1, 39671, Note_on_c, 0, 51, 0
1, 39674, Note_on_c, 0, 55, 37
1, 39781, Note_on_c, 0, 72, 0
1, 39781, Note_on_c, 0, 63, 0
1, 39891, Note_on_c, 0, 70, 57
1, 39891, Note_on_c, 0, 61, 57
1, 39891, Note_on_c, 0, 55, 0
1, 39894, Note_on_c, 0, 51, 37
1, 40004, Note_on_c, 0, 61, 0
1, 40004, Note_on_c, 0, 70, 0
1, 40117, Note_on_c, 0, 60, 57
1, 40117, Note_on_c, 0, 68, 57
1, 40117, Note_on_c, 0, 51, 0
1, 40120, Note_on_c, 0, 56, 37
1, 40120, Note_on_c, 0, 44, 37
1, 40233, Note_on_c, 0, 44, 0
1, 40233, Note_on_c, 0, 56, 0
1, 40349, Note_on_c, 0, 51, 37
1, 40569, Note_on_c, 0, 51, 0
1, 40569, Note_on_c, 0, 56, 37
1, 40569, Note_on_c, 0, 60, 37
1, 40679, Note_on_c, 0, 68, 0
1, 40679, Note_on_c, 0, 60, 0
1, 40679, Note_on_c, 0, 63, 57
1, 40790, Note_on_c, 0, 63, 0
1, 40790, Note_on_c, 0, 68, 52
1, 40790, Note_on_c, 0, 60, 0
1, 40793, Note_on_c, 0, 56, 0
1, 40793, Note_on_c, 0, 51, 37
1, 40900, Note_on_c, 0, 68, 0
1, 40900, Note_on_c, 0, 72, 51
1, 41010, Note_on_c, 0, 72, 0
1, 41010, Note_on_c, 0, 75, 49
1, 41010, Note_on_c, 0, 51, 0
1, 41013, Note_on_c, 0, 60, 37
1, 41013, Note_on_c, 0, 56, 37
1, 41120, Note_on_c, 0, 75, 0
1, 41120, Note_on_c, 0, 80, 47
1, 41230, Note_on_c, 0, 80, 0
1, 41230, Note_on_c, 0, 84, 44
1, 41230, Note_on_c, 0, 56, 0
1, 41233, Note_on_c, 0, 60, 0
1, 41233, Note_on_c, 0, 51, 37
1, 41340, Note_on_c, 0, 84, 0
1, 41340, Note_on_c, 0, 87, 42
1, 41447, Note_on_c, 0, 92, 44
1, 41450, Note_on_c, 0, 87, 0
1, 41450, Note_on_c, 0, 51, 0
1, 41450, Note_on_c, 0, 60, 37
1, 41453, Note_on_c, 0, 56, 37
1, 41557, Note_on_c, 0, 92, 0
1, 41562, Note_on_c, 0, 80, 37
1, 41645, Note_on_c, 0, 80, 0
1, 41669, Note_on_c, 0, 80, 37
1, 41779, Note_on_c, 0, 80, 0
1, 41784, Note_on_c, 0, 92, 37
1, 41867, Note_on_c, 0, 92, 0
1, 41891, Note_on_c, 0, 56, 0
1, 41891, Note_on_c, 0, 60, 0
1, 41891, Note_on_c, 0, 92, 44
1, 42001, Note_on_c, 0, 80, 37
1, 42001, Note_on_c, 0, 92, 0
1, 42083, Note_on_c, 0, 80, 0
1, 42111, Note_on_c, 0, 80, 37
1, 42221, Note_on_c, 0, 80, 0
1, 42227, Note_on_c, 0, 92, 37
1, 42309, Note_on_c, 0, 92, 0
1, 42335, Note_on_c, 0, 92, 43
1, 42445, Note_on_c, 0, 92, 0
1, 42445, Note_on_c, 0, 80, 37
1, 42528, Note_on_c, 0, 80, 0
1, 42550, Note_on_c, 0, 80, 37
1, 42660, Note_on_c, 0, 80, 0
1, 42660, Note_on_c, 0, 61, 46
1, 42667, Note_on_c, 0, 92, 37
1, 42717, Note_on_c, 0, 65, 46
1, 42750, Note_on_c, 0, 92, 0
1, 42772, Note_on_c, 0, 68, 52
1, 42775, Note_on_c, 0, 92, 44
1, 42881, Note_on_c, 0, 80, 37
1, 42881, Note_on_c, 0, 92, 0
1, 42962, Note_on_c, 0, 80, 0
1, 42986, Note_on_c, 0, 80, 37
1, 43092, Note_on_c, 0, 92, 37
1, 43092, Note_on_c, 0, 80, 0
1, 43173, Note_on_c, 0, 92, 0
1, 43200, Note_on_c, 0, 92, 44
1, 43308, Note_on_c, 0, 92, 0
1, 43312, Note_on_c, 0, 80, 37
1, 43393, Note_on_c, 0, 80, 0
1, 43416, Note_on_c, 0, 80, 37
1, 43420, Note_on_c, 0, 70, 52
1, 43456, Note_on_c, 0, 68, 0
1, 43456, Note_on_c, 0, 61, 0
1, 43456, Note_on_c, 0, 65, 0
1, 43524, Note_on_c, 0, 80, 0
1, 43524, Note_on_c, 0, 92, 37
1, 43605, Note_on_c, 0, 92, 0
1, 43636, Note_on_c, 0, 65, 42
1, 43636, Note_on_c, 0, 61, 42
1, 43636, Note_on_c, 0, 68, 42
1, 43641, Note_on_c, 0, 92, 40
1, 43674, Note_on_c, 0, 70, 0
1, 43751, Note_on_c, 0, 80, 35
1, 43757, Note_on_c, 0, 92, 0
1, 43838, Note_on_c, 0, 80, 0
1, 43863, Note_on_c, 0, 80, 35
1, 43979, Note_on_c, 0, 80, 0
1, 43979, Note_on_c, 0, 92, 35
1, 43983, Note_on_c, 0, 65, 0
1, 43983, Note_on_c, 0, 61, 0
1, 43983, Note_on_c, 0, 68, 0
1, 43986, Note_on_c, 0, 56, 38
1, 44047, Note_on_c, 0, 61, 38
1, 44074, Note_on_c, 0, 92, 0
1, 44106, Note_on_c, 0, 92, 34
1, 44111, Note_on_c, 0, 65, 46
1, 44215, Note_on_c, 0, 92, 0
1, 44219, Note_on_c, 0, 80, 28
1, 44300, Note_on_c, 0, 80, 0
1, 44328, Note_on_c, 0, 80, 28
1, 44436, Note_on_c, 0, 80, 0
1, 44436, Note_on_c, 0, 92, 28
1, 44517, Note_on_c, 0, 92, 0
1, 44544, Note_on_c, 0, 92, 32
1, 44652, Note_on_c, 0, 92, 0
1, 44652, Note_on_c, 0, 80, 27
1, 44733, Note_on_c, 0, 80, 0
1, 44755, Note_on_c, 0, 80, 27
1, 44863, Note_on_c, 0, 80, 0
1, 44868, Note_on_c, 0, 92, 27
1, 44949, Note_on_c, 0, 92, 0
1, 44975, Note_on_c, 0, 92, 34
1, 45083, Note_on_c, 0, 92, 0
1, 45083, Note_on_c, 0, 80, 28
1, 45164, Note_on_c, 0, 80, 0
1, 45187, Note_on_c, 0, 80, 27
1, 45295, Note_on_c, 0, 80, 0
1, 45299, Note_on_c, 0, 65, 0
1, 45299, Note_on_c, 0, 61, 0
1, 45299, Note_on_c, 0, 56, 0
1, 45302, Note_on_c, 0, 61, 46
1, 45302, Note_on_c, 0, 92, 27
1, 45360, Note_on_c, 0, 65, 46
1, 45392, Note_on_c, 0, 92, 0
1, 45421, Note_on_c, 0, 68, 52
1, 45424, Note_on_c, 0, 92, 48
1, 45532, Note_on_c, 0, 92, 0
1, 45532, Note_on_c, 0, 80, 37
1, 45613, Note_on_c, 0, 80, 0
1, 45639, Note_on_c, 0, 80, 37
1, 45743, Note_on_c, 0, 92, 37
1, 45747, Note_on_c, 0, 80, 0
1, 45824, Note_on_c, 0, 92, 0
1, 45858, Note_on_c, 0, 92, 44
1, 45964, Note_on_c, 0, 80, 37
1, 45964, Note_on_c, 0, 92, 0
1, 46045, Note_on_c, 0, 80, 0
1, 46069, Note_on_c, 0, 70, 53
1, 46074, Note_on_c, 0, 80, 37
1, 46105, Note_on_c, 0, 68, 0
1, 46105, Note_on_c, 0, 61, 0
1, 46105, Note_on_c, 0, 65, 0
1, 46182, Note_on_c, 0, 80, 0
1, 46182, Note_on_c, 0, 92, 37
1, 46263, Note_on_c, 0, 92, 0
1, 46285, Note_on_c, 0, 70, 0
1, 46285, Note_on_c, 0, 65, 43
1, 46285, Note_on_c, 0, 68, 43
1, 46288, Note_on_c, 0, 61, 43
1, 46288, Note_on_c, 0, 92, 39
1, 46396, Note_on_c, 0, 80, 35
1, 46401, Note_on_c, 0, 92, 0
1, 46481, Note_on_c, 0, 80, 0
1, 46514, Note_on_c, 0, 80, 35
1, 46627, Note_on_c, 0, 92, 35
1, 46627, Note_on_c, 0, 80, 0
1, 46627, Note_on_c, 0, 61, 0
1, 46627, Note_on_c, 0, 68, 0
1, 46627, Note_on_c, 0, 65, 0
1, 46627, Note_on_c, 0, 56, 40
1, 46691, Note_on_c, 0, 61, 40
1, 46720, Note_on_c, 0, 92, 0
1, 46753, Note_on_c, 0, 65, 47
1, 46759, Note_on_c, 0, 92, 32
1, 46860, Note_on_c, 0, 80, 26
1, 46867, Note_on_c, 0, 92, 0
1, 46941, Note_on_c, 0, 80, 0
1, 46973, Note_on_c, 0, 80, 26
1, 47081, Note_on_c, 0, 80, 0
1, 47081, Note_on_c, 0, 92, 27
1, 47164, Note_on_c, 0, 92, 0
1, 47191, Note_on_c, 0, 92, 35
1, 47299, Note_on_c, 0, 92, 0
1, 47299, Note_on_c, 0, 80, 28
1, 47380, Note_on_c, 0, 80, 0
1, 47403, Note_on_c, 0, 80, 28
1, 47509, Note_on_c, 0, 92, 28
1, 47509, Note_on_c, 0, 80, 0
1, 47590, Note_on_c, 0, 92, 0
1, 47616, Note_on_c, 0, 92, 36
1, 47724, Note_on_c, 0, 92, 0
1, 47724, Note_on_c, 0, 80, 28
1, 47805, Note_on_c, 0, 80, 0
1, 47839, Note_on_c, 0, 80, 28
1, 47887, Note_on_c, 0, 66, 51
1, 47940, Note_on_c, 0, 92, 28
1, 47944, Note_on_c, 0, 68, 51
1, 47950, Note_on_c, 0, 80, 0
1, 48002, Note_on_c, 0, 72, 51
1, 48027, Note_on_c, 0, 92, 0
1, 48055, Note_on_c, 0, 82, 37
1, 48059, Note_on_c, 0, 65, 0
1, 48059, Note_on_c, 0, 56, 0
1, 48059, Note_on_c, 0, 61, 0
1, 48062, Control_c, 0, 64, 127
1, 48062, Note_on_c, 0, 75, 63
1, 48112, Note_on_c, 0, 80, 31
1, 48124, Note_on_c, 0, 82, 0
1, 48160, Note_on_c, 0, 82, 37
1, 48181, Note_on_c, 0, 80, 0
1, 48216, Note_on_c, 0, 80, 30
1, 48228, Note_on_c, 0, 82, 0
1, 48265, Note_on_c, 0, 82, 37
1, 48284, Note_on_c, 0, 80, 0
1, 48315, Note_on_c, 0, 80, 32
1, 48333, Note_on_c, 0, 82, 0
1, 48364, Note_on_c, 0, 82, 38
1, 48381, Note_on_c, 0, 80, 0
1, 48421, Note_on_c, 0, 80, 32
1, 48433, Note_on_c, 0, 82, 0
1, 48469, Note_on_c, 0, 82, 39
1, 48487, Note_on_c, 0, 80, 0
1, 48519, Note_on_c, 0, 80, 34
1, 48536, Note_on_c, 0, 82, 0
1, 48566, Note_on_c, 0, 82, 39
1, 48588, Note_on_c, 0, 80, 0
1, 48626, Note_on_c, 0, 80, 34
1, 48637, Note_on_c, 0, 82, 0
1, 48679, Note_on_c, 0, 82, 40
1, 48698, Note_on_c, 0, 80, 0
1, 48730, Note_on_c, 0, 75, 0
1, 48730, Note_on_c, 0, 72, 0
1, 48730, Note_on_c, 0, 68, 0
1, 48733, Note_on_c, 0, 66, 0
1, 48733, Note_on_c, 0, 66, 49
1, 48733, Note_on_c, 0, 80, 35
1, 48754, Note_on_c, 0, 82, 0
1, 48789, Note_on_c, 0, 82, 42
1, 48789, Note_on_c, 0, 68, 49
1, 48816, Note_on_c, 0, 80, 0
1, 48853, Note_on_c, 0, 80, 35
1, 48858, Note_on_c, 0, 72, 49
1, 48877, Note_on_c, 0, 82, 0
1, 48919, Note_on_c, 0, 82, 42
1, 48924, Note_on_c, 0, 75, 61
1, 48939, Note_on_c, 0, 80, 0
1, 48981, Note_on_c, 0, 80, 34
1, 48997, Note_on_c, 0, 82, 0
1, 49035, Note_on_c, 0, 82, 40
1, 49059, Note_on_c, 0, 80, 0
1, 49093, Note_on_c, 0, 80, 34
1, 49113, Note_on_c, 0, 82, 0
1, 49161, Note_on_c, 0, 82, 39
1, 49170, Note_on_c, 0, 80, 0
1, 49213, Note_on_c, 0, 80, 34
1, 49213, Note_on_c, 0, 75, 0
1, 49213, Note_on_c, 0, 66, 0
1, 49216, Note_on_c, 0, 68, 0
1, 49216, Note_on_c, 0, 72, 0
1, 49216, Note_on_c, 0, 63, 47
1, 49238, Note_on_c, 0, 82, 0
1, 49268, Note_on_c, 0, 82, 38
1, 49272, Note_on_c, 0, 66, 47
1, 49294, Note_on_c, 0, 80, 0
1, 49333, Note_on_c, 0, 80, 31
1, 49337, Note_on_c, 0, 68, 47
1, 49354, Note_on_c, 0, 82, 0
1, 49398, Note_on_c, 0, 82, 37
1, 49402, Note_on_c, 0, 72, 58
1, 49416, Note_on_c, 0, 80, 0
1, 49454, Note_on_c, 0, 80, 32
1, 49468, Note_on_c, 0, 82, 0
1, 49507, Note_on_c, 0, 82, 35
1, 49523, Note_on_c, 0, 80, 0
1, 49559, Note_on_c, 0, 80, 30
1, 49575, Note_on_c, 0, 82, 0
1, 49608, Note_on_c, 0, 82, 35
1, 49626, Note_on_c, 0, 80, 0
1, 49660, Note_on_c, 0, 80, 31
1, 49678, Note_on_c, 0, 82, 0
1, 49706, Note_on_c, 0, 82, 35
1, 49727, Note_on_c, 0, 80, 0
1, 49760, Note_on_c, 0, 80, 35
1, 49772, Note_on_c, 0, 82, 0
1, 49809, Note_on_c, 0, 82, 35
1, 49827, Note_on_c, 0, 80, 0
1, 49859, Note_on_c, 0, 80, 30
1, 49876, Note_on_c, 0, 82, 0
1, 49907, Note_on_c, 0, 82, 38
1, 49928, Note_on_c, 0, 80, 0
1, 49964, Note_on_c, 0, 80, 35
1, 49976, Note_on_c, 0, 82, 0
1, 50018, Note_on_c, 0, 82, 39
1, 50033, Note_on_c, 0, 80, 0
1, 50069, Note_on_c, 0, 80, 35
1, 50086, Note_on_c, 0, 82, 0
1, 50118, Note_on_c, 0, 82, 40
1, 50137, Note_on_c, 0, 80, 0
1, 50168, Note_on_c, 0, 80, 36
1, 50189, Note_on_c, 0, 82, 0
1, 50229, Note_on_c, 0, 82, 43
1, 50240, Note_on_c, 0, 80, 0
1, 50283, Note_on_c, 0, 80, 38
1, 50304, Note_on_c, 0, 82, 0
1, 50341, Note_on_c, 0, 82, 43
1, 50358, Note_on_c, 0, 80, 0
1, 50398, Note_on_c, 0, 80, 38
1, 50416, Note_on_c, 0, 82, 0
1, 50450, Note_on_c, 0, 82, 43
1, 50472, Note_on_c, 0, 80, 0
1, 50500, Note_on_c, 0, 80, 37
1, 50504, Note_on_c, 0, 72, 0
1, 50504, Note_on_c, 0, 63, 0
1, 50504, Note_on_c, 0, 66, 0
1, 50507, Note_on_c, 0, 68, 0
1, 50525, Note_on_c, 0, 82, 0
1, 50560, Note_on_c, 0, 82, 42
1, 50560, Note_on_c, 0, 65, 52
1, 50578, Note_on_c, 0, 80, 0
1, 50621, Control_c, 0, 64, 0
1, 50621, Note_on_c, 0, 80, 36
1, 50626, Note_on_c, 0, 68, 52
1, 50647, Note_on_c, 0, 82, 0
1, 50693, Note_on_c, 0, 73, 66
1, 50693, Control_c, 0, 64, 127
1, 50698, Note_on_c, 0, 82, 43
1, 50708, Note_on_c, 0, 80, 0
1, 50742, Note_on_c, 0, 80, 38
1, 50766, Note_on_c, 0, 82, 0
1, 50798, Note_on_c, 0, 82, 43
1, 50810, Note_on_c, 0, 80, 0
1, 50852, Note_on_c, 0, 80, 37
1, 50867, Note_on_c, 0, 82, 0
1, 50902, Note_on_c, 0, 82, 43
1, 50920, Note_on_c, 0, 80, 0
1, 50953, Note_on_c, 0, 80, 37
1, 50970, Note_on_c, 0, 82, 0
1, 51001, Note_on_c, 0, 82, 42
1, 51022, Note_on_c, 0, 80, 0
1, 51051, Note_on_c, 0, 80, 36
1, 51070, Note_on_c, 0, 82, 0
1, 51100, Note_on_c, 0, 82, 43
1, 51119, Note_on_c, 0, 80, 0
1, 51153, Note_on_c, 0, 80, 38
1, 51170, Note_on_c, 0, 82, 0
1, 51212, Note_on_c, 0, 82, 44
1, 51222, Note_on_c, 0, 80, 0
1, 51255, Note_on_c, 0, 80, 37
1, 51283, Note_on_c, 0, 82, 0
1, 51314, Note_on_c, 0, 82, 42
1, 51328, Note_on_c, 0, 80, 0
1, 51364, Note_on_c, 0, 80, 37
1, 51386, Note_on_c, 0, 82, 0
1, 51422, Note_on_c, 0, 73, 0
1, 51422, Note_on_c, 0, 68, 0
1, 51422, Note_on_c, 0, 65, 0
1, 51425, Note_on_c, 0, 65, 50
1, 51425, Note_on_c, 0, 82, 42
1, 51439, Note_on_c, 0, 80, 0
1, 51483, Note_on_c, 0, 80, 36
1, 51487, Note_on_c, 0, 68, 50
1, 51513, Note_on_c, 0, 82, 0
1, 51548, Note_on_c, 0, 82, 42
1, 51553, Note_on_c, 0, 73, 64
1, 51569, Note_on_c, 0, 80, 0
1, 51619, Note_on_c, 0, 80, 39
1, 51629, Note_on_c, 0, 82, 0
1, 51671, Note_on_c, 0, 82, 42
1, 51699, Note_on_c, 0, 80, 0
1, 51730, Note_on_c, 0, 80, 36
1, 51750, Note_on_c, 0, 82, 0
1, 51794, Note_on_c, 0, 82, 42
1, 51810, Note_on_c, 0, 80, 0
1, 51856, Note_on_c, 0, 80, 37
1, 51874, Note_on_c, 0, 82, 0
1, 51912, Note_on_c, 0, 73, 0
1, 51912, Note_on_c, 0, 68, 0
1, 51912, Note_on_c, 0, 65, 0
1, 51915, Note_on_c, 0, 61, 46
1, 51918, Note_on_c, 0, 82, 39
1, 51936, Note_on_c, 0, 80, 0
1, 51973, Note_on_c, 0, 65, 46
1, 51977, Note_on_c, 0, 80, 37
1, 51999, Note_on_c, 0, 82, 0
1, 52032, Note_on_c, 0, 82, 37
1, 52032, Note_on_c, 0, 68, 53
1, 52053, Note_on_c, 0, 80, 0
1, 52082, Note_on_c, 0, 80, 31
1, 52101, Note_on_c, 0, 82, 0
1, 52138, Note_on_c, 0, 82, 34
1, 52150, Note_on_c, 0, 80, 0
1, 52186, Note_on_c, 0, 80, 30
1, 52207, Note_on_c, 0, 82, 0
1, 52236, Note_on_c, 0, 82, 34
1, 52253, Note_on_c, 0, 80, 0
1, 52291, Note_on_c, 0, 80, 34
1, 52303, Note_on_c, 0, 82, 0
1, 52342, Note_on_c, 0, 82, 34
1, 52360, Note_on_c, 0, 80, 0
1, 52385, Note_on_c, 0, 80, 30
1, 52408, Note_on_c, 0, 82, 0
1, 52440, Note_on_c, 0, 82, 34
1, 52452, Note_on_c, 0, 80, 0
1, 52488, Note_on_c, 0, 80, 34
1, 52506, Note_on_c, 0, 82, 0
1, 52541, Note_on_c, 0, 82, 34
1, 52555, Note_on_c, 0, 80, 0
1, 52589, Note_on_c, 0, 80, 30
1, 52607, Note_on_c, 0, 82, 0
1, 52639, Note_on_c, 0, 82, 34
1, 52656, Note_on_c, 0, 80, 0
1, 52688, Note_on_c, 0, 80, 30
1, 52706, Note_on_c, 0, 82, 0
1, 52734, Note_on_c, 0, 82, 34
1, 52754, Note_on_c, 0, 80, 0
1, 52786, Note_on_c, 0, 80, 30
1, 52802, Note_on_c, 0, 82, 0
1, 52838, Note_on_c, 0, 82, 35
1, 52853, Note_on_c, 0, 80, 0
1, 52893, Note_on_c, 0, 80, 30
1, 52906, Note_on_c, 0, 82, 0
1, 52944, Note_on_c, 0, 82, 35
1, 52965, Note_on_c, 0, 80, 0
1, 53003, Note_on_c, 0, 80, 29
1, 53017, Note_on_c, 0, 82, 0
1, 53050, Control_c, 0, 64, 0
1, 53053, Note_on_c, 0, 82, 35
1, 53072, Note_on_c, 0, 80, 0
1, 53100, Note_on_c, 0, 80, 29
1, 53121, Note_on_c, 0, 82, 0
1, 53149, Note_on_c, 0, 82, 35
1, 53149, Note_on_c, 0, 68, 0
1, 53149, Note_on_c, 0, 65, 0
1, 53149, Note_on_c, 0, 61, 0
1, 53149, Note_on_c, 0, 61, 46
1, 53168, Note_on_c, 0, 80, 0
1, 53202, Note_on_c, 0, 80, 30
1, 53202, Note_on_c, 0, 65, 46
1, 53217, Note_on_c, 0, 82, 0
1, 53254, Note_on_c, 0, 68, 52
1, 53257, Note_on_c, 0, 92, 44
1, 53272, Note_on_c, 0, 80, 0
1, 53363, Note_on_c, 0, 80, 37
1, 53363, Note_on_c, 0, 92, 0
1, 53444, Note_on_c, 0, 80, 0
1, 53468, Note_on_c, 0, 80, 37
1, 53574, Note_on_c, 0, 92, 37
1, 53574, Note_on_c, 0, 80, 0
1, 53655, Note_on_c, 0, 92, 0
1, 53682, Note_on_c, 0, 92, 44
1, 53790, Note_on_c, 0, 92, 0
1, 53794, Note_on_c, 0, 80, 37
1, 53875, Note_on_c, 0, 80, 0
1, 53898, Note_on_c, 0, 80, 37
1, 53902, Note_on_c, 0, 70, 52
1, 53938, Note_on_c, 0, 68, 0
1, 53938, Note_on_c, 0, 61, 0
1, 53938, Note_on_c, 0, 65, 0
1, 54006, Note_on_c, 0, 80, 0
1, 54006, Note_on_c, 0, 92, 37
1, 54087, Note_on_c, 0, 92, 0
1, 54118, Note_on_c, 0, 65, 42
1, 54118, Note_on_c, 0, 68, 42
1, 54118, Note_on_c, 0, 61, 42
1, 54123, Note_on_c, 0, 92, 40
1, 54156, Note_on_c, 0, 70, 0
1, 54233, Note_on_c, 0, 80, 35
1, 54239, Note_on_c, 0, 92, 0
1, 54320, Note_on_c, 0, 80, 0
1, 54345, Note_on_c, 0, 80, 35
1, 54461, Note_on_c, 0, 80, 0
1, 54461, Note_on_c, 0, 92, 35
1, 54465, Note_on_c, 0, 65, 0
1, 54465, Note_on_c, 0, 68, 0
1, 54465, Note_on_c, 0, 61, 0
1, 54468, Note_on_c, 0, 56, 38
1, 54529, Note_on_c, 0, 61, 38
1, 54556, Note_on_c, 0, 92, 0
1, 54588, Note_on_c, 0, 92, 34
1, 54593, Note_on_c, 0, 65, 46
1, 54697, Note_on_c, 0, 92, 0
1, 54701, Note_on_c, 0, 80, 28
1, 54782, Note_on_c, 0, 80, 0
1, 54810, Note_on_c, 0, 80, 28
1, 54918, Note_on_c, 0, 80, 0
1, 54918, Note_on_c, 0, 92, 28
1, 54999, Note_on_c, 0, 92, 0
1, 55026, Note_on_c, 0, 92, 32
1, 55134, Note_on_c, 0, 92, 0
1, 55134, Note_on_c, 0, 80, 27
1, 55215, Note_on_c, 0, 80, 0
1, 55237, Note_on_c, 0, 80, 27
1, 55345, Note_on_c, 0, 80, 0
1, 55350, Note_on_c, 0, 92, 27
1, 55431, Note_on_c, 0, 92, 0
1, 55457, Note_on_c, 0, 92, 34
1, 55565, Note_on_c, 0, 92, 0
1, 55565, Note_on_c, 0, 80, 28
1, 55646, Note_on_c, 0, 80, 0
1, 55669, Note_on_c, 0, 80, 27
1, 55777, Note_on_c, 0, 80, 0
1, 55781, Note_on_c, 0, 65, 0
1, 55781, Note_on_c, 0, 61, 0
1, 55781, Note_on_c, 0, 56, 0
1, 55784, Note_on_c, 0, 61, 46
1, 55784, Note_on_c, 0, 92, 27
1, 55842, Note_on_c, 0, 65, 46
1, 55874, Note_on_c, 0, 92, 0
1, 55903, Note_on_c, 0, 68, 52
1, 55906, Note_on_c, 0, 92, 48
1, 56014, Note_on_c, 0, 92, 0
1, 56014, Note_on_c, 0, 80, 37
1, 56095, Note_on_c, 0, 80, 0
1, 56120, Note_on_c, 0, 80, 37
1, 56225, Note_on_c, 0, 92, 37
1, 56228, Note_on_c, 0, 80, 0
1, 56306, Note_on_c, 0, 92, 0
1, 56340, Note_on_c, 0, 92, 44
1, 56446, Note_on_c, 0, 80, 37
1, 56446, Note_on_c, 0, 92, 0
1, 56527, Note_on_c, 0, 80, 0
1, 56551, Note_on_c, 0, 70, 53
1, 56556, Note_on_c, 0, 80, 37
1, 56587, Note_on_c, 0, 68, 0
1, 56587, Note_on_c, 0, 61, 0
1, 56587, Note_on_c, 0, 65, 0
1, 56664, Note_on_c, 0, 80, 0
1, 56664, Note_on_c, 0, 92, 37
1, 56745, Note_on_c, 0, 92, 0
1, 56767, Note_on_c, 0, 70, 0
1, 56767, Note_on_c, 0, 65, 43
1, 56767, Note_on_c, 0, 68, 43
1, 56770, Note_on_c, 0, 61, 43
1, 56770, Note_on_c, 0, 92, 39
1, 56877, Note_on_c, 0, 80, 35
1, 56883, Note_on_c, 0, 92, 0
1, 56963, Note_on_c, 0, 80, 0
1, 56996, Note_on_c, 0, 80, 35
1, 57109, Note_on_c, 0, 92, 35
1, 57109, Note_on_c, 0, 80, 0
1, 57109, Note_on_c, 0, 61, 0
1, 57109, Note_on_c, 0, 68, 0
1, 57109, Note_on_c, 0, 65, 0
1, 57109, Note_on_c, 0, 56, 40
1, 57173, Note_on_c, 0, 61, 40
1, 57202, Note_on_c, 0, 92, 0
1, 57235, Note_on_c, 0, 65, 47
1, 57241, Note_on_c, 0, 92, 32
1, 57341, Note_on_c, 0, 80, 26
1, 57349, Note_on_c, 0, 92, 0
1, 57422, Note_on_c, 0, 80, 0
1, 57455, Note_on_c, 0, 80, 26
1, 57563, Note_on_c, 0, 80, 0
1, 57563, Note_on_c, 0, 92, 27
1, 57646, Note_on_c, 0, 92, 0
1, 57673, Note_on_c, 0, 92, 35
1, 57781, Note_on_c, 0, 92, 0
1, 57781, Note_on_c, 0, 80, 28
1, 57862, Note_on_c, 0, 80, 0
1, 57885, Note_on_c, 0, 80, 28
1, 57991, Note_on_c, 0, 92, 28
1, 57991, Note_on_c, 0, 80, 0
1, 58072, Note_on_c, 0, 92, 0
1, 58097, Note_on_c, 0, 92, 36
1, 58205, Note_on_c, 0, 92, 0
1, 58205, Note_on_c, 0, 80, 28
1, 58286, Note_on_c, 0, 80, 0
1, 58321, Note_on_c, 0, 80, 28
1, 58369, Note_on_c, 0, 65, 0
1, 58369, Note_on_c, 0, 61, 0
1, 58369, Note_on_c, 0, 56, 0
1, 58372, Note_on_c, 0, 56, 50
1, 58422, Note_on_c, 0, 92, 28
1, 58426, Note_on_c, 0, 60, 50
1, 58432, Note_on_c, 0, 80, 0
1, 58484, Note_on_c, 0, 63, 50
1, 58509, Note_on_c, 0, 92, 0
1, 58539, Note_on_c, 0, 66, 58
1, 58539, Note_on_c, 0, 82, 37
1, 58588, Note_on_c, 0, 80, 30
1, 58606, Note_on_c, 0, 82, 0
1, 58634, Note_on_c, 0, 82, 38
1, 58654, Note_on_c, 0, 80, 0
1, 58690, Note_on_c, 0, 80, 32
1, 58699, Note_on_c, 0, 82, 0
1, 58736, Note_on_c, 0, 82, 39
1, 58754, Note_on_c, 0, 80, 0
1, 58781, Note_on_c, 0, 80, 35
1, 58802, Note_on_c, 0, 82, 0
1, 58838, Note_on_c, 0, 82, 40
1, 58847, Note_on_c, 0, 80, 0
1, 58879, Note_on_c, 0, 80, 37
1, 58904, Note_on_c, 0, 82, 0
1, 58936, Note_on_c, 0, 82, 42
1, 58944, Note_on_c, 0, 80, 0
1, 58982, Note_on_c, 0, 80, 38
1, 59000, Note_on_c, 0, 82, 0
1, 59027, Note_on_c, 0, 82, 44
1, 59048, Note_on_c, 0, 80, 0
1, 59078, Note_on_c, 0, 80, 38
1, 59092, Note_on_c, 0, 82, 0
1, 59125, Note_on_c, 0, 82, 46
1, 59145, Note_on_c, 0, 80, 0
1, 59185, Note_on_c, 0, 80, 39
1, 59194, Note_on_c, 0, 82, 0
1, 59234, Note_on_c, 0, 66, 0
1, 59234, Note_on_c, 0, 56, 0
1, 59234, Note_on_c, 0, 60, 0
1, 59237, Note_on_c, 0, 63, 0
1, 59237, Note_on_c, 0, 56, 54
1, 59237, Note_on_c, 0, 82, 47
1, 59260, Note_on_c, 0, 80, 0
1, 59290, Note_on_c, 0, 80, 40
1, 59293, Note_on_c, 0, 61, 54
1, 59317, Note_on_c, 0, 82, 0
1, 59353, Note_on_c, 0, 65, 61
1, 59359, Note_on_c, 0, 82, 47
1, 59368, Note_on_c, 0, 80, 0
1, 59413, Note_on_c, 0, 80, 40
1, 59433, Note_on_c, 0, 82, 0
1, 59466, Note_on_c, 0, 82, 49
1, 59487, Note_on_c, 0, 80, 0
1, 59518, Note_on_c, 0, 80, 49
1, 59540, Note_on_c, 0, 82, 0
1, 59574, Note_on_c, 0, 82, 50
1, 59592, Note_on_c, 0, 80, 0
1, 59635, Note_on_c, 0, 80, 44
1, 59648, Note_on_c, 0, 82, 0
1, 59687, Note_on_c, 0, 82, 53
1, 59687, Note_on_c, 0, 65, 0
1, 59687, Note_on_c, 0, 61, 0
1, 59690, Note_on_c, 0, 56, 0
1, 59690, Note_on_c, 0, 56, 57
1, 59711, Note_on_c, 0, 80, 0
1, 59742, Note_on_c, 0, 80, 47
1, 59746, Note_on_c, 0, 60, 57
1, 59764, Note_on_c, 0, 82, 0
1, 59797, Note_on_c, 0, 63, 65
1, 59797, Note_on_c, 0, 82, 55
1, 59810, Note_on_c, 0, 80, 0
1, 59849, Note_on_c, 0, 80, 47
1, 59864, Note_on_c, 0, 82, 0
1, 59894, Note_on_c, 0, 82, 49
1, 59913, Note_on_c, 0, 80, 0
1, 59940, Note_on_c, 0, 80, 44
1, 59958, Note_on_c, 0, 82, 0
1, 59992, Note_on_c, 0, 82, 49
1, 60004, Note_on_c, 0, 80, 0
1, 60040, Note_on_c, 0, 80, 49
1, 60054, Note_on_c, 0, 82, 0
1, 60087, Note_on_c, 0, 82, 49
1, 60102, Note_on_c, 0, 80, 0
1, 60134, Note_on_c, 0, 80, 44
1, 60149, Note_on_c, 0, 82, 0
1, 60179, Note_on_c, 0, 82, 49
1, 60199, Note_on_c, 0, 80, 0
1, 60225, Note_on_c, 0, 80, 42
1, 60245, Note_on_c, 0, 82, 0
1, 60279, Note_on_c, 0, 82, 47
1, 60293, Note_on_c, 0, 80, 0
1, 60336, Note_on_c, 0, 80, 39
1, 60348, Note_on_c, 0, 82, 0
1, 60380, Note_on_c, 0, 82, 44
1, 60407, Note_on_c, 0, 80, 0
1, 60437, Note_on_c, 0, 63, 0
1, 60437, Note_on_c, 0, 60, 0
1, 60437, Note_on_c, 0, 56, 0
1, 60440, Note_on_c, 0, 53, 53
1, 60440, Note_on_c, 0, 80, 39
1, 60451, Note_on_c, 0, 82, 0
1, 60489, Note_on_c, 0, 59, 53
1, 60489, Note_on_c, 0, 82, 42
1, 60511, Note_on_c, 0, 80, 0
1, 60549, Note_on_c, 0, 80, 38
1, 60549, Note_on_c, 0, 62, 53
1, 60572, Note_on_c, 0, 82, 0
1, 60606, Note_on_c, 0, 82, 42
1, 60610, Note_on_c, 0, 65, 61
1, 60628, Note_on_c, 0, 80, 0
1, 60670, Note_on_c, 0, 80, 39
1, 60679, Note_on_c, 0, 82, 0
1, 60724, Note_on_c, 0, 82, 42
1, 60743, Note_on_c, 0, 80, 0
1, 60777, Note_on_c, 0, 80, 39
1, 60800, Note_on_c, 0, 82, 0
1, 60832, Note_on_c, 0, 82, 42
1, 60853, Note_on_c, 0, 80, 0
1, 60887, Note_on_c, 0, 80, 39
1, 60887, Note_on_c, 0, 65, 0
1, 60887, Note_on_c, 0, 53, 0
1, 60890, Note_on_c, 0, 59, 0
1, 60890, Note_on_c, 0, 62, 0
1, 60890, Note_on_c, 0, 56, 60
1, 60905, Note_on_c, 0, 82, 0
1, 60942, Note_on_c, 0, 82, 42
1, 60942, Note_on_c, 0, 60, 60
1, 60960, Note_on_c, 0, 80, 0
1, 60997, Note_on_c, 0, 63, 60
1, 61003, Note_on_c, 0, 80, 38
1, 61016, Note_on_c, 0, 82, 0
1, 61052, Note_on_c, 0, 80, 52
1, 61052, Note_on_c, 0, 66, 69
1, 61075, Note_on_c, 0, 80, 0
1, 61160, Note_on_c, 0, 80, 0
1, 61160, Note_on_c, 0, 82, 54
1, 61268, Note_on_c, 0, 82, 0
1, 61268, Note_on_c, 0, 84, 57
1, 61375, Note_on_c, 0, 84, 0
1, 61375, Note_on_c, 0, 85, 59
1, 61482, Note_on_c, 0, 85, 0
1, 61482, Note_on_c, 0, 87, 63
1, 61589, Note_on_c, 0, 87, 0
1, 61589, Note_on_c, 0, 89, 65
1, 61694, Note_on_c, 0, 89, 0
1, 61694, Note_on_c, 0, 90, 67
1, 61799, Note_on_c, 0, 90, 0
1, 61799, Note_on_c, 0, 92, 70
1, 61903, Note_on_c, 0, 92, 0
1, 61903, Note_on_c, 0, 94, 71
1, 62006, Note_on_c, 0, 94, 0
1, 62006, Note_on_c, 0, 92, 71
1, 62109, Note_on_c, 0, 92, 0
1, 62109, Note_on_c, 0, 90, 70
1, 62212, Note_on_c, 0, 90, 0
1, 62212, Note_on_c, 0, 89, 69
1, 62315, Note_on_c, 0, 89, 0
1, 62315, Note_on_c, 0, 87, 69
1, 62315, Note_on_c, 0, 66, 0
1, 62318, Note_on_c, 0, 56, 0
1, 62318, Note_on_c, 0, 60, 0
1, 62318, Note_on_c, 0, 63, 0
1, 62418, Note_on_c, 0, 87, 0
1, 62418, Note_on_c, 0, 85, 67
1, 62521, Note_on_c, 0, 85, 0
1, 62521, Note_on_c, 0, 84, 66
1, 62624, Note_on_c, 0, 84, 0
1, 62624, Note_on_c, 0, 82, 66
1, 62727, Note_on_c, 0, 82, 0
1, 62727, Note_on_c, 0, 80, 66
1, 62829, Note_on_c, 0, 80, 0
1, 62829, Note_on_c, 0, 78, 66
1, 62931, Note_on_c, 0, 78, 0
1, 62931, Note_on_c, 0, 77, 65
1, 63033, Note_on_c, 0, 77, 0
1, 63033, Note_on_c, 0, 75, 64
1, 63135, Note_on_c, 0, 75, 0
1, 63135, Note_on_c, 0, 73, 63
1, 63236, Note_on_c, 0, 73, 0
1, 63236, Note_on_c, 0, 72, 63
1, 63337, Note_on_c, 0, 72, 0
1, 63337, Note_on_c, 0, 70, 61
1, 63438, Note_on_c, 0, 70, 0
1, 63438, Note_on_c, 0, 68, 60
1, 63538, Note_on_c, 0, 68, 0
1, 63538, Note_on_c, 0, 66, 60
1, 63638, Note_on_c, 0, 66, 0
1, 63638, Note_on_c, 0, 65, 58
1, 63738, Note_on_c, 0, 65, 0
1, 63738, Note_on_c, 0, 63, 60
1, 63838, Note_on_c, 0, 63, 0
1, 63838, Note_on_c, 0, 61, 63
1, 63937, Note_on_c, 0, 61, 0
1, 63937, Note_on_c, 0, 60, 59
1, 64036, Note_on_c, 0, 60, 0
1, 64036, Note_on_c, 0, 58, 60
1, 64135, Note_on_c, 0, 58, 0
1, 64135, Note_on_c, 0, 56, 63
1, 64233, Note_on_c, 0, 56, 0
1, 64233, Note_on_c, 0, 54, 64
1, 64331, Note_on_c, 0, 54, 0
1, 64331, Note_on_c, 0, 53, 66
1, 64410, Note_on_c, 0, 53, 0
1, 64410, Note_on_c, 0, 51, 67
1, 64491, Note_on_c, 0, 51, 0
1, 64491, Note_on_c, 0, 49, 69
1, 64575, Note_on_c, 0, 49, 0
1, 64575, Note_on_c, 0, 48, 70
1, 64662, Note_on_c, 0, 48, 0
1, 64662, Note_on_c, 0, 46, 72
1, 64752, Note_on_c, 0, 46, 0
1, 64752, Note_on_c, 0, 32, 84
1, 64752, Note_on_c, 0, 44, 84
1, 65679, Note_on_c, 0, 44, 0
1, 65679, Note_on_c, 0, 32, 0
1, 66142, Note_on_c, 0, 68, 46
1, 66809, Note_on_c, 0, 70, 43
1, 66846, Note_on_c, 0, 68, 0
1, 67031, Note_on_c, 0, 68, 43
1, 67072, Note_on_c, 0, 70, 0
1, 67520, Note_on_c, 0, 60, 34
1, 67520, Note_on_c, 0, 54, 31
1, 67520, Note_on_c, 0, 51, 31
1, 67523, Note_on_c, 0, 44, 31
1, 68816, Note_on_c, 0, 60, 0
1, 68816, Note_on_c, 0, 68, 0
1, 68816, Note_on_c, 0, 68, 46
1, 68819, Note_on_c, 0, 44, 0
1, 68819, Note_on_c, 0, 51, 0
1, 68819, Note_on_c, 0, 54, 0
1, 69477, Note_on_c, 0, 70, 43
1, 69513, Note_on_c, 0, 68, 0
1, 69697, Note_on_c, 0, 68, 43
1, 69735, Note_on_c, 0, 70, 0
1, 70160, Note_on_c, 0, 61, 34
1, 70160, Note_on_c, 0, 53, 32
1, 70160, Note_on_c, 0, 44, 32
1, 71456, Note_on_c, 0, 61, 0
1, 71456, Note_on_c, 0, 68, 0
1, 71456, Note_on_c, 0, 68, 46
1, 71459, Note_on_c, 0, 44, 0
1, 71459, Note_on_c, 0, 53, 0
1, 72117, Note_on_c, 0, 70, 40
1, 72153, Note_on_c, 0, 68, 0
1, 72337, Note_on_c, 0, 68, 40
1, 72375, Note_on_c, 0, 70, 0
1, 72795, Note_on_c, 0, 62, 35
1, 72795, Note_on_c, 0, 47, 30
1, 72795, Note_on_c, 0, 53, 30
1, 72798, Note_on_c, 0, 44, 30
1, 73751, Note_on_c, 0, 62, 0
1, 73751, Note_on_c, 0, 63, 38
1, 73751, Note_on_c, 0, 44, 0
1, 73754, Note_on_c, 0, 53, 0
1, 73754, Note_on_c, 0, 47, 0
1, 73754, Note_on_c, 0, 48, 30
1, 73757, Note_on_c, 0, 54, 30
1, 73757, Note_on_c, 0, 44, 30
1, 74320, Note_on_c, 0, 63, 0
1, 74320, Note_on_c, 0, 68, 0
1, 74320, Note_on_c, 0, 60, 40
1, 74323, Note_on_c, 0, 66, 40
1, 74323, Note_on_c, 0, 68, 40
1, 74323, Note_on_c, 0, 44, 0
1, 74326, Note_on_c, 0, 54, 0
1, 74326, Note_on_c, 0, 48, 0
1, 74326, Note_on_c, 0, 56, 29
1, 74329, Note_on_c, 0, 51, 29
1, 74329, Note_on_c, 0, 44, 29
1, 76842, Note_on_c, 0, 68, 0
1, 76842, Note_on_c, 0, 66, 0
1, 76842, Note_on_c, 0, 60, 0
1, 76845, Note_on_c, 0, 44, 0
1, 76845, Note_on_c, 0, 51, 0
1, 76845, Note_on_c, 0, 56, 0
1, 77330, Note_on_c, 0, 68, 40
1, 77330, Note_on_c, 0, 65, 40
1, 77330, Note_on_c, 0, 56, 32
1, 77333, Note_on_c, 0, 61, 32
1, 77333, Note_on_c, 0, 49, 32
1, 77991, Note_on_c, 0, 70, 38
1, 77991, Note_on_c, 0, 66, 38
1, 78028, Note_on_c, 0, 65, 0
1, 78028, Note_on_c, 0, 68, 0
1, 78211, Note_on_c, 0, 68, 36
1, 78211, Note_on_c, 0, 65, 36
1, 78211, Note_on_c, 0, 49, 0
1, 78214, Note_on_c, 0, 61, 0
1, 78214, Note_on_c, 0, 56, 0
1, 78214, Note_on_c, 0, 61, 28
1, 78217, Note_on_c, 0, 56, 28
1, 78217, Note_on_c, 0, 49, 28
1, 78251, Note_on_c, 0, 70, 0
1, 78251, Note_on_c, 0, 66, 0
1, 78685, Note_on_c, 0, 61, 0
1, 78689, Note_on_c, 0, 65, 0
1, 78689, Note_on_c, 0, 61, 37
1, 78689, Note_on_c, 0, 65, 37
1, 78692, Note_on_c, 0, 49, 0
1, 78692, Note_on_c, 0, 56, 0
1, 78692, Note_on_c, 0, 56, 28
1, 78695, Note_on_c, 0, 49, 28
1, 78726, Note_on_c, 0, 68, 0
1, 79974, Note_on_c, 0, 65, 0
1, 79974, Note_on_c, 0, 61, 0
1, 79974, Note_on_c, 0, 49, 0
1, 79977, Note_on_c, 0, 56, 0
1, 80011, Note_on_c, 0, 68, 40
1, 80011, Note_on_c, 0, 65, 40
1, 80011, Note_on_c, 0, 61, 32
1, 80014, Note_on_c, 0, 56, 32
1, 80014, Note_on_c, 0, 49, 32
1, 80671, Note_on_c, 0, 66, 38
1, 80671, Note_on_c, 0, 70, 38
1, 80708, Note_on_c, 0, 65, 0
1, 80708, Note_on_c, 0, 68, 0
1, 80892, Note_on_c, 0, 65, 36
1, 80892, Note_on_c, 0, 68, 36
1, 80892, Note_on_c, 0, 49, 0
1, 80895, Note_on_c, 0, 56, 0
1, 80895, Note_on_c, 0, 61, 0
1, 80895, Note_on_c, 0, 49, 29
1, 80898, Note_on_c, 0, 61, 29
1, 80898, Note_on_c, 0, 56, 29
1, 80931, Note_on_c, 0, 66, 0
1, 80931, Note_on_c, 0, 70, 0
1, 81361, Note_on_c, 0, 61, 0
1, 81365, Note_on_c, 0, 65, 0
1, 81365, Note_on_c, 0, 61, 36
1, 81365, Note_on_c, 0, 65, 36
1, 81368, Note_on_c, 0, 56, 0
1, 81368, Note_on_c, 0, 49, 0
1, 81368, Note_on_c, 0, 56, 29
1, 81371, Note_on_c, 0, 49, 29
1, 81404, Note_on_c, 0, 68, 0
1, 82682, Note_on_c, 0, 65, 0
1, 82682, Note_on_c, 0, 61, 0
1, 82682, Note_on_c, 0, 49, 0
1, 82685, Note_on_c, 0, 56, 0
1, 82718, Note_on_c, 0, 75, 53
1, 82718, Note_on_c, 0, 66, 53
1, 82718, Note_on_c, 0, 60, 43
1, 82721, Note_on_c, 0, 56, 43
1, 83599, Note_on_c, 0, 66, 0
1, 83599, Note_on_c, 0, 75, 0
1, 83599, Note_on_c, 0, 66, 42
1, 83602, Note_on_c, 0, 75, 51
1, 83602, Note_on_c, 0, 56, 0
1, 83602, Note_on_c, 0, 60, 0
1, 83605, Note_on_c, 0, 60, 42
1, 83605, Note_on_c, 0, 56, 42
1, 83902, Note_on_c, 0, 75, 0
1, 83902, Note_on_c, 0, 60, 0
1, 83940, Note_on_c, 0, 72, 42
1, 83940, Note_on_c, 0, 63, 35
1, 84065, Note_on_c, 0, 72, 0
1, 84065, Note_on_c, 0, 66, 0
1, 84065, Note_on_c, 0, 66, 42
1, 84068, Note_on_c, 0, 72, 42
1, 84068, Note_on_c, 0, 63, 0
1, 84068, Note_on_c, 0, 56, 0
1, 84071, Note_on_c, 0, 56, 35
1, 84071, Note_on_c, 0, 63, 35
1, 85349, Note_on_c, 0, 72, 0
1, 85349, Note_on_c, 0, 66, 0
1, 85349, Note_on_c, 0, 63, 0
1, 85352, Note_on_c, 0, 56, 0
1, 85386, Note_on_c, 0, 65, 48
1, 85386, Note_on_c, 0, 73, 48
1, 85386, Note_on_c, 0, 61, 37
1, 85389, Note_on_c, 0, 49, 37
1, 86267, Note_on_c, 0, 73, 0
1, 86267, Note_on_c, 0, 65, 0
1, 86267, Note_on_c, 0, 65, 42
1, 86270, Note_on_c, 0, 73, 42
1, 86270, Note_on_c, 0, 49, 0
1, 86270, Note_on_c, 0, 61, 0
1, 86273, Note_on_c, 0, 61, 35
1, 86273, Note_on_c, 0, 49, 35
1, 86569, Note_on_c, 0, 73, 0
1, 86607, Note_on_c, 0, 68, 38
1, 86729, Note_on_c, 0, 68, 0
1, 86729, Note_on_c, 0, 65, 0
1, 86729, Note_on_c, 0, 68, 38
1, 86732, Note_on_c, 0, 65, 38
1, 86732, Note_on_c, 0, 49, 0
1, 86732, Note_on_c, 0, 61, 0
1, 86735, Note_on_c, 0, 61, 32
1, 86735, Note_on_c, 0, 49, 32
1, 88014, Note_on_c, 0, 65, 0
1, 88014, Note_on_c, 0, 68, 0
1, 88014, Note_on_c, 0, 49, 0
1, 88017, Note_on_c, 0, 61, 0
1, 88051, Note_on_c, 0, 66, 48
1, 88051, Note_on_c, 0, 70, 48
1, 88051, Note_on_c, 0, 54, 42
1, 88054, Note_on_c, 0, 61, 42
1, 88932, Note_on_c, 0, 70, 0
1, 88932, Note_on_c, 0, 66, 0
1, 88932, Note_on_c, 0, 70, 52
1, 88935, Note_on_c, 0, 66, 52
1, 88935, Note_on_c, 0, 61, 0
1, 88935, Note_on_c, 0, 54, 0
1, 88938, Note_on_c, 0, 54, 43
1, 88938, Note_on_c, 0, 61, 43
1, 89395, Note_on_c, 0, 66, 0
1, 89395, Note_on_c, 0, 70, 0
1, 89395, Note_on_c, 0, 73, 54
1, 89398, Note_on_c, 0, 70, 54
1, 89398, Note_on_c, 0, 61, 0
1, 89398, Note_on_c, 0, 54, 0
1, 89401, Note_on_c, 0, 54, 48
1, 89401, Note_on_c, 0, 61, 48
1, 90056, Note_on_c, 0, 68, 49
1, 90056, Note_on_c, 0, 72, 49
1, 90091, Note_on_c, 0, 70, 0
1, 90091, Note_on_c, 0, 73, 0
1, 90266, Note_on_c, 0, 66, 54
1, 90266, Note_on_c, 0, 70, 54
1, 90266, Note_on_c, 0, 61, 0
1, 90269, Note_on_c, 0, 54, 0
1, 90269, Note_on_c, 0, 61, 44
1, 90269, Note_on_c, 0, 54, 44
1, 90304, Note_on_c, 0, 68, 0
1, 90304, Note_on_c, 0, 72, 0
1, 90724, Note_on_c, 0, 66, 0
1, 90724, Note_on_c, 0, 70, 0
1, 90724, Note_on_c, 0, 68, 53
1, 90727, Note_on_c, 0, 65, 53
1, 90727, Note_on_c, 0, 54, 0
1, 90727, Note_on_c, 0, 61, 0
1, 90730, Note_on_c, 0, 61, 39
1, 90730, Note_on_c, 0, 49, 39
1, 91385, Note_on_c, 0, 66, 43
1, 91385, Note_on_c, 0, 70, 43
1, 91420, Note_on_c, 0, 65, 0
1, 91420, Note_on_c, 0, 68, 0
1, 91595, Note_on_c, 0, 68, 46
1, 91595, Note_on_c, 0, 65, 46
1, 91595, Note_on_c, 0, 49, 0
1, 91598, Note_on_c, 0, 61, 0
1, 91598, Note_on_c, 0, 49, 38
1, 91598, Note_on_c, 0, 61, 38
1, 91633, Note_on_c, 0, 66, 0
1, 91633, Note_on_c, 0, 70, 0
1, 92054, Note_on_c, 0, 61, 0
1, 92058, Note_on_c, 0, 65, 0
1, 92058, Note_on_c, 0, 61, 43
1, 92058, Note_on_c, 0, 65, 43
1, 92061, Note_on_c, 0, 49, 0
1, 92061, Note_on_c, 0, 56, 36
1, 92061, Note_on_c, 0, 49, 36
1, 92095, Note_on_c, 0, 68, 0
1, 93343, Note_on_c, 0, 65, 0
1, 93343, Note_on_c, 0, 61, 0
1, 93343, Note_on_c, 0, 49, 0
1, 93346, Note_on_c, 0, 56, 0
1, 93379, Note_on_c, 0, 70, 48
1, 93379, Note_on_c, 0, 66, 48
1, 93379, Note_on_c, 0, 61, 42
1, 93382, Note_on_c, 0, 54, 42
1, 94260, Note_on_c, 0, 66, 0
1, 94260, Note_on_c, 0, 70, 0
1, 94260, Note_on_c, 0, 66, 52
1, 94263, Note_on_c, 0, 70, 52
1, 94263, Note_on_c, 0, 54, 0
1, 94263, Note_on_c, 0, 61, 0
1, 94266, Note_on_c, 0, 54, 43
1, 94266, Note_on_c, 0, 61, 43
1, 94723, Note_on_c, 0, 70, 0
1, 94723, Note_on_c, 0, 66, 0
1, 94723, Note_on_c, 0, 70, 54
1, 94726, Note_on_c, 0, 73, 54
1, 94726, Note_on_c, 0, 61, 0
1, 94726, Note_on_c, 0, 54, 0
1, 94729, Note_on_c, 0, 54, 48
1, 94729, Note_on_c, 0, 61, 48
1, 95384, Note_on_c, 0, 72, 49
1, 95384, Note_on_c, 0, 68, 49
1, 95419, Note_on_c, 0, 73, 0
1, 95419, Note_on_c, 0, 70, 0
1, 95594, Note_on_c, 0, 66, 54
1, 95594, Note_on_c, 0, 70, 54
1, 95594, Note_on_c, 0, 61, 0
1, 95597, Note_on_c, 0, 54, 0
1, 95597, Note_on_c, 0, 61, 44
1, 95597, Note_on_c, 0, 54, 44
1, 95632, Note_on_c, 0, 72, 0
1, 95632, Note_on_c, 0, 68, 0
1, 96052, Note_on_c, 0, 66, 0
1, 96052, Note_on_c, 0, 70, 0
1, 96052, Note_on_c, 0, 68, 53
1, 96055, Note_on_c, 0, 65, 53
1, 96055, Note_on_c, 0, 54, 0
1, 96055, Note_on_c, 0, 61, 0
1, 96058, Note_on_c, 0, 61, 40
1, 96058, Note_on_c, 0, 49, 40
1, 96700, Note_on_c, 0, 70, 43
1, 96700, Note_on_c, 0, 66, 43
1, 96735, Note_on_c, 0, 65, 0
1, 96735, Note_on_c, 0, 68, 0
1, 96910, Note_on_c, 0, 68, 46
1, 96910, Note_on_c, 0, 65, 46
1, 96910, Note_on_c, 0, 49, 0
1, 96913, Note_on_c, 0, 61, 0
1, 96913, Note_on_c, 0, 61, 39
1, 96913, Note_on_c, 0, 49, 39
1, 96949, Note_on_c, 0, 70, 0
1, 96949, Note_on_c, 0, 66, 0
1, 97370, Note_on_c, 0, 61, 0
1, 97374, Note_on_c, 0, 65, 0
1, 97374, Note_on_c, 0, 65, 43
1, 97374, Note_on_c, 0, 61, 43
1, 97377, Note_on_c, 0, 49, 0
1, 97377, Note_on_c, 0, 56, 36
1, 97377, Note_on_c, 0, 49, 36
1, 97410, Note_on_c, 0, 68, 0
1, 98658, Note_on_c, 0, 61, 0
1, 98658, Note_on_c, 0, 65, 0
1, 98658, Note_on_c, 0, 49, 0
1, 98661, Note_on_c, 0, 56, 0
1, 98695, Note_on_c, 0, 66, 54
1, 98695, Note_on_c, 0, 75, 54
1, 98695, Note_on_c, 0, 56, 43
1, 98698, Note_on_c, 0, 60, 43
1, 99576, Note_on_c, 0, 75, 0
1, 99576, Note_on_c, 0, 66, 0
1, 99576, Note_on_c, 0, 75, 54
1, 99579, Note_on_c, 0, 66, 54
1, 99579, Note_on_c, 0, 60, 0
1, 99579, Note_on_c, 0, 56, 0
1, 99582, Note_on_c, 0, 60, 44
1, 99582, Note_on_c, 0, 56, 44
1, 100049, Note_on_c, 0, 66, 0
1, 100049, Note_on_c, 0, 75, 0
1, 100049, Note_on_c, 0, 66, 60
1, 100052, Note_on_c, 0, 78, 60
1, 100052, Note_on_c, 0, 56, 0
1, 100052, Note_on_c, 0, 60, 0
1, 100055, Note_on_c, 0, 60, 51
1, 100055, Note_on_c, 0, 56, 51
1, 100710, Note_on_c, 0, 75, 55
1, 100746, Note_on_c, 0, 78, 0
1, 100930, Note_on_c, 0, 66, 0
1, 100930, Note_on_c, 0, 66, 55
1, 100930, Note_on_c, 0, 72, 55
1, 100933, Note_on_c, 0, 56, 0
1, 100933, Note_on_c, 0, 60, 0
1, 100933, Note_on_c, 0, 56, 50
1, 100936, Note_on_c, 0, 63, 50
1, 100969, Note_on_c, 0, 75, 0
1, 101403, Note_on_c, 0, 72, 0
1, 101403, Note_on_c, 0, 66, 0
1, 101403, Note_on_c, 0, 65, 52
1, 101406, Note_on_c, 0, 73, 52
1, 101406, Note_on_c, 0, 63, 0
1, 101406, Note_on_c, 0, 56, 0
1, 101409, Note_on_c, 0, 56, 36
1, 101409, Note_on_c, 0, 61, 36
1, 101409, Note_on_c, 0, 49, 36
1, 102842, Note_on_c, 0, 68, 38
1, 102842, Note_on_c, 0, 77, 38
1, 102879, Note_on_c, 0, 73, 0
1, 103723, Note_on_c, 0, 65, 0
1, 103723, Note_on_c, 0, 68, 0
1, 103723, Note_on_c, 0, 77, 0
1, 103726, Note_on_c, 0, 49, 0
1, 103726, Note_on_c, 0, 61, 0
1, 103726, Note_on_c, 0, 56, 0
1, 104164, Note_on_c, 0, 73, 43
1, 104164, Note_on_c, 0, 65, 43
1, 104164, Note_on_c, 0, 49, 35
1, 104167, Note_on_c, 0, 61, 35
1, 104167, Note_on_c, 0, 56, 35
1, 104824, Note_on_c, 0, 68, 40
1, 104861, Note_on_c, 0, 73, 0
1, 105045, Note_on_c, 0, 65, 0
1, 105045, Note_on_c, 0, 65, 40
1, 105045, Note_on_c, 0, 61, 40
1, 105048, Note_on_c, 0, 56, 0
1, 105048, Note_on_c, 0, 61, 0
1, 105048, Note_on_c, 0, 49, 0
1, 105051, Note_on_c, 0, 56, 31
1, 105051, Note_on_c, 0, 49, 31
1, 105083, Note_on_c, 0, 68, 0
1, 105503, Note_on_c, 0, 61, 0
1, 105503, Note_on_c, 0, 65, 0
1, 105503, Note_on_c, 0, 65, 44
1, 105506, Note_on_c, 0, 60, 44
1, 105506, Note_on_c, 0, 68, 44
1, 105506, Note_on_c, 0, 49, 0
1, 105509, Note_on_c, 0, 56, 0
1, 105509, Note_on_c, 0, 44, 36
1, 105509, Note_on_c, 0, 56, 36
1, 106164, Note_on_c, 0, 65, 0
1, 106164, Note_on_c, 0, 63, 39
1, 106164, Note_on_c, 0, 66, 39
1, 106200, Note_on_c, 0, 68, 0
1, 106384, Note_on_c, 0, 60, 0
1, 106384, Note_on_c, 0, 63, 0
1, 106384, Note_on_c, 0, 63, 37
1, 106387, Note_on_c, 0, 60, 37
1, 106387, Note_on_c, 0, 56, 0
1, 106387, Note_on_c, 0, 44, 0
1, 106390, Note_on_c, 0, 54, 31
1, 106390, Note_on_c, 0, 44, 31
1, 106425, Note_on_c, 0, 66, 0
1, 106886, Note_on_c, 0, 60, 0
1, 106886, Note_on_c, 0, 63, 0
1, 106886, Note_on_c, 0, 44, 0
1, 106889, Note_on_c, 0, 54, 0
1, 106909, Note_on_c, 0, 68, 31
1, 106909, Note_on_c, 0, 65, 31
1, 106909, Note_on_c, 0, 77, 31
1, 106912, Note_on_c, 0, 61, 21
1, 106912, Note_on_c, 0, 56, 21
1, 106912, Note_on_c, 0, 49, 21
1, 107570, Note_on_c, 0, 73, 28
1, 107606, Note_on_c, 0, 77, 0
1, 107790, Note_on_c, 0, 68, 0
1, 107790, Note_on_c, 0, 65, 0
1, 107790, Note_on_c, 0, 65, 28
1, 107793, Note_on_c, 0, 68, 28
1, 107793, Note_on_c, 0, 49, 0
1, 107793, Note_on_c, 0, 56, 0
1, 107796, Note_on_c, 0, 61, 0
1, 107796, Note_on_c, 0, 61, 19
1, 107796, Note_on_c, 0, 56, 19
1, 107799, Note_on_c, 0, 49, 19
1, 107827, Note_on_c, 0, 73, 0
1, 108010, Note_on_c, 0, 65, 28
1, 108050, Note_on_c, 0, 68, 0
1, 108249, Note_on_c, 0, 65, 0
1, 108249, Note_on_c, 0, 65, 0
1, 108249, Note_on_c, 0, 60, 30
1, 108252, Note_on_c, 0, 70, 30
1, 108252, Note_on_c, 0, 66, 30
1, 108252, Note_on_c, 0, 49, 0
1, 108255, Note_on_c, 0, 56, 0
1, 108255, Note_on_c, 0, 61, 0
1, 108255, Note_on_c, 0, 44, 23
1, 108258, Note_on_c, 0, 56, 23
1, 108258, Note_on_c, 0, 51, 23
1, 108903, Note_on_c, 0, 68, 29
1, 108940, Note_on_c, 0, 70, 0
1, 109122, Note_on_c, 0, 60, 0
1, 109122, Note_on_c, 0, 66, 0
1, 109122, Note_on_c, 0, 60, 29
1, 109125, Note_on_c, 0, 63, 29
1, 109125, Note_on_c, 0, 51, 0
1, 109125, Note_on_c, 0, 56, 0
1, 109128, Note_on_c, 0, 44, 0
1, 109128, Note_on_c, 0, 44, 21
1, 109128, Note_on_c, 0, 54, 21
1, 109158, Note_on_c, 0, 68, 0
1, 109340, Note_on_c, 0, 65, 29
1, 109378, Note_on_c, 0, 63, 0
1, 109571, Note_on_c, 0, 65, 0
1, 109571, Note_on_c, 0, 60, 0
1, 109571, Note_on_c, 0, 61, 27
1, 109574, Note_on_c, 0, 54, 0
1, 109574, Note_on_c, 0, 44, 0
1, 109574, Note_on_c, 0, 49, 21
1, 109577, Note_on_c, 0, 53, 21
1, 109828, Control_c, 0, 64, 127
1, 110034, Note_on_c, 0, 53, 14
1, 110034, Note_on_c, 0, 53, 0
1, 110034, Note_on_c, 0, 49, 0
1, 110037, Note_on_c, 0, 44, 12
1, 110037, Note_on_c, 0, 49, 12
1, 110037, Note_on_c, 0, 37, 12
1, 110498, Note_on_c, 0, 53, 0
1, 110498, Note_on_c, 0, 53, 14
1, 110498, Note_on_c, 0, 37, 0
1, 110501, Note_on_c, 0, 49, 0
1, 110501, Note_on_c, 0, 44, 0
1, 110501, Note_on_c, 0, 49, 12
1, 110504, Note_on_c, 0, 44, 12
1, 110504, Note_on_c, 0, 37, 12
1, 110961, Note_on_c, 0, 53, 0
1, 110961, Note_on_c, 0, 53, 14
1, 110961, Note_on_c, 0, 37, 0
1, 110964, Note_on_c, 0, 44, 0
1, 110964, Note_on_c, 0, 49, 0
1, 110964, Note_on_c, 0, 44, 12
1, 110967, Note_on_c, 0, 37, 12
1, 110967, Note_on_c, 0, 49, 12
1, 111424, Control_c, 0, 64, 0
1, 111887, Note_on_c, 0, 53, 0
1, 111887, Note_on_c, 0, 61, 0
1, 111887, Note_on_c, 0, 49, 0
1, 111890, Note_on_c, 0, 37, 0
1, 111890, Note_on_c, 0, 44, 0
1, 112350, Note_on_c, 0, 56, 39
1, 112350, Control_c, 0, 64, 127
1, 112350, Note_on_c, 0, 49, 27
1, 112353, Note_on_c, 0, 37, 27
1, 112571, Note_on_c, 0, 37, 0
1, 112571, Note_on_c, 0, 49, 0
1, 112571, Note_on_c, 0, 68, 23
1, 112574, Note_on_c, 0, 61, 23
1, 112574, Note_on_c, 0, 65, 23
1, 113011, Note_on_c, 0, 56, 0
1, 113011, Note_on_c, 0, 58, 36
1, 113011, Note_on_c, 0, 65, 0
1, 113014, Note_on_c, 0, 61, 0
1, 113014, Note_on_c, 0, 68, 0
1, 113014, Note_on_c, 0, 61, 19
1, 113017, Note_on_c, 0, 68, 19
1, 113017, Note_on_c, 0, 65, 19
1, 113231, Note_on_c, 0, 58, 0
1, 113231, Note_on_c, 0, 56, 37
1, 113451, Note_on_c, 0, 65, 0
1, 113451, Note_on_c, 0, 68, 0
1, 113451, Note_on_c, 0, 61, 0
1, 113454, Note_on_c, 0, 65, 23
1, 113454, Note_on_c, 0, 61, 23
1, 113454, Note_on_c, 0, 68, 23
1, 113693, Note_on_c, 0, 56, 0
1, 113693, Note_on_c, 0, 53, 34
1, 113693, Note_on_c, 0, 68, 0
1, 113696, Note_on_c, 0, 61, 0
1, 113696, Note_on_c, 0, 65, 0
1, 113696, Note_on_c, 0, 37, 27
1, 113699, Note_on_c, 0, 49, 27
1, 113732, Control_c, 0, 64, 0
1, 113823, Control_c, 0, 64, 127
1, 113913, Note_on_c, 0, 49, 0
1, 113913, Note_on_c, 0, 37, 0
1, 113913, Note_on_c, 0, 61, 19
1, 113916, Note_on_c, 0, 68, 19
1, 113916, Note_on_c, 0, 65, 19
1, 114354, Note_on_c, 0, 65, 0
1, 114354, Note_on_c, 0, 68, 0
1, 114354, Note_on_c, 0, 61, 0
1, 114357, Note_on_c, 0, 61, 19
1, 114357, Note_on_c, 0, 65, 19
1, 114357, Note_on_c, 0, 68, 19
1, 114794, Note_on_c, 0, 68, 0
1, 114794, Note_on_c, 0, 65, 0
1, 114794, Note_on_c, 0, 61, 0
1, 114797, Note_on_c, 0, 68, 19
1, 114797, Note_on_c, 0, 65, 19
1, 114797, Note_on_c, 0, 61, 19
1, 114878, Control_c, 0, 64, 0
1, 115033, Note_on_c, 0, 53, 0
1, 115033, Note_on_c, 0, 56, 38
1, 115033, Note_on_c, 0, 61, 0
1, 115036, Note_on_c, 0, 65, 0
1, 115036, Note_on_c, 0, 68, 0
1, 115036, Note_on_c, 0, 49, 27
1, 115039, Control_c, 0, 64, 127
1, 115039, Note_on_c, 0, 37, 27
1, 115253, Note_on_c, 0, 37, 0
1, 115253, Note_on_c, 0, 49, 0
1, 115253, Note_on_c, 0, 61, 23
1, 115256, Note_on_c, 0, 65, 23
1, 115256, Note_on_c, 0, 68, 23
1, 115694, Note_on_c, 0, 56, 0
1, 115694, Note_on_c, 0, 58, 36
1, 115694, Note_on_c, 0, 68, 0
1, 115697, Note_on_c, 0, 65, 0
1, 115697, Note_on_c, 0, 61, 0
1, 115697, Note_on_c, 0, 68, 19
1, 115700, Note_on_c, 0, 65, 19
1, 115700, Note_on_c, 0, 61, 19
1, 115914, Note_on_c, 0, 58, 0
1, 115914, Note_on_c, 0, 56, 39
1, 116134, Note_on_c, 0, 61, 0
1, 116134, Note_on_c, 0, 65, 0
1, 116134, Note_on_c, 0, 68, 0
1, 116137, Note_on_c, 0, 65, 23
1, 116137, Note_on_c, 0, 68, 23
1, 116137, Note_on_c, 0, 61, 23
1, 116371, Note_on_c, 0, 56, 0
1, 116371, Note_on_c, 0, 53, 37
1, 116371, Note_on_c, 0, 61, 0
1, 116374, Note_on_c, 0, 68, 0
1, 116374, Note_on_c, 0, 65, 0
1, 116374, Note_on_c, 0, 37, 27
1, 116377, Note_on_c, 0, 49, 27
1, 116540, Control_c, 0, 64, 0
1, 116591, Note_on_c, 0, 49, 0
1, 116591, Note_on_c, 0, 37, 0
1, 116591, Note_on_c, 0, 68, 19
1, 116594, Note_on_c, 0, 65, 19
1, 116594, Note_on_c, 0, 61, 19
1, 116617, Control_c, 0, 64, 127
1, 117031, Note_on_c, 0, 61, 0
1, 117031, Note_on_c, 0, 65, 0
1, 117031, Note_on_c, 0, 68, 0
1, 117034, Note_on_c, 0, 65, 19
1, 117034, Note_on_c, 0, 68, 19
1, 117034, Note_on_c, 0, 61, 19
1, 117472, Note_on_c, 0, 61, 0
1, 117472, Note_on_c, 0, 68, 0
1, 117472, Note_on_c, 0, 65, 0
1, 117475, Note_on_c, 0, 65, 19
1, 117475, Control_c, 0, 64, 0
1, 117475, Note_on_c, 0, 61, 19
1, 117478, Note_on_c, 0, 68, 19
1, 117706, Note_on_c, 0, 53, 0
1, 117706, Note_on_c, 0, 63, 46
1, 117706, Note_on_c, 0, 68, 0
1, 117709, Note_on_c, 0, 61, 0
1, 117709, Note_on_c, 0, 65, 0
1, 117709, Control_c, 0, 64, 127
1, 117712, Note_on_c, 0, 44, 30
1, 117712, Note_on_c, 0, 32, 30
1, 117926, Note_on_c, 0, 32, 0
1, 117926, Note_on_c, 0, 44, 0
1, 117926, Note_on_c, 0, 66, 25
1, 117929, Note_on_c, 0, 68, 25
1, 118367, Note_on_c, 0, 68, 0
1, 118367, Note_on_c, 0, 66, 0
1, 118367, Note_on_c, 0, 68, 21
1, 118370, Note_on_c, 0, 66, 21
1, 118587, Note_on_c, 0, 63, 0
1, 118587, Note_on_c, 0, 63, 43
1, 118807, Note_on_c, 0, 66, 0
1, 118807, Note_on_c, 0, 68, 0
1, 118807, Note_on_c, 0, 66, 23
1, 118810, Note_on_c, 0, 68, 23
1, 118925, Note_on_c, 0, 63, 0
1, 118925, Note_on_c, 0, 60, 38
1, 119044, Note_on_c, 0, 60, 0
1, 119044, Note_on_c, 0, 60, 38
1, 119044, Note_on_c, 0, 68, 0
1, 119047, Note_on_c, 0, 66, 0
1, 119047, Note_on_c, 0, 32, 31
1, 119047, Note_on_c, 0, 44, 31
1, 119089, Control_c, 0, 64, 0
1, 119141, Control_c, 0, 64, 127
1, 119264, Note_on_c, 0, 44, 0
1, 119264, Note_on_c, 0, 32, 0
1, 119264, Note_on_c, 0, 68, 26
1, 119267, Note_on_c, 0, 66, 26
1, 119704, Note_on_c, 0, 66, 0
1, 119704, Note_on_c, 0, 68, 0
1, 119704, Note_on_c, 0, 66, 24
1, 119707, Note_on_c, 0, 68, 24
1, 120145, Note_on_c, 0, 68, 0
1, 120145, Note_on_c, 0, 66, 0
1, 120145, Note_on_c, 0, 68, 27
1, 120148, Note_on_c, 0, 66, 27
1, 120249, Control_c, 0, 64, 0
1, 120381, Note_on_c, 0, 60, 0
1, 120381, Note_on_c, 0, 61, 52
1, 120381, Note_on_c, 0, 66, 0
1, 120384, Note_on_c, 0, 68, 0
1, 120384, Control_c, 0, 64, 127
1, 120384, Note_on_c, 0, 49, 32
1, 120387, Note_on_c, 0, 37, 32
1, 120601, Note_on_c, 0, 37, 0
1, 120601, Note_on_c, 0, 49, 0
1, 120601, Note_on_c, 0, 68, 28
1, 120604, Note_on_c, 0, 65, 28
1, 121042, Note_on_c, 0, 65, 0
1, 121042, Note_on_c, 0, 68, 0
1, 121042, Note_on_c, 0, 65, 24
1, 121045, Note_on_c, 0, 68, 24
1, 121262, Note_on_c, 0, 61, 0
1, 121262, Note_on_c, 0, 61, 50
1, 121482, Note_on_c, 0, 68, 0
1, 121482, Note_on_c, 0, 65, 0
1, 121482, Note_on_c, 0, 65, 28
1, 121485, Note_on_c, 0, 68, 28
1, 121601, Note_on_c, 0, 61, 0
1, 121601, Note_on_c, 0, 56, 42
1, 121719, Note_on_c, 0, 56, 0
1, 121719, Note_on_c, 0, 56, 42
1, 121719, Note_on_c, 0, 68, 0
1, 121722, Note_on_c, 0, 65, 0
1, 121722, Note_on_c, 0, 37, 31
1, 121722, Note_on_c, 0, 49, 31
1, 121739, Control_c, 0, 64, 0
1, 121809, Control_c, 0, 64, 127
1, 121939, Note_on_c, 0, 49, 0
1, 121939, Note_on_c, 0, 37, 0
1, 121939, Note_on_c, 0, 68, 27
1, 121942, Note_on_c, 0, 65, 27
1, 122380, Note_on_c, 0, 65, 0
1, 122380, Note_on_c, 0, 68, 0
1, 122380, Note_on_c, 0, 68, 28
1, 122383, Note_on_c, 0, 65, 28
1, 122820, Note_on_c, 0, 65, 0
1, 122820, Note_on_c, 0, 68, 0
1, 122820, Note_on_c, 0, 65, 28
1, 122823, Note_on_c, 0, 68, 28
1, 122923, Control_c, 0, 64, 0
1, 123054, Note_on_c, 0, 56, 0
1, 123054, Note_on_c, 0, 58, 60
1, 123054, Note_on_c, 0, 68, 0
1, 123057, Note_on_c, 0, 65, 0
1, 123057, Note_on_c, 0, 30, 37
1, 123057, Note_on_c, 0, 42, 37
1, 123060, Control_c, 0, 64, 127
1, 123274, Note_on_c, 0, 42, 0
1, 123274, Note_on_c, 0, 30, 0
1, 123274, Note_on_c, 0, 61, 29
1, 123277, Note_on_c, 0, 70, 29
1, 123277, Note_on_c, 0, 66, 29
1, 123715, Note_on_c, 0, 66, 0
1, 123715, Note_on_c, 0, 70, 0
1, 123715, Note_on_c, 0, 61, 0
1, 123718, Note_on_c, 0, 70, 29
1, 123718, Note_on_c, 0, 61, 29
1, 123718, Note_on_c, 0, 66, 29
1, 123935, Note_on_c, 0, 58, 0
1, 123935, Note_on_c, 0, 58, 58
1, 124155, Note_on_c, 0, 66, 0
1, 124155, Note_on_c, 0, 61, 0
1, 124155, Note_on_c, 0, 70, 0
1, 124158, Note_on_c, 0, 66, 29
1, 124158, Note_on_c, 0, 70, 29
1, 124158, Note_on_c, 0, 61, 29
1, 124390, Note_on_c, 0, 61, 0
1, 124394, Note_on_c, 0, 58, 0
1, 124394, Note_on_c, 0, 61, 63
1, 124394, Note_on_c, 0, 70, 0
1, 124397, Note_on_c, 0, 66, 0
1, 124397, Note_on_c, 0, 42, 42
1, 124397, Note_on_c, 0, 30, 42
1, 124446, Control_c, 0, 64, 0
1, 124550, Control_c, 0, 64, 127
1, 124614, Note_on_c, 0, 30, 0
1, 124614, Note_on_c, 0, 42, 0
1, 124614, Note_on_c, 0, 66, 36
1, 124617, Note_on_c, 0, 70, 36
1, 125055, Note_on_c, 0, 61, 0
1, 125055, Note_on_c, 0, 60, 53
1, 125055, Note_on_c, 0, 70, 0
1, 125058, Note_on_c, 0, 66, 0
1, 125058, Note_on_c, 0, 66, 36
1, 125058, Note_on_c, 0, 70, 36
1, 125275, Note_on_c, 0, 60, 0
1, 125275, Note_on_c, 0, 58, 58
1, 125495, Note_on_c, 0, 70, 0
1, 125495, Note_on_c, 0, 66, 0
1, 125495, Note_on_c, 0, 66, 36
1, 125498, Note_on_c, 0, 70, 36
1, 125732, Note_on_c, 0, 58, 0
1, 125732, Note_on_c, 0, 56, 61
1, 125732, Note_on_c, 0, 70, 0
1, 125735, Note_on_c, 0, 66, 0
1, 125735, Note_on_c, 0, 37, 35
1, 125735, Control_c, 0, 64, 0
1, 125738, Note_on_c, 0, 49, 35
1, 125888, Control_c, 0, 64, 127
1, 125952, Note_on_c, 0, 49, 0
1, 125952, Note_on_c, 0, 37, 0
1, 125952, Note_on_c, 0, 61, 29
1, 125955, Note_on_c, 0, 68, 29
1, 125955, Note_on_c, 0, 65, 29
1, 126393, Note_on_c, 0, 56, 0
1, 126393, Note_on_c, 0, 58, 55
1, 126393, Note_on_c, 0, 65, 0
1, 126396, Note_on_c, 0, 68, 0
1, 126396, Note_on_c, 0, 61, 0
1, 126396, Note_on_c, 0, 68, 29
1, 126399, Note_on_c, 0, 61, 29
1, 126399, Note_on_c, 0, 65, 29
1, 126613, Note_on_c, 0, 58, 0
1, 126613, Note_on_c, 0, 56, 59
1, 126833, Note_on_c, 0, 65, 0
1, 126833, Note_on_c, 0, 61, 0
1, 126833, Note_on_c, 0, 68, 0
1, 126836, Note_on_c, 0, 61, 29
1, 126836, Note_on_c, 0, 65, 29
1, 126836, Note_on_c, 0, 68, 29
1, 127067, Note_on_c, 0, 56, 0
1, 127067, Note_on_c, 0, 53, 53
1, 127067, Note_on_c, 0, 68, 0
1, 127070, Note_on_c, 0, 65, 0
1, 127070, Note_on_c, 0, 61, 0
1, 127070, Note_on_c, 0, 37, 34
1, 127073, Note_on_c, 0, 49, 34
1, 127080, Control_c, 0, 64, 0
1, 127236, Control_c, 0, 64, 127
1, 127287, Note_on_c, 0, 49, 0
1, 127287, Note_on_c, 0, 37, 0
1, 127287, Note_on_c, 0, 61, 29
1, 127290, Note_on_c, 0, 68, 29
1, 127290, Note_on_c, 0, 65, 29
1, 127728, Note_on_c, 0, 65, 0
1, 127728, Note_on_c, 0, 68, 0
1, 127728, Note_on_c, 0, 61, 0
1, 127731, Note_on_c, 0, 65, 29
1, 127731, Note_on_c, 0, 61, 29
1, 127731, Note_on_c, 0, 68, 29
1, 128168, Note_on_c, 0, 68, 0
1, 128168, Note_on_c, 0, 61, 0
1, 128168, Note_on_c, 0, 65, 0
1, 128171, Note_on_c, 0, 65, 29
1, 128171, Note_on_c, 0, 61, 29
1, 128171, Note_on_c, 0, 68, 29
1, 128209, Control_c, 0, 64, 0
1, 128402, Note_on_c, 0, 53, 0
1, 128402, Note_on_c, 0, 58, 60
1, 128402, Note_on_c, 0, 68, 0
1, 128405, Note_on_c, 0, 61, 0
1, 128405, Note_on_c, 0, 65, 0
1, 128405, Note_on_c, 0, 30, 37
1, 128408, Note_on_c, 0, 42, 37
1, 128408, Control_c, 0, 64, 127
1, 128622, Note_on_c, 0, 42, 0
1, 128622, Note_on_c, 0, 30, 0
1, 128622, Note_on_c, 0, 66, 29
1, 128625, Note_on_c, 0, 70, 29
1, 128625, Note_on_c, 0, 61, 29
1, 129063, Note_on_c, 0, 61, 0
1, 129063, Note_on_c, 0, 70, 0
1, 129063, Note_on_c, 0, 66, 0
1, 129066, Note_on_c, 0, 61, 29
1, 129066, Note_on_c, 0, 66, 29
1, 129066, Note_on_c, 0, 70, 29
1, 129283, Note_on_c, 0, 58, 0
1, 129283, Note_on_c, 0, 58, 58
1, 129503, Note_on_c, 0, 70, 0
1, 129503, Note_on_c, 0, 66, 0
1, 129503, Note_on_c, 0, 61, 0
1, 129506, Note_on_c, 0, 61, 29
1, 129506, Note_on_c, 0, 66, 29
1, 129506, Note_on_c, 0, 70, 29
1, 129738, Note_on_c, 0, 61, 0
1, 129742, Note_on_c, 0, 58, 0
1, 129742, Note_on_c, 0, 61, 63
1, 129742, Note_on_c, 0, 70, 0
1, 129745, Note_on_c, 0, 66, 0
1, 129745, Note_on_c, 0, 42, 43
1, 129745, Note_on_c, 0, 30, 43
1, 129845, Control_c, 0, 64, 0
1, 129950, Control_c, 0, 64, 127
1, 129963, Note_on_c, 0, 30, 0
1, 129963, Note_on_c, 0, 42, 0
1, 129963, Note_on_c, 0, 66, 38
1, 129966, Note_on_c, 0, 70, 38
1, 130403, Note_on_c, 0, 61, 0
1, 130403, Note_on_c, 0, 60, 53
1, 130403, Note_on_c, 0, 70, 0
1, 130406, Note_on_c, 0, 66, 0
1, 130406, Note_on_c, 0, 66, 38
1, 130406, Note_on_c, 0, 70, 38
1, 130623, Note_on_c, 0, 60, 0
1, 130623, Note_on_c, 0, 58, 58
1, 130844, Note_on_c, 0, 70, 0
1, 130844, Note_on_c, 0, 66, 0
1, 130844, Note_on_c, 0, 66, 38
1, 130847, Note_on_c, 0, 70, 38
1, 131080, Note_on_c, 0, 58, 0
1, 131080, Note_on_c, 0, 56, 61
1, 131080, Note_on_c, 0, 70, 0
1, 131083, Note_on_c, 0, 66, 0
1, 131083, Note_on_c, 0, 37, 35
1, 131083, Note_on_c, 0, 49, 35
1, 131093, Control_c, 0, 64, 0
1, 131262, Control_c, 0, 64, 127
1, 131300, Note_on_c, 0, 49, 0
1, 131300, Note_on_c, 0, 37, 0
1, 131300, Note_on_c, 0, 61, 29
1, 131303, Note_on_c, 0, 68, 29
1, 131303, Note_on_c, 0, 65, 29
1, 131741, Note_on_c, 0, 56, 0
1, 131741, Note_on_c, 0, 58, 55
1, 131741, Note_on_c, 0, 65, 0
1, 131744, Note_on_c, 0, 68, 0
1, 131744, Note_on_c, 0, 61, 0
1, 131744, Note_on_c, 0, 65, 29
1, 131747, Note_on_c, 0, 61, 29
1, 131747, Note_on_c, 0, 68, 29
1, 131961, Note_on_c, 0, 58, 0
1, 131961, Note_on_c, 0, 56, 59
1, 132181, Note_on_c, 0, 68, 0
1, 132181, Note_on_c, 0, 61, 0
1, 132181, Note_on_c, 0, 65, 0
1, 132184, Note_on_c, 0, 65, 29
1, 132184, Note_on_c, 0, 61, 29
1, 132184, Note_on_c, 0, 68, 29
1, 132415, Note_on_c, 0, 56, 0
1, 132415, Note_on_c, 0, 53, 53
1, 132415, Note_on_c, 0, 68, 0
1, 132418, Note_on_c, 0, 61, 0
1, 132418, Note_on_c, 0, 65, 0
1, 132418, Note_on_c, 0, 37, 34
1, 132421, Note_on_c, 0, 49, 34
1, 132441, Control_c, 0, 64, 0
1, 132533, Control_c, 0, 64, 127
1, 132635, Note_on_c, 0, 49, 0
1, 132635, Note_on_c, 0, 37, 0
1, 132635, Note_on_c, 0, 61, 29
1, 132638, Note_on_c, 0, 68, 29
1, 132638, Note_on_c, 0, 65, 29
1, 133076, Note_on_c, 0, 65, 0
1, 133076, Note_on_c, 0, 68, 0
1, 133076, Note_on_c, 0, 61, 0
1, 133079, Note_on_c, 0, 68, 29
1, 133079, Note_on_c, 0, 61, 29
1, 133079, Note_on_c, 0, 65, 29
1, 133516, Note_on_c, 0, 65, 0
1, 133516, Note_on_c, 0, 61, 0
1, 133516, Note_on_c, 0, 68, 0
1, 133519, Note_on_c, 0, 65, 29
1, 133519, Note_on_c, 0, 68, 29
1, 133519, Note_on_c, 0, 61, 29
1, 133557, Control_c, 0, 64, 0
1, 133750, Note_on_c, 0, 53, 0
1, 133750, Note_on_c, 0, 63, 66
1, 133750, Note_on_c, 0, 61, 0
1, 133753, Note_on_c, 0, 68, 0
1, 133753, Note_on_c, 0, 65, 0
1, 133753, Note_on_c, 0, 44, 38
1, 133756, Note_on_c, 0, 32, 38
1, 133844, Control_c, 0, 64, 127
1, 133971, Note_on_c, 0, 32, 0
1, 133971, Note_on_c, 0, 44, 0
1, 133971, Note_on_c, 0, 72, 34
1, 133974, Note_on_c, 0, 66, 34
1, 133974, Note_on_c, 0, 68, 34
1, 134411, Note_on_c, 0, 68, 0
1, 134411, Note_on_c, 0, 66, 0
1, 134411, Note_on_c, 0, 72, 0
1, 134414, Note_on_c, 0, 72, 34
1, 134414, Note_on_c, 0, 68, 34
1, 134414, Note_on_c, 0, 66, 34
1, 134631, Note_on_c, 0, 63, 0
1, 134631, Note_on_c, 0, 63, 64
1, 134852, Note_on_c, 0, 66, 0
1, 134852, Note_on_c, 0, 68, 0
1, 134852, Note_on_c, 0, 72, 0
1, 134855, Note_on_c, 0, 66, 34
1, 134855, Note_on_c, 0, 68, 34
1, 134855, Note_on_c, 0, 72, 34
1, 135068, Note_on_c, 0, 66, 0
1, 135078, Note_on_c, 0, 68, 0
1, 135088, Note_on_c, 0, 63, 0
1, 135088, Note_on_c, 0, 66, 71
1, 135088, Note_on_c, 0, 72, 0
1, 135091, Note_on_c, 0, 32, 39
1, 135091, Note_on_c, 0, 44, 39
1, 135112, Control_c, 0, 64, 0
1, 135182, Control_c, 0, 64, 127
1, 135308, Note_on_c, 0, 44, 0
1, 135308, Note_on_c, 0, 32, 0
1, 135308, Note_on_c, 0, 72, 35
1, 135311, Note_on_c, 0, 68, 35
1, 135749, Note_on_c, 0, 66, 0
1, 135749, Note_on_c, 0, 63, 65
1, 135749, Note_on_c, 0, 68, 0
1, 135752, Note_on_c, 0, 72, 0
1, 135752, Note_on_c, 0, 68, 35
1, 135752, Note_on_c, 0, 72, 35
1, 135969, Note_on_c, 0, 63, 0
1, 135969, Note_on_c, 0, 60, 64
1, 136189, Note_on_c, 0, 72, 0
1, 136189, Note_on_c, 0, 68, 0
1, 136189, Note_on_c, 0, 66, 35
1, 136192, Note_on_c, 0, 72, 35
1, 136192, Note_on_c, 0, 68, 35
1, 136426, Note_on_c, 0, 60, 0
1, 136426, Note_on_c, 0, 61, 71
1, 136426, Note_on_c, 0, 68, 0
1, 136429, Note_on_c, 0, 72, 0
1, 136429, Note_on_c, 0, 66, 0
1, 136429, Note_on_c, 0, 37, 43
1, 136432, Control_c, 0, 64, 0
1, 136432, Note_on_c, 0, 49, 43
1, 136529, Control_c, 0, 64, 127
1, 136648, Note_on_c, 0, 49, 0
1, 136648, Note_on_c, 0, 37, 0
1, 136648, Note_on_c, 0, 65, 35
1, 136651, Note_on_c, 0, 68, 35
1, 136651, Note_on_c, 0, 73, 35
1, 137093, Note_on_c, 0, 73, 0
1, 137093, Note_on_c, 0, 68, 0
1, 137093, Note_on_c, 0, 65, 0
1, 137096, Note_on_c, 0, 68, 35
1, 137096, Note_on_c, 0, 73, 35
1, 137096, Note_on_c, 0, 65, 35
1, 137538, Note_on_c, 0, 65, 0
1, 137538, Note_on_c, 0, 73, 0
1, 137538, Note_on_c, 0, 68, 0
1, 137541, Note_on_c, 0, 73, 35
1, 137541, Note_on_c, 0, 65, 35
1, 137541, Note_on_c, 0, 68, 35
1, 137773, Note_on_c, 0, 65, 0
1, 137777, Note_on_c, 0, 61, 0
1, 137777, Note_on_c, 0, 65, 61
1, 137777, Note_on_c, 0, 68, 0
1, 137780, Note_on_c, 0, 73, 0
1, 137780, Note_on_c, 0, 49, 38
1, 137780, Note_on_c, 0, 37, 38
1, 137855, Control_c, 0, 64, 0
1, 138001, Note_on_c, 0, 37, 0
1, 138001, Note_on_c, 0, 49, 0
1, 138001, Note_on_c, 0, 73, 29
1, 138004, Control_c, 0, 64, 127
1, 138004, Note_on_c, 0, 77, 29
1, 138004, Note_on_c, 0, 68, 29
1, 138451, Note_on_c, 0, 68, 0
1, 138451, Note_on_c, 0, 77, 0
1, 138451, Note_on_c, 0, 73, 0
1, 138454, Note_on_c, 0, 77, 29
1, 138454, Note_on_c, 0, 73, 29
1, 138454, Note_on_c, 0, 68, 29
1, 138675, Note_on_c, 0, 65, 0
1, 138900, Note_on_c, 0, 68, 0
1, 138900, Note_on_c, 0, 73, 0
1, 138900, Note_on_c, 0, 77, 0
1, 138903, Note_on_c, 0, 68, 29
1, 138903, Note_on_c, 0, 77, 29
1, 138903, Note_on_c, 0, 73, 29
1, 138941, Control_c, 0, 64, 0
1, 139136, Note_on_c, 0, 61, 71
1, 139136, Note_on_c, 0, 73, 0
1, 139136, Note_on_c, 0, 77, 0
1, 139139, Note_on_c, 0, 68, 0
1, 139139, Control_c, 0, 64, 127
1, 139139, Note_on_c, 0, 37, 43
1, 139142, Note_on_c, 0, 49, 43
1, 139357, Note_on_c, 0, 49, 0
1, 139357, Note_on_c, 0, 37, 0
1, 139357, Note_on_c, 0, 68, 35
1, 139360, Note_on_c, 0, 65, 35
1, 139797, Note_on_c, 0, 61, 0
1, 139797, Note_on_c, 0, 56, 65
1, 139797, Note_on_c, 0, 65, 0
1, 139800, Note_on_c, 0, 68, 0
1, 139800, Note_on_c, 0, 61, 35
1, 139800, Note_on_c, 0, 65, 35
1, 139803, Note_on_c, 0, 68, 35
1, 140017, Note_on_c, 0, 56, 0
1, 140017, Note_on_c, 0, 53, 60
1, 140238, Note_on_c, 0, 68, 0
1, 140238, Note_on_c, 0, 65, 0
1, 140238, Note_on_c, 0, 61, 0
1, 140241, Note_on_c, 0, 68, 35
1, 140241, Note_on_c, 0, 61, 35
1, 140241, Note_on_c, 0, 65, 35
1, 140477, Note_on_c, 0, 53, 0
1, 140477, Note_on_c, 0, 56, 66
1, 140477, Note_on_c, 0, 65, 0
1, 140480, Note_on_c, 0, 61, 0
1, 140480, Note_on_c, 0, 68, 0
1, 140480, Note_on_c, 0, 44, 38
1, 140483, Note_on_c, 0, 32, 38
1, 140490, Control_c, 0, 64, 0
1, 140623, Control_c, 0, 64, 127
1, 140701, Note_on_c, 0, 32, 0
1, 140701, Note_on_c, 0, 44, 0
1, 140701, Note_on_c, 0, 68, 29
1, 140704, Note_on_c, 0, 60, 29
1, 140704, Note_on_c, 0, 65, 29
1, 141150, Note_on_c, 0, 56, 0
1, 141150, Note_on_c, 0, 54, 58
1, 141150, Note_on_c, 0, 65, 0
1, 141153, Note_on_c, 0, 60, 0
1, 141153, Note_on_c, 0, 68, 0
1, 141153, Note_on_c, 0, 60, 29
1, 141156, Note_on_c, 0, 63, 29
1, 141156, Note_on_c, 0, 68, 29
1, 141375, Note_on_c, 0, 54, 0
1, 141375, Note_on_c, 0, 51, 54
1, 141600, Note_on_c, 0, 68, 0
1, 141600, Note_on_c, 0, 63, 0
1, 141600, Note_on_c, 0, 60, 0
1, 141603, Note_on_c, 0, 66, 29
1, 141603, Note_on_c, 0, 60, 29
1, 141603, Note_on_c, 0, 56, 29
1, 141839, Note_on_c, 0, 51, 0
1, 141839, Note_on_c, 0, 49, 53
1, 141839, Note_on_c, 0, 56, 0
1, 141842, Note_on_c, 0, 60, 0
1, 141842, Note_on_c, 0, 66, 0
1, 141842, Note_on_c, 0, 37, 32
1, 141845, Control_c, 0, 64, 0
1, 142036, Control_c, 0, 64, 127
1, 142078, Note_on_c, 0, 37, 0
1, 142078, Note_on_c, 0, 65, 28
1, 142078, Note_on_c, 0, 61, 28
1, 142081, Note_on_c, 0, 56, 28
1, 142556, Note_on_c, 0, 56, 0
1, 142556, Note_on_c, 0, 61, 0
1, 142556, Note_on_c, 0, 65, 0
1, 142559, Note_on_c, 0, 56, 28
1, 142559, Note_on_c, 0, 61, 28
1, 142559, Note_on_c, 0, 65, 28
1, 143034, Note_on_c, 0, 65, 0
1, 143034, Note_on_c, 0, 61, 0
1, 143034, Note_on_c, 0, 56, 0
1, 143037, Note_on_c, 0, 65, 28
1, 143037, Note_on_c, 0, 56, 28
1, 143037, Note_on_c, 0, 61, 28
1, 143273, Note_on_c, 0, 61, 0
1, 143273, Note_on_c, 0, 56, 0
1, 143273, Note_on_c, 0, 65, 0
1, 143276, Note_on_c, 0, 37, 34
1, 143751, Control_c, 0, 64, 0
1, 144228, Note_on_c, 0, 49, 0
1, 144228, Note_on_c, 0, 65, 64
1, 144228, Note_on_c, 0, 37, 0
1, 144608, Note_on_c, 0, 61, 37
1, 144662, Note_on_c, 0, 61, 0
1, 144662, Note_on_c, 0, 65, 0
1, 144662, Note_on_c, 0, 65, 75
1, 144665, Note_on_c, 0, 46, 39
1, 144665, Note_on_c, 0, 34, 39
1, 144665, Control_c, 0, 64, 127
1, 144878, Note_on_c, 0, 34, 0
1, 144878, Note_on_c, 0, 46, 0
1, 144878, Note_on_c, 0, 53, 32
1, 145094, Note_on_c, 0, 53, 0
1, 145094, Note_on_c, 0, 58, 32
1, 145309, Note_on_c, 0, 65, 0
1, 145309, Note_on_c, 0, 66, 64
1, 145309, Note_on_c, 0, 58, 0
1, 145312, Note_on_c, 0, 61, 32
1, 145525, Note_on_c, 0, 66, 0
1, 145525, Note_on_c, 0, 65, 64
1, 145525, Note_on_c, 0, 61, 0
1, 145528, Note_on_c, 0, 58, 32
1, 145749, Note_on_c, 0, 58, 0
1, 145749, Note_on_c, 0, 53, 32
1, 145973, Note_on_c, 0, 65, 0
1, 145973, Note_on_c, 0, 61, 75
1, 145973, Note_on_c, 0, 73, 75
1, 145976, Note_on_c, 0, 53, 0
1, 145976, Note_on_c, 0, 46, 37
1, 145976, Note_on_c, 0, 58, 37
1, 146004, Control_c, 0, 64, 0
1, 146064, Control_c, 0, 64, 127
1, 146179, Note_on_c, 0, 61, 0
1, 146179, Note_on_c, 0, 65, 53
1, 146179, Note_on_c, 0, 58, 0
1, 146182, Note_on_c, 0, 46, 0
1, 146385, Note_on_c, 0, 65, 0
1, 146385, Note_on_c, 0, 73, 0
1, 146385, Note_on_c, 0, 72, 72
1, 146388, Note_on_c, 0, 63, 72
1, 146388, Note_on_c, 0, 48, 35
1, 146388, Note_on_c, 0, 57, 35
1, 146433, Control_c, 0, 64, 0
1, 146519, Control_c, 0, 64, 127
1, 146592, Note_on_c, 0, 63, 0
1, 146592, Note_on_c, 0, 65, 53
1, 146592, Note_on_c, 0, 57, 0
1, 146595, Note_on_c, 0, 48, 0
1, 146798, Note_on_c, 0, 65, 0
1, 146798, Note_on_c, 0, 72, 0
1, 146798, Note_on_c, 0, 61, 72
1, 146801, Note_on_c, 0, 70, 72
1, 146801, Note_on_c, 0, 49, 37
1, 146801, Note_on_c, 0, 58, 37
1, 146830, Control_c, 0, 64, 0
1, 146905, Control_c, 0, 64, 127
1, 147012, Note_on_c, 0, 61, 0
1, 147012, Note_on_c, 0, 65, 54
1, 147012, Note_on_c, 0, 58, 0
1, 147015, Note_on_c, 0, 49, 0
1, 147170, Control_c, 0, 64, 0
1, 147173, Note_on_c, 0, 63, 57
1, 147227, Note_on_c, 0, 63, 0
1, 147227, Note_on_c, 0, 65, 0
1, 147227, Note_on_c, 0, 70, 0
1, 147230, Note_on_c, 0, 70, 74
1, 147230, Control_c, 0, 64, 127
1, 147230, Note_on_c, 0, 41, 40
1, 147233, Note_on_c, 0, 53, 40
1, 147437, Note_on_c, 0, 53, 0
1, 147437, Note_on_c, 0, 41, 0
1, 147437, Note_on_c, 0, 53, 32
1, 147648, Note_on_c, 0, 53, 0
1, 147648, Note_on_c, 0, 57, 32
1, 147858, Note_on_c, 0, 70, 0
1, 147858, Note_on_c, 0, 69, 60
1, 147858, Note_on_c, 0, 57, 0
1, 147861, Note_on_c, 0, 63, 32
1, 147960, Note_on_c, 0, 69, 0
1, 148062, Note_on_c, 0, 69, 64
1, 148062, Note_on_c, 0, 63, 0
1, 148062, Note_on_c, 0, 57, 32
1, 148267, Note_on_c, 0, 69, 0
1, 148267, Note_on_c, 0, 72, 57
1, 148267, Note_on_c, 0, 57, 0
1, 148270, Note_on_c, 0, 53, 32
1, 148420, Note_on_c, 0, 63, 31
1, 148471, Note_on_c, 0, 63, 0
1, 148471, Note_on_c, 0, 72, 0
1, 148471, Note_on_c, 0, 65, 70
1, 148474, Note_on_c, 0, 53, 0
1, 148474, Note_on_c, 0, 29, 39
1, 148474, Note_on_c, 0, 41, 39
1, 148684, Note_on_c, 0, 41, 0
1, 148684, Note_on_c, 0, 29, 0
1, 148684, Note_on_c, 0, 53, 32
1, 148896, Note_on_c, 0, 53, 0
1, 148896, Note_on_c, 0, 57, 32
1, 149119, Note_on_c, 0, 57, 0
1, 149119, Note_on_c, 0, 63, 32
1, 149343, Note_on_c, 0, 65, 0
1, 149343, Note_on_c, 0, 65, 64
1, 149343, Note_on_c, 0, 63, 0
1, 149346, Note_on_c, 0, 57, 32
1, 149490, Control_c, 0, 64, 0
1, 149555, Note_on_c, 0, 57, 0
1, 149555, Note_on_c, 0, 53, 32
1, 149714, Note_on_c, 0, 61, 32
1, 149768, Note_on_c, 0, 61, 0
1, 149768, Note_on_c, 0, 65, 0
1, 149768, Note_on_c, 0, 65, 75
1, 149771, Note_on_c, 0, 53, 0
1, 149771, Control_c, 0, 64, 127
1, 149771, Note_on_c, 0, 34, 39
1, 149774, Note_on_c, 0, 46, 39
1, 149980, Note_on_c, 0, 46, 0
1, 149980, Note_on_c, 0, 34, 0
1, 149980, Note_on_c, 0, 53, 32
1, 150192, Note_on_c, 0, 53, 0
1, 150192, Note_on_c, 0, 58, 32
1, 150405, Note_on_c, 0, 65, 0
1, 150405, Note_on_c, 0, 66, 64
1, 150405, Note_on_c, 0, 58, 0
1, 150408, Note_on_c, 0, 61, 32
1, 150617, Note_on_c, 0, 66, 0
1, 150617, Note_on_c, 0, 65, 64
1, 150617, Note_on_c, 0, 61, 0
1, 150620, Note_on_c, 0, 58, 32
1, 150836, Note_on_c, 0, 58, 0
1, 150836, Note_on_c, 0, 53, 32
1, 151048, Control_c, 0, 64, 0
1, 151055, Note_on_c, 0, 65, 0
1, 151055, Note_on_c, 0, 61, 75
1, 151055, Note_on_c, 0, 73, 75
1, 151058, Note_on_c, 0, 53, 0
1, 151058, Note_on_c, 0, 58, 37
1, 151058, Note_on_c, 0, 46, 37
1, 151110, Control_c, 0, 64, 127
1, 151261, Note_on_c, 0, 61, 0
1, 151261, Note_on_c, 0, 65, 52
1, 151261, Note_on_c, 0, 46, 0
1, 151264, Note_on_c, 0, 58, 0
1, 151468, Note_on_c, 0, 65, 0
1, 151468, Note_on_c, 0, 73, 0
1, 151468, Note_on_c, 0, 63, 72
1, 151471, Note_on_c, 0, 72, 72
1, 151471, Note_on_c, 0, 57, 35
1, 151471, Control_c, 0, 64, 0
1, 151474, Note_on_c, 0, 48, 35
1, 151552, Control_c, 0, 64, 127
1, 151674, Note_on_c, 0, 63, 0
1, 151674, Note_on_c, 0, 65, 52
1, 151674, Note_on_c, 0, 48, 0
1, 151677, Note_on_c, 0, 57, 0
1, 151880, Note_on_c, 0, 65, 0
1, 151880, Note_on_c, 0, 72, 0
1, 151880, Note_on_c, 0, 61, 72
1, 151883, Note_on_c, 0, 70, 72
1, 151883, Note_on_c, 0, 58, 37
1, 151883, Note_on_c, 0, 49, 37
1, 151912, Control_c, 0, 64, 0
1, 151962, Control_c, 0, 64, 127
1, 152095, Note_on_c, 0, 61, 0
1, 152095, Note_on_c, 0, 65, 53
1, 152095, Note_on_c, 0, 49, 0
1, 152098, Note_on_c, 0, 58, 0
1, 152164, Control_c, 0, 64, 0
1, 152255, Note_on_c, 0, 63, 60
1, 152309, Note_on_c, 0, 63, 0
1, 152309, Note_on_c, 0, 65, 0
1, 152309, Note_on_c, 0, 70, 0
1, 152312, Note_on_c, 0, 70, 74
1, 152312, Note_on_c, 0, 41, 40
1, 152312, Control_c, 0, 64, 127
1, 152315, Note_on_c, 0, 53, 40
1, 152519, Note_on_c, 0, 53, 0
1, 152519, Note_on_c, 0, 41, 0
1, 152519, Note_on_c, 0, 53, 32
1, 152730, Note_on_c, 0, 53, 0
1, 152730, Note_on_c, 0, 57, 32
1, 152940, Note_on_c, 0, 70, 0
1, 152940, Note_on_c, 0, 69, 60
1, 152940, Note_on_c, 0, 57, 0
1, 152943, Note_on_c, 0, 63, 32
1, 153042, Note_on_c, 0, 69, 0
1, 153145, Note_on_c, 0, 69, 64
1, 153145, Note_on_c, 0, 63, 0
1, 153145, Note_on_c, 0, 57, 32
1, 153349, Note_on_c, 0, 69, 0
1, 153349, Note_on_c, 0, 72, 57
1, 153349, Note_on_c, 0, 57, 0
1, 153352, Note_on_c, 0, 53, 32
1, 153502, Note_on_c, 0, 63, 39
1, 153553, Note_on_c, 0, 63, 0
1, 153553, Note_on_c, 0, 72, 0
1, 153553, Note_on_c, 0, 65, 70
1, 153556, Note_on_c, 0, 53, 0
1, 153556, Note_on_c, 0, 41, 39
1, 153556, Note_on_c, 0, 53, 39
1, 153766, Note_on_c, 0, 53, 0
1, 153766, Note_on_c, 0, 41, 0
1, 153766, Note_on_c, 0, 53, 32
1, 153978, Note_on_c, 0, 53, 0
1, 153978, Note_on_c, 0, 57, 32
1, 154202, Note_on_c, 0, 57, 0
1, 154202, Note_on_c, 0, 63, 32
1, 154425, Note_on_c, 0, 65, 0
1, 154425, Note_on_c, 0, 65, 73
1, 154425, Note_on_c, 0, 63, 0
1, 154428, Note_on_c, 0, 57, 32
1, 154637, Note_on_c, 0, 57, 0
1, 154637, Note_on_c, 0, 53, 32
1, 154797, Note_on_c, 0, 61, 35
1, 154850, Note_on_c, 0, 61, 0
1, 154850, Note_on_c, 0, 65, 0
1, 154850, Note_on_c, 0, 65, 80
1, 154853, Note_on_c, 0, 53, 0
1, 154853, Control_c, 0, 64, 0
1, 154853, Note_on_c, 0, 46, 52
1, 154856, Note_on_c, 0, 34, 52
1, 154919, Control_c, 0, 64, 127
1, 155062, Note_on_c, 0, 34, 0
1, 155062, Note_on_c, 0, 46, 0
1, 155062, Note_on_c, 0, 53, 38
1, 155275, Note_on_c, 0, 53, 0
1, 155275, Note_on_c, 0, 58, 38
1, 155487, Note_on_c, 0, 65, 0
1, 155487, Note_on_c, 0, 66, 67
1, 155487, Note_on_c, 0, 58, 0
1, 155490, Note_on_c, 0, 61, 38
1, 155699, Note_on_c, 0, 66, 0
1, 155699, Note_on_c, 0, 65, 67
1, 155699, Note_on_c, 0, 61, 0
1, 155702, Note_on_c, 0, 58, 38
1, 155918, Note_on_c, 0, 58, 0
1, 155918, Note_on_c, 0, 53, 38
1, 156137, Note_on_c, 0, 65, 0
1, 156137, Note_on_c, 0, 77, 82
1, 156137, Note_on_c, 0, 65, 66
1, 156140, Note_on_c, 0, 53, 0
1, 156140, Note_on_c, 0, 37, 46
1, 156140, Note_on_c, 0, 49, 46
1, 156156, Control_c, 0, 64, 0
1, 156221, Control_c, 0, 64, 127
1, 156343, Note_on_c, 0, 70, 57
1, 156343, Note_on_c, 0, 73, 57
1, 156550, Note_on_c, 0, 73, 0
1, 156550, Note_on_c, 0, 77, 0
1, 156550, Note_on_c, 0, 65, 0
1, 156553, Note_on_c, 0, 70, 0
1, 156553, Note_on_c, 0, 75, 80
1, 156553, Note_on_c, 0, 63, 58
1, 156556, Note_on_c, 0, 49, 0
1, 156556, Note_on_c, 0, 37, 0
1, 156556, Control_c, 0, 64, 0
1, 156559, Note_on_c, 0, 48, 35
1, 156559, Note_on_c, 0, 36, 35
1, 156605, Control_c, 0, 64, 127
1, 156756, Note_on_c, 0, 72, 57
1, 156756, Note_on_c, 0, 69, 57
1, 156943, Control_c, 0, 64, 0
1, 156962, Note_on_c, 0, 69, 0
1, 156962, Note_on_c, 0, 75, 0
1, 156962, Note_on_c, 0, 63, 0
1, 156965, Note_on_c, 0, 72, 0
1, 156965, Note_on_c, 0, 73, 77
1, 156965, Note_on_c, 0, 61, 57
1, 156968, Note_on_c, 0, 36, 0
1, 156968, Note_on_c, 0, 48, 0
1, 156968, Note_on_c, 0, 46, 37
1, 156971, Note_on_c, 0, 34, 37
1, 157012, Control_c, 0, 64, 127
1, 157177, Note_on_c, 0, 70, 57
1, 157177, Note_on_c, 0, 65, 57
1, 157284, Note_on_c, 0, 65, 0
1, 157284, Note_on_c, 0, 70, 0
1, 157284, Note_on_c, 0, 63, 59
1, 157322, Control_c, 0, 64, 0
1, 157338, Note_on_c, 0, 66, 59
1, 157391, Note_on_c, 0, 61, 0
1, 157391, Note_on_c, 0, 73, 0
1, 157391, Note_on_c, 0, 72, 75
1, 157394, Note_on_c, 0, 34, 0
1, 157394, Note_on_c, 0, 46, 0
1, 157394, Note_on_c, 0, 51, 52
1, 157397, Note_on_c, 0, 39, 52
1, 157473, Control_c, 0, 64, 127
1, 157604, Note_on_c, 0, 39, 0
1, 157604, Note_on_c, 0, 51, 0
1, 157604, Note_on_c, 0, 51, 36
1, 157816, Note_on_c, 0, 51, 0
1, 157816, Note_on_c, 0, 54, 36
1, 158029, Note_on_c, 0, 72, 0
1, 158029, Note_on_c, 0, 63, 0
1, 158029, Note_on_c, 0, 66, 0
1, 158032, Note_on_c, 0, 73, 69
1, 158032, Note_on_c, 0, 54, 0
1, 158032, Note_on_c, 0, 60, 37
1, 158241, Note_on_c, 0, 73, 0
1, 158241, Note_on_c, 0, 72, 69
1, 158241, Note_on_c, 0, 60, 0
1, 158244, Note_on_c, 0, 54, 37
1, 158460, Note_on_c, 0, 54, 0
1, 158460, Note_on_c, 0, 51, 37
1, 158679, Note_on_c, 0, 72, 0
1, 158679, Note_on_c, 0, 75, 84
1, 158679, Note_on_c, 0, 63, 60
1, 158682, Note_on_c, 0, 51, 0
1, 158682, Note_on_c, 0, 48, 47
1, 158682, Note_on_c, 0, 36, 47
1, 158727, Control_c, 0, 64, 0
1, 158782, Control_c, 0, 64, 127
1, 158885, Note_on_c, 0, 66, 60
1, 158885, Note_on_c, 0, 72, 60
1, 159048, Control_c, 0, 64, 0
1, 159091, Note_on_c, 0, 72, 0
1, 159091, Note_on_c, 0, 75, 0
1, 159091, Note_on_c, 0, 63, 0
1, 159094, Note_on_c, 0, 66, 0
1, 159094, Note_on_c, 0, 61, 59
1, 159094, Note_on_c, 0, 73, 82
1, 159097, Note_on_c, 0, 36, 0
1, 159097, Note_on_c, 0, 48, 0
1, 159097, Note_on_c, 0, 49, 40
1, 159100, Note_on_c, 0, 37, 40
1, 159115, Control_c, 0, 64, 127
1, 159298, Note_on_c, 0, 65, 58
1, 159298, Note_on_c, 0, 70, 58
1, 159504, Note_on_c, 0, 70, 0
1, 159504, Note_on_c, 0, 61, 0
1, 159504, Note_on_c, 0, 73, 0
1, 159507, Note_on_c, 0, 65, 0
1, 159507, Note_on_c, 0, 72, 78
1, 159507, Note_on_c, 0, 60, 55
1, 159510, Note_on_c, 0, 37, 0
1, 159510, Note_on_c, 0, 49, 0
1, 159510, Note_on_c, 0, 51, 40
1, 159513, Note_on_c, 0, 39, 40
1, 159561, Control_c, 0, 64, 0
1, 159611, Control_c, 0, 64, 127
1, 159718, Note_on_c, 0, 63, 55
1, 159718, Note_on_c, 0, 66, 55
1, 159779, Note_on_c, 0, 66, 0
1, 159779, Note_on_c, 0, 58, 47
1, 159840, Note_on_c, 0, 58, 0
1, 159840, Note_on_c, 0, 63, 0
1, 159840, Note_on_c, 0, 61, 47
1, 159897, Control_c, 0, 64, 0
1, 159901, Note_on_c, 0, 61, 0
1, 159901, Note_on_c, 0, 65, 47
1, 159962, Note_on_c, 0, 65, 0
1, 159962, Note_on_c, 0, 60, 0
1, 159962, Note_on_c, 0, 72, 0
1, 159965, Note_on_c, 0, 70, 82
1, 159965, Note_on_c, 0, 39, 0
1, 159965, Note_on_c, 0, 51, 0
1, 159968, Note_on_c, 0, 53, 52
1, 159968, Control_c, 0, 64, 127
1, 159968, Note_on_c, 0, 41, 52
1, 160066, Note_on_c, 0, 41, 0
1, 160066, Note_on_c, 0, 53, 0
1, 160170, Note_on_c, 0, 53, 36
1, 160378, Note_on_c, 0, 53, 0
1, 160378, Note_on_c, 0, 58, 36
1, 160587, Note_on_c, 0, 58, 0
1, 160587, Note_on_c, 0, 61, 36
1, 160795, Note_on_c, 0, 70, 0
1, 160795, Note_on_c, 0, 70, 82
1, 160795, Note_on_c, 0, 61, 0
1, 160798, Note_on_c, 0, 58, 36
1, 161021, Note_on_c, 0, 58, 0
1, 161021, Note_on_c, 0, 53, 36
1, 161041, Control_c, 0, 64, 0
1, 161134, Note_on_c, 0, 58, 46
1, 161190, Note_on_c, 0, 58, 0
1, 161190, Note_on_c, 0, 64, 46
1, 161246, Note_on_c, 0, 64, 0
1, 161246, Note_on_c, 0, 70, 0
1, 161246, Note_on_c, 0, 70, 82
1, 161249, Note_on_c, 0, 53, 0
1, 161249, Note_on_c, 0, 54, 52
1, 161249, Note_on_c, 0, 42, 52
1, 161348, Control_c, 0, 64, 127
1, 161354, Note_on_c, 0, 42, 0
1, 161354, Note_on_c, 0, 54, 0
1, 161461, Note_on_c, 0, 54, 36
1, 161675, Note_on_c, 0, 54, 0
1, 161675, Note_on_c, 0, 60, 36
1, 161890, Note_on_c, 0, 70, 0
1, 161890, Note_on_c, 0, 72, 78
1, 161890, Note_on_c, 0, 60, 0
1, 161893, Note_on_c, 0, 64, 36
1, 161997, Note_on_c, 0, 72, 0
1, 161997, Note_on_c, 0, 70, 78
1, 162104, Note_on_c, 0, 70, 0
1, 162104, Note_on_c, 0, 69, 78
1, 162104, Note_on_c, 0, 64, 0
1, 162107, Note_on_c, 0, 58, 36
1, 162319, Note_on_c, 0, 69, 0
1, 162319, Note_on_c, 0, 70, 78
1, 162319, Note_on_c, 0, 58, 0
1, 162322, Note_on_c, 0, 54, 36
1, 162533, Note_on_c, 0, 70, 0
1, 162533, Note_on_c, 0, 72, 86
1, 162533, Note_on_c, 0, 54, 0
1, 162536, Note_on_c, 0, 41, 52
1, 162536, Note_on_c, 0, 53, 52
1, 162536, Control_c, 0, 64, 0
1, 162628, Control_c, 0, 64, 127
1, 162641, Note_on_c, 0, 53, 0
1, 162641, Note_on_c, 0, 41, 0
1, 162748, Note_on_c, 0, 53, 38
1, 162962, Note_on_c, 0, 65, 74
1, 162962, Note_on_c, 0, 53, 0
1, 162962, Note_on_c, 0, 57, 38
1, 163177, Note_on_c, 0, 57, 0
1, 163177, Note_on_c, 0, 60, 38
1, 163391, Note_on_c, 0, 65, 0
1, 163391, Note_on_c, 0, 65, 74
1, 163391, Note_on_c, 0, 60, 0
1, 163394, Note_on_c, 0, 57, 38
1, 163606, Note_on_c, 0, 57, 0
1, 163606, Note_on_c, 0, 53, 38
1, 163820, Note_on_c, 0, 65, 0
1, 163820, Note_on_c, 0, 72, 0
1, 163820, Note_on_c, 0, 65, 74
1, 163823, Note_on_c, 0, 53, 0
1, 163823, Note_on_c, 0, 41, 46
1, 164036, Note_on_c, 0, 65, 0
1, 164036, Note_on_c, 0, 41, 0
1, 164036, Note_on_c, 0, 53, 34
1, 164256, Note_on_c, 0, 65, 60
1, 164256, Note_on_c, 0, 60, 60
1, 164256, Note_on_c, 0, 63, 60
1, 164259, Note_on_c, 0, 53, 0
1, 164259, Note_on_c, 0, 41, 46
1, 164480, Note_on_c, 0, 63, 0
1, 164480, Note_on_c, 0, 60, 0
1, 164480, Note_on_c, 0, 65, 0
1, 164483, Note_on_c, 0, 41, 0
1, 164483, Note_on_c, 0, 53, 34
1, 164709, Note_on_c, 0, 57, 59
1, 164709, Note_on_c, 0, 65, 59
1, 164709, Note_on_c, 0, 60, 59
1, 164712, Note_on_c, 0, 53, 0
1, 164712, Note_on_c, 0, 41, 46
1, 164944, Note_on_c, 0, 60, 0
1, 164944, Note_on_c, 0, 65, 0
1, 164944, Note_on_c, 0, 57, 0
1, 164947, Note_on_c, 0, 41, 0
1, 164947, Note_on_c, 0, 53, 34
1, 165123, Note_on_c, 0, 61, 30
1, 165183, Note_on_c, 0, 61, 0
1, 165183, Note_on_c, 0, 65, 75
1, 165183, Note_on_c, 0, 53, 0
1, 165186, Note_on_c, 0, 46, 39
1, 165186, Control_c, 0, 64, 0
1, 165186, Note_on_c, 0, 34, 39
1, 165270, Control_c, 0, 64, 127
1, 165396, Note_on_c, 0, 34, 0
1, 165396, Note_on_c, 0, 46, 0
1, 165396, Note_on_c, 0, 53, 32
1, 165608, Note_on_c, 0, 53, 0
1, 165608, Note_on_c, 0, 58, 32
1, 165820, Note_on_c, 0, 65, 0
1, 165820, Note_on_c, 0, 66, 64
1, 165820, Note_on_c, 0, 58, 0
1, 165823, Note_on_c, 0, 61, 32
1, 166033, Note_on_c, 0, 66, 0
1, 166033, Note_on_c, 0, 65, 64
1, 166033, Note_on_c, 0, 61, 0
1, 166036, Note_on_c, 0, 58, 32
1, 166252, Note_on_c, 0, 58, 0
1, 166252, Note_on_c, 0, 53, 32
1, 166470, Note_on_c, 0, 65, 0
1, 166470, Note_on_c, 0, 61, 75
1, 166470, Note_on_c, 0, 73, 75
1, 166473, Note_on_c, 0, 53, 0
1, 166473, Note_on_c, 0, 58, 37
1, 166473, Note_on_c, 0, 46, 37
1, 166501, Control_c, 0, 64, 0
1, 166525, Control_c, 0, 64, 127
1, 166677, Note_on_c, 0, 61, 0
1, 166677, Note_on_c, 0, 65, 57
1, 166677, Note_on_c, 0, 46, 0
1, 166680, Note_on_c, 0, 58, 0
1, 166876, Control_c, 0, 64, 0
1, 166883, Note_on_c, 0, 65, 0
1, 166883, Note_on_c, 0, 73, 0
1, 166883, Note_on_c, 0, 72, 72
1, 166886, Note_on_c, 0, 63, 72
1, 166886, Note_on_c, 0, 48, 35
1, 166886, Note_on_c, 0, 57, 35
1, 166926, Control_c, 0, 64, 127
1, 167089, Note_on_c, 0, 63, 0
1, 167089, Note_on_c, 0, 65, 57
1, 167089, Note_on_c, 0, 57, 0
1, 167092, Note_on_c, 0, 48, 0
1, 167272, Control_c, 0, 64, 0
1, 167296, Note_on_c, 0, 65, 0
1, 167296, Note_on_c, 0, 72, 0
1, 167296, Note_on_c, 0, 70, 72
1, 167299, Note_on_c, 0, 61, 72
1, 167299, Note_on_c, 0, 58, 37
1, 167299, Note_on_c, 0, 49, 37
1, 167396, Control_c, 0, 64, 127
1, 167510, Note_on_c, 0, 61, 0
1, 167510, Note_on_c, 0, 65, 57
1, 167510, Note_on_c, 0, 49, 0
1, 167513, Note_on_c, 0, 58, 0
1, 167671, Note_on_c, 0, 63, 57
1, 167725, Note_on_c, 0, 63, 0
1, 167725, Note_on_c, 0, 65, 0
1, 167725, Note_on_c, 0, 70, 0
1, 167728, Note_on_c, 0, 70, 74
1, 167728, Note_on_c, 0, 53, 40
1, 167728, Control_c, 0, 64, 0
1, 167731, Note_on_c, 0, 41, 40
1, 167819, Control_c, 0, 64, 127
1, 167935, Note_on_c, 0, 41, 0
1, 167935, Note_on_c, 0, 53, 0
1, 167935, Note_on_c, 0, 53, 32
1, 168145, Note_on_c, 0, 53, 0
1, 168145, Note_on_c, 0, 57, 32
1, 168356, Note_on_c, 0, 70, 0
1, 168356, Note_on_c, 0, 69, 60
1, 168356, Note_on_c, 0, 57, 0
1, 168359, Note_on_c, 0, 63, 32
1, 168458, Note_on_c, 0, 69, 0
1, 168560, Note_on_c, 0, 69, 64
1, 168560, Note_on_c, 0, 63, 0
1, 168560, Note_on_c, 0, 57, 32
1, 168765, Note_on_c, 0, 69, 0
1, 168765, Note_on_c, 0, 72, 57
1, 168765, Note_on_c, 0, 57, 0
1, 168768, Note_on_c, 0, 53, 32
1, 168918, Note_on_c, 0, 61, 36
1, 168969, Note_on_c, 0, 61, 0
1, 168969, Note_on_c, 0, 72, 0
1, 168969, Note_on_c, 0, 65, 70
1, 168972, Note_on_c, 0, 53, 0
1, 168972, Note_on_c, 0, 41, 39
1, 168972, Note_on_c, 0, 29, 39
1, 169181, Note_on_c, 0, 29, 0
1, 169181, Note_on_c, 0, 41, 0
1, 169181, Note_on_c, 0, 53, 32
1, 169394, Note_on_c, 0, 53, 0
1, 169394, Note_on_c, 0, 57, 32
1, 169617, Note_on_c, 0, 57, 0
1, 169617, Note_on_c, 0, 63, 32
1, 169841, Note_on_c, 0, 65, 0
1, 169841, Note_on_c, 0, 65, 64
1, 169841, Note_on_c, 0, 63, 0
1, 169844, Note_on_c, 0, 57, 32
1, 170053, Note_on_c, 0, 57, 0
1, 170053, Note_on_c, 0, 53, 32
1, 170212, Note_on_c, 0, 65, 0
1, 170212, Note_on_c, 0, 61, 30
1, 170265, Note_on_c, 0, 61, 0
1, 170265, Note_on_c, 0, 65, 75
1, 170265, Note_on_c, 0, 53, 0
1, 170268, Note_on_c, 0, 46, 39
1, 170268, Note_on_c, 0, 34, 39
1, 170268, Control_c, 0, 64, 0
1, 170372, Control_c, 0, 64, 127
1, 170478, Note_on_c, 0, 34, 0
1, 170478, Note_on_c, 0, 46, 0
1, 170478, Note_on_c, 0, 53, 32
1, 170690, Note_on_c, 0, 53, 0
1, 170690, Note_on_c, 0, 58, 32
1, 170903, Note_on_c, 0, 65, 0
1, 170903, Note_on_c, 0, 66, 64
1, 170903, Note_on_c, 0, 58, 0
1, 170906, Note_on_c, 0, 61, 32
1, 171115, Note_on_c, 0, 66, 0
1, 171115, Note_on_c, 0, 65, 64
1, 171115, Note_on_c, 0, 61, 0
1, 171118, Note_on_c, 0, 58, 32
1, 171334, Note_on_c, 0, 58, 0
1, 171334, Note_on_c, 0, 53, 32
1, 171553, Note_on_c, 0, 65, 0
1, 171553, Note_on_c, 0, 73, 75
1, 171553, Note_on_c, 0, 61, 75
1, 171556, Note_on_c, 0, 53, 0
1, 171556, Note_on_c, 0, 58, 37
1, 171556, Note_on_c, 0, 46, 37
1, 171560, Control_c, 0, 64, 0
1, 171632, Control_c, 0, 64, 127
1, 171759, Note_on_c, 0, 61, 0
1, 171759, Note_on_c, 0, 65, 55
1, 171759, Note_on_c, 0, 46, 0
1, 171762, Note_on_c, 0, 58, 0
1, 171941, Control_c, 0, 64, 0
1, 171965, Note_on_c, 0, 65, 0
1, 171965, Note_on_c, 0, 73, 0
1, 171965, Note_on_c, 0, 72, 72
1, 171968, Note_on_c, 0, 63, 72
1, 171968, Note_on_c, 0, 57, 35
1, 171968, Note_on_c, 0, 48, 35
1, 172026, Control_c, 0, 64, 127
1, 172172, Note_on_c, 0, 63, 0
1, 172172, Note_on_c, 0, 65, 55
1, 172172, Note_on_c, 0, 48, 0
1, 172175, Note_on_c, 0, 57, 0
1, 172359, Control_c, 0, 64, 0
1, 172378, Note_on_c, 0, 65, 0
1, 172378, Note_on_c, 0, 72, 0
1, 172378, Note_on_c, 0, 61, 72
1, 172381, Note_on_c, 0, 70, 72
1, 172381, Note_on_c, 0, 58, 37
1, 172381, Note_on_c, 0, 49, 37
1, 172423, Control_c, 0, 64, 127
1, 172592, Note_on_c, 0, 61, 0
1, 172592, Note_on_c, 0, 65, 55
1, 172592, Note_on_c, 0, 49, 0
1, 172595, Note_on_c, 0, 58, 0
1, 172753, Note_on_c, 0, 61, 52
1, 172807, Note_on_c, 0, 61, 0
1, 172807, Note_on_c, 0, 65, 0
1, 172807, Note_on_c, 0, 70, 0
1, 172810, Note_on_c, 0, 68, 74
1, 172810, Note_on_c, 0, 51, 40
1, 172810, Control_c, 0, 64, 0
1, 172813, Note_on_c, 0, 39, 40
1, 172875, Control_c, 0, 64, 127
1, 173017, Note_on_c, 0, 39, 0
1, 173017, Note_on_c, 0, 51, 0
1, 173017, Note_on_c, 0, 51, 32
1, 173228, Note_on_c, 0, 51, 0
1, 173228, Note_on_c, 0, 55, 32
1, 173438, Note_on_c, 0, 68, 0
1, 173438, Note_on_c, 0, 67, 60
1, 173438, Note_on_c, 0, 55, 0
1, 173441, Note_on_c, 0, 61, 32
1, 173591, Note_on_c, 0, 67, 0
1, 173642, Note_on_c, 0, 67, 64
1, 173642, Note_on_c, 0, 61, 0
1, 173642, Note_on_c, 0, 55, 32
1, 173847, Note_on_c, 0, 67, 0
1, 173847, Note_on_c, 0, 70, 57
1, 173847, Note_on_c, 0, 55, 0
1, 173850, Note_on_c, 0, 51, 32
1, 174000, Note_on_c, 0, 61, 44
1, 174051, Note_on_c, 0, 61, 0
1, 174051, Note_on_c, 0, 70, 0
1, 174051, Note_on_c, 0, 63, 70
1, 174054, Note_on_c, 0, 51, 0
1, 174054, Note_on_c, 0, 39, 39
1, 174054, Note_on_c, 0, 51, 39
1, 174264, Note_on_c, 0, 51, 0
1, 174264, Note_on_c, 0, 39, 0
1, 174264, Note_on_c, 0, 51, 32
1, 174476, Note_on_c, 0, 51, 0
1, 174476, Note_on_c, 0, 55, 32
1, 174699, Note_on_c, 0, 55, 0
1, 174699, Note_on_c, 0, 61, 32
1, 174923, Note_on_c, 0, 63, 0
1, 174923, Note_on_c, 0, 75, 66
1, 174923, Note_on_c, 0, 73, 66
1, 174926, Note_on_c, 0, 61, 0
1, 174926, Note_on_c, 0, 55, 32
1, 175135, Note_on_c, 0, 55, 0
1, 175135, Note_on_c, 0, 51, 32
1, 175348, Note_on_c, 0, 73, 0
1, 175348, Note_on_c, 0, 75, 0
1, 175348, Note_on_c, 0, 75, 74
1, 175351, Note_on_c, 0, 72, 74
1, 175351, Note_on_c, 0, 51, 0
1, 175351, Note_on_c, 0, 44, 40
1, 175354, Control_c, 0, 64, 0
1, 175479, Control_c, 0, 64, 127
1, 175560, Note_on_c, 0, 44, 0
1, 175560, Note_on_c, 0, 51, 32
1, 175772, Note_on_c, 0, 51, 0
1, 175772, Note_on_c, 0, 56, 32
1, 175985, Note_on_c, 0, 72, 0
1, 175985, Note_on_c, 0, 75, 0
1, 175985, Note_on_c, 0, 77, 64
1, 175988, Note_on_c, 0, 56, 0
1, 175988, Note_on_c, 0, 60, 32
1, 176185, Note_on_c, 0, 77, 0
1, 176185, Note_on_c, 0, 75, 64
1, 176185, Note_on_c, 0, 60, 0
1, 176188, Note_on_c, 0, 63, 32
1, 176404, Note_on_c, 0, 63, 0
1, 176404, Note_on_c, 0, 68, 32
1, 176568, Note_on_c, 0, 75, 0
1, 176568, Note_on_c, 0, 75, 53
1, 176623, Note_on_c, 0, 75, 0
1, 176623, Note_on_c, 0, 80, 77
1, 176623, Note_on_c, 0, 68, 0
1, 176626, Note_on_c, 0, 72, 38
1, 177032, Control_c, 0, 64, 0
1, 177441, Note_on_c, 0, 80, 0
1, 177441, Note_on_c, 0, 79, 71
1, 177441, Note_on_c, 0, 72, 0
1, 177870, Note_on_c, 0, 79, 0
1, 177870, Note_on_c, 0, 77, 74
1, 177870, Note_on_c, 0, 73, 74
1, 177873, Note_on_c, 0, 49, 40
1, 177873, Control_c, 0, 64, 127
1, 178082, Note_on_c, 0, 49, 0
1, 178082, Note_on_c, 0, 53, 32
1, 178294, Note_on_c, 0, 53, 0
1, 178294, Note_on_c, 0, 58, 32
1, 178507, Note_on_c, 0, 73, 0
1, 178507, Note_on_c, 0, 77, 0
1, 178507, Note_on_c, 0, 79, 64
1, 178510, Note_on_c, 0, 58, 0
1, 178510, Note_on_c, 0, 61, 32
1, 178706, Note_on_c, 0, 79, 0
1, 178706, Note_on_c, 0, 77, 64
1, 178706, Note_on_c, 0, 61, 0
1, 178709, Note_on_c, 0, 65, 32
1, 178925, Note_on_c, 0, 65, 0
1, 178925, Note_on_c, 0, 70, 32
1, 179089, Note_on_c, 0, 77, 53
1, 179143, Note_on_c, 0, 77, 0
1, 179143, Note_on_c, 0, 77, 0
1, 179143, Note_on_c, 0, 82, 77
1, 179146, Note_on_c, 0, 70, 0
1, 179146, Note_on_c, 0, 73, 38
1, 179552, Control_c, 0, 64, 0
1, 179961, Note_on_c, 0, 82, 0
1, 179961, Note_on_c, 0, 80, 71
1, 179961, Note_on_c, 0, 73, 0
1, 180283, Note_on_c, 0, 70, 59
1, 180336, Note_on_c, 0, 70, 0
1, 180336, Note_on_c, 0, 73, 59
1, 180390, Note_on_c, 0, 73, 0
1, 180390, Note_on_c, 0, 80, 0
1, 180390, Note_on_c, 0, 79, 74
1, 180393, Control_c, 0, 64, 127
1, 180393, Note_on_c, 0, 51, 40
1, 180393, Note_on_c, 0, 39, 40
1, 180602, Note_on_c, 0, 39, 0
1, 180602, Note_on_c, 0, 51, 0
1, 180602, Note_on_c, 0, 51, 32
1, 180815, Note_on_c, 0, 51, 0
1, 180815, Note_on_c, 0, 55, 32
1, 181027, Note_on_c, 0, 79, 0
1, 181027, Note_on_c, 0, 77, 64
1, 181027, Note_on_c, 0, 55, 0
1, 181030, Note_on_c, 0, 61, 32
1, 181240, Note_on_c, 0, 77, 0
1, 181240, Note_on_c, 0, 75, 64
1, 181240, Note_on_c, 0, 61, 0
1, 181243, Note_on_c, 0, 55, 32
1, 181452, Note_on_c, 0, 55, 0
1, 181452, Note_on_c, 0, 51, 32
1, 181558, Note_on_c, 0, 63, 51
1, 181611, Note_on_c, 0, 63, 0
1, 181611, Note_on_c, 0, 67, 51
1, 181664, Note_on_c, 0, 67, 0
1, 181664, Note_on_c, 0, 75, 0
1, 181664, Note_on_c, 0, 73, 74
1, 181667, Note_on_c, 0, 51, 0
1, 181667, Note_on_c, 0, 39, 39
1, 181667, Note_on_c, 0, 51, 39
1, 181877, Note_on_c, 0, 51, 0
1, 181877, Note_on_c, 0, 39, 0
1, 181877, Note_on_c, 0, 51, 32
1, 182089, Note_on_c, 0, 51, 0
1, 182089, Note_on_c, 0, 55, 32
1, 182302, Note_on_c, 0, 73, 0
1, 182302, Note_on_c, 0, 72, 64
1, 182302, Note_on_c, 0, 55, 0
1, 182305, Note_on_c, 0, 61, 32
1, 182514, Note_on_c, 0, 72, 0
1, 182514, Note_on_c, 0, 70, 64
1, 182514, Note_on_c, 0, 61, 0
1, 182517, Note_on_c, 0, 55, 32
1, 182740, Note_on_c, 0, 55, 0
1, 182740, Note_on_c, 0, 51, 32
1, 182863, Note_on_c, 0, 68, 50
1, 182924, Note_on_c, 0, 68, 0
1, 182924, Note_on_c, 0, 71, 51
1, 182986, Note_on_c, 0, 71, 0
1, 182986, Note_on_c, 0, 70, 0
1, 182986, Note_on_c, 0, 77, 60
1, 182989, Note_on_c, 0, 51, 0
1, 182989, Note_on_c, 0, 44, 39
1, 182989, Note_on_c, 0, 56, 39
1, 182992, Control_c, 0, 64, 0
1, 183046, Control_c, 0, 64, 127
1, 183198, Note_on_c, 0, 56, 0
1, 183198, Note_on_c, 0, 44, 0
1, 183198, Note_on_c, 0, 59, 29
1, 183411, Note_on_c, 0, 59, 0
1, 183411, Note_on_c, 0, 62, 29
1, 183623, Note_on_c, 0, 62, 0
1, 183623, Note_on_c, 0, 65, 29
1, 183835, Note_on_c, 0, 65, 0
1, 183835, Note_on_c, 0, 62, 29
1, 184048, Note_on_c, 0, 62, 0
1, 184048, Note_on_c, 0, 59, 29
1, 184078, Control_c, 0, 64, 0
1, 184260, Note_on_c, 0, 77, 0
1, 184260, Note_on_c, 0, 75, 61
1, 184260, Note_on_c, 0, 59, 0
1, 184263, Note_on_c, 0, 56, 36
1, 184473, Note_on_c, 0, 56, 0
1, 184473, Note_on_c, 0, 60, 32
1, 184685, Note_on_c, 0, 60, 0
1, 184685, Note_on_c, 0, 63, 32
1, 184898, Note_on_c, 0, 63, 0
1, 184898, Note_on_c, 0, 68, 32
1, 185115, Note_on_c, 0, 75, 0
1, 185115, Note_on_c, 0, 73, 66
1, 185115, Note_on_c, 0, 75, 66
1, 185118, Note_on_c, 0, 68, 0
1, 185118, Note_on_c, 0, 67, 32
1, 185335, Note_on_c, 0, 63, 32
1, 185560, Note_on_c, 0, 75, 0
1, 185560, Note_on_c, 0, 73, 0
1, 185560, Note_on_c, 0, 72, 74
1, 185563, Note_on_c, 0, 75, 74
1, 185563, Note_on_c, 0, 63, 0
1, 185563, Note_on_c, 0, 67, 0
1, 185566, Control_c, 0, 64, 127
1, 185566, Note_on_c, 0, 44, 40
1, 185772, Note_on_c, 0, 44, 0
1, 185772, Note_on_c, 0, 51, 32
1, 185984, Note_on_c, 0, 51, 0
1, 185984, Note_on_c, 0, 56, 32
1, 186197, Note_on_c, 0, 75, 0
1, 186197, Note_on_c, 0, 72, 0
1, 186197, Note_on_c, 0, 77, 64
1, 186200, Note_on_c, 0, 56, 0
1, 186200, Note_on_c, 0, 60, 32
1, 186397, Note_on_c, 0, 77, 0
1, 186397, Note_on_c, 0, 75, 64
1, 186397, Note_on_c, 0, 60, 0
1, 186400, Note_on_c, 0, 63, 32
1, 186616, Note_on_c, 0, 63, 0
1, 186616, Note_on_c, 0, 68, 32
1, 186780, Note_on_c, 0, 75, 0
1, 186780, Note_on_c, 0, 75, 55
1, 186835, Note_on_c, 0, 75, 0
1, 186835, Note_on_c, 0, 80, 77
1, 186835, Note_on_c, 0, 68, 0
1, 186838, Note_on_c, 0, 72, 38
1, 187244, Control_c, 0, 64, 0
1, 187653, Note_on_c, 0, 80, 0
1, 187653, Note_on_c, 0, 79, 70
1, 187653, Note_on_c, 0, 72, 0
1, 188082, Note_on_c, 0, 79, 0
1, 188082, Note_on_c, 0, 73, 74
1, 188082, Note_on_c, 0, 77, 74
1, 188085, Note_on_c, 0, 49, 40
1, 188085, Control_c, 0, 64, 127
1, 188294, Note_on_c, 0, 49, 0
1, 188294, Note_on_c, 0, 53, 32
1, 188507, Note_on_c, 0, 53, 0
1, 188507, Note_on_c, 0, 58, 32
1, 188719, Note_on_c, 0, 77, 0
1, 188719, Note_on_c, 0, 73, 0
1, 188719, Note_on_c, 0, 79, 64
1, 188722, Note_on_c, 0, 58, 0
1, 188722, Note_on_c, 0, 61, 32
1, 188918, Note_on_c, 0, 79, 0
1, 188918, Note_on_c, 0, 77, 64
1, 188918, Note_on_c, 0, 61, 0
1, 188921, Note_on_c, 0, 65, 32
1, 189137, Note_on_c, 0, 65, 0
1, 189137, Note_on_c, 0, 70, 32
1, 189301, Note_on_c, 0, 77, 0
1, 189301, Note_on_c, 0, 77, 55
1, 189355, Note_on_c, 0, 77, 0
1, 189355, Note_on_c, 0, 82, 77
1, 189355, Note_on_c, 0, 70, 0
1, 189358, Note_on_c, 0, 73, 38
1, 189764, Control_c, 0, 64, 0
1, 190173, Note_on_c, 0, 82, 0
1, 190173, Note_on_c, 0, 80, 67
1, 190173, Note_on_c, 0, 73, 0
1, 190495, Note_on_c, 0, 70, 57
1, 190548, Note_on_c, 0, 70, 0
1, 190548, Note_on_c, 0, 73, 57
1, 190602, Note_on_c, 0, 73, 0
1, 190602, Note_on_c, 0, 80, 0
1, 190602, Note_on_c, 0, 79, 74
1, 190605, Note_on_c, 0, 51, 40
1, 190605, Note_on_c, 0, 39, 40
1, 190605, Control_c, 0, 64, 127
1, 190814, Note_on_c, 0, 39, 0
1, 190814, Note_on_c, 0, 51, 0
1, 190814, Note_on_c, 0, 51, 32
1, 191027, Note_on_c, 0, 51, 0
1, 191027, Note_on_c, 0, 55, 32
1, 191239, Note_on_c, 0, 79, 0
1, 191239, Note_on_c, 0, 77, 64
1, 191239, Note_on_c, 0, 55, 0
1, 191242, Note_on_c, 0, 61, 32
1, 191452, Note_on_c, 0, 77, 0
1, 191452, Note_on_c, 0, 75, 64
1, 191452, Note_on_c, 0, 61, 0
1, 191455, Note_on_c, 0, 55, 32
1, 191664, Note_on_c, 0, 55, 0
1, 191664, Note_on_c, 0, 51, 32
1, 191770, Note_on_c, 0, 63, 50
1, 191823, Note_on_c, 0, 63, 0
1, 191823, Note_on_c, 0, 67, 51
1, 191876, Note_on_c, 0, 67, 0
1, 191876, Note_on_c, 0, 75, 0
1, 191876, Note_on_c, 0, 73, 66
1, 191879, Note_on_c, 0, 51, 0
1, 191879, Note_on_c, 0, 51, 39
1, 191879, Note_on_c, 0, 39, 39
1, 192089, Note_on_c, 0, 39, 0
1, 192089, Note_on_c, 0, 51, 0
1, 192089, Note_on_c, 0, 51, 32
1, 192301, Note_on_c, 0, 51, 0
1, 192301, Note_on_c, 0, 55, 32
1, 192514, Note_on_c, 0, 73, 0
1, 192514, Note_on_c, 0, 72, 64
1, 192514, Note_on_c, 0, 55, 0
1, 192517, Note_on_c, 0, 61, 32
1, 192726, Note_on_c, 0, 72, 0
1, 192726, Note_on_c, 0, 70, 60
1, 192726, Note_on_c, 0, 61, 0
1, 192729, Note_on_c, 0, 55, 32
1, 192952, Note_on_c, 0, 55, 0
1, 192952, Note_on_c, 0, 51, 32
1, 193177, Note_on_c, 0, 70, 0
1, 193177, Note_on_c, 0, 68, 65
1, 193177, Note_on_c, 0, 51, 0
1, 193180, Note_on_c, 0, 56, 43
1, 193180, Control_c, 0, 64, 0
1, 193180, Note_on_c, 0, 60, 43
1, 193315, Control_c, 0, 64, 127
1, 193390, Note_on_c, 0, 68, 0
1, 193390, Note_on_c, 0, 72, 55
1, 193390, Note_on_c, 0, 60, 0
1, 193393, Note_on_c, 0, 56, 0
1, 193393, Note_on_c, 0, 63, 37
1, 193602, Note_on_c, 0, 72, 0
1, 193602, Note_on_c, 0, 75, 54
1, 193602, Note_on_c, 0, 63, 0
1, 193605, Note_on_c, 0, 68, 36
1, 193815, Note_on_c, 0, 75, 0
1, 193815, Note_on_c, 0, 80, 53
1, 193815, Note_on_c, 0, 68, 0
1, 193818, Note_on_c, 0, 72, 36
1, 194034, Note_on_c, 0, 80, 0
1, 194034, Note_on_c, 0, 84, 52
1, 194034, Note_on_c, 0, 72, 0
1, 194037, Note_on_c, 0, 75, 35
1, 194262, Note_on_c, 0, 84, 0
1, 194262, Note_on_c, 0, 87, 51
1, 194262, Note_on_c, 0, 75, 0
1, 194265, Note_on_c, 0, 80, 34
1, 194496, Note_on_c, 0, 87, 0
1, 194496, Note_on_c, 0, 92, 50
1, 194496, Note_on_c, 0, 80, 0
1, 194499, Note_on_c, 0, 84, 32
1, 194956, Note_on_c, 0, 84, 0
1, 194956, Control_c, 0, 64, 0
1, 195416, Note_on_c, 0, 92, 0
1, 195915, Note_on_c, 0, 68, 46
1, 196582, Note_on_c, 0, 70, 43
1, 196619, Note_on_c, 0, 68, 0
1, 196805, Note_on_c, 0, 68, 43
1, 196845, Note_on_c, 0, 70, 0
1, 197293, Note_on_c, 0, 60, 34
1, 197293, Note_on_c, 0, 54, 31
1, 197293, Note_on_c, 0, 44, 31
1, 197296, Note_on_c, 0, 51, 31
1, 198589, Note_on_c, 0, 60, 0
1, 198589, Note_on_c, 0, 68, 0
1, 198589, Note_on_c, 0, 68, 46
1, 198592, Note_on_c, 0, 51, 0
1, 198592, Note_on_c, 0, 44, 0
1, 198592, Note_on_c, 0, 54, 0
1, 199250, Note_on_c, 0, 70, 43
1, 199287, Note_on_c, 0, 68, 0
1, 199470, Note_on_c, 0, 68, 43
1, 199509, Note_on_c, 0, 70, 0
1, 199933, Note_on_c, 0, 61, 34
1, 199933, Note_on_c, 0, 44, 32
1, 199933, Note_on_c, 0, 53, 32
1, 201229, Note_on_c, 0, 61, 0
1, 201229, Note_on_c, 0, 68, 0
1, 201229, Note_on_c, 0, 68, 46
1, 201232, Note_on_c, 0, 53, 0
1, 201232, Note_on_c, 0, 44, 0
1, 201890, Note_on_c, 0, 70, 40
1, 201927, Note_on_c, 0, 68, 0
1, 202110, Note_on_c, 0, 68, 40
1, 202148, Note_on_c, 0, 70, 0
1, 202569, Note_on_c, 0, 62, 35
1, 202569, Note_on_c, 0, 44, 30
1, 202569, Note_on_c, 0, 47, 30
1, 202572, Note_on_c, 0, 53, 30
1, 203525, Note_on_c, 0, 62, 0
1, 203525, Note_on_c, 0, 63, 38
1, 203525, Note_on_c, 0, 53, 0
1, 203528, Note_on_c, 0, 47, 0
1, 203528, Note_on_c, 0, 44, 0
1, 203528, Note_on_c, 0, 54, 30
1, 203531, Note_on_c, 0, 48, 30
1, 203531, Note_on_c, 0, 44, 30
1, 204093, Note_on_c, 0, 63, 0
1, 204093, Note_on_c, 0, 68, 0
1, 204093, Note_on_c, 0, 68, 40
1, 204096, Note_on_c, 0, 60, 40
1, 204096, Note_on_c, 0, 66, 40
1, 204096, Note_on_c, 0, 44, 0
1, 204099, Note_on_c, 0, 48, 0
1, 204099, Note_on_c, 0, 54, 0
1, 204099, Note_on_c, 0, 44, 29
1, 204102, Note_on_c, 0, 51, 29
1, 204102, Note_on_c, 0, 56, 29
1, 206728, Note_on_c, 0, 66, 0
1, 206728, Note_on_c, 0, 60, 0
1, 206728, Note_on_c, 0, 68, 0
1, 206731, Note_on_c, 0, 56, 0
1, 206731, Note_on_c, 0, 51, 0
1, 206731, Note_on_c, 0, 44, 0
1, 207179, Note_on_c, 0, 65, 34
1, 207244, Note_on_c, 0, 65, 0
1, 207244, Note_on_c, 0, 68, 46
1, 207244, Control_c, 0, 64, 127
1, 207247, Note_on_c, 0, 37, 37
1, 207247, Note_on_c, 0, 49, 37
1, 207354, Note_on_c, 0, 49, 0
1, 207354, Note_on_c, 0, 37, 0
1, 207464, Note_on_c, 0, 53, 30
1, 207684, Note_on_c, 0, 53, 0
1, 207684, Note_on_c, 0, 56, 30
1, 207905, Note_on_c, 0, 68, 0
1, 207905, Note_on_c, 0, 67, 43
1, 207905, Note_on_c, 0, 56, 0
1, 207908, Note_on_c, 0, 61, 30
1, 208015, Note_on_c, 0, 67, 0
1, 208015, Note_on_c, 0, 68, 40
1, 208125, Note_on_c, 0, 68, 0
1, 208125, Note_on_c, 0, 67, 44
1, 208125, Note_on_c, 0, 61, 0
1, 208128, Note_on_c, 0, 56, 30
1, 208240, Note_on_c, 0, 67, 0
1, 208240, Note_on_c, 0, 68, 40
1, 208354, Note_on_c, 0, 68, 0
1, 208354, Note_on_c, 0, 70, 44
1, 208354, Note_on_c, 0, 56, 0
1, 208357, Note_on_c, 0, 53, 30
1, 208469, Note_on_c, 0, 70, 0
1, 208469, Note_on_c, 0, 68, 40
1, 208598, Note_on_c, 0, 68, 0
1, 208598, Note_on_c, 0, 65, 46
1, 208598, Note_on_c, 0, 53, 0
1, 208601, Note_on_c, 0, 49, 35
1, 208812, Note_on_c, 0, 49, 0
1, 208812, Note_on_c, 0, 53, 19
1, 209026, Note_on_c, 0, 89, 35
1, 209026, Note_on_c, 0, 53, 0
1, 209026, Note_on_c, 0, 56, 19
1, 209097, Note_on_c, 0, 89, 0
1, 209097, Note_on_c, 0, 87, 35
1, 209169, Note_on_c, 0, 87, 0
1, 209169, Note_on_c, 0, 85, 36
1, 209242, Note_on_c, 0, 85, 0
1, 209242, Note_on_c, 0, 84, 36
1, 209242, Note_on_c, 0, 56, 0
1, 209245, Note_on_c, 0, 61, 19
1, 209315, Note_on_c, 0, 84, 0
1, 209315, Note_on_c, 0, 82, 37
1, 209389, Note_on_c, 0, 82, 0
1, 209389, Note_on_c, 0, 80, 37
1, 209464, Note_on_c, 0, 80, 0
1, 209464, Note_on_c, 0, 78, 38
1, 209464, Note_on_c, 0, 61, 0
1, 209467, Note_on_c, 0, 56, 19
1, 209540, Note_on_c, 0, 78, 0
1, 209540, Note_on_c, 0, 77, 38
1, 209616, Note_on_c, 0, 77, 0
1, 209616, Note_on_c, 0, 75, 39
1, 209693, Note_on_c, 0, 75, 0
1, 209693, Note_on_c, 0, 73, 39
1, 209693, Note_on_c, 0, 56, 0
1, 209696, Note_on_c, 0, 53, 19
1, 209771, Note_on_c, 0, 73, 0
1, 209771, Note_on_c, 0, 72, 40
1, 209853, Note_on_c, 0, 72, 0
1, 209853, Note_on_c, 0, 70, 40
1, 209897, Note_on_c, 0, 65, 35
1, 209940, Note_on_c, 0, 65, 0
1, 209940, Note_on_c, 0, 70, 0
1, 209940, Note_on_c, 0, 65, 0
1, 209943, Note_on_c, 0, 68, 46
1, 209943, Note_on_c, 0, 53, 0
1, 209943, Note_on_c, 0, 37, 37
1, 209946, Control_c, 0, 64, 0
1, 209946, Note_on_c, 0, 49, 37
1, 210007, Control_c, 0, 64, 127
1, 210050, Note_on_c, 0, 49, 0
1, 210050, Note_on_c, 0, 37, 0
1, 210160, Note_on_c, 0, 53, 30
1, 210380, Note_on_c, 0, 53, 0
1, 210380, Note_on_c, 0, 56, 30
1, 210600, Note_on_c, 0, 68, 0
1, 210600, Note_on_c, 0, 67, 43
1, 210600, Note_on_c, 0, 56, 0
1, 210603, Note_on_c, 0, 61, 30
1, 210710, Note_on_c, 0, 67, 0
1, 210710, Note_on_c, 0, 68, 40
1, 210821, Note_on_c, 0, 68, 0
1, 210821, Note_on_c, 0, 67, 44
1, 210821, Note_on_c, 0, 61, 0
1, 210824, Note_on_c, 0, 56, 30
1, 210935, Note_on_c, 0, 67, 0
1, 210935, Note_on_c, 0, 68, 40
1, 211050, Note_on_c, 0, 68, 0
1, 211050, Note_on_c, 0, 70, 43
1, 211050, Note_on_c, 0, 56, 0
1, 211053, Note_on_c, 0, 53, 30
1, 211164, Note_on_c, 0, 70, 0
1, 211164, Note_on_c, 0, 68, 40
1, 211293, Note_on_c, 0, 68, 0
1, 211293, Note_on_c, 0, 65, 46
1, 211293, Note_on_c, 0, 53, 0
1, 211296, Note_on_c, 0, 49, 35
1, 211507, Note_on_c, 0, 49, 0
1, 211507, Note_on_c, 0, 53, 19
1, 211721, Note_on_c, 0, 89, 34
1, 211721, Note_on_c, 0, 53, 0
1, 211721, Note_on_c, 0, 56, 19
1, 211793, Note_on_c, 0, 89, 0
1, 211793, Note_on_c, 0, 87, 34
1, 211865, Note_on_c, 0, 87, 0
1, 211865, Note_on_c, 0, 85, 34
1, 211937, Note_on_c, 0, 85, 0
1, 211937, Note_on_c, 0, 84, 35
1, 211937, Note_on_c, 0, 56, 0
1, 211940, Note_on_c, 0, 61, 19
1, 212011, Note_on_c, 0, 84, 0
1, 212011, Note_on_c, 0, 82, 35
1, 212085, Note_on_c, 0, 82, 0
1, 212085, Note_on_c, 0, 80, 36
1, 212160, Note_on_c, 0, 80, 0
1, 212160, Note_on_c, 0, 78, 36
1, 212160, Note_on_c, 0, 61, 0
1, 212163, Note_on_c, 0, 56, 19
1, 212235, Note_on_c, 0, 78, 0
1, 212235, Note_on_c, 0, 77, 37
1, 212312, Note_on_c, 0, 77, 0
1, 212312, Note_on_c, 0, 75, 37
1, 212389, Note_on_c, 0, 75, 0
1, 212389, Note_on_c, 0, 73, 38
1, 212389, Note_on_c, 0, 56, 0
1, 212392, Note_on_c, 0, 53, 19
1, 212467, Note_on_c, 0, 73, 0
1, 212467, Note_on_c, 0, 72, 38
1, 212549, Note_on_c, 0, 72, 0
1, 212549, Note_on_c, 0, 73, 38
1, 212634, Note_on_c, 0, 73, 0
1, 212634, Note_on_c, 0, 65, 0
1, 212634, Note_on_c, 0, 75, 46
1, 212637, Note_on_c, 0, 53, 0
1, 212637, Note_on_c, 0, 44, 37
1, 212637, Note_on_c, 0, 56, 37
1, 212640, Control_c, 0, 64, 0
1, 212724, Control_c, 0, 64, 127
1, 212744, Note_on_c, 0, 56, 0
1, 212744, Note_on_c, 0, 44, 0
1, 212854, Note_on_c, 0, 56, 30
1, 213074, Note_on_c, 0, 56, 0
1, 213074, Note_on_c, 0, 60, 30
1, 213294, Note_on_c, 0, 75, 0
1, 213294, Note_on_c, 0, 74, 42
1, 213294, Note_on_c, 0, 60, 0
1, 213297, Note_on_c, 0, 66, 30
1, 213404, Note_on_c, 0, 74, 0
1, 213404, Note_on_c, 0, 75, 40
1, 213515, Note_on_c, 0, 75, 0
1, 213515, Note_on_c, 0, 78, 43
1, 213515, Note_on_c, 0, 66, 0
1, 213518, Note_on_c, 0, 60, 30
1, 213629, Note_on_c, 0, 78, 0
1, 213629, Note_on_c, 0, 77, 40
1, 213744, Note_on_c, 0, 77, 0
1, 213744, Note_on_c, 0, 75, 40
1, 213744, Note_on_c, 0, 60, 0
1, 213747, Note_on_c, 0, 56, 30
1, 213858, Note_on_c, 0, 75, 0
1, 213858, Note_on_c, 0, 73, 40
1, 213988, Note_on_c, 0, 73, 0
1, 213988, Note_on_c, 0, 72, 46
1, 213988, Note_on_c, 0, 56, 0
1, 213991, Note_on_c, 0, 56, 37
1, 213991, Note_on_c, 0, 44, 37
1, 214095, Note_on_c, 0, 44, 0
1, 214095, Note_on_c, 0, 56, 0
1, 214201, Note_on_c, 0, 56, 19
1, 214415, Note_on_c, 0, 90, 35
1, 214415, Note_on_c, 0, 56, 0
1, 214415, Note_on_c, 0, 60, 19
1, 214487, Note_on_c, 0, 90, 0
1, 214487, Note_on_c, 0, 89, 35
1, 214559, Note_on_c, 0, 89, 0
1, 214559, Note_on_c, 0, 87, 35
1, 214631, Note_on_c, 0, 87, 0
1, 214631, Note_on_c, 0, 85, 36
1, 214631, Note_on_c, 0, 60, 0
1, 214634, Note_on_c, 0, 66, 19
1, 214705, Note_on_c, 0, 85, 0
1, 214705, Note_on_c, 0, 84, 36
1, 214779, Note_on_c, 0, 84, 0
1, 214779, Note_on_c, 0, 82, 36
1, 214854, Note_on_c, 0, 82, 0
1, 214854, Note_on_c, 0, 80, 37
1, 214854, Note_on_c, 0, 66, 0
1, 214857, Note_on_c, 0, 60, 19
1, 214929, Note_on_c, 0, 80, 0
1, 214929, Note_on_c, 0, 78, 37
1, 215006, Note_on_c, 0, 78, 0
1, 215006, Note_on_c, 0, 77, 37
1, 215083, Note_on_c, 0, 77, 0
1, 215083, Note_on_c, 0, 75, 38
1, 215083, Note_on_c, 0, 60, 0
1, 215086, Note_on_c, 0, 56, 19
1, 215161, Note_on_c, 0, 75, 0
1, 215161, Note_on_c, 0, 73, 38
1, 215243, Note_on_c, 0, 73, 0
1, 215243, Note_on_c, 0, 73, 38
1, 215285, Note_on_c, 0, 65, 34
1, 215328, Note_on_c, 0, 65, 0
1, 215328, Note_on_c, 0, 73, 0
1, 215328, Note_on_c, 0, 72, 0
1, 215331, Note_on_c, 0, 73, 46
1, 215331, Note_on_c, 0, 56, 0
1, 215331, Note_on_c, 0, 49, 37
1, 215334, Control_c, 0, 64, 0
1, 215334, Note_on_c, 0, 37, 37
1, 215408, Control_c, 0, 64, 127
1, 215438, Note_on_c, 0, 37, 0
1, 215438, Note_on_c, 0, 49, 0
1, 215548, Note_on_c, 0, 53, 30
1, 215768, Note_on_c, 0, 53, 0
1, 215768, Note_on_c, 0, 56, 30
1, 215988, Note_on_c, 0, 73, 0
1, 215988, Note_on_c, 0, 72, 42
1, 215988, Note_on_c, 0, 56, 0
1, 215991, Note_on_c, 0, 61, 30
1, 216099, Note_on_c, 0, 72, 0
1, 216099, Note_on_c, 0, 73, 40
1, 216209, Note_on_c, 0, 73, 0
1, 216209, Note_on_c, 0, 72, 40
1, 216209, Note_on_c, 0, 61, 0
1, 216212, Note_on_c, 0, 56, 30
1, 216323, Note_on_c, 0, 72, 0
1, 216323, Note_on_c, 0, 73, 40
1, 216438, Note_on_c, 0, 73, 0
1, 216438, Note_on_c, 0, 77, 43
1, 216438, Note_on_c, 0, 56, 0
1, 216441, Note_on_c, 0, 53, 30
1, 216553, Note_on_c, 0, 77, 0
1, 216553, Note_on_c, 0, 73, 40
1, 216682, Note_on_c, 0, 73, 0
1, 216682, Note_on_c, 0, 68, 46
1, 216682, Note_on_c, 0, 53, 0
1, 216685, Note_on_c, 0, 49, 35
1, 216896, Note_on_c, 0, 49, 0
1, 216896, Note_on_c, 0, 53, 19
1, 217110, Note_on_c, 0, 89, 35
1, 217110, Note_on_c, 0, 53, 0
1, 217110, Note_on_c, 0, 56, 19
1, 217181, Note_on_c, 0, 89, 0
1, 217181, Note_on_c, 0, 87, 35
1, 217253, Note_on_c, 0, 87, 0
1, 217253, Note_on_c, 0, 85, 35
1, 217326, Note_on_c, 0, 85, 0
1, 217326, Note_on_c, 0, 84, 36
1, 217326, Note_on_c, 0, 56, 0
1, 217329, Note_on_c, 0, 61, 19
1, 217399, Note_on_c, 0, 84, 0
1, 217399, Note_on_c, 0, 82, 36
1, 217473, Note_on_c, 0, 82, 0
1, 217473, Note_on_c, 0, 80, 37
1, 217548, Note_on_c, 0, 80, 0
1, 217548, Note_on_c, 0, 78, 37
1, 217548, Note_on_c, 0, 61, 0
1, 217551, Note_on_c, 0, 56, 19
1, 217624, Note_on_c, 0, 78, 0
1, 217624, Note_on_c, 0, 77, 38
1, 217700, Note_on_c, 0, 77, 0
1, 217700, Note_on_c, 0, 75, 38
1, 217777, Note_on_c, 0, 75, 0
1, 217777, Note_on_c, 0, 73, 39
1, 217777, Note_on_c, 0, 56, 0
1, 217780, Note_on_c, 0, 53, 19
1, 217855, Note_on_c, 0, 73, 0
1, 217855, Note_on_c, 0, 72, 39
1, 217937, Note_on_c, 0, 72, 0
1, 217937, Note_on_c, 0, 73, 39
1, 217979, Note_on_c, 0, 66, 34
1, 218022, Note_on_c, 0, 66, 0
1, 218022, Note_on_c, 0, 73, 0
1, 218022, Note_on_c, 0, 68, 0
1, 218025, Note_on_c, 0, 70, 46
1, 218025, Note_on_c, 0, 53, 0
1, 218025, Control_c, 0, 64, 0
1, 218028, Note_on_c, 0, 42, 37
1, 218028, Note_on_c, 0, 54, 37
1, 218115, Control_c, 0, 64, 127
1, 218132, Note_on_c, 0, 54, 0
1, 218132, Note_on_c, 0, 42, 0
1, 218242, Note_on_c, 0, 58, 30
1, 218462, Note_on_c, 0, 58, 0
1, 218462, Note_on_c, 0, 60, 30
1, 218683, Note_on_c, 0, 70, 0
1, 218683, Note_on_c, 0, 69, 43
1, 218683, Note_on_c, 0, 60, 0
1, 218686, Note_on_c, 0, 66, 30
1, 218793, Note_on_c, 0, 69, 0
1, 218793, Note_on_c, 0, 70, 40
1, 218903, Note_on_c, 0, 70, 0
1, 218903, Note_on_c, 0, 72, 44
1, 218903, Note_on_c, 0, 66, 0
1, 218906, Note_on_c, 0, 61, 30
1, 219017, Note_on_c, 0, 72, 0
1, 219017, Note_on_c, 0, 70, 40
1, 219132, Note_on_c, 0, 70, 0
1, 219132, Note_on_c, 0, 69, 43
1, 219132, Note_on_c, 0, 61, 0
1, 219135, Note_on_c, 0, 58, 30
1, 219247, Note_on_c, 0, 69, 0
1, 219247, Note_on_c, 0, 70, 40
1, 219376, Note_on_c, 0, 70, 0
1, 219376, Note_on_c, 0, 73, 46
1, 219376, Note_on_c, 0, 58, 0
1, 219379, Note_on_c, 0, 42, 37
1, 219379, Note_on_c, 0, 54, 37
1, 219483, Note_on_c, 0, 54, 0
1, 219483, Note_on_c, 0, 42, 0
1, 219590, Note_on_c, 0, 73, 0
1, 219590, Note_on_c, 0, 94, 35
1, 219590, Note_on_c, 0, 58, 19
1, 219661, Note_on_c, 0, 94, 0
1, 219661, Note_on_c, 0, 92, 35
1, 219732, Note_on_c, 0, 92, 0
1, 219732, Note_on_c, 0, 90, 35
1, 219804, Note_on_c, 0, 90, 0
1, 219804, Note_on_c, 0, 89, 36
1, 219804, Note_on_c, 0, 58, 0
1, 219807, Note_on_c, 0, 61, 19
1, 219875, Note_on_c, 0, 89, 0
1, 219875, Note_on_c, 0, 87, 36
1, 219947, Note_on_c, 0, 87, 0
1, 219947, Note_on_c, 0, 85, 37
1, 220020, Note_on_c, 0, 85, 0
1, 220020, Note_on_c, 0, 84, 37
1, 220020, Note_on_c, 0, 61, 0
1, 220023, Note_on_c, 0, 66, 19
1, 220093, Note_on_c, 0, 84, 0
1, 220093, Note_on_c, 0, 82, 38
1, 220167, Note_on_c, 0, 82, 0
1, 220167, Note_on_c, 0, 80, 38
1, 220242, Note_on_c, 0, 80, 0
1, 220242, Note_on_c, 0, 78, 38
1, 220242, Note_on_c, 0, 66, 0
1, 220245, Note_on_c, 0, 61, 19
1, 220318, Note_on_c, 0, 78, 0
1, 220318, Note_on_c, 0, 77, 39
1, 220394, Note_on_c, 0, 77, 0
1, 220394, Note_on_c, 0, 75, 39
1, 220471, Note_on_c, 0, 75, 0
1, 220471, Note_on_c, 0, 73, 40
1, 220471, Note_on_c, 0, 61, 0
1, 220474, Note_on_c, 0, 58, 19
1, 220549, Note_on_c, 0, 73, 0
1, 220549, Note_on_c, 0, 72, 40
1, 220631, Note_on_c, 0, 72, 0
1, 220631, Note_on_c, 0, 70, 42
1, 220674, Note_on_c, 0, 65, 34
1, 220717, Note_on_c, 0, 65, 0
1, 220717, Note_on_c, 0, 70, 0
1, 220717, Note_on_c, 0, 68, 46
1, 220720, Note_on_c, 0, 58, 0
1, 220720, Note_on_c, 0, 49, 37
1, 220720, Note_on_c, 0, 37, 37
1, 220723, Control_c, 0, 64, 0
1, 220791, Control_c, 0, 64, 127
1, 220827, Note_on_c, 0, 37, 0
1, 220827, Note_on_c, 0, 49, 0
1, 220938, Note_on_c, 0, 56, 30
1, 221158, Note_on_c, 0, 56, 0
1, 221158, Note_on_c, 0, 61, 30
1, 221378, Note_on_c, 0, 68, 0
1, 221378, Note_on_c, 0, 67, 43
1, 221378, Note_on_c, 0, 61, 0
1, 221381, Note_on_c, 0, 65, 30
1, 221488, Note_on_c, 0, 67, 0
1, 221488, Note_on_c, 0, 68, 40
1, 221598, Note_on_c, 0, 68, 0
1, 221598, Note_on_c, 0, 67, 44
1, 221598, Note_on_c, 0, 65, 0
1, 221601, Note_on_c, 0, 61, 30
1, 221713, Note_on_c, 0, 67, 0
1, 221713, Note_on_c, 0, 68, 40
1, 221828, Note_on_c, 0, 68, 0
1, 221828, Note_on_c, 0, 70, 44
1, 221828, Note_on_c, 0, 61, 0
1, 221831, Note_on_c, 0, 56, 30
1, 221942, Note_on_c, 0, 70, 0
1, 221942, Note_on_c, 0, 68, 40
1, 222071, Note_on_c, 0, 68, 0
1, 222071, Note_on_c, 0, 65, 46
1, 222071, Note_on_c, 0, 56, 0
1, 222074, Note_on_c, 0, 49, 37
1, 222074, Note_on_c, 0, 37, 37
1, 222178, Note_on_c, 0, 37, 0
1, 222178, Note_on_c, 0, 49, 0
1, 222285, Note_on_c, 0, 89, 35
1, 222285, Note_on_c, 0, 56, 19
1, 222357, Note_on_c, 0, 89, 0
1, 222357, Note_on_c, 0, 87, 35
1, 222428, Note_on_c, 0, 87, 0
1, 222428, Note_on_c, 0, 85, 35
1, 222499, Note_on_c, 0, 85, 0
1, 222499, Note_on_c, 0, 84, 36
1, 222499, Note_on_c, 0, 56, 0
1, 222502, Note_on_c, 0, 61, 19
1, 222570, Note_on_c, 0, 84, 0
1, 222570, Note_on_c, 0, 82, 36
1, 222642, Note_on_c, 0, 82, 0
1, 222642, Note_on_c, 0, 80, 37
1, 222715, Note_on_c, 0, 80, 0
1, 222715, Note_on_c, 0, 78, 37
1, 222715, Note_on_c, 0, 61, 0
1, 222718, Note_on_c, 0, 65, 19
1, 222789, Note_on_c, 0, 78, 0
1, 222789, Note_on_c, 0, 77, 38
1, 222863, Note_on_c, 0, 77, 0
1, 222863, Note_on_c, 0, 75, 38
1, 222938, Note_on_c, 0, 75, 0
1, 222938, Note_on_c, 0, 73, 38
1, 222938, Note_on_c, 0, 65, 0
1, 222941, Note_on_c, 0, 61, 19
1, 223013, Note_on_c, 0, 73, 0
1, 223013, Note_on_c, 0, 72, 39
1, 223090, Note_on_c, 0, 72, 0
1, 223090, Note_on_c, 0, 70, 39
1, 223167, Note_on_c, 0, 70, 0
1, 223167, Note_on_c, 0, 68, 40
1, 223167, Note_on_c, 0, 61, 0
1, 223170, Note_on_c, 0, 56, 19
1, 223245, Note_on_c, 0, 68, 0
1, 223245, Note_on_c, 0, 66, 40
1, 223327, Note_on_c, 0, 66, 0
1, 223327, Note_on_c, 0, 65, 42
1, 223370, Note_on_c, 0, 66, 34
1, 223413, Note_on_c, 0, 66, 0
1, 223413, Note_on_c, 0, 65, 0
1, 223413, Note_on_c, 0, 65, 0
1, 223416, Note_on_c, 0, 70, 46
1, 223416, Note_on_c, 0, 56, 0
1, 223416, Control_c, 0, 64, 0
1, 223419, Note_on_c, 0, 54, 37
1, 223419, Note_on_c, 0, 42, 37
1, 223492, Control_c, 0, 64, 127
1, 223523, Note_on_c, 0, 42, 0
1, 223523, Note_on_c, 0, 54, 0
1, 223633, Note_on_c, 0, 58, 30
1, 223853, Note_on_c, 0, 58, 0
1, 223853, Note_on_c, 0, 60, 30
1, 224074, Note_on_c, 0, 70, 0
1, 224074, Note_on_c, 0, 69, 43
1, 224074, Note_on_c, 0, 60, 0
1, 224077, Note_on_c, 0, 66, 30
1, 224184, Note_on_c, 0, 69, 0
1, 224184, Note_on_c, 0, 70, 40
1, 224294, Note_on_c, 0, 70, 0
1, 224294, Note_on_c, 0, 72, 43
1, 224294, Note_on_c, 0, 66, 0
1, 224297, Note_on_c, 0, 61, 30
1, 224408, Note_on_c, 0, 72, 0
1, 224408, Note_on_c, 0, 70, 40
1, 224523, Note_on_c, 0, 70, 0
1, 224523, Note_on_c, 0, 69, 43
1, 224523, Note_on_c, 0, 61, 0
1, 224526, Note_on_c, 0, 58, 30
1, 224638, Note_on_c, 0, 69, 0
1, 224638, Note_on_c, 0, 70, 40
1, 224767, Note_on_c, 0, 70, 0
1, 224767, Note_on_c, 0, 73, 46
1, 224767, Note_on_c, 0, 58, 0
1, 224770, Note_on_c, 0, 54, 37
1, 224770, Note_on_c, 0, 42, 37
1, 224874, Note_on_c, 0, 42, 0
1, 224874, Note_on_c, 0, 54, 0
1, 224981, Note_on_c, 0, 73, 0
1, 224981, Note_on_c, 0, 94, 43
1, 224981, Note_on_c, 0, 58, 19
1, 225052, Note_on_c, 0, 94, 0
1, 225052, Note_on_c, 0, 92, 43
1, 225123, Note_on_c, 0, 92, 0
1, 225123, Note_on_c, 0, 90, 43
1, 225195, Note_on_c, 0, 90, 0
1, 225195, Note_on_c, 0, 89, 43
1, 225195, Note_on_c, 0, 58, 0
1, 225198, Note_on_c, 0, 61, 19
1, 225266, Note_on_c, 0, 89, 0
1, 225266, Note_on_c, 0, 87, 43
1, 225338, Note_on_c, 0, 87, 0
1, 225338, Note_on_c, 0, 85, 42
1, 225411, Note_on_c, 0, 85, 0
1, 225411, Note_on_c, 0, 84, 42
1, 225411, Note_on_c, 0, 61, 0
1, 225414, Note_on_c, 0, 66, 19
1, 225484, Note_on_c, 0, 84, 0
1, 225484, Note_on_c, 0, 82, 42
1, 225558, Note_on_c, 0, 82, 0
1, 225558, Note_on_c, 0, 80, 42
1, 225633, Note_on_c, 0, 80, 0
1, 225633, Note_on_c, 0, 78, 42
1, 225633, Note_on_c, 0, 66, 0
1, 225636, Note_on_c, 0, 61, 19
1, 225709, Note_on_c, 0, 78, 0
1, 225709, Note_on_c, 0, 77, 40
1, 225785, Note_on_c, 0, 77, 0
1, 225785, Note_on_c, 0, 75, 40
1, 225862, Note_on_c, 0, 75, 0
1, 225862, Note_on_c, 0, 73, 40
1, 225862, Note_on_c, 0, 61, 0
1, 225865, Note_on_c, 0, 58, 19
1, 225940, Note_on_c, 0, 73, 0
1, 225940, Note_on_c, 0, 72, 40
1, 226022, Note_on_c, 0, 72, 0
1, 226022, Note_on_c, 0, 70, 40
1, 226065, Note_on_c, 0, 65, 34
1, 226108, Note_on_c, 0, 65, 0
1, 226108, Note_on_c, 0, 70, 0
1, 226108, Note_on_c, 0, 68, 46
1, 226111, Note_on_c, 0, 58, 0
1, 226111, Control_c, 0, 64, 0
1, 226111, Note_on_c, 0, 37, 37
1, 226114, Note_on_c, 0, 49, 37
1, 226208, Control_c, 0, 64, 127
1, 226219, Note_on_c, 0, 49, 0
1, 226219, Note_on_c, 0, 37, 0
1, 226329, Note_on_c, 0, 56, 30
1, 226549, Note_on_c, 0, 56, 0
1, 226549, Note_on_c, 0, 61, 30
1, 226769, Note_on_c, 0, 68, 0
1, 226769, Note_on_c, 0, 67, 43
1, 226769, Note_on_c, 0, 61, 0
1, 226772, Note_on_c, 0, 65, 30
1, 226879, Note_on_c, 0, 67, 0
1, 226879, Note_on_c, 0, 68, 40
1, 226989, Note_on_c, 0, 68, 0
1, 226989, Note_on_c, 0, 67, 43
1, 226989, Note_on_c, 0, 65, 0
1, 226992, Note_on_c, 0, 61, 30
1, 227104, Note_on_c, 0, 67, 0
1, 227104, Note_on_c, 0, 68, 40
1, 227219, Note_on_c, 0, 68, 0
1, 227219, Note_on_c, 0, 70, 43
1, 227219, Note_on_c, 0, 61, 0
1, 227222, Note_on_c, 0, 56, 30
1, 227333, Note_on_c, 0, 70, 0
1, 227333, Note_on_c, 0, 68, 40
1, 227462, Note_on_c, 0, 68, 0
1, 227462, Note_on_c, 0, 65, 46
1, 227462, Note_on_c, 0, 56, 0
1, 227465, Note_on_c, 0, 37, 37
1, 227465, Note_on_c, 0, 49, 37
1, 227569, Note_on_c, 0, 49, 0
1, 227569, Note_on_c, 0, 37, 0
1, 227676, Note_on_c, 0, 56, 19
1, 227890, Note_on_c, 0, 89, 36
1, 227890, Note_on_c, 0, 56, 0
1, 227890, Note_on_c, 0, 61, 19
1, 227962, Note_on_c, 0, 89, 0
1, 227962, Note_on_c, 0, 87, 36
1, 228034, Note_on_c, 0, 87, 0
1, 228034, Note_on_c, 0, 85, 37
1, 228106, Note_on_c, 0, 85, 0
1, 228106, Note_on_c, 0, 84, 37
1, 228106, Note_on_c, 0, 61, 0
1, 228109, Note_on_c, 0, 65, 19
1, 228180, Note_on_c, 0, 84, 0
1, 228180, Note_on_c, 0, 82, 38
1, 228254, Note_on_c, 0, 82, 0
1, 228254, Note_on_c, 0, 80, 39
1, 228329, Note_on_c, 0, 80, 0
1, 228329, Note_on_c, 0, 78, 39
1, 228329, Note_on_c, 0, 65, 0
1, 228332, Note_on_c, 0, 61, 19
1, 228404, Note_on_c, 0, 78, 0
1, 228404, Note_on_c, 0, 77, 40
1, 228481, Note_on_c, 0, 77, 0
1, 228481, Note_on_c, 0, 75, 42
1, 228558, Note_on_c, 0, 75, 0
1, 228558, Note_on_c, 0, 73, 42
1, 228558, Note_on_c, 0, 61, 0
1, 228561, Note_on_c, 0, 56, 19
1, 228636, Note_on_c, 0, 73, 0
1, 228636, Note_on_c, 0, 72, 43
1, 228718, Note_on_c, 0, 72, 0
1, 228718, Note_on_c, 0, 73, 43
1, 228761, Note_on_c, 0, 66, 34
1, 228783, Note_on_c, 0, 66, 0
1, 228783, Note_on_c, 0, 72, 34
1, 228804, Note_on_c, 0, 72, 0
1, 228804, Note_on_c, 0, 73, 0
1, 228804, Note_on_c, 0, 65, 0
1, 228807, Note_on_c, 0, 75, 46
1, 228807, Note_on_c, 0, 56, 0
1, 228807, Control_c, 0, 64, 0
1, 228810, Note_on_c, 0, 32, 37
1, 228810, Note_on_c, 0, 44, 37
1, 228866, Control_c, 0, 64, 127
1, 228914, Note_on_c, 0, 44, 0
1, 228914, Note_on_c, 0, 32, 0
1, 229024, Note_on_c, 0, 56, 30
1, 229245, Note_on_c, 0, 56, 0
1, 229245, Note_on_c, 0, 60, 30
1, 229465, Note_on_c, 0, 75, 0
1, 229465, Note_on_c, 0, 74, 44
1, 229465, Note_on_c, 0, 60, 0
1, 229468, Note_on_c, 0, 66, 30
1, 229575, Note_on_c, 0, 74, 0
1, 229575, Note_on_c, 0, 75, 40
1, 229685, Note_on_c, 0, 75, 0
1, 229685, Note_on_c, 0, 77, 44
1, 229685, Note_on_c, 0, 66, 0
1, 229688, Note_on_c, 0, 60, 30
1, 229800, Note_on_c, 0, 77, 0
1, 229800, Note_on_c, 0, 75, 40
1, 229914, Note_on_c, 0, 75, 0
1, 229914, Note_on_c, 0, 74, 43
1, 229914, Note_on_c, 0, 60, 0
1, 229917, Note_on_c, 0, 56, 30
1, 230029, Note_on_c, 0, 74, 0
1, 230029, Note_on_c, 0, 75, 40
1, 230115, Note_on_c, 0, 66, 34
1, 230136, Note_on_c, 0, 66, 0
1, 230136, Note_on_c, 0, 73, 34
1, 230158, Note_on_c, 0, 73, 0
1, 230158, Note_on_c, 0, 75, 0
1, 230158, Note_on_c, 0, 78, 46
1, 230161, Note_on_c, 0, 56, 0
1, 230161, Note_on_c, 0, 32, 37
1, 230161, Note_on_c, 0, 44, 37
1, 230265, Note_on_c, 0, 44, 0
1, 230265, Note_on_c, 0, 32, 0
1, 230372, Note_on_c, 0, 78, 0
1, 230372, Note_on_c, 0, 90, 35
1, 230372, Note_on_c, 0, 56, 19
1, 230443, Note_on_c, 0, 90, 0
1, 230443, Note_on_c, 0, 89, 35
1, 230514, Note_on_c, 0, 89, 0
1, 230514, Note_on_c, 0, 87, 35
1, 230586, Note_on_c, 0, 87, 0
1, 230586, Note_on_c, 0, 85, 36
1, 230586, Note_on_c, 0, 56, 0
1, 230589, Note_on_c, 0, 60, 19
1, 230657, Note_on_c, 0, 85, 0
1, 230657, Note_on_c, 0, 84, 36
1, 230729, Note_on_c, 0, 84, 0
1, 230729, Note_on_c, 0, 82, 37
1, 230802, Note_on_c, 0, 82, 0
1, 230802, Note_on_c, 0, 80, 37
1, 230802, Note_on_c, 0, 60, 0
1, 230805, Note_on_c, 0, 66, 19
1, 230875, Note_on_c, 0, 80, 0
1, 230875, Note_on_c, 0, 78, 38
1, 230949, Note_on_c, 0, 78, 0
1, 230949, Note_on_c, 0, 77, 38
1, 231024, Note_on_c, 0, 77, 0
1, 231024, Note_on_c, 0, 75, 39
1, 231024, Note_on_c, 0, 66, 0
1, 231027, Note_on_c, 0, 60, 19
1, 231100, Note_on_c, 0, 75, 0
1, 231100, Note_on_c, 0, 73, 39
1, 231176, Note_on_c, 0, 73, 0
1, 231176, Note_on_c, 0, 72, 40
1, 231253, Note_on_c, 0, 72, 0
1, 231253, Note_on_c, 0, 70, 40
1, 231253, Note_on_c, 0, 60, 0
1, 231256, Note_on_c, 0, 56, 19
1, 231331, Note_on_c, 0, 70, 0
1, 231331, Note_on_c, 0, 68, 42
1, 231414, Note_on_c, 0, 68, 0
1, 231414, Note_on_c, 0, 66, 42
1, 231500, Note_on_c, 0, 66, 0
1, 231500, Note_on_c, 0, 65, 46
1, 231500, Note_on_c, 0, 73, 46
1, 231503, Note_on_c, 0, 56, 0
1, 231503, Note_on_c, 0, 37, 37
1, 231503, Control_c, 0, 64, 0
1, 231506, Note_on_c, 0, 49, 37
1, 231610, Note_on_c, 0, 49, 0
1, 231610, Note_on_c, 0, 37, 0
1, 231615, Control_c, 0, 64, 127
1, 231720, Note_on_c, 0, 56, 30
1, 231940, Note_on_c, 0, 56, 0
1, 231940, Note_on_c, 0, 61, 30
1, 232160, Note_on_c, 0, 73, 0
1, 232160, Note_on_c, 0, 65, 0
1, 232160, Note_on_c, 0, 72, 44
1, 232163, Note_on_c, 0, 61, 0
1, 232163, Note_on_c, 0, 65, 30
1, 232270, Note_on_c, 0, 72, 0
1, 232270, Note_on_c, 0, 73, 40
1, 232381, Note_on_c, 0, 73, 0
1, 232381, Note_on_c, 0, 75, 44
1, 232381, Note_on_c, 0, 65, 0
1, 232384, Note_on_c, 0, 61, 30
1, 232495, Note_on_c, 0, 75, 0
1, 232495, Note_on_c, 0, 73, 40
1, 232610, Note_on_c, 0, 73, 0
1, 232610, Note_on_c, 0, 72, 44
1, 232610, Note_on_c, 0, 61, 0
1, 232613, Note_on_c, 0, 56, 30
1, 232724, Note_on_c, 0, 72, 0
1, 232724, Note_on_c, 0, 73, 40
1, 232853, Note_on_c, 0, 73, 0
1, 232853, Note_on_c, 0, 65, 46
1, 232853, Note_on_c, 0, 77, 46
1, 232856, Note_on_c, 0, 56, 0
1, 232856, Note_on_c, 0, 37, 37
1, 232856, Note_on_c, 0, 49, 37
1, 232960, Note_on_c, 0, 49, 0
1, 232960, Note_on_c, 0, 37, 0
1, 233067, Note_on_c, 0, 77, 0
1, 233067, Note_on_c, 0, 65, 0
1, 233067, Note_on_c, 0, 90, 40
1, 233070, Note_on_c, 0, 56, 19
1, 233139, Note_on_c, 0, 90, 0
1, 233139, Note_on_c, 0, 89, 40
1, 233210, Note_on_c, 0, 89, 0
1, 233210, Note_on_c, 0, 87, 40
1, 233281, Note_on_c, 0, 87, 0
1, 233281, Note_on_c, 0, 85, 40
1, 233281, Note_on_c, 0, 56, 0
1, 233284, Note_on_c, 0, 61, 19
1, 233353, Note_on_c, 0, 85, 0
1, 233353, Note_on_c, 0, 84, 40
1, 233425, Note_on_c, 0, 84, 0
1, 233425, Note_on_c, 0, 82, 39
1, 233497, Note_on_c, 0, 82, 0
1, 233497, Note_on_c, 0, 80, 39
1, 233497, Note_on_c, 0, 61, 0
1, 233500, Note_on_c, 0, 65, 19
1, 233571, Note_on_c, 0, 80, 0
1, 233571, Note_on_c, 0, 78, 39
1, 233645, Note_on_c, 0, 78, 0
1, 233645, Note_on_c, 0, 77, 39
1, 233720, Note_on_c, 0, 77, 0
1, 233720, Note_on_c, 0, 75, 38
1, 233720, Note_on_c, 0, 65, 0
1, 233723, Note_on_c, 0, 61, 19
1, 233795, Note_on_c, 0, 75, 0
1, 233795, Note_on_c, 0, 73, 38
1, 233872, Note_on_c, 0, 73, 0
1, 233872, Note_on_c, 0, 72, 38
1, 233949, Note_on_c, 0, 72, 0
1, 233949, Note_on_c, 0, 70, 38
1, 233949, Note_on_c, 0, 61, 0
1, 233952, Note_on_c, 0, 56, 19
1, 234027, Note_on_c, 0, 70, 0
1, 234027, Note_on_c, 0, 68, 38
1, 234109, Note_on_c, 0, 68, 0
1, 234109, Note_on_c, 0, 66, 39
1, 234152, Note_on_c, 0, 65, 34
1, 234195, Note_on_c, 0, 65, 0
1, 234195, Note_on_c, 0, 66, 0
1, 234195, Note_on_c, 0, 73, 46
1, 234198, Note_on_c, 0, 56, 0
1, 234198, Note_on_c, 0, 49, 34
1, 234198, Note_on_c, 0, 37, 34
1, 234201, Control_c, 0, 64, 0
1, 234285, Control_c, 0, 64, 127
1, 234312, Note_on_c, 0, 37, 0
1, 234312, Note_on_c, 0, 49, 0
1, 234429, Note_on_c, 0, 53, 23
1, 234663, Note_on_c, 0, 53, 0
1, 234663, Note_on_c, 0, 56, 23
1, 234897, Note_on_c, 0, 73, 0
1, 234897, Note_on_c, 0, 68, 39
1, 234897, Note_on_c, 0, 56, 0
1, 234900, Note_on_c, 0, 61, 23
1, 235113, Note_on_c, 0, 68, 0
1, 235113, Note_on_c, 0, 65, 39
1, 235113, Note_on_c, 0, 61, 0
1, 235116, Note_on_c, 0, 56, 23
1, 235352, Note_on_c, 0, 56, 0
1, 235352, Note_on_c, 0, 53, 23
1, 235591, Note_on_c, 0, 65, 0
1, 235591, Note_on_c, 0, 68, 43
1, 235591, Note_on_c, 0, 60, 43
1, 235594, Note_on_c, 0, 53, 0
1, 235594, Note_on_c, 0, 32, 32
1, 235594, Note_on_c, 0, 44, 32
1, 235646, Control_c, 0, 64, 0
1, 235708, Note_on_c, 0, 44, 0
1, 235708, Note_on_c, 0, 32, 0
1, 235722, Control_c, 0, 64, 127
1, 235825, Note_on_c, 0, 44, 24
1, 236059, Note_on_c, 0, 44, 0
1, 236059, Note_on_c, 0, 48, 24
1, 236293, Note_on_c, 0, 60, 0
1, 236293, Note_on_c, 0, 68, 0
1, 236293, Note_on_c, 0, 66, 40
1, 236296, Note_on_c, 0, 48, 0
1, 236296, Note_on_c, 0, 51, 24
1, 236527, Note_on_c, 0, 66, 0
1, 236527, Note_on_c, 0, 63, 40
1, 236527, Note_on_c, 0, 51, 0
1, 236530, Note_on_c, 0, 54, 24
1, 236761, Note_on_c, 0, 54, 0
1, 236761, Note_on_c, 0, 56, 24
1, 236973, Note_on_c, 0, 77, 30
1, 236997, Note_on_c, 0, 77, 0
1, 236997, Note_on_c, 0, 80, 30
1, 237020, Note_on_c, 0, 80, 0
1, 237020, Note_on_c, 0, 63, 0
1, 237020, Note_on_c, 0, 89, 40
1, 237023, Note_on_c, 0, 56, 0
1, 237023, Note_on_c, 0, 49, 29
1, 237023, Control_c, 0, 64, 0
1, 237026, Note_on_c, 0, 37, 29
1, 237135, Note_on_c, 0, 37, 0
1, 237135, Note_on_c, 0, 49, 0
1, 237135, Control_c, 0, 64, 127
1, 237250, Note_on_c, 0, 56, 18
1, 237479, Note_on_c, 0, 56, 0
1, 237479, Note_on_c, 0, 61, 18
1, 237588, Note_on_c, 0, 85, 36
1, 237642, Note_on_c, 0, 85, 0
1, 237697, Note_on_c, 0, 89, 0
1, 237697, Note_on_c, 0, 80, 36
1, 237697, Note_on_c, 0, 61, 0
1, 237700, Note_on_c, 0, 65, 18
1, 237751, Note_on_c, 0, 80, 0
1, 237806, Note_on_c, 0, 77, 36
1, 237860, Note_on_c, 0, 77, 0
1, 237915, Note_on_c, 0, 73, 36
1, 237915, Note_on_c, 0, 65, 0
1, 237915, Note_on_c, 0, 61, 18
1, 237969, Note_on_c, 0, 73, 0
1, 238024, Note_on_c, 0, 68, 36
1, 238079, Note_on_c, 0, 68, 0
1, 238133, Note_on_c, 0, 65, 36
1, 238133, Note_on_c, 0, 61, 0
1, 238133, Note_on_c, 0, 56, 18
1, 238193, Note_on_c, 0, 65, 0
1, 238254, Note_on_c, 0, 61, 36
1, 238314, Note_on_c, 0, 61, 0
1, 238334, Note_on_c, 0, 60, 30
1, 238354, Note_on_c, 0, 60, 0
1, 238354, Note_on_c, 0, 66, 30
1, 238360, Control_c, 0, 64, 0
1, 238375, Note_on_c, 0, 66, 0
1, 238375, Note_on_c, 0, 70, 39
1, 238375, Note_on_c, 0, 56, 0
1, 238378, Note_on_c, 0, 32, 27
1, 238378, Note_on_c, 0, 44, 27
1, 238411, Control_c, 0, 64, 127
1, 238489, Note_on_c, 0, 44, 0
1, 238489, Note_on_c, 0, 32, 0
1, 238604, Note_on_c, 0, 44, 17
1, 238833, Note_on_c, 0, 48, 17
1, 239062, Note_on_c, 0, 70, 0
1, 239062, Note_on_c, 0, 68, 35
1, 239062, Note_on_c, 0, 48, 0
1, 239065, Note_on_c, 0, 44, 0
1, 239065, Note_on_c, 0, 51, 17
1, 239291, Note_on_c, 0, 68, 0
1, 239291, Note_on_c, 0, 63, 35
1, 239291, Note_on_c, 0, 51, 0
1, 239294, Note_on_c, 0, 54, 17
1, 239521, Note_on_c, 0, 63, 0
1, 239521, Note_on_c, 0, 65, 35
1, 239521, Note_on_c, 0, 54, 0
1, 239524, Note_on_c, 0, 56, 17
1, 239750, Note_on_c, 0, 65, 0
1, 239750, Note_on_c, 0, 61, 35
1, 239750, Note_on_c, 0, 56, 0
1, 239753, Note_on_c, 0, 49, 17
1, 239753, Control_c, 0, 64, 0
1, 239753, Note_on_c, 0, 53, 17
1, 239830, Control_c, 0, 64, 127
1, 239865, Note_on_c, 0, 61, 0
1, 239865, Note_on_c, 0, 65, 32
1, 239979, Note_on_c, 0, 65, 0
1, 239979, Note_on_c, 0, 56, 32
1, 240094, Note_on_c, 0, 56, 0
1, 240094, Note_on_c, 0, 61, 32
1, 240208, Note_on_c, 0, 61, 0
1, 240208, Note_on_c, 0, 65, 36
1, 240208, Note_on_c, 0, 53, 0
1, 240211, Note_on_c, 0, 49, 0
1, 240211, Note_on_c, 0, 49, 17
1, 240211, Note_on_c, 0, 53, 17
1, 240214, Note_on_c, 0, 56, 17
1, 240321, Note_on_c, 0, 65, 0
1, 240321, Note_on_c, 0, 68, 35
1, 240435, Note_on_c, 0, 68, 0
1, 240435, Note_on_c, 0, 73, 35
1, 240550, Note_on_c, 0, 73, 0
1, 240550, Note_on_c, 0, 77, 35
1, 240666, Note_on_c, 0, 77, 0
1, 240666, Note_on_c, 0, 80, 34
1, 240666, Note_on_c, 0, 56, 0
1, 240669, Note_on_c, 0, 53, 0
1, 240669, Note_on_c, 0, 49, 0
1, 240669, Note_on_c, 0, 61, 17
1, 240672, Note_on_c, 0, 65, 17
1, 240672, Note_on_c, 0, 56, 17
1, 240784, Note_on_c, 0, 80, 0
1, 240784, Note_on_c, 0, 85, 34
1, 240904, Note_on_c, 0, 85, 0
1, 240904, Note_on_c, 0, 89, 34
1, 241025, Note_on_c, 0, 89, 0
1, 241025, Note_on_c, 0, 92, 34
1, 241148, Note_on_c, 0, 92, 0
1, 241148, Note_on_c, 0, 97, 38
1, 241148, Note_on_c, 0, 56, 0
1, 241151, Note_on_c, 0, 65, 0
1, 241151, Note_on_c, 0, 61, 0
1, 241151, Note_on_c, 0, 61, 17
1, 241154, Note_on_c, 0, 65, 17
1, 241154, Note_on_c, 0, 56, 17
1, 241384, Control_c, 0, 64, 0
1, 241606, Note_on_c, 0, 97, 0
1, 241648, Note_on_c, 0, 68, 53
1, 241648, Note_on_c, 0, 56, 0
1, 241648, Note_on_c, 0, 65, 0
1, 241651, Note_on_c, 0, 61, 0
1, 242022, Note_on_c, 0, 68, 0
1, 242147, Note_on_c, 0, 68, 53
1, 242518, Note_on_c, 0, 68, 0
1, 242611, Note_on_c, 0, 60, 35
1, 242635, Note_on_c, 0, 60, 0
1, 242635, Note_on_c, 0, 63, 36
1, 242658, Note_on_c, 0, 63, 0
1, 242658, Note_on_c, 0, 68, 53
1, 242658, Note_on_c, 0, 44, 38
1, 242661, Control_c, 0, 64, 127
1, 242661, Note_on_c, 0, 32, 38
1, 242886, Note_on_c, 0, 32, 0
1, 242886, Note_on_c, 0, 44, 0
1, 242886, Note_on_c, 0, 56, 31
1, 243114, Note_on_c, 0, 56, 0
1, 243114, Note_on_c, 0, 60, 31
1, 243341, Note_on_c, 0, 68, 0
1, 243341, Note_on_c, 0, 70, 48
1, 243341, Note_on_c, 0, 60, 0
1, 243344, Note_on_c, 0, 66, 31
1, 243569, Note_on_c, 0, 70, 0
1, 243569, Note_on_c, 0, 68, 48
1, 243569, Note_on_c, 0, 66, 0
1, 243572, Note_on_c, 0, 60, 31
1, 243797, Note_on_c, 0, 60, 0
1, 243797, Note_on_c, 0, 56, 31
1, 244004, Note_on_c, 0, 68, 39
1, 244025, Note_on_c, 0, 68, 0
1, 244025, Note_on_c, 0, 72, 39
1, 244045, Note_on_c, 0, 72, 0
1, 244045, Note_on_c, 0, 68, 0
1, 244045, Note_on_c, 0, 78, 63
1, 244048, Note_on_c, 0, 56, 0
1, 244048, Note_on_c, 0, 32, 38
1, 244048, Note_on_c, 0, 44, 38
1, 244273, Note_on_c, 0, 44, 0
1, 244273, Note_on_c, 0, 32, 0
1, 244273, Note_on_c, 0, 56, 38
1, 244501, Note_on_c, 0, 56, 0
1, 244501, Note_on_c, 0, 60, 30
1, 244615, Note_on_c, 0, 78, 0
1, 244615, Note_on_c, 0, 68, 46
1, 244729, Note_on_c, 0, 68, 0
1, 244729, Note_on_c, 0, 67, 46
1, 244729, Note_on_c, 0, 60, 0
1, 244732, Note_on_c, 0, 66, 30
1, 244838, Note_on_c, 0, 67, 0
1, 244838, Note_on_c, 0, 68, 46
1, 244947, Note_on_c, 0, 68, 0
1, 244947, Note_on_c, 0, 70, 46
1, 244947, Note_on_c, 0, 66, 0
1, 244950, Note_on_c, 0, 60, 30
1, 245057, Note_on_c, 0, 70, 0
1, 245057, Note_on_c, 0, 68, 46
1, 245166, Note_on_c, 0, 68, 0
1, 245166, Note_on_c, 0, 67, 46
1, 245166, Note_on_c, 0, 60, 0
1, 245169, Note_on_c, 0, 56, 30
1, 245275, Note_on_c, 0, 67, 0
1, 245275, Note_on_c, 0, 68, 46
1, 245377, Note_on_c, 0, 65, 39
1, 245397, Note_on_c, 0, 65, 0
1, 245397, Note_on_c, 0, 68, 0
1, 245397, Note_on_c, 0, 68, 53
1, 245400, Note_on_c, 0, 56, 0
1, 245400, Control_c, 0, 64, 0
1, 245400, Note_on_c, 0, 37, 38
1, 245403, Note_on_c, 0, 49, 38
1, 245482, Control_c, 0, 64, 127
1, 245620, Note_on_c, 0, 49, 0
1, 245620, Note_on_c, 0, 37, 0
1, 245620, Note_on_c, 0, 56, 31
1, 245843, Note_on_c, 0, 56, 0
1, 245843, Note_on_c, 0, 61, 31
1, 246066, Note_on_c, 0, 68, 0
1, 246066, Note_on_c, 0, 70, 48
1, 246066, Note_on_c, 0, 61, 0
1, 246069, Note_on_c, 0, 65, 31
1, 246280, Note_on_c, 0, 70, 0
1, 246280, Note_on_c, 0, 68, 48
1, 246280, Note_on_c, 0, 65, 0
1, 246283, Note_on_c, 0, 61, 31
1, 246494, Note_on_c, 0, 61, 0
1, 246494, Note_on_c, 0, 56, 31
1, 246692, Note_on_c, 0, 65, 39
1, 246712, Note_on_c, 0, 65, 0
1, 246712, Note_on_c, 0, 68, 39
1, 246732, Note_on_c, 0, 68, 0
1, 246732, Note_on_c, 0, 68, 0
1, 246732, Note_on_c, 0, 77, 63
1, 246735, Note_on_c, 0, 56, 0
1, 246735, Note_on_c, 0, 49, 38
1, 246735, Note_on_c, 0, 37, 38
1, 246959, Note_on_c, 0, 37, 0
1, 246959, Note_on_c, 0, 49, 0
1, 246959, Note_on_c, 0, 56, 38
1, 247187, Note_on_c, 0, 56, 0
1, 247187, Note_on_c, 0, 61, 30
1, 247301, Note_on_c, 0, 77, 0
1, 247301, Note_on_c, 0, 77, 46
1, 247415, Note_on_c, 0, 77, 0
1, 247415, Note_on_c, 0, 75, 46
1, 247415, Note_on_c, 0, 61, 0
1, 247418, Note_on_c, 0, 65, 30
1, 247524, Note_on_c, 0, 75, 0
1, 247524, Note_on_c, 0, 73, 46
1, 247633, Note_on_c, 0, 73, 0
1, 247633, Note_on_c, 0, 72, 46
1, 247633, Note_on_c, 0, 65, 0
1, 247636, Note_on_c, 0, 61, 30
1, 247743, Note_on_c, 0, 72, 0
1, 247743, Note_on_c, 0, 73, 46
1, 247852, Note_on_c, 0, 73, 0
1, 247852, Note_on_c, 0, 75, 46
1, 247852, Note_on_c, 0, 61, 0
1, 247855, Note_on_c, 0, 56, 30
1, 247961, Note_on_c, 0, 75, 0
1, 247961, Note_on_c, 0, 73, 46
1, 248063, Note_on_c, 0, 72, 39
1, 248083, Note_on_c, 0, 72, 0
1, 248083, Note_on_c, 0, 73, 0
1, 248083, Note_on_c, 0, 78, 65
1, 248086, Note_on_c, 0, 56, 0
1, 248086, Note_on_c, 0, 32, 38
1, 248086, Note_on_c, 0, 44, 38
1, 248089, Control_c, 0, 64, 0
1, 248180, Control_c, 0, 64, 127
1, 248191, Note_on_c, 0, 78, 0
1, 248299, Note_on_c, 0, 80, 47
1, 248299, Note_on_c, 0, 44, 0
1, 248299, Note_on_c, 0, 32, 0
1, 248302, Note_on_c, 0, 56, 31
1, 248372, Note_on_c, 0, 80, 0
1, 248372, Note_on_c, 0, 78, 47
1, 248444, Note_on_c, 0, 78, 0
1, 248444, Note_on_c, 0, 77, 47
1, 248516, Note_on_c, 0, 77, 0
1, 248516, Note_on_c, 0, 78, 59
1, 248516, Note_on_c, 0, 56, 0
1, 248519, Note_on_c, 0, 60, 31
1, 248741, Note_on_c, 0, 78, 0
1, 248741, Note_on_c, 0, 80, 54
1, 248741, Note_on_c, 0, 60, 0
1, 248744, Note_on_c, 0, 66, 31
1, 248962, Note_on_c, 0, 80, 0
1, 248962, Note_on_c, 0, 82, 59
1, 248962, Note_on_c, 0, 66, 0
1, 248965, Note_on_c, 0, 60, 31
1, 249181, Note_on_c, 0, 82, 0
1, 249181, Note_on_c, 0, 78, 50
1, 249181, Note_on_c, 0, 60, 0
1, 249184, Note_on_c, 0, 56, 31
1, 249368, Note_on_c, 0, 66, 39
1, 249388, Note_on_c, 0, 66, 0
1, 249388, Note_on_c, 0, 72, 39
1, 249408, Note_on_c, 0, 72, 0
1, 249408, Note_on_c, 0, 78, 0
1, 249408, Note_on_c, 0, 75, 65
1, 249411, Note_on_c, 0, 56, 0
1, 249411, Note_on_c, 0, 44, 38
1, 249411, Note_on_c, 0, 32, 38
1, 249516, Note_on_c, 0, 75, 0
1, 249624, Note_on_c, 0, 77, 47
1, 249624, Note_on_c, 0, 32, 0
1, 249624, Note_on_c, 0, 44, 0
1, 249627, Note_on_c, 0, 56, 38
1, 249696, Note_on_c, 0, 77, 0
1, 249696, Note_on_c, 0, 75, 47
1, 249768, Note_on_c, 0, 75, 0
1, 249768, Note_on_c, 0, 74, 47
1, 249841, Note_on_c, 0, 74, 0
1, 249841, Note_on_c, 0, 75, 59
1, 249841, Note_on_c, 0, 56, 0
1, 249844, Note_on_c, 0, 60, 30
1, 250066, Note_on_c, 0, 75, 0
1, 250066, Note_on_c, 0, 77, 54
1, 250066, Note_on_c, 0, 60, 0
1, 250069, Note_on_c, 0, 66, 31
1, 250282, Note_on_c, 0, 77, 0
1, 250282, Note_on_c, 0, 78, 59
1, 250282, Note_on_c, 0, 66, 0
1, 250285, Note_on_c, 0, 60, 30
1, 250508, Note_on_c, 0, 78, 0
1, 250508, Note_on_c, 0, 72, 50
1, 250508, Note_on_c, 0, 60, 0
1, 250511, Note_on_c, 0, 56, 30
1, 250698, Note_on_c, 0, 65, 39
1, 250717, Note_on_c, 0, 65, 0
1, 250717, Note_on_c, 0, 68, 39
1, 250737, Note_on_c, 0, 68, 0
1, 250737, Note_on_c, 0, 72, 0
1, 250737, Note_on_c, 0, 75, 65
1, 250740, Note_on_c, 0, 56, 0
1, 250740, Note_on_c, 0, 49, 38
1, 250740, Control_c, 0, 64, 0
1, 250743, Note_on_c, 0, 37, 38
1, 250795, Control_c, 0, 64, 127
1, 250953, Note_on_c, 0, 37, 0
1, 250953, Note_on_c, 0, 49, 0
1, 250953, Note_on_c, 0, 56, 38
1, 251170, Note_on_c, 0, 56, 0
1, 251170, Note_on_c, 0, 61, 30
1, 251282, Note_on_c, 0, 75, 0
1, 251282, Note_on_c, 0, 73, 47
1, 251358, Note_on_c, 0, 73, 0
1, 251395, Note_on_c, 0, 72, 47
1, 251395, Note_on_c, 0, 61, 0
1, 251395, Note_on_c, 0, 65, 31
1, 251467, Note_on_c, 0, 72, 0
1, 251503, Note_on_c, 0, 73, 47
1, 251576, Note_on_c, 0, 73, 0
1, 251612, Note_on_c, 0, 72, 47
1, 251612, Note_on_c, 0, 65, 0
1, 251612, Note_on_c, 0, 61, 30
1, 251684, Note_on_c, 0, 72, 0
1, 251720, Note_on_c, 0, 73, 47
1, 251792, Note_on_c, 0, 73, 0
1, 251828, Note_on_c, 0, 77, 47
1, 251828, Note_on_c, 0, 61, 0
1, 251828, Note_on_c, 0, 56, 30
1, 251900, Note_on_c, 0, 77, 0
1, 251936, Note_on_c, 0, 73, 47
1, 252015, Note_on_c, 0, 73, 0
1, 252044, Control_c, 0, 64, 0
1, 252051, Note_on_c, 0, 68, 47
1, 252051, Note_on_c, 0, 56, 0
1, 252051, Note_on_c, 0, 37, 38
1, 252054, Note_on_c, 0, 49, 38
1, 252123, Control_c, 0, 64, 127
1, 252274, Note_on_c, 0, 49, 0
1, 252274, Note_on_c, 0, 37, 0
1, 252274, Note_on_c, 0, 56, 38
1, 252497, Note_on_c, 0, 56, 0
1, 252497, Note_on_c, 0, 61, 30
1, 252720, Note_on_c, 0, 61, 0
1, 252720, Note_on_c, 0, 65, 31
1, 252943, Note_on_c, 0, 68, 0
1, 252943, Note_on_c, 0, 73, 47
1, 252943, Note_on_c, 0, 65, 0
1, 252946, Note_on_c, 0, 61, 30
1, 253166, Note_on_c, 0, 61, 0
1, 253166, Note_on_c, 0, 56, 30
1, 253315, Control_c, 0, 64, 0
1, 253360, Note_on_c, 0, 65, 36
1, 253380, Note_on_c, 0, 65, 0
1, 253380, Note_on_c, 0, 71, 38
1, 253401, Note_on_c, 0, 71, 0
1, 253401, Note_on_c, 0, 73, 0
1, 253401, Note_on_c, 0, 73, 53
1, 253404, Note_on_c, 0, 56, 0
1, 253404, Note_on_c, 0, 37, 38
1, 253404, Note_on_c, 0, 49, 38
1, 253407, Control_c, 0, 64, 127
1, 253628, Note_on_c, 0, 49, 0
1, 253628, Note_on_c, 0, 37, 0
1, 253628, Note_on_c, 0, 56, 31
1, 253856, Note_on_c, 0, 56, 0
1, 253856, Note_on_c, 0, 61, 31
1, 254084, Note_on_c, 0, 73, 0
1, 254084, Note_on_c, 0, 75, 48
1, 254084, Note_on_c, 0, 61, 0
1, 254087, Note_on_c, 0, 65, 31
1, 254305, Note_on_c, 0, 75, 0
1, 254305, Note_on_c, 0, 73, 48
1, 254305, Note_on_c, 0, 65, 0
1, 254308, Note_on_c, 0, 61, 31
1, 254525, Note_on_c, 0, 61, 0
1, 254525, Note_on_c, 0, 56, 31
1, 254719, Note_on_c, 0, 71, 39
1, 254739, Note_on_c, 0, 71, 0
1, 254739, Note_on_c, 0, 73, 39
1, 254758, Note_on_c, 0, 73, 0
1, 254758, Note_on_c, 0, 73, 0
1, 254758, Note_on_c, 0, 80, 63
1, 254761, Note_on_c, 0, 56, 0
1, 254761, Note_on_c, 0, 37, 38
1, 254761, Note_on_c, 0, 49, 38
1, 254981, Note_on_c, 0, 49, 0
1, 254981, Note_on_c, 0, 37, 0
1, 254981, Note_on_c, 0, 56, 38
1, 255204, Note_on_c, 0, 56, 0
1, 255204, Note_on_c, 0, 61, 30
1, 255427, Note_on_c, 0, 61, 0
1, 255427, Note_on_c, 0, 65, 30
1, 255650, Note_on_c, 0, 80, 0
1, 255650, Note_on_c, 0, 73, 63
1, 255650, Note_on_c, 0, 65, 0
1, 255653, Note_on_c, 0, 61, 30
1, 255873, Note_on_c, 0, 61, 0
1, 255873, Note_on_c, 0, 56, 30
1, 255965, Control_c, 0, 64, 0
1, 256066, Note_on_c, 0, 66, 39
1, 256086, Note_on_c, 0, 66, 0
1, 256086, Note_on_c, 0, 70, 39
1, 256106, Note_on_c, 0, 70, 0
1, 256106, Note_on_c, 0, 73, 0
1, 256106, Note_on_c, 0, 73, 53
1, 256109, Note_on_c, 0, 56, 0
1, 256109, Note_on_c, 0, 37, 38
1, 256109, Note_on_c, 0, 49, 38
1, 256112, Control_c, 0, 64, 127
1, 256334, Note_on_c, 0, 49, 0
1, 256334, Note_on_c, 0, 37, 0
1, 256334, Note_on_c, 0, 58, 31
1, 256562, Note_on_c, 0, 58, 0
1, 256562, Note_on_c, 0, 61, 31
1, 256790, Note_on_c, 0, 73, 0
1, 256790, Note_on_c, 0, 75, 48
1, 256790, Note_on_c, 0, 61, 0
1, 256793, Note_on_c, 0, 66, 31
1, 257011, Note_on_c, 0, 75, 0
1, 257011, Note_on_c, 0, 73, 48
1, 257011, Note_on_c, 0, 66, 0
1, 257014, Note_on_c, 0, 61, 31
1, 257231, Note_on_c, 0, 61, 0
1, 257231, Note_on_c, 0, 58, 31
1, 257425, Note_on_c, 0, 69, 35
1, 257445, Note_on_c, 0, 69, 0
1, 257445, Note_on_c, 0, 73, 35
1, 257464, Note_on_c, 0, 73, 0
1, 257464, Note_on_c, 0, 73, 0
1, 257464, Note_on_c, 0, 78, 54
1, 257467, Note_on_c, 0, 58, 0
1, 257467, Note_on_c, 0, 49, 38
1, 257467, Note_on_c, 0, 37, 38
1, 257687, Note_on_c, 0, 37, 0
1, 257687, Note_on_c, 0, 49, 0
1, 257687, Note_on_c, 0, 57, 38
1, 257910, Note_on_c, 0, 57, 0
1, 257910, Note_on_c, 0, 61, 30
1, 258133, Note_on_c, 0, 61, 0
1, 258133, Note_on_c, 0, 66, 30
1, 258356, Note_on_c, 0, 78, 0
1, 258356, Note_on_c, 0, 77, 54
1, 258356, Note_on_c, 0, 66, 0
1, 258359, Note_on_c, 0, 61, 30
1, 258579, Note_on_c, 0, 61, 0
1, 258579, Note_on_c, 0, 56, 30
1, 258792, Note_on_c, 0, 72, 35
1, 258812, Note_on_c, 0, 72, 0
1, 258812, Note_on_c, 0, 77, 0
1, 258812, Note_on_c, 0, 75, 54
1, 258815, Note_on_c, 0, 56, 0
1, 258815, Control_c, 0, 64, 0
1, 258815, Note_on_c, 0, 37, 38
1, 258818, Note_on_c, 0, 49, 38
1, 258884, Control_c, 0, 64, 127
1, 258920, Note_on_c, 0, 75, 0
1, 258920, Note_on_c, 0, 78, 55
1, 259027, Note_on_c, 0, 78, 0
1, 259027, Note_on_c, 0, 81, 57
1, 259134, Note_on_c, 0, 81, 0
1, 259134, Note_on_c, 0, 84, 58
1, 259241, Note_on_c, 0, 84, 0
1, 259241, Note_on_c, 0, 87, 59
1, 259241, Note_on_c, 0, 49, 0
1, 259244, Note_on_c, 0, 37, 0
1, 259244, Note_on_c, 0, 60, 30
1, 259244, Note_on_c, 0, 63, 30
1, 259247, Note_on_c, 0, 57, 30
1, 259247, Note_on_c, 0, 66, 30
1, 259348, Note_on_c, 0, 87, 0
1, 259348, Note_on_c, 0, 90, 59
1, 259455, Note_on_c, 0, 90, 0
1, 259455, Note_on_c, 0, 93, 60
1, 259563, Note_on_c, 0, 93, 0
1, 259563, Note_on_c, 0, 96, 61
1, 259670, Note_on_c, 0, 96, 0
1, 259670, Note_on_c, 0, 99, 63
1, 259777, Note_on_c, 0, 99, 0
1, 259777, Note_on_c, 0, 102, 64
1, 259884, Note_on_c, 0, 102, 0
1, 259884, Note_on_c, 0, 99, 64
1, 259991, Note_on_c, 0, 99, 0
1, 259991, Note_on_c, 0, 96, 65
1, 260099, Note_on_c, 0, 96, 0
1, 260099, Note_on_c, 0, 93, 66
1, 260099, Note_on_c, 0, 66, 0
1, 260102, Note_on_c, 0, 60, 0
1, 260102, Note_on_c, 0, 63, 0
1, 260102, Note_on_c, 0, 57, 0
1, 260105, Control_c, 0, 64, 0
1, 260105, Note_on_c, 0, 25, 35
1, 260105, Note_on_c, 0, 37, 35
1, 260170, Control_c, 0, 64, 127
1, 260206, Note_on_c, 0, 93, 0
1, 260206, Note_on_c, 0, 90, 65
1, 260313, Note_on_c, 0, 90, 0
1, 260313, Note_on_c, 0, 87, 65
1, 260420, Note_on_c, 0, 87, 0
1, 260420, Note_on_c, 0, 84, 65
1, 260527, Note_on_c, 0, 84, 0
1, 260527, Note_on_c, 0, 81, 64
1, 260527, Note_on_c, 0, 37, 0
1, 260530, Note_on_c, 0, 25, 0
1, 260530, Note_on_c, 0, 49, 29
1, 260530, Note_on_c, 0, 56, 29
1, 260533, Note_on_c, 0, 54, 29
1, 260533, Note_on_c, 0, 51, 29
1, 260634, Note_on_c, 0, 81, 0
1, 260634, Note_on_c, 0, 78, 64
1, 260742, Note_on_c, 0, 78, 0
1, 260742, Note_on_c, 0, 75, 65
1, 260849, Note_on_c, 0, 75, 0
1, 260849, Note_on_c, 0, 72, 66
1, 260956, Note_on_c, 0, 72, 0
1, 260956, Note_on_c, 0, 69, 67
1, 261063, Note_on_c, 0, 69, 0
1, 261063, Note_on_c, 0, 66, 69
1, 261170, Note_on_c, 0, 66, 0
1, 261170, Note_on_c, 0, 63, 69
1, 261277, Note_on_c, 0, 63, 0
1, 261277, Note_on_c, 0, 60, 70
1, 261385, Note_on_c, 0, 60, 0
1, 261385, Note_on_c, 0, 61, 69
1, 261385, Note_on_c, 0, 51, 0
1, 261388, Note_on_c, 0, 49, 0
1, 261388, Note_on_c, 0, 56, 0
1, 261388, Note_on_c, 0, 54, 0
1, 261391, Control_c, 0, 64, 0
1, 261454, Control_c, 0, 64, 127
1, 261492, Note_on_c, 0, 61, 0
1, 261492, Note_on_c, 0, 65, 70
1, 261599, Note_on_c, 0, 65, 0
1, 261599, Note_on_c, 0, 56, 69
1, 261706, Note_on_c, 0, 61, 72
1, 261706, Note_on_c, 0, 56, 0
1, 261813, Note_on_c, 0, 61, 0
1, 261813, Note_on_c, 0, 53, 70
1, 261919, Note_on_c, 0, 56, 73
1, 261919, Note_on_c, 0, 53, 0
1, 262027, Note_on_c, 0, 56, 0
1, 262027, Note_on_c, 0, 49, 72
1, 262137, Note_on_c, 0, 53, 75
1, 262137, Note_on_c, 0, 49, 0
1, 262248, Note_on_c, 0, 53, 0
1, 262248, Note_on_c, 0, 44, 73
1, 262361, Note_on_c, 0, 49, 77
1, 262361, Note_on_c, 0, 44, 0
1, 262475, Note_on_c, 0, 49, 0
1, 262475, Note_on_c, 0, 41, 75
1, 262591, Note_on_c, 0, 44, 80
1, 262591, Note_on_c, 0, 41, 0
1, 262709, Note_on_c, 0, 44, 0
1, 262709, Note_on_c, 0, 37, 86
1, 262870, Control_c, 0, 64, 0
1, 263128, Note_on_c, 0, 37, 0
1, 263188, Note_on_c, 0, 68, 67
1, 263433, Note_on_c, 0, 68, 0
1, 263677, Note_on_c, 0, 68, 67
1, 263921, Note_on_c, 0, 68, 0
1, 264165, Note_on_c, 0, 68, 59
1, 264165, Note_on_c, 0, 65, 59
1, 264165, Note_on_c, 0, 56, 55
1, 264168, Note_on_c, 0, 61, 55
1, 264168, Note_on_c, 0, 49, 55
1, 264832, Note_on_c, 0, 70, 57
1, 264868, Note_on_c, 0, 65, 0
1, 264868, Note_on_c, 0, 68, 0
1, 265046, Note_on_c, 0, 68, 57
1, 265046, Note_on_c, 0, 65, 57
1, 265046, Note_on_c, 0, 49, 0
1, 265049, Note_on_c, 0, 61, 0
1, 265049, Note_on_c, 0, 56, 0
1, 265049, Note_on_c, 0, 61, 50
1, 265052, Note_on_c, 0, 49, 50
1, 265052, Note_on_c, 0, 56, 50
1, 265088, Note_on_c, 0, 70, 0
1, 265545, Note_on_c, 0, 65, 0
1, 265545, Note_on_c, 0, 68, 0
1, 265545, Note_on_c, 0, 61, 53
1, 265548, Note_on_c, 0, 65, 53
1, 265548, Note_on_c, 0, 56, 0
1, 265548, Note_on_c, 0, 49, 0
1, 265551, Note_on_c, 0, 61, 0
1, 265551, Control_c, 0, 64, 127
1, 265551, Note_on_c, 0, 56, 46
1, 265554, Note_on_c, 0, 49, 46
1, 265782, Note_on_c, 0, 89, 32
1, 265782, Note_on_c, 0, 80, 32
1, 265782, Note_on_c, 0, 85, 32
1, 265893, Note_on_c, 0, 85, 0
1, 265893, Note_on_c, 0, 89, 0
1, 265893, Note_on_c, 0, 80, 0
1, 266004, Note_on_c, 0, 85, 32
1, 266004, Note_on_c, 0, 77, 32
1, 266004, Note_on_c, 0, 80, 32
1, 266116, Note_on_c, 0, 80, 0
1, 266116, Note_on_c, 0, 85, 0
1, 266116, Note_on_c, 0, 77, 0
1, 266227, Note_on_c, 0, 80, 32
1, 266227, Note_on_c, 0, 77, 32
1, 266227, Note_on_c, 0, 73, 32
1, 266338, Note_on_c, 0, 73, 0
1, 266338, Note_on_c, 0, 80, 0
1, 266338, Note_on_c, 0, 77, 0
1, 266449, Note_on_c, 0, 77, 32
1, 266449, Note_on_c, 0, 73, 32
1, 266449, Note_on_c, 0, 68, 32
1, 266561, Note_on_c, 0, 68, 0
1, 266561, Note_on_c, 0, 77, 0
1, 266561, Note_on_c, 0, 73, 0
1, 266675, Note_on_c, 0, 68, 32
1, 266675, Note_on_c, 0, 73, 32
1, 266675, Note_on_c, 0, 65, 32
1, 266792, Note_on_c, 0, 65, 0
1, 266792, Note_on_c, 0, 68, 0
1, 266792, Note_on_c, 0, 73, 0
1, 266876, Control_c, 0, 64, 0
1, 266921, Note_on_c, 0, 65, 0
1, 266921, Note_on_c, 0, 61, 0
1, 266921, Note_on_c, 0, 65, 60
1, 266924, Note_on_c, 0, 68, 60
1, 266924, Note_on_c, 0, 49, 0
1, 266924, Note_on_c, 0, 56, 0
1, 266927, Note_on_c, 0, 61, 55
1, 266927, Note_on_c, 0, 56, 55
1, 266927, Note_on_c, 0, 49, 55
1, 267588, Note_on_c, 0, 70, 58
1, 267624, Note_on_c, 0, 68, 0
1, 267624, Note_on_c, 0, 65, 0
1, 267802, Note_on_c, 0, 65, 58
1, 267802, Note_on_c, 0, 68, 58
1, 267802, Note_on_c, 0, 49, 0
1, 267805, Note_on_c, 0, 56, 0
1, 267805, Note_on_c, 0, 61, 0
1, 267805, Note_on_c, 0, 61, 50
1, 267808, Note_on_c, 0, 56, 50
1, 267808, Note_on_c, 0, 49, 50
1, 267841, Note_on_c, 0, 70, 0
1, 268270, Note_on_c, 0, 68, 0
1, 268270, Note_on_c, 0, 65, 0
1, 268270, Note_on_c, 0, 61, 55
1, 268273, Note_on_c, 0, 65, 55
1, 268273, Note_on_c, 0, 49, 0
1, 268273, Note_on_c, 0, 56, 0
1, 268276, Note_on_c, 0, 61, 0
1, 268276, Note_on_c, 0, 56, 46
1, 268276, Note_on_c, 0, 49, 46
1, 268279, Control_c, 0, 64, 127
1, 268512, Note_on_c, 0, 85, 32
1, 268512, Note_on_c, 0, 89, 32
1, 268512, Note_on_c, 0, 80, 32
1, 268623, Note_on_c, 0, 80, 0
1, 268623, Note_on_c, 0, 85, 0
1, 268623, Note_on_c, 0, 89, 0
1, 268734, Note_on_c, 0, 80, 32
1, 268734, Note_on_c, 0, 85, 32
1, 268734, Note_on_c, 0, 77, 32
1, 268845, Note_on_c, 0, 77, 0
1, 268845, Note_on_c, 0, 80, 0
1, 268845, Note_on_c, 0, 85, 0
1, 268957, Note_on_c, 0, 73, 32
1, 268957, Note_on_c, 0, 80, 32
1, 268957, Note_on_c, 0, 77, 32
1, 269068, Note_on_c, 0, 77, 0
1, 269068, Note_on_c, 0, 73, 0
1, 269068, Note_on_c, 0, 80, 0
1, 269179, Note_on_c, 0, 73, 32
1, 269179, Note_on_c, 0, 77, 32
1, 269179, Note_on_c, 0, 68, 32
1, 269290, Note_on_c, 0, 68, 0
1, 269290, Note_on_c, 0, 73, 0
1, 269290, Note_on_c, 0, 77, 0
1, 269401, Note_on_c, 0, 73, 32
1, 269401, Note_on_c, 0, 68, 32
1, 269401, Note_on_c, 0, 65, 32
1, 269513, Note_on_c, 0, 65, 0
1, 269513, Note_on_c, 0, 73, 0
1, 269513, Note_on_c, 0, 68, 0
1, 269585, Control_c, 0, 64, 0
1, 269637, Note_on_c, 0, 65, 0
1, 269637, Note_on_c, 0, 61, 0
1, 269637, Note_on_c, 0, 65, 61
1, 269640, Note_on_c, 0, 68, 61
1, 269640, Note_on_c, 0, 49, 0
1, 269640, Note_on_c, 0, 56, 0
1, 269643, Note_on_c, 0, 61, 55
1, 269643, Note_on_c, 0, 49, 55
1, 269643, Note_on_c, 0, 56, 55
1, 270305, Note_on_c, 0, 70, 58
1, 270340, Note_on_c, 0, 68, 0
1, 270340, Note_on_c, 0, 65, 0
1, 270519, Note_on_c, 0, 65, 58
1, 270519, Note_on_c, 0, 68, 58
1, 270519, Note_on_c, 0, 56, 0
1, 270522, Note_on_c, 0, 49, 0
1, 270522, Note_on_c, 0, 61, 0
1, 270522, Note_on_c, 0, 56, 50
1, 270525, Note_on_c, 0, 61, 50
1, 270525, Note_on_c, 0, 49, 50
1, 270558, Note_on_c, 0, 70, 0
1, 270983, Note_on_c, 0, 61, 0
1, 270987, Note_on_c, 0, 68, 0
1, 270987, Note_on_c, 0, 65, 0
1, 270987, Note_on_c, 0, 65, 63
1, 270990, Note_on_c, 0, 61, 63
1, 270990, Note_on_c, 0, 49, 0
1, 270990, Note_on_c, 0, 56, 0
1, 270993, Note_on_c, 0, 56, 54
1, 270993, Note_on_c, 0, 49, 54
1, 271654, Note_on_c, 0, 66, 57
1, 271690, Note_on_c, 0, 61, 0
1, 271690, Note_on_c, 0, 65, 0
1, 271870, Note_on_c, 0, 61, 57
1, 271870, Note_on_c, 0, 65, 57
1, 271870, Note_on_c, 0, 49, 0
1, 271873, Note_on_c, 0, 56, 0
1, 271873, Note_on_c, 0, 49, 48
1, 271873, Note_on_c, 0, 56, 48
1, 271910, Note_on_c, 0, 66, 0
1, 272348, Note_on_c, 0, 65, 0
1, 272348, Note_on_c, 0, 61, 0
1, 272348, Note_on_c, 0, 65, 50
1, 272351, Note_on_c, 0, 61, 50
1, 272351, Note_on_c, 0, 56, 0
1, 272351, Note_on_c, 0, 49, 0
1, 272354, Control_c, 0, 64, 127
1, 272354, Note_on_c, 0, 56, 48
1, 272354, Note_on_c, 0, 49, 48
1, 272568, Note_on_c, 0, 61, 0
1, 272568, Note_on_c, 0, 65, 0
1, 272568, Note_on_c, 0, 49, 0
1, 272571, Note_on_c, 0, 56, 0
1, 272571, Note_on_c, 0, 32, 28
1, 272571, Note_on_c, 0, 41, 28
1, 272574, Note_on_c, 0, 37, 28
1, 272678, Note_on_c, 0, 37, 0
1, 272678, Note_on_c, 0, 41, 0
1, 272678, Note_on_c, 0, 32, 0
1, 272788, Note_on_c, 0, 41, 28
1, 272788, Note_on_c, 0, 44, 28
1, 272788, Note_on_c, 0, 37, 28
1, 272898, Note_on_c, 0, 37, 0
1, 272898, Note_on_c, 0, 44, 0
1, 272898, Note_on_c, 0, 41, 0
1, 273009, Note_on_c, 0, 44, 28
1, 273009, Note_on_c, 0, 49, 28
1, 273009, Note_on_c, 0, 41, 28
1, 273119, Note_on_c, 0, 41, 0
1, 273119, Note_on_c, 0, 49, 0
1, 273119, Note_on_c, 0, 44, 0
1, 273229, Note_on_c, 0, 53, 28
1, 273229, Note_on_c, 0, 49, 28
1, 273229, Note_on_c, 0, 44, 28
1, 273339, Note_on_c, 0, 44, 0
1, 273339, Note_on_c, 0, 49, 0
1, 273339, Note_on_c, 0, 53, 0
1, 273449, Note_on_c, 0, 49, 28
1, 273449, Note_on_c, 0, 53, 28
1, 273449, Note_on_c, 0, 56, 28
1, 273559, Note_on_c, 0, 56, 0
1, 273559, Note_on_c, 0, 53, 0
1, 273559, Note_on_c, 0, 49, 0
1, 273669, Note_on_c, 0, 61, 28
1, 273669, Note_on_c, 0, 56, 28
1, 273669, Note_on_c, 0, 53, 28
1, 273779, Note_on_c, 0, 53, 0
1, 273779, Note_on_c, 0, 56, 0
1, 273779, Note_on_c, 0, 61, 0
1, 273890, Note_on_c, 0, 49, 28
1, 273890, Note_on_c, 0, 44, 28
1, 273890, Note_on_c, 0, 53, 28
1, 274000, Note_on_c, 0, 53, 0
1, 274000, Note_on_c, 0, 44, 0
1, 274000, Note_on_c, 0, 49, 0
1, 274110, Note_on_c, 0, 53, 28
1, 274110, Note_on_c, 0, 56, 28
1, 274110, Note_on_c, 0, 49, 28
1, 274220, Note_on_c, 0, 49, 0
1, 274220, Note_on_c, 0, 56, 0
1, 274220, Note_on_c, 0, 53, 0
1, 274330, Note_on_c, 0, 56, 28
1, 274330, Note_on_c, 0, 61, 28
1, 274330, Note_on_c, 0, 53, 28
1, 274440, Note_on_c, 0, 53, 0
1, 274440, Note_on_c, 0, 61, 0
1, 274440, Note_on_c, 0, 56, 0
1, 274550, Note_on_c, 0, 65, 28
1, 274550, Note_on_c, 0, 61, 28
1, 274550, Note_on_c, 0, 56, 28
1, 274660, Note_on_c, 0, 56, 0
1, 274660, Note_on_c, 0, 61, 0
1, 274660, Note_on_c, 0, 65, 0
1, 274770, Note_on_c, 0, 68, 28
1, 274770, Note_on_c, 0, 61, 28
1, 274770, Note_on_c, 0, 65, 28
1, 274881, Note_on_c, 0, 65, 0
1, 274881, Note_on_c, 0, 61, 0
1, 274881, Note_on_c, 0, 68, 0
1, 274991, Note_on_c, 0, 73, 28
1, 274991, Note_on_c, 0, 65, 28
1, 274991, Note_on_c, 0, 68, 28
1, 275101, Note_on_c, 0, 68, 0
1, 275101, Note_on_c, 0, 65, 0
1, 275101, Note_on_c, 0, 73, 0
1, 275211, Note_on_c, 0, 61, 28
1, 275211, Note_on_c, 0, 56, 28
1, 275211, Note_on_c, 0, 65, 28
1, 275321, Note_on_c, 0, 65, 0
1, 275321, Note_on_c, 0, 56, 0
1, 275321, Note_on_c, 0, 61, 0
1, 275431, Note_on_c, 0, 68, 28
1, 275431, Note_on_c, 0, 61, 28
1, 275431, Note_on_c, 0, 65, 28
1, 275546, Note_on_c, 0, 65, 0
1, 275546, Note_on_c, 0, 61, 0
1, 275546, Note_on_c, 0, 68, 0
1, 275660, Note_on_c, 0, 65, 28
1, 275660, Note_on_c, 0, 68, 28
1, 275660, Note_on_c, 0, 73, 28
1, 275775, Note_on_c, 0, 73, 0
1, 275775, Note_on_c, 0, 68, 0
1, 275775, Note_on_c, 0, 65, 0
1, 275890, Note_on_c, 0, 73, 28
1, 275890, Note_on_c, 0, 68, 28
1, 275890, Note_on_c, 0, 77, 28
1, 276004, Note_on_c, 0, 77, 0
1, 276004, Note_on_c, 0, 68, 0
1, 276004, Note_on_c, 0, 73, 0
1, 276119, Note_on_c, 0, 73, 28
1, 276119, Note_on_c, 0, 80, 28
1, 276119, Note_on_c, 0, 77, 28
1, 276233, Note_on_c, 0, 77, 0
1, 276233, Note_on_c, 0, 80, 0
1, 276233, Note_on_c, 0, 73, 0
1, 276348, Note_on_c, 0, 85, 28
1, 276348, Note_on_c, 0, 77, 28
1, 276348, Note_on_c, 0, 80, 28
1, 276461, Note_on_c, 0, 80, 0
1, 276461, Note_on_c, 0, 77, 0
1, 276461, Note_on_c, 0, 85, 0
1, 276575, Note_on_c, 0, 77, 28
1, 276575, Note_on_c, 0, 73, 28
1, 276575, Note_on_c, 0, 68, 28
1, 276692, Note_on_c, 0, 68, 0
1, 276692, Note_on_c, 0, 73, 0
1, 276692, Note_on_c, 0, 77, 0
1, 276811, Note_on_c, 0, 80, 28
1, 276811, Note_on_c, 0, 73, 28
1, 276811, Note_on_c, 0, 77, 28
1, 276933, Note_on_c, 0, 77, 0
1, 276933, Note_on_c, 0, 73, 0
1, 276933, Note_on_c, 0, 80, 0
1, 277057, Note_on_c, 0, 85, 28
1, 277057, Note_on_c, 0, 77, 28
1, 277057, Note_on_c, 0, 80, 28
1, 277184, Note_on_c, 0, 80, 0
1, 277184, Note_on_c, 0, 77, 0
1, 277184, Note_on_c, 0, 85, 0
1, 277314, Note_on_c, 0, 85, 28
1, 277314, Note_on_c, 0, 80, 28
1, 277314, Note_on_c, 0, 89, 28
1, 277446, Note_on_c, 0, 89, 0
1, 277446, Note_on_c, 0, 80, 0
1, 277446, Note_on_c, 0, 85, 0
1, 277582, Note_on_c, 0, 89, 28
1, 277582, Note_on_c, 0, 92, 28
1, 277582, Note_on_c, 0, 85, 28
1, 277720, Note_on_c, 0, 85, 0
1, 277720, Note_on_c, 0, 92, 0
1, 277720, Note_on_c, 0, 89, 0
1, 277965, Note_on_c, 0, 89, 31
1, 277965, Note_on_c, 0, 92, 31
1, 277965, Note_on_c, 0, 97, 31
1, 280167, Note_on_c, 0, 97, 0
1, 280167, Note_on_c, 0, 92, 0
1, 280167, Note_on_c, 0, 89, 0
1, 280191, Control_c, 0, 64, 0
1, 280607, Note_on_c, 0, 56, 23
1, 280607, Note_on_c, 0, 65, 23
1, 280607, Note_on_c, 0, 61, 23
1, 280610, Note_on_c, 0, 44, 28
1, 280610, Note_on_c, 0, 32, 28
1, 281317, Note_on_c, 0, 32, 0
1, 281317, Note_on_c, 0, 44, 0
1, 281317, Note_on_c, 0, 34, 23
1, 281320, Note_on_c, 0, 46, 23
1, 281553, Note_on_c, 0, 61, 0
1, 281553, Note_on_c, 0, 65, 0
1, 281553, Note_on_c, 0, 56, 0
1, 281556, Note_on_c, 0, 56, 23
1, 281556, Note_on_c, 0, 65, 23
1, 281556, Note_on_c, 0, 61, 23
1, 281559, Note_on_c, 0, 46, 0
1, 281559, Note_on_c, 0, 34, 0
1, 281559, Note_on_c, 0, 44, 23
1, 281562, Note_on_c, 0, 32, 23
1, 282076, Note_on_c, 0, 61, 0
1, 282076, Note_on_c, 0, 65, 0
1, 282076, Note_on_c, 0, 56, 0
1, 282079, Note_on_c, 0, 56, 23
1, 282079, Note_on_c, 0, 61, 23
1, 282079, Note_on_c, 0, 65, 23
1, 282082, Note_on_c, 0, 32, 0
1, 282082, Note_on_c, 0, 44, 0
1, 282082, Note_on_c, 0, 41, 28
1, 282085, Note_on_c, 0, 29, 28
1, 282840, Note_on_c, 0, 29, 0
1, 282840, Note_on_c, 0, 41, 0
1, 282840, Note_on_c, 0, 42, 23
1, 282843, Note_on_c, 0, 30, 23
1, 283111, Note_on_c, 0, 65, 0
1, 283111, Note_on_c, 0, 61, 0
1, 283111, Note_on_c, 0, 56, 0
1, 283114, Note_on_c, 0, 56, 23
1, 283114, Note_on_c, 0, 61, 23
1, 283114, Note_on_c, 0, 65, 23
1, 283117, Note_on_c, 0, 30, 0
1, 283117, Note_on_c, 0, 42, 0
1, 283117, Note_on_c, 0, 29, 23
1, 283120, Note_on_c, 0, 41, 23
1, 283781, Note_on_c, 0, 65, 0
1, 283781, Note_on_c, 0, 61, 0
1, 283781, Note_on_c, 0, 56, 0
1, 283784, Note_on_c, 0, 56, 23
1, 283784, Note_on_c, 0, 61, 23
1, 283784, Note_on_c, 0, 65, 23
1, 283787, Note_on_c, 0, 41, 0
1, 283787, Note_on_c, 0, 29, 0
1, 283787, Note_on_c, 0, 25, 28
1, 283790, Note_on_c, 0, 37, 28
1, 287805, Note_on_c, 0, 65, 0
1, 287805, Note_on_c, 0, 61, 0
1, 287805, Note_on_c, 0, 56, 0
1, 287808, Note_on_c, 0, 37, 0
1, 287808, Note_on_c, 0, 25, 0
1, 289306, End_track
0, 0, End_of_file
