0, 0, Header, 0, 1, 480
1, 0, Start_track
1, 0, Sequencer_specific, 6, 67, 113, 0, 0, 0, 67
1, 0, Sequencer_specific, 39, 67, 113, 0, 1, 0, 1, 1, 70, 114, 101, 110, 99, 104, 83, 117, 105, 116, 101, 78, 111, 46, 53, 32, 89, 117, 110, 103, 32, 87, 111, 111, 107, 32, 89, 111, 111, 32, 32, 32
1, 0, Sequencer_specific, 5, 67, 123, 12, 2, 1
1, 0, Tempo, 512820
1, 0, Time_signature, 4, 2, 24, 8
1, 0, System_exclusive, 5, 126, 127, 9, 1, 247
1, 0, Text_t, "French Suite No. 5 by J. S. Bach"
1, 0, Text_t, "Performed May 25, 2004 by Yung Wook Yoo"
1, 0, Text_t, "From a live recital at the Second International Piano-e-Competition"
1, 0, Instrument_name_t, "Yamaha Disklavier Pro concert grand piano, model DCFIIISAPRO"
1, 1, System_exclusive, 8, 67, 16, 76, 0, 0, 126, 0, 247
1, 2, System_exclusive, 6, 67, 113, 126, 10, 0, 247
1, 5, Control_c, 0, 0, 0
1, 6, Control_c, 0, 32, 0
1, 7, Program_c, 0, 0
1, 8, Control_c, 0, 7, 100
1, 10, Sequencer_specific, 7, 67, 113, 125, 0, 0, 0, 0
1, 10, System_exclusive, 5, 67, 113, 5, 1, 247
1, 10, Title_t, "FrenchSuiteNo.5 Yung Wook Yoo"
1, 10, SMPTE_offset, 96, 0, 0, 0, 0
1, 1924, Control_c, 0, 64, 20
1, 1942, Control_c, 0, 64, 37
1, 1961, Control_c, 0, 64, 56
1, 1979, Control_c, 0, 64, 68
1, 1999, Control_c, 0, 64, 74
1, 2017, Control_c, 0, 64, 79
1, 2036, Control_c, 0, 64, 84
1, 2055, Control_c, 0, 64, 90
1, 2071, Control_c, 0, 64, 96
1, 2091, Control_c, 0, 64, 100
1, 2128, Control_c, 0, 64, 104
1, 2182, Control_c, 0, 64, 109
1, 2257, Note_on_c, 0, 71, 44
1, 2307, Note_on_c, 0, 71, 0
1, 2307, Control_c, 0, 64, 113
1, 2511, Note_on_c, 0, 71, 43
1, 2530, Note_on_c, 0, 55, 39
1, 2547, Control_c, 0, 64, 106
1, 2565, Control_c, 0, 64, 87
1, 2586, Control_c, 0, 64, 50
1, 2603, Control_c, 0, 64, 0
1, 2694, Control_c, 0, 64, 12
1, 2714, Control_c, 0, 64, 41
1, 2732, Control_c, 0, 64, 66
1, 2750, Control_c, 0, 64, 79
1, 2762, Note_on_c, 0, 59, 38
1, 2768, Control_c, 0, 64, 89
1, 2786, Control_c, 0, 64, 95
1, 2823, Control_c, 0, 64, 100
1, 2856, Note_on_c, 0, 71, 0
1, 2878, Control_c, 0, 64, 104
1, 2945, Note_on_c, 0, 62, 43
1, 2972, Control_c, 0, 64, 108
1, 2995, Note_on_c, 0, 59, 0
1, 3004, Note_on_c, 0, 55, 0
1, 3043, Note_on_c, 0, 62, 0
1, 3105, Note_on_c, 0, 72, 56
1, 3117, Control_c, 0, 64, 112
1, 3133, Note_on_c, 0, 67, 38
1, 3316, Control_c, 0, 64, 107
1, 3320, Note_on_c, 0, 72, 0
1, 3321, Note_on_c, 0, 57, 50
1, 3333, Control_c, 0, 64, 102
1, 3335, Note_on_c, 0, 74, 56
1, 3350, Note_on_c, 0, 67, 0
1, 3353, Control_c, 0, 64, 95
1, 3372, Control_c, 0, 64, 85
1, 3391, Control_c, 0, 64, 73
1, 3408, Note_on_c, 0, 74, 0
1, 3408, Control_c, 0, 64, 61
1, 3428, Control_c, 0, 64, 51
1, 3440, Note_on_c, 0, 72, 52
1, 3448, Control_c, 0, 64, 45
1, 3501, Note_on_c, 0, 72, 0
1, 3504, Note_on_c, 0, 67, 46
1, 3521, Control_c, 0, 64, 53
1, 3525, Note_on_c, 0, 74, 66
1, 3538, Control_c, 0, 64, 65
1, 3550, Control_c, 0, 64, 74
1, 3570, Control_c, 0, 64, 81
1, 3578, Note_on_c, 0, 74, 0
1, 3588, Control_c, 0, 64, 86
1, 3603, Note_on_c, 0, 72, 70
1, 3625, Control_c, 0, 64, 91
1, 3660, Note_on_c, 0, 72, 0
1, 3664, Note_on_c, 0, 57, 0
1, 3690, Note_on_c, 0, 74, 70
1, 3694, Note_on_c, 0, 66, 49
1, 3700, Note_on_c, 0, 67, 0
1, 3745, Note_on_c, 0, 74, 0
1, 3754, Control_c, 0, 64, 86
1, 3754, Note_on_c, 0, 72, 70
1, 3773, Control_c, 0, 64, 82
1, 3789, Control_c, 0, 64, 78
1, 3809, Control_c, 0, 64, 74
1, 3825, Note_on_c, 0, 72, 0
1, 3827, Control_c, 0, 64, 70
1, 3834, Note_on_c, 0, 64, 44
1, 3845, Control_c, 0, 64, 67
1, 3846, Note_on_c, 0, 71, 63
1, 3864, Control_c, 0, 64, 65
1, 3884, Control_c, 0, 64, 64
1, 3897, Note_on_c, 0, 66, 0
1, 3921, Control_c, 0, 64, 63
1, 3929, Note_on_c, 0, 71, 0
1, 3937, Control_c, 0, 64, 62
1, 3943, Note_on_c, 0, 72, 65
1, 3957, Control_c, 0, 64, 60
1, 3994, Control_c, 0, 64, 58
1, 4030, Control_c, 0, 64, 55
1, 4057, Note_on_c, 0, 59, 36
1, 4067, Control_c, 0, 64, 52
1, 4068, Note_on_c, 0, 74, 53
1, 4101, Control_c, 0, 64, 50
1, 4106, Note_on_c, 0, 72, 0
1, 4109, Note_on_c, 0, 64, 0
1, 4120, Control_c, 0, 64, 48
1, 4156, Control_c, 0, 64, 46
1, 4277, Note_on_c, 0, 62, 45
1, 4321, Control_c, 0, 64, 44
1, 4377, Control_c, 0, 64, 41
1, 4475, Note_on_c, 0, 66, 35
1, 4519, Note_on_c, 0, 62, 0
1, 4617, Control_c, 0, 64, 37
1, 4669, Note_on_c, 0, 66, 0
1, 4687, Note_on_c, 0, 67, 26
1, 4690, Control_c, 0, 64, 32
1, 4763, Control_c, 0, 64, 28
1, 4840, Note_on_c, 0, 59, 0
1, 4847, Note_on_c, 0, 74, 0
1, 4877, Note_on_c, 0, 71, 49
1, 4947, Control_c, 0, 64, 24
1, 5069, Note_on_c, 0, 74, 66
1, 5109, Note_on_c, 0, 71, 0
1, 5251, Note_on_c, 0, 59, 46
1, 5268, Note_on_c, 0, 78, 67
1, 5333, Note_on_c, 0, 59, 0
1, 5347, Note_on_c, 0, 74, 0
1, 5438, Note_on_c, 0, 79, 72
1, 5554, Note_on_c, 0, 78, 0
1, 5641, Note_on_c, 0, 79, 0
1, 5643, Note_on_c, 0, 76, 67
1, 5656, Note_on_c, 0, 60, 46
1, 5764, Note_on_c, 0, 60, 0
1, 5852, Note_on_c, 0, 79, 50
1, 5853, Note_on_c, 0, 76, 0
1, 5919, Control_c, 0, 67, 8
1, 5941, Note_on_c, 0, 79, 0
1, 6029, Control_c, 0, 67, 12
1, 6048, Note_on_c, 0, 74, 54
1, 6051, Note_on_c, 0, 59, 43
1, 6137, Control_c, 0, 67, 18
1, 6174, Control_c, 0, 67, 23
1, 6197, Note_on_c, 0, 59, 0
1, 6229, Control_c, 0, 67, 27
1, 6233, Note_on_c, 0, 79, 50
1, 6269, Note_on_c, 0, 74, 0
1, 6303, Control_c, 0, 67, 33
1, 6311, Note_on_c, 0, 79, 0
1, 6321, Control_c, 0, 67, 37
1, 6341, Control_c, 0, 67, 42
1, 6358, Control_c, 0, 67, 47
1, 6376, Control_c, 0, 67, 52
1, 6415, Control_c, 0, 67, 56
1, 6419, Note_on_c, 0, 72, 54
1, 6458, Note_on_c, 0, 57, 36
1, 6592, Note_on_c, 0, 72, 0
1, 6613, Note_on_c, 0, 71, 54
1, 6742, Note_on_c, 0, 67, 0
1, 6743, Control_c, 0, 67, 52
1, 6779, Note_on_c, 0, 71, 0
1, 6800, Note_on_c, 0, 72, 58
1, 6832, Note_on_c, 0, 66, 27
1, 6909, Note_on_c, 0, 66, 0
1, 7011, Note_on_c, 0, 81, 61
1, 7026, Note_on_c, 0, 72, 0
1, 7221, Note_on_c, 0, 81, 0
1, 7225, Note_on_c, 0, 55, 50
1, 7229, Note_on_c, 0, 72, 49
1, 7293, Note_on_c, 0, 57, 0
1, 7415, Note_on_c, 0, 71, 54
1, 7447, Note_on_c, 0, 72, 0
1, 7515, Control_c, 0, 67, 48
1, 7551, Control_c, 0, 67, 41
1, 7587, Control_c, 0, 67, 33
1, 7608, Control_c, 0, 67, 29
1, 7614, Note_on_c, 0, 59, 53
1, 7625, Control_c, 0, 67, 24
1, 7630, Note_on_c, 0, 69, 59
1, 7645, Control_c, 0, 67, 16
1, 7651, Note_on_c, 0, 71, 0
1, 7680, Control_c, 0, 67, 0
1, 7700, Note_on_c, 0, 59, 0
1, 7804, Note_on_c, 0, 69, 0
1, 7809, Note_on_c, 0, 67, 61
1, 8015, Note_on_c, 0, 62, 51
1, 8027, Note_on_c, 0, 71, 57
1, 8029, Note_on_c, 0, 67, 0
1, 8187, Note_on_c, 0, 55, 0
1, 8205, Note_on_c, 0, 54, 61
1, 8220, Note_on_c, 0, 62, 0
1, 8411, Note_on_c, 0, 67, 58
1, 8426, Note_on_c, 0, 52, 55
1, 8432, Note_on_c, 0, 54, 0
1, 8501, Note_on_c, 0, 67, 0
1, 8574, Note_on_c, 0, 52, 0
1, 8602, Note_on_c, 0, 50, 44
1, 8850, Note_on_c, 0, 64, 48
1, 8852, Note_on_c, 0, 49, 40
1, 8858, Note_on_c, 0, 50, 0
1, 9029, Note_on_c, 0, 76, 58
1, 9030, Note_on_c, 0, 71, 0
1, 9041, Note_on_c, 0, 64, 0
1, 9161, Note_on_c, 0, 76, 0
1, 9221, Note_on_c, 0, 69, 59
1, 9233, Note_on_c, 0, 52, 47
1, 9311, Note_on_c, 0, 52, 0
1, 9413, Note_on_c, 0, 76, 47
1, 9416, Note_on_c, 0, 69, 0
1, 9457, Note_on_c, 0, 76, 0
1, 9605, Note_on_c, 0, 67, 45
1, 9612, Note_on_c, 0, 57, 41
1, 9659, Note_on_c, 0, 49, 0
1, 9765, Note_on_c, 0, 67, 0
1, 9801, Note_on_c, 0, 66, 42
1, 9806, Control_c, 0, 67, 8
1, 10004, Note_on_c, 0, 67, 46
1, 10008, Note_on_c, 0, 49, 41
1, 10032, Note_on_c, 0, 66, 0
1, 10087, Note_on_c, 0, 49, 0
1, 10186, Note_on_c, 0, 67, 0
1, 10190, Note_on_c, 0, 76, 50
1, 10397, Note_on_c, 0, 76, 0
1, 10410, Note_on_c, 0, 50, 38
1, 10412, Note_on_c, 0, 67, 46
1, 10552, Note_on_c, 0, 57, 0
1, 10588, Note_on_c, 0, 66, 52
1, 10619, Note_on_c, 0, 67, 0
1, 10796, Note_on_c, 0, 54, 55
1, 10819, Note_on_c, 0, 64, 53
1, 10850, Note_on_c, 0, 66, 0
1, 10907, Note_on_c, 0, 54, 0
1, 10983, Note_on_c, 0, 64, 0
1, 10999, Control_c, 0, 67, 0
1, 11010, Note_on_c, 0, 62, 54
1, 11191, Note_on_c, 0, 64, 57
1, 11196, Note_on_c, 0, 57, 62
1, 11212, Note_on_c, 0, 62, 0
1, 11252, Note_on_c, 0, 50, 0
1, 11389, Note_on_c, 0, 66, 54
1, 11419, Note_on_c, 0, 64, 0
1, 11602, Note_on_c, 0, 66, 0
1, 11605, Note_on_c, 0, 67, 56
1, 11615, Note_on_c, 0, 48, 49
1, 11673, Note_on_c, 0, 48, 0
1, 11784, Note_on_c, 0, 66, 59
1, 11787, Note_on_c, 0, 67, 0
1, 11996, Note_on_c, 0, 67, 52
1, 12006, Note_on_c, 0, 50, 51
1, 12015, Note_on_c, 0, 66, 0
1, 12054, Note_on_c, 0, 47, 23
1, 12088, Note_on_c, 0, 57, 0
1, 12210, Note_on_c, 0, 67, 0
1, 12211, Note_on_c, 0, 69, 54
1, 12245, Note_on_c, 0, 50, 0
1, 12415, Note_on_c, 0, 69, 0
1, 12426, Note_on_c, 0, 67, 53
1, 12428, Note_on_c, 0, 55, 63
1, 12633, Note_on_c, 0, 69, 59
1, 12634, Note_on_c, 0, 67, 0
1, 12808, Note_on_c, 0, 69, 0
1, 12822, Note_on_c, 0, 71, 64
1, 12838, Note_on_c, 0, 45, 43
1, 12872, Note_on_c, 0, 47, 0
1, 12903, Note_on_c, 0, 71, 0
1, 12919, Note_on_c, 0, 69, 68
1, 12944, Control_c, 0, 67, 8
1, 12979, Note_on_c, 0, 69, 0
1, 13000, Control_c, 0, 67, 13
1, 13005, Note_on_c, 0, 71, 67
1, 13019, Control_c, 0, 67, 18
1, 13038, Control_c, 0, 67, 24
1, 13056, Control_c, 0, 67, 28
1, 13070, Note_on_c, 0, 71, 0
1, 13071, Control_c, 0, 67, 32
1, 13087, Note_on_c, 0, 69, 70
1, 13090, Control_c, 0, 67, 38
1, 13111, Control_c, 0, 67, 44
1, 13129, Control_c, 0, 67, 52
1, 13146, Control_c, 0, 67, 59
1, 13148, Note_on_c, 0, 69, 0
1, 13155, Note_on_c, 0, 55, 0
1, 13165, Control_c, 0, 67, 64
1, 13168, Note_on_c, 0, 54, 42
1, 13172, Note_on_c, 0, 71, 64
1, 13202, Control_c, 0, 67, 71
1, 13240, Control_c, 0, 67, 77
1, 13248, Note_on_c, 0, 71, 0
1, 13259, Control_c, 0, 67, 81
1, 13274, Note_on_c, 0, 69, 64
1, 13276, Control_c, 0, 67, 85
1, 13293, Control_c, 0, 67, 89
1, 13313, Control_c, 0, 67, 93
1, 13323, Note_on_c, 0, 69, 0
1, 13330, Control_c, 0, 67, 97
1, 13349, Control_c, 0, 67, 102
1, 13364, Note_on_c, 0, 67, 49
1, 13365, Control_c, 0, 67, 107
1, 13405, Control_c, 0, 67, 112
1, 13485, Note_on_c, 0, 67, 0
1, 13492, Note_on_c, 0, 69, 57
1, 13622, Control_c, 0, 64, 20
1, 13630, Note_on_c, 0, 45, 0
1, 13657, Note_on_c, 0, 55, 34
1, 13667, Note_on_c, 0, 54, 0
1, 13669, Note_on_c, 0, 71, 43
1, 13691, Note_on_c, 0, 69, 0
1, 13875, Note_on_c, 0, 43, 41
1, 14008, Control_c, 0, 67, 108
1, 14046, Control_c, 0, 67, 103
1, 14055, Poly_aftertouch_c, 0, 55, 24
1, 14073, Note_on_c, 0, 47, 48
1, 14078, Note_on_c, 0, 55, 0
1, 14078, Poly_aftertouch_c, 0, 55, 0
1, 14091, Note_on_c, 0, 43, 0
1, 14099, Control_c, 0, 67, 94
1, 14119, Control_c, 0, 67, 84
1, 14138, Control_c, 0, 67, 70
1, 14154, Control_c, 0, 67, 57
1, 14173, Control_c, 0, 67, 45
1, 14193, Control_c, 0, 67, 31
1, 14211, Control_c, 0, 67, 16
1, 14229, Control_c, 0, 67, 0
1, 14260, Note_on_c, 0, 50, 51
1, 14276, Note_on_c, 0, 47, 0
1, 14434, Note_on_c, 0, 71, 0
1, 14440, Note_on_c, 0, 50, 0
1, 14477, Note_on_c, 0, 55, 45
1, 14669, Note_on_c, 0, 71, 64
1, 14848, Note_on_c, 0, 57, 49
1, 14859, Note_on_c, 0, 76, 69
1, 14878, Note_on_c, 0, 71, 0
1, 14884, Note_on_c, 0, 55, 0
1, 15041, Note_on_c, 0, 75, 77
1, 15053, Note_on_c, 0, 57, 0
1, 15056, Note_on_c, 0, 76, 0
1, 15072, Note_on_c, 0, 59, 44
1, 15255, Note_on_c, 0, 76, 66
1, 15265, Note_on_c, 0, 59, 0
1, 15271, Note_on_c, 0, 60, 50
1, 15296, Note_on_c, 0, 75, 0
1, 15435, Note_on_c, 0, 60, 0
1, 15469, Note_on_c, 0, 78, 65
1, 15488, Note_on_c, 0, 76, 0
1, 15663, Note_on_c, 0, 64, 69
1, 15678, Note_on_c, 0, 76, 58
1, 15681, Note_on_c, 0, 78, 0
1, 15693, Note_on_c, 0, 55, 48
1, 15773, Note_on_c, 0, 55, 0
1, 15864, Note_on_c, 0, 78, 66
1, 15902, Note_on_c, 0, 76, 0
1, 16027, Note_on_c, 0, 78, 0
1, 16040, Note_on_c, 0, 79, 66
1, 16041, Note_on_c, 0, 57, 53
1, 16108, Note_on_c, 0, 57, 0
1, 16131, Note_on_c, 0, 79, 0
1, 16146, Note_on_c, 0, 78, 75
1, 16214, Note_on_c, 0, 78, 0
1, 16233, Note_on_c, 0, 79, 68
1, 16316, Note_on_c, 0, 79, 0
1, 16333, Note_on_c, 0, 78, 71
1, 16390, Note_on_c, 0, 78, 0
1, 16410, Control_c, 0, 67, 8
1, 16414, Note_on_c, 0, 79, 67
1, 16420, Note_on_c, 0, 59, 42
1, 16428, Note_on_c, 0, 63, 46
1, 16480, Note_on_c, 0, 64, 0
1, 16491, Note_on_c, 0, 79, 0
1, 16502, Note_on_c, 0, 78, 68
1, 16568, Note_on_c, 0, 59, 0
1, 16574, Note_on_c, 0, 78, 0
1, 16603, Note_on_c, 0, 76, 59
1, 16703, Note_on_c, 0, 78, 59
1, 16705, Control_c, 0, 67, 12
1, 16706, Note_on_c, 0, 76, 0
1, 16761, Control_c, 0, 67, 16
1, 16815, Control_c, 0, 67, 20
1, 16828, Note_on_c, 0, 79, 52
1, 16845, Note_on_c, 0, 78, 0
1, 16847, Note_on_c, 0, 63, 0
1, 16851, Control_c, 0, 67, 24
1, 16852, Note_on_c, 0, 64, 41
1, 16888, Control_c, 0, 67, 30
1, 16907, Control_c, 0, 67, 34
1, 16926, Control_c, 0, 67, 38
1, 16963, Control_c, 0, 67, 43
1, 17002, Control_c, 0, 67, 49
1, 17056, Control_c, 0, 67, 55
1, 17077, Note_on_c, 0, 59, 51
1, 17093, Control_c, 0, 67, 59
1, 17147, Control_c, 0, 67, 64
1, 17215, Control_c, 0, 67, 68
1, 17253, Control_c, 0, 67, 74
1, 17272, Control_c, 0, 67, 78
1, 17274, Note_on_c, 0, 59, 0
1, 17290, Control_c, 0, 67, 82
1, 17300, Note_on_c, 0, 55, 36
1, 17327, Control_c, 0, 67, 88
1, 17347, Control_c, 0, 67, 92
1, 17363, Control_c, 0, 67, 98
1, 17383, Control_c, 0, 67, 103
1, 17401, Control_c, 0, 67, 109
1, 17419, Control_c, 0, 67, 114
1, 17475, Control_c, 0, 67, 120
1, 17494, Control_c, 0, 67, 124
1, 17500, Note_on_c, 0, 59, 32
1, 17505, Note_on_c, 0, 55, 0
1, 17735, Note_on_c, 0, 52, 32
1, 17750, Note_on_c, 0, 59, 0
1, 17895, Note_on_c, 0, 52, 0
1, 17910, Note_on_c, 0, 78, 58
1, 17956, Note_on_c, 0, 79, 0
1, 18073, Note_on_c, 0, 55, 44
1, 18105, Note_on_c, 0, 76, 59
1, 18161, Note_on_c, 0, 78, 0
1, 18175, Note_on_c, 0, 55, 0
1, 18282, Control_c, 0, 67, 119
1, 18285, Note_on_c, 0, 76, 0
1, 18300, Note_on_c, 0, 74, 55
1, 18319, Control_c, 0, 67, 111
1, 18336, Control_c, 0, 67, 106
1, 18430, Control_c, 0, 67, 102
1, 18484, Note_on_c, 0, 74, 0
1, 18485, Note_on_c, 0, 73, 56
1, 18507, Note_on_c, 0, 57, 39
1, 18557, Control_c, 0, 67, 97
1, 18572, Note_on_c, 0, 64, 0
1, 18690, Note_on_c, 0, 73, 0
1, 18694, Note_on_c, 0, 76, 50
1, 18773, Note_on_c, 0, 76, 0
1, 18892, Note_on_c, 0, 59, 46
1, 18908, Note_on_c, 0, 71, 39
1, 19011, Note_on_c, 0, 59, 0
1, 19086, Note_on_c, 0, 76, 45
1, 19114, Note_on_c, 0, 71, 0
1, 19136, Note_on_c, 0, 76, 0
1, 19291, Note_on_c, 0, 69, 50
1, 19298, Note_on_c, 0, 61, 39
1, 19330, Note_on_c, 0, 69, 0
1, 19356, Note_on_c, 0, 57, 0
1, 19475, Control_c, 0, 67, 92
1, 19492, Control_c, 0, 67, 85
1, 19496, Note_on_c, 0, 79, 64
1, 19512, Control_c, 0, 67, 74
1, 19530, Control_c, 0, 67, 57
1, 19549, Control_c, 0, 67, 36
1, 19566, Control_c, 0, 67, 13
1, 19584, Control_c, 0, 67, 0
1, 19694, Note_on_c, 0, 78, 69
1, 19695, Note_on_c, 0, 57, 38
1, 19742, Note_on_c, 0, 79, 0
1, 19802, Note_on_c, 0, 57, 0
1, 19870, Note_on_c, 0, 76, 73
1, 19889, Note_on_c, 0, 61, 0
1, 19904, Note_on_c, 0, 78, 0
1, 20095, Note_on_c, 0, 78, 71
1, 20111, Note_on_c, 0, 62, 46
1, 20123, Note_on_c, 0, 50, 43
1, 20154, Note_on_c, 0, 76, 0
1, 20242, Note_on_c, 0, 50, 0
1, 20283, Note_on_c, 0, 81, 69
1, 20309, Note_on_c, 0, 78, 0
1, 20330, Note_on_c, 0, 81, 0
1, 20476, Note_on_c, 0, 76, 64
1, 20481, Note_on_c, 0, 52, 46
1, 20593, Note_on_c, 0, 52, 0
1, 20677, Note_on_c, 0, 81, 64
1, 20715, Note_on_c, 0, 76, 0
1, 20748, Note_on_c, 0, 81, 0
1, 20859, Note_on_c, 0, 74, 64
1, 20877, Note_on_c, 0, 54, 46
1, 20970, Note_on_c, 0, 54, 0
1, 20976, Control_c, 0, 67, 8
1, 20989, Note_on_c, 0, 74, 0
1, 21064, Note_on_c, 0, 72, 62
1, 21217, Control_c, 0, 67, 12
1, 21257, Note_on_c, 0, 50, 44
1, 21265, Note_on_c, 0, 71, 63
1, 21305, Note_on_c, 0, 72, 0
1, 21329, Control_c, 0, 67, 17
1, 21333, Note_on_c, 0, 50, 0
1, 21419, Control_c, 0, 67, 21
1, 21429, Note_on_c, 0, 71, 0
1, 21440, Note_on_c, 0, 69, 66
1, 21641, Note_on_c, 0, 55, 39
1, 21649, Note_on_c, 0, 71, 59
1, 21684, Note_on_c, 0, 69, 0
1, 21695, Control_c, 0, 67, 28
1, 21714, Control_c, 0, 67, 32
1, 21734, Control_c, 0, 67, 36
1, 21770, Control_c, 0, 67, 41
1, 21837, Note_on_c, 0, 74, 55
1, 21844, Note_on_c, 0, 71, 0
1, 21918, Note_on_c, 0, 74, 0
1, 21932, Note_on_c, 0, 62, 0
1, 22047, Note_on_c, 0, 60, 52
1, 22049, Note_on_c, 0, 69, 56
1, 22208, Note_on_c, 0, 60, 0
1, 22232, Note_on_c, 0, 74, 54
1, 22255, Note_on_c, 0, 69, 0
1, 22298, Note_on_c, 0, 74, 0
1, 22424, Note_on_c, 0, 59, 49
1, 22425, Note_on_c, 0, 67, 47
1, 22586, Note_on_c, 0, 59, 0
1, 22607, Note_on_c, 0, 74, 55
1, 22622, Note_on_c, 0, 67, 0
1, 22631, Control_c, 0, 67, 45
1, 22687, Control_c, 0, 67, 51
1, 22689, Note_on_c, 0, 74, 0
1, 22707, Control_c, 0, 67, 58
1, 22724, Control_c, 0, 67, 66
1, 22741, Control_c, 0, 67, 70
1, 22779, Control_c, 0, 67, 77
1, 22797, Control_c, 0, 67, 82
1, 22798, Note_on_c, 0, 66, 47
1, 22817, Note_on_c, 0, 57, 40
1, 22830, Control_c, 0, 67, 88
1, 22848, Control_c, 0, 67, 96
1, 22868, Control_c, 0, 67, 103
1, 22885, Control_c, 0, 67, 108
1, 22905, Control_c, 0, 67, 113
1, 22923, Control_c, 0, 67, 117
1, 22943, Control_c, 0, 67, 122
1, 22960, Control_c, 0, 67, 126
1, 22968, Note_on_c, 0, 57, 0
1, 22972, Note_on_c, 0, 55, 0
1, 23015, Note_on_c, 0, 74, 46
1, 23152, Note_on_c, 0, 74, 0
1, 23217, Note_on_c, 0, 66, 0
1, 23222, Note_on_c, 0, 55, 39
1, 23226, Note_on_c, 0, 64, 53
1, 23311, Note_on_c, 0, 64, 0
1, 23417, Note_on_c, 0, 74, 56
1, 23611, Note_on_c, 0, 73, 63
1, 23616, Note_on_c, 0, 52, 49
1, 23652, Note_on_c, 0, 74, 0
1, 23709, Note_on_c, 0, 52, 0
1, 23714, Control_c, 0, 67, 121
1, 23784, Control_c, 0, 67, 115
1, 23802, Control_c, 0, 67, 108
1, 23809, Note_on_c, 0, 73, 0
1, 23812, Note_on_c, 0, 71, 65
1, 23820, Control_c, 0, 67, 100
1, 23840, Control_c, 0, 67, 88
1, 23859, Control_c, 0, 67, 77
1, 23878, Control_c, 0, 67, 64
1, 23897, Control_c, 0, 67, 50
1, 23912, Control_c, 0, 67, 35
1, 23932, Control_c, 0, 67, 21
1, 23951, Control_c, 0, 67, 9
1, 24004, Control_c, 0, 67, 0
1, 24007, Note_on_c, 0, 73, 61
1, 24022, Note_on_c, 0, 45, 43
1, 24049, Note_on_c, 0, 71, 0
1, 24122, Note_on_c, 0, 45, 0
1, 24203, Note_on_c, 0, 76, 63
1, 24260, Note_on_c, 0, 73, 0
1, 24395, Note_on_c, 0, 52, 61
1, 24405, Note_on_c, 0, 69, 55
1, 24406, Note_on_c, 0, 76, 0
1, 24410, Note_on_c, 0, 49, 55
1, 24446, Note_on_c, 0, 55, 0
1, 24527, Note_on_c, 0, 49, 0
1, 24601, Note_on_c, 0, 79, 67
1, 24660, Note_on_c, 0, 69, 0
1, 24814, Note_on_c, 0, 78, 69
1, 24849, Note_on_c, 0, 52, 0
1, 24853, Note_on_c, 0, 50, 49
1, 24858, Note_on_c, 0, 79, 0
1, 25017, Note_on_c, 0, 76, 75
1, 25041, Note_on_c, 0, 78, 0
1, 25125, Control_c, 0, 64, 10
1, 25144, Control_c, 0, 64, 0
1, 25207, Note_on_c, 0, 78, 68
1, 25230, Note_on_c, 0, 43, 41
1, 25246, Note_on_c, 0, 76, 0
1, 25327, Control_c, 0, 64, 20
1, 25345, Control_c, 0, 64, 35
1, 25365, Control_c, 0, 64, 50
1, 25379, Note_on_c, 0, 43, 0
1, 25380, Note_on_c, 0, 50, 0
1, 25382, Control_c, 0, 64, 63
1, 25385, Note_on_c, 0, 74, 64
1, 25397, Note_on_c, 0, 78, 0
1, 25400, Control_c, 0, 64, 70
1, 25408, Note_on_c, 0, 52, 43
1, 25420, Control_c, 0, 64, 73
1, 25438, Control_c, 0, 64, 75
1, 25448, Note_on_c, 0, 74, 0
1, 25456, Control_c, 0, 64, 77
1, 25495, Control_c, 0, 64, 80
1, 25531, Control_c, 0, 64, 83
1, 25598, Note_on_c, 0, 74, 59
1, 25601, Note_on_c, 0, 52, 0
1, 25631, Note_on_c, 0, 54, 51
1, 25635, Control_c, 0, 64, 85
1, 25648, Note_on_c, 0, 74, 0
1, 25654, Control_c, 0, 67, 8
1, 25660, Note_on_c, 0, 45, 36
1, 25673, Control_c, 0, 64, 80
1, 25676, Note_on_c, 0, 73, 60
1, 25693, Control_c, 0, 64, 67
1, 25703, Note_on_c, 0, 73, 0
1, 25710, Control_c, 0, 64, 33
1, 25712, Control_c, 0, 67, 13
1, 25729, Control_c, 0, 64, 0
1, 25730, Note_on_c, 0, 74, 61
1, 25749, Control_c, 0, 67, 19
1, 25766, Control_c, 0, 67, 24
1, 25784, Control_c, 0, 67, 29
1, 25794, Note_on_c, 0, 73, 58
1, 25800, Note_on_c, 0, 74, 0
1, 25877, Control_c, 0, 67, 33
1, 25913, Control_c, 0, 67, 37
1, 25969, Control_c, 0, 67, 43
1, 25987, Control_c, 0, 67, 48
1, 26006, Control_c, 0, 67, 55
1, 26023, Control_c, 0, 67, 60
1, 26042, Control_c, 0, 67, 65
1, 26061, Control_c, 0, 67, 70
1, 26079, Control_c, 0, 67, 76
1, 26097, Control_c, 0, 67, 84
1, 26107, Poly_aftertouch_c, 0, 54, 24
1, 26114, Control_c, 0, 67, 94
1, 26129, Note_on_c, 0, 55, 43
1, 26131, Control_c, 0, 67, 103
1, 26153, Control_c, 0, 67, 109
1, 26160, Note_on_c, 0, 54, 0
1, 26160, Poly_aftertouch_c, 0, 54, 0
1, 26191, Control_c, 0, 67, 114
1, 26208, Control_c, 0, 67, 119
1, 26228, Control_c, 0, 67, 127
1, 26354, Control_c, 0, 64, 29
1, 26373, Control_c, 0, 64, 50
1, 26392, Control_c, 0, 64, 66
1, 26394, Note_on_c, 0, 73, 0
1, 26409, Note_on_c, 0, 74, 58
1, 26411, Control_c, 0, 64, 75
1, 26430, Control_c, 0, 64, 83
1, 26431, Note_on_c, 0, 45, 0
1, 26445, Note_on_c, 0, 55, 0
1, 26448, Control_c, 0, 64, 89
1, 26484, Control_c, 0, 64, 94
1, 26526, Note_on_c, 0, 74, 0
1, 26629, Control_c, 0, 64, 98
1, 26750, Note_on_c, 0, 74, 51
1, 26776, Control_c, 0, 64, 85
1, 26776, Note_on_c, 0, 54, 40
1, 26785, Note_on_c, 0, 50, 32
1, 26791, Control_c, 0, 64, 58
1, 26811, Control_c, 0, 64, 0
1, 26905, Control_c, 0, 64, 22
1, 26924, Control_c, 0, 64, 48
1, 26942, Control_c, 0, 64, 65
1, 26960, Control_c, 0, 64, 71
1, 26979, Control_c, 0, 64, 73
1, 27014, Note_on_c, 0, 62, 36
1, 27033, Control_c, 0, 64, 75
1, 27036, Note_on_c, 0, 50, 0
1, 27092, Note_on_c, 0, 54, 0
1, 27193, Note_on_c, 0, 62, 0
1, 27204, Note_on_c, 0, 55, 41
1, 27206, Note_on_c, 0, 52, 33
1, 27236, Control_c, 0, 64, 71
1, 27272, Control_c, 0, 64, 69
1, 27290, Control_c, 0, 64, 67
1, 27309, Control_c, 0, 64, 65
1, 27328, Control_c, 0, 64, 61
1, 27329, Control_c, 0, 67, 122
1, 27346, Control_c, 0, 64, 59
1, 27365, Control_c, 0, 67, 117
1, 27377, Note_on_c, 0, 55, 0
1, 27383, Control_c, 0, 67, 113
1, 27399, Note_on_c, 0, 62, 52
1, 27403, Control_c, 0, 67, 108
1, 27419, Control_c, 0, 67, 101
1, 27439, Control_c, 0, 67, 91
1, 27457, Control_c, 0, 64, 57
1, 27458, Control_c, 0, 67, 82
1, 27476, Control_c, 0, 67, 76
1, 27507, Control_c, 0, 67, 72
1, 27527, Control_c, 0, 67, 68
1, 27545, Control_c, 0, 67, 61
1, 27564, Control_c, 0, 67, 54
1, 27582, Control_c, 0, 67, 46
1, 27601, Control_c, 0, 64, 55
1, 27602, Control_c, 0, 67, 38
1, 27617, Note_on_c, 0, 62, 0
1, 27619, Control_c, 0, 67, 30
1, 27624, Note_on_c, 0, 57, 44
1, 27631, Note_on_c, 0, 54, 37
1, 27637, Control_c, 0, 67, 23
1, 27656, Control_c, 0, 64, 53
1, 27658, Control_c, 0, 67, 16
1, 27674, Control_c, 0, 67, 9
1, 27711, Control_c, 0, 64, 51
1, 27712, Control_c, 0, 67, 0
1, 27747, Note_on_c, 0, 52, 0
1, 27804, Note_on_c, 0, 78, 63
1, 27807, Note_on_c, 0, 62, 37
1, 27822, Note_on_c, 0, 54, 0
1, 27822, Control_c, 0, 64, 49
1, 27823, Note_on_c, 0, 57, 0
1, 27864, Note_on_c, 0, 74, 0
1, 27995, Note_on_c, 0, 81, 67
1, 27999, Note_on_c, 0, 54, 31
1, 28004, Note_on_c, 0, 62, 0
1, 28020, Note_on_c, 0, 50, 42
1, 28060, Note_on_c, 0, 78, 0
1, 28142, Note_on_c, 0, 54, 0
1, 28192, Note_on_c, 0, 84, 72
1, 28219, Note_on_c, 0, 81, 0
1, 28222, Note_on_c, 0, 62, 33
1, 28282, Control_c, 0, 64, 47
1, 28397, Note_on_c, 0, 55, 49
1, 28398, Note_on_c, 0, 83, 72
1, 28413, Note_on_c, 0, 62, 0
1, 28481, Note_on_c, 0, 84, 0
1, 28513, Note_on_c, 0, 50, 0
1, 28537, Control_c, 0, 64, 45
1, 28597, Note_on_c, 0, 62, 43
1, 28821, Note_on_c, 0, 62, 0
1, 28822, Note_on_c, 0, 57, 55
1, 28860, Note_on_c, 0, 55, 0
1, 29002, Note_on_c, 0, 81, 69
1, 29020, Note_on_c, 0, 62, 38
1, 29042, Note_on_c, 0, 83, 0
1, 29179, Note_on_c, 0, 62, 0
1, 29202, Note_on_c, 0, 81, 0
1, 29202, Note_on_c, 0, 79, 65
1, 29209, Note_on_c, 0, 59, 46
1, 29217, Note_on_c, 0, 57, 0
1, 29407, Note_on_c, 0, 62, 40
1, 29415, Note_on_c, 0, 78, 61
1, 29416, Control_c, 0, 67, 9
1, 29427, Note_on_c, 0, 79, 0
1, 29435, Control_c, 0, 67, 13
1, 29472, Control_c, 0, 67, 17
1, 29546, Control_c, 0, 67, 24
1, 29564, Control_c, 0, 67, 30
1, 29572, Note_on_c, 0, 62, 0
1, 29599, Control_c, 0, 67, 34
1, 29601, Note_on_c, 0, 55, 42
1, 29617, Note_on_c, 0, 76, 59
1, 29632, Note_on_c, 0, 78, 0
1, 29638, Control_c, 0, 67, 39
1, 29656, Control_c, 0, 67, 46
1, 29668, Note_on_c, 0, 59, 0
1, 29673, Control_c, 0, 67, 54
1, 29693, Control_c, 0, 67, 61
1, 29712, Control_c, 0, 64, 43
1, 29714, Control_c, 0, 67, 67
1, 29730, Control_c, 0, 67, 74
1, 29749, Control_c, 0, 67, 82
1, 29766, Control_c, 0, 67, 91
1, 29785, Control_c, 0, 67, 99
1, 29786, Note_on_c, 0, 76, 0
1, 29787, Note_on_c, 0, 74, 57
1, 29791, Note_on_c, 0, 62, 36
1, 29803, Control_c, 0, 67, 106
1, 29823, Control_c, 0, 67, 112
1, 29839, Control_c, 0, 67, 116
1, 29876, Control_c, 0, 67, 122
1, 29914, Control_c, 0, 67, 127
1, 29933, Control_c, 0, 64, 41
1, 30007, Note_on_c, 0, 62, 0
1, 30007, Control_c, 0, 64, 35
1, 30010, Note_on_c, 0, 74, 0
1, 30024, Control_c, 0, 64, 25
1, 30027, Note_on_c, 0, 76, 60
1, 30039, Note_on_c, 0, 52, 38
1, 30042, Control_c, 0, 64, 0
1, 30051, Note_on_c, 0, 55, 0
1, 30102, Note_on_c, 0, 78, 63
1, 30109, Note_on_c, 0, 76, 0
1, 30189, Note_on_c, 0, 79, 59
1, 30197, Note_on_c, 0, 78, 0
1, 30225, Note_on_c, 0, 62, 34
1, 30402, Note_on_c, 0, 62, 0
1, 30416, Note_on_c, 0, 54, 37
1, 30459, Note_on_c, 0, 52, 0
1, 30635, Note_on_c, 0, 78, 57
1, 30636, Note_on_c, 0, 62, 28
1, 30665, Note_on_c, 0, 79, 0
1, 30775, Note_on_c, 0, 54, 0
1, 30823, Note_on_c, 0, 55, 42
1, 30847, Note_on_c, 0, 76, 49
1, 30850, Note_on_c, 0, 62, 0
1, 30879, Note_on_c, 0, 78, 0
1, 31009, Note_on_c, 0, 76, 0
1, 31023, Note_on_c, 0, 62, 37
1, 31025, Note_on_c, 0, 74, 50
1, 31207, Note_on_c, 0, 73, 57
1, 31226, Note_on_c, 0, 74, 0
1, 31256, Note_on_c, 0, 62, 0
1, 31267, Note_on_c, 0, 52, 39
1, 31270, Note_on_c, 0, 55, 0
1, 31402, Note_on_c, 0, 73, 0
1, 31434, Note_on_c, 0, 71, 45
1, 31445, Note_on_c, 0, 62, 35
1, 31641, Note_on_c, 0, 73, 53
1, 31671, Note_on_c, 0, 57, 41
1, 31679, Note_on_c, 0, 62, 0
1, 31682, Note_on_c, 0, 71, 0
1, 31751, Note_on_c, 0, 52, 0
1, 31826, Note_on_c, 0, 69, 53
1, 31827, Note_on_c, 0, 73, 0
1, 31843, Note_on_c, 0, 61, 39
1, 31876, Note_on_c, 0, 69, 0
1, 31933, Control_c, 0, 67, 121
1, 31952, Note_on_c, 0, 57, 0
1, 31968, Control_c, 0, 67, 110
1, 31986, Control_c, 0, 67, 101
1, 32006, Control_c, 0, 67, 89
1, 32023, Control_c, 0, 67, 76
1, 32034, Note_on_c, 0, 74, 64
1, 32040, Note_on_c, 0, 61, 0
1, 32043, Control_c, 0, 67, 62
1, 32052, Note_on_c, 0, 59, 39
1, 32061, Control_c, 0, 67, 48
1, 32081, Control_c, 0, 67, 34
1, 32098, Control_c, 0, 67, 21
1, 32116, Control_c, 0, 67, 9
1, 32185, Control_c, 0, 67, 0
1, 32215, Note_on_c, 0, 74, 0
1, 32232, Note_on_c, 0, 69, 53
1, 32255, Note_on_c, 0, 62, 36
1, 32300, Note_on_c, 0, 69, 0
1, 32404, Note_on_c, 0, 62, 0
1, 32423, Note_on_c, 0, 61, 49
1, 32430, Note_on_c, 0, 76, 68
1, 32440, Note_on_c, 0, 59, 0
1, 32595, Note_on_c, 0, 76, 0
1, 32612, Note_on_c, 0, 69, 63
1, 32614, Note_on_c, 0, 61, 0
1, 32615, Note_on_c, 0, 64, 44
1, 32661, Note_on_c, 0, 69, 0
1, 32802, Note_on_c, 0, 57, 42
1, 32805, Note_on_c, 0, 79, 70
1, 32874, Note_on_c, 0, 64, 0
1, 32987, Note_on_c, 0, 76, 72
1, 32991, Note_on_c, 0, 61, 46
1, 33011, Note_on_c, 0, 79, 0
1, 33017, Note_on_c, 0, 57, 0
1, 33212, Note_on_c, 0, 77, 67
1, 33215, Note_on_c, 0, 61, 0
1, 33217, Note_on_c, 0, 62, 39
1, 33233, Note_on_c, 0, 76, 0
1, 33387, Note_on_c, 0, 77, 0
1, 33398, Note_on_c, 0, 69, 64
1, 33592, Note_on_c, 0, 74, 70
1, 33617, Note_on_c, 0, 60, 45
1, 33626, Note_on_c, 0, 69, 0
1, 33644, Note_on_c, 0, 62, 0
1, 33785, Note_on_c, 0, 76, 71
1, 33840, Note_on_c, 0, 74, 0
1, 33982, Note_on_c, 0, 77, 70
1, 33997, Note_on_c, 0, 58, 43
1, 34054, Note_on_c, 0, 76, 0
1, 34062, Note_on_c, 0, 60, 0
1, 34193, Note_on_c, 0, 74, 63
1, 34196, Note_on_c, 0, 77, 0
1, 34254, Note_on_c, 0, 74, 0
1, 34391, Note_on_c, 0, 78, 72
1, 34402, Note_on_c, 0, 57, 49
1, 34426, Note_on_c, 0, 58, 0
1, 34570, Note_on_c, 0, 74, 63
1, 34616, Note_on_c, 0, 78, 0
1, 34670, Note_on_c, 0, 74, 0
1, 34778, Note_on_c, 0, 79, 70
1, 34794, Note_on_c, 0, 58, 43
1, 34809, Note_on_c, 0, 57, 0
1, 34968, Note_on_c, 0, 79, 0
1, 34972, Note_on_c, 0, 74, 58
1, 35061, Note_on_c, 0, 74, 0
1, 35174, Note_on_c, 0, 82, 67
1, 35194, Note_on_c, 0, 55, 40
1, 35215, Note_on_c, 0, 58, 0
1, 35262, Note_on_c, 0, 82, 0
1, 35369, Note_on_c, 0, 81, 79
1, 35546, Note_on_c, 0, 55, 0
1, 35578, Note_on_c, 0, 80, 68
1, 35580, Note_on_c, 0, 52, 47
1, 35592, Note_on_c, 0, 81, 0
1, 35646, Note_on_c, 0, 80, 0
1, 35754, Note_on_c, 0, 74, 67
1, 35958, Note_on_c, 0, 52, 0
1, 35959, Note_on_c, 0, 57, 41
1, 35971, Note_on_c, 0, 73, 62
1, 35986, Note_on_c, 0, 74, 0
1, 36025, Note_on_c, 0, 73, 0
1, 36161, Note_on_c, 0, 79, 61
1, 36167, Control_c, 0, 67, 8
1, 36367, Note_on_c, 0, 62, 38
1, 36369, Note_on_c, 0, 78, 53
1, 36370, Note_on_c, 0, 57, 0
1, 36371, Note_on_c, 0, 79, 0
1, 36371, Control_c, 0, 67, 13
1, 36408, Control_c, 0, 67, 17
1, 36431, Note_on_c, 0, 78, 0
1, 36444, Control_c, 0, 67, 25
1, 36462, Control_c, 0, 67, 29
1, 36500, Control_c, 0, 67, 35
1, 36538, Control_c, 0, 67, 39
1, 36559, Note_on_c, 0, 72, 53
1, 36574, Control_c, 0, 67, 43
1, 36725, Note_on_c, 0, 62, 0
1, 36757, Note_on_c, 0, 71, 49
1, 36763, Note_on_c, 0, 55, 42
1, 36777, Note_on_c, 0, 72, 0
1, 36954, Note_on_c, 0, 55, 0
1, 36955, Note_on_c, 0, 67, 72
1, 36981, Note_on_c, 0, 76, 50
1, 37165, Note_on_c, 0, 76, 0
1, 37191, Note_on_c, 0, 69, 53
1, 37198, Note_on_c, 0, 66, 57
1, 37199, Note_on_c, 0, 71, 0
1, 37217, Note_on_c, 0, 67, 0
1, 37229, Note_on_c, 0, 57, 39
1, 37379, Control_c, 0, 67, 49
1, 37388, Note_on_c, 0, 74, 50
1, 37398, Control_c, 0, 67, 53
1, 37436, Control_c, 0, 67, 57
1, 37473, Control_c, 0, 67, 62
1, 37509, Control_c, 0, 67, 68
1, 37546, Control_c, 0, 67, 73
1, 37577, Note_on_c, 0, 69, 0
1, 37595, Note_on_c, 0, 64, 51
1, 37597, Note_on_c, 0, 67, 49
1, 37600, Control_c, 0, 67, 77
1, 37656, Control_c, 0, 67, 82
1, 37667, Note_on_c, 0, 66, 0
1, 37729, Control_c, 0, 67, 87
1, 37799, Control_c, 0, 67, 91
1, 37813, Note_on_c, 0, 73, 59
1, 37870, Note_on_c, 0, 74, 0
1, 38021, Control_c, 0, 67, 86
1, 38047, Note_on_c, 0, 74, 56
1, 38057, Note_on_c, 0, 62, 47
1, 38064, Note_on_c, 0, 64, 0
1, 38066, Note_on_c, 0, 73, 0
1, 38076, Note_on_c, 0, 67, 0
1, 38095, Control_c, 0, 67, 81
1, 38110, Control_c, 0, 67, 76
1, 38129, Control_c, 0, 67, 70
1, 38148, Control_c, 0, 67, 61
1, 38167, Control_c, 0, 67, 48
1, 38185, Control_c, 0, 67, 31
1, 38201, Note_on_c, 0, 57, 0
1, 38223, Control_c, 0, 67, 0
1, 38256, Note_on_c, 0, 67, 32
1, 38461, Note_on_c, 0, 69, 46
1, 38476, Note_on_c, 0, 67, 0
1, 38637, Note_on_c, 0, 64, 42
1, 38771, Control_c, 0, 67, 9
1, 38808, Control_c, 0, 67, 16
1, 38845, Control_c, 0, 67, 21
1, 38863, Note_on_c, 0, 66, 44
1, 38865, Control_c, 0, 67, 26
1, 38883, Control_c, 0, 67, 36
1, 38899, Control_c, 0, 67, 46
1, 38908, Note_on_c, 0, 64, 0
1, 38919, Control_c, 0, 67, 55
1, 38938, Control_c, 0, 67, 62
1, 38956, Control_c, 0, 67, 70
1, 38973, Control_c, 0, 67, 79
1, 38991, Control_c, 0, 67, 90
1, 39011, Control_c, 0, 67, 100
1, 39029, Control_c, 0, 67, 105
1, 39044, Note_on_c, 0, 61, 48
1, 39049, Control_c, 0, 67, 110
1, 39066, Note_on_c, 0, 62, 0
1, 39066, Control_c, 0, 67, 115
1, 39085, Control_c, 0, 67, 119
1, 39104, Control_c, 0, 67, 124
1, 39241, Note_on_c, 0, 61, 0
1, 39243, Note_on_c, 0, 62, 40
1, 39454, Note_on_c, 0, 57, 38
1, 39790, Note_on_c, 0, 50, 33
1, 39899, Note_on_c, 0, 57, 0
1, 40094, Control_c, 0, 64, 13
1, 40113, Control_c, 0, 64, 22
1, 40129, Control_c, 0, 64, 29
1, 40149, Control_c, 0, 64, 37
1, 40167, Control_c, 0, 64, 47
1, 40186, Control_c, 0, 64, 55
1, 40204, Control_c, 0, 64, 58
1, 40224, Control_c, 0, 64, 60
1, 40261, Control_c, 0, 64, 61
1, 40315, Control_c, 0, 64, 62
1, 40481, Poly_aftertouch_c, 0, 62, 24
1, 40662, Control_c, 0, 64, 60
1, 40755, Control_c, 0, 64, 58
1, 40756, Poly_aftertouch_c, 0, 62, 20
1, 40863, Control_c, 0, 64, 56
1, 40934, Note_on_c, 0, 62, 0
1, 40934, Poly_aftertouch_c, 0, 62, 0
1, 40934, Control_c, 0, 64, 54
1, 40954, Control_c, 0, 67, 118
1, 40974, Control_c, 0, 64, 52
1, 40989, Poly_aftertouch_c, 0, 69, 24
1, 40991, Control_c, 0, 67, 110
1, 41026, Note_on_c, 0, 66, 0
1, 41030, Control_c, 0, 64, 50
1, 41031, Control_c, 0, 67, 103
1, 41039, Note_on_c, 0, 69, 0
1, 41039, Poly_aftertouch_c, 0, 69, 0
1, 41051, Note_on_c, 0, 74, 0
1, 41053, Note_on_c, 0, 50, 0
1, 41065, Control_c, 0, 67, 94
1, 41085, Control_c, 0, 64, 48
1, 41086, Control_c, 0, 67, 87
1, 41103, Control_c, 0, 67, 79
1, 41121, Control_c, 0, 67, 72
1, 41140, Control_c, 0, 67, 65
1, 41159, Control_c, 0, 64, 46
1, 41160, Control_c, 0, 67, 60
1, 41178, Control_c, 0, 67, 56
1, 41196, Control_c, 0, 67, 51
1, 41214, Control_c, 0, 67, 45
1, 41233, Control_c, 0, 67, 36
1, 41251, Control_c, 0, 64, 44
1, 41252, Control_c, 0, 67, 26
1, 41268, Control_c, 0, 67, 15
1, 41323, Control_c, 0, 67, 0
1, 41488, Note_on_c, 0, 71, 48
1, 41549, Note_on_c, 0, 71, 0
1, 41671, Control_c, 0, 64, 42
1, 41712, Note_on_c, 0, 71, 45
1, 41740, Note_on_c, 0, 55, 32
1, 41817, Control_c, 0, 64, 48
1, 41837, Control_c, 0, 64, 55
1, 41852, Control_c, 0, 64, 60
1, 41872, Control_c, 0, 64, 65
1, 41890, Control_c, 0, 64, 69
1, 41910, Control_c, 0, 64, 74
1, 41927, Control_c, 0, 64, 81
1, 41939, Note_on_c, 0, 59, 42
1, 41947, Control_c, 0, 64, 87
1, 41965, Control_c, 0, 64, 92
1, 42000, Control_c, 0, 64, 96
1, 42039, Control_c, 0, 64, 101
1, 42074, Control_c, 0, 64, 107
1, 42120, Note_on_c, 0, 62, 44
1, 42130, Control_c, 0, 64, 111
1, 42159, Note_on_c, 0, 71, 0
1, 42178, Note_on_c, 0, 59, 0
1, 42201, Note_on_c, 0, 55, 0
1, 42234, Note_on_c, 0, 62, 0
1, 42240, Control_c, 0, 64, 115
1, 42289, Note_on_c, 0, 72, 49
1, 42306, Note_on_c, 0, 67, 41
1, 42371, Control_c, 0, 64, 119
1, 42504, Note_on_c, 0, 72, 0
1, 42510, Note_on_c, 0, 67, 0
1, 42513, Control_c, 0, 64, 113
1, 42520, Note_on_c, 0, 74, 55
1, 42525, Note_on_c, 0, 57, 45
1, 42532, Control_c, 0, 64, 101
1, 42551, Control_c, 0, 64, 74
1, 42569, Control_c, 0, 64, 22
1, 42589, Control_c, 0, 64, 0
1, 42600, Note_on_c, 0, 74, 0
1, 42627, Note_on_c, 0, 72, 56
1, 42680, Control_c, 0, 64, 31
1, 42688, Note_on_c, 0, 72, 0
1, 42697, Note_on_c, 0, 67, 36
1, 42700, Control_c, 0, 64, 55
1, 42709, Note_on_c, 0, 74, 64
1, 42716, Control_c, 0, 64, 69
1, 42734, Control_c, 0, 64, 75
1, 42752, Control_c, 0, 64, 79
1, 42772, Control_c, 0, 64, 82
1, 42781, Note_on_c, 0, 74, 0
1, 42808, Control_c, 0, 64, 84
1, 42809, Note_on_c, 0, 72, 63
1, 42858, Note_on_c, 0, 72, 0
1, 42883, Note_on_c, 0, 57, 0
1, 42884, Note_on_c, 0, 67, 0
1, 42884, Note_on_c, 0, 74, 63
1, 42922, Note_on_c, 0, 66, 35
1, 42948, Note_on_c, 0, 74, 0
1, 42974, Note_on_c, 0, 72, 66
1, 42993, Control_c, 0, 64, 82
1, 43009, Control_c, 0, 64, 79
1, 43018, Note_on_c, 0, 72, 0
1, 43027, Control_c, 0, 64, 75
1, 43044, Note_on_c, 0, 64, 41
1, 43048, Control_c, 0, 64, 73
1, 43049, Note_on_c, 0, 71, 60
1, 43066, Control_c, 0, 64, 71
1, 43103, Control_c, 0, 64, 68
1, 43122, Control_c, 0, 64, 66
1, 43128, Note_on_c, 0, 71, 0
1, 43140, Control_c, 0, 64, 64
1, 43152, Note_on_c, 0, 72, 62
1, 43159, Note_on_c, 0, 66, 0
1, 43159, Control_c, 0, 64, 63
1, 43176, Control_c, 0, 64, 62
1, 43195, Control_c, 0, 64, 60
1, 43250, Control_c, 0, 64, 57
1, 43262, Note_on_c, 0, 59, 44
1, 43265, Note_on_c, 0, 64, 0
1, 43270, Note_on_c, 0, 74, 50
1, 43270, Control_c, 0, 64, 55
1, 43281, Note_on_c, 0, 72, 0
1, 43287, Control_c, 0, 64, 52
1, 43307, Control_c, 0, 64, 47
1, 43323, Control_c, 0, 64, 40
1, 43343, Control_c, 0, 64, 34
1, 43360, Control_c, 0, 64, 30
1, 43412, Control_c, 0, 64, 25
1, 43496, Note_on_c, 0, 62, 43
1, 43716, Note_on_c, 0, 66, 31
1, 43736, Note_on_c, 0, 62, 0
1, 43800, Control_c, 0, 64, 21
1, 43903, Note_on_c, 0, 67, 33
1, 43916, Note_on_c, 0, 66, 0
1, 44025, Note_on_c, 0, 59, 0
1, 44083, Note_on_c, 0, 74, 0
1, 44113, Note_on_c, 0, 71, 53
1, 44287, Note_on_c, 0, 74, 65
1, 44325, Note_on_c, 0, 71, 0
1, 44502, Note_on_c, 0, 78, 69
1, 44510, Note_on_c, 0, 59, 44
1, 44586, Note_on_c, 0, 74, 0
1, 44643, Control_c, 0, 64, 17
1, 44679, Note_on_c, 0, 79, 65
1, 44775, Note_on_c, 0, 78, 0
1, 44789, Note_on_c, 0, 59, 0
1, 44799, Note_on_c, 0, 79, 0
1, 44884, Note_on_c, 0, 76, 64
1, 44897, Note_on_c, 0, 60, 42
1, 45040, Note_on_c, 0, 60, 0
1, 45068, Note_on_c, 0, 79, 63
1, 45076, Note_on_c, 0, 76, 0
1, 45167, Note_on_c, 0, 79, 0
1, 45261, Note_on_c, 0, 74, 49
1, 45299, Note_on_c, 0, 59, 41
1, 45395, Control_c, 0, 67, 8
1, 45452, Note_on_c, 0, 59, 0
1, 45470, Note_on_c, 0, 79, 43
1, 45547, Note_on_c, 0, 79, 0
1, 45574, Note_on_c, 0, 74, 0
1, 45664, Note_on_c, 0, 72, 45
1, 45692, Note_on_c, 0, 57, 34
1, 45840, Note_on_c, 0, 72, 0
1, 45851, Note_on_c, 0, 71, 51
1, 46038, Note_on_c, 0, 71, 0
1, 46049, Note_on_c, 0, 67, 0
1, 46051, Note_on_c, 0, 72, 51
1, 46064, Note_on_c, 0, 66, 38
1, 46151, Note_on_c, 0, 66, 0
1, 46261, Note_on_c, 0, 81, 56
1, 46274, Note_on_c, 0, 72, 0
1, 46485, Note_on_c, 0, 81, 0
1, 46493, Note_on_c, 0, 72, 44
1, 46499, Note_on_c, 0, 55, 55
1, 46543, Note_on_c, 0, 57, 0
1, 46679, Note_on_c, 0, 71, 57
1, 46703, Note_on_c, 0, 72, 0
1, 46874, Note_on_c, 0, 59, 51
1, 46883, Note_on_c, 0, 71, 0
1, 46892, Note_on_c, 0, 69, 50
1, 46997, Note_on_c, 0, 59, 0
1, 47061, Note_on_c, 0, 69, 0
1, 47074, Note_on_c, 0, 67, 52
1, 47289, Note_on_c, 0, 62, 53
1, 47290, Note_on_c, 0, 71, 58
1, 47292, Note_on_c, 0, 67, 0
1, 47422, Note_on_c, 0, 55, 0
1, 47430, Control_c, 0, 64, 13
1, 47467, Note_on_c, 0, 54, 43
1, 47614, Control_c, 0, 64, 9
1, 47668, Note_on_c, 0, 54, 0
1, 47671, Note_on_c, 0, 67, 63
1, 47688, Note_on_c, 0, 52, 47
1, 47710, Note_on_c, 0, 62, 0
1, 47755, Note_on_c, 0, 67, 0
1, 47798, Control_c, 0, 64, 0
1, 47822, Note_on_c, 0, 52, 0
1, 47859, Note_on_c, 0, 50, 45
1, 48096, Note_on_c, 0, 64, 53
1, 48100, Note_on_c, 0, 49, 41
1, 48109, Note_on_c, 0, 50, 0
1, 48243, Note_on_c, 0, 64, 0
1, 48304, Note_on_c, 0, 71, 0
1, 48316, Note_on_c, 0, 76, 50
1, 48500, Note_on_c, 0, 52, 51
1, 48519, Note_on_c, 0, 69, 51
1, 48538, Note_on_c, 0, 76, 0
1, 48629, Note_on_c, 0, 52, 0
1, 48702, Note_on_c, 0, 76, 51
1, 48705, Note_on_c, 0, 69, 0
1, 48900, Note_on_c, 0, 76, 0
1, 48901, Note_on_c, 0, 57, 52
1, 48904, Note_on_c, 0, 67, 41
1, 48980, Note_on_c, 0, 49, 0
1, 49101, Note_on_c, 0, 67, 0
1, 49107, Note_on_c, 0, 66, 52
1, 49309, Note_on_c, 0, 49, 51
1, 49324, Note_on_c, 0, 67, 46
1, 49336, Note_on_c, 0, 66, 0
1, 49380, Note_on_c, 0, 49, 0
1, 49499, Note_on_c, 0, 76, 55
1, 49503, Note_on_c, 0, 67, 0
1, 49710, Note_on_c, 0, 50, 45
1, 49712, Note_on_c, 0, 76, 0
1, 49726, Note_on_c, 0, 67, 49
1, 49900, Note_on_c, 0, 57, 0
1, 49909, Note_on_c, 0, 66, 49
1, 49964, Note_on_c, 0, 67, 0
1, 50129, Note_on_c, 0, 64, 54
1, 50132, Note_on_c, 0, 54, 65
1, 50151, Note_on_c, 0, 66, 0
1, 50251, Note_on_c, 0, 54, 0
1, 50304, Note_on_c, 0, 64, 0
1, 50328, Note_on_c, 0, 62, 54
1, 50530, Note_on_c, 0, 64, 50
1, 50539, Note_on_c, 0, 62, 0
1, 50539, Note_on_c, 0, 57, 60
1, 50596, Note_on_c, 0, 50, 0
1, 50726, Note_on_c, 0, 66, 53
1, 50760, Note_on_c, 0, 64, 0
1, 50945, Note_on_c, 0, 67, 55
1, 50946, Note_on_c, 0, 48, 53
1, 50958, Note_on_c, 0, 66, 0
1, 51040, Note_on_c, 0, 48, 0
1, 51137, Note_on_c, 0, 66, 55
1, 51143, Note_on_c, 0, 67, 0
1, 51324, Note_on_c, 0, 66, 0
1, 51332, Note_on_c, 0, 67, 46
1, 51342, Note_on_c, 0, 50, 58
1, 51361, Note_on_c, 0, 47, 42
1, 51418, Note_on_c, 0, 57, 0
1, 51490, Note_on_c, 0, 50, 0
1, 51524, Note_on_c, 0, 67, 0
1, 51545, Note_on_c, 0, 69, 48
1, 51714, Note_on_c, 0, 69, 0
1, 51737, Note_on_c, 0, 67, 51
1, 51762, Note_on_c, 0, 55, 63
1, 51945, Note_on_c, 0, 67, 0
1, 51946, Note_on_c, 0, 69, 59
1, 52133, Note_on_c, 0, 69, 0
1, 52146, Note_on_c, 0, 45, 44
1, 52149, Note_on_c, 0, 71, 63
1, 52173, Note_on_c, 0, 47, 0
1, 52230, Note_on_c, 0, 71, 0
1, 52257, Note_on_c, 0, 69, 65
1, 52308, Note_on_c, 0, 69, 0
1, 52336, Note_on_c, 0, 71, 67
1, 52399, Note_on_c, 0, 71, 0
1, 52428, Note_on_c, 0, 69, 70
1, 52480, Note_on_c, 0, 69, 0
1, 52489, Note_on_c, 0, 55, 0
1, 52499, Note_on_c, 0, 54, 48
1, 52502, Note_on_c, 0, 71, 60
1, 52577, Note_on_c, 0, 71, 0
1, 52592, Note_on_c, 0, 69, 68
1, 52621, Control_c, 0, 67, 12
1, 52642, Note_on_c, 0, 69, 0
1, 52678, Note_on_c, 0, 67, 56
1, 52775, Note_on_c, 0, 67, 0
1, 52808, Note_on_c, 0, 69, 52
1, 52876, Control_c, 0, 67, 17
1, 52889, Note_on_c, 0, 45, 0
1, 52913, Control_c, 0, 67, 24
1, 52944, Note_on_c, 0, 69, 0
1, 52945, Note_on_c, 0, 71, 40
1, 52950, Control_c, 0, 67, 30
1, 52969, Note_on_c, 0, 55, 30
1, 52986, Note_on_c, 0, 54, 0
1, 52987, Control_c, 0, 67, 36
1, 53024, Control_c, 0, 67, 42
1, 53062, Control_c, 0, 67, 49
1, 53097, Control_c, 0, 67, 56
1, 53115, Control_c, 0, 67, 61
1, 53135, Control_c, 0, 67, 68
1, 53153, Control_c, 0, 67, 76
1, 53171, Control_c, 0, 67, 83
1, 53190, Control_c, 0, 67, 90
1, 53209, Control_c, 0, 67, 98
1, 53224, Note_on_c, 0, 43, 39
1, 53229, Control_c, 0, 67, 105
1, 53244, Control_c, 0, 67, 112
1, 53263, Control_c, 0, 67, 117
1, 53301, Control_c, 0, 67, 121
1, 53336, Control_c, 0, 67, 126
1, 53433, Note_on_c, 0, 47, 46
1, 53439, Note_on_c, 0, 55, 0
1, 53473, Note_on_c, 0, 43, 0
1, 53618, Note_on_c, 0, 50, 56
1, 53636, Note_on_c, 0, 47, 0
1, 53784, Note_on_c, 0, 71, 0
1, 53807, Note_on_c, 0, 50, 0
1, 53844, Note_on_c, 0, 55, 51
1, 53887, Control_c, 0, 67, 122
1, 53924, Control_c, 0, 67, 116
1, 53959, Control_c, 0, 67, 107
1, 53978, Control_c, 0, 67, 99
1, 53996, Control_c, 0, 67, 90
1, 54013, Control_c, 0, 67, 80
1, 54014, Note_on_c, 0, 71, 70
1, 54033, Control_c, 0, 67, 70
1, 54050, Control_c, 0, 67, 59
1, 54070, Control_c, 0, 67, 49
1, 54088, Control_c, 0, 67, 39
1, 54107, Control_c, 0, 67, 31
1, 54125, Control_c, 0, 67, 25
1, 54144, Control_c, 0, 67, 19
1, 54163, Control_c, 0, 67, 13
1, 54210, Note_on_c, 0, 76, 68
1, 54218, Control_c, 0, 67, 0
1, 54218, Note_on_c, 0, 57, 51
1, 54239, Note_on_c, 0, 71, 0
1, 54257, Note_on_c, 0, 55, 0
1, 54404, Note_on_c, 0, 75, 71
1, 54411, Note_on_c, 0, 57, 0
1, 54417, Note_on_c, 0, 59, 46
1, 54427, Note_on_c, 0, 76, 0
1, 54602, Note_on_c, 0, 59, 0
1, 54609, Note_on_c, 0, 76, 65
1, 54616, Note_on_c, 0, 60, 52
1, 54662, Note_on_c, 0, 75, 0
1, 54773, Note_on_c, 0, 60, 0
1, 54823, Note_on_c, 0, 78, 66
1, 54833, Note_on_c, 0, 76, 0
1, 55006, Note_on_c, 0, 64, 66
1, 55031, Note_on_c, 0, 76, 56
1, 55036, Note_on_c, 0, 78, 0
1, 55036, Note_on_c, 0, 55, 49
1, 55101, Note_on_c, 0, 55, 0
1, 55210, Note_on_c, 0, 78, 60
1, 55276, Note_on_c, 0, 76, 0
1, 55388, Note_on_c, 0, 78, 0
1, 55396, Note_on_c, 0, 79, 66
1, 55401, Note_on_c, 0, 57, 47
1, 55463, Note_on_c, 0, 57, 0
1, 55479, Note_on_c, 0, 79, 0
1, 55497, Note_on_c, 0, 78, 72
1, 55556, Note_on_c, 0, 78, 0
1, 55591, Note_on_c, 0, 79, 68
1, 55668, Note_on_c, 0, 79, 0
1, 55685, Note_on_c, 0, 78, 72
1, 55743, Note_on_c, 0, 78, 0
1, 55757, Note_on_c, 0, 59, 46
1, 55759, Note_on_c, 0, 79, 66
1, 55764, Note_on_c, 0, 63, 54
1, 55806, Note_on_c, 0, 64, 0
1, 55843, Note_on_c, 0, 79, 0
1, 55846, Note_on_c, 0, 78, 74
1, 55880, Note_on_c, 0, 59, 0
1, 55914, Note_on_c, 0, 78, 0
1, 55938, Note_on_c, 0, 76, 64
1, 56040, Note_on_c, 0, 78, 61
1, 56046, Note_on_c, 0, 76, 0
1, 56178, Note_on_c, 0, 63, 0
1, 56191, Note_on_c, 0, 78, 0
1, 56196, Note_on_c, 0, 79, 51
1, 56210, Note_on_c, 0, 64, 41
1, 56440, Note_on_c, 0, 59, 40
1, 56636, Note_on_c, 0, 55, 43
1, 56643, Note_on_c, 0, 59, 0
1, 56817, Note_on_c, 0, 59, 39
1, 56848, Note_on_c, 0, 55, 0
1, 57034, Note_on_c, 0, 52, 35
1, 57075, Note_on_c, 0, 59, 0
1, 57192, Note_on_c, 0, 52, 0
1, 57226, Note_on_c, 0, 78, 57
1, 57261, Note_on_c, 0, 79, 0
1, 57424, Note_on_c, 0, 55, 41
1, 57429, Control_c, 0, 67, 8
1, 57448, Note_on_c, 0, 76, 53
1, 57463, Note_on_c, 0, 78, 0
1, 57513, Note_on_c, 0, 55, 0
1, 57516, Control_c, 0, 67, 14
1, 57554, Control_c, 0, 67, 20
1, 57591, Control_c, 0, 67, 25
1, 57607, Note_on_c, 0, 76, 0
1, 57609, Control_c, 0, 67, 29
1, 57614, Note_on_c, 0, 74, 58
1, 57629, Control_c, 0, 67, 34
1, 57646, Control_c, 0, 67, 39
1, 57682, Control_c, 0, 67, 44
1, 57739, Control_c, 0, 67, 51
1, 57756, Control_c, 0, 67, 55
1, 57775, Control_c, 0, 67, 59
1, 57793, Control_c, 0, 67, 64
1, 57812, Control_c, 0, 67, 68
1, 57825, Note_on_c, 0, 73, 51
1, 57827, Note_on_c, 0, 74, 0
1, 57830, Control_c, 0, 67, 73
1, 57840, Note_on_c, 0, 57, 37
1, 57848, Control_c, 0, 67, 77
1, 57887, Control_c, 0, 67, 82
1, 57932, Note_on_c, 0, 64, 0
1, 58030, Note_on_c, 0, 76, 49
1, 58040, Note_on_c, 0, 73, 0
1, 58106, Note_on_c, 0, 76, 0
1, 58143, Control_c, 0, 67, 78
1, 58238, Note_on_c, 0, 71, 47
1, 58239, Note_on_c, 0, 59, 35
1, 58366, Control_c, 0, 67, 72
1, 58417, Control_c, 0, 67, 68
1, 58420, Note_on_c, 0, 59, 0
1, 58431, Note_on_c, 0, 76, 49
1, 58450, Note_on_c, 0, 71, 0
1, 58455, Control_c, 0, 67, 64
1, 58490, Note_on_c, 0, 76, 0
1, 58564, Control_c, 0, 67, 60
1, 58637, Control_c, 0, 67, 55
1, 58640, Note_on_c, 0, 69, 44
1, 58651, Note_on_c, 0, 61, 43
1, 58674, Control_c, 0, 67, 51
1, 58677, Note_on_c, 0, 69, 0
1, 58710, Control_c, 0, 67, 46
1, 58729, Control_c, 0, 67, 42
1, 58738, Note_on_c, 0, 57, 0
1, 58749, Control_c, 0, 67, 37
1, 58766, Control_c, 0, 67, 29
1, 58786, Control_c, 0, 67, 19
1, 58822, Control_c, 0, 67, 0
1, 58829, Note_on_c, 0, 79, 65
1, 59013, Note_on_c, 0, 78, 68
1, 59036, Note_on_c, 0, 57, 35
1, 59054, Note_on_c, 0, 79, 0
1, 59147, Note_on_c, 0, 57, 0
1, 59201, Note_on_c, 0, 76, 71
1, 59218, Note_on_c, 0, 78, 0
1, 59240, Note_on_c, 0, 61, 0
1, 59430, Note_on_c, 0, 78, 75
1, 59445, Note_on_c, 0, 62, 47
1, 59466, Note_on_c, 0, 50, 32
1, 59478, Note_on_c, 0, 76, 0
1, 59540, Note_on_c, 0, 50, 0
1, 59623, Note_on_c, 0, 81, 64
1, 59666, Note_on_c, 0, 78, 0
1, 59722, Note_on_c, 0, 81, 0
1, 59809, Note_on_c, 0, 52, 50
1, 59809, Note_on_c, 0, 76, 64
1, 59926, Note_on_c, 0, 52, 0
1, 60003, Note_on_c, 0, 81, 63
1, 60057, Note_on_c, 0, 76, 0
1, 60087, Note_on_c, 0, 81, 0
1, 60203, Note_on_c, 0, 74, 49
1, 60204, Note_on_c, 0, 54, 45
1, 60305, Note_on_c, 0, 54, 0
1, 60322, Note_on_c, 0, 74, 0
1, 60401, Note_on_c, 0, 72, 59
1, 60595, Note_on_c, 0, 71, 52
1, 60599, Note_on_c, 0, 72, 0
1, 60613, Note_on_c, 0, 50, 42
1, 60696, Note_on_c, 0, 50, 0
1, 60764, Note_on_c, 0, 71, 0
1, 60785, Note_on_c, 0, 69, 47
1, 60990, Note_on_c, 0, 71, 47
1, 61000, Note_on_c, 0, 55, 43
1, 61009, Note_on_c, 0, 69, 0
1, 61199, Note_on_c, 0, 71, 0
1, 61199, Note_on_c, 0, 74, 51
1, 61253, Note_on_c, 0, 62, 0
1, 61259, Note_on_c, 0, 74, 0
1, 61385, Note_on_c, 0, 60, 51
1, 61392, Note_on_c, 0, 69, 57
1, 61499, Control_c, 0, 67, 8
1, 61533, Note_on_c, 0, 60, 0
1, 61576, Note_on_c, 0, 74, 55
1, 61596, Note_on_c, 0, 69, 0
1, 61610, Control_c, 0, 67, 14
1, 61629, Control_c, 0, 67, 20
1, 61650, Control_c, 0, 67, 25
1, 61671, Note_on_c, 0, 74, 0
1, 61702, Control_c, 0, 67, 30
1, 61721, Control_c, 0, 67, 40
1, 61738, Control_c, 0, 67, 51
1, 61756, Control_c, 0, 67, 56
1, 61766, Note_on_c, 0, 67, 51
1, 61769, Note_on_c, 0, 59, 49
1, 61794, Control_c, 0, 67, 62
1, 61814, Control_c, 0, 67, 68
1, 61831, Control_c, 0, 67, 78
1, 61851, Control_c, 0, 67, 89
1, 61869, Control_c, 0, 67, 96
1, 61887, Control_c, 0, 67, 100
1, 61923, Note_on_c, 0, 59, 0
1, 61923, Control_c, 0, 67, 106
1, 61942, Control_c, 0, 67, 111
1, 61945, Note_on_c, 0, 67, 0
1, 61954, Note_on_c, 0, 74, 50
1, 61959, Control_c, 0, 67, 115
1, 62033, Note_on_c, 0, 74, 0
1, 62052, Control_c, 0, 67, 119
1, 62090, Control_c, 0, 67, 125
1, 62162, Note_on_c, 0, 66, 50
1, 62168, Note_on_c, 0, 57, 45
1, 62292, Note_on_c, 0, 57, 0
1, 62297, Note_on_c, 0, 55, 0
1, 62360, Note_on_c, 0, 74, 49
1, 62425, Note_on_c, 0, 74, 0
1, 62454, Note_on_c, 0, 66, 0
1, 62563, Note_on_c, 0, 55, 40
1, 62572, Note_on_c, 0, 64, 48
1, 62749, Control_c, 0, 67, 120
1, 62760, Note_on_c, 0, 74, 61
1, 62780, Note_on_c, 0, 64, 0
1, 62785, Control_c, 0, 67, 114
1, 62822, Control_c, 0, 67, 109
1, 62840, Control_c, 0, 67, 104
1, 62859, Control_c, 0, 67, 97
1, 62878, Control_c, 0, 67, 88
1, 62894, Control_c, 0, 67, 78
1, 62913, Control_c, 0, 67, 67
1, 62931, Control_c, 0, 67, 56
1, 62951, Control_c, 0, 67, 45
1, 62961, Note_on_c, 0, 73, 64
1, 62962, Note_on_c, 0, 52, 46
1, 62969, Control_c, 0, 67, 35
1, 62984, Note_on_c, 0, 74, 0
1, 62987, Control_c, 0, 67, 23
1, 63006, Control_c, 0, 67, 11
1, 63073, Note_on_c, 0, 52, 0
1, 63074, Control_c, 0, 67, 0
1, 63149, Note_on_c, 0, 73, 0
1, 63165, Note_on_c, 0, 71, 59
1, 63363, Note_on_c, 0, 73, 57
1, 63364, Note_on_c, 0, 45, 47
1, 63406, Note_on_c, 0, 71, 0
1, 63437, Note_on_c, 0, 45, 0
1, 63562, Note_on_c, 0, 76, 62
1, 63622, Note_on_c, 0, 73, 0
1, 63754, Note_on_c, 0, 76, 0
1, 63754, Note_on_c, 0, 52, 60
1, 63757, Note_on_c, 0, 69, 58
1, 63765, Note_on_c, 0, 49, 52
1, 63797, Note_on_c, 0, 55, 0
1, 63873, Note_on_c, 0, 49, 0
1, 63948, Note_on_c, 0, 79, 68
1, 64076, Note_on_c, 0, 69, 0
1, 64197, Note_on_c, 0, 78, 69
1, 64214, Note_on_c, 0, 50, 45
1, 64225, Note_on_c, 0, 52, 0
1, 64235, Note_on_c, 0, 79, 0
1, 64396, Note_on_c, 0, 76, 72
1, 64417, Note_on_c, 0, 78, 0
1, 64584, Note_on_c, 0, 78, 66
1, 64589, Note_on_c, 0, 43, 42
1, 64617, Note_on_c, 0, 76, 0
1, 64693, Control_c, 0, 64, 37
1, 64711, Control_c, 0, 64, 57
1, 64730, Control_c, 0, 64, 68
1, 64735, Note_on_c, 0, 43, 0
1, 64739, Note_on_c, 0, 50, 0
1, 64749, Control_c, 0, 64, 73
1, 64759, Note_on_c, 0, 74, 62
1, 64766, Control_c, 0, 64, 77
1, 64772, Note_on_c, 0, 78, 0
1, 64783, Note_on_c, 0, 52, 39
1, 64784, Control_c, 0, 64, 79
1, 64803, Control_c, 0, 64, 81
1, 64818, Note_on_c, 0, 74, 0
1, 64841, Control_c, 0, 64, 84
1, 64894, Control_c, 0, 64, 87
1, 64991, Note_on_c, 0, 74, 57
1, 64999, Note_on_c, 0, 54, 49
1, 65021, Note_on_c, 0, 74, 0
1, 65036, Note_on_c, 0, 45, 37
1, 65037, Note_on_c, 0, 52, 0
1, 65038, Control_c, 0, 64, 79
1, 65048, Note_on_c, 0, 73, 62
1, 65057, Control_c, 0, 64, 55
1, 65058, Control_c, 0, 67, 8
1, 65076, Control_c, 0, 64, 0
1, 65078, Note_on_c, 0, 73, 0
1, 65120, Note_on_c, 0, 74, 51
1, 65148, Note_on_c, 0, 74, 0
1, 65167, Control_c, 0, 67, 13
1, 65189, Note_on_c, 0, 73, 42
1, 65205, Control_c, 0, 67, 19
1, 65241, Control_c, 0, 67, 24
1, 65279, Control_c, 0, 67, 31
1, 65298, Control_c, 0, 67, 35
1, 65334, Control_c, 0, 67, 41
1, 65390, Control_c, 0, 67, 47
1, 65426, Control_c, 0, 67, 53
1, 65463, Control_c, 0, 67, 60
1, 65481, Control_c, 0, 67, 65
1, 65527, Poly_aftertouch_c, 0, 54, 24
1, 65557, Note_on_c, 0, 55, 30
1, 65572, Note_on_c, 0, 54, 0
1, 65572, Poly_aftertouch_c, 0, 54, 0
1, 65738, Control_c, 0, 64, 8
1, 65758, Control_c, 0, 64, 34
1, 65776, Control_c, 0, 64, 57
1, 65787, Note_on_c, 0, 45, 0
1, 65789, Note_on_c, 0, 74, 50
1, 65792, Control_c, 0, 64, 72
1, 65812, Control_c, 0, 64, 81
1, 65816, Note_on_c, 0, 55, 0
1, 65830, Control_c, 0, 64, 88
1, 65844, Note_on_c, 0, 73, 0
1, 65883, Control_c, 0, 64, 94
1, 65901, Note_on_c, 0, 74, 0
1, 65920, Control_c, 0, 64, 98
1, 65975, Control_c, 0, 64, 102
1, 66100, Note_on_c, 0, 74, 50
1, 66143, Note_on_c, 0, 50, 35
1, 66154, Note_on_c, 0, 54, 34
1, 66158, Control_c, 0, 64, 83
1, 66177, Control_c, 0, 64, 51
1, 66196, Control_c, 0, 64, 0
1, 66270, Control_c, 0, 64, 34
1, 66289, Control_c, 0, 64, 59
1, 66307, Control_c, 0, 64, 74
1, 66326, Control_c, 0, 64, 83
1, 66343, Control_c, 0, 64, 88
1, 66372, Note_on_c, 0, 62, 40
1, 66383, Note_on_c, 0, 50, 0
1, 66454, Note_on_c, 0, 54, 0
1, 66553, Note_on_c, 0, 52, 43
1, 66564, Note_on_c, 0, 55, 49
1, 66578, Note_on_c, 0, 62, 0
1, 66601, Control_c, 0, 64, 85
1, 66620, Control_c, 0, 64, 82
1, 66638, Control_c, 0, 64, 79
1, 66674, Control_c, 0, 64, 77
1, 66712, Control_c, 0, 64, 75
1, 66747, Note_on_c, 0, 55, 0
1, 66748, Control_c, 0, 64, 72
1, 66760, Note_on_c, 0, 62, 48
1, 66786, Control_c, 0, 64, 70
1, 66837, Control_c, 0, 64, 68
1, 66838, Control_c, 0, 67, 61
1, 66856, Control_c, 0, 64, 67
1, 66874, Control_c, 0, 64, 65
1, 66891, Control_c, 0, 67, 55
1, 66910, Control_c, 0, 64, 64
1, 66929, Control_c, 0, 64, 63
1, 66930, Control_c, 0, 67, 50
1, 66947, Control_c, 0, 67, 46
1, 66967, Control_c, 0, 64, 62
1, 66968, Control_c, 0, 67, 41
1, 66981, Note_on_c, 0, 54, 51
1, 66983, Note_on_c, 0, 57, 50
1, 66984, Note_on_c, 0, 62, 0
1, 66986, Control_c, 0, 64, 61
1, 66988, Control_c, 0, 67, 34
1, 67004, Control_c, 0, 64, 60
1, 67006, Control_c, 0, 67, 26
1, 67022, Control_c, 0, 67, 16
1, 67039, Note_on_c, 0, 52, 0
1, 67039, Control_c, 0, 64, 58
1, 67057, Control_c, 0, 67, 0
1, 67077, Control_c, 0, 64, 56
1, 67126, Note_on_c, 0, 57, 0
1, 67143, Note_on_c, 0, 54, 0
1, 67149, Control_c, 0, 64, 54
1, 67160, Note_on_c, 0, 78, 72
1, 67166, Note_on_c, 0, 62, 51
1, 67225, Control_c, 0, 64, 51
1, 67253, Note_on_c, 0, 74, 0
1, 67297, Control_c, 0, 64, 49
1, 67346, Note_on_c, 0, 62, 0
1, 67347, Note_on_c, 0, 81, 75
1, 67349, Note_on_c, 0, 54, 44
1, 67374, Note_on_c, 0, 50, 45
1, 67408, Control_c, 0, 64, 47
1, 67416, Note_on_c, 0, 78, 0
1, 67459, Note_on_c, 0, 54, 0
1, 67526, Note_on_c, 0, 84, 76
1, 67551, Note_on_c, 0, 81, 0
1, 67563, Note_on_c, 0, 62, 38
1, 67575, Control_c, 0, 64, 45
1, 67664, Control_c, 0, 64, 43
1, 67752, Note_on_c, 0, 83, 74
1, 67757, Note_on_c, 0, 55, 45
1, 67782, Note_on_c, 0, 62, 0
1, 67790, Control_c, 0, 64, 41
1, 67812, Note_on_c, 0, 84, 0
1, 67836, Note_on_c, 0, 50, 0
1, 67942, Note_on_c, 0, 62, 43
1, 68145, Note_on_c, 0, 62, 0
1, 68161, Note_on_c, 0, 57, 50
1, 68182, Note_on_c, 0, 55, 0
1, 68271, Control_c, 0, 64, 37
1, 68332, Note_on_c, 0, 81, 72
1, 68362, Note_on_c, 0, 62, 38
1, 68366, Note_on_c, 0, 83, 0
1, 68399, Control_c, 0, 64, 33
1, 68525, Note_on_c, 0, 62, 0
1, 68539, Note_on_c, 0, 57, 0
1, 68541, Note_on_c, 0, 79, 61
1, 68546, Note_on_c, 0, 59, 41
1, 68548, Note_on_c, 0, 81, 0
1, 68637, Control_c, 0, 67, 8
1, 68709, Control_c, 0, 67, 12
1, 68746, Note_on_c, 0, 78, 61
1, 68750, Note_on_c, 0, 62, 35
1, 68758, Note_on_c, 0, 79, 0
1, 68762, Control_c, 0, 64, 29
1, 68781, Control_c, 0, 67, 17
1, 68819, Control_c, 0, 67, 22
1, 68834, Control_c, 0, 67, 27
1, 68891, Control_c, 0, 67, 31
1, 68910, Note_on_c, 0, 62, 0
1, 68941, Note_on_c, 0, 76, 59
1, 68949, Note_on_c, 0, 78, 0
1, 68951, Note_on_c, 0, 55, 35
1, 68966, Control_c, 0, 67, 37
1, 68984, Control_c, 0, 67, 41
1, 69002, Control_c, 0, 67, 45
1, 69021, Control_c, 0, 67, 50
1, 69039, Control_c, 0, 64, 25
1, 69041, Control_c, 0, 67, 54
1, 69049, Note_on_c, 0, 59, 0
1, 69075, Control_c, 0, 67, 61
1, 69090, Note_on_c, 0, 76, 0
1, 69093, Control_c, 0, 67, 66
1, 69106, Note_on_c, 0, 74, 52
1, 69112, Control_c, 0, 67, 72
1, 69132, Control_c, 0, 67, 78
1, 69134, Note_on_c, 0, 62, 40
1, 69150, Control_c, 0, 67, 83
1, 69169, Control_c, 0, 67, 87
1, 69187, Control_c, 0, 67, 91
1, 69206, Control_c, 0, 67, 96
1, 69223, Control_c, 0, 67, 103
1, 69242, Control_c, 0, 67, 111
1, 69260, Control_c, 0, 67, 117
1, 69298, Control_c, 0, 64, 20
1, 69300, Control_c, 0, 67, 122
1, 69313, Note_on_c, 0, 74, 0
1, 69315, Control_c, 0, 64, 0
1, 69334, Control_c, 0, 67, 127
1, 69342, Note_on_c, 0, 76, 56
1, 69343, Note_on_c, 0, 62, 0
1, 69358, Note_on_c, 0, 52, 37
1, 69396, Note_on_c, 0, 55, 0
1, 69419, Note_on_c, 0, 78, 61
1, 69421, Note_on_c, 0, 76, 0
1, 69501, Note_on_c, 0, 78, 0
1, 69502, Note_on_c, 0, 79, 59
1, 69541, Note_on_c, 0, 62, 39
1, 69766, Note_on_c, 0, 62, 0
1, 69778, Note_on_c, 0, 54, 34
1, 69808, Note_on_c, 0, 52, 0
1, 69963, Note_on_c, 0, 78, 55
1, 69972, Note_on_c, 0, 62, 39
1, 69997, Note_on_c, 0, 79, 0
1, 70149, Note_on_c, 0, 62, 0
1, 70165, Note_on_c, 0, 76, 55
1, 70181, Note_on_c, 0, 54, 0
1, 70186, Note_on_c, 0, 55, 40
1, 70192, Note_on_c, 0, 78, 0
1, 70347, Note_on_c, 0, 76, 0
1, 70366, Note_on_c, 0, 74, 49
1, 70386, Note_on_c, 0, 62, 38
1, 70561, Note_on_c, 0, 73, 53
1, 70565, Note_on_c, 0, 74, 0
1, 70569, Note_on_c, 0, 55, 0
1, 70570, Note_on_c, 0, 62, 0
1, 70584, Note_on_c, 0, 52, 43
1, 70742, Note_on_c, 0, 73, 0
1, 70758, Note_on_c, 0, 71, 50
1, 70764, Note_on_c, 0, 62, 43
1, 70961, Note_on_c, 0, 73, 58
1, 70971, Note_on_c, 0, 62, 0
1, 70985, Note_on_c, 0, 71, 0
1, 70988, Note_on_c, 0, 57, 42
1, 71095, Note_on_c, 0, 52, 0
1, 71135, Note_on_c, 0, 73, 0
1, 71147, Note_on_c, 0, 69, 53
1, 71170, Note_on_c, 0, 61, 43
1, 71190, Note_on_c, 0, 69, 0
1, 71207, Control_c, 0, 67, 121
1, 71243, Note_on_c, 0, 57, 0
1, 71243, Control_c, 0, 67, 116
1, 71263, Control_c, 0, 67, 110
1, 71280, Control_c, 0, 67, 103
1, 71300, Control_c, 0, 67, 94
1, 71319, Control_c, 0, 67, 83
1, 71335, Control_c, 0, 67, 72
1, 71353, Control_c, 0, 67, 61
1, 71357, Note_on_c, 0, 74, 63
1, 71367, Note_on_c, 0, 61, 0
1, 71374, Control_c, 0, 67, 49
1, 71391, Control_c, 0, 67, 37
1, 71394, Note_on_c, 0, 59, 28
1, 71408, Control_c, 0, 67, 26
1, 71426, Control_c, 0, 67, 17
1, 71446, Control_c, 0, 67, 9
1, 71532, Note_on_c, 0, 74, 0
1, 71534, Control_c, 0, 67, 0
1, 71555, Note_on_c, 0, 69, 51
1, 71593, Note_on_c, 0, 62, 34
1, 71644, Note_on_c, 0, 69, 0
1, 71722, Note_on_c, 0, 59, 0
1, 71730, Note_on_c, 0, 62, 0
1, 71754, Note_on_c, 0, 76, 65
1, 71762, Note_on_c, 0, 61, 42
1, 71920, Note_on_c, 0, 76, 0
1, 71934, Note_on_c, 0, 61, 0
1, 71942, Note_on_c, 0, 69, 59
1, 71960, Note_on_c, 0, 64, 30
1, 71993, Note_on_c, 0, 69, 0
1, 72133, Note_on_c, 0, 57, 43
1, 72139, Note_on_c, 0, 79, 59
1, 72198, Note_on_c, 0, 64, 0
1, 72331, Note_on_c, 0, 61, 41
1, 72334, Note_on_c, 0, 76, 58
1, 72356, Note_on_c, 0, 79, 0
1, 72378, Note_on_c, 0, 57, 0
1, 72428, Note_on_c, 0, 76, 0
1, 72541, Note_on_c, 0, 61, 0
1, 72550, Note_on_c, 0, 62, 41
1, 72551, Note_on_c, 0, 77, 57
1, 72750, Note_on_c, 0, 69, 52
1, 72791, Note_on_c, 0, 77, 0
1, 72933, Note_on_c, 0, 60, 46
1, 72935, Note_on_c, 0, 74, 62
1, 72944, Note_on_c, 0, 62, 0
1, 72963, Note_on_c, 0, 69, 0
1, 73127, Note_on_c, 0, 76, 71
1, 73191, Note_on_c, 0, 74, 0
1, 73331, Note_on_c, 0, 77, 74
1, 73338, Note_on_c, 0, 58, 45
1, 73362, Note_on_c, 0, 60, 0
1, 73399, Note_on_c, 0, 76, 0
1, 73514, Note_on_c, 0, 77, 0
1, 73519, Note_on_c, 0, 74, 63
1, 73585, Note_on_c, 0, 74, 0
1, 73721, Note_on_c, 0, 78, 75
1, 73741, Note_on_c, 0, 57, 45
1, 73747, Note_on_c, 0, 58, 0
1, 73912, Note_on_c, 0, 74, 65
1, 73947, Note_on_c, 0, 78, 0
1, 73982, Note_on_c, 0, 74, 0
1, 74103, Note_on_c, 0, 79, 76
1, 74118, Note_on_c, 0, 58, 47
1, 74170, Note_on_c, 0, 57, 0
1, 74318, Note_on_c, 0, 79, 0
1, 74320, Note_on_c, 0, 74, 61
1, 74381, Note_on_c, 0, 74, 0
1, 74499, Note_on_c, 0, 82, 67
1, 74508, Note_on_c, 0, 55, 49
1, 74528, Note_on_c, 0, 58, 0
1, 74590, Note_on_c, 0, 82, 0
1, 74677, Note_on_c, 0, 81, 76
1, 74890, Note_on_c, 0, 80, 63
1, 74907, Note_on_c, 0, 81, 0
1, 74919, Note_on_c, 0, 52, 40
1, 74953, Note_on_c, 0, 80, 0
1, 74955, Note_on_c, 0, 55, 0
1, 75078, Note_on_c, 0, 74, 66
1, 75300, Note_on_c, 0, 57, 41
1, 75301, Note_on_c, 0, 52, 0
1, 75305, Note_on_c, 0, 73, 56
1, 75319, Note_on_c, 0, 74, 0
1, 75353, Note_on_c, 0, 73, 0
1, 75484, Note_on_c, 0, 79, 59
1, 75699, Note_on_c, 0, 78, 56
1, 75708, Note_on_c, 0, 79, 0
1, 75716, Note_on_c, 0, 62, 37
1, 75736, Note_on_c, 0, 57, 0
1, 75756, Note_on_c, 0, 78, 0
1, 75897, Note_on_c, 0, 72, 60
1, 76092, Note_on_c, 0, 62, 0
1, 76097, Note_on_c, 0, 55, 47
1, 76101, Note_on_c, 0, 72, 0
1, 76107, Note_on_c, 0, 71, 47
1, 76293, Note_on_c, 0, 55, 0
1, 76298, Note_on_c, 0, 76, 56
1, 76305, Note_on_c, 0, 67, 74
1, 76499, Note_on_c, 0, 76, 0
1, 76521, Note_on_c, 0, 69, 55
1, 76524, Note_on_c, 0, 66, 62
1, 76526, Note_on_c, 0, 71, 0
1, 76527, Note_on_c, 0, 57, 43
1, 76550, Note_on_c, 0, 67, 0
1, 76623, Note_on_c, 0, 57, 0
1, 76623, Note_on_c, 0, 57, 8
1, 76714, Note_on_c, 0, 74, 55
1, 76900, Note_on_c, 0, 69, 0
1, 76932, Note_on_c, 0, 64, 48
1, 76933, Note_on_c, 0, 67, 45
1, 76979, Note_on_c, 0, 66, 0
1, 77148, Note_on_c, 0, 73, 57
1, 77159, Note_on_c, 0, 74, 0
1, 77395, Note_on_c, 0, 74, 56
1, 77412, Note_on_c, 0, 67, 0
1, 77412, Note_on_c, 0, 62, 42
1, 77413, Note_on_c, 0, 73, 0
1, 77419, Note_on_c, 0, 64, 0
1, 77515, Note_on_c, 0, 57, 0
1, 77583, Note_on_c, 0, 67, 46
1, 77790, Note_on_c, 0, 69, 51
1, 77795, Note_on_c, 0, 67, 0
1, 77902, Control_c, 0, 67, 8
1, 77975, Control_c, 0, 67, 13
1, 77982, Note_on_c, 0, 64, 45
1, 78013, Control_c, 0, 67, 18
1, 78046, Control_c, 0, 67, 23
1, 78065, Control_c, 0, 67, 29
1, 78083, Control_c, 0, 67, 36
1, 78103, Control_c, 0, 67, 42
1, 78120, Control_c, 0, 67, 47
1, 78138, Control_c, 0, 67, 51
1, 78157, Control_c, 0, 67, 55
1, 78176, Control_c, 0, 67, 61
1, 78193, Control_c, 0, 67, 68
1, 78209, Control_c, 0, 67, 75
1, 78214, Note_on_c, 0, 66, 39
1, 78231, Control_c, 0, 67, 81
1, 78238, Note_on_c, 0, 64, 0
1, 78249, Control_c, 0, 67, 85
1, 78287, Control_c, 0, 67, 91
1, 78323, Control_c, 0, 67, 99
1, 78341, Control_c, 0, 67, 104
1, 78358, Control_c, 0, 67, 108
1, 78391, Note_on_c, 0, 61, 46
1, 78396, Control_c, 0, 67, 113
1, 78403, Note_on_c, 0, 62, 0
1, 78432, Control_c, 0, 67, 117
1, 78470, Control_c, 0, 67, 122
1, 78526, Control_c, 0, 67, 127
1, 78601, Note_on_c, 0, 61, 0
1, 78602, Note_on_c, 0, 62, 44
1, 78821, Note_on_c, 0, 57, 41
1, 79130, Note_on_c, 0, 50, 32
1, 79216, Poly_aftertouch_c, 0, 57, 24
1, 79266, Note_on_c, 0, 57, 0
1, 79266, Poly_aftertouch_c, 0, 57, 0
1, 79443, Control_c, 0, 64, 16
1, 79461, Control_c, 0, 64, 27
1, 79480, Control_c, 0, 64, 38
1, 79498, Control_c, 0, 64, 50
1, 79515, Control_c, 0, 64, 59
1, 79535, Control_c, 0, 64, 62
1, 79553, Control_c, 0, 64, 64
1, 79571, Control_c, 0, 64, 65
1, 79607, Control_c, 0, 64, 66
1, 79644, Control_c, 0, 64, 67
1, 79955, Control_c, 0, 64, 66
1, 80009, Control_c, 0, 64, 65
1, 80047, Control_c, 0, 64, 64
1, 80082, Control_c, 0, 64, 63
1, 80120, Control_c, 0, 64, 62
1, 80121, Control_c, 0, 67, 120
1, 80138, Control_c, 0, 64, 61
1, 80157, Control_c, 0, 64, 60
1, 80158, Control_c, 0, 67, 115
1, 80177, Control_c, 0, 67, 111
1, 80195, Control_c, 0, 64, 57
1, 80196, Control_c, 0, 67, 107
1, 80213, Control_c, 0, 67, 101
1, 80230, Control_c, 0, 64, 54
1, 80231, Control_c, 0, 67, 91
1, 80249, Control_c, 0, 67, 80
1, 80268, Control_c, 0, 64, 51
1, 80269, Control_c, 0, 67, 69
1, 80287, Control_c, 0, 64, 48
1, 80288, Control_c, 0, 67, 59
1, 80304, Control_c, 0, 67, 49
1, 80321, Control_c, 0, 64, 45
1, 80322, Control_c, 0, 67, 39
1, 80339, Poly_aftertouch_c, 0, 69, 24
1, 80341, Control_c, 0, 67, 28
1, 80359, Control_c, 0, 64, 43
1, 80360, Control_c, 0, 67, 15
1, 80372, Poly_aftertouch_c, 0, 62, 24
1, 80377, Control_c, 0, 64, 41
1, 80380, Note_on_c, 0, 66, 0
1, 80387, Note_on_c, 0, 50, 0
1, 80389, Note_on_c, 0, 69, 0
1, 80389, Poly_aftertouch_c, 0, 69, 0
1, 80395, Control_c, 0, 67, 0
1, 80403, Note_on_c, 0, 74, 0
1, 80405, Note_on_c, 0, 62, 0
1, 80405, Poly_aftertouch_c, 0, 62, 0
1, 80434, Control_c, 0, 64, 37
1, 80796, Note_on_c, 0, 78, 58
1, 80893, Note_on_c, 0, 78, 0
1, 80983, Control_c, 0, 64, 22
1, 81001, Control_c, 0, 64, 0
1, 81042, Note_on_c, 0, 78, 64
1, 81048, Note_on_c, 0, 50, 42
1, 81070, Note_on_c, 0, 74, 46
1, 81078, Note_on_c, 0, 69, 42
1, 81112, Control_c, 0, 64, 14
1, 81130, Control_c, 0, 64, 35
1, 81148, Control_c, 0, 64, 55
1, 81165, Control_c, 0, 64, 69
1, 81184, Control_c, 0, 64, 76
1, 81203, Control_c, 0, 64, 82
1, 81208, Note_on_c, 0, 69, 0
1, 81221, Control_c, 0, 64, 86
1, 81239, Control_c, 0, 64, 88
1, 81253, Note_on_c, 0, 74, 0
1, 81258, Note_on_c, 0, 54, 45
1, 81276, Control_c, 0, 64, 92
1, 81330, Note_on_c, 0, 50, 0
1, 81406, Control_c, 0, 64, 96
1, 81447, Note_on_c, 0, 57, 47
1, 81485, Note_on_c, 0, 54, 0
1, 81569, Note_on_c, 0, 57, 0
1, 81632, Note_on_c, 0, 78, 0
1, 81638, Note_on_c, 0, 79, 73
1, 81638, Note_on_c, 0, 60, 47
1, 81718, Control_c, 0, 64, 91
1, 81736, Control_c, 0, 64, 88
1, 81755, Control_c, 0, 64, 84
1, 81789, Control_c, 0, 64, 80
1, 81807, Control_c, 0, 64, 75
1, 81826, Control_c, 0, 64, 71
1, 81845, Control_c, 0, 64, 67
1, 81850, Note_on_c, 0, 79, 0
1, 81862, Control_c, 0, 64, 64
1, 81863, Note_on_c, 0, 81, 69
1, 81868, Note_on_c, 0, 60, 0
1, 81876, Note_on_c, 0, 59, 48
1, 81880, Control_c, 0, 64, 61
1, 81899, Control_c, 0, 64, 58
1, 81937, Control_c, 0, 64, 55
1, 81938, Note_on_c, 0, 81, 0
1, 81966, Note_on_c, 0, 79, 71
1, 81972, Control_c, 0, 64, 53
1, 82010, Control_c, 0, 64, 50
1, 82031, Note_on_c, 0, 79, 0
1, 82035, Note_on_c, 0, 59, 0
1, 82047, Control_c, 0, 64, 48
1, 82047, Note_on_c, 0, 81, 76
1, 82049, Note_on_c, 0, 57, 51
1, 82113, Note_on_c, 0, 81, 0
1, 82135, Note_on_c, 0, 79, 73
1, 82138, Control_c, 0, 64, 45
1, 82193, Control_c, 0, 64, 43
1, 82195, Note_on_c, 0, 57, 0
1, 82195, Note_on_c, 0, 79, 0
1, 82202, Note_on_c, 0, 59, 48
1, 82215, Note_on_c, 0, 81, 79
1, 82268, Control_c, 0, 64, 41
1, 82285, Note_on_c, 0, 81, 0
1, 82292, Note_on_c, 0, 79, 75
1, 82388, Note_on_c, 0, 59, 0
1, 82389, Note_on_c, 0, 78, 77
1, 82391, Note_on_c, 0, 79, 0
1, 82411, Note_on_c, 0, 55, 43
1, 82482, Note_on_c, 0, 78, 0
1, 82486, Note_on_c, 0, 79, 75
1, 82546, Control_c, 0, 64, 37
1, 82582, Note_on_c, 0, 79, 0
1, 82587, Note_on_c, 0, 81, 63
1, 82589, Note_on_c, 0, 55, 0
1, 82606, Note_on_c, 0, 54, 37
1, 82762, Control_c, 0, 64, 33
1, 82800, Note_on_c, 0, 57, 45
1, 82873, Control_c, 0, 67, 8
1, 83011, Note_on_c, 0, 57, 0
1, 83013, Note_on_c, 0, 60, 52
1, 83137, Note_on_c, 0, 60, 0
1, 83222, Note_on_c, 0, 64, 42
1, 83414, Note_on_c, 0, 64, 0
1, 83417, Note_on_c, 0, 62, 44
1, 83481, Control_c, 0, 64, 29
1, 83535, Note_on_c, 0, 62, 0
1, 83554, Note_on_c, 0, 54, 0
1, 83555, Note_on_c, 0, 81, 0
1, 83598, Note_on_c, 0, 72, 52
1, 83809, Note_on_c, 0, 74, 63
1, 83811, Note_on_c, 0, 57, 57
1, 83824, Note_on_c, 0, 72, 0
1, 83841, Note_on_c, 0, 54, 47
1, 83942, Note_on_c, 0, 54, 0
1, 84004, Note_on_c, 0, 69, 62
1, 84005, Note_on_c, 0, 57, 0
1, 84044, Note_on_c, 0, 74, 0
1, 84140, Control_c, 0, 67, 0
1, 84183, Note_on_c, 0, 69, 0
1, 84202, Note_on_c, 0, 71, 65
1, 84207, Note_on_c, 0, 55, 50
1, 84322, Note_on_c, 0, 55, 0
1, 84379, Note_on_c, 0, 75, 70
1, 84402, Note_on_c, 0, 71, 0
1, 84577, Note_on_c, 0, 76, 69
1, 84594, Note_on_c, 0, 52, 66
1, 84617, Note_on_c, 0, 48, 54
1, 84641, Note_on_c, 0, 75, 0
1, 84724, Note_on_c, 0, 48, 0
1, 84777, Note_on_c, 0, 76, 0
1, 84778, Note_on_c, 0, 79, 70
1, 84971, Note_on_c, 0, 45, 54
1, 84978, Note_on_c, 0, 78, 71
1, 85009, Note_on_c, 0, 79, 0
1, 85051, Note_on_c, 0, 45, 0
1, 85162, Note_on_c, 0, 72, 63
1, 85173, Note_on_c, 0, 78, 0
1, 85360, Note_on_c, 0, 72, 0
1, 85362, Note_on_c, 0, 47, 38
1, 85373, Note_on_c, 0, 51, 45
1, 85374, Note_on_c, 0, 71, 54
1, 85411, Note_on_c, 0, 52, 0
1, 85424, Control_c, 0, 67, 8
1, 85506, Note_on_c, 0, 47, 0
1, 85557, Note_on_c, 0, 51, 0
1, 85574, Note_on_c, 0, 81, 56
1, 85701, Note_on_c, 0, 71, 0
1, 85801, Note_on_c, 0, 81, 0
1, 85803, Note_on_c, 0, 79, 53
1, 85812, Note_on_c, 0, 52, 45
1, 85819, Note_on_c, 0, 40, 46
1, 86000, Note_on_c, 0, 79, 0
1, 86010, Note_on_c, 0, 75, 61
1, 86029, Control_c, 0, 67, 12
1, 86158, Note_on_c, 0, 52, 0
1, 86171, Note_on_c, 0, 40, 0
1, 86199, Note_on_c, 0, 76, 60
1, 86229, Note_on_c, 0, 75, 0
1, 86356, Note_on_c, 0, 76, 0
1, 86374, Note_on_c, 0, 79, 59
1, 86580, Note_on_c, 0, 79, 0
1, 86588, Note_on_c, 0, 74, 67
1, 86639, Note_on_c, 0, 74, 0
1, 86647, Note_on_c, 0, 72, 59
1, 86687, Note_on_c, 0, 72, 0
1, 86697, Note_on_c, 0, 71, 62
1, 86735, Note_on_c, 0, 71, 0
1, 86769, Note_on_c, 0, 72, 65
1, 86802, Note_on_c, 0, 52, 37
1, 86966, Note_on_c, 0, 52, 0
1, 86988, Note_on_c, 0, 54, 43
1, 87022, Note_on_c, 0, 72, 0
1, 87162, Note_on_c, 0, 72, 62
1, 87167, Note_on_c, 0, 50, 39
1, 87185, Note_on_c, 0, 54, 0
1, 87222, Note_on_c, 0, 72, 0
1, 87277, Note_on_c, 0, 50, 0
1, 87363, Note_on_c, 0, 72, 62
1, 87373, Note_on_c, 0, 55, 40
1, 87536, Note_on_c, 0, 72, 0
1, 87552, Note_on_c, 0, 55, 0
1, 87575, Note_on_c, 0, 69, 46
1, 87678, Note_on_c, 0, 69, 0
1, 87756, Note_on_c, 0, 43, 37
1, 87767, Note_on_c, 0, 71, 54
1, 87887, Note_on_c, 0, 43, 0
1, 87928, Note_on_c, 0, 71, 0
1, 87946, Note_on_c, 0, 76, 62
1, 88110, Note_on_c, 0, 76, 0
1, 88125, Note_on_c, 0, 71, 63
1, 88179, Note_on_c, 0, 69, 70
1, 88180, Note_on_c, 0, 71, 0
1, 88215, Note_on_c, 0, 69, 0
1, 88235, Note_on_c, 0, 67, 62
1, 88297, Note_on_c, 0, 67, 0
1, 88304, Note_on_c, 0, 49, 50
1, 88338, Note_on_c, 0, 69, 60
1, 88481, Note_on_c, 0, 49, 0
1, 88520, Note_on_c, 0, 69, 0
1, 88528, Note_on_c, 0, 51, 39
1, 88687, Note_on_c, 0, 69, 61
1, 88708, Note_on_c, 0, 47, 44
1, 88726, Note_on_c, 0, 51, 0
1, 88738, Note_on_c, 0, 69, 0
1, 88869, Note_on_c, 0, 47, 0
1, 88893, Note_on_c, 0, 69, 64
1, 88925, Note_on_c, 0, 52, 47
1, 89024, Note_on_c, 0, 69, 0
1, 89039, Note_on_c, 0, 52, 0
1, 89098, Note_on_c, 0, 66, 47
1, 89280, Note_on_c, 0, 67, 58
1, 89309, Note_on_c, 0, 40, 39
1, 89323, Note_on_c, 0, 66, 0
1, 89401, Note_on_c, 0, 40, 0
1, 89458, Note_on_c, 0, 67, 0
1, 89491, Note_on_c, 0, 72, 54
1, 89655, Note_on_c, 0, 72, 0
1, 89674, Note_on_c, 0, 67, 59
1, 89676, Control_c, 0, 67, 8
1, 89720, Note_on_c, 0, 67, 0
1, 89723, Note_on_c, 0, 65, 61
1, 89751, Control_c, 0, 67, 0
1, 89761, Note_on_c, 0, 65, 0
1, 89776, Note_on_c, 0, 64, 61
1, 89831, Note_on_c, 0, 64, 0
1, 89854, Note_on_c, 0, 45, 49
1, 89855, Note_on_c, 0, 65, 57
1, 89992, Note_on_c, 0, 45, 0
1, 90048, Note_on_c, 0, 47, 39
1, 90083, Note_on_c, 0, 65, 0
1, 90218, Note_on_c, 0, 47, 0
1, 90246, Control_c, 0, 64, 25
1, 90259, Note_on_c, 0, 43, 34
1, 90269, Note_on_c, 0, 65, 45
1, 90317, Note_on_c, 0, 65, 0
1, 90476, Note_on_c, 0, 65, 46
1, 90481, Note_on_c, 0, 48, 42
1, 90490, Note_on_c, 0, 43, 0
1, 90594, Note_on_c, 0, 48, 0
1, 90672, Note_on_c, 0, 63, 43
1, 90684, Note_on_c, 0, 65, 0
1, 90841, Note_on_c, 0, 63, 0
1, 90846, Note_on_c, 0, 49, 45
1, 90858, Note_on_c, 0, 64, 44
1, 90997, Note_on_c, 0, 49, 0
1, 91050, Note_on_c, 0, 69, 52
1, 91092, Note_on_c, 0, 64, 0
1, 91255, Note_on_c, 0, 67, 58
1, 91260, Note_on_c, 0, 69, 0
1, 91263, Note_on_c, 0, 50, 51
1, 91440, Note_on_c, 0, 67, 0
1, 91450, Note_on_c, 0, 50, 0
1, 91455, Note_on_c, 0, 64, 63
1, 91644, Note_on_c, 0, 66, 64
1, 91663, Note_on_c, 0, 51, 50
1, 91722, Note_on_c, 0, 64, 0
1, 91782, Note_on_c, 0, 51, 0
1, 91828, Note_on_c, 0, 71, 68
1, 91872, Note_on_c, 0, 66, 0
1, 92035, Note_on_c, 0, 69, 65
1, 92039, Note_on_c, 0, 52, 45
1, 92086, Note_on_c, 0, 71, 0
1, 92199, Note_on_c, 0, 52, 0
1, 92234, Note_on_c, 0, 66, 67
1, 92238, Note_on_c, 0, 69, 0
1, 92429, Note_on_c, 0, 67, 67
1, 92435, Note_on_c, 0, 40, 47
1, 92452, Note_on_c, 0, 66, 0
1, 92520, Note_on_c, 0, 40, 0
1, 92620, Note_on_c, 0, 72, 72
1, 92678, Note_on_c, 0, 67, 0
1, 92812, Note_on_c, 0, 71, 72
1, 92814, Note_on_c, 0, 42, 51
1, 92868, Note_on_c, 0, 72, 0
1, 92974, Note_on_c, 0, 42, 0
1, 93027, Note_on_c, 0, 67, 63
1, 93030, Note_on_c, 0, 71, 0
1, 93223, Note_on_c, 0, 69, 72
1, 93247, Note_on_c, 0, 54, 42
1, 93255, Note_on_c, 0, 67, 0
1, 93363, Note_on_c, 0, 54, 0
1, 93399, Note_on_c, 0, 74, 71
1, 93466, Note_on_c, 0, 69, 0
1, 93631, Note_on_c, 0, 72, 63
1, 93634, Note_on_c, 0, 55, 44
1, 93673, Note_on_c, 0, 74, 0
1, 93831, Note_on_c, 0, 69, 66
1, 93843, Note_on_c, 0, 72, 0
1, 93915, Note_on_c, 0, 55, 0
1, 94028, Note_on_c, 0, 69, 0
1, 94054, Note_on_c, 0, 43, 49
1, 94058, Note_on_c, 0, 71, 66
1, 94173, Note_on_c, 0, 43, 0
1, 94222, Note_on_c, 0, 71, 0
1, 94238, Note_on_c, 0, 74, 72
1, 94458, Note_on_c, 0, 81, 61
1, 94476, Note_on_c, 0, 74, 0
1, 94521, Note_on_c, 0, 79, 69
1, 94537, Note_on_c, 0, 81, 0
1, 94573, Note_on_c, 0, 79, 0
1, 94581, Note_on_c, 0, 78, 71
1, 94596, Control_c, 0, 64, 21
1, 94613, Control_c, 0, 64, 11
1, 94617, Note_on_c, 0, 52, 43
1, 94632, Control_c, 0, 64, 0
1, 94664, Note_on_c, 0, 78, 0
1, 94668, Note_on_c, 0, 79, 56
1, 94816, Control_c, 0, 64, 10
1, 94829, Note_on_c, 0, 55, 41
1, 94834, Control_c, 0, 64, 28
1, 94854, Control_c, 0, 64, 42
1, 94872, Control_c, 0, 64, 59
1, 94906, Control_c, 0, 64, 67
1, 94925, Control_c, 0, 64, 70
1, 94938, Note_on_c, 0, 79, 0
1, 94945, Control_c, 0, 64, 72
1, 94979, Control_c, 0, 64, 75
1, 94997, Control_c, 0, 64, 79
1, 95016, Control_c, 0, 64, 83
1, 95035, Control_c, 0, 64, 85
1, 95070, Control_c, 0, 64, 87
1, 95078, Note_on_c, 0, 59, 40
1, 95100, Note_on_c, 0, 79, 67
1, 95103, Note_on_c, 0, 55, 0
1, 95181, Note_on_c, 0, 79, 0
1, 95216, Note_on_c, 0, 59, 0
1, 95388, Note_on_c, 0, 79, 66
1, 95410, Note_on_c, 0, 48, 42
1, 95421, Control_c, 0, 64, 81
1, 95435, Note_on_c, 0, 52, 0
1, 95438, Control_c, 0, 64, 67
1, 95457, Control_c, 0, 64, 39
1, 95477, Control_c, 0, 64, 0
1, 95595, Note_on_c, 0, 71, 52
1, 95627, Note_on_c, 0, 79, 0
1, 95776, Note_on_c, 0, 55, 58
1, 95802, Note_on_c, 0, 72, 62
1, 95850, Note_on_c, 0, 71, 0
1, 95923, Note_on_c, 0, 55, 0
1, 95991, Note_on_c, 0, 76, 69
1, 96043, Note_on_c, 0, 72, 0
1, 96179, Note_on_c, 0, 76, 0
1, 96198, Note_on_c, 0, 60, 63
1, 96203, Note_on_c, 0, 69, 60
1, 96224, Note_on_c, 0, 48, 0
1, 96388, Note_on_c, 0, 79, 66
1, 96578, Note_on_c, 0, 57, 47
1, 96588, Note_on_c, 0, 78, 75
1, 96617, Note_on_c, 0, 79, 0
1, 96651, Control_c, 0, 64, 8
1, 96669, Control_c, 0, 64, 32
1, 96688, Control_c, 0, 64, 51
1, 96707, Control_c, 0, 64, 66
1, 96713, Note_on_c, 0, 57, 0
1, 96724, Control_c, 0, 64, 71
1, 96744, Control_c, 0, 64, 74
1, 96778, Note_on_c, 0, 81, 79
1, 96819, Note_on_c, 0, 78, 0
1, 96845, Note_on_c, 0, 81, 0
1, 97001, Note_on_c, 0, 75, 71
1, 97016, Control_c, 0, 64, 71
1, 97017, Note_on_c, 0, 59, 45
1, 97031, Note_on_c, 0, 69, 0
1, 97035, Control_c, 0, 64, 61
1, 97044, Note_on_c, 0, 60, 0
1, 97054, Control_c, 0, 64, 43
1, 97072, Control_c, 0, 64, 0
1, 97089, Control_c, 0, 67, 8
1, 97197, Note_on_c, 0, 69, 45
1, 97378, Note_on_c, 0, 69, 0
1, 97414, Note_on_c, 0, 67, 42
1, 97454, Note_on_c, 0, 52, 32
1, 97475, Control_c, 0, 67, 12
1, 97530, Control_c, 0, 64, 12
1, 97550, Control_c, 0, 64, 31
1, 97568, Control_c, 0, 64, 43
1, 97586, Note_on_c, 0, 67, 0
1, 97586, Control_c, 0, 64, 56
1, 97603, Control_c, 0, 64, 63
1, 97606, Note_on_c, 0, 76, 63
1, 97612, Note_on_c, 0, 59, 0
1, 97615, Note_on_c, 0, 75, 0
1, 97622, Control_c, 0, 64, 66
1, 97661, Control_c, 0, 64, 67
1, 97843, Note_on_c, 0, 59, 38
1, 97847, Note_on_c, 0, 52, 0
1, 97853, Note_on_c, 0, 66, 47
1, 97858, Control_c, 0, 64, 63
1, 97877, Control_c, 0, 64, 53
1, 97896, Control_c, 0, 64, 30
1, 97914, Control_c, 0, 64, 0
1, 97934, Control_c, 0, 67, 18
1, 97971, Control_c, 0, 67, 23
1, 98007, Control_c, 0, 67, 28
1, 98039, Note_on_c, 0, 69, 49
1, 98070, Note_on_c, 0, 76, 0
1, 98192, Control_c, 0, 67, 32
1, 98242, Note_on_c, 0, 76, 56
1, 98275, Note_on_c, 0, 47, 36
1, 98356, Control_c, 0, 64, 30
1, 98375, Note_on_c, 0, 47, 0
1, 98375, Control_c, 0, 64, 45
1, 98392, Control_c, 0, 64, 60
1, 98410, Control_c, 0, 64, 68
1, 98430, Control_c, 0, 64, 72
1, 98448, Control_c, 0, 64, 74
1, 98466, Control_c, 0, 64, 76
1, 98467, Note_on_c, 0, 75, 61
1, 98485, Control_c, 0, 64, 78
1, 98505, Control_c, 0, 64, 81
1, 98507, Note_on_c, 0, 76, 0
1, 98540, Control_c, 0, 64, 83
1, 98615, Control_c, 0, 64, 85
1, 98757, Control_c, 0, 64, 83
1, 98770, Note_on_c, 0, 75, 0
1, 98770, Note_on_c, 0, 52, 36
1, 98772, Note_on_c, 0, 66, 0
1, 98778, Control_c, 0, 64, 74
1, 98785, Note_on_c, 0, 76, 52
1, 98787, Note_on_c, 0, 69, 0
1, 98794, Control_c, 0, 64, 54
1, 98813, Control_c, 0, 64, 0
1, 98831, Control_c, 0, 67, 36
1, 98925, Control_c, 0, 64, 27
1, 98928, Note_on_c, 0, 59, 0
1, 98942, Control_c, 0, 64, 51
1, 98961, Control_c, 0, 64, 66
1, 98979, Control_c, 0, 64, 71
1, 98999, Control_c, 0, 64, 73
1, 99052, Control_c, 0, 64, 75
1, 99098, Note_on_c, 0, 71, 40
1, 99320, Note_on_c, 0, 67, 40
1, 99346, Control_c, 0, 64, 73
1, 99385, Control_c, 0, 64, 71
1, 99458, Control_c, 0, 64, 69
1, 99494, Control_c, 0, 64, 68
1, 99502, Note_on_c, 0, 59, 58
1, 99513, Control_c, 0, 64, 67
1, 99550, Control_c, 0, 64, 66
1, 99582, Control_c, 0, 64, 65
1, 99598, Note_on_c, 0, 52, 0
1, 99600, Control_c, 0, 64, 63
1, 99620, Control_c, 0, 64, 62
1, 99638, Control_c, 0, 64, 61
1, 99659, Control_c, 0, 64, 60
1, 99713, Control_c, 0, 64, 58
1, 99726, Note_on_c, 0, 64, 57
1, 99728, Note_on_c, 0, 59, 0
1, 99767, Control_c, 0, 64, 56
1, 99803, Control_c, 0, 64, 53
1, 99859, Control_c, 0, 64, 50
1, 99897, Control_c, 0, 64, 48
1, 99904, Note_on_c, 0, 61, 65
1, 99934, Control_c, 0, 64, 44
1, 99951, Note_on_c, 0, 64, 0
1, 99951, Control_c, 0, 64, 42
1, 99988, Control_c, 0, 64, 40
1, 100094, Note_on_c, 0, 61, 0
1, 100116, Note_on_c, 0, 62, 54
1, 100190, Control_c, 0, 64, 36
1, 100246, Control_c, 0, 67, 40
1, 100263, Control_c, 0, 67, 44
1, 100296, Note_on_c, 0, 62, 0
1, 100299, Control_c, 0, 67, 49
1, 100307, Note_on_c, 0, 59, 45
1, 100320, Control_c, 0, 64, 32
1, 100353, Note_on_c, 0, 67, 0
1, 100368, Note_on_c, 0, 71, 0
1, 100413, Control_c, 0, 67, 53
1, 100448, Control_c, 0, 64, 28
1, 100555, Control_c, 0, 67, 58
1, 100558, Note_on_c, 0, 61, 40
1, 100612, Note_on_c, 0, 59, 0
1, 100650, Control_c, 0, 64, 24
1, 100762, Note_on_c, 0, 69, 42
1, 100876, Note_on_c, 0, 76, 0
1, 100962, Note_on_c, 0, 71, 47
1, 100969, Note_on_c, 0, 69, 0
1, 100978, Control_c, 0, 64, 20
1, 101112, Note_on_c, 0, 71, 0
1, 101155, Note_on_c, 0, 67, 47
1, 101249, Note_on_c, 0, 61, 0
1, 101349, Note_on_c, 0, 69, 51
1, 101362, Note_on_c, 0, 67, 0
1, 101365, Control_c, 0, 64, 16
1, 101510, Control_c, 0, 67, 54
1, 101537, Note_on_c, 0, 57, 53
1, 101549, Note_on_c, 0, 69, 0
1, 101559, Note_on_c, 0, 66, 53
1, 101564, Control_c, 0, 67, 50
1, 101601, Control_c, 0, 67, 45
1, 101638, Control_c, 0, 67, 39
1, 101657, Control_c, 0, 67, 35
1, 101674, Control_c, 0, 67, 30
1, 101693, Control_c, 0, 67, 23
1, 101711, Control_c, 0, 67, 14
1, 101747, Note_on_c, 0, 67, 61
1, 101748, Note_on_c, 0, 59, 51
1, 101754, Note_on_c, 0, 66, 0
1, 101787, Control_c, 0, 67, 0
1, 101798, Note_on_c, 0, 57, 0
1, 101928, Note_on_c, 0, 61, 54
1, 101938, Note_on_c, 0, 76, 66
1, 101948, Note_on_c, 0, 59, 0
1, 101949, Note_on_c, 0, 67, 0
1, 101989, Control_c, 0, 64, 12
1, 102138, Note_on_c, 0, 67, 60
1, 102141, Note_on_c, 0, 61, 0
1, 102151, Note_on_c, 0, 62, 42
1, 102184, Note_on_c, 0, 76, 0
1, 102322, Note_on_c, 0, 67, 0
1, 102340, Note_on_c, 0, 64, 59
1, 102566, Note_on_c, 0, 66, 54
1, 102588, Note_on_c, 0, 64, 0
1, 102748, Note_on_c, 0, 69, 50
1, 102954, Note_on_c, 0, 72, 52
1, 103098, Poly_aftertouch_c, 0, 62, 24
1, 103134, Note_on_c, 0, 62, 0
1, 103134, Poly_aftertouch_c, 0, 62, 0
1, 103139, Note_on_c, 0, 57, 45
1, 103361, Note_on_c, 0, 57, 0
1, 103361, Note_on_c, 0, 54, 49
1, 103493, Note_on_c, 0, 69, 0
1, 103495, Note_on_c, 0, 66, 0
1, 103528, Poly_aftertouch_c, 0, 71, 0
1, 103533, Note_on_c, 0, 54, 0
1, 103537, Note_on_c, 0, 50, 48
1, 103747, Note_on_c, 0, 55, 49
1, 103748, Note_on_c, 0, 50, 0
1, 103918, Note_on_c, 0, 72, 0
1, 103941, Note_on_c, 0, 69, 58
1, 104138, Note_on_c, 0, 71, 69
1, 104148, Note_on_c, 0, 69, 0
1, 104343, Note_on_c, 0, 74, 73
1, 104433, Note_on_c, 0, 71, 0
1, 104540, Note_on_c, 0, 77, 74
1, 104573, Note_on_c, 0, 74, 0
1, 104730, Note_on_c, 0, 55, 0
1, 104745, Note_on_c, 0, 72, 45
1, 104749, Note_on_c, 0, 57, 42
1, 104943, Note_on_c, 0, 72, 0
1, 104945, Note_on_c, 0, 57, 0
1, 104952, Note_on_c, 0, 74, 55
1, 104955, Note_on_c, 0, 59, 42
1, 105135, Note_on_c, 0, 74, 0
1, 105137, Note_on_c, 0, 55, 46
1, 105143, Note_on_c, 0, 71, 51
1, 105153, Note_on_c, 0, 59, 0
1, 105336, Note_on_c, 0, 55, 0
1, 105338, Note_on_c, 0, 71, 0
1, 105359, Note_on_c, 0, 67, 52
1, 105388, Note_on_c, 0, 60, 51
1, 105417, Control_c, 0, 64, 8
1, 105562, Note_on_c, 0, 71, 66
1, 105584, Note_on_c, 0, 77, 0
1, 105753, Note_on_c, 0, 72, 70
1, 105790, Note_on_c, 0, 71, 0
1, 105936, Note_on_c, 0, 72, 0
1, 105937, Note_on_c, 0, 76, 72
1, 106131, Note_on_c, 0, 67, 0
1, 106166, Note_on_c, 0, 78, 77
1, 106203, Note_on_c, 0, 76, 0
1, 106342, Note_on_c, 0, 57, 49
1, 106351, Note_on_c, 0, 74, 57
1, 106354, Note_on_c, 0, 60, 0
1, 106550, Note_on_c, 0, 57, 0
1, 106553, Note_on_c, 0, 59, 50
1, 106558, Note_on_c, 0, 79, 80
1, 106600, Note_on_c, 0, 74, 0
1, 106624, Note_on_c, 0, 78, 0
1, 106696, Note_on_c, 0, 59, 0
1, 106750, Note_on_c, 0, 74, 65
1, 106767, Note_on_c, 0, 62, 47
1, 106917, Note_on_c, 0, 79, 0
1, 106944, Note_on_c, 0, 81, 80
1, 106958, Note_on_c, 0, 54, 46
1, 106975, Note_on_c, 0, 74, 0
1, 106997, Note_on_c, 0, 62, 0
1, 107151, Note_on_c, 0, 74, 58
1, 107161, Note_on_c, 0, 57, 39
1, 107168, Note_on_c, 0, 54, 0
1, 107233, Control_c, 0, 64, 0
1, 107329, Note_on_c, 0, 74, 0
1, 107338, Note_on_c, 0, 83, 80
1, 107357, Note_on_c, 0, 57, 0
1, 107362, Control_c, 0, 64, 11
1, 107365, Note_on_c, 0, 55, 42
1, 107380, Note_on_c, 0, 81, 0
1, 107381, Control_c, 0, 64, 29
1, 107400, Control_c, 0, 64, 44
1, 107418, Control_c, 0, 64, 58
1, 107438, Control_c, 0, 64, 65
1, 107455, Control_c, 0, 64, 69
1, 107471, Note_on_c, 0, 55, 0
1, 107473, Control_c, 0, 64, 71
1, 107497, Note_on_c, 0, 83, 0
1, 107510, Control_c, 0, 64, 74
1, 107513, Note_on_c, 0, 74, 65
1, 107527, Control_c, 0, 64, 76
1, 107539, Note_on_c, 0, 59, 45
1, 107546, Control_c, 0, 64, 79
1, 107565, Control_c, 0, 64, 81
1, 107603, Control_c, 0, 64, 83
1, 107676, Note_on_c, 0, 59, 0
1, 107728, Note_on_c, 0, 76, 76
1, 107729, Note_on_c, 0, 48, 52
1, 107756, Note_on_c, 0, 74, 0
1, 107767, Control_c, 0, 64, 73
1, 107786, Control_c, 0, 64, 52
1, 107804, Control_c, 0, 64, 0
1, 107868, Note_on_c, 0, 48, 0
1, 107912, Note_on_c, 0, 71, 53
1, 107926, Note_on_c, 0, 52, 53
1, 108093, Note_on_c, 0, 71, 0
1, 108120, Note_on_c, 0, 45, 46
1, 108139, Note_on_c, 0, 72, 57
1, 108145, Note_on_c, 0, 52, 0
1, 108314, Note_on_c, 0, 81, 69
1, 108322, Note_on_c, 0, 48, 43
1, 108336, Note_on_c, 0, 76, 0
1, 108342, Note_on_c, 0, 45, 0
1, 108491, Note_on_c, 0, 48, 0
1, 108517, Note_on_c, 0, 50, 40
1, 108529, Note_on_c, 0, 79, 65
1, 108549, Note_on_c, 0, 81, 0
1, 108730, Note_on_c, 0, 76, 62
1, 108809, Note_on_c, 0, 72, 0
1, 108821, Note_on_c, 0, 79, 0
1, 108934, Note_on_c, 0, 78, 67
1, 108956, Note_on_c, 0, 76, 0
1, 108971, Note_on_c, 0, 38, 41
1, 108977, Control_c, 0, 64, 14
1, 108995, Control_c, 0, 64, 32
1, 109012, Control_c, 0, 64, 48
1, 109032, Control_c, 0, 64, 60
1, 109050, Control_c, 0, 64, 65
1, 109067, Note_on_c, 0, 78, 0
1, 109069, Control_c, 0, 64, 66
1, 109086, Control_c, 0, 64, 67
1, 109132, Note_on_c, 0, 69, 55
1, 109158, Control_c, 0, 64, 70
1, 109252, Control_c, 0, 64, 72
1, 109305, Poly_aftertouch_c, 0, 50, 24
1, 109322, Note_on_c, 0, 43, 41
1, 109323, Control_c, 0, 67, 8
1, 109324, Note_on_c, 0, 71, 58
1, 109348, Note_on_c, 0, 50, 0
1, 109348, Poly_aftertouch_c, 0, 50, 0
1, 109364, Control_c, 0, 64, 65
1, 109382, Control_c, 0, 64, 49
1, 109399, Control_c, 0, 64, 0
1, 109479, Note_on_c, 0, 69, 0
1, 109532, Note_on_c, 0, 67, 47
1, 109552, Poly_aftertouch_c, 0, 38, 24
1, 109649, Note_on_c, 0, 67, 0
1, 109695, Control_c, 0, 67, 12
1, 109743, Note_on_c, 0, 76, 58
1, 109746, Note_on_c, 0, 71, 0
1, 109755, Note_on_c, 0, 43, 0
1, 109755, Note_on_c, 0, 49, 39
1, 109805, Control_c, 0, 67, 16
1, 109809, Poly_aftertouch_c, 0, 38, 22
1, 109842, Control_c, 0, 67, 21
1, 109954, Note_on_c, 0, 67, 42
1, 109967, Control_c, 0, 64, 20
1, 109987, Control_c, 0, 64, 36
1, 109988, Control_c, 0, 67, 25
1, 110004, Control_c, 0, 64, 53
1, 110016, Note_on_c, 0, 76, 0
1, 110021, Control_c, 0, 64, 62
1, 110040, Control_c, 0, 64, 65
1, 110080, Poly_aftertouch_c, 0, 38, 20
1, 110088, Note_on_c, 0, 38, 0
1, 110088, Poly_aftertouch_c, 0, 38, 0
1, 110094, Control_c, 0, 67, 31
1, 110132, Control_c, 0, 67, 35
1, 110138, Note_on_c, 0, 67, 0
1, 110142, Note_on_c, 0, 49, 0
1, 110169, Control_c, 0, 67, 43
1, 110178, Note_on_c, 0, 66, 46
1, 110188, Control_c, 0, 64, 60
1, 110189, Control_c, 0, 67, 48
1, 110196, Note_on_c, 0, 50, 34
1, 110208, Control_c, 0, 64, 46
1, 110209, Control_c, 0, 67, 54
1, 110226, Control_c, 0, 64, 0
1, 110227, Control_c, 0, 67, 59
1, 110244, Control_c, 0, 67, 65
1, 110261, Control_c, 0, 67, 72
1, 110280, Control_c, 0, 67, 82
1, 110298, Control_c, 0, 67, 94
1, 110317, Control_c, 0, 67, 108
1, 110334, Control_c, 0, 67, 118
1, 110348, Note_on_c, 0, 66, 0
1, 110350, Note_on_c, 0, 62, 55
1, 110353, Control_c, 0, 67, 124
1, 110361, Note_on_c, 0, 50, 0
1, 110385, Note_on_c, 0, 54, 35
1, 110398, Note_on_c, 0, 62, 0
1, 110549, Note_on_c, 0, 52, 49
1, 110550, Note_on_c, 0, 54, 0
1, 110553, Note_on_c, 0, 67, 63
1, 110707, Note_on_c, 0, 52, 0
1, 110716, Note_on_c, 0, 67, 0
1, 110737, Note_on_c, 0, 55, 43
1, 110744, Note_on_c, 0, 62, 51
1, 110801, Note_on_c, 0, 62, 0
1, 110922, Note_on_c, 0, 55, 0
1, 110950, Note_on_c, 0, 54, 42
1, 110967, Note_on_c, 0, 69, 57
1, 111111, Note_on_c, 0, 54, 0
1, 111111, Note_on_c, 0, 69, 0
1, 111145, Note_on_c, 0, 57, 40
1, 111158, Note_on_c, 0, 62, 47
1, 111206, Note_on_c, 0, 62, 0
1, 111349, Note_on_c, 0, 72, 59
1, 111368, Note_on_c, 0, 50, 39
1, 111402, Note_on_c, 0, 57, 0
1, 111494, Note_on_c, 0, 72, 0
1, 111533, Note_on_c, 0, 69, 57
1, 111545, Note_on_c, 0, 54, 43
1, 111582, Note_on_c, 0, 50, 0
1, 111682, Note_on_c, 0, 69, 0
1, 111682, Note_on_c, 0, 69, 7
1, 111695, Control_c, 0, 67, 119
1, 111701, Note_on_c, 0, 54, 0
1, 111743, Control_c, 0, 67, 113
1, 111751, Note_on_c, 0, 70, 58
1, 111753, Note_on_c, 0, 69, 0
1, 111763, Control_c, 0, 67, 108
1, 111782, Control_c, 0, 67, 102
1, 111783, Note_on_c, 0, 55, 38
1, 111802, Control_c, 0, 67, 94
1, 111819, Control_c, 0, 67, 84
1, 111838, Control_c, 0, 67, 74
1, 111859, Control_c, 0, 67, 63
1, 111875, Control_c, 0, 67, 51
1, 111893, Control_c, 0, 67, 37
1, 111911, Control_c, 0, 67, 22
1, 111942, Note_on_c, 0, 70, 0
1, 111948, Note_on_c, 0, 62, 47
1, 111949, Control_c, 0, 67, 0
1, 112138, Note_on_c, 0, 53, 44
1, 112144, Note_on_c, 0, 67, 58
1, 112163, Note_on_c, 0, 62, 0
1, 112178, Note_on_c, 0, 55, 0
1, 112327, Note_on_c, 0, 69, 69
1, 112349, Note_on_c, 0, 67, 0
1, 112507, Note_on_c, 0, 70, 72
1, 112537, Note_on_c, 0, 69, 0
1, 112540, Note_on_c, 0, 51, 45
1, 112560, Note_on_c, 0, 53, 0
1, 112693, Note_on_c, 0, 70, 0
1, 112718, Note_on_c, 0, 67, 64
1, 112767, Note_on_c, 0, 67, 0
1, 112914, Note_on_c, 0, 71, 75
1, 112944, Note_on_c, 0, 50, 44
1, 112957, Note_on_c, 0, 51, 0
1, 113107, Note_on_c, 0, 67, 62
1, 113123, Note_on_c, 0, 71, 0
1, 113175, Note_on_c, 0, 67, 0
1, 113305, Note_on_c, 0, 72, 75
1, 113321, Note_on_c, 0, 51, 43
1, 113335, Note_on_c, 0, 50, 0
1, 113489, Note_on_c, 0, 72, 0
1, 113500, Note_on_c, 0, 67, 61
1, 113587, Note_on_c, 0, 67, 0
1, 113694, Note_on_c, 0, 75, 67
1, 113717, Note_on_c, 0, 48, 48
1, 113734, Note_on_c, 0, 51, 0
1, 113781, Note_on_c, 0, 75, 0
1, 113878, Note_on_c, 0, 74, 80
1, 114088, Note_on_c, 0, 73, 68
1, 114106, Note_on_c, 0, 45, 45
1, 114112, Note_on_c, 0, 48, 0
1, 114112, Note_on_c, 0, 74, 0
1, 114157, Note_on_c, 0, 73, 0
1, 114276, Note_on_c, 0, 67, 68
1, 114489, Note_on_c, 0, 66, 52
1, 114491, Note_on_c, 0, 67, 0
1, 114499, Note_on_c, 0, 50, 43
1, 114510, Note_on_c, 0, 45, 0
1, 114547, Note_on_c, 0, 66, 0
1, 114684, Note_on_c, 0, 72, 60
1, 114893, Note_on_c, 0, 71, 56
1, 114898, Note_on_c, 0, 72, 0
1, 114923, Note_on_c, 0, 50, 0
1, 114923, Note_on_c, 0, 55, 35
1, 114945, Note_on_c, 0, 71, 0
1, 115084, Note_on_c, 0, 65, 50
1, 115253, Note_on_c, 0, 55, 0
1, 115273, Note_on_c, 0, 64, 46
1, 115285, Note_on_c, 0, 48, 43
1, 115309, Note_on_c, 0, 65, 0
1, 115420, Note_on_c, 0, 48, 0
1, 115461, Note_on_c, 0, 69, 59
1, 115463, Note_on_c, 0, 60, 68
1, 115650, Note_on_c, 0, 69, 0
1, 115694, Note_on_c, 0, 59, 61
1, 115701, Note_on_c, 0, 62, 48
1, 115707, Note_on_c, 0, 64, 0
1, 115709, Note_on_c, 0, 50, 45
1, 115736, Note_on_c, 0, 60, 0
1, 115894, Note_on_c, 0, 67, 57
1, 116087, Note_on_c, 0, 57, 52
1, 116099, Note_on_c, 0, 60, 55
1, 116112, Note_on_c, 0, 62, 0
1, 116129, Note_on_c, 0, 59, 0
1, 116283, Note_on_c, 0, 66, 60
1, 116315, Note_on_c, 0, 67, 0
1, 116554, Note_on_c, 0, 67, 55
1, 116562, Note_on_c, 0, 60, 0
1, 116570, Note_on_c, 0, 66, 0
1, 116578, Note_on_c, 0, 55, 42
1, 116608, Note_on_c, 0, 57, 0
1, 116640, Note_on_c, 0, 50, 0
1, 116751, Note_on_c, 0, 60, 50
1, 116954, Note_on_c, 0, 62, 56
1, 116973, Note_on_c, 0, 60, 0
1, 117141, Control_c, 0, 67, 9
1, 117156, Note_on_c, 0, 57, 41
1, 117198, Control_c, 0, 67, 13
1, 117236, Control_c, 0, 67, 17
1, 117271, Control_c, 0, 67, 24
1, 117308, Control_c, 0, 67, 31
1, 117359, Control_c, 0, 67, 36
1, 117391, Note_on_c, 0, 59, 39
1, 117395, Control_c, 0, 67, 43
1, 117401, Note_on_c, 0, 57, 0
1, 117415, Control_c, 0, 67, 50
1, 117433, Control_c, 0, 67, 56
1, 117453, Control_c, 0, 67, 63
1, 117472, Control_c, 0, 67, 70
1, 117490, Control_c, 0, 67, 75
1, 117507, Control_c, 0, 67, 79
1, 117524, Control_c, 0, 67, 84
1, 117544, Control_c, 0, 67, 89
1, 117562, Control_c, 0, 67, 97
1, 117581, Control_c, 0, 67, 104
1, 117592, Note_on_c, 0, 55, 0
1, 117598, Note_on_c, 0, 54, 42
1, 117598, Control_c, 0, 67, 108
1, 117635, Control_c, 0, 67, 115
1, 117672, Control_c, 0, 67, 120
1, 117764, Control_c, 0, 67, 124
1, 117788, Note_on_c, 0, 54, 0
1, 117804, Note_on_c, 0, 55, 35
1, 118009, Note_on_c, 0, 50, 41
1, 118310, Note_on_c, 0, 43, 33
1, 118437, Note_on_c, 0, 50, 0
1, 118700, Control_c, 0, 64, 23
1, 118719, Control_c, 0, 64, 38
1, 118737, Control_c, 0, 64, 53
1, 118754, Control_c, 0, 64, 62
1, 118773, Control_c, 0, 64, 64
1, 118792, Control_c, 0, 64, 65
1, 118811, Control_c, 0, 64, 67
1, 118829, Control_c, 0, 64, 69
1, 118849, Control_c, 0, 64, 72
1, 118866, Control_c, 0, 64, 75
1, 118886, Control_c, 0, 64, 77
1, 118904, Control_c, 0, 64, 79
1, 118939, Control_c, 0, 64, 82
1, 118948, Poly_aftertouch_c, 0, 55, 24
1, 119007, Poly_aftertouch_c, 0, 43, 24
1, 119034, Note_on_c, 0, 55, 0
1, 119034, Poly_aftertouch_c, 0, 55, 0
1, 119051, Control_c, 0, 64, 84
1, 119070, Note_on_c, 0, 43, 0
1, 119070, Poly_aftertouch_c, 0, 43, 0
1, 119118, Note_on_c, 0, 59, 0
1, 119228, Note_on_c, 0, 62, 0
1, 119259, Note_on_c, 0, 67, 0
1, 119637, Control_c, 0, 64, 82
1, 119673, Control_c, 0, 64, 78
1, 119689, Control_c, 0, 64, 73
1, 119709, Control_c, 0, 64, 66
1, 119727, Control_c, 0, 64, 53
1, 119746, Control_c, 0, 64, 34
1, 119764, Control_c, 0, 64, 0
1, 119913, Control_c, 0, 64, 31
1, 119930, Control_c, 0, 64, 48
1, 119948, Control_c, 0, 64, 62
1, 119967, Control_c, 0, 64, 67
1, 119985, Control_c, 0, 64, 69
1, 120005, Control_c, 0, 64, 71
1, 120027, Note_on_c, 0, 78, 53
1, 120042, Control_c, 0, 64, 74
1, 120080, Note_on_c, 0, 78, 0
1, 120331, Control_c, 0, 64, 69
1, 120339, Note_on_c, 0, 78, 55
1, 120351, Control_c, 0, 64, 55
1, 120357, Note_on_c, 0, 74, 32
1, 120357, Note_on_c, 0, 69, 39
1, 120362, Note_on_c, 0, 50, 35
1, 120370, Control_c, 0, 64, 29
1, 120387, Control_c, 0, 64, 0
1, 120479, Control_c, 0, 64, 26
1, 120496, Control_c, 0, 64, 47
1, 120514, Note_on_c, 0, 69, 0
1, 120517, Control_c, 0, 64, 67
1, 120534, Control_c, 0, 64, 75
1, 120549, Note_on_c, 0, 74, 0
1, 120552, Control_c, 0, 64, 79
1, 120571, Control_c, 0, 64, 82
1, 120591, Control_c, 0, 64, 84
1, 120607, Control_c, 0, 64, 86
1, 120611, Note_on_c, 0, 54, 34
1, 120644, Control_c, 0, 64, 88
1, 120656, Note_on_c, 0, 50, 0
1, 120808, Note_on_c, 0, 57, 37
1, 120826, Note_on_c, 0, 54, 0
1, 120942, Note_on_c, 0, 57, 0
1, 120966, Note_on_c, 0, 78, 0
1, 120970, Note_on_c, 0, 79, 56
1, 121000, Note_on_c, 0, 60, 35
1, 121139, Control_c, 0, 64, 85
1, 121157, Control_c, 0, 64, 80
1, 121176, Control_c, 0, 64, 70
1, 121187, Note_on_c, 0, 79, 0
1, 121192, Control_c, 0, 64, 56
1, 121211, Note_on_c, 0, 81, 58
1, 121213, Control_c, 0, 64, 37
1, 121233, Control_c, 0, 64, 0
1, 121234, Note_on_c, 0, 59, 46
1, 121250, Note_on_c, 0, 60, 0
1, 121271, Note_on_c, 0, 81, 0
1, 121306, Note_on_c, 0, 79, 61
1, 121356, Note_on_c, 0, 79, 0
1, 121379, Note_on_c, 0, 81, 67
1, 121381, Note_on_c, 0, 59, 0
1, 121402, Note_on_c, 0, 57, 47
1, 121436, Note_on_c, 0, 81, 0
1, 121469, Note_on_c, 0, 79, 64
1, 121513, Note_on_c, 0, 79, 0
1, 121527, Note_on_c, 0, 57, 0
1, 121543, Note_on_c, 0, 59, 54
1, 121544, Note_on_c, 0, 81, 71
1, 121603, Note_on_c, 0, 81, 0
1, 121627, Note_on_c, 0, 79, 66
1, 121727, Note_on_c, 0, 79, 0
1, 121732, Note_on_c, 0, 78, 69
1, 121741, Note_on_c, 0, 55, 48
1, 121748, Note_on_c, 0, 59, 0
1, 121819, Note_on_c, 0, 78, 0
1, 121837, Note_on_c, 0, 79, 65
1, 121940, Note_on_c, 0, 55, 0
1, 121948, Note_on_c, 0, 79, 0
1, 121951, Note_on_c, 0, 54, 39
1, 121965, Note_on_c, 0, 81, 58
1, 122189, Note_on_c, 0, 57, 44
1, 122390, Note_on_c, 0, 57, 0
1, 122396, Note_on_c, 0, 60, 51
1, 122535, Note_on_c, 0, 60, 0
1, 122588, Note_on_c, 0, 64, 47
1, 122771, Note_on_c, 0, 64, 0
1, 122785, Note_on_c, 0, 62, 46
1, 122920, Note_on_c, 0, 62, 0
1, 122929, Note_on_c, 0, 81, 0
1, 122942, Note_on_c, 0, 54, 0
1, 123003, Note_on_c, 0, 72, 47
1, 123204, Note_on_c, 0, 74, 60
1, 123214, Note_on_c, 0, 72, 0
1, 123214, Note_on_c, 0, 57, 55
1, 123242, Note_on_c, 0, 54, 42
1, 123348, Note_on_c, 0, 54, 0
1, 123400, Note_on_c, 0, 69, 58
1, 123418, Note_on_c, 0, 74, 0
1, 123432, Control_c, 0, 67, 119
1, 123444, Note_on_c, 0, 57, 0
1, 123470, Control_c, 0, 67, 114
1, 123505, Control_c, 0, 67, 106
1, 123524, Control_c, 0, 67, 97
1, 123543, Control_c, 0, 67, 83
1, 123561, Control_c, 0, 67, 69
1, 123570, Note_on_c, 0, 69, 0
1, 123581, Control_c, 0, 67, 55
1, 123600, Control_c, 0, 67, 42
1, 123606, Note_on_c, 0, 71, 54
1, 123615, Note_on_c, 0, 55, 47
1, 123617, Control_c, 0, 67, 32
1, 123636, Control_c, 0, 67, 22
1, 123656, Control_c, 0, 67, 13
1, 123728, Control_c, 0, 67, 0
1, 123735, Note_on_c, 0, 55, 0
1, 123788, Note_on_c, 0, 75, 56
1, 123825, Note_on_c, 0, 71, 0
1, 124028, Note_on_c, 0, 52, 59
1, 124029, Note_on_c, 0, 76, 52
1, 124045, Note_on_c, 0, 48, 47
1, 124058, Note_on_c, 0, 75, 0
1, 124142, Note_on_c, 0, 48, 0
1, 124204, Note_on_c, 0, 76, 0
1, 124231, Note_on_c, 0, 79, 53
1, 124314, Control_c, 0, 67, 8
1, 124387, Control_c, 0, 67, 12
1, 124405, Control_c, 0, 67, 17
1, 124415, Note_on_c, 0, 45, 44
1, 124419, Note_on_c, 0, 78, 56
1, 124423, Control_c, 0, 67, 25
1, 124430, Note_on_c, 0, 79, 0
1, 124441, Control_c, 0, 67, 33
1, 124460, Control_c, 0, 67, 41
1, 124478, Control_c, 0, 67, 50
1, 124498, Control_c, 0, 67, 59
1, 124511, Note_on_c, 0, 45, 0
1, 124515, Control_c, 0, 67, 69
1, 124534, Control_c, 0, 67, 81
1, 124555, Control_c, 0, 67, 92
1, 124571, Control_c, 0, 67, 103
1, 124591, Control_c, 0, 67, 113
1, 124603, Note_on_c, 0, 78, 0
1, 124605, Note_on_c, 0, 72, 55
1, 124606, Control_c, 0, 67, 119
1, 124645, Control_c, 0, 67, 123
1, 124682, Control_c, 0, 67, 127
1, 124799, Note_on_c, 0, 72, 0
1, 124818, Note_on_c, 0, 51, 45
1, 124822, Note_on_c, 0, 47, 41
1, 124840, Note_on_c, 0, 71, 47
1, 124869, Note_on_c, 0, 52, 0
1, 124975, Note_on_c, 0, 47, 0
1, 125043, Note_on_c, 0, 81, 54
1, 125162, Note_on_c, 0, 51, 0
1, 125174, Note_on_c, 0, 71, 0
1, 125296, Note_on_c, 0, 79, 54
1, 125311, Note_on_c, 0, 52, 45
1, 125312, Note_on_c, 0, 81, 0
1, 125331, Note_on_c, 0, 40, 38
1, 125494, Note_on_c, 0, 79, 0
1, 125501, Note_on_c, 0, 75, 58
1, 125697, Note_on_c, 0, 76, 59
1, 125701, Note_on_c, 0, 40, 0
1, 125704, Note_on_c, 0, 52, 0
1, 125719, Note_on_c, 0, 75, 0
1, 125881, Note_on_c, 0, 76, 0
1, 125909, Note_on_c, 0, 79, 54
1, 126084, Note_on_c, 0, 79, 0
1, 126091, Note_on_c, 0, 74, 59
1, 126091, Control_c, 0, 67, 120
1, 126110, Control_c, 0, 67, 111
1, 126128, Control_c, 0, 67, 98
1, 126137, Note_on_c, 0, 72, 65
1, 126139, Note_on_c, 0, 74, 0
1, 126147, Control_c, 0, 67, 83
1, 126166, Control_c, 0, 67, 68
1, 126176, Note_on_c, 0, 72, 0
1, 126184, Control_c, 0, 67, 53
1, 126203, Control_c, 0, 67, 38
1, 126205, Note_on_c, 0, 71, 53
1, 126222, Control_c, 0, 67, 23
1, 126239, Control_c, 0, 67, 8
1, 126241, Note_on_c, 0, 71, 0
1, 126257, Control_c, 0, 67, 0
1, 126276, Note_on_c, 0, 52, 62
1, 126291, Note_on_c, 0, 72, 49
1, 126468, Note_on_c, 0, 72, 0
1, 126487, Note_on_c, 0, 54, 57
1, 126500, Note_on_c, 0, 52, 0
1, 126682, Note_on_c, 0, 50, 56
1, 126690, Note_on_c, 0, 72, 60
1, 126722, Note_on_c, 0, 54, 0
1, 126766, Note_on_c, 0, 72, 0
1, 126951, Note_on_c, 0, 50, 0
1, 126961, Note_on_c, 0, 72, 47
1, 126969, Note_on_c, 0, 55, 42
1, 127111, Note_on_c, 0, 72, 0
1, 127173, Note_on_c, 0, 69, 48
1, 127180, Note_on_c, 0, 55, 0
1, 127228, Note_on_c, 0, 69, 0
1, 127376, Note_on_c, 0, 71, 46
1, 127384, Note_on_c, 0, 43, 45
1, 127577, Note_on_c, 0, 71, 0
1, 127580, Note_on_c, 0, 76, 53
1, 127583, Note_on_c, 0, 43, 0
1, 127753, Note_on_c, 0, 76, 0
1, 127765, Note_on_c, 0, 71, 59
1, 127823, Note_on_c, 0, 71, 0
1, 127828, Note_on_c, 0, 69, 64
1, 127863, Note_on_c, 0, 69, 0
1, 127883, Note_on_c, 0, 67, 62
1, 127919, Note_on_c, 0, 49, 55
1, 127933, Note_on_c, 0, 67, 0
1, 127942, Poly_aftertouch_c, 0, 44, 0
1, 127948, Note_on_c, 0, 69, 60
1, 127981, Control_c, 0, 67, 8
1, 128124, Note_on_c, 0, 49, 0
1, 128157, Note_on_c, 0, 51, 52
1, 128168, Note_on_c, 0, 69, 0
1, 128296, Control_c, 0, 67, 12
1, 128341, Note_on_c, 0, 69, 58
1, 128345, Note_on_c, 0, 47, 46
1, 128366, Note_on_c, 0, 51, 0
1, 128401, Note_on_c, 0, 69, 0
1, 128433, Note_on_c, 0, 47, 0
1, 128541, Note_on_c, 0, 69, 61
1, 128554, Control_c, 0, 67, 16
1, 128599, Note_on_c, 0, 52, 34
1, 128605, Control_c, 0, 67, 20
1, 128729, Note_on_c, 0, 69, 0
1, 128760, Note_on_c, 0, 66, 51
1, 128784, Note_on_c, 0, 52, 0
1, 128789, Control_c, 0, 67, 24
1, 128882, Control_c, 0, 67, 28
1, 128898, Control_c, 0, 67, 33
1, 128917, Control_c, 0, 67, 38
1, 128935, Control_c, 0, 67, 43
1, 128957, Note_on_c, 0, 66, 0
1, 128965, Note_on_c, 0, 67, 47
1, 128972, Control_c, 0, 67, 49
1, 128974, Note_on_c, 0, 40, 49
1, 129011, Control_c, 0, 67, 55
1, 129046, Control_c, 0, 67, 63
1, 129064, Control_c, 0, 67, 67
1, 129115, Note_on_c, 0, 40, 0
1, 129120, Control_c, 0, 67, 72
1, 129153, Note_on_c, 0, 67, 0
1, 129155, Control_c, 0, 67, 78
1, 129175, Control_c, 0, 67, 83
1, 129182, Note_on_c, 0, 72, 51
1, 129193, Control_c, 0, 67, 87
1, 129214, Control_c, 0, 67, 92
1, 129231, Control_c, 0, 67, 97
1, 129250, Control_c, 0, 67, 102
1, 129268, Control_c, 0, 67, 108
1, 129286, Control_c, 0, 67, 114
1, 129304, Control_c, 0, 67, 119
1, 129356, Note_on_c, 0, 72, 0
1, 129376, Control_c, 0, 67, 126
1, 129376, Note_on_c, 0, 67, 53
1, 129425, Note_on_c, 0, 67, 0
1, 129429, Note_on_c, 0, 65, 59
1, 129469, Note_on_c, 0, 65, 0
1, 129484, Note_on_c, 0, 64, 58
1, 129551, Note_on_c, 0, 64, 0
1, 129572, Note_on_c, 0, 45, 47
1, 129579, Note_on_c, 0, 65, 54
1, 129773, Note_on_c, 0, 45, 0
1, 129800, Note_on_c, 0, 47, 42
1, 129803, Note_on_c, 0, 65, 0
1, 129978, Note_on_c, 0, 47, 0
1, 129989, Note_on_c, 0, 65, 50
1, 130000, Note_on_c, 0, 43, 42
1, 130060, Note_on_c, 0, 65, 0
1, 130244, Note_on_c, 0, 65, 48
1, 130248, Note_on_c, 0, 48, 41
1, 130253, Note_on_c, 0, 43, 0
1, 130431, Note_on_c, 0, 65, 0
1, 130438, Note_on_c, 0, 63, 46
1, 130470, Note_on_c, 0, 48, 0
1, 130634, Note_on_c, 0, 63, 0
1, 130636, Note_on_c, 0, 49, 45
1, 130647, Note_on_c, 0, 64, 43
1, 130805, Note_on_c, 0, 49, 0
1, 130852, Note_on_c, 0, 69, 49
1, 130900, Note_on_c, 0, 64, 0
1, 131036, Note_on_c, 0, 69, 0
1, 131042, Note_on_c, 0, 67, 51
1, 131047, Note_on_c, 0, 50, 45
1, 131222, Note_on_c, 0, 67, 0
1, 131244, Note_on_c, 0, 50, 0
1, 131250, Note_on_c, 0, 64, 50
1, 131461, Note_on_c, 0, 66, 52
1, 131467, Note_on_c, 0, 51, 51
1, 131508, Note_on_c, 0, 64, 0
1, 131560, Control_c, 0, 67, 121
1, 131577, Control_c, 0, 67, 113
1, 131596, Control_c, 0, 67, 103
1, 131615, Control_c, 0, 67, 90
1, 131632, Control_c, 0, 67, 74
1, 131645, Note_on_c, 0, 51, 0
1, 131649, Control_c, 0, 67, 57
1, 131649, Note_on_c, 0, 71, 52
1, 131669, Control_c, 0, 67, 40
1, 131679, Note_on_c, 0, 66, 0
1, 131687, Control_c, 0, 67, 24
1, 131723, Control_c, 0, 67, 0
1, 131850, Note_on_c, 0, 71, 0
1, 131858, Note_on_c, 0, 52, 53
1, 131865, Note_on_c, 0, 69, 45
1, 132057, Note_on_c, 0, 69, 0
1, 132073, Note_on_c, 0, 66, 51
1, 132103, Note_on_c, 0, 52, 0
1, 132252, Note_on_c, 0, 66, 0
1, 132263, Note_on_c, 0, 67, 56
1, 132264, Note_on_c, 0, 40, 56
1, 132487, Note_on_c, 0, 40, 0
1, 132490, Note_on_c, 0, 72, 57
1, 132510, Note_on_c, 0, 67, 0
1, 132676, Note_on_c, 0, 42, 61
1, 132682, Note_on_c, 0, 71, 59
1, 132716, Note_on_c, 0, 72, 0
1, 132853, Note_on_c, 0, 71, 0
1, 132870, Note_on_c, 0, 67, 53
1, 132886, Note_on_c, 0, 42, 0
1, 133067, Note_on_c, 0, 69, 63
1, 133077, Note_on_c, 0, 54, 63
1, 133105, Note_on_c, 0, 67, 0
1, 133303, Note_on_c, 0, 74, 64
1, 133349, Note_on_c, 0, 69, 0
1, 133368, Note_on_c, 0, 54, 0
1, 133508, Note_on_c, 0, 72, 65
1, 133511, Note_on_c, 0, 55, 56
1, 133535, Note_on_c, 0, 74, 0
1, 133702, Note_on_c, 0, 72, 0
1, 133709, Note_on_c, 0, 69, 61
1, 133717, Note_on_c, 0, 55, 0
1, 133883, Note_on_c, 0, 69, 0
1, 133916, Note_on_c, 0, 43, 48
1, 133916, Note_on_c, 0, 71, 62
1, 134056, Note_on_c, 0, 43, 0
1, 134076, Note_on_c, 0, 71, 0
1, 134092, Note_on_c, 0, 74, 69
1, 134310, Note_on_c, 0, 81, 66
1, 134332, Note_on_c, 0, 74, 0
1, 134369, Note_on_c, 0, 79, 68
1, 134396, Note_on_c, 0, 81, 0
1, 134423, Note_on_c, 0, 79, 0
1, 134426, Note_on_c, 0, 78, 70
1, 134500, Note_on_c, 0, 79, 56
1, 134506, Note_on_c, 0, 78, 0
1, 134535, Note_on_c, 0, 52, 51
1, 134678, Control_c, 0, 64, 8
1, 134698, Control_c, 0, 64, 25
1, 134716, Control_c, 0, 64, 44
1, 134734, Control_c, 0, 64, 61
1, 134747, Note_on_c, 0, 55, 45
1, 134750, Control_c, 0, 64, 70
1, 134770, Control_c, 0, 64, 74
1, 134778, Note_on_c, 0, 79, 0
1, 134789, Control_c, 0, 64, 77
1, 134807, Control_c, 0, 64, 80
1, 134825, Control_c, 0, 64, 82
1, 134845, Control_c, 0, 64, 85
1, 134864, Control_c, 0, 64, 87
1, 134943, Note_on_c, 0, 55, 0
1, 134949, Note_on_c, 0, 79, 69
1, 134971, Note_on_c, 0, 59, 39
1, 135012, Control_c, 0, 64, 91
1, 135024, Note_on_c, 0, 79, 0
1, 135164, Note_on_c, 0, 59, 0
1, 135261, Note_on_c, 0, 48, 44
1, 135265, Control_c, 0, 64, 87
1, 135267, Note_on_c, 0, 79, 63
1, 135285, Control_c, 0, 64, 70
1, 135300, Note_on_c, 0, 52, 0
1, 135301, Control_c, 0, 64, 27
1, 135319, Control_c, 0, 64, 0
1, 135411, Control_c, 0, 64, 28
1, 135431, Control_c, 0, 64, 48
1, 135448, Control_c, 0, 64, 61
1, 135465, Control_c, 0, 64, 65
1, 135469, Note_on_c, 0, 71, 51
1, 135553, Note_on_c, 0, 79, 0
1, 135613, Control_c, 0, 64, 63
1, 135633, Control_c, 0, 64, 62
1, 135651, Control_c, 0, 64, 61
1, 135669, Control_c, 0, 64, 60
1, 135673, Note_on_c, 0, 72, 54
1, 135684, Note_on_c, 0, 55, 63
1, 135713, Note_on_c, 0, 71, 0
1, 135725, Control_c, 0, 64, 58
1, 135762, Control_c, 0, 64, 56
1, 135800, Control_c, 0, 64, 53
1, 135834, Control_c, 0, 64, 51
1, 135840, Note_on_c, 0, 55, 0
1, 135868, Note_on_c, 0, 76, 63
1, 135917, Note_on_c, 0, 72, 0
1, 135925, Control_c, 0, 64, 49
1, 136056, Note_on_c, 0, 76, 0
1, 136056, Control_c, 0, 64, 46
1, 136103, Note_on_c, 0, 60, 75
1, 136109, Control_c, 0, 64, 43
1, 136113, Note_on_c, 0, 69, 56
1, 136127, Control_c, 0, 64, 40
1, 136154, Note_on_c, 0, 48, 0
1, 136318, Note_on_c, 0, 79, 55
1, 136366, Control_c, 0, 64, 33
1, 136383, Control_c, 0, 64, 16
1, 136402, Control_c, 0, 64, 0
1, 136506, Note_on_c, 0, 78, 62
1, 136518, Note_on_c, 0, 57, 44
1, 136549, Note_on_c, 0, 79, 0
1, 136606, Control_c, 0, 64, 24
1, 136620, Note_on_c, 0, 57, 0
1, 136622, Control_c, 0, 64, 38
1, 136641, Control_c, 0, 64, 54
1, 136659, Control_c, 0, 64, 63
1, 136679, Control_c, 0, 64, 66
1, 136691, Note_on_c, 0, 81, 68
1, 136695, Control_c, 0, 64, 67
1, 136706, Note_on_c, 0, 78, 0
1, 136752, Note_on_c, 0, 81, 0
1, 136899, Control_c, 0, 64, 66
1, 136928, Note_on_c, 0, 75, 59
1, 136937, Control_c, 0, 64, 65
1, 136950, Note_on_c, 0, 59, 61
1, 136955, Note_on_c, 0, 69, 0
1, 136956, Control_c, 0, 64, 63
1, 136974, Control_c, 0, 64, 59
1, 136979, Note_on_c, 0, 60, 0
1, 136993, Control_c, 0, 64, 52
1, 137025, Control_c, 0, 64, 41
1, 137044, Control_c, 0, 64, 28
1, 137062, Control_c, 0, 64, 19
1, 137136, Control_c, 0, 64, 27
1, 137154, Control_c, 0, 64, 35
1, 137173, Control_c, 0, 64, 40
1, 137190, Note_on_c, 0, 69, 39
1, 137191, Control_c, 0, 64, 42
1, 137264, Control_c, 0, 64, 45
1, 137302, Control_c, 0, 64, 47
1, 137375, Control_c, 0, 64, 38
1, 137394, Control_c, 0, 64, 20
1, 137400, Note_on_c, 0, 69, 0
1, 137412, Control_c, 0, 64, 0
1, 137432, Note_on_c, 0, 67, 40
1, 137462, Note_on_c, 0, 52, 33
1, 137523, Control_c, 0, 64, 28
1, 137542, Control_c, 0, 64, 47
1, 137557, Control_c, 0, 64, 63
1, 137567, Note_on_c, 0, 67, 0
1, 137575, Control_c, 0, 64, 69
1, 137595, Control_c, 0, 64, 71
1, 137620, Note_on_c, 0, 76, 54
1, 137630, Note_on_c, 0, 59, 0
1, 137677, Note_on_c, 0, 75, 0
1, 137836, Note_on_c, 0, 59, 45
1, 137846, Note_on_c, 0, 66, 42
1, 137873, Control_c, 0, 64, 66
1, 137874, Control_c, 0, 67, 11
1, 137893, Control_c, 0, 64, 55
1, 137893, Control_c, 0, 67, 15
1, 137905, Note_on_c, 0, 52, 0
1, 137908, Control_c, 0, 64, 37
1, 137910, Control_c, 0, 67, 19
1, 137929, Control_c, 0, 64, 0
1, 137930, Control_c, 0, 67, 24
1, 137961, Control_c, 0, 67, 30
1, 137979, Control_c, 0, 67, 38
1, 137998, Control_c, 0, 67, 51
1, 138017, Control_c, 0, 67, 65
1, 138034, Control_c, 0, 67, 75
1, 138052, Control_c, 0, 67, 81
1, 138074, Note_on_c, 0, 69, 43
1, 138085, Note_on_c, 0, 76, 0
1, 138091, Control_c, 0, 67, 89
1, 138109, Control_c, 0, 67, 94
1, 138127, Control_c, 0, 67, 100
1, 138200, Control_c, 0, 67, 105
1, 138237, Control_c, 0, 67, 115
1, 138255, Control_c, 0, 67, 120
1, 138314, Note_on_c, 0, 76, 56
1, 138325, Note_on_c, 0, 47, 38
1, 138329, Control_c, 0, 67, 127
1, 138420, Control_c, 0, 64, 14
1, 138439, Control_c, 0, 64, 36
1, 138459, Control_c, 0, 64, 56
1, 138467, Note_on_c, 0, 47, 0
1, 138477, Control_c, 0, 64, 69
1, 138493, Control_c, 0, 64, 72
1, 138509, Note_on_c, 0, 75, 62
1, 138511, Control_c, 0, 64, 74
1, 138551, Control_c, 0, 64, 76
1, 138566, Note_on_c, 0, 76, 0
1, 138588, Control_c, 0, 64, 79
1, 138771, Control_c, 0, 64, 75
1, 138778, Note_on_c, 0, 66, 0
1, 138785, Note_on_c, 0, 75, 0
1, 138790, Control_c, 0, 64, 67
1, 138798, Note_on_c, 0, 76, 50
1, 138804, Note_on_c, 0, 69, 0
1, 138809, Control_c, 0, 64, 49
1, 138816, Note_on_c, 0, 52, 28
1, 138827, Control_c, 0, 64, 0
1, 138963, Note_on_c, 0, 59, 0
1, 138968, Control_c, 0, 64, 10
1, 138988, Control_c, 0, 64, 40
1, 139006, Control_c, 0, 64, 60
1, 139024, Control_c, 0, 64, 71
1, 139044, Control_c, 0, 64, 74
1, 139063, Control_c, 0, 64, 76
1, 139081, Control_c, 0, 64, 79
1, 139100, Control_c, 0, 64, 82
1, 139118, Control_c, 0, 64, 84
1, 139136, Control_c, 0, 64, 87
1, 139160, Note_on_c, 0, 71, 39
1, 139381, Note_on_c, 0, 67, 47
1, 139467, Control_c, 0, 64, 84
1, 139485, Control_c, 0, 64, 82
1, 139504, Control_c, 0, 64, 80
1, 139506, Control_c, 0, 67, 120
1, 139524, Control_c, 0, 64, 78
1, 139542, Control_c, 0, 64, 75
1, 139543, Control_c, 0, 67, 116
1, 139546, Note_on_c, 0, 59, 60
1, 139560, Control_c, 0, 64, 73
1, 139577, Control_c, 0, 67, 112
1, 139596, Control_c, 0, 64, 70
1, 139597, Control_c, 0, 67, 108
1, 139615, Control_c, 0, 64, 68
1, 139617, Control_c, 0, 67, 102
1, 139633, Control_c, 0, 64, 65
1, 139634, Control_c, 0, 67, 92
1, 139641, Note_on_c, 0, 52, 0
1, 139649, Control_c, 0, 64, 62
1, 139650, Control_c, 0, 67, 80
1, 139670, Control_c, 0, 64, 60
1, 139671, Control_c, 0, 67, 67
1, 139688, Control_c, 0, 67, 54
1, 139707, Control_c, 0, 67, 41
1, 139725, Control_c, 0, 64, 58
1, 139726, Control_c, 0, 67, 28
1, 139744, Control_c, 0, 67, 14
1, 139780, Note_on_c, 0, 64, 59
1, 139780, Control_c, 0, 64, 56
1, 139782, Control_c, 0, 67, 0
1, 139794, Note_on_c, 0, 59, 0
1, 139850, Control_c, 0, 64, 53
1, 139888, Control_c, 0, 64, 51
1, 139924, Control_c, 0, 64, 48
1, 139979, Note_on_c, 0, 61, 63
1, 140016, Control_c, 0, 64, 46
1, 140032, Note_on_c, 0, 64, 0
1, 140052, Control_c, 0, 64, 44
1, 140182, Control_c, 0, 64, 42
1, 140188, Note_on_c, 0, 61, 0
1, 140195, Note_on_c, 0, 62, 57
1, 140257, Control_c, 0, 64, 40
1, 140361, Poly_aftertouch_c, 0, 67, 24
1, 140382, Note_on_c, 0, 59, 54
1, 140389, Note_on_c, 0, 62, 0
1, 140392, Note_on_c, 0, 67, 0
1, 140392, Poly_aftertouch_c, 0, 67, 0
1, 140422, Control_c, 0, 64, 36
1, 140565, Note_on_c, 0, 71, 0
1, 140604, Control_c, 0, 64, 32
1, 140650, Note_on_c, 0, 61, 44
1, 140679, Note_on_c, 0, 59, 0
1, 140823, Control_c, 0, 64, 27
1, 140862, Note_on_c, 0, 69, 36
1, 140950, Note_on_c, 0, 76, 0
1, 140951, Control_c, 0, 64, 23
1, 141077, Note_on_c, 0, 71, 43
1, 141086, Note_on_c, 0, 69, 0
1, 141222, Note_on_c, 0, 71, 0
1, 141250, Note_on_c, 0, 67, 49
1, 141407, Note_on_c, 0, 61, 0
1, 141432, Control_c, 0, 67, 8
1, 141454, Note_on_c, 0, 69, 46
1, 141501, Note_on_c, 0, 67, 0
1, 141613, Control_c, 0, 64, 19
1, 141636, Note_on_c, 0, 69, 0
1, 141652, Note_on_c, 0, 66, 46
1, 141665, Note_on_c, 0, 57, 59
1, 141876, Note_on_c, 0, 59, 63
1, 141881, Note_on_c, 0, 66, 0
1, 141890, Note_on_c, 0, 67, 43
1, 141920, Note_on_c, 0, 57, 0
1, 142060, Note_on_c, 0, 61, 60
1, 142071, Note_on_c, 0, 59, 0
1, 142076, Note_on_c, 0, 76, 55
1, 142078, Note_on_c, 0, 67, 0
1, 142294, Note_on_c, 0, 67, 40
1, 142295, Note_on_c, 0, 62, 58
1, 142315, Note_on_c, 0, 61, 0
1, 142329, Note_on_c, 0, 76, 0
1, 142465, Note_on_c, 0, 67, 0
1, 142491, Note_on_c, 0, 64, 48
1, 142734, Note_on_c, 0, 66, 45
1, 142750, Note_on_c, 0, 64, 0
1, 142924, Note_on_c, 0, 69, 51
1, 143134, Note_on_c, 0, 72, 56
1, 143330, Note_on_c, 0, 57, 49
1, 143348, Note_on_c, 0, 62, 0
1, 143545, Note_on_c, 0, 54, 52
1, 143590, Note_on_c, 0, 57, 0
1, 143687, Note_on_c, 0, 69, 0
1, 143709, Note_on_c, 0, 66, 0
1, 143722, Note_on_c, 0, 50, 52
1, 143731, Note_on_c, 0, 54, 0
1, 143814, Control_c, 0, 67, 0
1, 143969, Note_on_c, 0, 50, 0
1, 143969, Note_on_c, 0, 55, 48
1, 144168, Note_on_c, 0, 72, 0
1, 144175, Note_on_c, 0, 69, 51
1, 144381, Note_on_c, 0, 71, 66
1, 144413, Note_on_c, 0, 69, 0
1, 144585, Note_on_c, 0, 74, 72
1, 144676, Note_on_c, 0, 71, 0
1, 144783, Note_on_c, 0, 77, 77
1, 144803, Control_c, 0, 64, 15
1, 144825, Note_on_c, 0, 74, 0
1, 144957, Note_on_c, 0, 55, 0
1, 144959, Note_on_c, 0, 72, 59
1, 144980, Note_on_c, 0, 57, 52
1, 145155, Note_on_c, 0, 72, 0
1, 145159, Note_on_c, 0, 74, 61
1, 145164, Note_on_c, 0, 57, 0
1, 145179, Note_on_c, 0, 59, 46
1, 145337, Note_on_c, 0, 74, 0
1, 145337, Control_c, 0, 64, 11
1, 145356, Note_on_c, 0, 59, 0
1, 145359, Note_on_c, 0, 71, 50
1, 145362, Note_on_c, 0, 55, 40
1, 145585, Note_on_c, 0, 71, 0
1, 145603, Note_on_c, 0, 67, 49
1, 145611, Note_on_c, 0, 60, 47
1, 145630, Note_on_c, 0, 55, 0
1, 145798, Note_on_c, 0, 71, 59
1, 145939, Note_on_c, 0, 77, 0
1, 145996, Note_on_c, 0, 72, 62
1, 146043, Note_on_c, 0, 71, 0
1, 146110, Control_c, 0, 64, 0
1, 146184, Note_on_c, 0, 72, 0
1, 146188, Note_on_c, 0, 76, 71
1, 146388, Note_on_c, 0, 67, 0
1, 146408, Note_on_c, 0, 78, 77
1, 146456, Note_on_c, 0, 76, 0
1, 146601, Note_on_c, 0, 74, 57
1, 146610, Note_on_c, 0, 57, 47
1, 146639, Note_on_c, 0, 60, 0
1, 146811, Note_on_c, 0, 57, 0
1, 146812, Note_on_c, 0, 59, 52
1, 146814, Note_on_c, 0, 79, 78
1, 146836, Note_on_c, 0, 74, 0
1, 146869, Note_on_c, 0, 78, 0
1, 146946, Note_on_c, 0, 59, 0
1, 146993, Note_on_c, 0, 74, 64
1, 147008, Note_on_c, 0, 62, 52
1, 147013, Note_on_c, 0, 79, 0
1, 147200, Note_on_c, 0, 81, 80
1, 147208, Note_on_c, 0, 54, 49
1, 147227, Note_on_c, 0, 74, 0
1, 147231, Note_on_c, 0, 62, 0
1, 147414, Note_on_c, 0, 57, 50
1, 147415, Note_on_c, 0, 54, 0
1, 147415, Note_on_c, 0, 74, 58
1, 147600, Note_on_c, 0, 74, 0
1, 147617, Note_on_c, 0, 57, 0
1, 147617, Note_on_c, 0, 83, 77
1, 147619, Note_on_c, 0, 55, 47
1, 147656, Note_on_c, 0, 81, 0
1, 147737, Note_on_c, 0, 55, 0
1, 147787, Note_on_c, 0, 83, 0
1, 147814, Note_on_c, 0, 74, 58
1, 147816, Note_on_c, 0, 59, 40
1, 147939, Note_on_c, 0, 59, 0
1, 148007, Note_on_c, 0, 48, 49
1, 148020, Note_on_c, 0, 76, 75
1, 148048, Note_on_c, 0, 74, 0
1, 148145, Note_on_c, 0, 48, 0
1, 148198, Note_on_c, 0, 52, 54
1, 148199, Note_on_c, 0, 71, 52
1, 148332, Note_on_c, 0, 71, 0
1, 148416, Note_on_c, 0, 45, 47
1, 148423, Note_on_c, 0, 72, 49
1, 148453, Note_on_c, 0, 52, 0
1, 148592, Note_on_c, 0, 81, 71
1, 148609, Note_on_c, 0, 76, 0
1, 148623, Note_on_c, 0, 48, 37
1, 148628, Note_on_c, 0, 45, 0
1, 148787, Note_on_c, 0, 48, 0
1, 148804, Note_on_c, 0, 50, 37
1, 148805, Note_on_c, 0, 79, 69
1, 148833, Note_on_c, 0, 81, 0
1, 149004, Note_on_c, 0, 76, 56
1, 149130, Note_on_c, 0, 72, 0
1, 149137, Note_on_c, 0, 79, 0
1, 149207, Control_c, 0, 67, 9
1, 149214, Note_on_c, 0, 78, 59
1, 149229, Note_on_c, 0, 76, 0
1, 149237, Note_on_c, 0, 38, 41
1, 149279, Control_c, 0, 67, 13
1, 149299, Control_c, 0, 64, 8
1, 149333, Control_c, 0, 64, 13
1, 149352, Control_c, 0, 67, 17
1, 149357, Note_on_c, 0, 78, 0
1, 149372, Control_c, 0, 64, 22
1, 149389, Control_c, 0, 64, 28
1, 149409, Control_c, 0, 64, 33
1, 149410, Control_c, 0, 67, 22
1, 149429, Note_on_c, 0, 69, 53
1, 149446, Control_c, 0, 64, 39
1, 149465, Control_c, 0, 64, 41
1, 149482, Control_c, 0, 64, 44
1, 149501, Control_c, 0, 64, 46
1, 149539, Control_c, 0, 64, 48
1, 149574, Control_c, 0, 67, 27
1, 149607, Note_on_c, 0, 43, 45
1, 149623, Note_on_c, 0, 50, 0
1, 149623, Note_on_c, 0, 71, 58
1, 149628, Control_c, 0, 64, 44
1, 149629, Control_c, 0, 67, 32
1, 149648, Control_c, 0, 64, 39
1, 149649, Control_c, 0, 67, 36
1, 149666, Control_c, 0, 67, 40
1, 149705, Control_c, 0, 64, 34
1, 149706, Control_c, 0, 67, 46
1, 149741, Control_c, 0, 67, 52
1, 149758, Control_c, 0, 64, 30
1, 149760, Control_c, 0, 67, 58
1, 149761, Note_on_c, 0, 69, 0
1, 149777, Control_c, 0, 67, 64
1, 149798, Control_c, 0, 67, 69
1, 149811, Note_on_c, 0, 67, 47
1, 149834, Control_c, 0, 67, 75
1, 149870, Control_c, 0, 64, 26
1, 149871, Control_c, 0, 67, 83
1, 149888, Control_c, 0, 67, 89
1, 149906, Control_c, 0, 67, 97
1, 149925, Control_c, 0, 67, 104
1, 149944, Control_c, 0, 67, 110
1, 149957, Note_on_c, 0, 67, 0
1, 149962, Control_c, 0, 67, 115
1, 149979, Control_c, 0, 67, 119
1, 149998, Note_on_c, 0, 43, 0
1, 149998, Control_c, 0, 64, 22
1, 150000, Control_c, 0, 67, 123
1, 150025, Note_on_c, 0, 71, 0
1, 150027, Note_on_c, 0, 76, 54
1, 150031, Note_on_c, 0, 49, 36
1, 150035, Control_c, 0, 67, 127
1, 150092, Control_c, 0, 64, 17
1, 150179, Control_c, 0, 64, 13
1, 150223, Poly_aftertouch_c, 0, 38, 24
1, 150248, Note_on_c, 0, 67, 41
1, 150252, Note_on_c, 0, 76, 0
1, 150337, Note_on_c, 0, 38, 0
1, 150337, Poly_aftertouch_c, 0, 38, 0
1, 150410, Note_on_c, 0, 67, 0
1, 150413, Note_on_c, 0, 49, 0
1, 150437, Control_c, 0, 64, 9
1, 150437, Note_on_c, 0, 66, 57
1, 150443, Note_on_c, 0, 50, 31
1, 150472, Control_c, 0, 64, 0
1, 150612, Note_on_c, 0, 50, 0
1, 150621, Note_on_c, 0, 66, 0
1, 150633, Note_on_c, 0, 54, 42
1, 150634, Note_on_c, 0, 62, 45
1, 150669, Note_on_c, 0, 62, 0
1, 150818, Note_on_c, 0, 54, 0
1, 150838, Note_on_c, 0, 52, 42
1, 150838, Note_on_c, 0, 67, 55
1, 151031, Note_on_c, 0, 62, 48
1, 151047, Note_on_c, 0, 67, 0
1, 151060, Note_on_c, 0, 52, 0
1, 151068, Note_on_c, 0, 55, 34
1, 151087, Note_on_c, 0, 62, 0
1, 151216, Note_on_c, 0, 55, 0
1, 151239, Note_on_c, 0, 54, 40
1, 151254, Note_on_c, 0, 69, 58
1, 151407, Note_on_c, 0, 54, 0
1, 151433, Note_on_c, 0, 69, 0
1, 151446, Note_on_c, 0, 57, 29
1, 151451, Note_on_c, 0, 62, 28
1, 151513, Note_on_c, 0, 62, 0
1, 151652, Note_on_c, 0, 50, 40
1, 151654, Note_on_c, 0, 72, 50
1, 151694, Poly_aftertouch_c, 0, 57, 24
1, 151735, Note_on_c, 0, 57, 0
1, 151735, Poly_aftertouch_c, 0, 57, 0
1, 151792, Note_on_c, 0, 72, 0
1, 151827, Note_on_c, 0, 69, 54
1, 151846, Note_on_c, 0, 54, 37
1, 151898, Note_on_c, 0, 50, 0
1, 152000, Note_on_c, 0, 69, 0
1, 152000, Note_on_c, 0, 69, 15
1, 152040, Note_on_c, 0, 54, 0
1, 152058, Note_on_c, 0, 69, 0
1, 152058, Note_on_c, 0, 55, 43
1, 152065, Note_on_c, 0, 70, 54
1, 152242, Note_on_c, 0, 70, 0
1, 152248, Note_on_c, 0, 62, 50
1, 152328, Control_c, 0, 67, 123
1, 152344, Control_c, 0, 67, 118
1, 152363, Control_c, 0, 67, 111
1, 152379, Control_c, 0, 67, 103
1, 152399, Control_c, 0, 67, 93
1, 152416, Control_c, 0, 67, 80
1, 152434, Control_c, 0, 67, 65
1, 152442, Note_on_c, 0, 53, 44
1, 152444, Note_on_c, 0, 55, 0
1, 152455, Control_c, 0, 67, 51
1, 152460, Note_on_c, 0, 67, 54
1, 152469, Note_on_c, 0, 62, 0
1, 152474, Control_c, 0, 67, 37
1, 152492, Control_c, 0, 67, 24
1, 152511, Control_c, 0, 67, 12
1, 152583, Control_c, 0, 67, 0
1, 152642, Note_on_c, 0, 69, 68
1, 152683, Note_on_c, 0, 67, 0
1, 152836, Note_on_c, 0, 51, 41
1, 152841, Note_on_c, 0, 70, 72
1, 152876, Note_on_c, 0, 69, 0
1, 152878, Note_on_c, 0, 53, 0
1, 153027, Note_on_c, 0, 70, 0
1, 153045, Note_on_c, 0, 67, 64
1, 153134, Note_on_c, 0, 67, 0
1, 153244, Note_on_c, 0, 71, 72
1, 153253, Note_on_c, 0, 50, 38
1, 153265, Note_on_c, 0, 51, 0
1, 153438, Note_on_c, 0, 67, 64
1, 153469, Note_on_c, 0, 71, 0
1, 153526, Note_on_c, 0, 67, 0
1, 153637, Note_on_c, 0, 72, 73
1, 153660, Note_on_c, 0, 51, 43
1, 153696, Note_on_c, 0, 50, 0
1, 153807, Note_on_c, 0, 72, 0
1, 153824, Note_on_c, 0, 67, 67
1, 153897, Note_on_c, 0, 67, 0
1, 154011, Control_c, 0, 67, 8
1, 154036, Note_on_c, 0, 75, 66
1, 154054, Note_on_c, 0, 48, 39
1, 154088, Note_on_c, 0, 51, 0
1, 154128, Note_on_c, 0, 75, 0
1, 154179, Control_c, 0, 67, 12
1, 154237, Note_on_c, 0, 74, 75
1, 154363, Control_c, 0, 67, 16
1, 154444, Note_on_c, 0, 73, 58
1, 154454, Note_on_c, 0, 74, 0
1, 154494, Note_on_c, 0, 45, 34
1, 154495, Note_on_c, 0, 48, 0
1, 154509, Control_c, 0, 67, 20
1, 154518, Note_on_c, 0, 73, 0
1, 154566, Control_c, 0, 67, 25
1, 154603, Control_c, 0, 67, 29
1, 154634, Note_on_c, 0, 67, 51
1, 154638, Control_c, 0, 67, 33
1, 154677, Control_c, 0, 67, 39
1, 154731, Control_c, 0, 67, 43
1, 154768, Control_c, 0, 67, 48
1, 154800, Control_c, 0, 67, 53
1, 154819, Note_on_c, 0, 67, 0
1, 154820, Control_c, 0, 67, 57
1, 154845, Note_on_c, 0, 66, 53
1, 154858, Control_c, 0, 67, 63
1, 154869, Note_on_c, 0, 50, 43
1, 154878, Note_on_c, 0, 45, 0
1, 154894, Control_c, 0, 67, 71
1, 154899, Note_on_c, 0, 66, 0
1, 154911, Control_c, 0, 67, 76
1, 154931, Control_c, 0, 67, 81
1, 154946, Control_c, 0, 67, 85
1, 154966, Control_c, 0, 67, 90
1, 154984, Control_c, 0, 67, 97
1, 155004, Control_c, 0, 67, 105
1, 155021, Control_c, 0, 67, 112
1, 155041, Control_c, 0, 67, 116
1, 155056, Note_on_c, 0, 72, 54
1, 155096, Control_c, 0, 67, 122
1, 155132, Control_c, 0, 67, 127
1, 155251, Note_on_c, 0, 71, 54
1, 155259, Note_on_c, 0, 50, 0
1, 155267, Note_on_c, 0, 55, 43
1, 155269, Note_on_c, 0, 72, 0
1, 155323, Note_on_c, 0, 71, 0
1, 155451, Note_on_c, 0, 65, 40
1, 155551, Note_on_c, 0, 55, 0
1, 155624, Note_on_c, 0, 48, 45
1, 155646, Note_on_c, 0, 64, 43
1, 155673, Note_on_c, 0, 65, 0
1, 155790, Note_on_c, 0, 48, 0
1, 155840, Note_on_c, 0, 60, 69
1, 155851, Note_on_c, 0, 69, 58
1, 156041, Note_on_c, 0, 69, 0
1, 156074, Note_on_c, 0, 59, 61
1, 156081, Note_on_c, 0, 62, 50
1, 156089, Note_on_c, 0, 64, 0
1, 156094, Note_on_c, 0, 50, 46
1, 156102, Note_on_c, 0, 60, 0
1, 156283, Note_on_c, 0, 67, 52
1, 156505, Note_on_c, 0, 60, 49
1, 156519, Note_on_c, 0, 57, 49
1, 156526, Note_on_c, 0, 62, 0
1, 156532, Note_on_c, 0, 59, 0
1, 156738, Note_on_c, 0, 66, 60
1, 156759, Note_on_c, 0, 67, 0
1, 157073, Note_on_c, 0, 67, 56
1, 157081, Note_on_c, 0, 66, 0
1, 157081, Note_on_c, 0, 55, 42
1, 157095, Note_on_c, 0, 60, 0
1, 157124, Note_on_c, 0, 57, 0
1, 157178, Note_on_c, 0, 50, 0
1, 157333, Control_c, 0, 67, 122
1, 157342, Note_on_c, 0, 60, 44
1, 157373, Control_c, 0, 67, 112
1, 157390, Control_c, 0, 67, 102
1, 157409, Control_c, 0, 67, 89
1, 157429, Control_c, 0, 67, 74
1, 157445, Control_c, 0, 67, 56
1, 157464, Control_c, 0, 67, 36
1, 157482, Control_c, 0, 67, 16
1, 157502, Control_c, 0, 67, 0
1, 157532, Note_on_c, 0, 60, 0
1, 157533, Note_on_c, 0, 62, 51
1, 157758, Note_on_c, 0, 57, 35
1, 157811, Control_c, 0, 67, 9
1, 157829, Control_c, 0, 67, 13
1, 157847, Control_c, 0, 67, 22
1, 157868, Control_c, 0, 67, 35
1, 157885, Control_c, 0, 67, 49
1, 157904, Control_c, 0, 67, 62
1, 157920, Control_c, 0, 67, 75
1, 157939, Control_c, 0, 67, 90
1, 157958, Control_c, 0, 67, 106
1, 157975, Control_c, 0, 67, 120
1, 157980, Note_on_c, 0, 59, 45
1, 157993, Control_c, 0, 67, 126
1, 158009, Note_on_c, 0, 57, 0
1, 158193, Note_on_c, 0, 54, 41
1, 158217, Note_on_c, 0, 55, 0
1, 158460, Note_on_c, 0, 54, 0
1, 158462, Note_on_c, 0, 55, 38
1, 158759, Note_on_c, 0, 50, 37
1, 159197, Note_on_c, 0, 43, 35
1, 159320, Note_on_c, 0, 50, 0
1, 160621, Poly_aftertouch_c, 0, 55, 24
1, 160787, Poly_aftertouch_c, 0, 59, 24
1, 160870, Poly_aftertouch_c, 0, 55, 20
1, 160881, Note_on_c, 0, 55, 0
1, 160881, Poly_aftertouch_c, 0, 55, 0
1, 160910, Note_on_c, 0, 59, 0
1, 160910, Note_on_c, 0, 43, 0
1, 160910, Poly_aftertouch_c, 0, 59, 0
1, 160947, Note_on_c, 0, 62, 0
1, 161013, Note_on_c, 0, 67, 0
1, 161628, Control_c, 0, 64, 9
1, 161663, Control_c, 0, 64, 14
1, 161718, Control_c, 0, 64, 19
1, 161773, Control_c, 0, 64, 23
1, 161829, Control_c, 0, 64, 27
1, 161903, Control_c, 0, 64, 32
1, 161975, Control_c, 0, 64, 36
1, 162032, Control_c, 0, 64, 41
1, 162033, Control_c, 0, 67, 122
1, 162050, Control_c, 0, 64, 43
1, 162069, Control_c, 0, 64, 46
1, 162071, Control_c, 0, 67, 117
1, 162088, Control_c, 0, 67, 112
1, 162107, Control_c, 0, 64, 48
1, 162108, Control_c, 0, 67, 104
1, 162125, Control_c, 0, 67, 95
1, 162142, Control_c, 0, 67, 84
1, 162161, Control_c, 0, 67, 73
1, 162180, Control_c, 0, 67, 63
1, 162197, Control_c, 0, 67, 54
1, 162215, Control_c, 0, 67, 44
1, 162233, Control_c, 0, 64, 50
1, 162234, Control_c, 0, 67, 32
1, 162253, Control_c, 0, 67, 18
1, 162305, Control_c, 0, 67, 0
1, 162377, Control_c, 0, 64, 52
1, 162709, Control_c, 0, 64, 50
1, 162727, Control_c, 0, 64, 47
1, 162747, Control_c, 0, 64, 43
1, 162765, Control_c, 0, 64, 38
1, 162785, Control_c, 0, 64, 31
1, 162802, Control_c, 0, 64, 20
1, 162819, Control_c, 0, 64, 0
1, 163143, Note_on_c, 0, 79, 68
1, 163175, Note_on_c, 0, 79, 0
1, 163243, Note_on_c, 0, 79, 93
1, 163248, Note_on_c, 0, 55, 66
1, 163258, Control_c, 0, 64, 52
1, 163262, Note_on_c, 0, 74, 64
1, 163274, Note_on_c, 0, 71, 60
1, 163278, Control_c, 0, 64, 93
1, 163283, Note_on_c, 0, 55, 0
1, 163294, Control_c, 0, 64, 109
1, 163313, Control_c, 0, 64, 118
1, 163370, Control_c, 0, 64, 123
1, 163380, Note_on_c, 0, 74, 0
1, 163385, Control_c, 0, 64, 127
1, 163481, Note_on_c, 0, 71, 0
1, 163503, Note_on_c, 0, 78, 81
1, 163538, Note_on_c, 0, 79, 0
1, 163602, Note_on_c, 0, 76, 85
1, 163606, Control_c, 0, 64, 110
1, 163625, Control_c, 0, 64, 66
1, 163645, Control_c, 0, 64, 0
1, 163650, Note_on_c, 0, 78, 0
1, 163713, Note_on_c, 0, 74, 81
1, 163715, Note_on_c, 0, 76, 0
1, 163788, Note_on_c, 0, 74, 0
1, 163817, Note_on_c, 0, 72, 76
1, 163864, Note_on_c, 0, 72, 0
1, 163918, Note_on_c, 0, 62, 72
1, 163923, Note_on_c, 0, 71, 80
1, 163950, Note_on_c, 0, 62, 0
1, 163978, Note_on_c, 0, 71, 0
1, 164037, Note_on_c, 0, 69, 67
1, 164087, Note_on_c, 0, 69, 0
1, 164134, Note_on_c, 0, 67, 79
1, 164156, Note_on_c, 0, 71, 74
1, 164183, Note_on_c, 0, 67, 0
1, 164248, Note_on_c, 0, 71, 0
1, 164258, Note_on_c, 0, 74, 74
1, 164331, Note_on_c, 0, 74, 0
1, 164347, Note_on_c, 0, 66, 74
1, 164367, Note_on_c, 0, 69, 70
1, 164378, Note_on_c, 0, 66, 0
1, 164407, Note_on_c, 0, 69, 0
1, 164467, Note_on_c, 0, 72, 72
1, 164562, Note_on_c, 0, 67, 81
1, 164569, Note_on_c, 0, 72, 0
1, 164570, Note_on_c, 0, 71, 75
1, 164718, Note_on_c, 0, 67, 0
1, 164784, Note_on_c, 0, 66, 70
1, 164789, Note_on_c, 0, 71, 0
1, 164816, Note_on_c, 0, 67, 73
1, 164862, Note_on_c, 0, 67, 0
1, 164887, Note_on_c, 0, 66, 0
1, 164903, Note_on_c, 0, 64, 73
1, 164935, Note_on_c, 0, 64, 0
1, 164989, Note_on_c, 0, 62, 78
1, 165005, Note_on_c, 0, 71, 78
1, 165036, Note_on_c, 0, 71, 0
1, 165065, Note_on_c, 0, 62, 0
1, 165110, Note_on_c, 0, 60, 74
1, 165213, Note_on_c, 0, 60, 0
1, 165214, Note_on_c, 0, 74, 74
1, 165225, Note_on_c, 0, 59, 72
1, 165256, Note_on_c, 0, 74, 0
1, 165281, Note_on_c, 0, 59, 0
1, 165336, Note_on_c, 0, 57, 62
1, 165423, Note_on_c, 0, 57, 0
1, 165428, Note_on_c, 0, 79, 76
1, 165434, Note_on_c, 0, 59, 68
1, 165472, Note_on_c, 0, 79, 0
1, 165484, Note_on_c, 0, 59, 0
1, 165542, Note_on_c, 0, 62, 66
1, 165635, Note_on_c, 0, 62, 0
1, 165644, Note_on_c, 0, 57, 57
1, 165652, Note_on_c, 0, 78, 80
1, 165691, Note_on_c, 0, 78, 0
1, 165700, Note_on_c, 0, 57, 0
1, 165755, Note_on_c, 0, 60, 57
1, 165798, Note_on_c, 0, 60, 0
1, 165857, Note_on_c, 0, 79, 81
1, 165858, Note_on_c, 0, 59, 66
1, 165884, Note_on_c, 0, 59, 0
1, 165910, Note_on_c, 0, 79, 0
1, 165965, Note_on_c, 0, 81, 80
1, 166055, Note_on_c, 0, 81, 0
1, 166085, Note_on_c, 0, 55, 65
1, 166092, Note_on_c, 0, 83, 78
1, 166116, Note_on_c, 0, 55, 0
1, 166189, Note_on_c, 0, 79, 76
1, 166194, Note_on_c, 0, 83, 0
1, 166252, Note_on_c, 0, 79, 0
1, 166296, Note_on_c, 0, 74, 74
1, 166313, Note_on_c, 0, 59, 55
1, 166341, Note_on_c, 0, 59, 0
1, 166357, Note_on_c, 0, 74, 0
1, 166398, Note_on_c, 0, 77, 78
1, 166470, Note_on_c, 0, 77, 0
1, 166499, Note_on_c, 0, 55, 70
1, 166511, Note_on_c, 0, 76, 68
1, 166531, Note_on_c, 0, 55, 0
1, 166561, Note_on_c, 0, 76, 0
1, 166618, Note_on_c, 0, 74, 66
1, 166656, Note_on_c, 0, 74, 0
1, 166706, Note_on_c, 0, 60, 75
1, 166708, Note_on_c, 0, 76, 79
1, 166739, Note_on_c, 0, 60, 0
1, 166780, Note_on_c, 0, 76, 0
1, 166807, Note_on_c, 0, 81, 77
1, 166878, Note_on_c, 0, 81, 0
1, 166902, Note_on_c, 0, 57, 66
1, 166903, Note_on_c, 0, 83, 72
1, 166936, Note_on_c, 0, 57, 0
1, 166989, Note_on_c, 0, 83, 0
1, 166998, Note_on_c, 0, 84, 73
1, 167029, Note_on_c, 0, 84, 0
1, 167114, Note_on_c, 0, 62, 81
1, 167127, Note_on_c, 0, 79, 76
1, 167158, Note_on_c, 0, 79, 0
1, 167181, Note_on_c, 0, 78, 70
1, 167218, Note_on_c, 0, 78, 0
1, 167226, Note_on_c, 0, 79, 73
1, 167292, Note_on_c, 0, 78, 81
1, 167294, Note_on_c, 0, 79, 0
1, 167359, Note_on_c, 0, 78, 0
1, 167363, Note_on_c, 0, 74, 78
1, 167363, Note_on_c, 0, 60, 78
1, 167366, Note_on_c, 0, 62, 0
1, 167429, Note_on_c, 0, 74, 0
1, 167458, Note_on_c, 0, 59, 81
1, 167465, Note_on_c, 0, 60, 0
1, 167520, Note_on_c, 0, 59, 0
1, 167560, Note_on_c, 0, 57, 77
1, 167655, Note_on_c, 0, 57, 0
1, 167670, Note_on_c, 0, 55, 73
1, 167674, Note_on_c, 0, 76, 86
1, 167770, Note_on_c, 0, 54, 79
1, 167771, Note_on_c, 0, 55, 0
1, 167787, Note_on_c, 0, 74, 89
1, 167812, Note_on_c, 0, 54, 0
1, 167836, Note_on_c, 0, 76, 0
1, 167896, Note_on_c, 0, 52, 68
1, 167904, Note_on_c, 0, 72, 89
1, 167913, Note_on_c, 0, 74, 0
1, 167986, Note_on_c, 0, 52, 0
1, 167992, Note_on_c, 0, 72, 0
1, 167996, Note_on_c, 0, 50, 72
1, 168006, Note_on_c, 0, 71, 83
1, 168048, Note_on_c, 0, 50, 0
1, 168067, Note_on_c, 0, 71, 0
1, 168107, Note_on_c, 0, 74, 83
1, 168110, Note_on_c, 0, 54, 71
1, 168184, Note_on_c, 0, 54, 0
1, 168209, Note_on_c, 0, 48, 65
1, 168210, Note_on_c, 0, 74, 0
1, 168214, Note_on_c, 0, 69, 78
1, 168247, Note_on_c, 0, 48, 0
1, 168312, Note_on_c, 0, 69, 0
1, 168319, Note_on_c, 0, 54, 54
1, 168328, Note_on_c, 0, 74, 71
1, 168367, Note_on_c, 0, 54, 0
1, 168401, Note_on_c, 0, 74, 0
1, 168425, Note_on_c, 0, 67, 78
1, 168431, Note_on_c, 0, 47, 62
1, 168440, Note_on_c, 0, 48, 48
1, 168477, Note_on_c, 0, 48, 0
1, 168479, Note_on_c, 0, 47, 0
1, 168484, Note_on_c, 0, 67, 0
1, 168526, Note_on_c, 0, 74, 75
1, 168629, Note_on_c, 0, 74, 0
1, 168642, Note_on_c, 0, 66, 70
1, 168652, Note_on_c, 0, 45, 52
1, 168688, Note_on_c, 0, 45, 0
1, 168740, Note_on_c, 0, 66, 0
1, 168755, Note_on_c, 0, 74, 58
1, 168866, Note_on_c, 0, 74, 0
1, 168887, Note_on_c, 0, 47, 48
1, 168896, Note_on_c, 0, 67, 64
1, 168921, Note_on_c, 0, 47, 0
1, 168934, Note_on_c, 0, 67, 0
1, 169003, Note_on_c, 0, 74, 75
1, 169101, Note_on_c, 0, 72, 79
1, 169109, Note_on_c, 0, 43, 57
1, 169128, Note_on_c, 0, 74, 0
1, 169142, Note_on_c, 0, 43, 0
1, 169203, Note_on_c, 0, 71, 80
1, 169258, Note_on_c, 0, 72, 0
1, 169300, Note_on_c, 0, 45, 58
1, 169309, Note_on_c, 0, 69, 78
1, 169311, Note_on_c, 0, 71, 0
1, 169331, Note_on_c, 0, 45, 0
1, 169379, Note_on_c, 0, 69, 0
1, 169412, Note_on_c, 0, 67, 69
1, 169445, Note_on_c, 0, 67, 0
1, 169514, Note_on_c, 0, 47, 58
1, 169526, Note_on_c, 0, 65, 67
1, 169546, Note_on_c, 0, 47, 0
1, 169573, Note_on_c, 0, 65, 0
1, 169618, Note_on_c, 0, 74, 57
1, 169702, Note_on_c, 0, 74, 0
1, 169735, Note_on_c, 0, 64, 73
1, 169738, Note_on_c, 0, 48, 51
1, 169791, Note_on_c, 0, 48, 0
1, 169804, Note_on_c, 0, 64, 0
1, 169858, Note_on_c, 0, 74, 64
1, 169924, Note_on_c, 0, 74, 0
1, 169949, Note_on_c, 0, 47, 61
1, 169962, Note_on_c, 0, 62, 64
1, 169988, Note_on_c, 0, 47, 0
1, 170011, Note_on_c, 0, 62, 0
1, 170075, Note_on_c, 0, 74, 56
1, 170134, Note_on_c, 0, 74, 0
1, 170169, Note_on_c, 0, 48, 50
1, 170170, Note_on_c, 0, 64, 68
1, 170206, Note_on_c, 0, 48, 0
1, 170213, Note_on_c, 0, 64, 0
1, 170265, Note_on_c, 0, 74, 77
1, 170366, Note_on_c, 0, 45, 68
1, 170368, Note_on_c, 0, 72, 78
1, 170393, Note_on_c, 0, 74, 0
1, 170399, Note_on_c, 0, 45, 0
1, 170481, Note_on_c, 0, 71, 78
1, 170540, Note_on_c, 0, 72, 0
1, 170577, Note_on_c, 0, 47, 69
1, 170590, Note_on_c, 0, 69, 80
1, 170598, Note_on_c, 0, 71, 0
1, 170612, Note_on_c, 0, 47, 0
1, 170655, Note_on_c, 0, 69, 0
1, 170683, Note_on_c, 0, 67, 74
1, 170756, Note_on_c, 0, 67, 0
1, 170802, Note_on_c, 0, 69, 78
1, 170806, Note_on_c, 0, 48, 60
1, 170837, Note_on_c, 0, 48, 0
1, 170876, Note_on_c, 0, 69, 0
1, 170902, Note_on_c, 0, 72, 72
1, 171006, Note_on_c, 0, 50, 81
1, 171011, Note_on_c, 0, 66, 74
1, 171028, Note_on_c, 0, 72, 0
1, 171090, Note_on_c, 0, 66, 0
1, 171115, Note_on_c, 0, 64, 73
1, 171188, Note_on_c, 0, 64, 0
1, 171226, Note_on_c, 0, 50, 0
1, 171228, Note_on_c, 0, 62, 77
1, 171231, Note_on_c, 0, 48, 69
1, 171270, Note_on_c, 0, 62, 0
1, 171329, Note_on_c, 0, 48, 0
1, 171331, Note_on_c, 0, 64, 76
1, 171337, Note_on_c, 0, 47, 71
1, 171380, Note_on_c, 0, 47, 0
1, 171429, Note_on_c, 0, 64, 0
1, 171431, Note_on_c, 0, 45, 70
1, 171434, Note_on_c, 0, 66, 79
1, 171503, Note_on_c, 0, 45, 0
1, 171538, Note_on_c, 0, 43, 69
1, 171542, Note_on_c, 0, 67, 81
1, 171549, Note_on_c, 0, 66, 0
1, 171611, Note_on_c, 0, 67, 0
1, 171621, Note_on_c, 0, 43, 0
1, 171653, Note_on_c, 0, 42, 67
1, 171666, Note_on_c, 0, 69, 82
1, 171715, Note_on_c, 0, 42, 0
1, 171760, Note_on_c, 0, 40, 66
1, 171775, Note_on_c, 0, 71, 80
1, 171778, Note_on_c, 0, 69, 0
1, 171821, Note_on_c, 0, 40, 0
1, 171868, Note_on_c, 0, 72, 85
1, 171875, Note_on_c, 0, 71, 0
1, 171882, Note_on_c, 0, 38, 64
1, 171942, Note_on_c, 0, 38, 0
1, 171954, Note_on_c, 0, 72, 0
1, 171971, Note_on_c, 0, 69, 80
1, 171983, Note_on_c, 0, 42, 60
1, 172025, Note_on_c, 0, 42, 0
1, 172049, Note_on_c, 0, 69, 0
1, 172084, Note_on_c, 0, 45, 50
1, 172086, Note_on_c, 0, 74, 84
1, 172121, Note_on_c, 0, 45, 0
1, 172153, Note_on_c, 0, 74, 0
1, 172167, Note_on_c, 0, 50, 59
1, 172189, Note_on_c, 0, 69, 74
1, 172256, Note_on_c, 0, 69, 0
1, 172273, Note_on_c, 0, 50, 0
1, 172293, Note_on_c, 0, 43, 55
1, 172295, Note_on_c, 0, 71, 81
1, 172398, Note_on_c, 0, 67, 71
1, 172401, Note_on_c, 0, 43, 0
1, 172505, Note_on_c, 0, 66, 74
1, 172507, Note_on_c, 0, 67, 0
1, 172594, Note_on_c, 0, 66, 0
1, 172625, Note_on_c, 0, 64, 71
1, 172719, Note_on_c, 0, 64, 0
1, 172738, Note_on_c, 0, 62, 60
1, 172828, Note_on_c, 0, 60, 59
1, 172883, Note_on_c, 0, 62, 0
1, 172891, Note_on_c, 0, 60, 0
1, 172935, Note_on_c, 0, 59, 57
1, 172986, Note_on_c, 0, 59, 0
1, 173002, Note_on_c, 0, 71, 0
1, 173040, Note_on_c, 0, 57, 63
1, 173108, Note_on_c, 0, 57, 0
1, 173135, Note_on_c, 0, 55, 57
1, 173178, Note_on_c, 0, 55, 0
1, 173245, Note_on_c, 0, 59, 54
1, 173298, Note_on_c, 0, 59, 0
1, 173350, Note_on_c, 0, 71, 58
1, 173363, Note_on_c, 0, 54, 49
1, 173374, Note_on_c, 0, 71, 0
1, 173404, Note_on_c, 0, 54, 0
1, 173462, Note_on_c, 0, 57, 51
1, 173529, Note_on_c, 0, 57, 0
1, 173551, Control_c, 0, 67, 9
1, 173569, Control_c, 0, 67, 13
1, 173589, Control_c, 0, 67, 22
1, 173598, Note_on_c, 0, 55, 52
1, 173599, Note_on_c, 0, 76, 63
1, 173606, Control_c, 0, 67, 40
1, 173623, Control_c, 0, 67, 69
1, 173631, Note_on_c, 0, 55, 0
1, 173642, Control_c, 0, 67, 103
1, 173663, Control_c, 0, 67, 127
1, 173668, Note_on_c, 0, 76, 0
1, 173705, Note_on_c, 0, 78, 66
1, 173781, Note_on_c, 0, 78, 0
1, 173805, Note_on_c, 0, 79, 63
1, 173807, Note_on_c, 0, 52, 52
1, 173838, Note_on_c, 0, 52, 0
1, 173879, Note_on_c, 0, 79, 0
1, 173915, Note_on_c, 0, 76, 59
1, 173963, Note_on_c, 0, 76, 0
1, 174024, Note_on_c, 0, 55, 49
1, 174030, Note_on_c, 0, 71, 62
1, 174056, Note_on_c, 0, 55, 0
1, 174090, Note_on_c, 0, 71, 0
1, 174127, Note_on_c, 0, 76, 62
1, 174227, Note_on_c, 0, 76, 0
1, 174233, Note_on_c, 0, 78, 66
1, 174236, Note_on_c, 0, 52, 50
1, 174272, Note_on_c, 0, 52, 0
1, 174318, Note_on_c, 0, 78, 0
1, 174339, Note_on_c, 0, 79, 61
1, 174395, Note_on_c, 0, 79, 0
1, 174430, Note_on_c, 0, 59, 64
1, 174471, Note_on_c, 0, 75, 60
1, 174480, Note_on_c, 0, 59, 0
1, 174515, Note_on_c, 0, 75, 0
1, 174563, Note_on_c, 0, 81, 64
1, 174659, Note_on_c, 0, 47, 58
1, 174664, Note_on_c, 0, 79, 70
1, 174675, Note_on_c, 0, 81, 0
1, 174695, Note_on_c, 0, 47, 0
1, 174750, Note_on_c, 0, 79, 0
1, 174763, Note_on_c, 0, 78, 74
1, 174870, Note_on_c, 0, 52, 72
1, 174874, Note_on_c, 0, 79, 76
1, 174881, Note_on_c, 0, 78, 0
1, 174904, Note_on_c, 0, 79, 0
1, 174954, Note_on_c, 0, 52, 0
1, 174965, Control_c, 0, 67, 120
1, 174982, Note_on_c, 0, 54, 80
1, 174983, Control_c, 0, 67, 105
1, 175001, Control_c, 0, 67, 82
1, 175020, Control_c, 0, 67, 53
1, 175038, Control_c, 0, 67, 23
1, 175043, Note_on_c, 0, 54, 0
1, 175057, Control_c, 0, 67, 0
1, 175080, Note_on_c, 0, 76, 81
1, 175083, Note_on_c, 0, 55, 70
1, 175124, Note_on_c, 0, 76, 0
1, 175150, Note_on_c, 0, 55, 0
1, 175204, Note_on_c, 0, 52, 64
1, 175275, Note_on_c, 0, 52, 0
1, 175292, Note_on_c, 0, 79, 87
1, 175296, Note_on_c, 0, 49, 64
1, 175338, Note_on_c, 0, 79, 0
1, 175350, Note_on_c, 0, 49, 0
1, 175415, Note_on_c, 0, 55, 57
1, 175495, Note_on_c, 0, 55, 0
1, 175511, Note_on_c, 0, 74, 82
1, 175514, Note_on_c, 0, 47, 66
1, 175546, Note_on_c, 0, 74, 0
1, 175563, Note_on_c, 0, 47, 0
1, 175639, Note_on_c, 0, 55, 52
1, 175692, Note_on_c, 0, 55, 0
1, 175726, Note_on_c, 0, 73, 81
1, 175737, Note_on_c, 0, 45, 59
1, 175765, Note_on_c, 0, 73, 0
1, 175772, Note_on_c, 0, 45, 0
1, 175845, Note_on_c, 0, 55, 52
1, 175929, Note_on_c, 0, 55, 0
1, 175940, Note_on_c, 0, 81, 72
1, 175941, Note_on_c, 0, 54, 64
1, 175974, Note_on_c, 0, 81, 0
1, 176006, Note_on_c, 0, 54, 0
1, 176046, Note_on_c, 0, 52, 61
1, 176098, Note_on_c, 0, 52, 0
1, 176146, Note_on_c, 0, 54, 66
1, 176149, Note_on_c, 0, 74, 81
1, 176171, Note_on_c, 0, 54, 0
1, 176195, Note_on_c, 0, 74, 0
1, 176265, Note_on_c, 0, 76, 70
1, 176333, Note_on_c, 0, 76, 0
1, 176368, Note_on_c, 0, 50, 64
1, 176377, Note_on_c, 0, 78, 78
1, 176404, Note_on_c, 0, 50, 0
1, 176488, Note_on_c, 0, 74, 69
1, 176500, Note_on_c, 0, 78, 0
1, 176541, Note_on_c, 0, 74, 0
1, 176592, Note_on_c, 0, 69, 69
1, 176592, Note_on_c, 0, 54, 66
1, 176617, Note_on_c, 0, 54, 0
1, 176638, Note_on_c, 0, 69, 0
1, 176694, Note_on_c, 0, 72, 70
1, 176757, Note_on_c, 0, 72, 0
1, 176802, Note_on_c, 0, 50, 56
1, 176808, Note_on_c, 0, 71, 63
1, 176835, Note_on_c, 0, 50, 0
1, 176851, Note_on_c, 0, 71, 0
1, 176906, Note_on_c, 0, 69, 64
1, 176946, Note_on_c, 0, 69, 0
1, 177000, Note_on_c, 0, 55, 72
1, 177016, Note_on_c, 0, 71, 70
1, 177043, Note_on_c, 0, 55, 0
1, 177062, Note_on_c, 0, 71, 0
1, 177110, Note_on_c, 0, 76, 72
1, 177176, Note_on_c, 0, 76, 0
1, 177202, Note_on_c, 0, 52, 61
1, 177206, Note_on_c, 0, 78, 75
1, 177233, Note_on_c, 0, 52, 0
1, 177303, Note_on_c, 0, 78, 0
1, 177309, Note_on_c, 0, 79, 65
1, 177344, Note_on_c, 0, 79, 0
1, 177443, Note_on_c, 0, 57, 80
1, 177449, Note_on_c, 0, 74, 69
1, 177484, Note_on_c, 0, 74, 0
1, 177497, Note_on_c, 0, 73, 74
1, 177527, Note_on_c, 0, 73, 0
1, 177544, Note_on_c, 0, 74, 80
1, 177602, Note_on_c, 0, 73, 75
1, 177619, Note_on_c, 0, 74, 0
1, 177634, Note_on_c, 0, 57, 0
1, 177658, Note_on_c, 0, 55, 70
1, 177674, Note_on_c, 0, 69, 70
1, 177680, Note_on_c, 0, 73, 0
1, 177759, Note_on_c, 0, 54, 78
1, 177761, Note_on_c, 0, 55, 0
1, 177829, Note_on_c, 0, 54, 0
1, 177859, Note_on_c, 0, 52, 77
1, 177877, Note_on_c, 0, 69, 0
1, 177956, Note_on_c, 0, 52, 0
1, 177971, Note_on_c, 0, 50, 72
1, 178064, Note_on_c, 0, 50, 0
1, 178075, Note_on_c, 0, 49, 75
1, 178096, Note_on_c, 0, 69, 86
1, 178126, Note_on_c, 0, 49, 0
1, 178209, Note_on_c, 0, 71, 88
1, 178216, Note_on_c, 0, 47, 61
1, 178225, Note_on_c, 0, 69, 0
1, 178252, Note_on_c, 0, 47, 0
1, 178315, Note_on_c, 0, 73, 89
1, 178324, Note_on_c, 0, 45, 63
1, 178326, Note_on_c, 0, 71, 0
1, 178371, Note_on_c, 0, 45, 0
1, 178409, Note_on_c, 0, 73, 0
1, 178418, Note_on_c, 0, 74, 85
1, 178425, Note_on_c, 0, 52, 68
1, 178471, Note_on_c, 0, 74, 0
1, 178479, Note_on_c, 0, 52, 0
1, 178518, Note_on_c, 0, 76, 82
1, 178518, Note_on_c, 0, 43, 67
1, 178569, Note_on_c, 0, 43, 0
1, 178605, Note_on_c, 0, 76, 0
1, 178628, Note_on_c, 0, 52, 54
1, 178631, Note_on_c, 0, 73, 83
1, 178690, Note_on_c, 0, 52, 0
1, 178721, Note_on_c, 0, 73, 0
1, 178726, Note_on_c, 0, 42, 75
1, 178732, Note_on_c, 0, 74, 84
1, 178759, Note_on_c, 0, 42, 0
1, 178805, Note_on_c, 0, 74, 0
1, 178835, Note_on_c, 0, 76, 76
1, 178902, Note_on_c, 0, 76, 0
1, 178946, Note_on_c, 0, 40, 66
1, 178961, Note_on_c, 0, 69, 68
1, 178981, Note_on_c, 0, 40, 0
1, 179011, Note_on_c, 0, 69, 0
1, 179061, Note_on_c, 0, 73, 70
1, 179166, Note_on_c, 0, 73, 0
1, 179179, Note_on_c, 0, 74, 74
1, 179189, Note_on_c, 0, 42, 54
1, 179223, Note_on_c, 0, 42, 0
1, 179231, Note_on_c, 0, 74, 0
1, 179289, Note_on_c, 0, 76, 65
1, 179348, Note_on_c, 0, 76, 0
1, 179390, Note_on_c, 0, 45, 57
1, 179394, Note_on_c, 0, 69, 66
1, 179427, Note_on_c, 0, 45, 0
1, 179439, Note_on_c, 0, 69, 0
1, 179497, Note_on_c, 0, 74, 69
1, 179561, Note_on_c, 0, 74, 0
1, 179586, Note_on_c, 0, 50, 64
1, 179599, Note_on_c, 0, 66, 65
1, 179622, Note_on_c, 0, 50, 0
1, 179687, Note_on_c, 0, 66, 0
1, 179704, Note_on_c, 0, 74, 68
1, 179751, Note_on_c, 0, 74, 0
1, 179795, Note_on_c, 0, 42, 65
1, 179811, Note_on_c, 0, 69, 73
1, 179831, Note_on_c, 0, 42, 0
1, 179880, Note_on_c, 0, 69, 0
1, 179908, Note_on_c, 0, 76, 74
1, 180000, Note_on_c, 0, 43, 87
1, 180017, Note_on_c, 0, 74, 81
1, 180038, Note_on_c, 0, 76, 0
1, 180042, Note_on_c, 0, 43, 0
1, 180141, Note_on_c, 0, 74, 0
1, 180144, Note_on_c, 0, 76, 71
1, 180220, Note_on_c, 0, 45, 84
1, 180224, Note_on_c, 0, 76, 0
1, 180244, Note_on_c, 0, 71, 72
1, 180252, Note_on_c, 0, 45, 0
1, 180328, Note_on_c, 0, 71, 0
1, 180342, Note_on_c, 0, 73, 74
1, 180428, Note_on_c, 0, 47, 77
1, 180438, Note_on_c, 0, 74, 78
1, 180443, Note_on_c, 0, 73, 0
1, 180468, Note_on_c, 0, 47, 0
1, 180531, Note_on_c, 0, 74, 0
1, 180543, Note_on_c, 0, 76, 71
1, 180619, Note_on_c, 0, 76, 0
1, 180647, Note_on_c, 0, 43, 64
1, 180659, Note_on_c, 0, 71, 67
1, 180686, Note_on_c, 0, 43, 0
1, 180712, Note_on_c, 0, 71, 0
1, 180754, Note_on_c, 0, 74, 65
1, 180829, Note_on_c, 0, 74, 0
1, 180864, Note_on_c, 0, 40, 63
1, 180877, Note_on_c, 0, 67, 61
1, 180897, Note_on_c, 0, 40, 0
1, 180923, Note_on_c, 0, 67, 0
1, 180970, Note_on_c, 0, 74, 68
1, 181039, Note_on_c, 0, 74, 0
1, 181101, Note_on_c, 0, 71, 66
1, 181101, Note_on_c, 0, 43, 56
1, 181138, Note_on_c, 0, 43, 0
1, 181155, Note_on_c, 0, 71, 0
1, 181201, Note_on_c, 0, 74, 72
1, 181297, Note_on_c, 0, 74, 0
1, 181304, Note_on_c, 0, 45, 70
1, 181306, Note_on_c, 0, 73, 79
1, 181341, Note_on_c, 0, 45, 0
1, 181410, Note_on_c, 0, 74, 78
1, 181412, Note_on_c, 0, 73, 0
1, 181502, Note_on_c, 0, 74, 0
1, 181508, Note_on_c, 0, 76, 79
1, 181515, Note_on_c, 0, 47, 74
1, 181548, Note_on_c, 0, 47, 0
1, 181614, Note_on_c, 0, 73, 75
1, 181638, Note_on_c, 0, 76, 0
1, 181681, Note_on_c, 0, 73, 0
1, 181720, Note_on_c, 0, 67, 77
1, 181724, Note_on_c, 0, 49, 77
1, 181759, Note_on_c, 0, 49, 0
1, 181811, Note_on_c, 0, 67, 0
1, 181824, Note_on_c, 0, 71, 78
1, 181919, Note_on_c, 0, 50, 75
1, 181940, Note_on_c, 0, 69, 79
1, 181941, Note_on_c, 0, 71, 0
1, 181968, Note_on_c, 0, 50, 0
1, 182011, Note_on_c, 0, 69, 0
1, 182047, Note_on_c, 0, 67, 69
1, 182156, Note_on_c, 0, 45, 79
1, 182162, Note_on_c, 0, 66, 76
1, 182180, Note_on_c, 0, 67, 0
1, 182270, Note_on_c, 0, 74, 71
1, 182271, Note_on_c, 0, 66, 0
1, 182363, Note_on_c, 0, 74, 0
1, 182363, Note_on_c, 0, 55, 71
1, 182376, Note_on_c, 0, 64, 73
1, 182398, Note_on_c, 0, 55, 0
1, 182459, Note_on_c, 0, 64, 0
1, 182480, Note_on_c, 0, 73, 77
1, 182598, Note_on_c, 0, 74, 83
1, 182603, Note_on_c, 0, 54, 75
1, 182613, Note_on_c, 0, 73, 0
1, 182624, Note_on_c, 0, 45, 0
1, 182823, Note_on_c, 0, 54, 0
1, 182829, Note_on_c, 0, 50, 66
1, 182840, Note_on_c, 0, 73, 75
1, 182876, Note_on_c, 0, 74, 0
1, 182953, Note_on_c, 0, 71, 78
1, 183005, Note_on_c, 0, 73, 0
1, 183064, Note_on_c, 0, 69, 80
1, 183066, Note_on_c, 0, 71, 0
1, 183073, Note_on_c, 0, 54, 65
1, 183110, Note_on_c, 0, 54, 0
1, 183140, Note_on_c, 0, 69, 0
1, 183143, Control_c, 0, 67, 8
1, 183170, Note_on_c, 0, 67, 71
1, 183238, Note_on_c, 0, 67, 0
1, 183285, Note_on_c, 0, 66, 76
1, 183294, Note_on_c, 0, 57, 63
1, 183319, Note_on_c, 0, 57, 0
1, 183358, Note_on_c, 0, 66, 0
1, 183385, Note_on_c, 0, 64, 73
1, 183445, Note_on_c, 0, 64, 0
1, 183502, Note_on_c, 0, 62, 78
1, 183532, Control_c, 0, 64, 19
1, 183550, Control_c, 0, 64, 60
1, 183568, Control_c, 0, 64, 73
1, 183570, Note_on_c, 0, 50, 0
1, 183585, Control_c, 0, 64, 78
1, 183586, Note_on_c, 0, 62, 0
1, 183605, Control_c, 0, 64, 81
1, 183624, Control_c, 0, 64, 86
1, 183641, Control_c, 0, 64, 92
1, 183661, Control_c, 0, 64, 99
1, 183680, Control_c, 0, 64, 105
1, 183699, Control_c, 0, 64, 109
1, 183716, Control_c, 0, 67, 12
1, 183734, Control_c, 0, 64, 115
1, 183772, Control_c, 0, 64, 120
1, 183822, Control_c, 0, 64, 127
1, 183925, Note_on_c, 0, 79, 73
1, 183952, Note_on_c, 0, 79, 0
1, 183969, Control_c, 0, 64, 99
1, 183988, Control_c, 0, 64, 15
1, 184006, Control_c, 0, 64, 0
1, 184011, Note_on_c, 0, 79, 93
1, 184026, Note_on_c, 0, 74, 75
1, 184036, Note_on_c, 0, 71, 63
1, 184042, Control_c, 0, 67, 8
1, 184043, Note_on_c, 0, 55, 73
1, 184098, Control_c, 0, 64, 41
1, 184118, Control_c, 0, 64, 68
1, 184136, Control_c, 0, 64, 82
1, 184145, Note_on_c, 0, 74, 0
1, 184154, Control_c, 0, 64, 98
1, 184174, Control_c, 0, 64, 110
1, 184194, Control_c, 0, 64, 118
1, 184209, Control_c, 0, 64, 124
1, 184223, Note_on_c, 0, 55, 0
1, 184279, Note_on_c, 0, 71, 0
1, 184298, Note_on_c, 0, 78, 82
1, 184343, Note_on_c, 0, 79, 0
1, 184376, Control_c, 0, 67, 13
1, 184398, Note_on_c, 0, 76, 86
1, 184413, Control_c, 0, 67, 18
1, 184449, Control_c, 0, 64, 74
1, 184453, Note_on_c, 0, 78, 0
1, 184467, Control_c, 0, 64, 0
1, 184499, Note_on_c, 0, 74, 86
1, 184508, Note_on_c, 0, 76, 0
1, 184577, Note_on_c, 0, 74, 0
1, 184600, Note_on_c, 0, 72, 80
1, 184658, Note_on_c, 0, 72, 0
1, 184709, Note_on_c, 0, 71, 81
1, 184719, Note_on_c, 0, 62, 81
1, 184758, Note_on_c, 0, 62, 0
1, 184787, Note_on_c, 0, 71, 0
1, 184825, Note_on_c, 0, 69, 71
1, 184877, Note_on_c, 0, 69, 0
1, 184944, Note_on_c, 0, 71, 75
1, 184947, Note_on_c, 0, 67, 78
1, 184974, Note_on_c, 0, 67, 0
1, 185013, Note_on_c, 0, 71, 0
1, 185036, Note_on_c, 0, 74, 75
1, 185101, Note_on_c, 0, 74, 0
1, 185146, Note_on_c, 0, 69, 72
1, 185147, Note_on_c, 0, 66, 71
1, 185171, Note_on_c, 0, 66, 0
1, 185184, Note_on_c, 0, 69, 0
1, 185243, Poly_aftertouch_c, 0, 62, 0
1, 185252, Note_on_c, 0, 72, 77
1, 185339, Note_on_c, 0, 72, 0
1, 185360, Note_on_c, 0, 71, 75
1, 185378, Note_on_c, 0, 67, 81
1, 185403, Control_c, 0, 64, 40
1, 185422, Control_c, 0, 64, 53
1, 185495, Note_on_c, 0, 67, 0
1, 185577, Note_on_c, 0, 71, 0
1, 185604, Control_c, 0, 64, 48
1, 185612, Note_on_c, 0, 66, 74
1, 185613, Note_on_c, 0, 67, 82
1, 185623, Control_c, 0, 64, 42
1, 185644, Control_c, 0, 64, 37
1, 185680, Note_on_c, 0, 67, 0
1, 185693, Control_c, 0, 64, 33
1, 185717, Note_on_c, 0, 66, 0
1, 185731, Control_c, 0, 64, 29
1, 185742, Note_on_c, 0, 64, 77
1, 185778, Note_on_c, 0, 64, 0
1, 185805, Control_c, 0, 64, 25
1, 185827, Note_on_c, 0, 71, 77
1, 185827, Note_on_c, 0, 62, 80
1, 185840, Control_c, 0, 64, 20
1, 185857, Note_on_c, 0, 71, 0
1, 185909, Note_on_c, 0, 62, 0
1, 185916, Note_on_c, 0, 60, 80
1, 185933, Control_c, 0, 64, 16
1, 186013, Note_on_c, 0, 60, 0
1, 186022, Note_on_c, 0, 74, 78
1, 186037, Note_on_c, 0, 59, 76
1, 186069, Note_on_c, 0, 74, 0
1, 186093, Note_on_c, 0, 59, 0
1, 186146, Note_on_c, 0, 57, 62
1, 186224, Note_on_c, 0, 57, 0
1, 186228, Note_on_c, 0, 59, 70
1, 186233, Note_on_c, 0, 79, 73
1, 186273, Note_on_c, 0, 79, 0
1, 186282, Note_on_c, 0, 59, 0
1, 186336, Note_on_c, 0, 62, 61
1, 186424, Note_on_c, 0, 62, 0
1, 186445, Note_on_c, 0, 78, 78
1, 186446, Note_on_c, 0, 57, 62
1, 186469, Note_on_c, 0, 78, 0
1, 186509, Note_on_c, 0, 57, 0
1, 186573, Note_on_c, 0, 60, 54
1, 186633, Note_on_c, 0, 60, 0
1, 186682, Note_on_c, 0, 79, 80
1, 186683, Note_on_c, 0, 59, 67
1, 186713, Note_on_c, 0, 59, 0
1, 186734, Note_on_c, 0, 79, 0
1, 186777, Control_c, 0, 67, 14
1, 186790, Note_on_c, 0, 81, 80
1, 186850, Control_c, 0, 67, 0
1, 186860, Note_on_c, 0, 81, 0
1, 186896, Note_on_c, 0, 83, 78
1, 186906, Note_on_c, 0, 55, 57
1, 186938, Note_on_c, 0, 55, 0
1, 186999, Note_on_c, 0, 79, 73
1, 187002, Note_on_c, 0, 83, 0
1, 187057, Note_on_c, 0, 79, 0
1, 187107, Note_on_c, 0, 74, 69
1, 187115, Note_on_c, 0, 59, 58
1, 187146, Note_on_c, 0, 59, 0
1, 187159, Note_on_c, 0, 74, 0
1, 187215, Note_on_c, 0, 77, 69
1, 187266, Note_on_c, 0, 77, 0
1, 187312, Note_on_c, 0, 55, 62
1, 187317, Note_on_c, 0, 76, 62
1, 187344, Note_on_c, 0, 55, 0
1, 187355, Note_on_c, 0, 76, 0
1, 187425, Note_on_c, 0, 74, 58
1, 187454, Note_on_c, 0, 74, 0
1, 187531, Note_on_c, 0, 76, 62
1, 187550, Note_on_c, 0, 60, 58
1, 187580, Note_on_c, 0, 60, 0
1, 187585, Note_on_c, 0, 76, 0
1, 187644, Note_on_c, 0, 81, 70
1, 187658, Control_c, 0, 64, 12
1, 187691, Note_on_c, 0, 81, 0
1, 187711, Control_c, 0, 64, 0
1, 187745, Note_on_c, 0, 83, 69
1, 187747, Note_on_c, 0, 57, 62
1, 187775, Note_on_c, 0, 57, 0
1, 187809, Note_on_c, 0, 83, 0
1, 187833, Note_on_c, 0, 84, 68
1, 187868, Note_on_c, 0, 84, 0
1, 187955, Note_on_c, 0, 62, 77
1, 187970, Note_on_c, 0, 79, 69
1, 188001, Note_on_c, 0, 79, 0
1, 188007, Control_c, 0, 64, 35
1, 188018, Note_on_c, 0, 78, 76
1, 188023, Control_c, 0, 64, 43
1, 188043, Control_c, 0, 64, 38
1, 188067, Note_on_c, 0, 79, 71
1, 188071, Note_on_c, 0, 78, 0
1, 188126, Note_on_c, 0, 78, 69
1, 188142, Note_on_c, 0, 79, 0
1, 188165, Note_on_c, 0, 62, 0
1, 188171, Control_c, 0, 64, 33
1, 188193, Note_on_c, 0, 60, 70
1, 188194, Note_on_c, 0, 78, 0
1, 188197, Note_on_c, 0, 74, 77
1, 188229, Control_c, 0, 64, 29
1, 188264, Control_c, 0, 64, 24
1, 188288, Note_on_c, 0, 60, 0
1, 188289, Note_on_c, 0, 74, 0
1, 188290, Note_on_c, 0, 59, 78
1, 188302, Control_c, 0, 64, 20
1, 188350, Note_on_c, 0, 59, 0
1, 188376, Control_c, 0, 64, 16
1, 188398, Note_on_c, 0, 57, 72
1, 188467, Control_c, 0, 64, 11
1, 188493, Note_on_c, 0, 57, 0
1, 188508, Note_on_c, 0, 76, 73
1, 188531, Note_on_c, 0, 55, 66
1, 188608, Note_on_c, 0, 55, 0
1, 188616, Note_on_c, 0, 74, 83
1, 188620, Note_on_c, 0, 54, 75
1, 188656, Note_on_c, 0, 54, 0
1, 188665, Note_on_c, 0, 76, 0
1, 188685, Control_c, 0, 64, 0
1, 188714, Note_on_c, 0, 72, 84
1, 188721, Note_on_c, 0, 52, 72
1, 188724, Note_on_c, 0, 74, 0
1, 188778, Note_on_c, 0, 52, 0
1, 188804, Note_on_c, 0, 72, 0
1, 188824, Note_on_c, 0, 71, 81
1, 188826, Note_on_c, 0, 50, 64
1, 188874, Note_on_c, 0, 50, 0
1, 188890, Note_on_c, 0, 71, 0
1, 188921, Note_on_c, 0, 74, 80
1, 188928, Note_on_c, 0, 54, 66
1, 188979, Note_on_c, 0, 54, 0
1, 189006, Note_on_c, 0, 74, 0
1, 189032, Note_on_c, 0, 48, 58
1, 189034, Note_on_c, 0, 69, 71
1, 189068, Note_on_c, 0, 48, 0
1, 189115, Note_on_c, 0, 54, 55
1, 189124, Note_on_c, 0, 69, 0
1, 189140, Note_on_c, 0, 74, 69
1, 189187, Note_on_c, 0, 54, 0
1, 189217, Note_on_c, 0, 74, 0
1, 189243, Note_on_c, 0, 47, 68
1, 189243, Note_on_c, 0, 67, 71
1, 189282, Note_on_c, 0, 67, 0
1, 189289, Note_on_c, 0, 47, 0
1, 189356, Note_on_c, 0, 74, 61
1, 189384, Control_c, 0, 67, 9
1, 189404, Control_c, 0, 67, 13
1, 189434, Control_c, 0, 67, 21
1, 189448, Note_on_c, 0, 74, 0
1, 189452, Control_c, 0, 67, 31
1, 189472, Control_c, 0, 67, 37
1, 189476, Note_on_c, 0, 45, 58
1, 189479, Note_on_c, 0, 66, 59
1, 189491, Control_c, 0, 67, 41
1, 189510, Control_c, 0, 67, 45
1, 189513, Note_on_c, 0, 45, 0
1, 189529, Control_c, 0, 67, 52
1, 189548, Control_c, 0, 67, 61
1, 189566, Control_c, 0, 67, 69
1, 189569, Note_on_c, 0, 66, 0
1, 189579, Note_on_c, 0, 74, 58
1, 189581, Control_c, 0, 67, 73
1, 189621, Control_c, 0, 67, 79
1, 189638, Control_c, 0, 67, 84
1, 189656, Control_c, 0, 67, 90
1, 189672, Note_on_c, 0, 74, 0
1, 189676, Control_c, 0, 67, 94
1, 189701, Note_on_c, 0, 47, 49
1, 189710, Note_on_c, 0, 67, 54
1, 189738, Note_on_c, 0, 47, 0
1, 189740, Note_on_c, 0, 67, 0
1, 189769, Control_c, 0, 67, 99
1, 189820, Note_on_c, 0, 74, 80
1, 189842, Control_c, 0, 67, 103
1, 189896, Control_c, 0, 67, 109
1, 189919, Note_on_c, 0, 43, 69
1, 189924, Note_on_c, 0, 72, 80
1, 189952, Control_c, 0, 67, 113
1, 189956, Note_on_c, 0, 43, 0
1, 189991, Note_on_c, 0, 74, 0
1, 190029, Note_on_c, 0, 71, 80
1, 190062, Control_c, 0, 67, 108
1, 190070, Note_on_c, 0, 72, 0
1, 190117, Control_c, 0, 67, 103
1, 190130, Note_on_c, 0, 71, 0
1, 190131, Note_on_c, 0, 69, 81
1, 190135, Note_on_c, 0, 45, 53
1, 190153, Control_c, 0, 67, 97
1, 190171, Note_on_c, 0, 45, 0
1, 190172, Control_c, 0, 67, 89
1, 190192, Control_c, 0, 67, 79
1, 190203, Note_on_c, 0, 69, 0
1, 190210, Control_c, 0, 67, 70
1, 190229, Control_c, 0, 67, 60
1, 190243, Note_on_c, 0, 67, 73
1, 190248, Control_c, 0, 67, 50
1, 190266, Control_c, 0, 67, 39
1, 190283, Control_c, 0, 67, 25
1, 190288, Note_on_c, 0, 67, 0
1, 190301, Control_c, 0, 67, 11
1, 190321, Control_c, 0, 67, 0
1, 190341, Note_on_c, 0, 65, 72
1, 190342, Note_on_c, 0, 47, 56
1, 190393, Note_on_c, 0, 47, 0
1, 190401, Note_on_c, 0, 65, 0
1, 190471, Note_on_c, 0, 74, 58
1, 190548, Note_on_c, 0, 74, 0
1, 190575, Note_on_c, 0, 64, 65
1, 190580, Note_on_c, 0, 48, 51
1, 190614, Note_on_c, 0, 48, 0
1, 190623, Note_on_c, 0, 64, 0
1, 190681, Note_on_c, 0, 74, 61
1, 190738, Note_on_c, 0, 74, 0
1, 190773, Note_on_c, 0, 47, 53
1, 190779, Note_on_c, 0, 62, 67
1, 190807, Note_on_c, 0, 47, 0
1, 190825, Note_on_c, 0, 62, 0
1, 190889, Note_on_c, 0, 74, 50
1, 190950, Note_on_c, 0, 74, 0
1, 190985, Note_on_c, 0, 64, 66
1, 190990, Note_on_c, 0, 48, 45
1, 191031, Note_on_c, 0, 48, 0
1, 191032, Note_on_c, 0, 64, 0
1, 191101, Note_on_c, 0, 74, 70
1, 191194, Note_on_c, 0, 45, 63
1, 191213, Note_on_c, 0, 72, 73
1, 191230, Note_on_c, 0, 74, 0
1, 191234, Note_on_c, 0, 45, 0
1, 191332, Note_on_c, 0, 71, 78
1, 191402, Note_on_c, 0, 72, 0
1, 191436, Note_on_c, 0, 47, 51
1, 191438, Note_on_c, 0, 69, 80
1, 191447, Note_on_c, 0, 71, 0
1, 191472, Note_on_c, 0, 47, 0
1, 191514, Note_on_c, 0, 69, 0
1, 191544, Note_on_c, 0, 67, 74
1, 191604, Note_on_c, 0, 67, 0
1, 191645, Note_on_c, 0, 69, 79
1, 191655, Note_on_c, 0, 48, 42
1, 191701, Note_on_c, 0, 48, 0
1, 191715, Note_on_c, 0, 69, 0
1, 191748, Note_on_c, 0, 72, 72
1, 191846, Note_on_c, 0, 50, 70
1, 191857, Note_on_c, 0, 66, 76
1, 191877, Note_on_c, 0, 72, 0
1, 191941, Note_on_c, 0, 66, 0
1, 191960, Note_on_c, 0, 64, 73
1, 192026, Note_on_c, 0, 64, 0
1, 192048, Note_on_c, 0, 50, 0
1, 192064, Note_on_c, 0, 62, 79
1, 192081, Note_on_c, 0, 48, 69
1, 192109, Note_on_c, 0, 62, 0
1, 192165, Note_on_c, 0, 48, 0
1, 192174, Note_on_c, 0, 47, 69
1, 192176, Note_on_c, 0, 64, 73
1, 192212, Note_on_c, 0, 47, 0
1, 192279, Note_on_c, 0, 45, 74
1, 192284, Note_on_c, 0, 64, 0
1, 192299, Note_on_c, 0, 66, 73
1, 192357, Note_on_c, 0, 45, 0
1, 192385, Note_on_c, 0, 43, 67
1, 192401, Note_on_c, 0, 67, 80
1, 192411, Note_on_c, 0, 66, 0
1, 192448, Note_on_c, 0, 43, 0
1, 192461, Note_on_c, 0, 67, 0
1, 192475, Note_on_c, 0, 42, 68
1, 192507, Note_on_c, 0, 69, 81
1, 192548, Note_on_c, 0, 42, 0
1, 192593, Note_on_c, 0, 69, 0
1, 192599, Note_on_c, 0, 40, 61
1, 192621, Note_on_c, 0, 71, 78
1, 192652, Note_on_c, 0, 40, 0
1, 192708, Note_on_c, 0, 72, 85
1, 192716, Note_on_c, 0, 71, 0
1, 192722, Note_on_c, 0, 38, 57
1, 192788, Note_on_c, 0, 38, 0
1, 192797, Note_on_c, 0, 72, 0
1, 192821, Note_on_c, 0, 69, 79
1, 192825, Note_on_c, 0, 42, 58
1, 192893, Note_on_c, 0, 42, 0
1, 192900, Note_on_c, 0, 69, 0
1, 192911, Note_on_c, 0, 45, 67
1, 192931, Note_on_c, 0, 74, 85
1, 192957, Note_on_c, 0, 45, 0
1, 192992, Note_on_c, 0, 74, 0
1, 193013, Note_on_c, 0, 50, 53
1, 193032, Note_on_c, 0, 69, 73
1, 193081, Note_on_c, 0, 50, 0
1, 193104, Note_on_c, 0, 69, 0
1, 193137, Note_on_c, 0, 71, 82
1, 193147, Note_on_c, 0, 43, 49
1, 193216, Control_c, 0, 64, 41
1, 193234, Control_c, 0, 64, 53
1, 193259, Note_on_c, 0, 67, 73
1, 193271, Control_c, 0, 64, 55
1, 193308, Control_c, 0, 67, 8
1, 193311, Note_on_c, 0, 43, 0
1, 193362, Note_on_c, 0, 67, 0
1, 193368, Note_on_c, 0, 66, 70
1, 193371, Poly_aftertouch_c, 0, 69, 0
1, 193445, Note_on_c, 0, 66, 0
1, 193454, Control_c, 0, 64, 53
1, 193469, Note_on_c, 0, 64, 68
1, 193472, Control_c, 0, 64, 51
1, 193492, Control_c, 0, 64, 48
1, 193511, Control_c, 0, 64, 44
1, 193529, Control_c, 0, 64, 40
1, 193565, Control_c, 0, 67, 14
1, 193578, Note_on_c, 0, 64, 0
1, 193584, Control_c, 0, 64, 35
1, 193586, Control_c, 0, 67, 18
1, 193586, Note_on_c, 0, 62, 62
1, 193621, Control_c, 0, 64, 29
1, 193622, Control_c, 0, 67, 24
1, 193657, Control_c, 0, 64, 24
1, 193658, Control_c, 0, 67, 33
1, 193676, Control_c, 0, 67, 44
1, 193690, Note_on_c, 0, 60, 59
1, 193695, Control_c, 0, 67, 57
1, 193714, Control_c, 0, 64, 20
1, 193715, Control_c, 0, 67, 69
1, 193732, Control_c, 0, 67, 76
1, 193753, Control_c, 0, 64, 15
1, 193754, Control_c, 0, 67, 81
1, 193755, Note_on_c, 0, 60, 0
1, 193786, Control_c, 0, 67, 90
1, 193800, Note_on_c, 0, 62, 0
1, 193803, Note_on_c, 0, 59, 54
1, 193803, Control_c, 0, 67, 99
1, 193823, Control_c, 0, 67, 108
1, 193843, Control_c, 0, 64, 11
1, 193844, Control_c, 0, 67, 115
1, 193860, Note_on_c, 0, 59, 0
1, 193878, Control_c, 0, 67, 119
1, 193893, Note_on_c, 0, 71, 0
1, 193915, Control_c, 0, 64, 0
1, 193917, Control_c, 0, 67, 127
1, 193917, Note_on_c, 0, 57, 59
1, 193976, Note_on_c, 0, 57, 0
1, 194020, Note_on_c, 0, 55, 52
1, 194059, Note_on_c, 0, 55, 0
1, 194134, Note_on_c, 0, 59, 56
1, 194192, Note_on_c, 0, 59, 0
1, 194255, Note_on_c, 0, 71, 53
1, 194258, Note_on_c, 0, 54, 51
1, 194278, Note_on_c, 0, 71, 0
1, 194304, Note_on_c, 0, 54, 0
1, 194352, Note_on_c, 0, 57, 46
1, 194423, Note_on_c, 0, 57, 0
1, 194482, Note_on_c, 0, 76, 60
1, 194485, Note_on_c, 0, 55, 53
1, 194514, Note_on_c, 0, 55, 0
1, 194533, Note_on_c, 0, 76, 0
1, 194588, Note_on_c, 0, 78, 62
1, 194637, Note_on_c, 0, 78, 0
1, 194696, Note_on_c, 0, 52, 52
1, 194701, Note_on_c, 0, 79, 55
1, 194727, Note_on_c, 0, 52, 0
1, 194785, Note_on_c, 0, 79, 0
1, 194811, Note_on_c, 0, 76, 55
1, 194864, Note_on_c, 0, 76, 0
1, 194917, Note_on_c, 0, 71, 53
1, 194935, Note_on_c, 0, 55, 30
1, 194975, Note_on_c, 0, 71, 0
1, 194983, Note_on_c, 0, 55, 0
1, 195025, Note_on_c, 0, 76, 53
1, 195142, Note_on_c, 0, 78, 59
1, 195152, Note_on_c, 0, 52, 45
1, 195158, Note_on_c, 0, 76, 0
1, 195192, Note_on_c, 0, 52, 0
1, 195219, Note_on_c, 0, 78, 0
1, 195243, Note_on_c, 0, 79, 57
1, 195293, Note_on_c, 0, 79, 0
1, 195336, Note_on_c, 0, 59, 58
1, 195361, Note_on_c, 0, 75, 63
1, 195373, Note_on_c, 0, 59, 0
1, 195403, Note_on_c, 0, 75, 0
1, 195454, Note_on_c, 0, 81, 66
1, 195554, Note_on_c, 0, 79, 68
1, 195562, Note_on_c, 0, 81, 0
1, 195567, Note_on_c, 0, 47, 43
1, 195605, Note_on_c, 0, 47, 0
1, 195628, Note_on_c, 0, 79, 0
1, 195647, Note_on_c, 0, 78, 70
1, 195750, Note_on_c, 0, 79, 78
1, 195755, Note_on_c, 0, 78, 0
1, 195762, Note_on_c, 0, 52, 70
1, 195796, Note_on_c, 0, 79, 0
1, 195837, Note_on_c, 0, 52, 0
1, 195867, Note_on_c, 0, 54, 81
1, 195936, Note_on_c, 0, 54, 0
1, 195985, Note_on_c, 0, 55, 65
1, 195991, Note_on_c, 0, 76, 83
1, 196034, Note_on_c, 0, 76, 0
1, 196069, Note_on_c, 0, 55, 0
1, 196107, Note_on_c, 0, 52, 64
1, 196186, Note_on_c, 0, 52, 0
1, 196205, Note_on_c, 0, 79, 78
1, 196215, Note_on_c, 0, 49, 51
1, 196238, Note_on_c, 0, 79, 0
1, 196255, Note_on_c, 0, 49, 0
1, 196301, Note_on_c, 0, 55, 53
1, 196381, Note_on_c, 0, 55, 0
1, 196403, Note_on_c, 0, 47, 63
1, 196414, Note_on_c, 0, 74, 78
1, 196446, Note_on_c, 0, 74, 0
1, 196461, Note_on_c, 0, 47, 0
1, 196534, Note_on_c, 0, 55, 49
1, 196591, Note_on_c, 0, 55, 0
1, 196629, Note_on_c, 0, 73, 71
1, 196635, Note_on_c, 0, 45, 60
1, 196661, Note_on_c, 0, 73, 0
1, 196675, Note_on_c, 0, 45, 0
1, 196758, Note_on_c, 0, 55, 46
1, 196835, Note_on_c, 0, 55, 0
1, 196847, Note_on_c, 0, 81, 79
1, 196850, Note_on_c, 0, 54, 60
1, 196892, Note_on_c, 0, 81, 0
1, 196926, Note_on_c, 0, 54, 0
1, 196979, Note_on_c, 0, 52, 65
1, 197035, Note_on_c, 0, 52, 0
1, 197075, Note_on_c, 0, 54, 75
1, 197084, Note_on_c, 0, 74, 81
1, 197102, Note_on_c, 0, 54, 0
1, 197140, Note_on_c, 0, 74, 0
1, 197191, Note_on_c, 0, 76, 80
1, 197270, Note_on_c, 0, 76, 0
1, 197286, Note_on_c, 0, 50, 66
1, 197298, Note_on_c, 0, 78, 80
1, 197317, Note_on_c, 0, 50, 0
1, 197407, Note_on_c, 0, 74, 74
1, 197432, Note_on_c, 0, 78, 0
1, 197470, Note_on_c, 0, 74, 0
1, 197506, Note_on_c, 0, 54, 75
1, 197521, Note_on_c, 0, 69, 68
1, 197540, Note_on_c, 0, 54, 0
1, 197557, Note_on_c, 0, 69, 0
1, 197614, Note_on_c, 0, 72, 74
1, 197676, Note_on_c, 0, 72, 0
1, 197717, Note_on_c, 0, 50, 64
1, 197725, Note_on_c, 0, 71, 70
1, 197752, Note_on_c, 0, 50, 0
1, 197773, Note_on_c, 0, 71, 0
1, 197852, Note_on_c, 0, 69, 64
1, 197896, Note_on_c, 0, 69, 0
1, 197944, Note_on_c, 0, 55, 69
1, 197956, Note_on_c, 0, 71, 75
1, 197987, Note_on_c, 0, 55, 0
1, 198031, Note_on_c, 0, 71, 0
1, 198061, Note_on_c, 0, 76, 72
1, 198136, Note_on_c, 0, 76, 0
1, 198152, Note_on_c, 0, 78, 74
1, 198153, Note_on_c, 0, 52, 59
1, 198184, Note_on_c, 0, 52, 0
1, 198240, Note_on_c, 0, 78, 0
1, 198248, Note_on_c, 0, 79, 70
1, 198281, Note_on_c, 0, 79, 0
1, 198384, Note_on_c, 0, 74, 71
1, 198385, Note_on_c, 0, 57, 78
1, 198422, Note_on_c, 0, 74, 0
1, 198430, Note_on_c, 0, 73, 74
1, 198477, Note_on_c, 0, 73, 0
1, 198500, Poly_aftertouch_c, 0, 74, 127
1, 198544, Poly_aftertouch_c, 0, 74, 0
1, 198544, Note_on_c, 0, 73, 77
1, 198562, Note_on_c, 0, 57, 0
1, 198586, Note_on_c, 0, 55, 69
1, 198609, Note_on_c, 0, 69, 72
1, 198617, Note_on_c, 0, 73, 0
1, 198700, Note_on_c, 0, 54, 75
1, 198702, Note_on_c, 0, 55, 0
1, 198766, Note_on_c, 0, 54, 0
1, 198813, Note_on_c, 0, 52, 73
1, 198836, Note_on_c, 0, 69, 0
1, 198904, Control_c, 0, 67, 120
1, 198915, Note_on_c, 0, 52, 0
1, 198921, Control_c, 0, 67, 105
1, 198934, Note_on_c, 0, 50, 65
1, 198939, Control_c, 0, 67, 81
1, 198958, Control_c, 0, 67, 51
1, 198976, Control_c, 0, 67, 17
1, 198995, Control_c, 0, 67, 0
1, 199010, Note_on_c, 0, 50, 0
1, 199036, Note_on_c, 0, 49, 67
1, 199068, Note_on_c, 0, 69, 70
1, 199081, Note_on_c, 0, 49, 0
1, 199134, Note_on_c, 0, 69, 0
1, 199159, Note_on_c, 0, 47, 59
1, 199171, Note_on_c, 0, 71, 75
1, 199205, Note_on_c, 0, 47, 0
1, 199258, Note_on_c, 0, 45, 60
1, 199259, Note_on_c, 0, 71, 0
1, 199280, Note_on_c, 0, 73, 74
1, 199312, Note_on_c, 0, 45, 0
1, 199356, Note_on_c, 0, 73, 0
1, 199377, Note_on_c, 0, 74, 77
1, 199381, Note_on_c, 0, 52, 56
1, 199436, Note_on_c, 0, 74, 0
1, 199445, Note_on_c, 0, 52, 0
1, 199465, Note_on_c, 0, 43, 61
1, 199481, Note_on_c, 0, 76, 70
1, 199514, Note_on_c, 0, 43, 0
1, 199559, Note_on_c, 0, 76, 0
1, 199568, Note_on_c, 0, 52, 49
1, 199592, Note_on_c, 0, 73, 72
1, 199640, Note_on_c, 0, 52, 0
1, 199685, Note_on_c, 0, 42, 72
1, 199689, Note_on_c, 0, 74, 82
1, 199691, Note_on_c, 0, 73, 0
1, 199735, Note_on_c, 0, 42, 0
1, 199792, Note_on_c, 0, 74, 0
1, 199811, Note_on_c, 0, 76, 71
1, 199876, Note_on_c, 0, 76, 0
1, 199914, Note_on_c, 0, 40, 62
1, 199927, Note_on_c, 0, 69, 62
1, 199950, Note_on_c, 0, 40, 0
1, 199982, Note_on_c, 0, 69, 0
1, 200028, Note_on_c, 0, 73, 63
1, 200124, Note_on_c, 0, 73, 0
1, 200128, Note_on_c, 0, 74, 70
1, 200135, Note_on_c, 0, 42, 54
1, 200175, Note_on_c, 0, 42, 0
1, 200206, Note_on_c, 0, 74, 0
1, 200237, Note_on_c, 0, 76, 63
1, 200294, Note_on_c, 0, 76, 0
1, 200332, Note_on_c, 0, 45, 62
1, 200345, Note_on_c, 0, 69, 64
1, 200368, Note_on_c, 0, 45, 0
1, 200390, Note_on_c, 0, 69, 0
1, 200446, Note_on_c, 0, 74, 64
1, 200518, Note_on_c, 0, 74, 0
1, 200554, Note_on_c, 0, 66, 63
1, 200564, Note_on_c, 0, 50, 52
1, 200596, Note_on_c, 0, 50, 0
1, 200639, Note_on_c, 0, 66, 0
1, 200672, Note_on_c, 0, 74, 66
1, 200724, Note_on_c, 0, 74, 0
1, 200764, Note_on_c, 0, 42, 65
1, 200783, Note_on_c, 0, 69, 66
1, 200802, Note_on_c, 0, 42, 0
1, 200855, Note_on_c, 0, 69, 0
1, 200879, Note_on_c, 0, 76, 65
1, 200985, Note_on_c, 0, 43, 83
1, 200989, Note_on_c, 0, 74, 79
1, 201001, Note_on_c, 0, 76, 0
1, 201027, Note_on_c, 0, 43, 0
1, 201098, Note_on_c, 0, 74, 0
1, 201106, Note_on_c, 0, 76, 69
1, 201188, Note_on_c, 0, 76, 0
1, 201196, Note_on_c, 0, 45, 78
1, 201209, Note_on_c, 0, 71, 72
1, 201227, Note_on_c, 0, 45, 0
1, 201314, Note_on_c, 0, 73, 75
1, 201323, Note_on_c, 0, 71, 0
1, 201412, Note_on_c, 0, 74, 78
1, 201415, Note_on_c, 0, 47, 70
1, 201419, Note_on_c, 0, 73, 0
1, 201447, Note_on_c, 0, 47, 0
1, 201505, Note_on_c, 0, 74, 0
1, 201520, Note_on_c, 0, 76, 73
1, 201611, Note_on_c, 0, 76, 0
1, 201641, Note_on_c, 0, 43, 62
1, 201645, Note_on_c, 0, 71, 67
1, 201675, Note_on_c, 0, 43, 0
1, 201705, Note_on_c, 0, 71, 0
1, 201753, Note_on_c, 0, 74, 64
1, 201826, Note_on_c, 0, 74, 0
1, 201858, Note_on_c, 0, 40, 66
1, 201866, Note_on_c, 0, 67, 64
1, 201893, Note_on_c, 0, 40, 0
1, 201923, Note_on_c, 0, 67, 0
1, 201970, Note_on_c, 0, 74, 64
1, 202033, Note_on_c, 0, 74, 0
1, 202068, Note_on_c, 0, 43, 63
1, 202078, Note_on_c, 0, 71, 65
1, 202107, Note_on_c, 0, 43, 0
1, 202136, Note_on_c, 0, 71, 0
1, 202184, Note_on_c, 0, 74, 67
1, 202283, Note_on_c, 0, 45, 70
1, 202292, Note_on_c, 0, 74, 0
1, 202300, Note_on_c, 0, 73, 80
1, 202320, Note_on_c, 0, 45, 0
1, 202409, Note_on_c, 0, 74, 78
1, 202410, Note_on_c, 0, 73, 0
1, 202494, Note_on_c, 0, 47, 74
1, 202500, Note_on_c, 0, 76, 80
1, 202506, Note_on_c, 0, 74, 0
1, 202541, Note_on_c, 0, 47, 0
1, 202617, Note_on_c, 0, 73, 77
1, 202647, Note_on_c, 0, 76, 0
1, 202686, Note_on_c, 0, 73, 0
1, 202720, Note_on_c, 0, 67, 80
1, 202724, Note_on_c, 0, 49, 76
1, 202760, Note_on_c, 0, 49, 0
1, 202821, Note_on_c, 0, 67, 0
1, 202822, Note_on_c, 0, 71, 78
1, 202930, Note_on_c, 0, 71, 0
1, 202930, Note_on_c, 0, 69, 81
1, 202936, Note_on_c, 0, 50, 77
1, 202967, Note_on_c, 0, 50, 0
1, 203004, Note_on_c, 0, 69, 0
1, 203035, Note_on_c, 0, 67, 74
1, 203151, Note_on_c, 0, 45, 76
1, 203152, Note_on_c, 0, 66, 82
1, 203168, Note_on_c, 0, 67, 0
1, 203264, Note_on_c, 0, 74, 78
1, 203268, Note_on_c, 0, 66, 0
1, 203378, Note_on_c, 0, 55, 72
1, 203379, Note_on_c, 0, 74, 0
1, 203380, Note_on_c, 0, 64, 77
1, 203412, Note_on_c, 0, 55, 0
1, 203477, Note_on_c, 0, 64, 0
1, 203494, Note_on_c, 0, 73, 80
1, 203612, Note_on_c, 0, 74, 84
1, 203628, Note_on_c, 0, 73, 0
1, 203628, Note_on_c, 0, 54, 69
1, 203666, Note_on_c, 0, 45, 0
1, 203849, Note_on_c, 0, 54, 0
1, 203849, Note_on_c, 0, 50, 70
1, 203854, Note_on_c, 0, 73, 80
1, 203884, Note_on_c, 0, 74, 0
1, 203957, Note_on_c, 0, 71, 80
1, 204017, Note_on_c, 0, 73, 0
1, 204060, Note_on_c, 0, 69, 81
1, 204065, Note_on_c, 0, 54, 67
1, 204066, Note_on_c, 0, 71, 0
1, 204108, Note_on_c, 0, 54, 0
1, 204137, Note_on_c, 0, 69, 0
1, 204166, Note_on_c, 0, 67, 74
1, 204235, Note_on_c, 0, 67, 0
1, 204286, Note_on_c, 0, 57, 67
1, 204289, Note_on_c, 0, 66, 74
1, 204317, Note_on_c, 0, 57, 0
1, 204365, Note_on_c, 0, 66, 0
1, 204407, Note_on_c, 0, 64, 73
1, 204454, Note_on_c, 0, 64, 0
1, 204526, Note_on_c, 0, 62, 80
1, 204571, Control_c, 0, 64, 46
1, 204590, Control_c, 0, 64, 83
1, 204604, Note_on_c, 0, 50, 0
1, 204609, Control_c, 0, 64, 96
1, 204623, Note_on_c, 0, 62, 0
1, 204628, Control_c, 0, 64, 104
1, 204682, Control_c, 0, 64, 111
1, 204701, Control_c, 0, 64, 117
1, 204717, Control_c, 0, 64, 124
1, 204774, Control_c, 0, 67, 8
1, 204918, Note_on_c, 0, 78, 83
1, 204952, Note_on_c, 0, 78, 0
1, 204994, Control_c, 0, 64, 67
1, 205014, Control_c, 0, 64, 0
1, 205021, Note_on_c, 0, 78, 93
1, 205032, Note_on_c, 0, 74, 77
1, 205038, Note_on_c, 0, 62, 77
1, 205045, Note_on_c, 0, 69, 67
1, 205106, Control_c, 0, 64, 25
1, 205124, Control_c, 0, 64, 60
1, 205141, Control_c, 0, 64, 78
1, 205161, Control_c, 0, 64, 94
1, 205178, Control_c, 0, 64, 107
1, 205195, Note_on_c, 0, 69, 0
1, 205196, Control_c, 0, 64, 113
1, 205234, Control_c, 0, 64, 120
1, 205244, Note_on_c, 0, 74, 0
1, 205271, Control_c, 0, 64, 125
1, 205292, Note_on_c, 0, 60, 80
1, 205309, Note_on_c, 0, 62, 0
1, 205377, Control_c, 0, 64, 121
1, 205397, Control_c, 0, 64, 91
1, 205403, Note_on_c, 0, 59, 80
1, 205409, Note_on_c, 0, 60, 0
1, 205415, Control_c, 0, 64, 0
1, 205463, Note_on_c, 0, 59, 0
1, 205503, Note_on_c, 0, 57, 74
1, 205599, Note_on_c, 0, 57, 0
1, 205612, Note_on_c, 0, 55, 76
1, 205702, Note_on_c, 0, 55, 0
1, 205709, Note_on_c, 0, 78, 0
1, 205718, Note_on_c, 0, 74, 90
1, 205720, Note_on_c, 0, 54, 74
1, 205771, Note_on_c, 0, 54, 0
1, 205828, Note_on_c, 0, 76, 89
1, 205832, Note_on_c, 0, 52, 69
1, 205842, Note_on_c, 0, 74, 0
1, 205879, Note_on_c, 0, 52, 0
1, 205925, Note_on_c, 0, 50, 66
1, 205929, Note_on_c, 0, 78, 91
1, 205946, Note_on_c, 0, 76, 0
1, 205979, Note_on_c, 0, 50, 0
1, 206029, Note_on_c, 0, 78, 0
1, 206035, Note_on_c, 0, 79, 87
1, 206038, Note_on_c, 0, 57, 67
1, 206084, Note_on_c, 0, 57, 0
1, 206096, Note_on_c, 0, 79, 0
1, 206133, Note_on_c, 0, 48, 66
1, 206136, Note_on_c, 0, 81, 85
1, 206180, Note_on_c, 0, 48, 0
1, 206230, Note_on_c, 0, 81, 0
1, 206234, Note_on_c, 0, 57, 60
1, 206235, Note_on_c, 0, 78, 84
1, 206340, Note_on_c, 0, 57, 0
1, 206354, Note_on_c, 0, 79, 87
1, 206357, Note_on_c, 0, 47, 77
1, 206364, Note_on_c, 0, 78, 0
1, 206387, Note_on_c, 0, 47, 0
1, 206581, Note_on_c, 0, 50, 62
1, 206587, Note_on_c, 0, 78, 80
1, 206592, Note_on_c, 0, 79, 0
1, 206621, Note_on_c, 0, 50, 0
1, 206626, Control_c, 0, 67, 0
1, 206664, Note_on_c, 0, 78, 0
1, 206685, Note_on_c, 0, 76, 77
1, 206752, Note_on_c, 0, 76, 0
1, 206789, Note_on_c, 0, 55, 64
1, 206794, Note_on_c, 0, 74, 81
1, 206824, Note_on_c, 0, 55, 0
1, 206895, Note_on_c, 0, 74, 0
1, 206896, Note_on_c, 0, 72, 78
1, 206967, Note_on_c, 0, 72, 0
1, 206993, Note_on_c, 0, 57, 63
1, 207000, Note_on_c, 0, 71, 72
1, 207028, Note_on_c, 0, 57, 0
1, 207057, Note_on_c, 0, 71, 0
1, 207107, Note_on_c, 0, 69, 72
1, 207169, Note_on_c, 0, 69, 0
1, 207230, Note_on_c, 0, 67, 69
1, 207243, Note_on_c, 0, 59, 44
1, 207282, Note_on_c, 0, 59, 0
1, 207323, Note_on_c, 0, 67, 0
1, 207341, Note_on_c, 0, 71, 68
1, 207437, Note_on_c, 0, 71, 0
1, 207439, Note_on_c, 0, 74, 75
1, 207451, Note_on_c, 0, 55, 27
1, 207505, Note_on_c, 0, 55, 0
1, 207524, Note_on_c, 0, 74, 0
1, 207545, Note_on_c, 0, 77, 70
1, 207648, Note_on_c, 0, 76, 80
1, 207650, Note_on_c, 0, 60, 56
1, 207676, Note_on_c, 0, 77, 0
1, 207685, Note_on_c, 0, 60, 0
1, 207742, Note_on_c, 0, 76, 0
1, 207745, Note_on_c, 0, 74, 79
1, 207824, Note_on_c, 0, 74, 0
1, 207850, Note_on_c, 0, 72, 71
1, 207857, Note_on_c, 0, 64, 58
1, 207889, Note_on_c, 0, 64, 0
1, 207907, Note_on_c, 0, 72, 0
1, 207965, Note_on_c, 0, 71, 65
1, 208010, Note_on_c, 0, 71, 0
1, 208066, Note_on_c, 0, 60, 59
1, 208067, Note_on_c, 0, 69, 70
1, 208099, Note_on_c, 0, 60, 0
1, 208106, Note_on_c, 0, 69, 0
1, 208191, Note_on_c, 0, 78, 80
1, 208283, Note_on_c, 0, 59, 72
1, 208289, Note_on_c, 0, 79, 85
1, 208309, Note_on_c, 0, 78, 0
1, 208316, Note_on_c, 0, 59, 0
1, 208386, Note_on_c, 0, 79, 0
1, 208405, Note_on_c, 0, 81, 82
1, 208507, Note_on_c, 0, 79, 87
1, 208528, Note_on_c, 0, 60, 38
1, 208541, Note_on_c, 0, 60, 0
1, 208544, Note_on_c, 0, 81, 0
1, 208605, Note_on_c, 0, 79, 0
1, 208611, Note_on_c, 0, 78, 86
1, 208692, Note_on_c, 0, 57, 70
1, 208710, Note_on_c, 0, 79, 83
1, 208712, Note_on_c, 0, 78, 0
1, 208725, Note_on_c, 0, 57, 0
1, 208767, Note_on_c, 0, 79, 0
1, 208811, Note_on_c, 0, 76, 68
1, 208841, Note_on_c, 0, 76, 0
1, 208900, Note_on_c, 0, 76, 76
1, 208905, Note_on_c, 0, 59, 82
1, 208928, Note_on_c, 0, 76, 0
1, 208942, Note_on_c, 0, 75, 71
1, 208972, Note_on_c, 0, 75, 0
1, 208995, Note_on_c, 0, 76, 82
1, 209079, Note_on_c, 0, 75, 78
1, 209091, Note_on_c, 0, 76, 0
1, 209139, Note_on_c, 0, 59, 0
1, 209146, Note_on_c, 0, 71, 72
1, 209154, Note_on_c, 0, 57, 75
1, 209182, Note_on_c, 0, 75, 0
1, 209264, Note_on_c, 0, 55, 83
1, 209280, Note_on_c, 0, 57, 0
1, 209280, Note_on_c, 0, 71, 0
1, 209375, Note_on_c, 0, 54, 80
1, 209383, Note_on_c, 0, 55, 0
1, 209429, Note_on_c, 0, 54, 0
1, 209477, Note_on_c, 0, 52, 70
1, 209567, Note_on_c, 0, 52, 0
1, 209591, Note_on_c, 0, 51, 67
1, 209610, Note_on_c, 0, 83, 91
1, 209688, Note_on_c, 0, 51, 0
1, 209700, Note_on_c, 0, 49, 75
1, 209712, Note_on_c, 0, 81, 86
1, 209767, Note_on_c, 0, 83, 0
1, 209791, Note_on_c, 0, 49, 0
1, 209796, Note_on_c, 0, 47, 71
1, 209818, Note_on_c, 0, 79, 87
1, 209881, Note_on_c, 0, 47, 0
1, 209893, Note_on_c, 0, 81, 0
1, 209901, Note_on_c, 0, 54, 71
1, 209917, Note_on_c, 0, 78, 89
1, 209937, Note_on_c, 0, 79, 0
1, 209983, Note_on_c, 0, 54, 0
1, 210022, Note_on_c, 0, 78, 0
1, 210032, Note_on_c, 0, 45, 64
1, 210032, Note_on_c, 0, 76, 84
1, 210074, Note_on_c, 0, 45, 0
1, 210107, Note_on_c, 0, 76, 0
1, 210113, Note_on_c, 0, 54, 63
1, 210134, Note_on_c, 0, 75, 84
1, 210159, Note_on_c, 0, 54, 0
1, 210223, Note_on_c, 0, 43, 71
1, 210229, Note_on_c, 0, 75, 0
1, 210232, Note_on_c, 0, 76, 86
1, 210272, Note_on_c, 0, 43, 0
1, 210274, Note_on_c, 0, 76, 0
1, 210348, Note_on_c, 0, 45, 65
1, 210410, Note_on_c, 0, 45, 0
1, 210449, Note_on_c, 0, 78, 88
1, 210457, Note_on_c, 0, 42, 57
1, 210519, Note_on_c, 0, 42, 0
1, 210545, Note_on_c, 0, 75, 85
1, 210553, Note_on_c, 0, 45, 57
1, 210594, Note_on_c, 0, 78, 0
1, 210638, Note_on_c, 0, 45, 0
1, 210655, Note_on_c, 0, 76, 80
1, 210658, Note_on_c, 0, 75, 0
1, 210666, Note_on_c, 0, 43, 60
1, 210699, Note_on_c, 0, 76, 0
1, 210728, Note_on_c, 0, 43, 0
1, 210763, Note_on_c, 0, 45, 57
1, 210823, Note_on_c, 0, 45, 0
1, 210869, Note_on_c, 0, 42, 52
1, 210874, Note_on_c, 0, 78, 84
1, 210920, Note_on_c, 0, 42, 0
1, 210973, Note_on_c, 0, 45, 49
1, 210988, Note_on_c, 0, 75, 81
1, 210999, Note_on_c, 0, 78, 0
1, 211010, Control_c, 0, 67, 8
1, 211034, Note_on_c, 0, 45, 0
1, 211083, Note_on_c, 0, 43, 49
1, 211091, Note_on_c, 0, 76, 80
1, 211098, Note_on_c, 0, 75, 0
1, 211127, Note_on_c, 0, 43, 0
1, 211158, Control_c, 0, 67, 12
1, 211186, Note_on_c, 0, 47, 51
1, 211194, Control_c, 0, 67, 17
1, 211231, Control_c, 0, 67, 23
1, 211267, Control_c, 0, 67, 28
1, 211276, Note_on_c, 0, 47, 0
1, 211304, Control_c, 0, 67, 35
1, 211319, Note_on_c, 0, 40, 55
1, 211320, Note_on_c, 0, 71, 63
1, 211322, Control_c, 0, 67, 40
1, 211341, Control_c, 0, 67, 45
1, 211352, Note_on_c, 0, 71, 0
1, 211359, Control_c, 0, 67, 51
1, 211378, Control_c, 0, 67, 56
1, 211398, Control_c, 0, 67, 61
1, 211412, Note_on_c, 0, 40, 0
1, 211414, Control_c, 0, 67, 68
1, 211433, Control_c, 0, 67, 76
1, 211442, Note_on_c, 0, 43, 39
1, 211452, Control_c, 0, 67, 86
1, 211470, Control_c, 0, 67, 94
1, 211488, Control_c, 0, 67, 101
1, 211505, Control_c, 0, 67, 106
1, 211507, Note_on_c, 0, 43, 0
1, 211524, Control_c, 0, 67, 115
1, 211545, Control_c, 0, 67, 123
1, 211554, Note_on_c, 0, 45, 47
1, 211557, Note_on_c, 0, 72, 57
1, 211563, Control_c, 0, 67, 127
1, 211581, Note_on_c, 0, 72, 0
1, 211617, Note_on_c, 0, 45, 0
1, 211662, Note_on_c, 0, 47, 43
1, 211747, Note_on_c, 0, 47, 0
1, 211780, Note_on_c, 0, 74, 61
1, 211783, Note_on_c, 0, 43, 43
1, 211836, Note_on_c, 0, 43, 0
1, 211840, Note_on_c, 0, 74, 0
1, 211891, Note_on_c, 0, 71, 61
1, 211900, Note_on_c, 0, 47, 48
1, 211944, Note_on_c, 0, 71, 0
1, 211965, Note_on_c, 0, 47, 0
1, 212006, Note_on_c, 0, 72, 51
1, 212021, Note_on_c, 0, 45, 43
1, 212036, Note_on_c, 0, 72, 0
1, 212077, Note_on_c, 0, 45, 0
1, 212107, Note_on_c, 0, 47, 40
1, 212174, Note_on_c, 0, 47, 0
1, 212203, Note_on_c, 0, 74, 64
1, 212219, Note_on_c, 0, 43, 44
1, 212262, Note_on_c, 0, 74, 0
1, 212271, Note_on_c, 0, 43, 0
1, 212305, Note_on_c, 0, 47, 49
1, 212317, Note_on_c, 0, 71, 59
1, 212369, Note_on_c, 0, 47, 0
1, 212370, Note_on_c, 0, 71, 0
1, 212414, Note_on_c, 0, 45, 51
1, 212419, Note_on_c, 0, 76, 0
1, 212422, Note_on_c, 0, 72, 59
1, 212445, Note_on_c, 0, 72, 0
1, 212465, Note_on_c, 0, 45, 0
1, 212513, Note_on_c, 0, 48, 39
1, 212591, Note_on_c, 0, 48, 0
1, 212628, Note_on_c, 0, 81, 82
1, 212633, Note_on_c, 0, 72, 66
1, 212638, Note_on_c, 0, 42, 56
1, 212656, Note_on_c, 0, 81, 0
1, 212662, Note_on_c, 0, 72, 0
1, 212716, Note_on_c, 0, 42, 0
1, 212745, Note_on_c, 0, 45, 56
1, 212841, Note_on_c, 0, 45, 0
1, 212860, Note_on_c, 0, 79, 75
1, 212871, Note_on_c, 0, 71, 61
1, 212882, Note_on_c, 0, 47, 48
1, 212889, Note_on_c, 0, 79, 0
1, 212895, Note_on_c, 0, 71, 0
1, 213065, Note_on_c, 0, 47, 0
1, 213095, Note_on_c, 0, 78, 86
1, 213104, Note_on_c, 0, 49, 61
1, 213107, Note_on_c, 0, 69, 69
1, 213158, Note_on_c, 0, 69, 0
1, 213190, Note_on_c, 0, 49, 0
1, 213204, Note_on_c, 0, 51, 68
1, 213268, Note_on_c, 0, 51, 0
1, 213304, Control_c, 0, 67, 120
1, 213311, Note_on_c, 0, 78, 0
1, 213315, Note_on_c, 0, 52, 60
1, 213318, Note_on_c, 0, 67, 68
1, 213324, Control_c, 0, 67, 109
1, 213342, Control_c, 0, 67, 94
1, 213359, Control_c, 0, 67, 72
1, 213377, Control_c, 0, 67, 46
1, 213396, Control_c, 0, 67, 20
1, 213414, Note_on_c, 0, 52, 0
1, 213414, Control_c, 0, 67, 0
1, 213431, Note_on_c, 0, 54, 57
1, 213523, Note_on_c, 0, 55, 61
1, 213532, Note_on_c, 0, 54, 0
1, 213545, Note_on_c, 0, 76, 76
1, 213562, Note_on_c, 0, 67, 0
1, 213601, Note_on_c, 0, 55, 0
1, 213642, Note_on_c, 0, 57, 66
1, 213690, Note_on_c, 0, 57, 0
1, 213770, Note_on_c, 0, 66, 68
1, 213774, Note_on_c, 0, 59, 58
1, 213781, Note_on_c, 0, 76, 0
1, 213802, Note_on_c, 0, 59, 0
1, 213869, Note_on_c, 0, 69, 68
1, 213872, Note_on_c, 0, 66, 0
1, 213975, Note_on_c, 0, 69, 0
1, 213985, Note_on_c, 0, 76, 72
1, 213990, Note_on_c, 0, 47, 48
1, 214029, Note_on_c, 0, 47, 0
1, 214080, Note_on_c, 0, 75, 80
1, 214088, Note_on_c, 0, 76, 0
1, 214180, Note_on_c, 0, 52, 57
1, 214195, Note_on_c, 0, 76, 85
1, 214206, Note_on_c, 0, 75, 0
1, 214384, Note_on_c, 0, 52, 0
1, 214424, Note_on_c, 0, 72, 76
1, 214425, Note_on_c, 0, 54, 64
1, 214469, Note_on_c, 0, 72, 0
1, 214471, Note_on_c, 0, 54, 0
1, 214527, Note_on_c, 0, 55, 54
1, 214570, Note_on_c, 0, 55, 0
1, 214631, Note_on_c, 0, 57, 67
1, 214643, Note_on_c, 0, 71, 75
1, 214697, Note_on_c, 0, 71, 0
1, 214699, Note_on_c, 0, 57, 0
1, 214756, Note_on_c, 0, 59, 66
1, 214825, Note_on_c, 0, 59, 0
1, 214856, Note_on_c, 0, 69, 74
1, 214859, Note_on_c, 0, 61, 69
1, 214896, Note_on_c, 0, 69, 0
1, 214924, Note_on_c, 0, 76, 0
1, 214932, Note_on_c, 0, 61, 0
1, 214966, Note_on_c, 0, 63, 71
1, 215033, Note_on_c, 0, 63, 0
1, 215070, Note_on_c, 0, 64, 65
1, 215072, Note_on_c, 0, 67, 71
1, 215110, Note_on_c, 0, 67, 0
1, 215143, Note_on_c, 0, 64, 0
1, 215188, Note_on_c, 0, 61, 59
1, 215241, Note_on_c, 0, 61, 0
1, 215286, Note_on_c, 0, 62, 62
1, 215290, Note_on_c, 0, 76, 77
1, 215323, Note_on_c, 0, 76, 0
1, 215360, Note_on_c, 0, 62, 0
1, 215398, Note_on_c, 0, 59, 49
1, 215496, Note_on_c, 0, 59, 0
1, 215523, Note_on_c, 0, 61, 60
1, 215526, Note_on_c, 0, 69, 65
1, 215594, Note_on_c, 0, 61, 0
1, 215644, Note_on_c, 0, 62, 62
1, 215700, Note_on_c, 0, 62, 0
1, 215743, Note_on_c, 0, 69, 0
1, 215758, Note_on_c, 0, 71, 68
1, 215770, Note_on_c, 0, 61, 54
1, 215810, Note_on_c, 0, 61, 0
1, 215868, Note_on_c, 0, 59, 56
1, 215872, Note_on_c, 0, 73, 69
1, 215874, Note_on_c, 0, 71, 0
1, 215926, Note_on_c, 0, 59, 0
1, 215934, Note_on_c, 0, 73, 0
1, 215972, Note_on_c, 0, 74, 80
1, 215976, Note_on_c, 0, 57, 61
1, 216031, Note_on_c, 0, 57, 0
1, 216073, Note_on_c, 0, 74, 0
1, 216075, Note_on_c, 0, 55, 69
1, 216080, Note_on_c, 0, 76, 83
1, 216143, Note_on_c, 0, 55, 0
1, 216182, Note_on_c, 0, 78, 84
1, 216185, Note_on_c, 0, 54, 63
1, 216190, Note_on_c, 0, 76, 0
1, 216260, Note_on_c, 0, 54, 0
1, 216274, Note_on_c, 0, 78, 0
1, 216289, Note_on_c, 0, 79, 83
1, 216301, Note_on_c, 0, 52, 48
1, 216374, Note_on_c, 0, 52, 0
1, 216393, Note_on_c, 0, 54, 66
1, 216397, Note_on_c, 0, 81, 81
1, 216400, Note_on_c, 0, 79, 0
1, 216438, Note_on_c, 0, 54, 0
1, 216493, Note_on_c, 0, 62, 60
1, 216497, Note_on_c, 0, 81, 0
1, 216498, Note_on_c, 0, 78, 82
1, 216553, Note_on_c, 0, 62, 0
1, 216620, Note_on_c, 0, 52, 51
1, 216620, Note_on_c, 0, 79, 76
1, 216645, Note_on_c, 0, 78, 0
1, 216673, Note_on_c, 0, 79, 0
1, 216677, Note_on_c, 0, 52, 0
1, 216708, Note_on_c, 0, 76, 73
1, 216729, Note_on_c, 0, 61, 60
1, 216792, Note_on_c, 0, 61, 0
1, 216795, Note_on_c, 0, 76, 0
1, 216824, Note_on_c, 0, 78, 71
1, 216825, Note_on_c, 0, 62, 66
1, 216860, Note_on_c, 0, 62, 0
1, 216912, Note_on_c, 0, 78, 0
1, 216933, Note_on_c, 0, 79, 66
1, 217039, Note_on_c, 0, 78, 74
1, 217041, Note_on_c, 0, 79, 0
1, 217050, Note_on_c, 0, 50, 56
1, 217143, Note_on_c, 0, 76, 72
1, 217148, Note_on_c, 0, 78, 0
1, 217148, Note_on_c, 0, 52, 68
1, 217169, Note_on_c, 0, 50, 0
1, 217219, Note_on_c, 0, 76, 0
1, 217245, Note_on_c, 0, 54, 79
1, 217252, Note_on_c, 0, 74, 74
1, 217253, Note_on_c, 0, 52, 0
1, 217352, Note_on_c, 0, 54, 0
1, 217352, Note_on_c, 0, 76, 76
1, 217355, Note_on_c, 0, 74, 0
1, 217356, Note_on_c, 0, 55, 84
1, 217418, Note_on_c, 0, 55, 0
1, 217459, Note_on_c, 0, 57, 70
1, 217460, Note_on_c, 0, 78, 81
1, 217473, Note_on_c, 0, 76, 0
1, 217547, Note_on_c, 0, 78, 0
1, 217572, Note_on_c, 0, 57, 0
1, 217574, Note_on_c, 0, 59, 81
1, 217576, Note_on_c, 0, 79, 84
1, 217665, Note_on_c, 0, 59, 0
1, 217677, Note_on_c, 0, 81, 87
1, 217679, Note_on_c, 0, 60, 84
1, 217692, Note_on_c, 0, 79, 0
1, 217743, Note_on_c, 0, 60, 0
1, 217775, Note_on_c, 0, 62, 74
1, 217784, Note_on_c, 0, 83, 88
1, 217800, Note_on_c, 0, 81, 0
1, 217860, Note_on_c, 0, 83, 0
1, 217864, Note_on_c, 0, 62, 0
1, 217878, Note_on_c, 0, 64, 77
1, 217884, Note_on_c, 0, 84, 86
1, 217956, Note_on_c, 0, 64, 0
1, 217985, Note_on_c, 0, 84, 0
1, 217989, Note_on_c, 0, 81, 83
1, 217994, Note_on_c, 0, 66, 79
1, 218052, Note_on_c, 0, 81, 0
1, 218059, Note_on_c, 0, 66, 0
1, 218089, Note_on_c, 0, 67, 79
1, 218094, Note_on_c, 0, 83, 86
1, 218118, Note_on_c, 0, 67, 0
1, 218183, Note_on_c, 0, 83, 0
1, 218203, Note_on_c, 0, 78, 83
1, 218288, Note_on_c, 0, 78, 0
1, 218294, Note_on_c, 0, 59, 76
1, 218307, Note_on_c, 0, 79, 82
1, 218329, Note_on_c, 0, 59, 0
1, 218379, Note_on_c, 0, 79, 0
1, 218408, Note_on_c, 0, 74, 78
1, 218479, Note_on_c, 0, 74, 0
1, 218527, Note_on_c, 0, 60, 83
1, 218535, Note_on_c, 0, 76, 85
1, 218564, Note_on_c, 0, 60, 0
1, 218635, Note_on_c, 0, 71, 80
1, 218642, Note_on_c, 0, 76, 0
1, 218735, Note_on_c, 0, 64, 75
1, 218736, Note_on_c, 0, 71, 0
1, 218742, Note_on_c, 0, 72, 75
1, 218772, Note_on_c, 0, 64, 0
1, 218796, Note_on_c, 0, 72, 0
1, 218838, Note_on_c, 0, 67, 73
1, 218893, Note_on_c, 0, 67, 0
1, 218951, Note_on_c, 0, 69, 69
1, 218959, Note_on_c, 0, 60, 61
1, 218986, Note_on_c, 0, 60, 0
1, 219021, Note_on_c, 0, 69, 0
1, 219052, Note_on_c, 0, 72, 65
1, 219108, Note_on_c, 0, 72, 0
1, 219146, Note_on_c, 0, 57, 63
1, 219161, Note_on_c, 0, 64, 67
1, 219176, Note_on_c, 0, 57, 0
1, 219213, Note_on_c, 0, 64, 0
1, 219263, Note_on_c, 0, 67, 68
1, 219376, Note_on_c, 0, 67, 0
1, 219381, Note_on_c, 0, 62, 87
1, 219385, Note_on_c, 0, 66, 70
1, 219498, Note_on_c, 0, 69, 72
1, 219515, Note_on_c, 0, 66, 0
1, 219568, Note_on_c, 0, 62, 0
1, 219581, Note_on_c, 0, 69, 0
1, 219614, Note_on_c, 0, 62, 64
1, 219620, Note_on_c, 0, 60, 74
1, 219709, Note_on_c, 0, 60, 0
1, 219713, Note_on_c, 0, 59, 76
1, 219722, Note_on_c, 0, 64, 79
1, 219727, Note_on_c, 0, 62, 0
1, 219753, Note_on_c, 0, 59, 0
1, 219818, Note_on_c, 0, 66, 80
1, 219822, Note_on_c, 0, 57, 71
1, 219827, Note_on_c, 0, 64, 0
1, 219889, Note_on_c, 0, 66, 0
1, 219907, Note_on_c, 0, 57, 0
1, 219917, Note_on_c, 0, 67, 83
1, 219934, Note_on_c, 0, 55, 63
1, 220002, Note_on_c, 0, 55, 0
1, 220028, Note_on_c, 0, 67, 0
1, 220031, Note_on_c, 0, 54, 66
1, 220033, Note_on_c, 0, 69, 82
1, 220072, Note_on_c, 0, 54, 0
1, 220129, Note_on_c, 0, 71, 82
1, 220131, Note_on_c, 0, 69, 0
1, 220138, Note_on_c, 0, 52, 66
1, 220173, Note_on_c, 0, 52, 0
1, 220181, Note_on_c, 0, 71, 0
1, 220229, Note_on_c, 0, 72, 82
1, 220231, Note_on_c, 0, 50, 67
1, 220275, Note_on_c, 0, 50, 0
1, 220313, Note_on_c, 0, 72, 0
1, 220348, Note_on_c, 0, 57, 71
1, 220349, Note_on_c, 0, 74, 85
1, 220401, Note_on_c, 0, 74, 0
1, 220405, Note_on_c, 0, 57, 0
1, 220453, Note_on_c, 0, 48, 66
1, 220456, Note_on_c, 0, 76, 81
1, 220493, Note_on_c, 0, 48, 0
1, 220558, Note_on_c, 0, 78, 81
1, 220560, Note_on_c, 0, 57, 62
1, 220568, Note_on_c, 0, 76, 0
1, 220654, Note_on_c, 0, 57, 0
1, 220661, Note_on_c, 0, 79, 85
1, 220670, Note_on_c, 0, 47, 79
1, 220676, Note_on_c, 0, 78, 0
1, 220700, Note_on_c, 0, 47, 0
1, 220762, Note_on_c, 0, 79, 0
1, 220771, Note_on_c, 0, 81, 76
1, 220844, Note_on_c, 0, 81, 0
1, 220870, Note_on_c, 0, 45, 69
1, 220885, Note_on_c, 0, 74, 70
1, 220907, Note_on_c, 0, 45, 0
1, 220976, Note_on_c, 0, 74, 0
1, 220987, Note_on_c, 0, 78, 72
1, 221079, Note_on_c, 0, 78, 0
1, 221087, Note_on_c, 0, 79, 71
1, 221089, Note_on_c, 0, 47, 68
1, 221129, Note_on_c, 0, 47, 0
1, 221161, Note_on_c, 0, 79, 0
1, 221194, Note_on_c, 0, 81, 64
1, 221276, Note_on_c, 0, 81, 0
1, 221308, Note_on_c, 0, 50, 67
1, 221322, Note_on_c, 0, 74, 63
1, 221343, Note_on_c, 0, 50, 0
1, 221374, Note_on_c, 0, 74, 0
1, 221422, Note_on_c, 0, 79, 58
1, 221493, Note_on_c, 0, 79, 0
1, 221521, Note_on_c, 0, 55, 65
1, 221532, Note_on_c, 0, 71, 63
1, 221558, Note_on_c, 0, 55, 0
1, 221580, Note_on_c, 0, 71, 0
1, 221637, Note_on_c, 0, 79, 64
1, 221709, Note_on_c, 0, 79, 0
1, 221732, Note_on_c, 0, 47, 60
1, 221754, Note_on_c, 0, 74, 69
1, 221773, Note_on_c, 0, 47, 0
1, 221817, Note_on_c, 0, 74, 0
1, 221851, Note_on_c, 0, 81, 72
1, 221955, Note_on_c, 0, 79, 80
1, 221961, Note_on_c, 0, 48, 85
1, 221969, Note_on_c, 0, 81, 0
1, 222004, Note_on_c, 0, 48, 0
1, 222063, Note_on_c, 0, 79, 0
1, 222066, Note_on_c, 0, 81, 80
1, 222168, Note_on_c, 0, 76, 79
1, 222186, Note_on_c, 0, 50, 80
1, 222188, Note_on_c, 0, 81, 0
1, 222217, Note_on_c, 0, 50, 0
1, 222287, Note_on_c, 0, 78, 80
1, 222307, Note_on_c, 0, 76, 0
1, 222390, Note_on_c, 0, 79, 81
1, 222396, Note_on_c, 0, 52, 73
1, 222409, Note_on_c, 0, 78, 0
1, 222430, Note_on_c, 0, 52, 0
1, 222486, Note_on_c, 0, 79, 0
1, 222498, Note_on_c, 0, 81, 77
1, 222581, Note_on_c, 0, 81, 0
1, 222602, Note_on_c, 0, 48, 66
1, 222609, Note_on_c, 0, 76, 73
1, 222645, Note_on_c, 0, 48, 0
1, 222670, Note_on_c, 0, 76, 0
1, 222719, Note_on_c, 0, 79, 64
1, 222788, Note_on_c, 0, 79, 0
1, 222810, Note_on_c, 0, 45, 72
1, 222833, Note_on_c, 0, 72, 65
1, 222850, Note_on_c, 0, 45, 0
1, 222880, Note_on_c, 0, 72, 0
1, 222929, Note_on_c, 0, 79, 65
1, 222997, Note_on_c, 0, 79, 0
1, 223024, Note_on_c, 0, 48, 70
1, 223033, Note_on_c, 0, 76, 70
1, 223057, Note_on_c, 0, 48, 0
1, 223147, Note_on_c, 0, 76, 0
1, 223150, Note_on_c, 0, 79, 69
1, 223243, Note_on_c, 0, 79, 0
1, 223249, Note_on_c, 0, 50, 78
1, 223251, Note_on_c, 0, 78, 80
1, 223282, Note_on_c, 0, 50, 0
1, 223360, Note_on_c, 0, 79, 80
1, 223361, Note_on_c, 0, 78, 0
1, 223454, Note_on_c, 0, 79, 0
1, 223458, Note_on_c, 0, 81, 80
1, 223463, Note_on_c, 0, 52, 76
1, 223498, Note_on_c, 0, 52, 0
1, 223561, Note_on_c, 0, 78, 80
1, 223588, Note_on_c, 0, 81, 0
1, 223637, Note_on_c, 0, 78, 0
1, 223670, Note_on_c, 0, 72, 77
1, 223677, Note_on_c, 0, 54, 77
1, 223713, Note_on_c, 0, 54, 0
1, 223760, Note_on_c, 0, 72, 0
1, 223771, Note_on_c, 0, 76, 80
1, 223874, Note_on_c, 0, 55, 81
1, 223875, Note_on_c, 0, 74, 80
1, 223878, Note_on_c, 0, 76, 0
1, 223908, Note_on_c, 0, 55, 0
1, 223953, Note_on_c, 0, 74, 0
1, 223980, Note_on_c, 0, 72, 76
1, 224108, Note_on_c, 0, 50, 77
1, 224108, Note_on_c, 0, 71, 81
1, 224116, Note_on_c, 0, 72, 0
1, 224182, Note_on_c, 0, 71, 0
1, 224211, Note_on_c, 0, 79, 78
1, 224314, Note_on_c, 0, 60, 74
1, 224321, Note_on_c, 0, 79, 0
1, 224326, Note_on_c, 0, 69, 74
1, 224349, Note_on_c, 0, 60, 0
1, 224402, Note_on_c, 0, 69, 0
1, 224417, Note_on_c, 0, 78, 82
1, 224533, Note_on_c, 0, 79, 86
1, 224548, Note_on_c, 0, 59, 81
1, 224562, Note_on_c, 0, 78, 0
1, 224582, Note_on_c, 0, 50, 0
1, 224765, Note_on_c, 0, 78, 82
1, 224767, Note_on_c, 0, 59, 0
1, 224767, Note_on_c, 0, 55, 72
1, 224800, Note_on_c, 0, 79, 0
1, 224866, Note_on_c, 0, 76, 84
1, 224978, Note_on_c, 0, 74, 84
1, 224999, Note_on_c, 0, 59, 69
1, 225001, Note_on_c, 0, 76, 0
1, 225015, Note_on_c, 0, 78, 0
1, 225034, Note_on_c, 0, 59, 0
1, 225075, Note_on_c, 0, 74, 0
1, 225101, Note_on_c, 0, 72, 74
1, 225170, Note_on_c, 0, 72, 0
1, 225212, Note_on_c, 0, 62, 80
1, 225212, Note_on_c, 0, 71, 80
1, 225242, Note_on_c, 0, 62, 0
1, 225246, Control_c, 0, 67, 8
1, 225274, Note_on_c, 0, 71, 0
1, 225327, Note_on_c, 0, 69, 71
1, 225364, Note_on_c, 0, 69, 0
1, 225449, Note_on_c, 0, 67, 79
1, 225486, Control_c, 0, 64, 46
1, 225497, Note_on_c, 0, 55, 0
1, 225504, Control_c, 0, 64, 82
1, 225523, Control_c, 0, 64, 93
1, 225540, Control_c, 0, 64, 104
1, 225578, Control_c, 0, 64, 111
1, 225596, Control_c, 0, 64, 119
1, 225615, Control_c, 0, 64, 127
1, 225678, Note_on_c, 0, 67, 0
1, 225827, Note_on_c, 0, 78, 85
1, 225859, Note_on_c, 0, 78, 0
1, 225875, Control_c, 0, 64, 85
1, 225892, Control_c, 0, 64, 0
1, 225937, Note_on_c, 0, 78, 92
1, 225943, Note_on_c, 0, 62, 75
1, 225948, Note_on_c, 0, 74, 62
1, 225959, Note_on_c, 0, 69, 61
1, 225998, Control_c, 0, 64, 23
1, 226016, Control_c, 0, 64, 60
1, 226034, Control_c, 0, 64, 78
1, 226054, Control_c, 0, 64, 95
1, 226072, Control_c, 0, 64, 110
1, 226088, Control_c, 0, 64, 119
1, 226107, Control_c, 0, 64, 126
1, 226126, Note_on_c, 0, 69, 0
1, 226158, Note_on_c, 0, 74, 0
1, 226167, Note_on_c, 0, 62, 0
1, 226203, Note_on_c, 0, 60, 73
1, 226273, Control_c, 0, 67, 13
1, 226291, Note_on_c, 0, 59, 76
1, 226291, Control_c, 0, 64, 99
1, 226293, Note_on_c, 0, 60, 0
1, 226312, Control_c, 0, 64, 14
1, 226315, Control_c, 0, 67, 17
1, 226330, Control_c, 0, 64, 0
1, 226347, Note_on_c, 0, 59, 0
1, 226347, Control_c, 0, 67, 23
1, 226367, Control_c, 0, 67, 29
1, 226386, Control_c, 0, 67, 33
1, 226401, Note_on_c, 0, 57, 68
1, 226422, Control_c, 0, 67, 38
1, 226475, Note_on_c, 0, 57, 0
1, 226522, Note_on_c, 0, 55, 64
1, 226591, Note_on_c, 0, 78, 0
1, 226593, Note_on_c, 0, 55, 0
1, 226619, Note_on_c, 0, 54, 70
1, 226622, Note_on_c, 0, 74, 78
1, 226662, Note_on_c, 0, 54, 0
1, 226714, Note_on_c, 0, 74, 0
1, 226726, Note_on_c, 0, 76, 80
1, 226733, Note_on_c, 0, 52, 68
1, 226771, Note_on_c, 0, 52, 0
1, 226837, Note_on_c, 0, 50, 60
1, 226838, Note_on_c, 0, 78, 82
1, 226841, Note_on_c, 0, 76, 0
1, 226889, Note_on_c, 0, 50, 0
1, 226931, Note_on_c, 0, 78, 0
1, 226947, Note_on_c, 0, 57, 58
1, 226948, Note_on_c, 0, 79, 80
1, 226990, Note_on_c, 0, 57, 0
1, 227010, Note_on_c, 0, 79, 0
1, 227039, Note_on_c, 0, 48, 66
1, 227054, Note_on_c, 0, 81, 77
1, 227083, Note_on_c, 0, 48, 0
1, 227139, Note_on_c, 0, 57, 55
1, 227140, Note_on_c, 0, 81, 0
1, 227147, Note_on_c, 0, 78, 80
1, 227229, Note_on_c, 0, 57, 0
1, 227252, Note_on_c, 0, 79, 81
1, 227253, Note_on_c, 0, 78, 0
1, 227267, Note_on_c, 0, 47, 67
1, 227296, Note_on_c, 0, 47, 0
1, 227487, Note_on_c, 0, 79, 0
1, 227495, Note_on_c, 0, 78, 65
1, 227498, Note_on_c, 0, 50, 51
1, 227533, Note_on_c, 0, 50, 0
1, 227556, Note_on_c, 0, 78, 0
1, 227601, Note_on_c, 0, 76, 61
1, 227633, Control_c, 0, 67, 43
1, 227647, Note_on_c, 0, 76, 0
1, 227650, Control_c, 0, 67, 48
1, 227670, Control_c, 0, 67, 55
1, 227688, Control_c, 0, 67, 62
1, 227704, Note_on_c, 0, 55, 53
1, 227706, Control_c, 0, 67, 69
1, 227714, Note_on_c, 0, 74, 61
1, 227725, Control_c, 0, 67, 77
1, 227737, Note_on_c, 0, 55, 0
1, 227745, Control_c, 0, 67, 85
1, 227765, Control_c, 0, 67, 94
1, 227781, Control_c, 0, 67, 104
1, 227802, Note_on_c, 0, 74, 0
1, 227814, Control_c, 0, 67, 112
1, 227827, Note_on_c, 0, 72, 57
1, 227833, Control_c, 0, 67, 117
1, 227851, Control_c, 0, 67, 122
1, 227869, Control_c, 0, 67, 126
1, 227880, Note_on_c, 0, 72, 0
1, 227908, Note_on_c, 0, 57, 55
1, 227925, Note_on_c, 0, 71, 63
1, 227939, Note_on_c, 0, 57, 0
1, 227969, Note_on_c, 0, 71, 0
1, 228036, Note_on_c, 0, 69, 59
1, 228083, Note_on_c, 0, 69, 0
1, 228118, Note_on_c, 0, 59, 63
1, 228142, Note_on_c, 0, 67, 62
1, 228150, Note_on_c, 0, 59, 0
1, 228188, Note_on_c, 0, 67, 0
1, 228257, Note_on_c, 0, 71, 61
1, 228303, Note_on_c, 0, 71, 0
1, 228348, Note_on_c, 0, 55, 48
1, 228349, Note_on_c, 0, 74, 65
1, 228383, Note_on_c, 0, 55, 0
1, 228410, Note_on_c, 0, 74, 0
1, 228450, Note_on_c, 0, 77, 65
1, 228552, Note_on_c, 0, 60, 71
1, 228557, Note_on_c, 0, 76, 71
1, 228576, Note_on_c, 0, 77, 0
1, 228584, Note_on_c, 0, 60, 0
1, 228636, Note_on_c, 0, 76, 0
1, 228655, Note_on_c, 0, 74, 71
1, 228721, Note_on_c, 0, 74, 0
1, 228768, Note_on_c, 0, 64, 68
1, 228776, Note_on_c, 0, 72, 61
1, 228804, Note_on_c, 0, 64, 0
1, 228828, Note_on_c, 0, 72, 0
1, 228887, Note_on_c, 0, 71, 62
1, 228924, Note_on_c, 0, 71, 0
1, 228983, Note_on_c, 0, 60, 66
1, 228984, Note_on_c, 0, 69, 67
1, 229013, Note_on_c, 0, 60, 0
1, 229027, Note_on_c, 0, 69, 0
1, 229093, Note_on_c, 0, 78, 75
1, 229190, Note_on_c, 0, 59, 69
1, 229194, Note_on_c, 0, 79, 73
1, 229204, Note_on_c, 0, 78, 0
1, 229224, Note_on_c, 0, 59, 0
1, 229290, Note_on_c, 0, 79, 0
1, 229304, Note_on_c, 0, 81, 71
1, 229396, Note_on_c, 0, 60, 67
1, 229414, Note_on_c, 0, 79, 76
1, 229416, Note_on_c, 0, 81, 0
1, 229423, Note_on_c, 0, 60, 0
1, 229488, Note_on_c, 0, 79, 0
1, 229520, Note_on_c, 0, 78, 69
1, 229579, Note_on_c, 0, 78, 0
1, 229588, Note_on_c, 0, 57, 68
1, 229607, Note_on_c, 0, 79, 75
1, 229623, Note_on_c, 0, 57, 0
1, 229674, Note_on_c, 0, 79, 0
1, 229725, Note_on_c, 0, 76, 64
1, 229756, Note_on_c, 0, 76, 0
1, 229814, Note_on_c, 0, 59, 80
1, 229816, Note_on_c, 0, 76, 77
1, 229831, Control_c, 0, 64, 13
1, 229845, Note_on_c, 0, 76, 0
1, 229864, Note_on_c, 0, 75, 72
1, 229920, Note_on_c, 0, 75, 0
1, 229921, Note_on_c, 0, 76, 68
1, 229924, Control_c, 0, 64, 0
1, 229976, Note_on_c, 0, 76, 0
1, 229983, Note_on_c, 0, 75, 67
1, 230011, Note_on_c, 0, 59, 0
1, 230040, Note_on_c, 0, 57, 62
1, 230054, Note_on_c, 0, 71, 63
1, 230055, Note_on_c, 0, 75, 0
1, 230143, Note_on_c, 0, 57, 0
1, 230150, Note_on_c, 0, 55, 72
1, 230201, Note_on_c, 0, 71, 0
1, 230249, Note_on_c, 0, 55, 0
1, 230251, Note_on_c, 0, 54, 72
1, 230286, Note_on_c, 0, 54, 0
1, 230368, Note_on_c, 0, 52, 49
1, 230411, Note_on_c, 0, 52, 0
1, 230484, Note_on_c, 0, 51, 53
1, 230485, Note_on_c, 0, 83, 77
1, 230558, Note_on_c, 0, 51, 0
1, 230592, Note_on_c, 0, 81, 75
1, 230616, Note_on_c, 0, 49, 60
1, 230640, Note_on_c, 0, 83, 0
1, 230663, Note_on_c, 0, 49, 0
1, 230691, Note_on_c, 0, 47, 63
1, 230710, Note_on_c, 0, 79, 78
1, 230753, Note_on_c, 0, 47, 0
1, 230769, Note_on_c, 0, 81, 0
1, 230787, Note_on_c, 0, 54, 67
1, 230813, Note_on_c, 0, 78, 80
1, 230815, Note_on_c, 0, 79, 0
1, 230841, Note_on_c, 0, 54, 0
1, 230895, Note_on_c, 0, 78, 0
1, 230916, Note_on_c, 0, 45, 38
1, 230918, Note_on_c, 0, 76, 76
1, 230962, Note_on_c, 0, 45, 0
1, 230973, Note_on_c, 0, 54, 61
1, 230976, Note_on_c, 0, 76, 0
1, 231018, Note_on_c, 0, 54, 0
1, 231021, Note_on_c, 0, 75, 75
1, 231085, Note_on_c, 0, 43, 56
1, 231088, Note_on_c, 0, 75, 0
1, 231117, Note_on_c, 0, 76, 77
1, 231127, Note_on_c, 0, 43, 0
1, 231144, Note_on_c, 0, 76, 0
1, 231219, Note_on_c, 0, 45, 49
1, 231261, Note_on_c, 0, 45, 0
1, 231307, Note_on_c, 0, 42, 48
1, 231342, Note_on_c, 0, 78, 76
1, 231363, Note_on_c, 0, 42, 0
1, 231399, Note_on_c, 0, 45, 47
1, 231439, Note_on_c, 0, 75, 77
1, 231471, Note_on_c, 0, 78, 0
1, 231483, Note_on_c, 0, 45, 0
1, 231546, Note_on_c, 0, 43, 54
1, 231550, Note_on_c, 0, 75, 0
1, 231565, Note_on_c, 0, 76, 70
1, 231594, Note_on_c, 0, 76, 0
1, 231607, Note_on_c, 0, 43, 0
1, 231650, Note_on_c, 0, 45, 48
1, 231729, Note_on_c, 0, 45, 0
1, 231773, Note_on_c, 0, 42, 39
1, 231775, Note_on_c, 0, 78, 72
1, 231835, Note_on_c, 0, 42, 0
1, 231878, Note_on_c, 0, 45, 43
1, 231883, Note_on_c, 0, 75, 71
1, 231896, Note_on_c, 0, 78, 0
1, 231931, Note_on_c, 0, 45, 0
1, 231979, Note_on_c, 0, 76, 67
1, 231985, Note_on_c, 0, 75, 0
1, 232003, Note_on_c, 0, 43, 21
1, 232062, Note_on_c, 0, 43, 0
1, 232093, Note_on_c, 0, 47, 47
1, 232165, Note_on_c, 0, 47, 0
1, 232209, Note_on_c, 0, 40, 52
1, 232210, Note_on_c, 0, 71, 62
1, 232242, Note_on_c, 0, 71, 0
1, 232286, Note_on_c, 0, 40, 0
1, 232342, Note_on_c, 0, 43, 33
1, 232402, Note_on_c, 0, 43, 0
1, 232437, Note_on_c, 0, 72, 57
1, 232465, Note_on_c, 0, 72, 0
1, 232483, Note_on_c, 0, 45, 31
1, 232532, Note_on_c, 0, 45, 0
1, 232576, Note_on_c, 0, 47, 39
1, 232660, Note_on_c, 0, 47, 0
1, 232679, Note_on_c, 0, 74, 65
1, 232690, Note_on_c, 0, 43, 50
1, 232744, Note_on_c, 0, 74, 0
1, 232754, Note_on_c, 0, 43, 0
1, 232781, Note_on_c, 0, 71, 62
1, 232801, Note_on_c, 0, 47, 52
1, 232834, Note_on_c, 0, 71, 0
1, 232869, Note_on_c, 0, 47, 0
1, 232891, Note_on_c, 0, 72, 56
1, 232908, Note_on_c, 0, 45, 55
1, 232916, Note_on_c, 0, 72, 0
1, 232972, Note_on_c, 0, 45, 0
1, 233003, Note_on_c, 0, 47, 46
1, 233071, Note_on_c, 0, 47, 0
1, 233108, Note_on_c, 0, 43, 50
1, 233112, Note_on_c, 0, 74, 66
1, 233163, Note_on_c, 0, 43, 0
1, 233182, Note_on_c, 0, 74, 0
1, 233204, Note_on_c, 0, 47, 49
1, 233215, Note_on_c, 0, 71, 63
1, 233269, Note_on_c, 0, 47, 0
1, 233299, Note_on_c, 0, 71, 0
1, 233321, Note_on_c, 0, 76, 0
1, 233321, Note_on_c, 0, 72, 61
1, 233327, Note_on_c, 0, 45, 55
1, 233346, Note_on_c, 0, 72, 0
1, 233378, Note_on_c, 0, 45, 0
1, 233449, Note_on_c, 0, 48, 38
1, 233553, Note_on_c, 0, 48, 0
1, 233560, Note_on_c, 0, 81, 79
1, 233564, Note_on_c, 0, 42, 58
1, 233571, Note_on_c, 0, 72, 60
1, 233585, Note_on_c, 0, 81, 0
1, 233594, Note_on_c, 0, 72, 0
1, 233637, Note_on_c, 0, 42, 0
1, 233673, Note_on_c, 0, 45, 57
1, 233759, Note_on_c, 0, 45, 0
1, 233789, Note_on_c, 0, 79, 75
1, 233792, Note_on_c, 0, 47, 58
1, 233799, Note_on_c, 0, 71, 64
1, 233812, Note_on_c, 0, 79, 0
1, 233817, Note_on_c, 0, 71, 0
1, 233971, Note_on_c, 0, 47, 0
1, 234017, Note_on_c, 0, 78, 81
1, 234024, Note_on_c, 0, 49, 62
1, 234030, Note_on_c, 0, 69, 70
1, 234096, Note_on_c, 0, 69, 0
1, 234110, Note_on_c, 0, 49, 0
1, 234130, Note_on_c, 0, 51, 67
1, 234185, Note_on_c, 0, 51, 0
1, 234225, Note_on_c, 0, 78, 0
1, 234240, Note_on_c, 0, 52, 57
1, 234248, Note_on_c, 0, 67, 67
1, 234356, Note_on_c, 0, 52, 0
1, 234377, Note_on_c, 0, 54, 55
1, 234467, Note_on_c, 0, 54, 0
1, 234481, Note_on_c, 0, 76, 70
1, 234483, Note_on_c, 0, 55, 47
1, 234492, Note_on_c, 0, 67, 0
1, 234539, Note_on_c, 0, 55, 0
1, 234579, Note_on_c, 0, 57, 63
1, 234629, Note_on_c, 0, 57, 0
1, 234706, Note_on_c, 0, 66, 60
1, 234723, Note_on_c, 0, 59, 33
1, 234724, Note_on_c, 0, 76, 0
1, 234768, Note_on_c, 0, 59, 0
1, 234800, Note_on_c, 0, 69, 66
1, 234809, Note_on_c, 0, 66, 0
1, 234919, Note_on_c, 0, 69, 0
1, 234926, Note_on_c, 0, 76, 70
1, 234931, Note_on_c, 0, 47, 42
1, 234968, Note_on_c, 0, 47, 0
1, 235023, Note_on_c, 0, 75, 77
1, 235026, Note_on_c, 0, 76, 0
1, 235127, Note_on_c, 0, 52, 50
1, 235149, Note_on_c, 0, 76, 73
1, 235150, Note_on_c, 0, 75, 0
1, 235360, Note_on_c, 0, 52, 0
1, 235385, Note_on_c, 0, 72, 68
1, 235403, Note_on_c, 0, 54, 64
1, 235424, Note_on_c, 0, 72, 0
1, 235469, Note_on_c, 0, 54, 0
1, 235514, Note_on_c, 0, 55, 58
1, 235578, Note_on_c, 0, 55, 0
1, 235605, Note_on_c, 0, 71, 70
1, 235608, Note_on_c, 0, 57, 68
1, 235647, Note_on_c, 0, 71, 0
1, 235667, Note_on_c, 0, 57, 0
1, 235715, Note_on_c, 0, 59, 70
1, 235786, Note_on_c, 0, 59, 0
1, 235803, Note_on_c, 0, 69, 71
1, 235815, Note_on_c, 0, 61, 73
1, 235841, Note_on_c, 0, 69, 0
1, 235889, Note_on_c, 0, 61, 0
1, 235921, Note_on_c, 0, 63, 74
1, 235922, Note_on_c, 0, 76, 0
1, 235926, Control_c, 0, 67, 120
1, 235943, Control_c, 0, 67, 107
1, 235961, Control_c, 0, 67, 89
1, 235975, Note_on_c, 0, 63, 0
1, 235980, Control_c, 0, 67, 69
1, 235999, Control_c, 0, 67, 47
1, 236017, Control_c, 0, 67, 27
1, 236018, Note_on_c, 0, 67, 65
1, 236021, Note_on_c, 0, 64, 68
1, 236036, Control_c, 0, 67, 9
1, 236055, Control_c, 0, 67, 0
1, 236058, Note_on_c, 0, 67, 0
1, 236087, Note_on_c, 0, 64, 0
1, 236130, Note_on_c, 0, 61, 61
1, 236182, Note_on_c, 0, 61, 0
1, 236242, Note_on_c, 0, 62, 58
1, 236251, Note_on_c, 0, 76, 76
1, 236289, Note_on_c, 0, 76, 0
1, 236327, Note_on_c, 0, 62, 0
1, 236349, Note_on_c, 0, 59, 54
1, 236446, Note_on_c, 0, 59, 0
1, 236486, Note_on_c, 0, 61, 57
1, 236491, Note_on_c, 0, 69, 63
1, 236559, Note_on_c, 0, 61, 0
1, 236591, Note_on_c, 0, 62, 65
1, 236650, Note_on_c, 0, 62, 0
1, 236684, Note_on_c, 0, 69, 0
1, 236702, Note_on_c, 0, 71, 67
1, 236706, Note_on_c, 0, 61, 64
1, 236754, Note_on_c, 0, 61, 0
1, 236806, Note_on_c, 0, 59, 62
1, 236810, Note_on_c, 0, 73, 70
1, 236813, Note_on_c, 0, 71, 0
1, 236881, Note_on_c, 0, 73, 0
1, 236895, Note_on_c, 0, 59, 0
1, 236913, Note_on_c, 0, 74, 76
1, 236914, Note_on_c, 0, 57, 64
1, 236983, Note_on_c, 0, 57, 0
1, 237006, Note_on_c, 0, 55, 66
1, 237018, Note_on_c, 0, 74, 0
1, 237023, Note_on_c, 0, 76, 76
1, 237065, Note_on_c, 0, 55, 0
1, 237107, Note_on_c, 0, 54, 64
1, 237121, Note_on_c, 0, 76, 0
1, 237122, Note_on_c, 0, 78, 80
1, 237207, Note_on_c, 0, 54, 0
1, 237221, Note_on_c, 0, 78, 0
1, 237235, Note_on_c, 0, 52, 58
1, 237242, Note_on_c, 0, 79, 80
1, 237315, Note_on_c, 0, 79, 0
1, 237334, Note_on_c, 0, 52, 0
1, 237339, Note_on_c, 0, 54, 68
1, 237345, Note_on_c, 0, 81, 77
1, 237386, Note_on_c, 0, 54, 0
1, 237445, Note_on_c, 0, 62, 58
1, 237449, Note_on_c, 0, 78, 80
1, 237450, Note_on_c, 0, 81, 0
1, 237516, Note_on_c, 0, 62, 0
1, 237544, Note_on_c, 0, 52, 55
1, 237549, Note_on_c, 0, 79, 76
1, 237553, Note_on_c, 0, 78, 0
1, 237607, Note_on_c, 0, 52, 0
1, 237611, Note_on_c, 0, 79, 0
1, 237656, Note_on_c, 0, 76, 69
1, 237666, Note_on_c, 0, 61, 58
1, 237714, Note_on_c, 0, 61, 0
1, 237756, Note_on_c, 0, 76, 0
1, 237759, Note_on_c, 0, 62, 58
1, 237770, Note_on_c, 0, 78, 68
1, 237786, Note_on_c, 0, 62, 0
1, 237848, Note_on_c, 0, 78, 0
1, 237877, Note_on_c, 0, 79, 61
1, 237988, Note_on_c, 0, 79, 0
1, 237988, Note_on_c, 0, 78, 65
1, 237998, Note_on_c, 0, 50, 53
1, 238100, Note_on_c, 0, 76, 70
1, 238103, Note_on_c, 0, 78, 0
1, 238122, Note_on_c, 0, 52, 61
1, 238150, Note_on_c, 0, 50, 0
1, 238171, Note_on_c, 0, 76, 0
1, 238207, Note_on_c, 0, 74, 69
1, 238209, Note_on_c, 0, 54, 72
1, 238223, Note_on_c, 0, 52, 0
1, 238296, Note_on_c, 0, 74, 0
1, 238313, Note_on_c, 0, 54, 0
1, 238314, Note_on_c, 0, 55, 83
1, 238318, Note_on_c, 0, 76, 76
1, 238386, Note_on_c, 0, 55, 0
1, 238422, Note_on_c, 0, 57, 71
1, 238425, Note_on_c, 0, 78, 76
1, 238428, Note_on_c, 0, 76, 0
1, 238493, Note_on_c, 0, 78, 0
1, 238516, Note_on_c, 0, 79, 82
1, 238526, Note_on_c, 0, 59, 82
1, 238529, Note_on_c, 0, 57, 0
1, 238620, Note_on_c, 0, 59, 0
1, 238622, Note_on_c, 0, 60, 87
1, 238629, Note_on_c, 0, 81, 85
1, 238643, Note_on_c, 0, 79, 0
1, 238690, Note_on_c, 0, 60, 0
1, 238719, Note_on_c, 0, 62, 77
1, 238728, Note_on_c, 0, 83, 82
1, 238739, Note_on_c, 0, 81, 0
1, 238813, Note_on_c, 0, 83, 0
1, 238817, Note_on_c, 0, 62, 0
1, 238821, Note_on_c, 0, 64, 80
1, 238826, Note_on_c, 0, 84, 84
1, 238897, Note_on_c, 0, 64, 0
1, 238925, Note_on_c, 0, 84, 0
1, 238930, Note_on_c, 0, 81, 81
1, 238937, Note_on_c, 0, 66, 78
1, 238991, Note_on_c, 0, 81, 0
1, 238999, Note_on_c, 0, 66, 0
1, 239041, Note_on_c, 0, 67, 80
1, 239051, Note_on_c, 0, 83, 84
1, 239084, Note_on_c, 0, 67, 0
1, 239136, Note_on_c, 0, 83, 0
1, 239157, Note_on_c, 0, 78, 83
1, 239231, Note_on_c, 0, 78, 0
1, 239261, Note_on_c, 0, 79, 82
1, 239266, Note_on_c, 0, 59, 73
1, 239299, Note_on_c, 0, 59, 0
1, 239329, Note_on_c, 0, 79, 0
1, 239367, Note_on_c, 0, 74, 77
1, 239418, Note_on_c, 0, 74, 0
1, 239464, Note_on_c, 0, 60, 84
1, 239475, Note_on_c, 0, 76, 82
1, 239496, Note_on_c, 0, 60, 0
1, 239575, Note_on_c, 0, 76, 0
1, 239576, Note_on_c, 0, 71, 77
1, 239661, Note_on_c, 0, 71, 0
1, 239669, Note_on_c, 0, 64, 79
1, 239675, Note_on_c, 0, 72, 77
1, 239710, Note_on_c, 0, 64, 0
1, 239729, Note_on_c, 0, 72, 0
1, 239784, Note_on_c, 0, 67, 73
1, 239830, Note_on_c, 0, 67, 0
1, 239886, Note_on_c, 0, 69, 75
1, 239897, Note_on_c, 0, 60, 63
1, 239925, Note_on_c, 0, 60, 0
1, 239973, Note_on_c, 0, 69, 0
1, 240008, Note_on_c, 0, 72, 61
1, 240063, Note_on_c, 0, 72, 0
1, 240094, Note_on_c, 0, 57, 64
1, 240110, Note_on_c, 0, 64, 66
1, 240120, Note_on_c, 0, 57, 0
1, 240189, Note_on_c, 0, 64, 0
1, 240210, Note_on_c, 0, 67, 65
1, 240308, Note_on_c, 0, 62, 87
1, 240314, Note_on_c, 0, 67, 0
1, 240318, Note_on_c, 0, 66, 69
1, 240328, Control_c, 0, 64, 28
1, 240346, Control_c, 0, 64, 56
1, 240363, Control_c, 0, 64, 64
1, 240382, Control_c, 0, 64, 67
1, 240419, Control_c, 0, 64, 69
1, 240438, Note_on_c, 0, 69, 69
1, 240445, Note_on_c, 0, 62, 0
1, 240448, Note_on_c, 0, 66, 0
1, 240455, Control_c, 0, 64, 72
1, 240475, Control_c, 0, 64, 74
1, 240493, Control_c, 0, 64, 77
1, 240511, Control_c, 0, 64, 81
1, 240516, Note_on_c, 0, 69, 0
1, 240546, Note_on_c, 0, 60, 74
1, 240548, Control_c, 0, 64, 83
1, 240558, Note_on_c, 0, 62, 80
1, 240603, Control_c, 0, 64, 71
1, 240621, Control_c, 0, 64, 34
1, 240640, Control_c, 0, 64, 0
1, 240642, Note_on_c, 0, 60, 0
1, 240649, Note_on_c, 0, 59, 78
1, 240654, Note_on_c, 0, 64, 78
1, 240663, Note_on_c, 0, 62, 0
1, 240686, Note_on_c, 0, 59, 0
1, 240749, Note_on_c, 0, 66, 80
1, 240752, Note_on_c, 0, 57, 75
1, 240759, Note_on_c, 0, 64, 0
1, 240816, Note_on_c, 0, 66, 0
1, 240835, Note_on_c, 0, 57, 0
1, 240856, Note_on_c, 0, 67, 80
1, 240863, Note_on_c, 0, 55, 72
1, 240946, Note_on_c, 0, 67, 0
1, 240963, Note_on_c, 0, 55, 0
1, 240969, Note_on_c, 0, 54, 77
1, 240986, Note_on_c, 0, 69, 79
1, 241028, Note_on_c, 0, 54, 0
1, 241082, Note_on_c, 0, 71, 81
1, 241089, Note_on_c, 0, 52, 70
1, 241090, Note_on_c, 0, 69, 0
1, 241134, Note_on_c, 0, 52, 0
1, 241135, Note_on_c, 0, 71, 0
1, 241191, Note_on_c, 0, 72, 82
1, 241199, Note_on_c, 0, 50, 71
1, 241243, Note_on_c, 0, 50, 0
1, 241250, Note_on_c, 0, 72, 0
1, 241294, Note_on_c, 0, 74, 78
1, 241295, Note_on_c, 0, 57, 70
1, 241334, Note_on_c, 0, 74, 0
1, 241364, Note_on_c, 0, 57, 0
1, 241399, Note_on_c, 0, 48, 67
1, 241403, Note_on_c, 0, 76, 77
1, 241444, Note_on_c, 0, 48, 0
1, 241503, Note_on_c, 0, 76, 0
1, 241511, Note_on_c, 0, 78, 75
1, 241512, Note_on_c, 0, 57, 59
1, 241604, Note_on_c, 0, 57, 0
1, 241608, Note_on_c, 0, 78, 0
1, 241611, Note_on_c, 0, 79, 80
1, 241615, Note_on_c, 0, 47, 72
1, 241651, Note_on_c, 0, 47, 0
1, 241703, Note_on_c, 0, 79, 0
1, 241718, Note_on_c, 0, 81, 71
1, 241780, Note_on_c, 0, 81, 0
1, 241839, Note_on_c, 0, 45, 57
1, 241843, Note_on_c, 0, 74, 65
1, 241872, Note_on_c, 0, 45, 0
1, 241941, Note_on_c, 0, 74, 0
1, 241948, Note_on_c, 0, 78, 69
1, 242029, Note_on_c, 0, 78, 0
1, 242053, Note_on_c, 0, 47, 58
1, 242062, Note_on_c, 0, 79, 67
1, 242092, Note_on_c, 0, 47, 0
1, 242127, Note_on_c, 0, 79, 0
1, 242162, Note_on_c, 0, 81, 66
1, 242231, Note_on_c, 0, 81, 0
1, 242273, Note_on_c, 0, 74, 63
1, 242283, Note_on_c, 0, 50, 56
1, 242316, Note_on_c, 0, 50, 0
1, 242326, Note_on_c, 0, 74, 0
1, 242376, Note_on_c, 0, 79, 59
1, 242452, Note_on_c, 0, 79, 0
1, 242492, Note_on_c, 0, 71, 58
1, 242503, Note_on_c, 0, 55, 39
1, 242542, Note_on_c, 0, 71, 0
1, 242547, Note_on_c, 0, 55, 0
1, 242598, Note_on_c, 0, 79, 62
1, 242648, Note_on_c, 0, 79, 0
1, 242691, Note_on_c, 0, 47, 64
1, 242715, Note_on_c, 0, 74, 62
1, 242727, Note_on_c, 0, 47, 0
1, 242780, Note_on_c, 0, 74, 0
1, 242829, Note_on_c, 0, 81, 66
1, 242929, Note_on_c, 0, 48, 79
1, 242934, Note_on_c, 0, 79, 77
1, 242944, Note_on_c, 0, 81, 0
1, 242961, Note_on_c, 0, 48, 0
1, 243032, Note_on_c, 0, 79, 0
1, 243042, Note_on_c, 0, 81, 72
1, 243130, Note_on_c, 0, 81, 0
1, 243133, Note_on_c, 0, 50, 81
1, 243142, Note_on_c, 0, 76, 75
1, 243161, Note_on_c, 0, 50, 0
1, 243238, Note_on_c, 0, 76, 0
1, 243242, Note_on_c, 0, 78, 73
1, 243346, Note_on_c, 0, 79, 76
1, 243347, Note_on_c, 0, 52, 73
1, 243356, Note_on_c, 0, 78, 0
1, 243385, Note_on_c, 0, 52, 0
1, 243435, Note_on_c, 0, 79, 0
1, 243450, Note_on_c, 0, 81, 68
1, 243527, Note_on_c, 0, 81, 0
1, 243561, Note_on_c, 0, 48, 60
1, 243564, Note_on_c, 0, 76, 66
1, 243592, Note_on_c, 0, 48, 0
1, 243621, Note_on_c, 0, 76, 0
1, 243668, Note_on_c, 0, 79, 63
1, 243760, Note_on_c, 0, 79, 0
1, 243785, Note_on_c, 0, 45, 69
1, 243809, Note_on_c, 0, 72, 59
1, 243816, Note_on_c, 0, 45, 0
1, 243858, Note_on_c, 0, 72, 0
1, 243902, Note_on_c, 0, 79, 62
1, 243977, Note_on_c, 0, 79, 0
1, 243996, Note_on_c, 0, 48, 69
1, 244019, Note_on_c, 0, 76, 70
1, 244032, Note_on_c, 0, 48, 0
1, 244087, Note_on_c, 0, 76, 0
1, 244109, Note_on_c, 0, 79, 75
1, 244205, Note_on_c, 0, 79, 0
1, 244210, Note_on_c, 0, 50, 81
1, 244215, Note_on_c, 0, 78, 83
1, 244240, Note_on_c, 0, 50, 0
1, 244320, Note_on_c, 0, 79, 82
1, 244332, Note_on_c, 0, 78, 0
1, 244411, Note_on_c, 0, 79, 0
1, 244415, Note_on_c, 0, 52, 80
1, 244419, Note_on_c, 0, 81, 84
1, 244459, Note_on_c, 0, 52, 0
1, 244528, Note_on_c, 0, 78, 80
1, 244556, Note_on_c, 0, 81, 0
1, 244601, Note_on_c, 0, 78, 0
1, 244623, Note_on_c, 0, 54, 82
1, 244628, Note_on_c, 0, 72, 80
1, 244672, Note_on_c, 0, 54, 0
1, 244745, Note_on_c, 0, 76, 83
1, 244757, Note_on_c, 0, 72, 0
1, 244846, Note_on_c, 0, 55, 87
1, 244847, Note_on_c, 0, 74, 82
1, 244853, Note_on_c, 0, 76, 0
1, 244879, Note_on_c, 0, 55, 0
1, 244935, Note_on_c, 0, 74, 0
1, 244958, Note_on_c, 0, 72, 78
1, 245069, Note_on_c, 0, 50, 77
1, 245071, Note_on_c, 0, 71, 83
1, 245082, Note_on_c, 0, 72, 0
1, 245157, Note_on_c, 0, 71, 0
1, 245185, Note_on_c, 0, 79, 78
1, 245295, Note_on_c, 0, 69, 76
1, 245305, Note_on_c, 0, 60, 68
1, 245308, Note_on_c, 0, 79, 0
1, 245339, Note_on_c, 0, 60, 0
1, 245385, Note_on_c, 0, 69, 0
1, 245396, Note_on_c, 0, 78, 80
1, 245515, Note_on_c, 0, 79, 83
1, 245525, Note_on_c, 0, 59, 80
1, 245542, Note_on_c, 0, 78, 0
1, 245564, Note_on_c, 0, 50, 0
1, 245785, Note_on_c, 0, 78, 81
1, 245786, Note_on_c, 0, 55, 70
1, 245792, Note_on_c, 0, 59, 0
1, 245834, Note_on_c, 0, 79, 0
1, 245895, Note_on_c, 0, 76, 81
1, 245972, Note_on_c, 0, 78, 0
1, 246006, Note_on_c, 0, 59, 76
1, 246015, Note_on_c, 0, 74, 86
1, 246032, Note_on_c, 0, 76, 0
1, 246055, Note_on_c, 0, 59, 0
1, 246130, Note_on_c, 0, 72, 80
1, 246135, Note_on_c, 0, 74, 0
1, 246281, Note_on_c, 0, 71, 80
1, 246282, Note_on_c, 0, 62, 73
1, 246295, Note_on_c, 0, 72, 0
1, 246370, Note_on_c, 0, 62, 0
1, 246435, Note_on_c, 0, 69, 74
1, 246447, Note_on_c, 0, 71, 0
1, 246776, Note_on_c, 0, 67, 63
1, 246815, Note_on_c, 0, 69, 0
1, 247135, Control_c, 0, 64, 22
1, 247151, Control_c, 0, 64, 37
1, 247171, Control_c, 0, 64, 54
1, 247188, Control_c, 0, 64, 64
1, 247208, Control_c, 0, 64, 69
1, 247226, Control_c, 0, 64, 71
1, 247263, Control_c, 0, 64, 74
1, 247299, Control_c, 0, 64, 77
1, 247553, Control_c, 0, 67, 8
1, 247635, Poly_aftertouch_c, 0, 67, 20
1, 247665, Control_c, 0, 64, 75
1, 247666, Control_c, 0, 67, 12
1, 247694, Poly_aftertouch_c, 0, 55, 24
1, 247720, Control_c, 0, 64, 73
1, 247794, Control_c, 0, 64, 71
1, 247847, Control_c, 0, 64, 69
1, 247851, Note_on_c, 0, 55, 0
1, 247851, Poly_aftertouch_c, 0, 55, 0
1, 247886, Control_c, 0, 64, 68
1, 247923, Control_c, 0, 64, 66
1, 247958, Note_on_c, 0, 67, 0
1, 247958, Poly_aftertouch_c, 0, 67, 0
1, 247960, Control_c, 0, 64, 65
1, 247996, Control_c, 0, 64, 63
1, 248033, Control_c, 0, 64, 62
1, 248051, Control_c, 0, 64, 60
1, 248088, Control_c, 0, 64, 58
1, 248143, Control_c, 0, 64, 56
1, 248272, Control_c, 0, 64, 54
1, 250565, Control_c, 0, 67, 16
1, 250581, Control_c, 0, 64, 56
1, 250654, Control_c, 0, 64, 60
1, 250672, Control_c, 0, 64, 61
1, 250692, Control_c, 0, 64, 63
1, 250712, Control_c, 0, 64, 66
1, 250727, Control_c, 0, 64, 68
1, 250746, Control_c, 0, 64, 70
1, 250766, Control_c, 0, 64, 73
1, 250784, Control_c, 0, 64, 77
1, 250802, Control_c, 0, 64, 81
1, 250821, Control_c, 0, 64, 85
1, 250840, Control_c, 0, 64, 89
1, 250877, Control_c, 0, 64, 95
1, 250913, Control_c, 0, 64, 100
1, 250950, Control_c, 0, 64, 104
1, 250988, Control_c, 0, 64, 108
1, 251025, Control_c, 0, 64, 112
1, 251060, Control_c, 0, 64, 118
1, 251097, Control_c, 0, 64, 123
1, 251133, Control_c, 0, 64, 127
1, 251639, Note_on_c, 0, 71, 58
1, 251661, Note_on_c, 0, 43, 36
1, 251794, Control_c, 0, 64, 119
1, 251804, Note_on_c, 0, 71, 0
1, 251811, Control_c, 0, 64, 111
1, 251812, Control_c, 0, 67, 20
1, 251828, Control_c, 0, 64, 101
1, 251829, Note_on_c, 0, 69, 56
1, 251849, Control_c, 0, 64, 89
1, 251869, Control_c, 0, 64, 76
1, 251885, Control_c, 0, 64, 64
1, 251905, Control_c, 0, 64, 56
1, 251923, Control_c, 0, 64, 53
1, 251942, Control_c, 0, 64, 50
1, 251960, Control_c, 0, 64, 44
1, 251978, Control_c, 0, 64, 29
1, 251988, Note_on_c, 0, 69, 0
1, 251996, Control_c, 0, 64, 0
1, 251999, Note_on_c, 0, 71, 41
1, 252250, Control_c, 0, 64, 13
1, 252269, Control_c, 0, 64, 26
1, 252288, Control_c, 0, 64, 41
1, 252306, Control_c, 0, 64, 61
1, 252306, Control_c, 0, 67, 16
1, 252324, Control_c, 0, 64, 73
1, 252342, Control_c, 0, 64, 80
1, 252363, Control_c, 0, 64, 85
1, 252365, Control_c, 0, 67, 12
1, 252380, Control_c, 0, 64, 88
1, 252381, Control_c, 0, 67, 8
1, 252418, Control_c, 0, 64, 94
1, 252436, Control_c, 0, 67, 0
1, 252453, Control_c, 0, 64, 99
1, 252490, Control_c, 0, 64, 103
1, 252563, Control_c, 0, 64, 107
1, 252970, Control_c, 0, 64, 111
1, 253097, Note_on_c, 0, 55, 40
1, 253149, Control_c, 0, 64, 107
1, 253168, Control_c, 0, 64, 88
1, 253187, Control_c, 0, 64, 48
1, 253205, Control_c, 0, 64, 0
1, 253278, Control_c, 0, 64, 29
1, 253279, Control_c, 0, 67, 8
1, 253297, Control_c, 0, 64, 57
1, 253315, Control_c, 0, 64, 76
1, 253335, Control_c, 0, 64, 87
1, 253353, Control_c, 0, 64, 96
1, 253372, Control_c, 0, 64, 100
1, 253425, Control_c, 0, 64, 104
1, 253586, Note_on_c, 0, 72, 57
1, 253591, Control_c, 0, 64, 80
1, 253607, Note_on_c, 0, 71, 0
1, 253608, Control_c, 0, 64, 23
1, 253627, Control_c, 0, 64, 0
1, 253720, Control_c, 0, 64, 27
1, 253732, Poly_aftertouch_c, 0, 43, 24
1, 253738, Control_c, 0, 64, 53
1, 253757, Control_c, 0, 64, 67
1, 253774, Control_c, 0, 64, 76
1, 253780, Note_on_c, 0, 43, 0
1, 253780, Poly_aftertouch_c, 0, 43, 0
1, 253788, Note_on_c, 0, 72, 0
1, 253792, Control_c, 0, 64, 83
1, 253811, Control_c, 0, 64, 90
1, 253830, Control_c, 0, 64, 96
1, 253848, Control_c, 0, 64, 101
1, 253940, Control_c, 0, 64, 105
1, 254108, Note_on_c, 0, 52, 42
1, 254160, Note_on_c, 0, 71, 58
1, 254200, Note_on_c, 0, 71, 0
1, 254227, Note_on_c, 0, 69, 64
1, 254252, Control_c, 0, 64, 91
1, 254266, Note_on_c, 0, 69, 0
1, 254268, Control_c, 0, 64, 67
1, 254288, Control_c, 0, 64, 0
1, 254288, Note_on_c, 0, 71, 66
1, 254314, Note_on_c, 0, 71, 0
1, 254378, Poly_aftertouch_c, 0, 69, 127
1, 254379, Control_c, 0, 67, 12
1, 254637, Control_c, 0, 64, 26
1, 254655, Control_c, 0, 64, 49
1, 254675, Control_c, 0, 64, 69
1, 254692, Control_c, 0, 64, 79
1, 254710, Control_c, 0, 64, 88
1, 254728, Control_c, 0, 64, 94
1, 254747, Control_c, 0, 64, 98
1, 254748, Control_c, 0, 67, 0
1, 254784, Control_c, 0, 64, 104
1, 254818, Poly_aftertouch_c, 0, 69, 0
1, 254821, Control_c, 0, 64, 110
1, 254857, Control_c, 0, 64, 115
1, 254898, Note_on_c, 0, 52, 0
1, 254913, Control_c, 0, 64, 119
1, 255022, Control_c, 0, 64, 123
1, 255113, Control_c, 0, 64, 127
1, 255196, Note_on_c, 0, 67, 51
1, 255450, Note_on_c, 0, 74, 49
1, 255465, Note_on_c, 0, 47, 36
1, 255509, Note_on_c, 0, 67, 0
1, 255517, Control_c, 0, 64, 115
1, 255537, Control_c, 0, 64, 95
1, 255555, Control_c, 0, 64, 62
1, 255571, Control_c, 0, 64, 0
1, 255720, Control_c, 0, 64, 18
1, 255739, Control_c, 0, 64, 40
1, 255758, Control_c, 0, 64, 62
1, 255776, Control_c, 0, 64, 75
1, 255792, Control_c, 0, 64, 84
1, 255812, Control_c, 0, 64, 93
1, 255830, Control_c, 0, 64, 100
1, 255849, Control_c, 0, 64, 105
1, 255881, Control_c, 0, 64, 109
1, 255918, Control_c, 0, 64, 115
1, 255955, Control_c, 0, 64, 120
1, 255992, Control_c, 0, 64, 124
1, 255999, Note_on_c, 0, 74, 0
1, 256490, Note_on_c, 0, 74, 59
1, 256545, Note_on_c, 0, 48, 42
1, 256564, Control_c, 0, 64, 111
1, 256575, Note_on_c, 0, 47, 0
1, 256579, Control_c, 0, 64, 74
1, 256599, Control_c, 0, 64, 0
1, 256694, Control_c, 0, 64, 42
1, 256711, Control_c, 0, 64, 69
1, 256719, Poly_aftertouch_c, 0, 55, 24
1, 256728, Control_c, 0, 64, 83
1, 256748, Control_c, 0, 64, 94
1, 256753, Note_on_c, 0, 55, 0
1, 256753, Poly_aftertouch_c, 0, 55, 0
1, 256766, Control_c, 0, 64, 98
1, 256899, Note_on_c, 0, 74, 0
1, 256931, Note_on_c, 0, 76, 58
1, 256990, Note_on_c, 0, 76, 0
1, 257030, Note_on_c, 0, 74, 61
1, 257110, Note_on_c, 0, 74, 0
1, 257127, Note_on_c, 0, 55, 46
1, 257131, Control_c, 0, 64, 93
1, 257133, Note_on_c, 0, 76, 52
1, 257149, Control_c, 0, 64, 84
1, 257169, Control_c, 0, 64, 69
1, 257187, Control_c, 0, 64, 44
1, 257204, Control_c, 0, 64, 0
1, 257569, Note_on_c, 0, 55, 0
1, 257575, Note_on_c, 0, 57, 38
1, 257984, Note_on_c, 0, 57, 0
1, 258027, Note_on_c, 0, 59, 31
1, 258104, Control_c, 0, 64, 19
1, 258122, Control_c, 0, 64, 49
1, 258134, Note_on_c, 0, 76, 0
1, 258139, Control_c, 0, 64, 70
1, 258157, Control_c, 0, 64, 81
1, 258177, Control_c, 0, 64, 93
1, 258196, Control_c, 0, 64, 101
1, 258214, Control_c, 0, 64, 105
1, 258229, Note_on_c, 0, 48, 0
1, 258232, Control_c, 0, 64, 109
1, 258271, Control_c, 0, 64, 115
1, 258325, Control_c, 0, 64, 120
1, 258489, Control_c, 0, 64, 124
1, 258501, Note_on_c, 0, 67, 59
1, 258580, Poly_aftertouch_c, 0, 59, 24
1, 258580, Note_on_c, 0, 60, 42
1, 258586, Note_on_c, 0, 57, 36
1, 258622, Note_on_c, 0, 59, 0
1, 258622, Poly_aftertouch_c, 0, 59, 0
1, 258637, Control_c, 0, 64, 117
1, 258655, Control_c, 0, 64, 101
1, 258688, Control_c, 0, 64, 71
1, 258707, Control_c, 0, 64, 12
1, 258726, Control_c, 0, 64, 0
1, 259089, Note_on_c, 0, 66, 36
1, 259119, Note_on_c, 0, 67, 0
1, 259166, Control_c, 0, 64, 34
1, 259186, Control_c, 0, 64, 60
1, 259204, Control_c, 0, 64, 76
1, 259209, Note_on_c, 0, 57, 0
1, 259224, Control_c, 0, 64, 86
1, 259241, Control_c, 0, 64, 93
1, 259260, Control_c, 0, 64, 97
1, 259297, Control_c, 0, 64, 103
1, 259334, Control_c, 0, 64, 108
1, 259443, Control_c, 0, 64, 112
1, 259547, Note_on_c, 0, 57, 45
1, 259553, Note_on_c, 0, 54, 40
1, 259555, Control_c, 0, 64, 99
1, 259573, Control_c, 0, 64, 69
1, 259591, Control_c, 0, 64, 0
1, 259648, Note_on_c, 0, 60, 0
1, 259698, Control_c, 0, 64, 17
1, 259717, Control_c, 0, 64, 45
1, 259736, Control_c, 0, 64, 67
1, 259754, Control_c, 0, 64, 76
1, 259773, Control_c, 0, 64, 83
1, 259790, Control_c, 0, 64, 87
1, 259809, Control_c, 0, 64, 92
1, 259846, Control_c, 0, 64, 98
1, 259900, Control_c, 0, 64, 102
1, 259974, Note_on_c, 0, 66, 0
1, 259997, Note_on_c, 0, 72, 62
1, 260011, Control_c, 0, 64, 96
1, 260030, Control_c, 0, 64, 67
1, 260048, Control_c, 0, 64, 0
1, 260120, Control_c, 0, 64, 14
1, 260140, Control_c, 0, 64, 52
1, 260158, Control_c, 0, 64, 78
1, 260177, Control_c, 0, 64, 96
1, 260196, Control_c, 0, 64, 112
1, 260197, Note_on_c, 0, 72, 0
1, 260214, Control_c, 0, 64, 119
1, 260234, Control_c, 0, 64, 123
1, 260243, Note_on_c, 0, 54, 0
1, 260248, Control_c, 0, 64, 127
1, 260304, Note_on_c, 0, 57, 0
1, 260487, Note_on_c, 0, 72, 63
1, 260494, Note_on_c, 0, 55, 39
1, 260530, Note_on_c, 0, 72, 0
1, 260572, Note_on_c, 0, 71, 59
1, 260597, Control_c, 0, 64, 104
1, 260605, Note_on_c, 0, 71, 0
1, 260613, Control_c, 0, 64, 71
1, 260632, Control_c, 0, 64, 0
1, 260632, Note_on_c, 0, 72, 64
1, 260678, Note_on_c, 0, 72, 0
1, 260699, Note_on_c, 0, 71, 61
1, 261002, Control_c, 0, 64, 32
1, 261022, Control_c, 0, 64, 56
1, 261038, Control_c, 0, 64, 71
1, 261057, Control_c, 0, 64, 80
1, 261075, Control_c, 0, 64, 87
1, 261096, Control_c, 0, 64, 93
1, 261112, Control_c, 0, 64, 97
1, 261131, Control_c, 0, 64, 101
1, 261150, Control_c, 0, 64, 106
1, 261178, Note_on_c, 0, 71, 0
1, 261184, Control_c, 0, 64, 111
1, 261277, Control_c, 0, 64, 115
1, 261572, Note_on_c, 0, 69, 51
1, 261644, Note_on_c, 0, 69, 0
1, 261870, Note_on_c, 0, 69, 40
1, 261871, Note_on_c, 0, 50, 39
1, 261938, Control_c, 0, 64, 109
1, 261957, Control_c, 0, 64, 88
1, 261974, Control_c, 0, 64, 50
1, 261992, Control_c, 0, 64, 0
1, 262086, Control_c, 0, 64, 33
1, 262105, Control_c, 0, 64, 58
1, 262121, Control_c, 0, 64, 74
1, 262139, Control_c, 0, 64, 83
1, 262159, Control_c, 0, 64, 90
1, 262178, Control_c, 0, 64, 95
1, 262212, Control_c, 0, 64, 101
1, 262250, Control_c, 0, 64, 105
1, 262307, Control_c, 0, 64, 109
1, 262328, Note_on_c, 0, 55, 0
1, 262399, Control_c, 0, 64, 113
1, 262452, Note_on_c, 0, 52, 51
1, 262505, Control_c, 0, 64, 108
1, 262525, Control_c, 0, 64, 92
1, 262543, Control_c, 0, 64, 66
1, 262561, Control_c, 0, 64, 39
1, 262616, Control_c, 0, 64, 54
1, 262633, Control_c, 0, 64, 70
1, 262653, Control_c, 0, 64, 82
1, 262670, Control_c, 0, 64, 95
1, 262689, Control_c, 0, 64, 103
1, 262707, Control_c, 0, 64, 107
1, 262744, Control_c, 0, 64, 113
1, 262781, Control_c, 0, 64, 118
1, 262836, Control_c, 0, 64, 122
1, 262894, Note_on_c, 0, 54, 62
1, 262938, Note_on_c, 0, 52, 0
1, 262965, Control_c, 0, 64, 112
1, 262984, Control_c, 0, 64, 101
1, 263002, Control_c, 0, 64, 87
1, 263022, Control_c, 0, 64, 71
1, 263041, Control_c, 0, 64, 58
1, 263129, Control_c, 0, 64, 56
1, 263148, Control_c, 0, 64, 54
1, 263243, Control_c, 0, 64, 52
1, 263333, Note_on_c, 0, 57, 56
1, 263385, Control_c, 0, 64, 50
1, 263414, Note_on_c, 0, 54, 0
1, 263496, Control_c, 0, 64, 48
1, 263588, Control_c, 0, 64, 46
1, 263624, Control_c, 0, 64, 43
1, 263718, Control_c, 0, 64, 41
1, 263772, Control_c, 0, 64, 36
1, 263790, Control_c, 0, 64, 27
1, 263809, Control_c, 0, 64, 0
1, 263818, Note_on_c, 0, 62, 47
1, 263875, Note_on_c, 0, 57, 0
1, 263974, Note_on_c, 0, 50, 0
1, 263993, Control_c, 0, 64, 30
1, 264011, Control_c, 0, 64, 50
1, 264030, Control_c, 0, 64, 70
1, 264050, Control_c, 0, 64, 76
1, 264065, Control_c, 0, 64, 78
1, 264103, Control_c, 0, 64, 83
1, 264123, Control_c, 0, 64, 87
1, 264140, Control_c, 0, 64, 91
1, 264178, Control_c, 0, 64, 97
1, 264270, Control_c, 0, 64, 101
1, 264330, Note_on_c, 0, 50, 42
1, 264357, Control_c, 0, 64, 97
1, 264377, Control_c, 0, 64, 79
1, 264395, Control_c, 0, 64, 46
1, 264413, Control_c, 0, 64, 0
1, 264487, Control_c, 0, 64, 38
1, 264489, Note_on_c, 0, 69, 0
1, 264505, Control_c, 0, 64, 66
1, 264524, Control_c, 0, 64, 82
1, 264541, Control_c, 0, 64, 96
1, 264559, Control_c, 0, 64, 103
1, 264596, Control_c, 0, 64, 107
1, 264635, Note_on_c, 0, 50, 0
1, 264653, Control_c, 0, 64, 112
1, 264673, Note_on_c, 0, 62, 0
1, 264708, Control_c, 0, 64, 117
1, 264764, Control_c, 0, 64, 121
1, 264873, Control_c, 0, 64, 125
1, 264984, Control_c, 0, 67, 8
1, 265015, Note_on_c, 0, 48, 41
1, 265054, Note_on_c, 0, 78, 74
1, 265076, Control_c, 0, 64, 118
1, 265094, Control_c, 0, 64, 110
1, 265113, Control_c, 0, 64, 101
1, 265132, Control_c, 0, 64, 89
1, 265149, Control_c, 0, 64, 76
1, 265168, Control_c, 0, 64, 66
1, 265186, Control_c, 0, 64, 61
1, 265193, Note_on_c, 0, 76, 74
1, 265205, Control_c, 0, 64, 60
1, 265206, Note_on_c, 0, 78, 0
1, 265274, Control_c, 0, 64, 57
1, 265293, Control_c, 0, 64, 55
1, 265311, Control_c, 0, 64, 51
1, 265330, Control_c, 0, 64, 47
1, 265350, Control_c, 0, 64, 41
1, 265367, Note_on_c, 0, 78, 67
1, 265367, Control_c, 0, 64, 29
1, 265387, Control_c, 0, 64, 11
1, 265403, Control_c, 0, 64, 0
1, 265432, Note_on_c, 0, 76, 0
1, 265571, Control_c, 0, 64, 22
1, 265588, Control_c, 0, 64, 40
1, 265608, Control_c, 0, 64, 62
1, 265626, Control_c, 0, 64, 77
1, 265644, Control_c, 0, 64, 87
1, 265661, Control_c, 0, 64, 95
1, 265680, Control_c, 0, 64, 99
1, 265716, Control_c, 0, 64, 105
1, 265754, Control_c, 0, 64, 109
1, 265847, Control_c, 0, 64, 113
1, 266266, Control_c, 0, 64, 91
1, 266274, Note_on_c, 0, 57, 41
1, 266285, Control_c, 0, 64, 57
1, 266303, Control_c, 0, 64, 0
1, 266376, Control_c, 0, 64, 15
1, 266394, Control_c, 0, 64, 41
1, 266412, Control_c, 0, 64, 67
1, 266432, Control_c, 0, 64, 83
1, 266449, Control_c, 0, 64, 96
1, 266468, Control_c, 0, 64, 104
1, 266506, Control_c, 0, 64, 108
1, 266562, Control_c, 0, 64, 112
1, 266750, Note_on_c, 0, 79, 62
1, 266763, Note_on_c, 0, 78, 0
1, 266764, Control_c, 0, 64, 93
1, 266783, Control_c, 0, 64, 60
1, 266800, Control_c, 0, 64, 0
1, 266890, Control_c, 0, 64, 19
1, 266911, Control_c, 0, 64, 49
1, 266928, Control_c, 0, 64, 75
1, 266931, Note_on_c, 0, 48, 0
1, 266936, Note_on_c, 0, 79, 0
1, 266948, Control_c, 0, 64, 93
1, 266966, Control_c, 0, 64, 110
1, 266985, Control_c, 0, 64, 117
1, 267039, Control_c, 0, 64, 122
1, 267040, Control_c, 0, 67, 12
1, 267095, Control_c, 0, 64, 126
1, 267280, Note_on_c, 0, 48, 39
1, 267312, Note_on_c, 0, 78, 66
1, 267345, Note_on_c, 0, 78, 0
1, 267378, Note_on_c, 0, 76, 69
1, 267404, Control_c, 0, 64, 116
1, 267422, Control_c, 0, 64, 96
1, 267425, Note_on_c, 0, 76, 0
1, 267434, Note_on_c, 0, 78, 75
1, 267442, Control_c, 0, 64, 65
1, 267459, Control_c, 0, 64, 0
1, 267489, Note_on_c, 0, 78, 0
1, 267499, Note_on_c, 0, 76, 58
1, 267606, Control_c, 0, 67, 16
1, 267718, Control_c, 0, 64, 26
1, 267736, Control_c, 0, 64, 51
1, 267753, Control_c, 0, 64, 69
1, 267772, Control_c, 0, 64, 80
1, 267792, Control_c, 0, 64, 90
1, 267808, Control_c, 0, 64, 97
1, 267827, Control_c, 0, 64, 101
1, 267865, Control_c, 0, 64, 106
1, 267919, Control_c, 0, 64, 110
1, 268002, Note_on_c, 0, 76, 0
1, 268025, Note_on_c, 0, 48, 0
1, 268115, Note_on_c, 0, 75, 23
1, 268127, Note_on_c, 0, 75, 0
1, 268344, Note_on_c, 0, 74, 64
1, 268606, Note_on_c, 0, 74, 0
1, 268634, Note_on_c, 0, 79, 51
1, 268641, Note_on_c, 0, 47, 34
1, 268689, Control_c, 0, 64, 95
1, 268691, Poly_aftertouch_c, 0, 57, 24
1, 268709, Control_c, 0, 64, 72
1, 268726, Control_c, 0, 64, 33
1, 268737, Note_on_c, 0, 57, 0
1, 268737, Poly_aftertouch_c, 0, 57, 0
1, 268743, Control_c, 0, 64, 0
1, 268855, Control_c, 0, 64, 15
1, 268875, Control_c, 0, 64, 39
1, 268892, Control_c, 0, 64, 60
1, 268910, Control_c, 0, 64, 73
1, 268928, Control_c, 0, 64, 78
1, 268948, Control_c, 0, 64, 83
1, 268966, Control_c, 0, 64, 89
1, 268998, Control_c, 0, 64, 94
1, 269017, Control_c, 0, 64, 98
1, 269054, Control_c, 0, 64, 102
1, 269163, Note_on_c, 0, 50, 42
1, 269164, Control_c, 0, 64, 95
1, 269184, Control_c, 0, 64, 74
1, 269201, Control_c, 0, 64, 40
1, 269219, Control_c, 0, 64, 0
1, 269257, Control_c, 0, 64, 22
1, 269274, Control_c, 0, 64, 47
1, 269294, Control_c, 0, 64, 71
1, 269313, Control_c, 0, 64, 83
1, 269331, Control_c, 0, 64, 95
1, 269350, Control_c, 0, 64, 100
1, 269404, Control_c, 0, 67, 20
1, 269439, Note_on_c, 0, 79, 0
1, 269441, Control_c, 0, 67, 25
1, 269458, Control_c, 0, 67, 29
1, 269495, Control_c, 0, 67, 34
1, 269534, Control_c, 0, 67, 38
1, 269571, Control_c, 0, 67, 44
1, 269607, Control_c, 0, 67, 49
1, 269644, Control_c, 0, 67, 54
1, 269651, Poly_aftertouch_c, 0, 50, 22
1, 269692, Note_on_c, 0, 50, 0
1, 269692, Poly_aftertouch_c, 0, 50, 0
1, 269696, Control_c, 0, 67, 58
1, 269735, Control_c, 0, 67, 62
1, 269735, Note_on_c, 0, 55, 38
1, 269746, Note_on_c, 0, 52, 36
1, 269747, Note_on_c, 0, 72, 50
1, 269791, Control_c, 0, 64, 96
1, 269811, Control_c, 0, 64, 88
1, 269813, Control_c, 0, 67, 70
1, 269819, Poly_aftertouch_c, 0, 47, 24
1, 269829, Control_c, 0, 64, 72
1, 269830, Control_c, 0, 67, 77
1, 269843, Note_on_c, 0, 72, 0
1, 269845, Control_c, 0, 64, 47
1, 269846, Control_c, 0, 67, 84
1, 269847, Note_on_c, 0, 47, 0
1, 269847, Poly_aftertouch_c, 0, 47, 0
1, 269865, Control_c, 0, 64, 0
1, 269865, Control_c, 0, 67, 89
1, 269882, Control_c, 0, 67, 94
1, 269886, Note_on_c, 0, 71, 51
1, 269902, Control_c, 0, 67, 99
1, 269933, Control_c, 0, 67, 104
1, 269953, Control_c, 0, 67, 112
1, 269971, Control_c, 0, 67, 119
1, 270028, Control_c, 0, 67, 123
1, 270033, Note_on_c, 0, 72, 51
1, 270045, Note_on_c, 0, 71, 0
1, 270082, Control_c, 0, 67, 127
1, 270286, Control_c, 0, 64, 14
1, 270303, Control_c, 0, 64, 28
1, 270321, Control_c, 0, 64, 42
1, 270339, Control_c, 0, 64, 59
1, 270358, Control_c, 0, 64, 69
1, 270378, Control_c, 0, 64, 72
1, 270394, Control_c, 0, 64, 74
1, 270413, Control_c, 0, 64, 77
1, 270431, Control_c, 0, 64, 83
1, 270451, Control_c, 0, 64, 88
1, 270469, Control_c, 0, 64, 92
1, 270517, Poly_aftertouch_c, 0, 52, 24
1, 270523, Control_c, 0, 64, 97
1, 270578, Note_on_c, 0, 52, 0
1, 270578, Poly_aftertouch_c, 0, 52, 0
1, 270671, Control_c, 0, 64, 101
1, 270923, Note_on_c, 0, 48, 36
1, 271000, Control_c, 0, 64, 93
1, 271018, Control_c, 0, 64, 72
1, 271036, Control_c, 0, 64, 23
1, 271054, Control_c, 0, 64, 0
1, 271146, Control_c, 0, 64, 32
1, 271165, Control_c, 0, 64, 58
1, 271184, Control_c, 0, 64, 75
1, 271202, Control_c, 0, 64, 84
1, 271221, Control_c, 0, 64, 92
1, 271240, Control_c, 0, 64, 96
1, 271293, Control_c, 0, 64, 100
1, 271300, Note_on_c, 0, 72, 0
1, 271550, Note_on_c, 0, 74, 60
1, 271608, Control_c, 0, 64, 95
1, 271644, Control_c, 0, 64, 88
1, 271662, Control_c, 0, 64, 84
1, 271682, Control_c, 0, 64, 79
1, 271699, Control_c, 0, 64, 76
1, 271717, Control_c, 0, 64, 73
1, 271735, Control_c, 0, 64, 70
1, 271758, Note_on_c, 0, 76, 66
1, 271772, Control_c, 0, 64, 67
1, 271804, Control_c, 0, 64, 66
1, 271823, Control_c, 0, 64, 65
1, 271827, Note_on_c, 0, 74, 0
1, 271860, Control_c, 0, 64, 63
1, 271952, Control_c, 0, 64, 62
1, 272043, Control_c, 0, 64, 61
1, 272049, Note_on_c, 0, 69, 52
1, 272050, Note_on_c, 0, 50, 41
1, 272063, Control_c, 0, 64, 59
1, 272081, Control_c, 0, 64, 52
1, 272100, Control_c, 0, 64, 32
1, 272102, Note_on_c, 0, 76, 0
1, 272119, Control_c, 0, 64, 0
1, 272140, Note_on_c, 0, 48, 0
1, 272249, Control_c, 0, 64, 17
1, 272265, Control_c, 0, 64, 33
1, 272284, Control_c, 0, 64, 48
1, 272286, Control_c, 0, 67, 120
1, 272303, Control_c, 0, 64, 61
1, 272304, Control_c, 0, 67, 116
1, 272321, Control_c, 0, 64, 65
1, 272322, Control_c, 0, 67, 110
1, 272340, Control_c, 0, 67, 100
1, 272358, Control_c, 0, 67, 88
1, 272377, Control_c, 0, 67, 73
1, 272397, Control_c, 0, 67, 55
1, 272414, Control_c, 0, 67, 35
1, 272431, Control_c, 0, 67, 14
1, 272450, Control_c, 0, 67, 0
1, 272469, Control_c, 0, 64, 63
1, 272505, Control_c, 0, 64, 62
1, 272542, Control_c, 0, 64, 60
1, 272597, Control_c, 0, 64, 58
1, 272652, Control_c, 0, 64, 56
1, 272690, Control_c, 0, 64, 54
1, 272741, Control_c, 0, 64, 52
1, 272853, Control_c, 0, 64, 50
1, 272980, Control_c, 0, 64, 48
1, 273013, Note_on_c, 0, 74, 54
1, 273040, Note_on_c, 0, 54, 46
1, 273114, Note_on_c, 0, 69, 0
1, 273114, Note_on_c, 0, 55, 0
1, 273256, Control_c, 0, 64, 46
1, 273386, Control_c, 0, 64, 44
1, 273508, Note_on_c, 0, 52, 45
1, 273523, Note_on_c, 0, 54, 0
1, 273704, Note_on_c, 0, 72, 61
1, 273761, Note_on_c, 0, 74, 0
1, 273824, Control_c, 0, 64, 42
1, 273975, Note_on_c, 0, 71, 55
1, 273990, Note_on_c, 0, 54, 40
1, 273998, Note_on_c, 0, 72, 0
1, 274028, Control_c, 0, 64, 34
1, 274048, Control_c, 0, 64, 14
1, 274063, Control_c, 0, 64, 0
1, 274099, Note_on_c, 0, 52, 0
1, 274665, Note_on_c, 0, 72, 55
1, 274668, Note_on_c, 0, 71, 0
1, 274759, Control_c, 0, 64, 24
1, 274778, Control_c, 0, 64, 50
1, 274797, Control_c, 0, 64, 68
1, 274815, Control_c, 0, 64, 75
1, 274832, Control_c, 0, 64, 81
1, 274851, Control_c, 0, 64, 86
1, 274859, Note_on_c, 0, 72, 0
1, 274870, Control_c, 0, 64, 90
1, 274907, Control_c, 0, 64, 96
1, 274943, Control_c, 0, 64, 101
1, 275038, Note_on_c, 0, 72, 52
1, 275081, Note_on_c, 0, 55, 39
1, 275109, Control_c, 0, 64, 97
1, 275129, Control_c, 0, 64, 73
1, 275138, Note_on_c, 0, 50, 0
1, 275147, Note_on_c, 0, 54, 0
1, 275165, Control_c, 0, 64, 0
1, 275239, Control_c, 0, 64, 23
1, 275256, Control_c, 0, 64, 43
1, 275260, Note_on_c, 0, 72, 0
1, 275276, Control_c, 0, 64, 58
1, 275291, Note_on_c, 0, 71, 49
1, 275291, Control_c, 0, 64, 62
1, 275423, Control_c, 0, 64, 61
1, 275430, Note_on_c, 0, 71, 0
1, 275442, Control_c, 0, 64, 60
1, 275451, Note_on_c, 0, 72, 52
1, 275546, Control_c, 0, 64, 57
1, 275551, Note_on_c, 0, 72, 0
1, 275584, Control_c, 0, 64, 55
1, 275593, Note_on_c, 0, 71, 58
1, 275638, Note_on_c, 0, 71, 0
1, 275660, Control_c, 0, 64, 53
1, 275677, Note_on_c, 0, 72, 52
1, 275715, Control_c, 0, 64, 51
1, 275721, Note_on_c, 0, 72, 0
1, 275745, Note_on_c, 0, 71, 60
1, 275787, Control_c, 0, 67, 13
1, 275791, Note_on_c, 0, 71, 0
1, 275805, Control_c, 0, 64, 49
1, 275806, Control_c, 0, 67, 27
1, 275813, Note_on_c, 0, 72, 63
1, 275824, Control_c, 0, 67, 44
1, 275843, Control_c, 0, 64, 46
1, 275843, Control_c, 0, 67, 58
1, 275852, Note_on_c, 0, 72, 0
1, 275860, Control_c, 0, 67, 72
1, 275879, Control_c, 0, 67, 92
1, 275889, Note_on_c, 0, 71, 59
1, 275897, Control_c, 0, 67, 114
1, 275918, Control_c, 0, 67, 125
1, 275921, Note_on_c, 0, 71, 0
1, 275936, Control_c, 0, 64, 44
1, 275936, Note_on_c, 0, 72, 65
1, 275970, Note_on_c, 0, 72, 0
1, 276009, Note_on_c, 0, 71, 63
1, 276028, Control_c, 0, 64, 42
1, 276043, Note_on_c, 0, 71, 0
1, 276043, Note_on_c, 0, 72, 70
1, 276086, Note_on_c, 0, 72, 0
1, 276127, Note_on_c, 0, 71, 60
1, 276140, Control_c, 0, 64, 40
1, 276160, Note_on_c, 0, 71, 0
1, 276164, Note_on_c, 0, 72, 64
1, 276165, Note_on_c, 0, 50, 43
1, 276207, Note_on_c, 0, 72, 0
1, 276247, Note_on_c, 0, 71, 57
1, 276286, Control_c, 0, 64, 36
1, 276597, Control_c, 0, 64, 30
1, 276614, Control_c, 0, 64, 25
1, 276631, Control_c, 0, 64, 18
1, 276650, Control_c, 0, 64, 10
1, 276669, Control_c, 0, 64, 0
1, 276816, Note_on_c, 0, 69, 48
1, 276824, Note_on_c, 0, 71, 0
1, 276928, Control_c, 0, 64, 21
1, 276944, Control_c, 0, 64, 38
1, 276964, Control_c, 0, 64, 56
1, 276981, Control_c, 0, 64, 68
1, 277000, Control_c, 0, 64, 71
1, 277038, Control_c, 0, 64, 75
1, 277056, Control_c, 0, 64, 78
1, 277075, Control_c, 0, 64, 82
1, 277092, Control_c, 0, 64, 86
1, 277130, Control_c, 0, 64, 91
1, 277326, Note_on_c, 0, 67, 43
1, 277334, Note_on_c, 0, 43, 36
1, 277374, Note_on_c, 0, 69, 0
1, 277415, Poly_aftertouch_c, 0, 50, 24
1, 277437, Control_c, 0, 64, 82
1, 277457, Control_c, 0, 64, 70
1, 277475, Control_c, 0, 64, 50
1, 277487, Note_on_c, 0, 50, 0
1, 277487, Poly_aftertouch_c, 0, 50, 0
1, 277493, Control_c, 0, 64, 19
1, 277514, Control_c, 0, 64, 0
1, 277750, Control_c, 0, 64, 14
1, 277769, Control_c, 0, 64, 34
1, 277787, Control_c, 0, 64, 47
1, 277807, Control_c, 0, 64, 60
1, 277825, Control_c, 0, 64, 68
1, 277844, Control_c, 0, 64, 72
1, 277863, Control_c, 0, 64, 75
1, 277879, Control_c, 0, 64, 80
1, 277899, Control_c, 0, 64, 85
1, 277916, Control_c, 0, 64, 90
1, 277954, Control_c, 0, 64, 96
1, 277992, Control_c, 0, 64, 102
1, 278046, Control_c, 0, 64, 106
1, 278064, Note_on_c, 0, 67, 0
1, 278137, Control_c, 0, 64, 110
1, 278198, Poly_aftertouch_c, 0, 55, 24
1, 278202, Note_on_c, 0, 43, 0
1, 278231, Control_c, 0, 67, 117
1, 278238, Note_on_c, 0, 55, 0
1, 278238, Poly_aftertouch_c, 0, 55, 0
1, 278251, Control_c, 0, 67, 111
1, 278266, Control_c, 0, 67, 102
1, 278285, Control_c, 0, 64, 114
1, 278286, Control_c, 0, 67, 90
1, 278305, Control_c, 0, 67, 77
1, 278323, Control_c, 0, 67, 61
1, 278355, Control_c, 0, 67, 45
1, 278375, Control_c, 0, 67, 25
1, 278392, Control_c, 0, 64, 118
1, 278412, Control_c, 0, 67, 0
1, 278502, Control_c, 0, 64, 122
1, 278650, Control_c, 0, 64, 126
1, 278760, Note_on_c, 0, 83, 83
1, 278794, Note_on_c, 0, 55, 47
1, 278797, Control_c, 0, 64, 109
1, 278815, Control_c, 0, 64, 77
1, 278834, Control_c, 0, 64, 38
1, 278854, Control_c, 0, 64, 25
1, 278890, Control_c, 0, 64, 49
1, 278909, Control_c, 0, 64, 72
1, 278927, Control_c, 0, 64, 86
1, 278946, Control_c, 0, 64, 102
1, 278963, Control_c, 0, 64, 110
1, 278982, Control_c, 0, 64, 115
1, 279019, Control_c, 0, 64, 120
1, 279244, Note_on_c, 0, 59, 68
1, 279328, Control_c, 0, 64, 102
1, 279348, Control_c, 0, 64, 73
1, 279365, Control_c, 0, 64, 39
1, 279384, Control_c, 0, 64, 31
1, 279402, Control_c, 0, 64, 36
1, 279421, Control_c, 0, 64, 57
1, 279437, Control_c, 0, 64, 76
1, 279458, Control_c, 0, 64, 89
1, 279475, Control_c, 0, 64, 98
1, 279512, Control_c, 0, 64, 104
1, 279548, Control_c, 0, 64, 110
1, 279602, Control_c, 0, 64, 114
1, 279726, Note_on_c, 0, 64, 63
1, 279734, Control_c, 0, 64, 106
1, 279751, Control_c, 0, 64, 83
1, 279770, Control_c, 0, 64, 44
1, 279779, Note_on_c, 0, 59, 0
1, 279788, Control_c, 0, 64, 0
1, 279844, Control_c, 0, 64, 19
1, 279863, Control_c, 0, 64, 42
1, 279882, Control_c, 0, 64, 67
1, 279899, Control_c, 0, 64, 82
1, 279917, Control_c, 0, 64, 96
1, 279936, Control_c, 0, 64, 102
1, 279990, Control_c, 0, 64, 106
1, 280177, Note_on_c, 0, 64, 0
1, 280372, Note_on_c, 0, 79, 77
1, 280372, Control_c, 0, 64, 110
1, 280416, Note_on_c, 0, 83, 0
1, 280503, Control_c, 0, 64, 114
1, 280557, Note_on_c, 0, 79, 0
1, 280758, Note_on_c, 0, 79, 61
1, 280774, Note_on_c, 0, 62, 55
1, 280796, Note_on_c, 0, 79, 0
1, 280811, Note_on_c, 0, 78, 75
1, 280852, Note_on_c, 0, 78, 0
1, 280871, Control_c, 0, 64, 98
1, 280874, Note_on_c, 0, 79, 72
1, 280890, Control_c, 0, 64, 71
1, 280909, Control_c, 0, 64, 27
1, 280926, Control_c, 0, 64, 0
1, 280928, Note_on_c, 0, 79, 0
1, 280929, Note_on_c, 0, 78, 72
1, 281218, Control_c, 0, 64, 27
1, 281236, Control_c, 0, 64, 43
1, 281256, Control_c, 0, 64, 60
1, 281274, Control_c, 0, 64, 71
1, 281293, Control_c, 0, 64, 76
1, 281311, Control_c, 0, 64, 81
1, 281328, Control_c, 0, 64, 86
1, 281347, Control_c, 0, 64, 92
1, 281367, Control_c, 0, 64, 96
1, 281401, Control_c, 0, 64, 101
1, 281437, Note_on_c, 0, 78, 0
1, 281493, Control_c, 0, 64, 105
1, 281839, Note_on_c, 0, 76, 73
1, 281868, Note_on_c, 0, 62, 0
1, 282107, Note_on_c, 0, 81, 67
1, 282137, Note_on_c, 0, 61, 46
1, 282156, Note_on_c, 0, 76, 0
1, 282172, Control_c, 0, 64, 97
1, 282192, Control_c, 0, 64, 78
1, 282210, Control_c, 0, 64, 43
1, 282228, Control_c, 0, 64, 0
1, 282338, Control_c, 0, 64, 37
1, 282345, Note_on_c, 0, 55, 0
1, 282355, Control_c, 0, 64, 62
1, 282375, Control_c, 0, 64, 77
1, 282392, Control_c, 0, 64, 86
1, 282410, Control_c, 0, 64, 94
1, 282428, Control_c, 0, 64, 98
1, 282485, Control_c, 0, 64, 102
1, 282727, Note_on_c, 0, 55, 35
1, 282920, Note_on_c, 0, 55, 0
1, 283192, Note_on_c, 0, 74, 48
1, 283227, Note_on_c, 0, 54, 36
1, 283291, Control_c, 0, 64, 96
1, 283310, Control_c, 0, 64, 82
1, 283317, Note_on_c, 0, 81, 0
1, 283329, Control_c, 0, 64, 58
1, 283331, Note_on_c, 0, 61, 0
1, 283345, Control_c, 0, 64, 13
1, 283364, Control_c, 0, 64, 0
1, 283694, Note_on_c, 0, 57, 43
1, 284177, Note_on_c, 0, 62, 42
1, 284215, Note_on_c, 0, 57, 0
1, 284319, Control_c, 0, 64, 19
1, 284337, Control_c, 0, 64, 38
1, 284357, Control_c, 0, 64, 55
1, 284375, Control_c, 0, 64, 66
1, 284393, Control_c, 0, 64, 70
1, 284412, Control_c, 0, 64, 73
1, 284428, Control_c, 0, 64, 76
1, 284448, Control_c, 0, 64, 79
1, 284466, Control_c, 0, 64, 82
1, 284485, Control_c, 0, 64, 85
1, 284501, Control_c, 0, 64, 87
1, 284613, Control_c, 0, 64, 91
1, 284663, Note_on_c, 0, 76, 54
1, 284729, Note_on_c, 0, 74, 0
1, 284786, Note_on_c, 0, 62, 0
1, 284798, Control_c, 0, 64, 95
1, 284872, Control_c, 0, 64, 100
1, 284882, Note_on_c, 0, 78, 64
1, 284917, Note_on_c, 0, 76, 0
1, 285192, Note_on_c, 0, 71, 53
1, 285226, Note_on_c, 0, 55, 54
1, 285252, Note_on_c, 0, 78, 0
1, 285279, Note_on_c, 0, 54, 0
1, 285329, Control_c, 0, 64, 93
1, 285347, Control_c, 0, 64, 72
1, 285364, Control_c, 0, 64, 31
1, 285383, Control_c, 0, 64, 0
1, 285456, Control_c, 0, 64, 13
1, 285474, Control_c, 0, 64, 36
1, 285493, Control_c, 0, 64, 60
1, 285512, Control_c, 0, 64, 75
1, 285531, Control_c, 0, 64, 82
1, 285550, Control_c, 0, 64, 87
1, 285587, Control_c, 0, 64, 92
1, 285678, Control_c, 0, 64, 96
1, 285800, Note_on_c, 0, 54, 39
1, 285877, Control_c, 0, 64, 85
1, 285898, Control_c, 0, 64, 68
1, 285914, Control_c, 0, 64, 53
1, 285969, Control_c, 0, 64, 59
1, 285988, Control_c, 0, 64, 67
1, 286006, Control_c, 0, 64, 74
1, 286025, Control_c, 0, 64, 82
1, 286044, Control_c, 0, 64, 89
1, 286062, Control_c, 0, 64, 94
1, 286117, Control_c, 0, 64, 99
1, 286171, Control_c, 0, 64, 104
1, 286245, Control_c, 0, 64, 109
1, 286281, Note_on_c, 0, 52, 49
1, 286336, Note_on_c, 0, 54, 0
1, 286336, Control_c, 0, 64, 93
1, 286356, Control_c, 0, 64, 72
1, 286373, Control_c, 0, 64, 52
1, 286391, Control_c, 0, 64, 48
1, 286428, Control_c, 0, 64, 55
1, 286447, Control_c, 0, 64, 64
1, 286466, Control_c, 0, 64, 71
1, 286485, Control_c, 0, 64, 74
1, 286494, Note_on_c, 0, 74, 63
1, 286577, Control_c, 0, 64, 72
1, 286584, Note_on_c, 0, 71, 0
1, 286613, Control_c, 0, 64, 69
1, 286631, Control_c, 0, 64, 67
1, 286668, Control_c, 0, 64, 66
1, 286706, Control_c, 0, 64, 63
1, 286711, Note_on_c, 0, 73, 69
1, 286725, Control_c, 0, 64, 62
1, 286729, Note_on_c, 0, 52, 0
1, 286731, Note_on_c, 0, 50, 44
1, 286744, Control_c, 0, 64, 60
1, 286753, Note_on_c, 0, 74, 0
1, 286831, Control_c, 0, 64, 58
1, 286867, Control_c, 0, 64, 55
1, 286886, Control_c, 0, 64, 53
1, 286926, Note_on_c, 0, 71, 68
1, 286930, Note_on_c, 0, 73, 0
1, 286961, Control_c, 0, 64, 50
1, 287015, Control_c, 0, 64, 48
1, 287151, Note_on_c, 0, 50, 0
1, 287153, Note_on_c, 0, 76, 67
1, 287159, Note_on_c, 0, 49, 44
1, 287181, Note_on_c, 0, 71, 0
1, 287200, Control_c, 0, 64, 46
1, 287346, Control_c, 0, 64, 44
1, 287360, Note_on_c, 0, 79, 68
1, 287392, Note_on_c, 0, 76, 0
1, 287400, Control_c, 0, 64, 42
1, 287439, Control_c, 0, 64, 38
1, 287458, Control_c, 0, 64, 31
1, 287475, Control_c, 0, 64, 15
1, 287494, Control_c, 0, 64, 0
1, 287541, Note_on_c, 0, 49, 0
1, 287582, Note_on_c, 0, 78, 66
1, 287582, Note_on_c, 0, 47, 41
1, 287589, Note_on_c, 0, 79, 0
1, 287750, Control_c, 0, 64, 41
1, 287767, Control_c, 0, 64, 65
1, 287785, Control_c, 0, 64, 76
1, 287798, Note_on_c, 0, 76, 70
1, 287803, Control_c, 0, 64, 84
1, 287817, Note_on_c, 0, 78, 0
1, 287820, Control_c, 0, 64, 92
1, 287840, Control_c, 0, 64, 98
1, 287867, Note_on_c, 0, 76, 0
1, 287877, Control_c, 0, 64, 103
1, 287977, Note_on_c, 0, 47, 0
1, 287988, Control_c, 0, 64, 107
1, 288088, Note_on_c, 0, 45, 46
1, 288116, Note_on_c, 0, 74, 64
1, 288159, Note_on_c, 0, 74, 0
1, 288184, Note_on_c, 0, 73, 60
1, 288190, Control_c, 0, 64, 98
1, 288209, Control_c, 0, 64, 81
1, 288211, Note_on_c, 0, 73, 0
1, 288226, Control_c, 0, 64, 55
1, 288233, Note_on_c, 0, 74, 69
1, 288244, Control_c, 0, 64, 0
1, 288279, Note_on_c, 0, 74, 0
1, 288296, Note_on_c, 0, 73, 71
1, 288669, Note_on_c, 0, 52, 45
1, 288725, Poly_aftertouch_c, 0, 55, 24
1, 288749, Note_on_c, 0, 55, 0
1, 288749, Poly_aftertouch_c, 0, 55, 0
1, 289115, Note_on_c, 0, 57, 46
1, 289127, Note_on_c, 0, 52, 0
1, 289538, Note_on_c, 0, 71, 53
1, 289550, Note_on_c, 0, 73, 0
1, 289557, Note_on_c, 0, 55, 37
1, 289656, Note_on_c, 0, 57, 0
1, 289731, Control_c, 0, 64, 12
1, 289748, Control_c, 0, 64, 16
1, 289786, Control_c, 0, 64, 23
1, 289805, Control_c, 0, 64, 30
1, 289821, Control_c, 0, 64, 39
1, 289841, Control_c, 0, 64, 49
1, 289859, Control_c, 0, 64, 56
1, 290025, Control_c, 0, 64, 53
1, 290042, Control_c, 0, 64, 48
1, 290043, Note_on_c, 0, 54, 31
1, 290046, Note_on_c, 0, 69, 40
1, 290060, Note_on_c, 0, 71, 0
1, 290060, Control_c, 0, 64, 34
1, 290080, Control_c, 0, 64, 0
1, 290118, Note_on_c, 0, 55, 0
1, 290231, Poly_aftertouch_c, 0, 45, 24
1, 290247, Control_c, 0, 64, 34
1, 290264, Control_c, 0, 64, 52
1, 290274, Note_on_c, 0, 45, 0
1, 290274, Poly_aftertouch_c, 0, 45, 0
1, 290281, Control_c, 0, 64, 66
1, 290302, Control_c, 0, 64, 72
1, 290319, Control_c, 0, 64, 77
1, 290338, Control_c, 0, 64, 82
1, 290355, Control_c, 0, 64, 88
1, 290374, Control_c, 0, 64, 92
1, 290392, Control_c, 0, 64, 96
1, 290420, Poly_aftertouch_c, 0, 74, 0
1, 290430, Control_c, 0, 64, 101
1, 290486, Control_c, 0, 64, 106
1, 290555, Control_c, 0, 64, 111
1, 290591, Control_c, 0, 64, 116
1, 290646, Control_c, 0, 64, 120
1, 290658, Note_on_c, 0, 69, 0
1, 290693, Note_on_c, 0, 50, 38
1, 290775, Control_c, 0, 64, 124
1, 290946, Note_on_c, 0, 69, 59
1, 290978, Note_on_c, 0, 69, 0
1, 290998, Note_on_c, 0, 67, 59
1, 291034, Note_on_c, 0, 67, 0
1, 291060, Note_on_c, 0, 69, 68
1, 291107, Note_on_c, 0, 69, 0
1, 291109, Note_on_c, 0, 52, 51
1, 291153, Note_on_c, 0, 50, 0
1, 291165, Control_c, 0, 64, 115
1, 291181, Control_c, 0, 64, 104
1, 291189, Note_on_c, 0, 54, 0
1, 291200, Control_c, 0, 64, 83
1, 291218, Control_c, 0, 64, 52
1, 291236, Control_c, 0, 64, 0
1, 291314, Poly_aftertouch_c, 0, 67, 0
1, 291346, Note_on_c, 0, 66, 60
1, 291577, Note_on_c, 0, 67, 47
1, 291591, Note_on_c, 0, 66, 0
1, 291604, Note_on_c, 0, 50, 38
1, 291749, Control_c, 0, 64, 18
1, 291766, Control_c, 0, 64, 43
1, 291784, Control_c, 0, 64, 62
1, 291804, Control_c, 0, 64, 73
1, 291822, Control_c, 0, 64, 79
1, 291840, Control_c, 0, 64, 86
1, 291860, Control_c, 0, 64, 92
1, 291878, Control_c, 0, 64, 96
1, 291910, Note_on_c, 0, 67, 0
1, 291912, Control_c, 0, 64, 101
1, 292204, Note_on_c, 0, 49, 36
1, 292209, Note_on_c, 0, 76, 65
1, 292263, Control_c, 0, 64, 93
1, 292283, Control_c, 0, 64, 72
1, 292301, Control_c, 0, 64, 33
1, 292320, Control_c, 0, 64, 0
1, 292336, Note_on_c, 0, 50, 0
1, 292409, Control_c, 0, 64, 19
1, 292421, Note_on_c, 0, 52, 0
1, 292426, Control_c, 0, 64, 45
1, 292445, Control_c, 0, 64, 69
1, 292462, Control_c, 0, 64, 83
1, 292481, Control_c, 0, 64, 93
1, 292518, Control_c, 0, 64, 97
1, 292773, Note_on_c, 0, 52, 57
1, 292794, Control_c, 0, 64, 87
1, 292814, Control_c, 0, 64, 67
1, 292833, Control_c, 0, 64, 26
1, 292849, Control_c, 0, 64, 0
1, 292942, Control_c, 0, 64, 26
1, 292960, Control_c, 0, 64, 50
1, 292979, Control_c, 0, 64, 71
1, 292997, Control_c, 0, 64, 82
1, 293016, Control_c, 0, 64, 90
1, 293053, Control_c, 0, 64, 95
1, 293144, Control_c, 0, 64, 99
1, 293229, Note_on_c, 0, 57, 57
1, 293256, Control_c, 0, 64, 87
1, 293274, Control_c, 0, 64, 66
1, 293293, Control_c, 0, 64, 31
1, 293301, Note_on_c, 0, 52, 0
1, 293324, Control_c, 0, 64, 0
1, 293361, Control_c, 0, 64, 10
1, 293381, Control_c, 0, 64, 35
1, 293399, Control_c, 0, 64, 57
1, 293417, Control_c, 0, 64, 73
1, 293434, Control_c, 0, 64, 82
1, 293454, Control_c, 0, 64, 89
1, 293509, Control_c, 0, 64, 93
1, 293583, Control_c, 0, 64, 98
1, 293682, Note_on_c, 0, 47, 43
1, 293694, Note_on_c, 0, 74, 65
1, 293711, Control_c, 0, 64, 80
1, 293722, Note_on_c, 0, 49, 0
1, 293729, Control_c, 0, 64, 48
1, 293735, Note_on_c, 0, 76, 0
1, 293749, Control_c, 0, 64, 0
1, 293841, Control_c, 0, 64, 27
1, 293858, Control_c, 0, 64, 50
1, 293876, Control_c, 0, 64, 70
1, 293896, Control_c, 0, 64, 81
1, 293898, Note_on_c, 0, 73, 74
1, 293900, Note_on_c, 0, 74, 0
1, 293915, Control_c, 0, 64, 88
1, 293952, Control_c, 0, 64, 92
1, 294043, Control_c, 0, 64, 96
1, 294130, Note_on_c, 0, 79, 74
1, 294148, Note_on_c, 0, 45, 46
1, 294153, Control_c, 0, 64, 86
1, 294173, Control_c, 0, 64, 61
1, 294182, Note_on_c, 0, 47, 0
1, 294190, Control_c, 0, 64, 0
1, 294208, Note_on_c, 0, 73, 0
1, 294298, Control_c, 0, 64, 19
1, 294316, Control_c, 0, 64, 39
1, 294334, Control_c, 0, 64, 60
1, 294352, Control_c, 0, 64, 73
1, 294353, Control_c, 0, 67, 8
1, 294370, Control_c, 0, 64, 80
1, 294389, Control_c, 0, 64, 84
1, 294408, Control_c, 0, 64, 87
1, 294464, Control_c, 0, 64, 91
1, 294557, Control_c, 0, 64, 95
1, 294590, Control_c, 0, 64, 79
1, 294592, Note_on_c, 0, 50, 63
1, 294610, Control_c, 0, 64, 62
1, 294629, Control_c, 0, 64, 49
1, 294632, Note_on_c, 0, 57, 0
1, 294667, Control_c, 0, 64, 55
1, 294685, Control_c, 0, 64, 64
1, 294704, Control_c, 0, 64, 71
1, 294720, Control_c, 0, 64, 77
1, 294739, Control_c, 0, 64, 82
1, 294758, Control_c, 0, 64, 84
1, 294777, Control_c, 0, 64, 86
1, 294787, Note_on_c, 0, 78, 75
1, 294835, Note_on_c, 0, 79, 0
1, 294876, Note_on_c, 0, 76, 77
1, 294919, Note_on_c, 0, 78, 0
1, 295052, Control_c, 0, 64, 82
1, 295070, Control_c, 0, 64, 77
1, 295089, Control_c, 0, 64, 67
1, 295108, Control_c, 0, 64, 51
1, 295115, Note_on_c, 0, 81, 75
1, 295127, Control_c, 0, 64, 22
1, 295130, Note_on_c, 0, 49, 46
1, 295144, Control_c, 0, 64, 0
1, 295151, Note_on_c, 0, 76, 0
1, 295179, Note_on_c, 0, 50, 0
1, 295271, Control_c, 0, 64, 15
1, 295287, Control_c, 0, 64, 43
1, 295306, Control_c, 0, 64, 65
1, 295324, Control_c, 0, 64, 77
1, 295344, Control_c, 0, 64, 85
1, 295363, Control_c, 0, 64, 90
1, 295399, Control_c, 0, 64, 95
1, 295638, Note_on_c, 0, 45, 0
1, 295734, Note_on_c, 0, 43, 33
1, 295930, Note_on_c, 0, 43, 0
1, 295947, Note_on_c, 0, 78, 72
1, 295980, Note_on_c, 0, 81, 0
1, 296246, Note_on_c, 0, 76, 62
1, 296272, Note_on_c, 0, 78, 0
1, 296302, Note_on_c, 0, 50, 60
1, 296326, Note_on_c, 0, 42, 45
1, 296335, Control_c, 0, 64, 87
1, 296346, Note_on_c, 0, 49, 0
1, 296354, Control_c, 0, 64, 66
1, 296371, Control_c, 0, 64, 28
1, 296389, Control_c, 0, 64, 0
1, 296462, Control_c, 0, 64, 14
1, 296481, Control_c, 0, 64, 39
1, 296500, Control_c, 0, 64, 63
1, 296518, Control_c, 0, 64, 79
1, 296537, Control_c, 0, 64, 90
1, 296556, Control_c, 0, 64, 97
1, 296591, Control_c, 0, 64, 101
1, 296611, Control_c, 0, 67, 0
1, 296766, Note_on_c, 0, 76, 0
1, 296779, Note_on_c, 0, 74, 52
1, 296834, Note_on_c, 0, 52, 61
1, 296869, Control_c, 0, 64, 90
1, 296887, Control_c, 0, 64, 65
1, 296895, Note_on_c, 0, 50, 0
1, 296904, Control_c, 0, 64, 0
1, 297016, Control_c, 0, 64, 31
1, 297035, Control_c, 0, 64, 53
1, 297067, Control_c, 0, 64, 70
1, 297086, Control_c, 0, 64, 76
1, 297103, Control_c, 0, 64, 79
1, 297142, Control_c, 0, 64, 81
1, 297195, Control_c, 0, 67, 8
1, 297271, Control_c, 0, 64, 78
1, 297289, Control_c, 0, 64, 68
1, 297307, Control_c, 0, 64, 46
1, 297308, Control_c, 0, 67, 12
1, 297309, Note_on_c, 0, 54, 50
1, 297325, Control_c, 0, 64, 0
1, 297361, Note_on_c, 0, 52, 0
1, 297417, Control_c, 0, 67, 17
1, 297435, Control_c, 0, 64, 29
1, 297454, Control_c, 0, 64, 56
1, 297473, Control_c, 0, 64, 72
1, 297474, Control_c, 0, 67, 21
1, 297492, Control_c, 0, 64, 79
1, 297512, Control_c, 0, 64, 85
1, 297520, Note_on_c, 0, 42, 0
1, 297528, Control_c, 0, 64, 88
1, 297566, Control_c, 0, 64, 92
1, 297638, Control_c, 0, 64, 96
1, 297656, Control_c, 0, 67, 26
1, 297692, Control_c, 0, 67, 30
1, 297730, Control_c, 0, 67, 34
1, 297780, Note_on_c, 0, 43, 43
1, 297784, Control_c, 0, 67, 39
1, 297805, Control_c, 0, 64, 92
1, 297823, Control_c, 0, 64, 74
1, 297826, Control_c, 0, 67, 44
1, 297839, Control_c, 0, 64, 41
1, 297859, Control_c, 0, 64, 0
1, 297861, Control_c, 0, 67, 49
1, 297896, Control_c, 0, 67, 54
1, 297914, Control_c, 0, 64, 26
1, 297934, Control_c, 0, 64, 47
1, 297935, Control_c, 0, 67, 62
1, 297952, Control_c, 0, 64, 70
1, 297954, Control_c, 0, 67, 68
1, 297971, Control_c, 0, 64, 81
1, 297972, Control_c, 0, 67, 72
1, 297988, Note_on_c, 0, 71, 61
1, 298001, Control_c, 0, 64, 90
1, 298004, Control_c, 0, 67, 77
1, 298007, Note_on_c, 0, 74, 0
1, 298021, Control_c, 0, 67, 81
1, 298041, Control_c, 0, 64, 94
1, 298042, Control_c, 0, 67, 86
1, 298077, Control_c, 0, 67, 94
1, 298078, Note_on_c, 0, 54, 0
1, 298095, Control_c, 0, 67, 98
1, 298112, Control_c, 0, 67, 102
1, 298131, Control_c, 0, 67, 106
1, 298150, Control_c, 0, 67, 111
1, 298169, Control_c, 0, 67, 115
1, 298206, Control_c, 0, 67, 120
1, 298242, Control_c, 0, 67, 124
1, 298312, Note_on_c, 0, 71, 0
1, 298336, Note_on_c, 0, 74, 54
1, 298370, Control_c, 0, 64, 80
1, 298373, Note_on_c, 0, 52, 50
1, 298386, Note_on_c, 0, 43, 0
1, 298390, Control_c, 0, 64, 54
1, 298396, Note_on_c, 0, 45, 42
1, 298408, Control_c, 0, 64, 0
1, 298454, Note_on_c, 0, 74, 0
1, 298520, Control_c, 0, 64, 23
1, 298537, Control_c, 0, 64, 50
1, 298554, Control_c, 0, 64, 68
1, 298573, Control_c, 0, 64, 75
1, 298592, Control_c, 0, 64, 77
1, 298648, Control_c, 0, 64, 79
1, 298693, Note_on_c, 0, 74, 45
1, 298724, Note_on_c, 0, 74, 0
1, 298746, Note_on_c, 0, 73, 60
1, 298787, Note_on_c, 0, 73, 0
1, 298810, Note_on_c, 0, 74, 66
1, 298812, Control_c, 0, 64, 77
1, 298832, Control_c, 0, 64, 69
1, 298850, Control_c, 0, 64, 51
1, 298864, Note_on_c, 0, 74, 0
1, 298867, Control_c, 0, 64, 19
1, 298888, Control_c, 0, 64, 0
1, 298889, Note_on_c, 0, 73, 53
1, 298908, Note_on_c, 0, 54, 47
1, 298961, Note_on_c, 0, 52, 0
1, 299441, Note_on_c, 0, 55, 38
1, 299489, Note_on_c, 0, 54, 0
1, 300140, Note_on_c, 0, 74, 47
1, 300145, Note_on_c, 0, 73, 0
1, 300280, Control_c, 0, 64, 38
1, 300298, Control_c, 0, 64, 60
1, 300317, Control_c, 0, 64, 74
1, 300336, Control_c, 0, 64, 82
1, 300352, Control_c, 0, 64, 91
1, 300360, Poly_aftertouch_c, 0, 45, 24
1, 300372, Control_c, 0, 64, 96
1, 300400, Note_on_c, 0, 74, 0
1, 300409, Control_c, 0, 64, 102
1, 300412, Note_on_c, 0, 45, 0
1, 300412, Poly_aftertouch_c, 0, 45, 0
1, 300445, Control_c, 0, 64, 106
1, 300500, Control_c, 0, 64, 110
1, 300910, Note_on_c, 0, 50, 36
1, 300932, Note_on_c, 0, 74, 51
1, 300995, Control_c, 0, 64, 104
1, 300998, Note_on_c, 0, 74, 0
1, 301013, Control_c, 0, 64, 91
1, 301033, Control_c, 0, 64, 69
1, 301045, Note_on_c, 0, 73, 48
1, 301050, Control_c, 0, 64, 46
1, 301067, Control_c, 0, 64, 32
1, 301136, Note_on_c, 0, 73, 0
1, 301144, Note_on_c, 0, 74, 49
1, 301611, Note_on_c, 0, 54, 49
1, 301717, Note_on_c, 0, 55, 0
1, 301860, Note_on_c, 0, 52, 54
1, 301887, Note_on_c, 0, 54, 0
1, 301942, Note_on_c, 0, 50, 0
1, 302138, Note_on_c, 0, 54, 48
1, 302181, Note_on_c, 0, 52, 0
1, 302398, Poly_aftertouch_c, 0, 76, 0
1, 302666, Control_c, 0, 64, 17
1, 302699, Control_c, 0, 64, 0
1, 302706, Note_on_c, 0, 50, 40
1, 302856, Note_on_c, 0, 50, 0
1, 302920, Control_c, 0, 64, 15
1, 302939, Control_c, 0, 64, 43
1, 302957, Control_c, 0, 64, 61
1, 302976, Control_c, 0, 64, 70
1, 302995, Control_c, 0, 64, 76
1, 303012, Control_c, 0, 64, 81
1, 303031, Control_c, 0, 64, 86
1, 303034, Note_on_c, 0, 54, 0
1, 303050, Control_c, 0, 64, 92
1, 303068, Control_c, 0, 64, 96
1, 303105, Control_c, 0, 64, 100
1, 303537, Note_on_c, 0, 38, 34
1, 303654, Control_c, 0, 64, 94
1, 303671, Control_c, 0, 64, 86
1, 303691, Control_c, 0, 64, 73
1, 303709, Control_c, 0, 64, 57
1, 303727, Control_c, 0, 64, 40
1, 303765, Control_c, 0, 64, 0
1, 304040, Control_c, 0, 64, 28
1, 304060, Control_c, 0, 64, 45
1, 304078, Control_c, 0, 64, 63
1, 304096, Control_c, 0, 64, 71
1, 304113, Control_c, 0, 64, 74
1, 304132, Control_c, 0, 64, 77
1, 304151, Control_c, 0, 64, 80
1, 304167, Control_c, 0, 64, 83
1, 304187, Control_c, 0, 64, 88
1, 304205, Control_c, 0, 64, 92
1, 304242, Control_c, 0, 64, 97
1, 304255, Poly_aftertouch_c, 0, 38, 24
1, 304288, Note_on_c, 0, 74, 0
1, 304328, Note_on_c, 0, 38, 0
1, 304328, Poly_aftertouch_c, 0, 38, 0
1, 305499, Note_on_c, 0, 71, 47
1, 305519, Note_on_c, 0, 43, 34
1, 305579, Control_c, 0, 64, 90
1, 305598, Control_c, 0, 64, 78
1, 305616, Control_c, 0, 64, 61
1, 305635, Control_c, 0, 64, 39
1, 305651, Control_c, 0, 64, 0
1, 305686, Note_on_c, 0, 71, 0
1, 305726, Note_on_c, 0, 69, 46
1, 305937, Note_on_c, 0, 69, 0
1, 305953, Note_on_c, 0, 71, 42
1, 306058, Control_c, 0, 64, 14
1, 306076, Control_c, 0, 64, 34
1, 306096, Control_c, 0, 64, 54
1, 306112, Control_c, 0, 64, 69
1, 306131, Control_c, 0, 64, 75
1, 306149, Control_c, 0, 64, 78
1, 306186, Control_c, 0, 64, 83
1, 306206, Control_c, 0, 64, 87
1, 306224, Control_c, 0, 64, 92
1, 306259, Control_c, 0, 64, 96
1, 306372, Control_c, 0, 64, 101
1, 306514, Control_c, 0, 64, 105
1, 306876, Note_on_c, 0, 55, 40
1, 306939, Control_c, 0, 64, 100
1, 306959, Control_c, 0, 64, 87
1, 306975, Control_c, 0, 64, 58
1, 306993, Control_c, 0, 64, 0
1, 307106, Control_c, 0, 64, 24
1, 307123, Control_c, 0, 64, 48
1, 307141, Control_c, 0, 64, 70
1, 307152, Note_on_c, 0, 71, 0
1, 307159, Control_c, 0, 64, 80
1, 307181, Control_c, 0, 64, 88
1, 307195, Control_c, 0, 64, 93
1, 307233, Control_c, 0, 64, 98
1, 307309, Control_c, 0, 64, 102
1, 307415, Control_c, 0, 64, 106
1, 307535, Note_on_c, 0, 72, 49
1, 307541, Control_c, 0, 64, 93
1, 307561, Control_c, 0, 64, 71
1, 307580, Control_c, 0, 64, 47
1, 307598, Control_c, 0, 64, 44
1, 307618, Control_c, 0, 64, 48
1, 307635, Control_c, 0, 64, 62
1, 307654, Control_c, 0, 64, 74
1, 307657, Poly_aftertouch_c, 0, 43, 24
1, 307671, Control_c, 0, 64, 86
1, 307690, Control_c, 0, 64, 98
1, 307704, Note_on_c, 0, 43, 0
1, 307704, Poly_aftertouch_c, 0, 43, 0
1, 307708, Control_c, 0, 64, 104
1, 307711, Note_on_c, 0, 72, 0
1, 307746, Control_c, 0, 64, 110
1, 307820, Control_c, 0, 64, 115
1, 308054, Note_on_c, 0, 52, 36
1, 308068, Note_on_c, 0, 71, 56
1, 308101, Note_on_c, 0, 71, 0
1, 308132, Control_c, 0, 64, 111
1, 308144, Note_on_c, 0, 69, 57
1, 308151, Control_c, 0, 64, 96
1, 308168, Note_on_c, 0, 69, 0
1, 308168, Control_c, 0, 64, 69
1, 308188, Control_c, 0, 64, 21
1, 308195, Note_on_c, 0, 71, 65
1, 308206, Control_c, 0, 64, 0
1, 308243, Note_on_c, 0, 71, 0
1, 308265, Note_on_c, 0, 69, 55
1, 308552, Control_c, 0, 64, 25
1, 308571, Control_c, 0, 64, 47
1, 308589, Control_c, 0, 64, 69
1, 308607, Control_c, 0, 64, 81
1, 308626, Control_c, 0, 64, 91
1, 308643, Control_c, 0, 64, 97
1, 308663, Control_c, 0, 64, 101
1, 308698, Control_c, 0, 64, 108
1, 308735, Control_c, 0, 64, 112
1, 308760, Note_on_c, 0, 69, 0
1, 308792, Control_c, 0, 64, 117
1, 309022, Note_on_c, 0, 52, 0
1, 309247, Note_on_c, 0, 67, 52
1, 309516, Note_on_c, 0, 67, 0
1, 309520, Note_on_c, 0, 74, 50
1, 309530, Note_on_c, 0, 47, 33
1, 309597, Control_c, 0, 64, 108
1, 309617, Control_c, 0, 64, 92
1, 309635, Control_c, 0, 64, 65
1, 309652, Control_c, 0, 64, 0
1, 309800, Control_c, 0, 64, 29
1, 309820, Control_c, 0, 64, 47
1, 309838, Control_c, 0, 64, 67
1, 309855, Control_c, 0, 64, 77
1, 309875, Control_c, 0, 64, 82
1, 309892, Control_c, 0, 64, 87
1, 309911, Control_c, 0, 64, 93
1, 309930, Control_c, 0, 64, 98
1, 309967, Control_c, 0, 64, 104
1, 310018, Note_on_c, 0, 74, 0
1, 310040, Control_c, 0, 64, 109
1, 310096, Control_c, 0, 64, 113
1, 310616, Poly_aftertouch_c, 0, 47, 24
1, 310628, Note_on_c, 0, 74, 50
1, 310669, Note_on_c, 0, 47, 0
1, 310669, Poly_aftertouch_c, 0, 47, 0
1, 310684, Note_on_c, 0, 48, 35
1, 310702, Control_c, 0, 64, 102
1, 310718, Control_c, 0, 64, 75
1, 310736, Control_c, 0, 64, 25
1, 310754, Control_c, 0, 64, 0
1, 310828, Control_c, 0, 64, 29
1, 310846, Control_c, 0, 64, 54
1, 310866, Control_c, 0, 64, 73
1, 310883, Control_c, 0, 64, 83
1, 310903, Control_c, 0, 64, 90
1, 310928, Poly_aftertouch_c, 0, 55, 24
1, 310938, Control_c, 0, 64, 95
1, 310968, Note_on_c, 0, 55, 0
1, 310968, Poly_aftertouch_c, 0, 55, 0
1, 311065, Note_on_c, 0, 74, 0
1, 311112, Note_on_c, 0, 76, 51
1, 311173, Note_on_c, 0, 76, 0
1, 311211, Control_c, 0, 64, 89
1, 311220, Note_on_c, 0, 74, 52
1, 311230, Control_c, 0, 64, 85
1, 311248, Control_c, 0, 64, 81
1, 311266, Control_c, 0, 64, 76
1, 311284, Control_c, 0, 64, 72
1, 311304, Control_c, 0, 64, 68
1, 311311, Note_on_c, 0, 74, 0
1, 311321, Control_c, 0, 64, 64
1, 311339, Note_on_c, 0, 55, 41
1, 311339, Note_on_c, 0, 76, 44
1, 311341, Control_c, 0, 64, 60
1, 311359, Control_c, 0, 64, 56
1, 311378, Control_c, 0, 64, 49
1, 311396, Control_c, 0, 64, 35
1, 311414, Control_c, 0, 64, 9
1, 311432, Control_c, 0, 64, 0
1, 311819, Note_on_c, 0, 57, 40
1, 311847, Note_on_c, 0, 55, 0
1, 312275, Note_on_c, 0, 59, 41
1, 312349, Note_on_c, 0, 57, 0
1, 312424, Control_c, 0, 64, 27
1, 312440, Control_c, 0, 64, 48
1, 312453, Note_on_c, 0, 76, 0
1, 312460, Control_c, 0, 64, 71
1, 312478, Control_c, 0, 64, 84
1, 312496, Control_c, 0, 64, 96
1, 312516, Control_c, 0, 64, 102
1, 312540, Note_on_c, 0, 48, 0
1, 312553, Control_c, 0, 64, 107
1, 312589, Control_c, 0, 64, 112
1, 312625, Control_c, 0, 64, 116
1, 312826, Note_on_c, 0, 67, 45
1, 312867, Note_on_c, 0, 57, 39
1, 312867, Note_on_c, 0, 60, 42
1, 312879, Poly_aftertouch_c, 0, 59, 24
1, 312927, Note_on_c, 0, 59, 0
1, 312927, Poly_aftertouch_c, 0, 59, 0
1, 312939, Control_c, 0, 64, 98
1, 312957, Control_c, 0, 64, 70
1, 312991, Control_c, 0, 64, 12
1, 313009, Control_c, 0, 64, 0
1, 313424, Note_on_c, 0, 66, 39
1, 313481, Note_on_c, 0, 67, 0
1, 313543, Control_c, 0, 64, 29
1, 313561, Control_c, 0, 64, 51
1, 313580, Control_c, 0, 64, 71
1, 313587, Poly_aftertouch_c, 0, 57, 24
1, 313597, Control_c, 0, 64, 83
1, 313615, Control_c, 0, 64, 94
1, 313628, Note_on_c, 0, 57, 0
1, 313628, Poly_aftertouch_c, 0, 57, 0
1, 313635, Control_c, 0, 64, 99
1, 313690, Control_c, 0, 64, 105
1, 313728, Control_c, 0, 64, 109
1, 313949, Note_on_c, 0, 57, 34
1, 313964, Control_c, 0, 64, 102
1, 313966, Note_on_c, 0, 54, 32
1, 313982, Control_c, 0, 64, 76
1, 314000, Control_c, 0, 64, 18
1, 314018, Control_c, 0, 64, 0
1, 314072, Note_on_c, 0, 60, 0
1, 314091, Control_c, 0, 64, 31
1, 314111, Control_c, 0, 64, 58
1, 314128, Control_c, 0, 64, 75
1, 314148, Control_c, 0, 64, 85
1, 314167, Control_c, 0, 64, 92
1, 314203, Control_c, 0, 64, 98
1, 314387, Control_c, 0, 64, 102
1, 314416, Note_on_c, 0, 66, 0
1, 314437, Note_on_c, 0, 72, 47
1, 314442, Control_c, 0, 64, 91
1, 314460, Control_c, 0, 64, 63
1, 314478, Control_c, 0, 64, 0
1, 314551, Control_c, 0, 64, 23
1, 314569, Control_c, 0, 64, 55
1, 314589, Control_c, 0, 64, 81
1, 314607, Control_c, 0, 64, 98
1, 314626, Control_c, 0, 64, 111
1, 314646, Note_on_c, 0, 72, 0
1, 314664, Control_c, 0, 64, 116
1, 314704, Note_on_c, 0, 54, 0
1, 314926, Note_on_c, 0, 55, 42
1, 314975, Note_on_c, 0, 72, 55
1, 314979, Poly_aftertouch_c, 0, 57, 24
1, 315004, Note_on_c, 0, 72, 0
1, 315026, Control_c, 0, 64, 105
1, 315034, Note_on_c, 0, 57, 0
1, 315034, Poly_aftertouch_c, 0, 57, 0
1, 315038, Note_on_c, 0, 71, 61
1, 315045, Control_c, 0, 64, 83
1, 315063, Note_on_c, 0, 71, 0
1, 315064, Control_c, 0, 64, 47
1, 315083, Control_c, 0, 64, 0
1, 315092, Note_on_c, 0, 72, 66
1, 315145, Note_on_c, 0, 72, 0
1, 315155, Note_on_c, 0, 71, 56
1, 315487, Control_c, 0, 64, 19
1, 315506, Control_c, 0, 64, 38
1, 315524, Control_c, 0, 64, 58
1, 315544, Control_c, 0, 64, 71
1, 315562, Control_c, 0, 64, 79
1, 315581, Control_c, 0, 64, 87
1, 315600, Control_c, 0, 64, 94
1, 315618, Control_c, 0, 64, 99
1, 315628, Note_on_c, 0, 71, 0
1, 315653, Control_c, 0, 64, 104
1, 315727, Control_c, 0, 64, 108
1, 316051, Note_on_c, 0, 69, 56
1, 316131, Note_on_c, 0, 69, 0
1, 316370, Note_on_c, 0, 69, 38
1, 316391, Note_on_c, 0, 50, 37
1, 316440, Control_c, 0, 64, 101
1, 316460, Control_c, 0, 64, 82
1, 316479, Control_c, 0, 64, 47
1, 316496, Control_c, 0, 64, 0
1, 316589, Control_c, 0, 64, 15
1, 316608, Control_c, 0, 64, 40
1, 316627, Control_c, 0, 64, 64
1, 316643, Control_c, 0, 64, 77
1, 316663, Control_c, 0, 64, 85
1, 316681, Control_c, 0, 64, 90
1, 316733, Control_c, 0, 64, 96
1, 316934, Note_on_c, 0, 52, 47
1, 317045, Control_c, 0, 64, 90
1, 317052, Note_on_c, 0, 55, 0
1, 317065, Control_c, 0, 64, 68
1, 317082, Control_c, 0, 64, 22
1, 317102, Control_c, 0, 64, 0
1, 317174, Control_c, 0, 64, 22
1, 317193, Control_c, 0, 64, 44
1, 317212, Control_c, 0, 64, 65
1, 317230, Control_c, 0, 64, 74
1, 317251, Control_c, 0, 64, 78
1, 317285, Control_c, 0, 64, 81
1, 317391, Note_on_c, 0, 54, 52
1, 317419, Note_on_c, 0, 52, 0
1, 317433, Control_c, 0, 64, 79
1, 317451, Control_c, 0, 64, 76
1, 317471, Control_c, 0, 64, 69
1, 317489, Control_c, 0, 64, 57
1, 317506, Control_c, 0, 64, 47
1, 317525, Control_c, 0, 64, 36
1, 317543, Control_c, 0, 64, 27
1, 317814, Control_c, 0, 64, 23
1, 317870, Note_on_c, 0, 57, 58
1, 317943, Note_on_c, 0, 54, 0
1, 318018, Control_c, 0, 64, 19
1, 318331, Control_c, 0, 64, 15
1, 318351, Control_c, 0, 64, 0
1, 318366, Note_on_c, 0, 62, 52
1, 318415, Note_on_c, 0, 57, 0
1, 318515, Control_c, 0, 64, 33
1, 318533, Control_c, 0, 64, 56
1, 318549, Note_on_c, 0, 50, 0
1, 318552, Control_c, 0, 64, 72
1, 318571, Control_c, 0, 64, 81
1, 318605, Control_c, 0, 64, 88
1, 318623, Control_c, 0, 64, 94
1, 318642, Control_c, 0, 64, 98
1, 318678, Control_c, 0, 64, 105
1, 318716, Control_c, 0, 64, 110
1, 318769, Control_c, 0, 64, 115
1, 318885, Note_on_c, 0, 50, 45
1, 318900, Control_c, 0, 64, 98
1, 318917, Control_c, 0, 64, 62
1, 318936, Control_c, 0, 64, 0
1, 318937, Control_c, 0, 67, 119
1, 318973, Control_c, 0, 67, 109
1, 318990, Control_c, 0, 64, 21
1, 318991, Control_c, 0, 67, 96
1, 319009, Control_c, 0, 64, 51
1, 319010, Control_c, 0, 67, 78
1, 319015, Note_on_c, 0, 69, 0
1, 319027, Control_c, 0, 64, 77
1, 319028, Control_c, 0, 67, 55
1, 319046, Control_c, 0, 64, 94
1, 319049, Control_c, 0, 67, 28
1, 319064, Control_c, 0, 64, 108
1, 319084, Control_c, 0, 64, 113
1, 319085, Control_c, 0, 67, 0
1, 319121, Control_c, 0, 64, 119
1, 319174, Control_c, 0, 64, 124
1, 319199, Note_on_c, 0, 50, 0
1, 319293, Note_on_c, 0, 62, 0
1, 319495, Note_on_c, 0, 48, 43
1, 319561, Note_on_c, 0, 78, 75
1, 319613, Control_c, 0, 64, 118
1, 319632, Control_c, 0, 64, 109
1, 319650, Control_c, 0, 64, 97
1, 319671, Control_c, 0, 64, 80
1, 319675, Note_on_c, 0, 78, 0
1, 319681, Note_on_c, 0, 76, 70
1, 319686, Control_c, 0, 64, 62
1, 319704, Control_c, 0, 64, 53
1, 319760, Control_c, 0, 64, 51
1, 319798, Control_c, 0, 64, 47
1, 319817, Control_c, 0, 64, 45
1, 319851, Control_c, 0, 64, 42
1, 319851, Note_on_c, 0, 78, 58
1, 319924, Note_on_c, 0, 76, 0
1, 319924, Control_c, 0, 64, 36
1, 319944, Control_c, 0, 64, 22
1, 319963, Control_c, 0, 64, 0
1, 320073, Control_c, 0, 64, 24
1, 320092, Control_c, 0, 64, 47
1, 320111, Control_c, 0, 64, 68
1, 320129, Control_c, 0, 64, 80
1, 320147, Control_c, 0, 64, 91
1, 320165, Control_c, 0, 64, 98
1, 320184, Control_c, 0, 64, 103
1, 320221, Control_c, 0, 64, 108
1, 320277, Control_c, 0, 64, 112
1, 320404, Control_c, 0, 64, 116
1, 320640, Control_c, 0, 64, 120
1, 320694, Note_on_c, 0, 57, 42
1, 320752, Control_c, 0, 64, 103
1, 320771, Control_c, 0, 64, 79
1, 320788, Control_c, 0, 64, 54
1, 320807, Control_c, 0, 64, 46
1, 320844, Control_c, 0, 64, 57
1, 320861, Control_c, 0, 64, 70
1, 320880, Control_c, 0, 64, 80
1, 320899, Control_c, 0, 64, 90
1, 320917, Control_c, 0, 64, 97
1, 320936, Control_c, 0, 64, 102
1, 320972, Control_c, 0, 64, 107
1, 320975, Note_on_c, 0, 78, 0
1, 321118, Control_c, 0, 64, 111
1, 321275, Note_on_c, 0, 79, 62
1, 321322, Control_c, 0, 64, 105
1, 321340, Control_c, 0, 64, 87
1, 321359, Control_c, 0, 64, 63
1, 321378, Control_c, 0, 64, 51
1, 321429, Control_c, 0, 64, 60
1, 321449, Control_c, 0, 64, 71
1, 321467, Control_c, 0, 64, 82
1, 321484, Control_c, 0, 64, 96
1, 321499, Note_on_c, 0, 79, 0
1, 321501, Control_c, 0, 64, 108
1, 321507, Note_on_c, 0, 48, 0
1, 321521, Control_c, 0, 64, 113
1, 321557, Control_c, 0, 64, 118
1, 321614, Control_c, 0, 64, 122
1, 321819, Note_on_c, 0, 48, 36
1, 321851, Note_on_c, 0, 78, 55
1, 321880, Note_on_c, 0, 78, 0
1, 321913, Note_on_c, 0, 76, 67
1, 321945, Control_c, 0, 64, 117
1, 321947, Note_on_c, 0, 76, 0
1, 321962, Note_on_c, 0, 78, 68
1, 321962, Control_c, 0, 64, 104
1, 321981, Control_c, 0, 64, 80
1, 322001, Control_c, 0, 64, 48
1, 322016, Note_on_c, 0, 78, 0
1, 322017, Control_c, 0, 64, 0
1, 322031, Note_on_c, 0, 76, 62
1, 322240, Control_c, 0, 64, 27
1, 322258, Control_c, 0, 64, 47
1, 322275, Control_c, 0, 64, 69
1, 322295, Control_c, 0, 64, 83
1, 322313, Control_c, 0, 64, 96
1, 322347, Control_c, 0, 64, 104
1, 322385, Control_c, 0, 64, 110
1, 322438, Control_c, 0, 64, 115
1, 322454, Note_on_c, 0, 76, 0
1, 322511, Control_c, 0, 64, 120
1, 322605, Control_c, 0, 64, 124
1, 322686, Note_on_c, 0, 48, 0
1, 322884, Note_on_c, 0, 74, 66
1, 323123, Note_on_c, 0, 47, 39
1, 323156, Note_on_c, 0, 79, 61
1, 323191, Note_on_c, 0, 74, 0
1, 323191, Poly_aftertouch_c, 0, 57, 24
1, 323230, Control_c, 0, 64, 108
1, 323249, Control_c, 0, 64, 77
1, 323257, Note_on_c, 0, 57, 0
1, 323257, Poly_aftertouch_c, 0, 57, 0
1, 323283, Control_c, 0, 64, 25
1, 323301, Control_c, 0, 64, 0
1, 323429, Control_c, 0, 64, 24
1, 323448, Control_c, 0, 64, 41
1, 323466, Control_c, 0, 64, 61
1, 323485, Control_c, 0, 64, 74
1, 323503, Control_c, 0, 64, 80
1, 323522, Control_c, 0, 64, 85
1, 323541, Control_c, 0, 64, 91
1, 323559, Control_c, 0, 64, 96
1, 323578, Control_c, 0, 64, 100
1, 323632, Control_c, 0, 64, 104
1, 323657, Note_on_c, 0, 50, 37
1, 323687, Control_c, 0, 64, 109
1, 323799, Control_c, 0, 64, 113
1, 323835, Note_on_c, 0, 79, 0
1, 323971, Poly_aftertouch_c, 0, 50, 24
1, 324147, Control_c, 0, 67, 11
1, 324165, Control_c, 0, 67, 16
1, 324185, Control_c, 0, 67, 21
1, 324218, Control_c, 0, 67, 27
1, 324231, Poly_aftertouch_c, 0, 50, 20
1, 324236, Control_c, 0, 67, 35
1, 324254, Control_c, 0, 67, 46
1, 324264, Note_on_c, 0, 55, 35
1, 324273, Control_c, 0, 67, 61
1, 324276, Note_on_c, 0, 52, 34
1, 324292, Control_c, 0, 67, 74
1, 324310, Control_c, 0, 64, 108
1, 324311, Control_c, 0, 67, 85
1, 324327, Control_c, 0, 67, 94
1, 324336, Note_on_c, 0, 72, 54
1, 324348, Control_c, 0, 64, 103
1, 324349, Control_c, 0, 67, 106
1, 324365, Control_c, 0, 64, 97
1, 324366, Control_c, 0, 67, 118
1, 324382, Control_c, 0, 64, 86
1, 324383, Control_c, 0, 67, 125
1, 324401, Control_c, 0, 64, 69
1, 324414, Note_on_c, 0, 50, 0
1, 324414, Poly_aftertouch_c, 0, 47, 24
1, 324414, Poly_aftertouch_c, 0, 50, 0
1, 324420, Control_c, 0, 64, 48
1, 324439, Control_c, 0, 64, 27
1, 324444, Note_on_c, 0, 72, 0
1, 324457, Control_c, 0, 64, 8
1, 324474, Note_on_c, 0, 71, 54
1, 324476, Control_c, 0, 64, 0
1, 324496, Note_on_c, 0, 47, 0
1, 324496, Poly_aftertouch_c, 0, 47, 0
1, 324616, Note_on_c, 0, 71, 0
1, 324624, Note_on_c, 0, 72, 40
1, 324881, Control_c, 0, 64, 12
1, 324900, Control_c, 0, 64, 31
1, 324918, Control_c, 0, 64, 47
1, 324937, Control_c, 0, 64, 69
1, 324955, Control_c, 0, 64, 79
1, 324975, Control_c, 0, 64, 85
1, 324991, Control_c, 0, 64, 90
1, 325009, Control_c, 0, 64, 94
1, 325047, Control_c, 0, 64, 100
1, 325101, Control_c, 0, 64, 104
1, 325435, Note_on_c, 0, 48, 34
1, 325503, Control_c, 0, 64, 97
1, 325520, Poly_aftertouch_c, 0, 52, 24
1, 325521, Control_c, 0, 64, 75
1, 325539, Control_c, 0, 64, 36
1, 325559, Control_c, 0, 64, 0
1, 325560, Note_on_c, 0, 52, 0
1, 325560, Poly_aftertouch_c, 0, 52, 0
1, 325651, Control_c, 0, 64, 17
1, 325671, Control_c, 0, 64, 38
1, 325686, Control_c, 0, 64, 58
1, 325706, Control_c, 0, 64, 70
1, 325724, Control_c, 0, 64, 74
1, 325743, Control_c, 0, 64, 76
1, 325779, Control_c, 0, 64, 79
1, 325797, Control_c, 0, 64, 82
1, 325834, Control_c, 0, 64, 84
1, 325964, Control_c, 0, 64, 73
1, 325983, Control_c, 0, 64, 51
1, 325989, Note_on_c, 0, 74, 56
1, 326000, Control_c, 0, 64, 0
1, 326037, Note_on_c, 0, 72, 0
1, 326145, Control_c, 0, 64, 11
1, 326163, Control_c, 0, 64, 29
1, 326180, Control_c, 0, 64, 39
1, 326200, Control_c, 0, 64, 42
1, 326217, Note_on_c, 0, 76, 62
1, 326253, Note_on_c, 0, 74, 0
1, 326329, Control_c, 0, 64, 38
1, 326457, Control_c, 0, 64, 34
1, 326501, Note_on_c, 0, 69, 45
1, 326522, Note_on_c, 0, 50, 34
1, 326530, Control_c, 0, 64, 29
1, 326550, Control_c, 0, 64, 23
1, 326568, Control_c, 0, 64, 16
1, 326589, Note_on_c, 0, 76, 0
1, 326605, Control_c, 0, 64, 0
1, 326620, Note_on_c, 0, 48, 0
1, 326827, Control_c, 0, 64, 14
1, 326845, Control_c, 0, 64, 30
1, 326862, Control_c, 0, 64, 45
1, 326880, Control_c, 0, 64, 62
1, 326899, Control_c, 0, 64, 71
1, 326918, Control_c, 0, 64, 74
1, 326935, Control_c, 0, 64, 76
1, 326953, Control_c, 0, 64, 78
1, 326972, Control_c, 0, 64, 81
1, 326992, Control_c, 0, 64, 83
1, 327025, Control_c, 0, 64, 85
1, 327227, Control_c, 0, 64, 83
1, 327264, Control_c, 0, 64, 81
1, 327302, Control_c, 0, 64, 78
1, 327337, Control_c, 0, 64, 76
1, 327393, Control_c, 0, 64, 74
1, 327448, Control_c, 0, 64, 72
1, 327501, Control_c, 0, 64, 70
1, 327526, Note_on_c, 0, 74, 53
1, 327557, Control_c, 0, 64, 68
1, 327561, Note_on_c, 0, 54, 46
1, 327578, Control_c, 0, 64, 67
1, 327596, Control_c, 0, 64, 66
1, 327629, Note_on_c, 0, 55, 0
1, 327631, Control_c, 0, 64, 65
1, 327637, Note_on_c, 0, 69, 0
1, 327687, Control_c, 0, 64, 63
1, 327722, Control_c, 0, 64, 62
1, 327779, Control_c, 0, 64, 61
1, 327871, Control_c, 0, 64, 60
1, 328123, Note_on_c, 0, 54, 0
1, 328136, Note_on_c, 0, 52, 40
1, 328272, Control_c, 0, 64, 58
1, 328294, Note_on_c, 0, 72, 58
1, 328339, Note_on_c, 0, 74, 0
1, 328550, Control_c, 0, 64, 56
1, 328569, Note_on_c, 0, 72, 0
1, 328571, Note_on_c, 0, 71, 51
1, 328585, Control_c, 0, 64, 49
1, 328596, Note_on_c, 0, 54, 32
1, 328604, Control_c, 0, 64, 36
1, 328622, Control_c, 0, 64, 0
1, 328715, Note_on_c, 0, 52, 0
1, 328806, Control_c, 0, 64, 25
1, 328825, Control_c, 0, 64, 43
1, 328843, Control_c, 0, 64, 60
1, 328864, Control_c, 0, 64, 70
1, 328896, Control_c, 0, 64, 74
1, 328915, Control_c, 0, 64, 77
1, 328934, Control_c, 0, 64, 79
1, 328953, Control_c, 0, 64, 82
1, 328970, Control_c, 0, 64, 86
1, 329006, Control_c, 0, 64, 91
1, 329098, Control_c, 0, 64, 95
1, 329174, Control_c, 0, 64, 99
1, 329346, Note_on_c, 0, 72, 55
1, 329360, Note_on_c, 0, 71, 0
1, 329444, Note_on_c, 0, 72, 0
1, 329486, Control_c, 0, 64, 103
1, 329666, Poly_aftertouch_c, 0, 50, 24
1, 329683, Note_on_c, 0, 55, 37
1, 329698, Note_on_c, 0, 50, 0
1, 329698, Poly_aftertouch_c, 0, 50, 0
1, 329722, Note_on_c, 0, 72, 45
1, 329741, Poly_aftertouch_c, 0, 54, 24
1, 329761, Control_c, 0, 64, 99
1, 329779, Control_c, 0, 64, 93
1, 329798, Control_c, 0, 64, 82
1, 329830, Note_on_c, 0, 54, 0
1, 329830, Poly_aftertouch_c, 0, 54, 0
1, 329831, Poly_aftertouch_c, 0, 54, 0
1, 329831, Control_c, 0, 64, 67
1, 329850, Control_c, 0, 64, 47
1, 329869, Control_c, 0, 64, 26
1, 329905, Control_c, 0, 64, 0
1, 329933, Note_on_c, 0, 72, 0
1, 329968, Note_on_c, 0, 71, 48
1, 330109, Note_on_c, 0, 71, 0
1, 330124, Note_on_c, 0, 72, 49
1, 330209, Note_on_c, 0, 72, 0
1, 330258, Note_on_c, 0, 71, 54
1, 330307, Note_on_c, 0, 71, 0
1, 330347, Note_on_c, 0, 72, 49
1, 330383, Note_on_c, 0, 72, 0
1, 330427, Note_on_c, 0, 71, 52
1, 330462, Note_on_c, 0, 71, 0
1, 330480, Note_on_c, 0, 72, 57
1, 330518, Note_on_c, 0, 72, 0
1, 330554, Note_on_c, 0, 71, 53
1, 330586, Note_on_c, 0, 71, 0
1, 330613, Note_on_c, 0, 72, 55
1, 330639, Note_on_c, 0, 72, 0
1, 330686, Note_on_c, 0, 71, 52
1, 330714, Note_on_c, 0, 71, 0
1, 330727, Note_on_c, 0, 72, 60
1, 330770, Note_on_c, 0, 72, 0
1, 330823, Note_on_c, 0, 71, 49
1, 330850, Note_on_c, 0, 71, 0
1, 330853, Note_on_c, 0, 72, 58
1, 330883, Note_on_c, 0, 72, 0
1, 330907, Note_on_c, 0, 50, 40
1, 330920, Note_on_c, 0, 71, 54
1, 331461, Note_on_c, 0, 71, 0
1, 331476, Note_on_c, 0, 69, 46
1, 331613, Control_c, 0, 64, 29
1, 331633, Control_c, 0, 64, 51
1, 331650, Control_c, 0, 64, 67
1, 331670, Control_c, 0, 64, 74
1, 331701, Control_c, 0, 64, 77
1, 331721, Control_c, 0, 64, 81
1, 331738, Control_c, 0, 64, 84
1, 331757, Control_c, 0, 64, 88
1, 331813, Control_c, 0, 64, 92
1, 331904, Poly_aftertouch_c, 0, 50, 24
1, 331928, Poly_aftertouch_c, 0, 55, 24
1, 332003, Note_on_c, 0, 67, 34
1, 332058, Note_on_c, 0, 43, 35
1, 332085, Note_on_c, 0, 69, 0
1, 332106, Control_c, 0, 64, 87
1, 332127, Control_c, 0, 64, 79
1, 332145, Control_c, 0, 64, 66
1, 332161, Note_on_c, 0, 50, 0
1, 332161, Poly_aftertouch_c, 0, 50, 0
1, 332162, Control_c, 0, 64, 46
1, 332180, Poly_aftertouch_c, 0, 55, 32
1, 332181, Control_c, 0, 64, 14
1, 332201, Control_c, 0, 64, 0
1, 332437, Poly_aftertouch_c, 0, 55, 24
1, 332550, Control_c, 0, 64, 30
1, 332568, Control_c, 0, 64, 49
1, 332585, Control_c, 0, 64, 68
1, 332606, Control_c, 0, 64, 75
1, 332636, Control_c, 0, 64, 81
1, 332656, Control_c, 0, 64, 84
1, 332674, Control_c, 0, 64, 89
1, 332675, Control_c, 0, 67, 120
1, 332692, Control_c, 0, 64, 94
1, 332712, Poly_aftertouch_c, 0, 55, 32
1, 332712, Control_c, 0, 64, 99
1, 332713, Control_c, 0, 67, 110
1, 332726, Note_on_c, 0, 67, 0
1, 332730, Control_c, 0, 67, 101
1, 332748, Control_c, 0, 67, 88
1, 332768, Control_c, 0, 67, 73
1, 332787, Control_c, 0, 67, 55
1, 332804, Control_c, 0, 64, 103
1, 332805, Control_c, 0, 67, 37
1, 332822, Control_c, 0, 67, 18
1, 332860, Control_c, 0, 67, 0
1, 332879, Note_on_c, 0, 43, 0
1, 332918, Note_on_c, 0, 55, 0
1, 332918, Poly_aftertouch_c, 0, 55, 0
1, 333374, Control_c, 0, 64, 107
1, 333426, Note_on_c, 0, 83, 82
1, 333453, Note_on_c, 0, 55, 49
1, 333468, Control_c, 0, 64, 96
1, 333484, Control_c, 0, 64, 77
1, 333503, Control_c, 0, 64, 57
1, 333523, Control_c, 0, 64, 50
1, 333572, Control_c, 0, 64, 59
1, 333591, Control_c, 0, 64, 70
1, 333609, Control_c, 0, 64, 81
1, 333628, Control_c, 0, 64, 93
1, 333647, Control_c, 0, 64, 101
1, 333684, Control_c, 0, 64, 106
1, 333776, Control_c, 0, 64, 111
1, 333851, Control_c, 0, 64, 115
1, 333937, Note_on_c, 0, 59, 72
1, 333942, Control_c, 0, 64, 109
1, 333960, Control_c, 0, 64, 95
1, 333978, Control_c, 0, 64, 75
1, 333997, Control_c, 0, 64, 62
1, 334034, Control_c, 0, 64, 66
1, 334053, Control_c, 0, 64, 75
1, 334073, Control_c, 0, 64, 85
1, 334091, Control_c, 0, 64, 97
1, 334109, Control_c, 0, 64, 103
1, 334272, Control_c, 0, 64, 107
1, 334451, Note_on_c, 0, 64, 59
1, 334477, Control_c, 0, 64, 96
1, 334508, Control_c, 0, 64, 75
1, 334527, Control_c, 0, 64, 41
1, 334544, Control_c, 0, 64, 0
1, 334558, Note_on_c, 0, 59, 0
1, 334657, Control_c, 0, 64, 34
1, 334675, Control_c, 0, 64, 61
1, 334693, Control_c, 0, 64, 82
1, 334712, Control_c, 0, 64, 96
1, 334731, Control_c, 0, 64, 105
1, 334784, Control_c, 0, 64, 110
1, 334840, Control_c, 0, 64, 115
1, 334995, Note_on_c, 0, 64, 0
1, 335135, Note_on_c, 0, 79, 71
1, 335166, Note_on_c, 0, 83, 0
1, 335227, Control_c, 0, 64, 119
1, 335244, Poly_aftertouch_c, 0, 81, 0
1, 335279, Note_on_c, 0, 79, 0
1, 335550, Note_on_c, 0, 62, 56
1, 335557, Note_on_c, 0, 79, 58
1, 335597, Note_on_c, 0, 79, 0
1, 335615, Note_on_c, 0, 78, 70
1, 335659, Note_on_c, 0, 78, 0
1, 335665, Control_c, 0, 64, 114
1, 335670, Note_on_c, 0, 79, 73
1, 335683, Control_c, 0, 64, 95
1, 335701, Control_c, 0, 64, 62
1, 335720, Control_c, 0, 64, 0
1, 335732, Note_on_c, 0, 79, 0
1, 335734, Note_on_c, 0, 78, 68
1, 335831, Control_c, 0, 64, 34
1, 335848, Control_c, 0, 64, 59
1, 335869, Control_c, 0, 64, 78
1, 335888, Control_c, 0, 64, 92
1, 335904, Control_c, 0, 64, 101
1, 335941, Control_c, 0, 64, 105
1, 336015, Control_c, 0, 64, 110
1, 336463, Note_on_c, 0, 76, 75
1, 336496, Note_on_c, 0, 78, 0
1, 336543, Note_on_c, 0, 62, 0
1, 336787, Note_on_c, 0, 61, 44
1, 336793, Note_on_c, 0, 81, 71
1, 336822, Control_c, 0, 64, 106
1, 336840, Control_c, 0, 64, 89
1, 336858, Control_c, 0, 64, 61
1, 336876, Control_c, 0, 64, 26
1, 336896, Control_c, 0, 64, 13
1, 336933, Control_c, 0, 64, 18
1, 336943, Note_on_c, 0, 76, 0
1, 336951, Control_c, 0, 64, 35
1, 336959, Note_on_c, 0, 55, 0
1, 336971, Control_c, 0, 64, 55
1, 336988, Control_c, 0, 64, 72
1, 337006, Control_c, 0, 64, 83
1, 337024, Control_c, 0, 64, 91
1, 337043, Control_c, 0, 64, 96
1, 337078, Control_c, 0, 64, 101
1, 337173, Control_c, 0, 64, 105
1, 337352, Note_on_c, 0, 55, 37
1, 337513, Note_on_c, 0, 55, 0
1, 337600, Note_on_c, 0, 61, 0
1, 337843, Note_on_c, 0, 74, 48
1, 337872, Note_on_c, 0, 54, 37
1, 337927, Note_on_c, 0, 81, 0
1, 337941, Control_c, 0, 64, 92
1, 337961, Control_c, 0, 64, 69
1, 337980, Control_c, 0, 64, 26
1, 337997, Control_c, 0, 64, 0
1, 338070, Control_c, 0, 64, 14
1, 338089, Control_c, 0, 64, 38
1, 338109, Control_c, 0, 64, 61
1, 338127, Control_c, 0, 64, 77
1, 338148, Control_c, 0, 64, 86
1, 338162, Control_c, 0, 64, 93
1, 338200, Control_c, 0, 64, 98
1, 338336, Note_on_c, 0, 57, 44
1, 338798, Note_on_c, 0, 57, 0
1, 338836, Note_on_c, 0, 62, 44
1, 338860, Control_c, 0, 64, 89
1, 338876, Control_c, 0, 64, 72
1, 338896, Control_c, 0, 64, 54
1, 338916, Control_c, 0, 64, 48
1, 338949, Control_c, 0, 64, 52
1, 338970, Control_c, 0, 64, 60
1, 338987, Control_c, 0, 64, 69
1, 339006, Control_c, 0, 64, 77
1, 339025, Control_c, 0, 64, 84
1, 339044, Control_c, 0, 64, 90
1, 339081, Control_c, 0, 64, 96
1, 339401, Note_on_c, 0, 62, 0
1, 339476, Note_on_c, 0, 76, 48
1, 339690, Note_on_c, 0, 78, 62
1, 339707, Note_on_c, 0, 76, 0
1, 339717, Note_on_c, 0, 74, 0
1, 339974, Note_on_c, 0, 78, 0
1, 339980, Note_on_c, 0, 71, 47
1, 340020, Note_on_c, 0, 55, 45
1, 340064, Note_on_c, 0, 54, 0
1, 340089, Control_c, 0, 64, 86
1, 340122, Control_c, 0, 64, 70
1, 340140, Control_c, 0, 64, 50
1, 340160, Control_c, 0, 64, 41
1, 340216, Control_c, 0, 64, 43
1, 340233, Control_c, 0, 64, 57
1, 340252, Control_c, 0, 64, 70
1, 340271, Control_c, 0, 64, 78
1, 340288, Control_c, 0, 64, 86
1, 340306, Control_c, 0, 64, 92
1, 340326, Control_c, 0, 64, 96
1, 340361, Control_c, 0, 64, 101
1, 340637, Control_c, 0, 64, 105
1, 340699, Note_on_c, 0, 54, 37
1, 341194, Note_on_c, 0, 52, 43
1, 341213, Note_on_c, 0, 54, 0
1, 341224, Control_c, 0, 64, 93
1, 341242, Control_c, 0, 64, 77
1, 341262, Control_c, 0, 64, 61
1, 341279, Control_c, 0, 64, 57
1, 341315, Control_c, 0, 64, 63
1, 341334, Control_c, 0, 64, 69
1, 341352, Control_c, 0, 64, 76
1, 341372, Control_c, 0, 64, 85
1, 341389, Control_c, 0, 64, 91
1, 341398, Note_on_c, 0, 74, 59
1, 341409, Control_c, 0, 64, 96
1, 341482, Control_c, 0, 64, 100
1, 341574, Note_on_c, 0, 71, 0
1, 341612, Control_c, 0, 64, 93
1, 341618, Note_on_c, 0, 73, 68
1, 341621, Note_on_c, 0, 52, 0
1, 341630, Control_c, 0, 64, 76
1, 341647, Note_on_c, 0, 50, 33
1, 341648, Note_on_c, 0, 74, 0
1, 341649, Control_c, 0, 64, 53
1, 341666, Control_c, 0, 64, 36
1, 341721, Control_c, 0, 64, 40
1, 341740, Control_c, 0, 64, 56
1, 341756, Control_c, 0, 64, 71
1, 341776, Control_c, 0, 64, 79
1, 341777, Control_c, 0, 67, 8
1, 341795, Control_c, 0, 64, 86
1, 341813, Control_c, 0, 64, 90
1, 341833, Note_on_c, 0, 71, 67
1, 341840, Note_on_c, 0, 73, 0
1, 341851, Control_c, 0, 64, 96
1, 341888, Control_c, 0, 64, 100
1, 342067, Control_c, 0, 64, 92
1, 342076, Note_on_c, 0, 76, 67
1, 342086, Note_on_c, 0, 49, 36
1, 342087, Control_c, 0, 64, 75
1, 342105, Control_c, 0, 64, 48
1, 342106, Note_on_c, 0, 50, 0
1, 342109, Note_on_c, 0, 71, 0
1, 342124, Control_c, 0, 64, 0
1, 342284, Note_on_c, 0, 79, 68
1, 342288, Control_c, 0, 67, 12
1, 342328, Note_on_c, 0, 76, 0
1, 342488, Note_on_c, 0, 49, 0
1, 342513, Note_on_c, 0, 47, 36
1, 342518, Note_on_c, 0, 78, 66
1, 342544, Note_on_c, 0, 79, 0
1, 342638, Control_c, 0, 64, 32
1, 342657, Control_c, 0, 64, 52
1, 342676, Control_c, 0, 64, 69
1, 342692, Control_c, 0, 64, 79
1, 342712, Control_c, 0, 64, 90
1, 342719, Note_on_c, 0, 76, 67
1, 342727, Note_on_c, 0, 78, 0
1, 342730, Control_c, 0, 64, 98
1, 342749, Control_c, 0, 64, 102
1, 342760, Note_on_c, 0, 76, 0
1, 342786, Control_c, 0, 64, 106
1, 342878, Note_on_c, 0, 47, 0
1, 342995, Note_on_c, 0, 45, 45
1, 343064, Note_on_c, 0, 74, 40
1, 343100, Note_on_c, 0, 74, 0
1, 343100, Note_on_c, 0, 73, 63
1, 343129, Note_on_c, 0, 73, 0
1, 343151, Control_c, 0, 64, 101
1, 343159, Note_on_c, 0, 74, 65
1, 343168, Control_c, 0, 64, 87
1, 343187, Control_c, 0, 64, 62
1, 343205, Control_c, 0, 64, 26
1, 343206, Control_c, 0, 67, 16
1, 343214, Note_on_c, 0, 73, 67
1, 343215, Note_on_c, 0, 74, 0
1, 343224, Control_c, 0, 64, 0
1, 343475, Poly_aftertouch_c, 0, 55, 24
1, 343486, Note_on_c, 0, 52, 45
1, 343510, Note_on_c, 0, 55, 0
1, 343510, Poly_aftertouch_c, 0, 55, 0
1, 343612, Control_c, 0, 67, 20
1, 343977, Note_on_c, 0, 57, 45
1, 344022, Note_on_c, 0, 52, 0
1, 344123, Control_c, 0, 64, 13
1, 344140, Control_c, 0, 64, 26
1, 344160, Control_c, 0, 64, 36
1, 344179, Control_c, 0, 64, 54
1, 344197, Control_c, 0, 64, 68
1, 344215, Control_c, 0, 64, 73
1, 344236, Control_c, 0, 64, 75
1, 344270, Control_c, 0, 64, 77
1, 344308, Control_c, 0, 64, 79
1, 344442, Note_on_c, 0, 55, 36
1, 344443, Note_on_c, 0, 71, 44
1, 344444, Note_on_c, 0, 73, 0
1, 344455, Control_c, 0, 64, 74
1, 344474, Control_c, 0, 64, 66
1, 344490, Control_c, 0, 64, 53
1, 344497, Note_on_c, 0, 57, 0
1, 344510, Control_c, 0, 64, 33
1, 344528, Control_c, 0, 64, 0
1, 344975, Note_on_c, 0, 54, 34
1, 344992, Note_on_c, 0, 69, 35
1, 345025, Note_on_c, 0, 71, 0
1, 345095, Note_on_c, 0, 55, 0
1, 345151, Control_c, 0, 64, 23
1, 345154, Poly_aftertouch_c, 0, 45, 24
1, 345170, Control_c, 0, 64, 47
1, 345186, Control_c, 0, 64, 64
1, 345199, Note_on_c, 0, 45, 0
1, 345199, Poly_aftertouch_c, 0, 45, 0
1, 345205, Control_c, 0, 64, 73
1, 345224, Control_c, 0, 64, 78
1, 345243, Control_c, 0, 64, 82
1, 345262, Control_c, 0, 64, 87
1, 345278, Control_c, 0, 64, 92
1, 345316, Control_c, 0, 64, 97
1, 345410, Control_c, 0, 64, 101
1, 345537, Note_on_c, 0, 69, 0
1, 345556, Control_c, 0, 67, 24
1, 345593, Control_c, 0, 67, 29
1, 345611, Control_c, 0, 67, 38
1, 345630, Control_c, 0, 67, 51
1, 345647, Control_c, 0, 67, 64
1, 345666, Control_c, 0, 67, 77
1, 345685, Control_c, 0, 67, 89
1, 345701, Note_on_c, 0, 50, 36
1, 345703, Control_c, 0, 67, 98
1, 345722, Control_c, 0, 64, 105
1, 345737, Control_c, 0, 67, 105
1, 345754, Control_c, 0, 67, 110
1, 345773, Control_c, 0, 67, 115
1, 345809, Control_c, 0, 67, 120
1, 345848, Control_c, 0, 67, 124
1, 345929, Note_on_c, 0, 69, 56
1, 345956, Note_on_c, 0, 69, 0
1, 345985, Note_on_c, 0, 67, 60
1, 346016, Note_on_c, 0, 67, 0
1, 346039, Note_on_c, 0, 69, 69
1, 346074, Note_on_c, 0, 69, 0
1, 346087, Control_c, 0, 64, 91
1, 346104, Note_on_c, 0, 67, 68
1, 346106, Control_c, 0, 64, 70
1, 346116, Note_on_c, 0, 52, 50
1, 346121, Control_c, 0, 64, 38
1, 346141, Control_c, 0, 64, 0
1, 346156, Note_on_c, 0, 54, 0
1, 346186, Note_on_c, 0, 50, 0
1, 346324, Note_on_c, 0, 67, 0
1, 346325, Note_on_c, 0, 66, 64
1, 346577, Note_on_c, 0, 66, 0
1, 346597, Note_on_c, 0, 50, 38
1, 346598, Note_on_c, 0, 67, 43
1, 346801, Control_c, 0, 64, 24
1, 346819, Control_c, 0, 64, 50
1, 346837, Control_c, 0, 64, 69
1, 346856, Control_c, 0, 64, 80
1, 346874, Control_c, 0, 64, 89
1, 346893, Control_c, 0, 64, 95
1, 346929, Control_c, 0, 64, 101
1, 346946, Note_on_c, 0, 67, 0
1, 346966, Control_c, 0, 64, 105
1, 347276, Note_on_c, 0, 49, 37
1, 347293, Note_on_c, 0, 76, 70
1, 347298, Control_c, 0, 64, 91
1, 347317, Control_c, 0, 64, 63
1, 347335, Control_c, 0, 64, 0
1, 347384, Note_on_c, 0, 50, 0
1, 347401, Note_on_c, 0, 52, 0
1, 347427, Control_c, 0, 64, 8
1, 347444, Control_c, 0, 64, 37
1, 347464, Control_c, 0, 64, 63
1, 347483, Control_c, 0, 64, 78
1, 347502, Control_c, 0, 64, 88
1, 347520, Control_c, 0, 64, 94
1, 347520, Control_c, 0, 67, 115
1, 347538, Control_c, 0, 67, 106
1, 347558, Control_c, 0, 67, 93
1, 347575, Control_c, 0, 64, 98
1, 347578, Control_c, 0, 67, 77
1, 347595, Control_c, 0, 67, 59
1, 347627, Control_c, 0, 67, 41
1, 347645, Control_c, 0, 67, 24
1, 347683, Control_c, 0, 67, 0
1, 347804, Note_on_c, 0, 52, 61
1, 347830, Control_c, 0, 64, 88
1, 347848, Control_c, 0, 64, 67
1, 347867, Control_c, 0, 64, 35
1, 347884, Control_c, 0, 64, 15
1, 347924, Control_c, 0, 64, 22
1, 347941, Control_c, 0, 64, 41
1, 347960, Control_c, 0, 64, 61
1, 347979, Control_c, 0, 64, 74
1, 347997, Control_c, 0, 64, 81
1, 348014, Control_c, 0, 64, 85
1, 348032, Control_c, 0, 64, 87
1, 348124, Control_c, 0, 64, 92
1, 348270, Note_on_c, 0, 57, 55
1, 348292, Control_c, 0, 64, 79
1, 348307, Control_c, 0, 64, 54
1, 348326, Control_c, 0, 64, 0
1, 348438, Control_c, 0, 64, 36
1, 348458, Control_c, 0, 64, 60
1, 348474, Control_c, 0, 64, 75
1, 348494, Control_c, 0, 64, 82
1, 348511, Control_c, 0, 64, 87
1, 348582, Control_c, 0, 64, 92
1, 348640, Note_on_c, 0, 52, 0
1, 348656, Control_c, 0, 64, 96
1, 348708, Note_on_c, 0, 74, 71
1, 348730, Note_on_c, 0, 47, 48
1, 348747, Control_c, 0, 64, 88
1, 348757, Note_on_c, 0, 76, 0
1, 348765, Control_c, 0, 64, 67
1, 348777, Note_on_c, 0, 49, 0
1, 348781, Control_c, 0, 64, 16
1, 348802, Control_c, 0, 64, 0
1, 348877, Control_c, 0, 64, 14
1, 348896, Control_c, 0, 64, 41
1, 348915, Control_c, 0, 64, 64
1, 348930, Note_on_c, 0, 73, 80
1, 348930, Control_c, 0, 64, 75
1, 348934, Note_on_c, 0, 74, 0
1, 348950, Control_c, 0, 64, 81
1, 348969, Control_c, 0, 64, 85
1, 348987, Control_c, 0, 64, 87
1, 349097, Control_c, 0, 64, 91
1, 349196, Note_on_c, 0, 79, 76
1, 349207, Control_c, 0, 64, 86
1, 349209, Note_on_c, 0, 45, 49
1, 349228, Control_c, 0, 64, 69
1, 349230, Note_on_c, 0, 47, 0
1, 349243, Control_c, 0, 64, 31
1, 349262, Control_c, 0, 64, 0
1, 349273, Note_on_c, 0, 73, 0
1, 349356, Control_c, 0, 64, 11
1, 349375, Control_c, 0, 64, 41
1, 349394, Control_c, 0, 64, 62
1, 349411, Control_c, 0, 64, 74
1, 349429, Control_c, 0, 64, 79
1, 349447, Control_c, 0, 64, 82
1, 349466, Control_c, 0, 64, 84
1, 349498, Control_c, 0, 64, 86
1, 349554, Control_c, 0, 64, 91
1, 349621, Note_on_c, 0, 50, 63
1, 349646, Control_c, 0, 64, 83
1, 349665, Control_c, 0, 64, 67
1, 349681, Note_on_c, 0, 57, 0
1, 349683, Control_c, 0, 64, 44
1, 349702, Control_c, 0, 64, 30
1, 349738, Control_c, 0, 64, 34
1, 349755, Control_c, 0, 64, 49
1, 349776, Control_c, 0, 64, 64
1, 349793, Control_c, 0, 64, 71
1, 349813, Control_c, 0, 64, 74
1, 349826, Note_on_c, 0, 78, 78
1, 349860, Note_on_c, 0, 79, 0
1, 349865, Control_c, 0, 64, 76
1, 349923, Note_on_c, 0, 76, 79
1, 349955, Note_on_c, 0, 78, 0
1, 350164, Control_c, 0, 64, 71
1, 350179, Control_c, 0, 64, 61
1, 350184, Note_on_c, 0, 81, 73
1, 350198, Control_c, 0, 64, 42
1, 350198, Note_on_c, 0, 49, 44
1, 350207, Note_on_c, 0, 50, 0
1, 350215, Control_c, 0, 64, 0
1, 350218, Note_on_c, 0, 76, 0
1, 350383, Control_c, 0, 64, 36
1, 350402, Control_c, 0, 64, 57
1, 350433, Control_c, 0, 64, 69
1, 350453, Control_c, 0, 64, 74
1, 350471, Control_c, 0, 64, 80
1, 350491, Control_c, 0, 64, 86
1, 350508, Control_c, 0, 64, 91
1, 350528, Control_c, 0, 64, 95
1, 350581, Control_c, 0, 64, 100
1, 350621, Note_on_c, 0, 45, 0
1, 350800, Note_on_c, 0, 43, 46
1, 350901, Note_on_c, 0, 43, 0
1, 350994, Note_on_c, 0, 78, 72
1, 351000, Note_on_c, 0, 81, 0
1, 351286, Note_on_c, 0, 76, 59
1, 351295, Note_on_c, 0, 78, 0
1, 351311, Note_on_c, 0, 50, 53
1, 351337, Note_on_c, 0, 49, 0
1, 351339, Note_on_c, 0, 42, 39
1, 351369, Control_c, 0, 64, 83
1, 351388, Control_c, 0, 64, 58
1, 351407, Control_c, 0, 64, 0
1, 351537, Control_c, 0, 64, 32
1, 351554, Control_c, 0, 64, 54
1, 351574, Control_c, 0, 64, 71
1, 351590, Control_c, 0, 64, 78
1, 351608, Control_c, 0, 64, 83
1, 351628, Control_c, 0, 64, 86
1, 351665, Control_c, 0, 64, 90
1, 351840, Note_on_c, 0, 76, 0
1, 351866, Note_on_c, 0, 74, 46
1, 351904, Control_c, 0, 64, 85
1, 351907, Note_on_c, 0, 52, 52
1, 351923, Control_c, 0, 64, 69
1, 351942, Control_c, 0, 64, 40
1, 351961, Control_c, 0, 64, 0
1, 351972, Note_on_c, 0, 50, 0
1, 352034, Control_c, 0, 64, 10
1, 352050, Control_c, 0, 64, 35
1, 352069, Control_c, 0, 64, 56
1, 352088, Control_c, 0, 64, 70
1, 352107, Control_c, 0, 64, 76
1, 352125, Control_c, 0, 64, 78
1, 352163, Control_c, 0, 64, 80
1, 352379, Control_c, 0, 64, 78
1, 352382, Note_on_c, 0, 54, 45
1, 352399, Control_c, 0, 64, 65
1, 352416, Control_c, 0, 64, 33
1, 352428, Note_on_c, 0, 52, 0
1, 352435, Control_c, 0, 64, 0
1, 352544, Control_c, 0, 64, 36
1, 352563, Control_c, 0, 64, 58
1, 352581, Control_c, 0, 64, 72
1, 352601, Control_c, 0, 64, 78
1, 352602, Control_c, 0, 67, 9
1, 352619, Control_c, 0, 64, 81
1, 352635, Note_on_c, 0, 42, 0
1, 352657, Control_c, 0, 64, 85
1, 352675, Control_c, 0, 64, 87
1, 352749, Control_c, 0, 67, 13
1, 352802, Control_c, 0, 67, 17
1, 352904, Note_on_c, 0, 43, 34
1, 352913, Control_c, 0, 67, 21
1, 352932, Control_c, 0, 64, 84
1, 352950, Control_c, 0, 64, 73
1, 352953, Control_c, 0, 67, 27
1, 352969, Control_c, 0, 64, 47
1, 352972, Control_c, 0, 67, 32
1, 352986, Control_c, 0, 64, 0
1, 353005, Control_c, 0, 67, 36
1, 353060, Control_c, 0, 67, 40
1, 353089, Note_on_c, 0, 71, 53
1, 353098, Control_c, 0, 64, 32
1, 353118, Control_c, 0, 64, 59
1, 353124, Note_on_c, 0, 74, 0
1, 353135, Control_c, 0, 64, 76
1, 353153, Control_c, 0, 64, 85
1, 353171, Control_c, 0, 64, 91
1, 353198, Note_on_c, 0, 54, 0
1, 353208, Control_c, 0, 64, 96
1, 353259, Control_c, 0, 64, 100
1, 353427, Note_on_c, 0, 71, 0
1, 353451, Note_on_c, 0, 74, 48
1, 353529, Note_on_c, 0, 52, 55
1, 353538, Control_c, 0, 64, 79
1, 353552, Note_on_c, 0, 43, 0
1, 353555, Control_c, 0, 64, 47
1, 353562, Note_on_c, 0, 45, 40
1, 353573, Control_c, 0, 64, 0
1, 353590, Note_on_c, 0, 74, 0
1, 353665, Control_c, 0, 64, 29
1, 353684, Control_c, 0, 64, 51
1, 353701, Control_c, 0, 64, 69
1, 353719, Control_c, 0, 64, 77
1, 353738, Control_c, 0, 64, 80
1, 353740, Control_c, 0, 67, 44
1, 353776, Control_c, 0, 64, 82
1, 353813, Control_c, 0, 67, 48
1, 353859, Note_on_c, 0, 74, 53
1, 353866, Control_c, 0, 67, 53
1, 353894, Note_on_c, 0, 74, 0
1, 353922, Control_c, 0, 67, 57
1, 353928, Note_on_c, 0, 73, 58
1, 353941, Control_c, 0, 64, 77
1, 353959, Control_c, 0, 64, 69
1, 353960, Note_on_c, 0, 73, 0
1, 353978, Control_c, 0, 64, 55
1, 353989, Note_on_c, 0, 74, 64
1, 353997, Control_c, 0, 64, 33
1, 353998, Control_c, 0, 67, 62
1, 354015, Control_c, 0, 64, 0
1, 354036, Note_on_c, 0, 74, 0
1, 354053, Control_c, 0, 67, 67
1, 354069, Note_on_c, 0, 73, 54
1, 354084, Note_on_c, 0, 54, 44
1, 354086, Control_c, 0, 67, 73
1, 354125, Control_c, 0, 67, 79
1, 354142, Note_on_c, 0, 52, 0
1, 354175, Control_c, 0, 67, 85
1, 354213, Control_c, 0, 67, 89
1, 354251, Control_c, 0, 67, 96
1, 354270, Control_c, 0, 67, 101
1, 354288, Control_c, 0, 67, 107
1, 354308, Control_c, 0, 67, 112
1, 354323, Control_c, 0, 67, 116
1, 354361, Control_c, 0, 67, 120
1, 354397, Control_c, 0, 67, 124
1, 354651, Note_on_c, 0, 55, 42
1, 354686, Note_on_c, 0, 54, 0
1, 355302, Note_on_c, 0, 74, 50
1, 355323, Note_on_c, 0, 73, 0
1, 355481, Control_c, 0, 64, 24
1, 355499, Control_c, 0, 64, 44
1, 355518, Control_c, 0, 64, 64
1, 355536, Control_c, 0, 64, 76
1, 355555, Control_c, 0, 64, 84
1, 355574, Control_c, 0, 64, 91
1, 355585, Poly_aftertouch_c, 0, 45, 24
1, 355591, Control_c, 0, 64, 96
1, 355598, Note_on_c, 0, 74, 0
1, 355610, Control_c, 0, 64, 100
1, 355627, Note_on_c, 0, 45, 0
1, 355627, Poly_aftertouch_c, 0, 45, 0
1, 355648, Control_c, 0, 64, 106
1, 355703, Control_c, 0, 64, 110
1, 356169, Note_on_c, 0, 50, 28
1, 356178, Note_on_c, 0, 74, 48
1, 356234, Note_on_c, 0, 74, 0
1, 356267, Control_c, 0, 64, 106
1, 356277, Note_on_c, 0, 73, 48
1, 356285, Control_c, 0, 64, 95
1, 356306, Control_c, 0, 64, 73
1, 356324, Control_c, 0, 64, 39
1, 356342, Control_c, 0, 64, 0
1, 356349, Note_on_c, 0, 73, 0
1, 356372, Note_on_c, 0, 74, 46
1, 356861, Note_on_c, 0, 54, 41
1, 356950, Note_on_c, 0, 55, 0
1, 357125, Note_on_c, 0, 52, 39
1, 357126, Note_on_c, 0, 54, 0
1, 357267, Note_on_c, 0, 50, 0
1, 357403, Note_on_c, 0, 54, 41
1, 357458, Note_on_c, 0, 52, 0
1, 358007, Note_on_c, 0, 50, 47
1, 358154, Note_on_c, 0, 50, 0
1, 358343, Control_c, 0, 64, 29
1, 358364, Control_c, 0, 64, 52
1, 358379, Control_c, 0, 64, 68
1, 358397, Control_c, 0, 64, 75
1, 358412, Note_on_c, 0, 54, 0
1, 358414, Control_c, 0, 64, 79
1, 358434, Control_c, 0, 64, 83
1, 358452, Control_c, 0, 64, 89
1, 358471, Control_c, 0, 64, 93
1, 358508, Control_c, 0, 64, 98
1, 358876, Note_on_c, 0, 38, 35
1, 358948, Control_c, 0, 64, 90
1, 358967, Control_c, 0, 64, 75
1, 358984, Control_c, 0, 64, 51
1, 359021, Control_c, 0, 64, 0
1, 359149, Control_c, 0, 64, 16
1, 359167, Control_c, 0, 64, 34
1, 359186, Control_c, 0, 64, 50
1, 359203, Control_c, 0, 64, 62
1, 359224, Control_c, 0, 64, 66
1, 359334, Control_c, 0, 67, 119
1, 359351, Control_c, 0, 67, 114
1, 359370, Control_c, 0, 67, 107
1, 359388, Control_c, 0, 64, 67
1, 359389, Control_c, 0, 67, 98
1, 359406, Control_c, 0, 67, 87
1, 359425, Control_c, 0, 67, 73
1, 359443, Control_c, 0, 64, 69
1, 359444, Control_c, 0, 67, 57
1, 359463, Control_c, 0, 67, 41
1, 359480, Control_c, 0, 67, 25
1, 359499, Control_c, 0, 67, 11
1, 359501, Poly_aftertouch_c, 0, 38, 24
1, 359519, Control_c, 0, 64, 71
1, 359530, Note_on_c, 0, 38, 0
1, 359530, Poly_aftertouch_c, 0, 38, 0
1, 359537, Note_on_c, 0, 74, 0
1, 359553, Control_c, 0, 67, 0
1, 359572, Control_c, 0, 64, 73
1, 359627, Control_c, 0, 64, 76
1, 359646, Control_c, 0, 64, 78
1, 359665, Control_c, 0, 64, 81
1, 359683, Control_c, 0, 64, 83
1, 359703, Control_c, 0, 64, 86
1, 359739, Control_c, 0, 64, 90
1, 359846, Control_c, 0, 64, 95
1, 359994, Control_c, 0, 64, 99
1, 360476, Note_on_c, 0, 78, 69
1, 360540, Note_on_c, 0, 50, 32
1, 360582, Control_c, 0, 64, 93
1, 360599, Control_c, 0, 64, 70
1, 360619, Control_c, 0, 64, 19
1, 360637, Control_c, 0, 64, 0
1, 360652, Note_on_c, 0, 76, 64
1, 360659, Note_on_c, 0, 78, 0
1, 360725, Control_c, 0, 64, 34
1, 360744, Control_c, 0, 64, 59
1, 360763, Control_c, 0, 64, 74
1, 360782, Control_c, 0, 64, 79
1, 360841, Note_on_c, 0, 78, 58
1, 360876, Note_on_c, 0, 76, 0
1, 360911, Control_c, 0, 64, 75
1, 360929, Control_c, 0, 64, 70
1, 360945, Control_c, 0, 64, 59
1, 360965, Control_c, 0, 64, 36
1, 360983, Control_c, 0, 64, 0
1, 361074, Control_c, 0, 64, 22
1, 361094, Control_c, 0, 64, 49
1, 361112, Control_c, 0, 64, 72
1, 361132, Control_c, 0, 64, 84
1, 361149, Control_c, 0, 64, 93
1, 361169, Control_c, 0, 64, 97
1, 361205, Control_c, 0, 64, 101
1, 361258, Control_c, 0, 64, 105
1, 361352, Control_c, 0, 64, 109
1, 361766, Note_on_c, 0, 62, 51
1, 361840, Note_on_c, 0, 78, 0
1, 362241, Note_on_c, 0, 79, 73
1, 362250, Control_c, 0, 64, 113
1, 362306, Control_c, 0, 64, 99
1, 362324, Control_c, 0, 64, 82
1, 362345, Control_c, 0, 64, 67
1, 362361, Control_c, 0, 64, 64
1, 362379, Control_c, 0, 64, 68
1, 362398, Control_c, 0, 64, 74
1, 362417, Control_c, 0, 64, 85
1, 362434, Control_c, 0, 64, 98
1, 362451, Control_c, 0, 64, 108
1, 362490, Control_c, 0, 64, 113
1, 362545, Control_c, 0, 64, 117
1, 362698, Note_on_c, 0, 81, 75
1, 362742, Note_on_c, 0, 60, 42
1, 362763, Control_c, 0, 64, 102
1, 362782, Note_on_c, 0, 79, 0
1, 362782, Control_c, 0, 64, 75
1, 362800, Control_c, 0, 64, 36
1, 362817, Control_c, 0, 64, 0
1, 362847, Note_on_c, 0, 50, 0
1, 362873, Control_c, 0, 64, 19
1, 362893, Control_c, 0, 64, 41
1, 362911, Control_c, 0, 64, 65
1, 362930, Control_c, 0, 64, 82
1, 362950, Control_c, 0, 64, 95
1, 362967, Control_c, 0, 64, 104
1, 363021, Control_c, 0, 64, 108
1, 363113, Control_c, 0, 64, 112
1, 363438, Note_on_c, 0, 78, 74
1, 363466, Poly_aftertouch_c, 0, 60, 24
1, 363487, Note_on_c, 0, 81, 0
1, 363503, Note_on_c, 0, 60, 0
1, 363503, Poly_aftertouch_c, 0, 60, 0
1, 363698, Note_on_c, 0, 74, 59
1, 363727, Note_on_c, 0, 59, 47
1, 363738, Note_on_c, 0, 78, 0
1, 363754, Control_c, 0, 64, 102
1, 363772, Control_c, 0, 64, 79
1, 363790, Control_c, 0, 64, 50
1, 363809, Control_c, 0, 64, 28
1, 363863, Control_c, 0, 64, 37
1, 363882, Control_c, 0, 64, 57
1, 363889, Note_on_c, 0, 62, 0
1, 363900, Control_c, 0, 64, 72
1, 363919, Control_c, 0, 64, 81
1, 363938, Control_c, 0, 64, 87
1, 363957, Control_c, 0, 64, 91
1, 363976, Control_c, 0, 64, 96
1, 364011, Control_c, 0, 64, 101
1, 364121, Control_c, 0, 64, 106
1, 364189, Note_on_c, 0, 62, 59
1, 364269, Control_c, 0, 64, 88
1, 364288, Control_c, 0, 64, 67
1, 364305, Control_c, 0, 64, 49
1, 364361, Control_c, 0, 64, 60
1, 364379, Control_c, 0, 64, 71
1, 364398, Control_c, 0, 64, 81
1, 364418, Control_c, 0, 64, 89
1, 364436, Control_c, 0, 64, 93
1, 364486, Control_c, 0, 64, 98
1, 364559, Control_c, 0, 64, 102
1, 364643, Note_on_c, 0, 74, 0
1, 364658, Note_on_c, 0, 79, 68
1, 364662, Note_on_c, 0, 59, 0
1, 364665, Note_on_c, 0, 60, 50
1, 364707, Control_c, 0, 64, 92
1, 364726, Control_c, 0, 64, 68
1, 364745, Control_c, 0, 64, 22
1, 364763, Control_c, 0, 64, 0
1, 364818, Control_c, 0, 64, 10
1, 364835, Control_c, 0, 64, 38
1, 364855, Control_c, 0, 64, 61
1, 364874, Control_c, 0, 64, 77
1, 364892, Control_c, 0, 64, 86
1, 364911, Control_c, 0, 64, 91
1, 364947, Control_c, 0, 64, 96
1, 365020, Control_c, 0, 64, 101
1, 365146, Note_on_c, 0, 59, 53
1, 365150, Control_c, 0, 64, 105
1, 365186, Note_on_c, 0, 62, 0
1, 365214, Note_on_c, 0, 60, 0
1, 365223, Control_c, 0, 64, 88
1, 365242, Control_c, 0, 64, 67
1, 365259, Control_c, 0, 64, 45
1, 365278, Control_c, 0, 64, 38
1, 365315, Control_c, 0, 64, 44
1, 365334, Control_c, 0, 64, 60
1, 365352, Control_c, 0, 64, 72
1, 365371, Control_c, 0, 64, 80
1, 365403, Control_c, 0, 64, 84
1, 365421, Control_c, 0, 64, 86
1, 365477, Control_c, 0, 64, 91
1, 365535, Control_c, 0, 64, 96
1, 365617, Note_on_c, 0, 57, 50
1, 365624, Control_c, 0, 64, 86
1, 365642, Control_c, 0, 64, 67
1, 365663, Control_c, 0, 64, 43
1, 365680, Control_c, 0, 64, 33
1, 365735, Control_c, 0, 64, 49
1, 365753, Control_c, 0, 64, 67
1, 365772, Control_c, 0, 64, 77
1, 365790, Control_c, 0, 64, 84
1, 365810, Control_c, 0, 64, 88
1, 365847, Control_c, 0, 64, 93
1, 365849, Note_on_c, 0, 79, 0
1, 365920, Control_c, 0, 64, 97
1, 366048, Control_c, 0, 64, 101
1, 366049, Note_on_c, 0, 57, 0
1, 366079, Note_on_c, 0, 81, 65
1, 366100, Note_on_c, 0, 55, 38
1, 366121, Control_c, 0, 64, 96
1, 366142, Control_c, 0, 64, 83
1, 366159, Control_c, 0, 64, 63
1, 366176, Control_c, 0, 64, 45
1, 366195, Control_c, 0, 64, 42
1, 366232, Control_c, 0, 64, 49
1, 366252, Control_c, 0, 64, 64
1, 366269, Control_c, 0, 64, 74
1, 366288, Control_c, 0, 64, 83
1, 366303, Note_on_c, 0, 83, 71
1, 366307, Control_c, 0, 64, 89
1, 366339, Control_c, 0, 64, 94
1, 366363, Note_on_c, 0, 81, 0
1, 366395, Control_c, 0, 64, 98
1, 366633, Note_on_c, 0, 78, 65
1, 366650, Control_c, 0, 64, 92
1, 366655, Note_on_c, 0, 83, 0
1, 366655, Note_on_c, 0, 60, 45
1, 366671, Note_on_c, 0, 59, 0
1, 366671, Control_c, 0, 64, 75
1, 366679, Note_on_c, 0, 55, 0
1, 366688, Control_c, 0, 64, 42
1, 366707, Control_c, 0, 64, 0
1, 366799, Control_c, 0, 64, 29
1, 366818, Control_c, 0, 64, 56
1, 366836, Control_c, 0, 64, 76
1, 366855, Control_c, 0, 64, 87
1, 366872, Control_c, 0, 64, 95
1, 366891, Control_c, 0, 64, 99
1, 366928, Control_c, 0, 64, 103
1, 367194, Poly_aftertouch_c, 0, 60, 24
1, 367292, Note_on_c, 0, 76, 44
1, 367324, Note_on_c, 0, 48, 29
1, 367365, Control_c, 0, 64, 92
1, 367380, Note_on_c, 0, 78, 0
1, 367384, Control_c, 0, 64, 72
1, 367405, Control_c, 0, 64, 47
1, 367421, Control_c, 0, 64, 33
1, 367479, Control_c, 0, 64, 51
1, 367497, Control_c, 0, 64, 67
1, 367515, Control_c, 0, 64, 75
1, 367533, Control_c, 0, 64, 80
1, 367552, Control_c, 0, 64, 84
1, 367569, Control_c, 0, 64, 86
1, 367625, Control_c, 0, 64, 91
1, 367791, Control_c, 0, 64, 96
1, 367871, Note_on_c, 0, 50, 34
1, 367884, Note_on_c, 0, 48, 0
1, 367920, Control_c, 0, 64, 85
1, 367931, Poly_aftertouch_c, 0, 60, 22
1, 367937, Control_c, 0, 64, 68
1, 367957, Control_c, 0, 64, 47
1, 367967, Note_on_c, 0, 60, 0
1, 367967, Poly_aftertouch_c, 0, 60, 0
1, 367968, Poly_aftertouch_c, 0, 60, 0
1, 367973, Control_c, 0, 64, 40
1, 368012, Control_c, 0, 64, 45
1, 368030, Control_c, 0, 64, 59
1, 368049, Control_c, 0, 64, 71
1, 368065, Control_c, 0, 64, 78
1, 368085, Control_c, 0, 64, 85
1, 368104, Control_c, 0, 64, 90
1, 368122, Control_c, 0, 64, 94
1, 368161, Control_c, 0, 64, 98
1, 368283, Control_c, 0, 64, 102
1, 368328, Note_on_c, 0, 74, 58
1, 368371, Note_on_c, 0, 59, 58
1, 368403, Note_on_c, 0, 76, 0
1, 368414, Control_c, 0, 64, 88
1, 368434, Control_c, 0, 64, 66
1, 368449, Control_c, 0, 64, 43
1, 368468, Control_c, 0, 64, 36
1, 368522, Control_c, 0, 64, 55
1, 368543, Control_c, 0, 64, 70
1, 368560, Control_c, 0, 64, 79
1, 368579, Control_c, 0, 64, 86
1, 368617, Control_c, 0, 64, 90
1, 368689, Control_c, 0, 64, 94
1, 368797, Note_on_c, 0, 74, 0
1, 368799, Note_on_c, 0, 72, 57
1, 368824, Note_on_c, 0, 57, 45
1, 368832, Note_on_c, 0, 52, 43
1, 368856, Control_c, 0, 64, 75
1, 368874, Control_c, 0, 64, 41
1, 368880, Note_on_c, 0, 59, 0
1, 368893, Control_c, 0, 64, 0
1, 368918, Note_on_c, 0, 50, 0
1, 368983, Control_c, 0, 64, 13
1, 369001, Control_c, 0, 64, 38
1, 369020, Control_c, 0, 64, 60
1, 369039, Control_c, 0, 64, 72
1, 369058, Control_c, 0, 64, 76
1, 369114, Control_c, 0, 64, 78
1, 369261, Note_on_c, 0, 56, 52
1, 369275, Control_c, 0, 64, 65
1, 369286, Note_on_c, 0, 57, 0
1, 369293, Control_c, 0, 64, 35
1, 369311, Control_c, 0, 64, 0
1, 369404, Control_c, 0, 64, 28
1, 369423, Control_c, 0, 64, 51
1, 369440, Control_c, 0, 64, 70
1, 369457, Control_c, 0, 64, 76
1, 369464, Note_on_c, 0, 71, 59
1, 369465, Note_on_c, 0, 72, 0
1, 369477, Control_c, 0, 64, 79
1, 369514, Control_c, 0, 64, 82
1, 369533, Control_c, 0, 64, 86
1, 369552, Control_c, 0, 64, 90
1, 369570, Control_c, 0, 64, 95
1, 369723, Note_on_c, 0, 71, 0
1, 369739, Note_on_c, 0, 74, 56
1, 369754, Control_c, 0, 64, 80
1, 369761, Note_on_c, 0, 57, 41
1, 369773, Control_c, 0, 64, 49
1, 369776, Note_on_c, 0, 52, 0
1, 369791, Control_c, 0, 64, 0
1, 369802, Note_on_c, 0, 56, 0
1, 369883, Control_c, 0, 64, 23
1, 369901, Control_c, 0, 64, 47
1, 369920, Control_c, 0, 64, 68
1, 369927, Note_on_c, 0, 74, 0
1, 369936, Control_c, 0, 64, 77
1, 369953, Note_on_c, 0, 72, 55
1, 369955, Control_c, 0, 64, 83
1, 369975, Control_c, 0, 64, 85
1, 370012, Control_c, 0, 64, 87
1, 370060, Note_on_c, 0, 72, 0
1, 370102, Note_on_c, 0, 74, 56
1, 370118, Control_c, 0, 64, 91
1, 370172, Note_on_c, 0, 74, 0
1, 370208, Note_on_c, 0, 72, 63
1, 370232, Note_on_c, 0, 52, 43
1, 370248, Control_c, 0, 64, 88
1, 370257, Note_on_c, 0, 72, 0
1, 370267, Control_c, 0, 64, 78
1, 370286, Control_c, 0, 64, 68
1, 370301, Note_on_c, 0, 74, 50
1, 370303, Control_c, 0, 64, 65
1, 370320, Control_c, 0, 64, 66
1, 370329, Note_on_c, 0, 74, 0
1, 370341, Control_c, 0, 64, 69
1, 370357, Control_c, 0, 64, 73
1, 370362, Note_on_c, 0, 72, 59
1, 370376, Control_c, 0, 64, 78
1, 370393, Control_c, 0, 64, 84
1, 370403, Note_on_c, 0, 72, 0
1, 370412, Control_c, 0, 64, 89
1, 370413, Note_on_c, 0, 74, 70
1, 370432, Control_c, 0, 64, 94
1, 370456, Note_on_c, 0, 74, 0
1, 370489, Note_on_c, 0, 72, 66
1, 370506, Control_c, 0, 64, 98
1, 370523, Note_on_c, 0, 72, 0
1, 370530, Note_on_c, 0, 74, 67
1, 370566, Note_on_c, 0, 74, 0
1, 370612, Note_on_c, 0, 72, 50
1, 370628, Note_on_c, 0, 74, 71
1, 370639, Note_on_c, 0, 72, 0
1, 370675, Note_on_c, 0, 74, 0
1, 370688, Control_c, 0, 64, 83
1, 370694, Note_on_c, 0, 45, 45
1, 370707, Control_c, 0, 64, 65
1, 370714, Note_on_c, 0, 72, 55
1, 370727, Control_c, 0, 64, 40
1, 370745, Control_c, 0, 64, 16
1, 370763, Control_c, 0, 64, 0
1, 370772, Note_on_c, 0, 52, 0
1, 371148, Note_on_c, 0, 71, 62
1, 371156, Note_on_c, 0, 72, 0
1, 371168, Note_on_c, 0, 47, 37
1, 371202, Control_c, 0, 64, 15
1, 371221, Control_c, 0, 64, 28
1, 371239, Note_on_c, 0, 45, 0
1, 371239, Control_c, 0, 64, 36
1, 371256, Control_c, 0, 64, 43
1, 371274, Control_c, 0, 64, 46
1, 371587, Control_c, 0, 64, 44
1, 371601, Note_on_c, 0, 69, 42
1, 371621, Note_on_c, 0, 48, 35
1, 371647, Note_on_c, 0, 71, 0
1, 371688, Note_on_c, 0, 47, 0
1, 371689, Note_on_c, 0, 57, 0
1, 371845, Control_c, 0, 64, 42
1, 371970, Control_c, 0, 64, 40
1, 372008, Control_c, 0, 64, 27
1, 372026, Control_c, 0, 64, 0
1, 372132, Note_on_c, 0, 52, 40
1, 372211, Control_c, 0, 64, 19
1, 372229, Control_c, 0, 64, 50
1, 372243, Note_on_c, 0, 69, 0
1, 372247, Note_on_c, 0, 48, 0
1, 372248, Control_c, 0, 64, 74
1, 372265, Control_c, 0, 64, 90
1, 372283, Control_c, 0, 64, 107
1, 372297, Note_on_c, 0, 52, 0
1, 372301, Control_c, 0, 64, 115
1, 372340, Control_c, 0, 64, 121
1, 372504, Control_c, 0, 64, 125
1, 372768, Note_on_c, 0, 84, 85
1, 372782, Note_on_c, 0, 57, 46
1, 372818, Control_c, 0, 64, 111
1, 372837, Control_c, 0, 64, 90
1, 372856, Control_c, 0, 64, 65
1, 372888, Control_c, 0, 64, 53
1, 372907, Control_c, 0, 64, 56
1, 372926, Control_c, 0, 64, 65
1, 372944, Control_c, 0, 64, 76
1, 372961, Control_c, 0, 64, 90
1, 372979, Control_c, 0, 64, 103
1, 372998, Control_c, 0, 64, 110
1, 373073, Control_c, 0, 64, 114
1, 373218, Note_on_c, 0, 60, 75
1, 373313, Control_c, 0, 64, 118
1, 373754, Control_c, 0, 64, 106
1, 373761, Note_on_c, 0, 66, 68
1, 373773, Control_c, 0, 64, 84
1, 373791, Control_c, 0, 64, 47
1, 373797, Note_on_c, 0, 60, 0
1, 373823, Control_c, 0, 64, 0
1, 373934, Control_c, 0, 64, 22
1, 373953, Control_c, 0, 64, 47
1, 373971, Control_c, 0, 64, 75
1, 373990, Control_c, 0, 64, 91
1, 374009, Control_c, 0, 64, 103
1, 374028, Control_c, 0, 64, 107
1, 374051, Note_on_c, 0, 57, 0
1, 374120, Control_c, 0, 64, 111
1, 374135, Note_on_c, 0, 84, 0
1, 374335, Note_on_c, 0, 83, 77
1, 374342, Note_on_c, 0, 57, 42
1, 374518, Note_on_c, 0, 81, 85
1, 374567, Note_on_c, 0, 83, 0
1, 374695, Note_on_c, 0, 66, 0
1, 374773, Note_on_c, 0, 83, 74
1, 374798, Note_on_c, 0, 55, 47
1, 374816, Control_c, 0, 64, 99
1, 374832, Control_c, 0, 64, 71
1, 374836, Note_on_c, 0, 81, 0
1, 374851, Control_c, 0, 64, 0
1, 374854, Note_on_c, 0, 57, 0
1, 374945, Control_c, 0, 64, 12
1, 374963, Control_c, 0, 64, 41
1, 374982, Control_c, 0, 64, 65
1, 375000, Control_c, 0, 64, 77
1, 375017, Control_c, 0, 64, 85
1, 375036, Control_c, 0, 64, 91
1, 375072, Control_c, 0, 64, 95
1, 375234, Note_on_c, 0, 59, 48
1, 375372, Note_on_c, 0, 83, 0
1, 375408, Note_on_c, 0, 76, 67
1, 375476, Note_on_c, 0, 76, 0
1, 375551, Control_c, 0, 64, 99
1, 375695, Control_c, 0, 64, 87
1, 375697, Note_on_c, 0, 54, 39
1, 375714, Control_c, 0, 64, 58
1, 375716, Note_on_c, 0, 59, 0
1, 375724, Note_on_c, 0, 55, 0
1, 375726, Note_on_c, 0, 76, 59
1, 375733, Control_c, 0, 64, 0
1, 375806, Control_c, 0, 64, 22
1, 375824, Control_c, 0, 64, 49
1, 375842, Note_on_c, 0, 76, 0
1, 375842, Control_c, 0, 64, 73
1, 375861, Control_c, 0, 64, 85
1, 375880, Control_c, 0, 64, 96
1, 375900, Control_c, 0, 64, 100
1, 375986, Note_on_c, 0, 76, 57
1, 376011, Note_on_c, 0, 76, 0
1, 376030, Note_on_c, 0, 75, 67
1, 376067, Note_on_c, 0, 75, 0
1, 376088, Note_on_c, 0, 76, 70
1, 376095, Control_c, 0, 64, 95
1, 376113, Control_c, 0, 64, 76
1, 376131, Control_c, 0, 64, 41
1, 376146, Note_on_c, 0, 76, 0
1, 376147, Control_c, 0, 64, 0
1, 376158, Note_on_c, 0, 75, 57
1, 376160, Note_on_c, 0, 57, 45
1, 376667, Note_on_c, 0, 60, 44
1, 376750, Note_on_c, 0, 57, 0
1, 376827, Control_c, 0, 64, 12
1, 376847, Control_c, 0, 64, 41
1, 376862, Control_c, 0, 64, 58
1, 376881, Control_c, 0, 64, 69
1, 376902, Control_c, 0, 64, 72
1, 376919, Control_c, 0, 64, 74
1, 376935, Control_c, 0, 64, 77
1, 376954, Control_c, 0, 64, 80
1, 376973, Control_c, 0, 64, 83
1, 376992, Control_c, 0, 64, 85
1, 377029, Control_c, 0, 64, 87
1, 377157, Control_c, 0, 64, 91
1, 377228, Note_on_c, 0, 76, 65
1, 377244, Note_on_c, 0, 52, 33
1, 377249, Control_c, 0, 64, 84
1, 377271, Control_c, 0, 64, 67
1, 377286, Note_on_c, 0, 75, 0
1, 377287, Control_c, 0, 64, 42
1, 377306, Control_c, 0, 64, 20
1, 377315, Note_on_c, 0, 54, 0
1, 377360, Control_c, 0, 64, 34
1, 377379, Control_c, 0, 64, 51
1, 377396, Control_c, 0, 64, 65
1, 377415, Control_c, 0, 64, 70
1, 377438, Note_on_c, 0, 78, 69
1, 377471, Control_c, 0, 64, 72
1, 377488, Note_on_c, 0, 76, 0
1, 377724, Note_on_c, 0, 78, 0
1, 377725, Note_on_c, 0, 71, 48
1, 377745, Control_c, 0, 64, 70
1, 377747, Note_on_c, 0, 54, 36
1, 377764, Control_c, 0, 64, 65
1, 377766, Note_on_c, 0, 51, 32
1, 377782, Control_c, 0, 64, 52
1, 377798, Control_c, 0, 64, 29
1, 377813, Note_on_c, 0, 60, 0
1, 377816, Control_c, 0, 64, 0
1, 377826, Note_on_c, 0, 52, 0
1, 377946, Control_c, 0, 64, 31
1, 377965, Control_c, 0, 64, 55
1, 377985, Control_c, 0, 64, 71
1, 378003, Control_c, 0, 64, 79
1, 378019, Control_c, 0, 64, 86
1, 378038, Control_c, 0, 64, 91
1, 378076, Control_c, 0, 64, 97
1, 378111, Control_c, 0, 64, 101
1, 378167, Control_c, 0, 64, 105
1, 378331, Note_on_c, 0, 54, 0
1, 378363, Note_on_c, 0, 51, 0
1, 378471, Note_on_c, 0, 81, 76
1, 378532, Control_c, 0, 64, 109
1, 378556, Note_on_c, 0, 71, 0
1, 378734, Control_c, 0, 64, 105
1, 378748, Note_on_c, 0, 79, 68
1, 378753, Control_c, 0, 64, 84
1, 378771, Control_c, 0, 64, 42
1, 378775, Note_on_c, 0, 52, 58
1, 378790, Control_c, 0, 64, 0
1, 378834, Note_on_c, 0, 81, 0
1, 378902, Control_c, 0, 64, 37
1, 378919, Control_c, 0, 64, 61
1, 378939, Control_c, 0, 64, 76
1, 378954, Control_c, 0, 64, 86
1, 378973, Control_c, 0, 64, 93
1, 379012, Control_c, 0, 64, 99
1, 379047, Control_c, 0, 64, 103
1, 379103, Control_c, 0, 64, 107
1, 379158, Control_c, 0, 64, 111
1, 379269, Note_on_c, 0, 54, 70
1, 379279, Note_on_c, 0, 45, 42
1, 379305, Control_c, 0, 64, 104
1, 379323, Note_on_c, 0, 52, 0
1, 379323, Control_c, 0, 64, 80
1, 379341, Control_c, 0, 64, 29
1, 379359, Control_c, 0, 64, 0
1, 379466, Control_c, 0, 64, 40
1, 379468, Note_on_c, 0, 78, 74
1, 379487, Control_c, 0, 64, 65
1, 379505, Control_c, 0, 64, 79
1, 379509, Note_on_c, 0, 79, 0
1, 379522, Control_c, 0, 64, 88
1, 379540, Control_c, 0, 64, 92
1, 379559, Note_on_c, 0, 78, 0
1, 379578, Control_c, 0, 64, 96
1, 379616, Control_c, 0, 64, 100
1, 379670, Control_c, 0, 64, 105
1, 379762, Control_c, 0, 64, 99
1, 379762, Note_on_c, 0, 47, 50
1, 379774, Note_on_c, 0, 76, 68
1, 379781, Control_c, 0, 64, 73
1, 379791, Note_on_c, 0, 45, 0
1, 379799, Control_c, 0, 64, 0
1, 379890, Control_c, 0, 64, 38
1, 379910, Control_c, 0, 64, 64
1, 379923, Note_on_c, 0, 76, 0
1, 379927, Control_c, 0, 64, 78
1, 379947, Control_c, 0, 64, 87
1, 379965, Control_c, 0, 64, 91
1, 380020, Control_c, 0, 64, 96
1, 380071, Note_on_c, 0, 76, 54
1, 380100, Note_on_c, 0, 76, 0
1, 380123, Note_on_c, 0, 75, 66
1, 380162, Note_on_c, 0, 75, 0
1, 380184, Note_on_c, 0, 76, 68
1, 380203, Control_c, 0, 64, 89
1, 380204, Control_c, 0, 67, 8
1, 380224, Control_c, 0, 64, 72
1, 380241, Note_on_c, 0, 76, 0
1, 380241, Control_c, 0, 64, 45
1, 380253, Note_on_c, 0, 75, 52
1, 380258, Control_c, 0, 64, 0
1, 380265, Note_on_c, 0, 54, 0
1, 380275, Note_on_c, 0, 55, 41
1, 380983, Note_on_c, 0, 57, 42
1, 381065, Note_on_c, 0, 55, 0
1, 381195, Control_c, 0, 64, 29
1, 381197, Control_c, 0, 67, 12
1, 381213, Control_c, 0, 64, 36
1, 381233, Control_c, 0, 64, 44
1, 381234, Control_c, 0, 67, 18
1, 381251, Control_c, 0, 64, 55
1, 381269, Control_c, 0, 64, 62
1, 381269, Control_c, 0, 67, 24
1, 381302, Control_c, 0, 64, 66
1, 381321, Control_c, 0, 64, 67
1, 381322, Control_c, 0, 67, 32
1, 381339, Control_c, 0, 67, 37
1, 381358, Control_c, 0, 67, 41
1, 381394, Control_c, 0, 67, 47
1, 381411, Control_c, 0, 64, 69
1, 381524, Control_c, 0, 64, 61
1, 381541, Control_c, 0, 64, 39
1, 381548, Note_on_c, 0, 75, 0
1, 381552, Note_on_c, 0, 76, 51
1, 381559, Control_c, 0, 64, 0
1, 381671, Control_c, 0, 64, 41
1, 381689, Control_c, 0, 64, 71
1, 381708, Control_c, 0, 64, 84
1, 381715, Poly_aftertouch_c, 0, 47, 24
1, 381724, Note_on_c, 0, 76, 0
1, 381725, Control_c, 0, 64, 96
1, 381745, Control_c, 0, 64, 102
1, 381762, Note_on_c, 0, 47, 0
1, 381762, Poly_aftertouch_c, 0, 47, 0
1, 381780, Control_c, 0, 64, 107
1, 381872, Control_c, 0, 64, 111
1, 382106, Note_on_c, 0, 76, 53
1, 382109, Note_on_c, 0, 52, 35
1, 382159, Note_on_c, 0, 76, 0
1, 382166, Control_c, 0, 64, 103
1, 382185, Control_c, 0, 64, 95
1, 382198, Note_on_c, 0, 75, 51
1, 382201, Control_c, 0, 64, 86
1, 382222, Control_c, 0, 64, 75
1, 382256, Control_c, 0, 64, 67
1, 382275, Control_c, 0, 64, 63
1, 382293, Control_c, 0, 64, 62
1, 382312, Note_on_c, 0, 75, 0
1, 382319, Note_on_c, 0, 76, 53
1, 382329, Control_c, 0, 64, 61
1, 382347, Control_c, 0, 64, 58
1, 382367, Control_c, 0, 64, 56
1, 382385, Control_c, 0, 64, 54
1, 382422, Control_c, 0, 64, 52
1, 382460, Control_c, 0, 64, 49
1, 382477, Control_c, 0, 64, 47
1, 382496, Control_c, 0, 64, 45
1, 382514, Control_c, 0, 64, 43
1, 382625, Control_c, 0, 64, 41
1, 382712, Note_on_c, 0, 55, 49
1, 382814, Note_on_c, 0, 57, 0
1, 382845, Control_c, 0, 64, 37
1, 382942, Note_on_c, 0, 54, 46
1, 382970, Note_on_c, 0, 55, 0
1, 383048, Control_c, 0, 64, 33
1, 383192, Control_c, 0, 64, 29
1, 383193, Control_c, 0, 67, 52
1, 383229, Control_c, 0, 67, 59
1, 383231, Note_on_c, 0, 55, 35
1, 383247, Control_c, 0, 67, 64
1, 383265, Control_c, 0, 67, 71
1, 383283, Control_c, 0, 67, 78
1, 383292, Note_on_c, 0, 54, 0
1, 383300, Control_c, 0, 67, 85
1, 383322, Control_c, 0, 67, 91
1, 383333, Note_on_c, 0, 52, 0
1, 383338, Control_c, 0, 67, 98
1, 383356, Control_c, 0, 67, 104
1, 383375, Control_c, 0, 64, 25
1, 383376, Control_c, 0, 67, 110
1, 383393, Control_c, 0, 67, 117
1, 383413, Control_c, 0, 67, 122
1, 383450, Control_c, 0, 67, 127
1, 383724, Control_c, 0, 64, 21
1, 383786, Note_on_c, 0, 52, 39
1, 383954, Note_on_c, 0, 52, 0
1, 384421, Control_c, 0, 64, 25
1, 384553, Note_on_c, 0, 40, 37
1, 384697, Control_c, 0, 64, 10
1, 384716, Control_c, 0, 64, 0
1, 384893, Poly_aftertouch_c, 0, 55, 24
1, 384973, Control_c, 0, 64, 13
1, 384979, Note_on_c, 0, 55, 0
1, 384979, Poly_aftertouch_c, 0, 55, 0
1, 385028, Control_c, 0, 64, 17
1, 385073, Poly_aftertouch_c, 0, 77, 0
1, 385228, Control_c, 0, 64, 10
1, 385356, Control_c, 0, 64, 14
1, 385374, Control_c, 0, 64, 27
1, 385394, Control_c, 0, 64, 38
1, 385412, Control_c, 0, 64, 51
1, 385430, Control_c, 0, 64, 63
1, 385447, Control_c, 0, 64, 69
1, 385467, Control_c, 0, 64, 72
1, 385478, Note_on_c, 0, 40, 0
1, 385481, Note_on_c, 0, 76, 0
1, 385484, Control_c, 0, 64, 75
1, 385504, Control_c, 0, 64, 79
1, 385523, Control_c, 0, 64, 84
1, 385541, Control_c, 0, 64, 90
1, 385579, Control_c, 0, 64, 95
1, 385652, Control_c, 0, 64, 99
1, 385726, Control_c, 0, 64, 103
1, 385781, Control_c, 0, 64, 108
1, 385872, Control_c, 0, 64, 112
1, 386406, Note_on_c, 0, 71, 50
1, 386443, Note_on_c, 0, 55, 36
1, 386454, Note_on_c, 0, 52, 35
1, 386577, Note_on_c, 0, 71, 0
1, 386588, Control_c, 0, 64, 106
1, 386606, Control_c, 0, 64, 96
1, 386625, Control_c, 0, 64, 80
1, 386629, Note_on_c, 0, 69, 46
1, 386644, Control_c, 0, 64, 61
1, 386662, Control_c, 0, 64, 40
1, 386679, Control_c, 0, 64, 16
1, 386698, Control_c, 0, 64, 0
1, 386808, Note_on_c, 0, 69, 0
1, 386813, Note_on_c, 0, 71, 38
1, 387007, Control_c, 0, 64, 17
1, 387025, Control_c, 0, 64, 35
1, 387044, Control_c, 0, 64, 54
1, 387062, Control_c, 0, 64, 72
1, 387080, Control_c, 0, 64, 81
1, 387098, Control_c, 0, 64, 89
1, 387117, Control_c, 0, 64, 94
1, 387136, Control_c, 0, 64, 99
1, 387173, Control_c, 0, 64, 103
1, 387284, Control_c, 0, 64, 107
1, 387674, Poly_aftertouch_c, 0, 52, 24
1, 387793, Note_on_c, 0, 50, 38
1, 387837, Control_c, 0, 64, 101
1, 387869, Control_c, 0, 64, 87
1, 387889, Control_c, 0, 64, 57
1, 387907, Control_c, 0, 64, 0
1, 387928, Note_on_c, 0, 52, 0
1, 387928, Poly_aftertouch_c, 0, 52, 0
1, 388016, Control_c, 0, 64, 34
1, 388034, Control_c, 0, 64, 57
1, 388053, Control_c, 0, 64, 76
1, 388071, Control_c, 0, 64, 86
1, 388090, Control_c, 0, 64, 93
1, 388128, Control_c, 0, 64, 98
1, 388402, Control_c, 0, 64, 82
1, 388404, Note_on_c, 0, 72, 53
1, 388421, Control_c, 0, 64, 57
1, 388430, Note_on_c, 0, 71, 0
1, 388440, Control_c, 0, 64, 0
1, 388550, Control_c, 0, 64, 35
1, 388569, Control_c, 0, 64, 62
1, 388588, Control_c, 0, 64, 81
1, 388607, Control_c, 0, 64, 95
1, 388623, Control_c, 0, 64, 104
1, 388631, Note_on_c, 0, 72, 0
1, 388646, Note_on_c, 0, 50, 0
1, 388680, Control_c, 0, 64, 108
1, 388943, Note_on_c, 0, 48, 37
1, 388965, Note_on_c, 0, 71, 54
1, 388996, Note_on_c, 0, 71, 0
1, 389025, Control_c, 0, 64, 90
1, 389040, Note_on_c, 0, 69, 55
1, 389045, Control_c, 0, 64, 62
1, 389063, Control_c, 0, 64, 0
1, 389067, Note_on_c, 0, 69, 0
1, 389087, Note_on_c, 0, 71, 64
1, 389125, Note_on_c, 0, 71, 0
1, 389161, Note_on_c, 0, 69, 56
1, 389449, Control_c, 0, 64, 29
1, 389469, Control_c, 0, 64, 48
1, 389485, Control_c, 0, 64, 67
1, 389505, Control_c, 0, 64, 77
1, 389523, Control_c, 0, 64, 85
1, 389542, Control_c, 0, 64, 91
1, 389558, Control_c, 0, 64, 95
1, 389596, Control_c, 0, 64, 101
1, 389633, Control_c, 0, 64, 106
1, 389782, Note_on_c, 0, 48, 0
1, 389962, Poly_aftertouch_c, 0, 69, 24
1, 390012, Note_on_c, 0, 69, 0
1, 390012, Poly_aftertouch_c, 0, 69, 0
1, 390013, Poly_aftertouch_c, 0, 69, 0
1, 390031, Note_on_c, 0, 67, 60
1, 390108, Control_c, 0, 64, 110
1, 390157, Note_on_c, 0, 67, 0
1, 390323, Note_on_c, 0, 47, 37
1, 390385, Control_c, 0, 64, 106
1, 390389, Note_on_c, 0, 77, 66
1, 390403, Control_c, 0, 64, 98
1, 390421, Control_c, 0, 64, 82
1, 390441, Control_c, 0, 64, 57
1, 390452, Note_on_c, 0, 77, 0
1, 390458, Control_c, 0, 64, 19
1, 390477, Control_c, 0, 64, 0
1, 390479, Note_on_c, 0, 76, 70
1, 390556, Note_on_c, 0, 76, 0
1, 390566, Note_on_c, 0, 77, 62
1, 390805, Control_c, 0, 64, 10
1, 390822, Control_c, 0, 64, 32
1, 390840, Control_c, 0, 64, 52
1, 390859, Control_c, 0, 64, 72
1, 390877, Control_c, 0, 64, 83
1, 390897, Control_c, 0, 64, 93
1, 390916, Control_c, 0, 64, 99
1, 390934, Control_c, 0, 64, 103
1, 390970, Control_c, 0, 64, 108
1, 391000, Note_on_c, 0, 77, 0
1, 391538, Poly_aftertouch_c, 0, 47, 24
1, 391554, Note_on_c, 0, 77, 52
1, 391580, Note_on_c, 0, 48, 30
1, 391601, Note_on_c, 0, 47, 0
1, 391601, Poly_aftertouch_c, 0, 47, 0
1, 391668, Control_c, 0, 64, 92
1, 391685, Control_c, 0, 64, 64
1, 391703, Control_c, 0, 64, 0
1, 391814, Control_c, 0, 64, 35
1, 391833, Control_c, 0, 64, 59
1, 391851, Control_c, 0, 64, 77
1, 391870, Control_c, 0, 64, 88
1, 391888, Control_c, 0, 64, 95
1, 391908, Poly_aftertouch_c, 0, 55, 24
1, 391925, Control_c, 0, 64, 99
1, 392076, Note_on_c, 0, 55, 0
1, 392076, Poly_aftertouch_c, 0, 55, 0
1, 392156, Note_on_c, 0, 76, 46
1, 392172, Note_on_c, 0, 52, 44
1, 392193, Note_on_c, 0, 77, 0
1, 392200, Control_c, 0, 64, 91
1, 392220, Control_c, 0, 64, 81
1, 392238, Control_c, 0, 64, 66
1, 392257, Control_c, 0, 64, 47
1, 392277, Control_c, 0, 64, 23
1, 392292, Control_c, 0, 64, 0
1, 392649, Note_on_c, 0, 53, 46
1, 392685, Note_on_c, 0, 52, 0
1, 393112, Note_on_c, 0, 55, 46
1, 393121, Note_on_c, 0, 53, 0
1, 393210, Control_c, 0, 64, 30
1, 393228, Control_c, 0, 64, 49
1, 393247, Control_c, 0, 64, 70
1, 393249, Note_on_c, 0, 48, 0
1, 393266, Control_c, 0, 64, 83
1, 393286, Control_c, 0, 64, 94
1, 393301, Control_c, 0, 64, 100
1, 393341, Control_c, 0, 64, 105
1, 393393, Control_c, 0, 64, 109
1, 393583, Note_on_c, 0, 74, 57
1, 393594, Note_on_c, 0, 76, 0
1, 393612, Note_on_c, 0, 57, 48
1, 393646, Note_on_c, 0, 53, 35
1, 393647, Control_c, 0, 64, 91
1, 393667, Control_c, 0, 64, 57
1, 393672, Note_on_c, 0, 55, 0
1, 393685, Control_c, 0, 64, 0
1, 393776, Control_c, 0, 64, 22
1, 393796, Control_c, 0, 64, 50
1, 393813, Control_c, 0, 64, 71
1, 393833, Control_c, 0, 64, 82
1, 393834, Control_c, 0, 67, 116
1, 393852, Control_c, 0, 64, 92
1, 393853, Control_c, 0, 67, 105
1, 393869, Control_c, 0, 64, 96
1, 393869, Control_c, 0, 67, 90
1, 393887, Control_c, 0, 67, 69
1, 393906, Control_c, 0, 67, 46
1, 393909, Note_on_c, 0, 74, 0
1, 393924, Control_c, 0, 67, 24
1, 393945, Control_c, 0, 64, 100
1, 393962, Control_c, 0, 67, 0
1, 394080, Note_on_c, 0, 59, 48
1, 394128, Note_on_c, 0, 57, 0
1, 394202, Control_c, 0, 64, 96
1, 394215, Note_on_c, 0, 72, 59
1, 394221, Control_c, 0, 64, 88
1, 394238, Control_c, 0, 64, 77
1, 394256, Control_c, 0, 64, 66
1, 394274, Control_c, 0, 64, 60
1, 394294, Control_c, 0, 64, 62
1, 394311, Control_c, 0, 64, 67
1, 394330, Note_on_c, 0, 71, 59
1, 394330, Control_c, 0, 64, 71
1, 394334, Note_on_c, 0, 72, 0
1, 394348, Control_c, 0, 64, 77
1, 394366, Control_c, 0, 64, 84
1, 394385, Control_c, 0, 64, 90
1, 394418, Control_c, 0, 64, 94
1, 394598, Note_on_c, 0, 81, 63
1, 394602, Control_c, 0, 64, 83
1, 394620, Note_on_c, 0, 60, 33
1, 394621, Control_c, 0, 64, 57
1, 394631, Note_on_c, 0, 71, 0
1, 394639, Control_c, 0, 64, 0
1, 394659, Note_on_c, 0, 59, 0
1, 394749, Control_c, 0, 64, 27
1, 394768, Control_c, 0, 64, 49
1, 394787, Control_c, 0, 64, 66
1, 394804, Control_c, 0, 64, 74
1, 394822, Control_c, 0, 64, 79
1, 394841, Control_c, 0, 64, 83
1, 394860, Control_c, 0, 64, 86
1, 394897, Control_c, 0, 64, 90
1, 395043, Control_c, 0, 64, 94
1, 395178, Note_on_c, 0, 55, 34
1, 395276, Note_on_c, 0, 53, 0
1, 395392, Note_on_c, 0, 79, 59
1, 395430, Note_on_c, 0, 81, 0
1, 395619, Note_on_c, 0, 77, 59
1, 395631, Control_c, 0, 64, 90
1, 395648, Note_on_c, 0, 57, 35
1, 395648, Control_c, 0, 64, 77
1, 395655, Note_on_c, 0, 55, 0
1, 395667, Control_c, 0, 64, 60
1, 395681, Note_on_c, 0, 79, 0
1, 395685, Control_c, 0, 64, 47
1, 395739, Control_c, 0, 64, 50
1, 395758, Control_c, 0, 64, 57
1, 395776, Control_c, 0, 64, 61
1, 395796, Control_c, 0, 64, 62
1, 395819, Note_on_c, 0, 76, 64
1, 395833, Control_c, 0, 64, 63
1, 395852, Control_c, 0, 64, 64
1, 395869, Note_on_c, 0, 77, 0
1, 396016, Note_on_c, 0, 74, 62
1, 396019, Note_on_c, 0, 76, 0
1, 396035, Control_c, 0, 64, 63
1, 396042, Note_on_c, 0, 53, 40
1, 396073, Control_c, 0, 64, 62
1, 396110, Control_c, 0, 64, 61
1, 396121, Note_on_c, 0, 57, 0
1, 396165, Control_c, 0, 64, 58
1, 396218, Control_c, 0, 64, 56
1, 396221, Note_on_c, 0, 72, 62
1, 396245, Note_on_c, 0, 74, 0
1, 396308, Control_c, 0, 64, 54
1, 396346, Control_c, 0, 64, 52
1, 396382, Control_c, 0, 64, 50
1, 396400, Control_c, 0, 64, 47
1, 396418, Control_c, 0, 64, 44
1, 396435, Control_c, 0, 64, 37
1, 396455, Control_c, 0, 64, 25
1, 396473, Control_c, 0, 64, 8
1, 396491, Control_c, 0, 64, 0
1, 396507, Note_on_c, 0, 76, 56
1, 396538, Note_on_c, 0, 72, 0
1, 396542, Note_on_c, 0, 55, 29
1, 396590, Note_on_c, 0, 53, 0
1, 396751, Control_c, 0, 64, 35
1, 396768, Control_c, 0, 64, 57
1, 396788, Control_c, 0, 64, 74
1, 396806, Control_c, 0, 64, 84
1, 396823, Control_c, 0, 64, 92
1, 396842, Control_c, 0, 64, 98
1, 396843, Control_c, 0, 67, 8
1, 396860, Control_c, 0, 64, 102
1, 396897, Control_c, 0, 64, 108
1, 396955, Note_on_c, 0, 76, 0
1, 396972, Control_c, 0, 64, 112
1, 397100, Control_c, 0, 67, 12
1, 397173, Control_c, 0, 67, 16
1, 397181, Note_on_c, 0, 60, 0
1, 397263, Control_c, 0, 67, 20
1, 397298, Control_c, 0, 67, 25
1, 397371, Control_c, 0, 67, 30
1, 397400, Note_on_c, 0, 59, 46
1, 397417, Note_on_c, 0, 76, 46
1, 397428, Control_c, 0, 67, 34
1, 397446, Control_c, 0, 67, 38
1, 397451, Note_on_c, 0, 76, 0
1, 397462, Note_on_c, 0, 74, 64
1, 397484, Control_c, 0, 67, 43
1, 397497, Note_on_c, 0, 74, 0
1, 397522, Note_on_c, 0, 76, 66
1, 397538, Control_c, 0, 67, 49
1, 397557, Control_c, 0, 64, 99
1, 397558, Control_c, 0, 67, 55
1, 397568, Note_on_c, 0, 76, 0
1, 397574, Control_c, 0, 64, 80
1, 397575, Control_c, 0, 67, 60
1, 397580, Note_on_c, 0, 74, 66
1, 397595, Control_c, 0, 64, 52
1, 397596, Control_c, 0, 67, 64
1, 397630, Note_on_c, 0, 74, 0
1, 397630, Control_c, 0, 64, 0
1, 397631, Control_c, 0, 67, 71
1, 397648, Control_c, 0, 67, 75
1, 397666, Note_on_c, 0, 72, 41
1, 397667, Control_c, 0, 67, 83
1, 397686, Control_c, 0, 67, 91
1, 397705, Control_c, 0, 67, 100
1, 397723, Control_c, 0, 67, 107
1, 397741, Control_c, 0, 67, 112
1, 397777, Control_c, 0, 67, 118
1, 397815, Control_c, 0, 67, 125
1, 397907, Note_on_c, 0, 74, 50
1, 397931, Note_on_c, 0, 72, 0
1, 397998, Control_c, 0, 64, 25
1, 398017, Control_c, 0, 64, 42
1, 398036, Control_c, 0, 64, 60
1, 398054, Control_c, 0, 64, 74
1, 398072, Control_c, 0, 64, 82
1, 398090, Control_c, 0, 64, 88
1, 398127, Control_c, 0, 64, 94
1, 398271, Control_c, 0, 64, 98
1, 398439, Note_on_c, 0, 72, 44
1, 398459, Note_on_c, 0, 74, 0
1, 398467, Poly_aftertouch_c, 0, 55, 24
1, 398468, Note_on_c, 0, 48, 35
1, 398469, Note_on_c, 0, 60, 41
1, 398531, Note_on_c, 0, 55, 0
1, 398531, Poly_aftertouch_c, 0, 55, 0
1, 398561, Poly_aftertouch_c, 0, 59, 24
1, 398565, Control_c, 0, 64, 93
1, 398584, Control_c, 0, 64, 87
1, 398604, Control_c, 0, 64, 75
1, 398607, Note_on_c, 0, 59, 0
1, 398607, Poly_aftertouch_c, 0, 59, 0
1, 398622, Control_c, 0, 64, 57
1, 398639, Control_c, 0, 64, 31
1, 398658, Control_c, 0, 64, 0
1, 398823, Control_c, 0, 64, 25
1, 398843, Control_c, 0, 64, 42
1, 398861, Control_c, 0, 64, 60
1, 398880, Control_c, 0, 64, 72
1, 398898, Control_c, 0, 64, 75
1, 398918, Control_c, 0, 64, 77
1, 398933, Control_c, 0, 64, 80
1, 398953, Control_c, 0, 64, 83
1, 398971, Control_c, 0, 64, 87
1, 398974, Note_on_c, 0, 60, 0
1, 398990, Control_c, 0, 64, 92
1, 399025, Control_c, 0, 64, 97
1, 399111, Note_on_c, 0, 72, 0
1, 399114, Control_c, 0, 67, 119
1, 399153, Control_c, 0, 67, 115
1, 399169, Control_c, 0, 64, 101
1, 399171, Control_c, 0, 67, 111
1, 399189, Control_c, 0, 67, 105
1, 399207, Control_c, 0, 67, 98
1, 399225, Control_c, 0, 67, 89
1, 399242, Control_c, 0, 67, 82
1, 399261, Control_c, 0, 67, 75
1, 399280, Control_c, 0, 67, 68
1, 399298, Control_c, 0, 67, 59
1, 399317, Control_c, 0, 64, 105
1, 399318, Control_c, 0, 67, 50
1, 399336, Control_c, 0, 67, 40
1, 399355, Control_c, 0, 67, 28
1, 399373, Control_c, 0, 67, 17
1, 399465, Control_c, 0, 67, 0
1, 399726, Note_on_c, 0, 71, 51
1, 399775, Note_on_c, 0, 54, 55
1, 399796, Control_c, 0, 64, 99
1, 399814, Control_c, 0, 64, 81
1, 399834, Control_c, 0, 64, 48
1, 399853, Control_c, 0, 64, 0
1, 399942, Control_c, 0, 64, 33
1, 399961, Control_c, 0, 64, 56
1, 399980, Control_c, 0, 64, 73
1, 399999, Control_c, 0, 64, 83
1, 400032, Control_c, 0, 64, 91
1, 400070, Control_c, 0, 64, 96
1, 400391, Note_on_c, 0, 69, 51
1, 400394, Note_on_c, 0, 71, 0
1, 400428, Note_on_c, 0, 52, 49
1, 400455, Control_c, 0, 64, 84
1, 400473, Control_c, 0, 64, 59
1, 400481, Note_on_c, 0, 48, 0
1, 400492, Control_c, 0, 64, 0
1, 400584, Control_c, 0, 64, 14
1, 400603, Control_c, 0, 64, 41
1, 400622, Control_c, 0, 64, 64
1, 400639, Control_c, 0, 64, 77
1, 400658, Control_c, 0, 64, 84
1, 400676, Control_c, 0, 64, 88
1, 400714, Control_c, 0, 64, 93
1, 400788, Control_c, 0, 64, 98
1, 400877, Note_on_c, 0, 50, 49
1, 400934, Control_c, 0, 64, 90
1, 400962, Note_on_c, 0, 52, 0
1, 400967, Control_c, 0, 64, 71
1, 400988, Control_c, 0, 64, 45
1, 401005, Control_c, 0, 64, 25
1, 401059, Control_c, 0, 64, 42
1, 401079, Control_c, 0, 64, 61
1, 401098, Control_c, 0, 64, 73
1, 401113, Control_c, 0, 64, 79
1, 401133, Control_c, 0, 64, 83
1, 401170, Control_c, 0, 64, 87
1, 401208, Control_c, 0, 64, 93
1, 401264, Control_c, 0, 64, 98
1, 401351, Note_on_c, 0, 71, 59
1, 401369, Note_on_c, 0, 48, 46
1, 401371, Note_on_c, 0, 50, 0
1, 401373, Control_c, 0, 64, 85
1, 401384, Note_on_c, 0, 69, 0
1, 401390, Control_c, 0, 64, 65
1, 401409, Control_c, 0, 64, 40
1, 401428, Control_c, 0, 64, 29
1, 401465, Control_c, 0, 64, 36
1, 401484, Control_c, 0, 64, 55
1, 401501, Control_c, 0, 64, 71
1, 401520, Control_c, 0, 64, 81
1, 401538, Control_c, 0, 64, 88
1, 401557, Control_c, 0, 64, 93
1, 401593, Control_c, 0, 64, 98
1, 401649, Control_c, 0, 64, 102
1, 401667, Note_on_c, 0, 71, 0
1, 401760, Note_on_c, 0, 69, 61
1, 401763, Note_on_c, 0, 48, 0
1, 401784, Note_on_c, 0, 47, 49
1, 401801, Note_on_c, 0, 69, 0
1, 401826, Note_on_c, 0, 67, 62
1, 401830, Control_c, 0, 64, 89
1, 401851, Control_c, 0, 64, 67
1, 401854, Note_on_c, 0, 67, 0
1, 401870, Control_c, 0, 64, 28
1, 401878, Note_on_c, 0, 69, 64
1, 401903, Control_c, 0, 64, 0
1, 401934, Note_on_c, 0, 69, 0
1, 401949, Note_on_c, 0, 67, 66
1, 402281, Note_on_c, 0, 45, 44
1, 402292, Note_on_c, 0, 54, 0
1, 402303, Note_on_c, 0, 47, 0
1, 402345, Control_c, 0, 64, 19
1, 402364, Control_c, 0, 64, 33
1, 402383, Control_c, 0, 64, 42
1, 402401, Control_c, 0, 64, 56
1, 402420, Control_c, 0, 64, 65
1, 402437, Control_c, 0, 64, 70
1, 402455, Control_c, 0, 64, 73
1, 402474, Control_c, 0, 64, 76
1, 402492, Control_c, 0, 64, 78
1, 402506, Note_on_c, 0, 66, 68
1, 402529, Control_c, 0, 64, 81
1, 402545, Note_on_c, 0, 67, 0
1, 402732, Control_c, 0, 67, 8
1, 402766, Control_c, 0, 64, 75
1, 402767, Note_on_c, 0, 74, 57
1, 402786, Control_c, 0, 64, 59
1, 402793, Note_on_c, 0, 55, 45
1, 402795, Note_on_c, 0, 47, 40
1, 402797, Note_on_c, 0, 66, 0
1, 402805, Control_c, 0, 64, 26
1, 402807, Note_on_c, 0, 45, 0
1, 402838, Control_c, 0, 64, 0
1, 403080, Control_c, 0, 64, 32
1, 403097, Control_c, 0, 64, 43
1, 403116, Control_c, 0, 64, 56
1, 403134, Control_c, 0, 64, 64
1, 403152, Control_c, 0, 64, 68
1, 403189, Control_c, 0, 64, 72
1, 403207, Control_c, 0, 64, 76
1, 403225, Control_c, 0, 64, 81
1, 403243, Control_c, 0, 64, 86
1, 403280, Control_c, 0, 64, 91
1, 403340, Note_on_c, 0, 74, 0
1, 403358, Note_on_c, 0, 50, 45
1, 403385, Note_on_c, 0, 47, 0
1, 403391, Control_c, 0, 64, 95
1, 403501, Control_c, 0, 64, 99
1, 403814, Note_on_c, 0, 48, 40
1, 403866, Control_c, 0, 64, 93
1, 403878, Note_on_c, 0, 74, 65
1, 403885, Control_c, 0, 64, 71
1, 403904, Control_c, 0, 64, 15
1, 403920, Control_c, 0, 64, 0
1, 403927, Note_on_c, 0, 50, 0
1, 403996, Control_c, 0, 64, 20
1, 404014, Control_c, 0, 64, 41
1, 404033, Control_c, 0, 64, 63
1, 404052, Control_c, 0, 64, 74
1, 404070, Control_c, 0, 64, 79
1, 404106, Control_c, 0, 64, 81
1, 404126, Note_on_c, 0, 74, 0
1, 404160, Note_on_c, 0, 76, 56
1, 404206, Note_on_c, 0, 76, 0
1, 404236, Note_on_c, 0, 74, 59
1, 404253, Control_c, 0, 67, 12
1, 404289, Control_c, 0, 64, 77
1, 404305, Note_on_c, 0, 76, 60
1, 404308, Control_c, 0, 64, 72
1, 404309, Note_on_c, 0, 74, 0
1, 404309, Control_c, 0, 67, 16
1, 404326, Note_on_c, 0, 47, 41
1, 404326, Control_c, 0, 64, 64
1, 404344, Control_c, 0, 64, 54
1, 404345, Control_c, 0, 67, 23
1, 404364, Control_c, 0, 64, 40
1, 404365, Control_c, 0, 67, 28
1, 404382, Control_c, 0, 64, 12
1, 404383, Control_c, 0, 67, 34
1, 404385, Note_on_c, 0, 48, 0
1, 404400, Control_c, 0, 64, 0
1, 404401, Control_c, 0, 67, 42
1, 404417, Control_c, 0, 67, 51
1, 404437, Control_c, 0, 67, 59
1, 404455, Control_c, 0, 67, 66
1, 404474, Control_c, 0, 67, 73
1, 404493, Control_c, 0, 67, 78
1, 404512, Control_c, 0, 67, 84
1, 404531, Control_c, 0, 67, 90
1, 404547, Control_c, 0, 67, 96
1, 404566, Control_c, 0, 67, 102
1, 404584, Control_c, 0, 67, 108
1, 404604, Control_c, 0, 67, 114
1, 404620, Control_c, 0, 67, 119
1, 404658, Control_c, 0, 67, 126
1, 404779, Note_on_c, 0, 47, 0
1, 404784, Note_on_c, 0, 45, 40
1, 404836, Poly_aftertouch_c, 0, 55, 24
1, 404838, Control_c, 0, 64, 23
1, 404855, Control_c, 0, 64, 35
1, 404871, Note_on_c, 0, 55, 0
1, 404871, Poly_aftertouch_c, 0, 55, 0
1, 404874, Control_c, 0, 64, 50
1, 404893, Control_c, 0, 64, 64
1, 404912, Control_c, 0, 64, 70
1, 404950, Control_c, 0, 64, 72
1, 404987, Control_c, 0, 64, 75
1, 405005, Control_c, 0, 64, 77
1, 405023, Control_c, 0, 64, 81
1, 405041, Control_c, 0, 64, 83
1, 405078, Control_c, 0, 64, 86
1, 405133, Control_c, 0, 64, 88
1, 405243, Control_c, 0, 64, 81
1, 405244, Note_on_c, 0, 43, 44
1, 405263, Control_c, 0, 64, 61
1, 405279, Note_on_c, 0, 45, 0
1, 405280, Control_c, 0, 64, 0
1, 405372, Control_c, 0, 64, 14
1, 405391, Control_c, 0, 64, 52
1, 405396, Note_on_c, 0, 76, 0
1, 405411, Control_c, 0, 64, 75
1, 405428, Control_c, 0, 64, 88
1, 405448, Control_c, 0, 64, 100
1, 405466, Control_c, 0, 64, 104
1, 405472, Note_on_c, 0, 43, 0
1, 405501, Control_c, 0, 64, 110
1, 405539, Control_c, 0, 64, 116
1, 405684, Control_c, 0, 64, 120
1, 405810, Note_on_c, 0, 62, 44
1, 405820, Note_on_c, 0, 42, 44
1, 405886, Control_c, 0, 64, 96
1, 405888, Control_c, 0, 67, 120
1, 405905, Control_c, 0, 64, 64
1, 405923, Control_c, 0, 64, 18
1, 405923, Control_c, 0, 67, 114
1, 405941, Control_c, 0, 64, 0
1, 405943, Control_c, 0, 67, 107
1, 405958, Control_c, 0, 67, 98
1, 405978, Control_c, 0, 64, 30
1, 405979, Control_c, 0, 67, 86
1, 405996, Control_c, 0, 64, 51
1, 405996, Control_c, 0, 67, 74
1, 406016, Control_c, 0, 64, 69
1, 406017, Control_c, 0, 67, 60
1, 406032, Control_c, 0, 64, 78
1, 406033, Control_c, 0, 67, 45
1, 406050, Control_c, 0, 64, 82
1, 406052, Control_c, 0, 67, 28
1, 406069, Control_c, 0, 67, 10
1, 406072, Note_on_c, 0, 64, 55
1, 406087, Control_c, 0, 67, 0
1, 406130, Note_on_c, 0, 62, 0
1, 406198, Control_c, 0, 64, 80
1, 406235, Control_c, 0, 64, 76
1, 406251, Control_c, 0, 64, 74
1, 406272, Control_c, 0, 64, 71
1, 406284, Note_on_c, 0, 66, 60
1, 406290, Control_c, 0, 64, 69
1, 406294, Note_on_c, 0, 45, 54
1, 406309, Control_c, 0, 64, 68
1, 406327, Control_c, 0, 64, 67
1, 406331, Note_on_c, 0, 64, 0
1, 406346, Control_c, 0, 64, 65
1, 406365, Control_c, 0, 64, 63
1, 406383, Control_c, 0, 64, 62
1, 406401, Control_c, 0, 64, 60
1, 406437, Control_c, 0, 64, 57
1, 406475, Control_c, 0, 64, 55
1, 406489, Note_on_c, 0, 67, 70
1, 406497, Note_on_c, 0, 66, 0
1, 406529, Control_c, 0, 64, 52
1, 406582, Control_c, 0, 64, 50
1, 406639, Control_c, 0, 64, 48
1, 406693, Control_c, 0, 64, 46
1, 406725, Note_on_c, 0, 67, 0
1, 406727, Note_on_c, 0, 69, 66
1, 406739, Note_on_c, 0, 50, 50
1, 406765, Control_c, 0, 64, 44
1, 406828, Note_on_c, 0, 45, 0
1, 406840, Control_c, 0, 64, 41
1, 406861, Note_on_c, 0, 42, 0
1, 406962, Note_on_c, 0, 71, 65
1, 406976, Note_on_c, 0, 69, 0
1, 406985, Control_c, 0, 64, 37
1, 407133, Control_c, 0, 64, 27
1, 407147, Note_on_c, 0, 72, 58
1, 407148, Note_on_c, 0, 71, 0
1, 407151, Control_c, 0, 64, 0
1, 407190, Note_on_c, 0, 42, 40
1, 407299, Control_c, 0, 64, 8
1, 407319, Control_c, 0, 64, 44
1, 407337, Control_c, 0, 64, 66
1, 407355, Control_c, 0, 64, 78
1, 407357, Note_on_c, 0, 72, 0
1, 407372, Control_c, 0, 64, 88
1, 407385, Note_on_c, 0, 69, 47
1, 407391, Control_c, 0, 64, 95
1, 407400, Note_on_c, 0, 42, 0
1, 407427, Control_c, 0, 64, 99
1, 407579, Note_on_c, 0, 69, 0
1, 407653, Note_on_c, 0, 71, 60
1, 407662, Note_on_c, 0, 43, 42
1, 407662, Control_c, 0, 64, 89
1, 407682, Control_c, 0, 64, 61
1, 407699, Control_c, 0, 64, 0
1, 407790, Note_on_c, 0, 71, 0
1, 407811, Control_c, 0, 64, 39
1, 407814, Note_on_c, 0, 69, 62
1, 407830, Control_c, 0, 64, 63
1, 407832, Note_on_c, 0, 50, 0
1, 407848, Control_c, 0, 64, 75
1, 407868, Control_c, 0, 64, 82
1, 407885, Control_c, 0, 64, 86
1, 407902, Control_c, 0, 64, 88
1, 407935, Note_on_c, 0, 69, 0
1, 407948, Note_on_c, 0, 67, 65
1, 408036, Note_on_c, 0, 67, 0
1, 408069, Control_c, 0, 64, 85
1, 408088, Control_c, 0, 64, 70
1, 408100, Note_on_c, 0, 48, 39
1, 408106, Control_c, 0, 64, 37
1, 408113, Note_on_c, 0, 52, 48
1, 408114, Note_on_c, 0, 69, 67
1, 408123, Control_c, 0, 64, 0
1, 408234, Control_c, 0, 64, 26
1, 408244, Note_on_c, 0, 67, 67
1, 408252, Control_c, 0, 64, 54
1, 408255, Note_on_c, 0, 69, 0
1, 408263, Note_on_c, 0, 43, 0
1, 408271, Control_c, 0, 64, 69
1, 408277, Note_on_c, 0, 48, 0
1, 408290, Control_c, 0, 64, 75
1, 408308, Control_c, 0, 64, 78
1, 408346, Control_c, 0, 64, 81
1, 408367, Note_on_c, 0, 67, 0
1, 408380, Note_on_c, 0, 66, 74
1, 408380, Control_c, 0, 64, 83
1, 408469, Note_on_c, 0, 66, 0
1, 408612, Note_on_c, 0, 50, 46
1, 408615, Note_on_c, 0, 67, 62
1, 408616, Control_c, 0, 64, 76
1, 408636, Control_c, 0, 64, 63
1, 408655, Control_c, 0, 64, 37
1, 408658, Note_on_c, 0, 52, 0
1, 408672, Control_c, 0, 64, 0
1, 408821, Control_c, 0, 64, 25
1, 408838, Control_c, 0, 64, 47
1, 408856, Control_c, 0, 64, 62
1, 408876, Control_c, 0, 64, 69
1, 408893, Control_c, 0, 64, 71
1, 408932, Control_c, 0, 64, 73
1, 408969, Control_c, 0, 64, 76
1, 408987, Control_c, 0, 64, 79
1, 409005, Control_c, 0, 64, 81
1, 409023, Control_c, 0, 64, 83
1, 409059, Control_c, 0, 64, 85
1, 409103, Note_on_c, 0, 59, 54
1, 409120, Note_on_c, 0, 67, 0
1, 409134, Control_c, 0, 64, 87
1, 409524, Note_on_c, 0, 67, 61
1, 409529, Note_on_c, 0, 59, 0
1, 409533, Note_on_c, 0, 57, 47
1, 409564, Note_on_c, 0, 67, 0
1, 409594, Note_on_c, 0, 66, 59
1, 409608, Control_c, 0, 64, 80
1, 409622, Note_on_c, 0, 66, 0
1, 409629, Control_c, 0, 64, 66
1, 409632, Note_on_c, 0, 67, 64
1, 409647, Control_c, 0, 64, 42
1, 409665, Control_c, 0, 64, 0
1, 409690, Note_on_c, 0, 67, 0
1, 409704, Note_on_c, 0, 66, 66
1, 410003, Note_on_c, 0, 55, 49
1, 410005, Note_on_c, 0, 57, 0
1, 410070, Control_c, 0, 64, 17
1, 410087, Control_c, 0, 64, 32
1, 410105, Control_c, 0, 64, 47
1, 410123, Control_c, 0, 64, 62
1, 410143, Control_c, 0, 64, 68
1, 410232, Note_on_c, 0, 64, 64
1, 410271, Control_c, 0, 64, 66
1, 410284, Note_on_c, 0, 66, 0
1, 410288, Control_c, 0, 64, 65
1, 410397, Control_c, 0, 64, 64
1, 410453, Control_c, 0, 64, 63
1, 410471, Control_c, 0, 64, 61
1, 410488, Control_c, 0, 64, 58
1, 410498, Note_on_c, 0, 54, 35
1, 410507, Control_c, 0, 64, 52
1, 410509, Note_on_c, 0, 62, 45
1, 410527, Control_c, 0, 64, 40
1, 410544, Control_c, 0, 64, 10
1, 410549, Note_on_c, 0, 64, 0
1, 410556, Note_on_c, 0, 55, 0
1, 410563, Control_c, 0, 64, 0
1, 410703, Note_on_c, 0, 50, 0
1, 410709, Control_c, 0, 64, 21
1, 410728, Control_c, 0, 64, 45
1, 410747, Control_c, 0, 64, 61
1, 410765, Control_c, 0, 64, 69
1, 410784, Control_c, 0, 64, 73
1, 410803, Control_c, 0, 64, 75
1, 410822, Control_c, 0, 64, 77
1, 410841, Control_c, 0, 64, 81
1, 410858, Control_c, 0, 64, 87
1, 410876, Control_c, 0, 64, 92
1, 411005, Note_on_c, 0, 48, 40
1, 411041, Control_c, 0, 64, 79
1, 411058, Control_c, 0, 64, 58
1, 411078, Control_c, 0, 64, 34
1, 411097, Control_c, 0, 64, 29
1, 411117, Note_on_c, 0, 62, 0
1, 411133, Control_c, 0, 64, 46
1, 411154, Control_c, 0, 64, 65
1, 411170, Control_c, 0, 64, 76
1, 411188, Control_c, 0, 64, 86
1, 411207, Control_c, 0, 64, 93
1, 411260, Control_c, 0, 64, 98
1, 411323, Note_on_c, 0, 48, 0
1, 411370, Control_c, 0, 64, 103
1, 411399, Note_on_c, 0, 54, 0
1, 411630, Note_on_c, 0, 47, 40
1, 411682, Note_on_c, 0, 74, 71
1, 411757, Control_c, 0, 64, 88
1, 411776, Control_c, 0, 64, 68
1, 411792, Control_c, 0, 64, 42
1, 411812, Control_c, 0, 64, 0
1, 411817, Note_on_c, 0, 72, 75
1, 411819, Note_on_c, 0, 74, 0
1, 411921, Control_c, 0, 64, 17
1, 411934, Note_on_c, 0, 74, 71
1, 411940, Control_c, 0, 64, 30
1, 411947, Note_on_c, 0, 72, 0
1, 411958, Control_c, 0, 64, 37
1, 411976, Control_c, 0, 64, 42
1, 411995, Control_c, 0, 64, 46
1, 412014, Control_c, 0, 64, 48
1, 412033, Control_c, 0, 64, 51
1, 412071, Control_c, 0, 64, 53
1, 412193, Control_c, 0, 64, 46
1, 412209, Note_on_c, 0, 50, 53
1, 412211, Control_c, 0, 64, 31
1, 412230, Control_c, 0, 64, 12
1, 412249, Control_c, 0, 64, 0
1, 412639, Note_on_c, 0, 50, 0
1, 412692, Control_c, 0, 64, 35
1, 412693, Note_on_c, 0, 55, 40
1, 412711, Control_c, 0, 64, 57
1, 412728, Control_c, 0, 64, 74
1, 412747, Control_c, 0, 64, 83
1, 412766, Control_c, 0, 64, 89
1, 412784, Control_c, 0, 64, 93
1, 412836, Note_on_c, 0, 47, 0
1, 412839, Control_c, 0, 64, 99
1, 412893, Control_c, 0, 64, 103
1, 412993, Note_on_c, 0, 74, 0
1, 412993, Note_on_c, 0, 74, 14
1, 413042, Control_c, 0, 64, 107
1, 413128, Note_on_c, 0, 76, 65
1, 413149, Note_on_c, 0, 74, 0
1, 413149, Control_c, 0, 64, 102
1, 413151, Note_on_c, 0, 47, 48
1, 413168, Control_c, 0, 64, 86
1, 413187, Control_c, 0, 64, 54
1, 413204, Control_c, 0, 64, 0
1, 413314, Control_c, 0, 64, 36
1, 413333, Control_c, 0, 64, 63
1, 413352, Control_c, 0, 64, 83
1, 413358, Note_on_c, 0, 76, 0
1, 413368, Control_c, 0, 64, 99
1, 413387, Control_c, 0, 64, 108
1, 413425, Control_c, 0, 64, 112
1, 413499, Control_c, 0, 64, 116
1, 413546, Note_on_c, 0, 47, 0
1, 413627, Note_on_c, 0, 45, 44
1, 413636, Note_on_c, 0, 74, 52
1, 413664, Note_on_c, 0, 74, 0
1, 413672, Note_on_c, 0, 72, 68
1, 413702, Control_c, 0, 64, 109
1, 413708, Note_on_c, 0, 72, 0
1, 413721, Control_c, 0, 64, 93
1, 413737, Note_on_c, 0, 74, 69
1, 413737, Control_c, 0, 64, 65
1, 413755, Control_c, 0, 64, 19
1, 413775, Control_c, 0, 64, 0
1, 413782, Note_on_c, 0, 72, 72
1, 413791, Note_on_c, 0, 74, 0
1, 414014, Control_c, 0, 64, 33
1, 414032, Control_c, 0, 64, 53
1, 414064, Control_c, 0, 64, 68
1, 414083, Control_c, 0, 64, 76
1, 414101, Control_c, 0, 64, 82
1, 414120, Control_c, 0, 64, 86
1, 414145, Note_on_c, 0, 43, 50
1, 414156, Note_on_c, 0, 45, 0
1, 414176, Control_c, 0, 64, 90
1, 414388, Note_on_c, 0, 72, 0
1, 414390, Note_on_c, 0, 71, 75
1, 414690, Note_on_c, 0, 48, 40
1, 414716, Note_on_c, 0, 71, 0
1, 414727, Note_on_c, 0, 43, 0
1, 414727, Note_on_c, 0, 76, 66
1, 414728, Control_c, 0, 64, 86
1, 414747, Control_c, 0, 64, 73
1, 414764, Control_c, 0, 64, 46
1, 414780, Note_on_c, 0, 55, 0
1, 414782, Control_c, 0, 64, 0
1, 414895, Control_c, 0, 64, 25
1, 414912, Control_c, 0, 64, 48
1, 414931, Control_c, 0, 64, 68
1, 414950, Control_c, 0, 64, 77
1, 414968, Control_c, 0, 64, 81
1, 415019, Control_c, 0, 64, 84
1, 415056, Control_c, 0, 64, 87
1, 415166, Control_c, 0, 64, 91
1, 415223, Control_c, 0, 64, 82
1, 415234, Note_on_c, 0, 52, 51
1, 415239, Control_c, 0, 64, 70
1, 415258, Control_c, 0, 64, 56
1, 415277, Control_c, 0, 64, 54
1, 415296, Control_c, 0, 64, 57
1, 415313, Control_c, 0, 64, 63
1, 415333, Control_c, 0, 64, 71
1, 415351, Control_c, 0, 64, 79
1, 415371, Control_c, 0, 64, 88
1, 415387, Control_c, 0, 64, 94
1, 415408, Note_on_c, 0, 76, 0
1, 415426, Control_c, 0, 64, 99
1, 415670, Note_on_c, 0, 76, 57
1, 415695, Note_on_c, 0, 57, 51
1, 415700, Control_c, 0, 64, 90
1, 415719, Control_c, 0, 64, 74
1, 415737, Control_c, 0, 64, 54
1, 415746, Note_on_c, 0, 52, 0
1, 415755, Control_c, 0, 64, 42
1, 415811, Control_c, 0, 64, 49
1, 415831, Control_c, 0, 64, 61
1, 415842, Note_on_c, 0, 78, 63
1, 415845, Note_on_c, 0, 76, 0
1, 415848, Control_c, 0, 64, 71
1, 415866, Control_c, 0, 64, 76
1, 415885, Control_c, 0, 64, 80
1, 415887, Note_on_c, 0, 78, 0
1, 415942, Note_on_c, 0, 79, 66
1, 415954, Control_c, 0, 64, 82
1, 415984, Note_on_c, 0, 79, 0
1, 416005, Note_on_c, 0, 48, 0
1, 416025, Note_on_c, 0, 78, 67
1, 416060, Note_on_c, 0, 78, 0
1, 416086, Note_on_c, 0, 79, 70
1, 416121, Note_on_c, 0, 79, 0
1, 416154, Note_on_c, 0, 78, 70
1, 416175, Control_c, 0, 64, 84
1, 416184, Note_on_c, 0, 45, 55
1, 416188, Note_on_c, 0, 78, 0
1, 416211, Note_on_c, 0, 79, 73
1, 416245, Note_on_c, 0, 79, 0
1, 416280, Note_on_c, 0, 78, 77
1, 416321, Note_on_c, 0, 78, 0
1, 416350, Note_on_c, 0, 79, 62
1, 416375, Note_on_c, 0, 79, 0
1, 416378, Control_c, 0, 64, 86
1, 416404, Note_on_c, 0, 78, 75
1, 416448, Note_on_c, 0, 78, 0
1, 416453, Note_on_c, 0, 79, 69
1, 416487, Note_on_c, 0, 79, 0
1, 416527, Note_on_c, 0, 78, 72
1, 416564, Note_on_c, 0, 78, 0
1, 416587, Note_on_c, 0, 79, 60
1, 416612, Note_on_c, 0, 79, 0
1, 416641, Note_on_c, 0, 50, 60
1, 416656, Note_on_c, 0, 78, 69
1, 416665, Note_on_c, 0, 45, 0
1, 416684, Note_on_c, 0, 79, 75
1, 416690, Note_on_c, 0, 78, 0
1, 416721, Note_on_c, 0, 79, 0
1, 416760, Note_on_c, 0, 78, 78
1, 416804, Note_on_c, 0, 78, 0
1, 416820, Note_on_c, 0, 79, 55
1, 416885, Note_on_c, 0, 78, 68
1, 416900, Note_on_c, 0, 79, 0
1, 416982, Control_c, 0, 64, 88
1, 417064, Note_on_c, 0, 76, 73
1, 417086, Note_on_c, 0, 78, 0
1, 417111, Control_c, 0, 64, 86
1, 417129, Control_c, 0, 64, 71
1, 417136, Note_on_c, 0, 48, 35
1, 417148, Control_c, 0, 64, 38
1, 417166, Control_c, 0, 64, 0
1, 417216, Note_on_c, 0, 50, 0
1, 417259, Control_c, 0, 64, 26
1, 417277, Control_c, 0, 64, 50
1, 417297, Control_c, 0, 64, 72
1, 417315, Control_c, 0, 64, 84
1, 417331, Control_c, 0, 64, 94
1, 417336, Note_on_c, 0, 78, 85
1, 417350, Control_c, 0, 64, 100
1, 417393, Note_on_c, 0, 76, 0
1, 417405, Note_on_c, 0, 48, 0
1, 417405, Control_c, 0, 64, 105
1, 417465, Note_on_c, 0, 78, 0
1, 417480, Control_c, 0, 64, 109
1, 417679, Note_on_c, 0, 79, 76
1, 417693, Note_on_c, 0, 47, 42
1, 417701, Control_c, 0, 64, 96
1, 417719, Control_c, 0, 64, 69
1, 417738, Control_c, 0, 64, 0
1, 417816, Note_on_c, 0, 57, 0
1, 417863, Control_c, 0, 64, 31
1, 417881, Control_c, 0, 64, 53
1, 417901, Control_c, 0, 64, 71
1, 417918, Control_c, 0, 64, 81
1, 417938, Control_c, 0, 64, 88
1, 417957, Control_c, 0, 64, 92
1, 417992, Control_c, 0, 64, 96
1, 418336, Note_on_c, 0, 50, 45
1, 418453, Control_c, 0, 64, 100
1, 418601, Control_c, 0, 64, 105
1, 418834, Note_on_c, 0, 49, 56
1, 418854, Control_c, 0, 64, 95
1, 418873, Control_c, 0, 64, 72
1, 418893, Control_c, 0, 64, 17
1, 418895, Note_on_c, 0, 47, 0
1, 418907, Note_on_c, 0, 50, 0
1, 418909, Control_c, 0, 64, 0
1, 419021, Control_c, 0, 64, 24
1, 419038, Control_c, 0, 64, 39
1, 419056, Control_c, 0, 64, 57
1, 419075, Control_c, 0, 64, 70
1, 419094, Control_c, 0, 64, 75
1, 419113, Control_c, 0, 64, 78
1, 419129, Control_c, 0, 64, 83
1, 419148, Control_c, 0, 64, 90
1, 419157, Note_on_c, 0, 79, 0
1, 419167, Control_c, 0, 64, 99
1, 419187, Control_c, 0, 64, 104
1, 419221, Control_c, 0, 64, 108
1, 419474, Note_on_c, 0, 81, 73
1, 419480, Note_on_c, 0, 52, 42
1, 419758, Note_on_c, 0, 83, 78
1, 419810, Note_on_c, 0, 81, 0
1, 419979, Note_on_c, 0, 81, 71
1, 420004, Note_on_c, 0, 57, 46
1, 420049, Control_c, 0, 64, 93
1, 420051, Note_on_c, 0, 83, 0
1, 420065, Control_c, 0, 64, 71
1, 420080, Poly_aftertouch_c, 0, 52, 24
1, 420082, Control_c, 0, 64, 44
1, 420103, Control_c, 0, 64, 29
1, 420115, Note_on_c, 0, 52, 0
1, 420115, Poly_aftertouch_c, 0, 52, 0
1, 420156, Control_c, 0, 64, 44
1, 420176, Control_c, 0, 64, 62
1, 420193, Control_c, 0, 64, 74
1, 420199, Note_on_c, 0, 78, 76
1, 420213, Control_c, 0, 64, 82
1, 420232, Control_c, 0, 64, 89
1, 420245, Note_on_c, 0, 81, 0
1, 420250, Control_c, 0, 64, 93
1, 420287, Control_c, 0, 64, 98
1, 420519, Note_on_c, 0, 79, 62
1, 420536, Note_on_c, 0, 78, 0
1, 420544, Note_on_c, 0, 45, 42
1, 420563, Control_c, 0, 64, 92
1, 420582, Control_c, 0, 64, 75
1, 420613, Control_c, 0, 64, 47
1, 420632, Control_c, 0, 64, 0
1, 420650, Note_on_c, 0, 49, 0
1, 420708, Control_c, 0, 64, 24
1, 420725, Control_c, 0, 64, 51
1, 420745, Control_c, 0, 64, 74
1, 420763, Control_c, 0, 64, 87
1, 420780, Control_c, 0, 64, 99
1, 420798, Control_c, 0, 64, 103
1, 420810, Note_on_c, 0, 45, 0
1, 420842, Note_on_c, 0, 79, 0
1, 421231, Note_on_c, 0, 79, 59
1, 421231, Note_on_c, 0, 50, 40
1, 421265, Note_on_c, 0, 79, 0
1, 421294, Note_on_c, 0, 78, 66
1, 421309, Note_on_c, 0, 57, 0
1, 421313, Control_c, 0, 64, 82
1, 421323, Note_on_c, 0, 78, 0
1, 421331, Control_c, 0, 64, 56
1, 421339, Note_on_c, 0, 79, 78
1, 421351, Control_c, 0, 64, 32
1, 421408, Control_c, 0, 64, 43
1, 421411, Note_on_c, 0, 78, 68
1, 421425, Control_c, 0, 64, 60
1, 421431, Note_on_c, 0, 79, 0
1, 421443, Control_c, 0, 64, 72
1, 421461, Control_c, 0, 64, 78
1, 421480, Control_c, 0, 64, 83
1, 421499, Control_c, 0, 64, 87
1, 421586, Control_c, 0, 64, 91
1, 421661, Control_c, 0, 64, 95
1, 421739, Note_on_c, 0, 57, 56
1, 421789, Control_c, 0, 64, 83
1, 421807, Control_c, 0, 64, 67
1, 421825, Control_c, 0, 64, 52
1, 421845, Control_c, 0, 64, 49
1, 421882, Control_c, 0, 64, 55
1, 421900, Control_c, 0, 64, 64
1, 421920, Control_c, 0, 64, 72
1, 421936, Control_c, 0, 64, 78
1, 421955, Control_c, 0, 64, 83
1, 421973, Control_c, 0, 64, 86
1, 422048, Control_c, 0, 64, 91
1, 422102, Control_c, 0, 64, 95
1, 422194, Control_c, 0, 64, 90
1, 422215, Control_c, 0, 64, 78
1, 422218, Note_on_c, 0, 62, 51
1, 422227, Note_on_c, 0, 57, 0
1, 422233, Control_c, 0, 64, 63
1, 422249, Control_c, 0, 64, 55
1, 422305, Control_c, 0, 64, 63
1, 422323, Control_c, 0, 64, 70
1, 422343, Control_c, 0, 64, 76
1, 422361, Control_c, 0, 64, 81
1, 422380, Control_c, 0, 64, 83
1, 422416, Control_c, 0, 64, 85
1, 422484, Control_c, 0, 64, 87
1, 422616, Control_c, 0, 64, 92
1, 422696, Note_on_c, 0, 76, 56
1, 422708, Note_on_c, 0, 60, 44
1, 422712, Note_on_c, 0, 62, 0
1, 422724, Note_on_c, 0, 78, 0
1, 422744, Control_c, 0, 64, 86
1, 422762, Control_c, 0, 64, 76
1, 422780, Control_c, 0, 64, 66
1, 422800, Control_c, 0, 64, 62
1, 422817, Control_c, 0, 64, 63
1, 422837, Control_c, 0, 64, 67
1, 422855, Control_c, 0, 64, 71
1, 422873, Control_c, 0, 64, 75
1, 422890, Control_c, 0, 64, 81
1, 422910, Control_c, 0, 64, 85
1, 422929, Control_c, 0, 64, 88
1, 423020, Control_c, 0, 64, 92
1, 423187, Note_on_c, 0, 74, 43
1, 423207, Note_on_c, 0, 76, 0
1, 423212, Note_on_c, 0, 59, 39
1, 423260, Control_c, 0, 64, 81
1, 423278, Control_c, 0, 64, 64
1, 423279, Note_on_c, 0, 60, 0
1, 423297, Control_c, 0, 64, 36
1, 423314, Control_c, 0, 64, 0
1, 423828, Note_on_c, 0, 57, 37
1, 423838, Note_on_c, 0, 59, 0
1, 423865, Control_c, 0, 64, 23
1, 423882, Control_c, 0, 64, 44
1, 423899, Control_c, 0, 64, 63
1, 423918, Control_c, 0, 64, 75
1, 423937, Control_c, 0, 64, 82
1, 423956, Control_c, 0, 64, 87
1, 423961, Note_on_c, 0, 74, 0
1, 423969, Note_on_c, 0, 50, 0
1, 423975, Control_c, 0, 64, 92
1, 424012, Control_c, 0, 64, 99
1, 424066, Control_c, 0, 64, 103
1, 424153, Note_on_c, 0, 74, 50
1, 424183, Note_on_c, 0, 74, 0
1, 424203, Note_on_c, 0, 72, 62
1, 424229, Note_on_c, 0, 72, 0
1, 424266, Note_on_c, 0, 74, 65
1, 424300, Note_on_c, 0, 74, 0
1, 424307, Note_on_c, 0, 72, 71
1, 424336, Note_on_c, 0, 55, 49
1, 424356, Control_c, 0, 64, 84
1, 424363, Note_on_c, 0, 52, 40
1, 424374, Note_on_c, 0, 57, 0
1, 424375, Control_c, 0, 64, 56
1, 424393, Control_c, 0, 64, 0
1, 424562, Note_on_c, 0, 71, 66
1, 424572, Note_on_c, 0, 72, 0
1, 424777, Note_on_c, 0, 52, 0
1, 424785, Note_on_c, 0, 71, 0
1, 424795, Note_on_c, 0, 72, 48
1, 424833, Note_on_c, 0, 50, 29
1, 424948, Control_c, 0, 64, 32
1, 424965, Control_c, 0, 64, 56
1, 424983, Control_c, 0, 64, 72
1, 425001, Control_c, 0, 64, 82
1, 425021, Control_c, 0, 64, 92
1, 425035, Note_on_c, 0, 72, 0
1, 425038, Control_c, 0, 64, 99
1, 425074, Control_c, 0, 64, 104
1, 425111, Control_c, 0, 64, 109
1, 425137, Note_on_c, 0, 55, 0
1, 425199, Note_on_c, 0, 50, 0
1, 425293, Control_c, 0, 64, 113
1, 425446, Note_on_c, 0, 78, 65
1, 425502, Note_on_c, 0, 57, 34
1, 425515, Control_c, 0, 64, 101
1, 425523, Note_on_c, 0, 48, 32
1, 425532, Control_c, 0, 64, 77
1, 425550, Control_c, 0, 64, 35
1, 425569, Control_c, 0, 64, 0
1, 425662, Control_c, 0, 64, 8
1, 425679, Control_c, 0, 64, 39
1, 425697, Control_c, 0, 64, 62
1, 425717, Control_c, 0, 64, 75
1, 425735, Control_c, 0, 64, 81
1, 425754, Control_c, 0, 64, 84
1, 425770, Control_c, 0, 64, 86
1, 425808, Control_c, 0, 64, 90
1, 425913, Note_on_c, 0, 48, 0
1, 426043, Note_on_c, 0, 47, 32
1, 426195, Control_c, 0, 64, 94
1, 426261, Note_on_c, 0, 47, 0
1, 426358, Control_c, 0, 64, 99
1, 426532, Note_on_c, 0, 45, 41
1, 426540, Control_c, 0, 64, 93
1, 426560, Control_c, 0, 64, 82
1, 426579, Control_c, 0, 64, 70
1, 426598, Control_c, 0, 64, 66
1, 426614, Control_c, 0, 64, 69
1, 426633, Control_c, 0, 64, 73
1, 426651, Control_c, 0, 64, 79
1, 426671, Control_c, 0, 64, 88
1, 426690, Control_c, 0, 64, 96
1, 426705, Control_c, 0, 64, 101
1, 426828, Note_on_c, 0, 45, 0
1, 427001, Control_c, 0, 64, 105
1, 427010, Note_on_c, 0, 78, 0
1, 427012, Note_on_c, 0, 79, 59
1, 427059, Note_on_c, 0, 43, 37
1, 427074, Control_c, 0, 64, 101
1, 427094, Control_c, 0, 64, 89
1, 427112, Control_c, 0, 64, 73
1, 427131, Control_c, 0, 64, 60
1, 427139, Poly_aftertouch_c, 0, 57, 24
1, 427182, Control_c, 0, 64, 65
1, 427200, Control_c, 0, 64, 72
1, 427219, Control_c, 0, 64, 81
1, 427221, Note_on_c, 0, 57, 0
1, 427221, Poly_aftertouch_c, 0, 57, 0
1, 427238, Control_c, 0, 64, 92
1, 427258, Control_c, 0, 64, 100
1, 427314, Control_c, 0, 64, 104
1, 427322, Note_on_c, 0, 43, 0
1, 427324, Note_on_c, 0, 81, 66
1, 427343, Note_on_c, 0, 79, 0
1, 427383, Note_on_c, 0, 81, 0
1, 427402, Control_c, 0, 64, 108
1, 427683, Note_on_c, 0, 81, 53
1, 427701, Note_on_c, 0, 42, 39
1, 427717, Control_c, 0, 64, 89
1, 427735, Control_c, 0, 64, 65
1, 427754, Control_c, 0, 64, 42
1, 427773, Control_c, 0, 64, 37
1, 427808, Control_c, 0, 64, 43
1, 427827, Control_c, 0, 64, 55
1, 427846, Control_c, 0, 64, 65
1, 427862, Control_c, 0, 64, 71
1, 427873, Note_on_c, 0, 83, 63
1, 427881, Control_c, 0, 64, 73
1, 427895, Note_on_c, 0, 81, 0
1, 428022, Note_on_c, 0, 84, 71
1, 428035, Note_on_c, 0, 83, 0
1, 428066, Note_on_c, 0, 84, 0
1, 428117, Control_c, 0, 64, 70
1, 428154, Control_c, 0, 64, 67
1, 428173, Control_c, 0, 64, 66
1, 428192, Control_c, 0, 64, 64
1, 428205, Note_on_c, 0, 84, 71
1, 428206, Note_on_c, 0, 42, 0
1, 428209, Note_on_c, 0, 38, 44
1, 428211, Control_c, 0, 64, 63
1, 428229, Control_c, 0, 64, 61
1, 428247, Control_c, 0, 64, 60
1, 428302, Control_c, 0, 64, 58
1, 428366, Note_on_c, 0, 83, 74
1, 428387, Note_on_c, 0, 84, 0
1, 428498, Note_on_c, 0, 83, 0
1, 428506, Note_on_c, 0, 81, 71
1, 428524, Control_c, 0, 64, 56
1, 428581, Note_on_c, 0, 81, 0
1, 428665, Note_on_c, 0, 81, 67
1, 428681, Note_on_c, 0, 40, 37
1, 428722, Note_on_c, 0, 38, 0
1, 428744, Control_c, 0, 64, 54
1, 428822, Note_on_c, 0, 79, 70
1, 428837, Note_on_c, 0, 81, 0
1, 428892, Control_c, 0, 64, 52
1, 428959, Note_on_c, 0, 78, 73
1, 428963, Note_on_c, 0, 79, 0
1, 429045, Note_on_c, 0, 78, 0
1, 429127, Note_on_c, 0, 40, 0
1, 429141, Note_on_c, 0, 45, 63
1, 429141, Note_on_c, 0, 78, 72
1, 429151, Note_on_c, 0, 42, 49
1, 429201, Control_c, 0, 64, 50
1, 429294, Note_on_c, 0, 76, 72
1, 429330, Control_c, 0, 64, 48
1, 429334, Note_on_c, 0, 42, 0
1, 429337, Note_on_c, 0, 78, 0
1, 429431, Note_on_c, 0, 74, 71
1, 429437, Note_on_c, 0, 76, 0
1, 429499, Note_on_c, 0, 74, 0
1, 429569, Control_c, 0, 64, 46
1, 429586, Note_on_c, 0, 74, 70
1, 429605, Note_on_c, 0, 47, 57
1, 429608, Note_on_c, 0, 43, 42
1, 429626, Note_on_c, 0, 45, 0
1, 429759, Note_on_c, 0, 83, 74
1, 429785, Note_on_c, 0, 74, 0
1, 429903, Note_on_c, 0, 81, 71
1, 429942, Note_on_c, 0, 83, 0
1, 430079, Note_on_c, 0, 79, 63
1, 430088, Note_on_c, 0, 47, 0
1, 430093, Note_on_c, 0, 43, 0
1, 430097, Note_on_c, 0, 48, 54
1, 430099, Note_on_c, 0, 81, 0
1, 430122, Note_on_c, 0, 45, 43
1, 430238, Note_on_c, 0, 79, 0
1, 430239, Note_on_c, 0, 78, 66
1, 430266, Note_on_c, 0, 45, 0
1, 430352, Note_on_c, 0, 78, 0
1, 430394, Note_on_c, 0, 76, 57
1, 430560, Note_on_c, 0, 74, 56
1, 430562, Note_on_c, 0, 76, 0
1, 430578, Note_on_c, 0, 50, 49
1, 430586, Note_on_c, 0, 48, 0
1, 430591, Note_on_c, 0, 47, 32
1, 430732, Note_on_c, 0, 74, 0
1, 430742, Note_on_c, 0, 72, 51
1, 430867, Note_on_c, 0, 72, 0
1, 430885, Note_on_c, 0, 71, 55
1, 431109, Note_on_c, 0, 71, 0
1, 431109, Note_on_c, 0, 76, 56
1, 431122, Note_on_c, 0, 55, 59
1, 431145, Note_on_c, 0, 47, 0
1, 431175, Note_on_c, 0, 48, 40
1, 431201, Control_c, 0, 64, 43
1, 431219, Control_c, 0, 64, 41
1, 431222, Note_on_c, 0, 50, 0
1, 431256, Control_c, 0, 64, 37
1, 431312, Control_c, 0, 64, 43
1, 431328, Note_on_c, 0, 74, 60
1, 431329, Control_c, 0, 64, 56
1, 431349, Control_c, 0, 64, 68
1, 431356, Note_on_c, 0, 48, 0
1, 431365, Note_on_c, 0, 76, 0
1, 431366, Control_c, 0, 64, 74
1, 431384, Control_c, 0, 64, 77
1, 431404, Control_c, 0, 64, 79
1, 431488, Note_on_c, 0, 72, 62
1, 431505, Note_on_c, 0, 74, 0
1, 431643, Control_c, 0, 64, 77
1, 431661, Control_c, 0, 64, 74
1, 431663, Control_c, 0, 67, 8
1, 431679, Control_c, 0, 64, 69
1, 431689, Note_on_c, 0, 72, 0
1, 431697, Control_c, 0, 64, 62
1, 431701, Note_on_c, 0, 71, 48
1, 431716, Note_on_c, 0, 50, 40
1, 431716, Control_c, 0, 64, 55
1, 431736, Control_c, 0, 64, 39
1, 431755, Control_c, 0, 64, 0
1, 431755, Control_c, 0, 67, 13
1, 431878, Control_c, 0, 64, 22
1, 431897, Control_c, 0, 64, 47
1, 431915, Control_c, 0, 64, 68
1, 431934, Control_c, 0, 64, 79
1, 431953, Control_c, 0, 64, 87
1, 431990, Control_c, 0, 64, 92
1, 432231, Control_c, 0, 64, 88
1, 432234, Note_on_c, 0, 55, 0
1, 432245, Note_on_c, 0, 52, 44
1, 432246, Control_c, 0, 64, 79
1, 432265, Control_c, 0, 64, 64
1, 432284, Control_c, 0, 64, 31
1, 432303, Control_c, 0, 64, 0
1, 432414, Control_c, 0, 64, 44
1, 432432, Control_c, 0, 64, 67
1, 432452, Control_c, 0, 64, 82
1, 432467, Control_c, 0, 64, 93
1, 432486, Control_c, 0, 64, 99
1, 432490, Note_on_c, 0, 71, 0
1, 432524, Control_c, 0, 64, 104
1, 432578, Control_c, 0, 64, 108
1, 432585, Note_on_c, 0, 52, 0
1, 432634, Control_c, 0, 67, 17
1, 432672, Control_c, 0, 67, 22
1, 432727, Control_c, 0, 67, 27
1, 432763, Control_c, 0, 67, 33
1, 432867, Control_c, 0, 67, 38
1, 432867, Note_on_c, 0, 54, 40
1, 432871, Note_on_c, 0, 71, 53
1, 432902, Note_on_c, 0, 71, 0
1, 432924, Control_c, 0, 64, 92
1, 432926, Control_c, 0, 67, 43
1, 432943, Control_c, 0, 64, 66
1, 432953, Note_on_c, 0, 69, 52
1, 432962, Control_c, 0, 64, 26
1, 432980, Control_c, 0, 64, 0
1, 432982, Control_c, 0, 67, 47
1, 432984, Note_on_c, 0, 69, 0
1, 433002, Note_on_c, 0, 71, 63
1, 433055, Control_c, 0, 64, 27
1, 433056, Note_on_c, 0, 71, 0
1, 433056, Control_c, 0, 67, 51
1, 433071, Control_c, 0, 64, 46
1, 433084, Note_on_c, 0, 69, 61
1, 433089, Control_c, 0, 64, 64
1, 433091, Control_c, 0, 67, 56
1, 433110, Control_c, 0, 64, 73
1, 433127, Control_c, 0, 64, 76
1, 433128, Control_c, 0, 67, 61
1, 433202, Control_c, 0, 67, 66
1, 433220, Control_c, 0, 64, 74
1, 433221, Control_c, 0, 67, 70
1, 433238, Control_c, 0, 67, 75
1, 433256, Control_c, 0, 67, 80
1, 433274, Control_c, 0, 64, 71
1, 433275, Control_c, 0, 67, 85
1, 433292, Control_c, 0, 67, 89
1, 433312, Control_c, 0, 67, 94
1, 433330, Control_c, 0, 64, 68
1, 433330, Control_c, 0, 67, 99
1, 433349, Control_c, 0, 64, 67
1, 433351, Control_c, 0, 67, 106
1, 433368, Control_c, 0, 67, 115
1, 433387, Control_c, 0, 64, 66
1, 433388, Control_c, 0, 67, 122
1, 433421, Control_c, 0, 64, 65
1, 433422, Control_c, 0, 67, 127
1, 433441, Control_c, 0, 64, 63
1, 433460, Control_c, 0, 64, 62
1, 433494, Control_c, 0, 64, 61
1, 433515, Control_c, 0, 64, 60
1, 433551, Control_c, 0, 64, 58
1, 433589, Control_c, 0, 64, 55
1, 433607, Control_c, 0, 64, 53
1, 433627, Control_c, 0, 64, 48
1, 433642, Control_c, 0, 64, 37
1, 433661, Note_on_c, 0, 60, 48
1, 433662, Control_c, 0, 64, 17
1, 433680, Control_c, 0, 64, 0
1, 433725, Note_on_c, 0, 54, 0
1, 433842, Control_c, 0, 64, 22
1, 433861, Control_c, 0, 64, 44
1, 433878, Control_c, 0, 64, 61
1, 433897, Control_c, 0, 64, 73
1, 433915, Control_c, 0, 64, 77
1, 433934, Control_c, 0, 64, 79
1, 433951, Control_c, 0, 64, 81
1, 433988, Control_c, 0, 64, 84
1, 434024, Control_c, 0, 64, 87
1, 434065, Note_on_c, 0, 69, 0
1, 434084, Note_on_c, 0, 67, 47
1, 434099, Control_c, 0, 64, 85
1, 434119, Control_c, 0, 64, 73
1, 434137, Control_c, 0, 64, 55
1, 434155, Control_c, 0, 64, 39
1, 434191, Control_c, 0, 64, 43
1, 434210, Control_c, 0, 64, 58
1, 434228, Control_c, 0, 64, 71
1, 434247, Control_c, 0, 64, 82
1, 434266, Control_c, 0, 64, 94
1, 434284, Control_c, 0, 64, 104
1, 434306, Note_on_c, 0, 67, 0
1, 434322, Control_c, 0, 64, 108
1, 434330, Poly_aftertouch_c, 0, 50, 24
1, 434413, Note_on_c, 0, 50, 0
1, 434413, Poly_aftertouch_c, 0, 50, 0
1, 434413, Poly_aftertouch_c, 0, 50, 0
1, 434573, Note_on_c, 0, 67, 38
1, 434602, Note_on_c, 0, 55, 36
1, 434666, Control_c, 0, 64, 94
1, 434686, Control_c, 0, 64, 69
1, 434704, Control_c, 0, 64, 19
1, 434722, Control_c, 0, 64, 0
1, 434814, Control_c, 0, 64, 23
1, 434833, Control_c, 0, 64, 45
1, 434851, Control_c, 0, 64, 66
1, 434870, Control_c, 0, 64, 77
1, 434888, Control_c, 0, 64, 83
1, 434906, Control_c, 0, 64, 85
1, 434960, Control_c, 0, 64, 87
1, 435183, Control_c, 0, 64, 84
1, 435220, Control_c, 0, 64, 82
1, 435239, Note_on_c, 0, 59, 48
1, 435258, Control_c, 0, 64, 78
1, 435274, Control_c, 0, 64, 76
1, 435293, Control_c, 0, 64, 72
1, 435311, Control_c, 0, 64, 67
1, 435312, Note_on_c, 0, 60, 0
1, 435330, Control_c, 0, 64, 63
1, 435348, Control_c, 0, 64, 61
1, 435365, Control_c, 0, 64, 60
1, 435422, Control_c, 0, 64, 58
1, 435460, Control_c, 0, 64, 56
1, 435509, Note_on_c, 0, 57, 51
1, 435539, Note_on_c, 0, 59, 0
1, 435570, Control_c, 0, 64, 54
1, 435694, Control_c, 0, 64, 52
1, 435862, Note_on_c, 0, 59, 40
1, 435940, Note_on_c, 0, 57, 0
1, 435990, Control_c, 0, 64, 50
1, 435995, Note_on_c, 0, 55, 0
1, 436548, Note_on_c, 0, 55, 35
1, 436613, Control_c, 0, 64, 48
1, 436703, Note_on_c, 0, 55, 0
1, 436815, Control_c, 0, 64, 46
1, 436926, Control_c, 0, 64, 49
1, 436943, Control_c, 0, 64, 56
1, 436962, Control_c, 0, 64, 62
1, 436981, Control_c, 0, 64, 66
1, 436998, Control_c, 0, 64, 69
1, 437016, Control_c, 0, 64, 72
1, 437035, Control_c, 0, 64, 75
1, 437054, Control_c, 0, 64, 77
1, 437071, Control_c, 0, 64, 81
1, 437089, Control_c, 0, 64, 83
1, 437108, Control_c, 0, 64, 86
1, 437146, Control_c, 0, 64, 91
1, 437201, Control_c, 0, 64, 96
1, 437420, Poly_aftertouch_c, 0, 59, 24
1, 437511, Control_c, 0, 64, 100
1, 437523, Note_on_c, 0, 59, 0
1, 437523, Poly_aftertouch_c, 0, 59, 0
1, 437670, Note_on_c, 0, 43, 37
1, 437786, Control_c, 0, 64, 92
1, 437805, Control_c, 0, 64, 83
1, 437823, Control_c, 0, 64, 73
1, 437842, Control_c, 0, 64, 67
1, 437879, Control_c, 0, 64, 69
1, 437898, Control_c, 0, 64, 72
1, 437917, Control_c, 0, 64, 76
1, 437933, Control_c, 0, 64, 79
1, 437952, Control_c, 0, 64, 83
1, 437971, Control_c, 0, 64, 85
1, 438026, Control_c, 0, 64, 87
1, 438539, Control_c, 0, 64, 85
1, 438612, Control_c, 0, 64, 83
1, 438668, Control_c, 0, 64, 81
1, 438722, Control_c, 0, 64, 79
1, 438741, Poly_aftertouch_c, 0, 43, 24
1, 438777, Control_c, 0, 64, 76
1, 438815, Control_c, 0, 64, 73
1, 438853, Control_c, 0, 64, 71
1, 438907, Control_c, 0, 64, 68
1, 438926, Control_c, 0, 64, 65
1, 438942, Control_c, 0, 64, 62
1, 438962, Control_c, 0, 64, 61
1, 439017, Control_c, 0, 64, 60
1, 439053, Control_c, 0, 64, 57
1, 439090, Control_c, 0, 64, 54
1, 439181, Control_c, 0, 64, 52
1, 439242, Poly_aftertouch_c, 0, 67, 24
1, 439256, Control_c, 0, 64, 50
1, 439340, Note_on_c, 0, 67, 0
1, 439340, Poly_aftertouch_c, 0, 67, 0
1, 439363, Control_c, 0, 64, 48
1, 439392, Poly_aftertouch_c, 0, 43, 22
1, 439436, Note_on_c, 0, 43, 0
1, 439436, Poly_aftertouch_c, 0, 43, 0
1, 439511, Control_c, 0, 64, 46
1, 439657, Control_c, 0, 64, 44
1, 440064, Control_c, 0, 64, 42
1, 441017, Control_c, 0, 64, 47
1, 441036, Control_c, 0, 64, 52
1, 441052, Control_c, 0, 64, 56
1, 441071, Control_c, 0, 64, 58
1, 441090, Control_c, 0, 64, 60
1, 441108, Control_c, 0, 64, 62
1, 441128, Control_c, 0, 64, 64
1, 441146, Control_c, 0, 64, 65
1, 441165, Control_c, 0, 64, 66
1, 441184, Control_c, 0, 64, 68
1, 441234, Control_c, 0, 64, 70
1, 441272, Control_c, 0, 64, 72
1, 441309, Control_c, 0, 64, 75
1, 441346, Control_c, 0, 64, 77
1, 441382, Control_c, 0, 64, 81
1, 441419, Control_c, 0, 64, 84
1, 441437, Control_c, 0, 64, 86
1, 441475, Control_c, 0, 64, 90
1, 441547, Control_c, 0, 64, 94
1, 441640, Control_c, 0, 64, 98
1, 441695, Control_c, 0, 64, 103
1, 441749, Control_c, 0, 64, 108
1, 441862, Control_c, 0, 64, 112
1, 442299, Control_c, 0, 64, 108
1, 442356, Control_c, 0, 64, 103
1, 442428, Control_c, 0, 64, 99
1, 442482, Control_c, 0, 67, 123
1, 442520, Control_c, 0, 64, 94
1, 442521, Control_c, 0, 67, 118
1, 442539, Control_c, 0, 67, 114
1, 442557, Control_c, 0, 67, 109
1, 442576, Control_c, 0, 67, 104
1, 442594, Control_c, 0, 64, 90
1, 442596, Control_c, 0, 67, 97
1, 442612, Control_c, 0, 67, 91
1, 442631, Control_c, 0, 64, 88
1, 442632, Control_c, 0, 67, 85
1, 442648, Control_c, 0, 67, 79
1, 442669, Control_c, 0, 64, 86
1, 442670, Control_c, 0, 67, 72
1, 442684, Control_c, 0, 67, 67
1, 442703, Control_c, 0, 67, 63
1, 442721, Control_c, 0, 64, 83
1, 442740, Control_c, 0, 67, 56
1, 442759, Control_c, 0, 64, 81
1, 442760, Control_c, 0, 67, 52
1, 442778, Control_c, 0, 67, 47
1, 442796, Control_c, 0, 67, 42
1, 442815, Control_c, 0, 67, 36
1, 442833, Control_c, 0, 64, 79
1, 442835, Control_c, 0, 67, 30
1, 442851, Control_c, 0, 67, 23
1, 442870, Control_c, 0, 67, 17
1, 442889, Control_c, 0, 64, 77
1, 442891, Control_c, 0, 67, 11
1, 442942, Control_c, 0, 64, 75
1, 442998, Control_c, 0, 67, 0
1, 443017, Control_c, 0, 64, 73
1, 443547, Control_c, 0, 64, 71
1, 443584, Control_c, 0, 64, 62
1, 443603, Control_c, 0, 64, 49
1, 443619, Control_c, 0, 64, 26
1, 443639, Control_c, 0, 64, 0
1, 443860, Control_c, 0, 64, 9
1, 443897, Control_c, 0, 64, 13
1, 444079, Control_c, 0, 64, 18
1, 444148, Note_on_c, 0, 83, 71
1, 444158, Note_on_c, 0, 55, 44
1, 444163, Note_on_c, 0, 74, 58
1, 444169, Control_c, 0, 64, 0
1, 444179, Note_on_c, 0, 83, 0
1, 444185, Note_on_c, 0, 74, 0
1, 444199, Note_on_c, 0, 55, 0
1, 444542, Note_on_c, 0, 79, 64
1, 444546, Note_on_c, 0, 67, 52
1, 444562, Note_on_c, 0, 71, 47
1, 444575, Note_on_c, 0, 79, 0
1, 444578, Note_on_c, 0, 67, 0
1, 444593, Note_on_c, 0, 71, 0
1, 444918, Note_on_c, 0, 74, 67
1, 444928, Note_on_c, 0, 69, 57
1, 444949, Note_on_c, 0, 66, 48
1, 444998, Note_on_c, 0, 66, 0
1, 445276, Note_on_c, 0, 54, 34
1, 445286, Note_on_c, 0, 74, 0
1, 445286, Note_on_c, 0, 76, 68
1, 445325, Note_on_c, 0, 54, 0
1, 445356, Note_on_c, 0, 69, 0
1, 445413, Note_on_c, 0, 76, 0
1, 445421, Note_on_c, 0, 78, 66
1, 445521, Note_on_c, 0, 78, 0
1, 445564, Note_on_c, 0, 79, 75
1, 445569, Note_on_c, 0, 52, 47
1, 445569, Note_on_c, 0, 71, 75
1, 445594, Note_on_c, 0, 79, 0
1, 445599, Note_on_c, 0, 71, 0
1, 445609, Note_on_c, 0, 52, 0
1, 445899, Note_on_c, 0, 76, 65
1, 445904, Note_on_c, 0, 64, 50
1, 445910, Note_on_c, 0, 67, 58
1, 445932, Note_on_c, 0, 76, 0
1, 445934, Note_on_c, 0, 67, 0
1, 445936, Note_on_c, 0, 64, 0
1, 446215, Note_on_c, 0, 71, 58
1, 446222, Note_on_c, 0, 66, 46
1, 446227, Note_on_c, 0, 62, 53
1, 446268, Note_on_c, 0, 62, 0
1, 446319, Control_c, 0, 67, 8
1, 446483, Control_c, 0, 67, 14
1, 446501, Control_c, 0, 67, 20
1, 446521, Control_c, 0, 67, 26
1, 446531, Note_on_c, 0, 50, 54
1, 446577, Note_on_c, 0, 66, 0
1, 446577, Note_on_c, 0, 50, 0
1, 446864, Note_on_c, 0, 76, 66
1, 446868, Note_on_c, 0, 48, 45
1, 446873, Note_on_c, 0, 67, 56
1, 446880, Note_on_c, 0, 71, 0
1, 446904, Note_on_c, 0, 48, 0
1, 446905, Note_on_c, 0, 67, 0
1, 446905, Note_on_c, 0, 76, 0
1, 447179, Note_on_c, 0, 72, 60
1, 447189, Note_on_c, 0, 69, 51
1, 447193, Note_on_c, 0, 60, 44
1, 447224, Note_on_c, 0, 69, 0
1, 447227, Note_on_c, 0, 72, 0
1, 447229, Note_on_c, 0, 60, 0
1, 447500, Note_on_c, 0, 69, 57
1, 447513, Note_on_c, 0, 66, 46
1, 447514, Note_on_c, 0, 62, 49
1, 447552, Note_on_c, 0, 62, 0
1, 447805, Note_on_c, 0, 66, 0
1, 447825, Note_on_c, 0, 57, 54
1, 447838, Note_on_c, 0, 69, 0
1, 447846, Note_on_c, 0, 71, 62
1, 447857, Control_c, 0, 67, 21
1, 447869, Note_on_c, 0, 57, 0
1, 447895, Control_c, 0, 67, 16
1, 447932, Control_c, 0, 67, 11
1, 448004, Control_c, 0, 67, 0
1, 448004, Note_on_c, 0, 72, 71
1, 448009, Note_on_c, 0, 71, 0
1, 448139, Note_on_c, 0, 54, 56
1, 448142, Note_on_c, 0, 74, 72
1, 448155, Note_on_c, 0, 69, 59
1, 448170, Note_on_c, 0, 72, 0
1, 448176, Note_on_c, 0, 54, 0
1, 448292, Note_on_c, 0, 74, 0
1, 448300, Note_on_c, 0, 69, 0
1, 448303, Note_on_c, 0, 71, 61
1, 448441, Note_on_c, 0, 71, 0
1, 448450, Note_on_c, 0, 50, 51
1, 448453, Note_on_c, 0, 72, 66
1, 448479, Note_on_c, 0, 50, 0
1, 448572, Note_on_c, 0, 72, 0
1, 448590, Note_on_c, 0, 69, 58
1, 448727, Note_on_c, 0, 69, 0
1, 448769, Note_on_c, 0, 72, 61
1, 448774, Note_on_c, 0, 67, 56
1, 448783, Note_on_c, 0, 55, 45
1, 448822, Note_on_c, 0, 55, 0
1, 448825, Note_on_c, 0, 67, 0
1, 448920, Note_on_c, 0, 71, 66
1, 448921, Note_on_c, 0, 72, 0
1, 449070, Note_on_c, 0, 50, 49
1, 449071, Note_on_c, 0, 71, 0
1, 449079, Note_on_c, 0, 69, 61
1, 449106, Note_on_c, 0, 50, 0
1, 449155, Note_on_c, 0, 69, 0
1, 449205, Note_on_c, 0, 67, 58
1, 449235, Note_on_c, 0, 67, 0
1, 449374, Note_on_c, 0, 43, 65
1, 449375, Note_on_c, 0, 83, 85
1, 449382, Note_on_c, 0, 74, 69
1, 449403, Note_on_c, 0, 83, 0
1, 449403, Note_on_c, 0, 74, 0
1, 449435, Note_on_c, 0, 43, 0
1, 449525, Note_on_c, 0, 50, 60
1, 449564, Note_on_c, 0, 50, 0
1, 449671, Note_on_c, 0, 79, 84
1, 449681, Note_on_c, 0, 71, 74
1, 449706, Note_on_c, 0, 52, 60
1, 449707, Note_on_c, 0, 79, 0
1, 449709, Note_on_c, 0, 71, 0
1, 449736, Note_on_c, 0, 52, 0
1, 449829, Note_on_c, 0, 54, 72
1, 449862, Note_on_c, 0, 54, 0
1, 449982, Note_on_c, 0, 76, 84
1, 449988, Note_on_c, 0, 55, 75
1, 449991, Note_on_c, 0, 73, 78
1, 450023, Note_on_c, 0, 55, 0
1, 450131, Note_on_c, 0, 57, 70
1, 450133, Note_on_c, 0, 73, 0
1, 450139, Note_on_c, 0, 76, 0
1, 450163, Note_on_c, 0, 57, 0
1, 450283, Note_on_c, 0, 55, 75
1, 450290, Note_on_c, 0, 76, 85
1, 450297, Note_on_c, 0, 73, 72
1, 450317, Note_on_c, 0, 55, 0
1, 450329, Note_on_c, 0, 73, 0
1, 450353, Note_on_c, 0, 76, 0
1, 450432, Note_on_c, 0, 54, 69
1, 450434, Note_on_c, 0, 78, 82
1, 450437, Note_on_c, 0, 74, 80
1, 450466, Note_on_c, 0, 54, 0
1, 450477, Note_on_c, 0, 74, 0
1, 450483, Note_on_c, 0, 78, 0
1, 450593, Note_on_c, 0, 79, 81
1, 450594, Note_on_c, 0, 76, 82
1, 450605, Note_on_c, 0, 52, 70
1, 450618, Note_on_c, 0, 76, 0
1, 450623, Note_on_c, 0, 79, 0
1, 450642, Note_on_c, 0, 52, 0
1, 450752, Note_on_c, 0, 50, 65
1, 450789, Note_on_c, 0, 50, 0
1, 450907, Note_on_c, 0, 73, 71
1, 450910, Note_on_c, 0, 52, 65
1, 450910, Note_on_c, 0, 76, 65
1, 450931, Note_on_c, 0, 76, 0
1, 450939, Note_on_c, 0, 73, 0
1, 450945, Note_on_c, 0, 52, 0
1, 451048, Note_on_c, 0, 54, 69
1, 451081, Note_on_c, 0, 54, 0
1, 451201, Note_on_c, 0, 55, 71
1, 451202, Note_on_c, 0, 73, 73
1, 451203, Note_on_c, 0, 69, 80
1, 451239, Note_on_c, 0, 55, 0
1, 451306, Note_on_c, 0, 73, 0
1, 451338, Note_on_c, 0, 57, 74
1, 451373, Note_on_c, 0, 57, 0
1, 451518, Note_on_c, 0, 59, 77
1, 451536, Note_on_c, 0, 74, 81
1, 451551, Note_on_c, 0, 59, 0
1, 451664, Note_on_c, 0, 61, 66
1, 451676, Note_on_c, 0, 76, 81
1, 451694, Note_on_c, 0, 74, 0
1, 451698, Note_on_c, 0, 61, 0
1, 451807, Note_on_c, 0, 62, 72
1, 451813, Note_on_c, 0, 78, 86
1, 451823, Note_on_c, 0, 76, 0
1, 451838, Note_on_c, 0, 62, 0
1, 451958, Note_on_c, 0, 74, 80
1, 451969, Note_on_c, 0, 78, 0
1, 452113, Note_on_c, 0, 61, 66
1, 452117, Note_on_c, 0, 79, 88
1, 452135, Note_on_c, 0, 74, 0
1, 452147, Note_on_c, 0, 61, 0
1, 452253, Note_on_c, 0, 79, 0
1, 452260, Note_on_c, 0, 76, 80
1, 452404, Note_on_c, 0, 62, 66
1, 452412, Note_on_c, 0, 78, 84
1, 452444, Note_on_c, 0, 69, 0
1, 452444, Note_on_c, 0, 76, 0
1, 452457, Note_on_c, 0, 62, 0
1, 452553, Note_on_c, 0, 74, 77
1, 452571, Note_on_c, 0, 78, 0
1, 452611, Note_on_c, 0, 74, 0
1, 452708, Note_on_c, 0, 81, 87
1, 452709, Note_on_c, 0, 74, 83
1, 452721, Note_on_c, 0, 54, 70
1, 452762, Note_on_c, 0, 54, 0
1, 452864, Note_on_c, 0, 55, 69
1, 452899, Note_on_c, 0, 55, 0
1, 453011, Note_on_c, 0, 57, 59
1, 453018, Note_on_c, 0, 79, 80
1, 453039, Note_on_c, 0, 57, 0
1, 453057, Note_on_c, 0, 81, 0
1, 453157, Note_on_c, 0, 74, 0
1, 453157, Note_on_c, 0, 78, 80
1, 453181, Note_on_c, 0, 79, 0
1, 453302, Note_on_c, 0, 78, 0
1, 453303, Note_on_c, 0, 45, 62
1, 453312, Note_on_c, 0, 76, 77
1, 453323, Note_on_c, 0, 73, 64
1, 453349, Note_on_c, 0, 45, 0
1, 453450, Note_on_c, 0, 73, 0
1, 453479, Note_on_c, 0, 78, 69
1, 453499, Note_on_c, 0, 76, 0
1, 453648, Note_on_c, 0, 74, 58
1, 453658, Note_on_c, 0, 78, 0
1, 453676, Note_on_c, 0, 50, 41
1, 453785, Control_c, 0, 67, 8
1, 453823, Control_c, 0, 64, 13
1, 453840, Control_c, 0, 64, 38
1, 453858, Control_c, 0, 64, 58
1, 453877, Control_c, 0, 64, 73
1, 453895, Control_c, 0, 64, 83
1, 453896, Note_on_c, 0, 74, 0
1, 453911, Note_on_c, 0, 50, 0
1, 453915, Control_c, 0, 64, 92
1, 453932, Control_c, 0, 64, 99
1, 453933, Control_c, 0, 67, 12
1, 453950, Control_c, 0, 64, 104
1, 453968, Control_c, 0, 64, 109
1, 453987, Control_c, 0, 64, 113
1, 454006, Control_c, 0, 64, 117
1, 454043, Control_c, 0, 64, 124
1, 454062, Control_c, 0, 67, 18
1, 454116, Control_c, 0, 67, 22
1, 454152, Control_c, 0, 67, 26
1, 454189, Control_c, 0, 67, 30
1, 454208, Control_c, 0, 67, 34
1, 454227, Control_c, 0, 67, 40
1, 454245, Control_c, 0, 67, 46
1, 454264, Control_c, 0, 67, 51
1, 454283, Control_c, 0, 67, 56
1, 454317, Control_c, 0, 67, 61
1, 454333, Control_c, 0, 67, 67
1, 454352, Control_c, 0, 67, 73
1, 454371, Control_c, 0, 67, 81
1, 454387, Control_c, 0, 67, 90
1, 454406, Control_c, 0, 67, 99
1, 454425, Control_c, 0, 67, 106
1, 454444, Control_c, 0, 67, 114
1, 454462, Control_c, 0, 67, 122
1, 454481, Control_c, 0, 67, 127
1, 454508, Note_on_c, 0, 83, 58
1, 454514, Note_on_c, 0, 74, 56
1, 454537, Control_c, 0, 64, 104
1, 454538, Note_on_c, 0, 55, 37
1, 454554, Control_c, 0, 64, 63
1, 454562, Note_on_c, 0, 74, 0
1, 454566, Note_on_c, 0, 83, 0
1, 454572, Control_c, 0, 64, 0
1, 454576, Note_on_c, 0, 55, 0
1, 454910, Note_on_c, 0, 79, 55
1, 454921, Note_on_c, 0, 67, 41
1, 454937, Note_on_c, 0, 71, 39
1, 454966, Note_on_c, 0, 67, 0
1, 454967, Note_on_c, 0, 79, 0
1, 454976, Note_on_c, 0, 71, 0
1, 455313, Note_on_c, 0, 74, 49
1, 455322, Note_on_c, 0, 69, 38
1, 455323, Note_on_c, 0, 66, 37
1, 455429, Note_on_c, 0, 66, 0
1, 455601, Poly_aftertouch_c, 0, 69, 24
1, 455648, Note_on_c, 0, 54, 46
1, 455655, Note_on_c, 0, 74, 0
1, 455662, Note_on_c, 0, 76, 60
1, 455691, Note_on_c, 0, 54, 0
1, 455708, Note_on_c, 0, 69, 0
1, 455708, Poly_aftertouch_c, 0, 69, 0
1, 455779, Note_on_c, 0, 76, 0
1, 455808, Note_on_c, 0, 78, 53
1, 455909, Note_on_c, 0, 78, 0
1, 455935, Note_on_c, 0, 79, 64
1, 455947, Note_on_c, 0, 52, 38
1, 455955, Note_on_c, 0, 71, 57
1, 455968, Note_on_c, 0, 79, 0
1, 455980, Note_on_c, 0, 71, 0
1, 455990, Note_on_c, 0, 52, 0
1, 456264, Note_on_c, 0, 64, 52
1, 456267, Note_on_c, 0, 76, 66
1, 456276, Note_on_c, 0, 67, 62
1, 456302, Note_on_c, 0, 76, 0
1, 456309, Note_on_c, 0, 64, 0
1, 456310, Note_on_c, 0, 67, 0
1, 456593, Note_on_c, 0, 72, 70
1, 456594, Note_on_c, 0, 66, 58
1, 456601, Note_on_c, 0, 62, 55
1, 456631, Note_on_c, 0, 62, 0
1, 456732, Note_on_c, 0, 72, 0
1, 456757, Note_on_c, 0, 71, 59
1, 456833, Control_c, 0, 67, 119
1, 456850, Control_c, 0, 67, 115
1, 456869, Control_c, 0, 67, 111
1, 456886, Control_c, 0, 67, 106
1, 456906, Control_c, 0, 67, 101
1, 456916, Note_on_c, 0, 50, 36
1, 456922, Control_c, 0, 67, 94
1, 456942, Control_c, 0, 67, 85
1, 456957, Note_on_c, 0, 50, 0
1, 456958, Control_c, 0, 67, 75
1, 456978, Control_c, 0, 67, 63
1, 456996, Control_c, 0, 67, 49
1, 457015, Control_c, 0, 67, 35
1, 457029, Note_on_c, 0, 66, 0
1, 457035, Control_c, 0, 67, 21
1, 457071, Control_c, 0, 67, 0
1, 457236, Note_on_c, 0, 76, 66
1, 457243, Note_on_c, 0, 67, 58
1, 457246, Note_on_c, 0, 71, 0
1, 457256, Note_on_c, 0, 48, 39
1, 457277, Note_on_c, 0, 76, 0
1, 457281, Note_on_c, 0, 67, 0
1, 457298, Note_on_c, 0, 48, 0
1, 457568, Note_on_c, 0, 72, 59
1, 457575, Note_on_c, 0, 69, 54
1, 457579, Note_on_c, 0, 60, 39
1, 457614, Note_on_c, 0, 69, 0
1, 457617, Note_on_c, 0, 72, 0
1, 457621, Note_on_c, 0, 60, 0
1, 457898, Note_on_c, 0, 66, 46
1, 457899, Note_on_c, 0, 69, 57
1, 457908, Note_on_c, 0, 62, 49
1, 457959, Note_on_c, 0, 62, 0
1, 458233, Note_on_c, 0, 57, 52
1, 458247, Note_on_c, 0, 71, 59
1, 458248, Note_on_c, 0, 66, 0
1, 458253, Note_on_c, 0, 69, 0
1, 458274, Note_on_c, 0, 57, 0
1, 458375, Note_on_c, 0, 71, 0
1, 458397, Note_on_c, 0, 72, 61
1, 458542, Note_on_c, 0, 74, 60
1, 458544, Note_on_c, 0, 54, 57
1, 458551, Note_on_c, 0, 72, 0
1, 458558, Note_on_c, 0, 69, 52
1, 458578, Note_on_c, 0, 54, 0
1, 458685, Note_on_c, 0, 74, 0
1, 458705, Note_on_c, 0, 71, 50
1, 458793, Note_on_c, 0, 69, 0
1, 458831, Note_on_c, 0, 71, 0
1, 458851, Note_on_c, 0, 72, 62
1, 458860, Note_on_c, 0, 50, 40
1, 458899, Note_on_c, 0, 50, 0
1, 459000, Note_on_c, 0, 72, 0
1, 459007, Note_on_c, 0, 69, 55
1, 459122, Note_on_c, 0, 69, 0
1, 459172, Note_on_c, 0, 55, 52
1, 459173, Note_on_c, 0, 72, 65
1, 459179, Note_on_c, 0, 67, 59
1, 459209, Note_on_c, 0, 55, 0
1, 459226, Note_on_c, 0, 67, 0
1, 459324, Note_on_c, 0, 71, 64
1, 459327, Note_on_c, 0, 72, 0
1, 459472, Note_on_c, 0, 71, 0
1, 459479, Note_on_c, 0, 50, 44
1, 459488, Note_on_c, 0, 69, 60
1, 459519, Note_on_c, 0, 50, 0
1, 459559, Note_on_c, 0, 69, 0
1, 459616, Note_on_c, 0, 67, 59
1, 459659, Note_on_c, 0, 67, 0
1, 459769, Note_on_c, 0, 83, 87
1, 459782, Note_on_c, 0, 43, 66
1, 459789, Note_on_c, 0, 74, 62
1, 459794, Note_on_c, 0, 83, 0
1, 459814, Note_on_c, 0, 74, 0
1, 459829, Note_on_c, 0, 43, 0
1, 459940, Note_on_c, 0, 50, 65
1, 459969, Note_on_c, 0, 50, 0
1, 460087, Note_on_c, 0, 79, 85
1, 460095, Note_on_c, 0, 71, 78
1, 460103, Note_on_c, 0, 52, 63
1, 460120, Note_on_c, 0, 79, 0
1, 460124, Note_on_c, 0, 71, 0
1, 460132, Note_on_c, 0, 52, 0
1, 460234, Note_on_c, 0, 54, 72
1, 460268, Note_on_c, 0, 54, 0
1, 460399, Note_on_c, 0, 76, 86
1, 460401, Note_on_c, 0, 55, 74
1, 460402, Note_on_c, 0, 73, 81
1, 460432, Note_on_c, 0, 55, 0
1, 460541, Note_on_c, 0, 73, 0
1, 460551, Note_on_c, 0, 57, 63
1, 460553, Note_on_c, 0, 76, 0
1, 460587, Note_on_c, 0, 57, 0
1, 460692, Note_on_c, 0, 55, 75
1, 460702, Note_on_c, 0, 76, 86
1, 460709, Note_on_c, 0, 73, 74
1, 460722, Note_on_c, 0, 55, 0
1, 460741, Note_on_c, 0, 73, 0
1, 460762, Note_on_c, 0, 76, 0
1, 460837, Note_on_c, 0, 54, 75
1, 460839, Note_on_c, 0, 78, 85
1, 460848, Note_on_c, 0, 74, 78
1, 460885, Note_on_c, 0, 54, 0
1, 460896, Note_on_c, 0, 74, 0
1, 460913, Note_on_c, 0, 78, 0
1, 461001, Note_on_c, 0, 79, 85
1, 461001, Note_on_c, 0, 76, 86
1, 461003, Note_on_c, 0, 52, 74
1, 461033, Note_on_c, 0, 76, 0
1, 461039, Note_on_c, 0, 52, 0
1, 461040, Note_on_c, 0, 79, 0
1, 461145, Note_on_c, 0, 50, 73
1, 461180, Note_on_c, 0, 50, 0
1, 461301, Note_on_c, 0, 76, 84
1, 461304, Note_on_c, 0, 52, 74
1, 461307, Note_on_c, 0, 73, 80
1, 461336, Note_on_c, 0, 52, 0
1, 461337, Note_on_c, 0, 73, 0
1, 461347, Note_on_c, 0, 76, 0
1, 461442, Note_on_c, 0, 54, 78
1, 461475, Note_on_c, 0, 54, 0
1, 461598, Note_on_c, 0, 69, 88
1, 461602, Note_on_c, 0, 55, 73
1, 461608, Note_on_c, 0, 73, 80
1, 461634, Note_on_c, 0, 55, 0
1, 461715, Note_on_c, 0, 73, 0
1, 461741, Note_on_c, 0, 57, 74
1, 461772, Note_on_c, 0, 57, 0
1, 461922, Note_on_c, 0, 59, 78
1, 461930, Note_on_c, 0, 74, 82
1, 461952, Note_on_c, 0, 59, 0
1, 462070, Note_on_c, 0, 76, 80
1, 462072, Note_on_c, 0, 61, 69
1, 462081, Note_on_c, 0, 74, 0
1, 462104, Note_on_c, 0, 61, 0
1, 462215, Note_on_c, 0, 62, 75
1, 462219, Note_on_c, 0, 78, 85
1, 462226, Note_on_c, 0, 76, 0
1, 462249, Note_on_c, 0, 62, 0
1, 462373, Note_on_c, 0, 74, 78
1, 462376, Note_on_c, 0, 78, 0
1, 462516, Note_on_c, 0, 61, 71
1, 462533, Note_on_c, 0, 79, 83
1, 462543, Note_on_c, 0, 74, 0
1, 462547, Note_on_c, 0, 61, 0
1, 462656, Note_on_c, 0, 79, 0
1, 462665, Note_on_c, 0, 76, 77
1, 462717, Poly_aftertouch_c, 0, 69, 24
1, 462799, Note_on_c, 0, 69, 0
1, 462799, Poly_aftertouch_c, 0, 69, 0
1, 462800, Poly_aftertouch_c, 0, 69, 0
1, 462835, Note_on_c, 0, 78, 80
1, 462849, Note_on_c, 0, 62, 58
1, 462853, Note_on_c, 0, 76, 0
1, 462885, Note_on_c, 0, 62, 0
1, 462960, Note_on_c, 0, 74, 70
1, 462970, Note_on_c, 0, 78, 0
1, 463000, Note_on_c, 0, 74, 0
1, 463119, Note_on_c, 0, 81, 86
1, 463122, Note_on_c, 0, 74, 73
1, 463139, Note_on_c, 0, 54, 67
1, 463191, Note_on_c, 0, 54, 0
1, 463282, Note_on_c, 0, 55, 58
1, 463313, Note_on_c, 0, 55, 0
1, 463418, Note_on_c, 0, 57, 71
1, 463429, Note_on_c, 0, 79, 72
1, 463458, Note_on_c, 0, 57, 0
1, 463465, Note_on_c, 0, 81, 0
1, 463557, Note_on_c, 0, 74, 0
1, 463569, Note_on_c, 0, 78, 66
1, 463578, Note_on_c, 0, 79, 0
1, 463723, Note_on_c, 0, 78, 0
1, 463737, Note_on_c, 0, 45, 52
1, 463744, Note_on_c, 0, 76, 64
1, 463753, Note_on_c, 0, 73, 55
1, 463797, Note_on_c, 0, 45, 0
1, 463879, Note_on_c, 0, 73, 0
1, 463894, Note_on_c, 0, 78, 58
1, 463907, Note_on_c, 0, 76, 0
1, 464046, Note_on_c, 0, 78, 0
1, 464068, Note_on_c, 0, 74, 47
1, 464080, Note_on_c, 0, 50, 42
1, 464262, Control_c, 0, 64, 15
1, 464279, Control_c, 0, 64, 30
1, 464298, Control_c, 0, 64, 47
1, 464316, Control_c, 0, 64, 61
1, 464336, Control_c, 0, 64, 66
1, 464349, Note_on_c, 0, 74, 0
1, 464353, Control_c, 0, 64, 68
1, 464369, Note_on_c, 0, 50, 0
1, 464389, Control_c, 0, 67, 8
1, 464443, Control_c, 0, 64, 70
1, 464482, Control_c, 0, 64, 74
1, 464500, Control_c, 0, 64, 77
1, 464516, Control_c, 0, 64, 80
1, 464538, Control_c, 0, 64, 84
1, 464555, Control_c, 0, 64, 87
1, 464698, Control_c, 0, 64, 68
1, 464716, Control_c, 0, 64, 0
1, 464719, Note_on_c, 0, 69, 85
1, 464723, Note_on_c, 0, 66, 82
1, 464740, Note_on_c, 0, 62, 72
1, 464751, Note_on_c, 0, 66, 0
1, 464762, Note_on_c, 0, 62, 0
1, 464771, Note_on_c, 0, 69, 0
1, 465054, Note_on_c, 0, 74, 84
1, 465060, Note_on_c, 0, 57, 77
1, 465062, Note_on_c, 0, 69, 80
1, 465062, Note_on_c, 0, 66, 74
1, 465092, Note_on_c, 0, 66, 0
1, 465095, Note_on_c, 0, 69, 0
1, 465098, Note_on_c, 0, 57, 0
1, 465138, Note_on_c, 0, 74, 0
1, 465410, Note_on_c, 0, 78, 90
1, 465417, Note_on_c, 0, 74, 75
1, 465423, Note_on_c, 0, 55, 71
1, 465428, Note_on_c, 0, 69, 74
1, 465473, Control_c, 0, 64, 43
1, 465491, Control_c, 0, 64, 60
1, 465542, Control_c, 0, 64, 62
1, 465575, Note_on_c, 0, 54, 67
1, 465580, Control_c, 0, 64, 63
1, 465584, Note_on_c, 0, 55, 0
1, 465618, Control_c, 0, 64, 64
1, 465691, Control_c, 0, 64, 61
1, 465706, Control_c, 0, 64, 44
1, 465725, Control_c, 0, 64, 0
1, 465732, Note_on_c, 0, 54, 0
1, 465736, Note_on_c, 0, 52, 69
1, 465865, Note_on_c, 0, 52, 0
1, 465878, Note_on_c, 0, 50, 61
1, 465974, Note_on_c, 0, 78, 0
1, 466032, Note_on_c, 0, 57, 71
1, 466035, Note_on_c, 0, 50, 0
1, 466044, Note_on_c, 0, 79, 87
1, 466062, Note_on_c, 0, 57, 0
1, 466063, Note_on_c, 0, 74, 0
1, 466205, Note_on_c, 0, 78, 78
1, 466250, Note_on_c, 0, 79, 0
1, 466339, Note_on_c, 0, 60, 71
1, 466355, Note_on_c, 0, 76, 82
1, 466370, Note_on_c, 0, 69, 0
1, 466372, Note_on_c, 0, 60, 0
1, 466395, Note_on_c, 0, 78, 0
1, 466493, Note_on_c, 0, 76, 0
1, 466500, Note_on_c, 0, 74, 74
1, 466547, Note_on_c, 0, 74, 0
1, 466570, Note_on_c, 0, 67, 70
1, 466622, Note_on_c, 0, 74, 76
1, 466655, Note_on_c, 0, 79, 89
1, 466679, Note_on_c, 0, 59, 65
1, 466717, Control_c, 0, 64, 10
1, 466735, Control_c, 0, 64, 14
1, 466756, Note_on_c, 0, 74, 0
1, 466819, Note_on_c, 0, 60, 63
1, 466821, Note_on_c, 0, 59, 0
1, 466925, Note_on_c, 0, 67, 0
1, 466951, Note_on_c, 0, 74, 80
1, 466961, Note_on_c, 0, 60, 0
1, 466961, Note_on_c, 0, 59, 70
1, 466984, Note_on_c, 0, 79, 0
1, 467007, Note_on_c, 0, 74, 0
1, 467020, Note_on_c, 0, 59, 0
1, 467111, Note_on_c, 0, 57, 61
1, 467155, Note_on_c, 0, 57, 0
1, 467246, Note_on_c, 0, 83, 86
1, 467254, Note_on_c, 0, 74, 67
1, 467260, Note_on_c, 0, 55, 68
1, 467276, Note_on_c, 0, 74, 0
1, 467280, Note_on_c, 0, 83, 0
1, 467298, Note_on_c, 0, 55, 0
1, 467423, Note_on_c, 0, 57, 65
1, 467458, Note_on_c, 0, 57, 0
1, 467568, Note_on_c, 0, 79, 80
1, 467575, Note_on_c, 0, 71, 72
1, 467577, Note_on_c, 0, 59, 61
1, 467605, Note_on_c, 0, 79, 0
1, 467605, Note_on_c, 0, 59, 0
1, 467608, Note_on_c, 0, 71, 0
1, 467653, Control_c, 0, 64, 10
1, 467711, Note_on_c, 0, 55, 65
1, 467751, Note_on_c, 0, 55, 0
1, 467798, Poly_aftertouch_c, 0, 79, 0
1, 467872, Note_on_c, 0, 76, 87
1, 467889, Note_on_c, 0, 60, 72
1, 467892, Note_on_c, 0, 67, 74
1, 467928, Note_on_c, 0, 60, 0
1, 467968, Note_on_c, 0, 67, 0
1, 468033, Note_on_c, 0, 62, 59
1, 468073, Note_on_c, 0, 62, 0
1, 468128, Note_on_c, 0, 76, 0
1, 468168, Note_on_c, 0, 60, 72
1, 468173, Note_on_c, 0, 78, 84
1, 468183, Note_on_c, 0, 69, 75
1, 468201, Note_on_c, 0, 60, 0
1, 468204, Control_c, 0, 64, 0
1, 468217, Note_on_c, 0, 69, 0
1, 468243, Note_on_c, 0, 78, 0
1, 468317, Note_on_c, 0, 79, 84
1, 468324, Note_on_c, 0, 59, 69
1, 468324, Note_on_c, 0, 71, 81
1, 468372, Note_on_c, 0, 59, 0
1, 468372, Note_on_c, 0, 71, 0
1, 468395, Note_on_c, 0, 79, 0
1, 468477, Note_on_c, 0, 81, 87
1, 468484, Note_on_c, 0, 57, 70
1, 468489, Note_on_c, 0, 72, 72
1, 468508, Note_on_c, 0, 72, 0
1, 468518, Note_on_c, 0, 57, 0
1, 468520, Note_on_c, 0, 81, 0
1, 468570, Control_c, 0, 67, 0
1, 468616, Note_on_c, 0, 59, 72
1, 468652, Note_on_c, 0, 59, 0
1, 468767, Note_on_c, 0, 78, 81
1, 468774, Note_on_c, 0, 60, 68
1, 468778, Note_on_c, 0, 69, 71
1, 468812, Note_on_c, 0, 69, 0
1, 468816, Note_on_c, 0, 60, 0
1, 468817, Note_on_c, 0, 78, 0
1, 468910, Note_on_c, 0, 57, 63
1, 468950, Note_on_c, 0, 57, 0
1, 469072, Note_on_c, 0, 59, 65
1, 469074, Note_on_c, 0, 75, 75
1, 469085, Note_on_c, 0, 66, 59
1, 469144, Note_on_c, 0, 59, 0
1, 469303, Control_c, 0, 67, 8
1, 469392, Note_on_c, 0, 66, 0
1, 469425, Note_on_c, 0, 47, 43
1, 469644, Note_on_c, 0, 47, 0
1, 469672, Note_on_c, 0, 75, 0
1, 469701, Poly_aftertouch_c, 0, 54, 0
1, 469737, Note_on_c, 0, 71, 80
1, 469776, Note_on_c, 0, 71, 0
1, 469893, Note_on_c, 0, 73, 54
1, 469948, Note_on_c, 0, 73, 0
1, 470046, Note_on_c, 0, 66, 79
1, 470054, Note_on_c, 0, 75, 64
1, 470072, Note_on_c, 0, 66, 0
1, 470131, Note_on_c, 0, 75, 0
1, 470195, Note_on_c, 0, 76, 53
1, 470361, Note_on_c, 0, 78, 66
1, 470363, Note_on_c, 0, 63, 72
1, 470394, Note_on_c, 0, 76, 0
1, 470515, Note_on_c, 0, 78, 0
1, 470521, Note_on_c, 0, 79, 62
1, 470522, Note_on_c, 0, 63, 0
1, 470661, Note_on_c, 0, 78, 68
1, 470665, Note_on_c, 0, 63, 71
1, 470680, Note_on_c, 0, 79, 0
1, 470736, Note_on_c, 0, 63, 0
1, 470761, Note_on_c, 0, 78, 0
1, 470795, Note_on_c, 0, 64, 68
1, 470811, Note_on_c, 0, 76, 63
1, 470848, Note_on_c, 0, 64, 0
1, 470910, Note_on_c, 0, 76, 0
1, 470943, Note_on_c, 0, 66, 77
1, 470956, Note_on_c, 0, 75, 64
1, 470975, Note_on_c, 0, 66, 0
1, 471052, Note_on_c, 0, 75, 0
1, 471094, Note_on_c, 0, 76, 57
1, 471175, Note_on_c, 0, 76, 0
1, 471273, Note_on_c, 0, 63, 75
1, 471274, Note_on_c, 0, 78, 58
1, 471315, Note_on_c, 0, 63, 0
1, 471393, Note_on_c, 0, 78, 0
1, 471420, Note_on_c, 0, 79, 52
1, 471569, Note_on_c, 0, 59, 72
1, 471594, Note_on_c, 0, 81, 62
1, 471625, Note_on_c, 0, 79, 0
1, 471709, Note_on_c, 0, 81, 0
1, 471721, Note_on_c, 0, 59, 0
1, 471733, Note_on_c, 0, 83, 60
1, 471881, Note_on_c, 0, 59, 67
1, 471885, Note_on_c, 0, 81, 56
1, 471891, Note_on_c, 0, 83, 0
1, 471924, Note_on_c, 0, 59, 0
1, 471972, Note_on_c, 0, 81, 0
1, 472016, Note_on_c, 0, 79, 56
1, 472027, Note_on_c, 0, 61, 69
1, 472079, Note_on_c, 0, 61, 0
1, 472140, Note_on_c, 0, 79, 0
1, 472180, Note_on_c, 0, 63, 73
1, 472191, Note_on_c, 0, 78, 64
1, 472208, Note_on_c, 0, 63, 0
1, 472315, Note_on_c, 0, 78, 0
1, 472336, Note_on_c, 0, 79, 63
1, 472492, Note_on_c, 0, 59, 72
1, 472505, Note_on_c, 0, 81, 65
1, 472528, Note_on_c, 0, 79, 0
1, 472538, Note_on_c, 0, 59, 0
1, 472644, Note_on_c, 0, 81, 0
1, 472644, Note_on_c, 0, 83, 73
1, 472739, Note_on_c, 0, 83, 0
1, 472786, Note_on_c, 0, 55, 70
1, 472787, Note_on_c, 0, 84, 77
1, 472838, Note_on_c, 0, 55, 0
1, 472877, Note_on_c, 0, 84, 0
1, 472918, Note_on_c, 0, 54, 68
1, 472924, Note_on_c, 0, 81, 67
1, 472961, Note_on_c, 0, 54, 0
1, 473079, Note_on_c, 0, 81, 0
1, 473081, Note_on_c, 0, 55, 69
1, 473081, Note_on_c, 0, 83, 69
1, 473110, Note_on_c, 0, 83, 0
1, 473141, Note_on_c, 0, 55, 0
1, 473226, Note_on_c, 0, 57, 54
1, 473266, Note_on_c, 0, 57, 0
1, 473373, Note_on_c, 0, 76, 71
1, 473373, Note_on_c, 0, 59, 61
1, 473378, Note_on_c, 0, 67, 61
1, 473415, Note_on_c, 0, 59, 0
1, 473515, Note_on_c, 0, 67, 0
1, 473674, Note_on_c, 0, 76, 0
1, 473682, Note_on_c, 0, 78, 72
1, 473683, Note_on_c, 0, 47, 54
1, 473710, Note_on_c, 0, 69, 52
1, 473728, Note_on_c, 0, 47, 0
1, 473814, Note_on_c, 0, 69, 0
1, 473839, Note_on_c, 0, 78, 0
1, 473841, Note_on_c, 0, 75, 59
1, 474018, Note_on_c, 0, 75, 0
1, 474022, Note_on_c, 0, 52, 55
1, 474023, Note_on_c, 0, 67, 43
1, 474026, Note_on_c, 0, 76, 57
1, 474067, Note_on_c, 0, 52, 0
1, 474148, Note_on_c, 0, 47, 62
1, 474200, Note_on_c, 0, 47, 0
1, 474308, Note_on_c, 0, 43, 62
1, 474354, Poly_aftertouch_c, 0, 67, 24
1, 474360, Note_on_c, 0, 43, 0
1, 474419, Note_on_c, 0, 67, 0
1, 474419, Poly_aftertouch_c, 0, 67, 0
1, 474474, Note_on_c, 0, 47, 47
1, 474512, Note_on_c, 0, 47, 0
1, 474603, Note_on_c, 0, 71, 65
1, 474605, Note_on_c, 0, 67, 53
1, 474620, Note_on_c, 0, 40, 56
1, 474621, Note_on_c, 0, 76, 0
1, 474633, Note_on_c, 0, 67, 0
1, 474640, Note_on_c, 0, 71, 0
1, 474659, Note_on_c, 0, 40, 0
1, 474719, Control_c, 0, 67, 0
1, 474750, Note_on_c, 0, 42, 67
1, 474798, Note_on_c, 0, 42, 0
1, 474915, Note_on_c, 0, 43, 75
1, 474919, Note_on_c, 0, 76, 77
1, 474920, Note_on_c, 0, 71, 67
1, 474954, Note_on_c, 0, 71, 0
1, 474959, Note_on_c, 0, 43, 0
1, 474969, Note_on_c, 0, 76, 0
1, 475079, Note_on_c, 0, 45, 57
1, 475114, Note_on_c, 0, 45, 0
1, 475226, Note_on_c, 0, 79, 87
1, 475237, Note_on_c, 0, 74, 76
1, 475238, Note_on_c, 0, 47, 55
1, 475272, Note_on_c, 0, 47, 0
1, 475369, Note_on_c, 0, 48, 69
1, 475416, Note_on_c, 0, 48, 0
1, 475527, Note_on_c, 0, 50, 61
1, 475556, Note_on_c, 0, 50, 0
1, 475670, Note_on_c, 0, 52, 55
1, 475704, Note_on_c, 0, 52, 0
1, 475809, Note_on_c, 0, 79, 0
1, 475816, Note_on_c, 0, 53, 64
1, 475817, Note_on_c, 0, 74, 0
1, 475849, Note_on_c, 0, 72, 64
1, 475869, Note_on_c, 0, 53, 0
1, 475979, Note_on_c, 0, 55, 66
1, 475985, Note_on_c, 0, 71, 71
1, 475993, Note_on_c, 0, 72, 0
1, 476016, Note_on_c, 0, 55, 0
1, 476123, Note_on_c, 0, 57, 69
1, 476131, Note_on_c, 0, 71, 0
1, 476136, Note_on_c, 0, 69, 76
1, 476161, Note_on_c, 0, 57, 0
1, 476226, Note_on_c, 0, 69, 0
1, 476253, Note_on_c, 0, 59, 78
1, 476269, Note_on_c, 0, 67, 76
1, 476292, Note_on_c, 0, 59, 0
1, 476407, Note_on_c, 0, 77, 87
1, 476409, Note_on_c, 0, 60, 80
1, 476434, Note_on_c, 0, 67, 0
1, 476442, Note_on_c, 0, 60, 0
1, 476547, Note_on_c, 0, 74, 74
1, 476555, Note_on_c, 0, 62, 67
1, 476557, Note_on_c, 0, 77, 0
1, 476593, Note_on_c, 0, 62, 0
1, 476698, Note_on_c, 0, 76, 74
1, 476699, Note_on_c, 0, 60, 65
1, 476714, Note_on_c, 0, 74, 0
1, 476739, Note_on_c, 0, 60, 0
1, 476746, Note_on_c, 0, 76, 0
1, 476851, Note_on_c, 0, 59, 67
1, 476888, Note_on_c, 0, 59, 0
1, 477001, Note_on_c, 0, 57, 66
1, 477013, Note_on_c, 0, 66, 70
1, 477045, Note_on_c, 0, 57, 0
1, 477142, Note_on_c, 0, 66, 0
1, 477152, Note_on_c, 0, 55, 63
1, 477153, Note_on_c, 0, 67, 65
1, 477190, Note_on_c, 0, 55, 0
1, 477296, Note_on_c, 0, 54, 67
1, 477304, Note_on_c, 0, 69, 64
1, 477310, Note_on_c, 0, 67, 0
1, 477345, Note_on_c, 0, 54, 0
1, 477427, Note_on_c, 0, 69, 0
1, 477438, Note_on_c, 0, 71, 70
1, 477455, Note_on_c, 0, 52, 58
1, 477496, Note_on_c, 0, 52, 0
1, 477598, Note_on_c, 0, 72, 71
1, 477600, Note_on_c, 0, 50, 63
1, 477608, Note_on_c, 0, 71, 0
1, 477640, Note_on_c, 0, 50, 0
1, 477723, Note_on_c, 0, 72, 0
1, 477755, Note_on_c, 0, 48, 64
1, 477764, Note_on_c, 0, 69, 64
1, 477800, Note_on_c, 0, 48, 0
1, 477908, Note_on_c, 0, 71, 66
1, 477909, Note_on_c, 0, 47, 54
1, 477914, Note_on_c, 0, 69, 0
1, 477950, Note_on_c, 0, 47, 0
1, 478043, Note_on_c, 0, 71, 0
1, 478044, Note_on_c, 0, 45, 63
1, 478056, Note_on_c, 0, 72, 69
1, 478083, Note_on_c, 0, 45, 0
1, 478179, Note_on_c, 0, 72, 0
1, 478190, Note_on_c, 0, 43, 70
1, 478204, Note_on_c, 0, 74, 71
1, 478243, Note_on_c, 0, 43, 0
1, 478322, Note_on_c, 0, 74, 0
1, 478336, Note_on_c, 0, 45, 69
1, 478348, Note_on_c, 0, 72, 71
1, 478372, Note_on_c, 0, 45, 0
1, 478449, Note_on_c, 0, 72, 0
1, 478486, Note_on_c, 0, 74, 70
1, 478493, Note_on_c, 0, 47, 62
1, 478530, Note_on_c, 0, 47, 0
1, 478614, Note_on_c, 0, 74, 0
1, 478624, Note_on_c, 0, 76, 70
1, 478657, Note_on_c, 0, 48, 59
1, 478694, Note_on_c, 0, 48, 0
1, 478788, Note_on_c, 0, 76, 0
1, 478796, Note_on_c, 0, 69, 65
1, 478800, Note_on_c, 0, 66, 59
1, 478804, Note_on_c, 0, 50, 59
1, 478850, Note_on_c, 0, 50, 0
1, 478952, Note_on_c, 0, 45, 58
1, 478990, Note_on_c, 0, 45, 0
1, 479005, Note_on_c, 0, 66, 0
1, 479044, Note_on_c, 0, 69, 0
1, 479099, Note_on_c, 0, 42, 62
1, 479141, Note_on_c, 0, 42, 0
1, 479267, Note_on_c, 0, 45, 43
1, 479309, Note_on_c, 0, 45, 0
1, 479400, Note_on_c, 0, 84, 86
1, 479406, Note_on_c, 0, 81, 79
1, 479410, Note_on_c, 0, 38, 67
1, 479430, Note_on_c, 0, 81, 0
1, 479431, Note_on_c, 0, 84, 0
1, 479447, Note_on_c, 0, 38, 0
1, 479550, Note_on_c, 0, 40, 65
1, 479601, Note_on_c, 0, 40, 0
1, 479717, Note_on_c, 0, 81, 89
1, 479718, Note_on_c, 0, 42, 74
1, 479722, Note_on_c, 0, 74, 79
1, 479748, Note_on_c, 0, 81, 0
1, 479748, Note_on_c, 0, 74, 0
1, 479758, Note_on_c, 0, 42, 0
1, 479864, Note_on_c, 0, 43, 64
1, 479871, Note_on_c, 0, 74, 22
1, 479882, Note_on_c, 0, 74, 0
1, 479898, Note_on_c, 0, 43, 0
1, 480017, Note_on_c, 0, 72, 82
1, 480017, Note_on_c, 0, 78, 86
1, 480023, Note_on_c, 0, 45, 80
1, 480073, Control_c, 0, 64, 31
1, 480081, Note_on_c, 0, 45, 0
1, 480093, Control_c, 0, 64, 44
1, 480112, Control_c, 0, 64, 35
1, 480135, Note_on_c, 0, 78, 0
1, 480161, Note_on_c, 0, 47, 71
1, 480207, Note_on_c, 0, 47, 0
1, 480276, Control_c, 0, 64, 29
1, 480313, Control_c, 0, 64, 23
1, 480332, Control_c, 0, 64, 19
1, 480332, Note_on_c, 0, 45, 63
1, 480347, Note_on_c, 0, 78, 84
1, 480367, Control_c, 0, 64, 14
1, 480372, Note_on_c, 0, 45, 0
1, 480384, Note_on_c, 0, 72, 0
1, 480481, Note_on_c, 0, 43, 67
1, 480487, Note_on_c, 0, 79, 78
1, 480497, Note_on_c, 0, 78, 0
1, 480534, Note_on_c, 0, 43, 0
1, 480638, Note_on_c, 0, 81, 85
1, 480642, Note_on_c, 0, 79, 0
1, 480642, Note_on_c, 0, 72, 83
1, 480647, Note_on_c, 0, 42, 72
1, 480672, Note_on_c, 0, 81, 0
1, 480673, Note_on_c, 0, 72, 0
1, 480690, Note_on_c, 0, 42, 0
1, 480787, Note_on_c, 0, 43, 73
1, 480829, Note_on_c, 0, 43, 0
1, 480936, Note_on_c, 0, 78, 88
1, 480946, Note_on_c, 0, 69, 72
1, 480949, Note_on_c, 0, 45, 72
1, 480974, Control_c, 0, 64, 10
1, 480977, Note_on_c, 0, 69, 0
1, 480985, Note_on_c, 0, 45, 0
1, 480988, Note_on_c, 0, 78, 0
1, 481089, Note_on_c, 0, 47, 63
1, 481120, Control_c, 0, 64, 0
1, 481128, Note_on_c, 0, 47, 0
1, 481237, Note_on_c, 0, 74, 84
1, 481239, Note_on_c, 0, 66, 82
1, 481253, Note_on_c, 0, 48, 71
1, 481296, Note_on_c, 0, 48, 0
1, 481325, Note_on_c, 0, 74, 0
1, 481376, Control_c, 0, 64, 10
1, 481388, Note_on_c, 0, 50, 68
1, 481425, Note_on_c, 0, 50, 0
1, 481554, Note_on_c, 0, 48, 69
1, 481571, Note_on_c, 0, 74, 77
1, 481596, Note_on_c, 0, 66, 0
1, 481602, Note_on_c, 0, 48, 0
1, 481708, Note_on_c, 0, 47, 59
1, 481716, Note_on_c, 0, 76, 75
1, 481727, Note_on_c, 0, 74, 0
1, 481747, Note_on_c, 0, 47, 0
1, 481771, Note_on_c, 0, 76, 0
1, 481860, Note_on_c, 0, 45, 64
1, 481861, Note_on_c, 0, 78, 87
1, 481864, Note_on_c, 0, 72, 78
1, 481908, Note_on_c, 0, 45, 0
1, 481991, Note_on_c, 0, 79, 78
1, 482012, Note_on_c, 0, 47, 62
1, 482018, Note_on_c, 0, 78, 0
1, 482049, Note_on_c, 0, 47, 0
1, 482148, Note_on_c, 0, 81, 81
1, 482158, Note_on_c, 0, 48, 67
1, 482178, Note_on_c, 0, 79, 0
1, 482195, Note_on_c, 0, 48, 0
1, 482290, Note_on_c, 0, 78, 76
1, 482298, Note_on_c, 0, 81, 0
1, 482299, Note_on_c, 0, 50, 65
1, 482306, Note_on_c, 0, 72, 0
1, 482337, Note_on_c, 0, 50, 0
1, 482409, Note_on_c, 0, 78, 0
1, 482458, Note_on_c, 0, 52, 67
1, 482459, Note_on_c, 0, 79, 87
1, 482469, Note_on_c, 0, 71, 75
1, 482506, Note_on_c, 0, 52, 0
1, 482531, Control_c, 0, 64, 0
1, 482536, Note_on_c, 0, 71, 0
1, 482602, Note_on_c, 0, 76, 74
1, 482627, Note_on_c, 0, 79, 0
1, 482763, Note_on_c, 0, 81, 81
1, 482765, Note_on_c, 0, 48, 57
1, 482769, Note_on_c, 0, 76, 0
1, 482769, Control_c, 0, 64, 15
1, 482769, Note_on_c, 0, 72, 65
1, 482787, Control_c, 0, 64, 32
1, 482807, Control_c, 0, 64, 47
1, 482823, Note_on_c, 0, 48, 0
1, 482823, Control_c, 0, 64, 58
1, 482843, Control_c, 0, 64, 61
1, 482861, Control_c, 0, 64, 62
1, 482897, Control_c, 0, 64, 64
1, 482915, Note_on_c, 0, 72, 0
1, 482915, Control_c, 0, 64, 65
1, 482931, Note_on_c, 0, 81, 0
1, 482936, Control_c, 0, 64, 66
1, 482954, Control_c, 0, 64, 67
1, 483008, Control_c, 0, 64, 69
1, 483044, Control_c, 0, 64, 58
1, 483052, Note_on_c, 0, 79, 80
1, 483056, Note_on_c, 0, 50, 56
1, 483064, Note_on_c, 0, 69, 74
1, 483064, Control_c, 0, 64, 16
1, 483083, Control_c, 0, 64, 0
1, 483094, Note_on_c, 0, 50, 0
1, 483097, Note_on_c, 0, 79, 0
1, 483122, Note_on_c, 0, 78, 80
1, 483190, Note_on_c, 0, 78, 0
1, 483202, Note_on_c, 0, 79, 76
1, 483251, Note_on_c, 0, 78, 71
1, 483257, Note_on_c, 0, 79, 0
1, 483311, Note_on_c, 0, 78, 0
1, 483336, Note_on_c, 0, 79, 71
1, 483375, Note_on_c, 0, 38, 58
1, 483378, Note_on_c, 0, 78, 77
1, 483414, Note_on_c, 0, 79, 0
1, 483416, Note_on_c, 0, 38, 0
1, 483542, Note_on_c, 0, 79, 76
1, 483575, Note_on_c, 0, 78, 0
1, 483595, Note_on_c, 0, 69, 0
1, 483642, Note_on_c, 0, 79, 0
1, 483729, Note_on_c, 0, 79, 80
1, 483754, Note_on_c, 0, 43, 58
1, 483773, Note_on_c, 0, 71, 47
1, 483796, Control_c, 0, 64, 43
1, 483814, Control_c, 0, 64, 76
1, 483834, Control_c, 0, 64, 88
1, 483838, Note_on_c, 0, 43, 0
1, 483852, Control_c, 0, 64, 99
1, 483870, Control_c, 0, 64, 104
1, 483890, Control_c, 0, 64, 109
1, 483900, Note_on_c, 0, 71, 0
1, 483906, Control_c, 0, 64, 116
1, 483921, Note_on_c, 0, 79, 0
1, 483924, Control_c, 0, 64, 123
1, 483944, Control_c, 0, 64, 127
1, 484471, Note_on_c, 0, 69, 86
1, 484474, Note_on_c, 0, 62, 74
1, 484475, Control_c, 0, 64, 112
1, 484479, Note_on_c, 0, 66, 76
1, 484494, Control_c, 0, 64, 51
1, 484507, Note_on_c, 0, 62, 0
1, 484509, Note_on_c, 0, 66, 0
1, 484512, Control_c, 0, 64, 0
1, 484519, Note_on_c, 0, 69, 0
1, 484803, Note_on_c, 0, 57, 72
1, 484804, Note_on_c, 0, 66, 65
1, 484806, Note_on_c, 0, 69, 72
1, 484806, Note_on_c, 0, 74, 86
1, 484837, Note_on_c, 0, 66, 0
1, 484840, Note_on_c, 0, 57, 0
1, 484847, Note_on_c, 0, 69, 0
1, 484894, Note_on_c, 0, 74, 0
1, 485138, Note_on_c, 0, 78, 93
1, 485144, Note_on_c, 0, 74, 75
1, 485148, Note_on_c, 0, 55, 69
1, 485162, Note_on_c, 0, 69, 68
1, 485208, Control_c, 0, 64, 32
1, 485227, Control_c, 0, 64, 46
1, 485265, Control_c, 0, 67, 8
1, 485294, Note_on_c, 0, 54, 66
1, 485305, Note_on_c, 0, 55, 0
1, 485338, Control_c, 0, 64, 44
1, 485354, Control_c, 0, 64, 41
1, 485411, Control_c, 0, 64, 36
1, 485445, Note_on_c, 0, 54, 0
1, 485448, Control_c, 0, 64, 32
1, 485460, Note_on_c, 0, 52, 70
1, 485521, Control_c, 0, 64, 28
1, 485588, Note_on_c, 0, 52, 0
1, 485600, Note_on_c, 0, 50, 61
1, 485733, Note_on_c, 0, 78, 0
1, 485756, Note_on_c, 0, 50, 0
1, 485768, Note_on_c, 0, 57, 78
1, 485781, Note_on_c, 0, 79, 86
1, 485797, Note_on_c, 0, 57, 0
1, 485805, Note_on_c, 0, 74, 0
1, 485833, Control_c, 0, 64, 23
1, 485932, Note_on_c, 0, 78, 80
1, 485966, Note_on_c, 0, 79, 0
1, 486072, Control_c, 0, 67, 12
1, 486081, Note_on_c, 0, 76, 81
1, 486082, Poly_aftertouch_c, 0, 69, 24
1, 486083, Note_on_c, 0, 60, 67
1, 486105, Note_on_c, 0, 78, 0
1, 486110, Note_on_c, 0, 69, 0
1, 486110, Poly_aftertouch_c, 0, 69, 0
1, 486118, Note_on_c, 0, 60, 0
1, 486144, Control_c, 0, 64, 19
1, 486162, Control_c, 0, 64, 14
1, 486200, Control_c, 0, 64, 0
1, 486208, Note_on_c, 0, 74, 75
1, 486212, Note_on_c, 0, 76, 0
1, 486251, Note_on_c, 0, 74, 0
1, 486297, Note_on_c, 0, 67, 68
1, 486341, Note_on_c, 0, 74, 78
1, 486383, Note_on_c, 0, 79, 86
1, 486421, Note_on_c, 0, 59, 60
1, 486439, Control_c, 0, 64, 31
1, 486457, Control_c, 0, 64, 35
1, 486491, Note_on_c, 0, 74, 0
1, 486533, Note_on_c, 0, 59, 0
1, 486539, Note_on_c, 0, 60, 66
1, 486650, Note_on_c, 0, 60, 0
1, 486662, Note_on_c, 0, 67, 0
1, 486676, Control_c, 0, 64, 31
1, 486683, Note_on_c, 0, 59, 66
1, 486695, Note_on_c, 0, 74, 74
1, 486716, Note_on_c, 0, 79, 0
1, 486734, Control_c, 0, 64, 27
1, 486736, Note_on_c, 0, 74, 0
1, 486740, Note_on_c, 0, 59, 0
1, 486838, Note_on_c, 0, 57, 66
1, 486880, Control_c, 0, 64, 23
1, 486884, Note_on_c, 0, 57, 0
1, 486994, Note_on_c, 0, 55, 71
1, 486995, Note_on_c, 0, 83, 86
1, 487006, Note_on_c, 0, 74, 63
1, 487030, Note_on_c, 0, 74, 0
1, 487034, Note_on_c, 0, 83, 0
1, 487039, Note_on_c, 0, 55, 0
1, 487161, Note_on_c, 0, 57, 75
1, 487198, Note_on_c, 0, 57, 0
1, 487314, Note_on_c, 0, 79, 82
1, 487321, Note_on_c, 0, 71, 77
1, 487333, Note_on_c, 0, 59, 67
1, 487350, Note_on_c, 0, 71, 0
1, 487353, Note_on_c, 0, 79, 0
1, 487358, Note_on_c, 0, 59, 0
1, 487429, Control_c, 0, 64, 17
1, 487447, Control_c, 0, 64, 0
1, 487458, Note_on_c, 0, 55, 68
1, 487494, Note_on_c, 0, 55, 0
1, 487594, Control_c, 0, 64, 26
1, 487609, Note_on_c, 0, 76, 89
1, 487613, Control_c, 0, 64, 36
1, 487628, Note_on_c, 0, 67, 74
1, 487630, Note_on_c, 0, 60, 77
1, 487631, Control_c, 0, 64, 46
1, 487650, Control_c, 0, 64, 51
1, 487697, Note_on_c, 0, 60, 0
1, 487702, Note_on_c, 0, 67, 0
1, 487768, Note_on_c, 0, 62, 61
1, 487778, Control_c, 0, 64, 49
1, 487815, Control_c, 0, 64, 45
1, 487822, Note_on_c, 0, 62, 0
1, 487834, Control_c, 0, 64, 42
1, 487853, Control_c, 0, 64, 40
1, 487866, Note_on_c, 0, 76, 0
1, 487902, Note_on_c, 0, 60, 69
1, 487907, Control_c, 0, 64, 36
1, 487912, Note_on_c, 0, 78, 83
1, 487921, Note_on_c, 0, 69, 73
1, 487938, Note_on_c, 0, 60, 0
1, 487956, Note_on_c, 0, 69, 0
1, 487978, Note_on_c, 0, 78, 0
1, 488014, Control_c, 0, 64, 32
1, 488052, Control_c, 0, 67, 16
1, 488065, Note_on_c, 0, 59, 72
1, 488065, Note_on_c, 0, 79, 85
1, 488073, Note_on_c, 0, 71, 79
1, 488101, Note_on_c, 0, 71, 0
1, 488104, Note_on_c, 0, 59, 0
1, 488127, Note_on_c, 0, 79, 0
1, 488210, Note_on_c, 0, 57, 73
1, 488213, Note_on_c, 0, 81, 86
1, 488225, Note_on_c, 0, 72, 72
1, 488247, Note_on_c, 0, 72, 0
1, 488258, Note_on_c, 0, 57, 0
1, 488266, Note_on_c, 0, 81, 0
1, 488351, Note_on_c, 0, 59, 75
1, 488389, Note_on_c, 0, 59, 0
1, 488496, Note_on_c, 0, 78, 82
1, 488509, Note_on_c, 0, 60, 71
1, 488509, Note_on_c, 0, 69, 67
1, 488532, Note_on_c, 0, 69, 0
1, 488545, Note_on_c, 0, 78, 0
1, 488547, Note_on_c, 0, 60, 0
1, 488606, Control_c, 0, 64, 28
1, 488645, Note_on_c, 0, 57, 62
1, 488677, Control_c, 0, 64, 19
1, 488683, Note_on_c, 0, 57, 0
1, 488696, Control_c, 0, 64, 0
1, 488714, Control_c, 0, 67, 20
1, 488802, Note_on_c, 0, 75, 80
1, 488817, Note_on_c, 0, 59, 58
1, 488818, Note_on_c, 0, 66, 60
1, 488880, Control_c, 0, 64, 30
1, 488884, Note_on_c, 0, 59, 0
1, 488898, Control_c, 0, 64, 56
1, 488918, Control_c, 0, 64, 65
1, 488949, Control_c, 0, 64, 68
1, 488967, Control_c, 0, 64, 70
1, 488986, Control_c, 0, 64, 72
1, 489005, Control_c, 0, 64, 75
1, 489024, Control_c, 0, 64, 80
1, 489042, Control_c, 0, 64, 85
1, 489050, Note_on_c, 0, 66, 0
1, 489061, Control_c, 0, 64, 89
1, 489153, Control_c, 0, 64, 94
1, 489157, Note_on_c, 0, 47, 48
1, 489188, Note_on_c, 0, 75, 0
1, 489263, Control_c, 0, 64, 98
1, 489301, Control_c, 0, 67, 27
1, 489320, Control_c, 0, 64, 102
1, 489321, Control_c, 0, 67, 32
1, 489336, Control_c, 0, 67, 36
1, 489346, Note_on_c, 0, 47, 0
1, 489355, Control_c, 0, 64, 108
1, 489356, Control_c, 0, 67, 40
1, 489374, Control_c, 0, 67, 46
1, 489392, Control_c, 0, 64, 113
1, 489393, Control_c, 0, 67, 55
1, 489409, Control_c, 0, 67, 68
1, 489429, Control_c, 0, 64, 108
1, 489430, Control_c, 0, 67, 89
1, 489447, Control_c, 0, 64, 81
1, 489449, Control_c, 0, 67, 116
1, 489465, Control_c, 0, 64, 0
1, 489468, Control_c, 0, 67, 127
1, 489484, Note_on_c, 0, 71, 72
1, 489518, Note_on_c, 0, 71, 0
1, 489631, Note_on_c, 0, 73, 52
1, 489685, Note_on_c, 0, 73, 0
1, 489779, Note_on_c, 0, 66, 68
1, 489790, Note_on_c, 0, 75, 53
1, 489811, Note_on_c, 0, 66, 0
1, 489846, Note_on_c, 0, 75, 0
1, 489931, Note_on_c, 0, 76, 59
1, 490079, Note_on_c, 0, 76, 0
1, 490101, Note_on_c, 0, 78, 57
1, 490111, Note_on_c, 0, 63, 70
1, 490226, Note_on_c, 0, 78, 0
1, 490244, Note_on_c, 0, 79, 53
1, 490275, Note_on_c, 0, 63, 0
1, 490407, Note_on_c, 0, 79, 0
1, 490410, Note_on_c, 0, 78, 62
1, 490420, Note_on_c, 0, 63, 65
1, 490451, Note_on_c, 0, 78, 0
1, 490456, Note_on_c, 0, 63, 0
1, 490550, Note_on_c, 0, 76, 56
1, 490555, Note_on_c, 0, 64, 58
1, 490584, Note_on_c, 0, 64, 0
1, 490599, Note_on_c, 0, 76, 0
1, 490691, Note_on_c, 0, 75, 59
1, 490704, Note_on_c, 0, 66, 65
1, 490733, Note_on_c, 0, 66, 0
1, 490756, Note_on_c, 0, 75, 0
1, 490858, Note_on_c, 0, 76, 47
1, 490898, Note_on_c, 0, 76, 0
1, 491010, Note_on_c, 0, 63, 63
1, 491012, Note_on_c, 0, 78, 50
1, 491054, Note_on_c, 0, 63, 0
1, 491103, Note_on_c, 0, 78, 0
1, 491158, Note_on_c, 0, 79, 50
1, 491252, Note_on_c, 0, 79, 0
1, 491317, Note_on_c, 0, 59, 65
1, 491320, Note_on_c, 0, 81, 61
1, 491445, Note_on_c, 0, 81, 0
1, 491479, Note_on_c, 0, 83, 59
1, 491485, Note_on_c, 0, 59, 0
1, 491600, Note_on_c, 0, 83, 0
1, 491624, Note_on_c, 0, 59, 70
1, 491630, Note_on_c, 0, 81, 57
1, 491661, Note_on_c, 0, 59, 0
1, 491682, Note_on_c, 0, 81, 0
1, 491765, Note_on_c, 0, 79, 53
1, 491775, Note_on_c, 0, 61, 72
1, 491822, Note_on_c, 0, 79, 0
1, 491835, Note_on_c, 0, 61, 0
1, 491923, Note_on_c, 0, 63, 65
1, 491927, Note_on_c, 0, 78, 52
1, 491957, Note_on_c, 0, 63, 0
1, 491991, Note_on_c, 0, 78, 0
1, 492058, Note_on_c, 0, 79, 59
1, 492109, Note_on_c, 0, 79, 0
1, 492215, Note_on_c, 0, 59, 63
1, 492216, Note_on_c, 0, 81, 56
1, 492258, Note_on_c, 0, 59, 0
1, 492324, Note_on_c, 0, 81, 0
1, 492357, Note_on_c, 0, 83, 61
1, 492450, Note_on_c, 0, 83, 0
1, 492502, Note_on_c, 0, 84, 69
1, 492512, Note_on_c, 0, 55, 72
1, 492555, Note_on_c, 0, 55, 0
1, 492577, Note_on_c, 0, 84, 0
1, 492641, Note_on_c, 0, 54, 68
1, 492650, Note_on_c, 0, 81, 52
1, 492692, Note_on_c, 0, 54, 0
1, 492789, Note_on_c, 0, 81, 0
1, 492792, Note_on_c, 0, 83, 62
1, 492807, Note_on_c, 0, 55, 68
1, 492813, Note_on_c, 0, 83, 0
1, 492846, Note_on_c, 0, 55, 0
1, 492935, Note_on_c, 0, 57, 64
1, 492971, Note_on_c, 0, 57, 0
1, 493090, Note_on_c, 0, 59, 62
1, 493097, Note_on_c, 0, 76, 65
1, 493109, Note_on_c, 0, 67, 56
1, 493129, Note_on_c, 0, 59, 0
1, 493196, Note_on_c, 0, 67, 0
1, 493399, Note_on_c, 0, 47, 61
1, 493401, Note_on_c, 0, 76, 0
1, 493420, Note_on_c, 0, 78, 63
1, 493441, Note_on_c, 0, 47, 0
1, 493444, Note_on_c, 0, 69, 45
1, 493508, Note_on_c, 0, 69, 0
1, 493556, Note_on_c, 0, 78, 0
1, 493572, Note_on_c, 0, 75, 57
1, 493732, Note_on_c, 0, 52, 64
1, 493738, Note_on_c, 0, 67, 46
1, 493744, Note_on_c, 0, 75, 0
1, 493748, Note_on_c, 0, 76, 56
1, 493775, Note_on_c, 0, 52, 0
1, 493873, Note_on_c, 0, 47, 61
1, 493909, Note_on_c, 0, 47, 0
1, 494025, Note_on_c, 0, 43, 61
1, 494074, Note_on_c, 0, 43, 0
1, 494158, Note_on_c, 0, 67, 0
1, 494179, Note_on_c, 0, 47, 55
1, 494213, Note_on_c, 0, 47, 0
1, 494332, Note_on_c, 0, 40, 59
1, 494334, Note_on_c, 0, 71, 65
1, 494340, Note_on_c, 0, 67, 51
1, 494342, Note_on_c, 0, 76, 0
1, 494369, Note_on_c, 0, 40, 0
1, 494370, Note_on_c, 0, 67, 0
1, 494375, Note_on_c, 0, 71, 0
1, 494420, Control_c, 0, 67, 111
1, 494440, Control_c, 0, 67, 92
1, 494457, Control_c, 0, 67, 70
1, 494475, Control_c, 0, 67, 46
1, 494478, Note_on_c, 0, 42, 56
1, 494493, Control_c, 0, 67, 24
1, 494519, Note_on_c, 0, 42, 0
1, 494562, Control_c, 0, 67, 0
1, 494633, Note_on_c, 0, 43, 68
1, 494636, Note_on_c, 0, 76, 73
1, 494637, Note_on_c, 0, 71, 61
1, 494667, Note_on_c, 0, 71, 0
1, 494677, Note_on_c, 0, 43, 0
1, 494696, Note_on_c, 0, 76, 0
1, 494784, Note_on_c, 0, 45, 60
1, 494815, Note_on_c, 0, 45, 0
1, 494936, Note_on_c, 0, 47, 67
1, 494940, Note_on_c, 0, 79, 84
1, 494954, Note_on_c, 0, 74, 75
1, 494991, Note_on_c, 0, 47, 0
1, 495089, Note_on_c, 0, 48, 65
1, 495127, Note_on_c, 0, 48, 0
1, 495241, Note_on_c, 0, 50, 62
1, 495276, Note_on_c, 0, 50, 0
1, 495387, Note_on_c, 0, 52, 57
1, 495421, Note_on_c, 0, 52, 0
1, 495549, Note_on_c, 0, 53, 63
1, 495559, Note_on_c, 0, 74, 0
1, 495565, Note_on_c, 0, 72, 65
1, 495573, Note_on_c, 0, 79, 0
1, 495587, Note_on_c, 0, 53, 0
1, 495699, Note_on_c, 0, 55, 61
1, 495712, Note_on_c, 0, 71, 67
1, 495717, Note_on_c, 0, 72, 0
1, 495736, Note_on_c, 0, 55, 0
1, 495856, Note_on_c, 0, 71, 0
1, 495863, Note_on_c, 0, 57, 63
1, 495868, Note_on_c, 0, 69, 72
1, 495896, Note_on_c, 0, 57, 0
1, 495957, Note_on_c, 0, 69, 0
1, 495985, Note_on_c, 0, 59, 73
1, 495998, Note_on_c, 0, 67, 72
1, 496021, Note_on_c, 0, 59, 0
1, 496142, Note_on_c, 0, 77, 86
1, 496153, Note_on_c, 0, 60, 72
1, 496161, Note_on_c, 0, 67, 0
1, 496187, Note_on_c, 0, 60, 0
1, 496287, Note_on_c, 0, 77, 0
1, 496294, Note_on_c, 0, 74, 69
1, 496304, Note_on_c, 0, 62, 55
1, 496336, Note_on_c, 0, 62, 0
1, 496449, Note_on_c, 0, 60, 68
1, 496456, Note_on_c, 0, 76, 70
1, 496463, Note_on_c, 0, 74, 0
1, 496491, Note_on_c, 0, 60, 0
1, 496494, Note_on_c, 0, 76, 0
1, 496596, Note_on_c, 0, 59, 64
1, 496632, Note_on_c, 0, 59, 0
1, 496745, Note_on_c, 0, 57, 66
1, 496752, Note_on_c, 0, 66, 69
1, 496789, Note_on_c, 0, 57, 0
1, 496884, Note_on_c, 0, 66, 0
1, 496893, Note_on_c, 0, 55, 61
1, 496896, Note_on_c, 0, 67, 64
1, 496930, Note_on_c, 0, 55, 0
1, 497036, Note_on_c, 0, 69, 67
1, 497040, Note_on_c, 0, 54, 64
1, 497055, Note_on_c, 0, 67, 0
1, 497082, Note_on_c, 0, 54, 0
1, 497153, Note_on_c, 0, 69, 0
1, 497183, Note_on_c, 0, 71, 69
1, 497184, Note_on_c, 0, 52, 58
1, 497230, Note_on_c, 0, 52, 0
1, 497332, Note_on_c, 0, 50, 60
1, 497340, Note_on_c, 0, 72, 71
1, 497347, Note_on_c, 0, 71, 0
1, 497384, Note_on_c, 0, 50, 0
1, 497447, Note_on_c, 0, 72, 0
1, 497484, Note_on_c, 0, 48, 63
1, 497502, Note_on_c, 0, 69, 63
1, 497522, Note_on_c, 0, 48, 0
1, 497631, Note_on_c, 0, 47, 60
1, 497651, Note_on_c, 0, 71, 65
1, 497673, Note_on_c, 0, 47, 0
1, 497674, Note_on_c, 0, 69, 0
1, 497781, Note_on_c, 0, 71, 0
1, 497794, Note_on_c, 0, 45, 47
1, 497803, Note_on_c, 0, 72, 62
1, 497831, Note_on_c, 0, 45, 0
1, 497927, Note_on_c, 0, 72, 0
1, 497929, Note_on_c, 0, 43, 67
1, 497947, Note_on_c, 0, 74, 69
1, 497981, Note_on_c, 0, 43, 0
1, 498040, Note_on_c, 0, 74, 0
1, 498079, Note_on_c, 0, 72, 66
1, 498081, Note_on_c, 0, 45, 60
1, 498114, Note_on_c, 0, 45, 0
1, 498175, Note_on_c, 0, 72, 0
1, 498222, Note_on_c, 0, 74, 64
1, 498230, Note_on_c, 0, 47, 59
1, 498267, Note_on_c, 0, 47, 0
1, 498361, Note_on_c, 0, 74, 0
1, 498374, Note_on_c, 0, 76, 63
1, 498377, Note_on_c, 0, 48, 63
1, 498417, Note_on_c, 0, 48, 0
1, 498510, Note_on_c, 0, 76, 0
1, 498525, Note_on_c, 0, 69, 65
1, 498528, Note_on_c, 0, 66, 60
1, 498530, Note_on_c, 0, 50, 61
1, 498573, Note_on_c, 0, 50, 0
1, 498662, Note_on_c, 0, 66, 0
1, 498675, Note_on_c, 0, 45, 63
1, 498712, Note_on_c, 0, 45, 0
1, 498763, Note_on_c, 0, 69, 0
1, 498819, Note_on_c, 0, 42, 63
1, 498863, Note_on_c, 0, 42, 0
1, 498986, Note_on_c, 0, 45, 51
1, 499020, Note_on_c, 0, 45, 0
1, 499129, Note_on_c, 0, 84, 88
1, 499134, Note_on_c, 0, 81, 80
1, 499138, Note_on_c, 0, 38, 80
1, 499159, Note_on_c, 0, 81, 0
1, 499171, Note_on_c, 0, 84, 0
1, 499182, Note_on_c, 0, 38, 0
1, 499296, Note_on_c, 0, 40, 69
1, 499328, Note_on_c, 0, 40, 0
1, 499440, Note_on_c, 0, 81, 87
1, 499441, Note_on_c, 0, 42, 77
1, 499449, Note_on_c, 0, 74, 75
1, 499470, Note_on_c, 0, 81, 0
1, 499480, Note_on_c, 0, 74, 0
1, 499481, Note_on_c, 0, 42, 0
1, 499581, Note_on_c, 0, 43, 67
1, 499610, Note_on_c, 0, 43, 0
1, 499731, Note_on_c, 0, 72, 87
1, 499734, Note_on_c, 0, 78, 86
1, 499739, Note_on_c, 0, 45, 78
1, 499780, Note_on_c, 0, 45, 0
1, 499794, Control_c, 0, 64, 27
1, 499814, Control_c, 0, 64, 20
1, 499823, Note_on_c, 0, 78, 0
1, 499882, Note_on_c, 0, 47, 73
1, 499918, Note_on_c, 0, 47, 0
1, 499997, Control_c, 0, 64, 14
1, 500016, Control_c, 0, 64, 8
1, 500035, Control_c, 0, 64, 0
1, 500049, Note_on_c, 0, 45, 67
1, 500050, Note_on_c, 0, 78, 87
1, 500081, Note_on_c, 0, 72, 0
1, 500085, Note_on_c, 0, 45, 0
1, 500157, Note_on_c, 0, 78, 0
1, 500203, Note_on_c, 0, 79, 80
1, 500205, Note_on_c, 0, 43, 67
1, 500248, Note_on_c, 0, 43, 0
1, 500306, Note_on_c, 0, 79, 0
1, 500343, Note_on_c, 0, 81, 86
1, 500353, Note_on_c, 0, 72, 77
1, 500357, Note_on_c, 0, 42, 72
1, 500372, Note_on_c, 0, 81, 0
1, 500381, Note_on_c, 0, 72, 0
1, 500405, Note_on_c, 0, 42, 0
1, 500501, Note_on_c, 0, 43, 62
1, 500540, Note_on_c, 0, 43, 0
1, 500650, Note_on_c, 0, 78, 91
1, 500656, Note_on_c, 0, 45, 65
1, 500666, Note_on_c, 0, 69, 70
1, 500691, Note_on_c, 0, 78, 0
1, 500691, Note_on_c, 0, 69, 0
1, 500698, Note_on_c, 0, 45, 0
1, 500787, Note_on_c, 0, 47, 60
1, 500825, Note_on_c, 0, 47, 0
1, 500940, Note_on_c, 0, 74, 85
1, 500947, Note_on_c, 0, 66, 80
1, 500957, Note_on_c, 0, 48, 80
1, 501011, Note_on_c, 0, 48, 0
1, 501019, Note_on_c, 0, 74, 0
1, 501111, Note_on_c, 0, 50, 74
1, 501148, Note_on_c, 0, 50, 0
1, 501258, Note_on_c, 0, 48, 69
1, 501270, Note_on_c, 0, 74, 77
1, 501299, Note_on_c, 0, 48, 0
1, 501313, Note_on_c, 0, 66, 0
1, 501402, Note_on_c, 0, 47, 70
1, 501416, Note_on_c, 0, 76, 72
1, 501428, Note_on_c, 0, 74, 0
1, 501446, Note_on_c, 0, 47, 0
1, 501474, Note_on_c, 0, 76, 0
1, 501557, Note_on_c, 0, 45, 72
1, 501562, Note_on_c, 0, 78, 87
1, 501564, Note_on_c, 0, 72, 80
1, 501600, Note_on_c, 0, 45, 0
1, 501699, Note_on_c, 0, 79, 78
1, 501703, Note_on_c, 0, 47, 71
1, 501720, Note_on_c, 0, 78, 0
1, 501743, Note_on_c, 0, 47, 0
1, 501850, Note_on_c, 0, 81, 80
1, 501852, Note_on_c, 0, 48, 71
1, 501873, Note_on_c, 0, 79, 0
1, 501887, Note_on_c, 0, 48, 0
1, 501989, Note_on_c, 0, 78, 80
1, 502002, Note_on_c, 0, 81, 0
1, 502002, Note_on_c, 0, 50, 65
1, 502004, Note_on_c, 0, 72, 0
1, 502055, Note_on_c, 0, 50, 0
1, 502120, Note_on_c, 0, 78, 0
1, 502155, Note_on_c, 0, 52, 72
1, 502157, Note_on_c, 0, 79, 88
1, 502174, Note_on_c, 0, 71, 77
1, 502204, Note_on_c, 0, 52, 0
1, 502287, Note_on_c, 0, 71, 0
1, 502297, Note_on_c, 0, 76, 76
1, 502323, Note_on_c, 0, 79, 0
1, 502480, Note_on_c, 0, 81, 85
1, 502482, Note_on_c, 0, 48, 65
1, 502493, Note_on_c, 0, 72, 72
1, 502495, Note_on_c, 0, 76, 0
1, 502522, Note_on_c, 0, 48, 0
1, 502655, Note_on_c, 0, 72, 0
1, 502669, Note_on_c, 0, 81, 0
1, 502731, Control_c, 0, 64, 9
1, 502772, Note_on_c, 0, 50, 73
1, 502775, Note_on_c, 0, 79, 81
1, 502786, Note_on_c, 0, 69, 70
1, 502804, Note_on_c, 0, 50, 0
1, 502833, Note_on_c, 0, 79, 0
1, 502846, Note_on_c, 0, 78, 81
1, 502917, Note_on_c, 0, 78, 0
1, 502922, Note_on_c, 0, 79, 78
1, 502993, Note_on_c, 0, 78, 77
1, 503009, Note_on_c, 0, 79, 0
1, 503072, Note_on_c, 0, 79, 68
1, 503074, Note_on_c, 0, 78, 0
1, 503118, Note_on_c, 0, 78, 75
1, 503123, Note_on_c, 0, 38, 74
1, 503132, Control_c, 0, 64, 13
1, 503160, Note_on_c, 0, 79, 0
1, 503182, Note_on_c, 0, 38, 0
1, 503205, Control_c, 0, 64, 0
1, 503341, Note_on_c, 0, 79, 88
1, 503410, Note_on_c, 0, 78, 0
1, 503498, Poly_aftertouch_c, 0, 71, 0
1, 503582, Note_on_c, 0, 69, 0
1, 503592, Note_on_c, 0, 79, 0
1, 503671, Note_on_c, 0, 79, 89
1, 503678, Note_on_c, 0, 43, 64
1, 503695, Note_on_c, 0, 71, 69
1, 503757, Control_c, 0, 64, 51
1, 503777, Control_c, 0, 64, 73
1, 503850, Control_c, 0, 64, 75
1, 503886, Control_c, 0, 64, 78
1, 503919, Control_c, 0, 64, 80
1, 504030, Control_c, 0, 64, 83
1, 504050, Control_c, 0, 64, 85
1, 504069, Control_c, 0, 64, 87
1, 504124, Control_c, 0, 64, 91
1, 504158, Control_c, 0, 64, 95
1, 504233, Control_c, 0, 64, 99
1, 504325, Control_c, 0, 64, 103
1, 504712, Control_c, 0, 64, 99
1, 504766, Control_c, 0, 64, 94
1, 504804, Control_c, 0, 64, 89
1, 504822, Control_c, 0, 64, 86
1, 504854, Control_c, 0, 64, 81
1, 504856, Note_on_c, 0, 71, 0
1, 504873, Control_c, 0, 64, 77
1, 504892, Control_c, 0, 64, 74
1, 504894, Note_on_c, 0, 43, 0
1, 504910, Control_c, 0, 64, 71
1, 504945, Note_on_c, 0, 79, 0
1, 504947, Control_c, 0, 64, 69
1, 504966, Control_c, 0, 64, 68
1, 504985, Control_c, 0, 64, 65
1, 505004, Control_c, 0, 64, 62
1, 505021, Control_c, 0, 64, 61
1, 505058, Control_c, 0, 64, 60
1, 505076, Control_c, 0, 64, 58
1, 505094, Control_c, 0, 64, 54
1, 505111, Control_c, 0, 64, 49
1, 505131, Control_c, 0, 64, 47
1, 505187, Control_c, 0, 64, 43
1, 505206, Control_c, 0, 64, 36
1, 505225, Control_c, 0, 64, 31
1, 505464, Control_c, 0, 67, 8
1, 505485, Note_on_c, 0, 71, 89
1, 505668, Note_on_c, 0, 74, 82
1, 505676, Note_on_c, 0, 71, 0
1, 505711, Note_on_c, 0, 74, 0
1, 505719, Control_c, 0, 67, 12
1, 505790, Control_c, 0, 64, 0
1, 505871, Note_on_c, 0, 79, 81
1, 505907, Note_on_c, 0, 79, 0
1, 505912, Note_on_c, 0, 78, 81
1, 505939, Control_c, 0, 64, 42
1, 505957, Note_on_c, 0, 79, 81
1, 505957, Control_c, 0, 64, 77
1, 505975, Control_c, 0, 64, 87
1, 505987, Note_on_c, 0, 78, 0
1, 505993, Control_c, 0, 64, 93
1, 506048, Note_on_c, 0, 62, 78
1, 506127, Note_on_c, 0, 62, 0
1, 506176, Control_c, 0, 64, 77
1, 506181, Note_on_c, 0, 59, 73
1, 506195, Control_c, 0, 64, 43
1, 506214, Control_c, 0, 64, 0
1, 506263, Note_on_c, 0, 59, 0
1, 506270, Note_on_c, 0, 79, 0
1, 506311, Note_on_c, 0, 55, 71
1, 506319, Note_on_c, 0, 81, 85
1, 506338, Poly_aftertouch_c, 0, 79, 0
1, 506364, Note_on_c, 0, 55, 0
1, 506374, Note_on_c, 0, 81, 0
1, 506458, Note_on_c, 0, 83, 81
1, 506466, Note_on_c, 0, 54, 77
1, 506473, Control_c, 0, 64, 47
1, 506486, Note_on_c, 0, 83, 0
1, 506488, Control_c, 0, 64, 79
1, 506500, Note_on_c, 0, 81, 81
1, 506503, Note_on_c, 0, 54, 0
1, 506507, Control_c, 0, 64, 87
1, 506527, Control_c, 0, 64, 91
1, 506535, Note_on_c, 0, 81, 0
1, 506573, Note_on_c, 0, 83, 77
1, 506579, Note_on_c, 0, 60, 74
1, 506590, Note_on_c, 0, 83, 0
1, 506602, Control_c, 0, 64, 96
1, 506623, Note_on_c, 0, 60, 0
1, 506635, Note_on_c, 0, 81, 65
1, 506658, Note_on_c, 0, 81, 0
1, 506671, Note_on_c, 0, 83, 64
1, 506696, Note_on_c, 0, 83, 0
1, 506699, Note_on_c, 0, 84, 46
1, 506725, Control_c, 0, 64, 100
1, 506742, Note_on_c, 0, 81, 79
1, 506744, Note_on_c, 0, 84, 0
1, 506751, Note_on_c, 0, 57, 53
1, 506779, Note_on_c, 0, 81, 0
1, 506781, Control_c, 0, 67, 18
1, 506782, Note_on_c, 0, 83, 92
1, 506801, Control_c, 0, 64, 104
1, 506803, Control_c, 0, 67, 23
1, 506805, Note_on_c, 0, 57, 0
1, 506819, Control_c, 0, 67, 27
1, 506837, Control_c, 0, 64, 109
1, 506847, Note_on_c, 0, 54, 74
1, 506848, Note_on_c, 0, 81, 83
1, 506853, Note_on_c, 0, 83, 0
1, 506857, Control_c, 0, 64, 113
1, 506857, Control_c, 0, 67, 31
1, 506875, Control_c, 0, 64, 118
1, 506892, Control_c, 0, 64, 125
1, 506895, Note_on_c, 0, 81, 0
1, 506897, Note_on_c, 0, 79, 81
1, 506900, Note_on_c, 0, 54, 0
1, 506953, Note_on_c, 0, 81, 79
1, 506970, Note_on_c, 0, 79, 0
1, 507002, Control_c, 0, 64, 110
1, 507013, Note_on_c, 0, 83, 92
1, 507021, Control_c, 0, 64, 59
1, 507023, Note_on_c, 0, 55, 73
1, 507040, Control_c, 0, 64, 0
1, 507053, Note_on_c, 0, 81, 0
1, 507130, Note_on_c, 0, 83, 0
1, 507140, Note_on_c, 0, 55, 0
1, 507145, Note_on_c, 0, 59, 67
1, 507221, Note_on_c, 0, 59, 0
1, 507243, Control_c, 0, 67, 27
1, 507287, Note_on_c, 0, 55, 75
1, 507290, Note_on_c, 0, 81, 94
1, 507317, Control_c, 0, 67, 23
1, 507407, Note_on_c, 0, 55, 0
1, 507412, Note_on_c, 0, 83, 87
1, 507414, Note_on_c, 0, 50, 68
1, 507422, Control_c, 0, 67, 16
1, 507426, Note_on_c, 0, 81, 0
1, 507444, Control_c, 0, 67, 11
1, 507465, Note_on_c, 0, 83, 0
1, 507484, Note_on_c, 0, 50, 0
1, 507519, Control_c, 0, 67, 0
1, 507558, Note_on_c, 0, 47, 65
1, 507565, Note_on_c, 0, 79, 82
1, 507602, Note_on_c, 0, 47, 0
1, 507640, Note_on_c, 0, 79, 0
1, 507703, Note_on_c, 0, 50, 62
1, 507755, Note_on_c, 0, 50, 0
1, 507846, Note_on_c, 0, 74, 83
1, 507846, Note_on_c, 0, 47, 63
1, 507923, Note_on_c, 0, 74, 0
1, 507952, Note_on_c, 0, 47, 0
1, 507978, Note_on_c, 0, 71, 67
1, 507978, Note_on_c, 0, 43, 56
1, 508038, Note_on_c, 0, 71, 0
1, 508039, Note_on_c, 0, 43, 0
1, 508114, Note_on_c, 0, 76, 82
1, 508116, Note_on_c, 0, 48, 69
1, 508161, Note_on_c, 0, 48, 0
1, 508166, Note_on_c, 0, 76, 0
1, 508251, Note_on_c, 0, 43, 53
1, 508289, Note_on_c, 0, 43, 0
1, 508382, Note_on_c, 0, 72, 73
1, 508389, Note_on_c, 0, 52, 61
1, 508438, Note_on_c, 0, 52, 0
1, 508475, Note_on_c, 0, 72, 0
1, 508506, Note_on_c, 0, 69, 64
1, 508508, Note_on_c, 0, 48, 59
1, 508544, Note_on_c, 0, 69, 0
1, 508558, Note_on_c, 0, 48, 0
1, 508660, Note_on_c, 0, 66, 72
1, 508661, Note_on_c, 0, 50, 67
1, 508716, Note_on_c, 0, 66, 0
1, 508722, Note_on_c, 0, 50, 0
1, 508799, Note_on_c, 0, 45, 50
1, 508857, Note_on_c, 0, 45, 0
1, 508925, Note_on_c, 0, 74, 71
1, 508959, Note_on_c, 0, 54, 36
1, 509049, Note_on_c, 0, 69, 62
1, 509052, Note_on_c, 0, 74, 0
1, 509054, Note_on_c, 0, 54, 0
1, 509067, Note_on_c, 0, 50, 45
1, 509087, Note_on_c, 0, 69, 0
1, 509179, Note_on_c, 0, 50, 0
1, 509198, Note_on_c, 0, 55, 49
1, 509209, Note_on_c, 0, 72, 62
1, 509258, Note_on_c, 0, 55, 0
1, 509338, Note_on_c, 0, 72, 0
1, 509338, Note_on_c, 0, 71, 56
1, 509385, Note_on_c, 0, 71, 0
1, 509474, Note_on_c, 0, 50, 54
1, 509483, Note_on_c, 0, 69, 68
1, 509515, Note_on_c, 0, 50, 0
1, 509609, Note_on_c, 0, 69, 0
1, 509614, Note_on_c, 0, 71, 67
1, 509674, Note_on_c, 0, 71, 0
1, 509743, Note_on_c, 0, 67, 64
1, 509752, Note_on_c, 0, 47, 65
1, 509792, Note_on_c, 0, 47, 0
1, 509854, Note_on_c, 0, 67, 0
1, 509869, Note_on_c, 0, 69, 74
1, 509909, Note_on_c, 0, 69, 0
1, 510004, Note_on_c, 0, 50, 78
1, 510013, Note_on_c, 0, 71, 96
1, 510037, Note_on_c, 0, 50, 0
1, 510102, Note_on_c, 0, 71, 0
1, 510137, Note_on_c, 0, 74, 79
1, 510166, Note_on_c, 0, 74, 0
1, 510277, Note_on_c, 0, 43, 75
1, 510279, Note_on_c, 0, 79, 86
1, 510296, Poly_aftertouch_c, 0, 74, 0
1, 510309, Note_on_c, 0, 43, 0
1, 510320, Note_on_c, 0, 78, 83
1, 510324, Note_on_c, 0, 79, 0
1, 510345, Control_c, 0, 64, 88
1, 510362, Control_c, 0, 64, 127
1, 510366, Note_on_c, 0, 79, 80
1, 510393, Note_on_c, 0, 78, 0
1, 510435, Note_on_c, 0, 62, 80
1, 510581, Control_c, 0, 64, 77
1, 510594, Note_on_c, 0, 59, 74
1, 510595, Note_on_c, 0, 62, 0
1, 510599, Control_c, 0, 64, 0
1, 510692, Note_on_c, 0, 79, 0
1, 510725, Note_on_c, 0, 59, 0
1, 510726, Note_on_c, 0, 55, 71
1, 510733, Note_on_c, 0, 81, 86
1, 510777, Note_on_c, 0, 55, 0
1, 510786, Note_on_c, 0, 81, 0
1, 510859, Note_on_c, 0, 83, 85
1, 510874, Note_on_c, 0, 54, 80
1, 510902, Note_on_c, 0, 83, 0
1, 510910, Control_c, 0, 64, 55
1, 510912, Note_on_c, 0, 54, 0
1, 510914, Note_on_c, 0, 81, 77
1, 510930, Control_c, 0, 64, 71
1, 510945, Note_on_c, 0, 81, 0
1, 510961, Note_on_c, 0, 83, 77
1, 510985, Note_on_c, 0, 60, 75
1, 511000, Note_on_c, 0, 83, 0
1, 511036, Note_on_c, 0, 81, 72
1, 511060, Note_on_c, 0, 81, 0
1, 511067, Note_on_c, 0, 60, 0
1, 511075, Note_on_c, 0, 83, 81
1, 511100, Note_on_c, 0, 83, 0
1, 511137, Note_on_c, 0, 81, 67
1, 511150, Control_c, 0, 64, 73
1, 511152, Note_on_c, 0, 57, 59
1, 511159, Note_on_c, 0, 81, 0
1, 511171, Note_on_c, 0, 83, 89
1, 511224, Note_on_c, 0, 57, 0
1, 511225, Note_on_c, 0, 83, 0
1, 511228, Note_on_c, 0, 81, 76
1, 511241, Control_c, 0, 64, 75
1, 511247, Note_on_c, 0, 54, 67
1, 511261, Control_c, 0, 64, 77
1, 511272, Note_on_c, 0, 79, 82
1, 511280, Note_on_c, 0, 81, 0
1, 511281, Control_c, 0, 64, 79
1, 511298, Control_c, 0, 64, 82
1, 511332, Note_on_c, 0, 81, 76
1, 511341, Note_on_c, 0, 79, 0
1, 511346, Note_on_c, 0, 54, 0
1, 511352, Control_c, 0, 64, 67
1, 511371, Control_c, 0, 64, 13
1, 511390, Control_c, 0, 64, 0
1, 511411, Note_on_c, 0, 83, 89
1, 511421, Note_on_c, 0, 55, 67
1, 511444, Note_on_c, 0, 81, 0
1, 511483, Note_on_c, 0, 83, 0
1, 511526, Note_on_c, 0, 55, 0
1, 511537, Note_on_c, 0, 59, 73
1, 511605, Note_on_c, 0, 59, 0
1, 511683, Note_on_c, 0, 55, 64
1, 511693, Note_on_c, 0, 81, 92
1, 511808, Note_on_c, 0, 55, 0
1, 511823, Note_on_c, 0, 50, 60
1, 511823, Note_on_c, 0, 83, 85
1, 511837, Note_on_c, 0, 81, 0
1, 511872, Note_on_c, 0, 83, 0
1, 511907, Note_on_c, 0, 50, 0
1, 511969, Note_on_c, 0, 47, 58
1, 511970, Note_on_c, 0, 79, 78
1, 512029, Note_on_c, 0, 79, 0
1, 512032, Note_on_c, 0, 47, 0
1, 512097, Note_on_c, 0, 55, 55
1, 512216, Note_on_c, 0, 55, 0
1, 512231, Note_on_c, 0, 81, 67
1, 512244, Note_on_c, 0, 50, 53
1, 512358, Note_on_c, 0, 50, 0
1, 512371, Note_on_c, 0, 84, 65
1, 512375, Note_on_c, 0, 81, 0
1, 512384, Note_on_c, 0, 47, 51
1, 512440, Note_on_c, 0, 84, 0
1, 512441, Note_on_c, 0, 47, 0
1, 512514, Note_on_c, 0, 83, 70
1, 512529, Note_on_c, 0, 43, 48
1, 512571, Note_on_c, 0, 83, 0
1, 512629, Note_on_c, 0, 43, 0
1, 512652, Note_on_c, 0, 47, 57
1, 512760, Note_on_c, 0, 47, 0
1, 512794, Note_on_c, 0, 49, 50
1, 512812, Note_on_c, 0, 76, 59
1, 512848, Note_on_c, 0, 49, 0
1, 512856, Note_on_c, 0, 76, 0
1, 512895, Note_on_c, 0, 52, 53
1, 512931, Note_on_c, 0, 79, 50
1, 512972, Note_on_c, 0, 79, 0
1, 512995, Note_on_c, 0, 52, 0
1, 513067, Note_on_c, 0, 81, 63
1, 513069, Note_on_c, 0, 42, 54
1, 513103, Note_on_c, 0, 81, 0
1, 513165, Note_on_c, 0, 42, 0
1, 513192, Note_on_c, 0, 45, 46
1, 513352, Note_on_c, 0, 45, 0
1, 513376, Note_on_c, 0, 71, 62
1, 513384, Note_on_c, 0, 50, 37
1, 513433, Note_on_c, 0, 50, 0
1, 513463, Note_on_c, 0, 71, 0
1, 513513, Note_on_c, 0, 74, 44
1, 513550, Note_on_c, 0, 74, 0
1, 513629, Note_on_c, 0, 40, 55
1, 513640, Note_on_c, 0, 79, 66
1, 513698, Note_on_c, 0, 79, 0
1, 513700, Note_on_c, 0, 40, 0
1, 513773, Note_on_c, 0, 43, 58
1, 513871, Note_on_c, 0, 43, 0
1, 513916, Note_on_c, 0, 73, 77
1, 513922, Note_on_c, 0, 45, 59
1, 513992, Note_on_c, 0, 73, 0
1, 514041, Note_on_c, 0, 45, 0
1, 514045, Note_on_c, 0, 76, 79
1, 514057, Note_on_c, 0, 49, 65
1, 514099, Note_on_c, 0, 76, 0
1, 514136, Note_on_c, 0, 49, 0
1, 514181, Note_on_c, 0, 78, 93
1, 514215, Note_on_c, 0, 50, 64
1, 514255, Note_on_c, 0, 78, 0
1, 514327, Note_on_c, 0, 50, 0
1, 514336, Note_on_c, 0, 52, 66
1, 514436, Note_on_c, 0, 52, 0
1, 514472, Note_on_c, 0, 54, 66
1, 514480, Note_on_c, 0, 74, 93
1, 514587, Note_on_c, 0, 54, 0
1, 514610, Note_on_c, 0, 74, 0
1, 514613, Note_on_c, 0, 78, 86
1, 514620, Note_on_c, 0, 50, 48
1, 514698, Note_on_c, 0, 78, 0
1, 514698, Note_on_c, 0, 50, 0
1, 514744, Note_on_c, 0, 83, 95
1, 514760, Note_on_c, 0, 55, 58
1, 514776, Note_on_c, 0, 83, 0
1, 514819, Note_on_c, 0, 55, 0
1, 514905, Note_on_c, 0, 52, 40
1, 514928, Control_c, 0, 67, 8
1, 514974, Note_on_c, 0, 52, 0
1, 515032, Note_on_c, 0, 81, 86
1, 515033, Note_on_c, 0, 54, 63
1, 515070, Note_on_c, 0, 81, 0
1, 515156, Note_on_c, 0, 54, 0
1, 515170, Note_on_c, 0, 50, 61
1, 515243, Note_on_c, 0, 50, 0
1, 515331, Note_on_c, 0, 79, 80
1, 515332, Note_on_c, 0, 57, 61
1, 515366, Note_on_c, 0, 57, 0
1, 515460, Note_on_c, 0, 79, 0
1, 515467, Note_on_c, 0, 78, 78
1, 515600, Note_on_c, 0, 45, 59
1, 515604, Note_on_c, 0, 79, 78
1, 515615, Note_on_c, 0, 78, 0
1, 515637, Note_on_c, 0, 45, 0
1, 515739, Note_on_c, 0, 76, 72
1, 515754, Note_on_c, 0, 79, 0
1, 515882, Note_on_c, 0, 50, 62
1, 515889, Note_on_c, 0, 76, 0
1, 515890, Note_on_c, 0, 74, 65
1, 515992, Note_on_c, 0, 50, 0
1, 516016, Note_on_c, 0, 45, 67
1, 516089, Note_on_c, 0, 45, 0
1, 516178, Note_on_c, 0, 42, 61
1, 516254, Note_on_c, 0, 42, 0
1, 516316, Note_on_c, 0, 45, 38
1, 516362, Note_on_c, 0, 45, 0
1, 516475, Note_on_c, 0, 38, 56
1, 516486, Note_on_c, 0, 74, 0
1, 516505, Control_c, 0, 64, 22
1, 516525, Control_c, 0, 64, 59
1, 516543, Control_c, 0, 64, 71
1, 516561, Control_c, 0, 64, 75
1, 516578, Control_c, 0, 64, 77
1, 516598, Control_c, 0, 64, 80
1, 516618, Control_c, 0, 64, 84
1, 516634, Control_c, 0, 64, 89
1, 516652, Control_c, 0, 64, 93
1, 516691, Control_c, 0, 64, 98
1, 516734, Note_on_c, 0, 38, 0
1, 516746, Control_c, 0, 64, 104
1, 516782, Control_c, 0, 64, 111
1, 516811, Note_on_c, 0, 71, 91
1, 516818, Control_c, 0, 64, 116
1, 516893, Control_c, 0, 64, 89
1, 516913, Control_c, 0, 64, 28
1, 516930, Control_c, 0, 64, 0
1, 516964, Note_on_c, 0, 71, 0
1, 516965, Note_on_c, 0, 74, 86
1, 517007, Note_on_c, 0, 74, 0
1, 517149, Note_on_c, 0, 79, 89
1, 517198, Note_on_c, 0, 79, 0
1, 517199, Note_on_c, 0, 78, 81
1, 517238, Control_c, 0, 64, 59
1, 517248, Note_on_c, 0, 79, 81
1, 517256, Control_c, 0, 64, 93
1, 517276, Note_on_c, 0, 78, 0
1, 517276, Control_c, 0, 64, 106
1, 517337, Note_on_c, 0, 62, 78
1, 517385, Control_c, 0, 64, 94
1, 517404, Control_c, 0, 64, 56
1, 517422, Control_c, 0, 64, 0
1, 517470, Note_on_c, 0, 62, 0
1, 517477, Note_on_c, 0, 59, 72
1, 517601, Note_on_c, 0, 55, 69
1, 517605, Note_on_c, 0, 79, 0
1, 517605, Note_on_c, 0, 59, 0
1, 517607, Note_on_c, 0, 81, 84
1, 517671, Note_on_c, 0, 55, 0
1, 517671, Note_on_c, 0, 81, 0
1, 517746, Note_on_c, 0, 83, 81
1, 517751, Note_on_c, 0, 54, 75
1, 517754, Control_c, 0, 64, 21
1, 517773, Control_c, 0, 64, 73
1, 517781, Note_on_c, 0, 83, 0
1, 517789, Note_on_c, 0, 54, 0
1, 517790, Control_c, 0, 64, 89
1, 517797, Note_on_c, 0, 81, 82
1, 517808, Control_c, 0, 64, 97
1, 517844, Note_on_c, 0, 81, 0
1, 517855, Note_on_c, 0, 83, 80
1, 517879, Note_on_c, 0, 60, 67
1, 517885, Note_on_c, 0, 83, 0
1, 517902, Control_c, 0, 64, 102
1, 517916, Note_on_c, 0, 81, 66
1, 517966, Note_on_c, 0, 81, 0
1, 517970, Note_on_c, 0, 83, 86
1, 517972, Note_on_c, 0, 60, 0
1, 518007, Note_on_c, 0, 83, 0
1, 518027, Control_c, 0, 64, 106
1, 518030, Note_on_c, 0, 57, 59
1, 518035, Note_on_c, 0, 81, 82
1, 518078, Note_on_c, 0, 83, 85
1, 518081, Note_on_c, 0, 81, 0
1, 518081, Control_c, 0, 64, 111
1, 518120, Control_c, 0, 64, 119
1, 518122, Note_on_c, 0, 57, 0
1, 518130, Note_on_c, 0, 81, 73
1, 518135, Note_on_c, 0, 54, 67
1, 518137, Control_c, 0, 64, 126
1, 518141, Note_on_c, 0, 83, 0
1, 518194, Note_on_c, 0, 81, 0
1, 518197, Note_on_c, 0, 79, 82
1, 518215, Note_on_c, 0, 54, 0
1, 518262, Note_on_c, 0, 81, 86
1, 518267, Note_on_c, 0, 79, 0
1, 518303, Control_c, 0, 64, 87
1, 518321, Note_on_c, 0, 55, 54
1, 518321, Control_c, 0, 64, 0
1, 518327, Note_on_c, 0, 83, 92
1, 518359, Note_on_c, 0, 81, 0
1, 518424, Note_on_c, 0, 83, 0
1, 518454, Note_on_c, 0, 55, 0
1, 518464, Note_on_c, 0, 59, 55
1, 518579, Note_on_c, 0, 59, 0
1, 518606, Note_on_c, 0, 55, 61
1, 518612, Note_on_c, 0, 81, 89
1, 518692, Note_on_c, 0, 81, 0
1, 518735, Note_on_c, 0, 83, 85
1, 518737, Note_on_c, 0, 55, 0
1, 518748, Note_on_c, 0, 50, 62
1, 518778, Note_on_c, 0, 83, 0
1, 518862, Note_on_c, 0, 50, 0
1, 518877, Note_on_c, 0, 79, 80
1, 518892, Note_on_c, 0, 47, 63
1, 518952, Note_on_c, 0, 79, 0
1, 518953, Note_on_c, 0, 47, 0
1, 519034, Note_on_c, 0, 50, 58
1, 519073, Control_c, 0, 67, 12
1, 519142, Note_on_c, 0, 50, 0
1, 519171, Note_on_c, 0, 74, 85
1, 519181, Note_on_c, 0, 47, 55
1, 519260, Note_on_c, 0, 74, 0
1, 519284, Note_on_c, 0, 47, 0
1, 519302, Note_on_c, 0, 43, 58
1, 519303, Note_on_c, 0, 71, 65
1, 519356, Note_on_c, 0, 71, 0
1, 519362, Note_on_c, 0, 43, 0
1, 519443, Note_on_c, 0, 76, 82
1, 519446, Note_on_c, 0, 48, 67
1, 519495, Note_on_c, 0, 76, 0
1, 519530, Note_on_c, 0, 48, 0
1, 519575, Note_on_c, 0, 43, 62
1, 519645, Note_on_c, 0, 43, 0
1, 519721, Note_on_c, 0, 52, 58
1, 519738, Note_on_c, 0, 72, 72
1, 519756, Control_c, 0, 67, 18
1, 519773, Control_c, 0, 67, 25
1, 519792, Control_c, 0, 67, 30
1, 519805, Note_on_c, 0, 52, 0
1, 519809, Control_c, 0, 67, 34
1, 519813, Note_on_c, 0, 72, 0
1, 519842, Control_c, 0, 67, 41
1, 519862, Control_c, 0, 67, 48
1, 519877, Note_on_c, 0, 69, 63
1, 519878, Note_on_c, 0, 48, 52
1, 519881, Control_c, 0, 67, 55
1, 519898, Control_c, 0, 67, 62
1, 519914, Note_on_c, 0, 69, 0
1, 519917, Control_c, 0, 67, 68
1, 519936, Control_c, 0, 67, 74
1, 519944, Note_on_c, 0, 48, 0
1, 519953, Control_c, 0, 67, 79
1, 519973, Control_c, 0, 67, 83
1, 519990, Control_c, 0, 67, 87
1, 520008, Control_c, 0, 67, 92
1, 520021, Note_on_c, 0, 66, 64
1, 520027, Control_c, 0, 67, 99
1, 520030, Note_on_c, 0, 50, 54
1, 520046, Control_c, 0, 67, 106
1, 520064, Note_on_c, 0, 66, 0
1, 520064, Control_c, 0, 67, 115
1, 520082, Control_c, 0, 67, 122
1, 520119, Control_c, 0, 67, 127
1, 520131, Note_on_c, 0, 50, 0
1, 520146, Note_on_c, 0, 45, 54
1, 520251, Note_on_c, 0, 45, 0
1, 520304, Note_on_c, 0, 74, 67
1, 520310, Note_on_c, 0, 54, 48
1, 520419, Note_on_c, 0, 54, 0
1, 520424, Note_on_c, 0, 74, 0
1, 520426, Note_on_c, 0, 50, 47
1, 520427, Note_on_c, 0, 69, 59
1, 520467, Note_on_c, 0, 69, 0
1, 520570, Note_on_c, 0, 55, 57
1, 520578, Note_on_c, 0, 50, 0
1, 520579, Note_on_c, 0, 72, 72
1, 520637, Note_on_c, 0, 55, 0
1, 520722, Note_on_c, 0, 71, 63
1, 520740, Note_on_c, 0, 72, 0
1, 520783, Note_on_c, 0, 71, 0
1, 520834, Control_c, 0, 67, 123
1, 520851, Control_c, 0, 67, 118
1, 520870, Control_c, 0, 67, 110
1, 520873, Note_on_c, 0, 50, 56
1, 520886, Note_on_c, 0, 69, 59
1, 520889, Control_c, 0, 67, 96
1, 520906, Control_c, 0, 67, 79
1, 520923, Note_on_c, 0, 50, 0
1, 520924, Control_c, 0, 67, 60
1, 520945, Control_c, 0, 67, 42
1, 520963, Control_c, 0, 67, 25
1, 520982, Control_c, 0, 67, 9
1, 520997, Note_on_c, 0, 69, 0
1, 520998, Control_c, 0, 67, 0
1, 521008, Note_on_c, 0, 71, 57
1, 521072, Note_on_c, 0, 71, 0
1, 521132, Note_on_c, 0, 67, 61
1, 521150, Note_on_c, 0, 47, 55
1, 521210, Note_on_c, 0, 47, 0
1, 521247, Note_on_c, 0, 67, 0
1, 521275, Note_on_c, 0, 69, 68
1, 521318, Note_on_c, 0, 69, 0
1, 521418, Note_on_c, 0, 50, 67
1, 521436, Note_on_c, 0, 71, 88
1, 521461, Note_on_c, 0, 50, 0
1, 521530, Note_on_c, 0, 71, 0
1, 521553, Note_on_c, 0, 74, 82
1, 521594, Note_on_c, 0, 74, 0
1, 521729, Note_on_c, 0, 79, 86
1, 521730, Note_on_c, 0, 43, 73
1, 521764, Note_on_c, 0, 43, 0
1, 521767, Note_on_c, 0, 78, 84
1, 521769, Control_c, 0, 64, 22
1, 521774, Note_on_c, 0, 79, 0
1, 521787, Control_c, 0, 64, 86
1, 521805, Control_c, 0, 64, 121
1, 521823, Control_c, 0, 64, 127
1, 521825, Note_on_c, 0, 79, 82
1, 521853, Note_on_c, 0, 78, 0
1, 521885, Note_on_c, 0, 62, 77
1, 521940, Note_on_c, 0, 62, 0
1, 522029, Note_on_c, 0, 59, 75
1, 522128, Note_on_c, 0, 59, 0
1, 522155, Note_on_c, 0, 79, 0
1, 522162, Note_on_c, 0, 55, 70
1, 522166, Note_on_c, 0, 81, 80
1, 522222, Note_on_c, 0, 81, 0
1, 522230, Control_c, 0, 64, 99
1, 522240, Note_on_c, 0, 55, 0
1, 522246, Control_c, 0, 64, 47
1, 522266, Control_c, 0, 64, 0
1, 522296, Note_on_c, 0, 83, 78
1, 522310, Note_on_c, 0, 54, 71
1, 522322, Control_c, 0, 64, 14
1, 522328, Note_on_c, 0, 83, 0
1, 522340, Control_c, 0, 64, 42
1, 522352, Note_on_c, 0, 81, 80
1, 522359, Control_c, 0, 64, 69
1, 522367, Note_on_c, 0, 54, 0
1, 522378, Control_c, 0, 64, 84
1, 522387, Note_on_c, 0, 81, 0
1, 522394, Control_c, 0, 64, 98
1, 522414, Control_c, 0, 64, 102
1, 522415, Note_on_c, 0, 83, 68
1, 522427, Note_on_c, 0, 60, 66
1, 522434, Note_on_c, 0, 83, 0
1, 522471, Note_on_c, 0, 81, 68
1, 522494, Note_on_c, 0, 81, 0
1, 522501, Note_on_c, 0, 83, 82
1, 522515, Note_on_c, 0, 60, 0
1, 522546, Note_on_c, 0, 83, 0
1, 522567, Note_on_c, 0, 81, 81
1, 522570, Note_on_c, 0, 57, 55
1, 522599, Control_c, 0, 64, 106
1, 522617, Note_on_c, 0, 81, 0
1, 522619, Note_on_c, 0, 83, 80
1, 522665, Note_on_c, 0, 57, 0
1, 522667, Control_c, 0, 64, 110
1, 522685, Note_on_c, 0, 54, 72
1, 522685, Note_on_c, 0, 81, 77
1, 522694, Note_on_c, 0, 83, 0
1, 522705, Control_c, 0, 64, 116
1, 522741, Control_c, 0, 64, 124
1, 522745, Note_on_c, 0, 81, 0
1, 522751, Note_on_c, 0, 79, 78
1, 522805, Note_on_c, 0, 54, 0
1, 522816, Note_on_c, 0, 81, 87
1, 522827, Note_on_c, 0, 79, 0
1, 522860, Note_on_c, 0, 55, 59
1, 522870, Control_c, 0, 64, 105
1, 522877, Note_on_c, 0, 83, 91
1, 522890, Control_c, 0, 64, 60
1, 522908, Control_c, 0, 64, 0
1, 522912, Note_on_c, 0, 81, 0
1, 522977, Note_on_c, 0, 83, 0
1, 522992, Note_on_c, 0, 55, 0
1, 523011, Note_on_c, 0, 59, 63
1, 523086, Note_on_c, 0, 59, 0
1, 523155, Note_on_c, 0, 55, 65
1, 523165, Note_on_c, 0, 81, 87
1, 523277, Note_on_c, 0, 55, 0
1, 523288, Note_on_c, 0, 83, 81
1, 523299, Note_on_c, 0, 81, 0
1, 523305, Note_on_c, 0, 50, 60
1, 523337, Note_on_c, 0, 83, 0
1, 523381, Note_on_c, 0, 50, 0
1, 523439, Note_on_c, 0, 79, 68
1, 523451, Note_on_c, 0, 47, 54
1, 523497, Note_on_c, 0, 79, 0
1, 523508, Note_on_c, 0, 47, 0
1, 523587, Note_on_c, 0, 55, 58
1, 523664, Note_on_c, 0, 55, 0
1, 523748, Note_on_c, 0, 81, 82
1, 523751, Note_on_c, 0, 50, 47
1, 523771, Control_c, 0, 67, 8
1, 523825, Note_on_c, 0, 50, 0
1, 523863, Note_on_c, 0, 47, 45
1, 523866, Note_on_c, 0, 81, 0
1, 523876, Note_on_c, 0, 84, 71
1, 523929, Note_on_c, 0, 84, 0
1, 523948, Note_on_c, 0, 47, 0
1, 524032, Note_on_c, 0, 43, 46
1, 524037, Note_on_c, 0, 83, 61
1, 524070, Note_on_c, 0, 83, 0
1, 524124, Note_on_c, 0, 43, 0
1, 524149, Note_on_c, 0, 47, 50
1, 524266, Note_on_c, 0, 47, 0
1, 524309, Note_on_c, 0, 49, 44
1, 524331, Note_on_c, 0, 76, 66
1, 524391, Note_on_c, 0, 49, 0
1, 524396, Note_on_c, 0, 76, 0
1, 524436, Note_on_c, 0, 52, 44
1, 524471, Note_on_c, 0, 79, 47
1, 524489, Note_on_c, 0, 52, 0
1, 524526, Note_on_c, 0, 79, 0
1, 524621, Note_on_c, 0, 81, 61
1, 524647, Note_on_c, 0, 42, 50
1, 524657, Note_on_c, 0, 81, 0
1, 524747, Note_on_c, 0, 42, 0
1, 524755, Note_on_c, 0, 45, 50
1, 524895, Note_on_c, 0, 45, 0
1, 524912, Note_on_c, 0, 50, 45
1, 524914, Note_on_c, 0, 71, 69
1, 524970, Note_on_c, 0, 50, 0
1, 524990, Note_on_c, 0, 71, 0
1, 525050, Note_on_c, 0, 74, 53
1, 525106, Note_on_c, 0, 74, 0
1, 525176, Note_on_c, 0, 40, 52
1, 525180, Note_on_c, 0, 79, 70
1, 525227, Note_on_c, 0, 79, 0
1, 525258, Note_on_c, 0, 40, 0
1, 525294, Note_on_c, 0, 43, 63
1, 525399, Note_on_c, 0, 43, 0
1, 525461, Note_on_c, 0, 45, 65
1, 525475, Note_on_c, 0, 73, 78
1, 525493, Control_c, 0, 67, 0
1, 525544, Note_on_c, 0, 73, 0
1, 525591, Note_on_c, 0, 76, 76
1, 525600, Note_on_c, 0, 49, 69
1, 525616, Note_on_c, 0, 45, 0
1, 525650, Note_on_c, 0, 76, 0
1, 525691, Note_on_c, 0, 49, 0
1, 525745, Note_on_c, 0, 78, 89
1, 525752, Note_on_c, 0, 50, 66
1, 525795, Note_on_c, 0, 78, 0
1, 525861, Note_on_c, 0, 50, 0
1, 525864, Note_on_c, 0, 52, 69
1, 525986, Note_on_c, 0, 52, 0
1, 526016, Note_on_c, 0, 54, 69
1, 526021, Note_on_c, 0, 74, 88
1, 526102, Note_on_c, 0, 74, 0
1, 526117, Note_on_c, 0, 54, 0
1, 526149, Note_on_c, 0, 50, 55
1, 526153, Note_on_c, 0, 78, 84
1, 526220, Note_on_c, 0, 78, 0
1, 526231, Note_on_c, 0, 50, 0
1, 526288, Note_on_c, 0, 83, 97
1, 526296, Note_on_c, 0, 55, 58
1, 526318, Note_on_c, 0, 83, 0
1, 526353, Note_on_c, 0, 55, 0
1, 526447, Note_on_c, 0, 52, 56
1, 526518, Note_on_c, 0, 52, 0
1, 526586, Note_on_c, 0, 54, 64
1, 526589, Note_on_c, 0, 81, 87
1, 526630, Note_on_c, 0, 81, 0
1, 526687, Note_on_c, 0, 54, 0
1, 526719, Note_on_c, 0, 50, 60
1, 526771, Note_on_c, 0, 50, 0
1, 526876, Note_on_c, 0, 79, 81
1, 526888, Note_on_c, 0, 57, 67
1, 526925, Note_on_c, 0, 57, 0
1, 527012, Note_on_c, 0, 78, 80
1, 527013, Note_on_c, 0, 79, 0
1, 527149, Note_on_c, 0, 79, 80
1, 527155, Note_on_c, 0, 45, 63
1, 527170, Note_on_c, 0, 78, 0
1, 527201, Note_on_c, 0, 45, 0
1, 527297, Note_on_c, 0, 76, 74
1, 527338, Note_on_c, 0, 79, 0
1, 527464, Note_on_c, 0, 74, 71
1, 527467, Note_on_c, 0, 76, 0
1, 527481, Note_on_c, 0, 50, 70
1, 527600, Note_on_c, 0, 50, 0
1, 527608, Note_on_c, 0, 45, 70
1, 527695, Note_on_c, 0, 45, 0
1, 527744, Note_on_c, 0, 42, 69
1, 527851, Note_on_c, 0, 42, 0
1, 527890, Note_on_c, 0, 45, 54
1, 527994, Note_on_c, 0, 45, 0
1, 528045, Note_on_c, 0, 38, 64
1, 528068, Note_on_c, 0, 74, 0
1, 528375, Note_on_c, 0, 81, 94
1, 528393, Note_on_c, 0, 38, 0
1, 528535, Note_on_c, 0, 78, 89
1, 528556, Note_on_c, 0, 81, 0
1, 528587, Note_on_c, 0, 78, 0
1, 528725, Note_on_c, 0, 74, 96
1, 528816, Control_c, 0, 64, 27
1, 528833, Control_c, 0, 64, 71
1, 528852, Control_c, 0, 64, 79
1, 528865, Note_on_c, 0, 62, 70
1, 528870, Control_c, 0, 64, 82
1, 528928, Control_c, 0, 64, 85
1, 528944, Control_c, 0, 64, 87
1, 528964, Note_on_c, 0, 62, 0
1, 528995, Note_on_c, 0, 57, 71
1, 529057, Note_on_c, 0, 74, 0
1, 529113, Note_on_c, 0, 57, 0
1, 529133, Note_on_c, 0, 76, 76
1, 529135, Note_on_c, 0, 54, 66
1, 529148, Control_c, 0, 64, 92
1, 529208, Note_on_c, 0, 76, 0
1, 529227, Note_on_c, 0, 78, 73
1, 529254, Control_c, 0, 64, 81
1, 529269, Note_on_c, 0, 79, 70
1, 529271, Note_on_c, 0, 78, 0
1, 529271, Control_c, 0, 64, 46
1, 529275, Note_on_c, 0, 50, 77
1, 529286, Note_on_c, 0, 54, 0
1, 529289, Control_c, 0, 64, 0
1, 529301, Note_on_c, 0, 79, 0
1, 529340, Note_on_c, 0, 78, 71
1, 529380, Note_on_c, 0, 50, 0
1, 529388, Note_on_c, 0, 78, 0
1, 529389, Note_on_c, 0, 79, 75
1, 529408, Note_on_c, 0, 57, 71
1, 529428, Note_on_c, 0, 79, 0
1, 529456, Note_on_c, 0, 78, 77
1, 529489, Note_on_c, 0, 79, 70
1, 529505, Note_on_c, 0, 78, 0
1, 529518, Note_on_c, 0, 79, 0
1, 529520, Note_on_c, 0, 57, 0
1, 529522, Note_on_c, 0, 54, 65
1, 529576, Note_on_c, 0, 78, 40
1, 529586, Note_on_c, 0, 79, 86
1, 529609, Note_on_c, 0, 78, 0
1, 529637, Note_on_c, 0, 54, 0
1, 529640, Note_on_c, 0, 78, 80
1, 529643, Note_on_c, 0, 50, 64
1, 529646, Note_on_c, 0, 79, 0
1, 529701, Note_on_c, 0, 78, 0
1, 529703, Note_on_c, 0, 76, 73
1, 529742, Note_on_c, 0, 50, 0
1, 529760, Note_on_c, 0, 78, 80
1, 529778, Note_on_c, 0, 76, 0
1, 529829, Note_on_c, 0, 79, 91
1, 529836, Note_on_c, 0, 47, 69
1, 529869, Note_on_c, 0, 78, 0
1, 529900, Control_c, 0, 64, 22
1, 529917, Control_c, 0, 64, 68
1, 529935, Control_c, 0, 64, 78
1, 529969, Note_on_c, 0, 59, 73
1, 529990, Note_on_c, 0, 47, 0
1, 530103, Note_on_c, 0, 59, 0
1, 530108, Note_on_c, 0, 55, 73
1, 530135, Control_c, 0, 64, 74
1, 530152, Control_c, 0, 64, 71
1, 530172, Control_c, 0, 64, 68
1, 530190, Control_c, 0, 64, 65
1, 530208, Control_c, 0, 64, 62
1, 530225, Control_c, 0, 64, 58
1, 530251, Note_on_c, 0, 55, 0
1, 530256, Note_on_c, 0, 50, 71
1, 530262, Control_c, 0, 64, 56
1, 530338, Control_c, 0, 64, 54
1, 530392, Control_c, 0, 64, 52
1, 530407, Note_on_c, 0, 47, 66
1, 530410, Note_on_c, 0, 50, 0
1, 530430, Control_c, 0, 64, 48
1, 530470, Note_on_c, 0, 47, 0
1, 530522, Control_c, 0, 64, 46
1, 530547, Note_on_c, 0, 50, 58
1, 530594, Control_c, 0, 64, 44
1, 530632, Control_c, 0, 64, 41
1, 530633, Note_on_c, 0, 79, 0
1, 530666, Note_on_c, 0, 50, 0
1, 530677, Note_on_c, 0, 74, 88
1, 530682, Note_on_c, 0, 47, 56
1, 530742, Control_c, 0, 64, 37
1, 530807, Note_on_c, 0, 74, 0
1, 530810, Note_on_c, 0, 47, 0
1, 530815, Note_on_c, 0, 43, 59
1, 530822, Note_on_c, 0, 79, 80
1, 530871, Note_on_c, 0, 79, 0
1, 530907, Control_c, 0, 64, 33
1, 530966, Note_on_c, 0, 84, 94
1, 530971, Note_on_c, 0, 45, 69
1, 530979, Note_on_c, 0, 43, 0
1, 531073, Note_on_c, 0, 45, 0
1, 531089, Note_on_c, 0, 84, 0
1, 531130, Note_on_c, 0, 48, 56
1, 531273, Control_c, 0, 64, 29
1, 531274, Note_on_c, 0, 75, 80
1, 531275, Note_on_c, 0, 48, 0
1, 531302, Note_on_c, 0, 45, 53
1, 531402, Note_on_c, 0, 75, 0
1, 531403, Note_on_c, 0, 78, 78
1, 531409, Note_on_c, 0, 42, 61
1, 531423, Note_on_c, 0, 45, 0
1, 531475, Note_on_c, 0, 78, 0
1, 531524, Note_on_c, 0, 42, 0
1, 531549, Note_on_c, 0, 83, 87
1, 531571, Note_on_c, 0, 43, 56
1, 531633, Note_on_c, 0, 83, 0
1, 531659, Control_c, 0, 64, 25
1, 531670, Note_on_c, 0, 43, 0
1, 531699, Note_on_c, 0, 47, 56
1, 531767, Note_on_c, 0, 47, 0
1, 531820, Note_on_c, 0, 43, 62
1, 531847, Note_on_c, 0, 76, 77
1, 531914, Note_on_c, 0, 43, 0
1, 531965, Note_on_c, 0, 76, 0
1, 531970, Note_on_c, 0, 79, 75
1, 531971, Note_on_c, 0, 40, 46
1, 532050, Note_on_c, 0, 79, 0
1, 532088, Note_on_c, 0, 40, 0
1, 532121, Note_on_c, 0, 78, 89
1, 532125, Note_on_c, 0, 47, 66
1, 532160, Note_on_c, 0, 47, 0
1, 532245, Note_on_c, 0, 78, 0
1, 532257, Note_on_c, 0, 76, 75
1, 532328, Note_on_c, 0, 76, 0
1, 532388, Note_on_c, 0, 75, 82
1, 532389, Note_on_c, 0, 49, 63
1, 532425, Note_on_c, 0, 49, 0
1, 532511, Note_on_c, 0, 75, 0
1, 532528, Note_on_c, 0, 73, 71
1, 532599, Note_on_c, 0, 73, 0
1, 532662, Note_on_c, 0, 51, 62
1, 532668, Note_on_c, 0, 71, 66
1, 532708, Note_on_c, 0, 71, 0
1, 532795, Note_on_c, 0, 51, 0
1, 532800, Note_on_c, 0, 54, 63
1, 532853, Control_c, 0, 64, 21
1, 532888, Note_on_c, 0, 54, 0
1, 532957, Note_on_c, 0, 59, 64
1, 532971, Note_on_c, 0, 81, 90
1, 533094, Note_on_c, 0, 81, 0
1, 533096, Note_on_c, 0, 59, 0
1, 533096, Note_on_c, 0, 51, 63
1, 533104, Note_on_c, 0, 78, 80
1, 533165, Note_on_c, 0, 78, 0
1, 533184, Note_on_c, 0, 51, 0
1, 533231, Note_on_c, 0, 52, 77
1, 533248, Note_on_c, 0, 71, 81
1, 533273, Control_c, 0, 64, 17
1, 533312, Note_on_c, 0, 71, 0
1, 533371, Note_on_c, 0, 56, 79
1, 533387, Note_on_c, 0, 52, 0
1, 533469, Note_on_c, 0, 56, 0
1, 533507, Note_on_c, 0, 59, 68
1, 533516, Note_on_c, 0, 80, 88
1, 533644, Note_on_c, 0, 50, 61
1, 533653, Note_on_c, 0, 76, 77
1, 533655, Note_on_c, 0, 59, 0
1, 533674, Note_on_c, 0, 80, 0
1, 533696, Note_on_c, 0, 50, 0
1, 533696, Control_c, 0, 67, 8
1, 533726, Note_on_c, 0, 76, 0
1, 533795, Note_on_c, 0, 49, 65
1, 533814, Note_on_c, 0, 70, 72
1, 533887, Note_on_c, 0, 70, 0
1, 533901, Note_on_c, 0, 49, 0
1, 533941, Note_on_c, 0, 52, 60
1, 533948, Control_c, 0, 67, 13
1, 533987, Control_c, 0, 67, 18
1, 534048, Note_on_c, 0, 52, 0
1, 534061, Control_c, 0, 67, 22
1, 534102, Note_on_c, 0, 58, 56
1, 534110, Note_on_c, 0, 79, 78
1, 534225, Note_on_c, 0, 79, 0
1, 534240, Note_on_c, 0, 49, 55
1, 534244, Note_on_c, 0, 58, 0
1, 534244, Note_on_c, 0, 76, 72
1, 534294, Note_on_c, 0, 76, 0
1, 534300, Control_c, 0, 67, 26
1, 534322, Note_on_c, 0, 49, 0
1, 534386, Note_on_c, 0, 69, 68
1, 534398, Note_on_c, 0, 51, 49
1, 534409, Control_c, 0, 67, 30
1, 534431, Note_on_c, 0, 69, 0
1, 534471, Note_on_c, 0, 51, 0
1, 534498, Note_on_c, 0, 54, 64
1, 534642, Note_on_c, 0, 54, 0
1, 534647, Note_on_c, 0, 57, 64
1, 534659, Note_on_c, 0, 78, 85
1, 534725, Note_on_c, 0, 57, 0
1, 534806, Note_on_c, 0, 75, 76
1, 534813, Note_on_c, 0, 60, 55
1, 534833, Note_on_c, 0, 78, 0
1, 534883, Note_on_c, 0, 75, 0
1, 534927, Note_on_c, 0, 60, 0
1, 534939, Note_on_c, 0, 59, 57
1, 534949, Note_on_c, 0, 68, 75
1, 535027, Note_on_c, 0, 68, 0
1, 535049, Note_on_c, 0, 59, 0
1, 535070, Note_on_c, 0, 52, 67
1, 535143, Control_c, 0, 67, 24
1, 535163, Control_c, 0, 67, 18
1, 535180, Control_c, 0, 67, 10
1, 535216, Note_on_c, 0, 52, 0
1, 535216, Note_on_c, 0, 56, 77
1, 535232, Note_on_c, 0, 77, 87
1, 535256, Control_c, 0, 67, 0
1, 535331, Note_on_c, 0, 56, 0
1, 535352, Note_on_c, 0, 75, 87
1, 535354, Note_on_c, 0, 59, 76
1, 535366, Note_on_c, 0, 77, 0
1, 535427, Note_on_c, 0, 59, 0
1, 535438, Note_on_c, 0, 75, 0
1, 535479, Note_on_c, 0, 76, 88
1, 535487, Note_on_c, 0, 60, 86
1, 535494, Poly_aftertouch_c, 0, 75, 0
1, 535523, Note_on_c, 0, 76, 0
1, 535590, Note_on_c, 0, 60, 0
1, 535618, Note_on_c, 0, 64, 81
1, 535704, Note_on_c, 0, 64, 0
1, 535774, Note_on_c, 0, 60, 78
1, 535784, Note_on_c, 0, 78, 88
1, 535849, Note_on_c, 0, 78, 0
1, 535898, Note_on_c, 0, 60, 0
1, 535913, Note_on_c, 0, 57, 68
1, 535978, Note_on_c, 0, 57, 0
1, 536060, Note_on_c, 0, 59, 76
1, 536062, Note_on_c, 0, 71, 78
1, 536100, Note_on_c, 0, 59, 0
1, 536113, Note_on_c, 0, 71, 0
1, 536116, Control_c, 0, 64, 13
1, 536348, Note_on_c, 0, 47, 63
1, 536353, Note_on_c, 0, 75, 77
1, 536393, Note_on_c, 0, 47, 0
1, 536425, Note_on_c, 0, 75, 0
1, 536613, Control_c, 0, 67, 8
1, 536657, Note_on_c, 0, 76, 77
1, 536658, Note_on_c, 0, 52, 63
1, 536782, Note_on_c, 0, 52, 0
1, 536806, Note_on_c, 0, 47, 60
1, 536909, Note_on_c, 0, 47, 0
1, 536944, Note_on_c, 0, 43, 60
1, 537040, Note_on_c, 0, 43, 0
1, 537081, Note_on_c, 0, 47, 51
1, 537218, Note_on_c, 0, 47, 0
1, 537258, Note_on_c, 0, 40, 56
1, 537273, Note_on_c, 0, 76, 0
1, 537535, Note_on_c, 0, 40, 0
1, 537561, Note_on_c, 0, 79, 84
1, 537714, Note_on_c, 0, 76, 84
1, 537736, Note_on_c, 0, 79, 0
1, 537764, Note_on_c, 0, 76, 0
1, 537767, Control_c, 0, 64, 0
1, 537901, Note_on_c, 0, 71, 90
1, 537950, Control_c, 0, 64, 21
1, 537969, Control_c, 0, 64, 63
1, 537988, Control_c, 0, 64, 78
1, 538006, Control_c, 0, 64, 84
1, 538041, Note_on_c, 0, 64, 60
1, 538063, Control_c, 0, 64, 87
1, 538150, Note_on_c, 0, 64, 0
1, 538160, Note_on_c, 0, 71, 0
1, 538163, Note_on_c, 0, 59, 62
1, 538265, Control_c, 0, 64, 91
1, 538287, Note_on_c, 0, 59, 0
1, 538297, Note_on_c, 0, 55, 60
1, 538310, Note_on_c, 0, 72, 79
1, 538317, Control_c, 0, 64, 95
1, 538392, Control_c, 0, 64, 79
1, 538401, Note_on_c, 0, 72, 0
1, 538410, Control_c, 0, 64, 57
1, 538429, Control_c, 0, 64, 38
1, 538438, Note_on_c, 0, 55, 0
1, 538455, Note_on_c, 0, 52, 61
1, 538466, Note_on_c, 0, 74, 67
1, 538466, Control_c, 0, 64, 43
1, 538485, Control_c, 0, 64, 58
1, 538492, Note_on_c, 0, 52, 0
1, 538500, Note_on_c, 0, 74, 0
1, 538504, Control_c, 0, 64, 68
1, 538523, Control_c, 0, 64, 75
1, 538530, Note_on_c, 0, 72, 68
1, 538555, Control_c, 0, 64, 81
1, 538564, Note_on_c, 0, 72, 0
1, 538573, Control_c, 0, 64, 86
1, 538579, Note_on_c, 0, 74, 78
1, 538592, Control_c, 0, 64, 91
1, 538599, Note_on_c, 0, 55, 59
1, 538611, Note_on_c, 0, 74, 0
1, 538627, Control_c, 0, 64, 95
1, 538641, Note_on_c, 0, 72, 70
1, 538666, Note_on_c, 0, 55, 0
1, 538670, Note_on_c, 0, 74, 75
1, 538677, Note_on_c, 0, 72, 0
1, 538683, Control_c, 0, 64, 99
1, 538711, Note_on_c, 0, 74, 0
1, 538734, Note_on_c, 0, 48, 46
1, 538738, Control_c, 0, 64, 104
1, 538740, Note_on_c, 0, 72, 68
1, 538770, Note_on_c, 0, 72, 0
1, 538776, Control_c, 0, 64, 111
1, 538779, Note_on_c, 0, 74, 87
1, 538792, Note_on_c, 0, 48, 0
1, 538793, Control_c, 0, 64, 115
1, 538797, Note_on_c, 0, 52, 62
1, 538813, Control_c, 0, 64, 119
1, 538830, Control_c, 0, 64, 123
1, 538832, Note_on_c, 0, 72, 79
1, 538833, Note_on_c, 0, 74, 0
1, 538850, Control_c, 0, 64, 127
1, 538864, Note_on_c, 0, 52, 0
1, 538885, Note_on_c, 0, 72, 0
1, 538887, Note_on_c, 0, 71, 75
1, 538923, Note_on_c, 0, 71, 0
1, 538939, Note_on_c, 0, 72, 78
1, 538980, Control_c, 0, 64, 111
1, 538997, Control_c, 0, 64, 62
1, 538997, Note_on_c, 0, 47, 52
1, 539011, Note_on_c, 0, 74, 87
1, 539013, Control_c, 0, 64, 0
1, 539034, Note_on_c, 0, 72, 0
1, 539112, Note_on_c, 0, 47, 0
1, 539140, Note_on_c, 0, 59, 59
1, 539172, Note_on_c, 0, 74, 0
1, 539252, Note_on_c, 0, 59, 0
1, 539276, Note_on_c, 0, 55, 55
1, 539287, Note_on_c, 0, 71, 84
1, 539368, Note_on_c, 0, 71, 0
1, 539413, Note_on_c, 0, 74, 81
1, 539424, Note_on_c, 0, 55, 0
1, 539436, Note_on_c, 0, 50, 55
1, 539460, Note_on_c, 0, 74, 0
1, 539562, Note_on_c, 0, 50, 0
1, 539574, Note_on_c, 0, 47, 57
1, 539585, Note_on_c, 0, 79, 75
1, 539640, Note_on_c, 0, 47, 0
1, 539641, Note_on_c, 0, 79, 0
1, 539713, Note_on_c, 0, 50, 54
1, 539806, Note_on_c, 0, 50, 0
1, 539862, Note_on_c, 0, 83, 80
1, 539866, Note_on_c, 0, 43, 57
1, 539992, Note_on_c, 0, 79, 75
1, 539993, Note_on_c, 0, 83, 0
1, 539995, Note_on_c, 0, 47, 67
1, 539998, Note_on_c, 0, 43, 0
1, 540049, Note_on_c, 0, 79, 0
1, 540064, Note_on_c, 0, 47, 0
1, 540129, Note_on_c, 0, 48, 77
1, 540138, Note_on_c, 0, 76, 76
1, 540190, Note_on_c, 0, 76, 0
1, 540227, Note_on_c, 0, 48, 0
1, 540255, Note_on_c, 0, 52, 77
1, 540371, Note_on_c, 0, 52, 0
1, 540397, Note_on_c, 0, 53, 80
1, 540403, Note_on_c, 0, 69, 81
1, 540516, Note_on_c, 0, 69, 0
1, 540548, Note_on_c, 0, 72, 66
1, 540589, Note_on_c, 0, 72, 0
1, 540648, Note_on_c, 0, 53, 0
1, 540682, Note_on_c, 0, 47, 61
1, 540690, Note_on_c, 0, 74, 80
1, 540734, Note_on_c, 0, 74, 0
1, 540808, Note_on_c, 0, 47, 0
1, 540828, Note_on_c, 0, 50, 60
1, 540950, Note_on_c, 0, 50, 0
1, 540981, Note_on_c, 0, 52, 54
1, 540989, Note_on_c, 0, 68, 69
1, 541089, Note_on_c, 0, 68, 0
1, 541095, Note_on_c, 0, 52, 0
1, 541117, Note_on_c, 0, 71, 61
1, 541170, Note_on_c, 0, 71, 0
1, 541255, Note_on_c, 0, 72, 65
1, 541265, Note_on_c, 0, 45, 49
1, 541297, Note_on_c, 0, 72, 0
1, 541397, Note_on_c, 0, 45, 0
1, 541407, Note_on_c, 0, 48, 55
1, 541549, Note_on_c, 0, 48, 0
1, 541558, Note_on_c, 0, 52, 57
1, 541560, Note_on_c, 0, 71, 80
1, 541634, Note_on_c, 0, 52, 0
1, 541678, Note_on_c, 0, 55, 53
1, 541688, Note_on_c, 0, 72, 73
1, 541693, Note_on_c, 0, 71, 0
1, 541725, Note_on_c, 0, 72, 0
1, 541748, Control_c, 0, 67, 12
1, 541805, Control_c, 0, 67, 18
1, 541813, Note_on_c, 0, 55, 0
1, 541840, Control_c, 0, 67, 24
1, 541843, Note_on_c, 0, 54, 56
1, 541850, Note_on_c, 0, 69, 55
1, 541876, Note_on_c, 0, 69, 0
1, 541894, Control_c, 0, 67, 30
1, 541933, Control_c, 0, 67, 35
1, 541939, Note_on_c, 0, 54, 0
1, 541987, Note_on_c, 0, 57, 54
1, 541989, Control_c, 0, 67, 40
1, 542025, Control_c, 0, 67, 46
1, 542042, Note_on_c, 0, 57, 0
1, 542061, Control_c, 0, 67, 52
1, 542115, Note_on_c, 0, 54, 53
1, 542115, Control_c, 0, 67, 58
1, 542128, Note_on_c, 0, 74, 69
1, 542188, Note_on_c, 0, 74, 0
1, 542246, Note_on_c, 0, 54, 0
1, 542260, Note_on_c, 0, 50, 52
1, 542266, Note_on_c, 0, 69, 58
1, 542319, Note_on_c, 0, 69, 0
1, 542336, Note_on_c, 0, 50, 0
1, 542421, Note_on_c, 0, 71, 68
1, 542435, Note_on_c, 0, 55, 54
1, 542454, Note_on_c, 0, 71, 0
1, 542511, Note_on_c, 0, 55, 0
1, 542517, Control_c, 0, 67, 53
1, 542554, Control_c, 0, 67, 49
1, 542561, Note_on_c, 0, 50, 49
1, 542593, Control_c, 0, 67, 44
1, 542628, Control_c, 0, 67, 35
1, 542646, Control_c, 0, 67, 28
1, 542654, Note_on_c, 0, 50, 0
1, 542666, Control_c, 0, 67, 20
1, 542683, Control_c, 0, 67, 9
1, 542683, Note_on_c, 0, 47, 59
1, 542707, Note_on_c, 0, 67, 70
1, 542740, Control_c, 0, 67, 0
1, 542743, Note_on_c, 0, 47, 0
1, 542839, Note_on_c, 0, 71, 72
1, 542842, Note_on_c, 0, 50, 47
1, 542848, Note_on_c, 0, 67, 0
1, 542918, Note_on_c, 0, 71, 0
1, 542926, Note_on_c, 0, 50, 0
1, 542975, Note_on_c, 0, 43, 60
1, 542982, Note_on_c, 0, 76, 70
1, 543010, Note_on_c, 0, 76, 0
1, 543092, Note_on_c, 0, 43, 0
1, 543101, Note_on_c, 0, 47, 61
1, 543183, Note_on_c, 0, 47, 0
1, 543271, Note_on_c, 0, 79, 86
1, 543274, Note_on_c, 0, 52, 53
1, 543339, Poly_aftertouch_c, 0, 77, 0
1, 543349, Note_on_c, 0, 52, 0
1, 543403, Note_on_c, 0, 55, 53
1, 543404, Note_on_c, 0, 71, 70
1, 543439, Note_on_c, 0, 79, 0
1, 543443, Note_on_c, 0, 71, 0
1, 543490, Note_on_c, 0, 55, 0
1, 543553, Note_on_c, 0, 72, 81
1, 543554, Note_on_c, 0, 57, 56
1, 543604, Note_on_c, 0, 72, 0
1, 543628, Note_on_c, 0, 57, 0
1, 543666, Note_on_c, 0, 52, 66
1, 543774, Note_on_c, 0, 52, 0
1, 543823, Note_on_c, 0, 48, 57
1, 543834, Note_on_c, 0, 69, 86
1, 543897, Note_on_c, 0, 48, 0
1, 543946, Note_on_c, 0, 52, 55
1, 543956, Note_on_c, 0, 69, 0
1, 543960, Note_on_c, 0, 72, 80
1, 544006, Note_on_c, 0, 72, 0
1, 544014, Note_on_c, 0, 52, 0
1, 544098, Note_on_c, 0, 45, 71
1, 544108, Note_on_c, 0, 78, 80
1, 544174, Note_on_c, 0, 78, 0
1, 544236, Note_on_c, 0, 45, 0
1, 544237, Note_on_c, 0, 48, 70
1, 544367, Note_on_c, 0, 48, 0
1, 544377, Note_on_c, 0, 54, 68
1, 544389, Note_on_c, 0, 81, 93
1, 544457, Note_on_c, 0, 54, 0
1, 544497, Note_on_c, 0, 57, 66
1, 544511, Note_on_c, 0, 72, 83
1, 544543, Note_on_c, 0, 81, 0
1, 544583, Note_on_c, 0, 72, 0
1, 544585, Note_on_c, 0, 57, 0
1, 544658, Note_on_c, 0, 74, 85
1, 544662, Note_on_c, 0, 59, 72
1, 544701, Note_on_c, 0, 74, 0
1, 544791, Note_on_c, 0, 55, 69
1, 544793, Note_on_c, 0, 59, 0
1, 544921, Note_on_c, 0, 55, 0
1, 544935, Note_on_c, 0, 50, 64
1, 544935, Note_on_c, 0, 71, 87
1, 545009, Note_on_c, 0, 50, 0
1, 545067, Note_on_c, 0, 55, 65
1, 545072, Note_on_c, 0, 74, 85
1, 545106, Note_on_c, 0, 71, 0
1, 545161, Note_on_c, 0, 55, 0
1, 545168, Note_on_c, 0, 74, 0
1, 545224, Note_on_c, 0, 47, 75
1, 545235, Note_on_c, 0, 79, 87
1, 545299, Note_on_c, 0, 79, 0
1, 545346, Note_on_c, 0, 50, 71
1, 545350, Note_on_c, 0, 47, 0
1, 545505, Note_on_c, 0, 55, 75
1, 545509, Note_on_c, 0, 83, 96
1, 545520, Note_on_c, 0, 50, 0
1, 545593, Note_on_c, 0, 55, 0
1, 545632, Note_on_c, 0, 79, 91
1, 545639, Note_on_c, 0, 59, 62
1, 545652, Note_on_c, 0, 83, 0
1, 545752, Note_on_c, 0, 59, 0
1, 545777, Note_on_c, 0, 81, 92
1, 545783, Note_on_c, 0, 62, 66
1, 545800, Note_on_c, 0, 79, 0
1, 545901, Note_on_c, 0, 62, 0
1, 545902, Note_on_c, 0, 79, 91
1, 545918, Note_on_c, 0, 64, 68
1, 545945, Note_on_c, 0, 81, 0
1, 546009, Note_on_c, 0, 64, 0
1, 546051, Note_on_c, 0, 78, 86
1, 546055, Note_on_c, 0, 62, 73
1, 546068, Note_on_c, 0, 79, 0
1, 546133, Note_on_c, 0, 62, 0
1, 546167, Note_on_c, 0, 78, 0
1, 546173, Note_on_c, 0, 76, 76
1, 546200, Note_on_c, 0, 60, 56
1, 546270, Note_on_c, 0, 60, 0
1, 546303, Note_on_c, 0, 76, 0
1, 546307, Note_on_c, 0, 74, 72
1, 546334, Note_on_c, 0, 59, 58
1, 546359, Note_on_c, 0, 74, 0
1, 546404, Note_on_c, 0, 59, 0
1, 546441, Note_on_c, 0, 62, 62
1, 546547, Note_on_c, 0, 62, 0
1, 546587, Note_on_c, 0, 79, 86
1, 546598, Note_on_c, 0, 59, 53
1, 546706, Note_on_c, 0, 59, 0
1, 546720, Note_on_c, 0, 55, 53
1, 546720, Note_on_c, 0, 74, 81
1, 546739, Note_on_c, 0, 79, 0
1, 546755, Note_on_c, 0, 55, 0
1, 546783, Note_on_c, 0, 74, 0
1, 546855, Note_on_c, 0, 76, 85
1, 546871, Note_on_c, 0, 48, 62
1, 546903, Note_on_c, 0, 76, 0
1, 547001, Note_on_c, 0, 48, 0
1, 547007, Note_on_c, 0, 52, 61
1, 547119, Note_on_c, 0, 52, 0
1, 547146, Note_on_c, 0, 69, 82
1, 547168, Note_on_c, 0, 54, 51
1, 547218, Note_on_c, 0, 69, 0
1, 547232, Note_on_c, 0, 54, 0
1, 547276, Note_on_c, 0, 57, 58
1, 547283, Note_on_c, 0, 72, 77
1, 547324, Note_on_c, 0, 57, 0
1, 547351, Note_on_c, 0, 72, 0
1, 547422, Note_on_c, 0, 74, 75
1, 547427, Note_on_c, 0, 47, 58
1, 547462, Note_on_c, 0, 74, 0
1, 547541, Note_on_c, 0, 47, 0
1, 547558, Note_on_c, 0, 50, 55
1, 547658, Note_on_c, 0, 50, 0
1, 547706, Note_on_c, 0, 64, 68
1, 547709, Note_on_c, 0, 55, 57
1, 547761, Note_on_c, 0, 64, 0
1, 547761, Note_on_c, 0, 55, 0
1, 547822, Note_on_c, 0, 67, 63
1, 547891, Note_on_c, 0, 67, 0
1, 547981, Note_on_c, 0, 45, 57
1, 547988, Note_on_c, 0, 72, 71
1, 548033, Note_on_c, 0, 72, 0
1, 548101, Note_on_c, 0, 45, 0
1, 548109, Note_on_c, 0, 48, 54
1, 548210, Note_on_c, 0, 48, 0
1, 548274, Note_on_c, 0, 66, 60
1, 548279, Note_on_c, 0, 50, 46
1, 548338, Note_on_c, 0, 50, 0
1, 548358, Note_on_c, 0, 66, 0
1, 548401, Note_on_c, 0, 69, 54
1, 548416, Note_on_c, 0, 54, 51
1, 548455, Note_on_c, 0, 69, 0
1, 548510, Note_on_c, 0, 54, 0
1, 548552, Note_on_c, 0, 55, 56
1, 548553, Note_on_c, 0, 71, 66
1, 548590, Note_on_c, 0, 71, 0
1, 548618, Note_on_c, 0, 55, 0
1, 548675, Note_on_c, 0, 50, 56
1, 548778, Note_on_c, 0, 50, 0
1, 548817, Note_on_c, 0, 47, 62
1, 548829, Note_on_c, 0, 67, 87
1, 548916, Note_on_c, 0, 67, 0
1, 548954, Note_on_c, 0, 47, 0
1, 548956, Note_on_c, 0, 50, 57
1, 548975, Note_on_c, 0, 71, 86
1, 549029, Note_on_c, 0, 71, 0
1, 549039, Note_on_c, 0, 50, 0
1, 549110, Note_on_c, 0, 55, 67
1, 549113, Note_on_c, 0, 74, 94
1, 549187, Note_on_c, 0, 74, 0
1, 549200, Note_on_c, 0, 55, 0
1, 549235, Note_on_c, 0, 50, 59
1, 549238, Note_on_c, 0, 71, 78
1, 549323, Note_on_c, 0, 71, 0
1, 549330, Note_on_c, 0, 50, 0
1, 549353, Note_on_c, 0, 47, 66
1, 549365, Note_on_c, 0, 79, 84
1, 549414, Note_on_c, 0, 79, 0
1, 549481, Note_on_c, 0, 47, 0
1, 549484, Note_on_c, 0, 43, 65
1, 549512, Note_on_c, 0, 72, 81
1, 549536, Note_on_c, 0, 72, 0
1, 549569, Note_on_c, 0, 71, 66
1, 549595, Note_on_c, 0, 71, 0
1, 549605, Note_on_c, 0, 72, 81
1, 549612, Note_on_c, 0, 43, 0
1, 549652, Note_on_c, 0, 50, 80
1, 549660, Note_on_c, 0, 72, 0
1, 549662, Note_on_c, 0, 71, 84
1, 549919, Note_on_c, 0, 71, 0
1, 549949, Note_on_c, 0, 69, 78
1, 549955, Note_on_c, 0, 38, 72
1, 549956, Note_on_c, 0, 50, 0
1, 549996, Note_on_c, 0, 38, 0
1, 550076, Note_on_c, 0, 69, 0
1, 550084, Note_on_c, 0, 67, 76
1, 550113, Control_c, 0, 67, 8
1, 550149, Note_on_c, 0, 67, 0
1, 550244, Note_on_c, 0, 43, 74
1, 550245, Note_on_c, 0, 67, 77
1, 550372, Control_c, 0, 64, 13
1, 550390, Control_c, 0, 64, 19
1, 550407, Control_c, 0, 64, 25
1, 550408, Control_c, 0, 67, 12
1, 550426, Control_c, 0, 64, 32
1, 550444, Control_c, 0, 64, 39
1, 550464, Control_c, 0, 64, 44
1, 550481, Control_c, 0, 64, 47
1, 550552, Note_on_c, 0, 47, 67
1, 550627, Control_c, 0, 64, 44
1, 550646, Control_c, 0, 64, 41
1, 550664, Note_on_c, 0, 47, 0
1, 550683, Control_c, 0, 64, 34
1, 550698, Note_on_c, 0, 50, 70
1, 550718, Control_c, 0, 64, 28
1, 550736, Control_c, 0, 64, 12
1, 550755, Note_on_c, 0, 50, 0
1, 550755, Control_c, 0, 64, 0
1, 550873, Note_on_c, 0, 55, 80
1, 550912, Note_on_c, 0, 67, 0
1, 550918, Control_c, 0, 64, 35
1, 550938, Control_c, 0, 64, 63
1, 550957, Control_c, 0, 64, 71
1, 550976, Control_c, 0, 64, 76
1, 550994, Control_c, 0, 64, 81
1, 551013, Control_c, 0, 64, 89
1, 551030, Control_c, 0, 64, 100
1, 551049, Control_c, 0, 64, 108
1, 551087, Control_c, 0, 64, 112
1, 551187, Note_on_c, 0, 55, 0
1, 551196, Control_c, 0, 64, 117
1, 551231, Note_on_c, 0, 81, 96
1, 551288, Control_c, 0, 64, 105
1, 551292, Note_on_c, 0, 43, 0
1, 551307, Control_c, 0, 64, 63
1, 551326, Control_c, 0, 64, 0
1, 551385, Note_on_c, 0, 78, 85
1, 551401, Note_on_c, 0, 81, 0
1, 551429, Note_on_c, 0, 78, 0
1, 551528, Control_c, 0, 67, 8
1, 551561, Note_on_c, 0, 74, 91
1, 551691, Control_c, 0, 64, 33
1, 551709, Control_c, 0, 64, 61
1, 551723, Note_on_c, 0, 62, 67
1, 551729, Control_c, 0, 64, 71
1, 551731, Control_c, 0, 67, 12
1, 551745, Control_c, 0, 64, 77
1, 551764, Control_c, 0, 64, 82
1, 551783, Control_c, 0, 64, 87
1, 551801, Control_c, 0, 64, 93
1, 551847, Note_on_c, 0, 62, 0
1, 551850, Note_on_c, 0, 57, 68
1, 551946, Note_on_c, 0, 74, 0
1, 551959, Note_on_c, 0, 57, 0
1, 551976, Note_on_c, 0, 54, 68
1, 551984, Control_c, 0, 64, 97
1, 552009, Note_on_c, 0, 76, 76
1, 552021, Control_c, 0, 64, 102
1, 552057, Control_c, 0, 64, 107
1, 552075, Note_on_c, 0, 76, 0
1, 552082, Note_on_c, 0, 78, 71
1, 552096, Control_c, 0, 64, 98
1, 552114, Control_c, 0, 64, 79
1, 552115, Note_on_c, 0, 50, 80
1, 552116, Note_on_c, 0, 54, 0
1, 552131, Control_c, 0, 64, 57
1, 552131, Note_on_c, 0, 79, 72
1, 552134, Note_on_c, 0, 78, 0
1, 552151, Control_c, 0, 64, 49
1, 552166, Note_on_c, 0, 79, 0
1, 552170, Control_c, 0, 64, 53
1, 552190, Control_c, 0, 64, 62
1, 552200, Note_on_c, 0, 78, 76
1, 552208, Note_on_c, 0, 50, 0
1, 552208, Control_c, 0, 64, 72
1, 552224, Control_c, 0, 64, 80
1, 552242, Control_c, 0, 64, 87
1, 552246, Note_on_c, 0, 78, 0
1, 552251, Note_on_c, 0, 57, 70
1, 552255, Note_on_c, 0, 79, 73
1, 552260, Control_c, 0, 64, 91
1, 552284, Note_on_c, 0, 79, 0
1, 552316, Note_on_c, 0, 78, 70
1, 552353, Note_on_c, 0, 79, 80
1, 552357, Note_on_c, 0, 57, 0
1, 552358, Note_on_c, 0, 78, 0
1, 552369, Note_on_c, 0, 54, 64
1, 552371, Control_c, 0, 64, 95
1, 552380, Note_on_c, 0, 79, 0
1, 552417, Note_on_c, 0, 78, 72
1, 552426, Control_c, 0, 64, 100
1, 552443, Note_on_c, 0, 79, 80
1, 552458, Note_on_c, 0, 78, 0
1, 552472, Note_on_c, 0, 54, 0
1, 552481, Control_c, 0, 64, 104
1, 552490, Note_on_c, 0, 50, 65
1, 552499, Note_on_c, 0, 78, 76
1, 552500, Note_on_c, 0, 79, 0
1, 552554, Note_on_c, 0, 76, 71
1, 552554, Control_c, 0, 64, 108
1, 552555, Note_on_c, 0, 78, 0
1, 552591, Note_on_c, 0, 50, 0
1, 552626, Control_c, 0, 64, 98
1, 552631, Note_on_c, 0, 78, 82
1, 552644, Control_c, 0, 64, 65
1, 552646, Note_on_c, 0, 76, 0
1, 552663, Control_c, 0, 64, 0
1, 552693, Note_on_c, 0, 47, 66
1, 552695, Note_on_c, 0, 79, 91
1, 552718, Control_c, 0, 67, 8
1, 552736, Note_on_c, 0, 78, 0
1, 552821, Note_on_c, 0, 59, 67
1, 552836, Note_on_c, 0, 47, 0
1, 552848, Control_c, 0, 64, 49
1, 552865, Control_c, 0, 64, 65
1, 552885, Control_c, 0, 64, 69
1, 552960, Note_on_c, 0, 55, 68
1, 552964, Note_on_c, 0, 59, 0
1, 553095, Note_on_c, 0, 50, 69
1, 553096, Note_on_c, 0, 55, 0
1, 553105, Control_c, 0, 64, 68
1, 553124, Control_c, 0, 64, 67
1, 553141, Control_c, 0, 64, 66
1, 553197, Control_c, 0, 64, 65
1, 553214, Control_c, 0, 64, 63
1, 553232, Control_c, 0, 64, 61
1, 553246, Note_on_c, 0, 47, 70
1, 553250, Control_c, 0, 64, 59
1, 553260, Note_on_c, 0, 50, 0
1, 553288, Control_c, 0, 64, 57
1, 553318, Note_on_c, 0, 47, 0
1, 553362, Control_c, 0, 64, 55
1, 553382, Note_on_c, 0, 50, 71
1, 553395, Note_on_c, 0, 79, 0
1, 553454, Control_c, 0, 64, 53
1, 553526, Note_on_c, 0, 47, 71
1, 553528, Note_on_c, 0, 50, 0
1, 553542, Note_on_c, 0, 74, 92
1, 553599, Control_c, 0, 64, 51
1, 553645, Note_on_c, 0, 43, 73
1, 553649, Note_on_c, 0, 74, 0
1, 553665, Note_on_c, 0, 47, 0
1, 553667, Note_on_c, 0, 79, 86
1, 553688, Control_c, 0, 64, 49
1, 553734, Note_on_c, 0, 79, 0
1, 553745, Control_c, 0, 64, 44
1, 553761, Note_on_c, 0, 43, 0
1, 553763, Control_c, 0, 64, 42
1, 553799, Control_c, 0, 64, 40
1, 553805, Note_on_c, 0, 45, 87
1, 553819, Note_on_c, 0, 84, 93
1, 553833, Poly_aftertouch_c, 0, 43, 0
1, 553903, Note_on_c, 0, 84, 0
1, 553930, Note_on_c, 0, 45, 0
1, 553947, Note_on_c, 0, 48, 77
1, 554087, Note_on_c, 0, 48, 0
1, 554096, Note_on_c, 0, 45, 72
1, 554101, Note_on_c, 0, 75, 90
1, 554231, Note_on_c, 0, 42, 71
1, 554233, Note_on_c, 0, 78, 80
1, 554239, Note_on_c, 0, 75, 0
1, 554241, Note_on_c, 0, 45, 0
1, 554318, Note_on_c, 0, 78, 0
1, 554337, Note_on_c, 0, 42, 0
1, 554378, Note_on_c, 0, 83, 86
1, 554381, Note_on_c, 0, 43, 73
1, 554465, Note_on_c, 0, 83, 0
1, 554507, Note_on_c, 0, 43, 0
1, 554530, Note_on_c, 0, 47, 68
1, 554659, Note_on_c, 0, 47, 0
1, 554671, Note_on_c, 0, 43, 70
1, 554691, Note_on_c, 0, 76, 81
1, 554781, Note_on_c, 0, 43, 0
1, 554785, Note_on_c, 0, 40, 74
1, 554816, Note_on_c, 0, 79, 78
1, 554829, Note_on_c, 0, 76, 0
1, 554921, Note_on_c, 0, 79, 0
1, 554937, Note_on_c, 0, 40, 0
1, 554945, Note_on_c, 0, 47, 80
1, 554952, Note_on_c, 0, 78, 89
1, 554995, Note_on_c, 0, 47, 0
1, 555083, Note_on_c, 0, 78, 0
1, 555095, Note_on_c, 0, 76, 76
1, 555185, Note_on_c, 0, 76, 0
1, 555228, Note_on_c, 0, 49, 75
1, 555233, Note_on_c, 0, 75, 78
1, 555261, Note_on_c, 0, 49, 0
1, 555363, Note_on_c, 0, 75, 0
1, 555378, Note_on_c, 0, 73, 63
1, 555453, Note_on_c, 0, 73, 0
1, 555521, Note_on_c, 0, 51, 67
1, 555532, Note_on_c, 0, 71, 63
1, 555566, Note_on_c, 0, 71, 0
1, 555597, Control_c, 0, 67, 12
1, 555635, Control_c, 0, 67, 17
1, 555655, Control_c, 0, 67, 22
1, 555672, Note_on_c, 0, 51, 0
1, 555672, Control_c, 0, 67, 30
1, 555678, Note_on_c, 0, 54, 55
1, 555691, Control_c, 0, 67, 37
1, 555707, Control_c, 0, 67, 42
1, 555745, Control_c, 0, 67, 48
1, 555761, Note_on_c, 0, 54, 0
1, 555763, Control_c, 0, 67, 52
1, 555780, Control_c, 0, 67, 58
1, 555800, Control_c, 0, 67, 66
1, 555809, Note_on_c, 0, 59, 60
1, 555812, Note_on_c, 0, 81, 66
1, 555819, Control_c, 0, 64, 36
1, 555820, Control_c, 0, 67, 73
1, 555837, Control_c, 0, 67, 78
1, 555855, Control_c, 0, 67, 83
1, 555875, Control_c, 0, 67, 88
1, 555892, Control_c, 0, 67, 96
1, 555912, Control_c, 0, 67, 105
1, 555931, Control_c, 0, 67, 114
1, 555935, Note_on_c, 0, 81, 0
1, 555943, Note_on_c, 0, 51, 56
1, 555947, Control_c, 0, 67, 120
1, 555949, Note_on_c, 0, 78, 66
1, 555952, Note_on_c, 0, 59, 0
1, 555985, Control_c, 0, 67, 125
1, 556022, Note_on_c, 0, 78, 0
1, 556040, Note_on_c, 0, 51, 0
1, 556089, Note_on_c, 0, 52, 67
1, 556094, Control_c, 0, 64, 32
1, 556097, Note_on_c, 0, 71, 64
1, 556135, Note_on_c, 0, 71, 0
1, 556152, Control_c, 0, 64, 28
1, 556221, Note_on_c, 0, 56, 73
1, 556222, Note_on_c, 0, 52, 0
1, 556361, Note_on_c, 0, 56, 0
1, 556375, Note_on_c, 0, 59, 66
1, 556396, Note_on_c, 0, 80, 70
1, 556422, Control_c, 0, 64, 23
1, 556515, Note_on_c, 0, 80, 0
1, 556525, Note_on_c, 0, 59, 0
1, 556531, Note_on_c, 0, 50, 44
1, 556545, Note_on_c, 0, 76, 37
1, 556585, Note_on_c, 0, 50, 0
1, 556589, Control_c, 0, 64, 19
1, 556592, Note_on_c, 0, 76, 0
1, 556667, Note_on_c, 0, 49, 50
1, 556678, Note_on_c, 0, 70, 45
1, 556720, Note_on_c, 0, 70, 0
1, 556756, Note_on_c, 0, 49, 0
1, 556807, Note_on_c, 0, 52, 53
1, 556828, Control_c, 0, 64, 15
1, 556943, Note_on_c, 0, 52, 0
1, 556950, Note_on_c, 0, 58, 55
1, 556972, Note_on_c, 0, 79, 47
1, 557067, Note_on_c, 0, 58, 0
1, 557078, Note_on_c, 0, 49, 55
1, 557084, Note_on_c, 0, 79, 0
1, 557095, Note_on_c, 0, 76, 59
1, 557175, Note_on_c, 0, 76, 0
1, 557205, Note_on_c, 0, 49, 0
1, 557221, Note_on_c, 0, 51, 60
1, 557238, Note_on_c, 0, 69, 63
1, 557294, Note_on_c, 0, 69, 0
1, 557361, Note_on_c, 0, 54, 71
1, 557367, Note_on_c, 0, 51, 0
1, 557396, Control_c, 0, 67, 114
1, 557415, Control_c, 0, 67, 102
1, 557431, Control_c, 0, 67, 87
1, 557450, Control_c, 0, 67, 73
1, 557469, Control_c, 0, 67, 60
1, 557488, Control_c, 0, 67, 47
1, 557506, Control_c, 0, 67, 34
1, 557519, Note_on_c, 0, 54, 0
1, 557520, Note_on_c, 0, 57, 73
1, 557521, Note_on_c, 0, 78, 84
1, 557525, Control_c, 0, 67, 21
1, 557543, Control_c, 0, 67, 9
1, 557629, Note_on_c, 0, 57, 0
1, 557634, Control_c, 0, 67, 0
1, 557648, Note_on_c, 0, 75, 77
1, 557652, Note_on_c, 0, 60, 74
1, 557662, Note_on_c, 0, 78, 0
1, 557717, Note_on_c, 0, 75, 0
1, 557778, Note_on_c, 0, 59, 80
1, 557792, Note_on_c, 0, 60, 0
1, 557794, Note_on_c, 0, 68, 75
1, 557886, Note_on_c, 0, 68, 0
1, 557910, Note_on_c, 0, 59, 0
1, 557917, Note_on_c, 0, 52, 73
1, 558063, Note_on_c, 0, 77, 84
1, 558064, Note_on_c, 0, 52, 0
1, 558064, Note_on_c, 0, 56, 80
1, 558163, Note_on_c, 0, 56, 0
1, 558186, Note_on_c, 0, 75, 80
1, 558211, Note_on_c, 0, 59, 76
1, 558217, Note_on_c, 0, 77, 0
1, 558266, Note_on_c, 0, 75, 0
1, 558301, Note_on_c, 0, 59, 0
1, 558340, Note_on_c, 0, 76, 82
1, 558347, Note_on_c, 0, 60, 81
1, 558390, Note_on_c, 0, 76, 0
1, 558457, Note_on_c, 0, 60, 0
1, 558477, Note_on_c, 0, 64, 73
1, 558573, Note_on_c, 0, 64, 0
1, 558624, Note_on_c, 0, 60, 63
1, 558634, Note_on_c, 0, 78, 72
1, 558672, Note_on_c, 0, 78, 0
1, 558723, Note_on_c, 0, 60, 0
1, 558745, Note_on_c, 0, 57, 53
1, 558856, Note_on_c, 0, 57, 0
1, 558912, Note_on_c, 0, 59, 62
1, 558914, Note_on_c, 0, 71, 60
1, 558959, Note_on_c, 0, 71, 0
1, 558966, Note_on_c, 0, 59, 0
1, 559212, Note_on_c, 0, 47, 59
1, 559216, Note_on_c, 0, 75, 58
1, 559256, Note_on_c, 0, 47, 0
1, 559286, Control_c, 0, 67, 8
1, 559289, Note_on_c, 0, 75, 0
1, 559497, Note_on_c, 0, 52, 60
1, 559513, Note_on_c, 0, 76, 64
1, 559612, Note_on_c, 0, 52, 0
1, 559637, Note_on_c, 0, 47, 58
1, 559756, Note_on_c, 0, 47, 0
1, 559782, Note_on_c, 0, 43, 49
1, 559915, Note_on_c, 0, 43, 0
1, 559917, Note_on_c, 0, 47, 41
1, 559967, Control_c, 0, 67, 0
1, 560089, Note_on_c, 0, 47, 0
1, 560131, Note_on_c, 0, 40, 49
1, 560197, Note_on_c, 0, 76, 0
1, 560409, Note_on_c, 0, 40, 0
1, 560433, Note_on_c, 0, 79, 80
1, 560576, Note_on_c, 0, 79, 0
1, 560578, Note_on_c, 0, 76, 73
1, 560620, Note_on_c, 0, 76, 0
1, 560722, Note_on_c, 0, 71, 76
1, 560863, Note_on_c, 0, 64, 66
1, 560997, Note_on_c, 0, 64, 0
1, 561017, Note_on_c, 0, 59, 65
1, 561080, Note_on_c, 0, 71, 0
1, 561129, Note_on_c, 0, 72, 72
1, 561147, Note_on_c, 0, 59, 0
1, 561149, Note_on_c, 0, 55, 60
1, 561219, Note_on_c, 0, 72, 0
1, 561274, Note_on_c, 0, 55, 0
1, 561280, Note_on_c, 0, 52, 67
1, 561290, Note_on_c, 0, 74, 62
1, 561315, Note_on_c, 0, 74, 0
1, 561331, Note_on_c, 0, 52, 0
1, 561342, Note_on_c, 0, 72, 72
1, 561375, Note_on_c, 0, 72, 0
1, 561389, Note_on_c, 0, 74, 75
1, 561418, Note_on_c, 0, 55, 54
1, 561419, Note_on_c, 0, 74, 0
1, 561452, Note_on_c, 0, 72, 67
1, 561477, Note_on_c, 0, 72, 0
1, 561482, Note_on_c, 0, 74, 79
1, 561494, Note_on_c, 0, 55, 0
1, 561519, Note_on_c, 0, 74, 0
1, 561543, Note_on_c, 0, 48, 51
1, 561551, Note_on_c, 0, 72, 67
1, 561570, Note_on_c, 0, 74, 81
1, 561580, Note_on_c, 0, 72, 0
1, 561628, Note_on_c, 0, 74, 0
1, 561643, Note_on_c, 0, 52, 63
1, 561644, Note_on_c, 0, 48, 0
1, 561652, Note_on_c, 0, 72, 63
1, 561688, Note_on_c, 0, 72, 0
1, 561691, Note_on_c, 0, 71, 78
1, 561693, Note_on_c, 0, 52, 0
1, 561739, Note_on_c, 0, 71, 0
1, 561763, Note_on_c, 0, 72, 78
1, 561818, Note_on_c, 0, 74, 74
1, 561821, Note_on_c, 0, 47, 48
1, 561828, Note_on_c, 0, 72, 0
1, 561916, Note_on_c, 0, 74, 0
1, 561919, Note_on_c, 0, 47, 0
1, 561977, Note_on_c, 0, 59, 52
1, 562087, Note_on_c, 0, 59, 0
1, 562115, Note_on_c, 0, 55, 51
1, 562115, Note_on_c, 0, 71, 71
1, 562226, Note_on_c, 0, 71, 0
1, 562231, Note_on_c, 0, 74, 71
1, 562242, Note_on_c, 0, 55, 0
1, 562259, Note_on_c, 0, 50, 52
1, 562281, Note_on_c, 0, 74, 0
1, 562375, Note_on_c, 0, 79, 69
1, 562376, Note_on_c, 0, 50, 0
1, 562381, Note_on_c, 0, 47, 48
1, 562411, Note_on_c, 0, 79, 0
1, 562443, Note_on_c, 0, 47, 0
1, 562526, Note_on_c, 0, 50, 44
1, 562586, Note_on_c, 0, 50, 0
1, 562659, Note_on_c, 0, 43, 47
1, 562661, Note_on_c, 0, 83, 70
1, 562752, Note_on_c, 0, 43, 0
1, 562775, Note_on_c, 0, 83, 0
1, 562789, Note_on_c, 0, 47, 61
1, 562793, Note_on_c, 0, 79, 65
1, 562855, Note_on_c, 0, 47, 0
1, 562936, Note_on_c, 0, 48, 74
1, 562950, Note_on_c, 0, 76, 71
1, 562992, Note_on_c, 0, 79, 0
1, 563010, Note_on_c, 0, 76, 0
1, 563049, Note_on_c, 0, 48, 0
1, 563063, Note_on_c, 0, 52, 81
1, 563195, Note_on_c, 0, 52, 0
1, 563206, Note_on_c, 0, 53, 81
1, 563219, Note_on_c, 0, 69, 72
1, 563270, Note_on_c, 0, 69, 0
1, 563350, Note_on_c, 0, 72, 54
1, 563392, Note_on_c, 0, 72, 0
1, 563474, Note_on_c, 0, 53, 0
1, 563478, Note_on_c, 0, 74, 66
1, 563487, Note_on_c, 0, 47, 68
1, 563524, Note_on_c, 0, 74, 0
1, 563568, Note_on_c, 0, 47, 0
1, 563629, Note_on_c, 0, 50, 72
1, 563675, Note_on_c, 0, 50, 0
1, 563769, Note_on_c, 0, 52, 67
1, 563774, Note_on_c, 0, 68, 65
1, 563884, Note_on_c, 0, 68, 0
1, 563930, Note_on_c, 0, 71, 51
1, 564012, Note_on_c, 0, 71, 0
1, 564013, Note_on_c, 0, 52, 0
1, 564085, Note_on_c, 0, 45, 54
1, 564088, Note_on_c, 0, 72, 49
1, 564133, Note_on_c, 0, 72, 0
1, 564207, Note_on_c, 0, 45, 0
1, 564212, Note_on_c, 0, 48, 61
1, 564339, Note_on_c, 0, 48, 0
1, 564353, Note_on_c, 0, 52, 75
1, 564376, Note_on_c, 0, 71, 65
1, 564434, Note_on_c, 0, 52, 0
1, 564467, Note_on_c, 0, 55, 72
1, 564495, Note_on_c, 0, 71, 0
1, 564495, Note_on_c, 0, 72, 66
1, 564530, Note_on_c, 0, 72, 0
1, 564573, Note_on_c, 0, 55, 0
1, 564626, Note_on_c, 0, 54, 65
1, 564648, Note_on_c, 0, 69, 63
1, 564694, Note_on_c, 0, 54, 0
1, 564694, Note_on_c, 0, 69, 0
1, 564798, Note_on_c, 0, 57, 47
1, 564854, Note_on_c, 0, 57, 0
1, 564915, Note_on_c, 0, 54, 44
1, 564927, Note_on_c, 0, 74, 55
1, 564984, Note_on_c, 0, 74, 0
1, 565036, Note_on_c, 0, 54, 0
1, 565051, Note_on_c, 0, 50, 46
1, 565074, Note_on_c, 0, 69, 43
1, 565107, Note_on_c, 0, 50, 0
1, 565119, Note_on_c, 0, 69, 0
1, 565119, Control_c, 0, 64, 11
1, 565198, Note_on_c, 0, 55, 51
1, 565218, Note_on_c, 0, 71, 48
1, 565253, Note_on_c, 0, 71, 0
1, 565297, Note_on_c, 0, 55, 0
1, 565337, Note_on_c, 0, 50, 54
1, 565452, Note_on_c, 0, 50, 0
1, 565484, Note_on_c, 0, 47, 38
1, 565487, Note_on_c, 0, 67, 63
1, 565552, Note_on_c, 0, 47, 0
1, 565611, Note_on_c, 0, 67, 0
1, 565625, Note_on_c, 0, 71, 61
1, 565627, Note_on_c, 0, 50, 42
1, 565672, Note_on_c, 0, 71, 0
1, 565745, Note_on_c, 0, 50, 0
1, 565775, Note_on_c, 0, 43, 50
1, 565779, Note_on_c, 0, 76, 49
1, 565817, Note_on_c, 0, 76, 0
1, 565879, Note_on_c, 0, 47, 70
1, 565885, Note_on_c, 0, 43, 0
1, 566000, Note_on_c, 0, 47, 0
1, 566025, Note_on_c, 0, 52, 82
1, 566057, Note_on_c, 0, 79, 74
1, 566116, Note_on_c, 0, 52, 0
1, 566155, Note_on_c, 0, 55, 80
1, 566167, Note_on_c, 0, 71, 77
1, 566193, Note_on_c, 0, 79, 0
1, 566230, Note_on_c, 0, 55, 0
1, 566237, Note_on_c, 0, 71, 0
1, 566305, Note_on_c, 0, 57, 74
1, 566305, Note_on_c, 0, 72, 70
1, 566345, Note_on_c, 0, 72, 0
1, 566383, Note_on_c, 0, 57, 0
1, 566447, Note_on_c, 0, 52, 52
1, 566551, Note_on_c, 0, 52, 0
1, 566584, Note_on_c, 0, 48, 49
1, 566598, Note_on_c, 0, 69, 58
1, 566664, Note_on_c, 0, 48, 0
1, 566726, Note_on_c, 0, 69, 0
1, 566728, Note_on_c, 0, 52, 49
1, 566742, Note_on_c, 0, 72, 58
1, 566799, Note_on_c, 0, 52, 0
1, 566813, Note_on_c, 0, 72, 0
1, 566881, Note_on_c, 0, 45, 59
1, 566882, Note_on_c, 0, 78, 68
1, 566914, Note_on_c, 0, 78, 0
1, 567007, Note_on_c, 0, 45, 0
1, 567010, Note_on_c, 0, 48, 72
1, 567153, Note_on_c, 0, 54, 82
1, 567161, Note_on_c, 0, 81, 82
1, 567168, Note_on_c, 0, 48, 0
1, 567252, Note_on_c, 0, 54, 0
1, 567271, Note_on_c, 0, 57, 81
1, 567283, Note_on_c, 0, 72, 80
1, 567289, Note_on_c, 0, 81, 0
1, 567359, Note_on_c, 0, 72, 0
1, 567359, Note_on_c, 0, 57, 0
1, 567433, Note_on_c, 0, 74, 81
1, 567434, Note_on_c, 0, 59, 82
1, 567476, Note_on_c, 0, 74, 0
1, 567544, Note_on_c, 0, 59, 0
1, 567572, Note_on_c, 0, 55, 69
1, 567687, Note_on_c, 0, 55, 0
1, 567717, Note_on_c, 0, 50, 62
1, 567727, Note_on_c, 0, 71, 78
1, 567782, Note_on_c, 0, 50, 0
1, 567798, Note_on_c, 0, 71, 0
1, 567849, Note_on_c, 0, 55, 66
1, 567853, Note_on_c, 0, 74, 75
1, 567890, Note_on_c, 0, 74, 0
1, 567898, Note_on_c, 0, 55, 0
1, 567992, Note_on_c, 0, 47, 73
1, 567997, Note_on_c, 0, 79, 69
1, 568049, Note_on_c, 0, 79, 0
1, 568117, Note_on_c, 0, 50, 80
1, 568128, Note_on_c, 0, 47, 0
1, 568260, Note_on_c, 0, 83, 90
1, 568260, Note_on_c, 0, 55, 86
1, 568281, Note_on_c, 0, 50, 0
1, 568349, Note_on_c, 0, 55, 0
1, 568385, Note_on_c, 0, 79, 89
1, 568387, Note_on_c, 0, 59, 80
1, 568405, Note_on_c, 0, 83, 0
1, 568462, Note_on_c, 0, 59, 0
1, 568472, Note_on_c, 0, 79, 0
1, 568539, Note_on_c, 0, 62, 80
1, 568548, Note_on_c, 0, 81, 91
1, 568658, Note_on_c, 0, 62, 0
1, 568667, Note_on_c, 0, 64, 75
1, 568670, Note_on_c, 0, 79, 88
1, 568702, Note_on_c, 0, 81, 0
1, 568746, Note_on_c, 0, 64, 0
1, 568802, Note_on_c, 0, 62, 73
1, 568814, Note_on_c, 0, 78, 85
1, 568819, Note_on_c, 0, 79, 0
1, 568887, Note_on_c, 0, 62, 0
1, 568918, Note_on_c, 0, 78, 0
1, 568938, Note_on_c, 0, 76, 74
1, 568951, Note_on_c, 0, 60, 59
1, 569037, Note_on_c, 0, 60, 0
1, 569070, Note_on_c, 0, 76, 0
1, 569072, Note_on_c, 0, 74, 64
1, 569096, Note_on_c, 0, 59, 57
1, 569170, Note_on_c, 0, 74, 0
1, 569192, Note_on_c, 0, 59, 0
1, 569216, Note_on_c, 0, 62, 59
1, 569333, Note_on_c, 0, 62, 0
1, 569360, Note_on_c, 0, 79, 87
1, 569363, Note_on_c, 0, 59, 56
1, 569486, Note_on_c, 0, 59, 0
1, 569501, Note_on_c, 0, 55, 56
1, 569503, Note_on_c, 0, 74, 77
1, 569526, Note_on_c, 0, 79, 0
1, 569539, Note_on_c, 0, 55, 0
1, 569555, Note_on_c, 0, 74, 0
1, 569625, Note_on_c, 0, 76, 82
1, 569649, Note_on_c, 0, 48, 57
1, 569678, Note_on_c, 0, 76, 0
1, 569758, Note_on_c, 0, 48, 0
1, 569763, Note_on_c, 0, 52, 68
1, 569870, Note_on_c, 0, 52, 0
1, 569901, Note_on_c, 0, 54, 71
1, 569903, Note_on_c, 0, 69, 86
1, 569978, Note_on_c, 0, 54, 0
1, 569981, Note_on_c, 0, 69, 0
1, 570025, Note_on_c, 0, 57, 63
1, 570030, Note_on_c, 0, 72, 78
1, 570089, Note_on_c, 0, 57, 0
1, 570105, Note_on_c, 0, 72, 0
1, 570177, Note_on_c, 0, 74, 76
1, 570186, Note_on_c, 0, 47, 61
1, 570221, Note_on_c, 0, 74, 0
1, 570283, Note_on_c, 0, 47, 0
1, 570308, Note_on_c, 0, 50, 57
1, 570423, Note_on_c, 0, 50, 0
1, 570462, Note_on_c, 0, 55, 58
1, 570471, Note_on_c, 0, 64, 73
1, 570549, Note_on_c, 0, 55, 0
1, 570592, Note_on_c, 0, 64, 0
1, 570603, Note_on_c, 0, 67, 59
1, 570661, Note_on_c, 0, 67, 0
1, 570738, Note_on_c, 0, 45, 56
1, 570744, Note_on_c, 0, 72, 67
1, 570807, Note_on_c, 0, 72, 0
1, 570861, Note_on_c, 0, 45, 0
1, 570866, Note_on_c, 0, 48, 57
1, 570962, Note_on_c, 0, 48, 0
1, 571016, Note_on_c, 0, 66, 65
1, 571018, Note_on_c, 0, 50, 51
1, 571074, Note_on_c, 0, 66, 0
1, 571089, Note_on_c, 0, 50, 0
1, 571154, Note_on_c, 0, 69, 50
1, 571165, Note_on_c, 0, 54, 46
1, 571202, Note_on_c, 0, 69, 0
1, 571255, Note_on_c, 0, 54, 0
1, 571315, Note_on_c, 0, 71, 65
1, 571327, Note_on_c, 0, 55, 43
1, 571378, Note_on_c, 0, 71, 0
1, 571406, Note_on_c, 0, 55, 0
1, 571430, Note_on_c, 0, 50, 52
1, 571544, Note_on_c, 0, 50, 0
1, 571577, Note_on_c, 0, 47, 55
1, 571597, Note_on_c, 0, 67, 89
1, 571684, Note_on_c, 0, 67, 0
1, 571694, Note_on_c, 0, 47, 0
1, 571703, Note_on_c, 0, 50, 53
1, 571737, Note_on_c, 0, 71, 89
1, 571789, Note_on_c, 0, 71, 0
1, 571797, Note_on_c, 0, 50, 0
1, 571861, Note_on_c, 0, 55, 66
1, 571865, Note_on_c, 0, 74, 93
1, 571948, Note_on_c, 0, 74, 0
1, 571961, Note_on_c, 0, 55, 0
1, 571991, Note_on_c, 0, 50, 59
1, 571993, Note_on_c, 0, 71, 80
1, 572075, Control_c, 0, 64, 19
1, 572088, Note_on_c, 0, 71, 0
1, 572092, Note_on_c, 0, 50, 0
1, 572094, Control_c, 0, 64, 27
1, 572113, Control_c, 0, 64, 34
1, 572114, Note_on_c, 0, 47, 50
1, 572124, Note_on_c, 0, 79, 85
1, 572132, Control_c, 0, 64, 40
1, 572151, Control_c, 0, 64, 45
1, 572168, Control_c, 0, 64, 47
1, 572171, Note_on_c, 0, 79, 0
1, 572204, Note_on_c, 0, 47, 0
1, 572215, Note_on_c, 0, 43, 63
1, 572224, Control_c, 0, 64, 50
1, 572255, Control_c, 0, 64, 53
1, 572284, Note_on_c, 0, 72, 81
1, 572291, Control_c, 0, 64, 55
1, 572310, Note_on_c, 0, 72, 0
1, 572335, Note_on_c, 0, 71, 67
1, 572349, Control_c, 0, 64, 49
1, 572367, Control_c, 0, 64, 25
1, 572372, Note_on_c, 0, 71, 0
1, 572375, Note_on_c, 0, 72, 86
1, 572384, Note_on_c, 0, 43, 0
1, 572385, Control_c, 0, 64, 0
1, 572419, Note_on_c, 0, 50, 76
1, 572430, Note_on_c, 0, 71, 88
1, 572433, Note_on_c, 0, 72, 0
1, 572764, Note_on_c, 0, 71, 0
1, 572771, Note_on_c, 0, 69, 76
1, 572781, Note_on_c, 0, 38, 67
1, 572807, Note_on_c, 0, 50, 0
1, 572882, Control_c, 0, 64, 37
1, 572889, Note_on_c, 0, 38, 0
1, 572899, Control_c, 0, 64, 58
1, 572919, Control_c, 0, 64, 63
1, 572929, Note_on_c, 0, 67, 81
1, 572934, Note_on_c, 0, 69, 0
1, 572938, Control_c, 0, 64, 67
1, 572973, Control_c, 0, 64, 71
1, 572992, Control_c, 0, 64, 75
1, 572998, Note_on_c, 0, 67, 0
1, 573011, Control_c, 0, 64, 79
1, 573030, Control_c, 0, 64, 82
1, 573048, Control_c, 0, 64, 85
1, 573086, Control_c, 0, 64, 87
1, 573120, Note_on_c, 0, 67, 76
1, 573130, Note_on_c, 0, 43, 60
1, 573191, Control_c, 0, 64, 70
1, 573208, Control_c, 0, 64, 14
1, 573229, Control_c, 0, 64, 0
1, 573563, Note_on_c, 0, 47, 67
1, 573780, Note_on_c, 0, 50, 71
1, 573782, Control_c, 0, 67, 8
1, 573843, Note_on_c, 0, 47, 0
1, 573883, Note_on_c, 0, 50, 0
1, 574241, Note_on_c, 0, 55, 63
1, 574460, Control_c, 0, 64, 11
1, 574478, Control_c, 0, 64, 22
1, 574496, Control_c, 0, 64, 31
1, 574513, Control_c, 0, 64, 44
1, 574532, Control_c, 0, 64, 55
1, 574551, Control_c, 0, 64, 59
1, 574569, Control_c, 0, 64, 60
1, 574607, Control_c, 0, 64, 61
1, 574625, Control_c, 0, 64, 63
1, 574644, Control_c, 0, 64, 64
1, 574662, Control_c, 0, 64, 65
1, 574680, Control_c, 0, 64, 67
1, 574699, Control_c, 0, 64, 68
1, 574734, Control_c, 0, 64, 71
1, 574753, Control_c, 0, 64, 73
1, 574791, Control_c, 0, 64, 76
1, 574827, Control_c, 0, 64, 79
1, 574864, Control_c, 0, 64, 81
1, 575302, Control_c, 0, 64, 79
1, 575376, Control_c, 0, 64, 77
1, 575488, Control_c, 0, 64, 75
1, 575490, Poly_aftertouch_c, 0, 55, 24
1, 575541, Poly_aftertouch_c, 0, 46, 0
1, 575577, Control_c, 0, 64, 73
1, 575653, Control_c, 0, 64, 71
1, 575725, Control_c, 0, 64, 69
1, 575727, Note_on_c, 0, 55, 0
1, 575727, Poly_aftertouch_c, 0, 43, 24
1, 575727, Poly_aftertouch_c, 0, 55, 0
1, 575799, Control_c, 0, 64, 68
1, 575818, Poly_aftertouch_c, 0, 67, 24
1, 575855, Control_c, 0, 64, 67
1, 575943, Note_on_c, 0, 43, 0
1, 575943, Poly_aftertouch_c, 0, 43, 0
1, 575946, Note_on_c, 0, 67, 0
1, 575946, Poly_aftertouch_c, 0, 67, 0
1, 575948, Control_c, 0, 64, 66
1, 576072, Control_c, 0, 64, 65
1, 576164, Control_c, 0, 64, 64
1, 576220, Control_c, 0, 64, 63
1, 576292, Control_c, 0, 64, 62
1, 576330, Control_c, 0, 64, 61
1, 576422, Control_c, 0, 64, 60
1, 576532, Control_c, 0, 64, 58
1, 576735, Control_c, 0, 64, 56
1, 579039, Note_on_c, 0, 74, 61
1, 579229, Control_c, 0, 64, 54
1, 579265, Control_c, 0, 64, 51
1, 579302, Control_c, 0, 64, 48
1, 579339, Control_c, 0, 64, 43
1, 579357, Control_c, 0, 64, 39
1, 579377, Control_c, 0, 64, 34
1, 579394, Control_c, 0, 64, 25
1, 579412, Control_c, 0, 64, 10
1, 579421, Note_on_c, 0, 71, 42
1, 579429, Control_c, 0, 64, 0
1, 579491, Note_on_c, 0, 74, 0
1, 579636, Control_c, 0, 64, 13
1, 579652, Control_c, 0, 64, 30
1, 579670, Control_c, 0, 64, 41
1, 579689, Control_c, 0, 64, 58
1, 579708, Control_c, 0, 64, 70
1, 579739, Control_c, 0, 64, 75
1, 579758, Control_c, 0, 64, 79
1, 579768, Note_on_c, 0, 71, 0
1, 579775, Control_c, 0, 64, 83
1, 579796, Control_c, 0, 64, 88
1, 579833, Control_c, 0, 64, 94
1, 580096, Note_on_c, 0, 69, 66
1, 580145, Control_c, 0, 64, 80
1, 580165, Control_c, 0, 64, 58
1, 580200, Control_c, 0, 64, 0
1, 580460, Note_on_c, 0, 69, 0
1, 580463, Note_on_c, 0, 67, 36
1, 580694, Control_c, 0, 64, 23
1, 580713, Control_c, 0, 64, 36
1, 580731, Control_c, 0, 64, 56
1, 580752, Control_c, 0, 64, 69
1, 580768, Control_c, 0, 64, 73
1, 580788, Control_c, 0, 64, 76
1, 580826, Control_c, 0, 64, 79
1, 580841, Control_c, 0, 64, 82
1, 580862, Control_c, 0, 64, 84
1, 580898, Control_c, 0, 64, 86
1, 581204, Note_on_c, 0, 62, 57
1, 581209, Control_c, 0, 64, 83
1, 581230, Control_c, 0, 64, 75
1, 581248, Control_c, 0, 64, 59
1, 581266, Control_c, 0, 64, 31
1, 581286, Control_c, 0, 64, 0
1, 581551, Note_on_c, 0, 59, 47
1, 581589, Note_on_c, 0, 62, 0
1, 581742, Control_c, 0, 64, 24
1, 581761, Control_c, 0, 64, 37
1, 581777, Control_c, 0, 64, 57
1, 581796, Control_c, 0, 64, 72
1, 581815, Control_c, 0, 64, 79
1, 581834, Control_c, 0, 64, 86
1, 581850, Control_c, 0, 64, 91
1, 581874, Note_on_c, 0, 59, 0
1, 581889, Control_c, 0, 64, 98
1, 581945, Control_c, 0, 64, 102
1, 582307, Note_on_c, 0, 57, 61
1, 582367, Control_c, 0, 64, 94
1, 582386, Control_c, 0, 64, 76
1, 582404, Control_c, 0, 64, 43
1, 582423, Control_c, 0, 64, 0
1, 582424, Control_c, 0, 67, 12
1, 582711, Note_on_c, 0, 55, 44
1, 582712, Note_on_c, 0, 57, 0
1, 582881, Control_c, 0, 64, 26
1, 582898, Control_c, 0, 64, 46
1, 582917, Control_c, 0, 64, 67
1, 582933, Control_c, 0, 64, 77
1, 582953, Control_c, 0, 64, 86
1, 582971, Control_c, 0, 64, 91
1, 582990, Control_c, 0, 64, 96
1, 583006, Control_c, 0, 64, 101
1, 583026, Control_c, 0, 64, 105
1, 583063, Control_c, 0, 64, 111
1, 583142, Note_on_c, 0, 55, 0
1, 583157, Control_c, 0, 64, 115
1, 583247, Control_c, 0, 67, 8
1, 583436, Note_on_c, 0, 69, 65
1, 583459, Note_on_c, 0, 54, 43
1, 583501, Control_c, 0, 64, 101
1, 583519, Control_c, 0, 64, 59
1, 583538, Control_c, 0, 64, 0
1, 583546, Note_on_c, 0, 67, 0
1, 583613, Control_c, 0, 64, 20
1, 583632, Control_c, 0, 64, 49
1, 583648, Control_c, 0, 64, 71
1, 583667, Control_c, 0, 64, 79
1, 583686, Control_c, 0, 64, 83
1, 583722, Control_c, 0, 64, 85
1, 583779, Note_on_c, 0, 54, 0
1, 583785, Note_on_c, 0, 71, 66
1, 583797, Note_on_c, 0, 55, 44
1, 583812, Note_on_c, 0, 69, 0
1, 583834, Control_c, 0, 64, 78
1, 583853, Control_c, 0, 64, 67
1, 583869, Control_c, 0, 64, 50
1, 583887, Control_c, 0, 64, 32
1, 583907, Control_c, 0, 64, 22
1, 583957, Note_on_c, 0, 59, 55
1, 583982, Note_on_c, 0, 55, 0
1, 584055, Control_c, 0, 64, 18
1, 584073, Control_c, 0, 67, 12
1, 584107, Note_on_c, 0, 62, 54
1, 584127, Control_c, 0, 64, 13
1, 584146, Control_c, 0, 67, 19
1, 584164, Control_c, 0, 64, 8
1, 584166, Control_c, 0, 67, 24
1, 584182, Control_c, 0, 67, 30
1, 584201, Control_c, 0, 67, 37
1, 584219, Control_c, 0, 67, 43
1, 584238, Control_c, 0, 64, 0
1, 584239, Control_c, 0, 67, 48
1, 584255, Control_c, 0, 67, 55
1, 584256, Note_on_c, 0, 67, 51
1, 584263, Note_on_c, 0, 59, 0
1, 584275, Control_c, 0, 67, 64
1, 584294, Control_c, 0, 67, 74
1, 584307, Note_on_c, 0, 62, 0
1, 584312, Control_c, 0, 67, 83
1, 584330, Control_c, 0, 67, 89
1, 584349, Control_c, 0, 67, 94
1, 584366, Control_c, 0, 67, 101
1, 584386, Control_c, 0, 67, 110
1, 584418, Control_c, 0, 67, 117
1, 584437, Control_c, 0, 67, 122
1, 584493, Control_c, 0, 67, 126
1, 584581, Note_on_c, 0, 67, 0
1, 584593, Note_on_c, 0, 69, 50
1, 584624, Note_on_c, 0, 66, 34
1, 584688, Note_on_c, 0, 71, 0
1, 585173, Control_c, 0, 64, 12
1, 585192, Control_c, 0, 64, 25
1, 585211, Control_c, 0, 64, 36
1, 585229, Control_c, 0, 64, 50
1, 585249, Control_c, 0, 64, 60
1, 585265, Control_c, 0, 64, 64
1, 585285, Control_c, 0, 64, 65
1, 585302, Control_c, 0, 64, 66
1, 585322, Control_c, 0, 64, 68
1, 585373, Control_c, 0, 64, 71
1, 585832, Control_c, 0, 64, 69
1, 585870, Control_c, 0, 64, 68
1, 585886, Note_on_c, 0, 45, 57
1, 585907, Control_c, 0, 64, 66
1, 585926, Control_c, 0, 64, 63
1, 585945, Control_c, 0, 64, 56
1, 585963, Control_c, 0, 64, 44
1, 585980, Control_c, 0, 64, 26
1, 585999, Control_c, 0, 64, 0
1, 586256, Note_on_c, 0, 42, 46
1, 586270, Note_on_c, 0, 45, 0
1, 586475, Control_c, 0, 64, 21
1, 586492, Control_c, 0, 64, 30
1, 586512, Control_c, 0, 64, 41
1, 586529, Control_c, 0, 64, 57
1, 586547, Control_c, 0, 64, 67
1, 586566, Control_c, 0, 64, 72
1, 586585, Control_c, 0, 64, 76
1, 586603, Control_c, 0, 64, 78
1, 586621, Control_c, 0, 64, 82
1, 586641, Control_c, 0, 64, 87
1, 586659, Control_c, 0, 64, 91
1, 586672, Note_on_c, 0, 42, 0
1, 587001, Note_on_c, 0, 40, 60
1, 587065, Control_c, 0, 64, 78
1, 587082, Control_c, 0, 64, 61
1, 587101, Control_c, 0, 64, 34
1, 587119, Control_c, 0, 64, 0
1, 587407, Note_on_c, 0, 40, 0
1, 587434, Note_on_c, 0, 38, 42
1, 587630, Control_c, 0, 64, 22
1, 587649, Control_c, 0, 64, 38
1, 587669, Control_c, 0, 64, 57
1, 587685, Control_c, 0, 64, 72
1, 587703, Control_c, 0, 64, 77
1, 587724, Control_c, 0, 64, 82
1, 587741, Control_c, 0, 64, 87
1, 587759, Control_c, 0, 64, 92
1, 587787, Note_on_c, 0, 69, 0
1, 587798, Control_c, 0, 64, 98
1, 587858, Note_on_c, 0, 66, 0
1, 587870, Control_c, 0, 64, 102
1, 587962, Control_c, 0, 64, 106
1, 588225, Note_on_c, 0, 71, 68
1, 588257, Note_on_c, 0, 50, 46
1, 588270, Note_on_c, 0, 67, 47
1, 588285, Note_on_c, 0, 38, 0
1, 588309, Control_c, 0, 64, 101
1, 588327, Control_c, 0, 64, 83
1, 588345, Control_c, 0, 64, 47
1, 588364, Control_c, 0, 64, 0
1, 588537, Poly_aftertouch_c, 0, 67, 24
1, 588584, Note_on_c, 0, 67, 0
1, 588584, Poly_aftertouch_c, 0, 67, 0
1, 588606, Note_on_c, 0, 72, 50
1, 588617, Note_on_c, 0, 69, 49
1, 588619, Note_on_c, 0, 50, 0
1, 588636, Note_on_c, 0, 71, 0
1, 588638, Note_on_c, 0, 48, 31
1, 588953, Control_c, 0, 64, 19
1, 588972, Control_c, 0, 64, 38
1, 588990, Control_c, 0, 64, 58
1, 589008, Control_c, 0, 64, 71
1, 589026, Control_c, 0, 64, 77
1, 589045, Control_c, 0, 64, 82
1, 589064, Control_c, 0, 64, 87
1, 589114, Control_c, 0, 64, 93
1, 589190, Control_c, 0, 64, 97
1, 589440, Poly_aftertouch_c, 0, 48, 22
1, 589528, Note_on_c, 0, 48, 0
1, 589528, Poly_aftertouch_c, 0, 48, 0
1, 589547, Note_on_c, 0, 74, 62
1, 589594, Control_c, 0, 64, 88
1, 589601, Note_on_c, 0, 47, 33
1, 589603, Note_on_c, 0, 72, 0
1, 589611, Control_c, 0, 64, 71
1, 589632, Control_c, 0, 64, 43
1, 589649, Control_c, 0, 64, 0
1, 589760, Control_c, 0, 64, 28
1, 589778, Control_c, 0, 64, 51
1, 589796, Control_c, 0, 64, 71
1, 589814, Control_c, 0, 64, 79
1, 589834, Control_c, 0, 64, 86
1, 589835, Control_c, 0, 67, 122
1, 589852, Control_c, 0, 64, 90
1, 589870, Control_c, 0, 67, 112
1, 589890, Control_c, 0, 67, 103
1, 589908, Control_c, 0, 64, 94
1, 589908, Control_c, 0, 67, 90
1, 589927, Control_c, 0, 67, 75
1, 589943, Control_c, 0, 67, 57
1, 589963, Control_c, 0, 67, 38
1, 589981, Control_c, 0, 67, 19
1, 590182, Control_c, 0, 64, 89
1, 590216, Control_c, 0, 64, 87
1, 590308, Control_c, 0, 64, 85
1, 590338, Note_on_c, 0, 67, 46
1, 590345, Note_on_c, 0, 69, 0
1, 590355, Note_on_c, 0, 52, 39
1, 590362, Control_c, 0, 64, 81
1, 590381, Control_c, 0, 64, 73
1, 590391, Note_on_c, 0, 47, 0
1, 590400, Control_c, 0, 64, 55
1, 590419, Control_c, 0, 64, 22
1, 590438, Control_c, 0, 64, 0
1, 590529, Control_c, 0, 64, 12
1, 590550, Control_c, 0, 64, 31
1, 590566, Control_c, 0, 64, 43
1, 590584, Control_c, 0, 64, 57
1, 590604, Control_c, 0, 64, 64
1, 590622, Control_c, 0, 64, 65
1, 590668, Note_on_c, 0, 79, 65
1, 590673, Note_on_c, 0, 74, 0
1, 590714, Control_c, 0, 64, 63
1, 590732, Control_c, 0, 64, 60
1, 590750, Control_c, 0, 64, 56
1, 590770, Control_c, 0, 64, 51
1, 590771, Control_c, 0, 67, 8
1, 590787, Control_c, 0, 64, 47
1, 590825, Control_c, 0, 64, 44
1, 590843, Control_c, 0, 64, 41
1, 590878, Control_c, 0, 64, 37
1, 590935, Control_c, 0, 64, 32
1, 590985, Control_c, 0, 64, 21
1, 590988, Control_c, 0, 67, 12
1, 591022, Control_c, 0, 64, 0
1, 591046, Note_on_c, 0, 76, 54
1, 591089, Note_on_c, 0, 48, 27
1, 591093, Note_on_c, 0, 52, 0
1, 591142, Note_on_c, 0, 79, 0
1, 591244, Control_c, 0, 64, 22
1, 591264, Control_c, 0, 64, 45
1, 591265, Control_c, 0, 67, 17
1, 591280, Control_c, 0, 64, 65
1, 591297, Control_c, 0, 64, 78
1, 591298, Control_c, 0, 67, 22
1, 591317, Control_c, 0, 64, 90
1, 591336, Control_c, 0, 64, 100
1, 591354, Control_c, 0, 64, 106
1, 591356, Control_c, 0, 67, 29
1, 591373, Control_c, 0, 67, 36
1, 591391, Control_c, 0, 64, 112
1, 591392, Control_c, 0, 67, 45
1, 591411, Control_c, 0, 67, 55
1, 591428, Control_c, 0, 64, 117
1, 591429, Control_c, 0, 67, 65
1, 591439, Note_on_c, 0, 48, 0
1, 591444, Note_on_c, 0, 76, 0
1, 591446, Control_c, 0, 67, 74
1, 591464, Control_c, 0, 67, 83
1, 591484, Control_c, 0, 64, 122
1, 591486, Control_c, 0, 67, 92
1, 591502, Control_c, 0, 67, 102
1, 591521, Control_c, 0, 67, 114
1, 591540, Control_c, 0, 67, 123
1, 591594, Control_c, 0, 67, 127
1, 591767, Note_on_c, 0, 74, 63
1, 591806, Note_on_c, 0, 74, 0
1, 591811, Note_on_c, 0, 45, 49
1, 591825, Note_on_c, 0, 72, 61
1, 591850, Note_on_c, 0, 72, 0
1, 591851, Control_c, 0, 64, 113
1, 591870, Control_c, 0, 64, 91
1, 591874, Note_on_c, 0, 74, 74
1, 591889, Control_c, 0, 64, 56
1, 591921, Control_c, 0, 64, 0
1, 591934, Note_on_c, 0, 74, 0
1, 591941, Note_on_c, 0, 72, 77
1, 592029, Note_on_c, 0, 48, 47
1, 592033, Note_on_c, 0, 45, 0
1, 592175, Note_on_c, 0, 48, 0
1, 592198, Note_on_c, 0, 47, 51
1, 592209, Note_on_c, 0, 67, 0
1, 592327, Note_on_c, 0, 47, 0
1, 592331, Note_on_c, 0, 45, 45
1, 592511, Note_on_c, 0, 45, 0
1, 592566, Note_on_c, 0, 66, 36
1, 592567, Note_on_c, 0, 50, 36
1, 592749, Control_c, 0, 64, 36
1, 592769, Control_c, 0, 64, 55
1, 592788, Control_c, 0, 64, 65
1, 592806, Control_c, 0, 64, 69
1, 592824, Control_c, 0, 64, 72
1, 592857, Control_c, 0, 64, 74
1, 592875, Control_c, 0, 64, 77
1, 592894, Control_c, 0, 64, 81
1, 592913, Control_c, 0, 64, 84
1, 592932, Control_c, 0, 64, 87
1, 593045, Note_on_c, 0, 72, 0
1, 593061, Control_c, 0, 64, 84
1, 593077, Control_c, 0, 64, 68
1, 593082, Note_on_c, 0, 71, 62
1, 593096, Control_c, 0, 64, 47
1, 593116, Control_c, 0, 64, 37
1, 593153, Control_c, 0, 64, 47
1, 593171, Control_c, 0, 64, 62
1, 593190, Control_c, 0, 64, 71
1, 593209, Control_c, 0, 64, 77
1, 593226, Control_c, 0, 64, 82
1, 593244, Control_c, 0, 64, 86
1, 593282, Control_c, 0, 64, 90
1, 593375, Note_on_c, 0, 50, 0
1, 593413, Note_on_c, 0, 71, 0
1, 593436, Note_on_c, 0, 72, 56
1, 593440, Note_on_c, 0, 38, 42
1, 593447, Control_c, 0, 64, 81
1, 593464, Control_c, 0, 64, 64
1, 593484, Control_c, 0, 64, 27
1, 593502, Control_c, 0, 64, 0
1, 593568, Note_on_c, 0, 72, 0
1, 593605, Note_on_c, 0, 69, 55
1, 593750, Note_on_c, 0, 69, 0
1, 593781, Note_on_c, 0, 71, 54
1, 593849, Control_c, 0, 64, 40
1, 593868, Control_c, 0, 64, 66
1, 593886, Control_c, 0, 64, 78
1, 593896, Note_on_c, 0, 38, 0
1, 593904, Control_c, 0, 64, 90
1, 593924, Control_c, 0, 64, 99
1, 593940, Control_c, 0, 64, 105
1, 593970, Note_on_c, 0, 66, 0
1, 593976, Control_c, 0, 64, 112
1, 594032, Control_c, 0, 64, 116
1, 594223, Note_on_c, 0, 71, 0
1, 594226, Note_on_c, 0, 72, 56
1, 594230, Note_on_c, 0, 43, 45
1, 594232, Note_on_c, 0, 67, 39
1, 594271, Control_c, 0, 64, 107
1, 594290, Control_c, 0, 64, 86
1, 594309, Control_c, 0, 64, 47
1, 594325, Control_c, 0, 64, 0
1, 594438, Control_c, 0, 64, 27
1, 594450, Note_on_c, 0, 72, 0
1, 594456, Control_c, 0, 64, 45
1, 594467, Note_on_c, 0, 71, 60
1, 594473, Control_c, 0, 64, 61
1, 594492, Control_c, 0, 64, 67
1, 594521, Note_on_c, 0, 71, 0
1, 594550, Note_on_c, 0, 72, 58
1, 594586, Control_c, 0, 64, 65
1, 594605, Control_c, 0, 64, 63
1, 594611, Note_on_c, 0, 72, 0
1, 594622, Control_c, 0, 64, 62
1, 594630, Note_on_c, 0, 71, 59
1, 594640, Control_c, 0, 64, 60
1, 594671, Note_on_c, 0, 71, 0
1, 594678, Control_c, 0, 64, 58
1, 594691, Note_on_c, 0, 72, 57
1, 594727, Control_c, 0, 64, 56
1, 594754, Note_on_c, 0, 72, 0
1, 594780, Note_on_c, 0, 71, 64
1, 594820, Note_on_c, 0, 71, 0
1, 594822, Control_c, 0, 64, 53
1, 594833, Note_on_c, 0, 72, 65
1, 594885, Note_on_c, 0, 72, 0
1, 594901, Note_on_c, 0, 71, 67
1, 594941, Note_on_c, 0, 71, 0
1, 594949, Note_on_c, 0, 72, 60
1, 595004, Note_on_c, 0, 72, 0
1, 595021, Note_on_c, 0, 71, 56
1, 595070, Note_on_c, 0, 71, 0
1, 595073, Note_on_c, 0, 72, 55
1, 595078, Control_c, 0, 64, 51
1, 595104, Note_on_c, 0, 47, 44
1, 595115, Control_c, 0, 64, 48
1, 595120, Note_on_c, 0, 43, 0
1, 595138, Note_on_c, 0, 72, 0
1, 595143, Note_on_c, 0, 71, 47
1, 595171, Control_c, 0, 64, 45
1, 595188, Control_c, 0, 64, 43
1, 595206, Control_c, 0, 64, 41
1, 595392, Control_c, 0, 64, 37
1, 595482, Note_on_c, 0, 69, 54
1, 595509, Note_on_c, 0, 71, 0
1, 595511, Note_on_c, 0, 67, 0
1, 595541, Control_c, 0, 64, 33
1, 595720, Control_c, 0, 64, 28
1, 595757, Control_c, 0, 64, 23
1, 595776, Control_c, 0, 64, 13
1, 595795, Control_c, 0, 64, 0
1, 595862, Note_on_c, 0, 69, 0
1, 595875, Note_on_c, 0, 67, 39
1, 595882, Note_on_c, 0, 50, 31
1, 595925, Note_on_c, 0, 47, 0
1, 596069, Control_c, 0, 64, 28
1, 596088, Control_c, 0, 64, 47
1, 596107, Control_c, 0, 64, 65
1, 596124, Control_c, 0, 64, 74
1, 596143, Control_c, 0, 64, 81
1, 596160, Note_on_c, 0, 67, 0
1, 596161, Control_c, 0, 64, 87
1, 596180, Control_c, 0, 64, 92
1, 596216, Control_c, 0, 64, 99
1, 596254, Control_c, 0, 64, 103
1, 596317, Note_on_c, 0, 50, 0
1, 596665, Note_on_c, 0, 59, 37
1, 596716, Note_on_c, 0, 62, 44
1, 596788, Note_on_c, 0, 67, 51
1, 596799, Note_on_c, 0, 55, 38
1, 596839, Control_c, 0, 64, 89
1, 596858, Control_c, 0, 64, 66
1, 596876, Control_c, 0, 64, 22
1, 596893, Control_c, 0, 64, 0
1, 596912, Poly_aftertouch_c, 0, 59, 24
1, 597043, Control_c, 0, 64, 11
1, 597060, Control_c, 0, 64, 34
1, 597079, Control_c, 0, 64, 52
1, 597097, Control_c, 0, 64, 68
1, 597116, Control_c, 0, 64, 74
1, 597133, Control_c, 0, 64, 78
1, 597151, Control_c, 0, 64, 81
1, 597170, Control_c, 0, 64, 84
1, 597172, Poly_aftertouch_c, 0, 59, 32
1, 597189, Control_c, 0, 64, 88
1, 597227, Control_c, 0, 64, 92
1, 597321, Note_on_c, 0, 59, 0
1, 597321, Poly_aftertouch_c, 0, 59, 0
1, 597322, Poly_aftertouch_c, 0, 59, 0
1, 597502, Note_on_c, 0, 62, 0
1, 597535, Control_c, 0, 64, 96
1, 597558, Note_on_c, 0, 67, 0
1, 598099, Poly_aftertouch_c, 0, 55, 24
1, 598105, Control_c, 0, 64, 91
1, 598142, Control_c, 0, 64, 87
1, 598180, Control_c, 0, 64, 85
1, 598199, Control_c, 0, 64, 83
1, 598215, Control_c, 0, 64, 80
1, 598234, Note_on_c, 0, 71, 54
1, 598236, Control_c, 0, 64, 78
1, 598254, Control_c, 0, 64, 76
1, 598273, Control_c, 0, 64, 74
1, 598288, Control_c, 0, 64, 71
1, 598307, Control_c, 0, 64, 69
1, 598326, Control_c, 0, 64, 65
1, 598346, Control_c, 0, 64, 63
1, 598363, Control_c, 0, 64, 62
1, 598401, Control_c, 0, 64, 61
1, 598424, Poly_aftertouch_c, 0, 55, 22
1, 598470, Control_c, 0, 64, 58
1, 598602, Control_c, 0, 64, 56
1, 598638, Control_c, 0, 64, 51
1, 598656, Control_c, 0, 64, 36
1, 598656, Note_on_c, 0, 74, 42
1, 598665, Note_on_c, 0, 55, 0
1, 598665, Poly_aftertouch_c, 0, 55, 0
1, 598674, Control_c, 0, 64, 0
1, 598675, Note_on_c, 0, 71, 0
1, 598820, Control_c, 0, 64, 22
1, 598840, Control_c, 0, 64, 37
1, 598858, Control_c, 0, 64, 54
1, 598876, Control_c, 0, 64, 68
1, 598895, Control_c, 0, 64, 74
1, 598914, Control_c, 0, 64, 77
1, 598931, Control_c, 0, 64, 79
1, 598949, Control_c, 0, 64, 82
1, 598969, Control_c, 0, 64, 84
1, 598987, Control_c, 0, 64, 87
1, 599008, Note_on_c, 0, 74, 0
1, 599023, Control_c, 0, 64, 92
1, 599042, Control_c, 0, 67, 121
1, 599060, Control_c, 0, 67, 116
1, 599080, Control_c, 0, 67, 111
1, 599097, Control_c, 0, 67, 105
1, 599115, Control_c, 0, 67, 100
1, 599135, Control_c, 0, 67, 94
1, 599151, Control_c, 0, 67, 87
1, 599170, Control_c, 0, 67, 81
1, 599189, Control_c, 0, 67, 74
1, 599208, Control_c, 0, 67, 68
1, 599224, Control_c, 0, 67, 63
1, 599243, Control_c, 0, 67, 59
1, 599262, Control_c, 0, 67, 55
1, 599280, Control_c, 0, 67, 50
1, 599299, Control_c, 0, 67, 44
1, 599318, Control_c, 0, 67, 38
1, 599337, Control_c, 0, 67, 32
1, 599356, Control_c, 0, 67, 27
1, 599374, Control_c, 0, 67, 23
1, 599425, Control_c, 0, 67, 17
1, 599462, Control_c, 0, 67, 12
1, 599479, Note_on_c, 0, 79, 54
1, 599519, Note_on_c, 0, 79, 0
1, 599536, Control_c, 0, 67, 8
1, 599538, Note_on_c, 0, 78, 57
1, 599554, Control_c, 0, 64, 85
1, 599573, Control_c, 0, 64, 77
1, 599591, Control_c, 0, 64, 67
1, 599601, Note_on_c, 0, 78, 0
1, 599608, Control_c, 0, 64, 56
1, 599609, Note_on_c, 0, 79, 59
1, 599627, Control_c, 0, 64, 51
1, 599682, Control_c, 0, 67, 0
1, 599795, Note_on_c, 0, 43, 44
1, 599969, Note_on_c, 0, 45, 57
1, 600035, Note_on_c, 0, 43, 0
1, 600116, Note_on_c, 0, 47, 61
1, 600131, Note_on_c, 0, 45, 0
1, 600143, Control_c, 0, 64, 49
1, 600253, Control_c, 0, 64, 47
1, 600266, Note_on_c, 0, 47, 0
1, 600273, Note_on_c, 0, 48, 63
1, 600380, Control_c, 0, 64, 45
1, 600409, Note_on_c, 0, 48, 0
1, 600438, Note_on_c, 0, 50, 56
1, 600589, Note_on_c, 0, 50, 0
1, 600591, Note_on_c, 0, 52, 56
1, 600608, Note_on_c, 0, 81, 79
1, 600638, Note_on_c, 0, 79, 0
1, 600727, Note_on_c, 0, 52, 0
1, 600729, Control_c, 0, 64, 43
1, 600740, Note_on_c, 0, 54, 50
1, 600858, Control_c, 0, 64, 40
1, 600893, Note_on_c, 0, 54, 0
1, 600914, Note_on_c, 0, 83, 63
1, 600931, Control_c, 0, 64, 36
1, 600932, Note_on_c, 0, 55, 51
1, 600968, Control_c, 0, 64, 27
1, 600972, Note_on_c, 0, 81, 0
1, 600987, Control_c, 0, 64, 12
1, 601006, Control_c, 0, 64, 0
1, 601056, Note_on_c, 0, 55, 0
1, 601080, Note_on_c, 0, 59, 52
1, 601243, Note_on_c, 0, 59, 0
1, 601288, Note_on_c, 0, 57, 50
1, 601430, Note_on_c, 0, 57, 0
1, 601445, Note_on_c, 0, 55, 48
1, 601464, Control_c, 0, 64, 30
1, 601480, Note_on_c, 0, 83, 0
1, 601480, Control_c, 0, 64, 50
1, 601498, Control_c, 0, 64, 68
1, 601518, Control_c, 0, 64, 81
1, 601536, Control_c, 0, 64, 94
1, 601554, Control_c, 0, 64, 103
1, 601557, Note_on_c, 0, 55, 0
1, 601590, Control_c, 0, 64, 109
1, 601814, Note_on_c, 0, 74, 65
1, 601847, Note_on_c, 0, 69, 48
1, 601867, Note_on_c, 0, 64, 46
1, 601883, Note_on_c, 0, 55, 43
1, 601923, Control_c, 0, 64, 105
1, 601943, Control_c, 0, 64, 87
1, 601959, Control_c, 0, 64, 57
1, 601976, Control_c, 0, 64, 0
1, 602403, Note_on_c, 0, 74, 0
1, 602419, Note_on_c, 0, 73, 39
1, 602601, Control_c, 0, 64, 24
1, 602618, Control_c, 0, 64, 48
1, 602637, Control_c, 0, 64, 66
1, 602656, Control_c, 0, 64, 74
1, 602673, Control_c, 0, 64, 79
1, 602692, Control_c, 0, 64, 83
1, 602710, Control_c, 0, 64, 86
1, 602729, Control_c, 0, 64, 88
1, 602743, Poly_aftertouch_c, 0, 55, 24
1, 602783, Note_on_c, 0, 55, 0
1, 602783, Poly_aftertouch_c, 0, 55, 0
1, 602809, Note_on_c, 0, 73, 0
1, 602975, Note_on_c, 0, 59, 46
1, 603117, Note_on_c, 0, 59, 0
1, 603179, Note_on_c, 0, 57, 48
1, 603188, Note_on_c, 0, 76, 68
1, 603240, Control_c, 0, 64, 83
1, 603259, Control_c, 0, 64, 75
1, 603276, Control_c, 0, 64, 69
1, 603296, Note_on_c, 0, 57, 0
1, 603316, Control_c, 0, 64, 71
1, 603330, Note_on_c, 0, 55, 54
1, 603334, Control_c, 0, 64, 74
1, 603353, Control_c, 0, 64, 78
1, 603370, Control_c, 0, 64, 82
1, 603388, Control_c, 0, 64, 85
1, 603407, Control_c, 0, 64, 87
1, 603458, Note_on_c, 0, 55, 0
1, 603459, Control_c, 0, 64, 92
1, 603507, Note_on_c, 0, 54, 53
1, 603526, Note_on_c, 0, 81, 68
1, 603556, Control_c, 0, 64, 72
1, 603573, Control_c, 0, 64, 45
1, 603575, Note_on_c, 0, 76, 0
1, 603592, Control_c, 0, 64, 0
1, 603599, Note_on_c, 0, 54, 0
1, 603666, Control_c, 0, 64, 18
1, 603681, Control_c, 0, 64, 30
1, 603689, Note_on_c, 0, 55, 45
1, 603700, Control_c, 0, 64, 37
1, 603719, Control_c, 0, 64, 41
1, 603738, Control_c, 0, 64, 44
1, 603757, Control_c, 0, 64, 47
1, 603775, Control_c, 0, 64, 49
1, 603793, Control_c, 0, 64, 51
1, 603849, Control_c, 0, 64, 47
1, 603867, Control_c, 0, 64, 20
1, 603871, Note_on_c, 0, 55, 0
1, 603884, Control_c, 0, 64, 0
1, 603893, Note_on_c, 0, 52, 41
1, 603974, Note_on_c, 0, 69, 0
1, 603977, Control_c, 0, 64, 11
1, 603995, Control_c, 0, 64, 38
1, 604015, Control_c, 0, 64, 57
1, 604034, Control_c, 0, 64, 69
1, 604052, Control_c, 0, 64, 71
1, 604122, Control_c, 0, 64, 73
1, 604138, Poly_aftertouch_c, 0, 64, 24
1, 604175, Control_c, 0, 64, 75
1, 604190, Note_on_c, 0, 64, 0
1, 604190, Poly_aftertouch_c, 0, 64, 0
1, 604283, Note_on_c, 0, 75, 55
1, 604312, Note_on_c, 0, 54, 44
1, 604314, Note_on_c, 0, 81, 0
1, 604324, Control_c, 0, 64, 71
1, 604343, Control_c, 0, 64, 53
1, 604360, Control_c, 0, 64, 0
1, 604389, Note_on_c, 0, 52, 0
1, 604468, Note_on_c, 0, 76, 68
1, 604470, Control_c, 0, 64, 31
1, 604472, Note_on_c, 0, 75, 0
1, 604490, Control_c, 0, 64, 46
1, 604509, Control_c, 0, 64, 57
1, 604528, Control_c, 0, 64, 61
1, 604600, Control_c, 0, 64, 58
1, 604629, Note_on_c, 0, 78, 78
1, 604634, Note_on_c, 0, 76, 0
1, 604637, Control_c, 0, 64, 55
1, 604655, Control_c, 0, 64, 53
1, 604673, Control_c, 0, 64, 51
1, 604710, Control_c, 0, 64, 48
1, 604748, Control_c, 0, 64, 46
1, 604784, Control_c, 0, 64, 44
1, 604793, Note_on_c, 0, 79, 78
1, 604834, Note_on_c, 0, 78, 0
1, 604857, Control_c, 0, 64, 41
1, 604967, Note_on_c, 0, 81, 71
1, 604976, Note_on_c, 0, 51, 40
1, 605016, Note_on_c, 0, 79, 0
1, 605057, Control_c, 0, 64, 37
1, 605058, Note_on_c, 0, 54, 0
1, 605150, Note_on_c, 0, 84, 70
1, 605154, Note_on_c, 0, 81, 0
1, 605205, Control_c, 0, 64, 33
1, 605314, Note_on_c, 0, 83, 73
1, 605333, Note_on_c, 0, 84, 0
1, 605478, Note_on_c, 0, 81, 65
1, 605516, Note_on_c, 0, 83, 0
1, 605634, Poly_aftertouch_c, 0, 51, 24
1, 605659, Note_on_c, 0, 81, 0
1, 605669, Note_on_c, 0, 79, 53
1, 605682, Note_on_c, 0, 51, 0
1, 605682, Poly_aftertouch_c, 0, 51, 0
1, 605683, Note_on_c, 0, 47, 36
1, 605869, Note_on_c, 0, 79, 0
1, 605873, Note_on_c, 0, 81, 54
1, 606042, Note_on_c, 0, 81, 0
1, 606050, Note_on_c, 0, 78, 50
1, 606335, Note_on_c, 0, 47, 0
1, 606549, Note_on_c, 0, 79, 44
1, 606659, Note_on_c, 0, 78, 0
1, 606795, Note_on_c, 0, 52, 37
1, 606981, Note_on_c, 0, 52, 0
1, 606995, Note_on_c, 0, 55, 47
1, 607117, Note_on_c, 0, 55, 0
1, 607139, Note_on_c, 0, 54, 53
1, 607268, Note_on_c, 0, 54, 0
1, 607306, Note_on_c, 0, 52, 52
1, 607431, Note_on_c, 0, 52, 0
1, 607448, Note_on_c, 0, 50, 48
1, 607584, Note_on_c, 0, 50, 0
1, 607591, Note_on_c, 0, 76, 71
1, 607625, Note_on_c, 0, 49, 45
1, 607765, Note_on_c, 0, 49, 0
1, 607772, Note_on_c, 0, 50, 37
1, 607945, Note_on_c, 0, 50, 0
1, 607956, Control_c, 0, 64, 29
1, 607969, Note_on_c, 0, 73, 58
1, 607978, Note_on_c, 0, 52, 43
1, 607993, Note_on_c, 0, 76, 0
1, 608012, Control_c, 0, 64, 15
1, 608030, Control_c, 0, 64, 0
1, 608131, Note_on_c, 0, 49, 42
1, 608135, Note_on_c, 0, 52, 0
1, 608262, Note_on_c, 0, 49, 0
1, 608269, Control_c, 0, 64, 23
1, 608280, Note_on_c, 0, 50, 45
1, 608286, Control_c, 0, 64, 32
1, 608307, Control_c, 0, 64, 43
1, 608324, Control_c, 0, 64, 55
1, 608342, Control_c, 0, 64, 61
1, 608361, Control_c, 0, 64, 62
1, 608390, Note_on_c, 0, 50, 0
1, 608418, Control_c, 0, 64, 63
1, 608435, Control_c, 0, 64, 64
1, 608451, Note_on_c, 0, 52, 43
1, 608452, Control_c, 0, 64, 65
1, 608490, Control_c, 0, 64, 66
1, 608545, Control_c, 0, 64, 67
1, 608664, Note_on_c, 0, 73, 0
1, 608677, Note_on_c, 0, 42, 48
1, 608692, Control_c, 0, 64, 66
1, 608692, Note_on_c, 0, 71, 66
1, 608712, Control_c, 0, 64, 57
1, 608720, Note_on_c, 0, 52, 0
1, 608729, Control_c, 0, 64, 39
1, 608762, Control_c, 0, 64, 0
1, 609100, Note_on_c, 0, 69, 53
1, 609103, Note_on_c, 0, 45, 34
1, 609107, Note_on_c, 0, 71, 0
1, 609456, Note_on_c, 0, 47, 40
1, 609458, Note_on_c, 0, 45, 0
1, 609527, Poly_aftertouch_c, 0, 42, 20
1, 609799, Poly_aftertouch_c, 0, 42, 32
1, 609808, Note_on_c, 0, 76, 67
1, 609847, Note_on_c, 0, 49, 37
1, 609878, Note_on_c, 0, 47, 0
1, 610169, Note_on_c, 0, 49, 0
1, 610203, Note_on_c, 0, 78, 53
1, 610212, Note_on_c, 0, 50, 33
1, 610224, Note_on_c, 0, 76, 0
1, 610250, Note_on_c, 0, 79, 0
1, 610416, Control_c, 0, 64, 19
1, 610436, Control_c, 0, 64, 34
1, 610453, Control_c, 0, 64, 52
1, 610471, Control_c, 0, 64, 65
1, 610488, Control_c, 0, 64, 69
1, 610527, Control_c, 0, 64, 72
1, 610561, Note_on_c, 0, 78, 0
1, 610565, Control_c, 0, 64, 75
1, 610572, Note_on_c, 0, 52, 38
1, 610584, Control_c, 0, 64, 77
1, 610597, Note_on_c, 0, 50, 0
1, 610600, Note_on_c, 0, 69, 0
1, 610633, Control_c, 0, 64, 79
1, 610841, Poly_aftertouch_c, 0, 42, 24
1, 610892, Control_c, 0, 64, 77
1, 610929, Control_c, 0, 64, 74
1, 610945, Control_c, 0, 64, 72
1, 610961, Note_on_c, 0, 69, 57
1, 610965, Control_c, 0, 64, 70
1, 610978, Note_on_c, 0, 67, 47
1, 610983, Control_c, 0, 64, 67
1, 610985, Note_on_c, 0, 54, 40
1, 611002, Control_c, 0, 64, 66
1, 611020, Control_c, 0, 64, 64
1, 611027, Note_on_c, 0, 52, 0
1, 611040, Control_c, 0, 64, 62
1, 611059, Control_c, 0, 64, 61
1, 611093, Control_c, 0, 64, 58
1, 611160, Poly_aftertouch_c, 0, 42, 32
1, 611186, Control_c, 0, 64, 55
1, 611202, Note_on_c, 0, 67, 0
1, 611291, Note_on_c, 0, 54, 0
1, 611314, Note_on_c, 0, 42, 0
1, 611314, Poly_aftertouch_c, 0, 42, 0
1, 611315, Poly_aftertouch_c, 0, 42, 0
1, 611328, Note_on_c, 0, 69, 0
1, 611351, Control_c, 0, 67, 8
1, 611370, Control_c, 0, 64, 53
1, 611732, Note_on_c, 0, 71, 58
1, 611734, Control_c, 0, 64, 51
1, 611746, Note_on_c, 0, 66, 46
1, 611766, Note_on_c, 0, 43, 37
1, 611970, Note_on_c, 0, 66, 0
1, 611984, Note_on_c, 0, 43, 0
1, 612010, Note_on_c, 0, 71, 0
1, 612478, Note_on_c, 0, 73, 54
1, 612513, Note_on_c, 0, 45, 42
1, 612524, Note_on_c, 0, 64, 35
1, 612595, Control_c, 0, 64, 49
1, 612724, Note_on_c, 0, 64, 0
1, 612774, Note_on_c, 0, 45, 0
1, 612823, Note_on_c, 0, 73, 0
1, 613348, Note_on_c, 0, 74, 51
1, 613387, Note_on_c, 0, 69, 42
1, 613408, Note_on_c, 0, 66, 35
1, 613444, Note_on_c, 0, 50, 35
1, 613550, Control_c, 0, 64, 57
1, 613571, Control_c, 0, 64, 63
1, 613587, Control_c, 0, 64, 68
1, 613607, Control_c, 0, 64, 71
1, 613625, Control_c, 0, 64, 75
1, 613645, Control_c, 0, 64, 79
1, 613662, Control_c, 0, 64, 83
1, 613680, Control_c, 0, 64, 88
1, 613698, Control_c, 0, 64, 93
1, 613735, Control_c, 0, 64, 98
1, 613790, Control_c, 0, 64, 103
1, 613802, Note_on_c, 0, 50, 0
1, 613883, Control_c, 0, 67, 0
1, 614432, Control_c, 0, 67, 8
1, 614487, Control_c, 0, 64, 99
1, 614524, Control_c, 0, 64, 93
1, 614535, Note_on_c, 0, 45, 53
1, 614563, Control_c, 0, 64, 87
1, 614580, Control_c, 0, 64, 82
1, 614599, Control_c, 0, 64, 77
1, 614615, Control_c, 0, 64, 71
1, 614634, Control_c, 0, 64, 67
1, 614652, Control_c, 0, 64, 65
1, 614688, Control_c, 0, 64, 63
1, 614707, Control_c, 0, 64, 62
1, 614726, Control_c, 0, 64, 60
1, 614764, Control_c, 0, 64, 58
1, 614775, Note_on_c, 0, 45, 0
1, 614815, Poly_aftertouch_c, 0, 72, 0
1, 614908, Control_c, 0, 64, 56
1, 614939, Note_on_c, 0, 42, 45
1, 615058, Control_c, 0, 64, 54
1, 615076, Control_c, 0, 67, 12
1, 615260, Control_c, 0, 67, 16
1, 615349, Control_c, 0, 67, 20
1, 615391, Note_on_c, 0, 42, 0
1, 615402, Control_c, 0, 67, 25
1, 615422, Control_c, 0, 64, 56
1, 615440, Control_c, 0, 64, 60
1, 615459, Control_c, 0, 64, 64
1, 615478, Control_c, 0, 64, 67
1, 615497, Control_c, 0, 64, 69
1, 615515, Control_c, 0, 64, 71
1, 615533, Control_c, 0, 64, 73
1, 615551, Control_c, 0, 64, 75
1, 615635, Poly_aftertouch_c, 0, 72, 0
1, 615877, Note_on_c, 0, 38, 30
1, 615901, Control_c, 0, 64, 73
1, 615919, Control_c, 0, 64, 70
1, 615939, Control_c, 0, 64, 64
1, 615956, Control_c, 0, 64, 55
1, 615965, Poly_aftertouch_c, 0, 72, 0
1, 615975, Control_c, 0, 64, 45
1, 615995, Control_c, 0, 64, 19
1, 616011, Control_c, 0, 64, 0
1, 616121, Control_c, 0, 64, 15
1, 616140, Control_c, 0, 64, 36
1, 616159, Control_c, 0, 64, 55
1, 616177, Control_c, 0, 64, 71
1, 616196, Control_c, 0, 64, 77
1, 616216, Control_c, 0, 64, 81
1, 616248, Control_c, 0, 64, 84
1, 616265, Control_c, 0, 64, 88
1, 616286, Control_c, 0, 64, 92
1, 616321, Control_c, 0, 64, 98
1, 616332, Note_on_c, 0, 66, 0
1, 616432, Control_c, 0, 64, 102
1, 616438, Note_on_c, 0, 74, 0
1, 616469, Note_on_c, 0, 69, 0
1, 616690, Control_c, 0, 64, 106
1, 616763, Control_c, 0, 67, 29
1, 616799, Control_c, 0, 67, 34
1, 616854, Control_c, 0, 67, 38
1, 616965, Control_c, 0, 67, 44
1, 617020, Control_c, 0, 67, 50
1, 617057, Control_c, 0, 64, 102
1, 617058, Control_c, 0, 67, 56
1, 617093, Control_c, 0, 67, 63
1, 617130, Control_c, 0, 67, 69
1, 617149, Control_c, 0, 64, 97
1, 617151, Control_c, 0, 67, 73
1, 617183, Control_c, 0, 67, 78
1, 617201, Control_c, 0, 67, 84
1, 617220, Control_c, 0, 67, 89
1, 617239, Control_c, 0, 64, 93
1, 617240, Control_c, 0, 67, 95
1, 617255, Control_c, 0, 67, 100
1, 617264, Poly_aftertouch_c, 0, 38, 24
1, 617274, Control_c, 0, 67, 104
1, 617292, Control_c, 0, 67, 108
1, 617312, Control_c, 0, 64, 88
1, 617313, Control_c, 0, 67, 114
1, 617316, Note_on_c, 0, 38, 0
1, 617316, Poly_aftertouch_c, 0, 38, 0
1, 617331, Control_c, 0, 67, 120
1, 617368, Control_c, 0, 64, 86
1, 617370, Control_c, 0, 67, 125
1, 617404, Control_c, 0, 64, 84
1, 617410, Note_on_c, 0, 74, 48
1, 617442, Control_c, 0, 64, 82
1, 617478, Control_c, 0, 64, 79
1, 617495, Control_c, 0, 64, 77
1, 617514, Control_c, 0, 64, 74
1, 617533, Control_c, 0, 64, 71
1, 617551, Control_c, 0, 64, 69
1, 617570, Control_c, 0, 64, 67
1, 617588, Control_c, 0, 64, 65
1, 617608, Control_c, 0, 64, 64
1, 617625, Control_c, 0, 64, 63
1, 617662, Control_c, 0, 64, 61
1, 617699, Control_c, 0, 64, 60
1, 617771, Control_c, 0, 64, 58
1, 617939, Control_c, 0, 64, 56
1, 617947, Note_on_c, 0, 71, 42
1, 618029, Control_c, 0, 64, 53
1, 618035, Note_on_c, 0, 74, 0
1, 618047, Control_c, 0, 64, 50
1, 618065, Control_c, 0, 64, 47
1, 618086, Control_c, 0, 64, 43
1, 618118, Control_c, 0, 64, 41
1, 618284, Control_c, 0, 64, 44
1, 618303, Control_c, 0, 64, 49
1, 618324, Control_c, 0, 64, 56
1, 618340, Control_c, 0, 64, 60
1, 618357, Control_c, 0, 64, 63
1, 618376, Control_c, 0, 64, 65
1, 618395, Control_c, 0, 64, 67
1, 618413, Control_c, 0, 64, 69
1, 618430, Control_c, 0, 64, 72
1, 618438, Note_on_c, 0, 71, 0
1, 618449, Control_c, 0, 64, 74
1, 618486, Control_c, 0, 64, 76
1, 618755, Note_on_c, 0, 69, 52
1, 618802, Control_c, 0, 64, 71
1, 618817, Control_c, 0, 64, 65
1, 618837, Control_c, 0, 64, 55
1, 618855, Control_c, 0, 64, 46
1, 618874, Control_c, 0, 64, 29
1, 618891, Control_c, 0, 64, 0
1, 619288, Note_on_c, 0, 67, 38
1, 619290, Note_on_c, 0, 69, 0
1, 619479, Control_c, 0, 64, 8
1, 619496, Control_c, 0, 64, 30
1, 619514, Control_c, 0, 64, 47
1, 619532, Control_c, 0, 64, 65
1, 619552, Control_c, 0, 64, 73
1, 619570, Control_c, 0, 64, 76
1, 619605, Control_c, 0, 64, 79
1, 619626, Control_c, 0, 64, 81
1, 619642, Control_c, 0, 64, 83
1, 619662, Control_c, 0, 64, 85
1, 619700, Control_c, 0, 64, 87
1, 620190, Control_c, 0, 64, 85
1, 620201, Note_on_c, 0, 62, 49
1, 620209, Control_c, 0, 64, 81
1, 620228, Control_c, 0, 64, 73
1, 620248, Control_c, 0, 64, 61
1, 620266, Control_c, 0, 64, 47
1, 620285, Control_c, 0, 64, 33
1, 620301, Control_c, 0, 64, 14
1, 620320, Control_c, 0, 64, 0
1, 620575, Note_on_c, 0, 59, 39
1, 620601, Note_on_c, 0, 62, 0
1, 620745, Control_c, 0, 64, 20
1, 620762, Control_c, 0, 64, 38
1, 620782, Control_c, 0, 64, 57
1, 620799, Control_c, 0, 64, 71
1, 620819, Control_c, 0, 64, 77
1, 620835, Control_c, 0, 64, 81
1, 620855, Control_c, 0, 64, 84
1, 620872, Control_c, 0, 64, 88
1, 620891, Control_c, 0, 64, 93
1, 620944, Control_c, 0, 64, 98
1, 620970, Note_on_c, 0, 59, 0
1, 621126, Control_c, 0, 64, 102
1, 621423, Note_on_c, 0, 57, 45
1, 621458, Control_c, 0, 64, 92
1, 621477, Control_c, 0, 64, 78
1, 621496, Control_c, 0, 64, 56
1, 621513, Control_c, 0, 64, 23
1, 621533, Control_c, 0, 64, 0
1, 621836, Note_on_c, 0, 55, 36
1, 621910, Note_on_c, 0, 57, 0
1, 622025, Control_c, 0, 64, 32
1, 622044, Control_c, 0, 64, 48
1, 622063, Control_c, 0, 64, 67
1, 622082, Control_c, 0, 64, 75
1, 622099, Control_c, 0, 64, 79
1, 622120, Control_c, 0, 64, 82
1, 622138, Control_c, 0, 64, 86
1, 622156, Control_c, 0, 64, 90
1, 622161, Note_on_c, 0, 67, 0
1, 622191, Control_c, 0, 64, 96
1, 622225, Note_on_c, 0, 55, 0
1, 622669, Note_on_c, 0, 69, 59
1, 622685, Note_on_c, 0, 54, 41
1, 622745, Control_c, 0, 64, 76
1, 622764, Control_c, 0, 64, 51
1, 622797, Control_c, 0, 64, 30
1, 622852, Control_c, 0, 64, 35
1, 622869, Control_c, 0, 64, 50
1, 622888, Control_c, 0, 64, 63
1, 622906, Control_c, 0, 64, 67
1, 623051, Note_on_c, 0, 54, 0
1, 623053, Control_c, 0, 64, 66
1, 623073, Control_c, 0, 64, 64
1, 623091, Control_c, 0, 64, 62
1, 623092, Note_on_c, 0, 69, 0
1, 623097, Note_on_c, 0, 55, 36
1, 623099, Note_on_c, 0, 71, 57
1, 623107, Control_c, 0, 64, 60
1, 623147, Control_c, 0, 64, 57
1, 623181, Control_c, 0, 64, 53
1, 623200, Control_c, 0, 64, 50
1, 623220, Control_c, 0, 64, 48
1, 623256, Control_c, 0, 64, 46
1, 623277, Note_on_c, 0, 59, 43
1, 623302, Note_on_c, 0, 55, 0
1, 623312, Control_c, 0, 64, 43
1, 623348, Control_c, 0, 64, 41
1, 623453, Note_on_c, 0, 62, 42
1, 623515, Control_c, 0, 64, 37
1, 623622, Note_on_c, 0, 67, 40
1, 623632, Note_on_c, 0, 59, 0
1, 623656, Note_on_c, 0, 62, 0
1, 623956, Note_on_c, 0, 67, 0
1, 623970, Note_on_c, 0, 66, 31
1, 623971, Note_on_c, 0, 69, 40
1, 624062, Control_c, 0, 64, 33
1, 624076, Note_on_c, 0, 71, 0
1, 624759, Control_c, 0, 64, 43
1, 624777, Control_c, 0, 64, 50
1, 624797, Control_c, 0, 64, 57
1, 624815, Control_c, 0, 64, 59
1, 624832, Control_c, 0, 64, 61
1, 624850, Control_c, 0, 64, 63
1, 624869, Control_c, 0, 64, 66
1, 624888, Control_c, 0, 64, 68
1, 624925, Control_c, 0, 64, 71
1, 624979, Control_c, 0, 64, 73
1, 625365, Note_on_c, 0, 45, 45
1, 625366, Control_c, 0, 64, 71
1, 625404, Control_c, 0, 64, 68
1, 625423, Control_c, 0, 64, 67
1, 625440, Control_c, 0, 64, 62
1, 625459, Control_c, 0, 64, 56
1, 625478, Control_c, 0, 64, 48
1, 625496, Control_c, 0, 64, 39
1, 625514, Control_c, 0, 64, 27
1, 625532, Control_c, 0, 64, 11
1, 625551, Control_c, 0, 64, 0
1, 625767, Note_on_c, 0, 42, 40
1, 625823, Note_on_c, 0, 45, 0
1, 626008, Control_c, 0, 64, 21
1, 626026, Control_c, 0, 64, 28
1, 626044, Control_c, 0, 64, 38
1, 626063, Control_c, 0, 64, 55
1, 626081, Control_c, 0, 64, 69
1, 626101, Control_c, 0, 64, 73
1, 626119, Control_c, 0, 64, 76
1, 626174, Control_c, 0, 64, 78
1, 626210, Control_c, 0, 64, 81
1, 626259, Note_on_c, 0, 42, 0
1, 626654, Note_on_c, 0, 40, 42
1, 626704, Control_c, 0, 64, 79
1, 626721, Control_c, 0, 64, 71
1, 626741, Control_c, 0, 64, 58
1, 626759, Control_c, 0, 64, 43
1, 626778, Control_c, 0, 64, 23
1, 626796, Control_c, 0, 64, 0
1, 627068, Note_on_c, 0, 38, 38
1, 627087, Note_on_c, 0, 40, 0
1, 627331, Control_c, 0, 64, 10
1, 627349, Control_c, 0, 64, 31
1, 627367, Control_c, 0, 64, 50
1, 627388, Control_c, 0, 64, 68
1, 627405, Control_c, 0, 64, 75
1, 627424, Control_c, 0, 64, 78
1, 627475, Control_c, 0, 64, 81
1, 627493, Control_c, 0, 64, 84
1, 627499, Note_on_c, 0, 69, 0
1, 627511, Control_c, 0, 64, 89
1, 627530, Control_c, 0, 64, 93
1, 627568, Note_on_c, 0, 66, 0
1, 627657, Control_c, 0, 64, 97
1, 627814, Poly_aftertouch_c, 0, 38, 24
1, 627992, Note_on_c, 0, 38, 0
1, 627992, Poly_aftertouch_c, 0, 38, 0
1, 628005, Note_on_c, 0, 71, 60
1, 628043, Note_on_c, 0, 50, 32
1, 628044, Note_on_c, 0, 67, 45
1, 628082, Control_c, 0, 64, 86
1, 628099, Control_c, 0, 64, 67
1, 628118, Control_c, 0, 64, 36
1, 628138, Control_c, 0, 64, 0
1, 628408, Note_on_c, 0, 67, 0
1, 628417, Note_on_c, 0, 72, 50
1, 628433, Note_on_c, 0, 69, 42
1, 628445, Note_on_c, 0, 48, 32
1, 628446, Note_on_c, 0, 50, 0
1, 628453, Note_on_c, 0, 71, 0
1, 628649, Control_c, 0, 64, 21
1, 628669, Control_c, 0, 64, 32
1, 628686, Control_c, 0, 64, 44
1, 628706, Control_c, 0, 64, 57
1, 628722, Control_c, 0, 64, 62
1, 628759, Control_c, 0, 64, 63
1, 628795, Control_c, 0, 64, 64
1, 628814, Control_c, 0, 64, 66
1, 628832, Control_c, 0, 64, 67
1, 628852, Control_c, 0, 64, 69
1, 628889, Control_c, 0, 64, 72
1, 628907, Control_c, 0, 64, 75
1, 628928, Control_c, 0, 64, 77
1, 628930, Note_on_c, 0, 72, 0
1, 628944, Control_c, 0, 64, 79
1, 628980, Control_c, 0, 64, 81
1, 629035, Control_c, 0, 64, 84
1, 629072, Control_c, 0, 64, 87
1, 629130, Control_c, 0, 64, 91
1, 629444, Note_on_c, 0, 74, 54
1, 629475, Note_on_c, 0, 47, 34
1, 629493, Control_c, 0, 64, 87
1, 629510, Control_c, 0, 64, 76
1, 629528, Control_c, 0, 64, 57
1, 629531, Poly_aftertouch_c, 0, 48, 24
1, 629548, Control_c, 0, 64, 23
1, 629567, Control_c, 0, 64, 0
1, 629587, Note_on_c, 0, 48, 0
1, 629587, Poly_aftertouch_c, 0, 48, 0
1, 629714, Control_c, 0, 64, 35
1, 629731, Control_c, 0, 64, 54
1, 629749, Control_c, 0, 64, 69
1, 629767, Control_c, 0, 64, 74
1, 629787, Control_c, 0, 64, 77
1, 629805, Control_c, 0, 64, 81
1, 629824, Control_c, 0, 64, 86
1, 629843, Control_c, 0, 64, 91
1, 629879, Control_c, 0, 64, 96
1, 629934, Control_c, 0, 64, 101
1, 630307, Poly_aftertouch_c, 0, 47, 24
1, 630351, Note_on_c, 0, 67, 39
1, 630363, Note_on_c, 0, 52, 37
1, 630397, Note_on_c, 0, 69, 0
1, 630410, Control_c, 0, 64, 93
1, 630417, Note_on_c, 0, 47, 0
1, 630417, Poly_aftertouch_c, 0, 47, 0
1, 630429, Control_c, 0, 64, 73
1, 630445, Control_c, 0, 64, 38
1, 630464, Control_c, 0, 64, 0
1, 630576, Control_c, 0, 64, 28
1, 630594, Control_c, 0, 64, 49
1, 630612, Control_c, 0, 64, 69
1, 630631, Control_c, 0, 64, 78
1, 630649, Control_c, 0, 64, 84
1, 630667, Control_c, 0, 64, 87
1, 630704, Control_c, 0, 64, 92
1, 630730, Note_on_c, 0, 74, 0
1, 630881, Note_on_c, 0, 79, 64
1, 631272, Note_on_c, 0, 52, 0
1, 631279, Note_on_c, 0, 76, 52
1, 631297, Note_on_c, 0, 48, 33
1, 631307, Note_on_c, 0, 79, 0
1, 631345, Control_c, 0, 64, 83
1, 631365, Control_c, 0, 64, 63
1, 631381, Control_c, 0, 64, 17
1, 631400, Control_c, 0, 64, 0
1, 631493, Control_c, 0, 64, 19
1, 631512, Control_c, 0, 64, 48
1, 631529, Control_c, 0, 64, 70
1, 631547, Control_c, 0, 64, 81
1, 631567, Control_c, 0, 64, 90
1, 631585, Control_c, 0, 64, 94
1, 631614, Note_on_c, 0, 76, 0
1, 631619, Control_c, 0, 64, 99
1, 631643, Note_on_c, 0, 48, 0
1, 631677, Control_c, 0, 64, 103
1, 632029, Note_on_c, 0, 74, 50
1, 632057, Note_on_c, 0, 45, 39
1, 632058, Note_on_c, 0, 74, 0
1, 632075, Note_on_c, 0, 72, 58
1, 632105, Note_on_c, 0, 72, 0
1, 632135, Note_on_c, 0, 74, 70
1, 632151, Control_c, 0, 64, 93
1, 632171, Control_c, 0, 64, 74
1, 632190, Control_c, 0, 64, 47
1, 632207, Control_c, 0, 64, 0
1, 632209, Note_on_c, 0, 74, 0
1, 632213, Note_on_c, 0, 72, 63
1, 632289, Note_on_c, 0, 48, 42
1, 632304, Note_on_c, 0, 45, 0
1, 632357, Note_on_c, 0, 72, 0
1, 632357, Note_on_c, 0, 72, 27
1, 632440, Note_on_c, 0, 48, 0
1, 632471, Note_on_c, 0, 47, 46
1, 632513, Note_on_c, 0, 67, 0
1, 632610, Note_on_c, 0, 47, 0
1, 632628, Note_on_c, 0, 45, 35
1, 632815, Note_on_c, 0, 66, 37
1, 632824, Note_on_c, 0, 45, 0
1, 632837, Note_on_c, 0, 50, 41
1, 633072, Control_c, 0, 64, 13
1, 633107, Control_c, 0, 64, 28
1, 633125, Control_c, 0, 64, 41
1, 633144, Control_c, 0, 64, 58
1, 633162, Control_c, 0, 64, 68
1, 633199, Control_c, 0, 64, 71
1, 633271, Control_c, 0, 64, 73
1, 633328, Control_c, 0, 64, 75
1, 633336, Note_on_c, 0, 72, 0
1, 633344, Note_on_c, 0, 71, 56
1, 633365, Control_c, 0, 64, 77
1, 633442, Note_on_c, 0, 50, 0
1, 633491, Control_c, 0, 64, 79
1, 633623, Note_on_c, 0, 71, 0
1, 633714, Note_on_c, 0, 72, 47
1, 633720, Note_on_c, 0, 38, 30
1, 633731, Control_c, 0, 64, 75
1, 633750, Control_c, 0, 64, 67
1, 633769, Control_c, 0, 64, 54
1, 633788, Control_c, 0, 64, 36
1, 633806, Control_c, 0, 64, 0
1, 633870, Note_on_c, 0, 72, 0
1, 633906, Note_on_c, 0, 69, 46
1, 634065, Note_on_c, 0, 69, 0
1, 634080, Note_on_c, 0, 71, 50
1, 634117, Control_c, 0, 64, 33
1, 634134, Control_c, 0, 64, 55
1, 634139, Note_on_c, 0, 38, 0
1, 634151, Control_c, 0, 64, 72
1, 634171, Control_c, 0, 64, 82
1, 634187, Control_c, 0, 64, 91
1, 634207, Control_c, 0, 64, 96
1, 634225, Control_c, 0, 64, 100
1, 634281, Control_c, 0, 64, 104
1, 634305, Note_on_c, 0, 66, 0
1, 634506, Note_on_c, 0, 67, 41
1, 634514, Note_on_c, 0, 43, 42
1, 634518, Note_on_c, 0, 72, 48
1, 634519, Note_on_c, 0, 71, 0
1, 634559, Control_c, 0, 64, 91
1, 634577, Control_c, 0, 64, 69
1, 634593, Control_c, 0, 64, 24
1, 634612, Control_c, 0, 64, 0
1, 634711, Note_on_c, 0, 72, 0
1, 634723, Control_c, 0, 64, 27
1, 634742, Control_c, 0, 64, 44
1, 634757, Note_on_c, 0, 71, 52
1, 634761, Control_c, 0, 64, 60
1, 634778, Control_c, 0, 64, 67
1, 634806, Note_on_c, 0, 71, 0
1, 634844, Note_on_c, 0, 72, 58
1, 634884, Note_on_c, 0, 72, 0
1, 634914, Note_on_c, 0, 71, 62
1, 634972, Note_on_c, 0, 71, 0
1, 635009, Note_on_c, 0, 72, 58
1, 635047, Note_on_c, 0, 72, 0
1, 635067, Note_on_c, 0, 71, 60
1, 635107, Note_on_c, 0, 71, 0
1, 635129, Note_on_c, 0, 72, 57
1, 635177, Note_on_c, 0, 72, 0
1, 635192, Note_on_c, 0, 71, 71
1, 635238, Note_on_c, 0, 71, 0
1, 635269, Note_on_c, 0, 72, 58
1, 635317, Note_on_c, 0, 72, 0
1, 635340, Note_on_c, 0, 71, 45
1, 635369, Note_on_c, 0, 71, 0
1, 635374, Note_on_c, 0, 72, 56
1, 635440, Note_on_c, 0, 72, 0
1, 635443, Note_on_c, 0, 71, 45
1, 635453, Note_on_c, 0, 47, 44
1, 635456, Control_c, 0, 64, 62
1, 635475, Control_c, 0, 64, 53
1, 635495, Control_c, 0, 64, 39
1, 635496, Note_on_c, 0, 43, 0
1, 635511, Control_c, 0, 64, 16
1, 635529, Control_c, 0, 64, 0
1, 635835, Note_on_c, 0, 71, 0
1, 635835, Note_on_c, 0, 69, 48
1, 635875, Note_on_c, 0, 67, 0
1, 636191, Poly_aftertouch_c, 0, 47, 24
1, 636224, Note_on_c, 0, 69, 0
1, 636238, Note_on_c, 0, 67, 40
1, 636249, Note_on_c, 0, 47, 0
1, 636249, Poly_aftertouch_c, 0, 47, 0
1, 636254, Note_on_c, 0, 50, 33
1, 636446, Control_c, 0, 64, 10
1, 636465, Control_c, 0, 64, 34
1, 636486, Control_c, 0, 64, 50
1, 636503, Control_c, 0, 64, 67
1, 636519, Control_c, 0, 64, 74
1, 636538, Control_c, 0, 64, 79
1, 636558, Control_c, 0, 64, 85
1, 636560, Note_on_c, 0, 67, 0
1, 636576, Control_c, 0, 64, 92
1, 636594, Control_c, 0, 64, 98
1, 636613, Control_c, 0, 64, 102
1, 636650, Control_c, 0, 64, 106
1, 636844, Note_on_c, 0, 50, 0
1, 637011, Note_on_c, 0, 59, 33
1, 637081, Note_on_c, 0, 62, 42
1, 637155, Note_on_c, 0, 67, 54
1, 637193, Note_on_c, 0, 55, 37
1, 637216, Control_c, 0, 64, 100
1, 637235, Control_c, 0, 64, 84
1, 637253, Control_c, 0, 64, 56
1, 637272, Control_c, 0, 64, 0
1, 637420, Control_c, 0, 64, 27
1, 637438, Control_c, 0, 64, 43
1, 637456, Control_c, 0, 64, 61
1, 637473, Control_c, 0, 64, 71
1, 637493, Control_c, 0, 64, 75
1, 637511, Control_c, 0, 64, 78
1, 637530, Control_c, 0, 64, 81
1, 637548, Control_c, 0, 64, 84
1, 637567, Control_c, 0, 64, 89
1, 637602, Control_c, 0, 64, 94
1, 637646, Poly_aftertouch_c, 0, 59, 24
1, 637691, Note_on_c, 0, 59, 0
1, 637691, Poly_aftertouch_c, 0, 59, 0
1, 637876, Note_on_c, 0, 62, 0
1, 637961, Note_on_c, 0, 67, 0
1, 638078, Control_c, 0, 64, 98
1, 638604, Note_on_c, 0, 71, 53
1, 638610, Control_c, 0, 64, 94
1, 638667, Control_c, 0, 64, 90
1, 638686, Control_c, 0, 64, 88
1, 638719, Control_c, 0, 64, 85
1, 638739, Control_c, 0, 64, 81
1, 638758, Control_c, 0, 64, 76
1, 638776, Control_c, 0, 64, 72
1, 638783, Poly_aftertouch_c, 0, 55, 24
1, 638791, Control_c, 0, 64, 69
1, 638812, Control_c, 0, 64, 67
1, 638830, Control_c, 0, 64, 66
1, 638866, Control_c, 0, 64, 64
1, 638885, Control_c, 0, 64, 62
1, 638922, Control_c, 0, 64, 61
1, 638960, Control_c, 0, 64, 60
1, 639014, Control_c, 0, 64, 58
1, 639051, Control_c, 0, 64, 56
1, 639067, Note_on_c, 0, 74, 36
1, 639069, Control_c, 0, 64, 51
1, 639086, Control_c, 0, 64, 35
1, 639090, Note_on_c, 0, 71, 0
1, 639106, Control_c, 0, 64, 0
1, 639271, Control_c, 0, 64, 34
1, 639291, Control_c, 0, 64, 50
1, 639309, Control_c, 0, 64, 67
1, 639327, Control_c, 0, 64, 76
1, 639344, Control_c, 0, 64, 83
1, 639364, Control_c, 0, 64, 88
1, 639384, Control_c, 0, 64, 94
1, 639401, Control_c, 0, 64, 99
1, 639440, Control_c, 0, 64, 103
1, 639445, Poly_aftertouch_c, 0, 55, 32
1, 639480, Note_on_c, 0, 74, 0
1, 639512, Control_c, 0, 64, 107
1, 639644, Note_on_c, 0, 55, 0
1, 639644, Poly_aftertouch_c, 0, 55, 0
1, 639645, Poly_aftertouch_c, 0, 55, 0
1, 639986, Note_on_c, 0, 79, 49
1, 640025, Note_on_c, 0, 79, 0
1, 640053, Note_on_c, 0, 78, 58
1, 640098, Control_c, 0, 64, 102
1, 640115, Note_on_c, 0, 78, 0
1, 640116, Control_c, 0, 64, 93
1, 640125, Note_on_c, 0, 79, 60
1, 640134, Control_c, 0, 64, 82
1, 640154, Control_c, 0, 64, 70
1, 640172, Control_c, 0, 64, 62
1, 640189, Control_c, 0, 64, 61
1, 640299, Control_c, 0, 64, 60
1, 640327, Note_on_c, 0, 43, 42
1, 640393, Control_c, 0, 64, 57
1, 640484, Control_c, 0, 64, 55
1, 640499, Note_on_c, 0, 45, 49
1, 640591, Control_c, 0, 64, 53
1, 640599, Note_on_c, 0, 43, 0
1, 640683, Note_on_c, 0, 47, 55
1, 640685, Note_on_c, 0, 45, 0
1, 640702, Control_c, 0, 64, 51
1, 640849, Control_c, 0, 64, 49
1, 640866, Note_on_c, 0, 47, 0
1, 640870, Note_on_c, 0, 48, 57
1, 640997, Note_on_c, 0, 48, 0
1, 641013, Control_c, 0, 64, 47
1, 641038, Note_on_c, 0, 50, 48
1, 641198, Control_c, 0, 64, 45
1, 641199, Note_on_c, 0, 50, 0
1, 641210, Note_on_c, 0, 52, 47
1, 641211, Note_on_c, 0, 81, 75
1, 641254, Control_c, 0, 64, 43
1, 641256, Note_on_c, 0, 79, 0
1, 641309, Control_c, 0, 64, 41
1, 641329, Poly_aftertouch_c, 0, 86, 0
1, 641348, Note_on_c, 0, 52, 0
1, 641373, Note_on_c, 0, 54, 46
1, 641419, Control_c, 0, 64, 37
1, 641545, Control_c, 0, 64, 33
1, 641550, Note_on_c, 0, 54, 0
1, 641589, Note_on_c, 0, 55, 48
1, 641597, Note_on_c, 0, 83, 58
1, 641637, Control_c, 0, 64, 27
1, 641648, Note_on_c, 0, 81, 0
1, 641655, Control_c, 0, 64, 21
1, 641673, Control_c, 0, 64, 12
1, 641692, Control_c, 0, 64, 0
1, 641742, Note_on_c, 0, 55, 0
1, 641769, Note_on_c, 0, 59, 41
1, 641930, Note_on_c, 0, 59, 0
1, 641969, Note_on_c, 0, 57, 45
1, 642120, Note_on_c, 0, 57, 0
1, 642135, Note_on_c, 0, 55, 38
1, 642171, Control_c, 0, 64, 13
1, 642189, Control_c, 0, 64, 36
1, 642208, Control_c, 0, 64, 56
1, 642225, Note_on_c, 0, 83, 0
1, 642225, Control_c, 0, 64, 74
1, 642245, Control_c, 0, 64, 85
1, 642265, Control_c, 0, 64, 94
1, 642281, Control_c, 0, 64, 99
1, 642319, Control_c, 0, 64, 104
1, 642331, Note_on_c, 0, 55, 0
1, 642392, Control_c, 0, 64, 108
1, 642613, Note_on_c, 0, 74, 63
1, 642641, Note_on_c, 0, 69, 42
1, 642649, Note_on_c, 0, 64, 45
1, 642676, Note_on_c, 0, 55, 37
1, 642757, Control_c, 0, 64, 103
1, 642775, Control_c, 0, 64, 90
1, 642794, Control_c, 0, 64, 65
1, 642813, Control_c, 0, 64, 22
1, 642831, Control_c, 0, 64, 0
1, 643261, Note_on_c, 0, 73, 42
1, 643263, Note_on_c, 0, 74, 0
1, 643436, Control_c, 0, 64, 16
1, 643454, Control_c, 0, 64, 35
1, 643470, Control_c, 0, 64, 51
1, 643490, Control_c, 0, 64, 67
1, 643508, Control_c, 0, 64, 75
1, 643527, Control_c, 0, 64, 79
1, 643543, Control_c, 0, 64, 83
1, 643563, Control_c, 0, 64, 88
1, 643600, Control_c, 0, 64, 94
1, 643641, Note_on_c, 0, 55, 0
1, 643667, Note_on_c, 0, 73, 0
1, 643692, Control_c, 0, 64, 98
1, 643907, Note_on_c, 0, 59, 46
1, 644054, Note_on_c, 0, 59, 0
1, 644084, Note_on_c, 0, 76, 70
1, 644103, Note_on_c, 0, 57, 49
1, 644228, Note_on_c, 0, 57, 0
1, 644257, Note_on_c, 0, 55, 51
1, 644374, Note_on_c, 0, 55, 0
1, 644472, Note_on_c, 0, 81, 61
1, 644478, Control_c, 0, 64, 91
1, 644492, Note_on_c, 0, 54, 49
1, 644498, Control_c, 0, 64, 72
1, 644517, Control_c, 0, 64, 37
1, 644535, Control_c, 0, 64, 0
1, 644546, Note_on_c, 0, 76, 0
1, 644592, Control_c, 0, 64, 20
1, 644600, Note_on_c, 0, 54, 0
1, 644610, Control_c, 0, 64, 39
1, 644628, Control_c, 0, 64, 59
1, 644646, Control_c, 0, 64, 72
1, 644665, Control_c, 0, 64, 77
1, 644677, Note_on_c, 0, 55, 45
1, 644681, Control_c, 0, 64, 81
1, 644703, Control_c, 0, 64, 84
1, 644720, Control_c, 0, 64, 87
1, 644865, Note_on_c, 0, 52, 40
1, 644866, Control_c, 0, 64, 80
1, 644883, Note_on_c, 0, 55, 0
1, 644885, Control_c, 0, 64, 61
1, 644904, Control_c, 0, 64, 0
1, 645013, Control_c, 0, 64, 13
1, 645031, Control_c, 0, 64, 29
1, 645034, Note_on_c, 0, 69, 0
1, 645051, Control_c, 0, 64, 39
1, 645069, Control_c, 0, 64, 56
1, 645088, Control_c, 0, 64, 67
1, 645106, Control_c, 0, 64, 69
1, 645154, Poly_aftertouch_c, 0, 64, 24
1, 645233, Note_on_c, 0, 64, 0
1, 645233, Poly_aftertouch_c, 0, 64, 0
1, 645377, Note_on_c, 0, 81, 0
1, 645384, Note_on_c, 0, 75, 51
1, 645398, Control_c, 0, 64, 68
1, 645411, Note_on_c, 0, 54, 32
1, 645414, Control_c, 0, 64, 65
1, 645434, Control_c, 0, 64, 62
1, 645452, Note_on_c, 0, 52, 0
1, 645453, Control_c, 0, 64, 59
1, 645470, Control_c, 0, 64, 57
1, 645490, Control_c, 0, 64, 54
1, 645508, Control_c, 0, 64, 51
1, 645528, Control_c, 0, 64, 48
1, 645545, Control_c, 0, 64, 45
1, 645564, Control_c, 0, 64, 41
1, 645577, Note_on_c, 0, 76, 62
1, 645580, Note_on_c, 0, 75, 0
1, 645601, Control_c, 0, 64, 37
1, 645654, Control_c, 0, 64, 32
1, 645691, Control_c, 0, 64, 26
1, 645725, Note_on_c, 0, 76, 0
1, 645747, Control_c, 0, 64, 19
1, 645749, Note_on_c, 0, 78, 67
1, 645765, Control_c, 0, 64, 10
1, 645784, Control_c, 0, 64, 0
1, 645914, Note_on_c, 0, 79, 70
1, 645955, Note_on_c, 0, 78, 0
1, 646089, Note_on_c, 0, 81, 59
1, 646095, Note_on_c, 0, 51, 39
1, 646120, Note_on_c, 0, 79, 0
1, 646174, Note_on_c, 0, 54, 0
1, 646269, Note_on_c, 0, 81, 0
1, 646283, Note_on_c, 0, 84, 57
1, 646469, Note_on_c, 0, 83, 58
1, 646478, Note_on_c, 0, 84, 0
1, 646637, Note_on_c, 0, 81, 52
1, 646640, Note_on_c, 0, 83, 0
1, 646669, Poly_aftertouch_c, 0, 51, 22
1, 646795, Note_on_c, 0, 81, 0
1, 646822, Note_on_c, 0, 79, 47
1, 646827, Note_on_c, 0, 47, 38
1, 646860, Note_on_c, 0, 51, 0
1, 646860, Poly_aftertouch_c, 0, 51, 0
1, 647022, Note_on_c, 0, 79, 0
1, 647035, Note_on_c, 0, 81, 41
1, 647209, Note_on_c, 0, 81, 0
1, 647220, Note_on_c, 0, 78, 40
1, 647757, Note_on_c, 0, 47, 0
1, 647759, Note_on_c, 0, 79, 43
1, 647857, Note_on_c, 0, 78, 0
1, 648020, Note_on_c, 0, 52, 34
1, 648210, Note_on_c, 0, 52, 0
1, 648214, Note_on_c, 0, 55, 45
1, 648349, Note_on_c, 0, 55, 0
1, 648365, Note_on_c, 0, 54, 55
1, 648497, Note_on_c, 0, 54, 0
1, 648539, Note_on_c, 0, 52, 49
1, 648681, Note_on_c, 0, 52, 0
1, 648712, Note_on_c, 0, 50, 40
1, 648837, Note_on_c, 0, 50, 0
1, 648858, Note_on_c, 0, 76, 69
1, 648887, Note_on_c, 0, 49, 39
1, 649031, Note_on_c, 0, 49, 0
1, 649053, Note_on_c, 0, 50, 36
1, 649084, Control_c, 0, 67, 121
1, 649103, Control_c, 0, 67, 114
1, 649122, Control_c, 0, 67, 106
1, 649140, Control_c, 0, 67, 95
1, 649157, Control_c, 0, 67, 83
1, 649176, Control_c, 0, 67, 70
1, 649195, Control_c, 0, 67, 58
1, 649202, Note_on_c, 0, 50, 0
1, 649213, Control_c, 0, 67, 47
1, 649233, Control_c, 0, 67, 35
1, 649238, Note_on_c, 0, 52, 33
1, 649250, Note_on_c, 0, 73, 52
1, 649253, Control_c, 0, 67, 21
1, 649287, Note_on_c, 0, 76, 0
1, 649325, Control_c, 0, 67, 0
1, 649412, Note_on_c, 0, 49, 44
1, 649415, Note_on_c, 0, 52, 0
1, 649489, Control_c, 0, 67, 10
1, 649507, Control_c, 0, 67, 16
1, 649526, Control_c, 0, 67, 25
1, 649546, Control_c, 0, 64, 16
1, 649547, Control_c, 0, 67, 42
1, 649561, Note_on_c, 0, 49, 0
1, 649563, Control_c, 0, 64, 25
1, 649564, Control_c, 0, 67, 65
1, 649581, Control_c, 0, 64, 32
1, 649583, Control_c, 0, 67, 86
1, 649587, Note_on_c, 0, 50, 40
1, 649601, Control_c, 0, 64, 42
1, 649603, Control_c, 0, 67, 99
1, 649618, Control_c, 0, 64, 53
1, 649619, Control_c, 0, 67, 106
1, 649637, Control_c, 0, 64, 61
1, 649637, Control_c, 0, 67, 116
1, 649657, Control_c, 0, 64, 64
1, 649659, Control_c, 0, 67, 127
1, 649699, Note_on_c, 0, 50, 0
1, 649711, Control_c, 0, 64, 65
1, 649749, Control_c, 0, 64, 66
1, 649749, Note_on_c, 0, 52, 40
1, 649768, Control_c, 0, 64, 67
1, 649822, Control_c, 0, 64, 69
1, 649839, Note_on_c, 0, 73, 0
1, 649857, Control_c, 0, 64, 71
1, 649894, Control_c, 0, 64, 74
1, 649963, Control_c, 0, 64, 76
1, 650025, Note_on_c, 0, 42, 38
1, 650034, Note_on_c, 0, 71, 60
1, 650089, Note_on_c, 0, 52, 0
1, 650092, Control_c, 0, 64, 71
1, 650112, Control_c, 0, 64, 55
1, 650131, Control_c, 0, 64, 17
1, 650149, Control_c, 0, 64, 0
1, 650471, Note_on_c, 0, 69, 43
1, 650475, Note_on_c, 0, 71, 0
1, 650476, Note_on_c, 0, 45, 35
1, 650849, Note_on_c, 0, 47, 38
1, 650857, Note_on_c, 0, 45, 0
1, 650938, Control_c, 0, 64, 9
1, 650956, Control_c, 0, 64, 15
1, 650975, Control_c, 0, 64, 25
1, 650993, Control_c, 0, 64, 34
1, 651013, Control_c, 0, 64, 46
1, 651028, Control_c, 0, 64, 57
1, 651047, Control_c, 0, 64, 62
1, 651229, Note_on_c, 0, 76, 63
1, 651248, Note_on_c, 0, 49, 34
1, 651253, Control_c, 0, 64, 57
1, 651259, Poly_aftertouch_c, 0, 47, 24
1, 651268, Control_c, 0, 64, 46
1, 651284, Note_on_c, 0, 47, 0
1, 651284, Poly_aftertouch_c, 0, 47, 0
1, 651287, Control_c, 0, 64, 19
1, 651305, Control_c, 0, 64, 0
1, 651597, Note_on_c, 0, 49, 0
1, 651615, Note_on_c, 0, 78, 49
1, 651623, Note_on_c, 0, 76, 0
1, 651628, Note_on_c, 0, 50, 31
1, 651686, Note_on_c, 0, 79, 0
1, 651891, Control_c, 0, 64, 21
1, 651910, Control_c, 0, 64, 30
1, 651929, Control_c, 0, 64, 43
1, 651948, Control_c, 0, 64, 60
1, 651964, Control_c, 0, 64, 71
1, 651983, Control_c, 0, 64, 74
1, 652020, Control_c, 0, 64, 77
1, 652028, Note_on_c, 0, 52, 37
1, 652029, Note_on_c, 0, 78, 0
1, 652055, Control_c, 0, 64, 79
1, 652076, Note_on_c, 0, 50, 0
1, 652076, Note_on_c, 0, 69, 0
1, 652076, Control_c, 0, 64, 82
1, 652094, Control_c, 0, 64, 84
1, 652111, Control_c, 0, 64, 86
1, 652437, Note_on_c, 0, 69, 52
1, 652441, Note_on_c, 0, 54, 36
1, 652443, Control_c, 0, 64, 79
1, 652461, Control_c, 0, 64, 67
1, 652462, Note_on_c, 0, 67, 41
1, 652481, Control_c, 0, 64, 46
1, 652492, Note_on_c, 0, 52, 0
1, 652498, Control_c, 0, 64, 0
1, 652679, Note_on_c, 0, 67, 0
1, 652724, Poly_aftertouch_c, 0, 42, 24
1, 652778, Note_on_c, 0, 42, 0
1, 652778, Poly_aftertouch_c, 0, 42, 0
1, 652782, Note_on_c, 0, 54, 0
1, 652821, Note_on_c, 0, 69, 0
1, 653255, Note_on_c, 0, 71, 49
1, 653269, Note_on_c, 0, 66, 40
1, 653272, Note_on_c, 0, 43, 36
1, 653523, Note_on_c, 0, 66, 0
1, 653553, Note_on_c, 0, 71, 0
1, 653560, Note_on_c, 0, 43, 0
1, 654079, Note_on_c, 0, 73, 46
1, 654100, Note_on_c, 0, 45, 36
1, 654111, Note_on_c, 0, 64, 35
1, 654328, Note_on_c, 0, 64, 0
1, 654377, Note_on_c, 0, 45, 0
1, 654442, Note_on_c, 0, 73, 0
1, 655052, Note_on_c, 0, 74, 52
1, 655072, Note_on_c, 0, 66, 35
1, 655077, Note_on_c, 0, 69, 37
1, 655098, Note_on_c, 0, 50, 37
1, 655195, Control_c, 0, 64, 10
1, 655215, Control_c, 0, 64, 25
1, 655231, Control_c, 0, 64, 40
1, 655251, Control_c, 0, 64, 56
1, 655268, Control_c, 0, 64, 66
1, 655288, Control_c, 0, 64, 69
1, 655324, Control_c, 0, 64, 72
1, 655341, Control_c, 0, 64, 74
1, 655361, Control_c, 0, 64, 77
1, 655379, Control_c, 0, 64, 82
1, 655399, Control_c, 0, 64, 86
1, 655472, Control_c, 0, 64, 90
1, 655499, Note_on_c, 0, 50, 0
1, 655578, Control_c, 0, 64, 94
1, 655690, Control_c, 0, 64, 98
1, 656167, Control_c, 0, 64, 94
1, 656223, Control_c, 0, 64, 90
1, 656258, Control_c, 0, 64, 86
1, 656262, Note_on_c, 0, 45, 47
1, 656277, Control_c, 0, 64, 83
1, 656296, Control_c, 0, 64, 79
1, 656315, Control_c, 0, 64, 70
1, 656335, Control_c, 0, 64, 50
1, 656352, Control_c, 0, 64, 0
1, 656463, Control_c, 0, 64, 26
1, 656495, Control_c, 0, 64, 42
1, 656513, Control_c, 0, 64, 58
1, 656529, Note_on_c, 0, 45, 0
1, 656529, Control_c, 0, 64, 67
1, 656661, Control_c, 0, 64, 66
1, 656680, Control_c, 0, 64, 61
1, 656698, Control_c, 0, 64, 51
1, 656716, Control_c, 0, 64, 34
1, 656718, Note_on_c, 0, 42, 44
1, 656734, Control_c, 0, 64, 0
1, 656901, Control_c, 0, 64, 14
1, 656919, Control_c, 0, 64, 36
1, 656939, Control_c, 0, 64, 54
1, 656954, Control_c, 0, 64, 69
1, 656973, Control_c, 0, 64, 74
1, 656993, Control_c, 0, 64, 77
1, 657029, Control_c, 0, 64, 80
1, 657048, Control_c, 0, 64, 82
1, 657081, Note_on_c, 0, 42, 0
1, 657085, Control_c, 0, 64, 84
1, 657706, Note_on_c, 0, 38, 37
1, 657706, Control_c, 0, 64, 81
1, 657725, Control_c, 0, 64, 76
1, 657744, Control_c, 0, 64, 68
1, 657764, Control_c, 0, 64, 52
1, 657782, Control_c, 0, 64, 28
1, 657801, Control_c, 0, 64, 0
1, 657946, Control_c, 0, 64, 23
1, 657965, Control_c, 0, 64, 35
1, 657984, Control_c, 0, 64, 48
1, 658003, Control_c, 0, 64, 63
1, 658022, Control_c, 0, 64, 71
1, 658038, Control_c, 0, 64, 74
1, 658057, Control_c, 0, 64, 76
1, 658076, Control_c, 0, 64, 78
1, 658094, Control_c, 0, 64, 80
1, 658113, Control_c, 0, 64, 84
1, 658122, Poly_aftertouch_c, 0, 69, 24
1, 658131, Control_c, 0, 64, 88
1, 658167, Control_c, 0, 64, 94
1, 658178, Note_on_c, 0, 66, 0
1, 658180, Note_on_c, 0, 74, 0
1, 658210, Note_on_c, 0, 69, 0
1, 658210, Poly_aftertouch_c, 0, 69, 0
1, 658234, Poly_aftertouch_c, 0, 71, 0
1, 658240, Control_c, 0, 64, 98
1, 658366, Control_c, 0, 64, 102
1, 658497, Control_c, 0, 67, 117
1, 658515, Control_c, 0, 67, 107
1, 658532, Control_c, 0, 67, 95
1, 658551, Control_c, 0, 67, 80
1, 658570, Control_c, 0, 67, 63
1, 658588, Control_c, 0, 67, 45
1, 658605, Control_c, 0, 67, 26
1, 658643, Control_c, 0, 67, 0
1, 658929, Note_on_c, 0, 38, 0
1, 659216, Note_on_c, 0, 81, 70
1, 659319, Control_c, 0, 64, 98
1, 659339, Control_c, 0, 64, 93
1, 659358, Control_c, 0, 64, 89
1, 659376, Control_c, 0, 64, 83
1, 659395, Control_c, 0, 64, 79
1, 659413, Control_c, 0, 64, 75
1, 659433, Control_c, 0, 64, 72
1, 659468, Control_c, 0, 64, 70
1, 659505, Control_c, 0, 64, 66
1, 659524, Control_c, 0, 64, 64
1, 659542, Control_c, 0, 64, 61
1, 659559, Control_c, 0, 64, 60
1, 659598, Control_c, 0, 64, 57
1, 659615, Control_c, 0, 64, 54
1, 659635, Control_c, 0, 64, 47
1, 659649, Note_on_c, 0, 78, 61
1, 659652, Control_c, 0, 64, 36
1, 659671, Control_c, 0, 64, 20
1, 659689, Control_c, 0, 64, 0
1, 659723, Note_on_c, 0, 81, 0
1, 659837, Control_c, 0, 64, 29
1, 659855, Control_c, 0, 64, 48
1, 659875, Control_c, 0, 64, 67
1, 659892, Control_c, 0, 64, 77
1, 659912, Control_c, 0, 64, 85
1, 659928, Control_c, 0, 64, 91
1, 659947, Control_c, 0, 64, 95
1, 659984, Control_c, 0, 64, 101
1, 659987, Note_on_c, 0, 78, 0
1, 660021, Control_c, 0, 64, 105
1, 660399, Note_on_c, 0, 76, 70
1, 660460, Control_c, 0, 64, 91
1, 660476, Control_c, 0, 64, 67
1, 660495, Control_c, 0, 64, 27
1, 660514, Control_c, 0, 64, 0
1, 660837, Note_on_c, 0, 74, 41
1, 660842, Note_on_c, 0, 76, 0
1, 661049, Control_c, 0, 64, 20
1, 661068, Control_c, 0, 64, 34
1, 661085, Control_c, 0, 64, 52
1, 661104, Control_c, 0, 64, 68
1, 661122, Control_c, 0, 64, 75
1, 661141, Control_c, 0, 64, 80
1, 661172, Control_c, 0, 64, 83
1, 661193, Control_c, 0, 64, 86
1, 661209, Control_c, 0, 64, 90
1, 661247, Control_c, 0, 64, 95
1, 661338, Control_c, 0, 64, 99
1, 661579, Note_on_c, 0, 69, 66
1, 661671, Control_c, 0, 64, 89
1, 661689, Control_c, 0, 64, 75
1, 661707, Control_c, 0, 64, 55
1, 661728, Control_c, 0, 64, 29
1, 661745, Control_c, 0, 64, 0
1, 661997, Note_on_c, 0, 66, 51
1, 662057, Note_on_c, 0, 69, 0
1, 662259, Control_c, 0, 64, 14
1, 662274, Control_c, 0, 64, 29
1, 662293, Control_c, 0, 64, 43
1, 662312, Control_c, 0, 64, 58
1, 662331, Control_c, 0, 64, 68
1, 662347, Control_c, 0, 64, 71
1, 662385, Control_c, 0, 64, 73
1, 662422, Control_c, 0, 64, 76
1, 662460, Control_c, 0, 64, 79
1, 662831, Note_on_c, 0, 62, 52
1, 662864, Control_c, 0, 64, 77
1, 662884, Control_c, 0, 64, 71
1, 662902, Control_c, 0, 64, 61
1, 662919, Control_c, 0, 64, 46
1, 662940, Control_c, 0, 64, 20
1, 662956, Control_c, 0, 64, 0
1, 663305, Note_on_c, 0, 60, 39
1, 663439, Note_on_c, 0, 62, 0
1, 663542, Control_c, 0, 64, 27
1, 663560, Control_c, 0, 64, 43
1, 663579, Control_c, 0, 64, 59
1, 663597, Control_c, 0, 64, 70
1, 663617, Control_c, 0, 64, 72
1, 663654, Control_c, 0, 64, 75
1, 663689, Control_c, 0, 64, 79
1, 663708, Control_c, 0, 64, 81
1, 663744, Control_c, 0, 64, 83
1, 663979, Control_c, 0, 64, 81
1, 664017, Control_c, 0, 64, 77
1, 664036, Control_c, 0, 64, 75
1, 664054, Control_c, 0, 64, 72
1, 664055, Note_on_c, 0, 76, 63
1, 664073, Control_c, 0, 64, 70
1, 664084, Note_on_c, 0, 67, 36
1, 664090, Control_c, 0, 64, 67
1, 664110, Control_c, 0, 64, 65
1, 664130, Control_c, 0, 64, 62
1, 664146, Control_c, 0, 64, 58
1, 664150, Note_on_c, 0, 74, 0
1, 664164, Control_c, 0, 64, 54
1, 664175, Note_on_c, 0, 66, 0
1, 664182, Control_c, 0, 64, 48
1, 664202, Control_c, 0, 64, 40
1, 664219, Control_c, 0, 64, 26
1, 664237, Control_c, 0, 64, 14
1, 664257, Control_c, 0, 64, 0
1, 664477, Note_on_c, 0, 78, 51
1, 664483, Note_on_c, 0, 76, 0
1, 664500, Note_on_c, 0, 69, 39
1, 664591, Note_on_c, 0, 67, 0
1, 664627, Control_c, 0, 64, 18
1, 664643, Control_c, 0, 64, 38
1, 664663, Control_c, 0, 64, 56
1, 664680, Control_c, 0, 64, 71
1, 664698, Control_c, 0, 64, 78
1, 664716, Control_c, 0, 64, 83
1, 664735, Control_c, 0, 64, 86
1, 664754, Control_c, 0, 64, 90
1, 664760, Note_on_c, 0, 60, 0
1, 664791, Control_c, 0, 64, 94
1, 664821, Note_on_c, 0, 78, 0
1, 664913, Note_on_c, 0, 69, 0
1, 665335, Note_on_c, 0, 79, 53
1, 665400, Note_on_c, 0, 62, 36
1, 665408, Note_on_c, 0, 59, 30
1, 665469, Control_c, 0, 64, 87
1, 665487, Control_c, 0, 64, 73
1, 665506, Control_c, 0, 64, 50
1, 665524, Control_c, 0, 64, 16
1, 665542, Control_c, 0, 64, 0
1, 665869, Control_c, 0, 64, 20
1, 665875, Note_on_c, 0, 74, 44
1, 665888, Control_c, 0, 64, 34
1, 665906, Control_c, 0, 64, 50
1, 665926, Control_c, 0, 64, 65
1, 665944, Control_c, 0, 64, 71
1, 665963, Control_c, 0, 64, 73
1, 666001, Control_c, 0, 64, 76
1, 666017, Control_c, 0, 64, 81
1, 666037, Control_c, 0, 64, 85
1, 666054, Control_c, 0, 64, 90
1, 666078, Note_on_c, 0, 62, 0
1, 666144, Note_on_c, 0, 59, 0
1, 666145, Control_c, 0, 64, 94
1, 666248, Note_on_c, 0, 71, 49
1, 666329, Control_c, 0, 64, 98
1, 666572, Note_on_c, 0, 67, 48
1, 666605, Note_on_c, 0, 62, 68
1, 666644, Control_c, 0, 64, 94
1, 666663, Control_c, 0, 64, 81
1, 666682, Control_c, 0, 64, 58
1, 666685, Poly_aftertouch_c, 0, 76, 127
1, 666698, Control_c, 0, 64, 23
1, 666718, Control_c, 0, 64, 0
1, 667019, Note_on_c, 0, 59, 71
1, 667096, Note_on_c, 0, 62, 0
1, 667378, Control_c, 0, 64, 20
1, 667396, Control_c, 0, 64, 37
1, 667413, Control_c, 0, 64, 56
1, 667433, Control_c, 0, 64, 69
1, 667451, Control_c, 0, 64, 73
1, 667505, Control_c, 0, 64, 76
1, 667542, Control_c, 0, 64, 79
1, 667561, Control_c, 0, 64, 81
1, 667634, Control_c, 0, 64, 83
1, 667883, Note_on_c, 0, 55, 60
1, 667961, Control_c, 0, 64, 81
1, 667980, Control_c, 0, 64, 75
1, 667998, Control_c, 0, 64, 64
1, 668018, Control_c, 0, 64, 43
1, 668036, Control_c, 0, 64, 9
1, 668055, Control_c, 0, 64, 0
1, 668299, Note_on_c, 0, 53, 49
1, 668349, Note_on_c, 0, 55, 0
1, 668569, Control_c, 0, 64, 25
1, 668588, Control_c, 0, 64, 38
1, 668606, Control_c, 0, 64, 57
1, 668623, Note_on_c, 0, 67, 0
1, 668624, Control_c, 0, 64, 71
1, 668657, Control_c, 0, 64, 76
1, 668676, Control_c, 0, 64, 80
1, 668694, Control_c, 0, 64, 83
1, 668713, Control_c, 0, 64, 87
1, 668717, Note_on_c, 0, 71, 0
1, 668738, Note_on_c, 0, 74, 0
1, 668751, Control_c, 0, 64, 92
1, 668775, Poly_aftertouch_c, 0, 76, 0
1, 668781, Note_on_c, 0, 79, 0
1, 669105, Note_on_c, 0, 81, 77
1, 669114, Note_on_c, 0, 60, 48
1, 669171, Note_on_c, 0, 59, 0
1, 669192, Control_c, 0, 64, 85
1, 669211, Control_c, 0, 64, 79
1, 669230, Control_c, 0, 64, 73
1, 669249, Control_c, 0, 64, 66
1, 669267, Control_c, 0, 64, 61
1, 669285, Control_c, 0, 64, 60
1, 669396, Control_c, 0, 64, 58
1, 669451, Control_c, 0, 64, 55
1, 669469, Control_c, 0, 64, 49
1, 669487, Control_c, 0, 64, 38
1, 669505, Control_c, 0, 64, 17
1, 669514, Note_on_c, 0, 83, 69
1, 669523, Control_c, 0, 64, 0
1, 669542, Note_on_c, 0, 62, 50
1, 669547, Note_on_c, 0, 60, 0
1, 669557, Note_on_c, 0, 81, 0
1, 669743, Control_c, 0, 64, 13
1, 669760, Control_c, 0, 64, 38
1, 669777, Control_c, 0, 64, 57
1, 669797, Control_c, 0, 64, 71
1, 669815, Control_c, 0, 64, 76
1, 669833, Control_c, 0, 64, 79
1, 669850, Control_c, 0, 64, 82
1, 669870, Control_c, 0, 64, 85
1, 669890, Control_c, 0, 64, 90
1, 669923, Control_c, 0, 64, 94
1, 669947, Note_on_c, 0, 83, 0
1, 669969, Poly_aftertouch_c, 0, 82, 0
1, 670018, Control_c, 0, 64, 98
1, 670277, Control_c, 0, 64, 102
1, 670351, Poly_aftertouch_c, 0, 53, 24
1, 670439, Note_on_c, 0, 84, 65
1, 670448, Note_on_c, 0, 52, 42
1, 670478, Note_on_c, 0, 53, 0
1, 670478, Poly_aftertouch_c, 0, 53, 0
1, 670529, Control_c, 0, 64, 96
1, 670547, Control_c, 0, 64, 85
1, 670566, Control_c, 0, 64, 70
1, 670585, Control_c, 0, 64, 60
1, 670622, Control_c, 0, 64, 62
1, 670640, Control_c, 0, 64, 66
1, 670660, Control_c, 0, 64, 72
1, 670678, Control_c, 0, 64, 78
1, 670685, Note_on_c, 0, 83, 72
1, 670694, Control_c, 0, 64, 84
1, 670714, Control_c, 0, 64, 88
1, 670778, Note_on_c, 0, 84, 0
1, 670865, Note_on_c, 0, 81, 79
1, 670913, Note_on_c, 0, 83, 0
1, 671034, Note_on_c, 0, 80, 78
1, 671054, Note_on_c, 0, 81, 0
1, 671174, Control_c, 0, 64, 86
1, 671193, Control_c, 0, 64, 80
1, 671211, Control_c, 0, 64, 70
1, 671228, Control_c, 0, 64, 51
1, 671242, Note_on_c, 0, 81, 62
1, 671247, Control_c, 0, 64, 20
1, 671247, Note_on_c, 0, 60, 53
1, 671263, Note_on_c, 0, 80, 0
1, 671266, Control_c, 0, 64, 0
1, 671272, Note_on_c, 0, 53, 30
1, 671304, Note_on_c, 0, 52, 0
1, 671342, Note_on_c, 0, 62, 0
1, 671501, Control_c, 0, 64, 25
1, 671520, Control_c, 0, 64, 36
1, 671539, Control_c, 0, 64, 52
1, 671558, Control_c, 0, 64, 68
1, 671576, Control_c, 0, 64, 75
1, 671595, Control_c, 0, 64, 80
1, 671614, Control_c, 0, 64, 84
1, 671632, Control_c, 0, 64, 88
1, 671653, Note_on_c, 0, 81, 0
1, 671667, Control_c, 0, 64, 92
1, 671848, Note_on_c, 0, 76, 70
1, 671894, Poly_aftertouch_c, 0, 53, 24
1, 672022, Note_on_c, 0, 59, 45
1, 672030, Note_on_c, 0, 76, 0
1, 672034, Note_on_c, 0, 77, 64
1, 672058, Note_on_c, 0, 69, 42
1, 672058, Note_on_c, 0, 50, 32
1, 672061, Note_on_c, 0, 60, 0
1, 672091, Control_c, 0, 64, 84
1, 672111, Control_c, 0, 64, 69
1, 672116, Note_on_c, 0, 53, 0
1, 672116, Poly_aftertouch_c, 0, 53, 0
1, 672128, Control_c, 0, 64, 44
1, 672147, Control_c, 0, 64, 0
1, 672276, Control_c, 0, 64, 10
1, 672294, Control_c, 0, 64, 34
1, 672311, Control_c, 0, 64, 48
1, 672330, Control_c, 0, 64, 64
1, 672349, Control_c, 0, 64, 71
1, 672367, Control_c, 0, 64, 73
1, 672419, Control_c, 0, 64, 76
1, 672456, Control_c, 0, 64, 79
1, 672511, Control_c, 0, 64, 81
1, 672809, Note_on_c, 0, 72, 51
1, 672843, Note_on_c, 0, 52, 28
1, 672851, Note_on_c, 0, 50, 0
1, 672860, Control_c, 0, 64, 78
1, 672876, Note_on_c, 0, 77, 0
1, 672877, Control_c, 0, 64, 68
1, 672897, Control_c, 0, 64, 48
1, 672916, Control_c, 0, 64, 10
1, 672936, Control_c, 0, 64, 0
1, 673008, Control_c, 0, 64, 23
1, 673027, Control_c, 0, 64, 43
1, 673045, Control_c, 0, 64, 62
1, 673064, Control_c, 0, 64, 73
1, 673082, Control_c, 0, 64, 78
1, 673099, Control_c, 0, 64, 81
1, 673118, Control_c, 0, 64, 83
1, 673155, Control_c, 0, 64, 86
1, 673230, Control_c, 0, 64, 90
1, 673317, Note_on_c, 0, 71, 47
1, 673346, Note_on_c, 0, 72, 0
1, 673428, Control_c, 0, 64, 94
1, 673467, Note_on_c, 0, 59, 0
1, 673672, Note_on_c, 0, 59, 43
1, 673685, Control_c, 0, 64, 85
1, 673703, Control_c, 0, 64, 67
1, 673723, Control_c, 0, 64, 28
1, 673741, Control_c, 0, 64, 0
1, 673832, Control_c, 0, 64, 14
1, 673852, Control_c, 0, 64, 35
1, 673871, Control_c, 0, 64, 53
1, 673887, Control_c, 0, 64, 67
1, 673906, Control_c, 0, 64, 70
1, 673962, Control_c, 0, 64, 72
1, 673999, Note_on_c, 0, 77, 60
1, 674029, Note_on_c, 0, 69, 0
1, 674110, Control_c, 0, 64, 74
1, 674238, Control_c, 0, 67, 8
1, 674422, Control_c, 0, 67, 12
1, 674427, Note_on_c, 0, 76, 46
1, 674435, Note_on_c, 0, 68, 32
1, 674439, Control_c, 0, 64, 70
1, 674440, Note_on_c, 0, 64, 39
1, 674456, Control_c, 0, 64, 60
1, 674475, Control_c, 0, 64, 43
1, 674476, Note_on_c, 0, 77, 0
1, 674494, Control_c, 0, 64, 0
1, 674523, Note_on_c, 0, 71, 0
1, 674530, Control_c, 0, 67, 17
1, 674567, Control_c, 0, 67, 21
1, 674574, Note_on_c, 0, 59, 0
1, 674604, Control_c, 0, 67, 25
1, 674624, Control_c, 0, 64, 29
1, 674625, Control_c, 0, 67, 29
1, 674642, Control_c, 0, 64, 47
1, 674643, Control_c, 0, 67, 34
1, 674659, Control_c, 0, 64, 65
1, 674660, Control_c, 0, 67, 39
1, 674676, Control_c, 0, 64, 74
1, 674696, Control_c, 0, 64, 79
1, 674698, Control_c, 0, 67, 46
1, 674715, Control_c, 0, 64, 81
1, 674732, Control_c, 0, 64, 84
1, 674734, Control_c, 0, 67, 52
1, 674750, Control_c, 0, 64, 87
1, 674752, Control_c, 0, 67, 56
1, 674769, Control_c, 0, 64, 92
1, 674770, Control_c, 0, 67, 62
1, 674790, Control_c, 0, 64, 96
1, 674791, Control_c, 0, 67, 67
1, 674795, Note_on_c, 0, 76, 0
1, 674806, Control_c, 0, 67, 73
1, 674815, Note_on_c, 0, 68, 0
1, 674822, Control_c, 0, 64, 101
1, 674824, Control_c, 0, 67, 78
1, 674842, Control_c, 0, 67, 82
1, 674860, Control_c, 0, 67, 86
1, 674880, Control_c, 0, 67, 90
1, 674897, Control_c, 0, 67, 95
1, 674910, Note_on_c, 0, 64, 0
1, 674917, Control_c, 0, 67, 101
1, 674937, Control_c, 0, 67, 106
1, 674954, Control_c, 0, 67, 110
1, 674970, Control_c, 0, 67, 115
1, 675008, Control_c, 0, 67, 120
1, 675043, Control_c, 0, 67, 124
1, 675242, Note_on_c, 0, 74, 60
1, 675275, Note_on_c, 0, 69, 45
1, 675286, Note_on_c, 0, 57, 45
1, 675330, Poly_aftertouch_c, 0, 52, 24
1, 675355, Control_c, 0, 64, 90
1, 675373, Control_c, 0, 64, 72
1, 675378, Note_on_c, 0, 52, 0
1, 675378, Poly_aftertouch_c, 0, 52, 0
1, 675392, Control_c, 0, 64, 52
1, 675411, Control_c, 0, 64, 44
1, 675447, Control_c, 0, 64, 47
1, 675465, Control_c, 0, 64, 56
1, 675477, Note_on_c, 0, 74, 0
1, 675483, Control_c, 0, 64, 63
1, 675499, Note_on_c, 0, 72, 60
1, 675502, Control_c, 0, 64, 67
1, 675586, Note_on_c, 0, 72, 0
1, 675618, Note_on_c, 0, 74, 65
1, 675631, Control_c, 0, 64, 66
1, 675650, Control_c, 0, 64, 65
1, 675657, Note_on_c, 0, 74, 0
1, 675668, Control_c, 0, 64, 64
1, 675685, Control_c, 0, 64, 62
1, 675700, Note_on_c, 0, 72, 58
1, 675704, Control_c, 0, 64, 61
1, 675724, Control_c, 0, 64, 60
1, 675735, Note_on_c, 0, 72, 0
1, 675758, Note_on_c, 0, 74, 64
1, 675804, Note_on_c, 0, 74, 0
1, 675813, Control_c, 0, 64, 61
1, 675831, Note_on_c, 0, 72, 62
1, 675832, Control_c, 0, 64, 63
1, 675852, Control_c, 0, 64, 64
1, 675871, Control_c, 0, 64, 65
1, 675874, Note_on_c, 0, 72, 0
1, 675883, Note_on_c, 0, 74, 69
1, 675890, Control_c, 0, 64, 66
1, 675924, Control_c, 0, 64, 67
1, 675927, Note_on_c, 0, 74, 0
1, 675960, Note_on_c, 0, 72, 63
1, 675979, Control_c, 0, 64, 69
1, 675999, Note_on_c, 0, 72, 0
1, 676007, Note_on_c, 0, 74, 66
1, 676061, Note_on_c, 0, 74, 0
1, 676080, Note_on_c, 0, 72, 71
1, 676128, Control_c, 0, 64, 68
1, 676161, Control_c, 0, 64, 60
1, 676173, Note_on_c, 0, 52, 39
1, 676178, Control_c, 0, 64, 47
1, 676198, Control_c, 0, 64, 29
1, 676217, Control_c, 0, 64, 0
1, 676499, Note_on_c, 0, 69, 0
1, 676518, Note_on_c, 0, 71, 53
1, 676560, Note_on_c, 0, 72, 0
1, 676893, Note_on_c, 0, 69, 37
1, 676896, Note_on_c, 0, 71, 0
1, 676908, Note_on_c, 0, 48, 34
1, 677060, Note_on_c, 0, 52, 0
1, 677153, Control_c, 0, 64, 26
1, 677171, Control_c, 0, 64, 46
1, 677191, Control_c, 0, 64, 62
1, 677208, Control_c, 0, 64, 72
1, 677228, Control_c, 0, 64, 76
1, 677244, Control_c, 0, 64, 79
1, 677248, Note_on_c, 0, 69, 0
1, 677251, Poly_aftertouch_c, 0, 57, 24
1, 677264, Control_c, 0, 64, 82
1, 677281, Control_c, 0, 64, 87
1, 677300, Control_c, 0, 64, 94
1, 677318, Control_c, 0, 64, 99
1, 677323, Note_on_c, 0, 57, 0
1, 677323, Poly_aftertouch_c, 0, 57, 0
1, 677374, Control_c, 0, 64, 103
1, 677449, Note_on_c, 0, 48, 0
1, 677769, Note_on_c, 0, 69, 51
1, 677820, Note_on_c, 0, 45, 37
1, 677850, Control_c, 0, 64, 99
1, 677870, Control_c, 0, 64, 84
1, 677889, Control_c, 0, 64, 55
1, 677907, Control_c, 0, 64, 0
1, 678051, Control_c, 0, 64, 29
1, 678069, Control_c, 0, 64, 42
1, 678088, Control_c, 0, 64, 55
1, 678106, Control_c, 0, 64, 60
1, 678124, Control_c, 0, 64, 61
1, 678347, Control_c, 0, 64, 60
1, 678493, Control_c, 0, 64, 58
1, 678615, Note_on_c, 0, 47, 32
1, 678637, Poly_aftertouch_c, 0, 45, 24
1, 678639, Control_c, 0, 64, 56
1, 678678, Note_on_c, 0, 45, 0
1, 678678, Poly_aftertouch_c, 0, 45, 0
1, 678731, Control_c, 0, 64, 54
1, 678756, Note_on_c, 0, 69, 0
1, 678761, Note_on_c, 0, 72, 49
1, 678769, Control_c, 0, 64, 51
1, 678843, Control_c, 0, 64, 49
1, 678898, Control_c, 0, 64, 47
1, 678961, Note_on_c, 0, 72, 0
1, 678971, Note_on_c, 0, 71, 49
1, 679005, Control_c, 0, 64, 45
1, 679043, Control_c, 0, 64, 43
1, 679099, Control_c, 0, 64, 41
1, 679102, Note_on_c, 0, 71, 0
1, 679137, Note_on_c, 0, 69, 38
1, 679261, Control_c, 0, 64, 37
1, 679353, Note_on_c, 0, 69, 0
1, 679355, Control_c, 0, 64, 28
1, 679368, Note_on_c, 0, 48, 36
1, 679370, Note_on_c, 0, 76, 38
1, 679372, Control_c, 0, 64, 9
1, 679392, Control_c, 0, 64, 0
1, 679452, Note_on_c, 0, 47, 0
1, 679613, Control_c, 0, 64, 24
1, 679633, Control_c, 0, 64, 40
1, 679648, Control_c, 0, 64, 57
1, 679667, Control_c, 0, 64, 68
1, 679686, Control_c, 0, 64, 74
1, 679699, Note_on_c, 0, 76, 0
1, 679705, Control_c, 0, 64, 78
1, 679706, Control_c, 0, 67, 120
1, 679722, Control_c, 0, 64, 83
1, 679723, Control_c, 0, 67, 116
1, 679740, Control_c, 0, 64, 89
1, 679744, Control_c, 0, 67, 111
1, 679746, Note_on_c, 0, 48, 0
1, 679762, Control_c, 0, 64, 95
1, 679763, Control_c, 0, 67, 102
1, 679778, Control_c, 0, 64, 100
1, 679779, Control_c, 0, 67, 88
1, 679797, Control_c, 0, 67, 71
1, 679815, Control_c, 0, 67, 51
1, 679834, Control_c, 0, 67, 31
1, 679853, Control_c, 0, 64, 104
1, 679853, Control_c, 0, 67, 13
1, 679923, Control_c, 0, 67, 0
1, 680190, Note_on_c, 0, 66, 46
1, 680221, Note_on_c, 0, 38, 38
1, 680234, Control_c, 0, 64, 95
1, 680253, Control_c, 0, 64, 82
1, 680272, Control_c, 0, 64, 65
1, 680291, Control_c, 0, 64, 50
1, 680308, Control_c, 0, 64, 44
1, 680365, Control_c, 0, 64, 47
1, 680382, Control_c, 0, 64, 56
1, 680401, Control_c, 0, 64, 63
1, 680420, Control_c, 0, 64, 68
1, 680549, Control_c, 0, 64, 66
1, 680568, Control_c, 0, 64, 65
1, 680584, Control_c, 0, 64, 64
1, 680622, Control_c, 0, 64, 63
1, 680641, Control_c, 0, 64, 62
1, 680657, Note_on_c, 0, 45, 44
1, 680657, Control_c, 0, 64, 60
1, 680713, Control_c, 0, 64, 58
1, 680742, Note_on_c, 0, 38, 0
1, 680865, Note_on_c, 0, 45, 0
1, 680912, Control_c, 0, 64, 56
1, 681054, Note_on_c, 0, 50, 53
1, 681171, Control_c, 0, 64, 54
1, 681412, Note_on_c, 0, 52, 52
1, 681419, Note_on_c, 0, 69, 64
1, 681467, Note_on_c, 0, 50, 0
1, 681489, Note_on_c, 0, 66, 0
1, 681585, Note_on_c, 0, 52, 0
1, 681585, Note_on_c, 0, 54, 62
1, 681639, Note_on_c, 0, 69, 0
1, 681781, Note_on_c, 0, 54, 0
1, 681817, Note_on_c, 0, 72, 69
1, 681822, Note_on_c, 0, 52, 54
1, 681830, Control_c, 0, 64, 52
1, 681848, Control_c, 0, 64, 49
1, 681866, Control_c, 0, 64, 38
1, 681886, Control_c, 0, 64, 12
1, 681903, Control_c, 0, 64, 0
1, 682196, Note_on_c, 0, 54, 55
1, 682227, Note_on_c, 0, 52, 0
1, 682308, Control_c, 0, 64, 20
1, 682326, Control_c, 0, 64, 47
1, 682344, Note_on_c, 0, 54, 0
1, 682344, Control_c, 0, 64, 62
1, 682355, Note_on_c, 0, 55, 62
1, 682363, Control_c, 0, 64, 70
1, 682383, Control_c, 0, 64, 73
1, 682401, Control_c, 0, 64, 76
1, 682409, Note_on_c, 0, 55, 0
1, 682421, Control_c, 0, 64, 79
1, 682438, Control_c, 0, 64, 83
1, 682456, Control_c, 0, 64, 86
1, 682493, Control_c, 0, 64, 91
1, 682519, Note_on_c, 0, 55, 62
1, 682549, Note_on_c, 0, 62, 63
1, 682569, Note_on_c, 0, 55, 0
1, 682575, Note_on_c, 0, 54, 66
1, 682620, Note_on_c, 0, 54, 0
1, 682648, Note_on_c, 0, 55, 57
1, 682661, Control_c, 0, 64, 73
1, 682678, Control_c, 0, 64, 45
1, 682710, Control_c, 0, 64, 0
1, 682719, Note_on_c, 0, 54, 65
1, 682749, Note_on_c, 0, 55, 0
1, 683044, Note_on_c, 0, 54, 0
1, 683054, Note_on_c, 0, 55, 52
1, 683177, Note_on_c, 0, 55, 0
1, 683221, Note_on_c, 0, 57, 44
1, 683415, Note_on_c, 0, 50, 48
1, 683440, Note_on_c, 0, 57, 0
1, 683605, Note_on_c, 0, 66, 56
1, 683676, Note_on_c, 0, 62, 0
1, 683784, Note_on_c, 0, 54, 51
1, 683802, Note_on_c, 0, 64, 67
1, 683811, Note_on_c, 0, 66, 0
1, 683944, Note_on_c, 0, 64, 0
1, 683954, Note_on_c, 0, 62, 65
1, 684148, Note_on_c, 0, 55, 40
1, 684148, Note_on_c, 0, 71, 55
1, 684150, Note_on_c, 0, 54, 0
1, 684187, Note_on_c, 0, 50, 0
1, 684192, Note_on_c, 0, 72, 0
1, 684364, Control_c, 0, 64, 10
1, 684418, Control_c, 0, 64, 14
1, 684462, Note_on_c, 0, 62, 0
1, 684526, Note_on_c, 0, 59, 61
1, 685016, Note_on_c, 0, 69, 48
1, 685031, Note_on_c, 0, 71, 0
1, 685053, Note_on_c, 0, 60, 44
1, 685078, Control_c, 0, 64, 0
1, 685111, Note_on_c, 0, 59, 0
1, 685214, Note_on_c, 0, 55, 0
1, 685226, Control_c, 0, 64, 19
1, 685247, Control_c, 0, 64, 34
1, 685263, Control_c, 0, 64, 51
1, 685281, Control_c, 0, 64, 64
1, 685300, Control_c, 0, 64, 68
1, 685336, Control_c, 0, 64, 70
1, 685372, Control_c, 0, 64, 72
1, 685392, Control_c, 0, 64, 74
1, 685429, Control_c, 0, 64, 77
1, 685532, Note_on_c, 0, 55, 40
1, 685844, Note_on_c, 0, 60, 0
1, 685886, Note_on_c, 0, 54, 43
1, 685886, Control_c, 0, 64, 79
1, 685932, Note_on_c, 0, 55, 0
1, 685941, Control_c, 0, 64, 81
1, 685996, Control_c, 0, 64, 83
1, 686051, Control_c, 0, 64, 85
1, 686107, Control_c, 0, 64, 87
1, 686236, Note_on_c, 0, 76, 73
1, 686271, Note_on_c, 0, 54, 0
1, 686271, Note_on_c, 0, 52, 32
1, 686289, Control_c, 0, 64, 82
1, 686309, Control_c, 0, 64, 77
1, 686327, Control_c, 0, 64, 73
1, 686329, Control_c, 0, 67, 8
1, 686346, Control_c, 0, 64, 69
1, 686364, Control_c, 0, 64, 65
1, 686383, Control_c, 0, 64, 64
1, 686403, Control_c, 0, 64, 63
1, 686490, Control_c, 0, 64, 62
1, 686564, Control_c, 0, 64, 61
1, 686600, Control_c, 0, 64, 58
1, 686619, Control_c, 0, 64, 55
1, 686639, Control_c, 0, 64, 46
1, 686655, Control_c, 0, 64, 19
1, 686660, Note_on_c, 0, 81, 72
1, 686674, Control_c, 0, 64, 0
1, 686683, Note_on_c, 0, 51, 42
1, 686698, Note_on_c, 0, 76, 0
1, 686712, Note_on_c, 0, 52, 0
1, 686821, Control_c, 0, 64, 25
1, 686840, Control_c, 0, 64, 39
1, 686859, Control_c, 0, 64, 55
1, 686877, Control_c, 0, 64, 67
1, 686896, Control_c, 0, 64, 71
1, 686932, Control_c, 0, 64, 73
1, 686969, Control_c, 0, 64, 76
1, 687005, Control_c, 0, 64, 78
1, 687020, Note_on_c, 0, 51, 0
1, 687042, Note_on_c, 0, 52, 54
1, 687071, Note_on_c, 0, 69, 0
1, 687190, Control_c, 0, 64, 76
1, 687225, Control_c, 0, 64, 73
1, 687263, Control_c, 0, 64, 71
1, 687299, Control_c, 0, 64, 69
1, 687388, Control_c, 0, 64, 68
1, 687407, Control_c, 0, 64, 67
1, 687420, Note_on_c, 0, 71, 62
1, 687439, Note_on_c, 0, 51, 50
1, 687444, Control_c, 0, 64, 66
1, 687458, Note_on_c, 0, 52, 0
1, 687462, Control_c, 0, 64, 65
1, 687498, Control_c, 0, 64, 64
1, 687536, Control_c, 0, 64, 62
1, 687555, Control_c, 0, 64, 61
1, 687573, Control_c, 0, 64, 59
1, 687593, Control_c, 0, 64, 55
1, 687608, Control_c, 0, 64, 48
1, 687628, Control_c, 0, 64, 36
1, 687648, Control_c, 0, 64, 0
1, 687793, Note_on_c, 0, 52, 52
1, 687805, Note_on_c, 0, 51, 0
1, 687867, Control_c, 0, 64, 10
1, 687886, Control_c, 0, 64, 26
1, 687905, Control_c, 0, 64, 36
1, 687922, Control_c, 0, 64, 46
1, 687937, Note_on_c, 0, 52, 0
1, 687940, Control_c, 0, 64, 57
1, 687958, Control_c, 0, 64, 62
1, 687970, Note_on_c, 0, 54, 46
1, 687978, Control_c, 0, 64, 63
1, 688033, Control_c, 0, 64, 64
1, 688126, Note_on_c, 0, 81, 0
1, 688167, Note_on_c, 0, 47, 51
1, 688211, Note_on_c, 0, 54, 0
1, 688361, Note_on_c, 0, 81, 68
1, 688453, Control_c, 0, 64, 63
1, 688542, Control_c, 0, 64, 62
1, 688543, Note_on_c, 0, 79, 73
1, 688556, Note_on_c, 0, 51, 43
1, 688580, Note_on_c, 0, 81, 0
1, 688600, Control_c, 0, 67, 12
1, 688613, Note_on_c, 0, 47, 0
1, 688673, Control_c, 0, 64, 61
1, 688702, Note_on_c, 0, 78, 76
1, 688749, Note_on_c, 0, 79, 0
1, 688821, Control_c, 0, 64, 60
1, 688857, Control_c, 0, 64, 57
1, 688875, Control_c, 0, 64, 49
1, 688894, Control_c, 0, 64, 37
1, 688908, Note_on_c, 0, 51, 0
1, 688913, Control_c, 0, 64, 15
1, 688923, Note_on_c, 0, 79, 63
1, 688932, Note_on_c, 0, 52, 35
1, 688932, Control_c, 0, 64, 0
1, 688942, Note_on_c, 0, 78, 0
1, 689135, Control_c, 0, 64, 29
1, 689153, Control_c, 0, 64, 45
1, 689172, Control_c, 0, 64, 62
1, 689190, Control_c, 0, 64, 72
1, 689209, Control_c, 0, 64, 75
1, 689259, Control_c, 0, 64, 77
1, 689281, Note_on_c, 0, 71, 0
1, 689296, Control_c, 0, 64, 81
1, 689299, Note_on_c, 0, 54, 43
1, 689312, Note_on_c, 0, 79, 0
1, 689330, Note_on_c, 0, 52, 0
1, 689406, Control_c, 0, 64, 83
1, 689477, Note_on_c, 0, 55, 54
1, 689487, Note_on_c, 0, 54, 0
1, 689646, Control_c, 0, 64, 81
1, 689702, Control_c, 0, 64, 78
1, 689719, Control_c, 0, 64, 75
1, 689738, Control_c, 0, 64, 73
1, 689747, Note_on_c, 0, 72, 59
1, 689754, Note_on_c, 0, 55, 0
1, 689756, Control_c, 0, 64, 71
1, 689758, Note_on_c, 0, 57, 45
1, 689793, Control_c, 0, 64, 68
1, 689813, Control_c, 0, 64, 67
1, 689830, Control_c, 0, 64, 65
1, 689848, Control_c, 0, 64, 63
1, 689868, Control_c, 0, 64, 62
1, 689905, Control_c, 0, 64, 61
1, 689932, Note_on_c, 0, 71, 67
1, 689941, Control_c, 0, 64, 60
1, 689942, Control_c, 0, 67, 8
1, 689996, Control_c, 0, 64, 58
1, 690088, Control_c, 0, 64, 56
1, 690089, Control_c, 0, 67, 0
1, 690105, Note_on_c, 0, 69, 69
1, 690116, Note_on_c, 0, 72, 0
1, 690145, Note_on_c, 0, 71, 0
1, 690252, Control_c, 0, 64, 54
1, 690272, Note_on_c, 0, 69, 0
1, 690282, Note_on_c, 0, 67, 67
1, 690453, Note_on_c, 0, 66, 70
1, 690490, Note_on_c, 0, 67, 0
1, 690628, Note_on_c, 0, 76, 70
1, 690636, Note_on_c, 0, 66, 0
1, 690655, Control_c, 0, 64, 52
1, 690806, Note_on_c, 0, 74, 69
1, 690838, Note_on_c, 0, 54, 42
1, 690876, Note_on_c, 0, 76, 0
1, 690977, Note_on_c, 0, 72, 63
1, 690998, Note_on_c, 0, 74, 0
1, 691204, Control_c, 0, 64, 48
1, 691222, Control_c, 0, 64, 42
1, 691227, Note_on_c, 0, 72, 0
1, 691227, Note_on_c, 0, 74, 48
1, 691232, Note_on_c, 0, 48, 37
1, 691234, Note_on_c, 0, 54, 0
1, 691241, Control_c, 0, 64, 21
1, 691260, Control_c, 0, 64, 0
1, 691442, Control_c, 0, 64, 30
1, 691462, Control_c, 0, 64, 43
1, 691480, Control_c, 0, 64, 59
1, 691499, Control_c, 0, 64, 69
1, 691517, Control_c, 0, 64, 73
1, 691537, Control_c, 0, 64, 75
1, 691569, Note_on_c, 0, 74, 0
1, 691572, Control_c, 0, 64, 78
1, 691610, Control_c, 0, 64, 80
1, 691652, Note_on_c, 0, 48, 0
1, 691848, Control_c, 0, 64, 77
1, 691886, Control_c, 0, 64, 75
1, 691921, Control_c, 0, 64, 73
1, 691959, Control_c, 0, 64, 70
1, 692035, Control_c, 0, 64, 67
1, 692065, Control_c, 0, 64, 66
1, 692079, Note_on_c, 0, 62, 52
1, 692084, Control_c, 0, 64, 63
1, 692091, Note_on_c, 0, 47, 39
1, 692104, Control_c, 0, 64, 61
1, 692106, Note_on_c, 0, 60, 45
1, 692138, Control_c, 0, 64, 60
1, 692177, Control_c, 0, 64, 58
1, 692214, Control_c, 0, 64, 55
1, 692270, Control_c, 0, 64, 53
1, 692306, Control_c, 0, 64, 50
1, 692343, Control_c, 0, 64, 47
1, 692375, Note_on_c, 0, 60, 0
1, 692420, Note_on_c, 0, 57, 0
1, 692431, Note_on_c, 0, 47, 0
1, 692452, Note_on_c, 0, 62, 0
1, 692748, Control_c, 0, 67, 8
1, 692882, Note_on_c, 0, 64, 55
1, 692905, Note_on_c, 0, 59, 41
1, 692922, Note_on_c, 0, 55, 30
1, 692928, Note_on_c, 0, 48, 35
1, 693155, Note_on_c, 0, 55, 0
1, 693166, Note_on_c, 0, 59, 0
1, 693202, Note_on_c, 0, 64, 0
1, 693225, Note_on_c, 0, 48, 0
1, 693668, Note_on_c, 0, 66, 45
1, 693683, Note_on_c, 0, 57, 32
1, 693689, Note_on_c, 0, 50, 39
1, 693692, Note_on_c, 0, 62, 40
1, 693998, Note_on_c, 0, 57, 0
1, 694042, Note_on_c, 0, 50, 0
1, 694112, Note_on_c, 0, 62, 0
1, 694123, Note_on_c, 0, 66, 0
1, 694141, Control_c, 0, 67, 12
1, 694655, Note_on_c, 0, 67, 44
1, 694698, Note_on_c, 0, 59, 32
1, 694700, Note_on_c, 0, 62, 32
1, 694705, Note_on_c, 0, 43, 35
1, 694786, Control_c, 0, 64, 53
1, 694803, Control_c, 0, 64, 58
1, 694823, Control_c, 0, 64, 64
1, 694841, Control_c, 0, 64, 69
1, 694873, Control_c, 0, 64, 73
1, 694891, Control_c, 0, 64, 77
1, 694911, Control_c, 0, 64, 81
1, 694929, Control_c, 0, 64, 83
1, 694946, Control_c, 0, 64, 87
1, 694964, Control_c, 0, 64, 91
1, 695002, Control_c, 0, 64, 98
1, 695058, Control_c, 0, 64, 103
1, 695131, Control_c, 0, 64, 107
1, 695200, Note_on_c, 0, 43, 0
1, 695847, Control_c, 0, 64, 102
1, 695938, Control_c, 0, 64, 98
1, 695975, Control_c, 0, 64, 92
1, 695984, Note_on_c, 0, 47, 45
1, 695992, Control_c, 0, 64, 84
1, 696014, Control_c, 0, 64, 75
1, 696031, Control_c, 0, 64, 66
1, 696049, Control_c, 0, 64, 62
1, 696086, Control_c, 0, 67, 16
1, 696104, Control_c, 0, 64, 65
1, 696122, Control_c, 0, 64, 68
1, 696140, Control_c, 0, 64, 71
1, 696159, Control_c, 0, 64, 74
1, 696196, Control_c, 0, 64, 76
1, 696201, Note_on_c, 0, 47, 0
1, 696325, Control_c, 0, 64, 74
1, 696361, Control_c, 0, 64, 72
1, 696397, Control_c, 0, 64, 69
1, 696416, Control_c, 0, 64, 67
1, 696435, Control_c, 0, 64, 63
1, 696454, Control_c, 0, 64, 59
1, 696455, Control_c, 0, 67, 20
1, 696472, Control_c, 0, 64, 55
1, 696485, Note_on_c, 0, 50, 37
1, 696491, Control_c, 0, 64, 48
1, 696509, Control_c, 0, 64, 33
1, 696527, Control_c, 0, 64, 0
1, 696582, Control_c, 0, 67, 24
1, 696692, Control_c, 0, 64, 29
1, 696712, Control_c, 0, 64, 45
1, 696744, Control_c, 0, 64, 64
1, 696763, Control_c, 0, 64, 74
1, 696781, Control_c, 0, 64, 81
1, 696801, Control_c, 0, 64, 84
1, 696817, Control_c, 0, 64, 87
1, 696835, Control_c, 0, 64, 91
1, 696851, Note_on_c, 0, 50, 0
1, 696854, Control_c, 0, 64, 96
1, 696873, Control_c, 0, 64, 100
1, 696910, Control_c, 0, 64, 105
1, 696948, Control_c, 0, 67, 33
1, 696966, Control_c, 0, 67, 40
1, 696983, Control_c, 0, 67, 45
1, 697002, Control_c, 0, 64, 109
1, 697021, Control_c, 0, 67, 51
1, 697039, Control_c, 0, 67, 56
1, 697056, Control_c, 0, 67, 63
1, 697075, Control_c, 0, 67, 70
1, 697094, Control_c, 0, 67, 75
1, 697131, Control_c, 0, 67, 81
1, 697169, Control_c, 0, 67, 89
1, 697187, Control_c, 0, 67, 96
1, 697204, Control_c, 0, 67, 104
1, 697223, Control_c, 0, 67, 110
1, 697242, Control_c, 0, 67, 114
1, 697277, Control_c, 0, 67, 121
1, 697296, Control_c, 0, 67, 125
1, 697476, Note_on_c, 0, 55, 41
1, 697535, Control_c, 0, 64, 105
1, 697555, Control_c, 0, 64, 95
1, 697573, Control_c, 0, 64, 77
1, 697592, Control_c, 0, 64, 50
1, 697611, Control_c, 0, 64, 10
1, 697629, Control_c, 0, 64, 0
1, 697771, Control_c, 0, 64, 27
1, 697790, Control_c, 0, 64, 42
1, 697808, Control_c, 0, 64, 61
1, 697826, Control_c, 0, 64, 73
1, 697843, Control_c, 0, 64, 79
1, 697863, Control_c, 0, 64, 84
1, 697882, Control_c, 0, 64, 87
1, 697915, Note_on_c, 0, 59, 0
1, 697919, Control_c, 0, 64, 94
1, 697957, Control_c, 0, 64, 100
1, 698044, Note_on_c, 0, 62, 0
1, 698068, Note_on_c, 0, 67, 0
1, 698717, Poly_aftertouch_c, 0, 55, 24
1, 698744, Control_c, 0, 64, 96
1, 698837, Control_c, 0, 64, 92
1, 698983, Control_c, 0, 64, 88
1, 699040, Control_c, 0, 64, 86
1, 699131, Control_c, 0, 64, 84
1, 699205, Control_c, 0, 64, 81
1, 699281, Control_c, 0, 64, 79
1, 699315, Control_c, 0, 64, 77
1, 699326, Note_on_c, 0, 81, 47
1, 699351, Poly_aftertouch_c, 0, 55, 22
1, 699351, Control_c, 0, 64, 74
1, 699372, Control_c, 0, 64, 71
1, 699385, Note_on_c, 0, 55, 0
1, 699385, Poly_aftertouch_c, 0, 55, 0
1, 699387, Control_c, 0, 64, 66
1, 699407, Control_c, 0, 64, 63
1, 699425, Control_c, 0, 64, 61
1, 699444, Control_c, 0, 64, 60
1, 699500, Control_c, 0, 64, 58
1, 699680, Control_c, 0, 64, 56
1, 699860, Note_on_c, 0, 78, 38
1, 699919, Control_c, 0, 64, 54
1, 699981, Note_on_c, 0, 81, 0
1, 700049, Control_c, 0, 64, 57
1, 700067, Control_c, 0, 64, 63
1, 700084, Control_c, 0, 64, 68
1, 700102, Control_c, 0, 64, 71
1, 700122, Control_c, 0, 64, 74
1, 700139, Control_c, 0, 64, 77
1, 700159, Control_c, 0, 64, 81
1, 700177, Control_c, 0, 64, 83
1, 700193, Note_on_c, 0, 78, 0
1, 700196, Control_c, 0, 64, 85
1, 700215, Control_c, 0, 64, 88
1, 700251, Control_c, 0, 64, 93
1, 700288, Control_c, 0, 64, 97
1, 700756, Note_on_c, 0, 76, 48
1, 700837, Control_c, 0, 64, 93
1, 700872, Control_c, 0, 64, 87
1, 700890, Control_c, 0, 64, 83
1, 700910, Control_c, 0, 64, 81
1, 700928, Control_c, 0, 64, 77
1, 700947, Control_c, 0, 64, 74
1, 700965, Control_c, 0, 64, 69
1, 700986, Control_c, 0, 64, 66
1, 701003, Control_c, 0, 64, 65
1, 701075, Control_c, 0, 64, 64
1, 701113, Control_c, 0, 64, 63
1, 701278, Control_c, 0, 64, 62
1, 701316, Note_on_c, 0, 74, 32
1, 701353, Control_c, 0, 64, 61
1, 701362, Note_on_c, 0, 76, 0
1, 701424, Control_c, 0, 64, 59
1, 701533, Control_c, 0, 64, 61
1, 701551, Control_c, 0, 64, 65
1, 701569, Control_c, 0, 64, 70
1, 701586, Control_c, 0, 64, 73
1, 701606, Control_c, 0, 64, 76
1, 701624, Control_c, 0, 64, 79
1, 701644, Control_c, 0, 64, 82
1, 701661, Control_c, 0, 64, 84
1, 701699, Control_c, 0, 64, 87
1, 701754, Control_c, 0, 64, 91
1, 702175, Note_on_c, 0, 69, 40
1, 702233, Control_c, 0, 64, 85
1, 702251, Control_c, 0, 64, 82
1, 702268, Control_c, 0, 64, 78
1, 702288, Control_c, 0, 64, 73
1, 702305, Control_c, 0, 64, 68
1, 702324, Control_c, 0, 64, 64
1, 702358, Control_c, 0, 64, 63
1, 702430, Control_c, 0, 64, 62
1, 702449, Control_c, 0, 64, 61
1, 702541, Control_c, 0, 64, 60
1, 702625, Note_on_c, 0, 66, 36
1, 702635, Control_c, 0, 64, 57
1, 702669, Note_on_c, 0, 69, 0
1, 702688, Control_c, 0, 64, 54
1, 702745, Control_c, 0, 64, 52
1, 702836, Control_c, 0, 64, 56
1, 702856, Control_c, 0, 64, 63
1, 702873, Control_c, 0, 64, 69
1, 702891, Control_c, 0, 64, 75
1, 702910, Control_c, 0, 64, 79
1, 702928, Control_c, 0, 64, 83
1, 702947, Control_c, 0, 64, 86
1, 702986, Control_c, 0, 64, 91
1, 703021, Control_c, 0, 64, 96
1, 703076, Control_c, 0, 64, 100
1, 703554, Note_on_c, 0, 62, 44
1, 703606, Control_c, 0, 64, 94
1, 703624, Control_c, 0, 64, 85
1, 703645, Control_c, 0, 64, 72
1, 703662, Control_c, 0, 64, 53
1, 703678, Control_c, 0, 64, 31
1, 703697, Control_c, 0, 64, 12
1, 703716, Control_c, 0, 64, 0
1, 704003, Note_on_c, 0, 60, 37
1, 704103, Note_on_c, 0, 62, 0
1, 704178, Control_c, 0, 64, 16
1, 704197, Control_c, 0, 64, 36
1, 704229, Control_c, 0, 64, 54
1, 704248, Control_c, 0, 64, 69
1, 704266, Control_c, 0, 64, 75
1, 704286, Control_c, 0, 64, 79
1, 704303, Control_c, 0, 64, 81
1, 704320, Control_c, 0, 64, 83
1, 704339, Control_c, 0, 64, 88
1, 704359, Control_c, 0, 64, 93
1, 704393, Control_c, 0, 64, 99
1, 704557, Note_on_c, 0, 66, 0
1, 704789, Note_on_c, 0, 76, 54
1, 704831, Note_on_c, 0, 67, 32
1, 704836, Control_c, 0, 64, 91
1, 704854, Control_c, 0, 64, 79
1, 704860, Note_on_c, 0, 74, 0
1, 704873, Control_c, 0, 64, 65
1, 704891, Control_c, 0, 64, 47
1, 704910, Control_c, 0, 64, 28
1, 704928, Control_c, 0, 64, 15
1, 704948, Control_c, 0, 64, 9
1, 704965, Control_c, 0, 64, 0
1, 705221, Poly_aftertouch_c, 0, 67, 24
1, 705228, Note_on_c, 0, 76, 0
1, 705239, Note_on_c, 0, 78, 44
1, 705269, Note_on_c, 0, 69, 30
1, 705300, Note_on_c, 0, 67, 0
1, 705300, Poly_aftertouch_c, 0, 67, 0
1, 705423, Control_c, 0, 64, 16
1, 705442, Control_c, 0, 64, 33
1, 705461, Control_c, 0, 64, 50
1, 705477, Control_c, 0, 64, 69
1, 705497, Control_c, 0, 64, 77
1, 705514, Control_c, 0, 64, 83
1, 705534, Control_c, 0, 64, 86
1, 705570, Control_c, 0, 64, 94
1, 705589, Control_c, 0, 64, 99
1, 705610, Note_on_c, 0, 78, 0
1, 705619, Note_on_c, 0, 69, 0
1, 705621, Note_on_c, 0, 60, 0
1, 705623, Control_c, 0, 64, 103
1, 706185, Note_on_c, 0, 79, 45
1, 706227, Note_on_c, 0, 59, 36
1, 706236, Note_on_c, 0, 62, 36
1, 706322, Control_c, 0, 64, 88
1, 706339, Control_c, 0, 64, 67
1, 706359, Control_c, 0, 64, 31
1, 706377, Control_c, 0, 64, 0
1, 706486, Control_c, 0, 64, 13
1, 706504, Control_c, 0, 64, 36
1, 706523, Control_c, 0, 64, 53
1, 706542, Control_c, 0, 64, 67
1, 706560, Control_c, 0, 64, 73
1, 706579, Control_c, 0, 64, 75
1, 706617, Control_c, 0, 64, 77
1, 706651, Control_c, 0, 64, 79
1, 706690, Control_c, 0, 64, 81
1, 706806, Note_on_c, 0, 74, 49
1, 706981, Poly_aftertouch_c, 0, 59, 24
1, 707002, Note_on_c, 0, 62, 0
1, 707002, Control_c, 0, 64, 83
1, 707056, Note_on_c, 0, 59, 0
1, 707056, Poly_aftertouch_c, 0, 59, 0
1, 707261, Note_on_c, 0, 71, 52
1, 707601, Note_on_c, 0, 67, 43
1, 707617, Note_on_c, 0, 62, 63
1, 707680, Control_c, 0, 64, 78
1, 707699, Control_c, 0, 64, 71
1, 707716, Control_c, 0, 64, 61
1, 707737, Control_c, 0, 64, 56
1, 707773, Control_c, 0, 64, 54
1, 708028, Control_c, 0, 64, 50
1, 708045, Control_c, 0, 64, 46
1, 708063, Control_c, 0, 64, 38
1, 708077, Note_on_c, 0, 59, 46
1, 708080, Control_c, 0, 64, 28
1, 708100, Control_c, 0, 64, 16
1, 708119, Control_c, 0, 64, 0
1, 708181, Note_on_c, 0, 62, 0
1, 708267, Control_c, 0, 64, 31
1, 708284, Control_c, 0, 64, 48
1, 708303, Control_c, 0, 64, 67
1, 708321, Control_c, 0, 64, 76
1, 708341, Control_c, 0, 64, 82
1, 708357, Control_c, 0, 64, 85
1, 708394, Control_c, 0, 64, 92
1, 708431, Control_c, 0, 64, 96
1, 708863, Note_on_c, 0, 55, 53
1, 708873, Control_c, 0, 64, 92
1, 708927, Control_c, 0, 64, 83
1, 708944, Control_c, 0, 64, 74
1, 708964, Control_c, 0, 64, 61
1, 708967, Poly_aftertouch_c, 0, 76, 127
1, 708980, Control_c, 0, 64, 47
1, 708999, Control_c, 0, 64, 31
1, 709018, Control_c, 0, 64, 12
1, 709036, Control_c, 0, 64, 0
1, 709348, Note_on_c, 0, 53, 36
1, 709443, Note_on_c, 0, 55, 0
1, 709514, Control_c, 0, 64, 12
1, 709532, Control_c, 0, 64, 30
1, 709550, Control_c, 0, 64, 41
1, 709570, Control_c, 0, 64, 58
1, 709587, Control_c, 0, 64, 72
1, 709607, Control_c, 0, 64, 77
1, 709625, Control_c, 0, 64, 80
1, 709645, Note_on_c, 0, 67, 0
1, 709645, Control_c, 0, 64, 82
1, 709664, Control_c, 0, 64, 85
1, 709679, Control_c, 0, 64, 89
1, 709696, Note_on_c, 0, 74, 0
1, 709703, Note_on_c, 0, 71, 0
1, 709717, Control_c, 0, 64, 95
1, 709755, Poly_aftertouch_c, 0, 76, 0
1, 709758, Note_on_c, 0, 79, 0
1, 709798, Note_on_c, 0, 59, 0
1, 709861, Control_c, 0, 64, 99
1, 710220, Note_on_c, 0, 81, 67
1, 710238, Note_on_c, 0, 60, 46
1, 710303, Control_c, 0, 64, 89
1, 710322, Control_c, 0, 64, 79
1, 710341, Control_c, 0, 64, 70
1, 710359, Control_c, 0, 64, 62
1, 710379, Control_c, 0, 64, 59
1, 710450, Control_c, 0, 64, 57
1, 710468, Control_c, 0, 64, 55
1, 710523, Control_c, 0, 64, 53
1, 710561, Control_c, 0, 64, 49
1, 710580, Control_c, 0, 64, 42
1, 710598, Control_c, 0, 64, 31
1, 710615, Control_c, 0, 64, 20
1, 710621, Note_on_c, 0, 83, 54
1, 710634, Note_on_c, 0, 81, 0
1, 710652, Control_c, 0, 64, 0
1, 710665, Note_on_c, 0, 62, 42
1, 710714, Note_on_c, 0, 60, 0
1, 710852, Control_c, 0, 64, 24
1, 710870, Control_c, 0, 64, 41
1, 710889, Control_c, 0, 64, 58
1, 710907, Control_c, 0, 64, 72
1, 710926, Control_c, 0, 64, 79
1, 710943, Control_c, 0, 64, 83
1, 710962, Control_c, 0, 64, 86
1, 710980, Control_c, 0, 64, 90
1, 710999, Control_c, 0, 64, 94
1, 711035, Control_c, 0, 64, 98
1, 711063, Note_on_c, 0, 83, 0
1, 711497, Poly_aftertouch_c, 0, 53, 24
1, 711627, Note_on_c, 0, 84, 54
1, 711681, Note_on_c, 0, 53, 0
1, 711681, Note_on_c, 0, 52, 22
1, 711681, Poly_aftertouch_c, 0, 53, 0
1, 711751, Control_c, 0, 64, 89
1, 711769, Control_c, 0, 64, 71
1, 711789, Control_c, 0, 64, 47
1, 711805, Control_c, 0, 64, 37
1, 711861, Control_c, 0, 64, 48
1, 711868, Note_on_c, 0, 83, 59
1, 711878, Control_c, 0, 64, 63
1, 711897, Control_c, 0, 64, 73
1, 711916, Control_c, 0, 64, 79
1, 711935, Control_c, 0, 64, 84
1, 711954, Control_c, 0, 64, 88
1, 711956, Note_on_c, 0, 84, 0
1, 711971, Control_c, 0, 64, 93
1, 711991, Control_c, 0, 64, 99
1, 712027, Control_c, 0, 64, 104
1, 712046, Note_on_c, 0, 81, 68
1, 712100, Control_c, 0, 64, 108
1, 712125, Note_on_c, 0, 83, 0
1, 712137, Control_c, 0, 64, 112
1, 712193, Control_c, 0, 64, 117
1, 712202, Note_on_c, 0, 80, 65
1, 712205, Note_on_c, 0, 81, 0
1, 712285, Control_c, 0, 64, 121
1, 712409, Note_on_c, 0, 81, 54
1, 712411, Note_on_c, 0, 80, 0
1, 712420, Note_on_c, 0, 60, 54
1, 712457, Note_on_c, 0, 53, 39
1, 712470, Control_c, 0, 64, 117
1, 712486, Control_c, 0, 64, 108
1, 712506, Control_c, 0, 64, 90
1, 712509, Note_on_c, 0, 62, 0
1, 712524, Control_c, 0, 64, 60
1, 712527, Note_on_c, 0, 52, 0
1, 712543, Control_c, 0, 64, 0
1, 712687, Control_c, 0, 64, 14
1, 712705, Control_c, 0, 64, 39
1, 712726, Control_c, 0, 64, 60
1, 712741, Control_c, 0, 64, 75
1, 712743, Note_on_c, 0, 81, 0
1, 712760, Control_c, 0, 64, 81
1, 712779, Control_c, 0, 64, 86
1, 712797, Control_c, 0, 64, 91
1, 712814, Control_c, 0, 64, 97
1, 712833, Control_c, 0, 64, 101
1, 712871, Control_c, 0, 64, 105
1, 712930, Note_on_c, 0, 53, 0
1, 713087, Note_on_c, 0, 76, 63
1, 713273, Note_on_c, 0, 76, 0
1, 713275, Note_on_c, 0, 59, 43
1, 713276, Note_on_c, 0, 77, 58
1, 713301, Note_on_c, 0, 69, 37
1, 713305, Note_on_c, 0, 50, 37
1, 713346, Note_on_c, 0, 60, 0
1, 713348, Control_c, 0, 64, 99
1, 713367, Control_c, 0, 64, 87
1, 713387, Control_c, 0, 64, 67
1, 713404, Control_c, 0, 64, 35
1, 713422, Control_c, 0, 64, 0
1, 713552, Control_c, 0, 64, 36
1, 713569, Control_c, 0, 64, 59
1, 713604, Control_c, 0, 64, 76
1, 713625, Control_c, 0, 64, 85
1, 713641, Control_c, 0, 64, 92
1, 713677, Control_c, 0, 64, 96
1, 714086, Poly_aftertouch_c, 0, 77, 24
1, 714092, Note_on_c, 0, 72, 55
1, 714116, Note_on_c, 0, 52, 38
1, 714157, Note_on_c, 0, 77, 0
1, 714157, Poly_aftertouch_c, 0, 77, 0
1, 714170, Note_on_c, 0, 50, 0
1, 714174, Control_c, 0, 64, 86
1, 714195, Control_c, 0, 64, 69
1, 714209, Control_c, 0, 64, 42
1, 714229, Control_c, 0, 64, 0
1, 714357, Control_c, 0, 64, 10
1, 714377, Control_c, 0, 64, 30
1, 714395, Control_c, 0, 64, 37
1, 714414, Control_c, 0, 64, 44
1, 714430, Control_c, 0, 64, 48
1, 714468, Control_c, 0, 64, 40
1, 714486, Control_c, 0, 64, 25
1, 714500, Note_on_c, 0, 72, 0
1, 714519, Control_c, 0, 64, 0
1, 714527, Note_on_c, 0, 71, 42
1, 714601, Note_on_c, 0, 59, 0
1, 714669, Control_c, 0, 64, 31
1, 714685, Control_c, 0, 64, 46
1, 714705, Control_c, 0, 64, 62
1, 714723, Control_c, 0, 64, 72
1, 714742, Control_c, 0, 64, 75
1, 714780, Control_c, 0, 64, 77
1, 714816, Control_c, 0, 64, 81
1, 714851, Control_c, 0, 64, 83
1, 714887, Note_on_c, 0, 59, 40
1, 714924, Control_c, 0, 64, 80
1, 714943, Control_c, 0, 64, 75
1, 714963, Control_c, 0, 64, 71
1, 715037, Control_c, 0, 64, 74
1, 715056, Control_c, 0, 64, 77
1, 715072, Control_c, 0, 64, 80
1, 715090, Control_c, 0, 64, 83
1, 715128, Control_c, 0, 64, 86
1, 715138, Note_on_c, 0, 69, 0
1, 715179, Note_on_c, 0, 59, 0
1, 715265, Note_on_c, 0, 77, 64
1, 715340, Note_on_c, 0, 71, 0
1, 715702, Note_on_c, 0, 76, 45
1, 715708, Note_on_c, 0, 68, 34
1, 715719, Note_on_c, 0, 64, 36
1, 715753, Control_c, 0, 64, 75
1, 715763, Note_on_c, 0, 77, 0
1, 715770, Control_c, 0, 64, 55
1, 715787, Control_c, 0, 64, 17
1, 715806, Control_c, 0, 64, 0
1, 715917, Control_c, 0, 64, 29
1, 715935, Control_c, 0, 64, 50
1, 715953, Control_c, 0, 64, 70
1, 715974, Control_c, 0, 64, 80
1, 715992, Control_c, 0, 64, 88
1, 716007, Control_c, 0, 64, 94
1, 716046, Control_c, 0, 64, 99
1, 716078, Note_on_c, 0, 76, 0
1, 716099, Control_c, 0, 64, 103
1, 716105, Note_on_c, 0, 68, 0
1, 716168, Note_on_c, 0, 64, 0
1, 716535, Note_on_c, 0, 74, 51
1, 716560, Note_on_c, 0, 69, 43
1, 716585, Note_on_c, 0, 57, 38
1, 716622, Note_on_c, 0, 52, 0
1, 716631, Control_c, 0, 64, 91
1, 716650, Control_c, 0, 64, 68
1, 716669, Control_c, 0, 64, 32
1, 716687, Control_c, 0, 64, 0
1, 716741, Control_c, 0, 64, 15
1, 716760, Control_c, 0, 64, 36
1, 716777, Control_c, 0, 64, 51
1, 716780, Note_on_c, 0, 74, 0
1, 716796, Control_c, 0, 64, 64
1, 716807, Note_on_c, 0, 72, 57
1, 716815, Control_c, 0, 64, 67
1, 716882, Note_on_c, 0, 72, 0
1, 716888, Control_c, 0, 64, 66
1, 716930, Note_on_c, 0, 74, 53
1, 716961, Note_on_c, 0, 74, 0
1, 717018, Note_on_c, 0, 72, 41
1, 717054, Note_on_c, 0, 72, 0
1, 717061, Note_on_c, 0, 74, 66
1, 717073, Control_c, 0, 64, 67
1, 717112, Note_on_c, 0, 74, 0
1, 717129, Control_c, 0, 64, 69
1, 717145, Note_on_c, 0, 72, 62
1, 717184, Control_c, 0, 64, 71
1, 717186, Note_on_c, 0, 72, 0
1, 717199, Note_on_c, 0, 74, 65
1, 717250, Note_on_c, 0, 74, 0
1, 717257, Control_c, 0, 64, 73
1, 717269, Note_on_c, 0, 72, 64
1, 717309, Note_on_c, 0, 72, 0
1, 717344, Note_on_c, 0, 74, 66
1, 717402, Control_c, 0, 64, 75
1, 717403, Note_on_c, 0, 74, 0
1, 717421, Note_on_c, 0, 72, 62
1, 717457, Control_c, 0, 64, 72
1, 717474, Control_c, 0, 64, 64
1, 717482, Note_on_c, 0, 52, 41
1, 717492, Control_c, 0, 64, 50
1, 717510, Control_c, 0, 64, 32
1, 717529, Control_c, 0, 64, 0
1, 717850, Note_on_c, 0, 69, 0
1, 717863, Note_on_c, 0, 71, 52
1, 717887, Note_on_c, 0, 72, 0
1, 718233, Note_on_c, 0, 71, 0
1, 718249, Note_on_c, 0, 69, 38
1, 718290, Note_on_c, 0, 48, 34
1, 718385, Poly_aftertouch_c, 0, 52, 24
1, 718430, Note_on_c, 0, 52, 0
1, 718430, Poly_aftertouch_c, 0, 52, 0
1, 718540, Control_c, 0, 64, 14
1, 718559, Control_c, 0, 64, 23
1, 718576, Control_c, 0, 64, 37
1, 718594, Control_c, 0, 64, 59
1, 718614, Control_c, 0, 64, 76
1, 718631, Control_c, 0, 64, 84
1, 718648, Control_c, 0, 64, 91
1, 718667, Note_on_c, 0, 69, 0
1, 718685, Control_c, 0, 64, 96
1, 718718, Note_on_c, 0, 48, 0
1, 718748, Poly_aftertouch_c, 0, 57, 24
1, 718835, Note_on_c, 0, 57, 0
1, 718835, Poly_aftertouch_c, 0, 57, 0
1, 719229, Note_on_c, 0, 69, 43
1, 719250, Note_on_c, 0, 45, 37
1, 719328, Control_c, 0, 64, 81
1, 719346, Control_c, 0, 64, 57
1, 719363, Control_c, 0, 64, 19
1, 719381, Control_c, 0, 64, 0
1, 719439, Control_c, 0, 64, 12
1, 719457, Control_c, 0, 64, 34
1, 719476, Control_c, 0, 64, 52
1, 719494, Control_c, 0, 64, 67
1, 719511, Control_c, 0, 64, 72
1, 719549, Control_c, 0, 64, 74
1, 719861, Control_c, 0, 64, 72
1, 719918, Control_c, 0, 64, 69
1, 719954, Control_c, 0, 64, 67
1, 719972, Control_c, 0, 64, 66
1, 719989, Control_c, 0, 64, 65
1, 720009, Control_c, 0, 64, 64
1, 720024, Note_on_c, 0, 47, 32
1, 720044, Control_c, 0, 64, 62
1, 720059, Poly_aftertouch_c, 0, 45, 24
1, 720082, Control_c, 0, 64, 60
1, 720105, Note_on_c, 0, 45, 0
1, 720105, Poly_aftertouch_c, 0, 45, 0
1, 720119, Control_c, 0, 64, 57
1, 720209, Control_c, 0, 64, 55
1, 720240, Note_on_c, 0, 72, 43
1, 720244, Control_c, 0, 64, 52
1, 720271, Note_on_c, 0, 69, 0
1, 720336, Control_c, 0, 64, 50
1, 720405, Note_on_c, 0, 72, 0
1, 720432, Note_on_c, 0, 71, 47
1, 720466, Control_c, 0, 64, 48
1, 720581, Note_on_c, 0, 71, 0
1, 720605, Note_on_c, 0, 69, 38
1, 720611, Control_c, 0, 64, 46
1, 720667, Control_c, 0, 64, 44
1, 720705, Control_c, 0, 64, 42
1, 720759, Control_c, 0, 64, 36
1, 720795, Note_on_c, 0, 69, 0
1, 720796, Control_c, 0, 64, 30
1, 720816, Control_c, 0, 64, 24
1, 720833, Control_c, 0, 64, 16
1, 720839, Note_on_c, 0, 76, 38
1, 720851, Control_c, 0, 64, 0
1, 720858, Note_on_c, 0, 48, 30
1, 720949, Note_on_c, 0, 47, 0
1, 721181, Control_c, 0, 64, 25
1, 721199, Control_c, 0, 64, 38
1, 721218, Control_c, 0, 64, 55
1, 721234, Control_c, 0, 64, 68
1, 721254, Control_c, 0, 64, 74
1, 721272, Control_c, 0, 64, 78
1, 721291, Control_c, 0, 64, 82
1, 721304, Note_on_c, 0, 76, 0
1, 721308, Control_c, 0, 64, 86
1, 721328, Control_c, 0, 64, 92
1, 721348, Control_c, 0, 64, 98
1, 721373, Note_on_c, 0, 48, 0
1, 721382, Control_c, 0, 64, 102
1, 721475, Control_c, 0, 64, 106
1, 721886, Note_on_c, 0, 66, 45
1, 721934, Note_on_c, 0, 38, 32
1, 721972, Control_c, 0, 64, 97
1, 721990, Control_c, 0, 64, 76
1, 722025, Control_c, 0, 64, 40
1, 722043, Control_c, 0, 64, 0
1, 722153, Control_c, 0, 64, 29
1, 722170, Control_c, 0, 64, 49
1, 722189, Control_c, 0, 64, 67
1, 722208, Control_c, 0, 64, 73
1, 722225, Control_c, 0, 64, 76
1, 722355, Control_c, 0, 64, 78
1, 722431, Note_on_c, 0, 38, 0
1, 722485, Note_on_c, 0, 45, 36
1, 722485, Control_c, 0, 64, 69
1, 722502, Control_c, 0, 64, 50
1, 722522, Control_c, 0, 64, 14
1, 722540, Control_c, 0, 64, 0
1, 722614, Control_c, 0, 64, 31
1, 722631, Control_c, 0, 64, 49
1, 722648, Control_c, 0, 64, 65
1, 722668, Control_c, 0, 64, 71
1, 722693, Note_on_c, 0, 45, 0
1, 722724, Control_c, 0, 64, 73
1, 722870, Control_c, 0, 64, 70
1, 722888, Control_c, 0, 64, 57
1, 722908, Control_c, 0, 64, 33
1, 722924, Control_c, 0, 64, 0
1, 722946, Note_on_c, 0, 50, 43
1, 723015, Control_c, 0, 64, 30
1, 723033, Control_c, 0, 64, 48
1, 723051, Control_c, 0, 64, 66
1, 723071, Control_c, 0, 64, 73
1, 723088, Control_c, 0, 64, 76
1, 723162, Control_c, 0, 64, 78
1, 723290, Control_c, 0, 64, 68
1, 723310, Control_c, 0, 64, 47
1, 723324, Note_on_c, 0, 69, 46
1, 723326, Note_on_c, 0, 52, 46
1, 723329, Control_c, 0, 64, 0
1, 723332, Note_on_c, 0, 50, 0
1, 723392, Note_on_c, 0, 66, 0
1, 723438, Note_on_c, 0, 69, 0
1, 723456, Note_on_c, 0, 52, 0
1, 723474, Note_on_c, 0, 54, 47
1, 723531, Control_c, 0, 64, 23
1, 723549, Control_c, 0, 64, 42
1, 723567, Control_c, 0, 64, 59
1, 723584, Control_c, 0, 64, 69
1, 723604, Control_c, 0, 64, 72
1, 723641, Control_c, 0, 64, 74
1, 723665, Note_on_c, 0, 54, 0
1, 723678, Note_on_c, 0, 72, 63
1, 723697, Control_c, 0, 64, 72
1, 723699, Note_on_c, 0, 52, 43
1, 723714, Control_c, 0, 64, 58
1, 723734, Control_c, 0, 64, 28
1, 723751, Control_c, 0, 64, 0
1, 724066, Note_on_c, 0, 54, 42
1, 724116, Control_c, 0, 64, 22
1, 724136, Control_c, 0, 64, 52
1, 724141, Note_on_c, 0, 52, 0
1, 724153, Control_c, 0, 64, 68
1, 724172, Control_c, 0, 64, 75
1, 724189, Control_c, 0, 64, 79
1, 724205, Note_on_c, 0, 54, 0
1, 724205, Control_c, 0, 64, 82
1, 724227, Control_c, 0, 64, 86
1, 724242, Note_on_c, 0, 55, 46
1, 724244, Control_c, 0, 64, 90
1, 724264, Control_c, 0, 64, 94
1, 724292, Note_on_c, 0, 55, 0
1, 724299, Control_c, 0, 64, 99
1, 724373, Control_c, 0, 64, 104
1, 724402, Note_on_c, 0, 55, 64
1, 724459, Note_on_c, 0, 62, 46
1, 724479, Note_on_c, 0, 54, 57
1, 724503, Control_c, 0, 64, 88
1, 724509, Note_on_c, 0, 54, 0
1, 724517, Note_on_c, 0, 55, 0
1, 724517, Note_on_c, 0, 55, 34
1, 724518, Control_c, 0, 64, 59
1, 724539, Control_c, 0, 64, 0
1, 724588, Note_on_c, 0, 54, 62
1, 724599, Note_on_c, 0, 55, 0
1, 724957, Note_on_c, 0, 54, 0
1, 724977, Note_on_c, 0, 55, 45
1, 725086, Note_on_c, 0, 55, 0
1, 725131, Note_on_c, 0, 57, 40
1, 725327, Note_on_c, 0, 50, 39
1, 725384, Note_on_c, 0, 57, 0
1, 725509, Note_on_c, 0, 66, 52
1, 725586, Note_on_c, 0, 62, 0
1, 725686, Note_on_c, 0, 54, 48
1, 725695, Note_on_c, 0, 66, 0
1, 725698, Note_on_c, 0, 64, 58
1, 725850, Note_on_c, 0, 64, 0
1, 725871, Note_on_c, 0, 62, 55
1, 726085, Note_on_c, 0, 71, 55
1, 726101, Note_on_c, 0, 55, 36
1, 726109, Note_on_c, 0, 54, 0
1, 726114, Note_on_c, 0, 72, 0
1, 726416, Note_on_c, 0, 62, 0
1, 726484, Note_on_c, 0, 59, 59
1, 726577, Control_c, 0, 64, 9
1, 726595, Control_c, 0, 64, 27
1, 726613, Control_c, 0, 64, 43
1, 726630, Control_c, 0, 64, 59
1, 726650, Control_c, 0, 64, 65
1, 726669, Control_c, 0, 64, 66
1, 726738, Control_c, 0, 64, 67
1, 726996, Note_on_c, 0, 71, 0
1, 726999, Note_on_c, 0, 69, 53
1, 727014, Control_c, 0, 64, 63
1, 727034, Control_c, 0, 64, 55
1, 727046, Note_on_c, 0, 60, 45
1, 727051, Control_c, 0, 64, 38
1, 727064, Note_on_c, 0, 59, 0
1, 727068, Control_c, 0, 64, 0
1, 727109, Note_on_c, 0, 50, 0
1, 727217, Control_c, 0, 64, 35
1, 727234, Note_on_c, 0, 55, 0
1, 727235, Control_c, 0, 64, 54
1, 727254, Control_c, 0, 64, 66
1, 727272, Control_c, 0, 64, 69
1, 727327, Control_c, 0, 64, 71
1, 727365, Control_c, 0, 64, 74
1, 727381, Control_c, 0, 64, 76
1, 727418, Control_c, 0, 64, 78
1, 727493, Control_c, 0, 64, 80
1, 727540, Note_on_c, 0, 55, 42
1, 727926, Note_on_c, 0, 54, 38
1, 727928, Note_on_c, 0, 60, 0
1, 727978, Note_on_c, 0, 55, 0
1, 727987, Control_c, 0, 64, 82
1, 728060, Control_c, 0, 64, 85
1, 728154, Control_c, 0, 64, 87
1, 728264, Note_on_c, 0, 54, 0
1, 728267, Note_on_c, 0, 76, 65
1, 728292, Note_on_c, 0, 52, 38
1, 728300, Control_c, 0, 64, 82
1, 728317, Control_c, 0, 64, 76
1, 728336, Control_c, 0, 64, 72
1, 728392, Control_c, 0, 64, 75
1, 728410, Control_c, 0, 64, 77
1, 728429, Control_c, 0, 64, 80
1, 728448, Control_c, 0, 64, 82
1, 728467, Control_c, 0, 64, 84
1, 728483, Control_c, 0, 64, 86
1, 728700, Note_on_c, 0, 51, 41
1, 728700, Note_on_c, 0, 81, 65
1, 728702, Control_c, 0, 64, 77
1, 728719, Control_c, 0, 64, 66
1, 728728, Note_on_c, 0, 52, 0
1, 728733, Note_on_c, 0, 76, 0
1, 728738, Control_c, 0, 64, 53
1, 728757, Control_c, 0, 64, 47
1, 728794, Control_c, 0, 64, 50
1, 728813, Control_c, 0, 64, 58
1, 728832, Control_c, 0, 64, 65
1, 728850, Control_c, 0, 64, 70
1, 728867, Control_c, 0, 64, 73
1, 728905, Control_c, 0, 64, 76
1, 728943, Control_c, 0, 64, 78
1, 728978, Control_c, 0, 64, 81
1, 729015, Control_c, 0, 64, 83
1, 729023, Note_on_c, 0, 51, 0
1, 729055, Note_on_c, 0, 52, 45
1, 729070, Control_c, 0, 64, 80
1, 729090, Control_c, 0, 64, 71
1, 729093, Note_on_c, 0, 69, 0
1, 729107, Control_c, 0, 64, 57
1, 729126, Control_c, 0, 64, 49
1, 729163, Control_c, 0, 64, 51
1, 729180, Control_c, 0, 64, 59
1, 729199, Control_c, 0, 64, 66
1, 729217, Control_c, 0, 64, 71
1, 729235, Control_c, 0, 64, 74
1, 729272, Control_c, 0, 64, 76
1, 729457, Control_c, 0, 64, 72
1, 729474, Control_c, 0, 64, 67
1, 729477, Note_on_c, 0, 71, 50
1, 729477, Note_on_c, 0, 51, 42
1, 729507, Control_c, 0, 64, 62
1, 729526, Control_c, 0, 64, 57
1, 729535, Note_on_c, 0, 52, 0
1, 729545, Control_c, 0, 64, 51
1, 729563, Control_c, 0, 64, 38
1, 729582, Control_c, 0, 64, 9
1, 729600, Control_c, 0, 64, 0
1, 729872, Note_on_c, 0, 51, 0
1, 729882, Note_on_c, 0, 52, 43
1, 729894, Control_c, 0, 64, 29
1, 729914, Control_c, 0, 64, 39
1, 729931, Control_c, 0, 64, 51
1, 729951, Control_c, 0, 64, 60
1, 729969, Control_c, 0, 64, 64
1, 730024, Note_on_c, 0, 52, 0
1, 730061, Control_c, 0, 64, 65
1, 730073, Note_on_c, 0, 54, 40
1, 730171, Control_c, 0, 64, 64
1, 730208, Note_on_c, 0, 81, 0
1, 730208, Control_c, 0, 64, 63
1, 730259, Note_on_c, 0, 47, 45
1, 730262, Control_c, 0, 64, 62
1, 730300, Control_c, 0, 64, 61
1, 730325, Note_on_c, 0, 54, 0
1, 730373, Control_c, 0, 64, 60
1, 730445, Note_on_c, 0, 81, 60
1, 730641, Note_on_c, 0, 79, 62
1, 730654, Note_on_c, 0, 51, 37
1, 730657, Note_on_c, 0, 81, 0
1, 730761, Note_on_c, 0, 47, 0
1, 730808, Note_on_c, 0, 78, 61
1, 730814, Note_on_c, 0, 79, 0
1, 730829, Control_c, 0, 64, 58
1, 731015, Note_on_c, 0, 78, 0
1, 731015, Control_c, 0, 64, 53
1, 731027, Note_on_c, 0, 52, 38
1, 731028, Note_on_c, 0, 79, 47
1, 731034, Control_c, 0, 64, 42
1, 731051, Control_c, 0, 64, 19
1, 731063, Note_on_c, 0, 51, 0
1, 731069, Control_c, 0, 64, 0
1, 731309, Control_c, 0, 64, 22
1, 731327, Control_c, 0, 64, 40
1, 731347, Control_c, 0, 64, 56
1, 731378, Control_c, 0, 64, 67
1, 731397, Control_c, 0, 64, 72
1, 731416, Control_c, 0, 64, 74
1, 731426, Note_on_c, 0, 54, 46
1, 731433, Note_on_c, 0, 79, 0
1, 731450, Note_on_c, 0, 52, 0
1, 731451, Control_c, 0, 64, 77
1, 731491, Control_c, 0, 64, 81
1, 731516, Note_on_c, 0, 71, 0
1, 731608, Note_on_c, 0, 55, 53
1, 731623, Note_on_c, 0, 54, 0
1, 731838, Control_c, 0, 64, 78
1, 731858, Control_c, 0, 64, 76
1, 731867, Note_on_c, 0, 72, 53
1, 731875, Control_c, 0, 64, 74
1, 731893, Control_c, 0, 64, 71
1, 731902, Note_on_c, 0, 57, 42
1, 731914, Control_c, 0, 64, 68
1, 731932, Control_c, 0, 64, 66
1, 731937, Note_on_c, 0, 55, 0
1, 731951, Control_c, 0, 64, 65
1, 731969, Control_c, 0, 64, 63
1, 731986, Control_c, 0, 64, 61
1, 732007, Control_c, 0, 64, 60
1, 732023, Control_c, 0, 64, 58
1, 732065, Note_on_c, 0, 71, 60
1, 732105, Note_on_c, 0, 72, 0
1, 732115, Control_c, 0, 64, 56
1, 732191, Control_c, 0, 64, 54
1, 732229, Note_on_c, 0, 69, 64
1, 732236, Note_on_c, 0, 71, 0
1, 732264, Control_c, 0, 64, 52
1, 732351, Control_c, 0, 64, 50
1, 732378, Note_on_c, 0, 69, 0
1, 732409, Note_on_c, 0, 67, 56
1, 732426, Control_c, 0, 64, 48
1, 732571, Note_on_c, 0, 67, 0
1, 732572, Control_c, 0, 64, 46
1, 732578, Note_on_c, 0, 66, 57
1, 732735, Note_on_c, 0, 66, 0
1, 732748, Note_on_c, 0, 76, 57
1, 732868, Control_c, 0, 64, 44
1, 732929, Note_on_c, 0, 54, 36
1, 732948, Note_on_c, 0, 74, 56
1, 732969, Note_on_c, 0, 76, 0
1, 733089, Note_on_c, 0, 74, 0
1, 733125, Note_on_c, 0, 72, 47
1, 733381, Poly_aftertouch_c, 0, 54, 20
1, 733382, Note_on_c, 0, 54, 0
1, 733382, Poly_aftertouch_c, 0, 54, 0
1, 733387, Note_on_c, 0, 74, 46
1, 733396, Note_on_c, 0, 72, 0
1, 733410, Note_on_c, 0, 48, 32
1, 733415, Control_c, 0, 64, 41
1, 733435, Control_c, 0, 64, 31
1, 733453, Control_c, 0, 64, 0
1, 733656, Control_c, 0, 64, 29
1, 733674, Control_c, 0, 64, 41
1, 733693, Control_c, 0, 64, 56
1, 733710, Control_c, 0, 64, 65
1, 733728, Control_c, 0, 64, 69
1, 733765, Control_c, 0, 64, 71
1, 733805, Control_c, 0, 64, 74
1, 733841, Control_c, 0, 64, 77
1, 733847, Note_on_c, 0, 74, 0
1, 733918, Note_on_c, 0, 48, 0
1, 734222, Control_c, 0, 64, 74
1, 734298, Control_c, 0, 64, 72
1, 734386, Note_on_c, 0, 62, 52
1, 734390, Control_c, 0, 64, 70
1, 734411, Note_on_c, 0, 60, 39
1, 734424, Control_c, 0, 64, 68
1, 734433, Note_on_c, 0, 47, 28
1, 734444, Control_c, 0, 64, 67
1, 734462, Control_c, 0, 64, 65
1, 734481, Control_c, 0, 64, 64
1, 734499, Control_c, 0, 64, 62
1, 734519, Control_c, 0, 64, 61
1, 734537, Control_c, 0, 64, 60
1, 734592, Control_c, 0, 64, 58
1, 734705, Note_on_c, 0, 60, 0
1, 734738, Poly_aftertouch_c, 0, 57, 24
1, 734779, Note_on_c, 0, 62, 0
1, 734779, Note_on_c, 0, 57, 0
1, 734779, Poly_aftertouch_c, 0, 57, 0
1, 734792, Note_on_c, 0, 47, 0
1, 735252, Note_on_c, 0, 64, 45
1, 735268, Note_on_c, 0, 59, 39
1, 735280, Note_on_c, 0, 48, 29
1, 735288, Note_on_c, 0, 55, 33
1, 735341, Control_c, 0, 64, 56
1, 735526, Note_on_c, 0, 55, 0
1, 735563, Note_on_c, 0, 59, 0
1, 735588, Note_on_c, 0, 48, 0
1, 735609, Note_on_c, 0, 64, 0
1, 736204, Note_on_c, 0, 66, 38
1, 736232, Note_on_c, 0, 57, 20
1, 736234, Note_on_c, 0, 62, 28
1, 736235, Note_on_c, 0, 50, 31
1, 736504, Poly_aftertouch_c, 0, 57, 20
1, 736508, Note_on_c, 0, 57, 0
1, 736508, Poly_aftertouch_c, 0, 57, 0
1, 736529, Note_on_c, 0, 50, 0
1, 736566, Note_on_c, 0, 66, 0
1, 736606, Note_on_c, 0, 62, 0
1, 737048, Control_c, 0, 64, 59
1, 737067, Control_c, 0, 64, 60
1, 737086, Control_c, 0, 64, 62
1, 737104, Control_c, 0, 64, 63
1, 737123, Control_c, 0, 64, 65
1, 737140, Control_c, 0, 64, 66
1, 737158, Control_c, 0, 64, 67
1, 737196, Control_c, 0, 64, 70
1, 737231, Control_c, 0, 64, 73
1, 737269, Control_c, 0, 64, 76
1, 737306, Control_c, 0, 64, 79
1, 737343, Control_c, 0, 64, 82
1, 737379, Control_c, 0, 64, 84
1, 737384, Note_on_c, 0, 67, 40
1, 737415, Control_c, 0, 64, 87
1, 737430, Note_on_c, 0, 59, 27
1, 737432, Note_on_c, 0, 62, 31
1, 737436, Note_on_c, 0, 43, 31
1, 737471, Control_c, 0, 64, 91
1, 737546, Control_c, 0, 64, 95
1, 737637, Control_c, 0, 64, 99
1, 737803, Control_c, 0, 64, 103
1, 738095, Note_on_c, 0, 43, 0
1, 738740, Control_c, 0, 64, 99
1, 738794, Control_c, 0, 64, 95
1, 738864, Control_c, 0, 64, 90
1, 738899, Note_on_c, 0, 47, 42
1, 738901, Control_c, 0, 64, 86
1, 738919, Control_c, 0, 64, 82
1, 738938, Control_c, 0, 64, 77
1, 738957, Control_c, 0, 64, 72
1, 738975, Control_c, 0, 64, 68
1, 738994, Control_c, 0, 64, 66
1, 739067, Control_c, 0, 64, 65
1, 739144, Note_on_c, 0, 47, 0
1, 739196, Control_c, 0, 64, 64
1, 739233, Control_c, 0, 64, 63
1, 739398, Control_c, 0, 64, 62
1, 739451, Note_on_c, 0, 50, 26
1, 739527, Control_c, 0, 64, 61
1, 739656, Control_c, 0, 64, 60
1, 739767, Control_c, 0, 64, 58
1, 739855, Control_c, 0, 64, 56
1, 739957, Note_on_c, 0, 50, 0
1, 740241, Control_c, 0, 64, 59
1, 740259, Control_c, 0, 64, 61
1, 740277, Control_c, 0, 64, 63
1, 740297, Control_c, 0, 64, 66
1, 740314, Control_c, 0, 64, 68
1, 740334, Control_c, 0, 64, 70
1, 740353, Control_c, 0, 64, 73
1, 740371, Control_c, 0, 64, 76
1, 740390, Control_c, 0, 64, 79
1, 740407, Control_c, 0, 64, 82
1, 740445, Control_c, 0, 64, 86
1, 740463, Control_c, 0, 64, 88
1, 740499, Control_c, 0, 64, 93
1, 740573, Control_c, 0, 64, 97
1, 740683, Control_c, 0, 64, 101
1, 740756, Note_on_c, 0, 55, 39
1, 741087, Control_c, 0, 64, 105
1, 741853, Poly_aftertouch_c, 0, 55, 24
1, 742002, Control_c, 0, 64, 100
1, 742094, Control_c, 0, 64, 96
1, 742149, Control_c, 0, 64, 92
1, 742172, Poly_aftertouch_c, 0, 59, 24
1, 742243, Control_c, 0, 64, 88
1, 742279, Control_c, 0, 64, 85
1, 742297, Control_c, 0, 64, 83
1, 742315, Control_c, 0, 64, 81
1, 742334, Control_c, 0, 64, 78
1, 742336, Poly_aftertouch_c, 0, 55, 22
1, 742353, Control_c, 0, 64, 75
1, 742371, Control_c, 0, 64, 73
1, 742406, Control_c, 0, 64, 71
1, 742445, Control_c, 0, 64, 68
1, 742464, Control_c, 0, 64, 66
1, 742483, Control_c, 0, 64, 65
1, 742501, Control_c, 0, 64, 64
1, 742517, Control_c, 0, 64, 63
1, 742555, Control_c, 0, 64, 62
1, 742584, Poly_aftertouch_c, 0, 55, 20
1, 742606, Control_c, 0, 64, 60
1, 742643, Control_c, 0, 64, 58
1, 742698, Control_c, 0, 64, 56
1, 742755, Control_c, 0, 64, 53
1, 742790, Control_c, 0, 64, 51
1, 742829, Poly_aftertouch_c, 0, 59, 22
1, 742844, Control_c, 0, 64, 49
1, 742944, Note_on_c, 0, 59, 0
1, 742944, Poly_aftertouch_c, 0, 59, 0
1, 742946, Note_on_c, 0, 55, 0
1, 742946, Poly_aftertouch_c, 0, 55, 0
1, 742976, Control_c, 0, 64, 47
1, 743068, Note_on_c, 0, 67, 0
1, 743122, Note_on_c, 0, 62, 0
1, 743122, Control_c, 0, 64, 45
1, 744644, Control_c, 0, 64, 47
1, 744716, Control_c, 0, 64, 50
1, 744735, Control_c, 0, 64, 52
1, 744753, Control_c, 0, 64, 55
1, 744790, Control_c, 0, 64, 57
1, 744829, Control_c, 0, 64, 59
1, 744847, Control_c, 0, 64, 61
1, 744865, Control_c, 0, 64, 63
1, 744883, Control_c, 0, 64, 64
1, 744920, Control_c, 0, 64, 66
1, 744937, Control_c, 0, 64, 67
1, 744955, Control_c, 0, 64, 68
1, 744993, Control_c, 0, 64, 71
1, 745030, Control_c, 0, 64, 74
1, 745050, Control_c, 0, 64, 76
1, 745067, Control_c, 0, 64, 78
1, 745087, Control_c, 0, 64, 80
1, 745103, Control_c, 0, 64, 82
1, 745140, Control_c, 0, 64, 86
1, 745195, Control_c, 0, 64, 92
1, 745233, Control_c, 0, 64, 97
1, 745290, Control_c, 0, 64, 102
1, 745361, Control_c, 0, 64, 107
1, 745449, Control_c, 0, 64, 111
1, 745524, Control_c, 0, 64, 115
1, 745635, Control_c, 0, 64, 120
1, 746278, Control_c, 0, 64, 116
1, 746349, Control_c, 0, 64, 112
1, 746385, Control_c, 0, 64, 106
1, 746405, Control_c, 0, 64, 99
1, 746423, Control_c, 0, 64, 86
1, 746442, Control_c, 0, 64, 67
1, 746462, Control_c, 0, 64, 40
1, 746479, Control_c, 0, 64, 11
1, 746515, Control_c, 0, 64, 0
1, 746901, Control_c, 0, 64, 10
1, 746921, Control_c, 0, 64, 14
1, 746922, Control_c, 0, 67, 117
1, 746939, Control_c, 0, 67, 103
1, 746958, Control_c, 0, 64, 20
1, 746959, Control_c, 0, 67, 79
1, 746975, Control_c, 0, 67, 49
1, 746993, Control_c, 0, 64, 25
1, 746994, Control_c, 0, 67, 14
1, 747012, Control_c, 0, 67, 0
1, 747030, Control_c, 0, 64, 30
1, 747085, Control_c, 0, 64, 36
1, 747103, Control_c, 0, 64, 41
1, 747123, Control_c, 0, 64, 53
1, 747141, Control_c, 0, 64, 65
1, 747160, Control_c, 0, 64, 71
1, 747178, Control_c, 0, 64, 74
1, 747214, Control_c, 0, 64, 76
1, 747251, Control_c, 0, 64, 80
1, 747284, Control_c, 0, 64, 83
1, 747302, Control_c, 0, 64, 85
1, 747321, Control_c, 0, 64, 87
1, 747396, Control_c, 0, 64, 91
1, 747839, Control_c, 0, 67, 9
1, 747910, Control_c, 0, 67, 14
1, 747948, Control_c, 0, 67, 19
1, 748039, Control_c, 0, 67, 25
1, 748095, Control_c, 0, 67, 30
1, 748131, Control_c, 0, 67, 38
1, 748151, Control_c, 0, 64, 88
1, 748152, Control_c, 0, 67, 43
1, 748168, Control_c, 0, 67, 47
1, 748219, Control_c, 0, 64, 86
1, 748221, Control_c, 0, 67, 54
1, 748256, Control_c, 0, 67, 61
1, 748276, Control_c, 0, 64, 84
1, 748277, Control_c, 0, 67, 65
1, 748293, Control_c, 0, 67, 69
1, 748313, Control_c, 0, 67, 73
1, 748331, Control_c, 0, 64, 82
1, 748332, Control_c, 0, 67, 78
1, 748350, Control_c, 0, 67, 82
1, 748369, Control_c, 0, 67, 86
1, 748404, Control_c, 0, 67, 94
1, 748423, Control_c, 0, 67, 99
1, 748442, Control_c, 0, 67, 104
1, 748459, Control_c, 0, 64, 80
1, 748460, Control_c, 0, 67, 110
1, 748477, Control_c, 0, 67, 116
1, 748515, Control_c, 0, 67, 122
1, 748589, Control_c, 0, 67, 127
1, 748698, Control_c, 0, 64, 78
1, 750003, Control_c, 0, 64, 76
1, 750184, Control_c, 0, 64, 74
1, 750366, Note_on_c, 0, 74, 49
1, 750366, Control_c, 0, 64, 67
1, 750386, Control_c, 0, 64, 47
1, 750396, Note_on_c, 0, 74, 0
1, 750402, Control_c, 0, 64, 0
1, 750471, Note_on_c, 0, 79, 73
1, 750510, Note_on_c, 0, 79, 0
1, 750596, Note_on_c, 0, 83, 58
1, 750634, Note_on_c, 0, 83, 0
1, 750706, Note_on_c, 0, 78, 62
1, 750740, Note_on_c, 0, 78, 0
1, 750823, Note_on_c, 0, 79, 69
1, 750873, Note_on_c, 0, 79, 0
1, 750941, Note_on_c, 0, 83, 57
1, 750973, Note_on_c, 0, 83, 0
1, 751077, Note_on_c, 0, 74, 62
1, 751114, Note_on_c, 0, 74, 0
1, 751191, Note_on_c, 0, 79, 72
1, 751230, Note_on_c, 0, 79, 0
1, 751308, Note_on_c, 0, 83, 63
1, 751338, Note_on_c, 0, 83, 0
1, 751429, Note_on_c, 0, 78, 57
1, 751454, Note_on_c, 0, 78, 0
1, 751541, Note_on_c, 0, 79, 67
1, 751577, Note_on_c, 0, 79, 0
1, 751657, Note_on_c, 0, 83, 63
1, 751700, Note_on_c, 0, 83, 0
1, 751777, Note_on_c, 0, 74, 60
1, 751807, Note_on_c, 0, 74, 0
1, 751891, Note_on_c, 0, 76, 71
1, 751964, Note_on_c, 0, 76, 0
1, 752014, Note_on_c, 0, 72, 64
1, 752057, Note_on_c, 0, 72, 0
1, 752136, Note_on_c, 0, 67, 58
1, 752172, Note_on_c, 0, 67, 0
1, 752263, Note_on_c, 0, 79, 59
1, 752532, Note_on_c, 0, 72, 58
1, 752541, Note_on_c, 0, 79, 0
1, 752564, Note_on_c, 0, 72, 0
1, 752644, Note_on_c, 0, 74, 72
1, 752696, Note_on_c, 0, 74, 0
1, 752764, Note_on_c, 0, 71, 69
1, 752799, Note_on_c, 0, 71, 0
1, 752876, Note_on_c, 0, 67, 59
1, 752930, Note_on_c, 0, 67, 0
1, 753015, Note_on_c, 0, 79, 65
1, 753249, Note_on_c, 0, 79, 0
1, 753277, Note_on_c, 0, 71, 55
1, 753308, Note_on_c, 0, 71, 0
1, 753384, Note_on_c, 0, 72, 69
1, 753425, Note_on_c, 0, 72, 0
1, 753494, Note_on_c, 0, 74, 78
1, 753539, Note_on_c, 0, 74, 0
1, 753620, Note_on_c, 0, 76, 69
1, 753653, Note_on_c, 0, 76, 0
1, 753735, Note_on_c, 0, 74, 74
1, 753770, Note_on_c, 0, 74, 0
1, 753867, Note_on_c, 0, 76, 67
1, 753912, Note_on_c, 0, 76, 0
1, 753980, Note_on_c, 0, 72, 67
1, 754015, Note_on_c, 0, 72, 0
1, 754103, Note_on_c, 0, 71, 64
1, 754148, Note_on_c, 0, 71, 0
1, 754208, Note_on_c, 0, 74, 66
1, 754243, Note_on_c, 0, 74, 0
1, 754347, Note_on_c, 0, 79, 53
1, 754393, Note_on_c, 0, 79, 0
1, 754456, Note_on_c, 0, 83, 65
1, 754496, Note_on_c, 0, 83, 0
1, 754584, Note_on_c, 0, 81, 60
1, 754617, Note_on_c, 0, 81, 0
1, 754694, Note_on_c, 0, 79, 68
1, 754699, Note_on_c, 0, 67, 65
1, 754738, Note_on_c, 0, 79, 0
1, 754751, Note_on_c, 0, 67, 0
1, 754831, Note_on_c, 0, 74, 77
1, 754844, Control_c, 0, 67, 123
1, 754846, Note_on_c, 0, 81, 60
1, 754862, Control_c, 0, 67, 109
1, 754867, Note_on_c, 0, 81, 0
1, 754876, Note_on_c, 0, 74, 0
1, 754881, Control_c, 0, 67, 89
1, 754899, Control_c, 0, 67, 62
1, 754918, Control_c, 0, 67, 32
1, 754954, Control_c, 0, 67, 0
1, 754968, Note_on_c, 0, 78, 63
1, 755002, Note_on_c, 0, 78, 0
1, 755085, Note_on_c, 0, 73, 65
1, 755089, Note_on_c, 0, 81, 68
1, 755121, Note_on_c, 0, 81, 0
1, 755127, Note_on_c, 0, 73, 0
1, 755206, Note_on_c, 0, 81, 67
1, 755212, Note_on_c, 0, 74, 59
1, 755228, Note_on_c, 0, 81, 0
1, 755234, Note_on_c, 0, 74, 0
1, 755334, Note_on_c, 0, 78, 56
1, 755379, Note_on_c, 0, 78, 0
1, 755451, Note_on_c, 0, 69, 66
1, 755459, Note_on_c, 0, 81, 71
1, 755488, Note_on_c, 0, 81, 0
1, 755502, Note_on_c, 0, 69, 0
1, 755574, Note_on_c, 0, 74, 72
1, 755580, Note_on_c, 0, 81, 71
1, 755600, Note_on_c, 0, 81, 0
1, 755612, Note_on_c, 0, 74, 0
1, 755721, Note_on_c, 0, 78, 61
1, 755759, Note_on_c, 0, 78, 0
1, 755852, Note_on_c, 0, 73, 69
1, 755855, Note_on_c, 0, 81, 67
1, 755872, Note_on_c, 0, 81, 0
1, 755906, Note_on_c, 0, 73, 0
1, 755960, Note_on_c, 0, 81, 69
1, 755964, Note_on_c, 0, 74, 67
1, 755991, Note_on_c, 0, 81, 0
1, 756005, Note_on_c, 0, 74, 0
1, 756076, Note_on_c, 0, 78, 67
1, 756117, Note_on_c, 0, 78, 0
1, 756207, Note_on_c, 0, 69, 61
1, 756209, Note_on_c, 0, 81, 65
1, 756241, Note_on_c, 0, 69, 0
1, 756251, Note_on_c, 0, 81, 0
1, 756329, Note_on_c, 0, 74, 63
1, 756333, Note_on_c, 0, 71, 65
1, 756368, Note_on_c, 0, 71, 0
1, 756372, Note_on_c, 0, 74, 0
1, 756444, Note_on_c, 0, 67, 67
1, 756459, Note_on_c, 0, 79, 51
1, 756474, Note_on_c, 0, 67, 0
1, 756488, Note_on_c, 0, 79, 0
1, 756549, Note_on_c, 0, 62, 68
1, 756566, Note_on_c, 0, 83, 66
1, 756584, Note_on_c, 0, 62, 0
1, 756601, Note_on_c, 0, 83, 0
1, 756705, Note_on_c, 0, 83, 72
1, 756715, Note_on_c, 0, 74, 73
1, 756853, Note_on_c, 0, 79, 56
1, 756857, Note_on_c, 0, 83, 0
1, 756868, Note_on_c, 0, 74, 0
1, 756901, Note_on_c, 0, 79, 0
1, 756968, Note_on_c, 0, 67, 64
1, 756989, Note_on_c, 0, 74, 53
1, 757011, Note_on_c, 0, 67, 0
1, 757017, Note_on_c, 0, 74, 0
1, 757099, Note_on_c, 0, 69, 74
1, 757103, Note_on_c, 0, 74, 71
1, 757131, Note_on_c, 0, 69, 0
1, 757153, Note_on_c, 0, 74, 0
1, 757219, Note_on_c, 0, 66, 65
1, 757231, Note_on_c, 0, 78, 65
1, 757255, Note_on_c, 0, 66, 0
1, 757267, Note_on_c, 0, 78, 0
1, 757334, Note_on_c, 0, 62, 68
1, 757354, Note_on_c, 0, 81, 61
1, 757368, Note_on_c, 0, 62, 0
1, 757378, Note_on_c, 0, 81, 0
1, 757466, Note_on_c, 0, 81, 73
1, 757467, Note_on_c, 0, 74, 75
1, 757556, Note_on_c, 0, 74, 0
1, 757605, Note_on_c, 0, 78, 67
1, 757614, Note_on_c, 0, 81, 0
1, 757660, Note_on_c, 0, 78, 0
1, 757736, Note_on_c, 0, 66, 62
1, 757737, Note_on_c, 0, 74, 69
1, 757778, Note_on_c, 0, 74, 0
1, 757781, Note_on_c, 0, 66, 0
1, 757847, Note_on_c, 0, 74, 70
1, 757859, Note_on_c, 0, 67, 78
1, 757891, Note_on_c, 0, 67, 0
1, 757978, Note_on_c, 0, 69, 75
1, 758011, Note_on_c, 0, 69, 0
1, 758091, Note_on_c, 0, 71, 72
1, 758127, Control_c, 0, 67, 8
1, 758132, Note_on_c, 0, 71, 0
1, 758208, Note_on_c, 0, 73, 69
1, 758218, Note_on_c, 0, 69, 74
1, 758246, Note_on_c, 0, 74, 0
1, 758252, Note_on_c, 0, 69, 0
1, 758346, Note_on_c, 0, 71, 64
1, 758384, Note_on_c, 0, 71, 0
1, 758475, Note_on_c, 0, 67, 67
1, 758511, Control_c, 0, 67, 12
1, 758521, Note_on_c, 0, 67, 0
1, 758610, Note_on_c, 0, 66, 69
1, 758619, Note_on_c, 0, 74, 63
1, 758623, Note_on_c, 0, 73, 0
1, 758645, Note_on_c, 0, 66, 0
1, 758739, Note_on_c, 0, 69, 68
1, 758771, Note_on_c, 0, 69, 0
1, 758857, Note_on_c, 0, 72, 59
1, 758884, Note_on_c, 0, 72, 0
1, 758933, Note_on_c, 0, 74, 0
1, 758983, Note_on_c, 0, 78, 74
1, 758984, Note_on_c, 0, 76, 71
1, 759045, Note_on_c, 0, 76, 0
1, 759116, Note_on_c, 0, 74, 53
1, 759143, Note_on_c, 0, 74, 0
1, 759236, Note_on_c, 0, 62, 84
1, 759253, Note_on_c, 0, 72, 54
1, 759289, Note_on_c, 0, 62, 0
1, 759304, Note_on_c, 0, 72, 0
1, 759371, Note_on_c, 0, 67, 88
1, 759375, Note_on_c, 0, 71, 59
1, 759376, Note_on_c, 0, 79, 70
1, 759400, Note_on_c, 0, 78, 0
1, 759402, Note_on_c, 0, 67, 0
1, 759403, Note_on_c, 0, 71, 0
1, 759429, Note_on_c, 0, 79, 0
1, 759514, Note_on_c, 0, 71, 70
1, 759547, Note_on_c, 0, 71, 0
1, 759637, Note_on_c, 0, 66, 76
1, 759638, Note_on_c, 0, 81, 77
1, 759648, Note_on_c, 0, 74, 64
1, 759670, Note_on_c, 0, 81, 0
1, 759673, Note_on_c, 0, 74, 0
1, 759678, Note_on_c, 0, 66, 0
1, 759761, Note_on_c, 0, 67, 79
1, 759765, Note_on_c, 0, 74, 70
1, 759768, Note_on_c, 0, 83, 72
1, 759787, Note_on_c, 0, 67, 0
1, 759802, Note_on_c, 0, 83, 0
1, 759809, Note_on_c, 0, 74, 0
1, 759895, Note_on_c, 0, 71, 62
1, 759919, Note_on_c, 0, 71, 0
1, 760014, Note_on_c, 0, 62, 75
1, 760014, Note_on_c, 0, 84, 82
1, 760023, Note_on_c, 0, 74, 70
1, 760048, Note_on_c, 0, 84, 0
1, 760050, Note_on_c, 0, 74, 0
1, 760054, Note_on_c, 0, 62, 0
1, 760137, Note_on_c, 0, 67, 81
1, 760140, Note_on_c, 0, 83, 77
1, 760144, Note_on_c, 0, 74, 64
1, 760171, Note_on_c, 0, 67, 0
1, 760187, Note_on_c, 0, 74, 0
1, 760202, Note_on_c, 0, 83, 0
1, 760271, Note_on_c, 0, 71, 65
1, 760304, Note_on_c, 0, 71, 0
1, 760397, Note_on_c, 0, 81, 80
1, 760405, Note_on_c, 0, 66, 77
1, 760414, Note_on_c, 0, 74, 56
1, 760429, Note_on_c, 0, 81, 0
1, 760443, Note_on_c, 0, 74, 0
1, 760443, Note_on_c, 0, 66, 0
1, 760528, Note_on_c, 0, 74, 71
1, 760528, Note_on_c, 0, 79, 81
1, 760532, Note_on_c, 0, 67, 74
1, 760561, Note_on_c, 0, 67, 0
1, 760567, Note_on_c, 0, 74, 0
1, 760654, Note_on_c, 0, 71, 68
1, 760693, Note_on_c, 0, 71, 0
1, 760781, Note_on_c, 0, 71, 72
1, 760788, Note_on_c, 0, 62, 74
1, 760821, Note_on_c, 0, 71, 0
1, 760821, Note_on_c, 0, 62, 0
1, 760908, Note_on_c, 0, 67, 73
1, 760910, Note_on_c, 0, 64, 77
1, 760944, Note_on_c, 0, 64, 0
1, 760950, Note_on_c, 0, 67, 0
1, 761030, Note_on_c, 0, 60, 80
1, 761033, Note_on_c, 0, 72, 64
1, 761059, Note_on_c, 0, 60, 0
1, 761075, Note_on_c, 0, 72, 0
1, 761150, Note_on_c, 0, 76, 67
1, 761152, Note_on_c, 0, 55, 69
1, 761184, Note_on_c, 0, 55, 0
1, 761187, Note_on_c, 0, 76, 0
1, 761278, Note_on_c, 0, 67, 85
1, 761286, Control_c, 0, 64, 31
1, 761296, Note_on_c, 0, 76, 68
1, 761304, Control_c, 0, 64, 57
1, 761336, Control_c, 0, 64, 69
1, 761355, Control_c, 0, 64, 75
1, 761374, Control_c, 0, 64, 79
1, 761391, Control_c, 0, 64, 83
1, 761409, Control_c, 0, 64, 86
1, 761418, Note_on_c, 0, 67, 0
1, 761426, Note_on_c, 0, 72, 66
1, 761465, Control_c, 0, 64, 91
1, 761481, Note_on_c, 0, 76, 0
1, 761492, Note_on_c, 0, 72, 0
1, 761560, Note_on_c, 0, 60, 72
1, 761562, Note_on_c, 0, 67, 47
1, 761594, Control_c, 0, 64, 83
1, 761595, Note_on_c, 0, 67, 0
1, 761597, Note_on_c, 0, 60, 0
1, 761613, Control_c, 0, 64, 58
1, 761631, Control_c, 0, 64, 0
1, 761670, Note_on_c, 0, 67, 77
1, 761679, Note_on_c, 0, 62, 78
1, 761717, Note_on_c, 0, 67, 0
1, 761719, Note_on_c, 0, 62, 0
1, 761785, Note_on_c, 0, 59, 81
1, 761794, Note_on_c, 0, 71, 68
1, 761836, Note_on_c, 0, 59, 0
1, 761836, Note_on_c, 0, 71, 0
1, 761902, Note_on_c, 0, 74, 69
1, 761911, Note_on_c, 0, 55, 67
1, 761940, Note_on_c, 0, 74, 0
1, 761947, Note_on_c, 0, 55, 0
1, 762018, Control_c, 0, 64, 49
1, 762018, Control_c, 0, 67, 16
1, 762026, Note_on_c, 0, 74, 70
1, 762032, Note_on_c, 0, 67, 83
1, 762036, Control_c, 0, 64, 71
1, 762055, Control_c, 0, 64, 77
1, 762073, Control_c, 0, 64, 83
1, 762088, Note_on_c, 0, 67, 0
1, 762090, Control_c, 0, 64, 87
1, 762108, Control_c, 0, 64, 91
1, 762146, Control_c, 0, 64, 96
1, 762165, Note_on_c, 0, 74, 0
1, 762168, Note_on_c, 0, 71, 72
1, 762268, Note_on_c, 0, 71, 0
1, 762271, Control_c, 0, 64, 100
1, 762314, Note_on_c, 0, 67, 71
1, 762323, Note_on_c, 0, 59, 73
1, 762341, Note_on_c, 0, 67, 0
1, 762357, Note_on_c, 0, 59, 0
1, 762382, Control_c, 0, 64, 92
1, 762401, Control_c, 0, 64, 67
1, 762419, Control_c, 0, 64, 0
1, 762440, Note_on_c, 0, 69, 75
1, 762442, Note_on_c, 0, 60, 82
1, 762485, Note_on_c, 0, 60, 0
1, 762564, Note_on_c, 0, 62, 80
1, 762605, Note_on_c, 0, 62, 0
1, 762686, Note_on_c, 0, 64, 66
1, 762696, Control_c, 0, 67, 21
1, 762722, Note_on_c, 0, 64, 0
1, 762731, Control_c, 0, 67, 27
1, 762806, Note_on_c, 0, 62, 75
1, 762819, Note_on_c, 0, 78, 75
1, 762823, Control_c, 0, 67, 32
1, 762842, Note_on_c, 0, 62, 0
1, 762873, Note_on_c, 0, 79, 0
1, 762879, Control_c, 0, 67, 36
1, 762933, Note_on_c, 0, 64, 67
1, 762935, Control_c, 0, 67, 42
1, 762953, Control_c, 0, 67, 46
1, 762969, Note_on_c, 0, 64, 0
1, 762972, Control_c, 0, 67, 51
1, 762984, Note_on_c, 0, 69, 0
1, 762991, Control_c, 0, 67, 55
1, 763009, Control_c, 0, 67, 60
1, 763026, Control_c, 0, 67, 66
1, 763044, Control_c, 0, 67, 71
1, 763060, Note_on_c, 0, 60, 66
1, 763063, Control_c, 0, 67, 78
1, 763082, Control_c, 0, 67, 84
1, 763097, Note_on_c, 0, 60, 0
1, 763100, Control_c, 0, 67, 89
1, 763119, Control_c, 0, 67, 94
1, 763139, Control_c, 0, 67, 100
1, 763157, Control_c, 0, 67, 106
1, 763176, Control_c, 0, 67, 113
1, 763198, Note_on_c, 0, 79, 73
1, 763202, Note_on_c, 0, 59, 69
1, 763207, Control_c, 0, 67, 120
1, 763214, Note_on_c, 0, 67, 51
1, 763227, Control_c, 0, 67, 125
1, 763237, Note_on_c, 0, 59, 0
1, 763257, Note_on_c, 0, 78, 0
1, 763330, Note_on_c, 0, 62, 65
1, 763374, Note_on_c, 0, 62, 0
1, 763451, Note_on_c, 0, 57, 70
1, 763495, Note_on_c, 0, 57, 0
1, 763572, Note_on_c, 0, 59, 69
1, 763594, Note_on_c, 0, 67, 0
1, 763611, Note_on_c, 0, 59, 0
1, 763703, Note_on_c, 0, 62, 58
1, 763739, Note_on_c, 0, 79, 0
1, 763746, Note_on_c, 0, 62, 0
1, 763818, Note_on_c, 0, 74, 69
1, 763820, Note_on_c, 0, 55, 62
1, 763853, Note_on_c, 0, 74, 0
1, 763860, Note_on_c, 0, 55, 0
1, 763944, Note_on_c, 0, 76, 76
1, 763952, Note_on_c, 0, 60, 61
1, 763980, Note_on_c, 0, 60, 0
1, 763992, Note_on_c, 0, 76, 0
1, 764065, Note_on_c, 0, 79, 72
1, 764110, Note_on_c, 0, 79, 0
1, 764211, Note_on_c, 0, 74, 69
1, 764212, Note_on_c, 0, 59, 59
1, 764248, Note_on_c, 0, 74, 0
1, 764250, Note_on_c, 0, 59, 0
1, 764329, Note_on_c, 0, 60, 58
1, 764330, Note_on_c, 0, 76, 72
1, 764363, Note_on_c, 0, 60, 0
1, 764365, Note_on_c, 0, 76, 0
1, 764455, Note_on_c, 0, 79, 50
1, 764489, Note_on_c, 0, 79, 0
1, 764577, Note_on_c, 0, 55, 72
1, 764588, Note_on_c, 0, 71, 63
1, 764615, Note_on_c, 0, 55, 0
1, 764631, Note_on_c, 0, 71, 0
1, 764694, Note_on_c, 0, 57, 75
1, 764701, Note_on_c, 0, 72, 61
1, 764727, Note_on_c, 0, 57, 0
1, 764811, Note_on_c, 0, 60, 71
1, 764849, Note_on_c, 0, 60, 0
1, 764934, Note_on_c, 0, 72, 0
1, 764939, Note_on_c, 0, 55, 75
1, 764983, Note_on_c, 0, 55, 0
1, 765082, Note_on_c, 0, 57, 69
1, 765117, Note_on_c, 0, 57, 0
1, 765202, Note_on_c, 0, 60, 59
1, 765243, Note_on_c, 0, 60, 0
1, 765308, Note_on_c, 0, 79, 69
1, 765326, Note_on_c, 0, 52, 57
1, 765338, Note_on_c, 0, 79, 0
1, 765373, Note_on_c, 0, 52, 0
1, 765421, Note_on_c, 0, 81, 87
1, 765444, Note_on_c, 0, 54, 55
1, 765474, Note_on_c, 0, 54, 0
1, 765479, Note_on_c, 0, 81, 0
1, 765552, Note_on_c, 0, 84, 80
1, 765595, Note_on_c, 0, 84, 0
1, 765630, Control_c, 0, 67, 112
1, 765649, Control_c, 0, 67, 89
1, 765668, Control_c, 0, 67, 59
1, 765681, Note_on_c, 0, 79, 81
1, 765683, Note_on_c, 0, 52, 55
1, 765686, Control_c, 0, 67, 24
1, 765704, Control_c, 0, 67, 0
1, 765726, Note_on_c, 0, 79, 0
1, 765785, Note_on_c, 0, 52, 0
1, 765801, Note_on_c, 0, 54, 61
1, 765802, Note_on_c, 0, 81, 80
1, 765837, Note_on_c, 0, 54, 0
1, 765847, Note_on_c, 0, 81, 0
1, 765923, Note_on_c, 0, 84, 68
1, 765961, Note_on_c, 0, 84, 0
1, 766069, Note_on_c, 0, 76, 71
1, 766083, Note_on_c, 0, 57, 57
1, 766098, Note_on_c, 0, 76, 0
1, 766140, Note_on_c, 0, 57, 0
1, 766185, Note_on_c, 0, 78, 82
1, 766197, Note_on_c, 0, 62, 66
1, 766231, Note_on_c, 0, 62, 0
1, 766232, Note_on_c, 0, 78, 0
1, 766309, Note_on_c, 0, 81, 77
1, 766317, Note_on_c, 0, 66, 56
1, 766342, Note_on_c, 0, 81, 0
1, 766347, Note_on_c, 0, 66, 0
1, 766424, Note_on_c, 0, 76, 80
1, 766428, Note_on_c, 0, 61, 69
1, 766472, Note_on_c, 0, 76, 0
1, 766472, Note_on_c, 0, 61, 0
1, 766544, Note_on_c, 0, 62, 72
1, 766549, Note_on_c, 0, 78, 80
1, 766581, Note_on_c, 0, 62, 0
1, 766602, Note_on_c, 0, 78, 0
1, 766668, Note_on_c, 0, 81, 80
1, 766672, Note_on_c, 0, 66, 62
1, 766711, Note_on_c, 0, 66, 0
1, 766715, Note_on_c, 0, 81, 0
1, 766791, Note_on_c, 0, 73, 80
1, 766797, Note_on_c, 0, 57, 45
1, 766836, Note_on_c, 0, 73, 0
1, 766836, Note_on_c, 0, 57, 0
1, 766898, Note_on_c, 0, 59, 64
1, 766910, Note_on_c, 0, 74, 81
1, 766949, Control_c, 0, 67, 9
1, 766953, Note_on_c, 0, 59, 0
1, 766976, Note_on_c, 0, 74, 0
1, 767022, Control_c, 0, 67, 15
1, 767041, Control_c, 0, 67, 23
1, 767047, Note_on_c, 0, 78, 75
1, 767049, Note_on_c, 0, 62, 58
1, 767060, Control_c, 0, 67, 32
1, 767078, Control_c, 0, 67, 36
1, 767086, Note_on_c, 0, 62, 0
1, 767100, Note_on_c, 0, 78, 0
1, 767116, Control_c, 0, 67, 42
1, 767135, Control_c, 0, 67, 48
1, 767153, Control_c, 0, 67, 56
1, 767165, Note_on_c, 0, 57, 70
1, 767166, Note_on_c, 0, 73, 80
1, 767170, Control_c, 0, 67, 66
1, 767189, Control_c, 0, 67, 75
1, 767200, Note_on_c, 0, 57, 0
1, 767208, Control_c, 0, 67, 83
1, 767214, Note_on_c, 0, 73, 0
1, 767225, Control_c, 0, 67, 90
1, 767244, Control_c, 0, 67, 97
1, 767262, Control_c, 0, 67, 105
1, 767281, Control_c, 0, 67, 112
1, 767287, Note_on_c, 0, 74, 75
1, 767288, Note_on_c, 0, 59, 69
1, 767299, Control_c, 0, 67, 117
1, 767318, Control_c, 0, 67, 122
1, 767322, Note_on_c, 0, 59, 0
1, 767341, Note_on_c, 0, 74, 0
1, 767356, Control_c, 0, 67, 127
1, 767400, Note_on_c, 0, 78, 75
1, 767406, Note_on_c, 0, 62, 53
1, 767444, Note_on_c, 0, 62, 0
1, 767451, Note_on_c, 0, 78, 0
1, 767520, Note_on_c, 0, 54, 62
1, 767526, Note_on_c, 0, 69, 74
1, 767570, Note_on_c, 0, 54, 0
1, 767575, Note_on_c, 0, 69, 0
1, 767645, Note_on_c, 0, 71, 77
1, 767656, Note_on_c, 0, 55, 64
1, 767692, Note_on_c, 0, 55, 0
1, 767700, Note_on_c, 0, 71, 0
1, 767774, Note_on_c, 0, 74, 59
1, 767814, Note_on_c, 0, 74, 0
1, 767912, Note_on_c, 0, 73, 69
1, 767913, Note_on_c, 0, 52, 68
1, 767945, Note_on_c, 0, 73, 0
1, 767955, Note_on_c, 0, 52, 0
1, 768023, Note_on_c, 0, 54, 77
1, 768028, Note_on_c, 0, 74, 74
1, 768058, Note_on_c, 0, 54, 0
1, 768073, Note_on_c, 0, 74, 0
1, 768152, Note_on_c, 0, 76, 64
1, 768180, Note_on_c, 0, 76, 0
1, 768272, Note_on_c, 0, 71, 67
1, 768279, Note_on_c, 0, 55, 61
1, 768308, Note_on_c, 0, 55, 0
1, 768311, Note_on_c, 0, 71, 0
1, 768395, Note_on_c, 0, 73, 73
1, 768402, Note_on_c, 0, 57, 64
1, 768430, Note_on_c, 0, 57, 0
1, 768438, Note_on_c, 0, 73, 0
1, 768516, Note_on_c, 0, 76, 61
1, 768542, Note_on_c, 0, 76, 0
1, 768638, Note_on_c, 0, 74, 71
1, 768643, Note_on_c, 0, 54, 72
1, 768672, Note_on_c, 0, 74, 0
1, 768685, Note_on_c, 0, 54, 0
1, 768755, Note_on_c, 0, 76, 79
1, 768768, Note_on_c, 0, 55, 84
1, 768793, Note_on_c, 0, 76, 0
1, 768816, Note_on_c, 0, 55, 0
1, 768858, Control_c, 0, 67, 122
1, 768877, Control_c, 0, 67, 113
1, 768893, Note_on_c, 0, 78, 74
1, 768895, Control_c, 0, 67, 102
1, 768912, Control_c, 0, 67, 87
1, 768931, Control_c, 0, 67, 70
1, 768939, Note_on_c, 0, 78, 0
1, 768950, Control_c, 0, 67, 50
1, 768968, Control_c, 0, 67, 28
1, 768988, Control_c, 0, 67, 8
1, 769005, Control_c, 0, 67, 0
1, 769008, Note_on_c, 0, 57, 81
1, 769012, Note_on_c, 0, 73, 77
1, 769040, Note_on_c, 0, 57, 0
1, 769060, Note_on_c, 0, 73, 0
1, 769127, Note_on_c, 0, 74, 84
1, 769137, Note_on_c, 0, 59, 85
1, 769184, Note_on_c, 0, 59, 0
1, 769199, Note_on_c, 0, 74, 0
1, 769256, Note_on_c, 0, 78, 78
1, 769303, Note_on_c, 0, 78, 0
1, 769381, Note_on_c, 0, 76, 80
1, 769384, Note_on_c, 0, 61, 85
1, 769422, Note_on_c, 0, 61, 0
1, 769434, Note_on_c, 0, 76, 0
1, 769503, Note_on_c, 0, 78, 84
1, 769505, Note_on_c, 0, 62, 88
1, 769535, Note_on_c, 0, 62, 0
1, 769567, Note_on_c, 0, 78, 0
1, 769633, Note_on_c, 0, 81, 79
1, 769683, Note_on_c, 0, 81, 0
1, 769764, Note_on_c, 0, 59, 80
1, 769766, Note_on_c, 0, 79, 85
1, 769802, Note_on_c, 0, 59, 0
1, 769813, Note_on_c, 0, 79, 0
1, 769883, Note_on_c, 0, 81, 90
1, 769889, Note_on_c, 0, 61, 87
1, 769904, Control_c, 0, 64, 29
1, 769923, Control_c, 0, 64, 44
1, 769942, Control_c, 0, 64, 54
1, 769960, Control_c, 0, 64, 57
1, 769963, Note_on_c, 0, 61, 0
1, 769996, Control_c, 0, 64, 60
1, 769998, Note_on_c, 0, 64, 87
1, 770015, Control_c, 0, 64, 62
1, 770033, Control_c, 0, 64, 64
1, 770050, Control_c, 0, 64, 67
1, 770054, Note_on_c, 0, 81, 0
1, 770058, Note_on_c, 0, 64, 0
1, 770069, Control_c, 0, 64, 69
1, 770106, Control_c, 0, 64, 72
1, 770128, Note_on_c, 0, 69, 84
1, 770144, Control_c, 0, 64, 75
1, 770155, Note_on_c, 0, 69, 0
1, 770254, Control_c, 0, 64, 69
1, 770273, Control_c, 0, 64, 55
1, 770275, Note_on_c, 0, 73, 80
1, 770290, Control_c, 0, 64, 34
1, 770309, Control_c, 0, 64, 15
1, 770335, Note_on_c, 0, 73, 0
1, 770386, Note_on_c, 0, 76, 81
1, 770394, Poly_aftertouch_c, 0, 73, 0
1, 770453, Note_on_c, 0, 76, 0
1, 770511, Note_on_c, 0, 79, 80
1, 770541, Note_on_c, 0, 45, 71
1, 770605, Note_on_c, 0, 79, 0
1, 770646, Note_on_c, 0, 50, 84
1, 770649, Note_on_c, 0, 78, 81
1, 770657, Note_on_c, 0, 45, 0
1, 770698, Note_on_c, 0, 50, 0
1, 770729, Note_on_c, 0, 78, 0
1, 770778, Note_on_c, 0, 54, 82
1, 770819, Note_on_c, 0, 54, 0
1, 770910, Note_on_c, 0, 76, 80
1, 770911, Note_on_c, 0, 49, 79
1, 770914, Note_on_c, 0, 69, 76
1, 770945, Note_on_c, 0, 69, 0
1, 770950, Note_on_c, 0, 76, 0
1, 770957, Note_on_c, 0, 49, 0
1, 771033, Note_on_c, 0, 78, 87
1, 771033, Note_on_c, 0, 50, 80
1, 771041, Note_on_c, 0, 69, 74
1, 771065, Note_on_c, 0, 50, 0
1, 771074, Note_on_c, 0, 69, 0
1, 771095, Note_on_c, 0, 78, 0
1, 771154, Note_on_c, 0, 54, 74
1, 771198, Note_on_c, 0, 54, 0
1, 771278, Note_on_c, 0, 45, 77
1, 771285, Note_on_c, 0, 79, 88
1, 771297, Note_on_c, 0, 69, 74
1, 771327, Note_on_c, 0, 79, 0
1, 771327, Note_on_c, 0, 69, 0
1, 771343, Note_on_c, 0, 45, 0
1, 771396, Note_on_c, 0, 50, 81
1, 771408, Note_on_c, 0, 78, 88
1, 771414, Note_on_c, 0, 69, 80
1, 771436, Note_on_c, 0, 50, 0
1, 771452, Note_on_c, 0, 69, 0
1, 771486, Note_on_c, 0, 78, 0
1, 771531, Note_on_c, 0, 54, 68
1, 771565, Note_on_c, 0, 54, 0
1, 771670, Note_on_c, 0, 76, 81
1, 771676, Note_on_c, 0, 69, 74
1, 771681, Note_on_c, 0, 49, 69
1, 771703, Note_on_c, 0, 76, 0
1, 771703, Note_on_c, 0, 69, 0
1, 771720, Note_on_c, 0, 49, 0
1, 771788, Note_on_c, 0, 50, 77
1, 771794, Note_on_c, 0, 74, 91
1, 771802, Note_on_c, 0, 69, 72
1, 771830, Note_on_c, 0, 50, 0
1, 771841, Note_on_c, 0, 69, 0
1, 771910, Note_on_c, 0, 54, 72
1, 771970, Note_on_c, 0, 54, 0
1, 772045, Note_on_c, 0, 45, 70
1, 772057, Note_on_c, 0, 66, 64
1, 772085, Note_on_c, 0, 45, 0
1, 772104, Note_on_c, 0, 66, 0
1, 772170, Note_on_c, 0, 47, 78
1, 772173, Note_on_c, 0, 62, 77
1, 772212, Note_on_c, 0, 47, 0
1, 772234, Note_on_c, 0, 62, 0
1, 772274, Control_c, 0, 64, 11
1, 772295, Note_on_c, 0, 43, 80
1, 772308, Note_on_c, 0, 67, 70
1, 772310, Control_c, 0, 64, 0
1, 772328, Note_on_c, 0, 43, 0
1, 772349, Note_on_c, 0, 67, 0
1, 772425, Note_on_c, 0, 38, 61
1, 772429, Note_on_c, 0, 71, 65
1, 772458, Note_on_c, 0, 38, 0
1, 772462, Note_on_c, 0, 71, 0
1, 772556, Note_on_c, 0, 71, 75
1, 772557, Note_on_c, 0, 50, 96
1, 772581, Control_c, 0, 64, 54
1, 772601, Control_c, 0, 64, 73
1, 772619, Control_c, 0, 64, 77
1, 772636, Control_c, 0, 64, 79
1, 772654, Control_c, 0, 64, 81
1, 772674, Control_c, 0, 64, 83
1, 772692, Control_c, 0, 64, 86
1, 772693, Note_on_c, 0, 67, 73
1, 772711, Control_c, 0, 64, 88
1, 772719, Note_on_c, 0, 50, 0
1, 772742, Note_on_c, 0, 71, 0
1, 772767, Note_on_c, 0, 67, 0
1, 772814, Note_on_c, 0, 43, 76
1, 772825, Note_on_c, 0, 62, 77
1, 772857, Note_on_c, 0, 43, 0
1, 772858, Note_on_c, 0, 62, 0
1, 772876, Control_c, 0, 64, 77
1, 772895, Control_c, 0, 64, 54
1, 772913, Control_c, 0, 64, 0
1, 772942, Note_on_c, 0, 45, 81
1, 772953, Note_on_c, 0, 62, 85
1, 772983, Note_on_c, 0, 45, 0
1, 773059, Note_on_c, 0, 62, 0
1, 773068, Note_on_c, 0, 42, 77
1, 773070, Note_on_c, 0, 66, 80
1, 773112, Note_on_c, 0, 42, 0
1, 773130, Note_on_c, 0, 66, 0
1, 773195, Note_on_c, 0, 38, 66
1, 773197, Note_on_c, 0, 69, 78
1, 773232, Note_on_c, 0, 38, 0
1, 773236, Note_on_c, 0, 69, 0
1, 773316, Note_on_c, 0, 69, 79
1, 773317, Control_c, 0, 64, 46
1, 773317, Note_on_c, 0, 50, 81
1, 773336, Control_c, 0, 64, 67
1, 773355, Control_c, 0, 64, 71
1, 773373, Control_c, 0, 64, 75
1, 773391, Note_on_c, 0, 50, 0
1, 773393, Control_c, 0, 64, 78
1, 773410, Control_c, 0, 64, 83
1, 773427, Control_c, 0, 64, 87
1, 773442, Note_on_c, 0, 66, 79
1, 773456, Note_on_c, 0, 69, 0
1, 773557, Note_on_c, 0, 66, 0
1, 773586, Note_on_c, 0, 62, 81
1, 773595, Note_on_c, 0, 42, 75
1, 773622, Note_on_c, 0, 62, 0
1, 773638, Note_on_c, 0, 42, 0
1, 773666, Control_c, 0, 64, 81
1, 773685, Control_c, 0, 64, 60
1, 773703, Control_c, 0, 64, 0
1, 773720, Note_on_c, 0, 43, 83
1, 773722, Note_on_c, 0, 64, 84
1, 773764, Note_on_c, 0, 43, 0
1, 773765, Note_on_c, 0, 74, 0
1, 773844, Note_on_c, 0, 45, 80
1, 773849, Control_c, 0, 67, 8
1, 773884, Note_on_c, 0, 45, 0
1, 773885, Control_c, 0, 67, 12
1, 773977, Note_on_c, 0, 47, 69
1, 773980, Note_on_c, 0, 74, 83
1, 774011, Note_on_c, 0, 74, 0
1, 774015, Note_on_c, 0, 47, 0
1, 774099, Note_on_c, 0, 73, 85
1, 774099, Note_on_c, 0, 45, 75
1, 774126, Control_c, 0, 67, 16
1, 774133, Poly_aftertouch_c, 0, 74, 0
1, 774140, Note_on_c, 0, 45, 0
1, 774168, Note_on_c, 0, 73, 0
1, 774230, Note_on_c, 0, 47, 63
1, 774269, Note_on_c, 0, 47, 0
1, 774347, Note_on_c, 0, 43, 75
1, 774358, Note_on_c, 0, 71, 71
1, 774390, Note_on_c, 0, 43, 0
1, 774427, Note_on_c, 0, 71, 0
1, 774487, Note_on_c, 0, 42, 75
1, 774496, Note_on_c, 0, 69, 70
1, 774530, Note_on_c, 0, 42, 0
1, 774608, Note_on_c, 0, 64, 0
1, 774612, Note_on_c, 0, 43, 73
1, 774649, Note_on_c, 0, 43, 0
1, 774736, Note_on_c, 0, 45, 70
1, 774745, Note_on_c, 0, 62, 80
1, 774775, Note_on_c, 0, 45, 0
1, 774822, Control_c, 0, 67, 20
1, 774864, Note_on_c, 0, 71, 80
1, 774867, Note_on_c, 0, 43, 69
1, 774878, Control_c, 0, 67, 26
1, 774887, Note_on_c, 0, 69, 0
1, 774901, Note_on_c, 0, 43, 0
1, 774914, Control_c, 0, 67, 30
1, 774951, Control_c, 0, 67, 35
1, 774991, Note_on_c, 0, 45, 66
1, 775005, Control_c, 0, 67, 39
1, 775030, Note_on_c, 0, 45, 0
1, 775042, Control_c, 0, 67, 44
1, 775079, Control_c, 0, 67, 50
1, 775107, Note_on_c, 0, 42, 66
1, 775116, Note_on_c, 0, 71, 0
1, 775116, Note_on_c, 0, 69, 71
1, 775137, Control_c, 0, 67, 55
1, 775158, Note_on_c, 0, 42, 0
1, 775173, Control_c, 0, 67, 60
1, 775210, Control_c, 0, 67, 66
1, 775239, Note_on_c, 0, 67, 74
1, 775239, Note_on_c, 0, 40, 69
1, 775246, Control_c, 0, 67, 72
1, 775267, Note_on_c, 0, 69, 0
1, 775281, Note_on_c, 0, 40, 0
1, 775283, Control_c, 0, 67, 78
1, 775291, Note_on_c, 0, 62, 0
1, 775302, Control_c, 0, 67, 83
1, 775322, Control_c, 0, 67, 87
1, 775340, Control_c, 0, 67, 92
1, 775372, Control_c, 0, 67, 97
1, 775375, Note_on_c, 0, 42, 74
1, 775391, Control_c, 0, 67, 103
1, 775409, Control_c, 0, 67, 110
1, 775423, Note_on_c, 0, 42, 0
1, 775428, Control_c, 0, 67, 118
1, 775444, Control_c, 0, 67, 126
1, 775502, Note_on_c, 0, 43, 68
1, 775529, Note_on_c, 0, 61, 70
1, 775547, Note_on_c, 0, 43, 0
1, 775615, Note_on_c, 0, 67, 0
1, 775628, Note_on_c, 0, 42, 67
1, 775648, Note_on_c, 0, 69, 66
1, 775664, Note_on_c, 0, 42, 0
1, 775752, Note_on_c, 0, 43, 64
1, 775788, Note_on_c, 0, 43, 0
1, 775882, Note_on_c, 0, 40, 59
1, 775897, Note_on_c, 0, 67, 60
1, 775919, Note_on_c, 0, 40, 0
1, 775920, Note_on_c, 0, 69, 0
1, 775941, Note_on_c, 0, 61, 0
1, 775990, Note_on_c, 0, 67, 0
1, 776015, Note_on_c, 0, 38, 53
1, 776028, Note_on_c, 0, 66, 58
1, 776050, Note_on_c, 0, 38, 0
1, 776104, Note_on_c, 0, 66, 0
1, 776142, Note_on_c, 0, 62, 55
1, 776279, Note_on_c, 0, 67, 58
1, 776280, Note_on_c, 0, 40, 48
1, 776332, Note_on_c, 0, 40, 0
1, 776374, Note_on_c, 0, 62, 0
1, 776398, Note_on_c, 0, 67, 0
1, 776406, Note_on_c, 0, 42, 68
1, 776422, Note_on_c, 0, 69, 58
1, 776440, Note_on_c, 0, 42, 0
1, 776546, Note_on_c, 0, 62, 58
1, 776644, Note_on_c, 0, 69, 0
1, 776667, Note_on_c, 0, 43, 52
1, 776672, Note_on_c, 0, 71, 72
1, 776684, Note_on_c, 0, 62, 0
1, 776704, Note_on_c, 0, 43, 0
1, 776753, Note_on_c, 0, 71, 0
1, 776788, Note_on_c, 0, 45, 57
1, 776788, Note_on_c, 0, 61, 69
1, 776819, Note_on_c, 0, 45, 0
1, 776896, Control_c, 0, 67, 114
1, 776900, Note_on_c, 0, 61, 0
1, 776902, Note_on_c, 0, 57, 59
1, 776916, Control_c, 0, 67, 99
1, 776935, Control_c, 0, 67, 79
1, 776953, Control_c, 0, 67, 55
1, 776972, Control_c, 0, 67, 29
1, 777008, Control_c, 0, 67, 0
1, 777030, Note_on_c, 0, 62, 72
1, 777033, Note_on_c, 0, 47, 75
1, 777081, Note_on_c, 0, 47, 0
1, 777101, Note_on_c, 0, 57, 0
1, 777132, Note_on_c, 0, 64, 77
1, 777148, Note_on_c, 0, 49, 82
1, 777178, Note_on_c, 0, 49, 0
1, 777181, Note_on_c, 0, 62, 0
1, 777282, Note_on_c, 0, 57, 66
1, 777386, Note_on_c, 0, 57, 0
1, 777404, Note_on_c, 0, 64, 0
1, 777409, Note_on_c, 0, 50, 54
1, 777412, Note_on_c, 0, 66, 59
1, 777445, Note_on_c, 0, 50, 0
1, 777447, Note_on_c, 0, 66, 0
1, 777544, Note_on_c, 0, 40, 55
1, 777546, Note_on_c, 0, 67, 67
1, 777632, Note_on_c, 0, 40, 0
1, 777661, Note_on_c, 0, 67, 0
1, 777676, Note_on_c, 0, 64, 48
1, 777808, Note_on_c, 0, 69, 66
1, 777810, Note_on_c, 0, 42, 58
1, 777854, Note_on_c, 0, 42, 0
1, 777915, Note_on_c, 0, 69, 0
1, 777918, Note_on_c, 0, 64, 0
1, 777924, Note_on_c, 0, 43, 73
1, 777930, Note_on_c, 0, 71, 65
1, 777958, Note_on_c, 0, 43, 0
1, 778018, Note_on_c, 0, 71, 0
1, 778045, Note_on_c, 0, 64, 65
1, 778173, Note_on_c, 0, 45, 78
1, 778183, Note_on_c, 0, 73, 81
1, 778201, Note_on_c, 0, 64, 0
1, 778207, Note_on_c, 0, 45, 0
1, 778231, Note_on_c, 0, 73, 0
1, 778306, Note_on_c, 0, 47, 80
1, 778310, Note_on_c, 0, 62, 86
1, 778341, Note_on_c, 0, 47, 0
1, 778407, Note_on_c, 0, 62, 0
1, 778423, Note_on_c, 0, 59, 73
1, 778543, Note_on_c, 0, 49, 81
1, 778551, Note_on_c, 0, 64, 79
1, 778577, Note_on_c, 0, 49, 0
1, 778581, Note_on_c, 0, 59, 0
1, 778660, Note_on_c, 0, 66, 81
1, 778662, Note_on_c, 0, 50, 93
1, 778690, Note_on_c, 0, 64, 0
1, 778696, Note_on_c, 0, 50, 0
1, 778779, Note_on_c, 0, 66, 0
1, 778789, Note_on_c, 0, 59, 72
1, 778906, Note_on_c, 0, 59, 0
1, 778909, Note_on_c, 0, 52, 79
1, 778913, Note_on_c, 0, 67, 82
1, 778941, Note_on_c, 0, 52, 0
1, 778990, Note_on_c, 0, 67, 0
1, 779031, Note_on_c, 0, 54, 93
1, 779032, Note_on_c, 0, 69, 88
1, 779075, Note_on_c, 0, 50, 29
1, 779077, Note_on_c, 0, 54, 0
1, 779142, Note_on_c, 0, 50, 0
1, 779179, Note_on_c, 0, 66, 71
1, 779294, Note_on_c, 0, 66, 0
1, 779303, Note_on_c, 0, 61, 67
1, 779319, Note_on_c, 0, 55, 76
1, 779353, Note_on_c, 0, 55, 0
1, 779399, Note_on_c, 0, 61, 0
1, 779430, Note_on_c, 0, 62, 70
1, 779434, Note_on_c, 0, 54, 81
1, 779470, Note_on_c, 0, 54, 0
1, 779500, Note_on_c, 0, 62, 0
1, 779547, Note_on_c, 0, 66, 62
1, 779641, Note_on_c, 0, 66, 0
1, 779692, Note_on_c, 0, 57, 64
1, 779697, Note_on_c, 0, 52, 72
1, 779739, Note_on_c, 0, 52, 0
1, 779782, Note_on_c, 0, 57, 0
1, 779811, Note_on_c, 0, 62, 73
1, 779827, Note_on_c, 0, 54, 75
1, 779859, Note_on_c, 0, 54, 0
1, 779890, Note_on_c, 0, 62, 0
1, 779925, Note_on_c, 0, 66, 63
1, 780070, Note_on_c, 0, 66, 0
1, 780085, Note_on_c, 0, 61, 63
1, 780089, Note_on_c, 0, 55, 72
1, 780118, Note_on_c, 0, 55, 0
1, 780159, Note_on_c, 0, 61, 0
1, 780187, Note_on_c, 0, 54, 72
1, 780195, Note_on_c, 0, 62, 69
1, 780226, Note_on_c, 0, 54, 0
1, 780258, Note_on_c, 0, 62, 0
1, 780329, Note_on_c, 0, 66, 56
1, 780421, Note_on_c, 0, 66, 0
1, 780423, Note_on_c, 0, 69, 0
1, 780437, Note_on_c, 0, 52, 70
1, 780452, Note_on_c, 0, 57, 71
1, 780472, Note_on_c, 0, 52, 0
1, 780485, Note_on_c, 0, 57, 0
1, 780561, Note_on_c, 0, 50, 81
1, 780568, Note_on_c, 0, 59, 84
1, 780622, Note_on_c, 0, 50, 0
1, 780653, Note_on_c, 0, 59, 0
1, 780685, Note_on_c, 0, 55, 79
1, 780689, Note_on_c, 0, 67, 80
1, 780721, Note_on_c, 0, 55, 0
1, 780748, Note_on_c, 0, 67, 0
1, 780804, Note_on_c, 0, 62, 84
1, 780808, Note_on_c, 0, 59, 75
1, 780840, Note_on_c, 0, 59, 0
1, 780899, Note_on_c, 0, 62, 0
1, 780922, Note_on_c, 0, 59, 82
1, 780923, Note_on_c, 0, 74, 89
1, 780991, Note_on_c, 0, 59, 0
1, 781071, Note_on_c, 0, 55, 76
1, 781109, Note_on_c, 0, 55, 0
1, 781193, Note_on_c, 0, 67, 74
1, 781195, Note_on_c, 0, 74, 0
1, 781202, Note_on_c, 0, 50, 69
1, 781229, Note_on_c, 0, 67, 0
1, 781236, Note_on_c, 0, 50, 0
1, 781311, Note_on_c, 0, 50, 81
1, 781320, Note_on_c, 0, 69, 86
1, 781377, Note_on_c, 0, 50, 0
1, 781396, Note_on_c, 0, 69, 0
1, 781430, Note_on_c, 0, 66, 77
1, 781440, Note_on_c, 0, 54, 80
1, 781482, Note_on_c, 0, 54, 0
1, 781500, Note_on_c, 0, 66, 0
1, 781553, Note_on_c, 0, 62, 77
1, 781567, Note_on_c, 0, 57, 77
1, 781601, Note_on_c, 0, 57, 0
1, 781627, Note_on_c, 0, 62, 0
1, 781672, Note_on_c, 0, 74, 91
1, 781680, Note_on_c, 0, 57, 83
1, 781733, Note_on_c, 0, 57, 0
1, 781813, Note_on_c, 0, 54, 77
1, 781858, Note_on_c, 0, 54, 0
1, 781954, Note_on_c, 0, 50, 71
1, 781957, Note_on_c, 0, 66, 70
1, 781961, Note_on_c, 0, 74, 0
1, 781990, Note_on_c, 0, 50, 0
1, 781993, Note_on_c, 0, 66, 0
1, 782071, Note_on_c, 0, 50, 82
1, 782078, Note_on_c, 0, 52, 85
1, 782080, Note_on_c, 0, 67, 82
1, 782186, Note_on_c, 0, 52, 0
1, 782203, Note_on_c, 0, 69, 81
1, 782214, Note_on_c, 0, 67, 0
1, 782215, Note_on_c, 0, 50, 0
1, 782317, Note_on_c, 0, 69, 0
1, 782327, Note_on_c, 0, 71, 78
1, 782377, Note_on_c, 0, 71, 0
1, 782455, Note_on_c, 0, 49, 82
1, 782459, Note_on_c, 0, 52, 79
1, 782462, Note_on_c, 0, 69, 86
1, 782567, Note_on_c, 0, 52, 0
1, 782591, Note_on_c, 0, 71, 80
1, 782598, Note_on_c, 0, 69, 0
1, 782610, Note_on_c, 0, 49, 0
1, 782646, Note_on_c, 0, 71, 0
1, 782719, Note_on_c, 0, 67, 70
1, 782756, Note_on_c, 0, 67, 0
1, 782829, Note_on_c, 0, 50, 81
1, 782859, Note_on_c, 0, 66, 83
1, 782950, Note_on_c, 0, 50, 0
1, 782982, Note_on_c, 0, 69, 77
1, 782989, Note_on_c, 0, 66, 0
1, 783020, Note_on_c, 0, 69, 0
1, 783103, Note_on_c, 0, 67, 80
1, 783105, Note_on_c, 0, 52, 72
1, 783143, Note_on_c, 0, 52, 0
1, 783160, Note_on_c, 0, 67, 0
1, 783217, Note_on_c, 0, 54, 77
1, 783224, Note_on_c, 0, 69, 84
1, 783253, Note_on_c, 0, 54, 0
1, 783277, Note_on_c, 0, 69, 0
1, 783343, Note_on_c, 0, 73, 75
1, 783394, Note_on_c, 0, 73, 0
1, 783468, Note_on_c, 0, 71, 83
1, 783474, Note_on_c, 0, 55, 66
1, 783504, Note_on_c, 0, 55, 0
1, 783524, Note_on_c, 0, 71, 0
1, 783590, Note_on_c, 0, 73, 88
1, 783595, Note_on_c, 0, 57, 75
1, 783635, Note_on_c, 0, 57, 0
1, 783642, Note_on_c, 0, 73, 0
1, 783703, Note_on_c, 0, 76, 88
1, 783709, Note_on_c, 0, 61, 76
1, 783749, Note_on_c, 0, 61, 0
1, 783762, Note_on_c, 0, 76, 0
1, 783840, Note_on_c, 0, 79, 83
1, 783841, Note_on_c, 0, 57, 72
1, 783884, Note_on_c, 0, 57, 0
1, 783885, Note_on_c, 0, 79, 0
1, 783962, Note_on_c, 0, 79, 90
1, 783962, Note_on_c, 0, 52, 70
1, 784004, Note_on_c, 0, 52, 0
1, 784043, Note_on_c, 0, 79, 0
1, 784086, Note_on_c, 0, 76, 82
1, 784087, Note_on_c, 0, 57, 68
1, 784129, Note_on_c, 0, 57, 0
1, 784142, Note_on_c, 0, 76, 0
1, 784200, Note_on_c, 0, 52, 72
1, 784204, Note_on_c, 0, 73, 77
1, 784234, Note_on_c, 0, 52, 0
1, 784269, Note_on_c, 0, 73, 0
1, 784318, Note_on_c, 0, 49, 70
1, 784321, Note_on_c, 0, 69, 78
1, 784357, Note_on_c, 0, 49, 0
1, 784364, Note_on_c, 0, 69, 0
1, 784443, Note_on_c, 0, 73, 80
1, 784445, Note_on_c, 0, 52, 64
1, 784482, Note_on_c, 0, 52, 0
1, 784504, Note_on_c, 0, 73, 0
1, 784558, Note_on_c, 0, 76, 82
1, 784573, Note_on_c, 0, 49, 54
1, 784605, Note_on_c, 0, 49, 0
1, 784608, Note_on_c, 0, 76, 0
1, 784678, Note_on_c, 0, 79, 91
1, 784680, Note_on_c, 0, 45, 73
1, 784741, Note_on_c, 0, 79, 0
1, 784747, Note_on_c, 0, 45, 0
1, 784812, Note_on_c, 0, 47, 77
1, 784814, Note_on_c, 0, 78, 86
1, 784858, Note_on_c, 0, 47, 0
1, 784867, Note_on_c, 0, 78, 0
1, 784939, Note_on_c, 0, 76, 92
1, 784945, Note_on_c, 0, 49, 75
1, 784976, Note_on_c, 0, 49, 0
1, 784989, Note_on_c, 0, 76, 0
1, 785056, Note_on_c, 0, 78, 90
1, 785060, Note_on_c, 0, 50, 67
1, 785097, Note_on_c, 0, 50, 0
1, 785121, Note_on_c, 0, 78, 0
1, 785179, Note_on_c, 0, 76, 89
1, 785234, Note_on_c, 0, 76, 0
1, 785307, Note_on_c, 0, 74, 89
1, 785309, Note_on_c, 0, 55, 68
1, 785313, Note_on_c, 0, 71, 85
1, 785344, Note_on_c, 0, 74, 0
1, 785345, Note_on_c, 0, 71, 0
1, 785353, Note_on_c, 0, 55, 0
1, 785424, Note_on_c, 0, 74, 89
1, 785429, Note_on_c, 0, 69, 88
1, 785432, Note_on_c, 0, 57, 78
1, 785464, Note_on_c, 0, 57, 0
1, 785556, Note_on_c, 0, 76, 82
1, 785560, Note_on_c, 0, 74, 0
1, 785696, Note_on_c, 0, 69, 0
1, 785696, Note_on_c, 0, 73, 80
1, 785703, Note_on_c, 0, 45, 63
1, 785705, Note_on_c, 0, 67, 74
1, 785720, Note_on_c, 0, 76, 0
1, 785765, Note_on_c, 0, 45, 0
1, 785811, Control_c, 0, 67, 8
1, 785818, Note_on_c, 0, 74, 81
1, 785822, Note_on_c, 0, 67, 0
1, 785823, Note_on_c, 0, 38, 63
1, 785829, Note_on_c, 0, 73, 0
1, 785945, Note_on_c, 0, 42, 71
1, 785946, Note_on_c, 0, 69, 81
1, 786028, Note_on_c, 0, 42, 0
1, 786060, Note_on_c, 0, 45, 59
1, 786066, Note_on_c, 0, 66, 64
1, 786091, Note_on_c, 0, 45, 0
1, 786113, Note_on_c, 0, 66, 0
1, 786187, Note_on_c, 0, 62, 78
1, 786194, Note_on_c, 0, 50, 77
1, 786234, Note_on_c, 0, 62, 0
1, 786234, Control_c, 0, 64, 63
1, 786244, Note_on_c, 0, 50, 0
1, 786244, Note_on_c, 0, 69, 0
1, 786252, Control_c, 0, 64, 89
1, 786272, Control_c, 0, 64, 102
1, 786283, Note_on_c, 0, 74, 0
1, 786289, Control_c, 0, 64, 106
1, 786344, Control_c, 0, 64, 112
1, 786364, Control_c, 0, 64, 118
1, 786382, Control_c, 0, 64, 123
1, 786400, Control_c, 0, 64, 127
1, 786419, Control_c, 0, 67, 12
1, 786469, Note_on_c, 0, 74, 72
1, 786507, Note_on_c, 0, 74, 0
1, 786529, Control_c, 0, 67, 17
1, 786547, Control_c, 0, 67, 24
1, 786565, Control_c, 0, 64, 119
1, 786567, Control_c, 0, 67, 32
1, 786574, Note_on_c, 0, 38, 0
1, 786599, Control_c, 0, 64, 67
1, 786602, Control_c, 0, 67, 40
1, 786603, Note_on_c, 0, 79, 80
1, 786617, Control_c, 0, 64, 0
1, 786619, Control_c, 0, 67, 50
1, 786638, Control_c, 0, 67, 63
1, 786647, Note_on_c, 0, 79, 0
1, 786655, Control_c, 0, 67, 78
1, 786672, Control_c, 0, 67, 94
1, 786691, Control_c, 0, 67, 107
1, 786709, Control_c, 0, 67, 117
1, 786727, Control_c, 0, 67, 123
1, 786727, Note_on_c, 0, 83, 72
1, 786748, Control_c, 0, 67, 127
1, 786762, Note_on_c, 0, 83, 0
1, 786845, Note_on_c, 0, 78, 70
1, 786880, Note_on_c, 0, 78, 0
1, 786964, Note_on_c, 0, 79, 72
1, 787006, Note_on_c, 0, 79, 0
1, 787086, Note_on_c, 0, 83, 58
1, 787111, Note_on_c, 0, 83, 0
1, 787213, Note_on_c, 0, 74, 57
1, 787242, Note_on_c, 0, 74, 0
1, 787335, Note_on_c, 0, 79, 66
1, 787366, Note_on_c, 0, 79, 0
1, 787448, Note_on_c, 0, 83, 64
1, 787484, Note_on_c, 0, 83, 0
1, 787593, Note_on_c, 0, 78, 56
1, 787615, Note_on_c, 0, 78, 0
1, 787716, Note_on_c, 0, 79, 63
1, 787754, Note_on_c, 0, 79, 0
1, 787851, Note_on_c, 0, 83, 39
1, 787890, Note_on_c, 0, 83, 0
1, 787956, Note_on_c, 0, 74, 60
1, 787981, Note_on_c, 0, 74, 0
1, 788079, Note_on_c, 0, 76, 71
1, 788134, Note_on_c, 0, 76, 0
1, 788185, Note_on_c, 0, 72, 65
1, 788216, Note_on_c, 0, 72, 0
1, 788315, Note_on_c, 0, 67, 59
1, 788345, Note_on_c, 0, 67, 0
1, 788450, Note_on_c, 0, 79, 68
1, 788580, Control_c, 0, 64, 8
1, 788618, Control_c, 0, 64, 13
1, 788653, Control_c, 0, 64, 18
1, 788739, Note_on_c, 0, 79, 0
1, 788741, Note_on_c, 0, 72, 52
1, 788771, Note_on_c, 0, 72, 0
1, 788802, Control_c, 0, 64, 0
1, 788856, Note_on_c, 0, 74, 71
1, 788906, Note_on_c, 0, 74, 0
1, 788993, Note_on_c, 0, 71, 62
1, 789016, Note_on_c, 0, 71, 0
1, 789104, Note_on_c, 0, 67, 56
1, 789131, Note_on_c, 0, 67, 0
1, 789237, Note_on_c, 0, 79, 64
1, 789280, Control_c, 0, 64, 10
1, 789299, Control_c, 0, 64, 32
1, 789316, Control_c, 0, 64, 36
1, 789353, Control_c, 0, 64, 47
1, 789372, Control_c, 0, 64, 55
1, 789406, Control_c, 0, 64, 57
1, 789506, Note_on_c, 0, 79, 0
1, 789516, Control_c, 0, 64, 59
1, 789541, Note_on_c, 0, 71, 49
1, 789568, Note_on_c, 0, 71, 0
1, 789589, Control_c, 0, 64, 52
1, 789609, Control_c, 0, 64, 25
1, 789627, Control_c, 0, 64, 0
1, 789648, Note_on_c, 0, 72, 64
1, 789684, Note_on_c, 0, 72, 0
1, 789765, Note_on_c, 0, 74, 74
1, 789803, Note_on_c, 0, 74, 0
1, 789893, Note_on_c, 0, 76, 71
1, 789929, Note_on_c, 0, 76, 0
1, 790015, Note_on_c, 0, 74, 71
1, 790045, Note_on_c, 0, 74, 0
1, 790136, Note_on_c, 0, 76, 67
1, 790179, Note_on_c, 0, 76, 0
1, 790259, Note_on_c, 0, 72, 57
1, 790286, Note_on_c, 0, 72, 0
1, 790402, Note_on_c, 0, 71, 61
1, 790445, Note_on_c, 0, 71, 0
1, 790518, Note_on_c, 0, 74, 58
1, 790541, Note_on_c, 0, 74, 0
1, 790645, Note_on_c, 0, 79, 60
1, 790683, Note_on_c, 0, 79, 0
1, 790766, Note_on_c, 0, 83, 65
1, 790803, Note_on_c, 0, 83, 0
1, 790889, Note_on_c, 0, 81, 64
1, 790923, Note_on_c, 0, 81, 0
1, 791008, Note_on_c, 0, 79, 75
1, 791020, Note_on_c, 0, 67, 71
1, 791046, Note_on_c, 0, 79, 0
1, 791087, Note_on_c, 0, 67, 0
1, 791132, Note_on_c, 0, 74, 78
1, 791136, Note_on_c, 0, 81, 73
1, 791163, Note_on_c, 0, 81, 0
1, 791170, Note_on_c, 0, 74, 0
1, 791286, Note_on_c, 0, 78, 64
1, 791323, Note_on_c, 0, 78, 0
1, 791396, Note_on_c, 0, 81, 73
1, 791403, Note_on_c, 0, 73, 67
1, 791427, Note_on_c, 0, 81, 0
1, 791444, Note_on_c, 0, 73, 0
1, 791516, Note_on_c, 0, 74, 72
1, 791517, Note_on_c, 0, 81, 71
1, 791551, Note_on_c, 0, 74, 0
1, 791552, Note_on_c, 0, 81, 0
1, 791648, Note_on_c, 0, 78, 59
1, 791686, Note_on_c, 0, 78, 0
1, 791769, Note_on_c, 0, 69, 69
1, 791771, Note_on_c, 0, 81, 76
1, 791807, Note_on_c, 0, 81, 0
1, 791831, Note_on_c, 0, 69, 0
1, 791887, Note_on_c, 0, 74, 77
1, 791895, Note_on_c, 0, 81, 78
1, 791924, Note_on_c, 0, 74, 0
1, 791925, Note_on_c, 0, 81, 0
1, 792027, Note_on_c, 0, 78, 62
1, 792050, Note_on_c, 0, 78, 0
1, 792146, Note_on_c, 0, 81, 73
1, 792155, Note_on_c, 0, 73, 67
1, 792175, Note_on_c, 0, 81, 0
1, 792210, Note_on_c, 0, 73, 0
1, 792280, Note_on_c, 0, 81, 75
1, 792283, Note_on_c, 0, 74, 68
1, 792313, Note_on_c, 0, 81, 0
1, 792318, Note_on_c, 0, 74, 0
1, 792410, Note_on_c, 0, 78, 62
1, 792459, Note_on_c, 0, 78, 0
1, 792524, Note_on_c, 0, 69, 67
1, 792539, Note_on_c, 0, 81, 61
1, 792562, Note_on_c, 0, 69, 0
1, 792577, Note_on_c, 0, 81, 0
1, 792650, Note_on_c, 0, 71, 74
1, 792651, Note_on_c, 0, 74, 62
1, 792682, Note_on_c, 0, 71, 0
1, 792690, Note_on_c, 0, 74, 0
1, 792749, Poly_aftertouch_c, 0, 76, 0
1, 792767, Note_on_c, 0, 67, 74
1, 792774, Note_on_c, 0, 79, 62
1, 792799, Note_on_c, 0, 67, 0
1, 792811, Note_on_c, 0, 79, 0
1, 792888, Note_on_c, 0, 83, 66
1, 792892, Note_on_c, 0, 62, 67
1, 792924, Note_on_c, 0, 83, 0
1, 792928, Note_on_c, 0, 62, 0
1, 793009, Note_on_c, 0, 83, 72
1, 793011, Note_on_c, 0, 74, 82
1, 793023, Control_c, 0, 64, 43
1, 793042, Control_c, 0, 64, 60
1, 793058, Control_c, 0, 64, 66
1, 793078, Control_c, 0, 64, 68
1, 793115, Control_c, 0, 64, 70
1, 793129, Note_on_c, 0, 74, 0
1, 793164, Note_on_c, 0, 79, 56
1, 793167, Control_c, 0, 64, 73
1, 793168, Note_on_c, 0, 83, 0
1, 793204, Control_c, 0, 64, 75
1, 793211, Note_on_c, 0, 79, 0
1, 793292, Note_on_c, 0, 74, 61
1, 793295, Control_c, 0, 64, 73
1, 793298, Note_on_c, 0, 67, 71
1, 793313, Control_c, 0, 64, 57
1, 793316, Note_on_c, 0, 74, 0
1, 793330, Note_on_c, 0, 67, 0
1, 793331, Control_c, 0, 64, 0
1, 793408, Note_on_c, 0, 69, 79
1, 793418, Note_on_c, 0, 74, 69
1, 793443, Note_on_c, 0, 69, 0
1, 793471, Note_on_c, 0, 74, 0
1, 793532, Note_on_c, 0, 66, 72
1, 793540, Note_on_c, 0, 78, 69
1, 793569, Note_on_c, 0, 66, 0
1, 793578, Note_on_c, 0, 78, 0
1, 793655, Note_on_c, 0, 62, 74
1, 793669, Note_on_c, 0, 81, 75
1, 793689, Note_on_c, 0, 62, 0
1, 793696, Note_on_c, 0, 81, 0
1, 793773, Control_c, 0, 64, 20
1, 793787, Note_on_c, 0, 74, 76
1, 793788, Note_on_c, 0, 81, 80
1, 793793, Control_c, 0, 64, 61
1, 793811, Control_c, 0, 64, 73
1, 793821, Note_on_c, 0, 74, 0
1, 793828, Control_c, 0, 64, 76
1, 793849, Control_c, 0, 64, 78
1, 793868, Control_c, 0, 64, 82
1, 793886, Control_c, 0, 64, 88
1, 793904, Control_c, 0, 64, 94
1, 793910, Note_on_c, 0, 78, 72
1, 793922, Control_c, 0, 64, 99
1, 793929, Note_on_c, 0, 81, 0
1, 793971, Note_on_c, 0, 78, 0
1, 793975, Control_c, 0, 64, 104
1, 794050, Control_c, 0, 64, 108
1, 794054, Note_on_c, 0, 74, 63
1, 794055, Note_on_c, 0, 66, 70
1, 794096, Note_on_c, 0, 74, 0
1, 794102, Control_c, 0, 64, 90
1, 794113, Note_on_c, 0, 66, 0
1, 794121, Control_c, 0, 64, 44
1, 794140, Control_c, 0, 64, 0
1, 794178, Note_on_c, 0, 74, 75
1, 794184, Note_on_c, 0, 67, 82
1, 794223, Note_on_c, 0, 67, 0
1, 794308, Note_on_c, 0, 69, 81
1, 794339, Note_on_c, 0, 69, 0
1, 794432, Note_on_c, 0, 71, 75
1, 794466, Note_on_c, 0, 71, 0
1, 794554, Note_on_c, 0, 69, 79
1, 794561, Note_on_c, 0, 73, 69
1, 794582, Note_on_c, 0, 74, 0
1, 794592, Note_on_c, 0, 69, 0
1, 794682, Note_on_c, 0, 71, 68
1, 794718, Note_on_c, 0, 71, 0
1, 794814, Note_on_c, 0, 67, 68
1, 794847, Note_on_c, 0, 67, 0
1, 794939, Note_on_c, 0, 66, 69
1, 794952, Note_on_c, 0, 74, 64
1, 794963, Note_on_c, 0, 73, 0
1, 794975, Note_on_c, 0, 66, 0
1, 795083, Note_on_c, 0, 69, 67
1, 795115, Note_on_c, 0, 69, 0
1, 795208, Note_on_c, 0, 72, 64
1, 795238, Note_on_c, 0, 72, 0
1, 795295, Note_on_c, 0, 74, 0
1, 795341, Note_on_c, 0, 78, 69
1, 795344, Note_on_c, 0, 76, 67
1, 795410, Note_on_c, 0, 76, 0
1, 795462, Note_on_c, 0, 74, 56
1, 795511, Note_on_c, 0, 74, 0
1, 795584, Note_on_c, 0, 62, 85
1, 795601, Note_on_c, 0, 72, 59
1, 795641, Note_on_c, 0, 62, 0
1, 795685, Note_on_c, 0, 72, 0
1, 795716, Note_on_c, 0, 67, 90
1, 795720, Note_on_c, 0, 79, 75
1, 795731, Note_on_c, 0, 71, 58
1, 795748, Note_on_c, 0, 67, 0
1, 795757, Note_on_c, 0, 78, 0
1, 795760, Note_on_c, 0, 71, 0
1, 795787, Note_on_c, 0, 79, 0
1, 795845, Note_on_c, 0, 71, 78
1, 795880, Note_on_c, 0, 71, 0
1, 795982, Note_on_c, 0, 66, 86
1, 795986, Note_on_c, 0, 81, 82
1, 795999, Note_on_c, 0, 74, 67
1, 796024, Note_on_c, 0, 74, 0
1, 796028, Note_on_c, 0, 81, 0
1, 796036, Note_on_c, 0, 66, 0
1, 796109, Note_on_c, 0, 67, 86
1, 796111, Note_on_c, 0, 83, 85
1, 796117, Note_on_c, 0, 74, 73
1, 796138, Note_on_c, 0, 67, 0
1, 796153, Note_on_c, 0, 74, 0
1, 796162, Note_on_c, 0, 83, 0
1, 796242, Note_on_c, 0, 71, 68
1, 796273, Note_on_c, 0, 71, 0
1, 796357, Note_on_c, 0, 62, 81
1, 796359, Note_on_c, 0, 84, 87
1, 796371, Note_on_c, 0, 74, 75
1, 796398, Note_on_c, 0, 84, 0
1, 796406, Note_on_c, 0, 74, 0
1, 796415, Note_on_c, 0, 62, 0
1, 796478, Note_on_c, 0, 67, 86
1, 796479, Note_on_c, 0, 83, 89
1, 796490, Note_on_c, 0, 74, 66
1, 796506, Note_on_c, 0, 67, 0
1, 796522, Note_on_c, 0, 74, 0
1, 796551, Note_on_c, 0, 83, 0
1, 796615, Note_on_c, 0, 71, 66
1, 796649, Note_on_c, 0, 71, 0
1, 796674, Control_c, 0, 67, 113
1, 796693, Control_c, 0, 67, 96
1, 796710, Control_c, 0, 67, 74
1, 796725, Note_on_c, 0, 81, 80
1, 796728, Control_c, 0, 67, 49
1, 796733, Note_on_c, 0, 66, 75
1, 796739, Note_on_c, 0, 74, 67
1, 796746, Control_c, 0, 67, 23
1, 796758, Note_on_c, 0, 81, 0
1, 796760, Note_on_c, 0, 74, 0
1, 796764, Control_c, 0, 67, 0
1, 796778, Note_on_c, 0, 66, 0
1, 796854, Note_on_c, 0, 67, 80
1, 796855, Note_on_c, 0, 79, 80
1, 796859, Note_on_c, 0, 74, 67
1, 796898, Note_on_c, 0, 67, 0
1, 796920, Note_on_c, 0, 74, 0
1, 797003, Note_on_c, 0, 71, 67
1, 797046, Note_on_c, 0, 71, 0
1, 797125, Note_on_c, 0, 62, 68
1, 797136, Note_on_c, 0, 71, 66
1, 797158, Note_on_c, 0, 62, 0
1, 797175, Note_on_c, 0, 71, 0
1, 797246, Note_on_c, 0, 64, 82
1, 797260, Note_on_c, 0, 67, 72
1, 797294, Note_on_c, 0, 64, 0
1, 797307, Note_on_c, 0, 67, 0
1, 797365, Note_on_c, 0, 60, 81
1, 797387, Note_on_c, 0, 72, 62
1, 797397, Note_on_c, 0, 60, 0
1, 797440, Note_on_c, 0, 72, 0
1, 797487, Note_on_c, 0, 55, 76
1, 797499, Note_on_c, 0, 76, 59
1, 797519, Note_on_c, 0, 55, 0
1, 797543, Note_on_c, 0, 76, 0
1, 797624, Note_on_c, 0, 67, 81
1, 797629, Control_c, 0, 64, 24
1, 797638, Note_on_c, 0, 76, 65
1, 797646, Control_c, 0, 64, 60
1, 797664, Control_c, 0, 64, 71
1, 797682, Control_c, 0, 64, 76
1, 797702, Control_c, 0, 64, 79
1, 797719, Control_c, 0, 64, 82
1, 797737, Control_c, 0, 64, 85
1, 797752, Note_on_c, 0, 67, 0
1, 797753, Note_on_c, 0, 72, 66
1, 797756, Control_c, 0, 64, 87
1, 797802, Note_on_c, 0, 76, 0
1, 797811, Control_c, 0, 64, 91
1, 797835, Note_on_c, 0, 72, 0
1, 797892, Note_on_c, 0, 67, 59
1, 797901, Note_on_c, 0, 60, 69
1, 797911, Note_on_c, 0, 67, 0
1, 797937, Control_c, 0, 64, 81
1, 797940, Note_on_c, 0, 60, 0
1, 797955, Control_c, 0, 64, 51
1, 797974, Control_c, 0, 64, 0
1, 798006, Note_on_c, 0, 67, 63
1, 798017, Note_on_c, 0, 62, 75
1, 798055, Note_on_c, 0, 62, 0
1, 798079, Note_on_c, 0, 67, 0
1, 798128, Note_on_c, 0, 59, 76
1, 798135, Note_on_c, 0, 71, 71
1, 798166, Note_on_c, 0, 59, 0
1, 798176, Note_on_c, 0, 71, 0
1, 798245, Note_on_c, 0, 74, 74
1, 798246, Note_on_c, 0, 55, 73
1, 798282, Note_on_c, 0, 55, 0
1, 798288, Note_on_c, 0, 74, 0
1, 798378, Control_c, 0, 64, 25
1, 798381, Note_on_c, 0, 74, 72
1, 798382, Note_on_c, 0, 67, 77
1, 798396, Control_c, 0, 64, 70
1, 798413, Note_on_c, 0, 67, 0
1, 798415, Control_c, 0, 64, 84
1, 798435, Control_c, 0, 64, 93
1, 798489, Control_c, 0, 64, 99
1, 798506, Note_on_c, 0, 74, 0
1, 798520, Note_on_c, 0, 71, 68
1, 798525, Control_c, 0, 64, 106
1, 798545, Control_c, 0, 64, 110
1, 798582, Control_c, 0, 64, 116
1, 798618, Control_c, 0, 64, 121
1, 798640, Note_on_c, 0, 71, 0
1, 798646, Note_on_c, 0, 67, 62
1, 798656, Control_c, 0, 64, 126
1, 798668, Note_on_c, 0, 59, 72
1, 798672, Note_on_c, 0, 67, 0
1, 798702, Note_on_c, 0, 59, 0
1, 798711, Control_c, 0, 64, 106
1, 798728, Control_c, 0, 64, 59
1, 798763, Control_c, 0, 64, 0
1, 798782, Note_on_c, 0, 69, 70
1, 798799, Note_on_c, 0, 60, 77
1, 798833, Note_on_c, 0, 60, 0
1, 798913, Note_on_c, 0, 62, 83
1, 798953, Note_on_c, 0, 62, 0
1, 799040, Note_on_c, 0, 64, 72
1, 799083, Note_on_c, 0, 64, 0
1, 799159, Note_on_c, 0, 78, 80
1, 799164, Note_on_c, 0, 62, 78
1, 799203, Note_on_c, 0, 62, 0
1, 799210, Note_on_c, 0, 79, 0
1, 799287, Note_on_c, 0, 64, 68
1, 799319, Note_on_c, 0, 64, 0
1, 799381, Note_on_c, 0, 69, 0
1, 799386, Control_c, 0, 67, 11
1, 799405, Control_c, 0, 67, 24
1, 799408, Note_on_c, 0, 60, 68
1, 799425, Control_c, 0, 67, 45
1, 799443, Control_c, 0, 67, 65
1, 799449, Note_on_c, 0, 60, 0
1, 799462, Control_c, 0, 67, 78
1, 799480, Control_c, 0, 67, 91
1, 799500, Control_c, 0, 67, 106
1, 799517, Control_c, 0, 67, 122
1, 799531, Note_on_c, 0, 79, 68
1, 799534, Control_c, 0, 67, 127
1, 799538, Note_on_c, 0, 59, 61
1, 799546, Note_on_c, 0, 67, 54
1, 799572, Note_on_c, 0, 59, 0
1, 799585, Note_on_c, 0, 78, 0
1, 799659, Note_on_c, 0, 62, 62
1, 799710, Note_on_c, 0, 62, 0
1, 799790, Note_on_c, 0, 57, 67
1, 799831, Note_on_c, 0, 57, 0
1, 799912, Note_on_c, 0, 59, 72
1, 799951, Note_on_c, 0, 67, 0
1, 799951, Note_on_c, 0, 59, 0
1, 800047, Note_on_c, 0, 62, 63
1, 800088, Note_on_c, 0, 62, 0
1, 800130, Note_on_c, 0, 79, 0
1, 800175, Note_on_c, 0, 74, 69
1, 800179, Note_on_c, 0, 55, 49
1, 800208, Note_on_c, 0, 74, 0
1, 800221, Note_on_c, 0, 55, 0
1, 800306, Note_on_c, 0, 60, 52
1, 800307, Note_on_c, 0, 76, 76
1, 800337, Note_on_c, 0, 60, 0
1, 800348, Note_on_c, 0, 76, 0
1, 800426, Note_on_c, 0, 79, 66
1, 800466, Note_on_c, 0, 79, 0
1, 800542, Note_on_c, 0, 74, 71
1, 800572, Note_on_c, 0, 59, 43
1, 800582, Note_on_c, 0, 74, 0
1, 800608, Note_on_c, 0, 59, 0
1, 800678, Note_on_c, 0, 60, 58
1, 800688, Note_on_c, 0, 76, 70
1, 800706, Note_on_c, 0, 60, 0
1, 800722, Note_on_c, 0, 76, 0
1, 800813, Note_on_c, 0, 79, 56
1, 800842, Note_on_c, 0, 79, 0
1, 800938, Note_on_c, 0, 55, 76
1, 800947, Note_on_c, 0, 71, 60
1, 800982, Note_on_c, 0, 55, 0
1, 800986, Note_on_c, 0, 71, 0
1, 801052, Note_on_c, 0, 72, 62
1, 801056, Note_on_c, 0, 57, 74
1, 801089, Note_on_c, 0, 57, 0
1, 801171, Note_on_c, 0, 60, 70
1, 801204, Note_on_c, 0, 60, 0
1, 801296, Note_on_c, 0, 55, 76
1, 801302, Note_on_c, 0, 72, 0
1, 801343, Note_on_c, 0, 55, 0
1, 801418, Note_on_c, 0, 57, 74
1, 801457, Note_on_c, 0, 57, 0
1, 801574, Note_on_c, 0, 60, 54
1, 801608, Note_on_c, 0, 60, 0
1, 801688, Note_on_c, 0, 79, 66
1, 801694, Note_on_c, 0, 52, 59
1, 801720, Note_on_c, 0, 79, 0
1, 801740, Note_on_c, 0, 52, 0
1, 801815, Note_on_c, 0, 81, 77
1, 801820, Note_on_c, 0, 54, 49
1, 801855, Note_on_c, 0, 54, 0
1, 801860, Note_on_c, 0, 81, 0
1, 801937, Note_on_c, 0, 84, 72
1, 801978, Note_on_c, 0, 84, 0
1, 802063, Note_on_c, 0, 79, 73
1, 802086, Note_on_c, 0, 52, 49
1, 802097, Note_on_c, 0, 79, 0
1, 802100, Control_c, 0, 67, 118
1, 802121, Control_c, 0, 67, 107
1, 802139, Control_c, 0, 67, 94
1, 802159, Control_c, 0, 67, 76
1, 802171, Note_on_c, 0, 52, 0
1, 802176, Control_c, 0, 67, 56
1, 802183, Note_on_c, 0, 81, 76
1, 802192, Note_on_c, 0, 54, 63
1, 802193, Control_c, 0, 67, 36
1, 802213, Control_c, 0, 67, 16
1, 802222, Note_on_c, 0, 81, 0
1, 802230, Note_on_c, 0, 54, 0
1, 802270, Control_c, 0, 67, 0
1, 802307, Note_on_c, 0, 84, 70
1, 802345, Note_on_c, 0, 84, 0
1, 802428, Note_on_c, 0, 57, 72
1, 802437, Note_on_c, 0, 76, 70
1, 802467, Note_on_c, 0, 76, 0
1, 802510, Note_on_c, 0, 57, 0
1, 802553, Note_on_c, 0, 62, 83
1, 802564, Note_on_c, 0, 78, 82
1, 802603, Note_on_c, 0, 62, 0
1, 802611, Note_on_c, 0, 78, 0
1, 802688, Note_on_c, 0, 81, 77
1, 802688, Note_on_c, 0, 66, 76
1, 802721, Note_on_c, 0, 81, 0
1, 802723, Note_on_c, 0, 66, 0
1, 802801, Note_on_c, 0, 61, 79
1, 802809, Note_on_c, 0, 76, 77
1, 802851, Note_on_c, 0, 76, 0
1, 802864, Note_on_c, 0, 61, 0
1, 802912, Note_on_c, 0, 62, 80
1, 802922, Note_on_c, 0, 78, 81
1, 802957, Note_on_c, 0, 62, 0
1, 802975, Note_on_c, 0, 78, 0
1, 803036, Note_on_c, 0, 66, 68
1, 803039, Note_on_c, 0, 81, 83
1, 803084, Note_on_c, 0, 66, 0
1, 803096, Note_on_c, 0, 81, 0
1, 803154, Note_on_c, 0, 57, 66
1, 803164, Note_on_c, 0, 73, 81
1, 803207, Note_on_c, 0, 57, 0
1, 803227, Note_on_c, 0, 73, 0
1, 803273, Note_on_c, 0, 59, 67
1, 803276, Note_on_c, 0, 74, 81
1, 803307, Note_on_c, 0, 59, 0
1, 803330, Note_on_c, 0, 74, 0
1, 803397, Note_on_c, 0, 62, 56
1, 803407, Note_on_c, 0, 78, 67
1, 803445, Note_on_c, 0, 62, 0
1, 803461, Note_on_c, 0, 78, 0
1, 803495, Control_c, 0, 67, 11
1, 803516, Control_c, 0, 67, 15
1, 803527, Note_on_c, 0, 57, 72
1, 803533, Control_c, 0, 67, 21
1, 803540, Note_on_c, 0, 73, 73
1, 803552, Control_c, 0, 67, 31
1, 803568, Note_on_c, 0, 57, 0
1, 803568, Control_c, 0, 67, 44
1, 803575, Note_on_c, 0, 73, 0
1, 803588, Control_c, 0, 67, 56
1, 803605, Control_c, 0, 67, 65
1, 803623, Control_c, 0, 67, 73
1, 803642, Control_c, 0, 67, 81
1, 803653, Note_on_c, 0, 74, 71
1, 803654, Note_on_c, 0, 59, 63
1, 803661, Control_c, 0, 67, 92
1, 803679, Control_c, 0, 67, 105
1, 803688, Note_on_c, 0, 59, 0
1, 803699, Control_c, 0, 67, 117
1, 803700, Note_on_c, 0, 74, 0
1, 803716, Control_c, 0, 67, 124
1, 803765, Note_on_c, 0, 62, 58
1, 803779, Note_on_c, 0, 78, 65
1, 803807, Note_on_c, 0, 62, 0
1, 803816, Note_on_c, 0, 78, 0
1, 803886, Note_on_c, 0, 54, 57
1, 803899, Note_on_c, 0, 69, 68
1, 803942, Note_on_c, 0, 54, 0
1, 803945, Note_on_c, 0, 69, 0
1, 804020, Note_on_c, 0, 71, 71
1, 804026, Note_on_c, 0, 55, 52
1, 804058, Note_on_c, 0, 55, 0
1, 804061, Note_on_c, 0, 71, 0
1, 804134, Note_on_c, 0, 74, 65
1, 804172, Note_on_c, 0, 74, 0
1, 804264, Note_on_c, 0, 73, 66
1, 804280, Note_on_c, 0, 52, 48
1, 804295, Note_on_c, 0, 73, 0
1, 804321, Note_on_c, 0, 52, 0
1, 804381, Note_on_c, 0, 54, 73
1, 804395, Note_on_c, 0, 74, 75
1, 804416, Note_on_c, 0, 54, 0
1, 804444, Note_on_c, 0, 74, 0
1, 804522, Note_on_c, 0, 76, 64
1, 804562, Note_on_c, 0, 76, 0
1, 804637, Note_on_c, 0, 71, 68
1, 804657, Note_on_c, 0, 55, 62
1, 804686, Note_on_c, 0, 55, 0
1, 804687, Note_on_c, 0, 71, 0
1, 804765, Note_on_c, 0, 57, 68
1, 804766, Note_on_c, 0, 73, 77
1, 804795, Note_on_c, 0, 57, 0
1, 804829, Note_on_c, 0, 73, 0
1, 804889, Note_on_c, 0, 76, 66
1, 804921, Note_on_c, 0, 76, 0
1, 805004, Note_on_c, 0, 74, 69
1, 805008, Note_on_c, 0, 54, 64
1, 805040, Note_on_c, 0, 74, 0
1, 805042, Note_on_c, 0, 54, 0
1, 805122, Note_on_c, 0, 76, 79
1, 805122, Note_on_c, 0, 55, 82
1, 805153, Note_on_c, 0, 55, 0
1, 805162, Note_on_c, 0, 76, 0
1, 805245, Note_on_c, 0, 78, 75
1, 805318, Note_on_c, 0, 78, 0
1, 805380, Note_on_c, 0, 73, 78
1, 805385, Note_on_c, 0, 57, 70
1, 805402, Control_c, 0, 67, 120
1, 805418, Note_on_c, 0, 57, 0
1, 805422, Control_c, 0, 67, 106
1, 805440, Note_on_c, 0, 73, 0
1, 805440, Control_c, 0, 67, 86
1, 805458, Control_c, 0, 67, 61
1, 805476, Control_c, 0, 67, 35
1, 805494, Note_on_c, 0, 74, 84
1, 805494, Control_c, 0, 67, 10
1, 805499, Note_on_c, 0, 59, 81
1, 805513, Control_c, 0, 67, 0
1, 805544, Note_on_c, 0, 59, 0
1, 805566, Note_on_c, 0, 74, 0
1, 805623, Note_on_c, 0, 78, 76
1, 805676, Note_on_c, 0, 78, 0
1, 805739, Note_on_c, 0, 61, 86
1, 805743, Note_on_c, 0, 76, 81
1, 805783, Note_on_c, 0, 61, 0
1, 805804, Note_on_c, 0, 76, 0
1, 805866, Note_on_c, 0, 78, 83
1, 805868, Note_on_c, 0, 62, 87
1, 805897, Note_on_c, 0, 62, 0
1, 805926, Note_on_c, 0, 78, 0
1, 805990, Note_on_c, 0, 81, 81
1, 806038, Note_on_c, 0, 81, 0
1, 806114, Note_on_c, 0, 79, 80
1, 806115, Note_on_c, 0, 59, 73
1, 806148, Note_on_c, 0, 79, 0
1, 806149, Note_on_c, 0, 59, 0
1, 806230, Note_on_c, 0, 81, 88
1, 806231, Note_on_c, 0, 61, 84
1, 806283, Control_c, 0, 64, 33
1, 806302, Control_c, 0, 64, 62
1, 806316, Note_on_c, 0, 61, 0
1, 806319, Control_c, 0, 64, 67
1, 806338, Control_c, 0, 64, 69
1, 806364, Note_on_c, 0, 64, 85
1, 806376, Control_c, 0, 64, 72
1, 806388, Note_on_c, 0, 81, 0
1, 806395, Control_c, 0, 64, 75
1, 806413, Control_c, 0, 64, 77
1, 806430, Control_c, 0, 64, 81
1, 806431, Note_on_c, 0, 64, 0
1, 806449, Control_c, 0, 64, 83
1, 806467, Control_c, 0, 64, 85
1, 806506, Note_on_c, 0, 69, 72
1, 806524, Control_c, 0, 64, 87
1, 806528, Note_on_c, 0, 69, 0
1, 806537, Note_on_c, 0, 67, 27
1, 806583, Note_on_c, 0, 67, 0
1, 806636, Note_on_c, 0, 73, 80
1, 806669, Control_c, 0, 64, 91
1, 806706, Note_on_c, 0, 73, 0
1, 806756, Note_on_c, 0, 76, 81
1, 806828, Note_on_c, 0, 76, 0
1, 806875, Note_on_c, 0, 79, 83
1, 806892, Note_on_c, 0, 45, 81
1, 806945, Control_c, 0, 64, 78
1, 806964, Control_c, 0, 64, 33
1, 806969, Note_on_c, 0, 79, 0
1, 806982, Control_c, 0, 64, 0
1, 807006, Note_on_c, 0, 50, 90
1, 807010, Note_on_c, 0, 45, 0
1, 807012, Note_on_c, 0, 78, 83
1, 807049, Note_on_c, 0, 50, 0
1, 807076, Note_on_c, 0, 78, 0
1, 807144, Note_on_c, 0, 54, 77
1, 807189, Note_on_c, 0, 54, 0
1, 807280, Note_on_c, 0, 49, 76
1, 807282, Note_on_c, 0, 76, 78
1, 807286, Note_on_c, 0, 69, 76
1, 807308, Note_on_c, 0, 76, 0
1, 807315, Note_on_c, 0, 69, 0
1, 807326, Note_on_c, 0, 49, 0
1, 807395, Note_on_c, 0, 50, 78
1, 807399, Note_on_c, 0, 78, 87
1, 807402, Note_on_c, 0, 69, 75
1, 807431, Note_on_c, 0, 50, 0
1, 807442, Note_on_c, 0, 69, 0
1, 807445, Note_on_c, 0, 78, 0
1, 807528, Note_on_c, 0, 54, 67
1, 807564, Note_on_c, 0, 54, 0
1, 807645, Note_on_c, 0, 45, 79
1, 807660, Note_on_c, 0, 79, 87
1, 807667, Note_on_c, 0, 69, 76
1, 807697, Note_on_c, 0, 69, 0
1, 807699, Note_on_c, 0, 79, 0
1, 807725, Note_on_c, 0, 45, 0
1, 807765, Note_on_c, 0, 50, 82
1, 807780, Note_on_c, 0, 78, 92
1, 807789, Note_on_c, 0, 69, 82
1, 807817, Note_on_c, 0, 50, 0
1, 807824, Note_on_c, 0, 69, 0
1, 807856, Note_on_c, 0, 78, 0
1, 807897, Note_on_c, 0, 54, 68
1, 807932, Note_on_c, 0, 54, 0
1, 808032, Note_on_c, 0, 76, 80
1, 808036, Note_on_c, 0, 49, 69
1, 808041, Note_on_c, 0, 69, 70
1, 808061, Note_on_c, 0, 69, 0
1, 808064, Note_on_c, 0, 76, 0
1, 808072, Note_on_c, 0, 49, 0
1, 808165, Note_on_c, 0, 50, 77
1, 808170, Note_on_c, 0, 74, 89
1, 808175, Note_on_c, 0, 69, 63
1, 808202, Note_on_c, 0, 50, 0
1, 808210, Note_on_c, 0, 69, 0
1, 808294, Note_on_c, 0, 54, 68
1, 808348, Note_on_c, 0, 54, 0
1, 808421, Note_on_c, 0, 45, 71
1, 808430, Note_on_c, 0, 66, 56
1, 808465, Note_on_c, 0, 45, 0
1, 808467, Note_on_c, 0, 66, 0
1, 808555, Note_on_c, 0, 62, 67
1, 808561, Note_on_c, 0, 47, 64
1, 808599, Note_on_c, 0, 62, 0
1, 808599, Note_on_c, 0, 47, 0
1, 808675, Note_on_c, 0, 43, 67
1, 808693, Note_on_c, 0, 67, 52
1, 808707, Note_on_c, 0, 43, 0
1, 808731, Note_on_c, 0, 67, 0
1, 808802, Note_on_c, 0, 38, 69
1, 808808, Note_on_c, 0, 71, 59
1, 808834, Note_on_c, 0, 71, 0
1, 808836, Note_on_c, 0, 38, 0
1, 808921, Note_on_c, 0, 71, 72
1, 808926, Note_on_c, 0, 50, 86
1, 808947, Control_c, 0, 64, 51
1, 808966, Control_c, 0, 64, 75
1, 808982, Control_c, 0, 64, 83
1, 809002, Control_c, 0, 64, 90
1, 809067, Note_on_c, 0, 50, 0
1, 809067, Note_on_c, 0, 67, 65
1, 809089, Control_c, 0, 64, 94
1, 809125, Note_on_c, 0, 71, 0
1, 809151, Note_on_c, 0, 67, 0
1, 809193, Note_on_c, 0, 62, 69
1, 809200, Control_c, 0, 64, 98
1, 809203, Note_on_c, 0, 43, 69
1, 809229, Note_on_c, 0, 62, 0
1, 809249, Note_on_c, 0, 43, 0
1, 809275, Control_c, 0, 64, 91
1, 809291, Control_c, 0, 64, 61
1, 809310, Control_c, 0, 64, 0
1, 809317, Note_on_c, 0, 45, 76
1, 809323, Note_on_c, 0, 62, 80
1, 809360, Note_on_c, 0, 45, 0
1, 809440, Note_on_c, 0, 42, 74
1, 809449, Note_on_c, 0, 62, 0
1, 809453, Note_on_c, 0, 66, 76
1, 809486, Note_on_c, 0, 42, 0
1, 809502, Note_on_c, 0, 66, 0
1, 809582, Note_on_c, 0, 69, 72
1, 809585, Note_on_c, 0, 38, 63
1, 809611, Note_on_c, 0, 69, 0
1, 809623, Note_on_c, 0, 38, 0
1, 809696, Note_on_c, 0, 69, 80
1, 809696, Control_c, 0, 64, 49
1, 809700, Note_on_c, 0, 50, 80
1, 809716, Control_c, 0, 64, 75
1, 809734, Note_on_c, 0, 50, 0
1, 809734, Control_c, 0, 64, 83
1, 809752, Control_c, 0, 64, 90
1, 809789, Control_c, 0, 64, 97
1, 809819, Note_on_c, 0, 66, 83
1, 809821, Note_on_c, 0, 69, 0
1, 809827, Control_c, 0, 64, 104
1, 809864, Control_c, 0, 64, 110
1, 809901, Control_c, 0, 64, 115
1, 809907, Note_on_c, 0, 66, 0
1, 809955, Note_on_c, 0, 62, 81
1, 809976, Note_on_c, 0, 42, 71
1, 810006, Note_on_c, 0, 62, 0
1, 810032, Note_on_c, 0, 42, 0
1, 810043, Control_c, 0, 64, 108
1, 810064, Control_c, 0, 64, 75
1, 810081, Control_c, 0, 64, 0
1, 810099, Note_on_c, 0, 64, 83
1, 810110, Note_on_c, 0, 43, 79
1, 810150, Note_on_c, 0, 43, 0
1, 810151, Note_on_c, 0, 74, 0
1, 810231, Note_on_c, 0, 45, 76
1, 810263, Note_on_c, 0, 45, 0
1, 810366, Note_on_c, 0, 47, 71
1, 810377, Note_on_c, 0, 74, 83
1, 810403, Note_on_c, 0, 47, 0
1, 810408, Note_on_c, 0, 74, 0
1, 810496, Note_on_c, 0, 73, 83
1, 810500, Note_on_c, 0, 45, 65
1, 810538, Note_on_c, 0, 45, 0
1, 810541, Note_on_c, 0, 73, 0
1, 810637, Note_on_c, 0, 47, 52
1, 810673, Note_on_c, 0, 47, 0
1, 810746, Note_on_c, 0, 43, 69
1, 810777, Note_on_c, 0, 71, 66
1, 810786, Note_on_c, 0, 43, 0
1, 810854, Note_on_c, 0, 71, 0
1, 810870, Note_on_c, 0, 42, 65
1, 810881, Note_on_c, 0, 69, 75
1, 810934, Note_on_c, 0, 42, 0
1, 811010, Note_on_c, 0, 43, 68
1, 811020, Note_on_c, 0, 64, 0
1, 811050, Note_on_c, 0, 43, 0
1, 811142, Note_on_c, 0, 45, 66
1, 811159, Note_on_c, 0, 62, 80
1, 811178, Note_on_c, 0, 45, 0
1, 811266, Note_on_c, 0, 43, 69
1, 811274, Note_on_c, 0, 71, 78
1, 811302, Note_on_c, 0, 69, 0
1, 811304, Note_on_c, 0, 43, 0
1, 811406, Note_on_c, 0, 45, 57
1, 811440, Note_on_c, 0, 45, 0
1, 811521, Note_on_c, 0, 71, 0
1, 811522, Note_on_c, 0, 42, 64
1, 811527, Note_on_c, 0, 69, 66
1, 811565, Note_on_c, 0, 42, 0
1, 811640, Note_on_c, 0, 67, 74
1, 811647, Note_on_c, 0, 40, 65
1, 811664, Note_on_c, 0, 69, 0
1, 811686, Note_on_c, 0, 40, 0
1, 811688, Note_on_c, 0, 62, 0
1, 811773, Note_on_c, 0, 42, 68
1, 811817, Note_on_c, 0, 42, 0
1, 811911, Note_on_c, 0, 43, 61
1, 811922, Note_on_c, 0, 61, 69
1, 811934, Control_c, 0, 67, 10
1, 811948, Note_on_c, 0, 43, 0
1, 811952, Control_c, 0, 67, 15
1, 812008, Control_c, 0, 67, 20
1, 812017, Note_on_c, 0, 67, 0
1, 812024, Control_c, 0, 67, 30
1, 812038, Note_on_c, 0, 42, 57
1, 812043, Control_c, 0, 67, 45
1, 812046, Note_on_c, 0, 69, 66
1, 812063, Control_c, 0, 67, 56
1, 812079, Note_on_c, 0, 42, 0
1, 812080, Control_c, 0, 67, 62
1, 812098, Control_c, 0, 67, 66
1, 812117, Control_c, 0, 67, 73
1, 812136, Control_c, 0, 67, 84
1, 812154, Control_c, 0, 67, 96
1, 812171, Control_c, 0, 67, 105
1, 812172, Note_on_c, 0, 43, 49
1, 812191, Control_c, 0, 67, 111
1, 812211, Control_c, 0, 67, 115
1, 812212, Note_on_c, 0, 43, 0
1, 812230, Control_c, 0, 67, 119
1, 812247, Control_c, 0, 67, 125
1, 812298, Note_on_c, 0, 40, 50
1, 812306, Note_on_c, 0, 67, 57
1, 812321, Note_on_c, 0, 69, 0
1, 812332, Note_on_c, 0, 40, 0
1, 812337, Note_on_c, 0, 61, 0
1, 812374, Note_on_c, 0, 67, 0
1, 812431, Note_on_c, 0, 38, 53
1, 812437, Note_on_c, 0, 66, 62
1, 812465, Note_on_c, 0, 38, 0
1, 812519, Note_on_c, 0, 66, 0
1, 812552, Note_on_c, 0, 62, 58
1, 812684, Note_on_c, 0, 67, 62
1, 812711, Note_on_c, 0, 40, 50
1, 812750, Note_on_c, 0, 40, 0
1, 812779, Note_on_c, 0, 62, 0
1, 812803, Note_on_c, 0, 67, 0
1, 812827, Note_on_c, 0, 69, 59
1, 812847, Note_on_c, 0, 42, 60
1, 812880, Note_on_c, 0, 42, 0
1, 812958, Note_on_c, 0, 62, 55
1, 813029, Note_on_c, 0, 69, 0
1, 813076, Note_on_c, 0, 43, 67
1, 813085, Note_on_c, 0, 71, 71
1, 813089, Note_on_c, 0, 62, 0
1, 813117, Note_on_c, 0, 43, 0
1, 813140, Note_on_c, 0, 71, 0
1, 813194, Note_on_c, 0, 61, 71
1, 813195, Note_on_c, 0, 45, 73
1, 813225, Note_on_c, 0, 45, 0
1, 813237, Control_c, 0, 67, 110
1, 813258, Control_c, 0, 67, 91
1, 813273, Control_c, 0, 67, 66
1, 813293, Control_c, 0, 67, 37
1, 813308, Note_on_c, 0, 57, 61
1, 813310, Note_on_c, 0, 61, 0
1, 813311, Control_c, 0, 67, 8
1, 813329, Control_c, 0, 67, 0
1, 813444, Note_on_c, 0, 62, 68
1, 813451, Note_on_c, 0, 47, 59
1, 813458, Note_on_c, 0, 48, 55
1, 813484, Note_on_c, 0, 47, 0
1, 813492, Note_on_c, 0, 48, 0
1, 813493, Note_on_c, 0, 57, 0
1, 813561, Note_on_c, 0, 64, 71
1, 813562, Note_on_c, 0, 49, 86
1, 813572, Note_on_c, 0, 62, 0
1, 813589, Note_on_c, 0, 49, 0
1, 813689, Note_on_c, 0, 57, 59
1, 813806, Note_on_c, 0, 57, 0
1, 813829, Note_on_c, 0, 66, 69
1, 813835, Note_on_c, 0, 64, 0
1, 813839, Note_on_c, 0, 50, 60
1, 813863, Note_on_c, 0, 66, 0
1, 813878, Note_on_c, 0, 50, 0
1, 813965, Note_on_c, 0, 40, 67
1, 813966, Note_on_c, 0, 67, 72
1, 814017, Note_on_c, 0, 40, 0
1, 814052, Note_on_c, 0, 67, 0
1, 814096, Note_on_c, 0, 64, 53
1, 814200, Note_on_c, 0, 42, 71
1, 814230, Note_on_c, 0, 69, 69
1, 814248, Note_on_c, 0, 42, 0
1, 814293, Note_on_c, 0, 64, 0
1, 814310, Note_on_c, 0, 69, 0
1, 814325, Note_on_c, 0, 43, 82
1, 814336, Note_on_c, 0, 71, 69
1, 814364, Note_on_c, 0, 43, 0
1, 814409, Note_on_c, 0, 71, 0
1, 814443, Note_on_c, 0, 64, 63
1, 814581, Note_on_c, 0, 45, 80
1, 814584, Note_on_c, 0, 73, 80
1, 814601, Note_on_c, 0, 64, 0
1, 814609, Note_on_c, 0, 45, 0
1, 814629, Note_on_c, 0, 73, 0
1, 814716, Note_on_c, 0, 47, 81
1, 814717, Note_on_c, 0, 62, 86
1, 814755, Note_on_c, 0, 47, 0
1, 814812, Note_on_c, 0, 62, 0
1, 814832, Note_on_c, 0, 59, 76
1, 814944, Note_on_c, 0, 49, 85
1, 814959, Note_on_c, 0, 64, 77
1, 814976, Note_on_c, 0, 49, 0
1, 814993, Note_on_c, 0, 59, 0
1, 815072, Note_on_c, 0, 66, 77
1, 815075, Note_on_c, 0, 50, 91
1, 815087, Note_on_c, 0, 64, 0
1, 815103, Note_on_c, 0, 50, 0
1, 815195, Note_on_c, 0, 59, 69
1, 815203, Note_on_c, 0, 66, 0
1, 815320, Note_on_c, 0, 52, 82
1, 815328, Note_on_c, 0, 67, 80
1, 815350, Note_on_c, 0, 59, 0
1, 815356, Note_on_c, 0, 52, 0
1, 815417, Note_on_c, 0, 67, 0
1, 815436, Note_on_c, 0, 69, 85
1, 815437, Note_on_c, 0, 54, 94
1, 815482, Note_on_c, 0, 50, 32
1, 815485, Note_on_c, 0, 54, 0
1, 815531, Note_on_c, 0, 50, 0
1, 815578, Note_on_c, 0, 66, 68
1, 815693, Note_on_c, 0, 66, 0
1, 815710, Note_on_c, 0, 61, 66
1, 815719, Note_on_c, 0, 55, 80
1, 815754, Note_on_c, 0, 55, 0
1, 815794, Note_on_c, 0, 61, 0
1, 815823, Note_on_c, 0, 54, 85
1, 815844, Note_on_c, 0, 62, 67
1, 815870, Note_on_c, 0, 54, 0
1, 815899, Note_on_c, 0, 62, 0
1, 815957, Note_on_c, 0, 66, 62
1, 816049, Note_on_c, 0, 66, 0
1, 816090, Note_on_c, 0, 52, 75
1, 816098, Note_on_c, 0, 57, 71
1, 816143, Note_on_c, 0, 52, 0
1, 816199, Note_on_c, 0, 57, 0
1, 816217, Note_on_c, 0, 54, 87
1, 816222, Note_on_c, 0, 62, 73
1, 816258, Note_on_c, 0, 54, 0
1, 816291, Note_on_c, 0, 62, 0
1, 816348, Note_on_c, 0, 66, 63
1, 816443, Note_on_c, 0, 66, 0
1, 816470, Note_on_c, 0, 55, 73
1, 816482, Note_on_c, 0, 61, 63
1, 816506, Note_on_c, 0, 55, 0
1, 816551, Note_on_c, 0, 61, 0
1, 816595, Note_on_c, 0, 54, 74
1, 816604, Note_on_c, 0, 62, 69
1, 816634, Note_on_c, 0, 54, 0
1, 816678, Note_on_c, 0, 62, 0
1, 816749, Note_on_c, 0, 66, 55
1, 816823, Note_on_c, 0, 69, 0
1, 816829, Note_on_c, 0, 66, 0
1, 816859, Note_on_c, 0, 52, 63
1, 816868, Note_on_c, 0, 57, 70
1, 816895, Note_on_c, 0, 52, 0
1, 816901, Note_on_c, 0, 57, 0
1, 816975, Note_on_c, 0, 50, 82
1, 816980, Note_on_c, 0, 59, 87
1, 817042, Note_on_c, 0, 50, 0
1, 817075, Note_on_c, 0, 59, 0
1, 817094, Note_on_c, 0, 55, 86
1, 817107, Note_on_c, 0, 67, 83
1, 817136, Note_on_c, 0, 55, 0
1, 817171, Note_on_c, 0, 67, 0
1, 817225, Note_on_c, 0, 59, 78
1, 817231, Note_on_c, 0, 62, 84
1, 817257, Note_on_c, 0, 59, 0
1, 817322, Note_on_c, 0, 62, 0
1, 817343, Note_on_c, 0, 59, 87
1, 817346, Note_on_c, 0, 74, 91
1, 817412, Note_on_c, 0, 59, 0
1, 817466, Note_on_c, 0, 55, 80
1, 817539, Note_on_c, 0, 55, 0
1, 817613, Note_on_c, 0, 67, 82
1, 817621, Note_on_c, 0, 50, 71
1, 817624, Note_on_c, 0, 74, 0
1, 817652, Note_on_c, 0, 50, 0
1, 817659, Note_on_c, 0, 67, 0
1, 817729, Note_on_c, 0, 50, 81
1, 817740, Note_on_c, 0, 69, 88
1, 817799, Note_on_c, 0, 50, 0
1, 817823, Note_on_c, 0, 69, 0
1, 817859, Note_on_c, 0, 66, 84
1, 817861, Note_on_c, 0, 54, 81
1, 817900, Note_on_c, 0, 54, 0
1, 817925, Note_on_c, 0, 66, 0
1, 817984, Note_on_c, 0, 62, 80
1, 817986, Note_on_c, 0, 57, 75
1, 818021, Note_on_c, 0, 57, 0
1, 818040, Note_on_c, 0, 62, 0
1, 818100, Note_on_c, 0, 57, 80
1, 818103, Note_on_c, 0, 74, 92
1, 818157, Note_on_c, 0, 57, 0
1, 818238, Note_on_c, 0, 54, 69
1, 818333, Note_on_c, 0, 54, 0
1, 818356, Note_on_c, 0, 50, 61
1, 818369, Note_on_c, 0, 74, 0
1, 818369, Note_on_c, 0, 66, 68
1, 818391, Note_on_c, 0, 50, 0
1, 818422, Note_on_c, 0, 66, 0
1, 818506, Note_on_c, 0, 50, 77
1, 818508, Note_on_c, 0, 52, 81
1, 818508, Note_on_c, 0, 67, 87
1, 818634, Note_on_c, 0, 69, 84
1, 818647, Note_on_c, 0, 67, 0
1, 818660, Note_on_c, 0, 52, 0
1, 818677, Note_on_c, 0, 50, 0
1, 818700, Note_on_c, 0, 69, 0
1, 818775, Note_on_c, 0, 71, 78
1, 818817, Note_on_c, 0, 71, 0
1, 818885, Note_on_c, 0, 52, 79
1, 818889, Note_on_c, 0, 49, 77
1, 818894, Note_on_c, 0, 69, 90
1, 818996, Note_on_c, 0, 52, 0
1, 819012, Note_on_c, 0, 69, 0
1, 819012, Note_on_c, 0, 71, 81
1, 819034, Note_on_c, 0, 49, 0
1, 819067, Note_on_c, 0, 71, 0
1, 819135, Note_on_c, 0, 67, 76
1, 819178, Note_on_c, 0, 67, 0
1, 819250, Note_on_c, 0, 50, 80
1, 819261, Note_on_c, 0, 66, 88
1, 819402, Note_on_c, 0, 69, 75
1, 819407, Note_on_c, 0, 66, 0
1, 819411, Note_on_c, 0, 50, 0
1, 819439, Note_on_c, 0, 69, 0
1, 819531, Note_on_c, 0, 67, 80
1, 819534, Note_on_c, 0, 52, 61
1, 819571, Note_on_c, 0, 67, 0
1, 819573, Note_on_c, 0, 52, 0
1, 819645, Note_on_c, 0, 54, 80
1, 819648, Note_on_c, 0, 69, 86
1, 819686, Note_on_c, 0, 54, 0
1, 819704, Note_on_c, 0, 69, 0
1, 819773, Note_on_c, 0, 73, 74
1, 819811, Note_on_c, 0, 73, 0
1, 819899, Note_on_c, 0, 71, 83
1, 819902, Note_on_c, 0, 55, 69
1, 819937, Note_on_c, 0, 55, 0
1, 819948, Note_on_c, 0, 71, 0
1, 820019, Note_on_c, 0, 73, 88
1, 820027, Note_on_c, 0, 57, 74
1, 820060, Note_on_c, 0, 57, 0
1, 820068, Note_on_c, 0, 73, 0
1, 820138, Note_on_c, 0, 61, 80
1, 820139, Note_on_c, 0, 76, 86
1, 820180, Note_on_c, 0, 61, 0
1, 820188, Note_on_c, 0, 76, 0
1, 820254, Note_on_c, 0, 79, 83
1, 820260, Note_on_c, 0, 57, 66
1, 820310, Note_on_c, 0, 79, 0
1, 820318, Note_on_c, 0, 57, 0
1, 820392, Note_on_c, 0, 52, 68
1, 820393, Note_on_c, 0, 79, 91
1, 820443, Note_on_c, 0, 52, 0
1, 820462, Note_on_c, 0, 79, 0
1, 820519, Note_on_c, 0, 57, 67
1, 820519, Note_on_c, 0, 76, 80
1, 820552, Note_on_c, 0, 57, 0
1, 820568, Note_on_c, 0, 76, 0
1, 820632, Note_on_c, 0, 73, 84
1, 820642, Note_on_c, 0, 52, 67
1, 820675, Note_on_c, 0, 52, 0
1, 820695, Note_on_c, 0, 73, 0
1, 820757, Note_on_c, 0, 69, 78
1, 820759, Note_on_c, 0, 49, 73
1, 820799, Note_on_c, 0, 49, 0
1, 820802, Note_on_c, 0, 69, 0
1, 820882, Note_on_c, 0, 73, 80
1, 820893, Note_on_c, 0, 52, 57
1, 820926, Note_on_c, 0, 52, 0
1, 820935, Note_on_c, 0, 73, 0
1, 820998, Note_on_c, 0, 76, 83
1, 821004, Note_on_c, 0, 49, 63
1, 821040, Note_on_c, 0, 49, 0
1, 821046, Note_on_c, 0, 76, 0
1, 821118, Note_on_c, 0, 45, 72
1, 821120, Note_on_c, 0, 79, 89
1, 821166, Note_on_c, 0, 79, 0
1, 821174, Note_on_c, 0, 45, 0
1, 821250, Note_on_c, 0, 47, 77
1, 821253, Note_on_c, 0, 78, 86
1, 821301, Note_on_c, 0, 47, 0
1, 821309, Note_on_c, 0, 78, 0
1, 821382, Note_on_c, 0, 76, 90
1, 821382, Note_on_c, 0, 49, 72
1, 821423, Note_on_c, 0, 49, 0
1, 821429, Note_on_c, 0, 76, 0
1, 821494, Note_on_c, 0, 50, 71
1, 821496, Note_on_c, 0, 78, 90
1, 821527, Note_on_c, 0, 50, 0
1, 821563, Note_on_c, 0, 78, 0
1, 821616, Note_on_c, 0, 76, 89
1, 821670, Note_on_c, 0, 76, 0
1, 821748, Note_on_c, 0, 74, 86
1, 821750, Note_on_c, 0, 71, 85
1, 821751, Note_on_c, 0, 55, 72
1, 821782, Note_on_c, 0, 74, 0
1, 821785, Note_on_c, 0, 71, 0
1, 821807, Note_on_c, 0, 55, 0
1, 821858, Note_on_c, 0, 74, 86
1, 821863, Note_on_c, 0, 69, 90
1, 821874, Note_on_c, 0, 57, 75
1, 821904, Note_on_c, 0, 57, 0
1, 821994, Note_on_c, 0, 76, 84
1, 822002, Note_on_c, 0, 74, 0
1, 822045, Control_c, 0, 67, 8
1, 822108, Note_on_c, 0, 73, 83
1, 822112, Note_on_c, 0, 69, 0
1, 822113, Note_on_c, 0, 67, 79
1, 822121, Note_on_c, 0, 45, 67
1, 822139, Note_on_c, 0, 76, 0
1, 822198, Note_on_c, 0, 45, 0
1, 822243, Control_c, 0, 67, 12
1, 822248, Note_on_c, 0, 38, 72
1, 822249, Note_on_c, 0, 74, 83
1, 822250, Note_on_c, 0, 67, 0
1, 822258, Note_on_c, 0, 73, 0
1, 822360, Note_on_c, 0, 42, 80
1, 822373, Note_on_c, 0, 69, 83
1, 822448, Note_on_c, 0, 42, 0
1, 822473, Note_on_c, 0, 45, 75
1, 822480, Note_on_c, 0, 66, 77
1, 822546, Note_on_c, 0, 45, 0
1, 822571, Note_on_c, 0, 66, 0
1, 822610, Note_on_c, 0, 50, 77
1, 822615, Note_on_c, 0, 62, 78
1, 822625, Note_on_c, 0, 38, 0
1, 822629, Control_c, 0, 64, 38
1, 822638, Note_on_c, 0, 50, 0
1, 822648, Control_c, 0, 64, 82
1, 822668, Control_c, 0, 64, 97
1, 822685, Control_c, 0, 64, 109
1, 822723, Control_c, 0, 64, 115
1, 822742, Control_c, 0, 64, 120
1, 822760, Control_c, 0, 64, 127
1, 822774, Poly_aftertouch_c, 0, 50, 0
1, 822795, Control_c, 0, 67, 16
1, 822896, Note_on_c, 0, 57, 75
1, 822962, Control_c, 0, 64, 98
1, 822999, Control_c, 0, 64, 0
1, 823000, Control_c, 0, 67, 20
1, 823004, Note_on_c, 0, 54, 77
1, 823008, Note_on_c, 0, 57, 0
1, 823016, Control_c, 0, 67, 25
1, 823018, Note_on_c, 0, 62, 0
1, 823034, Control_c, 0, 67, 31
1, 823036, Note_on_c, 0, 74, 0
1, 823036, Note_on_c, 0, 69, 0
1, 823051, Note_on_c, 0, 54, 0
1, 823053, Control_c, 0, 67, 36
1, 823073, Control_c, 0, 67, 42
1, 823104, Control_c, 0, 67, 48
1, 823123, Control_c, 0, 67, 54
1, 823141, Control_c, 0, 67, 60
1, 823156, Note_on_c, 0, 50, 66
1, 823160, Control_c, 0, 67, 66
1, 823180, Control_c, 0, 67, 73
1, 823197, Control_c, 0, 67, 80
1, 823210, Note_on_c, 0, 50, 0
1, 823216, Control_c, 0, 67, 87
1, 823236, Control_c, 0, 67, 94
1, 823253, Control_c, 0, 67, 99
1, 823281, Note_on_c, 0, 55, 75
1, 823290, Control_c, 0, 67, 107
1, 823309, Control_c, 0, 67, 116
1, 823327, Note_on_c, 0, 55, 0
1, 823327, Control_c, 0, 67, 125
1, 823409, Note_on_c, 0, 54, 63
1, 823458, Note_on_c, 0, 54, 0
1, 823532, Note_on_c, 0, 50, 51
1, 823564, Note_on_c, 0, 50, 0
1, 823665, Note_on_c, 0, 57, 50
1, 823697, Note_on_c, 0, 57, 0
1, 823777, Note_on_c, 0, 54, 67
1, 823824, Note_on_c, 0, 54, 0
1, 823908, Note_on_c, 0, 50, 58
1, 823946, Note_on_c, 0, 50, 0
1, 824040, Note_on_c, 0, 55, 68
1, 824078, Note_on_c, 0, 55, 0
1, 824160, Note_on_c, 0, 54, 65
1, 824198, Note_on_c, 0, 54, 0
1, 824280, Note_on_c, 0, 50, 60
1, 824318, Note_on_c, 0, 50, 0
1, 824412, Note_on_c, 0, 57, 56
1, 824446, Note_on_c, 0, 57, 0
1, 824519, Note_on_c, 0, 54, 74
1, 824576, Note_on_c, 0, 54, 0
1, 824654, Note_on_c, 0, 57, 65
1, 824681, Note_on_c, 0, 57, 0
1, 824767, Note_on_c, 0, 60, 55
1, 824798, Note_on_c, 0, 60, 0
1, 824896, Note_on_c, 0, 50, 62
1, 824976, Control_c, 0, 64, 15
1, 824995, Control_c, 0, 64, 48
1, 825012, Control_c, 0, 64, 63
1, 825032, Control_c, 0, 64, 68
1, 825051, Control_c, 0, 64, 71
1, 825088, Control_c, 0, 64, 74
1, 825107, Control_c, 0, 64, 76
1, 825125, Control_c, 0, 64, 79
1, 825142, Control_c, 0, 64, 82
1, 825180, Control_c, 0, 64, 84
1, 825195, Note_on_c, 0, 59, 76
1, 825230, Note_on_c, 0, 50, 0
1, 825232, Note_on_c, 0, 59, 0
1, 825233, Control_c, 0, 64, 72
1, 825252, Control_c, 0, 64, 42
1, 825272, Control_c, 0, 64, 0
1, 825310, Note_on_c, 0, 55, 82
1, 825371, Note_on_c, 0, 55, 0
1, 825429, Note_on_c, 0, 59, 80
1, 825458, Note_on_c, 0, 59, 0
1, 825558, Note_on_c, 0, 62, 63
1, 825604, Note_on_c, 0, 62, 0
1, 825674, Note_on_c, 0, 52, 63
1, 825769, Control_c, 0, 64, 47
1, 825788, Control_c, 0, 64, 67
1, 825824, Control_c, 0, 64, 69
1, 825926, Note_on_c, 0, 52, 0
1, 825954, Note_on_c, 0, 60, 70
1, 825968, Control_c, 0, 64, 71
1, 826002, Note_on_c, 0, 60, 0
1, 826023, Control_c, 0, 64, 65
1, 826043, Control_c, 0, 64, 47
1, 826061, Control_c, 0, 64, 0
1, 826070, Note_on_c, 0, 57, 71
1, 826150, Note_on_c, 0, 57, 0
1, 826179, Note_on_c, 0, 60, 78
1, 826229, Note_on_c, 0, 60, 0
1, 826335, Note_on_c, 0, 64, 58
1, 826362, Note_on_c, 0, 64, 0
1, 826447, Note_on_c, 0, 54, 56
1, 826498, Note_on_c, 0, 54, 0
1, 826572, Note_on_c, 0, 62, 66
1, 826611, Note_on_c, 0, 62, 0
1, 826684, Note_on_c, 0, 60, 69
1, 826720, Note_on_c, 0, 60, 0
1, 826802, Note_on_c, 0, 59, 73
1, 826863, Note_on_c, 0, 59, 0
1, 826932, Note_on_c, 0, 55, 73
1, 826982, Note_on_c, 0, 55, 0
1, 827069, Note_on_c, 0, 50, 53
1, 827099, Note_on_c, 0, 50, 0
1, 827190, Note_on_c, 0, 55, 65
1, 827235, Note_on_c, 0, 55, 0
1, 827316, Note_on_c, 0, 50, 46
1, 827357, Note_on_c, 0, 50, 0
1, 827439, Note_on_c, 0, 47, 54
1, 827439, Note_on_c, 0, 62, 69
1, 827478, Note_on_c, 0, 62, 0
1, 827496, Note_on_c, 0, 47, 0
1, 827555, Note_on_c, 0, 59, 69
1, 827556, Note_on_c, 0, 43, 58
1, 827598, Note_on_c, 0, 59, 0
1, 827600, Note_on_c, 0, 43, 0
1, 827684, Note_on_c, 0, 55, 57
1, 827724, Note_on_c, 0, 55, 0
1, 827828, Note_on_c, 0, 60, 69
1, 827837, Note_on_c, 0, 52, 61
1, 827882, Note_on_c, 0, 60, 0
1, 827904, Note_on_c, 0, 52, 0
1, 827946, Note_on_c, 0, 59, 66
1, 827966, Note_on_c, 0, 50, 55
1, 827995, Note_on_c, 0, 59, 0
1, 828069, Note_on_c, 0, 55, 33
1, 828222, Note_on_c, 0, 42, 45
1, 828226, Note_on_c, 0, 62, 61
1, 828229, Note_on_c, 0, 50, 0
1, 828243, Note_on_c, 0, 55, 0
1, 828258, Note_on_c, 0, 42, 0
1, 828270, Note_on_c, 0, 62, 0
1, 828339, Note_on_c, 0, 43, 64
1, 828351, Note_on_c, 0, 59, 62
1, 828386, Note_on_c, 0, 43, 0
1, 828390, Note_on_c, 0, 59, 0
1, 828473, Note_on_c, 0, 55, 55
1, 828515, Note_on_c, 0, 55, 0
1, 828593, Note_on_c, 0, 60, 67
1, 828606, Note_on_c, 0, 52, 61
1, 828626, Note_on_c, 0, 60, 0
1, 828649, Note_on_c, 0, 52, 0
1, 828724, Note_on_c, 0, 59, 70
1, 828727, Note_on_c, 0, 50, 56
1, 828770, Note_on_c, 0, 59, 0
1, 828852, Note_on_c, 0, 55, 49
1, 828946, Note_on_c, 0, 55, 0
1, 828976, Note_on_c, 0, 62, 68
1, 828995, Note_on_c, 0, 42, 34
1, 829006, Note_on_c, 0, 50, 0
1, 829016, Note_on_c, 0, 62, 0
1, 829042, Note_on_c, 0, 42, 0
1, 829105, Note_on_c, 0, 43, 61
1, 829106, Note_on_c, 0, 59, 64
1, 829139, Note_on_c, 0, 59, 0
1, 829143, Note_on_c, 0, 43, 0
1, 829218, Note_on_c, 0, 62, 73
1, 829224, Note_on_c, 0, 47, 65
1, 829251, Note_on_c, 0, 62, 0
1, 829261, Note_on_c, 0, 47, 0
1, 829344, Note_on_c, 0, 65, 66
1, 829352, Note_on_c, 0, 50, 54
1, 829380, Note_on_c, 0, 65, 0
1, 829385, Note_on_c, 0, 50, 0
1, 829464, Note_on_c, 0, 55, 68
1, 829473, Note_on_c, 0, 47, 54
1, 829508, Note_on_c, 0, 47, 0
1, 829586, Note_on_c, 0, 43, 57
1, 829626, Note_on_c, 0, 43, 0
1, 829740, Note_on_c, 0, 55, 0
1, 829742, Note_on_c, 0, 64, 71
1, 829750, Note_on_c, 0, 48, 51
1, 829786, Note_on_c, 0, 64, 0
1, 829786, Note_on_c, 0, 48, 0
1, 829850, Note_on_c, 0, 45, 67
1, 829858, Control_c, 0, 67, 116
1, 829863, Note_on_c, 0, 60, 75
1, 829877, Control_c, 0, 67, 98
1, 829893, Control_c, 0, 67, 77
1, 829896, Note_on_c, 0, 60, 0
1, 829898, Note_on_c, 0, 45, 0
1, 829912, Control_c, 0, 67, 55
1, 829931, Control_c, 0, 67, 33
1, 829949, Control_c, 0, 67, 11
1, 829967, Control_c, 0, 67, 0
1, 829981, Note_on_c, 0, 64, 71
1, 829982, Note_on_c, 0, 48, 60
1, 830014, Note_on_c, 0, 64, 0
1, 830016, Note_on_c, 0, 48, 0
1, 830096, Note_on_c, 0, 67, 68
1, 830112, Note_on_c, 0, 52, 52
1, 830127, Note_on_c, 0, 67, 0
1, 830153, Note_on_c, 0, 52, 0
1, 830221, Note_on_c, 0, 57, 67
1, 830223, Note_on_c, 0, 48, 60
1, 830260, Note_on_c, 0, 48, 0
1, 830338, Note_on_c, 0, 45, 61
1, 830376, Note_on_c, 0, 45, 0
1, 830477, Note_on_c, 0, 57, 0
1, 830477, Note_on_c, 0, 50, 58
1, 830482, Note_on_c, 0, 65, 68
1, 830508, Note_on_c, 0, 50, 0
1, 830525, Note_on_c, 0, 65, 0
1, 830606, Note_on_c, 0, 47, 66
1, 830610, Note_on_c, 0, 62, 80
1, 830654, Note_on_c, 0, 62, 0
1, 830656, Note_on_c, 0, 47, 0
1, 830728, Note_on_c, 0, 50, 68
1, 830736, Note_on_c, 0, 65, 76
1, 830765, Note_on_c, 0, 50, 0
1, 830774, Note_on_c, 0, 65, 0
1, 830859, Note_on_c, 0, 53, 61
1, 830862, Note_on_c, 0, 69, 65
1, 830887, Note_on_c, 0, 69, 0
1, 830895, Note_on_c, 0, 53, 0
1, 830961, Note_on_c, 0, 50, 66
1, 830970, Note_on_c, 0, 59, 67
1, 831010, Note_on_c, 0, 59, 0
1, 831012, Note_on_c, 0, 50, 0
1, 831088, Note_on_c, 0, 47, 72
1, 831094, Note_on_c, 0, 67, 69
1, 831137, Note_on_c, 0, 47, 0
1, 831139, Note_on_c, 0, 67, 0
1, 831213, Note_on_c, 0, 65, 64
1, 831222, Note_on_c, 0, 50, 60
1, 831240, Note_on_c, 0, 65, 0
1, 831256, Note_on_c, 0, 50, 0
1, 831332, Note_on_c, 0, 64, 67
1, 831344, Note_on_c, 0, 48, 57
1, 831387, Note_on_c, 0, 48, 0
1, 831458, Note_on_c, 0, 52, 59
1, 831493, Note_on_c, 0, 52, 0
1, 831589, Note_on_c, 0, 55, 59
1, 831638, Note_on_c, 0, 55, 0
1, 831670, Note_on_c, 0, 64, 0
1, 831727, Note_on_c, 0, 52, 51
1, 831783, Control_c, 0, 67, 14
1, 831796, Note_on_c, 0, 52, 0
1, 831801, Control_c, 0, 67, 26
1, 831822, Control_c, 0, 67, 45
1, 831838, Control_c, 0, 67, 68
1, 831849, Note_on_c, 0, 48, 45
1, 831855, Control_c, 0, 67, 88
1, 831875, Control_c, 0, 67, 103
1, 831889, Note_on_c, 0, 48, 0
1, 831895, Control_c, 0, 67, 114
1, 831912, Control_c, 0, 67, 123
1, 831931, Control_c, 0, 67, 127
1, 831958, Note_on_c, 0, 52, 54
1, 831988, Note_on_c, 0, 60, 51
1, 832024, Note_on_c, 0, 60, 0
1, 832030, Note_on_c, 0, 52, 0
1, 832142, Note_on_c, 0, 57, 63
1, 832148, Note_on_c, 0, 42, 45
1, 832263, Note_on_c, 0, 60, 70
1, 832282, Note_on_c, 0, 57, 0
1, 832316, Note_on_c, 0, 60, 0
1, 832326, Note_on_c, 0, 42, 0
1, 832381, Note_on_c, 0, 64, 73
1, 832424, Note_on_c, 0, 64, 0
1, 832520, Note_on_c, 0, 60, 71
1, 832554, Note_on_c, 0, 60, 0
1, 832635, Note_on_c, 0, 57, 70
1, 832672, Note_on_c, 0, 57, 0
1, 832756, Note_on_c, 0, 45, 57
1, 832760, Note_on_c, 0, 60, 63
1, 832807, Note_on_c, 0, 45, 0
1, 832818, Note_on_c, 0, 60, 0
1, 832868, Note_on_c, 0, 54, 65
1, 832889, Note_on_c, 0, 47, 59
1, 832937, Note_on_c, 0, 47, 0
1, 832944, Note_on_c, 0, 54, 0
1, 833009, Note_on_c, 0, 50, 53
1, 833041, Note_on_c, 0, 62, 72
1, 833049, Note_on_c, 0, 50, 0
1, 833074, Note_on_c, 0, 62, 0
1, 833119, Note_on_c, 0, 59, 72
1, 833121, Note_on_c, 0, 54, 45
1, 833152, Note_on_c, 0, 59, 0
1, 833155, Note_on_c, 0, 60, 80
1, 833187, Note_on_c, 0, 54, 0
1, 833204, Note_on_c, 0, 59, 88
1, 833222, Note_on_c, 0, 50, 46
1, 833252, Note_on_c, 0, 60, 0
1, 833313, Note_on_c, 0, 50, 0
1, 833335, Note_on_c, 0, 47, 49
1, 833411, Note_on_c, 0, 47, 0
1, 833476, Note_on_c, 0, 59, 0
1, 833480, Note_on_c, 0, 50, 54
1, 833490, Note_on_c, 0, 57, 68
1, 833530, Note_on_c, 0, 57, 0
1, 833597, Note_on_c, 0, 50, 0
1, 833629, Note_on_c, 0, 55, 72
1, 833637, Note_on_c, 0, 40, 56
1, 833674, Note_on_c, 0, 55, 0
1, 833755, Note_on_c, 0, 59, 66
1, 833769, Note_on_c, 0, 40, 0
1, 833788, Note_on_c, 0, 59, 0
1, 833861, Note_on_c, 0, 62, 75
1, 833920, Note_on_c, 0, 62, 0
1, 833983, Note_on_c, 0, 59, 63
1, 834021, Note_on_c, 0, 59, 0
1, 834108, Note_on_c, 0, 55, 66
1, 834144, Note_on_c, 0, 55, 0
1, 834188, Note_on_c, 0, 43, 62
1, 834222, Note_on_c, 0, 59, 62
1, 834239, Note_on_c, 0, 43, 0
1, 834262, Note_on_c, 0, 59, 0
1, 834339, Note_on_c, 0, 45, 62
1, 834361, Note_on_c, 0, 52, 65
1, 834384, Note_on_c, 0, 45, 0
1, 834405, Note_on_c, 0, 52, 0
1, 834475, Note_on_c, 0, 48, 59
1, 834511, Note_on_c, 0, 48, 0
1, 834602, Note_on_c, 0, 60, 77
1, 834611, Note_on_c, 0, 52, 47
1, 834646, Note_on_c, 0, 60, 0
1, 834654, Note_on_c, 0, 52, 0
1, 834714, Note_on_c, 0, 57, 77
1, 834720, Note_on_c, 0, 48, 54
1, 834785, Note_on_c, 0, 48, 0
1, 834844, Note_on_c, 0, 45, 54
1, 834896, Note_on_c, 0, 45, 0
1, 834987, Note_on_c, 0, 48, 51
1, 835011, Note_on_c, 0, 67, 66
1, 835074, Note_on_c, 0, 48, 0
1, 835116, Note_on_c, 0, 67, 0
1, 835125, Note_on_c, 0, 66, 68
1, 835130, Note_on_c, 0, 50, 59
1, 835172, Note_on_c, 0, 57, 0
1, 835241, Note_on_c, 0, 66, 0
1, 835247, Note_on_c, 0, 62, 66
1, 835305, Note_on_c, 0, 62, 0
1, 835343, Control_c, 0, 67, 117
1, 835361, Control_c, 0, 67, 102
1, 835379, Control_c, 0, 67, 81
1, 835398, Control_c, 0, 67, 56
1, 835400, Note_on_c, 0, 67, 71
1, 835400, Note_on_c, 0, 59, 81
1, 835417, Control_c, 0, 67, 29
1, 835451, Note_on_c, 0, 67, 0
1, 835452, Control_c, 0, 67, 0
1, 835453, Note_on_c, 0, 59, 0
1, 835476, Note_on_c, 0, 50, 0
1, 835505, Note_on_c, 0, 66, 73
1, 835519, Note_on_c, 0, 57, 70
1, 835567, Note_on_c, 0, 66, 0
1, 835637, Note_on_c, 0, 62, 60
1, 835763, Note_on_c, 0, 49, 53
1, 835779, Note_on_c, 0, 69, 67
1, 835798, Note_on_c, 0, 49, 0
1, 835809, Note_on_c, 0, 62, 0
1, 835882, Note_on_c, 0, 69, 0
1, 835890, Note_on_c, 0, 66, 60
1, 835896, Note_on_c, 0, 50, 62
1, 835946, Note_on_c, 0, 66, 0
1, 835960, Note_on_c, 0, 57, 0
1, 836016, Note_on_c, 0, 62, 54
1, 836066, Note_on_c, 0, 62, 0
1, 836143, Note_on_c, 0, 59, 80
1, 836152, Note_on_c, 0, 67, 70
1, 836203, Note_on_c, 0, 67, 0
1, 836219, Note_on_c, 0, 59, 0
1, 836252, Note_on_c, 0, 50, 0
1, 836285, Note_on_c, 0, 57, 75
1, 836287, Note_on_c, 0, 66, 71
1, 836335, Note_on_c, 0, 66, 0
1, 836408, Note_on_c, 0, 62, 61
1, 836530, Note_on_c, 0, 49, 60
1, 836533, Note_on_c, 0, 62, 0
1, 836542, Note_on_c, 0, 69, 69
1, 836557, Note_on_c, 0, 57, 0
1, 836566, Note_on_c, 0, 49, 0
1, 836581, Note_on_c, 0, 69, 0
1, 836665, Note_on_c, 0, 50, 63
1, 836669, Note_on_c, 0, 66, 69
1, 836707, Note_on_c, 0, 66, 0
1, 836712, Note_on_c, 0, 50, 0
1, 836772, Note_on_c, 0, 54, 70
1, 836788, Note_on_c, 0, 69, 72
1, 836819, Note_on_c, 0, 69, 0
1, 836820, Note_on_c, 0, 54, 0
1, 836903, Note_on_c, 0, 57, 61
1, 836904, Note_on_c, 0, 72, 72
1, 836943, Note_on_c, 0, 72, 0
1, 836948, Note_on_c, 0, 57, 0
1, 837012, Note_on_c, 0, 54, 68
1, 837017, Note_on_c, 0, 62, 74
1, 837076, Note_on_c, 0, 54, 0
1, 837158, Note_on_c, 0, 50, 64
1, 837206, Note_on_c, 0, 50, 0
1, 837299, Note_on_c, 0, 55, 64
1, 837302, Note_on_c, 0, 71, 74
1, 837304, Note_on_c, 0, 62, 0
1, 837335, Note_on_c, 0, 55, 0
1, 837357, Note_on_c, 0, 71, 0
1, 837413, Note_on_c, 0, 52, 65
1, 837414, Note_on_c, 0, 67, 80
1, 837459, Note_on_c, 0, 67, 0
1, 837465, Note_on_c, 0, 52, 0
1, 837528, Note_on_c, 0, 55, 62
1, 837539, Note_on_c, 0, 71, 80
1, 837568, Note_on_c, 0, 55, 0
1, 837578, Note_on_c, 0, 71, 0
1, 837659, Note_on_c, 0, 74, 74
1, 837672, Note_on_c, 0, 59, 55
1, 837695, Note_on_c, 0, 74, 0
1, 837707, Note_on_c, 0, 59, 0
1, 837777, Note_on_c, 0, 64, 72
1, 837782, Note_on_c, 0, 55, 68
1, 837830, Note_on_c, 0, 55, 0
1, 837903, Note_on_c, 0, 52, 58
1, 837941, Note_on_c, 0, 52, 0
1, 838035, Note_on_c, 0, 64, 0
1, 838036, Note_on_c, 0, 57, 65
1, 838038, Note_on_c, 0, 72, 75
1, 838081, Note_on_c, 0, 57, 0
1, 838101, Note_on_c, 0, 72, 0
1, 838165, Note_on_c, 0, 54, 66
1, 838169, Note_on_c, 0, 69, 79
1, 838211, Note_on_c, 0, 69, 0
1, 838213, Note_on_c, 0, 54, 0
1, 838286, Note_on_c, 0, 57, 70
1, 838289, Note_on_c, 0, 72, 82
1, 838328, Note_on_c, 0, 57, 0
1, 838332, Note_on_c, 0, 72, 0
1, 838404, Note_on_c, 0, 76, 76
1, 838412, Note_on_c, 0, 60, 65
1, 838445, Note_on_c, 0, 76, 0
1, 838455, Note_on_c, 0, 60, 0
1, 838524, Note_on_c, 0, 66, 74
1, 838528, Note_on_c, 0, 57, 66
1, 838568, Note_on_c, 0, 66, 0
1, 838570, Note_on_c, 0, 57, 0
1, 838639, Note_on_c, 0, 74, 78
1, 838647, Note_on_c, 0, 54, 61
1, 838688, Note_on_c, 0, 54, 0
1, 838693, Note_on_c, 0, 74, 0
1, 838761, Note_on_c, 0, 72, 78
1, 838771, Note_on_c, 0, 57, 58
1, 838789, Note_on_c, 0, 72, 0
1, 838806, Note_on_c, 0, 57, 0
1, 838884, Note_on_c, 0, 55, 69
1, 838888, Note_on_c, 0, 71, 76
1, 838925, Note_on_c, 0, 71, 0
1, 838947, Note_on_c, 0, 55, 0
1, 839013, Note_on_c, 0, 59, 72
1, 839029, Note_on_c, 0, 72, 64
1, 839031, Note_on_c, 0, 74, 65
1, 839056, Note_on_c, 0, 59, 0
1, 839061, Note_on_c, 0, 74, 0
1, 839063, Note_on_c, 0, 72, 0
1, 839147, Note_on_c, 0, 62, 65
1, 839148, Note_on_c, 0, 79, 77
1, 839175, Note_on_c, 0, 79, 0
1, 839182, Note_on_c, 0, 62, 0
1, 839252, Note_on_c, 0, 74, 89
1, 839257, Note_on_c, 0, 59, 73
1, 839311, Note_on_c, 0, 74, 0
1, 839327, Note_on_c, 0, 59, 0
1, 839371, Note_on_c, 0, 79, 91
1, 839376, Note_on_c, 0, 62, 63
1, 839429, Note_on_c, 0, 79, 0
1, 839429, Note_on_c, 0, 62, 0
1, 839489, Note_on_c, 0, 83, 90
1, 839513, Note_on_c, 0, 67, 58
1, 839547, Note_on_c, 0, 83, 0
1, 839547, Note_on_c, 0, 67, 0
1, 839612, Note_on_c, 0, 76, 91
1, 839615, Note_on_c, 0, 60, 73
1, 839666, Note_on_c, 0, 76, 0
1, 839668, Note_on_c, 0, 60, 0
1, 839732, Note_on_c, 0, 64, 73
1, 839734, Note_on_c, 0, 79, 78
1, 839772, Note_on_c, 0, 64, 0
1, 839790, Note_on_c, 0, 79, 0
1, 839853, Note_on_c, 0, 71, 71
1, 839863, Note_on_c, 0, 67, 56
1, 839892, Note_on_c, 0, 67, 0
1, 839902, Note_on_c, 0, 71, 0
1, 839913, Control_c, 0, 67, 8
1, 839946, Control_c, 0, 67, 15
1, 839964, Control_c, 0, 67, 32
1, 839979, Note_on_c, 0, 72, 74
1, 839982, Control_c, 0, 67, 58
1, 839997, Note_on_c, 0, 64, 55
1, 840000, Control_c, 0, 67, 83
1, 840020, Control_c, 0, 67, 101
1, 840025, Note_on_c, 0, 72, 0
1, 840038, Control_c, 0, 67, 115
1, 840045, Note_on_c, 0, 64, 0
1, 840057, Control_c, 0, 67, 127
1, 840102, Note_on_c, 0, 60, 66
1, 840104, Note_on_c, 0, 76, 62
1, 840147, Note_on_c, 0, 60, 0
1, 840149, Note_on_c, 0, 76, 0
1, 840233, Note_on_c, 0, 64, 54
1, 840238, Note_on_c, 0, 67, 48
1, 840269, Note_on_c, 0, 67, 0
1, 840277, Note_on_c, 0, 64, 0
1, 840361, Note_on_c, 0, 69, 66
1, 840362, Note_on_c, 0, 54, 52
1, 840399, Note_on_c, 0, 69, 0
1, 840426, Note_on_c, 0, 54, 0
1, 840467, Note_on_c, 0, 72, 69
1, 840477, Note_on_c, 0, 57, 54
1, 840499, Note_on_c, 0, 72, 0
1, 840524, Note_on_c, 0, 57, 0
1, 840583, Note_on_c, 0, 78, 80
1, 840604, Note_on_c, 0, 60, 47
1, 840628, Control_c, 0, 67, 114
1, 840633, Note_on_c, 0, 78, 0
1, 840639, Note_on_c, 0, 60, 0
1, 840645, Control_c, 0, 67, 98
1, 840663, Control_c, 0, 67, 77
1, 840683, Control_c, 0, 67, 53
1, 840701, Control_c, 0, 67, 26
1, 840709, Note_on_c, 0, 72, 81
1, 840713, Note_on_c, 0, 57, 61
1, 840717, Control_c, 0, 67, 0
1, 840758, Note_on_c, 0, 72, 0
1, 840778, Note_on_c, 0, 57, 0
1, 840822, Note_on_c, 0, 78, 86
1, 840823, Note_on_c, 0, 60, 60
1, 840898, Note_on_c, 0, 78, 0
1, 840908, Note_on_c, 0, 60, 0
1, 840955, Note_on_c, 0, 81, 87
1, 840963, Note_on_c, 0, 66, 50
1, 840999, Note_on_c, 0, 66, 0
1, 841006, Note_on_c, 0, 81, 0
1, 841069, Note_on_c, 0, 59, 69
1, 841071, Note_on_c, 0, 75, 86
1, 841131, Note_on_c, 0, 75, 0
1, 841146, Note_on_c, 0, 59, 0
1, 841183, Note_on_c, 0, 63, 71
1, 841188, Note_on_c, 0, 78, 76
1, 841214, Note_on_c, 0, 63, 0
1, 841231, Note_on_c, 0, 78, 0
1, 841306, Note_on_c, 0, 69, 74
1, 841311, Note_on_c, 0, 66, 57
1, 841345, Note_on_c, 0, 69, 0
1, 841346, Note_on_c, 0, 66, 0
1, 841378, Control_c, 0, 67, 8
1, 841397, Control_c, 0, 67, 13
1, 841418, Control_c, 0, 67, 24
1, 841418, Note_on_c, 0, 63, 70
1, 841427, Note_on_c, 0, 71, 71
1, 841434, Control_c, 0, 67, 36
1, 841451, Control_c, 0, 67, 44
1, 841472, Control_c, 0, 67, 51
1, 841473, Note_on_c, 0, 71, 0
1, 841490, Control_c, 0, 67, 62
1, 841501, Note_on_c, 0, 63, 0
1, 841506, Control_c, 0, 67, 81
1, 841526, Control_c, 0, 67, 101
1, 841536, Note_on_c, 0, 59, 61
1, 841540, Note_on_c, 0, 75, 64
1, 841544, Control_c, 0, 67, 117
1, 841565, Control_c, 0, 67, 126
1, 841580, Note_on_c, 0, 59, 0
1, 841585, Note_on_c, 0, 75, 0
1, 841658, Note_on_c, 0, 63, 58
1, 841664, Note_on_c, 0, 66, 68
1, 841702, Note_on_c, 0, 66, 0
1, 841708, Note_on_c, 0, 63, 0
1, 841827, Note_on_c, 0, 52, 53
1, 841830, Note_on_c, 0, 67, 64
1, 841897, Note_on_c, 0, 52, 0
1, 841903, Note_on_c, 0, 67, 0
1, 841931, Note_on_c, 0, 55, 48
1, 841939, Note_on_c, 0, 71, 68
1, 841973, Note_on_c, 0, 55, 0
1, 841979, Note_on_c, 0, 71, 0
1, 842057, Note_on_c, 0, 59, 48
1, 842071, Note_on_c, 0, 76, 56
1, 842092, Note_on_c, 0, 59, 0
1, 842097, Note_on_c, 0, 76, 0
1, 842177, Note_on_c, 0, 71, 77
1, 842184, Note_on_c, 0, 55, 59
1, 842228, Note_on_c, 0, 71, 0
1, 842252, Note_on_c, 0, 55, 0
1, 842295, Note_on_c, 0, 59, 54
1, 842299, Note_on_c, 0, 76, 70
1, 842333, Note_on_c, 0, 76, 0
1, 842341, Note_on_c, 0, 59, 0
1, 842398, Note_on_c, 0, 79, 78
1, 842422, Note_on_c, 0, 64, 49
1, 842443, Note_on_c, 0, 79, 0
1, 842459, Note_on_c, 0, 64, 0
1, 842523, Note_on_c, 0, 72, 75
1, 842528, Note_on_c, 0, 57, 74
1, 842558, Note_on_c, 0, 72, 0
1, 842587, Note_on_c, 0, 57, 0
1, 842635, Note_on_c, 0, 60, 74
1, 842636, Note_on_c, 0, 76, 73
1, 842692, Note_on_c, 0, 60, 0
1, 842701, Control_c, 0, 67, 111
1, 842705, Note_on_c, 0, 76, 0
1, 842720, Control_c, 0, 67, 94
1, 842739, Control_c, 0, 67, 72
1, 842771, Control_c, 0, 67, 48
1, 842773, Note_on_c, 0, 68, 70
1, 842778, Note_on_c, 0, 64, 66
1, 842789, Control_c, 0, 67, 24
1, 842810, Note_on_c, 0, 68, 0
1, 842816, Note_on_c, 0, 64, 0
1, 842826, Control_c, 0, 67, 0
1, 842886, Note_on_c, 0, 69, 75
1, 842895, Note_on_c, 0, 60, 69
1, 842932, Note_on_c, 0, 69, 0
1, 842946, Note_on_c, 0, 60, 0
1, 842996, Note_on_c, 0, 72, 81
1, 843017, Note_on_c, 0, 57, 67
1, 843041, Note_on_c, 0, 72, 0
1, 843069, Note_on_c, 0, 57, 0
1, 843116, Note_on_c, 0, 76, 81
1, 843130, Note_on_c, 0, 60, 75
1, 843154, Note_on_c, 0, 76, 0
1, 843192, Note_on_c, 0, 60, 0
1, 843233, Note_on_c, 0, 81, 89
1, 843252, Note_on_c, 0, 64, 76
1, 843293, Note_on_c, 0, 64, 0
1, 843370, Note_on_c, 0, 69, 79
1, 843399, Note_on_c, 0, 69, 0
1, 843509, Note_on_c, 0, 72, 65
1, 843521, Note_on_c, 0, 81, 0
1, 843550, Note_on_c, 0, 72, 0
1, 843624, Note_on_c, 0, 69, 64
1, 843658, Note_on_c, 0, 69, 0
1, 843729, Poly_aftertouch_c, 0, 46, 0
1, 843756, Note_on_c, 0, 66, 62
1, 843805, Note_on_c, 0, 66, 0
1, 843882, Note_on_c, 0, 69, 63
1, 843906, Note_on_c, 0, 52, 86
1, 843942, Note_on_c, 0, 69, 0
1, 843946, Note_on_c, 0, 52, 0
1, 843994, Note_on_c, 0, 71, 80
1, 844025, Note_on_c, 0, 51, 85
1, 844062, Note_on_c, 0, 51, 0
1, 844149, Note_on_c, 0, 47, 77
1, 844182, Note_on_c, 0, 47, 0
1, 844266, Note_on_c, 0, 79, 76
1, 844270, Note_on_c, 0, 52, 72
1, 844308, Note_on_c, 0, 52, 0
1, 844385, Note_on_c, 0, 51, 76
1, 844386, Note_on_c, 0, 78, 74
1, 844424, Note_on_c, 0, 51, 0
1, 844434, Note_on_c, 0, 79, 0
1, 844444, Note_on_c, 0, 71, 0
1, 844507, Note_on_c, 0, 47, 78
1, 844548, Note_on_c, 0, 47, 0
1, 844648, Note_on_c, 0, 54, 89
1, 844659, Note_on_c, 0, 69, 72
1, 844691, Note_on_c, 0, 54, 0
1, 844695, Note_on_c, 0, 69, 0
1, 844765, Note_on_c, 0, 51, 86
1, 844779, Note_on_c, 0, 71, 76
1, 844819, Note_on_c, 0, 51, 0
1, 844889, Note_on_c, 0, 47, 80
1, 844930, Note_on_c, 0, 47, 0
1, 845024, Note_on_c, 0, 52, 68
1, 845025, Note_on_c, 0, 78, 0
1, 845025, Note_on_c, 0, 79, 73
1, 845069, Note_on_c, 0, 52, 0
1, 845143, Note_on_c, 0, 51, 75
1, 845152, Note_on_c, 0, 78, 74
1, 845187, Note_on_c, 0, 51, 0
1, 845206, Note_on_c, 0, 79, 0
1, 845231, Note_on_c, 0, 71, 0
1, 845260, Note_on_c, 0, 47, 73
1, 845310, Note_on_c, 0, 47, 0
1, 845385, Note_on_c, 0, 54, 65
1, 845392, Note_on_c, 0, 69, 66
1, 845405, Note_on_c, 0, 78, 0
1, 845420, Note_on_c, 0, 54, 0
1, 845425, Note_on_c, 0, 69, 0
1, 845508, Note_on_c, 0, 51, 72
1, 845517, Note_on_c, 0, 71, 72
1, 845564, Note_on_c, 0, 51, 0
1, 845575, Note_on_c, 0, 71, 0
1, 845646, Note_on_c, 0, 75, 77
1, 845650, Note_on_c, 0, 54, 54
1, 845683, Note_on_c, 0, 54, 0
1, 845697, Note_on_c, 0, 75, 0
1, 845763, Note_on_c, 0, 57, 65
1, 845763, Note_on_c, 0, 78, 81
1, 845805, Note_on_c, 0, 57, 0
1, 845807, Note_on_c, 0, 78, 0
1, 845888, Note_on_c, 0, 79, 92
1, 845892, Note_on_c, 0, 47, 73
1, 845893, Note_on_c, 0, 75, 86
1, 845911, Control_c, 0, 64, 26
1, 845927, Control_c, 0, 64, 49
1, 845946, Control_c, 0, 64, 59
1, 845959, Note_on_c, 0, 75, 0
1, 845964, Control_c, 0, 64, 64
1, 845984, Control_c, 0, 64, 65
1, 846002, Control_c, 0, 64, 66
1, 846035, Note_on_c, 0, 71, 62
1, 846037, Control_c, 0, 64, 67
1, 846080, Note_on_c, 0, 71, 0
1, 846129, Control_c, 0, 64, 65
1, 846149, Control_c, 0, 64, 58
1, 846151, Note_on_c, 0, 55, 67
1, 846157, Note_on_c, 0, 76, 69
1, 846168, Control_c, 0, 64, 43
1, 846180, Note_on_c, 0, 47, 0
1, 846186, Control_c, 0, 64, 0
1, 846197, Note_on_c, 0, 55, 0
1, 846223, Note_on_c, 0, 76, 0
1, 846264, Note_on_c, 0, 52, 76
1, 846268, Note_on_c, 0, 79, 0
1, 846273, Note_on_c, 0, 73, 71
1, 846305, Note_on_c, 0, 73, 0
1, 846328, Note_on_c, 0, 52, 0
1, 846383, Note_on_c, 0, 76, 81
1, 846387, Note_on_c, 0, 55, 70
1, 846420, Note_on_c, 0, 55, 0
1, 846437, Note_on_c, 0, 76, 0
1, 846516, Note_on_c, 0, 59, 68
1, 846517, Note_on_c, 0, 79, 80
1, 846560, Note_on_c, 0, 59, 0
1, 846562, Note_on_c, 0, 79, 0
1, 846626, Note_on_c, 0, 81, 98
1, 846629, Note_on_c, 0, 49, 78
1, 846636, Note_on_c, 0, 76, 88
1, 846642, Control_c, 0, 64, 18
1, 846661, Control_c, 0, 64, 57
1, 846680, Control_c, 0, 64, 69
1, 846693, Note_on_c, 0, 76, 0
1, 846697, Control_c, 0, 64, 71
1, 846734, Control_c, 0, 64, 73
1, 846754, Control_c, 0, 64, 75
1, 846770, Note_on_c, 0, 73, 73
1, 846771, Control_c, 0, 64, 77
1, 846790, Control_c, 0, 64, 81
1, 846807, Control_c, 0, 64, 83
1, 846847, Note_on_c, 0, 73, 0
1, 846896, Note_on_c, 0, 78, 72
1, 846900, Control_c, 0, 64, 85
1, 846901, Note_on_c, 0, 57, 63
1, 846914, Note_on_c, 0, 49, 0
1, 846937, Note_on_c, 0, 57, 0
1, 846947, Note_on_c, 0, 78, 0
1, 846974, Control_c, 0, 64, 72
1, 846992, Control_c, 0, 64, 41
1, 847005, Note_on_c, 0, 54, 79
1, 847011, Note_on_c, 0, 75, 75
1, 847011, Control_c, 0, 64, 0
1, 847020, Note_on_c, 0, 81, 0
1, 847064, Note_on_c, 0, 75, 0
1, 847081, Note_on_c, 0, 54, 0
1, 847122, Note_on_c, 0, 78, 80
1, 847133, Note_on_c, 0, 57, 78
1, 847170, Note_on_c, 0, 57, 0
1, 847189, Note_on_c, 0, 78, 0
1, 847255, Note_on_c, 0, 60, 67
1, 847256, Note_on_c, 0, 81, 80
1, 847289, Note_on_c, 0, 60, 0
1, 847297, Note_on_c, 0, 81, 0
1, 847360, Control_c, 0, 64, 10
1, 847365, Note_on_c, 0, 83, 98
1, 847380, Control_c, 0, 64, 32
1, 847380, Note_on_c, 0, 51, 61
1, 847380, Note_on_c, 0, 78, 87
1, 847448, Note_on_c, 0, 51, 0
1, 847458, Note_on_c, 0, 78, 0
1, 847509, Note_on_c, 0, 59, 67
1, 847510, Note_on_c, 0, 75, 80
1, 847551, Note_on_c, 0, 59, 0
1, 847573, Note_on_c, 0, 75, 0
1, 847628, Note_on_c, 0, 78, 78
1, 847644, Note_on_c, 0, 57, 64
1, 847669, Note_on_c, 0, 57, 0
1, 847689, Control_c, 0, 64, 28
1, 847692, Note_on_c, 0, 78, 0
1, 847746, Note_on_c, 0, 55, 79
1, 847755, Note_on_c, 0, 76, 85
1, 847804, Note_on_c, 0, 55, 0
1, 847807, Note_on_c, 0, 76, 0
1, 847873, Note_on_c, 0, 52, 69
1, 847886, Note_on_c, 0, 79, 73
1, 847892, Control_c, 0, 64, 24
1, 847915, Note_on_c, 0, 52, 0
1, 847958, Note_on_c, 0, 79, 0
1, 847989, Note_on_c, 0, 75, 79
1, 847990, Note_on_c, 0, 47, 68
1, 848030, Note_on_c, 0, 47, 0
1, 848045, Note_on_c, 0, 75, 0
1, 848114, Note_on_c, 0, 76, 79
1, 848127, Note_on_c, 0, 52, 62
1, 848161, Note_on_c, 0, 76, 0
1, 848172, Note_on_c, 0, 52, 0
1, 848248, Note_on_c, 0, 47, 63
1, 848250, Note_on_c, 0, 79, 69
1, 848277, Control_c, 0, 64, 20
1, 848288, Note_on_c, 0, 47, 0
1, 848315, Control_c, 0, 64, 10
1, 848334, Control_c, 0, 64, 0
1, 848346, Note_on_c, 0, 43, 69
1, 848370, Note_on_c, 0, 79, 0
1, 848375, Note_on_c, 0, 75, 70
1, 848426, Note_on_c, 0, 75, 0
1, 848445, Note_on_c, 0, 43, 0
1, 848450, Note_on_c, 0, 83, 0
1, 848511, Note_on_c, 0, 76, 83
1, 848519, Note_on_c, 0, 48, 84
1, 848570, Control_c, 0, 64, 30
1, 848655, Note_on_c, 0, 80, 84
1, 848692, Note_on_c, 0, 76, 0
1, 848775, Note_on_c, 0, 81, 85
1, 848798, Note_on_c, 0, 80, 0
1, 848845, Note_on_c, 0, 81, 0
1, 848882, Control_c, 0, 64, 26
1, 848895, Note_on_c, 0, 77, 82
1, 848942, Note_on_c, 0, 77, 0
1, 849009, Note_on_c, 0, 48, 0
1, 849009, Note_on_c, 0, 75, 86
1, 849028, Note_on_c, 0, 47, 60
1, 849068, Note_on_c, 0, 47, 0
1, 849071, Note_on_c, 0, 75, 0
1, 849124, Note_on_c, 0, 76, 86
1, 849130, Note_on_c, 0, 48, 71
1, 849137, Control_c, 0, 64, 22
1, 849176, Note_on_c, 0, 48, 0
1, 849180, Note_on_c, 0, 76, 0
1, 849241, Note_on_c, 0, 72, 78
1, 849243, Note_on_c, 0, 45, 79
1, 849282, Note_on_c, 0, 72, 0
1, 849309, Note_on_c, 0, 45, 0
1, 849373, Note_on_c, 0, 68, 82
1, 849381, Note_on_c, 0, 47, 74
1, 849418, Note_on_c, 0, 47, 0
1, 849432, Note_on_c, 0, 68, 0
1, 849495, Note_on_c, 0, 69, 80
1, 849496, Note_on_c, 0, 48, 65
1, 849541, Control_c, 0, 67, 8
1, 849545, Note_on_c, 0, 69, 0
1, 849546, Note_on_c, 0, 48, 0
1, 849610, Note_on_c, 0, 65, 76
1, 849620, Note_on_c, 0, 45, 72
1, 849635, Control_c, 0, 67, 12
1, 849658, Note_on_c, 0, 65, 0
1, 849666, Note_on_c, 0, 45, 0
1, 849734, Note_on_c, 0, 63, 79
1, 849743, Note_on_c, 0, 47, 65
1, 849745, Control_c, 0, 67, 17
1, 849779, Note_on_c, 0, 47, 0
1, 849780, Control_c, 0, 64, 17
1, 849790, Note_on_c, 0, 63, 0
1, 849798, Control_c, 0, 64, 13
1, 849817, Control_c, 0, 64, 0
1, 849818, Control_c, 0, 67, 21
1, 849849, Note_on_c, 0, 64, 74
1, 849875, Note_on_c, 0, 48, 46
1, 849888, Note_on_c, 0, 64, 0
1, 849919, Note_on_c, 0, 48, 0
1, 849925, Control_c, 0, 67, 25
1, 849981, Note_on_c, 0, 42, 59
1, 849991, Note_on_c, 0, 63, 69
1, 850000, Control_c, 0, 64, 15
1, 850036, Note_on_c, 0, 63, 0
1, 850093, Note_on_c, 0, 42, 0
1, 850099, Note_on_c, 0, 66, 80
1, 850120, Note_on_c, 0, 45, 61
1, 850154, Note_on_c, 0, 66, 0
1, 850176, Note_on_c, 0, 45, 0
1, 850225, Note_on_c, 0, 69, 82
1, 850252, Note_on_c, 0, 48, 57
1, 850292, Note_on_c, 0, 48, 0
1, 850296, Note_on_c, 0, 69, 0
1, 850347, Note_on_c, 0, 72, 87
1, 850355, Note_on_c, 0, 51, 66
1, 850401, Note_on_c, 0, 72, 0
1, 850403, Control_c, 0, 67, 30
1, 850414, Note_on_c, 0, 51, 0
1, 850465, Note_on_c, 0, 54, 71
1, 850469, Note_on_c, 0, 71, 85
1, 850496, Control_c, 0, 67, 34
1, 850511, Note_on_c, 0, 54, 0
1, 850521, Note_on_c, 0, 71, 0
1, 850585, Note_on_c, 0, 75, 89
1, 850599, Note_on_c, 0, 57, 55
1, 850646, Note_on_c, 0, 75, 0
1, 850647, Note_on_c, 0, 57, 0
1, 850708, Note_on_c, 0, 76, 90
1, 850717, Note_on_c, 0, 55, 58
1, 850755, Note_on_c, 0, 76, 0
1, 850759, Note_on_c, 0, 55, 0
1, 850822, Note_on_c, 0, 78, 88
1, 850829, Note_on_c, 0, 54, 66
1, 850889, Note_on_c, 0, 78, 0
1, 850892, Note_on_c, 0, 54, 0
1, 850943, Note_on_c, 0, 79, 87
1, 850945, Note_on_c, 0, 52, 65
1, 850991, Poly_aftertouch_c, 0, 78, 0
1, 850998, Note_on_c, 0, 52, 0
1, 851000, Note_on_c, 0, 79, 0
1, 851071, Note_on_c, 0, 71, 87
1, 851086, Note_on_c, 0, 59, 62
1, 851113, Note_on_c, 0, 59, 0
1, 851123, Note_on_c, 0, 71, 0
1, 851201, Note_on_c, 0, 76, 87
1, 851250, Note_on_c, 0, 76, 0
1, 851319, Control_c, 0, 64, 10
1, 851322, Note_on_c, 0, 47, 70
1, 851326, Note_on_c, 0, 75, 85
1, 851339, Control_c, 0, 64, 0
1, 851340, Note_on_c, 0, 69, 72
1, 851359, Note_on_c, 0, 47, 0
1, 851373, Note_on_c, 0, 69, 0
1, 851380, Note_on_c, 0, 75, 0
1, 851463, Note_on_c, 0, 76, 88
1, 851485, Control_c, 0, 64, 13
1, 851493, Note_on_c, 0, 52, 55
1, 851494, Note_on_c, 0, 67, 73
1, 851504, Control_c, 0, 64, 44
1, 851522, Control_c, 0, 64, 50
1, 851541, Control_c, 0, 64, 47
1, 851550, Note_on_c, 0, 67, 0
1, 851576, Note_on_c, 0, 52, 0
1, 851597, Control_c, 0, 67, 38
1, 851629, Note_on_c, 0, 64, 60
1, 851652, Control_c, 0, 67, 42
1, 851662, Note_on_c, 0, 64, 0
1, 851670, Control_c, 0, 67, 46
1, 851689, Control_c, 0, 64, 44
1, 851708, Control_c, 0, 67, 52
1, 851725, Control_c, 0, 64, 40
1, 851726, Control_c, 0, 67, 56
1, 851744, Control_c, 0, 67, 63
1, 851752, Note_on_c, 0, 69, 66
1, 851760, Control_c, 0, 64, 33
1, 851761, Control_c, 0, 67, 71
1, 851765, Note_on_c, 0, 60, 59
1, 851781, Control_c, 0, 67, 79
1, 851799, Control_c, 0, 67, 86
1, 851811, Note_on_c, 0, 69, 0
1, 851817, Control_c, 0, 64, 27
1, 851819, Control_c, 0, 67, 93
1, 851823, Note_on_c, 0, 60, 0
1, 851837, Control_c, 0, 67, 102
1, 851857, Control_c, 0, 64, 23
1, 851858, Control_c, 0, 67, 115
1, 851872, Control_c, 0, 67, 127
1, 851872, Note_on_c, 0, 59, 51
1, 851882, Note_on_c, 0, 67, 48
1, 851926, Note_on_c, 0, 67, 0
1, 851927, Control_c, 0, 64, 19
1, 851985, Note_on_c, 0, 64, 59
1, 852043, Note_on_c, 0, 64, 0
1, 852095, Control_c, 0, 64, 15
1, 852132, Note_on_c, 0, 51, 44
1, 852138, Note_on_c, 0, 71, 59
1, 852146, Control_c, 0, 64, 9
1, 852157, Note_on_c, 0, 59, 0
1, 852158, Poly_aftertouch_c, 0, 59, 0
1, 852171, Note_on_c, 0, 51, 0
1, 852187, Note_on_c, 0, 71, 0
1, 852200, Control_c, 0, 64, 0
1, 852267, Note_on_c, 0, 52, 57
1, 852275, Note_on_c, 0, 67, 55
1, 852323, Note_on_c, 0, 67, 0
1, 852334, Note_on_c, 0, 52, 0
1, 852388, Note_on_c, 0, 64, 50
1, 852433, Note_on_c, 0, 64, 0
1, 852525, Note_on_c, 0, 60, 50
1, 852528, Note_on_c, 0, 69, 57
1, 852563, Note_on_c, 0, 60, 0
1, 852576, Note_on_c, 0, 69, 0
1, 852633, Note_on_c, 0, 59, 48
1, 852647, Note_on_c, 0, 67, 58
1, 852685, Note_on_c, 0, 67, 0
1, 852763, Note_on_c, 0, 64, 49
1, 852842, Note_on_c, 0, 64, 0
1, 852883, Note_on_c, 0, 59, 0
1, 852884, Note_on_c, 0, 71, 55
1, 852936, Note_on_c, 0, 71, 0
1, 852960, Note_on_c, 0, 76, 0
1, 852984, Poly_aftertouch_c, 0, 51, 0
1, 853010, Note_on_c, 0, 68, 64
1, 853017, Note_on_c, 0, 52, 61
1, 853063, Note_on_c, 0, 68, 0
1, 853106, Note_on_c, 0, 52, 0
1, 853142, Note_on_c, 0, 71, 68
1, 853151, Note_on_c, 0, 56, 62
1, 853176, Note_on_c, 0, 71, 0
1, 853191, Note_on_c, 0, 56, 0
1, 853268, Note_on_c, 0, 59, 59
1, 853271, Note_on_c, 0, 74, 66
1, 853294, Note_on_c, 0, 74, 0
1, 853303, Note_on_c, 0, 59, 0
1, 853371, Note_on_c, 0, 56, 66
1, 853380, Note_on_c, 0, 64, 66
1, 853425, Note_on_c, 0, 56, 0
1, 853523, Note_on_c, 0, 52, 55
1, 853568, Note_on_c, 0, 52, 0
1, 853637, Note_on_c, 0, 64, 0
1, 853643, Note_on_c, 0, 57, 63
1, 853644, Note_on_c, 0, 72, 63
1, 853678, Note_on_c, 0, 57, 0
1, 853681, Note_on_c, 0, 72, 0
1, 853758, Note_on_c, 0, 54, 63
1, 853762, Note_on_c, 0, 69, 69
1, 853798, Note_on_c, 0, 69, 0
1, 853805, Note_on_c, 0, 54, 0
1, 853879, Note_on_c, 0, 57, 64
1, 853881, Note_on_c, 0, 72, 69
1, 853914, Note_on_c, 0, 57, 0
1, 853917, Note_on_c, 0, 72, 0
1, 854004, Note_on_c, 0, 76, 63
1, 854025, Note_on_c, 0, 60, 55
1, 854045, Note_on_c, 0, 76, 0
1, 854063, Note_on_c, 0, 60, 0
1, 854135, Note_on_c, 0, 57, 63
1, 854136, Note_on_c, 0, 66, 66
1, 854187, Note_on_c, 0, 57, 0
1, 854258, Note_on_c, 0, 54, 58
1, 854295, Note_on_c, 0, 54, 0
1, 854349, Note_on_c, 0, 66, 0
1, 854386, Note_on_c, 0, 59, 60
1, 854393, Note_on_c, 0, 74, 65
1, 854425, Note_on_c, 0, 59, 0
1, 854439, Note_on_c, 0, 74, 0
1, 854510, Note_on_c, 0, 56, 69
1, 854515, Note_on_c, 0, 71, 75
1, 854553, Note_on_c, 0, 71, 0
1, 854554, Note_on_c, 0, 56, 0
1, 854637, Note_on_c, 0, 74, 73
1, 854645, Note_on_c, 0, 59, 59
1, 854675, Note_on_c, 0, 59, 0
1, 854676, Note_on_c, 0, 74, 0
1, 854753, Note_on_c, 0, 77, 69
1, 854770, Note_on_c, 0, 62, 50
1, 854792, Note_on_c, 0, 77, 0
1, 854807, Note_on_c, 0, 62, 0
1, 854865, Note_on_c, 0, 59, 59
1, 854885, Note_on_c, 0, 68, 64
1, 854906, Note_on_c, 0, 59, 0
1, 854932, Note_on_c, 0, 68, 0
1, 854995, Note_on_c, 0, 56, 65
1, 855005, Note_on_c, 0, 76, 70
1, 855034, Note_on_c, 0, 56, 0
1, 855065, Note_on_c, 0, 76, 0
1, 855130, Note_on_c, 0, 74, 69
1, 855143, Note_on_c, 0, 59, 56
1, 855182, Note_on_c, 0, 74, 0
1, 855233, Note_on_c, 0, 59, 0
1, 855245, Note_on_c, 0, 72, 64
1, 855253, Note_on_c, 0, 57, 60
1, 855283, Control_c, 0, 67, 115
1, 855293, Note_on_c, 0, 72, 0
1, 855301, Control_c, 0, 67, 99
1, 855321, Control_c, 0, 67, 79
1, 855340, Control_c, 0, 67, 58
1, 855358, Control_c, 0, 67, 37
1, 855370, Note_on_c, 0, 69, 57
1, 855377, Control_c, 0, 67, 18
1, 855413, Control_c, 0, 67, 0
1, 855426, Note_on_c, 0, 69, 0
1, 855516, Note_on_c, 0, 74, 53
1, 855525, Note_on_c, 0, 65, 73
1, 855591, Note_on_c, 0, 74, 0
1, 855638, Note_on_c, 0, 65, 0
1, 855638, Note_on_c, 0, 57, 0
1, 855652, Note_on_c, 0, 64, 64
1, 855685, Note_on_c, 0, 72, 48
1, 855778, Note_on_c, 0, 72, 0
1, 855796, Control_c, 0, 67, 16
1, 855802, Note_on_c, 0, 69, 38
1, 855817, Control_c, 0, 67, 30
1, 855835, Control_c, 0, 67, 45
1, 855869, Control_c, 0, 67, 57
1, 855887, Control_c, 0, 67, 71
1, 855907, Control_c, 0, 67, 93
1, 855918, Note_on_c, 0, 56, 55
1, 855926, Control_c, 0, 67, 118
1, 855942, Control_c, 0, 67, 127
1, 855950, Note_on_c, 0, 76, 50
1, 855954, Note_on_c, 0, 56, 0
1, 855970, Note_on_c, 0, 69, 0
1, 855999, Note_on_c, 0, 76, 0
1, 856051, Note_on_c, 0, 72, 57
1, 856065, Note_on_c, 0, 57, 56
1, 856093, Note_on_c, 0, 72, 0
1, 856160, Note_on_c, 0, 64, 0
1, 856169, Note_on_c, 0, 69, 43
1, 856227, Note_on_c, 0, 69, 0
1, 856297, Note_on_c, 0, 74, 62
1, 856303, Note_on_c, 0, 65, 76
1, 856385, Note_on_c, 0, 65, 0
1, 856391, Note_on_c, 0, 57, 0
1, 856395, Note_on_c, 0, 74, 0
1, 856424, Note_on_c, 0, 72, 59
1, 856438, Note_on_c, 0, 64, 60
1, 856497, Note_on_c, 0, 72, 0
1, 856555, Note_on_c, 0, 69, 52
1, 856626, Control_c, 0, 64, 20
1, 856664, Note_on_c, 0, 56, 54
1, 856678, Note_on_c, 0, 69, 0
1, 856678, Control_c, 0, 64, 27
1, 856679, Note_on_c, 0, 76, 62
1, 856695, Note_on_c, 0, 56, 0
1, 856716, Control_c, 0, 64, 31
1, 856730, Note_on_c, 0, 76, 0
1, 856766, Note_on_c, 0, 64, 0
1, 856810, Note_on_c, 0, 57, 58
1, 856829, Note_on_c, 0, 73, 66
1, 856848, Note_on_c, 0, 57, 0
1, 856867, Note_on_c, 0, 73, 0
1, 856877, Control_c, 0, 64, 26
1, 856923, Note_on_c, 0, 61, 65
1, 856934, Control_c, 0, 64, 21
1, 856948, Note_on_c, 0, 76, 64
1, 856961, Note_on_c, 0, 61, 0
1, 856981, Note_on_c, 0, 76, 0
1, 857056, Note_on_c, 0, 79, 73
1, 857059, Note_on_c, 0, 64, 59
1, 857100, Note_on_c, 0, 79, 0
1, 857100, Note_on_c, 0, 64, 0
1, 857172, Note_on_c, 0, 61, 71
1, 857173, Note_on_c, 0, 69, 72
1, 857213, Note_on_c, 0, 61, 0
1, 857294, Note_on_c, 0, 57, 65
1, 857335, Note_on_c, 0, 57, 0
1, 857430, Note_on_c, 0, 78, 75
1, 857432, Note_on_c, 0, 62, 59
1, 857433, Note_on_c, 0, 69, 0
1, 857469, Note_on_c, 0, 62, 0
1, 857469, Note_on_c, 0, 78, 0
1, 857554, Note_on_c, 0, 59, 62
1, 857555, Note_on_c, 0, 74, 78
1, 857591, Note_on_c, 0, 74, 0
1, 857603, Note_on_c, 0, 59, 0
1, 857661, Note_on_c, 0, 62, 66
1, 857664, Note_on_c, 0, 78, 80
1, 857697, Note_on_c, 0, 62, 0
1, 857711, Note_on_c, 0, 78, 0
1, 857807, Note_on_c, 0, 81, 77
1, 857810, Note_on_c, 0, 66, 61
1, 857849, Note_on_c, 0, 81, 0
1, 857858, Note_on_c, 0, 66, 0
1, 857924, Note_on_c, 0, 71, 75
1, 857925, Note_on_c, 0, 62, 63
1, 857985, Note_on_c, 0, 62, 0
1, 858052, Note_on_c, 0, 59, 54
1, 858101, Note_on_c, 0, 59, 0
1, 858176, Note_on_c, 0, 71, 0
1, 858180, Note_on_c, 0, 64, 55
1, 858192, Note_on_c, 0, 79, 66
1, 858213, Note_on_c, 0, 64, 0
1, 858225, Note_on_c, 0, 79, 0
1, 858298, Note_on_c, 0, 61, 55
1, 858300, Note_on_c, 0, 76, 76
1, 858341, Note_on_c, 0, 76, 0
1, 858343, Note_on_c, 0, 61, 0
1, 858416, Note_on_c, 0, 64, 62
1, 858422, Note_on_c, 0, 79, 80
1, 858454, Note_on_c, 0, 64, 0
1, 858471, Note_on_c, 0, 79, 0
1, 858535, Note_on_c, 0, 83, 75
1, 858544, Note_on_c, 0, 67, 55
1, 858577, Note_on_c, 0, 67, 0
1, 858588, Note_on_c, 0, 83, 0
1, 858676, Note_on_c, 0, 73, 69
1, 858678, Note_on_c, 0, 64, 54
1, 858709, Note_on_c, 0, 64, 0
1, 858733, Note_on_c, 0, 73, 0
1, 858796, Note_on_c, 0, 61, 60
1, 858796, Note_on_c, 0, 81, 69
1, 858832, Note_on_c, 0, 61, 0
1, 858842, Note_on_c, 0, 81, 0
1, 858905, Note_on_c, 0, 79, 77
1, 858934, Note_on_c, 0, 64, 52
1, 858964, Note_on_c, 0, 79, 0
1, 858964, Note_on_c, 0, 64, 0
1, 859023, Note_on_c, 0, 62, 69
1, 859026, Note_on_c, 0, 78, 76
1, 859062, Control_c, 0, 67, 115
1, 859068, Note_on_c, 0, 62, 0
1, 859078, Note_on_c, 0, 78, 0
1, 859078, Control_c, 0, 67, 94
1, 859100, Control_c, 0, 67, 65
1, 859118, Control_c, 0, 67, 31
1, 859136, Control_c, 0, 67, 0
1, 859148, Note_on_c, 0, 74, 67
1, 859193, Note_on_c, 0, 74, 0
1, 859271, Note_on_c, 0, 79, 73
1, 859275, Note_on_c, 0, 71, 81
1, 859310, Note_on_c, 0, 71, 0
1, 859330, Note_on_c, 0, 79, 0
1, 859389, Note_on_c, 0, 69, 72
1, 859391, Note_on_c, 0, 78, 76
1, 859434, Note_on_c, 0, 69, 0
1, 859438, Note_on_c, 0, 78, 0
1, 859486, Control_c, 0, 64, 17
1, 859533, Note_on_c, 0, 74, 47
1, 859585, Note_on_c, 0, 74, 0
1, 859638, Note_on_c, 0, 61, 66
1, 859666, Note_on_c, 0, 81, 63
1, 859672, Note_on_c, 0, 61, 0
1, 859711, Note_on_c, 0, 81, 0
1, 859783, Note_on_c, 0, 62, 61
1, 859786, Note_on_c, 0, 78, 52
1, 859810, Note_on_c, 0, 78, 0
1, 859818, Note_on_c, 0, 62, 0
1, 859899, Note_on_c, 0, 74, 57
1, 859934, Note_on_c, 0, 74, 0
1, 860015, Note_on_c, 0, 71, 89
1, 860021, Note_on_c, 0, 79, 69
1, 860064, Note_on_c, 0, 71, 0
1, 860064, Note_on_c, 0, 79, 0
1, 860136, Note_on_c, 0, 69, 75
1, 860137, Note_on_c, 0, 78, 70
1, 860164, Control_c, 0, 64, 12
1, 860172, Note_on_c, 0, 69, 0
1, 860180, Note_on_c, 0, 78, 0
1, 860251, Note_on_c, 0, 74, 65
1, 860310, Note_on_c, 0, 74, 0
1, 860366, Note_on_c, 0, 61, 60
1, 860381, Note_on_c, 0, 81, 67
1, 860399, Note_on_c, 0, 61, 0
1, 860415, Note_on_c, 0, 81, 0
1, 860496, Note_on_c, 0, 78, 78
1, 860506, Note_on_c, 0, 62, 68
1, 860550, Note_on_c, 0, 78, 0
1, 860556, Note_on_c, 0, 62, 0
1, 860628, Note_on_c, 0, 66, 77
1, 860630, Note_on_c, 0, 81, 80
1, 860669, Note_on_c, 0, 66, 0
1, 860670, Note_on_c, 0, 81, 0
1, 860744, Note_on_c, 0, 84, 81
1, 860755, Note_on_c, 0, 69, 68
1, 860791, Note_on_c, 0, 84, 0
1, 860793, Note_on_c, 0, 69, 0
1, 860863, Note_on_c, 0, 74, 78
1, 860871, Note_on_c, 0, 66, 71
1, 860922, Note_on_c, 0, 66, 0
1, 860999, Note_on_c, 0, 62, 64
1, 861039, Note_on_c, 0, 62, 0
1, 861115, Note_on_c, 0, 67, 64
1, 861133, Note_on_c, 0, 83, 63
1, 861145, Note_on_c, 0, 74, 0
1, 861153, Note_on_c, 0, 67, 0
1, 861160, Note_on_c, 0, 83, 0
1, 861243, Note_on_c, 0, 60, 66
1, 861244, Note_on_c, 0, 76, 77
1, 861282, Note_on_c, 0, 76, 0
1, 861288, Note_on_c, 0, 60, 0
1, 861357, Note_on_c, 0, 64, 74
1, 861369, Note_on_c, 0, 79, 72
1, 861391, Note_on_c, 0, 64, 0
1, 861403, Note_on_c, 0, 79, 0
1, 861495, Note_on_c, 0, 83, 80
1, 861518, Note_on_c, 0, 67, 43
1, 861542, Note_on_c, 0, 83, 0
1, 861552, Note_on_c, 0, 67, 0
1, 861619, Note_on_c, 0, 72, 74
1, 861622, Note_on_c, 0, 64, 64
1, 861710, Note_on_c, 0, 64, 0
1, 861739, Note_on_c, 0, 60, 56
1, 861782, Note_on_c, 0, 60, 0
1, 861866, Note_on_c, 0, 66, 45
1, 861869, Note_on_c, 0, 81, 65
1, 861879, Note_on_c, 0, 72, 0
1, 861907, Note_on_c, 0, 81, 0
1, 861908, Note_on_c, 0, 66, 0
1, 861977, Note_on_c, 0, 74, 77
1, 861985, Note_on_c, 0, 59, 58
1, 862015, Note_on_c, 0, 74, 0
1, 862044, Note_on_c, 0, 59, 0
1, 862096, Note_on_c, 0, 62, 60
1, 862098, Note_on_c, 0, 78, 76
1, 862136, Note_on_c, 0, 62, 0
1, 862147, Note_on_c, 0, 78, 0
1, 862210, Note_on_c, 0, 66, 60
1, 862219, Note_on_c, 0, 81, 77
1, 862259, Note_on_c, 0, 66, 0
1, 862271, Note_on_c, 0, 81, 0
1, 862334, Note_on_c, 0, 62, 63
1, 862337, Note_on_c, 0, 71, 75
1, 862439, Note_on_c, 0, 62, 0
1, 862468, Note_on_c, 0, 59, 57
1, 862517, Note_on_c, 0, 59, 0
1, 862614, Note_on_c, 0, 79, 72
1, 862619, Note_on_c, 0, 64, 44
1, 862622, Note_on_c, 0, 71, 0
1, 862652, Note_on_c, 0, 79, 0
1, 862669, Note_on_c, 0, 64, 0
1, 862727, Note_on_c, 0, 57, 60
1, 862728, Note_on_c, 0, 72, 78
1, 862750, Control_c, 0, 64, 8
1, 862762, Note_on_c, 0, 72, 0
1, 862796, Note_on_c, 0, 57, 0
1, 862841, Note_on_c, 0, 60, 68
1, 862856, Note_on_c, 0, 76, 75
1, 862878, Note_on_c, 0, 60, 0
1, 862893, Note_on_c, 0, 76, 0
1, 862967, Note_on_c, 0, 79, 70
1, 862969, Note_on_c, 0, 64, 60
1, 862998, Note_on_c, 0, 79, 0
1, 863007, Note_on_c, 0, 64, 0
1, 863080, Note_on_c, 0, 69, 76
1, 863087, Note_on_c, 0, 60, 71
1, 863121, Note_on_c, 0, 60, 0
1, 863122, Note_on_c, 0, 69, 0
1, 863200, Note_on_c, 0, 72, 78
1, 863201, Note_on_c, 0, 57, 66
1, 863249, Note_on_c, 0, 72, 0
1, 863251, Note_on_c, 0, 57, 0
1, 863265, Control_c, 0, 64, 0
1, 863266, Note_on_c, 0, 60, 24
1, 863267, Note_on_c, 0, 60, 0
1, 863312, Note_on_c, 0, 76, 76
1, 863360, Poly_aftertouch_c, 0, 60, 127
1, 863380, Note_on_c, 0, 76, 0
1, 863383, Poly_aftertouch_c, 0, 60, 0
1, 863459, Note_on_c, 0, 66, 72
1, 863460, Note_on_c, 0, 62, 67
1, 863496, Note_on_c, 0, 66, 0
1, 863498, Note_on_c, 0, 62, 0
1, 863567, Note_on_c, 0, 69, 76
1, 863571, Note_on_c, 0, 57, 64
1, 863610, Note_on_c, 0, 69, 0
1, 863618, Note_on_c, 0, 57, 0
1, 863696, Note_on_c, 0, 54, 64
1, 863698, Note_on_c, 0, 72, 71
1, 863744, Note_on_c, 0, 72, 0
1, 863774, Note_on_c, 0, 54, 0
1, 863818, Note_on_c, 0, 62, 63
1, 863828, Note_on_c, 0, 50, 56
1, 863878, Note_on_c, 0, 50, 0
1, 863881, Note_on_c, 0, 62, 0
1, 863941, Note_on_c, 0, 66, 68
1, 864056, Note_on_c, 0, 45, 95
1, 864064, Note_on_c, 0, 69, 73
1, 864074, Note_on_c, 0, 66, 0
1, 864195, Note_on_c, 0, 42, 81
1, 864202, Note_on_c, 0, 72, 81
1, 864204, Note_on_c, 0, 69, 0
1, 864215, Note_on_c, 0, 45, 0
1, 864324, Note_on_c, 0, 42, 0
1, 864331, Note_on_c, 0, 38, 78
1, 864376, Note_on_c, 0, 38, 0
1, 864453, Note_on_c, 0, 43, 86
1, 864466, Note_on_c, 0, 71, 78
1, 864497, Note_on_c, 0, 43, 0
1, 864577, Note_on_c, 0, 42, 81
1, 864594, Note_on_c, 0, 69, 75
1, 864602, Note_on_c, 0, 71, 0
1, 864617, Note_on_c, 0, 42, 0
1, 864656, Note_on_c, 0, 72, 0
1, 864700, Note_on_c, 0, 38, 75
1, 864737, Note_on_c, 0, 38, 0
1, 864838, Note_on_c, 0, 45, 80
1, 864845, Note_on_c, 0, 72, 88
1, 864867, Note_on_c, 0, 69, 0
1, 864888, Note_on_c, 0, 45, 0
1, 864962, Note_on_c, 0, 42, 82
1, 864986, Note_on_c, 0, 62, 68
1, 865011, Note_on_c, 0, 42, 0
1, 865091, Note_on_c, 0, 38, 79
1, 865135, Note_on_c, 0, 38, 0
1, 865242, Note_on_c, 0, 43, 81
1, 865257, Note_on_c, 0, 62, 0
1, 865262, Note_on_c, 0, 71, 75
1, 865281, Note_on_c, 0, 43, 0
1, 865294, Note_on_c, 0, 72, 0
1, 865362, Note_on_c, 0, 42, 81
1, 865371, Note_on_c, 0, 69, 76
1, 865389, Note_on_c, 0, 71, 0
1, 865416, Note_on_c, 0, 42, 0
1, 865487, Note_on_c, 0, 38, 76
1, 865531, Note_on_c, 0, 38, 0
1, 865624, Note_on_c, 0, 45, 71
1, 865628, Note_on_c, 0, 72, 80
1, 865634, Note_on_c, 0, 69, 0
1, 865667, Note_on_c, 0, 45, 0
1, 865749, Note_on_c, 0, 42, 74
1, 865754, Note_on_c, 0, 62, 72
1, 865788, Note_on_c, 0, 62, 0
1, 865802, Note_on_c, 0, 42, 0
1, 865872, Note_on_c, 0, 66, 71
1, 865881, Note_on_c, 0, 45, 62
1, 865907, Note_on_c, 0, 66, 0
1, 865913, Note_on_c, 0, 45, 0
1, 865987, Note_on_c, 0, 69, 83
1, 865993, Note_on_c, 0, 48, 63
1, 866036, Note_on_c, 0, 48, 0
1, 866043, Note_on_c, 0, 69, 0
1, 866061, Note_on_c, 0, 72, 0
1, 866118, Note_on_c, 0, 38, 65
1, 866119, Note_on_c, 0, 66, 91
1, 866179, Control_c, 0, 64, 38
1, 866198, Control_c, 0, 64, 74
1, 866217, Control_c, 0, 64, 80
1, 866234, Control_c, 0, 64, 83
1, 866252, Note_on_c, 0, 69, 83
1, 866314, Note_on_c, 0, 69, 0
1, 866328, Control_c, 0, 64, 79
1, 866344, Control_c, 0, 64, 58
1, 866363, Control_c, 0, 64, 0
1, 866378, Note_on_c, 0, 74, 98
1, 866381, Note_on_c, 0, 47, 70
1, 866396, Note_on_c, 0, 66, 0
1, 866422, Note_on_c, 0, 47, 0
1, 866444, Note_on_c, 0, 38, 0
1, 866496, Note_on_c, 0, 43, 74
1, 866500, Note_on_c, 0, 64, 81
1, 866537, Note_on_c, 0, 64, 0
1, 866554, Note_on_c, 0, 43, 0
1, 866613, Note_on_c, 0, 67, 83
1, 866631, Note_on_c, 0, 47, 60
1, 866658, Note_on_c, 0, 67, 0
1, 866661, Note_on_c, 0, 47, 0
1, 866738, Note_on_c, 0, 71, 82
1, 866747, Note_on_c, 0, 50, 65
1, 866775, Note_on_c, 0, 71, 0
1, 866791, Note_on_c, 0, 50, 0
1, 866858, Note_on_c, 0, 67, 92
1, 866869, Note_on_c, 0, 40, 67
1, 866881, Note_on_c, 0, 74, 0
1, 866917, Control_c, 0, 64, 16
1, 866933, Control_c, 0, 64, 71
1, 866953, Control_c, 0, 64, 85
1, 866970, Control_c, 0, 64, 89
1, 866979, Note_on_c, 0, 71, 88
1, 867043, Note_on_c, 0, 71, 0
1, 867125, Note_on_c, 0, 76, 96
1, 867133, Control_c, 0, 64, 82
1, 867140, Note_on_c, 0, 48, 63
1, 867144, Note_on_c, 0, 40, 0
1, 867148, Note_on_c, 0, 67, 0
1, 867152, Control_c, 0, 64, 56
1, 867170, Control_c, 0, 64, 0
1, 867180, Note_on_c, 0, 48, 0
1, 867246, Note_on_c, 0, 45, 70
1, 867258, Note_on_c, 0, 66, 65
1, 867282, Note_on_c, 0, 66, 0
1, 867333, Note_on_c, 0, 45, 0
1, 867354, Note_on_c, 0, 69, 81
1, 867358, Note_on_c, 0, 48, 67
1, 867398, Note_on_c, 0, 69, 0
1, 867412, Note_on_c, 0, 48, 0
1, 867476, Note_on_c, 0, 72, 87
1, 867492, Note_on_c, 0, 52, 66
1, 867510, Note_on_c, 0, 76, 0
1, 867533, Note_on_c, 0, 72, 0
1, 867535, Note_on_c, 0, 52, 0
1, 867601, Note_on_c, 0, 69, 89
1, 867606, Note_on_c, 0, 42, 71
1, 867667, Control_c, 0, 64, 56
1, 867675, Note_on_c, 0, 42, 0
1, 867685, Control_c, 0, 64, 72
1, 867713, Note_on_c, 0, 72, 89
1, 867721, Control_c, 0, 64, 70
1, 867739, Note_on_c, 0, 50, 64
1, 867740, Control_c, 0, 64, 60
1, 867758, Control_c, 0, 64, 35
1, 867773, Note_on_c, 0, 50, 0
1, 867776, Control_c, 0, 64, 0
1, 867795, Note_on_c, 0, 72, 0
1, 867832, Note_on_c, 0, 78, 85
1, 867852, Note_on_c, 0, 48, 72
1, 867879, Note_on_c, 0, 78, 0
1, 867887, Note_on_c, 0, 48, 0
1, 867928, Note_on_c, 0, 69, 0
1, 867976, Note_on_c, 0, 79, 101
1, 867978, Note_on_c, 0, 47, 73
1, 868051, Control_c, 0, 64, 65
1, 868069, Control_c, 0, 64, 86
1, 868100, Note_on_c, 0, 47, 0
1, 868109, Note_on_c, 0, 50, 73
1, 868118, Note_on_c, 0, 74, 86
1, 868149, Note_on_c, 0, 50, 0
1, 868162, Control_c, 0, 64, 84
1, 868179, Note_on_c, 0, 74, 0
1, 868179, Control_c, 0, 64, 66
1, 868198, Control_c, 0, 64, 0
1, 868245, Note_on_c, 0, 55, 67
1, 868252, Note_on_c, 0, 71, 75
1, 868255, Note_on_c, 0, 79, 0
1, 868282, Note_on_c, 0, 71, 0
1, 868289, Note_on_c, 0, 55, 0
1, 868362, Note_on_c, 0, 67, 95
1, 868363, Note_on_c, 0, 59, 80
1, 868402, Note_on_c, 0, 59, 0
1, 868489, Note_on_c, 0, 55, 70
1, 868501, Note_on_c, 0, 77, 77
1, 868538, Note_on_c, 0, 55, 0
1, 868563, Poly_aftertouch_c, 0, 79, 0
1, 868608, Note_on_c, 0, 59, 78
1, 868610, Note_on_c, 0, 74, 78
1, 868612, Note_on_c, 0, 77, 0
1, 868646, Note_on_c, 0, 59, 0
1, 868650, Note_on_c, 0, 74, 0
1, 868732, Note_on_c, 0, 76, 95
1, 868734, Note_on_c, 0, 60, 72
1, 868763, Note_on_c, 0, 67, 0
1, 868777, Note_on_c, 0, 60, 0
1, 868848, Note_on_c, 0, 72, 82
1, 868855, Note_on_c, 0, 57, 63
1, 868890, Note_on_c, 0, 57, 0
1, 868924, Note_on_c, 0, 72, 0
1, 868975, Note_on_c, 0, 76, 0
1, 868977, Note_on_c, 0, 69, 82
1, 869000, Note_on_c, 0, 54, 67
1, 869025, Note_on_c, 0, 69, 0
1, 869043, Note_on_c, 0, 54, 0
1, 869115, Note_on_c, 0, 66, 91
1, 869130, Note_on_c, 0, 50, 62
1, 869177, Note_on_c, 0, 50, 0
1, 869231, Note_on_c, 0, 54, 75
1, 869243, Note_on_c, 0, 69, 78
1, 869281, Note_on_c, 0, 54, 0
1, 869322, Note_on_c, 0, 69, 0
1, 869350, Note_on_c, 0, 72, 86
1, 869365, Note_on_c, 0, 57, 64
1, 869376, Note_on_c, 0, 66, 0
1, 869415, Note_on_c, 0, 57, 0
1, 869477, Note_on_c, 0, 71, 90
1, 869482, Note_on_c, 0, 55, 78
1, 869500, Note_on_c, 0, 72, 0
1, 869513, Note_on_c, 0, 55, 0
1, 869608, Note_on_c, 0, 69, 91
1, 869637, Note_on_c, 0, 71, 0
1, 869679, Note_on_c, 0, 69, 0
1, 869730, Note_on_c, 0, 67, 92
1, 869737, Note_on_c, 0, 64, 87
1, 869740, Note_on_c, 0, 48, 77
1, 869775, Note_on_c, 0, 67, 0
1, 869783, Note_on_c, 0, 64, 0
1, 869816, Note_on_c, 0, 48, 0
1, 869871, Note_on_c, 0, 50, 75
1, 869872, Note_on_c, 0, 62, 92
1, 869875, Note_on_c, 0, 67, 95
1, 870025, Note_on_c, 0, 69, 88
1, 870039, Note_on_c, 0, 67, 0
1, 870159, Note_on_c, 0, 38, 76
1, 870166, Note_on_c, 0, 60, 89
1, 870167, Note_on_c, 0, 66, 88
1, 870182, Note_on_c, 0, 62, 0
1, 870192, Note_on_c, 0, 38, 0
1, 870220, Note_on_c, 0, 69, 0
1, 870347, Note_on_c, 0, 43, 84
1, 870356, Note_on_c, 0, 67, 89
1, 870380, Note_on_c, 0, 66, 0
1, 870396, Note_on_c, 0, 50, 0
1, 870468, Note_on_c, 0, 60, 0
1, 870514, Note_on_c, 0, 47, 84
1, 870522, Note_on_c, 0, 62, 90
1, 870607, Note_on_c, 0, 47, 0
1, 870684, Note_on_c, 0, 50, 81
1, 870698, Note_on_c, 0, 59, 87
1, 870718, Note_on_c, 0, 50, 0
1, 870976, Note_on_c, 0, 55, 90
1, 871045, Control_c, 0, 64, 33
1, 871062, Control_c, 0, 64, 57
1, 871081, Control_c, 0, 64, 67
1, 871301, Control_c, 0, 64, 70
1, 871339, Control_c, 0, 64, 72
1, 871373, Control_c, 0, 64, 74
1, 871411, Control_c, 0, 64, 78
1, 871430, Control_c, 0, 64, 82
1, 871449, Control_c, 0, 64, 88
1, 871466, Control_c, 0, 64, 94
1, 871503, Control_c, 0, 64, 99
1, 871559, Control_c, 0, 64, 105
1, 871596, Control_c, 0, 64, 110
1, 871640, Poly_aftertouch_c, 0, 46, 127
1, 871651, Control_c, 0, 64, 114
1, 871713, Poly_aftertouch_c, 0, 45, 127
1, 871824, Poly_aftertouch_c, 0, 48, 127
1, 871832, Control_c, 0, 64, 118
1, 871868, Control_c, 0, 64, 125
1, 872329, Control_c, 0, 64, 115
1, 872347, Control_c, 0, 64, 108
1, 872366, Control_c, 0, 64, 100
1, 872384, Control_c, 0, 64, 89
1, 872401, Control_c, 0, 64, 74
1, 872410, Poly_aftertouch_c, 0, 49, 0
1, 872417, Poly_aftertouch_c, 0, 48, 0
1, 872420, Control_c, 0, 64, 59
1, 872425, Poly_aftertouch_c, 0, 64, 0
1, 872438, Control_c, 0, 64, 53
1, 872474, Note_on_c, 0, 59, 0
1, 872496, Note_on_c, 0, 62, 0
1, 872497, Note_on_c, 0, 67, 0
1, 872508, Note_on_c, 0, 55, 0
1, 872508, Poly_aftertouch_c, 0, 46, 0
1, 872513, Control_c, 0, 64, 51
1, 872520, Poly_aftertouch_c, 0, 45, 0
1, 872526, Note_on_c, 0, 43, 0
1, 872533, Control_c, 0, 64, 48
1, 872550, Control_c, 0, 64, 45
1, 872586, Control_c, 0, 64, 43
1, 872622, Control_c, 0, 64, 41
1, 872678, Control_c, 0, 64, 37
1, 873080, Control_c, 0, 64, 33
1, 874549, Control_c, 0, 64, 28
1, 874584, Control_c, 0, 64, 20
1, 874602, Control_c, 0, 64, 0
1, 875520, End_track
0, 0, End_of_file
