0, 0, Header, 0, 1, 384
1, 0, Start_track
1, 0, Tempo, 512820
1, 0, Title_t, ""
1, 0, Note_on_c, 0, 41, 88
1, 0, Note_on_c, 0, 53, 108
1, 3, Note_on_c, 0, 48, 79
1, 7, Note_on_c, 0, 45, 73
1, 86, Control_c, 0, 64, 127
1, 180, Note_off_c, 0, 53, 64
1, 180, Note_off_c, 0, 48, 64
1, 184, Note_off_c, 0, 41, 64
1, 212, Note_off_c, 0, 45, 64
1, 230, Note_on_c, 0, 77, 90
1, 295, Note_off_c, 0, 77, 64
1, 432, Control_c, 0, 64, 0
1, 460, Note_on_c, 0, 69, 75
1, 463, Note_on_c, 0, 65, 75
1, 498, Note_off_c, 0, 65, 64
1, 498, Note_off_c, 0, 69, 64
1, 670, Note_on_c, 0, 70, 73
1, 674, Note_on_c, 0, 67, 70
1, 715, Note_off_c, 0, 67, 64
1, 746, Note_off_c, 0, 70, 64
1, 900, Note_on_c, 0, 72, 88
1, 905, Note_on_c, 0, 69, 69
1, 1127, Note_on_c, 0, 65, 68
1, 1181, Note_off_c, 0, 65, 64
1, 1294, Note_off_c, 0, 69, 64
1, 1343, Note_on_c, 0, 70, 60
1, 1348, Note_on_c, 0, 62, 75
1, 1348, Note_on_c, 0, 74, 78
1, 1364, Note_off_c, 0, 72, 64
1, 1386, Note_off_c, 0, 62, 64
1, 1568, Note_on_c, 0, 58, 68
1, 1585, Note_off_c, 0, 70, 64
1, 1638, Note_off_c, 0, 58, 64
1, 1724, Note_off_c, 0, 74, 64
1, 1783, Note_on_c, 0, 65, 70
1, 1783, Note_on_c, 0, 72, 89
1, 1790, Note_on_c, 0, 69, 60
1, 1972, Note_off_c, 0, 69, 64
1, 2010, Note_on_c, 0, 77, 83
1, 2022, Note_on_c, 0, 53, 93
1, 2049, Note_off_c, 0, 72, 64
1, 2056, Note_off_c, 0, 53, 64
1, 2237, Note_on_c, 0, 70, 62
1, 2242, Note_on_c, 0, 50, 82
1, 2287, Note_off_c, 0, 50, 64
1, 2464, Note_off_c, 0, 65, 64
1, 2464, Note_on_c, 0, 46, 62
1, 2471, Note_on_c, 0, 75, 71
1, 2496, Note_off_c, 0, 77, 64
1, 2501, Note_off_c, 0, 70, 64
1, 2504, Note_off_c, 0, 46, 64
1, 2557, Note_on_c, 0, 74, 88
1, 2584, Note_off_c, 0, 74, 64
1, 2591, Note_off_c, 0, 75, 64
1, 2679, Note_on_c, 0, 74, 66
1, 2679, Note_on_c, 0, 65, 77
1, 2679, Note_on_c, 0, 70, 73
1, 2690, Note_on_c, 0, 53, 83
1, 2879, Note_off_c, 0, 53, 64
1, 2908, Note_off_c, 0, 70, 64
1, 2927, Note_on_c, 0, 69, 42
1, 2927, Note_on_c, 0, 72, 57
1, 2935, Note_on_c, 0, 41, 52
1, 2935, Note_off_c, 0, 74, 64
1, 3075, Note_off_c, 0, 65, 64
1, 3091, Note_off_c, 0, 41, 64
1, 3133, Note_off_c, 0, 69, 64
1, 3153, Note_off_c, 0, 72, 64
1, 3616, Note_on_c, 0, 60, 105
1, 3619, Note_on_c, 0, 52, 98
1, 3619, Note_on_c, 0, 48, 90
1, 3619, Note_on_c, 0, 55, 98
1, 3833, Note_on_c, 0, 84, 101
1, 3849, Control_c, 0, 64, 127
1, 3885, Note_off_c, 0, 60, 64
1, 3897, Note_off_c, 0, 55, 64
1, 3902, Note_off_c, 0, 84, 64
1, 3925, Note_off_c, 0, 48, 64
1, 3970, Note_off_c, 0, 52, 64
1, 4041, Control_c, 0, 64, 0
1, 4045, Note_on_c, 0, 76, 83
1, 4045, Note_on_c, 0, 72, 81
1, 4083, Note_off_c, 0, 72, 64
1, 4091, Note_off_c, 0, 76, 64
1, 4256, Note_on_c, 0, 77, 89
1, 4256, Note_on_c, 0, 74, 84
1, 4292, Note_off_c, 0, 74, 64
1, 4340, Note_off_c, 0, 77, 64
1, 4474, Note_on_c, 0, 79, 99
1, 4474, Note_on_c, 0, 76, 81
1, 4699, Note_on_c, 0, 72, 80
1, 4785, Note_off_c, 0, 72, 64
1, 4880, Note_off_c, 0, 76, 64
1, 4911, Note_on_c, 0, 69, 75
1, 4914, Note_on_c, 0, 81, 81
1, 4921, Note_on_c, 0, 77, 73
1, 4949, Note_off_c, 0, 79, 64
1, 4991, Note_off_c, 0, 69, 64
1, 5136, Note_on_c, 0, 65, 67
1, 5144, Note_off_c, 0, 77, 64
1, 5237, Note_off_c, 0, 65, 64
1, 5337, Note_off_c, 0, 81, 64
1, 5360, Note_on_c, 0, 79, 100
1, 5363, Note_on_c, 0, 72, 72
1, 5371, Note_on_c, 0, 76, 59
1, 5557, Note_off_c, 0, 76, 64
1, 5591, Note_on_c, 0, 60, 85
1, 5594, Note_on_c, 0, 84, 95
1, 5627, Note_off_c, 0, 79, 64
1, 5633, Note_off_c, 0, 60, 64
1, 5813, Note_on_c, 0, 77, 69
1, 5813, Note_on_c, 0, 57, 80
1, 5850, Note_off_c, 0, 57, 64
1, 6025, Note_on_c, 0, 82, 72
1, 6025, Note_off_c, 0, 77, 64
1, 6025, Note_on_c, 0, 53, 101
1, 6034, Note_off_c, 0, 72, 64
1, 6080, Note_off_c, 0, 84, 64
1, 6080, Note_off_c, 0, 53, 64
1, 6120, Note_on_c, 0, 81, 69
1, 6147, Note_off_c, 0, 82, 64
1, 6147, Note_off_c, 0, 81, 64
1, 6232, Note_on_c, 0, 81, 51
1, 6242, Note_on_c, 0, 72, 65
1, 6242, Note_on_c, 0, 77, 69
1, 6246, Note_on_c, 0, 60, 64
1, 6354, Note_off_c, 0, 60, 64
1, 6429, Note_off_c, 0, 77, 64
1, 6485, Note_off_c, 0, 72, 64
1, 6485, Note_on_c, 0, 48, 37
1, 6490, Note_on_c, 0, 76, 41
1, 6490, Note_on_c, 0, 79, 55
1, 6502, Note_off_c, 0, 81, 64
1, 6629, Control_c, 0, 64, 127
1, 6632, Note_off_c, 0, 48, 64
1, 6640, Note_off_c, 0, 79, 64
1, 6646, Note_off_c, 0, 76, 64
1, 6690, Control_c, 0, 64, 0
1, 6908, Note_on_c, 0, 72, 63
1, 6989, Note_off_c, 0, 72, 64
1, 7006, Note_on_c, 0, 70, 63
1, 7067, Note_off_c, 0, 70, 64
1, 7106, Note_on_c, 0, 69, 65
1, 7167, Note_off_c, 0, 69, 64
1, 7220, Note_on_c, 0, 70, 79
1, 7224, Note_on_c, 0, 60, 58
1, 7229, Note_on_c, 0, 55, 58
1, 7236, Note_on_c, 0, 52, 60
1, 7301, Note_off_c, 0, 70, 64
1, 7438, Note_off_c, 0, 55, 64
1, 7442, Note_off_c, 0, 60, 64
1, 7446, Note_off_c, 0, 52, 64
1, 7446, Note_on_c, 0, 79, 90
1, 7688, Note_on_c, 0, 60, 70
1, 7691, Note_on_c, 0, 55, 68
1, 7691, Note_on_c, 0, 48, 53
1, 7699, Note_on_c, 0, 52, 68
1, 7732, Note_off_c, 0, 79, 64
1, 7802, Note_on_c, 0, 70, 67
1, 7908, Note_on_c, 0, 69, 62
1, 7911, Control_c, 0, 64, 127
1, 7925, Note_off_c, 0, 70, 64
1, 7956, Note_off_c, 0, 52, 64
1, 7956, Note_off_c, 0, 48, 64
1, 7963, Note_off_c, 0, 55, 64
1, 8009, Note_on_c, 0, 67, 73
1, 8022, Note_off_c, 0, 69, 64
1, 8128, Control_c, 0, 64, 0
1, 8133, Note_off_c, 0, 67, 64
1, 8133, Note_on_c, 0, 69, 74
1, 8139, Note_on_c, 0, 53, 78
1, 8172, Note_off_c, 0, 60, 64
1, 8242, Note_off_c, 0, 69, 64
1, 8242, Note_on_c, 0, 67, 76
1, 8340, Note_on_c, 0, 65, 65
1, 8340, Note_off_c, 0, 67, 64
1, 8370, Note_on_c, 0, 57, 44
1, 8382, Note_off_c, 0, 53, 64
1, 8435, Note_off_c, 0, 57, 64
1, 8438, Note_off_c, 0, 65, 64
1, 8459, Note_on_c, 0, 67, 75
1, 8524, Note_off_c, 0, 67, 64
1, 8562, Note_on_c, 0, 69, 75
1, 8574, Note_on_c, 0, 60, 50
1, 8616, Note_off_c, 0, 60, 64
1, 8649, Note_off_c, 0, 69, 64
1, 8661, Note_on_c, 0, 70, 73
1, 8758, Note_off_c, 0, 70, 64
1, 8761, Note_on_c, 0, 72, 83
1, 8780, Note_on_c, 0, 65, 57
1, 8813, Note_off_c, 0, 65, 64
1, 8847, Note_off_c, 0, 72, 64
1, 8863, Note_on_c, 0, 74, 91
1, 8952, Note_off_c, 0, 74, 64
1, 8969, Note_on_c, 0, 75, 91
1, 8980, Note_on_c, 0, 65, 71
1, 8984, Note_on_c, 0, 60, 63
1, 8984, Note_on_c, 0, 57, 55
1, 9034, Note_off_c, 0, 75, 64
1, 9203, Note_on_c, 0, 84, 100
1, 9256, Note_off_c, 0, 65, 64
1, 9256, Note_off_c, 0, 60, 64
1, 9270, Note_off_c, 0, 57, 64
1, 9337, Control_c, 0, 64, 127
1, 9448, Note_off_c, 0, 84, 64
1, 9451, Note_on_c, 0, 65, 77
1, 9451, Note_on_c, 0, 57, 65
1, 9457, Note_on_c, 0, 60, 67
1, 9466, Note_on_c, 0, 53, 81
1, 9515, Note_off_c, 0, 53, 64
1, 9557, Note_on_c, 0, 75, 72
1, 9563, Note_on_c, 0, 53, 6
1, 9649, Control_c, 0, 64, 0
1, 9655, Note_on_c, 0, 74, 82
1, 9655, Note_off_c, 0, 75, 64
1, 9746, Note_on_c, 0, 72, 75
1, 9750, Note_off_c, 0, 74, 64
1, 9842, Note_off_c, 0, 60, 64
1, 9849, Note_off_c, 0, 72, 64
1, 9870, Note_on_c, 0, 74, 89
1, 9874, Note_on_c, 0, 58, 51
1, 9895, Note_off_c, 0, 57, 64
1, 9941, Note_off_c, 0, 65, 64
1, 9950, Note_off_c, 0, 53, 64
1, 9976, Note_on_c, 0, 72, 80
1, 9994, Note_off_c, 0, 74, 64
1, 10065, Note_on_c, 0, 70, 63
1, 10068, Note_off_c, 0, 72, 64
1, 10093, Note_on_c, 0, 62, 47
1, 10179, Note_on_c, 0, 72, 81
1, 10182, Note_off_c, 0, 70, 64
1, 10278, Note_off_c, 0, 72, 64
1, 10282, Note_off_c, 0, 62, 64
1, 10285, Note_on_c, 0, 74, 90
1, 10295, Note_off_c, 0, 58, 64
1, 10306, Note_on_c, 0, 65, 64
1, 10381, Note_off_c, 0, 74, 64
1, 10387, Note_off_c, 0, 65, 64
1, 10387, Note_on_c, 0, 76, 87
1, 10468, Note_off_c, 0, 76, 64
1, 10488, Note_on_c, 0, 77, 90
1, 10491, Note_on_c, 0, 70, 73
1, 10522, Note_off_c, 0, 70, 64
1, 10579, Note_on_c, 0, 79, 97
1, 10591, Note_off_c, 0, 77, 64
1, 10716, Note_on_c, 0, 71, 101
1, 10719, Note_on_c, 0, 80, 92
1, 10722, Note_on_c, 0, 65, 75
1, 10727, Note_on_c, 0, 62, 70
1, 10741, Note_off_c, 0, 79, 64
1, 10785, Note_off_c, 0, 62, 64
1, 10864, Note_on_c, 0, 79, 79
1, 10873, Note_off_c, 0, 80, 64
1, 10895, Note_off_c, 0, 79, 64
1, 10905, Note_on_c, 0, 77, 76
1, 10936, Note_off_c, 0, 77, 64
1, 10944, Note_on_c, 0, 79, 84
1, 10972, Note_on_c, 0, 62, 2
1, 11000, Note_off_c, 0, 71, 64
1, 11011, Note_off_c, 0, 65, 64
1, 11034, Note_off_c, 0, 62, 64
1, 11167, Note_on_c, 0, 67, 88
1, 11186, Note_on_c, 0, 59, 50
1, 11190, Note_on_c, 0, 62, 62
1, 11315, Note_off_c, 0, 79, 64
1, 11315, Note_on_c, 0, 77, 65
1, 11346, Note_off_c, 0, 77, 64
1, 11356, Note_on_c, 0, 76, 66
1, 11393, Note_on_c, 0, 77, 71
1, 11402, Note_off_c, 0, 76, 64
1, 11412, Note_off_c, 0, 67, 64
1, 11426, Note_off_c, 0, 62, 64
1, 11455, Note_off_c, 0, 59, 64
1, 11619, Note_on_c, 0, 62, 76
1, 11619, Note_on_c, 0, 55, 73
1, 11632, Note_on_c, 0, 59, 56
1, 11760, Note_on_c, 0, 76, 38
1, 11763, Note_off_c, 0, 77, 64
1, 11795, Note_on_c, 0, 74, 66
1, 11803, Note_off_c, 0, 76, 64
1, 11830, Note_off_c, 0, 74, 64
1, 11847, Note_on_c, 0, 76, 62
1, 11863, Note_off_c, 0, 62, 64
1, 11883, Note_off_c, 0, 59, 64
1, 11905, Note_off_c, 0, 55, 64
1, 12078, Note_on_c, 0, 60, 63
1, 12087, Note_on_c, 0, 48, 44
1, 12090, Note_on_c, 0, 55, 48
1, 12196, Note_on_c, 0, 79, 74
1, 12204, Note_off_c, 0, 76, 64
1, 12307, Note_off_c, 0, 79, 64
1, 12310, Note_on_c, 0, 76, 54
1, 12379, Note_off_c, 0, 55, 64
1, 12379, Note_off_c, 0, 60, 64
1, 12409, Note_off_c, 0, 48, 64
1, 12418, Note_on_c, 0, 72, 63
1, 12423, Note_off_c, 0, 76, 64
1, 12497, Note_off_c, 0, 72, 64
1, 12513, Note_on_c, 0, 70, 52
1, 12621, Note_off_c, 0, 70, 64
1, 12633, Note_on_c, 0, 79, 63
1, 12742, Note_on_c, 0, 76, 55
1, 12742, Note_on_c, 0, 60, 71
1, 12749, Note_off_c, 0, 79, 64
1, 12806, Note_off_c, 0, 60, 64
1, 12833, Note_on_c, 0, 62, 79
1, 12838, Note_off_c, 0, 76, 64
1, 12848, Note_on_c, 0, 72, 52
1, 12873, Note_off_c, 0, 62, 64
1, 12934, Note_off_c, 0, 72, 64
1, 12934, Note_on_c, 0, 70, 60
1, 12937, Note_on_c, 0, 64, 98
1, 12987, Note_off_c, 0, 64, 64
1, 13048, Note_off_c, 0, 70, 64
1, 13072, Note_on_c, 0, 79, 53
1, 13162, Note_on_c, 0, 67, 94
1, 13179, Note_on_c, 0, 76, 52
1, 13199, Note_off_c, 0, 79, 64
1, 13208, Note_off_c, 0, 67, 64
1, 13292, Note_on_c, 0, 72, 44
1, 13302, Note_off_c, 0, 76, 64
1, 13377, Note_off_c, 0, 72, 64
1, 13377, Note_on_c, 0, 70, 48
1, 13396, Note_on_c, 0, 64, 82
1, 13423, Note_off_c, 0, 64, 64
1, 13469, Note_off_c, 0, 70, 64
1, 13511, Note_on_c, 0, 79, 54
1, 13599, Note_off_c, 0, 79, 64
1, 13611, Note_on_c, 0, 60, 66
1, 13622, Note_on_c, 0, 76, 48
1, 13653, Note_off_c, 0, 60, 64
1, 13725, Note_off_c, 0, 76, 64
1, 13728, Note_on_c, 0, 72, 45
1, 13803, Note_off_c, 0, 72, 64
1, 13816, Note_on_c, 0, 70, 56
1, 13830, Note_on_c, 0, 48, 74
1, 13928, Note_off_c, 0, 70, 64
1, 13934, Note_on_c, 0, 79, 64
1, 13987, Control_c, 0, 64, 127
1, 14034, Note_on_c, 0, 76, 59
1, 14047, Note_off_c, 0, 79, 64
1, 14051, Note_off_c, 0, 48, 64
1, 14135, Note_on_c, 0, 72, 63
1, 14143, Note_off_c, 0, 76, 64
1, 14181, Control_c, 0, 64, 0
1, 14220, Note_off_c, 0, 72, 64
1, 14237, Note_on_c, 0, 69, 68
1, 14315, Note_off_c, 0, 69, 64
1, 14334, Note_on_c, 0, 81, 69
1, 14343, Note_on_c, 0, 60, 82
1, 14440, Note_on_c, 0, 62, 66
1, 14440, Note_off_c, 0, 60, 64
1, 14443, Note_off_c, 0, 81, 64
1, 14443, Note_on_c, 0, 77, 60
1, 14527, Note_off_c, 0, 77, 64
1, 14541, Note_on_c, 0, 73, 66
1, 14541, Note_on_c, 0, 64, 80
1, 14541, Note_off_c, 0, 62, 64
1, 14596, Note_off_c, 0, 64, 64
1, 14617, Note_off_c, 0, 73, 64
1, 14641, Note_on_c, 0, 72, 69
1, 14641, Note_on_c, 0, 65, 89
1, 14680, Note_off_c, 0, 65, 64
1, 14749, Note_off_c, 0, 72, 64
1, 14759, Note_on_c, 0, 81, 62
1, 14862, Note_on_c, 0, 69, 74
1, 14867, Note_on_c, 0, 77, 71
1, 14870, Note_off_c, 0, 81, 64
1, 14898, Note_off_c, 0, 69, 64
1, 14970, Note_on_c, 0, 73, 66
1, 14975, Note_off_c, 0, 77, 64
1, 15081, Note_on_c, 0, 72, 69
1, 15081, Note_on_c, 0, 65, 84
1, 15087, Note_off_c, 0, 73, 64
1, 15117, Note_off_c, 0, 65, 64
1, 15184, Note_off_c, 0, 72, 64
1, 15193, Note_on_c, 0, 81, 65
1, 15296, Note_on_c, 0, 60, 79
1, 15296, Note_on_c, 0, 77, 71
1, 15305, Note_off_c, 0, 81, 64
1, 15343, Note_off_c, 0, 60, 64
1, 15396, Note_on_c, 0, 73, 65
1, 15401, Note_off_c, 0, 77, 64
1, 15510, Note_off_c, 0, 73, 64
1, 15510, Note_on_c, 0, 72, 78
1, 15510, Note_on_c, 0, 48, 81
1, 15616, Note_on_c, 0, 81, 77
1, 15625, Note_off_c, 0, 72, 64
1, 15689, Control_c, 0, 64, 127
1, 15719, Note_on_c, 0, 77, 79
1, 15733, Note_off_c, 0, 81, 64
1, 15742, Note_off_c, 0, 48, 64
1, 15822, Control_c, 0, 64, 0
1, 15822, Note_on_c, 0, 75, 80
1, 15836, Note_off_c, 0, 77, 64
1, 15933, Note_on_c, 0, 74, 85
1, 15940, Note_off_c, 0, 75, 64
1, 16037, Note_off_c, 0, 74, 64
1, 16040, Note_on_c, 0, 83, 103
1, 16140, Note_on_c, 0, 80, 77
1, 16157, Note_on_c, 0, 62, 79
1, 16170, Note_off_c, 0, 83, 64
1, 16245, Note_on_c, 0, 77, 78
1, 16248, Note_on_c, 0, 64, 91
1, 16260, Note_off_c, 0, 62, 64
1, 16270, Note_off_c, 0, 80, 64
1, 16329, Note_off_c, 0, 64, 64
1, 16344, Note_on_c, 0, 65, 97
1, 16354, Note_on_c, 0, 74, 80
1, 16369, Note_off_c, 0, 77, 64
1, 16432, Note_off_c, 0, 65, 64
1, 16460, Note_on_c, 0, 83, 97
1, 16463, Note_off_c, 0, 74, 64
1, 16566, Note_on_c, 0, 80, 79
1, 16572, Note_on_c, 0, 62, 89
1, 16591, Note_off_c, 0, 83, 64
1, 16655, Note_off_c, 0, 62, 64
1, 16670, Note_on_c, 0, 64, 91
1, 16670, Note_on_c, 0, 77, 81
1, 16689, Note_off_c, 0, 80, 64
1, 16745, Note_off_c, 0, 64, 64
1, 16770, Note_on_c, 0, 65, 103
1, 16780, Note_on_c, 0, 74, 88
1, 16797, Note_off_c, 0, 77, 64
1, 16828, Note_off_c, 0, 65, 64
1, 16886, Note_off_c, 0, 74, 64
1, 16894, Note_on_c, 0, 83, 103
1, 16995, Note_on_c, 0, 62, 98
1, 17001, Note_on_c, 0, 80, 74
1, 17023, Note_off_c, 0, 62, 64
1, 17023, Note_off_c, 0, 83, 64
1, 17093, Note_on_c, 0, 77, 73
1, 17118, Note_off_c, 0, 80, 64
1, 17201, Note_off_c, 0, 77, 64
1, 17201, Note_on_c, 0, 55, 97
1, 17204, Note_on_c, 0, 74, 80
1, 17270, Note_off_c, 0, 55, 64
1, 17301, Note_off_c, 0, 74, 64
1, 17316, Note_on_c, 0, 83, 100
1, 17422, Note_on_c, 0, 80, 79
1, 17425, Note_on_c, 0, 59, 84
1, 17446, Note_off_c, 0, 83, 64
1, 17450, Note_off_c, 0, 59, 64
1, 17521, Note_on_c, 0, 77, 79
1, 17530, Note_off_c, 0, 80, 64
1, 17621, Note_off_c, 0, 77, 64
1, 17630, Note_on_c, 0, 60, 101
1, 17636, Note_on_c, 0, 76, 72
1, 17723, Note_off_c, 0, 76, 64
1, 17734, Note_on_c, 0, 84, 81
1, 17745, Note_off_c, 0, 60, 64
1, 17775, Control_c, 0, 64, 127
1, 17823, Control_c, 0, 64, 0
1, 17848, Note_on_c, 0, 79, 82
1, 17848, Note_on_c, 0, 48, 79
1, 17855, Note_off_c, 0, 84, 64
1, 17934, Note_on_c, 0, 50, 80
1, 17939, Note_off_c, 0, 48, 64
1, 17939, Note_off_c, 0, 79, 64
1, 17948, Note_on_c, 0, 76, 73
1, 18020, Note_off_c, 0, 50, 64
1, 18043, Note_on_c, 0, 72, 81
1, 18054, Note_on_c, 0, 52, 110
1, 18059, Note_off_c, 0, 76, 64
1, 18117, Note_off_c, 0, 52, 64
1, 18129, Note_off_c, 0, 72, 64
1, 18143, Note_on_c, 0, 76, 63
1, 18265, Note_off_c, 0, 76, 64
1, 18265, Note_on_c, 0, 55, 98
1, 18265, Note_on_c, 0, 74, 82
1, 18304, Note_off_c, 0, 55, 64
1, 18363, Note_on_c, 0, 77, 78
1, 18371, Note_off_c, 0, 74, 64
1, 18471, Note_off_c, 0, 77, 64
1, 18471, Note_on_c, 0, 76, 81
1, 18480, Note_on_c, 0, 60, 91
1, 18560, Note_off_c, 0, 60, 64
1, 18572, Note_on_c, 0, 79, 89
1, 18592, Note_off_c, 0, 76, 64
1, 18686, Note_on_c, 0, 76, 63
1, 18686, Note_off_c, 0, 79, 64
1, 18694, Note_on_c, 0, 48, 73
1, 18780, Note_on_c, 0, 50, 95
1, 18786, Note_off_c, 0, 76, 64
1, 18790, Note_on_c, 0, 72, 61
1, 18806, Note_off_c, 0, 48, 64
1, 18883, Note_off_c, 0, 72, 64
1, 18883, Note_off_c, 0, 50, 64
1, 18886, Note_on_c, 0, 67, 70
1, 18890, Note_on_c, 0, 52, 102
1, 18935, Note_off_c, 0, 52, 64
1, 18993, Note_off_c, 0, 67, 64
1, 19000, Note_on_c, 0, 70, 52
1, 19107, Note_on_c, 0, 53, 105
1, 19113, Note_on_c, 0, 69, 59
1, 19113, Note_off_c, 0, 70, 64
1, 19142, Note_off_c, 0, 53, 64
1, 19185, Note_off_c, 0, 69, 64
1, 19207, Note_on_c, 0, 72, 71
1, 19315, Note_on_c, 0, 70, 73
1, 19329, Note_off_c, 0, 72, 64
1, 19329, Note_on_c, 0, 55, 89
1, 19404, Note_off_c, 0, 55, 64
1, 19421, Note_on_c, 0, 74, 76
1, 19435, Note_off_c, 0, 70, 64
1, 19524, Note_on_c, 0, 70, 43
1, 19530, Note_on_c, 0, 48, 67
1, 19530, Note_off_c, 0, 74, 64
1, 19620, Note_on_c, 0, 67, 62
1, 19623, Note_off_c, 0, 48, 64
1, 19626, Note_off_c, 0, 70, 64
1, 19626, Note_on_c, 0, 52, 92
1, 19678, Note_off_c, 0, 52, 64
1, 19727, Note_off_c, 0, 67, 64
1, 19733, Note_on_c, 0, 64, 68
1, 19733, Note_on_c, 0, 55, 92
1, 19814, Note_off_c, 0, 55, 64
1, 19840, Note_on_c, 0, 67, 73
1, 19848, Note_off_c, 0, 64, 64
1, 19923, Note_off_c, 0, 67, 64
1, 19953, Note_on_c, 0, 65, 63
1, 19953, Note_on_c, 0, 57, 81
1, 19993, Note_off_c, 0, 57, 64
1, 20038, Note_off_c, 0, 65, 64
1, 20043, Note_on_c, 0, 69, 58
1, 20157, Note_on_c, 0, 67, 74
1, 20163, Note_on_c, 0, 58, 83
1, 20188, Note_off_c, 0, 69, 64
1, 20248, Note_off_c, 0, 58, 64
1, 20269, Note_on_c, 0, 70, 57
1, 20277, Note_off_c, 0, 67, 64
1, 20375, Note_on_c, 0, 67, 54
1, 20378, Note_on_c, 0, 48, 69
1, 20383, Note_off_c, 0, 70, 64
1, 20460, Note_on_c, 0, 50, 81
1, 20472, Note_on_c, 0, 64, 63
1, 20478, Note_off_c, 0, 67, 64
1, 20485, Note_off_c, 0, 48, 64
1, 20561, Note_off_c, 0, 50, 64
1, 20574, Note_on_c, 0, 60, 63
1, 20577, Note_off_c, 0, 64, 64
1, 20580, Note_on_c, 0, 52, 88
1, 20606, Note_off_c, 0, 52, 64
1, 20653, Note_off_c, 0, 60, 64
1, 20669, Note_on_c, 0, 70, 58
1, 20786, Note_on_c, 0, 69, 54
1, 20794, Note_on_c, 0, 48, 68
1, 20798, Note_off_c, 0, 70, 64
1, 20826, Note_off_c, 0, 48, 64
1, 20895, Note_on_c, 0, 67, 66
1, 20898, Note_off_c, 0, 69, 64
1, 21015, Note_off_c, 0, 67, 64
1, 21015, Note_on_c, 0, 53, 96
1, 21015, Note_on_c, 0, 69, 58
1, 21101, Note_off_c, 0, 53, 64
1, 21112, Note_on_c, 0, 65, 59
1, 21118, Note_on_c, 0, 57, 61
1, 21123, Note_off_c, 0, 69, 64
1, 21184, Note_off_c, 0, 57, 64
1, 21216, Note_on_c, 0, 67, 63
1, 21226, Note_on_c, 0, 55, 53
1, 21230, Note_off_c, 0, 65, 64
1, 21308, Note_off_c, 0, 55, 64
1, 21319, Note_off_c, 0, 67, 64
1, 21322, Note_on_c, 0, 69, 59
1, 21325, Note_on_c, 0, 53, 80
1, 21374, Note_off_c, 0, 53, 64
1, 21418, Note_on_c, 0, 70, 65
1, 21418, Note_off_c, 0, 69, 64
1, 21432, Note_on_c, 0, 52, 71
1, 21478, Note_off_c, 0, 52, 64
1, 21510, Note_off_c, 0, 70, 64
1, 21517, Note_on_c, 0, 72, 76
1, 21531, Note_on_c, 0, 50, 66
1, 21608, Note_on_c, 0, 74, 88
1, 21617, Note_on_c, 0, 48, 65
1, 21620, Note_off_c, 0, 50, 64
1, 21623, Note_off_c, 0, 72, 64
1, 21712, Note_on_c, 0, 46, 67
1, 21715, Note_on_c, 0, 76, 85
1, 21723, Note_off_c, 0, 48, 64
1, 21733, Note_off_c, 0, 74, 64
1, 21811, Note_on_c, 0, 77, 92
1, 21815, Note_on_c, 0, 45, 79
1, 21820, Note_off_c, 0, 76, 64
1, 21834, Note_off_c, 0, 46, 64
1, 21910, Note_on_c, 0, 76, 80
1, 21913, Note_on_c, 0, 48, 74
1, 21940, Note_off_c, 0, 77, 64
1, 21950, Note_off_c, 0, 45, 64
1, 22018, Note_on_c, 0, 74, 92
1, 22018, Note_on_c, 0, 50, 91
1, 22032, Note_off_c, 0, 76, 64
1, 22035, Note_off_c, 0, 48, 64
1, 22099, Note_off_c, 0, 74, 64
1, 22105, Note_on_c, 0, 72, 82
1, 22108, Note_off_c, 0, 50, 64
1, 22115, Note_on_c, 0, 52, 91
1, 22188, Note_off_c, 0, 52, 64
1, 22204, Note_off_c, 0, 72, 64
1, 22213, Note_on_c, 0, 84, 103
1, 22218, Note_on_c, 0, 53, 99
1, 22294, Note_off_c, 0, 84, 64
1, 22325, Note_on_c, 0, 55, 92
1, 22330, Note_off_c, 0, 53, 64
1, 22402, Note_off_c, 0, 55, 64
1, 22413, Note_on_c, 0, 77, 92
1, 22413, Note_on_c, 0, 69, 79
1, 22419, Note_on_c, 0, 72, 73
1, 22419, Note_on_c, 0, 57, 76
1, 22447, Note_off_c, 0, 69, 64
1, 22452, Note_off_c, 0, 72, 64
1, 22475, Note_off_c, 0, 77, 64
1, 22505, Note_off_c, 0, 57, 64
1, 22530, Note_on_c, 0, 58, 74
1, 22625, Note_off_c, 0, 58, 64
1, 22648, Note_on_c, 0, 77, 100
1, 22648, Note_on_c, 0, 69, 74
1, 22651, Note_on_c, 0, 72, 81
1, 22658, Note_on_c, 0, 60, 90
1, 22926, Note_off_c, 0, 72, 64
1, 23001, Note_off_c, 0, 69, 64
1, 23012, Control_c, 0, 64, 127
1, 23118, Note_on_c, 0, 67, 87
1, 23118, Note_off_c, 0, 60, 64
1, 23121, Note_on_c, 0, 76, 89
1, 23121, Note_on_c, 0, 72, 83
1, 23124, Note_on_c, 0, 48, 85
1, 23174, Note_off_c, 0, 77, 64
1, 23240, Control_c, 0, 64, 0
1, 23527, Control_c, 0, 64, 127
1, 23533, Note_off_c, 0, 67, 64
1, 23605, Note_on_c, 0, 65, 91
1, 23605, Note_on_c, 0, 50, 95
1, 23623, Control_c, 0, 64, 0
1, 23633, Note_off_c, 0, 48, 64
1, 23694, Note_off_c, 0, 72, 64
1, 23739, Note_on_c, 0, 77, 87
1, 23781, Note_off_c, 0, 76, 64
1, 23878, Note_on_c, 0, 71, 97
1, 24162, Control_c, 0, 64, 127
1, 24288, Note_off_c, 0, 65, 64
1, 24302, Note_off_c, 0, 77, 64
1, 24307, Note_off_c, 0, 50, 64
1, 24343, Control_c, 0, 64, 0
1, 24464, Note_on_c, 0, 74, 91
1, 24505, Note_off_c, 0, 71, 64
1, 24605, Note_on_c, 0, 72, 89
1, 24612, Note_on_c, 0, 52, 100
1, 24659, Note_off_c, 0, 74, 64
1, 24712, Note_on_c, 0, 70, 79
1, 24745, Note_off_c, 0, 72, 64
1, 24832, Note_off_c, 0, 52, 64
1, 24835, Note_on_c, 0, 69, 80
1, 24835, Note_on_c, 0, 53, 110
1, 24857, Note_off_c, 0, 70, 64
1, 24937, Note_on_c, 0, 72, 90
1, 24973, Note_off_c, 0, 69, 64
1, 25032, Note_off_c, 0, 53, 64
1, 25066, Note_on_c, 0, 77, 88
1, 25073, Note_on_c, 0, 45, 87
1, 25099, Note_off_c, 0, 72, 64
1, 25180, Note_on_c, 0, 69, 83
1, 25263, Note_off_c, 0, 69, 64
1, 25274, Note_off_c, 0, 45, 64
1, 25303, Note_on_c, 0, 67, 89
1, 25314, Note_on_c, 0, 46, 90
1, 25383, Note_off_c, 0, 46, 64
1, 25441, Note_off_c, 0, 77, 64
1, 25533, Note_off_c, 0, 67, 64
1, 25547, Note_on_c, 0, 70, 67
1, 25547, Note_on_c, 0, 76, 79
1, 25552, Note_on_c, 0, 72, 73
1, 25552, Note_on_c, 0, 48, 85
1, 25636, Note_off_c, 0, 48, 64
1, 25654, Note_off_c, 0, 72, 64
1, 25681, Note_off_c, 0, 76, 64
1, 25689, Note_off_c, 0, 70, 64
1, 25800, Note_on_c, 0, 77, 92
1, 25809, Note_on_c, 0, 69, 56
1, 25809, Note_on_c, 0, 72, 71
1, 25809, Note_on_c, 0, 41, 88
1, 25809, Note_on_c, 0, 65, 56
1, 25839, Note_off_c, 0, 41, 64
1, 25862, Note_off_c, 0, 65, 64
1, 25901, Control_c, 0, 64, 127
1, 25921, Note_off_c, 0, 69, 64
1, 25974, Note_off_c, 0, 72, 64
1, 26074, Note_on_c, 0, 69, 24
1, 26090, Note_on_c, 0, 65, 31
1, 26143, Note_off_c, 0, 65, 64
1, 26177, Note_off_c, 0, 69, 64
1, 26229, Note_off_c, 0, 77, 64
1, 26247, Control_c, 0, 64, 0
1, 26324, Note_on_c, 0, 69, 36
1, 26339, Note_on_c, 0, 65, 27
1, 26394, Note_off_c, 0, 65, 64
1, 26413, Note_off_c, 0, 69, 64
1, 26555, Note_on_c, 0, 72, 53
1, 26573, Note_on_c, 0, 69, 27
1, 26587, Note_on_c, 0, 65, 18
1, 26658, Note_off_c, 0, 65, 64
1, 26667, Note_off_c, 0, 69, 64
1, 26748, Note_off_c, 0, 72, 64
1, 26809, Note_on_c, 0, 74, 63
1, 26814, Note_on_c, 0, 70, 34
1, 26834, Note_on_c, 0, 65, 28
1, 26887, Note_off_c, 0, 65, 64
1, 26907, Note_off_c, 0, 70, 64
1, 26926, Note_on_c, 0, 72, 53
1, 26926, Note_off_c, 0, 74, 64
1, 27046, Note_off_c, 0, 72, 64
1, 27054, Note_on_c, 0, 70, 35
1, 27071, Note_on_c, 0, 65, 26
1, 27071, Note_on_c, 0, 74, 42
1, 27119, Note_off_c, 0, 70, 64
1, 27119, Note_off_c, 0, 65, 64
1, 27300, Note_on_c, 0, 70, 20
1, 27322, Note_on_c, 0, 65, 17
1, 27372, Note_off_c, 0, 70, 64
1, 27378, Note_off_c, 0, 65, 64
1, 27403, Note_on_c, 0, 77, 46
1, 27406, Note_off_c, 0, 74, 64
1, 27528, Note_on_c, 0, 70, 24
1, 27534, Note_on_c, 0, 75, 50
1, 27539, Note_off_c, 0, 77, 64
1, 27556, Note_on_c, 0, 65, 17
1, 27606, Note_off_c, 0, 70, 64
1, 27606, Note_off_c, 0, 65, 64
1, 27645, Note_off_c, 0, 75, 64
1, 27654, Note_on_c, 0, 74, 52
1, 27760, Note_off_c, 0, 74, 64
1, 27767, Note_on_c, 0, 70, 29
1, 27778, Note_on_c, 0, 65, 23
1, 27778, Note_on_c, 0, 72, 47
1, 27835, Note_off_c, 0, 70, 64
1, 27835, Note_off_c, 0, 65, 64
1, 27846, Note_off_c, 0, 72, 64
1, 27885, Note_on_c, 0, 76, 41
1, 27987, Note_off_c, 0, 76, 64
1, 28010, Note_on_c, 0, 70, 36
1, 28019, Note_on_c, 0, 77, 46
1, 28034, Note_on_c, 0, 65, 25
1, 28074, Note_off_c, 0, 70, 64
1, 28091, Note_off_c, 0, 65, 64
1, 28247, Note_on_c, 0, 69, 31
1, 28261, Note_on_c, 0, 65, 20
1, 28316, Note_off_c, 0, 65, 64
1, 28324, Note_off_c, 0, 69, 64
1, 28360, Note_on_c, 0, 76, 45
1, 28394, Note_off_c, 0, 77, 64
1, 28473, Note_on_c, 0, 74, 64
1, 28481, Note_off_c, 0, 76, 64
1, 28486, Note_on_c, 0, 69, 24
1, 28492, Note_on_c, 0, 65, 35
1, 28540, Note_off_c, 0, 65, 64
1, 28540, Note_off_c, 0, 69, 64
1, 28573, Note_off_c, 0, 74, 64
1, 28578, Note_on_c, 0, 72, 65
1, 28679, Note_on_c, 0, 70, 60
1, 28682, Note_off_c, 0, 72, 64
1, 28696, Note_on_c, 0, 67, 42
1, 28709, Note_on_c, 0, 65, 15
1, 28746, Note_off_c, 0, 67, 64
1, 28765, Note_off_c, 0, 65, 64
1, 28784, Note_on_c, 0, 69, 62
1, 28790, Note_off_c, 0, 70, 64
1, 28898, Note_on_c, 0, 70, 67
1, 28904, Note_off_c, 0, 69, 64
1, 28909, Note_on_c, 0, 67, 51
1, 28920, Note_on_c, 0, 65, 29
1, 28960, Note_off_c, 0, 67, 64
1, 28971, Note_off_c, 0, 65, 64
1, 28999, Note_off_c, 0, 70, 64
1, 29023, Note_on_c, 0, 74, 71
1, 29108, Note_off_c, 0, 74, 64
1, 29143, Note_on_c, 0, 67, 45
1, 29152, Note_on_c, 0, 79, 68
1, 29161, Note_on_c, 0, 64, 30
1, 29191, Note_off_c, 0, 67, 64
1, 29207, Note_off_c, 0, 64, 64
1, 29257, Note_off_c, 0, 79, 64
1, 29355, Note_on_c, 0, 70, 56
1, 29367, Note_on_c, 0, 67, 47
1, 29374, Note_on_c, 0, 64, 44
1, 29411, Note_off_c, 0, 67, 64
1, 29411, Note_off_c, 0, 64, 64
1, 29420, Note_off_c, 0, 70, 64
1, 29506, Note_on_c, 0, 72, 57
1, 29544, Note_off_c, 0, 72, 64
1, 29553, Note_on_c, 0, 70, 55
1, 29581, Note_on_c, 0, 65, 48
1, 29595, Note_off_c, 0, 70, 64
1, 29603, Note_on_c, 0, 72, 44
1, 29603, Note_on_c, 0, 67, 37
1, 29640, Note_on_c, 0, 70, 54
1, 29648, Note_off_c, 0, 72, 64
1, 29654, Note_off_c, 0, 65, 64
1, 29684, Note_off_c, 0, 70, 64
1, 29707, Note_off_c, 0, 67, 64
1, 29718, Note_on_c, 0, 72, 50
1, 29735, Note_on_c, 0, 70, 59
1, 29757, Note_off_c, 0, 72, 64
1, 29796, Note_on_c, 0, 53, 73
1, 29809, Note_on_c, 0, 65, 27
1, 29817, Note_on_c, 0, 69, 25
1, 29826, Note_off_c, 0, 70, 64
1, 29893, Note_off_c, 0, 53, 64
1, 29901, Note_on_c, 0, 55, 53
1, 29968, Note_off_c, 0, 55, 64
1, 30007, Note_off_c, 0, 65, 64
1, 30019, Note_on_c, 0, 57, 69
1, 30065, Note_off_c, 0, 57, 64
1, 30136, Note_off_c, 0, 69, 64
1, 30242, Note_on_c, 0, 53, 98
1, 30250, Note_on_c, 0, 69, 42
1, 30260, Note_on_c, 0, 65, 26
1, 30278, Note_off_c, 0, 53, 64
1, 30316, Note_off_c, 0, 65, 64
1, 30412, Note_off_c, 0, 69, 64
1, 30476, Note_on_c, 0, 60, 59
1, 30481, Note_on_c, 0, 67, 51
1, 30489, Note_on_c, 0, 65, 46
1, 30564, Note_off_c, 0, 67, 64
1, 30597, Note_on_c, 0, 70, 44
1, 30597, Note_off_c, 0, 65, 64
1, 30617, Note_off_c, 0, 60, 64
1, 30643, Note_off_c, 0, 70, 64
1, 30710, Note_on_c, 0, 70, 44
1, 30718, Note_on_c, 0, 60, 21
1, 30718, Note_on_c, 0, 64, 33
1, 30795, Note_off_c, 0, 64, 64
1, 30809, Note_off_c, 0, 70, 64
1, 30809, Note_off_c, 0, 60, 64
1, 30815, Note_on_c, 0, 69, 58
1, 30865, Note_off_c, 0, 69, 64
1, 30940, Note_on_c, 0, 69, 42
1, 30944, Note_on_c, 0, 60, 39
1, 30949, Note_on_c, 0, 65, 35
1, 31026, Note_off_c, 0, 60, 64
1, 31035, Note_off_c, 0, 69, 64
1, 31035, Note_off_c, 0, 65, 64
1, 31066, Note_on_c, 0, 77, 55
1, 31099, Note_off_c, 0, 77, 64
1, 31161, Note_on_c, 0, 77, 45
1, 31175, Note_on_c, 0, 69, 32
1, 31182, Note_on_c, 0, 60, 33
1, 31239, Note_off_c, 0, 69, 64
1, 31252, Note_off_c, 0, 60, 64
1, 31269, Note_off_c, 0, 77, 64
1, 31281, Note_on_c, 0, 76, 59
1, 31316, Note_off_c, 0, 76, 64
1, 31395, Note_on_c, 0, 76, 28
1, 31406, Note_on_c, 0, 67, 40
1, 31412, Note_on_c, 0, 60, 28
1, 31465, Note_off_c, 0, 67, 64
1, 31475, Note_off_c, 0, 60, 64
1, 31504, Note_on_c, 0, 74, 70
1, 31511, Note_off_c, 0, 76, 64
1, 31537, Note_off_c, 0, 74, 64
1, 31611, Note_on_c, 0, 74, 47
1, 31621, Note_on_c, 0, 60, 35
1, 31631, Note_on_c, 0, 65, 42
1, 31676, Note_off_c, 0, 65, 64
1, 31696, Note_off_c, 0, 60, 64
1, 31715, Note_off_c, 0, 74, 64
1, 31715, Note_on_c, 0, 72, 61
1, 31753, Note_off_c, 0, 72, 64
1, 31835, Note_on_c, 0, 72, 43
1, 31848, Note_on_c, 0, 60, 36
1, 31854, Note_on_c, 0, 64, 40
1, 31905, Note_off_c, 0, 64, 64
1, 31908, Note_off_c, 0, 60, 64
1, 31938, Note_off_c, 0, 72, 64
1, 31938, Note_on_c, 0, 70, 55
1, 31987, Note_off_c, 0, 70, 64
1, 32063, Note_on_c, 0, 70, 44
1, 32077, Note_on_c, 0, 60, 42
1, 32077, Note_on_c, 0, 65, 30
1, 32135, Note_off_c, 0, 65, 64
1, 32146, Note_off_c, 0, 60, 64
1, 32161, Note_off_c, 0, 70, 64
1, 32180, Note_on_c, 0, 69, 39
1, 32238, Note_off_c, 0, 69, 64
1, 32300, Note_on_c, 0, 67, 61
1, 32304, Note_on_c, 0, 65, 42
1, 32316, Note_on_c, 0, 60, 41
1, 32380, Note_off_c, 0, 67, 64
1, 32380, Note_off_c, 0, 60, 64
1, 32398, Note_off_c, 0, 65, 64
1, 32409, Note_on_c, 0, 70, 50
1, 32497, Note_off_c, 0, 70, 64
1, 32539, Note_on_c, 0, 60, 42
1, 32539, Note_on_c, 0, 64, 41
1, 32542, Note_on_c, 0, 72, 52
1, 32592, Note_off_c, 0, 64, 64
1, 32592, Note_off_c, 0, 72, 64
1, 32598, Note_off_c, 0, 60, 64
1, 32601, Note_on_c, 0, 70, 48
1, 32653, Note_off_c, 0, 70, 64
1, 32673, Note_on_c, 0, 69, 40
1, 32721, Note_off_c, 0, 69, 64
1, 32765, Note_on_c, 0, 65, 31
1, 32765, Note_on_c, 0, 69, 71
1, 32765, Note_on_c, 0, 60, 40
1, 32806, Note_off_c, 0, 69, 64
1, 32821, Note_off_c, 0, 60, 64
1, 32837, Note_off_c, 0, 65, 64
1, 32877, Note_on_c, 0, 77, 70
1, 32913, Note_off_c, 0, 77, 64
1, 32991, Note_on_c, 0, 69, 34
1, 32994, Note_on_c, 0, 79, 75
1, 33004, Note_on_c, 0, 60, 34
1, 33047, Note_off_c, 0, 69, 64
1, 33047, Note_on_c, 0, 77, 62
1, 33058, Note_off_c, 0, 60, 64
1, 33074, Note_off_c, 0, 79, 64
1, 33089, Note_off_c, 0, 77, 64
1, 33107, Note_on_c, 0, 76, 57
1, 33141, Note_off_c, 0, 76, 64
1, 33211, Note_on_c, 0, 77, 75
1, 33214, Note_on_c, 0, 67, 48
1, 33217, Note_on_c, 0, 60, 39
1, 33259, Note_on_c, 0, 76, 65
1, 33269, Note_off_c, 0, 67, 64
1, 33280, Note_off_c, 0, 60, 64
1, 33306, Note_off_c, 0, 77, 64
1, 33320, Note_on_c, 0, 74, 66
1, 33320, Note_off_c, 0, 76, 64
1, 33355, Note_off_c, 0, 74, 64
1, 33431, Note_on_c, 0, 76, 70
1, 33444, Note_on_c, 0, 65, 49
1, 33447, Note_on_c, 0, 60, 47
1, 33476, Note_on_c, 0, 74, 78
1, 33497, Note_off_c, 0, 65, 64
1, 33503, Note_off_c, 0, 60, 64
1, 33525, Note_off_c, 0, 76, 64
1, 33537, Note_on_c, 0, 72, 65
1, 33567, Note_off_c, 0, 74, 64
1, 33576, Note_off_c, 0, 72, 64
1, 33674, Note_on_c, 0, 74, 67
1, 33682, Note_on_c, 0, 60, 45
1, 33685, Note_on_c, 0, 64, 47
1, 33718, Note_on_c, 0, 72, 75
1, 33737, Note_off_c, 0, 74, 64
1, 33737, Note_off_c, 0, 60, 64
1, 33737, Note_off_c, 0, 64, 64
1, 33770, Note_on_c, 0, 70, 66
1, 33770, Note_off_c, 0, 72, 64
1, 33816, Note_off_c, 0, 70, 64
1, 33894, Note_on_c, 0, 72, 63
1, 33897, Note_on_c, 0, 67, 59
1, 33910, Note_on_c, 0, 60, 45
1, 33940, Note_on_c, 0, 70, 70
1, 33944, Note_off_c, 0, 67, 64
1, 33966, Note_off_c, 0, 60, 64
1, 33972, Note_off_c, 0, 72, 64
1, 34002, Note_on_c, 0, 69, 74
1, 34022, Note_off_c, 0, 70, 64
1, 34043, Note_off_c, 0, 69, 64
1, 34138, Note_on_c, 0, 60, 52
1, 34138, Note_on_c, 0, 65, 45
1, 34138, Note_on_c, 0, 70, 70
1, 34205, Note_on_c, 0, 69, 69
1, 34205, Note_off_c, 0, 65, 64
1, 34222, Note_off_c, 0, 60, 64
1, 34231, Note_off_c, 0, 70, 64
1, 34259, Note_off_c, 0, 69, 64
1, 34266, Note_on_c, 0, 67, 70
1, 34400, Note_on_c, 0, 69, 59
1, 34400, Note_on_c, 0, 65, 34
1, 34414, Note_off_c, 0, 67, 64
1, 34414, Note_on_c, 0, 60, 31
1, 34470, Note_off_c, 0, 65, 64
1, 34475, Note_off_c, 0, 60, 64
1, 34654, Note_on_c, 0, 60, 35
1, 34663, Note_on_c, 0, 65, 25
1, 34724, Note_off_c, 0, 60, 64
1, 34724, Note_off_c, 0, 65, 64
1, 34762, Note_on_c, 0, 72, 57
1, 34766, Note_off_c, 0, 69, 64
1, 34877, Note_on_c, 0, 70, 62
1, 34890, Note_off_c, 0, 72, 64
1, 34899, Note_on_c, 0, 65, 27
1, 34904, Note_on_c, 0, 60, 29
1, 34954, Note_off_c, 0, 65, 64
1, 34960, Note_off_c, 0, 60, 64
1, 34991, Note_on_c, 0, 69, 62
1, 34997, Note_off_c, 0, 70, 64
1, 35113, Note_on_c, 0, 67, 68
1, 35121, Note_on_c, 0, 65, 43
1, 35121, Note_off_c, 0, 69, 64
1, 35139, Note_on_c, 0, 60, 27
1, 35171, Note_off_c, 0, 65, 64
1, 35199, Note_off_c, 0, 60, 64
1, 35234, Note_on_c, 0, 71, 73
1, 35242, Note_off_c, 0, 67, 64
1, 35369, Note_on_c, 0, 72, 54
1, 35369, Note_off_c, 0, 71, 64
1, 35373, Note_on_c, 0, 65, 31
1, 35386, Note_on_c, 0, 60, 25
1, 35422, Note_off_c, 0, 65, 64
1, 35443, Note_off_c, 0, 60, 64
1, 35601, Note_on_c, 0, 60, 22
1, 35609, Note_on_c, 0, 64, 31
1, 35665, Note_off_c, 0, 64, 64
1, 35673, Note_off_c, 0, 60, 64
1, 35724, Note_on_c, 0, 71, 45
1, 35743, Note_off_c, 0, 72, 64
1, 35827, Note_on_c, 0, 69, 44
1, 35827, Note_off_c, 0, 71, 64
1, 35848, Note_on_c, 0, 64, 34
1, 35848, Note_on_c, 0, 60, 31
1, 35896, Note_off_c, 0, 64, 64
1, 35905, Note_off_c, 0, 60, 64
1, 35946, Note_on_c, 0, 67, 53
1, 35955, Note_off_c, 0, 69, 64
1, 36060, Note_on_c, 0, 60, 32
1, 36060, Note_off_c, 0, 67, 64
1, 36060, Note_on_c, 0, 62, 41
1, 36067, Note_on_c, 0, 65, 47
1, 36110, Note_off_c, 0, 62, 64
1, 36117, Note_off_c, 0, 60, 64
1, 36174, Note_off_c, 0, 65, 64
1, 36174, Note_on_c, 0, 64, 60
1, 36270, Note_off_c, 0, 64, 64
1, 36280, Note_on_c, 0, 62, 42
1, 36289, Note_on_c, 0, 60, 31
1, 36294, Note_on_c, 0, 65, 55
1, 36328, Note_off_c, 0, 62, 64
1, 36344, Note_off_c, 0, 60, 64
1, 36389, Note_on_c, 0, 69, 44
1, 36400, Note_off_c, 0, 65, 64
1, 36478, Note_off_c, 0, 69, 64
1, 36514, Note_on_c, 0, 62, 41
1, 36514, Note_on_c, 0, 74, 49
1, 36531, Note_on_c, 0, 59, 23
1, 36562, Note_off_c, 0, 62, 64
1, 36571, Note_off_c, 0, 74, 64
1, 36581, Note_off_c, 0, 59, 64
1, 36735, Note_on_c, 0, 65, 45
1, 36740, Note_on_c, 0, 59, 31
1, 36746, Note_on_c, 0, 62, 40
1, 36779, Note_off_c, 0, 65, 64
1, 36787, Note_off_c, 0, 59, 64
1, 36787, Note_off_c, 0, 62, 64
1, 36901, Note_on_c, 0, 67, 44
1, 36941, Note_on_c, 0, 65, 56
1, 36947, Note_off_c, 0, 67, 64
1, 36958, Note_on_c, 0, 60, 53
1, 36971, Note_on_c, 0, 62, 36
1, 36977, Note_off_c, 0, 65, 64
1, 36997, Note_on_c, 0, 67, 60
1, 37013, Note_off_c, 0, 60, 64
1, 37035, Note_on_c, 0, 65, 44
1, 37047, Note_off_c, 0, 67, 64
1, 37080, Note_off_c, 0, 65, 64
1, 37086, Note_off_c, 0, 62, 64
1, 37097, Note_on_c, 0, 67, 50
1, 37135, Note_on_c, 0, 65, 59
1, 37142, Note_off_c, 0, 67, 64
1, 37181, Note_off_c, 0, 65, 64
1, 37181, Note_on_c, 0, 48, 54
1, 37198, Note_on_c, 0, 64, 45
1, 37222, Note_on_c, 0, 60, 7
1, 37275, Note_off_c, 0, 48, 64
1, 37284, Note_on_c, 0, 50, 68
1, 37342, Note_off_c, 0, 60, 64
1, 37356, Note_off_c, 0, 64, 64
1, 37372, Note_off_c, 0, 50, 64
1, 37408, Note_on_c, 0, 52, 92
1, 37492, Note_off_c, 0, 52, 64
1, 37521, Note_on_c, 0, 72, 68
1, 37581, Note_off_c, 0, 72, 64
1, 37631, Note_on_c, 0, 74, 65
1, 37635, Note_on_c, 0, 48, 81
1, 37668, Note_off_c, 0, 48, 64
1, 37741, Note_off_c, 0, 74, 64
1, 37751, Note_on_c, 0, 76, 57
1, 37852, Note_off_c, 0, 76, 64
1, 37857, Note_on_c, 0, 69, 51
1, 37865, Note_on_c, 0, 53, 103
1, 37964, Note_off_c, 0, 69, 64
1, 37968, Note_on_c, 0, 64, 61
1, 37982, Note_on_c, 0, 55, 70
1, 38056, Note_off_c, 0, 55, 64
1, 38063, Note_off_c, 0, 64, 64
1, 38069, Note_on_c, 0, 65, 71
1, 38077, Note_on_c, 0, 57, 64
1, 38136, Note_off_c, 0, 65, 64
1, 38178, Note_off_c, 0, 57, 64
1, 38178, Note_on_c, 0, 69, 62
1, 38183, Note_on_c, 0, 60, 77
1, 38205, Note_off_c, 0, 53, 64
1, 38273, Note_off_c, 0, 60, 64
1, 38292, Note_on_c, 0, 74, 83
1, 38297, Note_off_c, 0, 69, 64
1, 38297, Note_on_c, 0, 65, 86
1, 38336, Note_off_c, 0, 74, 64
1, 38361, Note_off_c, 0, 65, 64
1, 38398, Note_on_c, 0, 74, 92
1, 38495, Note_off_c, 0, 74, 64
1, 38512, Note_on_c, 0, 50, 84
1, 38515, Note_on_c, 0, 76, 72
1, 38551, Note_off_c, 0, 50, 64
1, 38617, Note_on_c, 0, 77, 78
1, 38638, Note_off_c, 0, 76, 64
1, 38652, Note_off_c, 0, 77, 64
1, 38721, Note_on_c, 0, 55, 92
1, 38746, Note_on_c, 0, 69, 42
1, 38746, Note_on_c, 0, 71, 51
1, 38793, Note_off_c, 0, 71, 64
1, 38793, Note_off_c, 0, 69, 64
1, 38830, Note_on_c, 0, 66, 73
1, 38836, Note_on_c, 0, 57, 70
1, 38924, Note_off_c, 0, 66, 64
1, 38939, Note_off_c, 0, 57, 64
1, 38939, Note_on_c, 0, 67, 83
1, 38939, Note_on_c, 0, 59, 76
1, 39036, Note_off_c, 0, 67, 64
1, 39036, Note_on_c, 0, 71, 90
1, 39046, Note_off_c, 0, 59, 64
1, 39046, Note_on_c, 0, 62, 78
1, 39086, Note_off_c, 0, 55, 64
1, 39134, Note_off_c, 0, 62, 64
1, 39149, Note_off_c, 0, 71, 64
1, 39153, Note_on_c, 0, 76, 81
1, 39158, Note_on_c, 0, 67, 85
1, 39209, Note_off_c, 0, 67, 64
1, 39223, Note_off_c, 0, 76, 64
1, 39258, Note_on_c, 0, 76, 75
1, 39351, Note_off_c, 0, 76, 64
1, 39359, Note_on_c, 0, 52, 89
1, 39359, Note_on_c, 0, 77, 75
1, 39398, Note_off_c, 0, 52, 64
1, 39457, Note_on_c, 0, 79, 88
1, 39476, Note_off_c, 0, 77, 64
1, 39498, Note_off_c, 0, 79, 64
1, 39568, Note_on_c, 0, 72, 88
1, 39568, Note_on_c, 0, 57, 84
1, 39666, Note_on_c, 0, 68, 82
1, 39669, Note_off_c, 0, 72, 64
1, 39674, Note_on_c, 0, 59, 74
1, 39769, Note_off_c, 0, 68, 64
1, 39774, Note_on_c, 0, 69, 72
1, 39779, Note_off_c, 0, 57, 64
1, 39782, Note_on_c, 0, 60, 71
1, 39805, Note_off_c, 0, 59, 64
1, 39872, Note_on_c, 0, 72, 88
1, 39882, Note_on_c, 0, 64, 80
1, 39882, Note_off_c, 0, 69, 64
1, 39882, Note_off_c, 0, 60, 64
1, 39952, Note_off_c, 0, 72, 64
1, 39952, Note_off_c, 0, 64, 64
1, 39988, Note_on_c, 0, 78, 92
1, 39988, Note_on_c, 0, 69, 68
1, 40030, Note_off_c, 0, 69, 64
1, 40038, Note_off_c, 0, 78, 64
1, 40094, Note_on_c, 0, 78, 85
1, 40202, Note_on_c, 0, 79, 90
1, 40202, Note_on_c, 0, 57, 53
1, 40202, Note_on_c, 0, 60, 64
1, 40212, Note_off_c, 0, 78, 64
1, 40240, Note_off_c, 0, 60, 64
1, 40253, Note_off_c, 0, 57, 64
1, 40286, Note_on_c, 0, 81, 87
1, 40317, Note_off_c, 0, 79, 64
1, 40334, Note_off_c, 0, 81, 64
1, 40409, Note_on_c, 0, 79, 78
1, 40409, Note_on_c, 0, 62, 74
1, 40412, Note_on_c, 0, 59, 60
1, 40442, Note_off_c, 0, 79, 64
1, 40442, Note_on_c, 0, 81, 83
1, 40446, Note_off_c, 0, 62, 64
1, 40446, Note_off_c, 0, 59, 64
1, 40501, Note_on_c, 0, 79, 73
1, 40521, Note_off_c, 0, 81, 64
1, 40571, Note_on_c, 0, 78, 74
1, 40584, Note_off_c, 0, 79, 64
1, 40630, Note_on_c, 0, 79, 92
1, 40649, Note_on_c, 0, 55, 48
1, 40657, Note_on_c, 0, 59, 34
1, 40663, Note_off_c, 0, 78, 64
1, 40696, Note_off_c, 0, 55, 64
1, 40701, Note_off_c, 0, 59, 64
1, 40880, Note_on_c, 0, 62, 57
1, 40886, Note_on_c, 0, 59, 45
1, 40946, Note_off_c, 0, 62, 64
1, 40946, Note_off_c, 0, 59, 64
1, 40985, Note_off_c, 0, 79, 64
1, 40985, Note_on_c, 0, 67, 70
1, 41103, Note_on_c, 0, 65, 53
1, 41111, Note_off_c, 0, 67, 64
1, 41111, Note_on_c, 0, 62, 51
1, 41111, Note_on_c, 0, 71, 86
1, 41145, Note_off_c, 0, 65, 64
1, 41150, Note_off_c, 0, 62, 64
1, 41214, Note_off_c, 0, 71, 64
1, 41220, Note_on_c, 0, 74, 83
1, 41336, Note_on_c, 0, 62, 49
1, 41336, Note_off_c, 0, 74, 64
1, 41340, Note_on_c, 0, 77, 74
1, 41345, Note_on_c, 0, 59, 43
1, 41384, Note_off_c, 0, 62, 64
1, 41387, Note_off_c, 0, 59, 64
1, 41446, Note_on_c, 0, 76, 62
1, 41454, Note_off_c, 0, 77, 64
1, 41540, Note_off_c, 0, 76, 64
1, 41581, Note_on_c, 0, 55, 49
1, 41581, Note_on_c, 0, 77, 59
1, 41598, Note_on_c, 0, 59, 25
1, 41630, Note_off_c, 0, 55, 64
1, 41648, Note_off_c, 0, 59, 64
1, 41797, Note_on_c, 0, 62, 50
1, 41819, Note_on_c, 0, 59, 29
1, 41849, Note_off_c, 0, 62, 64
1, 41869, Note_off_c, 0, 59, 64
1, 41910, Note_on_c, 0, 67, 53
1, 41932, Note_off_c, 0, 77, 64
1, 42024, Note_off_c, 0, 67, 64
1, 42024, Note_on_c, 0, 71, 61
1, 42024, Note_on_c, 0, 65, 48
1, 42033, Note_on_c, 0, 62, 50
1, 42066, Note_off_c, 0, 65, 64
1, 42070, Note_off_c, 0, 62, 64
1, 42080, Note_off_c, 0, 71, 64
1, 42141, Note_on_c, 0, 74, 51
1, 42203, Note_off_c, 0, 74, 64
1, 42242, Note_on_c, 0, 67, 55
1, 42253, Note_on_c, 0, 60, 49
1, 42258, Note_on_c, 0, 76, 44
1, 42301, Note_off_c, 0, 67, 64
1, 42317, Note_off_c, 0, 60, 64
1, 42327, Note_off_c, 0, 76, 64
1, 42362, Note_on_c, 0, 74, 56
1, 42362, Note_on_c, 0, 65, 44
1, 42410, Note_off_c, 0, 74, 64
1, 42442, Note_off_c, 0, 65, 64
1, 42470, Note_on_c, 0, 64, 59
1, 42479, Note_on_c, 0, 76, 41
1, 42523, Note_off_c, 0, 64, 64
1, 42593, Note_on_c, 0, 62, 46
1, 42640, Note_off_c, 0, 62, 64
1, 42679, Note_on_c, 0, 60, 52
1, 42758, Note_off_c, 0, 60, 64
1, 42776, Note_on_c, 0, 67, 54
1, 42790, Note_off_c, 0, 76, 64
1, 42800, Note_on_c, 0, 59, 50
1, 42830, Note_off_c, 0, 67, 64
1, 42861, Note_off_c, 0, 59, 64
1, 42889, Note_on_c, 0, 72, 55
1, 42905, Note_on_c, 0, 57, 47
1, 42946, Note_off_c, 0, 57, 64
1, 42980, Note_on_c, 0, 55, 67
1, 43000, Note_off_c, 0, 72, 64
1, 43000, Note_on_c, 0, 74, 61
1, 43061, Note_off_c, 0, 74, 64
1, 43072, Note_off_c, 0, 55, 64
1, 43102, Note_on_c, 0, 54, 73
1, 43105, Note_on_c, 0, 75, 71
1, 43219, Note_on_c, 0, 51, 69
1, 43222, Note_off_c, 0, 54, 64
1, 43222, Note_on_c, 0, 72, 63
1, 43242, Note_off_c, 0, 75, 64
1, 43320, Note_off_c, 0, 51, 64
1, 43331, Note_on_c, 0, 71, 70
1, 43331, Note_on_c, 0, 50, 79
1, 43345, Note_off_c, 0, 72, 64
1, 43438, Note_off_c, 0, 50, 64
1, 43438, Note_on_c, 0, 72, 60
1, 43445, Note_on_c, 0, 48, 66
1, 43453, Note_off_c, 0, 71, 64
1, 43524, Note_off_c, 0, 72, 64
1, 43524, Note_off_c, 0, 48, 64
1, 43540, Note_on_c, 0, 46, 69
1, 43549, Note_on_c, 0, 78, 71
1, 43615, Note_off_c, 0, 46, 64
1, 43646, Note_on_c, 0, 45, 61
1, 43657, Note_off_c, 0, 78, 64
1, 43657, Note_on_c, 0, 72, 60
1, 43738, Note_off_c, 0, 72, 64
1, 43747, Note_off_c, 0, 45, 64
1, 43755, Note_on_c, 0, 43, 64
1, 43771, Note_on_c, 0, 81, 71
1, 43827, Note_off_c, 0, 43, 64
1, 43852, Note_on_c, 0, 42, 69
1, 43869, Note_off_c, 0, 81, 64
1, 43869, Note_on_c, 0, 72, 72
1, 43885, Note_off_c, 0, 42, 64
1, 43913, Note_off_c, 0, 72, 64
1, 43978, Note_on_c, 0, 71, 74
1, 43984, Note_on_c, 0, 43, 80
1, 44091, Note_on_c, 0, 65, 61
1, 44136, Note_off_c, 0, 71, 64
1, 44192, Note_on_c, 0, 64, 72
1, 44201, Note_off_c, 0, 65, 64
1, 44201, Note_on_c, 0, 50, 80
1, 44281, Note_off_c, 0, 64, 64
1, 44304, Note_on_c, 0, 65, 77
1, 44370, Note_off_c, 0, 50, 64
1, 44396, Note_off_c, 0, 65, 64
1, 44417, Note_on_c, 0, 71, 85
1, 44423, Note_on_c, 0, 55, 87
1, 44513, Note_on_c, 0, 65, 65
1, 44513, Note_off_c, 0, 71, 64
1, 44615, Note_off_c, 0, 65, 64
1, 44643, Note_on_c, 0, 47, 78
1, 44643, Note_on_c, 0, 74, 81
1, 44725, Note_off_c, 0, 74, 64
1, 44730, Note_off_c, 0, 43, 64
1, 44735, Note_on_c, 0, 65, 67
1, 44818, Note_off_c, 0, 65, 64
1, 44827, Note_off_c, 0, 47, 64
1, 44855, Note_on_c, 0, 64, 74
1, 44871, Note_on_c, 0, 48, 72
1, 44880, Note_off_c, 0, 55, 64
1, 44919, Note_off_c, 0, 48, 64
1, 44939, Note_off_c, 0, 64, 64
1, 44961, Note_on_c, 0, 67, 80
1, 45075, Note_on_c, 0, 72, 77
1, 45078, Note_on_c, 0, 48, 56
1, 45083, Note_off_c, 0, 67, 64
1, 45097, Note_on_c, 0, 40, 79
1, 45158, Note_off_c, 0, 72, 64
1, 45192, Note_on_c, 0, 79, 79
1, 45304, Note_on_c, 0, 41, 68
1, 45307, Note_off_c, 0, 40, 64
1, 45323, Note_on_c, 0, 77, 71
1, 45337, Note_off_c, 0, 79, 64
1, 45427, Note_on_c, 0, 76, 67
1, 45438, Note_off_c, 0, 77, 64
1, 45487, Note_off_c, 0, 76, 64
1, 45490, Note_off_c, 0, 48, 64
1, 45537, Note_on_c, 0, 43, 50
1, 45537, Note_on_c, 0, 74, 67
1, 45544, Note_off_c, 0, 41, 64
1, 45544, Note_on_c, 0, 47, 51
1, 45622, Note_off_c, 0, 74, 64
1, 45633, Note_on_c, 0, 72, 65
1, 45680, Note_off_c, 0, 43, 64
1, 45683, Note_off_c, 0, 72, 64
1, 45725, Note_off_c, 0, 47, 64
1, 45738, Note_on_c, 0, 48, 71
1, 45754, Note_on_c, 0, 72, 53
1, 45769, Note_off_c, 0, 48, 64
1, 45864, Note_on_c, 0, 60, 88
1, 45978, Note_on_c, 0, 59, 87
1, 45995, Note_off_c, 0, 60, 64
1, 46101, Note_on_c, 0, 57, 71
1, 46119, Note_off_c, 0, 59, 64
1, 46201, Note_on_c, 0, 55, 91
1, 46201, Note_off_c, 0, 57, 64
1, 46321, Note_on_c, 0, 53, 102
1, 46334, Note_off_c, 0, 55, 64
1, 46418, Note_off_c, 0, 53, 64
1, 46445, Note_on_c, 0, 52, 89
1, 46520, Note_off_c, 0, 72, 64
1, 46551, Note_off_c, 0, 52, 64
1, 46551, Note_on_c, 0, 50, 92
1, 46646, Note_off_c, 0, 50, 64
1, 46661, Note_on_c, 0, 48, 81
1, 46707, Note_off_c, 0, 48, 64
1, 46774, Note_on_c, 0, 48, 64
1, 46881, Note_on_c, 0, 72, 89
1, 46886, Note_off_c, 0, 48, 64
1, 46886, Note_on_c, 0, 47, 78
1, 46953, Note_off_c, 0, 72, 64
1, 46998, Note_on_c, 0, 45, 75
1, 47014, Note_off_c, 0, 47, 64
1, 47090, Note_off_c, 0, 45, 64
1, 47105, Note_on_c, 0, 64, 90
1, 47105, Note_on_c, 0, 60, 80
1, 47105, Note_on_c, 0, 43, 79
1, 47150, Note_off_c, 0, 60, 64
1, 47150, Note_off_c, 0, 64, 64
1, 47217, Note_on_c, 0, 41, 80
1, 47226, Note_off_c, 0, 43, 64
1, 47315, Note_off_c, 0, 41, 64
1, 47315, Note_on_c, 0, 62, 79
1, 47315, Note_on_c, 0, 65, 82
1, 47329, Note_on_c, 0, 40, 89
1, 47365, Note_off_c, 0, 62, 64
1, 47412, Note_off_c, 0, 65, 64
1, 47427, Note_off_c, 0, 40, 64
1, 47441, Note_on_c, 0, 38, 73
1, 47529, Note_off_c, 0, 38, 64
1, 47535, Note_on_c, 0, 67, 88
1, 47535, Note_on_c, 0, 64, 87
1, 47546, Note_on_c, 0, 36, 97
1, 47630, Note_off_c, 0, 36, 64
1, 47771, Note_on_c, 0, 60, 82
1, 47853, Note_off_c, 0, 60, 64
1, 47997, Note_off_c, 0, 64, 64
1, 48006, Note_on_c, 0, 57, 79
1, 48009, Note_on_c, 0, 69, 69
1, 48009, Note_on_c, 0, 65, 69
1, 48039, Note_off_c, 0, 67, 64
1, 48075, Note_off_c, 0, 57, 64
1, 48243, Note_off_c, 0, 65, 64
1, 48246, Note_on_c, 0, 53, 95
1, 48276, Note_off_c, 0, 53, 64
1, 48469, Note_on_c, 0, 48, 63
1, 48479, Note_on_c, 0, 67, 79
1, 48479, Note_on_c, 0, 64, 62
1, 48496, Note_off_c, 0, 69, 64
1, 48577, Note_on_c, 0, 69, 42
1, 48604, Note_off_c, 0, 67, 64
1, 48691, Note_on_c, 0, 43, 54
1, 48697, Note_on_c, 0, 70, 61
1, 48708, Note_off_c, 0, 69, 64
1, 48741, Note_off_c, 0, 43, 64
1, 48934, Note_on_c, 0, 40, 78
1, 48967, Note_off_c, 0, 40, 64
1, 49168, Note_on_c, 0, 36, 61
1, 49168, Note_on_c, 0, 69, 40
1, 49176, Note_off_c, 0, 70, 64
1, 49220, Note_off_c, 0, 64, 64
1, 49235, Note_off_c, 0, 36, 64
1, 49267, Note_on_c, 0, 67, 60
1, 49281, Note_off_c, 0, 69, 64
1, 49390, Note_on_c, 0, 69, 57
1, 49401, Note_off_c, 0, 67, 64
1, 49410, Note_off_c, 0, 48, 64
1, 49410, Note_on_c, 0, 41, 41
1, 49502, Note_on_c, 0, 65, 55
1, 49597, Note_on_c, 0, 64, 74
1, 49616, Note_off_c, 0, 65, 64
1, 49624, Note_off_c, 0, 41, 64
1, 49700, Note_off_c, 0, 64, 64
1, 49707, Note_on_c, 0, 62, 68
1, 49803, Note_off_c, 0, 62, 64
1, 49814, Note_on_c, 0, 60, 67
1, 49822, Note_off_c, 0, 69, 64
1, 49914, Note_on_c, 0, 58, 60
1, 49937, Note_off_c, 0, 60, 64
1, 50006, Note_off_c, 0, 58, 64
1, 50022, Note_on_c, 0, 57, 57
1, 50100, Note_off_c, 0, 57, 64
1, 50137, Note_on_c, 0, 55, 69
1, 50192, Note_off_c, 0, 55, 64
1, 50248, Note_on_c, 0, 53, 83
1, 50285, Note_off_c, 0, 53, 64
1, 50337, Note_on_c, 0, 53, 94
1, 50435, Note_off_c, 0, 53, 64
1, 50458, Note_on_c, 0, 77, 98
1, 50462, Note_on_c, 0, 52, 79
1, 50541, Note_off_c, 0, 77, 64
1, 50560, Note_on_c, 0, 50, 76
1, 50560, Note_off_c, 0, 52, 64
1, 50625, Note_off_c, 0, 50, 64
1, 50666, Note_on_c, 0, 48, 65
1, 50672, Note_on_c, 0, 69, 79
1, 50677, Note_on_c, 0, 65, 77
1, 50711, Note_off_c, 0, 65, 64
1, 50760, Note_on_c, 0, 46, 60
1, 50760, Note_off_c, 0, 69, 64
1, 50766, Note_off_c, 0, 48, 64
1, 50864, Note_off_c, 0, 46, 64
1, 50880, Note_on_c, 0, 45, 64
1, 50880, Note_on_c, 0, 70, 82
1, 50884, Note_on_c, 0, 67, 78
1, 50926, Note_off_c, 0, 67, 64
1, 50962, Note_off_c, 0, 70, 64
1, 50983, Note_off_c, 0, 45, 64
1, 50997, Note_on_c, 0, 43, 73
1, 51076, Note_off_c, 0, 43, 64
1, 51103, Note_on_c, 0, 72, 94
1, 51103, Note_on_c, 0, 69, 78
1, 51114, Note_on_c, 0, 41, 92
1, 51170, Note_off_c, 0, 41, 64
1, 51348, Note_on_c, 0, 65, 77
1, 51437, Note_off_c, 0, 65, 64
1, 51504, Note_off_c, 0, 69, 64
1, 51571, Note_on_c, 0, 70, 72
1, 51574, Note_on_c, 0, 74, 91
1, 51580, Note_on_c, 0, 62, 72
1, 51588, Note_off_c, 0, 72, 64
1, 51644, Note_off_c, 0, 62, 64
1, 51811, Note_on_c, 0, 58, 67
1, 51862, Note_off_c, 0, 58, 64
1, 52028, Note_on_c, 0, 69, 57
1, 52028, Note_off_c, 0, 70, 64
1, 52028, Note_on_c, 0, 72, 83
1, 52034, Note_on_c, 0, 53, 97
1, 52043, Note_off_c, 0, 74, 64
1, 52137, Note_on_c, 0, 74, 66
1, 52171, Note_off_c, 0, 72, 64
1, 52249, Note_on_c, 0, 75, 78
1, 52254, Note_on_c, 0, 48, 64
1, 52263, Note_off_c, 0, 74, 64
1, 52302, Note_off_c, 0, 48, 64
1, 52480, Note_on_c, 0, 45, 67
1, 52536, Note_off_c, 0, 45, 64
1, 52699, Note_on_c, 0, 74, 74
1, 52706, Note_on_c, 0, 41, 74
1, 52735, Note_off_c, 0, 75, 64
1, 52753, Note_off_c, 0, 69, 64
1, 52753, Note_off_c, 0, 41, 64
1, 52795, Note_on_c, 0, 72, 72
1, 52813, Note_off_c, 0, 74, 64
1, 52919, Note_off_c, 0, 53, 64
1, 52919, Note_on_c, 0, 74, 77
1, 52923, Note_off_c, 0, 72, 64
1, 52934, Note_on_c, 0, 46, 47
1, 53025, Note_on_c, 0, 70, 64
1, 53134, Note_on_c, 0, 69, 62
1, 53168, Note_off_c, 0, 70, 64
1, 53192, Note_off_c, 0, 46, 64
1, 53242, Note_on_c, 0, 67, 71
1, 53252, Note_off_c, 0, 69, 64
1, 53334, Note_off_c, 0, 67, 64
1, 53355, Note_on_c, 0, 65, 59
1, 53413, Note_off_c, 0, 74, 64
1, 53458, Note_off_c, 0, 65, 64
1, 53463, Note_on_c, 0, 63, 58
1, 53529, Note_off_c, 0, 63, 64
1, 53564, Note_on_c, 0, 62, 51
1, 53655, Note_off_c, 0, 62, 64
1, 53681, Note_on_c, 0, 60, 45
1, 53741, Note_off_c, 0, 60, 64
1, 53784, Note_on_c, 0, 58, 42
1, 53884, Note_on_c, 0, 74, 64
1, 53908, Note_off_c, 0, 58, 64
1, 53964, Note_off_c, 0, 74, 64
1, 53987, Note_on_c, 0, 73, 66
1, 54020, Note_on_c, 0, 67, 42
1, 54096, Note_on_c, 0, 74, 76
1, 54096, Note_off_c, 0, 73, 64
1, 54190, Note_off_c, 0, 74, 64
1, 54215, Note_on_c, 0, 82, 74
1, 54299, Note_off_c, 0, 67, 64
1, 54307, Note_on_c, 0, 58, 41
1, 54337, Note_off_c, 0, 82, 64
1, 54432, Note_off_c, 0, 58, 64
1, 54432, Note_on_c, 0, 74, 70
1, 54449, Note_on_c, 0, 57, 40
1, 54521, Note_off_c, 0, 57, 64
1, 54557, Note_on_c, 0, 55, 56
1, 54644, Note_off_c, 0, 55, 64
1, 54685, Note_on_c, 0, 57, 61
1, 54773, Note_off_c, 0, 57, 64
1, 54778, Note_off_c, 0, 74, 64
1, 54787, Note_on_c, 0, 73, 65
1, 54894, Note_off_c, 0, 73, 64
1, 54894, Note_on_c, 0, 71, 76
1, 54914, Note_on_c, 0, 65, 50
1, 55001, Note_off_c, 0, 71, 64
1, 55001, Note_on_c, 0, 73, 70
1, 55070, Note_off_c, 0, 73, 64
1, 55128, Note_on_c, 0, 81, 82
1, 55206, Note_off_c, 0, 65, 64
1, 55206, Note_off_c, 0, 81, 64
1, 55232, Note_on_c, 0, 57, 49
1, 55315, Note_off_c, 0, 57, 64
1, 55343, Note_on_c, 0, 55, 55
1, 55343, Note_on_c, 0, 72, 68
1, 55416, Note_off_c, 0, 55, 64
1, 55449, Note_on_c, 0, 53, 68
1, 55516, Note_off_c, 0, 53, 64
1, 55578, Note_on_c, 0, 55, 58
1, 55653, Note_off_c, 0, 55, 64
1, 55677, Note_on_c, 0, 71, 77
1, 55698, Note_off_c, 0, 72, 64
1, 55784, Note_on_c, 0, 64, 67
1, 55787, Note_on_c, 0, 69, 64
1, 55794, Note_off_c, 0, 71, 64
1, 55897, Note_on_c, 0, 71, 88
1, 55900, Note_off_c, 0, 69, 64
1, 55979, Note_off_c, 0, 71, 64
1, 56009, Note_on_c, 0, 79, 83
1, 56095, Note_off_c, 0, 64, 64
1, 56110, Note_off_c, 0, 79, 64
1, 56115, Note_on_c, 0, 62, 48
1, 56182, Note_off_c, 0, 62, 64
1, 56210, Note_on_c, 0, 70, 58
1, 56223, Note_on_c, 0, 61, 61
1, 56279, Note_off_c, 0, 61, 64
1, 56313, Note_off_c, 0, 70, 64
1, 56354, Note_on_c, 0, 64, 44
1, 56410, Note_off_c, 0, 64, 64
1, 56424, Note_on_c, 0, 70, 69
1, 56454, Note_on_c, 0, 55, 50
1, 56469, Note_off_c, 0, 70, 64
1, 56480, Note_on_c, 0, 72, 65
1, 56516, Note_on_c, 0, 70, 59
1, 56519, Note_off_c, 0, 72, 64
1, 56549, Note_off_c, 0, 55, 64
1, 56560, Note_off_c, 0, 70, 64
1, 56569, Note_on_c, 0, 62, 46
1, 56577, Note_on_c, 0, 72, 59
1, 56603, Note_on_c, 0, 70, 67
1, 56617, Note_off_c, 0, 72, 64
1, 56636, Note_off_c, 0, 62, 64
1, 56678, Note_on_c, 0, 69, 39
1, 56681, Note_on_c, 0, 61, 36
1, 56702, Note_off_c, 0, 70, 64
1, 56742, Note_off_c, 0, 61, 64
1, 56787, Note_on_c, 0, 64, 49
1, 56872, Note_off_c, 0, 64, 64
1, 56904, Note_on_c, 0, 57, 47
1, 56950, Note_off_c, 0, 69, 64
1, 57007, Note_off_c, 0, 57, 64
1, 57018, Note_on_c, 0, 55, 38
1, 57131, Note_off_c, 0, 55, 64
1, 57143, Note_on_c, 0, 53, 73
1, 57227, Note_off_c, 0, 53, 64
1, 57249, Note_on_c, 0, 52, 65
1, 57363, Note_off_c, 0, 52, 64
1, 57396, Note_on_c, 0, 53, 75
1, 57502, Note_on_c, 0, 74, 64
1, 57535, Note_off_c, 0, 53, 64
1, 57603, Note_on_c, 0, 70, 64
1, 57603, Note_on_c, 0, 55, 47
1, 57622, Note_off_c, 0, 74, 64
1, 57708, Note_on_c, 0, 67, 71
1, 57727, Note_off_c, 0, 70, 64
1, 57823, Note_off_c, 0, 55, 64
1, 57823, Note_off_c, 0, 67, 64
1, 57827, Note_on_c, 0, 69, 66
1, 57842, Note_on_c, 0, 53, 64
1, 57950, Note_on_c, 0, 74, 67
1, 57950, Note_off_c, 0, 69, 64
1, 58039, Note_off_c, 0, 53, 64
1, 58059, Note_on_c, 0, 67, 64
1, 58059, Note_off_c, 0, 74, 64
1, 58063, Note_on_c, 0, 52, 47
1, 58165, Note_on_c, 0, 64, 68
1, 58165, Note_off_c, 0, 67, 64
1, 58271, Note_off_c, 0, 52, 64
1, 58282, Note_off_c, 0, 64, 64
1, 58290, Note_on_c, 0, 65, 66
1, 58297, Note_on_c, 0, 50, 47
1, 58399, Note_off_c, 0, 65, 64
1, 58405, Note_on_c, 0, 74, 65
1, 58488, Note_off_c, 0, 50, 64
1, 58510, Note_on_c, 0, 67, 78
1, 58510, Note_on_c, 0, 58, 48
1, 58525, Note_off_c, 0, 74, 64
1, 58620, Note_on_c, 0, 64, 78
1, 58639, Note_off_c, 0, 67, 64
1, 58722, Note_off_c, 0, 64, 64
1, 58733, Note_on_c, 0, 65, 78
1, 58733, Note_off_c, 0, 58, 64
1, 58740, Note_on_c, 0, 57, 51
1, 58831, Note_off_c, 0, 65, 64
1, 58845, Note_on_c, 0, 74, 83
1, 58951, Note_off_c, 0, 57, 64
1, 58951, Note_off_c, 0, 74, 64
1, 58957, Note_on_c, 0, 64, 71
1, 58967, Note_on_c, 0, 55, 50
1, 59046, Note_off_c, 0, 64, 64
1, 59054, Note_on_c, 0, 61, 76
1, 59157, Note_off_c, 0, 61, 64
1, 59173, Note_off_c, 0, 55, 64
1, 59173, Note_on_c, 0, 62, 81
1, 59193, Note_on_c, 0, 53, 62
1, 59266, Note_off_c, 0, 62, 64
1, 59277, Note_on_c, 0, 74, 78
1, 59297, Note_off_c, 0, 53, 64
1, 59329, Note_off_c, 0, 74, 64
1, 59388, Note_on_c, 0, 70, 49
1, 59407, Note_on_c, 0, 55, 56
1, 59435, Note_on_c, 0, 69, 42
1, 59478, Note_off_c, 0, 70, 64
1, 59491, Note_off_c, 0, 55, 64
1, 59491, Note_off_c, 0, 69, 64
1, 59497, Note_on_c, 0, 67, 56
1, 59624, Note_off_c, 0, 67, 64
1, 59633, Note_on_c, 0, 69, 44
1, 59648, Note_on_c, 0, 53, 59
1, 59700, Note_off_c, 0, 53, 64
1, 59708, Note_off_c, 0, 69, 64
1, 59726, Note_on_c, 0, 74, 61
1, 59775, Note_off_c, 0, 74, 64
1, 59845, Note_on_c, 0, 67, 51
1, 59861, Note_on_c, 0, 52, 50
1, 59911, Note_off_c, 0, 67, 64
1, 59914, Note_on_c, 0, 65, 28
1, 59923, Note_off_c, 0, 52, 64
1, 59953, Note_on_c, 0, 64, 56
1, 59957, Note_off_c, 0, 65, 64
1, 60051, Note_off_c, 0, 64, 64
1, 60082, Note_on_c, 0, 65, 54
1, 60093, Note_on_c, 0, 50, 44
1, 60138, Note_off_c, 0, 65, 64
1, 60168, Note_on_c, 0, 74, 63
1, 60193, Note_off_c, 0, 50, 64
1, 60216, Note_off_c, 0, 74, 64
1, 60293, Note_on_c, 0, 67, 60
1, 60304, Note_on_c, 0, 58, 39
1, 60341, Note_on_c, 0, 65, 38
1, 60355, Note_off_c, 0, 67, 64
1, 60389, Note_off_c, 0, 58, 64
1, 60403, Note_on_c, 0, 64, 51
1, 60403, Note_off_c, 0, 65, 64
1, 60514, Note_off_c, 0, 64, 64
1, 60524, Note_on_c, 0, 65, 61
1, 60545, Note_on_c, 0, 57, 36
1, 60575, Note_off_c, 0, 65, 64
1, 60611, Note_off_c, 0, 57, 64
1, 60622, Note_on_c, 0, 74, 51
1, 60666, Note_off_c, 0, 74, 64
1, 60723, Note_on_c, 0, 64, 63
1, 60775, Note_off_c, 0, 64, 64
1, 60779, Note_on_c, 0, 55, 38
1, 60803, Note_on_c, 0, 62, 59
1, 60832, Note_off_c, 0, 55, 64
1, 60847, Note_off_c, 0, 62, 64
1, 60856, Note_on_c, 0, 61, 56
1, 60935, Note_off_c, 0, 61, 64
1, 60973, Note_on_c, 0, 53, 59
1, 60981, Note_on_c, 0, 62, 57
1, 61024, Note_off_c, 0, 53, 64
1, 61037, Note_off_c, 0, 62, 64
1, 61037, Control_c, 0, 64, 127
1, 61130, Note_on_c, 0, 61, 54
1, 61196, Control_c, 0, 64, 0
1, 61215, Note_off_c, 0, 61, 64
1, 61219, Note_on_c, 0, 77, 64
1, 61219, Note_on_c, 0, 81, 63
1, 61255, Note_on_c, 0, 62, 39
1, 61307, Note_off_c, 0, 62, 64
1, 61355, Note_on_c, 0, 64, 45
1, 61396, Note_off_c, 0, 77, 64
1, 61424, Note_off_c, 0, 64, 64
1, 61456, Note_on_c, 0, 79, 64
1, 61459, Note_on_c, 0, 82, 57
1, 61472, Note_off_c, 0, 81, 64
1, 61489, Note_on_c, 0, 62, 41
1, 61552, Note_off_c, 0, 62, 64
1, 61578, Note_on_c, 0, 61, 58
1, 61633, Note_off_c, 0, 61, 64
1, 61658, Note_off_c, 0, 79, 64
1, 61703, Note_off_c, 0, 82, 64
1, 61703, Note_on_c, 0, 81, 51
1, 61711, Note_on_c, 0, 77, 36
1, 61711, Note_on_c, 0, 62, 34
1, 61765, Note_off_c, 0, 81, 64
1, 61765, Note_off_c, 0, 77, 64
1, 61772, Note_off_c, 0, 62, 64
1, 61783, Control_c, 0, 64, 127
1, 61801, Note_on_c, 0, 53, 83
1, 61834, Note_off_c, 0, 53, 64
1, 61924, Note_on_c, 0, 64, 73
1, 61935, Note_on_c, 0, 55, 71
1, 61951, Control_c, 0, 64, 0
1, 62037, Note_off_c, 0, 64, 64
1, 62051, Note_on_c, 0, 61, 59
1, 62110, Note_off_c, 0, 55, 64
1, 62152, Note_on_c, 0, 79, 92
1, 62162, Note_on_c, 0, 76, 57
1, 62171, Note_on_c, 0, 62, 57
1, 62193, Note_off_c, 0, 61, 64
1, 62212, Note_off_c, 0, 76, 64
1, 62268, Note_off_c, 0, 62, 64
1, 62268, Note_on_c, 0, 76, 9
1, 62275, Note_on_c, 0, 64, 62
1, 62358, Note_off_c, 0, 76, 64
1, 62369, Note_off_c, 0, 64, 64
1, 62392, Note_on_c, 0, 81, 74
1, 62395, Note_on_c, 0, 77, 69
1, 62395, Note_on_c, 0, 62, 54
1, 62414, Note_off_c, 0, 79, 64
1, 62461, Note_off_c, 0, 62, 64
1, 62516, Note_on_c, 0, 61, 52
1, 62567, Note_off_c, 0, 61, 64
1, 62583, Note_off_c, 0, 77, 64
1, 62611, Note_on_c, 0, 76, 39
1, 62617, Note_on_c, 0, 79, 68
1, 62623, Note_off_c, 0, 81, 64
1, 62644, Note_on_c, 0, 62, 33
1, 62697, Note_off_c, 0, 79, 64
1, 62706, Control_c, 0, 64, 127
1, 62711, Note_off_c, 0, 62, 64
1, 62722, Note_on_c, 0, 55, 66
1, 62722, Note_off_c, 0, 76, 64
1, 62758, Note_off_c, 0, 55, 64
1, 62845, Note_on_c, 0, 65, 65
1, 62851, Note_on_c, 0, 57, 62
1, 62862, Control_c, 0, 64, 0
1, 62949, Note_off_c, 0, 65, 64
1, 62968, Note_on_c, 0, 61, 65
1, 62987, Note_off_c, 0, 57, 64
1, 63060, Note_on_c, 0, 77, 81
1, 63063, Note_on_c, 0, 74, 76
1, 63074, Note_off_c, 0, 61, 64
1, 63085, Note_on_c, 0, 62, 59
1, 63163, Note_off_c, 0, 62, 64
1, 63191, Note_on_c, 0, 64, 61
1, 63268, Note_off_c, 0, 74, 64
1, 63268, Note_off_c, 0, 64, 64
1, 63282, Note_on_c, 0, 76, 78
1, 63282, Note_on_c, 0, 79, 92
1, 63304, Note_on_c, 0, 62, 61
1, 63316, Note_off_c, 0, 77, 64
1, 63396, Note_off_c, 0, 62, 64
1, 63406, Note_on_c, 0, 61, 66
1, 63472, Note_off_c, 0, 61, 64
1, 63480, Note_off_c, 0, 76, 64
1, 63511, Note_on_c, 0, 77, 70
1, 63517, Note_on_c, 0, 62, 60
1, 63517, Note_on_c, 0, 74, 63
1, 63522, Note_off_c, 0, 79, 64
1, 63591, Note_off_c, 0, 62, 64
1, 63609, Note_off_c, 0, 77, 64
1, 63625, Note_on_c, 0, 57, 72
1, 63636, Note_off_c, 0, 74, 64
1, 63675, Note_off_c, 0, 57, 64
1, 63733, Note_on_c, 0, 67, 78
1, 63739, Note_on_c, 0, 58, 68
1, 63851, Note_on_c, 0, 61, 74
1, 63881, Note_off_c, 0, 67, 64
1, 63887, Note_off_c, 0, 58, 64
1, 63940, Note_on_c, 0, 77, 86
1, 63940, Note_on_c, 0, 74, 79
1, 63962, Note_on_c, 0, 62, 74
1, 63968, Note_off_c, 0, 61, 64
1, 64057, Note_off_c, 0, 62, 64
1, 64076, Note_on_c, 0, 64, 75
1, 64126, Note_off_c, 0, 74, 64
1, 64171, Note_off_c, 0, 64, 64
1, 64171, Note_on_c, 0, 79, 97
1, 64171, Note_on_c, 0, 76, 75
1, 64177, Note_off_c, 0, 77, 64
1, 64183, Note_on_c, 0, 62, 76
1, 64254, Note_off_c, 0, 76, 64
1, 64288, Note_off_c, 0, 62, 64
1, 64293, Note_on_c, 0, 61, 79
1, 64321, Note_off_c, 0, 79, 64
1, 64397, Note_off_c, 0, 61, 64
1, 64402, Note_on_c, 0, 62, 77
1, 64405, Note_on_c, 0, 77, 94
1, 64411, Note_on_c, 0, 74, 77
1, 64467, Note_off_c, 0, 62, 64
1, 64511, Note_on_c, 0, 65, 74
1, 64545, Note_off_c, 0, 65, 64
1, 64626, Note_off_c, 0, 74, 64
1, 64629, Note_on_c, 0, 68, 88
1, 64640, Note_on_c, 0, 59, 67
1, 64640, Note_on_c, 0, 62, 74
1, 64795, Note_off_c, 0, 77, 64
1, 64803, Note_on_c, 0, 76, 57
1, 64835, Note_on_c, 0, 74, 73
1, 64835, Note_off_c, 0, 76, 64
1, 64874, Note_on_c, 0, 76, 87
1, 64887, Note_off_c, 0, 74, 64
1, 64893, Note_off_c, 0, 62, 64
1, 64932, Note_off_c, 0, 68, 64
1, 64935, Note_off_c, 0, 59, 64
1, 65091, Note_on_c, 0, 64, 81
1, 65091, Note_on_c, 0, 56, 54
1, 65098, Note_on_c, 0, 59, 56
1, 65257, Note_off_c, 0, 76, 64
1, 65257, Note_on_c, 0, 74, 65
1, 65285, Note_on_c, 0, 73, 64
1, 65285, Note_off_c, 0, 74, 64
1, 65328, Note_on_c, 0, 74, 85
1, 65339, Note_off_c, 0, 64, 64
1, 65346, Note_off_c, 0, 59, 64
1, 65361, Note_off_c, 0, 73, 64
1, 65391, Note_off_c, 0, 56, 64
1, 65559, Note_on_c, 0, 59, 68
1, 65566, Note_on_c, 0, 52, 62
1, 65566, Note_on_c, 0, 56, 47
1, 65706, Note_off_c, 0, 74, 64
1, 65709, Note_on_c, 0, 73, 54
1, 65746, Note_off_c, 0, 73, 64
1, 65746, Note_on_c, 0, 71, 73
1, 65789, Note_on_c, 0, 73, 66
1, 65789, Note_off_c, 0, 71, 64
1, 65869, Note_off_c, 0, 59, 64
1, 65884, Note_off_c, 0, 56, 64
1, 65893, Note_off_c, 0, 52, 64
1, 66030, Note_on_c, 0, 45, 49
1, 66035, Note_on_c, 0, 57, 45
1, 66043, Note_on_c, 0, 52, 48
1, 66155, Note_on_c, 0, 76, 50
1, 66160, Note_off_c, 0, 73, 64
1, 66277, Note_off_c, 0, 76, 64
1, 66277, Note_on_c, 0, 73, 50
1, 66347, Note_off_c, 0, 45, 64
1, 66355, Note_off_c, 0, 52, 64
1, 66372, Note_on_c, 0, 69, 48
1, 66372, Note_off_c, 0, 73, 64
1, 66413, Note_off_c, 0, 57, 64
1, 66486, Note_off_c, 0, 69, 64
1, 66486, Note_on_c, 0, 67, 59
1, 66572, Note_off_c, 0, 67, 64
1, 66606, Note_on_c, 0, 76, 46
1, 66701, Note_on_c, 0, 57, 61
1, 66711, Note_on_c, 0, 73, 47
1, 66720, Note_off_c, 0, 76, 64
1, 66751, Note_off_c, 0, 57, 64
1, 66776, Note_off_c, 0, 73, 64
1, 66814, Note_on_c, 0, 69, 39
1, 66814, Note_on_c, 0, 59, 56
1, 66854, Note_off_c, 0, 59, 64
1, 66876, Note_off_c, 0, 69, 64
1, 66909, Note_on_c, 0, 61, 77
1, 66912, Note_on_c, 0, 67, 48
1, 66951, Note_off_c, 0, 61, 64
1, 66985, Note_off_c, 0, 67, 64
1, 67032, Note_on_c, 0, 76, 41
1, 67143, Note_on_c, 0, 64, 69
1, 67147, Note_on_c, 0, 73, 45
1, 67152, Note_off_c, 0, 76, 64
1, 67183, Note_off_c, 0, 64, 64
1, 67257, Note_off_c, 0, 73, 64
1, 67263, Note_on_c, 0, 69, 36
1, 67336, Note_off_c, 0, 69, 64
1, 67369, Note_on_c, 0, 67, 45
1, 67374, Note_on_c, 0, 61, 61
1, 67414, Note_off_c, 0, 61, 64
1, 67450, Note_off_c, 0, 67, 64
1, 67492, Note_on_c, 0, 76, 42
1, 67592, Note_off_c, 0, 76, 64
1, 67592, Note_on_c, 0, 73, 45
1, 67598, Note_on_c, 0, 57, 40
1, 67645, Note_off_c, 0, 57, 64
1, 67684, Note_off_c, 0, 73, 64
1, 67709, Note_on_c, 0, 69, 34
1, 67814, Note_off_c, 0, 69, 64
1, 67814, Note_on_c, 0, 45, 65
1, 67829, Note_on_c, 0, 67, 48
1, 67893, Note_off_c, 0, 67, 64
1, 67941, Note_on_c, 0, 76, 44
1, 68030, Note_off_c, 0, 76, 64
1, 68038, Note_on_c, 0, 73, 45
1, 68048, Note_off_c, 0, 45, 64
1, 68141, Note_off_c, 0, 73, 64
1, 68141, Note_on_c, 0, 69, 53
1, 68257, Note_on_c, 0, 65, 63
1, 68257, Note_off_c, 0, 69, 64
1, 68319, Note_off_c, 0, 65, 64
1, 68359, Note_on_c, 0, 77, 64
1, 68363, Note_on_c, 0, 57, 69
1, 68461, Note_off_c, 0, 77, 64
1, 68467, Note_off_c, 0, 57, 64
1, 68475, Note_on_c, 0, 59, 47
1, 68478, Note_on_c, 0, 74, 52
1, 68540, Note_off_c, 0, 59, 64
1, 68556, Note_on_c, 0, 61, 77
1, 68570, Note_on_c, 0, 70, 56
1, 68583, Note_off_c, 0, 74, 64
1, 68615, Note_off_c, 0, 61, 64
1, 68673, Note_on_c, 0, 62, 88
1, 68678, Note_on_c, 0, 69, 52
1, 68678, Note_off_c, 0, 70, 64
1, 68742, Note_off_c, 0, 62, 64
1, 68788, Note_off_c, 0, 69, 64
1, 68799, Note_on_c, 0, 77, 65
1, 68907, Note_on_c, 0, 65, 69
1, 68907, Note_off_c, 0, 77, 64
1, 68918, Note_on_c, 0, 74, 65
1, 68957, Note_off_c, 0, 65, 64
1, 69013, Note_on_c, 0, 70, 57
1, 69032, Note_off_c, 0, 74, 64
1, 69130, Note_off_c, 0, 70, 64
1, 69130, Note_on_c, 0, 69, 56
1, 69130, Note_on_c, 0, 62, 76
1, 69164, Note_off_c, 0, 62, 64
1, 69247, Note_on_c, 0, 77, 63
1, 69247, Note_off_c, 0, 69, 64
1, 69355, Note_on_c, 0, 57, 45
1, 69359, Note_off_c, 0, 77, 64
1, 69359, Note_on_c, 0, 74, 61
1, 69412, Note_off_c, 0, 57, 64
1, 69452, Note_on_c, 0, 70, 57
1, 69461, Note_off_c, 0, 74, 64
1, 69572, Note_off_c, 0, 70, 64
1, 69572, Note_on_c, 0, 45, 68
1, 69572, Note_on_c, 0, 69, 59
1, 69686, Note_on_c, 0, 77, 69
1, 69689, Note_off_c, 0, 69, 64
1, 69790, Note_off_c, 0, 77, 64
1, 69790, Note_on_c, 0, 74, 74
1, 69835, Note_off_c, 0, 45, 64
1, 69901, Note_on_c, 0, 72, 73
1, 69910, Note_off_c, 0, 74, 64
1, 70008, Note_on_c, 0, 71, 85
1, 70013, Note_off_c, 0, 72, 64
1, 70111, Note_off_c, 0, 71, 64
1, 70111, Note_on_c, 0, 80, 70
1, 70222, Note_on_c, 0, 59, 80
1, 70222, Note_on_c, 0, 77, 70
1, 70236, Note_off_c, 0, 80, 64
1, 70311, Note_off_c, 0, 59, 64
1, 70324, Note_on_c, 0, 61, 86
1, 70328, Note_on_c, 0, 74, 71
1, 70333, Note_off_c, 0, 77, 64
1, 70392, Note_off_c, 0, 61, 64
1, 70431, Note_on_c, 0, 62, 96
1, 70434, Note_on_c, 0, 71, 81
1, 70437, Note_off_c, 0, 74, 64
1, 70498, Note_off_c, 0, 62, 64
1, 70533, Note_on_c, 0, 80, 73
1, 70567, Note_off_c, 0, 71, 64
1, 70654, Note_on_c, 0, 77, 70
1, 70654, Note_on_c, 0, 59, 83
1, 70679, Note_off_c, 0, 80, 64
1, 70754, Note_off_c, 0, 59, 64
1, 70759, Note_on_c, 0, 61, 88
1, 70763, Note_on_c, 0, 74, 78
1, 70779, Note_off_c, 0, 77, 64
1, 70845, Note_off_c, 0, 61, 64
1, 70870, Note_on_c, 0, 62, 92
1, 70879, Note_on_c, 0, 71, 88
1, 70907, Note_off_c, 0, 74, 64
1, 70937, Note_off_c, 0, 62, 64
1, 70983, Note_on_c, 0, 80, 70
1, 71008, Note_off_c, 0, 71, 64
1, 71097, Note_on_c, 0, 59, 91
1, 71104, Note_on_c, 0, 77, 74
1, 71127, Note_off_c, 0, 59, 64
1, 71133, Note_off_c, 0, 80, 64
1, 71210, Note_on_c, 0, 74, 74
1, 71222, Note_off_c, 0, 77, 64
1, 71324, Note_on_c, 0, 52, 100
1, 71324, Note_on_c, 0, 71, 85
1, 71328, Note_off_c, 0, 74, 64
1, 71373, Note_off_c, 0, 52, 64
1, 71423, Note_on_c, 0, 80, 74
1, 71436, Note_off_c, 0, 71, 64
1, 71536, Note_on_c, 0, 77, 73
1, 71543, Note_on_c, 0, 56, 81
1, 71554, Note_off_c, 0, 80, 64
1, 71576, Note_off_c, 0, 56, 64
1, 71635, Note_on_c, 0, 74, 84
1, 71654, Note_off_c, 0, 77, 64
1, 71721, Note_off_c, 0, 74, 64
1, 71754, Note_on_c, 0, 73, 73
1, 71763, Note_on_c, 0, 57, 79
1, 71871, Note_on_c, 0, 81, 72
1, 71885, Note_off_c, 0, 73, 64
1, 71926, Note_off_c, 0, 57, 64
1, 71974, Note_on_c, 0, 45, 83
1, 71979, Note_on_c, 0, 76, 71
1, 71993, Note_off_c, 0, 81, 64
1, 72058, Note_on_c, 0, 47, 83
1, 72074, Note_on_c, 0, 73, 70
1, 72079, Note_off_c, 0, 45, 64
1, 72079, Note_off_c, 0, 76, 64
1, 72152, Note_off_c, 0, 47, 64
1, 72180, Note_on_c, 0, 49, 97
1, 72180, Note_on_c, 0, 69, 69
1, 72188, Note_off_c, 0, 73, 64
1, 72245, Note_off_c, 0, 49, 64
1, 72294, Note_on_c, 0, 73, 73
1, 72306, Note_off_c, 0, 69, 64
1, 72406, Note_off_c, 0, 73, 64
1, 72411, Note_on_c, 0, 71, 87
1, 72411, Note_on_c, 0, 52, 95
1, 72442, Note_off_c, 0, 52, 64
1, 72503, Note_on_c, 0, 74, 85
1, 72509, Note_off_c, 0, 71, 64
1, 72618, Note_off_c, 0, 74, 64
1, 72626, Note_on_c, 0, 73, 75
1, 72635, Note_on_c, 0, 57, 69
1, 72734, Note_off_c, 0, 57, 64
1, 72734, Note_on_c, 0, 76, 70
1, 72757, Note_off_c, 0, 73, 64
1, 72757, Control_c, 0, 64, 127
1, 72785, Control_c, 0, 64, 0
1, 72834, Note_on_c, 0, 73, 47
1, 72848, Note_on_c, 0, 45, 73
1, 72860, Note_off_c, 0, 76, 64
1, 72929, Note_on_c, 0, 47, 77
1, 72946, Note_on_c, 0, 69, 55
1, 72951, Note_off_c, 0, 45, 64
1, 72960, Note_off_c, 0, 73, 64
1, 73038, Note_off_c, 0, 69, 64
1, 73038, Note_on_c, 0, 49, 86
1, 73041, Note_off_c, 0, 47, 64
1, 73052, Note_on_c, 0, 64, 73
1, 73110, Note_off_c, 0, 49, 64
1, 73152, Note_on_c, 0, 67, 74
1, 73156, Note_off_c, 0, 64, 64
1, 73269, Note_on_c, 0, 65, 64
1, 73269, Note_on_c, 0, 50, 74
1, 73272, Note_off_c, 0, 67, 64
1, 73305, Note_off_c, 0, 50, 64
1, 73359, Note_off_c, 0, 65, 64
1, 73367, Note_on_c, 0, 69, 59
1, 73481, Note_on_c, 0, 67, 75
1, 73495, Note_on_c, 0, 52, 83
1, 73495, Note_off_c, 0, 69, 64
1, 73587, Note_off_c, 0, 52, 64
1, 73595, Note_on_c, 0, 70, 58
1, 73615, Note_off_c, 0, 67, 64
1, 73699, Note_on_c, 0, 67, 51
1, 73706, Note_on_c, 0, 45, 72
1, 73721, Note_off_c, 0, 70, 64
1, 73801, Note_off_c, 0, 67, 64
1, 73801, Note_off_c, 0, 45, 64
1, 73807, Note_on_c, 0, 64, 70
1, 73807, Note_on_c, 0, 49, 77
1, 73883, Note_off_c, 0, 64, 64
1, 73902, Note_off_c, 0, 49, 64
1, 73907, Note_on_c, 0, 61, 70
1, 73921, Note_on_c, 0, 52, 97
1, 73996, Note_off_c, 0, 52, 64
1, 74013, Note_off_c, 0, 61, 64
1, 74013, Note_on_c, 0, 64, 79
1, 74138, Note_on_c, 0, 62, 77
1, 74138, Note_on_c, 0, 53, 105
1, 74148, Note_off_c, 0, 64, 64
1, 74172, Note_off_c, 0, 53, 64
1, 74236, Note_on_c, 0, 65, 79
1, 74245, Note_off_c, 0, 62, 64
1, 74359, Note_on_c, 0, 64, 86
1, 74362, Note_on_c, 0, 55, 89
1, 74398, Note_off_c, 0, 65, 64
1, 74462, Note_on_c, 0, 67, 80
1, 74484, Note_off_c, 0, 64, 64
1, 74487, Note_off_c, 0, 55, 64
1, 74560, Note_on_c, 0, 64, 65
1, 74584, Note_on_c, 0, 45, 73
1, 74593, Note_off_c, 0, 67, 64
1, 74662, Note_on_c, 0, 61, 79
1, 74671, Note_on_c, 0, 47, 77
1, 74681, Note_off_c, 0, 64, 64
1, 74690, Note_off_c, 0, 45, 64
1, 74745, Note_off_c, 0, 47, 64
1, 74779, Note_on_c, 0, 57, 79
1, 74779, Note_on_c, 0, 49, 83
1, 74809, Note_off_c, 0, 61, 64
1, 74819, Note_off_c, 0, 49, 64
1, 74883, Note_off_c, 0, 57, 64
1, 74883, Note_on_c, 0, 67, 76
1, 74989, Note_on_c, 0, 45, 82
1, 74989, Note_on_c, 0, 65, 67
1, 75019, Note_off_c, 0, 67, 64
1, 75044, Note_off_c, 0, 45, 64
1, 75102, Note_on_c, 0, 64, 71
1, 75108, Note_off_c, 0, 65, 64
1, 75220, Note_on_c, 0, 65, 75
1, 75227, Note_off_c, 0, 64, 64
1, 75234, Note_on_c, 0, 50, 57
1, 75308, Note_off_c, 0, 50, 64
1, 75325, Note_on_c, 0, 62, 70
1, 75325, Note_on_c, 0, 53, 89
1, 75348, Note_off_c, 0, 65, 64
1, 75414, Note_off_c, 0, 53, 64
1, 75426, Note_off_c, 0, 62, 64
1, 75440, Note_on_c, 0, 64, 71
1, 75445, Note_on_c, 0, 52, 72
1, 75534, Note_off_c, 0, 52, 64
1, 75542, Note_off_c, 0, 64, 64
1, 75542, Note_on_c, 0, 65, 71
1, 75546, Note_on_c, 0, 50, 59
1, 75606, Note_off_c, 0, 50, 64
1, 75635, Note_on_c, 0, 49, 66
1, 75640, Note_on_c, 0, 67, 76
1, 75654, Note_off_c, 0, 65, 64
1, 75721, Note_off_c, 0, 49, 64
1, 75738, Note_on_c, 0, 47, 62
1, 75743, Note_on_c, 0, 69, 65
1, 75819, Note_off_c, 0, 47, 64
1, 75829, Note_off_c, 0, 67, 64
1, 75841, Note_on_c, 0, 45, 62
1, 75844, Note_on_c, 0, 71, 86
1, 75857, Note_off_c, 0, 69, 64
1, 75938, Note_on_c, 0, 73, 79
1, 75938, Note_on_c, 0, 43, 70
1, 75950, Note_off_c, 0, 45, 64
1, 75955, Note_off_c, 0, 71, 64
1, 76030, Note_off_c, 0, 43, 64
1, 76050, Note_on_c, 0, 41, 86
1, 76050, Note_on_c, 0, 74, 89
1, 76069, Note_off_c, 0, 73, 64
1, 76152, Note_on_c, 0, 45, 84
1, 76152, Note_on_c, 0, 73, 73
1, 76159, Note_off_c, 0, 41, 64
1, 76180, Note_off_c, 0, 74, 64
1, 76245, Note_off_c, 0, 45, 64
1, 76255, Note_on_c, 0, 71, 92
1, 76259, Note_on_c, 0, 47, 85
1, 76278, Note_off_c, 0, 73, 64
1, 76344, Note_on_c, 0, 69, 74
1, 76350, Note_off_c, 0, 71, 64
1, 76359, Note_on_c, 0, 49, 85
1, 76370, Note_off_c, 0, 47, 64
1, 76468, Note_on_c, 0, 81, 97
1, 76473, Note_on_c, 0, 50, 90
1, 76476, Note_off_c, 0, 69, 64
1, 76487, Note_off_c, 0, 49, 64
1, 76557, Note_off_c, 0, 81, 64
1, 76570, Note_off_c, 0, 50, 64
1, 76570, Note_on_c, 0, 52, 93
1, 76665, Note_off_c, 0, 52, 64
1, 76674, Note_on_c, 0, 69, 66
1, 76674, Note_on_c, 0, 74, 91
1, 76687, Note_on_c, 0, 53, 99
1, 76734, Note_off_c, 0, 69, 64
1, 76762, Note_off_c, 0, 74, 64
1, 76783, Note_off_c, 0, 53, 64
1, 76799, Note_on_c, 0, 55, 88
1, 76910, Note_off_c, 0, 55, 64
1, 76924, Note_on_c, 0, 77, 97
1, 76924, Note_on_c, 0, 69, 71
1, 76929, Note_on_c, 0, 74, 85
1, 76936, Note_on_c, 0, 57, 81
1, 77291, Control_c, 0, 64, 127
1, 77335, Note_off_c, 0, 69, 64
1, 77403, Note_off_c, 0, 74, 64
1, 77418, Note_on_c, 0, 67, 89
1, 77418, Note_on_c, 0, 73, 74
1, 77423, Note_on_c, 0, 45, 83
1, 77423, Note_on_c, 0, 76, 87
1, 77436, Note_off_c, 0, 57, 64
1, 77490, Note_off_c, 0, 77, 64
1, 77518, Control_c, 0, 64, 0
1, 77746, Control_c, 0, 64, 127
1, 77768, Note_off_c, 0, 67, 64
1, 77768, Note_off_c, 0, 76, 64
1, 77799, Note_off_c, 0, 73, 64
1, 77896, Note_on_c, 0, 65, 88
1, 77896, Note_on_c, 0, 46, 79
1, 77910, Note_off_c, 0, 45, 64
1, 77975, Control_c, 0, 64, 0
1, 78035, Note_on_c, 0, 74, 92
1, 78195, Note_on_c, 0, 68, 86
1, 78247, Note_off_c, 0, 65, 64
1, 78298, Control_c, 0, 64, 127
1, 78325, Note_off_c, 0, 74, 64
1, 78495, Note_off_c, 0, 46, 64
1, 78634, Control_c, 0, 64, 0
1, 78790, Note_on_c, 0, 70, 72
1, 78843, Note_off_c, 0, 68, 64
1, 78929, Note_on_c, 0, 69, 76
1, 78936, Note_on_c, 0, 49, 83
1, 78975, Note_off_c, 0, 70, 64
1, 79046, Note_on_c, 0, 67, 85
1, 79072, Note_off_c, 0, 69, 64
1, 79158, Note_off_c, 0, 49, 64
1, 79172, Note_on_c, 0, 65, 85
1, 79172, Note_on_c, 0, 50, 89
1, 79180, Note_off_c, 0, 67, 64
1, 79283, Note_on_c, 0, 69, 84
1, 79300, Note_off_c, 0, 65, 64
1, 79336, Note_off_c, 0, 50, 64
1, 79409, Note_on_c, 0, 74, 89
1, 79412, Note_on_c, 0, 41, 91
1, 79439, Note_off_c, 0, 69, 64
1, 79512, Note_on_c, 0, 65, 87
1, 79601, Note_off_c, 0, 41, 64
1, 79601, Note_off_c, 0, 65, 64
1, 79634, Note_on_c, 0, 64, 88
1, 79638, Note_on_c, 0, 43, 91
1, 79713, Note_off_c, 0, 43, 64
1, 79713, Note_off_c, 0, 74, 64
1, 79833, Note_off_c, 0, 64, 64
1, 79871, Note_on_c, 0, 73, 78
1, 79871, Note_on_c, 0, 45, 89
1, 79871, Note_on_c, 0, 67, 81
1, 79875, Note_on_c, 0, 69, 63
1, 79921, Note_off_c, 0, 45, 64
1, 79980, Note_off_c, 0, 67, 64
1, 80053, Note_off_c, 0, 69, 64
1, 80064, Note_off_c, 0, 73, 64
1, 80134, Note_on_c, 0, 65, 62
1, 80137, Note_on_c, 0, 74, 85
1, 80137, Note_on_c, 0, 62, 79
1, 80137, Note_on_c, 0, 69, 51
1, 80141, Note_on_c, 0, 38, 90
1, 80347, Control_c, 0, 64, 127
1, 80373, Note_off_c, 0, 38, 64
1, 80409, Note_on_c, 0, 50, 80
1, 80442, Note_off_c, 0, 62, 64
1, 80446, Note_off_c, 0, 65, 64
1, 80467, Note_off_c, 0, 69, 64
1, 80473, Note_off_c, 0, 74, 64
1, 80490, Control_c, 0, 64, 0
1, 80510, Note_off_c, 0, 50, 64
1, 80518, Note_on_c, 0, 52, 86
1, 80612, Note_off_c, 0, 52, 64
1, 80618, Note_on_c, 0, 53, 99
1, 80708, Note_off_c, 0, 53, 64
1, 80744, Note_on_c, 0, 55, 66
1, 80801, Note_off_c, 0, 55, 64
1, 80835, Note_on_c, 0, 69, 67
1, 80849, Note_on_c, 0, 57, 58
1, 80886, Note_off_c, 0, 69, 64
1, 80910, Note_off_c, 0, 57, 64
1, 80956, Note_on_c, 0, 59, 47
1, 81008, Note_off_c, 0, 59, 64
1, 81070, Note_on_c, 0, 69, 62
1, 81078, Note_on_c, 0, 61, 46
1, 81083, Note_on_c, 0, 64, 47
1, 81111, Note_off_c, 0, 69, 64
1, 81123, Note_on_c, 0, 70, 53
1, 81133, Note_off_c, 0, 61, 64
1, 81133, Note_off_c, 0, 64, 64
1, 81180, Note_on_c, 0, 69, 29
1, 81226, Note_off_c, 0, 70, 64
1, 81251, Note_off_c, 0, 69, 64
1, 81251, Note_on_c, 0, 68, 46
1, 81300, Note_on_c, 0, 57, 42
1, 81303, Note_on_c, 0, 69, 60
1, 81303, Note_off_c, 0, 68, 64
1, 81350, Note_off_c, 0, 57, 64
1, 81410, Note_off_c, 0, 69, 64
1, 81527, Note_on_c, 0, 62, 37
1, 81527, Note_on_c, 0, 69, 51
1, 81535, Note_on_c, 0, 65, 29
1, 81568, Note_off_c, 0, 69, 64
1, 81573, Note_off_c, 0, 62, 64
1, 81576, Note_on_c, 0, 70, 49
1, 81587, Note_off_c, 0, 65, 64
1, 81616, Note_on_c, 0, 69, 47
1, 81634, Note_off_c, 0, 70, 64
1, 81693, Note_off_c, 0, 69, 64
1, 81693, Note_on_c, 0, 68, 45
1, 81737, Note_off_c, 0, 68, 64
1, 81763, Note_on_c, 0, 69, 42
1, 81780, Note_on_c, 0, 57, 27
1, 81835, Note_off_c, 0, 57, 64
1, 81991, Note_on_c, 0, 64, 54
1, 81995, Note_on_c, 0, 61, 42
1, 82086, Note_off_c, 0, 61, 64
1, 82103, Note_on_c, 0, 71, 71
1, 82122, Note_off_c, 0, 69, 64
1, 82147, Note_off_c, 0, 71, 64
1, 82155, Note_off_c, 0, 64, 64
1, 82208, Note_on_c, 0, 73, 64
1, 82220, Note_on_c, 0, 57, 40
1, 82250, Note_off_c, 0, 73, 64
1, 82303, Note_off_c, 0, 57, 64
1, 82320, Note_on_c, 0, 74, 69
1, 82331, Note_on_c, 0, 59, 39
1, 82351, Note_off_c, 0, 74, 64
1, 82387, Note_off_c, 0, 59, 64
1, 82429, Note_on_c, 0, 61, 41
1, 82443, Note_on_c, 0, 76, 63
1, 82540, Note_off_c, 0, 61, 64
1, 82560, Note_on_c, 0, 62, 47
1, 82610, Note_off_c, 0, 62, 64
1, 82648, Note_off_c, 0, 76, 64
1, 82671, Note_on_c, 0, 69, 35
1, 82680, Note_on_c, 0, 64, 37
1, 82738, Note_off_c, 0, 64, 64
1, 82746, Note_off_c, 0, 69, 64
1, 82779, Note_on_c, 0, 61, 38
1, 82833, Note_off_c, 0, 61, 64
1, 82907, Note_on_c, 0, 69, 60
1, 82907, Note_on_c, 0, 65, 41
1, 82922, Note_on_c, 0, 62, 41
1, 82944, Note_off_c, 0, 69, 64
1, 82958, Note_on_c, 0, 70, 41
1, 82967, Note_off_c, 0, 62, 64
1, 82970, Note_off_c, 0, 65, 64
1, 82988, Note_on_c, 0, 69, 57
1, 83020, Note_off_c, 0, 70, 64
1, 83073, Note_on_c, 0, 68, 45
1, 83078, Note_off_c, 0, 69, 64
1, 83125, Note_off_c, 0, 68, 64
1, 83133, Note_on_c, 0, 69, 61
1, 83136, Note_on_c, 0, 57, 33
1, 83192, Note_off_c, 0, 57, 64
1, 83245, Note_off_c, 0, 69, 64
1, 83356, Note_on_c, 0, 61, 45
1, 83364, Note_on_c, 0, 64, 41
1, 83364, Note_on_c, 0, 69, 44
1, 83406, Note_on_c, 0, 70, 49
1, 83406, Note_off_c, 0, 61, 64
1, 83418, Note_off_c, 0, 64, 64
1, 83418, Note_off_c, 0, 69, 64
1, 83454, Note_off_c, 0, 70, 64
1, 83476, Note_on_c, 0, 69, 27
1, 83516, Note_on_c, 0, 68, 44
1, 83537, Note_off_c, 0, 69, 64
1, 83576, Note_off_c, 0, 68, 64
1, 83591, Note_on_c, 0, 69, 42
1, 83596, Note_on_c, 0, 57, 35
1, 83644, Note_off_c, 0, 57, 64
1, 83813, Note_on_c, 0, 62, 49
1, 83822, Note_on_c, 0, 65, 46
1, 83919, Note_off_c, 0, 62, 64
1, 83925, Note_on_c, 0, 73, 58
1, 83928, Note_off_c, 0, 65, 64
1, 83928, Note_on_c, 0, 67, 52
1, 83945, Note_off_c, 0, 69, 64
1, 83998, Note_off_c, 0, 73, 64
1, 84008, Note_off_c, 0, 67, 64
1, 84034, Note_on_c, 0, 74, 68
1, 84053, Note_on_c, 0, 65, 54
1, 84070, Note_off_c, 0, 74, 64
1, 84092, Note_off_c, 0, 65, 64
1, 84144, Note_on_c, 0, 76, 72
1, 84144, Note_on_c, 0, 64, 53
1, 84183, Note_off_c, 0, 76, 64
1, 84189, Note_off_c, 0, 64, 64
1, 84268, Note_on_c, 0, 77, 66
1, 84268, Note_on_c, 0, 62, 43
1, 84346, Note_off_c, 0, 62, 64
1, 84385, Note_on_c, 0, 64, 46
1, 84438, Note_off_c, 0, 64, 64
1, 84474, Note_off_c, 0, 77, 64
1, 84488, Note_on_c, 0, 65, 40
1, 84498, Note_on_c, 0, 69, 38
1, 84541, Note_off_c, 0, 65, 64
1, 84563, Note_off_c, 0, 69, 64
1, 84596, Note_on_c, 0, 62, 38
1, 84647, Note_off_c, 0, 62, 64
1, 84724, Note_on_c, 0, 67, 51
1, 84724, Note_on_c, 0, 69, 63
1, 84741, Note_on_c, 0, 64, 52
1, 84763, Note_off_c, 0, 69, 64
1, 84775, Note_on_c, 0, 70, 55
1, 84778, Note_off_c, 0, 64, 64
1, 84796, Note_off_c, 0, 67, 64
1, 84819, Note_on_c, 0, 69, 38
1, 84861, Note_off_c, 0, 70, 64
1, 84899, Note_on_c, 0, 68, 57
1, 84911, Note_off_c, 0, 69, 64
1, 84949, Note_on_c, 0, 57, 46
1, 84958, Note_on_c, 0, 69, 64
1, 84970, Note_off_c, 0, 68, 64
1, 84997, Note_off_c, 0, 57, 64
1, 85081, Note_off_c, 0, 69, 64
1, 85173, Note_on_c, 0, 65, 48
1, 85184, Note_on_c, 0, 69, 52
1, 85207, Note_on_c, 0, 62, 19
1, 85222, Note_on_c, 0, 70, 60
1, 85222, Note_off_c, 0, 69, 64
1, 85225, Note_off_c, 0, 65, 64
1, 85261, Note_off_c, 0, 62, 64
1, 85267, Note_on_c, 0, 69, 60
1, 85281, Note_off_c, 0, 70, 64
1, 85334, Note_off_c, 0, 69, 64
1, 85334, Note_on_c, 0, 68, 62
1, 85373, Note_off_c, 0, 68, 64
1, 85407, Note_on_c, 0, 69, 50
1, 85415, Note_on_c, 0, 57, 56
1, 85457, Note_off_c, 0, 57, 64
1, 85621, Note_on_c, 0, 64, 64
1, 85641, Note_on_c, 0, 61, 44
1, 85675, Note_off_c, 0, 64, 64
1, 85719, Note_off_c, 0, 61, 64
1, 85727, Note_on_c, 0, 73, 60
1, 85743, Note_off_c, 0, 69, 64
1, 85743, Note_on_c, 0, 62, 65
1, 85797, Note_off_c, 0, 73, 64
1, 85797, Note_off_c, 0, 62, 64
1, 85832, Note_on_c, 0, 76, 65
1, 85838, Note_on_c, 0, 61, 58
1, 85867, Note_off_c, 0, 76, 64
1, 85916, Note_off_c, 0, 61, 64
1, 85938, Note_on_c, 0, 77, 62
1, 85942, Note_on_c, 0, 59, 55
1, 85973, Note_off_c, 0, 77, 64
1, 86005, Note_off_c, 0, 59, 64
1, 86066, Note_on_c, 0, 79, 63
1, 86066, Note_on_c, 0, 57, 47
1, 86148, Note_off_c, 0, 57, 64
1, 86181, Note_on_c, 0, 55, 48
1, 86279, Note_off_c, 0, 55, 64
1, 86298, Note_on_c, 0, 69, 44
1, 86312, Note_off_c, 0, 79, 64
1, 86312, Note_on_c, 0, 53, 38
1, 86393, Note_off_c, 0, 53, 64
1, 86427, Note_on_c, 0, 52, 46
1, 86496, Note_off_c, 0, 52, 64
1, 86535, Note_on_c, 0, 50, 49
1, 86602, Control_c, 0, 64, 127
1, 86630, Note_off_c, 0, 50, 64
1, 86655, Note_on_c, 0, 62, 43
1, 86666, Note_on_c, 0, 79, 75
1, 86672, Note_off_c, 0, 69, 64
1, 86710, Control_c, 0, 64, 0
1, 86710, Note_off_c, 0, 62, 64
1, 86780, Note_off_c, 0, 79, 64
1, 86796, Note_on_c, 0, 64, 49
1, 86796, Note_on_c, 0, 77, 62
1, 86844, Note_off_c, 0, 64, 64
1, 86894, Note_on_c, 0, 76, 52
1, 86900, Note_off_c, 0, 77, 64
1, 86905, Note_on_c, 0, 65, 38
1, 86933, Note_off_c, 0, 76, 64
1, 86955, Note_on_c, 0, 74, 55
1, 86972, Note_off_c, 0, 65, 64
1, 87012, Note_off_c, 0, 74, 64
1, 87012, Note_on_c, 0, 82, 59
1, 87017, Note_on_c, 0, 55, 55
1, 87073, Note_off_c, 0, 55, 64
1, 87119, Control_c, 0, 64, 127
1, 87128, Note_on_c, 0, 65, 52
1, 87153, Note_off_c, 0, 82, 64
1, 87179, Note_off_c, 0, 65, 64
1, 87248, Note_on_c, 0, 64, 52
1, 87253, Note_on_c, 0, 67, 60
1, 87285, Control_c, 0, 64, 0
1, 87304, Note_off_c, 0, 64, 64
1, 87348, Note_on_c, 0, 62, 62
1, 87384, Note_off_c, 0, 62, 64
1, 87466, Note_on_c, 0, 48, 77
1, 87558, Note_off_c, 0, 48, 64
1, 87576, Note_on_c, 0, 77, 79
1, 87588, Note_on_c, 0, 60, 63
1, 87588, Note_off_c, 0, 67, 64
1, 87674, Note_off_c, 0, 60, 64
1, 87691, Note_on_c, 0, 76, 70
1, 87705, Note_on_c, 0, 62, 61
1, 87705, Note_off_c, 0, 77, 64
1, 87750, Note_off_c, 0, 62, 64
1, 87808, Note_on_c, 0, 74, 65
1, 87808, Note_on_c, 0, 64, 57
1, 87813, Note_off_c, 0, 76, 64
1, 87855, Note_off_c, 0, 74, 64
1, 87863, Note_on_c, 0, 72, 55
1, 87863, Note_off_c, 0, 64, 64
1, 87903, Note_off_c, 0, 72, 64
1, 87916, Note_on_c, 0, 53, 83
1, 87922, Note_on_c, 0, 81, 87
1, 87962, Note_off_c, 0, 53, 64
1, 88006, Control_c, 0, 64, 127
1, 88028, Note_on_c, 0, 63, 69
1, 88028, Note_off_c, 0, 81, 64
1, 88079, Note_off_c, 0, 63, 64
1, 88125, Control_c, 0, 64, 0
1, 88136, Note_on_c, 0, 65, 71
1, 88154, Note_on_c, 0, 62, 62
1, 88209, Note_off_c, 0, 62, 64
1, 88253, Note_on_c, 0, 60, 57
1, 88296, Note_off_c, 0, 60, 64
1, 88370, Note_on_c, 0, 46, 74
1, 88466, Note_off_c, 0, 46, 64
1, 88474, Note_on_c, 0, 75, 78
1, 88480, Note_off_c, 0, 65, 64
1, 88483, Note_on_c, 0, 58, 58
1, 88561, Note_off_c, 0, 58, 64
1, 88586, Note_on_c, 0, 74, 85
1, 88594, Note_off_c, 0, 75, 64
1, 88608, Note_on_c, 0, 60, 59
1, 88668, Note_off_c, 0, 60, 64
1, 88688, Note_on_c, 0, 72, 67
1, 88710, Note_off_c, 0, 74, 64
1, 88724, Note_on_c, 0, 62, 56
1, 88744, Note_on_c, 0, 70, 61
1, 88786, Note_off_c, 0, 70, 64
1, 88789, Note_off_c, 0, 72, 64
1, 88806, Note_on_c, 0, 79, 89
1, 88819, Note_off_c, 0, 62, 64
1, 88831, Note_on_c, 0, 51, 63
1, 88930, Note_on_c, 0, 74, 84
1, 88972, Note_off_c, 0, 79, 64
1, 89048, Note_on_c, 0, 72, 65
1, 89054, Note_off_c, 0, 51, 64
1, 89057, Note_on_c, 0, 57, 59
1, 89067, Note_off_c, 0, 74, 64
1, 89139, Note_on_c, 0, 70, 58
1, 89156, Note_off_c, 0, 72, 64
1, 89214, Note_on_c, 0, 69, 62
1, 89243, Note_off_c, 0, 70, 64
1, 89254, Note_off_c, 0, 57, 64
1, 89265, Note_on_c, 0, 50, 59
1, 89281, Note_off_c, 0, 69, 64
1, 89285, Note_on_c, 0, 77, 68
1, 89412, Note_off_c, 0, 77, 64
1, 89416, Note_on_c, 0, 72, 55
1, 89493, Note_off_c, 0, 50, 64
1, 89499, Note_on_c, 0, 55, 58
1, 89505, Note_off_c, 0, 72, 64
1, 89505, Note_on_c, 0, 70, 55
1, 89604, Note_off_c, 0, 70, 64
1, 89607, Note_on_c, 0, 69, 44
1, 89677, Note_on_c, 0, 67, 74
1, 89708, Note_off_c, 0, 69, 64
1, 89714, Note_off_c, 0, 55, 64
1, 89714, Note_off_c, 0, 67, 64
1, 89722, Note_on_c, 0, 48, 55
1, 89735, Note_on_c, 0, 75, 61
1, 89852, Note_on_c, 0, 70, 53
1, 89872, Note_off_c, 0, 75, 64
1, 89939, Note_off_c, 0, 48, 64
1, 89945, Note_on_c, 0, 69, 52
1, 89962, Note_on_c, 0, 53, 75
1, 89969, Note_off_c, 0, 70, 64
1, 90029, Note_on_c, 0, 67, 59
1, 90036, Note_off_c, 0, 69, 64
1, 90109, Note_on_c, 0, 65, 59
1, 90136, Note_off_c, 0, 67, 64
1, 90150, Note_off_c, 0, 65, 64
1, 90182, Note_on_c, 0, 74, 72
1, 90190, Note_off_c, 0, 53, 64
1, 90193, Note_on_c, 0, 46, 39
1, 90279, Note_off_c, 0, 74, 64
1, 90287, Note_on_c, 0, 69, 51
1, 90391, Note_off_c, 0, 46, 64
1, 90405, Note_off_c, 0, 69, 64
1, 90409, Note_on_c, 0, 70, 47
1, 90426, Note_on_c, 0, 50, 40
1, 90522, Note_on_c, 0, 74, 46
1, 90535, Note_off_c, 0, 70, 64
1, 90622, Note_off_c, 0, 74, 64
1, 90630, Note_off_c, 0, 50, 64
1, 90636, Note_on_c, 0, 63, 60
1, 90639, Note_on_c, 0, 55, 43
1, 90747, Note_off_c, 0, 63, 64
1, 90756, Note_on_c, 0, 74, 52
1, 90847, Note_off_c, 0, 74, 64
1, 90852, Note_on_c, 0, 72, 55
1, 90861, Note_off_c, 0, 55, 64
1, 90875, Note_on_c, 0, 51, 41
1, 90970, Note_on_c, 0, 70, 50
1, 90994, Note_off_c, 0, 72, 64
1, 91087, Note_on_c, 0, 69, 50
1, 91103, Note_off_c, 0, 70, 64
1, 91106, Note_off_c, 0, 51, 64
1, 91117, Note_on_c, 0, 53, 66
1, 91198, Note_on_c, 0, 67, 61
1, 91203, Note_off_c, 0, 69, 64
1, 91321, Note_off_c, 0, 53, 64
1, 91332, Note_off_c, 0, 67, 64
1, 91332, Note_on_c, 0, 48, 42
1, 91338, Note_on_c, 0, 69, 50
1, 91451, Note_off_c, 0, 69, 64
1, 91455, Note_on_c, 0, 72, 51
1, 91544, Note_off_c, 0, 48, 64
1, 91560, Note_on_c, 0, 45, 34
1, 91569, Note_off_c, 0, 72, 64
1, 91583, Note_on_c, 0, 65, 30
1, 91653, Note_off_c, 0, 45, 64
1, 91653, Note_off_c, 0, 65, 64
1, 91700, Note_on_c, 0, 75, 35
1, 91774, Note_on_c, 0, 41, 45
1, 91819, Note_on_c, 0, 74, 48
1, 91819, Note_off_c, 0, 75, 64
1, 91837, Note_off_c, 0, 41, 64
1, 91925, Note_off_c, 0, 74, 64
1, 91942, Note_on_c, 0, 72, 37
1, 92031, Note_off_c, 0, 72, 64
1, 92064, Note_on_c, 0, 46, 27
1, 92068, Note_on_c, 0, 74, 48
1, 92299, Note_off_c, 0, 74, 64
1, 92316, Note_on_c, 0, 82, 51
1, 92319, Note_on_c, 0, 34, 29
1, 92323, Note_off_c, 0, 46, 64
1, 92472, Note_off_c, 0, 82, 64
1, 92547, Note_on_c, 0, 70, 39
1, 92563, Note_on_c, 0, 74, 50
1, 92613, Note_off_c, 0, 70, 64
1, 92613, Note_off_c, 0, 74, 64
1, 92672, Note_off_c, 0, 34, 64
1, 92783, Note_on_c, 0, 75, 46
1, 92791, Note_on_c, 0, 72, 44
1, 92839, Note_off_c, 0, 72, 64
1, 92890, Note_off_c, 0, 75, 64
1, 93046, Note_on_c, 0, 74, 52
1, 93046, Note_on_c, 0, 77, 51
1, 93284, Note_on_c, 0, 70, 39
1, 93366, Note_off_c, 0, 70, 64
1, 93499, Note_off_c, 0, 74, 64
1, 93536, Note_on_c, 0, 67, 32
1, 93539, Note_on_c, 0, 79, 74
1, 93543, Note_on_c, 0, 75, 34
1, 93563, Note_off_c, 0, 77, 64
1, 93611, Note_off_c, 0, 67, 64
1, 93789, Note_on_c, 0, 63, 36
1, 93831, Note_off_c, 0, 75, 64
1, 93865, Note_off_c, 0, 63, 64
1, 94028, Note_on_c, 0, 77, 71
1, 94028, Note_on_c, 0, 70, 28
1, 94028, Note_on_c, 0, 74, 47
1, 94043, Note_off_c, 0, 79, 64
1, 94223, Note_off_c, 0, 74, 64
1, 94263, Note_on_c, 0, 82, 40
1, 94277, Note_on_c, 0, 58, 41
1, 94309, Note_off_c, 0, 77, 64
1, 94338, Note_off_c, 0, 58, 64
1, 94530, Note_on_c, 0, 55, 33
1, 94530, Note_on_c, 0, 75, 28
1, 94603, Note_off_c, 0, 55, 64
1, 94753, Note_on_c, 0, 80, 53
1, 94767, Note_on_c, 0, 51, 50
1, 94787, Note_off_c, 0, 82, 64
1, 94790, Note_off_c, 0, 70, 64
1, 94811, Note_off_c, 0, 51, 64
1, 94820, Note_off_c, 0, 75, 64
1, 94865, Note_on_c, 0, 79, 76
1, 94872, Note_off_c, 0, 80, 64
1, 94898, Note_off_c, 0, 79, 64
1, 94984, Note_on_c, 0, 58, 37
1, 94998, Note_on_c, 0, 79, 49
1, 94998, Note_on_c, 0, 70, 38
1, 95012, Note_on_c, 0, 75, 29
1, 95107, Note_off_c, 0, 58, 64
1, 95118, Note_on_c, 0, 60, 46
1, 95210, Note_off_c, 0, 60, 64
1, 95223, Note_off_c, 0, 75, 64
1, 95246, Note_on_c, 0, 62, 38
1, 95249, Note_on_c, 0, 74, 29
1, 95265, Note_on_c, 0, 77, 44
1, 95299, Note_off_c, 0, 79, 64
1, 95335, Note_off_c, 0, 70, 64
1, 95335, Note_off_c, 0, 62, 64
1, 95365, Note_on_c, 0, 60, 41
1, 95440, Note_off_c, 0, 74, 64
1, 95457, Note_off_c, 0, 60, 64
1, 95460, Note_off_c, 0, 77, 64
1, 95460, Note_on_c, 0, 67, 48
1, 95477, Note_on_c, 0, 58, 29
1, 95600, Note_on_c, 0, 57, 42
1, 95600, Note_off_c, 0, 58, 64
1, 95660, Note_off_c, 0, 57, 64
1, 95698, Note_on_c, 0, 77, 72
1, 95708, Note_on_c, 0, 74, 62
1, 95717, Note_on_c, 0, 58, 45
1, 95748, Note_off_c, 0, 74, 64
1, 95797, Note_off_c, 0, 77, 64
1, 95820, Note_off_c, 0, 58, 64
1, 95823, Note_on_c, 0, 55, 67
1, 95939, Note_off_c, 0, 55, 64
1, 95948, Note_on_c, 0, 74, 62
1, 95948, Note_on_c, 0, 77, 65
1, 95953, Note_on_c, 0, 48, 61
1, 96062, Note_on_c, 0, 55, 67
1, 96068, Note_off_c, 0, 48, 64
1, 96151, Note_off_c, 0, 74, 64
1, 96151, Note_off_c, 0, 55, 64
1, 96177, Note_on_c, 0, 60, 62
1, 96177, Note_on_c, 0, 75, 39
1, 96180, Note_on_c, 0, 72, 32
1, 96187, Note_off_c, 0, 77, 64
1, 96288, Note_off_c, 0, 60, 64
1, 96294, Note_on_c, 0, 58, 50
1, 96312, Note_off_c, 0, 67, 64
1, 96399, Note_off_c, 0, 58, 64
1, 96411, Note_on_c, 0, 57, 49
1, 96416, Note_on_c, 0, 65, 41
1, 96427, Note_off_c, 0, 75, 64
1, 96427, Note_off_c, 0, 72, 64
1, 96493, Note_off_c, 0, 57, 64
1, 96532, Note_on_c, 0, 55, 57
1, 96597, Note_off_c, 0, 55, 64
1, 96633, Note_on_c, 0, 75, 66
1, 96645, Note_on_c, 0, 57, 49
1, 96645, Note_on_c, 0, 72, 51
1, 96692, Note_off_c, 0, 72, 64
1, 96733, Note_off_c, 0, 75, 64
1, 96755, Note_on_c, 0, 53, 76
1, 96759, Note_off_c, 0, 57, 64
1, 96856, Note_off_c, 0, 53, 64
1, 96868, Note_on_c, 0, 46, 51
1, 96868, Note_on_c, 0, 75, 58
1, 96883, Note_on_c, 0, 72, 47
1, 96996, Note_off_c, 0, 46, 64
1, 96996, Note_on_c, 0, 53, 83
1, 97073, Note_off_c, 0, 72, 64
1, 97093, Note_off_c, 0, 53, 64
1, 97101, Note_on_c, 0, 58, 38
1, 97127, Note_off_c, 0, 65, 64
1, 97127, Note_on_c, 0, 74, 62
1, 97137, Note_on_c, 0, 70, 27
1, 97149, Control_c, 0, 64, 127
1, 97154, Note_off_c, 0, 75, 64
1, 97202, Note_off_c, 0, 58, 64
1, 97223, Note_on_c, 0, 57, 44
1, 97246, Control_c, 0, 64, 0
1, 97304, Note_off_c, 0, 57, 64
1, 97330, Note_on_c, 0, 55, 61
1, 97330, Note_off_c, 0, 74, 64
1, 97330, Note_on_c, 0, 63, 56
1, 97385, Note_off_c, 0, 70, 64
1, 97438, Note_off_c, 0, 55, 64
1, 97455, Note_on_c, 0, 53, 72
1, 97536, Note_off_c, 0, 53, 64
1, 97552, Note_on_c, 0, 74, 69
1, 97560, Note_on_c, 0, 70, 49
1, 97572, Note_on_c, 0, 55, 55
1, 97638, Note_off_c, 0, 74, 64
1, 97656, Note_off_c, 0, 70, 64
1, 97664, Note_on_c, 0, 51, 56
1, 97667, Note_off_c, 0, 55, 64
1, 97783, Note_off_c, 0, 51, 64
1, 97790, Note_on_c, 0, 45, 51
1, 97794, Note_on_c, 0, 70, 56
1, 97794, Note_on_c, 0, 74, 66
1, 97907, Note_on_c, 0, 51, 59
1, 97907, Note_off_c, 0, 45, 64
1, 97998, Note_off_c, 0, 51, 64
1, 98004, Note_off_c, 0, 70, 64
1, 98015, Note_on_c, 0, 57, 54
1, 98037, Note_on_c, 0, 72, 42
1, 98051, Note_off_c, 0, 74, 64
1, 98051, Note_on_c, 0, 69, 28
1, 98131, Note_off_c, 0, 57, 64
1, 98138, Note_on_c, 0, 55, 60
1, 98188, Note_off_c, 0, 63, 64
1, 98202, Note_off_c, 0, 69, 64
1, 98202, Note_off_c, 0, 55, 64
1, 98238, Note_on_c, 0, 54, 66
1, 98249, Note_off_c, 0, 72, 64
1, 98258, Note_on_c, 0, 62, 56
1, 98360, Note_off_c, 0, 54, 64
1, 98377, Note_on_c, 0, 52, 68
1, 98466, Note_off_c, 0, 52, 64
1, 98474, Note_on_c, 0, 72, 43
1, 98482, Note_on_c, 0, 54, 65
1, 98486, Note_on_c, 0, 69, 30
1, 98549, Note_off_c, 0, 69, 64
1, 98566, Note_off_c, 0, 72, 64
1, 98580, Note_on_c, 0, 50, 71
1, 98591, Note_off_c, 0, 54, 64
1, 98613, Note_off_c, 0, 50, 64
1, 98711, Note_on_c, 0, 43, 53
1, 98716, Note_on_c, 0, 72, 61
1, 98716, Note_on_c, 0, 69, 44
1, 98823, Note_on_c, 0, 50, 63
1, 98859, Note_off_c, 0, 43, 64
1, 98893, Note_off_c, 0, 69, 64
1, 98912, Note_off_c, 0, 50, 64
1, 98931, Note_on_c, 0, 55, 58
1, 98951, Note_on_c, 0, 70, 59
1, 98962, Note_off_c, 0, 62, 64
1, 98962, Note_on_c, 0, 67, 37
1, 98984, Note_off_c, 0, 72, 64
1, 99006, Note_off_c, 0, 55, 64
1, 99006, Control_c, 0, 64, 127
1, 99018, Note_off_c, 0, 67, 64
1, 99048, Note_on_c, 0, 57, 53
1, 99070, Note_off_c, 0, 70, 64
1, 99106, Note_off_c, 0, 57, 64
1, 99170, Note_on_c, 0, 55, 55
1, 99174, Note_on_c, 0, 82, 91
1, 99187, Control_c, 0, 64, 0
1, 99269, Note_off_c, 0, 55, 64
1, 99272, Note_on_c, 0, 53, 79
1, 99301, Note_on_c, 0, 74, 68
1, 99382, Note_on_c, 0, 79, 80
1, 99385, Note_on_c, 0, 51, 55
1, 99388, Note_off_c, 0, 53, 64
1, 99419, Note_off_c, 0, 74, 64
1, 99489, Note_on_c, 0, 50, 66
1, 99499, Note_on_c, 0, 77, 69
1, 99508, Note_off_c, 0, 51, 64
1, 99521, Note_off_c, 0, 79, 64
1, 99603, Note_off_c, 0, 50, 64
1, 99614, Note_on_c, 0, 75, 73
1, 99617, Note_on_c, 0, 48, 54
1, 99620, Note_off_c, 0, 77, 64
1, 99737, Note_on_c, 0, 55, 59
1, 99751, Note_off_c, 0, 48, 64
1, 99826, Note_off_c, 0, 55, 64
1, 99851, Note_off_c, 0, 82, 64
1, 99854, Note_on_c, 0, 60, 51
1, 99861, Note_on_c, 0, 81, 82
1, 99948, Note_off_c, 0, 60, 64
1, 99957, Note_on_c, 0, 79, 96
1, 99967, Note_on_c, 0, 62, 49
1, 99990, Note_off_c, 0, 81, 64
1, 100012, Note_off_c, 0, 62, 64
1, 100066, Note_on_c, 0, 81, 69
1, 100071, Note_on_c, 0, 60, 51
1, 100080, Note_off_c, 0, 79, 64
1, 100151, Note_off_c, 0, 60, 64
1, 100171, Note_on_c, 0, 58, 45
1, 100179, Note_on_c, 0, 78, 83
1, 100202, Note_off_c, 0, 81, 64
1, 100261, Note_off_c, 0, 58, 64
1, 100272, Note_on_c, 0, 57, 45
1, 100288, Note_on_c, 0, 79, 87
1, 100315, Note_off_c, 0, 78, 64
1, 100372, Note_off_c, 0, 57, 64
1, 100386, Note_on_c, 0, 55, 39
1, 100386, Note_on_c, 0, 81, 82
1, 100405, Note_off_c, 0, 75, 64
1, 100408, Note_off_c, 0, 79, 64
1, 100492, Note_off_c, 0, 55, 64
1, 100513, Note_on_c, 0, 54, 51
1, 100536, Note_on_c, 0, 75, 54
1, 100566, Note_off_c, 0, 81, 64
1, 100625, Note_on_c, 0, 74, 63
1, 100631, Note_off_c, 0, 75, 64
1, 100658, Note_on_c, 0, 62, 46
1, 100676, Note_off_c, 0, 74, 64
1, 100683, Note_off_c, 0, 54, 64
1, 100683, Note_on_c, 0, 75, 62
1, 100727, Note_off_c, 0, 62, 64
1, 100747, Note_off_c, 0, 75, 64
1, 100751, Note_on_c, 0, 74, 65
1, 100754, Note_on_c, 0, 61, 50
1, 100797, Note_off_c, 0, 74, 64
1, 100800, Note_on_c, 0, 75, 64
1, 100851, Note_off_c, 0, 61, 64
1, 100859, Note_off_c, 0, 75, 64
1, 100859, Note_on_c, 0, 62, 55
1, 100864, Note_on_c, 0, 74, 63
1, 100903, Note_off_c, 0, 74, 64
1, 100915, Note_on_c, 0, 75, 64
1, 100945, Note_off_c, 0, 62, 64
1, 100957, Note_off_c, 0, 75, 64
1, 100960, Note_on_c, 0, 74, 73
1, 100968, Note_on_c, 0, 50, 65
1, 101012, Note_off_c, 0, 74, 64
1, 101020, Note_on_c, 0, 75, 72
1, 101062, Note_off_c, 0, 50, 64
1, 101062, Note_on_c, 0, 54, 64
1, 101077, Note_off_c, 0, 75, 64
1, 101077, Note_on_c, 0, 74, 61
1, 101116, Note_off_c, 0, 74, 64
1, 101126, Note_on_c, 0, 75, 72
1, 101130, Note_off_c, 0, 54, 64
1, 101171, Note_on_c, 0, 52, 59
1, 101179, Note_on_c, 0, 74, 53
1, 101179, Note_off_c, 0, 75, 64
1, 101227, Note_off_c, 0, 74, 64
1, 101233, Note_on_c, 0, 75, 64
1, 101260, Note_on_c, 0, 55, 69
1, 101271, Note_off_c, 0, 52, 64
1, 101285, Note_off_c, 0, 75, 64
1, 101293, Note_on_c, 0, 74, 52
1, 101346, Note_off_c, 0, 74, 64
1, 101346, Note_on_c, 0, 75, 63
1, 101358, Note_on_c, 0, 54, 86
1, 101377, Note_off_c, 0, 55, 64
1, 101400, Note_off_c, 0, 75, 64
1, 101411, Note_on_c, 0, 74, 58
1, 101455, Note_off_c, 0, 54, 64
1, 101461, Note_off_c, 0, 74, 64
1, 101469, Note_on_c, 0, 57, 64
1, 101478, Note_on_c, 0, 75, 56
1, 101527, Note_off_c, 0, 75, 64
1, 101531, Note_on_c, 0, 74, 52
1, 101564, Note_off_c, 0, 57, 64
1, 101589, Note_off_c, 0, 74, 64
1, 101589, Note_on_c, 0, 50, 72
1, 101603, Note_on_c, 0, 75, 40
1, 101648, Note_off_c, 0, 75, 64
1, 101648, Note_on_c, 0, 74, 63
1, 101676, Note_off_c, 0, 50, 64
1, 101697, Note_on_c, 0, 54, 72
1, 101715, Note_off_c, 0, 74, 64
1, 101725, Note_on_c, 0, 75, 43
1, 101775, Note_off_c, 0, 75, 64
1, 101782, Note_on_c, 0, 74, 53
1, 101809, Note_on_c, 0, 55, 84
1, 101809, Note_off_c, 0, 54, 64
1, 101843, Note_off_c, 0, 74, 64
1, 101846, Note_on_c, 0, 75, 49
1, 101896, Note_off_c, 0, 75, 64
1, 101904, Note_on_c, 0, 74, 62
1, 101915, Note_on_c, 0, 58, 65
1, 101921, Note_off_c, 0, 55, 64
1, 101951, Note_off_c, 0, 74, 64
1, 101963, Note_on_c, 0, 75, 51
1, 102013, Note_off_c, 0, 58, 64
1, 102013, Note_off_c, 0, 75, 64
1, 102018, Note_on_c, 0, 74, 54
1, 102031, Note_on_c, 0, 50, 81
1, 102071, Note_off_c, 0, 74, 64
1, 102080, Note_on_c, 0, 75, 53
1, 102132, Note_off_c, 0, 75, 64
1, 102132, Note_on_c, 0, 74, 58
1, 102143, Note_on_c, 0, 55, 76
1, 102160, Note_off_c, 0, 50, 64
1, 102187, Note_off_c, 0, 74, 64
1, 102197, Note_on_c, 0, 75, 54
1, 102247, Note_on_c, 0, 57, 76
1, 102250, Note_off_c, 0, 75, 64
1, 102255, Note_off_c, 0, 55, 64
1, 102255, Note_on_c, 0, 74, 50
1, 102308, Note_off_c, 0, 74, 64
1, 102321, Note_on_c, 0, 75, 45
1, 102352, Note_off_c, 0, 57, 64
1, 102358, Note_on_c, 0, 60, 70
1, 102364, Note_off_c, 0, 75, 64
1, 102374, Note_on_c, 0, 74, 50
1, 102422, Note_off_c, 0, 74, 64
1, 102433, Note_on_c, 0, 75, 40
1, 102470, Note_off_c, 0, 60, 64
1, 102470, Note_on_c, 0, 57, 60
1, 102480, Note_off_c, 0, 75, 64
1, 102488, Note_on_c, 0, 74, 51
1, 102531, Note_off_c, 0, 74, 64
1, 102539, Note_on_c, 0, 75, 46
1, 102552, Note_on_c, 0, 54, 71
1, 102577, Note_off_c, 0, 57, 64
1, 102581, Note_off_c, 0, 75, 64
1, 102591, Note_on_c, 0, 74, 62
1, 102630, Note_off_c, 0, 74, 64
1, 102644, Note_on_c, 0, 75, 48
1, 102658, Note_off_c, 0, 54, 64
1, 102664, Note_on_c, 0, 50, 64
1, 102687, Note_off_c, 0, 75, 64
1, 102690, Note_on_c, 0, 74, 55
1, 102739, Note_off_c, 0, 74, 64
1, 102748, Note_on_c, 0, 75, 54
1, 102756, Note_off_c, 0, 50, 64
1, 102764, Note_on_c, 0, 60, 61
1, 102792, Note_off_c, 0, 75, 64
1, 102804, Note_on_c, 0, 74, 54
1, 102845, Note_off_c, 0, 74, 64
1, 102851, Note_on_c, 0, 75, 52
1, 102867, Note_on_c, 0, 58, 60
1, 102878, Note_off_c, 0, 60, 64
1, 102899, Note_off_c, 0, 75, 64
1, 102943, Note_on_c, 0, 74, 13
1, 102946, Note_off_c, 0, 58, 64
1, 102970, Note_on_c, 0, 75, 46
1, 102970, Note_on_c, 0, 57, 59
1, 102982, Note_off_c, 0, 74, 64
1, 103020, Note_off_c, 0, 75, 64
1, 103057, Note_off_c, 0, 57, 64
1, 103069, Note_on_c, 0, 74, 18
1, 103088, Note_on_c, 0, 58, 50
1, 103177, Note_off_c, 0, 58, 64
1, 103218, Note_on_c, 0, 62, 53
1, 103291, Note_off_c, 0, 62, 64
1, 103311, Note_on_c, 0, 67, 44
1, 103316, Note_on_c, 0, 58, 45
1, 103325, Note_off_c, 0, 74, 64
1, 103455, Note_on_c, 0, 55, 41
1, 103455, Note_off_c, 0, 58, 64
1, 103505, Note_off_c, 0, 55, 64
1, 103542, Note_on_c, 0, 70, 53
1, 103558, Note_on_c, 0, 50, 48
1, 103569, Note_off_c, 0, 67, 64
1, 103670, Note_on_c, 0, 53, 72
1, 103676, Note_off_c, 0, 50, 64
1, 103751, Note_off_c, 0, 53, 64
1, 103775, Note_on_c, 0, 74, 54
1, 103787, Note_off_c, 0, 70, 64
1, 103800, Note_on_c, 0, 52, 56
1, 103846, Note_off_c, 0, 52, 64
1, 103885, Note_on_c, 0, 50, 58
1, 103995, Note_off_c, 0, 74, 64
1, 104005, Note_on_c, 0, 72, 58
1, 104008, Note_off_c, 0, 50, 64
1, 104015, Note_on_c, 0, 52, 59
1, 104122, Note_off_c, 0, 72, 64
1, 104133, Note_on_c, 0, 74, 57
1, 104155, Note_on_c, 0, 60, 51
1, 104180, Note_off_c, 0, 74, 64
1, 104197, Note_off_c, 0, 52, 64
1, 104197, Note_on_c, 0, 72, 51
1, 104241, Note_off_c, 0, 60, 64
1, 104252, Note_off_c, 0, 72, 64
1, 104260, Note_on_c, 0, 59, 53
1, 104260, Note_on_c, 0, 74, 50
1, 104308, Note_off_c, 0, 74, 64
1, 104318, Note_on_c, 0, 72, 48
1, 104325, Note_off_c, 0, 59, 64
1, 104360, Note_on_c, 0, 60, 62
1, 104374, Note_off_c, 0, 72, 64
1, 104383, Note_on_c, 0, 74, 49
1, 104424, Note_off_c, 0, 74, 64
1, 104427, Note_off_c, 0, 60, 64
1, 104435, Note_on_c, 0, 72, 48
1, 104458, Note_on_c, 0, 48, 59
1, 104488, Note_off_c, 0, 72, 64
1, 104495, Note_on_c, 0, 74, 50
1, 104537, Note_off_c, 0, 74, 64
1, 104547, Note_on_c, 0, 72, 49
1, 104561, Note_on_c, 0, 52, 57
1, 104567, Note_off_c, 0, 48, 64
1, 104603, Note_off_c, 0, 72, 64
1, 104609, Note_on_c, 0, 74, 49
1, 104634, Note_off_c, 0, 52, 64
1, 104653, Note_off_c, 0, 74, 64
1, 104653, Note_on_c, 0, 50, 51
1, 104665, Note_on_c, 0, 72, 44
1, 104723, Note_off_c, 0, 72, 64
1, 104729, Note_on_c, 0, 74, 46
1, 104746, Note_off_c, 0, 50, 64
1, 104746, Note_on_c, 0, 53, 67
1, 104771, Note_off_c, 0, 74, 64
1, 104786, Note_on_c, 0, 72, 43
1, 104845, Note_off_c, 0, 72, 64
1, 104854, Note_off_c, 0, 53, 64
1, 104859, Note_on_c, 0, 74, 42
1, 104871, Note_on_c, 0, 52, 65
1, 104907, Note_off_c, 0, 74, 64
1, 104913, Note_on_c, 0, 72, 43
1, 104946, Note_off_c, 0, 52, 64
1, 104971, Note_off_c, 0, 72, 64
1, 104982, Note_on_c, 0, 74, 38
1, 104987, Note_on_c, 0, 55, 60
1, 105034, Note_off_c, 0, 74, 64
1, 105044, Note_on_c, 0, 72, 37
1, 105068, Note_off_c, 0, 55, 64
1, 105104, Note_off_c, 0, 72, 64
1, 105104, Note_on_c, 0, 48, 55
1, 105121, Note_on_c, 0, 74, 39
1, 105171, Note_off_c, 0, 74, 64
1, 105180, Note_on_c, 0, 72, 42
1, 105213, Note_on_c, 0, 52, 78
1, 105213, Note_off_c, 0, 48, 64
1, 105238, Note_off_c, 0, 72, 64
1, 105249, Note_on_c, 0, 74, 50
1, 105314, Note_off_c, 0, 74, 64
1, 105317, Note_on_c, 0, 53, 100
1, 105325, Note_on_c, 0, 72, 55
1, 105328, Note_off_c, 0, 52, 64
1, 105377, Note_off_c, 0, 72, 64
1, 105385, Note_on_c, 0, 74, 62
1, 105422, Note_off_c, 0, 53, 64
1, 105430, Note_on_c, 0, 57, 58
1, 105441, Note_off_c, 0, 74, 64
1, 105455, Note_on_c, 0, 72, 54
1, 105503, Note_off_c, 0, 57, 64
1, 105509, Note_off_c, 0, 72, 64
1, 105525, Note_on_c, 0, 74, 66
1, 105525, Note_on_c, 0, 48, 71
1, 105575, Note_off_c, 0, 74, 64
1, 105597, Note_on_c, 0, 72, 58
1, 105629, Note_on_c, 0, 53, 99
1, 105645, Note_off_c, 0, 48, 64
1, 105645, Note_off_c, 0, 72, 64
1, 105661, Note_on_c, 0, 74, 66
1, 105717, Note_off_c, 0, 74, 64
1, 105734, Note_on_c, 0, 72, 61
1, 105740, Note_on_c, 0, 55, 81
1, 105746, Note_off_c, 0, 53, 64
1, 105792, Note_off_c, 0, 72, 64
1, 105801, Note_on_c, 0, 74, 69
1, 105846, Note_off_c, 0, 55, 64
1, 105846, Note_on_c, 0, 58, 70
1, 105860, Note_off_c, 0, 74, 64
1, 105868, Note_on_c, 0, 72, 57
1, 105927, Note_off_c, 0, 72, 64
1, 105937, Note_on_c, 0, 74, 65
1, 105956, Note_off_c, 0, 58, 64
1, 105965, Note_on_c, 0, 55, 81
1, 105998, Note_off_c, 0, 74, 64
1, 106013, Note_on_c, 0, 72, 60
1, 106057, Note_on_c, 0, 52, 83
1, 106062, Note_off_c, 0, 55, 64
1, 106062, Note_off_c, 0, 72, 64
1, 106082, Note_on_c, 0, 74, 66
1, 106133, Note_off_c, 0, 74, 64
1, 106154, Note_off_c, 0, 52, 64
1, 106165, Note_on_c, 0, 48, 66
1, 106165, Note_on_c, 0, 72, 55
1, 106213, Note_off_c, 0, 72, 64
1, 106225, Note_on_c, 0, 74, 63
1, 106260, Note_off_c, 0, 48, 64
1, 106260, Note_on_c, 0, 58, 70
1, 106271, Note_off_c, 0, 74, 64
1, 106283, Note_on_c, 0, 72, 51
1, 106344, Note_off_c, 0, 58, 64
1, 106344, Note_off_c, 0, 72, 64
1, 106349, Note_on_c, 0, 74, 63
1, 106367, Note_on_c, 0, 57, 62
1, 106408, Note_off_c, 0, 74, 64
1, 106408, Note_on_c, 0, 72, 51
1, 106464, Note_off_c, 0, 72, 64
1, 106467, Note_on_c, 0, 55, 67
1, 106467, Note_on_c, 0, 74, 70
1, 106480, Note_off_c, 0, 57, 64
1, 106519, Note_off_c, 0, 74, 64
1, 106530, Note_on_c, 0, 72, 47
1, 106570, Note_off_c, 0, 55, 64
1, 106570, Note_off_c, 0, 72, 64
1, 106592, Note_on_c, 0, 74, 55
1, 106598, Note_on_c, 0, 57, 70
1, 106611, Note_on_c, 0, 72, 86
1, 106636, Note_off_c, 0, 74, 64
1, 106687, Note_off_c, 0, 57, 64
1, 106712, Note_on_c, 0, 60, 65
1, 106812, Note_on_c, 0, 57, 58
1, 106812, Note_off_c, 0, 60, 64
1, 106821, Note_on_c, 0, 65, 89
1, 106881, Note_off_c, 0, 72, 64
1, 106912, Note_on_c, 0, 53, 84
1, 106929, Note_off_c, 0, 57, 64
1, 107001, Note_off_c, 0, 53, 64
1, 107019, Note_off_c, 0, 65, 64
1, 107032, Note_on_c, 0, 48, 51
1, 107040, Note_on_c, 0, 69, 87
1, 107160, Note_on_c, 0, 51, 70
1, 107164, Note_off_c, 0, 48, 64
1, 107252, Note_off_c, 0, 69, 64
1, 107260, Note_on_c, 0, 72, 92
1, 107264, Note_off_c, 0, 51, 64
1, 107269, Note_on_c, 0, 50, 72
1, 107369, Note_off_c, 0, 50, 64
1, 107377, Note_on_c, 0, 48, 69
1, 107448, Note_off_c, 0, 72, 64
1, 107486, Note_off_c, 0, 48, 64
1, 107486, Note_on_c, 0, 77, 95
1, 107495, Note_on_c, 0, 50, 79
1, 107587, Note_off_c, 0, 77, 64
1, 107587, Note_off_c, 0, 50, 64
1, 107603, Note_on_c, 0, 53, 83
1, 107709, Note_off_c, 0, 53, 64
1, 107714, Note_on_c, 0, 50, 71
1, 107714, Note_on_c, 0, 65, 94
1, 107812, Note_on_c, 0, 46, 52
1, 107815, Note_off_c, 0, 50, 64
1, 107815, Note_off_c, 0, 65, 64
1, 107946, Note_on_c, 0, 70, 88
1, 107946, Note_on_c, 0, 43, 61
1, 107952, Note_off_c, 0, 46, 64
1, 108062, Note_on_c, 0, 46, 62
1, 108079, Note_off_c, 0, 43, 64
1, 108160, Note_on_c, 0, 62, 72
1, 108182, Note_on_c, 0, 45, 70
1, 108208, Note_off_c, 0, 46, 64
1, 108228, Note_off_c, 0, 62, 64
1, 108283, Note_on_c, 0, 43, 69
1, 108288, Note_off_c, 0, 45, 64
1, 108392, Note_off_c, 0, 43, 64
1, 108392, Note_on_c, 0, 64, 75
1, 108403, Note_on_c, 0, 48, 70
1, 108497, Note_off_c, 0, 64, 64
1, 108497, Note_on_c, 0, 67, 61
1, 108503, Note_off_c, 0, 48, 64
1, 108514, Note_on_c, 0, 52, 71
1, 108590, Note_off_c, 0, 52, 64
1, 108611, Note_on_c, 0, 48, 38
1, 108625, Note_on_c, 0, 64, 60
1, 108637, Note_off_c, 0, 67, 64
1, 108707, Note_off_c, 0, 48, 64
1, 108721, Note_on_c, 0, 45, 41
1, 108731, Note_on_c, 0, 60, 65
1, 108776, Note_off_c, 0, 64, 64
1, 108790, Note_off_c, 0, 45, 64
1, 108818, Note_off_c, 0, 70, 64
1, 108837, Note_on_c, 0, 41, 46
1, 108840, Note_on_c, 0, 69, 63
1, 108870, Note_off_c, 0, 60, 64
1, 108938, Note_off_c, 0, 41, 64
1, 108943, Note_on_c, 0, 45, 54
1, 109007, Note_off_c, 0, 45, 64
1, 109044, Note_on_c, 0, 60, 56
1, 109058, Note_on_c, 0, 43, 50
1, 109139, Note_off_c, 0, 60, 64
1, 109149, Note_on_c, 0, 41, 50
1, 109155, Note_off_c, 0, 43, 64
1, 109191, Note_off_c, 0, 41, 64
1, 109278, Note_on_c, 0, 62, 49
1, 109278, Note_on_c, 0, 46, 62
1, 109364, Note_off_c, 0, 62, 64
1, 109386, Note_on_c, 0, 65, 49
1, 109500, Note_off_c, 0, 65, 64
1, 109504, Note_on_c, 0, 62, 60
1, 109514, Note_on_c, 0, 48, 51
1, 109520, Note_off_c, 0, 46, 64
1, 109600, Note_off_c, 0, 62, 64
1, 109623, Note_on_c, 0, 60, 56
1, 109718, Note_off_c, 0, 48, 64
1, 109718, Note_on_c, 0, 58, 44
1, 109731, Note_on_c, 0, 50, 47
1, 109731, Note_off_c, 0, 60, 64
1, 109749, Note_off_c, 0, 69, 64
1, 109848, Note_on_c, 0, 69, 50
1, 109943, Note_off_c, 0, 50, 64
1, 109962, Note_on_c, 0, 67, 71
1, 109966, Note_on_c, 0, 46, 39
1, 109983, Note_off_c, 0, 69, 64
1, 110071, Note_on_c, 0, 65, 64
1, 110075, Note_off_c, 0, 67, 64
1, 110172, Note_on_c, 0, 64, 74
1, 110182, Note_off_c, 0, 65, 64
1, 110192, Note_on_c, 0, 48, 40
1, 110199, Note_off_c, 0, 46, 64
1, 110291, Note_on_c, 0, 67, 71
1, 110299, Note_off_c, 0, 64, 64
1, 110398, Note_on_c, 0, 64, 68
1, 110401, Note_off_c, 0, 67, 64
1, 110412, Note_off_c, 0, 48, 64
1, 110416, Note_on_c, 0, 50, 44
1, 110498, Note_off_c, 0, 64, 64
1, 110504, Note_on_c, 0, 62, 65
1, 110589, Note_off_c, 0, 50, 64
1, 110604, Note_off_c, 0, 58, 64
1, 110607, Note_off_c, 0, 62, 64
1, 110611, Note_on_c, 0, 60, 64
1, 110673, Note_on_c, 0, 52, 40
1, 110726, Note_on_c, 0, 58, 48
1, 110776, Control_c, 0, 64, 127
1, 110785, Note_off_c, 0, 52, 64
1, 110809, Note_off_c, 0, 60, 64
1, 110823, Note_on_c, 0, 57, 56
1, 110838, Note_on_c, 0, 48, 31
1, 110862, Note_off_c, 0, 58, 64
1, 110927, Note_on_c, 0, 55, 66
1, 110937, Note_off_c, 0, 57, 64
1, 111004, Control_c, 0, 64, 0
1, 111035, Note_off_c, 0, 55, 64
1, 111055, Note_on_c, 0, 57, 74
1, 111060, Note_off_c, 0, 48, 64
1, 111068, Note_on_c, 0, 36, 59
1, 111158, Note_on_c, 0, 60, 67
1, 111181, Note_off_c, 0, 57, 64
1, 111188, Note_off_c, 0, 36, 64
1, 111219, Control_c, 0, 64, 127
1, 111280, Note_off_c, 0, 60, 64
1, 111280, Note_on_c, 0, 65, 65
1, 111280, Note_on_c, 0, 45, 55
1, 111380, Note_on_c, 0, 64, 63
1, 111380, Note_off_c, 0, 65, 64
1, 111495, Control_c, 0, 64, 0
1, 111504, Note_on_c, 0, 62, 65
1, 111508, Note_on_c, 0, 46, 49
1, 111525, Note_off_c, 0, 64, 64
1, 111525, Note_off_c, 0, 45, 64
1, 111607, Note_on_c, 0, 60, 66
1, 111607, Note_off_c, 0, 62, 64
1, 111710, Note_off_c, 0, 60, 64
1, 111720, Note_on_c, 0, 58, 44
1, 111720, Control_c, 0, 64, 127
1, 111743, Note_on_c, 0, 50, 44
1, 111743, Note_off_c, 0, 46, 64
1, 111829, Note_on_c, 0, 57, 66
1, 111838, Note_off_c, 0, 58, 64
1, 111851, Note_off_c, 0, 50, 64
1, 111868, Control_c, 0, 64, 0
1, 111951, Note_off_c, 0, 57, 64
1, 111951, Note_on_c, 0, 58, 57
1, 111960, Note_on_c, 0, 36, 74
1, 112072, Note_on_c, 0, 64, 68
1, 112078, Note_off_c, 0, 36, 64
1, 112078, Note_off_c, 0, 58, 64
1, 112083, Control_c, 0, 64, 127
1, 112163, Note_on_c, 0, 46, 58
1, 112185, Note_on_c, 0, 67, 65
1, 112206, Note_off_c, 0, 64, 64
1, 112294, Note_on_c, 0, 65, 70
1, 112345, Note_off_c, 0, 67, 64
1, 112358, Control_c, 0, 64, 0
1, 112408, Note_on_c, 0, 48, 68
1, 112408, Note_on_c, 0, 64, 75
1, 112434, Note_off_c, 0, 65, 64
1, 112445, Note_off_c, 0, 46, 64
1, 112526, Note_on_c, 0, 62, 75
1, 112540, Note_off_c, 0, 64, 64
1, 112637, Note_on_c, 0, 60, 73
1, 112646, Note_off_c, 0, 62, 64
1, 112649, Note_off_c, 0, 48, 64
1, 112649, Note_on_c, 0, 52, 79
1, 112729, Control_c, 0, 64, 127
1, 112738, Note_on_c, 0, 58, 73
1, 112760, Note_off_c, 0, 60, 64
1, 112776, Note_off_c, 0, 52, 64
1, 112855, Note_on_c, 0, 36, 89
1, 112855, Note_on_c, 0, 60, 72
1, 112858, Note_off_c, 0, 58, 64
1, 112885, Control_c, 0, 64, 0
1, 112955, Note_on_c, 0, 65, 79
1, 113002, Note_off_c, 0, 60, 64
1, 113066, Note_on_c, 0, 69, 73
1, 113074, Note_on_c, 0, 48, 71
1, 113077, Control_c, 0, 64, 127
1, 113085, Note_off_c, 0, 36, 64
1, 113094, Note_off_c, 0, 65, 64
1, 113178, Note_on_c, 0, 67, 85
1, 113228, Note_off_c, 0, 69, 64
1, 113259, Note_off_c, 0, 48, 64
1, 113281, Control_c, 0, 64, 0
1, 113286, Note_on_c, 0, 50, 72
1, 113292, Note_on_c, 0, 65, 82
1, 113334, Note_off_c, 0, 67, 64
1, 113390, Note_on_c, 0, 64, 88
1, 113414, Note_off_c, 0, 65, 64
1, 113448, Control_c, 0, 64, 127
1, 113498, Note_off_c, 0, 50, 64
1, 113498, Note_on_c, 0, 62, 85
1, 113509, Control_c, 0, 64, 0
1, 113509, Note_off_c, 0, 64, 64
1, 113515, Note_on_c, 0, 53, 102
1, 113601, Note_on_c, 0, 60, 87
1, 113606, Note_off_c, 0, 53, 64
1, 113610, Note_off_c, 0, 62, 64
1, 113617, Control_c, 0, 64, 127
1, 113724, Control_c, 0, 64, 0
1, 113724, Note_on_c, 0, 62, 90
1, 113727, Note_off_c, 0, 60, 64
1, 113727, Note_on_c, 0, 36, 97
1, 113826, Note_on_c, 0, 65, 82
1, 113876, Note_off_c, 0, 62, 64
1, 113893, Note_off_c, 0, 36, 64
1, 113916, Control_c, 0, 64, 127
1, 113940, Note_on_c, 0, 70, 77
1, 113940, Note_on_c, 0, 50, 79
1, 113965, Control_c, 0, 64, 0
1, 113974, Note_off_c, 0, 65, 64
1, 114047, Note_on_c, 0, 69, 81
1, 114108, Note_off_c, 0, 70, 64
1, 114142, Note_off_c, 0, 50, 64
1, 114161, Note_on_c, 0, 67, 84
1, 114161, Note_on_c, 0, 52, 84
1, 114195, Note_off_c, 0, 69, 64
1, 114266, Note_on_c, 0, 65, 77
1, 114284, Note_off_c, 0, 67, 64
1, 114300, Control_c, 0, 64, 127
1, 114359, Control_c, 0, 64, 0
1, 114367, Note_on_c, 0, 64, 85
1, 114373, Note_off_c, 0, 52, 64
1, 114389, Note_off_c, 0, 65, 64
1, 114389, Note_on_c, 0, 55, 76
1, 114478, Note_on_c, 0, 62, 86
1, 114478, Note_off_c, 0, 55, 64
1, 114497, Note_off_c, 0, 64, 64
1, 114515, Control_c, 0, 64, 127
1, 114598, Note_on_c, 0, 36, 90
1, 114606, Note_on_c, 0, 64, 91
1, 114617, Note_off_c, 0, 62, 64
1, 114635, Control_c, 0, 64, 0
1, 114704, Note_on_c, 0, 60, 85
1, 114715, Note_off_c, 0, 64, 64
1, 114823, Note_on_c, 0, 64, 88
1, 114833, Note_off_c, 0, 60, 64
1, 114916, Note_off_c, 0, 64, 64
1, 114922, Note_on_c, 0, 67, 84
1, 115028, Note_off_c, 0, 67, 64
1, 115032, Note_on_c, 0, 70, 68
1, 115130, Note_off_c, 0, 36, 64
1, 115135, Note_off_c, 0, 70, 64
1, 115139, Note_on_c, 0, 72, 85
1, 115241, Note_off_c, 0, 72, 64
1, 115250, Note_on_c, 0, 76, 72
1, 115344, Note_off_c, 0, 76, 64
1, 115359, Note_on_c, 0, 79, 76
1, 115408, Note_off_c, 0, 79, 64
1, 115498, Note_on_c, 0, 81, 50
1, 115627, Note_off_c, 0, 81, 64
1, 115755, Note_on_c, 0, 74, 45
1, 115768, Note_on_c, 0, 69, 18
1, 115776, Note_on_c, 0, 65, 20
1, 115827, Note_off_c, 0, 65, 64
1, 115837, Note_off_c, 0, 69, 64
1, 115854, Note_off_c, 0, 74, 64
1, 115989, Note_on_c, 0, 76, 40
1, 115992, Note_on_c, 0, 69, 33
1, 115996, Note_on_c, 0, 65, 34
1, 116055, Note_off_c, 0, 65, 64
1, 116060, Note_off_c, 0, 69, 64
1, 116108, Note_on_c, 0, 74, 48
1, 116113, Note_off_c, 0, 76, 64
1, 116189, Note_off_c, 0, 74, 64
1, 116216, Note_on_c, 0, 73, 41
1, 116225, Note_on_c, 0, 69, 35
1, 116242, Note_on_c, 0, 65, 29
1, 116284, Note_off_c, 0, 69, 64
1, 116290, Note_off_c, 0, 65, 64
1, 116306, Note_off_c, 0, 73, 64
1, 116331, Note_on_c, 0, 74, 45
1, 116475, Note_on_c, 0, 67, 28
1, 116479, Note_on_c, 0, 64, 29
1, 116531, Note_off_c, 0, 64, 64
1, 116539, Note_off_c, 0, 67, 64
1, 116567, Note_off_c, 0, 74, 64
1, 116587, Note_on_c, 0, 79, 47
1, 116695, Note_on_c, 0, 74, 62
1, 116699, Note_off_c, 0, 79, 64
1, 116712, Note_on_c, 0, 67, 33
1, 116727, Note_on_c, 0, 64, 27
1, 116774, Note_off_c, 0, 67, 64
1, 116779, Note_off_c, 0, 64, 64
1, 116799, Note_off_c, 0, 74, 64
1, 116804, Note_on_c, 0, 71, 67
1, 116908, Note_off_c, 0, 71, 64
1, 116921, Note_on_c, 0, 72, 69
1, 116929, Note_on_c, 0, 64, 37
1, 116932, Note_on_c, 0, 67, 38
1, 116980, Note_off_c, 0, 64, 64
1, 116986, Note_off_c, 0, 67, 64
1, 117019, Note_off_c, 0, 72, 64
1, 117019, Note_on_c, 0, 71, 87
1, 117109, Note_off_c, 0, 71, 64
1, 117131, Note_on_c, 0, 72, 76
1, 117159, Note_on_c, 0, 67, 38
1, 117184, Note_on_c, 0, 64, 36
1, 117217, Note_off_c, 0, 67, 64
1, 117228, Note_off_c, 0, 64, 64
1, 117239, Note_off_c, 0, 72, 64
1, 117247, Note_on_c, 0, 76, 75
1, 117361, Note_off_c, 0, 76, 64
1, 117376, Note_on_c, 0, 77, 76
1, 117487, Note_off_c, 0, 77, 64
1, 117598, Note_on_c, 0, 70, 62
1, 117615, Note_on_c, 0, 62, 35
1, 117626, Note_on_c, 0, 65, 24
1, 117670, Note_off_c, 0, 62, 64
1, 117682, Note_off_c, 0, 65, 64
1, 117716, Note_off_c, 0, 70, 64
1, 117841, Note_on_c, 0, 72, 63
1, 117858, Note_on_c, 0, 62, 24
1, 117861, Note_on_c, 0, 65, 32
1, 117914, Note_off_c, 0, 65, 64
1, 117921, Note_off_c, 0, 62, 64
1, 117949, Note_on_c, 0, 70, 49
1, 117969, Note_off_c, 0, 72, 64
1, 118067, Note_off_c, 0, 70, 64
1, 118072, Note_on_c, 0, 69, 39
1, 118089, Note_on_c, 0, 65, 27
1, 118102, Note_on_c, 0, 62, 34
1, 118145, Note_off_c, 0, 65, 64
1, 118150, Note_off_c, 0, 69, 64
1, 118150, Note_off_c, 0, 62, 64
1, 118186, Note_on_c, 0, 70, 44
1, 118320, Note_on_c, 0, 63, 43
1, 118340, Note_on_c, 0, 60, 28
1, 118384, Note_off_c, 0, 63, 64
1, 118395, Note_off_c, 0, 60, 64
1, 118451, Note_off_c, 0, 70, 64
1, 118451, Note_on_c, 0, 75, 46
1, 118559, Note_on_c, 0, 63, 38
1, 118565, Note_on_c, 0, 70, 51
1, 118565, Note_on_c, 0, 60, 31
1, 118579, Note_off_c, 0, 75, 64
1, 118618, Note_off_c, 0, 63, 64
1, 118626, Note_off_c, 0, 60, 64
1, 118674, Note_on_c, 0, 67, 57
1, 118679, Note_off_c, 0, 70, 64
1, 118766, Note_off_c, 0, 67, 64
1, 118776, Note_on_c, 0, 69, 48
1, 118783, Note_on_c, 0, 63, 50
1, 118794, Note_on_c, 0, 60, 34
1, 118841, Note_off_c, 0, 63, 64
1, 118854, Note_off_c, 0, 60, 64
1, 118888, Note_on_c, 0, 67, 57
1, 118894, Note_off_c, 0, 69, 64
1, 118969, Note_off_c, 0, 67, 64
1, 119013, Note_on_c, 0, 69, 41
1, 119019, Note_on_c, 0, 63, 46
1, 119025, Note_on_c, 0, 60, 38
1, 119069, Note_off_c, 0, 63, 64
1, 119088, Note_off_c, 0, 69, 64
1, 119088, Note_off_c, 0, 60, 64
1, 119117, Note_on_c, 0, 72, 50
1, 119186, Note_off_c, 0, 72, 64
1, 119245, Note_on_c, 0, 74, 59
1, 119332, Note_off_c, 0, 74, 64
1, 119474, Note_on_c, 0, 67, 51
1, 119482, Note_on_c, 0, 58, 19
1, 119495, Note_on_c, 0, 62, 20
1, 119532, Note_off_c, 0, 67, 64
1, 119556, Note_off_c, 0, 62, 64
1, 119565, Note_off_c, 0, 58, 64
1, 119715, Note_on_c, 0, 69, 43
1, 119726, Note_on_c, 0, 62, 38
1, 119730, Note_on_c, 0, 58, 22
1, 119788, Note_off_c, 0, 62, 64
1, 119818, Note_off_c, 0, 58, 64
1, 119829, Note_on_c, 0, 67, 45
1, 119839, Note_off_c, 0, 69, 64
1, 119899, Note_off_c, 0, 67, 64
1, 119938, Note_on_c, 0, 66, 35
1, 119961, Note_on_c, 0, 58, 20
1, 119966, Note_on_c, 0, 62, 29
1, 120017, Note_off_c, 0, 62, 64
1, 120033, Note_off_c, 0, 58, 64
1, 120044, Note_off_c, 0, 66, 64
1, 120052, Note_on_c, 0, 67, 45
1, 120178, Note_on_c, 0, 60, 33
1, 120189, Note_on_c, 0, 57, 25
1, 120240, Note_off_c, 0, 60, 64
1, 120247, Note_off_c, 0, 57, 64
1, 120295, Note_off_c, 0, 67, 64
1, 120309, Note_on_c, 0, 72, 42
1, 120407, Note_off_c, 0, 72, 64
1, 120415, Note_on_c, 0, 60, 37
1, 120415, Note_on_c, 0, 67, 49
1, 120428, Note_on_c, 0, 57, 30
1, 120478, Note_off_c, 0, 60, 64
1, 120487, Note_off_c, 0, 57, 64
1, 120504, Note_off_c, 0, 67, 64
1, 120527, Note_on_c, 0, 64, 51
1, 120588, Note_off_c, 0, 64, 64
1, 120635, Note_on_c, 0, 57, 28
1, 120635, Note_on_c, 0, 65, 56
1, 120640, Note_on_c, 0, 60, 40
1, 120696, Note_off_c, 0, 60, 64
1, 120704, Note_off_c, 0, 57, 64
1, 120741, Note_on_c, 0, 64, 62
1, 120749, Note_off_c, 0, 65, 64
1, 120811, Note_off_c, 0, 64, 64
1, 120844, Note_on_c, 0, 65, 55
1, 120857, Note_on_c, 0, 57, 28
1, 120863, Note_on_c, 0, 60, 33
1, 120910, Note_off_c, 0, 57, 64
1, 120914, Note_off_c, 0, 60, 64
1, 120914, Note_off_c, 0, 65, 64
1, 120942, Note_on_c, 0, 69, 63
1, 121045, Note_off_c, 0, 69, 64
1, 121055, Note_on_c, 0, 70, 60
1, 121148, Note_on_c, 0, 72, 52
1, 121158, Note_off_c, 0, 70, 64
1, 121176, Note_on_c, 0, 62, 54
1, 121190, Note_off_c, 0, 72, 64
1, 121204, Note_on_c, 0, 70, 57
1, 121270, Note_on_c, 0, 72, 40
1, 121281, Note_off_c, 0, 62, 64
1, 121281, Note_off_c, 0, 70, 64
1, 121297, Note_on_c, 0, 64, 52
1, 121314, Note_off_c, 0, 72, 64
1, 121329, Note_on_c, 0, 70, 61
1, 121345, Note_off_c, 0, 64, 64
1, 121367, Note_on_c, 0, 72, 60
1, 121370, Note_off_c, 0, 70, 64
1, 121384, Note_on_c, 0, 65, 45
1, 121424, Note_off_c, 0, 72, 64
1, 121429, Note_on_c, 0, 70, 38
1, 121438, Note_off_c, 0, 65, 64
1, 121467, Note_on_c, 0, 55, 68
1, 121479, Note_on_c, 0, 72, 55
1, 121482, Note_off_c, 0, 70, 64
1, 121520, Note_off_c, 0, 72, 64
1, 121531, Note_on_c, 0, 70, 57
1, 121559, Note_off_c, 0, 55, 64
1, 121577, Note_on_c, 0, 72, 54
1, 121582, Note_off_c, 0, 70, 64
1, 121582, Note_on_c, 0, 64, 45
1, 121626, Note_off_c, 0, 72, 64
1, 121632, Note_on_c, 0, 70, 52
1, 121641, Note_off_c, 0, 64, 64
1, 121679, Note_on_c, 0, 72, 58
1, 121679, Note_off_c, 0, 70, 64
1, 121683, Note_on_c, 0, 53, 49
1, 121722, Note_off_c, 0, 72, 64
1, 121726, Note_on_c, 0, 70, 64
1, 121752, Note_off_c, 0, 53, 64
1, 121777, Note_on_c, 0, 72, 57
1, 121780, Note_off_c, 0, 70, 64
1, 121785, Note_on_c, 0, 62, 47
1, 121835, Note_on_c, 0, 70, 54
1, 121853, Note_off_c, 0, 62, 64
1, 121860, Note_off_c, 0, 72, 64
1, 121874, Note_on_c, 0, 52, 81
1, 121981, Note_off_c, 0, 52, 64
1, 121994, Note_on_c, 0, 79, 76
1, 121999, Note_on_c, 0, 55, 67
1, 122022, Note_off_c, 0, 70, 64
1, 122062, Note_off_c, 0, 55, 64
1, 122108, Note_on_c, 0, 76, 62
1, 122116, Note_off_c, 0, 79, 64
1, 122144, Note_on_c, 0, 60, 50
1, 122214, Note_on_c, 0, 72, 72
1, 122217, Note_off_c, 0, 76, 64
1, 122256, Note_off_c, 0, 60, 64
1, 122315, Note_on_c, 0, 70, 63
1, 122332, Note_off_c, 0, 72, 64
1, 122424, Note_off_c, 0, 70, 64
1, 122438, Note_on_c, 0, 79, 79
1, 122552, Note_off_c, 0, 79, 64
1, 122557, Note_on_c, 0, 76, 47
1, 122655, Note_off_c, 0, 76, 64
1, 122658, Note_on_c, 0, 72, 53
1, 122771, Note_on_c, 0, 70, 48
1, 122780, Note_off_c, 0, 72, 64
1, 122842, Note_on_c, 0, 72, 41
1, 122846, Note_off_c, 0, 70, 64
1, 122875, Note_on_c, 0, 55, 55
1, 122892, Note_off_c, 0, 72, 64
1, 122902, Note_on_c, 0, 70, 52
1, 122945, Note_off_c, 0, 70, 64
1, 122945, Note_on_c, 0, 72, 62
1, 122972, Note_on_c, 0, 53, 80
1, 122972, Note_off_c, 0, 55, 64
1, 123009, Note_on_c, 0, 70, 36
1, 123016, Note_off_c, 0, 72, 64
1, 123067, Note_off_c, 0, 70, 64
1, 123067, Note_off_c, 0, 53, 64
1, 123076, Note_on_c, 0, 52, 68
1, 123079, Note_on_c, 0, 72, 51
1, 123115, Note_on_c, 0, 70, 62
1, 123115, Note_off_c, 0, 72, 64
1, 123167, Note_on_c, 0, 72, 56
1, 123172, Note_on_c, 0, 60, 76
1, 123176, Note_off_c, 0, 52, 64
1, 123176, Note_off_c, 0, 70, 64
1, 123225, Note_off_c, 0, 72, 64
1, 123229, Note_on_c, 0, 70, 56
1, 123275, Note_on_c, 0, 52, 72
1, 123275, Note_on_c, 0, 72, 64
1, 123287, Note_off_c, 0, 70, 64
1, 123306, Note_off_c, 0, 60, 64
1, 123326, Note_off_c, 0, 72, 64
1, 123335, Note_on_c, 0, 70, 62
1, 123381, Note_on_c, 0, 72, 65
1, 123390, Note_off_c, 0, 70, 64
1, 123390, Note_on_c, 0, 62, 80
1, 123403, Note_off_c, 0, 52, 64
1, 123435, Note_off_c, 0, 72, 64
1, 123440, Note_on_c, 0, 70, 57
1, 123487, Note_on_c, 0, 72, 73
1, 123495, Note_off_c, 0, 70, 64
1, 123502, Note_on_c, 0, 50, 85
1, 123507, Note_off_c, 0, 62, 64
1, 123555, Note_on_c, 0, 70, 65
1, 123576, Note_off_c, 0, 72, 64
1, 123590, Note_off_c, 0, 50, 64
1, 123615, Note_on_c, 0, 64, 94
1, 123707, Note_on_c, 0, 79, 68
1, 123724, Note_off_c, 0, 70, 64
1, 123768, Note_off_c, 0, 64, 64
1, 123835, Note_on_c, 0, 76, 67
1, 123838, Note_on_c, 0, 48, 85
1, 123847, Note_off_c, 0, 79, 64
1, 123942, Note_on_c, 0, 72, 78
1, 123947, Note_off_c, 0, 76, 64
1, 124008, Note_off_c, 0, 48, 64
1, 124048, Note_on_c, 0, 70, 72
1, 124062, Note_off_c, 0, 72, 64
1, 124145, Note_off_c, 0, 70, 64
1, 124162, Note_on_c, 0, 79, 92
1, 124269, Note_on_c, 0, 76, 76
1, 124285, Note_off_c, 0, 79, 64
1, 124387, Note_on_c, 0, 72, 85
1, 124398, Note_off_c, 0, 76, 64
1, 124480, Note_off_c, 0, 72, 64
1, 124493, Note_on_c, 0, 69, 81
1, 124591, Note_off_c, 0, 69, 64
1, 124604, Note_on_c, 0, 65, 80
1, 124665, Note_off_c, 0, 65, 64
1, 124704, Note_on_c, 0, 77, 90
1, 124704, Note_on_c, 0, 64, 84
1, 124771, Note_off_c, 0, 77, 64
1, 124814, Note_on_c, 0, 62, 74
1, 124814, Note_off_c, 0, 64, 64
1, 124880, Note_off_c, 0, 62, 64
1, 124914, Note_on_c, 0, 69, 82
1, 124914, Note_on_c, 0, 65, 84
1, 124927, Note_on_c, 0, 60, 63
1, 124980, Note_off_c, 0, 65, 64
1, 125009, Note_off_c, 0, 69, 64
1, 125030, Note_on_c, 0, 58, 58
1, 125045, Note_off_c, 0, 60, 64
1, 125123, Note_on_c, 0, 70, 79
1, 125126, Note_on_c, 0, 67, 81
1, 125142, Note_off_c, 0, 58, 64
1, 125142, Note_on_c, 0, 57, 75
1, 125179, Note_off_c, 0, 67, 64
1, 125211, Note_off_c, 0, 70, 64
1, 125261, Note_on_c, 0, 55, 84
1, 125268, Note_off_c, 0, 57, 64
1, 125351, Note_on_c, 0, 69, 73
1, 125351, Note_on_c, 0, 72, 86
1, 125362, Note_off_c, 0, 55, 64
1, 125368, Note_on_c, 0, 53, 102
1, 125401, Note_off_c, 0, 53, 64
1, 125468, Note_on_c, 0, 53, 99
1, 125507, Note_off_c, 0, 69, 64
1, 125574, Note_off_c, 0, 72, 64
1, 125585, Note_on_c, 0, 51, 89
1, 125591, Note_off_c, 0, 53, 64
1, 125685, Note_on_c, 0, 50, 83
1, 125700, Note_off_c, 0, 51, 64
1, 125769, Note_off_c, 0, 50, 64
1, 125796, Note_on_c, 0, 74, 100
1, 125796, Note_on_c, 0, 48, 78
1, 125799, Note_on_c, 0, 70, 79
1, 125889, Note_on_c, 0, 46, 73
1, 125894, Note_off_c, 0, 48, 64
1, 125987, Note_off_c, 0, 46, 64
1, 126003, Note_on_c, 0, 45, 75
1, 126111, Note_on_c, 0, 43, 89
1, 126133, Note_off_c, 0, 45, 64
1, 126229, Note_on_c, 0, 41, 104
1, 126245, Note_off_c, 0, 43, 64
1, 126379, Note_on_c, 0, 53, 87
1, 126449, Note_on_c, 0, 72, 89
1, 126449, Note_on_c, 0, 69, 66
1, 126468, Note_off_c, 0, 74, 64
1, 126476, Note_off_c, 0, 53, 64
1, 126476, Note_on_c, 0, 48, 71
1, 126488, Control_c, 0, 64, 127
1, 126491, Note_off_c, 0, 70, 64
1, 126502, Note_off_c, 0, 41, 64
1, 126548, Note_on_c, 0, 74, 83
1, 126560, Note_on_c, 0, 45, 78
1, 126591, Note_off_c, 0, 48, 64
1, 126594, Note_off_c, 0, 72, 64
1, 126644, Control_c, 0, 64, 0
1, 126672, Note_off_c, 0, 45, 64
1, 126672, Note_on_c, 0, 75, 93
1, 126675, Note_on_c, 0, 41, 97
1, 126699, Note_off_c, 0, 74, 64
1, 126792, Note_off_c, 0, 41, 64
1, 126797, Note_on_c, 0, 53, 102
1, 126836, Control_c, 0, 64, 127
1, 126888, Note_off_c, 0, 53, 64
1, 126888, Note_on_c, 0, 74, 90
1, 126908, Note_on_c, 0, 51, 73
1, 126939, Note_off_c, 0, 75, 64
1, 126983, Note_on_c, 0, 72, 86
1, 126992, Control_c, 0, 64, 0
1, 127000, Note_on_c, 0, 53, 104
1, 127012, Note_off_c, 0, 51, 64
1, 127017, Note_off_c, 0, 74, 64
1, 127087, Note_off_c, 0, 53, 64
1, 127097, Note_on_c, 0, 70, 68
1, 127111, Note_on_c, 0, 74, 84
1, 127111, Note_off_c, 0, 69, 64
1, 127111, Note_off_c, 0, 72, 64
1, 127117, Note_on_c, 0, 46, 83
1, 127231, Note_on_c, 0, 50, 85
1, 127271, Note_off_c, 0, 46, 64
1, 127279, Control_c, 0, 64, 127
1, 127279, Note_off_c, 0, 74, 64
1, 127303, Note_off_c, 0, 70, 64
1, 127340, Note_on_c, 0, 53, 106
1, 127371, Note_off_c, 0, 50, 64
1, 127374, Control_c, 0, 64, 0
1, 127435, Note_on_c, 0, 57, 81
1, 127454, Note_off_c, 0, 53, 64
1, 127540, Note_off_c, 0, 57, 64
1, 127544, Note_on_c, 0, 58, 84
1, 127647, Note_on_c, 0, 62, 88
1, 127661, Note_off_c, 0, 58, 64
1, 127760, Note_on_c, 0, 65, 83
1, 127785, Note_off_c, 0, 62, 64
1, 127853, Note_on_c, 0, 69, 85
1, 127881, Note_off_c, 0, 65, 64
1, 127937, Note_off_c, 0, 69, 64
1, 127969, Note_on_c, 0, 67, 95
1, 128020, Note_off_c, 0, 67, 64
1, 128073, Note_on_c, 0, 67, 88
1, 128151, Note_off_c, 0, 67, 64
1, 128192, Note_on_c, 0, 79, 109
1, 128200, Note_on_c, 0, 65, 81
1, 128259, Note_off_c, 0, 79, 64
1, 128301, Note_off_c, 0, 65, 64
1, 128315, Note_on_c, 0, 64, 80
1, 128398, Note_off_c, 0, 64, 64
1, 128405, Note_on_c, 0, 71, 103
1, 128409, Note_on_c, 0, 67, 91
1, 128416, Note_on_c, 0, 62, 80
1, 128477, Note_off_c, 0, 71, 64
1, 128493, Note_off_c, 0, 67, 64
1, 128515, Note_off_c, 0, 62, 64
1, 128518, Note_on_c, 0, 60, 79
1, 128619, Note_on_c, 0, 72, 94
1, 128619, Note_on_c, 0, 69, 80
1, 128625, Note_off_c, 0, 60, 64
1, 128630, Note_on_c, 0, 59, 81
1, 128683, Note_off_c, 0, 69, 64
1, 128689, Note_off_c, 0, 72, 64
1, 128742, Note_on_c, 0, 57, 79
1, 128758, Note_off_c, 0, 59, 64
1, 128844, Note_on_c, 0, 74, 102
1, 128844, Note_on_c, 0, 71, 97
1, 128844, Note_off_c, 0, 57, 64
1, 128859, Note_on_c, 0, 55, 88
1, 128909, Note_off_c, 0, 55, 64
1, 128961, Note_on_c, 0, 55, 93
1, 128990, Note_off_c, 0, 71, 64
1, 129043, Note_off_c, 0, 74, 64
1, 129056, Note_off_c, 0, 55, 64
1, 129075, Note_on_c, 0, 53, 107
1, 129182, Note_on_c, 0, 52, 101
1, 129201, Note_off_c, 0, 53, 64
1, 129268, Note_off_c, 0, 52, 64
1, 129287, Note_on_c, 0, 76, 98
1, 129287, Note_on_c, 0, 72, 98
1, 129292, Note_on_c, 0, 50, 97
1, 129399, Note_on_c, 0, 48, 81
1, 129412, Note_off_c, 0, 50, 64
1, 129501, Note_on_c, 0, 47, 91
1, 129526, Note_off_c, 0, 48, 64
1, 129608, Note_on_c, 0, 45, 85
1, 129628, Note_off_c, 0, 47, 64
1, 129722, Note_on_c, 0, 43, 95
1, 129728, Note_off_c, 0, 45, 64
1, 129841, Note_on_c, 0, 55, 85
1, 129941, Note_on_c, 0, 71, 82
1, 129941, Note_on_c, 0, 74, 97
1, 129947, Note_off_c, 0, 55, 64
1, 129955, Note_on_c, 0, 50, 83
1, 129964, Control_c, 0, 64, 127
1, 129972, Note_off_c, 0, 76, 64
1, 129981, Note_off_c, 0, 43, 64
1, 129987, Note_off_c, 0, 72, 64
1, 130042, Note_on_c, 0, 47, 83
1, 130047, Note_on_c, 0, 76, 77
1, 130067, Note_off_c, 0, 50, 64
1, 130093, Note_off_c, 0, 74, 64
1, 130153, Note_off_c, 0, 47, 64
1, 130153, Note_on_c, 0, 77, 94
1, 130153, Control_c, 0, 64, 0
1, 130160, Note_on_c, 0, 43, 89
1, 130201, Note_off_c, 0, 76, 64
1, 130273, Note_on_c, 0, 55, 81
1, 130277, Note_off_c, 0, 43, 64
1, 130348, Control_c, 0, 64, 127
1, 130368, Note_off_c, 0, 55, 64
1, 130388, Note_on_c, 0, 53, 97
1, 130396, Note_on_c, 0, 76, 80
1, 130446, Note_off_c, 0, 77, 64
1, 130485, Note_off_c, 0, 53, 64
1, 130490, Note_on_c, 0, 55, 78
1, 130490, Note_on_c, 0, 74, 92
1, 130511, Note_off_c, 0, 76, 64
1, 130563, Control_c, 0, 64, 0
1, 130589, Note_off_c, 0, 71, 64
1, 130600, Note_off_c, 0, 55, 64
1, 130603, Note_on_c, 0, 76, 77
1, 130603, Note_on_c, 0, 72, 74
1, 130611, Note_on_c, 0, 48, 69
1, 130627, Note_off_c, 0, 74, 64
1, 130717, Note_on_c, 0, 55, 78
1, 130736, Note_off_c, 0, 48, 64
1, 130809, Note_off_c, 0, 55, 64
1, 130839, Note_on_c, 0, 57, 54
1, 130866, Note_off_c, 0, 72, 64
1, 130948, Note_on_c, 0, 59, 70
1, 130951, Note_off_c, 0, 76, 64
1, 130951, Note_off_c, 0, 57, 64
1, 131032, Note_off_c, 0, 59, 64
1, 131051, Note_on_c, 0, 60, 67
1, 131153, Note_off_c, 0, 60, 64
1, 131165, Note_on_c, 0, 55, 67
1, 131254, Note_off_c, 0, 55, 64
1, 131263, Note_on_c, 0, 72, 71
1, 131271, Note_on_c, 0, 60, 64
1, 131302, Note_off_c, 0, 72, 64
1, 131332, Note_off_c, 0, 60, 64
1, 131379, Note_on_c, 0, 62, 57
1, 131438, Note_off_c, 0, 62, 64
1, 131502, Note_on_c, 0, 67, 53
1, 131508, Note_on_c, 0, 72, 72
1, 131524, Note_on_c, 0, 64, 52
1, 131543, Note_off_c, 0, 72, 64
1, 131558, Note_on_c, 0, 74, 56
1, 131563, Note_off_c, 0, 64, 64
1, 131577, Note_off_c, 0, 67, 64
1, 131602, Note_on_c, 0, 72, 48
1, 131614, Note_off_c, 0, 74, 64
1, 131667, Note_off_c, 0, 72, 64
1, 131667, Note_on_c, 0, 71, 55
1, 131717, Note_off_c, 0, 71, 64
1, 131725, Note_on_c, 0, 72, 57
1, 131741, Note_on_c, 0, 60, 54
1, 131803, Note_off_c, 0, 72, 64
1, 131803, Note_off_c, 0, 60, 64
1, 131964, Note_on_c, 0, 69, 29
1, 131967, Note_on_c, 0, 65, 32
1, 131970, Note_on_c, 0, 72, 50
1, 132011, Note_off_c, 0, 72, 64
1, 132015, Note_on_c, 0, 74, 55
1, 132015, Note_off_c, 0, 65, 64
1, 132029, Note_off_c, 0, 69, 64
1, 132056, Note_off_c, 0, 74, 64
1, 132064, Note_on_c, 0, 72, 55
1, 132110, Note_off_c, 0, 72, 64
1, 132132, Note_on_c, 0, 71, 45
1, 132178, Note_off_c, 0, 71, 64
1, 132201, Note_on_c, 0, 72, 61
1, 132226, Note_on_c, 0, 60, 18
1, 132285, Note_off_c, 0, 60, 64
1, 132432, Note_on_c, 0, 67, 49
1, 132447, Note_on_c, 0, 64, 29
1, 132541, Note_on_c, 0, 74, 65
1, 132548, Note_off_c, 0, 72, 64
1, 132582, Note_off_c, 0, 74, 64
1, 132602, Note_off_c, 0, 67, 64
1, 132607, Note_off_c, 0, 64, 64
1, 132639, Note_on_c, 0, 60, 43
1, 132647, Note_on_c, 0, 76, 59
1, 132681, Note_off_c, 0, 76, 64
1, 132749, Note_off_c, 0, 60, 64
1, 132758, Note_on_c, 0, 62, 50
1, 132761, Note_on_c, 0, 77, 68
1, 132792, Note_off_c, 0, 77, 64
1, 132816, Note_off_c, 0, 62, 64
1, 132884, Note_on_c, 0, 79, 57
1, 132894, Note_on_c, 0, 64, 28
1, 132956, Note_off_c, 0, 64, 64
1, 133006, Note_on_c, 0, 65, 33
1, 133062, Note_off_c, 0, 65, 64
1, 133084, Note_off_c, 0, 79, 64
1, 133103, Note_on_c, 0, 72, 48
1, 133112, Note_on_c, 0, 67, 35
1, 133168, Note_off_c, 0, 67, 64
1, 133168, Note_off_c, 0, 72, 64
1, 133204, Note_on_c, 0, 64, 48
1, 133252, Note_off_c, 0, 64, 64
1, 133338, Note_on_c, 0, 69, 36
1, 133343, Note_on_c, 0, 72, 65
1, 133366, Note_on_c, 0, 65, 28
1, 133376, Note_off_c, 0, 72, 64
1, 133394, Note_on_c, 0, 74, 47
1, 133408, Note_off_c, 0, 69, 64
1, 133416, Note_off_c, 0, 65, 64
1, 133427, Note_on_c, 0, 72, 54
1, 133441, Note_off_c, 0, 74, 64
1, 133508, Note_off_c, 0, 72, 64
1, 133528, Note_on_c, 0, 71, 20
1, 133561, Note_on_c, 0, 72, 70
1, 133572, Note_on_c, 0, 60, 44
1, 133588, Note_off_c, 0, 71, 64
1, 133621, Note_off_c, 0, 60, 64
1, 133639, Note_off_c, 0, 72, 64
1, 133784, Note_on_c, 0, 72, 66
1, 133797, Note_on_c, 0, 67, 36
1, 133797, Note_on_c, 0, 64, 46
1, 133822, Note_off_c, 0, 72, 64
1, 133842, Note_on_c, 0, 74, 52
1, 133847, Note_off_c, 0, 64, 64
1, 133878, Note_off_c, 0, 67, 64
1, 133883, Note_on_c, 0, 72, 51
1, 133886, Note_off_c, 0, 74, 64
1, 133950, Note_off_c, 0, 72, 64
1, 133968, Note_on_c, 0, 71, 50
1, 134011, Note_off_c, 0, 71, 64
1, 134028, Note_on_c, 0, 72, 65
1, 134046, Note_on_c, 0, 60, 39
1, 134124, Note_off_c, 0, 60, 64
1, 134255, Note_on_c, 0, 69, 43
1, 134273, Note_on_c, 0, 65, 49
1, 134344, Note_off_c, 0, 69, 64
1, 134372, Note_on_c, 0, 76, 65
1, 134372, Note_on_c, 0, 70, 53
1, 134390, Note_off_c, 0, 72, 64
1, 134399, Note_off_c, 0, 65, 64
1, 134413, Note_off_c, 0, 76, 64
1, 134435, Note_off_c, 0, 70, 64
1, 134480, Note_on_c, 0, 69, 47
1, 134480, Note_on_c, 0, 77, 73
1, 134513, Note_off_c, 0, 77, 64
1, 134533, Note_off_c, 0, 69, 64
1, 134600, Note_on_c, 0, 79, 75
1, 134606, Note_on_c, 0, 67, 44
1, 134638, Note_off_c, 0, 79, 64
1, 134672, Note_off_c, 0, 67, 64
1, 134722, Note_on_c, 0, 81, 64
1, 134722, Note_on_c, 0, 65, 38
1, 134836, Note_off_c, 0, 65, 64
1, 134845, Note_on_c, 0, 67, 43
1, 134898, Note_off_c, 0, 67, 64
1, 134942, Note_off_c, 0, 81, 64
1, 134957, Note_on_c, 0, 69, 27
1, 134957, Note_on_c, 0, 72, 36
1, 135034, Note_off_c, 0, 69, 64
1, 135062, Note_on_c, 0, 65, 38
1, 135067, Note_off_c, 0, 72, 64
1, 135121, Note_off_c, 0, 65, 64
1, 135184, Note_on_c, 0, 70, 46
1, 135199, Note_on_c, 0, 67, 44
1, 135212, Note_on_c, 0, 72, 16
1, 135218, Note_on_c, 0, 74, 40
1, 135251, Note_off_c, 0, 67, 64
1, 135277, Note_off_c, 0, 70, 64
1, 135313, Note_off_c, 0, 74, 64
1, 135347, Note_off_c, 0, 72, 64
1, 135350, Note_on_c, 0, 71, 66
1, 135397, Note_off_c, 0, 71, 64
1, 135413, Note_on_c, 0, 72, 56
1, 135416, Note_on_c, 0, 60, 27
1, 135483, Note_off_c, 0, 60, 64
1, 135507, Note_off_c, 0, 72, 64
1, 135639, Note_on_c, 0, 69, 41
1, 135645, Note_on_c, 0, 72, 59
1, 135663, Note_on_c, 0, 65, 24
1, 135681, Note_off_c, 0, 72, 64
1, 135692, Note_on_c, 0, 74, 62
1, 135706, Note_off_c, 0, 69, 64
1, 135717, Note_off_c, 0, 65, 64
1, 135730, Note_on_c, 0, 72, 63
1, 135730, Note_off_c, 0, 74, 64
1, 135797, Note_off_c, 0, 72, 64
1, 135815, Note_on_c, 0, 71, 45
1, 135862, Note_off_c, 0, 71, 64
1, 135872, Note_on_c, 0, 72, 51
1, 135903, Note_on_c, 0, 60, 36
1, 135951, Note_off_c, 0, 60, 64
1, 136095, Note_on_c, 0, 67, 46
1, 136101, Note_on_c, 0, 64, 53
1, 136152, Note_off_c, 0, 64, 64
1, 136179, Note_off_c, 0, 67, 64
1, 136195, Note_on_c, 0, 76, 39
1, 136204, Note_off_c, 0, 72, 64
1, 136218, Note_on_c, 0, 65, 32
1, 136238, Note_off_c, 0, 76, 64
1, 136279, Note_off_c, 0, 65, 64
1, 136302, Note_on_c, 0, 79, 63
1, 136310, Note_on_c, 0, 64, 49
1, 136341, Note_off_c, 0, 79, 64
1, 136361, Note_off_c, 0, 64, 64
1, 136413, Note_on_c, 0, 81, 60
1, 136427, Note_on_c, 0, 62, 40
1, 136452, Note_off_c, 0, 81, 64
1, 136469, Note_off_c, 0, 62, 64
1, 136535, Note_on_c, 0, 60, 40
1, 136535, Note_on_c, 0, 82, 56
1, 136642, Note_off_c, 0, 60, 64
1, 136650, Note_on_c, 0, 58, 33
1, 136730, Note_off_c, 0, 58, 64
1, 136765, Note_on_c, 0, 72, 48
1, 136765, Note_on_c, 0, 57, 29
1, 136770, Note_off_c, 0, 82, 64
1, 136837, Note_off_c, 0, 57, 64
1, 136865, Note_on_c, 0, 55, 54
1, 136990, Note_off_c, 0, 55, 64
1, 136998, Note_on_c, 0, 53, 77
1, 137059, Note_off_c, 0, 53, 64
1, 137112, Note_on_c, 0, 82, 69
1, 137115, Note_on_c, 0, 55, 66
1, 137120, Note_off_c, 0, 72, 64
1, 137235, Note_off_c, 0, 55, 64
1, 137235, Note_on_c, 0, 53, 76
1, 137243, Note_on_c, 0, 81, 81
1, 137283, Note_off_c, 0, 82, 64
1, 137346, Note_off_c, 0, 53, 64
1, 137365, Note_on_c, 0, 79, 72
1, 137374, Note_on_c, 0, 51, 52
1, 137382, Note_off_c, 0, 81, 64
1, 137427, Note_on_c, 0, 77, 63
1, 137435, Note_off_c, 0, 51, 64
1, 137471, Note_off_c, 0, 79, 64
1, 137471, Note_off_c, 0, 77, 64
1, 137475, Note_on_c, 0, 50, 55
1, 137485, Note_on_c, 0, 84, 79
1, 137591, Note_off_c, 0, 50, 64
1, 137595, Note_on_c, 0, 48, 41
1, 137698, Note_off_c, 0, 48, 64
1, 137706, Note_on_c, 0, 46, 42
1, 137717, Note_on_c, 0, 75, 65
1, 137728, Note_off_c, 0, 84, 64
1, 137820, Note_off_c, 0, 46, 64
1, 137836, Note_on_c, 0, 45, 55
1, 137928, Note_on_c, 0, 46, 67
1, 137935, Note_off_c, 0, 45, 64
1, 138052, Note_on_c, 0, 74, 68
1, 138059, Note_on_c, 0, 53, 81
1, 138071, Note_off_c, 0, 46, 64
1, 138071, Note_off_c, 0, 75, 64
1, 138084, Note_off_c, 0, 74, 64
1, 138099, Note_on_c, 0, 72, 52
1, 138132, Note_off_c, 0, 53, 64
1, 138138, Note_off_c, 0, 72, 64
1, 138143, Note_on_c, 0, 74, 69
1, 138155, Note_on_c, 0, 58, 62
1, 138260, Note_on_c, 0, 72, 75
1, 138275, Note_off_c, 0, 74, 64
1, 138301, Note_off_c, 0, 72, 64
1, 138311, Note_on_c, 0, 70, 69
1, 138354, Note_off_c, 0, 70, 64
1, 138375, Note_on_c, 0, 79, 97
1, 138471, Note_off_c, 0, 58, 64
1, 138492, Note_on_c, 0, 55, 63
1, 138613, Note_on_c, 0, 53, 89
1, 138617, Note_off_c, 0, 55, 64
1, 138617, Note_on_c, 0, 70, 76
1, 138623, Note_off_c, 0, 79, 64
1, 138706, Note_off_c, 0, 53, 64
1, 138720, Note_on_c, 0, 52, 83
1, 138837, Note_on_c, 0, 53, 101
1, 138854, Note_off_c, 0, 52, 64
1, 138956, Note_off_c, 0, 53, 64
1, 138960, Note_on_c, 0, 69, 57
1, 138960, Note_on_c, 0, 57, 62
1, 138974, Note_off_c, 0, 70, 64
1, 138998, Note_off_c, 0, 69, 64
1, 138998, Note_on_c, 0, 67, 75
1, 139040, Note_off_c, 0, 57, 64
1, 139040, Note_off_c, 0, 67, 64
1, 139040, Note_on_c, 0, 69, 64
1, 139065, Note_on_c, 0, 60, 63
1, 139166, Note_on_c, 0, 67, 87
1, 139184, Note_off_c, 0, 69, 64
1, 139212, Note_off_c, 0, 67, 64
1, 139238, Note_on_c, 0, 65, 54
1, 139282, Note_on_c, 0, 74, 97
1, 139288, Note_off_c, 0, 65, 64
1, 139382, Note_off_c, 0, 60, 64
1, 139394, Note_off_c, 0, 74, 64
1, 139394, Note_on_c, 0, 59, 63
1, 139475, Note_off_c, 0, 59, 64
1, 139486, Note_on_c, 0, 57, 62
1, 139495, Note_on_c, 0, 65, 83
1, 139575, Note_off_c, 0, 65, 64
1, 139608, Note_off_c, 0, 57, 64
1, 139619, Note_on_c, 0, 59, 68
1, 139695, Note_on_c, 0, 67, 70
1, 139703, Note_off_c, 0, 59, 64
1, 139717, Note_on_c, 0, 60, 67
1, 139717, Note_on_c, 0, 65, 57
1, 139731, Note_off_c, 0, 67, 64
1, 139756, Note_off_c, 0, 65, 64
1, 139778, Note_on_c, 0, 67, 57
1, 139811, Note_on_c, 0, 65, 51
1, 139822, Note_off_c, 0, 67, 64
1, 139832, Note_off_c, 0, 60, 64
1, 139832, Note_on_c, 0, 55, 78
1, 139850, Note_off_c, 0, 65, 64
1, 139859, Note_on_c, 0, 67, 72
1, 139898, Note_off_c, 0, 67, 64
1, 139901, Note_on_c, 0, 65, 62
1, 139940, Note_off_c, 0, 55, 64
1, 139946, Note_off_c, 0, 65, 64
1, 139946, Note_on_c, 0, 60, 60
1, 139951, Note_on_c, 0, 64, 68
1, 140041, Note_off_c, 0, 64, 64
1, 140054, Note_off_c, 0, 60, 64
1, 140057, Note_on_c, 0, 62, 78
1, 140141, Note_off_c, 0, 62, 64
1, 140166, Note_on_c, 0, 64, 70
1, 140265, Note_off_c, 0, 64, 64
1, 140277, Note_on_c, 0, 60, 73
1, 140394, Note_on_c, 0, 82, 76
1, 140408, Note_on_c, 0, 62, 70
1, 140414, Note_off_c, 0, 60, 64
1, 140530, Note_off_c, 0, 62, 64
1, 140530, Note_on_c, 0, 64, 67
1, 140631, Note_off_c, 0, 64, 64
1, 140639, Note_on_c, 0, 81, 82
1, 140655, Note_off_c, 0, 82, 64
1, 140662, Note_on_c, 0, 65, 54
1, 140745, Note_on_c, 0, 82, 69
1, 140778, Note_off_c, 0, 81, 64
1, 140865, Note_on_c, 0, 84, 85
1, 140882, Note_on_c, 0, 57, 48
1, 140882, Note_off_c, 0, 65, 64
1, 140887, Note_off_c, 0, 82, 64
1, 140968, Note_on_c, 0, 77, 84
1, 140995, Note_off_c, 0, 84, 64
1, 141079, Note_off_c, 0, 77, 64
1, 141093, Note_on_c, 0, 58, 53
1, 141093, Note_on_c, 0, 81, 87
1, 141116, Note_off_c, 0, 57, 64
1, 141215, Note_on_c, 0, 79, 91
1, 141238, Note_off_c, 0, 81, 64
1, 141328, Note_off_c, 0, 58, 64
1, 141336, Note_on_c, 0, 60, 39
1, 141339, Note_on_c, 0, 77, 74
1, 141346, Note_off_c, 0, 79, 64
1, 141449, Note_off_c, 0, 77, 64
1, 141449, Note_on_c, 0, 76, 66
1, 141548, Note_off_c, 0, 60, 64
1, 141561, Note_off_c, 0, 76, 64
1, 141575, Note_on_c, 0, 77, 62
1, 141587, Note_on_c, 0, 62, 40
1, 141698, Note_on_c, 0, 72, 59
1, 141717, Note_off_c, 0, 77, 64
1, 141801, Note_off_c, 0, 72, 64
1, 141817, Note_on_c, 0, 74, 59
1, 141817, Note_off_c, 0, 62, 64
1, 141825, Note_on_c, 0, 58, 22
1, 141928, Note_off_c, 0, 74, 64
1, 141931, Note_on_c, 0, 77, 55
1, 142043, Note_on_c, 0, 70, 42
1, 142060, Note_off_c, 0, 58, 64
1, 142076, Note_on_c, 0, 53, 58
1, 142112, Note_off_c, 0, 77, 64
1, 142157, Note_off_c, 0, 70, 64
1, 142157, Note_on_c, 0, 69, 47
1, 142169, Note_off_c, 0, 53, 64
1, 142260, Note_off_c, 0, 69, 64
1, 142271, Note_on_c, 0, 70, 51
1, 142289, Note_on_c, 0, 62, 54
1, 142386, Note_on_c, 0, 74, 70
1, 142399, Note_off_c, 0, 70, 64
1, 142503, Note_off_c, 0, 74, 64
1, 142513, Note_on_c, 0, 77, 60
1, 142517, Note_on_c, 0, 60, 64
1, 142522, Note_off_c, 0, 62, 64
1, 142622, Note_on_c, 0, 70, 56
1, 142639, Note_off_c, 0, 77, 64
1, 142740, Note_on_c, 0, 57, 43
1, 142747, Note_off_c, 0, 70, 64
1, 142747, Note_on_c, 0, 72, 50
1, 142759, Note_off_c, 0, 60, 64
1, 142860, Note_on_c, 0, 77, 49
1, 142868, Note_off_c, 0, 72, 64
1, 142942, Note_off_c, 0, 77, 64
1, 142952, Note_off_c, 0, 57, 64
1, 142962, Note_on_c, 0, 69, 38
1, 142973, Note_on_c, 0, 53, 54
1, 143069, Note_off_c, 0, 53, 64
1, 143077, Note_off_c, 0, 69, 64
1, 143077, Note_on_c, 0, 67, 53
1, 143168, Note_off_c, 0, 67, 64
1, 143191, Note_on_c, 0, 69, 60
1, 143194, Note_on_c, 0, 60, 56
1, 143275, Note_off_c, 0, 69, 64
1, 143299, Note_on_c, 0, 72, 66
1, 143417, Note_off_c, 0, 72, 64
1, 143417, Note_on_c, 0, 77, 76
1, 143427, Note_on_c, 0, 59, 59
1, 143433, Note_off_c, 0, 60, 64
1, 143520, Note_on_c, 0, 69, 63
1, 143548, Note_off_c, 0, 77, 64
1, 143600, Note_off_c, 0, 69, 64
1, 143626, Note_off_c, 0, 59, 64
1, 143634, Note_on_c, 0, 71, 86
1, 143639, Note_on_c, 0, 62, 65
1, 143736, Note_off_c, 0, 71, 64
1, 143748, Note_on_c, 0, 77, 77
1, 143835, Note_off_c, 0, 77, 64
1, 143854, Note_on_c, 0, 67, 78
1, 143864, Note_off_c, 0, 62, 64
1, 143867, Note_on_c, 0, 59, 63
1, 143952, Note_on_c, 0, 65, 83
1, 143955, Note_off_c, 0, 67, 64
1, 144062, Note_off_c, 0, 65, 64
1, 144074, Note_on_c, 0, 67, 80
1, 144079, Note_on_c, 0, 55, 70
1, 144096, Note_off_c, 0, 59, 64
1, 144169, Note_off_c, 0, 67, 64
1, 144196, Note_on_c, 0, 77, 58
1, 144294, Note_off_c, 0, 55, 64
1, 144303, Note_on_c, 0, 76, 81
1, 144311, Note_off_c, 0, 77, 64
1, 144317, Note_on_c, 0, 60, 66
1, 144419, Note_on_c, 0, 77, 86
1, 144434, Note_off_c, 0, 76, 64
1, 144438, Note_off_c, 0, 60, 64
1, 144523, Note_on_c, 0, 48, 85
1, 144526, Note_on_c, 0, 79, 91
1, 144550, Note_off_c, 0, 77, 64
1, 144647, Note_on_c, 0, 77, 81
1, 144686, Note_off_c, 0, 79, 64
1, 144759, Note_on_c, 0, 76, 80
1, 144767, Note_on_c, 0, 50, 100
1, 144781, Note_off_c, 0, 77, 64
1, 144807, Note_off_c, 0, 48, 64
1, 144868, Note_on_c, 0, 74, 88
1, 144884, Note_off_c, 0, 76, 64
1, 144976, Note_on_c, 0, 72, 84
1, 144976, Note_on_c, 0, 52, 95
1, 144979, Note_off_c, 0, 74, 64
1, 144996, Note_off_c, 0, 50, 64
1, 145079, Note_on_c, 0, 70, 76
1, 145118, Note_off_c, 0, 72, 64
1, 145177, Note_off_c, 0, 52, 64
1, 145200, Note_on_c, 0, 69, 85
1, 145200, Note_on_c, 0, 53, 108
1, 145222, Note_off_c, 0, 70, 64
1, 145306, Note_on_c, 0, 70, 72
1, 145330, Note_off_c, 0, 53, 64
1, 145341, Note_off_c, 0, 69, 64
1, 145417, Note_on_c, 0, 72, 76
1, 145425, Note_on_c, 0, 45, 94
1, 145439, Note_off_c, 0, 70, 64
1, 145522, Note_on_c, 0, 65, 83
1, 145548, Note_off_c, 0, 72, 64
1, 145601, Note_off_c, 0, 65, 64
1, 145611, Note_off_c, 0, 45, 64
1, 145634, Note_on_c, 0, 69, 84
1, 145645, Note_on_c, 0, 46, 84
1, 145745, Note_on_c, 0, 67, 92
1, 145773, Note_off_c, 0, 69, 64
1, 145776, Note_off_c, 0, 46, 64
1, 145849, Note_on_c, 0, 48, 88
1, 145857, Note_on_c, 0, 65, 85
1, 145867, Note_off_c, 0, 67, 64
1, 145929, Note_off_c, 0, 48, 64
1, 145955, Note_on_c, 0, 64, 96
1, 145962, Note_off_c, 0, 65, 64
1, 146068, Note_off_c, 0, 64, 64
1, 146090, Note_on_c, 0, 53, 125
1, 146090, Note_on_c, 0, 45, 98
1, 146093, Note_on_c, 0, 41, 107
1, 146093, Note_on_c, 0, 48, 100
1, 146093, Note_on_c, 0, 65, 106
1, 146214, Control_c, 0, 64, 127
1, 146214, Note_off_c, 0, 65, 64
1, 146303, Note_off_c, 0, 53, 64
1, 146306, Note_on_c, 0, 77, 104
1, 146321, Note_off_c, 0, 45, 64
1, 146325, Note_off_c, 0, 48, 64
1, 146350, Note_off_c, 0, 41, 64
1, 146384, Note_off_c, 0, 77, 64
1, 146531, Note_on_c, 0, 69, 93
1, 146531, Note_on_c, 0, 65, 95
1, 146564, Control_c, 0, 64, 0
1, 146601, Note_off_c, 0, 69, 64
1, 146625, Note_off_c, 0, 65, 64
1, 146753, Note_on_c, 0, 70, 86
1, 146753, Note_on_c, 0, 67, 91
1, 146840, Note_off_c, 0, 67, 64
1, 146843, Note_off_c, 0, 70, 64
1, 146994, Note_on_c, 0, 72, 98
1, 146997, Note_on_c, 0, 69, 81
1, 147228, Note_on_c, 0, 65, 84
1, 147314, Note_off_c, 0, 65, 64
1, 147433, Note_off_c, 0, 69, 64
1, 147456, Note_on_c, 0, 70, 75
1, 147456, Note_on_c, 0, 62, 87
1, 147461, Note_on_c, 0, 74, 94
1, 147512, Note_off_c, 0, 72, 64
1, 147592, Note_off_c, 0, 62, 64
1, 147696, Note_on_c, 0, 58, 67
1, 147743, Note_off_c, 0, 70, 64
1, 147838, Note_off_c, 0, 58, 64
1, 147887, Note_off_c, 0, 74, 64
1, 147924, Note_on_c, 0, 72, 95
1, 147927, Note_on_c, 0, 65, 73
1, 147927, Note_on_c, 0, 69, 68
1, 148135, Note_off_c, 0, 69, 64
1, 148171, Note_on_c, 0, 77, 92
1, 148171, Note_on_c, 0, 53, 107
1, 148228, Note_off_c, 0, 72, 64
1, 148281, Note_off_c, 0, 53, 64
1, 148409, Note_on_c, 0, 70, 74
1, 148417, Note_on_c, 0, 50, 87
1, 148504, Note_off_c, 0, 50, 64
1, 148640, Note_on_c, 0, 75, 79
1, 148640, Note_on_c, 0, 46, 62
1, 148650, Note_off_c, 0, 65, 64
1, 148687, Note_off_c, 0, 70, 64
1, 148698, Note_off_c, 0, 77, 64
1, 148742, Note_on_c, 0, 74, 88
1, 148756, Note_off_c, 0, 46, 64
1, 148768, Note_off_c, 0, 75, 64
1, 148768, Note_off_c, 0, 74, 64
1, 148779, Control_c, 0, 64, 127
1, 148827, Control_c, 0, 64, 0
1, 148857, Note_on_c, 0, 53, 105
1, 148863, Note_on_c, 0, 65, 87
1, 148863, Note_on_c, 0, 70, 73
1, 148870, Note_on_c, 0, 74, 66
1, 148887, Note_on_c, 0, 72, 49
1, 148933, Note_off_c, 0, 72, 64
1, 149099, Note_off_c, 0, 53, 64
1, 149129, Note_off_c, 0, 70, 64
1, 149133, Note_on_c, 0, 69, 63
1, 149138, Note_on_c, 0, 72, 76
1, 149138, Note_on_c, 0, 41, 79
1, 149174, Note_off_c, 0, 74, 64
1, 149355, Control_c, 0, 64, 127
1, 149359, Note_off_c, 0, 41, 64
1, 149377, Note_off_c, 0, 65, 64
1, 149444, Note_off_c, 0, 69, 64
1, 149459, Note_off_c, 0, 72, 64
1, 149462, Control_c, 0, 64, 0
1, 149926, Note_on_c, 0, 60, 108
1, 149926, Note_on_c, 0, 55, 103
1, 149926, Note_on_c, 0, 52, 105
1, 149930, Note_on_c, 0, 48, 96
1, 150147, Note_on_c, 0, 84, 105
1, 150227, Note_off_c, 0, 60, 64
1, 150230, Control_c, 0, 64, 127
1, 150255, Note_off_c, 0, 84, 64
1, 150274, Note_off_c, 0, 55, 64
1, 150278, Note_off_c, 0, 48, 64
1, 150316, Note_off_c, 0, 52, 64
1, 150380, Note_on_c, 0, 72, 91
1, 150380, Note_on_c, 0, 76, 88
1, 150458, Note_off_c, 0, 72, 64
1, 150458, Control_c, 0, 64, 0
1, 150467, Note_off_c, 0, 76, 64
1, 150609, Note_on_c, 0, 74, 90
1, 150609, Note_on_c, 0, 77, 95
1, 150703, Note_off_c, 0, 74, 64
1, 150715, Note_off_c, 0, 77, 64
1, 150841, Note_on_c, 0, 79, 105
1, 150841, Note_on_c, 0, 76, 88
1, 151075, Note_on_c, 0, 72, 88
1, 151177, Note_off_c, 0, 72, 64
1, 151295, Note_on_c, 0, 69, 90
1, 151300, Note_on_c, 0, 81, 97
1, 151303, Note_on_c, 0, 77, 91
1, 151333, Note_off_c, 0, 76, 64
1, 151355, Note_off_c, 0, 79, 64
1, 151423, Note_off_c, 0, 69, 64
1, 151532, Note_on_c, 0, 65, 84
1, 151561, Note_off_c, 0, 77, 64
1, 151696, Note_off_c, 0, 65, 64
1, 151732, Note_off_c, 0, 81, 64
1, 151777, Note_on_c, 0, 79, 101
1, 151777, Note_on_c, 0, 76, 79
1, 151782, Note_on_c, 0, 72, 76
1, 152011, Note_off_c, 0, 76, 64
1, 152024, Note_on_c, 0, 84, 99
1, 152024, Note_on_c, 0, 60, 84
1, 152118, Note_off_c, 0, 60, 64
1, 152150, Note_off_c, 0, 79, 64
1, 152266, Note_on_c, 0, 57, 81
1, 152266, Note_on_c, 0, 77, 84
1, 152351, Note_off_c, 0, 57, 64
1, 152497, Note_on_c, 0, 82, 80
1, 152497, Note_on_c, 0, 53, 96
1, 152531, Note_off_c, 0, 72, 64
1, 152536, Note_off_c, 0, 53, 64
1, 152540, Note_off_c, 0, 77, 64
1, 152545, Note_off_c, 0, 84, 64
1, 152579, Control_c, 0, 64, 127
1, 152590, Note_on_c, 0, 81, 84
1, 152620, Note_off_c, 0, 81, 64
1, 152632, Note_off_c, 0, 82, 64
1, 152651, Control_c, 0, 64, 0
1, 152712, Note_on_c, 0, 60, 78
1, 152712, Note_on_c, 0, 81, 90
1, 152716, Note_on_c, 0, 77, 91
1, 152716, Note_on_c, 0, 72, 84
1, 152922, Note_off_c, 0, 60, 64
1, 152946, Note_off_c, 0, 77, 64
1, 152949, Note_off_c, 0, 72, 64
1, 152955, Note_on_c, 0, 76, 64
1, 152955, Note_on_c, 0, 79, 87
1, 152965, Note_on_c, 0, 48, 63
1, 152977, Note_off_c, 0, 81, 64
1, 153071, Control_c, 0, 64, 127
1, 153085, Note_off_c, 0, 79, 64
1, 153096, Note_off_c, 0, 76, 64
1, 153096, Note_off_c, 0, 48, 64
1, 153202, Control_c, 0, 64, 0
1, 153425, Note_on_c, 0, 72, 44
1, 153526, Note_on_c, 0, 70, 51
1, 153545, Note_off_c, 0, 72, 64
1, 153606, Note_off_c, 0, 70, 64
1, 153628, Note_on_c, 0, 69, 42
1, 153690, Note_off_c, 0, 69, 64
1, 153735, Note_on_c, 0, 70, 61
1, 153752, Note_on_c, 0, 55, 45
1, 153752, Note_on_c, 0, 60, 41
1, 153765, Note_on_c, 0, 52, 46
1, 153838, Note_off_c, 0, 70, 64
1, 153983, Note_on_c, 0, 79, 75
1, 154036, Note_off_c, 0, 60, 64
1, 154036, Note_off_c, 0, 55, 64
1, 154050, Note_off_c, 0, 52, 64
1, 154239, Note_on_c, 0, 60, 46
1, 154247, Note_on_c, 0, 52, 43
1, 154250, Note_on_c, 0, 55, 37
1, 154255, Note_on_c, 0, 48, 24
1, 154266, Note_off_c, 0, 79, 64
1, 154350, Note_on_c, 0, 70, 58
1, 154353, Control_c, 0, 64, 127
1, 154448, Control_c, 0, 64, 0
1, 154454, Note_on_c, 0, 69, 51
1, 154462, Note_off_c, 0, 70, 64
1, 154553, Note_off_c, 0, 55, 64
1, 154553, Note_off_c, 0, 52, 64
1, 154553, Note_off_c, 0, 48, 64
1, 154562, Note_on_c, 0, 67, 63
1, 154571, Note_off_c, 0, 69, 64
1, 154679, Note_on_c, 0, 69, 60
1, 154679, Note_off_c, 0, 67, 64
1, 154690, Note_on_c, 0, 53, 75
1, 154771, Note_off_c, 0, 60, 64
1, 154794, Note_on_c, 0, 67, 66
1, 154801, Note_off_c, 0, 69, 64
1, 154899, Note_off_c, 0, 67, 64
1, 154904, Note_on_c, 0, 65, 55
1, 154924, Note_on_c, 0, 57, 47
1, 155013, Note_on_c, 0, 67, 73
1, 155019, Note_off_c, 0, 65, 64
1, 155124, Note_on_c, 0, 69, 79
1, 155130, Note_off_c, 0, 53, 64
1, 155130, Note_off_c, 0, 67, 64
1, 155144, Note_on_c, 0, 60, 58
1, 155153, Note_off_c, 0, 57, 64
1, 155225, Note_on_c, 0, 70, 78
1, 155241, Note_off_c, 0, 69, 64
1, 155323, Note_off_c, 0, 60, 64
1, 155342, Note_off_c, 0, 70, 64
1, 155342, Note_on_c, 0, 72, 91
1, 155350, Note_on_c, 0, 65, 52
1, 155429, Note_off_c, 0, 65, 64
1, 155442, Note_on_c, 0, 74, 94
1, 155459, Note_off_c, 0, 72, 64
1, 155524, Note_off_c, 0, 74, 64
1, 155560, Note_on_c, 0, 75, 93
1, 155570, Note_on_c, 0, 60, 71
1, 155570, Note_on_c, 0, 65, 69
1, 155570, Note_on_c, 0, 57, 64
1, 155651, Note_off_c, 0, 75, 64
1, 155813, Note_on_c, 0, 84, 100
1, 155896, Note_off_c, 0, 65, 64
1, 155907, Note_off_c, 0, 60, 64
1, 155919, Note_off_c, 0, 57, 64
1, 155971, Control_c, 0, 64, 127
1, 156053, Note_on_c, 0, 65, 79
1, 156056, Note_on_c, 0, 60, 73
1, 156056, Note_on_c, 0, 57, 60
1, 156061, Note_on_c, 0, 53, 89
1, 156070, Note_off_c, 0, 84, 64
1, 156163, Note_on_c, 0, 75, 84
1, 156258, Control_c, 0, 64, 0
1, 156275, Note_on_c, 0, 74, 87
1, 156295, Note_off_c, 0, 75, 64
1, 156381, Note_on_c, 0, 72, 83
1, 156398, Note_off_c, 0, 74, 64
1, 156484, Note_off_c, 0, 60, 64
1, 156487, Note_off_c, 0, 72, 64
1, 156496, Note_on_c, 0, 58, 62
1, 156506, Note_on_c, 0, 74, 100
1, 156542, Note_off_c, 0, 57, 64
1, 156612, Note_on_c, 0, 72, 90
1, 156624, Note_off_c, 0, 53, 64
1, 156632, Note_off_c, 0, 74, 64
1, 156648, Note_off_c, 0, 65, 64
1, 156713, Note_on_c, 0, 70, 79
1, 156727, Note_off_c, 0, 72, 64
1, 156727, Note_on_c, 0, 62, 67
1, 156827, Note_on_c, 0, 72, 89
1, 156841, Note_off_c, 0, 70, 64
1, 156941, Note_on_c, 0, 74, 97
1, 156947, Note_on_c, 0, 65, 74
1, 156957, Note_off_c, 0, 62, 64
1, 156963, Note_off_c, 0, 72, 64
1, 157036, Note_off_c, 0, 58, 64
1, 157053, Note_on_c, 0, 76, 88
1, 157058, Note_off_c, 0, 74, 64
1, 157144, Note_off_c, 0, 65, 64
1, 157148, Note_off_c, 0, 76, 64
1, 157159, Note_on_c, 0, 77, 95
1, 157169, Note_on_c, 0, 70, 77
1, 157258, Note_off_c, 0, 70, 64
1, 157258, Note_on_c, 0, 79, 103
1, 157281, Note_off_c, 0, 77, 64
1, 157389, Note_on_c, 0, 71, 105
1, 157389, Note_on_c, 0, 80, 95
1, 157389, Note_on_c, 0, 65, 85
1, 157396, Note_on_c, 0, 62, 81
1, 157406, Note_off_c, 0, 79, 64
1, 157537, Note_off_c, 0, 80, 64
1, 157542, Note_on_c, 0, 79, 88
1, 157571, Note_off_c, 0, 79, 64
1, 157587, Note_on_c, 0, 77, 80
1, 157616, Note_off_c, 0, 77, 64
1, 157629, Note_on_c, 0, 79, 76
1, 157715, Note_off_c, 0, 65, 64
1, 157723, Note_off_c, 0, 71, 64
1, 157760, Note_off_c, 0, 62, 64
1, 157864, Note_on_c, 0, 67, 80
1, 157872, Note_on_c, 0, 59, 71
1, 157904, Note_on_c, 0, 62, 27
1, 158005, Note_off_c, 0, 79, 64
1, 158014, Note_on_c, 0, 77, 65
1, 158045, Note_off_c, 0, 77, 64
1, 158058, Note_on_c, 0, 76, 66
1, 158091, Note_on_c, 0, 77, 78
1, 158095, Note_off_c, 0, 76, 64
1, 158200, Note_off_c, 0, 67, 64
1, 158215, Note_off_c, 0, 62, 64
1, 158236, Note_off_c, 0, 59, 64
1, 158320, Note_on_c, 0, 55, 73
1, 158334, Note_on_c, 0, 59, 37
1, 158334, Note_on_c, 0, 62, 72
1, 158462, Note_on_c, 0, 76, 55
1, 158462, Note_off_c, 0, 77, 64
1, 158498, Note_off_c, 0, 76, 64
1, 158498, Note_on_c, 0, 74, 72
1, 158535, Note_off_c, 0, 74, 64
1, 158538, Note_on_c, 0, 76, 70
1, 158671, Note_off_c, 0, 62, 64
1, 158676, Note_off_c, 0, 59, 64
1, 158704, Note_off_c, 0, 55, 64
1, 158807, Note_on_c, 0, 55, 41
1, 158813, Note_on_c, 0, 60, 49
1, 158813, Note_on_c, 0, 48, 43
1, 158936, Note_on_c, 0, 79, 69
1, 158946, Note_off_c, 0, 76, 64
1, 159055, Note_off_c, 0, 79, 64
1, 159058, Note_on_c, 0, 76, 50
1, 159144, Note_off_c, 0, 60, 64
1, 159148, Note_off_c, 0, 76, 64
1, 159148, Note_off_c, 0, 55, 64
1, 159161, Note_on_c, 0, 72, 57
1, 159167, Note_off_c, 0, 48, 64
1, 159262, Note_on_c, 0, 70, 47
1, 159276, Note_off_c, 0, 72, 64
1, 159367, Note_off_c, 0, 70, 64
1, 159384, Note_on_c, 0, 79, 56
1, 159496, Note_off_c, 0, 79, 64
1, 159499, Note_on_c, 0, 76, 43
1, 159499, Note_on_c, 0, 60, 39
1, 159570, Note_off_c, 0, 76, 64
1, 159587, Note_off_c, 0, 60, 64
1, 159591, Note_on_c, 0, 62, 65
1, 159604, Note_on_c, 0, 72, 49
1, 159663, Note_off_c, 0, 72, 64
1, 159666, Note_off_c, 0, 62, 64
1, 159701, Note_on_c, 0, 70, 44
1, 159704, Note_on_c, 0, 64, 71
1, 159750, Note_off_c, 0, 64, 64
1, 159788, Note_off_c, 0, 70, 64
1, 159825, Note_on_c, 0, 79, 55
1, 159927, Note_on_c, 0, 67, 68
1, 159942, Note_on_c, 0, 76, 50
1, 159952, Note_off_c, 0, 79, 64
1, 159972, Note_off_c, 0, 67, 64
1, 160056, Note_on_c, 0, 72, 47
1, 160072, Note_off_c, 0, 76, 64
1, 160127, Note_off_c, 0, 72, 64
1, 160159, Note_on_c, 0, 70, 45
1, 160162, Note_on_c, 0, 64, 70
1, 160198, Note_off_c, 0, 64, 64
1, 160242, Note_off_c, 0, 70, 64
1, 160284, Note_on_c, 0, 79, 57
1, 160376, Note_on_c, 0, 60, 57
1, 160387, Note_off_c, 0, 79, 64
1, 160393, Note_on_c, 0, 76, 48
1, 160417, Note_off_c, 0, 60, 64
1, 160504, Note_on_c, 0, 72, 55
1, 160526, Note_off_c, 0, 76, 64
1, 160595, Note_off_c, 0, 72, 64
1, 160601, Note_on_c, 0, 48, 63
1, 160607, Note_on_c, 0, 70, 50
1, 160729, Note_off_c, 0, 70, 64
1, 160733, Note_on_c, 0, 79, 67
1, 160816, Note_off_c, 0, 79, 64
1, 160836, Note_on_c, 0, 76, 53
1, 160899, Note_off_c, 0, 48, 64
1, 160941, Note_on_c, 0, 72, 58
1, 160961, Note_off_c, 0, 76, 64
1, 161052, Note_on_c, 0, 69, 54
1, 161056, Note_off_c, 0, 72, 64
1, 161136, Note_off_c, 0, 69, 64
1, 161153, Note_on_c, 0, 60, 68
1, 161153, Note_on_c, 0, 81, 62
1, 161259, Note_on_c, 0, 62, 62
1, 161259, Note_off_c, 0, 60, 64
1, 161265, Note_off_c, 0, 81, 64
1, 161268, Note_on_c, 0, 77, 55
1, 161354, Note_off_c, 0, 62, 64
1, 161354, Note_off_c, 0, 77, 64
1, 161365, Note_on_c, 0, 64, 68
1, 161365, Note_on_c, 0, 73, 59
1, 161429, Note_off_c, 0, 64, 64
1, 161473, Note_off_c, 0, 73, 64
1, 161477, Note_on_c, 0, 65, 80
1, 161477, Note_on_c, 0, 72, 56
1, 161532, Note_off_c, 0, 65, 64
1, 161559, Note_off_c, 0, 72, 64
1, 161601, Note_on_c, 0, 81, 57
1, 161711, Note_on_c, 0, 69, 61
1, 161718, Note_on_c, 0, 77, 65
1, 161722, Note_off_c, 0, 81, 64
1, 161758, Note_off_c, 0, 69, 64
1, 161819, Note_on_c, 0, 73, 57
1, 161824, Note_off_c, 0, 77, 64
1, 161931, Note_off_c, 0, 73, 64
1, 161939, Note_on_c, 0, 65, 72
1, 161939, Note_on_c, 0, 72, 61
1, 161981, Note_off_c, 0, 65, 64
1, 162053, Note_off_c, 0, 72, 64
1, 162053, Note_on_c, 0, 81, 63
1, 162156, Note_on_c, 0, 60, 80
1, 162162, Note_off_c, 0, 81, 64
1, 162167, Note_on_c, 0, 77, 65
1, 162217, Note_off_c, 0, 60, 64
1, 162265, Note_on_c, 0, 73, 62
1, 162281, Note_off_c, 0, 77, 64
1, 162381, Note_on_c, 0, 48, 83
1, 162385, Note_on_c, 0, 72, 74
1, 162385, Note_off_c, 0, 73, 64
1, 162495, Note_on_c, 0, 81, 75
1, 162518, Note_off_c, 0, 72, 64
1, 162605, Note_on_c, 0, 77, 78
1, 162615, Note_off_c, 0, 81, 64
1, 162663, Note_off_c, 0, 48, 64
1, 162682, Control_c, 0, 64, 127
1, 162710, Note_on_c, 0, 75, 73
1, 162722, Note_off_c, 0, 77, 64
1, 162743, Control_c, 0, 64, 0
1, 162827, Note_on_c, 0, 74, 81
1, 162836, Note_off_c, 0, 75, 64
1, 162937, Note_on_c, 0, 83, 103
1, 162940, Note_off_c, 0, 74, 64
1, 163039, Note_on_c, 0, 62, 77
1, 163039, Note_on_c, 0, 80, 80
1, 163076, Note_off_c, 0, 83, 64
1, 163144, Note_on_c, 0, 77, 83
1, 163144, Note_on_c, 0, 64, 89
1, 163150, Note_off_c, 0, 62, 64
1, 163169, Note_off_c, 0, 80, 64
1, 163236, Note_off_c, 0, 64, 64
1, 163262, Note_on_c, 0, 65, 91
1, 163270, Note_on_c, 0, 74, 65
1, 163281, Note_off_c, 0, 77, 64
1, 163346, Note_off_c, 0, 65, 64
1, 163374, Note_off_c, 0, 74, 64
1, 163377, Note_on_c, 0, 83, 99
1, 163485, Note_on_c, 0, 80, 74
1, 163491, Note_on_c, 0, 62, 88
1, 163516, Note_off_c, 0, 83, 64
1, 163590, Note_off_c, 0, 62, 64
1, 163594, Note_on_c, 0, 77, 81
1, 163597, Note_on_c, 0, 64, 87
1, 163616, Note_off_c, 0, 80, 64
1, 163677, Note_off_c, 0, 64, 64
1, 163711, Note_on_c, 0, 74, 89
1, 163711, Note_on_c, 0, 65, 96
1, 163732, Note_off_c, 0, 77, 64
1, 163778, Note_off_c, 0, 65, 64
1, 163821, Note_off_c, 0, 74, 64
1, 163821, Note_on_c, 0, 83, 102
1, 163933, Note_on_c, 0, 62, 96
1, 163933, Note_on_c, 0, 80, 76
1, 163967, Note_off_c, 0, 83, 64
1, 163973, Note_off_c, 0, 62, 64
1, 164036, Note_on_c, 0, 77, 83
1, 164053, Note_off_c, 0, 80, 64
1, 164151, Note_on_c, 0, 55, 98
1, 164159, Note_on_c, 0, 74, 85
1, 164162, Note_off_c, 0, 77, 64
1, 164228, Note_off_c, 0, 55, 64
1, 164253, Note_off_c, 0, 74, 64
1, 164268, Note_on_c, 0, 83, 101
1, 164374, Note_on_c, 0, 80, 73
1, 164374, Note_on_c, 0, 59, 87
1, 164395, Note_off_c, 0, 83, 64
1, 164402, Note_off_c, 0, 59, 64
1, 164479, Note_on_c, 0, 77, 80
1, 164490, Note_off_c, 0, 80, 64
1, 164591, Note_off_c, 0, 77, 64
1, 164591, Note_on_c, 0, 60, 96
1, 164599, Note_on_c, 0, 76, 74
1, 164710, Note_on_c, 0, 84, 83
1, 164718, Note_off_c, 0, 76, 64
1, 164730, Note_off_c, 0, 60, 64
1, 164817, Note_on_c, 0, 79, 89
1, 164825, Note_on_c, 0, 48, 79
1, 164828, Note_off_c, 0, 84, 64
1, 164917, Note_on_c, 0, 50, 76
1, 164920, Note_off_c, 0, 79, 64
1, 164920, Note_off_c, 0, 48, 64
1, 164927, Note_on_c, 0, 76, 79
1, 165025, Note_on_c, 0, 52, 106
1, 165025, Note_on_c, 0, 72, 84
1, 165033, Note_off_c, 0, 50, 64
1, 165033, Note_off_c, 0, 76, 64
1, 165061, Note_off_c, 0, 52, 64
1, 165125, Note_off_c, 0, 72, 64
1, 165136, Note_on_c, 0, 76, 78
1, 165246, Note_off_c, 0, 76, 64
1, 165246, Note_on_c, 0, 74, 88
1, 165250, Note_on_c, 0, 55, 89
1, 165285, Note_off_c, 0, 55, 64
1, 165335, Note_off_c, 0, 74, 64
1, 165349, Note_on_c, 0, 77, 83
1, 165465, Note_on_c, 0, 76, 84
1, 165465, Note_off_c, 0, 77, 64
1, 165477, Note_on_c, 0, 60, 92
1, 165574, Note_off_c, 0, 60, 64
1, 165574, Note_on_c, 0, 79, 91
1, 165604, Note_off_c, 0, 76, 64
1, 165686, Note_on_c, 0, 76, 52
1, 165693, Note_on_c, 0, 48, 61
1, 165700, Note_off_c, 0, 79, 64
1, 165781, Note_on_c, 0, 50, 73
1, 165786, Note_off_c, 0, 76, 64
1, 165790, Note_on_c, 0, 72, 69
1, 165796, Note_off_c, 0, 48, 64
1, 165841, Note_off_c, 0, 50, 64
1, 165897, Note_on_c, 0, 52, 85
1, 165897, Note_off_c, 0, 72, 64
1, 165902, Note_on_c, 0, 67, 64
1, 165928, Note_off_c, 0, 52, 64
1, 166003, Note_on_c, 0, 70, 63
1, 166014, Note_off_c, 0, 67, 64
1, 166118, Note_on_c, 0, 53, 95
1, 166118, Note_on_c, 0, 69, 63
1, 166123, Note_off_c, 0, 70, 64
1, 166153, Note_off_c, 0, 53, 64
1, 166218, Note_on_c, 0, 72, 69
1, 166225, Note_off_c, 0, 69, 64
1, 166337, Note_on_c, 0, 70, 70
1, 166345, Note_off_c, 0, 72, 64
1, 166348, Note_on_c, 0, 55, 86
1, 166449, Note_on_c, 0, 74, 79
1, 166457, Note_off_c, 0, 55, 64
1, 166462, Note_off_c, 0, 70, 64
1, 166554, Note_on_c, 0, 70, 58
1, 166563, Note_off_c, 0, 74, 64
1, 166563, Note_on_c, 0, 48, 76
1, 166660, Note_on_c, 0, 67, 73
1, 166660, Note_on_c, 0, 52, 94
1, 166675, Note_off_c, 0, 48, 64
1, 166675, Note_off_c, 0, 70, 64
1, 166738, Note_off_c, 0, 52, 64
1, 166763, Note_off_c, 0, 67, 64
1, 166769, Note_on_c, 0, 64, 76
1, 166775, Note_on_c, 0, 55, 95
1, 166856, Note_off_c, 0, 55, 64
1, 166870, Note_on_c, 0, 67, 79
1, 166895, Note_off_c, 0, 64, 64
1, 166997, Note_on_c, 0, 65, 82
1, 167005, Note_on_c, 0, 57, 81
1, 167009, Note_off_c, 0, 67, 64
1, 167065, Note_off_c, 0, 57, 64
1, 167107, Note_on_c, 0, 69, 69
1, 167123, Note_off_c, 0, 65, 64
1, 167215, Note_on_c, 0, 67, 82
1, 167220, Note_on_c, 0, 58, 83
1, 167246, Note_off_c, 0, 69, 64
1, 167331, Note_on_c, 0, 70, 67
1, 167357, Note_off_c, 0, 67, 64
1, 167381, Note_off_c, 0, 58, 64
1, 167432, Note_on_c, 0, 48, 69
1, 167432, Note_on_c, 0, 67, 56
1, 167468, Note_off_c, 0, 70, 64
1, 167526, Note_on_c, 0, 50, 87
1, 167535, Note_on_c, 0, 64, 78
1, 167549, Note_off_c, 0, 67, 64
1, 167555, Note_off_c, 0, 48, 64
1, 167611, Note_off_c, 0, 50, 64
1, 167639, Note_on_c, 0, 60, 76
1, 167646, Note_off_c, 0, 64, 64
1, 167652, Note_on_c, 0, 52, 98
1, 167680, Note_off_c, 0, 52, 64
1, 167735, Note_off_c, 0, 60, 64
1, 167742, Note_on_c, 0, 70, 62
1, 167863, Note_on_c, 0, 69, 64
1, 167870, Note_on_c, 0, 48, 75
1, 167903, Note_off_c, 0, 48, 64
1, 167909, Note_off_c, 0, 70, 64
1, 167970, Note_on_c, 0, 67, 77
1, 167984, Note_off_c, 0, 69, 64
1, 168089, Note_on_c, 0, 69, 74
1, 168089, Note_on_c, 0, 53, 107
1, 168106, Note_off_c, 0, 67, 64
1, 168185, Note_on_c, 0, 65, 69
1, 168200, Note_on_c, 0, 57, 70
1, 168206, Note_off_c, 0, 69, 64
1, 168217, Note_off_c, 0, 53, 64
1, 168285, Note_off_c, 0, 57, 64
1, 168293, Note_on_c, 0, 67, 82
1, 168293, Note_off_c, 0, 65, 64
1, 168302, Note_on_c, 0, 55, 77
1, 168396, Note_on_c, 0, 69, 78
1, 168401, Note_off_c, 0, 67, 64
1, 168401, Note_off_c, 0, 55, 64
1, 168409, Note_on_c, 0, 53, 90
1, 168493, Note_off_c, 0, 53, 64
1, 168493, Note_on_c, 0, 70, 76
1, 168499, Note_off_c, 0, 69, 64
1, 168515, Note_on_c, 0, 52, 88
1, 168586, Note_off_c, 0, 52, 64
1, 168599, Note_on_c, 0, 72, 88
1, 168613, Note_on_c, 0, 50, 78
1, 168616, Note_off_c, 0, 70, 64
1, 168697, Note_on_c, 0, 74, 96
1, 168702, Note_on_c, 0, 48, 70
1, 168711, Note_off_c, 0, 50, 64
1, 168731, Note_off_c, 0, 72, 64
1, 168795, Note_on_c, 0, 46, 65
1, 168805, Note_on_c, 0, 76, 87
1, 168814, Note_off_c, 0, 48, 64
1, 168825, Note_off_c, 0, 74, 64
1, 168902, Note_on_c, 0, 45, 80
1, 168912, Note_on_c, 0, 77, 94
1, 168915, Note_off_c, 0, 76, 64
1, 168920, Note_off_c, 0, 46, 64
1, 169011, Note_on_c, 0, 48, 85
1, 169017, Note_on_c, 0, 76, 88
1, 169045, Note_off_c, 0, 45, 64
1, 169054, Note_off_c, 0, 77, 64
1, 169125, Note_on_c, 0, 50, 96
1, 169125, Note_on_c, 0, 74, 95
1, 169134, Note_off_c, 0, 48, 64
1, 169142, Note_off_c, 0, 76, 64
1, 169203, Note_off_c, 0, 74, 64
1, 169223, Note_on_c, 0, 72, 89
1, 169223, Note_on_c, 0, 52, 100
1, 169229, Note_off_c, 0, 50, 64
1, 169302, Note_off_c, 0, 52, 64
1, 169332, Note_off_c, 0, 72, 64
1, 169337, Note_on_c, 0, 53, 106
1, 169337, Note_on_c, 0, 84, 109
1, 169435, Note_off_c, 0, 84, 64
1, 169454, Note_on_c, 0, 55, 96
1, 169466, Note_off_c, 0, 53, 64
1, 169550, Note_on_c, 0, 77, 97
1, 169550, Note_on_c, 0, 69, 81
1, 169553, Note_off_c, 0, 55, 64
1, 169553, Note_on_c, 0, 72, 84
1, 169558, Note_on_c, 0, 57, 86
1, 169586, Note_off_c, 0, 72, 64
1, 169604, Note_off_c, 0, 69, 64
1, 169624, Note_off_c, 0, 77, 64
1, 169671, Note_off_c, 0, 57, 64
1, 169671, Note_on_c, 0, 58, 79
1, 169798, Note_off_c, 0, 58, 64
1, 169798, Note_on_c, 0, 77, 104
1, 169798, Note_on_c, 0, 69, 78
1, 169803, Note_on_c, 0, 72, 86
1, 169806, Note_on_c, 0, 60, 97
1, 170107, Note_off_c, 0, 72, 64
1, 170160, Control_c, 0, 64, 127
1, 170181, Note_off_c, 0, 69, 64
1, 170304, Note_on_c, 0, 76, 92
1, 170304, Note_on_c, 0, 48, 88
1, 170304, Note_on_c, 0, 67, 92
1, 170307, Note_off_c, 0, 60, 64
1, 170307, Note_on_c, 0, 72, 85
1, 170360, Note_off_c, 0, 77, 64
1, 170401, Control_c, 0, 64, 0
1, 170664, Control_c, 0, 64, 127
1, 170702, Note_off_c, 0, 67, 64
1, 170752, Note_off_c, 0, 72, 64
1, 170791, Note_on_c, 0, 50, 91
1, 170795, Note_on_c, 0, 65, 93
1, 170802, Note_off_c, 0, 48, 64
1, 170855, Control_c, 0, 64, 0
1, 170954, Note_on_c, 0, 77, 89
1, 170978, Note_off_c, 0, 76, 64
1, 171143, Note_on_c, 0, 71, 97
1, 171359, Control_c, 0, 64, 127
1, 171525, Note_off_c, 0, 65, 64
1, 171720, Note_off_c, 0, 77, 64
1, 171766, Control_c, 0, 64, 0
1, 171778, Note_off_c, 0, 50, 64
1, 171914, Note_on_c, 0, 74, 94
1, 171923, Note_off_c, 0, 71, 64
1, 172076, Note_on_c, 0, 72, 91
1, 172087, Note_on_c, 0, 52, 101
1, 172135, Note_off_c, 0, 74, 64
1, 172198, Note_on_c, 0, 70, 81
1, 172237, Note_off_c, 0, 72, 64
1, 172332, Note_off_c, 0, 52, 64
1, 172332, Note_on_c, 0, 69, 88
1, 172338, Note_on_c, 0, 53, 107
1, 172358, Note_off_c, 0, 70, 64
1, 172450, Note_on_c, 0, 72, 94
1, 172468, Note_off_c, 0, 69, 64
1, 172480, Note_off_c, 0, 53, 64
1, 172592, Note_on_c, 0, 45, 95
1, 172596, Note_on_c, 0, 77, 89
1, 172621, Note_off_c, 0, 72, 64
1, 172725, Note_on_c, 0, 69, 85
1, 172744, Note_off_c, 0, 45, 64
1, 172889, Note_off_c, 0, 69, 64
1, 172889, Note_on_c, 0, 67, 98
1, 172897, Note_on_c, 0, 46, 83
1, 173070, Note_off_c, 0, 46, 64
1, 173109, Note_off_c, 0, 77, 64
1, 173248, Note_off_c, 0, 67, 64
1, 173266, Note_on_c, 0, 76, 90
1, 173266, Note_on_c, 0, 70, 74
1, 173269, Note_on_c, 0, 48, 82
1, 173273, Note_on_c, 0, 72, 86
1, 173533, Note_off_c, 0, 48, 64
1, 173544, Note_off_c, 0, 72, 64
1, 173619, Note_off_c, 0, 70, 64
1, 173641, Note_off_c, 0, 76, 64
1, 173812, Note_on_c, 0, 77, 95
1, 173816, Note_on_c, 0, 69, 69
1, 173816, Note_on_c, 0, 65, 78
1, 173819, Note_on_c, 0, 72, 81
1, 173825, Note_on_c, 0, 41, 85
1, 174235, Control_c, 0, 64, 127
1, 176081, Note_off_c, 0, 77, 64
1, 176112, Note_off_c, 0, 65, 64
1, 176116, Note_off_c, 0, 72, 64
1, 176134, Note_off_c, 0, 41, 64
1, 176154, Note_off_c, 0, 69, 64
1, 176213, Control_c, 0, 64, 0
1, 178215, Control_c, 0, 64, 0
1, 179713, End_track
0, 0, End_of_file
