0, 0, Header, 0, 1, 384
1, 0, Start_track
1, 0, Tempo, 512820
1, 0, Title_t, ""
1, 0, Control_c, 0, 64, 127
1, 0, Control_c, 0, 64, 0
1, 0, Control_c, 0, 64, 127
1, 3, Note_on_c, 0, 65, 18
1, 10, Note_on_c, 0, 62, 19
1, 222, Note_off_c, 0, 65, 64
1, 226, Note_off_c, 0, 62, 64
1, 540, Note_on_c, 0, 50, 32
1, 793, Note_off_c, 0, 50, 64
1, 1094, Note_on_c, 0, 50, 24
1, 1275, Note_off_c, 0, 50, 64
1, 1635, Note_on_c, 0, 65, 41
1, 1655, Note_on_c, 0, 62, 24
1, 2119, Note_off_c, 0, 65, 64
1, 2119, Note_on_c, 0, 67, 44
1, 2133, Note_off_c, 0, 62, 64
1, 2141, Note_on_c, 0, 64, 31
1, 2315, Control_c, 0, 64, 0
1, 2482, Control_c, 0, 64, 127
1, 2576, Note_off_c, 0, 67, 64
1, 2584, Note_off_c, 0, 64, 64
1, 2591, Note_on_c, 0, 69, 27
1, 2607, Note_on_c, 0, 65, 18
1, 2698, Control_c, 0, 64, 0
1, 2866, Control_c, 0, 64, 127
1, 2880, Note_off_c, 0, 69, 64
1, 3038, Note_off_c, 0, 65, 64
1, 3070, Note_on_c, 0, 70, 13
1, 3095, Note_on_c, 0, 67, 17
1, 3130, Control_c, 0, 64, 0
1, 3298, Control_c, 0, 64, 127
1, 3326, Note_off_c, 0, 67, 64
1, 3337, Note_off_c, 0, 70, 64
1, 3662, Note_on_c, 0, 50, 16
1, 3858, Note_off_c, 0, 50, 64
1, 4173, Note_on_c, 0, 50, 20
1, 4284, Note_off_c, 0, 50, 64
1, 4690, Note_on_c, 0, 69, 22
1, 4702, Note_on_c, 0, 65, 16
1, 4819, Control_c, 0, 64, 0
1, 4988, Control_c, 0, 64, 127
1, 5017, Note_off_c, 0, 69, 64
1, 5122, Note_off_c, 0, 65, 64
1, 5158, Note_on_c, 0, 67, 39
1, 5164, Note_on_c, 0, 64, 24
1, 5456, Control_c, 0, 64, 0
1, 5563, Control_c, 0, 64, 127
1, 5613, Note_off_c, 0, 67, 64
1, 5624, Note_off_c, 0, 64, 64
1, 5644, Note_on_c, 0, 65, 30
1, 5669, Note_on_c, 0, 62, 23
1, 5850, Control_c, 0, 64, 0
1, 5981, Control_c, 0, 64, 127
1, 6045, Note_off_c, 0, 65, 64
1, 6050, Note_off_c, 0, 62, 64
1, 6164, Note_on_c, 0, 61, 19
1, 6178, Note_on_c, 0, 64, 18
1, 6222, Control_c, 0, 64, 0
1, 6390, Control_c, 0, 64, 127
1, 6403, Note_off_c, 0, 64, 64
1, 6452, Note_off_c, 0, 61, 64
1, 6746, Note_on_c, 0, 50, 20
1, 6869, Note_off_c, 0, 50, 64
1, 7264, Note_on_c, 0, 50, 27
1, 7398, Note_off_c, 0, 50, 64
1, 7738, Note_on_c, 0, 67, 42
1, 7761, Note_on_c, 0, 64, 22
1, 7924, Control_c, 0, 64, 0
1, 8056, Control_c, 0, 64, 127
1, 8062, Note_off_c, 0, 67, 64
1, 8236, Note_off_c, 0, 64, 64
1, 8236, Note_on_c, 0, 65, 32
1, 8254, Note_on_c, 0, 62, 17
1, 8474, Control_c, 0, 64, 0
1, 8630, Control_c, 0, 64, 127
1, 8679, Note_off_c, 0, 65, 64
1, 8700, Note_off_c, 0, 62, 64
1, 8777, Note_on_c, 0, 64, 27
1, 8786, Note_on_c, 0, 61, 15
1, 8991, Control_c, 0, 64, 0
1, 9111, Control_c, 0, 64, 127
1, 9126, Note_off_c, 0, 64, 64
1, 9148, Note_off_c, 0, 61, 64
1, 9331, Note_on_c, 0, 81, 58
1, 9367, Note_on_c, 0, 65, 14
1, 9373, Note_on_c, 0, 62, 14
1, 9496, Note_on_c, 0, 79, 68
1, 9513, Note_off_c, 0, 81, 64
1, 9541, Control_c, 0, 64, 0
1, 9663, Note_off_c, 0, 79, 64
1, 9669, Note_on_c, 0, 81, 44
1, 9722, Note_off_c, 0, 65, 64
1, 9733, Control_c, 0, 64, 127
1, 9782, Note_off_c, 0, 62, 64
1, 10059, Note_on_c, 0, 50, 18
1, 10340, Note_off_c, 0, 50, 64
1, 10605, Note_on_c, 0, 50, 22
1, 10621, Control_c, 0, 64, 0
1, 10739, Control_c, 0, 64, 127
1, 10813, Note_off_c, 0, 50, 64
1, 10877, Note_on_c, 0, 79, 50
1, 11086, Note_off_c, 0, 81, 64
1, 11161, Note_on_c, 0, 77, 65
1, 11170, Note_on_c, 0, 65, 25
1, 11181, Note_on_c, 0, 62, 25
1, 11263, Note_off_c, 0, 79, 64
1, 11315, Control_c, 0, 64, 0
1, 11426, Note_on_c, 0, 76, 62
1, 11435, Control_c, 0, 64, 127
1, 11485, Note_off_c, 0, 77, 64
1, 11647, Note_off_c, 0, 65, 64
1, 11680, Note_off_c, 0, 62, 64
1, 11689, Note_on_c, 0, 74, 71
1, 11694, Note_on_c, 0, 64, 23
1, 11697, Note_on_c, 0, 67, 31
1, 11750, Note_off_c, 0, 76, 64
1, 11819, Control_c, 0, 64, 0
1, 11953, Note_on_c, 0, 73, 64
1, 11962, Control_c, 0, 64, 127
1, 12011, Note_off_c, 0, 74, 64
1, 12189, Note_off_c, 0, 67, 64
1, 12221, Note_off_c, 0, 64, 64
1, 12237, Note_on_c, 0, 69, 25
1, 12237, Note_on_c, 0, 74, 62
1, 12257, Note_on_c, 0, 65, 22
1, 12260, Note_off_c, 0, 73, 64
1, 12263, Control_c, 0, 64, 0
1, 12407, Control_c, 0, 64, 127
1, 12418, Note_off_c, 0, 74, 64
1, 12566, Note_on_c, 0, 77, 53
1, 12610, Control_c, 0, 64, 0
1, 12685, Note_off_c, 0, 69, 64
1, 12730, Control_c, 0, 64, 127
1, 12814, Note_off_c, 0, 65, 64
1, 12864, Note_on_c, 0, 70, 19
1, 12897, Control_c, 0, 64, 0
1, 12897, Note_on_c, 0, 67, 22
1, 13012, Note_on_c, 0, 76, 42
1, 13029, Note_off_c, 0, 77, 64
1, 13065, Control_c, 0, 64, 127
1, 13082, Note_off_c, 0, 76, 64
1, 13178, Note_on_c, 0, 74, 57
1, 13213, Note_off_c, 0, 67, 64
1, 13213, Note_off_c, 0, 70, 64
1, 13508, Note_on_c, 0, 50, 29
1, 13518, Note_on_c, 0, 76, 38
1, 13529, Note_off_c, 0, 74, 64
1, 13905, Control_c, 0, 64, 0
1, 14006, Note_off_c, 0, 50, 64
1, 14012, Control_c, 0, 64, 127
1, 14126, Note_on_c, 0, 50, 12
1, 14360, Note_off_c, 0, 50, 64
1, 14440, Note_on_c, 0, 79, 50
1, 14518, Note_off_c, 0, 76, 64
1, 14725, Note_on_c, 0, 69, 22
1, 14734, Note_on_c, 0, 81, 72
1, 14747, Note_on_c, 0, 65, 14
1, 14845, Note_off_c, 0, 79, 64
1, 14886, Control_c, 0, 64, 0
1, 15007, Control_c, 0, 64, 127
1, 15018, Note_on_c, 0, 82, 44
1, 15062, Note_off_c, 0, 81, 64
1, 15135, Note_off_c, 0, 69, 64
1, 15207, Note_off_c, 0, 65, 64
1, 15282, Note_on_c, 0, 67, 33
1, 15295, Note_on_c, 0, 64, 21
1, 15318, Control_c, 0, 64, 0
1, 15497, Control_c, 0, 64, 127
1, 15619, Note_on_c, 0, 73, 55
1, 15672, Note_off_c, 0, 82, 64
1, 15728, Note_off_c, 0, 64, 64
1, 15749, Note_off_c, 0, 67, 64
1, 15898, Note_on_c, 0, 74, 59
1, 15923, Note_on_c, 0, 65, 18
1, 15936, Note_off_c, 0, 73, 64
1, 15936, Note_on_c, 0, 62, 16
1, 16014, Control_c, 0, 64, 0
1, 16151, Note_on_c, 0, 76, 56
1, 16159, Note_off_c, 0, 74, 64
1, 16193, Control_c, 0, 64, 127
1, 16223, Note_off_c, 0, 65, 64
1, 16243, Note_off_c, 0, 62, 64
1, 16291, Note_off_c, 0, 76, 64
1, 16463, Note_on_c, 0, 61, 26
1, 16482, Note_on_c, 0, 69, 30
1, 16491, Note_on_c, 0, 64, 42
1, 16644, Note_on_c, 0, 67, 47
1, 16655, Note_off_c, 0, 69, 64
1, 16773, Note_off_c, 0, 67, 64
1, 16780, Control_c, 0, 64, 0
1, 16800, Note_on_c, 0, 65, 48
1, 16920, Note_off_c, 0, 61, 64
1, 16925, Control_c, 0, 64, 127
1, 16929, Note_off_c, 0, 64, 64
1, 17115, Note_off_c, 0, 65, 64
1, 17115, Note_on_c, 0, 67, 31
1, 17138, Note_on_c, 0, 50, 37
1, 17301, Note_off_c, 0, 50, 64
1, 17308, Control_c, 0, 64, 0
1, 17380, Note_on_c, 0, 50, 3
1, 17463, Control_c, 0, 64, 127
1, 17561, Note_off_c, 0, 50, 64
1, 17745, Note_on_c, 0, 50, 25
1, 17890, Note_off_c, 0, 50, 64
1, 18070, Note_on_c, 0, 69, 48
1, 18118, Note_off_c, 0, 67, 64
1, 18361, Note_on_c, 0, 70, 60
1, 18380, Note_on_c, 0, 64, 25
1, 18380, Note_on_c, 0, 67, 30
1, 18393, Note_off_c, 0, 69, 64
1, 18422, Control_c, 0, 64, 0
1, 18555, Control_c, 0, 64, 127
1, 18566, Note_off_c, 0, 70, 64
1, 18652, Note_on_c, 0, 73, 65
1, 18677, Note_off_c, 0, 67, 64
1, 18719, Note_off_c, 0, 64, 64
1, 18914, Note_on_c, 0, 65, 35
1, 18918, Note_on_c, 0, 62, 33
1, 18962, Control_c, 0, 64, 0
1, 19099, Note_off_c, 0, 73, 64
1, 19106, Control_c, 0, 64, 127
1, 19195, Note_on_c, 0, 74, 69
1, 19316, Note_off_c, 0, 62, 64
1, 19332, Note_off_c, 0, 65, 64
1, 19489, Note_on_c, 0, 64, 35
1, 19503, Note_on_c, 0, 61, 34
1, 19536, Control_c, 0, 64, 0
1, 19697, Note_off_c, 0, 74, 64
1, 19717, Control_c, 0, 64, 127
1, 19837, Note_on_c, 0, 76, 53
1, 19859, Note_off_c, 0, 64, 64
1, 19897, Note_off_c, 0, 61, 64
1, 20112, Control_c, 0, 64, 0
1, 20127, Note_on_c, 0, 65, 20
1, 20131, Note_on_c, 0, 62, 19
1, 20280, Control_c, 0, 64, 127
1, 20375, Note_off_c, 0, 65, 64
1, 20383, Note_off_c, 0, 76, 64
1, 20411, Note_off_c, 0, 62, 64
1, 20418, Note_on_c, 0, 67, 45
1, 20570, Note_off_c, 0, 67, 64
1, 20673, Note_on_c, 0, 65, 15
1, 20703, Note_on_c, 0, 67, 51
1, 20723, Note_off_c, 0, 65, 64
1, 20770, Note_off_c, 0, 67, 64
1, 20780, Note_on_c, 0, 50, 22
1, 20787, Note_on_c, 0, 65, 51
1, 20867, Control_c, 0, 64, 0
1, 21023, Control_c, 0, 64, 127
1, 21060, Note_off_c, 0, 50, 64
1, 21067, Note_on_c, 0, 64, 56
1, 21074, Note_off_c, 0, 65, 64
1, 21324, Note_off_c, 0, 64, 64
1, 21343, Note_on_c, 0, 65, 41
1, 21358, Note_on_c, 0, 50, 26
1, 21407, Control_c, 0, 64, 0
1, 21538, Control_c, 0, 64, 127
1, 21583, Note_off_c, 0, 65, 64
1, 21625, Note_off_c, 0, 50, 64
1, 21681, Note_on_c, 0, 70, 47
1, 21758, Note_off_c, 0, 70, 64
1, 21823, Note_on_c, 0, 69, 48
1, 21865, Note_off_c, 0, 69, 64
1, 21865, Note_on_c, 0, 70, 60
1, 21909, Note_on_c, 0, 69, 65
1, 21909, Note_on_c, 0, 55, 24
1, 21909, Note_on_c, 0, 64, 31
1, 21946, Note_off_c, 0, 70, 64
1, 21946, Control_c, 0, 64, 0
1, 22162, Control_c, 0, 64, 127
1, 22171, Note_on_c, 0, 67, 67
1, 22208, Note_off_c, 0, 69, 64
1, 22241, Note_off_c, 0, 64, 64
1, 22427, Note_off_c, 0, 55, 64
1, 22452, Note_on_c, 0, 69, 64
1, 22456, Note_on_c, 0, 62, 47
1, 22467, Note_on_c, 0, 53, 57
1, 22483, Note_off_c, 0, 67, 64
1, 22605, Control_c, 0, 64, 0
1, 22700, Note_on_c, 0, 71, 84
1, 22737, Control_c, 0, 64, 127
1, 22756, Note_off_c, 0, 69, 64
1, 22804, Note_off_c, 0, 53, 64
1, 22834, Note_on_c, 0, 73, 75
1, 22854, Note_off_c, 0, 71, 64
1, 22978, Note_off_c, 0, 62, 64
1, 22978, Note_on_c, 0, 74, 85
1, 22982, Note_on_c, 0, 61, 48
1, 22988, Note_on_c, 0, 52, 47
1, 23012, Note_off_c, 0, 73, 64
1, 23073, Control_c, 0, 64, 0
1, 23120, Note_on_c, 0, 76, 78
1, 23148, Note_off_c, 0, 74, 64
1, 23258, Note_on_c, 0, 77, 78
1, 23288, Control_c, 0, 64, 127
1, 23294, Note_off_c, 0, 76, 64
1, 23400, Note_on_c, 0, 79, 93
1, 23400, Note_off_c, 0, 52, 64
1, 23413, Note_off_c, 0, 77, 64
1, 23419, Note_off_c, 0, 61, 64
1, 23595, Note_on_c, 0, 77, 81
1, 23614, Note_on_c, 0, 62, 34
1, 23626, Note_on_c, 0, 50, 29
1, 23662, Note_off_c, 0, 79, 64
1, 23695, Control_c, 0, 64, 0
1, 23797, Note_on_c, 0, 76, 66
1, 23854, Note_off_c, 0, 77, 64
1, 23876, Control_c, 0, 64, 127
1, 23909, Note_off_c, 0, 62, 64
1, 23953, Note_on_c, 0, 74, 72
1, 23974, Note_off_c, 0, 76, 64
1, 24012, Note_off_c, 0, 50, 64
1, 24093, Note_on_c, 0, 76, 67
1, 24123, Note_off_c, 0, 74, 64
1, 24263, Note_on_c, 0, 38, 25
1, 24269, Note_on_c, 0, 77, 68
1, 24318, Note_off_c, 0, 76, 64
1, 24378, Control_c, 0, 64, 0
1, 24595, Control_c, 0, 64, 127
1, 24664, Note_on_c, 0, 74, 54
1, 24717, Note_off_c, 0, 77, 64
1, 24767, Note_off_c, 0, 38, 64
1, 24962, Note_on_c, 0, 72, 45
1, 24982, Note_on_c, 0, 38, 23
1, 24987, Note_off_c, 0, 74, 64
1, 25038, Control_c, 0, 64, 0
1, 25249, Note_on_c, 0, 70, 39
1, 25252, Note_off_c, 0, 72, 64
1, 25325, Control_c, 0, 64, 127
1, 25346, Note_off_c, 0, 38, 64
1, 25665, Note_on_c, 0, 65, 28
1, 25665, Note_on_c, 0, 62, 21
1, 25853, Control_c, 0, 64, 0
1, 26009, Control_c, 0, 64, 127
1, 26054, Note_off_c, 0, 65, 64
1, 26222, Note_off_c, 0, 62, 64
1, 26229, Note_on_c, 0, 60, 21
1, 26233, Note_on_c, 0, 64, 33
1, 26500, Control_c, 0, 64, 0
1, 26656, Control_c, 0, 64, 127
1, 26765, Note_off_c, 0, 64, 64
1, 26771, Note_off_c, 0, 60, 64
1, 26778, Note_on_c, 0, 62, 30
1, 26803, Note_on_c, 0, 58, 14
1, 27063, Control_c, 0, 64, 0
1, 27196, Note_off_c, 0, 62, 64
1, 27196, Control_c, 0, 64, 127
1, 27311, Note_off_c, 0, 58, 64
1, 27350, Note_on_c, 0, 64, 29
1, 27364, Note_on_c, 0, 60, 17
1, 27470, Control_c, 0, 64, 0
1, 27580, Note_on_c, 0, 69, 47
1, 27648, Note_off_c, 0, 70, 64
1, 27648, Control_c, 0, 64, 127
1, 27759, Note_off_c, 0, 64, 64
1, 27767, Note_off_c, 0, 60, 64
1, 27785, Note_on_c, 0, 67, 65
1, 27843, Note_off_c, 0, 69, 64
1, 27962, Note_on_c, 0, 65, 61
1, 27987, Note_off_c, 0, 67, 64
1, 28010, Note_on_c, 0, 48, 19
1, 28107, Note_on_c, 0, 67, 62
1, 28144, Note_off_c, 0, 65, 64
1, 28271, Note_on_c, 0, 64, 73
1, 28285, Control_c, 0, 64, 0
1, 28296, Note_off_c, 0, 67, 64
1, 28356, Note_off_c, 0, 48, 64
1, 28381, Control_c, 0, 64, 127
1, 28456, Note_off_c, 0, 64, 64
1, 28569, Note_on_c, 0, 48, 25
1, 28581, Note_on_c, 0, 64, 66
1, 28643, Note_off_c, 0, 64, 64
1, 28782, Note_on_c, 0, 64, 2
1, 28849, Note_off_c, 0, 64, 64
1, 28877, Note_on_c, 0, 69, 46
1, 28909, Control_c, 0, 64, 0
1, 29021, Note_off_c, 0, 48, 64
1, 29052, Control_c, 0, 64, 127
1, 29182, Note_on_c, 0, 64, 41
1, 29205, Note_on_c, 0, 60, 20
1, 29484, Control_c, 0, 64, 0
1, 29579, Control_c, 0, 64, 127
1, 29590, Note_off_c, 0, 64, 64
1, 29740, Note_off_c, 0, 60, 64
1, 29767, Note_on_c, 0, 58, 17
1, 29771, Note_on_c, 0, 62, 29
1, 30012, Control_c, 0, 64, 0
1, 30168, Control_c, 0, 64, 127
1, 30235, Note_off_c, 0, 62, 64
1, 30310, Note_off_c, 0, 58, 64
1, 30363, Note_on_c, 0, 61, 22
1, 30381, Note_on_c, 0, 57, 15
1, 30564, Control_c, 0, 64, 0
1, 30707, Control_c, 0, 64, 127
1, 30743, Note_off_c, 0, 57, 64
1, 30751, Note_off_c, 0, 61, 64
1, 30907, Note_on_c, 0, 58, 15
1, 30915, Note_on_c, 0, 62, 23
1, 31018, Control_c, 0, 64, 0
1, 31182, Note_on_c, 0, 71, 44
1, 31185, Control_c, 0, 64, 127
1, 31266, Note_off_c, 0, 69, 64
1, 31266, Note_off_c, 0, 62, 64
1, 31300, Note_off_c, 0, 58, 64
1, 31347, Note_on_c, 0, 73, 47
1, 31367, Note_off_c, 0, 71, 64
1, 31522, Note_on_c, 0, 74, 50
1, 31522, Note_off_c, 0, 73, 64
1, 31539, Note_on_c, 0, 46, 25
1, 31617, Control_c, 0, 64, 0
1, 31656, Note_on_c, 0, 73, 49
1, 31667, Note_off_c, 0, 74, 64
1, 31737, Control_c, 0, 64, 127
1, 31788, Note_on_c, 0, 71, 57
1, 31804, Note_off_c, 0, 73, 64
1, 31904, Note_off_c, 0, 46, 64
1, 31904, Note_on_c, 0, 69, 48
1, 31924, Note_off_c, 0, 71, 64
1, 32055, Note_on_c, 0, 46, 21
1, 32061, Note_on_c, 0, 74, 52
1, 32065, Note_off_c, 0, 69, 64
1, 32085, Control_c, 0, 64, 0
1, 32300, Control_c, 0, 64, 127
1, 32419, Note_off_c, 0, 46, 64
1, 32431, Note_on_c, 0, 70, 42
1, 32469, Note_off_c, 0, 74, 64
1, 32724, Note_on_c, 0, 69, 34
1, 32728, Note_off_c, 0, 70, 64
1, 32738, Note_on_c, 0, 58, 19
1, 32738, Note_on_c, 0, 62, 28
1, 32816, Control_c, 0, 64, 0
1, 32996, Control_c, 0, 64, 127
1, 33030, Note_on_c, 0, 67, 38
1, 33052, Note_off_c, 0, 69, 64
1, 33116, Control_c, 0, 64, 0
1, 33224, Control_c, 0, 64, 127
1, 33277, Note_off_c, 0, 62, 64
1, 33289, Note_off_c, 0, 58, 64
1, 33323, Note_on_c, 0, 61, 37
1, 33333, Note_on_c, 0, 57, 19
1, 33380, Control_c, 0, 64, 0
1, 33470, Note_on_c, 0, 69, 48
1, 33478, Note_off_c, 0, 67, 64
1, 33559, Control_c, 0, 64, 127
1, 33618, Note_on_c, 0, 67, 64
1, 33664, Note_off_c, 0, 69, 64
1, 33748, Note_on_c, 0, 66, 60
1, 33768, Note_off_c, 0, 67, 64
1, 33929, Note_off_c, 0, 57, 64
1, 33929, Note_on_c, 0, 67, 59
1, 33940, Note_off_c, 0, 61, 64
1, 33954, Note_on_c, 0, 59, 17
1, 33954, Note_off_c, 0, 66, 64
1, 33960, Note_on_c, 0, 55, 34
1, 33990, Control_c, 0, 64, 0
1, 34219, Control_c, 0, 64, 127
1, 34297, Note_off_c, 0, 67, 64
1, 34444, Note_on_c, 0, 67, 68
1, 34540, Note_off_c, 0, 67, 64
1, 34632, Note_off_c, 0, 55, 64
1, 34635, Note_on_c, 0, 67, 56
1, 34645, Note_off_c, 0, 59, 64
1, 34660, Note_on_c, 0, 61, 28
1, 34671, Note_on_c, 0, 57, 19
1, 34674, Control_c, 0, 64, 0
1, 34951, Note_on_c, 0, 76, 57
1, 34975, Note_off_c, 0, 67, 64
1, 35130, Note_off_c, 0, 57, 64
1, 35135, Note_off_c, 0, 61, 64
1, 35141, Control_c, 0, 64, 127
1, 35419, Note_on_c, 0, 45, 18
1, 35731, Note_off_c, 0, 45, 64
1, 36024, Note_on_c, 0, 45, 20
1, 36183, Note_on_c, 0, 74, 41
1, 36214, Note_off_c, 0, 76, 64
1, 36303, Note_off_c, 0, 45, 64
1, 36336, Note_on_c, 0, 73, 53
1, 36336, Note_off_c, 0, 74, 64
1, 36482, Note_on_c, 0, 74, 72
1, 36509, Note_off_c, 0, 73, 64
1, 36632, Note_on_c, 0, 76, 64
1, 36643, Note_off_c, 0, 74, 64
1, 36643, Note_on_c, 0, 57, 29
1, 36648, Note_on_c, 0, 61, 35
1, 36663, Control_c, 0, 64, 0
1, 36807, Note_on_c, 0, 74, 70
1, 36830, Note_off_c, 0, 76, 64
1, 36891, Control_c, 0, 64, 127
1, 36941, Note_on_c, 0, 73, 64
1, 36957, Note_off_c, 0, 74, 64
1, 37081, Note_on_c, 0, 71, 78
1, 37100, Note_off_c, 0, 73, 64
1, 37231, Note_off_c, 0, 61, 64
1, 37248, Note_on_c, 0, 69, 53
1, 37258, Note_off_c, 0, 71, 64
1, 37262, Control_c, 0, 64, 0
1, 37267, Note_on_c, 0, 62, 27
1, 37267, Note_on_c, 0, 59, 17
1, 37271, Note_off_c, 0, 57, 64
1, 37554, Note_on_c, 0, 67, 34
1, 37574, Note_off_c, 0, 69, 64
1, 37765, Control_c, 0, 64, 127
1, 37801, Note_off_c, 0, 62, 64
1, 37835, Note_off_c, 0, 59, 64
1, 37851, Note_on_c, 0, 61, 20
1, 37858, Note_on_c, 0, 64, 29
1, 37922, Control_c, 0, 64, 0
1, 38016, Note_on_c, 0, 70, 37
1, 38049, Note_off_c, 0, 67, 64
1, 38113, Control_c, 0, 64, 127
1, 38177, Note_on_c, 0, 69, 43
1, 38191, Note_off_c, 0, 70, 64
1, 38305, Note_on_c, 0, 67, 53
1, 38305, Note_off_c, 0, 69, 64
1, 38326, Note_off_c, 0, 61, 64
1, 38354, Note_off_c, 0, 64, 64
1, 38447, Note_on_c, 0, 65, 46
1, 38454, Note_off_c, 0, 67, 64
1, 38461, Note_on_c, 0, 62, 29
1, 38461, Control_c, 0, 64, 0
1, 38590, Note_on_c, 0, 67, 53
1, 38602, Note_off_c, 0, 65, 64
1, 38721, Note_off_c, 0, 67, 64
1, 38732, Note_on_c, 0, 65, 48
1, 38796, Control_c, 0, 64, 127
1, 38851, Note_off_c, 0, 65, 64
1, 38857, Note_on_c, 0, 64, 55
1, 38958, Note_off_c, 0, 62, 64
1, 39049, Note_on_c, 0, 65, 41
1, 39053, Note_off_c, 0, 64, 64
1, 39072, Note_on_c, 0, 50, 23
1, 39119, Control_c, 0, 64, 0
1, 39248, Note_off_c, 0, 65, 64
1, 39253, Note_on_c, 0, 69, 23
1, 39485, Note_on_c, 0, 61, 44
1, 39489, Note_off_c, 0, 69, 64
1, 39635, Control_c, 0, 64, 127
1, 39641, Note_off_c, 0, 50, 64
1, 39724, Note_off_c, 0, 61, 64
1, 39879, Note_on_c, 0, 61, 37
1, 39904, Note_on_c, 0, 50, 19
1, 40127, Control_c, 0, 64, 0
1, 40267, Note_on_c, 0, 62, 30
1, 40295, Note_off_c, 0, 61, 64
1, 40396, Note_off_c, 0, 50, 64
1, 40426, Control_c, 0, 64, 127
1, 40473, Note_off_c, 0, 62, 64
1, 40696, Note_on_c, 0, 65, 13
1, 40718, Note_on_c, 0, 62, 20
1, 41329, Note_off_c, 0, 65, 64
1, 41343, Note_on_c, 0, 67, 24
1, 41353, Note_off_c, 0, 62, 64
1, 41375, Note_on_c, 0, 64, 12
1, 41601, Control_c, 0, 64, 0
1, 41744, Control_c, 0, 64, 127
1, 41824, Note_off_c, 0, 64, 64
1, 41860, Note_off_c, 0, 67, 64
1, 41950, Note_on_c, 0, 74, 53
1, 41971, Note_on_c, 0, 65, 21
1, 41977, Note_on_c, 0, 69, 15
1, 42187, Control_c, 0, 64, 0
1, 42321, Control_c, 0, 64, 127
1, 42334, Note_off_c, 0, 69, 64
1, 42387, Note_off_c, 0, 65, 64
1, 42574, Note_on_c, 0, 70, 12
1, 42598, Note_on_c, 0, 67, 11
1, 42632, Control_c, 0, 64, 0
1, 42788, Control_c, 0, 64, 127
1, 42891, Note_off_c, 0, 67, 64
1, 42899, Note_off_c, 0, 70, 64
1, 42922, Note_on_c, 0, 72, 52
1, 42941, Note_off_c, 0, 74, 64
1, 43084, Note_off_c, 0, 72, 64
1, 43147, Note_on_c, 0, 70, 47
1, 43190, Note_off_c, 0, 70, 64
1, 43204, Note_on_c, 0, 72, 53
1, 43237, Note_on_c, 0, 70, 50
1, 43254, Note_on_c, 0, 55, 27
1, 43262, Note_off_c, 0, 72, 64
1, 43375, Control_c, 0, 64, 0
1, 43504, Note_on_c, 0, 69, 56
1, 43504, Control_c, 0, 64, 127
1, 43531, Note_off_c, 0, 55, 64
1, 43545, Note_off_c, 0, 70, 64
1, 43799, Note_on_c, 0, 70, 42
1, 43850, Note_off_c, 0, 69, 64
1, 43875, Note_on_c, 0, 55, 6
1, 43889, Control_c, 0, 64, 0
1, 44100, Note_on_c, 0, 67, 54
1, 44117, Control_c, 0, 64, 127
1, 44125, Note_off_c, 0, 70, 64
1, 44186, Note_off_c, 0, 55, 64
1, 44367, Note_off_c, 0, 67, 64
1, 44374, Note_on_c, 0, 70, 60
1, 44404, Note_on_c, 0, 69, 27
1, 44423, Note_on_c, 0, 65, 16
1, 44513, Control_c, 0, 64, 0
1, 44657, Control_c, 0, 64, 127
1, 44663, Note_on_c, 0, 74, 86
1, 44718, Note_off_c, 0, 70, 64
1, 44743, Note_off_c, 0, 65, 64
1, 44788, Note_off_c, 0, 69, 64
1, 44963, Note_on_c, 0, 67, 35
1, 44963, Note_on_c, 0, 79, 85
1, 44984, Note_on_c, 0, 64, 25
1, 45011, Note_off_c, 0, 74, 64
1, 45148, Control_c, 0, 64, 0
1, 45273, Note_on_c, 0, 74, 80
1, 45325, Note_off_c, 0, 79, 64
1, 45376, Control_c, 0, 64, 127
1, 45431, Note_off_c, 0, 74, 64
1, 45507, Note_off_c, 0, 64, 64
1, 45521, Note_off_c, 0, 67, 64
1, 45646, Note_on_c, 0, 82, 68
1, 45658, Note_on_c, 0, 62, 27
1, 45666, Note_on_c, 0, 65, 13
1, 45783, Control_c, 0, 64, 0
1, 46047, Control_c, 0, 64, 127
1, 46122, Note_off_c, 0, 62, 64
1, 46158, Note_off_c, 0, 65, 64
1, 46324, Note_on_c, 0, 64, 24
1, 46328, Note_on_c, 0, 60, 19
1, 46382, Control_c, 0, 64, 0
1, 46574, Note_on_c, 0, 84, 44
1, 46587, Note_off_c, 0, 82, 64
1, 46635, Control_c, 0, 64, 127
1, 46716, Note_off_c, 0, 64, 64
1, 46746, Note_off_c, 0, 60, 64
1, 46774, Note_on_c, 0, 82, 43
1, 46786, Note_off_c, 0, 84, 64
1, 46934, Note_on_c, 0, 81, 52
1, 46934, Note_off_c, 0, 82, 64
1, 47078, Note_off_c, 0, 81, 64
1, 47078, Note_on_c, 0, 82, 48
1, 47087, Note_on_c, 0, 48, 22
1, 47126, Control_c, 0, 64, 0
1, 47232, Note_on_c, 0, 79, 59
1, 47243, Note_off_c, 0, 82, 64
1, 47293, Control_c, 0, 64, 127
1, 47363, Note_off_c, 0, 79, 64
1, 47376, Note_on_c, 0, 81, 49
1, 47456, Note_off_c, 0, 48, 64
1, 47512, Note_off_c, 0, 81, 64
1, 47521, Note_on_c, 0, 82, 46
1, 47699, Note_on_c, 0, 77, 42
1, 47714, Note_on_c, 0, 48, 18
1, 47724, Note_off_c, 0, 82, 64
1, 47761, Control_c, 0, 64, 0
1, 47983, Note_off_c, 0, 77, 64
1, 48011, Note_on_c, 0, 76, 24
1, 48114, Note_off_c, 0, 48, 64
1, 48145, Control_c, 0, 64, 127
1, 48356, Note_on_c, 0, 64, 31
1, 48370, Note_on_c, 0, 60, 18
1, 48696, Control_c, 0, 64, 0
1, 48816, Control_c, 0, 64, 127
1, 48919, Note_off_c, 0, 64, 64
1, 48953, Note_off_c, 0, 76, 64
1, 48953, Note_on_c, 0, 65, 27
1, 48966, Note_off_c, 0, 60, 64
1, 48973, Note_on_c, 0, 62, 11
1, 49175, Control_c, 0, 64, 0
1, 49343, Control_c, 0, 64, 127
1, 49479, Note_off_c, 0, 62, 64
1, 49490, Note_off_c, 0, 65, 64
1, 49557, Note_on_c, 0, 72, 40
1, 49590, Note_on_c, 0, 64, 24
1, 49599, Note_on_c, 0, 67, 17
1, 49714, Note_on_c, 0, 74, 41
1, 49722, Note_off_c, 0, 72, 64
1, 49847, Control_c, 0, 64, 0
1, 49866, Note_off_c, 0, 74, 64
1, 49889, Note_on_c, 0, 76, 28
1, 50028, Note_off_c, 0, 67, 64
1, 50039, Control_c, 0, 64, 127
1, 50157, Note_off_c, 0, 64, 64
1, 50221, Note_on_c, 0, 69, 16
1, 50239, Note_on_c, 0, 65, 13
1, 50254, Control_c, 0, 64, 0
1, 50363, Note_on_c, 0, 70, 40
1, 50451, Note_off_c, 0, 76, 64
1, 50505, Control_c, 0, 64, 127
1, 50519, Note_on_c, 0, 72, 46
1, 50535, Note_off_c, 0, 69, 64
1, 50551, Note_off_c, 0, 70, 64
1, 50558, Note_off_c, 0, 65, 64
1, 50660, Note_on_c, 0, 74, 57
1, 50668, Note_off_c, 0, 72, 64
1, 50794, Note_off_c, 0, 74, 64
1, 50803, Note_on_c, 0, 72, 54
1, 50833, Note_on_c, 0, 53, 35
1, 50877, Control_c, 0, 64, 0
1, 50934, Note_on_c, 0, 70, 47
1, 50972, Note_off_c, 0, 72, 64
1, 51089, Note_on_c, 0, 69, 43
1, 51100, Note_off_c, 0, 70, 64
1, 51153, Control_c, 0, 64, 127
1, 51159, Note_off_c, 0, 53, 64
1, 51238, Note_on_c, 0, 67, 45
1, 51243, Note_off_c, 0, 69, 64
1, 51394, Note_off_c, 0, 67, 64
1, 51402, Note_on_c, 0, 69, 37
1, 51418, Note_on_c, 0, 53, 42
1, 51429, Control_c, 0, 64, 0
1, 51554, Note_on_c, 0, 65, 51
1, 51557, Note_off_c, 0, 69, 64
1, 51657, Control_c, 0, 64, 127
1, 51689, Note_on_c, 0, 67, 66
1, 51696, Note_off_c, 0, 65, 64
1, 51706, Note_off_c, 0, 53, 64
1, 51827, Note_on_c, 0, 69, 67
1, 51841, Note_off_c, 0, 67, 64
1, 51967, Note_on_c, 0, 70, 61
1, 51970, Note_off_c, 0, 69, 64
1, 51983, Note_on_c, 0, 67, 46
1, 51987, Note_on_c, 0, 64, 35
1, 51992, Control_c, 0, 64, 0
1, 52118, Note_on_c, 0, 72, 67
1, 52139, Note_off_c, 0, 70, 64
1, 52232, Control_c, 0, 64, 127
1, 52262, Note_on_c, 0, 74, 79
1, 52298, Note_off_c, 0, 72, 64
1, 52327, Note_off_c, 0, 67, 64
1, 52410, Note_on_c, 0, 76, 73
1, 52443, Note_off_c, 0, 74, 64
1, 52505, Note_off_c, 0, 64, 64
1, 52552, Note_on_c, 0, 65, 30
1, 52560, Note_on_c, 0, 77, 72
1, 52564, Note_on_c, 0, 62, 24
1, 52588, Note_off_c, 0, 76, 64
1, 52604, Control_c, 0, 64, 0
1, 52717, Note_on_c, 0, 76, 64
1, 52761, Note_off_c, 0, 77, 64
1, 52831, Control_c, 0, 64, 127
1, 52872, Note_on_c, 0, 74, 63
1, 52900, Note_off_c, 0, 76, 64
1, 53012, Note_on_c, 0, 72, 60
1, 53015, Note_off_c, 0, 74, 64
1, 53121, Note_off_c, 0, 62, 64
1, 53134, Note_off_c, 0, 65, 64
1, 53140, Note_on_c, 0, 63, 22
1, 53149, Note_on_c, 0, 60, 21
1, 53203, Note_off_c, 0, 72, 64
1, 53203, Control_c, 0, 64, 0
1, 53209, Note_on_c, 0, 81, 60
1, 53351, Note_off_c, 0, 81, 64
1, 53351, Note_on_c, 0, 79, 69
1, 53560, Note_on_c, 0, 81, 55
1, 53575, Note_off_c, 0, 79, 64
1, 53730, Note_off_c, 0, 60, 64
1, 53753, Control_c, 0, 64, 127
1, 53820, Note_off_c, 0, 63, 64
1, 53884, Note_on_c, 0, 58, 8
1, 53889, Note_on_c, 0, 62, 20
1, 54040, Control_c, 0, 64, 0
1, 54196, Control_c, 0, 64, 127
1, 54223, Note_on_c, 0, 74, 56
1, 54234, Note_off_c, 0, 81, 64
1, 54237, Note_off_c, 0, 62, 64
1, 54290, Note_off_c, 0, 58, 64
1, 54390, Note_off_c, 0, 74, 64
1, 54447, Note_on_c, 0, 75, 42
1, 54491, Note_off_c, 0, 75, 64
1, 54507, Note_on_c, 0, 74, 41
1, 54544, Note_on_c, 0, 75, 55
1, 54549, Note_off_c, 0, 74, 64
1, 54591, Note_off_c, 0, 75, 64
1, 54599, Note_on_c, 0, 46, 8
1, 54599, Note_on_c, 0, 74, 65
1, 54688, Control_c, 0, 64, 0
1, 54773, Note_on_c, 0, 72, 53
1, 54792, Note_off_c, 0, 74, 64
1, 54892, Control_c, 0, 64, 127
1, 54928, Note_on_c, 0, 74, 63
1, 54937, Note_off_c, 0, 72, 64
1, 55050, Note_off_c, 0, 46, 64
1, 55117, Note_off_c, 0, 74, 64
1, 55243, Note_on_c, 0, 46, 19
1, 55249, Note_on_c, 0, 74, 56
1, 55504, Control_c, 0, 64, 0
1, 55567, Note_on_c, 0, 79, 56
1, 55575, Note_off_c, 0, 74, 64
1, 55670, Control_c, 0, 64, 127
1, 55688, Note_off_c, 0, 46, 64
1, 55876, Note_on_c, 0, 58, 23
1, 55883, Note_on_c, 0, 62, 46
1, 56173, Note_off_c, 0, 62, 64
1, 56436, Note_off_c, 0, 58, 64
1, 56488, Note_on_c, 0, 60, 39
1, 56499, Note_on_c, 0, 57, 5
1, 56737, Control_c, 0, 64, 0
1, 56869, Control_c, 0, 64, 127
1, 56982, Note_off_c, 0, 57, 64
1, 57032, Note_off_c, 0, 60, 64
1, 57076, Note_on_c, 0, 58, 22
1, 57090, Note_on_c, 0, 55, 21
1, 57337, Control_c, 0, 64, 0
1, 57444, Control_c, 0, 64, 127
1, 57482, Note_off_c, 0, 55, 64
1, 57532, Note_off_c, 0, 58, 64
1, 57717, Note_on_c, 0, 57, 8
1, 57727, Note_on_c, 0, 60, 25
1, 57792, Control_c, 0, 64, 0
1, 57895, Note_on_c, 0, 82, 41
1, 57922, Note_off_c, 0, 79, 64
1, 57959, Control_c, 0, 64, 127
1, 58063, Note_off_c, 0, 57, 64
1, 58066, Note_on_c, 0, 81, 63
1, 58087, Note_off_c, 0, 60, 64
1, 58096, Note_off_c, 0, 82, 64
1, 58209, Note_on_c, 0, 79, 81
1, 58246, Note_off_c, 0, 81, 64
1, 58360, Note_off_c, 0, 79, 64
1, 58360, Note_on_c, 0, 77, 66
1, 58380, Note_on_c, 0, 45, 24
1, 58517, Note_on_c, 0, 76, 57
1, 58561, Note_off_c, 0, 77, 64
1, 58664, Note_off_c, 0, 45, 64
1, 58667, Note_on_c, 0, 74, 62
1, 58688, Note_off_c, 0, 76, 64
1, 58809, Note_on_c, 0, 72, 61
1, 58814, Note_off_c, 0, 74, 64
1, 58915, Note_off_c, 0, 72, 64
1, 59017, Note_on_c, 0, 72, 51
1, 59039, Note_on_c, 0, 45, 16
1, 59170, Control_c, 0, 64, 0
1, 59313, Control_c, 0, 64, 127
1, 59383, Note_off_c, 0, 45, 64
1, 59436, Note_on_c, 0, 77, 42
1, 59444, Note_off_c, 0, 72, 64
1, 59695, Note_on_c, 0, 60, 40
1, 59712, Note_on_c, 0, 57, 9
1, 59842, Control_c, 0, 64, 0
1, 59937, Control_c, 0, 64, 127
1, 60049, Note_off_c, 0, 77, 64
1, 60060, Note_off_c, 0, 60, 64
1, 60077, Note_on_c, 0, 79, 40
1, 60141, Note_off_c, 0, 79, 64
1, 60141, Note_on_c, 0, 58, 21
1, 60173, Note_on_c, 0, 77, 35
1, 60213, Note_off_c, 0, 58, 64
1, 60216, Note_off_c, 0, 77, 64
1, 60235, Note_on_c, 0, 76, 43
1, 60249, Note_on_c, 0, 60, 25
1, 60282, Note_off_c, 0, 76, 64
1, 60302, Note_on_c, 0, 77, 38
1, 60327, Note_off_c, 0, 60, 64
1, 60335, Note_off_c, 0, 57, 64
1, 60347, Note_on_c, 0, 58, 22
1, 60352, Note_off_c, 0, 77, 64
1, 60366, Note_on_c, 0, 55, 29
1, 60371, Note_on_c, 0, 79, 36
1, 60419, Note_on_c, 0, 77, 52
1, 60427, Note_off_c, 0, 79, 64
1, 60477, Control_c, 0, 64, 0
1, 60477, Note_off_c, 0, 77, 64
1, 60497, Note_on_c, 0, 79, 36
1, 60542, Note_on_c, 0, 77, 55
1, 60553, Note_off_c, 0, 79, 64
1, 60586, Note_off_c, 0, 77, 64
1, 60595, Control_c, 0, 64, 127
1, 60598, Note_on_c, 0, 79, 46
1, 60650, Note_off_c, 0, 79, 64
1, 60650, Note_on_c, 0, 77, 43
1, 60697, Note_off_c, 0, 77, 64
1, 60706, Note_on_c, 0, 79, 66
1, 60750, Note_off_c, 0, 79, 64
1, 60761, Note_on_c, 0, 77, 50
1, 60814, Note_off_c, 0, 77, 64
1, 60820, Note_on_c, 0, 79, 57
1, 60868, Note_off_c, 0, 79, 64
1, 60875, Note_on_c, 0, 77, 56
1, 60889, Note_off_c, 0, 58, 64
1, 60900, Note_off_c, 0, 55, 64
1, 60921, Note_off_c, 0, 77, 64
1, 60932, Note_on_c, 0, 79, 67
1, 60935, Note_on_c, 0, 57, 36
1, 60951, Note_on_c, 0, 53, 57
1, 60982, Note_off_c, 0, 79, 64
1, 60996, Note_on_c, 0, 77, 51
1, 61042, Note_off_c, 0, 77, 64
1, 61054, Note_on_c, 0, 79, 74
1, 61096, Note_off_c, 0, 79, 64
1, 61120, Note_on_c, 0, 77, 59
1, 61163, Note_off_c, 0, 77, 64
1, 61182, Note_on_c, 0, 79, 73
1, 61207, Control_c, 0, 64, 0
1, 61218, Note_off_c, 0, 79, 64
1, 61241, Note_on_c, 0, 77, 65
1, 61282, Note_off_c, 0, 77, 64
1, 61299, Note_on_c, 0, 79, 53
1, 61327, Control_c, 0, 64, 127
1, 61339, Note_off_c, 0, 79, 64
1, 61347, Note_on_c, 0, 77, 60
1, 61385, Note_off_c, 0, 77, 64
1, 61391, Note_on_c, 0, 79, 76
1, 61438, Note_off_c, 0, 79, 64
1, 61449, Note_on_c, 0, 77, 51
1, 61492, Note_off_c, 0, 77, 64
1, 61500, Note_off_c, 0, 57, 64
1, 61505, Note_on_c, 0, 79, 66
1, 61528, Note_on_c, 0, 58, 25
1, 61534, Note_off_c, 0, 53, 64
1, 61550, Note_on_c, 0, 77, 57
1, 61555, Note_on_c, 0, 55, 28
1, 61567, Note_off_c, 0, 79, 64
1, 61627, Control_c, 0, 64, 0
1, 61715, Note_on_c, 0, 76, 56
1, 61719, Note_off_c, 0, 77, 64
1, 61770, Control_c, 0, 64, 127
1, 61851, Note_off_c, 0, 55, 64
1, 61851, Note_on_c, 0, 74, 72
1, 61881, Note_off_c, 0, 76, 64
1, 61885, Note_off_c, 0, 58, 64
1, 61995, Note_on_c, 0, 76, 75
1, 62017, Note_off_c, 0, 74, 64
1, 62173, Note_on_c, 0, 77, 73
1, 62179, Note_on_c, 0, 43, 25
1, 62194, Note_off_c, 0, 76, 64
1, 62263, Control_c, 0, 64, 0
1, 62394, Control_c, 0, 64, 127
1, 62485, Note_on_c, 0, 74, 68
1, 62541, Note_off_c, 0, 77, 64
1, 62623, Note_off_c, 0, 43, 64
1, 62834, Note_on_c, 0, 72, 55
1, 62859, Note_on_c, 0, 43, 29
1, 62871, Note_off_c, 0, 74, 64
1, 63001, Note_on_c, 0, 70, 47
1, 63006, Control_c, 0, 64, 0
1, 63045, Note_off_c, 0, 72, 64
1, 63165, Note_on_c, 0, 69, 49
1, 63174, Note_off_c, 0, 70, 64
1, 63210, Control_c, 0, 64, 127
1, 63229, Note_off_c, 0, 43, 64
1, 63461, Note_off_c, 0, 69, 64
1, 63470, Note_on_c, 0, 70, 36
1, 63481, Note_on_c, 0, 57, 26
1, 63492, Note_on_c, 0, 53, 42
1, 63609, Note_off_c, 0, 70, 64
1, 63617, Note_on_c, 0, 69, 42
1, 63664, Control_c, 0, 64, 0
1, 63764, Note_on_c, 0, 70, 41
1, 63783, Note_off_c, 0, 69, 64
1, 63881, Control_c, 0, 64, 127
1, 63923, Note_off_c, 0, 57, 64
1, 64099, Note_on_c, 0, 55, 43
1, 64099, Note_off_c, 0, 53, 64
1, 64102, Note_on_c, 0, 52, 36
1, 64216, Control_c, 0, 64, 0
1, 64283, Note_on_c, 0, 72, 57
1, 64308, Note_off_c, 0, 70, 64
1, 64335, Control_c, 0, 64, 127
1, 64419, Control_c, 0, 64, 0
1, 64438, Note_on_c, 0, 70, 61
1, 64480, Note_off_c, 0, 72, 64
1, 64539, Control_c, 0, 64, 127
1, 64584, Note_on_c, 0, 69, 57
1, 64606, Note_off_c, 0, 70, 64
1, 64773, Note_off_c, 0, 55, 64
1, 64779, Note_on_c, 0, 70, 50
1, 64795, Note_off_c, 0, 52, 64
1, 64800, Note_on_c, 0, 53, 53
1, 64800, Note_on_c, 0, 50, 33
1, 64803, Note_off_c, 0, 69, 64
1, 64839, Control_c, 0, 64, 0
1, 65163, Control_c, 0, 64, 127
1, 65180, Note_off_c, 0, 70, 64
1, 65406, Note_on_c, 0, 70, 53
1, 65447, Note_off_c, 0, 53, 64
1, 65541, Note_off_c, 0, 70, 64
1, 65625, Note_off_c, 0, 50, 64
1, 65658, Note_on_c, 0, 70, 54
1, 65686, Note_on_c, 0, 52, 31
1, 65695, Note_on_c, 0, 48, 16
1, 65810, Control_c, 0, 64, 0
1, 66038, Control_c, 0, 64, 127
1, 66222, Note_on_c, 0, 79, 55
1, 66229, Control_c, 0, 64, 0
1, 66275, Note_off_c, 0, 70, 64
1, 66356, Note_off_c, 0, 52, 64
1, 66361, Control_c, 0, 64, 127
1, 66385, Note_off_c, 0, 48, 64
1, 66695, Note_on_c, 0, 36, 31
1, 67082, Note_off_c, 0, 36, 64
1, 67386, Note_on_c, 0, 36, 24
1, 67564, Note_on_c, 0, 77, 27
1, 67583, Note_off_c, 0, 79, 64
1, 67631, Note_off_c, 0, 36, 64
1, 67704, Note_off_c, 0, 77, 64
1, 67723, Note_on_c, 0, 76, 34
1, 67879, Note_on_c, 0, 77, 44
1, 67884, Note_off_c, 0, 76, 64
1, 68038, Note_off_c, 0, 77, 64
1, 68038, Note_on_c, 0, 79, 51
1, 68043, Note_on_c, 0, 48, 22
1, 68058, Note_on_c, 0, 52, 35
1, 68146, Control_c, 0, 64, 0
1, 68208, Note_on_c, 0, 77, 50
1, 68230, Note_off_c, 0, 79, 64
1, 68303, Control_c, 0, 64, 127
1, 68349, Note_off_c, 0, 77, 64
1, 68349, Note_on_c, 0, 76, 45
1, 68503, Note_on_c, 0, 74, 49
1, 68520, Note_off_c, 0, 76, 64
1, 68565, Note_off_c, 0, 52, 64
1, 68668, Note_on_c, 0, 72, 46
1, 68673, Note_on_c, 0, 53, 55
1, 68673, Note_off_c, 0, 74, 64
1, 68677, Note_on_c, 0, 50, 38
1, 68734, Control_c, 0, 64, 0
1, 68739, Note_off_c, 0, 48, 64
1, 68962, Control_c, 0, 64, 127
1, 68962, Note_on_c, 0, 70, 49
1, 68985, Note_off_c, 0, 72, 64
1, 69093, Control_c, 0, 64, 0
1, 69111, Note_on_c, 0, 69, 57
1, 69135, Note_off_c, 0, 70, 64
1, 69200, Control_c, 0, 64, 127
1, 69313, Note_on_c, 0, 70, 58
1, 69319, Note_off_c, 0, 53, 64
1, 69339, Note_on_c, 0, 55, 39
1, 69345, Note_off_c, 0, 50, 64
1, 69349, Note_on_c, 0, 52, 27
1, 69352, Note_off_c, 0, 69, 64
1, 69525, Control_c, 0, 64, 0
1, 69714, Note_off_c, 0, 55, 64
1, 69717, Control_c, 0, 64, 127
1, 69821, Note_off_c, 0, 70, 64
1, 69826, Note_on_c, 0, 79, 64
1, 70001, Note_off_c, 0, 52, 64
1, 70018, Note_on_c, 0, 70, 55
1, 70035, Note_off_c, 0, 79, 64
1, 70044, Note_on_c, 0, 57, 27
1, 70047, Note_on_c, 0, 53, 38
1, 70185, Control_c, 0, 64, 0
1, 70330, Note_on_c, 0, 69, 51
1, 70363, Note_off_c, 0, 70, 64
1, 70451, Note_off_c, 0, 57, 64
1, 70464, Note_off_c, 0, 53, 64
1, 70472, Control_c, 0, 64, 127
1, 70740, Note_off_c, 0, 69, 64
1, 70740, Note_on_c, 0, 81, 39
1, 70759, Note_on_c, 0, 36, 26
1, 70963, Control_c, 0, 64, 0
1, 71132, Control_c, 0, 64, 127
1, 71197, Note_off_c, 0, 36, 64
1, 71397, Note_on_c, 0, 36, 41
1, 71570, Note_on_c, 0, 79, 49
1, 71621, Note_off_c, 0, 81, 64
1, 71645, Note_off_c, 0, 36, 64
1, 71723, Note_on_c, 0, 77, 60
1, 71723, Note_off_c, 0, 79, 64
1, 71866, Note_on_c, 0, 79, 73
1, 71893, Note_off_c, 0, 77, 64
1, 72032, Note_on_c, 0, 50, 34
1, 72032, Note_on_c, 0, 81, 67
1, 72040, Note_on_c, 0, 53, 54
1, 72054, Note_off_c, 0, 79, 64
1, 72125, Control_c, 0, 64, 0
1, 72217, Note_on_c, 0, 79, 73
1, 72258, Control_c, 0, 64, 127
1, 72269, Note_off_c, 0, 81, 64
1, 72366, Note_on_c, 0, 77, 68
1, 72391, Note_off_c, 0, 79, 64
1, 72509, Note_on_c, 0, 76, 57
1, 72520, Note_off_c, 0, 53, 64
1, 72532, Note_off_c, 0, 77, 64
1, 72664, Note_on_c, 0, 74, 62
1, 72667, Note_off_c, 0, 76, 64
1, 72671, Note_on_c, 0, 55, 31
1, 72679, Note_on_c, 0, 52, 34
1, 72685, Note_off_c, 0, 50, 64
1, 72701, Control_c, 0, 64, 0
1, 72821, Note_on_c, 0, 72, 61
1, 72865, Note_off_c, 0, 74, 64
1, 72880, Control_c, 0, 64, 127
1, 72966, Note_on_c, 0, 70, 60
1, 72999, Note_off_c, 0, 72, 64
1, 73107, Note_on_c, 0, 69, 61
1, 73136, Note_off_c, 0, 70, 64
1, 73231, Note_off_c, 0, 55, 64
1, 73231, Note_off_c, 0, 52, 64
1, 73261, Note_on_c, 0, 67, 58
1, 73270, Note_on_c, 0, 53, 40
1, 73275, Note_off_c, 0, 69, 64
1, 73275, Note_on_c, 0, 57, 24
1, 73433, Control_c, 0, 64, 0
1, 73433, Note_on_c, 0, 65, 57
1, 73487, Note_off_c, 0, 67, 64
1, 73589, Note_on_c, 0, 64, 71
1, 73617, Note_off_c, 0, 65, 64
1, 73635, Control_c, 0, 64, 127
1, 73720, Note_off_c, 0, 57, 64
1, 73752, Note_on_c, 0, 65, 68
1, 73763, Note_off_c, 0, 64, 64
1, 73805, Note_off_c, 0, 53, 64
1, 73868, Note_off_c, 0, 65, 64
1, 73969, Note_on_c, 0, 65, 52
1, 73977, Note_on_c, 0, 58, 17
1, 73980, Note_on_c, 0, 55, 33
1, 74116, Control_c, 0, 64, 0
1, 74309, Note_off_c, 0, 65, 64
1, 74309, Note_on_c, 0, 64, 53
1, 74415, Note_off_c, 0, 55, 64
1, 74439, Control_c, 0, 64, 127
1, 74443, Note_off_c, 0, 58, 64
1, 74707, Note_on_c, 0, 36, 32
1, 74876, Note_on_c, 0, 67, 35
1, 74885, Note_off_c, 0, 64, 64
1, 75033, Note_on_c, 0, 65, 44
1, 75043, Note_off_c, 0, 67, 64
1, 75124, Note_off_c, 0, 36, 64
1, 75175, Note_off_c, 0, 65, 64
1, 75186, Note_on_c, 0, 64, 51
1, 75323, Note_off_c, 0, 64, 64
1, 75326, Control_c, 0, 64, 0
1, 75330, Note_on_c, 0, 70, 42
1, 75339, Note_on_c, 0, 36, 40
1, 75500, Note_on_c, 0, 72, 41
1, 75511, Note_off_c, 0, 70, 64
1, 75529, Control_c, 0, 64, 127
1, 75582, Note_off_c, 0, 36, 64
1, 75631, Note_on_c, 0, 70, 44
1, 75653, Note_off_c, 0, 72, 64
1, 75771, Note_on_c, 0, 69, 54
1, 75788, Note_off_c, 0, 70, 64
1, 75947, Note_on_c, 0, 70, 58
1, 75960, Note_on_c, 0, 52, 39
1, 75969, Note_on_c, 0, 55, 38
1, 75974, Note_off_c, 0, 69, 64
1, 76044, Control_c, 0, 64, 0
1, 76188, Control_c, 0, 64, 127
1, 76264, Note_on_c, 0, 72, 68
1, 76300, Note_off_c, 0, 70, 64
1, 76545, Note_off_c, 0, 52, 64
1, 76548, Note_off_c, 0, 55, 64
1, 76576, Note_on_c, 0, 53, 43
1, 76576, Note_on_c, 0, 57, 35
1, 76656, Control_c, 0, 64, 0
1, 76824, Control_c, 0, 64, 127
1, 76918, Note_on_c, 0, 74, 74
1, 76966, Note_off_c, 0, 72, 64
1, 77052, Control_c, 0, 64, 0
1, 77172, Control_c, 0, 64, 127
1, 77230, Note_on_c, 0, 58, 42
1, 77234, Note_on_c, 0, 55, 46
1, 77266, Note_off_c, 0, 57, 64
1, 77287, Note_off_c, 0, 53, 64
1, 77549, Note_on_c, 0, 76, 59
1, 77584, Note_off_c, 0, 74, 64
1, 77651, Control_c, 0, 64, 0
1, 77769, Control_c, 0, 64, 127
1, 77844, Note_off_c, 0, 58, 64
1, 77849, Note_on_c, 0, 57, 31
1, 77861, Note_off_c, 0, 55, 64
1, 77861, Note_on_c, 0, 60, 32
1, 77902, Control_c, 0, 64, 0
1, 78039, Note_on_c, 0, 79, 57
1, 78046, Note_off_c, 0, 76, 64
1, 78046, Control_c, 0, 64, 127
1, 78158, Note_off_c, 0, 60, 64
1, 78187, Note_off_c, 0, 57, 64
1, 78209, Note_on_c, 0, 77, 56
1, 78247, Note_off_c, 0, 79, 64
1, 78368, Note_on_c, 0, 76, 52
1, 78381, Note_off_c, 0, 77, 64
1, 78534, Note_on_c, 0, 77, 47
1, 78546, Note_off_c, 0, 76, 64
1, 78546, Note_on_c, 0, 36, 33
1, 78645, Control_c, 0, 64, 0
1, 78680, Note_on_c, 0, 72, 52
1, 78701, Note_off_c, 0, 77, 64
1, 78790, Control_c, 0, 64, 127
1, 78832, Note_on_c, 0, 74, 67
1, 78844, Note_off_c, 0, 72, 64
1, 78953, Note_off_c, 0, 36, 64
1, 78977, Note_on_c, 0, 76, 65
1, 78999, Note_off_c, 0, 74, 64
1, 79100, Note_off_c, 0, 76, 64
1, 79117, Note_on_c, 0, 77, 68
1, 79141, Note_on_c, 0, 36, 38
1, 79161, Control_c, 0, 64, 0
1, 79264, Note_on_c, 0, 76, 65
1, 79278, Note_off_c, 0, 77, 64
1, 79292, Control_c, 0, 64, 127
1, 79348, Note_off_c, 0, 36, 64
1, 79404, Note_on_c, 0, 77, 68
1, 79420, Note_off_c, 0, 76, 64
1, 79552, Note_on_c, 0, 79, 87
1, 79574, Note_off_c, 0, 77, 64
1, 79710, Note_on_c, 0, 77, 78
1, 79727, Note_on_c, 0, 60, 50
1, 79730, Note_off_c, 0, 79, 64
1, 79733, Note_on_c, 0, 57, 34
1, 79871, Note_on_c, 0, 79, 89
1, 79910, Note_off_c, 0, 77, 64
1, 80017, Note_on_c, 0, 81, 83
1, 80035, Note_off_c, 0, 79, 64
1, 80169, Note_on_c, 0, 79, 95
1, 80189, Note_off_c, 0, 81, 64
1, 80322, Note_on_c, 0, 81, 84
1, 80322, Note_on_c, 0, 58, 44
1, 80336, Note_on_c, 0, 55, 38
1, 80347, Note_off_c, 0, 60, 64
1, 80347, Note_off_c, 0, 57, 64
1, 80362, Note_off_c, 0, 79, 64
1, 80407, Control_c, 0, 64, 0
1, 80470, Note_on_c, 0, 82, 75
1, 80510, Note_off_c, 0, 81, 64
1, 80587, Control_c, 0, 64, 127
1, 80627, Note_on_c, 0, 81, 84
1, 80668, Note_off_c, 0, 82, 64
1, 80785, Note_on_c, 0, 82, 78
1, 80835, Note_off_c, 0, 81, 64
1, 80960, Note_on_c, 0, 84, 80
1, 80963, Note_off_c, 0, 58, 64
1, 80972, Note_on_c, 0, 57, 36
1, 80977, Note_on_c, 0, 53, 55
1, 81002, Note_off_c, 0, 82, 64
1, 81002, Note_off_c, 0, 55, 64
1, 81136, Note_on_c, 0, 81, 87
1, 81194, Note_off_c, 0, 84, 64
1, 81300, Note_on_c, 0, 82, 80
1, 81350, Note_off_c, 0, 81, 64
1, 81354, Control_c, 0, 64, 0
1, 81462, Control_c, 0, 64, 127
1, 81490, Note_on_c, 0, 84, 91
1, 81518, Note_off_c, 0, 82, 64
1, 81665, Note_off_c, 0, 84, 64
1, 81702, Note_off_c, 0, 57, 64
1, 81758, Note_on_c, 0, 58, 35
1, 81768, Note_on_c, 0, 84, 61
1, 81786, Note_on_c, 0, 55, 39
1, 81810, Note_off_c, 0, 53, 64
1, 81869, Control_c, 0, 64, 0
1, 82038, Control_c, 0, 64, 127
1, 82080, Note_off_c, 0, 84, 64
1, 82234, Note_on_c, 0, 77, 58
1, 82251, Note_off_c, 0, 58, 64
1, 82256, Note_off_c, 0, 55, 64
1, 82655, Note_on_c, 0, 36, 25
1, 82816, Control_c, 0, 64, 0
1, 82936, Control_c, 0, 64, 127
1, 83039, Note_off_c, 0, 77, 64
1, 83039, Note_on_c, 0, 76, 34
1, 83045, Note_off_c, 0, 36, 64
1, 83353, Note_on_c, 0, 36, 29
1, 83353, Control_c, 0, 64, 0
1, 83510, Control_c, 0, 64, 127
1, 83538, Note_on_c, 0, 74, 44
1, 83566, Note_off_c, 0, 76, 64
1, 83644, Note_off_c, 0, 36, 64
1, 83697, Note_on_c, 0, 76, 53
1, 83713, Note_off_c, 0, 74, 64
1, 83849, Note_on_c, 0, 77, 61
1, 83857, Note_off_c, 0, 76, 64
1, 83995, Note_on_c, 0, 76, 54
1, 84000, Note_on_c, 0, 58, 21
1, 84016, Note_on_c, 0, 55, 28
1, 84028, Note_off_c, 0, 77, 64
1, 84147, Control_c, 0, 64, 0
1, 84158, Note_on_c, 0, 79, 67
1, 84175, Note_off_c, 0, 76, 64
1, 84290, Control_c, 0, 64, 127
1, 84320, Note_on_c, 0, 77, 64
1, 84362, Note_off_c, 0, 79, 64
1, 84465, Note_on_c, 0, 76, 57
1, 84471, Note_off_c, 0, 58, 64
1, 84487, Note_off_c, 0, 77, 64
1, 84491, Note_off_c, 0, 55, 64
1, 84637, Note_on_c, 0, 74, 61
1, 84655, Note_on_c, 0, 57, 21
1, 84663, Note_off_c, 0, 76, 64
1, 84679, Note_on_c, 0, 53, 34
1, 84802, Note_on_c, 0, 72, 55
1, 84808, Note_off_c, 0, 74, 64
1, 84983, Note_on_c, 0, 70, 45
1, 84997, Control_c, 0, 64, 0
1, 85005, Note_off_c, 0, 72, 64
1, 85130, Control_c, 0, 64, 127
1, 85173, Note_on_c, 0, 69, 40
1, 85183, Note_off_c, 0, 70, 64
1, 85183, Note_off_c, 0, 57, 64
1, 85207, Note_off_c, 0, 53, 64
1, 85440, Note_on_c, 0, 70, 30
1, 85457, Note_on_c, 0, 55, 23
1, 85463, Note_off_c, 0, 69, 64
1, 85481, Note_on_c, 0, 52, 24
1, 85632, Control_c, 0, 64, 0
1, 85836, Control_c, 0, 64, 127
1, 85922, Note_off_c, 0, 70, 64
1, 85961, Note_off_c, 0, 55, 64
1, 85961, Note_off_c, 0, 52, 64
1, 86003, Note_on_c, 0, 79, 50
1, 86103, Note_off_c, 0, 79, 64
1, 86234, Note_on_c, 0, 79, 55
1, 86257, Note_on_c, 0, 53, 36
1, 86267, Note_on_c, 0, 57, 23
1, 86304, Control_c, 0, 64, 0
1, 86440, Note_on_c, 0, 77, 49
1, 86462, Note_off_c, 0, 79, 64
1, 86471, Control_c, 0, 64, 127
1, 86521, Note_off_c, 0, 57, 64
1, 86593, Note_off_c, 0, 53, 64
1, 86608, Note_on_c, 0, 76, 38
1, 86618, Note_off_c, 0, 77, 64
1, 86780, Note_on_c, 0, 79, 54
1, 86792, Note_off_c, 0, 76, 64
1, 86961, Note_on_c, 0, 77, 53
1, 86973, Note_on_c, 0, 36, 33
1, 86983, Note_off_c, 0, 79, 64
1, 87125, Note_on_c, 0, 76, 40
1, 87182, Note_off_c, 0, 77, 64
1, 87284, Note_on_c, 0, 74, 46
1, 87289, Note_off_c, 0, 76, 64
1, 87391, Note_off_c, 0, 36, 64
1, 87435, Note_on_c, 0, 77, 59
1, 87435, Note_off_c, 0, 74, 64
1, 87594, Note_on_c, 0, 76, 51
1, 87610, Note_off_c, 0, 77, 64
1, 87613, Note_on_c, 0, 36, 35
1, 87646, Control_c, 0, 64, 0
1, 87761, Note_on_c, 0, 74, 61
1, 87786, Note_off_c, 0, 76, 64
1, 87802, Control_c, 0, 64, 127
1, 87828, Note_off_c, 0, 36, 64
1, 87911, Note_on_c, 0, 72, 45
1, 87917, Note_off_c, 0, 74, 64
1, 88065, Note_off_c, 0, 72, 64
1, 88069, Note_on_c, 0, 76, 52
1, 88237, Note_on_c, 0, 74, 60
1, 88245, Note_off_c, 0, 76, 64
1, 88253, Note_on_c, 0, 53, 47
1, 88257, Note_on_c, 0, 57, 30
1, 88395, Note_on_c, 0, 72, 51
1, 88409, Note_off_c, 0, 74, 64
1, 88537, Note_on_c, 0, 70, 51
1, 88552, Note_off_c, 0, 72, 64
1, 88661, Note_off_c, 0, 57, 64
1, 88697, Note_on_c, 0, 74, 72
1, 88700, Note_off_c, 0, 70, 64
1, 88850, Note_on_c, 0, 72, 63
1, 88859, Note_on_c, 0, 55, 48
1, 88864, Note_off_c, 0, 53, 64
1, 88864, Note_off_c, 0, 74, 64
1, 88864, Note_on_c, 0, 52, 44
1, 88953, Control_c, 0, 64, 0
1, 89015, Note_on_c, 0, 70, 59
1, 89056, Note_off_c, 0, 72, 64
1, 89120, Control_c, 0, 64, 127
1, 89161, Note_on_c, 0, 69, 59
1, 89184, Note_off_c, 0, 70, 64
1, 89318, Note_on_c, 0, 72, 67
1, 89327, Note_off_c, 0, 69, 64
1, 89473, Note_off_c, 0, 55, 64
1, 89487, Note_on_c, 0, 70, 62
1, 89497, Note_on_c, 0, 53, 67
1, 89504, Note_on_c, 0, 50, 39
1, 89507, Note_off_c, 0, 52, 64
1, 89516, Note_off_c, 0, 72, 64
1, 89647, Control_c, 0, 64, 0
1, 89669, Note_on_c, 0, 69, 58
1, 89730, Note_off_c, 0, 70, 64
1, 89803, Control_c, 0, 64, 127
1, 89817, Note_on_c, 0, 67, 67
1, 89839, Note_off_c, 0, 69, 64
1, 89992, Note_on_c, 0, 70, 63
1, 90026, Note_off_c, 0, 67, 64
1, 90123, Note_off_c, 0, 70, 64
1, 90267, Note_on_c, 0, 70, 65
1, 90267, Note_off_c, 0, 53, 64
1, 90278, Note_on_c, 0, 55, 34
1, 90281, Note_on_c, 0, 52, 43
1, 90304, Note_off_c, 0, 50, 64
1, 90405, Control_c, 0, 64, 0
1, 90594, Control_c, 0, 64, 127
1, 90733, Note_on_c, 0, 60, 65
1, 90797, Note_off_c, 0, 70, 64
1, 90814, Note_off_c, 0, 55, 64
1, 90823, Note_off_c, 0, 52, 64
1, 91095, Note_on_c, 0, 36, 49
1, 91109, Control_c, 0, 64, 0
1, 91313, Control_c, 0, 64, 127
1, 91491, Note_on_c, 0, 64, 81
1, 91521, Note_off_c, 0, 36, 64
1, 91535, Note_off_c, 0, 60, 64
1, 91814, Note_on_c, 0, 67, 80
1, 91834, Note_on_c, 0, 36, 36
1, 91869, Note_off_c, 0, 64, 64
1, 91948, Control_c, 0, 64, 0
1, 92079, Control_c, 0, 64, 127
1, 92123, Note_on_c, 0, 70, 70
1, 92162, Note_off_c, 0, 36, 64
1, 92243, Note_off_c, 0, 67, 64
1, 92449, Note_on_c, 0, 74, 73
1, 92458, Note_on_c, 0, 52, 56
1, 92458, Note_on_c, 0, 55, 45
1, 92544, Note_off_c, 0, 70, 64
1, 92583, Control_c, 0, 64, 0
1, 92739, Control_c, 0, 64, 127
1, 92881, Note_on_c, 0, 72, 61
1, 92915, Note_off_c, 0, 74, 64
1, 93231, Control_c, 0, 64, 0
1, 93235, Note_on_c, 0, 57, 43
1, 93235, Note_on_c, 0, 53, 59
1, 93238, Note_off_c, 0, 55, 64
1, 93245, Note_off_c, 0, 52, 64
1, 93408, Note_on_c, 0, 70, 57
1, 93466, Note_off_c, 0, 72, 64
1, 93507, Control_c, 0, 64, 127
1, 93568, Note_on_c, 0, 69, 58
1, 93605, Note_off_c, 0, 70, 64
1, 93714, Note_off_c, 0, 53, 64
1, 93720, Note_on_c, 0, 67, 68
1, 93739, Note_off_c, 0, 69, 64
1, 93886, Note_on_c, 0, 69, 67
1, 93890, Control_c, 0, 64, 0
1, 93890, Note_on_c, 0, 52, 59
1, 93893, Note_on_c, 0, 48, 42
1, 93893, Note_off_c, 0, 57, 64
1, 93926, Note_off_c, 0, 67, 64
1, 94118, Note_off_c, 0, 69, 64
1, 94129, Control_c, 0, 64, 127
1, 94237, Note_on_c, 0, 72, 59
1, 94321, Control_c, 0, 64, 0
1, 94500, Control_c, 0, 64, 127
1, 94549, Note_off_c, 0, 52, 64
1, 94553, Note_on_c, 0, 53, 59
1, 94564, Note_on_c, 0, 50, 38
1, 94572, Note_off_c, 0, 48, 64
1, 94597, Control_c, 0, 64, 0
1, 94733, Note_on_c, 0, 67, 63
1, 94777, Control_c, 0, 64, 127
1, 94789, Note_off_c, 0, 72, 64
1, 94897, Note_on_c, 0, 65, 63
1, 94950, Note_off_c, 0, 67, 64
1, 95004, Control_c, 0, 64, 0
1, 95054, Note_on_c, 0, 64, 76
1, 95071, Note_off_c, 0, 65, 64
1, 95160, Control_c, 0, 64, 127
1, 95301, Note_on_c, 0, 65, 66
1, 95301, Note_on_c, 0, 46, 32
1, 95335, Note_off_c, 0, 64, 64
1, 95340, Control_c, 0, 64, 0
1, 95344, Note_off_c, 0, 50, 64
1, 95555, Control_c, 0, 64, 127
1, 95624, Note_off_c, 0, 65, 64
1, 95674, Note_on_c, 0, 74, 67
1, 95784, Control_c, 0, 64, 0
1, 95915, Control_c, 0, 64, 127
1, 96073, Note_on_c, 0, 69, 38
1, 96088, Note_on_c, 0, 48, 31
1, 96099, Note_off_c, 0, 74, 64
1, 96115, Note_off_c, 0, 46, 64
1, 96156, Control_c, 0, 64, 0
1, 96291, Note_on_c, 0, 70, 41
1, 96315, Note_off_c, 0, 69, 64
1, 96471, Note_on_c, 0, 69, 45
1, 96503, Note_off_c, 0, 70, 64
1, 96514, Control_c, 0, 64, 127
1, 96619, Note_on_c, 0, 67, 52
1, 96638, Note_off_c, 0, 69, 64
1, 96787, Note_on_c, 0, 69, 46
1, 96801, Control_c, 0, 64, 0
1, 96808, Note_off_c, 0, 67, 64
1, 96812, Note_on_c, 0, 52, 42
1, 96851, Note_off_c, 0, 53, 64
1, 96947, Note_on_c, 0, 67, 56
1, 96967, Note_off_c, 0, 69, 64
1, 96967, Control_c, 0, 64, 127
1, 97085, Note_off_c, 0, 67, 64
1, 97092, Note_on_c, 0, 65, 46
1, 97092, Note_on_c, 0, 50, 39
1, 97126, Note_off_c, 0, 52, 64
1, 97138, Control_c, 0, 64, 0
1, 97227, Note_off_c, 0, 65, 64
1, 97237, Note_on_c, 0, 67, 57
1, 97318, Control_c, 0, 64, 127
1, 97354, Note_off_c, 0, 67, 64
1, 97390, Note_on_c, 0, 65, 39
1, 97439, Note_off_c, 0, 65, 64
1, 97466, Note_on_c, 0, 52, 44
1, 97471, Note_off_c, 0, 50, 64
1, 97477, Note_on_c, 0, 67, 43
1, 97510, Control_c, 0, 64, 0
1, 97532, Note_off_c, 0, 67, 64
1, 97555, Note_on_c, 0, 69, 27
1, 97594, Note_on_c, 0, 67, 48
1, 97614, Note_off_c, 0, 69, 64
1, 97655, Note_off_c, 0, 67, 64
1, 97667, Note_on_c, 0, 69, 32
1, 97716, Note_on_c, 0, 67, 53
1, 97733, Note_off_c, 0, 69, 64
1, 97772, Note_off_c, 0, 67, 64
1, 97772, Note_on_c, 0, 69, 32
1, 97831, Note_on_c, 0, 67, 51
1, 97839, Note_off_c, 0, 69, 64
1, 97884, Note_off_c, 0, 67, 64
1, 97890, Note_on_c, 0, 69, 32
1, 97940, Control_c, 0, 64, 127
1, 97944, Note_on_c, 0, 67, 43
1, 97956, Note_off_c, 0, 69, 64
1, 97992, Note_off_c, 0, 67, 64
1, 98000, Note_on_c, 0, 69, 32
1, 98048, Note_on_c, 0, 67, 47
1, 98065, Note_off_c, 0, 69, 64
1, 98098, Note_off_c, 0, 67, 64
1, 98113, Note_on_c, 0, 69, 34
1, 98160, Note_on_c, 0, 67, 44
1, 98173, Note_off_c, 0, 69, 64
1, 98210, Note_off_c, 0, 67, 64
1, 98230, Note_on_c, 0, 69, 36
1, 98290, Note_off_c, 0, 69, 64
1, 98290, Note_on_c, 0, 67, 40
1, 98341, Note_off_c, 0, 67, 64
1, 98344, Note_on_c, 0, 69, 36
1, 98413, Note_off_c, 0, 69, 64
1, 98416, Note_on_c, 0, 67, 29
1, 98424, Note_on_c, 0, 58, 16
1, 98457, Note_off_c, 0, 52, 64
1, 98475, Note_off_c, 0, 67, 64
1, 98475, Note_on_c, 0, 69, 34
1, 98536, Note_off_c, 0, 69, 64
1, 98550, Note_on_c, 0, 67, 25
1, 98595, Note_on_c, 0, 69, 43
1, 98656, Note_off_c, 0, 69, 64
1, 98684, Control_c, 0, 64, 0
1, 98789, Note_on_c, 0, 65, 32
1, 98789, Note_off_c, 0, 67, 64
1, 98840, Control_c, 0, 64, 127
1, 98990, Note_off_c, 0, 65, 64
1, 99006, Note_on_c, 0, 67, 37
1, 99046, Note_off_c, 0, 58, 64
1, 99126, Note_off_c, 0, 48, 64
1, 99207, Note_off_c, 0, 67, 64
1, 99372, Note_on_c, 0, 65, 30
1, 99385, Note_on_c, 0, 53, 44
1, 99394, Note_on_c, 0, 57, 16
1, 99402, Control_c, 0, 64, 0
1, 99583, Control_c, 0, 64, 127
1, 99617, Note_off_c, 0, 65, 64
1, 99628, Note_off_c, 0, 57, 64
1, 99653, Note_off_c, 0, 53, 64
1, 100102, Note_on_c, 0, 41, 20
1, 100352, Note_off_c, 0, 41, 64
1, 100729, Note_on_c, 0, 41, 30
1, 100896, Note_off_c, 0, 41, 64
1, 101464, Note_on_c, 0, 57, 38
1, 101464, Note_on_c, 0, 55, 26
1, 101656, Control_c, 0, 64, 0
1, 101896, Control_c, 0, 64, 127
1, 102059, Note_off_c, 0, 57, 64
1, 102085, Note_on_c, 0, 59, 43
1, 102085, Note_on_c, 0, 53, 57
1, 102155, Note_off_c, 0, 55, 64
1, 102676, Note_on_c, 0, 61, 55
1, 102698, Note_on_c, 0, 52, 47
1, 102753, Note_off_c, 0, 53, 64
1, 102806, Note_off_c, 0, 59, 64
1, 102914, Control_c, 0, 64, 0
1, 103118, Control_c, 0, 64, 127
1, 103180, Note_off_c, 0, 52, 64
1, 103248, Note_off_c, 0, 61, 64
1, 103327, Note_on_c, 0, 62, 54
1, 103339, Note_on_c, 0, 50, 42
1, 103466, Control_c, 0, 64, 0
1, 103645, Control_c, 0, 64, 127
1, 103654, Note_off_c, 0, 62, 64
1, 103709, Note_off_c, 0, 50, 64
1, 103932, Note_on_c, 0, 38, 53
1, 104289, Note_off_c, 0, 38, 64
1, 104506, Note_on_c, 0, 77, 72
1, 104539, Note_on_c, 0, 38, 33
1, 104653, Control_c, 0, 64, 0
1, 104662, Note_on_c, 0, 76, 73
1, 104687, Note_off_c, 0, 77, 64
1, 104832, Control_c, 0, 64, 127
1, 104839, Note_off_c, 0, 38, 64
1, 104839, Note_on_c, 0, 77, 81
1, 104865, Note_off_c, 0, 76, 64
1, 105163, Note_on_c, 0, 65, 43
1, 105179, Note_on_c, 0, 62, 40
1, 105419, Control_c, 0, 64, 0
1, 105636, Control_c, 0, 64, 127
1, 105746, Note_on_c, 0, 67, 52
1, 105749, Note_off_c, 0, 65, 64
1, 105756, Note_on_c, 0, 64, 35
1, 105764, Note_off_c, 0, 62, 64
1, 106030, Control_c, 0, 64, 0
1, 106210, Control_c, 0, 64, 127
1, 106282, Note_off_c, 0, 64, 64
1, 106289, Note_off_c, 0, 67, 64
1, 106314, Note_on_c, 0, 69, 28
1, 106330, Note_on_c, 0, 65, 25
1, 106439, Control_c, 0, 64, 0
1, 106618, Control_c, 0, 64, 127
1, 106686, Note_off_c, 0, 69, 64
1, 106748, Note_off_c, 0, 65, 64
1, 106921, Note_on_c, 0, 70, 27
1, 106945, Note_on_c, 0, 67, 22
1, 106954, Control_c, 0, 64, 0
1, 107133, Control_c, 0, 64, 127
1, 107252, Note_off_c, 0, 67, 64
1, 107319, Note_off_c, 0, 70, 64
1, 107341, Note_on_c, 0, 76, 28
1, 107358, Note_off_c, 0, 77, 64
1, 107512, Note_on_c, 0, 74, 42
1, 107533, Note_off_c, 0, 76, 64
1, 107695, Note_on_c, 0, 73, 44
1, 107718, Note_off_c, 0, 74, 64
1, 107726, Note_on_c, 0, 50, 27
1, 107937, Control_c, 0, 64, 0
1, 107987, Note_on_c, 0, 74, 56
1, 108037, Note_off_c, 0, 73, 64
1, 108080, Control_c, 0, 64, 127
1, 108094, Note_off_c, 0, 50, 64
1, 108266, Note_off_c, 0, 74, 64
1, 108299, Note_on_c, 0, 67, 46
1, 108314, Note_on_c, 0, 50, 29
1, 108478, Note_on_c, 0, 69, 44
1, 108487, Note_off_c, 0, 67, 64
1, 108572, Control_c, 0, 64, 0
1, 108622, Note_on_c, 0, 70, 52
1, 108629, Note_off_c, 0, 69, 64
1, 108700, Note_off_c, 0, 50, 64
1, 108700, Control_c, 0, 64, 127
1, 108896, Note_on_c, 0, 69, 35
1, 108912, Note_on_c, 0, 65, 22
1, 108954, Control_c, 0, 64, 0
1, 109015, Note_off_c, 0, 70, 64
1, 109099, Control_c, 0, 64, 127
1, 109255, Note_on_c, 0, 70, 51
1, 109363, Note_off_c, 0, 69, 64
1, 109464, Note_off_c, 0, 65, 64
1, 109578, Note_on_c, 0, 67, 43
1, 109593, Note_on_c, 0, 64, 30
1, 109626, Control_c, 0, 64, 0
1, 109757, Note_on_c, 0, 72, 48
1, 109773, Note_off_c, 0, 70, 64
1, 109793, Control_c, 0, 64, 127
1, 109882, Note_on_c, 0, 70, 62
1, 109915, Note_off_c, 0, 72, 64
1, 110011, Note_on_c, 0, 69, 66
1, 110029, Note_off_c, 0, 70, 64
1, 110128, Note_off_c, 0, 64, 64
1, 110136, Note_off_c, 0, 67, 64
1, 110149, Note_on_c, 0, 70, 62
1, 110169, Note_on_c, 0, 65, 22
1, 110172, Note_off_c, 0, 69, 64
1, 110183, Note_on_c, 0, 62, 20
1, 110286, Control_c, 0, 64, 0
1, 110297, Note_on_c, 0, 72, 69
1, 110325, Note_off_c, 0, 70, 64
1, 110437, Note_on_c, 0, 70, 65
1, 110489, Note_off_c, 0, 72, 64
1, 110489, Control_c, 0, 64, 127
1, 110572, Note_on_c, 0, 69, 70
1, 110582, Note_off_c, 0, 70, 64
1, 110681, Note_off_c, 0, 62, 64
1, 110746, Note_on_c, 0, 70, 63
1, 110762, Note_off_c, 0, 69, 64
1, 110773, Note_off_c, 0, 65, 64
1, 110784, Note_on_c, 0, 64, 25
1, 110788, Note_on_c, 0, 61, 24
1, 110908, Control_c, 0, 64, 0
1, 111060, Note_on_c, 0, 79, 84
1, 111086, Note_off_c, 0, 70, 64
1, 111172, Control_c, 0, 64, 127
1, 111199, Note_off_c, 0, 61, 64
1, 111242, Note_off_c, 0, 64, 64
1, 111366, Note_on_c, 0, 50, 45
1, 111568, Control_c, 0, 64, 0
1, 111676, Control_c, 0, 64, 127
1, 111720, Note_on_c, 0, 73, 71
1, 111816, Note_off_c, 0, 79, 64
1, 111829, Note_off_c, 0, 50, 64
1, 112027, Note_on_c, 0, 50, 43
1, 112058, Control_c, 0, 64, 0
1, 112227, Control_c, 0, 64, 127
1, 112316, Note_on_c, 0, 76, 71
1, 112316, Note_off_c, 0, 50, 64
1, 112384, Note_off_c, 0, 73, 64
1, 112615, Note_on_c, 0, 67, 43
1, 112623, Note_on_c, 0, 64, 34
1, 112634, Control_c, 0, 64, 0
1, 112790, Control_c, 0, 64, 127
1, 112908, Note_on_c, 0, 79, 91
1, 112961, Note_off_c, 0, 76, 64
1, 113021, Note_off_c, 0, 67, 64
1, 113064, Note_off_c, 0, 64, 64
1, 113203, Note_on_c, 0, 65, 39
1, 113219, Note_on_c, 0, 62, 28
1, 113330, Control_c, 0, 64, 0
1, 113450, Control_c, 0, 64, 127
1, 113518, Note_on_c, 0, 82, 62
1, 113551, Note_off_c, 0, 79, 64
1, 113581, Control_c, 0, 64, 0
1, 113737, Control_c, 0, 64, 127
1, 113770, Note_off_c, 0, 62, 64
1, 113801, Note_off_c, 0, 65, 64
1, 113815, Note_on_c, 0, 64, 27
1, 113819, Note_on_c, 0, 61, 16
1, 114000, Control_c, 0, 64, 0
1, 114121, Control_c, 0, 64, 127
1, 114186, Note_on_c, 0, 81, 38
1, 114216, Note_off_c, 0, 82, 64
1, 114252, Control_c, 0, 64, 0
1, 114370, Note_off_c, 0, 64, 64
1, 114370, Control_c, 0, 64, 127
1, 114436, Note_off_c, 0, 61, 64
1, 114515, Note_on_c, 0, 65, 11
1, 114540, Control_c, 0, 64, 0
1, 114546, Note_on_c, 0, 62, 10
1, 114670, Note_on_c, 0, 79, 55
1, 114709, Control_c, 0, 64, 127
1, 114709, Note_off_c, 0, 81, 64
1, 114829, Note_on_c, 0, 77, 50
1, 114832, Note_off_c, 0, 79, 64
1, 114835, Note_off_c, 0, 62, 64
1, 114849, Note_off_c, 0, 65, 64
1, 114980, Note_on_c, 0, 76, 46
1, 114994, Note_off_c, 0, 77, 64
1, 115170, Note_on_c, 0, 50, 22
1, 115174, Note_on_c, 0, 77, 38
1, 115174, Control_c, 0, 64, 0
1, 115186, Note_off_c, 0, 76, 64
1, 115342, Control_c, 0, 64, 127
1, 115351, Note_off_c, 0, 77, 64
1, 115457, Note_off_c, 0, 50, 64
1, 115526, Note_on_c, 0, 74, 39
1, 115810, Control_c, 0, 64, 0
1, 115815, Note_on_c, 0, 50, 25
1, 115954, Control_c, 0, 64, 127
1, 115968, Note_off_c, 0, 74, 64
1, 115968, Note_on_c, 0, 73, 39
1, 116030, Note_off_c, 0, 50, 64
1, 116149, Note_on_c, 0, 74, 54
1, 116161, Note_off_c, 0, 73, 64
1, 116294, Note_off_c, 0, 74, 64
1, 116298, Note_on_c, 0, 76, 55
1, 116468, Note_on_c, 0, 62, 19
1, 116473, Note_on_c, 0, 65, 15
1, 116482, Note_on_c, 0, 74, 57
1, 116495, Note_off_c, 0, 76, 64
1, 116506, Control_c, 0, 64, 0
1, 116654, Note_off_c, 0, 74, 64
1, 116657, Note_on_c, 0, 73, 45
1, 116685, Control_c, 0, 64, 127
1, 116790, Note_off_c, 0, 73, 64
1, 116829, Note_on_c, 0, 71, 44
1, 116882, Note_off_c, 0, 65, 64
1, 116949, Note_off_c, 0, 71, 64
1, 117011, Note_on_c, 0, 69, 24
1, 117114, Note_off_c, 0, 62, 64
1, 117203, Note_on_c, 0, 67, 32
1, 117212, Control_c, 0, 64, 0
1, 117228, Note_on_c, 0, 64, 34
1, 117453, Control_c, 0, 64, 127
1, 117512, Note_on_c, 0, 74, 54
1, 117545, Note_off_c, 0, 69, 64
1, 117780, Note_off_c, 0, 67, 64
1, 117802, Note_off_c, 0, 64, 64
1, 117805, Note_on_c, 0, 69, 36
1, 117832, Note_on_c, 0, 65, 20
1, 117896, Control_c, 0, 64, 0
1, 118075, Control_c, 0, 64, 127
1, 118105, Note_off_c, 0, 74, 64
1, 118150, Note_on_c, 0, 77, 63
1, 118225, Note_off_c, 0, 69, 64
1, 118287, Note_off_c, 0, 65, 64
1, 118459, Note_on_c, 0, 70, 35
1, 118484, Note_on_c, 0, 67, 27
1, 118506, Control_c, 0, 64, 0
1, 118652, Note_on_c, 0, 79, 66
1, 118663, Control_c, 0, 64, 127
1, 118666, Note_off_c, 0, 77, 64
1, 118794, Note_off_c, 0, 67, 64
1, 118794, Note_off_c, 0, 70, 64
1, 118824, Note_on_c, 0, 77, 76
1, 118860, Note_off_c, 0, 79, 64
1, 118980, Note_on_c, 0, 76, 70
1, 119022, Note_off_c, 0, 77, 64
1, 119155, Note_on_c, 0, 77, 62
1, 119167, Note_on_c, 0, 43, 25
1, 119175, Note_off_c, 0, 76, 64
1, 119214, Control_c, 0, 64, 0
1, 119357, Control_c, 0, 64, 127
1, 119357, Note_off_c, 0, 77, 64
1, 119484, Note_on_c, 0, 82, 65
1, 119546, Note_off_c, 0, 43, 64
1, 119765, Control_c, 0, 64, 0
1, 119819, Note_on_c, 0, 43, 35
1, 119981, Control_c, 0, 64, 127
1, 120105, Note_off_c, 0, 43, 64
1, 120175, Note_on_c, 0, 81, 56
1, 120345, Note_off_c, 0, 82, 64
1, 120467, Note_on_c, 0, 58, 28
1, 120482, Note_on_c, 0, 55, 32
1, 120532, Control_c, 0, 64, 0
1, 120699, Control_c, 0, 64, 127
1, 120832, Note_on_c, 0, 79, 52
1, 120921, Note_off_c, 0, 81, 64
1, 120928, Control_c, 0, 64, 0
1, 121059, Control_c, 0, 64, 127
1, 121161, Note_on_c, 0, 60, 33
1, 121161, Note_off_c, 0, 55, 64
1, 121167, Note_off_c, 0, 58, 64
1, 121183, Note_on_c, 0, 57, 22
1, 121228, Control_c, 0, 64, 0
1, 121382, Control_c, 0, 64, 127
1, 121493, Note_off_c, 0, 79, 64
1, 121493, Note_on_c, 0, 77, 33
1, 121649, Note_on_c, 0, 76, 32
1, 121671, Note_off_c, 0, 77, 64
1, 121741, Note_off_c, 0, 60, 64
1, 121789, Note_off_c, 0, 57, 64
1, 121818, Note_on_c, 0, 74, 41
1, 121830, Note_on_c, 0, 58, 12
1, 121833, Note_off_c, 0, 76, 64
1, 121833, Note_on_c, 0, 62, 27
1, 121863, Control_c, 0, 64, 0
1, 121981, Note_on_c, 0, 72, 43
1, 121985, Note_off_c, 0, 74, 64
1, 122055, Control_c, 0, 64, 127
1, 122137, Note_on_c, 0, 70, 48
1, 122169, Note_off_c, 0, 72, 64
1, 122209, Note_off_c, 0, 62, 64
1, 122296, Note_on_c, 0, 69, 47
1, 122301, Note_off_c, 0, 58, 64
1, 122323, Note_off_c, 0, 70, 64
1, 122482, Note_on_c, 0, 67, 44
1, 122482, Note_on_c, 0, 60, 19
1, 122493, Note_off_c, 0, 69, 64
1, 122498, Note_on_c, 0, 64, 24
1, 122521, Control_c, 0, 64, 0
1, 122697, Note_on_c, 0, 71, 39
1, 122730, Note_off_c, 0, 67, 64
1, 122880, Note_on_c, 0, 74, 46
1, 122880, Control_c, 0, 64, 127
1, 122896, Note_off_c, 0, 71, 64
1, 122966, Note_off_c, 0, 64, 64
1, 122989, Note_off_c, 0, 60, 64
1, 123098, Note_on_c, 0, 77, 38
1, 123126, Note_off_c, 0, 74, 64
1, 123264, Control_c, 0, 64, 0
1, 123273, Note_on_c, 0, 48, 20
1, 123493, Control_c, 0, 64, 127
1, 123613, Note_on_c, 0, 76, 30
1, 123644, Note_off_c, 0, 77, 64
1, 123691, Note_off_c, 0, 48, 64
1, 123924, Control_c, 0, 64, 0
1, 123928, Note_on_c, 0, 48, 25
1, 124113, Note_on_c, 0, 74, 34
1, 124128, Control_c, 0, 64, 127
1, 124154, Note_off_c, 0, 76, 64
1, 124251, Note_off_c, 0, 48, 64
1, 124275, Note_on_c, 0, 72, 37
1, 124306, Note_off_c, 0, 74, 64
1, 124432, Note_on_c, 0, 71, 49
1, 124432, Note_off_c, 0, 72, 64
1, 124582, Control_c, 0, 64, 0
1, 124596, Note_off_c, 0, 71, 64
1, 124602, Note_on_c, 0, 72, 41
1, 124616, Note_on_c, 0, 60, 19
1, 124616, Note_on_c, 0, 64, 41
1, 124763, Control_c, 0, 64, 127
1, 124791, Note_off_c, 0, 72, 64
1, 124945, Note_on_c, 0, 67, 58
1, 125125, Note_off_c, 0, 64, 64
1, 125239, Note_on_c, 0, 65, 33
1, 125261, Note_on_c, 0, 62, 25
1, 125265, Control_c, 0, 64, 0
1, 125279, Note_off_c, 0, 60, 64
1, 125446, Control_c, 0, 64, 127
1, 125588, Note_on_c, 0, 72, 60
1, 125597, Note_off_c, 0, 67, 64
1, 125810, Note_off_c, 0, 65, 64
1, 125883, Note_off_c, 0, 62, 64
1, 125905, Note_on_c, 0, 67, 41
1, 125905, Note_on_c, 0, 64, 42
1, 126058, Control_c, 0, 64, 0
1, 126189, Control_c, 0, 64, 127
1, 126235, Note_on_c, 0, 76, 61
1, 126299, Note_off_c, 0, 72, 64
1, 126381, Control_c, 0, 64, 0
1, 126459, Note_off_c, 0, 67, 64
1, 126488, Control_c, 0, 64, 127
1, 126560, Note_on_c, 0, 69, 29
1, 126563, Note_off_c, 0, 64, 64
1, 126568, Note_on_c, 0, 65, 31
1, 126668, Control_c, 0, 64, 0
1, 126753, Note_on_c, 0, 77, 68
1, 126789, Note_off_c, 0, 76, 64
1, 126883, Control_c, 0, 64, 127
1, 126942, Note_on_c, 0, 75, 68
1, 126959, Note_off_c, 0, 69, 64
1, 126984, Note_off_c, 0, 77, 64
1, 126987, Note_off_c, 0, 65, 64
1, 127106, Note_on_c, 0, 74, 85
1, 127137, Note_off_c, 0, 75, 64
1, 127312, Note_on_c, 0, 75, 77
1, 127320, Note_on_c, 0, 41, 38
1, 127338, Note_off_c, 0, 74, 64
1, 127338, Control_c, 0, 64, 0
1, 127507, Control_c, 0, 64, 127
1, 127516, Note_off_c, 0, 75, 64
1, 127746, Note_on_c, 0, 84, 88
1, 127830, Control_c, 0, 64, 0
1, 127975, Control_c, 0, 64, 127
1, 127975, Note_off_c, 0, 41, 64
1, 128114, Note_on_c, 0, 41, 44
1, 128313, Note_on_c, 0, 82, 61
1, 128374, Note_off_c, 0, 84, 64
1, 128418, Note_off_c, 0, 41, 64
1, 128507, Note_on_c, 0, 81, 69
1, 128579, Note_off_c, 0, 82, 64
1, 128825, Note_on_c, 0, 57, 30
1, 128825, Note_on_c, 0, 53, 61
1, 128825, Control_c, 0, 64, 0
1, 129005, Control_c, 0, 64, 127
1, 129008, Note_on_c, 0, 79, 75
1, 129061, Note_off_c, 0, 81, 64
1, 129179, Note_on_c, 0, 77, 76
1, 129207, Note_off_c, 0, 79, 64
1, 129257, Control_c, 0, 64, 0
1, 129388, Control_c, 0, 64, 127
1, 129487, Note_on_c, 0, 58, 39
1, 129502, Note_on_c, 0, 55, 46
1, 129516, Note_off_c, 0, 57, 64
1, 129544, Note_off_c, 0, 53, 64
1, 129580, Control_c, 0, 64, 0
1, 129657, Note_on_c, 0, 75, 59
1, 129705, Note_off_c, 0, 77, 64
1, 129711, Control_c, 0, 64, 127
1, 129808, Control_c, 0, 64, 0
1, 129820, Note_on_c, 0, 74, 80
1, 129847, Note_off_c, 0, 75, 64
1, 129941, Control_c, 0, 64, 127
1, 129973, Note_on_c, 0, 75, 77
1, 130014, Note_off_c, 0, 74, 64
1, 130140, Note_on_c, 0, 60, 35
1, 130140, Note_on_c, 0, 57, 35
1, 130148, Note_on_c, 0, 77, 72
1, 130148, Note_off_c, 0, 58, 64
1, 130156, Control_c, 0, 64, 0
1, 130164, Note_off_c, 0, 55, 64
1, 130164, Note_off_c, 0, 75, 64
1, 130316, Note_on_c, 0, 75, 62
1, 130337, Note_off_c, 0, 77, 64
1, 130348, Control_c, 0, 64, 127
1, 130480, Note_on_c, 0, 74, 71
1, 130491, Control_c, 0, 64, 0
1, 130499, Note_off_c, 0, 75, 64
1, 130622, Control_c, 0, 64, 127
1, 130652, Note_on_c, 0, 75, 71
1, 130675, Note_off_c, 0, 74, 64
1, 130822, Note_on_c, 0, 65, 65
1, 130828, Note_on_c, 0, 58, 28
1, 130828, Note_on_c, 0, 62, 30
1, 130834, Note_off_c, 0, 60, 64
1, 130845, Note_off_c, 0, 75, 64
1, 130866, Note_off_c, 0, 57, 64
1, 130898, Control_c, 0, 64, 0
1, 131000, Note_on_c, 0, 69, 55
1, 131042, Note_off_c, 0, 65, 64
1, 131151, Control_c, 0, 64, 127
1, 131160, Note_on_c, 0, 67, 66
1, 131207, Note_off_c, 0, 69, 64
1, 131249, Note_off_c, 0, 62, 64
1, 131329, Note_on_c, 0, 65, 66
1, 131354, Note_off_c, 0, 67, 64
1, 131360, Note_off_c, 0, 58, 64
1, 131500, Note_on_c, 0, 72, 56
1, 131518, Note_on_c, 0, 46, 23
1, 131527, Note_off_c, 0, 65, 64
1, 131594, Control_c, 0, 64, 0
1, 131664, Note_on_c, 0, 70, 55
1, 131703, Note_off_c, 0, 72, 64
1, 131820, Note_on_c, 0, 69, 53
1, 131836, Note_off_c, 0, 70, 64
1, 131894, Control_c, 0, 64, 127
1, 131983, Note_off_c, 0, 46, 64
1, 131992, Note_on_c, 0, 75, 59
1, 131997, Note_off_c, 0, 69, 64
1, 132176, Note_on_c, 0, 46, 24
1, 132182, Note_on_c, 0, 74, 58
1, 132217, Note_off_c, 0, 75, 64
1, 132265, Control_c, 0, 64, 0
1, 132371, Note_on_c, 0, 73, 49
1, 132399, Note_off_c, 0, 74, 64
1, 132591, Note_on_c, 0, 74, 61
1, 132611, Note_off_c, 0, 73, 64
1, 132756, Control_c, 0, 64, 127
1, 132766, Note_off_c, 0, 46, 64
1, 132951, Note_on_c, 0, 57, 32
1, 132951, Note_on_c, 0, 60, 34
1, 133176, Control_c, 0, 64, 0
1, 133452, Control_c, 0, 64, 127
1, 133647, Note_off_c, 0, 57, 64
1, 133647, Note_off_c, 0, 60, 64
1, 133655, Control_c, 0, 64, 0
1, 133655, Note_on_c, 0, 58, 34
1, 133666, Note_on_c, 0, 55, 34
1, 133791, Note_off_c, 0, 74, 64
1, 133814, Note_on_c, 0, 62, 54
1, 133859, Control_c, 0, 64, 127
1, 133972, Note_on_c, 0, 61, 62
1, 133990, Note_off_c, 0, 62, 64
1, 134131, Note_on_c, 0, 62, 66
1, 134162, Note_off_c, 0, 61, 64
1, 134299, Note_off_c, 0, 55, 64
1, 134299, Note_on_c, 0, 64, 61
1, 134302, Note_on_c, 0, 57, 31
1, 134316, Note_on_c, 0, 53, 58
1, 134326, Note_off_c, 0, 62, 64
1, 134326, Control_c, 0, 64, 0
1, 134369, Note_off_c, 0, 58, 64
1, 134461, Note_on_c, 0, 65, 58
1, 134491, Note_off_c, 0, 64, 64
1, 134541, Control_c, 0, 64, 127
1, 134619, Note_on_c, 0, 67, 57
1, 134633, Note_off_c, 0, 65, 64
1, 134775, Note_on_c, 0, 69, 53
1, 134806, Note_off_c, 0, 67, 64
1, 134883, Note_off_c, 0, 53, 64
1, 134934, Note_off_c, 0, 57, 64
1, 134940, Note_on_c, 0, 70, 49
1, 134947, Note_on_c, 0, 55, 30
1, 134968, Note_on_c, 0, 52, 39
1, 134984, Note_off_c, 0, 69, 64
1, 134984, Control_c, 0, 64, 0
1, 135121, Note_on_c, 0, 74, 56
1, 135134, Note_off_c, 0, 70, 64
1, 135276, Note_on_c, 0, 70, 55
1, 135298, Control_c, 0, 64, 127
1, 135304, Note_off_c, 0, 74, 64
1, 135344, Note_off_c, 0, 52, 64
1, 135347, Note_off_c, 0, 55, 64
1, 135424, Note_on_c, 0, 69, 58
1, 135452, Note_off_c, 0, 70, 64
1, 135589, Note_on_c, 0, 70, 53
1, 135610, Note_on_c, 0, 40, 49
1, 135619, Note_off_c, 0, 69, 64
1, 135681, Control_c, 0, 64, 0
1, 135762, Note_on_c, 0, 74, 61
1, 135776, Note_off_c, 0, 70, 64
1, 135932, Control_c, 0, 64, 127
1, 135932, Note_on_c, 0, 70, 58
1, 135973, Note_off_c, 0, 74, 64
1, 136099, Note_on_c, 0, 69, 55
1, 136132, Note_off_c, 0, 40, 64
1, 136148, Note_off_c, 0, 70, 64
1, 136302, Note_on_c, 0, 67, 53
1, 136322, Note_off_c, 0, 69, 64
1, 136322, Note_on_c, 0, 40, 44
1, 136388, Control_c, 0, 64, 0
1, 136488, Note_on_c, 0, 66, 47
1, 136524, Note_off_c, 0, 67, 64
1, 136722, Note_on_c, 0, 67, 53
1, 136745, Note_off_c, 0, 66, 64
1, 136876, Note_off_c, 0, 40, 64
1, 136892, Control_c, 0, 64, 127
1, 137151, Note_on_c, 0, 50, 42
1, 137151, Note_on_c, 0, 53, 46
1, 137371, Control_c, 0, 64, 0
1, 137491, Control_c, 0, 64, 127
1, 137619, Note_off_c, 0, 53, 64
1, 137814, Note_on_c, 0, 49, 41
1, 137818, Note_on_c, 0, 52, 51
1, 137840, Note_off_c, 0, 50, 64
1, 137850, Control_c, 0, 64, 0
1, 137990, Note_on_c, 0, 70, 62
1, 138017, Note_off_c, 0, 67, 64
1, 138077, Control_c, 0, 64, 127
1, 138102, Control_c, 0, 64, 0
1, 138163, Note_on_c, 0, 67, 76
1, 138194, Note_off_c, 0, 70, 64
1, 138293, Control_c, 0, 64, 127
1, 138335, Note_on_c, 0, 66, 62
1, 138372, Note_off_c, 0, 67, 64
1, 138449, Control_c, 0, 64, 0
1, 138511, Note_off_c, 0, 52, 64
1, 138522, Note_on_c, 0, 50, 31
1, 138522, Note_on_c, 0, 67, 62
1, 138530, Note_on_c, 0, 47, 40
1, 138545, Note_off_c, 0, 66, 64
1, 138553, Note_off_c, 0, 49, 64
1, 138706, Note_off_c, 0, 67, 64
1, 138717, Note_on_c, 0, 76, 38
1, 138935, Note_on_c, 0, 67, 35
1, 138960, Note_off_c, 0, 76, 64
1, 139073, Control_c, 0, 64, 127
1, 139132, Control_c, 0, 64, 0
1, 139165, Note_on_c, 0, 66, 30
1, 139171, Note_off_c, 0, 67, 64
1, 139288, Control_c, 0, 64, 127
1, 139311, Control_c, 0, 64, 0
1, 139396, Control_c, 0, 64, 127
1, 139446, Note_off_c, 0, 50, 64
1, 139450, Note_off_c, 0, 47, 64
1, 139458, Note_on_c, 0, 67, 32
1, 139462, Note_on_c, 0, 49, 22
1, 139471, Note_on_c, 0, 45, 21
1, 139480, Control_c, 0, 64, 0
1, 139500, Note_off_c, 0, 66, 64
1, 139708, Control_c, 0, 64, 127
1, 139879, Note_on_c, 0, 70, 32
1, 139929, Note_off_c, 0, 67, 64
1, 139949, Note_off_c, 0, 49, 64
1, 139995, Note_off_c, 0, 45, 64
1, 140196, Note_off_c, 0, 70, 64
1, 140269, Note_on_c, 0, 33, 32
1, 140269, Note_on_c, 0, 73, 30
1, 140463, Control_c, 0, 64, 0
1, 140594, Control_c, 0, 64, 127
1, 140633, Note_off_c, 0, 73, 64
1, 140655, Note_on_c, 0, 76, 33
1, 140706, Note_off_c, 0, 33, 64
1, 140971, Note_on_c, 0, 33, 31
1, 140977, Control_c, 0, 64, 0
1, 141133, Control_c, 0, 64, 127
1, 141155, Note_on_c, 0, 74, 30
1, 141182, Note_off_c, 0, 76, 64
1, 141229, Note_off_c, 0, 33, 64
1, 141327, Note_off_c, 0, 74, 64
1, 141327, Note_on_c, 0, 73, 42
1, 141502, Note_on_c, 0, 74, 57
1, 141528, Note_off_c, 0, 73, 64
1, 141659, Note_on_c, 0, 45, 28
1, 141659, Note_on_c, 0, 49, 33
1, 141669, Note_on_c, 0, 76, 48
1, 141676, Note_off_c, 0, 74, 64
1, 141745, Control_c, 0, 64, 0
1, 141839, Note_on_c, 0, 74, 54
1, 141870, Note_off_c, 0, 76, 64
1, 141889, Control_c, 0, 64, 127
1, 141987, Note_on_c, 0, 73, 48
1, 141995, Note_off_c, 0, 74, 64
1, 142151, Note_on_c, 0, 71, 55
1, 142162, Note_off_c, 0, 73, 64
1, 142208, Note_off_c, 0, 49, 64
1, 142355, Note_off_c, 0, 71, 64
1, 142355, Note_on_c, 0, 69, 40
1, 142363, Note_on_c, 0, 47, 25
1, 142363, Note_off_c, 0, 45, 64
1, 142367, Note_on_c, 0, 50, 41
1, 142439, Control_c, 0, 64, 0
1, 142631, Control_c, 0, 64, 127
1, 142687, Note_on_c, 0, 67, 47
1, 142698, Note_off_c, 0, 69, 64
1, 142860, Note_on_c, 0, 65, 54
1, 142870, Note_off_c, 0, 67, 64
1, 143015, Note_off_c, 0, 50, 64
1, 143037, Note_off_c, 0, 65, 64
1, 143052, Note_on_c, 0, 67, 50
1, 143062, Note_on_c, 0, 49, 25
1, 143062, Note_off_c, 0, 47, 64
1, 143071, Note_on_c, 0, 52, 46
1, 143135, Control_c, 0, 64, 0
1, 143463, Note_off_c, 0, 52, 64
1, 143470, Control_c, 0, 64, 127
1, 143603, Note_on_c, 0, 76, 43
1, 143608, Note_off_c, 0, 67, 64
1, 143714, Note_off_c, 0, 49, 64
1, 143804, Note_on_c, 0, 67, 54
1, 143818, Note_on_c, 0, 50, 30
1, 143824, Note_on_c, 0, 53, 52
1, 143848, Note_off_c, 0, 76, 64
1, 144179, Note_on_c, 0, 65, 54
1, 144190, Control_c, 0, 64, 0
1, 144224, Note_off_c, 0, 67, 64
1, 144310, Note_off_c, 0, 53, 64
1, 144322, Control_c, 0, 64, 127
1, 144333, Note_off_c, 0, 50, 64
1, 144581, Note_on_c, 0, 77, 61
1, 144590, Note_on_c, 0, 33, 38
1, 144614, Note_off_c, 0, 65, 64
1, 144801, Control_c, 0, 64, 0
1, 144957, Control_c, 0, 64, 127
1, 145096, Note_off_c, 0, 33, 64
1, 145235, Note_on_c, 0, 33, 42
1, 145420, Note_on_c, 0, 76, 45
1, 145455, Note_off_c, 0, 33, 64
1, 145466, Note_off_c, 0, 77, 64
1, 145594, Note_on_c, 0, 74, 62
1, 145614, Note_off_c, 0, 76, 64
1, 145760, Note_on_c, 0, 76, 68
1, 145793, Note_off_c, 0, 74, 64
1, 145918, Note_on_c, 0, 47, 41
1, 145927, Note_on_c, 0, 50, 47
1, 145938, Note_on_c, 0, 77, 69
1, 145973, Note_off_c, 0, 76, 64
1, 146119, Note_on_c, 0, 76, 61
1, 146160, Note_off_c, 0, 77, 64
1, 146269, Note_on_c, 0, 74, 71
1, 146306, Note_off_c, 0, 76, 64
1, 146422, Note_on_c, 0, 72, 67
1, 146428, Note_off_c, 0, 74, 64
1, 146587, Note_on_c, 0, 70, 62
1, 146603, Note_on_c, 0, 49, 43
1, 146606, Note_on_c, 0, 52, 64
1, 146651, Note_off_c, 0, 72, 64
1, 146651, Note_off_c, 0, 50, 64
1, 146734, Note_off_c, 0, 47, 64
1, 146767, Control_c, 0, 64, 0
1, 146916, Note_on_c, 0, 69, 52
1, 146946, Control_c, 0, 64, 127
1, 146968, Note_off_c, 0, 70, 64
1, 147080, Note_on_c, 0, 67, 72
1, 147094, Note_off_c, 0, 69, 64
1, 147281, Note_on_c, 0, 69, 65
1, 147294, Note_on_c, 0, 53, 84
1, 147294, Note_on_c, 0, 50, 54
1, 147302, Note_off_c, 0, 52, 64
1, 147331, Note_off_c, 0, 67, 64
1, 147352, Note_off_c, 0, 49, 64
1, 147352, Control_c, 0, 64, 0
1, 147678, Control_c, 0, 64, 127
1, 147765, Note_on_c, 0, 77, 72
1, 147765, Note_off_c, 0, 69, 64
1, 147788, Note_off_c, 0, 53, 64
1, 147951, Note_on_c, 0, 69, 76
1, 147973, Note_on_c, 0, 55, 46
1, 147973, Note_on_c, 0, 52, 41
1, 147973, Note_off_c, 0, 50, 64
1, 148036, Note_off_c, 0, 77, 64
1, 148072, Control_c, 0, 64, 0
1, 148264, Control_c, 0, 64, 127
1, 148316, Note_on_c, 0, 67, 74
1, 148364, Note_off_c, 0, 69, 64
1, 148397, Note_off_c, 0, 55, 64
1, 148425, Note_off_c, 0, 52, 64
1, 148687, Note_on_c, 0, 33, 64
1, 148692, Note_on_c, 0, 79, 84
1, 148745, Note_off_c, 0, 67, 64
1, 148876, Control_c, 0, 64, 0
1, 149091, Control_c, 0, 64, 127
1, 149211, Note_off_c, 0, 33, 64
1, 149317, Note_on_c, 0, 33, 88
1, 149504, Note_on_c, 0, 77, 80
1, 149570, Note_off_c, 0, 79, 64
1, 149598, Note_off_c, 0, 33, 64
1, 149664, Note_on_c, 0, 76, 76
1, 149707, Note_off_c, 0, 77, 64
1, 149831, Note_on_c, 0, 77, 84
1, 149890, Note_off_c, 0, 76, 64
1, 150013, Note_on_c, 0, 79, 93
1, 150013, Note_on_c, 0, 49, 51
1, 150013, Note_on_c, 0, 52, 81
1, 150058, Note_off_c, 0, 77, 64
1, 150210, Note_on_c, 0, 77, 88
1, 150264, Note_off_c, 0, 79, 64
1, 150359, Note_on_c, 0, 76, 77
1, 150403, Note_off_c, 0, 77, 64
1, 150506, Note_on_c, 0, 74, 88
1, 150523, Note_off_c, 0, 76, 64
1, 150673, Note_on_c, 0, 73, 83
1, 150687, Note_off_c, 0, 49, 64
1, 150687, Note_on_c, 0, 53, 98
1, 150696, Note_on_c, 0, 50, 71
1, 150712, Note_off_c, 0, 52, 64
1, 150742, Note_off_c, 0, 74, 64
1, 150816, Control_c, 0, 64, 0
1, 150997, Control_c, 0, 64, 127
1, 151010, Note_on_c, 0, 70, 75
1, 151088, Note_off_c, 0, 73, 64
1, 151175, Note_on_c, 0, 69, 81
1, 151206, Note_off_c, 0, 70, 64
1, 151359, Note_on_c, 0, 70, 84
1, 151372, Note_on_c, 0, 55, 70
1, 151376, Note_on_c, 0, 52, 67
1, 151387, Note_off_c, 0, 53, 64
1, 151434, Note_off_c, 0, 69, 64
1, 151451, Control_c, 0, 64, 0
1, 151455, Note_off_c, 0, 50, 64
1, 151788, Control_c, 0, 64, 127
1, 151894, Note_on_c, 0, 79, 88
1, 151916, Note_off_c, 0, 70, 64
1, 152110, Note_on_c, 0, 70, 83
1, 152125, Note_on_c, 0, 57, 46
1, 152125, Note_on_c, 0, 53, 78
1, 152149, Note_off_c, 0, 55, 64
1, 152164, Note_off_c, 0, 52, 64
1, 152208, Control_c, 0, 64, 0
1, 152227, Note_off_c, 0, 79, 64
1, 152436, Control_c, 0, 64, 127
1, 152511, Note_on_c, 0, 69, 75
1, 152514, Note_off_c, 0, 57, 64
1, 152560, Note_off_c, 0, 53, 64
1, 152573, Note_off_c, 0, 70, 64
1, 152882, Note_on_c, 0, 33, 80
1, 153230, Note_on_c, 0, 73, 89
1, 153434, Note_off_c, 0, 69, 64
1, 153434, Note_off_c, 0, 33, 64
1, 153542, Note_on_c, 0, 33, 90
1, 153573, Control_c, 0, 64, 0
1, 153741, Control_c, 0, 64, 127
1, 153813, Note_off_c, 0, 33, 64
1, 153888, Note_on_c, 0, 74, 96
1, 153975, Note_off_c, 0, 73, 64
1, 154205, Note_on_c, 0, 57, 75
1, 154211, Note_on_c, 0, 53, 95
1, 154503, Note_on_c, 0, 76, 92
1, 154553, Note_off_c, 0, 74, 64
1, 154666, Note_on_c, 0, 77, 99
1, 154685, Note_off_c, 0, 57, 64
1, 154716, Note_off_c, 0, 76, 64
1, 154835, Note_on_c, 0, 79, 106
1, 154835, Note_on_c, 0, 55, 74
1, 154835, Note_on_c, 0, 52, 73
1, 154860, Note_off_c, 0, 53, 64
1, 154877, Note_off_c, 0, 77, 64
1, 154904, Control_c, 0, 64, 0
1, 155010, Note_on_c, 0, 81, 97
1, 155067, Note_off_c, 0, 79, 64
1, 155096, Control_c, 0, 64, 127
1, 155167, Note_on_c, 0, 82, 90
1, 155213, Note_off_c, 0, 81, 64
1, 155337, Note_on_c, 0, 81, 98
1, 155403, Note_off_c, 0, 82, 64
1, 155570, Note_on_c, 0, 82, 92
1, 155570, Note_on_c, 0, 53, 83
1, 155574, Note_off_c, 0, 55, 64
1, 155584, Note_on_c, 0, 50, 53
1, 155612, Note_off_c, 0, 52, 64
1, 155634, Note_off_c, 0, 81, 64
1, 155730, Control_c, 0, 64, 0
1, 155899, Control_c, 0, 64, 127
1, 155911, Note_off_c, 0, 82, 64
1, 156141, Note_on_c, 0, 82, 90
1, 156303, Note_off_c, 0, 82, 64
1, 156384, Note_on_c, 0, 82, 83
1, 156393, Note_on_c, 0, 55, 55
1, 156397, Note_on_c, 0, 52, 68
1, 156409, Note_off_c, 0, 53, 64
1, 156434, Note_off_c, 0, 50, 64
1, 156498, Control_c, 0, 64, 0
1, 156702, Control_c, 0, 64, 127
1, 156899, Note_on_c, 0, 73, 72
1, 156946, Note_off_c, 0, 55, 64
1, 156963, Note_off_c, 0, 52, 64
1, 157145, Note_off_c, 0, 82, 64
1, 157278, Note_on_c, 0, 33, 55
1, 157468, Control_c, 0, 64, 0
1, 157588, Control_c, 0, 64, 127
1, 157629, Note_on_c, 0, 74, 75
1, 157670, Note_off_c, 0, 73, 64
1, 157765, Note_off_c, 0, 33, 64
1, 157816, Note_on_c, 0, 76, 82
1, 157824, Note_off_c, 0, 74, 64
1, 157904, Note_off_c, 0, 76, 64
1, 157992, Note_on_c, 0, 76, 63
1, 158003, Note_on_c, 0, 33, 37
1, 158103, Control_c, 0, 64, 0
1, 158259, Control_c, 0, 64, 127
1, 158326, Note_on_c, 0, 67, 60
1, 158331, Note_off_c, 0, 33, 64
1, 158381, Note_off_c, 0, 76, 64
1, 158707, Note_on_c, 0, 55, 43
1, 158724, Note_on_c, 0, 52, 42
1, 158907, Control_c, 0, 64, 0
1, 159011, Note_on_c, 0, 69, 57
1, 159014, Control_c, 0, 64, 127
1, 159045, Note_off_c, 0, 67, 64
1, 159155, Note_off_c, 0, 55, 64
1, 159180, Note_on_c, 0, 70, 66
1, 159208, Note_off_c, 0, 69, 64
1, 159259, Note_off_c, 0, 70, 64
1, 159346, Note_on_c, 0, 70, 55
1, 159354, Note_off_c, 0, 52, 64
1, 159361, Note_on_c, 0, 50, 31
1, 159361, Note_on_c, 0, 53, 60
1, 159515, Note_on_c, 0, 76, 65
1, 159549, Note_off_c, 0, 70, 64
1, 159683, Note_on_c, 0, 77, 61
1, 159733, Note_off_c, 0, 76, 64
1, 159818, Control_c, 0, 64, 0
1, 159869, Note_on_c, 0, 79, 71
1, 159917, Note_off_c, 0, 77, 64
1, 159974, Control_c, 0, 64, 127
1, 160080, Note_off_c, 0, 53, 64
1, 160092, Note_off_c, 0, 50, 64
1, 160106, Note_on_c, 0, 52, 41
1, 160112, Note_on_c, 0, 49, 27
1, 160250, Control_c, 0, 64, 0
1, 160357, Control_c, 0, 64, 127
1, 160471, Note_on_c, 0, 70, 54
1, 160504, Note_off_c, 0, 79, 64
1, 160701, Note_off_c, 0, 52, 64
1, 160771, Note_off_c, 0, 49, 64
1, 160799, Note_on_c, 0, 69, 46
1, 160818, Note_on_c, 0, 50, 23
1, 160824, Note_on_c, 0, 53, 57
1, 160843, Note_off_c, 0, 70, 64
1, 160861, Control_c, 0, 64, 0
1, 160981, Note_on_c, 0, 74, 67
1, 161034, Note_off_c, 0, 69, 64
1, 161041, Control_c, 0, 64, 127
1, 161122, Note_off_c, 0, 53, 64
1, 161151, Note_off_c, 0, 50, 64
1, 161156, Note_on_c, 0, 76, 59
1, 161215, Note_off_c, 0, 74, 64
1, 161337, Note_on_c, 0, 77, 58
1, 161404, Note_off_c, 0, 76, 64
1, 161502, Note_on_c, 0, 33, 50
1, 161506, Control_c, 0, 64, 0
1, 161676, Control_c, 0, 64, 127
1, 161944, Note_on_c, 0, 68, 47
1, 161955, Note_off_c, 0, 33, 64
1, 161975, Note_off_c, 0, 77, 64
1, 162251, Control_c, 0, 64, 0
1, 162278, Note_on_c, 0, 33, 34
1, 162382, Control_c, 0, 64, 127
1, 162482, Note_on_c, 0, 71, 60
1, 162516, Note_off_c, 0, 68, 64
1, 162548, Note_off_c, 0, 33, 64
1, 162665, Note_on_c, 0, 69, 48
1, 162704, Note_off_c, 0, 71, 64
1, 162818, Note_on_c, 0, 68, 68
1, 162841, Note_off_c, 0, 69, 64
1, 162989, Note_on_c, 0, 69, 66
1, 162997, Note_on_c, 0, 50, 31
1, 163002, Note_on_c, 0, 53, 51
1, 163008, Note_off_c, 0, 68, 64
1, 163030, Control_c, 0, 64, 0
1, 163145, Note_on_c, 0, 71, 73
1, 163173, Control_c, 0, 64, 127
1, 163201, Note_off_c, 0, 69, 64
1, 163307, Note_on_c, 0, 73, 67
1, 163356, Note_off_c, 0, 71, 64
1, 163404, Note_off_c, 0, 53, 64
1, 163473, Note_on_c, 0, 74, 74
1, 163505, Note_off_c, 0, 73, 64
1, 163663, Note_off_c, 0, 50, 64
1, 163666, Note_on_c, 0, 76, 57
1, 163666, Note_on_c, 0, 49, 22
1, 163679, Note_off_c, 0, 74, 64
1, 163679, Note_on_c, 0, 52, 40
1, 163690, Control_c, 0, 64, 0
1, 163847, Note_on_c, 0, 70, 51
1, 163892, Control_c, 0, 64, 127
1, 163899, Note_off_c, 0, 76, 64
1, 164025, Note_off_c, 0, 70, 64
1, 164025, Note_on_c, 0, 69, 44
1, 164204, Note_on_c, 0, 68, 55
1, 164223, Note_off_c, 0, 69, 64
1, 164260, Note_off_c, 0, 52, 64
1, 164371, Note_off_c, 0, 49, 64
1, 164398, Note_on_c, 0, 69, 44
1, 164415, Note_on_c, 0, 50, 30
1, 164421, Note_on_c, 0, 47, 24
1, 164421, Note_off_c, 0, 68, 64
1, 164432, Control_c, 0, 64, 0
1, 164582, Note_on_c, 0, 67, 57
1, 164601, Control_c, 0, 64, 127
1, 164621, Note_off_c, 0, 69, 64
1, 164775, Note_on_c, 0, 66, 48
1, 164782, Note_off_c, 0, 67, 64
1, 164916, Note_off_c, 0, 50, 64
1, 164966, Note_off_c, 0, 47, 64
1, 164966, Note_on_c, 0, 67, 54
1, 164978, Note_off_c, 0, 66, 64
1, 165086, Note_off_c, 0, 67, 64
1, 165289, Note_on_c, 0, 67, 43
1, 165289, Note_on_c, 0, 49, 20
1, 165298, Note_on_c, 0, 52, 26
1, 165460, Note_on_c, 0, 66, 42
1, 165466, Note_off_c, 0, 67, 64
1, 165666, Control_c, 0, 64, 0
1, 165669, Note_off_c, 0, 66, 64
1, 165672, Note_on_c, 0, 67, 45
1, 165822, Control_c, 0, 64, 127
1, 165844, Note_off_c, 0, 52, 64
1, 165863, Note_off_c, 0, 49, 64
1, 165878, Note_off_c, 0, 67, 64
1, 166186, Note_on_c, 0, 33, 26
1, 166487, Note_off_c, 0, 33, 64
1, 166941, Note_on_c, 0, 33, 29
1, 167079, Note_off_c, 0, 33, 64
1, 167200, Note_on_c, 0, 69, 51
1, 167399, Note_off_c, 0, 69, 64
1, 167410, Note_on_c, 0, 73, 55
1, 167569, Note_off_c, 0, 73, 64
1, 167590, Note_on_c, 0, 76, 62
1, 167767, Note_on_c, 0, 79, 69
1, 167783, Note_off_c, 0, 76, 64
1, 167794, Note_on_c, 0, 52, 34
1, 167797, Note_on_c, 0, 49, 23
1, 167847, Control_c, 0, 64, 0
1, 167980, Control_c, 0, 64, 127
1, 167980, Note_on_c, 0, 82, 49
1, 167997, Note_off_c, 0, 79, 64
1, 168040, Control_c, 0, 64, 0
1, 168159, Control_c, 0, 64, 127
1, 168206, Note_off_c, 0, 82, 64
1, 168259, Note_on_c, 0, 81, 52
1, 168363, Control_c, 0, 64, 0
1, 168483, Control_c, 0, 64, 127
1, 168532, Note_off_c, 0, 49, 64
1, 168544, Note_off_c, 0, 52, 64
1, 168692, Note_on_c, 0, 53, 55
1, 168706, Note_on_c, 0, 50, 30
1, 168783, Control_c, 0, 64, 0
1, 168916, Note_on_c, 0, 79, 66
1, 168937, Control_c, 0, 64, 127
1, 168951, Note_off_c, 0, 81, 64
1, 169087, Note_on_c, 0, 77, 74
1, 169107, Note_off_c, 0, 79, 64
1, 169226, Note_off_c, 0, 50, 64
1, 169259, Note_on_c, 0, 76, 75
1, 169304, Note_off_c, 0, 77, 64
1, 169441, Note_on_c, 0, 49, 41
1, 169446, Note_off_c, 0, 53, 64
1, 169446, Note_on_c, 0, 45, 25
1, 169454, Note_on_c, 0, 77, 78
1, 169454, Control_c, 0, 64, 0
1, 169482, Note_off_c, 0, 76, 64
1, 169658, Control_c, 0, 64, 127
1, 169674, Note_off_c, 0, 77, 64
1, 169820, Note_on_c, 0, 81, 70
1, 169958, Control_c, 0, 64, 0
1, 170076, Control_c, 0, 64, 127
1, 170139, Note_off_c, 0, 49, 64
1, 170149, Note_on_c, 0, 46, 31
1, 170153, Note_off_c, 0, 45, 64
1, 170153, Note_on_c, 0, 50, 42
1, 170340, Note_on_c, 0, 76, 59
1, 170380, Note_off_c, 0, 81, 64
1, 170437, Control_c, 0, 64, 0
1, 170549, Note_on_c, 0, 74, 60
1, 170569, Control_c, 0, 64, 127
1, 170582, Note_off_c, 0, 76, 64
1, 170700, Control_c, 0, 64, 0
1, 170739, Note_on_c, 0, 73, 58
1, 170781, Note_off_c, 0, 74, 64
1, 170820, Control_c, 0, 64, 127
1, 171001, Note_off_c, 0, 46, 64
1, 171008, Note_on_c, 0, 74, 67
1, 171014, Note_on_c, 0, 43, 33
1, 171036, Note_off_c, 0, 73, 64
1, 171071, Control_c, 0, 64, 0
1, 171276, Control_c, 0, 64, 127
1, 171577, Note_on_c, 0, 82, 57
1, 171596, Note_off_c, 0, 74, 64
1, 171670, Control_c, 0, 64, 0
1, 171814, Control_c, 0, 64, 127
1, 172039, Note_on_c, 0, 77, 48
1, 172045, Note_on_c, 0, 45, 31
1, 172098, Note_off_c, 0, 82, 64
1, 172103, Note_off_c, 0, 43, 64
1, 172246, Control_c, 0, 64, 0
1, 172282, Note_on_c, 0, 79, 56
1, 172309, Note_off_c, 0, 77, 64
1, 172390, Control_c, 0, 64, 127
1, 172475, Note_on_c, 0, 77, 62
1, 172508, Note_off_c, 0, 79, 64
1, 172642, Note_on_c, 0, 76, 57
1, 172660, Note_off_c, 0, 77, 64
1, 172826, Note_on_c, 0, 77, 54
1, 172834, Note_on_c, 0, 49, 32
1, 172851, Note_off_c, 0, 76, 64
1, 172865, Note_off_c, 0, 50, 64
1, 172929, Control_c, 0, 64, 0
1, 173012, Note_on_c, 0, 76, 52
1, 173053, Note_off_c, 0, 77, 64
1, 173060, Control_c, 0, 64, 127
1, 173191, Note_on_c, 0, 74, 57
1, 173212, Note_on_c, 0, 47, 34
1, 173212, Note_off_c, 0, 76, 64
1, 173221, Note_off_c, 0, 49, 64
1, 173360, Control_c, 0, 64, 0
1, 173394, Note_on_c, 0, 76, 60
1, 173416, Note_off_c, 0, 74, 64
1, 173505, Control_c, 0, 64, 127
1, 173603, Note_off_c, 0, 76, 64
1, 173616, Note_on_c, 0, 74, 44
1, 173663, Note_off_c, 0, 47, 64
1, 173663, Note_on_c, 0, 49, 26
1, 173756, Note_off_c, 0, 74, 64
1, 173772, Note_on_c, 0, 76, 44
1, 173892, Note_off_c, 0, 76, 64
1, 173901, Note_on_c, 0, 77, 42
1, 174003, Note_off_c, 0, 77, 64
1, 174007, Control_c, 0, 64, 0
1, 174015, Note_on_c, 0, 76, 43
1, 174131, Note_on_c, 0, 77, 54
1, 174145, Note_off_c, 0, 76, 64
1, 174163, Control_c, 0, 64, 127
1, 174229, Note_off_c, 0, 77, 64
1, 174240, Note_on_c, 0, 76, 31
1, 174321, Note_off_c, 0, 76, 64
1, 174347, Note_on_c, 0, 77, 36
1, 174397, Note_off_c, 0, 77, 64
1, 174432, Note_on_c, 0, 76, 39
1, 174478, Note_off_c, 0, 76, 64
1, 174494, Note_on_c, 0, 77, 42
1, 174541, Note_off_c, 0, 77, 64
1, 174560, Note_on_c, 0, 76, 34
1, 174606, Note_off_c, 0, 76, 64
1, 174617, Note_on_c, 0, 77, 45
1, 174666, Note_off_c, 0, 77, 64
1, 174677, Note_on_c, 0, 76, 38
1, 174728, Note_off_c, 0, 76, 64
1, 174734, Note_on_c, 0, 55, 35
1, 174734, Note_on_c, 0, 77, 43
1, 174783, Note_off_c, 0, 77, 64
1, 174783, Note_off_c, 0, 49, 64
1, 174790, Note_on_c, 0, 76, 46
1, 174840, Note_off_c, 0, 76, 64
1, 174851, Note_on_c, 0, 77, 43
1, 174898, Note_off_c, 0, 77, 64
1, 174904, Note_on_c, 0, 76, 45
1, 174959, Note_off_c, 0, 76, 64
1, 174968, Note_on_c, 0, 77, 50
1, 175010, Note_off_c, 0, 77, 64
1, 175023, Note_on_c, 0, 76, 46
1, 175068, Note_off_c, 0, 76, 64
1, 175074, Note_on_c, 0, 77, 55
1, 175124, Note_off_c, 0, 77, 64
1, 175134, Note_on_c, 0, 76, 40
1, 175176, Note_off_c, 0, 76, 64
1, 175187, Note_on_c, 0, 77, 54
1, 175224, Note_off_c, 0, 77, 64
1, 175229, Note_on_c, 0, 76, 55
1, 175288, Note_off_c, 0, 76, 64
1, 175299, Note_on_c, 0, 77, 42
1, 175347, Note_off_c, 0, 77, 64
1, 175360, Note_on_c, 0, 76, 36
1, 175386, Control_c, 0, 64, 0
1, 175500, Note_off_c, 0, 76, 64
1, 175507, Note_on_c, 0, 74, 38
1, 175517, Control_c, 0, 64, 127
1, 175829, Control_c, 0, 64, 0
1, 175834, Note_off_c, 0, 74, 64
1, 175842, Note_on_c, 0, 76, 35
1, 175973, Control_c, 0, 64, 127
1, 175995, Note_off_c, 0, 45, 64
1, 176096, Note_off_c, 0, 55, 64
1, 176447, Note_on_c, 0, 74, 24
1, 176455, Note_on_c, 0, 54, 21
1, 176461, Note_off_c, 0, 76, 64
1, 176472, Note_on_c, 0, 50, 19
1, 176609, Control_c, 0, 64, 0
1, 176800, Control_c, 0, 64, 127
1, 176870, Note_off_c, 0, 54, 64
1, 176956, Note_off_c, 0, 50, 64
1, 177530, Note_off_c, 0, 74, 64
1, 177542, Note_on_c, 0, 38, 12
1, 177542, Note_on_c, 0, 72, 24
1, 177711, Control_c, 0, 64, 0
1, 177783, Note_on_c, 0, 74, 37
1, 177786, Note_off_c, 0, 72, 64
1, 177867, Control_c, 0, 64, 127
1, 177988, Note_off_c, 0, 74, 64
1, 177991, Note_on_c, 0, 75, 33
1, 178028, Note_off_c, 0, 38, 64
1, 178322, Control_c, 0, 64, 0
1, 178341, Note_on_c, 0, 38, 22
1, 178502, Control_c, 0, 64, 127
1, 178556, Note_on_c, 0, 74, 33
1, 178578, Note_off_c, 0, 75, 64
1, 178613, Note_off_c, 0, 38, 64
1, 178770, Note_on_c, 0, 72, 33
1, 178797, Note_off_c, 0, 74, 64
1, 179143, Note_on_c, 0, 54, 27
1, 179143, Note_on_c, 0, 50, 26
1, 179149, Control_c, 0, 64, 0
1, 179282, Control_c, 0, 64, 127
1, 179311, Note_on_c, 0, 70, 38
1, 179357, Note_off_c, 0, 72, 64
1, 179524, Note_on_c, 0, 69, 27
1, 179547, Note_off_c, 0, 70, 64
1, 179569, Control_c, 0, 64, 0
1, 179725, Control_c, 0, 64, 127
1, 179831, Note_off_c, 0, 54, 64
1, 179864, Note_off_c, 0, 50, 64
1, 179918, Note_on_c, 0, 55, 19
1, 179928, Note_on_c, 0, 52, 15
1, 179940, Control_c, 0, 64, 0
1, 180060, Control_c, 0, 64, 127
1, 180123, Note_off_c, 0, 69, 64
1, 180123, Note_on_c, 0, 67, 26
1, 180240, Control_c, 0, 64, 0
1, 180294, Note_on_c, 0, 66, 29
1, 180327, Note_off_c, 0, 67, 64
1, 180372, Control_c, 0, 64, 127
1, 180467, Note_on_c, 0, 64, 33
1, 180474, Note_off_c, 0, 66, 64
1, 180500, Note_off_c, 0, 55, 64
1, 180556, Note_off_c, 0, 52, 64
1, 180637, Note_off_c, 0, 64, 64
1, 180637, Note_on_c, 0, 62, 38
1, 180645, Note_on_c, 0, 57, 19
1, 180650, Note_on_c, 0, 54, 28
1, 180695, Control_c, 0, 64, 0
1, 180803, Control_c, 0, 64, 127
1, 180809, Note_on_c, 0, 61, 41
1, 180823, Note_off_c, 0, 62, 64
1, 181027, Note_off_c, 0, 61, 64
1, 181030, Control_c, 0, 64, 0
1, 181035, Note_on_c, 0, 62, 40
1, 181210, Control_c, 0, 64, 127
1, 181243, Note_off_c, 0, 57, 64
1, 181289, Note_off_c, 0, 54, 64
1, 181469, Note_on_c, 0, 58, 21
1, 181480, Note_on_c, 0, 55, 24
1, 181486, Control_c, 0, 64, 0
1, 181678, Control_c, 0, 64, 127
1, 181832, Note_off_c, 0, 55, 64
1, 181846, Note_on_c, 0, 64, 37
1, 181860, Note_off_c, 0, 58, 64
1, 181890, Note_off_c, 0, 62, 64
1, 182030, Note_on_c, 0, 66, 37
1, 182057, Note_off_c, 0, 64, 64
1, 182219, Note_on_c, 0, 67, 43
1, 182222, Note_on_c, 0, 38, 35
1, 182238, Note_off_c, 0, 66, 64
1, 182394, Note_on_c, 0, 62, 43
1, 182408, Note_off_c, 0, 67, 64
1, 182537, Note_off_c, 0, 38, 64
1, 182553, Note_off_c, 0, 62, 64
1, 182573, Note_on_c, 0, 67, 46
1, 182751, Note_on_c, 0, 69, 44
1, 182759, Note_off_c, 0, 67, 64
1, 182924, Note_on_c, 0, 70, 43
1, 182940, Note_off_c, 0, 69, 64
1, 182945, Note_on_c, 0, 38, 27
1, 182973, Control_c, 0, 64, 0
1, 183099, Note_on_c, 0, 67, 48
1, 183104, Control_c, 0, 64, 127
1, 183108, Note_off_c, 0, 70, 64
1, 183232, Note_off_c, 0, 38, 64
1, 183246, Note_off_c, 0, 67, 64
1, 183257, Note_on_c, 0, 70, 50
1, 183436, Note_on_c, 0, 72, 57
1, 183448, Note_off_c, 0, 70, 64
1, 183606, Note_off_c, 0, 72, 64
1, 183606, Note_on_c, 0, 74, 58
1, 183619, Note_on_c, 0, 57, 28
1, 183637, Note_on_c, 0, 53, 38
1, 183771, Note_on_c, 0, 69, 43
1, 183785, Note_off_c, 0, 74, 64
1, 183785, Control_c, 0, 64, 0
1, 183907, Control_c, 0, 64, 127
1, 183955, Note_on_c, 0, 73, 49
1, 183970, Note_off_c, 0, 69, 64
1, 184038, Note_off_c, 0, 57, 64
1, 184132, Note_on_c, 0, 74, 64
1, 184138, Note_off_c, 0, 73, 64
1, 184168, Note_off_c, 0, 53, 64
1, 184316, Note_off_c, 0, 74, 64
1, 184327, Note_on_c, 0, 76, 45
1, 184349, Note_on_c, 0, 55, 28
1, 184352, Note_on_c, 0, 52, 27
1, 184386, Control_c, 0, 64, 0
1, 184533, Note_on_c, 0, 77, 49
1, 184547, Note_off_c, 0, 76, 64
1, 184580, Control_c, 0, 64, 127
1, 184681, Note_off_c, 0, 55, 64
1, 184714, Note_on_c, 0, 79, 58
1, 184723, Note_off_c, 0, 77, 64
1, 184810, Note_off_c, 0, 52, 64
1, 184891, Note_on_c, 0, 81, 52
1, 184906, Note_off_c, 0, 79, 64
1, 185090, Note_on_c, 0, 53, 43
1, 185090, Note_on_c, 0, 50, 27
1, 185094, Control_c, 0, 64, 0
1, 185116, Note_off_c, 0, 81, 64
1, 185121, Note_on_c, 0, 82, 25
1, 185274, Control_c, 0, 64, 127
1, 185296, Note_off_c, 0, 82, 64
1, 185299, Note_on_c, 0, 74, 54
1, 185506, Note_on_c, 0, 73, 51
1, 185512, Note_off_c, 0, 74, 64
1, 185597, Control_c, 0, 64, 0
1, 185717, Control_c, 0, 64, 127
1, 185723, Note_on_c, 0, 74, 60
1, 185729, Note_off_c, 0, 53, 64
1, 185729, Note_off_c, 0, 73, 64
1, 185764, Note_off_c, 0, 50, 64
1, 185893, Note_off_c, 0, 74, 64
1, 186018, Note_on_c, 0, 74, 42
1, 186058, Note_on_c, 0, 52, 20
1, 186058, Note_on_c, 0, 55, 17
1, 186280, Control_c, 0, 64, 0
1, 186436, Control_c, 0, 64, 127
1, 186459, Note_off_c, 0, 74, 64
1, 186473, Note_on_c, 0, 67, 31
1, 186542, Note_off_c, 0, 55, 64
1, 186542, Note_off_c, 0, 52, 64
1, 186874, Note_on_c, 0, 38, 24
1, 186915, Control_c, 0, 64, 0
1, 187083, Control_c, 0, 64, 127
1, 187152, Note_on_c, 0, 69, 24
1, 187180, Note_off_c, 0, 67, 64
1, 187347, Note_off_c, 0, 38, 64
1, 187359, Note_on_c, 0, 67, 49
1, 187381, Note_off_c, 0, 69, 64
1, 187540, Note_on_c, 0, 65, 50
1, 187561, Note_off_c, 0, 67, 64
1, 187763, Note_on_c, 0, 67, 56
1, 187770, Note_on_c, 0, 38, 22
1, 187788, Note_off_c, 0, 65, 64
1, 187802, Control_c, 0, 64, 0
1, 188005, Control_c, 0, 64, 127
1, 188057, Note_off_c, 0, 38, 64
1, 188160, Note_on_c, 0, 73, 48
1, 188178, Note_off_c, 0, 67, 64
1, 188345, Note_on_c, 0, 74, 63
1, 188384, Note_off_c, 0, 73, 64
1, 188550, Note_on_c, 0, 49, 21
1, 188558, Note_off_c, 0, 74, 64
1, 188558, Note_on_c, 0, 76, 50
1, 188558, Control_c, 0, 64, 0
1, 188568, Note_on_c, 0, 52, 23
1, 188748, Control_c, 0, 64, 127
1, 189024, Note_on_c, 0, 67, 36
1, 189040, Note_off_c, 0, 76, 64
1, 189108, Control_c, 0, 64, 0
1, 189216, Control_c, 0, 64, 127
1, 189302, Note_off_c, 0, 52, 64
1, 189319, Note_off_c, 0, 49, 64
1, 189394, Note_on_c, 0, 65, 36
1, 189403, Note_off_c, 0, 67, 64
1, 189426, Note_on_c, 0, 50, 23
1, 189429, Note_on_c, 0, 53, 43
1, 189456, Control_c, 0, 64, 0
1, 189587, Control_c, 0, 64, 127
1, 189609, Note_on_c, 0, 69, 38
1, 189649, Note_off_c, 0, 65, 64
1, 189804, Note_on_c, 0, 71, 55
1, 189824, Note_off_c, 0, 69, 64
1, 189863, Control_c, 0, 64, 0
1, 189983, Control_c, 0, 64, 127
1, 189994, Note_on_c, 0, 73, 55
1, 190041, Note_off_c, 0, 53, 64
1, 190054, Note_off_c, 0, 71, 64
1, 190286, Note_on_c, 0, 74, 49
1, 190319, Note_on_c, 0, 57, 19
1, 190319, Note_on_c, 0, 53, 29
1, 190325, Note_off_c, 0, 73, 64
1, 190342, Note_off_c, 0, 50, 64
1, 190342, Control_c, 0, 64, 0
1, 190534, Control_c, 0, 64, 127
1, 190642, Note_off_c, 0, 74, 64
1, 190796, Note_on_c, 0, 70, 59
1, 190924, Note_off_c, 0, 57, 64
1, 190966, Note_off_c, 0, 53, 64
1, 191362, Note_on_c, 0, 68, 57
1, 191389, Note_on_c, 0, 47, 32
1, 191394, Note_on_c, 0, 50, 34
1, 191517, Control_c, 0, 64, 0
1, 191593, Note_off_c, 0, 70, 64
1, 191852, Control_c, 0, 64, 127
1, 192094, Note_on_c, 0, 69, 37
1, 192172, Note_off_c, 0, 68, 64
1, 192177, Control_c, 0, 64, 0
1, 192369, Control_c, 0, 64, 127
1, 192604, Note_on_c, 0, 46, 34
1, 192695, Note_off_c, 0, 47, 64
1, 192835, Control_c, 0, 64, 0
1, 193004, Control_c, 0, 64, 127
1, 193142, Note_on_c, 0, 62, 46
1, 193202, Note_off_c, 0, 69, 64
1, 193400, Note_on_c, 0, 67, 52
1, 193470, Note_off_c, 0, 62, 64
1, 193751, Note_on_c, 0, 65, 41
1, 193765, Note_on_c, 0, 45, 37
1, 193835, Note_off_c, 0, 46, 64
1, 193863, Note_off_c, 0, 67, 64
1, 193915, Control_c, 0, 64, 0
1, 194273, Control_c, 0, 64, 127
1, 194610, Note_on_c, 0, 67, 30
1, 194621, Note_off_c, 0, 65, 64
1, 194833, Note_on_c, 0, 65, 35
1, 194847, Note_off_c, 0, 67, 64
1, 195002, Note_on_c, 0, 64, 53
1, 195008, Note_off_c, 0, 65, 64
1, 195191, Note_on_c, 0, 65, 52
1, 195191, Note_on_c, 0, 44, 42
1, 195205, Note_off_c, 0, 64, 64
1, 195244, Note_off_c, 0, 45, 64
1, 195256, Control_c, 0, 64, 0
1, 195368, Note_on_c, 0, 64, 57
1, 195398, Note_off_c, 0, 65, 64
1, 195507, Note_on_c, 0, 62, 55
1, 195510, Note_off_c, 0, 64, 64
1, 195520, Control_c, 0, 64, 127
1, 195646, Note_on_c, 0, 64, 52
1, 195651, Note_off_c, 0, 62, 64
1, 195796, Note_off_c, 0, 64, 64
1, 195805, Note_on_c, 0, 62, 43
1, 195916, Control_c, 0, 64, 0
1, 195943, Note_on_c, 0, 61, 45
1, 195943, Note_off_c, 0, 62, 64
1, 196095, Control_c, 0, 64, 127
1, 196128, Note_on_c, 0, 62, 50
1, 196139, Note_off_c, 0, 61, 64
1, 196216, Control_c, 0, 64, 0
1, 196301, Note_on_c, 0, 64, 49
1, 196314, Note_off_c, 0, 62, 64
1, 196359, Control_c, 0, 64, 127
1, 196532, Note_off_c, 0, 64, 64
1, 196546, Note_on_c, 0, 62, 38
1, 196570, Note_on_c, 0, 45, 20
1, 196587, Control_c, 0, 64, 0
1, 196591, Note_off_c, 0, 44, 64
1, 196727, Note_on_c, 0, 64, 42
1, 196743, Note_off_c, 0, 62, 64
1, 196850, Control_c, 0, 64, 127
1, 196889, Note_off_c, 0, 64, 64
1, 196889, Note_on_c, 0, 65, 30
1, 197005, Note_off_c, 0, 65, 64
1, 197053, Note_on_c, 0, 64, 12
1, 197117, Note_off_c, 0, 64, 64
1, 197148, Note_on_c, 0, 65, 22
1, 197197, Note_on_c, 0, 64, 41
1, 197197, Note_off_c, 0, 65, 64
1, 197262, Note_off_c, 0, 64, 64
1, 197262, Note_on_c, 0, 65, 40
1, 197322, Note_off_c, 0, 65, 64
1, 197347, Note_on_c, 0, 64, 38
1, 197389, Note_on_c, 0, 65, 47
1, 197392, Note_off_c, 0, 64, 64
1, 197440, Note_off_c, 0, 65, 64
1, 197478, Note_on_c, 0, 64, 32
1, 197510, Note_on_c, 0, 65, 43
1, 197526, Note_off_c, 0, 64, 64
1, 197565, Note_off_c, 0, 65, 64
1, 197593, Note_on_c, 0, 64, 27
1, 197598, Note_on_c, 0, 49, 37
1, 197635, Note_on_c, 0, 65, 42
1, 197643, Note_off_c, 0, 64, 64
1, 197687, Note_off_c, 0, 65, 64
1, 197705, Note_off_c, 0, 50, 64
1, 197705, Note_on_c, 0, 64, 25
1, 197754, Note_on_c, 0, 65, 44
1, 197758, Note_off_c, 0, 64, 64
1, 197772, Control_c, 0, 64, 0
1, 197805, Note_off_c, 0, 65, 64
1, 197829, Note_on_c, 0, 64, 38
1, 197874, Note_on_c, 0, 65, 45
1, 197878, Note_off_c, 0, 64, 64
1, 197930, Note_off_c, 0, 65, 64
1, 197953, Control_c, 0, 64, 127
1, 197953, Note_on_c, 0, 64, 49
1, 197995, Note_on_c, 0, 65, 47
1, 197995, Note_off_c, 0, 64, 64
1, 198049, Note_off_c, 0, 65, 64
1, 198067, Note_on_c, 0, 64, 50
1, 198111, Note_off_c, 0, 64, 64
1, 198116, Note_on_c, 0, 65, 46
1, 198162, Note_off_c, 0, 65, 64
1, 198187, Note_on_c, 0, 64, 45
1, 198231, Note_off_c, 0, 64, 64
1, 198231, Note_on_c, 0, 65, 44
1, 198281, Note_off_c, 0, 65, 64
1, 198314, Note_on_c, 0, 64, 32
1, 198354, Note_on_c, 0, 65, 44
1, 198364, Note_off_c, 0, 64, 64
1, 198403, Note_off_c, 0, 65, 64
1, 198431, Note_on_c, 0, 55, 51
1, 198431, Note_on_c, 0, 64, 29
1, 198484, Note_on_c, 0, 65, 31
1, 198488, Note_off_c, 0, 64, 64
1, 198517, Control_c, 0, 64, 0
1, 198535, Note_off_c, 0, 65, 64
1, 198548, Note_on_c, 0, 64, 29
1, 198598, Note_off_c, 0, 64, 64
1, 198598, Note_on_c, 0, 65, 42
1, 198634, Note_off_c, 0, 49, 64
1, 198651, Note_off_c, 0, 65, 64
1, 198682, Note_on_c, 0, 64, 32
1, 198708, Control_c, 0, 64, 127
1, 198722, Note_on_c, 0, 65, 43
1, 198738, Note_off_c, 0, 64, 64
1, 198775, Note_off_c, 0, 65, 64
1, 198796, Note_on_c, 0, 64, 12
1, 198849, Note_on_c, 0, 65, 36
1, 198857, Note_off_c, 0, 64, 64
1, 198900, Note_off_c, 0, 65, 64
1, 198907, Note_on_c, 0, 64, 23
1, 198966, Note_off_c, 0, 64, 64
1, 198978, Note_on_c, 0, 65, 27
1, 199031, Note_off_c, 0, 65, 64
1, 199038, Note_on_c, 0, 64, 41
1, 199083, Note_off_c, 0, 64, 64
1, 199105, Note_on_c, 0, 65, 32
1, 199156, Note_on_c, 0, 64, 44
1, 199159, Note_off_c, 0, 65, 64
1, 199212, Note_off_c, 0, 64, 64
1, 199247, Note_on_c, 0, 65, 21
1, 199309, Note_off_c, 0, 65, 64
1, 199309, Note_on_c, 0, 64, 32
1, 199474, Note_off_c, 0, 64, 64
1, 199484, Note_on_c, 0, 65, 37
1, 199704, Control_c, 0, 64, 0
1, 199710, Note_off_c, 0, 65, 64
1, 199724, Note_on_c, 0, 64, 22
1, 199894, Control_c, 0, 64, 127
1, 200013, Note_off_c, 0, 64, 64
1, 200061, Note_on_c, 0, 62, 15
1, 200158, Control_c, 0, 64, 0
1, 200326, Control_c, 0, 64, 127
1, 200509, Note_off_c, 0, 62, 64
1, 200529, Note_on_c, 0, 64, 18
1, 200565, Control_c, 0, 64, 0
1, 200769, Control_c, 0, 64, 127
1, 201039, Note_off_c, 0, 45, 64
1, 201234, Note_off_c, 0, 64, 64
1, 201435, Note_on_c, 0, 62, 18
1, 201449, Note_on_c, 0, 50, 14
1, 201716, Control_c, 0, 64, 0
1, 201944, Control_c, 0, 64, 127
1, 203192, Note_off_c, 0, 55, 64
1, 203353, Note_on_c, 0, 53, 2
1, 204616, Control_c, 0, 64, 0
1, 205168, Control_c, 0, 64, 127
1, 206669, Control_c, 0, 64, 0
1, 208167, End_track
0, 0, End_of_file
