0, 0, Header, 0, 1, 384
1, 0, Start_track
1, 0, Tempo, 512820
1, 0, Title_t, ""
1, 0, Note_on_c, 0, 74, 59
1, 14, Note_on_c, 0, 55, 27
1, 19, Note_on_c, 0, 59, 29
1, 24, Note_on_c, 0, 62, 25
1, 439, Note_on_c, 0, 67, 50
1, 451, Note_off_c, 0, 74, 64
1, 651, Note_on_c, 0, 69, 55
1, 684, Note_off_c, 0, 67, 64
1, 840, Note_on_c, 0, 71, 67
1, 855, Note_on_c, 0, 57, 30
1, 863, Note_off_c, 0, 59, 64
1, 880, Note_off_c, 0, 69, 64
1, 1030, Note_off_c, 0, 55, 64
1, 1045, Note_on_c, 0, 72, 66
1, 1084, Note_off_c, 0, 62, 64
1, 1084, Note_off_c, 0, 71, 64
1, 1287, Note_on_c, 0, 74, 63
1, 1297, Note_off_c, 0, 72, 64
1, 1297, Note_on_c, 0, 59, 27
1, 1309, Note_off_c, 0, 57, 64
1, 1673, Note_on_c, 0, 67, 41
1, 1685, Note_off_c, 0, 74, 64
1, 1785, Note_off_c, 0, 67, 64
1, 2083, Note_on_c, 0, 67, 42
1, 2155, Note_off_c, 0, 67, 64
1, 2488, Note_on_c, 0, 60, 27
1, 2491, Note_on_c, 0, 76, 54
1, 2507, Note_off_c, 0, 59, 64
1, 2903, Note_on_c, 0, 72, 57
1, 2950, Note_off_c, 0, 76, 64
1, 3098, Note_on_c, 0, 74, 82
1, 3142, Note_off_c, 0, 72, 64
1, 3289, Note_on_c, 0, 76, 79
1, 3328, Note_off_c, 0, 74, 64
1, 3478, Note_on_c, 0, 78, 72
1, 3523, Note_off_c, 0, 76, 64
1, 3691, Note_on_c, 0, 79, 64
1, 3704, Note_off_c, 0, 60, 64
1, 3712, Note_off_c, 0, 78, 64
1, 3712, Note_on_c, 0, 59, 27
1, 4069, Note_off_c, 0, 79, 64
1, 4094, Note_on_c, 0, 67, 44
1, 4162, Note_off_c, 0, 67, 64
1, 4496, Note_on_c, 0, 67, 36
1, 4585, Note_off_c, 0, 67, 64
1, 4925, Note_on_c, 0, 72, 55
1, 4931, Note_off_c, 0, 59, 64
1, 4938, Note_on_c, 0, 57, 22
1, 5336, Note_on_c, 0, 74, 59
1, 5373, Note_off_c, 0, 72, 64
1, 5538, Note_on_c, 0, 72, 61
1, 5579, Note_off_c, 0, 74, 64
1, 5727, Note_on_c, 0, 71, 69
1, 5757, Note_off_c, 0, 72, 64
1, 5914, Note_on_c, 0, 69, 51
1, 5921, Note_off_c, 0, 71, 64
1, 6133, Note_on_c, 0, 71, 54
1, 6158, Note_on_c, 0, 55, 29
1, 6175, Note_off_c, 0, 69, 64
1, 6181, Note_off_c, 0, 57, 64
1, 6515, Note_on_c, 0, 72, 39
1, 6534, Note_off_c, 0, 71, 64
1, 6708, Note_on_c, 0, 71, 52
1, 6735, Note_off_c, 0, 72, 64
1, 6894, Note_on_c, 0, 69, 48
1, 6922, Note_off_c, 0, 71, 64
1, 7075, Note_on_c, 0, 67, 55
1, 7081, Note_off_c, 0, 69, 64
1, 7270, Note_off_c, 0, 55, 64
1, 7281, Note_on_c, 0, 66, 48
1, 7290, Note_on_c, 0, 62, 42
1, 7339, Note_off_c, 0, 67, 64
1, 7452, Note_off_c, 0, 62, 64
1, 7655, Note_on_c, 0, 67, 49
1, 7672, Note_on_c, 0, 59, 41
1, 7711, Note_off_c, 0, 66, 64
1, 7764, Note_off_c, 0, 59, 64
1, 7856, Note_on_c, 0, 69, 42
1, 7875, Note_off_c, 0, 67, 64
1, 8050, Note_on_c, 0, 55, 34
1, 8050, Note_on_c, 0, 71, 47
1, 8055, Note_off_c, 0, 69, 64
1, 8148, Note_off_c, 0, 55, 64
1, 8240, Note_on_c, 0, 67, 44
1, 8240, Note_off_c, 0, 71, 64
1, 8462, Note_on_c, 0, 69, 27
1, 8474, Note_on_c, 0, 62, 31
1, 8496, Note_off_c, 0, 67, 64
1, 8897, Note_on_c, 0, 50, 33
1, 8902, Note_off_c, 0, 62, 64
1, 9094, Note_on_c, 0, 60, 42
1, 9101, Note_off_c, 0, 50, 64
1, 9204, Note_off_c, 0, 69, 64
1, 9284, Note_on_c, 0, 59, 42
1, 9292, Note_off_c, 0, 60, 64
1, 9482, Note_on_c, 0, 57, 36
1, 9490, Note_off_c, 0, 59, 64
1, 9714, Note_on_c, 0, 74, 55
1, 9730, Note_off_c, 0, 57, 64
1, 9741, Note_on_c, 0, 59, 23
1, 10142, Note_on_c, 0, 67, 50
1, 10182, Note_off_c, 0, 74, 64
1, 10337, Note_on_c, 0, 69, 60
1, 10385, Note_off_c, 0, 67, 64
1, 10521, Note_on_c, 0, 71, 78
1, 10541, Note_on_c, 0, 57, 23
1, 10549, Note_off_c, 0, 59, 64
1, 10583, Note_off_c, 0, 69, 64
1, 10721, Note_on_c, 0, 72, 69
1, 10772, Note_off_c, 0, 71, 64
1, 10920, Note_off_c, 0, 57, 64
1, 10934, Note_on_c, 0, 74, 63
1, 10937, Note_on_c, 0, 55, 30
1, 10944, Note_off_c, 0, 72, 64
1, 11295, Note_off_c, 0, 55, 64
1, 11304, Note_off_c, 0, 74, 64
1, 11315, Note_on_c, 0, 67, 39
1, 11324, Note_on_c, 0, 59, 31
1, 11404, Note_off_c, 0, 67, 64
1, 11418, Note_off_c, 0, 59, 64
1, 11688, Note_on_c, 0, 67, 46
1, 11696, Note_on_c, 0, 55, 35
1, 11756, Note_off_c, 0, 67, 64
1, 11816, Note_off_c, 0, 55, 64
1, 12070, Note_on_c, 0, 76, 55
1, 12081, Note_on_c, 0, 60, 40
1, 12465, Note_on_c, 0, 72, 61
1, 12496, Note_off_c, 0, 76, 64
1, 12655, Note_on_c, 0, 74, 73
1, 12669, Note_off_c, 0, 72, 64
1, 12839, Note_on_c, 0, 76, 68
1, 12855, Note_off_c, 0, 74, 64
1, 13017, Note_on_c, 0, 78, 67
1, 13043, Note_off_c, 0, 76, 64
1, 13212, Note_off_c, 0, 60, 64
1, 13224, Note_on_c, 0, 59, 38
1, 13229, Note_on_c, 0, 79, 64
1, 13237, Note_off_c, 0, 78, 64
1, 13600, Note_off_c, 0, 79, 64
1, 13600, Note_off_c, 0, 59, 64
1, 13614, Note_on_c, 0, 60, 32
1, 13617, Note_on_c, 0, 67, 41
1, 13753, Note_off_c, 0, 67, 64
1, 13817, Note_off_c, 0, 60, 64
1, 13831, Note_on_c, 0, 59, 39
1, 14001, Note_on_c, 0, 67, 44
1, 14014, Note_off_c, 0, 59, 64
1, 14014, Note_on_c, 0, 57, 30
1, 14070, Note_off_c, 0, 67, 64
1, 14174, Note_off_c, 0, 57, 64
1, 14203, Note_on_c, 0, 55, 39
1, 14427, Note_off_c, 0, 55, 64
1, 14433, Note_on_c, 0, 72, 59
1, 14447, Note_on_c, 0, 57, 32
1, 14831, Note_on_c, 0, 74, 49
1, 14834, Note_off_c, 0, 72, 64
1, 15032, Note_on_c, 0, 72, 53
1, 15054, Note_off_c, 0, 74, 64
1, 15212, Note_on_c, 0, 54, 43
1, 15218, Note_on_c, 0, 71, 65
1, 15232, Note_off_c, 0, 57, 64
1, 15256, Note_off_c, 0, 72, 64
1, 15407, Note_on_c, 0, 69, 55
1, 15419, Note_off_c, 0, 71, 64
1, 15624, Note_on_c, 0, 71, 74
1, 15639, Note_on_c, 0, 55, 40
1, 15642, Note_off_c, 0, 54, 64
1, 15653, Note_off_c, 0, 69, 64
1, 15995, Note_on_c, 0, 72, 63
1, 16018, Note_off_c, 0, 71, 64
1, 16177, Note_on_c, 0, 71, 76
1, 16234, Note_off_c, 0, 72, 64
1, 16366, Note_on_c, 0, 69, 58
1, 16369, Note_on_c, 0, 59, 41
1, 16394, Note_off_c, 0, 71, 64
1, 16405, Note_off_c, 0, 55, 64
1, 16549, Note_on_c, 0, 67, 68
1, 16561, Note_off_c, 0, 69, 64
1, 16739, Note_off_c, 0, 59, 64
1, 16752, Note_on_c, 0, 69, 46
1, 16761, Note_on_c, 0, 60, 38
1, 16775, Note_off_c, 0, 67, 64
1, 16894, Note_off_c, 0, 60, 64
1, 17137, Note_on_c, 0, 62, 32
1, 17137, Note_on_c, 0, 71, 49
1, 17154, Note_off_c, 0, 69, 64
1, 17229, Note_off_c, 0, 62, 64
1, 17323, Note_on_c, 0, 69, 40
1, 17341, Note_off_c, 0, 71, 64
1, 17507, Note_off_c, 0, 69, 64
1, 17507, Note_on_c, 0, 50, 35
1, 17518, Note_on_c, 0, 67, 36
1, 17588, Note_off_c, 0, 50, 64
1, 17691, Note_on_c, 0, 66, 29
1, 17698, Note_off_c, 0, 67, 64
1, 17922, Note_on_c, 0, 67, 39
1, 17947, Note_off_c, 0, 66, 64
1, 17951, Note_on_c, 0, 55, 35
1, 18739, Note_off_c, 0, 55, 64
1, 18750, Note_on_c, 0, 43, 18
1, 18814, Control_c, 0, 64, 127
1, 18845, Note_off_c, 0, 67, 64
1, 18872, Note_off_c, 0, 43, 64
1, 18981, Control_c, 0, 64, 0
1, 19351, Note_on_c, 0, 74, 42
1, 19369, Note_on_c, 0, 62, 20
1, 19369, Note_on_c, 0, 59, 11
1, 19376, Note_on_c, 0, 55, 23
1, 19603, Control_c, 0, 64, 127
1, 19780, Note_off_c, 0, 74, 64
1, 19784, Note_on_c, 0, 67, 23
1, 19808, Control_c, 0, 64, 0
1, 19979, Note_off_c, 0, 67, 64
1, 19979, Note_on_c, 0, 69, 20
1, 20035, Control_c, 0, 64, 127
1, 20140, Note_off_c, 0, 59, 64
1, 20143, Control_c, 0, 64, 0
1, 20173, Note_off_c, 0, 69, 64
1, 20173, Note_on_c, 0, 71, 41
1, 20173, Note_off_c, 0, 55, 64
1, 20185, Note_on_c, 0, 57, 24
1, 20365, Note_on_c, 0, 72, 38
1, 20379, Note_off_c, 0, 71, 64
1, 20556, Note_off_c, 0, 57, 64
1, 20591, Note_on_c, 0, 74, 37
1, 20596, Note_off_c, 0, 72, 64
1, 20596, Note_off_c, 0, 62, 64
1, 20613, Note_on_c, 0, 59, 8
1, 20814, Control_c, 0, 64, 127
1, 20918, Note_off_c, 0, 74, 64
1, 20982, Note_on_c, 0, 67, 21
1, 21006, Control_c, 0, 64, 0
1, 21046, Note_off_c, 0, 67, 64
1, 21375, Note_on_c, 0, 67, 35
1, 21446, Note_off_c, 0, 67, 64
1, 21778, Note_on_c, 0, 76, 35
1, 21781, Note_off_c, 0, 59, 64
1, 21781, Note_on_c, 0, 60, 23
1, 21833, Control_c, 0, 64, 127
1, 22169, Note_on_c, 0, 72, 34
1, 22188, Note_off_c, 0, 76, 64
1, 22301, Control_c, 0, 64, 0
1, 22368, Note_on_c, 0, 74, 57
1, 22382, Note_off_c, 0, 72, 64
1, 22542, Note_on_c, 0, 76, 60
1, 22564, Note_off_c, 0, 74, 64
1, 22720, Note_on_c, 0, 78, 61
1, 22739, Note_off_c, 0, 76, 64
1, 22934, Note_off_c, 0, 78, 64
1, 22934, Note_on_c, 0, 79, 52
1, 22942, Note_off_c, 0, 60, 64
1, 22959, Note_on_c, 0, 59, 20
1, 23127, Control_c, 0, 64, 127
1, 23268, Note_off_c, 0, 79, 64
1, 23308, Control_c, 0, 64, 0
1, 23327, Note_on_c, 0, 67, 32
1, 23407, Note_off_c, 0, 67, 64
1, 23708, Note_on_c, 0, 67, 36
1, 23828, Note_off_c, 0, 67, 64
1, 24121, Note_on_c, 0, 72, 50
1, 24127, Note_off_c, 0, 59, 64
1, 24130, Note_on_c, 0, 57, 23
1, 24506, Note_on_c, 0, 74, 55
1, 24527, Note_off_c, 0, 72, 64
1, 24701, Note_on_c, 0, 72, 54
1, 24723, Note_off_c, 0, 74, 64
1, 24889, Note_on_c, 0, 71, 61
1, 24915, Note_off_c, 0, 72, 64
1, 25077, Note_on_c, 0, 69, 45
1, 25091, Note_off_c, 0, 71, 64
1, 25280, Note_on_c, 0, 71, 54
1, 25302, Note_off_c, 0, 57, 64
1, 25302, Note_on_c, 0, 55, 27
1, 25316, Note_off_c, 0, 69, 64
1, 25675, Note_off_c, 0, 71, 64
1, 25678, Note_on_c, 0, 72, 32
1, 25882, Note_on_c, 0, 71, 48
1, 25886, Note_off_c, 0, 72, 64
1, 26054, Note_on_c, 0, 69, 46
1, 26066, Note_off_c, 0, 71, 64
1, 26233, Note_on_c, 0, 67, 58
1, 26261, Note_off_c, 0, 69, 64
1, 26403, Note_off_c, 0, 55, 64
1, 26444, Note_on_c, 0, 66, 41
1, 26444, Note_on_c, 0, 62, 39
1, 26489, Note_off_c, 0, 67, 64
1, 26562, Note_off_c, 0, 62, 64
1, 26807, Note_on_c, 0, 67, 37
1, 26814, Note_on_c, 0, 59, 24
1, 26862, Note_off_c, 0, 66, 64
1, 26926, Note_off_c, 0, 59, 64
1, 27016, Note_on_c, 0, 69, 25
1, 27034, Note_off_c, 0, 67, 64
1, 27200, Note_on_c, 0, 71, 42
1, 27203, Note_on_c, 0, 55, 26
1, 27210, Note_off_c, 0, 69, 64
1, 27299, Note_off_c, 0, 55, 64
1, 27380, Note_off_c, 0, 71, 64
1, 27380, Note_on_c, 0, 67, 35
1, 27595, Note_on_c, 0, 69, 29
1, 27614, Note_on_c, 0, 62, 26
1, 27614, Note_off_c, 0, 67, 64
1, 27976, Note_off_c, 0, 62, 64
1, 28001, Note_on_c, 0, 50, 29
1, 28186, Note_off_c, 0, 50, 64
1, 28204, Note_on_c, 0, 60, 38
1, 28336, Note_off_c, 0, 69, 64
1, 28399, Note_on_c, 0, 59, 42
1, 28403, Note_off_c, 0, 60, 64
1, 28587, Note_on_c, 0, 57, 42
1, 28598, Note_off_c, 0, 59, 64
1, 28824, Note_off_c, 0, 57, 64
1, 28831, Note_on_c, 0, 74, 55
1, 28856, Note_on_c, 0, 59, 26
1, 29242, Note_on_c, 0, 67, 44
1, 29274, Note_off_c, 0, 74, 64
1, 29444, Note_on_c, 0, 69, 49
1, 29487, Note_off_c, 0, 67, 64
1, 29627, Note_on_c, 0, 71, 62
1, 29640, Note_on_c, 0, 57, 23
1, 29653, Note_off_c, 0, 59, 64
1, 29686, Note_off_c, 0, 69, 64
1, 29821, Note_on_c, 0, 72, 60
1, 29868, Note_off_c, 0, 71, 64
1, 30026, Note_on_c, 0, 74, 57
1, 30030, Note_off_c, 0, 57, 64
1, 30046, Note_on_c, 0, 55, 26
1, 30049, Note_off_c, 0, 72, 64
1, 30380, Note_off_c, 0, 55, 64
1, 30392, Note_off_c, 0, 74, 64
1, 30405, Note_on_c, 0, 67, 34
1, 30419, Note_on_c, 0, 59, 26
1, 30486, Note_off_c, 0, 67, 64
1, 30729, Note_off_c, 0, 59, 64
1, 30781, Note_on_c, 0, 67, 36
1, 30809, Note_on_c, 0, 55, 28
1, 30885, Note_off_c, 0, 67, 64
1, 31150, Note_off_c, 0, 55, 64
1, 31185, Note_on_c, 0, 76, 42
1, 31224, Note_on_c, 0, 60, 29
1, 31542, Control_c, 0, 64, 127
1, 31567, Note_on_c, 0, 72, 49
1, 31597, Note_off_c, 0, 76, 64
1, 31760, Note_on_c, 0, 74, 69
1, 31787, Note_off_c, 0, 72, 64
1, 31937, Control_c, 0, 64, 0
1, 31944, Note_on_c, 0, 76, 72
1, 31962, Note_off_c, 0, 74, 64
1, 32122, Note_on_c, 0, 78, 69
1, 32152, Note_off_c, 0, 76, 64
1, 32331, Note_on_c, 0, 79, 60
1, 32341, Note_off_c, 0, 78, 64
1, 32345, Note_off_c, 0, 60, 64
1, 32361, Note_on_c, 0, 59, 20
1, 32706, Note_off_c, 0, 79, 64
1, 32723, Note_on_c, 0, 67, 34
1, 32728, Note_off_c, 0, 59, 64
1, 32740, Note_on_c, 0, 60, 22
1, 32852, Note_off_c, 0, 67, 64
1, 32923, Note_off_c, 0, 60, 64
1, 32926, Note_on_c, 0, 59, 34
1, 33099, Note_on_c, 0, 67, 42
1, 33107, Note_on_c, 0, 57, 34
1, 33121, Note_off_c, 0, 59, 64
1, 33171, Note_off_c, 0, 67, 64
1, 33275, Note_off_c, 0, 57, 64
1, 33291, Note_on_c, 0, 55, 45
1, 33523, Note_on_c, 0, 72, 50
1, 33529, Note_off_c, 0, 55, 64
1, 33542, Note_on_c, 0, 57, 30
1, 33918, Note_on_c, 0, 74, 52
1, 33937, Note_off_c, 0, 72, 64
1, 34118, Note_on_c, 0, 72, 54
1, 34147, Note_off_c, 0, 74, 64
1, 34308, Note_on_c, 0, 71, 58
1, 34308, Note_on_c, 0, 54, 31
1, 34323, Note_off_c, 0, 57, 64
1, 34347, Note_off_c, 0, 72, 64
1, 34492, Note_on_c, 0, 69, 49
1, 34500, Note_off_c, 0, 71, 64
1, 34698, Note_on_c, 0, 71, 57
1, 34723, Note_off_c, 0, 69, 64
1, 34735, Note_off_c, 0, 54, 64
1, 34735, Note_on_c, 0, 55, 28
1, 35089, Note_on_c, 0, 72, 36
1, 35092, Note_off_c, 0, 71, 64
1, 35286, Note_on_c, 0, 71, 47
1, 35295, Note_off_c, 0, 72, 64
1, 35454, Note_off_c, 0, 55, 64
1, 35475, Note_on_c, 0, 69, 33
1, 35479, Note_off_c, 0, 71, 64
1, 35501, Note_on_c, 0, 59, 6
1, 35665, Note_on_c, 0, 67, 43
1, 35682, Note_off_c, 0, 69, 64
1, 35860, Note_off_c, 0, 59, 64
1, 35877, Note_on_c, 0, 69, 34
1, 35893, Note_off_c, 0, 67, 64
1, 35897, Note_on_c, 0, 60, 17
1, 36027, Note_off_c, 0, 60, 64
1, 36278, Note_on_c, 0, 71, 35
1, 36286, Note_on_c, 0, 62, 23
1, 36294, Note_off_c, 0, 69, 64
1, 36381, Note_off_c, 0, 62, 64
1, 36470, Note_on_c, 0, 69, 33
1, 36473, Note_off_c, 0, 71, 64
1, 36660, Note_on_c, 0, 67, 29
1, 36660, Note_off_c, 0, 69, 64
1, 36668, Note_on_c, 0, 50, 29
1, 36754, Note_off_c, 0, 50, 64
1, 36843, Note_on_c, 0, 66, 28
1, 36847, Note_off_c, 0, 67, 64
1, 37110, Note_on_c, 0, 67, 27
1, 37128, Note_off_c, 0, 66, 64
1, 37128, Note_on_c, 0, 55, 25
1, 37950, Note_off_c, 0, 55, 64
1, 37971, Note_on_c, 0, 43, 17
1, 38000, Control_c, 0, 64, 127
1, 38046, Note_off_c, 0, 67, 64
1, 38094, Note_off_c, 0, 43, 64
1, 38192, Control_c, 0, 64, 0
1, 38528, Note_on_c, 0, 83, 71
1, 38534, Note_on_c, 0, 55, 32
1, 38732, Control_c, 0, 64, 127
1, 38930, Note_on_c, 0, 79, 72
1, 38968, Note_off_c, 0, 83, 64
1, 38983, Control_c, 0, 64, 0
1, 39120, Note_on_c, 0, 81, 64
1, 39138, Note_off_c, 0, 79, 64
1, 39314, Note_on_c, 0, 83, 86
1, 39328, Note_off_c, 0, 81, 64
1, 39493, Note_on_c, 0, 79, 67
1, 39521, Note_off_c, 0, 83, 64
1, 39710, Note_on_c, 0, 81, 41
1, 39713, Note_on_c, 0, 54, 38
1, 39724, Note_off_c, 0, 79, 64
1, 39724, Note_off_c, 0, 55, 64
1, 40092, Note_on_c, 0, 74, 45
1, 40114, Note_off_c, 0, 81, 64
1, 40284, Note_on_c, 0, 76, 51
1, 40306, Note_off_c, 0, 74, 64
1, 40456, Note_on_c, 0, 78, 58
1, 40493, Note_off_c, 0, 76, 64
1, 40634, Note_on_c, 0, 74, 64
1, 40652, Note_off_c, 0, 78, 64
1, 40827, Note_on_c, 0, 79, 65
1, 40831, Note_off_c, 0, 54, 64
1, 40836, Note_off_c, 0, 74, 64
1, 40836, Note_on_c, 0, 52, 47
1, 40961, Note_off_c, 0, 52, 64
1, 41203, Note_on_c, 0, 76, 51
1, 41212, Note_on_c, 0, 55, 49
1, 41228, Note_off_c, 0, 79, 64
1, 41308, Note_off_c, 0, 55, 64
1, 41384, Note_on_c, 0, 78, 65
1, 41418, Note_off_c, 0, 76, 64
1, 41576, Note_on_c, 0, 52, 64
1, 41579, Note_on_c, 0, 79, 71
1, 41598, Note_off_c, 0, 78, 64
1, 41615, Note_off_c, 0, 52, 64
1, 41757, Note_off_c, 0, 79, 64
1, 41757, Note_on_c, 0, 74, 72
1, 41961, Note_on_c, 0, 73, 55
1, 41961, Note_on_c, 0, 57, 34
1, 41975, Note_off_c, 0, 74, 64
1, 42105, Note_on_c, 0, 74, 64
1, 42109, Note_off_c, 0, 73, 64
1, 42153, Note_off_c, 0, 74, 64
1, 42164, Note_on_c, 0, 73, 55
1, 42245, Note_on_c, 0, 74, 51
1, 42298, Note_off_c, 0, 74, 64
1, 42368, Note_on_c, 0, 71, 59
1, 42379, Note_off_c, 0, 73, 64
1, 42556, Note_on_c, 0, 73, 52
1, 42568, Note_off_c, 0, 71, 64
1, 42777, Note_off_c, 0, 57, 64
1, 42785, Note_off_c, 0, 73, 64
1, 42791, Note_on_c, 0, 69, 30
1, 42802, Note_on_c, 0, 45, 22
1, 42972, Note_off_c, 0, 45, 64
1, 42972, Control_c, 0, 64, 127
1, 43027, Note_off_c, 0, 69, 64
1, 43190, Control_c, 0, 64, 0
1, 43204, Note_on_c, 0, 69, 36
1, 43209, Note_on_c, 0, 57, 26
1, 43409, Note_on_c, 0, 71, 53
1, 43412, Note_off_c, 0, 69, 64
1, 43582, Note_on_c, 0, 73, 62
1, 43588, Note_off_c, 0, 71, 64
1, 43774, Note_on_c, 0, 74, 77
1, 43796, Note_off_c, 0, 73, 64
1, 43958, Note_on_c, 0, 76, 73
1, 43992, Note_off_c, 0, 74, 64
1, 44136, Note_on_c, 0, 78, 74
1, 44172, Note_off_c, 0, 76, 64
1, 44340, Note_on_c, 0, 79, 78
1, 44346, Note_on_c, 0, 59, 40
1, 44364, Note_off_c, 0, 57, 64
1, 44368, Note_off_c, 0, 78, 64
1, 44729, Note_on_c, 0, 78, 67
1, 44738, Note_off_c, 0, 59, 64
1, 44738, Note_on_c, 0, 62, 42
1, 44786, Note_off_c, 0, 79, 64
1, 45111, Note_on_c, 0, 76, 59
1, 45111, Note_off_c, 0, 62, 64
1, 45114, Note_on_c, 0, 61, 41
1, 45153, Note_off_c, 0, 78, 64
1, 45467, Note_off_c, 0, 61, 64
1, 45502, Note_on_c, 0, 78, 39
1, 45513, Note_off_c, 0, 76, 64
1, 45520, Note_on_c, 0, 62, 38
1, 45593, Note_off_c, 0, 62, 64
1, 45640, Note_off_c, 0, 78, 64
1, 45902, Note_on_c, 0, 69, 16
1, 45902, Note_on_c, 0, 54, 38
1, 46023, Note_off_c, 0, 54, 64
1, 46033, Note_off_c, 0, 69, 64
1, 46262, Note_on_c, 0, 73, 29
1, 46265, Note_on_c, 0, 57, 26
1, 46368, Note_off_c, 0, 57, 64
1, 46388, Note_off_c, 0, 73, 64
1, 46666, Note_on_c, 0, 74, 34
1, 46679, Note_on_c, 0, 62, 22
1, 47069, Note_off_c, 0, 62, 64
1, 47090, Note_on_c, 0, 50, 30
1, 47289, Control_c, 0, 64, 127
1, 47537, Note_off_c, 0, 50, 64
1, 47562, Note_on_c, 0, 60, 33
1, 47588, Control_c, 0, 64, 0
1, 47696, Note_off_c, 0, 74, 64
1, 47841, Control_c, 0, 64, 127
1, 47888, Control_c, 0, 64, 0
1, 47980, Note_off_c, 0, 60, 64
1, 47986, Note_on_c, 0, 74, 38
1, 48003, Note_on_c, 0, 59, 25
1, 48362, Note_on_c, 0, 62, 46
1, 48362, Note_on_c, 0, 67, 40
1, 48379, Note_off_c, 0, 74, 64
1, 48558, Note_off_c, 0, 59, 64
1, 48565, Note_on_c, 0, 66, 34
1, 48565, Note_off_c, 0, 67, 64
1, 48735, Note_off_c, 0, 66, 64
1, 48760, Note_on_c, 0, 67, 42
1, 48764, Note_on_c, 0, 59, 36
1, 49125, Note_off_c, 0, 67, 64
1, 49159, Note_on_c, 0, 76, 39
1, 49165, Note_on_c, 0, 60, 36
1, 49179, Note_off_c, 0, 62, 64
1, 49245, Note_off_c, 0, 59, 64
1, 49482, Control_c, 0, 64, 127
1, 49493, Note_off_c, 0, 76, 64
1, 49505, Control_c, 0, 64, 0
1, 49521, Note_on_c, 0, 67, 44
1, 49532, Note_on_c, 0, 64, 49
1, 49711, Note_on_c, 0, 66, 47
1, 49714, Note_off_c, 0, 67, 64
1, 49725, Note_off_c, 0, 60, 64
1, 49794, Control_c, 0, 64, 127
1, 49878, Control_c, 0, 64, 0
1, 49902, Note_on_c, 0, 60, 42
1, 49905, Note_on_c, 0, 67, 56
1, 49919, Note_off_c, 0, 66, 64
1, 50182, Note_off_c, 0, 64, 64
1, 50273, Note_on_c, 0, 74, 66
1, 50276, Note_on_c, 0, 59, 42
1, 50282, Note_off_c, 0, 67, 64
1, 50296, Note_off_c, 0, 60, 64
1, 50646, Note_on_c, 0, 72, 54
1, 50657, Note_off_c, 0, 59, 64
1, 50657, Note_on_c, 0, 57, 25
1, 50713, Note_off_c, 0, 74, 64
1, 51026, Note_on_c, 0, 71, 54
1, 51033, Note_off_c, 0, 57, 64
1, 51045, Note_on_c, 0, 55, 33
1, 51095, Note_off_c, 0, 72, 64
1, 51382, Note_off_c, 0, 55, 64
1, 51421, Note_on_c, 0, 69, 35
1, 51434, Note_off_c, 0, 71, 64
1, 51437, Note_on_c, 0, 62, 28
1, 51611, Note_on_c, 0, 67, 36
1, 51624, Note_off_c, 0, 69, 64
1, 51799, Note_off_c, 0, 67, 64
1, 51802, Note_on_c, 0, 66, 31
1, 52003, Note_on_c, 0, 67, 32
1, 52031, Note_off_c, 0, 66, 64
1, 52184, Note_off_c, 0, 67, 64
1, 52213, Note_on_c, 0, 69, 26
1, 52324, Note_off_c, 0, 62, 64
1, 52346, Control_c, 0, 64, 127
1, 52373, Note_off_c, 0, 69, 64
1, 52525, Control_c, 0, 64, 0
1, 52630, Note_on_c, 0, 50, 33
1, 52635, Note_on_c, 0, 62, 28
1, 52825, Note_on_c, 0, 64, 40
1, 52828, Note_off_c, 0, 62, 64
1, 53011, Note_on_c, 0, 66, 44
1, 53011, Note_off_c, 0, 64, 64
1, 53193, Note_on_c, 0, 67, 55
1, 53237, Note_off_c, 0, 66, 64
1, 53379, Note_on_c, 0, 69, 57
1, 53379, Note_on_c, 0, 54, 52
1, 53419, Note_off_c, 0, 67, 64
1, 53558, Note_on_c, 0, 71, 81
1, 53614, Note_off_c, 0, 69, 64
1, 53759, Note_on_c, 0, 72, 72
1, 53775, Note_on_c, 0, 52, 54
1, 53778, Note_off_c, 0, 54, 64
1, 53789, Note_off_c, 0, 71, 64
1, 53800, Note_off_c, 0, 50, 64
1, 54101, Note_off_c, 0, 52, 64
1, 54145, Note_on_c, 0, 71, 61
1, 54157, Note_on_c, 0, 55, 44
1, 54192, Note_off_c, 0, 72, 64
1, 54259, Note_off_c, 0, 55, 64
1, 54510, Note_on_c, 0, 69, 41
1, 54514, Note_on_c, 0, 54, 34
1, 54547, Note_off_c, 0, 71, 64
1, 54616, Note_off_c, 0, 54, 64
1, 54892, Note_on_c, 0, 71, 51
1, 54909, Note_on_c, 0, 55, 24
1, 54926, Note_off_c, 0, 69, 64
1, 55078, Note_off_c, 0, 71, 64
1, 55081, Note_on_c, 0, 74, 46
1, 55132, Note_off_c, 0, 74, 64
1, 55145, Note_off_c, 0, 55, 64
1, 55266, Note_on_c, 0, 67, 46
1, 55266, Note_on_c, 0, 47, 30
1, 55332, Note_off_c, 0, 47, 64
1, 55379, Note_off_c, 0, 67, 64
1, 55642, Note_on_c, 0, 66, 31
1, 55642, Note_on_c, 0, 50, 22
1, 55748, Note_off_c, 0, 66, 64
1, 55767, Note_off_c, 0, 50, 64
1, 56048, Note_on_c, 0, 67, 27
1, 56062, Note_on_c, 0, 55, 27
1, 56073, Note_on_c, 0, 59, 10
1, 56079, Note_on_c, 0, 62, 16
1, 56204, Note_off_c, 0, 55, 64
1, 56254, Control_c, 0, 64, 127
1, 56374, Control_c, 0, 64, 0
1, 56447, Note_on_c, 0, 50, 30
1, 56596, Note_off_c, 0, 50, 64
1, 56893, Note_on_c, 0, 43, 29
1, 56951, Note_off_c, 0, 59, 64
1, 56984, Control_c, 0, 64, 127
1, 56989, Note_off_c, 0, 43, 64
1, 56993, Note_off_c, 0, 62, 64
1, 57028, Note_off_c, 0, 67, 64
1, 57117, Control_c, 0, 64, 0
1, 57474, Note_on_c, 0, 83, 74
1, 57485, Note_on_c, 0, 55, 28
1, 57865, Note_on_c, 0, 79, 71
1, 57918, Note_off_c, 0, 83, 64
1, 58048, Note_on_c, 0, 81, 63
1, 58070, Note_off_c, 0, 79, 64
1, 58241, Note_on_c, 0, 83, 89
1, 58255, Note_off_c, 0, 81, 64
1, 58425, Note_on_c, 0, 79, 79
1, 58460, Note_off_c, 0, 83, 64
1, 58630, Note_on_c, 0, 54, 47
1, 58638, Note_on_c, 0, 81, 57
1, 58645, Note_off_c, 0, 55, 64
1, 58652, Note_off_c, 0, 79, 64
1, 59009, Note_on_c, 0, 74, 64
1, 59028, Note_off_c, 0, 81, 64
1, 59196, Note_on_c, 0, 76, 61
1, 59229, Note_off_c, 0, 74, 64
1, 59369, Note_on_c, 0, 78, 68
1, 59405, Note_off_c, 0, 76, 64
1, 59553, Note_on_c, 0, 74, 70
1, 59599, Note_off_c, 0, 78, 64
1, 59731, Note_off_c, 0, 54, 64
1, 59756, Note_on_c, 0, 79, 75
1, 59756, Note_on_c, 0, 52, 54
1, 59783, Note_off_c, 0, 74, 64
1, 59892, Note_off_c, 0, 52, 64
1, 60127, Note_on_c, 0, 55, 65
1, 60127, Note_on_c, 0, 76, 50
1, 60169, Note_off_c, 0, 79, 64
1, 60190, Note_off_c, 0, 55, 64
1, 60311, Note_on_c, 0, 78, 65
1, 60358, Note_off_c, 0, 76, 64
1, 60491, Note_on_c, 0, 52, 62
1, 60491, Note_on_c, 0, 79, 69
1, 60505, Note_off_c, 0, 78, 64
1, 60527, Note_off_c, 0, 52, 64
1, 60664, Note_off_c, 0, 79, 64
1, 60672, Note_on_c, 0, 74, 67
1, 60748, Control_c, 0, 64, 127
1, 60772, Note_off_c, 0, 74, 64
1, 60853, Note_on_c, 0, 74, 45
1, 60859, Note_on_c, 0, 57, 32
1, 60892, Control_c, 0, 64, 0
1, 60898, Note_off_c, 0, 74, 64
1, 60928, Note_on_c, 0, 73, 36
1, 60970, Note_on_c, 0, 74, 56
1, 60970, Note_off_c, 0, 73, 64
1, 61012, Note_off_c, 0, 74, 64
1, 61032, Note_on_c, 0, 73, 38
1, 61079, Note_off_c, 0, 73, 64
1, 61079, Note_on_c, 0, 74, 49
1, 61121, Note_off_c, 0, 74, 64
1, 61132, Note_on_c, 0, 73, 51
1, 61194, Note_off_c, 0, 73, 64
1, 61202, Note_on_c, 0, 71, 49
1, 61379, Note_on_c, 0, 73, 43
1, 61388, Note_off_c, 0, 71, 64
1, 61597, Note_off_c, 0, 57, 64
1, 61597, Note_off_c, 0, 73, 64
1, 61597, Note_on_c, 0, 45, 24
1, 61597, Note_on_c, 0, 69, 24
1, 61815, Control_c, 0, 64, 127
1, 61829, Note_off_c, 0, 69, 64
1, 61851, Note_off_c, 0, 45, 64
1, 61970, Control_c, 0, 64, 0
1, 62012, Note_on_c, 0, 69, 37
1, 62012, Note_on_c, 0, 57, 29
1, 62213, Note_on_c, 0, 71, 58
1, 62235, Note_off_c, 0, 69, 64
1, 62385, Note_on_c, 0, 73, 59
1, 62396, Note_off_c, 0, 71, 64
1, 62575, Note_on_c, 0, 74, 69
1, 62591, Note_off_c, 0, 73, 64
1, 62748, Note_on_c, 0, 76, 73
1, 62761, Note_off_c, 0, 74, 64
1, 62918, Note_on_c, 0, 78, 72
1, 62948, Note_off_c, 0, 76, 64
1, 63113, Note_on_c, 0, 79, 70
1, 63132, Note_on_c, 0, 59, 20
1, 63135, Note_off_c, 0, 57, 64
1, 63135, Note_off_c, 0, 78, 64
1, 63495, Note_on_c, 0, 78, 48
1, 63522, Note_on_c, 0, 62, 24
1, 63522, Note_off_c, 0, 59, 64
1, 63547, Note_off_c, 0, 79, 64
1, 63873, Note_off_c, 0, 62, 64
1, 63881, Note_on_c, 0, 76, 41
1, 63885, Note_off_c, 0, 78, 64
1, 63892, Note_on_c, 0, 61, 34
1, 64218, Note_off_c, 0, 61, 64
1, 64261, Note_on_c, 0, 78, 42
1, 64266, Note_off_c, 0, 76, 64
1, 64280, Note_on_c, 0, 62, 22
1, 64411, Note_off_c, 0, 78, 64
1, 64452, Note_off_c, 0, 62, 64
1, 64640, Note_on_c, 0, 69, 32
1, 64640, Note_on_c, 0, 54, 33
1, 64725, Note_off_c, 0, 69, 64
1, 64756, Note_off_c, 0, 54, 64
1, 65016, Note_on_c, 0, 73, 34
1, 65026, Note_on_c, 0, 57, 23
1, 65126, Note_off_c, 0, 57, 64
1, 65129, Note_off_c, 0, 73, 64
1, 65428, Note_on_c, 0, 62, 27
1, 65438, Note_on_c, 0, 74, 41
1, 65817, Note_off_c, 0, 62, 64
1, 65828, Note_on_c, 0, 50, 23
1, 65949, Control_c, 0, 64, 127
1, 65954, Note_off_c, 0, 50, 64
1, 66034, Control_c, 0, 64, 0
1, 66282, Note_on_c, 0, 60, 18
1, 66313, Note_off_c, 0, 74, 64
1, 66405, Control_c, 0, 64, 127
1, 66512, Control_c, 0, 64, 0
1, 66717, Note_on_c, 0, 74, 28
1, 66720, Note_off_c, 0, 60, 64
1, 66729, Note_on_c, 0, 59, 22
1, 67093, Note_off_c, 0, 74, 64
1, 67107, Note_on_c, 0, 67, 29
1, 67112, Note_on_c, 0, 62, 26
1, 67180, Note_off_c, 0, 59, 64
1, 67282, Note_off_c, 0, 67, 64
1, 67291, Note_on_c, 0, 66, 28
1, 67469, Note_off_c, 0, 66, 64
1, 67494, Note_on_c, 0, 67, 32
1, 67520, Note_on_c, 0, 59, 18
1, 67634, Note_off_c, 0, 67, 64
1, 67665, Note_off_c, 0, 62, 64
1, 67859, Note_on_c, 0, 76, 44
1, 67881, Note_on_c, 0, 60, 29
1, 67881, Note_off_c, 0, 59, 64
1, 67987, Note_off_c, 0, 76, 64
1, 67987, Control_c, 0, 64, 127
1, 68141, Note_on_c, 0, 67, 25
1, 68166, Control_c, 0, 64, 0
1, 68175, Note_on_c, 0, 69, 45
1, 68224, Note_off_c, 0, 69, 64
1, 68247, Note_on_c, 0, 64, 27
1, 68347, Note_off_c, 0, 60, 64
1, 68409, Note_off_c, 0, 67, 64
1, 68431, Note_on_c, 0, 66, 20
1, 68612, Note_off_c, 0, 66, 64
1, 68617, Note_off_c, 0, 64, 64
1, 68622, Note_on_c, 0, 67, 38
1, 68629, Note_on_c, 0, 60, 18
1, 68767, Note_off_c, 0, 67, 64
1, 68982, Note_on_c, 0, 74, 66
1, 68982, Note_off_c, 0, 60, 64
1, 68988, Note_on_c, 0, 59, 20
1, 69341, Note_off_c, 0, 59, 64
1, 69349, Note_on_c, 0, 72, 56
1, 69363, Note_on_c, 0, 57, 29
1, 69395, Note_off_c, 0, 74, 64
1, 69704, Note_on_c, 0, 71, 63
1, 69709, Note_off_c, 0, 57, 64
1, 69712, Note_off_c, 0, 72, 64
1, 69721, Note_on_c, 0, 55, 30
1, 70026, Note_off_c, 0, 55, 64
1, 70055, Note_on_c, 0, 69, 39
1, 70065, Note_off_c, 0, 71, 64
1, 70090, Note_on_c, 0, 62, 27
1, 70246, Note_off_c, 0, 69, 64
1, 70252, Note_on_c, 0, 67, 38
1, 70419, Note_off_c, 0, 67, 64
1, 70434, Note_on_c, 0, 66, 26
1, 70636, Note_on_c, 0, 67, 25
1, 70645, Note_off_c, 0, 66, 64
1, 70816, Note_off_c, 0, 67, 64
1, 70826, Note_on_c, 0, 69, 22
1, 70834, Note_off_c, 0, 62, 64
1, 71061, Note_off_c, 0, 69, 64
1, 71228, Note_on_c, 0, 62, 44
1, 71247, Note_on_c, 0, 50, 30
1, 71417, Note_off_c, 0, 62, 64
1, 71420, Note_on_c, 0, 64, 49
1, 71603, Note_on_c, 0, 66, 50
1, 71615, Note_off_c, 0, 64, 64
1, 71781, Note_on_c, 0, 67, 55
1, 71806, Note_off_c, 0, 66, 64
1, 71957, Note_on_c, 0, 69, 59
1, 71971, Note_off_c, 0, 67, 64
1, 71971, Note_on_c, 0, 54, 50
1, 72135, Note_on_c, 0, 71, 76
1, 72163, Note_off_c, 0, 69, 64
1, 72313, Note_off_c, 0, 54, 64
1, 72334, Note_on_c, 0, 52, 46
1, 72337, Note_on_c, 0, 72, 57
1, 72337, Note_off_c, 0, 71, 64
1, 72568, Note_off_c, 0, 72, 64
1, 72614, Note_on_c, 0, 71, 53
1, 72651, Note_on_c, 0, 72, 52
1, 72656, Note_off_c, 0, 71, 64
1, 72699, Note_on_c, 0, 71, 47
1, 72706, Note_off_c, 0, 72, 64
1, 72706, Note_off_c, 0, 52, 64
1, 72706, Note_on_c, 0, 55, 37
1, 73077, Note_off_c, 0, 55, 64
1, 73077, Note_on_c, 0, 69, 30
1, 73080, Note_off_c, 0, 71, 64
1, 73088, Note_on_c, 0, 54, 34
1, 73094, Note_off_c, 0, 50, 64
1, 73430, Note_off_c, 0, 54, 64
1, 73467, Note_on_c, 0, 71, 47
1, 73481, Note_off_c, 0, 69, 64
1, 73486, Note_on_c, 0, 55, 25
1, 73649, Note_off_c, 0, 71, 64
1, 73659, Note_on_c, 0, 74, 34
1, 73734, Note_off_c, 0, 74, 64
1, 73801, Note_off_c, 0, 55, 64
1, 73852, Note_on_c, 0, 67, 36
1, 73858, Note_on_c, 0, 47, 23
1, 73924, Note_off_c, 0, 47, 64
1, 73965, Note_off_c, 0, 67, 64
1, 74258, Note_on_c, 0, 66, 27
1, 74258, Note_on_c, 0, 50, 29
1, 74356, Note_off_c, 0, 50, 64
1, 74401, Note_off_c, 0, 66, 64
1, 74763, Note_on_c, 0, 55, 23
1, 74763, Note_on_c, 0, 59, 16
1, 74763, Note_on_c, 0, 62, 21
1, 74763, Note_on_c, 0, 67, 17
1, 74948, Note_off_c, 0, 55, 64
1, 75267, Note_on_c, 0, 50, 19
1, 75404, Control_c, 0, 64, 127
1, 75425, Note_off_c, 0, 50, 64
1, 75609, Control_c, 0, 64, 0
1, 75968, Control_c, 0, 64, 127
1, 76072, Note_on_c, 0, 43, 14
1, 76771, Control_c, 0, 64, 0
1, 77610, Note_off_c, 0, 59, 64
1, 77644, Note_off_c, 0, 62, 64
1, 77662, Note_off_c, 0, 67, 64
1, 77676, Note_off_c, 0, 43, 64
1, 79373, Control_c, 0, 64, 0
1, 80871, End_track
0, 0, End_of_file
