0, 0, Header, 1, 7, 480
1, 0, Start_track
1, 0, Title_t, "Seq-1"
1, 0, SMPTE_offset, 96, 0, 0, 0, 0
1, 0, Time_signature, 4, 2, 24, 8
1, 0, Tempo, 500000
1, 223780, Tempo, 479331
1, 223800, Tempo, 472441
1, 224580, Tempo, 467967
1, 224600, Tempo, 454545
1, 226160, Tempo, 477312
1, 226180, Tempo, 500000
1, 226180, End_track
2, 0, Start_track
2, 0, Title_t, "Johann Sebastian Bach"
2, 4, Control_c, 0, 7, 127
2, 305, Note_on_c, 0, 60, 43
2, 535, Note_on_c, 0, 64, 46
2, 742, Note_on_c, 0, 67, 48
2, 931, Note_on_c, 0, 72, 54
2, 1075, Note_off_c, 0, 67, 52
2, 1135, Note_off_c, 0, 72, 53
2, 1135, Note_on_c, 0, 76, 57
2, 1342, Note_off_c, 0, 76, 54
2, 1342, Note_on_c, 0, 67, 55
2, 1531, Note_on_c, 0, 72, 54
2, 1675, Note_off_c, 0, 67, 53
2, 1735, Note_off_c, 0, 72, 53
2, 1735, Note_on_c, 0, 76, 48
2, 1740, Note_off_c, 0, 60, 50
2, 1820, Note_off_c, 0, 64, 51
2, 1942, Note_off_c, 0, 76, 52
2, 1962, Note_on_c, 0, 60, 43
2, 2179, Note_on_c, 0, 64, 45
2, 2386, Note_on_c, 0, 67, 48
2, 2592, Note_on_c, 0, 72, 54
2, 2738, Note_off_c, 0, 67, 52
2, 2779, Note_off_c, 0, 72, 53
2, 2782, Note_on_c, 0, 76, 57
2, 2986, Note_on_c, 0, 67, 55
2, 2998, Note_off_c, 0, 76, 54
2, 3194, Note_on_c, 0, 72, 50
2, 3290, Note_off_c, 0, 67, 53
2, 3367, Note_off_c, 0, 72, 52
2, 3379, Note_on_c, 0, 76, 52
2, 3470, Note_off_c, 0, 60, 50
2, 3510, Note_off_c, 0, 64, 51
2, 3573, Note_off_c, 0, 76, 53
2, 3631, Note_on_c, 0, 60, 40
2, 3837, Note_on_c, 0, 62, 45
2, 4027, Note_on_c, 0, 69, 48
2, 4233, Note_on_c, 0, 74, 49
2, 4341, Note_off_c, 0, 69, 52
2, 4440, Note_on_c, 0, 77, 52
2, 4473, Note_off_c, 0, 74, 52
2, 4627, Note_on_c, 0, 69, 55
2, 4664, Note_off_c, 0, 77, 53
2, 4833, Note_on_c, 0, 74, 52
2, 4990, Note_off_c, 0, 69, 53
2, 5037, Note_on_c, 0, 77, 48
2, 5070, Note_off_c, 0, 60, 50
2, 5100, Note_off_c, 0, 62, 51
2, 5117, Note_off_c, 0, 74, 53
2, 5217, Note_on_c, 0, 60, 44
2, 5293, Note_off_c, 0, 77, 52
2, 5424, Note_on_c, 0, 62, 48
2, 5628, Note_on_c, 0, 69, 57
2, 5817, Note_on_c, 0, 74, 45
2, 5924, Note_off_c, 0, 69, 54
2, 6024, Note_on_c, 0, 77, 43
2, 6044, Note_off_c, 0, 74, 51
2, 6164, Note_off_c, 0, 77, 50
2, 6228, Note_on_c, 0, 69, 59
2, 6420, Note_on_c, 0, 74, 55
2, 6493, Note_off_c, 0, 69, 54
2, 6571, Note_off_c, 0, 74, 53
2, 6624, Note_on_c, 0, 77, 50
2, 6650, Note_off_c, 0, 62, 52
2, 6730, Note_off_c, 0, 60, 51
2, 6763, Note_off_c, 0, 77, 52
2, 6828, Note_on_c, 0, 59, 48
2, 7068, Note_on_c, 0, 62, 45
2, 7274, Note_on_c, 0, 67, 43
2, 7481, Note_on_c, 0, 74, 54
2, 7502, Note_off_c, 0, 67, 50
2, 7670, Note_on_c, 0, 77, 56
2, 7706, Note_off_c, 0, 74, 53
2, 7874, Note_on_c, 0, 67, 55
2, 7880, Note_off_c, 0, 77, 54
2, 8081, Note_on_c, 0, 74, 52
2, 8084, Note_off_c, 0, 67, 53
2, 8270, Note_on_c, 0, 77, 48
2, 8280, Note_off_c, 0, 74, 53
2, 8325, Note_off_c, 0, 59, 52
2, 8474, Note_off_c, 0, 62, 51
2, 8477, Note_on_c, 0, 59, 46
2, 8513, Note_off_c, 0, 77, 52
2, 8731, Note_on_c, 0, 62, 48
2, 8921, Note_on_c, 0, 67, 48
2, 9127, Note_on_c, 0, 74, 54
2, 9148, Note_off_c, 0, 67, 52
2, 9331, Note_on_c, 0, 77, 52
2, 9354, Note_off_c, 0, 74, 53
2, 9500, Note_off_c, 0, 77, 53
2, 9521, Note_on_c, 0, 67, 60
2, 9727, Note_on_c, 0, 74, 55
2, 9763, Note_off_c, 0, 67, 55
2, 9893, Note_off_c, 0, 74, 53
2, 9931, Note_on_c, 0, 77, 50
2, 10040, Note_off_c, 0, 59, 51
2, 10100, Note_off_c, 0, 77, 52
2, 10110, Note_off_c, 0, 62, 52
2, 10138, Note_on_c, 0, 60, 53
2, 10377, Note_on_c, 0, 64, 48
2, 10581, Note_on_c, 0, 67, 48
2, 10771, Note_on_c, 0, 72, 54
2, 10776, Note_off_c, 0, 67, 52
2, 10977, Note_on_c, 0, 76, 60
2, 10982, Note_off_c, 0, 72, 53
2, 11184, Note_on_c, 0, 67, 60
2, 11186, Note_off_c, 0, 76, 55
2, 11373, Note_on_c, 0, 72, 54
2, 11377, Note_off_c, 0, 67, 55
2, 11577, Note_on_c, 0, 76, 48
2, 11598, Note_off_c, 0, 72, 53
2, 11627, Note_off_c, 0, 60, 53
2, 11784, Note_off_c, 0, 64, 52
2, 11789, Note_off_c, 0, 76, 52
2, 11814, Note_on_c, 0, 60, 44
2, 12021, Note_on_c, 0, 64, 48
2, 12228, Note_on_c, 0, 67, 50
2, 12434, Note_off_c, 0, 67, 52
2, 12434, Note_on_c, 0, 72, 52
2, 12621, Note_off_c, 0, 72, 53
2, 12621, Note_on_c, 0, 76, 55
2, 12821, Note_off_c, 0, 76, 53
2, 12828, Note_on_c, 0, 67, 48
2, 12998, Note_off_c, 0, 67, 52
2, 13034, Note_on_c, 0, 72, 53
2, 13201, Note_off_c, 0, 72, 53
2, 13220, Note_off_c, 0, 60, 51
2, 13221, Note_on_c, 0, 76, 50
2, 13285, Note_off_c, 0, 64, 52
2, 13428, Note_on_c, 0, 60, 48
2, 13437, Note_off_c, 0, 76, 52
2, 13685, Note_on_c, 0, 64, 45
2, 13872, Note_on_c, 0, 69, 43
2, 14078, Note_on_c, 0, 76, 52
2, 14098, Note_off_c, 0, 69, 50
2, 14285, Note_on_c, 0, 81, 50
2, 14290, Note_off_c, 0, 76, 53
2, 14474, Note_on_c, 0, 69, 58
2, 14501, Note_off_c, 0, 81, 52
2, 14681, Note_on_c, 0, 76, 60
2, 14709, Note_off_c, 0, 69, 54
2, 14792, Note_off_c, 0, 60, 52
2, 14885, Note_on_c, 0, 81, 57
2, 14886, Note_off_c, 0, 76, 55
2, 15074, Note_off_c, 0, 64, 51
2, 15074, Note_on_c, 0, 60, 50
2, 15104, Note_off_c, 0, 81, 54
2, 15329, Note_on_c, 0, 64, 58
2, 15518, Note_on_c, 0, 69, 52
2, 15725, Note_on_c, 0, 76, 55
2, 15931, Note_on_c, 0, 81, 61
2, 15943, Note_off_c, 0, 76, 53
2, 15957, Note_off_c, 0, 69, 53
2, 16065, Note_off_c, 0, 81, 55
2, 16135, Note_on_c, 0, 69, 64
2, 16325, Note_on_c, 0, 76, 60
2, 16510, Note_off_c, 0, 60, 52
2, 16516, Note_off_c, 0, 76, 55
2, 16529, Note_on_c, 0, 81, 56
2, 16540, Note_off_c, 0, 69, 56
2, 16610, Note_off_c, 0, 64, 54
2, 16735, Note_on_c, 0, 60, 48
2, 16742, Note_off_c, 0, 81, 54
2, 16975, Note_on_c, 0, 62, 50
2, 17181, Note_on_c, 0, 66, 55
2, 17371, Note_on_c, 0, 69, 56
2, 17378, Note_off_c, 0, 66, 53
2, 17575, Note_on_c, 0, 74, 54
2, 17588, Note_off_c, 0, 69, 54
2, 17781, Note_on_c, 0, 66, 52
2, 17783, Note_off_c, 0, 74, 53
2, 17971, Note_on_c, 0, 69, 50
2, 17979, Note_off_c, 0, 66, 53
2, 18152, Note_off_c, 0, 60, 52
2, 18175, Note_on_c, 0, 74, 47
2, 18204, Note_off_c, 0, 69, 52
2, 18381, Note_off_c, 0, 62, 52
2, 18381, Note_on_c, 0, 60, 42
2, 18405, Note_off_c, 0, 74, 51
2, 18621, Note_on_c, 0, 62, 50
2, 18825, Note_on_c, 0, 66, 51
2, 19032, Note_off_c, 0, 66, 52
2, 19032, Note_on_c, 0, 69, 46
2, 19219, Note_off_c, 0, 69, 51
2, 19221, Note_on_c, 0, 74, 42
2, 19363, Note_off_c, 0, 74, 50
2, 19425, Note_on_c, 0, 66, 40
2, 19570, Note_off_c, 0, 66, 50
2, 19634, Note_on_c, 0, 69, 45
2, 19776, Note_off_c, 0, 69, 51
2, 19819, Note_on_c, 0, 74, 48
2, 19930, Note_off_c, 0, 60, 50
2, 19963, Note_off_c, 0, 74, 52
2, 20030, Note_off_c, 0, 62, 52
2, 20045, Note_on_c, 0, 59, 47
2, 20282, Note_on_c, 0, 62, 49
2, 20472, Note_on_c, 0, 67, 52
2, 20676, Note_off_c, 0, 67, 53
2, 20678, Note_on_c, 0, 74, 55
2, 20882, Note_off_c, 0, 74, 53
2, 20885, Note_on_c, 0, 79, 54
2, 21072, Note_off_c, 0, 79, 53
2, 21072, Note_on_c, 0, 67, 48
2, 21276, Note_off_c, 0, 67, 52
2, 21278, Note_on_c, 0, 74, 49
2, 21452, Note_off_c, 0, 59, 51
2, 21482, Note_off_c, 0, 74, 52
2, 21482, Note_on_c, 0, 79, 50
2, 21672, Note_off_c, 0, 62, 52
2, 21672, Note_off_c, 0, 79, 52
2, 21694, Note_on_c, 0, 59, 50
2, 21929, Note_on_c, 0, 62, 51
2, 22133, Note_on_c, 0, 67, 48
2, 22322, Note_off_c, 0, 67, 52
2, 22322, Note_on_c, 0, 74, 45
2, 22529, Note_off_c, 0, 74, 51
2, 22529, Note_on_c, 0, 79, 42
2, 22657, Note_off_c, 0, 79, 50
2, 22733, Note_on_c, 0, 67, 45
2, 22861, Note_off_c, 0, 67, 51
2, 22925, Note_on_c, 0, 74, 48
2, 23039, Note_off_c, 0, 74, 52
2, 23082, Note_off_c, 0, 59, 52
2, 23129, Note_on_c, 0, 79, 50
2, 23205, Note_off_c, 0, 62, 52
2, 23236, Note_off_c, 0, 79, 52
2, 23333, Note_on_c, 0, 59, 39
2, 23573, Note_on_c, 0, 60, 44
2, 23779, Note_on_c, 0, 64, 48
2, 23985, Note_on_c, 0, 67, 45
2, 24018, Note_off_c, 0, 64, 52
2, 24175, Note_on_c, 0, 72, 50
2, 24186, Note_off_c, 0, 67, 51
2, 24379, Note_on_c, 0, 64, 53
2, 24388, Note_off_c, 0, 72, 52
2, 24584, Note_off_c, 0, 64, 53
2, 24588, Note_on_c, 0, 67, 56
2, 24762, Note_off_c, 0, 59, 64
2, 24774, Note_off_c, 0, 67, 54
2, 24775, Note_on_c, 0, 72, 52
2, 24979, Note_off_c, 0, 60, 51
2, 24981, Note_on_c, 0, 59, 38
2, 24990, Note_off_c, 0, 72, 53
2, 25236, Note_on_c, 0, 60, 46
2, 25425, Note_on_c, 0, 64, 54
2, 25632, Note_on_c, 0, 67, 56
2, 25665, Note_off_c, 0, 64, 53
2, 25836, Note_on_c, 0, 72, 52
2, 25848, Note_off_c, 0, 67, 54
2, 25979, Note_off_c, 0, 72, 53
2, 26025, Note_on_c, 0, 64, 50
2, 26170, Note_off_c, 0, 64, 52
2, 26232, Note_on_c, 0, 67, 45
2, 26358, Note_off_c, 0, 67, 51
2, 26436, Note_on_c, 0, 72, 43
2, 26590, Note_off_c, 0, 59, 64
2, 26595, Note_off_c, 0, 72, 50
2, 26623, Note_off_c, 0, 60, 51
2, 26655, Note_on_c, 0, 57, 50
2, 26882, Note_on_c, 0, 60, 53
2, 27086, Note_on_c, 0, 64, 54
2, 27276, Note_on_c, 0, 67, 58
2, 27312, Note_off_c, 0, 64, 53
2, 27482, Note_on_c, 0, 72, 53
2, 27491, Note_off_c, 0, 67, 54
2, 27689, Note_on_c, 0, 64, 50
2, 27705, Note_off_c, 0, 72, 53
2, 27878, Note_on_c, 0, 67, 54
2, 27896, Note_off_c, 0, 64, 52
2, 28082, Note_on_c, 0, 72, 48
2, 28083, Note_off_c, 0, 67, 53
2, 28130, Note_off_c, 0, 57, 52
2, 28289, Note_off_c, 0, 60, 53
2, 28289, Note_on_c, 0, 57, 49
2, 28306, Note_off_c, 0, 72, 52
2, 28476, Note_on_c, 0, 60, 58
2, 28680, Note_on_c, 0, 64, 54
2, 28886, Note_on_c, 0, 67, 57
2, 28917, Note_off_c, 0, 64, 53
2, 29076, Note_on_c, 0, 72, 60
2, 29086, Note_off_c, 0, 67, 54
2, 29194, Note_off_c, 0, 72, 55
2, 29280, Note_on_c, 0, 64, 55
2, 29405, Note_off_c, 0, 64, 53
2, 29486, Note_on_c, 0, 67, 50
2, 29607, Note_off_c, 0, 67, 52
2, 29676, Note_on_c, 0, 72, 51
2, 29784, Note_off_c, 0, 72, 52
2, 29880, Note_off_c, 0, 60, 54
2, 29882, Note_on_c, 0, 50, 60
2, 29890, Note_off_c, 0, 57, 52
2, 30137, Note_on_c, 0, 57, 55
2, 30326, Note_on_c, 0, 62, 48
2, 30533, Note_on_c, 0, 66, 46
2, 30539, Note_off_c, 0, 62, 52
2, 30739, Note_on_c, 0, 72, 50
2, 30756, Note_off_c, 0, 66, 51
2, 30926, Note_on_c, 0, 62, 54
2, 30948, Note_off_c, 0, 72, 52
2, 31133, Note_on_c, 0, 66, 50
2, 31148, Note_off_c, 0, 62, 53
2, 31339, Note_on_c, 0, 72, 45
2, 31366, Note_off_c, 0, 66, 52
2, 31396, Note_off_c, 0, 50, 55
2, 31526, Note_off_c, 0, 57, 53
2, 31529, Note_on_c, 0, 50, 50
2, 31558, Note_off_c, 0, 72, 51
2, 31783, Note_on_c, 0, 57, 46
2, 31989, Note_on_c, 0, 62, 44
2, 32176, Note_off_c, 0, 62, 51
2, 32179, Note_on_c, 0, 66, 42
2, 32383, Note_on_c, 0, 72, 40
2, 32423, Note_off_c, 0, 66, 50
2, 32515, Note_off_c, 0, 72, 50
2, 32589, Note_on_c, 0, 62, 50
2, 32696, Note_off_c, 0, 62, 52
2, 32779, Note_on_c, 0, 66, 45
2, 32893, Note_off_c, 0, 66, 51
2, 32983, Note_on_c, 0, 72, 41
2, 33040, Note_off_c, 0, 50, 52
2, 33114, Note_off_c, 0, 72, 50
2, 33189, Note_off_c, 0, 57, 51
2, 33189, Note_on_c, 0, 55, 39
2, 33429, Note_on_c, 0, 59, 36
2, 33633, Note_on_c, 0, 62, 42
2, 33840, Note_on_c, 0, 67, 38
2, 33859, Note_off_c, 0, 62, 50
2, 34029, Note_on_c, 0, 71, 36
2, 34046, Note_off_c, 0, 67, 64
2, 34236, Note_on_c, 0, 62, 40
2, 34239, Note_off_c, 0, 71, 64
2, 34328, Note_off_c, 0, 55, 64
2, 34442, Note_on_c, 0, 67, 36
2, 34455, Note_off_c, 0, 62, 50
2, 34629, Note_on_c, 0, 71, 33
2, 34659, Note_off_c, 0, 67, 64
2, 34833, Note_off_c, 0, 59, 64
2, 34836, Note_on_c, 0, 55, 33
2, 34842, Note_off_c, 0, 71, 48
2, 35090, Note_on_c, 0, 59, 36
2, 35280, Note_on_c, 0, 62, 42
2, 35485, Note_off_c, 0, 62, 50
2, 35486, Note_on_c, 0, 67, 40
2, 35693, Note_on_c, 0, 71, 37
2, 35698, Note_off_c, 0, 67, 50
2, 35806, Note_off_c, 0, 71, 64
2, 35880, Note_on_c, 0, 62, 48
2, 35999, Note_off_c, 0, 62, 52
2, 36086, Note_on_c, 0, 67, 44
2, 36148, Note_off_c, 0, 55, 48
2, 36234, Note_off_c, 0, 67, 51
2, 36290, Note_on_c, 0, 71, 39
2, 36415, Note_off_c, 0, 71, 64
2, 36480, Note_off_c, 0, 59, 64
2, 36480, Note_on_c, 0, 55, 36
2, 36737, Note_on_c, 0, 58, 34
2, 36941, Note_on_c, 0, 64, 32
2, 37130, Note_on_c, 0, 67, 39
2, 37143, Note_off_c, 0, 64, 48
2, 37337, Note_on_c, 0, 73, 36
2, 37378, Note_off_c, 0, 67, 64
2, 37543, Note_on_c, 0, 64, 34
2, 37550, Note_off_c, 0, 73, 64
2, 37731, Note_off_c, 0, 64, 48
2, 37733, Note_on_c, 0, 67, 32
2, 37775, Note_off_c, 0, 55, 64
2, 37937, Note_on_c, 0, 73, 30
2, 37957, Note_off_c, 0, 67, 48
2, 38143, Note_off_c, 0, 58, 48
2, 38143, Note_on_c, 0, 55, 39
2, 38145, Note_off_c, 0, 73, 47
2, 38381, Note_on_c, 0, 58, 36
2, 38587, Note_on_c, 0, 64, 33
2, 38793, Note_on_c, 0, 67, 48
2, 38828, Note_off_c, 0, 64, 48
2, 38983, Note_on_c, 0, 73, 45
2, 38990, Note_off_c, 0, 67, 52
2, 39126, Note_off_c, 0, 73, 51
2, 39187, Note_on_c, 0, 64, 42
2, 39344, Note_off_c, 0, 64, 50
2, 39393, Note_on_c, 0, 67, 40
2, 39518, Note_off_c, 0, 67, 50
2, 39581, Note_on_c, 0, 73, 38
2, 39700, Note_off_c, 0, 55, 64
2, 39715, Note_off_c, 0, 73, 64
2, 39787, Note_off_c, 0, 58, 64
2, 39787, Note_on_c, 0, 53, 40
2, 40027, Note_on_c, 0, 57, 36
2, 40233, Note_on_c, 0, 62, 34
2, 40440, Note_on_c, 0, 69, 45
2, 40443, Note_off_c, 0, 62, 48
2, 40627, Note_on_c, 0, 74, 43
2, 40630, Note_off_c, 0, 69, 51
2, 40833, Note_on_c, 0, 62, 40
2, 40848, Note_off_c, 0, 74, 50
2, 41040, Note_on_c, 0, 69, 38
2, 41057, Note_off_c, 0, 62, 50
2, 41227, Note_on_c, 0, 74, 35
2, 41250, Note_off_c, 0, 53, 50
2, 41261, Note_off_c, 0, 69, 64
2, 41433, Note_off_c, 0, 57, 64
2, 41433, Note_on_c, 0, 53, 40
2, 41453, Note_off_c, 0, 74, 48
2, 41690, Note_on_c, 0, 57, 37
2, 41877, Note_on_c, 0, 62, 40
2, 42084, Note_on_c, 0, 69, 37
2, 42108, Note_off_c, 0, 62, 50
2, 42290, Note_on_c, 0, 74, 35
2, 42332, Note_off_c, 0, 69, 64
2, 42423, Note_off_c, 0, 74, 48
2, 42477, Note_on_c, 0, 62, 40
2, 42632, Note_off_c, 0, 62, 50
2, 42684, Note_on_c, 0, 69, 36
2, 42841, Note_off_c, 0, 69, 64
2, 42888, Note_on_c, 0, 74, 32
2, 42894, Note_off_c, 0, 53, 50
2, 43021, Note_off_c, 0, 74, 48
2, 43077, Note_off_c, 0, 57, 64
2, 43077, Note_on_c, 0, 53, 35
2, 43334, Note_on_c, 0, 56, 44
2, 43541, Note_on_c, 0, 62, 50
2, 43730, Note_on_c, 0, 65, 54
2, 43739, Note_off_c, 0, 62, 52
2, 43934, Note_on_c, 0, 71, 59
2, 43970, Note_off_c, 0, 65, 53
2, 44141, Note_on_c, 0, 62, 48
2, 44159, Note_off_c, 0, 71, 54
2, 44328, Note_off_c, 0, 62, 52
2, 44330, Note_on_c, 0, 65, 51
2, 44534, Note_on_c, 0, 71, 53
2, 44540, Note_off_c, 0, 53, 48
2, 44573, Note_off_c, 0, 65, 52
2, 44741, Note_off_c, 0, 56, 51
2, 44741, Note_on_c, 0, 53, 40
2, 44761, Note_off_c, 0, 71, 53
2, 44981, Note_on_c, 0, 56, 45
2, 45185, Note_on_c, 0, 62, 50
2, 45391, Note_on_c, 0, 65, 54
2, 45406, Note_off_c, 0, 62, 52
2, 45581, Note_on_c, 0, 71, 43
2, 45619, Note_off_c, 0, 65, 53
2, 45732, Note_off_c, 0, 71, 50
2, 45785, Note_on_c, 0, 62, 40
2, 45924, Note_off_c, 0, 62, 50
2, 45991, Note_on_c, 0, 65, 36
2, 46131, Note_off_c, 0, 65, 64
2, 46181, Note_on_c, 0, 71, 38
2, 46320, Note_off_c, 0, 53, 50
2, 46330, Note_off_c, 0, 71, 64
2, 46385, Note_off_c, 0, 56, 51
2, 46407, Note_on_c, 0, 52, 48
2, 46641, Note_on_c, 0, 55, 52
2, 46831, Note_on_c, 0, 60, 47
2, 47037, Note_on_c, 0, 67, 50
2, 47073, Note_off_c, 0, 60, 51
2, 47239, Note_off_c, 0, 67, 52
2, 47244, Note_on_c, 0, 72, 42
2, 47431, Note_on_c, 0, 60, 55
2, 47445, Note_off_c, 0, 72, 50
2, 47637, Note_on_c, 0, 67, 58
2, 47661, Note_off_c, 0, 60, 53
2, 47844, Note_on_c, 0, 72, 53
2, 47858, Note_off_c, 0, 67, 54
2, 47890, Note_off_c, 0, 52, 52
2, 48031, Note_off_c, 0, 55, 53
2, 48033, Note_on_c, 0, 52, 50
2, 48037, Note_off_c, 0, 72, 53
2, 48288, Note_on_c, 0, 55, 56
2, 48494, Note_on_c, 0, 60, 48
2, 48684, Note_on_c, 0, 67, 51
2, 48685, Note_off_c, 0, 60, 52
2, 48888, Note_on_c, 0, 72, 53
2, 48924, Note_off_c, 0, 67, 52
2, 49025, Note_off_c, 0, 72, 53
2, 49094, Note_on_c, 0, 60, 50
2, 49250, Note_off_c, 0, 60, 52
2, 49284, Note_on_c, 0, 67, 53
2, 49429, Note_off_c, 0, 67, 53
2, 49488, Note_on_c, 0, 72, 56
2, 49515, Note_off_c, 0, 52, 52
2, 49674, Note_off_c, 0, 72, 54
2, 49694, Note_off_c, 0, 55, 54
2, 49694, Note_on_c, 0, 52, 50
2, 49934, Note_on_c, 0, 53, 53
2, 50138, Note_on_c, 0, 57, 48
2, 50345, Note_on_c, 0, 60, 48
2, 50379, Note_off_c, 0, 57, 52
2, 50534, Note_on_c, 0, 65, 54
2, 50548, Note_off_c, 0, 60, 52
2, 50741, Note_on_c, 0, 57, 46
2, 50758, Note_off_c, 0, 65, 53
2, 50947, Note_on_c, 0, 60, 50
2, 50981, Note_off_c, 0, 57, 51
2, 51132, Note_off_c, 0, 60, 52
2, 51134, Note_on_c, 0, 65, 46
2, 51135, Note_off_c, 0, 52, 52
2, 51341, Note_off_c, 0, 53, 53
2, 51341, Note_on_c, 0, 52, 50
2, 51369, Note_off_c, 0, 65, 51
2, 51595, Note_on_c, 0, 53, 48
2, 51785, Note_on_c, 0, 57, 45
2, 51991, Note_on_c, 0, 60, 42
2, 52000, Note_off_c, 0, 57, 51
2, 52197, Note_on_c, 0, 65, 54
2, 52236, Note_off_c, 0, 60, 50
2, 52305, Note_off_c, 0, 65, 53
2, 52385, Note_on_c, 0, 57, 57
2, 52527, Note_off_c, 0, 57, 54
2, 52591, Note_on_c, 0, 60, 55
2, 52708, Note_off_c, 0, 60, 53
2, 52795, Note_on_c, 0, 65, 52
2, 52800, Note_off_c, 0, 52, 52
2, 52915, Note_off_c, 0, 65, 53
2, 52985, Note_off_c, 0, 53, 52
2, 52985, Note_on_c, 0, 50, 43
2, 53241, Note_on_c, 0, 53, 45
2, 53445, Note_on_c, 0, 57, 48
2, 53635, Note_on_c, 0, 60, 40
2, 53662, Note_off_c, 0, 57, 52
2, 53841, Note_on_c, 0, 65, 45
2, 53874, Note_off_c, 0, 60, 50
2, 54048, Note_on_c, 0, 57, 50
2, 54054, Note_off_c, 0, 65, 51
2, 54237, Note_on_c, 0, 60, 54
2, 54249, Note_off_c, 0, 57, 52
2, 54441, Note_on_c, 0, 65, 48
2, 54450, Note_off_c, 0, 50, 50
2, 54471, Note_off_c, 0, 60, 53
2, 54647, Note_off_c, 0, 65, 52
2, 54648, Note_off_c, 0, 53, 51
2, 54648, Note_on_c, 0, 50, 40
2, 54885, Note_on_c, 0, 53, 43
2, 55092, Note_on_c, 0, 57, 46
2, 55298, Note_on_c, 0, 60, 50
2, 55314, Note_off_c, 0, 57, 51
2, 55488, Note_on_c, 0, 65, 48
2, 55522, Note_off_c, 0, 60, 52
2, 55659, Note_off_c, 0, 65, 52
2, 55692, Note_on_c, 0, 57, 45
2, 55829, Note_off_c, 0, 57, 51
2, 55898, Note_on_c, 0, 60, 42
2, 56012, Note_off_c, 0, 60, 50
2, 56085, Note_on_c, 0, 65, 40
2, 56180, Note_off_c, 0, 50, 50
2, 56227, Note_off_c, 0, 65, 50
2, 56292, Note_off_c, 0, 53, 50
2, 56292, Note_on_c, 0, 43, 43
2, 56532, Note_on_c, 0, 50, 48
2, 56738, Note_on_c, 0, 55, 52
2, 56945, Note_on_c, 0, 59, 51
2, 56970, Note_off_c, 0, 55, 53
2, 57149, Note_on_c, 0, 65, 48
2, 57176, Note_off_c, 0, 59, 52
2, 57338, Note_on_c, 0, 55, 45
2, 57356, Note_off_c, 0, 65, 52
2, 57545, Note_on_c, 0, 59, 43
2, 57575, Note_off_c, 0, 55, 51
2, 57705, Note_off_c, 0, 43, 50
2, 57749, Note_on_c, 0, 65, 40
2, 57777, Note_off_c, 0, 59, 50
2, 57938, Note_off_c, 0, 50, 52
2, 57938, Note_on_c, 0, 43, 48
2, 57948, Note_off_c, 0, 65, 50
2, 58195, Note_on_c, 0, 50, 45
2, 58382, Note_on_c, 0, 55, 43
2, 58589, Note_on_c, 0, 59, 46
2, 58603, Note_off_c, 0, 55, 50
2, 58795, Note_on_c, 0, 65, 48
2, 58824, Note_off_c, 0, 59, 51
2, 58911, Note_off_c, 0, 65, 52
2, 58982, Note_on_c, 0, 55, 55
2, 59089, Note_off_c, 0, 55, 53
2, 59189, Note_on_c, 0, 59, 58
2, 59307, Note_off_c, 0, 59, 54
2, 59395, Note_on_c, 0, 65, 53
2, 59490, Note_off_c, 0, 43, 52
2, 59513, Note_off_c, 0, 65, 53
2, 59599, Note_off_c, 0, 50, 51
2, 59601, Note_on_c, 0, 48, 33
2, 59839, Note_on_c, 0, 52, 36
2, 60045, Note_on_c, 0, 55, 44
2, 60235, Note_on_c, 0, 60, 48
2, 60271, Note_off_c, 0, 55, 51
2, 60439, Note_on_c, 0, 64, 50
2, 60448, Note_off_c, 0, 60, 52
2, 60645, Note_on_c, 0, 55, 45
2, 60665, Note_off_c, 0, 64, 52
2, 60835, Note_on_c, 0, 60, 42
2, 60858, Note_off_c, 0, 55, 51
2, 60945, Note_off_c, 0, 48, 48
2, 61039, Note_on_c, 0, 64, 40
2, 61071, Note_off_c, 0, 60, 50
2, 61245, Note_off_c, 0, 52, 64
2, 61248, Note_on_c, 0, 48, 43
2, 61274, Note_off_c, 0, 64, 50
2, 61485, Note_on_c, 0, 52, 47
2, 61689, Note_on_c, 0, 55, 50
2, 61898, Note_on_c, 0, 60, 53
2, 61900, Note_off_c, 0, 55, 52
2, 62085, Note_on_c, 0, 64, 55
2, 62108, Note_off_c, 0, 60, 53
2, 62292, Note_on_c, 0, 55, 52
2, 62302, Note_off_c, 0, 64, 53
2, 62498, Note_on_c, 0, 60, 50
2, 62505, Note_off_c, 0, 55, 53
2, 62639, Note_off_c, 0, 48, 50
2, 62685, Note_on_c, 0, 64, 46
2, 62711, Note_off_c, 0, 60, 52
2, 62888, Note_off_c, 0, 64, 51
2, 62892, Note_off_c, 0, 52, 51
2, 62892, Note_on_c, 0, 48, 40
2, 63146, Note_on_c, 0, 55, 47
2, 63336, Note_on_c, 0, 58, 50
2, 63542, Note_on_c, 0, 60, 48
2, 63551, Note_off_c, 0, 58, 52
2, 63749, Note_on_c, 0, 64, 51
2, 63764, Note_off_c, 0, 60, 52
2, 63936, Note_on_c, 0, 58, 54
2, 63966, Note_off_c, 0, 64, 52
2, 64142, Note_on_c, 0, 60, 56
2, 64152, Note_off_c, 0, 58, 53
2, 64299, Note_off_c, 0, 48, 50
2, 64349, Note_on_c, 0, 64, 59
2, 64373, Note_off_c, 0, 60, 54
2, 64536, Note_off_c, 0, 55, 51
2, 64538, Note_on_c, 0, 48, 47
2, 64570, Note_off_c, 0, 64, 54
2, 64793, Note_on_c, 0, 55, 47
2, 64999, Note_on_c, 0, 58, 48
2, 65189, Note_on_c, 0, 60, 50
2, 65230, Note_off_c, 0, 58, 52
2, 65393, Note_on_c, 0, 64, 52
2, 65434, Note_off_c, 0, 60, 52
2, 65599, Note_on_c, 0, 58, 53
2, 65632, Note_off_c, 0, 64, 53
2, 65789, Note_on_c, 0, 60, 48
2, 65805, Note_off_c, 0, 58, 53
2, 65993, Note_on_c, 0, 64, 45
2, 66017, Note_off_c, 0, 60, 52
2, 66060, Note_off_c, 0, 48, 51
2, 66199, Note_off_c, 0, 55, 51
2, 66199, Note_on_c, 0, 41, 40
2, 66234, Note_off_c, 0, 64, 51
2, 66439, Note_on_c, 0, 53, 47
2, 66643, Note_on_c, 0, 57, 59
2, 66849, Note_on_c, 0, 60, 56
2, 66899, Note_off_c, 0, 57, 54
2, 67039, Note_on_c, 0, 64, 53
2, 67093, Note_off_c, 0, 60, 54
2, 67245, Note_on_c, 0, 57, 50
2, 67283, Note_off_c, 0, 64, 53
2, 67452, Note_on_c, 0, 60, 48
2, 67481, Note_off_c, 0, 57, 52
2, 67639, Note_on_c, 0, 64, 45
2, 67645, Note_off_c, 0, 41, 50
2, 67652, Note_off_c, 0, 60, 52
2, 67843, Note_off_c, 0, 53, 51
2, 67845, Note_on_c, 0, 41, 35
2, 67865, Note_off_c, 0, 64, 51
2, 68100, Note_on_c, 0, 53, 40
2, 68289, Note_on_c, 0, 57, 59
2, 68496, Note_on_c, 0, 60, 56
2, 68558, Note_off_c, 0, 57, 54
2, 68702, Note_on_c, 0, 64, 54
2, 68747, Note_off_c, 0, 60, 54
2, 68889, Note_on_c, 0, 57, 52
2, 68907, Note_off_c, 0, 64, 53
2, 69096, Note_on_c, 0, 60, 56
2, 69166, Note_off_c, 0, 57, 53
2, 69302, Note_on_c, 0, 64, 50
2, 69332, Note_off_c, 0, 60, 54
2, 69400, Note_off_c, 0, 41, 48
2, 69489, Note_off_c, 0, 53, 50
2, 69492, Note_on_c, 0, 42, 38
2, 69528, Note_off_c, 0, 64, 52
2, 69746, Note_on_c, 0, 48, 42
2, 69953, Note_on_c, 0, 57, 54
2, 70140, Note_on_c, 0, 60, 59
2, 70171, Note_off_c, 0, 57, 53
2, 70346, Note_on_c, 0, 63, 53
2, 70359, Note_off_c, 0, 60, 54
2, 70553, Note_on_c, 0, 57, 50
2, 70589, Note_off_c, 0, 63, 53
2, 70742, Note_on_c, 0, 60, 47
2, 70754, Note_off_c, 0, 57, 52
2, 70905, Note_off_c, 0, 42, 64
2, 70946, Note_on_c, 0, 63, 43
2, 70971, Note_off_c, 0, 60, 51
2, 71152, Note_off_c, 0, 63, 50
2, 71153, Note_off_c, 0, 48, 50
2, 71153, Note_on_c, 0, 42, 40
2, 71390, Note_on_c, 0, 48, 47
2, 71597, Note_on_c, 0, 57, 42
2, 71803, Note_on_c, 0, 60, 45
2, 71880, Note_off_c, 0, 57, 50
2, 71993, Note_on_c, 0, 63, 48
2, 72057, Note_off_c, 0, 60, 51
2, 72197, Note_on_c, 0, 57, 52
2, 72205, Note_off_c, 0, 63, 52
2, 72403, Note_on_c, 0, 60, 55
2, 72426, Note_off_c, 0, 57, 53
2, 72593, Note_on_c, 0, 63, 59
2, 72597, Note_off_c, 0, 60, 53
2, 72723, Note_off_c, 0, 42, 50
2, 72797, Note_off_c, 0, 48, 51
2, 72799, Note_on_c, 0, 43, 40
2, 72829, Note_off_c, 0, 63, 54
2, 73003, Note_on_c, 0, 51, 48
2, 73190, Note_on_c, 0, 59, 56
2, 73397, Note_on_c, 0, 60, 52
2, 73429, Note_off_c, 0, 59, 54
2, 73603, Note_on_c, 0, 63, 50
2, 73668, Note_off_c, 0, 60, 53
2, 73793, Note_on_c, 0, 59, 48
2, 73877, Note_off_c, 0, 63, 52
2, 73999, Note_on_c, 0, 60, 50
2, 74069, Note_off_c, 0, 59, 52
2, 74203, Note_on_c, 0, 63, 48
2, 74230, Note_off_c, 0, 43, 50
2, 74275, Note_off_c, 0, 60, 52
2, 74390, Note_off_c, 0, 51, 52
2, 74393, Note_on_c, 0, 43, 42
2, 74446, Note_off_c, 0, 63, 52
2, 74597, Note_on_c, 0, 51, 45
2, 74801, Note_on_c, 0, 59, 40
2, 74990, Note_on_c, 0, 60, 43
2, 75048, Note_off_c, 0, 59, 50
2, 75197, Note_on_c, 0, 63, 45
2, 75275, Note_off_c, 0, 60, 50
2, 75319, Note_off_c, 0, 63, 51
2, 75401, Note_on_c, 0, 59, 48
2, 75528, Note_off_c, 0, 59, 52
2, 75590, Note_on_c, 0, 60, 45
2, 75713, Note_off_c, 0, 60, 51
2, 75797, Note_on_c, 0, 63, 40
2, 75823, Note_off_c, 0, 43, 50
2, 75915, Note_off_c, 0, 63, 50
2, 76001, Note_off_c, 0, 51, 51
2, 76003, Note_on_c, 0, 44, 40
2, 76190, Note_on_c, 0, 53, 45
2, 76397, Note_on_c, 0, 59, 38
2, 76603, Note_on_c, 0, 60, 41
2, 76630, Note_off_c, 0, 59, 64
2, 76790, Note_on_c, 0, 62, 43
2, 76804, Note_off_c, 0, 60, 50
2, 76997, Note_on_c, 0, 59, 45
2, 77048, Note_off_c, 0, 62, 50
2, 77203, Note_on_c, 0, 60, 42
2, 77234, Note_off_c, 0, 59, 51
2, 77390, Note_on_c, 0, 62, 40
2, 77436, Note_off_c, 0, 44, 50
2, 77445, Note_off_c, 0, 60, 50
2, 77597, Note_off_c, 0, 53, 51
2, 77597, Note_on_c, 0, 44, 40
2, 77605, Note_off_c, 0, 62, 50
2, 77801, Note_on_c, 0, 53, 43
2, 77990, Note_on_c, 0, 59, 49
2, 78197, Note_on_c, 0, 60, 46
2, 78236, Note_off_c, 0, 59, 52
2, 78403, Note_on_c, 0, 62, 45
2, 78428, Note_off_c, 0, 60, 51
2, 78537, Note_off_c, 0, 62, 51
2, 78590, Note_on_c, 0, 59, 42
2, 78712, Note_off_c, 0, 59, 50
2, 78797, Note_on_c, 0, 60, 40
2, 78905, Note_off_c, 0, 60, 50
2, 79001, Note_on_c, 0, 62, 38
2, 79080, Note_off_c, 0, 44, 50
2, 79122, Note_off_c, 0, 62, 64
2, 79190, Note_off_c, 0, 53, 50
2, 79190, Note_on_c, 0, 43, 45
2, 79447, Note_on_c, 0, 53, 48
2, 79651, Note_on_c, 0, 55, 49
2, 79841, Note_on_c, 0, 59, 45
2, 79896, Note_off_c, 0, 55, 52
2, 80047, Note_on_c, 0, 62, 43
2, 80084, Note_off_c, 0, 59, 51
2, 80253, Note_on_c, 0, 55, 40
2, 80282, Note_off_c, 0, 62, 50
2, 80398, Note_off_c, 0, 43, 51
2, 80443, Note_on_c, 0, 59, 38
2, 80490, Note_off_c, 0, 55, 50
2, 80647, Note_on_c, 0, 62, 36
2, 80684, Note_off_c, 0, 59, 64
2, 80853, Note_off_c, 0, 53, 52
2, 80853, Note_on_c, 0, 43, 40
2, 80905, Note_off_c, 0, 62, 64
2, 81091, Note_on_c, 0, 53, 45
2, 81297, Note_on_c, 0, 55, 49
2, 81504, Note_on_c, 0, 59, 45
2, 81555, Note_off_c, 0, 55, 52
2, 81693, Note_on_c, 0, 62, 43
2, 81741, Note_off_c, 0, 59, 51
2, 81809, Note_off_c, 0, 62, 50
2, 81897, Note_on_c, 0, 55, 40
2, 82018, Note_off_c, 0, 55, 50
2, 82104, Note_on_c, 0, 59, 36
2, 82219, Note_off_c, 0, 43, 50
2, 82219, Note_off_c, 0, 59, 64
2, 82291, Note_on_c, 0, 62, 38
2, 82404, Note_off_c, 0, 62, 64
2, 82497, Note_off_c, 0, 53, 51
2, 82497, Note_on_c, 0, 43, 40
2, 82754, Note_on_c, 0, 52, 43
2, 82944, Note_on_c, 0, 55, 49
2, 83150, Note_on_c, 0, 60, 45
2, 83163, Note_off_c, 0, 55, 52
2, 83354, Note_on_c, 0, 64, 43
2, 83413, Note_off_c, 0, 60, 51
2, 83544, Note_on_c, 0, 55, 40
2, 83577, Note_off_c, 0, 64, 50
2, 83750, Note_on_c, 0, 60, 42
2, 83789, Note_off_c, 0, 55, 50
2, 83822, Note_off_c, 0, 43, 50
2, 83954, Note_on_c, 0, 64, 38
2, 83975, Note_off_c, 0, 60, 50
2, 84144, Note_off_c, 0, 52, 50
2, 84144, Note_on_c, 0, 43, 42
2, 84168, Note_off_c, 0, 64, 64
2, 84401, Note_on_c, 0, 52, 48
2, 84605, Note_on_c, 0, 55, 45
2, 84794, Note_on_c, 0, 60, 40
2, 84830, Note_off_c, 0, 55, 51
2, 85001, Note_on_c, 0, 64, 38
2, 85019, Note_off_c, 0, 60, 50
2, 85137, Note_off_c, 0, 64, 64
2, 85205, Note_on_c, 0, 55, 35
2, 85339, Note_off_c, 0, 55, 48
2, 85376, Note_off_c, 0, 43, 50
2, 85394, Note_on_c, 0, 60, 32
2, 85510, Note_off_c, 0, 60, 48
2, 85598, Note_on_c, 0, 64, 30
2, 85719, Note_off_c, 0, 64, 47
2, 85805, Note_off_c, 0, 52, 52
2, 85807, Note_on_c, 0, 43, 38
2, 86045, Note_on_c, 0, 50, 44
2, 86251, Note_on_c, 0, 55, 47
2, 86457, Note_on_c, 0, 60, 45
2, 86470, Note_off_c, 0, 55, 51
2, 86645, Note_on_c, 0, 65, 43
2, 86686, Note_off_c, 0, 60, 51
2, 86851, Note_on_c, 0, 55, 40
2, 86887, Note_off_c, 0, 65, 50
2, 87057, Note_on_c, 0, 60, 38
2, 87059, Note_off_c, 0, 55, 50
2, 87216, Note_off_c, 0, 43, 64
2, 87245, Note_on_c, 0, 65, 35
2, 87297, Note_off_c, 0, 60, 64
2, 87451, Note_off_c, 0, 50, 51
2, 87451, Note_on_c, 0, 43, 46
2, 87507, Note_off_c, 0, 65, 48
2, 87708, Note_on_c, 0, 50, 48
2, 87895, Note_on_c, 0, 55, 45
2, 88101, Note_on_c, 0, 60, 43
2, 88153, Note_off_c, 0, 55, 51
2, 88308, Note_on_c, 0, 65, 40
2, 88333, Note_off_c, 0, 60, 50
2, 88417, Note_off_c, 0, 65, 50
2, 88495, Note_on_c, 0, 55, 38
2, 88607, Note_off_c, 0, 55, 64
2, 88701, Note_on_c, 0, 60, 49
2, 88828, Note_off_c, 0, 60, 52
2, 88839, Note_off_c, 0, 43, 51
2, 88908, Note_on_c, 0, 65, 30
2, 89009, Note_off_c, 0, 65, 47
2, 89095, Note_off_c, 0, 50, 52
2, 89097, Note_on_c, 0, 43, 45
2, 89352, Note_on_c, 0, 50, 48
2, 89558, Note_on_c, 0, 55, 48
2, 89748, Note_on_c, 0, 59, 43
2, 89779, Note_off_c, 0, 55, 52
2, 89954, Note_on_c, 0, 65, 40
2, 89984, Note_off_c, 0, 59, 50
2, 90158, Note_on_c, 0, 55, 42
2, 90234, Note_off_c, 0, 65, 50
2, 90306, Note_off_c, 0, 43, 51
2, 90348, Note_on_c, 0, 59, 40
2, 90392, Note_off_c, 0, 55, 50
2, 90554, Note_on_c, 0, 65, 38
2, 90600, Note_off_c, 0, 59, 50
2, 90758, Note_off_c, 0, 50, 52
2, 90761, Note_on_c, 0, 43, 45
2, 90778, Note_off_c, 0, 65, 64
2, 90998, Note_on_c, 0, 50, 46
2, 91205, Note_on_c, 0, 55, 48
2, 91411, Note_on_c, 0, 59, 45
2, 91427, Note_off_c, 0, 55, 52
2, 91598, Note_on_c, 0, 65, 43
2, 91644, Note_off_c, 0, 59, 51
2, 91805, Note_on_c, 0, 55, 50
2, 91864, Note_off_c, 0, 65, 50
2, 92011, Note_on_c, 0, 59, 48
2, 92037, Note_off_c, 0, 43, 51
2, 92073, Note_off_c, 0, 55, 52
2, 92198, Note_on_c, 0, 65, 45
2, 92242, Note_off_c, 0, 59, 52
2, 92405, Note_off_c, 0, 50, 51
2, 92405, Note_on_c, 0, 43, 42
2, 92463, Note_off_c, 0, 65, 51
2, 92645, Note_on_c, 0, 51, 45
2, 92849, Note_on_c, 0, 57, 48
2, 93055, Note_on_c, 0, 60, 45
2, 93105, Note_off_c, 0, 57, 52
2, 93261, Note_on_c, 0, 66, 40
2, 93314, Note_off_c, 0, 60, 51
2, 93451, Note_on_c, 0, 57, 38
2, 93453, Note_off_c, 0, 66, 50
2, 93657, Note_on_c, 0, 60, 36
2, 93690, Note_off_c, 0, 43, 50
2, 93700, Note_off_c, 0, 57, 64
2, 93861, Note_on_c, 0, 66, 38
2, 93909, Note_off_c, 0, 60, 64
2, 94049, Note_off_c, 0, 51, 51
2, 94051, Note_on_c, 0, 43, 40
2, 94067, Note_off_c, 0, 66, 64
2, 94305, Note_on_c, 0, 51, 42
2, 94495, Note_on_c, 0, 57, 48
2, 94701, Note_on_c, 0, 60, 45
2, 94721, Note_off_c, 0, 57, 52
2, 94908, Note_on_c, 0, 66, 40
2, 94950, Note_off_c, 0, 60, 51
2, 95095, Note_on_c, 0, 57, 41
2, 95133, Note_off_c, 0, 66, 50
2, 95301, Note_on_c, 0, 60, 36
2, 95315, Note_off_c, 0, 57, 50
2, 95421, Note_off_c, 0, 43, 50
2, 95505, Note_on_c, 0, 66, 34
2, 95566, Note_off_c, 0, 60, 64
2, 95712, Note_off_c, 0, 51, 50
2, 95714, Note_on_c, 0, 43, 46
2, 95764, Note_off_c, 0, 66, 48
2, 95952, Note_on_c, 0, 52, 42
2, 96156, Note_on_c, 0, 55, 40
2, 96345, Note_on_c, 0, 60, 38
2, 96395, Note_off_c, 0, 55, 50
2, 96552, Note_on_c, 0, 67, 35
2, 96587, Note_off_c, 0, 60, 64
2, 96758, Note_on_c, 0, 55, 46
2, 96815, Note_off_c, 0, 67, 48
2, 96948, Note_on_c, 0, 60, 44
2, 96981, Note_off_c, 0, 55, 51
2, 97097, Note_off_c, 0, 43, 51
2, 97152, Note_on_c, 0, 67, 40
2, 97237, Note_off_c, 0, 60, 51
2, 97358, Note_off_c, 0, 52, 50
2, 97358, Note_on_c, 0, 43, 42
2, 97359, Note_off_c, 0, 67, 50
2, 97596, Note_on_c, 0, 52, 45
2, 97802, Note_on_c, 0, 55, 43
2, 98009, Note_on_c, 0, 60, 40
2, 98034, Note_off_c, 0, 55, 50
2, 98198, Note_on_c, 0, 67, 36
2, 98251, Note_off_c, 0, 60, 50
2, 98402, Note_on_c, 0, 55, 50
2, 98446, Note_off_c, 0, 67, 64
2, 98611, Note_on_c, 0, 60, 55
2, 98650, Note_off_c, 0, 55, 52
2, 98744, Note_off_c, 0, 43, 50
2, 98798, Note_on_c, 0, 67, 60
2, 98823, Note_off_c, 0, 60, 53
2, 99002, Note_off_c, 0, 52, 51
2, 99005, Note_on_c, 0, 43, 48
2, 99071, Note_off_c, 0, 67, 55
2, 99259, Note_on_c, 0, 50, 45
2, 99449, Note_on_c, 0, 55, 42
2, 99655, Note_on_c, 0, 60, 40
2, 99657, Note_off_c, 0, 55, 50
2, 99859, Note_on_c, 0, 65, 36
2, 99893, Note_off_c, 0, 60, 50
2, 100049, Note_on_c, 0, 55, 40
2, 100113, Note_off_c, 0, 65, 64
2, 100255, Note_on_c, 0, 60, 45
2, 100296, Note_off_c, 0, 55, 50
2, 100383, Note_off_c, 0, 43, 52
2, 100459, Note_on_c, 0, 65, 55
2, 100500, Note_off_c, 0, 60, 51
2, 100649, Note_off_c, 0, 50, 51
2, 100649, Note_on_c, 0, 43, 48
2, 100672, Note_off_c, 0, 65, 53
2, 100905, Note_on_c, 0, 50, 46
2, 101109, Note_on_c, 0, 55, 44
2, 101299, Note_on_c, 0, 60, 40
2, 101361, Note_off_c, 0, 55, 51
2, 101505, Note_on_c, 0, 65, 36
2, 101567, Note_off_c, 0, 60, 50
2, 101647, Note_off_c, 0, 65, 64
2, 101709, Note_on_c, 0, 55, 40
2, 101815, Note_off_c, 0, 55, 50
2, 101899, Note_on_c, 0, 60, 45
2, 102020, Note_off_c, 0, 60, 51
2, 102103, Note_on_c, 0, 65, 46
2, 102126, Note_off_c, 0, 43, 52
2, 102247, Note_off_c, 0, 65, 51
2, 102309, Note_off_c, 0, 50, 51
2, 102312, Note_on_c, 0, 43, 44
2, 102549, Note_on_c, 0, 50, 42
2, 102756, Note_on_c, 0, 55, 50
2, 102962, Note_on_c, 0, 59, 55
2, 103012, Note_off_c, 0, 55, 52
2, 103149, Note_on_c, 0, 65, 52
2, 103180, Note_off_c, 0, 59, 53
2, 103356, Note_on_c, 0, 55, 50
2, 103377, Note_off_c, 0, 65, 53
2, 103562, Note_on_c, 0, 59, 48
2, 103573, Note_off_c, 0, 55, 52
2, 103589, Note_off_c, 0, 43, 51
2, 103749, Note_on_c, 0, 65, 42
2, 103809, Note_off_c, 0, 59, 52
2, 103956, Note_off_c, 0, 50, 50
2, 103956, Note_on_c, 0, 43, 40
2, 104037, Note_off_c, 0, 65, 50
2, 104213, Note_on_c, 0, 50, 43
2, 104400, Note_on_c, 0, 55, 56
2, 104606, Note_on_c, 0, 59, 54
2, 104665, Note_off_c, 0, 55, 54
2, 104813, Note_on_c, 0, 65, 50
2, 104854, Note_off_c, 0, 59, 53
2, 104925, Note_off_c, 0, 65, 52
2, 105000, Note_on_c, 0, 55, 48
2, 105143, Note_off_c, 0, 55, 52
2, 105206, Note_on_c, 0, 59, 45
2, 105320, Note_off_c, 0, 59, 51
2, 105354, Note_off_c, 0, 43, 50
2, 105413, Note_on_c, 0, 65, 40
2, 105514, Note_off_c, 0, 65, 50
2, 105600, Note_off_c, 0, 50, 50
2, 105602, Note_on_c, 0, 36, 48
2, 105857, Note_on_c, 0, 48, 49
2, 106063, Note_on_c, 0, 55, 50
2, 106269, Note_on_c, 0, 58, 45
2, 106309, Note_off_c, 0, 55, 52
2, 106476, Note_on_c, 0, 64, 40
2, 106510, Note_off_c, 0, 58, 51
2, 106682, Note_on_c, 0, 55, 37
2, 106700, Note_off_c, 0, 64, 50
2, 106905, Note_on_c, 0, 58, 35
2, 106961, Note_off_c, 0, 55, 64
2, 107070, Note_off_c, 0, 36, 52
2, 107109, Note_on_c, 0, 64, 36
2, 107138, Note_off_c, 0, 58, 48
2, 107333, Note_off_c, 0, 48, 52
2, 107333, Note_on_c, 0, 36, 60
2, 107338, Note_off_c, 0, 64, 64
2, 107606, Note_on_c, 0, 48, 48
2, 107829, Note_on_c, 0, 55, 64
2, 108053, Note_on_c, 0, 58, 62
2, 108109, Note_off_c, 0, 55, 56
2, 108276, Note_on_c, 0, 64, 60
2, 108333, Note_off_c, 0, 58, 55
2, 108499, Note_on_c, 0, 55, 50
2, 108560, Note_off_c, 0, 64, 55
2, 108739, Note_on_c, 0, 58, 66
2, 108798, Note_off_c, 0, 55, 52
2, 108906, Note_off_c, 0, 36, 55
2, 108960, Note_on_c, 0, 64, 66
2, 109031, Note_off_c, 0, 58, 56
2, 109200, Note_off_c, 0, 48, 52
2, 109202, Note_on_c, 0, 36, 65
2, 109214, Note_off_c, 0, 64, 56
2, 109440, Note_on_c, 0, 48, 72
2, 109680, Note_on_c, 0, 53, 70
2, 109920, Note_on_c, 0, 57, 68
2, 110002, Note_off_c, 0, 53, 57
2, 110160, Note_on_c, 0, 60, 65
2, 110205, Note_off_c, 0, 57, 57
2, 110417, Note_on_c, 0, 65, 62
2, 110447, Note_off_c, 0, 60, 56
2, 110657, Note_on_c, 0, 60, 60
2, 110731, Note_off_c, 0, 65, 55
2, 110897, Note_on_c, 0, 57, 56
2, 110956, Note_off_c, 0, 60, 55
2, 111153, Note_on_c, 0, 60, 60
2, 111206, Note_off_c, 0, 57, 54
2, 111413, Note_on_c, 0, 57, 63
2, 111472, Note_off_c, 0, 60, 55
2, 111653, Note_on_c, 0, 53, 59
2, 111718, Note_off_c, 0, 57, 55
2, 111909, Note_on_c, 0, 57, 58
2, 111929, Note_off_c, 0, 53, 54
2, 112166, Note_on_c, 0, 53, 57
2, 112230, Note_off_c, 0, 57, 54
2, 112418, Note_off_c, 0, 53, 54
2, 112423, Note_on_c, 0, 50, 56
2, 112697, Note_on_c, 0, 53, 55
2, 112746, Note_off_c, 0, 50, 54
2, 112890, Note_off_c, 0, 36, 56
2, 112951, Note_off_c, 0, 53, 53
2, 112953, Note_on_c, 0, 50, 54
2, 113141, Note_off_c, 0, 50, 53
2, 113210, Note_off_c, 0, 48, 58
2, 113213, Note_on_c, 0, 36, 53
2, 113263, Control_c, 0, 64, 127
2, 113484, Note_on_c, 0, 47, 48
2, 113760, Note_on_c, 0, 67, 59
2, 114033, Note_on_c, 0, 71, 57
2, 114072, Note_off_c, 0, 67, 54
2, 114290, Note_on_c, 0, 74, 56
2, 114292, Note_off_c, 0, 71, 54
2, 114583, Note_on_c, 0, 77, 54
2, 114635, Note_off_c, 0, 74, 54
2, 114857, Note_on_c, 0, 74, 52
2, 114878, Note_off_c, 0, 77, 53
2, 115163, Note_off_c, 0, 74, 53
2, 115164, Note_on_c, 0, 71, 51
2, 115457, Note_on_c, 0, 74, 49
2, 115486, Note_off_c, 0, 71, 52
2, 115783, Note_on_c, 0, 71, 48
2, 115819, Note_off_c, 0, 74, 52
2, 116107, Note_on_c, 0, 67, 46
2, 116127, Note_off_c, 0, 71, 52
2, 116450, Note_on_c, 0, 71, 44
2, 116472, Note_off_c, 0, 67, 51
2, 116793, Note_on_c, 0, 62, 43
2, 116809, Note_off_c, 0, 71, 51
2, 116833, Control_c, 0, 64, 0
2, 117153, Note_on_c, 0, 65, 41
2, 117185, Note_off_c, 0, 62, 50
2, 117530, Note_on_c, 0, 64, 40
2, 117583, Note_off_c, 0, 65, 50
2, 117775, Note_off_c, 0, 64, 50
2, 117924, Note_on_c, 0, 62, 38
2, 118065, Note_off_c, 0, 36, 53
2, 118130, Note_off_c, 0, 62, 64
2, 118334, Note_off_c, 0, 47, 52
2, 118397, Note_on_c, 0, 72, 42
2, 118409, Note_on_c, 0, 64, 30
2, 118411, Note_on_c, 0, 67, 36
2, 118420, Note_on_c, 0, 48, 32
2, 118420, Note_on_c, 0, 36, 37
2, 123824, Note_off_c, 0, 67, 64
2, 124022, Note_off_c, 0, 48, 48
2, 124134, Note_off_c, 0, 36, 64
2, 124259, Note_off_c, 0, 64, 47
2, 124640, Note_off_c, 0, 72, 50
2, 125485, Note_on_c, 0, 60, 48
2, 125984, Note_on_c, 0, 62, 48
2, 126058, Note_off_c, 0, 60, 52
2, 126481, Note_on_c, 0, 64, 54
2, 126559, Note_off_c, 0, 62, 52
2, 126765, Note_off_c, 0, 64, 53
2, 126978, Note_on_c, 0, 65, 60
2, 127665, Note_off_c, 0, 65, 55
2, 127715, Note_on_c, 0, 67, 60
2, 127835, Note_off_c, 0, 67, 55
2, 127835, Note_on_c, 0, 65, 60
2, 127971, Note_off_c, 0, 65, 55
2, 127971, Note_on_c, 0, 64, 58
2, 128468, Note_on_c, 0, 69, 48
2, 128495, Note_off_c, 0, 64, 54
2, 128708, Note_off_c, 0, 69, 52
2, 128965, Note_on_c, 0, 62, 48
2, 129464, Note_on_c, 0, 67, 60
2, 129505, Note_off_c, 0, 62, 52
2, 130199, Note_off_c, 0, 67, 55
2, 130201, Note_on_c, 0, 69, 52
2, 130319, Note_off_c, 0, 69, 53
2, 130455, Note_on_c, 0, 67, 52
2, 130575, Note_off_c, 0, 67, 53
2, 130695, Note_on_c, 0, 65, 53
2, 130815, Note_off_c, 0, 65, 53
2, 130952, Note_on_c, 0, 64, 54
2, 131072, Note_off_c, 0, 64, 53
2, 131192, Note_on_c, 0, 65, 55
2, 131312, Note_off_c, 0, 65, 53
2, 131451, Note_on_c, 0, 67, 56
2, 131451, Note_on_c, 0, 64, 56
2, 131691, Note_on_c, 0, 62, 56
2, 131735, Note_off_c, 0, 64, 54
2, 131811, Note_off_c, 0, 62, 54
2, 131948, Note_on_c, 0, 69, 57
2, 131951, Note_on_c, 0, 60, 57
2, 132048, Note_off_c, 0, 67, 54
2, 132188, Note_on_c, 0, 62, 58
2, 132235, Note_off_c, 0, 60, 54
2, 132308, Note_off_c, 0, 62, 54
2, 132435, Note_on_c, 0, 71, 59
2, 132447, Note_on_c, 0, 60, 59
2, 132483, Note_off_c, 0, 69, 54
2, 132685, Note_on_c, 0, 59, 60
2, 132715, Note_off_c, 0, 60, 54
2, 132805, Note_off_c, 0, 59, 55
2, 132942, Note_on_c, 0, 72, 60
2, 132944, Note_on_c, 0, 57, 60
2, 132996, Note_off_c, 0, 71, 54
2, 133439, Note_on_c, 0, 66, 57
2, 133461, Note_off_c, 0, 57, 55
2, 133679, Note_off_c, 0, 72, 55
2, 133679, Note_on_c, 0, 74, 56
2, 133799, Note_off_c, 0, 74, 54
2, 133799, Note_on_c, 0, 72, 55
2, 133928, Note_on_c, 0, 71, 54
2, 133935, Note_off_c, 0, 72, 53
2, 133938, Note_on_c, 0, 67, 50
2, 133956, Note_off_c, 0, 66, 54
2, 134422, Note_off_c, 0, 71, 53
2, 134432, Note_on_c, 0, 76, 51
2, 134912, Note_on_c, 0, 69, 48
2, 134945, Note_off_c, 0, 76, 52
2, 135401, Note_on_c, 0, 74, 48
2, 135409, Note_off_c, 0, 69, 52
2, 135409, Note_off_c, 0, 67, 52
2, 135411, Note_on_c, 0, 66, 40
2, 135666, Note_off_c, 0, 66, 50
2, 135668, Note_on_c, 0, 64, 54
2, 135906, Note_off_c, 0, 64, 53
2, 135908, Note_on_c, 0, 66, 60
2, 136165, Note_on_c, 0, 76, 60
2, 136212, Note_off_c, 0, 74, 52
2, 136405, Note_off_c, 0, 66, 55
2, 136405, Note_on_c, 0, 74, 55
2, 136407, Note_on_c, 0, 62, 60
2, 136424, Note_off_c, 0, 76, 55
2, 136662, Note_on_c, 0, 72, 56
2, 136683, Note_off_c, 0, 74, 53
2, 136899, Note_off_c, 0, 72, 54
2, 136902, Note_off_c, 0, 62, 55
2, 136902, Note_on_c, 0, 71, 52
2, 136914, Note_on_c, 0, 67, 47
2, 137108, Note_off_c, 0, 67, 51
2, 137159, Note_off_c, 0, 71, 53
2, 137159, Note_on_c, 0, 67, 48
2, 137389, Note_on_c, 0, 69, 48
2, 137399, Note_off_c, 0, 67, 52
2, 137405, Note_on_c, 0, 55, 60
2, 137408, Note_on_c, 0, 65, 45
2, 137655, Note_off_c, 0, 69, 52
2, 137655, Note_on_c, 0, 71, 49
2, 137895, Note_off_c, 0, 71, 52
2, 137898, Note_on_c, 0, 72, 51
2, 137899, Note_on_c, 0, 57, 63
2, 137908, Note_on_c, 0, 64, 51
2, 137947, Note_off_c, 0, 55, 55
2, 137986, Note_off_c, 0, 65, 51
2, 138152, Note_on_c, 0, 71, 53
2, 138201, Note_off_c, 0, 72, 52
2, 138395, Note_on_c, 0, 72, 55
2, 138398, Note_on_c, 0, 59, 50
2, 138400, Note_off_c, 0, 57, 55
2, 138401, Note_on_c, 0, 62, 55
2, 138406, Note_off_c, 0, 71, 53
2, 138415, Note_off_c, 0, 64, 52
2, 138649, Note_on_c, 0, 74, 57
2, 138707, Note_off_c, 0, 72, 53
2, 138895, Note_on_c, 0, 76, 59
2, 138896, Note_off_c, 0, 74, 54
2, 138901, Note_on_c, 0, 60, 72
2, 138922, Note_off_c, 0, 59, 52
2, 138940, Note_off_c, 0, 62, 53
2, 139146, Note_on_c, 0, 74, 61
2, 139198, Note_off_c, 0, 76, 54
2, 139386, Note_on_c, 0, 76, 63
2, 139420, Note_off_c, 0, 74, 55
2, 139645, Note_on_c, 0, 62, 68
2, 139645, Note_on_c, 0, 78, 65
2, 139653, Note_off_c, 0, 60, 58
2, 139669, Note_off_c, 0, 76, 55
2, 139763, Note_off_c, 0, 62, 57
2, 139763, Note_on_c, 0, 60, 66
2, 139883, Note_off_c, 0, 60, 56
2, 139884, Note_on_c, 0, 79, 66
2, 139895, Note_on_c, 0, 59, 65
2, 139925, Note_off_c, 0, 78, 56
2, 140376, Note_on_c, 0, 71, 66
2, 140383, Note_on_c, 0, 67, 60
2, 140389, Note_off_c, 0, 59, 56
2, 140391, Note_off_c, 0, 79, 56
2, 140394, Note_on_c, 0, 64, 56
2, 140887, Note_on_c, 0, 57, 60
2, 140888, Note_on_c, 0, 72, 55
2, 140925, Note_off_c, 0, 71, 56
2, 140935, Note_off_c, 0, 64, 54
2, 141383, Note_off_c, 0, 57, 55
2, 141383, Note_on_c, 0, 69, 52
2, 141384, Note_on_c, 0, 65, 48
2, 141385, Note_on_c, 0, 62, 55
2, 141399, Note_off_c, 0, 72, 53
2, 141535, Note_off_c, 0, 67, 55
2, 141632, Note_on_c, 0, 64, 48
2, 141654, Note_off_c, 0, 65, 52
2, 141872, Note_on_c, 0, 74, 48
2, 141875, Note_on_c, 0, 65, 45
2, 141894, Note_off_c, 0, 69, 53
2, 141916, Note_off_c, 0, 64, 52
2, 142129, Note_on_c, 0, 72, 52
2, 142131, Note_on_c, 0, 64, 48
2, 142136, Note_off_c, 0, 62, 53
2, 142139, Note_off_c, 0, 74, 52
2, 142369, Note_on_c, 0, 71, 56
2, 142371, Note_on_c, 0, 62, 57
2, 142379, Note_off_c, 0, 72, 53
2, 142380, Note_off_c, 0, 64, 52
2, 142628, Note_on_c, 0, 60, 66
2, 142628, Note_on_c, 0, 69, 60
2, 142646, Note_off_c, 0, 71, 54
2, 142667, Note_off_c, 0, 62, 54
2, 142866, Note_on_c, 0, 67, 64
2, 142868, Note_on_c, 0, 59, 75
2, 142878, Note_off_c, 0, 69, 55
2, 142880, Note_off_c, 0, 60, 56
2, 143025, Note_off_c, 0, 65, 51
2, 143123, Note_on_c, 0, 65, 68
2, 143345, Note_on_c, 0, 48, 84
2, 143363, Note_off_c, 0, 59, 59
2, 143363, Note_off_c, 0, 65, 57
2, 143363, Note_on_c, 0, 64, 72
2, 143365, Note_on_c, 0, 60, 68
2, 143565, Note_off_c, 0, 67, 56
2, 143619, Note_on_c, 0, 67, 72
2, 143859, Note_off_c, 0, 64, 58
2, 143859, Note_off_c, 0, 67, 58
2, 143862, Note_on_c, 0, 50, 86
2, 143862, Note_on_c, 0, 65, 68
2, 143955, Note_off_c, 0, 48, 61
2, 144116, Note_on_c, 0, 64, 64
2, 144170, Note_off_c, 0, 65, 57
2, 144356, Note_off_c, 0, 60, 57
2, 144359, Note_off_c, 0, 50, 61
2, 144359, Note_on_c, 0, 65, 60
2, 144361, Note_on_c, 0, 52, 88
2, 144361, Note_on_c, 0, 58, 76
2, 144407, Note_off_c, 0, 64, 56
2, 144613, Note_on_c, 0, 67, 60
2, 144633, Note_off_c, 0, 65, 55
2, 144853, Note_off_c, 0, 58, 59
2, 144855, Note_off_c, 0, 52, 62
2, 144858, Note_on_c, 0, 53, 90
2, 144860, Note_on_c, 0, 69, 60
2, 144863, Note_on_c, 0, 60, 55
2, 144867, Note_on_c, 0, 57, 70
2, 144868, Note_off_c, 0, 67, 55
2, 145110, Note_on_c, 0, 67, 63
2, 145123, Note_off_c, 0, 69, 55
2, 145323, Note_off_c, 0, 60, 53
2, 145351, Note_on_c, 0, 62, 55
2, 145356, Note_off_c, 0, 57, 57
2, 145359, Note_on_c, 0, 65, 60
2, 145361, Note_on_c, 0, 69, 66
2, 145366, Note_off_c, 0, 67, 55
2, 145609, Note_off_c, 0, 53, 62
2, 145609, Note_on_c, 0, 55, 80
2, 145609, Note_on_c, 0, 71, 70
2, 145663, Note_off_c, 0, 69, 56
2, 145727, Note_off_c, 0, 55, 60
2, 145729, Note_on_c, 0, 53, 78
2, 145849, Note_off_c, 0, 53, 59
2, 145851, Note_on_c, 0, 52, 76
2, 145851, Note_on_c, 0, 72, 72
2, 145861, Note_on_c, 0, 55, 60
2, 145883, Note_off_c, 0, 62, 53
2, 145887, Note_off_c, 0, 65, 55
2, 145898, Note_off_c, 0, 71, 57
2, 146103, Note_on_c, 0, 67, 60
2, 146346, Note_off_c, 0, 52, 59
2, 146346, Note_on_c, 0, 57, 59
2, 146353, Note_on_c, 0, 60, 54
2, 146355, Note_on_c, 0, 65, 60
2, 146356, Note_off_c, 0, 55, 55
2, 146359, Note_off_c, 0, 67, 55
2, 146603, Note_on_c, 0, 64, 56
2, 146648, Note_off_c, 0, 65, 55
2, 146853, Note_on_c, 0, 50, 57
2, 146853, Note_on_c, 0, 65, 52
2, 146858, Note_off_c, 0, 64, 54
2, 146911, Note_off_c, 0, 57, 54
2, 146930, Note_off_c, 0, 60, 53
2, 147097, Note_on_c, 0, 57, 56
2, 147339, Note_off_c, 0, 57, 54
2, 147341, Note_on_c, 0, 62, 48
2, 147343, Note_on_c, 0, 59, 50
2, 147345, Note_off_c, 0, 65, 53
2, 147347, Note_off_c, 0, 50, 54
2, 147347, Note_on_c, 0, 55, 55
2, 147596, Note_on_c, 0, 60, 54
2, 147622, Note_off_c, 0, 59, 52
2, 147780, Note_off_c, 0, 62, 52
2, 147817, Note_off_c, 0, 72, 58
2, 147826, Note_on_c, 0, 71, 60
2, 147842, Note_on_c, 0, 62, 53
2, 147844, Note_on_c, 0, 67, 48
2, 147863, Note_off_c, 0, 60, 53
2, 148093, Note_on_c, 0, 57, 52
2, 148134, Note_off_c, 0, 55, 53
2, 148333, Note_on_c, 0, 55, 51
2, 148381, Note_off_c, 0, 57, 53
2, 148590, Note_on_c, 0, 53, 50
2, 148634, Note_off_c, 0, 55, 52
2, 148820, Note_off_c, 0, 71, 55
2, 148832, Note_on_c, 0, 52, 49
2, 148832, Note_on_c, 0, 55, 49
2, 148836, Note_off_c, 0, 62, 53
2, 148861, Note_off_c, 0, 53, 52
2, 149087, Note_on_c, 0, 53, 48
2, 149105, Note_off_c, 0, 52, 52
2, 149327, Note_on_c, 0, 72, 66
2, 149329, Note_on_c, 0, 52, 48
2, 149365, Note_off_c, 0, 53, 52
2, 149583, Note_on_c, 0, 50, 50
2, 149620, Note_off_c, 0, 52, 52
2, 149818, Note_on_c, 0, 74, 71
2, 149826, Note_off_c, 0, 55, 52
2, 149828, Note_on_c, 0, 48, 52
2, 149831, Note_off_c, 0, 67, 52
2, 149832, Note_off_c, 0, 72, 56
2, 149872, Note_off_c, 0, 50, 52
2, 150080, Note_on_c, 0, 50, 55
2, 150088, Note_off_c, 0, 48, 53
2, 150323, Note_on_c, 0, 76, 76
2, 150323, Note_on_c, 0, 55, 50
2, 150325, Note_on_c, 0, 48, 57
2, 150334, Note_off_c, 0, 50, 53
2, 150417, Note_off_c, 0, 74, 58
2, 150579, Note_off_c, 0, 48, 54
2, 150579, Note_on_c, 0, 47, 60
2, 150819, Note_on_c, 0, 77, 78
2, 150822, Note_on_c, 0, 45, 60
2, 150822, Note_on_c, 0, 57, 55
2, 150830, Note_off_c, 0, 47, 55
2, 150890, Note_off_c, 0, 76, 59
2, 150924, Note_off_c, 0, 55, 52
2, 151316, Note_off_c, 0, 45, 55
2, 151316, Note_on_c, 0, 50, 64
2, 151316, Note_on_c, 0, 59, 57
2, 151390, Note_off_c, 0, 57, 53
2, 151571, Note_off_c, 0, 77, 59
2, 151573, Note_on_c, 0, 79, 72
2, 151691, Note_off_c, 0, 79, 58
2, 151693, Note_on_c, 0, 77, 69
2, 151811, Note_off_c, 0, 77, 57
2, 151813, Note_off_c, 0, 50, 56
2, 151813, Note_off_c, 0, 59, 54
2, 151822, Note_on_c, 0, 76, 66
2, 151822, Note_on_c, 0, 57, 48
2, 151824, Note_on_c, 0, 60, 42
2, 152310, Note_on_c, 0, 81, 64
2, 152312, Note_on_c, 0, 54, 45
2, 152317, Note_off_c, 0, 57, 52
2, 152407, Note_off_c, 0, 76, 56
2, 152550, Note_on_c, 0, 62, 50
2, 152556, Note_off_c, 0, 60, 50
2, 152687, Note_off_c, 0, 62, 52
2, 152687, Note_on_c, 0, 60, 52
2, 152807, Note_off_c, 0, 81, 56
2, 152807, Note_off_c, 0, 60, 53
2, 152807, Note_off_c, 0, 54, 51
2, 152815, Note_on_c, 0, 74, 67
2, 152816, Note_on_c, 0, 55, 53
2, 152816, Note_on_c, 0, 59, 46
2, 153047, Note_on_c, 0, 57, 56
2, 153051, Note_off_c, 0, 55, 53
2, 153296, Note_on_c, 0, 79, 54
2, 153306, Note_off_c, 0, 57, 54
2, 153306, Note_on_c, 0, 64, 45
2, 153308, Note_on_c, 0, 58, 48
2, 153310, Note_off_c, 0, 59, 51
2, 153340, Note_off_c, 0, 74, 57
2, 153543, Note_off_c, 0, 58, 52
2, 153543, Note_on_c, 0, 55, 61
2, 153800, Note_off_c, 0, 64, 51
2, 153800, Note_off_c, 0, 55, 55
2, 153804, Note_on_c, 0, 49, 64
2, 153808, Note_on_c, 0, 57, 58
2, 154030, Note_off_c, 0, 79, 53
2, 154040, Note_on_c, 0, 81, 61
2, 154297, Note_off_c, 0, 81, 55
2, 154303, Note_on_c, 0, 79, 64
2, 154308, Note_on_c, 0, 50, 69
2, 154308, Note_on_c, 0, 62, 63
2, 154351, Note_off_c, 0, 49, 56
2, 154377, Note_off_c, 0, 57, 54
2, 154537, Note_on_c, 0, 77, 66
2, 154567, Note_off_c, 0, 79, 56
2, 154794, Note_off_c, 0, 77, 56
2, 154802, Note_on_c, 0, 57, 72
2, 154803, Note_on_c, 0, 76, 69
2, 154805, Note_off_c, 0, 50, 57
2, 155034, Note_on_c, 0, 64, 72
2, 155072, Note_off_c, 0, 62, 55
2, 155301, Note_on_c, 0, 81, 76
2, 155302, Note_off_c, 0, 76, 57
2, 155303, Note_on_c, 0, 62, 71
2, 155314, Note_off_c, 0, 64, 58
2, 155531, Note_on_c, 0, 60, 69
2, 155546, Note_off_c, 0, 62, 58
2, 155787, Note_off_c, 0, 60, 57
2, 155795, Note_off_c, 0, 57, 58
2, 155796, Note_on_c, 0, 52, 67
2, 155800, Note_on_c, 0, 59, 60
2, 156027, Note_on_c, 0, 83, 68
2, 156036, Note_off_c, 0, 81, 59
2, 156284, Note_off_c, 0, 83, 57
2, 156297, Note_on_c, 0, 81, 65
2, 156297, Note_on_c, 0, 64, 59
2, 156343, Note_off_c, 0, 59, 55
2, 156527, Note_on_c, 0, 79, 63
2, 156562, Note_off_c, 0, 81, 56
2, 156781, Note_off_c, 0, 79, 55
2, 156783, Note_on_c, 0, 77, 60
2, 156786, Note_on_c, 0, 57, 60
2, 156882, Note_off_c, 0, 52, 57
2, 157023, Note_on_c, 0, 59, 60
2, 157064, Note_off_c, 0, 57, 55
2, 157286, Note_on_c, 0, 60, 55
2, 157290, Note_on_c, 0, 67, 61
2, 157313, Note_off_c, 0, 59, 55
2, 157520, Note_on_c, 0, 62, 61
2, 157549, Note_off_c, 0, 60, 53
2, 157757, Note_off_c, 0, 62, 55
2, 157781, Note_on_c, 0, 62, 58
2, 157782, Note_on_c, 0, 69, 64
2, 157785, Note_off_c, 0, 67, 55
2, 157785, Note_on_c, 0, 60, 61
2, 157880, Note_off_c, 0, 64, 54
2, 158017, Note_on_c, 0, 59, 62
2, 158050, Note_off_c, 0, 60, 55
2, 158274, Note_off_c, 0, 59, 55
2, 158281, Note_on_c, 0, 71, 66
2, 158283, Note_on_c, 0, 57, 63
2, 158381, Note_off_c, 0, 69, 56
2, 158514, Note_on_c, 0, 55, 63
2, 158532, Note_off_c, 0, 57, 55
2, 158771, Note_off_c, 0, 77, 55
2, 158773, Note_off_c, 0, 55, 55
2, 158778, Note_on_c, 0, 72, 58
2, 158780, Note_on_c, 0, 76, 69
2, 158781, Note_on_c, 0, 60, 64
2, 158834, Note_off_c, 0, 71, 56
2, 158878, Note_off_c, 0, 62, 54
2, 159011, Note_on_c, 0, 59, 65
2, 159060, Note_off_c, 0, 60, 56
2, 159267, Note_off_c, 0, 59, 56
2, 159274, Note_on_c, 0, 60, 65
2, 159276, Note_on_c, 0, 78, 72
2, 159333, Note_off_c, 0, 76, 57
2, 159510, Note_on_c, 0, 74, 73
2, 159510, Note_on_c, 0, 57, 66
2, 159511, Note_off_c, 0, 60, 56
2, 159515, Note_off_c, 0, 72, 54
2, 159644, Note_off_c, 0, 74, 58
2, 159644, Note_on_c, 0, 72, 74
2, 159757, Note_on_c, 0, 79, 74
2, 159764, Note_off_c, 0, 72, 59
2, 159769, Note_on_c, 0, 64, 66
2, 159769, Note_on_c, 0, 71, 60
2, 159770, Note_off_c, 0, 78, 58
2, 159784, Note_off_c, 0, 57, 56
2, 160004, Note_on_c, 0, 62, 67
2, 160042, Note_off_c, 0, 64, 56
2, 160261, Note_off_c, 0, 71, 55
2, 160263, Note_on_c, 0, 60, 68
2, 160272, Note_on_c, 0, 76, 77
2, 160295, Note_off_c, 0, 62, 57
2, 160501, Note_on_c, 0, 59, 68
2, 160533, Note_off_c, 0, 60, 57
2, 160760, Note_on_c, 0, 60, 69
2, 160764, Note_on_c, 0, 69, 80
2, 160767, Note_off_c, 0, 76, 59
2, 160771, Note_off_c, 0, 59, 57
2, 160998, Note_on_c, 0, 57, 70
2, 161004, Note_off_c, 0, 60, 57
2, 161257, Note_on_c, 0, 74, 82
2, 161257, Note_on_c, 0, 59, 70
2, 161259, Note_off_c, 0, 69, 60
2, 161306, Note_off_c, 0, 57, 57
2, 161495, Note_on_c, 0, 60, 71
2, 161505, Note_off_c, 0, 59, 57
2, 161754, Note_on_c, 0, 78, 84
2, 161754, Note_on_c, 0, 62, 72
2, 161758, Note_off_c, 0, 60, 58
2, 161785, Note_off_c, 0, 79, 59
2, 161991, Note_off_c, 0, 74, 60
2, 162000, Note_on_c, 0, 76, 84
2, 162014, Note_on_c, 0, 60, 72
2, 162018, Note_off_c, 0, 62, 58
2, 162254, Note_off_c, 0, 76, 61
2, 162256, Note_on_c, 0, 74, 84
2, 162273, Note_on_c, 0, 59, 68
2, 162310, Note_off_c, 0, 60, 58
2, 162501, Note_on_c, 0, 57, 64
2, 162505, Note_on_c, 0, 72, 83
2, 162512, Note_off_c, 0, 59, 57
2, 162515, Note_off_c, 0, 74, 61
2, 162740, Note_on_c, 0, 79, 74
2, 162745, Note_off_c, 0, 78, 61
2, 162750, Note_on_c, 0, 71, 74
2, 162750, Note_on_c, 0, 55, 60
2, 162761, Note_off_c, 0, 72, 60
2, 162802, Note_off_c, 0, 57, 56
2, 162987, Note_on_c, 0, 77, 73
2, 162994, Note_off_c, 0, 79, 59
2, 163244, Note_on_c, 0, 76, 72
2, 163247, Note_on_c, 0, 43, 62
2, 163257, Note_off_c, 0, 77, 58
2, 163323, Note_off_c, 0, 71, 59
2, 163484, Note_on_c, 0, 74, 71
2, 163489, Note_off_c, 0, 76, 58
2, 163741, Note_off_c, 0, 55, 55
2, 163743, Note_off_c, 0, 74, 58
2, 163743, Note_on_c, 0, 72, 70
2, 163743, Note_on_c, 0, 45, 68
2, 163823, Note_off_c, 0, 43, 55
2, 163981, Note_off_c, 0, 72, 57
2, 163981, Note_on_c, 0, 74, 69
2, 164248, Note_on_c, 0, 47, 76
2, 164249, Note_off_c, 0, 74, 57
2, 164250, Note_on_c, 0, 72, 66
2, 164250, Note_on_c, 0, 62, 60
2, 164255, Note_off_c, 0, 45, 57
2, 164478, Note_on_c, 0, 71, 67
2, 164511, Note_off_c, 0, 72, 56
2, 164737, Note_on_c, 0, 69, 66
2, 164739, Note_on_c, 0, 48, 78
2, 164739, Note_on_c, 0, 64, 63
2, 164745, Note_off_c, 0, 62, 55
2, 164777, Note_off_c, 0, 71, 57
2, 164779, Note_off_c, 0, 47, 59
2, 164975, Note_on_c, 0, 72, 65
2, 165010, Note_off_c, 0, 69, 56
2, 165231, Note_off_c, 0, 64, 55
2, 165234, Note_on_c, 0, 71, 64
2, 165234, Note_on_c, 0, 66, 64
2, 165256, Note_off_c, 0, 72, 56
2, 165474, Note_on_c, 0, 50, 84
2, 165474, Note_on_c, 0, 69, 64
2, 165490, Note_off_c, 0, 71, 56
2, 165501, Note_off_c, 0, 48, 59
2, 165591, Note_off_c, 0, 50, 61
2, 165591, Note_on_c, 0, 48, 84
2, 165728, Note_off_c, 0, 66, 56
2, 165728, Note_off_c, 0, 69, 56
2, 165731, Note_off_c, 0, 48, 61
2, 165731, Note_on_c, 0, 67, 72
2, 165733, Note_on_c, 0, 47, 82
2, 166227, Note_on_c, 0, 52, 71
2, 166261, Note_off_c, 0, 47, 60
2, 166314, Note_off_c, 0, 67, 58
2, 166465, Note_on_c, 0, 69, 76
2, 166585, Note_off_c, 0, 69, 59
2, 166585, Note_on_c, 0, 67, 77
2, 166722, Note_off_c, 0, 67, 59
2, 166724, Note_on_c, 0, 66, 77
2, 166724, Note_on_c, 0, 45, 60
2, 166753, Note_off_c, 0, 52, 58
2, 166962, Note_on_c, 0, 72, 78
2, 167221, Note_off_c, 0, 66, 59
2, 167229, Note_on_c, 0, 71, 80
2, 167238, Note_on_c, 0, 50, 84
2, 167246, Note_off_c, 0, 72, 59
2, 167290, Note_off_c, 0, 45, 55
2, 167461, Note_on_c, 0, 69, 81
2, 167509, Note_off_c, 0, 71, 60
2, 167728, Note_on_c, 0, 68, 82
2, 167738, Note_on_c, 0, 64, 76
2, 167778, Note_off_c, 0, 69, 60
2, 167958, Note_on_c, 0, 52, 62
2, 167968, Note_off_c, 0, 50, 61
2, 168195, Note_off_c, 0, 64, 59
2, 168217, Note_on_c, 0, 50, 64
2, 168221, Note_on_c, 0, 69, 84
2, 168222, Note_off_c, 0, 68, 60
2, 168224, Note_on_c, 0, 76, 98
2, 168252, Note_off_c, 0, 52, 55
2, 168455, Note_on_c, 0, 48, 66
2, 168473, Note_off_c, 0, 50, 56
2, 168711, Note_on_c, 0, 74, 84
2, 168714, Note_on_c, 0, 47, 68
2, 168718, Note_off_c, 0, 76, 64
2, 168720, Note_off_c, 0, 48, 56
2, 168951, Note_on_c, 0, 71, 80
2, 168955, Note_off_c, 0, 69, 61
2, 169191, Note_off_c, 0, 71, 60
2, 169191, Note_off_c, 0, 74, 61
2, 169191, Note_off_c, 0, 47, 57
2, 169194, Note_on_c, 0, 72, 76
2, 169196, Note_on_c, 0, 52, 72
2, 169196, Note_on_c, 0, 69, 70
2, 169448, Note_off_c, 0, 72, 59
2, 169450, Note_off_c, 0, 69, 57
2, 169450, Note_on_c, 0, 68, 65
2, 169451, Note_on_c, 0, 71, 72
2, 169687, Note_off_c, 0, 68, 56
2, 169688, Note_off_c, 0, 71, 58
2, 169688, Note_on_c, 0, 69, 68
2, 169691, Note_on_c, 0, 54, 76
2, 169691, Note_on_c, 0, 66, 60
2, 169945, Note_off_c, 0, 69, 57
2, 169945, Note_on_c, 0, 68, 64
2, 170185, Note_off_c, 0, 66, 55
2, 170185, Note_off_c, 0, 68, 56
2, 170185, Note_off_c, 0, 54, 59
2, 170187, Note_off_c, 0, 52, 58
2, 170195, Note_on_c, 0, 69, 60
2, 170199, Note_on_c, 0, 50, 80
2, 170199, Note_on_c, 0, 65, 50
2, 170200, Note_on_c, 0, 56, 76
2, 170442, Note_on_c, 0, 71, 60
2, 170466, Note_off_c, 0, 69, 55
2, 170691, Note_off_c, 0, 50, 60
2, 170691, Note_off_c, 0, 65, 52
2, 170693, Note_on_c, 0, 72, 60
2, 170694, Note_off_c, 0, 56, 59
2, 170696, Note_on_c, 0, 57, 78
2, 170697, Note_on_c, 0, 64, 52
2, 170698, Note_on_c, 0, 48, 84
2, 170731, Note_off_c, 0, 71, 55
2, 170939, Note_on_c, 0, 66, 62
2, 170943, Note_off_c, 0, 72, 55
2, 171181, Note_on_c, 0, 68, 64
2, 171183, Note_on_c, 0, 53, 78
2, 171183, Note_on_c, 0, 62, 52
2, 171189, Note_off_c, 0, 64, 53
2, 171190, Note_off_c, 0, 48, 61
2, 171224, Note_off_c, 0, 66, 55
2, 171438, Note_on_c, 0, 59, 78
2, 171438, Note_on_c, 0, 69, 66
2, 171444, Note_off_c, 0, 57, 59
2, 171489, Note_off_c, 0, 68, 56
2, 171555, Note_off_c, 0, 59, 59
2, 171555, Note_on_c, 0, 57, 77
2, 171675, Note_off_c, 0, 57, 59
2, 171678, Note_on_c, 0, 56, 75
2, 171678, Note_on_c, 0, 71, 68
2, 171694, Note_off_c, 0, 69, 56
2, 171932, Note_off_c, 0, 62, 53
2, 171935, Note_on_c, 0, 64, 70
2, 172172, Note_off_c, 0, 71, 57
2, 172175, Note_off_c, 0, 64, 57
2, 172175, Note_off_c, 0, 53, 59
2, 172175, Note_off_c, 0, 56, 59
2, 172181, Note_on_c, 0, 69, 74
2, 172182, Note_on_c, 0, 60, 60
2, 172188, Note_on_c, 0, 52, 72
2, 172194, Note_on_c, 0, 66, 55
2, 172412, Note_off_c, 0, 66, 53
2, 172431, Note_on_c, 0, 71, 72
2, 172433, Note_off_c, 0, 69, 59
2, 172441, Note_on_c, 0, 68, 60
2, 172645, Note_off_c, 0, 68, 55
2, 172669, Note_off_c, 0, 71, 58
2, 172672, Note_on_c, 0, 72, 72
2, 172673, Note_on_c, 0, 69, 62
2, 172676, Note_off_c, 0, 60, 55
2, 172676, Note_on_c, 0, 54, 60
2, 172925, Note_off_c, 0, 69, 55
2, 172928, Note_on_c, 0, 68, 71
2, 173164, Note_off_c, 0, 72, 58
2, 173168, Note_off_c, 0, 68, 58
2, 173170, Note_off_c, 0, 54, 55
2, 173172, Note_on_c, 0, 50, 60
2, 173180, Note_off_c, 0, 52, 58
2, 173180, Note_on_c, 0, 77, 70
2, 173181, Note_on_c, 0, 69, 62
2, 173182, Note_on_c, 0, 59, 74
2, 173425, Note_on_c, 0, 71, 69
2, 173470, Note_off_c, 0, 69, 55
2, 173665, Note_off_c, 0, 71, 57
2, 173665, Note_on_c, 0, 76, 68
2, 173667, Note_on_c, 0, 68, 68
2, 173672, Note_off_c, 0, 77, 57
2, 173922, Note_on_c, 0, 66, 66
2, 173924, Note_on_c, 0, 60, 48
2, 173931, Note_off_c, 0, 59, 59
2, 173970, Note_off_c, 0, 68, 57
2, 174159, Note_off_c, 0, 76, 57
2, 174162, Note_off_c, 0, 60, 52
2, 174163, Note_off_c, 0, 50, 55
2, 174169, Note_off_c, 0, 66, 56
2, 174171, Note_on_c, 0, 68, 58
2, 174172, Note_on_c, 0, 74, 65
2, 174173, Note_on_c, 0, 59, 43
2, 174177, Note_on_c, 0, 52, 50
2, 174419, Note_on_c, 0, 69, 64
2, 174421, Note_on_c, 0, 57, 52
2, 174425, Note_off_c, 0, 59, 50
2, 174469, Note_off_c, 0, 68, 54
2, 174659, Note_off_c, 0, 57, 53
2, 174668, Note_on_c, 0, 53, 54
2, 174669, Note_off_c, 0, 52, 52
2, 174669, Note_on_c, 0, 56, 49
2, 174676, Note_off_c, 0, 69, 56
2, 174676, Note_on_c, 0, 71, 63
2, 175158, Note_on_c, 0, 72, 60
2, 175160, Note_on_c, 0, 52, 58
2, 175160, Note_on_c, 0, 57, 53
2, 175163, Note_off_c, 0, 74, 56
2, 175163, Note_off_c, 0, 53, 53
2, 175166, Note_off_c, 0, 56, 52
2, 175175, Note_off_c, 0, 71, 55
2, 175412, Note_off_c, 0, 52, 54
2, 175415, Note_on_c, 0, 71, 60
2, 175415, Note_on_c, 0, 50, 57
2, 175445, Note_off_c, 0, 72, 55
2, 175575, Note_off_c, 0, 71, 55
2, 175635, Note_off_c, 0, 50, 54
2, 175652, Note_on_c, 0, 71, 60
2, 175652, Note_on_c, 0, 52, 58
2, 175736, Note_off_c, 0, 71, 55
2, 175739, Note_on_c, 0, 72, 60
2, 175823, Note_off_c, 0, 72, 55
2, 175825, Note_on_c, 0, 71, 60
2, 175909, Note_off_c, 0, 71, 55
2, 175909, Note_on_c, 0, 72, 60
2, 175995, Note_off_c, 0, 72, 55
2, 175995, Note_on_c, 0, 71, 60
2, 176065, Note_on_c, 0, 72, 60
2, 176085, Note_off_c, 0, 71, 55
2, 176149, Note_off_c, 0, 72, 55
2, 176149, Note_off_c, 0, 57, 53
2, 176151, Note_on_c, 0, 71, 60
2, 176151, Note_on_c, 0, 56, 48
2, 176235, Note_off_c, 0, 71, 55
2, 176235, Note_on_c, 0, 72, 60
2, 176319, Note_off_c, 0, 72, 55
2, 176322, Note_on_c, 0, 71, 60
2, 176406, Note_on_c, 0, 69, 60
2, 176425, Note_off_c, 0, 71, 55
2, 176595, Note_off_c, 0, 69, 55
2, 176629, Note_off_c, 0, 56, 52
2, 176631, Note_off_c, 0, 52, 54
2, 176636, Note_on_c, 0, 69, 60
2, 176646, Note_on_c, 0, 45, 49
2, 176653, Note_on_c, 0, 57, 40
2, 177143, Note_on_c, 0, 60, 48
2, 177502, Note_off_c, 0, 45, 52
2, 177569, Note_off_c, 0, 57, 50
2, 177629, Note_off_c, 0, 69, 55
2, 177642, Note_off_c, 0, 60, 52
2, 177644, Note_on_c, 0, 62, 48
2, 178129, Note_on_c, 0, 55, 60
2, 178136, Note_off_c, 0, 62, 52
2, 178139, Note_on_c, 0, 64, 52
2, 178623, Note_off_c, 0, 55, 55
2, 178628, Note_on_c, 0, 57, 62
2, 178633, Note_off_c, 0, 64, 53
2, 178635, Note_on_c, 0, 65, 56
2, 179122, Note_on_c, 0, 59, 64
2, 179176, Note_off_c, 0, 57, 55
2, 179389, Note_off_c, 0, 65, 54
2, 179389, Note_on_c, 0, 67, 60
2, 179509, Note_off_c, 0, 67, 55
2, 179509, Note_on_c, 0, 65, 60
2, 179621, Note_on_c, 0, 60, 66
2, 179629, Note_off_c, 0, 65, 55
2, 179629, Note_on_c, 0, 64, 58
2, 179658, Note_off_c, 0, 59, 56
2, 180126, Note_off_c, 0, 64, 54
2, 180126, Note_on_c, 0, 69, 48
2, 180347, Note_off_c, 0, 60, 56
2, 180383, Note_on_c, 0, 62, 54
2, 180503, Note_off_c, 0, 62, 53
2, 180503, Note_on_c, 0, 60, 51
2, 180623, Note_off_c, 0, 69, 52
2, 180623, Note_off_c, 0, 60, 52
2, 180625, Note_on_c, 0, 59, 54
2, 180625, Note_on_c, 0, 62, 48
2, 181075, Note_off_c, 0, 59, 53
2, 181114, Note_on_c, 0, 43, 48
2, 181119, Note_off_c, 0, 62, 52
2, 181122, Note_on_c, 0, 67, 51
2, 181132, Note_on_c, 0, 64, 47
2, 181609, Note_on_c, 0, 45, 56
2, 181619, Note_on_c, 0, 57, 50
2, 181626, Note_off_c, 0, 64, 51
2, 181673, Note_off_c, 0, 43, 52
2, 181873, Note_off_c, 0, 67, 52
2, 181873, Note_on_c, 0, 69, 55
2, 182108, Note_on_c, 0, 47, 58
2, 182113, Note_off_c, 0, 57, 52
2, 182115, Note_on_c, 0, 67, 54
2, 182118, Note_on_c, 0, 62, 48
2, 182128, Note_off_c, 0, 69, 53
2, 182190, Note_off_c, 0, 45, 54
2, 182372, Note_on_c, 0, 65, 58
2, 182385, Note_off_c, 0, 67, 53
2, 182609, Note_on_c, 0, 48, 60
2, 182619, Note_on_c, 0, 64, 54
2, 182625, Note_off_c, 0, 65, 54
2, 182677, Note_off_c, 0, 47, 54
2, 183077, Note_off_c, 0, 64, 53
2, 183090, Note_off_c, 0, 62, 52
2, 183114, Note_on_c, 0, 55, 56
2, 183115, Note_on_c, 0, 64, 51
2, 183116, Note_on_c, 0, 67, 63
2, 183366, Note_on_c, 0, 50, 57
2, 183396, Note_off_c, 0, 48, 55
2, 183483, Note_off_c, 0, 50, 54
2, 183486, Note_on_c, 0, 48, 57
2, 183598, Note_on_c, 0, 69, 66
2, 183608, Note_off_c, 0, 48, 54
2, 183608, Note_on_c, 0, 66, 54
2, 183611, Note_off_c, 0, 55, 54
2, 183612, Note_off_c, 0, 67, 55
2, 183612, Note_off_c, 0, 64, 52
2, 183617, Note_on_c, 0, 62, 46
2, 183618, Note_on_c, 0, 47, 58
2, 184090, Note_off_c, 0, 69, 56
2, 184103, Note_off_c, 0, 66, 53
2, 184105, Note_on_c, 0, 71, 69
2, 184108, Note_on_c, 0, 52, 56
2, 184110, Note_off_c, 0, 47, 54
2, 184110, Note_on_c, 0, 67, 60
2, 184597, Note_on_c, 0, 72, 72
2, 184599, Note_off_c, 0, 71, 57
2, 184602, Note_off_c, 0, 52, 54
2, 184603, Note_on_c, 0, 60, 48
2, 184605, Note_off_c, 0, 62, 51
2, 184613, Note_on_c, 0, 45, 60
2, 185097, Note_off_c, 0, 60, 52
2, 185101, Note_off_c, 0, 67, 55
2, 185104, Note_on_c, 0, 57, 42
2, 185105, Note_off_c, 0, 45, 55
2, 185105, Note_on_c, 0, 50, 58
2, 185107, Note_on_c, 0, 66, 72
2, 185348, Note_off_c, 0, 72, 58
2, 185353, Note_on_c, 0, 74, 68
2, 185473, Note_off_c, 0, 74, 57
2, 185473, Note_on_c, 0, 72, 65
2, 185585, Note_on_c, 0, 71, 63
2, 185593, Note_off_c, 0, 72, 56
2, 185595, Note_on_c, 0, 68, 58
2, 185598, Note_on_c, 0, 64, 48
2, 185600, Note_off_c, 0, 57, 50
2, 185601, Note_off_c, 0, 66, 58
2, 185850, Note_on_c, 0, 52, 52
2, 185934, Note_off_c, 0, 50, 54
2, 186080, Note_off_c, 0, 71, 55
2, 186090, Note_off_c, 0, 68, 54
2, 186092, Note_on_c, 0, 72, 53
2, 186092, Note_on_c, 0, 69, 46
2, 186095, Note_on_c, 0, 50, 58
2, 186117, Note_off_c, 0, 52, 53
2, 186330, Note_on_c, 0, 48, 64
2, 186375, Note_off_c, 0, 50, 54
2, 186579, Note_on_c, 0, 74, 58
2, 186587, Note_off_c, 0, 64, 52
2, 186587, Note_off_c, 0, 72, 53
2, 186591, Note_on_c, 0, 47, 56
2, 186591, Note_on_c, 0, 62, 46
2, 186622, Note_off_c, 0, 48, 56
2, 187078, Note_on_c, 0, 76, 48
2, 187083, Note_off_c, 0, 69, 51
2, 187086, Note_off_c, 0, 62, 51
2, 187088, Note_on_c, 0, 46, 64
2, 187088, Note_on_c, 0, 67, 45
2, 187100, Note_off_c, 0, 47, 54
2, 187112, Note_off_c, 0, 74, 54
2, 187573, Note_on_c, 0, 77, 54
2, 187580, Note_off_c, 0, 67, 51
2, 187592, Note_on_c, 0, 45, 62
2, 187593, Note_on_c, 0, 69, 45
2, 187603, Note_off_c, 0, 46, 56
2, 187644, Note_off_c, 0, 76, 52
2, 188085, Note_off_c, 0, 69, 51
2, 188085, Note_on_c, 0, 43, 52
2, 188087, Note_on_c, 0, 71, 60
2, 188089, Note_off_c, 0, 45, 55
2, 188319, Note_on_c, 0, 79, 60
2, 188323, Note_off_c, 0, 77, 53
2, 188454, Note_off_c, 0, 79, 55
2, 188456, Note_on_c, 0, 77, 60
2, 188574, Note_off_c, 0, 77, 55
2, 188578, Note_on_c, 0, 72, 48
2, 188584, Note_off_c, 0, 71, 55
2, 188585, Note_on_c, 0, 76, 60
2, 188587, Note_on_c, 0, 45, 62
2, 188681, Note_off_c, 0, 43, 53
2, 189063, Note_on_c, 0, 81, 61
2, 189080, Note_off_c, 0, 76, 55
2, 189081, Note_on_c, 0, 54, 52
2, 189084, Note_on_c, 0, 57, 46
2, 189180, Note_off_c, 0, 45, 55
2, 189310, Note_off_c, 0, 72, 52
2, 189313, Note_on_c, 0, 74, 62
2, 189447, Note_off_c, 0, 74, 55
2, 189450, Note_on_c, 0, 72, 62
2, 189531, Note_off_c, 0, 54, 53
2, 189539, Note_off_c, 0, 57, 51
2, 189557, Note_off_c, 0, 81, 55
2, 189562, Note_on_c, 0, 74, 62
2, 189570, Note_off_c, 0, 72, 55
2, 189572, Note_on_c, 0, 71, 58
2, 189580, Note_on_c, 0, 55, 59
2, 189582, Note_on_c, 0, 59, 50
2, 190038, Note_off_c, 0, 55, 54
2, 190057, Note_off_c, 0, 74, 55
2, 190059, Note_on_c, 0, 79, 64
2, 190062, Note_off_c, 0, 59, 52
2, 190067, Note_off_c, 0, 71, 54
2, 190079, Note_on_c, 0, 52, 60
2, 190079, Note_on_c, 0, 61, 48
2, 190081, Note_on_c, 0, 76, 55
2, 190495, Note_off_c, 0, 61, 52
2, 190507, Note_off_c, 0, 52, 55
2, 190551, Note_off_c, 0, 76, 53
2, 190575, Note_on_c, 0, 62, 59
2, 190576, Note_on_c, 0, 69, 65
2, 190578, Note_on_c, 0, 50, 64
2, 190793, Note_off_c, 0, 79, 56
2, 190803, Note_on_c, 0, 81, 66
2, 191060, Note_off_c, 0, 81, 56
2, 191063, Note_on_c, 0, 74, 66
2, 191063, Note_on_c, 0, 79, 62
2, 191070, Note_off_c, 0, 69, 56
2, 191300, Note_off_c, 0, 79, 55
2, 191303, Note_on_c, 0, 77, 67
2, 191303, Note_on_c, 0, 64, 70
2, 191309, Note_off_c, 0, 62, 54
2, 191437, Note_off_c, 0, 64, 57
2, 191437, Note_on_c, 0, 62, 71
2, 191557, Note_off_c, 0, 77, 57
2, 191557, Note_off_c, 0, 62, 58
2, 191558, Note_on_c, 0, 76, 68
2, 191569, Note_off_c, 0, 50, 56
2, 191570, Note_on_c, 0, 60, 66
2, 191572, Note_on_c, 0, 52, 72
2, 191752, Note_off_c, 0, 76, 57
2, 191797, Note_off_c, 0, 74, 56
2, 191799, Note_on_c, 0, 76, 68
2, 192046, Note_on_c, 0, 81, 69
2, 192054, Note_off_c, 0, 76, 57
2, 192059, Note_on_c, 0, 74, 66
2, 192062, Note_off_c, 0, 60, 56
2, 192066, Note_off_c, 0, 52, 58
2, 192066, Note_on_c, 0, 53, 76
2, 192068, Note_on_c, 0, 65, 70
2, 192294, Note_off_c, 0, 74, 56
2, 192294, Note_on_c, 0, 72, 70
2, 192541, Note_off_c, 0, 81, 57
2, 192551, Note_off_c, 0, 72, 57
2, 192560, Note_off_c, 0, 53, 59
2, 192561, Note_on_c, 0, 74, 70
2, 192562, Note_off_c, 0, 65, 57
2, 192563, Note_on_c, 0, 71, 62
2, 192565, Note_on_c, 0, 59, 70
2, 192566, Note_on_c, 0, 55, 80
2, 193053, Note_off_c, 0, 74, 57
2, 193058, Note_off_c, 0, 71, 55
2, 193060, Note_off_c, 0, 59, 57
2, 193068, Note_on_c, 0, 82, 72
2, 193079, Note_on_c, 0, 64, 84
2, 193079, Note_on_c, 0, 79, 60
2, 193287, Note_on_c, 0, 57, 84
2, 193295, Note_off_c, 0, 55, 60
2, 193424, Note_off_c, 0, 57, 61
2, 193427, Note_on_c, 0, 55, 84
2, 193546, Note_on_c, 0, 81, 72
2, 193547, Note_off_c, 0, 55, 61
2, 193553, Note_on_c, 0, 73, 64
2, 193559, Note_on_c, 0, 53, 82
2, 193562, Note_off_c, 0, 82, 58
2, 193574, Note_off_c, 0, 79, 55
2, 193787, Note_on_c, 0, 65, 78
2, 193811, Note_off_c, 0, 64, 61
2, 194040, Note_off_c, 0, 81, 58
2, 194043, Note_off_c, 0, 65, 59
2, 194048, Note_on_c, 0, 58, 74
2, 194051, Note_on_c, 0, 74, 60
2, 194052, Note_on_c, 0, 79, 69
2, 194056, Note_off_c, 0, 53, 60
2, 194058, Note_on_c, 0, 64, 67
2, 194060, Note_off_c, 0, 73, 56
2, 194283, Note_on_c, 0, 77, 68
2, 194286, Note_on_c, 0, 62, 69
2, 194287, Note_off_c, 0, 79, 57
2, 194293, Note_off_c, 0, 64, 57
2, 194538, Note_off_c, 0, 77, 57
2, 194540, Note_off_c, 0, 62, 57
2, 194543, Note_off_c, 0, 58, 59
2, 194545, Note_off_c, 0, 74, 55
2, 194548, Note_on_c, 0, 79, 66
2, 194550, Note_on_c, 0, 76, 50
2, 194553, Note_on_c, 0, 61, 48
2, 194555, Note_on_c, 0, 52, 65
2, 194780, Note_on_c, 0, 77, 65
2, 194783, Note_off_c, 0, 79, 56
2, 195037, Note_off_c, 0, 77, 56
2, 195044, Note_off_c, 0, 76, 52
2, 195045, Note_off_c, 0, 61, 52
2, 195047, Note_on_c, 0, 73, 57
2, 195048, Note_on_c, 0, 79, 63
2, 195049, Note_off_c, 0, 52, 56
2, 195050, Note_on_c, 0, 57, 60
2, 195277, Note_on_c, 0, 76, 62
2, 195284, Note_off_c, 0, 79, 55
2, 195534, Note_off_c, 0, 76, 55
2, 195543, Note_on_c, 0, 74, 58
2, 195545, Note_on_c, 0, 77, 60
2, 195550, Note_off_c, 0, 73, 54
2, 195778, Note_on_c, 0, 79, 62
2, 195782, Note_off_c, 0, 57, 55
2, 195782, Note_on_c, 0, 58, 58
2, 195783, Note_off_c, 0, 77, 55
2, 195997, Note_off_c, 0, 79, 55
2, 196003, Note_off_c, 0, 58, 54
2, 196004, Note_off_c, 0, 74, 54
2, 196033, Note_on_c, 0, 57, 57
2, 196040, Note_on_c, 0, 79, 65
2, 196041, Note_on_c, 0, 76, 64
2, 196090, Note_off_c, 0, 79, 56
2, 196113, Note_on_c, 0, 81, 66
2, 196181, Note_off_c, 0, 81, 56
2, 196191, Note_on_c, 0, 79, 67
2, 196258, Note_off_c, 0, 79, 57
2, 196271, Note_off_c, 0, 57, 54
2, 196271, Note_on_c, 0, 77, 74
2, 196273, Note_on_c, 0, 55, 56
2, 196391, Note_off_c, 0, 77, 59
2, 196391, Note_on_c, 0, 79, 76
2, 196527, Note_off_c, 0, 79, 59
2, 196530, Note_off_c, 0, 55, 54
2, 196533, Note_on_c, 0, 81, 79
2, 196536, Note_on_c, 0, 53, 55
2, 196537, Note_off_c, 0, 76, 56
2, 196540, Note_on_c, 0, 69, 70
2, 196770, Note_off_c, 0, 81, 60
2, 196771, Note_off_c, 0, 53, 53
2, 196775, Note_on_c, 0, 52, 54
2, 196776, Note_on_c, 0, 73, 79
2, 197027, Note_on_c, 0, 74, 76
2, 197030, Note_off_c, 0, 73, 60
2, 197032, Note_off_c, 0, 52, 53
2, 197034, Note_off_c, 0, 69, 57
2, 197035, Note_on_c, 0, 57, 53
2, 197039, Note_on_c, 0, 53, 46
2, 197264, Note_off_c, 0, 74, 59
2, 197266, Note_on_c, 0, 50, 52
2, 197274, Note_off_c, 0, 53, 51
2, 197274, Note_on_c, 0, 79, 84
2, 197522, Note_off_c, 0, 50, 53
2, 197523, Note_on_c, 0, 76, 81
2, 197527, Note_off_c, 0, 57, 53
2, 197528, Note_off_c, 0, 79, 61
2, 197529, Note_on_c, 0, 59, 51
2, 197532, Note_on_c, 0, 55, 46
2, 197571, Note_off_c, 0, 76, 60
2, 197574, Note_on_c, 0, 77, 80
2, 197641, Note_off_c, 0, 77, 60
2, 197641, Note_on_c, 0, 76, 80
2, 197711, Note_off_c, 0, 76, 60
2, 197711, Note_on_c, 0, 77, 79
2, 197761, Note_off_c, 0, 77, 60
2, 197761, Note_on_c, 0, 76, 78
2, 197831, Note_off_c, 0, 76, 59
2, 197831, Note_on_c, 0, 77, 77
2, 197881, Note_off_c, 0, 77, 59
2, 197881, Note_on_c, 0, 76, 76
2, 197951, Note_off_c, 0, 76, 59
2, 197951, Note_on_c, 0, 77, 75
2, 198018, Note_off_c, 0, 77, 59
2, 198018, Note_on_c, 0, 76, 75
2, 198023, Note_off_c, 0, 59, 52
2, 198026, Note_off_c, 0, 55, 51
2, 198029, Note_on_c, 0, 57, 52
2, 198030, Note_on_c, 0, 64, 68
2, 198031, Note_on_c, 0, 61, 49
2, 198071, Note_off_c, 0, 76, 59
2, 198071, Note_on_c, 0, 77, 67
2, 198138, Note_off_c, 0, 77, 57
2, 198138, Note_on_c, 0, 76, 66
2, 198207, Note_off_c, 0, 76, 56
2, 198258, Note_on_c, 0, 74, 62
2, 198452, Note_off_c, 0, 74, 55
2, 198489, Note_off_c, 0, 57, 53
2, 198510, Note_off_c, 0, 64, 57
2, 198510, Note_off_c, 0, 61, 52
2, 198515, Note_on_c, 0, 74, 58
2, 198523, Note_on_c, 0, 62, 41
2, 198526, Note_on_c, 0, 50, 48
2, 198527, Note_on_c, 0, 66, 50
2, 199011, Note_off_c, 0, 74, 54
2, 199014, Note_on_c, 0, 67, 52
2, 199024, Note_off_c, 0, 66, 52
2, 199254, Note_on_c, 0, 64, 49
2, 199257, Note_off_c, 0, 62, 50
2, 199371, Note_off_c, 0, 64, 52
2, 199374, Note_on_c, 0, 62, 50
2, 199508, Note_off_c, 0, 67, 53
2, 199511, Note_off_c, 0, 62, 52
2, 199511, Note_on_c, 0, 69, 48
2, 199513, Note_on_c, 0, 60, 50
2, 200005, Note_off_c, 0, 60, 52
2, 200007, Note_on_c, 0, 66, 53
2, 200245, Note_off_c, 0, 69, 52
2, 200247, Note_on_c, 0, 71, 48
2, 200365, Note_off_c, 0, 71, 52
2, 200367, Note_on_c, 0, 69, 48
2, 200504, Note_off_c, 0, 66, 53
2, 200504, Note_off_c, 0, 69, 52
2, 200504, Note_on_c, 0, 67, 48
2, 200507, Note_on_c, 0, 59, 56
2, 200744, Note_on_c, 0, 52, 57
2, 200753, Note_off_c, 0, 50, 52
2, 201001, Note_off_c, 0, 67, 52
2, 201001, Note_off_c, 0, 59, 54
2, 201003, Note_off_c, 0, 52, 54
2, 201003, Note_on_c, 0, 72, 52
2, 201003, Note_on_c, 0, 64, 46
2, 201006, Note_on_c, 0, 50, 58
2, 201241, Note_on_c, 0, 48, 60
2, 201263, Note_off_c, 0, 50, 54
2, 201498, Note_off_c, 0, 72, 53
2, 201500, Note_off_c, 0, 48, 55
2, 201504, Note_on_c, 0, 66, 55
2, 201508, Note_on_c, 0, 47, 60
2, 201677, Note_off_c, 0, 66, 53
2, 201738, Note_off_c, 0, 64, 51
2, 201742, Note_on_c, 0, 66, 48
2, 201749, Note_on_c, 0, 45, 60
2, 201768, Note_off_c, 0, 47, 55
2, 201997, Note_off_c, 0, 66, 52
2, 201999, Note_on_c, 0, 43, 60
2, 202003, Note_on_c, 0, 71, 58
2, 202007, Note_on_c, 0, 64, 46
2, 202035, Note_off_c, 0, 45, 55
2, 202245, Note_off_c, 0, 64, 51
2, 202245, Note_on_c, 0, 42, 60
2, 202246, Note_on_c, 0, 62, 46
2, 202276, Note_off_c, 0, 43, 55
2, 202500, Note_off_c, 0, 62, 51
2, 202501, Note_on_c, 0, 40, 60
2, 202511, Note_on_c, 0, 60, 58
2, 202547, Note_off_c, 0, 42, 55
2, 202731, Note_on_c, 0, 72, 55
2, 202737, Note_off_c, 0, 71, 54
2, 202988, Note_off_c, 0, 72, 53
2, 202995, Note_off_c, 0, 40, 55
2, 203000, Note_on_c, 0, 52, 60
2, 203001, Note_on_c, 0, 71, 46
2, 203228, Note_on_c, 0, 69, 58
2, 203237, Note_off_c, 0, 71, 51
2, 203477, Note_off_c, 0, 52, 55
2, 203480, Note_on_c, 0, 67, 56
2, 203481, Note_on_c, 0, 54, 60
2, 203492, Note_off_c, 0, 69, 54
2, 203727, Note_on_c, 0, 66, 53
2, 203754, Note_off_c, 0, 67, 54
2, 203970, Note_off_c, 0, 66, 53
2, 203970, Note_on_c, 0, 55, 48
2, 203974, Note_on_c, 0, 67, 51
2, 203974, Note_on_c, 0, 64, 40
2, 203977, Note_off_c, 0, 54, 55
2, 204224, Note_on_c, 0, 62, 38
2, 204229, Note_off_c, 0, 64, 50
2, 204464, Note_off_c, 0, 62, 64
2, 204469, Note_off_c, 0, 67, 52
2, 204470, Note_on_c, 0, 69, 48
2, 204471, Note_on_c, 0, 64, 40
2, 204721, Note_on_c, 0, 62, 49
2, 204736, Note_off_c, 0, 60, 54
2, 204961, Note_off_c, 0, 62, 52
2, 204961, Note_off_c, 0, 55, 52
2, 204965, Note_off_c, 0, 69, 52
2, 204968, Note_on_c, 0, 57, 44
2, 204972, Note_on_c, 0, 71, 52
2, 204972, Note_on_c, 0, 60, 46
2, 205218, Note_on_c, 0, 59, 52
2, 205220, Note_on_c, 0, 55, 52
2, 205223, Note_off_c, 0, 57, 51
2, 205224, Note_off_c, 0, 60, 51
2, 205458, Note_off_c, 0, 59, 53
2, 205460, Note_off_c, 0, 55, 53
2, 205460, Note_on_c, 0, 72, 56
2, 205460, Note_on_c, 0, 62, 56
2, 205463, Note_on_c, 0, 57, 54
2, 205463, Note_on_c, 0, 54, 54
2, 205464, Note_off_c, 0, 71, 53
2, 205465, Note_off_c, 0, 64, 50
2, 205715, Note_off_c, 0, 57, 53
2, 205715, Note_on_c, 0, 55, 56
2, 205952, Note_off_c, 0, 55, 54
2, 205955, Note_off_c, 0, 54, 53
2, 205955, Note_on_c, 0, 57, 57
2, 205957, Note_on_c, 0, 50, 57
2, 206211, Note_off_c, 0, 72, 54
2, 206211, Note_off_c, 0, 57, 54
2, 206214, Note_on_c, 0, 74, 60
2, 206214, Note_on_c, 0, 54, 59
2, 206331, Note_off_c, 0, 74, 55
2, 206331, Note_on_c, 0, 72, 60
2, 206451, Note_off_c, 0, 54, 54
2, 206451, Note_off_c, 0, 72, 55
2, 206451, Note_off_c, 0, 50, 54
2, 206454, Note_on_c, 0, 55, 60
2, 206454, Note_on_c, 0, 71, 60
2, 206708, Note_off_c, 0, 62, 54
2, 206708, Note_on_c, 0, 69, 58
2, 206948, Note_off_c, 0, 71, 55
2, 206948, Note_off_c, 0, 69, 54
2, 206948, Note_on_c, 0, 76, 57
2, 206951, Note_on_c, 0, 59, 60
2, 206951, Note_on_c, 0, 67, 57
2, 207205, Note_off_c, 0, 67, 54
2, 207205, Note_on_c, 0, 65, 56
2, 207445, Note_off_c, 0, 76, 54
2, 207445, Note_off_c, 0, 65, 54
2, 207447, Note_off_c, 0, 59, 55
2, 207447, Note_on_c, 0, 64, 54
2, 207447, Note_on_c, 0, 69, 49
2, 207450, Note_on_c, 0, 60, 63
2, 207702, Note_off_c, 0, 64, 53
2, 207702, Note_on_c, 0, 67, 53
2, 207942, Note_off_c, 0, 69, 52
2, 207942, Note_off_c, 0, 67, 53
2, 207944, Note_off_c, 0, 60, 55
2, 207944, Note_on_c, 0, 65, 48
2, 207944, Note_on_c, 0, 74, 51
2, 207947, Note_on_c, 0, 62, 66
2, 208199, Note_off_c, 0, 65, 52
2, 208199, Note_on_c, 0, 69, 50
2, 208439, Note_off_c, 0, 62, 56
2, 208439, Note_off_c, 0, 69, 52
2, 208441, Note_on_c, 0, 64, 70
2, 208441, Note_on_c, 0, 67, 48
2, 208695, Note_off_c, 0, 74, 52
2, 208695, Note_on_c, 0, 76, 48
2, 208935, Note_on_c, 0, 74, 49
2, 208961, Note_off_c, 0, 76, 52
2, 209195, Note_off_c, 0, 64, 57
2, 209195, Note_on_c, 0, 65, 70
2, 209195, Note_on_c, 0, 72, 51
2, 209200, Note_off_c, 0, 74, 52
2, 209312, Note_off_c, 0, 65, 57
2, 209315, Note_on_c, 0, 64, 72
2, 209435, Note_off_c, 0, 64, 58
2, 209443, Note_on_c, 0, 71, 53
2, 209444, Note_on_c, 0, 62, 70
2, 209476, Note_off_c, 0, 72, 52
2, 209691, Note_off_c, 0, 67, 52
2, 209695, Note_on_c, 0, 69, 46
2, 209701, Note_on_c, 0, 72, 50
2, 209721, Note_off_c, 0, 71, 53
2, 209934, Note_on_c, 0, 74, 56
2, 209935, Note_off_c, 0, 69, 51
2, 209938, Note_on_c, 0, 67, 62
2, 209940, Note_off_c, 0, 62, 57
2, 209944, Note_on_c, 0, 70, 47
2, 209974, Note_off_c, 0, 72, 52
2, 210196, Note_on_c, 0, 76, 58
2, 210228, Note_off_c, 0, 74, 54
2, 210428, Note_on_c, 0, 72, 49
2, 210431, Note_off_c, 0, 55, 55
2, 210432, Note_off_c, 0, 67, 55
2, 210432, Note_on_c, 0, 60, 46
2, 210438, Note_off_c, 0, 70, 51
2, 210441, Note_on_c, 0, 77, 60
2, 210443, Note_on_c, 0, 57, 53
2, 210465, Note_off_c, 0, 76, 54
2, 210685, Note_on_c, 0, 79, 57
2, 210693, Note_off_c, 0, 77, 55
2, 210923, Note_off_c, 0, 79, 54
2, 210924, Note_off_c, 0, 60, 51
2, 210925, Note_on_c, 0, 81, 60
2, 210927, Note_on_c, 0, 65, 48
2, 211182, Note_off_c, 0, 81, 55
2, 211182, Note_on_c, 0, 79, 58
2, 211419, Note_off_c, 0, 72, 52
2, 211422, Note_off_c, 0, 79, 54
2, 211427, Note_on_c, 0, 59, 50
2, 211430, Note_on_c, 0, 74, 45
2, 211432, Note_off_c, 0, 57, 53
2, 211434, Note_on_c, 0, 77, 56
2, 211679, Note_off_c, 0, 65, 52
2, 211683, Note_on_c, 0, 76, 54
2, 211685, Note_on_c, 0, 67, 52
2, 211689, Note_off_c, 0, 77, 54
2, 211860, Note_off_c, 0, 67, 53
2, 211875, Note_off_c, 0, 74, 51
2, 211901, Note_off_c, 0, 76, 53
2, 211925, Note_on_c, 0, 65, 55
2, 211926, Note_on_c, 0, 67, 45
2, 211930, Note_on_c, 0, 60, 50
2, 211933, Note_on_c, 0, 74, 52
2, 211970, Note_off_c, 0, 59, 52
2, 212180, Note_on_c, 0, 64, 57
2, 212181, Note_off_c, 0, 65, 53
2, 212183, Note_on_c, 0, 72, 50
2, 212189, Note_off_c, 0, 74, 53
2, 212350, Note_off_c, 0, 67, 51
2, 212417, Note_on_c, 0, 67, 45
2, 212420, Note_off_c, 0, 64, 54
2, 212420, Note_off_c, 0, 72, 52
2, 212425, Note_on_c, 0, 62, 50
2, 212427, Note_off_c, 0, 60, 52
2, 212427, Note_on_c, 0, 71, 48
2, 212429, Note_on_c, 0, 53, 60
2, 212672, Note_on_c, 0, 57, 61
2, 212681, Note_off_c, 0, 53, 55
2, 212912, Note_off_c, 0, 57, 55
2, 212912, Note_on_c, 0, 55, 59
2, 213169, Note_off_c, 0, 55, 54
2, 213169, Note_on_c, 0, 53, 58
2, 213410, Note_on_c, 0, 64, 57
2, 213411, Note_off_c, 0, 53, 54
2, 213411, Note_on_c, 0, 72, 51
2, 213414, Note_off_c, 0, 62, 52
2, 213416, Note_on_c, 0, 52, 52
2, 213418, Note_off_c, 0, 71, 52
2, 213666, Note_on_c, 0, 50, 56
2, 213668, Note_off_c, 0, 52, 53
2, 213903, Note_off_c, 0, 67, 51
2, 213904, Note_off_c, 0, 64, 54
2, 213906, Note_off_c, 0, 72, 52
2, 213908, Note_off_c, 0, 50, 54
2, 213913, Note_on_c, 0, 48, 55
2, 213917, Note_on_c, 0, 74, 54
2, 213920, Note_on_c, 0, 62, 55
2, 213921, Note_on_c, 0, 65, 50
2, 214163, Note_off_c, 0, 48, 53
2, 214165, Note_on_c, 0, 47, 54
2, 214403, Note_off_c, 0, 47, 53
2, 214405, Note_on_c, 0, 67, 58
2, 214405, Note_on_c, 0, 48, 53
2, 214409, Note_off_c, 0, 74, 53
2, 214659, Note_off_c, 0, 48, 53
2, 214662, Note_on_c, 0, 50, 52
2, 214899, Note_off_c, 0, 67, 54
2, 214902, Note_off_c, 0, 50, 53
2, 214909, Note_on_c, 0, 52, 51
2, 214911, Note_off_c, 0, 62, 53
2, 214912, Note_off_c, 0, 65, 52
2, 214914, Note_on_c, 0, 72, 60
2, 214914, Note_on_c, 0, 64, 50
2, 214916, Note_on_c, 0, 55, 47
2, 215158, Note_off_c, 0, 52, 52
2, 215159, Note_on_c, 0, 53, 50
2, 215310, Note_off_c, 0, 55, 51
2, 215382, Note_off_c, 0, 53, 52
2, 215389, Note_off_c, 0, 64, 52
2, 215396, Note_on_c, 0, 62, 48
2, 215399, Note_on_c, 0, 55, 45
2, 215903, Note_off_c, 0, 72, 55
2, 215903, Note_on_c, 0, 43, 48
2, 215905, Note_on_c, 0, 71, 60
2, 216392, Note_off_c, 0, 62, 52
2, 216396, Note_on_c, 0, 72, 60
2, 216400, Note_off_c, 0, 43, 52
2, 216400, Note_on_c, 0, 64, 50
2, 216402, Note_off_c, 0, 71, 55
2, 216403, Note_on_c, 0, 48, 52
2, 216825, Note_off_c, 0, 48, 53
2, 216872, Note_off_c, 0, 55, 51
2, 216875, Note_off_c, 0, 64, 52
2, 216893, Note_on_c, 0, 69, 62
2, 216894, Note_on_c, 0, 48, 56
2, 217387, Note_off_c, 0, 72, 55
2, 217389, Note_on_c, 0, 50, 60
2, 217390, Note_on_c, 0, 71, 64
2, 217879, Note_on_c, 0, 67, 56
2, 217887, Note_off_c, 0, 69, 55
2, 217887, Note_off_c, 0, 71, 56
2, 217887, Note_on_c, 0, 52, 64
2, 217888, Note_off_c, 0, 50, 55
2, 217893, Note_on_c, 0, 70, 67
2, 218379, Note_off_c, 0, 52, 56
2, 218387, Note_off_c, 0, 70, 57
2, 218388, Note_on_c, 0, 69, 69
2, 218389, Note_on_c, 0, 53, 68
2, 218870, Note_off_c, 0, 67, 54
2, 218882, Note_off_c, 0, 69, 57
2, 218885, Note_on_c, 0, 65, 60
2, 218887, Note_on_c, 0, 74, 72
2, 219135, Note_on_c, 0, 55, 65
2, 219140, Note_off_c, 0, 53, 57
2, 219253, Note_off_c, 0, 55, 56
2, 219253, Note_on_c, 0, 53, 72
2, 219373, Note_off_c, 0, 53, 58
2, 219375, Note_on_c, 0, 52, 71
2, 219375, Note_on_c, 0, 67, 60
2, 219379, Note_off_c, 0, 65, 55
2, 219872, Note_off_c, 0, 67, 55
2, 219872, Note_off_c, 0, 52, 58
2, 219872, Note_on_c, 0, 72, 48
2, 219875, Note_on_c, 0, 57, 66
2, 219875, Note_on_c, 0, 69, 40
2, 219878, Note_off_c, 0, 74, 58
2, 220367, Note_off_c, 0, 72, 52
2, 220369, Note_off_c, 0, 57, 56
2, 220369, Note_off_c, 0, 69, 50
2, 220371, Note_on_c, 0, 50, 60
2, 220371, Note_on_c, 0, 74, 48
2, 220371, Note_on_c, 0, 70, 40
2, 220883, Note_off_c, 0, 50, 55
2, 220883, Note_off_c, 0, 74, 52
2, 220883, Note_on_c, 0, 76, 53
2, 220885, Note_on_c, 0, 55, 60
2, 221139, Note_off_c, 0, 70, 50
2, 221139, Note_on_c, 0, 72, 56
2, 221259, Note_off_c, 0, 72, 54
2, 221259, Note_on_c, 0, 70, 57
2, 221396, Note_off_c, 0, 76, 53
2, 221396, Note_off_c, 0, 70, 54
2, 221398, Note_on_c, 0, 77, 58
2, 221404, Note_on_c, 0, 69, 50
2, 221653, Note_off_c, 0, 55, 55
2, 221653, Note_on_c, 0, 57, 63
2, 221915, Note_off_c, 0, 69, 52
2, 221918, Note_on_c, 0, 55, 60
2, 221920, Note_on_c, 0, 74, 64
2, 221947, Note_off_c, 0, 57, 55
2, 222186, Note_on_c, 0, 53, 66
2, 222239, Note_off_c, 0, 55, 55
2, 222448, Note_off_c, 0, 74, 56
2, 222449, Note_on_c, 0, 67, 69
2, 222455, Note_on_c, 0, 52, 67
2, 222466, Note_off_c, 0, 53, 56
2, 222715, Note_off_c, 0, 77, 54
2, 222720, Note_on_c, 0, 50, 68
2, 222725, Note_on_c, 0, 81, 72
2, 222768, Note_off_c, 0, 52, 57
2, 222979, Note_off_c, 0, 81, 58
2, 222979, Note_off_c, 0, 67, 57
2, 222984, Note_on_c, 0, 79, 65
2, 222985, Note_on_c, 0, 72, 72
2, 222985, Note_on_c, 0, 52, 69
2, 222988, Note_off_c, 0, 50, 57
2, 223249, Note_on_c, 0, 77, 71
2, 223249, Note_on_c, 0, 53, 70
2, 223256, Note_off_c, 0, 79, 56
2, 223300, Note_off_c, 0, 52, 57
2, 223520, Note_off_c, 0, 77, 58
2, 223524, Note_on_c, 0, 76, 69
2, 223533, Note_on_c, 0, 55, 72
2, 223572, Note_off_c, 0, 53, 57
2, 223797, Note_off_c, 0, 76, 57
2, 223806, Note_off_c, 0, 72, 58
2, 223808, Note_on_c, 0, 77, 67
2, 223811, Note_on_c, 0, 57, 72
2, 223819, Note_on_c, 0, 74, 60
2, 223839, Note_off_c, 0, 55, 58
2, 224025, Note_off_c, 0, 74, 55
2, 224072, Note_on_c, 0, 76, 66
2, 224079, Note_off_c, 0, 77, 57
2, 224082, Note_on_c, 0, 58, 70
2, 224085, Note_on_c, 0, 72, 60
2, 224094, Note_off_c, 0, 57, 58
2, 224291, Note_off_c, 0, 72, 55
2, 224343, Note_off_c, 0, 76, 56
2, 224346, Note_on_c, 0, 74, 64
2, 224353, Note_on_c, 0, 55, 68
2, 224358, Note_on_c, 0, 70, 60
2, 224382, Note_off_c, 0, 58, 57
2, 224617, Note_off_c, 0, 74, 56
2, 224621, Note_on_c, 0, 57, 66
2, 224627, Note_on_c, 0, 69, 58
2, 224629, Note_off_c, 0, 70, 55
2, 224629, Note_on_c, 0, 72, 62
2, 224677, Note_off_c, 0, 55, 57
2, 224877, Note_on_c, 0, 52, 64
2, 224879, Note_off_c, 0, 69, 54
2, 224881, Note_on_c, 0, 70, 60
2, 224885, Note_off_c, 0, 57, 56
2, 225138, Note_off_c, 0, 70, 55
2, 225138, Note_on_c, 0, 53, 62
2, 225143, Note_on_c, 0, 69, 59
2, 225156, Note_off_c, 0, 52, 56
2, 225391, Note_on_c, 0, 55, 59
2, 225400, Note_off_c, 0, 69, 54
2, 225400, Note_on_c, 0, 67, 50
2, 225430, Note_off_c, 0, 53, 55
2, 225671, Note_on_c, 0, 57, 50
2, 225673, Note_off_c, 0, 67, 52
2, 225675, Note_on_c, 0, 65, 55
2, 225676, Note_off_c, 0, 55, 54
2, 225932, Note_on_c, 0, 59, 55
2, 225932, Note_on_c, 0, 67, 48
2, 225933, Note_off_c, 0, 65, 53
2, 225962, Note_off_c, 0, 57, 52
2, 226198, Note_on_c, 0, 65, 52
2, 226203, Note_off_c, 0, 67, 52
2, 226208, Note_on_c, 0, 60, 53
2, 226220, Note_off_c, 0, 59, 53
2, 226489, Note_off_c, 0, 65, 53
2, 226492, Note_on_c, 0, 57, 51
2, 226494, Note_on_c, 0, 64, 45
2, 226496, Note_off_c, 0, 60, 53
2, 226779, Note_on_c, 0, 62, 48
2, 226782, Note_off_c, 0, 64, 51
2, 226782, Note_off_c, 0, 57, 52
2, 226782, Note_on_c, 0, 59, 40
2, 226787, Note_off_c, 0, 72, 55
2, 227070, Note_on_c, 0, 67, 48
2, 227207, Note_on_c, 0, 69, 49
2, 227227, Note_off_c, 0, 67, 52
2, 227360, Note_on_c, 0, 71, 51
2, 227361, Note_off_c, 0, 69, 52
2, 227670, Note_on_c, 0, 72, 54
2, 227723, Note_off_c, 0, 71, 52
2, 227977, Note_on_c, 0, 74, 57
2, 227983, Note_off_c, 0, 72, 53
2, 228303, Note_on_c, 0, 76, 60
2, 228336, Note_off_c, 0, 74, 54
2, 228630, Note_on_c, 0, 77, 60
2, 228641, Note_off_c, 0, 76, 55
2, 228954, Note_off_c, 0, 62, 52
2, 228954, Note_on_c, 0, 67, 48
2, 229297, Note_off_c, 0, 59, 50
2, 229297, Note_off_c, 0, 67, 52
2, 229299, Note_on_c, 0, 69, 48
2, 229299, Note_on_c, 0, 60, 24
2, 229467, Note_off_c, 0, 77, 55
2, 229470, Note_on_c, 0, 72, 48
2, 229657, Note_on_c, 0, 74, 47
2, 229664, Note_off_c, 0, 72, 52
2, 229830, Note_on_c, 0, 76, 46
2, 229848, Note_off_c, 0, 74, 51
2, 230017, Note_on_c, 0, 77, 45
2, 230049, Note_off_c, 0, 76, 51
2, 230360, Note_on_c, 0, 79, 44
2, 230376, Note_off_c, 0, 77, 51
2, 230720, Note_on_c, 0, 81, 42
2, 230758, Note_off_c, 0, 79, 51
2, 230956, Note_off_c, 0, 69, 52
2, 231200, Note_on_c, 0, 77, 41
2, 231661, Note_off_c, 0, 77, 50
2, 231663, Note_on_c, 0, 74, 39
2, 232127, Note_on_c, 0, 83, 38
2, 232240, Note_off_c, 0, 81, 50
2, 232700, Note_on_c, 0, 84, 36
2, 232707, Note_off_c, 0, 83, 64
2, 232707, Note_off_c, 0, 74, 64
2, 232710, Note_on_c, 0, 79, 30
2, 232712, Note_on_c, 0, 76, 24
2, 235875, Note_off_c, 0, 76, 46
2, 235924, Note_off_c, 0, 79, 47
2, 236295, Note_off_c, 0, 60, 46
2, 236485, Note_off_c, 0, 84, 64
2, 236504, Note_off_c, 0, 48, 54
2, 236504, End_track
3, 0, Start_track
3, 0, Title_t, "Prelude & Fugue in C major"
3, 0, Channel_prefix, 1
3, 0, End_track
4, 0, Start_track
4, 0, Title_t, "Well Tempered Clavier Book I"
4, 0, Channel_prefix, 2
4, 0, End_track
5, 0, Start_track
5, 0, Title_t, "BWV 846"
5, 0, Channel_prefix, 3
5, 0, End_track
6, 0, Start_track
6, 0, Title_t, "Sequence by Richard Carlson"
6, 0, Channel_prefix, 4
6, 0, End_track
7, 0, Start_track
7, 0, Title_t, "Copyright  1999"
7, 0, Channel_prefix, 5
7, 0, End_track
0, 0, End_of_file
