0, 0, Header, 1, 7, 480
1, 0, Start_track
1, 0, Title_t, "Seq-1"
1, 0, SMPTE_offset, 96, 0, 0, 0, 0
1, 0, Time_signature, 4, 2, 24, 8
1, 0, Tempo, 500000
1, 89980, Tempo, 444444
1, 104680, Tempo, 454284
1, 104700, Tempo, 491803
1, 104700, End_track
2, 0, Start_track
2, 0, Title_t, "Johann Sebastian Bach"
2, 0, Control_c, 0, 7, 127
2, 130, Control_c, 0, 11, 86
2, 175, Note_on_c, 0, 48, 71
2, 185, Note_on_c, 0, 72, 88
2, 322, Note_on_c, 0, 55, 51
2, 323, Note_on_c, 0, 63, 61
2, 400, Note_off_c, 0, 55, 52
2, 403, Note_off_c, 0, 63, 55
2, 448, Note_off_c, 0, 48, 58
2, 458, Note_off_c, 0, 72, 62
2, 462, Note_on_c, 0, 62, 62
2, 464, Note_on_c, 0, 53, 52
2, 557, Note_off_c, 0, 53, 53
2, 561, Note_off_c, 0, 62, 55
2, 610, Note_on_c, 0, 55, 50
2, 615, Note_on_c, 0, 63, 62
2, 690, Note_off_c, 0, 55, 52
2, 698, Note_off_c, 0, 63, 55
2, 745, Note_on_c, 0, 60, 57
2, 750, Note_on_c, 0, 51, 45
2, 823, Note_off_c, 0, 60, 54
2, 832, Note_off_c, 0, 51, 51
2, 907, Note_on_c, 0, 63, 57
2, 908, Note_on_c, 0, 55, 43
2, 985, Note_off_c, 0, 63, 54
2, 988, Note_off_c, 0, 55, 50
2, 1037, Note_on_c, 0, 62, 55
2, 1042, Note_on_c, 0, 53, 40
2, 1112, Note_off_c, 0, 53, 50
2, 1121, Note_off_c, 0, 62, 53
2, 1177, Note_on_c, 0, 63, 52
2, 1177, Note_on_c, 0, 55, 40
2, 1261, Note_off_c, 0, 63, 53
2, 1264, Note_off_c, 0, 55, 50
2, 1332, Note_on_c, 0, 72, 88
2, 1334, Note_on_c, 0, 48, 76
2, 1465, Note_on_c, 0, 55, 52
2, 1468, Note_on_c, 0, 63, 64
2, 1532, Note_off_c, 0, 55, 53
2, 1537, Note_off_c, 0, 63, 56
2, 1611, Note_on_c, 0, 53, 51
2, 1624, Note_on_c, 0, 62, 62
2, 1627, Note_off_c, 0, 48, 59
2, 1752, Note_off_c, 0, 53, 52
2, 1761, Note_on_c, 0, 63, 62
2, 1763, Note_off_c, 0, 62, 55
2, 1766, Note_on_c, 0, 55, 49
2, 1898, Note_on_c, 0, 60, 60
2, 1901, Note_on_c, 0, 51, 48
2, 1911, Note_off_c, 0, 63, 55
2, 1918, Note_off_c, 0, 55, 52
2, 1982, Note_off_c, 0, 60, 55
2, 1985, Note_off_c, 0, 51, 52
2, 2044, Note_on_c, 0, 63, 57
2, 2048, Note_on_c, 0, 55, 44
2, 2182, Note_on_c, 0, 62, 55
2, 2182, Note_on_c, 0, 53, 43
2, 2207, Note_off_c, 0, 55, 51
2, 2214, Note_off_c, 0, 63, 54
2, 2341, Note_on_c, 0, 63, 52
2, 2344, Note_on_c, 0, 55, 40
2, 2356, Note_off_c, 0, 62, 53
2, 2378, Note_off_c, 0, 53, 50
2, 2476, Note_on_c, 0, 68, 72
2, 2477, Note_off_c, 0, 63, 53
2, 2478, Note_off_c, 0, 55, 50
2, 2487, Note_on_c, 0, 48, 62
2, 2500, Note_off_c, 0, 72, 62
2, 2621, Note_on_c, 0, 65, 61
2, 2621, Note_on_c, 0, 56, 52
2, 2712, Note_off_c, 0, 65, 55
2, 2721, Note_off_c, 0, 56, 53
2, 2767, Note_off_c, 0, 68, 58
2, 2770, Note_on_c, 0, 55, 49
2, 2775, Note_off_c, 0, 48, 55
2, 2776, Note_on_c, 0, 64, 64
2, 2853, Note_off_c, 0, 55, 52
2, 2854, Note_off_c, 0, 64, 56
2, 2905, Note_on_c, 0, 56, 49
2, 2907, Note_on_c, 0, 65, 61
2, 2983, Note_off_c, 0, 65, 55
2, 2984, Note_off_c, 0, 56, 52
2, 3063, Note_on_c, 0, 60, 57
2, 3064, Note_on_c, 0, 53, 43
2, 3148, Note_off_c, 0, 53, 50
2, 3150, Note_off_c, 0, 60, 54
2, 3200, Note_on_c, 0, 56, 42
2, 3202, Note_on_c, 0, 65, 57
2, 3279, Note_off_c, 0, 65, 54
2, 3283, Note_off_c, 0, 56, 50
2, 3327, Note_on_c, 0, 55, 40
2, 3332, Note_on_c, 0, 64, 55
2, 3424, Note_off_c, 0, 55, 50
2, 3432, Note_off_c, 0, 64, 53
2, 3489, Note_on_c, 0, 56, 39
2, 3492, Note_on_c, 0, 65, 51
2, 3574, Note_off_c, 0, 56, 49
2, 3575, Note_off_c, 0, 65, 52
2, 3627, Note_on_c, 0, 48, 60
2, 3631, Note_on_c, 0, 68, 72
2, 3782, Note_on_c, 0, 65, 60
2, 3785, Note_on_c, 0, 56, 48
2, 3852, Note_off_c, 0, 65, 55
2, 3852, Note_off_c, 0, 56, 52
2, 3919, Note_off_c, 0, 48, 55
2, 3921, Note_on_c, 0, 55, 48
2, 3923, Note_on_c, 0, 64, 60
2, 4053, Note_on_c, 0, 65, 58
2, 4060, Note_on_c, 0, 56, 46
2, 4076, Note_off_c, 0, 64, 55
2, 4095, Note_off_c, 0, 55, 52
2, 4207, Note_off_c, 0, 65, 54
2, 4211, Note_off_c, 0, 56, 51
2, 4213, Note_on_c, 0, 53, 44
2, 4215, Note_on_c, 0, 60, 56
2, 4280, Note_off_c, 0, 53, 51
2, 4280, Note_off_c, 0, 60, 54
2, 4351, Note_on_c, 0, 65, 54
2, 4351, Note_on_c, 0, 56, 45
2, 4503, Note_on_c, 0, 64, 55
2, 4506, Note_on_c, 0, 55, 43
2, 4544, Note_off_c, 0, 65, 53
2, 4552, Note_off_c, 0, 56, 51
2, 4640, Note_on_c, 0, 56, 36
2, 4643, Note_on_c, 0, 65, 48
2, 4657, Note_off_c, 0, 55, 50
2, 4670, Note_off_c, 0, 64, 53
2, 4774, Note_off_c, 0, 56, 49
2, 4775, Note_on_c, 0, 71, 84
2, 4778, Note_off_c, 0, 65, 52
2, 4781, Note_on_c, 0, 48, 72
2, 4840, Note_off_c, 0, 68, 58
2, 4930, Note_on_c, 0, 65, 64
2, 4933, Note_on_c, 0, 56, 52
2, 4997, Note_off_c, 0, 65, 56
2, 5000, Note_off_c, 0, 56, 53
2, 5062, Note_on_c, 0, 63, 63
2, 5072, Note_on_c, 0, 55, 50
2, 5134, Note_off_c, 0, 63, 55
2, 5141, Note_off_c, 0, 55, 52
2, 5218, Note_on_c, 0, 65, 59
2, 5219, Note_on_c, 0, 56, 48
2, 5286, Note_off_c, 0, 56, 52
2, 5292, Note_off_c, 0, 65, 54
2, 5360, Note_on_c, 0, 62, 60
2, 5362, Note_on_c, 0, 53, 47
2, 5429, Note_off_c, 0, 53, 51
2, 5433, Note_off_c, 0, 62, 55
2, 5494, Note_on_c, 0, 65, 55
2, 5500, Note_on_c, 0, 56, 43
2, 5563, Note_off_c, 0, 71, 61
2, 5576, Note_off_c, 0, 65, 53
2, 5582, Note_off_c, 0, 56, 50
2, 5617, Note_off_c, 0, 48, 58
2, 5652, Note_on_c, 0, 63, 55
2, 5655, Note_on_c, 0, 55, 43
2, 5728, Note_off_c, 0, 63, 53
2, 5733, Note_off_c, 0, 55, 50
2, 5784, Note_on_c, 0, 56, 34
2, 5788, Note_on_c, 0, 65, 51
2, 5852, Note_off_c, 0, 56, 48
2, 5864, Note_off_c, 0, 65, 52
2, 5941, Note_on_c, 0, 71, 72
2, 5952, Note_on_c, 0, 48, 60
2, 6072, Note_on_c, 0, 65, 60
2, 6074, Note_on_c, 0, 56, 48
2, 6142, Note_off_c, 0, 65, 55
2, 6142, Note_off_c, 0, 56, 52
2, 6217, Note_on_c, 0, 63, 64
2, 6221, Note_on_c, 0, 55, 52
2, 6365, Note_on_c, 0, 65, 58
2, 6367, Note_on_c, 0, 56, 46
2, 6381, Note_off_c, 0, 63, 56
2, 6390, Note_off_c, 0, 55, 53
2, 6502, Note_off_c, 0, 65, 54
2, 6502, Note_off_c, 0, 56, 51
2, 6502, Note_on_c, 0, 62, 56
2, 6504, Note_on_c, 0, 53, 44
2, 6569, Note_off_c, 0, 62, 54
2, 6571, Note_off_c, 0, 53, 51
2, 6620, Note_off_c, 0, 48, 55
2, 6662, Note_on_c, 0, 65, 55
2, 6662, Note_on_c, 0, 56, 45
2, 6800, Note_on_c, 0, 63, 54
2, 6801, Note_on_c, 0, 55, 43
2, 6810, Note_off_c, 0, 65, 53
2, 6817, Note_off_c, 0, 56, 51
2, 6931, Note_on_c, 0, 65, 48
2, 6931, Note_on_c, 0, 56, 36
2, 6932, Note_off_c, 0, 55, 50
2, 6942, Note_off_c, 0, 63, 53
2, 7068, Note_off_c, 0, 65, 52
2, 7068, Note_off_c, 0, 56, 49
2, 7090, Note_on_c, 0, 72, 76
2, 7104, Note_on_c, 0, 48, 62
2, 7120, Note_off_c, 0, 71, 58
2, 7229, Note_on_c, 0, 67, 64
2, 7231, Note_on_c, 0, 51, 50
2, 7299, Note_off_c, 0, 67, 56
2, 7310, Note_off_c, 0, 51, 52
2, 7382, Note_on_c, 0, 50, 49
2, 7384, Note_on_c, 0, 65, 64
2, 7459, Note_off_c, 0, 50, 52
2, 7459, Note_off_c, 0, 65, 56
2, 7516, Note_on_c, 0, 67, 60
2, 7517, Note_on_c, 0, 51, 49
2, 7591, Note_off_c, 0, 51, 52
2, 7593, Note_off_c, 0, 67, 55
2, 7657, Note_on_c, 0, 63, 54
2, 7657, Note_on_c, 0, 55, 48
2, 7750, Note_off_c, 0, 48, 55
2, 7750, Note_off_c, 0, 55, 52
2, 7751, Note_off_c, 0, 63, 53
2, 7810, Note_on_c, 0, 51, 44
2, 7811, Note_on_c, 0, 67, 57
2, 7878, Note_off_c, 0, 51, 51
2, 7882, Note_off_c, 0, 67, 54
2, 7905, Note_off_c, 0, 72, 59
2, 7944, Note_on_c, 0, 65, 54
2, 7948, Note_on_c, 0, 50, 41
2, 8016, Note_off_c, 0, 65, 53
2, 8023, Note_off_c, 0, 50, 50
2, 8093, Note_on_c, 0, 67, 52
2, 8103, Note_on_c, 0, 51, 39
2, 8166, Note_off_c, 0, 67, 53
2, 8187, Note_off_c, 0, 51, 49
2, 8231, Note_on_c, 0, 72, 69
2, 8248, Note_on_c, 0, 48, 60
2, 8369, Note_on_c, 0, 67, 60
2, 8369, Note_on_c, 0, 51, 48
2, 8455, Note_off_c, 0, 67, 55
2, 8455, Note_off_c, 0, 51, 52
2, 8527, Note_on_c, 0, 50, 52
2, 8529, Note_on_c, 0, 65, 62
2, 8662, Note_on_c, 0, 67, 58
2, 8664, Note_on_c, 0, 51, 46
2, 8674, Note_off_c, 0, 65, 55
2, 8680, Note_off_c, 0, 50, 53
2, 8815, Note_off_c, 0, 67, 54
2, 8815, Note_off_c, 0, 51, 51
2, 8818, Note_on_c, 0, 63, 56
2, 8818, Note_on_c, 0, 55, 44
2, 8882, Note_off_c, 0, 63, 54
2, 8885, Note_off_c, 0, 55, 51
2, 8950, Note_on_c, 0, 67, 57
2, 8960, Note_on_c, 0, 51, 45
2, 9050, Note_off_c, 0, 48, 55
2, 9113, Note_on_c, 0, 65, 55
2, 9113, Note_on_c, 0, 50, 42
2, 9135, Note_off_c, 0, 67, 54
2, 9139, Note_off_c, 0, 51, 51
2, 9245, Note_on_c, 0, 67, 48
2, 9247, Note_on_c, 0, 51, 36
2, 9255, Note_off_c, 0, 50, 50
2, 9259, Note_off_c, 0, 65, 53
2, 9382, Note_off_c, 0, 67, 52
2, 9382, Note_off_c, 0, 51, 49
2, 9394, Note_on_c, 0, 75, 75
2, 9404, Note_on_c, 0, 48, 62
2, 9430, Note_off_c, 0, 72, 57
2, 9542, Note_on_c, 0, 68, 63
2, 9544, Note_on_c, 0, 60, 51
2, 9615, Note_off_c, 0, 68, 55
2, 9628, Note_off_c, 0, 60, 52
2, 9677, Note_on_c, 0, 58, 48
2, 9680, Note_on_c, 0, 67, 64
2, 9748, Note_off_c, 0, 58, 52
2, 9756, Note_off_c, 0, 67, 56
2, 9823, Note_on_c, 0, 60, 48
2, 9834, Note_on_c, 0, 68, 61
2, 9895, Note_off_c, 0, 60, 52
2, 9905, Note_off_c, 0, 68, 55
2, 9966, Note_on_c, 0, 63, 59
2, 9968, Note_on_c, 0, 56, 47
2, 10042, Note_off_c, 0, 56, 51
2, 10048, Note_off_c, 0, 63, 54
2, 10109, Note_on_c, 0, 68, 57
2, 10111, Note_on_c, 0, 60, 39
2, 10150, Note_off_c, 0, 48, 55
2, 10205, Note_off_c, 0, 68, 54
2, 10207, Note_off_c, 0, 60, 49
2, 10254, Note_on_c, 0, 67, 55
2, 10256, Note_off_c, 0, 75, 59
2, 10263, Note_on_c, 0, 58, 38
2, 10330, Note_off_c, 0, 67, 53
2, 10340, Note_off_c, 0, 58, 49
2, 10398, Note_on_c, 0, 68, 52
2, 10402, Note_on_c, 0, 60, 40
2, 10466, Note_off_c, 0, 68, 53
2, 10481, Note_off_c, 0, 60, 50
2, 10555, Note_on_c, 0, 75, 67
2, 10562, Note_on_c, 0, 48, 63
2, 10688, Note_on_c, 0, 60, 52
2, 10689, Note_on_c, 0, 68, 52
2, 10760, Note_off_c, 0, 68, 53
2, 10766, Note_off_c, 0, 60, 53
2, 10829, Note_on_c, 0, 67, 51
2, 10831, Note_on_c, 0, 58, 49
2, 10975, Note_on_c, 0, 68, 45
2, 10978, Note_on_c, 0, 60, 45
2, 11005, Note_off_c, 0, 67, 52
2, 11014, Note_off_c, 0, 58, 52
2, 11112, Note_off_c, 0, 68, 51
2, 11112, Note_off_c, 0, 60, 51
2, 11114, Note_on_c, 0, 63, 42
2, 11114, Note_on_c, 0, 56, 38
2, 11179, Note_off_c, 0, 63, 50
2, 11182, Note_off_c, 0, 56, 49
2, 11269, Note_on_c, 0, 68, 40
2, 11273, Note_on_c, 0, 60, 42
2, 11402, Note_on_c, 0, 58, 40
2, 11405, Note_on_c, 0, 67, 39
2, 11443, Note_off_c, 0, 68, 50
2, 11454, Note_off_c, 0, 60, 50
2, 11542, Note_on_c, 0, 68, 36
2, 11544, Note_on_c, 0, 60, 36
2, 11553, Note_off_c, 0, 67, 49
2, 11567, Note_off_c, 0, 58, 50
2, 11693, Note_on_c, 0, 74, 69
2, 11695, Note_off_c, 0, 68, 49
2, 11695, Note_off_c, 0, 60, 49
2, 11705, Note_on_c, 0, 46, 64
2, 11720, Note_off_c, 0, 75, 57
2, 11760, Note_off_c, 0, 48, 55
2, 11842, Note_on_c, 0, 57, 50
2, 11842, Note_on_c, 0, 66, 45
2, 11917, Note_off_c, 0, 66, 51
2, 11926, Note_off_c, 0, 57, 52
2, 11992, Note_on_c, 0, 64, 50
2, 11994, Note_on_c, 0, 55, 52
2, 12073, Note_off_c, 0, 64, 52
2, 12076, Note_off_c, 0, 55, 53
2, 12131, Note_on_c, 0, 57, 48
2, 12132, Note_on_c, 0, 66, 48
2, 12210, Note_off_c, 0, 57, 52
2, 12214, Note_off_c, 0, 66, 52
2, 12269, Note_on_c, 0, 62, 46
2, 12270, Note_on_c, 0, 54, 43
2, 12366, Note_off_c, 0, 62, 51
2, 12370, Note_off_c, 0, 54, 50
2, 12423, Note_on_c, 0, 66, 41
2, 12424, Note_on_c, 0, 57, 43
2, 12460, Note_off_c, 0, 46, 56
2, 12470, Note_off_c, 0, 74, 57
2, 12498, Note_off_c, 0, 66, 50
2, 12499, Note_off_c, 0, 57, 50
2, 12550, Note_on_c, 0, 64, 35
2, 12559, Note_on_c, 0, 55, 38
2, 12629, Note_off_c, 0, 64, 48
2, 12636, Note_off_c, 0, 55, 49
2, 12712, Note_on_c, 0, 66, 40
2, 12716, Note_on_c, 0, 57, 38
2, 12786, Note_off_c, 0, 57, 49
2, 12789, Note_off_c, 0, 66, 50
2, 12848, Note_on_c, 0, 46, 64
2, 12849, Note_on_c, 0, 74, 70
2, 12983, Note_on_c, 0, 66, 50
2, 12987, Note_on_c, 0, 57, 51
2, 13077, Note_off_c, 0, 57, 52
2, 13087, Note_off_c, 0, 66, 52
2, 13139, Note_on_c, 0, 64, 50
2, 13139, Note_on_c, 0, 55, 50
2, 13280, Note_on_c, 0, 66, 47
2, 13281, Note_on_c, 0, 57, 48
2, 13283, Note_off_c, 0, 64, 52
2, 13284, Note_off_c, 0, 55, 52
2, 13407, Note_off_c, 0, 74, 57
2, 13426, Note_on_c, 0, 62, 42
2, 13428, Note_on_c, 0, 54, 42
2, 13446, Note_off_c, 0, 57, 52
2, 13452, Note_off_c, 0, 46, 56
2, 13474, Note_off_c, 0, 66, 51
2, 13493, Note_off_c, 0, 62, 50
2, 13495, Note_off_c, 0, 54, 50
2, 13567, Note_on_c, 0, 66, 43
2, 13570, Note_on_c, 0, 57, 38
2, 13711, Note_on_c, 0, 64, 38
2, 13711, Note_on_c, 0, 55, 39
2, 13725, Note_off_c, 0, 66, 50
2, 13727, Note_off_c, 0, 57, 49
2, 13855, Note_on_c, 0, 66, 36
2, 13858, Note_on_c, 0, 57, 36
2, 13873, Note_off_c, 0, 64, 49
2, 13880, Note_off_c, 0, 55, 49
2, 13992, Note_off_c, 0, 66, 49
2, 13992, Note_off_c, 0, 57, 49
2, 14001, Note_on_c, 0, 46, 64
2, 14002, Note_on_c, 0, 74, 74
2, 14150, Note_on_c, 0, 67, 60
2, 14153, Note_on_c, 0, 58, 52
2, 14221, Note_off_c, 0, 67, 55
2, 14225, Note_off_c, 0, 58, 53
2, 14289, Note_on_c, 0, 57, 52
2, 14292, Note_on_c, 0, 66, 64
2, 14370, Note_off_c, 0, 57, 53
2, 14370, Note_off_c, 0, 66, 56
2, 14421, Note_on_c, 0, 67, 60
2, 14427, Note_on_c, 0, 58, 50
2, 14509, Note_off_c, 0, 67, 55
2, 14529, Note_off_c, 0, 58, 52
2, 14542, Note_off_c, 0, 74, 59
2, 14583, Note_on_c, 0, 62, 58
2, 14585, Note_on_c, 0, 55, 48
2, 14605, Note_off_c, 0, 46, 56
2, 14654, Note_off_c, 0, 55, 52
2, 14660, Note_off_c, 0, 62, 54
2, 14718, Note_on_c, 0, 67, 57
2, 14721, Note_on_c, 0, 58, 43
2, 14796, Note_off_c, 0, 67, 54
2, 14799, Note_off_c, 0, 58, 50
2, 14871, Note_on_c, 0, 66, 52
2, 14874, Note_on_c, 0, 57, 43
2, 14951, Note_off_c, 0, 66, 53
2, 14954, Note_off_c, 0, 57, 50
2, 15002, Note_on_c, 0, 58, 39
2, 15005, Note_on_c, 0, 67, 52
2, 15077, Note_off_c, 0, 58, 49
2, 15084, Note_off_c, 0, 67, 53
2, 15132, Note_on_c, 0, 74, 76
2, 15145, Note_on_c, 0, 46, 64
2, 15299, Note_on_c, 0, 58, 50
2, 15300, Note_on_c, 0, 67, 62
2, 15369, Note_off_c, 0, 58, 52
2, 15380, Note_off_c, 0, 67, 55
2, 15433, Note_on_c, 0, 57, 52
2, 15438, Note_on_c, 0, 66, 62
2, 15596, Note_on_c, 0, 67, 62
2, 15596, Note_on_c, 0, 58, 46
2, 15621, Note_off_c, 0, 66, 55
2, 15625, Note_off_c, 0, 57, 53
2, 15722, Note_on_c, 0, 62, 56
2, 15725, Note_on_c, 0, 55, 44
2, 15731, Note_off_c, 0, 46, 56
2, 15747, Note_off_c, 0, 67, 55
2, 15753, Note_off_c, 0, 58, 51
2, 15790, Note_off_c, 0, 62, 54
2, 15792, Note_off_c, 0, 55, 51
2, 15860, Note_on_c, 0, 67, 56
2, 15868, Note_on_c, 0, 58, 44
2, 16015, Note_on_c, 0, 57, 43
2, 16017, Note_on_c, 0, 66, 55
2, 16043, Note_off_c, 0, 67, 54
2, 16067, Note_off_c, 0, 58, 51
2, 16152, Note_on_c, 0, 67, 48
2, 16152, Note_on_c, 0, 58, 36
2, 16157, Note_off_c, 0, 57, 50
2, 16172, Note_off_c, 0, 66, 53
2, 16272, Note_off_c, 0, 67, 52
2, 16272, Note_off_c, 0, 58, 49
2, 16305, Note_on_c, 0, 72, 76
2, 16314, Note_on_c, 0, 46, 60
2, 16330, Note_off_c, 0, 74, 59
2, 16451, Note_on_c, 0, 64, 64
2, 16452, Note_on_c, 0, 55, 49
2, 16529, Note_off_c, 0, 64, 56
2, 16529, Note_off_c, 0, 55, 52
2, 16587, Note_on_c, 0, 62, 63
2, 16589, Note_on_c, 0, 53, 51
2, 16681, Note_off_c, 0, 62, 55
2, 16694, Note_off_c, 0, 53, 52
2, 16738, Note_on_c, 0, 55, 46
2, 16742, Note_on_c, 0, 64, 62
2, 16810, Note_off_c, 0, 55, 51
2, 16828, Note_off_c, 0, 64, 55
2, 16828, Note_off_c, 0, 46, 55
2, 16829, Note_off_c, 0, 72, 59
2, 16871, Note_on_c, 0, 52, 46
2, 16874, Note_on_c, 0, 60, 60
2, 16953, Note_off_c, 0, 60, 55
2, 16954, Note_off_c, 0, 52, 51
2, 17029, Note_on_c, 0, 64, 56
2, 17035, Note_on_c, 0, 55, 42
2, 17108, Note_off_c, 0, 64, 54
2, 17118, Note_off_c, 0, 55, 50
2, 17167, Note_on_c, 0, 53, 40
2, 17170, Note_on_c, 0, 62, 55
2, 17248, Note_off_c, 0, 53, 50
2, 17254, Note_off_c, 0, 62, 53
2, 17325, Note_on_c, 0, 55, 39
2, 17326, Note_on_c, 0, 64, 52
2, 17397, Note_off_c, 0, 64, 53
2, 17406, Note_off_c, 0, 55, 49
2, 17443, Note_on_c, 0, 72, 60
2, 17453, Note_on_c, 0, 46, 78
2, 17585, Note_on_c, 0, 64, 60
2, 17593, Note_on_c, 0, 55, 48
2, 17667, Note_off_c, 0, 64, 55
2, 17680, Note_off_c, 0, 55, 52
2, 17743, Note_on_c, 0, 62, 60
2, 17746, Note_on_c, 0, 53, 48
2, 17880, Note_off_c, 0, 62, 55
2, 17882, Note_off_c, 0, 53, 52
2, 17882, Note_on_c, 0, 64, 58
2, 17885, Note_on_c, 0, 55, 45
2, 18036, Note_off_c, 0, 64, 54
2, 18036, Note_off_c, 0, 55, 51
2, 18041, Note_on_c, 0, 60, 56
2, 18044, Note_on_c, 0, 52, 42
2, 18118, Note_off_c, 0, 60, 54
2, 18124, Note_off_c, 0, 52, 50
2, 18181, Note_on_c, 0, 64, 53
2, 18182, Note_on_c, 0, 55, 39
2, 18240, Note_off_c, 0, 72, 55
2, 18314, Note_on_c, 0, 62, 51
2, 18317, Note_on_c, 0, 53, 36
2, 18325, Note_off_c, 0, 55, 49
2, 18327, Note_off_c, 0, 64, 53
2, 18468, Note_on_c, 0, 55, 36
2, 18469, Note_on_c, 0, 64, 48
2, 18473, Note_off_c, 0, 62, 52
2, 18474, Note_off_c, 0, 53, 49
2, 18605, Note_on_c, 0, 72, 58
2, 18606, Note_on_c, 0, 44, 76
2, 18622, Note_off_c, 0, 55, 49
2, 18625, Note_off_c, 0, 64, 52
2, 18640, Note_off_c, 0, 46, 59
2, 18772, Note_on_c, 0, 56, 48
2, 18775, Note_on_c, 0, 65, 60
2, 18852, Note_off_c, 0, 56, 52
2, 18867, Note_off_c, 0, 65, 55
2, 18896, Note_on_c, 0, 64, 60
2, 18897, Note_on_c, 0, 55, 48
2, 18961, Note_off_c, 0, 64, 55
2, 18970, Note_off_c, 0, 55, 52
2, 19031, Note_on_c, 0, 56, 46
2, 19039, Note_on_c, 0, 65, 58
2, 19114, Note_off_c, 0, 56, 51
2, 19138, Note_off_c, 0, 65, 54
2, 19192, Note_on_c, 0, 60, 56
2, 19194, Note_on_c, 0, 53, 44
2, 19265, Note_off_c, 0, 53, 51
2, 19273, Note_off_c, 0, 60, 54
2, 19327, Note_on_c, 0, 65, 53
2, 19329, Note_on_c, 0, 56, 41
2, 19390, Note_off_c, 0, 72, 54
2, 19403, Note_off_c, 0, 56, 50
2, 19413, Note_off_c, 0, 65, 53
2, 19433, Note_off_c, 0, 44, 59
2, 19481, Note_on_c, 0, 64, 51
2, 19483, Note_on_c, 0, 55, 39
2, 19553, Note_off_c, 0, 64, 52
2, 19573, Note_off_c, 0, 55, 49
2, 19606, Note_on_c, 0, 65, 48
2, 19618, Note_on_c, 0, 56, 36
2, 19679, Note_off_c, 0, 65, 52
2, 19701, Note_off_c, 0, 56, 49
2, 19750, Note_on_c, 0, 72, 72
2, 19750, Note_on_c, 0, 44, 60
2, 19903, Note_on_c, 0, 56, 48
2, 19911, Note_on_c, 0, 65, 60
2, 19985, Note_off_c, 0, 56, 52
2, 19992, Note_off_c, 0, 65, 55
2, 20046, Note_on_c, 0, 55, 48
2, 20047, Note_on_c, 0, 64, 60
2, 20206, Note_on_c, 0, 65, 58
2, 20206, Note_on_c, 0, 56, 46
2, 20225, Note_off_c, 0, 55, 52
2, 20259, Note_off_c, 0, 64, 55
2, 20332, Note_on_c, 0, 60, 56
2, 20345, Note_on_c, 0, 53, 44
2, 20356, Note_off_c, 0, 65, 54
2, 20360, Note_off_c, 0, 56, 51
2, 20399, Note_off_c, 0, 60, 54
2, 20414, Note_off_c, 0, 53, 51
2, 20466, Note_off_c, 0, 44, 55
2, 20478, Note_on_c, 0, 56, 41
2, 20480, Note_on_c, 0, 65, 53
2, 20620, Note_on_c, 0, 55, 39
2, 20635, Note_on_c, 0, 64, 51
2, 20640, Note_off_c, 0, 56, 50
2, 20662, Note_off_c, 0, 65, 53
2, 20762, Note_on_c, 0, 65, 48
2, 20765, Note_on_c, 0, 56, 36
2, 20771, Note_off_c, 0, 55, 49
2, 20780, Note_off_c, 0, 64, 52
2, 20882, Note_off_c, 0, 65, 52
2, 20882, Note_off_c, 0, 56, 49
2, 20914, Note_on_c, 0, 70, 72
2, 20916, Note_on_c, 0, 44, 60
2, 20960, Note_off_c, 0, 72, 58
2, 21051, Note_on_c, 0, 65, 60
2, 21063, Note_on_c, 0, 50, 48
2, 21125, Note_off_c, 0, 65, 55
2, 21138, Note_off_c, 0, 50, 52
2, 21199, Note_on_c, 0, 63, 60
2, 21199, Note_on_c, 0, 48, 48
2, 21286, Note_off_c, 0, 48, 52
2, 21293, Note_off_c, 0, 63, 55
2, 21351, Note_on_c, 0, 50, 46
2, 21353, Note_on_c, 0, 65, 58
2, 21425, Note_off_c, 0, 50, 51
2, 21426, Note_off_c, 0, 65, 54
2, 21486, Note_on_c, 0, 62, 56
2, 21490, Note_on_c, 0, 53, 44
2, 21554, Note_off_c, 0, 62, 54
2, 21567, Note_off_c, 0, 53, 51
2, 21644, Note_on_c, 0, 65, 53
2, 21644, Note_on_c, 0, 50, 41
2, 21650, Note_off_c, 0, 44, 55
2, 21717, Note_off_c, 0, 50, 50
2, 21718, Note_off_c, 0, 65, 53
2, 21728, Note_off_c, 0, 70, 58
2, 21776, Note_on_c, 0, 63, 51
2, 21783, Note_on_c, 0, 48, 39
2, 21842, Note_off_c, 0, 63, 52
2, 21862, Note_off_c, 0, 48, 49
2, 21903, Note_on_c, 0, 65, 48
2, 21920, Note_on_c, 0, 50, 36
2, 22004, Note_off_c, 0, 65, 52
2, 22011, Note_off_c, 0, 50, 49
2, 22063, Note_on_c, 0, 70, 57
2, 22073, Note_on_c, 0, 44, 79
2, 22207, Note_on_c, 0, 50, 48
2, 22210, Note_on_c, 0, 65, 60
2, 22281, Note_off_c, 0, 50, 52
2, 22295, Note_off_c, 0, 65, 55
2, 22361, Note_on_c, 0, 63, 60
2, 22366, Note_on_c, 0, 48, 48
2, 22501, Note_on_c, 0, 50, 46
2, 22502, Note_on_c, 0, 65, 58
2, 22518, Note_off_c, 0, 63, 55
2, 22526, Note_off_c, 0, 48, 52
2, 22630, Note_on_c, 0, 62, 56
2, 22632, Note_on_c, 0, 53, 44
2, 22648, Note_off_c, 0, 65, 54
2, 22649, Note_off_c, 0, 50, 51
2, 22714, Note_off_c, 0, 62, 54
2, 22716, Note_off_c, 0, 53, 51
2, 22790, Note_on_c, 0, 50, 41
2, 22791, Note_on_c, 0, 65, 53
2, 22919, Note_on_c, 0, 63, 51
2, 22928, Note_off_c, 0, 50, 50
2, 22929, Note_on_c, 0, 48, 39
2, 22951, Note_off_c, 0, 65, 53
2, 23076, Note_on_c, 0, 65, 48
2, 23078, Note_on_c, 0, 50, 36
2, 23101, Note_off_c, 0, 63, 52
2, 23112, Note_off_c, 0, 48, 49
2, 23116, Note_off_c, 0, 70, 54
2, 23213, Note_off_c, 0, 50, 49
2, 23213, Note_off_c, 0, 65, 52
2, 23224, Note_on_c, 0, 70, 72
2, 23225, Note_on_c, 0, 43, 81
2, 23280, Note_off_c, 0, 44, 60
2, 23359, Note_on_c, 0, 51, 48
2, 23360, Note_on_c, 0, 67, 60
2, 23450, Note_off_c, 0, 51, 52
2, 23450, Note_off_c, 0, 67, 55
2, 23508, Note_on_c, 0, 50, 48
2, 23513, Note_on_c, 0, 65, 60
2, 23580, Note_off_c, 0, 50, 52
2, 23593, Note_off_c, 0, 65, 55
2, 23637, Note_on_c, 0, 51, 45
2, 23649, Note_on_c, 0, 67, 58
2, 23707, Note_off_c, 0, 51, 51
2, 23715, Note_off_c, 0, 67, 54
2, 23798, Note_on_c, 0, 63, 56
2, 23802, Note_on_c, 0, 55, 42
2, 23869, Note_off_c, 0, 63, 54
2, 23869, Note_off_c, 0, 55, 50
2, 23932, Note_on_c, 0, 51, 39
2, 23937, Note_on_c, 0, 67, 53
2, 23999, Note_off_c, 0, 51, 49
2, 24014, Note_off_c, 0, 67, 53
2, 24069, Note_on_c, 0, 65, 51
2, 24077, Note_on_c, 0, 50, 36
2, 24098, Note_off_c, 0, 43, 60
2, 24142, Note_off_c, 0, 70, 58
2, 24164, Note_off_c, 0, 50, 49
2, 24168, Note_off_c, 0, 65, 52
2, 24229, Note_on_c, 0, 51, 36
2, 24232, Note_on_c, 0, 67, 48
2, 24299, Note_off_c, 0, 51, 49
2, 24307, Note_off_c, 0, 67, 52
2, 24365, Note_on_c, 0, 70, 72
2, 24375, Note_on_c, 0, 43, 60
2, 24517, Note_on_c, 0, 67, 60
2, 24524, Note_on_c, 0, 51, 48
2, 24588, Note_off_c, 0, 67, 55
2, 24599, Note_off_c, 0, 51, 52
2, 24650, Note_on_c, 0, 65, 60
2, 24653, Note_on_c, 0, 50, 48
2, 24790, Note_on_c, 0, 67, 58
2, 24792, Note_on_c, 0, 51, 45
2, 24794, Note_off_c, 0, 65, 55
2, 24830, Note_off_c, 0, 50, 52
2, 24943, Note_on_c, 0, 63, 56
2, 24946, Note_on_c, 0, 55, 42
2, 24954, Note_off_c, 0, 67, 54
2, 24972, Note_off_c, 0, 51, 51
2, 25014, Note_off_c, 0, 63, 54
2, 25024, Note_off_c, 0, 55, 50
2, 25084, Note_on_c, 0, 51, 39
2, 25088, Note_on_c, 0, 67, 53
2, 25240, Note_on_c, 0, 65, 51
2, 25245, Note_on_c, 0, 50, 36
2, 25265, Note_off_c, 0, 67, 53
2, 25286, Note_off_c, 0, 51, 49
2, 25373, Note_on_c, 0, 67, 48
2, 25373, Note_on_c, 0, 51, 36
2, 25387, Note_off_c, 0, 50, 49
2, 25391, Note_off_c, 0, 65, 52
2, 25510, Note_off_c, 0, 67, 52
2, 25510, Note_off_c, 0, 51, 49
2, 25512, Note_on_c, 0, 68, 72
2, 25512, Note_on_c, 0, 48, 60
2, 25550, Note_off_c, 0, 43, 55
2, 25560, Note_off_c, 0, 70, 58
2, 25662, Note_on_c, 0, 67, 60
2, 25667, Note_on_c, 0, 51, 48
2, 25730, Note_off_c, 0, 67, 55
2, 25744, Note_off_c, 0, 51, 52
2, 25808, Note_on_c, 0, 65, 60
2, 25809, Note_on_c, 0, 50, 48
2, 25908, Note_off_c, 0, 65, 55
2, 25910, Note_off_c, 0, 50, 52
2, 25961, Note_on_c, 0, 51, 45
2, 25963, Note_on_c, 0, 67, 58
2, 26032, Note_off_c, 0, 51, 51
2, 26038, Note_off_c, 0, 67, 54
2, 26092, Note_on_c, 0, 56, 42
2, 26100, Note_on_c, 0, 63, 56
2, 26174, Note_off_c, 0, 56, 50
2, 26183, Note_off_c, 0, 63, 54
2, 26250, Note_on_c, 0, 51, 39
2, 26253, Note_on_c, 0, 67, 53
2, 26293, Note_off_c, 0, 48, 55
2, 26324, Note_off_c, 0, 51, 49
2, 26329, Note_off_c, 0, 67, 53
2, 26382, Note_on_c, 0, 65, 51
2, 26393, Note_on_c, 0, 50, 36
2, 26433, Note_off_c, 0, 68, 58
2, 26450, Note_off_c, 0, 65, 52
2, 26464, Note_off_c, 0, 50, 49
2, 26524, Note_on_c, 0, 67, 48
2, 26528, Note_on_c, 0, 51, 36
2, 26618, Note_off_c, 0, 51, 49
2, 26623, Note_off_c, 0, 67, 52
2, 26674, Note_on_c, 0, 68, 65
2, 26684, Note_on_c, 0, 48, 80
2, 26818, Note_on_c, 0, 67, 60
2, 26819, Note_on_c, 0, 51, 48
2, 26894, Note_off_c, 0, 67, 55
2, 26894, Note_off_c, 0, 51, 52
2, 26967, Note_on_c, 0, 65, 60
2, 26974, Note_on_c, 0, 50, 48
2, 27103, Note_on_c, 0, 67, 58
2, 27116, Note_on_c, 0, 51, 45
2, 27132, Note_off_c, 0, 65, 55
2, 27143, Note_off_c, 0, 50, 52
2, 27248, Note_on_c, 0, 63, 56
2, 27251, Note_on_c, 0, 56, 42
2, 27266, Note_off_c, 0, 51, 51
2, 27286, Note_off_c, 0, 67, 54
2, 27344, Note_off_c, 0, 63, 54
2, 27347, Note_off_c, 0, 56, 50
2, 27398, Note_on_c, 0, 51, 39
2, 27400, Note_off_c, 0, 68, 56
2, 27402, Note_on_c, 0, 67, 53
2, 27541, Note_on_c, 0, 50, 36
2, 27543, Note_on_c, 0, 65, 51
2, 27558, Note_off_c, 0, 51, 49
2, 27581, Note_off_c, 0, 67, 53
2, 27696, Note_on_c, 0, 67, 48
2, 27697, Note_on_c, 0, 51, 36
2, 27720, Note_off_c, 0, 50, 49
2, 27723, Note_off_c, 0, 65, 52
2, 27816, Note_on_c, 0, 68, 72
2, 27832, Note_off_c, 0, 67, 52
2, 27836, Note_on_c, 0, 50, 79
2, 27854, Note_off_c, 0, 51, 49
2, 27900, Note_off_c, 0, 48, 60
2, 27969, Note_on_c, 0, 62, 60
2, 27970, Note_on_c, 0, 53, 48
2, 28061, Note_off_c, 0, 53, 52
2, 28065, Note_off_c, 0, 62, 55
2, 28117, Note_on_c, 0, 51, 48
2, 28121, Note_on_c, 0, 60, 60
2, 28192, Note_off_c, 0, 60, 55
2, 28197, Note_off_c, 0, 51, 52
2, 28250, Note_on_c, 0, 62, 58
2, 28256, Note_on_c, 0, 53, 45
2, 28326, Note_off_c, 0, 62, 54
2, 28333, Note_off_c, 0, 53, 51
2, 28410, Note_on_c, 0, 56, 42
2, 28412, Note_on_c, 0, 58, 56
2, 28484, Note_off_c, 0, 56, 50
2, 28491, Note_off_c, 0, 58, 54
2, 28549, Note_on_c, 0, 62, 53
2, 28549, Note_on_c, 0, 53, 39
2, 28622, Note_off_c, 0, 53, 49
2, 28630, Note_off_c, 0, 62, 53
2, 28686, Note_on_c, 0, 60, 51
2, 28688, Note_on_c, 0, 51, 36
2, 28777, Note_off_c, 0, 60, 52
2, 28790, Note_off_c, 0, 51, 49
2, 28802, Note_off_c, 0, 68, 58
2, 28837, Note_on_c, 0, 53, 36
2, 28842, Note_on_c, 0, 62, 48
2, 28870, Note_off_c, 0, 50, 60
2, 28910, Note_off_c, 0, 62, 52
2, 28914, Note_off_c, 0, 53, 49
2, 28970, Note_on_c, 0, 68, 72
2, 28978, Note_on_c, 0, 50, 60
2, 29131, Note_on_c, 0, 62, 60
2, 29132, Note_on_c, 0, 53, 48
2, 29203, Note_off_c, 0, 62, 55
2, 29204, Note_off_c, 0, 53, 52
2, 29254, Note_on_c, 0, 60, 60
2, 29272, Note_on_c, 0, 51, 48
2, 29401, Note_on_c, 0, 53, 45
2, 29404, Note_off_c, 0, 60, 55
2, 29409, Note_on_c, 0, 62, 58
2, 29432, Note_off_c, 0, 51, 52
2, 29560, Note_on_c, 0, 58, 56
2, 29563, Note_off_c, 0, 62, 54
2, 29565, Note_on_c, 0, 56, 42
2, 29580, Note_off_c, 0, 53, 51
2, 29629, Note_off_c, 0, 58, 54
2, 29637, Note_off_c, 0, 56, 50
2, 29696, Note_on_c, 0, 62, 53
2, 29697, Note_on_c, 0, 53, 39
2, 29853, Note_on_c, 0, 60, 51
2, 29854, Note_off_c, 0, 62, 53
2, 29856, Note_on_c, 0, 51, 36
2, 29865, Note_off_c, 0, 53, 49
2, 29985, Note_on_c, 0, 62, 48
2, 29989, Note_on_c, 0, 53, 36
2, 29991, Note_off_c, 0, 60, 52
2, 30011, Note_off_c, 0, 51, 49
2, 30112, Note_on_c, 0, 67, 72
2, 30123, Note_on_c, 0, 51, 60
2, 30140, Note_off_c, 0, 53, 49
2, 30141, Note_off_c, 0, 62, 52
2, 30150, Note_off_c, 0, 68, 58
2, 30203, Note_off_c, 0, 50, 55
2, 30272, Note_on_c, 0, 55, 48
2, 30281, Note_on_c, 0, 58, 60
2, 30350, Note_off_c, 0, 55, 52
2, 30357, Note_off_c, 0, 58, 55
2, 30419, Note_on_c, 0, 53, 48
2, 30420, Note_on_c, 0, 56, 60
2, 30494, Note_off_c, 0, 56, 55
2, 30502, Note_off_c, 0, 53, 52
2, 30561, Note_on_c, 0, 55, 45
2, 30574, Note_on_c, 0, 58, 58
2, 30640, Note_off_c, 0, 55, 51
2, 30645, Note_off_c, 0, 58, 54
2, 30704, Note_on_c, 0, 63, 56
2, 30708, Note_on_c, 0, 56, 42
2, 30780, Note_off_c, 0, 56, 50
2, 30785, Note_off_c, 0, 63, 54
2, 30831, Note_on_c, 0, 55, 39
2, 30846, Note_on_c, 0, 58, 53
2, 30923, Note_off_c, 0, 55, 49
2, 30940, Note_off_c, 0, 58, 53
2, 31001, Note_on_c, 0, 56, 51
2, 31001, Note_on_c, 0, 53, 36
2, 31068, Note_off_c, 0, 56, 52
2, 31074, Note_off_c, 0, 53, 49
2, 31110, Note_off_c, 0, 67, 58
2, 31110, Note_off_c, 0, 51, 55
2, 31139, Note_on_c, 0, 58, 48
2, 31140, Note_on_c, 0, 55, 36
2, 31218, Note_off_c, 0, 58, 52
2, 31222, Note_off_c, 0, 55, 49
2, 31274, Note_on_c, 0, 67, 72
2, 31284, Note_on_c, 0, 51, 60
2, 31426, Note_on_c, 0, 55, 50
2, 31430, Note_on_c, 0, 58, 52
2, 31503, Note_off_c, 0, 55, 52
2, 31507, Note_off_c, 0, 58, 53
2, 31566, Note_on_c, 0, 56, 47
2, 31569, Note_on_c, 0, 53, 49
2, 31724, Note_on_c, 0, 58, 53
2, 31726, Note_on_c, 0, 55, 45
2, 31738, Note_off_c, 0, 56, 51
2, 31746, Note_off_c, 0, 53, 52
2, 31856, Note_on_c, 0, 56, 42
2, 31857, Note_on_c, 0, 63, 48
2, 31861, Note_off_c, 0, 55, 51
2, 31867, Note_off_c, 0, 58, 53
2, 31932, Note_off_c, 0, 56, 50
2, 31934, Note_off_c, 0, 63, 52
2, 32011, Note_on_c, 0, 58, 46
2, 32012, Note_on_c, 0, 55, 40
2, 32122, Note_off_c, 0, 51, 55
2, 32147, Note_off_c, 0, 58, 51
2, 32150, Note_off_c, 0, 55, 50
2, 32150, Note_on_c, 0, 56, 53
2, 32153, Note_on_c, 0, 53, 39
2, 32281, Note_on_c, 0, 58, 51
2, 32286, Note_off_c, 0, 56, 53
2, 32287, Note_off_c, 0, 53, 49
2, 32287, Note_on_c, 0, 55, 40
2, 32436, Note_off_c, 0, 58, 52
2, 32436, Note_on_c, 0, 51, 60
2, 32436, Note_on_c, 0, 65, 60
2, 32447, Note_off_c, 0, 55, 50
2, 32450, Note_off_c, 0, 67, 58
2, 32571, Note_on_c, 0, 57, 48
2, 32579, Note_on_c, 0, 60, 48
2, 32651, Note_off_c, 0, 57, 52
2, 32655, Note_off_c, 0, 60, 52
2, 32728, Note_on_c, 0, 58, 48
2, 32734, Note_on_c, 0, 55, 48
2, 32797, Note_off_c, 0, 58, 52
2, 32805, Note_off_c, 0, 55, 52
2, 32865, Note_on_c, 0, 57, 45
2, 32871, Note_on_c, 0, 60, 45
2, 32944, Note_off_c, 0, 60, 51
2, 32946, Note_off_c, 0, 57, 51
2, 33006, Note_on_c, 0, 53, 42
2, 33008, Note_on_c, 0, 57, 42
2, 33097, Note_off_c, 0, 53, 50
2, 33106, Note_off_c, 0, 57, 50
2, 33150, Note_on_c, 0, 60, 39
2, 33163, Note_on_c, 0, 57, 39
2, 33223, Note_off_c, 0, 51, 55
2, 33228, Note_off_c, 0, 60, 49
2, 33240, Note_off_c, 0, 57, 49
2, 33292, Note_on_c, 0, 55, 36
2, 33293, Note_on_c, 0, 58, 36
2, 33365, Note_off_c, 0, 58, 49
2, 33366, Note_off_c, 0, 55, 49
2, 33449, Note_on_c, 0, 57, 36
2, 33452, Note_on_c, 0, 60, 36
2, 33477, Note_off_c, 0, 65, 55
2, 33520, Note_off_c, 0, 60, 49
2, 33528, Note_off_c, 0, 57, 49
2, 33571, Note_on_c, 0, 65, 60
2, 33581, Note_on_c, 0, 51, 60
2, 33718, Note_on_c, 0, 60, 48
2, 33718, Note_on_c, 0, 57, 48
2, 33804, Note_off_c, 0, 60, 52
2, 33804, Note_off_c, 0, 57, 52
2, 33871, Note_on_c, 0, 58, 48
2, 33874, Note_on_c, 0, 55, 48
2, 34008, Note_off_c, 0, 58, 52
2, 34010, Note_off_c, 0, 55, 52
2, 34010, Note_on_c, 0, 60, 45
2, 34023, Note_on_c, 0, 57, 45
2, 34120, Note_off_c, 0, 57, 51
2, 34164, Note_off_c, 0, 60, 51
2, 34164, Note_on_c, 0, 57, 42
2, 34166, Note_on_c, 0, 53, 42
2, 34231, Note_off_c, 0, 57, 50
2, 34234, Note_off_c, 0, 53, 50
2, 34301, Note_on_c, 0, 60, 39
2, 34301, Note_on_c, 0, 57, 34
2, 34374, Note_off_c, 0, 65, 55
2, 34454, Note_off_c, 0, 57, 48
2, 34454, Note_off_c, 0, 60, 49
2, 34457, Note_on_c, 0, 55, 36
2, 34457, Note_on_c, 0, 58, 32
2, 34591, Note_off_c, 0, 58, 48
2, 34594, Note_off_c, 0, 55, 49
2, 34594, Note_on_c, 0, 60, 36
2, 34594, Note_on_c, 0, 57, 29
2, 34714, Note_off_c, 0, 60, 49
2, 34714, Note_off_c, 0, 57, 47
2, 34718, Note_on_c, 0, 65, 60
2, 34730, Note_on_c, 0, 50, 55
2, 34770, Note_off_c, 0, 51, 55
2, 34884, Note_on_c, 0, 62, 48
2, 34884, Note_on_c, 0, 53, 40
2, 34951, Note_off_c, 0, 62, 52
2, 34954, Note_off_c, 0, 53, 50
2, 35021, Note_on_c, 0, 51, 47
2, 35021, Note_on_c, 0, 60, 36
2, 35088, Note_off_c, 0, 60, 49
2, 35090, Note_off_c, 0, 51, 51
2, 35174, Note_on_c, 0, 53, 45
2, 35174, Note_on_c, 0, 62, 40
2, 35244, Note_off_c, 0, 53, 51
2, 35244, Note_off_c, 0, 62, 50
2, 35311, Note_on_c, 0, 59, 42
2, 35311, Note_on_c, 0, 56, 38
2, 35356, Note_off_c, 0, 65, 55
2, 35381, Note_off_c, 0, 56, 49
2, 35381, Note_off_c, 0, 59, 50
2, 35448, Note_on_c, 0, 62, 39
2, 35450, Note_on_c, 0, 53, 36
2, 35500, Note_off_c, 0, 50, 53
2, 35534, Note_off_c, 0, 53, 49
2, 35534, Note_off_c, 0, 62, 49
2, 35602, Note_on_c, 0, 60, 36
2, 35604, Note_on_c, 0, 51, 30
2, 35671, Note_off_c, 0, 60, 49
2, 35671, Note_off_c, 0, 51, 47
2, 35741, Note_on_c, 0, 62, 38
2, 35741, Note_on_c, 0, 53, 30
2, 35808, Note_off_c, 0, 62, 49
2, 35810, Note_off_c, 0, 53, 47
2, 35884, Note_on_c, 0, 65, 60
2, 35894, Note_on_c, 0, 50, 56
2, 36031, Note_on_c, 0, 62, 48
2, 36031, Note_on_c, 0, 53, 42
2, 36101, Note_off_c, 0, 62, 52
2, 36101, Note_off_c, 0, 53, 50
2, 36168, Note_on_c, 0, 60, 48
2, 36170, Note_on_c, 0, 51, 45
2, 36322, Note_off_c, 0, 60, 52
2, 36324, Note_off_c, 0, 51, 51
2, 36324, Note_on_c, 0, 62, 45
2, 36326, Note_on_c, 0, 53, 40
2, 36461, Note_off_c, 0, 62, 51
2, 36461, Note_off_c, 0, 53, 50
2, 36461, Note_on_c, 0, 59, 42
2, 36463, Note_on_c, 0, 56, 38
2, 36528, Note_off_c, 0, 59, 50
2, 36530, Note_off_c, 0, 56, 49
2, 36582, Note_off_c, 0, 65, 55
2, 36614, Note_on_c, 0, 62, 39
2, 36614, Note_on_c, 0, 53, 36
2, 36751, Note_off_c, 0, 62, 49
2, 36751, Note_off_c, 0, 53, 49
2, 36754, Note_on_c, 0, 51, 36
2, 36754, Note_on_c, 0, 60, 30
2, 36888, Note_off_c, 0, 51, 49
2, 36888, Note_off_c, 0, 60, 47
2, 36890, Note_on_c, 0, 62, 39
2, 36890, Note_on_c, 0, 53, 35
2, 37036, Note_on_c, 0, 65, 60
2, 37044, Note_off_c, 0, 62, 49
2, 37044, Note_off_c, 0, 53, 48
2, 37046, Note_on_c, 0, 48, 54
2, 37060, Note_off_c, 0, 50, 54
2, 37178, Note_on_c, 0, 62, 48
2, 37181, Note_on_c, 0, 53, 39
2, 37248, Note_off_c, 0, 62, 52
2, 37248, Note_off_c, 0, 53, 49
2, 37334, Note_on_c, 0, 60, 48
2, 37334, Note_on_c, 0, 52, 40
2, 37402, Note_off_c, 0, 60, 52
2, 37404, Note_off_c, 0, 52, 50
2, 37471, Note_on_c, 0, 53, 45
2, 37471, Note_on_c, 0, 62, 41
2, 37538, Note_off_c, 0, 62, 50
2, 37541, Note_off_c, 0, 53, 51
2, 37608, Note_on_c, 0, 59, 42
2, 37608, Note_on_c, 0, 56, 38
2, 37694, Note_off_c, 0, 59, 50
2, 37694, Note_off_c, 0, 56, 49
2, 37759, Note_off_c, 0, 48, 53
2, 37762, Note_on_c, 0, 62, 39
2, 37764, Note_on_c, 0, 53, 35
2, 37787, Note_off_c, 0, 65, 55
2, 37831, Note_off_c, 0, 53, 48
2, 37831, Note_off_c, 0, 62, 49
2, 37898, Note_on_c, 0, 60, 36
2, 37901, Note_on_c, 0, 52, 32
2, 37968, Note_off_c, 0, 60, 49
2, 37968, Note_off_c, 0, 52, 48
2, 38054, Note_on_c, 0, 62, 40
2, 38054, Note_on_c, 0, 53, 36
2, 38122, Note_off_c, 0, 62, 50
2, 38124, Note_off_c, 0, 53, 49
2, 38191, Note_on_c, 0, 48, 60
2, 38191, Note_on_c, 0, 65, 55
2, 38328, Note_on_c, 0, 62, 48
2, 38328, Note_on_c, 0, 53, 42
2, 38414, Note_off_c, 0, 62, 52
2, 38414, Note_off_c, 0, 53, 50
2, 38486, Note_on_c, 0, 60, 46
2, 38493, Note_on_c, 0, 52, 40
2, 38621, Note_off_c, 0, 60, 51
2, 38629, Note_on_c, 0, 62, 45
2, 38633, Note_on_c, 0, 53, 36
2, 38637, Note_off_c, 0, 52, 50
2, 38774, Note_on_c, 0, 59, 42
2, 38777, Note_on_c, 0, 56, 40
2, 38796, Note_off_c, 0, 62, 51
2, 38810, Note_off_c, 0, 48, 55
2, 38812, Note_off_c, 0, 53, 49
2, 38842, Note_off_c, 0, 59, 50
2, 38844, Note_off_c, 0, 56, 50
2, 38908, Note_on_c, 0, 53, 36
2, 38921, Note_on_c, 0, 62, 39
2, 39054, Note_off_c, 0, 53, 49
2, 39059, Note_on_c, 0, 52, 36
2, 39060, Note_on_c, 0, 60, 34
2, 39085, Note_off_c, 0, 62, 49
2, 39204, Note_on_c, 0, 62, 38
2, 39204, Note_on_c, 0, 53, 34
2, 39236, Note_off_c, 0, 60, 48
2, 39238, Note_off_c, 0, 52, 49
2, 39324, Note_off_c, 0, 62, 49
2, 39324, Note_off_c, 0, 53, 48
2, 39328, Note_on_c, 0, 63, 72
2, 39341, Note_on_c, 0, 48, 70
2, 39380, Note_off_c, 0, 65, 53
2, 39494, Note_on_c, 0, 60, 60
2, 39494, Note_on_c, 0, 51, 55
2, 39562, Note_off_c, 0, 60, 55
2, 39564, Note_off_c, 0, 51, 53
2, 39637, Note_on_c, 0, 50, 59
2, 39641, Note_on_c, 0, 59, 53
2, 39771, Note_on_c, 0, 60, 58
2, 39775, Note_on_c, 0, 51, 50
2, 39784, Note_off_c, 0, 50, 54
2, 39799, Note_off_c, 0, 59, 53
2, 39924, Note_on_c, 0, 55, 56
2, 39924, Note_on_c, 0, 53, 53
2, 39931, Note_off_c, 0, 60, 54
2, 39977, Note_off_c, 0, 51, 52
2, 39990, Note_off_c, 0, 48, 57
2, 39991, Note_off_c, 0, 55, 54
2, 39991, Note_off_c, 0, 53, 53
2, 40059, Note_on_c, 0, 51, 50
2, 40067, Note_on_c, 0, 60, 53
2, 40130, Note_off_c, 0, 63, 58
2, 40222, Note_on_c, 0, 59, 47
2, 40223, Note_on_c, 0, 50, 51
2, 40225, Note_off_c, 0, 51, 52
2, 40230, Note_off_c, 0, 60, 53
2, 40351, Note_on_c, 0, 60, 45
2, 40354, Note_on_c, 0, 51, 48
2, 40373, Note_off_c, 0, 59, 51
2, 40384, Note_off_c, 0, 50, 52
2, 40471, Note_off_c, 0, 60, 51
2, 40471, Note_off_c, 0, 51, 52
2, 40489, Note_on_c, 0, 63, 72
2, 40497, Note_on_c, 0, 48, 74
2, 40648, Note_on_c, 0, 51, 60
2, 40652, Note_on_c, 0, 60, 54
2, 40717, Note_off_c, 0, 51, 55
2, 40721, Note_off_c, 0, 60, 53
2, 40793, Note_on_c, 0, 59, 59
2, 40794, Note_on_c, 0, 50, 54
2, 40945, Note_on_c, 0, 60, 58
2, 40953, Note_on_c, 0, 51, 50
2, 40970, Note_off_c, 0, 59, 54
2, 40975, Note_off_c, 0, 50, 53
2, 41071, Note_on_c, 0, 55, 55
2, 41074, Note_on_c, 0, 53, 52
2, 41110, Note_off_c, 0, 51, 52
2, 41138, Note_off_c, 0, 60, 54
2, 41138, Note_off_c, 0, 55, 53
2, 41138, Note_off_c, 0, 53, 53
2, 41182, Note_off_c, 0, 48, 59
2, 41223, Note_on_c, 0, 60, 50
2, 41224, Note_on_c, 0, 51, 53
2, 41351, Note_off_c, 0, 63, 58
2, 41376, Note_on_c, 0, 50, 45
2, 41383, Note_on_c, 0, 59, 51
2, 41393, Note_off_c, 0, 51, 53
2, 41401, Note_off_c, 0, 60, 52
2, 41501, Note_on_c, 0, 51, 48
2, 41501, Note_on_c, 0, 60, 40
2, 41520, Note_off_c, 0, 50, 51
2, 41537, Note_off_c, 0, 59, 52
2, 41654, Note_off_c, 0, 51, 52
2, 41654, Note_off_c, 0, 60, 50
2, 41675, Note_on_c, 0, 53, 80
2, 41679, Note_on_c, 0, 44, 76
2, 41804, Note_on_c, 0, 63, 72
2, 41809, Note_on_c, 0, 48, 70
2, 41873, Note_off_c, 0, 63, 58
2, 41876, Note_off_c, 0, 48, 57
2, 41936, Note_on_c, 0, 47, 72
2, 41946, Note_on_c, 0, 62, 65
2, 42022, Note_off_c, 0, 47, 58
2, 42030, Note_off_c, 0, 62, 56
2, 42096, Note_on_c, 0, 48, 60
2, 42097, Note_on_c, 0, 63, 69
2, 42164, Note_off_c, 0, 63, 57
2, 42165, Note_off_c, 0, 48, 55
2, 42231, Note_on_c, 0, 65, 62
2, 42235, Note_on_c, 0, 50, 66
2, 42301, Note_off_c, 0, 65, 55
2, 42305, Note_off_c, 0, 50, 56
2, 42358, Note_off_c, 0, 53, 60
2, 42389, Note_on_c, 0, 63, 63
2, 42391, Note_on_c, 0, 48, 58
2, 42437, Note_off_c, 0, 44, 59
2, 42459, Note_off_c, 0, 48, 54
2, 42459, Note_off_c, 0, 63, 55
2, 42515, Note_on_c, 0, 47, 60
2, 42526, Note_on_c, 0, 62, 62
2, 42582, Note_off_c, 0, 47, 55
2, 42595, Note_off_c, 0, 62, 55
2, 42664, Note_on_c, 0, 48, 50
2, 42665, Note_on_c, 0, 63, 55
2, 42749, Note_off_c, 0, 63, 53
2, 42750, Note_off_c, 0, 48, 52
2, 42814, Note_on_c, 0, 44, 86
2, 42820, Note_on_c, 0, 53, 84
2, 42953, Note_on_c, 0, 63, 72
2, 42954, Note_on_c, 0, 48, 74
2, 43040, Note_off_c, 0, 63, 58
2, 43041, Note_off_c, 0, 48, 59
2, 43087, Note_on_c, 0, 47, 68
2, 43098, Note_on_c, 0, 62, 72
2, 43234, Note_on_c, 0, 63, 69
2, 43242, Note_on_c, 0, 48, 65
2, 43243, Note_off_c, 0, 47, 57
2, 43254, Note_off_c, 0, 62, 58
2, 43385, Note_on_c, 0, 65, 66
2, 43387, Note_on_c, 0, 50, 60
2, 43419, Note_off_c, 0, 48, 56
2, 43430, Note_off_c, 0, 63, 57
2, 43452, Note_off_c, 0, 65, 56
2, 43454, Note_off_c, 0, 50, 55
2, 43525, Note_on_c, 0, 63, 63
2, 43530, Note_on_c, 0, 48, 55
2, 43665, Note_on_c, 0, 47, 60
2, 43670, Note_on_c, 0, 62, 58
2, 43697, Note_off_c, 0, 63, 55
2, 43698, Note_off_c, 0, 48, 53
2, 43814, Note_on_c, 0, 48, 56
2, 43814, Note_on_c, 0, 63, 50
2, 43828, Note_off_c, 0, 47, 55
2, 43835, Note_off_c, 0, 62, 54
2, 43951, Note_off_c, 0, 48, 54
2, 43951, Note_off_c, 0, 63, 52
2, 43958, Note_on_c, 0, 54, 84
2, 43963, Note_off_c, 0, 44, 61
2, 43964, Note_on_c, 0, 45, 86
2, 43967, Note_off_c, 0, 53, 61
2, 44105, Note_on_c, 0, 51, 72
2, 44105, Note_on_c, 0, 60, 70
2, 44172, Note_off_c, 0, 51, 58
2, 44172, Note_off_c, 0, 60, 57
2, 44242, Note_on_c, 0, 59, 68
2, 44242, Note_on_c, 0, 50, 60
2, 44309, Note_off_c, 0, 59, 57
2, 44311, Note_off_c, 0, 50, 55
2, 44378, Note_on_c, 0, 51, 69
2, 44378, Note_on_c, 0, 60, 65
2, 44462, Note_off_c, 0, 60, 56
2, 44465, Note_off_c, 0, 51, 57
2, 44532, Note_on_c, 0, 63, 66
2, 44532, Note_on_c, 0, 48, 61
2, 44602, Note_off_c, 0, 63, 56
2, 44602, Note_off_c, 0, 48, 55
2, 44669, Note_on_c, 0, 60, 60
2, 44671, Note_on_c, 0, 51, 63
2, 44707, Note_off_c, 0, 54, 61
2, 44727, Note_off_c, 0, 45, 61
2, 44738, Note_off_c, 0, 60, 55
2, 44738, Note_off_c, 0, 51, 55
2, 44822, Note_on_c, 0, 59, 56
2, 44825, Note_on_c, 0, 50, 60
2, 44892, Note_off_c, 0, 59, 54
2, 44892, Note_off_c, 0, 50, 55
2, 44962, Note_on_c, 0, 60, 60
2, 44962, Note_on_c, 0, 51, 54
2, 45029, Note_off_c, 0, 60, 55
2, 45031, Note_off_c, 0, 51, 53
2, 45098, Note_on_c, 0, 54, 84
2, 45108, Note_on_c, 0, 45, 80
2, 45252, Note_on_c, 0, 51, 72
2, 45252, Note_on_c, 0, 60, 65
2, 45322, Note_off_c, 0, 51, 58
2, 45322, Note_off_c, 0, 60, 56
2, 45389, Note_on_c, 0, 50, 72
2, 45389, Note_on_c, 0, 59, 70
2, 45545, Note_on_c, 0, 60, 69
2, 45547, Note_on_c, 0, 51, 66
2, 45561, Note_off_c, 0, 59, 57
2, 45589, Note_off_c, 0, 50, 58
2, 45682, Note_on_c, 0, 63, 62
2, 45684, Note_on_c, 0, 48, 66
2, 45697, Note_off_c, 0, 60, 57
2, 45708, Note_off_c, 0, 51, 56
2, 45749, Note_off_c, 0, 63, 55
2, 45749, Note_off_c, 0, 48, 56
2, 45825, Note_on_c, 0, 60, 63
2, 45828, Note_on_c, 0, 51, 59
2, 45960, Note_off_c, 0, 45, 60
2, 45982, Note_on_c, 0, 59, 60
2, 45983, Note_on_c, 0, 50, 56
2, 46021, Note_off_c, 0, 51, 54
2, 46023, Note_off_c, 0, 60, 55
2, 46050, Note_off_c, 0, 54, 61
2, 46111, Note_on_c, 0, 51, 61
2, 46111, Note_on_c, 0, 60, 59
2, 46162, Note_off_c, 0, 50, 54
2, 46167, Note_off_c, 0, 59, 55
2, 46257, Note_on_c, 0, 63, 72
2, 46265, Note_off_c, 0, 51, 55
2, 46265, Note_off_c, 0, 60, 54
2, 46267, Note_on_c, 0, 43, 76
2, 46397, Note_on_c, 0, 60, 60
2, 46412, Note_on_c, 0, 51, 58
2, 46476, Note_off_c, 0, 60, 55
2, 46480, Note_off_c, 0, 51, 54
2, 46533, Note_on_c, 0, 59, 60
2, 46546, Note_on_c, 0, 50, 55
2, 46627, Note_off_c, 0, 59, 55
2, 46639, Note_off_c, 0, 50, 53
2, 46697, Note_on_c, 0, 60, 58
2, 46701, Note_on_c, 0, 51, 55
2, 46770, Note_off_c, 0, 60, 54
2, 46781, Note_off_c, 0, 51, 53
2, 46830, Note_on_c, 0, 55, 52
2, 46834, Note_on_c, 0, 53, 56
2, 46905, Note_off_c, 0, 53, 54
2, 46910, Note_off_c, 0, 55, 53
2, 46989, Note_on_c, 0, 60, 53
2, 46994, Note_on_c, 0, 51, 50
2, 47067, Note_off_c, 0, 60, 53
2, 47070, Note_off_c, 0, 51, 52
2, 47081, Note_off_c, 0, 43, 59
2, 47122, Note_on_c, 0, 50, 49
2, 47124, Note_on_c, 0, 59, 51
2, 47161, Note_off_c, 0, 63, 58
2, 47199, Note_off_c, 0, 59, 52
2, 47200, Note_off_c, 0, 50, 52
2, 47254, Note_on_c, 0, 60, 48
2, 47265, Note_on_c, 0, 51, 45
2, 47343, Note_off_c, 0, 60, 52
2, 47369, Note_off_c, 0, 51, 51
2, 47402, Note_on_c, 0, 63, 72
2, 47412, Note_on_c, 0, 43, 68
2, 47555, Note_on_c, 0, 51, 55
2, 47558, Note_on_c, 0, 60, 60
2, 47630, Note_off_c, 0, 60, 55
2, 47632, Note_off_c, 0, 51, 53
2, 47699, Note_on_c, 0, 59, 58
2, 47713, Note_on_c, 0, 50, 55
2, 47849, Note_on_c, 0, 51, 52
2, 47852, Note_on_c, 0, 60, 58
2, 47860, Note_off_c, 0, 59, 54
2, 47874, Note_off_c, 0, 50, 53
2, 47985, Note_on_c, 0, 55, 56
2, 47987, Note_on_c, 0, 53, 52
2, 47997, Note_off_c, 0, 51, 53
2, 48004, Note_off_c, 0, 60, 54
2, 48077, Note_off_c, 0, 55, 54
2, 48077, Note_off_c, 0, 53, 53
2, 48141, Note_on_c, 0, 60, 53
2, 48142, Note_on_c, 0, 51, 50
2, 48241, Note_off_c, 0, 43, 57
2, 48280, Note_on_c, 0, 59, 54
2, 48281, Note_on_c, 0, 50, 51
2, 48300, Note_off_c, 0, 51, 52
2, 48305, Note_off_c, 0, 60, 53
2, 48431, Note_on_c, 0, 51, 44
2, 48433, Note_on_c, 0, 60, 48
2, 48456, Note_off_c, 0, 50, 52
2, 48460, Note_off_c, 0, 59, 53
2, 48556, Note_off_c, 0, 51, 51
2, 48559, Note_on_c, 0, 66, 70
2, 48562, Note_on_c, 0, 43, 72
2, 48573, Note_off_c, 0, 60, 52
2, 48600, Note_off_c, 0, 63, 58
2, 48702, Note_on_c, 0, 60, 58
2, 48705, Note_on_c, 0, 51, 60
2, 48791, Note_off_c, 0, 60, 54
2, 48801, Note_off_c, 0, 51, 55
2, 48855, Note_on_c, 0, 50, 48
2, 48860, Note_on_c, 0, 59, 55
2, 48932, Note_off_c, 0, 50, 52
2, 48936, Note_off_c, 0, 59, 53
2, 48988, Note_on_c, 0, 51, 58
2, 48999, Note_on_c, 0, 60, 50
2, 49069, Note_off_c, 0, 51, 54
2, 49071, Note_off_c, 0, 60, 52
2, 49148, Note_on_c, 0, 57, 56
2, 49149, Note_on_c, 0, 48, 52
2, 49229, Note_off_c, 0, 57, 54
2, 49231, Note_off_c, 0, 48, 53
2, 49257, Note_off_c, 0, 43, 58
2, 49287, Note_on_c, 0, 60, 53
2, 49291, Note_on_c, 0, 51, 48
2, 49346, Note_off_c, 0, 66, 57
2, 49357, Note_off_c, 0, 60, 53
2, 49363, Note_off_c, 0, 51, 52
2, 49419, Note_on_c, 0, 59, 51
2, 49426, Note_on_c, 0, 50, 45
2, 49519, Note_off_c, 0, 59, 52
2, 49523, Note_off_c, 0, 50, 51
2, 49576, Note_on_c, 0, 60, 47
2, 49582, Note_on_c, 0, 51, 40
2, 49643, Note_off_c, 0, 60, 51
2, 49662, Note_off_c, 0, 51, 50
2, 49709, Note_on_c, 0, 66, 70
2, 49714, Note_on_c, 0, 43, 72
2, 49868, Note_on_c, 0, 51, 54
2, 49870, Note_on_c, 0, 60, 60
2, 49947, Note_off_c, 0, 60, 55
2, 49952, Note_off_c, 0, 51, 53
2, 50006, Note_on_c, 0, 50, 60
2, 50007, Note_on_c, 0, 59, 52
2, 50143, Note_on_c, 0, 51, 52
2, 50146, Note_on_c, 0, 60, 58
2, 50152, Note_off_c, 0, 50, 55
2, 50156, Note_off_c, 0, 59, 53
2, 50294, Note_on_c, 0, 48, 50
2, 50297, Note_on_c, 0, 57, 56
2, 50301, Note_off_c, 0, 51, 53
2, 50320, Note_off_c, 0, 60, 54
2, 50361, Note_off_c, 0, 48, 52
2, 50367, Note_off_c, 0, 57, 54
2, 50436, Note_on_c, 0, 60, 53
2, 50436, Note_on_c, 0, 51, 48
2, 50586, Note_on_c, 0, 50, 52
2, 50595, Note_on_c, 0, 59, 49
2, 50598, Note_off_c, 0, 51, 52
2, 50608, Note_off_c, 0, 60, 53
2, 50612, Note_off_c, 0, 43, 58
2, 50730, Note_off_c, 0, 59, 52
2, 50730, Note_off_c, 0, 50, 53
2, 50730, Note_on_c, 0, 51, 40
2, 50731, Note_on_c, 0, 60, 46
2, 50861, Note_on_c, 0, 67, 72
2, 50862, Note_on_c, 0, 43, 76
2, 50891, Note_off_c, 0, 51, 50
2, 50893, Note_off_c, 0, 60, 51
2, 50920, Note_off_c, 0, 66, 57
2, 51020, Note_on_c, 0, 60, 58
2, 51021, Note_on_c, 0, 51, 60
2, 51090, Note_off_c, 0, 51, 55
2, 51093, Note_off_c, 0, 60, 54
2, 51157, Note_on_c, 0, 50, 60
2, 51159, Note_on_c, 0, 59, 55
2, 51232, Note_off_c, 0, 50, 55
2, 51232, Note_off_c, 0, 59, 53
2, 51310, Note_on_c, 0, 51, 52
2, 51311, Note_on_c, 0, 60, 58
2, 51383, Note_off_c, 0, 60, 54
2, 51389, Note_off_c, 0, 51, 53
2, 51442, Note_on_c, 0, 62, 56
2, 51447, Note_on_c, 0, 53, 50
2, 51512, Note_off_c, 0, 62, 54
2, 51527, Note_off_c, 0, 53, 52
2, 51597, Note_on_c, 0, 60, 53
2, 51598, Note_on_c, 0, 51, 49
2, 51632, Note_off_c, 0, 43, 59
2, 51666, Note_off_c, 0, 60, 53
2, 51671, Note_off_c, 0, 51, 52
2, 51732, Note_on_c, 0, 59, 51
2, 51739, Note_off_c, 0, 67, 58
2, 51741, Note_on_c, 0, 50, 42
2, 51804, Note_off_c, 0, 59, 52
2, 51814, Note_off_c, 0, 50, 50
2, 51877, Note_on_c, 0, 60, 43
2, 51878, Note_on_c, 0, 51, 48
2, 51964, Note_off_c, 0, 60, 50
2, 51966, Note_off_c, 0, 51, 52
2, 52022, Note_on_c, 0, 67, 80
2, 52031, Note_on_c, 0, 43, 72
2, 52163, Note_on_c, 0, 60, 60
2, 52166, Note_on_c, 0, 51, 54
2, 52241, Note_off_c, 0, 51, 53
2, 52242, Note_off_c, 0, 60, 55
2, 52318, Note_on_c, 0, 59, 58
2, 52320, Note_on_c, 0, 50, 60
2, 52455, Note_on_c, 0, 51, 50
2, 52457, Note_off_c, 0, 50, 55
2, 52461, Note_on_c, 0, 60, 58
2, 52462, Note_off_c, 0, 59, 54
2, 52592, Note_on_c, 0, 62, 56
2, 52596, Note_on_c, 0, 53, 52
2, 52609, Note_off_c, 0, 51, 52
2, 52636, Note_off_c, 0, 60, 54
2, 52677, Note_off_c, 0, 62, 54
2, 52690, Note_off_c, 0, 53, 53
2, 52742, Note_on_c, 0, 51, 48
2, 52749, Note_on_c, 0, 60, 53
2, 52801, Note_off_c, 0, 43, 58
2, 52880, Note_off_c, 0, 51, 52
2, 52887, Note_on_c, 0, 59, 51
2, 52888, Note_on_c, 0, 50, 42
2, 52895, Note_off_c, 0, 60, 53
2, 53039, Note_off_c, 0, 50, 50
2, 53040, Note_on_c, 0, 60, 48
2, 53043, Note_on_c, 0, 51, 44
2, 53065, Note_off_c, 0, 59, 52
2, 53165, Note_off_c, 0, 51, 51
2, 53170, Note_off_c, 0, 60, 52
2, 53170, Note_on_c, 0, 68, 84
2, 53177, Note_on_c, 0, 43, 70
2, 53240, Note_off_c, 0, 67, 60
2, 53315, Note_on_c, 0, 60, 72
2, 53317, Note_on_c, 0, 51, 68
2, 53409, Note_off_c, 0, 51, 57
2, 53415, Note_off_c, 0, 60, 58
2, 53466, Note_on_c, 0, 50, 65
2, 53468, Note_on_c, 0, 59, 72
2, 53542, Note_off_c, 0, 59, 58
2, 53543, Note_off_c, 0, 50, 56
2, 53592, Note_on_c, 0, 51, 60
2, 53609, Note_on_c, 0, 60, 69
2, 53665, Note_off_c, 0, 51, 55
2, 53684, Note_off_c, 0, 60, 57
2, 53764, Note_on_c, 0, 62, 62
2, 53767, Note_on_c, 0, 53, 66
2, 53845, Note_off_c, 0, 62, 55
2, 53847, Note_off_c, 0, 53, 56
2, 53908, Note_on_c, 0, 51, 58
2, 53910, Note_on_c, 0, 60, 63
2, 53985, Note_off_c, 0, 51, 54
2, 53985, Note_off_c, 0, 60, 55
2, 54045, Note_on_c, 0, 59, 60
2, 54046, Note_on_c, 0, 50, 54
2, 54070, Note_off_c, 0, 43, 57
2, 54136, Note_off_c, 0, 50, 53
2, 54141, Note_off_c, 0, 59, 55
2, 54188, Note_on_c, 0, 51, 52
2, 54190, Note_off_c, 0, 68, 61
2, 54192, Note_on_c, 0, 60, 60
2, 54261, Note_off_c, 0, 60, 55
2, 54271, Note_off_c, 0, 51, 53
2, 54309, Note_on_c, 0, 68, 90
2, 54319, Note_on_c, 0, 43, 84
2, 54480, Note_on_c, 0, 51, 66
2, 54483, Note_on_c, 0, 60, 70
2, 54557, Note_off_c, 0, 51, 56
2, 54559, Note_off_c, 0, 60, 57
2, 54613, Note_on_c, 0, 50, 68
2, 54620, Note_on_c, 0, 59, 72
2, 54748, Note_on_c, 0, 51, 62
2, 54755, Note_on_c, 0, 60, 69
2, 54772, Note_off_c, 0, 59, 58
2, 54775, Note_off_c, 0, 50, 57
2, 54903, Note_on_c, 0, 62, 66
2, 54906, Note_on_c, 0, 53, 61
2, 54921, Note_off_c, 0, 60, 57
2, 54928, Note_off_c, 0, 51, 55
2, 54971, Note_off_c, 0, 62, 56
2, 54977, Note_off_c, 0, 53, 55
2, 55039, Note_on_c, 0, 51, 58
2, 55047, Note_on_c, 0, 60, 63
2, 55203, Note_on_c, 0, 50, 60
2, 55204, Note_on_c, 0, 59, 55
2, 55219, Note_off_c, 0, 51, 54
2, 55224, Note_off_c, 0, 60, 55
2, 55272, Note_off_c, 0, 43, 61
2, 55338, Note_on_c, 0, 51, 58
2, 55342, Note_on_c, 0, 60, 62
2, 55349, Note_off_c, 0, 59, 53
2, 55350, Note_off_c, 0, 50, 55
2, 55456, Note_off_c, 0, 68, 62
2, 55471, Note_on_c, 0, 43, 75
2, 55495, Note_off_c, 0, 51, 54
2, 55503, Note_off_c, 0, 60, 55
2, 55622, Note_on_c, 0, 47, 79
2, 55759, Note_on_c, 0, 50, 80
2, 55857, Note_off_c, 0, 43, 59
2, 55902, Note_off_c, 0, 47, 60
2, 55913, Note_on_c, 0, 53, 76
2, 55942, Note_off_c, 0, 50, 60
2, 56050, Note_on_c, 0, 56, 72
2, 56060, Note_off_c, 0, 53, 59
2, 56186, Note_on_c, 0, 53, 68
2, 56190, Note_off_c, 0, 56, 58
2, 56342, Note_on_c, 0, 52, 64
2, 56352, Note_off_c, 0, 53, 57
2, 56479, Note_on_c, 0, 53, 60
2, 56489, Note_off_c, 0, 52, 56
2, 56633, Note_on_c, 0, 59, 60
2, 56634, Note_off_c, 0, 53, 55
2, 56770, Note_on_c, 0, 53, 60
2, 56795, Note_off_c, 0, 59, 55
2, 56942, Note_on_c, 0, 62, 58
2, 56951, Note_off_c, 0, 53, 55
2, 57113, Note_off_c, 0, 62, 54
2, 57113, Note_on_c, 0, 59, 56
2, 57286, Note_on_c, 0, 56, 54
2, 57304, Note_off_c, 0, 59, 54
2, 57473, Note_on_c, 0, 53, 52
2, 57508, Note_off_c, 0, 56, 53
2, 57679, Note_on_c, 0, 52, 50
2, 57695, Note_off_c, 0, 53, 53
2, 57902, Note_on_c, 0, 53, 48
2, 57925, Note_off_c, 0, 52, 52
2, 58076, Note_off_c, 0, 53, 52
2, 58123, Note_on_c, 0, 43, 78
2, 58296, Note_on_c, 0, 48, 78
2, 58466, Note_on_c, 0, 51, 78
2, 58639, Note_on_c, 0, 55, 72
2, 58666, Note_off_c, 0, 51, 59
2, 58752, Note_off_c, 0, 48, 59
2, 58782, Note_off_c, 0, 43, 59
2, 58810, Note_on_c, 0, 60, 66
2, 58850, Note_off_c, 0, 55, 58
2, 58980, Note_on_c, 0, 55, 60
2, 59019, Note_off_c, 0, 60, 56
2, 59153, Note_on_c, 0, 54, 54
2, 59187, Note_off_c, 0, 55, 55
2, 59306, Note_on_c, 0, 55, 48
2, 59324, Note_off_c, 0, 54, 53
2, 59479, Note_on_c, 0, 63, 60
2, 59526, Note_off_c, 0, 55, 52
2, 59666, Note_on_c, 0, 60, 60
2, 59719, Note_off_c, 0, 63, 55
2, 59839, Note_on_c, 0, 67, 54
2, 59865, Note_off_c, 0, 60, 55
2, 60043, Note_on_c, 0, 63, 48
2, 60069, Note_off_c, 0, 67, 53
2, 60250, Note_on_c, 0, 60, 60
2, 60290, Note_off_c, 0, 63, 52
2, 60456, Note_on_c, 0, 56, 60
2, 60474, Note_off_c, 0, 60, 55
2, 60677, Note_on_c, 0, 55, 54
2, 60678, Note_off_c, 0, 56, 55
2, 60917, Note_on_c, 0, 56, 48
2, 60959, Note_off_c, 0, 55, 53
2, 61123, Note_off_c, 0, 56, 52
2, 61157, Note_on_c, 0, 43, 78
2, 61346, Note_on_c, 0, 45, 66
2, 61553, Note_on_c, 0, 54, 60
2, 61662, Note_off_c, 0, 45, 56
2, 61707, Note_off_c, 0, 43, 59
2, 61740, Note_on_c, 0, 60, 72
2, 61752, Note_off_c, 0, 54, 55
2, 61927, Note_off_c, 0, 60, 58
2, 61930, Note_on_c, 0, 63, 72
2, 62117, Note_off_c, 0, 63, 58
2, 62117, Note_on_c, 0, 60, 70
2, 62306, Note_off_c, 0, 60, 57
2, 62306, Note_on_c, 0, 59, 68
2, 62510, Note_off_c, 0, 59, 57
2, 62513, Note_on_c, 0, 60, 66
2, 62717, Note_off_c, 0, 60, 56
2, 62717, Note_on_c, 0, 66, 64
2, 62940, Note_off_c, 0, 66, 56
2, 62940, Note_on_c, 0, 60, 62
2, 63163, Note_off_c, 0, 60, 55
2, 63163, Note_on_c, 0, 69, 59
2, 63420, Note_off_c, 0, 69, 54
2, 63420, Note_on_c, 0, 66, 57
2, 63660, Note_off_c, 0, 66, 54
2, 63660, Note_on_c, 0, 63, 55
2, 63934, Note_off_c, 0, 63, 53
2, 63934, Note_on_c, 0, 60, 53
2, 64157, Note_off_c, 0, 60, 53
2, 64224, Note_on_c, 0, 59, 51
2, 64430, Note_off_c, 0, 59, 52
2, 64517, Note_on_c, 0, 60, 48
2, 64721, Note_off_c, 0, 60, 52
2, 64790, Note_on_c, 0, 43, 86
2, 65084, Note_on_c, 0, 74, 76
2, 65191, Note_on_c, 0, 72, 78
2, 65193, Note_off_c, 0, 74, 59
2, 65274, Note_off_c, 0, 72, 59
2, 65277, Note_on_c, 0, 74, 80
2, 65358, Note_on_c, 0, 75, 83
2, 65374, Note_off_c, 0, 74, 60
2, 65450, Note_off_c, 0, 75, 60
2, 65451, Note_on_c, 0, 72, 80
2, 65552, Note_on_c, 0, 71, 78
2, 65559, Note_off_c, 0, 72, 60
2, 65639, Note_on_c, 0, 72, 76
2, 65644, Note_off_c, 0, 71, 59
2, 65725, Note_off_c, 0, 72, 59
2, 65726, Note_on_c, 0, 69, 74
2, 65809, Note_on_c, 0, 72, 72
2, 65816, Note_off_c, 0, 69, 59
2, 65914, Note_off_c, 0, 72, 58
2, 65915, Note_on_c, 0, 71, 76
2, 65997, Note_on_c, 0, 72, 81
2, 66004, Note_off_c, 0, 71, 59
2, 66075, Note_on_c, 0, 74, 78
2, 66093, Note_off_c, 0, 72, 60
2, 66165, Note_off_c, 0, 74, 59
2, 66168, Note_on_c, 0, 71, 76
2, 66255, Note_on_c, 0, 69, 73
2, 66263, Note_off_c, 0, 71, 59
2, 66354, Note_on_c, 0, 71, 71
2, 66356, Note_off_c, 0, 69, 58
2, 66439, Note_on_c, 0, 67, 76
2, 66453, Note_off_c, 0, 71, 58
2, 66523, Note_off_c, 0, 43, 61
2, 66533, Note_on_c, 0, 71, 78
2, 66534, Note_on_c, 0, 62, 84
2, 66535, Note_off_c, 0, 67, 59
2, 66632, Note_on_c, 0, 69, 78
2, 66633, Note_on_c, 0, 60, 83
2, 66640, Note_off_c, 0, 62, 61
2, 66645, Note_off_c, 0, 71, 59
2, 66716, Note_off_c, 0, 60, 60
2, 66721, Note_on_c, 0, 71, 77
2, 66723, Note_on_c, 0, 62, 82
2, 66725, Note_off_c, 0, 69, 59
2, 66799, Note_on_c, 0, 72, 77
2, 66804, Note_off_c, 0, 62, 60
2, 66806, Note_off_c, 0, 71, 59
2, 66808, Note_on_c, 0, 63, 81
2, 66906, Note_on_c, 0, 69, 77
2, 66909, Note_on_c, 0, 60, 80
2, 66911, Note_off_c, 0, 72, 59
2, 66916, Note_off_c, 0, 63, 60
2, 66988, Note_on_c, 0, 67, 76
2, 66990, Note_off_c, 0, 69, 59
2, 66991, Note_off_c, 0, 60, 60
2, 66996, Note_on_c, 0, 59, 80
2, 67095, Note_on_c, 0, 69, 76
2, 67097, Note_on_c, 0, 60, 79
2, 67099, Note_off_c, 0, 67, 59
2, 67113, Note_off_c, 0, 59, 60
2, 67182, Note_on_c, 0, 57, 78
2, 67183, Note_off_c, 0, 69, 59
2, 67183, Note_on_c, 0, 66, 75
2, 67187, Note_off_c, 0, 60, 60
2, 67293, Note_on_c, 0, 60, 77
2, 67295, Note_on_c, 0, 69, 75
2, 67298, Note_off_c, 0, 57, 59
2, 67299, Note_off_c, 0, 66, 59
2, 67375, Note_on_c, 0, 59, 76
2, 67375, Note_on_c, 0, 67, 75
2, 67378, Note_off_c, 0, 60, 59
2, 67382, Note_off_c, 0, 69, 59
2, 67467, Note_on_c, 0, 60, 76
2, 67469, Note_on_c, 0, 69, 74
2, 67489, Note_off_c, 0, 67, 59
2, 67507, Note_off_c, 0, 59, 59
2, 67574, Note_off_c, 0, 60, 59
2, 67576, Note_on_c, 0, 71, 74
2, 67580, Note_on_c, 0, 62, 75
2, 67581, Note_off_c, 0, 69, 59
2, 67676, Note_off_c, 0, 62, 59
2, 67680, Note_on_c, 0, 67, 73
2, 67683, Note_on_c, 0, 59, 68
2, 67691, Note_off_c, 0, 71, 59
2, 67760, Note_on_c, 0, 66, 71
2, 67763, Note_on_c, 0, 57, 66
2, 67768, Note_off_c, 0, 59, 57
2, 67773, Note_off_c, 0, 67, 58
2, 67870, Note_on_c, 0, 67, 72
2, 67870, Note_on_c, 0, 59, 64
2, 67871, Note_off_c, 0, 57, 56
2, 67875, Note_off_c, 0, 66, 58
2, 67967, Note_off_c, 0, 67, 58
2, 67970, Note_on_c, 0, 55, 74
2, 67973, Note_on_c, 0, 62, 78
2, 67985, Note_off_c, 0, 59, 56
2, 68068, Note_off_c, 0, 55, 59
2, 68070, Note_off_c, 0, 62, 59
2, 68070, Note_on_c, 0, 59, 73
2, 68074, Note_on_c, 0, 79, 78
2, 68159, Note_on_c, 0, 77, 84
2, 68159, Note_on_c, 0, 57, 78
2, 68162, Note_off_c, 0, 79, 59
2, 68167, Note_off_c, 0, 59, 58
2, 68257, Note_on_c, 0, 79, 83
2, 68262, Note_off_c, 0, 57, 59
2, 68266, Note_on_c, 0, 59, 76
2, 68270, Note_off_c, 0, 77, 61
2, 68353, Note_off_c, 0, 79, 60
2, 68366, Note_on_c, 0, 80, 78
2, 68367, Note_off_c, 0, 59, 59
2, 68368, Note_on_c, 0, 60, 74
2, 68449, Note_on_c, 0, 56, 78
2, 68450, Note_off_c, 0, 60, 59
2, 68450, Note_on_c, 0, 77, 81
2, 68452, Note_off_c, 0, 80, 59
2, 68555, Note_off_c, 0, 77, 60
2, 68555, Note_on_c, 0, 55, 74
2, 68556, Note_on_c, 0, 75, 80
2, 68561, Note_off_c, 0, 56, 59
2, 68640, Note_on_c, 0, 77, 75
2, 68640, Note_on_c, 0, 56, 70
2, 68647, Note_off_c, 0, 75, 60
2, 68649, Note_off_c, 0, 55, 59
2, 68731, Note_on_c, 0, 53, 71
2, 68744, Note_on_c, 0, 74, 76
2, 68747, Note_off_c, 0, 77, 59
2, 68751, Note_off_c, 0, 56, 57
2, 68814, Note_off_c, 0, 53, 58
2, 68826, Note_on_c, 0, 77, 78
2, 68829, Note_on_c, 0, 57, 73
2, 68841, Note_off_c, 0, 74, 59
2, 68911, Note_off_c, 0, 77, 59
2, 68915, Note_on_c, 0, 75, 77
2, 68915, Note_on_c, 0, 55, 68
2, 68921, Note_off_c, 0, 57, 58
2, 69012, Note_on_c, 0, 77, 76
2, 69016, Note_off_c, 0, 55, 57
2, 69018, Note_on_c, 0, 57, 70
2, 69023, Note_off_c, 0, 75, 59
2, 69101, Note_off_c, 0, 77, 59
2, 69102, Note_on_c, 0, 79, 75
2, 69103, Note_on_c, 0, 59, 73
2, 69109, Note_off_c, 0, 57, 57
2, 69178, Note_on_c, 0, 55, 63
2, 69186, Note_off_c, 0, 79, 59
2, 69188, Note_off_c, 0, 59, 58
2, 69190, Note_on_c, 0, 75, 74
2, 69267, Note_on_c, 0, 53, 73
2, 69272, Note_on_c, 0, 74, 70
2, 69273, Note_off_c, 0, 55, 55
2, 69283, Note_off_c, 0, 75, 59
2, 69366, Note_on_c, 0, 75, 68
2, 69367, Note_off_c, 0, 53, 58
2, 69380, Note_on_c, 0, 55, 72
2, 69381, Note_off_c, 0, 74, 57
2, 69451, Note_off_c, 0, 75, 57
2, 69460, Note_on_c, 0, 51, 68
2, 69462, Note_on_c, 0, 72, 84
2, 69477, Note_off_c, 0, 55, 58
2, 69545, Note_off_c, 0, 72, 61
2, 69552, Note_on_c, 0, 67, 83
2, 69555, Note_off_c, 0, 51, 57
2, 69556, Note_on_c, 0, 75, 68
2, 69631, Note_on_c, 0, 74, 84
2, 69642, Note_off_c, 0, 67, 60
2, 69642, Note_on_c, 0, 65, 73
2, 69647, Note_off_c, 0, 75, 57
2, 69740, Note_on_c, 0, 75, 83
2, 69745, Note_off_c, 0, 65, 58
2, 69747, Note_off_c, 0, 74, 61
2, 69748, Note_on_c, 0, 67, 74
2, 69825, Note_on_c, 0, 68, 86
2, 69829, Note_off_c, 0, 75, 60
2, 69829, Note_on_c, 0, 77, 82
2, 69836, Note_off_c, 0, 67, 59
2, 69928, Note_on_c, 0, 74, 81
2, 69932, Note_on_c, 0, 65, 77
2, 69945, Note_off_c, 0, 77, 60
2, 69953, Note_off_c, 0, 68, 61
2, 70013, Note_on_c, 0, 63, 83
2, 70017, Note_on_c, 0, 72, 80
2, 70021, Note_off_c, 0, 65, 59
2, 70026, Note_off_c, 0, 74, 60
2, 70114, Note_on_c, 0, 74, 79
2, 70124, Note_on_c, 0, 65, 73
2, 70132, Note_off_c, 0, 63, 60
2, 70141, Note_off_c, 0, 72, 60
2, 70207, Note_on_c, 0, 71, 78
2, 70213, Note_on_c, 0, 62, 76
2, 70215, Note_off_c, 0, 74, 60
2, 70220, Note_off_c, 0, 65, 58
2, 70304, Note_on_c, 0, 74, 78
2, 70306, Note_on_c, 0, 65, 80
2, 70314, Note_off_c, 0, 71, 59
2, 70315, Note_off_c, 0, 62, 59
2, 70388, Note_on_c, 0, 72, 77
2, 70389, Note_off_c, 0, 74, 59
2, 70394, Note_off_c, 0, 65, 60
2, 70397, Note_on_c, 0, 63, 68
2, 70492, Note_on_c, 0, 74, 76
2, 70494, Note_on_c, 0, 65, 72
2, 70499, Note_off_c, 0, 63, 57
2, 70506, Note_off_c, 0, 72, 59
2, 70584, Note_on_c, 0, 67, 70
2, 70589, Note_off_c, 0, 65, 58
2, 70597, Note_off_c, 0, 74, 59
2, 70601, Note_on_c, 0, 75, 75
2, 70677, Note_off_c, 0, 67, 57
2, 70689, Note_on_c, 0, 72, 74
2, 70691, Note_on_c, 0, 63, 68
2, 70703, Note_off_c, 0, 75, 59
2, 70784, Note_on_c, 0, 62, 75
2, 70790, Note_on_c, 0, 71, 73
2, 70797, Note_off_c, 0, 72, 59
2, 70809, Note_off_c, 0, 63, 57
2, 70887, Note_on_c, 0, 63, 76
2, 70888, Note_on_c, 0, 72, 72
2, 70893, Note_off_c, 0, 71, 58
2, 70906, Note_off_c, 0, 62, 59
2, 70982, Note_on_c, 0, 67, 84
2, 70993, Note_off_c, 0, 72, 58
2, 70993, Note_on_c, 0, 60, 87
2, 71005, Note_off_c, 0, 63, 59
2, 71067, Note_off_c, 0, 67, 61
2, 71078, Note_on_c, 0, 72, 80
2, 71080, Note_on_c, 0, 63, 83
2, 71089, Note_off_c, 0, 60, 61
2, 71182, Note_on_c, 0, 62, 78
2, 71183, Note_on_c, 0, 71, 84
2, 71185, Note_off_c, 0, 63, 60
2, 71198, Note_off_c, 0, 72, 60
2, 71270, Note_on_c, 0, 63, 83
2, 71279, Note_on_c, 0, 72, 74
2, 71290, Note_off_c, 0, 62, 59
2, 71298, Note_off_c, 0, 71, 61
2, 71365, Note_on_c, 0, 68, 82
2, 71367, Note_on_c, 0, 65, 76
2, 71374, Note_off_c, 0, 63, 60
2, 71383, Note_off_c, 0, 72, 59
2, 71476, Note_on_c, 0, 62, 83
2, 71478, Note_on_c, 0, 77, 81
2, 71491, Note_off_c, 0, 68, 60
2, 71497, Note_off_c, 0, 65, 59
2, 71556, Note_on_c, 0, 75, 80
2, 71562, Note_on_c, 0, 60, 85
2, 71566, Note_off_c, 0, 62, 60
2, 71575, Note_off_c, 0, 77, 60
2, 71658, Note_on_c, 0, 77, 79
2, 71663, Note_on_c, 0, 62, 81
2, 71677, Note_off_c, 0, 60, 61
2, 71689, Note_off_c, 0, 75, 60
2, 71732, Note_on_c, 0, 67, 78
2, 71748, Note_on_c, 0, 63, 82
2, 71751, Note_off_c, 0, 77, 60
2, 71761, Note_off_c, 0, 62, 60
2, 71840, Note_off_c, 0, 67, 59
2, 71852, Note_on_c, 0, 75, 78
2, 71853, Note_off_c, 0, 63, 60
2, 71854, Note_on_c, 0, 60, 76
2, 71928, Note_on_c, 0, 74, 77
2, 71934, Note_on_c, 0, 59, 73
2, 71950, Note_off_c, 0, 75, 59
2, 71950, Note_off_c, 0, 60, 59
2, 72020, Note_off_c, 0, 74, 59
2, 72020, Note_on_c, 0, 75, 76
2, 72021, Note_on_c, 0, 60, 79
2, 72030, Note_off_c, 0, 59, 58
2, 72102, Note_on_c, 0, 65, 75
2, 72108, Note_on_c, 0, 62, 78
2, 72115, Note_off_c, 0, 75, 59
2, 72126, Note_off_c, 0, 60, 60
2, 72205, Note_on_c, 0, 74, 74
2, 72211, Note_on_c, 0, 59, 71
2, 72214, Note_off_c, 0, 65, 59
2, 72221, Note_off_c, 0, 62, 59
2, 72294, Note_on_c, 0, 57, 77
2, 72300, Note_off_c, 0, 74, 59
2, 72300, Note_on_c, 0, 72, 73
2, 72314, Note_off_c, 0, 59, 58
2, 72384, Note_on_c, 0, 74, 72
2, 72385, Note_on_c, 0, 59, 75
2, 72397, Note_off_c, 0, 57, 59
2, 72400, Note_off_c, 0, 72, 58
2, 72472, Note_on_c, 0, 60, 71
2, 72472, Note_on_c, 0, 63, 72
2, 72479, Note_off_c, 0, 59, 59
2, 72486, Note_off_c, 0, 74, 58
2, 72556, Note_off_c, 0, 63, 58
2, 72563, Note_on_c, 0, 72, 71
2, 72570, Note_off_c, 0, 60, 58
2, 72578, Note_on_c, 0, 63, 70
2, 72650, Note_off_c, 0, 72, 58
2, 72655, Note_on_c, 0, 71, 69
2, 72662, Note_on_c, 0, 62, 73
2, 72666, Note_off_c, 0, 63, 57
2, 72743, Note_on_c, 0, 72, 67
2, 72744, Note_on_c, 0, 63, 73
2, 72748, Note_off_c, 0, 71, 57
2, 72768, Note_off_c, 0, 62, 58
2, 72838, Note_off_c, 0, 72, 57
2, 72847, Note_on_c, 0, 68, 66
2, 72852, Note_on_c, 0, 53, 69
2, 72853, Note_off_c, 0, 63, 58
2, 72952, Note_on_c, 0, 65, 64
2, 72955, Note_on_c, 0, 62, 68
2, 72958, Note_off_c, 0, 68, 56
2, 72961, Note_off_c, 0, 53, 57
2, 73045, Note_on_c, 0, 63, 62
2, 73053, Note_off_c, 0, 65, 56
2, 73057, Note_off_c, 0, 62, 57
2, 73062, Note_on_c, 0, 60, 67
2, 73153, Note_on_c, 0, 62, 66
2, 73154, Note_off_c, 0, 63, 55
2, 73157, Note_on_c, 0, 65, 60
2, 73196, Note_off_c, 0, 60, 57
2, 73267, Note_on_c, 0, 67, 59
2, 73271, Note_off_c, 0, 62, 56
2, 73285, Note_on_c, 0, 51, 66
2, 73287, Note_off_c, 0, 65, 55
2, 73400, Note_on_c, 0, 60, 65
2, 73400, Note_on_c, 0, 63, 57
2, 73409, Note_off_c, 0, 67, 54
2, 73433, Note_off_c, 0, 51, 56
2, 73509, Note_on_c, 0, 62, 55
2, 73512, Note_on_c, 0, 59, 64
2, 73515, Note_off_c, 0, 63, 54
2, 73535, Note_off_c, 0, 60, 56
2, 73628, Note_on_c, 0, 63, 54
2, 73633, Note_off_c, 0, 59, 56
2, 73635, Note_on_c, 0, 60, 63
2, 73651, Note_off_c, 0, 62, 53
2, 73760, Note_on_c, 0, 65, 52
2, 73765, Note_on_c, 0, 50, 62
2, 73774, Note_off_c, 0, 60, 55
2, 73774, Note_off_c, 0, 63, 53
2, 73916, Note_off_c, 0, 50, 55
2, 73920, Note_on_c, 0, 62, 50
2, 73921, Note_off_c, 0, 65, 53
2, 73922, Note_on_c, 0, 59, 61
2, 74051, Note_on_c, 0, 57, 60
2, 74054, Note_on_c, 0, 60, 48
2, 74061, Note_off_c, 0, 62, 52
2, 74062, Note_off_c, 0, 59, 55
2, 74220, Note_off_c, 0, 60, 52
2, 74224, Note_on_c, 0, 62, 48
2, 74233, Note_off_c, 0, 57, 55
2, 74234, Note_on_c, 0, 59, 60
2, 74338, Note_off_c, 0, 62, 52
2, 74361, Note_on_c, 0, 48, 75
2, 74368, Note_off_c, 0, 59, 55
2, 74474, Note_on_c, 0, 55, 72
2, 74578, Note_on_c, 0, 58, 72
2, 74678, Note_on_c, 0, 60, 60
2, 74782, Note_on_c, 0, 64, 60
2, 76272, Note_off_c, 0, 64, 55
2, 76514, Note_on_c, 0, 64, 48
2, 76532, Note_off_c, 0, 60, 55
2, 76651, Note_off_c, 0, 64, 52
2, 76651, Note_on_c, 0, 60, 48
2, 76805, Note_off_c, 0, 60, 52
2, 76805, Note_on_c, 0, 62, 52
2, 76942, Note_off_c, 0, 62, 53
2, 76942, Note_on_c, 0, 64, 56
2, 77095, Note_off_c, 0, 64, 54
2, 77100, Note_on_c, 0, 65, 60
2, 77165, Note_off_c, 0, 65, 55
2, 77165, Note_on_c, 0, 67, 64
2, 77234, Note_off_c, 0, 67, 56
2, 77234, Note_on_c, 0, 68, 68
2, 77268, Note_off_c, 0, 58, 58
2, 77301, Note_off_c, 0, 55, 58
2, 77318, Note_off_c, 0, 68, 57
2, 77321, Note_on_c, 0, 70, 72
2, 77388, Note_off_c, 0, 70, 58
2, 77388, Note_on_c, 0, 72, 72
2, 77472, Note_off_c, 0, 72, 58
2, 77474, Note_on_c, 0, 70, 72
2, 77490, Note_off_c, 0, 48, 59
2, 77542, Note_off_c, 0, 70, 58
2, 77542, Note_on_c, 0, 68, 68
2, 77611, Note_off_c, 0, 68, 57
2, 77611, Note_on_c, 0, 67, 64
2, 77695, Note_off_c, 0, 67, 56
2, 77698, Note_on_c, 0, 65, 60
2, 77988, Note_off_c, 0, 65, 55
2, 77988, Note_on_c, 0, 67, 52
2, 78125, Note_off_c, 0, 67, 53
2, 78125, Note_on_c, 0, 63, 48
2, 78278, Note_off_c, 0, 63, 52
2, 78278, Note_on_c, 0, 48, 64
2, 78415, Note_on_c, 0, 53, 72
2, 78552, Note_on_c, 0, 56, 75
2, 78708, Note_on_c, 0, 60, 72
2, 78845, Note_off_c, 0, 60, 58
2, 78845, Note_on_c, 0, 65, 71
2, 78912, Note_off_c, 0, 65, 58
2, 78914, Note_on_c, 0, 67, 72
2, 78965, Note_off_c, 0, 67, 58
2, 78965, Note_on_c, 0, 65, 73
2, 79032, Note_off_c, 0, 65, 58
2, 79034, Note_on_c, 0, 67, 74
2, 79085, Note_off_c, 0, 67, 59
2, 79085, Note_on_c, 0, 65, 75
2, 79152, Note_off_c, 0, 65, 59
2, 79154, Note_on_c, 0, 67, 72
2, 79205, Note_off_c, 0, 67, 58
2, 79205, Note_on_c, 0, 65, 73
2, 79272, Note_off_c, 0, 65, 58
2, 79274, Note_on_c, 0, 67, 72
2, 79325, Note_off_c, 0, 67, 58
2, 79325, Note_on_c, 0, 65, 71
2, 79445, Note_off_c, 0, 65, 58
2, 79445, Note_on_c, 0, 67, 70
2, 79565, Note_off_c, 0, 67, 57
2, 79565, Note_on_c, 0, 65, 71
2, 79585, Note_off_c, 0, 48, 56
2, 79634, Note_off_c, 0, 53, 58
2, 79685, Note_off_c, 0, 65, 58
2, 79685, Note_on_c, 0, 64, 69
2, 79783, Note_off_c, 0, 56, 59
2, 79805, Note_off_c, 0, 64, 57
2, 79807, Note_on_c, 0, 65, 67
2, 79925, Note_off_c, 0, 65, 57
2, 79925, Note_on_c, 0, 67, 66
2, 80045, Note_off_c, 0, 67, 56
2, 80045, Note_on_c, 0, 68, 64
2, 80165, Note_off_c, 0, 68, 56
2, 80165, Note_on_c, 0, 67, 62
2, 80285, Note_off_c, 0, 67, 55
2, 80285, Note_on_c, 0, 65, 60
2, 80369, Note_off_c, 0, 65, 55
2, 80371, Note_on_c, 0, 63, 63
2, 80472, Note_off_c, 0, 63, 55
2, 80474, Note_on_c, 0, 62, 62
2, 80558, Note_off_c, 0, 62, 55
2, 80558, Note_on_c, 0, 63, 64
2, 80645, Note_off_c, 0, 63, 56
2, 80645, Note_on_c, 0, 65, 67
2, 80729, Note_off_c, 0, 65, 57
2, 80731, Note_on_c, 0, 62, 69
2, 80832, Note_off_c, 0, 62, 57
2, 80834, Note_on_c, 0, 63, 72
2, 80918, Note_off_c, 0, 63, 58
2, 80918, Note_on_c, 0, 65, 70
2, 81005, Note_off_c, 0, 65, 57
2, 81005, Note_on_c, 0, 59, 60
2, 81192, Note_on_c, 0, 36, 58
2, 81382, Note_off_c, 0, 36, 54
2, 81382, Note_on_c, 0, 47, 55
2, 81586, Note_off_c, 0, 59, 55
2, 81588, Note_on_c, 0, 50, 59
2, 81775, Note_on_c, 0, 53, 58
2, 81788, Note_off_c, 0, 50, 54
2, 81965, Note_on_c, 0, 56, 57
2, 81986, Note_off_c, 0, 53, 54
2, 82152, Note_on_c, 0, 55, 56
2, 82188, Note_off_c, 0, 56, 54
2, 82342, Note_on_c, 0, 53, 55
2, 82370, Note_off_c, 0, 55, 54
2, 82548, Note_on_c, 0, 59, 54
2, 82560, Note_off_c, 0, 53, 53
2, 82735, Note_on_c, 0, 53, 54
2, 82739, Note_off_c, 0, 59, 53
2, 82925, Note_on_c, 0, 62, 53
2, 82930, Note_off_c, 0, 53, 53
2, 83112, Note_on_c, 0, 53, 52
2, 83122, Note_off_c, 0, 62, 53
2, 83302, Note_on_c, 0, 59, 51
2, 83315, Note_off_c, 0, 53, 53
2, 83508, Note_on_c, 0, 56, 50
2, 83522, Note_off_c, 0, 59, 52
2, 83695, Note_on_c, 0, 55, 49
2, 83698, Note_off_c, 0, 56, 52
2, 83885, Note_on_c, 0, 53, 48
2, 83894, Note_off_c, 0, 55, 52
2, 84072, Note_off_c, 0, 47, 53
2, 84074, Note_on_c, 0, 52, 60
2, 84087, Note_on_c, 0, 36, 48
2, 84101, Note_on_c, 0, 48, 46
2, 84109, Note_off_c, 0, 53, 52
2, 84262, Note_on_c, 0, 61, 60
2, 84271, Note_off_c, 0, 52, 55
2, 84466, Note_off_c, 0, 61, 55
2, 84466, Note_on_c, 0, 58, 54
2, 84655, Note_on_c, 0, 55, 48
2, 84669, Note_off_c, 0, 58, 53
2, 84845, Note_on_c, 0, 60, 59
2, 84872, Note_off_c, 0, 55, 52
2, 85032, Note_on_c, 0, 56, 59
2, 85053, Note_off_c, 0, 60, 54
2, 85238, Note_on_c, 0, 53, 58
2, 85274, Note_off_c, 0, 56, 54
2, 85426, Note_on_c, 0, 56, 58
2, 85434, Note_off_c, 0, 53, 54
2, 85632, Note_on_c, 0, 55, 57
2, 85635, Note_off_c, 0, 56, 54
2, 85855, Note_on_c, 0, 58, 56
2, 85885, Note_off_c, 0, 55, 54
2, 86076, Note_off_c, 0, 58, 54
2, 86078, Note_on_c, 0, 55, 56
2, 86302, Note_on_c, 0, 52, 55
2, 86326, Note_off_c, 0, 55, 54
2, 86522, Note_on_c, 0, 56, 55
2, 86556, Note_off_c, 0, 52, 53
2, 86762, Note_on_c, 0, 53, 54
2, 86804, Note_off_c, 0, 56, 53
2, 87022, Note_on_c, 0, 50, 54
2, 87023, Note_off_c, 0, 53, 53
2, 87262, Note_on_c, 0, 53, 53
2, 87295, Note_off_c, 0, 50, 53
2, 87535, Note_on_c, 0, 52, 52
2, 87584, Note_off_c, 0, 53, 53
2, 87695, Note_off_c, 0, 48, 51
2, 87792, Note_off_c, 0, 52, 53
2, 87792, Note_on_c, 0, 55, 52
2, 88082, Note_off_c, 0, 55, 53
2, 88082, Note_on_c, 0, 52, 51
2, 88373, Note_off_c, 0, 52, 52
2, 88375, Note_on_c, 0, 48, 51
2, 88682, Note_off_c, 0, 48, 52
2, 88682, Note_on_c, 0, 53, 50
2, 88990, Note_off_c, 0, 53, 52
2, 88992, Note_on_c, 0, 50, 50
2, 89216, Note_off_c, 0, 36, 52
2, 89316, Note_off_c, 0, 50, 52
2, 89316, Note_on_c, 0, 47, 49
2, 89659, Note_off_c, 0, 47, 52
2, 89659, Note_on_c, 0, 50, 48
2, 90002, Note_off_c, 0, 50, 52
2, 90019, Note_on_c, 0, 36, 84
2, 90379, Note_on_c, 0, 43, 84
2, 90739, Note_off_c, 0, 43, 61
2, 90739, Note_on_c, 0, 48, 81
2, 91099, Note_on_c, 0, 50, 66
2, 91459, Note_off_c, 0, 50, 56
2, 91459, Note_on_c, 0, 52, 62
2, 91819, Note_off_c, 0, 52, 55
2, 91819, Note_on_c, 0, 55, 59
2, 92179, Note_off_c, 0, 55, 54
2, 92179, Note_on_c, 0, 58, 55
2, 92539, Note_on_c, 0, 55, 52
2, 92594, Note_off_c, 0, 58, 53
2, 92891, Note_off_c, 0, 55, 53
2, 92899, Note_on_c, 0, 56, 48
2, 93259, Note_on_c, 0, 60, 47
2, 93315, Note_off_c, 0, 56, 52
2, 93619, Note_on_c, 0, 65, 46
2, 93668, Note_off_c, 0, 60, 51
2, 93979, Note_on_c, 0, 62, 45
2, 94015, Note_off_c, 0, 65, 51
2, 94339, Note_on_c, 0, 65, 44
2, 94349, Note_off_c, 0, 62, 51
2, 94699, Note_on_c, 0, 68, 43
2, 94767, Note_off_c, 0, 65, 51
2, 95093, Note_on_c, 0, 72, 42
2, 95172, Note_off_c, 0, 68, 50
2, 95503, Note_on_c, 0, 71, 41
2, 95574, Note_off_c, 0, 72, 50
2, 95966, Note_on_c, 0, 72, 40
2, 96047, Note_off_c, 0, 71, 50
2, 96463, Note_on_c, 0, 67, 39
2, 96526, Note_off_c, 0, 72, 50
2, 97013, Note_on_c, 0, 65, 38
2, 97066, Note_off_c, 0, 67, 49
2, 97646, Note_on_c, 0, 62, 37
2, 97729, Note_off_c, 0, 65, 49
2, 98200, Note_off_c, 0, 62, 49
2, 98527, Note_on_c, 0, 64, 40
2, 98537, Note_on_c, 0, 60, 36
2, 98539, Note_on_c, 0, 55, 30
2, 103380, Note_off_c, 0, 55, 47
2, 103482, Note_off_c, 0, 60, 49
2, 104170, Note_off_c, 0, 36, 61
2, 104323, Note_off_c, 0, 64, 50
2, 104340, Note_off_c, 0, 48, 60
2, 104801, Note_on_c, 0, 72, 45
2, 104990, Note_on_c, 0, 71, 48
2, 105045, Note_off_c, 0, 72, 51
2, 105163, Note_on_c, 0, 72, 52
2, 105206, Note_off_c, 0, 71, 52
2, 105301, Note_off_c, 0, 72, 53
2, 105504, Note_on_c, 0, 67, 60
2, 105847, Note_on_c, 0, 68, 60
2, 105894, Note_off_c, 0, 67, 55
2, 106018, Note_off_c, 0, 68, 55
2, 106190, Note_on_c, 0, 72, 48
2, 106380, Note_on_c, 0, 71, 48
2, 106406, Note_off_c, 0, 72, 52
2, 106550, Note_on_c, 0, 72, 48
2, 106571, Note_off_c, 0, 71, 52
2, 106700, Note_off_c, 0, 72, 52
2, 106891, Note_on_c, 0, 74, 54
2, 107064, Note_off_c, 0, 74, 53
2, 107234, Note_on_c, 0, 67, 60
2, 107407, Note_off_c, 0, 67, 55
2, 107578, Note_on_c, 0, 72, 48
2, 107750, Note_on_c, 0, 71, 48
2, 107780, Note_off_c, 0, 72, 52
2, 107938, Note_on_c, 0, 72, 52
2, 107970, Note_off_c, 0, 71, 52
2, 108110, Note_off_c, 0, 72, 53
2, 108281, Note_on_c, 0, 74, 60
2, 108451, Note_off_c, 0, 74, 55
2, 108624, Note_on_c, 0, 65, 48
2, 108794, Note_on_c, 0, 67, 48
2, 108821, Note_off_c, 0, 65, 52
2, 108967, Note_on_c, 0, 68, 74
2, 108988, Note_off_c, 0, 67, 52
2, 109670, Note_on_c, 0, 67, 48
2, 109765, Note_off_c, 0, 68, 59
2, 109841, Note_on_c, 0, 65, 48
2, 109869, Note_off_c, 0, 67, 52
2, 110011, Note_on_c, 0, 63, 52
2, 110033, Note_off_c, 0, 65, 52
2, 110148, Note_off_c, 0, 63, 53
2, 110184, Note_on_c, 0, 72, 56
2, 110354, Note_on_c, 0, 79, 64
2, 110357, Note_on_c, 0, 71, 60
2, 110373, Note_off_c, 0, 72, 54
2, 110527, Note_on_c, 0, 78, 66
2, 110530, Note_on_c, 0, 69, 60
2, 110560, Note_off_c, 0, 71, 55
2, 110593, Note_off_c, 0, 79, 56
2, 110716, Note_off_c, 0, 69, 55
2, 110717, Note_on_c, 0, 79, 63
2, 110717, Note_on_c, 0, 67, 57
2, 110758, Note_off_c, 0, 78, 56
2, 110834, Note_off_c, 0, 67, 54
2, 110880, Note_off_c, 0, 79, 55
2, 110885, Note_on_c, 0, 65, 54
2, 111058, Note_on_c, 0, 63, 51
2, 111058, Note_on_c, 0, 72, 51
2, 111070, Note_off_c, 0, 65, 53
2, 111142, Note_off_c, 0, 63, 52
2, 111228, Note_off_c, 0, 72, 52
2, 111230, Note_on_c, 0, 62, 48
2, 111401, Note_on_c, 0, 75, 48
2, 111401, Note_on_c, 0, 60, 48
2, 111420, Note_off_c, 0, 62, 52
2, 111571, Note_off_c, 0, 60, 52
2, 111571, Note_off_c, 0, 75, 52
2, 111742, Note_on_c, 0, 79, 52
2, 111744, Note_on_c, 0, 75, 52
2, 111914, Note_on_c, 0, 78, 54
2, 111935, Note_off_c, 0, 79, 53
2, 112087, Note_on_c, 0, 74, 56
2, 112087, Note_on_c, 0, 79, 56
2, 112098, Note_off_c, 0, 78, 53
2, 112143, Note_off_c, 0, 75, 53
2, 112210, Note_off_c, 0, 79, 54
2, 112361, Note_off_c, 0, 74, 54
2, 112445, Note_on_c, 0, 81, 60
2, 112447, Note_on_c, 0, 72, 56
2, 112657, Note_off_c, 0, 81, 55
2, 112657, Note_off_c, 0, 72, 54
2, 112788, Note_on_c, 0, 70, 48
2, 112788, Note_on_c, 0, 74, 45
2, 112997, Note_off_c, 0, 74, 51
2, 113000, Note_off_c, 0, 70, 52
2, 113121, Note_on_c, 0, 79, 48
2, 113131, Note_on_c, 0, 69, 45
2, 113294, Note_on_c, 0, 78, 51
2, 113328, Note_off_c, 0, 79, 52
2, 113464, Note_on_c, 0, 79, 54
2, 113474, Note_off_c, 0, 69, 51
2, 113477, Note_on_c, 0, 70, 54
2, 113513, Note_off_c, 0, 78, 52
2, 113640, Note_off_c, 0, 79, 53
2, 113748, Note_off_c, 0, 70, 53
2, 113824, Note_on_c, 0, 81, 60
2, 113834, Note_on_c, 0, 72, 55
2, 114005, Note_off_c, 0, 72, 53
2, 114025, Note_off_c, 0, 81, 55
2, 114168, Note_on_c, 0, 66, 48
2, 114175, Note_on_c, 0, 72, 49
2, 114348, Note_on_c, 0, 74, 48
2, 114355, Note_off_c, 0, 72, 52
2, 114513, Note_on_c, 0, 67, 60
2, 114521, Note_on_c, 0, 75, 76
2, 114545, Note_off_c, 0, 74, 52
2, 114548, Note_off_c, 0, 66, 52
2, 114852, Note_on_c, 0, 69, 60
2, 114895, Note_off_c, 0, 67, 55
2, 115211, Note_off_c, 0, 69, 55
2, 115214, Note_on_c, 0, 66, 54
2, 115224, Note_on_c, 0, 74, 50
2, 115250, Note_off_c, 0, 75, 59
2, 115394, Note_on_c, 0, 72, 51
2, 115424, Note_off_c, 0, 74, 52
2, 115557, Note_on_c, 0, 67, 48
2, 115567, Note_on_c, 0, 70, 42
2, 115583, Note_off_c, 0, 66, 53
2, 115594, Note_off_c, 0, 72, 52
2, 115858, Note_off_c, 0, 70, 50
2, 115908, Note_on_c, 0, 75, 48
2, 116081, Note_on_c, 0, 74, 51
2, 116095, Note_off_c, 0, 67, 52
2, 116123, Note_off_c, 0, 75, 52
2, 116251, Note_on_c, 0, 75, 55
2, 116293, Note_off_c, 0, 74, 52
2, 116390, Note_off_c, 0, 75, 53
2, 116422, Note_on_c, 0, 60, 58
2, 116611, Note_on_c, 0, 67, 58
2, 116611, Note_on_c, 0, 62, 50
2, 116670, Note_off_c, 0, 60, 54
2, 116695, Note_off_c, 0, 62, 52
2, 116782, Note_off_c, 0, 67, 54
2, 116782, Note_on_c, 0, 63, 58
2, 116954, Note_on_c, 0, 68, 58
2, 116954, Note_on_c, 0, 65, 52
2, 116980, Note_off_c, 0, 63, 54
2, 117038, Note_off_c, 0, 65, 53
2, 117125, Note_on_c, 0, 67, 60
2, 117151, Note_off_c, 0, 68, 54
2, 117288, Note_on_c, 0, 77, 60
2, 117298, Note_on_c, 0, 68, 54
2, 117327, Note_off_c, 0, 67, 55
2, 117458, Note_on_c, 0, 75, 60
2, 117486, Note_off_c, 0, 77, 55
2, 117628, Note_on_c, 0, 77, 57
2, 117663, Note_off_c, 0, 75, 55
2, 117760, Note_off_c, 0, 77, 54
2, 117775, Note_off_c, 0, 68, 53
2, 117809, Note_on_c, 0, 62, 54
2, 117982, Note_on_c, 0, 69, 51
2, 117984, Note_on_c, 0, 63, 51
2, 118020, Note_off_c, 0, 62, 53
2, 118085, Note_off_c, 0, 63, 52
2, 118171, Note_on_c, 0, 65, 48
2, 118202, Note_off_c, 0, 69, 52
2, 118342, Note_on_c, 0, 70, 48
2, 118342, Note_on_c, 0, 67, 48
2, 118380, Note_off_c, 0, 65, 52
2, 118426, Note_off_c, 0, 67, 52
2, 118514, Note_on_c, 0, 69, 52
2, 118543, Note_off_c, 0, 70, 52
2, 118685, Note_on_c, 0, 79, 73
2, 118685, Note_on_c, 0, 70, 56
2, 118702, Note_off_c, 0, 69, 53
2, 118855, Note_on_c, 0, 77, 60
2, 118893, Note_off_c, 0, 79, 58
2, 119028, Note_on_c, 0, 79, 60
2, 119055, Note_off_c, 0, 77, 55
2, 119160, Note_off_c, 0, 79, 55
2, 119162, Note_off_c, 0, 70, 54
2, 119198, Note_on_c, 0, 63, 60
2, 119371, Note_on_c, 0, 71, 56
2, 119371, Note_on_c, 0, 65, 56
2, 119406, Note_off_c, 0, 63, 55
2, 119455, Note_off_c, 0, 65, 54
2, 119558, Note_on_c, 0, 67, 52
2, 119567, Note_off_c, 0, 71, 54
2, 119731, Note_on_c, 0, 72, 48
2, 119731, Note_on_c, 0, 68, 48
2, 119760, Note_off_c, 0, 67, 53
2, 119815, Note_off_c, 0, 68, 52
2, 119902, Note_on_c, 0, 67, 48
2, 119904, Note_off_c, 0, 72, 52
2, 120072, Note_on_c, 0, 74, 52
2, 120074, Note_on_c, 0, 65, 52
2, 120110, Note_off_c, 0, 67, 52
2, 120245, Note_on_c, 0, 75, 56
2, 120247, Note_on_c, 0, 63, 56
2, 120278, Note_off_c, 0, 74, 53
2, 120283, Note_off_c, 0, 65, 53
2, 120408, Note_on_c, 0, 77, 72
2, 120418, Note_on_c, 0, 62, 60
2, 120428, Note_off_c, 0, 75, 54
2, 120442, Note_off_c, 0, 63, 54
2, 120672, Note_off_c, 0, 62, 55
2, 120758, Note_on_c, 0, 72, 60
2, 120919, Note_off_c, 0, 77, 58
2, 120931, Note_on_c, 0, 71, 57
2, 120941, Note_off_c, 0, 72, 55
2, 121118, Note_on_c, 0, 72, 54
2, 121130, Note_off_c, 0, 71, 54
2, 121459, Note_on_c, 0, 75, 48
2, 121462, Note_on_c, 0, 60, 48
2, 121632, Note_off_c, 0, 75, 52
2, 121634, Note_on_c, 0, 59, 48
2, 121634, Note_on_c, 0, 74, 45
2, 121696, Note_off_c, 0, 60, 52
2, 121722, Note_off_c, 0, 72, 53
2, 121788, Note_off_c, 0, 74, 51
2, 121802, Note_on_c, 0, 72, 42
2, 121805, Note_on_c, 0, 60, 48
2, 121816, Note_off_c, 0, 59, 52
2, 121950, Note_off_c, 0, 60, 52
2, 121975, Note_on_c, 0, 70, 39
2, 122002, Note_off_c, 0, 72, 50
2, 122146, Note_on_c, 0, 68, 36
2, 122148, Note_on_c, 0, 55, 48
2, 122171, Note_off_c, 0, 70, 49
2, 122318, Note_off_c, 0, 55, 52
2, 122318, Note_off_c, 0, 68, 49
2, 122318, Note_on_c, 0, 67, 36
2, 122506, Note_on_c, 0, 65, 36
2, 122508, Note_on_c, 0, 56, 48
2, 122525, Note_off_c, 0, 67, 49
2, 122676, Note_off_c, 0, 56, 52
2, 122762, Note_off_c, 0, 65, 49
2, 122841, Note_on_c, 0, 60, 43
2, 122849, Note_on_c, 0, 80, 37
2, 122859, Note_on_c, 0, 77, 30
2, 123012, Note_on_c, 0, 59, 48
2, 123041, Note_off_c, 0, 60, 50
2, 123187, Note_on_c, 0, 60, 48
2, 123198, Note_off_c, 0, 59, 52
2, 123198, Note_off_c, 0, 77, 47
2, 123204, Note_on_c, 0, 79, 39
2, 123204, Note_on_c, 0, 75, 35
2, 123216, Note_off_c, 0, 80, 49
2, 123310, Note_off_c, 0, 60, 52
2, 123478, Note_off_c, 0, 79, 49
2, 123487, Note_off_c, 0, 75, 48
2, 123525, Note_on_c, 0, 62, 48
2, 123540, Note_on_c, 0, 74, 34
2, 123543, Note_on_c, 0, 77, 41
2, 123698, Note_off_c, 0, 62, 52
2, 123715, Note_off_c, 0, 74, 48
2, 123722, Note_off_c, 0, 77, 50
2, 123868, Note_on_c, 0, 55, 48
2, 123876, Note_on_c, 0, 75, 43
2, 124056, Note_off_c, 0, 55, 52
2, 124066, Note_off_c, 0, 75, 50
2, 124228, Note_on_c, 0, 60, 46
2, 124244, Note_on_c, 0, 74, 44
2, 124246, Note_on_c, 0, 68, 39
2, 124399, Note_on_c, 0, 59, 48
2, 124429, Note_off_c, 0, 60, 51
2, 124574, Note_on_c, 0, 60, 50
2, 124582, Note_on_c, 0, 75, 46
2, 124585, Note_off_c, 0, 74, 51
2, 124586, Note_off_c, 0, 68, 49
2, 124591, Note_on_c, 0, 67, 40
2, 124636, Note_off_c, 0, 59, 52
2, 124690, Note_off_c, 0, 60, 52
2, 124833, Note_off_c, 0, 67, 50
2, 124841, Note_off_c, 0, 75, 51
2, 124925, Note_on_c, 0, 62, 48
2, 124928, Note_on_c, 0, 77, 49
2, 124932, Note_on_c, 0, 65, 40
2, 125092, Note_off_c, 0, 77, 52
2, 125095, Note_off_c, 0, 62, 52
2, 125116, Note_off_c, 0, 65, 50
2, 125258, Note_on_c, 0, 53, 48
2, 125273, Note_on_c, 0, 67, 43
2, 125276, Note_on_c, 0, 71, 50
2, 125448, Note_on_c, 0, 55, 48
2, 125459, Note_off_c, 0, 67, 50
2, 125480, Note_off_c, 0, 53, 52
2, 125490, Note_off_c, 0, 71, 52
2, 125618, Note_on_c, 0, 56, 72
2, 125628, Note_on_c, 0, 65, 46
2, 125635, Note_off_c, 0, 55, 52
2, 125635, Note_on_c, 0, 72, 52
2, 125798, Note_on_c, 0, 63, 52
2, 125851, Note_off_c, 0, 65, 51
2, 125976, Note_on_c, 0, 65, 49
2, 125979, Note_on_c, 0, 74, 53
2, 126015, Note_off_c, 0, 72, 53
2, 126025, Note_off_c, 0, 63, 53
2, 126230, Note_off_c, 0, 65, 52
2, 126252, Note_off_c, 0, 74, 53
2, 126304, Note_on_c, 0, 55, 48
2, 126317, Note_on_c, 0, 62, 50
2, 126322, Note_on_c, 0, 71, 55
2, 126340, Note_off_c, 0, 56, 58
2, 126475, Note_on_c, 0, 53, 48
2, 126483, Note_off_c, 0, 71, 53
2, 126484, Note_off_c, 0, 62, 52
2, 126491, Note_off_c, 0, 55, 52
2, 126630, Note_off_c, 0, 53, 52
2, 126648, Note_on_c, 0, 51, 48
2, 126661, Note_on_c, 0, 72, 57
2, 126665, Note_on_c, 0, 67, 57
2, 126768, Note_off_c, 0, 51, 52
2, 126825, Note_off_c, 0, 72, 54
2, 126826, Note_on_c, 0, 60, 48
2, 127005, Note_on_c, 0, 79, 59
2, 127011, Note_off_c, 0, 60, 52
2, 127015, Note_on_c, 0, 59, 48
2, 127061, Note_off_c, 0, 67, 54
2, 127156, Note_off_c, 0, 59, 52
2, 127176, Note_on_c, 0, 78, 60
2, 127188, Note_on_c, 0, 57, 48
2, 127204, Note_off_c, 0, 79, 54
2, 127331, Note_off_c, 0, 57, 52
2, 127348, Note_on_c, 0, 79, 60
2, 127358, Note_on_c, 0, 55, 48
2, 127382, Note_off_c, 0, 78, 55
2, 127450, Note_off_c, 0, 79, 55
2, 127512, Note_off_c, 0, 55, 52
2, 127529, Note_on_c, 0, 53, 48
2, 127681, Note_off_c, 0, 53, 52
2, 127699, Note_on_c, 0, 74, 60
2, 127702, Note_on_c, 0, 71, 54
2, 127702, Note_on_c, 0, 51, 50
2, 127870, Note_off_c, 0, 74, 55
2, 127872, Note_off_c, 0, 71, 53
2, 127872, Note_on_c, 0, 50, 52
2, 127879, Note_off_c, 0, 51, 52
2, 128032, Note_on_c, 0, 75, 63
2, 128042, Note_on_c, 0, 72, 58
2, 128045, Note_on_c, 0, 48, 54
2, 128064, Note_off_c, 0, 50, 53
2, 128206, Note_off_c, 0, 48, 53
2, 128213, Note_off_c, 0, 72, 54
2, 128215, Note_on_c, 0, 50, 56
2, 128392, Note_off_c, 0, 75, 55
2, 128398, Note_off_c, 0, 50, 54
2, 128402, Note_on_c, 0, 72, 66
2, 128405, Note_on_c, 0, 51, 58
2, 128547, Note_off_c, 0, 51, 54
2, 128575, Note_on_c, 0, 71, 67
2, 128575, Note_on_c, 0, 50, 60
2, 128620, Note_off_c, 0, 72, 56
2, 128746, Note_on_c, 0, 72, 69
2, 128747, Note_off_c, 0, 50, 55
2, 128748, Note_on_c, 0, 48, 60
2, 128774, Note_off_c, 0, 71, 57
2, 128890, Note_off_c, 0, 72, 57
2, 128916, Note_on_c, 0, 46, 60
2, 128928, Note_off_c, 0, 48, 55
2, 129083, Note_on_c, 0, 76, 72
2, 129091, Note_on_c, 0, 44, 60
2, 129092, Note_off_c, 0, 46, 55
2, 129099, Note_on_c, 0, 67, 63
2, 129240, Note_off_c, 0, 44, 55
2, 129247, Note_off_c, 0, 76, 58
2, 129262, Note_off_c, 0, 67, 55
2, 129262, Note_on_c, 0, 43, 60
2, 129405, Note_off_c, 0, 43, 55
2, 129429, Note_on_c, 0, 77, 48
2, 129432, Note_on_c, 0, 41, 60
2, 129442, Note_on_c, 0, 68, 41
2, 129541, Note_off_c, 0, 41, 55
2, 129602, Note_on_c, 0, 58, 64
2, 129710, Note_off_c, 0, 77, 52
2, 129763, Note_on_c, 0, 77, 52
2, 129766, Note_off_c, 0, 58, 56
2, 129773, Note_on_c, 0, 56, 68
2, 129923, Note_off_c, 0, 56, 57
2, 129952, Note_on_c, 0, 76, 56
2, 129965, Note_on_c, 0, 55, 72
2, 129971, Note_off_c, 0, 77, 53
2, 130125, Note_on_c, 0, 77, 60
2, 130135, Note_off_c, 0, 55, 58
2, 130138, Note_on_c, 0, 53, 72
2, 130152, Note_off_c, 0, 68, 50
2, 130160, Note_off_c, 0, 76, 54
2, 130240, Note_off_c, 0, 77, 55
2, 130304, Note_off_c, 0, 53, 58
2, 130306, Note_on_c, 0, 51, 72
2, 130460, Note_off_c, 0, 51, 58
2, 130471, Note_on_c, 0, 72, 65
2, 130478, Note_on_c, 0, 50, 66
2, 130487, Note_on_c, 0, 69, 60
2, 130637, Note_off_c, 0, 50, 56
2, 130649, Note_on_c, 0, 48, 60
2, 130800, Note_off_c, 0, 48, 55
2, 130818, Note_on_c, 0, 74, 48
2, 130824, Note_on_c, 0, 46, 60
2, 130831, Note_on_c, 0, 70, 42
2, 130833, Note_off_c, 0, 72, 56
2, 130879, Note_off_c, 0, 69, 55
2, 130990, Note_on_c, 0, 48, 60
2, 130992, Note_off_c, 0, 46, 55
2, 131097, Note_off_c, 0, 70, 50
2, 131145, Note_off_c, 0, 48, 55
2, 131160, Note_on_c, 0, 70, 48
2, 131162, Note_on_c, 0, 50, 62
2, 131328, Note_off_c, 0, 50, 55
2, 131352, Note_on_c, 0, 48, 64
2, 131352, Note_on_c, 0, 69, 57
2, 131415, Note_off_c, 0, 70, 52
2, 131479, Note_off_c, 0, 74, 52
2, 131497, Note_off_c, 0, 48, 56
2, 131525, Note_on_c, 0, 46, 67
2, 131525, Note_on_c, 0, 70, 66
2, 131542, Note_off_c, 0, 69, 54
2, 131660, Note_off_c, 0, 46, 57
2, 131693, Note_on_c, 0, 44, 69
2, 131856, Note_on_c, 0, 74, 84
2, 131863, Note_off_c, 0, 70, 56
2, 131868, Note_on_c, 0, 43, 71
2, 131868, Note_on_c, 0, 65, 70
2, 131879, Note_off_c, 0, 44, 57
2, 131998, Note_off_c, 0, 43, 58
2, 132018, Note_off_c, 0, 74, 61
2, 132031, Note_off_c, 0, 65, 57
2, 132038, Note_on_c, 0, 41, 73
2, 132195, Note_on_c, 0, 75, 84
2, 132204, Note_on_c, 0, 67, 79
2, 132209, Note_on_c, 0, 39, 72
2, 132217, Note_off_c, 0, 41, 58
2, 132332, Note_off_c, 0, 39, 58
2, 132377, Note_on_c, 0, 56, 73
2, 132510, Note_off_c, 0, 75, 61
2, 132520, Note_off_c, 0, 56, 58
2, 132540, Note_on_c, 0, 75, 81
2, 132550, Note_on_c, 0, 55, 75
2, 132695, Note_off_c, 0, 55, 59
2, 132712, Note_on_c, 0, 74, 80
2, 132725, Note_on_c, 0, 53, 76
2, 132739, Note_off_c, 0, 75, 60
2, 132892, Note_off_c, 0, 53, 59
2, 132896, Note_off_c, 0, 67, 60
2, 132902, Note_on_c, 0, 75, 78
2, 132912, Note_on_c, 0, 51, 78
2, 132952, Note_off_c, 0, 74, 60
2, 133030, Note_off_c, 0, 75, 59
2, 133082, Note_on_c, 0, 49, 79
2, 133096, Note_off_c, 0, 51, 59
2, 133237, Note_off_c, 0, 49, 60
2, 133255, Note_on_c, 0, 48, 81
2, 133258, Note_on_c, 0, 70, 75
2, 133258, Note_on_c, 0, 67, 70
2, 133393, Note_off_c, 0, 48, 60
2, 133426, Note_on_c, 0, 46, 82
2, 133440, Note_off_c, 0, 67, 57
2, 133445, Note_off_c, 0, 70, 59
2, 133598, Note_on_c, 0, 44, 84
2, 133598, Note_on_c, 0, 68, 69
2, 133604, Note_on_c, 0, 72, 72
2, 133605, Note_off_c, 0, 46, 60
2, 133774, Note_off_c, 0, 72, 58
2, 133798, Note_off_c, 0, 68, 57
2, 133853, Note_off_c, 0, 44, 61
2, 133927, Note_on_c, 0, 75, 48
2, 133940, Note_on_c, 0, 60, 38
2, 133948, Note_on_c, 0, 68, 36
2, 134100, Note_on_c, 0, 74, 48
2, 134140, Note_off_c, 0, 75, 52
2, 134289, Note_on_c, 0, 75, 50
2, 134309, Note_on_c, 0, 58, 49
2, 134309, Note_on_c, 0, 67, 41
2, 134314, Note_off_c, 0, 74, 52
2, 134316, Note_off_c, 0, 60, 49
2, 134382, Note_off_c, 0, 68, 49
2, 134400, Note_off_c, 0, 75, 52
2, 134569, Note_off_c, 0, 58, 52
2, 134597, Note_off_c, 0, 67, 50
2, 134630, Note_on_c, 0, 77, 54
2, 134642, Note_on_c, 0, 65, 48
2, 134649, Note_on_c, 0, 56, 52
2, 134800, Note_off_c, 0, 77, 53
2, 134845, Note_off_c, 0, 65, 52
2, 134846, Note_off_c, 0, 56, 53
2, 134973, Note_on_c, 0, 70, 58
2, 134983, Note_on_c, 0, 55, 55
2, 135144, Note_off_c, 0, 70, 54
2, 135156, Note_off_c, 0, 55, 53
2, 135316, Note_on_c, 0, 75, 63
2, 135329, Note_on_c, 0, 53, 58
2, 135335, Note_on_c, 0, 56, 53
2, 135489, Note_on_c, 0, 74, 65
2, 135508, Note_off_c, 0, 75, 55
2, 135679, Note_on_c, 0, 75, 67
2, 135697, Note_on_c, 0, 58, 55
2, 135701, Note_on_c, 0, 55, 60
2, 135720, Note_off_c, 0, 74, 56
2, 135740, Note_off_c, 0, 53, 54
2, 135766, Note_off_c, 0, 56, 53
2, 135790, Note_off_c, 0, 75, 57
2, 135954, Note_off_c, 0, 58, 53
2, 135986, Note_off_c, 0, 55, 55
2, 136017, Note_on_c, 0, 77, 72
2, 136032, Note_on_c, 0, 60, 55
2, 136039, Note_on_c, 0, 56, 60
2, 136190, Note_off_c, 0, 77, 58
2, 136216, Note_off_c, 0, 56, 55
2, 136219, Note_off_c, 0, 60, 53
2, 136360, Note_on_c, 0, 68, 48
2, 136373, Note_on_c, 0, 50, 50
2, 136533, Note_on_c, 0, 70, 48
2, 136543, Note_off_c, 0, 50, 52
2, 136565, Note_off_c, 0, 68, 52
2, 136706, Note_on_c, 0, 72, 84
2, 136706, Note_on_c, 0, 56, 50
2, 136709, Note_off_c, 0, 70, 52
2, 136716, Note_on_c, 0, 51, 45
2, 136876, Note_on_c, 0, 55, 52
2, 136891, Note_off_c, 0, 56, 52
2, 137049, Note_on_c, 0, 56, 49
2, 137057, Note_off_c, 0, 51, 51
2, 137059, Note_on_c, 0, 53, 55
2, 137087, Note_off_c, 0, 55, 53
2, 137130, Note_off_c, 0, 56, 52
2, 137333, Note_off_c, 0, 53, 53
2, 137407, Note_off_c, 0, 72, 61
2, 137407, Note_on_c, 0, 70, 60
2, 137409, Note_on_c, 0, 53, 54
2, 137419, Note_on_c, 0, 50, 60
2, 137580, Note_on_c, 0, 68, 58
2, 137611, Note_off_c, 0, 70, 55
2, 137750, Note_off_c, 0, 53, 53
2, 137752, Note_on_c, 0, 67, 57
2, 137762, Note_off_c, 0, 50, 55
2, 137762, Note_on_c, 0, 58, 48
2, 137765, Note_on_c, 0, 51, 46
2, 137783, Note_off_c, 0, 68, 54
2, 137923, Note_on_c, 0, 63, 56
2, 137949, Note_off_c, 0, 67, 54
2, 138017, Note_off_c, 0, 51, 51
2, 138017, Note_off_c, 0, 58, 52
2, 138103, Note_on_c, 0, 65, 55
2, 138105, Note_on_c, 0, 60, 44
2, 138111, Note_off_c, 0, 63, 54
2, 138113, Note_on_c, 0, 56, 48
2, 138274, Note_on_c, 0, 67, 53
2, 138291, Note_off_c, 0, 65, 53
2, 138436, Note_off_c, 0, 60, 51
2, 138449, Note_on_c, 0, 68, 52
2, 138459, Note_on_c, 0, 58, 36
2, 138459, Note_on_c, 0, 55, 30
2, 138463, Note_off_c, 0, 67, 53
2, 138479, Note_off_c, 0, 56, 52
2, 138634, Note_on_c, 0, 70, 50
2, 138657, Note_off_c, 0, 68, 53
2, 138734, Note_off_c, 0, 58, 49
2, 138736, Note_off_c, 0, 55, 47
2, 138806, Note_on_c, 0, 72, 54
2, 138810, Note_on_c, 0, 56, 38
2, 138816, Note_off_c, 0, 70, 52
2, 138816, Note_on_c, 0, 53, 42
2, 138977, Note_off_c, 0, 53, 50
2, 138979, Note_on_c, 0, 74, 57
2, 138981, Note_off_c, 0, 72, 53
2, 139080, Note_off_c, 0, 56, 49
2, 139150, Note_on_c, 0, 75, 61
2, 139155, Note_on_c, 0, 58, 48
2, 139160, Note_on_c, 0, 55, 55
2, 139165, Note_off_c, 0, 74, 54
2, 139322, Note_on_c, 0, 74, 59
2, 139327, Note_off_c, 0, 55, 53
2, 139333, Note_off_c, 0, 75, 55
2, 139340, Note_off_c, 0, 58, 52
2, 139490, Note_on_c, 0, 72, 58
2, 139494, Note_on_c, 0, 51, 55
2, 139502, Note_on_c, 0, 55, 50
2, 139525, Note_off_c, 0, 74, 54
2, 139663, Note_on_c, 0, 74, 55
2, 139697, Note_off_c, 0, 72, 54
2, 139836, Note_on_c, 0, 75, 54
2, 139837, Note_on_c, 0, 53, 50
2, 139841, Note_off_c, 0, 74, 53
2, 139848, Note_on_c, 0, 50, 55
2, 139874, Note_off_c, 0, 51, 53
2, 139898, Note_off_c, 0, 55, 52
2, 140006, Note_on_c, 0, 77, 52
2, 140040, Note_off_c, 0, 75, 53
2, 140092, Note_off_c, 0, 50, 53
2, 140095, Note_off_c, 0, 53, 52
2, 140194, Note_on_c, 0, 79, 52
2, 140199, Note_on_c, 0, 48, 59
2, 140201, Note_on_c, 0, 51, 56
2, 140207, Note_off_c, 0, 77, 53
2, 140356, Note_off_c, 0, 48, 54
2, 140366, Note_on_c, 0, 81, 51
2, 140384, Note_off_c, 0, 79, 53
2, 140400, Note_off_c, 0, 51, 54
2, 140537, Note_on_c, 0, 82, 50
2, 140541, Note_on_c, 0, 53, 57
2, 140549, Note_on_c, 0, 50, 60
2, 140560, Note_off_c, 0, 81, 52
2, 140657, Note_off_c, 0, 82, 52
2, 140710, Note_on_c, 0, 65, 48
2, 140723, Note_off_c, 0, 50, 55
2, 140730, Note_off_c, 0, 53, 54
2, 140878, Note_off_c, 0, 65, 52
2, 140880, Note_on_c, 0, 67, 48
2, 140882, Note_on_c, 0, 61, 46
2, 140887, Note_on_c, 0, 58, 48
2, 141050, Note_off_c, 0, 67, 52
2, 141050, Note_on_c, 0, 68, 50
2, 141221, Note_off_c, 0, 68, 52
2, 141223, Note_off_c, 0, 61, 51
2, 141223, Note_on_c, 0, 70, 52
2, 141231, Note_on_c, 0, 60, 46
2, 141232, Note_on_c, 0, 56, 49
2, 141250, Note_off_c, 0, 58, 52
2, 141394, Note_on_c, 0, 72, 54
2, 141419, Note_off_c, 0, 70, 53
2, 141503, Note_off_c, 0, 56, 52
2, 141512, Note_off_c, 0, 60, 51
2, 141583, Note_on_c, 0, 74, 56
2, 141589, Note_on_c, 0, 58, 48
2, 141594, Note_on_c, 0, 55, 51
2, 141602, Note_off_c, 0, 72, 53
2, 141756, Note_on_c, 0, 76, 58
2, 141777, Note_off_c, 0, 58, 52
2, 141788, Note_off_c, 0, 74, 54
2, 141788, Note_off_c, 0, 55, 52
2, 141924, Note_on_c, 0, 77, 60
2, 141934, Note_on_c, 0, 56, 54
2, 141935, Note_on_c, 0, 60, 54
2, 141953, Note_off_c, 0, 76, 54
2, 142099, Note_on_c, 0, 75, 62
2, 142106, Note_off_c, 0, 77, 55
2, 142118, Note_off_c, 0, 60, 53
2, 142125, Note_off_c, 0, 56, 53
2, 142267, Note_on_c, 0, 74, 64
2, 142274, Note_on_c, 0, 53, 50
2, 142280, Note_on_c, 0, 56, 56
2, 142295, Note_off_c, 0, 75, 55
2, 142440, Note_on_c, 0, 75, 66
2, 142465, Note_off_c, 0, 74, 56
2, 142613, Note_on_c, 0, 77, 68
2, 142618, Note_off_c, 0, 56, 54
2, 142621, Note_on_c, 0, 51, 55
2, 142622, Note_on_c, 0, 55, 58
2, 142640, Note_off_c, 0, 75, 56
2, 142657, Note_off_c, 0, 53, 52
2, 142780, Note_off_c, 0, 77, 57
2, 142781, Note_on_c, 0, 79, 70
2, 142894, Note_off_c, 0, 55, 54
2, 142905, Note_off_c, 0, 51, 53
2, 142954, Note_on_c, 0, 81, 72
2, 142959, Note_on_c, 0, 53, 55
2, 142964, Note_off_c, 0, 79, 57
2, 142965, Note_on_c, 0, 50, 60
2, 143143, Note_on_c, 0, 83, 72
2, 143155, Note_off_c, 0, 81, 58
2, 143158, Note_off_c, 0, 53, 53
2, 143182, Note_off_c, 0, 50, 55
2, 143314, Note_on_c, 0, 84, 70
2, 143316, Note_off_c, 0, 83, 58
2, 143318, Note_on_c, 0, 51, 56
2, 143324, Note_on_c, 0, 55, 60
2, 143487, Note_off_c, 0, 51, 54
2, 143513, Note_off_c, 0, 55, 55
2, 143657, Note_on_c, 0, 83, 68
2, 143657, Note_on_c, 0, 67, 68
2, 143694, Note_off_c, 0, 84, 57
2, 143827, Note_on_c, 0, 81, 65
2, 143830, Note_on_c, 0, 66, 60
2, 143833, Note_off_c, 0, 83, 57
2, 143889, Note_off_c, 0, 67, 57
2, 144000, Note_on_c, 0, 67, 65
2, 144000, Note_on_c, 0, 79, 63
2, 144020, Note_off_c, 0, 81, 56
2, 144034, Note_off_c, 0, 66, 55
2, 144110, Note_off_c, 0, 67, 56
2, 144141, Note_off_c, 0, 79, 55
2, 144170, Note_on_c, 0, 77, 60
2, 144341, Note_off_c, 0, 77, 55
2, 144341, Note_on_c, 0, 75, 56
2, 144343, Note_on_c, 0, 60, 58
2, 144478, Note_off_c, 0, 75, 54
2, 144530, Note_on_c, 0, 74, 56
2, 144614, Note_off_c, 0, 60, 54
2, 144701, Note_off_c, 0, 74, 54
2, 144701, Note_on_c, 0, 72, 53
2, 144703, Note_on_c, 0, 63, 50
2, 144958, Note_off_c, 0, 72, 53
2, 144958, Note_off_c, 0, 63, 52
2, 145034, Note_on_c, 0, 75, 48
2, 145036, Note_on_c, 0, 48, 66
2, 145044, Note_on_c, 0, 67, 45
2, 145217, Note_on_c, 0, 66, 48
2, 145262, Note_off_c, 0, 67, 51
2, 145382, Note_on_c, 0, 46, 68
2, 145390, Note_on_c, 0, 74, 49
2, 145390, Note_on_c, 0, 67, 40
2, 145410, Note_off_c, 0, 66, 52
2, 145430, Note_off_c, 0, 75, 52
2, 145440, Note_off_c, 0, 48, 56
2, 145510, Note_off_c, 0, 67, 50
2, 145634, Note_off_c, 0, 46, 57
2, 145644, Note_off_c, 0, 74, 52
2, 145720, Note_on_c, 0, 45, 69
2, 145728, Note_on_c, 0, 72, 53
2, 145730, Note_on_c, 0, 69, 46
2, 145893, Note_off_c, 0, 45, 57
2, 145901, Note_off_c, 0, 69, 51
2, 145901, Note_off_c, 0, 72, 53
2, 146088, Note_on_c, 0, 70, 56
2, 146090, Note_on_c, 0, 62, 52
2, 146261, Note_off_c, 0, 70, 54
2, 146261, Note_off_c, 0, 62, 53
2, 146436, Note_on_c, 0, 67, 58
2, 146442, Note_on_c, 0, 51, 72
2, 146448, Note_on_c, 0, 69, 60
2, 146604, Note_on_c, 0, 66, 60
2, 146647, Note_off_c, 0, 67, 54
2, 146776, Note_on_c, 0, 50, 71
2, 146781, Note_on_c, 0, 70, 59
2, 146785, Note_on_c, 0, 67, 52
2, 146793, Note_off_c, 0, 66, 55
2, 146807, Note_off_c, 0, 69, 55
2, 146818, Note_off_c, 0, 51, 58
2, 146900, Note_off_c, 0, 67, 53
2, 147031, Note_off_c, 0, 50, 58
2, 147035, Note_off_c, 0, 70, 54
2, 147111, Note_on_c, 0, 48, 68
2, 147124, Note_on_c, 0, 72, 56
2, 147128, Note_on_c, 0, 69, 50
2, 147281, Note_off_c, 0, 48, 57
2, 147294, Note_off_c, 0, 72, 54
2, 147300, Note_off_c, 0, 69, 52
2, 147475, Note_on_c, 0, 50, 65
2, 147480, Note_on_c, 0, 66, 54
2, 147486, Note_on_c, 0, 60, 48
2, 147645, Note_off_c, 0, 50, 56
2, 147650, Note_on_c, 0, 62, 52
2, 147665, Note_off_c, 0, 60, 52
2, 147811, Note_on_c, 0, 48, 62
2, 147821, Note_on_c, 0, 67, 75
2, 147823, Note_off_c, 0, 66, 53
2, 147828, Note_on_c, 0, 63, 51
2, 147858, Note_off_c, 0, 62, 53
2, 147981, Note_on_c, 0, 46, 60
2, 147998, Note_off_c, 0, 48, 55
2, 148156, Note_on_c, 0, 48, 60
2, 148162, Note_off_c, 0, 67, 59
2, 148164, Note_on_c, 0, 69, 48
2, 148204, Note_off_c, 0, 46, 55
2, 148280, Note_off_c, 0, 48, 55
2, 148505, Note_off_c, 0, 69, 52
2, 148506, Note_on_c, 0, 50, 60
2, 148507, Note_on_c, 0, 66, 48
2, 148509, Note_on_c, 0, 62, 42
2, 148512, Note_off_c, 0, 63, 52
2, 148674, Note_off_c, 0, 50, 55
2, 148678, Note_on_c, 0, 60, 50
2, 148727, Note_off_c, 0, 62, 50
2, 148843, Note_on_c, 0, 43, 61
2, 148848, Note_off_c, 0, 66, 52
2, 148858, Note_on_c, 0, 58, 45
2, 148860, Note_on_c, 0, 67, 52
2, 148927, Note_off_c, 0, 60, 52
2, 149030, Note_off_c, 0, 43, 55
2, 149048, Note_off_c, 0, 67, 53
2, 149111, Note_off_c, 0, 58, 51
2, 149204, Note_on_c, 0, 74, 56
2, 149217, Note_on_c, 0, 58, 62
2, 149373, Note_on_c, 0, 72, 58
2, 149387, Note_on_c, 0, 57, 63
2, 149399, Note_off_c, 0, 74, 54
2, 149453, Note_off_c, 0, 58, 55
2, 149553, Note_on_c, 0, 74, 60
2, 149564, Note_on_c, 0, 58, 64
2, 149565, Note_off_c, 0, 72, 54
2, 149583, Note_off_c, 0, 57, 55
2, 149630, Note_off_c, 0, 74, 55
2, 149722, Note_on_c, 0, 62, 62
2, 149894, Note_off_c, 0, 62, 55
2, 149894, Note_on_c, 0, 64, 64
2, 149897, Note_on_c, 0, 50, 65
2, 149904, Note_off_c, 0, 58, 56
2, 150065, Note_off_c, 0, 64, 56
2, 150067, Note_on_c, 0, 66, 66
2, 150238, Note_off_c, 0, 66, 56
2, 150238, Note_on_c, 0, 67, 68
2, 150240, Note_on_c, 0, 51, 66
2, 150270, Note_off_c, 0, 50, 56
2, 150425, Note_off_c, 0, 67, 57
2, 150425, Note_on_c, 0, 69, 70
2, 150598, Note_off_c, 0, 51, 56
2, 150598, Note_off_c, 0, 69, 57
2, 150612, Note_on_c, 0, 70, 72
2, 150613, Note_on_c, 0, 76, 72
2, 150616, Note_on_c, 0, 60, 68
2, 150781, Note_on_c, 0, 58, 68
2, 150785, Note_on_c, 0, 74, 74
2, 150788, Note_off_c, 0, 60, 57
2, 150805, Note_off_c, 0, 76, 58
2, 150948, Note_on_c, 0, 60, 69
2, 150954, Note_off_c, 0, 58, 57
2, 150958, Note_on_c, 0, 76, 76
2, 151022, Note_off_c, 0, 74, 59
2, 151111, Note_on_c, 0, 64, 78
2, 151176, Note_off_c, 0, 70, 58
2, 151190, Note_off_c, 0, 76, 59
2, 151284, Note_off_c, 0, 64, 59
2, 151284, Note_on_c, 0, 65, 80
2, 151286, Note_on_c, 0, 52, 70
2, 151359, Note_off_c, 0, 60, 57
2, 151454, Note_off_c, 0, 65, 60
2, 151454, Note_on_c, 0, 67, 82
2, 151625, Note_off_c, 0, 67, 60
2, 151627, Note_on_c, 0, 69, 84
2, 151627, Note_on_c, 0, 53, 72
2, 151660, Note_off_c, 0, 52, 57
2, 151795, Note_off_c, 0, 69, 61
2, 151798, Note_off_c, 0, 53, 58
2, 151798, Note_on_c, 0, 70, 84
2, 151985, Note_off_c, 0, 70, 61
2, 151985, Note_on_c, 0, 78, 90
2, 151987, Note_on_c, 0, 72, 79
2, 151987, Note_on_c, 0, 62, 72
2, 152158, Note_on_c, 0, 76, 74
2, 152160, Note_on_c, 0, 60, 70
2, 152171, Note_off_c, 0, 62, 58
2, 152199, Note_off_c, 0, 78, 62
2, 152330, Note_on_c, 0, 78, 69
2, 152330, Note_on_c, 0, 62, 65
2, 152351, Note_off_c, 0, 60, 57
2, 152369, Note_off_c, 0, 76, 59
2, 152420, Note_off_c, 0, 78, 57
2, 152448, Note_off_c, 0, 72, 60
2, 152498, Note_on_c, 0, 66, 64
2, 152585, Note_off_c, 0, 62, 56
2, 152671, Note_off_c, 0, 66, 56
2, 152671, Note_on_c, 0, 54, 63
2, 152671, Note_on_c, 0, 67, 59
2, 152842, Note_off_c, 0, 54, 55
2, 152842, Note_off_c, 0, 67, 54
2, 152844, Note_on_c, 0, 69, 54
2, 153012, Note_off_c, 0, 69, 53
2, 153014, Note_on_c, 0, 55, 60
2, 153014, Note_on_c, 0, 70, 48
2, 153271, Note_off_c, 0, 70, 52
2, 153376, Note_on_c, 0, 67, 48
2, 153381, Note_on_c, 0, 63, 45
2, 153551, Note_on_c, 0, 62, 44
2, 153557, Note_on_c, 0, 65, 49
2, 153560, Note_off_c, 0, 63, 51
2, 153572, Note_off_c, 0, 67, 52
2, 153718, Note_off_c, 0, 55, 55
2, 153719, Note_on_c, 0, 63, 40
2, 153725, Note_on_c, 0, 67, 45
2, 153732, Note_off_c, 0, 62, 51
2, 153768, Note_off_c, 0, 65, 52
2, 153888, Note_on_c, 0, 43, 48
2, 154006, Note_off_c, 0, 63, 50
2, 154017, Note_off_c, 0, 67, 51
2, 154058, Note_off_c, 0, 43, 52
2, 154058, Note_on_c, 0, 55, 51
2, 154061, Note_on_c, 0, 45, 48
2, 154229, Note_off_c, 0, 55, 52
2, 154231, Note_off_c, 0, 45, 52
2, 154231, Note_on_c, 0, 47, 49
2, 154402, Note_off_c, 0, 47, 52
2, 154402, Note_on_c, 0, 56, 52
2, 154404, Note_on_c, 0, 48, 50
2, 154572, Note_off_c, 0, 56, 53
2, 154574, Note_off_c, 0, 48, 52
2, 154574, Note_on_c, 0, 50, 51
2, 154745, Note_off_c, 0, 50, 52
2, 154747, Note_on_c, 0, 51, 62
2, 154749, Note_on_c, 0, 69, 54
2, 154753, Note_on_c, 0, 65, 50
2, 154937, Note_on_c, 0, 63, 54
2, 154942, Note_on_c, 0, 67, 50
2, 154950, Note_off_c, 0, 69, 53
2, 154957, Note_off_c, 0, 65, 52
2, 155115, Note_on_c, 0, 69, 55
2, 155117, Note_on_c, 0, 65, 50
2, 155129, Note_off_c, 0, 63, 53
2, 155143, Note_off_c, 0, 67, 52
2, 155275, Note_off_c, 0, 51, 55
2, 155275, Note_on_c, 0, 45, 57
2, 155432, Note_off_c, 0, 69, 53
2, 155438, Note_off_c, 0, 65, 52
2, 155446, Note_off_c, 0, 45, 54
2, 155452, Note_on_c, 0, 57, 57
2, 155453, Note_on_c, 0, 46, 58
2, 155621, Note_on_c, 0, 48, 59
2, 155630, Note_off_c, 0, 46, 54
2, 155648, Note_off_c, 0, 57, 54
2, 155789, Note_off_c, 0, 48, 54
2, 155799, Note_on_c, 0, 50, 60
2, 155800, Note_on_c, 0, 58, 58
2, 155964, Note_on_c, 0, 51, 62
2, 155985, Note_off_c, 0, 58, 54
2, 155997, Note_off_c, 0, 50, 55
2, 156132, Note_off_c, 0, 51, 55
2, 156134, Note_on_c, 0, 53, 70
2, 156141, Note_on_c, 0, 67, 52
2, 156144, Note_on_c, 0, 71, 60
2, 156337, Note_on_c, 0, 69, 52
2, 156341, Note_on_c, 0, 65, 54
2, 156343, Note_off_c, 0, 67, 53
2, 156383, Note_off_c, 0, 71, 55
2, 156501, Note_on_c, 0, 67, 55
2, 156510, Note_on_c, 0, 71, 61
2, 156522, Note_off_c, 0, 69, 53
2, 156537, Note_off_c, 0, 65, 53
2, 156665, Note_off_c, 0, 53, 57
2, 156665, Note_on_c, 0, 47, 67
2, 156771, Note_off_c, 0, 67, 53
2, 156777, Note_off_c, 0, 71, 55
2, 156835, Note_off_c, 0, 47, 57
2, 156835, Note_on_c, 0, 59, 63
2, 156838, Note_on_c, 0, 48, 68
2, 157006, Note_off_c, 0, 59, 55
2, 157008, Note_off_c, 0, 48, 57
2, 157008, Note_on_c, 0, 50, 69
2, 157178, Note_off_c, 0, 50, 57
2, 157183, Note_on_c, 0, 51, 71
2, 157188, Note_on_c, 0, 60, 64
2, 157292, Note_off_c, 0, 60, 56
2, 157349, Note_on_c, 0, 65, 65
2, 157454, Note_off_c, 0, 51, 58
2, 157522, Note_off_c, 0, 65, 56
2, 157530, Note_on_c, 0, 63, 57
2, 157531, Note_on_c, 0, 72, 66
2, 157696, Note_on_c, 0, 71, 65
2, 157704, Note_on_c, 0, 62, 58
2, 157720, Note_off_c, 0, 63, 54
2, 157729, Note_off_c, 0, 72, 56
2, 157882, Note_on_c, 0, 72, 67
2, 157884, Note_on_c, 0, 60, 60
2, 157915, Note_off_c, 0, 71, 56
2, 157929, Note_off_c, 0, 62, 54
2, 158002, Note_off_c, 0, 60, 55
2, 158052, Note_on_c, 0, 58, 68
2, 158138, Note_off_c, 0, 72, 57
2, 158222, Note_off_c, 0, 58, 57
2, 158225, Note_on_c, 0, 56, 69
2, 158225, Note_on_c, 0, 67, 69
2, 158227, Note_on_c, 0, 52, 78
2, 158309, Note_off_c, 0, 56, 57
2, 158395, Note_off_c, 0, 52, 59
2, 158395, Note_off_c, 0, 67, 57
2, 158398, Note_on_c, 0, 55, 69
2, 158566, Note_off_c, 0, 55, 57
2, 158568, Note_on_c, 0, 53, 81
2, 158568, Note_on_c, 0, 68, 70
2, 158568, Note_on_c, 0, 53, 70
2, 158738, Note_off_c, 0, 53, 60
2, 158738, Note_off_c, 0, 53, 57
2, 158738, Note_off_c, 0, 68, 57
2, 158899, Note_on_c, 0, 72, 72
2, 158909, Note_on_c, 0, 68, 65
2, 158911, Note_on_c, 0, 41, 84
2, 159072, Note_on_c, 0, 71, 72
2, 159110, Note_off_c, 0, 72, 58
2, 159269, Note_off_c, 0, 68, 56
2, 159271, Note_off_c, 0, 41, 61
2, 159271, Note_on_c, 0, 72, 64
2, 159274, Note_on_c, 0, 39, 83
2, 159274, Note_on_c, 0, 67, 72
2, 159300, Note_off_c, 0, 71, 58
2, 159526, Note_off_c, 0, 67, 58
2, 159526, Note_off_c, 0, 72, 56
2, 159528, Note_off_c, 0, 39, 60
2, 159620, Note_on_c, 0, 65, 65
2, 159622, Note_on_c, 0, 38, 79
2, 159622, Note_on_c, 0, 74, 71
2, 159792, Note_off_c, 0, 74, 58
2, 159793, Note_off_c, 0, 65, 56
2, 159793, Note_off_c, 0, 38, 60
2, 159964, Note_on_c, 0, 67, 70
2, 159964, Note_on_c, 0, 63, 66
2, 160135, Note_off_c, 0, 67, 57
2, 160135, Note_off_c, 0, 63, 56
2, 160298, Note_on_c, 0, 72, 69
2, 160307, Note_on_c, 0, 44, 72
2, 160307, Note_on_c, 0, 62, 65
2, 160469, Note_on_c, 0, 71, 68
2, 160515, Note_off_c, 0, 72, 57
2, 160664, Note_on_c, 0, 63, 64
2, 160666, Note_on_c, 0, 72, 68
2, 160667, Note_off_c, 0, 62, 56
2, 160668, Note_on_c, 0, 43, 69
2, 160669, Note_off_c, 0, 71, 57
2, 160760, Note_off_c, 0, 44, 58
2, 160918, Note_off_c, 0, 63, 56
2, 160920, Note_off_c, 0, 72, 57
2, 160922, Note_off_c, 0, 43, 57
2, 161007, Note_on_c, 0, 74, 66
2, 161007, Note_on_c, 0, 65, 61
2, 161007, Note_on_c, 0, 41, 57
2, 161177, Note_off_c, 0, 65, 55
2, 161177, Note_off_c, 0, 41, 54
2, 161180, Note_off_c, 0, 74, 56
2, 161341, Note_on_c, 0, 65, 61
2, 161342, Note_on_c, 0, 59, 60
2, 161355, Note_on_c, 0, 43, 62
2, 161505, Note_on_c, 0, 67, 65
2, 161525, Note_off_c, 0, 43, 55
2, 161588, Note_off_c, 0, 65, 55
2, 161683, Note_on_c, 0, 68, 88
2, 161686, Note_off_c, 0, 59, 55
2, 161687, Note_on_c, 0, 60, 64
2, 161698, Note_on_c, 0, 41, 59
2, 161735, Note_off_c, 0, 67, 56
2, 161858, Note_on_c, 0, 39, 57
2, 161901, Note_off_c, 0, 41, 54
2, 162028, Note_off_c, 0, 60, 56
2, 162029, Note_on_c, 0, 62, 63
2, 162031, Note_on_c, 0, 41, 55
2, 162114, Note_off_c, 0, 39, 54
2, 162302, Note_off_c, 0, 41, 53
2, 162384, Note_off_c, 0, 68, 62
2, 162389, Note_off_c, 0, 62, 55
2, 162391, Note_on_c, 0, 67, 60
2, 162394, Note_on_c, 0, 59, 58
2, 162400, Note_on_c, 0, 43, 52
2, 162552, Note_on_c, 0, 65, 62
2, 162568, Note_off_c, 0, 43, 53
2, 162601, Note_off_c, 0, 67, 55
2, 162728, Note_on_c, 0, 63, 61
2, 162734, Note_on_c, 0, 48, 48
2, 162735, Note_off_c, 0, 59, 54
2, 162741, Note_on_c, 0, 60, 58
2, 162784, Note_off_c, 0, 65, 55
2, 162902, Note_off_c, 0, 48, 52
2, 162902, Note_on_c, 0, 50, 45
2, 162985, Note_off_c, 0, 63, 55
2, 163065, Note_on_c, 0, 72, 57
2, 163073, Note_off_c, 0, 50, 51
2, 163075, Note_on_c, 0, 51, 48
2, 163238, Note_on_c, 0, 71, 60
2, 163248, Note_off_c, 0, 51, 52
2, 163248, Note_on_c, 0, 50, 49
2, 163253, Note_off_c, 0, 60, 54
2, 163267, Note_off_c, 0, 72, 54
2, 163408, Note_on_c, 0, 72, 61
2, 163418, Note_off_c, 0, 50, 52
2, 163418, Note_on_c, 0, 48, 50
2, 163449, Note_off_c, 0, 71, 55
2, 163606, Note_off_c, 0, 48, 52
2, 163606, Note_on_c, 0, 46, 51
2, 163680, Note_off_c, 0, 72, 55
2, 163776, Note_off_c, 0, 46, 52
2, 163778, Note_on_c, 0, 44, 52
2, 163790, Note_on_c, 0, 64, 58
2, 163793, Note_on_c, 0, 67, 62
2, 163949, Note_off_c, 0, 44, 53
2, 163951, Note_on_c, 0, 43, 53
2, 164024, Note_off_c, 0, 67, 55
2, 164026, Note_off_c, 0, 64, 54
2, 164119, Note_off_c, 0, 43, 53
2, 164122, Note_on_c, 0, 41, 54
2, 164124, Note_on_c, 0, 68, 64
2, 164137, Note_on_c, 0, 65, 60
2, 164239, Note_off_c, 0, 41, 53
2, 164292, Note_on_c, 0, 58, 55
2, 164352, Note_off_c, 0, 65, 55
2, 164462, Note_off_c, 0, 58, 53
2, 164465, Note_on_c, 0, 65, 66
2, 164465, Note_on_c, 0, 56, 56
2, 164584, Note_off_c, 0, 68, 56
2, 164635, Note_off_c, 0, 56, 54
2, 164635, Note_on_c, 0, 64, 67
2, 164635, Note_on_c, 0, 55, 57
2, 164682, Note_off_c, 0, 65, 56
2, 164806, Note_off_c, 0, 55, 54
2, 164806, Note_on_c, 0, 65, 68
2, 164808, Note_on_c, 0, 53, 58
2, 164852, Note_off_c, 0, 64, 57
2, 164910, Note_off_c, 0, 65, 57
2, 164976, Note_on_c, 0, 51, 59
2, 165018, Note_off_c, 0, 53, 54
2, 165161, Note_on_c, 0, 69, 70
2, 165168, Note_on_c, 0, 50, 60
2, 165175, Note_on_c, 0, 60, 65
2, 165206, Note_off_c, 0, 51, 54
2, 165338, Note_on_c, 0, 48, 60
2, 165344, Note_off_c, 0, 69, 57
2, 165348, Note_off_c, 0, 50, 55
2, 165373, Note_off_c, 0, 60, 56
2, 165499, Note_on_c, 0, 70, 72
2, 165509, Note_on_c, 0, 62, 64
2, 165511, Note_on_c, 0, 46, 45
2, 165518, Note_off_c, 0, 48, 55
2, 165679, Note_on_c, 0, 48, 48
2, 165704, Note_off_c, 0, 46, 51
2, 165752, Note_off_c, 0, 70, 58
2, 165850, Note_on_c, 0, 70, 72
2, 165852, Note_on_c, 0, 50, 48
2, 165858, Note_off_c, 0, 48, 52
2, 165902, Note_off_c, 0, 70, 58
2, 165902, Note_on_c, 0, 72, 72
2, 165970, Note_off_c, 0, 72, 58
2, 165972, Note_on_c, 0, 70, 72
2, 166022, Note_off_c, 0, 70, 58
2, 166022, Note_on_c, 0, 69, 72
2, 166025, Note_on_c, 0, 48, 50
2, 166029, Note_off_c, 0, 50, 52
2, 166193, Note_off_c, 0, 62, 56
2, 166195, Note_on_c, 0, 70, 72
2, 166198, Note_on_c, 0, 46, 52
2, 166220, Note_off_c, 0, 69, 58
2, 166221, Note_off_c, 0, 48, 52
2, 166366, Note_on_c, 0, 44, 54
2, 166389, Note_off_c, 0, 46, 53
2, 166450, Note_off_c, 0, 70, 58
2, 166555, Note_on_c, 0, 43, 56
2, 166558, Note_on_c, 0, 65, 70
2, 166565, Note_on_c, 0, 62, 62
2, 166566, Note_off_c, 0, 44, 53
2, 166728, Note_on_c, 0, 41, 58
2, 166736, Note_off_c, 0, 43, 54
2, 166813, Note_off_c, 0, 65, 57
2, 166826, Note_off_c, 0, 62, 55
2, 166898, Note_on_c, 0, 39, 60
2, 166903, Note_on_c, 0, 63, 63
2, 166906, Note_on_c, 0, 67, 67
2, 166933, Note_off_c, 0, 41, 54
2, 167016, Note_off_c, 0, 39, 55
2, 167066, Note_on_c, 0, 56, 62
2, 167167, Note_off_c, 0, 63, 55
2, 167238, Note_on_c, 0, 55, 60
2, 167239, Note_on_c, 0, 63, 64
2, 167261, Note_off_c, 0, 56, 55
2, 167290, Note_on_c, 0, 65, 64
2, 167293, Note_off_c, 0, 63, 56
2, 167359, Note_off_c, 0, 65, 56
2, 167359, Note_on_c, 0, 63, 64
2, 167410, Note_off_c, 0, 63, 56
2, 167421, Note_on_c, 0, 53, 66
2, 167422, Note_on_c, 0, 62, 63
2, 167456, Note_off_c, 0, 55, 55
2, 167588, Note_on_c, 0, 51, 68
2, 167588, Note_on_c, 0, 63, 62
2, 167601, Note_off_c, 0, 62, 55
2, 167641, Note_off_c, 0, 53, 56
2, 167714, Note_off_c, 0, 67, 57
2, 167753, Note_on_c, 0, 50, 70
2, 167804, Note_off_c, 0, 51, 57
2, 167916, Note_on_c, 0, 67, 60
2, 167929, Note_on_c, 0, 58, 55
2, 167934, Note_on_c, 0, 48, 70
2, 167956, Note_off_c, 0, 50, 57
2, 167961, Note_off_c, 0, 63, 55
2, 168113, Note_on_c, 0, 46, 72
2, 168170, Note_off_c, 0, 48, 57
2, 168292, Note_on_c, 0, 44, 73
2, 168296, Note_on_c, 0, 60, 60
2, 168298, Note_off_c, 0, 58, 53
2, 168328, Note_off_c, 0, 46, 58
2, 168456, Note_on_c, 0, 46, 70
2, 168543, Note_off_c, 0, 44, 58
2, 168616, Note_off_c, 0, 67, 55
2, 168619, Note_on_c, 0, 68, 61
2, 168629, Note_on_c, 0, 48, 73
2, 168662, Note_off_c, 0, 46, 57
2, 168789, Note_on_c, 0, 70, 62
2, 168802, Note_on_c, 0, 46, 74
2, 168811, Note_off_c, 0, 68, 55
2, 168837, Note_off_c, 0, 48, 58
2, 168962, Note_on_c, 0, 72, 63
2, 168972, Note_on_c, 0, 44, 75
2, 168990, Note_off_c, 0, 70, 55
2, 168994, Note_off_c, 0, 46, 59
2, 169132, Note_on_c, 0, 71, 63
2, 169145, Note_on_c, 0, 43, 75
2, 169165, Note_off_c, 0, 44, 59
2, 169170, Note_off_c, 0, 72, 55
2, 169305, Note_on_c, 0, 72, 64
2, 169313, Note_off_c, 0, 71, 55
2, 169315, Note_on_c, 0, 41, 76
2, 169349, Note_off_c, 0, 43, 59
2, 169492, Note_on_c, 0, 68, 65
2, 169502, Note_on_c, 0, 39, 77
2, 169518, Note_off_c, 0, 72, 56
2, 169541, Note_off_c, 0, 41, 59
2, 169663, Note_off_c, 0, 68, 56
2, 169663, Note_on_c, 0, 65, 66
2, 169675, Note_on_c, 0, 38, 78
2, 169705, Note_off_c, 0, 39, 59
2, 169793, Note_off_c, 0, 38, 59
2, 169843, Note_on_c, 0, 55, 78
2, 170010, Note_off_c, 0, 60, 55
2, 170016, Note_off_c, 0, 55, 59
2, 170016, Note_on_c, 0, 53, 79
2, 170016, Note_on_c, 0, 62, 67
2, 170186, Note_off_c, 0, 53, 60
2, 170186, Note_off_c, 0, 62, 57
2, 170189, Note_on_c, 0, 51, 80
2, 170199, Note_on_c, 0, 63, 68
2, 170247, Note_off_c, 0, 65, 56
2, 170359, Note_off_c, 0, 51, 60
2, 170367, Note_off_c, 0, 63, 57
2, 170371, Note_on_c, 0, 50, 81
2, 170371, Note_on_c, 0, 65, 69
2, 170532, Note_on_c, 0, 63, 69
2, 170537, Note_on_c, 0, 48, 81
2, 170539, Note_off_c, 0, 50, 60
2, 170539, Note_off_c, 0, 65, 57
2, 170704, Note_on_c, 0, 47, 82
2, 170709, Note_on_c, 0, 65, 70
2, 170712, Note_off_c, 0, 63, 57
2, 170737, Note_off_c, 0, 48, 60
2, 170880, Note_on_c, 0, 45, 83
2, 170883, Note_on_c, 0, 62, 71
2, 170895, Note_off_c, 0, 65, 57
2, 170899, Note_off_c, 0, 47, 60
2, 171068, Note_on_c, 0, 65, 72
2, 171071, Note_on_c, 0, 43, 78
2, 171072, Note_on_c, 0, 59, 69
2, 171098, Note_off_c, 0, 62, 58
2, 171102, Note_off_c, 0, 45, 60
2, 171396, Note_on_c, 0, 74, 70
2, 171433, Note_off_c, 0, 65, 58
2, 171447, Note_off_c, 0, 59, 57
2, 171566, Note_on_c, 0, 72, 72
2, 171572, Note_off_c, 0, 74, 57
2, 171739, Note_on_c, 0, 74, 73
2, 171779, Note_off_c, 0, 72, 58
2, 171919, Note_off_c, 0, 43, 59
2, 172080, Note_off_c, 0, 74, 58
2, 172100, Note_on_c, 0, 59, 70
2, 172104, Note_on_c, 0, 65, 74
2, 172454, Note_on_c, 0, 60, 68
2, 172461, Note_on_c, 0, 63, 75
2, 172518, Note_off_c, 0, 65, 59
2, 172536, Note_off_c, 0, 59, 57
2, 172620, Note_on_c, 0, 43, 72
2, 172785, Note_on_c, 0, 75, 74
2, 172795, Note_on_c, 0, 45, 72
2, 172801, Note_off_c, 0, 43, 58
2, 172835, Note_off_c, 0, 60, 57
2, 172876, Note_off_c, 0, 63, 59
2, 172956, Note_on_c, 0, 74, 76
2, 172966, Note_on_c, 0, 47, 72
2, 172977, Note_off_c, 0, 45, 58
2, 172982, Note_off_c, 0, 75, 59
2, 173126, Note_on_c, 0, 75, 77
2, 173136, Note_on_c, 0, 48, 73
2, 173149, Note_off_c, 0, 74, 59
2, 173178, Note_off_c, 0, 47, 58
2, 173306, Note_on_c, 0, 50, 74
2, 173311, Note_off_c, 0, 48, 58
2, 173467, Note_off_c, 0, 75, 59
2, 173480, Note_off_c, 0, 50, 59
2, 173482, Note_on_c, 0, 51, 75
2, 173485, Note_on_c, 0, 63, 67
2, 173489, Note_on_c, 0, 67, 78
2, 173650, Note_on_c, 0, 53, 76
2, 173691, Note_off_c, 0, 51, 59
2, 173825, Note_on_c, 0, 55, 77
2, 173829, Note_on_c, 0, 65, 79
2, 173834, Note_on_c, 0, 62, 73
2, 173835, Note_off_c, 0, 67, 59
2, 173836, Note_off_c, 0, 63, 57
2, 173870, Note_off_c, 0, 53, 59
2, 174004, Note_off_c, 0, 55, 59
2, 174010, Note_on_c, 0, 53, 78
2, 174172, Note_on_c, 0, 77, 80
2, 174182, Note_on_c, 0, 56, 78
2, 174189, Note_off_c, 0, 65, 60
2, 174214, Note_off_c, 0, 53, 59
2, 174247, Note_off_c, 0, 62, 58
2, 174343, Note_on_c, 0, 75, 81
2, 174353, Note_on_c, 0, 55, 79
2, 174356, Note_off_c, 0, 77, 60
2, 174366, Note_off_c, 0, 56, 59
2, 174513, Note_on_c, 0, 77, 81
2, 174526, Note_on_c, 0, 53, 80
2, 174547, Note_off_c, 0, 75, 60
2, 174578, Note_off_c, 0, 55, 60
2, 174693, Note_off_c, 0, 53, 60
2, 174694, Note_on_c, 0, 51, 81
2, 174770, Note_off_c, 0, 77, 60
2, 174869, Note_on_c, 0, 50, 82
2, 174882, Note_on_c, 0, 68, 82
2, 174886, Note_on_c, 0, 65, 78
2, 174933, Note_off_c, 0, 51, 60
2, 175039, Note_on_c, 0, 48, 83
2, 175059, Note_off_c, 0, 50, 60
2, 175123, Note_off_c, 0, 68, 60
2, 175210, Note_on_c, 0, 67, 84
2, 175210, Note_on_c, 0, 47, 84
2, 175213, Note_off_c, 0, 65, 59
2, 175249, Note_off_c, 0, 48, 60
2, 175397, Note_off_c, 0, 67, 61
2, 175397, Note_on_c, 0, 77, 84
2, 175567, Note_off_c, 0, 77, 61
2, 175570, Note_off_c, 0, 47, 61
2, 175570, Note_on_c, 0, 75, 82
2, 175572, Note_on_c, 0, 48, 78
2, 175740, Note_off_c, 0, 75, 60
2, 175740, Note_on_c, 0, 74, 80
2, 175742, Note_on_c, 0, 47, 72
2, 175787, Note_off_c, 0, 48, 59
2, 175910, Note_off_c, 0, 74, 60
2, 175913, Note_on_c, 0, 72, 77
2, 175913, Note_on_c, 0, 48, 66
2, 175984, Note_off_c, 0, 47, 58
2, 176083, Note_off_c, 0, 72, 59
2, 176083, Note_on_c, 0, 71, 75
2, 176167, Note_off_c, 0, 48, 56
2, 176254, Note_off_c, 0, 71, 59
2, 176254, Note_on_c, 0, 69, 72
2, 176256, Note_on_c, 0, 65, 65
2, 176256, Note_on_c, 0, 43, 60
2, 176424, Note_off_c, 0, 69, 58
2, 176426, Note_off_c, 0, 43, 55
2, 176426, Note_on_c, 0, 67, 72
2, 176597, Note_off_c, 0, 65, 56
2, 176597, Note_off_c, 0, 67, 58
2, 176601, Note_on_c, 0, 72, 72
2, 176608, Note_on_c, 0, 63, 65
2, 176609, Note_on_c, 0, 44, 60
2, 176777, Note_off_c, 0, 44, 55
2, 176895, Note_off_c, 0, 63, 56
2, 176907, Note_off_c, 0, 72, 58
2, 176961, Note_on_c, 0, 77, 74
2, 176963, Note_on_c, 0, 68, 62
2, 176968, Note_on_c, 0, 48, 67
2, 177130, Note_on_c, 0, 47, 70
2, 177177, Note_off_c, 0, 48, 57
2, 177300, Note_off_c, 0, 47, 57
2, 177307, Note_on_c, 0, 44, 74
2, 177310, Note_on_c, 0, 67, 68
2, 177311, Note_on_c, 0, 75, 76
2, 177324, Note_off_c, 0, 68, 55
2, 177332, Note_off_c, 0, 77, 59
2, 177567, Note_off_c, 0, 67, 57
2, 177586, Note_off_c, 0, 75, 59
2, 177600, Note_off_c, 0, 44, 59
2, 177648, Note_on_c, 0, 74, 79
2, 177649, Note_on_c, 0, 65, 70
2, 177653, Note_on_c, 0, 50, 81
2, 177872, Note_off_c, 0, 74, 60
2, 177888, Note_off_c, 0, 65, 57
2, 177922, Note_off_c, 0, 50, 60
2, 177984, Note_on_c, 0, 63, 81
2, 177986, Note_on_c, 0, 43, 88
2, 178157, Note_off_c, 0, 43, 62
2, 178344, Note_off_c, 0, 63, 60
2, 178346, Note_on_c, 0, 48, 90
2, 178351, Note_on_c, 0, 62, 77
2, 178355, Note_on_c, 0, 68, 84
2, 178517, Note_on_c, 0, 47, 94
2, 178542, Note_off_c, 0, 48, 62
2, 178682, Note_off_c, 0, 68, 61
2, 178691, Note_on_c, 0, 67, 84
2, 178692, Note_on_c, 0, 48, 90
2, 178695, Note_on_c, 0, 63, 79
2, 178719, Note_off_c, 0, 47, 63
2, 178743, Note_off_c, 0, 62, 59
2, 178945, Note_off_c, 0, 63, 60
2, 178946, Note_off_c, 0, 48, 62
2, 178975, Note_off_c, 0, 67, 61
2, 179036, Note_on_c, 0, 50, 91
2, 179040, Note_on_c, 0, 65, 83
2, 179195, Note_off_c, 0, 50, 62
2, 179284, Note_off_c, 0, 65, 60
2, 179380, Note_on_c, 0, 67, 81
2, 179390, Note_on_c, 0, 59, 72
2, 179393, Note_on_c, 0, 41, 92
2, 179563, Note_on_c, 0, 43, 91
2, 179599, Note_off_c, 0, 41, 62
2, 179743, Note_on_c, 0, 65, 79
2, 179749, Note_off_c, 0, 67, 60
2, 179750, Note_off_c, 0, 59, 58
2, 179753, Note_on_c, 0, 60, 71
2, 179755, Note_on_c, 0, 44, 90
2, 179760, Note_off_c, 0, 43, 62
2, 179925, Note_off_c, 0, 65, 60
2, 179930, Note_on_c, 0, 63, 78
2, 180120, Note_on_c, 0, 65, 78
2, 180127, Note_off_c, 0, 60, 58
2, 180127, Note_off_c, 0, 63, 59
2, 180130, Note_on_c, 0, 62, 74
2, 180420, Note_off_c, 0, 62, 59
2, 180523, Note_on_c, 0, 43, 86
2, 180527, Note_on_c, 0, 59, 70
2, 180531, Note_on_c, 0, 62, 72
2, 180533, Note_off_c, 0, 65, 59
2, 180550, Note_off_c, 0, 44, 62
2, 180727, Note_on_c, 0, 41, 85
2, 180747, Note_off_c, 0, 43, 61
2, 180934, Note_off_c, 0, 41, 61
2, 180934, Note_on_c, 0, 68, 74
2, 180936, Note_on_c, 0, 39, 84
2, 180941, Note_off_c, 0, 62, 58
2, 181344, Note_off_c, 0, 68, 59
2, 181350, Note_off_c, 0, 59, 57
2, 181355, Note_on_c, 0, 60, 65
2, 181356, Note_on_c, 0, 67, 72
2, 181757, Note_off_c, 0, 39, 61
2, 181764, Note_off_c, 0, 67, 58
2, 181766, Note_off_c, 0, 60, 56
2, 182157, Note_on_c, 0, 69, 74
2, 182169, Note_on_c, 0, 60, 68
2, 182177, Note_on_c, 0, 51, 72
2, 182486, Note_on_c, 0, 71, 76
2, 182498, Note_on_c, 0, 50, 72
2, 182500, Note_on_c, 0, 65, 72
2, 182502, Note_on_c, 0, 50, 70
2, 182514, Note_off_c, 0, 60, 57
2, 182535, Note_off_c, 0, 69, 59
2, 182541, Note_off_c, 0, 51, 58
2, 182664, Note_on_c, 0, 62, 77
2, 182670, Note_off_c, 0, 65, 58
2, 182827, Note_on_c, 0, 72, 78
2, 182837, Note_off_c, 0, 62, 59
2, 182839, Note_on_c, 0, 48, 76
2, 182839, Note_on_c, 0, 63, 78
2, 182886, Note_off_c, 0, 50, 57
2, 182899, Note_off_c, 0, 50, 58
2, 182902, Note_off_c, 0, 71, 59
2, 182988, Note_off_c, 0, 63, 59
2, 182990, Note_on_c, 0, 60, 79
2, 183161, Note_off_c, 0, 48, 59
2, 183170, Note_on_c, 0, 65, 80
2, 183173, Note_on_c, 0, 55, 70
2, 183248, Note_off_c, 0, 72, 59
2, 183334, Note_on_c, 0, 63, 81
2, 183338, Note_off_c, 0, 65, 60
2, 183487, Note_off_c, 0, 63, 60
2, 183487, Note_off_c, 0, 60, 60
2, 183497, Note_off_c, 0, 55, 57
2, 183502, Note_on_c, 0, 62, 82
2, 183507, Note_on_c, 0, 59, 79
2, 183509, Note_on_c, 0, 43, 84
2, 183658, Note_on_c, 0, 60, 83
2, 183670, Note_off_c, 0, 62, 60
2, 183778, Note_off_c, 0, 60, 60
2, 183830, Note_on_c, 0, 60, 84
2, 183841, Note_on_c, 0, 36, 96
2, 183842, Note_on_c, 0, 48, 92
2, 183845, Note_off_c, 0, 59, 60
2, 183849, Note_off_c, 0, 43, 61
2, 184144, Note_on_c, 0, 72, 80
2, 184317, Note_on_c, 0, 71, 84
2, 184346, Note_off_c, 0, 72, 60
2, 184490, Note_on_c, 0, 72, 83
2, 184498, Note_off_c, 0, 60, 61
2, 184514, Note_off_c, 0, 71, 61
2, 184744, Note_off_c, 0, 72, 60
2, 184831, Note_on_c, 0, 67, 79
2, 184841, Note_on_c, 0, 64, 72
2, 185001, Note_off_c, 0, 67, 60
2, 185011, Note_off_c, 0, 64, 58
2, 185174, Note_on_c, 0, 68, 76
2, 185184, Note_on_c, 0, 65, 71
2, 185361, Note_off_c, 0, 68, 59
2, 185551, Note_on_c, 0, 72, 72
2, 185561, Note_off_c, 0, 65, 58
2, 185740, Note_on_c, 0, 71, 71
2, 185765, Note_off_c, 0, 72, 58
2, 185928, Note_on_c, 0, 72, 69
2, 185963, Note_off_c, 0, 71, 58
2, 186218, Note_off_c, 0, 72, 57
2, 186331, Note_on_c, 0, 74, 90
2, 186339, Note_on_c, 0, 71, 66
2, 186342, Note_on_c, 0, 65, 60
2, 186344, Note_on_c, 0, 68, 62
2, 186545, Note_off_c, 0, 71, 56
2, 186566, Note_off_c, 0, 74, 62
2, 186586, Note_off_c, 0, 68, 55
2, 186591, Note_off_c, 0, 65, 55
2, 186725, Note_on_c, 0, 67, 62
2, 186931, Note_off_c, 0, 67, 55
2, 187162, Note_on_c, 0, 72, 59
2, 187163, Note_on_c, 0, 63, 52
2, 187366, Note_off_c, 0, 72, 54
2, 187368, Note_on_c, 0, 71, 57
2, 187372, Note_on_c, 0, 62, 50
2, 187380, Note_off_c, 0, 63, 53
2, 187582, Note_off_c, 0, 71, 54
2, 187588, Note_on_c, 0, 72, 55
2, 187591, Note_on_c, 0, 63, 51
2, 187604, Note_off_c, 0, 62, 52
2, 187918, Note_off_c, 0, 72, 53
2, 187934, Note_off_c, 0, 63, 52
2, 188059, Note_on_c, 0, 68, 52
2, 188059, Note_on_c, 0, 65, 50
2, 188063, Note_on_c, 0, 74, 76
2, 188284, Note_off_c, 0, 74, 59
2, 188314, Note_off_c, 0, 68, 53
2, 188351, Note_off_c, 0, 65, 52
2, 188501, Note_on_c, 0, 65, 48
2, 188508, Note_on_c, 0, 59, 41
2, 188512, Note_on_c, 0, 62, 43
2, 188765, Note_on_c, 0, 67, 48
2, 188777, Note_off_c, 0, 65, 52
2, 189007, Note_on_c, 0, 68, 71
2, 189040, Note_off_c, 0, 67, 52
2, 189060, Note_off_c, 0, 62, 50
2, 189138, Note_off_c, 0, 59, 50
2, 189535, Note_on_c, 0, 62, 43
2, 189538, Note_on_c, 0, 59, 40
2, 190068, Note_off_c, 0, 68, 58
2, 190070, Note_on_c, 0, 67, 40
2, 190174, Note_off_c, 0, 59, 50
2, 190237, Note_off_c, 0, 62, 50
2, 190358, Note_off_c, 0, 67, 50
2, 190361, Note_on_c, 0, 65, 38
2, 190565, Note_off_c, 0, 65, 49
2, 190718, Note_on_c, 0, 64, 40
2, 190721, Note_on_c, 0, 60, 38
2, 190721, Note_on_c, 0, 55, 36
2, 192747, Note_off_c, 0, 55, 49
2, 192818, Note_off_c, 0, 60, 49
2, 192890, Note_off_c, 0, 48, 62
2, 193028, Note_off_c, 0, 36, 63
2, 193140, Note_off_c, 0, 64, 50
2, 193140, End_track
3, 0, Start_track
3, 0, Title_t, "Prelude & Fugue in c-minor"
3, 0, Channel_prefix, 1
3, 0, End_track
4, 0, Start_track
4, 0, Title_t, "Well Tempered Clavier Book I"
4, 0, Channel_prefix, 2
4, 0, End_track
5, 0, Start_track
5, 0, Title_t, "BWV 847"
5, 0, Channel_prefix, 3
5, 0, End_track
6, 0, Start_track
6, 0, Title_t, "Sequence by Richard Carlson"
6, 0, Channel_prefix, 4
6, 0, End_track
7, 0, Start_track
7, 0, Title_t, "Copyright  1999"
7, 0, Channel_prefix, 5
7, 0, End_track
0, 0, End_of_file
