0, 0, Header, 0, 1, 384
1, 0, Start_track
1, 0, Tempo, 512820
1, 0, Title_t, "Präludium und Fuge in D-Dur, BWV"
1, 0, Program_c, 0, 0
1, 0, Control_c, 0, 7, 100
1, 3, Control_c, 0, 10, 64
1, 3, Control_c, 0, 91, 127
1, 3, Control_c, 0, 91, 127
1, 6, Program_c, 0, 0
1, 6, Control_c, 0, 7, 100
1, 6, Control_c, 0, 10, 64
1, 9, Control_c, 0, 91, 127
1, 748, Note_on_c, 0, 50, 47
1, 748, Control_c, 0, 64, 0
1, 748, Program_c, 0, 0
1, 751, Control_c, 0, 7, 100
1, 751, Control_c, 0, 10, 64
1, 751, Program_c, 0, 0
1, 754, Control_c, 0, 7, 100
1, 754, Control_c, 0, 10, 64
1, 754, Program_c, 0, 0
1, 757, Control_c, 0, 7, 100
1, 757, Control_c, 0, 10, 64
1, 757, Program_c, 0, 0
1, 760, Control_c, 0, 7, 100
1, 760, Control_c, 0, 10, 64
1, 829, Note_on_c, 0, 74, 57
1, 868, Note_on_c, 0, 50, 0
1, 907, Note_on_c, 0, 76, 57
1, 920, Note_on_c, 0, 74, 0
1, 985, Note_on_c, 0, 78, 57
1, 998, Note_on_c, 0, 76, 0
1, 1063, Note_on_c, 0, 69, 60
1, 1063, Note_on_c, 0, 62, 40
1, 1076, Note_on_c, 0, 78, 0
1, 1141, Note_on_c, 0, 69, 0
1, 1141, Note_on_c, 0, 78, 57
1, 1180, Note_on_c, 0, 62, 0
1, 1219, Note_on_c, 0, 76, 57
1, 1232, Note_on_c, 0, 78, 0
1, 1297, Note_on_c, 0, 74, 57
1, 1310, Note_on_c, 0, 76, 0
1, 1375, Note_on_c, 0, 81, 62
1, 1375, Note_on_c, 0, 54, 45
1, 1388, Note_on_c, 0, 74, 0
1, 1453, Note_on_c, 0, 81, 0
1, 1453, Note_on_c, 0, 74, 58
1, 1492, Note_on_c, 0, 54, 0
1, 1531, Note_on_c, 0, 76, 58
1, 1544, Note_on_c, 0, 74, 0
1, 1609, Note_on_c, 0, 78, 58
1, 1622, Note_on_c, 0, 76, 0
1, 1687, Note_on_c, 0, 69, 61
1, 1687, Note_on_c, 0, 62, 40
1, 1700, Note_on_c, 0, 78, 0
1, 1765, Note_on_c, 0, 69, 0
1, 1765, Note_on_c, 0, 78, 57
1, 1804, Note_on_c, 0, 62, 0
1, 1843, Note_on_c, 0, 76, 57
1, 1856, Note_on_c, 0, 78, 0
1, 1921, Note_on_c, 0, 74, 57
1, 1934, Note_on_c, 0, 76, 0
1, 1999, Note_on_c, 0, 79, 60
1, 1999, Note_on_c, 0, 52, 46
1, 2012, Note_on_c, 0, 74, 0
1, 2077, Note_on_c, 0, 79, 0
1, 2077, Note_on_c, 0, 76, 58
1, 2116, Note_on_c, 0, 52, 0
1, 2155, Note_on_c, 0, 78, 58
1, 2168, Note_on_c, 0, 76, 0
1, 2233, Note_on_c, 0, 79, 58
1, 2246, Note_on_c, 0, 78, 0
1, 2311, Note_on_c, 0, 71, 60
1, 2311, Note_on_c, 0, 62, 42
1, 2324, Note_on_c, 0, 79, 0
1, 2389, Note_on_c, 0, 71, 0
1, 2389, Note_on_c, 0, 74, 58
1, 2428, Note_on_c, 0, 62, 0
1, 2467, Note_on_c, 0, 73, 58
1, 2480, Note_on_c, 0, 74, 0
1, 2546, Note_on_c, 0, 71, 58
1, 2559, Note_on_c, 0, 73, 0
1, 2624, Note_on_c, 0, 73, 61
1, 2624, Note_on_c, 0, 57, 45
1, 2638, Note_on_c, 0, 71, 0
1, 2704, Note_on_c, 0, 73, 0
1, 2704, Note_on_c, 0, 76, 58
1, 2743, Note_on_c, 0, 57, 0
1, 2782, Note_on_c, 0, 78, 58
1, 2795, Note_on_c, 0, 76, 0
1, 2860, Note_on_c, 0, 79, 58
1, 2873, Note_on_c, 0, 78, 0
1, 2938, Note_on_c, 0, 69, 60
1, 2938, Note_on_c, 0, 61, 41
1, 2951, Note_on_c, 0, 79, 0
1, 3016, Note_on_c, 0, 69, 0
1, 3016, Note_on_c, 0, 79, 58
1, 3054, Note_on_c, 0, 61, 0
1, 3093, Note_on_c, 0, 78, 58
1, 3106, Note_on_c, 0, 79, 0
1, 3170, Note_on_c, 0, 76, 58
1, 3183, Note_on_c, 0, 78, 0
1, 3249, Note_on_c, 0, 78, 62
1, 3249, Note_on_c, 0, 50, 45
1, 3262, Note_on_c, 0, 76, 0
1, 3327, Note_on_c, 0, 78, 0
1, 3327, Note_on_c, 0, 74, 57
1, 3366, Note_on_c, 0, 50, 0
1, 3405, Note_on_c, 0, 76, 56
1, 3418, Note_on_c, 0, 74, 0
1, 3483, Note_on_c, 0, 78, 56
1, 3496, Note_on_c, 0, 76, 0
1, 3561, Note_on_c, 0, 69, 61
1, 3561, Note_on_c, 0, 62, 40
1, 3574, Note_on_c, 0, 78, 0
1, 3639, Note_on_c, 0, 69, 0
1, 3639, Note_on_c, 0, 73, 56
1, 3679, Note_on_c, 0, 62, 0
1, 3718, Note_on_c, 0, 71, 56
1, 3731, Note_on_c, 0, 73, 0
1, 3795, Note_on_c, 0, 69, 56
1, 3808, Note_on_c, 0, 71, 0
1, 3873, Note_on_c, 0, 71, 62
1, 3873, Note_on_c, 0, 50, 44
1, 3886, Note_on_c, 0, 69, 0
1, 3950, Note_on_c, 0, 71, 0
1, 3950, Note_on_c, 0, 74, 56
1, 3988, Note_on_c, 0, 50, 0
1, 4026, Note_on_c, 0, 76, 56
1, 4039, Note_on_c, 0, 74, 0
1, 4103, Note_on_c, 0, 78, 56
1, 4116, Note_on_c, 0, 76, 0
1, 4180, Note_on_c, 0, 71, 61
1, 4180, Note_on_c, 0, 62, 42
1, 4193, Note_on_c, 0, 78, 0
1, 4258, Note_on_c, 0, 71, 0
1, 4258, Note_on_c, 0, 81, 56
1, 4296, Note_on_c, 0, 62, 0
1, 4335, Note_on_c, 0, 80, 56
1, 4348, Note_on_c, 0, 81, 0
1, 4411, Note_on_c, 0, 78, 56
1, 4424, Note_on_c, 0, 80, 0
1, 4488, Note_on_c, 0, 80, 61
1, 4488, Note_on_c, 0, 50, 45
1, 4501, Note_on_c, 0, 78, 0
1, 4567, Note_on_c, 0, 80, 0
1, 4567, Note_on_c, 0, 76, 56
1, 4606, Note_on_c, 0, 50, 0
1, 4644, Note_on_c, 0, 78, 56
1, 4657, Note_on_c, 0, 76, 0
1, 4721, Note_on_c, 0, 80, 56
1, 4734, Note_on_c, 0, 78, 0
1, 4798, Note_on_c, 0, 71, 60
1, 4798, Note_on_c, 0, 56, 42
1, 4811, Note_on_c, 0, 80, 0
1, 4875, Note_on_c, 0, 71, 0
1, 4875, Note_on_c, 0, 74, 56
1, 4913, Note_on_c, 0, 56, 0
1, 4952, Note_on_c, 0, 73, 56
1, 4964, Note_on_c, 0, 74, 0
1, 5029, Note_on_c, 0, 71, 56
1, 5042, Note_on_c, 0, 73, 0
1, 5106, Note_on_c, 0, 69, 60
1, 5106, Note_on_c, 0, 49, 45
1, 5119, Note_on_c, 0, 71, 0
1, 5183, Note_on_c, 0, 69, 0
1, 5183, Note_on_c, 0, 73, 56
1, 5223, Note_on_c, 0, 49, 0
1, 5263, Note_on_c, 0, 74, 56
1, 5276, Note_on_c, 0, 73, 0
1, 5342, Note_on_c, 0, 76, 56
1, 5355, Note_on_c, 0, 74, 0
1, 5422, Note_on_c, 0, 66, 60
1, 5422, Note_on_c, 0, 57, 42
1, 5435, Note_on_c, 0, 76, 0
1, 5501, Note_on_c, 0, 66, 0
1, 5501, Note_on_c, 0, 76, 56
1, 5540, Note_on_c, 0, 57, 0
1, 5578, Note_on_c, 0, 74, 56
1, 5591, Note_on_c, 0, 76, 0
1, 5656, Note_on_c, 0, 73, 56
1, 5669, Note_on_c, 0, 74, 0
1, 5735, Note_on_c, 0, 74, 60
1, 5735, Note_on_c, 0, 47, 46
1, 5748, Note_on_c, 0, 73, 0
1, 5813, Note_on_c, 0, 74, 0
1, 5813, Note_on_c, 0, 71, 56
1, 5852, Note_on_c, 0, 47, 0
1, 5891, Note_on_c, 0, 73, 56
1, 5904, Note_on_c, 0, 71, 0
1, 5969, Note_on_c, 0, 74, 56
1, 5982, Note_on_c, 0, 73, 0
1, 6047, Note_on_c, 0, 66, 60
1, 6047, Note_on_c, 0, 57, 39
1, 6060, Note_on_c, 0, 74, 0
1, 6125, Note_on_c, 0, 66, 0
1, 6125, Note_on_c, 0, 69, 55
1, 6165, Note_on_c, 0, 57, 0
1, 6204, Note_on_c, 0, 68, 55
1, 6217, Note_on_c, 0, 69, 0
1, 6282, Note_on_c, 0, 66, 54
1, 6295, Note_on_c, 0, 68, 0
1, 6361, Note_on_c, 0, 68, 59
1, 6361, Note_on_c, 0, 52, 44
1, 6374, Note_on_c, 0, 66, 0
1, 6439, Note_on_c, 0, 68, 0
1, 6439, Note_on_c, 0, 71, 54
1, 6479, Note_on_c, 0, 52, 0
1, 6518, Note_on_c, 0, 73, 54
1, 6531, Note_on_c, 0, 71, 0
1, 6597, Note_on_c, 0, 74, 54
1, 6610, Note_on_c, 0, 73, 0
1, 6676, Note_on_c, 0, 64, 59
1, 6676, Note_on_c, 0, 56, 38
1, 6689, Note_on_c, 0, 74, 0
1, 6755, Note_on_c, 0, 64, 0
1, 6755, Note_on_c, 0, 74, 53
1, 6793, Note_on_c, 0, 56, 0
1, 6832, Note_on_c, 0, 73, 53
1, 6845, Note_on_c, 0, 74, 0
1, 6910, Note_on_c, 0, 71, 53
1, 6923, Note_on_c, 0, 73, 0
1, 6987, Note_on_c, 0, 73, 57
1, 6987, Note_on_c, 0, 45, 42
1, 7000, Note_on_c, 0, 71, 0
1, 7067, Note_on_c, 0, 73, 0
1, 7067, Note_on_c, 0, 69, 54
1, 7106, Note_on_c, 0, 45, 0
1, 7145, Note_on_c, 0, 71, 54
1, 7158, Note_on_c, 0, 69, 0
1, 7223, Note_on_c, 0, 73, 54
1, 7236, Note_on_c, 0, 71, 0
1, 7300, Note_on_c, 0, 64, 56
1, 7300, Note_on_c, 0, 57, 39
1, 7313, Note_on_c, 0, 73, 0
1, 7378, Note_on_c, 0, 64, 0
1, 7378, Note_on_c, 0, 67, 53
1, 7417, Note_on_c, 0, 57, 0
1, 7457, Note_on_c, 0, 66, 53
1, 7470, Note_on_c, 0, 67, 0
1, 7535, Note_on_c, 0, 64, 53
1, 7548, Note_on_c, 0, 66, 0
1, 7614, Note_on_c, 0, 66, 55
1, 7614, Note_on_c, 0, 45, 41
1, 7627, Note_on_c, 0, 64, 0
1, 7691, Note_on_c, 0, 66, 0
1, 7691, Note_on_c, 0, 69, 53
1, 7730, Note_on_c, 0, 45, 0
1, 7768, Note_on_c, 0, 71, 52
1, 7781, Note_on_c, 0, 69, 0
1, 7845, Note_on_c, 0, 73, 52
1, 7858, Note_on_c, 0, 71, 0
1, 7923, Note_on_c, 0, 66, 55
1, 7923, Note_on_c, 0, 57, 36
1, 7935, Note_on_c, 0, 73, 0
1, 8000, Note_on_c, 0, 66, 0
1, 8000, Note_on_c, 0, 76, 51
1, 8039, Note_on_c, 0, 57, 0
1, 8079, Note_on_c, 0, 75, 51
1, 8092, Note_on_c, 0, 76, 0
1, 8158, Note_on_c, 0, 73, 51
1, 8171, Note_on_c, 0, 75, 0
1, 8237, Note_on_c, 0, 75, 54
1, 8237, Note_on_c, 0, 45, 39
1, 8250, Note_on_c, 0, 73, 0
1, 8316, Note_on_c, 0, 75, 0
1, 8316, Note_on_c, 0, 71, 51
1, 8355, Note_on_c, 0, 45, 0
1, 8394, Note_on_c, 0, 73, 51
1, 8407, Note_on_c, 0, 71, 0
1, 8472, Note_on_c, 0, 75, 51
1, 8485, Note_on_c, 0, 73, 0
1, 8549, Note_on_c, 0, 66, 54
1, 8549, Note_on_c, 0, 51, 36
1, 8562, Note_on_c, 0, 75, 0
1, 8627, Note_on_c, 0, 66, 0
1, 8627, Note_on_c, 0, 69, 52
1, 8666, Note_on_c, 0, 51, 0
1, 8705, Note_on_c, 0, 67, 52
1, 8718, Note_on_c, 0, 69, 0
1, 8783, Note_on_c, 0, 66, 52
1, 8796, Note_on_c, 0, 67, 0
1, 8860, Note_on_c, 0, 64, 55
1, 8860, Note_on_c, 0, 43, 41
1, 8873, Note_on_c, 0, 66, 0
1, 8938, Note_on_c, 0, 64, 0
1, 8938, Note_on_c, 0, 67, 53
1, 8976, Note_on_c, 0, 43, 0
1, 9015, Note_on_c, 0, 69, 53
1, 9028, Note_on_c, 0, 67, 0
1, 9092, Note_on_c, 0, 71, 53
1, 9104, Note_on_c, 0, 69, 0
1, 9168, Note_on_c, 0, 61, 57
1, 9168, Note_on_c, 0, 52, 38
1, 9181, Note_on_c, 0, 71, 0
1, 9244, Note_on_c, 0, 61, 0
1, 9244, Note_on_c, 0, 74, 54
1, 9283, Note_on_c, 0, 52, 0
1, 9321, Note_on_c, 0, 73, 54
1, 9334, Note_on_c, 0, 74, 0
1, 9398, Note_on_c, 0, 71, 54
1, 9410, Note_on_c, 0, 73, 0
1, 9474, Note_on_c, 0, 70, 57
1, 9474, Note_on_c, 0, 42, 44
1, 9487, Note_on_c, 0, 71, 0
1, 9551, Note_on_c, 0, 70, 0
1, 9551, Note_on_c, 0, 64, 55
1, 9590, Note_on_c, 0, 42, 0
1, 9629, Note_on_c, 0, 66, 55
1, 9642, Note_on_c, 0, 64, 0
1, 9707, Note_on_c, 0, 67, 55
1, 9720, Note_on_c, 0, 66, 0
1, 9785, Note_on_c, 0, 61, 59
1, 9785, Note_on_c, 0, 54, 39
1, 9798, Note_on_c, 0, 67, 0
1, 9863, Note_on_c, 0, 61, 0
1, 9863, Note_on_c, 0, 67, 55
1, 9902, Note_on_c, 0, 54, 0
1, 9941, Note_on_c, 0, 66, 56
1, 9954, Note_on_c, 0, 67, 0
1, 10018, Note_on_c, 0, 64, 56
1, 10031, Note_on_c, 0, 66, 0
1, 10095, Note_on_c, 0, 62, 61
1, 10095, Note_on_c, 0, 42, 46
1, 10108, Note_on_c, 0, 64, 0
1, 10173, Note_on_c, 0, 62, 0
1, 10173, Note_on_c, 0, 71, 57
1, 10211, Note_on_c, 0, 42, 0
1, 10249, Note_on_c, 0, 73, 57
1, 10262, Note_on_c, 0, 71, 0
1, 10326, Note_on_c, 0, 74, 57
1, 10339, Note_on_c, 0, 73, 0
1, 10403, Note_on_c, 0, 66, 62
1, 10403, Note_on_c, 0, 54, 41
1, 10415, Note_on_c, 0, 74, 0
1, 10479, Note_on_c, 0, 66, 0
1, 10479, Note_on_c, 0, 69, 58
1, 10518, Note_on_c, 0, 54, 0
1, 10556, Note_on_c, 0, 68, 58
1, 10569, Note_on_c, 0, 69, 0
1, 10633, Note_on_c, 0, 66, 58
1, 10645, Note_on_c, 0, 68, 0
1, 10709, Note_on_c, 0, 65, 63
1, 10709, Note_on_c, 0, 42, 46
1, 10722, Note_on_c, 0, 66, 0
1, 10786, Note_on_c, 0, 65, 0
1, 10786, Note_on_c, 0, 68, 58
1, 10825, Note_on_c, 0, 42, 0
1, 10864, Note_on_c, 0, 69, 59
1, 10877, Note_on_c, 0, 68, 0
1, 10942, Note_on_c, 0, 71, 59
1, 10955, Note_on_c, 0, 69, 0
1, 11020, Note_on_c, 0, 65, 63
1, 11020, Note_on_c, 0, 54, 42
1, 11033, Note_on_c, 0, 71, 0
1, 11098, Note_on_c, 0, 65, 0
1, 11098, Note_on_c, 0, 74, 59
1, 11137, Note_on_c, 0, 54, 0
1, 11176, Note_on_c, 0, 73, 59
1, 11189, Note_on_c, 0, 74, 0
1, 11254, Note_on_c, 0, 71, 60
1, 11267, Note_on_c, 0, 73, 0
1, 11332, Note_on_c, 0, 80, 63
1, 11332, Note_on_c, 0, 42, 47
1, 11345, Note_on_c, 0, 71, 0
1, 11410, Note_on_c, 0, 80, 0
1, 11410, Note_on_c, 0, 77, 60
1, 11448, Note_on_c, 0, 42, 0
1, 11486, Note_on_c, 0, 78, 60
1, 11499, Note_on_c, 0, 77, 0
1, 11563, Note_on_c, 0, 80, 60
1, 11575, Note_on_c, 0, 78, 0
1, 11639, Note_on_c, 0, 73, 65
1, 11639, Note_on_c, 0, 54, 42
1, 11652, Note_on_c, 0, 80, 0
1, 11718, Note_on_c, 0, 73, 0
1, 11718, Note_on_c, 0, 83, 61
1, 11758, Note_on_c, 0, 54, 0
1, 11797, Note_on_c, 0, 81, 62
1, 11810, Note_on_c, 0, 83, 0
1, 11876, Note_on_c, 0, 80, 62
1, 11889, Note_on_c, 0, 81, 0
1, 11955, Note_on_c, 0, 81, 67
1, 11955, Note_on_c, 0, 42, 49
1, 11968, Note_on_c, 0, 80, 0
1, 12034, Note_on_c, 0, 81, 0
1, 12034, Note_on_c, 0, 78, 62
1, 12072, Note_on_c, 0, 42, 0
1, 12110, Note_on_c, 0, 80, 62
1, 12123, Note_on_c, 0, 78, 0
1, 12187, Note_on_c, 0, 81, 62
1, 12199, Note_on_c, 0, 80, 0
1, 12263, Note_on_c, 0, 73, 67
1, 12263, Note_on_c, 0, 54, 44
1, 12276, Note_on_c, 0, 81, 0
1, 12339, Note_on_c, 0, 73, 0
1, 12339, Note_on_c, 0, 76, 62
1, 12378, Note_on_c, 0, 54, 0
1, 12416, Note_on_c, 0, 75, 62
1, 12428, Note_on_c, 0, 76, 0
1, 12492, Note_on_c, 0, 73, 62
1, 12505, Note_on_c, 0, 75, 0
1, 12568, Note_on_c, 0, 75, 67
1, 12568, Note_on_c, 0, 47, 49
1, 12581, Note_on_c, 0, 73, 0
1, 12644, Note_on_c, 0, 75, 0
1, 12644, Note_on_c, 0, 78, 62
1, 12682, Note_on_c, 0, 47, 0
1, 12720, Note_on_c, 0, 79, 62
1, 12732, Note_on_c, 0, 78, 0
1, 12796, Note_on_c, 0, 81, 62
1, 12808, Note_on_c, 0, 79, 0
1, 12871, Note_on_c, 0, 71, 67
1, 12871, Note_on_c, 0, 51, 45
1, 12884, Note_on_c, 0, 81, 0
1, 12950, Note_on_c, 0, 71, 0
1, 12950, Note_on_c, 0, 81, 62
1, 12989, Note_on_c, 0, 51, 0
1, 13027, Note_on_c, 0, 79, 62
1, 13040, Note_on_c, 0, 81, 0
1, 13104, Note_on_c, 0, 78, 62
1, 13117, Note_on_c, 0, 79, 0
1, 13181, Note_on_c, 0, 79, 67
1, 13181, Note_on_c, 0, 40, 48
1, 13194, Note_on_c, 0, 78, 0
1, 13259, Note_on_c, 0, 79, 0
1, 13259, Note_on_c, 0, 76, 62
1, 13298, Note_on_c, 0, 40, 0
1, 13337, Note_on_c, 0, 78, 62
1, 13350, Note_on_c, 0, 76, 0
1, 13415, Note_on_c, 0, 79, 62
1, 13428, Note_on_c, 0, 78, 0
1, 13493, Note_on_c, 0, 71, 66
1, 13493, Note_on_c, 0, 52, 45
1, 13506, Note_on_c, 0, 79, 0
1, 13570, Note_on_c, 0, 71, 0
1, 13570, Note_on_c, 0, 74, 62
1, 13609, Note_on_c, 0, 52, 0
1, 13648, Note_on_c, 0, 72, 62
1, 13661, Note_on_c, 0, 74, 0
1, 13726, Note_on_c, 0, 71, 62
1, 13739, Note_on_c, 0, 72, 0
1, 13805, Note_on_c, 0, 72, 66
1, 13805, Note_on_c, 0, 40, 48
1, 13818, Note_on_c, 0, 71, 0
1, 13883, Note_on_c, 0, 72, 0
1, 13883, Note_on_c, 0, 75, 62
1, 13922, Note_on_c, 0, 40, 0
1, 13960, Note_on_c, 0, 76, 62
1, 13973, Note_on_c, 0, 75, 0
1, 14038, Note_on_c, 0, 78, 62
1, 14050, Note_on_c, 0, 76, 0
1, 14115, Note_on_c, 0, 69, 66
1, 14115, Note_on_c, 0, 51, 48
1, 14128, Note_on_c, 0, 78, 0
1, 14192, Note_on_c, 0, 69, 0
1, 14192, Note_on_c, 0, 72, 62
1, 14231, Note_on_c, 0, 51, 0
1, 14270, Note_on_c, 0, 71, 62
1, 14283, Note_on_c, 0, 72, 0
1, 14349, Note_on_c, 0, 69, 62
1, 14362, Note_on_c, 0, 71, 0
1, 14427, Note_on_c, 0, 67, 66
1, 14427, Note_on_c, 0, 40, 48
1, 14440, Note_on_c, 0, 69, 0
1, 14506, Note_on_c, 0, 67, 0
1, 14506, Note_on_c, 0, 76, 62
1, 14545, Note_on_c, 0, 40, 0
1, 14585, Note_on_c, 0, 78, 62
1, 14598, Note_on_c, 0, 76, 0
1, 14664, Note_on_c, 0, 79, 61
1, 14677, Note_on_c, 0, 78, 0
1, 14743, Note_on_c, 0, 71, 66
1, 14743, Note_on_c, 0, 52, 45
1, 14756, Note_on_c, 0, 79, 0
1, 14822, Note_on_c, 0, 71, 0
1, 14822, Note_on_c, 0, 74, 62
1, 14861, Note_on_c, 0, 52, 0
1, 14900, Note_on_c, 0, 73, 62
1, 14913, Note_on_c, 0, 74, 0
1, 14978, Note_on_c, 0, 71, 62
1, 14991, Note_on_c, 0, 73, 0
1, 15055, Note_on_c, 0, 73, 66
1, 15055, Note_on_c, 0, 45, 48
1, 15068, Note_on_c, 0, 71, 0
1, 15133, Note_on_c, 0, 73, 0
1, 15133, Note_on_c, 0, 76, 62
1, 15172, Note_on_c, 0, 45, 0
1, 15211, Note_on_c, 0, 78, 62
1, 15225, Note_on_c, 0, 76, 0
1, 15290, Note_on_c, 0, 79, 62
1, 15303, Note_on_c, 0, 78, 0
1, 15368, Note_on_c, 0, 69, 64
1, 15368, Note_on_c, 0, 49, 45
1, 15381, Note_on_c, 0, 79, 0
1, 15446, Note_on_c, 0, 69, 0
1, 15446, Note_on_c, 0, 79, 62
1, 15485, Note_on_c, 0, 49, 0
1, 15523, Note_on_c, 0, 78, 62
1, 15536, Note_on_c, 0, 79, 0
1, 15600, Note_on_c, 0, 76, 62
1, 15613, Note_on_c, 0, 78, 0
1, 15677, Note_on_c, 0, 78, 67
1, 15677, Note_on_c, 0, 38, 48
1, 15690, Note_on_c, 0, 76, 0
1, 15754, Note_on_c, 0, 78, 0
1, 15754, Note_on_c, 0, 74, 62
1, 15792, Note_on_c, 0, 38, 0
1, 15831, Note_on_c, 0, 76, 62
1, 15843, Note_on_c, 0, 74, 0
1, 15908, Note_on_c, 0, 78, 62
1, 15920, Note_on_c, 0, 76, 0
1, 15985, Note_on_c, 0, 69, 65
1, 15985, Note_on_c, 0, 50, 44
1, 15998, Note_on_c, 0, 78, 0
1, 16062, Note_on_c, 0, 69, 0
1, 16062, Note_on_c, 0, 72, 61
1, 16101, Note_on_c, 0, 50, 0
1, 16140, Note_on_c, 0, 71, 60
1, 16153, Note_on_c, 0, 72, 0
1, 16218, Note_on_c, 0, 69, 60
1, 16231, Note_on_c, 0, 71, 0
1, 16296, Note_on_c, 0, 71, 65
1, 16296, Note_on_c, 0, 38, 47
1, 16308, Note_on_c, 0, 69, 0
1, 16373, Note_on_c, 0, 71, 0
1, 16373, Note_on_c, 0, 67, 59
1, 16412, Note_on_c, 0, 38, 0
1, 16450, Note_on_c, 0, 69, 59
1, 16463, Note_on_c, 0, 67, 0
1, 16527, Note_on_c, 0, 71, 59
1, 16540, Note_on_c, 0, 69, 0
1, 16604, Note_on_c, 0, 61, 64
1, 16604, Note_on_c, 0, 50, 40
1, 16617, Note_on_c, 0, 71, 0
1, 16683, Note_on_c, 0, 61, 0
1, 16683, Note_on_c, 0, 71, 58
1, 16721, Note_on_c, 0, 50, 0
1, 16760, Note_on_c, 0, 69, 58
1, 16773, Note_on_c, 0, 71, 0
1, 16837, Note_on_c, 0, 67, 58
1, 16850, Note_on_c, 0, 69, 0
1, 16914, Note_on_c, 0, 66, 63
1, 16914, Note_on_c, 0, 38, 45
1, 16927, Note_on_c, 0, 67, 0
1, 16991, Note_on_c, 0, 66, 0
1, 16991, Note_on_c, 0, 62, 57
1, 17030, Note_on_c, 0, 38, 0
1, 17069, Note_on_c, 0, 64, 57
1, 17082, Note_on_c, 0, 62, 0
1, 17147, Note_on_c, 0, 66, 57
1, 17160, Note_on_c, 0, 64, 0
1, 17225, Note_on_c, 0, 57, 62
1, 17225, Note_on_c, 0, 50, 41
1, 17238, Note_on_c, 0, 66, 0
1, 17303, Note_on_c, 0, 57, 0
1, 17303, Note_on_c, 0, 60, 57
1, 17342, Note_on_c, 0, 50, 0
1, 17380, Note_on_c, 0, 59, 56
1, 17393, Note_on_c, 0, 60, 0
1, 17457, Note_on_c, 0, 57, 56
1, 17469, Note_on_c, 0, 59, 0
1, 17533, Note_on_c, 0, 59, 61
1, 17533, Note_on_c, 0, 38, 44
1, 17546, Note_on_c, 0, 57, 0
1, 17610, Note_on_c, 0, 59, 0
1, 17610, Note_on_c, 0, 62, 56
1, 17648, Note_on_c, 0, 38, 0
1, 17687, Note_on_c, 0, 64, 56
1, 17699, Note_on_c, 0, 62, 0
1, 17763, Note_on_c, 0, 66, 55
1, 17776, Note_on_c, 0, 64, 0
1, 17840, Note_on_c, 0, 59, 60
1, 17840, Note_on_c, 0, 50, 38
1, 17853, Note_on_c, 0, 66, 0
1, 17917, Note_on_c, 0, 59, 0
1, 17917, Note_on_c, 0, 69, 54
1, 17956, Note_on_c, 0, 50, 0
1, 17995, Note_on_c, 0, 68, 54
1, 18008, Note_on_c, 0, 69, 0
1, 18074, Note_on_c, 0, 66, 54
1, 18087, Note_on_c, 0, 68, 0
1, 18152, Note_on_c, 0, 68, 58
1, 18152, Note_on_c, 0, 38, 42
1, 18165, Note_on_c, 0, 66, 0
1, 18231, Note_on_c, 0, 68, 0
1, 18231, Note_on_c, 0, 64, 54
1, 18270, Note_on_c, 0, 38, 0
1, 18309, Note_on_c, 0, 66, 53
1, 18322, Note_on_c, 0, 64, 0
1, 18387, Note_on_c, 0, 68, 53
1, 18400, Note_on_c, 0, 66, 0
1, 18465, Note_on_c, 0, 59, 57
1, 18465, Note_on_c, 0, 56, 38
1, 18478, Note_on_c, 0, 68, 0
1, 18543, Note_on_c, 0, 59, 0
1, 18543, Note_on_c, 0, 62, 53
1, 18581, Note_on_c, 0, 56, 0
1, 18620, Note_on_c, 0, 60, 53
1, 18633, Note_on_c, 0, 62, 0
1, 18698, Note_on_c, 0, 59, 52
1, 18711, Note_on_c, 0, 60, 0
1, 18775, Note_on_c, 0, 57, 56
1, 18775, Note_on_c, 0, 48, 41
1, 18788, Note_on_c, 0, 59, 0
1, 18853, Note_on_c, 0, 57, 0
1, 18853, Note_on_c, 0, 60, 52
1, 18891, Note_on_c, 0, 48, 0
1, 18930, Note_on_c, 0, 62, 52
1, 18943, Note_on_c, 0, 60, 0
1, 19007, Note_on_c, 0, 64, 52
1, 19020, Note_on_c, 0, 62, 0
1, 19084, Note_on_c, 0, 57, 55
1, 19084, Note_on_c, 0, 54, 37
1, 19097, Note_on_c, 0, 64, 0
1, 19162, Note_on_c, 0, 57, 0
1, 19162, Note_on_c, 0, 67, 51
1, 19201, Note_on_c, 0, 54, 0
1, 19240, Note_on_c, 0, 66, 50
1, 19253, Note_on_c, 0, 67, 0
1, 19319, Note_on_c, 0, 64, 50
1, 19332, Note_on_c, 0, 66, 0
1, 19397, Note_on_c, 0, 63, 54
1, 19397, Note_on_c, 0, 47, 40
1, 19410, Note_on_c, 0, 64, 0
1, 19476, Note_on_c, 0, 63, 0
1, 19476, Note_on_c, 0, 57, 50
1, 19514, Note_on_c, 0, 47, 0
1, 19553, Note_on_c, 0, 59, 50
1, 19566, Note_on_c, 0, 57, 0
1, 19630, Note_on_c, 0, 60, 50
1, 19643, Note_on_c, 0, 59, 0
1, 19707, Note_on_c, 0, 57, 54
1, 19707, Note_on_c, 0, 51, 37
1, 19720, Note_on_c, 0, 60, 0
1, 19785, Note_on_c, 0, 57, 0
1, 19785, Note_on_c, 0, 60, 50
1, 19823, Note_on_c, 0, 51, 0
1, 19862, Note_on_c, 0, 59, 50
1, 19875, Note_on_c, 0, 60, 0
1, 19939, Note_on_c, 0, 57, 50
1, 19952, Note_on_c, 0, 59, 0
1, 20016, Note_on_c, 0, 55, 54
1, 20016, Note_on_c, 0, 52, 41
1, 20029, Note_on_c, 0, 57, 0
1, 20093, Note_on_c, 0, 55, 0
1, 20093, Note_on_c, 0, 64, 50
1, 20133, Note_on_c, 0, 52, 0
1, 20172, Note_on_c, 0, 66, 50
1, 20185, Note_on_c, 0, 64, 0
1, 20251, Note_on_c, 0, 67, 50
1, 20264, Note_on_c, 0, 66, 0
1, 20330, Note_on_c, 0, 59, 54
1, 20330, Note_on_c, 0, 55, 36
1, 20343, Note_on_c, 0, 67, 0
1, 20409, Note_on_c, 0, 59, 0
1, 20409, Note_on_c, 0, 62, 50
1, 20447, Note_on_c, 0, 55, 0
1, 20486, Note_on_c, 0, 61, 50
1, 20499, Note_on_c, 0, 62, 0
1, 20563, Note_on_c, 0, 59, 50
1, 20576, Note_on_c, 0, 61, 0
1, 20641, Note_on_c, 0, 58, 54
1, 20641, Note_on_c, 0, 47, 41
1, 20654, Note_on_c, 0, 59, 0
1, 20719, Note_on_c, 0, 58, 0
1, 20719, Note_on_c, 0, 61, 50
1, 20757, Note_on_c, 0, 47, 0
1, 20796, Note_on_c, 0, 62, 50
1, 20809, Note_on_c, 0, 61, 0
1, 20873, Note_on_c, 0, 64, 50
1, 20886, Note_on_c, 0, 62, 0
1, 20950, Note_on_c, 0, 58, 54
1, 20950, Note_on_c, 0, 52, 37
1, 20963, Note_on_c, 0, 64, 0
1, 21027, Note_on_c, 0, 58, 0
1, 21027, Note_on_c, 0, 67, 50
1, 21065, Note_on_c, 0, 52, 0
1, 21104, Note_on_c, 0, 66, 50
1, 21116, Note_on_c, 0, 67, 0
1, 21181, Note_on_c, 0, 64, 51
1, 21193, Note_on_c, 0, 66, 0
1, 21258, Note_on_c, 0, 73, 55
1, 21258, Note_on_c, 0, 55, 42
1, 21270, Note_on_c, 0, 64, 0
1, 21334, Note_on_c, 0, 73, 0
1, 21334, Note_on_c, 0, 70, 51
1, 21373, Note_on_c, 0, 55, 0
1, 21411, Note_on_c, 0, 71, 52
1, 21424, Note_on_c, 0, 70, 0
1, 21488, Note_on_c, 0, 73, 52
1, 21501, Note_on_c, 0, 71, 0
1, 21565, Note_on_c, 0, 66, 55
1, 21565, Note_on_c, 0, 58, 37
1, 21578, Note_on_c, 0, 73, 0
1, 21642, Note_on_c, 0, 66, 0
1, 21642, Note_on_c, 0, 76, 52
1, 21681, Note_on_c, 0, 58, 0
1, 21721, Note_on_c, 0, 74, 52
1, 21734, Note_on_c, 0, 76, 0
1, 21799, Note_on_c, 0, 73, 52
1, 21812, Note_on_c, 0, 74, 0
1, 21878, Note_on_c, 0, 74, 57
1, 21878, Note_on_c, 0, 47, 43
1, 21891, Note_on_c, 0, 73, 0
1, 21956, Note_on_c, 0, 74, 0
1, 21956, Note_on_c, 0, 71, 53
1, 21995, Note_on_c, 0, 47, 0
1, 22034, Note_on_c, 0, 73, 53
1, 22046, Note_on_c, 0, 71, 0
1, 22111, Note_on_c, 0, 74, 53
1, 22124, Note_on_c, 0, 73, 0
1, 22188, Note_on_c, 0, 66, 58
1, 22188, Note_on_c, 0, 59, 38
1, 22201, Note_on_c, 0, 74, 0
1, 22265, Note_on_c, 0, 66, 0
1, 22265, Note_on_c, 0, 69, 53
1, 22304, Note_on_c, 0, 59, 0
1, 22342, Note_on_c, 0, 68, 53
1, 22355, Note_on_c, 0, 69, 0
1, 22420, Note_on_c, 0, 66, 54
1, 22432, Note_on_c, 0, 68, 0
1, 22497, Note_on_c, 0, 68, 59
1, 22497, Note_on_c, 0, 52, 44
1, 22510, Note_on_c, 0, 66, 0
1, 22574, Note_on_c, 0, 68, 0
1, 22574, Note_on_c, 0, 71, 54
1, 22612, Note_on_c, 0, 52, 0
1, 22651, Note_on_c, 0, 72, 54
1, 22664, Note_on_c, 0, 71, 0
1, 22728, Note_on_c, 0, 74, 54
1, 22740, Note_on_c, 0, 72, 0
1, 22804, Note_on_c, 0, 64, 59
1, 22804, Note_on_c, 0, 56, 39
1, 22817, Note_on_c, 0, 74, 0
1, 22881, Note_on_c, 0, 64, 0
1, 22881, Note_on_c, 0, 74, 55
1, 22921, Note_on_c, 0, 56, 0
1, 22960, Note_on_c, 0, 72, 55
1, 22973, Note_on_c, 0, 74, 0
1, 23038, Note_on_c, 0, 71, 55
1, 23051, Note_on_c, 0, 72, 0
1, 23116, Note_on_c, 0, 72, 61
1, 23116, Note_on_c, 0, 45, 46
1, 23129, Note_on_c, 0, 71, 0
1, 23195, Note_on_c, 0, 72, 0
1, 23195, Note_on_c, 0, 69, 55
1, 23233, Note_on_c, 0, 45, 0
1, 23272, Note_on_c, 0, 71, 54
1, 23285, Note_on_c, 0, 69, 0
1, 23349, Note_on_c, 0, 72, 53
1, 23362, Note_on_c, 0, 71, 0
1, 23426, Note_on_c, 0, 64, 59
1, 23426, Note_on_c, 0, 57, 40
1, 23439, Note_on_c, 0, 72, 0
1, 23503, Note_on_c, 0, 64, 0
1, 23503, Note_on_c, 0, 67, 52
1, 23542, Note_on_c, 0, 57, 0
1, 23580, Note_on_c, 0, 66, 52
1, 23593, Note_on_c, 0, 67, 0
1, 23657, Note_on_c, 0, 64, 51
1, 23670, Note_on_c, 0, 66, 0
1, 23733, Note_on_c, 0, 66, 56
1, 23733, Note_on_c, 0, 50, 43
1, 23746, Note_on_c, 0, 64, 0
1, 23809, Note_on_c, 0, 66, 0
1, 23809, Note_on_c, 0, 69, 50
1, 23848, Note_on_c, 0, 50, 0
1, 23886, Note_on_c, 0, 71, 50
1, 23899, Note_on_c, 0, 69, 0
1, 23963, Note_on_c, 0, 72, 49
1, 23976, Note_on_c, 0, 71, 0
1, 24041, Note_on_c, 0, 62, 54
1, 24041, Note_on_c, 0, 54, 36
1, 24054, Note_on_c, 0, 72, 0
1, 24119, Note_on_c, 0, 62, 0
1, 24119, Note_on_c, 0, 72, 48
1, 24158, Note_on_c, 0, 54, 0
1, 24197, Note_on_c, 0, 71, 47
1, 24210, Note_on_c, 0, 72, 0
1, 24275, Note_on_c, 0, 69, 47
1, 24288, Note_on_c, 0, 71, 0
1, 24353, Note_on_c, 0, 71, 51
1, 24353, Note_on_c, 0, 43, 39
1, 24366, Note_on_c, 0, 69, 0
1, 24431, Note_on_c, 0, 71, 0
1, 24431, Note_on_c, 0, 67, 46
1, 24470, Note_on_c, 0, 43, 0
1, 24508, Note_on_c, 0, 69, 46
1, 24521, Note_on_c, 0, 67, 0
1, 24585, Note_on_c, 0, 71, 46
1, 24598, Note_on_c, 0, 69, 0
1, 24662, Note_on_c, 0, 62, 51
1, 24662, Note_on_c, 0, 55, 34
1, 24675, Note_on_c, 0, 71, 0
1, 24741, Note_on_c, 0, 62, 0
1, 24741, Note_on_c, 0, 71, 46
1, 24781, Note_on_c, 0, 55, 0
1, 24820, Note_on_c, 0, 69, 46
1, 24834, Note_on_c, 0, 71, 0
1, 24900, Note_on_c, 0, 67, 46
1, 24913, Note_on_c, 0, 69, 0
1, 24979, Note_on_c, 0, 74, 51
1, 24979, Note_on_c, 0, 47, 39
1, 24992, Note_on_c, 0, 67, 0
1, 25057, Note_on_c, 0, 74, 0
1, 25057, Note_on_c, 0, 67, 46
1, 25096, Note_on_c, 0, 47, 0
1, 25135, Note_on_c, 0, 69, 46
1, 25148, Note_on_c, 0, 67, 0
1, 25212, Note_on_c, 0, 71, 46
1, 25225, Note_on_c, 0, 69, 0
1, 25290, Note_on_c, 0, 62, 51
1, 25290, Note_on_c, 0, 55, 35
1, 25303, Note_on_c, 0, 71, 0
1, 25368, Note_on_c, 0, 62, 0
1, 25368, Note_on_c, 0, 71, 46
1, 25408, Note_on_c, 0, 55, 0
1, 25447, Note_on_c, 0, 69, 46
1, 25460, Note_on_c, 0, 71, 0
1, 25526, Note_on_c, 0, 67, 46
1, 25539, Note_on_c, 0, 69, 0
1, 25605, Note_on_c, 0, 72, 51
1, 25605, Note_on_c, 0, 45, 39
1, 25618, Note_on_c, 0, 67, 0
1, 25684, Note_on_c, 0, 72, 0
1, 25684, Note_on_c, 0, 69, 48
1, 25723, Note_on_c, 0, 45, 0
1, 25762, Note_on_c, 0, 71, 48
1, 25775, Note_on_c, 0, 69, 0
1, 25840, Note_on_c, 0, 72, 48
1, 25853, Note_on_c, 0, 71, 0
1, 25918, Note_on_c, 0, 64, 51
1, 25918, Note_on_c, 0, 55, 34
1, 25931, Note_on_c, 0, 72, 0
1, 25996, Note_on_c, 0, 64, 0
1, 25996, Note_on_c, 0, 67, 48
1, 26035, Note_on_c, 0, 55, 0
1, 26074, Note_on_c, 0, 66, 48
1, 26087, Note_on_c, 0, 67, 0
1, 26152, Note_on_c, 0, 64, 48
1, 26165, Note_on_c, 0, 66, 0
1, 26230, Note_on_c, 0, 66, 51
1, 26230, Note_on_c, 0, 50, 39
1, 26243, Note_on_c, 0, 64, 0
1, 26308, Note_on_c, 0, 66, 0
1, 26308, Note_on_c, 0, 69, 48
1, 26347, Note_on_c, 0, 50, 0
1, 26385, Note_on_c, 0, 71, 48
1, 26398, Note_on_c, 0, 69, 0
1, 26463, Note_on_c, 0, 72, 48
1, 26475, Note_on_c, 0, 71, 0
1, 26540, Note_on_c, 0, 62, 51
1, 26540, Note_on_c, 0, 54, 34
1, 26553, Note_on_c, 0, 72, 0
1, 26617, Note_on_c, 0, 62, 0
1, 26617, Note_on_c, 0, 72, 48
1, 26656, Note_on_c, 0, 54, 0
1, 26696, Note_on_c, 0, 71, 48
1, 26709, Note_on_c, 0, 72, 0
1, 26774, Note_on_c, 0, 69, 48
1, 26787, Note_on_c, 0, 71, 0
1, 26853, Note_on_c, 0, 71, 51
1, 26853, Note_on_c, 0, 43, 39
1, 26866, Note_on_c, 0, 69, 0
1, 26931, Note_on_c, 0, 71, 0
1, 26931, Note_on_c, 0, 67, 48
1, 26970, Note_on_c, 0, 43, 0
1, 27009, Note_on_c, 0, 69, 48
1, 27022, Note_on_c, 0, 67, 0
1, 27087, Note_on_c, 0, 71, 48
1, 27100, Note_on_c, 0, 69, 0
1, 27164, Note_on_c, 0, 62, 51
1, 27164, Note_on_c, 0, 55, 34
1, 27177, Note_on_c, 0, 71, 0
1, 27242, Note_on_c, 0, 62, 0
1, 27242, Note_on_c, 0, 66, 48
1, 27281, Note_on_c, 0, 55, 0
1, 27320, Note_on_c, 0, 64, 48
1, 27333, Note_on_c, 0, 66, 0
1, 27398, Note_on_c, 0, 62, 48
1, 27410, Note_on_c, 0, 64, 0
1, 27475, Note_on_c, 0, 64, 51
1, 27475, Note_on_c, 0, 43, 39
1, 27488, Note_on_c, 0, 62, 0
1, 27553, Note_on_c, 0, 64, 0
1, 27553, Note_on_c, 0, 67, 48
1, 27591, Note_on_c, 0, 43, 0
1, 27630, Note_on_c, 0, 69, 48
1, 27643, Note_on_c, 0, 67, 0
1, 27707, Note_on_c, 0, 71, 48
1, 27720, Note_on_c, 0, 69, 0
1, 27784, Note_on_c, 0, 64, 51
1, 27784, Note_on_c, 0, 55, 34
1, 27797, Note_on_c, 0, 71, 0
1, 27861, Note_on_c, 0, 64, 0
1, 27861, Note_on_c, 0, 74, 48
1, 27899, Note_on_c, 0, 55, 0
1, 27938, Note_on_c, 0, 73, 48
1, 27950, Note_on_c, 0, 74, 0
1, 28014, Note_on_c, 0, 71, 48
1, 28027, Note_on_c, 0, 73, 0
1, 28091, Note_on_c, 0, 73, 51
1, 28091, Note_on_c, 0, 43, 39
1, 28104, Note_on_c, 0, 71, 0
1, 28168, Note_on_c, 0, 73, 0
1, 28168, Note_on_c, 0, 69, 48
1, 28206, Note_on_c, 0, 43, 0
1, 28244, Note_on_c, 0, 71, 48
1, 28257, Note_on_c, 0, 69, 0
1, 28321, Note_on_c, 0, 73, 48
1, 28334, Note_on_c, 0, 71, 0
1, 28398, Note_on_c, 0, 64, 51
1, 28398, Note_on_c, 0, 49, 34
1, 28410, Note_on_c, 0, 73, 0
1, 28474, Note_on_c, 0, 64, 0
1, 28474, Note_on_c, 0, 67, 49
1, 28513, Note_on_c, 0, 49, 0
1, 28551, Note_on_c, 0, 66, 49
1, 28564, Note_on_c, 0, 67, 0
1, 28628, Note_on_c, 0, 64, 49
1, 28640, Note_on_c, 0, 66, 0
1, 28704, Note_on_c, 0, 62, 52
1, 28704, Note_on_c, 0, 42, 39
1, 28717, Note_on_c, 0, 64, 0
1, 28781, Note_on_c, 0, 62, 0
1, 28781, Note_on_c, 0, 66, 49
1, 28819, Note_on_c, 0, 42, 0
1, 28857, Note_on_c, 0, 67, 49
1, 28870, Note_on_c, 0, 66, 0
1, 28934, Note_on_c, 0, 69, 49
1, 28947, Note_on_c, 0, 67, 0
1, 29011, Note_on_c, 0, 59, 53
1, 29011, Note_on_c, 0, 50, 34
1, 29024, Note_on_c, 0, 69, 0
1, 29088, Note_on_c, 0, 59, 0
1, 29088, Note_on_c, 0, 69, 49
1, 29127, Note_on_c, 0, 50, 0
1, 29167, Note_on_c, 0, 67, 49
1, 29180, Note_on_c, 0, 69, 0
1, 29245, Note_on_c, 0, 66, 49
1, 29258, Note_on_c, 0, 67, 0
1, 29324, Note_on_c, 0, 67, 53
1, 29324, Note_on_c, 0, 40, 40
1, 29337, Note_on_c, 0, 66, 0
1, 29402, Note_on_c, 0, 67, 0
1, 29402, Note_on_c, 0, 64, 49
1, 29442, Note_on_c, 0, 40, 0
1, 29481, Note_on_c, 0, 66, 49
1, 29494, Note_on_c, 0, 64, 0
1, 29559, Note_on_c, 0, 67, 49
1, 29572, Note_on_c, 0, 66, 0
1, 29638, Note_on_c, 0, 59, 54
1, 29638, Note_on_c, 0, 50, 35
1, 29651, Note_on_c, 0, 67, 0
1, 29716, Note_on_c, 0, 59, 0
1, 29716, Note_on_c, 0, 62, 49
1, 29755, Note_on_c, 0, 50, 0
1, 29794, Note_on_c, 0, 61, 50
1, 29807, Note_on_c, 0, 62, 0
1, 29872, Note_on_c, 0, 59, 50
1, 29885, Note_on_c, 0, 61, 0
1, 29950, Note_on_c, 0, 61, 54
1, 29950, Note_on_c, 0, 45, 42
1, 29963, Note_on_c, 0, 59, 0
1, 30027, Note_on_c, 0, 61, 0
1, 30027, Note_on_c, 0, 64, 50
1, 30066, Note_on_c, 0, 45, 0
1, 30105, Note_on_c, 0, 66, 50
1, 30118, Note_on_c, 0, 64, 0
1, 30183, Note_on_c, 0, 67, 50
1, 30196, Note_on_c, 0, 66, 0
1, 30261, Note_on_c, 0, 57, 55
1, 30261, Note_on_c, 0, 49, 36
1, 30274, Note_on_c, 0, 67, 0
1, 30338, Note_on_c, 0, 57, 0
1, 30338, Note_on_c, 0, 67, 50
1, 30378, Note_on_c, 0, 49, 0
1, 30417, Note_on_c, 0, 66, 51
1, 30430, Note_on_c, 0, 67, 0
1, 30495, Note_on_c, 0, 64, 51
1, 30508, Note_on_c, 0, 66, 0
1, 30574, Note_on_c, 0, 66, 55
1, 30574, Note_on_c, 0, 38, 43
1, 30587, Note_on_c, 0, 64, 0
1, 30652, Note_on_c, 0, 66, 0
1, 30652, Note_on_c, 0, 62, 51
1, 30691, Note_on_c, 0, 38, 0
1, 30730, Note_on_c, 0, 64, 51
1, 30743, Note_on_c, 0, 62, 0
1, 30808, Note_on_c, 0, 66, 52
1, 30821, Note_on_c, 0, 64, 0
1, 30886, Note_on_c, 0, 57, 56
1, 30886, Note_on_c, 0, 50, 38
1, 30899, Note_on_c, 0, 66, 0
1, 30963, Note_on_c, 0, 57, 0
1, 30963, Note_on_c, 0, 66, 52
1, 31002, Note_on_c, 0, 50, 0
1, 31040, Note_on_c, 0, 64, 52
1, 31053, Note_on_c, 0, 66, 0
1, 31118, Note_on_c, 0, 62, 52
1, 31130, Note_on_c, 0, 64, 0
1, 31195, Note_on_c, 0, 69, 57
1, 31195, Note_on_c, 0, 42, 44
1, 31207, Note_on_c, 0, 62, 0
1, 31271, Note_on_c, 0, 69, 0
1, 31271, Note_on_c, 0, 66, 52
1, 31310, Note_on_c, 0, 42, 0
1, 31348, Note_on_c, 0, 67, 52
1, 31361, Note_on_c, 0, 66, 0
1, 31425, Note_on_c, 0, 69, 53
1, 31437, Note_on_c, 0, 67, 0
1, 31501, Note_on_c, 0, 62, 57
1, 31501, Note_on_c, 0, 57, 39
1, 31514, Note_on_c, 0, 69, 0
1, 31578, Note_on_c, 0, 62, 0
1, 31578, Note_on_c, 0, 72, 53
1, 31617, Note_on_c, 0, 57, 0
1, 31657, Note_on_c, 0, 71, 53
1, 31670, Note_on_c, 0, 72, 0
1, 31735, Note_on_c, 0, 69, 53
1, 31748, Note_on_c, 0, 71, 0
1, 31814, Note_on_c, 0, 71, 58
1, 31814, Note_on_c, 0, 43, 45
1, 31827, Note_on_c, 0, 69, 0
1, 31892, Note_on_c, 0, 71, 0
1, 31892, Note_on_c, 0, 67, 53
1, 31931, Note_on_c, 0, 43, 0
1, 31970, Note_on_c, 0, 69, 53
1, 31983, Note_on_c, 0, 67, 0
1, 32047, Note_on_c, 0, 71, 53
1, 32060, Note_on_c, 0, 69, 0
1, 32125, Note_on_c, 0, 62, 58
1, 32125, Note_on_c, 0, 55, 40
1, 32137, Note_on_c, 0, 71, 0
1, 32202, Note_on_c, 0, 62, 0
1, 32202, Note_on_c, 0, 71, 54
1, 32241, Note_on_c, 0, 55, 0
1, 32279, Note_on_c, 0, 69, 54
1, 32292, Note_on_c, 0, 71, 0
1, 32356, Note_on_c, 0, 67, 54
1, 32369, Note_on_c, 0, 69, 0
1, 32433, Note_on_c, 0, 74, 59
1, 32433, Note_on_c, 0, 47, 46
1, 32446, Note_on_c, 0, 67, 0
1, 32510, Note_on_c, 0, 74, 0
1, 32510, Note_on_c, 0, 71, 54
1, 32548, Note_on_c, 0, 47, 0
1, 32587, Note_on_c, 0, 73, 54
1, 32600, Note_on_c, 0, 71, 0
1, 32664, Note_on_c, 0, 74, 54
1, 32676, Note_on_c, 0, 73, 0
1, 32741, Note_on_c, 0, 68, 60
1, 32741, Note_on_c, 0, 62, 41
1, 32753, Note_on_c, 0, 74, 0
1, 32817, Note_on_c, 0, 68, 0
1, 32817, Note_on_c, 0, 77, 55
1, 32856, Note_on_c, 0, 62, 0
1, 32895, Note_on_c, 0, 76, 55
1, 32908, Note_on_c, 0, 77, 0
1, 32974, Note_on_c, 0, 74, 55
1, 32987, Note_on_c, 0, 76, 0
1, 33052, Note_on_c, 0, 73, 60
1, 33052, Note_on_c, 0, 45, 47
1, 33065, Note_on_c, 0, 74, 0
1, 33130, Note_on_c, 0, 73, 0
1, 33130, Note_on_c, 0, 69, 56
1, 33208, Note_on_c, 0, 71, 56
1, 33221, Note_on_c, 0, 69, 0
1, 33287, Note_on_c, 0, 73, 56
1, 33300, Note_on_c, 0, 71, 0
1, 33365, Note_on_c, 0, 64, 60
1, 33365, Note_on_c, 0, 55, 41
1, 33378, Note_on_c, 0, 73, 0
1, 33443, Note_on_c, 0, 64, 0
1, 33443, Note_on_c, 0, 67, 56
1, 33482, Note_on_c, 0, 55, 0
1, 33521, Note_on_c, 0, 66, 56
1, 33534, Note_on_c, 0, 67, 0
1, 33598, Note_on_c, 0, 64, 56
1, 33611, Note_on_c, 0, 66, 0
1, 33676, Note_on_c, 0, 69, 60
1, 33676, Note_on_c, 0, 54, 47
1, 33688, Note_on_c, 0, 64, 0
1, 33753, Note_on_c, 0, 69, 0
1, 33753, Note_on_c, 0, 74, 56
1, 33792, Note_on_c, 0, 54, 0
1, 33832, Note_on_c, 0, 76, 56
1, 33845, Note_on_c, 0, 74, 0
1, 33911, Note_on_c, 0, 78, 56
1, 33924, Note_on_c, 0, 76, 0
1, 33989, Note_on_c, 0, 71, 61
1, 33989, Note_on_c, 0, 50, 41
1, 34003, Note_on_c, 0, 78, 0
1, 34068, Note_on_c, 0, 71, 0
1, 34068, Note_on_c, 0, 81, 56
1, 34107, Note_on_c, 0, 50, 0
1, 34145, Note_on_c, 0, 79, 56
1, 34158, Note_on_c, 0, 81, 0
1, 34223, Note_on_c, 0, 78, 56
1, 34236, Note_on_c, 0, 79, 0
1, 34300, Note_on_c, 0, 79, 61
1, 34300, Note_on_c, 0, 52, 47
1, 34313, Note_on_c, 0, 78, 0
1, 34377, Note_on_c, 0, 79, 0
1, 34377, Note_on_c, 0, 73, 56
1, 34417, Note_on_c, 0, 52, 0
1, 34456, Note_on_c, 0, 74, 56
1, 34469, Note_on_c, 0, 73, 0
1, 34535, Note_on_c, 0, 76, 56
1, 34548, Note_on_c, 0, 74, 0
1, 34614, Note_on_c, 0, 69, 61
1, 34614, Note_on_c, 0, 49, 41
1, 34628, Note_on_c, 0, 76, 0
1, 34693, Note_on_c, 0, 69, 0
1, 34693, Note_on_c, 0, 79, 56
1, 34732, Note_on_c, 0, 49, 0
1, 34770, Note_on_c, 0, 78, 56
1, 34783, Note_on_c, 0, 79, 0
1, 34847, Note_on_c, 0, 76, 56
1, 34860, Note_on_c, 0, 78, 0
1, 34924, Note_on_c, 0, 78, 61
1, 34924, Note_on_c, 0, 50, 47
1, 34937, Note_on_c, 0, 76, 0
1, 35001, Note_on_c, 0, 78, 0
1, 35001, Note_on_c, 0, 71, 56
1, 35040, Note_on_c, 0, 50, 0
1, 35079, Note_on_c, 0, 73, 56
1, 35092, Note_on_c, 0, 71, 0
1, 35158, Note_on_c, 0, 74, 56
1, 35171, Note_on_c, 0, 73, 0
1, 35236, Note_on_c, 0, 68, 61
1, 35236, Note_on_c, 0, 47, 41
1, 35249, Note_on_c, 0, 74, 0
1, 35314, Note_on_c, 0, 68, 0
1, 35314, Note_on_c, 0, 78, 56
1, 35353, Note_on_c, 0, 47, 0
1, 35392, Note_on_c, 0, 76, 56
1, 35405, Note_on_c, 0, 78, 0
1, 35470, Note_on_c, 0, 74, 56
1, 35483, Note_on_c, 0, 76, 0
1, 35548, Note_on_c, 0, 73, 60
1, 35561, Note_on_c, 0, 74, 0
1, 35626, Note_on_c, 0, 73, 0
1, 35626, Note_on_c, 0, 67, 56
1, 35626, Note_on_c, 0, 52, 51
1, 35704, Note_on_c, 0, 69, 56
1, 35704, Note_on_c, 0, 54, 50
1, 35717, Note_on_c, 0, 67, 0
1, 35717, Note_on_c, 0, 52, 0
1, 35782, Note_on_c, 0, 70, 56
1, 35782, Note_on_c, 0, 55, 50
1, 35795, Note_on_c, 0, 69, 0
1, 35795, Note_on_c, 0, 54, 0
1, 35860, Note_on_c, 0, 64, 60
1, 35860, Note_on_c, 0, 49, 54
1, 35873, Note_on_c, 0, 70, 0
1, 35873, Note_on_c, 0, 55, 0
1, 35938, Note_on_c, 0, 64, 0
1, 35938, Note_on_c, 0, 67, 56
1, 35938, Note_on_c, 0, 49, 0
1, 35941, Note_on_c, 0, 52, 50
1, 36016, Note_on_c, 0, 65, 56
1, 36016, Note_on_c, 0, 50, 50
1, 36029, Note_on_c, 0, 67, 0
1, 36029, Note_on_c, 0, 52, 0
1, 36094, Note_on_c, 0, 64, 56
1, 36094, Note_on_c, 0, 49, 50
1, 36107, Note_on_c, 0, 65, 0
1, 36107, Note_on_c, 0, 50, 0
1, 36172, Note_on_c, 0, 65, 60
1, 36172, Note_on_c, 0, 50, 54
1, 36185, Note_on_c, 0, 64, 0
1, 36185, Note_on_c, 0, 49, 0
1, 36250, Note_on_c, 0, 65, 0
1, 36250, Note_on_c, 0, 74, 56
1, 36250, Note_on_c, 0, 50, 0
1, 36253, Note_on_c, 0, 53, 51
1, 36329, Note_on_c, 0, 76, 62
1, 36329, Note_on_c, 0, 55, 53
1, 36342, Note_on_c, 0, 74, 0
1, 36342, Note_on_c, 0, 53, 0
1, 36407, Note_on_c, 0, 77, 58
1, 36407, Note_on_c, 0, 57, 53
1, 36420, Note_on_c, 0, 76, 0
1, 36420, Note_on_c, 0, 55, 0
1, 36486, Note_on_c, 0, 73, 60
1, 36486, Note_on_c, 0, 52, 54
1, 36499, Note_on_c, 0, 77, 0
1, 36499, Note_on_c, 0, 57, 0
1, 36564, Note_on_c, 0, 73, 0
1, 36564, Note_on_c, 0, 76, 56
1, 36564, Note_on_c, 0, 52, 0
1, 36567, Note_on_c, 0, 55, 50
1, 36641, Note_on_c, 0, 74, 56
1, 36641, Note_on_c, 0, 53, 50
1, 36654, Note_on_c, 0, 76, 0
1, 36654, Note_on_c, 0, 55, 0
1, 36718, Note_on_c, 0, 73, 56
1, 36718, Note_on_c, 0, 52, 50
1, 36731, Note_on_c, 0, 74, 0
1, 36731, Note_on_c, 0, 53, 0
1, 36795, Note_on_c, 0, 74, 60
1, 36795, Note_on_c, 0, 45, 0
1, 36795, Note_on_c, 0, 53, 55
1, 36808, Note_on_c, 0, 73, 0
1, 36808, Note_on_c, 0, 52, 0
1, 36874, Note_on_c, 0, 74, 0
1, 36874, Note_on_c, 0, 82, 66
1, 36874, Note_on_c, 0, 53, 0
1, 36877, Note_on_c, 0, 50, 50
1, 36951, Note_on_c, 0, 81, 65
1, 36951, Note_on_c, 0, 52, 50
1, 36964, Note_on_c, 0, 82, 0
1, 36964, Note_on_c, 0, 50, 0
1, 37028, Note_on_c, 0, 79, 64
1, 37028, Note_on_c, 0, 53, 50
1, 37040, Note_on_c, 0, 81, 0
1, 37040, Note_on_c, 0, 52, 0
1, 37105, Note_on_c, 0, 77, 62
1, 37105, Note_on_c, 0, 45, 51
1, 37118, Note_on_c, 0, 79, 0
1, 37118, Note_on_c, 0, 53, 0
1, 37184, Note_on_c, 0, 77, 0
1, 37184, Note_on_c, 0, 76, 61
1, 37184, Note_on_c, 0, 45, 0
1, 37187, Note_on_c, 0, 48, 52
1, 37263, Note_on_c, 0, 74, 60
1, 37263, Note_on_c, 0, 46, 54
1, 37276, Note_on_c, 0, 76, 0
1, 37276, Note_on_c, 0, 48, 0
1, 37343, Note_on_c, 0, 73, 58
1, 37343, Note_on_c, 0, 45, 56
1, 37356, Note_on_c, 0, 74, 0
1, 37356, Note_on_c, 0, 46, 0
1, 37424, Note_on_c, 0, 74, 60
1, 37424, Note_on_c, 0, 44, 58
1, 37437, Note_on_c, 0, 73, 0
1, 37437, Note_on_c, 0, 45, 0
1, 37502, Note_on_c, 0, 74, 0
1, 37502, Note_on_c, 0, 77, 62
1, 37580, Note_on_c, 0, 76, 61
1, 37593, Note_on_c, 0, 77, 0
1, 37657, Note_on_c, 0, 74, 60
1, 37670, Note_on_c, 0, 76, 0
1, 37735, Note_on_c, 0, 83, 65
1, 37747, Note_on_c, 0, 74, 0
1, 37812, Note_on_c, 0, 83, 0
1, 37812, Note_on_c, 0, 80, 61
1, 37889, Note_on_c, 0, 81, 63
1, 37902, Note_on_c, 0, 80, 0
1, 37966, Note_on_c, 0, 83, 66
1, 37979, Note_on_c, 0, 81, 0
1, 38043, Note_on_c, 0, 77, 68
1, 38056, Note_on_c, 0, 83, 0
1, 38120, Note_on_c, 0, 77, 0
1, 38120, Note_on_c, 0, 74, 61
1, 38197, Note_on_c, 0, 76, 61
1, 38209, Note_on_c, 0, 74, 0
1, 38274, Note_on_c, 0, 77, 61
1, 38286, Note_on_c, 0, 76, 0
1, 38351, Note_on_c, 0, 71, 65
1, 38363, Note_on_c, 0, 77, 0
1, 38427, Note_on_c, 0, 71, 0
1, 38427, Note_on_c, 0, 68, 59
1, 38504, Note_on_c, 0, 69, 59
1, 38517, Note_on_c, 0, 68, 0
1, 38581, Note_on_c, 0, 71, 59
1, 38594, Note_on_c, 0, 69, 0
1, 38658, Note_on_c, 0, 64, 61
1, 38671, Note_on_c, 0, 71, 0
1, 38735, Note_on_c, 0, 64, 0
1, 38735, Note_on_c, 0, 66, 55
1, 38812, Note_on_c, 0, 68, 57
1, 38825, Note_on_c, 0, 66, 0
1, 38889, Note_on_c, 0, 69, 59
1, 38902, Note_on_c, 0, 68, 0
1, 38967, Note_on_c, 0, 71, 60
1, 38980, Note_on_c, 0, 69, 0
1, 39045, Note_on_c, 0, 73, 62
1, 39058, Note_on_c, 0, 71, 0
1, 39123, Note_on_c, 0, 74, 64
1, 39136, Note_on_c, 0, 73, 0
1, 39202, Note_on_c, 0, 76, 65
1, 39215, Note_on_c, 0, 74, 0
1, 39281, Note_on_c, 0, 77, 71
1, 39281, Note_on_c, 0, 44, 0
1, 39281, Note_on_c, 0, 45, 60
1, 39295, Note_on_c, 0, 76, 0
1, 39363, Note_on_c, 0, 73, 57
1, 39444, Note_on_c, 0, 73, 0
1, 39444, Note_on_c, 0, 74, 57
1, 39444, Note_on_c, 0, 57, 50
1, 39526, Note_on_c, 0, 74, 0
1, 39526, Note_on_c, 0, 69, 57
1, 39608, Note_on_c, 0, 69, 0
1, 39608, Note_on_c, 0, 70, 57
1, 39608, Note_on_c, 0, 57, 0
1, 39611, Note_on_c, 0, 55, 50
1, 39693, Note_on_c, 0, 70, 0
1, 39693, Note_on_c, 0, 67, 57
1, 39778, Note_on_c, 0, 67, 0
1, 39778, Note_on_c, 0, 77, 0
1, 39778, Note_on_c, 0, 76, 71
1, 39781, Note_on_c, 0, 55, 0
1, 39781, Note_on_c, 0, 49, 50
1, 39864, Note_on_c, 0, 67, 57
1, 39950, Note_on_c, 0, 67, 0
1, 39950, Note_on_c, 0, 69, 57
1, 39950, Note_on_c, 0, 49, 0
1, 39953, Note_on_c, 0, 53, 55
1, 40037, Note_on_c, 0, 69, 0
1, 40037, Note_on_c, 0, 65, 57
1, 40124, Note_on_c, 0, 65, 0
1, 40124, Note_on_c, 0, 76, 0
1, 40124, Note_on_c, 0, 74, 71
1, 40127, Note_on_c, 0, 53, 0
1, 40127, Note_on_c, 0, 50, 50
1, 40213, Note_on_c, 0, 65, 56
1, 40303, Note_on_c, 0, 65, 0
1, 40303, Note_on_c, 0, 67, 57
1, 40303, Note_on_c, 0, 50, 0
1, 40306, Note_on_c, 0, 52, 53
1, 40395, Note_on_c, 0, 67, 0
1, 40395, Note_on_c, 0, 64, 57
1, 40488, Note_on_c, 0, 64, 0
1, 40488, Note_on_c, 0, 74, 0
1, 40488, Note_on_c, 0, 73, 69
1, 40491, Note_on_c, 0, 52, 0
1, 40491, Note_on_c, 0, 55, 50
1, 40595, Note_on_c, 0, 64, 56
1, 40699, Note_on_c, 0, 64, 0
1, 40699, Note_on_c, 0, 73, 0
1, 40699, Note_on_c, 0, 55, 0
1, 40702, Note_on_c, 0, 45, 0
1, 40702, Note_on_c, 0, 45, 44
1, 40738, Note_on_c, 0, 50, 45
1, 40777, Note_on_c, 0, 53, 48
1, 40816, Note_on_c, 0, 56, 49
1, 40855, Note_on_c, 0, 59, 52
1, 40894, Note_on_c, 0, 62, 52
1, 40933, Note_on_c, 0, 65, 57
1, 40972, Note_on_c, 0, 68, 60
1, 41011, Note_on_c, 0, 71, 64
1, 41050, Note_on_c, 0, 74, 68
1, 41323, Note_on_c, 0, 71, 0
1, 41323, Note_on_c, 0, 68, 0
1, 41323, Note_on_c, 0, 62, 0
1, 41326, Note_on_c, 0, 65, 0
1, 41326, Note_on_c, 0, 59, 0
1, 41326, Note_on_c, 0, 53, 0
1, 41329, Note_on_c, 0, 45, 0
1, 41329, Note_on_c, 0, 50, 0
1, 41329, Note_on_c, 0, 56, 0
1, 41385, Note_on_c, 0, 74, 0
1, 41385, Note_on_c, 0, 73, 53
1, 41446, Note_on_c, 0, 73, 0
1, 41446, Note_on_c, 0, 71, 53
1, 41508, Note_on_c, 0, 71, 0
1, 41508, Note_on_c, 0, 69, 52
1, 41569, Note_on_c, 0, 69, 0
1, 41569, Note_on_c, 0, 68, 52
1, 41630, Note_on_c, 0, 68, 0
1, 41630, Note_on_c, 0, 66, 51
1, 41690, Note_on_c, 0, 66, 0
1, 41690, Note_on_c, 0, 64, 51
1, 41751, Note_on_c, 0, 64, 0
1, 41751, Note_on_c, 0, 66, 50
1, 41811, Note_on_c, 0, 66, 0
1, 41811, Note_on_c, 0, 68, 47
1, 41871, Note_on_c, 0, 68, 0
1, 41871, Note_on_c, 0, 69, 48
1, 41930, Note_on_c, 0, 69, 0
1, 41930, Note_on_c, 0, 71, 49
1, 41989, Note_on_c, 0, 71, 0
1, 41989, Note_on_c, 0, 73, 50
1, 42048, Note_on_c, 0, 73, 0
1, 42048, Note_on_c, 0, 74, 51
1, 42106, Note_on_c, 0, 74, 0
1, 42106, Note_on_c, 0, 76, 51
1, 42163, Note_on_c, 0, 76, 0
1, 42163, Note_on_c, 0, 77, 52
1, 42220, Note_on_c, 0, 77, 0
1, 42220, Note_on_c, 0, 76, 53
1, 42277, Note_on_c, 0, 76, 0
1, 42277, Note_on_c, 0, 74, 54
1, 42333, Note_on_c, 0, 74, 0
1, 42333, Note_on_c, 0, 73, 53
1, 42389, Note_on_c, 0, 73, 0
1, 42389, Note_on_c, 0, 71, 52
1, 42445, Note_on_c, 0, 71, 0
1, 42445, Note_on_c, 0, 69, 52
1, 42502, Note_on_c, 0, 69, 0
1, 42502, Note_on_c, 0, 68, 51
1, 42558, Note_on_c, 0, 68, 0
1, 42558, Note_on_c, 0, 66, 51
1, 42614, Note_on_c, 0, 66, 0
1, 42614, Note_on_c, 0, 64, 50
1, 42670, Note_on_c, 0, 64, 0
1, 42670, Note_on_c, 0, 62, 49
1, 42726, Note_on_c, 0, 62, 0
1, 42726, Note_on_c, 0, 61, 58
1, 42765, Note_on_c, 0, 64, 58
1, 42804, Note_on_c, 0, 67, 58
1, 42843, Note_on_c, 0, 70, 58
1, 42882, Note_on_c, 0, 73, 58
1, 42921, Note_on_c, 0, 76, 58
1, 42960, Note_on_c, 0, 79, 58
1, 42999, Note_on_c, 0, 82, 58
1, 43038, Note_on_c, 0, 82, 0
1, 43038, Note_on_c, 0, 73, 0
1, 43038, Note_on_c, 0, 76, 0
1, 43041, Note_on_c, 0, 79, 0
1, 43041, Note_on_c, 0, 70, 0
1, 43041, Note_on_c, 0, 61, 0
1, 43044, Note_on_c, 0, 64, 0
1, 43044, Note_on_c, 0, 67, 0
1, 43350, Note_on_c, 0, 62, 62
1, 43389, Note_on_c, 0, 65, 62
1, 43428, Note_on_c, 0, 68, 62
1, 43467, Note_on_c, 0, 71, 62
1, 43506, Note_on_c, 0, 74, 63
1, 43545, Note_on_c, 0, 77, 63
1, 43584, Note_on_c, 0, 80, 63
1, 43623, Note_on_c, 0, 83, 63
1, 43662, Note_on_c, 0, 83, 0
1, 43662, Note_on_c, 0, 74, 0
1, 43662, Note_on_c, 0, 77, 0
1, 43665, Note_on_c, 0, 80, 0
1, 43665, Note_on_c, 0, 71, 0
1, 43665, Note_on_c, 0, 62, 0
1, 43668, Note_on_c, 0, 65, 0
1, 43668, Note_on_c, 0, 68, 0
1, 43974, Note_on_c, 0, 69, 58
1, 43974, Note_on_c, 0, 64, 58
1, 43974, Note_on_c, 0, 74, 69
1, 43977, Note_on_c, 0, 45, 57
1, 43977, Note_on_c, 0, 52, 68
1, 43977, Note_on_c, 0, 57, 68
1, 44539, Note_on_c, 0, 74, 0
1, 44539, Note_on_c, 0, 73, 65
1, 44539, Note_on_c, 0, 52, 0
1, 44542, Note_on_c, 0, 55, 63
1, 45151, Note_on_c, 0, 73, 0
1, 45151, Note_on_c, 0, 64, 0
1, 45151, Note_on_c, 0, 69, 0
1, 45154, Note_on_c, 0, 74, 71
1, 45154, Note_on_c, 0, 69, 60
1, 45154, Note_on_c, 0, 66, 60
1, 45157, Note_on_c, 0, 55, 0
1, 45157, Note_on_c, 0, 57, 0
1, 45157, Note_on_c, 0, 45, 0
1, 45160, Note_on_c, 0, 50, 57
1, 45160, Note_on_c, 0, 57, 68
1, 45160, Note_on_c, 0, 54, 57
1, 46984, Note_on_c, 0, 66, 0
1, 46984, Note_on_c, 0, 69, 0
1, 46984, Note_on_c, 0, 74, 0
1, 46987, Note_on_c, 0, 54, 0
1, 46987, Note_on_c, 0, 57, 0
1, 46987, Note_on_c, 0, 50, 0
1, 48482, Control_c, 0, 91, 127
1, 48482, Control_c, 0, 91, 127
1, 48482, Control_c, 0, 91, 127
1, 48485, Control_c, 0, 91, 127
1, 49231, Note_on_c, 0, 50, 66
1, 49324, Note_on_c, 0, 50, 0
1, 49324, Note_on_c, 0, 52, 66
1, 49418, Note_on_c, 0, 52, 0
1, 49418, Note_on_c, 0, 54, 66
1, 49512, Note_on_c, 0, 54, 0
1, 49512, Note_on_c, 0, 55, 66
1, 49605, Note_on_c, 0, 55, 0
1, 49605, Note_on_c, 0, 54, 66
1, 49699, Note_on_c, 0, 54, 0
1, 49699, Note_on_c, 0, 52, 66
1, 49792, Note_on_c, 0, 52, 0
1, 49792, Note_on_c, 0, 54, 66
1, 49886, Note_on_c, 0, 54, 0
1, 49886, Note_on_c, 0, 50, 66
1, 49980, Note_on_c, 0, 50, 0
1, 49980, Note_on_c, 0, 59, 71
1, 50541, Note_on_c, 0, 59, 0
1, 50541, Note_on_c, 0, 59, 67
1, 50728, Note_on_c, 0, 59, 0
1, 50728, Note_on_c, 0, 57, 72
1, 51290, Note_on_c, 0, 57, 0
1, 51290, Note_on_c, 0, 55, 66
1, 51477, Note_on_c, 0, 55, 0
1, 51477, Note_on_c, 0, 54, 67
1, 52039, Note_on_c, 0, 54, 0
1, 52039, Note_on_c, 0, 55, 61
1, 52226, Note_on_c, 0, 57, 66
1, 52226, Note_on_c, 0, 55, 0
1, 52226, Note_on_c, 0, 54, 60
1, 52320, Note_on_c, 0, 57, 0
1, 52320, Note_on_c, 0, 59, 66
1, 52413, Note_on_c, 0, 59, 0
1, 52413, Note_on_c, 0, 61, 66
1, 52507, Note_on_c, 0, 61, 0
1, 52507, Note_on_c, 0, 62, 66
1, 52600, Note_on_c, 0, 62, 0
1, 52600, Note_on_c, 0, 61, 66
1, 52694, Note_on_c, 0, 61, 0
1, 52694, Note_on_c, 0, 59, 66
1, 52788, Note_on_c, 0, 59, 0
1, 52788, Note_on_c, 0, 61, 66
1, 52788, Note_on_c, 0, 54, 0
1, 52791, Note_on_c, 0, 52, 57
1, 52881, Note_on_c, 0, 61, 0
1, 52881, Note_on_c, 0, 57, 66
1, 52975, Note_on_c, 0, 57, 0
1, 52975, Note_on_c, 0, 66, 71
1, 52975, Note_on_c, 0, 52, 0
1, 52978, Note_on_c, 0, 50, 60
1, 53536, Note_on_c, 0, 66, 0
1, 53536, Note_on_c, 0, 66, 66
1, 53724, Note_on_c, 0, 66, 0
1, 53724, Note_on_c, 0, 64, 71
1, 53724, Note_on_c, 0, 50, 0
1, 53727, Note_on_c, 0, 52, 56
1, 54285, Note_on_c, 0, 64, 0
1, 54285, Note_on_c, 0, 62, 66
1, 54472, Note_on_c, 0, 62, 0
1, 54472, Note_on_c, 0, 61, 73
1, 54472, Note_on_c, 0, 52, 0
1, 54475, Note_on_c, 0, 45, 62
1, 55034, Note_on_c, 0, 45, 0
1, 55034, Note_on_c, 0, 52, 56
1, 55096, Note_on_c, 0, 52, 0
1, 55096, Note_on_c, 0, 54, 56
1, 55159, Note_on_c, 0, 54, 0
1, 55159, Note_on_c, 0, 55, 56
1, 55221, Note_on_c, 0, 61, 0
1, 55221, Note_on_c, 0, 66, 72
1, 55221, Note_on_c, 0, 55, 0
1, 55224, Note_on_c, 0, 57, 63
1, 55783, Note_on_c, 0, 66, 0
1, 55783, Note_on_c, 0, 66, 68
1, 55970, Note_on_c, 0, 66, 0
1, 55970, Note_on_c, 0, 59, 73
1, 56532, Note_on_c, 0, 59, 0
1, 56532, Note_on_c, 0, 59, 67
1, 56594, Note_on_c, 0, 59, 0
1, 56594, Note_on_c, 0, 61, 67
1, 56656, Note_on_c, 0, 61, 0
1, 56656, Note_on_c, 0, 62, 67
1, 56719, Note_on_c, 0, 62, 0
1, 56719, Note_on_c, 0, 64, 71
1, 56719, Note_on_c, 0, 57, 0
1, 56722, Note_on_c, 0, 55, 56
1, 56906, Note_on_c, 0, 64, 0
1, 56906, Note_on_c, 0, 62, 67
1, 57093, Note_on_c, 0, 62, 0
1, 57093, Note_on_c, 0, 64, 72
1, 57280, Note_on_c, 0, 64, 0
1, 57280, Note_on_c, 0, 61, 67
1, 57468, Note_on_c, 0, 61, 0
1, 57468, Note_on_c, 0, 57, 73
1, 58029, Note_on_c, 0, 55, 0
1, 58029, Note_on_c, 0, 54, 54
1, 58123, Note_on_c, 0, 54, 0
1, 58123, Note_on_c, 0, 52, 54
1, 58216, Note_on_c, 0, 62, 68
1, 58216, Note_on_c, 0, 57, 0
1, 58216, Note_on_c, 0, 62, 67
1, 58219, Note_on_c, 0, 52, 0
1, 58219, Note_on_c, 0, 54, 59
1, 58310, Note_on_c, 0, 62, 0
1, 58310, Note_on_c, 0, 64, 68
1, 58404, Note_on_c, 0, 64, 0
1, 58404, Note_on_c, 0, 66, 68
1, 58497, Note_on_c, 0, 66, 0
1, 58497, Note_on_c, 0, 67, 68
1, 58591, Note_on_c, 0, 67, 0
1, 58591, Note_on_c, 0, 66, 68
1, 58684, Note_on_c, 0, 66, 0
1, 58684, Note_on_c, 0, 64, 68
1, 58778, Note_on_c, 0, 64, 0
1, 58778, Note_on_c, 0, 66, 68
1, 58778, Note_on_c, 0, 54, 0
1, 58781, Note_on_c, 0, 54, 56
1, 58872, Note_on_c, 0, 66, 0
1, 58872, Note_on_c, 0, 62, 68
1, 58965, Note_on_c, 0, 62, 0
1, 58965, Note_on_c, 0, 71, 73
1, 58965, Note_on_c, 0, 54, 0
1, 58968, Note_on_c, 0, 55, 60
1, 59527, Note_on_c, 0, 71, 0
1, 59527, Note_on_c, 0, 71, 68
1, 59527, Note_on_c, 0, 55, 0
1, 59530, Note_on_c, 0, 52, 56
1, 59714, Note_on_c, 0, 71, 0
1, 59714, Note_on_c, 0, 69, 72
1, 59714, Note_on_c, 0, 62, 0
1, 59717, Note_on_c, 0, 61, 58
1, 59717, Note_on_c, 0, 52, 0
1, 59717, Note_on_c, 0, 57, 60
1, 60276, Note_on_c, 0, 69, 0
1, 60276, Note_on_c, 0, 67, 69
1, 60276, Note_on_c, 0, 57, 0
1, 60279, Note_on_c, 0, 45, 56
1, 60463, Note_on_c, 0, 67, 0
1, 60463, Note_on_c, 0, 66, 73
1, 60463, Note_on_c, 0, 61, 0
1, 60466, Note_on_c, 0, 62, 63
1, 60466, Note_on_c, 0, 45, 0
1, 60466, Note_on_c, 0, 50, 60
1, 61024, Note_on_c, 0, 66, 0
1, 61024, Note_on_c, 0, 68, 68
1, 61024, Note_on_c, 0, 50, 0
1, 61027, Note_on_c, 0, 52, 56
1, 61212, Note_on_c, 0, 69, 71
1, 61212, Note_on_c, 0, 68, 0
1, 61212, Note_on_c, 0, 69, 73
1, 61215, Note_on_c, 0, 62, 0
1, 61215, Note_on_c, 0, 61, 63
1, 61215, Note_on_c, 0, 52, 0
1, 61218, Note_on_c, 0, 54, 60
1, 61305, Note_on_c, 0, 69, 0
1, 61305, Note_on_c, 0, 71, 71
1, 61399, Note_on_c, 0, 71, 0
1, 61399, Note_on_c, 0, 73, 71
1, 61492, Note_on_c, 0, 73, 0
1, 61492, Note_on_c, 0, 74, 71
1, 61586, Note_on_c, 0, 74, 0
1, 61586, Note_on_c, 0, 73, 71
1, 61680, Note_on_c, 0, 73, 0
1, 61680, Note_on_c, 0, 71, 71
1, 61773, Note_on_c, 0, 71, 0
1, 61773, Note_on_c, 0, 73, 71
1, 61773, Note_on_c, 0, 54, 0
1, 61776, Note_on_c, 0, 52, 56
1, 61867, Note_on_c, 0, 73, 0
1, 61867, Note_on_c, 0, 69, 71
1, 61960, Note_on_c, 0, 69, 0
1, 61960, Note_on_c, 0, 78, 75
1, 61960, Note_on_c, 0, 61, 0
1, 61963, Note_on_c, 0, 59, 63
1, 61963, Note_on_c, 0, 52, 0
1, 61963, Note_on_c, 0, 54, 60
1, 62522, Note_on_c, 0, 78, 0
1, 62522, Note_on_c, 0, 78, 71
1, 62522, Note_on_c, 0, 54, 0
1, 62525, Note_on_c, 0, 50, 56
1, 62709, Note_on_c, 0, 78, 0
1, 62709, Note_on_c, 0, 76, 76
1, 62709, Note_on_c, 0, 69, 0
1, 62712, Note_on_c, 0, 68, 67
1, 62712, Note_on_c, 0, 50, 0
1, 62712, Note_on_c, 0, 52, 62
1, 63271, Note_on_c, 0, 76, 0
1, 63271, Note_on_c, 0, 74, 71
1, 63458, Note_on_c, 0, 74, 0
1, 63458, Note_on_c, 0, 73, 75
1, 63458, Note_on_c, 0, 68, 0
1, 63461, Note_on_c, 0, 69, 72
1, 63461, Note_on_c, 0, 59, 0
1, 63461, Note_on_c, 0, 57, 63
1, 63464, Note_on_c, 0, 52, 0
1, 63464, Note_on_c, 0, 45, 63
1, 64020, Note_on_c, 0, 73, 0
1, 64020, Note_on_c, 0, 76, 69
1, 64082, Note_on_c, 0, 76, 0
1, 64082, Note_on_c, 0, 78, 69
1, 64144, Note_on_c, 0, 78, 0
1, 64144, Note_on_c, 0, 79, 69
1, 64207, Note_on_c, 0, 79, 0
1, 64207, Note_on_c, 0, 81, 76
1, 64207, Note_on_c, 0, 69, 0
1, 64210, Note_on_c, 0, 73, 65
1, 64210, Note_on_c, 0, 57, 0
1, 64210, Note_on_c, 0, 66, 71
1, 64213, Note_on_c, 0, 45, 0
1, 64300, Note_on_c, 0, 66, 0
1, 64300, Note_on_c, 0, 67, 71
1, 64394, Note_on_c, 0, 67, 0
1, 64394, Note_on_c, 0, 69, 71
1, 64488, Note_on_c, 0, 69, 0
1, 64488, Note_on_c, 0, 71, 71
1, 64581, Note_on_c, 0, 71, 0
1, 64581, Note_on_c, 0, 69, 71
1, 64675, Note_on_c, 0, 69, 0
1, 64675, Note_on_c, 0, 67, 71
1, 64768, Note_on_c, 0, 81, 0
1, 64768, Note_on_c, 0, 81, 72
1, 64768, Note_on_c, 0, 67, 0
1, 64771, Note_on_c, 0, 69, 71
1, 64862, Note_on_c, 0, 69, 0
1, 64862, Note_on_c, 0, 66, 71
1, 64956, Note_on_c, 0, 81, 0
1, 64956, Note_on_c, 0, 81, 76
1, 64956, Note_on_c, 0, 73, 0
1, 64959, Note_on_c, 0, 74, 65
1, 64959, Note_on_c, 0, 66, 0
1, 64959, Note_on_c, 0, 71, 78
1, 65517, Note_on_c, 0, 81, 0
1, 65517, Note_on_c, 0, 74, 70
1, 65580, Note_on_c, 0, 74, 0
1, 65580, Note_on_c, 0, 76, 70
1, 65642, Note_on_c, 0, 76, 0
1, 65642, Note_on_c, 0, 78, 70
1, 65704, Note_on_c, 0, 78, 0
1, 65704, Note_on_c, 0, 79, 74
1, 65704, Note_on_c, 0, 74, 0
1, 65707, Note_on_c, 0, 74, 65
1, 65707, Note_on_c, 0, 71, 0
1, 65707, Note_on_c, 0, 64, 71
1, 65798, Note_on_c, 0, 64, 0
1, 65798, Note_on_c, 0, 66, 71
1, 65892, Note_on_c, 0, 66, 0
1, 65892, Note_on_c, 0, 67, 71
1, 65985, Note_on_c, 0, 67, 0
1, 65985, Note_on_c, 0, 69, 71
1, 66079, Note_on_c, 0, 69, 0
1, 66079, Note_on_c, 0, 67, 71
1, 66172, Note_on_c, 0, 67, 0
1, 66172, Note_on_c, 0, 66, 71
1, 66266, Note_on_c, 0, 79, 0
1, 66266, Note_on_c, 0, 79, 70
1, 66266, Note_on_c, 0, 66, 0
1, 66269, Note_on_c, 0, 67, 71
1, 66360, Note_on_c, 0, 67, 0
1, 66360, Note_on_c, 0, 64, 71
1, 66453, Note_on_c, 0, 79, 0
1, 66453, Note_on_c, 0, 79, 73
1, 66453, Note_on_c, 0, 74, 0
1, 66456, Note_on_c, 0, 73, 66
1, 66456, Note_on_c, 0, 64, 0
1, 66456, Note_on_c, 0, 69, 77
1, 67015, Note_on_c, 0, 73, 0
1, 67015, Note_on_c, 0, 76, 72
1, 67077, Note_on_c, 0, 76, 0
1, 67077, Note_on_c, 0, 74, 72
1, 67140, Note_on_c, 0, 74, 0
1, 67140, Note_on_c, 0, 73, 72
1, 67202, Note_on_c, 0, 79, 0
1, 67202, Note_on_c, 0, 78, 74
1, 67202, Note_on_c, 0, 73, 0
1, 67205, Note_on_c, 0, 74, 77
1, 67205, Note_on_c, 0, 69, 0
1, 67205, Note_on_c, 0, 69, 60
1, 67208, Note_on_c, 0, 38, 66
1, 67296, Note_on_c, 0, 38, 0
1, 67296, Note_on_c, 0, 40, 66
1, 67389, Note_on_c, 0, 40, 0
1, 67389, Note_on_c, 0, 42, 66
1, 67483, Note_on_c, 0, 42, 0
1, 67483, Note_on_c, 0, 43, 66
1, 67576, Note_on_c, 0, 43, 0
1, 67576, Note_on_c, 0, 42, 66
1, 67670, Note_on_c, 0, 42, 0
1, 67670, Note_on_c, 0, 40, 66
1, 67764, Note_on_c, 0, 78, 0
1, 67764, Note_on_c, 0, 76, 69
1, 67764, Note_on_c, 0, 74, 0
1, 67767, Note_on_c, 0, 73, 69
1, 67767, Note_on_c, 0, 69, 0
1, 67767, Note_on_c, 0, 67, 57
1, 67770, Note_on_c, 0, 40, 0
1, 67770, Note_on_c, 0, 42, 66
1, 67857, Note_on_c, 0, 42, 0
1, 67857, Note_on_c, 0, 38, 66
1, 67951, Note_on_c, 0, 76, 0
1, 67951, Note_on_c, 0, 74, 74
1, 67951, Note_on_c, 0, 73, 0
1, 67954, Note_on_c, 0, 71, 74
1, 67954, Note_on_c, 0, 67, 0
1, 67954, Note_on_c, 0, 66, 60
1, 67957, Note_on_c, 0, 38, 0
1, 67957, Note_on_c, 0, 47, 72
1, 68512, Note_on_c, 0, 74, 0
1, 68512, Note_on_c, 0, 76, 71
1, 68512, Note_on_c, 0, 66, 0
1, 68515, Note_on_c, 0, 67, 57
1, 68515, Note_on_c, 0, 47, 0
1, 68515, Note_on_c, 0, 47, 66
1, 68700, Note_on_c, 0, 76, 0
1, 68700, Note_on_c, 0, 73, 75
1, 68700, Note_on_c, 0, 71, 0
1, 68703, Note_on_c, 0, 69, 65
1, 68703, Note_on_c, 0, 67, 0
1, 68703, Note_on_c, 0, 64, 60
1, 68706, Note_on_c, 0, 47, 0
1, 68706, Note_on_c, 0, 45, 71
1, 69261, Note_on_c, 0, 73, 0
1, 69261, Note_on_c, 0, 73, 73
1, 69261, Note_on_c, 0, 45, 0
1, 69264, Note_on_c, 0, 43, 66
1, 69448, Note_on_c, 0, 73, 0
1, 69448, Note_on_c, 0, 73, 73
1, 69448, Note_on_c, 0, 69, 0
1, 69451, Note_on_c, 0, 69, 65
1, 69451, Note_on_c, 0, 64, 0
1, 69451, Note_on_c, 0, 62, 64
1, 69454, Note_on_c, 0, 43, 0
1, 69454, Note_on_c, 0, 42, 72
1, 70010, Note_on_c, 0, 42, 0
1, 70010, Note_on_c, 0, 50, 66
1, 70072, Note_on_c, 0, 50, 0
1, 70072, Note_on_c, 0, 52, 66
1, 70135, Note_on_c, 0, 52, 0
1, 70135, Note_on_c, 0, 54, 66
1, 70197, Note_on_c, 0, 73, 0
1, 70197, Note_on_c, 0, 71, 73
1, 70197, Note_on_c, 0, 69, 0
1, 70200, Note_on_c, 0, 71, 65
1, 70200, Note_on_c, 0, 62, 0
1, 70200, Note_on_c, 0, 62, 60
1, 70203, Note_on_c, 0, 54, 0
1, 70203, Note_on_c, 0, 55, 72
1, 70291, Note_on_c, 0, 71, 0
1, 70291, Note_on_c, 0, 73, 73
1, 70384, Note_on_c, 0, 73, 0
1, 70384, Note_on_c, 0, 74, 73
1, 70478, Note_on_c, 0, 74, 0
1, 70478, Note_on_c, 0, 76, 73
1, 70572, Note_on_c, 0, 76, 0
1, 70572, Note_on_c, 0, 74, 73
1, 70665, Note_on_c, 0, 74, 0
1, 70665, Note_on_c, 0, 73, 73
1, 70759, Note_on_c, 0, 73, 0
1, 70759, Note_on_c, 0, 74, 73
1, 70759, Note_on_c, 0, 55, 0
1, 70762, Note_on_c, 0, 54, 66
1, 70852, Note_on_c, 0, 74, 0
1, 70852, Note_on_c, 0, 71, 70
1, 70946, Note_on_c, 0, 71, 0
1, 70946, Note_on_c, 0, 79, 78
1, 70946, Note_on_c, 0, 62, 0
1, 70949, Note_on_c, 0, 61, 60
1, 70949, Note_on_c, 0, 54, 0
1, 70949, Note_on_c, 0, 55, 72
1, 71508, Note_on_c, 0, 79, 0
1, 71508, Note_on_c, 0, 79, 73
1, 71508, Note_on_c, 0, 55, 0
1, 71511, Note_on_c, 0, 52, 66
1, 71695, Note_on_c, 0, 79, 0
1, 71695, Note_on_c, 0, 78, 76
1, 71695, Note_on_c, 0, 71, 0
1, 71698, Note_on_c, 0, 70, 61
1, 71698, Note_on_c, 0, 52, 0
1, 71698, Note_on_c, 0, 54, 71
1, 72256, Note_on_c, 0, 78, 0
1, 72256, Note_on_c, 0, 76, 73
1, 72444, Note_on_c, 0, 76, 0
1, 72444, Note_on_c, 0, 74, 76
1, 72444, Note_on_c, 0, 70, 0
1, 72447, Note_on_c, 0, 71, 65
1, 72447, Note_on_c, 0, 61, 0
1, 72447, Note_on_c, 0, 59, 60
1, 72450, Note_on_c, 0, 54, 0
1, 72450, Note_on_c, 0, 47, 66
1, 72537, Note_on_c, 0, 47, 0
1, 72537, Note_on_c, 0, 49, 66
1, 72631, Note_on_c, 0, 49, 0
1, 72631, Note_on_c, 0, 50, 66
1, 72724, Note_on_c, 0, 50, 0
1, 72724, Note_on_c, 0, 52, 66
1, 72818, Note_on_c, 0, 52, 0
1, 72818, Note_on_c, 0, 50, 66
1, 72912, Note_on_c, 0, 50, 0
1, 72912, Note_on_c, 0, 49, 66
1, 73005, Note_on_c, 0, 49, 0
1, 73005, Note_on_c, 0, 50, 66
1, 73099, Note_on_c, 0, 50, 0
1, 73099, Note_on_c, 0, 47, 66
1, 73192, Note_on_c, 0, 74, 0
1, 73192, Note_on_c, 0, 83, 72
1, 73192, Note_on_c, 0, 71, 0
1, 73195, Note_on_c, 0, 59, 0
1, 73195, Note_on_c, 0, 47, 0
1, 73195, Note_on_c, 0, 56, 73
1, 73380, Note_on_c, 0, 83, 0
1, 73380, Note_on_c, 0, 81, 70
1, 73567, Note_on_c, 0, 81, 0
1, 73567, Note_on_c, 0, 83, 72
1, 73567, Note_on_c, 0, 56, 0
1, 73754, Note_on_c, 0, 83, 0
1, 73754, Note_on_c, 0, 80, 69
1, 73941, Note_on_c, 0, 80, 0
1, 73941, Note_on_c, 0, 80, 71
1, 73941, Note_on_c, 0, 74, 55
1, 73944, Note_on_c, 0, 71, 54
1, 74128, Note_on_c, 0, 80, 0
1, 74128, Note_on_c, 0, 78, 69
1, 74316, Note_on_c, 0, 78, 0
1, 74316, Note_on_c, 0, 80, 72
1, 74503, Note_on_c, 0, 80, 0
1, 74503, Note_on_c, 0, 76, 67
1, 74503, Note_on_c, 0, 74, 0
1, 74506, Note_on_c, 0, 71, 52
1, 74506, Note_on_c, 0, 71, 0
1, 74506, Note_on_c, 0, 68, 50
1, 74690, Note_on_c, 0, 76, 0
1, 74690, Note_on_c, 0, 76, 69
1, 74690, Note_on_c, 0, 71, 0
1, 74693, Note_on_c, 0, 71, 55
1, 74693, Note_on_c, 0, 68, 0
1, 74693, Note_on_c, 0, 68, 54
1, 74877, Note_on_c, 0, 76, 0
1, 74877, Note_on_c, 0, 74, 67
1, 75064, Note_on_c, 0, 74, 0
1, 75064, Note_on_c, 0, 76, 68
1, 75252, Note_on_c, 0, 76, 0
1, 75252, Note_on_c, 0, 73, 64
1, 75252, Note_on_c, 0, 71, 0
1, 75255, Note_on_c, 0, 69, 52
1, 75255, Note_on_c, 0, 68, 0
1, 75255, Note_on_c, 0, 64, 50
1, 75439, Note_on_c, 0, 73, 0
1, 75439, Note_on_c, 0, 73, 64
1, 75439, Note_on_c, 0, 69, 0
1, 75442, Note_on_c, 0, 69, 55
1, 75442, Note_on_c, 0, 64, 0
1, 75442, Note_on_c, 0, 64, 54
1, 75445, Note_on_c, 0, 45, 66
1, 75532, Note_on_c, 0, 45, 0
1, 75532, Note_on_c, 0, 47, 66
1, 75626, Note_on_c, 0, 47, 0
1, 75626, Note_on_c, 0, 49, 66
1, 75720, Note_on_c, 0, 49, 0
1, 75720, Note_on_c, 0, 50, 66
1, 75813, Note_on_c, 0, 50, 0
1, 75813, Note_on_c, 0, 49, 66
1, 75907, Note_on_c, 0, 49, 0
1, 75907, Note_on_c, 0, 47, 66
1, 76000, Note_on_c, 0, 47, 0
1, 76000, Note_on_c, 0, 49, 66
1, 76094, Note_on_c, 0, 49, 0
1, 76094, Note_on_c, 0, 45, 66
1, 76188, Note_on_c, 0, 73, 0
1, 76188, Note_on_c, 0, 81, 72
1, 76188, Note_on_c, 0, 69, 0
1, 76191, Note_on_c, 0, 64, 0
1, 76191, Note_on_c, 0, 45, 0
1, 76191, Note_on_c, 0, 54, 73
1, 76375, Note_on_c, 0, 81, 0
1, 76375, Note_on_c, 0, 79, 70
1, 76562, Note_on_c, 0, 79, 0
1, 76562, Note_on_c, 0, 81, 72
1, 76562, Note_on_c, 0, 54, 0
1, 76749, Note_on_c, 0, 81, 0
1, 76749, Note_on_c, 0, 78, 69
1, 76936, Note_on_c, 0, 78, 0
1, 76936, Note_on_c, 0, 78, 71
1, 76936, Note_on_c, 0, 72, 55
1, 76939, Note_on_c, 0, 69, 54
1, 77124, Note_on_c, 0, 78, 0
1, 77124, Note_on_c, 0, 76, 69
1, 77311, Note_on_c, 0, 76, 0
1, 77311, Note_on_c, 0, 78, 72
1, 77498, Note_on_c, 0, 78, 0
1, 77498, Note_on_c, 0, 74, 67
1, 77498, Note_on_c, 0, 72, 0
1, 77501, Note_on_c, 0, 69, 52
1, 77501, Note_on_c, 0, 69, 0
1, 77501, Note_on_c, 0, 66, 50
1, 77685, Note_on_c, 0, 74, 0
1, 77685, Note_on_c, 0, 74, 69
1, 77685, Note_on_c, 0, 69, 0
1, 77688, Note_on_c, 0, 69, 55
1, 77688, Note_on_c, 0, 66, 0
1, 77688, Note_on_c, 0, 66, 54
1, 77872, Note_on_c, 0, 74, 0
1, 77872, Note_on_c, 0, 72, 67
1, 78060, Note_on_c, 0, 72, 0
1, 78060, Note_on_c, 0, 74, 68
1, 78247, Note_on_c, 0, 74, 0
1, 78247, Note_on_c, 0, 71, 64
1, 78247, Note_on_c, 0, 69, 0
1, 78250, Note_on_c, 0, 67, 52
1, 78250, Note_on_c, 0, 66, 0
1, 78250, Note_on_c, 0, 62, 50
1, 78434, Note_on_c, 0, 71, 0
1, 78434, Note_on_c, 0, 71, 64
1, 78434, Note_on_c, 0, 67, 0
1, 78437, Note_on_c, 0, 67, 55
1, 78437, Note_on_c, 0, 62, 0
1, 78437, Note_on_c, 0, 62, 54
1, 78440, Note_on_c, 0, 43, 63
1, 78528, Note_on_c, 0, 43, 0
1, 78528, Note_on_c, 0, 45, 63
1, 78621, Note_on_c, 0, 45, 0
1, 78621, Note_on_c, 0, 47, 63
1, 78715, Note_on_c, 0, 47, 0
1, 78715, Note_on_c, 0, 48, 63
1, 78808, Note_on_c, 0, 48, 0
1, 78808, Note_on_c, 0, 47, 63
1, 78902, Note_on_c, 0, 47, 0
1, 78902, Note_on_c, 0, 45, 63
1, 78996, Note_on_c, 0, 45, 0
1, 78996, Note_on_c, 0, 47, 63
1, 79089, Note_on_c, 0, 47, 0
1, 79089, Note_on_c, 0, 43, 63
1, 79180, Note_on_c, 0, 67, 0
1, 79183, Note_on_c, 0, 71, 0
1, 79183, Note_on_c, 0, 67, 72
1, 79183, Note_on_c, 0, 62, 0
1, 79186, Note_on_c, 0, 43, 0
1, 79186, Note_on_c, 0, 52, 68
1, 79276, Note_on_c, 0, 67, 0
1, 79276, Note_on_c, 0, 69, 72
1, 79370, Note_on_c, 0, 69, 0
1, 79370, Note_on_c, 0, 71, 72
1, 79464, Note_on_c, 0, 71, 0
1, 79464, Note_on_c, 0, 72, 72
1, 79557, Note_on_c, 0, 72, 0
1, 79557, Note_on_c, 0, 71, 72
1, 79651, Note_on_c, 0, 71, 0
1, 79651, Note_on_c, 0, 69, 72
1, 79744, Note_on_c, 0, 69, 0
1, 79744, Note_on_c, 0, 71, 72
1, 79744, Note_on_c, 0, 52, 0
1, 79747, Note_on_c, 0, 50, 60
1, 79838, Note_on_c, 0, 71, 0
1, 79838, Note_on_c, 0, 67, 72
1, 79932, Note_on_c, 0, 67, 0
1, 79932, Note_on_c, 0, 76, 76
1, 79932, Note_on_c, 0, 50, 0
1, 79935, Note_on_c, 0, 48, 66
1, 80493, Note_on_c, 0, 76, 0
1, 80493, Note_on_c, 0, 76, 71
1, 80680, Note_on_c, 0, 76, 0
1, 80680, Note_on_c, 0, 74, 75
1, 80680, Note_on_c, 0, 48, 0
1, 80683, Note_on_c, 0, 50, 60
1, 81242, Note_on_c, 0, 74, 0
1, 81242, Note_on_c, 0, 72, 71
1, 81429, Note_on_c, 0, 72, 0
1, 81429, Note_on_c, 0, 71, 75
1, 81429, Note_on_c, 0, 50, 0
1, 81432, Note_on_c, 0, 55, 66
1, 81991, Note_on_c, 0, 71, 0
1, 81991, Note_on_c, 0, 73, 71
1, 81991, Note_on_c, 0, 55, 0
1, 81994, Note_on_c, 0, 57, 49
1, 82178, Note_on_c, 0, 73, 0
1, 82178, Note_on_c, 0, 74, 74
1, 82178, Note_on_c, 0, 62, 67
1, 82181, Note_on_c, 0, 57, 0
1, 82181, Note_on_c, 0, 59, 54
1, 82272, Note_on_c, 0, 62, 0
1, 82272, Note_on_c, 0, 64, 67
1, 82365, Note_on_c, 0, 64, 0
1, 82365, Note_on_c, 0, 66, 67
1, 82459, Note_on_c, 0, 66, 0
1, 82459, Note_on_c, 0, 67, 67
1, 82552, Note_on_c, 0, 67, 0
1, 82552, Note_on_c, 0, 66, 67
1, 82646, Note_on_c, 0, 66, 0
1, 82646, Note_on_c, 0, 64, 67
1, 82740, Note_on_c, 0, 64, 0
1, 82740, Note_on_c, 0, 66, 67
1, 82740, Note_on_c, 0, 59, 0
1, 82743, Note_on_c, 0, 57, 49
1, 82833, Note_on_c, 0, 66, 0
1, 82833, Note_on_c, 0, 62, 67
1, 82927, Note_on_c, 0, 62, 0
1, 82927, Note_on_c, 0, 71, 73
1, 82927, Note_on_c, 0, 57, 0
1, 82930, Note_on_c, 0, 55, 54
1, 83488, Note_on_c, 0, 71, 0
1, 83488, Note_on_c, 0, 71, 67
1, 83488, Note_on_c, 0, 55, 0
1, 83491, Note_on_c, 0, 52, 48
1, 83676, Note_on_c, 0, 74, 0
1, 83676, Note_on_c, 0, 73, 71
1, 83676, Note_on_c, 0, 71, 0
1, 83679, Note_on_c, 0, 69, 73
1, 83679, Note_on_c, 0, 52, 0
1, 83679, Note_on_c, 0, 57, 54
1, 84237, Note_on_c, 0, 69, 0
1, 84237, Note_on_c, 0, 67, 67
1, 84237, Note_on_c, 0, 57, 0
1, 84240, Note_on_c, 0, 45, 51
1, 84424, Note_on_c, 0, 73, 0
1, 84424, Note_on_c, 0, 74, 72
1, 84424, Note_on_c, 0, 67, 0
1, 84427, Note_on_c, 0, 66, 72
1, 84427, Note_on_c, 0, 45, 0
1, 84427, Note_on_c, 0, 47, 61
1, 84518, Note_on_c, 0, 47, 0
1, 84518, Note_on_c, 0, 49, 61
1, 84612, Note_on_c, 0, 49, 0
1, 84612, Note_on_c, 0, 50, 61
1, 84705, Note_on_c, 0, 50, 0
1, 84705, Note_on_c, 0, 52, 59
1, 84799, Note_on_c, 0, 52, 0
1, 84799, Note_on_c, 0, 50, 61
1, 84892, Note_on_c, 0, 50, 0
1, 84892, Note_on_c, 0, 49, 61
1, 84986, Note_on_c, 0, 66, 0
1, 84986, Note_on_c, 0, 69, 55
1, 84986, Note_on_c, 0, 49, 0
1, 84989, Note_on_c, 0, 50, 61
1, 85080, Note_on_c, 0, 50, 0
1, 85080, Note_on_c, 0, 47, 61
1, 85173, Note_on_c, 0, 74, 0
1, 85173, Note_on_c, 0, 74, 71
1, 85173, Note_on_c, 0, 69, 0
1, 85176, Note_on_c, 0, 74, 61
1, 85176, Note_on_c, 0, 47, 0
1, 85176, Note_on_c, 0, 59, 65
1, 85267, Note_on_c, 0, 74, 0
1, 85267, Note_on_c, 0, 76, 71
1, 85360, Note_on_c, 0, 76, 0
1, 85360, Note_on_c, 0, 78, 71
1, 85454, Note_on_c, 0, 78, 0
1, 85454, Note_on_c, 0, 79, 71
1, 85548, Note_on_c, 0, 79, 0
1, 85548, Note_on_c, 0, 78, 71
1, 85641, Note_on_c, 0, 78, 0
1, 85641, Note_on_c, 0, 76, 71
1, 85735, Note_on_c, 0, 76, 0
1, 85735, Note_on_c, 0, 78, 71
1, 85735, Note_on_c, 0, 59, 0
1, 85738, Note_on_c, 0, 57, 50
1, 85828, Note_on_c, 0, 78, 0
1, 85828, Note_on_c, 0, 74, 71
1, 85922, Note_on_c, 0, 74, 0
1, 85922, Note_on_c, 0, 83, 76
1, 85922, Note_on_c, 0, 57, 0
1, 85925, Note_on_c, 0, 55, 53
1, 86484, Note_on_c, 0, 83, 0
1, 86484, Note_on_c, 0, 83, 71
1, 86484, Note_on_c, 0, 55, 0
1, 86487, Note_on_c, 0, 52, 48
1, 86671, Note_on_c, 0, 83, 0
1, 86671, Note_on_c, 0, 81, 76
1, 86671, Note_on_c, 0, 74, 0
1, 86674, Note_on_c, 0, 72, 61
1, 86674, Note_on_c, 0, 52, 0
1, 86674, Note_on_c, 0, 57, 53
1, 87232, Note_on_c, 0, 81, 0
1, 87232, Note_on_c, 0, 79, 71
1, 87232, Note_on_c, 0, 57, 0
1, 87235, Note_on_c, 0, 45, 48
1, 87420, Note_on_c, 0, 79, 0
1, 87420, Note_on_c, 0, 78, 76
1, 87420, Note_on_c, 0, 45, 0
1, 87423, Note_on_c, 0, 50, 56
1, 87981, Note_on_c, 0, 78, 0
1, 87981, Note_on_c, 0, 74, 71
1, 88044, Note_on_c, 0, 74, 0
1, 88044, Note_on_c, 0, 76, 71
1, 88106, Note_on_c, 0, 76, 0
1, 88106, Note_on_c, 0, 78, 71
1, 88168, Note_on_c, 0, 78, 0
1, 88168, Note_on_c, 0, 79, 76
1, 88168, Note_on_c, 0, 72, 0
1, 88171, Note_on_c, 0, 71, 61
1, 88171, Note_on_c, 0, 55, 65
1, 88171, Note_on_c, 0, 50, 0
1, 88174, Note_on_c, 0, 52, 52
1, 88262, Note_on_c, 0, 55, 0
1, 88262, Note_on_c, 0, 57, 65
1, 88356, Note_on_c, 0, 57, 0
1, 88356, Note_on_c, 0, 59, 65
1, 88449, Note_on_c, 0, 59, 0
1, 88449, Note_on_c, 0, 60, 65
1, 88543, Note_on_c, 0, 60, 0
1, 88543, Note_on_c, 0, 59, 65
1, 88636, Note_on_c, 0, 59, 0
1, 88636, Note_on_c, 0, 57, 65
1, 88730, Note_on_c, 0, 79, 0
1, 88730, Note_on_c, 0, 79, 73
1, 88730, Note_on_c, 0, 57, 0
1, 88733, Note_on_c, 0, 59, 65
1, 88824, Note_on_c, 0, 59, 0
1, 88824, Note_on_c, 0, 55, 65
1, 88917, Note_on_c, 0, 79, 0
1, 88917, Note_on_c, 0, 79, 75
1, 88917, Note_on_c, 0, 71, 0
1, 88920, Note_on_c, 0, 69, 61
1, 88920, Note_on_c, 0, 55, 0
1, 88920, Note_on_c, 0, 64, 70
1, 88923, Note_on_c, 0, 52, 0
1, 88923, Note_on_c, 0, 60, 52
1, 89479, Note_on_c, 0, 79, 0
1, 89479, Note_on_c, 0, 81, 73
1, 89479, Note_on_c, 0, 64, 0
1, 89482, Note_on_c, 0, 64, 66
1, 89482, Note_on_c, 0, 60, 0
1, 89482, Note_on_c, 0, 57, 52
1, 89666, Note_on_c, 0, 81, 0
1, 89666, Note_on_c, 0, 78, 76
1, 89666, Note_on_c, 0, 64, 0
1, 89669, Note_on_c, 0, 62, 70
1, 89669, Note_on_c, 0, 57, 0
1, 90228, Note_on_c, 0, 78, 0
1, 90228, Note_on_c, 0, 78, 72
1, 90228, Note_on_c, 0, 62, 0
1, 90231, Note_on_c, 0, 60, 66
1, 90231, Note_on_c, 0, 50, 52
1, 90415, Note_on_c, 0, 78, 0
1, 90415, Note_on_c, 0, 78, 72
1, 90415, Note_on_c, 0, 69, 0
1, 90418, Note_on_c, 0, 67, 61
1, 90418, Note_on_c, 0, 60, 0
1, 90418, Note_on_c, 0, 59, 71
1, 90421, Note_on_c, 0, 50, 0
1, 90421, Note_on_c, 0, 55, 57
1, 90976, Note_on_c, 0, 78, 0
1, 90976, Note_on_c, 0, 76, 67
1, 91070, Note_on_c, 0, 76, 0
1, 91070, Note_on_c, 0, 75, 67
1, 91164, Note_on_c, 0, 75, 0
1, 91164, Note_on_c, 0, 76, 73
1, 91164, Note_on_c, 0, 67, 0
1, 91167, Note_on_c, 0, 71, 61
1, 91167, Note_on_c, 0, 59, 0
1, 91167, Note_on_c, 0, 67, 58
1, 91170, Note_on_c, 0, 55, 0
1, 91170, Note_on_c, 0, 40, 66
1, 91257, Note_on_c, 0, 40, 0
1, 91257, Note_on_c, 0, 42, 66
1, 91351, Note_on_c, 0, 42, 0
1, 91351, Note_on_c, 0, 43, 66
1, 91444, Note_on_c, 0, 43, 0
1, 91444, Note_on_c, 0, 45, 66
1, 91538, Note_on_c, 0, 45, 0
1, 91538, Note_on_c, 0, 43, 66
1, 91632, Note_on_c, 0, 43, 0
1, 91632, Note_on_c, 0, 42, 66
1, 91725, Note_on_c, 0, 42, 0
1, 91725, Note_on_c, 0, 43, 66
1, 91819, Note_on_c, 0, 43, 0
1, 91819, Note_on_c, 0, 40, 66
1, 91912, Note_on_c, 0, 71, 0
1, 91912, Note_on_c, 0, 69, 61
1, 91912, Note_on_c, 0, 67, 0
1, 91915, Note_on_c, 0, 66, 58
1, 91915, Note_on_c, 0, 40, 0
1, 91915, Note_on_c, 0, 48, 72
1, 92474, Note_on_c, 0, 76, 0
1, 92474, Note_on_c, 0, 75, 67
1, 92474, Note_on_c, 0, 48, 0
1, 92477, Note_on_c, 0, 48, 57
1, 92661, Note_on_c, 0, 75, 0
1, 92661, Note_on_c, 0, 76, 72
1, 92661, Note_on_c, 0, 48, 0
1, 92664, Note_on_c, 0, 47, 61
1, 93223, Note_on_c, 0, 76, 0
1, 93223, Note_on_c, 0, 78, 66
1, 93223, Note_on_c, 0, 47, 0
1, 93226, Note_on_c, 0, 45, 56
1, 93410, Note_on_c, 0, 78, 0
1, 93410, Note_on_c, 0, 71, 71
1, 93410, Note_on_c, 0, 45, 0
1, 93413, Note_on_c, 0, 43, 61
1, 93972, Note_on_c, 0, 71, 0
1, 93972, Note_on_c, 0, 72, 64
1, 93972, Note_on_c, 0, 43, 0
1, 93975, Note_on_c, 0, 42, 56
1, 94065, Note_on_c, 0, 72, 0
1, 94065, Note_on_c, 0, 69, 64
1, 94159, Note_on_c, 0, 69, 0
1, 94159, Note_on_c, 0, 71, 67
1, 94159, Note_on_c, 0, 69, 0
1, 94162, Note_on_c, 0, 67, 60
1, 94162, Note_on_c, 0, 66, 0
1, 94162, Note_on_c, 0, 64, 61
1, 94165, Note_on_c, 0, 42, 0
1, 94165, Note_on_c, 0, 43, 60
1, 94720, Note_on_c, 0, 71, 0
1, 94720, Note_on_c, 0, 72, 62
1, 94720, Note_on_c, 0, 67, 0
1, 94723, Note_on_c, 0, 64, 55
1, 94723, Note_on_c, 0, 64, 0
1, 94723, Note_on_c, 0, 54, 57
1, 94726, Note_on_c, 0, 43, 0
1, 94726, Note_on_c, 0, 45, 55
1, 94906, Note_on_c, 0, 64, 0
1, 94906, Note_on_c, 0, 72, 0
1, 94906, Note_on_c, 0, 67, 68
1, 94906, Note_on_c, 0, 64, 60
1, 94906, Note_on_c, 0, 54, 0
1, 94906, Note_on_c, 0, 55, 60
1, 94906, Note_on_c, 0, 45, 0
1, 94906, Note_on_c, 0, 47, 60
1, 95484, Note_on_c, 0, 55, 0
1, 95484, Note_on_c, 0, 57, 57
1, 95676, Note_on_c, 0, 67, 0
1, 95676, Note_on_c, 0, 66, 64
1, 95676, Note_on_c, 0, 64, 0
1, 95679, Note_on_c, 0, 63, 55
1, 95679, Note_on_c, 0, 57, 0
1, 95679, Note_on_c, 0, 59, 60
1, 96277, Note_on_c, 0, 59, 0
1, 96277, Note_on_c, 0, 57, 57
1, 96478, Note_on_c, 0, 66, 0
1, 96478, Note_on_c, 0, 64, 63
1, 96478, Note_on_c, 0, 63, 0
1, 96481, Note_on_c, 0, 64, 61
1, 96481, Note_on_c, 0, 57, 0
1, 96481, Note_on_c, 0, 55, 60
1, 96484, Note_on_c, 0, 47, 0
1, 96484, Note_on_c, 0, 52, 61
1, 96572, Note_on_c, 0, 64, 0
1, 96572, Note_on_c, 0, 66, 63
1, 96665, Note_on_c, 0, 66, 0
1, 96665, Note_on_c, 0, 67, 63
1, 96759, Note_on_c, 0, 67, 0
1, 96759, Note_on_c, 0, 69, 63
1, 96852, Note_on_c, 0, 69, 0
1, 96852, Note_on_c, 0, 67, 63
1, 96946, Note_on_c, 0, 67, 0
1, 96946, Note_on_c, 0, 66, 63
1, 97040, Note_on_c, 0, 66, 0
1, 97040, Note_on_c, 0, 67, 63
1, 97133, Note_on_c, 0, 67, 0
1, 97133, Note_on_c, 0, 64, 63
1, 97227, Note_on_c, 0, 64, 0
1, 97227, Note_on_c, 0, 79, 69
1, 97227, Note_on_c, 0, 64, 0
1, 97230, Note_on_c, 0, 55, 0
1, 97230, Note_on_c, 0, 52, 0
1, 97230, Note_on_c, 0, 59, 55
1, 97414, Note_on_c, 0, 59, 0
1, 97414, Note_on_c, 0, 57, 51
1, 97601, Note_on_c, 0, 79, 0
1, 97601, Note_on_c, 0, 57, 0
1, 97601, Note_on_c, 0, 59, 55
1, 97788, Note_on_c, 0, 59, 0
1, 97788, Note_on_c, 0, 55, 51
1, 97976, Note_on_c, 0, 64, 57
1, 97976, Note_on_c, 0, 59, 57
1, 97976, Note_on_c, 0, 55, 0
1, 97979, Note_on_c, 0, 55, 55
1, 98163, Note_on_c, 0, 55, 0
1, 98163, Note_on_c, 0, 54, 51
1, 98350, Note_on_c, 0, 54, 0
1, 98350, Note_on_c, 0, 55, 55
1, 98537, Note_on_c, 0, 64, 0
1, 98537, Note_on_c, 0, 61, 53
1, 98537, Note_on_c, 0, 59, 0
1, 98540, Note_on_c, 0, 55, 53
1, 98540, Note_on_c, 0, 55, 0
1, 98540, Note_on_c, 0, 52, 50
1, 98718, Note_on_c, 0, 61, 0
1, 98718, Note_on_c, 0, 55, 0
1, 98718, Note_on_c, 0, 61, 57
1, 98718, Note_on_c, 0, 55, 57
1, 98718, Note_on_c, 0, 52, 0
1, 98718, Note_on_c, 0, 52, 55
1, 98902, Note_on_c, 0, 52, 0
1, 98902, Note_on_c, 0, 50, 50
1, 99085, Note_on_c, 0, 50, 0
1, 99085, Note_on_c, 0, 52, 55
1, 99268, Note_on_c, 0, 61, 0
1, 99268, Note_on_c, 0, 57, 53
1, 99268, Note_on_c, 0, 55, 0
1, 99271, Note_on_c, 0, 52, 53
1, 99271, Note_on_c, 0, 52, 0
1, 99271, Note_on_c, 0, 49, 50
1, 99466, Note_on_c, 0, 69, 63
1, 99466, Note_on_c, 0, 57, 0
1, 99466, Note_on_c, 0, 57, 57
1, 99469, Note_on_c, 0, 52, 0
1, 99469, Note_on_c, 0, 52, 57
1, 99469, Note_on_c, 0, 49, 0
1, 99472, Note_on_c, 0, 49, 55
1, 99560, Note_on_c, 0, 69, 0
1, 99560, Note_on_c, 0, 71, 63
1, 99654, Note_on_c, 0, 71, 0
1, 99654, Note_on_c, 0, 73, 63
1, 99747, Note_on_c, 0, 73, 0
1, 99747, Note_on_c, 0, 74, 63
1, 99841, Note_on_c, 0, 74, 0
1, 99841, Note_on_c, 0, 73, 63
1, 99934, Note_on_c, 0, 73, 0
1, 99934, Note_on_c, 0, 71, 63
1, 100028, Note_on_c, 0, 71, 0
1, 100028, Note_on_c, 0, 73, 63
1, 100122, Note_on_c, 0, 73, 0
1, 100122, Note_on_c, 0, 69, 63
1, 100215, Note_on_c, 0, 69, 0
1, 100215, Note_on_c, 0, 78, 68
1, 100215, Note_on_c, 0, 57, 0
1, 100218, Note_on_c, 0, 52, 0
1, 100218, Note_on_c, 0, 49, 0
1, 100218, Note_on_c, 0, 57, 55
1, 100402, Note_on_c, 0, 57, 0
1, 100402, Note_on_c, 0, 55, 50
1, 100590, Note_on_c, 0, 78, 0
1, 100590, Note_on_c, 0, 55, 0
1, 100590, Note_on_c, 0, 57, 55
1, 100777, Note_on_c, 0, 57, 0
1, 100777, Note_on_c, 0, 54, 50
1, 100964, Note_on_c, 0, 62, 57
1, 100964, Note_on_c, 0, 57, 57
1, 100964, Note_on_c, 0, 54, 0
1, 100967, Note_on_c, 0, 54, 55
1, 101151, Note_on_c, 0, 54, 0
1, 101151, Note_on_c, 0, 52, 50
1, 101338, Note_on_c, 0, 52, 0
1, 101338, Note_on_c, 0, 54, 55
1, 101526, Note_on_c, 0, 62, 0
1, 101526, Note_on_c, 0, 59, 53
1, 101526, Note_on_c, 0, 57, 0
1, 101529, Note_on_c, 0, 54, 54
1, 101529, Note_on_c, 0, 54, 0
1, 101529, Note_on_c, 0, 50, 50
1, 101711, Note_on_c, 0, 59, 0
1, 101711, Note_on_c, 0, 54, 0
1, 101711, Note_on_c, 0, 59, 57
1, 101711, Note_on_c, 0, 54, 57
1, 101711, Note_on_c, 0, 50, 0
1, 101711, Note_on_c, 0, 50, 55
1, 101899, Note_on_c, 0, 50, 0
1, 101899, Note_on_c, 0, 49, 50
1, 102083, Note_on_c, 0, 49, 0
1, 102083, Note_on_c, 0, 50, 55
1, 102266, Note_on_c, 0, 59, 0
1, 102266, Note_on_c, 0, 55, 52
1, 102266, Note_on_c, 0, 54, 0
1, 102269, Note_on_c, 0, 50, 54
1, 102269, Note_on_c, 0, 50, 0
1, 102269, Note_on_c, 0, 47, 51
1, 102458, Note_on_c, 0, 67, 64
1, 102458, Note_on_c, 0, 55, 0
1, 102458, Note_on_c, 0, 55, 57
1, 102461, Note_on_c, 0, 50, 0
1, 102461, Note_on_c, 0, 50, 57
1, 102461, Note_on_c, 0, 47, 0
1, 102464, Note_on_c, 0, 47, 55
1, 102552, Note_on_c, 0, 67, 0
1, 102552, Note_on_c, 0, 69, 64
1, 102645, Note_on_c, 0, 69, 0
1, 102645, Note_on_c, 0, 71, 64
1, 102739, Note_on_c, 0, 71, 0
1, 102739, Note_on_c, 0, 72, 64
1, 102832, Note_on_c, 0, 72, 0
1, 102832, Note_on_c, 0, 71, 64
1, 102926, Note_on_c, 0, 71, 0
1, 102926, Note_on_c, 0, 69, 64
1, 103020, Note_on_c, 0, 69, 0
1, 103020, Note_on_c, 0, 71, 64
1, 103113, Note_on_c, 0, 71, 0
1, 103113, Note_on_c, 0, 67, 64
1, 103207, Note_on_c, 0, 67, 0
1, 103207, Note_on_c, 0, 76, 69
1, 103207, Note_on_c, 0, 55, 0
1, 103210, Note_on_c, 0, 50, 0
1, 103210, Note_on_c, 0, 47, 0
1, 103210, Note_on_c, 0, 55, 55
1, 103394, Note_on_c, 0, 55, 0
1, 103394, Note_on_c, 0, 54, 51
1, 103581, Note_on_c, 0, 76, 0
1, 103581, Note_on_c, 0, 54, 0
1, 103581, Note_on_c, 0, 55, 55
1, 103768, Note_on_c, 0, 55, 0
1, 103768, Note_on_c, 0, 52, 51
1, 103953, Note_on_c, 0, 61, 57
1, 103953, Note_on_c, 0, 55, 57
1, 103953, Note_on_c, 0, 52, 0
1, 103956, Note_on_c, 0, 52, 55
1, 104137, Note_on_c, 0, 52, 0
1, 104137, Note_on_c, 0, 50, 51
1, 104321, Note_on_c, 0, 50, 0
1, 104321, Note_on_c, 0, 52, 55
1, 104505, Note_on_c, 0, 61, 0
1, 104505, Note_on_c, 0, 57, 55
1, 104505, Note_on_c, 0, 55, 0
1, 104508, Note_on_c, 0, 52, 54
1, 104508, Note_on_c, 0, 52, 0
1, 104508, Note_on_c, 0, 49, 51
1, 104688, Note_on_c, 0, 57, 0
1, 104688, Note_on_c, 0, 52, 0
1, 104688, Note_on_c, 0, 57, 57
1, 104688, Note_on_c, 0, 52, 57
1, 104688, Note_on_c, 0, 49, 0
1, 104688, Note_on_c, 0, 49, 55
1, 104873, Note_on_c, 0, 49, 0
1, 104873, Note_on_c, 0, 47, 51
1, 105057, Note_on_c, 0, 47, 0
1, 105057, Note_on_c, 0, 49, 55
1, 105242, Note_on_c, 0, 57, 0
1, 105242, Note_on_c, 0, 54, 54
1, 105242, Note_on_c, 0, 52, 0
1, 105245, Note_on_c, 0, 49, 54
1, 105245, Note_on_c, 0, 49, 0
1, 105245, Note_on_c, 0, 45, 51
1, 105435, Note_on_c, 0, 54, 0
1, 105435, Note_on_c, 0, 49, 0
1, 105435, Note_on_c, 0, 66, 64
1, 105435, Note_on_c, 0, 54, 51
1, 105435, Note_on_c, 0, 49, 51
1, 105435, Note_on_c, 0, 45, 0
1, 105435, Note_on_c, 0, 45, 49
1, 105530, Note_on_c, 0, 66, 0
1, 105530, Note_on_c, 0, 67, 64
1, 105624, Note_on_c, 0, 67, 0
1, 105624, Note_on_c, 0, 69, 64
1, 105718, Note_on_c, 0, 69, 0
1, 105718, Note_on_c, 0, 71, 64
1, 105811, Note_on_c, 0, 71, 0
1, 105811, Note_on_c, 0, 69, 64
1, 105905, Note_on_c, 0, 69, 0
1, 105905, Note_on_c, 0, 67, 64
1, 105998, Note_on_c, 0, 67, 0
1, 105998, Note_on_c, 0, 69, 64
1, 106092, Note_on_c, 0, 69, 0
1, 106092, Note_on_c, 0, 66, 64
1, 106186, Note_on_c, 0, 66, 0
1, 106186, Note_on_c, 0, 74, 69
1, 106186, Note_on_c, 0, 54, 0
1, 106189, Note_on_c, 0, 59, 62
1, 106189, Note_on_c, 0, 49, 0
1, 106189, Note_on_c, 0, 45, 0
1, 106279, Note_on_c, 0, 59, 0
1, 106279, Note_on_c, 0, 61, 62
1, 106373, Note_on_c, 0, 61, 0
1, 106373, Note_on_c, 0, 62, 62
1, 106466, Note_on_c, 0, 62, 0
1, 106466, Note_on_c, 0, 64, 62
1, 106560, Note_on_c, 0, 64, 0
1, 106560, Note_on_c, 0, 62, 62
1, 106654, Note_on_c, 0, 62, 0
1, 106654, Note_on_c, 0, 61, 62
1, 106747, Note_on_c, 0, 74, 0
1, 106747, Note_on_c, 0, 74, 64
1, 106747, Note_on_c, 0, 61, 0
1, 106750, Note_on_c, 0, 62, 62
1, 106841, Note_on_c, 0, 62, 0
1, 106841, Note_on_c, 0, 59, 62
1, 106934, Note_on_c, 0, 74, 0
1, 106934, Note_on_c, 0, 74, 68
1, 106934, Note_on_c, 0, 59, 0
1, 106937, Note_on_c, 0, 67, 67
1, 106937, Note_on_c, 0, 52, 59
1, 107028, Note_on_c, 0, 52, 0
1, 107028, Note_on_c, 0, 54, 59
1, 107122, Note_on_c, 0, 54, 0
1, 107122, Note_on_c, 0, 55, 59
1, 107215, Note_on_c, 0, 55, 0
1, 107215, Note_on_c, 0, 57, 59
1, 107309, Note_on_c, 0, 57, 0
1, 107309, Note_on_c, 0, 55, 59
1, 107402, Note_on_c, 0, 55, 0
1, 107402, Note_on_c, 0, 54, 59
1, 107496, Note_on_c, 0, 74, 0
1, 107496, Note_on_c, 0, 76, 64
1, 107496, Note_on_c, 0, 54, 0
1, 107499, Note_on_c, 0, 55, 59
1, 107590, Note_on_c, 0, 55, 0
1, 107590, Note_on_c, 0, 52, 59
1, 107683, Note_on_c, 0, 76, 0
1, 107683, Note_on_c, 0, 73, 68
1, 107683, Note_on_c, 0, 52, 0
1, 107686, Note_on_c, 0, 57, 63
1, 107746, Note_on_c, 0, 73, 0
1, 107746, Note_on_c, 0, 74, 60
1, 107777, Note_on_c, 0, 59, 60
1, 107808, Note_on_c, 0, 74, 0
1, 107808, Note_on_c, 0, 73, 68
1, 107870, Note_on_c, 0, 59, 0
1, 107870, Note_on_c, 0, 61, 60
1, 107964, Note_on_c, 0, 61, 0
1, 107964, Note_on_c, 0, 62, 60
1, 108058, Note_on_c, 0, 62, 0
1, 108058, Note_on_c, 0, 61, 60
1, 108151, Note_on_c, 0, 61, 0
1, 108151, Note_on_c, 0, 59, 60
1, 108245, Note_on_c, 0, 73, 0
1, 108245, Note_on_c, 0, 74, 64
1, 108245, Note_on_c, 0, 59, 0
1, 108248, Note_on_c, 0, 61, 60
1, 108338, Note_on_c, 0, 74, 0
1, 108338, Note_on_c, 0, 76, 64
1, 108338, Note_on_c, 0, 61, 0
1, 108341, Note_on_c, 0, 57, 60
1, 108432, Note_on_c, 0, 76, 0
1, 108432, Note_on_c, 0, 78, 69
1, 108432, Note_on_c, 0, 67, 0
1, 108435, Note_on_c, 0, 66, 65
1, 108435, Note_on_c, 0, 57, 0
1, 108435, Note_on_c, 0, 62, 65
1, 108438, Note_on_c, 0, 57, 0
1, 108438, Note_on_c, 0, 50, 62
1, 108526, Note_on_c, 0, 50, 0
1, 108526, Note_on_c, 0, 52, 62
1, 108619, Note_on_c, 0, 52, 0
1, 108619, Note_on_c, 0, 54, 62
1, 108713, Note_on_c, 0, 54, 0
1, 108713, Note_on_c, 0, 55, 62
1, 108806, Note_on_c, 0, 55, 0
1, 108806, Note_on_c, 0, 54, 62
1, 108900, Note_on_c, 0, 54, 0
1, 108900, Note_on_c, 0, 52, 62
1, 108994, Note_on_c, 0, 52, 0
1, 108994, Note_on_c, 0, 54, 62
1, 109087, Note_on_c, 0, 54, 0
1, 109087, Note_on_c, 0, 50, 62
1, 109181, Note_on_c, 0, 78, 0
1, 109181, Note_on_c, 0, 83, 72
1, 109181, Note_on_c, 0, 66, 0
1, 109184, Note_on_c, 0, 62, 0
1, 109184, Note_on_c, 0, 50, 0
1, 109184, Note_on_c, 0, 55, 65
1, 109368, Note_on_c, 0, 83, 0
1, 109368, Note_on_c, 0, 81, 70
1, 109555, Note_on_c, 0, 81, 0
1, 109555, Note_on_c, 0, 83, 72
1, 109555, Note_on_c, 0, 55, 0
1, 109742, Note_on_c, 0, 83, 0
1, 109742, Note_on_c, 0, 79, 69
1, 109928, Note_on_c, 0, 79, 0
1, 109928, Note_on_c, 0, 79, 71
1, 109928, Note_on_c, 0, 74, 55
1, 109931, Note_on_c, 0, 71, 54
1, 110114, Note_on_c, 0, 79, 0
1, 110114, Note_on_c, 0, 78, 69
1, 110299, Note_on_c, 0, 78, 0
1, 110299, Note_on_c, 0, 79, 72
1, 110485, Note_on_c, 0, 79, 0
1, 110485, Note_on_c, 0, 76, 67
1, 110485, Note_on_c, 0, 74, 0
1, 110488, Note_on_c, 0, 71, 52
1, 110488, Note_on_c, 0, 71, 0
1, 110488, Note_on_c, 0, 67, 50
1, 110668, Note_on_c, 0, 71, 0
1, 110668, Note_on_c, 0, 67, 0
1, 110668, Note_on_c, 0, 76, 0
1, 110668, Note_on_c, 0, 76, 69
1, 110668, Note_on_c, 0, 71, 55
1, 110668, Note_on_c, 0, 67, 54
1, 110853, Note_on_c, 0, 76, 0
1, 110853, Note_on_c, 0, 74, 67
1, 111036, Note_on_c, 0, 74, 0
1, 111036, Note_on_c, 0, 76, 68
1, 111220, Note_on_c, 0, 76, 0
1, 111220, Note_on_c, 0, 73, 64
1, 111220, Note_on_c, 0, 71, 0
1, 111223, Note_on_c, 0, 69, 52
1, 111223, Note_on_c, 0, 67, 0
1, 111223, Note_on_c, 0, 64, 50
1, 111404, Note_on_c, 0, 69, 0
1, 111404, Note_on_c, 0, 73, 0
1, 111404, Note_on_c, 0, 73, 68
1, 111404, Note_on_c, 0, 64, 55
1, 111404, Note_on_c, 0, 69, 55
1, 111404, Note_on_c, 0, 64, 0
1, 111404, Note_on_c, 0, 55, 54
1, 111404, Note_on_c, 0, 43, 54
1, 112155, Note_on_c, 0, 73, 0
1, 112155, Note_on_c, 0, 74, 64
1, 112155, Note_on_c, 0, 69, 0
1, 112158, Note_on_c, 0, 64, 0
1, 112158, Note_on_c, 0, 69, 49
1, 112158, Note_on_c, 0, 55, 0
1, 112161, Note_on_c, 0, 66, 48
1, 112161, Note_on_c, 0, 43, 0
1, 112161, Note_on_c, 0, 54, 62
1, 112248, Note_on_c, 0, 54, 0
1, 112248, Note_on_c, 0, 55, 62
1, 112342, Note_on_c, 0, 55, 0
1, 112342, Note_on_c, 0, 57, 62
1, 112435, Note_on_c, 0, 57, 0
1, 112435, Note_on_c, 0, 55, 62
1, 112529, Note_on_c, 0, 55, 0
1, 112529, Note_on_c, 0, 54, 62
1, 112623, Note_on_c, 0, 54, 0
1, 112623, Note_on_c, 0, 52, 62
1, 112716, Note_on_c, 0, 74, 0
1, 112716, Note_on_c, 0, 74, 61
1, 112716, Note_on_c, 0, 69, 0
1, 112719, Note_on_c, 0, 69, 46
1, 112719, Note_on_c, 0, 66, 0
1, 112719, Note_on_c, 0, 66, 45
1, 112722, Note_on_c, 0, 52, 0
1, 112722, Note_on_c, 0, 50, 62
1, 112810, Note_on_c, 0, 50, 0
1, 112810, Note_on_c, 0, 49, 62
1, 112903, Note_on_c, 0, 74, 0
1, 112903, Note_on_c, 0, 74, 66
1, 112903, Note_on_c, 0, 69, 0
1, 112906, Note_on_c, 0, 71, 49
1, 112906, Note_on_c, 0, 66, 0
1, 112906, Note_on_c, 0, 66, 48
1, 112909, Note_on_c, 0, 49, 0
1, 112909, Note_on_c, 0, 47, 62
1, 112997, Note_on_c, 0, 47, 0
1, 112997, Note_on_c, 0, 49, 62
1, 113091, Note_on_c, 0, 49, 0
1, 113091, Note_on_c, 0, 50, 62
1, 113184, Note_on_c, 0, 50, 0
1, 113184, Note_on_c, 0, 49, 62
1, 113278, Note_on_c, 0, 49, 0
1, 113278, Note_on_c, 0, 47, 62
1, 113371, Note_on_c, 0, 47, 0
1, 113371, Note_on_c, 0, 45, 62
1, 113465, Note_on_c, 0, 74, 0
1, 113465, Note_on_c, 0, 76, 61
1, 113465, Note_on_c, 0, 71, 0
1, 113468, Note_on_c, 0, 71, 46
1, 113468, Note_on_c, 0, 66, 0
1, 113468, Note_on_c, 0, 67, 45
1, 113471, Note_on_c, 0, 45, 0
1, 113471, Note_on_c, 0, 47, 62
1, 113559, Note_on_c, 0, 47, 0
1, 113559, Note_on_c, 0, 43, 62
1, 113652, Note_on_c, 0, 76, 0
1, 113652, Note_on_c, 0, 73, 66
1, 113652, Note_on_c, 0, 71, 0
1, 113655, Note_on_c, 0, 69, 49
1, 113655, Note_on_c, 0, 67, 0
1, 113655, Note_on_c, 0, 64, 48
1, 113658, Note_on_c, 0, 43, 0
1, 113658, Note_on_c, 0, 45, 66
1, 113718, Note_on_c, 0, 73, 0
1, 113718, Note_on_c, 0, 74, 66
1, 113784, Note_on_c, 0, 74, 0
1, 113784, Note_on_c, 0, 73, 66
1, 113849, Note_on_c, 0, 73, 0
1, 113849, Note_on_c, 0, 74, 66
1, 113915, Note_on_c, 0, 74, 0
1, 113915, Note_on_c, 0, 73, 66
1, 113981, Note_on_c, 0, 73, 0
1, 113981, Note_on_c, 0, 74, 66
1, 114046, Note_on_c, 0, 74, 0
1, 114046, Note_on_c, 0, 73, 66
1, 114243, Note_on_c, 0, 73, 0
1, 114243, Note_on_c, 0, 74, 61
1, 114243, Note_on_c, 0, 45, 0
1, 114246, Note_on_c, 0, 45, 62
1, 114466, Note_on_c, 0, 74, 0
1, 114466, Note_on_c, 0, 74, 64
1, 114466, Note_on_c, 0, 69, 0
1, 114469, Note_on_c, 0, 69, 49
1, 114469, Note_on_c, 0, 64, 0
1, 114469, Note_on_c, 0, 66, 48
1, 114472, Note_on_c, 0, 45, 0
1, 114472, Note_on_c, 0, 38, 66
1, 115027, Note_on_c, 0, 38, 0
1, 115027, Note_on_c, 0, 50, 62
1, 115090, Note_on_c, 0, 50, 0
1, 115090, Note_on_c, 0, 52, 62
1, 115152, Note_on_c, 0, 52, 0
1, 115152, Note_on_c, 0, 54, 62
1, 115215, Note_on_c, 0, 74, 0
1, 115215, Note_on_c, 0, 71, 64
1, 115215, Note_on_c, 0, 69, 0
1, 115218, Note_on_c, 0, 66, 0
1, 115218, Note_on_c, 0, 54, 0
1, 115218, Note_on_c, 0, 55, 66
1, 115308, Note_on_c, 0, 71, 0
1, 115308, Note_on_c, 0, 73, 64
1, 115402, Note_on_c, 0, 73, 0
1, 115402, Note_on_c, 0, 74, 64
1, 115495, Note_on_c, 0, 74, 0
1, 115495, Note_on_c, 0, 76, 64
1, 115589, Note_on_c, 0, 76, 0
1, 115589, Note_on_c, 0, 74, 64
1, 115683, Note_on_c, 0, 74, 0
1, 115683, Note_on_c, 0, 73, 64
1, 115776, Note_on_c, 0, 73, 0
1, 115776, Note_on_c, 0, 74, 64
1, 115870, Note_on_c, 0, 74, 0
1, 115870, Note_on_c, 0, 71, 64
1, 115963, Note_on_c, 0, 71, 0
1, 115963, Note_on_c, 0, 76, 64
1, 115963, Note_on_c, 0, 71, 49
1, 115966, Note_on_c, 0, 64, 48
1, 115966, Note_on_c, 0, 55, 0
1, 115966, Note_on_c, 0, 49, 60
1, 116057, Note_on_c, 0, 49, 0
1, 116057, Note_on_c, 0, 50, 61
1, 116151, Note_on_c, 0, 50, 0
1, 116151, Note_on_c, 0, 52, 61
1, 116244, Note_on_c, 0, 52, 0
1, 116244, Note_on_c, 0, 54, 59
1, 116338, Note_on_c, 0, 54, 0
1, 116338, Note_on_c, 0, 52, 61
1, 116431, Note_on_c, 0, 52, 0
1, 116431, Note_on_c, 0, 50, 61
1, 116525, Note_on_c, 0, 50, 0
1, 116525, Note_on_c, 0, 52, 61
1, 116619, Note_on_c, 0, 52, 0
1, 116619, Note_on_c, 0, 49, 61
1, 116712, Note_on_c, 0, 76, 0
1, 116712, Note_on_c, 0, 69, 64
1, 116712, Note_on_c, 0, 71, 0
1, 116715, Note_on_c, 0, 64, 0
1, 116715, Note_on_c, 0, 49, 0
1, 116715, Note_on_c, 0, 54, 64
1, 116806, Note_on_c, 0, 69, 0
1, 116806, Note_on_c, 0, 71, 64
1, 116899, Note_on_c, 0, 71, 0
1, 116899, Note_on_c, 0, 73, 64
1, 116993, Note_on_c, 0, 73, 0
1, 116993, Note_on_c, 0, 74, 64
1, 117087, Note_on_c, 0, 74, 0
1, 117087, Note_on_c, 0, 73, 64
1, 117180, Note_on_c, 0, 73, 0
1, 117180, Note_on_c, 0, 71, 64
1, 117274, Note_on_c, 0, 71, 0
1, 117274, Note_on_c, 0, 73, 64
1, 117367, Note_on_c, 0, 73, 0
1, 117367, Note_on_c, 0, 69, 64
1, 117461, Note_on_c, 0, 69, 0
1, 117461, Note_on_c, 0, 74, 72
1, 117461, Note_on_c, 0, 69, 49
1, 117464, Note_on_c, 0, 62, 48
1, 117464, Note_on_c, 0, 54, 0
1, 117464, Note_on_c, 0, 47, 67
1, 117555, Note_on_c, 0, 47, 0
1, 117555, Note_on_c, 0, 49, 67
1, 117648, Note_on_c, 0, 49, 0
1, 117648, Note_on_c, 0, 50, 67
1, 117742, Note_on_c, 0, 50, 0
1, 117742, Note_on_c, 0, 52, 67
1, 117835, Note_on_c, 0, 52, 0
1, 117835, Note_on_c, 0, 50, 67
1, 117929, Note_on_c, 0, 50, 0
1, 117929, Note_on_c, 0, 49, 67
1, 118023, Note_on_c, 0, 49, 0
1, 118023, Note_on_c, 0, 50, 67
1, 118116, Note_on_c, 0, 50, 0
1, 118116, Note_on_c, 0, 47, 67
1, 118210, Note_on_c, 0, 74, 0
1, 118210, Note_on_c, 0, 67, 64
1, 118210, Note_on_c, 0, 69, 0
1, 118213, Note_on_c, 0, 62, 0
1, 118213, Note_on_c, 0, 47, 0
1, 118213, Note_on_c, 0, 52, 60
1, 118303, Note_on_c, 0, 67, 0
1, 118303, Note_on_c, 0, 69, 64
1, 118303, Note_on_c, 0, 52, 0
1, 118306, Note_on_c, 0, 54, 60
1, 118397, Note_on_c, 0, 69, 0
1, 118397, Note_on_c, 0, 71, 64
1, 118397, Note_on_c, 0, 54, 0
1, 118400, Note_on_c, 0, 55, 60
1, 118491, Note_on_c, 0, 71, 0
1, 118491, Note_on_c, 0, 72, 65
1, 118491, Note_on_c, 0, 55, 0
1, 118494, Note_on_c, 0, 57, 60
1, 118584, Note_on_c, 0, 72, 0
1, 118584, Note_on_c, 0, 71, 65
1, 118584, Note_on_c, 0, 57, 0
1, 118587, Note_on_c, 0, 55, 60
1, 118678, Note_on_c, 0, 71, 0
1, 118678, Note_on_c, 0, 69, 66
1, 118678, Note_on_c, 0, 55, 0
1, 118681, Note_on_c, 0, 54, 61
1, 118771, Note_on_c, 0, 69, 0
1, 118771, Note_on_c, 0, 71, 66
1, 118771, Note_on_c, 0, 54, 0
1, 118774, Note_on_c, 0, 55, 61
1, 118865, Note_on_c, 0, 71, 0
1, 118865, Note_on_c, 0, 67, 66
1, 118865, Note_on_c, 0, 55, 0
1, 118868, Note_on_c, 0, 52, 61
1, 118959, Note_on_c, 0, 67, 0
1, 118959, Note_on_c, 0, 73, 66
1, 118959, Note_on_c, 0, 52, 0
1, 118962, Note_on_c, 0, 57, 62
1, 119052, Note_on_c, 0, 73, 0
1, 119052, Note_on_c, 0, 74, 66
1, 119052, Note_on_c, 0, 57, 0
1, 119055, Note_on_c, 0, 59, 62
1, 119146, Note_on_c, 0, 74, 0
1, 119146, Note_on_c, 0, 76, 67
1, 119146, Note_on_c, 0, 59, 0
1, 119149, Note_on_c, 0, 61, 62
1, 119239, Note_on_c, 0, 76, 0
1, 119239, Note_on_c, 0, 78, 67
1, 119239, Note_on_c, 0, 61, 0
1, 119242, Note_on_c, 0, 62, 62
1, 119333, Note_on_c, 0, 78, 0
1, 119333, Note_on_c, 0, 76, 68
1, 119333, Note_on_c, 0, 62, 0
1, 119336, Note_on_c, 0, 61, 63
1, 119426, Note_on_c, 0, 76, 0
1, 119426, Note_on_c, 0, 74, 68
1, 119426, Note_on_c, 0, 61, 0
1, 119429, Note_on_c, 0, 59, 63
1, 119519, Note_on_c, 0, 74, 0
1, 119519, Note_on_c, 0, 76, 68
1, 119519, Note_on_c, 0, 59, 0
1, 119522, Note_on_c, 0, 61, 63
1, 119612, Note_on_c, 0, 76, 0
1, 119612, Note_on_c, 0, 73, 69
1, 119612, Note_on_c, 0, 61, 0
1, 119615, Note_on_c, 0, 57, 64
1, 119705, Note_on_c, 0, 73, 0
1, 119705, Note_on_c, 0, 78, 69
1, 119705, Note_on_c, 0, 57, 0
1, 119708, Note_on_c, 0, 62, 64
1, 119798, Note_on_c, 0, 78, 0
1, 119798, Note_on_c, 0, 79, 69
1, 119798, Note_on_c, 0, 62, 0
1, 119801, Note_on_c, 0, 64, 64
1, 119890, Note_on_c, 0, 79, 0
1, 119890, Note_on_c, 0, 81, 69
1, 119890, Note_on_c, 0, 64, 0
1, 119893, Note_on_c, 0, 66, 64
1, 119982, Note_on_c, 0, 81, 0
1, 119982, Note_on_c, 0, 83, 69
1, 119982, Note_on_c, 0, 66, 0
1, 119985, Note_on_c, 0, 67, 64
1, 120074, Note_on_c, 0, 83, 0
1, 120074, Note_on_c, 0, 81, 70
1, 120074, Note_on_c, 0, 67, 0
1, 120077, Note_on_c, 0, 66, 65
1, 120166, Note_on_c, 0, 81, 0
1, 120166, Note_on_c, 0, 79, 70
1, 120166, Note_on_c, 0, 66, 0
1, 120169, Note_on_c, 0, 64, 65
1, 120258, Note_on_c, 0, 79, 0
1, 120258, Note_on_c, 0, 81, 71
1, 120258, Note_on_c, 0, 64, 0
1, 120261, Note_on_c, 0, 66, 66
1, 120355, Note_on_c, 0, 81, 0
1, 120355, Note_on_c, 0, 78, 71
1, 120355, Note_on_c, 0, 66, 0
1, 120358, Note_on_c, 0, 62, 66
1, 120452, Note_on_c, 0, 78, 0
1, 120452, Note_on_c, 0, 83, 77
1, 120452, Note_on_c, 0, 62, 0
1, 120455, Note_on_c, 0, 67, 72
1, 121013, Note_on_c, 0, 83, 0
1, 121013, Note_on_c, 0, 73, 72
1, 121013, Note_on_c, 0, 69, 70
1, 121016, Note_on_c, 0, 64, 69
1, 121016, Note_on_c, 0, 67, 0
1, 121016, Note_on_c, 0, 55, 69
1, 121200, Note_on_c, 0, 73, 0
1, 121200, Note_on_c, 0, 74, 77
1, 121200, Note_on_c, 0, 69, 0
1, 121203, Note_on_c, 0, 69, 72
1, 121203, Note_on_c, 0, 64, 0
1, 121203, Note_on_c, 0, 66, 72
1, 121206, Note_on_c, 0, 55, 0
1, 121206, Note_on_c, 0, 54, 72
1, 121762, Note_on_c, 0, 74, 0
1, 121762, Note_on_c, 0, 76, 72
1, 121762, Note_on_c, 0, 69, 0
1, 121765, Note_on_c, 0, 73, 70
1, 121765, Note_on_c, 0, 66, 0
1, 121765, Note_on_c, 0, 67, 69
1, 121768, Note_on_c, 0, 54, 0
1, 121768, Note_on_c, 0, 52, 69
1, 121949, Note_on_c, 0, 76, 0
1, 121949, Note_on_c, 0, 78, 78
1, 121949, Note_on_c, 0, 73, 0
1, 121952, Note_on_c, 0, 74, 72
1, 121952, Note_on_c, 0, 67, 0
1, 121952, Note_on_c, 0, 69, 72
1, 121955, Note_on_c, 0, 52, 0
1, 121955, Note_on_c, 0, 50, 72
1, 122511, Note_on_c, 0, 78, 0
1, 122511, Note_on_c, 0, 66, 72
1, 122511, Note_on_c, 0, 74, 0
1, 122514, Note_on_c, 0, 62, 70
1, 122514, Note_on_c, 0, 69, 0
1, 122514, Note_on_c, 0, 57, 68
1, 122517, Note_on_c, 0, 50, 0
1, 122517, Note_on_c, 0, 48, 69
1, 122701, Note_on_c, 0, 62, 0
1, 122701, Note_on_c, 0, 66, 0
1, 122701, Note_on_c, 0, 67, 77
1, 122701, Note_on_c, 0, 62, 72
1, 122701, Note_on_c, 0, 57, 0
1, 122701, Note_on_c, 0, 59, 72
1, 122701, Note_on_c, 0, 48, 0
1, 122701, Note_on_c, 0, 47, 72
1, 123279, Note_on_c, 0, 67, 0
1, 123279, Note_on_c, 0, 69, 72
1, 123279, Note_on_c, 0, 62, 0
1, 123282, Note_on_c, 0, 66, 69
1, 123282, Note_on_c, 0, 59, 0
1, 123282, Note_on_c, 0, 60, 68
1, 123285, Note_on_c, 0, 47, 0
1, 123285, Note_on_c, 0, 45, 68
1, 123471, Note_on_c, 0, 69, 0
1, 123471, Note_on_c, 0, 71, 76
1, 123471, Note_on_c, 0, 66, 0
1, 123474, Note_on_c, 0, 67, 72
1, 123474, Note_on_c, 0, 60, 0
1, 123474, Note_on_c, 0, 62, 72
1, 123477, Note_on_c, 0, 45, 0
1, 123477, Note_on_c, 0, 43, 72
1, 124047, Note_on_c, 0, 71, 0
1, 124047, Note_on_c, 0, 71, 72
1, 124047, Note_on_c, 0, 67, 0
1, 124050, Note_on_c, 0, 62, 69
1, 124050, Note_on_c, 0, 62, 0
1, 124050, Note_on_c, 0, 67, 68
1, 124053, Note_on_c, 0, 43, 0
1, 124053, Note_on_c, 0, 42, 68
1, 124239, Note_on_c, 0, 71, 0
1, 124239, Note_on_c, 0, 73, 76
1, 124239, Note_on_c, 0, 62, 0
1, 124242, Note_on_c, 0, 64, 72
1, 124242, Note_on_c, 0, 67, 0
1, 124242, Note_on_c, 0, 67, 72
1, 124245, Note_on_c, 0, 42, 0
1, 124245, Note_on_c, 0, 40, 72
1, 124815, Note_on_c, 0, 73, 0
1, 124815, Note_on_c, 0, 74, 72
1, 124815, Note_on_c, 0, 64, 0
1, 124818, Note_on_c, 0, 66, 69
1, 124818, Note_on_c, 0, 67, 0
1, 124818, Note_on_c, 0, 69, 68
1, 124821, Note_on_c, 0, 40, 0
1, 124821, Note_on_c, 0, 38, 68
1, 125014, Note_on_c, 0, 66, 0
1, 125017, Note_on_c, 0, 74, 0
1, 125017, Note_on_c, 0, 66, 77
1, 125017, Note_on_c, 0, 62, 72
1, 125020, Note_on_c, 0, 69, 0
1, 125020, Note_on_c, 0, 57, 72
1, 125020, Note_on_c, 0, 38, 0
1, 125023, Note_on_c, 0, 45, 72
1, 125865, Note_on_c, 0, 66, 0
1, 125865, Note_on_c, 0, 64, 76
1, 125865, Note_on_c, 0, 62, 0
1, 125868, Note_on_c, 0, 61, 72
1, 125868, Note_on_c, 0, 57, 0
1, 125868, Note_on_c, 0, 55, 72
1, 126746, Note_on_c, 0, 64, 0
1, 126746, Note_on_c, 0, 62, 76
1, 126746, Note_on_c, 0, 61, 0
1, 126749, Note_on_c, 0, 57, 72
1, 126749, Note_on_c, 0, 55, 0
1, 126749, Note_on_c, 0, 54, 70
1, 126752, Note_on_c, 0, 45, 0
1, 126752, Note_on_c, 0, 38, 66
1, 130270, Note_on_c, 0, 62, 0
1, 130270, Note_on_c, 0, 57, 0
1, 130270, Note_on_c, 0, 54, 0
1, 130273, Note_on_c, 0, 38, 0
1, 131771, End_track
0, 0, End_of_file
