0, 0, Header, 0, 1, 480
1, 0, Start_track
1, 0, Title_t, "Prelude & Fugue "
1, 0, Copyright_t, "Eric Halstead 2007"
1, 0, Tempo, 512820
1, 0, Time_signature, 4, 2, 24, 8
1, 0, Text_t, "Prelude and Fugue in D minor by Johann Sebastian Bach"
1, 0, Text_t, "Performed May 27, 2004 by Kook Hee Hong"
1, 0, Text_t, "From a live recital at the Second International Piano-e-Competition"
1, 0, Instrument_name_t, "Yamaha Disklavier Pro concert grand piano, model DCFIIISAPRO"
1, 0, Sequencer_specific, 39, 67, 113, 0, 1, 0, 1, 0, 80, 114, 101, 108, 117, 100, 101, 32, 38, 32, 70, 117, 103, 117, 101, 32, 75, 111, 111, 107, 32, 72, 101, 101, 32, 72, 111, 110, 103, 32, 32, 32
1, 0, Sequencer_specific, 6, 67, 113, 0, 0, 0, 67
1, 0, Sequencer_specific, 5, 67, 123, 12, 2, 1
1, 0, System_exclusive, 5, 126, 127, 9, 1, 247
1, 1, System_exclusive, 8, 67, 16, 76, 0, 0, 126, 0, 247
1, 5, Control_c, 0, 0, 0
1, 6, Control_c, 0, 32, 0
1, 7, Program_c, 0, 0
1, 8, Control_c, 0, 7, 100
1, 1965, Note_on_c, 0, 74, 76
1, 1971, Note_on_c, 0, 50, 53
1, 2019, Note_off_c, 0, 50, 64
1, 2030, Note_on_c, 0, 49, 59
1, 2082, Note_off_c, 0, 49, 62
1, 2109, Note_on_c, 0, 50, 61
1, 2231, Note_on_c, 0, 72, 69
1, 2263, Note_off_c, 0, 74, 59
1, 2338, Note_on_c, 0, 70, 72
1, 2368, Note_off_c, 0, 72, 66
1, 2370, Note_off_c, 0, 50, 58
1, 2465, Note_on_c, 0, 69, 72
1, 2466, Note_on_c, 0, 38, 57
1, 2479, Note_off_c, 0, 70, 61
1, 2554, Note_off_c, 0, 69, 63
1, 2555, Note_on_c, 0, 67, 71
1, 2650, Note_on_c, 0, 65, 71
1, 2656, Note_off_c, 0, 67, 64
1, 2749, Note_on_c, 0, 64, 68
1, 2769, Note_off_c, 0, 65, 60
1, 2849, Note_off_c, 0, 64, 63
1, 2854, Note_on_c, 0, 62, 68
1, 2876, Note_off_c, 0, 38, 63
1, 2951, Note_off_c, 0, 62, 62
1, 2951, Note_on_c, 0, 65, 71
1, 3054, Note_off_c, 0, 65, 63
1, 3062, Note_on_c, 0, 64, 67
1, 3141, Note_off_c, 0, 64, 62
1, 3165, Note_on_c, 0, 62, 65
1, 3239, Note_off_c, 0, 62, 61
1, 3265, Note_on_c, 0, 70, 71
1, 3362, Note_off_c, 0, 70, 58
1, 3370, Note_on_c, 0, 67, 61
1, 3471, Note_on_c, 0, 38, 74
1, 3476, Note_off_c, 0, 67, 62
1, 3487, Note_on_c, 0, 62, 66
1, 3523, Note_off_c, 0, 38, 66
1, 3577, Note_off_c, 0, 62, 61
1, 3590, Note_on_c, 0, 67, 67
1, 3681, Note_on_c, 0, 43, 80
1, 3687, Note_off_c, 0, 67, 63
1, 3699, Note_on_c, 0, 70, 70
1, 3716, Note_off_c, 0, 43, 65
1, 3788, Note_off_c, 0, 70, 59
1, 3809, Note_on_c, 0, 67, 59
1, 3893, Note_on_c, 0, 46, 73
1, 3898, Note_off_c, 0, 67, 58
1, 3910, Note_on_c, 0, 62, 68
1, 3926, Note_off_c, 0, 46, 67
1, 4001, Note_off_c, 0, 62, 60
1, 4015, Note_on_c, 0, 67, 67
1, 4105, Note_on_c, 0, 50, 79
1, 4115, Note_off_c, 0, 67, 63
1, 4127, Note_on_c, 0, 70, 67
1, 4163, Note_on_c, 0, 49, 69
1, 4165, Note_off_c, 0, 50, 59
1, 4215, Note_on_c, 0, 67, 63
1, 4226, Note_off_c, 0, 70, 58
1, 4240, Note_off_c, 0, 49, 61
1, 4240, Note_on_c, 0, 50, 67
1, 4336, Note_off_c, 0, 67, 63
1, 4343, Note_on_c, 0, 62, 66
1, 4441, Note_on_c, 0, 67, 67
1, 4445, Note_off_c, 0, 62, 58
1, 4531, Note_off_c, 0, 50, 63
1, 4540, Note_off_c, 0, 67, 64
1, 4542, Note_on_c, 0, 69, 71
1, 4641, Note_on_c, 0, 67, 64
1, 4643, Note_off_c, 0, 69, 60
1, 4729, Note_on_c, 0, 38, 73
1, 4743, Note_off_c, 0, 67, 61
1, 4749, Note_on_c, 0, 62, 69
1, 4778, Note_off_c, 0, 38, 65
1, 4839, Note_on_c, 0, 67, 62
1, 4840, Note_off_c, 0, 62, 60
1, 4939, Note_off_c, 0, 67, 64
1, 4939, Note_on_c, 0, 41, 77
1, 4941, Note_on_c, 0, 69, 68
1, 4972, Note_off_c, 0, 41, 63
1, 5038, Note_off_c, 0, 69, 63
1, 5047, Note_on_c, 0, 65, 62
1, 5137, Note_on_c, 0, 45, 80
1, 5139, Note_off_c, 0, 65, 64
1, 5146, Note_on_c, 0, 62, 68
1, 5166, Note_off_c, 0, 45, 66
1, 5234, Note_off_c, 0, 62, 61
1, 5249, Note_on_c, 0, 65, 60
1, 5354, Note_off_c, 0, 65, 64
1, 5368, Note_on_c, 0, 69, 67
1, 5381, Note_on_c, 0, 50, 74
1, 5425, Note_on_c, 0, 49, 70
1, 5426, Note_off_c, 0, 50, 62
1, 5451, Note_on_c, 0, 65, 59
1, 5462, Note_off_c, 0, 69, 62
1, 5494, Note_off_c, 0, 49, 62
1, 5504, Note_on_c, 0, 50, 76
1, 5555, Note_off_c, 0, 65, 64
1, 5575, Note_on_c, 0, 62, 60
1, 5666, Note_on_c, 0, 65, 66
1, 5691, Note_off_c, 0, 62, 61
1, 5763, Note_off_c, 0, 65, 64
1, 5768, Note_off_c, 0, 50, 64
1, 5773, Note_on_c, 0, 67, 68
1, 5881, Note_on_c, 0, 64, 64
1, 5889, Note_off_c, 0, 67, 57
1, 5962, Note_off_c, 0, 64, 62
1, 5968, Note_on_c, 0, 62, 67
1, 5982, Note_on_c, 0, 58, 60
1, 6014, Note_off_c, 0, 58, 64
1, 6060, Note_off_c, 0, 62, 61
1, 6076, Note_on_c, 0, 64, 63
1, 6162, Note_off_c, 0, 64, 62
1, 6168, Note_on_c, 0, 52, 60
1, 6179, Note_on_c, 0, 67, 67
1, 6217, Note_off_c, 0, 52, 66
1, 6283, Note_off_c, 0, 67, 61
1, 6291, Note_on_c, 0, 64, 66
1, 6385, Note_off_c, 0, 64, 60
1, 6387, Note_on_c, 0, 55, 64
1, 6397, Note_on_c, 0, 61, 62
1, 6427, Note_off_c, 0, 55, 64
1, 6477, Note_off_c, 0, 61, 62
1, 6490, Note_on_c, 0, 64, 66
1, 6572, Note_off_c, 0, 64, 63
1, 6585, Note_on_c, 0, 49, 63
1, 6595, Note_on_c, 0, 67, 63
1, 6619, Note_off_c, 0, 49, 64
1, 6684, Note_off_c, 0, 67, 63
1, 6698, Note_on_c, 0, 64, 67
1, 6790, Note_off_c, 0, 64, 61
1, 6797, Note_on_c, 0, 57, 57
1, 6806, Note_on_c, 0, 61, 62
1, 6830, Note_off_c, 0, 57, 61
1, 6895, Note_off_c, 0, 61, 61
1, 6912, Note_on_c, 0, 64, 68
1, 6955, Note_off_c, 0, 64, 61
1, 7003, Note_on_c, 0, 50, 61
1, 7015, Note_on_c, 0, 65, 72
1, 7123, Note_on_c, 0, 62, 69
1, 7245, Note_on_c, 0, 60, 74
1, 7294, Note_off_c, 0, 62, 58
1, 7345, Note_on_c, 0, 58, 74
1, 7347, Note_off_c, 0, 60, 64
1, 7443, Note_on_c, 0, 57, 76
1, 7454, Note_off_c, 0, 58, 60
1, 7537, Note_on_c, 0, 55, 66
1, 7603, Note_off_c, 0, 50, 58
1, 7611, Note_off_c, 0, 57, 62
1, 7648, Note_on_c, 0, 53, 68
1, 7652, Note_off_c, 0, 55, 61
1, 7749, Note_off_c, 0, 53, 61
1, 7751, Note_on_c, 0, 52, 67
1, 7811, Note_off_c, 0, 65, 64
1, 7860, Note_on_c, 0, 50, 71
1, 7864, Note_off_c, 0, 52, 64
1, 7956, Note_off_c, 0, 50, 63
1, 7956, Note_on_c, 0, 53, 69
1, 8057, Note_off_c, 0, 53, 60
1, 8061, Note_on_c, 0, 52, 66
1, 8182, Note_on_c, 0, 50, 73
1, 8189, Note_off_c, 0, 52, 63
1, 8251, Note_off_c, 0, 50, 64
1, 8275, Note_on_c, 0, 58, 78
1, 8378, Note_off_c, 0, 58, 61
1, 8381, Note_on_c, 0, 55, 67
1, 8478, Note_off_c, 0, 55, 64
1, 8478, Note_on_c, 0, 62, 79
1, 8489, Note_on_c, 0, 50, 65
1, 8522, Note_off_c, 0, 62, 63
1, 8592, Note_off_c, 0, 50, 61
1, 8593, Note_on_c, 0, 55, 59
1, 8677, Note_off_c, 0, 55, 62
1, 8684, Note_on_c, 0, 58, 65
1, 8702, Note_on_c, 0, 67, 77
1, 8735, Note_off_c, 0, 67, 71
1, 8788, Note_off_c, 0, 58, 59
1, 8793, Note_on_c, 0, 55, 63
1, 8894, Note_off_c, 0, 55, 64
1, 8912, Note_on_c, 0, 50, 61
1, 8913, Note_on_c, 0, 70, 82
1, 8942, Note_off_c, 0, 70, 69
1, 9023, Note_off_c, 0, 50, 64
1, 9038, Note_on_c, 0, 55, 58
1, 9131, Note_off_c, 0, 55, 64
1, 9138, Note_on_c, 0, 58, 66
1, 9144, Note_on_c, 0, 74, 86
1, 9195, Note_on_c, 0, 73, 72
1, 9199, Note_off_c, 0, 74, 60
1, 9234, Note_off_c, 0, 58, 62
1, 9235, Note_on_c, 0, 55, 59
1, 9258, Note_on_c, 0, 74, 75
1, 9262, Note_off_c, 0, 73, 65
1, 9321, Note_off_c, 0, 55, 62
1, 9342, Note_on_c, 0, 50, 58
1, 9441, Note_off_c, 0, 50, 61
1, 9448, Note_on_c, 0, 55, 59
1, 9541, Note_off_c, 0, 55, 63
1, 9545, Note_off_c, 0, 74, 65
1, 9547, Note_on_c, 0, 57, 70
1, 9641, Note_off_c, 0, 57, 62
1, 9647, Note_on_c, 0, 55, 63
1, 9734, Note_off_c, 0, 55, 63
1, 9738, Note_on_c, 0, 62, 80
1, 9750, Note_on_c, 0, 50, 65
1, 9796, Note_off_c, 0, 62, 62
1, 9859, Note_off_c, 0, 50, 62
1, 9864, Note_on_c, 0, 55, 62
1, 9962, Note_off_c, 0, 55, 64
1, 9971, Note_on_c, 0, 65, 74
1, 9977, Note_on_c, 0, 57, 65
1, 10004, Note_off_c, 0, 65, 67
1, 10075, Note_off_c, 0, 57, 56
1, 10082, Note_on_c, 0, 53, 62
1, 10178, Note_off_c, 0, 53, 60
1, 10180, Note_on_c, 0, 69, 82
1, 10194, Note_on_c, 0, 50, 61
1, 10204, Note_off_c, 0, 69, 70
1, 10288, Note_off_c, 0, 50, 62
1, 10302, Note_on_c, 0, 53, 62
1, 10386, Note_off_c, 0, 53, 60
1, 10398, Note_on_c, 0, 57, 60
1, 10403, Note_on_c, 0, 74, 84
1, 10453, Note_on_c, 0, 73, 70
1, 10489, Note_off_c, 0, 74, 0
1, 10497, Note_off_c, 0, 57, 60
1, 10501, Note_on_c, 0, 53, 58
1, 10539, Note_off_c, 0, 73, 59
1, 10596, Note_off_c, 0, 53, 60
1, 10616, Note_on_c, 0, 50, 60
1, 10716, Note_off_c, 0, 50, 62
1, 10727, Note_on_c, 0, 53, 64
1, 10798, Note_off_c, 0, 53, 58
1, 10814, Note_on_c, 0, 55, 69
1, 10841, Poly_aftertouch_c, 0, 74, 0
1, 10916, Note_off_c, 0, 55, 60
1, 10931, Note_on_c, 0, 52, 69
1, 11017, Note_off_c, 0, 52, 63
1, 11039, Note_on_c, 0, 50, 61
1, 11047, Note_on_c, 0, 67, 80
1, 11085, Note_off_c, 0, 67, 63
1, 11139, Note_off_c, 0, 50, 63
1, 11150, Note_on_c, 0, 52, 64
1, 11246, Note_off_c, 0, 52, 63
1, 11257, Note_on_c, 0, 55, 59
1, 11260, Note_on_c, 0, 73, 80
1, 11293, Note_off_c, 0, 73, 65
1, 11356, Note_off_c, 0, 55, 60
1, 11373, Note_on_c, 0, 52, 57
1, 11463, Note_off_c, 0, 52, 63
1, 11476, Note_on_c, 0, 49, 61
1, 11496, Note_on_c, 0, 76, 76
1, 11531, Note_off_c, 0, 76, 64
1, 11582, Note_off_c, 0, 49, 61
1, 11595, Note_on_c, 0, 52, 58
1, 11686, Note_off_c, 0, 52, 62
1, 11707, Note_on_c, 0, 55, 51
1, 11709, Note_on_c, 0, 73, 71
1, 11750, Note_off_c, 0, 73, 61
1, 11799, Note_off_c, 0, 55, 60
1, 11835, Note_on_c, 0, 52, 48
1, 11924, Note_off_c, 0, 52, 63
1, 11945, Note_on_c, 0, 49, 57
1, 11946, Note_on_c, 0, 69, 71
1, 11982, Note_off_c, 0, 69, 67
1, 12043, Note_off_c, 0, 49, 60
1, 12053, Note_on_c, 0, 52, 56
1, 12168, Note_off_c, 0, 52, 62
1, 12169, Note_on_c, 0, 74, 74
1, 12182, Note_on_c, 0, 53, 60
1, 12294, Note_off_c, 0, 53, 59
1, 12298, Note_on_c, 0, 50, 62
1, 12408, Note_on_c, 0, 72, 77
1, 12409, Note_off_c, 0, 50, 62
1, 12413, Note_on_c, 0, 52, 65
1, 12452, Note_off_c, 0, 74, 61
1, 12502, Note_on_c, 0, 70, 75
1, 12515, Note_on_c, 0, 53, 70
1, 12518, Note_off_c, 0, 52, 62
1, 12544, Note_off_c, 0, 72, 62
1, 12607, Note_off_c, 0, 53, 60
1, 12613, Note_on_c, 0, 69, 75
1, 12613, Note_on_c, 0, 55, 70
1, 12641, Note_off_c, 0, 70, 60
1, 12707, Note_off_c, 0, 69, 62
1, 12709, Note_on_c, 0, 67, 75
1, 12724, Note_on_c, 0, 57, 73
1, 12730, Note_off_c, 0, 55, 57
1, 12798, Note_off_c, 0, 67, 64
1, 12816, Note_on_c, 0, 65, 76
1, 12832, Note_on_c, 0, 59, 69
1, 12833, Note_off_c, 0, 57, 63
1, 12919, Note_off_c, 0, 65, 65
1, 12926, Note_on_c, 0, 64, 67
1, 12930, Note_off_c, 0, 59, 62
1, 12940, Note_on_c, 0, 61, 66
1, 13004, Note_off_c, 0, 64, 63
1, 13012, Note_off_c, 0, 61, 65
1, 13025, Note_on_c, 0, 65, 73
1, 13026, Note_on_c, 0, 62, 67
1, 13069, Note_off_c, 0, 65, 66
1, 13128, Note_off_c, 0, 62, 61
1, 13137, Note_on_c, 0, 60, 67
1, 13231, Note_off_c, 0, 60, 62
1, 13242, Note_on_c, 0, 59, 68
1, 13247, Note_on_c, 0, 69, 74
1, 13347, Note_off_c, 0, 59, 62
1, 13358, Note_on_c, 0, 57, 65
1, 13461, Note_off_c, 0, 57, 64
1, 13467, Note_on_c, 0, 59, 71
1, 13550, Note_off_c, 0, 69, 62
1, 13552, Note_off_c, 0, 59, 62
1, 13566, Note_on_c, 0, 60, 64
1, 13568, Note_on_c, 0, 67, 71
1, 13668, Note_off_c, 0, 67, 63
1, 13674, Note_on_c, 0, 69, 80
1, 13682, Note_off_c, 0, 60, 63
1, 13701, Note_on_c, 0, 59, 71
1, 13769, Note_off_c, 0, 59, 60
1, 13780, Note_on_c, 0, 71, 77
1, 13791, Note_on_c, 0, 57, 73
1, 13794, Note_off_c, 0, 69, 60
1, 13859, Note_off_c, 0, 71, 64
1, 13878, Note_off_c, 0, 57, 61
1, 13886, Note_on_c, 0, 72, 79
1, 13891, Note_on_c, 0, 55, 68
1, 13973, Note_off_c, 0, 72, 68
1, 13973, Note_on_c, 0, 53, 67
1, 13975, Note_on_c, 0, 74, 79
1, 13976, Note_off_c, 0, 55, 62
1, 14062, Note_off_c, 0, 53, 61
1, 14066, Note_on_c, 0, 52, 62
1, 14076, Note_on_c, 0, 76, 76
1, 14078, Note_off_c, 0, 74, 64
1, 14147, Note_off_c, 0, 52, 63
1, 14164, Note_off_c, 0, 76, 65
1, 14165, Note_on_c, 0, 50, 59
1, 14166, Note_on_c, 0, 77, 76
1, 14249, Note_off_c, 0, 50, 64
1, 14252, Note_on_c, 0, 52, 71
1, 14257, Note_off_c, 0, 77, 62
1, 14258, Note_on_c, 0, 79, 68
1, 14288, Note_off_c, 0, 52, 66
1, 14368, Note_off_c, 0, 79, 60
1, 14373, Note_on_c, 0, 77, 71
1, 14463, Note_off_c, 0, 77, 60
1, 14470, Note_on_c, 0, 76, 65
1, 14473, Note_on_c, 0, 55, 63
1, 14507, Note_off_c, 0, 55, 64
1, 14540, Note_off_c, 0, 76, 62
1, 14558, Note_on_c, 0, 74, 67
1, 14685, Note_off_c, 0, 74, 64
1, 14693, Note_on_c, 0, 76, 66
1, 14702, Note_on_c, 0, 48, 63
1, 14734, Control_c, 0, 67, 10
1, 14751, Control_c, 0, 67, 17
1, 14771, Control_c, 0, 67, 29
1, 14779, Note_off_c, 0, 76, 62
1, 14790, Control_c, 0, 67, 43
1, 14808, Control_c, 0, 67, 58
1, 14820, Note_on_c, 0, 72, 68
1, 14827, Control_c, 0, 67, 76
1, 14846, Control_c, 0, 67, 93
1, 14865, Control_c, 0, 67, 103
1, 14900, Control_c, 0, 67, 107
1, 14915, Note_off_c, 0, 72, 64
1, 14924, Note_off_c, 0, 48, 63
1, 14924, Note_on_c, 0, 70, 68
1, 14935, Note_on_c, 0, 50, 56
1, 14954, Control_c, 0, 67, 112
1, 15022, Note_off_c, 0, 50, 61
1, 15023, Note_on_c, 0, 52, 57
1, 15035, Note_on_c, 0, 69, 63
1, 15041, Note_off_c, 0, 70, 65
1, 15110, Note_off_c, 0, 52, 63
1, 15115, Note_on_c, 0, 53, 64
1, 15127, Note_on_c, 0, 67, 63
1, 15132, Note_off_c, 0, 69, 64
1, 15159, Control_c, 0, 67, 107
1, 15184, Note_off_c, 0, 53, 58
1, 15205, Note_off_c, 0, 67, 63
1, 15212, Note_on_c, 0, 65, 67
1, 15215, Note_on_c, 0, 55, 61
1, 15274, Note_off_c, 0, 65, 56
1, 15299, Note_off_c, 0, 55, 63
1, 15302, Note_on_c, 0, 64, 69
1, 15311, Note_on_c, 0, 57, 57
1, 15378, Note_off_c, 0, 57, 62
1, 15378, Note_off_c, 0, 64, 63
1, 15398, Note_on_c, 0, 62, 60
1, 15399, Note_on_c, 0, 58, 62
1, 15462, Note_off_c, 0, 62, 62
1, 15465, Note_off_c, 0, 58, 62
1, 15494, Note_on_c, 0, 60, 60
1, 15501, Note_on_c, 0, 64, 67
1, 15539, Note_off_c, 0, 64, 64
1, 15606, Note_off_c, 0, 60, 60
1, 15627, Note_on_c, 0, 58, 57
1, 15700, Note_off_c, 0, 58, 59
1, 15727, Note_on_c, 0, 57, 56
1, 15735, Note_on_c, 0, 67, 64
1, 15825, Note_off_c, 0, 57, 60
1, 15856, Note_on_c, 0, 55, 54
1, 15890, Control_c, 0, 64, 16
1, 15947, Control_c, 0, 64, 0
1, 15951, Note_off_c, 0, 55, 62
1, 15969, Note_on_c, 0, 57, 57
1, 16025, Note_off_c, 0, 67, 60
1, 16043, Note_off_c, 0, 57, 58
1, 16061, Note_on_c, 0, 65, 66
1, 16065, Note_on_c, 0, 58, 59
1, 16141, Note_off_c, 0, 58, 62
1, 16162, Note_off_c, 0, 65, 64
1, 16169, Note_on_c, 0, 67, 66
1, 16182, Note_on_c, 0, 57, 62
1, 16237, Note_off_c, 0, 57, 61
1, 16265, Note_on_c, 0, 69, 67
1, 16266, Note_off_c, 0, 67, 63
1, 16268, Note_on_c, 0, 55, 59
1, 16320, Note_off_c, 0, 55, 64
1, 16358, Note_off_c, 0, 69, 60
1, 16360, Note_on_c, 0, 70, 70
1, 16364, Note_on_c, 0, 53, 63
1, 16432, Note_off_c, 0, 70, 63
1, 16436, Note_off_c, 0, 53, 49
1, 16462, Note_on_c, 0, 51, 63
1, 16470, Note_on_c, 0, 72, 62
1, 16542, Note_off_c, 0, 51, 58
1, 16562, Note_off_c, 0, 72, 66
1, 16565, Note_on_c, 0, 50, 57
1, 16577, Note_on_c, 0, 74, 62
1, 16637, Note_off_c, 0, 50, 61
1, 16641, Control_c, 0, 67, 102
1, 16656, Note_off_c, 0, 74, 64
1, 16661, Control_c, 0, 67, 95
1, 16665, Note_on_c, 0, 48, 53
1, 16666, Note_on_c, 0, 75, 65
1, 16679, Control_c, 0, 67, 87
1, 16698, Control_c, 0, 67, 79
1, 16718, Control_c, 0, 67, 71
1, 16736, Control_c, 0, 67, 62
1, 16741, Note_off_c, 0, 48, 56
1, 16752, Note_off_c, 0, 75, 62
1, 16752, Control_c, 0, 67, 55
1, 16765, Note_on_c, 0, 50, 63
1, 16769, Control_c, 0, 67, 50
1, 16770, Note_on_c, 0, 77, 61
1, 16791, Control_c, 0, 67, 46
1, 16796, Note_off_c, 0, 50, 61
1, 16827, Control_c, 0, 67, 38
1, 16864, Control_c, 0, 67, 30
1, 16869, Note_off_c, 0, 77, 60
1, 16884, Note_on_c, 0, 75, 64
1, 16900, Control_c, 0, 67, 23
1, 16957, Control_c, 0, 67, 19
1, 16971, Note_on_c, 0, 53, 60
1, 16972, Note_off_c, 0, 75, 57
1, 16986, Note_on_c, 0, 74, 58
1, 17002, Note_off_c, 0, 53, 61
1, 17057, Note_off_c, 0, 74, 62
1, 17064, Control_c, 0, 67, 15
1, 17094, Note_on_c, 0, 72, 59
1, 17122, Control_c, 0, 67, 0
1, 17180, Note_on_c, 0, 46, 75
1, 17182, Note_off_c, 0, 72, 60
1, 17194, Control_c, 0, 64, 24
1, 17199, Note_on_c, 0, 74, 63
1, 17213, Control_c, 0, 64, 38
1, 17217, Note_off_c, 0, 46, 66
1, 17232, Control_c, 0, 64, 51
1, 17250, Control_c, 0, 64, 57
1, 17269, Control_c, 0, 64, 61
1, 17283, Note_off_c, 0, 74, 62
1, 17286, Control_c, 0, 64, 63
1, 17303, Control_c, 0, 64, 64
1, 17306, Note_on_c, 0, 77, 61
1, 17360, Control_c, 0, 64, 62
1, 17381, Control_c, 0, 64, 60
1, 17397, Control_c, 0, 64, 56
1, 17403, Note_on_c, 0, 58, 75
1, 17413, Note_off_c, 0, 77, 60
1, 17416, Control_c, 0, 64, 52
1, 17423, Note_on_c, 0, 74, 59
1, 17449, Control_c, 0, 64, 45
1, 17468, Control_c, 0, 64, 33
1, 17487, Control_c, 0, 64, 15
1, 17501, Note_off_c, 0, 74, 60
1, 17504, Control_c, 0, 64, 0
1, 17525, Note_on_c, 0, 60, 73
1, 17527, Note_off_c, 0, 58, 63
1, 17535, Note_on_c, 0, 72, 63
1, 17625, Note_on_c, 0, 62, 76
1, 17628, Note_off_c, 0, 72, 68
1, 17630, Note_off_c, 0, 60, 64
1, 17644, Note_on_c, 0, 70, 64
1, 17659, Note_off_c, 0, 62, 66
1, 17724, Note_off_c, 0, 70, 63
1, 17750, Note_on_c, 0, 74, 61
1, 17845, Note_on_c, 0, 65, 69
1, 17850, Note_off_c, 0, 74, 63
1, 17864, Note_on_c, 0, 70, 60
1, 17878, Note_off_c, 0, 65, 66
1, 17938, Note_off_c, 0, 70, 57
1, 17963, Note_on_c, 0, 69, 56
1, 18010, Note_off_c, 0, 69, 56
1, 18053, Note_on_c, 0, 58, 55
1, 18056, Note_on_c, 0, 67, 58
1, 18083, Note_off_c, 0, 58, 62
1, 18130, Note_off_c, 0, 67, 49
1, 18167, Note_on_c, 0, 70, 58
1, 18255, Note_off_c, 0, 70, 63
1, 18270, Note_on_c, 0, 62, 58
1, 18272, Note_on_c, 0, 67, 58
1, 18312, Note_off_c, 0, 62, 61
1, 18332, Note_off_c, 0, 67, 59
1, 18384, Note_on_c, 0, 65, 61
1, 18465, Note_off_c, 0, 65, 54
1, 18491, Note_on_c, 0, 55, 57
1, 18491, Note_on_c, 0, 64, 64
1, 18503, Control_c, 0, 64, 21
1, 18522, Control_c, 0, 64, 31
1, 18557, Note_off_c, 0, 64, 60
1, 18584, Note_off_c, 0, 55, 60
1, 18596, Note_on_c, 0, 58, 64
1, 18613, Control_c, 0, 64, 22
1, 18634, Control_c, 0, 64, 12
1, 18651, Control_c, 0, 64, 0
1, 18673, Note_off_c, 0, 58, 63
1, 18701, Note_on_c, 0, 76, 79
1, 18720, Note_on_c, 0, 55, 64
1, 18798, Note_off_c, 0, 76, 63
1, 18802, Note_on_c, 0, 77, 78
1, 18806, Note_on_c, 0, 53, 66
1, 18809, Note_off_c, 0, 55, 62
1, 18889, Note_off_c, 0, 53, 59
1, 18897, Note_on_c, 0, 79, 86
1, 18905, Note_on_c, 0, 52, 67
1, 18907, Note_off_c, 0, 77, 64
1, 18938, Note_off_c, 0, 79, 66
1, 19007, Note_off_c, 0, 52, 60
1, 19026, Note_on_c, 0, 55, 63
1, 19116, Note_off_c, 0, 55, 61
1, 19127, Note_on_c, 0, 82, 84
1, 19141, Note_on_c, 0, 52, 66
1, 19184, Note_off_c, 0, 82, 63
1, 19233, Note_off_c, 0, 52, 64
1, 19242, Note_on_c, 0, 50, 65
1, 19372, Note_on_c, 0, 76, 78
1, 19373, Note_on_c, 0, 49, 68
1, 19376, Note_off_c, 0, 50, 62
1, 19402, Note_off_c, 0, 76, 68
1, 19461, Note_off_c, 0, 49, 60
1, 19484, Note_on_c, 0, 52, 64
1, 19583, Note_off_c, 0, 52, 62
1, 19592, Note_on_c, 0, 79, 65
1, 19595, Note_on_c, 0, 49, 65
1, 19621, Note_off_c, 0, 79, 68
1, 19663, Note_off_c, 0, 49, 60
1, 19679, Note_on_c, 0, 47, 66
1, 19771, Note_off_c, 0, 47, 62
1, 19793, Note_on_c, 0, 45, 73
1, 19819, Note_on_c, 0, 73, 65
1, 19864, Control_c, 0, 64, 32
1, 19883, Control_c, 0, 64, 52
1, 19887, Note_off_c, 0, 45, 62
1, 19901, Control_c, 0, 64, 67
1, 19908, Note_off_c, 0, 73, 64
1, 19919, Control_c, 0, 64, 74
1, 19927, Note_on_c, 0, 79, 62
1, 19930, Control_c, 0, 64, 78
1, 19949, Control_c, 0, 64, 80
1, 19986, Control_c, 0, 64, 78
1, 20003, Control_c, 0, 64, 69
1, 20010, Note_off_c, 0, 79, 62
1, 20018, Note_on_c, 0, 57, 79
1, 20022, Control_c, 0, 64, 51
1, 20024, Note_on_c, 0, 73, 70
1, 20040, Control_c, 0, 64, 16
1, 20058, Control_c, 0, 64, 0
1, 20098, Note_off_c, 0, 73, 60
1, 20130, Note_off_c, 0, 57, 63
1, 20131, Note_on_c, 0, 71, 65
1, 20132, Note_on_c, 0, 59, 73
1, 20218, Note_off_c, 0, 59, 63
1, 20238, Note_on_c, 0, 61, 76
1, 20244, Note_off_c, 0, 71, 58
1, 20251, Note_on_c, 0, 69, 67
1, 20271, Note_off_c, 0, 61, 69
1, 20329, Note_off_c, 0, 69, 61
1, 20369, Note_on_c, 0, 76, 55
1, 20456, Note_off_c, 0, 76, 61
1, 20465, Note_on_c, 0, 64, 67
1, 20474, Note_on_c, 0, 69, 59
1, 20504, Note_off_c, 0, 64, 62
1, 20534, Note_off_c, 0, 69, 57
1, 20579, Note_on_c, 0, 67, 57
1, 20661, Note_off_c, 0, 67, 59
1, 20681, Note_on_c, 0, 57, 61
1, 20689, Note_on_c, 0, 65, 59
1, 20714, Note_off_c, 0, 57, 65
1, 20761, Note_off_c, 0, 65, 62
1, 20808, Note_on_c, 0, 73, 51
1, 20890, Note_off_c, 0, 73, 58
1, 20893, Note_on_c, 0, 55, 54
1, 20893, Note_on_c, 0, 65, 65
1, 20930, Note_off_c, 0, 55, 62
1, 20964, Note_off_c, 0, 65, 59
1, 21003, Note_on_c, 0, 64, 61
1, 21053, Note_off_c, 0, 64, 61
1, 21086, Control_c, 0, 64, 12
1, 21086, Note_on_c, 0, 53, 65
1, 21090, Note_on_c, 0, 62, 67
1, 21104, Control_c, 0, 64, 35
1, 21123, Note_off_c, 0, 62, 67
1, 21123, Control_c, 0, 64, 41
1, 21176, Note_off_c, 0, 53, 58
1, 21192, Control_c, 0, 64, 37
1, 21205, Note_on_c, 0, 62, 71
1, 21212, Control_c, 0, 64, 29
1, 21230, Control_c, 0, 64, 21
1, 21249, Control_c, 0, 64, 14
1, 21265, Control_c, 0, 64, 8
1, 21274, Note_off_c, 0, 62, 52
1, 21282, Control_c, 0, 64, 0
1, 21299, Note_on_c, 0, 74, 80
1, 21310, Note_on_c, 0, 53, 69
1, 21395, Note_off_c, 0, 53, 58
1, 21396, Note_on_c, 0, 52, 67
1, 21400, Note_off_c, 0, 74, 64
1, 21400, Note_on_c, 0, 76, 80
1, 21491, Note_on_c, 0, 77, 84
1, 21506, Note_off_c, 0, 52, 63
1, 21508, Note_on_c, 0, 50, 65
1, 21516, Note_off_c, 0, 76, 64
1, 21539, Note_off_c, 0, 77, 65
1, 21604, Note_off_c, 0, 50, 62
1, 21615, Note_on_c, 0, 57, 67
1, 21707, Note_off_c, 0, 57, 62
1, 21719, Note_on_c, 0, 81, 80
1, 21735, Note_on_c, 0, 50, 66
1, 21748, Note_off_c, 0, 81, 64
1, 21816, Note_off_c, 0, 50, 63
1, 21823, Note_on_c, 0, 48, 62
1, 21939, Note_off_c, 0, 48, 64
1, 21939, Note_on_c, 0, 46, 66
1, 21944, Note_on_c, 0, 74, 69
1, 21976, Note_off_c, 0, 74, 67
1, 22023, Note_off_c, 0, 46, 62
1, 22050, Note_on_c, 0, 53, 64
1, 22170, Note_off_c, 0, 53, 59
1, 22176, Note_on_c, 0, 46, 66
1, 22186, Note_on_c, 0, 72, 60
1, 22217, Note_off_c, 0, 72, 69
1, 22250, Note_off_c, 0, 46, 62
1, 22266, Note_on_c, 0, 45, 62
1, 22375, Note_off_c, 0, 45, 61
1, 22384, Note_on_c, 0, 43, 69
1, 22397, Note_on_c, 0, 70, 67
1, 22424, Control_c, 0, 64, 13
1, 22443, Control_c, 0, 64, 32
1, 22462, Control_c, 0, 64, 46
1, 22480, Control_c, 0, 64, 59
1, 22493, Note_off_c, 0, 70, 63
1, 22496, Note_off_c, 0, 43, 63
1, 22499, Control_c, 0, 64, 64
1, 22506, Note_on_c, 0, 79, 64
1, 22537, Control_c, 0, 64, 61
1, 22554, Control_c, 0, 64, 50
1, 22572, Control_c, 0, 64, 26
1, 22583, Note_off_c, 0, 79, 49
1, 22591, Control_c, 0, 64, 0
1, 22611, Note_on_c, 0, 55, 67
1, 22616, Note_on_c, 0, 70, 69
1, 22698, Note_off_c, 0, 70, 63
1, 22710, Note_off_c, 0, 55, 60
1, 22710, Note_on_c, 0, 57, 68
1, 22720, Note_on_c, 0, 69, 63
1, 22798, Note_off_c, 0, 57, 61
1, 22815, Note_off_c, 0, 69, 62
1, 22817, Note_on_c, 0, 58, 70
1, 22832, Note_on_c, 0, 67, 61
1, 22848, Note_off_c, 0, 58, 67
1, 22893, Note_off_c, 0, 67, 59
1, 22932, Note_on_c, 0, 70, 61
1, 23035, Note_off_c, 0, 70, 61
1, 23061, Note_on_c, 0, 62, 54
1, 23064, Note_on_c, 0, 67, 56
1, 23098, Note_off_c, 0, 62, 64
1, 23122, Note_off_c, 0, 67, 62
1, 23168, Note_on_c, 0, 65, 56
1, 23242, Note_off_c, 0, 65, 62
1, 23250, Control_c, 0, 67, 8
1, 23268, Control_c, 0, 67, 13
1, 23271, Note_on_c, 0, 55, 56
1, 23277, Note_on_c, 0, 63, 58
1, 23286, Control_c, 0, 67, 21
1, 23304, Note_off_c, 0, 55, 63
1, 23304, Control_c, 0, 67, 28
1, 23325, Control_c, 0, 67, 33
1, 23337, Note_off_c, 0, 63, 60
1, 23343, Control_c, 0, 67, 39
1, 23360, Control_c, 0, 67, 46
1, 23376, Control_c, 0, 67, 53
1, 23381, Note_on_c, 0, 70, 53
1, 23397, Control_c, 0, 67, 61
1, 23416, Control_c, 0, 67, 70
1, 23434, Control_c, 0, 67, 81
1, 23453, Control_c, 0, 67, 93
1, 23473, Control_c, 0, 67, 105
1, 23489, Note_off_c, 0, 70, 56
1, 23490, Control_c, 0, 67, 120
1, 23496, Note_on_c, 0, 63, 57
1, 23500, Note_on_c, 0, 58, 57
1, 23509, Control_c, 0, 67, 127
1, 23531, Note_off_c, 0, 58, 66
1, 23561, Note_off_c, 0, 63, 54
1, 23616, Note_on_c, 0, 62, 51
1, 23688, Note_off_c, 0, 62, 56
1, 23722, Note_on_c, 0, 57, 53
1, 23725, Note_on_c, 0, 61, 53
1, 23757, Note_off_c, 0, 57, 57
1, 23780, Note_off_c, 0, 61, 62
1, 23839, Note_on_c, 0, 69, 43
1, 23927, Note_off_c, 0, 69, 60
1, 23948, Note_on_c, 0, 61, 53
1, 23956, Note_on_c, 0, 64, 55
1, 24012, Note_off_c, 0, 64, 64
1, 24021, Note_off_c, 0, 61, 62
1, 24074, Note_on_c, 0, 59, 59
1, 24145, Note_off_c, 0, 59, 52
1, 24180, Note_on_c, 0, 57, 51
1, 24186, Note_on_c, 0, 61, 50
1, 24213, Note_off_c, 0, 57, 57
1, 24234, Note_off_c, 0, 61, 62
1, 24307, Note_on_c, 0, 69, 34
1, 24375, Note_off_c, 0, 69, 45
1, 24407, Note_on_c, 0, 61, 54
1, 24409, Note_on_c, 0, 64, 49
1, 24443, Note_off_c, 0, 64, 57
1, 24461, Note_off_c, 0, 61, 61
1, 24523, Note_on_c, 0, 69, 43
1, 24571, Note_off_c, 0, 69, 52
1, 24620, Note_on_c, 0, 57, 53
1, 24624, Note_on_c, 0, 61, 53
1, 24658, Note_off_c, 0, 57, 63
1, 24678, Note_off_c, 0, 61, 61
1, 24754, Note_on_c, 0, 69, 29
1, 24814, Note_off_c, 0, 69, 47
1, 24859, Note_on_c, 0, 64, 51
1, 24862, Note_on_c, 0, 61, 54
1, 24891, Note_off_c, 0, 64, 59
1, 24922, Note_off_c, 0, 61, 61
1, 24981, Note_on_c, 0, 69, 47
1, 25048, Note_off_c, 0, 69, 56
1, 25092, Note_on_c, 0, 55, 49
1, 25094, Note_on_c, 0, 61, 55
1, 25132, Note_off_c, 0, 55, 62
1, 25161, Note_off_c, 0, 61, 55
1, 25200, Note_on_c, 0, 69, 53
1, 25302, Note_off_c, 0, 69, 58
1, 25306, Note_on_c, 0, 61, 61
1, 25310, Note_on_c, 0, 64, 58
1, 25349, Note_off_c, 0, 64, 65
1, 25375, Note_off_c, 0, 61, 61
1, 25424, Note_on_c, 0, 59, 57
1, 25496, Note_off_c, 0, 59, 52
1, 25525, Note_on_c, 0, 55, 55
1, 25525, Note_on_c, 0, 61, 60
1, 25571, Note_off_c, 0, 55, 62
1, 25579, Note_off_c, 0, 61, 61
1, 25650, Note_on_c, 0, 69, 37
1, 25708, Note_off_c, 0, 69, 45
1, 25763, Note_on_c, 0, 61, 52
1, 25764, Note_on_c, 0, 64, 51
1, 25798, Note_off_c, 0, 64, 58
1, 25809, Note_off_c, 0, 61, 62
1, 25896, Note_on_c, 0, 69, 38
1, 25944, Note_off_c, 0, 69, 49
1, 25994, Note_on_c, 0, 55, 50
1, 26000, Note_on_c, 0, 61, 54
1, 26032, Note_off_c, 0, 55, 63
1, 26052, Note_off_c, 0, 61, 61
1, 26105, Note_on_c, 0, 69, 39
1, 26170, Note_off_c, 0, 69, 56
1, 26220, Note_on_c, 0, 64, 55
1, 26223, Note_on_c, 0, 61, 60
1, 26257, Note_off_c, 0, 64, 63
1, 26269, Note_off_c, 0, 61, 62
1, 26331, Note_on_c, 0, 69, 46
1, 26407, Note_off_c, 0, 69, 55
1, 26426, Note_on_c, 0, 53, 55
1, 26439, Note_on_c, 0, 62, 64
1, 26472, Note_off_c, 0, 53, 60
1, 26489, Note_off_c, 0, 62, 59
1, 26561, Note_on_c, 0, 69, 54
1, 26620, Note_off_c, 0, 69, 58
1, 26652, Note_on_c, 0, 65, 56
1, 26676, Note_on_c, 0, 62, 59
1, 26701, Note_off_c, 0, 65, 63
1, 26739, Note_off_c, 0, 62, 60
1, 26777, Note_on_c, 0, 61, 59
1, 26859, Note_off_c, 0, 61, 60
1, 26890, Note_on_c, 0, 53, 56
1, 26891, Note_on_c, 0, 62, 66
1, 26936, Note_off_c, 0, 53, 60
1, 26950, Note_off_c, 0, 62, 58
1, 27022, Note_on_c, 0, 69, 54
1, 27077, Note_off_c, 0, 69, 59
1, 27124, Note_on_c, 0, 65, 58
1, 27130, Note_on_c, 0, 62, 55
1, 27163, Note_off_c, 0, 65, 65
1, 27180, Note_off_c, 0, 62, 60
1, 27239, Note_on_c, 0, 69, 53
1, 27305, Note_off_c, 0, 69, 56
1, 27351, Note_on_c, 0, 53, 60
1, 27352, Note_on_c, 0, 62, 58
1, 27402, Note_off_c, 0, 53, 60
1, 27404, Note_off_c, 0, 62, 61
1, 27469, Note_on_c, 0, 69, 53
1, 27533, Note_off_c, 0, 69, 58
1, 27571, Note_on_c, 0, 65, 54
1, 27579, Note_on_c, 0, 62, 57
1, 27610, Note_off_c, 0, 65, 59
1, 27625, Note_off_c, 0, 62, 62
1, 27683, Note_on_c, 0, 69, 55
1, 27756, Note_off_c, 0, 69, 54
1, 27794, Note_on_c, 0, 61, 67
1, 27801, Note_on_c, 0, 64, 60
1, 27824, Note_off_c, 0, 61, 66
1, 27891, Note_off_c, 0, 64, 61
1, 27914, Note_on_c, 0, 69, 56
1, 28005, Note_off_c, 0, 69, 62
1, 28013, Note_on_c, 0, 67, 66
1, 28038, Note_on_c, 0, 64, 53
1, 28045, Note_off_c, 0, 67, 55
1, 28086, Note_off_c, 0, 64, 62
1, 28133, Note_on_c, 0, 62, 57
1, 28194, Note_off_c, 0, 62, 54
1, 28213, Note_on_c, 0, 61, 60
1, 28236, Note_on_c, 0, 64, 57
1, 28263, Note_off_c, 0, 61, 61
1, 28304, Note_off_c, 0, 64, 60
1, 28346, Note_on_c, 0, 69, 56
1, 28404, Note_off_c, 0, 69, 57
1, 28437, Note_on_c, 0, 67, 63
1, 28457, Note_on_c, 0, 64, 57
1, 28483, Note_off_c, 0, 67, 64
1, 28503, Note_off_c, 0, 64, 63
1, 28561, Note_on_c, 0, 69, 55
1, 28621, Note_off_c, 0, 69, 57
1, 28684, Note_on_c, 0, 61, 51
1, 28689, Note_on_c, 0, 64, 54
1, 28724, Note_off_c, 0, 61, 58
1, 28743, Note_off_c, 0, 64, 60
1, 28794, Note_on_c, 0, 69, 51
1, 28853, Note_off_c, 0, 69, 58
1, 28900, Note_on_c, 0, 64, 51
1, 28907, Note_on_c, 0, 67, 50
1, 28944, Note_off_c, 0, 67, 58
1, 28956, Control_c, 0, 67, 122
1, 28973, Control_c, 0, 67, 116
1, 28991, Note_off_c, 0, 64, 61
1, 29010, Control_c, 0, 67, 110
1, 29014, Note_on_c, 0, 69, 47
1, 29044, Note_off_c, 0, 69, 61
1, 29046, Control_c, 0, 67, 102
1, 29085, Control_c, 0, 67, 96
1, 29119, Note_on_c, 0, 65, 55
1, 29124, Control_c, 0, 67, 92
1, 29131, Note_on_c, 0, 62, 49
1, 29158, Control_c, 0, 67, 86
1, 29166, Note_off_c, 0, 65, 63
1, 29170, Note_off_c, 0, 62, 63
1, 29176, Control_c, 0, 67, 79
1, 29178, Note_on_c, 0, 69, 58
1, 29195, Control_c, 0, 67, 71
1, 29213, Control_c, 0, 67, 63
1, 29231, Control_c, 0, 67, 55
1, 29243, Note_off_c, 0, 69, 62
1, 29249, Control_c, 0, 67, 49
1, 29255, Note_on_c, 0, 71, 63
1, 29269, Control_c, 0, 67, 44
1, 29300, Note_off_c, 0, 71, 66
1, 29307, Control_c, 0, 67, 39
1, 29308, Note_on_c, 0, 73, 60
1, 29387, Note_on_c, 0, 65, 46
1, 29396, Note_off_c, 0, 73, 62
1, 29402, Note_on_c, 0, 74, 61
1, 29431, Note_off_c, 0, 65, 61
1, 29433, Control_c, 0, 67, 32
1, 29452, Control_c, 0, 67, 28
1, 29470, Control_c, 0, 67, 21
1, 29489, Control_c, 0, 67, 13
1, 29511, Note_off_c, 0, 74, 64
1, 29526, Note_on_c, 0, 69, 52
1, 29526, Control_c, 0, 67, 0
1, 29583, Note_off_c, 0, 69, 58
1, 29609, Note_on_c, 0, 62, 58
1, 29635, Note_on_c, 0, 65, 59
1, 29647, Note_off_c, 0, 62, 65
1, 29703, Note_off_c, 0, 65, 60
1, 29735, Note_on_c, 0, 69, 56
1, 29822, Note_off_c, 0, 69, 63
1, 29835, Note_on_c, 0, 65, 66
1, 29836, Note_on_c, 0, 74, 66
1, 29880, Note_off_c, 0, 65, 63
1, 29928, Note_off_c, 0, 74, 64
1, 29963, Note_on_c, 0, 69, 56
1, 30005, Note_off_c, 0, 69, 61
1, 30058, Note_on_c, 0, 65, 64
1, 30064, Note_on_c, 0, 62, 56
1, 30096, Note_off_c, 0, 62, 64
1, 30119, Note_off_c, 0, 65, 60
1, 30168, Note_on_c, 0, 69, 53
1, 30233, Note_off_c, 0, 69, 57
1, 30272, Note_on_c, 0, 74, 60
1, 30291, Note_on_c, 0, 65, 53
1, 30322, Note_off_c, 0, 65, 58
1, 30345, Note_off_c, 0, 74, 59
1, 30379, Note_on_c, 0, 69, 58
1, 30448, Note_off_c, 0, 69, 54
1, 30477, Note_on_c, 0, 66, 66
1, 30488, Note_on_c, 0, 60, 63
1, 30515, Note_off_c, 0, 60, 64
1, 30542, Note_off_c, 0, 66, 64
1, 30609, Note_on_c, 0, 74, 64
1, 30703, Note_off_c, 0, 74, 59
1, 30714, Note_on_c, 0, 66, 64
1, 30726, Note_on_c, 0, 69, 70
1, 30773, Note_off_c, 0, 69, 63
1, 30788, Note_off_c, 0, 66, 62
1, 30824, Note_on_c, 0, 64, 67
1, 30897, Note_off_c, 0, 64, 51
1, 30932, Note_on_c, 0, 66, 73
1, 30935, Note_on_c, 0, 60, 70
1, 30976, Note_off_c, 0, 60, 64
1, 30988, Note_off_c, 0, 66, 54
1, 31050, Note_on_c, 0, 74, 63
1, 31141, Note_off_c, 0, 74, 62
1, 31164, Note_on_c, 0, 66, 67
1, 31173, Note_on_c, 0, 69, 63
1, 31213, Note_off_c, 0, 69, 62
1, 31232, Note_off_c, 0, 66, 60
1, 31287, Note_on_c, 0, 74, 65
1, 31340, Note_off_c, 0, 74, 61
1, 31378, Note_on_c, 0, 66, 74
1, 31384, Note_on_c, 0, 60, 65
1, 31431, Note_off_c, 0, 60, 63
1, 31448, Note_off_c, 0, 66, 63
1, 31514, Note_on_c, 0, 74, 62
1, 31576, Note_off_c, 0, 74, 57
1, 31615, Note_on_c, 0, 66, 70
1, 31627, Note_on_c, 0, 69, 68
1, 31674, Note_off_c, 0, 69, 59
1, 31680, Note_off_c, 0, 66, 59
1, 31713, Note_on_c, 0, 74, 66
1, 31772, Note_off_c, 0, 74, 63
1, 31821, Note_on_c, 0, 67, 78
1, 31822, Note_on_c, 0, 59, 73
1, 31853, Note_off_c, 0, 59, 65
1, 31870, Note_off_c, 0, 67, 64
1, 31875, Note_on_c, 0, 69, 69
1, 31948, Note_on_c, 0, 71, 70
1, 31962, Note_off_c, 0, 69, 62
1, 32007, Note_on_c, 0, 72, 73
1, 32018, Note_off_c, 0, 71, 63
1, 32039, Note_on_c, 0, 67, 73
1, 32066, Note_on_c, 0, 74, 77
1, 32081, Note_off_c, 0, 67, 62
1, 32089, Note_off_c, 0, 72, 66
1, 32161, Note_on_c, 0, 71, 73
1, 32187, Note_off_c, 0, 74, 62
1, 32248, Note_on_c, 0, 59, 78
1, 32255, Note_off_c, 0, 71, 58
1, 32261, Note_on_c, 0, 67, 79
1, 32291, Note_off_c, 0, 59, 59
1, 32350, Note_off_c, 0, 67, 55
1, 32382, Note_on_c, 0, 71, 74
1, 32493, Note_on_c, 0, 67, 78
1, 32498, Note_off_c, 0, 71, 63
1, 32498, Note_on_c, 0, 74, 79
1, 32536, Note_off_c, 0, 67, 61
1, 32602, Note_off_c, 0, 74, 64
1, 32605, Note_on_c, 0, 71, 68
1, 32695, Note_off_c, 0, 71, 57
1, 32707, Note_on_c, 0, 59, 81
1, 32716, Note_on_c, 0, 67, 78
1, 32748, Note_off_c, 0, 59, 60
1, 32799, Note_off_c, 0, 67, 59
1, 32828, Note_on_c, 0, 71, 70
1, 32931, Note_off_c, 0, 71, 60
1, 32939, Note_on_c, 0, 74, 76
1, 32940, Note_on_c, 0, 67, 79
1, 32997, Note_off_c, 0, 67, 64
1, 33050, Note_off_c, 0, 74, 64
1, 33054, Note_on_c, 0, 71, 71
1, 33142, Note_off_c, 0, 71, 59
1, 33148, Note_on_c, 0, 64, 78
1, 33153, Note_on_c, 0, 68, 82
1, 33200, Note_off_c, 0, 64, 65
1, 33258, Note_off_c, 0, 68, 64
1, 33264, Note_on_c, 0, 74, 76
1, 33389, Note_off_c, 0, 74, 64
1, 33397, Note_on_c, 0, 68, 78
1, 33398, Note_on_c, 0, 71, 76
1, 33447, Note_off_c, 0, 71, 62
1, 33487, Note_off_c, 0, 68, 62
1, 33500, Note_on_c, 0, 66, 80
1, 33592, Note_off_c, 0, 66, 62
1, 33596, Note_on_c, 0, 64, 72
1, 33611, Note_on_c, 0, 68, 78
1, 33629, Note_off_c, 0, 64, 69
1, 33701, Note_off_c, 0, 68, 65
1, 33718, Note_on_c, 0, 74, 74
1, 33828, Note_on_c, 0, 71, 73
1, 33830, Note_on_c, 0, 68, 82
1, 33832, Note_off_c, 0, 74, 65
1, 33873, Note_off_c, 0, 71, 63
1, 33925, Note_off_c, 0, 68, 64
1, 33937, Note_on_c, 0, 74, 77
1, 34042, Note_on_c, 0, 64, 75
1, 34047, Note_off_c, 0, 74, 65
1, 34049, Note_on_c, 0, 68, 85
1, 34075, Note_off_c, 0, 64, 71
1, 34142, Note_off_c, 0, 68, 64
1, 34148, Note_on_c, 0, 74, 81
1, 34247, Control_c, 0, 64, 26
1, 34254, Note_on_c, 0, 71, 70
1, 34260, Note_on_c, 0, 68, 86
1, 34265, Control_c, 0, 64, 32
1, 34267, Note_off_c, 0, 74, 66
1, 34299, Control_c, 0, 64, 40
1, 34307, Note_off_c, 0, 71, 66
1, 34317, Control_c, 0, 64, 48
1, 34336, Control_c, 0, 64, 56
1, 34354, Control_c, 0, 64, 61
1, 34370, Control_c, 0, 64, 64
1, 34373, Note_on_c, 0, 74, 86
1, 34390, Control_c, 0, 64, 65
1, 34396, Note_off_c, 0, 68, 64
1, 34414, Note_off_c, 0, 74, 66
1, 34427, Control_c, 0, 64, 66
1, 34465, Control_c, 0, 64, 64
1, 34484, Control_c, 0, 64, 61
1, 34494, Note_on_c, 0, 57, 75
1, 34502, Control_c, 0, 64, 58
1, 34504, Note_on_c, 0, 72, 88
1, 34519, Control_c, 0, 64, 55
1, 34539, Control_c, 0, 64, 52
1, 34557, Control_c, 0, 64, 47
1, 34576, Control_c, 0, 64, 40
1, 34592, Control_c, 0, 64, 33
1, 34611, Control_c, 0, 64, 26
1, 34630, Control_c, 0, 64, 19
1, 34641, Note_on_c, 0, 69, 79
1, 34648, Control_c, 0, 64, 13
1, 34666, Control_c, 0, 64, 8
1, 34686, Control_c, 0, 64, 0
1, 34746, Note_on_c, 0, 67, 79
1, 34823, Note_off_c, 0, 69, 60
1, 34857, Note_on_c, 0, 65, 76
1, 34865, Note_off_c, 0, 67, 63
1, 34972, Note_off_c, 0, 65, 65
1, 34974, Note_on_c, 0, 64, 75
1, 35095, Note_on_c, 0, 62, 73
1, 35157, Note_off_c, 0, 64, 60
1, 35186, Note_off_c, 0, 57, 59
1, 35204, Note_on_c, 0, 60, 73
1, 35205, Note_off_c, 0, 62, 61
1, 35330, Note_on_c, 0, 59, 74
1, 35331, Note_off_c, 0, 60, 63
1, 35426, Note_off_c, 0, 72, 67
1, 35441, Note_on_c, 0, 57, 74
1, 35447, Note_off_c, 0, 59, 63
1, 35531, Note_off_c, 0, 57, 62
1, 35546, Note_on_c, 0, 60, 73
1, 35660, Note_off_c, 0, 60, 63
1, 35670, Note_on_c, 0, 59, 68
1, 35760, Note_on_c, 0, 57, 72
1, 35761, Note_off_c, 0, 59, 63
1, 35823, Note_off_c, 0, 57, 62
1, 35864, Note_on_c, 0, 65, 76
1, 35971, Note_off_c, 0, 65, 63
1, 35972, Note_on_c, 0, 62, 73
1, 36069, Note_off_c, 0, 62, 63
1, 36082, Note_on_c, 0, 57, 68
1, 36087, Note_on_c, 0, 69, 80
1, 36130, Note_off_c, 0, 69, 62
1, 36202, Note_off_c, 0, 57, 63
1, 36214, Note_on_c, 0, 62, 68
1, 36306, Note_off_c, 0, 62, 64
1, 36319, Note_on_c, 0, 65, 71
1, 36322, Note_on_c, 0, 74, 87
1, 36362, Note_off_c, 0, 74, 66
1, 36427, Note_off_c, 0, 65, 61
1, 36442, Note_on_c, 0, 62, 68
1, 36530, Note_off_c, 0, 62, 63
1, 36546, Note_on_c, 0, 77, 84
1, 36551, Note_on_c, 0, 57, 65
1, 36570, Note_off_c, 0, 77, 68
1, 36645, Note_off_c, 0, 57, 62
1, 36663, Note_on_c, 0, 62, 67
1, 36766, Note_off_c, 0, 62, 64
1, 36779, Note_on_c, 0, 65, 66
1, 36786, Note_on_c, 0, 81, 81
1, 36816, Note_on_c, 0, 80, 82
1, 36819, Note_off_c, 0, 81, 62
1, 36878, Note_off_c, 0, 65, 63
1, 36885, Note_on_c, 0, 81, 82
1, 36891, Note_off_c, 0, 80, 63
1, 36897, Note_on_c, 0, 62, 63
1, 36975, Note_off_c, 0, 62, 63
1, 36993, Note_on_c, 0, 57, 65
1, 37118, Note_off_c, 0, 57, 62
1, 37126, Note_on_c, 0, 62, 67
1, 37206, Note_off_c, 0, 62, 64
1, 37210, Note_off_c, 0, 81, 63
1, 37210, Note_on_c, 0, 64, 74
1, 37308, Note_off_c, 0, 64, 61
1, 37320, Note_on_c, 0, 62, 72
1, 37403, Note_off_c, 0, 62, 62
1, 37422, Note_on_c, 0, 57, 70
1, 37432, Note_on_c, 0, 69, 78
1, 37473, Note_off_c, 0, 69, 60
1, 37531, Note_off_c, 0, 57, 62
1, 37544, Note_on_c, 0, 62, 68
1, 37640, Note_off_c, 0, 62, 64
1, 37646, Note_on_c, 0, 64, 71
1, 37651, Note_on_c, 0, 72, 79
1, 37681, Note_off_c, 0, 72, 71
1, 37749, Note_off_c, 0, 64, 60
1, 37757, Note_on_c, 0, 60, 67
1, 37856, Note_off_c, 0, 60, 63
1, 37868, Note_on_c, 0, 76, 84
1, 37870, Note_on_c, 0, 57, 67
1, 37896, Note_off_c, 0, 76, 67
1, 37970, Note_off_c, 0, 57, 61
1, 37976, Note_on_c, 0, 60, 67
1, 38097, Note_off_c, 0, 60, 64
1, 38102, Note_on_c, 0, 64, 66
1, 38110, Note_on_c, 0, 81, 86
1, 38161, Note_off_c, 0, 81, 63
1, 38166, Note_on_c, 0, 80, 75
1, 38202, Note_off_c, 0, 64, 60
1, 38206, Note_on_c, 0, 60, 64
1, 38227, Note_on_c, 0, 81, 79
1, 38252, Note_off_c, 0, 80, 59
1, 38299, Note_off_c, 0, 60, 64
1, 38310, Note_on_c, 0, 57, 65
1, 38427, Note_off_c, 0, 57, 60
1, 38427, Note_on_c, 0, 60, 68
1, 38509, Note_off_c, 0, 60, 64
1, 38518, Note_on_c, 0, 62, 75
1, 38558, Note_off_c, 0, 81, 64
1, 38616, Note_off_c, 0, 62, 60
1, 38623, Note_on_c, 0, 59, 74
1, 38715, Note_off_c, 0, 59, 62
1, 38725, Note_on_c, 0, 57, 68
1, 38733, Note_on_c, 0, 74, 87
1, 38780, Note_off_c, 0, 74, 66
1, 38836, Note_off_c, 0, 57, 61
1, 38845, Note_on_c, 0, 59, 73
1, 38961, Note_off_c, 0, 59, 62
1, 38967, Note_on_c, 0, 62, 68
1, 38970, Note_on_c, 0, 80, 89
1, 39014, Note_off_c, 0, 80, 64
1, 39086, Note_off_c, 0, 62, 59
1, 39087, Note_on_c, 0, 59, 72
1, 39183, Note_off_c, 0, 59, 62
1, 39191, Note_on_c, 0, 56, 68
1, 39192, Note_on_c, 0, 83, 88
1, 39236, Note_off_c, 0, 83, 66
1, 39303, Note_off_c, 0, 56, 63
1, 39303, Note_on_c, 0, 59, 70
1, 39406, Note_off_c, 0, 59, 62
1, 39409, Note_on_c, 0, 62, 66
1, 39419, Note_on_c, 0, 80, 81
1, 39453, Note_off_c, 0, 80, 65
1, 39523, Note_off_c, 0, 62, 62
1, 39533, Note_on_c, 0, 59, 66
1, 39619, Note_off_c, 0, 59, 62
1, 39629, Note_on_c, 0, 56, 65
1, 39642, Note_on_c, 0, 76, 69
1, 39673, Note_off_c, 0, 76, 68
1, 39737, Note_off_c, 0, 56, 63
1, 39743, Note_on_c, 0, 59, 68
1, 39851, Note_on_c, 0, 81, 80
1, 39860, Note_on_c, 0, 60, 73
1, 39861, Note_off_c, 0, 59, 61
1, 39958, Note_off_c, 0, 60, 64
1, 40123, Note_on_c, 0, 45, 75
1, 40133, Note_on_c, 0, 79, 71
1, 40165, Note_off_c, 0, 81, 55
1, 40175, Note_off_c, 0, 45, 60
1, 40240, Note_on_c, 0, 77, 71
1, 40278, Note_off_c, 0, 79, 60
1, 40357, Note_on_c, 0, 76, 68
1, 40358, Note_on_c, 0, 48, 64
1, 40359, Note_off_c, 0, 77, 61
1, 40396, Note_off_c, 0, 48, 65
1, 40452, Note_off_c, 0, 76, 62
1, 40459, Note_on_c, 0, 74, 69
1, 40565, Note_on_c, 0, 52, 66
1, 40574, Note_on_c, 0, 72, 69
1, 40575, Note_off_c, 0, 74, 64
1, 40605, Note_off_c, 0, 52, 62
1, 40678, Note_off_c, 0, 72, 66
1, 40685, Note_on_c, 0, 71, 63
1, 40772, Note_off_c, 0, 71, 61
1, 40780, Note_on_c, 0, 57, 71
1, 40790, Note_on_c, 0, 69, 65
1, 40818, Note_off_c, 0, 57, 64
1, 40888, Note_off_c, 0, 69, 55
1, 40909, Note_on_c, 0, 72, 66
1, 41004, Note_off_c, 0, 72, 64
1, 41008, Note_on_c, 0, 60, 68
1, 41021, Note_on_c, 0, 71, 63
1, 41044, Note_off_c, 0, 60, 66
1, 41098, Note_off_c, 0, 71, 59
1, 41140, Note_on_c, 0, 69, 61
1, 41191, Note_off_c, 0, 69, 61
1, 41225, Note_on_c, 0, 62, 77
1, 41238, Note_on_c, 0, 77, 71
1, 41252, Note_off_c, 0, 62, 68
1, 41337, Note_off_c, 0, 77, 58
1, 41342, Note_on_c, 0, 74, 62
1, 41428, Note_off_c, 0, 74, 61
1, 41450, Note_on_c, 0, 65, 68
1, 41465, Note_on_c, 0, 69, 62
1, 41499, Note_off_c, 0, 65, 62
1, 41521, Note_off_c, 0, 69, 57
1, 41570, Note_on_c, 0, 74, 62
1, 41629, Note_off_c, 0, 74, 60
1, 41677, Note_on_c, 0, 77, 57
1, 41682, Note_on_c, 0, 57, 54
1, 41717, Note_off_c, 0, 57, 57
1, 41778, Note_off_c, 0, 77, 58
1, 41794, Note_on_c, 0, 74, 57
1, 41857, Note_off_c, 0, 74, 63
1, 41902, Note_on_c, 0, 62, 68
1, 41909, Note_on_c, 0, 69, 59
1, 41952, Note_off_c, 0, 62, 60
1, 41991, Note_off_c, 0, 69, 51
1, 42020, Note_on_c, 0, 74, 56
1, 42106, Note_off_c, 0, 74, 61
1, 42128, Note_on_c, 0, 50, 66
1, 42136, Note_on_c, 0, 77, 56
1, 42162, Note_off_c, 0, 50, 64
1, 42219, Note_off_c, 0, 77, 57
1, 42248, Note_on_c, 0, 74, 57
1, 42322, Note_off_c, 0, 74, 58
1, 42360, Note_on_c, 0, 59, 64
1, 42371, Note_on_c, 0, 69, 53
1, 42396, Note_off_c, 0, 59, 61
1, 42431, Note_off_c, 0, 69, 53
1, 42472, Note_on_c, 0, 74, 60
1, 42566, Note_off_c, 0, 74, 63
1, 42583, Note_on_c, 0, 60, 64
1, 42588, Note_on_c, 0, 76, 58
1, 42611, Note_off_c, 0, 60, 65
1, 42669, Note_off_c, 0, 76, 61
1, 42684, Note_on_c, 0, 74, 58
1, 42783, Note_off_c, 0, 74, 58
1, 42826, Note_on_c, 0, 64, 64
1, 42826, Note_on_c, 0, 69, 60
1, 42863, Note_off_c, 0, 64, 64
1, 42880, Note_off_c, 0, 69, 54
1, 42931, Note_on_c, 0, 74, 60
1, 43030, Note_off_c, 0, 74, 61
1, 43045, Note_on_c, 0, 57, 65
1, 43049, Note_on_c, 0, 76, 57
1, 43073, Note_off_c, 0, 57, 63
1, 43131, Note_off_c, 0, 76, 59
1, 43150, Note_on_c, 0, 72, 54
1, 43219, Note_off_c, 0, 72, 58
1, 43266, Note_on_c, 0, 60, 64
1, 43272, Note_on_c, 0, 69, 58
1, 43315, Note_off_c, 0, 60, 62
1, 43367, Note_off_c, 0, 69, 53
1, 43381, Note_on_c, 0, 72, 52
1, 43469, Note_off_c, 0, 72, 67
1, 43486, Note_on_c, 0, 76, 58
1, 43529, Poly_aftertouch_c, 0, 48, 0
1, 43577, Note_off_c, 0, 76, 60
1, 43603, Note_on_c, 0, 72, 54
1, 43673, Note_off_c, 0, 72, 64
1, 43723, Note_on_c, 0, 57, 67
1, 43724, Note_on_c, 0, 69, 63
1, 43761, Note_off_c, 0, 57, 61
1, 43830, Note_off_c, 0, 69, 55
1, 43831, Note_on_c, 0, 72, 59
1, 43926, Note_on_c, 0, 59, 77
1, 43929, Note_off_c, 0, 72, 65
1, 43939, Note_on_c, 0, 74, 66
1, 43955, Note_off_c, 0, 59, 67
1, 44048, Note_off_c, 0, 74, 63
1, 44063, Note_on_c, 0, 71, 63
1, 44146, Note_on_c, 0, 62, 69
1, 44156, Note_off_c, 0, 71, 61
1, 44165, Note_on_c, 0, 69, 65
1, 44188, Note_off_c, 0, 62, 60
1, 44258, Note_off_c, 0, 69, 61
1, 44267, Note_on_c, 0, 71, 65
1, 44354, Note_off_c, 0, 71, 63
1, 44357, Note_on_c, 0, 56, 77
1, 44368, Note_on_c, 0, 74, 70
1, 44406, Note_off_c, 0, 56, 63
1, 44473, Note_on_c, 0, 71, 68
1, 44475, Note_off_c, 0, 74, 62
1, 44585, Note_on_c, 0, 59, 81
1, 44599, Note_on_c, 0, 68, 73
1, 44602, Note_off_c, 0, 71, 62
1, 44641, Note_off_c, 0, 59, 62
1, 44712, Note_on_c, 0, 71, 73
1, 44714, Note_off_c, 0, 68, 63
1, 44810, Note_on_c, 0, 64, 78
1, 44816, Note_off_c, 0, 71, 63
1, 44828, Note_on_c, 0, 74, 77
1, 44856, Note_off_c, 0, 64, 63
1, 44941, Note_on_c, 0, 71, 73
1, 44953, Note_off_c, 0, 74, 62
1, 45038, Note_off_c, 0, 71, 63
1, 45038, Note_on_c, 0, 52, 72
1, 45042, Note_on_c, 0, 68, 77
1, 45083, Note_off_c, 0, 52, 64
1, 45148, Note_on_c, 0, 71, 77
1, 45161, Note_off_c, 0, 68, 64
1, 45223, Note_off_c, 0, 71, 63
1, 45262, Note_on_c, 0, 72, 81
1, 45277, Note_on_c, 0, 57, 67
1, 45381, Note_on_c, 0, 69, 75
1, 45485, Note_on_c, 0, 67, 76
1, 45572, Note_off_c, 0, 69, 56
1, 45605, Note_on_c, 0, 65, 73
1, 45610, Note_off_c, 0, 67, 64
1, 45716, Note_off_c, 0, 65, 64
1, 45725, Note_on_c, 0, 64, 79
1, 45819, Note_off_c, 0, 57, 62
1, 45823, Note_on_c, 0, 62, 73
1, 45884, Note_off_c, 0, 64, 64
1, 45935, Note_off_c, 0, 62, 60
1, 45935, Note_on_c, 0, 60, 71
1, 46021, Note_on_c, 0, 59, 69
1, 46023, Note_off_c, 0, 60, 63
1, 46126, Note_off_c, 0, 59, 62
1, 46129, Note_on_c, 0, 57, 66
1, 46204, Note_off_c, 0, 57, 60
1, 46227, Note_on_c, 0, 60, 66
1, 46315, Note_off_c, 0, 60, 46
1, 46319, Note_on_c, 0, 52, 63
1, 46422, Note_off_c, 0, 52, 59
1, 46436, Note_on_c, 0, 55, 61
1, 46543, Note_off_c, 0, 55, 63
1, 46545, Note_on_c, 0, 54, 65
1, 46552, Control_c, 0, 64, 18
1, 46572, Control_c, 0, 64, 31
1, 46584, Note_off_c, 0, 54, 65
1, 46588, Control_c, 0, 64, 40
1, 46596, Note_off_c, 0, 72, 59
1, 46607, Control_c, 0, 64, 45
1, 46626, Control_c, 0, 64, 49
1, 46663, Note_on_c, 0, 75, 68
1, 46682, Control_c, 0, 64, 45
1, 46701, Control_c, 0, 64, 42
1, 46719, Control_c, 0, 64, 38
1, 46738, Control_c, 0, 64, 31
1, 46756, Control_c, 0, 64, 22
1, 46757, Note_on_c, 0, 69, 71
1, 46760, Note_off_c, 0, 75, 60
1, 46765, Note_on_c, 0, 74, 70
1, 46773, Control_c, 0, 64, 12
1, 46790, Note_off_c, 0, 69, 66
1, 46793, Control_c, 0, 64, 0
1, 46852, Note_off_c, 0, 74, 64
1, 46871, Note_on_c, 0, 72, 63
1, 46908, Note_off_c, 0, 72, 70
1, 46981, Note_on_c, 0, 72, 70
1, 46991, Note_on_c, 0, 78, 66
1, 47018, Note_off_c, 0, 72, 67
1, 47099, Note_off_c, 0, 78, 63
1, 47107, Note_on_c, 0, 75, 62
1, 47220, Note_on_c, 0, 74, 62
1, 47223, Note_off_c, 0, 75, 58
1, 47227, Note_on_c, 0, 69, 55
1, 47265, Note_off_c, 0, 69, 61
1, 47294, Note_off_c, 0, 74, 62
1, 47323, Note_on_c, 0, 72, 60
1, 47373, Note_off_c, 0, 72, 64
1, 47437, Note_on_c, 0, 81, 66
1, 47441, Note_on_c, 0, 66, 55
1, 47477, Note_off_c, 0, 66, 62
1, 47540, Note_on_c, 0, 75, 64
1, 47544, Note_off_c, 0, 81, 57
1, 47651, Note_off_c, 0, 75, 60
1, 47658, Note_on_c, 0, 62, 47
1, 47660, Note_on_c, 0, 74, 58
1, 47723, Note_off_c, 0, 62, 58
1, 47728, Note_off_c, 0, 74, 65
1, 47770, Note_on_c, 0, 72, 51
1, 47807, Note_off_c, 0, 72, 60
1, 47873, Note_on_c, 0, 70, 64
1, 47874, Note_on_c, 0, 67, 57
1, 47910, Note_off_c, 0, 70, 67
1, 47921, Note_off_c, 0, 67, 62
1, 47981, Note_on_c, 0, 79, 60
1, 48086, Note_on_c, 0, 55, 59
1, 48093, Note_on_c, 0, 77, 63
1, 48127, Note_off_c, 0, 79, 55
1, 48137, Note_off_c, 0, 55, 62
1, 48188, Note_on_c, 0, 75, 69
1, 48196, Note_off_c, 0, 77, 60
1, 48300, Note_on_c, 0, 74, 68
1, 48306, Note_on_c, 0, 58, 53
1, 48308, Note_off_c, 0, 75, 62
1, 48367, Note_off_c, 0, 58, 63
1, 48403, Note_off_c, 0, 74, 63
1, 48434, Note_on_c, 0, 72, 63
1, 48520, Note_off_c, 0, 72, 64
1, 48525, Note_on_c, 0, 62, 54
1, 48533, Note_on_c, 0, 70, 65
1, 48567, Note_off_c, 0, 62, 63
1, 48645, Note_off_c, 0, 70, 60
1, 48654, Note_on_c, 0, 69, 60
1, 48748, Note_off_c, 0, 69, 64
1, 48753, Note_on_c, 0, 67, 56
1, 48760, Note_on_c, 0, 72, 66
1, 48793, Note_off_c, 0, 67, 65
1, 48860, Note_on_c, 0, 70, 63
1, 48869, Note_off_c, 0, 72, 61
1, 48945, Note_off_c, 0, 70, 62
1, 48967, Note_on_c, 0, 69, 56
1, 48985, Note_on_c, 0, 65, 53
1, 49015, Note_off_c, 0, 65, 62
1, 49057, Note_off_c, 0, 69, 61
1, 49066, Note_on_c, 0, 67, 63
1, 49177, Note_on_c, 0, 64, 65
1, 49177, Note_on_c, 0, 72, 69
1, 49178, Note_off_c, 0, 67, 64
1, 49223, Note_off_c, 0, 72, 68
1, 49280, Note_off_c, 0, 64, 58
1, 49295, Note_on_c, 0, 61, 62
1, 49386, Note_off_c, 0, 61, 62
1, 49410, Note_on_c, 0, 60, 58
1, 49412, Note_on_c, 0, 76, 80
1, 49466, Note_off_c, 0, 76, 65
1, 49522, Note_on_c, 0, 58, 58
1, 49524, Note_off_c, 0, 60, 60
1, 49609, Note_off_c, 0, 58, 56
1, 49629, Note_on_c, 0, 71, 79
1, 49635, Note_on_c, 0, 65, 60
1, 49671, Note_off_c, 0, 71, 63
1, 49747, Note_off_c, 0, 65, 58
1, 49752, Note_on_c, 0, 61, 60
1, 49857, Note_on_c, 0, 77, 79
1, 49859, Note_off_c, 0, 61, 63
1, 49873, Note_on_c, 0, 60, 64
1, 49896, Note_off_c, 0, 77, 59
1, 49979, Note_off_c, 0, 60, 60
1, 49980, Note_on_c, 0, 58, 61
1, 50052, Note_off_c, 0, 58, 55
1, 50077, Note_on_c, 0, 67, 61
1, 50078, Note_on_c, 0, 70, 69
1, 50108, Note_off_c, 0, 70, 67
1, 50182, Note_off_c, 0, 67, 60
1, 50203, Note_on_c, 0, 61, 63
1, 50305, Note_on_c, 0, 79, 80
1, 50308, Note_off_c, 0, 61, 60
1, 50316, Note_on_c, 0, 60, 61
1, 50413, Note_on_c, 0, 58, 68
1, 50421, Note_off_c, 0, 60, 60
1, 50544, Note_on_c, 0, 57, 63
1, 50549, Note_off_c, 0, 58, 59
1, 50643, Note_off_c, 0, 57, 61
1, 50648, Note_on_c, 0, 65, 64
1, 50650, Note_on_c, 0, 74, 72
1, 50686, Note_off_c, 0, 79, 64
1, 50738, Note_off_c, 0, 74, 65
1, 50744, Note_on_c, 0, 72, 79
1, 50752, Note_off_c, 0, 65, 64
1, 50757, Note_on_c, 0, 64, 69
1, 50840, Note_off_c, 0, 72, 67
1, 50842, Note_off_c, 0, 64, 63
1, 50847, Note_on_c, 0, 70, 77
1, 50849, Note_on_c, 0, 62, 69
1, 50924, Note_off_c, 0, 62, 63
1, 50943, Note_off_c, 0, 70, 64
1, 50949, Note_on_c, 0, 69, 80
1, 50952, Note_on_c, 0, 60, 76
1, 51035, Note_off_c, 0, 69, 57
1, 51050, Note_on_c, 0, 79, 78
1, 51059, Note_on_c, 0, 58, 68
1, 51060, Note_off_c, 0, 60, 60
1, 51154, Note_off_c, 0, 58, 64
1, 51165, Note_on_c, 0, 57, 65
1, 51176, Note_on_c, 0, 77, 75
1, 51213, Note_off_c, 0, 79, 64
1, 51277, Note_on_c, 0, 76, 76
1, 51279, Note_off_c, 0, 57, 61
1, 51279, Note_on_c, 0, 55, 63
1, 51285, Note_off_c, 0, 77, 61
1, 51371, Note_on_c, 0, 58, 66
1, 51378, Note_off_c, 0, 55, 62
1, 51379, Note_off_c, 0, 76, 62
1, 51382, Note_on_c, 0, 74, 79
1, 51447, Note_off_c, 0, 58, 64
1, 51480, Note_on_c, 0, 57, 66
1, 51483, Note_on_c, 0, 82, 74
1, 51489, Note_off_c, 0, 74, 59
1, 51574, Note_off_c, 0, 57, 62
1, 51584, Note_on_c, 0, 55, 62
1, 51589, Note_on_c, 0, 76, 66
1, 51599, Note_off_c, 0, 82, 63
1, 51669, Note_off_c, 0, 55, 63
1, 51677, Note_off_c, 0, 76, 64
1, 51684, Note_on_c, 0, 53, 59
1, 51698, Note_on_c, 0, 74, 68
1, 51747, Control_c, 0, 64, 12
1, 51764, Control_c, 0, 64, 34
1, 51776, Note_off_c, 0, 53, 60
1, 51781, Note_on_c, 0, 52, 64
1, 51783, Control_c, 0, 64, 47
1, 51797, Note_off_c, 0, 74, 59
1, 51798, Note_on_c, 0, 73, 70
1, 51801, Control_c, 0, 64, 52
1, 51817, Note_off_c, 0, 52, 68
1, 51858, Control_c, 0, 64, 46
1, 51878, Control_c, 0, 64, 39
1, 51895, Control_c, 0, 64, 31
1, 51906, Note_on_c, 0, 67, 58
1, 51908, Note_off_c, 0, 73, 65
1, 51908, Note_on_c, 0, 70, 63
1, 51933, Control_c, 0, 64, 25
1, 51951, Control_c, 0, 64, 19
1, 51970, Control_c, 0, 64, 0
1, 51973, Note_off_c, 0, 67, 51
1, 52002, Note_on_c, 0, 65, 63
1, 52006, Note_on_c, 0, 69, 68
1, 52013, Note_off_c, 0, 70, 58
1, 52110, Note_off_c, 0, 65, 64
1, 52112, Note_off_c, 0, 69, 61
1, 52127, Note_on_c, 0, 67, 63
1, 52129, Note_on_c, 0, 64, 57
1, 52217, Note_off_c, 0, 67, 61
1, 52224, Note_off_c, 0, 64, 63
1, 52229, Note_on_c, 0, 74, 68
1, 52233, Note_on_c, 0, 62, 62
1, 52321, Note_off_c, 0, 62, 56
1, 52346, Note_on_c, 0, 70, 62
1, 52362, Note_on_c, 0, 67, 44
1, 52378, Note_off_c, 0, 74, 58
1, 52409, Note_off_c, 0, 67, 53
1, 52449, Note_on_c, 0, 65, 55
1, 52455, Note_on_c, 0, 69, 61
1, 52457, Note_off_c, 0, 70, 58
1, 52538, Note_off_c, 0, 65, 64
1, 52547, Note_off_c, 0, 69, 62
1, 52557, Note_on_c, 0, 67, 57
1, 52561, Note_on_c, 0, 64, 55
1, 52638, Note_off_c, 0, 67, 63
1, 52655, Note_off_c, 0, 64, 61
1, 52660, Note_on_c, 0, 61, 59
1, 52680, Note_on_c, 0, 76, 65
1, 52756, Note_off_c, 0, 61, 57
1, 52784, Note_on_c, 0, 67, 56
1, 52793, Note_on_c, 0, 70, 63
1, 52797, Note_off_c, 0, 76, 55
1, 52844, Note_off_c, 0, 67, 59
1, 52855, Control_c, 0, 64, 14
1, 52872, Control_c, 0, 64, 31
1, 52873, Note_on_c, 0, 65, 55
1, 52891, Control_c, 0, 64, 46
1, 52899, Note_off_c, 0, 70, 60
1, 52906, Note_on_c, 0, 69, 59
1, 52910, Control_c, 0, 64, 57
1, 52928, Control_c, 0, 64, 62
1, 52946, Control_c, 0, 64, 65
1, 52961, Note_off_c, 0, 65, 64
1, 52962, Control_c, 0, 64, 67
1, 52970, Note_on_c, 0, 64, 60
1, 52987, Note_off_c, 0, 69, 63
1, 53015, Note_on_c, 0, 67, 60
1, 53016, Control_c, 0, 64, 60
1, 53019, Note_off_c, 0, 64, 63
1, 53035, Control_c, 0, 64, 42
1, 53053, Control_c, 0, 64, 0
1, 53062, Note_off_c, 0, 67, 65
1, 53100, Note_on_c, 0, 50, 66
1, 53107, Control_c, 0, 64, 20
1, 53119, Note_on_c, 0, 65, 68
1, 53125, Control_c, 0, 64, 36
1, 53142, Note_off_c, 0, 50, 64
1, 53148, Control_c, 0, 64, 49
1, 53165, Control_c, 0, 64, 57
1, 53180, Control_c, 0, 64, 60
1, 53200, Control_c, 0, 64, 61
1, 53238, Note_on_c, 0, 63, 56
1, 53274, Control_c, 0, 64, 60
1, 53312, Control_c, 0, 64, 55
1, 53330, Control_c, 0, 64, 50
1, 53338, Note_off_c, 0, 63, 62
1, 53346, Control_c, 0, 64, 47
1, 53357, Note_on_c, 0, 62, 64
1, 53363, Note_on_c, 0, 66, 72
1, 53401, Control_c, 0, 64, 43
1, 53421, Control_c, 0, 64, 39
1, 53429, Note_off_c, 0, 65, 61
1, 53440, Control_c, 0, 64, 33
1, 53458, Control_c, 0, 64, 27
1, 53460, Note_off_c, 0, 62, 61
1, 53472, Note_on_c, 0, 60, 61
1, 53495, Control_c, 0, 64, 23
1, 53532, Control_c, 0, 64, 18
1, 53550, Control_c, 0, 64, 14
1, 53568, Note_off_c, 0, 60, 63
1, 53568, Control_c, 0, 64, 9
1, 53576, Note_on_c, 0, 58, 65
1, 53582, Note_on_c, 0, 67, 73
1, 53587, Control_c, 0, 64, 0
1, 53594, Note_off_c, 0, 66, 61
1, 53675, Note_off_c, 0, 58, 62
1, 53702, Note_on_c, 0, 60, 67
1, 53809, Note_off_c, 0, 60, 59
1, 53816, Note_on_c, 0, 69, 75
1, 53818, Note_on_c, 0, 58, 65
1, 53851, Note_off_c, 0, 67, 56
1, 53911, Note_on_c, 0, 57, 67
1, 53913, Note_off_c, 0, 58, 60
1, 54054, Note_on_c, 0, 55, 69
1, 54056, Note_on_c, 0, 70, 79
1, 54058, Note_off_c, 0, 57, 64
1, 54121, Note_off_c, 0, 69, 60
1, 54171, Note_off_c, 0, 55, 63
1, 54184, Note_on_c, 0, 57, 71
1, 54292, Note_on_c, 0, 71, 79
1, 54296, Note_on_c, 0, 55, 73
1, 54303, Note_off_c, 0, 57, 57
1, 54307, Note_off_c, 0, 70, 63
1, 54394, Note_on_c, 0, 53, 70
1, 54395, Note_off_c, 0, 55, 63
1, 54507, Note_off_c, 0, 53, 61
1, 54519, Note_on_c, 0, 52, 71
1, 54527, Note_on_c, 0, 72, 78
1, 54541, Note_off_c, 0, 71, 61
1, 54630, Note_on_c, 0, 58, 70
1, 54662, Note_off_c, 0, 52, 61
1, 54743, Note_on_c, 0, 73, 81
1, 54749, Note_off_c, 0, 58, 65
1, 54755, Note_on_c, 0, 57, 76
1, 54791, Note_off_c, 0, 72, 63
1, 54868, Note_off_c, 0, 57, 61
1, 54895, Note_on_c, 0, 55, 57
1, 54918, Note_on_c, 0, 53, 43
1, 54986, Note_off_c, 0, 53, 0
1, 54995, Note_on_c, 0, 74, 83
1, 54999, Note_off_c, 0, 55, 64
1, 55004, Note_on_c, 0, 53, 51
1, 55021, Note_off_c, 0, 73, 62
1, 55094, Note_off_c, 0, 53, 60
1, 55107, Note_on_c, 0, 55, 73
1, 55206, Note_off_c, 0, 55, 63
1, 55211, Note_on_c, 0, 76, 80
1, 55213, Note_on_c, 0, 53, 75
1, 55217, Note_off_c, 0, 74, 64
1, 55310, Note_off_c, 0, 53, 58
1, 55310, Note_on_c, 0, 52, 71
1, 55436, Note_on_c, 0, 50, 73
1, 55437, Note_off_c, 0, 52, 64
1, 55445, Note_off_c, 0, 76, 64
1, 55447, Note_on_c, 0, 77, 82
1, 55543, Note_off_c, 0, 50, 63
1, 55544, Note_on_c, 0, 51, 72
1, 55639, Note_off_c, 0, 51, 61
1, 55659, Note_on_c, 0, 50, 79
1, 55666, Note_on_c, 0, 78, 82
1, 55700, Note_off_c, 0, 77, 59
1, 55774, Note_on_c, 0, 48, 75
1, 55789, Note_off_c, 0, 50, 58
1, 55889, Note_on_c, 0, 46, 85
1, 55900, Note_on_c, 0, 79, 84
1, 55901, Note_off_c, 0, 48, 63
1, 55904, Note_off_c, 0, 78, 61
1, 55942, Note_off_c, 0, 46, 63
1, 56014, Note_off_c, 0, 79, 60
1, 56027, Note_on_c, 0, 74, 80
1, 56134, Note_on_c, 0, 43, 81
1, 56135, Note_off_c, 0, 74, 60
1, 56137, Note_on_c, 0, 82, 80
1, 56176, Note_off_c, 0, 43, 68
1, 56222, Note_off_c, 0, 82, 68
1, 56254, Note_on_c, 0, 81, 74
1, 56346, Note_on_c, 0, 46, 76
1, 56357, Note_on_c, 0, 79, 75
1, 56382, Note_off_c, 0, 81, 59
1, 56387, Note_off_c, 0, 46, 68
1, 56472, Note_on_c, 0, 77, 75
1, 56481, Note_off_c, 0, 79, 64
1, 56569, Note_on_c, 0, 50, 77
1, 56570, Note_off_c, 0, 77, 61
1, 56574, Note_on_c, 0, 76, 76
1, 56597, Note_off_c, 0, 50, 66
1, 56644, Note_off_c, 0, 76, 57
1, 56675, Note_on_c, 0, 74, 73
1, 56782, Note_on_c, 0, 55, 79
1, 56804, Note_off_c, 0, 74, 65
1, 56805, Note_on_c, 0, 73, 74
1, 56836, Note_on_c, 0, 53, 74
1, 56838, Note_off_c, 0, 55, 62
1, 56904, Note_on_c, 0, 55, 69
1, 56908, Note_off_c, 0, 53, 62
1, 56910, Note_off_c, 0, 73, 64
1, 56914, Note_on_c, 0, 74, 73
1, 57036, Note_on_c, 0, 76, 73
1, 57038, Note_off_c, 0, 74, 65
1, 57135, Note_on_c, 0, 73, 76
1, 57165, Note_off_c, 0, 76, 59
1, 57230, Note_off_c, 0, 55, 63
1, 57242, Note_on_c, 0, 69, 81
1, 57283, Note_off_c, 0, 73, 64
1, 57323, Note_off_c, 0, 69, 60
1, 57369, Note_on_c, 0, 55, 73
1, 57451, Note_off_c, 0, 55, 59
1, 57468, Note_on_c, 0, 45, 71
1, 57471, Note_on_c, 0, 64, 80
1, 57530, Note_off_c, 0, 64, 60
1, 57563, Note_off_c, 0, 45, 62
1, 57572, Note_on_c, 0, 43, 71
1, 57700, Note_on_c, 0, 69, 82
1, 57704, Note_off_c, 0, 43, 61
1, 57707, Note_on_c, 0, 45, 72
1, 57743, Note_off_c, 0, 69, 64
1, 57781, Note_off_c, 0, 45, 60
1, 57804, Note_on_c, 0, 55, 70
1, 57896, Note_off_c, 0, 55, 62
1, 57924, Note_on_c, 0, 45, 73
1, 57932, Note_on_c, 0, 73, 78
1, 57960, Note_off_c, 0, 73, 70
1, 58020, Note_off_c, 0, 45, 60
1, 58030, Note_on_c, 0, 55, 69
1, 58123, Note_off_c, 0, 55, 62
1, 58137, Note_on_c, 0, 76, 81
1, 58157, Note_on_c, 0, 45, 72
1, 58183, Note_on_c, 0, 74, 83
1, 58207, Note_off_c, 0, 76, 61
1, 58256, Note_off_c, 0, 45, 62
1, 58258, Note_on_c, 0, 55, 70
1, 58264, Note_on_c, 0, 76, 65
1, 58293, Note_off_c, 0, 74, 66
1, 58330, Note_off_c, 0, 55, 60
1, 58369, Note_on_c, 0, 45, 71
1, 58440, Note_off_c, 0, 45, 56
1, 58459, Note_on_c, 0, 55, 69
1, 58511, Note_off_c, 0, 55, 62
1, 58564, Note_on_c, 0, 45, 68
1, 58567, Note_off_c, 0, 76, 62
1, 58657, Note_off_c, 0, 45, 57
1, 58683, Note_on_c, 0, 53, 65
1, 58686, Note_on_c, 0, 69, 67
1, 58765, Note_off_c, 0, 53, 52
1, 58776, Note_off_c, 0, 69, 62
1, 58786, Note_on_c, 0, 45, 67
1, 58790, Note_on_c, 0, 65, 69
1, 58871, Note_off_c, 0, 45, 61
1, 58882, Note_on_c, 0, 43, 64
1, 58887, Note_off_c, 0, 65, 63
1, 58907, Note_on_c, 0, 69, 69
1, 58984, Note_off_c, 0, 69, 61
1, 58985, Note_off_c, 0, 43, 61
1, 58997, Note_on_c, 0, 45, 64
1, 59005, Note_on_c, 0, 74, 70
1, 59065, Note_off_c, 0, 45, 58
1, 59095, Note_off_c, 0, 74, 65
1, 59111, Note_on_c, 0, 53, 56
1, 59113, Note_on_c, 0, 69, 66
1, 59173, Note_off_c, 0, 53, 55
1, 59187, Note_off_c, 0, 69, 58
1, 59216, Note_on_c, 0, 65, 65
1, 59216, Note_on_c, 0, 45, 61
1, 59293, Note_off_c, 0, 65, 57
1, 59297, Note_off_c, 0, 45, 59
1, 59330, Note_on_c, 0, 53, 53
1, 59331, Note_on_c, 0, 69, 61
1, 59363, Note_off_c, 0, 69, 65
1, 59393, Note_off_c, 0, 53, 57
1, 59412, Note_on_c, 0, 74, 68
1, 59444, Note_on_c, 0, 45, 62
1, 59455, Note_off_c, 0, 74, 66
1, 59464, Note_on_c, 0, 72, 66
1, 59505, Note_off_c, 0, 45, 60
1, 59531, Note_on_c, 0, 74, 66
1, 59537, Note_on_c, 0, 53, 59
1, 59556, Note_off_c, 0, 72, 60
1, 59645, Note_off_c, 0, 53, 52
1, 59676, Note_on_c, 0, 45, 55
1, 59745, Note_off_c, 0, 45, 59
1, 59791, Note_on_c, 0, 53, 55
1, 59837, Note_off_c, 0, 53, 61
1, 59874, Note_on_c, 0, 45, 58
1, 59888, Note_off_c, 0, 74, 59
1, 59968, Note_off_c, 0, 45, 57
1, 59984, Note_on_c, 0, 67, 54
1, 59999, Note_on_c, 0, 52, 55
1, 60079, Note_off_c, 0, 67, 57
1, 60094, Note_off_c, 0, 52, 55
1, 60096, Note_on_c, 0, 64, 60
1, 60120, Note_on_c, 0, 45, 56
1, 60187, Note_off_c, 0, 45, 61
1, 60197, Note_off_c, 0, 64, 60
1, 60217, Note_on_c, 0, 67, 57
1, 60220, Note_on_c, 0, 43, 54
1, 60290, Note_off_c, 0, 67, 57
1, 60298, Note_off_c, 0, 43, 61
1, 60325, Note_on_c, 0, 72, 58
1, 60331, Note_on_c, 0, 45, 52
1, 60392, Note_off_c, 0, 45, 57
1, 60409, Note_off_c, 0, 72, 65
1, 60438, Note_on_c, 0, 67, 55
1, 60442, Note_on_c, 0, 52, 44
1, 60510, Note_off_c, 0, 52, 55
1, 60523, Note_off_c, 0, 67, 57
1, 60547, Note_on_c, 0, 45, 51
1, 60561, Note_on_c, 0, 64, 53
1, 60565, Control_c, 0, 64, 14
1, 60583, Control_c, 0, 64, 20
1, 60601, Control_c, 0, 64, 24
1, 60630, Note_off_c, 0, 64, 56
1, 60642, Note_off_c, 0, 45, 60
1, 60648, Note_on_c, 0, 52, 48
1, 60659, Note_on_c, 0, 67, 51
1, 60675, Control_c, 0, 64, 12
1, 60693, Note_off_c, 0, 67, 62
1, 60693, Control_c, 0, 64, 0
1, 60725, Note_off_c, 0, 52, 59
1, 60766, Note_on_c, 0, 72, 62
1, 60772, Note_on_c, 0, 45, 50
1, 60801, Note_off_c, 0, 72, 70
1, 60805, Note_on_c, 0, 70, 65
1, 60846, Note_off_c, 0, 45, 59
1, 60860, Note_off_c, 0, 70, 60
1, 60875, Note_on_c, 0, 52, 50
1, 60887, Note_on_c, 0, 72, 61
1, 60951, Note_off_c, 0, 52, 58
1, 60986, Note_on_c, 0, 45, 55
1, 61073, Note_off_c, 0, 45, 58
1, 61104, Note_on_c, 0, 52, 50
1, 61188, Note_off_c, 0, 52, 57
1, 61227, Control_c, 0, 64, 8
1, 61232, Note_on_c, 0, 45, 46
1, 61246, Control_c, 0, 64, 13
1, 61265, Control_c, 0, 64, 18
1, 61303, Control_c, 0, 64, 22
1, 61311, Note_off_c, 0, 45, 50
1, 61311, Note_off_c, 0, 72, 37
1, 61324, Note_on_c, 0, 65, 55
1, 61335, Note_on_c, 0, 50, 45
1, 61410, Note_off_c, 0, 50, 62
1, 61453, Note_off_c, 0, 65, 61
1, 61453, Note_on_c, 0, 53, 57
1, 61459, Note_on_c, 0, 62, 63
1, 61552, Note_off_c, 0, 53, 56
1, 61556, Note_on_c, 0, 50, 60
1, 61559, Control_c, 0, 64, 18
1, 61560, Note_on_c, 0, 65, 65
1, 61562, Note_off_c, 0, 62, 61
1, 61614, Control_c, 0, 64, 13
1, 61647, Note_off_c, 0, 50, 62
1, 61659, Note_off_c, 0, 65, 64
1, 61668, Note_on_c, 0, 45, 57
1, 61669, Control_c, 0, 64, 0
1, 61669, Note_on_c, 0, 70, 67
1, 61772, Note_off_c, 0, 45, 61
1, 61772, Note_on_c, 0, 65, 66
1, 61773, Note_off_c, 0, 70, 61
1, 61791, Note_on_c, 0, 50, 62
1, 61866, Note_off_c, 0, 65, 63
1, 61878, Note_off_c, 0, 50, 62
1, 61883, Note_on_c, 0, 62, 67
1, 61884, Note_on_c, 0, 53, 63
1, 61959, Note_off_c, 0, 53, 61
1, 61977, Note_on_c, 0, 57, 63
1, 61980, Note_off_c, 0, 62, 63
1, 61992, Note_on_c, 0, 65, 67
1, 62019, Note_off_c, 0, 57, 64
1, 62048, Note_off_c, 0, 65, 60
1, 62074, Note_on_c, 0, 43, 70
1, 62085, Note_on_c, 0, 70, 68
1, 62160, Note_off_c, 0, 43, 53
1, 62188, Note_off_c, 0, 70, 59
1, 62189, Note_on_c, 0, 52, 62
1, 62195, Note_on_c, 0, 67, 64
1, 62264, Note_off_c, 0, 52, 62
1, 62275, Note_off_c, 0, 67, 61
1, 62292, Note_on_c, 0, 64, 63
1, 62295, Note_on_c, 0, 55, 67
1, 62352, Note_off_c, 0, 64, 55
1, 62406, Note_off_c, 0, 55, 63
1, 62413, Note_on_c, 0, 67, 59
1, 62420, Note_on_c, 0, 58, 66
1, 62494, Note_off_c, 0, 58, 63
1, 62498, Note_off_c, 0, 67, 62
1, 62521, Note_on_c, 0, 61, 68
1, 62529, Note_on_c, 0, 55, 61
1, 62566, Note_off_c, 0, 55, 66
1, 62596, Note_off_c, 0, 61, 53
1, 62639, Note_on_c, 0, 69, 64
1, 62736, Note_on_c, 0, 49, 71
1, 62744, Note_off_c, 0, 69, 61
1, 62761, Note_on_c, 0, 70, 62
1, 62769, Note_off_c, 0, 49, 67
1, 62848, Note_off_c, 0, 70, 61
1, 62872, Note_on_c, 0, 69, 61
1, 62951, Note_off_c, 0, 69, 56
1, 62973, Note_on_c, 0, 52, 59
1, 62987, Note_on_c, 0, 61, 58
1, 63004, Note_off_c, 0, 52, 62
1, 63051, Note_off_c, 0, 61, 52
1, 63105, Note_on_c, 0, 69, 53
1, 63201, Note_off_c, 0, 69, 61
1, 63208, Note_on_c, 0, 43, 63
1, 63219, Note_on_c, 0, 70, 57
1, 63335, Note_off_c, 0, 70, 55
1, 63349, Note_on_c, 0, 69, 55
1, 63457, Note_off_c, 0, 69, 61
1, 63459, Note_on_c, 0, 61, 61
1, 63530, Control_c, 0, 64, 16
1, 63548, Control_c, 0, 64, 21
1, 63556, Note_off_c, 0, 61, 60
1, 63562, Note_off_c, 0, 43, 62
1, 63570, Note_on_c, 0, 46, 62
1, 63659, Control_c, 0, 64, 13
1, 63677, Control_c, 0, 64, 8
1, 63691, Note_off_c, 0, 46, 64
1, 63691, Note_on_c, 0, 64, 66
1, 63696, Control_c, 0, 64, 0
1, 63699, Note_on_c, 0, 45, 63
1, 63795, Note_off_c, 0, 45, 62
1, 63801, Note_on_c, 0, 43, 66
1, 63913, Note_off_c, 0, 43, 62
1, 63915, Note_on_c, 0, 41, 70
1, 63988, Note_off_c, 0, 41, 59
1, 64025, Note_on_c, 0, 53, 65
1, 64042, Note_on_c, 0, 69, 68
1, 64083, Note_off_c, 0, 64, 58
1, 64130, Note_off_c, 0, 53, 57
1, 64138, Note_on_c, 0, 52, 64
1, 64145, Note_off_c, 0, 69, 63
1, 64148, Note_on_c, 0, 70, 71
1, 64217, Note_off_c, 0, 52, 63
1, 64229, Note_on_c, 0, 53, 64
1, 64271, Note_on_c, 0, 69, 71
1, 64301, Note_off_c, 0, 70, 56
1, 64328, Note_off_c, 0, 53, 59
1, 64370, Note_on_c, 0, 41, 73
1, 64372, Note_off_c, 0, 69, 61
1, 64375, Note_on_c, 0, 62, 76
1, 64437, Note_off_c, 0, 41, 60
1, 64484, Note_on_c, 0, 69, 72
1, 64485, Note_on_c, 0, 53, 63
1, 64491, Note_off_c, 0, 62, 63
1, 64578, Note_off_c, 0, 69, 62
1, 64580, Note_off_c, 0, 53, 57
1, 64585, Note_on_c, 0, 70, 71
1, 64592, Note_on_c, 0, 52, 66
1, 64671, Note_off_c, 0, 52, 63
1, 64677, Note_on_c, 0, 69, 70
1, 64678, Note_off_c, 0, 70, 64
1, 64691, Note_on_c, 0, 53, 71
1, 64774, Note_off_c, 0, 53, 58
1, 64803, Note_on_c, 0, 62, 76
1, 64805, Note_off_c, 0, 69, 62
1, 64806, Note_on_c, 0, 41, 77
1, 64839, Note_off_c, 0, 62, 66
1, 64880, Note_off_c, 0, 41, 61
1, 64914, Note_on_c, 0, 53, 69
1, 65017, Note_on_c, 0, 65, 81
1, 65019, Note_off_c, 0, 53, 60
1, 65024, Note_on_c, 0, 52, 69
1, 65104, Note_off_c, 0, 52, 62
1, 65125, Note_on_c, 0, 50, 78
1, 65252, Note_on_c, 0, 49, 83
1, 65271, Note_off_c, 0, 50, 63
1, 65300, Note_off_c, 0, 65, 64
1, 65321, Note_off_c, 0, 49, 62
1, 65376, Note_on_c, 0, 67, 80
1, 65484, Note_on_c, 0, 69, 80
1, 65486, Note_off_c, 0, 67, 64
1, 65487, Note_on_c, 0, 40, 75
1, 65520, Note_off_c, 0, 40, 64
1, 65520, Note_on_c, 0, 41, 37
1, 65521, Note_off_c, 0, 41, 127
1, 65592, Note_on_c, 0, 67, 79
1, 65612, Note_off_c, 0, 69, 58
1, 65700, Note_on_c, 0, 43, 83
1, 65708, Note_on_c, 0, 64, 78
1, 65716, Note_off_c, 0, 67, 64
1, 65775, Note_off_c, 0, 43, 63
1, 65812, Note_on_c, 0, 67, 75
1, 65822, Note_off_c, 0, 64, 62
1, 65926, Note_on_c, 0, 69, 78
1, 65929, Note_off_c, 0, 67, 65
1, 65935, Note_on_c, 0, 37, 85
1, 66033, Note_on_c, 0, 67, 76
1, 66076, Note_off_c, 0, 69, 58
1, 66143, Note_off_c, 0, 37, 59
1, 66155, Control_c, 0, 64, 15
1, 66160, Note_off_c, 0, 67, 54
1, 66163, Note_on_c, 0, 57, 81
1, 66174, Control_c, 0, 64, 23
1, 66194, Control_c, 0, 64, 27
1, 66230, Control_c, 0, 64, 31
1, 66232, Note_off_c, 0, 57, 64
1, 66261, Note_on_c, 0, 49, 77
1, 66285, Control_c, 0, 64, 27
1, 66322, Control_c, 0, 64, 19
1, 66341, Control_c, 0, 64, 12
1, 66359, Control_c, 0, 64, 0
1, 66363, Note_off_c, 0, 49, 63
1, 66375, Note_on_c, 0, 47, 74
1, 66400, Note_on_c, 0, 67, 88
1, 66497, Note_on_c, 0, 45, 76
1, 66504, Note_off_c, 0, 47, 64
1, 66504, Control_c, 0, 64, 15
1, 66523, Control_c, 0, 64, 24
1, 66543, Control_c, 0, 64, 31
1, 66560, Control_c, 0, 64, 37
1, 66577, Note_off_c, 0, 67, 64
1, 66579, Control_c, 0, 64, 41
1, 66598, Control_c, 0, 64, 44
1, 66609, Note_on_c, 0, 50, 81
1, 66624, Note_off_c, 0, 45, 61
1, 66671, Control_c, 0, 64, 41
1, 66708, Control_c, 0, 64, 32
1, 66714, Note_on_c, 0, 58, 82
1, 66728, Control_c, 0, 64, 23
1, 66744, Control_c, 0, 64, 11
1, 66763, Control_c, 0, 64, 0
1, 66769, Note_off_c, 0, 50, 60
1, 66821, Note_on_c, 0, 57, 80
1, 66826, Note_off_c, 0, 58, 60
1, 66830, Note_on_c, 0, 38, 78
1, 66880, Note_off_c, 0, 38, 64
1, 66933, Note_on_c, 0, 55, 76
1, 66934, Note_off_c, 0, 57, 63
1, 67035, Note_off_c, 0, 55, 62
1, 67055, Note_on_c, 0, 57, 81
1, 67055, Note_on_c, 0, 41, 80
1, 67105, Note_off_c, 0, 41, 63
1, 67161, Note_off_c, 0, 57, 64
1, 67173, Note_on_c, 0, 64, 71
1, 67272, Note_on_c, 0, 62, 79
1, 67288, Note_on_c, 0, 45, 77
1, 67305, Note_off_c, 0, 64, 61
1, 67319, Note_off_c, 0, 45, 65
1, 67391, Note_on_c, 0, 61, 73
1, 67394, Note_off_c, 0, 62, 59
1, 67500, Note_on_c, 0, 62, 81
1, 67502, Note_off_c, 0, 61, 63
1, 67511, Note_on_c, 0, 50, 69
1, 67527, Note_on_c, 0, 48, 57
1, 67552, Note_off_c, 0, 50, 65
1, 67552, Note_on_c, 0, 49, 71
1, 67559, Note_off_c, 0, 48, 57
1, 67613, Note_on_c, 0, 67, 73
1, 67629, Note_off_c, 0, 62, 60
1, 67632, Note_on_c, 0, 50, 76
1, 67640, Note_off_c, 0, 49, 61
1, 67715, Note_off_c, 0, 67, 60
1, 67717, Note_on_c, 0, 65, 68
1, 67818, Note_off_c, 0, 65, 64
1, 67822, Note_on_c, 0, 64, 71
1, 67908, Note_off_c, 0, 64, 63
1, 67924, Note_on_c, 0, 65, 69
1, 68041, Note_on_c, 0, 58, 72
1, 68051, Note_off_c, 0, 50, 62
1, 68052, Note_off_c, 0, 65, 64
1, 68056, Note_on_c, 0, 55, 62
1, 68120, Note_off_c, 0, 58, 64
1, 68150, Note_off_c, 0, 55, 62
1, 68151, Note_on_c, 0, 60, 66
1, 68157, Note_on_c, 0, 57, 63
1, 68213, Note_off_c, 0, 57, 62
1, 68247, Note_on_c, 0, 58, 69
1, 68252, Note_on_c, 0, 62, 67
1, 68254, Note_off_c, 0, 60, 62
1, 68293, Note_off_c, 0, 58, 64
1, 68344, Note_on_c, 0, 48, 70
1, 68351, Note_on_c, 0, 63, 70
1, 68359, Note_off_c, 0, 62, 62
1, 68433, Note_off_c, 0, 63, 60
1, 68435, Note_off_c, 0, 48, 54
1, 68458, Note_on_c, 0, 54, 68
1, 68466, Note_on_c, 0, 57, 62
1, 68544, Note_off_c, 0, 57, 55
1, 68544, Note_off_c, 0, 54, 63
1, 68563, Note_on_c, 0, 58, 63
1, 68569, Note_on_c, 0, 55, 59
1, 68639, Note_off_c, 0, 55, 62
1, 68653, Note_off_c, 0, 58, 62
1, 68673, Note_on_c, 0, 57, 64
1, 68676, Note_on_c, 0, 60, 62
1, 68721, Note_off_c, 0, 57, 63
1, 68766, Note_off_c, 0, 60, 60
1, 68767, Note_on_c, 0, 46, 69
1, 68781, Note_on_c, 0, 62, 63
1, 68866, Note_off_c, 0, 46, 63
1, 68872, Note_off_c, 0, 62, 62
1, 68885, Note_on_c, 0, 55, 55
1, 68886, Note_on_c, 0, 58, 62
1, 68965, Note_off_c, 0, 55, 63
1, 68985, Note_off_c, 0, 58, 62
1, 68987, Note_on_c, 0, 57, 63
1, 69014, Note_on_c, 0, 60, 58
1, 69091, Note_off_c, 0, 57, 59
1, 69098, Note_on_c, 0, 58, 63
1, 69099, Note_off_c, 0, 60, 63
1, 69121, Note_on_c, 0, 62, 63
1, 69148, Note_off_c, 0, 58, 65
1, 69205, Note_off_c, 0, 62, 63
1, 69215, Note_on_c, 0, 63, 67
1, 69216, Note_on_c, 0, 48, 60
1, 69288, Note_off_c, 0, 48, 59
1, 69307, Note_off_c, 0, 63, 60
1, 69314, Note_on_c, 0, 54, 61
1, 69316, Note_on_c, 0, 57, 63
1, 69395, Note_off_c, 0, 54, 63
1, 69398, Note_off_c, 0, 57, 60
1, 69407, Note_on_c, 0, 55, 61
1, 69424, Note_on_c, 0, 58, 56
1, 69486, Note_off_c, 0, 55, 63
1, 69518, Note_off_c, 0, 58, 63
1, 69527, Note_on_c, 0, 57, 61
1, 69538, Note_on_c, 0, 60, 58
1, 69591, Note_off_c, 0, 57, 49
1, 69608, Note_off_c, 0, 60, 62
1, 69619, Note_on_c, 0, 46, 61
1, 69636, Note_on_c, 0, 62, 56
1, 69717, Note_off_c, 0, 62, 60
1, 69724, Note_off_c, 0, 46, 64
1, 69727, Note_on_c, 0, 58, 60
1, 69732, Note_on_c, 0, 55, 62
1, 69775, Control_c, 0, 64, 18
1, 69792, Control_c, 0, 64, 27
1, 69803, Note_off_c, 0, 55, 61
1, 69811, Control_c, 0, 64, 35
1, 69830, Control_c, 0, 64, 40
1, 69834, Note_off_c, 0, 58, 62
1, 69843, Note_on_c, 0, 57, 56
1, 69846, Note_on_c, 0, 60, 63
1, 69848, Control_c, 0, 64, 43
1, 69931, Note_off_c, 0, 57, 63
1, 69936, Note_on_c, 0, 58, 49
1, 69940, Note_off_c, 0, 60, 63
1, 69952, Note_on_c, 0, 62, 67
1, 69971, Note_off_c, 0, 58, 56
1, 70028, Control_c, 0, 64, 38
1, 70044, Note_off_c, 0, 62, 63
1, 70053, Note_on_c, 0, 60, 68
1, 70054, Note_on_c, 0, 45, 66
1, 70066, Control_c, 0, 64, 32
1, 70101, Control_c, 0, 64, 25
1, 70138, Control_c, 0, 64, 21
1, 70155, Note_off_c, 0, 45, 58
1, 70158, Note_on_c, 0, 50, 59
1, 70161, Note_on_c, 0, 54, 63
1, 70169, Note_off_c, 0, 60, 64
1, 70195, Control_c, 0, 64, 16
1, 70232, Control_c, 0, 64, 10
1, 70259, Note_off_c, 0, 54, 61
1, 70264, Note_on_c, 0, 52, 62
1, 70269, Note_on_c, 0, 55, 62
1, 70272, Note_off_c, 0, 50, 60
1, 70324, Control_c, 0, 64, 0
1, 70348, Note_off_c, 0, 52, 63
1, 70380, Note_on_c, 0, 57, 70
1, 70382, Note_on_c, 0, 54, 65
1, 70402, Note_off_c, 0, 55, 58
1, 70427, Note_off_c, 0, 54, 63
1, 70488, Note_on_c, 0, 43, 62
1, 70506, Note_on_c, 0, 58, 67
1, 70537, Note_off_c, 0, 57, 61
1, 70620, Note_off_c, 0, 43, 58
1, 70633, Note_on_c, 0, 50, 64
1, 70720, Note_off_c, 0, 50, 63
1, 70740, Note_on_c, 0, 52, 65
1, 70859, Note_on_c, 0, 54, 64
1, 70917, Note_off_c, 0, 52, 48
1, 70970, Note_on_c, 0, 55, 71
1, 70986, Note_off_c, 0, 58, 59
1, 71005, Note_off_c, 0, 54, 60
1, 71044, Note_on_c, 0, 57, 71
1, 71160, Note_on_c, 0, 58, 62
1, 71184, Note_off_c, 0, 57, 60
1, 71274, Note_on_c, 0, 60, 78
1, 71305, Note_off_c, 0, 58, 63
1, 71312, Control_c, 0, 64, 25
1, 71332, Control_c, 0, 64, 36
1, 71340, Note_off_c, 0, 55, 61
1, 71388, Note_on_c, 0, 62, 77
1, 71389, Control_c, 0, 64, 20
1, 71407, Control_c, 0, 64, 11
1, 71412, Note_off_c, 0, 60, 62
1, 71461, Control_c, 0, 64, 25
1, 71481, Control_c, 0, 64, 36
1, 71484, Note_off_c, 0, 62, 63
1, 71487, Note_on_c, 0, 58, 66
1, 71497, Control_c, 0, 64, 45
1, 71516, Control_c, 0, 64, 53
1, 71534, Control_c, 0, 64, 56
1, 71554, Note_off_c, 0, 58, 65
1, 71572, Control_c, 0, 64, 51
1, 71589, Control_c, 0, 64, 41
1, 71593, Note_on_c, 0, 67, 78
1, 71609, Control_c, 0, 64, 30
1, 71699, Note_on_c, 0, 62, 76
1, 71701, Note_off_c, 0, 67, 64
1, 71720, Control_c, 0, 64, 34
1, 71826, Control_c, 0, 64, 30
1, 71833, Note_on_c, 0, 70, 77
1, 71835, Note_off_c, 0, 62, 50
1, 71865, Control_c, 0, 64, 25
1, 71899, Control_c, 0, 64, 18
1, 71919, Control_c, 0, 64, 14
1, 71937, Control_c, 0, 64, 10
1, 71949, Note_on_c, 0, 67, 72
1, 71954, Control_c, 0, 64, 0
1, 71981, Note_off_c, 0, 70, 63
1, 72057, Note_off_c, 0, 67, 64
1, 72068, Note_on_c, 0, 65, 67
1, 72160, Note_off_c, 0, 65, 65
1, 72164, Note_on_c, 0, 63, 70
1, 72282, Note_on_c, 0, 62, 62
1, 72289, Note_off_c, 0, 63, 62
1, 72378, Note_on_c, 0, 60, 62
1, 72410, Note_off_c, 0, 62, 63
1, 72475, Note_off_c, 0, 60, 59
1, 72477, Note_on_c, 0, 58, 60
1, 72575, Note_off_c, 0, 58, 63
1, 72594, Note_on_c, 0, 57, 58
1, 72697, Note_off_c, 0, 57, 61
1, 72710, Note_on_c, 0, 55, 61
1, 72786, Note_off_c, 0, 55, 57
1, 72829, Note_on_c, 0, 58, 57
1, 72904, Note_off_c, 0, 58, 59
1, 72931, Note_on_c, 0, 52, 54
1, 72999, Note_off_c, 0, 52, 60
1, 73031, Note_on_c, 0, 55, 60
1, 73123, Note_off_c, 0, 55, 58
1, 73140, Note_on_c, 0, 49, 57
1, 73247, Note_on_c, 0, 70, 66
1, 73362, Note_on_c, 0, 69, 69
1, 73389, Note_off_c, 0, 70, 59
1, 73461, Note_off_c, 0, 69, 63
1, 73463, Note_on_c, 0, 67, 69
1, 73566, Note_on_c, 0, 76, 73
1, 73622, Note_off_c, 0, 67, 57
1, 73689, Note_on_c, 0, 74, 74
1, 73724, Note_off_c, 0, 49, 61
1, 73740, Note_off_c, 0, 76, 57
1, 73794, Note_on_c, 0, 73, 71
1, 73808, Note_on_c, 0, 45, 66
1, 73834, Note_off_c, 0, 74, 60
1, 73870, Note_off_c, 0, 45, 58
1, 73913, Note_on_c, 0, 71, 65
1, 73938, Note_off_c, 0, 73, 62
1, 74021, Note_off_c, 0, 71, 64
1, 74022, Note_on_c, 0, 69, 69
1, 74022, Note_on_c, 0, 47, 66
1, 74066, Note_off_c, 0, 47, 63
1, 74127, Note_on_c, 0, 67, 69
1, 74134, Note_off_c, 0, 69, 62
1, 74236, Note_on_c, 0, 49, 64
1, 74241, Note_on_c, 0, 65, 65
1, 74253, Note_off_c, 0, 67, 61
1, 74285, Note_off_c, 0, 49, 63
1, 74338, Note_on_c, 0, 64, 67
1, 74344, Note_off_c, 0, 65, 64
1, 74407, Note_off_c, 0, 64, 51
1, 74445, Note_on_c, 0, 65, 80
1, 74455, Note_on_c, 0, 50, 65
1, 74487, Note_off_c, 0, 50, 66
1, 74587, Note_on_c, 0, 62, 61
1, 74597, Note_off_c, 0, 65, 64
1, 74671, Note_off_c, 0, 62, 47
1, 74682, Note_on_c, 0, 67, 77
1, 74685, Note_on_c, 0, 52, 61
1, 74719, Note_off_c, 0, 52, 66
1, 74806, Note_on_c, 0, 62, 64
1, 74813, Note_off_c, 0, 67, 63
1, 74891, Note_off_c, 0, 62, 54
1, 74895, Note_on_c, 0, 53, 51
1, 74900, Note_on_c, 0, 69, 79
1, 74928, Note_off_c, 0, 53, 50
1, 75013, Note_on_c, 0, 62, 57
1, 75017, Note_off_c, 0, 69, 61
1, 75084, Note_off_c, 0, 62, 58
1, 75128, Note_on_c, 0, 55, 58
1, 75128, Note_on_c, 0, 70, 72
1, 75222, Note_off_c, 0, 55, 60
1, 75251, Note_on_c, 0, 62, 60
1, 75258, Control_c, 0, 64, 9
1, 75277, Control_c, 0, 64, 20
1, 75295, Control_c, 0, 64, 29
1, 75302, Note_off_c, 0, 70, 63
1, 75315, Control_c, 0, 64, 38
1, 75332, Note_off_c, 0, 62, 63
1, 75333, Control_c, 0, 64, 46
1, 75352, Control_c, 0, 64, 50
1, 75370, Note_on_c, 0, 57, 64
1, 75494, Control_c, 0, 64, 48
1, 75512, Control_c, 0, 64, 46
1, 75523, Note_off_c, 0, 57, 59
1, 75530, Control_c, 0, 64, 43
1, 75563, Note_on_c, 0, 62, 56
1, 75569, Control_c, 0, 64, 36
1, 75588, Control_c, 0, 64, 32
1, 75610, Control_c, 0, 64, 25
1, 75626, Control_c, 0, 64, 21
1, 75646, Control_c, 0, 64, 16
1, 75654, Note_off_c, 0, 62, 62
1, 75665, Control_c, 0, 64, 8
1, 75666, Note_on_c, 0, 64, 64
1, 75681, Note_on_c, 0, 45, 60
1, 75683, Control_c, 0, 64, 0
1, 75745, Note_off_c, 0, 45, 57
1, 75774, Note_off_c, 0, 64, 62
1, 75787, Note_on_c, 0, 61, 63
1, 75876, Note_off_c, 0, 61, 63
1, 75911, Note_on_c, 0, 62, 61
1, 75916, Note_on_c, 0, 50, 60
1, 75974, Note_off_c, 0, 50, 60
1, 76004, Note_off_c, 0, 62, 63
1, 76028, Note_on_c, 0, 60, 58
1, 76116, Note_off_c, 0, 60, 60
1, 76122, Note_on_c, 0, 57, 57
1, 76129, Note_on_c, 0, 54, 60
1, 76172, Note_off_c, 0, 57, 58
1, 76192, Note_off_c, 0, 54, 55
1, 76241, Note_on_c, 0, 60, 56
1, 76326, Note_off_c, 0, 60, 63
1, 76337, Note_on_c, 0, 50, 57
1, 76341, Note_on_c, 0, 62, 62
1, 76384, Note_off_c, 0, 50, 62
1, 76434, Note_off_c, 0, 62, 63
1, 76457, Note_on_c, 0, 60, 58
1, 76560, Note_off_c, 0, 60, 62
1, 76570, Note_on_c, 0, 57, 55
1, 76576, Note_on_c, 0, 54, 57
1, 76612, Note_off_c, 0, 57, 63
1, 76634, Note_off_c, 0, 54, 57
1, 76678, Note_on_c, 0, 60, 54
1, 76765, Note_off_c, 0, 60, 62
1, 76780, Note_on_c, 0, 62, 63
1, 76784, Note_on_c, 0, 50, 54
1, 76828, Note_off_c, 0, 50, 63
1, 76864, Note_off_c, 0, 62, 61
1, 76887, Note_on_c, 0, 60, 58
1, 76985, Note_off_c, 0, 60, 62
1, 77004, Note_on_c, 0, 57, 57
1, 77005, Note_on_c, 0, 54, 58
1, 77053, Note_off_c, 0, 57, 60
1, 77062, Note_off_c, 0, 54, 58
1, 77107, Note_on_c, 0, 60, 51
1, 77206, Note_off_c, 0, 60, 57
1, 77216, Note_on_c, 0, 58, 61
1, 77220, Note_on_c, 0, 50, 56
1, 77263, Note_off_c, 0, 50, 61
1, 77296, Note_off_c, 0, 58, 63
1, 77325, Note_on_c, 0, 62, 52
1, 77434, Note_off_c, 0, 62, 61
1, 77463, Note_on_c, 0, 55, 50
1, 77465, Note_on_c, 0, 58, 55
1, 77507, Note_off_c, 0, 55, 62
1, 77548, Note_off_c, 0, 58, 58
1, 77570, Note_on_c, 0, 54, 51
1, 77646, Note_off_c, 0, 54, 57
1, 77667, Note_on_c, 0, 50, 56
1, 77683, Note_on_c, 0, 58, 52
1, 77714, Note_off_c, 0, 50, 62
1, 77740, Note_off_c, 0, 58, 62
1, 77783, Note_on_c, 0, 62, 51
1, 77882, Note_off_c, 0, 62, 59
1, 77896, Note_on_c, 0, 58, 54
1, 77910, Note_on_c, 0, 55, 46
1, 77953, Note_off_c, 0, 55, 54
1, 77982, Note_off_c, 0, 58, 61
1, 78008, Note_on_c, 0, 54, 47
1, 78095, Note_off_c, 0, 54, 59
1, 78125, Note_on_c, 0, 50, 53
1, 78128, Note_on_c, 0, 58, 47
1, 78168, Note_off_c, 0, 50, 63
1, 78184, Note_off_c, 0, 58, 62
1, 78221, Note_on_c, 0, 62, 51
1, 78336, Note_off_c, 0, 62, 55
1, 78345, Note_on_c, 0, 58, 49
1, 78374, Note_on_c, 0, 55, 41
1, 78429, Note_off_c, 0, 58, 56
1, 78434, Note_off_c, 0, 55, 48
1, 78458, Control_c, 0, 64, 12
1, 78471, Note_on_c, 0, 52, 46
1, 78475, Control_c, 0, 64, 20
1, 78494, Control_c, 0, 64, 25
1, 78532, Control_c, 0, 64, 29
1, 78567, Note_off_c, 0, 52, 54
1, 78567, Control_c, 0, 64, 25
1, 78582, Note_on_c, 0, 53, 58
1, 78583, Note_on_c, 0, 50, 54
1, 78586, Control_c, 0, 64, 19
1, 78606, Control_c, 0, 64, 14
1, 78625, Control_c, 0, 64, 8
1, 78643, Control_c, 0, 64, 0
1, 78645, Note_off_c, 0, 50, 59
1, 78666, Note_off_c, 0, 53, 55
1, 78695, Note_on_c, 0, 62, 53
1, 78716, Control_c, 0, 67, 8
1, 78734, Control_c, 0, 67, 12
1, 78752, Control_c, 0, 67, 18
1, 78770, Control_c, 0, 67, 27
1, 78789, Control_c, 0, 67, 38
1, 78808, Control_c, 0, 67, 50
1, 78809, Note_off_c, 0, 62, 60
1, 78811, Note_on_c, 0, 57, 57
1, 78813, Note_on_c, 0, 53, 58
1, 78827, Control_c, 0, 67, 57
1, 78861, Note_off_c, 0, 57, 61
1, 78879, Note_off_c, 0, 53, 52
1, 78927, Note_on_c, 0, 62, 53
1, 78997, Note_off_c, 0, 62, 54
1, 79032, Note_on_c, 0, 53, 59
1, 79037, Note_on_c, 0, 50, 55
1, 79090, Note_off_c, 0, 50, 62
1, 79090, Note_off_c, 0, 53, 58
1, 79151, Note_on_c, 0, 62, 55
1, 79250, Note_off_c, 0, 62, 54
1, 79284, Note_on_c, 0, 57, 49
1, 79289, Note_on_c, 0, 53, 50
1, 79320, Note_off_c, 0, 57, 55
1, 79335, Note_off_c, 0, 53, 57
1, 79398, Note_on_c, 0, 62, 55
1, 79469, Note_off_c, 0, 62, 51
1, 79505, Note_on_c, 0, 53, 52
1, 79506, Note_on_c, 0, 50, 49
1, 79555, Note_off_c, 0, 50, 60
1, 79558, Note_off_c, 0, 53, 58
1, 79621, Note_on_c, 0, 62, 54
1, 79682, Note_off_c, 0, 62, 58
1, 79723, Note_on_c, 0, 57, 51
1, 79743, Note_on_c, 0, 53, 48
1, 79764, Note_off_c, 0, 57, 56
1, 79794, Note_off_c, 0, 53, 53
1, 79828, Note_on_c, 0, 62, 58
1, 79872, Control_c, 0, 67, 61
1, 79891, Control_c, 0, 67, 65
1, 79908, Control_c, 0, 67, 70
1, 79920, Note_off_c, 0, 62, 57
1, 79927, Control_c, 0, 67, 75
1, 79937, Note_on_c, 0, 50, 51
1, 79946, Control_c, 0, 67, 79
1, 79956, Note_on_c, 0, 55, 54
1, 79972, Note_off_c, 0, 50, 61
1, 79981, Control_c, 0, 67, 84
1, 80024, Note_off_c, 0, 55, 60
1, 80054, Note_on_c, 0, 61, 54
1, 80169, Note_on_c, 0, 58, 66
1, 80176, Note_off_c, 0, 61, 60
1, 80196, Note_on_c, 0, 55, 55
1, 80210, Note_off_c, 0, 58, 62
1, 80261, Note_off_c, 0, 55, 58
1, 80301, Note_on_c, 0, 52, 48
1, 80371, Note_off_c, 0, 52, 58
1, 80399, Note_on_c, 0, 50, 60
1, 80401, Note_on_c, 0, 55, 51
1, 80437, Note_off_c, 0, 50, 61
1, 80486, Note_off_c, 0, 55, 57
1, 80522, Note_on_c, 0, 61, 51
1, 80611, Note_off_c, 0, 61, 53
1, 80629, Note_on_c, 0, 58, 61
1, 80641, Note_on_c, 0, 55, 51
1, 80667, Note_off_c, 0, 58, 64
1, 80700, Note_off_c, 0, 55, 59
1, 80759, Note_on_c, 0, 52, 41
1, 80845, Note_off_c, 0, 52, 43
1, 80875, Note_on_c, 0, 55, 48
1, 80890, Note_on_c, 0, 50, 37
1, 80934, Note_off_c, 0, 50, 52
1, 80960, Note_off_c, 0, 55, 54
1, 81014, Note_on_c, 0, 61, 51
1, 81146, Note_off_c, 0, 61, 58
1, 81159, Note_on_c, 0, 55, 49
1, 81165, Note_on_c, 0, 58, 51
1, 81200, Note_off_c, 0, 58, 59
1, 81254, Note_off_c, 0, 55, 53
1, 81331, Note_on_c, 0, 52, 43
1, 81424, Note_off_c, 0, 52, 56
1, 81592, Note_on_c, 0, 57, 45
1, 81616, Note_on_c, 0, 50, 33
1, 81625, Note_on_c, 0, 62, 47
1, 81632, Note_on_c, 0, 54, 31
1, 82313, Control_c, 0, 64, 12
1, 82331, Control_c, 0, 64, 20
1, 82351, Control_c, 0, 64, 28
1, 82368, Control_c, 0, 64, 37
1, 82388, Control_c, 0, 64, 45
1, 82406, Control_c, 0, 64, 52
1, 82424, Control_c, 0, 64, 56
1, 82441, Control_c, 0, 64, 60
1, 82460, Control_c, 0, 64, 64
1, 82479, Control_c, 0, 64, 67
1, 82496, Control_c, 0, 64, 70
1, 82515, Control_c, 0, 64, 73
1, 82533, Control_c, 0, 64, 76
1, 82553, Control_c, 0, 64, 78
1, 82755, Control_c, 0, 64, 76
1, 82810, Control_c, 0, 64, 74
1, 82847, Control_c, 0, 64, 72
1, 82902, Control_c, 0, 64, 69
1, 82903, Control_c, 0, 67, 80
1, 82921, Control_c, 0, 64, 67
1, 82939, Control_c, 0, 64, 66
1, 82971, Control_c, 0, 64, 65
1, 82990, Control_c, 0, 64, 64
1, 83010, Control_c, 0, 64, 63
1, 83011, Control_c, 0, 67, 75
1, 83027, Control_c, 0, 64, 61
1, 83046, Control_c, 0, 64, 59
1, 83065, Control_c, 0, 64, 56
1, 83084, Control_c, 0, 67, 70
1, 83102, Control_c, 0, 64, 53
1, 83119, Control_c, 0, 64, 51
1, 83120, Control_c, 0, 67, 65
1, 83140, Control_c, 0, 64, 48
1, 83157, Control_c, 0, 64, 46
1, 83157, Control_c, 0, 67, 60
1, 83175, Control_c, 0, 64, 43
1, 83193, Control_c, 0, 67, 55
1, 83211, Control_c, 0, 64, 36
1, 83230, Control_c, 0, 67, 49
1, 83248, Control_c, 0, 64, 30
1, 83267, Control_c, 0, 67, 43
1, 83286, Control_c, 0, 64, 24
1, 83304, Control_c, 0, 67, 38
1, 83323, Control_c, 0, 64, 19
1, 83343, Control_c, 0, 67, 32
1, 83377, Control_c, 0, 64, 14
1, 83379, Control_c, 0, 67, 24
1, 83398, Control_c, 0, 67, 19
1, 83413, Poly_aftertouch_c, 0, 50, 24
1, 83415, Control_c, 0, 64, 8
1, 83416, Control_c, 0, 67, 12
1, 83450, Control_c, 0, 64, 0
1, 83451, Control_c, 0, 67, 0
1, 83457, Note_off_c, 0, 50, 40
1, 83510, Note_off_c, 0, 57, 49
1, 83549, Note_off_c, 0, 54, 47
1, 83567, Note_off_c, 0, 62, 45
1, 84493, Note_on_c, 0, 62, 45
1, 84740, Note_on_c, 0, 64, 56
1, 84752, Note_off_c, 0, 62, 53
1, 84910, Note_on_c, 0, 65, 56
1, 84919, Note_off_c, 0, 64, 61
1, 85056, Note_on_c, 0, 67, 61
1, 85064, Note_off_c, 0, 65, 63
1, 85210, Note_on_c, 0, 65, 65
1, 85249, Note_off_c, 0, 67, 56
1, 85340, Note_on_c, 0, 64, 64
1, 85344, Note_off_c, 0, 65, 58
1, 85496, Note_on_c, 0, 65, 64
1, 85535, Note_off_c, 0, 64, 60
1, 85641, Note_on_c, 0, 67, 68
1, 85656, Note_off_c, 0, 65, 66
1, 85792, Note_on_c, 0, 69, 72
1, 85822, Note_off_c, 0, 67, 56
1, 85930, Note_on_c, 0, 70, 67
1, 85958, Note_off_c, 0, 69, 62
1, 86073, Note_on_c, 0, 69, 72
1, 86113, Note_off_c, 0, 70, 61
1, 86214, Note_on_c, 0, 67, 66
1, 86230, Note_off_c, 0, 69, 59
1, 86372, Note_on_c, 0, 69, 75
1, 86434, Note_off_c, 0, 67, 60
1, 86917, Note_on_c, 0, 74, 74
1, 87089, Note_off_c, 0, 69, 64
1, 87440, Note_on_c, 0, 73, 65
1, 87582, Note_off_c, 0, 74, 60
1, 87994, Note_on_c, 0, 72, 65
1, 88089, Note_off_c, 0, 73, 63
1, 88511, Note_on_c, 0, 71, 60
1, 88631, Note_off_c, 0, 72, 59
1, 89050, Note_on_c, 0, 70, 57
1, 89151, Note_off_c, 0, 71, 58
1, 89588, Note_on_c, 0, 69, 56
1, 89608, Note_off_c, 0, 70, 57
1, 89687, Control_c, 0, 64, 12
1, 89707, Control_c, 0, 64, 23
1, 89725, Control_c, 0, 64, 34
1, 89742, Control_c, 0, 64, 45
1, 89760, Control_c, 0, 64, 54
1, 89778, Control_c, 0, 64, 60
1, 89797, Control_c, 0, 64, 65
1, 89815, Control_c, 0, 64, 69
1, 89833, Control_c, 0, 64, 73
1, 89852, Control_c, 0, 64, 77
1, 89870, Control_c, 0, 64, 79
1, 89999, Control_c, 0, 64, 77
1, 90037, Control_c, 0, 64, 75
1, 90073, Control_c, 0, 64, 71
1, 90092, Control_c, 0, 64, 68
1, 90108, Control_c, 0, 64, 65
1, 90111, Note_on_c, 0, 67, 55
1, 90128, Control_c, 0, 64, 61
1, 90141, Note_off_c, 0, 69, 46
1, 90146, Control_c, 0, 64, 57
1, 90165, Control_c, 0, 64, 53
1, 90185, Control_c, 0, 64, 49
1, 90203, Control_c, 0, 64, 45
1, 90220, Control_c, 0, 64, 42
1, 90258, Control_c, 0, 64, 37
1, 90296, Control_c, 0, 64, 30
1, 90313, Control_c, 0, 64, 25
1, 90333, Control_c, 0, 64, 16
1, 90350, Control_c, 0, 64, 0
1, 91122, Note_on_c, 0, 65, 47
1, 91179, Note_off_c, 0, 67, 62
1, 91667, Note_on_c, 0, 64, 41
1, 91770, Note_off_c, 0, 65, 60
1, 92219, Note_on_c, 0, 69, 41
1, 92243, Note_off_c, 0, 64, 57
1, 92346, Control_c, 0, 64, 19
1, 92365, Control_c, 0, 64, 30
1, 92383, Control_c, 0, 64, 42
1, 92402, Control_c, 0, 64, 53
1, 92421, Control_c, 0, 64, 59
1, 92439, Control_c, 0, 64, 62
1, 92458, Control_c, 0, 64, 65
1, 92476, Control_c, 0, 64, 67
1, 92559, Note_off_c, 0, 69, 50
1, 92642, Control_c, 0, 64, 66
1, 92661, Control_c, 0, 64, 65
1, 92679, Control_c, 0, 64, 64
1, 92697, Control_c, 0, 64, 62
1, 92714, Control_c, 0, 64, 61
1, 92724, Note_on_c, 0, 69, 56
1, 92726, Note_on_c, 0, 65, 37
1, 92751, Control_c, 0, 64, 58
1, 92788, Control_c, 0, 64, 55
1, 92807, Control_c, 0, 64, 53
1, 92843, Control_c, 0, 64, 50
1, 92861, Control_c, 0, 64, 48
1, 92880, Control_c, 0, 64, 46
1, 92890, Note_on_c, 0, 71, 63
1, 92890, Control_c, 0, 64, 43
1, 92909, Control_c, 0, 64, 41
1, 92914, Note_off_c, 0, 69, 58
1, 92946, Control_c, 0, 64, 37
1, 93002, Control_c, 0, 64, 32
1, 93030, Note_on_c, 0, 72, 68
1, 93057, Control_c, 0, 64, 27
1, 93073, Note_off_c, 0, 71, 58
1, 93105, Note_off_c, 0, 65, 43
1, 93110, Control_c, 0, 64, 23
1, 93149, Control_c, 0, 64, 19
1, 93165, Note_off_c, 0, 72, 66
1, 93170, Note_on_c, 0, 74, 66
1, 93179, Note_on_c, 0, 62, 46
1, 93185, Control_c, 0, 64, 14
1, 93223, Control_c, 0, 64, 8
1, 93274, Control_c, 0, 64, 0
1, 93348, Note_on_c, 0, 72, 69
1, 93404, Note_off_c, 0, 74, 60
1, 93494, Note_on_c, 0, 71, 64
1, 93511, Note_off_c, 0, 72, 64
1, 93611, Note_off_c, 0, 62, 37
1, 93633, Note_off_c, 0, 71, 62
1, 93635, Note_on_c, 0, 69, 53
1, 93644, Note_on_c, 0, 72, 67
1, 93786, Note_on_c, 0, 74, 70
1, 93809, Note_off_c, 0, 72, 62
1, 93900, Control_c, 0, 64, 26
1, 93919, Control_c, 0, 64, 41
1, 93932, Note_on_c, 0, 76, 72
1, 93938, Control_c, 0, 64, 53
1, 93943, Note_off_c, 0, 69, 58
1, 93955, Control_c, 0, 64, 59
1, 93970, Note_off_c, 0, 74, 62
1, 93974, Control_c, 0, 64, 61
1, 93992, Control_c, 0, 64, 62
1, 94046, Control_c, 0, 64, 61
1, 94065, Control_c, 0, 64, 59
1, 94075, Note_on_c, 0, 77, 73
1, 94085, Control_c, 0, 64, 57
1, 94099, Note_off_c, 0, 76, 60
1, 94122, Control_c, 0, 64, 53
1, 94140, Control_c, 0, 64, 51
1, 94160, Control_c, 0, 64, 48
1, 94190, Control_c, 0, 64, 44
1, 94210, Control_c, 0, 64, 39
1, 94221, Note_on_c, 0, 76, 76
1, 94228, Control_c, 0, 64, 35
1, 94263, Control_c, 0, 64, 30
1, 94274, Note_off_c, 0, 77, 60
1, 94301, Control_c, 0, 64, 26
1, 94356, Control_c, 0, 64, 21
1, 94362, Note_on_c, 0, 74, 74
1, 94385, Note_off_c, 0, 76, 63
1, 94413, Control_c, 0, 64, 16
1, 94467, Control_c, 0, 64, 12
1, 94503, Note_on_c, 0, 76, 82
1, 94535, Note_off_c, 0, 74, 63
1, 94541, Control_c, 0, 64, 8
1, 94669, Control_c, 0, 64, 0
1, 94740, Note_on_c, 0, 59, 70
1, 95000, Note_on_c, 0, 81, 80
1, 95012, Note_on_c, 0, 60, 61
1, 95051, Note_off_c, 0, 59, 55
1, 95141, Note_off_c, 0, 76, 62
1, 95253, Note_on_c, 0, 62, 64
1, 95275, Note_off_c, 0, 60, 62
1, 95489, Note_on_c, 0, 80, 76
1, 95491, Note_off_c, 0, 62, 63
1, 95501, Note_on_c, 0, 64, 57
1, 95583, Note_off_c, 0, 81, 59
1, 95725, Note_on_c, 0, 66, 63
1, 95729, Note_off_c, 0, 64, 57
1, 95944, Note_on_c, 0, 79, 72
1, 95961, Note_off_c, 0, 66, 60
1, 95970, Note_on_c, 0, 67, 55
1, 96060, Note_off_c, 0, 80, 65
1, 96211, Note_off_c, 0, 67, 63
1, 96228, Note_on_c, 0, 64, 54
1, 96441, Note_on_c, 0, 78, 69
1, 96447, Note_off_c, 0, 64, 60
1, 96468, Note_on_c, 0, 69, 51
1, 96510, Note_off_c, 0, 79, 61
1, 96692, Note_on_c, 0, 68, 50
1, 96699, Note_off_c, 0, 69, 58
1, 96909, Note_off_c, 0, 68, 58
1, 96910, Note_on_c, 0, 77, 65
1, 96916, Note_on_c, 0, 69, 46
1, 97017, Note_off_c, 0, 78, 59
1, 97183, Note_off_c, 0, 69, 56
1, 97183, Note_on_c, 0, 71, 45
1, 97402, Note_on_c, 0, 76, 59
1, 97421, Note_off_c, 0, 71, 57
1, 97427, Note_on_c, 0, 72, 40
1, 97444, Note_off_c, 0, 77, 54
1, 97552, Control_c, 0, 64, 18
1, 97569, Control_c, 0, 64, 31
1, 97589, Control_c, 0, 64, 42
1, 97608, Control_c, 0, 64, 52
1, 97626, Control_c, 0, 64, 59
1, 97633, Note_off_c, 0, 72, 63
1, 97645, Control_c, 0, 64, 62
1, 97648, Note_on_c, 0, 66, 51
1, 97665, Control_c, 0, 64, 64
1, 97682, Control_c, 0, 64, 65
1, 97699, Control_c, 0, 64, 66
1, 97790, Control_c, 0, 64, 65
1, 97810, Control_c, 0, 64, 64
1, 97829, Control_c, 0, 64, 63
1, 97838, Note_off_c, 0, 76, 63
1, 97845, Control_c, 0, 64, 61
1, 97847, Note_off_c, 0, 66, 61
1, 97866, Control_c, 0, 64, 59
1, 97875, Note_on_c, 0, 74, 69
1, 97884, Note_on_c, 0, 71, 50
1, 97885, Control_c, 0, 64, 57
1, 97903, Control_c, 0, 64, 55
1, 97953, Control_c, 0, 64, 53
1, 97991, Control_c, 0, 64, 50
1, 98007, Control_c, 0, 64, 47
1, 98026, Control_c, 0, 64, 45
1, 98046, Control_c, 0, 64, 43
1, 98082, Control_c, 0, 64, 39
1, 98120, Control_c, 0, 64, 33
1, 98135, Note_on_c, 0, 69, 62
1, 98137, Note_off_c, 0, 71, 60
1, 98157, Control_c, 0, 64, 28
1, 98193, Control_c, 0, 64, 24
1, 98230, Control_c, 0, 64, 17
1, 98266, Control_c, 0, 64, 10
1, 98303, Control_c, 0, 64, 0
1, 98380, Note_on_c, 0, 68, 56
1, 98386, Note_off_c, 0, 69, 57
1, 98586, Note_off_c, 0, 68, 60
1, 98614, Note_on_c, 0, 64, 54
1, 98852, Note_off_c, 0, 74, 57
1, 98869, Note_on_c, 0, 72, 65
1, 98872, Note_off_c, 0, 64, 58
1, 98875, Note_on_c, 0, 69, 51
1, 99374, Note_on_c, 0, 71, 47
1, 99454, Note_off_c, 0, 72, 40
1, 99880, Note_off_c, 0, 69, 56
1, 99883, Note_on_c, 0, 76, 47
1, 99896, Note_on_c, 0, 67, 28
1, 99974, Note_off_c, 0, 71, 46
1, 100101, Control_c, 0, 64, 13
1, 100118, Control_c, 0, 64, 26
1, 100137, Control_c, 0, 64, 38
1, 100156, Control_c, 0, 64, 50
1, 100174, Control_c, 0, 64, 58
1, 100193, Control_c, 0, 64, 62
1, 100213, Control_c, 0, 64, 66
1, 100230, Control_c, 0, 64, 69
1, 100266, Control_c, 0, 64, 72
1, 100277, Note_off_c, 0, 76, 57
1, 100357, Control_c, 0, 64, 70
1, 100361, Note_on_c, 0, 69, 60
1, 100414, Control_c, 0, 64, 66
1, 100434, Control_c, 0, 64, 64
1, 100451, Control_c, 0, 64, 62
1, 100470, Control_c, 0, 64, 61
1, 100506, Control_c, 0, 64, 60
1, 100523, Note_on_c, 0, 65, 51
1, 100526, Note_off_c, 0, 67, 49
1, 100544, Control_c, 0, 64, 58
1, 100562, Control_c, 0, 64, 56
1, 100599, Control_c, 0, 64, 53
1, 100653, Control_c, 0, 64, 51
1, 100671, Note_off_c, 0, 65, 61
1, 100672, Control_c, 0, 64, 48
1, 100686, Note_on_c, 0, 64, 53
1, 100691, Control_c, 0, 64, 46
1, 100709, Control_c, 0, 64, 44
1, 100741, Control_c, 0, 64, 42
1, 100779, Control_c, 0, 64, 36
1, 100817, Control_c, 0, 64, 30
1, 100835, Note_off_c, 0, 64, 60
1, 100849, Note_on_c, 0, 71, 65
1, 100851, Control_c, 0, 64, 25
1, 100873, Note_on_c, 0, 62, 48
1, 100946, Control_c, 0, 64, 20
1, 101005, Note_off_c, 0, 62, 56
1, 101018, Note_on_c, 0, 64, 52
1, 101029, Note_off_c, 0, 69, 58
1, 101054, Control_c, 0, 64, 16
1, 101166, Control_c, 0, 64, 12
1, 101168, Note_off_c, 0, 64, 55
1, 101180, Note_on_c, 0, 65, 50
1, 101201, Control_c, 0, 64, 8
1, 101257, Control_c, 0, 64, 0
1, 101299, Note_off_c, 0, 65, 64
1, 101317, Note_on_c, 0, 72, 64
1, 101325, Note_on_c, 0, 64, 49
1, 101406, Note_off_c, 0, 71, 60
1, 101467, Note_off_c, 0, 64, 55
1, 101492, Note_on_c, 0, 62, 49
1, 101618, Note_off_c, 0, 62, 58
1, 101649, Note_on_c, 0, 60, 43
1, 101779, Note_on_c, 0, 68, 54
1, 101789, Note_off_c, 0, 60, 60
1, 101820, Note_on_c, 0, 59, 43
1, 101843, Note_off_c, 0, 72, 57
1, 101969, Note_off_c, 0, 59, 52
1, 101973, Note_on_c, 0, 60, 45
1, 102070, Note_off_c, 0, 60, 60
1, 102111, Note_on_c, 0, 62, 39
1, 102239, Note_off_c, 0, 68, 57
1, 102252, Note_on_c, 0, 60, 39
1, 102259, Note_on_c, 0, 69, 49
1, 102277, Note_off_c, 0, 62, 38
1, 102421, Note_on_c, 0, 67, 53
1, 102448, Note_off_c, 0, 69, 48
1, 102468, Control_c, 0, 64, 16
1, 102487, Control_c, 0, 64, 22
1, 102506, Control_c, 0, 64, 27
1, 102543, Control_c, 0, 64, 32
1, 102560, Note_off_c, 0, 67, 62
1, 102562, Note_on_c, 0, 65, 56
1, 102631, Control_c, 0, 64, 28
1, 102650, Control_c, 0, 64, 23
1, 102669, Control_c, 0, 64, 17
1, 102686, Control_c, 0, 64, 10
1, 102688, Note_off_c, 0, 65, 63
1, 102706, Control_c, 0, 64, 0
1, 102715, Note_off_c, 0, 60, 44
1, 102722, Note_on_c, 0, 64, 56
1, 102724, Note_on_c, 0, 61, 53
1, 102854, Control_c, 0, 64, 11
1, 102860, Note_off_c, 0, 64, 58
1, 102868, Note_on_c, 0, 65, 53
1, 102872, Control_c, 0, 64, 17
1, 102891, Control_c, 0, 64, 23
1, 102910, Control_c, 0, 64, 29
1, 102927, Control_c, 0, 64, 35
1, 102946, Control_c, 0, 64, 42
1, 102964, Control_c, 0, 64, 48
1, 102984, Control_c, 0, 64, 53
1, 103002, Control_c, 0, 64, 55
1, 103010, Note_off_c, 0, 65, 63
1, 103020, Control_c, 0, 64, 57
1, 103025, Note_on_c, 0, 67, 55
1, 103094, Control_c, 0, 64, 55
1, 103096, Note_off_c, 0, 61, 63
1, 103111, Control_c, 0, 64, 50
1, 103131, Control_c, 0, 64, 42
1, 103149, Control_c, 0, 64, 33
1, 103167, Control_c, 0, 64, 29
1, 103171, Note_on_c, 0, 62, 50
1, 103178, Note_on_c, 0, 65, 55
1, 103180, Note_off_c, 0, 67, 58
1, 103223, Control_c, 0, 64, 34
1, 103242, Control_c, 0, 64, 41
1, 103260, Control_c, 0, 64, 49
1, 103278, Control_c, 0, 64, 55
1, 103299, Control_c, 0, 64, 59
1, 103314, Control_c, 0, 64, 61
1, 103331, Control_c, 0, 64, 63
1, 103337, Note_on_c, 0, 64, 59
1, 103347, Note_off_c, 0, 65, 63
1, 103347, Note_off_c, 0, 62, 64
1, 103351, Control_c, 0, 64, 64
1, 103370, Control_c, 0, 64, 66
1, 103388, Control_c, 0, 64, 67
1, 103405, Control_c, 0, 64, 68
1, 103468, Note_off_c, 0, 64, 62
1, 103482, Note_on_c, 0, 62, 58
1, 103569, Control_c, 0, 64, 66
1, 103587, Control_c, 0, 64, 64
1, 103607, Control_c, 0, 64, 58
1, 103624, Control_c, 0, 64, 50
1, 103626, Note_off_c, 0, 62, 55
1, 103637, Note_on_c, 0, 61, 61
1, 103641, Control_c, 0, 64, 41
1, 103643, Note_on_c, 0, 55, 58
1, 103661, Control_c, 0, 64, 35
1, 103772, Control_c, 0, 64, 45
1, 103790, Control_c, 0, 64, 52
1, 103802, Note_on_c, 0, 62, 59
1, 103808, Control_c, 0, 64, 56
1, 103824, Note_off_c, 0, 61, 57
1, 103827, Control_c, 0, 64, 59
1, 103846, Control_c, 0, 64, 61
1, 103862, Control_c, 0, 64, 62
1, 103882, Control_c, 0, 64, 63
1, 103900, Control_c, 0, 64, 64
1, 103910, Note_off_c, 0, 55, 64
1, 103918, Control_c, 0, 64, 65
1, 103948, Note_on_c, 0, 64, 65
1, 103953, Note_off_c, 0, 62, 60
1, 104047, Control_c, 0, 64, 64
1, 104067, Control_c, 0, 64, 63
1, 104085, Control_c, 0, 64, 62
1, 104103, Control_c, 0, 64, 61
1, 104118, Note_on_c, 0, 62, 60
1, 104121, Control_c, 0, 64, 60
1, 104135, Note_on_c, 0, 50, 48
1, 104138, Note_on_c, 0, 53, 48
1, 104140, Control_c, 0, 64, 57
1, 104144, Note_on_c, 0, 52, 56
1, 104158, Control_c, 0, 64, 55
1, 104177, Control_c, 0, 64, 53
1, 104197, Control_c, 0, 64, 51
1, 104209, Note_off_c, 0, 64, 36
1, 104213, Control_c, 0, 64, 48
1, 104234, Control_c, 0, 64, 46
1, 104239, Note_off_c, 0, 52, 55
1, 104250, Control_c, 0, 64, 44
1, 104286, Control_c, 0, 64, 42
1, 104295, Note_on_c, 0, 52, 62
1, 104320, Note_off_c, 0, 53, 60
1, 104326, Note_off_c, 0, 50, 61
1, 104342, Control_c, 0, 64, 40
1, 104410, Control_c, 0, 64, 36
1, 104422, Note_on_c, 0, 53, 68
1, 104444, Note_off_c, 0, 52, 64
1, 104466, Control_c, 0, 64, 32
1, 104555, Control_c, 0, 64, 27
1, 104580, Note_on_c, 0, 61, 64
1, 104588, Note_on_c, 0, 55, 67
1, 104593, Note_on_c, 0, 58, 49
1, 104604, Note_off_c, 0, 53, 60
1, 104644, Note_off_c, 0, 62, 54
1, 104737, Note_on_c, 0, 53, 73
1, 104778, Note_off_c, 0, 55, 60
1, 104792, Control_c, 0, 64, 31
1, 104830, Control_c, 0, 64, 37
1, 104848, Control_c, 0, 64, 41
1, 104867, Control_c, 0, 64, 43
1, 104893, Note_on_c, 0, 52, 71
1, 104904, Control_c, 0, 64, 45
1, 104915, Note_off_c, 0, 53, 58
1, 104989, Note_off_c, 0, 58, 51
1, 105015, Control_c, 0, 64, 43
1, 105034, Control_c, 0, 64, 38
1, 105038, Note_off_c, 0, 61, 65
1, 105047, Note_on_c, 0, 62, 70
1, 105052, Control_c, 0, 64, 32
1, 105054, Note_on_c, 0, 53, 73
1, 105068, Note_on_c, 0, 57, 57
1, 105069, Control_c, 0, 64, 26
1, 105088, Control_c, 0, 64, 20
1, 105107, Control_c, 0, 64, 15
1, 105113, Note_off_c, 0, 52, 61
1, 105205, Note_off_c, 0, 57, 58
1, 105216, Control_c, 0, 64, 21
1, 105219, Note_on_c, 0, 55, 75
1, 105236, Control_c, 0, 64, 30
1, 105254, Control_c, 0, 64, 39
1, 105258, Note_off_c, 0, 53, 61
1, 105272, Control_c, 0, 64, 49
1, 105289, Control_c, 0, 64, 56
1, 105309, Control_c, 0, 64, 59
1, 105327, Control_c, 0, 64, 61
1, 105349, Note_off_c, 0, 62, 64
1, 105366, Note_on_c, 0, 57, 75
1, 105423, Note_off_c, 0, 55, 61
1, 105434, Control_c, 0, 64, 58
1, 105452, Control_c, 0, 64, 56
1, 105472, Control_c, 0, 64, 53
1, 105489, Control_c, 0, 64, 51
1, 105506, Control_c, 0, 64, 49
1, 105513, Note_on_c, 0, 58, 68
1, 105514, Note_on_c, 0, 67, 73
1, 105525, Control_c, 0, 64, 47
1, 105527, Note_on_c, 0, 62, 59
1, 105545, Control_c, 0, 64, 44
1, 105553, Note_off_c, 0, 57, 63
1, 105564, Control_c, 0, 64, 41
1, 105600, Control_c, 0, 64, 35
1, 105637, Control_c, 0, 64, 30
1, 105671, Note_on_c, 0, 57, 78
1, 105674, Control_c, 0, 64, 26
1, 105710, Note_off_c, 0, 58, 62
1, 105728, Control_c, 0, 64, 22
1, 105821, Control_c, 0, 64, 18
1, 105834, Note_on_c, 0, 55, 74
1, 105863, Note_off_c, 0, 57, 60
1, 105877, Control_c, 0, 64, 14
1, 105933, Control_c, 0, 64, 9
1, 105979, Note_off_c, 0, 62, 62
1, 105986, Control_c, 0, 64, 0
1, 105989, Note_on_c, 0, 61, 58
1, 106012, Note_on_c, 0, 57, 74
1, 106112, Note_off_c, 0, 55, 63
1, 106252, Note_off_c, 0, 61, 60
1, 106260, Note_on_c, 0, 64, 72
1, 106361, Note_off_c, 0, 67, 50
1, 106530, Note_on_c, 0, 62, 80
1, 106541, Note_on_c, 0, 65, 70
1, 106589, Note_off_c, 0, 64, 59
1, 106724, Note_off_c, 0, 57, 63
1, 106780, Note_on_c, 0, 67, 73
1, 106814, Note_off_c, 0, 65, 64
1, 106814, Control_c, 0, 64, 22
1, 106831, Control_c, 0, 64, 33
1, 106849, Control_c, 0, 64, 41
1, 106867, Control_c, 0, 64, 46
1, 106940, Control_c, 0, 64, 44
1, 106959, Control_c, 0, 64, 42
1, 106978, Control_c, 0, 64, 40
1, 106997, Note_off_c, 0, 67, 64
1, 107015, Control_c, 0, 64, 34
1, 107017, Note_on_c, 0, 61, 71
1, 107021, Note_on_c, 0, 69, 74
1, 107051, Control_c, 0, 64, 29
1, 107053, Note_on_c, 0, 64, 46
1, 107107, Control_c, 0, 64, 24
1, 107138, Note_off_c, 0, 62, 56
1, 107141, Control_c, 0, 64, 19
1, 107199, Control_c, 0, 64, 14
1, 107255, Control_c, 0, 64, 10
1, 107265, Note_on_c, 0, 71, 75
1, 107303, Note_off_c, 0, 69, 62
1, 107342, Control_c, 0, 64, 0
1, 107527, Note_on_c, 0, 60, 74
1, 107535, Note_on_c, 0, 72, 68
1, 107573, Note_off_c, 0, 71, 55
1, 107623, Note_off_c, 0, 61, 60
1, 107769, Note_on_c, 0, 69, 65
1, 107832, Note_off_c, 0, 64, 61
1, 107858, Control_c, 0, 64, 15
1, 107876, Control_c, 0, 64, 26
1, 107894, Control_c, 0, 64, 37
1, 107914, Control_c, 0, 64, 48
1, 107931, Control_c, 0, 64, 55
1, 107951, Control_c, 0, 64, 57
1, 107962, Note_off_c, 0, 69, 63
1, 108009, Note_on_c, 0, 59, 71
1, 108029, Note_on_c, 0, 74, 73
1, 108049, Note_on_c, 0, 62, 45
1, 108058, Note_off_c, 0, 60, 63
1, 108064, Note_off_c, 0, 72, 66
1, 108077, Control_c, 0, 64, 55
1, 108115, Control_c, 0, 64, 51
1, 108135, Control_c, 0, 64, 49
1, 108152, Control_c, 0, 64, 47
1, 108172, Control_c, 0, 64, 45
1, 108190, Control_c, 0, 64, 42
1, 108209, Control_c, 0, 64, 40
1, 108260, Control_c, 0, 64, 36
1, 108291, Note_on_c, 0, 73, 74
1, 108333, Control_c, 0, 64, 31
1, 108341, Note_off_c, 0, 74, 62
1, 108389, Control_c, 0, 64, 26
1, 108499, Control_c, 0, 64, 22
1, 108516, Note_on_c, 0, 58, 73
1, 108543, Note_on_c, 0, 74, 73
1, 108553, Note_off_c, 0, 59, 63
1, 108591, Control_c, 0, 64, 18
1, 108613, Note_off_c, 0, 73, 55
1, 108685, Control_c, 0, 64, 14
1, 108786, Note_on_c, 0, 76, 76
1, 108839, Note_off_c, 0, 74, 64
1, 108998, Note_on_c, 0, 57, 73
1, 109018, Note_on_c, 0, 77, 70
1, 109073, Note_off_c, 0, 76, 57
1, 109108, Control_c, 0, 64, 10
1, 109116, Note_off_c, 0, 58, 56
1, 109275, Note_on_c, 0, 71, 73
1, 109334, Note_off_c, 0, 62, 52
1, 109525, Note_on_c, 0, 55, 68
1, 109542, Note_on_c, 0, 76, 68
1, 109602, Control_c, 0, 64, 0
1, 109604, Note_off_c, 0, 71, 61
1, 109606, Note_off_c, 0, 57, 58
1, 109686, Note_off_c, 0, 77, 51
1, 109799, Note_on_c, 0, 74, 65
1, 109886, Note_off_c, 0, 76, 56
1, 110038, Note_on_c, 0, 73, 65
1, 110114, Note_off_c, 0, 74, 63
1, 110205, Control_c, 0, 64, 19
1, 110222, Control_c, 0, 64, 30
1, 110241, Control_c, 0, 64, 40
1, 110259, Control_c, 0, 64, 50
1, 110279, Control_c, 0, 64, 57
1, 110295, Note_on_c, 0, 69, 60
1, 110298, Control_c, 0, 64, 60
1, 110315, Control_c, 0, 64, 63
1, 110333, Control_c, 0, 64, 66
1, 110336, Note_off_c, 0, 73, 64
1, 110353, Control_c, 0, 64, 68
1, 110371, Control_c, 0, 64, 70
1, 110429, Note_off_c, 0, 69, 60
1, 110500, Control_c, 0, 64, 68
1, 110518, Control_c, 0, 64, 66
1, 110526, Note_on_c, 0, 53, 50
1, 110527, Note_on_c, 0, 74, 63
1, 110535, Control_c, 0, 64, 64
1, 110543, Note_on_c, 0, 70, 51
1, 110555, Control_c, 0, 64, 61
1, 110573, Control_c, 0, 64, 60
1, 110591, Control_c, 0, 64, 57
1, 110610, Control_c, 0, 64, 55
1, 110628, Control_c, 0, 64, 52
1, 110646, Control_c, 0, 64, 49
1, 110664, Control_c, 0, 64, 47
1, 110670, Note_off_c, 0, 55, 61
1, 110702, Control_c, 0, 64, 44
1, 110721, Control_c, 0, 64, 42
1, 110739, Control_c, 0, 64, 40
1, 110776, Control_c, 0, 64, 35
1, 110777, Note_on_c, 0, 69, 53
1, 110809, Note_off_c, 0, 70, 52
1, 110831, Control_c, 0, 64, 30
1, 110903, Control_c, 0, 64, 26
1, 111004, Note_off_c, 0, 69, 61
1, 111032, Note_on_c, 0, 67, 51
1, 111045, Note_on_c, 0, 52, 49
1, 111067, Note_off_c, 0, 53, 55
1, 111085, Control_c, 0, 64, 22
1, 111280, Note_on_c, 0, 70, 51
1, 111339, Note_off_c, 0, 67, 53
1, 111435, Control_c, 0, 64, 18
1, 111504, Note_on_c, 0, 72, 54
1, 111505, Note_on_c, 0, 57, 48
1, 111517, Note_on_c, 0, 69, 46
1, 111526, Note_off_c, 0, 52, 51
1, 111539, Note_off_c, 0, 70, 37
1, 111548, Note_off_c, 0, 74, 59
1, 111600, Control_c, 0, 64, 26
1, 111618, Control_c, 0, 64, 36
1, 111637, Control_c, 0, 64, 45
1, 111656, Control_c, 0, 64, 52
1, 111675, Control_c, 0, 64, 57
1, 111693, Control_c, 0, 64, 60
1, 111712, Control_c, 0, 64, 62
1, 111725, Note_off_c, 0, 69, 61
1, 111731, Control_c, 0, 64, 63
1, 111748, Note_on_c, 0, 67, 46
1, 111748, Control_c, 0, 64, 64
1, 111774, Note_off_c, 0, 57, 62
1, 111879, Control_c, 0, 64, 63
1, 111895, Control_c, 0, 64, 61
1, 111914, Control_c, 0, 64, 58
1, 111933, Control_c, 0, 64, 54
1, 111952, Control_c, 0, 64, 47
1, 111985, Control_c, 0, 64, 39
1, 111997, Note_off_c, 0, 67, 54
1, 112003, Control_c, 0, 64, 35
1, 112006, Note_on_c, 0, 50, 43
1, 112015, Note_on_c, 0, 66, 45
1, 112076, Control_c, 0, 64, 45
1, 112096, Control_c, 0, 64, 51
1, 112113, Control_c, 0, 64, 55
1, 112133, Control_c, 0, 64, 58
1, 112152, Control_c, 0, 64, 60
1, 112172, Note_off_c, 0, 50, 60
1, 112236, Note_on_c, 0, 62, 61
1, 112279, Control_c, 0, 64, 57
1, 112316, Control_c, 0, 64, 55
1, 112353, Control_c, 0, 64, 53
1, 112391, Control_c, 0, 64, 51
1, 112429, Control_c, 0, 64, 48
1, 112464, Control_c, 0, 64, 45
1, 112479, Note_on_c, 0, 70, 64
1, 112501, Note_on_c, 0, 63, 58
1, 112502, Control_c, 0, 64, 42
1, 112523, Note_off_c, 0, 72, 63
1, 112523, Note_on_c, 0, 67, 47
1, 112540, Note_off_c, 0, 66, 64
1, 112542, Note_off_c, 0, 62, 58
1, 112556, Control_c, 0, 64, 38
1, 112610, Control_c, 0, 64, 33
1, 112666, Control_c, 0, 64, 29
1, 112722, Control_c, 0, 64, 25
1, 112726, Note_on_c, 0, 62, 59
1, 112765, Note_off_c, 0, 63, 55
1, 112776, Control_c, 0, 64, 21
1, 112868, Control_c, 0, 64, 17
1, 112968, Note_on_c, 0, 69, 57
1, 112976, Note_off_c, 0, 62, 55
1, 112982, Note_on_c, 0, 60, 47
1, 113048, Note_off_c, 0, 70, 53
1, 113194, Note_off_c, 0, 60, 57
1, 113202, Note_on_c, 0, 63, 49
1, 113399, Note_off_c, 0, 67, 59
1, 113428, Note_off_c, 0, 63, 54
1, 113444, Note_on_c, 0, 62, 33
1, 113471, Note_on_c, 0, 65, 29
1, 113548, Control_c, 0, 64, 26
1, 113566, Control_c, 0, 64, 34
1, 113585, Control_c, 0, 64, 44
1, 113602, Control_c, 0, 64, 53
1, 113620, Control_c, 0, 64, 59
1, 113639, Control_c, 0, 64, 62
1, 113658, Control_c, 0, 64, 65
1, 113674, Control_c, 0, 64, 66
1, 113679, Note_on_c, 0, 60, 47
1, 113689, Note_off_c, 0, 62, 44
1, 113693, Control_c, 0, 64, 67
1, 113771, Note_off_c, 0, 65, 57
1, 113786, Note_off_c, 0, 69, 62
1, 113875, Control_c, 0, 64, 66
1, 113894, Control_c, 0, 64, 65
1, 113912, Control_c, 0, 64, 64
1, 113927, Note_off_c, 0, 60, 59
1, 113929, Control_c, 0, 64, 63
1, 113938, Note_on_c, 0, 62, 48
1, 113943, Note_on_c, 0, 59, 46
1, 113948, Control_c, 0, 64, 61
1, 113967, Control_c, 0, 64, 60
1, 113985, Control_c, 0, 64, 58
1, 114004, Control_c, 0, 64, 56
1, 114042, Control_c, 0, 64, 53
1, 114077, Control_c, 0, 64, 50
1, 114095, Control_c, 0, 64, 48
1, 114133, Control_c, 0, 64, 45
1, 114160, Note_off_c, 0, 59, 57
1, 114168, Control_c, 0, 64, 43
1, 114173, Note_on_c, 0, 79, 73
1, 114177, Note_on_c, 0, 55, 46
1, 114206, Control_c, 0, 64, 40
1, 114317, Control_c, 0, 64, 36
1, 114388, Note_off_c, 0, 62, 54
1, 114428, Note_on_c, 0, 81, 72
1, 114439, Note_on_c, 0, 64, 55
1, 114439, Note_on_c, 0, 60, 47
1, 114446, Control_c, 0, 64, 31
1, 114516, Note_off_c, 0, 79, 62
1, 114518, Note_off_c, 0, 55, 37
1, 114667, Control_c, 0, 64, 27
1, 114672, Note_on_c, 0, 79, 73
1, 114721, Note_off_c, 0, 81, 58
1, 114848, Control_c, 0, 64, 23
1, 114913, Note_on_c, 0, 62, 51
1, 114919, Note_on_c, 0, 77, 69
1, 114959, Note_off_c, 0, 64, 60
1, 114962, Note_off_c, 0, 79, 57
1, 115140, Note_on_c, 0, 81, 69
1, 115160, Control_c, 0, 64, 19
1, 115214, Note_off_c, 0, 77, 58
1, 115382, Note_on_c, 0, 79, 67
1, 115389, Note_on_c, 0, 58, 41
1, 115403, Note_off_c, 0, 60, 56
1, 115419, Control_c, 0, 64, 15
1, 115427, Note_off_c, 0, 81, 55
1, 115621, Note_on_c, 0, 77, 59
1, 115657, Note_off_c, 0, 79, 55
1, 115784, Control_c, 0, 64, 11
1, 115882, Note_on_c, 0, 76, 57
1, 115890, Note_on_c, 0, 60, 40
1, 115957, Note_off_c, 0, 77, 38
1, 115982, Note_off_c, 0, 62, 56
1, 115986, Control_c, 0, 64, 19
1, 115987, Note_off_c, 0, 58, 34
1, 116006, Control_c, 0, 64, 27
1, 116021, Control_c, 0, 64, 36
1, 116040, Control_c, 0, 64, 46
1, 116059, Control_c, 0, 64, 55
1, 116077, Control_c, 0, 64, 61
1, 116096, Control_c, 0, 64, 64
1, 116115, Control_c, 0, 64, 66
1, 116124, Note_on_c, 0, 72, 67
1, 116134, Control_c, 0, 64, 69
1, 116137, Note_off_c, 0, 76, 60
1, 116152, Control_c, 0, 64, 72
1, 116171, Control_c, 0, 64, 74
1, 116189, Control_c, 0, 64, 76
1, 116318, Control_c, 0, 64, 73
1, 116337, Control_c, 0, 64, 70
1, 116354, Control_c, 0, 64, 66
1, 116362, Note_on_c, 0, 57, 52
1, 116365, Note_on_c, 0, 74, 69
1, 116366, Note_on_c, 0, 77, 62
1, 116372, Control_c, 0, 64, 61
1, 116392, Control_c, 0, 64, 57
1, 116406, Note_off_c, 0, 72, 64
1, 116408, Control_c, 0, 64, 53
1, 116428, Control_c, 0, 64, 51
1, 116465, Control_c, 0, 64, 48
1, 116501, Control_c, 0, 64, 44
1, 116518, Control_c, 0, 64, 42
1, 116538, Control_c, 0, 64, 40
1, 116594, Control_c, 0, 64, 35
1, 116619, Note_on_c, 0, 72, 70
1, 116626, Note_off_c, 0, 74, 64
1, 116737, Control_c, 0, 64, 30
1, 116862, Note_on_c, 0, 70, 63
1, 116865, Control_c, 0, 64, 26
1, 116871, Note_on_c, 0, 55, 43
1, 116881, Note_off_c, 0, 72, 57
1, 116950, Note_off_c, 0, 57, 56
1, 117013, Control_c, 0, 64, 22
1, 117044, Note_off_c, 0, 60, 61
1, 117077, Note_on_c, 0, 74, 63
1, 117110, Note_off_c, 0, 77, 36
1, 117142, Note_off_c, 0, 70, 57
1, 117323, Note_off_c, 0, 74, 58
1, 117329, Note_on_c, 0, 60, 44
1, 117335, Note_on_c, 0, 72, 55
1, 117343, Control_c, 0, 64, 18
1, 117344, Note_on_c, 0, 76, 52
1, 117437, Control_c, 0, 64, 14
1, 117446, Note_off_c, 0, 55, 55
1, 117546, Control_c, 0, 64, 20
1, 117565, Control_c, 0, 64, 32
1, 117566, Note_on_c, 0, 70, 62
1, 117599, Control_c, 0, 64, 44
1, 117617, Control_c, 0, 64, 54
1, 117637, Control_c, 0, 64, 59
1, 117645, Note_off_c, 0, 72, 65
1, 117654, Control_c, 0, 64, 61
1, 117672, Control_c, 0, 64, 62
1, 117711, Control_c, 0, 64, 63
1, 117746, Control_c, 0, 64, 61
1, 117765, Control_c, 0, 64, 56
1, 117785, Control_c, 0, 64, 49
1, 117802, Control_c, 0, 64, 39
1, 117803, Note_on_c, 0, 69, 70
1, 117809, Note_on_c, 0, 53, 52
1, 117848, Note_off_c, 0, 70, 60
1, 117876, Control_c, 0, 64, 43
1, 117892, Control_c, 0, 64, 48
1, 117895, Note_off_c, 0, 76, 59
1, 117911, Control_c, 0, 64, 53
1, 117922, Note_off_c, 0, 60, 41
1, 117929, Control_c, 0, 64, 57
1, 117949, Control_c, 0, 64, 59
1, 117965, Note_on_c, 0, 55, 60
1, 117970, Note_off_c, 0, 53, 58
1, 118003, Control_c, 0, 64, 55
1, 118022, Control_c, 0, 64, 49
1, 118037, Note_on_c, 0, 77, 69
1, 118039, Control_c, 0, 64, 45
1, 118080, Control_c, 0, 64, 50
1, 118096, Control_c, 0, 64, 54
1, 118107, Note_off_c, 0, 55, 61
1, 118113, Control_c, 0, 64, 57
1, 118119, Note_on_c, 0, 57, 64
1, 118149, Note_off_c, 0, 69, 62
1, 118189, Control_c, 0, 64, 52
1, 118207, Control_c, 0, 64, 47
1, 118225, Control_c, 0, 64, 42
1, 118244, Control_c, 0, 64, 40
1, 118255, Note_on_c, 0, 67, 78
1, 118264, Note_on_c, 0, 58, 61
1, 118268, Note_off_c, 0, 57, 62
1, 118299, Control_c, 0, 64, 42
1, 118344, Note_off_c, 0, 77, 39
1, 118371, Note_off_c, 0, 58, 63
1, 118401, Note_on_c, 0, 57, 68
1, 118428, Control_c, 0, 64, 37
1, 118505, Note_on_c, 0, 76, 76
1, 118557, Note_off_c, 0, 57, 62
1, 118558, Note_on_c, 0, 55, 62
1, 118625, Control_c, 0, 64, 40
1, 118639, Note_off_c, 0, 67, 63
1, 118704, Note_off_c, 0, 76, 54
1, 118716, Control_c, 0, 64, 34
1, 118717, Note_on_c, 0, 57, 73
1, 118723, Note_off_c, 0, 55, 63
1, 118736, Control_c, 0, 64, 29
1, 118742, Note_on_c, 0, 65, 79
1, 118755, Control_c, 0, 64, 22
1, 118774, Control_c, 0, 64, 16
1, 118793, Control_c, 0, 64, 12
1, 118885, Control_c, 0, 64, 16
1, 118903, Control_c, 0, 64, 22
1, 118919, Control_c, 0, 64, 27
1, 118939, Control_c, 0, 64, 31
1, 118977, Control_c, 0, 64, 38
1, 118987, Note_on_c, 0, 74, 80
1, 118994, Control_c, 0, 64, 41
1, 119007, Note_off_c, 0, 57, 63
1, 119013, Control_c, 0, 64, 44
1, 119032, Control_c, 0, 64, 46
1, 119036, Note_off_c, 0, 65, 65
1, 119124, Control_c, 0, 64, 42
1, 119161, Control_c, 0, 64, 35
1, 119198, Control_c, 0, 64, 28
1, 119199, Note_off_c, 0, 74, 60
1, 119214, Note_on_c, 0, 45, 76
1, 119218, Control_c, 0, 64, 21
1, 119222, Note_on_c, 0, 64, 79
1, 119237, Control_c, 0, 64, 8
1, 119254, Control_c, 0, 64, 0
1, 119439, Control_c, 0, 64, 10
1, 119466, Note_on_c, 0, 73, 81
1, 119472, Control_c, 0, 64, 24
1, 119490, Control_c, 0, 64, 36
1, 119500, Note_off_c, 0, 45, 62
1, 119509, Control_c, 0, 64, 49
1, 119528, Control_c, 0, 64, 57
1, 119545, Control_c, 0, 64, 60
1, 119551, Note_off_c, 0, 64, 60
1, 119675, Control_c, 0, 64, 58
1, 119694, Note_on_c, 0, 50, 69
1, 119709, Control_c, 0, 64, 55
1, 119712, Note_on_c, 0, 74, 77
1, 119720, Note_on_c, 0, 65, 62
1, 119729, Control_c, 0, 64, 53
1, 119748, Control_c, 0, 64, 50
1, 119767, Control_c, 0, 64, 44
1, 119785, Control_c, 0, 64, 34
1, 119797, Note_off_c, 0, 73, 58
1, 119802, Control_c, 0, 64, 23
1, 119822, Control_c, 0, 64, 16
1, 119841, Control_c, 0, 64, 11
1, 119884, Note_on_c, 0, 52, 70
1, 119932, Control_c, 0, 64, 16
1, 119947, Note_off_c, 0, 50, 60
1, 119951, Control_c, 0, 64, 26
1, 119969, Control_c, 0, 64, 35
1, 119988, Control_c, 0, 64, 44
1, 119997, Note_off_c, 0, 74, 65
1, 120006, Control_c, 0, 64, 50
1, 120024, Note_off_c, 0, 65, 65
1, 120025, Control_c, 0, 64, 54
1, 120042, Control_c, 0, 64, 56
1, 120044, Note_on_c, 0, 53, 76
1, 120082, Control_c, 0, 64, 59
1, 120094, Note_off_c, 0, 52, 60
1, 120119, Control_c, 0, 64, 60
1, 120188, Note_on_c, 0, 55, 71
1, 120206, Note_on_c, 0, 70, 77
1, 120208, Note_on_c, 0, 61, 73
1, 120211, Control_c, 0, 64, 58
1, 120228, Note_off_c, 0, 53, 61
1, 120229, Control_c, 0, 64, 56
1, 120246, Control_c, 0, 64, 51
1, 120265, Control_c, 0, 64, 42
1, 120284, Control_c, 0, 64, 28
1, 120304, Control_c, 0, 64, 19
1, 120319, Control_c, 0, 64, 14
1, 120355, Note_on_c, 0, 53, 74
1, 120401, Note_off_c, 0, 55, 60
1, 120428, Control_c, 0, 64, 25
1, 120447, Control_c, 0, 64, 38
1, 120465, Control_c, 0, 64, 49
1, 120482, Control_c, 0, 64, 56
1, 120501, Control_c, 0, 64, 58
1, 120522, Note_on_c, 0, 52, 72
1, 120534, Note_off_c, 0, 53, 57
1, 120538, Control_c, 0, 64, 60
1, 120571, Note_off_c, 0, 61, 63
1, 120581, Note_off_c, 0, 70, 62
1, 120611, Control_c, 0, 64, 58
1, 120630, Control_c, 0, 64, 56
1, 120648, Control_c, 0, 64, 54
1, 120668, Control_c, 0, 64, 52
1, 120685, Control_c, 0, 64, 49
1, 120695, Note_on_c, 0, 69, 74
1, 120695, Note_on_c, 0, 53, 64
1, 120701, Note_on_c, 0, 62, 67
1, 120701, Control_c, 0, 64, 47
1, 120721, Control_c, 0, 64, 44
1, 120741, Control_c, 0, 64, 42
1, 120759, Control_c, 0, 64, 40
1, 120781, Note_off_c, 0, 52, 55
1, 120814, Control_c, 0, 64, 34
1, 120850, Control_c, 0, 64, 29
1, 120873, Note_on_c, 0, 55, 69
1, 120876, Note_on_c, 0, 67, 72
1, 120889, Control_c, 0, 64, 24
1, 120918, Note_off_c, 0, 53, 61
1, 120933, Note_off_c, 0, 69, 57
1, 120942, Control_c, 0, 64, 19
1, 121009, Note_on_c, 0, 57, 71
1, 121011, Note_on_c, 0, 65, 68
1, 121027, Note_off_c, 0, 55, 62
1, 121065, Note_off_c, 0, 67, 60
1, 121108, Control_c, 0, 64, 15
1, 121165, Note_on_c, 0, 58, 68
1, 121166, Note_on_c, 0, 64, 71
1, 121192, Note_off_c, 0, 65, 63
1, 121204, Note_off_c, 0, 57, 61
1, 121324, Note_on_c, 0, 65, 75
1, 121346, Note_off_c, 0, 58, 56
1, 121346, Note_on_c, 0, 57, 65
1, 121375, Note_off_c, 0, 64, 60
1, 121402, Control_c, 0, 64, 11
1, 121469, Note_off_c, 0, 57, 60
1, 121474, Note_on_c, 0, 55, 60
1, 121489, Note_off_c, 0, 65, 62
1, 121490, Note_on_c, 0, 67, 66
1, 121492, Control_c, 0, 64, 0
1, 121638, Note_on_c, 0, 57, 66
1, 121651, Note_on_c, 0, 65, 63
1, 121687, Note_off_c, 0, 55, 56
1, 121715, Note_off_c, 0, 67, 50
1, 121781, Note_off_c, 0, 62, 38
1, 121810, Control_c, 0, 64, 15
1, 121823, Note_on_c, 0, 64, 61
1, 121827, Control_c, 0, 64, 28
1, 121846, Control_c, 0, 64, 38
1, 121863, Note_off_c, 0, 65, 64
1, 121864, Control_c, 0, 64, 48
1, 121882, Control_c, 0, 64, 55
1, 121901, Control_c, 0, 64, 58
1, 121919, Control_c, 0, 64, 60
1, 121938, Control_c, 0, 64, 61
1, 121954, Note_off_c, 0, 64, 63
1, 121955, Control_c, 0, 64, 62
1, 121971, Note_on_c, 0, 62, 56
1, 122029, Control_c, 0, 64, 59
1, 122048, Control_c, 0, 64, 54
1, 122067, Control_c, 0, 64, 47
1, 122086, Control_c, 0, 64, 36
1, 122090, Note_off_c, 0, 57, 56
1, 122102, Note_on_c, 0, 58, 52
1, 122102, Control_c, 0, 64, 25
1, 122110, Note_on_c, 0, 55, 47
1, 122117, Note_off_c, 0, 62, 60
1, 122118, Note_on_c, 0, 61, 65
1, 122121, Control_c, 0, 64, 18
1, 122141, Control_c, 0, 64, 14
1, 122232, Control_c, 0, 64, 25
1, 122250, Control_c, 0, 64, 37
1, 122284, Control_c, 0, 64, 48
1, 122304, Control_c, 0, 64, 55
1, 122312, Note_on_c, 0, 62, 64
1, 122321, Control_c, 0, 64, 59
1, 122340, Control_c, 0, 64, 61
1, 122343, Note_off_c, 0, 61, 57
1, 122357, Control_c, 0, 64, 63
1, 122376, Control_c, 0, 64, 64
1, 122449, Note_off_c, 0, 58, 62
1, 122458, Note_on_c, 0, 64, 71
1, 122469, Note_off_c, 0, 62, 64
1, 122487, Control_c, 0, 64, 62
1, 122499, Note_off_c, 0, 55, 63
1, 122506, Control_c, 0, 64, 61
1, 122524, Control_c, 0, 64, 60
1, 122561, Control_c, 0, 64, 58
1, 122597, Control_c, 0, 64, 56
1, 122601, Note_off_c, 0, 64, 61
1, 122605, Note_on_c, 0, 62, 74
1, 122622, Note_on_c, 0, 53, 58
1, 122626, Note_on_c, 0, 57, 57
1, 122633, Control_c, 0, 64, 53
1, 122671, Control_c, 0, 64, 50
1, 122688, Control_c, 0, 64, 48
1, 122707, Control_c, 0, 64, 46
1, 122746, Control_c, 0, 64, 43
1, 122763, Control_c, 0, 64, 41
1, 122774, Note_on_c, 0, 52, 65
1, 122779, Note_on_c, 0, 64, 71
1, 122800, Control_c, 0, 64, 37
1, 122819, Note_off_c, 0, 53, 59
1, 122823, Note_off_c, 0, 62, 63
1, 122915, Note_on_c, 0, 50, 67
1, 122916, Note_on_c, 0, 65, 75
1, 122930, Control_c, 0, 64, 33
1, 122933, Note_off_c, 0, 52, 63
1, 122985, Note_off_c, 0, 64, 58
1, 123022, Control_c, 0, 64, 29
1, 123055, Note_on_c, 0, 67, 75
1, 123073, Note_on_c, 0, 49, 71
1, 123077, Note_off_c, 0, 50, 64
1, 123096, Note_off_c, 0, 65, 64
1, 123227, Note_on_c, 0, 50, 74
1, 123229, Note_on_c, 0, 65, 82
1, 123240, Note_off_c, 0, 49, 57
1, 123294, Note_off_c, 0, 67, 60
1, 123368, Control_c, 0, 64, 25
1, 123372, Note_on_c, 0, 64, 79
1, 123373, Note_on_c, 0, 52, 67
1, 123391, Note_off_c, 0, 50, 62
1, 123405, Note_off_c, 0, 65, 64
1, 123518, Note_off_c, 0, 57, 55
1, 123526, Note_on_c, 0, 50, 74
1, 123529, Note_on_c, 0, 65, 76
1, 123545, Note_off_c, 0, 64, 62
1, 123554, Note_off_c, 0, 52, 63
1, 123608, Control_c, 0, 64, 21
1, 123708, Note_on_c, 0, 67, 81
1, 123709, Note_on_c, 0, 55, 58
1, 123752, Note_off_c, 0, 65, 64
1, 123755, Control_c, 0, 64, 17
1, 123830, Note_on_c, 0, 69, 79
1, 123844, Note_on_c, 0, 53, 68
1, 123863, Note_off_c, 0, 55, 58
1, 123885, Note_off_c, 0, 67, 62
1, 123976, Note_on_c, 0, 70, 79
1, 123977, Note_off_c, 0, 53, 60
1, 123981, Note_on_c, 0, 52, 67
1, 124009, Note_off_c, 0, 69, 60
1, 124118, Note_on_c, 0, 69, 81
1, 124119, Note_on_c, 0, 53, 70
1, 124188, Note_off_c, 0, 52, 57
1, 124214, Note_off_c, 0, 70, 59
1, 124282, Note_off_c, 0, 53, 61
1, 124282, Note_on_c, 0, 55, 64
1, 124283, Note_on_c, 0, 67, 78
1, 124315, Note_off_c, 0, 69, 62
1, 124419, Note_off_c, 0, 55, 62
1, 124421, Note_on_c, 0, 53, 73
1, 124432, Note_on_c, 0, 69, 82
1, 124448, Note_off_c, 0, 67, 63
1, 124523, Note_off_c, 0, 50, 60
1, 124683, Note_on_c, 0, 48, 77
1, 124916, Note_on_c, 0, 74, 82
1, 124928, Note_on_c, 0, 46, 75
1, 124967, Note_off_c, 0, 48, 63
1, 124975, Note_off_c, 0, 53, 56
1, 125095, Note_off_c, 0, 69, 55
1, 125175, Note_on_c, 0, 55, 76
1, 125318, Control_c, 0, 64, 13
1, 125407, Note_on_c, 0, 45, 70
1, 125417, Note_on_c, 0, 73, 81
1, 125428, Control_c, 0, 64, 8
1, 125469, Note_off_c, 0, 46, 61
1, 125479, Note_off_c, 0, 55, 59
1, 125482, Control_c, 0, 64, 0
1, 125511, Note_off_c, 0, 74, 61
1, 125666, Note_on_c, 0, 55, 61
1, 125899, Note_on_c, 0, 72, 75
1, 125909, Note_on_c, 0, 54, 65
1, 125959, Note_off_c, 0, 73, 63
1, 125967, Note_off_c, 0, 55, 58
1, 126107, Control_c, 0, 64, 25
1, 126124, Control_c, 0, 64, 43
1, 126142, Control_c, 0, 64, 59
1, 126150, Note_on_c, 0, 50, 74
1, 126162, Control_c, 0, 64, 67
1, 126178, Control_c, 0, 64, 73
1, 126184, Note_off_c, 0, 54, 64
1, 126198, Control_c, 0, 64, 77
1, 126212, Note_off_c, 0, 45, 58
1, 126215, Control_c, 0, 64, 81
1, 126234, Control_c, 0, 64, 83
1, 126276, Note_off_c, 0, 50, 64
1, 126344, Control_c, 0, 64, 81
1, 126365, Control_c, 0, 64, 78
1, 126384, Control_c, 0, 64, 75
1, 126387, Note_on_c, 0, 43, 73
1, 126388, Note_on_c, 0, 71, 85
1, 126402, Control_c, 0, 64, 71
1, 126417, Control_c, 0, 64, 66
1, 126432, Note_off_c, 0, 72, 69
1, 126435, Control_c, 0, 64, 62
1, 126457, Control_c, 0, 64, 59
1, 126474, Control_c, 0, 64, 56
1, 126493, Control_c, 0, 64, 53
1, 126511, Control_c, 0, 64, 51
1, 126530, Control_c, 0, 64, 49
1, 126549, Control_c, 0, 64, 47
1, 126584, Control_c, 0, 64, 43
1, 126602, Control_c, 0, 64, 41
1, 126628, Note_on_c, 0, 53, 73
1, 126638, Control_c, 0, 64, 37
1, 126695, Control_c, 0, 64, 32
1, 126733, Control_c, 0, 64, 28
1, 126788, Control_c, 0, 64, 24
1, 126871, Note_on_c, 0, 70, 81
1, 126873, Note_on_c, 0, 52, 74
1, 126888, Note_off_c, 0, 53, 60
1, 126899, Control_c, 0, 64, 20
1, 126917, Control_c, 0, 64, 14
1, 126937, Control_c, 0, 64, 0
1, 126945, Note_off_c, 0, 71, 62
1, 127130, Note_on_c, 0, 48, 80
1, 127153, Control_c, 0, 64, 22
1, 127172, Control_c, 0, 64, 35
1, 127191, Control_c, 0, 64, 51
1, 127199, Note_off_c, 0, 52, 55
1, 127208, Note_off_c, 0, 43, 59
1, 127208, Control_c, 0, 64, 61
1, 127228, Control_c, 0, 64, 65
1, 127247, Control_c, 0, 64, 67
1, 127282, Control_c, 0, 64, 69
1, 127291, Note_off_c, 0, 48, 63
1, 127356, Note_on_c, 0, 69, 86
1, 127360, Note_on_c, 0, 41, 79
1, 127374, Control_c, 0, 64, 67
1, 127393, Control_c, 0, 64, 66
1, 127411, Control_c, 0, 64, 65
1, 127416, Note_off_c, 0, 70, 61
1, 127430, Control_c, 0, 64, 64
1, 127449, Control_c, 0, 64, 63
1, 127450, Control_c, 0, 64, 62
1, 127486, Control_c, 0, 64, 60
1, 127505, Control_c, 0, 64, 57
1, 127524, Control_c, 0, 64, 53
1, 127542, Control_c, 0, 64, 47
1, 127559, Control_c, 0, 64, 43
1, 127578, Control_c, 0, 64, 41
1, 127602, Note_on_c, 0, 51, 82
1, 127831, Note_on_c, 0, 81, 86
1, 127840, Note_on_c, 0, 50, 77
1, 127888, Control_c, 0, 64, 34
1, 127894, Note_off_c, 0, 51, 62
1, 127907, Control_c, 0, 64, 23
1, 127925, Control_c, 0, 64, 0
1, 128086, Note_on_c, 0, 46, 81
1, 128109, Control_c, 0, 64, 22
1, 128128, Control_c, 0, 64, 40
1, 128146, Control_c, 0, 64, 56
1, 128155, Note_off_c, 0, 41, 60
1, 128166, Control_c, 0, 64, 66
1, 128184, Control_c, 0, 64, 71
1, 128188, Note_off_c, 0, 50, 63
1, 128201, Control_c, 0, 64, 75
1, 128219, Control_c, 0, 64, 78
1, 128238, Control_c, 0, 64, 80
1, 128252, Note_off_c, 0, 46, 64
1, 128331, Note_off_c, 0, 69, 54
1, 128331, Note_on_c, 0, 40, 81
1, 128339, Note_on_c, 0, 80, 82
1, 128404, Control_c, 0, 64, 76
1, 128415, Note_off_c, 0, 81, 62
1, 128421, Control_c, 0, 64, 73
1, 128440, Control_c, 0, 64, 70
1, 128460, Control_c, 0, 64, 66
1, 128477, Control_c, 0, 64, 61
1, 128495, Control_c, 0, 64, 56
1, 128513, Control_c, 0, 64, 53
1, 128533, Control_c, 0, 64, 51
1, 128550, Control_c, 0, 64, 47
1, 128570, Control_c, 0, 64, 41
1, 128579, Note_on_c, 0, 50, 80
1, 128588, Control_c, 0, 64, 36
1, 128645, Control_c, 0, 64, 32
1, 128681, Control_c, 0, 64, 28
1, 128718, Control_c, 0, 64, 17
1, 128734, Control_c, 0, 64, 0
1, 128829, Note_on_c, 0, 49, 76
1, 128830, Note_on_c, 0, 79, 80
1, 128876, Note_off_c, 0, 80, 66
1, 128913, Note_off_c, 0, 50, 59
1, 129045, Control_c, 0, 64, 14
1, 129063, Control_c, 0, 64, 34
1, 129082, Control_c, 0, 64, 53
1, 129083, Note_on_c, 0, 45, 80
1, 129101, Control_c, 0, 64, 65
1, 129119, Note_off_c, 0, 49, 62
1, 129119, Control_c, 0, 64, 73
1, 129137, Note_off_c, 0, 40, 57
1, 129137, Control_c, 0, 64, 79
1, 129155, Control_c, 0, 64, 86
1, 129174, Control_c, 0, 64, 90
1, 129210, Control_c, 0, 64, 95
1, 129219, Note_off_c, 0, 45, 62
1, 129346, Note_on_c, 0, 50, 73
1, 129346, Note_on_c, 0, 78, 81
1, 129347, Note_on_c, 0, 38, 73
1, 129377, Control_c, 0, 64, 88
1, 129396, Control_c, 0, 64, 81
1, 129414, Control_c, 0, 64, 72
1, 129431, Control_c, 0, 64, 61
1, 129434, Note_off_c, 0, 79, 54
1, 129450, Control_c, 0, 64, 52
1, 129469, Control_c, 0, 64, 46
1, 129487, Control_c, 0, 64, 38
1, 129506, Control_c, 0, 64, 26
1, 129525, Control_c, 0, 64, 10
1, 129544, Control_c, 0, 64, 0
1, 129676, Note_on_c, 0, 69, 82
1, 129690, Control_c, 0, 64, 22
1, 129707, Control_c, 0, 64, 39
1, 129727, Control_c, 0, 64, 57
1, 129760, Control_c, 0, 64, 65
1, 129779, Control_c, 0, 64, 69
1, 129798, Control_c, 0, 64, 72
1, 129801, Note_off_c, 0, 78, 64
1, 129836, Note_off_c, 0, 50, 62
1, 129890, Control_c, 0, 64, 69
1, 129906, Control_c, 0, 64, 66
1, 129924, Control_c, 0, 64, 62
1, 129929, Note_on_c, 0, 77, 75
1, 129930, Note_on_c, 0, 70, 81
1, 129933, Note_on_c, 0, 50, 60
1, 129943, Control_c, 0, 64, 57
1, 129963, Control_c, 0, 64, 51
1, 129977, Note_off_c, 0, 69, 51
1, 129980, Control_c, 0, 64, 46
1, 130000, Control_c, 0, 64, 39
1, 130018, Control_c, 0, 64, 30
1, 130039, Control_c, 0, 64, 22
1, 130056, Control_c, 0, 64, 11
1, 130073, Control_c, 0, 64, 0
1, 130177, Note_on_c, 0, 69, 81
1, 130183, Control_c, 0, 64, 17
1, 130202, Control_c, 0, 64, 34
1, 130218, Note_off_c, 0, 70, 62
1, 130219, Control_c, 0, 64, 50
1, 130240, Control_c, 0, 64, 61
1, 130259, Control_c, 0, 64, 66
1, 130267, Note_off_c, 0, 77, 57
1, 130276, Control_c, 0, 64, 70
1, 130295, Control_c, 0, 64, 73
1, 130312, Control_c, 0, 64, 75
1, 130338, Note_off_c, 0, 38, 57
1, 130367, Control_c, 0, 64, 72
1, 130376, Note_off_c, 0, 69, 63
1, 130385, Control_c, 0, 64, 66
1, 130399, Note_on_c, 0, 67, 75
1, 130403, Control_c, 0, 64, 55
1, 130411, Note_on_c, 0, 76, 71
1, 130422, Control_c, 0, 64, 46
1, 130497, Control_c, 0, 64, 52
1, 130516, Control_c, 0, 64, 57
1, 130534, Control_c, 0, 64, 61
1, 130552, Control_c, 0, 64, 65
1, 130571, Control_c, 0, 64, 67
1, 130641, Note_on_c, 0, 70, 69
1, 130663, Control_c, 0, 64, 66
1, 130715, Control_c, 0, 64, 64
1, 130716, Note_off_c, 0, 67, 63
1, 130733, Control_c, 0, 64, 62
1, 130752, Control_c, 0, 64, 60
1, 130769, Control_c, 0, 64, 58
1, 130788, Control_c, 0, 64, 56
1, 130806, Control_c, 0, 64, 54
1, 130826, Control_c, 0, 64, 51
1, 130842, Control_c, 0, 64, 49
1, 130861, Control_c, 0, 64, 46
1, 130881, Control_c, 0, 64, 44
1, 130896, Note_on_c, 0, 69, 65
1, 130900, Control_c, 0, 64, 42
1, 130906, Note_on_c, 0, 49, 52
1, 130925, Note_off_c, 0, 70, 62
1, 130934, Control_c, 0, 64, 37
1, 130954, Note_off_c, 0, 50, 59
1, 130992, Control_c, 0, 64, 32
1, 131128, Note_on_c, 0, 67, 63
1, 131159, Note_off_c, 0, 69, 59
1, 131356, Note_on_c, 0, 65, 62
1, 131358, Note_off_c, 0, 49, 58
1, 131360, Note_off_c, 0, 67, 64
1, 131377, Note_on_c, 0, 50, 54
1, 131506, Control_c, 0, 64, 36
1, 131524, Control_c, 0, 64, 43
1, 131542, Control_c, 0, 64, 49
1, 131561, Control_c, 0, 64, 55
1, 131579, Control_c, 0, 64, 58
1, 131593, Note_on_c, 0, 57, 68
1, 131632, Control_c, 0, 64, 60
1, 131650, Control_c, 0, 64, 61
1, 131718, Note_off_c, 0, 76, 36
1, 131759, Note_off_c, 0, 50, 37
1, 131779, Control_c, 0, 64, 60
1, 131834, Control_c, 0, 64, 58
1, 131851, Note_on_c, 0, 74, 74
1, 131869, Note_on_c, 0, 58, 61
1, 131909, Control_c, 0, 64, 56
1, 131942, Note_off_c, 0, 57, 59
1, 131963, Control_c, 0, 64, 54
1, 132001, Control_c, 0, 64, 51
1, 132016, Control_c, 0, 64, 49
1, 132036, Control_c, 0, 64, 47
1, 132074, Control_c, 0, 64, 45
1, 132091, Note_on_c, 0, 57, 61
1, 132111, Control_c, 0, 64, 43
1, 132130, Note_off_c, 0, 58, 58
1, 132149, Control_c, 0, 64, 41
1, 132221, Control_c, 0, 64, 37
1, 132327, Note_off_c, 0, 57, 52
1, 132336, Note_on_c, 0, 55, 47
1, 132351, Control_c, 0, 64, 32
1, 132355, Note_on_c, 0, 64, 46
1, 132359, Note_off_c, 0, 65, 58
1, 132582, Note_on_c, 0, 58, 50
1, 132611, Note_off_c, 0, 55, 55
1, 132825, Note_on_c, 0, 57, 47
1, 132838, Note_on_c, 0, 73, 49
1, 132863, Control_c, 0, 64, 28
1, 132874, Note_off_c, 0, 58, 47
1, 132903, Note_off_c, 0, 74, 56
1, 132971, Control_c, 0, 64, 22
1, 132990, Control_c, 0, 64, 13
1, 133009, Control_c, 0, 64, 0
1, 133021, Note_off_c, 0, 64, 38
1, 133053, Note_off_c, 0, 57, 57
1, 133055, Note_on_c, 0, 55, 46
1, 133210, Control_c, 0, 64, 21
1, 133229, Control_c, 0, 64, 34
1, 133247, Control_c, 0, 64, 49
1, 133267, Control_c, 0, 64, 59
1, 133285, Control_c, 0, 64, 64
1, 133304, Control_c, 0, 64, 67
1, 133320, Note_off_c, 0, 73, 63
1, 133321, Control_c, 0, 64, 70
1, 133329, Note_on_c, 0, 53, 45
1, 133351, Note_off_c, 0, 55, 49
1, 133449, Control_c, 0, 64, 68
1, 133467, Control_c, 0, 64, 66
1, 133502, Control_c, 0, 64, 65
1, 133520, Control_c, 0, 64, 63
1, 133539, Control_c, 0, 64, 61
1, 133557, Control_c, 0, 64, 58
1, 133575, Control_c, 0, 64, 55
1, 133594, Control_c, 0, 64, 52
1, 133595, Note_on_c, 0, 81, 49
1, 133613, Control_c, 0, 64, 50
1, 133648, Control_c, 0, 64, 48
1, 133685, Control_c, 0, 64, 46
1, 133704, Control_c, 0, 64, 44
1, 133741, Control_c, 0, 64, 41
1, 133798, Control_c, 0, 64, 36
1, 133822, Note_on_c, 0, 62, 57
1, 133832, Control_c, 0, 64, 32
1, 133836, Note_on_c, 0, 82, 60
1, 133862, Note_off_c, 0, 81, 55
1, 133871, Control_c, 0, 64, 25
1, 133887, Control_c, 0, 64, 20
1, 133906, Control_c, 0, 64, 15
1, 133944, Control_c, 0, 64, 0
1, 134050, Note_on_c, 0, 81, 61
1, 134118, Note_off_c, 0, 82, 49
1, 134302, Note_off_c, 0, 81, 57
1, 134304, Note_off_c, 0, 53, 56
1, 134306, Note_on_c, 0, 79, 51
1, 134311, Note_on_c, 0, 52, 39
1, 134543, Note_on_c, 0, 82, 53
1, 134572, Note_off_c, 0, 79, 62
1, 134780, Note_on_c, 0, 81, 55
1, 134797, Note_on_c, 0, 61, 47
1, 134842, Control_c, 0, 64, 21
1, 134854, Note_off_c, 0, 82, 42
1, 134859, Control_c, 0, 64, 36
1, 134869, Note_off_c, 0, 62, 55
1, 134878, Control_c, 0, 64, 51
1, 134898, Control_c, 0, 64, 62
1, 134917, Control_c, 0, 64, 68
1, 134936, Control_c, 0, 64, 73
1, 134954, Control_c, 0, 64, 77
1, 134970, Control_c, 0, 64, 82
1, 134982, Note_off_c, 0, 52, 41
1, 134988, Control_c, 0, 64, 86
1, 135000, Note_off_c, 0, 61, 64
1, 135025, Note_on_c, 0, 79, 55
1, 135045, Control_c, 0, 64, 90
1, 135056, Note_off_c, 0, 81, 56
1, 135175, Control_c, 0, 64, 82
1, 135193, Control_c, 0, 64, 69
1, 135210, Control_c, 0, 64, 56
1, 135230, Control_c, 0, 64, 53
1, 135238, Note_off_c, 0, 79, 63
1, 135247, Control_c, 0, 64, 55
1, 135253, Note_on_c, 0, 50, 52
1, 135256, Note_on_c, 0, 77, 58
1, 135265, Control_c, 0, 64, 59
1, 135265, Note_on_c, 0, 62, 56
1, 135283, Control_c, 0, 64, 63
1, 135290, Note_off_c, 0, 50, 56
1, 135303, Control_c, 0, 64, 67
1, 135320, Control_c, 0, 64, 70
1, 135340, Control_c, 0, 64, 72
1, 135393, Control_c, 0, 64, 74
1, 135441, Note_on_c, 0, 76, 63
1, 135442, Note_off_c, 0, 77, 54
1, 135450, Note_off_c, 0, 62, 63
1, 135456, Note_on_c, 0, 64, 70
1, 135521, Control_c, 0, 64, 72
1, 135556, Control_c, 0, 64, 68
1, 135575, Control_c, 0, 64, 65
1, 135589, Note_off_c, 0, 76, 63
1, 135594, Control_c, 0, 64, 63
1, 135597, Note_on_c, 0, 65, 64
1, 135602, Note_on_c, 0, 74, 63
1, 135613, Control_c, 0, 64, 59
1, 135620, Note_off_c, 0, 64, 52
1, 135632, Control_c, 0, 64, 56
1, 135650, Control_c, 0, 64, 52
1, 135669, Control_c, 0, 64, 49
1, 135686, Control_c, 0, 64, 46
1, 135704, Control_c, 0, 64, 43
1, 135723, Control_c, 0, 64, 39
1, 135728, Note_on_c, 0, 67, 63
1, 135730, Note_off_c, 0, 65, 65
1, 135730, Note_on_c, 0, 73, 69
1, 135741, Note_off_c, 0, 74, 57
1, 135759, Control_c, 0, 64, 33
1, 135850, Control_c, 0, 64, 29
1, 135859, Note_on_c, 0, 65, 69
1, 135863, Note_off_c, 0, 67, 62
1, 135873, Note_on_c, 0, 74, 72
1, 135905, Control_c, 0, 64, 25
1, 135912, Note_off_c, 0, 73, 58
1, 135945, Control_c, 0, 64, 21
1, 135980, Control_c, 0, 64, 16
1, 135991, Note_off_c, 0, 65, 61
1, 135999, Note_on_c, 0, 64, 66
1, 136011, Note_on_c, 0, 76, 65
1, 136034, Note_off_c, 0, 74, 58
1, 136073, Control_c, 0, 64, 12
1, 136143, Note_on_c, 0, 65, 63
1, 136160, Note_on_c, 0, 69, 60
1, 136180, Note_off_c, 0, 76, 57
1, 136209, Note_off_c, 0, 64, 61
1, 136316, Note_on_c, 0, 67, 73
1, 136326, Note_on_c, 0, 71, 65
1, 136344, Note_off_c, 0, 65, 65
1, 136357, Note_off_c, 0, 69, 55
1, 136453, Note_on_c, 0, 69, 72
1, 136466, Note_on_c, 0, 73, 68
1, 136501, Note_off_c, 0, 71, 60
1, 136501, Note_off_c, 0, 67, 60
1, 136578, Note_on_c, 0, 70, 74
1, 136600, Note_on_c, 0, 74, 70
1, 136608, Note_off_c, 0, 73, 63
1, 136617, Note_off_c, 0, 69, 63
1, 136728, Note_on_c, 0, 69, 78
1, 136739, Note_on_c, 0, 73, 75
1, 136762, Note_off_c, 0, 70, 60
1, 136777, Note_off_c, 0, 74, 63
1, 136867, Note_on_c, 0, 67, 78
1, 136878, Note_off_c, 0, 69, 61
1, 136889, Note_on_c, 0, 71, 73
1, 136905, Note_off_c, 0, 73, 60
1, 137008, Control_c, 0, 64, 0
1, 137023, Note_on_c, 0, 69, 77
1, 137040, Note_on_c, 0, 73, 73
1, 137061, Note_off_c, 0, 71, 61
1, 137070, Note_off_c, 0, 67, 62
1, 137197, Note_off_c, 0, 73, 62
1, 137198, Note_on_c, 0, 74, 79
1, 137245, Control_c, 0, 64, 20
1, 137263, Control_c, 0, 64, 30
1, 137281, Control_c, 0, 64, 41
1, 137300, Control_c, 0, 64, 52
1, 137317, Control_c, 0, 64, 59
1, 137336, Control_c, 0, 64, 63
1, 137353, Note_on_c, 0, 76, 79
1, 137353, Control_c, 0, 64, 66
1, 137367, Note_off_c, 0, 74, 62
1, 137372, Control_c, 0, 64, 67
1, 137446, Control_c, 0, 64, 59
1, 137465, Control_c, 0, 64, 43
1, 137482, Control_c, 0, 64, 21
1, 137489, Note_on_c, 0, 74, 86
1, 137498, Note_on_c, 0, 77, 79
1, 137500, Control_c, 0, 64, 9
1, 137524, Note_off_c, 0, 76, 63
1, 137537, Note_off_c, 0, 69, 60
1, 137557, Control_c, 0, 64, 19
1, 137575, Control_c, 0, 64, 37
1, 137596, Control_c, 0, 64, 53
1, 137613, Control_c, 0, 64, 63
1, 137629, Control_c, 0, 64, 67
1, 137635, Note_off_c, 0, 74, 64
1, 137646, Control_c, 0, 64, 70
1, 137648, Note_on_c, 0, 76, 82
1, 137667, Control_c, 0, 64, 73
1, 137698, Note_off_c, 0, 77, 59
1, 137778, Note_on_c, 0, 74, 83
1, 137785, Note_off_c, 0, 76, 61
1, 137833, Control_c, 0, 64, 70
1, 137868, Note_off_c, 0, 74, 65
1, 137869, Control_c, 0, 64, 66
1, 137888, Control_c, 0, 64, 65
1, 137906, Control_c, 0, 64, 63
1, 137919, Note_on_c, 0, 76, 85
1, 137924, Control_c, 0, 64, 61
1, 137925, Note_on_c, 0, 73, 81
1, 137946, Control_c, 0, 64, 58
1, 137963, Control_c, 0, 64, 55
1, 138000, Control_c, 0, 64, 52
1, 138017, Control_c, 0, 64, 49
1, 138036, Control_c, 0, 64, 46
1, 138055, Control_c, 0, 64, 43
1, 138090, Control_c, 0, 64, 37
1, 138128, Control_c, 0, 64, 32
1, 138199, Note_on_c, 0, 47, 81
1, 138440, Note_on_c, 0, 81, 81
1, 138446, Note_on_c, 0, 48, 74
1, 138447, Note_on_c, 0, 72, 79
1, 138488, Note_off_c, 0, 76, 61
1, 138490, Note_off_c, 0, 73, 57
1, 138501, Note_on_c, 0, 78, 35
1, 138509, Control_c, 0, 64, 28
1, 138527, Note_off_c, 0, 47, 58
1, 138541, Note_off_c, 0, 78, 49
1, 138548, Control_c, 0, 64, 21
1, 138565, Control_c, 0, 64, 10
1, 138584, Control_c, 0, 64, 0
1, 138684, Note_on_c, 0, 50, 74
1, 138732, Control_c, 0, 64, 18
1, 138749, Note_off_c, 0, 48, 62
1, 138750, Control_c, 0, 64, 31
1, 138770, Control_c, 0, 64, 42
1, 138787, Control_c, 0, 64, 52
1, 138805, Control_c, 0, 64, 57
1, 138811, Note_off_c, 0, 72, 69
1, 138824, Control_c, 0, 64, 59
1, 138917, Note_on_c, 0, 52, 75
1, 138926, Note_on_c, 0, 71, 79
1, 138929, Note_on_c, 0, 80, 80
1, 138944, Note_off_c, 0, 50, 64
1, 138970, Control_c, 0, 64, 56
1, 138990, Control_c, 0, 64, 51
1, 138991, Note_off_c, 0, 81, 55
1, 139009, Control_c, 0, 64, 43
1, 139024, Control_c, 0, 64, 33
1, 139044, Control_c, 0, 64, 25
1, 139169, Control_c, 0, 64, 31
1, 139170, Note_on_c, 0, 54, 67
1, 139190, Control_c, 0, 64, 43
1, 139206, Control_c, 0, 64, 56
1, 139225, Control_c, 0, 64, 63
1, 139239, Note_off_c, 0, 52, 57
1, 139242, Control_c, 0, 64, 67
1, 139263, Control_c, 0, 64, 70
1, 139279, Control_c, 0, 64, 73
1, 139282, Note_off_c, 0, 80, 66
1, 139297, Control_c, 0, 64, 76
1, 139335, Control_c, 0, 64, 78
1, 139374, Note_off_c, 0, 71, 49
1, 139391, Control_c, 0, 64, 76
1, 139401, Note_on_c, 0, 70, 81
1, 139403, Note_on_c, 0, 79, 77
1, 139410, Control_c, 0, 64, 72
1, 139414, Note_on_c, 0, 55, 67
1, 139428, Control_c, 0, 64, 65
1, 139446, Control_c, 0, 64, 55
1, 139461, Note_off_c, 0, 54, 62
1, 139464, Control_c, 0, 64, 45
1, 139484, Control_c, 0, 64, 38
1, 139500, Control_c, 0, 64, 34
1, 139613, Control_c, 0, 64, 40
1, 139631, Control_c, 0, 64, 49
1, 139649, Control_c, 0, 64, 57
1, 139653, Note_on_c, 0, 52, 67
1, 139667, Control_c, 0, 64, 63
1, 139686, Control_c, 0, 64, 68
1, 139692, Note_off_c, 0, 55, 63
1, 139705, Control_c, 0, 64, 72
1, 139722, Control_c, 0, 64, 76
1, 139739, Control_c, 0, 64, 79
1, 139758, Control_c, 0, 64, 81
1, 139798, Note_off_c, 0, 70, 65
1, 139887, Control_c, 0, 64, 79
1, 139904, Note_on_c, 0, 78, 76
1, 139905, Note_on_c, 0, 69, 75
1, 139912, Note_on_c, 0, 57, 61
1, 139921, Note_off_c, 0, 52, 63
1, 139925, Control_c, 0, 64, 76
1, 139943, Control_c, 0, 64, 74
1, 139960, Control_c, 0, 64, 71
1, 139979, Control_c, 0, 64, 68
1, 139998, Control_c, 0, 64, 64
1, 140008, Note_off_c, 0, 79, 56
1, 140015, Control_c, 0, 64, 61
1, 140050, Control_c, 0, 64, 58
1, 140070, Control_c, 0, 64, 56
1, 140106, Control_c, 0, 64, 53
1, 140125, Control_c, 0, 64, 51
1, 140142, Control_c, 0, 64, 49
1, 140160, Control_c, 0, 64, 47
1, 140179, Control_c, 0, 64, 45
1, 140184, Note_on_c, 0, 56, 66
1, 140198, Control_c, 0, 64, 43
1, 140215, Control_c, 0, 64, 40
1, 140242, Note_off_c, 0, 57, 60
1, 140252, Control_c, 0, 64, 34
1, 140290, Control_c, 0, 64, 27
1, 140308, Control_c, 0, 64, 22
1, 140328, Control_c, 0, 64, 16
1, 140346, Control_c, 0, 64, 11
1, 140382, Control_c, 0, 64, 0
1, 140402, Note_on_c, 0, 57, 66
1, 140408, Note_on_c, 0, 77, 71
1, 140452, Note_off_c, 0, 56, 58
1, 140508, Note_off_c, 0, 78, 65
1, 140658, Note_on_c, 0, 59, 58
1, 140690, Note_off_c, 0, 57, 58
1, 140890, Note_on_c, 0, 76, 68
1, 140896, Note_on_c, 0, 60, 44
1, 140932, Note_off_c, 0, 59, 59
1, 141017, Note_off_c, 0, 77, 47
1, 141078, Control_c, 0, 64, 17
1, 141095, Control_c, 0, 64, 33
1, 141115, Control_c, 0, 64, 48
1, 141133, Control_c, 0, 64, 59
1, 141149, Control_c, 0, 64, 64
1, 141153, Note_on_c, 0, 54, 52
1, 141168, Control_c, 0, 64, 67
1, 141172, Note_off_c, 0, 60, 59
1, 141188, Control_c, 0, 64, 71
1, 141207, Control_c, 0, 64, 74
1, 141223, Control_c, 0, 64, 78
1, 141243, Control_c, 0, 64, 80
1, 141277, Note_off_c, 0, 76, 64
1, 141354, Control_c, 0, 64, 76
1, 141372, Control_c, 0, 64, 74
1, 141389, Control_c, 0, 64, 71
1, 141399, Note_off_c, 0, 54, 59
1, 141404, Note_on_c, 0, 59, 58
1, 141404, Note_on_c, 0, 74, 73
1, 141408, Control_c, 0, 64, 67
1, 141428, Control_c, 0, 64, 64
1, 141444, Control_c, 0, 64, 60
1, 141462, Control_c, 0, 64, 57
1, 141481, Control_c, 0, 64, 53
1, 141500, Control_c, 0, 64, 51
1, 141518, Control_c, 0, 64, 49
1, 141557, Control_c, 0, 64, 45
1, 141575, Control_c, 0, 64, 42
1, 141594, Note_off_c, 0, 69, 52
1, 141610, Control_c, 0, 64, 37
1, 141657, Note_on_c, 0, 57, 58
1, 141662, Note_on_c, 0, 65, 60
1, 141665, Control_c, 0, 64, 32
1, 141694, Note_off_c, 0, 59, 51
1, 141721, Control_c, 0, 64, 28
1, 141777, Control_c, 0, 64, 24
1, 141814, Control_c, 0, 64, 20
1, 141851, Control_c, 0, 64, 16
1, 141888, Control_c, 0, 64, 8
1, 141903, Note_on_c, 0, 64, 64
1, 141917, Note_on_c, 0, 56, 59
1, 141920, Control_c, 0, 64, 0
1, 141951, Note_off_c, 0, 57, 57
1, 141961, Note_off_c, 0, 65, 62
1, 142154, Note_on_c, 0, 52, 59
1, 142167, Note_off_c, 0, 56, 56
1, 142202, Note_off_c, 0, 74, 56
1, 142392, Note_on_c, 0, 72, 72
1, 142393, Note_on_c, 0, 57, 53
1, 142414, Note_off_c, 0, 52, 58
1, 142480, Note_off_c, 0, 64, 57
1, 142529, Control_c, 0, 64, 20
1, 142546, Control_c, 0, 64, 30
1, 142564, Control_c, 0, 64, 41
1, 142584, Control_c, 0, 64, 52
1, 142602, Control_c, 0, 64, 59
1, 142621, Control_c, 0, 64, 63
1, 142625, Note_on_c, 0, 64, 61
1, 142640, Control_c, 0, 64, 65
1, 142658, Control_c, 0, 64, 67
1, 142677, Control_c, 0, 64, 69
1, 142693, Control_c, 0, 64, 71
1, 142713, Control_c, 0, 64, 73
1, 142735, Note_off_c, 0, 64, 63
1, 142877, Note_on_c, 0, 71, 70
1, 142901, Note_on_c, 0, 62, 46
1, 142909, Note_off_c, 0, 72, 61
1, 142911, Note_off_c, 0, 57, 61
1, 142948, Control_c, 0, 64, 70
1, 142986, Control_c, 0, 64, 67
1, 143005, Control_c, 0, 64, 64
1, 143022, Control_c, 0, 64, 62
1, 143040, Control_c, 0, 64, 59
1, 143058, Control_c, 0, 64, 56
1, 143078, Control_c, 0, 64, 53
1, 143097, Control_c, 0, 64, 50
1, 143115, Control_c, 0, 64, 47
1, 143126, Note_on_c, 0, 50, 56
1, 143133, Control_c, 0, 64, 43
1, 143153, Control_c, 0, 64, 39
1, 143170, Control_c, 0, 64, 35
1, 143207, Control_c, 0, 64, 30
1, 143261, Control_c, 0, 64, 25
1, 143299, Control_c, 0, 64, 20
1, 143352, Control_c, 0, 64, 16
1, 143353, Note_on_c, 0, 55, 50
1, 143357, Note_on_c, 0, 70, 65
1, 143373, Note_off_c, 0, 71, 51
1, 143383, Note_off_c, 0, 62, 38
1, 143446, Note_off_c, 0, 50, 52
1, 143566, Note_on_c, 0, 62, 46
1, 143583, Note_off_c, 0, 55, 55
1, 143593, Note_on_c, 0, 53, 47
1, 143815, Note_off_c, 0, 62, 57
1, 143820, Note_off_c, 0, 53, 56
1, 143836, Note_on_c, 0, 52, 46
1, 143853, Note_on_c, 0, 60, 45
1, 144057, Note_off_c, 0, 52, 54
1, 144068, Control_c, 0, 64, 25
1, 144078, Note_on_c, 0, 48, 44
1, 144088, Control_c, 0, 64, 33
1, 144106, Control_c, 0, 64, 41
1, 144123, Control_c, 0, 64, 50
1, 144143, Control_c, 0, 64, 55
1, 144161, Control_c, 0, 64, 57
1, 144197, Control_c, 0, 64, 60
1, 144216, Control_c, 0, 64, 61
1, 144264, Note_off_c, 0, 48, 60
1, 144264, Note_off_c, 0, 60, 59
1, 144269, Control_c, 0, 64, 60
1, 144288, Control_c, 0, 64, 55
1, 144291, Note_on_c, 0, 69, 58
1, 144297, Note_on_c, 0, 53, 44
1, 144307, Control_c, 0, 64, 48
1, 144326, Control_c, 0, 64, 40
1, 144340, Note_off_c, 0, 70, 48
1, 144344, Control_c, 0, 64, 34
1, 144438, Control_c, 0, 64, 41
1, 144455, Control_c, 0, 64, 48
1, 144474, Control_c, 0, 64, 55
1, 144490, Control_c, 0, 64, 59
1, 144509, Control_c, 0, 64, 63
1, 144528, Control_c, 0, 64, 65
1, 144541, Note_on_c, 0, 60, 41
1, 144546, Control_c, 0, 64, 67
1, 144584, Control_c, 0, 64, 70
1, 144607, Note_off_c, 0, 60, 62
1, 144775, Note_off_c, 0, 53, 57
1, 144781, Note_on_c, 0, 68, 57
1, 144803, Note_on_c, 0, 59, 35
1, 144820, Control_c, 0, 64, 68
1, 144838, Control_c, 0, 64, 66
1, 144857, Control_c, 0, 64, 64
1, 144868, Note_off_c, 0, 69, 50
1, 144875, Control_c, 0, 64, 61
1, 144893, Control_c, 0, 64, 59
1, 144911, Control_c, 0, 64, 57
1, 144948, Control_c, 0, 64, 52
1, 144966, Control_c, 0, 64, 50
1, 144984, Control_c, 0, 64, 46
1, 145002, Control_c, 0, 64, 43
1, 145012, Note_on_c, 0, 47, 53
1, 145022, Control_c, 0, 64, 39
1, 145059, Control_c, 0, 64, 34
1, 145096, Control_c, 0, 64, 30
1, 145131, Control_c, 0, 64, 25
1, 145238, Note_off_c, 0, 68, 62
1, 145251, Note_on_c, 0, 67, 56
1, 145265, Note_on_c, 0, 52, 41
1, 145321, Note_off_c, 0, 47, 37
1, 145434, Note_off_c, 0, 59, 42
1, 145493, Note_on_c, 0, 58, 45
1, 145500, Note_off_c, 0, 52, 50
1, 145509, Note_on_c, 0, 50, 40
1, 145703, Note_off_c, 0, 58, 63
1, 145747, Note_on_c, 0, 49, 40
1, 145753, Note_on_c, 0, 57, 43
1, 145775, Note_off_c, 0, 50, 42
1, 145865, Control_c, 0, 64, 32
1, 145884, Control_c, 0, 64, 38
1, 145903, Control_c, 0, 64, 46
1, 145921, Control_c, 0, 64, 52
1, 145940, Control_c, 0, 64, 57
1, 145959, Control_c, 0, 64, 60
1, 145970, Note_off_c, 0, 49, 52
1, 145975, Control_c, 0, 64, 63
1, 145990, Note_on_c, 0, 45, 41
1, 145994, Control_c, 0, 64, 65
1, 146014, Control_c, 0, 64, 66
1, 146031, Note_off_c, 0, 57, 42
1, 146032, Control_c, 0, 64, 67
1, 146141, Control_c, 0, 64, 66
1, 146159, Control_c, 0, 64, 65
1, 146171, Note_off_c, 0, 67, 49
1, 146179, Control_c, 0, 64, 62
1, 146198, Control_c, 0, 64, 59
1, 146215, Control_c, 0, 64, 55
1, 146221, Note_on_c, 0, 50, 38
1, 146222, Note_on_c, 0, 65, 40
1, 146234, Control_c, 0, 64, 51
1, 146254, Control_c, 0, 64, 47
1, 146262, Note_off_c, 0, 45, 41
1, 146270, Note_off_c, 0, 65, 63
1, 146272, Control_c, 0, 64, 43
1, 146288, Control_c, 0, 64, 40
1, 146291, Note_on_c, 0, 67, 56
1, 146345, Control_c, 0, 64, 35
1, 146362, Note_off_c, 0, 67, 48
1, 146385, Note_on_c, 0, 65, 51
1, 146474, Control_c, 0, 64, 39
1, 146492, Control_c, 0, 64, 45
1, 146509, Control_c, 0, 64, 52
1, 146528, Control_c, 0, 64, 57
1, 146548, Control_c, 0, 64, 60
1, 146565, Control_c, 0, 64, 61
1, 146598, Control_c, 0, 64, 62
1, 146747, Control_c, 0, 64, 60
1, 146761, Note_off_c, 0, 65, 56
1, 146769, Note_on_c, 0, 69, 55
1, 146783, Control_c, 0, 64, 56
1, 146788, Note_on_c, 0, 64, 42
1, 146801, Control_c, 0, 64, 51
1, 146820, Control_c, 0, 64, 46
1, 146839, Control_c, 0, 64, 40
1, 146878, Control_c, 0, 64, 35
1, 146966, Note_on_c, 0, 67, 57
1, 146985, Control_c, 0, 64, 41
1, 147003, Control_c, 0, 64, 46
1, 147023, Control_c, 0, 64, 52
1, 147040, Control_c, 0, 64, 55
1, 147041, Note_off_c, 0, 69, 51
1, 147060, Control_c, 0, 64, 57
1, 147088, Note_off_c, 0, 64, 52
1, 147119, Note_on_c, 0, 65, 61
1, 147158, Note_off_c, 0, 67, 55
1, 147224, Control_c, 0, 64, 54
1, 147243, Control_c, 0, 64, 50
1, 147261, Control_c, 0, 64, 46
1, 147263, Note_on_c, 0, 64, 55
1, 147279, Note_on_c, 0, 49, 50
1, 147280, Control_c, 0, 64, 43
1, 147289, Note_off_c, 0, 65, 61
1, 147296, Control_c, 0, 64, 40
1, 147334, Control_c, 0, 64, 35
1, 147371, Note_off_c, 0, 50, 49
1, 147436, Note_on_c, 0, 65, 65
1, 147497, Note_off_c, 0, 64, 58
1, 147584, Note_on_c, 0, 67, 60
1, 147617, Note_off_c, 0, 65, 61
1, 147734, Note_on_c, 0, 50, 53
1, 147736, Control_c, 0, 64, 31
1, 147749, Note_off_c, 0, 49, 59
1, 147752, Note_on_c, 0, 65, 70
1, 147874, Note_off_c, 0, 67, 39
1, 147910, Note_on_c, 0, 48, 57
1, 147918, Note_on_c, 0, 64, 66
1, 147941, Note_off_c, 0, 50, 53
1, 147962, Note_off_c, 0, 65, 64
1, 148043, Note_on_c, 0, 46, 64
1, 148062, Note_on_c, 0, 62, 67
1, 148065, Note_off_c, 0, 48, 56
1, 148072, Note_off_c, 0, 64, 62
1, 148199, Note_on_c, 0, 61, 69
1, 148202, Note_off_c, 0, 46, 61
1, 148203, Note_on_c, 0, 45, 61
1, 148217, Note_off_c, 0, 62, 56
1, 148348, Note_on_c, 0, 46, 67
1, 148349, Note_on_c, 0, 62, 76
1, 148374, Note_off_c, 0, 61, 62
1, 148376, Note_off_c, 0, 45, 59
1, 148515, Note_on_c, 0, 64, 68
1, 148523, Note_on_c, 0, 48, 64
1, 148532, Note_off_c, 0, 62, 57
1, 148539, Note_off_c, 0, 46, 61
1, 148562, Control_c, 0, 64, 26
1, 148599, Control_c, 0, 64, 19
1, 148636, Control_c, 0, 64, 12
1, 148651, Note_on_c, 0, 62, 71
1, 148679, Note_on_c, 0, 46, 69
1, 148691, Note_off_c, 0, 48, 60
1, 148714, Note_off_c, 0, 64, 56
1, 148783, Control_c, 0, 64, 21
1, 148802, Control_c, 0, 64, 27
1, 148820, Control_c, 0, 64, 34
1, 148829, Note_off_c, 0, 46, 64
1, 148836, Note_on_c, 0, 45, 68
1, 148840, Control_c, 0, 64, 40
1, 148856, Control_c, 0, 64, 46
1, 148875, Control_c, 0, 64, 52
1, 148893, Control_c, 0, 64, 56
1, 148912, Control_c, 0, 64, 59
1, 148930, Control_c, 0, 64, 60
1, 148948, Control_c, 0, 64, 61
1, 148966, Control_c, 0, 64, 62
1, 148967, Note_on_c, 0, 43, 69
1, 148975, Note_off_c, 0, 45, 58
1, 148983, Control_c, 0, 64, 63
1, 149076, Note_off_c, 0, 62, 55
1, 149095, Control_c, 0, 64, 61
1, 149113, Note_on_c, 0, 42, 65
1, 149113, Control_c, 0, 64, 59
1, 149114, Note_on_c, 0, 57, 78
1, 149117, Note_off_c, 0, 43, 60
1, 149132, Control_c, 0, 64, 53
1, 149153, Control_c, 0, 64, 44
1, 149167, Control_c, 0, 64, 33
1, 149187, Control_c, 0, 64, 25
1, 149205, Control_c, 0, 64, 21
1, 149251, Note_on_c, 0, 43, 68
1, 149271, Note_off_c, 0, 42, 59
1, 149316, Control_c, 0, 64, 28
1, 149335, Control_c, 0, 64, 36
1, 149354, Control_c, 0, 64, 44
1, 149372, Control_c, 0, 64, 51
1, 149391, Control_c, 0, 64, 56
1, 149424, Control_c, 0, 64, 58
1, 149436, Note_on_c, 0, 45, 67
1, 149443, Control_c, 0, 64, 60
1, 149446, Note_off_c, 0, 43, 62
1, 149460, Control_c, 0, 64, 61
1, 149571, Control_c, 0, 64, 60
1, 149607, Control_c, 0, 64, 57
1, 149617, Note_on_c, 0, 43, 68
1, 149625, Note_on_c, 0, 58, 77
1, 149627, Control_c, 0, 64, 53
1, 149635, Note_off_c, 0, 45, 60
1, 149644, Control_c, 0, 64, 46
1, 149662, Control_c, 0, 64, 36
1, 149681, Control_c, 0, 64, 23
1, 149702, Note_off_c, 0, 57, 55
1, 149719, Control_c, 0, 64, 0
1, 149813, Note_on_c, 0, 62, 70
1, 149848, Control_c, 0, 64, 11
1, 149866, Control_c, 0, 64, 25
1, 149884, Control_c, 0, 64, 37
1, 149901, Control_c, 0, 64, 50
1, 149921, Control_c, 0, 64, 59
1, 149939, Control_c, 0, 64, 63
1, 149957, Note_on_c, 0, 64, 71
1, 149958, Control_c, 0, 64, 65
1, 149977, Control_c, 0, 64, 66
1, 149995, Control_c, 0, 64, 67
1, 150047, Note_off_c, 0, 62, 54
1, 150069, Control_c, 0, 64, 66
1, 150077, Note_off_c, 0, 58, 63
1, 150088, Control_c, 0, 64, 63
1, 150091, Note_off_c, 0, 43, 61
1, 150101, Note_on_c, 0, 38, 73
1, 150104, Note_on_c, 0, 59, 82
1, 150104, Control_c, 0, 64, 58
1, 150111, Note_on_c, 0, 65, 72
1, 150122, Note_off_c, 0, 64, 57
1, 150122, Control_c, 0, 64, 51
1, 150141, Control_c, 0, 64, 40
1, 150161, Control_c, 0, 64, 30
1, 150178, Control_c, 0, 64, 23
1, 150199, Control_c, 0, 64, 19
1, 150278, Note_on_c, 0, 64, 71
1, 150289, Control_c, 0, 64, 27
1, 150308, Control_c, 0, 64, 38
1, 150326, Control_c, 0, 64, 50
1, 150342, Note_off_c, 0, 65, 62
1, 150359, Control_c, 0, 64, 59
1, 150377, Control_c, 0, 64, 63
1, 150396, Control_c, 0, 64, 65
1, 150414, Control_c, 0, 64, 68
1, 150434, Control_c, 0, 64, 70
1, 150448, Note_on_c, 0, 62, 81
1, 150453, Control_c, 0, 64, 72
1, 150471, Control_c, 0, 64, 75
1, 150479, Note_off_c, 0, 38, 63
1, 150487, Note_off_c, 0, 59, 62
1, 150489, Control_c, 0, 64, 77
1, 150506, Note_off_c, 0, 64, 61
1, 150564, Note_off_c, 0, 62, 61
1, 150598, Note_on_c, 0, 60, 85
1, 150598, Control_c, 0, 64, 73
1, 150600, Note_on_c, 0, 39, 72
1, 150617, Control_c, 0, 64, 68
1, 150635, Control_c, 0, 64, 61
1, 150655, Control_c, 0, 64, 53
1, 150673, Control_c, 0, 64, 47
1, 150692, Control_c, 0, 64, 42
1, 150710, Control_c, 0, 64, 38
1, 150746, Control_c, 0, 64, 32
1, 150790, Note_on_c, 0, 70, 75
1, 150838, Control_c, 0, 64, 36
1, 150855, Control_c, 0, 64, 43
1, 150875, Control_c, 0, 64, 51
1, 150893, Control_c, 0, 64, 58
1, 150912, Control_c, 0, 64, 63
1, 150931, Control_c, 0, 64, 66
1, 150946, Note_on_c, 0, 69, 78
1, 150949, Control_c, 0, 64, 69
1, 150966, Control_c, 0, 64, 71
1, 150980, Note_off_c, 0, 60, 62
1, 150985, Control_c, 0, 64, 74
1, 150996, Note_off_c, 0, 70, 57
1, 151012, Note_off_c, 0, 39, 63
1, 151022, Control_c, 0, 64, 76
1, 151090, Note_on_c, 0, 61, 81
1, 151098, Note_on_c, 0, 40, 76
1, 151101, Note_on_c, 0, 67, 70
1, 151112, Note_off_c, 0, 69, 58
1, 151113, Control_c, 0, 64, 73
1, 151134, Control_c, 0, 64, 69
1, 151152, Control_c, 0, 64, 64
1, 151171, Control_c, 0, 64, 55
1, 151187, Control_c, 0, 64, 46
1, 151206, Control_c, 0, 64, 38
1, 151225, Control_c, 0, 64, 32
1, 151259, Note_on_c, 0, 69, 73
1, 151339, Note_off_c, 0, 67, 58
1, 151350, Control_c, 0, 64, 39
1, 151369, Control_c, 0, 64, 50
1, 151388, Control_c, 0, 64, 58
1, 151407, Control_c, 0, 64, 64
1, 151424, Control_c, 0, 64, 67
1, 151443, Control_c, 0, 64, 70
1, 151449, Note_on_c, 0, 70, 77
1, 151461, Control_c, 0, 64, 73
1, 151479, Control_c, 0, 64, 75
1, 151508, Note_off_c, 0, 69, 61
1, 151514, Control_c, 0, 64, 78
1, 151524, Note_off_c, 0, 61, 63
1, 151583, Note_off_c, 0, 70, 63
1, 151596, Note_on_c, 0, 41, 74
1, 151601, Note_on_c, 0, 62, 80
1, 151627, Note_off_c, 0, 40, 40
1, 151645, Control_c, 0, 64, 75
1, 151665, Control_c, 0, 64, 73
1, 151682, Control_c, 0, 64, 68
1, 151700, Control_c, 0, 64, 61
1, 151719, Control_c, 0, 64, 53
1, 151738, Control_c, 0, 64, 46
1, 151755, Control_c, 0, 64, 42
1, 151761, Note_on_c, 0, 69, 79
1, 151772, Control_c, 0, 64, 40
1, 151930, Note_on_c, 0, 70, 80
1, 152017, Note_off_c, 0, 69, 52
1, 152098, Note_on_c, 0, 42, 69
1, 152101, Note_on_c, 0, 72, 79
1, 152163, Note_off_c, 0, 70, 62
1, 152180, Note_off_c, 0, 41, 58
1, 152317, Note_on_c, 0, 70, 75
1, 152352, Note_off_c, 0, 72, 66
1, 152467, Note_on_c, 0, 69, 69
1, 152491, Note_off_c, 0, 70, 63
1, 152617, Control_c, 0, 64, 35
1, 152631, Note_on_c, 0, 43, 60
1, 152635, Control_c, 0, 64, 30
1, 152644, Note_on_c, 0, 70, 66
1, 152655, Control_c, 0, 64, 18
1, 152674, Control_c, 0, 64, 0
1, 152689, Note_off_c, 0, 42, 60
1, 152702, Note_off_c, 0, 69, 61
1, 152804, Note_on_c, 0, 45, 67
1, 152824, Note_off_c, 0, 43, 63
1, 152838, Control_c, 0, 64, 15
1, 152856, Control_c, 0, 64, 24
1, 152875, Control_c, 0, 64, 32
1, 152895, Control_c, 0, 64, 38
1, 152911, Control_c, 0, 64, 46
1, 152928, Control_c, 0, 64, 52
1, 152952, Note_on_c, 0, 46, 73
1, 152996, Note_off_c, 0, 45, 59
1, 153096, Control_c, 0, 64, 49
1, 153099, Note_off_c, 0, 70, 60
1, 153105, Note_on_c, 0, 48, 74
1, 153110, Note_on_c, 0, 66, 72
1, 153116, Control_c, 0, 64, 45
1, 153134, Control_c, 0, 64, 39
1, 153155, Note_off_c, 0, 46, 63
1, 153164, Control_c, 0, 64, 31
1, 153184, Control_c, 0, 64, 24
1, 153203, Control_c, 0, 64, 19
1, 153228, Note_off_c, 0, 62, 61
1, 153268, Note_on_c, 0, 46, 78
1, 153296, Control_c, 0, 64, 24
1, 153310, Note_off_c, 0, 48, 62
1, 153313, Control_c, 0, 64, 33
1, 153332, Control_c, 0, 64, 42
1, 153350, Control_c, 0, 64, 48
1, 153369, Control_c, 0, 64, 50
1, 153412, Note_on_c, 0, 45, 74
1, 153438, Note_off_c, 0, 46, 61
1, 153480, Control_c, 0, 64, 47
1, 153498, Control_c, 0, 64, 44
1, 153518, Control_c, 0, 64, 41
1, 153553, Control_c, 0, 64, 36
1, 153575, Note_on_c, 0, 46, 72
1, 153578, Note_on_c, 0, 67, 68
1, 153608, Control_c, 0, 64, 31
1, 153622, Note_off_c, 0, 66, 62
1, 153643, Control_c, 0, 64, 27
1, 153674, Note_off_c, 0, 45, 54
1, 153682, Control_c, 0, 64, 23
1, 153749, Note_on_c, 0, 48, 70
1, 153761, Note_on_c, 0, 69, 76
1, 153807, Note_off_c, 0, 46, 62
1, 153814, Note_off_c, 0, 67, 60
1, 153908, Note_on_c, 0, 50, 77
1, 153917, Note_on_c, 0, 70, 73
1, 153926, Note_off_c, 0, 48, 63
1, 153954, Note_off_c, 0, 69, 61
1, 154048, Note_on_c, 0, 51, 75
1, 154067, Note_on_c, 0, 72, 73
1, 154096, Note_off_c, 0, 70, 62
1, 154106, Note_off_c, 0, 50, 62
1, 154224, Note_on_c, 0, 50, 79
1, 154232, Note_on_c, 0, 70, 77
1, 154272, Note_off_c, 0, 51, 59
1, 154286, Note_off_c, 0, 72, 60
1, 154364, Note_on_c, 0, 48, 74
1, 154369, Note_on_c, 0, 69, 72
1, 154384, Note_off_c, 0, 50, 62
1, 154396, Control_c, 0, 64, 18
1, 154403, Note_off_c, 0, 70, 63
1, 154433, Control_c, 0, 64, 14
1, 154471, Control_c, 0, 64, 0
1, 154507, Note_on_c, 0, 50, 80
1, 154533, Note_on_c, 0, 70, 79
1, 154562, Note_off_c, 0, 69, 62
1, 154596, Note_off_c, 0, 48, 59
1, 154677, Note_on_c, 0, 72, 77
1, 154683, Note_off_c, 0, 70, 63
1, 154782, Control_c, 0, 64, 22
1, 154801, Control_c, 0, 64, 35
1, 154819, Control_c, 0, 64, 47
1, 154833, Note_on_c, 0, 74, 79
1, 154838, Control_c, 0, 64, 55
1, 154875, Note_off_c, 0, 72, 66
1, 154875, Control_c, 0, 64, 57
1, 154985, Note_on_c, 0, 55, 79
1, 154985, Control_c, 0, 64, 54
1, 154998, Note_on_c, 0, 75, 78
1, 155003, Control_c, 0, 64, 52
1, 155045, Note_off_c, 0, 74, 65
1, 155055, Control_c, 0, 64, 48
1, 155093, Control_c, 0, 64, 45
1, 155130, Control_c, 0, 64, 42
1, 155167, Control_c, 0, 64, 38
1, 155171, Note_off_c, 0, 50, 61
1, 155178, Note_on_c, 0, 74, 80
1, 155222, Control_c, 0, 64, 32
1, 155243, Note_off_c, 0, 75, 62
1, 155259, Control_c, 0, 64, 27
1, 155295, Control_c, 0, 64, 22
1, 155332, Control_c, 0, 64, 16
1, 155347, Note_on_c, 0, 73, 73
1, 155369, Control_c, 0, 64, 10
1, 155398, Note_off_c, 0, 74, 62
1, 155406, Control_c, 0, 64, 0
1, 155543, Note_on_c, 0, 74, 74
1, 155599, Note_off_c, 0, 73, 63
1, 155783, Note_on_c, 0, 72, 62
1, 155965, Note_on_c, 0, 70, 63
1, 155973, Note_off_c, 0, 72, 66
1, 156100, Note_off_c, 0, 70, 64
1, 156102, Note_on_c, 0, 54, 51
1, 156122, Note_on_c, 0, 69, 57
1, 156226, Note_off_c, 0, 55, 59
1, 156263, Note_on_c, 0, 70, 57
1, 156272, Note_off_c, 0, 69, 54
1, 156382, Note_off_c, 0, 70, 63
1, 156428, Note_on_c, 0, 72, 56
1, 156575, Note_off_c, 0, 54, 59
1, 156579, Note_off_c, 0, 72, 61
1, 156582, Note_on_c, 0, 70, 52
1, 156592, Note_on_c, 0, 55, 47
1, 156727, Note_off_c, 0, 74, 34
1, 156729, Note_off_c, 0, 70, 63
1, 156751, Note_on_c, 0, 53, 52
1, 156756, Note_off_c, 0, 55, 56
1, 156876, Note_off_c, 0, 53, 58
1, 156911, Note_on_c, 0, 52, 51
1, 157059, Note_on_c, 0, 74, 56
1, 157060, Note_off_c, 0, 52, 59
1, 157069, Note_on_c, 0, 50, 50
1, 157133, Note_off_c, 0, 74, 59
1, 157219, Note_on_c, 0, 52, 53
1, 157231, Note_off_c, 0, 50, 53
1, 157343, Note_off_c, 0, 52, 62
1, 157358, Note_on_c, 0, 53, 50
1, 157478, Note_off_c, 0, 53, 59
1, 157494, Note_on_c, 0, 79, 54
1, 157495, Note_on_c, 0, 67, 46
1, 157512, Note_on_c, 0, 52, 43
1, 157564, Note_off_c, 0, 52, 56
1, 157595, Note_off_c, 0, 67, 61
1, 157650, Note_on_c, 0, 77, 60
1, 157679, Note_off_c, 0, 79, 58
1, 157817, Note_on_c, 0, 76, 58
1, 157838, Note_off_c, 0, 77, 54
1, 157943, Note_off_c, 0, 76, 58
1, 157979, Note_on_c, 0, 55, 46
1, 157985, Note_on_c, 0, 74, 54
1, 157986, Note_on_c, 0, 71, 47
1, 158028, Note_off_c, 0, 55, 63
1, 158089, Note_off_c, 0, 71, 54
1, 158128, Note_on_c, 0, 76, 54
1, 158178, Note_off_c, 0, 74, 57
1, 158261, Note_off_c, 0, 76, 63
1, 158279, Note_on_c, 0, 77, 53
1, 158427, Note_off_c, 0, 77, 58
1, 158440, Note_on_c, 0, 76, 55
1, 158443, Note_on_c, 0, 60, 39
1, 158458, Note_on_c, 0, 72, 46
1, 158505, Note_off_c, 0, 72, 59
1, 158526, Note_off_c, 0, 76, 61
1, 158598, Note_off_c, 0, 60, 49
1, 158600, Note_on_c, 0, 58, 47
1, 158727, Note_off_c, 0, 58, 57
1, 158756, Note_on_c, 0, 57, 46
1, 158898, Note_off_c, 0, 57, 58
1, 158927, Note_on_c, 0, 79, 58
1, 158936, Note_on_c, 0, 55, 43
1, 158979, Note_off_c, 0, 79, 60
1, 159079, Note_off_c, 0, 55, 54
1, 159082, Note_on_c, 0, 57, 48
1, 159198, Note_off_c, 0, 57, 57
1, 159228, Note_on_c, 0, 58, 45
1, 159358, Note_off_c, 0, 58, 55
1, 159385, Note_on_c, 0, 57, 36
1, 159400, Note_on_c, 0, 72, 54
1, 159495, Note_off_c, 0, 57, 55
1, 159527, Note_off_c, 0, 72, 67
1, 159541, Note_on_c, 0, 70, 57
1, 159685, Note_off_c, 0, 70, 55
1, 159688, Note_on_c, 0, 69, 51
1, 159822, Note_off_c, 0, 69, 58
1, 159850, Note_on_c, 0, 67, 53
1, 159855, Note_on_c, 0, 60, 53
1, 159898, Note_off_c, 0, 60, 65
1, 159999, Note_off_c, 0, 67, 58
1, 160007, Note_on_c, 0, 69, 56
1, 160153, Note_off_c, 0, 69, 57
1, 160155, Note_on_c, 0, 70, 52
1, 160303, Note_on_c, 0, 69, 58
1, 160305, Note_on_c, 0, 53, 39
1, 160312, Note_off_c, 0, 70, 63
1, 160361, Note_off_c, 0, 69, 63
1, 160459, Note_on_c, 0, 51, 53
1, 160480, Note_off_c, 0, 53, 44
1, 160591, Note_off_c, 0, 51, 58
1, 160614, Note_on_c, 0, 50, 50
1, 160748, Note_off_c, 0, 50, 62
1, 160751, Note_on_c, 0, 72, 68
1, 160769, Note_on_c, 0, 48, 52
1, 160842, Note_off_c, 0, 72, 63
1, 160915, Note_on_c, 0, 50, 55
1, 160918, Note_off_c, 0, 48, 55
1, 161039, Note_off_c, 0, 50, 62
1, 161056, Note_on_c, 0, 51, 52
1, 161195, Note_off_c, 0, 51, 57
1, 161204, Note_on_c, 0, 50, 49
1, 161212, Note_on_c, 0, 77, 58
1, 161219, Note_on_c, 0, 65, 50
1, 161280, Note_off_c, 0, 50, 60
1, 161330, Note_off_c, 0, 65, 63
1, 161372, Note_on_c, 0, 75, 65
1, 161390, Note_off_c, 0, 77, 58
1, 161531, Note_on_c, 0, 74, 57
1, 161557, Note_off_c, 0, 75, 45
1, 161660, Note_off_c, 0, 74, 58
1, 161686, Note_on_c, 0, 53, 53
1, 161706, Note_on_c, 0, 72, 51
1, 161707, Note_on_c, 0, 69, 47
1, 161730, Note_off_c, 0, 53, 60
1, 161846, Note_on_c, 0, 74, 59
1, 161855, Note_off_c, 0, 69, 56
1, 161878, Note_off_c, 0, 72, 66
1, 161984, Note_off_c, 0, 74, 63
1, 162005, Note_on_c, 0, 75, 59
1, 162150, Note_on_c, 0, 58, 50
1, 162152, Note_on_c, 0, 74, 63
1, 162169, Note_on_c, 0, 70, 54
1, 162253, Note_off_c, 0, 75, 40
1, 162308, Note_off_c, 0, 58, 62
1, 162318, Note_on_c, 0, 57, 57
1, 162479, Note_on_c, 0, 55, 59
1, 162520, Note_off_c, 0, 57, 51
1, 162643, Note_off_c, 0, 55, 61
1, 162644, Note_on_c, 0, 54, 56
1, 162648, Note_on_c, 0, 69, 74
1, 162713, Note_off_c, 0, 70, 57
1, 162819, Note_on_c, 0, 55, 60
1, 162827, Note_off_c, 0, 54, 60
1, 162971, Note_off_c, 0, 55, 63
1, 162974, Note_on_c, 0, 57, 67
1, 163041, Note_off_c, 0, 74, 61
1, 163135, Note_on_c, 0, 55, 64
1, 163140, Note_on_c, 0, 73, 72
1, 163177, Note_off_c, 0, 57, 56
1, 163297, Note_on_c, 0, 53, 65
1, 163318, Note_on_c, 0, 74, 79
1, 163327, Note_off_c, 0, 55, 59
1, 163394, Note_off_c, 0, 73, 56
1, 163463, Note_on_c, 0, 52, 67
1, 163475, Note_on_c, 0, 76, 80
1, 163479, Note_off_c, 0, 53, 60
1, 163518, Note_off_c, 0, 74, 63
1, 163611, Note_on_c, 0, 50, 70
1, 163618, Note_on_c, 0, 77, 79
1, 163633, Note_off_c, 0, 52, 60
1, 163672, Note_off_c, 0, 76, 62
1, 163765, Note_on_c, 0, 52, 70
1, 163776, Note_on_c, 0, 76, 80
1, 163816, Note_off_c, 0, 50, 61
1, 163852, Note_off_c, 0, 77, 57
1, 163913, Note_on_c, 0, 74, 78
1, 163913, Note_on_c, 0, 53, 65
1, 163930, Note_off_c, 0, 52, 62
1, 163950, Note_off_c, 0, 76, 63
1, 164036, Note_off_c, 0, 53, 61
1, 164048, Note_on_c, 0, 52, 70
1, 164053, Note_on_c, 0, 76, 82
1, 164110, Note_off_c, 0, 74, 60
1, 164200, Note_on_c, 0, 50, 65
1, 164201, Note_on_c, 0, 77, 82
1, 164218, Control_c, 0, 64, 12
1, 164227, Note_off_c, 0, 52, 62
1, 164237, Control_c, 0, 64, 21
1, 164241, Note_off_c, 0, 76, 59
1, 164256, Control_c, 0, 64, 29
1, 164276, Control_c, 0, 64, 36
1, 164293, Control_c, 0, 64, 44
1, 164309, Control_c, 0, 64, 50
1, 164328, Control_c, 0, 64, 53
1, 164332, Note_on_c, 0, 79, 76
1, 164346, Control_c, 0, 64, 55
1, 164347, Note_on_c, 0, 49, 73
1, 164348, Note_off_c, 0, 77, 64
1, 164388, Note_off_c, 0, 50, 62
1, 164398, Control_c, 0, 64, 57
1, 164433, Note_off_c, 0, 79, 66
1, 164497, Note_on_c, 0, 81, 80
1, 164500, Note_on_c, 0, 47, 69
1, 164507, Note_off_c, 0, 49, 62
1, 164652, Note_on_c, 0, 49, 70
1, 164656, Note_on_c, 0, 79, 80
1, 164694, Control_c, 0, 64, 54
1, 164700, Note_off_c, 0, 47, 62
1, 164731, Control_c, 0, 64, 52
1, 164735, Note_off_c, 0, 81, 56
1, 164769, Control_c, 0, 64, 50
1, 164803, Control_c, 0, 64, 47
1, 164806, Note_on_c, 0, 50, 73
1, 164806, Note_on_c, 0, 77, 82
1, 164823, Control_c, 0, 64, 45
1, 164842, Note_off_c, 0, 49, 62
1, 164842, Control_c, 0, 64, 43
1, 164853, Note_off_c, 0, 79, 63
1, 164857, Control_c, 0, 64, 41
1, 164914, Control_c, 0, 64, 37
1, 164966, Note_on_c, 0, 49, 80
1, 164970, Control_c, 0, 64, 32
1, 164975, Note_on_c, 0, 79, 86
1, 165006, Control_c, 0, 64, 26
1, 165022, Note_off_c, 0, 77, 62
1, 165030, Note_off_c, 0, 50, 63
1, 165045, Control_c, 0, 64, 22
1, 165090, Note_off_c, 0, 69, 60
1, 165097, Control_c, 0, 64, 18
1, 165154, Control_c, 0, 64, 11
1, 165172, Control_c, 0, 64, 0
1, 165250, Note_on_c, 0, 69, 83
1, 165268, Note_on_c, 0, 45, 68
1, 165303, Note_off_c, 0, 49, 60
1, 165352, Control_c, 0, 64, 26
1, 165363, Note_off_c, 0, 79, 57
1, 165369, Control_c, 0, 64, 39
1, 165389, Control_c, 0, 64, 50
1, 165409, Control_c, 0, 64, 54
1, 165481, Control_c, 0, 64, 49
1, 165500, Control_c, 0, 64, 45
1, 165518, Control_c, 0, 64, 41
1, 165523, Note_on_c, 0, 70, 81
1, 165530, Note_on_c, 0, 77, 72
1, 165533, Note_on_c, 0, 50, 71
1, 165538, Control_c, 0, 64, 37
1, 165591, Control_c, 0, 64, 32
1, 165602, Note_off_c, 0, 69, 56
1, 165620, Note_off_c, 0, 45, 61
1, 165629, Control_c, 0, 64, 27
1, 165665, Control_c, 0, 64, 22
1, 165777, Control_c, 0, 64, 33
1, 165786, Note_on_c, 0, 69, 79
1, 165795, Control_c, 0, 64, 41
1, 165814, Control_c, 0, 64, 50
1, 165834, Control_c, 0, 64, 55
1, 165850, Note_off_c, 0, 70, 63
1, 165850, Control_c, 0, 64, 59
1, 165867, Control_c, 0, 64, 61
1, 165882, Note_off_c, 0, 77, 61
1, 165886, Control_c, 0, 64, 63
1, 165905, Control_c, 0, 64, 64
1, 165978, Control_c, 0, 64, 63
1, 165985, Note_off_c, 0, 69, 64
1, 165996, Control_c, 0, 64, 62
1, 166015, Control_c, 0, 64, 60
1, 166016, Note_on_c, 0, 67, 75
1, 166018, Note_on_c, 0, 76, 73
1, 166053, Control_c, 0, 64, 57
1, 166071, Control_c, 0, 64, 55
1, 166091, Control_c, 0, 64, 52
1, 166109, Control_c, 0, 64, 49
1, 166127, Control_c, 0, 64, 46
1, 166165, Control_c, 0, 64, 44
1, 166284, Note_on_c, 0, 70, 72
1, 166342, Note_off_c, 0, 67, 63
1, 166344, Control_c, 0, 64, 42
1, 166436, Control_c, 0, 64, 37
1, 166509, Control_c, 0, 64, 33
1, 166525, Note_on_c, 0, 49, 50
1, 166528, Note_on_c, 0, 69, 71
1, 166570, Note_off_c, 0, 70, 62
1, 166582, Control_c, 0, 64, 28
1, 166597, Note_off_c, 0, 50, 60
1, 166755, Note_on_c, 0, 67, 62
1, 166768, Control_c, 0, 64, 33
1, 166787, Control_c, 0, 64, 41
1, 166793, Note_off_c, 0, 69, 62
1, 166804, Control_c, 0, 64, 50
1, 166824, Control_c, 0, 64, 56
1, 166842, Control_c, 0, 64, 60
1, 166861, Control_c, 0, 64, 62
1, 166878, Control_c, 0, 64, 63
1, 166897, Control_c, 0, 64, 64
1, 166970, Control_c, 0, 64, 62
1, 166983, Note_off_c, 0, 67, 64
1, 166986, Control_c, 0, 64, 58
1, 166990, Note_off_c, 0, 49, 61
1, 167005, Control_c, 0, 64, 53
1, 167008, Note_on_c, 0, 65, 56
1, 167012, Note_on_c, 0, 50, 45
1, 167026, Control_c, 0, 64, 46
1, 167045, Control_c, 0, 64, 42
1, 167101, Control_c, 0, 64, 47
1, 167117, Control_c, 0, 64, 52
1, 167136, Control_c, 0, 64, 55
1, 167154, Control_c, 0, 64, 58
1, 167174, Control_c, 0, 64, 60
1, 167206, Control_c, 0, 64, 61
1, 167259, Note_off_c, 0, 76, 55
1, 167263, Note_on_c, 0, 74, 68
1, 167334, Control_c, 0, 64, 59
1, 167354, Control_c, 0, 64, 57
1, 167391, Control_c, 0, 64, 54
1, 167427, Control_c, 0, 64, 52
1, 167451, Note_off_c, 0, 65, 56
1, 167464, Control_c, 0, 64, 48
1, 167482, Control_c, 0, 64, 46
1, 167500, Control_c, 0, 64, 44
1, 167508, Note_on_c, 0, 55, 48
1, 167509, Note_on_c, 0, 58, 51
1, 167511, Note_on_c, 0, 75, 69
1, 167537, Control_c, 0, 64, 42
1, 167555, Control_c, 0, 64, 40
1, 167577, Note_off_c, 0, 74, 61
1, 167590, Note_off_c, 0, 50, 40
1, 167612, Control_c, 0, 64, 35
1, 167666, Control_c, 0, 64, 31
1, 167747, Note_on_c, 0, 74, 63
1, 167798, Note_off_c, 0, 75, 59
1, 167852, Control_c, 0, 64, 27
1, 167985, Note_on_c, 0, 57, 48
1, 167986, Note_on_c, 0, 73, 59
1, 168016, Note_off_c, 0, 74, 61
1, 168107, Note_off_c, 0, 58, 49
1, 168159, Control_c, 0, 64, 23
1, 168254, Note_on_c, 0, 76, 59
1, 168322, Note_off_c, 0, 73, 60
1, 168478, Note_on_c, 0, 74, 61
1, 168489, Note_off_c, 0, 55, 58
1, 168497, Note_on_c, 0, 54, 44
1, 168537, Note_off_c, 0, 76, 55
1, 168711, Control_c, 0, 64, 29
1, 168723, Note_on_c, 0, 72, 67
1, 168729, Control_c, 0, 64, 36
1, 168749, Control_c, 0, 64, 45
1, 168768, Control_c, 0, 64, 54
1, 168787, Control_c, 0, 64, 59
1, 168798, Note_off_c, 0, 74, 60
1, 168804, Control_c, 0, 64, 61
1, 168824, Control_c, 0, 64, 64
1, 168841, Control_c, 0, 64, 65
1, 168861, Control_c, 0, 64, 67
1, 168897, Control_c, 0, 64, 70
1, 168953, Control_c, 0, 64, 68
1, 168968, Note_off_c, 0, 57, 58
1, 168971, Note_on_c, 0, 55, 60
1, 168973, Control_c, 0, 64, 63
1, 168974, Note_on_c, 0, 71, 69
1, 168989, Control_c, 0, 64, 57
1, 168991, Note_off_c, 0, 72, 66
1, 169007, Control_c, 0, 64, 49
1, 169018, Note_off_c, 0, 54, 61
1, 169025, Control_c, 0, 64, 44
1, 169045, Control_c, 0, 64, 42
1, 169114, Control_c, 0, 64, 45
1, 169132, Control_c, 0, 64, 50
1, 169152, Control_c, 0, 64, 55
1, 169169, Control_c, 0, 64, 59
1, 169189, Control_c, 0, 64, 63
1, 169207, Control_c, 0, 64, 66
1, 169222, Note_on_c, 0, 53, 68
1, 169225, Control_c, 0, 64, 68
1, 169241, Note_off_c, 0, 55, 61
1, 169242, Control_c, 0, 64, 70
1, 169261, Control_c, 0, 64, 72
1, 169282, Control_c, 0, 64, 74
1, 169391, Note_off_c, 0, 71, 64
1, 169450, Note_on_c, 0, 70, 76
1, 169458, Note_on_c, 0, 52, 66
1, 169462, Control_c, 0, 64, 71
1, 169471, Note_on_c, 0, 67, 60
1, 169483, Control_c, 0, 64, 68
1, 169502, Note_off_c, 0, 53, 55
1, 169502, Control_c, 0, 64, 62
1, 169519, Control_c, 0, 64, 55
1, 169537, Control_c, 0, 64, 48
1, 169555, Control_c, 0, 64, 44
1, 169575, Control_c, 0, 64, 41
1, 169666, Control_c, 0, 64, 46
1, 169685, Control_c, 0, 64, 53
1, 169690, Note_on_c, 0, 50, 72
1, 169690, Control_c, 0, 64, 59
1, 169709, Control_c, 0, 64, 64
1, 169729, Control_c, 0, 64, 67
1, 169731, Note_off_c, 0, 52, 61
1, 169747, Control_c, 0, 64, 69
1, 169783, Control_c, 0, 64, 72
1, 169819, Control_c, 0, 64, 74
1, 169857, Note_off_c, 0, 70, 63
1, 169894, Control_c, 0, 64, 69
1, 169912, Control_c, 0, 64, 63
1, 169923, Note_on_c, 0, 69, 79
1, 169927, Note_on_c, 0, 49, 63
1, 169930, Control_c, 0, 64, 55
1, 169948, Control_c, 0, 64, 46
1, 169968, Control_c, 0, 64, 39
1, 169991, Note_off_c, 0, 50, 60
1, 169999, Control_c, 0, 64, 34
1, 170109, Control_c, 0, 64, 42
1, 170128, Control_c, 0, 64, 50
1, 170148, Control_c, 0, 64, 57
1, 170166, Control_c, 0, 64, 62
1, 170184, Control_c, 0, 64, 65
1, 170191, Note_on_c, 0, 52, 64
1, 170203, Control_c, 0, 64, 67
1, 170222, Control_c, 0, 64, 70
1, 170238, Control_c, 0, 64, 73
1, 170257, Control_c, 0, 64, 75
1, 170266, Note_off_c, 0, 67, 65
1, 170295, Control_c, 0, 64, 78
1, 170315, Note_off_c, 0, 49, 55
1, 170369, Control_c, 0, 64, 73
1, 170386, Control_c, 0, 64, 67
1, 170406, Control_c, 0, 64, 59
1, 170423, Control_c, 0, 64, 52
1, 170425, Note_on_c, 0, 65, 76
1, 170426, Note_on_c, 0, 50, 62
1, 170442, Control_c, 0, 64, 50
1, 170471, Note_off_c, 0, 52, 63
1, 170496, Control_c, 0, 64, 54
1, 170515, Control_c, 0, 64, 57
1, 170533, Control_c, 0, 64, 61
1, 170551, Control_c, 0, 64, 64
1, 170570, Control_c, 0, 64, 67
1, 170608, Control_c, 0, 64, 69
1, 170668, Note_on_c, 0, 48, 68
1, 170671, Note_on_c, 0, 64, 76
1, 170684, Note_off_c, 0, 50, 63
1, 170732, Note_off_c, 0, 65, 66
1, 170811, Control_c, 0, 64, 67
1, 170830, Control_c, 0, 64, 66
1, 170847, Control_c, 0, 64, 63
1, 170866, Control_c, 0, 64, 57
1, 170884, Control_c, 0, 64, 49
1, 170901, Control_c, 0, 64, 40
1, 170901, Note_on_c, 0, 47, 66
1, 170908, Note_on_c, 0, 62, 79
1, 170935, Control_c, 0, 64, 31
1, 170948, Note_off_c, 0, 64, 59
1, 170952, Note_off_c, 0, 48, 63
1, 170954, Control_c, 0, 64, 27
1, 171066, Control_c, 0, 64, 32
1, 171083, Control_c, 0, 64, 38
1, 171101, Control_c, 0, 64, 46
1, 171119, Control_c, 0, 64, 55
1, 171139, Control_c, 0, 64, 60
1, 171157, Control_c, 0, 64, 63
1, 171172, Note_on_c, 0, 65, 77
1, 171173, Control_c, 0, 64, 65
1, 171193, Control_c, 0, 64, 67
1, 171230, Control_c, 0, 64, 70
1, 171265, Control_c, 0, 64, 74
1, 171289, Note_off_c, 0, 62, 60
1, 171303, Control_c, 0, 64, 76
1, 171364, Note_off_c, 0, 47, 38
1, 171379, Control_c, 0, 64, 73
1, 171392, Note_on_c, 0, 46, 63
1, 171393, Control_c, 0, 64, 66
1, 171399, Note_on_c, 0, 64, 75
1, 171412, Control_c, 0, 64, 56
1, 171413, Note_on_c, 0, 67, 72
1, 171432, Control_c, 0, 64, 46
1, 171443, Note_off_c, 0, 65, 61
1, 171451, Control_c, 0, 64, 40
1, 171476, Note_off_c, 0, 69, 54
1, 171505, Control_c, 0, 64, 45
1, 171525, Control_c, 0, 64, 53
1, 171542, Control_c, 0, 64, 59
1, 171562, Control_c, 0, 64, 64
1, 171580, Control_c, 0, 64, 67
1, 171617, Control_c, 0, 64, 65
1, 171635, Control_c, 0, 64, 62
1, 171651, Note_on_c, 0, 62, 81
1, 171654, Control_c, 0, 64, 61
1, 171688, Note_off_c, 0, 64, 62
1, 171689, Control_c, 0, 64, 62
1, 171708, Control_c, 0, 64, 64
1, 171727, Control_c, 0, 64, 65
1, 171744, Control_c, 0, 64, 67
1, 171764, Control_c, 0, 64, 68
1, 171835, Note_off_c, 0, 46, 50
1, 171889, Control_c, 0, 64, 66
1, 171907, Control_c, 0, 64, 63
1, 171909, Note_on_c, 0, 45, 63
1, 171926, Control_c, 0, 64, 58
1, 171938, Note_on_c, 0, 61, 74
1, 171943, Control_c, 0, 64, 51
1, 171963, Control_c, 0, 64, 44
1, 171980, Control_c, 0, 64, 40
1, 172005, Note_off_c, 0, 62, 57
1, 172020, Control_c, 0, 64, 35
1, 172128, Control_c, 0, 64, 31
1, 172238, Control_c, 0, 64, 38
1, 172242, Note_on_c, 0, 57, 71
1, 172243, Note_off_c, 0, 45, 52
1, 172257, Control_c, 0, 64, 48
1, 172278, Control_c, 0, 64, 58
1, 172295, Control_c, 0, 64, 62
1, 172314, Control_c, 0, 64, 65
1, 172331, Control_c, 0, 64, 67
1, 172349, Control_c, 0, 64, 70
1, 172368, Control_c, 0, 64, 72
1, 172387, Control_c, 0, 64, 74
1, 172478, Control_c, 0, 64, 71
1, 172486, Note_off_c, 0, 57, 59
1, 172488, Note_on_c, 0, 62, 76
1, 172489, Note_on_c, 0, 58, 61
1, 172496, Control_c, 0, 64, 67
1, 172516, Control_c, 0, 64, 64
1, 172516, Note_on_c, 0, 65, 62
1, 172532, Note_off_c, 0, 67, 60
1, 172534, Control_c, 0, 64, 60
1, 172553, Control_c, 0, 64, 56
1, 172570, Control_c, 0, 64, 54
1, 172589, Control_c, 0, 64, 52
1, 172607, Control_c, 0, 64, 50
1, 172626, Control_c, 0, 64, 47
1, 172645, Control_c, 0, 64, 45
1, 172664, Control_c, 0, 64, 42
1, 172701, Control_c, 0, 64, 37
1, 172730, Note_on_c, 0, 57, 63
1, 172736, Note_off_c, 0, 61, 63
1, 172738, Note_off_c, 0, 58, 61
1, 172755, Control_c, 0, 64, 31
1, 172807, Control_c, 0, 64, 27
1, 172842, Control_c, 0, 64, 22
1, 172881, Control_c, 0, 64, 17
1, 172918, Control_c, 0, 64, 11
1, 172972, Control_c, 0, 64, 0
1, 172975, Note_on_c, 0, 55, 49
1, 172990, Note_on_c, 0, 64, 60
1, 173026, Note_off_c, 0, 57, 47
1, 173123, Note_off_c, 0, 65, 55
1, 173235, Note_on_c, 0, 58, 52
1, 173253, Note_off_c, 0, 55, 55
1, 173492, Note_on_c, 0, 61, 62
1, 173512, Note_off_c, 0, 58, 62
1, 173518, Note_on_c, 0, 57, 38
1, 173598, Control_c, 0, 64, 9
1, 173615, Control_c, 0, 64, 16
1, 173630, Note_off_c, 0, 62, 56
1, 173634, Control_c, 0, 64, 23
1, 173653, Control_c, 0, 64, 30
1, 173673, Control_c, 0, 64, 39
1, 173691, Control_c, 0, 64, 50
1, 173710, Control_c, 0, 64, 57
1, 173742, Control_c, 0, 64, 61
1, 173760, Control_c, 0, 64, 62
1, 173779, Control_c, 0, 64, 63
1, 173794, Note_on_c, 0, 55, 47
1, 173816, Control_c, 0, 64, 64
1, 173825, Note_off_c, 0, 57, 41
1, 173854, Note_off_c, 0, 64, 60
1, 174000, Control_c, 0, 64, 63
1, 174018, Control_c, 0, 64, 62
1, 174038, Control_c, 0, 64, 60
1, 174073, Control_c, 0, 64, 58
1, 174106, Note_on_c, 0, 62, 54
1, 174107, Note_on_c, 0, 53, 36
1, 174111, Control_c, 0, 64, 55
1, 174122, Note_off_c, 0, 55, 55
1, 174147, Control_c, 0, 64, 52
1, 174185, Note_off_c, 0, 61, 63
1, 174185, Control_c, 0, 64, 48
1, 174222, Control_c, 0, 64, 45
1, 174259, Control_c, 0, 64, 43
1, 174313, Control_c, 0, 64, 40
1, 174396, Note_on_c, 0, 60, 59
1, 174405, Control_c, 0, 64, 36
1, 174420, Note_on_c, 0, 57, 48
1, 174549, Note_off_c, 0, 53, 39
1, 174614, Note_off_c, 0, 57, 61
1, 174619, Note_on_c, 0, 58, 60
1, 174635, Note_on_c, 0, 55, 53
1, 174676, Note_off_c, 0, 60, 59
1, 174852, Note_off_c, 0, 55, 62
1, 174862, Note_on_c, 0, 57, 63
1, 174871, Note_on_c, 0, 53, 52
1, 174907, Note_off_c, 0, 58, 56
1, 174954, Control_c, 0, 64, 32
1, 175086, Note_on_c, 0, 55, 63
1, 175089, Note_off_c, 0, 53, 55
1, 175092, Note_on_c, 0, 52, 57
1, 175094, Note_off_c, 0, 57, 61
1, 175157, Control_c, 0, 64, 28
1, 175317, Note_on_c, 0, 58, 62
1, 175324, Note_on_c, 0, 50, 59
1, 175327, Note_off_c, 0, 52, 59
1, 175342, Control_c, 0, 64, 24
1, 175343, Note_off_c, 0, 55, 59
1, 175559, Note_on_c, 0, 49, 54
1, 175560, Note_off_c, 0, 50, 58
1, 175561, Note_on_c, 0, 57, 62
1, 175687, Note_off_c, 0, 58, 51
1, 175696, Note_off_c, 0, 62, 33
1, 175805, Note_on_c, 0, 52, 52
1, 175817, Note_off_c, 0, 49, 57
1, 175817, Note_on_c, 0, 55, 55
1, 175829, Note_off_c, 0, 57, 62
1, 176034, Note_off_c, 0, 52, 60
1, 176044, Note_on_c, 0, 53, 58
1, 176064, Note_on_c, 0, 50, 49
1, 176105, Note_off_c, 0, 55, 33
1, 176277, Note_off_c, 0, 50, 59
1, 176280, Note_on_c, 0, 48, 57
1, 176283, Note_on_c, 0, 57, 61
1, 176322, Note_off_c, 0, 53, 54
1, 176501, Note_off_c, 0, 48, 60
1, 176515, Note_on_c, 0, 55, 58
1, 176516, Note_on_c, 0, 46, 48
1, 176594, Note_off_c, 0, 57, 50
1, 176621, Control_c, 0, 64, 20
1, 176658, Control_c, 0, 64, 12
1, 176677, Control_c, 0, 64, 0
1, 176758, Note_off_c, 0, 46, 57
1, 176766, Note_on_c, 0, 45, 52
1, 176768, Note_on_c, 0, 53, 57
1, 176867, Note_off_c, 0, 55, 37
1, 177005, Note_off_c, 0, 45, 51
1, 177005, Note_on_c, 0, 52, 52
1, 177016, Note_on_c, 0, 43, 44
1, 177046, Note_off_c, 0, 53, 57
1, 177249, Note_on_c, 0, 46, 47
1, 177251, Note_off_c, 0, 52, 63
1, 177256, Note_on_c, 0, 50, 54
1, 177316, Note_off_c, 0, 43, 43
1, 177505, Note_off_c, 0, 50, 52
1, 177511, Note_on_c, 0, 49, 53
1, 177520, Note_on_c, 0, 45, 50
1, 177523, Note_off_c, 0, 46, 55
1, 177774, Note_on_c, 0, 43, 49
1, 177783, Note_on_c, 0, 52, 52
1, 177811, Note_off_c, 0, 49, 57
1, 177841, Note_off_c, 0, 45, 54
1, 178018, Note_off_c, 0, 52, 60
1, 178022, Note_off_c, 0, 43, 56
1, 178039, Note_on_c, 0, 41, 47
1, 178039, Note_on_c, 0, 50, 51
1, 178225, Note_on_c, 0, 52, 53
1, 178232, Note_off_c, 0, 50, 57
1, 178297, Control_c, 0, 64, 11
1, 178305, Note_off_c, 0, 41, 61
1, 178374, Note_off_c, 0, 52, 61
1, 178376, Note_on_c, 0, 53, 57
1, 178515, Note_off_c, 0, 53, 58
1, 178515, Control_c, 0, 64, 0
1, 178529, Note_on_c, 0, 55, 58
1, 178550, Note_on_c, 0, 46, 65
1, 178673, Note_off_c, 0, 46, 65
1, 178685, Note_on_c, 0, 53, 60
1, 178719, Note_off_c, 0, 55, 53
1, 178847, Note_on_c, 0, 52, 59
1, 178854, Note_off_c, 0, 53, 58
1, 178983, Note_on_c, 0, 45, 60
1, 178992, Note_off_c, 0, 52, 61
1, 179005, Note_on_c, 0, 53, 63
1, 179162, Note_on_c, 0, 43, 64
1, 179178, Note_on_c, 0, 55, 63
1, 179183, Note_off_c, 0, 45, 57
1, 179190, Note_off_c, 0, 53, 55
1, 179313, Note_off_c, 0, 43, 61
1, 179316, Note_on_c, 0, 41, 68
1, 179325, Note_on_c, 0, 57, 71
1, 179363, Note_off_c, 0, 55, 62
1, 179471, Note_on_c, 0, 58, 70
1, 179480, Note_on_c, 0, 40, 64
1, 179482, Note_off_c, 0, 41, 60
1, 179505, Note_off_c, 0, 57, 61
1, 179581, Control_c, 0, 64, 14
1, 179597, Control_c, 0, 64, 21
1, 179614, Control_c, 0, 64, 29
1, 179620, Note_on_c, 0, 41, 65
1, 179629, Note_on_c, 0, 57, 75
1, 179632, Control_c, 0, 64, 37
1, 179653, Control_c, 0, 64, 47
1, 179656, Note_off_c, 0, 40, 58
1, 179670, Control_c, 0, 64, 55
1, 179688, Control_c, 0, 64, 59
1, 179707, Control_c, 0, 64, 61
1, 179715, Note_off_c, 0, 58, 57
1, 179727, Control_c, 0, 64, 62
1, 179745, Control_c, 0, 64, 63
1, 179762, Control_c, 0, 64, 66
1, 179768, Note_on_c, 0, 55, 72
1, 179782, Control_c, 0, 64, 67
1, 179792, Note_on_c, 0, 43, 64
1, 179802, Note_off_c, 0, 41, 59
1, 179806, Note_off_c, 0, 57, 64
1, 179828, Note_off_c, 0, 55, 61
1, 179909, Control_c, 0, 64, 65
1, 179925, Note_on_c, 0, 62, 81
1, 179927, Control_c, 0, 64, 64
1, 179928, Note_off_c, 0, 43, 62
1, 179938, Note_on_c, 0, 41, 69
1, 179946, Control_c, 0, 64, 62
1, 179950, Note_on_c, 0, 57, 63
1, 179965, Control_c, 0, 64, 61
1, 180003, Control_c, 0, 64, 60
1, 180057, Control_c, 0, 64, 58
1, 180103, Note_on_c, 0, 64, 78
1, 180113, Control_c, 0, 64, 55
1, 180118, Note_on_c, 0, 40, 69
1, 180143, Note_off_c, 0, 41, 56
1, 180147, Control_c, 0, 64, 51
1, 180168, Control_c, 0, 64, 47
1, 180171, Note_off_c, 0, 62, 59
1, 180187, Control_c, 0, 64, 43
1, 180224, Control_c, 0, 64, 37
1, 180253, Note_on_c, 0, 65, 81
1, 180254, Note_on_c, 0, 38, 74
1, 180262, Note_off_c, 0, 40, 61
1, 180308, Note_off_c, 0, 64, 60
1, 180399, Note_on_c, 0, 37, 73
1, 180415, Note_off_c, 0, 38, 63
1, 180415, Note_on_c, 0, 67, 82
1, 180463, Note_off_c, 0, 65, 64
1, 180541, Note_off_c, 0, 57, 60
1, 180558, Note_on_c, 0, 65, 81
1, 180559, Note_on_c, 0, 38, 77
1, 180598, Note_off_c, 0, 37, 61
1, 180640, Note_off_c, 0, 67, 58
1, 180697, Note_on_c, 0, 64, 78
1, 180699, Note_on_c, 0, 40, 73
1, 180710, Note_off_c, 0, 38, 62
1, 180750, Note_off_c, 0, 65, 65
1, 180790, Control_c, 0, 64, 31
1, 180810, Control_c, 0, 64, 18
1, 180827, Control_c, 0, 64, 0
1, 180849, Note_on_c, 0, 65, 83
1, 180855, Note_on_c, 0, 38, 74
1, 180867, Note_off_c, 0, 64, 61
1, 180869, Note_off_c, 0, 40, 60
1, 180957, Control_c, 0, 64, 11
1, 180975, Control_c, 0, 64, 36
1, 180981, Note_off_c, 0, 38, 64
1, 180993, Control_c, 0, 64, 54
1, 181011, Control_c, 0, 64, 64
1, 181030, Control_c, 0, 64, 68
1, 181042, Note_on_c, 0, 67, 80
1, 181048, Control_c, 0, 64, 70
1, 181064, Note_on_c, 0, 55, 76
1, 181178, Control_c, 0, 64, 68
1, 181187, Note_on_c, 0, 69, 80
1, 181197, Control_c, 0, 64, 66
1, 181198, Note_off_c, 0, 55, 64
1, 181199, Note_on_c, 0, 53, 71
1, 181228, Control_c, 0, 64, 64
1, 181236, Note_off_c, 0, 67, 63
1, 181247, Control_c, 0, 64, 62
1, 181265, Control_c, 0, 64, 60
1, 181303, Control_c, 0, 64, 56
1, 181320, Control_c, 0, 64, 52
1, 181338, Control_c, 0, 64, 48
1, 181341, Note_on_c, 0, 70, 79
1, 181343, Note_on_c, 0, 52, 71
1, 181351, Note_off_c, 0, 53, 60
1, 181357, Control_c, 0, 64, 45
1, 181375, Note_off_c, 0, 69, 62
1, 181376, Control_c, 0, 64, 43
1, 181484, Note_on_c, 0, 69, 83
1, 181486, Note_on_c, 0, 53, 76
1, 181494, Note_off_c, 0, 52, 63
1, 181558, Control_c, 0, 64, 41
1, 181596, Note_off_c, 0, 70, 53
1, 181597, Control_c, 0, 64, 36
1, 181603, Note_on_c, 0, 55, 72
1, 181615, Control_c, 0, 64, 26
1, 181623, Note_off_c, 0, 53, 60
1, 181623, Note_on_c, 0, 67, 81
1, 181634, Control_c, 0, 64, 0
1, 181656, Note_off_c, 0, 69, 61
1, 181754, Note_on_c, 0, 69, 84
1, 181761, Note_on_c, 0, 53, 76
1, 181799, Control_c, 0, 64, 26
1, 181811, Note_off_c, 0, 55, 59
1, 181817, Control_c, 0, 64, 44
1, 181836, Control_c, 0, 64, 61
1, 181849, Note_off_c, 0, 67, 52
1, 181854, Control_c, 0, 64, 73
1, 181875, Control_c, 0, 64, 83
1, 181890, Note_off_c, 0, 53, 61
1, 181892, Control_c, 0, 64, 95
1, 181911, Control_c, 0, 64, 102
1, 181947, Control_c, 0, 64, 106
1, 182001, Control_c, 0, 64, 92
1, 182018, Note_on_c, 0, 40, 87
1, 182019, Control_c, 0, 64, 73
1, 182039, Control_c, 0, 64, 53
1, 182057, Control_c, 0, 64, 44
1, 182096, Control_c, 0, 64, 53
1, 182113, Control_c, 0, 64, 62
1, 182132, Control_c, 0, 64, 69
1, 182163, Control_c, 0, 64, 75
1, 182177, Note_off_c, 0, 65, 65
1, 182182, Control_c, 0, 64, 79
1, 182201, Control_c, 0, 64, 81
1, 182234, Note_off_c, 0, 69, 62
1, 182276, Note_on_c, 0, 74, 89
1, 182276, Note_on_c, 0, 41, 77
1, 182294, Note_on_c, 0, 65, 74
1, 182331, Control_c, 0, 64, 79
1, 182339, Note_off_c, 0, 40, 58
1, 182368, Control_c, 0, 64, 76
1, 182386, Control_c, 0, 64, 74
1, 182404, Control_c, 0, 64, 72
1, 182422, Control_c, 0, 64, 69
1, 182441, Control_c, 0, 64, 64
1, 182460, Control_c, 0, 64, 55
1, 182477, Control_c, 0, 64, 42
1, 182495, Control_c, 0, 64, 25
1, 182513, Control_c, 0, 64, 8
1, 182521, Note_on_c, 0, 43, 82
1, 182532, Control_c, 0, 64, 0
1, 182607, Control_c, 0, 64, 21
1, 182622, Note_off_c, 0, 41, 54
1, 182623, Control_c, 0, 64, 39
1, 182643, Control_c, 0, 64, 56
1, 182660, Note_off_c, 0, 65, 64
1, 182661, Control_c, 0, 64, 65
1, 182681, Control_c, 0, 64, 68
1, 182717, Control_c, 0, 64, 71
1, 182770, Note_on_c, 0, 45, 73
1, 182770, Note_on_c, 0, 73, 85
1, 182783, Note_on_c, 0, 64, 66
1, 182790, Control_c, 0, 64, 69
1, 182809, Control_c, 0, 64, 67
1, 182825, Note_off_c, 0, 43, 63
1, 182827, Control_c, 0, 64, 65
1, 182841, Note_off_c, 0, 74, 58
1, 182846, Control_c, 0, 64, 61
1, 182863, Control_c, 0, 64, 55
1, 182883, Control_c, 0, 64, 43
1, 182901, Control_c, 0, 64, 28
1, 182919, Control_c, 0, 64, 15
1, 182955, Control_c, 0, 64, 0
1, 183005, Note_on_c, 0, 47, 74
1, 183030, Control_c, 0, 64, 19
1, 183049, Control_c, 0, 64, 37
1, 183068, Control_c, 0, 64, 54
1, 183069, Note_off_c, 0, 45, 62
1, 183099, Control_c, 0, 64, 65
1, 183118, Control_c, 0, 64, 71
1, 183136, Control_c, 0, 64, 75
1, 183155, Control_c, 0, 64, 79
1, 183174, Control_c, 0, 64, 82
1, 183191, Control_c, 0, 64, 84
1, 183201, Note_off_c, 0, 73, 62
1, 183257, Note_on_c, 0, 72, 86
1, 183265, Control_c, 0, 64, 81
1, 183268, Note_on_c, 0, 69, 72
1, 183272, Note_on_c, 0, 48, 73
1, 183284, Control_c, 0, 64, 74
1, 183292, Note_off_c, 0, 64, 52
1, 183303, Control_c, 0, 64, 62
1, 183323, Control_c, 0, 64, 46
1, 183332, Note_off_c, 0, 47, 56
1, 183337, Control_c, 0, 64, 34
1, 183358, Control_c, 0, 64, 26
1, 183396, Control_c, 0, 64, 22
1, 183449, Control_c, 0, 64, 30
1, 183468, Control_c, 0, 64, 44
1, 183487, Control_c, 0, 64, 57
1, 183500, Note_on_c, 0, 45, 66
1, 183505, Control_c, 0, 64, 65
1, 183524, Control_c, 0, 64, 70
1, 183534, Note_off_c, 0, 48, 63
1, 183541, Control_c, 0, 64, 73
1, 183560, Control_c, 0, 64, 77
1, 183578, Control_c, 0, 64, 80
1, 183597, Control_c, 0, 64, 83
1, 183617, Control_c, 0, 64, 85
1, 183708, Control_c, 0, 64, 80
1, 183727, Control_c, 0, 64, 68
1, 183745, Control_c, 0, 64, 52
1, 183755, Note_on_c, 0, 71, 81
1, 183764, Note_on_c, 0, 50, 68
1, 183764, Control_c, 0, 64, 39
1, 183782, Control_c, 0, 64, 35
1, 183786, Note_off_c, 0, 45, 60
1, 183804, Note_off_c, 0, 72, 66
1, 183855, Control_c, 0, 64, 47
1, 183872, Control_c, 0, 64, 57
1, 183890, Control_c, 0, 64, 64
1, 183911, Control_c, 0, 64, 68
1, 183927, Control_c, 0, 64, 71
1, 183947, Control_c, 0, 64, 74
1, 183966, Control_c, 0, 64, 77
1, 183985, Control_c, 0, 64, 79
1, 184003, Control_c, 0, 64, 81
1, 184012, Note_on_c, 0, 49, 68
1, 184086, Note_off_c, 0, 50, 61
1, 184146, Control_c, 0, 64, 75
1, 184164, Control_c, 0, 64, 64
1, 184182, Control_c, 0, 64, 48
1, 184202, Control_c, 0, 64, 39
1, 184238, Control_c, 0, 64, 45
1, 184241, Note_on_c, 0, 70, 81
1, 184250, Note_on_c, 0, 50, 66
1, 184257, Control_c, 0, 64, 57
1, 184275, Control_c, 0, 64, 66
1, 184293, Control_c, 0, 64, 72
1, 184295, Note_off_c, 0, 71, 53
1, 184301, Note_off_c, 0, 49, 60
1, 184312, Control_c, 0, 64, 77
1, 184331, Control_c, 0, 64, 80
1, 184366, Control_c, 0, 64, 76
1, 184385, Control_c, 0, 64, 65
1, 184404, Control_c, 0, 64, 50
1, 184423, Control_c, 0, 64, 42
1, 184478, Control_c, 0, 64, 47
1, 184482, Note_on_c, 0, 67, 72
1, 184494, Control_c, 0, 64, 55
1, 184498, Note_on_c, 0, 52, 65
1, 184513, Control_c, 0, 64, 61
1, 184533, Note_off_c, 0, 50, 60
1, 184533, Control_c, 0, 64, 67
1, 184552, Control_c, 0, 64, 72
1, 184570, Control_c, 0, 64, 78
1, 184577, Note_off_c, 0, 69, 58
1, 184587, Control_c, 0, 64, 84
1, 184606, Control_c, 0, 64, 88
1, 184647, Note_off_c, 0, 70, 64
1, 184662, Control_c, 0, 64, 83
1, 184681, Control_c, 0, 64, 71
1, 184699, Control_c, 0, 64, 55
1, 184718, Control_c, 0, 64, 48
1, 184729, Note_on_c, 0, 69, 81
1, 184734, Note_on_c, 0, 53, 65
1, 184739, Note_off_c, 0, 52, 62
1, 184754, Control_c, 0, 64, 50
1, 184773, Control_c, 0, 64, 56
1, 184790, Control_c, 0, 64, 62
1, 184794, Note_off_c, 0, 67, 60
1, 184809, Control_c, 0, 64, 66
1, 184826, Control_c, 0, 64, 71
1, 184845, Control_c, 0, 64, 75
1, 184864, Control_c, 0, 64, 79
1, 184921, Control_c, 0, 64, 76
1, 184938, Control_c, 0, 64, 69
1, 184971, Control_c, 0, 64, 61
1, 184989, Control_c, 0, 64, 57
1, 184994, Note_on_c, 0, 47, 62
1, 184994, Note_on_c, 0, 65, 76
1, 185015, Note_off_c, 0, 53, 57
1, 185027, Control_c, 0, 64, 60
1, 185045, Control_c, 0, 64, 64
1, 185063, Control_c, 0, 64, 67
1, 185081, Control_c, 0, 64, 71
1, 185100, Control_c, 0, 64, 76
1, 185118, Control_c, 0, 64, 79
1, 185174, Control_c, 0, 64, 75
1, 185193, Control_c, 0, 64, 66
1, 185210, Control_c, 0, 64, 55
1, 185229, Control_c, 0, 64, 50
1, 185249, Note_on_c, 0, 67, 79
1, 185260, Note_on_c, 0, 52, 60
1, 185265, Control_c, 0, 64, 54
1, 185283, Control_c, 0, 64, 59
1, 185302, Control_c, 0, 64, 64
1, 185310, Note_off_c, 0, 69, 56
1, 185320, Control_c, 0, 64, 68
1, 185331, Note_off_c, 0, 65, 66
1, 185339, Control_c, 0, 64, 72
1, 185358, Control_c, 0, 64, 75
1, 185364, Note_off_c, 0, 47, 58
1, 185415, Control_c, 0, 64, 71
1, 185432, Control_c, 0, 64, 61
1, 185450, Control_c, 0, 64, 50
1, 185468, Control_c, 0, 64, 43
1, 185499, Note_on_c, 0, 65, 79
1, 185509, Note_on_c, 0, 50, 63
1, 185523, Control_c, 0, 64, 53
1, 185541, Control_c, 0, 64, 61
1, 185548, Note_off_c, 0, 52, 58
1, 185560, Control_c, 0, 64, 66
1, 185579, Control_c, 0, 64, 71
1, 185598, Control_c, 0, 64, 74
1, 185616, Control_c, 0, 64, 76
1, 185670, Control_c, 0, 64, 68
1, 185689, Control_c, 0, 64, 58
1, 185708, Control_c, 0, 64, 46
1, 185726, Control_c, 0, 64, 40
1, 185741, Note_on_c, 0, 64, 81
1, 185746, Note_on_c, 0, 49, 66
1, 185764, Note_off_c, 0, 50, 61
1, 185784, Control_c, 0, 64, 45
1, 185801, Control_c, 0, 64, 53
1, 185807, Note_off_c, 0, 67, 57
1, 185819, Control_c, 0, 64, 59
1, 185839, Control_c, 0, 64, 64
1, 185857, Control_c, 0, 64, 68
1, 185867, Note_off_c, 0, 65, 62
1, 185875, Control_c, 0, 64, 70
1, 185927, Control_c, 0, 64, 72
1, 185964, Control_c, 0, 64, 70
1, 185984, Control_c, 0, 64, 64
1, 186000, Control_c, 0, 64, 53
1, 186018, Control_c, 0, 64, 40
1, 186037, Control_c, 0, 64, 31
1, 186037, Note_on_c, 0, 67, 80
1, 186042, Note_on_c, 0, 45, 64
1, 186049, Note_off_c, 0, 49, 58
1, 186112, Control_c, 0, 64, 44
1, 186131, Control_c, 0, 64, 55
1, 186147, Control_c, 0, 64, 62
1, 186167, Control_c, 0, 64, 66
1, 186184, Control_c, 0, 64, 68
1, 186239, Control_c, 0, 64, 67
1, 186258, Control_c, 0, 64, 63
1, 186277, Control_c, 0, 64, 55
1, 186292, Note_on_c, 0, 62, 85
1, 186295, Control_c, 0, 64, 44
1, 186306, Note_on_c, 0, 50, 65
1, 186311, Note_on_c, 0, 65, 70
1, 186313, Control_c, 0, 64, 35
1, 186329, Note_off_c, 0, 45, 56
1, 186345, Note_off_c, 0, 67, 53
1, 186357, Note_off_c, 0, 64, 59
1, 186386, Control_c, 0, 64, 46
1, 186406, Control_c, 0, 64, 56
1, 186426, Control_c, 0, 64, 63
1, 186443, Control_c, 0, 64, 67
1, 186460, Control_c, 0, 64, 70
1, 186479, Control_c, 0, 64, 72
1, 186530, Note_off_c, 0, 65, 64
1, 186554, Control_c, 0, 64, 67
1, 186572, Control_c, 0, 64, 58
1, 186587, Note_on_c, 0, 55, 67
1, 186590, Note_on_c, 0, 64, 81
1, 186591, Control_c, 0, 64, 46
1, 186600, Note_off_c, 0, 50, 57
1, 186608, Control_c, 0, 64, 36
1, 186627, Control_c, 0, 64, 29
1, 186681, Control_c, 0, 64, 33
1, 186701, Control_c, 0, 64, 44
1, 186719, Control_c, 0, 64, 56
1, 186738, Control_c, 0, 64, 63
1, 186756, Control_c, 0, 64, 67
1, 186774, Control_c, 0, 64, 68
1, 186812, Control_c, 0, 64, 66
1, 186831, Control_c, 0, 64, 59
1, 186863, Control_c, 0, 64, 47
1, 186871, Note_off_c, 0, 64, 60
1, 186880, Note_on_c, 0, 57, 63
1, 186881, Control_c, 0, 64, 34
1, 186893, Note_on_c, 0, 65, 76
1, 186899, Control_c, 0, 64, 26
1, 186904, Note_off_c, 0, 55, 61
1, 186973, Control_c, 0, 64, 31
1, 186991, Control_c, 0, 64, 39
1, 187010, Control_c, 0, 64, 48
1, 187012, Note_off_c, 0, 65, 66
1, 187013, Note_on_c, 0, 64, 72
1, 187029, Control_c, 0, 64, 57
1, 187047, Control_c, 0, 64, 62
1, 187067, Control_c, 0, 64, 64
1, 187071, Note_off_c, 0, 64, 60
1, 187083, Control_c, 0, 64, 67
1, 187097, Note_on_c, 0, 65, 68
1, 187101, Control_c, 0, 64, 70
1, 187121, Control_c, 0, 64, 73
1, 187139, Control_c, 0, 64, 78
1, 187152, Note_on_c, 0, 64, 78
1, 187155, Control_c, 0, 64, 83
1, 187170, Note_off_c, 0, 65, 63
1, 187174, Control_c, 0, 64, 86
1, 187215, Note_off_c, 0, 57, 64
1, 187220, Note_off_c, 0, 64, 61
1, 187236, Note_on_c, 0, 65, 68
1, 187282, Note_on_c, 0, 64, 71
1, 187305, Note_off_c, 0, 65, 64
1, 187345, Note_off_c, 0, 64, 61
1, 187363, Note_on_c, 0, 65, 67
1, 187392, Note_on_c, 0, 64, 66
1, 187415, Note_off_c, 0, 65, 63
1, 187463, Note_off_c, 0, 62, 57
1, 187469, Control_c, 0, 64, 84
1, 187491, Control_c, 0, 64, 82
1, 187508, Control_c, 0, 64, 80
1, 187527, Control_c, 0, 64, 78
1, 187545, Control_c, 0, 64, 75
1, 187562, Control_c, 0, 64, 71
1, 187582, Control_c, 0, 64, 64
1, 187599, Control_c, 0, 64, 57
1, 187617, Control_c, 0, 64, 52
1, 187635, Control_c, 0, 64, 48
1, 187655, Control_c, 0, 64, 46
1, 187672, Control_c, 0, 64, 42
1, 187692, Control_c, 0, 64, 38
1, 187729, Control_c, 0, 64, 32
1, 187757, Note_on_c, 0, 45, 63
1, 187761, Note_on_c, 0, 61, 73
1, 187799, Control_c, 0, 64, 27
1, 188037, Control_c, 0, 64, 23
1, 188363, Note_on_c, 0, 62, 70
1, 188399, Note_off_c, 0, 64, 58
1, 188539, Note_off_c, 0, 61, 59
1, 188552, Control_c, 0, 64, 33
1, 188572, Control_c, 0, 64, 40
1, 188591, Control_c, 0, 64, 51
1, 188608, Control_c, 0, 64, 61
1, 188627, Control_c, 0, 64, 66
1, 188646, Control_c, 0, 64, 70
1, 188665, Control_c, 0, 64, 75
1, 188683, Control_c, 0, 64, 81
1, 188715, Control_c, 0, 64, 87
1, 188734, Control_c, 0, 64, 93
1, 188742, Note_off_c, 0, 62, 63
1, 188753, Control_c, 0, 64, 98
1, 188790, Control_c, 0, 64, 103
1, 189002, Note_off_c, 0, 45, 33
1, 189193, Note_on_c, 0, 38, 47
1, 189194, Note_on_c, 0, 62, 69
1, 189323, Control_c, 0, 64, 93
1, 189342, Control_c, 0, 64, 85
1, 189360, Control_c, 0, 64, 74
1, 189379, Control_c, 0, 64, 63
1, 189398, Control_c, 0, 64, 56
1, 189414, Control_c, 0, 64, 53
1, 189434, Control_c, 0, 64, 51
1, 189471, Control_c, 0, 64, 49
1, 189526, Control_c, 0, 64, 47
1, 189579, Control_c, 0, 64, 44
1, 189617, Control_c, 0, 64, 42
1, 189670, Control_c, 0, 64, 40
1, 190296, Control_c, 0, 64, 42
1, 190333, Control_c, 0, 64, 44
1, 190351, Control_c, 0, 64, 46
1, 190406, Control_c, 0, 64, 49
1, 190443, Control_c, 0, 64, 51
1, 191049, Control_c, 0, 64, 49
1, 191138, Control_c, 0, 64, 47
1, 191323, Control_c, 0, 64, 45
1, 191433, Control_c, 0, 64, 43
1, 191510, Control_c, 0, 64, 41
1, 191602, Note_off_c, 0, 62, 48
1, 191710, Note_off_c, 0, 38, 58
1, 191818, Control_c, 0, 64, 37
1, 194092, Control_c, 0, 64, 32
1, 194165, Control_c, 0, 64, 28
1, 194222, Control_c, 0, 64, 24
1, 195448, Control_c, 0, 64, 20
1, 195910, Control_c, 0, 64, 14
1, 195928, Control_c, 0, 64, 10
1, 195963, Control_c, 0, 64, 0
1, 196074, Control_c, 0, 67, 8
1, 196111, Control_c, 0, 67, 14
1, 196150, Control_c, 0, 67, 21
1, 196186, Control_c, 0, 67, 30
1, 196218, Control_c, 0, 67, 39
1, 196237, Control_c, 0, 67, 48
1, 196255, Control_c, 0, 67, 56
1, 196274, Control_c, 0, 67, 60
1, 196476, Control_c, 0, 67, 56
1, 196533, Control_c, 0, 67, 52
1, 196883, Control_c, 0, 67, 48
1, 196918, Control_c, 0, 67, 43
1, 196991, Control_c, 0, 67, 39
1, 199265, Control_c, 0, 67, 30
1, 199283, Control_c, 0, 67, 19
1, 199301, Control_c, 0, 67, 8
1, 199319, Control_c, 0, 67, 0
1, 201600, End_track
0, 0, End_of_file
