0, 0, Header, 0, 1, 480
1, 0, Start_track
1, 0, Title_t, "Suite bergamasque"
1, 0, Title_t, "Passepied"
1, 0, Copyright_t, "Copyright © 1998 von Bernd Krüger. http://www.piano-midi.de"
1, 0, Text_t, "Claude Debussy"
1, 0, Text_t, "Allegretto ma non troppo"
1, 0, Text_t, "Fertiggestellt am 20.8.98\012"
1, 0, Text_t, "Beide Tracks auf Kanal 1 am 9.11.98\012"
1, 0, Text_t, "Update am 21.4.99\012"
1, 0, Text_t, "Normierung: 23.12.2002\012"
1, 0, Text_t, "Update am 24.8.2011\012"
1, 0, Text_t, "Dauer: 3:36 Minuten\012"
1, 0, Time_signature, 4, 2, 24, 8
1, 0, Key_signature, 3, "major"
1, 0, Tempo, 351906
1, 0, Marker_t, "Allegretto ma non troppo"
1, 0, Program_c, 0, 0
1, 0, Control_c, 0, 7, 100
1, 0, Control_c, 0, 10, 64
1, 0, Control_c, 0, 91, 127
1, 0, Control_c, 0, 64, 0
1, 0, Control_c, 0, 91, 127
1, 0, Text_t, "bdca426d104a26ac9dcb070447587523"
1, 0, Program_c, 0, 0
1, 0, Control_c, 0, 7, 100
1, 0, Control_c, 0, 10, 64
1, 0, Control_c, 0, 91, 127
1, 0, Note_on_c, 0, 42, 38
1, 90, Note_on_c, 0, 42, 0
1, 240, Tempo, 343840
1, 240, Note_on_c, 0, 49, 32
1, 330, Note_on_c, 0, 49, 0
1, 480, Note_on_c, 0, 57, 34
1, 570, Note_on_c, 0, 57, 0
1, 720, Tempo, 348837
1, 720, Note_on_c, 0, 49, 33
1, 810, Note_on_c, 0, 49, 0
1, 960, Tempo, 346821
1, 960, Note_on_c, 0, 44, 42
1, 1050, Note_on_c, 0, 44, 0
1, 1200, Tempo, 338983
1, 1200, Note_on_c, 0, 49, 34
1, 1290, Note_on_c, 0, 49, 0
1, 1440, Note_on_c, 0, 59, 38
1, 1530, Note_on_c, 0, 59, 0
1, 1680, Tempo, 345821
1, 1680, Note_on_c, 0, 49, 36
1, 1770, Note_on_c, 0, 49, 0
1, 1920, Note_on_c, 0, 45, 44
1, 2010, Note_on_c, 0, 45, 0
1, 2160, Tempo, 338028
1, 2160, Note_on_c, 0, 54, 40
1, 2250, Note_on_c, 0, 54, 0
1, 2400, Note_on_c, 0, 61, 44
1, 2490, Note_on_c, 0, 61, 0
1, 2640, Tempo, 342857
1, 2640, Note_on_c, 0, 54, 40
1, 2730, Note_on_c, 0, 54, 0
1, 2880, Tempo, 343840
1, 2880, Note_on_c, 0, 47, 44
1, 2970, Note_on_c, 0, 47, 0
1, 3120, Tempo, 338028
1, 3120, Note_on_c, 0, 54, 38
1, 3210, Note_on_c, 0, 54, 0
1, 3360, Note_on_c, 0, 62, 41
1, 3450, Note_on_c, 0, 62, 0
1, 3600, Tempo, 343840
1, 3600, Note_on_c, 0, 54, 38
1, 3690, Note_on_c, 0, 54, 0
1, 3840, Tempo, 353982
1, 3840, Note_on_c, 0, 66, 55
1, 3840, Note_on_c, 0, 42, 46
1, 3930, Note_on_c, 0, 42, 0
1, 4080, Note_on_c, 0, 49, 36
1, 4170, Note_on_c, 0, 49, 0
1, 4200, Note_on_c, 0, 66, 0
1, 4320, Tempo, 348837
1, 4320, Note_on_c, 0, 73, 55
1, 4320, Note_on_c, 0, 57, 41
1, 4410, Note_on_c, 0, 57, 0
1, 4560, Note_on_c, 0, 73, 0
1, 4560, Note_on_c, 0, 49, 36
1, 4650, Note_on_c, 0, 49, 0
1, 4800, Tempo, 353982
1, 4800, Note_on_c, 0, 71, 56
1, 4800, Note_on_c, 0, 44, 46
1, 4890, Note_on_c, 0, 44, 0
1, 5040, Tempo, 343840
1, 5040, Note_on_c, 0, 49, 36
1, 5130, Note_on_c, 0, 49, 0
1, 5280, Note_on_c, 0, 59, 42
1, 5370, Note_on_c, 0, 59, 0
1, 5520, Tempo, 346821
1, 5520, Note_on_c, 0, 49, 36
1, 5610, Note_on_c, 0, 49, 0
1, 5760, Tempo, 348837
1, 5760, Note_on_c, 0, 45, 46
1, 5850, Note_on_c, 0, 45, 0
1, 6000, Tempo, 343840
1, 6000, Note_on_c, 0, 54, 35
1, 6090, Note_on_c, 0, 54, 0
1, 6240, Note_on_c, 0, 71, 0
1, 6240, Note_on_c, 0, 69, 54
1, 6240, Note_on_c, 0, 61, 39
1, 6330, Note_on_c, 0, 61, 0
1, 6420, Note_on_c, 0, 69, 0
1, 6480, Tempo, 345821
1, 6480, Note_on_c, 0, 68, 54
1, 6480, Note_on_c, 0, 54, 34
1, 6570, Note_on_c, 0, 54, 0
1, 6660, Note_on_c, 0, 68, 0
1, 6720, Tempo, 349854
1, 6720, Note_on_c, 0, 66, 56
1, 6720, Note_on_c, 0, 47, 43
1, 6810, Note_on_c, 0, 47, 0
1, 6960, Tempo, 345821
1, 6960, Note_on_c, 0, 54, 34
1, 7050, Note_on_c, 0, 54, 0
1, 7120, Note_on_c, 0, 66, 0
1, 7200, Note_on_c, 0, 64, 54
1, 7200, Note_on_c, 0, 62, 36
1, 7290, Note_on_c, 0, 62, 0
1, 7380, Note_on_c, 0, 64, 0
1, 7440, Tempo, 347826
1, 7440, Note_on_c, 0, 62, 53
1, 7440, Note_on_c, 0, 54, 33
1, 7530, Note_on_c, 0, 54, 0
1, 7620, Note_on_c, 0, 62, 0
1, 7680, Note_on_c, 0, 61, 56
1, 7680, Note_on_c, 0, 42, 41
1, 7770, Note_on_c, 0, 42, 0
1, 7920, Tempo, 345821
1, 7920, Note_on_c, 0, 49, 33
1, 8010, Note_on_c, 0, 49, 0
1, 8150, Note_on_c, 0, 61, 0
1, 8160, Note_on_c, 0, 62, 53
1, 8160, Note_on_c, 0, 57, 37
1, 8250, Note_on_c, 0, 57, 0
1, 8400, Note_on_c, 0, 62, 0
1, 8400, Note_on_c, 0, 64, 53
1, 8400, Note_on_c, 0, 49, 34
1, 8490, Note_on_c, 0, 49, 0
1, 8640, Tempo, 347826
1, 8640, Note_on_c, 0, 64, 0
1, 8640, Note_on_c, 0, 66, 57
1, 8640, Note_on_c, 0, 45, 43
1, 8730, Note_on_c, 0, 45, 0
1, 8880, Tempo, 344828
1, 8880, Note_on_c, 0, 54, 34
1, 8970, Note_on_c, 0, 54, 0
1, 9120, Note_on_c, 0, 66, 0
1, 9120, Note_on_c, 0, 69, 55
1, 9120, Note_on_c, 0, 61, 39
1, 9210, Note_on_c, 0, 61, 0
1, 9360, Tempo, 358209
1, 9360, Note_on_c, 0, 54, 35
1, 9450, Note_on_c, 0, 54, 0
1, 9600, Tempo, 347826
1, 9600, Note_on_c, 0, 69, 0
1, 9600, Note_on_c, 0, 68, 57
1, 9600, Note_on_c, 0, 49, 46
1, 9690, Note_on_c, 0, 49, 0
1, 9840, Tempo, 343840
1, 9840, Note_on_c, 0, 56, 36
1, 9930, Note_on_c, 0, 56, 0
1, 10080, Tempo, 340909
1, 10080, Note_on_c, 0, 64, 41
1, 10170, Note_on_c, 0, 64, 0
1, 10320, Tempo, 343840
1, 10320, Note_on_c, 0, 56, 36
1, 10410, Note_on_c, 0, 56, 0
1, 10560, Tempo, 341880
1, 10560, Note_on_c, 0, 47, 43
1, 10650, Note_on_c, 0, 47, 0
1, 10800, Tempo, 338983
1, 10800, Note_on_c, 0, 56, 34
1, 10890, Note_on_c, 0, 56, 0
1, 11040, Tempo, 338028
1, 11040, Note_on_c, 0, 61, 40
1, 11130, Note_on_c, 0, 61, 0
1, 11280, Tempo, 341880
1, 11280, Note_on_c, 0, 56, 35
1, 11370, Note_on_c, 0, 56, 0
1, 11520, Tempo, 340909
1, 11520, Note_on_c, 0, 45, 44
1, 11610, Note_on_c, 0, 45, 0
1, 11740, Note_on_c, 0, 68, 0
1, 11760, Tempo, 338028
1, 11760, Note_on_c, 0, 66, 50
1, 11760, Note_on_c, 0, 54, 39
1, 11850, Note_on_c, 0, 54, 0
1, 11940, Note_on_c, 0, 66, 0
1, 12000, Tempo, 336134
1, 12000, Note_on_c, 0, 68, 50
1, 12000, Note_on_c, 0, 61, 39
1, 12090, Note_on_c, 0, 61, 0
1, 12180, Note_on_c, 0, 68, 0
1, 12240, Tempo, 345821
1, 12240, Note_on_c, 0, 69, 50
1, 12240, Note_on_c, 0, 54, 39
1, 12330, Note_on_c, 0, 54, 0
1, 12420, Note_on_c, 0, 69, 0
1, 12480, Tempo, 339117
1, 12480, Note_on_c, 0, 66, 55
1, 12480, Note_on_c, 0, 71, 55
1, 12480, Note_on_c, 0, 44, 43
1, 12570, Note_on_c, 0, 44, 0
1, 12720, Note_on_c, 0, 49, 39
1, 12810, Note_on_c, 0, 49, 0
1, 12960, Tempo, 342075
1, 12960, Note_on_c, 0, 66, 0
1, 12960, Note_on_c, 0, 65, 50
1, 12960, Note_on_c, 0, 59, 39
1, 13050, Note_on_c, 0, 59, 0
1, 13200, Note_on_c, 0, 49, 39
1, 13290, Note_on_c, 0, 49, 0
1, 13440, Tempo, 337192
1, 13440, Note_on_c, 0, 65, 0
1, 13440, Note_on_c, 0, 61, 50
1, 13440, Note_on_c, 0, 42, 45
1, 13530, Note_on_c, 0, 42, 0
1, 13660, Note_on_c, 0, 71, 0
1, 13680, Tempo, 335270
1, 13680, Note_on_c, 0, 69, 52
1, 13680, Note_on_c, 0, 49, 41
1, 13770, Note_on_c, 0, 49, 0
1, 13920, Tempo, 332447
1, 13920, Note_on_c, 0, 69, 0
1, 13920, Note_on_c, 0, 61, 0
1, 13920, Note_on_c, 0, 71, 52
1, 13920, Note_on_c, 0, 57, 41
1, 14010, Note_on_c, 0, 57, 0
1, 14160, Tempo, 341880
1, 14160, Note_on_c, 0, 71, 0
1, 14160, Note_on_c, 0, 73, 52
1, 14160, Note_on_c, 0, 49, 42
1, 14250, Note_on_c, 0, 49, 0
1, 14400, Tempo, 340117
1, 14400, Note_on_c, 0, 73, 0
1, 14400, Note_on_c, 0, 74, 56
1, 14400, Note_on_c, 0, 69, 56
1, 14400, Note_on_c, 0, 47, 47
1, 14490, Note_on_c, 0, 47, 0
1, 14640, Note_on_c, 0, 52, 45
1, 14730, Note_on_c, 0, 52, 0
1, 14880, Tempo, 342075
1, 14880, Note_on_c, 0, 69, 0
1, 14880, Note_on_c, 0, 68, 50
1, 14880, Note_on_c, 0, 62, 45
1, 14970, Note_on_c, 0, 62, 0
1, 15120, Note_on_c, 0, 52, 45
1, 15210, Note_on_c, 0, 52, 0
1, 15360, Note_on_c, 0, 68, 0
1, 15360, Note_on_c, 0, 64, 50
1, 15360, Note_on_c, 0, 45, 47
1, 15450, Note_on_c, 0, 45, 0
1, 15580, Note_on_c, 0, 74, 0
1, 15600, Tempo, 348149
1, 15600, Note_on_c, 0, 73, 54
1, 15600, Note_on_c, 0, 52, 46
1, 15635, Control_c, 0, 64, 127
1, 15690, Note_on_c, 0, 52, 0
1, 15840, Tempo, 357632
1, 15840, Note_on_c, 0, 73, 0
1, 15840, Note_on_c, 0, 64, 0
1, 15840, Note_on_c, 0, 74, 58
1, 15840, Note_on_c, 0, 57, 49
1, 15930, Note_on_c, 0, 57, 0
1, 16080, Tempo, 373459
1, 16080, Note_on_c, 0, 74, 0
1, 16080, Note_on_c, 0, 76, 63
1, 16080, Note_on_c, 0, 61, 51
1, 16170, Note_on_c, 0, 61, 0
1, 16320, Tempo, 342075
1, 16320, Note_on_c, 0, 76, 0
1, 16320, Note_on_c, 0, 74, 64
1, 16320, Note_on_c, 0, 78, 71
1, 16320, Note_on_c, 0, 50, 53
1, 16338, Control_c, 0, 64, 0
1, 16410, Note_on_c, 0, 50, 0
1, 16560, Tempo, 338983
1, 16560, Note_on_c, 0, 57, 39
1, 16650, Note_on_c, 0, 57, 0
1, 16800, Note_on_c, 0, 62, 38
1, 16890, Note_on_c, 0, 62, 0
1, 17040, Note_on_c, 0, 66, 38
1, 17130, Note_on_c, 0, 66, 0
1, 17280, Tempo, 345821
1, 17280, Note_on_c, 0, 57, 42
1, 17370, Note_on_c, 0, 57, 0
1, 17520, Tempo, 338983
1, 17520, Note_on_c, 0, 62, 37
1, 17610, Note_on_c, 0, 62, 0
1, 17760, Note_on_c, 0, 74, 0
1, 17760, Note_on_c, 0, 66, 37
1, 17850, Note_on_c, 0, 66, 0
1, 18000, Note_on_c, 0, 69, 37
1, 18120, Note_on_c, 0, 69, 0
1, 18240, Note_on_c, 0, 78, 0
1, 18240, Note_on_c, 0, 66, 56
1, 18480, Note_on_c, 0, 62, 37
1, 18600, Note_on_c, 0, 62, 0
1, 18720, Note_on_c, 0, 61, 36
1, 18840, Note_on_c, 0, 61, 0
1, 18960, Note_on_c, 0, 59, 36
1, 19080, Note_on_c, 0, 59, 0
1, 19200, Tempo, 353982
1, 19200, Note_on_c, 0, 57, 46
1, 19280, Tempo, 349426
1, 19290, Note_on_c, 0, 57, 0
1, 19440, Note_on_c, 0, 61, 36
1, 19530, Note_on_c, 0, 61, 0
1, 19560, Note_on_c, 0, 66, 0
1, 19680, Tempo, 356782
1, 19680, Note_on_c, 0, 73, 53
1, 19680, Note_on_c, 0, 57, 41
1, 19770, Note_on_c, 0, 57, 0
1, 19800, Note_on_c, 0, 73, 0
1, 19920, Note_on_c, 0, 54, 36
1, 20010, Note_on_c, 0, 54, 0
1, 20160, Tempo, 349426
1, 20160, Note_on_c, 0, 71, 56
1, 20160, Note_on_c, 0, 56, 46
1, 20250, Note_on_c, 0, 56, 0
1, 20400, Tempo, 339405
1, 20400, Note_on_c, 0, 59, 36
1, 20490, Note_on_c, 0, 59, 0
1, 20640, Note_on_c, 0, 64, 42
1, 20730, Note_on_c, 0, 64, 0
1, 20880, Tempo, 342349
1, 20880, Note_on_c, 0, 54, 36
1, 20970, Note_on_c, 0, 54, 0
1, 21120, Tempo, 344353
1, 21120, Note_on_c, 0, 52, 46
1, 21210, Note_on_c, 0, 52, 0
1, 21360, Tempo, 339405
1, 21360, Note_on_c, 0, 59, 35
1, 21450, Note_on_c, 0, 59, 0
1, 21600, Tempo, 335570
1, 21600, Note_on_c, 0, 71, 0
1, 21600, Note_on_c, 0, 69, 54
1, 21600, Note_on_c, 0, 64, 39
1, 21690, Note_on_c, 0, 64, 0
1, 21780, Note_on_c, 0, 69, 0
1, 21840, Tempo, 341375
1, 21840, Note_on_c, 0, 68, 54
1, 21840, Note_on_c, 0, 59, 34
1, 21930, Note_on_c, 0, 59, 0
1, 22020, Note_on_c, 0, 68, 0
1, 22080, Tempo, 345344
1, 22080, Note_on_c, 0, 66, 56
1, 22080, Note_on_c, 0, 47, 43
1, 22170, Note_on_c, 0, 47, 0
1, 22320, Tempo, 341375
1, 22320, Note_on_c, 0, 56, 34
1, 22410, Note_on_c, 0, 56, 0
1, 22480, Note_on_c, 0, 66, 0
1, 22560, Tempo, 338448
1, 22560, Note_on_c, 0, 64, 54
1, 22560, Note_on_c, 0, 62, 36
1, 22650, Note_on_c, 0, 62, 0
1, 22740, Note_on_c, 0, 64, 0
1, 22800, Tempo, 343348
1, 22800, Note_on_c, 0, 62, 53
1, 22800, Note_on_c, 0, 52, 33
1, 22890, Note_on_c, 0, 52, 0
1, 22980, Note_on_c, 0, 62, 0
1, 23040, Tempo, 349426
1, 23040, Note_on_c, 0, 45, 41
1, 23130, Note_on_c, 0, 45, 0
1, 23280, Tempo, 341375
1, 23280, Note_on_c, 0, 61, 56
1, 23280, Note_on_c, 0, 52, 33
1, 23370, Note_on_c, 0, 52, 0
1, 23520, Tempo, 338448
1, 23520, Note_on_c, 0, 61, 0
1, 23520, Note_on_c, 0, 62, 53
1, 23520, Note_on_c, 0, 57, 37
1, 23610, Note_on_c, 0, 57, 0
1, 23760, Tempo, 341375
1, 23760, Note_on_c, 0, 62, 0
1, 23760, Note_on_c, 0, 64, 53
1, 23760, Note_on_c, 0, 52, 34
1, 23850, Note_on_c, 0, 52, 0
1, 24000, Tempo, 343348
1, 24000, Note_on_c, 0, 64, 0
1, 24000, Note_on_c, 0, 66, 57
1, 24000, Note_on_c, 0, 50, 43
1, 24090, Note_on_c, 0, 50, 0
1, 24240, Tempo, 340387
1, 24240, Note_on_c, 0, 57, 34
1, 24330, Note_on_c, 0, 57, 0
1, 24480, Note_on_c, 0, 66, 0
1, 24480, Note_on_c, 0, 69, 55
1, 24480, Note_on_c, 0, 62, 39
1, 24570, Note_on_c, 0, 62, 0
1, 24720, Tempo, 353586
1, 24720, Note_on_c, 0, 49, 35
1, 24810, Note_on_c, 0, 49, 0
1, 24960, Tempo, 345344
1, 24960, Note_on_c, 0, 69, 0
1, 24960, Note_on_c, 0, 66, 57
1, 24960, Note_on_c, 0, 68, 57
1, 24960, Note_on_c, 0, 48, 46
1, 25050, Note_on_c, 0, 48, 0
1, 25200, Tempo, 339405
1, 25200, Note_on_c, 0, 56, 36
1, 25290, Note_on_c, 0, 56, 0
1, 25440, Tempo, 335570
1, 25440, Note_on_c, 0, 63, 41
1, 25530, Note_on_c, 0, 63, 0
1, 25680, Note_on_c, 0, 56, 36
1, 25770, Note_on_c, 0, 56, 0
1, 25920, Tempo, 343348
1, 25920, Note_on_c, 0, 48, 43
1, 26010, Note_on_c, 0, 48, 0
1, 26160, Tempo, 339405
1, 26160, Note_on_c, 0, 56, 34
1, 26250, Note_on_c, 0, 56, 0
1, 26400, Tempo, 334616
1, 26400, Note_on_c, 0, 63, 40
1, 26490, Note_on_c, 0, 63, 0
1, 26640, Note_on_c, 0, 56, 35
1, 26730, Note_on_c, 0, 56, 0
1, 26880, Tempo, 342349
1, 26880, Note_on_c, 0, 48, 46
1, 26970, Note_on_c, 0, 48, 0
1, 27120, Tempo, 336511
1, 27120, Note_on_c, 0, 56, 36
1, 27210, Note_on_c, 0, 56, 0
1, 27360, Tempo, 334616
1, 27360, Note_on_c, 0, 63, 41
1, 27450, Note_on_c, 0, 63, 0
1, 27600, Note_on_c, 0, 56, 36
1, 27690, Note_on_c, 0, 56, 0
1, 27840, Tempo, 341375
1, 27840, Note_on_c, 0, 68, 0
1, 27840, Note_on_c, 0, 66, 0
1, 27840, Note_on_c, 0, 66, 60
1, 27840, Note_on_c, 0, 69, 60
1, 27840, Note_on_c, 0, 49, 49
1, 27903, Control_c, 0, 64, 127
1, 27930, Note_on_c, 0, 49, 0
1, 28080, Tempo, 336511
1, 28080, Note_on_c, 0, 57, 45
1, 28170, Note_on_c, 0, 57, 0
1, 28320, Tempo, 347383
1, 28320, Note_on_c, 0, 69, 0
1, 28320, Note_on_c, 0, 66, 0
1, 28320, Note_on_c, 0, 76, 59
1, 28320, Note_on_c, 0, 80, 59
1, 28320, Note_on_c, 0, 64, 49
1, 28394, Control_c, 0, 64, 0
1, 28410, Note_on_c, 0, 64, 0
1, 28440, Note_on_c, 0, 80, 0
1, 28440, Note_on_c, 0, 76, 0
1, 28560, Note_on_c, 0, 57, 47
1, 28650, Note_on_c, 0, 57, 0
1, 28800, Tempo, 342349
1, 28800, Note_on_c, 0, 66, 58
1, 28800, Note_on_c, 0, 68, 58
1, 28800, Note_on_c, 0, 48, 49
1, 28890, Note_on_c, 0, 48, 0
1, 29040, Tempo, 337477
1, 29040, Note_on_c, 0, 56, 38
1, 29130, Note_on_c, 0, 56, 0
1, 29280, Note_on_c, 0, 63, 44
1, 29370, Note_on_c, 0, 63, 0
1, 29520, Note_on_c, 0, 56, 38
1, 29610, Note_on_c, 0, 56, 0
1, 29760, Tempo, 341375
1, 29760, Note_on_c, 0, 68, 0
1, 29760, Note_on_c, 0, 66, 0
1, 29760, Note_on_c, 0, 66, 56
1, 29760, Note_on_c, 0, 62, 56
1, 29760, Note_on_c, 0, 47, 52
1, 29794, Control_c, 0, 64, 127
1, 29850, Note_on_c, 0, 47, 0
1, 30000, Tempo, 336511
1, 30000, Note_on_c, 0, 52, 48
1, 30090, Note_on_c, 0, 52, 0
1, 30240, Tempo, 347383
1, 30240, Note_on_c, 0, 62, 0
1, 30240, Note_on_c, 0, 66, 0
1, 30240, Note_on_c, 0, 76, 59
1, 30240, Note_on_c, 0, 73, 59
1, 30240, Note_on_c, 0, 56, 52
1, 30240, Note_on_c, 0, 62, 52
1, 30257, Control_c, 0, 64, 0
1, 30330, Note_on_c, 0, 62, 0
1, 30330, Note_on_c, 0, 56, 0
1, 30360, Note_on_c, 0, 73, 0
1, 30360, Note_on_c, 0, 76, 0
1, 30480, Note_on_c, 0, 52, 50
1, 30570, Note_on_c, 0, 52, 0
1, 30720, Tempo, 342349
1, 30720, Note_on_c, 0, 61, 57
1, 30720, Note_on_c, 0, 64, 57
1, 30720, Note_on_c, 0, 45, 52
1, 30810, Note_on_c, 0, 45, 0
1, 30960, Tempo, 337477
1, 30960, Note_on_c, 0, 52, 44
1, 31050, Note_on_c, 0, 52, 0
1, 31200, Note_on_c, 0, 61, 49
1, 31290, Note_on_c, 0, 61, 0
1, 31440, Note_on_c, 0, 52, 46
1, 31530, Note_on_c, 0, 52, 0
1, 31680, Tempo, 341375
1, 31680, Note_on_c, 0, 64, 0
1, 31680, Note_on_c, 0, 61, 0
1, 31680, Note_on_c, 0, 59, 66
1, 31680, Note_on_c, 0, 63, 66
1, 31680, Note_on_c, 0, 42, 55
1, 31712, Control_c, 0, 64, 127
1, 31770, Note_on_c, 0, 42, 0
1, 31920, Tempo, 336511
1, 31920, Note_on_c, 0, 47, 50
1, 32010, Note_on_c, 0, 47, 0
1, 32160, Tempo, 347383
1, 32160, Note_on_c, 0, 63, 0
1, 32160, Note_on_c, 0, 59, 0
1, 32160, Note_on_c, 0, 69, 69
1, 32160, Note_on_c, 0, 73, 69
1, 32160, Note_on_c, 0, 57, 55
1, 32181, Control_c, 0, 64, 0
1, 32250, Note_on_c, 0, 57, 0
1, 32310, Note_on_c, 0, 73, 0
1, 32310, Note_on_c, 0, 69, 0
1, 32400, Note_on_c, 0, 47, 52
1, 32490, Note_on_c, 0, 47, 0
1, 32640, Tempo, 342349
1, 32640, Note_on_c, 0, 61, 69
1, 32640, Note_on_c, 0, 56, 69
1, 32640, Note_on_c, 0, 37, 66
1, 32730, Note_on_c, 0, 37, 0
1, 32880, Tempo, 337477
1, 32880, Note_on_c, 0, 44, 57
1, 32970, Note_on_c, 0, 44, 0
1, 33120, Note_on_c, 0, 53, 61
1, 33210, Note_on_c, 0, 53, 0
1, 33360, Note_on_c, 0, 44, 57
1, 33450, Note_on_c, 0, 44, 0
1, 33600, Tempo, 341375
1, 33600, Note_on_c, 0, 37, 66
1, 33690, Note_on_c, 0, 37, 0
1, 33840, Note_on_c, 0, 44, 57
1, 33860, Tempo, 337477
1, 33930, Note_on_c, 0, 44, 0
1, 34080, Note_on_c, 0, 53, 61
1, 34170, Note_on_c, 0, 53, 0
1, 34320, Note_on_c, 0, 44, 57
1, 34410, Note_on_c, 0, 44, 0
1, 34560, Tempo, 342349
1, 34560, Note_on_c, 0, 37, 61
1, 34650, Note_on_c, 0, 37, 0
1, 34800, Tempo, 337477
1, 34800, Note_on_c, 0, 44, 55
1, 34890, Note_on_c, 0, 44, 0
1, 35040, Note_on_c, 0, 53, 58
1, 35130, Note_on_c, 0, 53, 0
1, 35280, Tempo, 397351
1, 35280, Note_on_c, 0, 44, 55
1, 35370, Note_on_c, 0, 44, 0
1, 35500, Note_on_c, 0, 56, 0
1, 35500, Note_on_c, 0, 61, 0
1, 35520, Tempo, 344353
1, 35520, Note_on_c, 0, 59, 42
1, 35520, Note_on_c, 0, 62, 42
1, 35520, Note_on_c, 0, 47, 38
1, 35531, Control_c, 0, 64, 127
1, 35610, Note_on_c, 0, 47, 0
1, 35760, Note_on_c, 0, 54, 35
1, 35850, Note_on_c, 0, 54, 0
1, 36000, Tempo, 360036
1, 36000, Note_on_c, 0, 62, 0
1, 36000, Note_on_c, 0, 59, 0
1, 36000, Note_on_c, 0, 69, 43
1, 36000, Note_on_c, 0, 66, 43
1, 36000, Note_on_c, 0, 57, 37
1, 36090, Note_on_c, 0, 57, 0
1, 36240, Note_on_c, 0, 61, 35
1, 36309, Control_c, 0, 64, 0
1, 36330, Note_on_c, 0, 61, 0
1, 36480, Tempo, 351494
1, 36480, Note_on_c, 0, 66, 0
1, 36480, Note_on_c, 0, 69, 0
1, 36480, Note_on_c, 0, 68, 43
1, 36480, Note_on_c, 0, 64, 43
1, 36480, Note_on_c, 0, 52, 37
1, 36481, Tempo, 356083
1, 36570, Note_on_c, 0, 52, 0
1, 36720, Tempo, 343840
1, 36720, Note_on_c, 0, 59, 34
1, 36810, Note_on_c, 0, 59, 0
1, 36840, Tempo, 342857
1, 36960, Tempo, 341880
1, 36960, Note_on_c, 0, 62, 34
1, 37040, Tempo, 340909
1, 37050, Note_on_c, 0, 62, 0
1, 37160, Tempo, 339943
1, 37200, Note_on_c, 0, 59, 34
1, 37240, Tempo, 338983
1, 37290, Note_on_c, 0, 59, 0
1, 37360, Tempo, 338028
1, 37440, Tempo, 337079
1, 37440, Note_on_c, 0, 52, 40
1, 37530, Note_on_c, 0, 52, 0
1, 37560, Tempo, 336134
1, 37640, Tempo, 335196
1, 37660, Tempo, 343840
1, 37680, Tempo, 336134
1, 37680, Note_on_c, 0, 64, 0
1, 37680, Note_on_c, 0, 68, 0
1, 37680, Note_on_c, 0, 69, 39
1, 37680, Note_on_c, 0, 66, 39
1, 37680, Note_on_c, 0, 59, 36
1, 37770, Note_on_c, 0, 59, 0
1, 37920, Tempo, 352941
1, 37920, Note_on_c, 0, 66, 0
1, 37920, Note_on_c, 0, 69, 0
1, 37920, Note_on_c, 0, 71, 44
1, 37920, Note_on_c, 0, 68, 44
1, 37920, Note_on_c, 0, 52, 37
1, 38010, Note_on_c, 0, 52, 0
1, 38160, Note_on_c, 0, 47, 35
1, 38250, Note_on_c, 0, 47, 0
1, 38400, Note_on_c, 0, 40, 37
1, 38490, Note_on_c, 0, 40, 0
1, 38640, Note_on_c, 0, 47, 34
1, 38730, Note_on_c, 0, 47, 0
1, 38880, Tempo, 356083
1, 38880, Note_on_c, 0, 68, 0
1, 38880, Note_on_c, 0, 71, 0
1, 38880, Note_on_c, 0, 73, 41
1, 38880, Note_on_c, 0, 69, 41
1, 38880, Note_on_c, 0, 52, 34
1, 38970, Note_on_c, 0, 52, 0
1, 39120, Note_on_c, 0, 56, 34
1, 39210, Note_on_c, 0, 56, 0
1, 39340, Note_on_c, 0, 69, 0
1, 39340, Note_on_c, 0, 73, 0
1, 39360, Tempo, 348837
1, 39360, Note_on_c, 0, 59, 42
1, 39360, Note_on_c, 0, 62, 42
1, 39360, Note_on_c, 0, 47, 37
1, 39381, Control_c, 0, 64, 127
1, 39450, Note_on_c, 0, 47, 0
1, 39600, Note_on_c, 0, 54, 34
1, 39690, Note_on_c, 0, 54, 0
1, 39840, Tempo, 361446
1, 39840, Note_on_c, 0, 62, 0
1, 39840, Note_on_c, 0, 59, 0
1, 39840, Note_on_c, 0, 69, 44
1, 39840, Note_on_c, 0, 66, 44
1, 39840, Note_on_c, 0, 57, 34
1, 39930, Note_on_c, 0, 57, 0
1, 40080, Note_on_c, 0, 61, 34
1, 40170, Note_on_c, 0, 61, 0
1, 40179, Control_c, 0, 64, 0
1, 40320, Tempo, 357143
1, 40320, Note_on_c, 0, 66, 0
1, 40320, Note_on_c, 0, 69, 0
1, 40320, Note_on_c, 0, 68, 43
1, 40320, Note_on_c, 0, 64, 43
1, 40320, Note_on_c, 0, 52, 38
1, 40410, Note_on_c, 0, 52, 0
1, 40560, Tempo, 347826
1, 40560, Note_on_c, 0, 59, 34
1, 40600, Tempo, 342857
1, 40650, Note_on_c, 0, 59, 0
1, 40720, Tempo, 341880
1, 40800, Note_on_c, 0, 62, 34
1, 40840, Tempo, 340909
1, 40890, Note_on_c, 0, 62, 0
1, 40960, Tempo, 339943
1, 41040, Note_on_c, 0, 59, 34
1, 41080, Tempo, 338983
1, 41130, Note_on_c, 0, 59, 0
1, 41200, Tempo, 338028
1, 41280, Note_on_c, 0, 52, 41
1, 41320, Tempo, 337079
1, 41370, Note_on_c, 0, 52, 0
1, 41440, Tempo, 336134
1, 41520, Tempo, 335196
1, 41520, Note_on_c, 0, 64, 0
1, 41520, Note_on_c, 0, 68, 0
1, 41520, Note_on_c, 0, 69, 42
1, 41520, Note_on_c, 0, 66, 42
1, 41520, Note_on_c, 0, 59, 37
1, 41610, Note_on_c, 0, 59, 0
1, 41760, Tempo, 351906
1, 41760, Note_on_c, 0, 66, 0
1, 41760, Note_on_c, 0, 69, 0
1, 41760, Note_on_c, 0, 71, 46
1, 41760, Note_on_c, 0, 68, 46
1, 41760, Note_on_c, 0, 52, 37
1, 41850, Note_on_c, 0, 52, 0
1, 42000, Note_on_c, 0, 47, 37
1, 42090, Note_on_c, 0, 47, 0
1, 42240, Note_on_c, 0, 40, 45
1, 42330, Note_on_c, 0, 40, 0
1, 42480, Note_on_c, 0, 47, 38
1, 42570, Note_on_c, 0, 47, 0
1, 42700, Note_on_c, 0, 68, 0
1, 42700, Note_on_c, 0, 71, 0
1, 42720, Tempo, 357143
1, 42720, Note_on_c, 0, 68, 51
1, 42720, Note_on_c, 0, 64, 51
1, 42720, Note_on_c, 0, 52, 38
1, 42810, Note_on_c, 0, 52, 0
1, 42960, Note_on_c, 0, 56, 38
1, 43050, Note_on_c, 0, 56, 0
1, 43200, Tempo, 350877
1, 43200, Note_on_c, 0, 64, 0
1, 43200, Note_on_c, 0, 68, 0
1, 43200, Note_on_c, 0, 69, 55
1, 43200, Note_on_c, 0, 66, 55
1, 43200, Note_on_c, 0, 47, 46
1, 43290, Note_on_c, 0, 47, 0
1, 43440, Note_on_c, 0, 52, 39
1, 43530, Note_on_c, 0, 52, 0
1, 43680, Note_on_c, 0, 66, 0
1, 43680, Note_on_c, 0, 69, 0
1, 43680, Note_on_c, 0, 71, 59
1, 43680, Note_on_c, 0, 68, 59
1, 43680, Note_on_c, 0, 62, 39
1, 43770, Note_on_c, 0, 62, 0
1, 43920, Tempo, 361446
1, 43920, Note_on_c, 0, 52, 39
1, 44010, Note_on_c, 0, 52, 0
1, 44160, Tempo, 361446
1, 44160, Note_on_c, 0, 68, 0
1, 44160, Note_on_c, 0, 71, 0
1, 44160, Note_on_c, 0, 71, 37
1, 44160, Note_on_c, 0, 73, 59
1, 44160, Note_on_c, 0, 67, 37
1, 44160, Note_on_c, 0, 45, 42
1, 44250, Note_on_c, 0, 45, 0
1, 44400, Tempo, 357143
1, 44400, Note_on_c, 0, 52, 38
1, 44480, Note_on_c, 0, 73, 0
1, 44480, Note_on_c, 0, 73, 59
1, 44490, Note_on_c, 0, 52, 0
1, 44640, Note_on_c, 0, 57, 38
1, 44730, Note_on_c, 0, 57, 0
1, 44800, Note_on_c, 0, 73, 0
1, 44800, Note_on_c, 0, 76, 56
1, 44880, Note_on_c, 0, 61, 38
1, 44970, Note_on_c, 0, 61, 0
1, 45120, Tempo, 360360
1, 45120, Note_on_c, 0, 71, 0
1, 45120, Note_on_c, 0, 67, 0
1, 45120, Note_on_c, 0, 76, 0
1, 45120, Note_on_c, 0, 66, 37
1, 45120, Note_on_c, 0, 73, 59
1, 45120, Note_on_c, 0, 69, 37
1, 45120, Note_on_c, 0, 50, 41
1, 45210, Note_on_c, 0, 50, 0
1, 45360, Tempo, 357143
1, 45360, Note_on_c, 0, 57, 38
1, 45440, Note_on_c, 0, 73, 0
1, 45440, Note_on_c, 0, 71, 59
1, 45450, Note_on_c, 0, 57, 0
1, 45600, Note_on_c, 0, 62, 38
1, 45690, Note_on_c, 0, 62, 0
1, 45760, Note_on_c, 0, 71, 0
1, 45760, Note_on_c, 0, 73, 56
1, 45840, Note_on_c, 0, 57, 38
1, 45930, Note_on_c, 0, 57, 0
1, 46080, Note_on_c, 0, 66, 0
1, 46080, Note_on_c, 0, 69, 0
1, 46080, Note_on_c, 0, 73, 0
1, 46080, Note_on_c, 0, 69, 56
1, 46080, Note_on_c, 0, 64, 37
1, 46080, Note_on_c, 0, 66, 37
1, 46080, Note_on_c, 0, 54, 41
1, 46170, Note_on_c, 0, 54, 0
1, 46320, Note_on_c, 0, 57, 34
1, 46410, Note_on_c, 0, 57, 0
1, 46560, Tempo, 351906
1, 46560, Note_on_c, 0, 69, 0
1, 46560, Note_on_c, 0, 73, 52
1, 46560, Note_on_c, 0, 61, 35
1, 46650, Note_on_c, 0, 61, 0
1, 46800, Note_on_c, 0, 57, 34
1, 46890, Note_on_c, 0, 57, 0
1, 47040, Tempo, 357143
1, 47040, Note_on_c, 0, 73, 0
1, 47040, Note_on_c, 0, 66, 0
1, 47040, Note_on_c, 0, 64, 0
1, 47040, Note_on_c, 0, 71, 55
1, 47040, Note_on_c, 0, 62, 45
1, 47040, Note_on_c, 0, 69, 45
1, 47040, Note_on_c, 0, 47, 37
1, 47130, Note_on_c, 0, 47, 0
1, 47280, Note_on_c, 0, 54, 32
1, 47370, Note_on_c, 0, 54, 0
1, 47520, Note_on_c, 0, 59, 34
1, 47610, Note_on_c, 0, 59, 0
1, 47760, Note_on_c, 0, 54, 33
1, 47850, Note_on_c, 0, 54, 0
1, 48000, Note_on_c, 0, 69, 0
1, 48000, Note_on_c, 0, 67, 41
1, 48000, Note_on_c, 0, 40, 35
1, 48090, Note_on_c, 0, 40, 0
1, 48240, Note_on_c, 0, 47, 30
1, 48330, Note_on_c, 0, 47, 0
1, 48480, Tempo, 355030
1, 48480, Note_on_c, 0, 71, 0
1, 48480, Note_on_c, 0, 73, 46
1, 48480, Note_on_c, 0, 52, 30
1, 48570, Note_on_c, 0, 52, 0
1, 48720, Note_on_c, 0, 55, 30
1, 48810, Note_on_c, 0, 55, 0
1, 48960, Tempo, 359281
1, 48960, Note_on_c, 0, 73, 0
1, 48960, Note_on_c, 0, 62, 0
1, 48960, Note_on_c, 0, 69, 44
1, 48960, Note_on_c, 0, 62, 37
1, 48960, Note_on_c, 0, 40, 33
1, 49050, Note_on_c, 0, 40, 0
1, 49200, Note_on_c, 0, 45, 30
1, 49290, Note_on_c, 0, 45, 0
1, 49440, Tempo, 378549
1, 49440, Note_on_c, 0, 62, 0
1, 49440, Note_on_c, 0, 59, 34
1, 49440, Note_on_c, 0, 55, 28
1, 49530, Note_on_c, 0, 55, 0
1, 49680, Note_on_c, 0, 45, 28
1, 49770, Note_on_c, 0, 45, 0
1, 49920, Tempo, 361446
1, 49920, Note_on_c, 0, 59, 0
1, 49920, Note_on_c, 0, 69, 0
1, 49920, Note_on_c, 0, 67, 0
1, 49920, Note_on_c, 0, 69, 40
1, 49920, Note_on_c, 0, 61, 50
1, 49920, Note_on_c, 0, 66, 40
1, 49920, Note_on_c, 0, 42, 38
1, 50010, Note_on_c, 0, 42, 0
1, 50160, Note_on_c, 0, 49, 35
1, 50240, Note_on_c, 0, 61, 0
1, 50240, Note_on_c, 0, 62, 49
1, 50250, Note_on_c, 0, 49, 0
1, 50400, Note_on_c, 0, 57, 35
1, 50490, Note_on_c, 0, 57, 0
1, 50560, Note_on_c, 0, 62, 0
1, 50560, Note_on_c, 0, 59, 49
1, 50640, Tempo, 370370
1, 50640, Note_on_c, 0, 54, 35
1, 50730, Note_on_c, 0, 54, 0
1, 50880, Tempo, 360360
1, 50880, Note_on_c, 0, 59, 0
1, 50880, Note_on_c, 0, 61, 52
1, 50880, Note_on_c, 0, 40, 38
1, 50970, Note_on_c, 0, 40, 0
1, 51120, Note_on_c, 0, 45, 35
1, 51200, Note_on_c, 0, 61, 0
1, 51200, Note_on_c, 0, 62, 49
1, 51210, Note_on_c, 0, 45, 0
1, 51360, Note_on_c, 0, 54, 35
1, 51450, Note_on_c, 0, 54, 0
1, 51520, Note_on_c, 0, 62, 0
1, 51520, Note_on_c, 0, 64, 49
1, 51600, Tempo, 369231
1, 51600, Note_on_c, 0, 45, 36
1, 51690, Note_on_c, 0, 45, 0
1, 51840, Tempo, 359281
1, 51840, Note_on_c, 0, 64, 0
1, 51840, Note_on_c, 0, 66, 0
1, 51840, Note_on_c, 0, 66, 52
1, 51840, Note_on_c, 0, 38, 38
1, 51930, Note_on_c, 0, 38, 0
1, 52080, Note_on_c, 0, 45, 35
1, 52160, Note_on_c, 0, 66, 0
1, 52160, Note_on_c, 0, 69, 0
1, 52160, Note_on_c, 0, 68, 49
1, 52170, Note_on_c, 0, 45, 0
1, 52320, Note_on_c, 0, 50, 35
1, 52410, Note_on_c, 0, 50, 0
1, 52480, Note_on_c, 0, 68, 0
1, 52480, Note_on_c, 0, 64, 49
1, 52560, Tempo, 366972
1, 52560, Note_on_c, 0, 54, 35
1, 52650, Note_on_c, 0, 54, 0
1, 52800, Tempo, 359281
1, 52800, Note_on_c, 0, 64, 0
1, 52800, Note_on_c, 0, 66, 51
1, 52800, Note_on_c, 0, 45, 35
1, 52890, Note_on_c, 0, 45, 0
1, 53040, Note_on_c, 0, 50, 33
1, 53120, Note_on_c, 0, 66, 0
1, 53120, Note_on_c, 0, 68, 48
1, 53130, Note_on_c, 0, 50, 0
1, 53280, Note_on_c, 0, 54, 33
1, 53370, Note_on_c, 0, 54, 0
1, 53440, Note_on_c, 0, 68, 0
1, 53440, Note_on_c, 0, 69, 47
1, 53520, Tempo, 366972
1, 53520, Note_on_c, 0, 57, 35
1, 53610, Note_on_c, 0, 57, 0
1, 53760, Tempo, 359281
1, 53760, Note_on_c, 0, 69, 0
1, 53760, Note_on_c, 0, 71, 47
1, 53760, Note_on_c, 0, 50, 34
1, 53850, Note_on_c, 0, 50, 0
1, 53940, Tempo, 360360
1, 54000, Note_on_c, 0, 57, 31
1, 54080, Note_on_c, 0, 71, 0
1, 54080, Note_on_c, 0, 73, 44
1, 54090, Note_on_c, 0, 57, 0
1, 54120, Tempo, 361446
1, 54240, Note_on_c, 0, 62, 31
1, 54300, Tempo, 362538
1, 54330, Note_on_c, 0, 62, 0
1, 54400, Note_on_c, 0, 73, 0
1, 54400, Note_on_c, 0, 69, 44
1, 54460, Tempo, 363636
1, 54480, Tempo, 375000
1, 54480, Note_on_c, 0, 66, 30
1, 54570, Note_on_c, 0, 66, 0
1, 54720, Tempo, 366972
1, 54720, Note_on_c, 0, 69, 0
1, 54720, Note_on_c, 0, 71, 44
1, 54720, Note_on_c, 0, 49, 31
1, 54780, Tempo, 368098
1, 54810, Note_on_c, 0, 49, 0
1, 54840, Tempo, 369231
1, 54880, Tempo, 370370
1, 54940, Tempo, 371517
1, 54960, Note_on_c, 0, 54, 30
1, 54980, Tempo, 372671
1, 55040, Tempo, 373832
1, 55040, Note_on_c, 0, 71, 0
1, 55040, Note_on_c, 0, 73, 41
1, 55050, Note_on_c, 0, 54, 0
1, 55080, Tempo, 375000
1, 55140, Tempo, 376176
1, 55200, Tempo, 377358
1, 55200, Note_on_c, 0, 57, 29
1, 55240, Tempo, 378549
1, 55290, Note_on_c, 0, 57, 0
1, 55300, Tempo, 379747
1, 55340, Tempo, 380952
1, 55360, Note_on_c, 0, 73, 0
1, 55360, Note_on_c, 0, 74, 41
1, 55400, Tempo, 382166
1, 55440, Tempo, 383387
1, 55440, Note_on_c, 0, 62, 28
1, 55530, Note_on_c, 0, 62, 0
1, 55680, Tempo, 369231
1, 55680, Note_on_c, 0, 74, 0
1, 55680, Note_on_c, 0, 74, 48
1, 55680, Note_on_c, 0, 78, 48
1, 55680, Note_on_c, 0, 66, 48
1, 55680, Note_on_c, 0, 47, 40
1, 55760, Control_c, 0, 64, 127
1, 55770, Note_on_c, 0, 47, 0
1, 55920, Note_on_c, 0, 54, 36
1, 56010, Note_on_c, 0, 54, 0
1, 56040, Note_on_c, 0, 66, 0
1, 56040, Note_on_c, 0, 78, 0
1, 56160, Tempo, 361882
1, 56160, Note_on_c, 0, 85, 48
1, 56160, Note_on_c, 0, 73, 48
1, 56160, Note_on_c, 0, 59, 36
1, 56250, Note_on_c, 0, 59, 0
1, 56400, Note_on_c, 0, 73, 0
1, 56400, Note_on_c, 0, 85, 0
1, 56400, Note_on_c, 0, 62, 36
1, 56490, Note_on_c, 0, 62, 0
1, 56640, Tempo, 365119
1, 56640, Note_on_c, 0, 74, 0
1, 56640, Note_on_c, 0, 71, 51
1, 56640, Note_on_c, 0, 77, 51
1, 56640, Note_on_c, 0, 83, 51
1, 56640, Note_on_c, 0, 47, 40
1, 56657, Control_c, 0, 64, 0
1, 56730, Note_on_c, 0, 47, 0
1, 56880, Tempo, 351514
1, 56880, Note_on_c, 0, 53, 36
1, 56970, Note_on_c, 0, 53, 0
1, 57120, Note_on_c, 0, 56, 36
1, 57210, Note_on_c, 0, 56, 0
1, 57360, Tempo, 354568
1, 57360, Note_on_c, 0, 62, 36
1, 57450, Note_on_c, 0, 62, 0
1, 57600, Tempo, 356633
1, 57600, Note_on_c, 0, 77, 0
1, 57600, Note_on_c, 0, 47, 40
1, 57641, Tempo, 348837
1, 57690, Note_on_c, 0, 47, 0
1, 57840, Tempo, 343840
1, 57840, Note_on_c, 0, 54, 35
1, 57930, Note_on_c, 0, 54, 0
1, 58080, Note_on_c, 0, 83, 0
1, 58080, Note_on_c, 0, 71, 0
1, 58080, Note_on_c, 0, 69, 50
1, 58080, Note_on_c, 0, 59, 35
1, 58170, Note_on_c, 0, 59, 0
1, 58260, Note_on_c, 0, 69, 0
1, 58320, Tempo, 345821
1, 58320, Note_on_c, 0, 68, 50
1, 58320, Note_on_c, 0, 62, 35
1, 58410, Note_on_c, 0, 62, 0
1, 58500, Note_on_c, 0, 68, 0
1, 58560, Tempo, 349854
1, 58560, Note_on_c, 0, 66, 52
1, 58560, Note_on_c, 0, 47, 39
1, 58650, Note_on_c, 0, 47, 0
1, 58800, Tempo, 345821
1, 58800, Note_on_c, 0, 54, 34
1, 58890, Note_on_c, 0, 54, 0
1, 58960, Note_on_c, 0, 66, 0
1, 59040, Note_on_c, 0, 64, 50
1, 59040, Note_on_c, 0, 56, 34
1, 59130, Note_on_c, 0, 56, 0
1, 59220, Note_on_c, 0, 64, 0
1, 59280, Tempo, 347826
1, 59280, Note_on_c, 0, 62, 49
1, 59280, Note_on_c, 0, 54, 34
1, 59370, Note_on_c, 0, 54, 0
1, 59460, Note_on_c, 0, 62, 0
1, 59520, Tempo, 353982
1, 59520, Note_on_c, 0, 61, 52
1, 59520, Note_on_c, 0, 45, 41
1, 59610, Note_on_c, 0, 45, 0
1, 59760, Tempo, 345821
1, 59760, Note_on_c, 0, 54, 35
1, 59850, Note_on_c, 0, 54, 0
1, 59990, Note_on_c, 0, 61, 0
1, 60000, Note_on_c, 0, 62, 49
1, 60000, Note_on_c, 0, 57, 35
1, 60090, Note_on_c, 0, 57, 0
1, 60240, Note_on_c, 0, 62, 0
1, 60240, Note_on_c, 0, 64, 49
1, 60240, Note_on_c, 0, 54, 34
1, 60330, Note_on_c, 0, 54, 0
1, 60480, Tempo, 347826
1, 60480, Note_on_c, 0, 64, 0
1, 60480, Note_on_c, 0, 66, 53
1, 60480, Note_on_c, 0, 42, 43
1, 60570, Note_on_c, 0, 42, 0
1, 60720, Tempo, 344828
1, 60720, Note_on_c, 0, 49, 35
1, 60810, Note_on_c, 0, 49, 0
1, 60840, Note_on_c, 0, 66, 0
1, 60960, Note_on_c, 0, 69, 51
1, 60960, Note_on_c, 0, 57, 35
1, 61050, Note_on_c, 0, 57, 0
1, 61200, Tempo, 358209
1, 61200, Note_on_c, 0, 49, 35
1, 61290, Note_on_c, 0, 49, 0
1, 61320, Note_on_c, 0, 69, 0
1, 61440, Tempo, 349854
1, 61440, Note_on_c, 0, 66, 53
1, 61440, Note_on_c, 0, 68, 53
1, 61440, Note_on_c, 0, 48, 42
1, 61530, Note_on_c, 0, 48, 0
1, 61680, Tempo, 343840
1, 61680, Note_on_c, 0, 54, 35
1, 61770, Note_on_c, 0, 54, 0
1, 61920, Note_on_c, 0, 63, 39
1, 62010, Note_on_c, 0, 63, 0
1, 62160, Note_on_c, 0, 54, 35
1, 62250, Note_on_c, 0, 54, 0
1, 62400, Tempo, 351906
1, 62400, Note_on_c, 0, 49, 41
1, 62490, Note_on_c, 0, 49, 0
1, 62640, Tempo, 341880
1, 62640, Note_on_c, 0, 54, 37
1, 62730, Note_on_c, 0, 54, 0
1, 62880, Note_on_c, 0, 64, 42
1, 62970, Note_on_c, 0, 64, 0
1, 63120, Note_on_c, 0, 54, 38
1, 63210, Note_on_c, 0, 54, 0
1, 63360, Tempo, 340909
1, 63360, Note_on_c, 0, 51, 44
1, 63450, Note_on_c, 0, 51, 0
1, 63580, Note_on_c, 0, 68, 0
1, 63600, Tempo, 344828
1, 63600, Note_on_c, 0, 66, 51
1, 63600, Note_on_c, 0, 54, 40
1, 63690, Note_on_c, 0, 54, 0
1, 63840, Tempo, 348837
1, 63840, Note_on_c, 0, 66, 0
1, 63840, Note_on_c, 0, 68, 54
1, 63840, Note_on_c, 0, 60, 43
1, 63930, Note_on_c, 0, 60, 0
1, 64080, Tempo, 357143
1, 64080, Note_on_c, 0, 68, 0
1, 64080, Note_on_c, 0, 69, 56
1, 64080, Note_on_c, 0, 54, 45
1, 64170, Note_on_c, 0, 54, 0
1, 64320, Tempo, 339117
1, 64320, Note_on_c, 0, 69, 0
1, 64320, Note_on_c, 0, 71, 57
1, 64320, Note_on_c, 0, 52, 47
1, 64410, Note_on_c, 0, 52, 0
1, 64560, Note_on_c, 0, 54, 41
1, 64650, Note_on_c, 0, 54, 0
1, 64800, Tempo, 342075
1, 64800, Note_on_c, 0, 61, 41
1, 64890, Note_on_c, 0, 61, 0
1, 65040, Note_on_c, 0, 54, 41
1, 65130, Note_on_c, 0, 54, 0
1, 65280, Tempo, 337192
1, 65280, Note_on_c, 0, 51, 47
1, 65370, Note_on_c, 0, 51, 0
1, 65500, Note_on_c, 0, 71, 0
1, 65520, Tempo, 342857
1, 65520, Note_on_c, 0, 69, 55
1, 65520, Note_on_c, 0, 54, 45
1, 65610, Note_on_c, 0, 54, 0
1, 65760, Tempo, 347826
1, 65760, Note_on_c, 0, 69, 0
1, 65760, Note_on_c, 0, 71, 57
1, 65760, Note_on_c, 0, 60, 45
1, 65850, Note_on_c, 0, 60, 0
1, 66000, Tempo, 341880
1, 66000, Note_on_c, 0, 71, 0
1, 66000, Note_on_c, 0, 69, 55
1, 66000, Note_on_c, 0, 54, 45
1, 66090, Note_on_c, 0, 54, 0
1, 66240, Tempo, 340117
1, 66240, Note_on_c, 0, 69, 0
1, 66240, Note_on_c, 0, 68, 56
1, 66240, Note_on_c, 0, 44, 47
1, 66330, Note_on_c, 0, 44, 0
1, 66480, Note_on_c, 0, 51, 45
1, 66570, Note_on_c, 0, 51, 0
1, 66720, Tempo, 342075
1, 66720, Note_on_c, 0, 60, 45
1, 66810, Note_on_c, 0, 60, 0
1, 66960, Note_on_c, 0, 51, 45
1, 67050, Note_on_c, 0, 51, 0
1, 67200, Note_on_c, 0, 66, 0
1, 67200, Note_on_c, 0, 44, 47
1, 67290, Note_on_c, 0, 44, 0
1, 67420, Note_on_c, 0, 68, 0
1, 67440, Tempo, 348149
1, 67440, Note_on_c, 0, 66, 54
1, 67440, Note_on_c, 0, 50, 44
1, 67530, Note_on_c, 0, 50, 0
1, 67680, Tempo, 357632
1, 67680, Note_on_c, 0, 66, 0
1, 67680, Note_on_c, 0, 64, 56
1, 67680, Note_on_c, 0, 59, 44
1, 67770, Note_on_c, 0, 59, 0
1, 67920, Tempo, 373459
1, 67920, Note_on_c, 0, 64, 0
1, 67920, Note_on_c, 0, 62, 58
1, 67920, Note_on_c, 0, 50, 44
1, 68010, Note_on_c, 0, 50, 0
1, 68160, Tempo, 359281
1, 68160, Note_on_c, 0, 62, 0
1, 68160, Note_on_c, 0, 61, 60
1, 68160, Note_on_c, 0, 40, 47
1, 68400, Tempo, 350877
1, 68400, Note_on_c, 0, 40, 0
1, 68400, Note_on_c, 0, 50, 41
1, 68640, Tempo, 347826
1, 68640, Note_on_c, 0, 50, 0
1, 68640, Note_on_c, 0, 52, 41
1, 68880, Tempo, 350877
1, 68880, Note_on_c, 0, 52, 0
1, 68880, Note_on_c, 0, 56, 41
1, 69116, Note_on_c, 0, 61, 0
1, 69120, Tempo, 348837
1, 69120, Note_on_c, 0, 56, 0
1, 69120, Control_c, 0, 64, 127
1, 69120, Note_on_c, 0, 61, 45
1, 69360, Tempo, 344828
1, 69360, Note_on_c, 0, 56, 41
1, 69600, Note_on_c, 0, 56, 0
1, 69600, Note_on_c, 0, 50, 38
1, 69840, Tempo, 358209
1, 69840, Note_on_c, 0, 50, 0
1, 69840, Note_on_c, 0, 40, 36
1, 70080, Tempo, 350877
1, 70080, Note_on_c, 0, 40, 0
1, 70080, Note_on_c, 0, 37, 40
1, 70089, Control_c, 0, 64, 0
1, 70206, Control_c, 0, 64, 127
1, 70320, Tempo, 343840
1, 70320, Note_on_c, 0, 37, 0
1, 70320, Note_on_c, 0, 44, 37
1, 70560, Note_on_c, 0, 44, 0
1, 70560, Note_on_c, 0, 53, 38
1, 70800, Tempo, 348837
1, 70800, Note_on_c, 0, 53, 0
1, 70800, Note_on_c, 0, 59, 38
1, 71037, Note_on_c, 0, 61, 0
1, 71040, Tempo, 346821
1, 71040, Note_on_c, 0, 59, 0
1, 71040, Note_on_c, 0, 61, 41
1, 71048, Control_c, 0, 64, 0
1, 71280, Tempo, 343840
1, 71280, Note_on_c, 0, 61, 0
1, 71280, Note_on_c, 0, 59, 41
1, 71394, Control_c, 0, 64, 127
1, 71520, Note_on_c, 0, 59, 0
1, 71520, Note_on_c, 0, 53, 39
1, 71760, Tempo, 351906
1, 71760, Note_on_c, 0, 53, 0
1, 71760, Note_on_c, 0, 44, 39
1, 72000, Tempo, 356083
1, 72000, Note_on_c, 0, 44, 0
1, 72000, Note_on_c, 0, 73, 37
1, 72005, Control_c, 0, 64, 0
1, 72240, Note_on_c, 0, 73, 0
1, 72240, Note_on_c, 0, 71, 37
1, 72434, Control_c, 0, 64, 127
1, 72480, Note_on_c, 0, 71, 0
1, 72480, Note_on_c, 0, 65, 35
1, 72720, Tempo, 369231
1, 72720, Note_on_c, 0, 65, 0
1, 72720, Note_on_c, 0, 56, 33
1, 72960, Tempo, 369231
1, 72960, Note_on_c, 0, 56, 0
1, 72960, Note_on_c, 0, 78, 48
1, 72967, Control_c, 0, 64, 0
1, 73086, Control_c, 0, 64, 127
1, 73200, Note_on_c, 0, 54, 31
1, 73440, Tempo, 361882
1, 73440, Note_on_c, 0, 54, 0
1, 73440, Note_on_c, 0, 78, 0
1, 73440, Note_on_c, 0, 85, 48
1, 73440, Note_on_c, 0, 61, 31
1, 73680, Note_on_c, 0, 61, 0
1, 73680, Note_on_c, 0, 69, 31
1, 73920, Tempo, 365119
1, 73920, Note_on_c, 0, 69, 0
1, 73920, Note_on_c, 0, 85, 0
1, 73920, Note_on_c, 0, 78, 40
1, 73920, Note_on_c, 0, 81, 40
1, 73920, Note_on_c, 0, 84, 50
1, 73936, Control_c, 0, 64, 0
1, 74069, Control_c, 0, 64, 127
1, 74160, Tempo, 351514
1, 74160, Note_on_c, 0, 57, 30
1, 74400, Note_on_c, 0, 57, 0
1, 74400, Note_on_c, 0, 62, 30
1, 74400, Note_on_c, 0, 66, 30
1, 74640, Tempo, 363636
1, 74640, Note_on_c, 0, 66, 0
1, 74640, Note_on_c, 0, 62, 0
1, 74640, Note_on_c, 0, 72, 30
1, 74880, Tempo, 360360
1, 74880, Note_on_c, 0, 72, 0
1, 74880, Note_on_c, 0, 78, 0
1, 74880, Note_on_c, 0, 81, 0
1, 74880, Note_on_c, 0, 84, 0
1, 74880, Note_on_c, 0, 85, 55
1, 74891, Control_c, 0, 64, 0
1, 75006, Control_c, 0, 64, 127
1, 75120, Note_on_c, 0, 61, 31
1, 75360, Tempo, 361882
1, 75360, Note_on_c, 0, 61, 0
1, 75360, Note_on_c, 0, 85, 0
1, 75360, Note_on_c, 0, 78, 40
1, 75360, Note_on_c, 0, 81, 40
1, 75360, Note_on_c, 0, 88, 55
1, 75360, Note_on_c, 0, 66, 31
1, 75600, Note_on_c, 0, 66, 0
1, 75600, Note_on_c, 0, 76, 31
1, 75840, Tempo, 369231
1, 75840, Note_on_c, 0, 76, 0
1, 75840, Note_on_c, 0, 88, 0
1, 75840, Note_on_c, 0, 81, 0
1, 75840, Note_on_c, 0, 78, 0
1, 75840, Note_on_c, 0, 87, 57
1, 75853, Control_c, 0, 64, 0
1, 75909, Control_c, 0, 64, 127
1, 76080, Tempo, 360360
1, 76080, Note_on_c, 0, 59, 26
1, 76160, Note_on_c, 0, 87, 0
1, 76160, Note_on_c, 0, 83, 52
1, 76160, Note_on_c, 0, 78, 40
1, 76320, Note_on_c, 0, 59, 0
1, 76320, Note_on_c, 0, 66, 23
1, 76480, Note_on_c, 0, 78, 0
1, 76480, Note_on_c, 0, 83, 0
1, 76480, Note_on_c, 0, 81, 51
1, 76560, Tempo, 365854
1, 76560, Note_on_c, 0, 66, 0
1, 76560, Note_on_c, 0, 75, 24
1, 76800, Tempo, 366972
1, 76800, Note_on_c, 0, 75, 0
1, 76800, Note_on_c, 0, 81, 0
1, 76800, Note_on_c, 0, 78, 48
1, 76804, Control_c, 0, 64, 0
1, 76926, Control_c, 0, 64, 127
1, 77040, Note_on_c, 0, 54, 31
1, 77280, Tempo, 358209
1, 77280, Note_on_c, 0, 54, 0
1, 77280, Note_on_c, 0, 78, 0
1, 77280, Note_on_c, 0, 85, 48
1, 77280, Note_on_c, 0, 61, 31
1, 77520, Note_on_c, 0, 61, 0
1, 77520, Note_on_c, 0, 69, 31
1, 77760, Tempo, 365119
1, 77760, Note_on_c, 0, 69, 0
1, 77760, Note_on_c, 0, 85, 0
1, 77760, Note_on_c, 0, 84, 50
1, 77760, Note_on_c, 0, 81, 40
1, 77760, Note_on_c, 0, 78, 40
1, 77778, Control_c, 0, 64, 0
1, 77886, Control_c, 0, 64, 127
1, 78000, Tempo, 353982
1, 78000, Note_on_c, 0, 57, 30
1, 78240, Note_on_c, 0, 57, 0
1, 78240, Note_on_c, 0, 62, 30
1, 78240, Note_on_c, 0, 66, 30
1, 78480, Tempo, 363636
1, 78480, Note_on_c, 0, 66, 0
1, 78480, Note_on_c, 0, 62, 0
1, 78480, Note_on_c, 0, 72, 30
1, 78720, Tempo, 360360
1, 78720, Note_on_c, 0, 72, 0
1, 78720, Note_on_c, 0, 84, 0
1, 78720, Note_on_c, 0, 81, 0
1, 78720, Note_on_c, 0, 78, 0
1, 78720, Note_on_c, 0, 85, 55
1, 78725, Control_c, 0, 64, 0
1, 78835, Control_c, 0, 64, 127
1, 78960, Note_on_c, 0, 61, 31
1, 79200, Tempo, 361882
1, 79200, Note_on_c, 0, 61, 0
1, 79200, Note_on_c, 0, 85, 0
1, 79200, Note_on_c, 0, 88, 55
1, 79200, Note_on_c, 0, 81, 35
1, 79200, Note_on_c, 0, 78, 35
1, 79200, Note_on_c, 0, 66, 31
1, 79440, Note_on_c, 0, 66, 0
1, 79440, Note_on_c, 0, 76, 31
1, 79680, Tempo, 369231
1, 79680, Note_on_c, 0, 76, 0
1, 79680, Note_on_c, 0, 78, 0
1, 79680, Note_on_c, 0, 81, 0
1, 79680, Note_on_c, 0, 88, 0
1, 79680, Note_on_c, 0, 87, 57
1, 79692, Control_c, 0, 64, 0
1, 79840, Control_c, 0, 64, 127
1, 79920, Tempo, 362538
1, 79920, Note_on_c, 0, 59, 26
1, 80000, Note_on_c, 0, 87, 0
1, 80000, Note_on_c, 0, 78, 40
1, 80000, Note_on_c, 0, 83, 52
1, 80160, Note_on_c, 0, 59, 0
1, 80160, Note_on_c, 0, 66, 23
1, 80320, Note_on_c, 0, 83, 0
1, 80320, Note_on_c, 0, 78, 0
1, 80320, Note_on_c, 0, 87, 51
1, 80400, Tempo, 369231
1, 80400, Note_on_c, 0, 66, 0
1, 80400, Note_on_c, 0, 75, 23
1, 80640, Tempo, 364742
1, 80640, Note_on_c, 0, 75, 0
1, 80640, Note_on_c, 0, 87, 0
1, 80640, Note_on_c, 0, 73, 46
1, 80650, Control_c, 0, 64, 0
1, 80789, Control_c, 0, 64, 127
1, 80880, Note_on_c, 0, 49, 27
1, 81120, Tempo, 369231
1, 81120, Note_on_c, 0, 49, 0
1, 81120, Note_on_c, 0, 73, 0
1, 81120, Note_on_c, 0, 69, 25
1, 81120, Note_on_c, 0, 76, 46
1, 81120, Note_on_c, 0, 66, 25
1, 81120, Note_on_c, 0, 54, 24
1, 81360, Note_on_c, 0, 54, 0
1, 81360, Note_on_c, 0, 64, 24
1, 81600, Tempo, 377358
1, 81600, Note_on_c, 0, 64, 0
1, 81600, Note_on_c, 0, 66, 0
1, 81600, Note_on_c, 0, 76, 0
1, 81600, Note_on_c, 0, 69, 0
1, 81600, Note_on_c, 0, 75, 49
1, 81614, Control_c, 0, 64, 0
1, 81680, Control_c, 0, 64, 127
1, 81840, Tempo, 373832
1, 81840, Note_on_c, 0, 47, 27
1, 81920, Note_on_c, 0, 75, 0
1, 81920, Note_on_c, 0, 66, 25
1, 81920, Note_on_c, 0, 69, 25
1, 81920, Note_on_c, 0, 71, 45
1, 82080, Note_on_c, 0, 47, 0
1, 82080, Note_on_c, 0, 54, 28
1, 82240, Note_on_c, 0, 66, 0
1, 82240, Note_on_c, 0, 71, 0
1, 82240, Note_on_c, 0, 69, 0
1, 82240, Note_on_c, 0, 75, 44
1, 82320, Tempo, 394737
1, 82320, Note_on_c, 0, 54, 0
1, 82320, Note_on_c, 0, 63, 27
1, 82560, Tempo, 369231
1, 82560, Note_on_c, 0, 63, 0
1, 82560, Note_on_c, 0, 75, 0
1, 82560, Note_on_c, 0, 66, 46
1, 82560, Note_on_c, 0, 63, 46
1, 82560, Note_on_c, 0, 73, 46
1, 82560, Control_c, 0, 64, 0
1, 82800, Tempo, 363636
1, 82800, Note_on_c, 0, 45, 36
1, 83040, Note_on_c, 0, 45, 0
1, 83040, Note_on_c, 0, 54, 36
1, 83280, Note_on_c, 0, 54, 0
1, 83280, Note_on_c, 0, 61, 36
1, 83520, Tempo, 359281
1, 83520, Note_on_c, 0, 61, 0
1, 83520, Note_on_c, 0, 66, 0
1, 83520, Note_on_c, 0, 63, 0
1, 83520, Note_on_c, 0, 73, 0
1, 83520, Note_on_c, 0, 64, 46
1, 83520, Note_on_c, 0, 71, 46
1, 83520, Note_on_c, 0, 68, 46
1, 83633, Control_c, 0, 64, 127
1, 83760, Note_on_c, 0, 44, 36
1, 84000, Tempo, 364742
1, 84000, Note_on_c, 0, 44, 0
1, 84000, Note_on_c, 0, 64, 0
1, 84000, Note_on_c, 0, 71, 0
1, 84000, Note_on_c, 0, 68, 0
1, 84000, Note_on_c, 0, 64, 45
1, 84000, Note_on_c, 0, 59, 45
1, 84000, Note_on_c, 0, 68, 45
1, 84000, Note_on_c, 0, 52, 36
1, 84240, Note_on_c, 0, 52, 0
1, 84240, Note_on_c, 0, 44, 36
1, 84480, Note_on_c, 0, 44, 0
1, 84480, Note_on_c, 0, 68, 0
1, 84480, Note_on_c, 0, 59, 0
1, 84480, Note_on_c, 0, 64, 0
1, 84480, Note_on_c, 0, 61, 45
1, 84480, Note_on_c, 0, 64, 45
1, 84480, Note_on_c, 0, 57, 45
1, 84480, Control_c, 0, 64, 0
1, 84720, Note_on_c, 0, 42, 35
1, 84800, Note_on_c, 0, 64, 0
1, 84800, Note_on_c, 0, 66, 44
1, 84960, Note_on_c, 0, 42, 0
1, 84960, Note_on_c, 0, 49, 35
1, 85120, Note_on_c, 0, 66, 0
1, 85120, Note_on_c, 0, 68, 44
1, 85200, Tempo, 372671
1, 85200, Note_on_c, 0, 49, 0
1, 85200, Note_on_c, 0, 42, 35
1, 85440, Tempo, 376176
1, 85440, Note_on_c, 0, 42, 0
1, 85440, Note_on_c, 0, 68, 0
1, 85440, Note_on_c, 0, 57, 0
1, 85440, Note_on_c, 0, 61, 0
1, 85440, Note_on_c, 0, 57, 44
1, 85440, Note_on_c, 0, 64, 44
1, 85440, Note_on_c, 0, 66, 44
1, 85680, Note_on_c, 0, 35, 33
1, 85920, Note_on_c, 0, 35, 0
1, 85920, Note_on_c, 0, 64, 0
1, 85920, Note_on_c, 0, 63, 43
1, 85920, Note_on_c, 0, 47, 33
1, 85991, Control_c, 0, 64, 127
1, 86160, Tempo, 388350
1, 86160, Note_on_c, 0, 47, 0
1, 86160, Note_on_c, 0, 35, 33
1, 86400, Tempo, 362538
1, 86400, Note_on_c, 0, 35, 0
1, 86400, Note_on_c, 0, 63, 0
1, 86400, Note_on_c, 0, 66, 0
1, 86400, Note_on_c, 0, 57, 0
1, 86400, Note_on_c, 0, 64, 44
1, 86400, Note_on_c, 0, 61, 44
1, 86400, Note_on_c, 0, 68, 44
1, 86400, Control_c, 0, 64, 0
1, 86400, Note_on_c, 0, 40, 35
1, 86527, Control_c, 0, 64, 127
1, 86640, Note_on_c, 0, 40, 0
1, 86640, Note_on_c, 0, 47, 34
1, 86720, Tempo, 361446
1, 86880, Note_on_c, 0, 47, 0
1, 86880, Note_on_c, 0, 61, 0
1, 86880, Note_on_c, 0, 59, 40
1, 86880, Note_on_c, 0, 52, 34
1, 86894, Control_c, 0, 64, 0
1, 87000, Tempo, 360360
1, 87064, Control_c, 0, 64, 127
1, 87120, Note_on_c, 0, 52, 0
1, 87120, Note_on_c, 0, 56, 34
1, 87280, Tempo, 359281
1, 87360, Note_on_c, 0, 56, 0
1, 87360, Note_on_c, 0, 59, 0
1, 87360, Note_on_c, 0, 59, 37
1, 87560, Tempo, 358209
1, 87600, Note_on_c, 0, 59, 0
1, 87600, Note_on_c, 0, 64, 35
1, 87840, Tempo, 357143
1, 87840, Note_on_c, 0, 64, 0
1, 87840, Note_on_c, 0, 68, 39
1, 88080, Tempo, 363636
1, 88080, Note_on_c, 0, 68, 0
1, 88080, Note_on_c, 0, 71, 40
1, 88320, Tempo, 356379
1, 88320, Note_on_c, 0, 71, 0
1, 88320, Note_on_c, 0, 68, 0
1, 88320, Note_on_c, 0, 64, 0
1, 88320, Note_on_c, 0, 73, 46
1, 88320, Note_on_c, 0, 70, 32
1, 88320, Note_on_c, 0, 67, 32
1, 88320, Control_c, 0, 64, 0
1, 88537, Control_c, 0, 64, 127
1, 88560, Note_on_c, 0, 55, 36
1, 88800, Tempo, 360772
1, 88800, Note_on_c, 0, 55, 0
1, 88800, Note_on_c, 0, 73, 0
1, 88800, Note_on_c, 0, 76, 46
1, 88800, Note_on_c, 0, 61, 36
1, 89040, Note_on_c, 0, 61, 0
1, 89040, Note_on_c, 0, 64, 36
1, 89160, Control_c, 0, 64, 0
1, 89280, Tempo, 366972
1, 89280, Note_on_c, 0, 64, 0
1, 89280, Note_on_c, 0, 76, 0
1, 89280, Note_on_c, 0, 67, 0
1, 89280, Note_on_c, 0, 70, 0
1, 89280, Note_on_c, 0, 68, 34
1, 89280, Note_on_c, 0, 75, 49
1, 89280, Note_on_c, 0, 71, 34
1, 89429, Control_c, 0, 64, 127
1, 89520, Tempo, 359281
1, 89520, Note_on_c, 0, 56, 32
1, 89600, Note_on_c, 0, 75, 0
1, 89600, Note_on_c, 0, 71, 45
1, 89760, Note_on_c, 0, 56, 0
1, 89760, Note_on_c, 0, 59, 28
1, 89920, Note_on_c, 0, 71, 0
1, 89920, Note_on_c, 0, 75, 44
1, 90000, Tempo, 376176
1, 90000, Note_on_c, 0, 59, 0
1, 90000, Note_on_c, 0, 63, 28
1, 90240, Tempo, 366972
1, 90240, Note_on_c, 0, 63, 0
1, 90240, Note_on_c, 0, 75, 0
1, 90240, Note_on_c, 0, 71, 0
1, 90240, Note_on_c, 0, 68, 0
1, 90240, Note_on_c, 0, 68, 47
1, 90240, Note_on_c, 0, 64, 47
1, 90240, Note_on_c, 0, 73, 47
1, 90240, Control_c, 0, 64, 0
1, 90281, Tempo, 369231
1, 90423, Control_c, 0, 64, 127
1, 90480, Tempo, 363636
1, 90480, Note_on_c, 0, 49, 36
1, 90720, Note_on_c, 0, 49, 0
1, 90720, Note_on_c, 0, 56, 36
1, 90960, Note_on_c, 0, 56, 0
1, 90960, Note_on_c, 0, 61, 36
1, 91200, Tempo, 358209
1, 91200, Note_on_c, 0, 61, 0
1, 91200, Note_on_c, 0, 68, 0
1, 91200, Note_on_c, 0, 64, 0
1, 91200, Note_on_c, 0, 73, 0
1, 91200, Note_on_c, 0, 63, 47
1, 91200, Note_on_c, 0, 71, 47
1, 91200, Note_on_c, 0, 68, 47
1, 91216, Control_c, 0, 64, 0
1, 91326, Control_c, 0, 64, 127
1, 91440, Note_on_c, 0, 44, 36
1, 91680, Tempo, 364742
1, 91680, Note_on_c, 0, 44, 0
1, 91680, Note_on_c, 0, 63, 0
1, 91680, Note_on_c, 0, 71, 0
1, 91680, Note_on_c, 0, 68, 0
1, 91680, Note_on_c, 0, 63, 45
1, 91680, Note_on_c, 0, 59, 45
1, 91680, Note_on_c, 0, 68, 45
1, 91680, Note_on_c, 0, 51, 36
1, 91920, Note_on_c, 0, 51, 0
1, 91920, Note_on_c, 0, 56, 36
1, 92160, Note_on_c, 0, 56, 0
1, 92160, Note_on_c, 0, 68, 0
1, 92160, Note_on_c, 0, 59, 0
1, 92160, Note_on_c, 0, 63, 0
1, 92160, Note_on_c, 0, 61, 45
1, 92160, Note_on_c, 0, 64, 45
1, 92160, Note_on_c, 0, 58, 45
1, 92160, Control_c, 0, 64, 0
1, 92400, Note_on_c, 0, 42, 35
1, 92480, Note_on_c, 0, 64, 0
1, 92480, Note_on_c, 0, 66, 44
1, 92640, Note_on_c, 0, 42, 0
1, 92640, Note_on_c, 0, 49, 35
1, 92800, Note_on_c, 0, 66, 0
1, 92800, Note_on_c, 0, 68, 45
1, 92880, Tempo, 366972
1, 92880, Note_on_c, 0, 49, 0
1, 92880, Note_on_c, 0, 42, 35
1, 93120, Tempo, 368098
1, 93120, Note_on_c, 0, 42, 0
1, 93120, Note_on_c, 0, 68, 0
1, 93120, Note_on_c, 0, 58, 0
1, 93120, Note_on_c, 0, 61, 0
1, 93120, Note_on_c, 0, 66, 46
1, 93120, Note_on_c, 0, 63, 46
1, 93120, Note_on_c, 0, 70, 46
1, 93360, Note_on_c, 0, 40, 36
1, 93600, Tempo, 371517
1, 93600, Note_on_c, 0, 40, 0
1, 93600, Note_on_c, 0, 63, 0
1, 93600, Note_on_c, 0, 61, 43
1, 93600, Note_on_c, 0, 49, 36
1, 93699, Control_c, 0, 64, 127
1, 93840, Note_on_c, 0, 49, 0
1, 93840, Note_on_c, 0, 40, 36
1, 94080, Tempo, 369231
1, 94080, Note_on_c, 0, 40, 0
1, 94080, Note_on_c, 0, 39, 40
1, 94115, Control_c, 0, 64, 0
1, 94240, Control_c, 0, 64, 127
1, 94320, Note_on_c, 0, 39, 0
1, 94320, Note_on_c, 0, 47, 36
1, 94560, Tempo, 371517
1, 94560, Note_on_c, 0, 47, 0
1, 94560, Note_on_c, 0, 61, 0
1, 94560, Note_on_c, 0, 70, 0
1, 94560, Note_on_c, 0, 66, 0
1, 94560, Note_on_c, 0, 66, 47
1, 94560, Note_on_c, 0, 71, 47
1, 94560, Note_on_c, 0, 59, 47
1, 94560, Note_on_c, 0, 51, 36
1, 94577, Control_c, 0, 64, 0
1, 94709, Control_c, 0, 64, 127
1, 94800, Note_on_c, 0, 51, 0
1, 94800, Note_on_c, 0, 54, 36
1, 95040, Tempo, 378549
1, 95040, Note_on_c, 0, 54, 0
1, 95040, Note_on_c, 0, 59, 0
1, 95040, Note_on_c, 0, 71, 0
1, 95040, Note_on_c, 0, 66, 0
1, 95040, Note_on_c, 0, 66, 50
1, 95040, Note_on_c, 0, 75, 50
1, 95040, Note_on_c, 0, 71, 50
1, 95040, Note_on_c, 0, 59, 42
1, 95280, Note_on_c, 0, 59, 0
1, 95280, Note_on_c, 0, 63, 38
1, 95520, Tempo, 389610
1, 95520, Note_on_c, 0, 63, 0
1, 95520, Note_on_c, 0, 71, 0
1, 95520, Note_on_c, 0, 75, 0
1, 95520, Note_on_c, 0, 66, 0
1, 95520, Note_on_c, 0, 71, 54
1, 95520, Note_on_c, 0, 75, 54
1, 95520, Note_on_c, 0, 78, 54
1, 95520, Note_on_c, 0, 66, 43
1, 95760, Note_on_c, 0, 66, 0
1, 95760, Note_on_c, 0, 71, 46
1, 96000, Tempo, 364742
1, 96000, Note_on_c, 0, 71, 0
1, 96000, Note_on_c, 0, 78, 0
1, 96000, Note_on_c, 0, 75, 0
1, 96000, Note_on_c, 0, 71, 0
1, 96000, Note_on_c, 0, 76, 47
1, 96000, Note_on_c, 0, 80, 47
1, 96000, Note_on_c, 0, 75, 51
1, 96000, Control_c, 0, 64, 0
1, 96240, Note_on_c, 0, 61, 38
1, 96480, Tempo, 369231
1, 96480, Note_on_c, 0, 61, 0
1, 96480, Note_on_c, 0, 75, 0
1, 96480, Note_on_c, 0, 73, 36
1, 96480, Note_on_c, 0, 64, 33
1, 96720, Note_on_c, 0, 64, 0
1, 96720, Note_on_c, 0, 68, 33
1, 96960, Tempo, 352941
1, 96960, Note_on_c, 0, 68, 0
1, 96960, Note_on_c, 0, 73, 0
1, 96960, Note_on_c, 0, 75, 42
1, 97200, Note_on_c, 0, 59, 37
1, 97440, Tempo, 349854
1, 97440, Note_on_c, 0, 59, 0
1, 97440, Note_on_c, 0, 75, 0
1, 97440, Note_on_c, 0, 73, 37
1, 97440, Note_on_c, 0, 64, 32
1, 97680, Note_on_c, 0, 64, 0
1, 97680, Note_on_c, 0, 68, 32
1, 97920, Tempo, 345821
1, 97920, Note_on_c, 0, 68, 0
1, 97920, Note_on_c, 0, 73, 0
1, 97920, Note_on_c, 0, 75, 48
1, 98160, Note_on_c, 0, 58, 38
1, 98400, Tempo, 361446
1, 98400, Note_on_c, 0, 58, 0
1, 98400, Note_on_c, 0, 75, 0
1, 98400, Note_on_c, 0, 73, 41
1, 98400, Note_on_c, 0, 64, 34
1, 98640, Note_on_c, 0, 64, 0
1, 98640, Note_on_c, 0, 68, 34
1, 98880, Tempo, 352941
1, 98880, Note_on_c, 0, 68, 0
1, 98880, Note_on_c, 0, 73, 0
1, 98880, Note_on_c, 0, 80, 0
1, 98880, Note_on_c, 0, 76, 0
1, 98880, Note_on_c, 0, 80, 34
1, 98880, Note_on_c, 0, 76, 34
1, 98880, Note_on_c, 0, 83, 57
1, 99120, Tempo, 349854
1, 99120, Note_on_c, 0, 56, 33
1, 99200, Note_on_c, 0, 83, 0
1, 99200, Note_on_c, 0, 87, 53
1, 99360, Note_on_c, 0, 56, 0
1, 99360, Note_on_c, 0, 64, 33
1, 99520, Note_on_c, 0, 87, 0
1, 99520, Note_on_c, 0, 83, 53
1, 99600, Tempo, 383387
1, 99600, Note_on_c, 0, 64, 0
1, 99600, Note_on_c, 0, 71, 32
1, 99840, Tempo, 364742
1, 99840, Note_on_c, 0, 71, 0
1, 99840, Note_on_c, 0, 83, 0
1, 99840, Note_on_c, 0, 76, 0
1, 99840, Note_on_c, 0, 80, 0
1, 99840, Note_on_c, 0, 80, 45
1, 99840, Note_on_c, 0, 75, 49
1, 99840, Note_on_c, 0, 76, 45
1, 100080, Note_on_c, 0, 61, 37
1, 100320, Tempo, 369231
1, 100320, Note_on_c, 0, 61, 0
1, 100320, Note_on_c, 0, 75, 0
1, 100320, Note_on_c, 0, 73, 36
1, 100320, Note_on_c, 0, 64, 33
1, 100560, Note_on_c, 0, 64, 0
1, 100560, Note_on_c, 0, 68, 33
1, 100800, Tempo, 353982
1, 100800, Note_on_c, 0, 68, 0
1, 100800, Note_on_c, 0, 73, 0
1, 100800, Note_on_c, 0, 75, 42
1, 101040, Note_on_c, 0, 59, 36
1, 101280, Tempo, 355030
1, 101280, Note_on_c, 0, 59, 0
1, 101280, Note_on_c, 0, 75, 0
1, 101280, Note_on_c, 0, 73, 37
1, 101280, Note_on_c, 0, 64, 32
1, 101520, Note_on_c, 0, 64, 0
1, 101520, Note_on_c, 0, 68, 32
1, 101760, Tempo, 357143
1, 101760, Note_on_c, 0, 68, 0
1, 101760, Note_on_c, 0, 73, 0
1, 101760, Note_on_c, 0, 75, 48
1, 102000, Note_on_c, 0, 58, 37
1, 102240, Tempo, 361446
1, 102240, Note_on_c, 0, 58, 0
1, 102240, Note_on_c, 0, 75, 0
1, 102240, Note_on_c, 0, 80, 43
1, 102240, Note_on_c, 0, 85, 47
1, 102240, Note_on_c, 0, 76, 43
1, 102240, Note_on_c, 0, 64, 34
1, 102320, Control_c, 0, 64, 127
1, 102480, Note_on_c, 0, 64, 0
1, 102480, Note_on_c, 0, 68, 34
1, 102720, Tempo, 375000
1, 102720, Note_on_c, 0, 68, 0
1, 102720, Note_on_c, 0, 76, 0
1, 102720, Note_on_c, 0, 80, 0
1, 102720, Note_on_c, 0, 80, 0
1, 102720, Note_on_c, 0, 76, 0
1, 102720, Note_on_c, 0, 85, 0
1, 102720, Note_on_c, 0, 73, 40
1, 102720, Note_on_c, 0, 82, 44
1, 102720, Note_on_c, 0, 78, 40
1, 102739, Control_c, 0, 64, 0
1, 102880, Control_c, 0, 64, 127
1, 102960, Note_on_c, 0, 54, 38
1, 103200, Tempo, 387097
1, 103200, Note_on_c, 0, 54, 0
1, 103200, Note_on_c, 0, 73, 0
1, 103200, Note_on_c, 0, 82, 0
1, 103200, Note_on_c, 0, 78, 0
1, 103200, Note_on_c, 0, 76, 39
1, 103200, Note_on_c, 0, 70, 39
1, 103200, Note_on_c, 0, 80, 42
1, 103200, Note_on_c, 0, 61, 33
1, 103205, Control_c, 0, 64, 0
1, 103303, Control_c, 0, 64, 127
1, 103440, Note_on_c, 0, 61, 0
1, 103440, Note_on_c, 0, 66, 33
1, 103680, Tempo, 364742
1, 103680, Note_on_c, 0, 66, 0
1, 103680, Note_on_c, 0, 80, 0
1, 103680, Note_on_c, 0, 70, 0
1, 103680, Note_on_c, 0, 76, 0
1, 103680, Note_on_c, 0, 78, 47
1, 103680, Note_on_c, 0, 73, 46
1, 103680, Note_on_c, 0, 74, 47
1, 103680, Control_c, 0, 64, 0
1, 103920, Note_on_c, 0, 59, 38
1, 104160, Tempo, 369231
1, 104160, Note_on_c, 0, 59, 0
1, 104160, Note_on_c, 0, 73, 0
1, 104160, Note_on_c, 0, 71, 36
1, 104160, Note_on_c, 0, 62, 33
1, 104400, Note_on_c, 0, 62, 0
1, 104400, Note_on_c, 0, 66, 33
1, 104640, Tempo, 353982
1, 104640, Note_on_c, 0, 66, 0
1, 104640, Note_on_c, 0, 71, 0
1, 104640, Note_on_c, 0, 73, 42
1, 104880, Note_on_c, 0, 57, 37
1, 105120, Tempo, 350877
1, 105120, Note_on_c, 0, 57, 0
1, 105120, Note_on_c, 0, 73, 0
1, 105120, Note_on_c, 0, 71, 37
1, 105120, Note_on_c, 0, 62, 32
1, 105360, Note_on_c, 0, 62, 0
1, 105360, Note_on_c, 0, 66, 32
1, 105600, Tempo, 347826
1, 105600, Note_on_c, 0, 66, 0
1, 105600, Note_on_c, 0, 71, 0
1, 105600, Note_on_c, 0, 73, 48
1, 105840, Note_on_c, 0, 56, 38
1, 106080, Tempo, 361446
1, 106080, Note_on_c, 0, 56, 0
1, 106080, Note_on_c, 0, 73, 0
1, 106080, Note_on_c, 0, 71, 41
1, 106080, Note_on_c, 0, 62, 34
1, 106320, Note_on_c, 0, 62, 0
1, 106320, Note_on_c, 0, 66, 34
1, 106560, Tempo, 350877
1, 106560, Note_on_c, 0, 66, 0
1, 106560, Note_on_c, 0, 71, 0
1, 106560, Note_on_c, 0, 74, 0
1, 106560, Note_on_c, 0, 78, 0
1, 106560, Note_on_c, 0, 78, 40
1, 106560, Note_on_c, 0, 74, 40
1, 106560, Note_on_c, 0, 81, 53
1, 106701, Control_c, 0, 64, 127
1, 106800, Tempo, 349854
1, 106800, Note_on_c, 0, 54, 37
1, 106880, Note_on_c, 0, 81, 0
1, 106880, Note_on_c, 0, 85, 51
1, 107040, Note_on_c, 0, 54, 0
1, 107040, Note_on_c, 0, 62, 36
1, 107200, Note_on_c, 0, 85, 0
1, 107200, Note_on_c, 0, 81, 50
1, 107280, Tempo, 385852
1, 107280, Note_on_c, 0, 62, 0
1, 107280, Note_on_c, 0, 69, 34
1, 107520, Tempo, 364742
1, 107520, Note_on_c, 0, 69, 0
1, 107520, Note_on_c, 0, 81, 0
1, 107520, Note_on_c, 0, 74, 0
1, 107520, Note_on_c, 0, 78, 0
1, 107520, Note_on_c, 0, 78, 45
1, 107520, Note_on_c, 0, 73, 46
1, 107520, Note_on_c, 0, 74, 45
1, 107520, Control_c, 0, 64, 0
1, 107760, Note_on_c, 0, 59, 37
1, 108000, Tempo, 369231
1, 108000, Note_on_c, 0, 59, 0
1, 108000, Note_on_c, 0, 73, 0
1, 108000, Note_on_c, 0, 71, 36
1, 108000, Note_on_c, 0, 62, 33
1, 108240, Note_on_c, 0, 62, 0
1, 108240, Note_on_c, 0, 66, 33
1, 108480, Tempo, 355030
1, 108480, Note_on_c, 0, 66, 0
1, 108480, Note_on_c, 0, 71, 0
1, 108480, Note_on_c, 0, 73, 42
1, 108720, Note_on_c, 0, 57, 37
1, 108960, Tempo, 355030
1, 108960, Note_on_c, 0, 57, 0
1, 108960, Note_on_c, 0, 73, 0
1, 108960, Note_on_c, 0, 71, 37
1, 108960, Note_on_c, 0, 62, 32
1, 109200, Note_on_c, 0, 62, 0
1, 109200, Note_on_c, 0, 66, 32
1, 109440, Tempo, 351906
1, 109440, Note_on_c, 0, 66, 0
1, 109440, Note_on_c, 0, 71, 0
1, 109440, Note_on_c, 0, 73, 48
1, 109680, Note_on_c, 0, 56, 39
1, 109920, Tempo, 361446
1, 109920, Note_on_c, 0, 56, 0
1, 109920, Note_on_c, 0, 73, 0
1, 109920, Note_on_c, 0, 78, 51
1, 109920, Note_on_c, 0, 83, 56
1, 109920, Note_on_c, 0, 74, 51
1, 109920, Note_on_c, 0, 62, 40
1, 109991, Control_c, 0, 64, 127
1, 110160, Note_on_c, 0, 62, 0
1, 110160, Note_on_c, 0, 66, 40
1, 110400, Tempo, 375000
1, 110400, Note_on_c, 0, 66, 0
1, 110400, Note_on_c, 0, 74, 0
1, 110400, Note_on_c, 0, 78, 0
1, 110400, Note_on_c, 0, 78, 0
1, 110400, Note_on_c, 0, 74, 0
1, 110400, Note_on_c, 0, 83, 0
1, 110400, Note_on_c, 0, 71, 48
1, 110400, Note_on_c, 0, 80, 52
1, 110400, Note_on_c, 0, 76, 48
1, 110417, Control_c, 0, 64, 0
1, 110556, Control_c, 0, 64, 127
1, 110640, Note_on_c, 0, 52, 45
1, 110880, Tempo, 396040
1, 110880, Note_on_c, 0, 52, 0
1, 110880, Note_on_c, 0, 71, 0
1, 110880, Note_on_c, 0, 80, 0
1, 110880, Note_on_c, 0, 76, 0
1, 110880, Note_on_c, 0, 74, 46
1, 110880, Note_on_c, 0, 68, 46
1, 110880, Note_on_c, 0, 78, 50
1, 110880, Note_on_c, 0, 59, 39
1, 110893, Control_c, 0, 64, 0
1, 111050, Control_c, 0, 64, 127
1, 111120, Note_on_c, 0, 59, 0
1, 111120, Note_on_c, 0, 52, 39
1, 111360, Tempo, 357824
1, 111360, Note_on_c, 0, 52, 0
1, 111360, Note_on_c, 0, 78, 0
1, 111360, Note_on_c, 0, 68, 0
1, 111360, Note_on_c, 0, 74, 0
1, 111360, Note_on_c, 0, 76, 63
1, 111360, Note_on_c, 0, 69, 58
1, 111360, Note_on_c, 0, 73, 58
1, 111360, Control_c, 0, 64, 0
1, 111360, Note_on_c, 0, 45, 55
1, 111400, Tempo, 347745
1, 111450, Note_on_c, 0, 45, 0
1, 111600, Note_on_c, 0, 52, 51
1, 111690, Note_on_c, 0, 52, 0
1, 111840, Tempo, 341511
1, 111840, Note_on_c, 0, 73, 0
1, 111840, Note_on_c, 0, 69, 0
1, 111840, Note_on_c, 0, 76, 0
1, 111840, Note_on_c, 0, 69, 56
1, 111840, Note_on_c, 0, 64, 56
1, 111840, Note_on_c, 0, 73, 56
1, 111840, Note_on_c, 0, 57, 51
1, 111930, Note_on_c, 0, 57, 0
1, 111930, Note_on_c, 0, 69, 0
1, 111930, Note_on_c, 0, 64, 0
1, 111930, Note_on_c, 0, 73, 0
1, 112080, Note_on_c, 0, 64, 56
1, 112080, Note_on_c, 0, 69, 56
1, 112080, Note_on_c, 0, 73, 56
1, 112080, Note_on_c, 0, 61, 51
1, 112170, Note_on_c, 0, 61, 0
1, 112170, Note_on_c, 0, 64, 0
1, 112170, Note_on_c, 0, 69, 0
1, 112170, Note_on_c, 0, 73, 0
1, 112320, Tempo, 347745
1, 112320, Note_on_c, 0, 69, 56
1, 112320, Note_on_c, 0, 73, 56
1, 112320, Note_on_c, 0, 64, 56
1, 112320, Note_on_c, 0, 61, 55
1, 112410, Note_on_c, 0, 61, 0
1, 112560, Note_on_c, 0, 57, 50
1, 112650, Note_on_c, 0, 57, 0
1, 112680, Note_on_c, 0, 64, 0
1, 112680, Note_on_c, 0, 73, 0
1, 112680, Note_on_c, 0, 69, 0
1, 112800, Tempo, 337591
1, 112800, Note_on_c, 0, 73, 58
1, 112800, Note_on_c, 0, 69, 58
1, 112800, Note_on_c, 0, 76, 58
1, 112800, Note_on_c, 0, 52, 50
1, 112890, Note_on_c, 0, 52, 0
1, 113040, Note_on_c, 0, 45, 50
1, 113130, Note_on_c, 0, 45, 0
1, 113280, Note_on_c, 0, 76, 0
1, 113280, Note_on_c, 0, 69, 0
1, 113280, Note_on_c, 0, 73, 0
1, 113280, Note_on_c, 0, 69, 58
1, 113280, Note_on_c, 0, 78, 58
1, 113280, Note_on_c, 0, 73, 58
1, 113280, Note_on_c, 0, 42, 60
1, 113370, Note_on_c, 0, 42, 0
1, 113520, Note_on_c, 0, 49, 54
1, 113610, Note_on_c, 0, 49, 0
1, 113760, Tempo, 333500
1, 113760, Note_on_c, 0, 73, 0
1, 113760, Note_on_c, 0, 78, 0
1, 113760, Note_on_c, 0, 69, 0
1, 113760, Note_on_c, 0, 73, 54
1, 113760, Note_on_c, 0, 69, 54
1, 113760, Note_on_c, 0, 78, 54
1, 113760, Note_on_c, 0, 54, 56
1, 113850, Note_on_c, 0, 54, 0
1, 113940, Note_on_c, 0, 73, 0
1, 113940, Note_on_c, 0, 69, 0
1, 113940, Note_on_c, 0, 78, 0
1, 114000, Tempo, 339655
1, 114000, Note_on_c, 0, 80, 54
1, 114000, Note_on_c, 0, 71, 54
1, 114000, Note_on_c, 0, 73, 54
1, 114000, Note_on_c, 0, 61, 54
1, 114090, Note_on_c, 0, 61, 0
1, 114180, Note_on_c, 0, 80, 0
1, 114180, Note_on_c, 0, 71, 0
1, 114180, Note_on_c, 0, 73, 0
1, 114240, Tempo, 330651
1, 114240, Note_on_c, 0, 73, 54
1, 114240, Note_on_c, 0, 69, 54
1, 114240, Note_on_c, 0, 78, 54
1, 114240, Note_on_c, 0, 61, 60
1, 114330, Note_on_c, 0, 61, 0
1, 114420, Note_on_c, 0, 73, 0
1, 114420, Note_on_c, 0, 69, 0
1, 114420, Note_on_c, 0, 78, 0
1, 114480, Tempo, 339655
1, 114480, Note_on_c, 0, 71, 54
1, 114480, Note_on_c, 0, 80, 54
1, 114480, Note_on_c, 0, 73, 54
1, 114480, Note_on_c, 0, 54, 55
1, 114570, Note_on_c, 0, 54, 0
1, 114660, Note_on_c, 0, 71, 0
1, 114660, Note_on_c, 0, 80, 0
1, 114660, Note_on_c, 0, 73, 0
1, 114720, Note_on_c, 0, 73, 57
1, 114720, Note_on_c, 0, 69, 57
1, 114720, Note_on_c, 0, 78, 57
1, 114720, Note_on_c, 0, 49, 57
1, 114810, Note_on_c, 0, 49, 0
1, 114960, Note_on_c, 0, 42, 55
1, 115050, Note_on_c, 0, 42, 0
1, 115200, Tempo, 349834
1, 115200, Note_on_c, 0, 78, 0
1, 115200, Note_on_c, 0, 69, 0
1, 115200, Note_on_c, 0, 73, 0
1, 115200, Note_on_c, 0, 76, 62
1, 115200, Note_on_c, 0, 69, 62
1, 115200, Note_on_c, 0, 73, 62
1, 115200, Note_on_c, 0, 45, 55
1, 115240, Tempo, 347745
1, 115290, Note_on_c, 0, 45, 0
1, 115440, Note_on_c, 0, 52, 51
1, 115530, Note_on_c, 0, 52, 0
1, 115680, Tempo, 341511
1, 115680, Note_on_c, 0, 73, 0
1, 115680, Note_on_c, 0, 69, 0
1, 115680, Note_on_c, 0, 76, 0
1, 115680, Note_on_c, 0, 69, 56
1, 115680, Note_on_c, 0, 68, 56
1, 115680, Note_on_c, 0, 73, 56
1, 115680, Note_on_c, 0, 57, 51
1, 115770, Note_on_c, 0, 57, 0
1, 115770, Note_on_c, 0, 69, 0
1, 115770, Note_on_c, 0, 68, 0
1, 115770, Note_on_c, 0, 73, 0
1, 115920, Note_on_c, 0, 68, 56
1, 115920, Note_on_c, 0, 69, 56
1, 115920, Note_on_c, 0, 73, 56
1, 115920, Note_on_c, 0, 61, 51
1, 116010, Note_on_c, 0, 61, 0
1, 116010, Note_on_c, 0, 68, 0
1, 116010, Note_on_c, 0, 69, 0
1, 116010, Note_on_c, 0, 73, 0
1, 116160, Tempo, 347745
1, 116160, Note_on_c, 0, 69, 56
1, 116160, Note_on_c, 0, 73, 56
1, 116160, Note_on_c, 0, 66, 56
1, 116160, Note_on_c, 0, 61, 57
1, 116250, Note_on_c, 0, 61, 0
1, 116400, Note_on_c, 0, 57, 52
1, 116490, Note_on_c, 0, 57, 0
1, 116520, Note_on_c, 0, 66, 0
1, 116520, Note_on_c, 0, 73, 0
1, 116520, Note_on_c, 0, 69, 0
1, 116640, Tempo, 350898
1, 116640, Note_on_c, 0, 66, 61
1, 116640, Note_on_c, 0, 64, 61
1, 116640, Note_on_c, 0, 69, 61
1, 116640, Note_on_c, 0, 52, 57
1, 116730, Note_on_c, 0, 52, 0
1, 116880, Note_on_c, 0, 45, 54
1, 116970, Note_on_c, 0, 45, 0
1, 117120, Tempo, 337477
1, 117120, Note_on_c, 0, 69, 0
1, 117120, Note_on_c, 0, 64, 0
1, 117120, Note_on_c, 0, 66, 0
1, 117120, Note_on_c, 0, 73, 64
1, 117120, Note_on_c, 0, 66, 64
1, 117120, Note_on_c, 0, 69, 64
1, 117120, Note_on_c, 0, 62, 64
1, 117120, Note_on_c, 0, 38, 60
1, 117210, Note_on_c, 0, 38, 0
1, 117360, Note_on_c, 0, 45, 55
1, 117450, Note_on_c, 0, 45, 0
1, 117600, Tempo, 333500
1, 117600, Note_on_c, 0, 50, 57
1, 117690, Note_on_c, 0, 50, 0
1, 117840, Tempo, 339655
1, 117840, Note_on_c, 0, 54, 55
1, 117930, Note_on_c, 0, 54, 0
1, 118080, Tempo, 330651
1, 118080, Note_on_c, 0, 54, 60
1, 118170, Note_on_c, 0, 54, 0
1, 118320, Tempo, 339655
1, 118320, Note_on_c, 0, 50, 56
1, 118410, Note_on_c, 0, 50, 0
1, 118560, Tempo, 338219
1, 118560, Note_on_c, 0, 45, 58
1, 118650, Note_on_c, 0, 45, 0
1, 118800, Tempo, 398671
1, 118800, Note_on_c, 0, 38, 56
1, 118890, Note_on_c, 0, 38, 0
1, 119040, Tempo, 349834
1, 119040, Note_on_c, 0, 62, 0
1, 119040, Note_on_c, 0, 73, 0
1, 119040, Note_on_c, 0, 66, 0
1, 119040, Note_on_c, 0, 69, 0
1, 119040, Note_on_c, 0, 62, 30
1, 119040, Note_on_c, 0, 71, 30
1, 119040, Note_on_c, 0, 67, 30
1, 119040, Note_on_c, 0, 43, 29
1, 119080, Tempo, 347745
1, 119130, Note_on_c, 0, 43, 0
1, 119280, Note_on_c, 0, 50, 27
1, 119370, Note_on_c, 0, 50, 0
1, 119520, Tempo, 341511
1, 119520, Note_on_c, 0, 67, 0
1, 119520, Note_on_c, 0, 71, 0
1, 119520, Note_on_c, 0, 62, 0
1, 119520, Note_on_c, 0, 67, 29
1, 119520, Note_on_c, 0, 59, 29
1, 119520, Note_on_c, 0, 62, 29
1, 119520, Note_on_c, 0, 55, 27
1, 119610, Note_on_c, 0, 55, 0
1, 119610, Note_on_c, 0, 67, 0
1, 119610, Note_on_c, 0, 59, 0
1, 119610, Note_on_c, 0, 62, 0
1, 119760, Note_on_c, 0, 67, 29
1, 119760, Note_on_c, 0, 59, 29
1, 119760, Note_on_c, 0, 62, 29
1, 119760, Note_on_c, 0, 50, 27
1, 119850, Note_on_c, 0, 50, 0
1, 119850, Note_on_c, 0, 67, 0
1, 119850, Note_on_c, 0, 59, 0
1, 119850, Note_on_c, 0, 62, 0
1, 120000, Tempo, 347745
1, 120000, Note_on_c, 0, 62, 29
1, 120000, Note_on_c, 0, 59, 29
1, 120000, Note_on_c, 0, 67, 29
1, 120000, Note_on_c, 0, 43, 29
1, 120090, Note_on_c, 0, 43, 0
1, 120240, Note_on_c, 0, 62, 0
1, 120240, Note_on_c, 0, 59, 0
1, 120240, Note_on_c, 0, 67, 0
1, 120240, Note_on_c, 0, 50, 26
1, 120330, Note_on_c, 0, 50, 0
1, 120480, Tempo, 337591
1, 120480, Note_on_c, 0, 62, 30
1, 120480, Note_on_c, 0, 71, 30
1, 120480, Note_on_c, 0, 67, 30
1, 120480, Note_on_c, 0, 55, 26
1, 120570, Note_on_c, 0, 55, 0
1, 120720, Note_on_c, 0, 50, 26
1, 120810, Note_on_c, 0, 50, 0
1, 120840, Note_on_c, 0, 67, 0
1, 120840, Note_on_c, 0, 71, 0
1, 120840, Note_on_c, 0, 62, 0
1, 120960, Note_on_c, 0, 65, 30
1, 120960, Note_on_c, 0, 60, 30
1, 120960, Note_on_c, 0, 69, 30
1, 120960, Note_on_c, 0, 38, 29
1, 121050, Note_on_c, 0, 38, 0
1, 121200, Note_on_c, 0, 45, 27
1, 121290, Note_on_c, 0, 45, 0
1, 121440, Tempo, 333500
1, 121440, Note_on_c, 0, 69, 0
1, 121440, Note_on_c, 0, 60, 0
1, 121440, Note_on_c, 0, 65, 0
1, 121440, Note_on_c, 0, 69, 28
1, 121440, Note_on_c, 0, 60, 28
1, 121440, Note_on_c, 0, 65, 28
1, 121440, Note_on_c, 0, 53, 27
1, 121530, Note_on_c, 0, 53, 0
1, 121560, Note_on_c, 0, 69, 0
1, 121560, Note_on_c, 0, 60, 0
1, 121560, Note_on_c, 0, 65, 0
1, 121680, Tempo, 339655
1, 121680, Note_on_c, 0, 71, 28
1, 121680, Note_on_c, 0, 62, 28
1, 121680, Note_on_c, 0, 65, 28
1, 121680, Note_on_c, 0, 45, 27
1, 121770, Note_on_c, 0, 45, 0
1, 121800, Note_on_c, 0, 71, 0
1, 121800, Note_on_c, 0, 62, 0
1, 121800, Note_on_c, 0, 65, 0
1, 121920, Tempo, 330651
1, 121920, Note_on_c, 0, 65, 28
1, 121920, Note_on_c, 0, 69, 28
1, 121920, Note_on_c, 0, 60, 28
1, 121920, Note_on_c, 0, 41, 29
1, 122010, Note_on_c, 0, 41, 0
1, 122040, Note_on_c, 0, 65, 0
1, 122040, Note_on_c, 0, 69, 0
1, 122040, Note_on_c, 0, 60, 0
1, 122160, Tempo, 339655
1, 122160, Note_on_c, 0, 65, 28
1, 122160, Note_on_c, 0, 62, 28
1, 122160, Note_on_c, 0, 71, 28
1, 122160, Note_on_c, 0, 48, 27
1, 122250, Note_on_c, 0, 48, 0
1, 122280, Note_on_c, 0, 65, 0
1, 122280, Note_on_c, 0, 62, 0
1, 122280, Note_on_c, 0, 71, 0
1, 122400, Note_on_c, 0, 64, 30
1, 122400, Note_on_c, 0, 72, 30
1, 122400, Note_on_c, 0, 65, 30
1, 122400, Note_on_c, 0, 57, 27
1, 122490, Note_on_c, 0, 57, 0
1, 122640, Tempo, 352092
1, 122640, Note_on_c, 0, 64, 0
1, 122640, Note_on_c, 0, 72, 0
1, 122640, Note_on_c, 0, 65, 0
1, 122640, Note_on_c, 0, 48, 27
1, 122730, Note_on_c, 0, 48, 0
1, 122880, Tempo, 349834
1, 122880, Note_on_c, 0, 67, 31
1, 122880, Note_on_c, 0, 62, 31
1, 122880, Note_on_c, 0, 71, 31
1, 122880, Note_on_c, 0, 43, 29
1, 122920, Tempo, 347745
1, 122970, Note_on_c, 0, 43, 0
1, 123120, Note_on_c, 0, 50, 27
1, 123210, Note_on_c, 0, 50, 0
1, 123360, Tempo, 341511
1, 123360, Note_on_c, 0, 71, 0
1, 123360, Note_on_c, 0, 62, 0
1, 123360, Note_on_c, 0, 67, 0
1, 123360, Note_on_c, 0, 67, 28
1, 123360, Note_on_c, 0, 59, 28
1, 123360, Note_on_c, 0, 62, 28
1, 123360, Note_on_c, 0, 55, 27
1, 123450, Note_on_c, 0, 55, 0
1, 123450, Note_on_c, 0, 67, 0
1, 123450, Note_on_c, 0, 59, 0
1, 123450, Note_on_c, 0, 62, 0
1, 123600, Note_on_c, 0, 62, 28
1, 123600, Note_on_c, 0, 59, 28
1, 123600, Note_on_c, 0, 67, 28
1, 123600, Note_on_c, 0, 50, 27
1, 123690, Note_on_c, 0, 50, 0
1, 123690, Note_on_c, 0, 62, 0
1, 123690, Note_on_c, 0, 59, 0
1, 123690, Note_on_c, 0, 67, 0
1, 123840, Tempo, 347745
1, 123840, Note_on_c, 0, 59, 29
1, 123840, Note_on_c, 0, 67, 29
1, 123840, Note_on_c, 0, 62, 29
1, 123840, Note_on_c, 0, 41, 30
1, 123930, Note_on_c, 0, 41, 0
1, 124080, Note_on_c, 0, 50, 28
1, 124170, Note_on_c, 0, 50, 0
1, 124200, Note_on_c, 0, 62, 0
1, 124200, Note_on_c, 0, 67, 0
1, 124200, Note_on_c, 0, 59, 0
1, 124320, Tempo, 350898
1, 124320, Note_on_c, 0, 67, 32
1, 124320, Note_on_c, 0, 62, 32
1, 124320, Note_on_c, 0, 71, 32
1, 124320, Note_on_c, 0, 55, 29
1, 124410, Note_on_c, 0, 55, 0
1, 124560, Note_on_c, 0, 50, 31
1, 124650, Note_on_c, 0, 50, 0
1, 124800, Tempo, 337477
1, 124800, Note_on_c, 0, 71, 0
1, 124800, Note_on_c, 0, 62, 0
1, 124800, Note_on_c, 0, 67, 0
1, 124800, Note_on_c, 0, 64, 35
1, 124800, Note_on_c, 0, 71, 35
1, 124800, Note_on_c, 0, 68, 35
1, 124800, Note_on_c, 0, 40, 35
1, 124860, Control_c, 0, 64, 127
1, 125040, Note_on_c, 0, 40, 0
1, 125040, Note_on_c, 0, 47, 39
1, 125280, Tempo, 333500
1, 125280, Note_on_c, 0, 47, 0
1, 125280, Note_on_c, 0, 52, 40
1, 125520, Tempo, 339655
1, 125520, Note_on_c, 0, 52, 0
1, 125520, Note_on_c, 0, 56, 41
1, 125700, Note_on_c, 0, 56, 0
1, 125730, Tempo, 342936
1, 125760, Note_on_c, 0, 68, 0
1, 125760, Note_on_c, 0, 71, 0
1, 125760, Note_on_c, 0, 64, 0
1, 125760, Note_on_c, 0, 64, 48
1, 125760, Note_on_c, 0, 52, 46
1, 125810, Tempo, 343938
1, 125890, Tempo, 344927
1, 125970, Tempo, 345941
1, 126000, Note_on_c, 0, 52, 0
1, 126000, Note_on_c, 0, 56, 50
1, 126050, Tempo, 346961
1, 126130, Tempo, 347947
1, 126210, Tempo, 349000
1, 126240, Tempo, 357398
1, 126240, Note_on_c, 0, 56, 0
1, 126240, Note_on_c, 0, 59, 54
1, 126478, Note_on_c, 0, 64, 0
1, 126480, Tempo, 390879
1, 126480, Note_on_c, 0, 59, 0
1, 126480, Note_on_c, 0, 64, 57
1, 126720, Tempo, 357824
1, 126720, Note_on_c, 0, 64, 0
1, 126720, Note_on_c, 0, 76, 63
1, 126720, Note_on_c, 0, 69, 63
1, 126720, Note_on_c, 0, 73, 63
1, 126720, Note_on_c, 0, 57, 60
1, 126741, Control_c, 0, 64, 0
1, 126760, Tempo, 347745
1, 126810, Note_on_c, 0, 57, 0
1, 126960, Note_on_c, 0, 61, 56
1, 127050, Note_on_c, 0, 61, 0
1, 127200, Tempo, 341511
1, 127200, Note_on_c, 0, 73, 0
1, 127200, Note_on_c, 0, 69, 0
1, 127200, Note_on_c, 0, 76, 0
1, 127200, Note_on_c, 0, 69, 61
1, 127200, Note_on_c, 0, 73, 61
1, 127200, Note_on_c, 0, 64, 56
1, 127290, Note_on_c, 0, 64, 0
1, 127290, Note_on_c, 0, 73, 0
1, 127290, Note_on_c, 0, 69, 0
1, 127440, Note_on_c, 0, 73, 61
1, 127440, Note_on_c, 0, 69, 61
1, 127440, Note_on_c, 0, 61, 56
1, 127530, Note_on_c, 0, 61, 0
1, 127530, Note_on_c, 0, 69, 0
1, 127530, Note_on_c, 0, 73, 0
1, 127680, Tempo, 347745
1, 127680, Note_on_c, 0, 69, 61
1, 127680, Note_on_c, 0, 73, 61
1, 127680, Note_on_c, 0, 56, 60
1, 127770, Note_on_c, 0, 56, 0
1, 127920, Note_on_c, 0, 61, 55
1, 128010, Note_on_c, 0, 61, 0
1, 128040, Note_on_c, 0, 73, 0
1, 128040, Note_on_c, 0, 69, 0
1, 128160, Tempo, 337591
1, 128160, Note_on_c, 0, 76, 63
1, 128160, Note_on_c, 0, 69, 63
1, 128160, Note_on_c, 0, 73, 63
1, 128160, Note_on_c, 0, 64, 55
1, 128250, Note_on_c, 0, 64, 0
1, 128400, Note_on_c, 0, 61, 55
1, 128490, Note_on_c, 0, 61, 0
1, 128640, Note_on_c, 0, 73, 0
1, 128640, Note_on_c, 0, 69, 0
1, 128640, Note_on_c, 0, 76, 0
1, 128640, Note_on_c, 0, 73, 63
1, 128640, Note_on_c, 0, 69, 63
1, 128640, Note_on_c, 0, 78, 63
1, 128640, Note_on_c, 0, 54, 66
1, 128730, Note_on_c, 0, 54, 0
1, 128880, Note_on_c, 0, 61, 58
1, 128970, Note_on_c, 0, 61, 0
1, 129120, Tempo, 333296
1, 129120, Note_on_c, 0, 78, 0
1, 129120, Note_on_c, 0, 69, 0
1, 129120, Note_on_c, 0, 73, 0
1, 129120, Note_on_c, 0, 69, 56
1, 129120, Note_on_c, 0, 78, 56
1, 129120, Note_on_c, 0, 73, 56
1, 129120, Note_on_c, 0, 66, 61
1, 129210, Note_on_c, 0, 66, 0
1, 129300, Note_on_c, 0, 69, 0
1, 129300, Note_on_c, 0, 78, 0
1, 129300, Note_on_c, 0, 73, 0
1, 129360, Tempo, 340967
1, 129360, Note_on_c, 0, 73, 56
1, 129360, Note_on_c, 0, 71, 56
1, 129360, Note_on_c, 0, 80, 56
1, 129360, Note_on_c, 0, 61, 58
1, 129450, Note_on_c, 0, 61, 0
1, 129540, Note_on_c, 0, 73, 0
1, 129540, Note_on_c, 0, 71, 0
1, 129540, Note_on_c, 0, 80, 0
1, 129600, Tempo, 333296
1, 129600, Note_on_c, 0, 78, 58
1, 129600, Note_on_c, 0, 69, 58
1, 129600, Note_on_c, 0, 74, 58
1, 129600, Note_on_c, 0, 54, 66
1, 129690, Note_on_c, 0, 54, 0
1, 129780, Note_on_c, 0, 78, 0
1, 129780, Note_on_c, 0, 69, 0
1, 129780, Note_on_c, 0, 74, 0
1, 129840, Tempo, 340967
1, 129840, Note_on_c, 0, 74, 57
1, 129840, Note_on_c, 0, 69, 57
1, 129840, Note_on_c, 0, 80, 57
1, 129840, Note_on_c, 0, 57, 60
1, 129930, Note_on_c, 0, 57, 0
1, 130020, Note_on_c, 0, 74, 0
1, 130020, Note_on_c, 0, 69, 0
1, 130020, Note_on_c, 0, 80, 0
1, 130080, Tempo, 339041
1, 130080, Note_on_c, 0, 69, 61
1, 130080, Note_on_c, 0, 78, 61
1, 130080, Note_on_c, 0, 74, 61
1, 130080, Note_on_c, 0, 66, 62
1, 130170, Note_on_c, 0, 66, 0
1, 130320, Note_on_c, 0, 57, 60
1, 130410, Note_on_c, 0, 57, 0
1, 130560, Tempo, 349834
1, 130560, Note_on_c, 0, 74, 0
1, 130560, Note_on_c, 0, 78, 0
1, 130560, Note_on_c, 0, 69, 0
1, 130560, Note_on_c, 0, 73, 68
1, 130560, Note_on_c, 0, 69, 68
1, 130560, Note_on_c, 0, 76, 68
1, 130560, Note_on_c, 0, 45, 60
1, 130600, Tempo, 347745
1, 130650, Note_on_c, 0, 45, 0
1, 130800, Note_on_c, 0, 52, 56
1, 130890, Note_on_c, 0, 52, 0
1, 131040, Tempo, 341511
1, 131040, Note_on_c, 0, 76, 0
1, 131040, Note_on_c, 0, 69, 0
1, 131040, Note_on_c, 0, 73, 0
1, 131040, Note_on_c, 0, 73, 61
1, 131040, Note_on_c, 0, 68, 61
1, 131040, Note_on_c, 0, 69, 61
1, 131040, Note_on_c, 0, 61, 56
1, 131130, Note_on_c, 0, 61, 0
1, 131130, Note_on_c, 0, 73, 0
1, 131130, Note_on_c, 0, 68, 0
1, 131130, Note_on_c, 0, 69, 0
1, 131280, Note_on_c, 0, 73, 61
1, 131280, Note_on_c, 0, 69, 61
1, 131280, Note_on_c, 0, 68, 61
1, 131280, Note_on_c, 0, 52, 56
1, 131370, Note_on_c, 0, 52, 0
1, 131370, Note_on_c, 0, 73, 0
1, 131370, Note_on_c, 0, 69, 0
1, 131370, Note_on_c, 0, 68, 0
1, 131520, Tempo, 351062
1, 131520, Note_on_c, 0, 69, 61
1, 131520, Note_on_c, 0, 66, 61
1, 131520, Note_on_c, 0, 73, 61
1, 131520, Note_on_c, 0, 42, 62
1, 131610, Note_on_c, 0, 42, 0
1, 131760, Note_on_c, 0, 49, 57
1, 131850, Note_on_c, 0, 49, 0
1, 131880, Note_on_c, 0, 73, 0
1, 131880, Note_on_c, 0, 66, 0
1, 131880, Note_on_c, 0, 69, 0
1, 132000, Tempo, 355261
1, 132000, Note_on_c, 0, 69, 63
1, 132000, Note_on_c, 0, 64, 63
1, 132000, Note_on_c, 0, 66, 63
1, 132000, Note_on_c, 0, 57, 62
1, 132090, Note_on_c, 0, 57, 0
1, 132240, Note_on_c, 0, 49, 58
1, 132330, Note_on_c, 0, 49, 0
1, 132480, Tempo, 337477
1, 132480, Note_on_c, 0, 66, 0
1, 132480, Note_on_c, 0, 64, 0
1, 132480, Note_on_c, 0, 69, 0
1, 132480, Note_on_c, 0, 63, 67
1, 132480, Note_on_c, 0, 73, 67
1, 132480, Note_on_c, 0, 69, 67
1, 132480, Note_on_c, 0, 66, 67
1, 132480, Note_on_c, 0, 35, 63
1, 132570, Note_on_c, 0, 35, 0
1, 132720, Note_on_c, 0, 42, 57
1, 132810, Note_on_c, 0, 42, 0
1, 132960, Tempo, 333500
1, 132960, Note_on_c, 0, 47, 61
1, 133050, Note_on_c, 0, 47, 0
1, 133200, Tempo, 339655
1, 133200, Note_on_c, 0, 42, 57
1, 133290, Note_on_c, 0, 42, 0
1, 133440, Tempo, 330651
1, 133440, Note_on_c, 0, 42, 62
1, 133530, Note_on_c, 0, 42, 0
1, 133680, Tempo, 339655
1, 133680, Note_on_c, 0, 47, 57
1, 133770, Note_on_c, 0, 47, 0
1, 133920, Tempo, 338219
1, 133920, Note_on_c, 0, 54, 61
1, 134010, Note_on_c, 0, 54, 0
1, 134160, Note_on_c, 0, 47, 57
1, 134250, Note_on_c, 0, 47, 0
1, 134400, Tempo, 342936
1, 134400, Note_on_c, 0, 47, 54
1, 134490, Note_on_c, 0, 47, 0
1, 134640, Note_on_c, 0, 54, 44
1, 134730, Note_on_c, 0, 54, 0
1, 134880, Tempo, 337079
1, 134880, Note_on_c, 0, 66, 0
1, 134880, Note_on_c, 0, 63, 0
1, 134880, Note_on_c, 0, 73, 0
1, 134880, Note_on_c, 0, 69, 0
1, 134880, Note_on_c, 0, 69, 51
1, 134880, Note_on_c, 0, 61, 51
1, 134880, Note_on_c, 0, 66, 51
1, 134880, Note_on_c, 0, 59, 44
1, 134970, Note_on_c, 0, 59, 0
1, 135000, Note_on_c, 0, 69, 0
1, 135000, Note_on_c, 0, 61, 0
1, 135000, Note_on_c, 0, 66, 0
1, 135120, Note_on_c, 0, 61, 51
1, 135120, Note_on_c, 0, 69, 51
1, 135120, Note_on_c, 0, 66, 51
1, 135120, Note_on_c, 0, 54, 44
1, 135210, Note_on_c, 0, 54, 0
1, 135240, Note_on_c, 0, 61, 0
1, 135240, Note_on_c, 0, 69, 0
1, 135240, Note_on_c, 0, 66, 0
1, 135360, Tempo, 347745
1, 135360, Note_on_c, 0, 63, 51
1, 135360, Note_on_c, 0, 59, 51
1, 135360, Note_on_c, 0, 66, 51
1, 135360, Note_on_c, 0, 42, 51
1, 135450, Note_on_c, 0, 42, 0
1, 135600, Note_on_c, 0, 49, 45
1, 135690, Note_on_c, 0, 49, 0
1, 135720, Note_on_c, 0, 66, 0
1, 135720, Note_on_c, 0, 59, 0
1, 135720, Note_on_c, 0, 63, 0
1, 135840, Tempo, 337591
1, 135840, Note_on_c, 0, 69, 54
1, 135840, Note_on_c, 0, 64, 54
1, 135840, Note_on_c, 0, 66, 54
1, 135840, Note_on_c, 0, 54, 45
1, 135930, Note_on_c, 0, 54, 0
1, 136080, Note_on_c, 0, 49, 45
1, 136170, Note_on_c, 0, 49, 0
1, 136200, Note_on_c, 0, 66, 0
1, 136200, Note_on_c, 0, 64, 0
1, 136200, Note_on_c, 0, 69, 0
1, 136320, Tempo, 339982
1, 136320, Note_on_c, 0, 69, 56
1, 136320, Note_on_c, 0, 63, 56
1, 136320, Note_on_c, 0, 73, 56
1, 136320, Note_on_c, 0, 47, 55
1, 136410, Note_on_c, 0, 47, 0
1, 136560, Note_on_c, 0, 54, 50
1, 136650, Note_on_c, 0, 54, 0
1, 136800, Tempo, 334243
1, 136800, Note_on_c, 0, 73, 0
1, 136800, Note_on_c, 0, 63, 0
1, 136800, Note_on_c, 0, 69, 0
1, 136800, Note_on_c, 0, 61, 54
1, 136800, Note_on_c, 0, 69, 54
1, 136800, Note_on_c, 0, 66, 54
1, 136800, Note_on_c, 0, 59, 50
1, 136890, Note_on_c, 0, 59, 0
1, 136920, Note_on_c, 0, 61, 0
1, 136920, Note_on_c, 0, 69, 0
1, 136920, Note_on_c, 0, 66, 0
1, 137040, Note_on_c, 0, 66, 54
1, 137040, Note_on_c, 0, 61, 54
1, 137040, Note_on_c, 0, 69, 54
1, 137040, Note_on_c, 0, 54, 50
1, 137130, Note_on_c, 0, 54, 0
1, 137160, Note_on_c, 0, 66, 0
1, 137160, Note_on_c, 0, 61, 0
1, 137160, Note_on_c, 0, 69, 0
1, 137280, Tempo, 339041
1, 137280, Note_on_c, 0, 59, 56
1, 137280, Note_on_c, 0, 66, 56
1, 137280, Note_on_c, 0, 63, 56
1, 137280, Note_on_c, 0, 42, 56
1, 137370, Note_on_c, 0, 42, 0
1, 137520, Note_on_c, 0, 49, 52
1, 137610, Note_on_c, 0, 49, 0
1, 137640, Note_on_c, 0, 63, 0
1, 137640, Note_on_c, 0, 66, 0
1, 137640, Note_on_c, 0, 59, 0
1, 137760, Note_on_c, 0, 64, 58
1, 137760, Note_on_c, 0, 69, 58
1, 137760, Note_on_c, 0, 66, 58
1, 137760, Note_on_c, 0, 54, 52
1, 137850, Note_on_c, 0, 54, 0
1, 138000, Tempo, 352092
1, 138000, Note_on_c, 0, 49, 54
1, 138090, Note_on_c, 0, 49, 0
1, 138120, Note_on_c, 0, 66, 0
1, 138120, Note_on_c, 0, 69, 0
1, 138120, Note_on_c, 0, 64, 0
1, 138240, Tempo, 349834
1, 138240, Note_on_c, 0, 69, 67
1, 138240, Note_on_c, 0, 63, 67
1, 138240, Note_on_c, 0, 73, 67
1, 138240, Note_on_c, 0, 47, 63
1, 138280, Tempo, 347745
1, 138330, Note_on_c, 0, 47, 0
1, 138480, Note_on_c, 0, 54, 57
1, 138570, Note_on_c, 0, 54, 0
1, 138720, Tempo, 341511
1, 138720, Note_on_c, 0, 73, 0
1, 138720, Note_on_c, 0, 63, 0
1, 138720, Note_on_c, 0, 69, 0
1, 138720, Note_on_c, 0, 69, 66
1, 138720, Note_on_c, 0, 61, 66
1, 138720, Note_on_c, 0, 66, 66
1, 138720, Note_on_c, 0, 59, 57
1, 138810, Note_on_c, 0, 59, 0
1, 138960, Note_on_c, 0, 54, 57
1, 139050, Note_on_c, 0, 54, 0
1, 139200, Tempo, 354212
1, 139200, Note_on_c, 0, 42, 68
1, 139290, Note_on_c, 0, 42, 0
1, 139440, Note_on_c, 0, 49, 58
1, 139530, Note_on_c, 0, 49, 0
1, 139680, Tempo, 363989
1, 139680, Note_on_c, 0, 66, 0
1, 139680, Note_on_c, 0, 61, 0
1, 139680, Note_on_c, 0, 69, 0
1, 139680, Note_on_c, 0, 69, 73
1, 139680, Note_on_c, 0, 66, 73
1, 139680, Note_on_c, 0, 73, 73
1, 139680, Note_on_c, 0, 54, 62
1, 139770, Note_on_c, 0, 54, 0
1, 139920, Note_on_c, 0, 49, 66
1, 140010, Note_on_c, 0, 49, 0
1, 140131, Tempo, 360664
1, 140160, Tempo, 349854
1, 140160, Note_on_c, 0, 73, 0
1, 140160, Note_on_c, 0, 66, 0
1, 140160, Note_on_c, 0, 69, 0
1, 140160, Note_on_c, 0, 68, 73
1, 140160, Note_on_c, 0, 75, 73
1, 140160, Control_c, 0, 64, 127
1, 140400, Note_on_c, 0, 75, 0
1, 140400, Note_on_c, 0, 68, 0
1, 140400, Note_on_c, 0, 63, 66
1, 140640, Tempo, 337079
1, 140640, Note_on_c, 0, 63, 0
1, 140640, Note_on_c, 0, 32, 64
1, 140640, Note_on_c, 0, 39, 64
1, 140880, Tempo, 341880
1, 140880, Note_on_c, 0, 39, 0
1, 140880, Note_on_c, 0, 32, 0
1, 140880, Note_on_c, 0, 44, 66
1, 141120, Tempo, 334262
1, 141120, Note_on_c, 0, 44, 0
1, 141120, Note_on_c, 0, 44, 68
1, 141360, Tempo, 338983
1, 141360, Note_on_c, 0, 44, 0
1, 141360, Note_on_c, 0, 51, 69
1, 141600, Tempo, 331492
1, 141600, Note_on_c, 0, 51, 0
1, 141600, Note_on_c, 0, 63, 72
1, 141840, Tempo, 336134
1, 141840, Note_on_c, 0, 63, 0
1, 141840, Note_on_c, 0, 56, 69
1, 142080, Tempo, 327869
1, 142080, Note_on_c, 0, 56, 0
1, 142080, Note_on_c, 0, 56, 75
1, 142320, Tempo, 332410
1, 142320, Note_on_c, 0, 56, 0
1, 142320, Note_on_c, 0, 63, 70
1, 142560, Tempo, 329670
1, 142560, Note_on_c, 0, 63, 0
1, 142560, Note_on_c, 0, 75, 74
1, 142800, Tempo, 336134
1, 142800, Note_on_c, 0, 75, 0
1, 142800, Note_on_c, 0, 68, 72
1, 143038, Note_on_c, 0, 68, 0
1, 143040, Tempo, 333333
1, 143040, Note_on_c, 0, 68, 70
1, 143280, Tempo, 338983
1, 143280, Note_on_c, 0, 68, 0
1, 143280, Note_on_c, 0, 75, 66
1, 143520, Tempo, 340909
1, 143520, Note_on_c, 0, 75, 0
1, 143520, Note_on_c, 0, 87, 67
1, 143760, Tempo, 376176
1, 143760, Note_on_c, 0, 87, 0
1, 143760, Note_on_c, 0, 80, 62
1, 144000, Key_signature, -4, "major"
1, 144000, Tempo, 351906
1, 144000, Note_on_c, 0, 80, 0
1, 144000, Note_on_c, 0, 87, 52
1, 144000, Note_on_c, 0, 84, 52
1, 144000, Control_c, 0, 64, 0
1, 144000, Note_on_c, 0, 68, 32
1, 144040, Tempo, 357292
1, 144195, Control_c, 0, 64, 127
1, 144240, Note_on_c, 0, 68, 0
1, 144240, Note_on_c, 0, 72, 30
1, 144478, Note_on_c, 0, 84, 0
1, 144480, Tempo, 348837
1, 144480, Note_on_c, 0, 72, 0
1, 144480, Note_on_c, 0, 87, 0
1, 144480, Note_on_c, 0, 84, 51
1, 144480, Note_on_c, 0, 75, 30
1, 144720, Note_on_c, 0, 75, 0
1, 144720, Note_on_c, 0, 72, 30
1, 144960, Tempo, 355219
1, 144960, Note_on_c, 0, 72, 0
1, 144960, Note_on_c, 0, 84, 0
1, 144960, Note_on_c, 0, 83, 52
1, 144960, Note_on_c, 0, 87, 52
1, 144960, Note_on_c, 0, 68, 32
1, 144971, Control_c, 0, 64, 0
1, 145074, Control_c, 0, 64, 127
1, 145200, Note_on_c, 0, 68, 0
1, 145200, Note_on_c, 0, 71, 30
1, 145440, Tempo, 350099
1, 145440, Note_on_c, 0, 71, 0
1, 145440, Note_on_c, 0, 87, 0
1, 145440, Note_on_c, 0, 91, 51
1, 145440, Note_on_c, 0, 75, 30
1, 145680, Note_on_c, 0, 75, 0
1, 145680, Note_on_c, 0, 71, 30
1, 145920, Note_on_c, 0, 71, 0
1, 145920, Note_on_c, 0, 91, 0
1, 145920, Note_on_c, 0, 83, 0
1, 145920, Note_on_c, 0, 87, 52
1, 145920, Note_on_c, 0, 84, 52
1, 145920, Note_on_c, 0, 68, 32
1, 145928, Control_c, 0, 64, 0
1, 146061, Control_c, 0, 64, 127
1, 146160, Note_on_c, 0, 68, 0
1, 146160, Note_on_c, 0, 72, 30
1, 146400, Tempo, 354170
1, 146400, Note_on_c, 0, 72, 0
1, 146400, Note_on_c, 0, 75, 30
1, 146640, Note_on_c, 0, 75, 0
1, 146640, Note_on_c, 0, 72, 30
1, 146880, Tempo, 350099
1, 146880, Note_on_c, 0, 72, 0
1, 146880, Note_on_c, 0, 84, 0
1, 146880, Note_on_c, 0, 87, 0
1, 146880, Note_on_c, 0, 80, 47
1, 146880, Note_on_c, 0, 84, 52
1, 146880, Note_on_c, 0, 67, 32
1, 146882, Control_c, 0, 64, 0
1, 147021, Control_c, 0, 64, 127
1, 147120, Note_on_c, 0, 67, 0
1, 147120, Note_on_c, 0, 68, 30
1, 147360, Tempo, 339386
1, 147360, Note_on_c, 0, 68, 0
1, 147360, Note_on_c, 0, 84, 0
1, 147360, Note_on_c, 0, 87, 52
1, 147360, Note_on_c, 0, 72, 30
1, 147600, Note_on_c, 0, 72, 0
1, 147600, Note_on_c, 0, 67, 30
1, 147840, Tempo, 345145
1, 147840, Note_on_c, 0, 67, 0
1, 147840, Note_on_c, 0, 87, 0
1, 147840, Note_on_c, 0, 84, 52
1, 147840, Note_on_c, 0, 65, 32
1, 147849, Control_c, 0, 64, 0
1, 148024, Control_c, 0, 64, 127
1, 148080, Note_on_c, 0, 65, 0
1, 148080, Note_on_c, 0, 68, 30
1, 148160, Note_on_c, 0, 84, 0
1, 148160, Note_on_c, 0, 82, 50
1, 148320, Note_on_c, 0, 68, 0
1, 148320, Note_on_c, 0, 72, 30
1, 148480, Note_on_c, 0, 82, 0
1, 148480, Note_on_c, 0, 84, 50
1, 148560, Tempo, 358337
1, 148560, Note_on_c, 0, 72, 0
1, 148560, Note_on_c, 0, 68, 30
1, 148800, Tempo, 362603
1, 148800, Note_on_c, 0, 68, 0
1, 148800, Note_on_c, 0, 84, 0
1, 148800, Note_on_c, 0, 80, 0
1, 148800, Note_on_c, 0, 80, 48
1, 148800, Note_on_c, 0, 79, 40
1, 148800, Note_on_c, 0, 63, 32
1, 148809, Control_c, 0, 64, 0
1, 148956, Control_c, 0, 64, 127
1, 149040, Note_on_c, 0, 63, 0
1, 149040, Note_on_c, 0, 67, 28
1, 149280, Tempo, 359281
1, 149280, Note_on_c, 0, 67, 0
1, 149280, Note_on_c, 0, 80, 0
1, 149280, Note_on_c, 0, 84, 48
1, 149280, Note_on_c, 0, 68, 28
1, 149520, Note_on_c, 0, 68, 0
1, 149520, Note_on_c, 0, 67, 28
1, 149700, Tempo, 369413
1, 149760, Tempo, 357185
1, 149760, Note_on_c, 0, 67, 0
1, 149760, Note_on_c, 0, 84, 0
1, 149760, Note_on_c, 0, 79, 0
1, 149760, Note_on_c, 0, 77, 41
1, 149760, Note_on_c, 0, 82, 47
1, 149760, Control_c, 0, 64, 0
1, 149760, Note_on_c, 0, 61, 30
1, 150000, Note_on_c, 0, 61, 0
1, 150000, Note_on_c, 0, 65, 28
1, 150240, Note_on_c, 0, 65, 0
1, 150240, Note_on_c, 0, 68, 28
1, 150480, Note_on_c, 0, 68, 0
1, 150480, Note_on_c, 0, 65, 28
1, 150720, Tempo, 359346
1, 150720, Note_on_c, 0, 65, 0
1, 150720, Note_on_c, 0, 82, 0
1, 150720, Note_on_c, 0, 77, 0
1, 150720, Note_on_c, 0, 70, 47
1, 150720, Note_on_c, 0, 63, 31
1, 150960, Note_on_c, 0, 63, 0
1, 150960, Note_on_c, 0, 65, 29
1, 151200, Tempo, 363747
1, 151200, Note_on_c, 0, 65, 0
1, 151200, Note_on_c, 0, 70, 0
1, 151200, Note_on_c, 0, 72, 49
1, 151200, Note_on_c, 0, 68, 33
1, 151440, Note_on_c, 0, 68, 0
1, 151440, Note_on_c, 0, 65, 30
1, 151680, Tempo, 357185
1, 151680, Note_on_c, 0, 65, 0
1, 151680, Note_on_c, 0, 72, 0
1, 151680, Note_on_c, 0, 73, 52
1, 151680, Note_on_c, 0, 65, 34
1, 151920, Note_on_c, 0, 68, 30
1, 152160, Note_on_c, 0, 68, 0
1, 152160, Note_on_c, 0, 70, 30
1, 152400, Note_on_c, 0, 70, 0
1, 152400, Note_on_c, 0, 68, 30
1, 152640, Tempo, 353982
1, 152640, Note_on_c, 0, 68, 0
1, 152640, Note_on_c, 0, 65, 0
1, 152640, Note_on_c, 0, 73, 0
1, 152640, Note_on_c, 0, 72, 47
1, 152640, Note_on_c, 0, 63, 32
1, 152796, Control_c, 0, 64, 127
1, 152880, Note_on_c, 0, 67, 28
1, 153120, Tempo, 362647
1, 153120, Note_on_c, 0, 67, 0
1, 153120, Note_on_c, 0, 72, 0
1, 153120, Note_on_c, 0, 77, 49
1, 153120, Note_on_c, 0, 68, 30
1, 153360, Note_on_c, 0, 68, 0
1, 153360, Note_on_c, 0, 67, 28
1, 153600, Tempo, 357185
1, 153600, Note_on_c, 0, 67, 0
1, 153600, Note_on_c, 0, 77, 0
1, 153600, Note_on_c, 0, 63, 0
1, 153600, Note_on_c, 0, 70, 45
1, 153600, Note_on_c, 0, 61, 30
1, 153614, Control_c, 0, 64, 0
1, 153840, Note_on_c, 0, 65, 28
1, 154080, Note_on_c, 0, 65, 0
1, 154080, Note_on_c, 0, 67, 28
1, 154320, Note_on_c, 0, 67, 0
1, 154320, Note_on_c, 0, 65, 28
1, 154560, Tempo, 352920
1, 154560, Note_on_c, 0, 65, 0
1, 154560, Note_on_c, 0, 61, 0
1, 154560, Note_on_c, 0, 70, 0
1, 154560, Note_on_c, 0, 68, 47
1, 154560, Note_on_c, 0, 60, 30
1, 154687, Control_c, 0, 64, 127
1, 154800, Note_on_c, 0, 63, 28
1, 155040, Tempo, 366010
1, 155040, Note_on_c, 0, 63, 0
1, 155040, Note_on_c, 0, 68, 0
1, 155040, Note_on_c, 0, 77, 49
1, 155040, Note_on_c, 0, 65, 28
1, 155280, Note_on_c, 0, 65, 0
1, 155280, Note_on_c, 0, 63, 28
1, 155520, Tempo, 357185
1, 155520, Note_on_c, 0, 63, 0
1, 155520, Note_on_c, 0, 77, 0
1, 155520, Note_on_c, 0, 60, 0
1, 155520, Note_on_c, 0, 67, 40
1, 155520, Note_on_c, 0, 58, 30
1, 155530, Control_c, 0, 64, 0
1, 155760, Note_on_c, 0, 61, 26
1, 156000, Tempo, 374088
1, 156000, Note_on_c, 0, 61, 0
1, 156000, Note_on_c, 0, 63, 26
1, 156240, Note_on_c, 0, 63, 0
1, 156240, Note_on_c, 0, 61, 26
1, 156480, Tempo, 386274
1, 156480, Note_on_c, 0, 61, 0
1, 156480, Note_on_c, 0, 58, 0
1, 156480, Note_on_c, 0, 67, 0
1, 156480, Note_on_c, 0, 65, 44
1, 156480, Note_on_c, 0, 56, 30
1, 156621, Control_c, 0, 64, 127
1, 156720, Note_on_c, 0, 60, 26
1, 156960, Tempo, 395283
1, 156960, Note_on_c, 0, 60, 0
1, 156960, Note_on_c, 0, 65, 0
1, 156960, Note_on_c, 0, 77, 44
1, 156960, Note_on_c, 0, 61, 26
1, 157200, Note_on_c, 0, 61, 0
1, 157200, Note_on_c, 0, 60, 26
1, 157440, Note_on_c, 0, 60, 0
1, 157440, Note_on_c, 0, 77, 0
1, 157440, Note_on_c, 0, 56, 0
1, 157440, Note_on_c, 0, 63, 38
1, 157440, Note_on_c, 0, 55, 28
1, 157447, Control_c, 0, 64, 0
1, 157680, Tempo, 388350
1, 157680, Note_on_c, 0, 58, 25
1, 157920, Note_on_c, 0, 58, 0
1, 157920, Note_on_c, 0, 61, 25
1, 158160, Note_on_c, 0, 61, 0
1, 158160, Note_on_c, 0, 58, 25
1, 158400, Tempo, 371517
1, 158400, Note_on_c, 0, 58, 0
1, 158400, Note_on_c, 0, 55, 0
1, 158400, Note_on_c, 0, 53, 33
1, 158640, Note_on_c, 0, 58, 28
1, 158640, Note_on_c, 0, 61, 28
1, 158880, Tempo, 360360
1, 158880, Note_on_c, 0, 61, 0
1, 158880, Note_on_c, 0, 58, 0
1, 158880, Note_on_c, 0, 53, 0
1, 158880, Note_on_c, 0, 51, 31
1, 159120, Note_on_c, 0, 58, 28
1, 159120, Note_on_c, 0, 61, 28
1, 159360, Tempo, 363636
1, 159360, Note_on_c, 0, 61, 0
1, 159360, Note_on_c, 0, 58, 0
1, 159360, Note_on_c, 0, 51, 0
1, 159360, Note_on_c, 0, 44, 28
1, 159473, Control_c, 0, 64, 127
1, 159600, Note_on_c, 0, 44, 0
1, 159600, Note_on_c, 0, 48, 27
1, 159840, Tempo, 352941
1, 159840, Note_on_c, 0, 48, 0
1, 159840, Note_on_c, 0, 63, 0
1, 159840, Note_on_c, 0, 60, 38
1, 159840, Note_on_c, 0, 44, 27
1, 160080, Note_on_c, 0, 44, 0
1, 160080, Note_on_c, 0, 48, 27
1, 160300, Note_on_c, 0, 60, 0
1, 160320, Tempo, 360555
1, 160320, Note_on_c, 0, 48, 0
1, 160320, Note_on_c, 0, 63, 39
1, 160320, Note_on_c, 0, 59, 39
1, 160320, Note_on_c, 0, 43, 28
1, 160334, Control_c, 0, 64, 0
1, 160490, Control_c, 0, 64, 127
1, 160560, Note_on_c, 0, 43, 0
1, 160560, Note_on_c, 0, 51, 27
1, 160800, Tempo, 353357
1, 160800, Note_on_c, 0, 51, 0
1, 160800, Note_on_c, 0, 63, 0
1, 160800, Note_on_c, 0, 67, 36
1, 160800, Note_on_c, 0, 43, 27
1, 161040, Note_on_c, 0, 43, 0
1, 161040, Note_on_c, 0, 51, 27
1, 161280, Note_on_c, 0, 51, 0
1, 161280, Note_on_c, 0, 67, 0
1, 161280, Note_on_c, 0, 59, 0
1, 161280, Note_on_c, 0, 60, 39
1, 161280, Note_on_c, 0, 63, 39
1, 161280, Note_on_c, 0, 44, 28
1, 161291, Control_c, 0, 64, 0
1, 161421, Control_c, 0, 64, 127
1, 161520, Note_on_c, 0, 44, 0
1, 161520, Note_on_c, 0, 51, 27
1, 161760, Tempo, 357569
1, 161760, Note_on_c, 0, 51, 0
1, 161760, Note_on_c, 0, 44, 27
1, 162000, Note_on_c, 0, 44, 0
1, 162000, Note_on_c, 0, 51, 27
1, 162240, Tempo, 349487
1, 162240, Note_on_c, 0, 51, 0
1, 162240, Note_on_c, 0, 63, 0
1, 162240, Note_on_c, 0, 60, 0
1, 162240, Note_on_c, 0, 60, 39
1, 162240, Note_on_c, 0, 58, 35
1, 162240, Note_on_c, 0, 43, 28
1, 162253, Control_c, 0, 64, 0
1, 162367, Control_c, 0, 64, 127
1, 162480, Note_on_c, 0, 43, 0
1, 162480, Note_on_c, 0, 51, 27
1, 162720, Tempo, 338792
1, 162720, Note_on_c, 0, 51, 0
1, 162720, Note_on_c, 0, 60, 0
1, 162720, Note_on_c, 0, 63, 39
1, 162720, Note_on_c, 0, 43, 27
1, 162960, Note_on_c, 0, 43, 0
1, 162960, Note_on_c, 0, 51, 27
1, 163200, Tempo, 344531
1, 163200, Note_on_c, 0, 51, 0
1, 163200, Note_on_c, 0, 63, 0
1, 163200, Note_on_c, 0, 60, 39
1, 163200, Note_on_c, 0, 41, 28
1, 163213, Control_c, 0, 64, 0
1, 163356, Control_c, 0, 64, 127
1, 163440, Note_on_c, 0, 41, 0
1, 163440, Note_on_c, 0, 48, 27
1, 163520, Note_on_c, 0, 60, 0
1, 163520, Note_on_c, 0, 58, 37
1, 163680, Note_on_c, 0, 48, 0
1, 163680, Note_on_c, 0, 41, 27
1, 163840, Note_on_c, 0, 58, 0
1, 163840, Note_on_c, 0, 60, 37
1, 163920, Tempo, 357696
1, 163920, Note_on_c, 0, 41, 0
1, 163920, Note_on_c, 0, 48, 27
1, 164160, Tempo, 367399
1, 164160, Note_on_c, 0, 48, 0
1, 164160, Note_on_c, 0, 60, 0
1, 164160, Note_on_c, 0, 58, 0
1, 164160, Note_on_c, 0, 56, 36
1, 164160, Note_on_c, 0, 55, 30
1, 164160, Note_on_c, 0, 39, 28
1, 164180, Control_c, 0, 64, 0
1, 164301, Control_c, 0, 64, 127
1, 164400, Note_on_c, 0, 39, 0
1, 164400, Note_on_c, 0, 48, 25
1, 164640, Tempo, 373158
1, 164640, Note_on_c, 0, 48, 0
1, 164640, Note_on_c, 0, 56, 0
1, 164640, Note_on_c, 0, 60, 35
1, 164640, Note_on_c, 0, 39, 25
1, 164880, Note_on_c, 0, 39, 0
1, 164880, Note_on_c, 0, 48, 25
1, 165120, Tempo, 382166
1, 165120, Note_on_c, 0, 48, 0
1, 165120, Note_on_c, 0, 60, 0
1, 165120, Note_on_c, 0, 55, 0
1, 165120, Note_on_c, 0, 50, 25
1, 165120, Note_on_c, 0, 58, 34
1, 165120, Note_on_c, 0, 53, 25
1, 165120, Note_on_c, 0, 32, 27
1, 165128, Control_c, 0, 64, 0
1, 165290, Control_c, 0, 64, 127
1, 165360, Note_on_c, 0, 32, 0
1, 165360, Note_on_c, 0, 44, 25
1, 165600, Note_on_c, 0, 44, 0
1, 165600, Note_on_c, 0, 32, 25
1, 165840, Note_on_c, 0, 32, 0
1, 165840, Note_on_c, 0, 44, 25
1, 166080, Tempo, 406780
1, 166080, Note_on_c, 0, 44, 0
1, 166080, Note_on_c, 0, 58, 0
1, 166080, Note_on_c, 0, 56, 29
1, 166080, Note_on_c, 0, 32, 25
1, 166098, Control_c, 0, 64, 0
1, 166320, Note_on_c, 0, 32, 0
1, 166320, Note_on_c, 0, 44, 25
1, 166560, Tempo, 444444
1, 166560, Note_on_c, 0, 44, 0
1, 166560, Note_on_c, 0, 56, 0
1, 166560, Note_on_c, 0, 58, 27
1, 166560, Note_on_c, 0, 32, 25
1, 166800, Note_on_c, 0, 32, 0
1, 166800, Note_on_c, 0, 44, 25
1, 167021, Tempo, 390600
1, 167040, Key_signature, 3, "major"
1, 167040, Tempo, 363240
1, 167040, Note_on_c, 0, 44, 0
1, 167040, Note_on_c, 0, 58, 0
1, 167040, Note_on_c, 0, 53, 0
1, 167040, Note_on_c, 0, 50, 0
1, 167040, Note_on_c, 0, 68, 28
1, 167040, Note_on_c, 0, 64, 28
1, 167040, Note_on_c, 0, 71, 28
1, 167040, Note_on_c, 0, 44, 26
1, 167060, Tempo, 362188
1, 167080, Tempo, 345205
1, 167130, Note_on_c, 0, 44, 0
1, 167280, Note_on_c, 0, 52, 24
1, 167370, Note_on_c, 0, 52, 0
1, 167520, Tempo, 339002
1, 167520, Note_on_c, 0, 71, 0
1, 167520, Note_on_c, 0, 64, 0
1, 167520, Note_on_c, 0, 68, 0
1, 167520, Note_on_c, 0, 64, 26
1, 167520, Note_on_c, 0, 68, 26
1, 167520, Note_on_c, 0, 59, 24
1, 167610, Note_on_c, 0, 59, 0
1, 167610, Note_on_c, 0, 68, 0
1, 167610, Note_on_c, 0, 64, 0
1, 167760, Note_on_c, 0, 64, 26
1, 167760, Note_on_c, 0, 68, 26
1, 167760, Note_on_c, 0, 52, 24
1, 167850, Note_on_c, 0, 52, 0
1, 167850, Note_on_c, 0, 68, 0
1, 167850, Note_on_c, 0, 64, 0
1, 168000, Tempo, 345205
1, 168000, Note_on_c, 0, 64, 26
1, 168000, Note_on_c, 0, 68, 26
1, 168000, Note_on_c, 0, 44, 26
1, 168090, Note_on_c, 0, 44, 0
1, 168120, Note_on_c, 0, 68, 0
1, 168120, Note_on_c, 0, 64, 0
1, 168240, Note_on_c, 0, 52, 23
1, 168330, Note_on_c, 0, 52, 0
1, 168480, Tempo, 335102
1, 168480, Note_on_c, 0, 71, 28
1, 168480, Note_on_c, 0, 64, 28
1, 168480, Note_on_c, 0, 68, 28
1, 168480, Note_on_c, 0, 59, 23
1, 168570, Note_on_c, 0, 59, 0
1, 168600, Note_on_c, 0, 71, 0
1, 168600, Note_on_c, 0, 64, 0
1, 168600, Note_on_c, 0, 68, 0
1, 168720, Note_on_c, 0, 52, 23
1, 168810, Note_on_c, 0, 52, 0
1, 168960, Note_on_c, 0, 68, 28
1, 168960, Note_on_c, 0, 64, 28
1, 168960, Note_on_c, 0, 73, 28
1, 168960, Note_on_c, 0, 44, 28
1, 169050, Note_on_c, 0, 44, 0
1, 169200, Note_on_c, 0, 52, 25
1, 169290, Note_on_c, 0, 52, 0
1, 169440, Tempo, 329979
1, 169440, Note_on_c, 0, 73, 0
1, 169440, Note_on_c, 0, 64, 0
1, 169440, Note_on_c, 0, 68, 0
1, 169440, Note_on_c, 0, 64, 32
1, 169440, Note_on_c, 0, 73, 32
1, 169440, Note_on_c, 0, 68, 32
1, 169440, Note_on_c, 0, 58, 26
1, 169530, Note_on_c, 0, 58, 0
1, 169530, Note_on_c, 0, 64, 0
1, 169530, Note_on_c, 0, 73, 0
1, 169530, Note_on_c, 0, 68, 0
1, 169680, Tempo, 332410
1, 169680, Note_on_c, 0, 68, 30
1, 169680, Note_on_c, 0, 64, 30
1, 169680, Note_on_c, 0, 75, 30
1, 169680, Note_on_c, 0, 52, 25
1, 169770, Note_on_c, 0, 52, 0
1, 169770, Note_on_c, 0, 68, 0
1, 169770, Note_on_c, 0, 64, 0
1, 169770, Note_on_c, 0, 75, 0
1, 169920, Tempo, 327279
1, 169920, Note_on_c, 0, 64, 32
1, 169920, Note_on_c, 0, 73, 32
1, 169920, Note_on_c, 0, 68, 32
1, 169920, Note_on_c, 0, 44, 28
1, 170010, Note_on_c, 0, 44, 0
1, 170010, Note_on_c, 0, 64, 0
1, 170010, Note_on_c, 0, 73, 0
1, 170010, Note_on_c, 0, 68, 0
1, 170160, Tempo, 337173
1, 170160, Note_on_c, 0, 64, 30
1, 170160, Note_on_c, 0, 75, 30
1, 170160, Note_on_c, 0, 68, 30
1, 170160, Note_on_c, 0, 52, 26
1, 170250, Note_on_c, 0, 52, 0
1, 170250, Note_on_c, 0, 64, 0
1, 170250, Note_on_c, 0, 75, 0
1, 170250, Note_on_c, 0, 68, 0
1, 170400, Note_on_c, 0, 68, 27
1, 170400, Note_on_c, 0, 64, 27
1, 170400, Note_on_c, 0, 73, 27
1, 170400, Note_on_c, 0, 58, 27
1, 170490, Note_on_c, 0, 58, 0
1, 170520, Note_on_c, 0, 68, 0
1, 170520, Note_on_c, 0, 64, 0
1, 170520, Note_on_c, 0, 73, 0
1, 170640, Note_on_c, 0, 52, 26
1, 170730, Note_on_c, 0, 52, 0
1, 170880, Tempo, 347262
1, 170880, Note_on_c, 0, 71, 29
1, 170880, Note_on_c, 0, 64, 29
1, 170880, Note_on_c, 0, 68, 29
1, 170880, Note_on_c, 0, 44, 26
1, 170920, Tempo, 345205
1, 170970, Note_on_c, 0, 44, 0
1, 171120, Note_on_c, 0, 52, 24
1, 171210, Note_on_c, 0, 52, 0
1, 171360, Tempo, 339002
1, 171360, Note_on_c, 0, 68, 0
1, 171360, Note_on_c, 0, 64, 0
1, 171360, Note_on_c, 0, 71, 0
1, 171360, Note_on_c, 0, 68, 26
1, 171360, Note_on_c, 0, 64, 26
1, 171360, Note_on_c, 0, 59, 24
1, 171450, Note_on_c, 0, 59, 0
1, 171450, Note_on_c, 0, 64, 0
1, 171450, Note_on_c, 0, 68, 0
1, 171600, Note_on_c, 0, 68, 26
1, 171600, Note_on_c, 0, 64, 26
1, 171600, Note_on_c, 0, 52, 24
1, 171690, Note_on_c, 0, 52, 0
1, 171690, Note_on_c, 0, 64, 0
1, 171690, Note_on_c, 0, 68, 0
1, 171840, Tempo, 345205
1, 171840, Note_on_c, 0, 68, 26
1, 171840, Note_on_c, 0, 64, 26
1, 171840, Note_on_c, 0, 44, 26
1, 171930, Note_on_c, 0, 44, 0
1, 172080, Note_on_c, 0, 52, 24
1, 172170, Note_on_c, 0, 52, 0
1, 172200, Note_on_c, 0, 64, 0
1, 172200, Note_on_c, 0, 68, 0
1, 172320, Tempo, 348331
1, 172320, Note_on_c, 0, 68, 30
1, 172320, Note_on_c, 0, 64, 30
1, 172320, Note_on_c, 0, 71, 30
1, 172320, Note_on_c, 0, 59, 25
1, 172410, Note_on_c, 0, 59, 0
1, 172560, Note_on_c, 0, 52, 24
1, 172650, Note_on_c, 0, 52, 0
1, 172800, Tempo, 335008
1, 172800, Note_on_c, 0, 71, 0
1, 172800, Note_on_c, 0, 64, 0
1, 172800, Note_on_c, 0, 68, 0
1, 172800, Note_on_c, 0, 65, 28
1, 172800, Note_on_c, 0, 70, 28
1, 172800, Note_on_c, 0, 68, 28
1, 172800, Note_on_c, 0, 62, 28
1, 172800, Note_on_c, 0, 44, 27
1, 172890, Note_on_c, 0, 44, 0
1, 173040, Note_on_c, 0, 53, 26
1, 173130, Note_on_c, 0, 53, 0
1, 173280, Tempo, 331071
1, 173280, Note_on_c, 0, 58, 27
1, 173370, Note_on_c, 0, 58, 0
1, 173520, Tempo, 337173
1, 173520, Note_on_c, 0, 53, 26
1, 173610, Note_on_c, 0, 53, 0
1, 173760, Tempo, 328210
1, 173760, Note_on_c, 0, 56, 29
1, 173850, Note_on_c, 0, 56, 0
1, 174000, Tempo, 337173
1, 174000, Note_on_c, 0, 65, 26
1, 174090, Note_on_c, 0, 65, 0
1, 174240, Tempo, 335739
1, 174240, Note_on_c, 0, 70, 28
1, 174330, Note_on_c, 0, 70, 0
1, 174480, Tempo, 356422
1, 174480, Note_on_c, 0, 65, 26
1, 174570, Note_on_c, 0, 65, 0
1, 174720, Tempo, 362188
1, 174720, Note_on_c, 0, 62, 0
1, 174720, Note_on_c, 0, 65, 0
1, 174720, Note_on_c, 0, 70, 0
1, 174720, Note_on_c, 0, 68, 0
1, 174720, Note_on_c, 0, 80, 28
1, 174720, Note_on_c, 0, 76, 28
1, 174720, Note_on_c, 0, 83, 30
1, 174720, Note_on_c, 0, 56, 26
1, 174760, Tempo, 345205
1, 174810, Note_on_c, 0, 56, 0
1, 174960, Note_on_c, 0, 64, 24
1, 175050, Note_on_c, 0, 64, 0
1, 175200, Tempo, 339002
1, 175200, Note_on_c, 0, 83, 0
1, 175200, Note_on_c, 0, 76, 0
1, 175200, Note_on_c, 0, 80, 0
1, 175200, Note_on_c, 0, 76, 26
1, 175200, Note_on_c, 0, 80, 28
1, 175200, Note_on_c, 0, 71, 24
1, 175290, Note_on_c, 0, 71, 0
1, 175290, Note_on_c, 0, 80, 0
1, 175290, Note_on_c, 0, 76, 0
1, 175440, Note_on_c, 0, 76, 26
1, 175440, Note_on_c, 0, 80, 28
1, 175440, Note_on_c, 0, 64, 24
1, 175530, Note_on_c, 0, 64, 0
1, 175530, Note_on_c, 0, 80, 0
1, 175530, Note_on_c, 0, 76, 0
1, 175680, Tempo, 345205
1, 175680, Note_on_c, 0, 80, 28
1, 175680, Note_on_c, 0, 76, 26
1, 175680, Note_on_c, 0, 56, 26
1, 175770, Note_on_c, 0, 56, 0
1, 175800, Note_on_c, 0, 76, 0
1, 175800, Note_on_c, 0, 80, 0
1, 175920, Note_on_c, 0, 64, 23
1, 176010, Note_on_c, 0, 64, 0
1, 176160, Tempo, 335102
1, 176160, Note_on_c, 0, 80, 28
1, 176160, Note_on_c, 0, 76, 28
1, 176160, Note_on_c, 0, 83, 30
1, 176160, Note_on_c, 0, 71, 23
1, 176250, Note_on_c, 0, 71, 0
1, 176400, Note_on_c, 0, 64, 23
1, 176490, Note_on_c, 0, 64, 0
1, 176640, Note_on_c, 0, 83, 0
1, 176640, Note_on_c, 0, 76, 0
1, 176640, Note_on_c, 0, 80, 0
1, 176640, Note_on_c, 0, 76, 28
1, 176640, Note_on_c, 0, 85, 31
1, 176640, Note_on_c, 0, 80, 28
1, 176640, Note_on_c, 0, 56, 28
1, 176730, Note_on_c, 0, 56, 0
1, 176880, Note_on_c, 0, 64, 25
1, 176970, Note_on_c, 0, 64, 0
1, 177120, Tempo, 329979
1, 177120, Note_on_c, 0, 80, 0
1, 177120, Note_on_c, 0, 85, 0
1, 177120, Note_on_c, 0, 76, 0
1, 177120, Note_on_c, 0, 80, 32
1, 177120, Note_on_c, 0, 76, 32
1, 177120, Note_on_c, 0, 85, 34
1, 177120, Note_on_c, 0, 70, 26
1, 177210, Note_on_c, 0, 70, 0
1, 177210, Note_on_c, 0, 80, 0
1, 177210, Note_on_c, 0, 76, 0
1, 177210, Note_on_c, 0, 85, 0
1, 177360, Tempo, 333333
1, 177360, Note_on_c, 0, 87, 30
1, 177360, Note_on_c, 0, 76, 28
1, 177360, Note_on_c, 0, 80, 28
1, 177360, Note_on_c, 0, 64, 25
1, 177450, Note_on_c, 0, 64, 0
1, 177450, Note_on_c, 0, 87, 0
1, 177450, Note_on_c, 0, 76, 0
1, 177450, Note_on_c, 0, 80, 0
1, 177600, Tempo, 327279
1, 177600, Note_on_c, 0, 80, 32
1, 177600, Note_on_c, 0, 76, 32
1, 177600, Note_on_c, 0, 85, 34
1, 177600, Note_on_c, 0, 56, 28
1, 177690, Note_on_c, 0, 56, 0
1, 177690, Note_on_c, 0, 80, 0
1, 177690, Note_on_c, 0, 76, 0
1, 177690, Note_on_c, 0, 85, 0
1, 177840, Tempo, 337173
1, 177840, Note_on_c, 0, 76, 30
1, 177840, Note_on_c, 0, 87, 33
1, 177840, Note_on_c, 0, 80, 30
1, 177840, Note_on_c, 0, 64, 26
1, 177930, Note_on_c, 0, 64, 0
1, 177930, Note_on_c, 0, 76, 0
1, 177930, Note_on_c, 0, 87, 0
1, 177930, Note_on_c, 0, 80, 0
1, 178080, Note_on_c, 0, 80, 27
1, 178080, Note_on_c, 0, 76, 27
1, 178080, Note_on_c, 0, 85, 29
1, 178080, Note_on_c, 0, 70, 27
1, 178170, Note_on_c, 0, 70, 0
1, 178320, Note_on_c, 0, 64, 26
1, 178410, Note_on_c, 0, 64, 0
1, 178560, Tempo, 347262
1, 178560, Note_on_c, 0, 85, 0
1, 178560, Note_on_c, 0, 76, 0
1, 178560, Note_on_c, 0, 80, 0
1, 178560, Note_on_c, 0, 83, 32
1, 178560, Note_on_c, 0, 76, 29
1, 178560, Note_on_c, 0, 80, 29
1, 178560, Note_on_c, 0, 56, 26
1, 178600, Tempo, 345205
1, 178650, Note_on_c, 0, 56, 0
1, 178800, Note_on_c, 0, 64, 24
1, 178890, Note_on_c, 0, 64, 0
1, 179040, Tempo, 339002
1, 179040, Note_on_c, 0, 80, 0
1, 179040, Note_on_c, 0, 76, 0
1, 179040, Note_on_c, 0, 83, 0
1, 179040, Note_on_c, 0, 80, 28
1, 179040, Note_on_c, 0, 76, 26
1, 179040, Note_on_c, 0, 71, 24
1, 179130, Note_on_c, 0, 71, 0
1, 179130, Note_on_c, 0, 76, 0
1, 179130, Note_on_c, 0, 80, 0
1, 179280, Note_on_c, 0, 80, 28
1, 179280, Note_on_c, 0, 76, 26
1, 179280, Note_on_c, 0, 64, 24
1, 179370, Note_on_c, 0, 64, 0
1, 179370, Note_on_c, 0, 76, 0
1, 179370, Note_on_c, 0, 80, 0
1, 179520, Tempo, 345205
1, 179520, Note_on_c, 0, 80, 28
1, 179520, Note_on_c, 0, 76, 26
1, 179520, Note_on_c, 0, 56, 26
1, 179610, Note_on_c, 0, 56, 0
1, 179760, Note_on_c, 0, 64, 24
1, 179850, Note_on_c, 0, 64, 0
1, 179880, Note_on_c, 0, 76, 0
1, 179880, Note_on_c, 0, 80, 0
1, 180000, Tempo, 348331
1, 180000, Note_on_c, 0, 80, 29
1, 180000, Note_on_c, 0, 83, 32
1, 180000, Note_on_c, 0, 76, 29
1, 180000, Note_on_c, 0, 71, 25
1, 180090, Note_on_c, 0, 71, 0
1, 180240, Note_on_c, 0, 64, 24
1, 180330, Note_on_c, 0, 64, 0
1, 180461, Tempo, 342877
1, 180480, Tempo, 348028
1, 180480, Note_on_c, 0, 76, 0
1, 180480, Note_on_c, 0, 83, 0
1, 180480, Note_on_c, 0, 80, 0
1, 180480, Note_on_c, 0, 77, 30
1, 180480, Note_on_c, 0, 82, 39
1, 180480, Note_on_c, 0, 56, 34
1, 180520, Tempo, 344748
1, 180537, Control_c, 0, 64, 127
1, 180720, Tempo, 338677
1, 180720, Note_on_c, 0, 82, 0
1, 180720, Note_on_c, 0, 77, 0
1, 180720, Note_on_c, 0, 74, 29
1, 180960, Note_on_c, 0, 74, 0
1, 180960, Note_on_c, 0, 62, 25
1, 180960, Note_on_c, 0, 65, 25
1, 181200, Note_on_c, 0, 65, 0
1, 181200, Note_on_c, 0, 62, 0
1, 181200, Note_on_c, 0, 70, 28
1, 181440, Tempo, 332042
1, 181440, Note_on_c, 0, 70, 0
1, 181440, Note_on_c, 0, 82, 36
1, 181440, Note_on_c, 0, 77, 30
1, 181447, Control_c, 0, 64, 0
1, 181600, Control_c, 0, 64, 127
1, 181680, Tempo, 335796
1, 181680, Note_on_c, 0, 77, 0
1, 181680, Note_on_c, 0, 82, 0
1, 181680, Note_on_c, 0, 74, 29
1, 181920, Tempo, 338677
1, 181920, Note_on_c, 0, 74, 0
1, 181920, Note_on_c, 0, 62, 25
1, 181920, Note_on_c, 0, 65, 25
1, 182160, Note_on_c, 0, 65, 0
1, 182160, Note_on_c, 0, 62, 0
1, 182160, Note_on_c, 0, 70, 29
1, 182400, Tempo, 339943
1, 182400, Note_on_c, 0, 70, 0
1, 182400, Note_on_c, 0, 77, 30
1, 182400, Note_on_c, 0, 82, 36
1, 182406, Control_c, 0, 64, 0
1, 182560, Control_c, 0, 64, 127
1, 182640, Tempo, 331492
1, 182640, Note_on_c, 0, 82, 0
1, 182640, Note_on_c, 0, 77, 0
1, 182640, Note_on_c, 0, 74, 29
1, 182880, Tempo, 338677
1, 182880, Note_on_c, 0, 74, 0
1, 182880, Note_on_c, 0, 62, 25
1, 182880, Note_on_c, 0, 65, 25
1, 183120, Note_on_c, 0, 65, 0
1, 183120, Note_on_c, 0, 62, 0
1, 183120, Note_on_c, 0, 70, 29
1, 183360, Tempo, 340599
1, 183360, Note_on_c, 0, 70, 0
1, 183360, Note_on_c, 0, 82, 36
1, 183360, Note_on_c, 0, 77, 30
1, 183371, Control_c, 0, 64, 0
1, 183480, Control_c, 0, 64, 127
1, 183600, Tempo, 332410
1, 183600, Note_on_c, 0, 77, 0
1, 183600, Note_on_c, 0, 82, 0
1, 183600, Note_on_c, 0, 74, 30
1, 183840, Note_on_c, 0, 74, 0
1, 183840, Note_on_c, 0, 62, 24
1, 183840, Note_on_c, 0, 65, 24
1, 184080, Tempo, 338677
1, 184080, Note_on_c, 0, 65, 0
1, 184080, Note_on_c, 0, 62, 0
1, 184080, Note_on_c, 0, 70, 28
1, 184320, Tempo, 342564
1, 184320, Note_on_c, 0, 70, 0
1, 184320, Note_on_c, 0, 77, 30
1, 184320, Note_on_c, 0, 82, 36
1, 184330, Control_c, 0, 64, 0
1, 184492, Control_c, 0, 64, 127
1, 184560, Tempo, 335796
1, 184560, Note_on_c, 0, 82, 0
1, 184560, Note_on_c, 0, 77, 0
1, 184560, Note_on_c, 0, 74, 29
1, 184800, Tempo, 335796
1, 184800, Note_on_c, 0, 74, 0
1, 184800, Note_on_c, 0, 62, 25
1, 184800, Note_on_c, 0, 65, 25
1, 185040, Tempo, 338677
1, 185040, Note_on_c, 0, 65, 0
1, 185040, Note_on_c, 0, 62, 0
1, 185040, Note_on_c, 0, 70, 29
1, 185280, Tempo, 340599
1, 185280, Note_on_c, 0, 70, 0
1, 185280, Note_on_c, 0, 83, 37
1, 185280, Note_on_c, 0, 78, 31
1, 185299, Control_c, 0, 64, 0
1, 185475, Control_c, 0, 64, 127
1, 185520, Tempo, 335796
1, 185520, Note_on_c, 0, 78, 0
1, 185520, Note_on_c, 0, 83, 0
1, 185520, Note_on_c, 0, 75, 31
1, 185760, Tempo, 339635
1, 185760, Note_on_c, 0, 75, 0
1, 185760, Note_on_c, 0, 63, 25
1, 185760, Note_on_c, 0, 66, 25
1, 186000, Tempo, 345562
1, 186000, Note_on_c, 0, 66, 0
1, 186000, Note_on_c, 0, 63, 0
1, 186000, Note_on_c, 0, 71, 30
1, 186240, Tempo, 342564
1, 186240, Note_on_c, 0, 71, 0
1, 186240, Note_on_c, 0, 56, 0
1, 186240, Note_on_c, 0, 80, 33
1, 186240, Note_on_c, 0, 85, 39
1, 186240, Note_on_c, 0, 59, 37
1, 186244, Control_c, 0, 64, 0
1, 186389, Control_c, 0, 64, 127
1, 186480, Tempo, 335796
1, 186480, Note_on_c, 0, 85, 0
1, 186480, Note_on_c, 0, 80, 0
1, 186480, Note_on_c, 0, 77, 31
1, 186720, Tempo, 338677
1, 186720, Note_on_c, 0, 77, 0
1, 186720, Note_on_c, 0, 65, 27
1, 186720, Note_on_c, 0, 68, 27
1, 186960, Note_on_c, 0, 68, 0
1, 186960, Note_on_c, 0, 65, 0
1, 186960, Note_on_c, 0, 73, 31
1, 187200, Tempo, 340599
1, 187200, Note_on_c, 0, 73, 0
1, 187200, Note_on_c, 0, 83, 37
1, 187200, Note_on_c, 0, 78, 31
1, 187222, Control_c, 0, 64, 0
1, 187371, Control_c, 0, 64, 127
1, 187440, Tempo, 335796
1, 187440, Note_on_c, 0, 78, 0
1, 187440, Note_on_c, 0, 83, 0
1, 187440, Note_on_c, 0, 75, 31
1, 187680, Note_on_c, 0, 75, 0
1, 187680, Note_on_c, 0, 63, 24
1, 187680, Note_on_c, 0, 66, 24
1, 187920, Tempo, 338677
1, 187920, Note_on_c, 0, 66, 0
1, 187920, Note_on_c, 0, 63, 0
1, 187920, Note_on_c, 0, 71, 28
1, 188160, Tempo, 339943
1, 188160, Note_on_c, 0, 71, 0
1, 188160, Note_on_c, 0, 59, 0
1, 188160, Note_on_c, 0, 77, 30
1, 188160, Note_on_c, 0, 82, 36
1, 188160, Note_on_c, 0, 56, 34
1, 188166, Control_c, 0, 64, 0
1, 188309, Control_c, 0, 64, 127
1, 188400, Tempo, 331492
1, 188400, Note_on_c, 0, 82, 0
1, 188400, Note_on_c, 0, 77, 0
1, 188400, Note_on_c, 0, 74, 29
1, 188640, Tempo, 327869
1, 188640, Note_on_c, 0, 74, 0
1, 188640, Note_on_c, 0, 62, 25
1, 188640, Note_on_c, 0, 65, 25
1, 188880, Tempo, 325203
1, 188880, Note_on_c, 0, 65, 0
1, 188880, Note_on_c, 0, 62, 0
1, 188880, Note_on_c, 0, 70, 29
1, 189120, Tempo, 334262
1, 189120, Note_on_c, 0, 70, 0
1, 189120, Note_on_c, 0, 83, 37
1, 189120, Note_on_c, 0, 78, 31
1, 189129, Control_c, 0, 64, 0
1, 189200, Control_c, 0, 64, 127
1, 189360, Tempo, 328767
1, 189360, Note_on_c, 0, 78, 0
1, 189360, Note_on_c, 0, 83, 0
1, 189360, Note_on_c, 0, 75, 31
1, 189600, Tempo, 341880
1, 189600, Note_on_c, 0, 75, 0
1, 189600, Note_on_c, 0, 63, 25
1, 189600, Note_on_c, 0, 66, 25
1, 189840, Tempo, 348837
1, 189840, Note_on_c, 0, 66, 0
1, 189840, Note_on_c, 0, 63, 0
1, 189840, Note_on_c, 0, 71, 30
1, 190080, Tempo, 343840
1, 190080, Note_on_c, 0, 71, 0
1, 190080, Note_on_c, 0, 56, 0
1, 190080, Note_on_c, 0, 80, 33
1, 190080, Note_on_c, 0, 85, 39
1, 190080, Note_on_c, 0, 59, 37
1, 190088, Control_c, 0, 64, 0
1, 190240, Control_c, 0, 64, 127
1, 190320, Tempo, 332410
1, 190320, Note_on_c, 0, 85, 0
1, 190320, Note_on_c, 0, 80, 0
1, 190320, Note_on_c, 0, 77, 31
1, 190560, Tempo, 338677
1, 190560, Note_on_c, 0, 77, 0
1, 190560, Note_on_c, 0, 65, 27
1, 190560, Note_on_c, 0, 68, 27
1, 190800, Note_on_c, 0, 68, 0
1, 190800, Note_on_c, 0, 65, 0
1, 190800, Note_on_c, 0, 73, 31
1, 191040, Tempo, 340599
1, 191040, Note_on_c, 0, 73, 0
1, 191040, Note_on_c, 0, 78, 31
1, 191040, Note_on_c, 0, 83, 37
1, 191056, Control_c, 0, 64, 0
1, 191160, Control_c, 0, 64, 127
1, 191280, Tempo, 335796
1, 191280, Note_on_c, 0, 83, 0
1, 191280, Note_on_c, 0, 78, 0
1, 191280, Note_on_c, 0, 75, 31
1, 191520, Note_on_c, 0, 75, 0
1, 191520, Note_on_c, 0, 63, 24
1, 191520, Note_on_c, 0, 66, 24
1, 191760, Tempo, 343840
1, 191760, Note_on_c, 0, 66, 0
1, 191760, Note_on_c, 0, 63, 0
1, 191760, Note_on_c, 0, 71, 28
1, 192000, Tempo, 342564
1, 192000, Note_on_c, 0, 71, 0
1, 192000, Note_on_c, 0, 59, 0
1, 192000, Note_on_c, 0, 82, 36
1, 192000, Note_on_c, 0, 77, 30
1, 192000, Note_on_c, 0, 56, 34
1, 192010, Control_c, 0, 64, 0
1, 192126, Control_c, 0, 64, 127
1, 192240, Tempo, 331492
1, 192240, Note_on_c, 0, 77, 0
1, 192240, Note_on_c, 0, 82, 0
1, 192240, Note_on_c, 0, 74, 29
1, 192480, Tempo, 335796
1, 192480, Note_on_c, 0, 74, 0
1, 192480, Note_on_c, 0, 62, 25
1, 192480, Note_on_c, 0, 65, 25
1, 192720, Tempo, 331492
1, 192720, Note_on_c, 0, 65, 0
1, 192720, Note_on_c, 0, 62, 0
1, 192720, Note_on_c, 0, 70, 29
1, 192960, Tempo, 340599
1, 192960, Note_on_c, 0, 70, 0
1, 192960, Note_on_c, 0, 78, 31
1, 192960, Note_on_c, 0, 83, 37
1, 192976, Control_c, 0, 64, 0
1, 193143, Control_c, 0, 64, 127
1, 193200, Tempo, 335796
1, 193200, Note_on_c, 0, 83, 0
1, 193200, Note_on_c, 0, 78, 0
1, 193200, Note_on_c, 0, 75, 31
1, 193440, Tempo, 339635
1, 193440, Note_on_c, 0, 75, 0
1, 193440, Note_on_c, 0, 63, 25
1, 193440, Note_on_c, 0, 66, 25
1, 193680, Tempo, 341880
1, 193680, Note_on_c, 0, 66, 0
1, 193680, Note_on_c, 0, 63, 0
1, 193680, Note_on_c, 0, 71, 30
1, 193920, Tempo, 342564
1, 193920, Note_on_c, 0, 71, 0
1, 193920, Note_on_c, 0, 56, 0
1, 193920, Note_on_c, 0, 85, 39
1, 193920, Note_on_c, 0, 80, 33
1, 193920, Note_on_c, 0, 59, 37
1, 193928, Control_c, 0, 64, 0
1, 194023, Control_c, 0, 64, 127
1, 194160, Tempo, 335796
1, 194160, Note_on_c, 0, 80, 0
1, 194160, Note_on_c, 0, 85, 0
1, 194160, Note_on_c, 0, 77, 31
1, 194400, Tempo, 338677
1, 194400, Note_on_c, 0, 77, 0
1, 194400, Note_on_c, 0, 65, 27
1, 194400, Note_on_c, 0, 68, 27
1, 194640, Note_on_c, 0, 68, 0
1, 194640, Note_on_c, 0, 65, 0
1, 194640, Note_on_c, 0, 73, 31
1, 194880, Tempo, 342564
1, 194880, Note_on_c, 0, 73, 0
1, 194880, Note_on_c, 0, 80, 33
1, 194880, Note_on_c, 0, 85, 39
1, 195120, Tempo, 335796
1, 195120, Note_on_c, 0, 85, 0
1, 195120, Note_on_c, 0, 80, 0
1, 195120, Note_on_c, 0, 77, 31
1, 195360, Tempo, 338677
1, 195360, Note_on_c, 0, 77, 0
1, 195360, Note_on_c, 0, 65, 27
1, 195360, Note_on_c, 0, 68, 27
1, 195600, Note_on_c, 0, 68, 0
1, 195600, Note_on_c, 0, 65, 0
1, 195600, Note_on_c, 0, 73, 31
1, 195840, Tempo, 334262
1, 195840, Note_on_c, 0, 73, 0
1, 195840, Note_on_c, 0, 85, 40
1, 195840, Note_on_c, 0, 80, 34
1, 196080, Tempo, 330579
1, 196080, Note_on_c, 0, 80, 0
1, 196080, Note_on_c, 0, 85, 0
1, 196080, Note_on_c, 0, 77, 32
1, 196320, Tempo, 335196
1, 196320, Note_on_c, 0, 77, 0
1, 196320, Note_on_c, 0, 65, 28
1, 196320, Note_on_c, 0, 68, 28
1, 196560, Note_on_c, 0, 68, 0
1, 196560, Note_on_c, 0, 65, 0
1, 196560, Note_on_c, 0, 73, 32
1, 196800, Tempo, 332410
1, 196800, Note_on_c, 0, 73, 0
1, 196800, Note_on_c, 0, 80, 34
1, 196800, Note_on_c, 0, 85, 40
1, 197040, Tempo, 328767
1, 197040, Note_on_c, 0, 85, 0
1, 197040, Note_on_c, 0, 80, 0
1, 197040, Note_on_c, 0, 77, 32
1, 197280, Tempo, 341880
1, 197280, Note_on_c, 0, 77, 0
1, 197280, Note_on_c, 0, 65, 28
1, 197280, Note_on_c, 0, 68, 28
1, 197520, Note_on_c, 0, 68, 0
1, 197520, Note_on_c, 0, 65, 0
1, 197520, Note_on_c, 0, 73, 32
1, 197760, Tempo, 342564
1, 197760, Note_on_c, 0, 73, 0
1, 197760, Note_on_c, 0, 59, 0
1, 197760, Note_on_c, 0, 85, 36
1, 197760, Note_on_c, 0, 81, 30
1, 197760, Control_c, 0, 64, 0
1, 197955, Control_c, 0, 64, 127
1, 198000, Tempo, 335796
1, 198000, Note_on_c, 0, 81, 0
1, 198000, Note_on_c, 0, 85, 0
1, 198000, Note_on_c, 0, 77, 28
1, 198240, Tempo, 338677
1, 198240, Note_on_c, 0, 77, 0
1, 198240, Note_on_c, 0, 65, 25
1, 198240, Note_on_c, 0, 69, 25
1, 198480, Note_on_c, 0, 69, 0
1, 198480, Note_on_c, 0, 65, 0
1, 198480, Note_on_c, 0, 73, 27
1, 198720, Tempo, 342564
1, 198720, Note_on_c, 0, 73, 0
1, 198720, Note_on_c, 0, 81, 30
1, 198720, Note_on_c, 0, 85, 36
1, 198960, Tempo, 335796
1, 198960, Note_on_c, 0, 85, 0
1, 198960, Note_on_c, 0, 81, 0
1, 198960, Note_on_c, 0, 77, 28
1, 199200, Tempo, 338677
1, 199200, Note_on_c, 0, 77, 0
1, 199200, Note_on_c, 0, 65, 25
1, 199200, Note_on_c, 0, 69, 25
1, 199440, Note_on_c, 0, 69, 0
1, 199440, Note_on_c, 0, 65, 0
1, 199440, Note_on_c, 0, 73, 27
1, 199680, Tempo, 346821
1, 199680, Note_on_c, 0, 73, 0
1, 199680, Note_on_c, 0, 85, 34
1, 199680, Note_on_c, 0, 81, 28
1, 199920, Tempo, 338983
1, 199920, Note_on_c, 0, 81, 0
1, 199920, Note_on_c, 0, 85, 0
1, 199920, Note_on_c, 0, 77, 26
1, 200160, Tempo, 343840
1, 200160, Note_on_c, 0, 77, 0
1, 200160, Note_on_c, 0, 65, 22
1, 200160, Note_on_c, 0, 69, 22
1, 200400, Note_on_c, 0, 69, 0
1, 200400, Note_on_c, 0, 65, 0
1, 200400, Note_on_c, 0, 73, 24
1, 200640, Tempo, 347826
1, 200640, Note_on_c, 0, 73, 0
1, 200640, Note_on_c, 0, 81, 27
1, 200640, Note_on_c, 0, 85, 32
1, 200880, Tempo, 339943
1, 200880, Note_on_c, 0, 85, 0
1, 200880, Note_on_c, 0, 81, 0
1, 200880, Note_on_c, 0, 77, 25
1, 201120, Tempo, 358209
1, 201120, Note_on_c, 0, 77, 0
1, 201120, Note_on_c, 0, 65, 21
1, 201120, Note_on_c, 0, 69, 21
1, 201360, Note_on_c, 0, 69, 0
1, 201360, Note_on_c, 0, 65, 0
1, 201360, Note_on_c, 0, 73, 23
1, 201600, Tempo, 345742
1, 201600, Note_on_c, 0, 73, 0
1, 201600, Note_on_c, 0, 85, 31
1, 201600, Control_c, 0, 64, 0
1, 201600, Note_on_c, 0, 64, 35
1, 201600, Note_on_c, 0, 66, 43
1, 201720, Note_on_c, 0, 66, 0
1, 201840, Note_on_c, 0, 85, 0
1, 201840, Note_on_c, 0, 81, 29
1, 202080, Tempo, 337857
1, 202080, Note_on_c, 0, 81, 0
1, 202080, Note_on_c, 0, 76, 29
1, 202080, Note_on_c, 0, 73, 43
1, 202260, Note_on_c, 0, 73, 0
1, 202320, Note_on_c, 0, 76, 0
1, 202320, Note_on_c, 0, 73, 31
1, 202560, Tempo, 341219
1, 202560, Note_on_c, 0, 73, 0
1, 202560, Note_on_c, 0, 85, 31
1, 202560, Note_on_c, 0, 71, 44
1, 202800, Tempo, 331254
1, 202800, Note_on_c, 0, 85, 0
1, 202800, Note_on_c, 0, 81, 29
1, 203040, Note_on_c, 0, 81, 0
1, 203040, Note_on_c, 0, 76, 29
1, 203280, Tempo, 335008
1, 203280, Note_on_c, 0, 76, 0
1, 203280, Note_on_c, 0, 73, 30
1, 203520, Tempo, 337306
1, 203520, Note_on_c, 0, 73, 0
1, 203520, Note_on_c, 0, 64, 0
1, 203520, Note_on_c, 0, 85, 31
1, 203520, Note_on_c, 0, 63, 35
1, 203760, Tempo, 330342
1, 203760, Note_on_c, 0, 85, 0
1, 203760, Note_on_c, 0, 81, 29
1, 204000, Note_on_c, 0, 81, 0
1, 204000, Note_on_c, 0, 71, 0
1, 204000, Note_on_c, 0, 78, 29
1, 204000, Note_on_c, 0, 69, 42
1, 204180, Note_on_c, 0, 69, 0
1, 204240, Tempo, 338276
1, 204240, Note_on_c, 0, 78, 0
1, 204240, Note_on_c, 0, 73, 29
1, 204240, Note_on_c, 0, 68, 42
1, 204420, Note_on_c, 0, 68, 0
1, 204480, Tempo, 342212
1, 204480, Note_on_c, 0, 73, 0
1, 204480, Note_on_c, 0, 63, 0
1, 204480, Note_on_c, 0, 85, 31
1, 204480, Note_on_c, 0, 62, 35
1, 204480, Note_on_c, 0, 66, 44
1, 204720, Tempo, 338276
1, 204720, Note_on_c, 0, 85, 0
1, 204720, Note_on_c, 0, 81, 29
1, 204880, Note_on_c, 0, 66, 0
1, 204960, Note_on_c, 0, 81, 0
1, 204960, Note_on_c, 0, 78, 29
1, 204960, Note_on_c, 0, 64, 42
1, 205140, Note_on_c, 0, 64, 0
1, 205200, Tempo, 340232
1, 205200, Note_on_c, 0, 78, 0
1, 205200, Note_on_c, 0, 62, 0
1, 205200, Note_on_c, 0, 73, 29
1, 205200, Note_on_c, 0, 62, 42
1, 205380, Note_on_c, 0, 62, 0
1, 205440, Tempo, 346240
1, 205440, Note_on_c, 0, 73, 0
1, 205440, Note_on_c, 0, 85, 31
1, 205440, Note_on_c, 0, 54, 35
1, 205440, Note_on_c, 0, 61, 44
1, 205680, Tempo, 338276
1, 205680, Note_on_c, 0, 85, 0
1, 205680, Note_on_c, 0, 81, 29
1, 205910, Note_on_c, 0, 61, 0
1, 205920, Tempo, 335383
1, 205920, Note_on_c, 0, 81, 0
1, 205920, Note_on_c, 0, 78, 29
1, 205920, Note_on_c, 0, 62, 42
1, 206100, Note_on_c, 0, 62, 0
1, 206160, Note_on_c, 0, 78, 0
1, 206160, Note_on_c, 0, 73, 29
1, 206160, Note_on_c, 0, 64, 42
1, 206340, Note_on_c, 0, 64, 0
1, 206400, Tempo, 330579
1, 206400, Note_on_c, 0, 73, 0
1, 206400, Note_on_c, 0, 54, 0
1, 206400, Note_on_c, 0, 85, 31
1, 206400, Note_on_c, 0, 57, 37
1, 206400, Note_on_c, 0, 66, 45
1, 206640, Note_on_c, 0, 66, 0
1, 206640, Note_on_c, 0, 57, 0
1, 206640, Note_on_c, 0, 85, 0
1, 206640, Note_on_c, 0, 81, 29
1, 206880, Tempo, 333463
1, 206880, Note_on_c, 0, 81, 0
1, 206880, Note_on_c, 0, 78, 29
1, 206880, Note_on_c, 0, 59, 35
1, 206880, Note_on_c, 0, 69, 43
1, 207120, Tempo, 342857
1, 207120, Note_on_c, 0, 69, 0
1, 207120, Note_on_c, 0, 59, 0
1, 207120, Note_on_c, 0, 78, 0
1, 207120, Note_on_c, 0, 73, 29
1, 207360, Tempo, 340232
1, 207360, Note_on_c, 0, 73, 0
1, 207360, Note_on_c, 0, 85, 32
1, 207360, Note_on_c, 0, 61, 37
1, 207360, Note_on_c, 0, 68, 45
1, 207600, Tempo, 332189
1, 207600, Note_on_c, 0, 85, 0
1, 207600, Note_on_c, 0, 83, 30
1, 207840, Note_on_c, 0, 83, 0
1, 207840, Note_on_c, 0, 78, 30
1, 208080, Note_on_c, 0, 78, 0
1, 208080, Note_on_c, 0, 73, 30
1, 208320, Tempo, 339251
1, 208320, Note_on_c, 0, 73, 0
1, 208320, Note_on_c, 0, 85, 32
1, 208560, Tempo, 343230
1, 208560, Note_on_c, 0, 85, 0
1, 208560, Note_on_c, 0, 83, 30
1, 208800, Tempo, 338983
1, 208800, Note_on_c, 0, 83, 0
1, 208800, Note_on_c, 0, 77, 30
1, 209040, Tempo, 355030
1, 209040, Note_on_c, 0, 77, 0
1, 209040, Note_on_c, 0, 73, 30
1, 209280, Tempo, 346821
1, 209280, Note_on_c, 0, 73, 0
1, 209280, Note_on_c, 0, 68, 0
1, 209280, Note_on_c, 0, 61, 0
1, 209280, Note_on_c, 0, 45, 43
1, 209370, Note_on_c, 0, 45, 0
1, 209520, Tempo, 338983
1, 209520, Note_on_c, 0, 66, 37
1, 209520, Note_on_c, 0, 54, 35
1, 209610, Note_on_c, 0, 54, 0
1, 209700, Note_on_c, 0, 66, 0
1, 209760, Tempo, 334262
1, 209760, Note_on_c, 0, 68, 38
1, 209760, Note_on_c, 0, 61, 35
1, 209850, Note_on_c, 0, 61, 0
1, 209940, Note_on_c, 0, 68, 0
1, 210000, Tempo, 338983
1, 210000, Note_on_c, 0, 69, 40
1, 210000, Note_on_c, 0, 54, 35
1, 210090, Note_on_c, 0, 54, 0
1, 210180, Note_on_c, 0, 69, 0
1, 210240, Tempo, 339117
1, 210240, Note_on_c, 0, 66, 45
1, 210240, Note_on_c, 0, 71, 47
1, 210240, Note_on_c, 0, 44, 38
1, 210330, Note_on_c, 0, 44, 0
1, 210480, Note_on_c, 0, 49, 35
1, 210570, Note_on_c, 0, 49, 0
1, 210720, Tempo, 342075
1, 210720, Note_on_c, 0, 66, 0
1, 210720, Note_on_c, 0, 65, 45
1, 210720, Note_on_c, 0, 59, 35
1, 210810, Note_on_c, 0, 59, 0
1, 210960, Note_on_c, 0, 49, 35
1, 211050, Note_on_c, 0, 49, 0
1, 211200, Tempo, 337192
1, 211200, Note_on_c, 0, 65, 0
1, 211200, Note_on_c, 0, 61, 45
1, 211200, Note_on_c, 0, 42, 40
1, 211290, Note_on_c, 0, 42, 0
1, 211420, Note_on_c, 0, 71, 0
1, 211440, Tempo, 335270
1, 211440, Note_on_c, 0, 69, 46
1, 211440, Note_on_c, 0, 49, 36
1, 211530, Note_on_c, 0, 49, 0
1, 211680, Tempo, 332447
1, 211680, Note_on_c, 0, 69, 0
1, 211680, Note_on_c, 0, 61, 0
1, 211680, Note_on_c, 0, 71, 47
1, 211680, Note_on_c, 0, 57, 37
1, 211770, Note_on_c, 0, 57, 0
1, 211920, Tempo, 341880
1, 211920, Note_on_c, 0, 71, 0
1, 211920, Note_on_c, 0, 73, 47
1, 211920, Note_on_c, 0, 49, 38
1, 212010, Note_on_c, 0, 49, 0
1, 212160, Tempo, 340117
1, 212160, Note_on_c, 0, 73, 0
1, 212160, Note_on_c, 0, 74, 52
1, 212160, Note_on_c, 0, 69, 52
1, 212160, Note_on_c, 0, 47, 43
1, 212250, Note_on_c, 0, 47, 0
1, 212400, Note_on_c, 0, 52, 42
1, 212490, Note_on_c, 0, 52, 0
1, 212640, Tempo, 342075
1, 212640, Note_on_c, 0, 69, 0
1, 212640, Note_on_c, 0, 68, 47
1, 212640, Note_on_c, 0, 62, 42
1, 212730, Note_on_c, 0, 62, 0
1, 212880, Note_on_c, 0, 52, 42
1, 212970, Note_on_c, 0, 52, 0
1, 213120, Note_on_c, 0, 68, 0
1, 213120, Note_on_c, 0, 64, 48
1, 213120, Note_on_c, 0, 45, 45
1, 213210, Note_on_c, 0, 45, 0
1, 213340, Note_on_c, 0, 74, 0
1, 213360, Tempo, 348149
1, 213360, Note_on_c, 0, 73, 53
1, 213360, Note_on_c, 0, 52, 46
1, 213395, Control_c, 0, 64, 127
1, 213450, Note_on_c, 0, 52, 0
1, 213600, Tempo, 343840
1, 213600, Note_on_c, 0, 73, 0
1, 213600, Note_on_c, 0, 64, 0
1, 213600, Note_on_c, 0, 74, 57
1, 213600, Note_on_c, 0, 57, 49
1, 213690, Note_on_c, 0, 57, 0
1, 213840, Tempo, 363636
1, 213840, Note_on_c, 0, 74, 0
1, 213840, Note_on_c, 0, 76, 63
1, 213840, Note_on_c, 0, 61, 50
1, 213930, Note_on_c, 0, 61, 0
1, 214080, Tempo, 342075
1, 214080, Note_on_c, 0, 76, 0
1, 214080, Note_on_c, 0, 74, 64
1, 214080, Note_on_c, 0, 78, 64
1, 214080, Note_on_c, 0, 50, 54
1, 214115, Control_c, 0, 64, 0
1, 214170, Note_on_c, 0, 50, 0
1, 214320, Tempo, 338983
1, 214320, Note_on_c, 0, 57, 46
1, 214410, Note_on_c, 0, 57, 0
1, 214560, Note_on_c, 0, 62, 45
1, 214650, Note_on_c, 0, 62, 0
1, 214800, Note_on_c, 0, 66, 45
1, 214890, Note_on_c, 0, 66, 0
1, 215040, Tempo, 345821
1, 215040, Note_on_c, 0, 57, 42
1, 215130, Note_on_c, 0, 57, 0
1, 215280, Tempo, 338983
1, 215280, Note_on_c, 0, 62, 37
1, 215370, Note_on_c, 0, 62, 0
1, 215520, Note_on_c, 0, 66, 37
1, 215610, Note_on_c, 0, 66, 0
1, 215760, Note_on_c, 0, 69, 37
1, 215880, Note_on_c, 0, 69, 0
1, 216000, Note_on_c, 0, 78, 0
1, 216000, Note_on_c, 0, 74, 0
1, 216000, Note_on_c, 0, 66, 56
1, 216240, Note_on_c, 0, 62, 37
1, 216360, Note_on_c, 0, 62, 0
1, 216480, Note_on_c, 0, 61, 36
1, 216600, Note_on_c, 0, 61, 0
1, 216720, Note_on_c, 0, 59, 36
1, 216840, Note_on_c, 0, 59, 0
1, 216960, Tempo, 347826
1, 216960, Note_on_c, 0, 57, 46
1, 216980, Tempo, 339597
1, 217050, Note_on_c, 0, 57, 0
1, 217200, Note_on_c, 0, 61, 36
1, 217290, Note_on_c, 0, 61, 0
1, 217320, Note_on_c, 0, 66, 0
1, 217440, Tempo, 348716
1, 217440, Note_on_c, 0, 73, 53
1, 217440, Note_on_c, 0, 57, 41
1, 217530, Note_on_c, 0, 57, 0
1, 217560, Note_on_c, 0, 73, 0
1, 217680, Note_on_c, 0, 54, 36
1, 217770, Note_on_c, 0, 54, 0
1, 217920, Tempo, 345622
1, 217920, Note_on_c, 0, 71, 56
1, 217920, Note_on_c, 0, 56, 46
1, 218010, Note_on_c, 0, 56, 0
1, 218160, Tempo, 335721
1, 218160, Note_on_c, 0, 59, 36
1, 218250, Note_on_c, 0, 59, 0
1, 218400, Note_on_c, 0, 64, 42
1, 218490, Note_on_c, 0, 64, 0
1, 218640, Tempo, 338639
1, 218640, Note_on_c, 0, 54, 36
1, 218730, Note_on_c, 0, 54, 0
1, 218880, Tempo, 340599
1, 218880, Note_on_c, 0, 52, 46
1, 218970, Note_on_c, 0, 52, 0
1, 219120, Tempo, 335721
1, 219120, Note_on_c, 0, 59, 35
1, 219210, Note_on_c, 0, 59, 0
1, 219360, Tempo, 331895
1, 219360, Note_on_c, 0, 71, 0
1, 219360, Note_on_c, 0, 69, 54
1, 219360, Note_on_c, 0, 64, 39
1, 219450, Note_on_c, 0, 64, 0
1, 219540, Note_on_c, 0, 69, 0
1, 219600, Tempo, 337648
1, 219600, Note_on_c, 0, 68, 54
1, 219600, Note_on_c, 0, 59, 34
1, 219690, Note_on_c, 0, 59, 0
1, 219780, Note_on_c, 0, 68, 0
1, 219840, Tempo, 341588
1, 219840, Note_on_c, 0, 66, 56
1, 219840, Note_on_c, 0, 47, 43
1, 219930, Note_on_c, 0, 47, 0
1, 220080, Tempo, 337648
1, 220080, Note_on_c, 0, 56, 34
1, 220170, Note_on_c, 0, 56, 0
1, 220240, Note_on_c, 0, 66, 0
1, 220320, Tempo, 334747
1, 220320, Note_on_c, 0, 64, 54
1, 220320, Note_on_c, 0, 62, 36
1, 220410, Note_on_c, 0, 62, 0
1, 220500, Note_on_c, 0, 64, 0
1, 220560, Tempo, 339597
1, 220560, Note_on_c, 0, 62, 53
1, 220560, Note_on_c, 0, 52, 33
1, 220650, Note_on_c, 0, 52, 0
1, 220740, Note_on_c, 0, 62, 0
1, 220800, Tempo, 345622
1, 220800, Note_on_c, 0, 61, 56
1, 220800, Note_on_c, 0, 45, 41
1, 220890, Note_on_c, 0, 45, 0
1, 221040, Tempo, 337648
1, 221040, Note_on_c, 0, 52, 33
1, 221130, Note_on_c, 0, 52, 0
1, 221280, Tempo, 334747
1, 221280, Note_on_c, 0, 61, 0
1, 221280, Note_on_c, 0, 62, 55
1, 221280, Note_on_c, 0, 57, 38
1, 221370, Note_on_c, 0, 57, 0
1, 221520, Tempo, 337648
1, 221520, Note_on_c, 0, 62, 0
1, 221520, Note_on_c, 0, 64, 56
1, 221520, Note_on_c, 0, 52, 36
1, 221610, Note_on_c, 0, 52, 0
1, 221760, Tempo, 339597
1, 221760, Note_on_c, 0, 64, 0
1, 221760, Note_on_c, 0, 66, 62
1, 221760, Note_on_c, 0, 50, 47
1, 221850, Note_on_c, 0, 50, 0
1, 222000, Tempo, 336681
1, 222000, Note_on_c, 0, 57, 38
1, 222090, Note_on_c, 0, 57, 0
1, 222240, Note_on_c, 0, 66, 0
1, 222240, Note_on_c, 0, 69, 63
1, 222240, Note_on_c, 0, 62, 44
1, 222330, Note_on_c, 0, 62, 0
1, 222480, Tempo, 349752
1, 222480, Note_on_c, 0, 49, 40
1, 222570, Note_on_c, 0, 49, 0
1, 222720, Tempo, 341588
1, 222720, Note_on_c, 0, 69, 0
1, 222720, Note_on_c, 0, 66, 68
1, 222720, Note_on_c, 0, 68, 68
1, 222720, Note_on_c, 0, 48, 55
1, 222810, Note_on_c, 0, 48, 0
1, 222960, Tempo, 335721
1, 222960, Note_on_c, 0, 56, 42
1, 223050, Note_on_c, 0, 56, 0
1, 223200, Tempo, 331895
1, 223200, Note_on_c, 0, 63, 48
1, 223290, Note_on_c, 0, 63, 0
1, 223440, Note_on_c, 0, 56, 42
1, 223530, Note_on_c, 0, 56, 0
1, 223680, Tempo, 339597
1, 223680, Note_on_c, 0, 48, 49
1, 223770, Note_on_c, 0, 48, 0
1, 223920, Tempo, 335721
1, 223920, Note_on_c, 0, 56, 38
1, 224010, Note_on_c, 0, 56, 0
1, 224160, Tempo, 330980
1, 224160, Note_on_c, 0, 63, 45
1, 224250, Note_on_c, 0, 63, 0
1, 224400, Note_on_c, 0, 56, 39
1, 224490, Note_on_c, 0, 56, 0
1, 224640, Tempo, 338639
1, 224640, Note_on_c, 0, 48, 46
1, 224730, Note_on_c, 0, 48, 0
1, 224880, Tempo, 332853
1, 224880, Note_on_c, 0, 56, 36
1, 224970, Note_on_c, 0, 56, 0
1, 225120, Tempo, 330980
1, 225120, Note_on_c, 0, 63, 41
1, 225210, Note_on_c, 0, 63, 0
1, 225360, Note_on_c, 0, 56, 36
1, 225450, Note_on_c, 0, 56, 0
1, 225600, Tempo, 337648
1, 225600, Note_on_c, 0, 68, 0
1, 225600, Note_on_c, 0, 66, 0
1, 225600, Note_on_c, 0, 69, 61
1, 225600, Note_on_c, 0, 66, 61
1, 225600, Note_on_c, 0, 49, 50
1, 225640, Control_c, 0, 64, 127
1, 225690, Note_on_c, 0, 49, 0
1, 225840, Tempo, 332853
1, 225840, Note_on_c, 0, 57, 46
1, 225930, Note_on_c, 0, 57, 0
1, 226080, Tempo, 343584
1, 226080, Note_on_c, 0, 66, 0
1, 226080, Note_on_c, 0, 69, 0
1, 226080, Note_on_c, 0, 76, 60
1, 226080, Note_on_c, 0, 80, 60
1, 226080, Note_on_c, 0, 64, 50
1, 226109, Control_c, 0, 64, 0
1, 226170, Note_on_c, 0, 64, 0
1, 226200, Note_on_c, 0, 80, 0
1, 226200, Note_on_c, 0, 76, 0
1, 226320, Note_on_c, 0, 57, 48
1, 226410, Note_on_c, 0, 57, 0
1, 226560, Tempo, 338639
1, 226560, Note_on_c, 0, 66, 59
1, 226560, Note_on_c, 0, 68, 59
1, 226560, Note_on_c, 0, 48, 50
1, 226650, Note_on_c, 0, 48, 0
1, 226800, Tempo, 333797
1, 226800, Note_on_c, 0, 56, 39
1, 226890, Note_on_c, 0, 56, 0
1, 227040, Note_on_c, 0, 68, 0
1, 227040, Note_on_c, 0, 66, 0
1, 227040, Note_on_c, 0, 63, 45
1, 227130, Note_on_c, 0, 63, 0
1, 227280, Note_on_c, 0, 56, 39
1, 227370, Note_on_c, 0, 56, 0
1, 227520, Tempo, 337648
1, 227520, Note_on_c, 0, 66, 53
1, 227520, Note_on_c, 0, 62, 53
1, 227520, Note_on_c, 0, 47, 50
1, 227554, Control_c, 0, 64, 127
1, 227610, Note_on_c, 0, 47, 0
1, 227760, Tempo, 332853
1, 227760, Note_on_c, 0, 52, 46
1, 227850, Note_on_c, 0, 52, 0
1, 228000, Tempo, 343584
1, 228000, Note_on_c, 0, 62, 0
1, 228000, Note_on_c, 0, 66, 0
1, 228000, Note_on_c, 0, 76, 57
1, 228000, Note_on_c, 0, 73, 57
1, 228000, Note_on_c, 0, 56, 50
1, 228000, Note_on_c, 0, 62, 50
1, 228029, Control_c, 0, 64, 0
1, 228090, Note_on_c, 0, 62, 0
1, 228090, Note_on_c, 0, 56, 0
1, 228120, Note_on_c, 0, 73, 0
1, 228120, Note_on_c, 0, 76, 0
1, 228240, Note_on_c, 0, 52, 48
1, 228330, Note_on_c, 0, 52, 0
1, 228480, Tempo, 338639
1, 228480, Note_on_c, 0, 61, 55
1, 228480, Note_on_c, 0, 64, 55
1, 228480, Note_on_c, 0, 45, 50
1, 228570, Note_on_c, 0, 45, 0
1, 228720, Tempo, 333797
1, 228720, Note_on_c, 0, 52, 42
1, 228810, Note_on_c, 0, 52, 0
1, 228960, Note_on_c, 0, 64, 0
1, 228960, Note_on_c, 0, 61, 0
1, 228960, Note_on_c, 0, 57, 47
1, 229050, Note_on_c, 0, 57, 0
1, 229200, Note_on_c, 0, 52, 44
1, 229290, Note_on_c, 0, 52, 0
1, 229440, Tempo, 337648
1, 229440, Note_on_c, 0, 59, 66
1, 229440, Note_on_c, 0, 63, 66
1, 229440, Note_on_c, 0, 42, 55
1, 229465, Control_c, 0, 64, 127
1, 229530, Note_on_c, 0, 42, 0
1, 229680, Tempo, 332853
1, 229680, Note_on_c, 0, 47, 50
1, 229770, Note_on_c, 0, 47, 0
1, 229920, Tempo, 343584
1, 229920, Note_on_c, 0, 63, 0
1, 229920, Note_on_c, 0, 59, 0
1, 229920, Note_on_c, 0, 69, 69
1, 229920, Note_on_c, 0, 73, 69
1, 229920, Note_on_c, 0, 57, 55
1, 229952, Control_c, 0, 64, 0
1, 230010, Note_on_c, 0, 57, 0
1, 230070, Note_on_c, 0, 73, 0
1, 230070, Note_on_c, 0, 69, 0
1, 230160, Note_on_c, 0, 47, 52
1, 230250, Note_on_c, 0, 47, 0
1, 230400, Tempo, 338639
1, 230400, Note_on_c, 0, 61, 69
1, 230400, Note_on_c, 0, 56, 69
1, 230400, Note_on_c, 0, 37, 66
1, 230490, Note_on_c, 0, 37, 0
1, 230640, Tempo, 333797
1, 230640, Note_on_c, 0, 44, 57
1, 230730, Note_on_c, 0, 44, 0
1, 230880, Note_on_c, 0, 53, 61
1, 230970, Note_on_c, 0, 53, 0
1, 231120, Note_on_c, 0, 44, 57
1, 231210, Note_on_c, 0, 44, 0
1, 231360, Tempo, 337648
1, 231360, Note_on_c, 0, 37, 66
1, 231450, Note_on_c, 0, 37, 0
1, 231600, Note_on_c, 0, 44, 57
1, 231620, Tempo, 333797
1, 231690, Note_on_c, 0, 44, 0
1, 231840, Note_on_c, 0, 53, 61
1, 231930, Note_on_c, 0, 53, 0
1, 232080, Note_on_c, 0, 44, 57
1, 232170, Note_on_c, 0, 44, 0
1, 232261, Tempo, 341880
1, 232320, Note_on_c, 0, 37, 66
1, 232410, Note_on_c, 0, 37, 0
1, 232560, Note_on_c, 0, 44, 57
1, 232650, Note_on_c, 0, 44, 0
1, 232800, Note_on_c, 0, 53, 61
1, 232890, Note_on_c, 0, 53, 0
1, 233040, Note_on_c, 0, 44, 57
1, 233130, Note_on_c, 0, 44, 0
1, 233260, Note_on_c, 0, 56, 0
1, 233260, Note_on_c, 0, 61, 0
1, 233280, Tempo, 337648
1, 233280, Note_on_c, 0, 59, 47
1, 233280, Note_on_c, 0, 55, 47
1, 233280, Note_on_c, 0, 37, 46
1, 233301, Control_c, 0, 64, 127
1, 233370, Note_on_c, 0, 37, 0
1, 233520, Tempo, 332853
1, 233520, Note_on_c, 0, 45, 42
1, 233610, Note_on_c, 0, 45, 0
1, 233760, Tempo, 343584
1, 233760, Note_on_c, 0, 55, 0
1, 233760, Note_on_c, 0, 59, 0
1, 233760, Note_on_c, 0, 67, 51
1, 233760, Note_on_c, 0, 71, 51
1, 233760, Note_on_c, 0, 52, 46
1, 233767, Control_c, 0, 64, 0
1, 233850, Note_on_c, 0, 52, 0
1, 233910, Note_on_c, 0, 71, 0
1, 233910, Note_on_c, 0, 67, 0
1, 234000, Note_on_c, 0, 45, 44
1, 234090, Note_on_c, 0, 45, 0
1, 234240, Tempo, 338639
1, 234240, Note_on_c, 0, 61, 50
1, 234240, Note_on_c, 0, 56, 50
1, 234240, Note_on_c, 0, 37, 48
1, 234330, Note_on_c, 0, 37, 0
1, 234480, Tempo, 333797
1, 234480, Note_on_c, 0, 44, 40
1, 234570, Note_on_c, 0, 44, 0
1, 234720, Note_on_c, 0, 53, 43
1, 234810, Note_on_c, 0, 53, 0
1, 234960, Note_on_c, 0, 44, 39
1, 235050, Note_on_c, 0, 44, 0
1, 235200, Tempo, 337648
1, 235200, Note_on_c, 0, 37, 45
1, 235290, Note_on_c, 0, 37, 0
1, 235440, Note_on_c, 0, 44, 38
1, 235460, Tempo, 333797
1, 235530, Note_on_c, 0, 44, 0
1, 235680, Note_on_c, 0, 53, 41
1, 235770, Note_on_c, 0, 53, 0
1, 235920, Note_on_c, 0, 44, 37
1, 236010, Note_on_c, 0, 44, 0
1, 236101, Tempo, 341880
1, 236160, Tempo, 337648
1, 236160, Note_on_c, 0, 37, 43
1, 236250, Note_on_c, 0, 37, 0
1, 236400, Note_on_c, 0, 44, 37
1, 236420, Tempo, 333797
1, 236490, Note_on_c, 0, 44, 0
1, 236640, Note_on_c, 0, 53, 39
1, 236730, Note_on_c, 0, 53, 0
1, 236880, Note_on_c, 0, 44, 36
1, 236970, Note_on_c, 0, 44, 0
1, 237100, Note_on_c, 0, 56, 0
1, 237100, Note_on_c, 0, 61, 0
1, 237120, Tempo, 383387
1, 237120, Note_on_c, 0, 59, 38
1, 237120, Note_on_c, 0, 55, 38
1, 237120, Note_on_c, 0, 37, 39
1, 237149, Control_c, 0, 64, 127
1, 237210, Note_on_c, 0, 37, 0
1, 237360, Note_on_c, 0, 45, 35
1, 237450, Note_on_c, 0, 45, 0
1, 237600, Tempo, 410959
1, 237600, Note_on_c, 0, 55, 0
1, 237600, Note_on_c, 0, 59, 0
1, 237600, Note_on_c, 0, 67, 39
1, 237600, Note_on_c, 0, 71, 39
1, 237600, Note_on_c, 0, 52, 39
1, 237617, Control_c, 0, 64, 0
1, 237690, Note_on_c, 0, 52, 0
1, 237840, Note_on_c, 0, 45, 37
1, 237930, Note_on_c, 0, 45, 0
1, 237960, Note_on_c, 0, 71, 0
1, 237960, Note_on_c, 0, 67, 0
1, 238080, Tempo, 348554
1, 238080, Note_on_c, 0, 54, 39
1, 238080, Note_on_c, 0, 57, 39
1, 238080, Note_on_c, 0, 38, 28
1, 238151, Control_c, 0, 64, 127
1, 238320, Tempo, 345582
1, 238320, Note_on_c, 0, 38, 0
1, 238320, Note_on_c, 0, 57, 0
1, 238320, Note_on_c, 0, 54, 0
1, 238320, Note_on_c, 0, 45, 27
1, 238400, Note_on_c, 0, 54, 38
1, 238560, Note_on_c, 0, 45, 0
1, 238560, Note_on_c, 0, 50, 27
1, 238640, Note_on_c, 0, 54, 0
1, 238720, Note_on_c, 0, 54, 38
1, 238800, Note_on_c, 0, 50, 0
1, 238800, Note_on_c, 0, 45, 27
1, 238960, Note_on_c, 0, 54, 0
1, 239040, Tempo, 349569
1, 239040, Note_on_c, 0, 45, 0
1, 239040, Note_on_c, 0, 54, 41
1, 239040, Note_on_c, 0, 38, 28
1, 239280, Note_on_c, 0, 38, 0
1, 239280, Note_on_c, 0, 45, 26
1, 239520, Note_on_c, 0, 45, 0
1, 239520, Note_on_c, 0, 54, 0
1, 239520, Note_on_c, 0, 57, 38
1, 239520, Note_on_c, 0, 54, 38
1, 239520, Note_on_c, 0, 50, 26
1, 239760, Note_on_c, 0, 50, 0
1, 239760, Note_on_c, 0, 45, 26
1, 240000, Tempo, 349569
1, 240000, Note_on_c, 0, 45, 0
1, 240000, Note_on_c, 0, 54, 0
1, 240000, Note_on_c, 0, 57, 0
1, 240000, Note_on_c, 0, 54, 39
1, 240000, Note_on_c, 0, 59, 39
1, 240000, Note_on_c, 0, 38, 28
1, 240005, Control_c, 0, 64, 0
1, 240156, Control_c, 0, 64, 127
1, 240240, Tempo, 346580
1, 240240, Note_on_c, 0, 38, 0
1, 240240, Note_on_c, 0, 59, 0
1, 240240, Note_on_c, 0, 54, 0
1, 240240, Note_on_c, 0, 44, 25
1, 240320, Note_on_c, 0, 54, 39
1, 240320, Note_on_c, 0, 59, 39
1, 240480, Note_on_c, 0, 44, 0
1, 240480, Note_on_c, 0, 50, 25
1, 240560, Note_on_c, 0, 59, 0
1, 240560, Note_on_c, 0, 54, 0
1, 240640, Note_on_c, 0, 54, 39
1, 240640, Note_on_c, 0, 59, 39
1, 240720, Note_on_c, 0, 50, 0
1, 240720, Note_on_c, 0, 44, 25
1, 240880, Note_on_c, 0, 59, 0
1, 240880, Note_on_c, 0, 54, 0
1, 240960, Tempo, 348554
1, 240960, Note_on_c, 0, 44, 0
1, 240960, Note_on_c, 0, 54, 39
1, 240960, Note_on_c, 0, 59, 39
1, 240960, Note_on_c, 0, 38, 28
1, 240977, Control_c, 0, 64, 0
1, 241200, Tempo, 344610
1, 241200, Note_on_c, 0, 38, 0
1, 241200, Note_on_c, 0, 59, 0
1, 241200, Note_on_c, 0, 54, 0
1, 241200, Note_on_c, 0, 44, 25
1, 241228, Control_c, 0, 64, 127
1, 241280, Note_on_c, 0, 54, 38
1, 241280, Note_on_c, 0, 61, 38
1, 241440, Note_on_c, 0, 44, 0
1, 241440, Note_on_c, 0, 50, 25
1, 241520, Note_on_c, 0, 61, 0
1, 241520, Note_on_c, 0, 54, 0
1, 241600, Note_on_c, 0, 54, 38
1, 241600, Note_on_c, 0, 59, 38
1, 241680, Note_on_c, 0, 50, 0
1, 241680, Note_on_c, 0, 44, 25
1, 241840, Note_on_c, 0, 59, 0
1, 241840, Note_on_c, 0, 54, 0
1, 241920, Tempo, 349569
1, 241920, Note_on_c, 0, 44, 0
1, 241920, Note_on_c, 0, 54, 39
1, 241920, Note_on_c, 0, 57, 39
1, 241920, Control_c, 0, 64, 0
1, 241920, Note_on_c, 0, 38, 28
1, 242076, Control_c, 0, 64, 127
1, 242160, Tempo, 342681
1, 242160, Note_on_c, 0, 38, 0
1, 242160, Note_on_c, 0, 57, 0
1, 242160, Note_on_c, 0, 54, 0
1, 242160, Note_on_c, 0, 45, 27
1, 242240, Note_on_c, 0, 54, 38
1, 242400, Note_on_c, 0, 45, 0
1, 242400, Note_on_c, 0, 50, 27
1, 242480, Note_on_c, 0, 54, 0
1, 242560, Note_on_c, 0, 54, 38
1, 242640, Note_on_c, 0, 50, 0
1, 242640, Note_on_c, 0, 45, 27
1, 242800, Note_on_c, 0, 54, 0
1, 242880, Tempo, 348554
1, 242880, Note_on_c, 0, 45, 0
1, 242880, Note_on_c, 0, 54, 39
1, 242880, Note_on_c, 0, 38, 28
1, 243120, Note_on_c, 0, 38, 0
1, 243120, Note_on_c, 0, 45, 25
1, 243360, Tempo, 351576
1, 243360, Note_on_c, 0, 45, 0
1, 243360, Note_on_c, 0, 54, 0
1, 243360, Note_on_c, 0, 57, 39
1, 243360, Note_on_c, 0, 54, 39
1, 243360, Note_on_c, 0, 50, 25
1, 243600, Note_on_c, 0, 50, 0
1, 243600, Note_on_c, 0, 45, 25
1, 243840, Tempo, 348554
1, 243840, Note_on_c, 0, 45, 0
1, 243840, Note_on_c, 0, 54, 0
1, 243840, Note_on_c, 0, 57, 0
1, 243840, Note_on_c, 0, 56, 39
1, 243840, Note_on_c, 0, 54, 39
1, 243840, Control_c, 0, 64, 0
1, 243840, Note_on_c, 0, 38, 37
1, 244010, Control_c, 0, 64, 127
1, 244080, Tempo, 341705
1, 244080, Note_on_c, 0, 38, 0
1, 244080, Note_on_c, 0, 47, 33
1, 244320, Note_on_c, 0, 47, 0
1, 244320, Note_on_c, 0, 50, 33
1, 244560, Note_on_c, 0, 50, 0
1, 244560, Note_on_c, 0, 54, 33
1, 244800, Note_on_c, 0, 54, 0
1, 244800, Note_on_c, 0, 56, 33
1, 244814, Control_c, 0, 64, 0
1, 245040, Tempo, 339789
1, 245040, Note_on_c, 0, 56, 0
1, 245040, Note_on_c, 0, 59, 33
1, 245280, Note_on_c, 0, 59, 0
1, 245280, Note_on_c, 0, 62, 35
1, 245520, Note_on_c, 0, 62, 0
1, 245520, Note_on_c, 0, 66, 35
1, 245760, Tempo, 348554
1, 245760, Note_on_c, 0, 66, 0
1, 245760, Note_on_c, 0, 54, 0
1, 245760, Note_on_c, 0, 56, 0
1, 245760, Note_on_c, 0, 66, 36
1, 245760, Note_on_c, 0, 62, 36
1, 245760, Note_on_c, 0, 69, 36
1, 245760, Note_on_c, 0, 38, 28
1, 245817, Control_c, 0, 64, 127
1, 246000, Tempo, 345582
1, 246000, Note_on_c, 0, 38, 0
1, 246000, Note_on_c, 0, 66, 0
1, 246000, Note_on_c, 0, 62, 0
1, 246000, Note_on_c, 0, 69, 0
1, 246000, Note_on_c, 0, 45, 27
1, 246080, Note_on_c, 0, 62, 35
1, 246080, Note_on_c, 0, 66, 35
1, 246240, Note_on_c, 0, 45, 0
1, 246240, Note_on_c, 0, 50, 27
1, 246320, Note_on_c, 0, 66, 0
1, 246320, Note_on_c, 0, 62, 0
1, 246400, Note_on_c, 0, 62, 35
1, 246400, Note_on_c, 0, 66, 35
1, 246480, Note_on_c, 0, 50, 0
1, 246480, Note_on_c, 0, 54, 27
1, 246640, Note_on_c, 0, 66, 0
1, 246640, Note_on_c, 0, 62, 0
1, 246720, Tempo, 349569
1, 246720, Note_on_c, 0, 54, 0
1, 246720, Note_on_c, 0, 62, 38
1, 246720, Note_on_c, 0, 66, 38
1, 246720, Note_on_c, 0, 57, 28
1, 246960, Note_on_c, 0, 57, 0
1, 246960, Note_on_c, 0, 54, 26
1, 247200, Note_on_c, 0, 54, 0
1, 247200, Note_on_c, 0, 66, 0
1, 247200, Note_on_c, 0, 62, 0
1, 247200, Note_on_c, 0, 66, 35
1, 247200, Note_on_c, 0, 62, 35
1, 247200, Note_on_c, 0, 69, 35
1, 247200, Note_on_c, 0, 50, 26
1, 247440, Note_on_c, 0, 50, 0
1, 247440, Note_on_c, 0, 45, 26
1, 247680, Tempo, 345821
1, 247680, Note_on_c, 0, 45, 0
1, 247680, Note_on_c, 0, 69, 0
1, 247680, Note_on_c, 0, 62, 0
1, 247680, Note_on_c, 0, 66, 0
1, 247680, Note_on_c, 0, 71, 36
1, 247680, Note_on_c, 0, 62, 36
1, 247680, Note_on_c, 0, 66, 36
1, 247680, Note_on_c, 0, 38, 28
1, 247686, Control_c, 0, 64, 0
1, 247781, Control_c, 0, 64, 127
1, 247920, Tempo, 339943
1, 247920, Note_on_c, 0, 38, 0
1, 247920, Note_on_c, 0, 71, 0
1, 247920, Note_on_c, 0, 62, 0
1, 247920, Note_on_c, 0, 66, 0
1, 247920, Note_on_c, 0, 44, 25
1, 248000, Note_on_c, 0, 66, 36
1, 248000, Note_on_c, 0, 62, 36
1, 248000, Note_on_c, 0, 71, 36
1, 248160, Note_on_c, 0, 44, 0
1, 248160, Note_on_c, 0, 50, 25
1, 248240, Note_on_c, 0, 66, 0
1, 248240, Note_on_c, 0, 71, 0
1, 248240, Note_on_c, 0, 62, 0
1, 248320, Note_on_c, 0, 62, 36
1, 248320, Note_on_c, 0, 71, 36
1, 248320, Note_on_c, 0, 66, 36
1, 248400, Note_on_c, 0, 50, 0
1, 248400, Note_on_c, 0, 54, 25
1, 248560, Note_on_c, 0, 62, 0
1, 248560, Note_on_c, 0, 66, 0
1, 248560, Note_on_c, 0, 71, 0
1, 248640, Tempo, 348554
1, 248640, Note_on_c, 0, 54, 0
1, 248640, Note_on_c, 0, 66, 36
1, 248640, Note_on_c, 0, 62, 36
1, 248640, Note_on_c, 0, 71, 36
1, 248640, Note_on_c, 0, 56, 28
1, 248645, Control_c, 0, 64, 0
1, 248792, Control_c, 0, 64, 127
1, 248880, Tempo, 344610
1, 248880, Note_on_c, 0, 56, 0
1, 248880, Note_on_c, 0, 66, 0
1, 248880, Note_on_c, 0, 62, 0
1, 248880, Note_on_c, 0, 71, 0
1, 248880, Note_on_c, 0, 54, 25
1, 248960, Note_on_c, 0, 73, 35
1, 248960, Note_on_c, 0, 64, 35
1, 248960, Note_on_c, 0, 66, 35
1, 249120, Note_on_c, 0, 54, 0
1, 249120, Note_on_c, 0, 50, 25
1, 249200, Note_on_c, 0, 73, 0
1, 249200, Note_on_c, 0, 66, 0
1, 249200, Note_on_c, 0, 64, 0
1, 249280, Note_on_c, 0, 66, 35
1, 249280, Note_on_c, 0, 62, 35
1, 249280, Note_on_c, 0, 71, 35
1, 249360, Tempo, 338983
1, 249360, Note_on_c, 0, 50, 0
1, 249360, Note_on_c, 0, 44, 25
1, 249520, Note_on_c, 0, 66, 0
1, 249520, Note_on_c, 0, 71, 0
1, 249520, Note_on_c, 0, 62, 0
1, 249600, Tempo, 349569
1, 249600, Note_on_c, 0, 44, 0
1, 249600, Note_on_c, 0, 62, 36
1, 249600, Note_on_c, 0, 69, 36
1, 249600, Note_on_c, 0, 66, 36
1, 249600, Note_on_c, 0, 38, 28
1, 249614, Control_c, 0, 64, 0
1, 249741, Control_c, 0, 64, 127
1, 249840, Tempo, 345582
1, 249840, Note_on_c, 0, 38, 0
1, 249840, Note_on_c, 0, 62, 0
1, 249840, Note_on_c, 0, 69, 0
1, 249840, Note_on_c, 0, 66, 0
1, 249840, Note_on_c, 0, 45, 27
1, 249920, Note_on_c, 0, 66, 35
1, 249920, Note_on_c, 0, 62, 36
1, 250080, Note_on_c, 0, 45, 0
1, 250080, Note_on_c, 0, 50, 27
1, 250160, Note_on_c, 0, 62, 0
1, 250160, Note_on_c, 0, 66, 0
1, 250240, Note_on_c, 0, 66, 35
1, 250240, Note_on_c, 0, 62, 36
1, 250320, Note_on_c, 0, 50, 0
1, 250320, Note_on_c, 0, 54, 27
1, 250480, Note_on_c, 0, 62, 0
1, 250480, Note_on_c, 0, 66, 0
1, 250560, Tempo, 364210
1, 250560, Note_on_c, 0, 54, 0
1, 250560, Note_on_c, 0, 66, 36
1, 250560, Note_on_c, 0, 62, 36
1, 250560, Note_on_c, 0, 57, 28
1, 250800, Note_on_c, 0, 57, 0
1, 250800, Note_on_c, 0, 54, 25
1, 251040, Tempo, 388651
1, 251040, Note_on_c, 0, 54, 0
1, 251040, Note_on_c, 0, 62, 0
1, 251040, Note_on_c, 0, 66, 0
1, 251040, Note_on_c, 0, 69, 36
1, 251040, Note_on_c, 0, 61, 36
1, 251040, Note_on_c, 0, 62, 36
1, 251040, Note_on_c, 0, 66, 36
1, 251040, Note_on_c, 0, 50, 25
1, 251280, Note_on_c, 0, 50, 0
1, 251280, Note_on_c, 0, 45, 25
1, 251520, Tempo, 352340
1, 251520, Note_on_c, 0, 45, 0
1, 251520, Note_on_c, 0, 66, 0
1, 251520, Note_on_c, 0, 69, 0
1, 251520, Note_on_c, 0, 61, 0
1, 251520, Note_on_c, 0, 62, 0
1, 251520, Note_on_c, 0, 59, 39
1, 251520, Note_on_c, 0, 66, 39
1, 251520, Note_on_c, 0, 62, 39
1, 251520, Note_on_c, 0, 68, 39
1, 251520, Control_c, 0, 64, 0
1, 251520, Note_on_c, 0, 40, 37
1, 251760, Tempo, 345423
1, 251760, Note_on_c, 0, 40, 0
1, 251760, Note_on_c, 0, 47, 33
1, 252000, Note_on_c, 0, 47, 0
1, 252000, Note_on_c, 0, 52, 33
1, 252240, Note_on_c, 0, 52, 0
1, 252240, Note_on_c, 0, 54, 33
1, 252480, Note_on_c, 0, 54, 0
1, 252480, Note_on_c, 0, 56, 36
1, 252720, Tempo, 343485
1, 252720, Note_on_c, 0, 56, 0
1, 252720, Note_on_c, 0, 54, 33
1, 252960, Note_on_c, 0, 54, 0
1, 252960, Note_on_c, 0, 56, 33
1, 253200, Note_on_c, 0, 56, 0
1, 253200, Note_on_c, 0, 59, 33
1, 253401, Tempo, 341608
1, 253440, Note_on_c, 0, 59, 0
1, 253440, Note_on_c, 0, 68, 0
1, 253440, Note_on_c, 0, 59, 0
1, 253440, Note_on_c, 0, 66, 0
1, 253440, Note_on_c, 0, 62, 0
1, 253440, Note_on_c, 0, 62, 38
1, 253441, Tempo, 338849
1, 253680, Tempo, 338849
1, 253680, Note_on_c, 0, 59, 33
1, 253920, Note_on_c, 0, 59, 0
1, 253920, Note_on_c, 0, 62, 0
1, 253920, Note_on_c, 0, 62, 36
1, 254160, Note_on_c, 0, 62, 0
1, 254160, Note_on_c, 0, 64, 36
1, 254400, Tempo, 340735
1, 254400, Note_on_c, 0, 64, 0
1, 254400, Note_on_c, 0, 66, 36
1, 254640, Tempo, 335102
1, 254640, Note_on_c, 0, 66, 0
1, 254640, Note_on_c, 0, 68, 35
1, 254880, Tempo, 331437
1, 254880, Note_on_c, 0, 68, 0
1, 254880, Note_on_c, 0, 71, 35
1, 255120, Note_on_c, 0, 71, 0
1, 255120, Note_on_c, 0, 74, 36
1, 255360, Tempo, 336040
1, 255360, Note_on_c, 0, 74, 0
1, 255360, Note_on_c, 0, 78, 43
1, 255360, Control_c, 0, 64, 127
1, 255600, Tempo, 331437
1, 255600, Note_on_c, 0, 78, 0
1, 255600, Note_on_c, 0, 74, 39
1, 255840, Note_on_c, 0, 74, 0
1, 255840, Note_on_c, 0, 71, 39
1, 256080, Tempo, 323485
1, 256080, Note_on_c, 0, 71, 0
1, 256080, Note_on_c, 0, 66, 36
1, 256320, Tempo, 333259
1, 256320, Note_on_c, 0, 68, 36
1, 256329, Control_c, 0, 64, 0
1, 256560, Tempo, 330542
1, 256560, Note_on_c, 0, 71, 36
1, 256800, Tempo, 327851
1, 256800, Note_on_c, 0, 71, 0
1, 256800, Note_on_c, 0, 74, 36
1, 257040, Note_on_c, 0, 74, 0
1, 257040, Note_on_c, 0, 76, 36
1, 257280, Tempo, 336040
1, 257280, Note_on_c, 0, 76, 0
1, 257280, Note_on_c, 0, 68, 0
1, 257280, Note_on_c, 0, 66, 0
1, 257280, Note_on_c, 0, 78, 43
1, 257280, Control_c, 0, 64, 127
1, 257520, Tempo, 331437
1, 257520, Note_on_c, 0, 78, 0
1, 257520, Note_on_c, 0, 74, 39
1, 257760, Note_on_c, 0, 74, 0
1, 257760, Note_on_c, 0, 71, 39
1, 258000, Tempo, 325221
1, 258000, Note_on_c, 0, 71, 0
1, 258000, Note_on_c, 0, 64, 35
1, 258240, Tempo, 333259
1, 258240, Note_on_c, 0, 68, 35
1, 258249, Control_c, 0, 64, 0
1, 258480, Tempo, 330542
1, 258480, Note_on_c, 0, 71, 35
1, 258720, Tempo, 323450
1, 258720, Note_on_c, 0, 71, 0
1, 258720, Note_on_c, 0, 74, 35
1, 258960, Note_on_c, 0, 74, 0
1, 258960, Note_on_c, 0, 76, 35
1, 259200, Tempo, 329670
1, 259200, Note_on_c, 0, 76, 0
1, 259200, Note_on_c, 0, 68, 0
1, 259200, Note_on_c, 0, 64, 0
1, 259200, Note_on_c, 0, 78, 41
1, 259200, Control_c, 0, 64, 127
1, 259440, Tempo, 326975
1, 259440, Note_on_c, 0, 78, 0
1, 259440, Note_on_c, 0, 74, 37
1, 259680, Note_on_c, 0, 74, 0
1, 259680, Note_on_c, 0, 71, 36
1, 259920, Tempo, 323485
1, 259920, Note_on_c, 0, 71, 0
1, 259920, Note_on_c, 0, 66, 33
1, 260160, Tempo, 333259
1, 260160, Note_on_c, 0, 68, 33
1, 260169, Control_c, 0, 64, 0
1, 260400, Tempo, 330542
1, 260400, Note_on_c, 0, 71, 32
1, 260640, Tempo, 327851
1, 260640, Note_on_c, 0, 71, 0
1, 260640, Note_on_c, 0, 74, 32
1, 260880, Note_on_c, 0, 74, 0
1, 260880, Note_on_c, 0, 76, 31
1, 261120, Tempo, 336040
1, 261120, Note_on_c, 0, 76, 0
1, 261120, Note_on_c, 0, 68, 0
1, 261120, Note_on_c, 0, 66, 0
1, 261120, Note_on_c, 0, 78, 37
1, 261120, Control_c, 0, 64, 127
1, 261360, Tempo, 329634
1, 261360, Note_on_c, 0, 78, 0
1, 261360, Note_on_c, 0, 74, 34
1, 261600, Note_on_c, 0, 74, 0
1, 261600, Note_on_c, 0, 71, 33
1, 261840, Tempo, 325221
1, 261840, Note_on_c, 0, 71, 0
1, 261840, Note_on_c, 0, 64, 30
1, 262080, Tempo, 338849
1, 262080, Note_on_c, 0, 68, 30
1, 262093, Control_c, 0, 64, 0
1, 262320, Tempo, 346580
1, 262320, Note_on_c, 0, 71, 30
1, 262560, Tempo, 359950
1, 262560, Note_on_c, 0, 71, 0
1, 262560, Note_on_c, 0, 74, 29
1, 262800, Tempo, 369231
1, 262800, Note_on_c, 0, 74, 0
1, 262800, Note_on_c, 0, 76, 28
1, 263040, Tempo, 362538
1, 263040, Note_on_c, 0, 76, 0
1, 263040, Note_on_c, 0, 68, 0
1, 263040, Note_on_c, 0, 64, 0
1, 263040, Note_on_c, 0, 78, 47
1, 263040, Control_c, 0, 64, 127
1, 263280, Note_on_c, 0, 54, 27
1, 263520, Tempo, 349854
1, 263520, Note_on_c, 0, 54, 0
1, 263520, Note_on_c, 0, 78, 0
1, 263520, Note_on_c, 0, 85, 47
1, 263520, Note_on_c, 0, 66, 27
1, 263520, Note_on_c, 0, 61, 27
1, 263760, Note_on_c, 0, 61, 0
1, 263760, Note_on_c, 0, 66, 0
1, 263760, Note_on_c, 0, 69, 27
1, 264000, Tempo, 365119
1, 264000, Note_on_c, 0, 69, 0
1, 264000, Note_on_c, 0, 85, 0
1, 264000, Note_on_c, 0, 81, 36
1, 264000, Note_on_c, 0, 84, 49
1, 264000, Note_on_c, 0, 78, 36
1, 264011, Control_c, 0, 64, 0
1, 264126, Control_c, 0, 64, 127
1, 264240, Tempo, 351514
1, 264240, Note_on_c, 0, 57, 27
1, 264480, Note_on_c, 0, 57, 0
1, 264480, Note_on_c, 0, 62, 27
1, 264480, Note_on_c, 0, 66, 27
1, 264720, Tempo, 363636
1, 264720, Note_on_c, 0, 66, 0
1, 264720, Note_on_c, 0, 62, 0
1, 264720, Note_on_c, 0, 72, 27
1, 264960, Tempo, 360360
1, 264960, Note_on_c, 0, 72, 0
1, 264960, Note_on_c, 0, 81, 0
1, 264960, Note_on_c, 0, 84, 0
1, 264960, Note_on_c, 0, 78, 0
1, 264960, Note_on_c, 0, 85, 47
1, 264969, Control_c, 0, 64, 0
1, 265086, Control_c, 0, 64, 127
1, 265200, Note_on_c, 0, 61, 27
1, 265440, Tempo, 356083
1, 265440, Note_on_c, 0, 61, 0
1, 265440, Note_on_c, 0, 85, 0
1, 265440, Note_on_c, 0, 81, 36
1, 265440, Note_on_c, 0, 88, 47
1, 265440, Note_on_c, 0, 78, 36
1, 265440, Note_on_c, 0, 66, 27
1, 265680, Note_on_c, 0, 66, 0
1, 265680, Note_on_c, 0, 76, 27
1, 265920, Tempo, 369231
1, 265920, Note_on_c, 0, 76, 0
1, 265920, Note_on_c, 0, 78, 0
1, 265920, Note_on_c, 0, 88, 0
1, 265920, Note_on_c, 0, 81, 0
1, 265920, Note_on_c, 0, 87, 49
1, 265924, Control_c, 0, 64, 0
1, 266046, Control_c, 0, 64, 127
1, 266160, Tempo, 360360
1, 266160, Note_on_c, 0, 59, 23
1, 266240, Note_on_c, 0, 87, 0
1, 266240, Note_on_c, 0, 78, 36
1, 266240, Note_on_c, 0, 83, 45
1, 266400, Note_on_c, 0, 59, 0
1, 266400, Note_on_c, 0, 66, 20
1, 266560, Note_on_c, 0, 83, 0
1, 266560, Note_on_c, 0, 78, 0
1, 266560, Note_on_c, 0, 81, 44
1, 266640, Tempo, 365854
1, 266640, Note_on_c, 0, 66, 0
1, 266640, Note_on_c, 0, 75, 21
1, 266880, Tempo, 366972
1, 266880, Note_on_c, 0, 75, 0
1, 266880, Note_on_c, 0, 81, 0
1, 266880, Note_on_c, 0, 78, 47
1, 266889, Control_c, 0, 64, 0
1, 267006, Control_c, 0, 64, 127
1, 267120, Note_on_c, 0, 54, 27
1, 267360, Tempo, 355030
1, 267360, Note_on_c, 0, 54, 0
1, 267360, Note_on_c, 0, 78, 0
1, 267360, Note_on_c, 0, 85, 47
1, 267360, Note_on_c, 0, 66, 27
1, 267360, Note_on_c, 0, 61, 27
1, 267600, Note_on_c, 0, 61, 0
1, 267600, Note_on_c, 0, 66, 0
1, 267600, Note_on_c, 0, 69, 27
1, 267840, Tempo, 365119
1, 267840, Note_on_c, 0, 69, 0
1, 267840, Note_on_c, 0, 85, 0
1, 267840, Note_on_c, 0, 78, 36
1, 267840, Note_on_c, 0, 81, 36
1, 267840, Note_on_c, 0, 84, 49
1, 267861, Control_c, 0, 64, 0
1, 268000, Control_c, 0, 64, 127
1, 268080, Tempo, 353982
1, 268080, Note_on_c, 0, 57, 27
1, 268320, Note_on_c, 0, 57, 0
1, 268320, Note_on_c, 0, 62, 27
1, 268320, Note_on_c, 0, 66, 27
1, 268560, Tempo, 363636
1, 268560, Note_on_c, 0, 66, 0
1, 268560, Note_on_c, 0, 62, 0
1, 268560, Note_on_c, 0, 72, 27
1, 268800, Tempo, 357143
1, 268800, Note_on_c, 0, 72, 0
1, 268800, Note_on_c, 0, 78, 0
1, 268800, Note_on_c, 0, 81, 0
1, 268800, Note_on_c, 0, 84, 0
1, 268800, Note_on_c, 0, 85, 47
1, 268807, Control_c, 0, 64, 0
1, 268926, Control_c, 0, 64, 127
1, 269040, Note_on_c, 0, 61, 27
1, 269280, Tempo, 361882
1, 269280, Note_on_c, 0, 61, 0
1, 269280, Note_on_c, 0, 85, 0
1, 269280, Note_on_c, 0, 78, 31
1, 269280, Note_on_c, 0, 81, 31
1, 269280, Note_on_c, 0, 88, 47
1, 269280, Note_on_c, 0, 66, 27
1, 269520, Note_on_c, 0, 66, 0
1, 269520, Note_on_c, 0, 76, 27
1, 269760, Tempo, 382166
1, 269760, Note_on_c, 0, 76, 0
1, 269760, Note_on_c, 0, 88, 0
1, 269760, Note_on_c, 0, 81, 0
1, 269760, Note_on_c, 0, 78, 0
1, 269760, Note_on_c, 0, 87, 49
1, 269776, Control_c, 0, 64, 0
1, 269897, Control_c, 0, 64, 127
1, 270000, Tempo, 372671
1, 270000, Note_on_c, 0, 59, 23
1, 270080, Note_on_c, 0, 87, 0
1, 270080, Note_on_c, 0, 83, 45
1, 270080, Note_on_c, 0, 78, 36
1, 270240, Note_on_c, 0, 59, 0
1, 270240, Note_on_c, 0, 66, 20
1, 270400, Note_on_c, 0, 78, 0
1, 270400, Note_on_c, 0, 83, 0
1, 270400, Note_on_c, 0, 81, 44
1, 270480, Tempo, 378549
1, 270480, Note_on_c, 0, 66, 0
1, 270480, Note_on_c, 0, 75, 20
1, 270720, Tempo, 370370
1, 270720, Note_on_c, 0, 75, 0
1, 270720, Note_on_c, 0, 81, 0
1, 270720, Note_on_c, 0, 73, 45
1, 270720, Control_c, 0, 64, 0
1, 270823, Control_c, 0, 64, 127
1, 270960, Note_on_c, 0, 49, 24
1, 271200, Tempo, 388350
1, 271200, Note_on_c, 0, 49, 0
1, 271200, Note_on_c, 0, 73, 0
1, 271200, Note_on_c, 0, 66, 22
1, 271200, Note_on_c, 0, 69, 22
1, 271200, Note_on_c, 0, 76, 45
1, 271200, Note_on_c, 0, 54, 21
1, 271440, Note_on_c, 0, 54, 0
1, 271440, Note_on_c, 0, 64, 21
1, 271680, Tempo, 383387
1, 271680, Note_on_c, 0, 64, 0
1, 271680, Note_on_c, 0, 76, 0
1, 271680, Note_on_c, 0, 69, 0
1, 271680, Note_on_c, 0, 66, 0
1, 271680, Note_on_c, 0, 75, 48
1, 271686, Control_c, 0, 64, 0
1, 271840, Control_c, 0, 64, 127
1, 271920, Tempo, 379747
1, 271920, Note_on_c, 0, 47, 24
1, 272000, Note_on_c, 0, 75, 0
1, 272000, Note_on_c, 0, 66, 33
1, 272000, Note_on_c, 0, 71, 44
1, 272160, Note_on_c, 0, 47, 0
1, 272160, Note_on_c, 0, 54, 25
1, 272320, Note_on_c, 0, 71, 0
1, 272320, Note_on_c, 0, 66, 0
1, 272320, Note_on_c, 0, 69, 42
1, 272400, Tempo, 418118
1, 272400, Note_on_c, 0, 54, 0
1, 272400, Note_on_c, 0, 63, 24
1, 272640, Tempo, 394737
1, 272640, Note_on_c, 0, 63, 0
1, 272640, Note_on_c, 0, 69, 0
1, 272640, Note_on_c, 0, 73, 40
1, 272640, Control_c, 0, 64, 0
1, 272640, Note_on_c, 0, 45, 34
1, 272755, Control_c, 0, 64, 127
1, 272880, Tempo, 353982
1, 272880, Note_on_c, 0, 45, 0
1, 272880, Note_on_c, 0, 51, 31
1, 273120, Tempo, 349854
1, 273120, Note_on_c, 0, 51, 0
1, 273120, Note_on_c, 0, 54, 31
1, 273360, Note_on_c, 0, 54, 0
1, 273360, Note_on_c, 0, 57, 30
1, 273600, Tempo, 357143
1, 273600, Note_on_c, 0, 57, 0
1, 273600, Note_on_c, 0, 61, 35
1, 273840, Tempo, 349854
1, 273840, Note_on_c, 0, 61, 0
1, 273840, Note_on_c, 0, 63, 32
1, 274080, Tempo, 345821
1, 274080, Note_on_c, 0, 63, 0
1, 274080, Note_on_c, 0, 66, 32
1, 274320, Note_on_c, 0, 66, 0
1, 274320, Note_on_c, 0, 69, 32
1, 274560, Tempo, 349854
1, 274560, Note_on_c, 0, 69, 0
1, 274560, Note_on_c, 0, 73, 0
1, 274560, Note_on_c, 0, 73, 33
1, 274800, Tempo, 346821
1, 274800, Note_on_c, 0, 73, 0
1, 274800, Note_on_c, 0, 75, 31
1, 275040, Tempo, 343840
1, 275040, Note_on_c, 0, 75, 0
1, 275040, Note_on_c, 0, 78, 30
1, 275280, Note_on_c, 0, 78, 0
1, 275280, Note_on_c, 0, 81, 30
1, 275520, Tempo, 349854
1, 275520, Note_on_c, 0, 81, 0
1, 275520, Note_on_c, 0, 85, 33
1, 275760, Tempo, 340909
1, 275760, Note_on_c, 0, 85, 0
1, 275760, Note_on_c, 0, 87, 32
1, 276000, Tempo, 356083
1, 276000, Note_on_c, 0, 87, 0
1, 276000, Note_on_c, 0, 90, 32
1, 276240, Tempo, 372671
1, 276240, Note_on_c, 0, 90, 0
1, 276240, Note_on_c, 0, 93, 31
1, 276480, Note_on_c, 0, 93, 0
1, 276480, Note_on_c, 0, 95, 36
1, 276480, Note_on_c, 0, 97, 36
1, 276480, Note_on_c, 0, 44, 32
1, 276526, Control_c, 0, 64, 0
1, 276617, Control_c, 0, 64, 127
1, 276720, Tempo, 353982
1, 276720, Note_on_c, 0, 44, 0
1, 276720, Note_on_c, 0, 53, 30
1, 276960, Tempo, 349854
1, 276960, Note_on_c, 0, 53, 0
1, 276960, Note_on_c, 0, 56, 30
1, 277200, Note_on_c, 0, 56, 0
1, 277200, Note_on_c, 0, 59, 30
1, 277440, Tempo, 357143
1, 277440, Note_on_c, 0, 59, 0
1, 277440, Note_on_c, 0, 65, 32
1, 277440, Note_on_c, 0, 61, 34
1, 277455, Control_c, 0, 64, 0
1, 277555, Control_c, 0, 64, 127
1, 277680, Tempo, 349854
1, 277680, Note_on_c, 0, 61, 0
1, 277680, Note_on_c, 0, 65, 0
1, 277680, Note_on_c, 0, 68, 32
1, 277920, Tempo, 343840
1, 277920, Note_on_c, 0, 68, 0
1, 277920, Note_on_c, 0, 71, 32
1, 278160, Note_on_c, 0, 71, 0
1, 278160, Note_on_c, 0, 73, 32
1, 278400, Tempo, 348837
1, 278400, Note_on_c, 0, 73, 0
1, 278400, Note_on_c, 0, 97, 0
1, 278400, Note_on_c, 0, 95, 0
1, 278400, Note_on_c, 0, 77, 33
1, 278404, Control_c, 0, 64, 0
1, 278515, Control_c, 0, 64, 127
1, 278640, Tempo, 346821
1, 278640, Note_on_c, 0, 77, 0
1, 278640, Note_on_c, 0, 80, 31
1, 278880, Tempo, 343840
1, 278880, Note_on_c, 0, 80, 0
1, 278880, Note_on_c, 0, 83, 30
1, 279120, Note_on_c, 0, 83, 0
1, 279120, Note_on_c, 0, 85, 30
1, 279360, Tempo, 349854
1, 279360, Note_on_c, 0, 85, 0
1, 279360, Note_on_c, 0, 89, 31
1, 279517, Control_c, 0, 64, 0
1, 279600, Tempo, 357143
1, 279600, Note_on_c, 0, 89, 0
1, 279600, Note_on_c, 0, 92, 30
1, 279612, Control_c, 0, 64, 127
1, 279840, Tempo, 364742
1, 279840, Note_on_c, 0, 92, 0
1, 279840, Note_on_c, 0, 95, 29
1, 280080, Tempo, 372671
1, 280080, Note_on_c, 0, 95, 0
1, 280080, Note_on_c, 0, 97, 28
1, 280320, Tempo, 366010
1, 280320, Note_on_c, 0, 97, 0
1, 280320, Note_on_c, 0, 97, 32
1, 280320, Note_on_c, 0, 102, 32
1, 280320, Note_on_c, 0, 30, 30
1, 280320, Note_on_c, 0, 37, 30
1, 280320, Note_on_c, 0, 42, 30
1, 280326, Control_c, 0, 64, 0
1, 280476, Control_c, 0, 64, 127
1, 280560, Tempo, 361664
1, 280560, Note_on_c, 0, 102, 0
1, 280560, Note_on_c, 0, 97, 0
1, 280560, Note_on_c, 0, 90, 32
1, 280800, Note_on_c, 0, 90, 0
1, 280800, Note_on_c, 0, 102, 32
1, 280800, Note_on_c, 0, 97, 32
1, 281040, Tempo, 368234
1, 281040, Note_on_c, 0, 97, 0
1, 281040, Note_on_c, 0, 102, 0
1, 281040, Note_on_c, 0, 90, 32
1, 281280, Tempo, 353253
1, 281280, Note_on_c, 0, 90, 0
1, 281280, Note_on_c, 0, 42, 0
1, 281280, Note_on_c, 0, 30, 0
1, 281280, Note_on_c, 0, 37, 0
1, 281280, Note_on_c, 0, 90, 30
1, 281280, Note_on_c, 0, 97, 30
1, 281280, Note_on_c, 0, 37, 30
1, 281280, Note_on_c, 0, 42, 30
1, 281280, Note_on_c, 0, 49, 30
1, 281520, Tempo, 348189
1, 281520, Note_on_c, 0, 97, 0
1, 281520, Note_on_c, 0, 90, 0
1, 281520, Note_on_c, 0, 85, 30
1, 281760, Note_on_c, 0, 85, 0
1, 281760, Note_on_c, 0, 97, 30
1, 281760, Note_on_c, 0, 90, 30
1, 282000, Tempo, 352216
1, 282000, Note_on_c, 0, 90, 0
1, 282000, Note_on_c, 0, 97, 0
1, 282000, Note_on_c, 0, 85, 30
1, 282240, Tempo, 351206
1, 282240, Note_on_c, 0, 85, 0
1, 282240, Note_on_c, 0, 49, 0
1, 282240, Note_on_c, 0, 37, 0
1, 282240, Note_on_c, 0, 42, 0
1, 282240, Note_on_c, 0, 99, 32
1, 282240, Note_on_c, 0, 90, 32
1, 282240, Control_c, 0, 64, 0
1, 282240, Note_on_c, 0, 35, 30
1, 282240, Note_on_c, 0, 42, 30
1, 282240, Note_on_c, 0, 47, 30
1, 282343, Control_c, 0, 64, 127
1, 282480, Tempo, 347182
1, 282480, Note_on_c, 0, 90, 0
1, 282480, Note_on_c, 0, 99, 0
1, 282480, Note_on_c, 0, 87, 32
1, 282720, Note_on_c, 0, 87, 0
1, 282720, Note_on_c, 0, 90, 32
1, 282720, Note_on_c, 0, 99, 32
1, 282960, Note_on_c, 0, 99, 0
1, 282960, Note_on_c, 0, 90, 0
1, 282960, Note_on_c, 0, 87, 32
1, 283200, Tempo, 351206
1, 283200, Note_on_c, 0, 87, 0
1, 283200, Note_on_c, 0, 95, 30
1, 283200, Note_on_c, 0, 90, 30
1, 283440, Tempo, 346200
1, 283440, Note_on_c, 0, 90, 0
1, 283440, Note_on_c, 0, 95, 0
1, 283440, Note_on_c, 0, 83, 30
1, 283680, Note_on_c, 0, 83, 0
1, 283680, Note_on_c, 0, 90, 30
1, 283680, Note_on_c, 0, 95, 30
1, 283920, Tempo, 350181
1, 283920, Note_on_c, 0, 95, 0
1, 283920, Note_on_c, 0, 90, 0
1, 283920, Note_on_c, 0, 83, 30
1, 284160, Tempo, 356358
1, 284160, Note_on_c, 0, 83, 0
1, 284160, Note_on_c, 0, 47, 0
1, 284160, Note_on_c, 0, 35, 0
1, 284160, Note_on_c, 0, 42, 0
1, 284160, Note_on_c, 0, 90, 32
1, 284160, Note_on_c, 0, 85, 32
1, 284160, Note_on_c, 0, 30, 30
1, 284160, Note_on_c, 0, 37, 30
1, 284160, Note_on_c, 0, 42, 30
1, 284167, Control_c, 0, 64, 0
1, 284316, Control_c, 0, 64, 127
1, 284400, Tempo, 347182
1, 284400, Note_on_c, 0, 85, 0
1, 284400, Note_on_c, 0, 90, 0
1, 284400, Note_on_c, 0, 78, 32
1, 284640, Note_on_c, 0, 78, 0
1, 284640, Note_on_c, 0, 85, 32
1, 284640, Note_on_c, 0, 90, 32
1, 284880, Tempo, 350181
1, 284880, Note_on_c, 0, 90, 0
1, 284880, Note_on_c, 0, 85, 0
1, 284880, Note_on_c, 0, 78, 32
1, 285120, Tempo, 344234
1, 285120, Note_on_c, 0, 78, 0
1, 285120, Note_on_c, 0, 42, 0
1, 285120, Note_on_c, 0, 30, 0
1, 285120, Note_on_c, 0, 37, 0
1, 285120, Note_on_c, 0, 85, 30
1, 285120, Note_on_c, 0, 78, 30
1, 285120, Note_on_c, 0, 37, 30
1, 285120, Note_on_c, 0, 42, 30
1, 285120, Note_on_c, 0, 49, 30
1, 285360, Tempo, 346200
1, 285360, Note_on_c, 0, 78, 0
1, 285360, Note_on_c, 0, 85, 0
1, 285360, Note_on_c, 0, 73, 30
1, 285600, Note_on_c, 0, 73, 0
1, 285600, Note_on_c, 0, 78, 30
1, 285600, Note_on_c, 0, 85, 30
1, 285840, Tempo, 349182
1, 285840, Note_on_c, 0, 85, 0
1, 285840, Note_on_c, 0, 78, 0
1, 285840, Note_on_c, 0, 73, 30
1, 286080, Tempo, 348189
1, 286080, Note_on_c, 0, 73, 0
1, 286080, Note_on_c, 0, 49, 0
1, 286080, Note_on_c, 0, 37, 0
1, 286080, Note_on_c, 0, 42, 0
1, 286080, Note_on_c, 0, 87, 32
1, 286080, Note_on_c, 0, 78, 32
1, 286080, Note_on_c, 0, 35, 30
1, 286080, Note_on_c, 0, 42, 30
1, 286080, Note_on_c, 0, 47, 30
1, 286088, Control_c, 0, 64, 0
1, 286195, Control_c, 0, 64, 127
1, 286320, Tempo, 343269
1, 286320, Note_on_c, 0, 78, 0
1, 286320, Note_on_c, 0, 87, 0
1, 286320, Note_on_c, 0, 75, 32
1, 286560, Note_on_c, 0, 75, 0
1, 286560, Note_on_c, 0, 78, 32
1, 286560, Note_on_c, 0, 87, 32
1, 286800, Tempo, 340387
1, 286800, Note_on_c, 0, 87, 0
1, 286800, Note_on_c, 0, 78, 0
1, 286800, Note_on_c, 0, 75, 32
1, 287040, Tempo, 343269
1, 287040, Note_on_c, 0, 75, 0
1, 287040, Note_on_c, 0, 83, 29
1, 287040, Note_on_c, 0, 78, 29
1, 287280, Tempo, 341336
1, 287280, Note_on_c, 0, 78, 0
1, 287280, Note_on_c, 0, 83, 0
1, 287280, Note_on_c, 0, 71, 29
1, 287520, Note_on_c, 0, 71, 0
1, 287520, Note_on_c, 0, 83, 29
1, 287520, Note_on_c, 0, 78, 29
1, 287760, Tempo, 349182
1, 287760, Note_on_c, 0, 78, 0
1, 287760, Note_on_c, 0, 83, 0
1, 287760, Note_on_c, 0, 71, 29
1, 288000, Tempo, 348189
1, 288000, Note_on_c, 0, 71, 0
1, 288000, Note_on_c, 0, 47, 0
1, 288000, Note_on_c, 0, 35, 0
1, 288000, Note_on_c, 0, 42, 0
1, 288000, Note_on_c, 0, 73, 30
1, 288000, Note_on_c, 0, 78, 30
1, 288000, Note_on_c, 0, 30, 30
1, 288000, Note_on_c, 0, 37, 30
1, 288000, Note_on_c, 0, 42, 30
1, 288008, Control_c, 0, 64, 0
1, 288170, Control_c, 0, 64, 127
1, 288240, Tempo, 344234
1, 288240, Note_on_c, 0, 78, 0
1, 288240, Note_on_c, 0, 73, 0
1, 288240, Note_on_c, 0, 66, 30
1, 288480, Note_on_c, 0, 66, 0
1, 288480, Note_on_c, 0, 78, 30
1, 288480, Note_on_c, 0, 73, 30
1, 288720, Tempo, 348189
1, 288720, Note_on_c, 0, 73, 0
1, 288720, Note_on_c, 0, 78, 0
1, 288720, Note_on_c, 0, 66, 30
1, 288960, Note_on_c, 0, 66, 0
1, 288960, Note_on_c, 0, 42, 0
1, 288960, Note_on_c, 0, 30, 0
1, 288960, Note_on_c, 0, 37, 0
1, 288960, Note_on_c, 0, 66, 28
1, 288960, Note_on_c, 0, 73, 28
1, 288960, Note_on_c, 0, 42, 30
1, 288960, Note_on_c, 0, 37, 30
1, 288960, Note_on_c, 0, 49, 30
1, 289200, Tempo, 357143
1, 289200, Note_on_c, 0, 73, 0
1, 289200, Note_on_c, 0, 66, 0
1, 289200, Note_on_c, 0, 61, 28
1, 289440, Note_on_c, 0, 61, 0
1, 289440, Note_on_c, 0, 73, 28
1, 289440, Note_on_c, 0, 66, 28
1, 289680, Tempo, 365854
1, 289680, Note_on_c, 0, 66, 0
1, 289680, Note_on_c, 0, 73, 0
1, 289680, Note_on_c, 0, 61, 28
1, 289920, Note_on_c, 0, 61, 0
1, 289920, Note_on_c, 0, 49, 0
1, 289920, Note_on_c, 0, 42, 0
1, 289920, Note_on_c, 0, 37, 0
1, 289920, Note_on_c, 0, 66, 30
1, 289920, Note_on_c, 0, 63, 30
1, 289920, Note_on_c, 0, 75, 30
1, 289920, Note_on_c, 0, 35, 30
1, 289921, Tempo, 344828
1, 289930, Control_c, 0, 64, 0
1, 290080, Control_c, 0, 64, 127
1, 290160, Note_on_c, 0, 35, 0
1, 290160, Note_on_c, 0, 42, 30
1, 290400, Note_on_c, 0, 42, 0
1, 290400, Note_on_c, 0, 47, 30
1, 290640, Note_on_c, 0, 47, 0
1, 290640, Note_on_c, 0, 51, 30
1, 290880, Tempo, 346821
1, 290880, Note_on_c, 0, 51, 0
1, 290880, Note_on_c, 0, 54, 30
1, 291120, Tempo, 341880
1, 291120, Note_on_c, 0, 54, 0
1, 291120, Note_on_c, 0, 59, 30
1, 291320, Tempo, 340909
1, 291360, Note_on_c, 0, 59, 0
1, 291360, Note_on_c, 0, 63, 30
1, 291480, Tempo, 339943
1, 291600, Note_on_c, 0, 63, 0
1, 291600, Note_on_c, 0, 66, 30
1, 291640, Tempo, 338983
1, 291800, Tempo, 338028
1, 291840, Tempo, 341880
1, 291840, Note_on_c, 0, 66, 0
1, 291840, Note_on_c, 0, 75, 0
1, 291840, Note_on_c, 0, 63, 0
1, 291840, Note_on_c, 0, 66, 0
1, 291840, Note_on_c, 0, 71, 30
1, 292080, Tempo, 338028
1, 292080, Note_on_c, 0, 71, 0
1, 292080, Note_on_c, 0, 75, 30
1, 292320, Tempo, 334262
1, 292320, Note_on_c, 0, 75, 0
1, 292320, Note_on_c, 0, 78, 30
1, 292560, Note_on_c, 0, 78, 0
1, 292560, Note_on_c, 0, 83, 30
1, 292800, Tempo, 333333
1, 292800, Note_on_c, 0, 83, 0
1, 292800, Note_on_c, 0, 87, 29
1, 292920, Tempo, 334262
1, 293040, Tempo, 335196
1, 293040, Note_on_c, 0, 87, 0
1, 293040, Note_on_c, 0, 90, 29
1, 293160, Tempo, 336134
1, 293280, Tempo, 337079
1, 293280, Note_on_c, 0, 90, 0
1, 293280, Note_on_c, 0, 95, 28
1, 293400, Tempo, 338028
1, 293480, Tempo, 338983
1, 293520, Tempo, 358209
1, 293520, Note_on_c, 0, 95, 0
1, 293520, Note_on_c, 0, 99, 28
1, 293760, Tempo, 345821
1, 293760, Note_on_c, 0, 99, 0
1, 293760, Note_on_c, 0, 97, 27
1, 293760, Note_on_c, 0, 102, 27
1, 293760, Note_on_c, 0, 90, 27
1, 293760, Control_c, 0, 64, 0
1, 293760, Note_on_c, 0, 30, 27
1, 293760, Note_on_c, 0, 37, 27
1, 293760, Note_on_c, 0, 42, 27
1, 293887, Control_c, 0, 64, 127
1, 294000, Note_on_c, 0, 42, 0
1, 294000, Note_on_c, 0, 102, 0
1, 294000, Note_on_c, 0, 90, 0
1, 294000, Note_on_c, 0, 97, 0
1, 294000, Note_on_c, 0, 37, 0
1, 294000, Note_on_c, 0, 30, 0
1, 294085, Control_c, 0, 64, 0
1, 295680, Tempo, 351906
1, 295680, Note_on_c, 0, 66, 24
1, 295680, Note_on_c, 0, 78, 24
1, 295680, Note_on_c, 0, 73, 24
1, 295680, Note_on_c, 0, 42, 23
1, 295680, Note_on_c, 0, 49, 23
1, 295680, Note_on_c, 0, 57, 23
1, 295708, Control_c, 0, 64, 127
1, 295920, Note_on_c, 0, 57, 0
1, 295920, Note_on_c, 0, 78, 0
1, 295920, Note_on_c, 0, 73, 0
1, 295920, Note_on_c, 0, 66, 0
1, 295920, Note_on_c, 0, 49, 0
1, 295920, Note_on_c, 0, 42, 0
1, 295934, Control_c, 0, 64, 0
1, 297600, Note_on_c, 0, 78, 26
1, 297600, Note_on_c, 0, 90, 26
1, 297600, Note_on_c, 0, 30, 25
1, 297600, Note_on_c, 0, 42, 25
1, 297642, Control_c, 0, 64, 127
1, 297840, Marker_t, "Fine"
1, 297840, Note_on_c, 0, 42, 0
1, 297840, Note_on_c, 0, 78, 0
1, 297840, Note_on_c, 0, 90, 0
1, 297840, Note_on_c, 0, 30, 0
1, 297868, Control_c, 0, 64, 0
1, 303360, Tempo, 351906
1, 336000, Tempo, 369231
1, 341760, Tempo, 361860
1, 366720, Tempo, 345821
1, 368640, Tempo, 345821
1, 372480, Tempo, 342564
1, 376320, Tempo, 342564
1, 388800, Tempo, 342564
1, 389760, Tempo, 342564
1, 391680, Tempo, 342564
1, 397440, Tempo, 342564
1, 462720, Tempo, 337648
1, 470400, Tempo, 337648
1, 471360, Tempo, 337648
1, 483840, Tempo, 343840
1, 512640, Tempo, 332410
1, 514560, Tempo, 332410
1, 548880, Tempo, 394737
1, 564480, Tempo, 352941
1, 574080, Tempo, 343840
1, 574080, End_track
0, 0, End_of_file
