0, 0, Header, 0, 1, 480
1, 0, Start_track
1, 0, Title_t, "Debussy: Childrens Corner 4"
1, 0, Title_t, "The snow is dancing"
1, 0, Copyright_t, "Copyright © 2011 by Bernd Krueger"
1, 0, Text_t, "Bernd Krueger"
1, 0, Text_t, "Erstellt:  25.6.2011\012"
1, 0, Text_t, "Dauer: 2:23 Minuten\012"
1, 0, Time_signature, 4, 2, 24, 8
1, 0, Key_signature, -1, "major"
1, 0, Tempo, 498504
1, 0, Program_c, 0, 0
1, 0, Note_on_c, 0, 76, 32
1, 0, Program_c, 0, 0
1, 0, Program_c, 0, 0
1, 120, Note_on_c, 0, 76, 0
1, 240, Note_on_c, 0, 77, 26
1, 360, Note_on_c, 0, 77, 0
1, 480, Note_on_c, 0, 79, 26
1, 600, Note_on_c, 0, 79, 0
1, 720, Note_on_c, 0, 81, 26
1, 840, Note_on_c, 0, 81, 0
1, 960, Note_on_c, 0, 76, 32
1, 1080, Note_on_c, 0, 76, 0
1, 1200, Note_on_c, 0, 77, 28
1, 1320, Note_on_c, 0, 77, 0
1, 1440, Note_on_c, 0, 79, 28
1, 1560, Note_on_c, 0, 79, 0
1, 1680, Note_on_c, 0, 81, 28
1, 1800, Note_on_c, 0, 81, 0
1, 1920, Note_on_c, 0, 64, 33
1, 2010, Note_on_c, 0, 64, 0
1, 2040, Note_on_c, 0, 76, 36
1, 2130, Note_on_c, 0, 76, 0
1, 2160, Tempo, 487527
1, 2160, Note_on_c, 0, 65, 29
1, 2250, Note_on_c, 0, 65, 0
1, 2280, Note_on_c, 0, 77, 30
1, 2370, Note_on_c, 0, 77, 0
1, 2400, Note_on_c, 0, 67, 29
1, 2490, Note_on_c, 0, 67, 0
1, 2520, Note_on_c, 0, 79, 30
1, 2610, Note_on_c, 0, 79, 0
1, 2640, Note_on_c, 0, 69, 29
1, 2730, Note_on_c, 0, 69, 0
1, 2760, Note_on_c, 0, 81, 30
1, 2850, Note_on_c, 0, 81, 0
1, 2880, Tempo, 498504
1, 2880, Note_on_c, 0, 64, 33
1, 2970, Note_on_c, 0, 64, 0
1, 3000, Note_on_c, 0, 76, 36
1, 3090, Note_on_c, 0, 76, 0
1, 3120, Tempo, 485751
1, 3120, Note_on_c, 0, 65, 30
1, 3210, Note_on_c, 0, 65, 0
1, 3240, Note_on_c, 0, 77, 29
1, 3330, Note_on_c, 0, 77, 0
1, 3360, Note_on_c, 0, 67, 30
1, 3450, Note_on_c, 0, 67, 0
1, 3480, Note_on_c, 0, 79, 29
1, 3570, Note_on_c, 0, 79, 0
1, 3600, Tempo, 530316
1, 3600, Note_on_c, 0, 69, 30
1, 3690, Note_on_c, 0, 69, 0
1, 3720, Note_on_c, 0, 81, 29
1, 3810, Note_on_c, 0, 81, 0
1, 3840, Tempo, 498504
1, 3840, Note_on_c, 0, 70, 45
1, 3840, Note_on_c, 0, 64, 37
1, 3897, Control_c, 0, 64, 127
1, 3930, Note_on_c, 0, 64, 0
1, 3960, Note_on_c, 0, 76, 40
1, 4050, Note_on_c, 0, 76, 0
1, 4080, Tempo, 485751
1, 4080, Note_on_c, 0, 65, 33
1, 4088, Control_c, 0, 64, 0
1, 4158, Control_c, 0, 64, 127
1, 4170, Note_on_c, 0, 65, 0
1, 4200, Note_on_c, 0, 77, 34
1, 4290, Note_on_c, 0, 77, 0
1, 4320, Note_on_c, 0, 67, 33
1, 4333, Control_c, 0, 64, 0
1, 4410, Note_on_c, 0, 67, 0
1, 4433, Control_c, 0, 64, 127
1, 4440, Note_on_c, 0, 79, 34
1, 4530, Note_on_c, 0, 79, 0
1, 4560, Note_on_c, 0, 69, 33
1, 4573, Control_c, 0, 64, 0
1, 4638, Control_c, 0, 64, 127
1, 4650, Note_on_c, 0, 69, 0
1, 4680, Note_on_c, 0, 81, 34
1, 4770, Note_on_c, 0, 81, 0
1, 4800, Tempo, 498504
1, 4800, Note_on_c, 0, 64, 37
1, 4815, Control_c, 0, 64, 0
1, 4890, Note_on_c, 0, 64, 0
1, 4913, Control_c, 0, 64, 127
1, 4920, Note_on_c, 0, 76, 40
1, 5010, Note_on_c, 0, 76, 0
1, 5040, Tempo, 482199
1, 5040, Note_on_c, 0, 65, 34
1, 5054, Control_c, 0, 64, 0
1, 5125, Control_c, 0, 64, 127
1, 5130, Note_on_c, 0, 65, 0
1, 5160, Note_on_c, 0, 77, 33
1, 5250, Note_on_c, 0, 77, 0
1, 5280, Note_on_c, 0, 67, 34
1, 5293, Control_c, 0, 64, 0
1, 5365, Control_c, 0, 64, 127
1, 5370, Note_on_c, 0, 67, 0
1, 5400, Note_on_c, 0, 79, 33
1, 5490, Note_on_c, 0, 79, 0
1, 5520, Note_on_c, 0, 69, 34
1, 5524, Control_c, 0, 64, 0
1, 5577, Control_c, 0, 64, 127
1, 5610, Note_on_c, 0, 69, 0
1, 5640, Note_on_c, 0, 81, 33
1, 5697, Control_c, 0, 64, 0
1, 5730, Note_on_c, 0, 81, 0
1, 5760, Tempo, 492935
1, 5760, Note_on_c, 0, 70, 0
1, 5760, Note_on_c, 0, 72, 45
1, 5760, Note_on_c, 0, 64, 37
1, 5824, Control_c, 0, 64, 127
1, 5850, Note_on_c, 0, 64, 0
1, 5880, Note_on_c, 0, 76, 40
1, 5970, Note_on_c, 0, 76, 0
1, 6000, Note_on_c, 0, 65, 33
1, 6008, Control_c, 0, 64, 0
1, 6078, Control_c, 0, 64, 127
1, 6090, Note_on_c, 0, 65, 0
1, 6120, Tempo, 485751
1, 6120, Note_on_c, 0, 77, 34
1, 6210, Note_on_c, 0, 77, 0
1, 6240, Note_on_c, 0, 67, 33
1, 6253, Control_c, 0, 64, 0
1, 6304, Control_c, 0, 64, 127
1, 6330, Note_on_c, 0, 67, 0
1, 6360, Note_on_c, 0, 79, 34
1, 6450, Note_on_c, 0, 79, 0
1, 6480, Note_on_c, 0, 69, 33
1, 6493, Control_c, 0, 64, 0
1, 6558, Control_c, 0, 64, 127
1, 6570, Note_on_c, 0, 69, 0
1, 6600, Note_on_c, 0, 81, 34
1, 6690, Note_on_c, 0, 81, 0
1, 6720, Tempo, 489317
1, 6720, Note_on_c, 0, 64, 37
1, 6735, Control_c, 0, 64, 0
1, 6798, Control_c, 0, 64, 127
1, 6810, Note_on_c, 0, 64, 0
1, 6840, Note_on_c, 0, 76, 40
1, 6930, Note_on_c, 0, 76, 0
1, 6960, Tempo, 485751
1, 6960, Note_on_c, 0, 65, 34
1, 6974, Control_c, 0, 64, 0
1, 7045, Control_c, 0, 64, 127
1, 7050, Note_on_c, 0, 65, 0
1, 7080, Note_on_c, 0, 77, 33
1, 7170, Note_on_c, 0, 77, 0
1, 7200, Note_on_c, 0, 67, 34
1, 7213, Control_c, 0, 64, 0
1, 7285, Control_c, 0, 64, 127
1, 7290, Note_on_c, 0, 67, 0
1, 7320, Note_on_c, 0, 79, 33
1, 7410, Note_on_c, 0, 79, 0
1, 7440, Note_on_c, 0, 69, 34
1, 7444, Control_c, 0, 64, 0
1, 7497, Control_c, 0, 64, 127
1, 7530, Note_on_c, 0, 69, 0
1, 7560, Note_on_c, 0, 81, 33
1, 7617, Control_c, 0, 64, 0
1, 7650, Note_on_c, 0, 81, 0
1, 7680, Tempo, 487329
1, 7680, Note_on_c, 0, 72, 0
1, 7680, Note_on_c, 0, 70, 45
1, 7680, Note_on_c, 0, 64, 37
1, 7758, Control_c, 0, 64, 127
1, 7770, Note_on_c, 0, 64, 0
1, 7800, Note_on_c, 0, 76, 40
1, 7890, Note_on_c, 0, 76, 0
1, 7920, Tempo, 485751
1, 7920, Note_on_c, 0, 65, 33
1, 7928, Control_c, 0, 64, 0
1, 7998, Control_c, 0, 64, 127
1, 8010, Note_on_c, 0, 65, 0
1, 8040, Tempo, 487527
1, 8040, Note_on_c, 0, 77, 34
1, 8130, Note_on_c, 0, 77, 0
1, 8160, Note_on_c, 0, 67, 33
1, 8173, Control_c, 0, 64, 0
1, 8238, Control_c, 0, 64, 127
1, 8250, Note_on_c, 0, 67, 0
1, 8280, Note_on_c, 0, 79, 34
1, 8370, Note_on_c, 0, 79, 0
1, 8400, Note_on_c, 0, 69, 33
1, 8413, Control_c, 0, 64, 0
1, 8478, Control_c, 0, 64, 127
1, 8490, Note_on_c, 0, 69, 0
1, 8520, Note_on_c, 0, 81, 34
1, 8610, Note_on_c, 0, 81, 0
1, 8640, Tempo, 479540
1, 8640, Note_on_c, 0, 64, 37
1, 8655, Control_c, 0, 64, 0
1, 8704, Control_c, 0, 64, 127
1, 8730, Note_on_c, 0, 64, 0
1, 8760, Note_on_c, 0, 76, 40
1, 8850, Note_on_c, 0, 76, 0
1, 8880, Tempo, 483949
1, 8880, Note_on_c, 0, 65, 34
1, 8894, Control_c, 0, 64, 0
1, 8965, Control_c, 0, 64, 127
1, 8970, Note_on_c, 0, 65, 0
1, 9000, Note_on_c, 0, 77, 33
1, 9090, Note_on_c, 0, 77, 0
1, 9120, Note_on_c, 0, 67, 34
1, 9133, Control_c, 0, 64, 0
1, 9205, Control_c, 0, 64, 127
1, 9210, Note_on_c, 0, 67, 0
1, 9240, Note_on_c, 0, 79, 33
1, 9330, Note_on_c, 0, 79, 0
1, 9360, Note_on_c, 0, 69, 34
1, 9364, Control_c, 0, 64, 0
1, 9417, Control_c, 0, 64, 127
1, 9450, Note_on_c, 0, 69, 0
1, 9480, Note_on_c, 0, 81, 33
1, 9537, Control_c, 0, 64, 0
1, 9570, Note_on_c, 0, 81, 0
1, 9600, Tempo, 487329
1, 9600, Note_on_c, 0, 70, 0
1, 9600, Note_on_c, 0, 73, 45
1, 9600, Note_on_c, 0, 64, 37
1, 9678, Control_c, 0, 64, 127
1, 9690, Note_on_c, 0, 64, 0
1, 9720, Note_on_c, 0, 76, 40
1, 9810, Note_on_c, 0, 76, 0
1, 9840, Tempo, 485751
1, 9840, Note_on_c, 0, 65, 33
1, 9848, Control_c, 0, 64, 0
1, 9918, Control_c, 0, 64, 127
1, 9930, Note_on_c, 0, 65, 0
1, 9960, Note_on_c, 0, 77, 34
1, 10050, Note_on_c, 0, 77, 0
1, 10080, Note_on_c, 0, 67, 33
1, 10093, Control_c, 0, 64, 0
1, 10158, Control_c, 0, 64, 127
1, 10170, Note_on_c, 0, 67, 0
1, 10200, Note_on_c, 0, 79, 34
1, 10290, Note_on_c, 0, 79, 0
1, 10320, Note_on_c, 0, 69, 33
1, 10333, Control_c, 0, 64, 0
1, 10398, Control_c, 0, 64, 127
1, 10410, Note_on_c, 0, 69, 0
1, 10440, Note_on_c, 0, 81, 34
1, 10530, Note_on_c, 0, 81, 0
1, 10560, Tempo, 489317
1, 10560, Note_on_c, 0, 64, 37
1, 10575, Control_c, 0, 64, 0
1, 10645, Control_c, 0, 64, 127
1, 10650, Note_on_c, 0, 64, 0
1, 10680, Note_on_c, 0, 76, 40
1, 10770, Note_on_c, 0, 76, 0
1, 10800, Tempo, 483949
1, 10800, Note_on_c, 0, 65, 34
1, 10814, Control_c, 0, 64, 0
1, 10885, Control_c, 0, 64, 127
1, 10890, Note_on_c, 0, 65, 0
1, 10920, Note_on_c, 0, 77, 33
1, 11010, Note_on_c, 0, 77, 0
1, 11040, Note_on_c, 0, 67, 34
1, 11053, Control_c, 0, 64, 0
1, 11125, Control_c, 0, 64, 127
1, 11130, Note_on_c, 0, 67, 0
1, 11160, Note_on_c, 0, 79, 33
1, 11250, Note_on_c, 0, 79, 0
1, 11280, Tempo, 517911
1, 11280, Note_on_c, 0, 69, 34
1, 11284, Control_c, 0, 64, 0
1, 11337, Control_c, 0, 64, 127
1, 11370, Note_on_c, 0, 69, 0
1, 11400, Note_on_c, 0, 81, 33
1, 11457, Control_c, 0, 64, 0
1, 11490, Note_on_c, 0, 81, 0
1, 11520, Tempo, 489317
1, 11520, Note_on_c, 0, 73, 0
1, 11520, Note_on_c, 0, 74, 39
1, 11520, Note_on_c, 0, 62, 39
1, 11577, Control_c, 0, 64, 127
1, 11610, Note_on_c, 0, 74, 0
1, 11640, Note_on_c, 0, 76, 36
1, 11730, Note_on_c, 0, 76, 0
1, 11760, Tempo, 483949
1, 11760, Note_on_c, 0, 72, 29
1, 11768, Control_c, 0, 64, 0
1, 11838, Control_c, 0, 64, 127
1, 11850, Note_on_c, 0, 72, 0
1, 11880, Note_on_c, 0, 77, 30
1, 11970, Note_on_c, 0, 77, 0
1, 12000, Tempo, 473859
1, 12000, Note_on_c, 0, 70, 29
1, 12013, Control_c, 0, 64, 0
1, 12071, Control_c, 0, 64, 127
1, 12090, Note_on_c, 0, 70, 0
1, 12120, Note_on_c, 0, 79, 30
1, 12210, Note_on_c, 0, 79, 0
1, 12240, Tempo, 483403
1, 12240, Note_on_c, 0, 69, 29
1, 12253, Control_c, 0, 64, 0
1, 12318, Control_c, 0, 64, 127
1, 12330, Note_on_c, 0, 69, 0
1, 12360, Note_on_c, 0, 81, 30
1, 12450, Note_on_c, 0, 81, 0
1, 12480, Tempo, 485751
1, 12480, Note_on_c, 0, 72, 36
1, 12495, Control_c, 0, 64, 0
1, 12558, Control_c, 0, 64, 127
1, 12570, Note_on_c, 0, 72, 0
1, 12600, Note_on_c, 0, 74, 36
1, 12690, Note_on_c, 0, 74, 0
1, 12720, Note_on_c, 0, 70, 30
1, 12734, Control_c, 0, 64, 0
1, 12805, Control_c, 0, 64, 127
1, 12810, Note_on_c, 0, 70, 0
1, 12840, Note_on_c, 0, 76, 29
1, 12930, Note_on_c, 0, 76, 0
1, 12960, Tempo, 480461
1, 12960, Note_on_c, 0, 69, 30
1, 12973, Control_c, 0, 64, 0
1, 13045, Control_c, 0, 64, 127
1, 13050, Note_on_c, 0, 69, 0
1, 13080, Note_on_c, 0, 77, 29
1, 13170, Note_on_c, 0, 77, 0
1, 13200, Tempo, 487329
1, 13200, Note_on_c, 0, 67, 30
1, 13204, Control_c, 0, 64, 0
1, 13257, Control_c, 0, 64, 127
1, 13290, Note_on_c, 0, 67, 0
1, 13320, Note_on_c, 0, 79, 29
1, 13377, Control_c, 0, 64, 0
1, 13410, Note_on_c, 0, 79, 0
1, 13440, Tempo, 482199
1, 13440, Note_on_c, 0, 62, 0
1, 13440, Note_on_c, 0, 62, 40
1, 13440, Note_on_c, 0, 74, 33
1, 13530, Note_on_c, 0, 74, 0
1, 13532, Control_c, 0, 64, 127
1, 13560, Note_on_c, 0, 76, 36
1, 13650, Note_on_c, 0, 76, 0
1, 13680, Note_on_c, 0, 72, 29
1, 13688, Control_c, 0, 64, 0
1, 13758, Control_c, 0, 64, 127
1, 13770, Note_on_c, 0, 72, 0
1, 13800, Note_on_c, 0, 77, 30
1, 13890, Note_on_c, 0, 77, 0
1, 13920, Tempo, 478736
1, 13920, Note_on_c, 0, 70, 29
1, 13933, Control_c, 0, 64, 0
1, 13991, Control_c, 0, 64, 127
1, 14010, Note_on_c, 0, 70, 0
1, 14040, Note_on_c, 0, 79, 30
1, 14130, Note_on_c, 0, 79, 0
1, 14160, Tempo, 477023
1, 14160, Note_on_c, 0, 69, 29
1, 14173, Control_c, 0, 64, 0
1, 14238, Control_c, 0, 64, 127
1, 14250, Note_on_c, 0, 69, 0
1, 14280, Note_on_c, 0, 81, 30
1, 14370, Note_on_c, 0, 81, 0
1, 14400, Tempo, 480461
1, 14400, Note_on_c, 0, 72, 33
1, 14415, Control_c, 0, 64, 0
1, 14490, Note_on_c, 0, 72, 0
1, 14513, Control_c, 0, 64, 127
1, 14520, Note_on_c, 0, 74, 36
1, 14610, Note_on_c, 0, 74, 0
1, 14640, Note_on_c, 0, 70, 30
1, 14654, Control_c, 0, 64, 0
1, 14725, Control_c, 0, 64, 127
1, 14730, Note_on_c, 0, 70, 0
1, 14760, Note_on_c, 0, 76, 29
1, 14850, Note_on_c, 0, 76, 0
1, 14880, Note_on_c, 0, 69, 30
1, 14893, Control_c, 0, 64, 0
1, 14965, Control_c, 0, 64, 127
1, 14970, Note_on_c, 0, 69, 0
1, 15000, Note_on_c, 0, 77, 29
1, 15090, Note_on_c, 0, 77, 0
1, 15120, Tempo, 494764
1, 15120, Note_on_c, 0, 67, 30
1, 15124, Control_c, 0, 64, 0
1, 15177, Control_c, 0, 64, 127
1, 15210, Note_on_c, 0, 67, 0
1, 15240, Note_on_c, 0, 79, 29
1, 15297, Control_c, 0, 64, 0
1, 15330, Note_on_c, 0, 79, 0
1, 15360, Tempo, 480461
1, 15360, Note_on_c, 0, 62, 0
1, 15360, Note_on_c, 0, 62, 40
1, 15360, Note_on_c, 0, 69, 33
1, 15431, Control_c, 0, 64, 127
1, 15450, Note_on_c, 0, 69, 0
1, 15480, Note_on_c, 0, 76, 36
1, 15570, Note_on_c, 0, 76, 0
1, 15600, Note_on_c, 0, 72, 29
1, 15608, Control_c, 0, 64, 0
1, 15678, Control_c, 0, 64, 127
1, 15690, Note_on_c, 0, 72, 0
1, 15720, Note_on_c, 0, 77, 30
1, 15810, Note_on_c, 0, 77, 0
1, 15840, Note_on_c, 0, 70, 29
1, 15853, Control_c, 0, 64, 0
1, 15918, Control_c, 0, 64, 127
1, 15930, Note_on_c, 0, 70, 0
1, 15960, Note_on_c, 0, 74, 30
1, 16050, Note_on_c, 0, 74, 0
1, 16080, Note_on_c, 0, 67, 29
1, 16093, Control_c, 0, 64, 0
1, 16158, Control_c, 0, 64, 127
1, 16170, Note_on_c, 0, 67, 0
1, 16200, Note_on_c, 0, 76, 30
1, 16290, Note_on_c, 0, 76, 0
1, 16320, Tempo, 477631
1, 16320, Note_on_c, 0, 69, 33
1, 16335, Control_c, 0, 64, 0
1, 16384, Control_c, 0, 64, 127
1, 16410, Note_on_c, 0, 69, 0
1, 16440, Note_on_c, 0, 72, 36
1, 16530, Note_on_c, 0, 72, 0
1, 16560, Note_on_c, 0, 65, 30
1, 16574, Control_c, 0, 64, 0
1, 16645, Control_c, 0, 64, 127
1, 16650, Note_on_c, 0, 65, 0
1, 16680, Tempo, 470146
1, 16680, Note_on_c, 0, 74, 29
1, 16770, Note_on_c, 0, 74, 0
1, 16800, Note_on_c, 0, 67, 30
1, 16813, Control_c, 0, 64, 0
1, 16885, Control_c, 0, 64, 127
1, 16890, Note_on_c, 0, 67, 0
1, 16920, Note_on_c, 0, 70, 29
1, 17010, Note_on_c, 0, 70, 0
1, 17040, Tempo, 483949
1, 17040, Note_on_c, 0, 64, 30
1, 17044, Control_c, 0, 64, 0
1, 17097, Control_c, 0, 64, 127
1, 17130, Note_on_c, 0, 64, 0
1, 17160, Note_on_c, 0, 72, 29
1, 17217, Control_c, 0, 64, 0
1, 17250, Note_on_c, 0, 72, 0
1, 17280, Tempo, 478736
1, 17280, Note_on_c, 0, 62, 0
1, 17280, Note_on_c, 0, 62, 40
1, 17280, Note_on_c, 0, 69, 33
1, 17358, Control_c, 0, 64, 127
1, 17370, Note_on_c, 0, 69, 0
1, 17400, Note_on_c, 0, 76, 36
1, 17490, Note_on_c, 0, 76, 0
1, 17520, Note_on_c, 0, 72, 29
1, 17528, Control_c, 0, 64, 0
1, 17563, Control_c, 0, 64, 127
1, 17610, Note_on_c, 0, 72, 0
1, 17640, Note_on_c, 0, 77, 30
1, 17730, Note_on_c, 0, 77, 0
1, 17760, Note_on_c, 0, 70, 29
1, 17773, Control_c, 0, 64, 0
1, 17838, Control_c, 0, 64, 127
1, 17850, Note_on_c, 0, 70, 0
1, 17880, Note_on_c, 0, 74, 30
1, 17970, Note_on_c, 0, 74, 0
1, 18000, Note_on_c, 0, 67, 29
1, 18013, Control_c, 0, 64, 0
1, 18053, Control_c, 0, 64, 127
1, 18090, Note_on_c, 0, 67, 0
1, 18120, Note_on_c, 0, 76, 30
1, 18210, Note_on_c, 0, 76, 0
1, 18240, Tempo, 489317
1, 18240, Note_on_c, 0, 69, 33
1, 18255, Control_c, 0, 64, 0
1, 18318, Control_c, 0, 64, 127
1, 18330, Note_on_c, 0, 69, 0
1, 18360, Note_on_c, 0, 72, 36
1, 18450, Note_on_c, 0, 72, 0
1, 18480, Note_on_c, 0, 65, 30
1, 18494, Control_c, 0, 64, 0
1, 18533, Control_c, 0, 64, 127
1, 18570, Note_on_c, 0, 65, 0
1, 18600, Note_on_c, 0, 74, 29
1, 18690, Note_on_c, 0, 74, 0
1, 18720, Tempo, 500375
1, 18720, Note_on_c, 0, 69, 32
1, 18733, Control_c, 0, 64, 0
1, 18780, Control_c, 0, 64, 127
1, 18810, Note_on_c, 0, 69, 0
1, 18840, Note_on_c, 0, 76, 29
1, 18930, Note_on_c, 0, 76, 0
1, 18960, Tempo, 537538
1, 18960, Note_on_c, 0, 74, 33
1, 18964, Control_c, 0, 64, 0
1, 19017, Control_c, 0, 64, 127
1, 19050, Note_on_c, 0, 74, 0
1, 19080, Note_on_c, 0, 77, 29
1, 19137, Control_c, 0, 64, 0
1, 19170, Note_on_c, 0, 77, 0
1, 19200, Tempo, 485751
1, 19200, Note_on_c, 0, 62, 0
1, 19200, Note_on_c, 0, 73, 51
1, 19235, Control_c, 0, 64, 127
1, 19320, Note_on_c, 0, 73, 0
1, 19320, Note_on_c, 0, 77, 40
1, 19440, Tempo, 473634
1, 19440, Note_on_c, 0, 77, 0
1, 19440, Note_on_c, 0, 81, 43
1, 19560, Note_on_c, 0, 81, 0
1, 19560, Note_on_c, 0, 76, 38
1, 19680, Note_on_c, 0, 76, 0
1, 19680, Note_on_c, 0, 73, 37
1, 19800, Note_on_c, 0, 73, 0
1, 19800, Note_on_c, 0, 77, 43
1, 19920, Tempo, 485751
1, 19920, Note_on_c, 0, 77, 0
1, 19920, Note_on_c, 0, 81, 39
1, 20040, Note_on_c, 0, 81, 0
1, 20040, Note_on_c, 0, 76, 41
1, 20160, Tempo, 475323
1, 20160, Note_on_c, 0, 76, 0
1, 20160, Note_on_c, 0, 73, 49
1, 20178, Control_c, 0, 64, 0
1, 20240, Control_c, 0, 64, 127
1, 20280, Note_on_c, 0, 73, 0
1, 20280, Note_on_c, 0, 77, 46
1, 20400, Note_on_c, 0, 77, 0
1, 20400, Note_on_c, 0, 79, 48
1, 20520, Note_on_c, 0, 79, 0
1, 20520, Note_on_c, 0, 76, 44
1, 20640, Note_on_c, 0, 76, 0
1, 20640, Note_on_c, 0, 73, 43
1, 20760, Note_on_c, 0, 73, 0
1, 20760, Note_on_c, 0, 77, 50
1, 20880, Note_on_c, 0, 77, 0
1, 20880, Note_on_c, 0, 79, 45
1, 21000, Note_on_c, 0, 79, 0
1, 21000, Note_on_c, 0, 76, 47
1, 21120, Tempo, 485751
1, 21120, Note_on_c, 0, 76, 0
1, 21120, Note_on_c, 0, 70, 46
1, 21120, Note_on_c, 0, 73, 54
1, 21120, Control_c, 0, 64, 0
1, 21206, Control_c, 0, 64, 127
1, 21240, Note_on_c, 0, 73, 0
1, 21240, Note_on_c, 0, 77, 42
1, 21360, Tempo, 473634
1, 21360, Note_on_c, 0, 77, 0
1, 21360, Note_on_c, 0, 82, 44
1, 21480, Note_on_c, 0, 82, 0
1, 21480, Note_on_c, 0, 76, 38
1, 21600, Note_on_c, 0, 76, 0
1, 21600, Note_on_c, 0, 73, 37
1, 21720, Note_on_c, 0, 73, 0
1, 21720, Note_on_c, 0, 77, 41
1, 21840, Tempo, 485751
1, 21840, Note_on_c, 0, 77, 0
1, 21840, Note_on_c, 0, 82, 36
1, 21960, Note_on_c, 0, 82, 0
1, 21960, Note_on_c, 0, 76, 37
1, 22080, Tempo, 475323
1, 22080, Note_on_c, 0, 76, 0
1, 22080, Note_on_c, 0, 73, 44
1, 22200, Note_on_c, 0, 73, 0
1, 22200, Note_on_c, 0, 77, 40
1, 22320, Note_on_c, 0, 77, 0
1, 22320, Note_on_c, 0, 82, 41
1, 22440, Note_on_c, 0, 82, 0
1, 22440, Note_on_c, 0, 76, 37
1, 22560, Note_on_c, 0, 76, 0
1, 22560, Note_on_c, 0, 73, 35
1, 22680, Note_on_c, 0, 73, 0
1, 22680, Note_on_c, 0, 77, 39
1, 22800, Note_on_c, 0, 77, 0
1, 22800, Note_on_c, 0, 82, 35
1, 22920, Note_on_c, 0, 82, 0
1, 22920, Note_on_c, 0, 76, 36
1, 23040, Tempo, 485751
1, 23040, Note_on_c, 0, 76, 0
1, 23040, Note_on_c, 0, 70, 0
1, 23040, Note_on_c, 0, 73, 51
1, 23040, Control_c, 0, 64, 0
1, 23132, Control_c, 0, 64, 127
1, 23160, Note_on_c, 0, 73, 0
1, 23160, Note_on_c, 0, 77, 40
1, 23280, Tempo, 473634
1, 23280, Note_on_c, 0, 77, 0
1, 23280, Note_on_c, 0, 81, 43
1, 23400, Note_on_c, 0, 81, 0
1, 23400, Note_on_c, 0, 76, 38
1, 23520, Note_on_c, 0, 76, 0
1, 23520, Note_on_c, 0, 73, 37
1, 23640, Note_on_c, 0, 73, 0
1, 23640, Note_on_c, 0, 77, 42
1, 23760, Tempo, 485751
1, 23760, Note_on_c, 0, 77, 0
1, 23760, Note_on_c, 0, 81, 37
1, 23880, Note_on_c, 0, 81, 0
1, 23880, Note_on_c, 0, 76, 39
1, 24000, Tempo, 475323
1, 24000, Note_on_c, 0, 76, 0
1, 24000, Note_on_c, 0, 73, 46
1, 24018, Control_c, 0, 64, 0
1, 24080, Control_c, 0, 64, 127
1, 24120, Note_on_c, 0, 73, 0
1, 24120, Note_on_c, 0, 77, 43
1, 24240, Note_on_c, 0, 77, 0
1, 24240, Note_on_c, 0, 79, 45
1, 24360, Note_on_c, 0, 79, 0
1, 24360, Note_on_c, 0, 76, 40
1, 24480, Note_on_c, 0, 76, 0
1, 24480, Note_on_c, 0, 73, 39
1, 24600, Note_on_c, 0, 73, 0
1, 24600, Note_on_c, 0, 77, 45
1, 24720, Note_on_c, 0, 77, 0
1, 24720, Note_on_c, 0, 79, 40
1, 24840, Note_on_c, 0, 79, 0
1, 24840, Note_on_c, 0, 76, 42
1, 24960, Tempo, 485751
1, 24960, Note_on_c, 0, 76, 0
1, 24960, Note_on_c, 0, 66, 39
1, 24960, Note_on_c, 0, 70, 46
1, 24960, Note_on_c, 0, 73, 54
1, 24960, Control_c, 0, 64, 0
1, 25046, Control_c, 0, 64, 127
1, 25080, Note_on_c, 0, 73, 0
1, 25080, Note_on_c, 0, 75, 42
1, 25200, Tempo, 473634
1, 25200, Note_on_c, 0, 75, 0
1, 25200, Note_on_c, 0, 82, 44
1, 25320, Note_on_c, 0, 82, 0
1, 25320, Note_on_c, 0, 77, 38
1, 25440, Note_on_c, 0, 77, 0
1, 25440, Note_on_c, 0, 73, 36
1, 25560, Note_on_c, 0, 73, 0
1, 25560, Note_on_c, 0, 75, 41
1, 25680, Tempo, 494764
1, 25680, Note_on_c, 0, 75, 0
1, 25680, Note_on_c, 0, 82, 36
1, 25800, Tempo, 594413
1, 25800, Note_on_c, 0, 82, 0
1, 25800, Note_on_c, 0, 77, 37
1, 25920, Tempo, 492935
1, 25920, Note_on_c, 0, 77, 0
1, 25920, Note_on_c, 0, 70, 0
1, 25920, Note_on_c, 0, 66, 0
1, 25920, Note_on_c, 0, 63, 36
1, 25920, Note_on_c, 0, 66, 43
1, 25920, Note_on_c, 0, 70, 43
1, 25931, Control_c, 0, 64, 0
1, 25947, Tempo, 475323
1, 26040, Note_on_c, 0, 70, 0
1, 26040, Note_on_c, 0, 71, 39
1, 26043, Tempo, 477023
1, 26052, Control_c, 0, 64, 127
1, 26139, Tempo, 478736
1, 26160, Note_on_c, 0, 71, 0
1, 26160, Note_on_c, 0, 78, 40
1, 26235, Tempo, 480461
1, 26280, Note_on_c, 0, 78, 0
1, 26280, Note_on_c, 0, 73, 35
1, 26331, Tempo, 482199
1, 26400, Note_on_c, 0, 73, 0
1, 26400, Note_on_c, 0, 70, 34
1, 26403, Tempo, 483949
1, 26499, Tempo, 485751
1, 26520, Note_on_c, 0, 70, 0
1, 26520, Note_on_c, 0, 71, 38
1, 26640, Tempo, 506073
1, 26640, Note_on_c, 0, 71, 0
1, 26640, Note_on_c, 0, 78, 33
1, 26760, Tempo, 591716
1, 26760, Note_on_c, 0, 78, 0
1, 26760, Note_on_c, 0, 73, 34
1, 26880, Tempo, 485751
1, 26880, Note_on_c, 0, 73, 0
1, 26880, Note_on_c, 0, 66, 0
1, 26880, Note_on_c, 0, 63, 0
1, 26880, Note_on_c, 0, 66, 39
1, 26880, Note_on_c, 0, 70, 46
1, 26880, Note_on_c, 0, 73, 54
1, 26880, Control_c, 0, 64, 0
1, 26966, Control_c, 0, 64, 127
1, 27000, Note_on_c, 0, 73, 0
1, 27000, Note_on_c, 0, 75, 42
1, 27120, Tempo, 473634
1, 27120, Note_on_c, 0, 75, 0
1, 27120, Note_on_c, 0, 82, 44
1, 27240, Note_on_c, 0, 82, 0
1, 27240, Note_on_c, 0, 77, 38
1, 27360, Note_on_c, 0, 77, 0
1, 27360, Note_on_c, 0, 73, 36
1, 27480, Note_on_c, 0, 73, 0
1, 27480, Note_on_c, 0, 75, 41
1, 27600, Tempo, 494764
1, 27600, Note_on_c, 0, 75, 0
1, 27600, Note_on_c, 0, 82, 36
1, 27720, Tempo, 594413
1, 27720, Note_on_c, 0, 82, 0
1, 27720, Note_on_c, 0, 77, 37
1, 27840, Tempo, 492935
1, 27840, Note_on_c, 0, 77, 0
1, 27840, Note_on_c, 0, 70, 0
1, 27840, Note_on_c, 0, 66, 0
1, 27840, Note_on_c, 0, 63, 36
1, 27840, Note_on_c, 0, 66, 43
1, 27840, Note_on_c, 0, 70, 43
1, 27851, Control_c, 0, 64, 0
1, 27867, Tempo, 475323
1, 27960, Note_on_c, 0, 70, 0
1, 27960, Note_on_c, 0, 71, 39
1, 27963, Tempo, 477023
1, 27972, Control_c, 0, 64, 127
1, 28059, Tempo, 478736
1, 28080, Note_on_c, 0, 71, 0
1, 28080, Note_on_c, 0, 78, 40
1, 28155, Tempo, 480461
1, 28200, Note_on_c, 0, 78, 0
1, 28200, Note_on_c, 0, 73, 35
1, 28251, Tempo, 482199
1, 28320, Note_on_c, 0, 73, 0
1, 28320, Note_on_c, 0, 70, 34
1, 28323, Tempo, 483949
1, 28419, Tempo, 485751
1, 28440, Note_on_c, 0, 70, 0
1, 28440, Note_on_c, 0, 71, 38
1, 28560, Tempo, 508044
1, 28560, Note_on_c, 0, 71, 0
1, 28560, Note_on_c, 0, 78, 33
1, 28680, Tempo, 589102
1, 28680, Note_on_c, 0, 78, 0
1, 28680, Note_on_c, 0, 73, 34
1, 28800, Tempo, 485751
1, 28800, Note_on_c, 0, 73, 0
1, 28800, Note_on_c, 0, 66, 0
1, 28800, Note_on_c, 0, 63, 0
1, 28800, Note_on_c, 0, 59, 36
1, 28800, Note_on_c, 0, 63, 43
1, 28800, Note_on_c, 0, 66, 47
1, 28800, Control_c, 0, 64, 0
1, 28892, Control_c, 0, 64, 127
1, 28920, Note_on_c, 0, 66, 0
1, 28920, Note_on_c, 0, 68, 37
1, 29040, Tempo, 473634
1, 29040, Note_on_c, 0, 68, 0
1, 29040, Note_on_c, 0, 75, 39
1, 29160, Note_on_c, 0, 75, 0
1, 29160, Note_on_c, 0, 70, 34
1, 29280, Note_on_c, 0, 70, 0
1, 29280, Note_on_c, 0, 66, 33
1, 29400, Note_on_c, 0, 66, 0
1, 29400, Note_on_c, 0, 68, 37
1, 29520, Tempo, 485751
1, 29520, Note_on_c, 0, 68, 0
1, 29520, Note_on_c, 0, 75, 33
1, 29640, Note_on_c, 0, 75, 0
1, 29640, Note_on_c, 0, 70, 34
1, 29760, Tempo, 475323
1, 29760, Note_on_c, 0, 70, 0
1, 29760, Note_on_c, 0, 66, 40
1, 29880, Note_on_c, 0, 66, 0
1, 29880, Note_on_c, 0, 68, 37
1, 30000, Tempo, 467435
1, 30000, Note_on_c, 0, 68, 0
1, 30000, Note_on_c, 0, 75, 38
1, 30120, Note_on_c, 0, 75, 0
1, 30120, Note_on_c, 0, 70, 34
1, 30240, Note_on_c, 0, 70, 0
1, 30240, Note_on_c, 0, 66, 33
1, 30360, Note_on_c, 0, 66, 0
1, 30360, Note_on_c, 0, 68, 37
1, 30480, Note_on_c, 0, 68, 0
1, 30480, Note_on_c, 0, 75, 33
1, 30600, Note_on_c, 0, 75, 0
1, 30600, Note_on_c, 0, 70, 34
1, 30720, Tempo, 485751
1, 30720, Note_on_c, 0, 70, 0
1, 30720, Note_on_c, 0, 63, 0
1, 30720, Note_on_c, 0, 59, 0
1, 30720, Note_on_c, 0, 63, 46
1, 30720, Note_on_c, 0, 66, 54
1, 30720, Control_c, 0, 64, 0
1, 30806, Control_c, 0, 64, 127
1, 30840, Note_on_c, 0, 66, 0
1, 30840, Note_on_c, 0, 68, 41
1, 30960, Tempo, 473634
1, 30960, Note_on_c, 0, 68, 0
1, 30960, Note_on_c, 0, 75, 42
1, 31080, Note_on_c, 0, 75, 0
1, 31080, Note_on_c, 0, 70, 36
1, 31200, Note_on_c, 0, 70, 0
1, 31200, Note_on_c, 0, 66, 33
1, 31320, Note_on_c, 0, 66, 0
1, 31320, Note_on_c, 0, 68, 37
1, 31440, Tempo, 494764
1, 31440, Note_on_c, 0, 68, 0
1, 31440, Note_on_c, 0, 75, 32
1, 31560, Tempo, 594413
1, 31560, Note_on_c, 0, 75, 0
1, 31560, Note_on_c, 0, 70, 32
1, 31680, Tempo, 492935
1, 31680, Note_on_c, 0, 70, 0
1, 31680, Note_on_c, 0, 63, 0
1, 31680, Note_on_c, 0, 61, 30
1, 31680, Note_on_c, 0, 63, 36
1, 31680, Note_on_c, 0, 66, 36
1, 31691, Control_c, 0, 64, 0
1, 31707, Tempo, 475323
1, 31800, Note_on_c, 0, 66, 0
1, 31800, Note_on_c, 0, 68, 33
1, 31803, Tempo, 477023
1, 31812, Control_c, 0, 64, 127
1, 31899, Tempo, 478736
1, 31920, Note_on_c, 0, 68, 0
1, 31920, Note_on_c, 0, 75, 34
1, 31995, Tempo, 480461
1, 32040, Note_on_c, 0, 75, 0
1, 32040, Note_on_c, 0, 70, 29
1, 32091, Tempo, 482199
1, 32160, Note_on_c, 0, 70, 0
1, 32160, Note_on_c, 0, 66, 28
1, 32163, Tempo, 483949
1, 32259, Tempo, 485751
1, 32280, Note_on_c, 0, 66, 0
1, 32280, Note_on_c, 0, 68, 32
1, 32400, Note_on_c, 0, 68, 0
1, 32400, Note_on_c, 0, 75, 28
1, 32520, Note_on_c, 0, 75, 0
1, 32520, Note_on_c, 0, 70, 28
1, 32640, Tempo, 485751
1, 32640, Note_on_c, 0, 70, 0
1, 32640, Note_on_c, 0, 63, 0
1, 32640, Note_on_c, 0, 61, 0
1, 32640, Note_on_c, 0, 59, 33
1, 32640, Note_on_c, 0, 63, 39
1, 32640, Note_on_c, 0, 66, 45
1, 32640, Control_c, 0, 64, 0
1, 32726, Control_c, 0, 64, 127
1, 32760, Note_on_c, 0, 66, 0
1, 32760, Note_on_c, 0, 68, 35
1, 32880, Tempo, 473634
1, 32880, Note_on_c, 0, 68, 0
1, 32880, Note_on_c, 0, 75, 33
1, 33000, Note_on_c, 0, 75, 0
1, 33000, Note_on_c, 0, 70, 32
1, 33120, Note_on_c, 0, 70, 0
1, 33120, Note_on_c, 0, 66, 27
1, 33240, Note_on_c, 0, 66, 0
1, 33240, Note_on_c, 0, 68, 34
1, 33360, Note_on_c, 0, 68, 0
1, 33360, Note_on_c, 0, 75, 27
1, 33480, Note_on_c, 0, 75, 0
1, 33480, Note_on_c, 0, 70, 31
1, 33600, Tempo, 492935
1, 33600, Note_on_c, 0, 70, 0
1, 33600, Note_on_c, 0, 66, 32
1, 33627, Tempo, 475323
1, 33720, Note_on_c, 0, 66, 0
1, 33720, Note_on_c, 0, 68, 33
1, 33723, Tempo, 477023
1, 33819, Tempo, 478736
1, 33840, Note_on_c, 0, 68, 0
1, 33840, Note_on_c, 0, 75, 30
1, 33915, Tempo, 480461
1, 33960, Note_on_c, 0, 75, 0
1, 33960, Note_on_c, 0, 70, 29
1, 34011, Tempo, 482199
1, 34080, Note_on_c, 0, 70, 0
1, 34080, Note_on_c, 0, 66, 25
1, 34083, Tempo, 483949
1, 34179, Tempo, 485751
1, 34200, Note_on_c, 0, 66, 0
1, 34200, Note_on_c, 0, 68, 32
1, 34320, Tempo, 508044
1, 34320, Note_on_c, 0, 68, 0
1, 34320, Note_on_c, 0, 75, 25
1, 34440, Tempo, 589102
1, 34440, Note_on_c, 0, 75, 0
1, 34440, Note_on_c, 0, 70, 28
1, 34560, Tempo, 485751
1, 34560, Note_on_c, 0, 70, 0
1, 34560, Note_on_c, 0, 63, 0
1, 34560, Note_on_c, 0, 59, 0
1, 34560, Note_on_c, 0, 63, 46
1, 34560, Note_on_c, 0, 66, 54
1, 34560, Control_c, 0, 64, 0
1, 34646, Control_c, 0, 64, 127
1, 34680, Note_on_c, 0, 66, 0
1, 34680, Note_on_c, 0, 68, 41
1, 34800, Tempo, 473634
1, 34800, Note_on_c, 0, 68, 0
1, 34800, Note_on_c, 0, 75, 42
1, 34920, Note_on_c, 0, 75, 0
1, 34920, Note_on_c, 0, 70, 36
1, 35040, Note_on_c, 0, 70, 0
1, 35040, Note_on_c, 0, 66, 33
1, 35160, Note_on_c, 0, 66, 0
1, 35160, Note_on_c, 0, 68, 37
1, 35280, Tempo, 494764
1, 35280, Note_on_c, 0, 68, 0
1, 35280, Note_on_c, 0, 75, 32
1, 35400, Tempo, 594413
1, 35400, Note_on_c, 0, 75, 0
1, 35400, Note_on_c, 0, 70, 32
1, 35520, Tempo, 492935
1, 35520, Note_on_c, 0, 70, 0
1, 35520, Note_on_c, 0, 63, 0
1, 35520, Note_on_c, 0, 61, 30
1, 35520, Note_on_c, 0, 63, 36
1, 35520, Note_on_c, 0, 66, 36
1, 35531, Control_c, 0, 64, 0
1, 35547, Tempo, 475323
1, 35640, Note_on_c, 0, 66, 0
1, 35640, Note_on_c, 0, 68, 33
1, 35643, Tempo, 477023
1, 35652, Control_c, 0, 64, 127
1, 35739, Tempo, 478736
1, 35760, Note_on_c, 0, 68, 0
1, 35760, Note_on_c, 0, 75, 34
1, 35835, Tempo, 480461
1, 35880, Note_on_c, 0, 75, 0
1, 35880, Note_on_c, 0, 70, 29
1, 35931, Tempo, 482199
1, 36000, Note_on_c, 0, 70, 0
1, 36000, Note_on_c, 0, 66, 28
1, 36003, Tempo, 483949
1, 36099, Tempo, 485751
1, 36120, Note_on_c, 0, 66, 0
1, 36120, Note_on_c, 0, 68, 32
1, 36240, Tempo, 506073
1, 36240, Note_on_c, 0, 68, 0
1, 36240, Note_on_c, 0, 75, 28
1, 36360, Tempo, 591716
1, 36360, Note_on_c, 0, 75, 0
1, 36360, Note_on_c, 0, 70, 28
1, 36480, Tempo, 485751
1, 36480, Note_on_c, 0, 70, 0
1, 36480, Note_on_c, 0, 63, 0
1, 36480, Note_on_c, 0, 61, 0
1, 36480, Note_on_c, 0, 60, 28
1, 36480, Note_on_c, 0, 63, 33
1, 36480, Note_on_c, 0, 66, 38
1, 36480, Control_c, 0, 64, 0
1, 36566, Control_c, 0, 64, 127
1, 36600, Note_on_c, 0, 66, 0
1, 36600, Note_on_c, 0, 68, 36
1, 36720, Tempo, 473634
1, 36720, Note_on_c, 0, 68, 0
1, 36720, Note_on_c, 0, 75, 36
1, 36840, Note_on_c, 0, 75, 0
1, 36840, Note_on_c, 0, 70, 37
1, 36960, Note_on_c, 0, 70, 0
1, 36960, Note_on_c, 0, 66, 41
1, 37080, Note_on_c, 0, 66, 0
1, 37080, Note_on_c, 0, 68, 43
1, 37200, Tempo, 494764
1, 37200, Note_on_c, 0, 68, 0
1, 37200, Note_on_c, 0, 75, 44
1, 37320, Tempo, 594413
1, 37320, Note_on_c, 0, 75, 0
1, 37320, Note_on_c, 0, 70, 43
1, 37440, Tempo, 492935
1, 37440, Note_on_c, 0, 70, 0
1, 37440, Note_on_c, 0, 63, 0
1, 37440, Note_on_c, 0, 60, 0
1, 37440, Note_on_c, 0, 61, 39
1, 37440, Note_on_c, 0, 63, 39
1, 37440, Note_on_c, 0, 66, 43
1, 37452, Control_c, 0, 64, 0
1, 37467, Tempo, 475323
1, 37500, Control_c, 0, 64, 127
1, 37560, Note_on_c, 0, 66, 0
1, 37560, Note_on_c, 0, 68, 38
1, 37563, Tempo, 477023
1, 37659, Tempo, 478736
1, 37680, Note_on_c, 0, 68, 0
1, 37680, Note_on_c, 0, 77, 39
1, 37755, Tempo, 480461
1, 37800, Note_on_c, 0, 77, 0
1, 37800, Note_on_c, 0, 70, 32
1, 37851, Tempo, 482199
1, 37920, Note_on_c, 0, 70, 0
1, 37920, Note_on_c, 0, 63, 0
1, 37920, Note_on_c, 0, 61, 0
1, 37920, Note_on_c, 0, 58, 36
1, 37920, Note_on_c, 0, 66, 30
1, 37923, Tempo, 483949
1, 38019, Tempo, 485751
1, 38040, Note_on_c, 0, 66, 0
1, 38040, Note_on_c, 0, 68, 34
1, 38160, Tempo, 508044
1, 38160, Note_on_c, 0, 68, 0
1, 38160, Note_on_c, 0, 77, 29
1, 38280, Tempo, 652813
1, 38280, Note_on_c, 0, 77, 0
1, 38280, Note_on_c, 0, 70, 28
1, 38400, Tempo, 485751
1, 38400, Note_on_c, 0, 70, 0
1, 38400, Note_on_c, 0, 58, 0
1, 38400, Note_on_c, 0, 60, 29
1, 38400, Note_on_c, 0, 63, 35
1, 38400, Note_on_c, 0, 66, 40
1, 38400, Control_c, 0, 64, 0
1, 38486, Control_c, 0, 64, 127
1, 38520, Note_on_c, 0, 66, 0
1, 38520, Note_on_c, 0, 68, 36
1, 38640, Tempo, 473634
1, 38640, Note_on_c, 0, 68, 0
1, 38640, Note_on_c, 0, 75, 40
1, 38760, Note_on_c, 0, 75, 0
1, 38760, Note_on_c, 0, 70, 37
1, 38880, Note_on_c, 0, 70, 0
1, 38880, Note_on_c, 0, 66, 36
1, 39000, Note_on_c, 0, 66, 0
1, 39000, Note_on_c, 0, 68, 43
1, 39120, Tempo, 494764
1, 39120, Note_on_c, 0, 68, 0
1, 39120, Note_on_c, 0, 75, 40
1, 39240, Tempo, 594413
1, 39240, Note_on_c, 0, 75, 0
1, 39240, Note_on_c, 0, 70, 43
1, 39360, Tempo, 492935
1, 39360, Note_on_c, 0, 70, 0
1, 39360, Note_on_c, 0, 63, 0
1, 39360, Note_on_c, 0, 60, 0
1, 39360, Note_on_c, 0, 61, 39
1, 39360, Note_on_c, 0, 63, 39
1, 39360, Note_on_c, 0, 66, 43
1, 39372, Control_c, 0, 64, 0
1, 39387, Tempo, 475323
1, 39446, Control_c, 0, 64, 127
1, 39480, Note_on_c, 0, 66, 0
1, 39480, Note_on_c, 0, 68, 38
1, 39483, Tempo, 477023
1, 39579, Tempo, 478736
1, 39600, Note_on_c, 0, 68, 0
1, 39600, Note_on_c, 0, 77, 39
1, 39675, Tempo, 480461
1, 39720, Note_on_c, 0, 77, 0
1, 39720, Note_on_c, 0, 70, 32
1, 39771, Tempo, 482199
1, 39840, Note_on_c, 0, 70, 0
1, 39840, Note_on_c, 0, 63, 0
1, 39840, Note_on_c, 0, 61, 0
1, 39840, Note_on_c, 0, 58, 36
1, 39840, Note_on_c, 0, 66, 30
1, 39843, Tempo, 483949
1, 39939, Tempo, 485751
1, 39960, Note_on_c, 0, 66, 0
1, 39960, Note_on_c, 0, 68, 34
1, 40080, Tempo, 508044
1, 40080, Note_on_c, 0, 68, 0
1, 40080, Note_on_c, 0, 77, 29
1, 40200, Tempo, 634115
1, 40200, Note_on_c, 0, 77, 0
1, 40200, Note_on_c, 0, 70, 28
1, 40320, Tempo, 485751
1, 40320, Note_on_c, 0, 70, 0
1, 40320, Note_on_c, 0, 58, 0
1, 40320, Note_on_c, 0, 78, 39
1, 40320, Note_on_c, 0, 54, 34
1, 40320, Note_on_c, 0, 60, 47
1, 40320, Control_c, 0, 64, 0
1, 40412, Control_c, 0, 64, 127
1, 40440, Note_on_c, 0, 60, 0
1, 40440, Note_on_c, 0, 66, 37
1, 40560, Tempo, 473634
1, 40560, Note_on_c, 0, 66, 0
1, 40560, Note_on_c, 0, 62, 35
1, 40680, Note_on_c, 0, 62, 0
1, 40680, Note_on_c, 0, 68, 34
1, 40800, Note_on_c, 0, 68, 0
1, 40800, Note_on_c, 0, 54, 0
1, 40800, Note_on_c, 0, 60, 33
1, 40920, Note_on_c, 0, 60, 0
1, 40920, Note_on_c, 0, 66, 37
1, 41040, Tempo, 485751
1, 41040, Note_on_c, 0, 66, 0
1, 41040, Note_on_c, 0, 62, 33
1, 41160, Note_on_c, 0, 62, 0
1, 41160, Note_on_c, 0, 68, 34
1, 41280, Tempo, 475323
1, 41280, Note_on_c, 0, 68, 0
1, 41280, Note_on_c, 0, 78, 0
1, 41280, Note_on_c, 0, 74, 39
1, 41280, Note_on_c, 0, 50, 34
1, 41280, Note_on_c, 0, 60, 40
1, 41298, Control_c, 0, 64, 0
1, 41360, Control_c, 0, 64, 127
1, 41400, Note_on_c, 0, 60, 0
1, 41400, Note_on_c, 0, 66, 37
1, 41520, Note_on_c, 0, 66, 0
1, 41520, Note_on_c, 0, 62, 37
1, 41640, Note_on_c, 0, 62, 0
1, 41640, Note_on_c, 0, 68, 34
1, 41760, Note_on_c, 0, 68, 0
1, 41760, Note_on_c, 0, 50, 0
1, 41760, Note_on_c, 0, 60, 33
1, 41880, Note_on_c, 0, 60, 0
1, 41880, Note_on_c, 0, 66, 37
1, 42000, Note_on_c, 0, 66, 0
1, 42000, Note_on_c, 0, 62, 33
1, 42120, Note_on_c, 0, 62, 0
1, 42120, Note_on_c, 0, 68, 34
1, 42240, Tempo, 485751
1, 42240, Note_on_c, 0, 68, 0
1, 42240, Note_on_c, 0, 74, 0
1, 42240, Note_on_c, 0, 76, 39
1, 42240, Note_on_c, 0, 52, 34
1, 42240, Note_on_c, 0, 60, 47
1, 42240, Control_c, 0, 64, 0
1, 42332, Control_c, 0, 64, 127
1, 42360, Note_on_c, 0, 60, 0
1, 42360, Note_on_c, 0, 66, 37
1, 42480, Tempo, 473634
1, 42480, Note_on_c, 0, 66, 0
1, 42480, Note_on_c, 0, 62, 35
1, 42600, Note_on_c, 0, 62, 0
1, 42600, Note_on_c, 0, 68, 34
1, 42720, Note_on_c, 0, 68, 0
1, 42720, Note_on_c, 0, 52, 0
1, 42720, Note_on_c, 0, 60, 33
1, 42840, Note_on_c, 0, 60, 0
1, 42840, Note_on_c, 0, 66, 37
1, 42960, Tempo, 485751
1, 42960, Note_on_c, 0, 66, 0
1, 42960, Note_on_c, 0, 62, 33
1, 43080, Note_on_c, 0, 62, 0
1, 43080, Note_on_c, 0, 68, 34
1, 43200, Tempo, 475323
1, 43200, Note_on_c, 0, 68, 0
1, 43200, Note_on_c, 0, 60, 40
1, 43320, Note_on_c, 0, 60, 0
1, 43320, Note_on_c, 0, 66, 37
1, 43440, Note_on_c, 0, 66, 0
1, 43440, Note_on_c, 0, 62, 37
1, 43560, Tempo, 549853
1, 43560, Note_on_c, 0, 62, 0
1, 43560, Note_on_c, 0, 68, 34
1, 43680, Tempo, 473859
1, 43680, Note_on_c, 0, 68, 0
1, 43680, Note_on_c, 0, 76, 0
1, 43680, Note_on_c, 0, 76, 39
1, 43680, Note_on_c, 0, 52, 34
1, 43680, Note_on_c, 0, 60, 33
1, 43800, Note_on_c, 0, 60, 0
1, 43800, Note_on_c, 0, 66, 37
1, 43920, Note_on_c, 0, 66, 0
1, 43920, Note_on_c, 0, 62, 33
1, 44040, Note_on_c, 0, 62, 0
1, 44040, Note_on_c, 0, 68, 34
1, 44160, Tempo, 485751
1, 44160, Note_on_c, 0, 68, 0
1, 44160, Note_on_c, 0, 52, 0
1, 44160, Note_on_c, 0, 76, 0
1, 44160, Note_on_c, 0, 78, 39
1, 44160, Note_on_c, 0, 54, 34
1, 44160, Note_on_c, 0, 60, 47
1, 44160, Control_c, 0, 64, 0
1, 44252, Control_c, 0, 64, 127
1, 44280, Note_on_c, 0, 60, 0
1, 44280, Note_on_c, 0, 66, 37
1, 44400, Tempo, 473634
1, 44400, Note_on_c, 0, 66, 0
1, 44400, Note_on_c, 0, 62, 35
1, 44520, Note_on_c, 0, 62, 0
1, 44520, Note_on_c, 0, 68, 34
1, 44640, Note_on_c, 0, 68, 0
1, 44640, Note_on_c, 0, 54, 0
1, 44640, Note_on_c, 0, 78, 0
1, 44640, Note_on_c, 0, 78, 39
1, 44640, Note_on_c, 0, 60, 33
1, 44760, Note_on_c, 0, 60, 0
1, 44760, Note_on_c, 0, 66, 37
1, 44880, Tempo, 485751
1, 44880, Note_on_c, 0, 66, 0
1, 44880, Note_on_c, 0, 62, 33
1, 45000, Note_on_c, 0, 62, 0
1, 45000, Note_on_c, 0, 68, 34
1, 45120, Tempo, 475323
1, 45120, Note_on_c, 0, 68, 0
1, 45120, Note_on_c, 0, 78, 0
1, 45120, Note_on_c, 0, 74, 39
1, 45120, Note_on_c, 0, 50, 34
1, 45120, Note_on_c, 0, 60, 40
1, 45138, Control_c, 0, 64, 0
1, 45200, Control_c, 0, 64, 127
1, 45240, Note_on_c, 0, 60, 0
1, 45240, Note_on_c, 0, 66, 37
1, 45360, Note_on_c, 0, 66, 0
1, 45360, Note_on_c, 0, 62, 37
1, 45480, Note_on_c, 0, 62, 0
1, 45480, Note_on_c, 0, 68, 34
1, 45600, Note_on_c, 0, 68, 0
1, 45600, Note_on_c, 0, 50, 0
1, 45600, Note_on_c, 0, 74, 0
1, 45600, Note_on_c, 0, 74, 39
1, 45600, Note_on_c, 0, 60, 33
1, 45720, Note_on_c, 0, 60, 0
1, 45720, Note_on_c, 0, 66, 37
1, 45840, Note_on_c, 0, 66, 0
1, 45840, Note_on_c, 0, 62, 33
1, 45960, Tempo, 547345
1, 45960, Note_on_c, 0, 62, 0
1, 45960, Note_on_c, 0, 68, 34
1, 46080, Tempo, 485751
1, 46080, Note_on_c, 0, 68, 0
1, 46080, Note_on_c, 0, 74, 0
1, 46080, Note_on_c, 0, 76, 39
1, 46080, Note_on_c, 0, 52, 34
1, 46080, Note_on_c, 0, 60, 47
1, 46080, Control_c, 0, 64, 0
1, 46172, Control_c, 0, 64, 127
1, 46200, Note_on_c, 0, 60, 0
1, 46200, Note_on_c, 0, 66, 36
1, 46320, Tempo, 473634
1, 46320, Note_on_c, 0, 66, 0
1, 46320, Note_on_c, 0, 62, 34
1, 46440, Note_on_c, 0, 62, 0
1, 46440, Note_on_c, 0, 68, 32
1, 46560, Note_on_c, 0, 68, 0
1, 46560, Note_on_c, 0, 52, 0
1, 46560, Note_on_c, 0, 60, 31
1, 46680, Note_on_c, 0, 60, 0
1, 46680, Note_on_c, 0, 66, 34
1, 46800, Tempo, 485751
1, 46800, Note_on_c, 0, 66, 0
1, 46800, Note_on_c, 0, 62, 30
1, 46920, Note_on_c, 0, 62, 0
1, 46920, Note_on_c, 0, 68, 31
1, 47040, Tempo, 475323
1, 47040, Note_on_c, 0, 68, 0
1, 47040, Note_on_c, 0, 60, 36
1, 47160, Note_on_c, 0, 60, 0
1, 47160, Note_on_c, 0, 66, 32
1, 47280, Note_on_c, 0, 66, 0
1, 47280, Note_on_c, 0, 62, 32
1, 47400, Note_on_c, 0, 62, 0
1, 47400, Note_on_c, 0, 68, 29
1, 47520, Note_on_c, 0, 68, 0
1, 47520, Note_on_c, 0, 60, 28
1, 47640, Note_on_c, 0, 60, 0
1, 47640, Note_on_c, 0, 66, 31
1, 47760, Note_on_c, 0, 66, 0
1, 47760, Note_on_c, 0, 62, 27
1, 47880, Note_on_c, 0, 62, 0
1, 47880, Note_on_c, 0, 68, 27
1, 48000, Tempo, 485751
1, 48000, Note_on_c, 0, 68, 0
1, 48000, Note_on_c, 0, 76, 0
1, 48000, Note_on_c, 0, 76, 39
1, 48000, Note_on_c, 0, 52, 34
1, 48000, Note_on_c, 0, 60, 47
1, 48000, Control_c, 0, 64, 0
1, 48092, Control_c, 0, 64, 127
1, 48120, Note_on_c, 0, 60, 0
1, 48120, Note_on_c, 0, 66, 37
1, 48240, Tempo, 473634
1, 48240, Note_on_c, 0, 66, 0
1, 48240, Note_on_c, 0, 62, 35
1, 48360, Note_on_c, 0, 62, 0
1, 48360, Note_on_c, 0, 68, 34
1, 48480, Note_on_c, 0, 68, 0
1, 48480, Note_on_c, 0, 52, 0
1, 48480, Note_on_c, 0, 60, 33
1, 48600, Note_on_c, 0, 60, 0
1, 48600, Note_on_c, 0, 66, 37
1, 48720, Tempo, 485751
1, 48720, Note_on_c, 0, 66, 0
1, 48720, Note_on_c, 0, 62, 33
1, 48840, Note_on_c, 0, 62, 0
1, 48840, Note_on_c, 0, 68, 34
1, 48960, Tempo, 475323
1, 48960, Note_on_c, 0, 68, 0
1, 48960, Note_on_c, 0, 76, 0
1, 48960, Note_on_c, 0, 72, 39
1, 48960, Note_on_c, 0, 48, 34
1, 48960, Note_on_c, 0, 60, 40
1, 48978, Control_c, 0, 64, 0
1, 49040, Control_c, 0, 64, 127
1, 49080, Note_on_c, 0, 60, 0
1, 49080, Note_on_c, 0, 66, 37
1, 49200, Note_on_c, 0, 66, 0
1, 49200, Note_on_c, 0, 62, 37
1, 49320, Note_on_c, 0, 62, 0
1, 49320, Note_on_c, 0, 68, 34
1, 49440, Note_on_c, 0, 68, 0
1, 49440, Note_on_c, 0, 48, 0
1, 49440, Note_on_c, 0, 60, 33
1, 49560, Note_on_c, 0, 60, 0
1, 49560, Note_on_c, 0, 66, 37
1, 49680, Note_on_c, 0, 66, 0
1, 49680, Note_on_c, 0, 62, 33
1, 49800, Note_on_c, 0, 62, 0
1, 49800, Note_on_c, 0, 68, 34
1, 49920, Tempo, 485751
1, 49920, Note_on_c, 0, 68, 0
1, 49920, Note_on_c, 0, 72, 0
1, 49920, Note_on_c, 0, 74, 39
1, 49920, Note_on_c, 0, 50, 34
1, 49920, Note_on_c, 0, 58, 47
1, 49920, Control_c, 0, 64, 0
1, 50012, Control_c, 0, 64, 127
1, 50040, Note_on_c, 0, 58, 0
1, 50040, Note_on_c, 0, 65, 37
1, 50160, Tempo, 473634
1, 50160, Note_on_c, 0, 65, 0
1, 50160, Note_on_c, 0, 60, 33
1, 50280, Note_on_c, 0, 60, 0
1, 50280, Note_on_c, 0, 67, 34
1, 50400, Note_on_c, 0, 67, 0
1, 50400, Note_on_c, 0, 50, 0
1, 50400, Note_on_c, 0, 58, 38
1, 50520, Note_on_c, 0, 58, 0
1, 50520, Note_on_c, 0, 65, 37
1, 50640, Tempo, 485751
1, 50640, Note_on_c, 0, 65, 0
1, 50640, Note_on_c, 0, 60, 33
1, 50760, Note_on_c, 0, 60, 0
1, 50760, Note_on_c, 0, 67, 34
1, 50880, Tempo, 475323
1, 50880, Note_on_c, 0, 67, 0
1, 50880, Note_on_c, 0, 58, 43
1, 51000, Note_on_c, 0, 58, 0
1, 51000, Note_on_c, 0, 65, 37
1, 51120, Note_on_c, 0, 65, 0
1, 51120, Note_on_c, 0, 60, 32
1, 51240, Note_on_c, 0, 60, 0
1, 51240, Note_on_c, 0, 67, 34
1, 51360, Note_on_c, 0, 67, 0
1, 51360, Note_on_c, 0, 74, 0
1, 51360, Note_on_c, 0, 74, 39
1, 51360, Note_on_c, 0, 58, 40
1, 51360, Note_on_c, 0, 50, 40
1, 51480, Note_on_c, 0, 58, 0
1, 51480, Note_on_c, 0, 65, 37
1, 51600, Note_on_c, 0, 65, 0
1, 51600, Note_on_c, 0, 60, 33
1, 51720, Note_on_c, 0, 60, 0
1, 51720, Note_on_c, 0, 67, 34
1, 51840, Tempo, 485751
1, 51840, Note_on_c, 0, 67, 0
1, 51840, Note_on_c, 0, 50, 0
1, 51840, Note_on_c, 0, 74, 0
1, 51840, Note_on_c, 0, 76, 39
1, 51840, Note_on_c, 0, 52, 34
1, 51840, Note_on_c, 0, 60, 47
1, 51840, Control_c, 0, 64, 0
1, 51932, Control_c, 0, 64, 127
1, 51960, Note_on_c, 0, 60, 0
1, 51960, Note_on_c, 0, 66, 37
1, 52080, Tempo, 473634
1, 52080, Note_on_c, 0, 66, 0
1, 52080, Note_on_c, 0, 62, 35
1, 52200, Note_on_c, 0, 62, 0
1, 52200, Note_on_c, 0, 68, 34
1, 52320, Note_on_c, 0, 68, 0
1, 52320, Note_on_c, 0, 52, 0
1, 52320, Note_on_c, 0, 76, 0
1, 52320, Note_on_c, 0, 76, 39
1, 52320, Note_on_c, 0, 60, 33
1, 52440, Note_on_c, 0, 60, 0
1, 52440, Note_on_c, 0, 66, 37
1, 52560, Tempo, 485751
1, 52560, Note_on_c, 0, 66, 0
1, 52560, Note_on_c, 0, 62, 33
1, 52680, Note_on_c, 0, 62, 0
1, 52680, Note_on_c, 0, 68, 34
1, 52800, Tempo, 475323
1, 52800, Note_on_c, 0, 68, 0
1, 52800, Note_on_c, 0, 76, 0
1, 52800, Note_on_c, 0, 72, 39
1, 52800, Note_on_c, 0, 48, 34
1, 52800, Note_on_c, 0, 60, 40
1, 52818, Control_c, 0, 64, 0
1, 52880, Control_c, 0, 64, 127
1, 52920, Note_on_c, 0, 60, 0
1, 52920, Note_on_c, 0, 66, 37
1, 53040, Note_on_c, 0, 66, 0
1, 53040, Note_on_c, 0, 62, 37
1, 53160, Note_on_c, 0, 62, 0
1, 53160, Note_on_c, 0, 68, 34
1, 53280, Note_on_c, 0, 68, 0
1, 53280, Note_on_c, 0, 48, 0
1, 53280, Note_on_c, 0, 72, 0
1, 53280, Note_on_c, 0, 72, 39
1, 53280, Note_on_c, 0, 60, 33
1, 53400, Note_on_c, 0, 60, 0
1, 53400, Note_on_c, 0, 66, 37
1, 53520, Note_on_c, 0, 66, 0
1, 53520, Note_on_c, 0, 62, 33
1, 53640, Note_on_c, 0, 62, 0
1, 53640, Note_on_c, 0, 68, 34
1, 53760, Tempo, 485751
1, 53760, Note_on_c, 0, 68, 0
1, 53760, Note_on_c, 0, 72, 0
1, 53760, Note_on_c, 0, 74, 39
1, 53760, Note_on_c, 0, 50, 34
1, 53760, Note_on_c, 0, 58, 47
1, 53760, Control_c, 0, 64, 0
1, 53852, Control_c, 0, 64, 127
1, 53880, Note_on_c, 0, 58, 0
1, 53880, Note_on_c, 0, 65, 36
1, 54000, Tempo, 473634
1, 54000, Note_on_c, 0, 65, 0
1, 54000, Note_on_c, 0, 60, 34
1, 54120, Note_on_c, 0, 60, 0
1, 54120, Note_on_c, 0, 67, 32
1, 54240, Note_on_c, 0, 67, 0
1, 54240, Note_on_c, 0, 58, 31
1, 54360, Note_on_c, 0, 58, 0
1, 54360, Note_on_c, 0, 65, 34
1, 54480, Tempo, 485751
1, 54480, Note_on_c, 0, 65, 0
1, 54480, Note_on_c, 0, 60, 30
1, 54600, Note_on_c, 0, 60, 0
1, 54600, Note_on_c, 0, 67, 31
1, 54720, Tempo, 475323
1, 54720, Note_on_c, 0, 67, 0
1, 54720, Note_on_c, 0, 58, 36
1, 54840, Note_on_c, 0, 58, 0
1, 54840, Note_on_c, 0, 65, 32
1, 54960, Note_on_c, 0, 65, 0
1, 54960, Note_on_c, 0, 60, 32
1, 55080, Note_on_c, 0, 60, 0
1, 55080, Note_on_c, 0, 67, 29
1, 55200, Note_on_c, 0, 67, 0
1, 55200, Note_on_c, 0, 58, 28
1, 55320, Note_on_c, 0, 58, 0
1, 55320, Note_on_c, 0, 65, 31
1, 55440, Note_on_c, 0, 65, 0
1, 55440, Note_on_c, 0, 60, 27
1, 55560, Note_on_c, 0, 60, 0
1, 55560, Note_on_c, 0, 67, 27
1, 55680, Tempo, 498504
1, 55680, Note_on_c, 0, 67, 0
1, 55680, Note_on_c, 0, 50, 0
1, 55680, Note_on_c, 0, 74, 0
1, 55680, Note_on_c, 0, 50, 28
1, 55680, Note_on_c, 0, 62, 42
1, 55680, Control_c, 0, 64, 0
1, 55737, Control_c, 0, 64, 127
1, 55770, Note_on_c, 0, 62, 0
1, 55800, Note_on_c, 0, 64, 40
1, 55890, Note_on_c, 0, 64, 0
1, 55920, Tempo, 485751
1, 55920, Note_on_c, 0, 60, 33
1, 55928, Control_c, 0, 64, 0
1, 55998, Control_c, 0, 64, 127
1, 56010, Note_on_c, 0, 60, 0
1, 56040, Note_on_c, 0, 65, 34
1, 56130, Note_on_c, 0, 65, 0
1, 56160, Note_on_c, 0, 58, 33
1, 56173, Control_c, 0, 64, 0
1, 56220, Control_c, 0, 64, 127
1, 56250, Note_on_c, 0, 58, 0
1, 56280, Note_on_c, 0, 67, 34
1, 56370, Note_on_c, 0, 67, 0
1, 56400, Note_on_c, 0, 57, 33
1, 56413, Control_c, 0, 64, 0
1, 56478, Control_c, 0, 64, 127
1, 56490, Note_on_c, 0, 57, 0
1, 56520, Note_on_c, 0, 69, 34
1, 56610, Note_on_c, 0, 69, 0
1, 56640, Tempo, 498504
1, 56640, Note_on_c, 0, 60, 37
1, 56655, Control_c, 0, 64, 0
1, 56718, Control_c, 0, 64, 127
1, 56730, Note_on_c, 0, 60, 0
1, 56760, Note_on_c, 0, 62, 44
1, 56850, Note_on_c, 0, 62, 0
1, 56880, Tempo, 482199
1, 56880, Note_on_c, 0, 58, 34
1, 56894, Control_c, 0, 64, 0
1, 56965, Control_c, 0, 64, 127
1, 56970, Note_on_c, 0, 58, 0
1, 57000, Note_on_c, 0, 64, 33
1, 57090, Note_on_c, 0, 64, 0
1, 57120, Note_on_c, 0, 57, 34
1, 57133, Control_c, 0, 64, 0
1, 57205, Control_c, 0, 64, 127
1, 57210, Note_on_c, 0, 57, 0
1, 57240, Note_on_c, 0, 65, 33
1, 57330, Note_on_c, 0, 65, 0
1, 57360, Note_on_c, 0, 55, 34
1, 57364, Control_c, 0, 64, 0
1, 57417, Control_c, 0, 64, 127
1, 57450, Note_on_c, 0, 55, 0
1, 57480, Note_on_c, 0, 67, 33
1, 57537, Control_c, 0, 64, 0
1, 57570, Note_on_c, 0, 67, 0
1, 57600, Tempo, 498504
1, 57600, Note_on_c, 0, 50, 0
1, 57600, Note_on_c, 0, 50, 35
1, 57600, Note_on_c, 0, 62, 42
1, 57600, Control_c, 0, 64, 0
1, 57657, Control_c, 0, 64, 127
1, 57690, Note_on_c, 0, 62, 0
1, 57720, Note_on_c, 0, 64, 40
1, 57810, Note_on_c, 0, 64, 0
1, 57840, Tempo, 485751
1, 57840, Note_on_c, 0, 60, 33
1, 57848, Control_c, 0, 64, 0
1, 57918, Control_c, 0, 64, 127
1, 57930, Note_on_c, 0, 60, 0
1, 57960, Note_on_c, 0, 65, 34
1, 58050, Note_on_c, 0, 65, 0
1, 58080, Note_on_c, 0, 58, 33
1, 58093, Control_c, 0, 64, 0
1, 58158, Control_c, 0, 64, 127
1, 58170, Note_on_c, 0, 58, 0
1, 58200, Note_on_c, 0, 67, 34
1, 58290, Note_on_c, 0, 67, 0
1, 58320, Note_on_c, 0, 57, 33
1, 58333, Control_c, 0, 64, 0
1, 58398, Control_c, 0, 64, 127
1, 58410, Note_on_c, 0, 57, 0
1, 58440, Note_on_c, 0, 69, 34
1, 58530, Note_on_c, 0, 69, 0
1, 58560, Tempo, 498504
1, 58560, Note_on_c, 0, 60, 37
1, 58575, Control_c, 0, 64, 0
1, 58624, Control_c, 0, 64, 127
1, 58650, Note_on_c, 0, 60, 0
1, 58680, Note_on_c, 0, 62, 44
1, 58770, Note_on_c, 0, 62, 0
1, 58800, Tempo, 482199
1, 58800, Note_on_c, 0, 58, 34
1, 58814, Control_c, 0, 64, 0
1, 58885, Control_c, 0, 64, 127
1, 58890, Note_on_c, 0, 58, 0
1, 58920, Note_on_c, 0, 64, 33
1, 59010, Note_on_c, 0, 64, 0
1, 59040, Note_on_c, 0, 57, 34
1, 59053, Control_c, 0, 64, 0
1, 59125, Control_c, 0, 64, 127
1, 59130, Note_on_c, 0, 57, 0
1, 59160, Note_on_c, 0, 65, 33
1, 59250, Note_on_c, 0, 65, 0
1, 59280, Note_on_c, 0, 55, 34
1, 59284, Control_c, 0, 64, 0
1, 59337, Control_c, 0, 64, 127
1, 59370, Note_on_c, 0, 55, 0
1, 59400, Note_on_c, 0, 67, 33
1, 59457, Control_c, 0, 64, 0
1, 59490, Note_on_c, 0, 67, 0
1, 59520, Tempo, 496648
1, 59520, Note_on_c, 0, 50, 0
1, 59520, Note_on_c, 0, 60, 45
1, 59520, Note_on_c, 0, 55, 37
1, 59520, Control_c, 0, 64, 127
1, 59640, Note_on_c, 0, 55, 0
1, 59640, Note_on_c, 0, 62, 40
1, 59730, Note_on_c, 0, 62, 0
1, 59760, Tempo, 482199
1, 59760, Note_on_c, 0, 48, 32
1, 59880, Note_on_c, 0, 48, 0
1, 59880, Note_on_c, 0, 63, 34
1, 59970, Note_on_c, 0, 63, 0
1, 60000, Note_on_c, 0, 43, 32
1, 60120, Note_on_c, 0, 43, 0
1, 60120, Note_on_c, 0, 65, 34
1, 60210, Note_on_c, 0, 65, 0
1, 60240, Note_on_c, 0, 36, 32
1, 60360, Note_on_c, 0, 36, 0
1, 60360, Note_on_c, 0, 67, 34
1, 60450, Note_on_c, 0, 67, 0
1, 60480, Note_on_c, 0, 43, 32
1, 60600, Note_on_c, 0, 43, 0
1, 60600, Note_on_c, 0, 62, 43
1, 60690, Note_on_c, 0, 62, 0
1, 60720, Note_on_c, 0, 48, 32
1, 60840, Note_on_c, 0, 48, 0
1, 60840, Note_on_c, 0, 63, 35
1, 60930, Note_on_c, 0, 63, 0
1, 60960, Note_on_c, 0, 57, 33
1, 61080, Note_on_c, 0, 57, 0
1, 61080, Note_on_c, 0, 65, 39
1, 61170, Note_on_c, 0, 65, 0
1, 61200, Tempo, 496648
1, 61200, Note_on_c, 0, 53, 36
1, 61320, Tempo, 498504
1, 61320, Note_on_c, 0, 53, 0
1, 61320, Note_on_c, 0, 67, 41
1, 61410, Note_on_c, 0, 67, 0
1, 61440, Tempo, 496648
1, 61440, Note_on_c, 0, 60, 0
1, 61440, Note_on_c, 0, 60, 45
1, 61440, Note_on_c, 0, 55, 37
1, 61450, Control_c, 0, 64, 0
1, 61509, Control_c, 0, 64, 127
1, 61560, Note_on_c, 0, 55, 0
1, 61560, Note_on_c, 0, 62, 40
1, 61650, Note_on_c, 0, 62, 0
1, 61680, Tempo, 482199
1, 61680, Note_on_c, 0, 48, 32
1, 61800, Note_on_c, 0, 48, 0
1, 61800, Note_on_c, 0, 63, 34
1, 61890, Note_on_c, 0, 63, 0
1, 61920, Note_on_c, 0, 43, 32
1, 62040, Note_on_c, 0, 43, 0
1, 62040, Note_on_c, 0, 65, 34
1, 62130, Note_on_c, 0, 65, 0
1, 62160, Note_on_c, 0, 36, 32
1, 62280, Note_on_c, 0, 36, 0
1, 62280, Note_on_c, 0, 67, 34
1, 62370, Note_on_c, 0, 67, 0
1, 62400, Note_on_c, 0, 43, 32
1, 62520, Note_on_c, 0, 43, 0
1, 62520, Note_on_c, 0, 62, 43
1, 62610, Note_on_c, 0, 62, 0
1, 62640, Note_on_c, 0, 48, 32
1, 62760, Note_on_c, 0, 48, 0
1, 62760, Note_on_c, 0, 63, 35
1, 62850, Note_on_c, 0, 63, 0
1, 62880, Note_on_c, 0, 57, 33
1, 63000, Note_on_c, 0, 57, 0
1, 63000, Note_on_c, 0, 65, 39
1, 63090, Note_on_c, 0, 65, 0
1, 63120, Tempo, 496648
1, 63120, Note_on_c, 0, 53, 36
1, 63240, Tempo, 498504
1, 63240, Note_on_c, 0, 53, 0
1, 63240, Note_on_c, 0, 67, 41
1, 63330, Note_on_c, 0, 67, 0
1, 63360, Tempo, 496648
1, 63360, Note_on_c, 0, 60, 0
1, 63360, Note_on_c, 0, 62, 36
1, 63360, Control_c, 0, 64, 0
1, 63423, Control_c, 0, 64, 127
1, 63450, Note_on_c, 0, 62, 0
1, 63480, Note_on_c, 0, 60, 27
1, 63600, Note_on_c, 0, 60, 0
1, 63600, Note_on_c, 0, 63, 30
1, 63690, Note_on_c, 0, 63, 0
1, 63720, Note_on_c, 0, 60, 27
1, 63840, Note_on_c, 0, 60, 0
1, 63840, Note_on_c, 0, 82, 53
1, 63840, Note_on_c, 0, 65, 30
1, 63930, Note_on_c, 0, 65, 0
1, 63960, Note_on_c, 0, 82, 0
1, 63960, Note_on_c, 0, 60, 27
1, 64000, Note_on_c, 0, 82, 47
1, 64080, Note_on_c, 0, 60, 0
1, 64080, Note_on_c, 0, 67, 30
1, 64120, Note_on_c, 0, 82, 0
1, 64160, Note_on_c, 0, 82, 47
1, 64170, Note_on_c, 0, 67, 0
1, 64200, Note_on_c, 0, 60, 27
1, 64280, Note_on_c, 0, 82, 0
1, 64320, Note_on_c, 0, 60, 0
1, 64320, Note_on_c, 0, 82, 54
1, 64320, Note_on_c, 0, 62, 38
1, 64342, Control_c, 0, 64, 0
1, 64410, Note_on_c, 0, 62, 0
1, 64417, Control_c, 0, 64, 127
1, 64440, Note_on_c, 0, 82, 0
1, 64440, Note_on_c, 0, 60, 27
1, 64480, Note_on_c, 0, 82, 46
1, 64560, Note_on_c, 0, 60, 0
1, 64560, Note_on_c, 0, 63, 31
1, 64600, Note_on_c, 0, 82, 0
1, 64640, Note_on_c, 0, 82, 46
1, 64650, Note_on_c, 0, 63, 0
1, 64680, Note_on_c, 0, 60, 27
1, 64760, Note_on_c, 0, 82, 0
1, 64800, Note_on_c, 0, 60, 0
1, 64800, Note_on_c, 0, 82, 54
1, 64800, Note_on_c, 0, 65, 35
1, 64890, Note_on_c, 0, 65, 0
1, 64920, Note_on_c, 0, 82, 0
1, 64920, Note_on_c, 0, 60, 27
1, 64960, Note_on_c, 0, 82, 47
1, 65040, Tempo, 519931
1, 65040, Note_on_c, 0, 60, 0
1, 65040, Note_on_c, 0, 67, 36
1, 65080, Note_on_c, 0, 82, 0
1, 65120, Note_on_c, 0, 82, 47
1, 65130, Note_on_c, 0, 67, 0
1, 65160, Note_on_c, 0, 60, 27
1, 65240, Note_on_c, 0, 82, 0
1, 65280, Tempo, 496648
1, 65280, Note_on_c, 0, 60, 0
1, 65280, Note_on_c, 0, 82, 54
1, 65280, Note_on_c, 0, 62, 40
1, 65280, Control_c, 0, 64, 0
1, 65343, Control_c, 0, 64, 127
1, 65370, Note_on_c, 0, 62, 0
1, 65400, Note_on_c, 0, 60, 30
1, 65520, Note_on_c, 0, 60, 0
1, 65520, Note_on_c, 0, 82, 0
1, 65520, Note_on_c, 0, 81, 50
1, 65520, Note_on_c, 0, 63, 34
1, 65610, Note_on_c, 0, 63, 0
1, 65640, Note_on_c, 0, 60, 30
1, 65760, Note_on_c, 0, 60, 0
1, 65760, Note_on_c, 0, 81, 0
1, 65760, Note_on_c, 0, 79, 48
1, 65760, Note_on_c, 0, 65, 34
1, 65776, Control_c, 0, 64, 0
1, 65850, Note_on_c, 0, 65, 0
1, 65857, Control_c, 0, 64, 127
1, 65880, Note_on_c, 0, 60, 30
1, 66000, Note_on_c, 0, 60, 0
1, 66000, Note_on_c, 0, 67, 36
1, 66090, Note_on_c, 0, 67, 0
1, 66120, Note_on_c, 0, 60, 32
1, 66240, Note_on_c, 0, 60, 0
1, 66240, Note_on_c, 0, 62, 48
1, 66330, Note_on_c, 0, 62, 0
1, 66360, Note_on_c, 0, 60, 34
1, 66480, Note_on_c, 0, 60, 0
1, 66480, Note_on_c, 0, 63, 41
1, 66570, Note_on_c, 0, 63, 0
1, 66600, Note_on_c, 0, 60, 36
1, 66720, Note_on_c, 0, 60, 0
1, 66720, Note_on_c, 0, 79, 0
1, 66720, Note_on_c, 0, 82, 58
1, 66720, Note_on_c, 0, 65, 48
1, 66738, Control_c, 0, 64, 0
1, 66810, Note_on_c, 0, 65, 0
1, 66817, Control_c, 0, 64, 127
1, 66840, Note_on_c, 0, 60, 37
1, 66880, Note_on_c, 0, 82, 0
1, 66880, Note_on_c, 0, 81, 63
1, 66960, Tempo, 519931
1, 66960, Note_on_c, 0, 60, 0
1, 66960, Note_on_c, 0, 67, 51
1, 67040, Note_on_c, 0, 81, 0
1, 67040, Note_on_c, 0, 79, 67
1, 67050, Note_on_c, 0, 67, 0
1, 67080, Note_on_c, 0, 60, 37
1, 67200, Tempo, 496648
1, 67200, Note_on_c, 0, 60, 0
1, 67200, Note_on_c, 0, 79, 0
1, 67200, Note_on_c, 0, 79, 70
1, 67200, Note_on_c, 0, 62, 50
1, 67200, Control_c, 0, 64, 0
1, 67275, Control_c, 0, 64, 127
1, 67290, Note_on_c, 0, 62, 0
1, 67320, Note_on_c, 0, 60, 37
1, 67440, Note_on_c, 0, 60, 0
1, 67440, Note_on_c, 0, 63, 42
1, 67530, Note_on_c, 0, 63, 0
1, 67560, Note_on_c, 0, 60, 37
1, 67680, Note_on_c, 0, 60, 0
1, 67680, Note_on_c, 0, 79, 0
1, 67680, Note_on_c, 0, 77, 71
1, 67680, Note_on_c, 0, 65, 50
1, 67770, Note_on_c, 0, 65, 0
1, 67800, Note_on_c, 0, 60, 46
1, 67840, Note_on_c, 0, 77, 0
1, 67840, Note_on_c, 0, 76, 67
1, 67920, Tempo, 541126
1, 67920, Note_on_c, 0, 60, 0
1, 67920, Note_on_c, 0, 67, 46
1, 68000, Note_on_c, 0, 76, 0
1, 68000, Note_on_c, 0, 74, 62
1, 68010, Note_on_c, 0, 67, 0
1, 68040, Note_on_c, 0, 60, 45
1, 68160, Tempo, 504159
1, 68160, Note_on_c, 0, 60, 0
1, 68160, Note_on_c, 0, 74, 0
1, 68160, Note_on_c, 0, 73, 64
1, 68160, Note_on_c, 0, 67, 49
1, 68175, Control_c, 0, 64, 0
1, 68217, Control_c, 0, 64, 127
1, 68250, Note_on_c, 0, 67, 0
1, 68280, Note_on_c, 0, 58, 37
1, 68340, Note_on_c, 0, 73, 0
1, 68400, Note_on_c, 0, 58, 0
1, 68400, Note_on_c, 0, 70, 49
1, 68400, Note_on_c, 0, 67, 43
1, 68490, Note_on_c, 0, 67, 0
1, 68520, Note_on_c, 0, 58, 35
1, 68640, Note_on_c, 0, 58, 0
1, 68640, Note_on_c, 0, 67, 39
1, 68730, Note_on_c, 0, 67, 0
1, 68760, Note_on_c, 0, 58, 30
1, 68880, Tempo, 519931
1, 68880, Note_on_c, 0, 58, 0
1, 68880, Note_on_c, 0, 67, 41
1, 68970, Note_on_c, 0, 67, 0
1, 69000, Note_on_c, 0, 58, 30
1, 69120, Tempo, 496648
1, 69120, Note_on_c, 0, 58, 0
1, 69120, Note_on_c, 0, 70, 0
1, 69120, Note_on_c, 0, 67, 40
1, 69120, Control_c, 0, 64, 0
1, 69163, Control_c, 0, 64, 127
1, 69210, Note_on_c, 0, 67, 0
1, 69240, Note_on_c, 0, 58, 30
1, 69360, Note_on_c, 0, 58, 0
1, 69360, Note_on_c, 0, 67, 34
1, 69450, Note_on_c, 0, 67, 0
1, 69480, Note_on_c, 0, 58, 30
1, 69600, Note_on_c, 0, 58, 0
1, 69600, Note_on_c, 0, 77, 68
1, 69600, Note_on_c, 0, 65, 48
1, 69720, Note_on_c, 0, 58, 43
1, 69760, Note_on_c, 0, 77, 0
1, 69760, Note_on_c, 0, 76, 61
1, 69840, Tempo, 541126
1, 69840, Note_on_c, 0, 58, 0
1, 69840, Note_on_c, 0, 65, 0
1, 69840, Note_on_c, 0, 65, 37
1, 69920, Note_on_c, 0, 76, 0
1, 69920, Note_on_c, 0, 74, 57
1, 69930, Note_on_c, 0, 65, 0
1, 69960, Note_on_c, 0, 58, 40
1, 70080, Tempo, 504159
1, 70080, Note_on_c, 0, 58, 0
1, 70080, Note_on_c, 0, 74, 0
1, 70080, Note_on_c, 0, 73, 61
1, 70080, Note_on_c, 0, 64, 49
1, 70095, Control_c, 0, 64, 0
1, 70146, Control_c, 0, 64, 127
1, 70200, Note_on_c, 0, 58, 32
1, 70260, Note_on_c, 0, 73, 0
1, 70320, Note_on_c, 0, 58, 0
1, 70320, Note_on_c, 0, 64, 0
1, 70320, Note_on_c, 0, 70, 49
1, 70320, Note_on_c, 0, 64, 38
1, 70410, Note_on_c, 0, 64, 0
1, 70440, Note_on_c, 0, 58, 35
1, 70560, Note_on_c, 0, 58, 0
1, 70560, Note_on_c, 0, 70, 0
1, 70560, Note_on_c, 0, 77, 63
1, 70560, Note_on_c, 0, 65, 39
1, 70680, Note_on_c, 0, 58, 30
1, 70720, Note_on_c, 0, 77, 0
1, 70720, Note_on_c, 0, 76, 54
1, 70800, Tempo, 519931
1, 70800, Note_on_c, 0, 58, 0
1, 70800, Note_on_c, 0, 65, 0
1, 70800, Note_on_c, 0, 65, 41
1, 70880, Note_on_c, 0, 76, 0
1, 70880, Note_on_c, 0, 74, 50
1, 70890, Note_on_c, 0, 65, 0
1, 70920, Tempo, 704887
1, 70920, Note_on_c, 0, 58, 30
1, 70980, Note_on_c, 0, 58, 0
1, 70980, Note_on_c, 0, 74, 0
1, 70980, Note_on_c, 0, 73, 50
1, 70980, Note_on_c, 0, 61, 37
1, 70980, Control_c, 0, 64, 0
1, 71000, Note_on_c, 0, 76, 54
1, 71010, Note_on_c, 0, 64, 37
1, 71020, Note_on_c, 0, 78, 57
1, 71040, Tempo, 513919
1, 71040, Note_on_c, 0, 85, 74
1, 71040, Note_on_c, 0, 58, 39
1, 71040, Note_on_c, 0, 66, 44
1, 71040, Control_c, 0, 64, 127
1, 71160, Note_on_c, 0, 58, 0
1, 71160, Note_on_c, 0, 60, 37
1, 71280, Note_on_c, 0, 60, 0
1, 71280, Note_on_c, 0, 85, 0
1, 71280, Note_on_c, 0, 82, 54
1, 71280, Note_on_c, 0, 58, 34
1, 71400, Note_on_c, 0, 58, 0
1, 71400, Note_on_c, 0, 60, 32
1, 71520, Tempo, 515907
1, 71520, Note_on_c, 0, 60, 0
1, 71520, Note_on_c, 0, 82, 0
1, 71520, Note_on_c, 0, 58, 34
1, 71640, Note_on_c, 0, 58, 0
1, 71640, Note_on_c, 0, 60, 30
1, 71760, Note_on_c, 0, 60, 0
1, 71760, Note_on_c, 0, 58, 33
1, 71880, Note_on_c, 0, 58, 0
1, 71880, Note_on_c, 0, 60, 30
1, 72000, Note_on_c, 0, 60, 0
1, 72000, Note_on_c, 0, 58, 33
1, 72120, Note_on_c, 0, 58, 0
1, 72120, Note_on_c, 0, 60, 30
1, 72240, Note_on_c, 0, 60, 0
1, 72240, Note_on_c, 0, 58, 33
1, 72360, Note_on_c, 0, 58, 0
1, 72360, Note_on_c, 0, 60, 31
1, 72480, Note_on_c, 0, 60, 0
1, 72480, Note_on_c, 0, 58, 32
1, 72600, Note_on_c, 0, 58, 0
1, 72600, Note_on_c, 0, 60, 31
1, 72720, Note_on_c, 0, 60, 0
1, 72720, Note_on_c, 0, 58, 35
1, 72840, Note_on_c, 0, 58, 0
1, 72840, Note_on_c, 0, 60, 31
1, 72860, Note_on_c, 0, 73, 0
1, 72880, Note_on_c, 0, 76, 0
1, 72900, Tempo, 619323
1, 72900, Note_on_c, 0, 78, 0
1, 72900, Note_on_c, 0, 61, 39
1, 72900, Control_c, 0, 64, 0
1, 72920, Note_on_c, 0, 64, 39
1, 72940, Note_on_c, 0, 66, 45
1, 72960, Tempo, 513919
1, 72960, Note_on_c, 0, 64, 0
1, 72960, Note_on_c, 0, 61, 0
1, 72960, Note_on_c, 0, 66, 0
1, 72960, Note_on_c, 0, 60, 0
1, 72960, Note_on_c, 0, 73, 62
1, 72960, Note_on_c, 0, 58, 37
1, 72960, Control_c, 0, 64, 127
1, 73080, Note_on_c, 0, 58, 0
1, 73080, Note_on_c, 0, 60, 31
1, 73200, Note_on_c, 0, 60, 0
1, 73200, Note_on_c, 0, 73, 0
1, 73200, Note_on_c, 0, 70, 46
1, 73200, Note_on_c, 0, 58, 31
1, 73320, Note_on_c, 0, 58, 0
1, 73320, Note_on_c, 0, 60, 32
1, 73420, Note_on_c, 0, 66, 0
1, 73440, Tempo, 515907
1, 73440, Note_on_c, 0, 70, 0
1, 73440, Note_on_c, 0, 64, 0
1, 73440, Note_on_c, 0, 61, 0
1, 73440, Note_on_c, 0, 60, 0
1, 73440, Note_on_c, 0, 58, 34
1, 73560, Note_on_c, 0, 58, 0
1, 73560, Note_on_c, 0, 60, 30
1, 73680, Note_on_c, 0, 60, 0
1, 73680, Note_on_c, 0, 58, 32
1, 73800, Note_on_c, 0, 58, 0
1, 73800, Note_on_c, 0, 60, 31
1, 73920, Note_on_c, 0, 60, 0
1, 73920, Note_on_c, 0, 58, 33
1, 74040, Note_on_c, 0, 58, 0
1, 74040, Note_on_c, 0, 60, 30
1, 74160, Note_on_c, 0, 60, 0
1, 74160, Note_on_c, 0, 58, 33
1, 74280, Note_on_c, 0, 58, 0
1, 74280, Note_on_c, 0, 60, 31
1, 74400, Note_on_c, 0, 60, 0
1, 74400, Note_on_c, 0, 58, 32
1, 74520, Note_on_c, 0, 58, 0
1, 74520, Note_on_c, 0, 60, 25
1, 74640, Note_on_c, 0, 60, 0
1, 74640, Note_on_c, 0, 58, 31
1, 74760, Note_on_c, 0, 58, 0
1, 74760, Note_on_c, 0, 60, 26
1, 74880, Tempo, 513919
1, 74880, Note_on_c, 0, 60, 0
1, 74880, Note_on_c, 0, 58, 29
1, 75000, Note_on_c, 0, 58, 0
1, 75000, Note_on_c, 0, 60, 25
1, 75120, Tempo, 496648
1, 75120, Note_on_c, 0, 60, 0
1, 75120, Note_on_c, 0, 58, 29
1, 75120, Note_on_c, 0, 46, 35
1, 75132, Control_c, 0, 64, 0
1, 75240, Note_on_c, 0, 46, 0
1, 75240, Note_on_c, 0, 58, 0
1, 75240, Note_on_c, 0, 60, 24
1, 75240, Note_on_c, 0, 45, 35
1, 75360, Tempo, 511945
1, 75360, Note_on_c, 0, 45, 0
1, 75360, Note_on_c, 0, 60, 0
1, 75360, Note_on_c, 0, 58, 29
1, 75360, Note_on_c, 0, 46, 40
1, 75480, Note_on_c, 0, 46, 0
1, 75480, Note_on_c, 0, 58, 0
1, 75480, Note_on_c, 0, 60, 24
1, 75600, Tempo, 496648
1, 75600, Note_on_c, 0, 60, 0
1, 75600, Note_on_c, 0, 58, 29
1, 75600, Note_on_c, 0, 42, 37
1, 75720, Note_on_c, 0, 42, 0
1, 75720, Note_on_c, 0, 58, 0
1, 75720, Note_on_c, 0, 60, 24
1, 75720, Note_on_c, 0, 46, 31
1, 75840, Tempo, 509987
1, 75840, Note_on_c, 0, 46, 0
1, 75840, Note_on_c, 0, 60, 0
1, 75840, Note_on_c, 0, 58, 30
1, 75840, Note_on_c, 0, 45, 38
1, 75960, Note_on_c, 0, 45, 0
1, 75960, Note_on_c, 0, 58, 0
1, 75960, Note_on_c, 0, 60, 24
1, 75960, Note_on_c, 0, 46, 41
1, 76080, Note_on_c, 0, 46, 0
1, 76080, Note_on_c, 0, 60, 0
1, 76080, Note_on_c, 0, 58, 30
1, 76080, Note_on_c, 0, 48, 46
1, 76200, Note_on_c, 0, 58, 0
1, 76200, Note_on_c, 0, 60, 24
1, 76320, Tempo, 504159
1, 76320, Note_on_c, 0, 60, 0
1, 76320, Note_on_c, 0, 58, 33
1, 76440, Note_on_c, 0, 58, 0
1, 76440, Note_on_c, 0, 60, 24
1, 76560, Note_on_c, 0, 60, 0
1, 76560, Note_on_c, 0, 58, 30
1, 76680, Note_on_c, 0, 58, 0
1, 76680, Note_on_c, 0, 48, 0
1, 76680, Note_on_c, 0, 60, 25
1, 76680, Note_on_c, 0, 49, 41
1, 76800, Tempo, 515907
1, 76800, Note_on_c, 0, 49, 0
1, 76800, Note_on_c, 0, 60, 0
1, 76800, Note_on_c, 0, 58, 35
1, 76800, Note_on_c, 0, 50, 48
1, 76875, Control_c, 0, 64, 127
1, 76920, Note_on_c, 0, 58, 0
1, 76920, Note_on_c, 0, 60, 26
1, 77040, Note_on_c, 0, 60, 0
1, 77040, Note_on_c, 0, 58, 26
1, 77160, Note_on_c, 0, 58, 0
1, 77160, Note_on_c, 0, 50, 0
1, 77160, Note_on_c, 0, 60, 36
1, 77160, Note_on_c, 0, 51, 44
1, 77170, Control_c, 0, 64, 0
1, 77280, Note_on_c, 0, 51, 0
1, 77280, Note_on_c, 0, 60, 0
1, 77280, Note_on_c, 0, 58, 27
1, 77280, Note_on_c, 0, 52, 56
1, 77372, Control_c, 0, 64, 127
1, 77400, Note_on_c, 0, 58, 0
1, 77400, Note_on_c, 0, 61, 32
1, 77520, Tempo, 506073
1, 77520, Note_on_c, 0, 61, 0
1, 77520, Note_on_c, 0, 58, 34
1, 77640, Note_on_c, 0, 58, 0
1, 77640, Note_on_c, 0, 61, 39
1, 77737, Note_on_c, 0, 58, 63
1, 77760, Note_on_c, 0, 61, 0
1, 77857, Note_on_c, 0, 58, 0
1, 77880, Note_on_c, 0, 61, 51
1, 78000, Note_on_c, 0, 61, 0
1, 78000, Note_on_c, 0, 70, 55
1, 78120, Note_on_c, 0, 70, 0
1, 78120, Note_on_c, 0, 73, 48
1, 78240, Note_on_c, 0, 73, 0
1, 78240, Note_on_c, 0, 58, 52
1, 78360, Note_on_c, 0, 58, 0
1, 78360, Note_on_c, 0, 61, 46
1, 78480, Note_on_c, 0, 61, 0
1, 78480, Note_on_c, 0, 58, 45
1, 78600, Note_on_c, 0, 58, 0
1, 78600, Note_on_c, 0, 61, 40
1, 78720, Tempo, 513919
1, 78720, Note_on_c, 0, 61, 0
1, 78720, Note_on_c, 0, 52, 0
1, 78720, Note_on_c, 0, 58, 29
1, 78840, Note_on_c, 0, 58, 0
1, 78840, Note_on_c, 0, 60, 25
1, 78960, Tempo, 496648
1, 78960, Note_on_c, 0, 60, 0
1, 78960, Note_on_c, 0, 58, 29
1, 78960, Note_on_c, 0, 46, 35
1, 78972, Control_c, 0, 64, 0
1, 79080, Note_on_c, 0, 46, 0
1, 79080, Note_on_c, 0, 58, 0
1, 79080, Note_on_c, 0, 60, 24
1, 79080, Note_on_c, 0, 45, 35
1, 79200, Tempo, 511945
1, 79200, Note_on_c, 0, 45, 0
1, 79200, Note_on_c, 0, 60, 0
1, 79200, Note_on_c, 0, 58, 29
1, 79200, Note_on_c, 0, 46, 40
1, 79320, Note_on_c, 0, 46, 0
1, 79320, Note_on_c, 0, 58, 0
1, 79320, Note_on_c, 0, 60, 24
1, 79440, Tempo, 496648
1, 79440, Note_on_c, 0, 60, 0
1, 79440, Note_on_c, 0, 58, 29
1, 79440, Note_on_c, 0, 42, 37
1, 79560, Note_on_c, 0, 42, 0
1, 79560, Note_on_c, 0, 58, 0
1, 79560, Note_on_c, 0, 60, 24
1, 79560, Note_on_c, 0, 46, 31
1, 79680, Tempo, 509987
1, 79680, Note_on_c, 0, 46, 0
1, 79680, Note_on_c, 0, 60, 0
1, 79680, Note_on_c, 0, 58, 30
1, 79680, Note_on_c, 0, 45, 38
1, 79800, Note_on_c, 0, 45, 0
1, 79800, Note_on_c, 0, 58, 0
1, 79800, Note_on_c, 0, 60, 24
1, 79800, Note_on_c, 0, 46, 41
1, 79920, Note_on_c, 0, 46, 0
1, 79920, Note_on_c, 0, 60, 0
1, 79920, Note_on_c, 0, 58, 30
1, 79920, Note_on_c, 0, 48, 46
1, 80040, Note_on_c, 0, 58, 0
1, 80040, Note_on_c, 0, 60, 24
1, 80160, Tempo, 504159
1, 80160, Note_on_c, 0, 60, 0
1, 80160, Note_on_c, 0, 58, 33
1, 80280, Note_on_c, 0, 58, 0
1, 80280, Note_on_c, 0, 60, 24
1, 80400, Note_on_c, 0, 60, 0
1, 80400, Note_on_c, 0, 58, 30
1, 80520, Note_on_c, 0, 58, 0
1, 80520, Note_on_c, 0, 48, 0
1, 80520, Note_on_c, 0, 60, 25
1, 80520, Note_on_c, 0, 49, 41
1, 80640, Tempo, 515907
1, 80640, Note_on_c, 0, 49, 0
1, 80640, Note_on_c, 0, 60, 0
1, 80640, Note_on_c, 0, 58, 35
1, 80640, Note_on_c, 0, 51, 48
1, 80715, Control_c, 0, 64, 127
1, 80760, Note_on_c, 0, 58, 0
1, 80760, Note_on_c, 0, 60, 26
1, 80880, Note_on_c, 0, 60, 0
1, 80880, Note_on_c, 0, 58, 26
1, 81000, Note_on_c, 0, 58, 0
1, 81000, Note_on_c, 0, 51, 0
1, 81000, Note_on_c, 0, 60, 36
1, 81000, Note_on_c, 0, 53, 44
1, 81010, Control_c, 0, 64, 0
1, 81120, Note_on_c, 0, 53, 0
1, 81120, Note_on_c, 0, 60, 0
1, 81120, Note_on_c, 0, 58, 27
1, 81120, Note_on_c, 0, 54, 56
1, 81212, Control_c, 0, 64, 127
1, 81240, Note_on_c, 0, 58, 0
1, 81240, Note_on_c, 0, 61, 32
1, 81360, Tempo, 506073
1, 81360, Note_on_c, 0, 61, 0
1, 81360, Note_on_c, 0, 58, 34
1, 81480, Note_on_c, 0, 58, 0
1, 81480, Note_on_c, 0, 61, 39
1, 81577, Note_on_c, 0, 58, 63
1, 81600, Note_on_c, 0, 61, 0
1, 81697, Note_on_c, 0, 58, 0
1, 81720, Note_on_c, 0, 61, 51
1, 81840, Note_on_c, 0, 61, 0
1, 81840, Note_on_c, 0, 70, 55
1, 81960, Note_on_c, 0, 70, 0
1, 81960, Note_on_c, 0, 73, 48
1, 82080, Note_on_c, 0, 73, 0
1, 82080, Note_on_c, 0, 70, 54
1, 82200, Note_on_c, 0, 70, 0
1, 82200, Note_on_c, 0, 73, 49
1, 82320, Note_on_c, 0, 73, 0
1, 82320, Note_on_c, 0, 70, 55
1, 82440, Note_on_c, 0, 70, 0
1, 82440, Note_on_c, 0, 73, 44
1, 82560, Tempo, 496648
1, 82560, Note_on_c, 0, 73, 0
1, 82560, Note_on_c, 0, 54, 0
1, 82560, Note_on_c, 0, 70, 48
1, 82560, Control_c, 0, 64, 0
1, 82663, Control_c, 0, 64, 127
1, 82680, Note_on_c, 0, 73, 37
1, 82800, Note_on_c, 0, 73, 0
1, 82800, Note_on_c, 0, 70, 0
1, 82800, Note_on_c, 0, 70, 41
1, 82920, Note_on_c, 0, 73, 35
1, 83040, Note_on_c, 0, 73, 0
1, 83040, Note_on_c, 0, 70, 0
1, 83040, Note_on_c, 0, 82, 53
1, 83040, Note_on_c, 0, 68, 36
1, 83040, Note_on_c, 0, 70, 30
1, 83160, Note_on_c, 0, 70, 0
1, 83160, Note_on_c, 0, 82, 0
1, 83160, Note_on_c, 0, 73, 27
1, 83200, Note_on_c, 0, 82, 47
1, 83280, Note_on_c, 0, 73, 0
1, 83280, Note_on_c, 0, 70, 30
1, 83320, Note_on_c, 0, 82, 0
1, 83360, Note_on_c, 0, 82, 47
1, 83400, Note_on_c, 0, 70, 0
1, 83400, Note_on_c, 0, 73, 27
1, 83480, Note_on_c, 0, 82, 0
1, 83520, Note_on_c, 0, 73, 0
1, 83520, Note_on_c, 0, 68, 0
1, 83520, Note_on_c, 0, 82, 54
1, 83520, Note_on_c, 0, 66, 36
1, 83520, Note_on_c, 0, 70, 38
1, 83542, Control_c, 0, 64, 0
1, 83617, Control_c, 0, 64, 127
1, 83640, Note_on_c, 0, 70, 0
1, 83640, Note_on_c, 0, 82, 0
1, 83640, Note_on_c, 0, 73, 27
1, 83680, Note_on_c, 0, 82, 46
1, 83760, Note_on_c, 0, 73, 0
1, 83760, Note_on_c, 0, 70, 31
1, 83800, Note_on_c, 0, 82, 0
1, 83840, Note_on_c, 0, 82, 46
1, 83880, Note_on_c, 0, 70, 0
1, 83880, Note_on_c, 0, 73, 27
1, 83960, Note_on_c, 0, 82, 0
1, 84000, Note_on_c, 0, 73, 0
1, 84000, Note_on_c, 0, 66, 0
1, 84000, Note_on_c, 0, 82, 54
1, 84000, Note_on_c, 0, 65, 36
1, 84000, Note_on_c, 0, 70, 35
1, 84120, Note_on_c, 0, 70, 0
1, 84120, Note_on_c, 0, 82, 0
1, 84120, Note_on_c, 0, 73, 27
1, 84160, Note_on_c, 0, 82, 47
1, 84240, Tempo, 519931
1, 84240, Note_on_c, 0, 73, 0
1, 84240, Note_on_c, 0, 70, 36
1, 84280, Note_on_c, 0, 82, 0
1, 84320, Note_on_c, 0, 82, 47
1, 84360, Note_on_c, 0, 70, 0
1, 84360, Note_on_c, 0, 73, 27
1, 84440, Note_on_c, 0, 82, 0
1, 84480, Tempo, 496648
1, 84480, Note_on_c, 0, 73, 0
1, 84480, Note_on_c, 0, 65, 0
1, 84480, Note_on_c, 0, 82, 54
1, 84480, Note_on_c, 0, 70, 34
1, 84480, Note_on_c, 0, 64, 32
1, 84480, Control_c, 0, 64, 0
1, 84543, Control_c, 0, 64, 127
1, 84600, Note_on_c, 0, 70, 0
1, 84600, Note_on_c, 0, 73, 30
1, 84720, Note_on_c, 0, 73, 0
1, 84720, Note_on_c, 0, 82, 0
1, 84720, Note_on_c, 0, 81, 50
1, 84720, Note_on_c, 0, 70, 34
1, 84840, Note_on_c, 0, 70, 0
1, 84840, Note_on_c, 0, 73, 30
1, 84960, Note_on_c, 0, 73, 0
1, 84960, Note_on_c, 0, 81, 0
1, 84960, Note_on_c, 0, 79, 48
1, 84960, Note_on_c, 0, 70, 40
1, 85080, Note_on_c, 0, 70, 0
1, 85080, Note_on_c, 0, 73, 34
1, 85200, Note_on_c, 0, 73, 0
1, 85200, Note_on_c, 0, 70, 40
1, 85320, Note_on_c, 0, 70, 0
1, 85320, Note_on_c, 0, 73, 35
1, 85440, Note_on_c, 0, 73, 0
1, 85440, Note_on_c, 0, 64, 0
1, 85440, Note_on_c, 0, 65, 40
1, 85440, Note_on_c, 0, 70, 43
1, 85447, Control_c, 0, 64, 0
1, 85560, Note_on_c, 0, 70, 0
1, 85560, Note_on_c, 0, 73, 35
1, 85572, Control_c, 0, 64, 127
1, 85680, Note_on_c, 0, 73, 0
1, 85680, Note_on_c, 0, 70, 41
1, 85800, Note_on_c, 0, 70, 0
1, 85800, Note_on_c, 0, 73, 30
1, 85920, Note_on_c, 0, 73, 0
1, 85920, Note_on_c, 0, 79, 0
1, 85920, Note_on_c, 0, 82, 69
1, 85920, Note_on_c, 0, 70, 49
1, 86040, Note_on_c, 0, 70, 0
1, 86040, Note_on_c, 0, 73, 40
1, 86080, Note_on_c, 0, 82, 0
1, 86080, Note_on_c, 0, 81, 65
1, 86160, Tempo, 519931
1, 86160, Note_on_c, 0, 73, 0
1, 86160, Note_on_c, 0, 70, 46
1, 86240, Note_on_c, 0, 81, 0
1, 86240, Note_on_c, 0, 79, 57
1, 86280, Note_on_c, 0, 70, 0
1, 86280, Note_on_c, 0, 73, 39
1, 86400, Tempo, 496648
1, 86400, Note_on_c, 0, 73, 0
1, 86400, Note_on_c, 0, 79, 0
1, 86400, Note_on_c, 0, 65, 0
1, 86400, Note_on_c, 0, 79, 64
1, 86400, Note_on_c, 0, 70, 40
1, 86400, Control_c, 0, 64, 0
1, 86475, Control_c, 0, 64, 127
1, 86520, Note_on_c, 0, 73, 35
1, 86640, Note_on_c, 0, 73, 0
1, 86640, Note_on_c, 0, 70, 0
1, 86640, Note_on_c, 0, 70, 39
1, 86760, Note_on_c, 0, 73, 35
1, 86880, Note_on_c, 0, 73, 0
1, 86880, Note_on_c, 0, 70, 0
1, 86880, Note_on_c, 0, 79, 0
1, 86880, Note_on_c, 0, 77, 66
1, 86880, Note_on_c, 0, 67, 40
1, 87000, Note_on_c, 0, 70, 30
1, 87040, Note_on_c, 0, 77, 0
1, 87040, Note_on_c, 0, 76, 59
1, 87120, Tempo, 541126
1, 87120, Note_on_c, 0, 70, 0
1, 87120, Note_on_c, 0, 67, 0
1, 87120, Note_on_c, 0, 67, 34
1, 87200, Note_on_c, 0, 76, 0
1, 87200, Note_on_c, 0, 74, 55
1, 87240, Note_on_c, 0, 70, 30
1, 87360, Tempo, 504159
1, 87360, Note_on_c, 0, 70, 0
1, 87360, Note_on_c, 0, 74, 0
1, 87360, Note_on_c, 0, 67, 0
1, 87360, Note_on_c, 0, 73, 61
1, 87360, Note_on_c, 0, 64, 38
1, 87375, Control_c, 0, 64, 0
1, 87457, Control_c, 0, 64, 127
1, 87480, Note_on_c, 0, 67, 30
1, 87540, Note_on_c, 0, 73, 0
1, 87600, Note_on_c, 0, 67, 0
1, 87600, Note_on_c, 0, 64, 0
1, 87600, Note_on_c, 0, 70, 49
1, 87600, Note_on_c, 0, 64, 35
1, 87720, Note_on_c, 0, 67, 30
1, 87840, Note_on_c, 0, 67, 0
1, 87840, Note_on_c, 0, 64, 0
1, 87840, Note_on_c, 0, 61, 40
1, 87960, Note_on_c, 0, 65, 30
1, 88080, Tempo, 519931
1, 88080, Note_on_c, 0, 65, 0
1, 88080, Note_on_c, 0, 61, 0
1, 88080, Note_on_c, 0, 61, 41
1, 88200, Note_on_c, 0, 61, 0
1, 88200, Note_on_c, 0, 65, 30
1, 88320, Tempo, 504159
1, 88320, Note_on_c, 0, 65, 0
1, 88320, Note_on_c, 0, 70, 0
1, 88320, Note_on_c, 0, 58, 40
1, 88320, Control_c, 0, 64, 0
1, 88395, Control_c, 0, 64, 127
1, 88440, Note_on_c, 0, 61, 30
1, 88560, Note_on_c, 0, 61, 0
1, 88560, Note_on_c, 0, 58, 0
1, 88560, Note_on_c, 0, 58, 34
1, 88680, Note_on_c, 0, 61, 30
1, 88800, Note_on_c, 0, 61, 0
1, 88800, Note_on_c, 0, 58, 0
1, 88800, Note_on_c, 0, 77, 66
1, 88800, Note_on_c, 0, 68, 66
1, 88800, Note_on_c, 0, 51, 40
1, 88800, Note_on_c, 0, 59, 40
1, 88808, Control_c, 0, 64, 0
1, 88869, Control_c, 0, 64, 127
1, 88920, Note_on_c, 0, 59, 0
1, 88920, Note_on_c, 0, 62, 40
1, 88960, Note_on_c, 0, 77, 0
1, 88960, Note_on_c, 0, 76, 59
1, 89040, Tempo, 541126
1, 89040, Note_on_c, 0, 62, 0
1, 89040, Note_on_c, 0, 59, 37
1, 89120, Note_on_c, 0, 76, 0
1, 89120, Note_on_c, 0, 74, 56
1, 89160, Note_on_c, 0, 59, 0
1, 89160, Note_on_c, 0, 62, 40
1, 89280, Tempo, 513919
1, 89280, Note_on_c, 0, 62, 0
1, 89280, Note_on_c, 0, 74, 0
1, 89280, Note_on_c, 0, 68, 0
1, 89280, Note_on_c, 0, 67, 44
1, 89280, Note_on_c, 0, 73, 61
1, 89280, Note_on_c, 0, 58, 49
1, 89295, Control_c, 0, 64, 0
1, 89377, Control_c, 0, 64, 127
1, 89400, Note_on_c, 0, 58, 0
1, 89400, Note_on_c, 0, 63, 32
1, 89460, Note_on_c, 0, 73, 0
1, 89520, Note_on_c, 0, 63, 0
1, 89520, Note_on_c, 0, 70, 49
1, 89520, Note_on_c, 0, 58, 38
1, 89640, Note_on_c, 0, 58, 0
1, 89640, Note_on_c, 0, 63, 35
1, 89700, Note_on_c, 0, 70, 0
1, 89760, Note_on_c, 0, 51, 0
1, 89760, Note_on_c, 0, 67, 0
1, 89760, Note_on_c, 0, 63, 0
1, 89760, Note_on_c, 0, 77, 63
1, 89760, Note_on_c, 0, 68, 63
1, 89760, Note_on_c, 0, 51, 40
1, 89760, Note_on_c, 0, 59, 39
1, 89777, Control_c, 0, 64, 0
1, 89850, Note_on_c, 0, 59, 0
1, 89869, Control_c, 0, 64, 127
1, 89880, Note_on_c, 0, 62, 30
1, 89920, Note_on_c, 0, 77, 0
1, 89920, Note_on_c, 0, 76, 54
1, 90000, Tempo, 543331
1, 90000, Note_on_c, 0, 62, 0
1, 90000, Note_on_c, 0, 59, 41
1, 90080, Note_on_c, 0, 76, 0
1, 90080, Note_on_c, 0, 74, 50
1, 90120, Tempo, 581395
1, 90120, Note_on_c, 0, 59, 0
1, 90120, Note_on_c, 0, 62, 30
1, 90240, Time_signature, 2, 2, 24, 8
1, 90240, Tempo, 526131
1, 90240, Note_on_c, 0, 62, 0
1, 90240, Note_on_c, 0, 74, 0
1, 90240, Note_on_c, 0, 68, 0
1, 90240, Note_on_c, 0, 67, 44
1, 90240, Note_on_c, 0, 73, 61
1, 90240, Note_on_c, 0, 58, 49
1, 90255, Control_c, 0, 64, 0
1, 90293, Control_c, 0, 64, 127
1, 90360, Note_on_c, 0, 58, 0
1, 90360, Note_on_c, 0, 63, 32
1, 90420, Note_on_c, 0, 73, 0
1, 90480, Note_on_c, 0, 63, 0
1, 90480, Note_on_c, 0, 70, 49
1, 90480, Note_on_c, 0, 58, 38
1, 90600, Note_on_c, 0, 58, 0
1, 90600, Note_on_c, 0, 63, 35
1, 90660, Note_on_c, 0, 70, 0
1, 90720, Note_on_c, 0, 51, 0
1, 90720, Note_on_c, 0, 67, 0
1, 90720, Note_on_c, 0, 63, 0
1, 90720, Note_on_c, 0, 68, 51
1, 90720, Note_on_c, 0, 77, 63
1, 90720, Note_on_c, 0, 59, 39
1, 90737, Control_c, 0, 64, 0
1, 90787, Control_c, 0, 64, 127
1, 90810, Note_on_c, 0, 59, 0
1, 90840, Tempo, 564122
1, 90840, Note_on_c, 0, 62, 44
1, 90880, Note_on_c, 0, 77, 0
1, 90880, Note_on_c, 0, 76, 54
1, 90960, Note_on_c, 0, 62, 0
1, 90960, Note_on_c, 0, 64, 48
1, 91040, Note_on_c, 0, 76, 0
1, 91040, Note_on_c, 0, 74, 50
1, 91080, Tempo, 619323
1, 91080, Note_on_c, 0, 64, 0
1, 91080, Note_on_c, 0, 65, 50
1, 91200, Time_signature, 4, 2, 24, 8
1, 91200, Tempo, 488918
1, 91200, Note_on_c, 0, 65, 0
1, 91200, Note_on_c, 0, 74, 0
1, 91200, Note_on_c, 0, 68, 0
1, 91200, Note_on_c, 0, 70, 75
1, 91200, Note_on_c, 0, 73, 75
1, 91200, Note_on_c, 0, 54, 75
1, 91200, Note_on_c, 0, 61, 75
1, 91200, Control_c, 0, 64, 0
1, 91263, Control_c, 0, 64, 127
1, 91320, Note_on_c, 0, 61, 0
1, 91320, Note_on_c, 0, 70, 0
1, 91320, Note_on_c, 0, 73, 0
1, 91320, Note_on_c, 0, 54, 0
1, 91320, Note_on_c, 0, 66, 69
1, 91440, Note_on_c, 0, 66, 0
1, 91440, Note_on_c, 0, 63, 58
1, 91450, Control_c, 0, 64, 0
1, 91500, Note_on_c, 0, 63, 0
1, 91560, Note_on_c, 0, 63, 63
1, 91620, Note_on_c, 0, 63, 0
1, 91680, Note_on_c, 0, 63, 63
1, 91740, Note_on_c, 0, 63, 0
1, 91800, Note_on_c, 0, 63, 66
1, 91860, Note_on_c, 0, 63, 0
1, 91920, Note_on_c, 0, 63, 68
1, 91980, Note_on_c, 0, 63, 0
1, 92040, Tempo, 556741
1, 92040, Note_on_c, 0, 63, 72
1, 92100, Note_on_c, 0, 63, 0
1, 92160, Tempo, 486973
1, 92160, Note_on_c, 0, 70, 75
1, 92160, Note_on_c, 0, 73, 75
1, 92160, Note_on_c, 0, 61, 74
1, 92160, Note_on_c, 0, 58, 74
1, 92206, Control_c, 0, 64, 127
1, 92280, Note_on_c, 0, 58, 0
1, 92280, Note_on_c, 0, 70, 0
1, 92280, Note_on_c, 0, 73, 0
1, 92280, Note_on_c, 0, 61, 0
1, 92280, Note_on_c, 0, 65, 68
1, 92400, Note_on_c, 0, 65, 0
1, 92400, Note_on_c, 0, 63, 66
1, 92410, Control_c, 0, 64, 0
1, 92460, Note_on_c, 0, 63, 0
1, 92520, Note_on_c, 0, 63, 68
1, 92580, Note_on_c, 0, 63, 0
1, 92640, Note_on_c, 0, 63, 73
1, 92700, Note_on_c, 0, 63, 0
1, 92760, Note_on_c, 0, 63, 75
1, 92820, Note_on_c, 0, 63, 0
1, 92880, Note_on_c, 0, 63, 78
1, 92940, Note_on_c, 0, 63, 0
1, 93000, Tempo, 551775
1, 93000, Note_on_c, 0, 63, 78
1, 93060, Note_on_c, 0, 63, 0
1, 93120, Tempo, 488918
1, 93120, Note_on_c, 0, 70, 75
1, 93120, Note_on_c, 0, 73, 75
1, 93120, Note_on_c, 0, 55, 75
1, 93120, Note_on_c, 0, 61, 75
1, 93183, Control_c, 0, 64, 127
1, 93240, Note_on_c, 0, 61, 0
1, 93240, Note_on_c, 0, 70, 0
1, 93240, Note_on_c, 0, 73, 0
1, 93240, Note_on_c, 0, 55, 0
1, 93240, Note_on_c, 0, 63, 69
1, 93330, Note_on_c, 0, 63, 0
1, 93360, Note_on_c, 0, 63, 69
1, 93370, Control_c, 0, 64, 0
1, 93420, Note_on_c, 0, 63, 0
1, 93480, Note_on_c, 0, 63, 67
1, 93540, Note_on_c, 0, 63, 0
1, 93600, Note_on_c, 0, 63, 67
1, 93660, Note_on_c, 0, 63, 0
1, 93720, Note_on_c, 0, 63, 67
1, 93780, Note_on_c, 0, 63, 0
1, 93840, Note_on_c, 0, 63, 67
1, 93900, Note_on_c, 0, 63, 0
1, 93960, Tempo, 502765
1, 93960, Note_on_c, 0, 63, 64
1, 94020, Note_on_c, 0, 63, 0
1, 94080, Tempo, 486973
1, 94080, Note_on_c, 0, 63, 61
1, 94140, Note_on_c, 0, 63, 0
1, 94200, Note_on_c, 0, 63, 61
1, 94260, Note_on_c, 0, 63, 0
1, 94320, Note_on_c, 0, 63, 61
1, 94380, Note_on_c, 0, 63, 0
1, 94440, Note_on_c, 0, 63, 61
1, 94500, Note_on_c, 0, 63, 0
1, 94560, Note_on_c, 0, 63, 61
1, 94620, Note_on_c, 0, 63, 0
1, 94680, Note_on_c, 0, 63, 60
1, 94740, Note_on_c, 0, 63, 0
1, 94800, Note_on_c, 0, 63, 57
1, 94860, Note_on_c, 0, 63, 0
1, 94920, Tempo, 551775
1, 94920, Note_on_c, 0, 63, 57
1, 94980, Note_on_c, 0, 63, 0
1, 95040, Tempo, 488918
1, 95040, Note_on_c, 0, 70, 75
1, 95040, Note_on_c, 0, 73, 75
1, 95040, Note_on_c, 0, 54, 75
1, 95040, Note_on_c, 0, 61, 75
1, 95103, Control_c, 0, 64, 127
1, 95160, Note_on_c, 0, 61, 0
1, 95160, Note_on_c, 0, 70, 0
1, 95160, Note_on_c, 0, 73, 0
1, 95160, Note_on_c, 0, 54, 0
1, 95160, Note_on_c, 0, 66, 69
1, 95280, Note_on_c, 0, 66, 0
1, 95280, Note_on_c, 0, 63, 58
1, 95290, Control_c, 0, 64, 0
1, 95340, Note_on_c, 0, 63, 0
1, 95400, Note_on_c, 0, 63, 63
1, 95460, Note_on_c, 0, 63, 0
1, 95520, Note_on_c, 0, 63, 63
1, 95580, Note_on_c, 0, 63, 0
1, 95640, Note_on_c, 0, 63, 66
1, 95700, Note_on_c, 0, 63, 0
1, 95760, Note_on_c, 0, 63, 68
1, 95820, Note_on_c, 0, 63, 0
1, 95880, Tempo, 556741
1, 95880, Note_on_c, 0, 63, 72
1, 95940, Note_on_c, 0, 63, 0
1, 96000, Tempo, 486973
1, 96000, Note_on_c, 0, 70, 75
1, 96000, Note_on_c, 0, 73, 75
1, 96000, Note_on_c, 0, 61, 74
1, 96000, Note_on_c, 0, 58, 74
1, 96046, Control_c, 0, 64, 127
1, 96120, Note_on_c, 0, 58, 0
1, 96120, Note_on_c, 0, 70, 0
1, 96120, Note_on_c, 0, 73, 0
1, 96120, Note_on_c, 0, 61, 0
1, 96120, Note_on_c, 0, 65, 68
1, 96240, Note_on_c, 0, 65, 0
1, 96240, Note_on_c, 0, 63, 66
1, 96250, Control_c, 0, 64, 0
1, 96300, Note_on_c, 0, 63, 0
1, 96360, Note_on_c, 0, 63, 68
1, 96420, Note_on_c, 0, 63, 0
1, 96480, Note_on_c, 0, 63, 73
1, 96540, Note_on_c, 0, 63, 0
1, 96600, Note_on_c, 0, 63, 75
1, 96660, Note_on_c, 0, 63, 0
1, 96720, Note_on_c, 0, 63, 78
1, 96780, Note_on_c, 0, 63, 0
1, 96840, Tempo, 551775
1, 96840, Note_on_c, 0, 63, 78
1, 96900, Note_on_c, 0, 63, 0
1, 96960, Time_signature, 2, 2, 24, 8
1, 96960, Tempo, 488918
1, 96960, Note_on_c, 0, 70, 75
1, 96960, Note_on_c, 0, 73, 75
1, 96960, Note_on_c, 0, 55, 75
1, 96960, Note_on_c, 0, 61, 75
1, 97023, Control_c, 0, 64, 127
1, 97080, Note_on_c, 0, 61, 0
1, 97080, Note_on_c, 0, 70, 0
1, 97080, Note_on_c, 0, 73, 0
1, 97080, Note_on_c, 0, 55, 0
1, 97080, Note_on_c, 0, 63, 69
1, 97170, Note_on_c, 0, 63, 0
1, 97200, Note_on_c, 0, 63, 64
1, 97210, Control_c, 0, 64, 0
1, 97260, Note_on_c, 0, 63, 0
1, 97320, Note_on_c, 0, 63, 61
1, 97380, Note_on_c, 0, 63, 0
1, 97440, Note_on_c, 0, 63, 57
1, 97500, Note_on_c, 0, 63, 0
1, 97560, Note_on_c, 0, 63, 55
1, 97620, Note_on_c, 0, 63, 0
1, 97680, Note_on_c, 0, 63, 51
1, 97740, Note_on_c, 0, 63, 0
1, 97800, Tempo, 502765
1, 97800, Note_on_c, 0, 63, 50
1, 97860, Note_on_c, 0, 63, 0
1, 97920, Time_signature, 4, 2, 24, 8
1, 97920, Tempo, 486973
1, 97920, Note_on_c, 0, 63, 42
1, 98010, Note_on_c, 0, 63, 0
1, 98040, Note_on_c, 0, 62, 35
1, 98130, Note_on_c, 0, 62, 0
1, 98160, Note_on_c, 0, 66, 42
1, 98250, Note_on_c, 0, 66, 0
1, 98280, Note_on_c, 0, 65, 37
1, 98370, Note_on_c, 0, 65, 0
1, 98400, Tempo, 486973
1, 98400, Note_on_c, 0, 63, 42
1, 98490, Note_on_c, 0, 63, 0
1, 98520, Note_on_c, 0, 65, 37
1, 98610, Note_on_c, 0, 65, 0
1, 98640, Tempo, 475851
1, 98640, Note_on_c, 0, 66, 37
1, 98730, Note_on_c, 0, 66, 0
1, 98760, Tempo, 532860
1, 98760, Note_on_c, 0, 67, 37
1, 98850, Note_on_c, 0, 67, 0
1, 98880, Tempo, 485084
1, 98880, Note_on_c, 0, 63, 42
1, 98970, Note_on_c, 0, 63, 0
1, 99000, Note_on_c, 0, 62, 35
1, 99090, Note_on_c, 0, 62, 0
1, 99120, Note_on_c, 0, 66, 42
1, 99210, Note_on_c, 0, 66, 0
1, 99240, Note_on_c, 0, 65, 36
1, 99330, Note_on_c, 0, 65, 0
1, 99360, Note_on_c, 0, 63, 42
1, 99450, Note_on_c, 0, 63, 0
1, 99480, Note_on_c, 0, 65, 37
1, 99570, Note_on_c, 0, 65, 0
1, 99600, Tempo, 472218
1, 99600, Note_on_c, 0, 66, 37
1, 99690, Note_on_c, 0, 66, 0
1, 99720, Tempo, 526131
1, 99720, Note_on_c, 0, 67, 37
1, 99810, Note_on_c, 0, 67, 0
1, 99840, Tempo, 486973
1, 99840, Note_on_c, 0, 66, 42
1, 99930, Note_on_c, 0, 66, 0
1, 99960, Note_on_c, 0, 65, 35
1, 100050, Note_on_c, 0, 65, 0
1, 100080, Note_on_c, 0, 70, 42
1, 100170, Note_on_c, 0, 70, 0
1, 100200, Note_on_c, 0, 69, 37
1, 100290, Note_on_c, 0, 69, 0
1, 100320, Tempo, 486973
1, 100320, Note_on_c, 0, 66, 42
1, 100410, Note_on_c, 0, 66, 0
1, 100440, Note_on_c, 0, 68, 37
1, 100530, Note_on_c, 0, 68, 0
1, 100560, Tempo, 475851
1, 100560, Note_on_c, 0, 70, 37
1, 100650, Note_on_c, 0, 70, 0
1, 100680, Tempo, 532860
1, 100680, Note_on_c, 0, 71, 37
1, 100770, Note_on_c, 0, 71, 0
1, 100800, Tempo, 485084
1, 100800, Note_on_c, 0, 66, 42
1, 100890, Note_on_c, 0, 66, 0
1, 100920, Note_on_c, 0, 65, 35
1, 101010, Note_on_c, 0, 65, 0
1, 101040, Note_on_c, 0, 70, 42
1, 101130, Note_on_c, 0, 70, 0
1, 101160, Note_on_c, 0, 69, 36
1, 101250, Note_on_c, 0, 69, 0
1, 101280, Note_on_c, 0, 66, 42
1, 101370, Note_on_c, 0, 66, 0
1, 101400, Note_on_c, 0, 69, 37
1, 101490, Note_on_c, 0, 69, 0
1, 101520, Tempo, 472218
1, 101520, Note_on_c, 0, 70, 37
1, 101610, Note_on_c, 0, 70, 0
1, 101640, Tempo, 526131
1, 101640, Note_on_c, 0, 71, 37
1, 101730, Note_on_c, 0, 71, 0
1, 101760, Tempo, 486973
1, 101760, Note_on_c, 0, 70, 42
1, 101850, Note_on_c, 0, 70, 0
1, 101880, Note_on_c, 0, 69, 35
1, 101970, Note_on_c, 0, 69, 0
1, 102000, Note_on_c, 0, 73, 42
1, 102090, Note_on_c, 0, 73, 0
1, 102120, Note_on_c, 0, 72, 37
1, 102210, Note_on_c, 0, 72, 0
1, 102240, Tempo, 486973
1, 102240, Note_on_c, 0, 70, 42
1, 102330, Note_on_c, 0, 70, 0
1, 102360, Note_on_c, 0, 71, 37
1, 102450, Note_on_c, 0, 71, 0
1, 102480, Tempo, 475851
1, 102480, Note_on_c, 0, 73, 37
1, 102570, Note_on_c, 0, 73, 0
1, 102600, Tempo, 532860
1, 102600, Note_on_c, 0, 74, 37
1, 102690, Note_on_c, 0, 74, 0
1, 102720, Tempo, 485084
1, 102720, Note_on_c, 0, 70, 42
1, 102810, Note_on_c, 0, 70, 0
1, 102840, Note_on_c, 0, 69, 35
1, 102930, Note_on_c, 0, 69, 0
1, 102960, Note_on_c, 0, 73, 42
1, 103050, Note_on_c, 0, 73, 0
1, 103080, Note_on_c, 0, 72, 36
1, 103170, Note_on_c, 0, 72, 0
1, 103200, Note_on_c, 0, 70, 42
1, 103290, Note_on_c, 0, 70, 0
1, 103320, Note_on_c, 0, 71, 37
1, 103410, Note_on_c, 0, 71, 0
1, 103440, Tempo, 472218
1, 103440, Note_on_c, 0, 73, 37
1, 103530, Note_on_c, 0, 73, 0
1, 103560, Tempo, 526131
1, 103560, Note_on_c, 0, 74, 37
1, 103650, Note_on_c, 0, 74, 0
1, 103680, Tempo, 490838
1, 103680, Note_on_c, 0, 70, 42
1, 103760, Control_c, 0, 64, 127
1, 103800, Tempo, 481348
1, 103800, Note_on_c, 0, 70, 0
1, 103800, Note_on_c, 0, 71, 41
1, 103920, Note_on_c, 0, 71, 0
1, 103920, Note_on_c, 0, 73, 41
1, 104040, Note_on_c, 0, 73, 0
1, 104040, Note_on_c, 0, 74, 40
1, 104160, Note_on_c, 0, 74, 0
1, 104160, Note_on_c, 0, 70, 39
1, 104280, Note_on_c, 0, 70, 0
1, 104280, Note_on_c, 0, 71, 39
1, 104400, Note_on_c, 0, 71, 0
1, 104400, Note_on_c, 0, 73, 39
1, 104520, Note_on_c, 0, 73, 0
1, 104520, Note_on_c, 0, 74, 38
1, 104640, Note_on_c, 0, 74, 0
1, 104640, Note_on_c, 0, 70, 37
1, 104760, Note_on_c, 0, 70, 0
1, 104760, Note_on_c, 0, 71, 37
1, 104880, Note_on_c, 0, 71, 0
1, 104880, Note_on_c, 0, 73, 36
1, 105000, Note_on_c, 0, 73, 0
1, 105000, Note_on_c, 0, 74, 36
1, 105120, Note_on_c, 0, 74, 0
1, 105120, Note_on_c, 0, 70, 35
1, 105240, Note_on_c, 0, 70, 0
1, 105240, Note_on_c, 0, 71, 35
1, 105360, Note_on_c, 0, 71, 0
1, 105360, Note_on_c, 0, 73, 34
1, 105480, Tempo, 526131
1, 105480, Note_on_c, 0, 73, 0
1, 105480, Note_on_c, 0, 74, 34
1, 105600, Tempo, 458295
1, 105600, Note_on_c, 0, 74, 0
1, 105600, Note_on_c, 0, 62, 40
1, 105600, Note_on_c, 0, 74, 33
1, 105600, Control_c, 0, 64, 0
1, 105657, Control_c, 0, 64, 127
1, 105690, Note_on_c, 0, 74, 0
1, 105720, Note_on_c, 0, 76, 36
1, 105810, Note_on_c, 0, 76, 0
1, 105840, Tempo, 483949
1, 105840, Note_on_c, 0, 72, 29
1, 105848, Control_c, 0, 64, 0
1, 105918, Control_c, 0, 64, 127
1, 105930, Note_on_c, 0, 72, 0
1, 105960, Note_on_c, 0, 77, 30
1, 106050, Note_on_c, 0, 77, 0
1, 106080, Tempo, 475323
1, 106080, Note_on_c, 0, 70, 29
1, 106093, Control_c, 0, 64, 0
1, 106144, Control_c, 0, 64, 127
1, 106170, Note_on_c, 0, 70, 0
1, 106200, Note_on_c, 0, 79, 30
1, 106290, Note_on_c, 0, 79, 0
1, 106320, Tempo, 478736
1, 106320, Note_on_c, 0, 69, 29
1, 106333, Control_c, 0, 64, 0
1, 106398, Control_c, 0, 64, 127
1, 106410, Note_on_c, 0, 69, 0
1, 106440, Note_on_c, 0, 81, 30
1, 106530, Note_on_c, 0, 81, 0
1, 106560, Tempo, 485751
1, 106560, Note_on_c, 0, 72, 33
1, 106575, Control_c, 0, 64, 0
1, 106638, Control_c, 0, 64, 127
1, 106650, Note_on_c, 0, 72, 0
1, 106680, Note_on_c, 0, 74, 36
1, 106770, Note_on_c, 0, 74, 0
1, 106800, Note_on_c, 0, 70, 30
1, 106814, Control_c, 0, 64, 0
1, 106885, Control_c, 0, 64, 127
1, 106890, Note_on_c, 0, 70, 0
1, 106920, Note_on_c, 0, 76, 29
1, 107010, Note_on_c, 0, 76, 0
1, 107040, Tempo, 480461
1, 107040, Note_on_c, 0, 69, 30
1, 107053, Control_c, 0, 64, 0
1, 107125, Control_c, 0, 64, 127
1, 107130, Note_on_c, 0, 69, 0
1, 107160, Note_on_c, 0, 77, 29
1, 107250, Note_on_c, 0, 77, 0
1, 107280, Tempo, 498504
1, 107280, Note_on_c, 0, 67, 30
1, 107284, Control_c, 0, 64, 0
1, 107337, Control_c, 0, 64, 127
1, 107370, Note_on_c, 0, 67, 0
1, 107400, Note_on_c, 0, 79, 29
1, 107457, Control_c, 0, 64, 0
1, 107490, Note_on_c, 0, 79, 0
1, 107520, Tempo, 482199
1, 107520, Note_on_c, 0, 62, 0
1, 107520, Note_on_c, 0, 62, 40
1, 107520, Note_on_c, 0, 74, 33
1, 107610, Note_on_c, 0, 74, 0
1, 107612, Control_c, 0, 64, 127
1, 107640, Note_on_c, 0, 76, 36
1, 107730, Note_on_c, 0, 76, 0
1, 107760, Note_on_c, 0, 72, 29
1, 107768, Control_c, 0, 64, 0
1, 107838, Control_c, 0, 64, 127
1, 107850, Note_on_c, 0, 72, 0
1, 107880, Note_on_c, 0, 77, 30
1, 107970, Note_on_c, 0, 77, 0
1, 108000, Tempo, 478736
1, 108000, Note_on_c, 0, 70, 29
1, 108013, Control_c, 0, 64, 0
1, 108090, Note_on_c, 0, 70, 0
1, 108092, Control_c, 0, 64, 127
1, 108120, Note_on_c, 0, 79, 30
1, 108210, Note_on_c, 0, 79, 0
1, 108240, Tempo, 477023
1, 108240, Note_on_c, 0, 69, 29
1, 108253, Control_c, 0, 64, 0
1, 108318, Control_c, 0, 64, 127
1, 108330, Note_on_c, 0, 69, 0
1, 108360, Note_on_c, 0, 81, 30
1, 108450, Note_on_c, 0, 81, 0
1, 108480, Tempo, 480461
1, 108480, Note_on_c, 0, 72, 33
1, 108495, Control_c, 0, 64, 0
1, 108544, Control_c, 0, 64, 127
1, 108570, Note_on_c, 0, 72, 0
1, 108600, Note_on_c, 0, 74, 36
1, 108690, Note_on_c, 0, 74, 0
1, 108720, Note_on_c, 0, 70, 30
1, 108734, Control_c, 0, 64, 0
1, 108805, Control_c, 0, 64, 127
1, 108810, Note_on_c, 0, 70, 0
1, 108840, Note_on_c, 0, 76, 29
1, 108930, Note_on_c, 0, 76, 0
1, 108960, Note_on_c, 0, 69, 30
1, 108973, Control_c, 0, 64, 0
1, 109045, Control_c, 0, 64, 127
1, 109050, Note_on_c, 0, 69, 0
1, 109080, Note_on_c, 0, 77, 29
1, 109170, Note_on_c, 0, 77, 0
1, 109200, Tempo, 494764
1, 109200, Note_on_c, 0, 67, 30
1, 109204, Control_c, 0, 64, 0
1, 109257, Control_c, 0, 64, 127
1, 109290, Note_on_c, 0, 67, 0
1, 109320, Note_on_c, 0, 79, 29
1, 109377, Control_c, 0, 64, 0
1, 109410, Note_on_c, 0, 79, 0
1, 109440, Tempo, 480461
1, 109440, Note_on_c, 0, 62, 0
1, 109440, Note_on_c, 0, 62, 40
1, 109440, Note_on_c, 0, 69, 33
1, 109511, Control_c, 0, 64, 127
1, 109530, Note_on_c, 0, 69, 0
1, 109560, Note_on_c, 0, 76, 36
1, 109650, Note_on_c, 0, 76, 0
1, 109680, Note_on_c, 0, 72, 29
1, 109688, Control_c, 0, 64, 0
1, 109758, Control_c, 0, 64, 127
1, 109770, Note_on_c, 0, 72, 0
1, 109800, Note_on_c, 0, 77, 30
1, 109890, Note_on_c, 0, 77, 0
1, 109920, Note_on_c, 0, 70, 29
1, 109933, Control_c, 0, 64, 0
1, 109984, Control_c, 0, 64, 127
1, 110010, Note_on_c, 0, 70, 0
1, 110040, Note_on_c, 0, 74, 30
1, 110130, Note_on_c, 0, 74, 0
1, 110160, Note_on_c, 0, 67, 29
1, 110173, Control_c, 0, 64, 0
1, 110238, Control_c, 0, 64, 127
1, 110250, Note_on_c, 0, 67, 0
1, 110280, Note_on_c, 0, 76, 30
1, 110370, Note_on_c, 0, 76, 0
1, 110400, Tempo, 470146
1, 110400, Note_on_c, 0, 69, 33
1, 110415, Control_c, 0, 64, 0
1, 110490, Note_on_c, 0, 69, 0
1, 110492, Control_c, 0, 64, 127
1, 110520, Tempo, 473859
1, 110520, Note_on_c, 0, 72, 36
1, 110610, Note_on_c, 0, 72, 0
1, 110640, Tempo, 466490
1, 110640, Note_on_c, 0, 65, 30
1, 110654, Control_c, 0, 64, 0
1, 110725, Control_c, 0, 64, 127
1, 110730, Note_on_c, 0, 65, 0
1, 110760, Note_on_c, 0, 74, 29
1, 110850, Note_on_c, 0, 74, 0
1, 110880, Note_on_c, 0, 67, 30
1, 110893, Control_c, 0, 64, 0
1, 110965, Control_c, 0, 64, 127
1, 110970, Note_on_c, 0, 67, 0
1, 111000, Note_on_c, 0, 70, 29
1, 111090, Note_on_c, 0, 70, 0
1, 111120, Tempo, 483949
1, 111120, Note_on_c, 0, 64, 30
1, 111124, Control_c, 0, 64, 0
1, 111177, Control_c, 0, 64, 127
1, 111210, Note_on_c, 0, 64, 0
1, 111240, Note_on_c, 0, 72, 29
1, 111297, Control_c, 0, 64, 0
1, 111330, Note_on_c, 0, 72, 0
1, 111360, Tempo, 478736
1, 111360, Note_on_c, 0, 62, 0
1, 111360, Note_on_c, 0, 62, 40
1, 111360, Note_on_c, 0, 69, 33
1, 111438, Control_c, 0, 64, 127
1, 111450, Note_on_c, 0, 69, 0
1, 111480, Note_on_c, 0, 76, 36
1, 111570, Note_on_c, 0, 76, 0
1, 111600, Note_on_c, 0, 72, 29
1, 111608, Control_c, 0, 64, 0
1, 111678, Control_c, 0, 64, 127
1, 111690, Note_on_c, 0, 72, 0
1, 111720, Note_on_c, 0, 77, 30
1, 111810, Note_on_c, 0, 77, 0
1, 111840, Note_on_c, 0, 70, 29
1, 111853, Control_c, 0, 64, 0
1, 111918, Control_c, 0, 64, 127
1, 111930, Note_on_c, 0, 70, 0
1, 111960, Note_on_c, 0, 74, 30
1, 112050, Note_on_c, 0, 74, 0
1, 112080, Note_on_c, 0, 67, 29
1, 112093, Control_c, 0, 64, 0
1, 112158, Control_c, 0, 64, 127
1, 112170, Note_on_c, 0, 67, 0
1, 112200, Note_on_c, 0, 76, 30
1, 112290, Note_on_c, 0, 76, 0
1, 112320, Tempo, 489317
1, 112320, Note_on_c, 0, 69, 33
1, 112335, Control_c, 0, 64, 0
1, 112405, Control_c, 0, 64, 127
1, 112410, Note_on_c, 0, 69, 0
1, 112440, Note_on_c, 0, 72, 36
1, 112530, Note_on_c, 0, 72, 0
1, 112560, Note_on_c, 0, 65, 30
1, 112574, Control_c, 0, 64, 0
1, 112645, Control_c, 0, 64, 127
1, 112650, Note_on_c, 0, 65, 0
1, 112680, Note_on_c, 0, 74, 29
1, 112770, Note_on_c, 0, 74, 0
1, 112800, Tempo, 500375
1, 112800, Note_on_c, 0, 69, 30
1, 112813, Control_c, 0, 64, 0
1, 112885, Control_c, 0, 64, 127
1, 112890, Note_on_c, 0, 69, 0
1, 112920, Note_on_c, 0, 76, 29
1, 113010, Note_on_c, 0, 76, 0
1, 113040, Tempo, 522011
1, 113040, Note_on_c, 0, 74, 30
1, 113044, Control_c, 0, 64, 0
1, 113097, Control_c, 0, 64, 127
1, 113130, Note_on_c, 0, 74, 0
1, 113160, Note_on_c, 0, 77, 29
1, 113217, Control_c, 0, 64, 0
1, 113250, Note_on_c, 0, 77, 0
1, 113280, Tempo, 485751
1, 113280, Note_on_c, 0, 62, 0
1, 113280, Note_on_c, 0, 73, 47
1, 113315, Control_c, 0, 64, 127
1, 113400, Note_on_c, 0, 73, 0
1, 113400, Note_on_c, 0, 77, 37
1, 113520, Tempo, 473634
1, 113520, Note_on_c, 0, 77, 0
1, 113520, Note_on_c, 0, 81, 39
1, 113640, Note_on_c, 0, 81, 0
1, 113640, Note_on_c, 0, 76, 34
1, 113760, Note_on_c, 0, 76, 0
1, 113760, Note_on_c, 0, 73, 33
1, 113880, Note_on_c, 0, 73, 0
1, 113880, Note_on_c, 0, 77, 38
1, 114000, Tempo, 485751
1, 114000, Note_on_c, 0, 77, 0
1, 114000, Note_on_c, 0, 81, 34
1, 114120, Note_on_c, 0, 81, 0
1, 114120, Note_on_c, 0, 76, 36
1, 114240, Tempo, 475323
1, 114240, Note_on_c, 0, 76, 0
1, 114240, Note_on_c, 0, 73, 42
1, 114258, Control_c, 0, 64, 0
1, 114320, Control_c, 0, 64, 127
1, 114360, Note_on_c, 0, 73, 0
1, 114360, Note_on_c, 0, 77, 39
1, 114480, Note_on_c, 0, 77, 0
1, 114480, Note_on_c, 0, 79, 41
1, 114600, Note_on_c, 0, 79, 0
1, 114600, Note_on_c, 0, 76, 37
1, 114720, Note_on_c, 0, 76, 0
1, 114720, Note_on_c, 0, 73, 36
1, 114840, Note_on_c, 0, 73, 0
1, 114840, Note_on_c, 0, 77, 41
1, 114960, Note_on_c, 0, 77, 0
1, 114960, Note_on_c, 0, 79, 37
1, 115080, Note_on_c, 0, 79, 0
1, 115080, Note_on_c, 0, 76, 38
1, 115200, Tempo, 485751
1, 115200, Note_on_c, 0, 76, 0
1, 115200, Note_on_c, 0, 70, 46
1, 115200, Note_on_c, 0, 73, 54
1, 115200, Control_c, 0, 64, 0
1, 115286, Control_c, 0, 64, 127
1, 115320, Note_on_c, 0, 73, 0
1, 115320, Note_on_c, 0, 77, 42
1, 115440, Tempo, 473634
1, 115440, Note_on_c, 0, 77, 0
1, 115440, Note_on_c, 0, 82, 44
1, 115560, Note_on_c, 0, 82, 0
1, 115560, Note_on_c, 0, 76, 38
1, 115680, Note_on_c, 0, 76, 0
1, 115680, Note_on_c, 0, 73, 37
1, 115800, Note_on_c, 0, 73, 0
1, 115800, Note_on_c, 0, 77, 41
1, 115920, Tempo, 485751
1, 115920, Note_on_c, 0, 77, 0
1, 115920, Note_on_c, 0, 82, 36
1, 116040, Note_on_c, 0, 82, 0
1, 116040, Note_on_c, 0, 76, 37
1, 116160, Tempo, 475323
1, 116160, Note_on_c, 0, 76, 0
1, 116160, Note_on_c, 0, 73, 44
1, 116280, Note_on_c, 0, 73, 0
1, 116280, Note_on_c, 0, 77, 40
1, 116400, Note_on_c, 0, 77, 0
1, 116400, Note_on_c, 0, 82, 41
1, 116520, Note_on_c, 0, 82, 0
1, 116520, Note_on_c, 0, 76, 37
1, 116640, Note_on_c, 0, 76, 0
1, 116640, Note_on_c, 0, 73, 35
1, 116760, Note_on_c, 0, 73, 0
1, 116760, Note_on_c, 0, 77, 39
1, 116880, Note_on_c, 0, 77, 0
1, 116880, Note_on_c, 0, 82, 35
1, 117000, Note_on_c, 0, 82, 0
1, 117000, Note_on_c, 0, 76, 36
1, 117120, Tempo, 485751
1, 117120, Note_on_c, 0, 76, 0
1, 117120, Note_on_c, 0, 70, 0
1, 117120, Note_on_c, 0, 73, 47
1, 117120, Control_c, 0, 64, 0
1, 117212, Control_c, 0, 64, 127
1, 117240, Note_on_c, 0, 73, 0
1, 117240, Note_on_c, 0, 77, 37
1, 117360, Tempo, 473634
1, 117360, Note_on_c, 0, 77, 0
1, 117360, Note_on_c, 0, 81, 39
1, 117480, Note_on_c, 0, 81, 0
1, 117480, Note_on_c, 0, 76, 34
1, 117600, Note_on_c, 0, 76, 0
1, 117600, Note_on_c, 0, 73, 33
1, 117720, Note_on_c, 0, 73, 0
1, 117720, Note_on_c, 0, 77, 37
1, 117840, Tempo, 485751
1, 117840, Note_on_c, 0, 77, 0
1, 117840, Note_on_c, 0, 81, 33
1, 117960, Note_on_c, 0, 81, 0
1, 117960, Note_on_c, 0, 76, 34
1, 118080, Tempo, 475323
1, 118080, Note_on_c, 0, 76, 0
1, 118080, Note_on_c, 0, 73, 40
1, 118098, Control_c, 0, 64, 0
1, 118160, Control_c, 0, 64, 127
1, 118200, Note_on_c, 0, 73, 0
1, 118200, Note_on_c, 0, 77, 37
1, 118320, Note_on_c, 0, 77, 0
1, 118320, Note_on_c, 0, 79, 38
1, 118440, Note_on_c, 0, 79, 0
1, 118440, Note_on_c, 0, 76, 34
1, 118560, Note_on_c, 0, 76, 0
1, 118560, Note_on_c, 0, 73, 33
1, 118680, Note_on_c, 0, 73, 0
1, 118680, Note_on_c, 0, 77, 37
1, 118800, Note_on_c, 0, 77, 0
1, 118800, Note_on_c, 0, 79, 33
1, 118920, Note_on_c, 0, 79, 0
1, 118920, Note_on_c, 0, 76, 34
1, 119040, Tempo, 485751
1, 119040, Note_on_c, 0, 76, 0
1, 119040, Note_on_c, 0, 70, 46
1, 119040, Note_on_c, 0, 73, 54
1, 119040, Control_c, 0, 64, 0
1, 119126, Control_c, 0, 64, 127
1, 119160, Note_on_c, 0, 73, 0
1, 119160, Note_on_c, 0, 77, 42
1, 119280, Tempo, 473634
1, 119280, Note_on_c, 0, 77, 0
1, 119280, Note_on_c, 0, 82, 44
1, 119400, Note_on_c, 0, 82, 0
1, 119400, Note_on_c, 0, 76, 38
1, 119520, Note_on_c, 0, 76, 0
1, 119520, Note_on_c, 0, 73, 36
1, 119640, Note_on_c, 0, 73, 0
1, 119640, Note_on_c, 0, 77, 41
1, 119760, Tempo, 494764
1, 119760, Note_on_c, 0, 77, 0
1, 119760, Note_on_c, 0, 82, 36
1, 119880, Tempo, 594413
1, 119880, Note_on_c, 0, 82, 0
1, 119880, Note_on_c, 0, 76, 37
1, 120000, Tempo, 492935
1, 120000, Note_on_c, 0, 76, 0
1, 120000, Note_on_c, 0, 70, 0
1, 120000, Note_on_c, 0, 67, 43
1, 120000, Note_on_c, 0, 70, 43
1, 120011, Control_c, 0, 64, 0
1, 120027, Tempo, 475323
1, 120120, Note_on_c, 0, 70, 0
1, 120120, Note_on_c, 0, 75, 39
1, 120123, Tempo, 477023
1, 120132, Control_c, 0, 64, 127
1, 120219, Tempo, 478736
1, 120240, Note_on_c, 0, 75, 0
1, 120240, Note_on_c, 0, 79, 40
1, 120315, Tempo, 480461
1, 120360, Note_on_c, 0, 79, 0
1, 120360, Note_on_c, 0, 73, 35
1, 120411, Tempo, 482199
1, 120480, Note_on_c, 0, 73, 0
1, 120480, Note_on_c, 0, 70, 34
1, 120483, Tempo, 483949
1, 120579, Tempo, 485751
1, 120600, Note_on_c, 0, 70, 0
1, 120600, Note_on_c, 0, 75, 38
1, 120720, Tempo, 506073
1, 120720, Note_on_c, 0, 75, 0
1, 120720, Note_on_c, 0, 79, 33
1, 120840, Tempo, 591716
1, 120840, Note_on_c, 0, 79, 0
1, 120840, Note_on_c, 0, 73, 34
1, 120960, Tempo, 485751
1, 120960, Note_on_c, 0, 73, 0
1, 120960, Note_on_c, 0, 67, 0
1, 120960, Note_on_c, 0, 64, 46
1, 120960, Note_on_c, 0, 67, 54
1, 120960, Control_c, 0, 64, 0
1, 121046, Control_c, 0, 64, 127
1, 121080, Note_on_c, 0, 67, 0
1, 121080, Note_on_c, 0, 72, 42
1, 121200, Tempo, 473634
1, 121200, Note_on_c, 0, 72, 0
1, 121200, Note_on_c, 0, 76, 44
1, 121320, Note_on_c, 0, 76, 0
1, 121320, Note_on_c, 0, 70, 38
1, 121440, Note_on_c, 0, 70, 0
1, 121440, Note_on_c, 0, 67, 36
1, 121560, Note_on_c, 0, 67, 0
1, 121560, Note_on_c, 0, 72, 41
1, 121680, Tempo, 494764
1, 121680, Note_on_c, 0, 72, 0
1, 121680, Note_on_c, 0, 76, 36
1, 121800, Tempo, 594413
1, 121800, Note_on_c, 0, 76, 0
1, 121800, Note_on_c, 0, 70, 37
1, 121920, Tempo, 492935
1, 121920, Note_on_c, 0, 70, 0
1, 121920, Note_on_c, 0, 64, 0
1, 121920, Note_on_c, 0, 61, 43
1, 121920, Note_on_c, 0, 64, 43
1, 121931, Control_c, 0, 64, 0
1, 121947, Tempo, 475323
1, 122040, Note_on_c, 0, 64, 0
1, 122040, Note_on_c, 0, 69, 39
1, 122043, Tempo, 477023
1, 122052, Control_c, 0, 64, 127
1, 122139, Tempo, 478736
1, 122160, Note_on_c, 0, 69, 0
1, 122160, Note_on_c, 0, 73, 40
1, 122235, Tempo, 480461
1, 122280, Note_on_c, 0, 73, 0
1, 122280, Note_on_c, 0, 67, 35
1, 122331, Tempo, 482199
1, 122400, Note_on_c, 0, 67, 0
1, 122400, Note_on_c, 0, 64, 34
1, 122403, Tempo, 483949
1, 122499, Tempo, 485751
1, 122520, Note_on_c, 0, 64, 0
1, 122520, Note_on_c, 0, 69, 38
1, 122640, Tempo, 508044
1, 122640, Note_on_c, 0, 69, 0
1, 122640, Note_on_c, 0, 73, 33
1, 122760, Tempo, 589102
1, 122760, Note_on_c, 0, 73, 0
1, 122760, Note_on_c, 0, 67, 34
1, 122880, Tempo, 485751
1, 122880, Note_on_c, 0, 67, 0
1, 122880, Note_on_c, 0, 61, 0
1, 122880, Note_on_c, 0, 55, 43
1, 122880, Control_c, 0, 64, 0
1, 122972, Control_c, 0, 64, 127
1, 123000, Note_on_c, 0, 63, 37
1, 123120, Tempo, 473634
1, 123120, Note_on_c, 0, 63, 0
1, 123120, Note_on_c, 0, 61, 39
1, 123240, Note_on_c, 0, 61, 0
1, 123240, Note_on_c, 0, 63, 34
1, 123360, Note_on_c, 0, 63, 0
1, 123360, Note_on_c, 0, 61, 33
1, 123480, Note_on_c, 0, 61, 0
1, 123480, Note_on_c, 0, 63, 37
1, 123600, Tempo, 485751
1, 123600, Note_on_c, 0, 63, 0
1, 123600, Note_on_c, 0, 61, 33
1, 123720, Note_on_c, 0, 61, 0
1, 123720, Note_on_c, 0, 63, 34
1, 123840, Tempo, 477023
1, 123840, Note_on_c, 0, 63, 0
1, 123840, Note_on_c, 0, 69, 46
1, 123960, Note_on_c, 0, 69, 0
1, 123960, Note_on_c, 0, 63, 37
1, 124080, Note_on_c, 0, 63, 0
1, 124080, Note_on_c, 0, 61, 38
1, 124200, Note_on_c, 0, 61, 0
1, 124200, Note_on_c, 0, 63, 34
1, 124320, Tempo, 487527
1, 124320, Note_on_c, 0, 63, 0
1, 124320, Note_on_c, 0, 67, 41
1, 124337, Control_c, 0, 64, 0
1, 124417, Control_c, 0, 64, 127
1, 124440, Note_on_c, 0, 67, 0
1, 124440, Note_on_c, 0, 64, 37
1, 124560, Note_on_c, 0, 64, 0
1, 124560, Note_on_c, 0, 61, 33
1, 124680, Note_on_c, 0, 61, 0
1, 124680, Note_on_c, 0, 64, 34
1, 124800, Tempo, 473634
1, 124800, Note_on_c, 0, 64, 0
1, 124800, Note_on_c, 0, 55, 0
1, 124800, Note_on_c, 0, 61, 40
1, 124800, Control_c, 0, 64, 0
1, 124801, Tempo, 478736
1, 124850, Control_c, 0, 64, 127
1, 124920, Note_on_c, 0, 61, 0
1, 124920, Note_on_c, 0, 55, 39
1, 125040, Note_on_c, 0, 55, 0
1, 125040, Note_on_c, 0, 61, 35
1, 125041, Tempo, 477023
1, 125160, Note_on_c, 0, 61, 0
1, 125160, Note_on_c, 0, 55, 34
1, 125280, Note_on_c, 0, 55, 0
1, 125280, Note_on_c, 0, 61, 34
1, 125281, Tempo, 475323
1, 125400, Note_on_c, 0, 61, 0
1, 125400, Note_on_c, 0, 55, 33
1, 125520, Note_on_c, 0, 55, 0
1, 125520, Note_on_c, 0, 61, 33
1, 125521, Tempo, 473634
1, 125640, Note_on_c, 0, 61, 0
1, 125640, Note_on_c, 0, 55, 33
1, 125760, Note_on_c, 0, 55, 0
1, 125760, Note_on_c, 0, 61, 33
1, 125761, Tempo, 471921
1, 125880, Note_on_c, 0, 61, 0
1, 125880, Note_on_c, 0, 55, 32
1, 126000, Note_on_c, 0, 55, 0
1, 126000, Note_on_c, 0, 61, 31
1, 126120, Note_on_c, 0, 61, 0
1, 126120, Note_on_c, 0, 55, 30
1, 126240, Note_on_c, 0, 55, 0
1, 126240, Note_on_c, 0, 61, 30
1, 126360, Note_on_c, 0, 61, 0
1, 126360, Note_on_c, 0, 55, 30
1, 126480, Note_on_c, 0, 55, 0
1, 126480, Note_on_c, 0, 61, 30
1, 126600, Note_on_c, 0, 61, 0
1, 126600, Note_on_c, 0, 55, 30
1, 126690, Note_on_c, 0, 55, 0
1, 126720, Note_on_c, 0, 54, 29
1, 126840, Note_on_c, 0, 54, 0
1, 126840, Note_on_c, 0, 61, 23
1, 126960, Tempo, 478965
1, 126960, Note_on_c, 0, 61, 0
1, 126960, Note_on_c, 0, 82, 35
1, 126960, Note_on_c, 0, 54, 25
1, 126968, Control_c, 0, 64, 0
1, 127080, Note_on_c, 0, 54, 0
1, 127080, Note_on_c, 0, 82, 0
1, 127080, Note_on_c, 0, 81, 35
1, 127080, Note_on_c, 0, 61, 23
1, 127200, Tempo, 494764
1, 127200, Note_on_c, 0, 61, 0
1, 127200, Note_on_c, 0, 81, 0
1, 127200, Note_on_c, 0, 82, 40
1, 127200, Note_on_c, 0, 54, 29
1, 127320, Note_on_c, 0, 54, 0
1, 127320, Note_on_c, 0, 82, 0
1, 127320, Note_on_c, 0, 61, 23
1, 127440, Note_on_c, 0, 61, 0
1, 127440, Note_on_c, 0, 78, 37
1, 127440, Note_on_c, 0, 54, 25
1, 127560, Tempo, 492732
1, 127560, Note_on_c, 0, 54, 0
1, 127560, Note_on_c, 0, 78, 0
1, 127560, Note_on_c, 0, 82, 31
1, 127560, Note_on_c, 0, 61, 23
1, 127680, Tempo, 490717
1, 127680, Note_on_c, 0, 61, 0
1, 127680, Note_on_c, 0, 82, 0
1, 127680, Note_on_c, 0, 81, 38
1, 127680, Note_on_c, 0, 54, 29
1, 127800, Note_on_c, 0, 54, 0
1, 127800, Note_on_c, 0, 81, 0
1, 127800, Note_on_c, 0, 82, 41
1, 127800, Note_on_c, 0, 61, 23
1, 127920, Note_on_c, 0, 61, 0
1, 127920, Note_on_c, 0, 82, 0
1, 127920, Note_on_c, 0, 84, 46
1, 127920, Note_on_c, 0, 54, 25
1, 127989, Control_c, 0, 64, 127
1, 128040, Note_on_c, 0, 54, 0
1, 128040, Note_on_c, 0, 61, 23
1, 128160, Tempo, 484770
1, 128160, Note_on_c, 0, 61, 0
1, 128160, Note_on_c, 0, 54, 29
1, 128280, Note_on_c, 0, 54, 0
1, 128280, Note_on_c, 0, 61, 23
1, 128400, Note_on_c, 0, 61, 0
1, 128400, Note_on_c, 0, 54, 25
1, 128520, Note_on_c, 0, 54, 0
1, 128520, Note_on_c, 0, 84, 0
1, 128520, Note_on_c, 0, 85, 42
1, 128520, Note_on_c, 0, 61, 23
1, 128640, Tempo, 500960
1, 128640, Note_on_c, 0, 61, 0
1, 128640, Note_on_c, 0, 85, 0
1, 128640, Note_on_c, 0, 86, 51
1, 128640, Note_on_c, 0, 54, 29
1, 128640, Control_c, 0, 64, 0
1, 128732, Control_c, 0, 64, 127
1, 128760, Note_on_c, 0, 54, 0
1, 128760, Note_on_c, 0, 61, 23
1, 128880, Note_on_c, 0, 61, 0
1, 128880, Note_on_c, 0, 54, 25
1, 129000, Note_on_c, 0, 54, 0
1, 129000, Note_on_c, 0, 86, 0
1, 129000, Note_on_c, 0, 87, 51
1, 129000, Note_on_c, 0, 61, 23
1, 129120, Note_on_c, 0, 61, 0
1, 129120, Note_on_c, 0, 87, 0
1, 129120, Note_on_c, 0, 88, 57
1, 129120, Note_on_c, 0, 66, 29
1, 129132, Control_c, 0, 64, 0
1, 129189, Control_c, 0, 64, 127
1, 129240, Note_on_c, 0, 66, 0
1, 129240, Note_on_c, 0, 73, 23
1, 129360, Tempo, 492732
1, 129360, Note_on_c, 0, 73, 0
1, 129360, Note_on_c, 0, 66, 25
1, 129480, Note_on_c, 0, 66, 0
1, 129480, Note_on_c, 0, 73, 23
1, 129600, Note_on_c, 0, 73, 0
1, 129600, Note_on_c, 0, 66, 36
1, 129629, Control_c, 0, 64, 0
1, 129840, Tempo, 500960
1, 129840, Note_on_c, 0, 66, 0
1, 129960, Note_on_c, 0, 88, 0
1, 129960, Note_on_c, 0, 89, 49
1, 130080, Tempo, 518269
1, 130080, Note_on_c, 0, 89, 0
1, 130080, Note_on_c, 0, 90, 57
1, 130440, Tempo, 659268
1, 130440, Note_on_c, 0, 90, 0
1, 130440, Note_on_c, 0, 92, 46
1, 130560, Tempo, 498504
1, 130560, Note_on_c, 0, 92, 0
1, 130560, Note_on_c, 0, 93, 32
1, 130623, Control_c, 0, 64, 127
1, 130680, Tempo, 488719
1, 130680, Note_on_c, 0, 93, 0
1, 130680, Note_on_c, 0, 94, 27
1, 130800, Tempo, 502260
1, 130800, Note_on_c, 0, 94, 0
1, 130800, Note_on_c, 0, 93, 32
1, 130920, Tempo, 488719
1, 130920, Note_on_c, 0, 93, 0
1, 130920, Note_on_c, 0, 94, 28
1, 131040, Tempo, 496648
1, 131040, Note_on_c, 0, 94, 0
1, 131040, Note_on_c, 0, 93, 32
1, 131160, Tempo, 487527
1, 131160, Note_on_c, 0, 93, 0
1, 131160, Note_on_c, 0, 94, 29
1, 131280, Tempo, 494764
1, 131280, Note_on_c, 0, 94, 0
1, 131280, Note_on_c, 0, 93, 32
1, 131400, Tempo, 480885
1, 131400, Note_on_c, 0, 93, 0
1, 131400, Note_on_c, 0, 94, 28
1, 131520, Tempo, 500375
1, 131520, Note_on_c, 0, 94, 0
1, 131520, Note_on_c, 0, 93, 32
1, 131520, Note_on_c, 0, 64, 26
1, 131520, Note_on_c, 0, 62, 26
1, 131533, Control_c, 0, 64, 0
1, 131623, Control_c, 0, 64, 127
1, 131640, Tempo, 480885
1, 131640, Note_on_c, 0, 93, 0
1, 131640, Note_on_c, 0, 95, 29
1, 131760, Tempo, 496648
1, 131760, Note_on_c, 0, 95, 0
1, 131760, Note_on_c, 0, 64, 0
1, 131760, Note_on_c, 0, 93, 32
1, 131760, Note_on_c, 0, 65, 23
1, 131880, Tempo, 483949
1, 131880, Note_on_c, 0, 93, 0
1, 131880, Note_on_c, 0, 95, 28
1, 132000, Tempo, 492732
1, 132000, Note_on_c, 0, 95, 0
1, 132000, Note_on_c, 0, 65, 0
1, 132000, Note_on_c, 0, 93, 32
1, 132000, Note_on_c, 0, 67, 20
1, 132120, Tempo, 480885
1, 132120, Note_on_c, 0, 93, 0
1, 132120, Note_on_c, 0, 95, 28
1, 132240, Tempo, 486736
1, 132240, Note_on_c, 0, 95, 0
1, 132240, Note_on_c, 0, 67, 0
1, 132240, Note_on_c, 0, 93, 32
1, 132240, Note_on_c, 0, 69, 20
1, 132360, Tempo, 491119
1, 132360, Note_on_c, 0, 93, 0
1, 132360, Note_on_c, 0, 95, 28
1, 132480, Tempo, 492935
1, 132480, Note_on_c, 0, 95, 0
1, 132480, Note_on_c, 0, 69, 0
1, 132480, Note_on_c, 0, 62, 0
1, 132480, Note_on_c, 0, 93, 32
1, 132480, Control_c, 0, 64, 0
1, 132543, Control_c, 0, 64, 127
1, 132600, Tempo, 478736
1, 132600, Note_on_c, 0, 93, 0
1, 132600, Note_on_c, 0, 94, 27
1, 132720, Tempo, 491119
1, 132720, Note_on_c, 0, 94, 0
1, 132720, Note_on_c, 0, 93, 32
1, 132840, Tempo, 482199
1, 132840, Note_on_c, 0, 93, 0
1, 132840, Note_on_c, 0, 94, 28
1, 132960, Tempo, 494764
1, 132960, Note_on_c, 0, 94, 0
1, 132960, Note_on_c, 0, 93, 32
1, 133080, Tempo, 478736
1, 133080, Note_on_c, 0, 93, 0
1, 133080, Note_on_c, 0, 94, 29
1, 133200, Tempo, 477023
1, 133200, Note_on_c, 0, 94, 0
1, 133200, Note_on_c, 0, 93, 32
1, 133320, Tempo, 491119
1, 133320, Note_on_c, 0, 93, 0
1, 133320, Note_on_c, 0, 94, 28
1, 133440, Tempo, 494764
1, 133440, Note_on_c, 0, 94, 0
1, 133440, Note_on_c, 0, 93, 32
1, 133440, Note_on_c, 0, 76, 26
1, 133440, Note_on_c, 0, 74, 26
1, 133453, Control_c, 0, 64, 0
1, 133543, Control_c, 0, 64, 127
1, 133560, Tempo, 480461
1, 133560, Note_on_c, 0, 93, 0
1, 133560, Note_on_c, 0, 95, 29
1, 133680, Tempo, 489317
1, 133680, Note_on_c, 0, 95, 0
1, 133680, Note_on_c, 0, 76, 0
1, 133680, Note_on_c, 0, 93, 32
1, 133680, Note_on_c, 0, 77, 23
1, 133800, Tempo, 480461
1, 133800, Note_on_c, 0, 93, 0
1, 133800, Note_on_c, 0, 95, 28
1, 133920, Tempo, 489317
1, 133920, Note_on_c, 0, 95, 0
1, 133920, Note_on_c, 0, 77, 0
1, 133920, Note_on_c, 0, 93, 32
1, 133920, Note_on_c, 0, 79, 20
1, 134040, Tempo, 480461
1, 134040, Note_on_c, 0, 93, 0
1, 134040, Note_on_c, 0, 95, 28
1, 134160, Tempo, 492935
1, 134160, Note_on_c, 0, 95, 0
1, 134160, Note_on_c, 0, 79, 0
1, 134160, Note_on_c, 0, 93, 32
1, 134160, Note_on_c, 0, 81, 20
1, 134280, Note_on_c, 0, 93, 0
1, 134280, Note_on_c, 0, 95, 28
1, 134400, Tempo, 480461
1, 134400, Note_on_c, 0, 95, 0
1, 134400, Note_on_c, 0, 81, 0
1, 134400, Note_on_c, 0, 74, 0
1, 134400, Note_on_c, 0, 93, 32
1, 134400, Control_c, 0, 64, 0
1, 134463, Control_c, 0, 64, 127
1, 134520, Tempo, 478736
1, 134520, Note_on_c, 0, 93, 0
1, 134520, Note_on_c, 0, 94, 27
1, 134640, Tempo, 489317
1, 134640, Note_on_c, 0, 94, 0
1, 134640, Note_on_c, 0, 93, 32
1, 134760, Tempo, 489317
1, 134760, Note_on_c, 0, 93, 0
1, 134760, Note_on_c, 0, 95, 28
1, 134880, Tempo, 478736
1, 134880, Note_on_c, 0, 95, 0
1, 134880, Note_on_c, 0, 93, 32
1, 134880, Note_on_c, 0, 81, 23
1, 134880, Note_on_c, 0, 74, 23
1, 135000, Tempo, 471921
1, 135000, Note_on_c, 0, 93, 0
1, 135000, Note_on_c, 0, 94, 29
1, 135120, Tempo, 491119
1, 135120, Note_on_c, 0, 94, 0
1, 135120, Note_on_c, 0, 74, 0
1, 135120, Note_on_c, 0, 81, 0
1, 135120, Note_on_c, 0, 93, 32
1, 135240, Tempo, 471921
1, 135240, Note_on_c, 0, 93, 0
1, 135240, Note_on_c, 0, 95, 28
1, 135360, Tempo, 491119
1, 135360, Note_on_c, 0, 95, 0
1, 135360, Note_on_c, 0, 93, 32
1, 135360, Note_on_c, 0, 86, 23
1, 135480, Tempo, 478736
1, 135480, Note_on_c, 0, 93, 0
1, 135480, Note_on_c, 0, 94, 29
1, 135600, Tempo, 487527
1, 135600, Note_on_c, 0, 94, 0
1, 135600, Note_on_c, 0, 86, 0
1, 135600, Note_on_c, 0, 93, 32
1, 135720, Tempo, 477023
1, 135720, Note_on_c, 0, 93, 0
1, 135720, Note_on_c, 0, 95, 28
1, 135840, Tempo, 496648
1, 135840, Note_on_c, 0, 95, 0
1, 135840, Note_on_c, 0, 93, 32
1, 135840, Note_on_c, 0, 74, 23
1, 135840, Note_on_c, 0, 81, 23
1, 135960, Tempo, 487527
1, 135960, Note_on_c, 0, 93, 0
1, 135960, Note_on_c, 0, 94, 28
1, 136080, Tempo, 489317
1, 136080, Note_on_c, 0, 94, 0
1, 136080, Note_on_c, 0, 81, 0
1, 136080, Note_on_c, 0, 74, 0
1, 136080, Note_on_c, 0, 93, 32
1, 136200, Tempo, 492935
1, 136200, Note_on_c, 0, 93, 0
1, 136200, Note_on_c, 0, 95, 28
1, 136320, Tempo, 482199
1, 136320, Note_on_c, 0, 95, 0
1, 136320, Note_on_c, 0, 93, 32
1, 136320, Note_on_c, 0, 86, 23
1, 136440, Tempo, 483949
1, 136440, Note_on_c, 0, 93, 0
1, 136440, Note_on_c, 0, 94, 27
1, 136560, Tempo, 494764
1, 136560, Note_on_c, 0, 94, 0
1, 136560, Note_on_c, 0, 86, 0
1, 136560, Note_on_c, 0, 93, 32
1, 136680, Tempo, 482199
1, 136680, Note_on_c, 0, 93, 0
1, 136680, Note_on_c, 0, 95, 28
1, 136800, Tempo, 489317
1, 136800, Note_on_c, 0, 95, 0
1, 136800, Note_on_c, 0, 93, 32
1, 136800, Note_on_c, 0, 81, 23
1, 136800, Note_on_c, 0, 74, 23
1, 136920, Tempo, 480461
1, 136920, Note_on_c, 0, 93, 0
1, 136920, Note_on_c, 0, 94, 29
1, 137040, Tempo, 489317
1, 137040, Note_on_c, 0, 94, 0
1, 137040, Note_on_c, 0, 74, 0
1, 137040, Note_on_c, 0, 81, 0
1, 137040, Note_on_c, 0, 93, 32
1, 137160, Tempo, 478736
1, 137160, Note_on_c, 0, 93, 0
1, 137160, Note_on_c, 0, 95, 28
1, 137280, Tempo, 491119
1, 137280, Note_on_c, 0, 95, 0
1, 137280, Note_on_c, 0, 93, 32
1, 137280, Note_on_c, 0, 86, 23
1, 137400, Tempo, 482199
1, 137400, Note_on_c, 0, 93, 0
1, 137400, Note_on_c, 0, 94, 29
1, 137520, Tempo, 496648
1, 137520, Note_on_c, 0, 94, 0
1, 137520, Note_on_c, 0, 86, 0
1, 137520, Note_on_c, 0, 93, 32
1, 137640, Tempo, 492935
1, 137640, Note_on_c, 0, 93, 0
1, 137640, Note_on_c, 0, 95, 28
1, 137760, Tempo, 485751
1, 137760, Note_on_c, 0, 95, 0
1, 137760, Note_on_c, 0, 93, 32
1, 137760, Note_on_c, 0, 74, 23
1, 137760, Note_on_c, 0, 81, 23
1, 137880, Tempo, 500375
1, 137880, Note_on_c, 0, 93, 0
1, 137880, Note_on_c, 0, 94, 28
1, 138000, Tempo, 485751
1, 138000, Note_on_c, 0, 94, 0
1, 138000, Note_on_c, 0, 81, 0
1, 138000, Note_on_c, 0, 74, 0
1, 138000, Note_on_c, 0, 93, 32
1, 138120, Tempo, 545554
1, 138120, Note_on_c, 0, 93, 0
1, 138120, Note_on_c, 0, 95, 28
1, 138240, Tempo, 489317
1, 138240, Note_on_c, 0, 95, 0
1, 138240, Note_on_c, 0, 86, 23
1, 138300, Note_on_c, 0, 93, 30
1, 138360, Note_on_c, 0, 98, 36
1, 138420, Note_on_c, 0, 105, 40
1, 140160, Tempo, 489317
1, 140160, Note_on_c, 0, 105, 0
1, 140160, Note_on_c, 0, 86, 0
1, 140160, Note_on_c, 0, 93, 0
1, 140160, Note_on_c, 0, 98, 0
1, 140160, Control_c, 0, 64, 0
1, 140160, End_track
0, 0, End_of_file
