0, 0, Header, 0, 1, 480
1, 0, Start_track
1, 0, Title_t, "Debussy: Childrens Corner 3"
1, 0, Title_t, "Serenade of the Doll"
1, 0, Copyright_t, "Copyright © 2011 by Bernd Krueger"
1, 0, Text_t, "Bernd Krueger"
1, 0, Text_t, "Erstellt:  11.6.2011\012"
1, 0, Text_t, "Dauer: 2:45 Minuten\012"
1, 0, Time_signature, 3, 2, 24, 8
1, 0, Key_signature, 4, "major"
1, 0, Tempo, 450214
1, 0, Program_c, 0, 0
1, 0, Program_c, 0, 0
1, 0, Note_on_c, 0, 64, 29
1, 0, Program_c, 0, 0
1, 28, Control_c, 0, 64, 127
1, 120, Note_on_c, 0, 64, 0
1, 240, Note_on_c, 0, 64, 19
1, 240, Note_on_c, 0, 71, 23
1, 360, Note_on_c, 0, 71, 0
1, 360, Note_on_c, 0, 64, 0
1, 480, Note_on_c, 0, 64, 30
1, 600, Note_on_c, 0, 64, 0
1, 720, Note_on_c, 0, 64, 19
1, 720, Note_on_c, 0, 71, 23
1, 840, Note_on_c, 0, 71, 0
1, 840, Note_on_c, 0, 64, 0
1, 960, Note_on_c, 0, 64, 30
1, 1080, Note_on_c, 0, 64, 0
1, 1200, Note_on_c, 0, 64, 19
1, 1200, Note_on_c, 0, 71, 23
1, 1320, Note_on_c, 0, 71, 0
1, 1320, Note_on_c, 0, 64, 0
1, 1440, Tempo, 437095
1, 1440, Note_on_c, 0, 64, 29
1, 1464, Tempo, 446861
1, 1560, Note_on_c, 0, 64, 0
1, 1608, Tempo, 445203
1, 1680, Note_on_c, 0, 64, 19
1, 1680, Note_on_c, 0, 71, 23
1, 1728, Tempo, 443557
1, 1800, Note_on_c, 0, 71, 0
1, 1800, Note_on_c, 0, 64, 0
1, 1872, Tempo, 441924
1, 1920, Note_on_c, 0, 64, 30
1, 1992, Tempo, 440302
1, 2040, Note_on_c, 0, 64, 0
1, 2136, Tempo, 438693
1, 2160, Note_on_c, 0, 64, 19
1, 2160, Note_on_c, 0, 71, 23
1, 2256, Tempo, 437095
1, 2280, Note_on_c, 0, 71, 0
1, 2280, Note_on_c, 0, 64, 0
1, 2376, Tempo, 435508
1, 2400, Note_on_c, 0, 64, 30
1, 2520, Note_on_c, 0, 64, 0
1, 2640, Note_on_c, 0, 64, 19
1, 2640, Note_on_c, 0, 71, 23
1, 2760, Note_on_c, 0, 71, 0
1, 2760, Note_on_c, 0, 64, 0
1, 2880, Tempo, 433934
1, 2880, Note_on_c, 0, 64, 29
1, 2880, Control_c, 0, 64, 0
1, 2933, Control_c, 0, 64, 127
1, 3000, Note_on_c, 0, 64, 0
1, 3120, Note_on_c, 0, 64, 19
1, 3120, Note_on_c, 0, 71, 23
1, 3177, Control_c, 0, 64, 0
1, 3240, Note_on_c, 0, 71, 0
1, 3240, Note_on_c, 0, 64, 0
1, 3300, Note_on_c, 0, 63, 30
1, 3307, Control_c, 0, 64, 127
1, 3360, Tempo, 423221
1, 3360, Note_on_c, 0, 63, 0
1, 3360, Note_on_c, 0, 68, 39
1, 3480, Note_on_c, 0, 68, 0
1, 3544, Control_c, 0, 64, 0
1, 3600, Note_on_c, 0, 64, 19
1, 3600, Note_on_c, 0, 71, 23
1, 3720, Note_on_c, 0, 71, 0
1, 3720, Note_on_c, 0, 64, 0
1, 3780, Note_on_c, 0, 68, 31
1, 3784, Control_c, 0, 64, 127
1, 3840, Tempo, 437095
1, 3840, Note_on_c, 0, 68, 0
1, 3840, Note_on_c, 0, 73, 42
1, 3960, Note_on_c, 0, 73, 0
1, 4080, Note_on_c, 0, 64, 19
1, 4080, Note_on_c, 0, 71, 23
1, 4200, Note_on_c, 0, 71, 0
1, 4200, Note_on_c, 0, 64, 0
1, 4260, Note_on_c, 0, 61, 30
1, 4263, Control_c, 0, 64, 0
1, 4320, Tempo, 441924
1, 4320, Note_on_c, 0, 61, 0
1, 4320, Note_on_c, 0, 64, 29
1, 4320, Note_on_c, 0, 66, 36
1, 4430, Control_c, 0, 64, 127
1, 4440, Note_on_c, 0, 64, 0
1, 4560, Note_on_c, 0, 64, 19
1, 4560, Note_on_c, 0, 71, 23
1, 4680, Note_on_c, 0, 71, 0
1, 4680, Note_on_c, 0, 64, 0
1, 5040, Note_on_c, 0, 64, 19
1, 5040, Note_on_c, 0, 71, 23
1, 5100, Control_c, 0, 64, 0
1, 5160, Note_on_c, 0, 71, 0
1, 5160, Note_on_c, 0, 64, 0
1, 5196, Control_c, 0, 64, 127
1, 5220, Note_on_c, 0, 63, 30
1, 5280, Tempo, 432370
1, 5280, Note_on_c, 0, 63, 0
1, 5280, Note_on_c, 0, 66, 0
1, 5280, Note_on_c, 0, 68, 36
1, 5400, Note_on_c, 0, 68, 0
1, 5460, Note_on_c, 0, 68, 31
1, 5520, Note_on_c, 0, 68, 0
1, 5520, Note_on_c, 0, 64, 19
1, 5520, Note_on_c, 0, 71, 23
1, 5520, Note_on_c, 0, 73, 40
1, 5640, Note_on_c, 0, 73, 0
1, 5640, Note_on_c, 0, 71, 0
1, 5640, Note_on_c, 0, 64, 0
1, 5700, Note_on_c, 0, 61, 30
1, 5707, Control_c, 0, 64, 0
1, 5760, Tempo, 437095
1, 5760, Note_on_c, 0, 61, 0
1, 5760, Note_on_c, 0, 66, 43
1, 5813, Control_c, 0, 64, 127
1, 5880, Note_on_c, 0, 66, 0
1, 6000, Note_on_c, 0, 64, 19
1, 6000, Note_on_c, 0, 71, 23
1, 6120, Note_on_c, 0, 71, 0
1, 6120, Note_on_c, 0, 64, 0
1, 6180, Note_on_c, 0, 63, 30
1, 6187, Control_c, 0, 64, 0
1, 6240, Note_on_c, 0, 63, 0
1, 6240, Note_on_c, 0, 68, 36
1, 6244, Control_c, 0, 64, 127
1, 6360, Note_on_c, 0, 68, 0
1, 6463, Control_c, 0, 64, 0
1, 6480, Note_on_c, 0, 64, 19
1, 6480, Note_on_c, 0, 71, 23
1, 6600, Note_on_c, 0, 71, 0
1, 6600, Note_on_c, 0, 64, 0
1, 6660, Note_on_c, 0, 56, 31
1, 6664, Control_c, 0, 64, 127
1, 6720, Tempo, 450214
1, 6720, Note_on_c, 0, 56, 0
1, 6720, Note_on_c, 0, 61, 40
1, 6840, Note_on_c, 0, 61, 0
1, 6960, Note_on_c, 0, 64, 19
1, 6960, Note_on_c, 0, 71, 23
1, 7080, Note_on_c, 0, 71, 0
1, 7080, Note_on_c, 0, 64, 0
1, 7140, Note_on_c, 0, 61, 30
1, 7154, Control_c, 0, 64, 0
1, 7200, Tempo, 433934
1, 7200, Note_on_c, 0, 64, 29
1, 7200, Note_on_c, 0, 66, 36
1, 7320, Note_on_c, 0, 64, 0
1, 7380, Control_c, 0, 64, 127
1, 7440, Note_on_c, 0, 64, 19
1, 7440, Note_on_c, 0, 71, 23
1, 7560, Note_on_c, 0, 71, 0
1, 7560, Note_on_c, 0, 64, 0
1, 7920, Note_on_c, 0, 64, 19
1, 7920, Note_on_c, 0, 71, 23
1, 8040, Note_on_c, 0, 71, 0
1, 8040, Note_on_c, 0, 64, 0
1, 8400, Note_on_c, 0, 64, 19
1, 8400, Note_on_c, 0, 71, 23
1, 8520, Note_on_c, 0, 71, 0
1, 8520, Note_on_c, 0, 64, 0
1, 8580, Note_on_c, 0, 63, 30
1, 8580, Control_c, 0, 64, 0
1, 8640, Tempo, 437095
1, 8640, Note_on_c, 0, 66, 0
1, 8640, Note_on_c, 0, 61, 0
1, 8640, Note_on_c, 0, 68, 36
1, 8725, Control_c, 0, 64, 127
1, 8880, Note_on_c, 0, 71, 22
1, 8880, Note_on_c, 0, 64, 18
1, 9120, Note_on_c, 0, 64, 0
1, 9120, Note_on_c, 0, 71, 0
1, 9360, Note_on_c, 0, 71, 22
1, 9360, Note_on_c, 0, 64, 18
1, 9600, Note_on_c, 0, 64, 0
1, 9600, Note_on_c, 0, 71, 0
1, 9840, Tempo, 458821
1, 9840, Note_on_c, 0, 71, 22
1, 9840, Note_on_c, 0, 64, 18
1, 9960, Note_on_c, 0, 64, 0
1, 9960, Note_on_c, 0, 71, 0
1, 10080, Tempo, 438693
1, 10080, Note_on_c, 0, 68, 0
1, 10080, Note_on_c, 0, 63, 0
1, 10080, Note_on_c, 0, 59, 37
1, 10080, Note_on_c, 0, 40, 57
1, 10080, Control_c, 0, 64, 0
1, 10179, Control_c, 0, 64, 127
1, 10200, Note_on_c, 0, 59, 0
1, 10320, Note_on_c, 0, 71, 34
1, 10320, Note_on_c, 0, 64, 28
1, 10440, Note_on_c, 0, 64, 0
1, 10440, Note_on_c, 0, 71, 0
1, 10560, Note_on_c, 0, 40, 0
1, 10560, Note_on_c, 0, 64, 47
1, 10680, Note_on_c, 0, 64, 0
1, 10800, Note_on_c, 0, 64, 24
1, 10800, Note_on_c, 0, 71, 29
1, 10920, Note_on_c, 0, 71, 0
1, 10920, Note_on_c, 0, 64, 0
1, 11040, Note_on_c, 0, 64, 44
1, 11160, Note_on_c, 0, 64, 0
1, 11280, Note_on_c, 0, 64, 24
1, 11280, Note_on_c, 0, 71, 29
1, 11400, Note_on_c, 0, 71, 0
1, 11400, Note_on_c, 0, 64, 0
1, 11520, Tempo, 433934
1, 11520, Note_on_c, 0, 64, 37
1, 11520, Control_c, 0, 64, 0
1, 11589, Control_c, 0, 64, 127
1, 11640, Note_on_c, 0, 64, 0
1, 11760, Note_on_c, 0, 64, 24
1, 11760, Note_on_c, 0, 71, 29
1, 11880, Note_on_c, 0, 71, 0
1, 11880, Note_on_c, 0, 64, 0
1, 11940, Note_on_c, 0, 70, 38
1, 11946, Control_c, 0, 64, 0
1, 12000, Tempo, 423221
1, 12000, Note_on_c, 0, 70, 0
1, 12000, Note_on_c, 0, 75, 51
1, 12017, Control_c, 0, 64, 127
1, 12120, Note_on_c, 0, 75, 0
1, 12240, Note_on_c, 0, 64, 24
1, 12240, Note_on_c, 0, 71, 29
1, 12360, Note_on_c, 0, 71, 0
1, 12360, Note_on_c, 0, 64, 0
1, 12420, Note_on_c, 0, 75, 39
1, 12443, Control_c, 0, 64, 0
1, 12480, Tempo, 437095
1, 12480, Note_on_c, 0, 75, 0
1, 12480, Note_on_c, 0, 80, 54
1, 12509, Control_c, 0, 64, 127
1, 12600, Note_on_c, 0, 80, 0
1, 12720, Note_on_c, 0, 64, 24
1, 12720, Note_on_c, 0, 71, 29
1, 12840, Note_on_c, 0, 71, 0
1, 12840, Note_on_c, 0, 64, 0
1, 12900, Note_on_c, 0, 68, 38
1, 12915, Control_c, 0, 64, 0
1, 12960, Tempo, 441924
1, 12960, Note_on_c, 0, 68, 0
1, 12960, Note_on_c, 0, 73, 53
1, 12960, Control_c, 0, 64, 127
1, 13200, Note_on_c, 0, 64, 24
1, 13200, Note_on_c, 0, 71, 29
1, 13320, Note_on_c, 0, 71, 0
1, 13320, Note_on_c, 0, 64, 0
1, 13680, Note_on_c, 0, 64, 24
1, 13680, Note_on_c, 0, 71, 29
1, 13800, Note_on_c, 0, 71, 0
1, 13800, Note_on_c, 0, 64, 0
1, 13860, Note_on_c, 0, 70, 38
1, 13865, Control_c, 0, 64, 0
1, 13920, Tempo, 432370
1, 13920, Note_on_c, 0, 70, 0
1, 13920, Note_on_c, 0, 73, 0
1, 13920, Note_on_c, 0, 75, 51
1, 13929, Control_c, 0, 64, 127
1, 14040, Note_on_c, 0, 75, 0
1, 14100, Note_on_c, 0, 63, 31
1, 14103, Control_c, 0, 64, 0
1, 14160, Note_on_c, 0, 63, 0
1, 14160, Note_on_c, 0, 68, 43
1, 14160, Note_on_c, 0, 64, 24
1, 14160, Note_on_c, 0, 71, 29
1, 14160, Control_c, 0, 64, 127
1, 14280, Note_on_c, 0, 71, 0
1, 14280, Note_on_c, 0, 64, 0
1, 14280, Note_on_c, 0, 68, 0
1, 14340, Note_on_c, 0, 68, 38
1, 14346, Control_c, 0, 64, 0
1, 14400, Tempo, 433934
1, 14400, Note_on_c, 0, 68, 0
1, 14400, Note_on_c, 0, 73, 53
1, 14426, Control_c, 0, 64, 127
1, 14520, Note_on_c, 0, 73, 0
1, 14640, Note_on_c, 0, 64, 25
1, 14640, Note_on_c, 0, 71, 30
1, 14760, Note_on_c, 0, 71, 0
1, 14760, Note_on_c, 0, 64, 0
1, 14820, Note_on_c, 0, 70, 40
1, 14826, Control_c, 0, 64, 0
1, 14880, Tempo, 423221
1, 14880, Note_on_c, 0, 70, 0
1, 14880, Note_on_c, 0, 75, 55
1, 14897, Control_c, 0, 64, 127
1, 15000, Note_on_c, 0, 75, 0
1, 15120, Note_on_c, 0, 64, 27
1, 15120, Note_on_c, 0, 71, 32
1, 15240, Note_on_c, 0, 71, 0
1, 15240, Note_on_c, 0, 64, 0
1, 15300, Note_on_c, 0, 75, 45
1, 15323, Control_c, 0, 64, 0
1, 15360, Tempo, 437095
1, 15360, Note_on_c, 0, 75, 0
1, 15360, Note_on_c, 0, 80, 59
1, 15383, Control_c, 0, 64, 127
1, 15480, Note_on_c, 0, 80, 0
1, 15600, Note_on_c, 0, 64, 29
1, 15600, Note_on_c, 0, 71, 35
1, 15720, Note_on_c, 0, 71, 0
1, 15720, Note_on_c, 0, 64, 0
1, 15780, Note_on_c, 0, 68, 47
1, 15795, Control_c, 0, 64, 0
1, 15840, Tempo, 441924
1, 15840, Note_on_c, 0, 68, 0
1, 15840, Note_on_c, 0, 73, 57
1, 15840, Control_c, 0, 64, 127
1, 16080, Note_on_c, 0, 64, 28
1, 16080, Note_on_c, 0, 71, 34
1, 16200, Note_on_c, 0, 71, 0
1, 16200, Note_on_c, 0, 64, 0
1, 16560, Note_on_c, 0, 64, 27
1, 16560, Note_on_c, 0, 71, 32
1, 16680, Note_on_c, 0, 71, 0
1, 16680, Note_on_c, 0, 64, 0
1, 16740, Note_on_c, 0, 63, 42
1, 16745, Control_c, 0, 64, 0
1, 16800, Tempo, 432370
1, 16800, Note_on_c, 0, 73, 0
1, 16800, Note_on_c, 0, 68, 49
1, 16809, Control_c, 0, 64, 127
1, 17000, Control_c, 0, 64, 0
1, 17035, Control_c, 0, 64, 127
1, 17040, Note_on_c, 0, 64, 24
1, 17040, Note_on_c, 0, 71, 29
1, 17160, Note_on_c, 0, 71, 0
1, 17160, Note_on_c, 0, 63, 0
1, 17160, Note_on_c, 0, 68, 0
1, 17160, Note_on_c, 0, 64, 0
1, 17220, Tempo, 437095
1, 17220, Note_on_c, 0, 61, 51
1, 17235, Control_c, 0, 64, 0
1, 17280, Tempo, 455339
1, 17280, Note_on_c, 0, 66, 62
1, 17280, Control_c, 0, 64, 127
1, 17520, Note_on_c, 0, 64, 31
1, 17520, Note_on_c, 0, 71, 37
1, 17640, Note_on_c, 0, 71, 0
1, 17640, Note_on_c, 0, 61, 0
1, 17640, Note_on_c, 0, 66, 0
1, 17640, Note_on_c, 0, 64, 0
1, 17700, Note_on_c, 0, 63, 39
1, 17702, Control_c, 0, 64, 0
1, 17760, Tempo, 438693
1, 17760, Note_on_c, 0, 68, 46
1, 17764, Control_c, 0, 64, 127
1, 18000, Note_on_c, 0, 64, 24
1, 18000, Note_on_c, 0, 71, 29
1, 18120, Note_on_c, 0, 71, 0
1, 18120, Note_on_c, 0, 64, 0
1, 18240, Tempo, 432370
1, 18480, Note_on_c, 0, 64, 21
1, 18480, Note_on_c, 0, 71, 25
1, 18600, Note_on_c, 0, 71, 0
1, 18600, Note_on_c, 0, 64, 0
1, 18660, Note_on_c, 0, 47, 49
1, 18671, Control_c, 0, 64, 0
1, 18720, Tempo, 438693
1, 18720, Note_on_c, 0, 68, 0
1, 18720, Note_on_c, 0, 63, 0
1, 18720, Note_on_c, 0, 59, 37
1, 18720, Note_on_c, 0, 54, 57
1, 18819, Control_c, 0, 64, 127
1, 18840, Note_on_c, 0, 59, 0
1, 18960, Note_on_c, 0, 54, 0
1, 18960, Note_on_c, 0, 71, 34
1, 18960, Note_on_c, 0, 66, 28
1, 19060, Note_on_c, 0, 47, 0
1, 19080, Note_on_c, 0, 66, 0
1, 19080, Note_on_c, 0, 71, 0
1, 19200, Note_on_c, 0, 59, 47
1, 19320, Note_on_c, 0, 59, 0
1, 19440, Note_on_c, 0, 59, 24
1, 19440, Note_on_c, 0, 66, 24
1, 19440, Note_on_c, 0, 71, 29
1, 19560, Note_on_c, 0, 71, 0
1, 19560, Note_on_c, 0, 66, 0
1, 19560, Note_on_c, 0, 59, 0
1, 19680, Note_on_c, 0, 59, 44
1, 19800, Note_on_c, 0, 59, 0
1, 19920, Note_on_c, 0, 59, 24
1, 19920, Note_on_c, 0, 66, 24
1, 19920, Note_on_c, 0, 71, 29
1, 20040, Note_on_c, 0, 71, 0
1, 20040, Note_on_c, 0, 66, 0
1, 20040, Note_on_c, 0, 59, 0
1, 20160, Note_on_c, 0, 59, 47
1, 20160, Control_c, 0, 64, 0
1, 20249, Control_c, 0, 64, 127
1, 20400, Note_on_c, 0, 59, 0
1, 20400, Note_on_c, 0, 59, 24
1, 20400, Note_on_c, 0, 66, 24
1, 20400, Note_on_c, 0, 71, 29
1, 20520, Note_on_c, 0, 71, 0
1, 20520, Note_on_c, 0, 66, 0
1, 20520, Note_on_c, 0, 59, 0
1, 20640, Tempo, 433934
1, 20640, Note_on_c, 0, 61, 45
1, 20653, Control_c, 0, 64, 0
1, 20729, Control_c, 0, 64, 127
1, 20880, Note_on_c, 0, 61, 0
1, 20880, Note_on_c, 0, 71, 29
1, 20880, Note_on_c, 0, 61, 24
1, 20880, Note_on_c, 0, 66, 24
1, 21000, Note_on_c, 0, 66, 0
1, 21000, Note_on_c, 0, 61, 0
1, 21000, Note_on_c, 0, 71, 0
1, 21120, Note_on_c, 0, 64, 45
1, 21127, Control_c, 0, 64, 0
1, 21202, Control_c, 0, 64, 127
1, 21360, Tempo, 457073
1, 21360, Note_on_c, 0, 64, 0
1, 21360, Note_on_c, 0, 64, 24
1, 21360, Note_on_c, 0, 66, 24
1, 21360, Note_on_c, 0, 71, 29
1, 21480, Note_on_c, 0, 71, 0
1, 21480, Note_on_c, 0, 66, 0
1, 21480, Note_on_c, 0, 64, 0
1, 21600, Tempo, 433934
1, 21600, Note_on_c, 0, 63, 47
1, 21600, Control_c, 0, 64, 0
1, 21686, Control_c, 0, 64, 127
1, 21780, Note_on_c, 0, 63, 0
1, 21840, Note_on_c, 0, 63, 24
1, 21840, Note_on_c, 0, 66, 24
1, 21840, Note_on_c, 0, 71, 29
1, 21960, Note_on_c, 0, 71, 0
1, 21960, Note_on_c, 0, 66, 0
1, 21960, Note_on_c, 0, 63, 0
1, 22320, Note_on_c, 0, 71, 29
1, 22320, Note_on_c, 0, 63, 24
1, 22320, Note_on_c, 0, 66, 24
1, 22440, Note_on_c, 0, 66, 0
1, 22440, Note_on_c, 0, 63, 0
1, 22440, Note_on_c, 0, 71, 0
1, 22560, Note_on_c, 0, 62, 41
1, 22578, Control_c, 0, 64, 0
1, 22657, Control_c, 0, 64, 127
1, 22740, Note_on_c, 0, 62, 0
1, 22800, Tempo, 453618
1, 22800, Note_on_c, 0, 62, 24
1, 22800, Note_on_c, 0, 66, 24
1, 22800, Note_on_c, 0, 71, 29
1, 22920, Note_on_c, 0, 71, 0
1, 22920, Note_on_c, 0, 66, 0
1, 22920, Note_on_c, 0, 62, 0
1, 23040, Tempo, 433934
1, 23040, Note_on_c, 0, 61, 47
1, 23040, Note_on_c, 0, 56, 47
1, 23094, Control_c, 0, 64, 0
1, 23181, Control_c, 0, 64, 127
1, 23220, Note_on_c, 0, 61, 0
1, 23280, Note_on_c, 0, 61, 24
1, 23280, Note_on_c, 0, 66, 24
1, 23280, Note_on_c, 0, 71, 29
1, 23400, Note_on_c, 0, 71, 0
1, 23400, Note_on_c, 0, 66, 0
1, 23400, Note_on_c, 0, 61, 0
1, 23520, Note_on_c, 0, 61, 30
1, 23700, Note_on_c, 0, 61, 0
1, 23760, Note_on_c, 0, 61, 24
1, 23760, Note_on_c, 0, 66, 24
1, 23760, Note_on_c, 0, 71, 29
1, 23880, Note_on_c, 0, 71, 0
1, 23880, Note_on_c, 0, 66, 0
1, 23880, Note_on_c, 0, 61, 0
1, 24000, Note_on_c, 0, 61, 30
1, 24180, Note_on_c, 0, 61, 0
1, 24240, Note_on_c, 0, 61, 24
1, 24240, Note_on_c, 0, 66, 24
1, 24240, Note_on_c, 0, 71, 29
1, 24360, Note_on_c, 0, 71, 0
1, 24360, Note_on_c, 0, 66, 0
1, 24360, Note_on_c, 0, 61, 0
1, 24480, Note_on_c, 0, 61, 30
1, 24480, Control_c, 0, 64, 0
1, 24600, Control_c, 0, 64, 127
1, 24660, Note_on_c, 0, 61, 0
1, 24720, Note_on_c, 0, 61, 24
1, 24720, Note_on_c, 0, 66, 24
1, 24720, Note_on_c, 0, 71, 29
1, 24840, Note_on_c, 0, 71, 0
1, 24840, Note_on_c, 0, 66, 0
1, 24840, Note_on_c, 0, 61, 0
1, 24960, Tempo, 424719
1, 24960, Note_on_c, 0, 63, 50
1, 24968, Control_c, 0, 64, 0
1, 25059, Control_c, 0, 64, 127
1, 25140, Note_on_c, 0, 63, 0
1, 25200, Note_on_c, 0, 63, 24
1, 25200, Note_on_c, 0, 66, 24
1, 25200, Note_on_c, 0, 71, 29
1, 25320, Note_on_c, 0, 71, 0
1, 25320, Note_on_c, 0, 66, 0
1, 25320, Note_on_c, 0, 63, 0
1, 25440, Tempo, 435508
1, 25440, Note_on_c, 0, 66, 50
1, 25457, Control_c, 0, 64, 0
1, 25588, Control_c, 0, 64, 127
1, 25620, Note_on_c, 0, 66, 0
1, 25680, Note_on_c, 0, 66, 24
1, 25680, Note_on_c, 0, 71, 29
1, 25800, Note_on_c, 0, 71, 0
1, 25800, Note_on_c, 0, 66, 0
1, 25920, Tempo, 433934
1, 25920, Note_on_c, 0, 56, 0
1, 25920, Note_on_c, 0, 65, 47
1, 25920, Control_c, 0, 64, 0
1, 26061, Control_c, 0, 64, 127
1, 26160, Note_on_c, 0, 68, 24
1, 26160, Note_on_c, 0, 71, 29
1, 26280, Note_on_c, 0, 71, 0
1, 26280, Note_on_c, 0, 68, 0
1, 26640, Note_on_c, 0, 71, 29
1, 26640, Note_on_c, 0, 68, 24
1, 26760, Note_on_c, 0, 68, 0
1, 26760, Note_on_c, 0, 71, 0
1, 26880, Note_on_c, 0, 65, 0
1, 26880, Note_on_c, 0, 64, 41
1, 26898, Control_c, 0, 64, 0
1, 26977, Control_c, 0, 64, 127
1, 27120, Tempo, 453618
1, 27120, Note_on_c, 0, 64, 0
1, 27120, Note_on_c, 0, 68, 24
1, 27120, Note_on_c, 0, 71, 29
1, 27240, Note_on_c, 0, 71, 0
1, 27240, Note_on_c, 0, 68, 0
1, 27360, Tempo, 426227
1, 27360, Note_on_c, 0, 63, 47
1, 27360, Note_on_c, 0, 56, 47
1, 27414, Control_c, 0, 64, 0
1, 27501, Control_c, 0, 64, 127
1, 27540, Note_on_c, 0, 63, 0
1, 27600, Note_on_c, 0, 63, 24
1, 27600, Note_on_c, 0, 68, 24
1, 27600, Note_on_c, 0, 71, 29
1, 27720, Note_on_c, 0, 71, 0
1, 27720, Note_on_c, 0, 68, 0
1, 27720, Note_on_c, 0, 63, 0
1, 27840, Tempo, 432370
1, 28080, Note_on_c, 0, 63, 24
1, 28080, Note_on_c, 0, 68, 24
1, 28080, Note_on_c, 0, 71, 29
1, 28200, Note_on_c, 0, 71, 0
1, 28200, Note_on_c, 0, 68, 0
1, 28200, Note_on_c, 0, 63, 0
1, 28320, Note_on_c, 0, 61, 46
1, 28560, Note_on_c, 0, 61, 0
1, 28560, Note_on_c, 0, 63, 25
1, 28560, Note_on_c, 0, 68, 25
1, 28560, Note_on_c, 0, 71, 30
1, 28680, Note_on_c, 0, 71, 0
1, 28680, Note_on_c, 0, 68, 0
1, 28680, Note_on_c, 0, 63, 0
1, 28800, Tempo, 426227
1, 28800, Note_on_c, 0, 65, 31
1, 28800, Control_c, 0, 64, 0
1, 28920, Control_c, 0, 64, 127
1, 28980, Note_on_c, 0, 65, 0
1, 29040, Note_on_c, 0, 65, 25
1, 29040, Note_on_c, 0, 68, 25
1, 29040, Note_on_c, 0, 71, 30
1, 29160, Note_on_c, 0, 71, 0
1, 29160, Note_on_c, 0, 68, 0
1, 29160, Note_on_c, 0, 65, 0
1, 29280, Tempo, 432370
1, 29280, Note_on_c, 0, 61, 47
1, 29288, Control_c, 0, 64, 0
1, 29379, Control_c, 0, 64, 127
1, 29520, Note_on_c, 0, 61, 0
1, 29520, Note_on_c, 0, 65, 26
1, 29520, Note_on_c, 0, 68, 26
1, 29520, Note_on_c, 0, 71, 31
1, 29640, Note_on_c, 0, 71, 0
1, 29640, Note_on_c, 0, 68, 0
1, 29640, Note_on_c, 0, 65, 0
1, 29760, Note_on_c, 0, 65, 48
1, 29777, Control_c, 0, 64, 0
1, 29908, Control_c, 0, 64, 127
1, 29940, Note_on_c, 0, 65, 0
1, 30000, Tempo, 453618
1, 30000, Note_on_c, 0, 65, 26
1, 30000, Note_on_c, 0, 68, 26
1, 30000, Note_on_c, 0, 71, 31
1, 30120, Note_on_c, 0, 71, 0
1, 30120, Note_on_c, 0, 68, 0
1, 30120, Note_on_c, 0, 65, 0
1, 30240, Tempo, 426227
1, 30240, Note_on_c, 0, 56, 0
1, 30240, Note_on_c, 0, 63, 51
1, 30240, Note_on_c, 0, 56, 51
1, 30294, Control_c, 0, 64, 0
1, 30381, Control_c, 0, 64, 127
1, 30420, Note_on_c, 0, 63, 0
1, 30480, Note_on_c, 0, 63, 27
1, 30480, Note_on_c, 0, 68, 27
1, 30480, Note_on_c, 0, 71, 32
1, 30600, Note_on_c, 0, 71, 0
1, 30600, Note_on_c, 0, 68, 0
1, 30600, Note_on_c, 0, 63, 0
1, 30720, Tempo, 430818
1, 30960, Note_on_c, 0, 63, 27
1, 30960, Note_on_c, 0, 68, 27
1, 30960, Note_on_c, 0, 71, 32
1, 31080, Note_on_c, 0, 71, 0
1, 31080, Note_on_c, 0, 68, 0
1, 31080, Note_on_c, 0, 63, 0
1, 31200, Note_on_c, 0, 61, 53
1, 31440, Tempo, 446861
1, 31440, Note_on_c, 0, 61, 0
1, 31440, Note_on_c, 0, 63, 28
1, 31440, Note_on_c, 0, 68, 28
1, 31440, Note_on_c, 0, 71, 33
1, 31560, Note_on_c, 0, 71, 0
1, 31560, Note_on_c, 0, 68, 0
1, 31560, Note_on_c, 0, 63, 0
1, 31680, Tempo, 430818
1, 31680, Note_on_c, 0, 65, 35
1, 31680, Control_c, 0, 64, 0
1, 31800, Control_c, 0, 64, 127
1, 31860, Note_on_c, 0, 65, 0
1, 31920, Note_on_c, 0, 65, 28
1, 31920, Note_on_c, 0, 68, 28
1, 31920, Note_on_c, 0, 71, 34
1, 32040, Note_on_c, 0, 71, 0
1, 32040, Note_on_c, 0, 68, 0
1, 32040, Note_on_c, 0, 65, 0
1, 32160, Tempo, 437095
1, 32160, Note_on_c, 0, 61, 54
1, 32168, Control_c, 0, 64, 0
1, 32259, Control_c, 0, 64, 127
1, 32400, Note_on_c, 0, 61, 0
1, 32400, Note_on_c, 0, 65, 29
1, 32400, Note_on_c, 0, 68, 29
1, 32400, Note_on_c, 0, 71, 35
1, 32520, Note_on_c, 0, 71, 0
1, 32520, Note_on_c, 0, 68, 0
1, 32520, Note_on_c, 0, 65, 0
1, 32640, Tempo, 443557
1, 32640, Note_on_c, 0, 65, 54
1, 32657, Control_c, 0, 64, 0
1, 32788, Control_c, 0, 64, 127
1, 32820, Note_on_c, 0, 65, 0
1, 32880, Tempo, 475172
1, 32880, Note_on_c, 0, 65, 29
1, 32880, Note_on_c, 0, 68, 29
1, 32880, Note_on_c, 0, 71, 35
1, 33000, Note_on_c, 0, 71, 0
1, 33000, Note_on_c, 0, 68, 0
1, 33000, Note_on_c, 0, 65, 0
1, 33120, Tempo, 426227
1, 33120, Note_on_c, 0, 56, 0
1, 33120, Note_on_c, 0, 68, 57
1, 33120, Control_c, 0, 64, 0
1, 33247, Control_c, 0, 64, 127
1, 33360, Note_on_c, 0, 71, 41
1, 33360, Note_on_c, 0, 68, 34
1, 33480, Note_on_c, 0, 68, 0
1, 33480, Note_on_c, 0, 71, 0
1, 33600, Tempo, 432370
1, 33840, Note_on_c, 0, 68, 34
1, 33840, Note_on_c, 0, 71, 40
1, 33960, Note_on_c, 0, 71, 0
1, 33960, Note_on_c, 0, 68, 0
1, 34080, Note_on_c, 0, 68, 0
1, 34080, Note_on_c, 0, 67, 49
1, 34092, Control_c, 0, 64, 0
1, 34193, Control_c, 0, 64, 127
1, 34320, Tempo, 446861
1, 34320, Note_on_c, 0, 68, 34
1, 34320, Note_on_c, 0, 71, 40
1, 34440, Note_on_c, 0, 71, 0
1, 34440, Note_on_c, 0, 68, 0
1, 34560, Tempo, 433934
1, 34560, Note_on_c, 0, 67, 0
1, 34560, Note_on_c, 0, 66, 50
1, 34560, Control_c, 0, 64, 0
1, 34680, Control_c, 0, 64, 127
1, 34800, Note_on_c, 0, 68, 34
1, 34800, Note_on_c, 0, 71, 40
1, 34920, Note_on_c, 0, 71, 0
1, 34920, Note_on_c, 0, 68, 0
1, 35280, Note_on_c, 0, 71, 38
1, 35280, Note_on_c, 0, 68, 32
1, 35400, Note_on_c, 0, 68, 0
1, 35400, Note_on_c, 0, 71, 0
1, 35520, Note_on_c, 0, 66, 0
1, 35520, Note_on_c, 0, 65, 46
1, 35543, Control_c, 0, 64, 0
1, 35605, Control_c, 0, 64, 127
1, 35760, Note_on_c, 0, 71, 38
1, 35760, Note_on_c, 0, 68, 32
1, 35880, Note_on_c, 0, 68, 0
1, 35880, Note_on_c, 0, 71, 0
1, 36000, Tempo, 426227
1, 36000, Note_on_c, 0, 65, 0
1, 36000, Note_on_c, 0, 68, 57
1, 36000, Control_c, 0, 64, 0
1, 36127, Control_c, 0, 64, 127
1, 36240, Tempo, 415887
1, 36240, Note_on_c, 0, 71, 41
1, 36240, Note_on_c, 0, 68, 34
1, 36360, Note_on_c, 0, 68, 0
1, 36360, Note_on_c, 0, 71, 0
1, 36480, Tempo, 432370
1, 36480, Note_on_c, 0, 75, 49
1, 36720, Note_on_c, 0, 75, 0
1, 36720, Note_on_c, 0, 68, 34
1, 36720, Note_on_c, 0, 71, 40
1, 36840, Note_on_c, 0, 71, 0
1, 36840, Note_on_c, 0, 68, 0
1, 36960, Note_on_c, 0, 68, 0
1, 36960, Note_on_c, 0, 67, 49
1, 36972, Control_c, 0, 64, 0
1, 37073, Control_c, 0, 64, 127
1, 37200, Tempo, 446861
1, 37200, Note_on_c, 0, 68, 34
1, 37200, Note_on_c, 0, 71, 40
1, 37320, Note_on_c, 0, 71, 0
1, 37320, Note_on_c, 0, 68, 0
1, 37440, Tempo, 433934
1, 37440, Note_on_c, 0, 67, 0
1, 37440, Note_on_c, 0, 66, 50
1, 37440, Control_c, 0, 64, 0
1, 37560, Control_c, 0, 64, 127
1, 37680, Tempo, 448531
1, 37680, Note_on_c, 0, 68, 34
1, 37680, Note_on_c, 0, 71, 40
1, 37800, Note_on_c, 0, 71, 0
1, 37800, Note_on_c, 0, 68, 0
1, 37920, Tempo, 435508
1, 37920, Note_on_c, 0, 80, 49
1, 38160, Note_on_c, 0, 80, 0
1, 38160, Note_on_c, 0, 71, 38
1, 38160, Note_on_c, 0, 68, 32
1, 38280, Note_on_c, 0, 68, 0
1, 38280, Note_on_c, 0, 71, 0
1, 38400, Note_on_c, 0, 66, 0
1, 38400, Note_on_c, 0, 65, 46
1, 38423, Control_c, 0, 64, 0
1, 38485, Control_c, 0, 64, 127
1, 38640, Tempo, 471439
1, 38640, Note_on_c, 0, 71, 38
1, 38640, Note_on_c, 0, 68, 32
1, 38760, Note_on_c, 0, 68, 0
1, 38760, Note_on_c, 0, 71, 0
1, 38880, Tempo, 448531
1, 38880, Note_on_c, 0, 65, 0
1, 38880, Note_on_c, 0, 68, 42
1, 38880, Control_c, 0, 64, 0
1, 39007, Control_c, 0, 64, 127
1, 39120, Tempo, 435508
1, 39120, Note_on_c, 0, 71, 32
1, 39240, Note_on_c, 0, 71, 0
1, 39360, Tempo, 450214
1, 39360, Note_on_c, 0, 74, 36
1, 39600, Note_on_c, 0, 74, 0
1, 39600, Note_on_c, 0, 71, 33
1, 39720, Note_on_c, 0, 71, 0
1, 39840, Note_on_c, 0, 68, 0
1, 39840, Note_on_c, 0, 67, 36
1, 39852, Control_c, 0, 64, 0
1, 39953, Control_c, 0, 64, 127
1, 40080, Tempo, 492732
1, 40080, Note_on_c, 0, 71, 30
1, 40200, Note_on_c, 0, 71, 0
1, 40320, Tempo, 480885
1, 40320, Note_on_c, 0, 67, 0
1, 40320, Note_on_c, 0, 66, 41
1, 40320, Control_c, 0, 64, 0
1, 40440, Control_c, 0, 64, 127
1, 40560, Tempo, 498878
1, 40560, Note_on_c, 0, 71, 27
1, 40680, Note_on_c, 0, 71, 0
1, 40800, Tempo, 484770
1, 40800, Note_on_c, 0, 75, 31
1, 41040, Note_on_c, 0, 75, 0
1, 41040, Note_on_c, 0, 71, 23
1, 41160, Note_on_c, 0, 71, 0
1, 41280, Note_on_c, 0, 66, 0
1, 41280, Note_on_c, 0, 65, 25
1, 41303, Control_c, 0, 64, 0
1, 41365, Control_c, 0, 64, 127
1, 41520, Tempo, 529708
1, 41520, Note_on_c, 0, 71, 26
1, 41640, Note_on_c, 0, 71, 0
1, 41700, Note_on_c, 0, 59, 25
1, 41760, Tempo, 484770
1, 41760, Note_on_c, 0, 65, 0
1, 41760, Note_on_c, 0, 64, 40
1, 41760, Note_on_c, 0, 40, 25
1, 41760, Note_on_c, 0, 52, 33
1, 41760, Control_c, 0, 64, 0
1, 41916, Control_c, 0, 64, 127
1, 42000, Note_on_c, 0, 52, 0
1, 42000, Note_on_c, 0, 59, 0
1, 42000, Note_on_c, 0, 64, 0
1, 42000, Note_on_c, 0, 40, 0
1, 42000, Note_on_c, 0, 71, 33
1, 42240, Tempo, 464145
1, 42240, Note_on_c, 0, 71, 0
1, 42240, Note_on_c, 0, 75, 29
1, 42240, Note_on_c, 0, 80, 42
1, 42240, Note_on_c, 0, 64, 20
1, 42240, Note_on_c, 0, 71, 24
1, 42240, Note_on_c, 0, 63, 29
1, 42420, Note_on_c, 0, 71, 0
1, 42420, Note_on_c, 0, 64, 0
1, 42480, Note_on_c, 0, 75, 0
1, 42480, Note_on_c, 0, 80, 0
1, 42480, Note_on_c, 0, 75, 35
1, 42480, Note_on_c, 0, 68, 24
1, 42480, Note_on_c, 0, 64, 20
1, 42480, Note_on_c, 0, 71, 24
1, 42720, Note_on_c, 0, 68, 0
1, 42720, Note_on_c, 0, 75, 0
1, 42720, Note_on_c, 0, 80, 34
1, 42720, Note_on_c, 0, 85, 48
1, 42840, Note_on_c, 0, 71, 0
1, 42840, Note_on_c, 0, 64, 0
1, 42960, Note_on_c, 0, 85, 0
1, 42960, Note_on_c, 0, 80, 0
1, 42960, Note_on_c, 0, 75, 26
1, 42960, Note_on_c, 0, 80, 37
1, 42960, Note_on_c, 0, 64, 20
1, 42960, Note_on_c, 0, 71, 24
1, 43140, Note_on_c, 0, 71, 0
1, 43140, Note_on_c, 0, 64, 0
1, 43200, Tempo, 455339
1, 43200, Note_on_c, 0, 63, 0
1, 43200, Note_on_c, 0, 75, 0
1, 43200, Note_on_c, 0, 80, 0
1, 43200, Note_on_c, 0, 78, 43
1, 43200, Note_on_c, 0, 73, 43
1, 43200, Note_on_c, 0, 64, 24
1, 43200, Note_on_c, 0, 69, 29
1, 43200, Note_on_c, 0, 61, 28
1, 43200, Control_c, 0, 64, 0
1, 43320, Control_c, 0, 64, 127
1, 43380, Note_on_c, 0, 69, 0
1, 43380, Note_on_c, 0, 64, 0
1, 43380, Note_on_c, 0, 73, 0
1, 43440, Note_on_c, 0, 66, 22
1, 43440, Note_on_c, 0, 73, 32
1, 43440, Note_on_c, 0, 64, 20
1, 43440, Note_on_c, 0, 69, 24
1, 43680, Tempo, 440302
1, 43800, Note_on_c, 0, 69, 0
1, 43800, Note_on_c, 0, 73, 0
1, 43800, Note_on_c, 0, 66, 0
1, 43800, Note_on_c, 0, 64, 0
1, 43920, Note_on_c, 0, 73, 32
1, 43920, Note_on_c, 0, 66, 22
1, 43920, Note_on_c, 0, 64, 20
1, 43920, Note_on_c, 0, 69, 24
1, 44100, Note_on_c, 0, 69, 0
1, 44100, Note_on_c, 0, 66, 0
1, 44100, Note_on_c, 0, 73, 0
1, 44100, Note_on_c, 0, 64, 0
1, 44160, Note_on_c, 0, 78, 0
1, 44160, Note_on_c, 0, 61, 0
1, 44160, Note_on_c, 0, 75, 28
1, 44160, Note_on_c, 0, 80, 40
1, 44160, Note_on_c, 0, 64, 24
1, 44160, Note_on_c, 0, 71, 29
1, 44160, Note_on_c, 0, 63, 21
1, 44167, Control_c, 0, 64, 0
1, 44273, Control_c, 0, 64, 127
1, 44400, Tempo, 467763
1, 44400, Note_on_c, 0, 80, 0
1, 44400, Note_on_c, 0, 75, 0
1, 44400, Note_on_c, 0, 68, 28
1, 44400, Note_on_c, 0, 73, 40
1, 44640, Tempo, 453618
1, 44640, Note_on_c, 0, 73, 0
1, 44640, Note_on_c, 0, 71, 0
1, 44640, Note_on_c, 0, 63, 0
1, 44640, Note_on_c, 0, 64, 0
1, 44640, Note_on_c, 0, 68, 0
1, 44640, Note_on_c, 0, 78, 44
1, 44640, Note_on_c, 0, 73, 31
1, 44640, Note_on_c, 0, 64, 24
1, 44640, Note_on_c, 0, 69, 29
1, 44640, Note_on_c, 0, 61, 28
1, 44640, Control_c, 0, 64, 0
1, 44810, Control_c, 0, 64, 127
1, 44880, Note_on_c, 0, 73, 0
1, 44880, Note_on_c, 0, 78, 0
1, 44880, Note_on_c, 0, 66, 28
1, 44880, Note_on_c, 0, 73, 40
1, 45120, Tempo, 445203
1, 45120, Note_on_c, 0, 73, 0
1, 45120, Note_on_c, 0, 69, 0
1, 45120, Note_on_c, 0, 61, 0
1, 45120, Note_on_c, 0, 64, 0
1, 45120, Note_on_c, 0, 66, 0
1, 45120, Note_on_c, 0, 80, 41
1, 45120, Note_on_c, 0, 75, 28
1, 45120, Note_on_c, 0, 64, 20
1, 45120, Note_on_c, 0, 71, 24
1, 45120, Note_on_c, 0, 63, 23
1, 45143, Control_c, 0, 64, 0
1, 45300, Note_on_c, 0, 71, 0
1, 45300, Note_on_c, 0, 64, 0
1, 45332, Control_c, 0, 64, 127
1, 45360, Note_on_c, 0, 80, 0
1, 45360, Note_on_c, 0, 75, 0
1, 45360, Note_on_c, 0, 68, 28
1, 45360, Note_on_c, 0, 75, 40
1, 45360, Note_on_c, 0, 64, 20
1, 45360, Note_on_c, 0, 71, 24
1, 45600, Tempo, 438693
1, 45600, Note_on_c, 0, 75, 0
1, 45600, Note_on_c, 0, 68, 0
1, 45600, Note_on_c, 0, 80, 34
1, 45600, Note_on_c, 0, 85, 49
1, 45720, Note_on_c, 0, 71, 0
1, 45720, Note_on_c, 0, 64, 0
1, 45840, Tempo, 477061
1, 45840, Note_on_c, 0, 85, 0
1, 45840, Note_on_c, 0, 80, 0
1, 45840, Note_on_c, 0, 80, 41
1, 45840, Note_on_c, 0, 75, 28
1, 45840, Note_on_c, 0, 64, 20
1, 45840, Note_on_c, 0, 71, 24
1, 46020, Note_on_c, 0, 71, 0
1, 46020, Note_on_c, 0, 64, 0
1, 46080, Tempo, 451909
1, 46080, Note_on_c, 0, 63, 0
1, 46080, Note_on_c, 0, 80, 0
1, 46080, Note_on_c, 0, 75, 0
1, 46080, Note_on_c, 0, 78, 51
1, 46080, Note_on_c, 0, 73, 51
1, 46080, Note_on_c, 0, 64, 24
1, 46080, Note_on_c, 0, 69, 29
1, 46080, Note_on_c, 0, 61, 29
1, 46080, Control_c, 0, 64, 0
1, 46221, Control_c, 0, 64, 127
1, 46260, Note_on_c, 0, 69, 0
1, 46260, Note_on_c, 0, 64, 0
1, 46260, Note_on_c, 0, 73, 0
1, 46320, Note_on_c, 0, 73, 34
1, 46320, Note_on_c, 0, 66, 23
1, 46320, Note_on_c, 0, 64, 20
1, 46320, Note_on_c, 0, 69, 24
1, 46680, Note_on_c, 0, 69, 0
1, 46680, Note_on_c, 0, 66, 0
1, 46680, Note_on_c, 0, 73, 0
1, 46680, Note_on_c, 0, 64, 0
1, 46800, Note_on_c, 0, 73, 32
1, 46800, Note_on_c, 0, 66, 22
1, 46800, Note_on_c, 0, 64, 20
1, 46800, Note_on_c, 0, 69, 24
1, 47160, Note_on_c, 0, 69, 0
1, 47160, Note_on_c, 0, 66, 0
1, 47160, Note_on_c, 0, 73, 0
1, 47160, Note_on_c, 0, 64, 0
1, 47280, Note_on_c, 0, 73, 34
1, 47280, Note_on_c, 0, 66, 23
1, 47280, Note_on_c, 0, 64, 20
1, 47280, Note_on_c, 0, 69, 24
1, 47460, Note_on_c, 0, 69, 0
1, 47460, Note_on_c, 0, 66, 0
1, 47460, Note_on_c, 0, 73, 0
1, 47460, Note_on_c, 0, 64, 0
1, 47520, Tempo, 446861
1, 47520, Note_on_c, 0, 61, 0
1, 47520, Note_on_c, 0, 78, 0
1, 47520, Note_on_c, 0, 80, 45
1, 47520, Note_on_c, 0, 75, 32
1, 47520, Note_on_c, 0, 64, 20
1, 47520, Note_on_c, 0, 71, 24
1, 47520, Note_on_c, 0, 63, 21
1, 47525, Control_c, 0, 64, 0
1, 47661, Control_c, 0, 64, 127
1, 47760, Note_on_c, 0, 75, 0
1, 47760, Note_on_c, 0, 75, 23
1, 47760, Note_on_c, 0, 68, 23
1, 48000, Note_on_c, 0, 68, 0
1, 48000, Note_on_c, 0, 64, 0
1, 48000, Note_on_c, 0, 63, 0
1, 48000, Note_on_c, 0, 80, 0
1, 48000, Note_on_c, 0, 75, 0
1, 48000, Note_on_c, 0, 71, 0
1, 48000, Note_on_c, 0, 73, 28
1, 48000, Note_on_c, 0, 78, 40
1, 48000, Note_on_c, 0, 64, 20
1, 48000, Note_on_c, 0, 69, 24
1, 48000, Note_on_c, 0, 61, 18
1, 48024, Control_c, 0, 64, 0
1, 48170, Control_c, 0, 64, 127
1, 48240, Note_on_c, 0, 73, 0
1, 48240, Note_on_c, 0, 73, 21
1, 48240, Note_on_c, 0, 66, 21
1, 48480, Note_on_c, 0, 66, 0
1, 48480, Note_on_c, 0, 64, 0
1, 48480, Note_on_c, 0, 61, 0
1, 48480, Note_on_c, 0, 78, 0
1, 48480, Note_on_c, 0, 73, 0
1, 48480, Note_on_c, 0, 69, 0
1, 48480, Note_on_c, 0, 80, 40
1, 48480, Note_on_c, 0, 75, 28
1, 48480, Note_on_c, 0, 64, 20
1, 48480, Note_on_c, 0, 71, 24
1, 48480, Note_on_c, 0, 63, 21
1, 48497, Control_c, 0, 64, 0
1, 48621, Control_c, 0, 64, 127
1, 48720, Tempo, 471439
1, 48720, Note_on_c, 0, 75, 0
1, 48720, Note_on_c, 0, 75, 22
1, 48720, Note_on_c, 0, 68, 22
1, 48960, Tempo, 451909
1, 48960, Note_on_c, 0, 68, 0
1, 48960, Note_on_c, 0, 64, 0
1, 48960, Note_on_c, 0, 63, 0
1, 48960, Note_on_c, 0, 80, 0
1, 48960, Note_on_c, 0, 75, 0
1, 48960, Note_on_c, 0, 71, 0
1, 48960, Note_on_c, 0, 64, 26
1, 48960, Note_on_c, 0, 68, 26
1, 48960, Note_on_c, 0, 73, 49
1, 48960, Note_on_c, 0, 61, 23
1, 48960, Note_on_c, 0, 59, 23
1, 48960, Control_c, 0, 64, 0
1, 49020, Control_c, 0, 64, 127
1, 49176, Note_on_c, 0, 61, 0
1, 49200, Note_on_c, 0, 61, 23
1, 49632, Note_on_c, 0, 61, 0
1, 49680, Note_on_c, 0, 73, 0
1, 49680, Note_on_c, 0, 75, 37
1, 49680, Note_on_c, 0, 61, 23
1, 49920, Note_on_c, 0, 75, 0
1, 49920, Note_on_c, 0, 73, 37
1, 50112, Note_on_c, 0, 61, 0
1, 50160, Tempo, 477061
1, 50160, Note_on_c, 0, 61, 23
1, 50400, Tempo, 450214
1, 50400, Note_on_c, 0, 64, 0
1, 50400, Note_on_c, 0, 73, 0
1, 50400, Note_on_c, 0, 59, 0
1, 50400, Note_on_c, 0, 68, 0
1, 50400, Note_on_c, 0, 64, 26
1, 50400, Note_on_c, 0, 67, 26
1, 50400, Note_on_c, 0, 75, 44
1, 50400, Note_on_c, 0, 58, 23
1, 50400, Control_c, 0, 64, 0
1, 50460, Control_c, 0, 64, 127
1, 50592, Note_on_c, 0, 61, 0
1, 50640, Note_on_c, 0, 61, 23
1, 51072, Note_on_c, 0, 61, 0
1, 51120, Note_on_c, 0, 75, 0
1, 51120, Note_on_c, 0, 73, 38
1, 51120, Note_on_c, 0, 61, 23
1, 51360, Note_on_c, 0, 73, 0
1, 51360, Note_on_c, 0, 75, 38
1, 51552, Note_on_c, 0, 61, 0
1, 51600, Tempo, 477061
1, 51600, Note_on_c, 0, 61, 23
1, 51696, Note_on_c, 0, 58, 0
1, 51840, Tempo, 453618
1, 51840, Note_on_c, 0, 75, 0
1, 51840, Note_on_c, 0, 64, 0
1, 51840, Note_on_c, 0, 67, 0
1, 51840, Note_on_c, 0, 64, 26
1, 51840, Note_on_c, 0, 71, 28
1, 51840, Note_on_c, 0, 73, 42
1, 51840, Note_on_c, 0, 56, 23
1, 51840, Control_c, 0, 64, 0
1, 51900, Control_c, 0, 64, 127
1, 52032, Note_on_c, 0, 61, 0
1, 52080, Note_on_c, 0, 61, 23
1, 52512, Note_on_c, 0, 61, 0
1, 52560, Note_on_c, 0, 73, 0
1, 52560, Note_on_c, 0, 75, 37
1, 52560, Note_on_c, 0, 61, 23
1, 52800, Note_on_c, 0, 75, 0
1, 52800, Note_on_c, 0, 73, 37
1, 52992, Note_on_c, 0, 61, 0
1, 53040, Tempo, 477061
1, 53040, Note_on_c, 0, 61, 23
1, 53280, Tempo, 453618
1, 53280, Note_on_c, 0, 64, 0
1, 53280, Note_on_c, 0, 73, 0
1, 53280, Note_on_c, 0, 56, 0
1, 53280, Note_on_c, 0, 71, 0
1, 53280, Note_on_c, 0, 64, 26
1, 53280, Note_on_c, 0, 70, 26
1, 53280, Note_on_c, 0, 75, 41
1, 53280, Note_on_c, 0, 55, 23
1, 53280, Control_c, 0, 64, 0
1, 53340, Control_c, 0, 64, 127
1, 53472, Note_on_c, 0, 61, 0
1, 53520, Note_on_c, 0, 61, 23
1, 53952, Note_on_c, 0, 61, 0
1, 54000, Note_on_c, 0, 75, 0
1, 54000, Note_on_c, 0, 73, 40
1, 54000, Note_on_c, 0, 61, 23
1, 54240, Note_on_c, 0, 73, 0
1, 54240, Note_on_c, 0, 75, 40
1, 54432, Note_on_c, 0, 61, 0
1, 54480, Tempo, 478965
1, 54480, Note_on_c, 0, 61, 23
1, 54720, Tempo, 455339
1, 54720, Note_on_c, 0, 64, 0
1, 54720, Note_on_c, 0, 75, 0
1, 54720, Note_on_c, 0, 55, 0
1, 54720, Note_on_c, 0, 70, 0
1, 54720, Note_on_c, 0, 54, 23
1, 54720, Control_c, 0, 64, 0
1, 54791, Control_c, 0, 64, 127
1, 54960, Note_on_c, 0, 68, 23
1, 54960, Note_on_c, 0, 64, 18
1, 54960, Note_on_c, 0, 59, 18
1, 55200, Tempo, 440302
1, 55200, Note_on_c, 0, 59, 0
1, 55200, Note_on_c, 0, 68, 0
1, 55200, Note_on_c, 0, 64, 0
1, 55200, Note_on_c, 0, 61, 0
1, 55200, Note_on_c, 0, 63, 35
1, 55220, Control_c, 0, 64, 0
1, 55380, Note_on_c, 0, 63, 0
1, 55440, Tempo, 473298
1, 55440, Note_on_c, 0, 68, 23
1, 55440, Note_on_c, 0, 64, 18
1, 55440, Note_on_c, 0, 59, 18
1, 55440, Note_on_c, 0, 61, 34
1, 55620, Note_on_c, 0, 61, 0
1, 55680, Tempo, 455339
1, 55680, Note_on_c, 0, 64, 0
1, 55680, Note_on_c, 0, 59, 0
1, 55680, Note_on_c, 0, 68, 0
1, 55680, Note_on_c, 0, 63, 38
1, 55726, Control_c, 0, 64, 127
1, 55920, Note_on_c, 0, 68, 23
1, 55920, Note_on_c, 0, 64, 18
1, 55920, Note_on_c, 0, 59, 18
1, 56160, Tempo, 455339
1, 56160, Note_on_c, 0, 59, 0
1, 56160, Note_on_c, 0, 68, 0
1, 56160, Note_on_c, 0, 64, 0
1, 56160, Note_on_c, 0, 63, 0
1, 56160, Note_on_c, 0, 61, 40
1, 56164, Control_c, 0, 64, 0
1, 56220, Control_c, 0, 64, 127
1, 56400, Note_on_c, 0, 67, 23
1, 56400, Note_on_c, 0, 64, 18
1, 56400, Note_on_c, 0, 59, 18
1, 56640, Tempo, 440302
1, 56640, Note_on_c, 0, 59, 0
1, 56640, Note_on_c, 0, 67, 0
1, 56640, Note_on_c, 0, 64, 0
1, 56640, Note_on_c, 0, 61, 0
1, 56640, Note_on_c, 0, 63, 31
1, 56649, Control_c, 0, 64, 0
1, 56820, Note_on_c, 0, 63, 0
1, 56880, Tempo, 475172
1, 56880, Note_on_c, 0, 67, 23
1, 56880, Note_on_c, 0, 64, 18
1, 56880, Note_on_c, 0, 59, 18
1, 56880, Note_on_c, 0, 61, 26
1, 57060, Note_on_c, 0, 61, 0
1, 57120, Tempo, 455339
1, 57120, Note_on_c, 0, 64, 0
1, 57120, Note_on_c, 0, 59, 0
1, 57120, Note_on_c, 0, 67, 0
1, 57120, Note_on_c, 0, 63, 32
1, 57177, Control_c, 0, 64, 127
1, 57360, Note_on_c, 0, 67, 23
1, 57360, Note_on_c, 0, 64, 18
1, 57360, Note_on_c, 0, 59, 18
1, 57600, Note_on_c, 0, 59, 0
1, 57600, Note_on_c, 0, 67, 0
1, 57600, Note_on_c, 0, 54, 0
1, 57600, Note_on_c, 0, 63, 0
1, 57600, Note_on_c, 0, 64, 0
1, 57600, Note_on_c, 0, 54, 23
1, 57600, Note_on_c, 0, 61, 37
1, 57609, Control_c, 0, 64, 0
1, 57650, Control_c, 0, 64, 127
1, 57840, Note_on_c, 0, 66, 23
1, 57840, Note_on_c, 0, 64, 18
1, 57840, Note_on_c, 0, 59, 18
1, 58080, Tempo, 441924
1, 58080, Note_on_c, 0, 59, 0
1, 58080, Note_on_c, 0, 66, 0
1, 58080, Note_on_c, 0, 64, 0
1, 58080, Note_on_c, 0, 61, 0
1, 58080, Note_on_c, 0, 63, 26
1, 58103, Control_c, 0, 64, 0
1, 58260, Note_on_c, 0, 63, 0
1, 58320, Tempo, 475172
1, 58320, Note_on_c, 0, 66, 23
1, 58320, Note_on_c, 0, 64, 18
1, 58320, Note_on_c, 0, 59, 18
1, 58320, Note_on_c, 0, 61, 27
1, 58500, Note_on_c, 0, 61, 0
1, 58560, Tempo, 455339
1, 58560, Note_on_c, 0, 64, 0
1, 58560, Note_on_c, 0, 59, 0
1, 58560, Note_on_c, 0, 66, 0
1, 58560, Note_on_c, 0, 63, 34
1, 58588, Control_c, 0, 64, 127
1, 58800, Note_on_c, 0, 66, 23
1, 58800, Note_on_c, 0, 64, 18
1, 58800, Note_on_c, 0, 59, 18
1, 59040, Tempo, 478965
1, 59040, Note_on_c, 0, 59, 0
1, 59040, Note_on_c, 0, 66, 0
1, 59040, Note_on_c, 0, 64, 0
1, 59040, Note_on_c, 0, 63, 0
1, 59040, Note_on_c, 0, 61, 37
1, 59040, Control_c, 0, 64, 0
1, 59156, Control_c, 0, 64, 127
1, 59280, Note_on_c, 0, 66, 23
1, 59280, Note_on_c, 0, 64, 18
1, 59280, Note_on_c, 0, 58, 18
1, 59520, Tempo, 465947
1, 59520, Note_on_c, 0, 58, 0
1, 59520, Note_on_c, 0, 66, 0
1, 59520, Note_on_c, 0, 54, 0
1, 59520, Note_on_c, 0, 61, 0
1, 59520, Note_on_c, 0, 64, 0
1, 59520, Note_on_c, 0, 51, 23
1, 59537, Control_c, 0, 64, 0
1, 59644, Control_c, 0, 64, 127
1, 59760, Note_on_c, 0, 66, 23
1, 59760, Note_on_c, 0, 64, 18
1, 59760, Note_on_c, 0, 58, 18
1, 60000, Tempo, 503060
1, 60000, Note_on_c, 0, 58, 0
1, 60000, Note_on_c, 0, 51, 0
1, 60000, Note_on_c, 0, 66, 0
1, 60000, Note_on_c, 0, 64, 0
1, 60000, Note_on_c, 0, 49, 23
1, 60240, Note_on_c, 0, 66, 23
1, 60240, Note_on_c, 0, 64, 18
1, 60240, Note_on_c, 0, 58, 18
1, 60459, Tempo, 450214
1, 60480, Note_on_c, 0, 58, 0
1, 60480, Note_on_c, 0, 49, 0
1, 60480, Note_on_c, 0, 66, 0
1, 60480, Note_on_c, 0, 64, 0
1, 60480, Note_on_c, 0, 59, 34
1, 60480, Note_on_c, 0, 47, 40
1, 60480, Control_c, 0, 64, 0
1, 60579, Control_c, 0, 64, 127
1, 60651, Tempo, 448531
1, 60720, Note_on_c, 0, 47, 0
1, 60720, Note_on_c, 0, 59, 0
1, 60720, Note_on_c, 0, 71, 29
1, 60720, Note_on_c, 0, 66, 29
1, 60819, Tempo, 446861
1, 60840, Note_on_c, 0, 66, 0
1, 60840, Note_on_c, 0, 71, 0
1, 60960, Note_on_c, 0, 59, 33
1, 60987, Tempo, 445203
1, 61080, Note_on_c, 0, 59, 0
1, 61179, Tempo, 443557
1, 61200, Note_on_c, 0, 66, 24
1, 61200, Note_on_c, 0, 59, 24
1, 61200, Note_on_c, 0, 71, 29
1, 61320, Note_on_c, 0, 71, 0
1, 61320, Note_on_c, 0, 59, 0
1, 61320, Note_on_c, 0, 66, 0
1, 61347, Tempo, 441924
1, 61440, Note_on_c, 0, 59, 33
1, 61515, Tempo, 440302
1, 61560, Note_on_c, 0, 59, 0
1, 61680, Note_on_c, 0, 59, 24
1, 61680, Note_on_c, 0, 71, 29
1, 61680, Note_on_c, 0, 66, 24
1, 61800, Note_on_c, 0, 66, 0
1, 61800, Note_on_c, 0, 71, 0
1, 61800, Note_on_c, 0, 59, 0
1, 61920, Note_on_c, 0, 59, 33
1, 62040, Note_on_c, 0, 59, 0
1, 62160, Note_on_c, 0, 59, 24
1, 62160, Note_on_c, 0, 66, 24
1, 62160, Note_on_c, 0, 71, 29
1, 62280, Note_on_c, 0, 71, 0
1, 62280, Note_on_c, 0, 66, 0
1, 62280, Note_on_c, 0, 59, 0
1, 62400, Tempo, 433934
1, 62400, Note_on_c, 0, 59, 33
1, 62520, Note_on_c, 0, 59, 0
1, 62640, Note_on_c, 0, 59, 24
1, 62640, Note_on_c, 0, 66, 24
1, 62640, Note_on_c, 0, 71, 29
1, 62760, Note_on_c, 0, 71, 0
1, 62760, Note_on_c, 0, 66, 0
1, 62760, Note_on_c, 0, 59, 0
1, 62880, Note_on_c, 0, 59, 33
1, 63000, Note_on_c, 0, 59, 0
1, 63120, Tempo, 457073
1, 63120, Note_on_c, 0, 59, 24
1, 63120, Note_on_c, 0, 66, 24
1, 63120, Note_on_c, 0, 71, 29
1, 63240, Note_on_c, 0, 71, 0
1, 63240, Note_on_c, 0, 66, 0
1, 63240, Note_on_c, 0, 59, 0
1, 63360, Tempo, 450214
1, 63360, Note_on_c, 0, 61, 39
1, 63360, Note_on_c, 0, 59, 39
1, 63377, Control_c, 0, 64, 0
1, 63501, Control_c, 0, 64, 127
1, 63600, Note_on_c, 0, 71, 25
1, 63600, Note_on_c, 0, 66, 21
1, 63720, Note_on_c, 0, 66, 0
1, 63720, Note_on_c, 0, 71, 0
1, 63840, Tempo, 437095
1, 64080, Tempo, 450214
1, 64080, Note_on_c, 0, 61, 0
1, 64080, Note_on_c, 0, 66, 22
1, 64080, Note_on_c, 0, 71, 26
1, 64080, Note_on_c, 0, 62, 27
1, 64200, Note_on_c, 0, 71, 0
1, 64200, Note_on_c, 0, 66, 0
1, 64320, Tempo, 450214
1, 64320, Note_on_c, 0, 62, 0
1, 64320, Note_on_c, 0, 64, 35
1, 64560, Note_on_c, 0, 71, 27
1, 64560, Note_on_c, 0, 66, 22
1, 64680, Note_on_c, 0, 66, 0
1, 64680, Note_on_c, 0, 71, 0
1, 64800, Note_on_c, 0, 64, 0
1, 64800, Note_on_c, 0, 61, 44
1, 64800, Control_c, 0, 64, 0
1, 64920, Control_c, 0, 64, 127
1, 65040, Note_on_c, 0, 66, 23
1, 65040, Note_on_c, 0, 71, 28
1, 65160, Note_on_c, 0, 71, 0
1, 65160, Note_on_c, 0, 66, 0
1, 65280, Tempo, 424719
1, 65280, Note_on_c, 0, 61, 0
1, 65280, Note_on_c, 0, 62, 34
1, 65288, Control_c, 0, 64, 0
1, 65379, Control_c, 0, 64, 127
1, 65520, Note_on_c, 0, 66, 24
1, 65520, Note_on_c, 0, 71, 29
1, 65640, Note_on_c, 0, 71, 0
1, 65640, Note_on_c, 0, 66, 0
1, 65760, Tempo, 435508
1, 65760, Note_on_c, 0, 62, 0
1, 65760, Note_on_c, 0, 64, 34
1, 65777, Control_c, 0, 64, 0
1, 65908, Control_c, 0, 64, 127
1, 66000, Tempo, 498878
1, 66000, Note_on_c, 0, 71, 31
1, 66000, Note_on_c, 0, 66, 26
1, 66120, Note_on_c, 0, 66, 0
1, 66120, Note_on_c, 0, 71, 0
1, 66240, Tempo, 450214
1, 66240, Note_on_c, 0, 64, 0
1, 66240, Note_on_c, 0, 59, 0
1, 66240, Note_on_c, 0, 65, 45
1, 66240, Note_on_c, 0, 59, 51
1, 66257, Control_c, 0, 64, 0
1, 66381, Control_c, 0, 64, 127
1, 66480, Tempo, 443557
1, 66480, Note_on_c, 0, 71, 31
1, 66480, Note_on_c, 0, 67, 26
1, 66600, Note_on_c, 0, 67, 0
1, 66600, Note_on_c, 0, 71, 0
1, 66960, Note_on_c, 0, 67, 25
1, 66960, Note_on_c, 0, 71, 30
1, 67080, Note_on_c, 0, 71, 0
1, 67080, Note_on_c, 0, 67, 0
1, 67200, Tempo, 450214
1, 67200, Note_on_c, 0, 65, 0
1, 67200, Note_on_c, 0, 64, 39
1, 67440, Note_on_c, 0, 71, 29
1, 67440, Note_on_c, 0, 67, 24
1, 67560, Note_on_c, 0, 67, 0
1, 67560, Note_on_c, 0, 71, 0
1, 67680, Control_c, 0, 64, 0
1, 67800, Control_c, 0, 64, 127
1, 67920, Note_on_c, 0, 67, 23
1, 67920, Note_on_c, 0, 71, 28
1, 68040, Note_on_c, 0, 71, 0
1, 68040, Note_on_c, 0, 67, 0
1, 68160, Tempo, 424719
1, 68160, Note_on_c, 0, 64, 0
1, 68160, Note_on_c, 0, 62, 32
1, 68168, Control_c, 0, 64, 0
1, 68259, Control_c, 0, 64, 127
1, 68400, Note_on_c, 0, 67, 22
1, 68400, Note_on_c, 0, 71, 27
1, 68520, Note_on_c, 0, 71, 0
1, 68520, Note_on_c, 0, 67, 0
1, 68640, Tempo, 435508
1, 68880, Tempo, 465947
1, 68880, Note_on_c, 0, 71, 26
1, 68880, Note_on_c, 0, 67, 22
1, 69000, Note_on_c, 0, 67, 0
1, 69000, Note_on_c, 0, 71, 0
1, 69120, Tempo, 450214
1, 69120, Note_on_c, 0, 62, 0
1, 69120, Note_on_c, 0, 59, 0
1, 69120, Note_on_c, 0, 61, 39
1, 69120, Note_on_c, 0, 59, 39
1, 69137, Control_c, 0, 64, 0
1, 69261, Control_c, 0, 64, 127
1, 69360, Note_on_c, 0, 71, 25
1, 69360, Note_on_c, 0, 66, 21
1, 69480, Note_on_c, 0, 66, 0
1, 69480, Note_on_c, 0, 71, 0
1, 69600, Tempo, 437095
1, 69840, Tempo, 450214
1, 69840, Note_on_c, 0, 61, 0
1, 69840, Note_on_c, 0, 66, 22
1, 69840, Note_on_c, 0, 71, 26
1, 69840, Note_on_c, 0, 62, 27
1, 69960, Note_on_c, 0, 71, 0
1, 69960, Note_on_c, 0, 66, 0
1, 70080, Tempo, 450214
1, 70080, Note_on_c, 0, 62, 0
1, 70080, Note_on_c, 0, 64, 35
1, 70320, Note_on_c, 0, 71, 27
1, 70320, Note_on_c, 0, 66, 22
1, 70440, Note_on_c, 0, 66, 0
1, 70440, Note_on_c, 0, 71, 0
1, 70560, Note_on_c, 0, 64, 0
1, 70560, Note_on_c, 0, 61, 44
1, 70560, Control_c, 0, 64, 0
1, 70680, Control_c, 0, 64, 127
1, 70800, Note_on_c, 0, 66, 23
1, 70800, Note_on_c, 0, 71, 28
1, 70920, Note_on_c, 0, 71, 0
1, 70920, Note_on_c, 0, 66, 0
1, 71040, Tempo, 424719
1, 71040, Note_on_c, 0, 61, 0
1, 71040, Note_on_c, 0, 62, 34
1, 71048, Control_c, 0, 64, 0
1, 71139, Control_c, 0, 64, 127
1, 71280, Note_on_c, 0, 66, 24
1, 71280, Note_on_c, 0, 71, 29
1, 71400, Note_on_c, 0, 71, 0
1, 71400, Note_on_c, 0, 66, 0
1, 71520, Tempo, 435508
1, 71520, Note_on_c, 0, 62, 0
1, 71520, Note_on_c, 0, 64, 34
1, 71537, Control_c, 0, 64, 0
1, 71668, Control_c, 0, 64, 127
1, 71760, Tempo, 498878
1, 71760, Note_on_c, 0, 71, 31
1, 71760, Note_on_c, 0, 66, 26
1, 71880, Note_on_c, 0, 66, 0
1, 71880, Note_on_c, 0, 71, 0
1, 72000, Tempo, 450214
1, 72000, Note_on_c, 0, 64, 0
1, 72000, Note_on_c, 0, 59, 0
1, 72000, Note_on_c, 0, 65, 45
1, 72000, Note_on_c, 0, 55, 51
1, 72017, Control_c, 0, 64, 0
1, 72141, Control_c, 0, 64, 127
1, 72240, Tempo, 443557
1, 72240, Note_on_c, 0, 71, 31
1, 72240, Note_on_c, 0, 69, 26
1, 72360, Note_on_c, 0, 69, 0
1, 72360, Note_on_c, 0, 71, 0
1, 72720, Note_on_c, 0, 69, 25
1, 72720, Note_on_c, 0, 71, 30
1, 72840, Note_on_c, 0, 71, 0
1, 72840, Note_on_c, 0, 69, 0
1, 72960, Tempo, 450214
1, 72960, Note_on_c, 0, 65, 0
1, 72960, Note_on_c, 0, 64, 39
1, 72975, Control_c, 0, 64, 0
1, 73069, Control_c, 0, 64, 127
1, 73200, Note_on_c, 0, 71, 29
1, 73200, Note_on_c, 0, 67, 24
1, 73320, Note_on_c, 0, 67, 0
1, 73320, Note_on_c, 0, 71, 0
1, 73680, Note_on_c, 0, 67, 23
1, 73680, Note_on_c, 0, 71, 28
1, 73800, Note_on_c, 0, 71, 0
1, 73800, Note_on_c, 0, 67, 0
1, 73920, Tempo, 424719
1, 73920, Note_on_c, 0, 64, 0
1, 73920, Note_on_c, 0, 62, 32
1, 73928, Control_c, 0, 64, 0
1, 74019, Control_c, 0, 64, 127
1, 74160, Note_on_c, 0, 65, 22
1, 74160, Note_on_c, 0, 71, 27
1, 74280, Note_on_c, 0, 71, 0
1, 74280, Note_on_c, 0, 65, 0
1, 74400, Tempo, 435508
1, 74640, Tempo, 465947
1, 74640, Note_on_c, 0, 67, 26
1, 74640, Note_on_c, 0, 65, 22
1, 74760, Note_on_c, 0, 65, 0
1, 74760, Note_on_c, 0, 67, 0
1, 74880, Key_signature, 0, "major"
1, 74880, Tempo, 450214
1, 74880, Note_on_c, 0, 62, 0
1, 74880, Note_on_c, 0, 55, 0
1, 74880, Note_on_c, 0, 62, 39
1, 74880, Note_on_c, 0, 58, 39
1, 74897, Control_c, 0, 64, 0
1, 75021, Control_c, 0, 64, 127
1, 75120, Note_on_c, 0, 67, 25
1, 75120, Note_on_c, 0, 65, 21
1, 75240, Note_on_c, 0, 65, 0
1, 75240, Note_on_c, 0, 67, 0
1, 75360, Tempo, 437095
1, 75600, Tempo, 450214
1, 75600, Note_on_c, 0, 62, 0
1, 75600, Note_on_c, 0, 65, 22
1, 75600, Note_on_c, 0, 67, 26
1, 75600, Note_on_c, 0, 64, 27
1, 75720, Note_on_c, 0, 67, 0
1, 75720, Note_on_c, 0, 65, 0
1, 75840, Tempo, 450214
1, 75840, Note_on_c, 0, 64, 0
1, 75840, Note_on_c, 0, 62, 35
1, 75853, Control_c, 0, 64, 0
1, 75941, Control_c, 0, 64, 127
1, 76080, Note_on_c, 0, 67, 27
1, 76080, Note_on_c, 0, 65, 22
1, 76200, Note_on_c, 0, 65, 0
1, 76200, Note_on_c, 0, 67, 0
1, 76320, Note_on_c, 0, 62, 0
1, 76320, Note_on_c, 0, 61, 44
1, 76320, Control_c, 0, 64, 0
1, 76440, Control_c, 0, 64, 127
1, 76560, Note_on_c, 0, 64, 23
1, 76560, Note_on_c, 0, 69, 28
1, 76680, Note_on_c, 0, 69, 0
1, 76680, Note_on_c, 0, 64, 0
1, 76800, Tempo, 424719
1, 77040, Note_on_c, 0, 69, 26
1, 77040, Note_on_c, 0, 64, 22
1, 77160, Note_on_c, 0, 64, 0
1, 77160, Note_on_c, 0, 69, 0
1, 77280, Tempo, 435508
1, 77520, Tempo, 498878
1, 77520, Note_on_c, 0, 64, 21
1, 77520, Note_on_c, 0, 69, 25
1, 77640, Note_on_c, 0, 69, 0
1, 77640, Note_on_c, 0, 64, 0
1, 77760, Tempo, 450214
1, 77760, Note_on_c, 0, 61, 0
1, 77760, Note_on_c, 0, 58, 0
1, 77760, Note_on_c, 0, 62, 39
1, 77760, Note_on_c, 0, 58, 39
1, 77777, Control_c, 0, 64, 0
1, 77901, Control_c, 0, 64, 127
1, 78000, Note_on_c, 0, 67, 25
1, 78000, Note_on_c, 0, 65, 21
1, 78120, Note_on_c, 0, 65, 0
1, 78120, Note_on_c, 0, 67, 0
1, 78240, Tempo, 437095
1, 78480, Tempo, 450214
1, 78480, Note_on_c, 0, 62, 0
1, 78480, Note_on_c, 0, 65, 22
1, 78480, Note_on_c, 0, 67, 26
1, 78480, Note_on_c, 0, 64, 35
1, 78600, Note_on_c, 0, 67, 0
1, 78600, Note_on_c, 0, 65, 0
1, 78720, Tempo, 450214
1, 78720, Note_on_c, 0, 64, 0
1, 78720, Note_on_c, 0, 62, 46
1, 78746, Control_c, 0, 64, 0
1, 78840, Control_c, 0, 64, 127
1, 78960, Note_on_c, 0, 67, 27
1, 78960, Note_on_c, 0, 65, 22
1, 79080, Note_on_c, 0, 65, 0
1, 79080, Note_on_c, 0, 67, 0
1, 79200, Note_on_c, 0, 62, 0
1, 79200, Note_on_c, 0, 61, 42
1, 79200, Control_c, 0, 64, 0
1, 79320, Control_c, 0, 64, 127
1, 79440, Note_on_c, 0, 69, 31
1, 79440, Note_on_c, 0, 64, 26
1, 79560, Note_on_c, 0, 64, 0
1, 79560, Note_on_c, 0, 69, 0
1, 79680, Tempo, 424719
1, 79680, Note_on_c, 0, 61, 0
1, 79680, Note_on_c, 0, 62, 47
1, 79688, Control_c, 0, 64, 0
1, 79779, Control_c, 0, 64, 127
1, 79920, Note_on_c, 0, 69, 36
1, 79920, Note_on_c, 0, 65, 29
1, 80040, Note_on_c, 0, 65, 0
1, 80040, Note_on_c, 0, 69, 0
1, 80160, Tempo, 435508
1, 80160, Note_on_c, 0, 62, 0
1, 80160, Note_on_c, 0, 57, 51
1, 80160, Note_on_c, 0, 64, 51
1, 80177, Control_c, 0, 64, 0
1, 80308, Control_c, 0, 64, 127
1, 80400, Tempo, 498878
1, 80400, Note_on_c, 0, 67, 37
1, 80400, Note_on_c, 0, 69, 44
1, 80520, Note_on_c, 0, 69, 0
1, 80520, Note_on_c, 0, 67, 0
1, 80640, Tempo, 450214
1, 80640, Note_on_c, 0, 58, 0
1, 80640, Note_on_c, 0, 57, 0
1, 80640, Note_on_c, 0, 64, 0
1, 80640, Note_on_c, 0, 65, 39
1, 80640, Note_on_c, 0, 61, 39
1, 80657, Control_c, 0, 64, 0
1, 80781, Control_c, 0, 64, 127
1, 80880, Note_on_c, 0, 70, 25
1, 80880, Note_on_c, 0, 68, 21
1, 81000, Note_on_c, 0, 68, 0
1, 81000, Note_on_c, 0, 70, 0
1, 81120, Tempo, 437095
1, 81360, Tempo, 450214
1, 81360, Note_on_c, 0, 65, 0
1, 81360, Note_on_c, 0, 68, 22
1, 81360, Note_on_c, 0, 70, 26
1, 81360, Note_on_c, 0, 67, 27
1, 81480, Note_on_c, 0, 70, 0
1, 81480, Note_on_c, 0, 68, 0
1, 81600, Tempo, 450214
1, 81600, Note_on_c, 0, 67, 0
1, 81600, Note_on_c, 0, 65, 35
1, 81613, Control_c, 0, 64, 0
1, 81701, Control_c, 0, 64, 127
1, 81840, Note_on_c, 0, 70, 27
1, 81840, Note_on_c, 0, 68, 22
1, 81960, Note_on_c, 0, 68, 0
1, 81960, Note_on_c, 0, 70, 0
1, 82080, Note_on_c, 0, 65, 0
1, 82080, Note_on_c, 0, 64, 44
1, 82080, Control_c, 0, 64, 0
1, 82200, Control_c, 0, 64, 127
1, 82320, Note_on_c, 0, 67, 23
1, 82320, Note_on_c, 0, 72, 28
1, 82440, Note_on_c, 0, 72, 0
1, 82440, Note_on_c, 0, 67, 0
1, 82560, Tempo, 424719
1, 82800, Note_on_c, 0, 72, 26
1, 82800, Note_on_c, 0, 67, 22
1, 82920, Note_on_c, 0, 67, 0
1, 82920, Note_on_c, 0, 72, 0
1, 83040, Tempo, 435508
1, 83280, Tempo, 498878
1, 83280, Note_on_c, 0, 67, 21
1, 83280, Note_on_c, 0, 72, 25
1, 83400, Note_on_c, 0, 72, 0
1, 83400, Note_on_c, 0, 67, 0
1, 83520, Tempo, 450214
1, 83520, Note_on_c, 0, 64, 0
1, 83520, Note_on_c, 0, 61, 0
1, 83520, Note_on_c, 0, 65, 39
1, 83520, Note_on_c, 0, 61, 39
1, 83537, Control_c, 0, 64, 0
1, 83661, Control_c, 0, 64, 127
1, 83760, Note_on_c, 0, 70, 25
1, 83760, Note_on_c, 0, 68, 21
1, 83880, Note_on_c, 0, 68, 0
1, 83880, Note_on_c, 0, 70, 0
1, 84000, Tempo, 437095
1, 84240, Tempo, 450214
1, 84240, Note_on_c, 0, 65, 0
1, 84240, Note_on_c, 0, 68, 22
1, 84240, Note_on_c, 0, 70, 26
1, 84240, Note_on_c, 0, 67, 35
1, 84360, Note_on_c, 0, 70, 0
1, 84360, Note_on_c, 0, 68, 0
1, 84480, Tempo, 450214
1, 84480, Note_on_c, 0, 67, 0
1, 84480, Note_on_c, 0, 65, 46
1, 84506, Control_c, 0, 64, 0
1, 84600, Control_c, 0, 64, 127
1, 84720, Note_on_c, 0, 70, 27
1, 84720, Note_on_c, 0, 68, 22
1, 84840, Note_on_c, 0, 68, 0
1, 84840, Note_on_c, 0, 70, 0
1, 84960, Note_on_c, 0, 65, 0
1, 84960, Note_on_c, 0, 64, 42
1, 84960, Control_c, 0, 64, 0
1, 85080, Control_c, 0, 64, 127
1, 85200, Note_on_c, 0, 72, 31
1, 85200, Note_on_c, 0, 67, 26
1, 85320, Note_on_c, 0, 67, 0
1, 85320, Note_on_c, 0, 72, 0
1, 85440, Tempo, 424719
1, 85440, Note_on_c, 0, 64, 0
1, 85440, Note_on_c, 0, 65, 47
1, 85448, Control_c, 0, 64, 0
1, 85539, Control_c, 0, 64, 127
1, 85680, Note_on_c, 0, 72, 36
1, 85680, Note_on_c, 0, 68, 29
1, 85800, Note_on_c, 0, 68, 0
1, 85800, Note_on_c, 0, 72, 0
1, 85920, Tempo, 435508
1, 85920, Note_on_c, 0, 65, 0
1, 85920, Note_on_c, 0, 60, 51
1, 85920, Note_on_c, 0, 67, 51
1, 85937, Control_c, 0, 64, 0
1, 86068, Control_c, 0, 64, 127
1, 86160, Tempo, 498878
1, 86160, Note_on_c, 0, 70, 37
1, 86160, Note_on_c, 0, 72, 44
1, 86280, Note_on_c, 0, 72, 0
1, 86280, Note_on_c, 0, 70, 0
1, 86400, Tempo, 455339
1, 86400, Note_on_c, 0, 61, 0
1, 86400, Note_on_c, 0, 60, 0
1, 86400, Note_on_c, 0, 67, 0
1, 86400, Note_on_c, 0, 65, 35
1, 86400, Control_c, 0, 64, 0
1, 86520, Note_on_c, 0, 65, 0
1, 86640, Note_on_c, 0, 68, 33
1, 86760, Note_on_c, 0, 68, 0
1, 86880, Tempo, 448531
1, 86880, Note_on_c, 0, 72, 42
1, 87000, Note_on_c, 0, 72, 0
1, 87120, Tempo, 438693
1, 87120, Note_on_c, 0, 75, 38
1, 87240, Note_on_c, 0, 75, 0
1, 87360, Note_on_c, 0, 74, 42
1, 87480, Note_on_c, 0, 74, 0
1, 87600, Note_on_c, 0, 72, 37
1, 87720, Note_on_c, 0, 72, 0
1, 87840, Tempo, 441924
1, 87840, Note_on_c, 0, 70, 42
1, 87960, Note_on_c, 0, 70, 0
1, 88080, Note_on_c, 0, 68, 37
1, 88200, Note_on_c, 0, 68, 0
1, 88320, Tempo, 445203
1, 88320, Note_on_c, 0, 67, 41
1, 88440, Note_on_c, 0, 67, 0
1, 88560, Note_on_c, 0, 65, 38
1, 88680, Note_on_c, 0, 65, 0
1, 88800, Note_on_c, 0, 63, 41
1, 88920, Note_on_c, 0, 63, 0
1, 89040, Tempo, 484770
1, 89040, Note_on_c, 0, 62, 33
1, 89160, Note_on_c, 0, 62, 0
1, 89280, Tempo, 448531
1, 89280, Note_on_c, 0, 60, 42
1, 89520, Note_on_c, 0, 60, 0
1, 89520, Note_on_c, 0, 63, 38
1, 89760, Tempo, 460582
1, 89760, Note_on_c, 0, 63, 0
1, 89760, Note_on_c, 0, 63, 31
1, 89760, Note_on_c, 0, 67, 37
1, 89760, Note_on_c, 0, 60, 36
1, 89880, Note_on_c, 0, 60, 0
1, 89880, Note_on_c, 0, 67, 0
1, 89880, Note_on_c, 0, 63, 0
1, 90240, Note_on_c, 0, 63, 25
1, 90240, Note_on_c, 0, 67, 30
1, 90240, Note_on_c, 0, 58, 28
1, 90240, Note_on_c, 0, 62, 33
1, 90360, Note_on_c, 0, 62, 0
1, 90360, Note_on_c, 0, 63, 0
1, 90360, Note_on_c, 0, 67, 0
1, 90360, Note_on_c, 0, 58, 0
1, 90480, Tempo, 488719
1, 90720, Tempo, 462356
1, 90720, Note_on_c, 0, 60, 42
1, 90960, Tempo, 492732
1, 90960, Note_on_c, 0, 60, 0
1, 90960, Note_on_c, 0, 63, 37
1, 91200, Tempo, 529708
1, 91200, Note_on_c, 0, 63, 0
1, 91200, Note_on_c, 0, 63, 24
1, 91200, Note_on_c, 0, 67, 29
1, 91200, Note_on_c, 0, 56, 19
1, 91200, Note_on_c, 0, 60, 28
1, 91320, Note_on_c, 0, 60, 0
1, 91320, Note_on_c, 0, 63, 0
1, 91320, Note_on_c, 0, 67, 0
1, 91320, Note_on_c, 0, 56, 0
1, 91680, Tempo, 518269
1, 91680, Note_on_c, 0, 62, 18
1, 91680, Note_on_c, 0, 67, 22
1, 91680, Note_on_c, 0, 55, 16
1, 91680, Note_on_c, 0, 58, 24
1, 91800, Note_on_c, 0, 58, 0
1, 91800, Note_on_c, 0, 62, 0
1, 91800, Note_on_c, 0, 67, 0
1, 91800, Note_on_c, 0, 55, 0
1, 92160, Tempo, 450214
1, 93600, Tempo, 446861
1, 94020, Note_on_c, 0, 56, 26
1, 94080, Tempo, 441924
1, 94080, Note_on_c, 0, 58, 33
1, 94200, Note_on_c, 0, 58, 0
1, 94200, Note_on_c, 0, 56, 0
1, 94500, Note_on_c, 0, 56, 24
1, 94560, Note_on_c, 0, 58, 32
1, 94680, Note_on_c, 0, 58, 0
1, 94680, Note_on_c, 0, 56, 0
1, 94980, Note_on_c, 0, 56, 24
1, 95040, Note_on_c, 0, 58, 31
1, 95160, Note_on_c, 0, 58, 0
1, 95160, Note_on_c, 0, 56, 0
1, 95460, Note_on_c, 0, 56, 24
1, 95520, Tempo, 437095
1, 95520, Note_on_c, 0, 58, 30
1, 95640, Note_on_c, 0, 58, 0
1, 95640, Note_on_c, 0, 56, 0
1, 95940, Note_on_c, 0, 56, 22
1, 96000, Note_on_c, 0, 58, 29
1, 96120, Note_on_c, 0, 58, 0
1, 96120, Note_on_c, 0, 56, 0
1, 96420, Note_on_c, 0, 56, 22
1, 96480, Tempo, 437095
1, 96480, Note_on_c, 0, 58, 29
1, 96600, Note_on_c, 0, 58, 0
1, 96600, Note_on_c, 0, 56, 0
1, 96900, Note_on_c, 0, 56, 22
1, 96960, Note_on_c, 0, 58, 28
1, 97080, Note_on_c, 0, 58, 0
1, 97080, Note_on_c, 0, 56, 0
1, 97380, Note_on_c, 0, 56, 20
1, 97440, Tempo, 440302
1, 97440, Note_on_c, 0, 58, 27
1, 97560, Note_on_c, 0, 58, 0
1, 97560, Note_on_c, 0, 56, 0
1, 97920, Tempo, 435508
1, 97920, Note_on_c, 0, 60, 28
1, 97920, Note_on_c, 0, 63, 38
1, 97920, Note_on_c, 0, 56, 22
1, 97920, Note_on_c, 0, 58, 29
1, 97959, Control_c, 0, 64, 127
1, 98040, Note_on_c, 0, 58, 0
1, 98040, Note_on_c, 0, 56, 0
1, 98095, Note_on_c, 0, 63, 0
1, 98095, Note_on_c, 0, 60, 0
1, 98160, Tempo, 455339
1, 98160, Note_on_c, 0, 66, 41
1, 98400, Tempo, 440302
1, 98400, Note_on_c, 0, 70, 46
1, 98400, Note_on_c, 0, 56, 20
1, 98400, Note_on_c, 0, 58, 27
1, 98520, Note_on_c, 0, 58, 0
1, 98520, Note_on_c, 0, 56, 0
1, 98806, Control_c, 0, 64, 0
1, 98820, Note_on_c, 0, 60, 20
1, 98820, Note_on_c, 0, 56, 20
1, 98880, Note_on_c, 0, 63, 27
1, 98880, Note_on_c, 0, 58, 27
1, 99000, Note_on_c, 0, 58, 0
1, 99000, Note_on_c, 0, 56, 0
1, 99000, Note_on_c, 0, 60, 0
1, 99000, Note_on_c, 0, 63, 0
1, 99360, Tempo, 435508
1, 99360, Note_on_c, 0, 66, 0
1, 99360, Note_on_c, 0, 70, 0
1, 99360, Note_on_c, 0, 62, 28
1, 99360, Note_on_c, 0, 65, 38
1, 99360, Note_on_c, 0, 56, 22
1, 99360, Note_on_c, 0, 58, 29
1, 99399, Control_c, 0, 64, 127
1, 99480, Note_on_c, 0, 58, 0
1, 99480, Note_on_c, 0, 56, 0
1, 99535, Note_on_c, 0, 65, 0
1, 99535, Note_on_c, 0, 62, 0
1, 99600, Tempo, 455339
1, 99600, Note_on_c, 0, 68, 41
1, 99840, Tempo, 440302
1, 99840, Note_on_c, 0, 72, 46
1, 99840, Note_on_c, 0, 56, 20
1, 99840, Note_on_c, 0, 58, 27
1, 99960, Note_on_c, 0, 58, 0
1, 99960, Note_on_c, 0, 56, 0
1, 100246, Control_c, 0, 64, 0
1, 100260, Note_on_c, 0, 62, 20
1, 100260, Note_on_c, 0, 56, 20
1, 100320, Note_on_c, 0, 65, 27
1, 100320, Note_on_c, 0, 58, 27
1, 100440, Note_on_c, 0, 58, 0
1, 100440, Note_on_c, 0, 56, 0
1, 100440, Note_on_c, 0, 62, 0
1, 100440, Note_on_c, 0, 65, 0
1, 100800, Tempo, 435508
1, 100800, Note_on_c, 0, 68, 0
1, 100800, Note_on_c, 0, 72, 0
1, 100800, Note_on_c, 0, 60, 28
1, 100800, Note_on_c, 0, 63, 38
1, 100800, Note_on_c, 0, 56, 22
1, 100800, Note_on_c, 0, 58, 29
1, 100839, Control_c, 0, 64, 127
1, 100920, Note_on_c, 0, 58, 0
1, 100920, Note_on_c, 0, 56, 0
1, 101040, Note_on_c, 0, 66, 41
1, 101280, Note_on_c, 0, 66, 0
1, 101280, Note_on_c, 0, 70, 46
1, 101280, Note_on_c, 0, 56, 20
1, 101280, Note_on_c, 0, 58, 27
1, 101400, Note_on_c, 0, 58, 0
1, 101400, Note_on_c, 0, 56, 0
1, 101520, Tempo, 430818
1, 101520, Note_on_c, 0, 60, 0
1, 101520, Note_on_c, 0, 63, 0
1, 101520, Note_on_c, 0, 70, 0
1, 101520, Note_on_c, 0, 60, 28
1, 101520, Note_on_c, 0, 63, 38
1, 101760, Tempo, 421733
1, 101760, Note_on_c, 0, 66, 41
1, 101760, Note_on_c, 0, 56, 20
1, 101760, Note_on_c, 0, 58, 27
1, 101880, Note_on_c, 0, 58, 0
1, 101880, Note_on_c, 0, 56, 0
1, 102000, Tempo, 453618
1, 102000, Note_on_c, 0, 66, 0
1, 102000, Note_on_c, 0, 70, 46
1, 102240, Tempo, 424719
1, 102240, Note_on_c, 0, 70, 0
1, 102240, Note_on_c, 0, 63, 0
1, 102240, Note_on_c, 0, 60, 0
1, 102240, Note_on_c, 0, 62, 28
1, 102240, Note_on_c, 0, 65, 38
1, 102240, Note_on_c, 0, 56, 22
1, 102240, Note_on_c, 0, 58, 29
1, 102240, Control_c, 0, 64, 0
1, 102279, Control_c, 0, 64, 127
1, 102360, Note_on_c, 0, 58, 0
1, 102360, Note_on_c, 0, 56, 0
1, 102415, Note_on_c, 0, 65, 0
1, 102415, Note_on_c, 0, 62, 0
1, 102480, Tempo, 435508
1, 102480, Note_on_c, 0, 68, 41
1, 102720, Tempo, 440302
1, 102720, Note_on_c, 0, 72, 46
1, 102720, Note_on_c, 0, 56, 20
1, 102720, Note_on_c, 0, 58, 27
1, 102840, Note_on_c, 0, 58, 0
1, 102840, Note_on_c, 0, 68, 0
1, 102840, Note_on_c, 0, 72, 0
1, 102840, Note_on_c, 0, 56, 0
1, 102960, Tempo, 469594
1, 103110, Note_on_c, 0, 62, 44
1, 103140, Note_on_c, 0, 65, 46
1, 103140, Note_on_c, 0, 56, 25
1, 103170, Note_on_c, 0, 68, 47
1, 103200, Tempo, 440302
1, 103200, Note_on_c, 0, 72, 50
1, 103200, Note_on_c, 0, 58, 32
1, 103320, Note_on_c, 0, 58, 0
1, 103320, Note_on_c, 0, 65, 0
1, 103320, Note_on_c, 0, 56, 0
1, 103320, Note_on_c, 0, 62, 0
1, 103320, Note_on_c, 0, 72, 0
1, 103320, Note_on_c, 0, 68, 0
1, 103333, Control_c, 0, 64, 0
1, 103680, Tempo, 437095
1, 103680, Note_on_c, 0, 58, 22
1, 103680, Note_on_c, 0, 60, 29
1, 103800, Note_on_c, 0, 60, 0
1, 103800, Note_on_c, 0, 58, 0
1, 104160, Tempo, 432370
1, 104160, Note_on_c, 0, 62, 28
1, 104160, Note_on_c, 0, 65, 38
1, 104160, Note_on_c, 0, 58, 20
1, 104160, Note_on_c, 0, 60, 27
1, 104220, Control_c, 0, 64, 127
1, 104280, Note_on_c, 0, 60, 0
1, 104280, Note_on_c, 0, 58, 0
1, 104400, Tempo, 450214
1, 104400, Note_on_c, 0, 68, 41
1, 104640, Tempo, 440302
1, 104640, Note_on_c, 0, 72, 46
1, 104640, Note_on_c, 0, 58, 20
1, 104640, Note_on_c, 0, 60, 27
1, 104760, Note_on_c, 0, 60, 0
1, 104760, Note_on_c, 0, 58, 0
1, 105120, Tempo, 437095
1, 105120, Note_on_c, 0, 68, 0
1, 105120, Note_on_c, 0, 62, 0
1, 105120, Note_on_c, 0, 65, 0
1, 105120, Note_on_c, 0, 72, 0
1, 105120, Note_on_c, 0, 58, 22
1, 105120, Note_on_c, 0, 60, 29
1, 105120, Control_c, 0, 64, 0
1, 105240, Note_on_c, 0, 60, 0
1, 105240, Note_on_c, 0, 58, 0
1, 105600, Tempo, 432370
1, 105600, Note_on_c, 0, 64, 28
1, 105600, Note_on_c, 0, 67, 38
1, 105600, Note_on_c, 0, 58, 20
1, 105600, Note_on_c, 0, 60, 27
1, 105660, Control_c, 0, 64, 127
1, 105720, Note_on_c, 0, 60, 0
1, 105720, Note_on_c, 0, 58, 0
1, 105840, Tempo, 450214
1, 105840, Note_on_c, 0, 70, 41
1, 106080, Tempo, 440302
1, 106080, Note_on_c, 0, 74, 46
1, 106080, Note_on_c, 0, 60, 27
1, 106080, Note_on_c, 0, 58, 20
1, 106200, Note_on_c, 0, 58, 0
1, 106200, Note_on_c, 0, 60, 0
1, 106320, Tempo, 458821
1, 106560, Tempo, 437095
1, 106560, Note_on_c, 0, 70, 0
1, 106560, Note_on_c, 0, 64, 0
1, 106560, Note_on_c, 0, 67, 0
1, 106560, Note_on_c, 0, 74, 0
1, 106560, Note_on_c, 0, 62, 28
1, 106560, Note_on_c, 0, 65, 38
1, 106560, Note_on_c, 0, 58, 22
1, 106560, Note_on_c, 0, 60, 29
1, 106573, Control_c, 0, 64, 0
1, 106599, Control_c, 0, 64, 127
1, 106680, Note_on_c, 0, 60, 0
1, 106680, Note_on_c, 0, 58, 0
1, 106800, Note_on_c, 0, 68, 41
1, 107040, Tempo, 430818
1, 107040, Note_on_c, 0, 68, 0
1, 107040, Note_on_c, 0, 72, 46
1, 107040, Note_on_c, 0, 58, 20
1, 107040, Note_on_c, 0, 60, 27
1, 107160, Note_on_c, 0, 60, 0
1, 107160, Note_on_c, 0, 58, 0
1, 107280, Tempo, 423221
1, 107280, Note_on_c, 0, 62, 0
1, 107280, Note_on_c, 0, 65, 0
1, 107280, Note_on_c, 0, 72, 0
1, 107280, Note_on_c, 0, 62, 28
1, 107280, Note_on_c, 0, 65, 38
1, 107520, Note_on_c, 0, 68, 41
1, 107520, Note_on_c, 0, 60, 27
1, 107520, Note_on_c, 0, 58, 20
1, 107640, Note_on_c, 0, 58, 0
1, 107640, Note_on_c, 0, 60, 0
1, 107760, Tempo, 453618
1, 107760, Note_on_c, 0, 68, 0
1, 107760, Note_on_c, 0, 72, 46
1, 108000, Tempo, 435508
1, 108000, Note_on_c, 0, 72, 0
1, 108000, Note_on_c, 0, 65, 0
1, 108000, Note_on_c, 0, 62, 0
1, 108000, Note_on_c, 0, 64, 28
1, 108000, Note_on_c, 0, 67, 38
1, 108000, Note_on_c, 0, 58, 22
1, 108000, Note_on_c, 0, 60, 29
1, 108000, Control_c, 0, 64, 0
1, 108039, Control_c, 0, 64, 127
1, 108120, Note_on_c, 0, 60, 0
1, 108120, Note_on_c, 0, 58, 0
1, 108175, Note_on_c, 0, 67, 0
1, 108175, Note_on_c, 0, 64, 0
1, 108240, Tempo, 435508
1, 108240, Note_on_c, 0, 70, 41
1, 108474, Note_on_c, 0, 74, 46
1, 108477, Note_on_c, 0, 60, 27
1, 108480, Tempo, 440302
1, 108480, Note_on_c, 0, 58, 20
1, 108594, Note_on_c, 0, 74, 0
1, 108597, Note_on_c, 0, 60, 0
1, 108600, Note_on_c, 0, 70, 0
1, 108600, Note_on_c, 0, 58, 0
1, 108720, Tempo, 469594
1, 108870, Note_on_c, 0, 64, 44
1, 108900, Note_on_c, 0, 67, 46
1, 108900, Note_on_c, 0, 58, 25
1, 108930, Note_on_c, 0, 70, 47
1, 108960, Tempo, 440302
1, 108960, Note_on_c, 0, 74, 50
1, 108960, Note_on_c, 0, 60, 32
1, 109080, Note_on_c, 0, 60, 0
1, 109080, Note_on_c, 0, 67, 0
1, 109080, Note_on_c, 0, 58, 0
1, 109080, Note_on_c, 0, 64, 0
1, 109080, Note_on_c, 0, 74, 0
1, 109080, Note_on_c, 0, 70, 0
1, 109093, Control_c, 0, 64, 0
1, 109440, Tempo, 435508
1, 109440, Note_on_c, 0, 64, 28
1, 109440, Note_on_c, 0, 67, 38
1, 109440, Control_c, 0, 64, 0
1, 109479, Control_c, 0, 64, 127
1, 109615, Note_on_c, 0, 67, 0
1, 109615, Note_on_c, 0, 64, 0
1, 109680, Tempo, 435508
1, 109680, Note_on_c, 0, 70, 41
1, 109914, Note_on_c, 0, 74, 46
1, 109917, Note_on_c, 0, 60, 27
1, 109920, Tempo, 427746
1, 109920, Note_on_c, 0, 58, 20
1, 110029, Control_c, 0, 64, 0
1, 110034, Note_on_c, 0, 74, 0
1, 110037, Note_on_c, 0, 60, 0
1, 110040, Note_on_c, 0, 70, 0
1, 110040, Note_on_c, 0, 58, 0
1, 110400, Tempo, 467763
1, 110400, Note_on_c, 0, 67, 41
1, 110400, Note_on_c, 0, 70, 42
1, 110400, Note_on_c, 0, 77, 45
1, 110400, Note_on_c, 0, 61, 22
1, 110400, Note_on_c, 0, 63, 28
1, 110472, Control_c, 0, 64, 127
1, 110520, Note_on_c, 0, 63, 0
1, 110520, Note_on_c, 0, 77, 0
1, 110520, Note_on_c, 0, 67, 0
1, 110520, Note_on_c, 0, 70, 0
1, 110520, Note_on_c, 0, 61, 0
1, 110566, Control_c, 0, 64, 0
1, 110812, Control_c, 0, 64, 127
1, 110820, Note_on_c, 0, 70, 46
1, 110820, Note_on_c, 0, 63, 25
1, 110850, Note_on_c, 0, 73, 47
1, 110880, Tempo, 424719
1, 110880, Note_on_c, 0, 80, 50
1, 110880, Note_on_c, 0, 66, 32
1, 111000, Note_on_c, 0, 66, 0
1, 111000, Note_on_c, 0, 73, 0
1, 111000, Note_on_c, 0, 70, 0
1, 111000, Note_on_c, 0, 63, 0
1, 111000, Note_on_c, 0, 80, 0
1, 111120, Control_c, 0, 64, 0
1, 111360, Tempo, 435508
1, 111360, Note_on_c, 0, 61, 32
1, 111480, Note_on_c, 0, 61, 0
1, 111840, Note_on_c, 0, 54, 32
1, 111960, Note_on_c, 0, 54, 0
1, 112320, Tempo, 437095
1, 112320, Note_on_c, 0, 64, 28
1, 112320, Note_on_c, 0, 67, 38
1, 112333, Control_c, 0, 64, 0
1, 112359, Control_c, 0, 64, 127
1, 112560, Note_on_c, 0, 70, 42
1, 112800, Tempo, 430818
1, 112800, Note_on_c, 0, 70, 0
1, 112800, Note_on_c, 0, 74, 49
1, 112800, Note_on_c, 0, 60, 28
1, 112800, Note_on_c, 0, 58, 21
1, 112920, Note_on_c, 0, 58, 0
1, 112920, Note_on_c, 0, 60, 0
1, 113040, Tempo, 421733
1, 113040, Note_on_c, 0, 64, 0
1, 113040, Note_on_c, 0, 67, 0
1, 113040, Note_on_c, 0, 74, 0
1, 113040, Note_on_c, 0, 67, 30
1, 113040, Note_on_c, 0, 70, 41
1, 113280, Note_on_c, 0, 70, 0
1, 113280, Note_on_c, 0, 73, 46
1, 113280, Note_on_c, 0, 63, 30
1, 113280, Note_on_c, 0, 61, 22
1, 113400, Note_on_c, 0, 61, 0
1, 113400, Note_on_c, 0, 63, 0
1, 113520, Tempo, 451909
1, 113520, Note_on_c, 0, 73, 0
1, 113520, Note_on_c, 0, 77, 54
1, 113700, Note_on_c, 0, 77, 0
1, 113700, Note_on_c, 0, 70, 46
1, 113700, Note_on_c, 0, 63, 25
1, 113720, Control_c, 0, 64, 0
1, 113730, Note_on_c, 0, 73, 47
1, 113760, Tempo, 424719
1, 113760, Note_on_c, 0, 67, 0
1, 113760, Note_on_c, 0, 80, 50
1, 113760, Note_on_c, 0, 66, 32
1, 113760, Control_c, 0, 64, 127
1, 113880, Note_on_c, 0, 66, 0
1, 113880, Note_on_c, 0, 70, 0
1, 113880, Note_on_c, 0, 73, 0
1, 113880, Note_on_c, 0, 63, 0
1, 113880, Note_on_c, 0, 80, 0
1, 113929, Control_c, 0, 64, 0
1, 114240, Tempo, 435508
1, 114240, Note_on_c, 0, 61, 32
1, 114360, Note_on_c, 0, 61, 0
1, 114720, Note_on_c, 0, 54, 32
1, 114840, Note_on_c, 0, 54, 0
1, 115140, Tempo, 430818
1, 115140, Note_on_c, 0, 70, 46
1, 115140, Note_on_c, 0, 63, 25
1, 115170, Note_on_c, 0, 73, 47
1, 115200, Tempo, 424719
1, 115200, Note_on_c, 0, 80, 50
1, 115200, Note_on_c, 0, 66, 32
1, 115200, Control_c, 0, 64, 127
1, 115320, Note_on_c, 0, 66, 0
1, 115320, Note_on_c, 0, 73, 0
1, 115320, Note_on_c, 0, 70, 0
1, 115320, Note_on_c, 0, 63, 0
1, 115320, Note_on_c, 0, 80, 0
1, 115414, Control_c, 0, 64, 0
1, 115680, Tempo, 435508
1, 115680, Note_on_c, 0, 61, 32
1, 115800, Note_on_c, 0, 61, 0
1, 116160, Note_on_c, 0, 54, 32
1, 116280, Note_on_c, 0, 54, 0
1, 116566, Control_c, 0, 64, 127
1, 116580, Tempo, 430818
1, 116580, Note_on_c, 0, 70, 41
1, 116580, Note_on_c, 0, 63, 22
1, 116610, Note_on_c, 0, 73, 42
1, 116640, Tempo, 424719
1, 116640, Note_on_c, 0, 80, 45
1, 116640, Note_on_c, 0, 66, 28
1, 116760, Note_on_c, 0, 66, 0
1, 116760, Note_on_c, 0, 73, 0
1, 116760, Note_on_c, 0, 70, 0
1, 116760, Note_on_c, 0, 63, 0
1, 116760, Note_on_c, 0, 80, 0
1, 116828, Control_c, 0, 64, 0
1, 117120, Tempo, 435508
1, 117120, Note_on_c, 0, 61, 28
1, 117240, Note_on_c, 0, 61, 0
1, 117600, Note_on_c, 0, 54, 28
1, 117720, Note_on_c, 0, 54, 0
1, 117840, Tempo, 482820
1, 118080, Tempo, 458821
1, 118080, Note_on_c, 0, 64, 25
1, 118200, Note_on_c, 0, 64, 0
1, 118560, Tempo, 494764
1, 118560, Note_on_c, 0, 61, 25
1, 118680, Note_on_c, 0, 61, 0
1, 119040, Tempo, 482820
1, 119040, Note_on_c, 0, 80, 45
1, 119040, Note_on_c, 0, 54, 25
1, 119160, Note_on_c, 0, 54, 0
1, 119280, Note_on_c, 0, 80, 0
1, 119280, Note_on_c, 0, 85, 36
1, 119460, Note_on_c, 0, 64, 19
1, 119490, Note_on_c, 0, 66, 16
1, 119520, Key_signature, 4, "major"
1, 119520, Tempo, 455339
1, 119520, Note_on_c, 0, 85, 0
1, 119520, Note_on_c, 0, 73, 34
1, 119520, Note_on_c, 0, 78, 44
1, 119520, Note_on_c, 0, 69, 19
1, 119640, Note_on_c, 0, 69, 0
1, 119640, Note_on_c, 0, 64, 0
1, 119640, Note_on_c, 0, 73, 0
1, 119640, Note_on_c, 0, 66, 0
1, 119940, Note_on_c, 0, 64, 16
1, 119970, Note_on_c, 0, 66, 16
1, 120000, Note_on_c, 0, 73, 34
1, 120000, Note_on_c, 0, 69, 19
1, 120120, Note_on_c, 0, 69, 0
1, 120120, Note_on_c, 0, 66, 0
1, 120120, Note_on_c, 0, 73, 0
1, 120120, Note_on_c, 0, 64, 0
1, 120420, Note_on_c, 0, 64, 16
1, 120450, Note_on_c, 0, 66, 16
1, 120480, Tempo, 443557
1, 120480, Note_on_c, 0, 78, 0
1, 120480, Note_on_c, 0, 73, 34
1, 120480, Note_on_c, 0, 80, 33
1, 120480, Note_on_c, 0, 69, 19
1, 120600, Note_on_c, 0, 69, 0
1, 120600, Note_on_c, 0, 64, 0
1, 120600, Note_on_c, 0, 73, 0
1, 120600, Note_on_c, 0, 66, 0
1, 120720, Note_on_c, 0, 80, 0
1, 120720, Note_on_c, 0, 85, 40
1, 120900, Note_on_c, 0, 64, 16
1, 120930, Note_on_c, 0, 66, 16
1, 120960, Tempo, 455339
1, 120960, Note_on_c, 0, 85, 0
1, 120960, Note_on_c, 0, 78, 40
1, 120960, Note_on_c, 0, 73, 34
1, 120960, Note_on_c, 0, 69, 19
1, 121080, Note_on_c, 0, 69, 0
1, 121080, Note_on_c, 0, 78, 0
1, 121080, Note_on_c, 0, 64, 0
1, 121080, Note_on_c, 0, 66, 0
1, 121080, Note_on_c, 0, 73, 0
1, 121380, Note_on_c, 0, 64, 16
1, 121410, Note_on_c, 0, 66, 16
1, 121440, Tempo, 448531
1, 121440, Note_on_c, 0, 80, 40
1, 121440, Note_on_c, 0, 73, 34
1, 121440, Note_on_c, 0, 69, 19
1, 121560, Note_on_c, 0, 69, 0
1, 121560, Note_on_c, 0, 80, 0
1, 121560, Note_on_c, 0, 64, 0
1, 121560, Note_on_c, 0, 66, 0
1, 121560, Note_on_c, 0, 73, 0
1, 121860, Note_on_c, 0, 64, 16
1, 121890, Note_on_c, 0, 66, 16
1, 121920, Tempo, 453618
1, 121920, Note_on_c, 0, 73, 34
1, 121920, Note_on_c, 0, 69, 19
1, 122040, Note_on_c, 0, 69, 0
1, 122040, Note_on_c, 0, 64, 0
1, 122040, Note_on_c, 0, 66, 0
1, 122040, Note_on_c, 0, 73, 0
1, 122400, Tempo, 446861
1, 122400, Note_on_c, 0, 73, 35
1, 122400, Note_on_c, 0, 78, 42
1, 122400, Note_on_c, 0, 64, 16
1, 122400, Note_on_c, 0, 66, 16
1, 122400, Note_on_c, 0, 69, 19
1, 122520, Note_on_c, 0, 69, 0
1, 122520, Note_on_c, 0, 64, 0
1, 122520, Note_on_c, 0, 66, 0
1, 122520, Note_on_c, 0, 73, 0
1, 122880, Tempo, 441924
1, 122880, Note_on_c, 0, 73, 38
1, 122880, Note_on_c, 0, 64, 16
1, 122880, Note_on_c, 0, 66, 16
1, 122880, Note_on_c, 0, 69, 19
1, 123000, Note_on_c, 0, 69, 0
1, 123000, Note_on_c, 0, 64, 0
1, 123000, Note_on_c, 0, 66, 0
1, 123000, Note_on_c, 0, 73, 0
1, 123360, Tempo, 446861
1, 123360, Note_on_c, 0, 73, 38
1, 123360, Note_on_c, 0, 64, 16
1, 123360, Note_on_c, 0, 66, 16
1, 123360, Note_on_c, 0, 69, 19
1, 123480, Note_on_c, 0, 69, 0
1, 123480, Note_on_c, 0, 64, 0
1, 123480, Note_on_c, 0, 66, 0
1, 123480, Note_on_c, 0, 73, 0
1, 123840, Tempo, 438693
1, 123840, Note_on_c, 0, 78, 0
1, 123840, Note_on_c, 0, 72, 32
1, 123840, Note_on_c, 0, 80, 38
1, 123840, Note_on_c, 0, 63, 16
1, 123840, Note_on_c, 0, 66, 16
1, 123840, Note_on_c, 0, 69, 19
1, 123960, Note_on_c, 0, 69, 0
1, 123960, Note_on_c, 0, 63, 0
1, 123960, Note_on_c, 0, 72, 0
1, 123960, Note_on_c, 0, 80, 0
1, 123960, Note_on_c, 0, 66, 0
1, 124320, Tempo, 455339
1, 124320, Note_on_c, 0, 73, 34
1, 124320, Note_on_c, 0, 78, 41
1, 124320, Note_on_c, 0, 61, 17
1, 124320, Note_on_c, 0, 66, 17
1, 124320, Note_on_c, 0, 69, 20
1, 124440, Note_on_c, 0, 69, 0
1, 124440, Note_on_c, 0, 61, 0
1, 124440, Note_on_c, 0, 73, 0
1, 124440, Note_on_c, 0, 78, 0
1, 124440, Note_on_c, 0, 66, 0
1, 124800, Tempo, 465947
1, 124800, Note_on_c, 0, 74, 41
1, 124800, Note_on_c, 0, 80, 49
1, 124800, Note_on_c, 0, 60, 17
1, 124800, Note_on_c, 0, 66, 17
1, 124800, Note_on_c, 0, 69, 21
1, 124920, Note_on_c, 0, 69, 0
1, 124920, Note_on_c, 0, 60, 0
1, 124920, Note_on_c, 0, 74, 0
1, 124920, Note_on_c, 0, 80, 0
1, 124920, Note_on_c, 0, 66, 0
1, 125280, Tempo, 453618
1, 125280, Note_on_c, 0, 73, 40
1, 125280, Note_on_c, 0, 68, 34
1, 125280, Note_on_c, 0, 59, 16
1, 125280, Note_on_c, 0, 61, 16
1, 125280, Note_on_c, 0, 65, 19
1, 125400, Note_on_c, 0, 65, 0
1, 125400, Note_on_c, 0, 59, 0
1, 125400, Note_on_c, 0, 61, 0
1, 125400, Note_on_c, 0, 68, 0
1, 125760, Note_on_c, 0, 68, 34
1, 125760, Note_on_c, 0, 59, 16
1, 125760, Note_on_c, 0, 61, 16
1, 125760, Note_on_c, 0, 65, 19
1, 125880, Note_on_c, 0, 65, 0
1, 125880, Note_on_c, 0, 59, 0
1, 125880, Note_on_c, 0, 61, 0
1, 125880, Note_on_c, 0, 68, 0
1, 126240, Note_on_c, 0, 68, 34
1, 126240, Note_on_c, 0, 59, 16
1, 126240, Note_on_c, 0, 61, 16
1, 126240, Note_on_c, 0, 65, 19
1, 126360, Note_on_c, 0, 65, 0
1, 126360, Note_on_c, 0, 59, 0
1, 126360, Note_on_c, 0, 61, 0
1, 126360, Note_on_c, 0, 68, 0
1, 126720, Tempo, 462356
1, 126720, Note_on_c, 0, 73, 0
1, 126720, Note_on_c, 0, 67, 39
1, 126720, Note_on_c, 0, 75, 47
1, 126720, Note_on_c, 0, 58, 16
1, 126720, Note_on_c, 0, 61, 16
1, 126720, Note_on_c, 0, 64, 19
1, 126840, Note_on_c, 0, 64, 0
1, 126840, Note_on_c, 0, 58, 0
1, 126840, Note_on_c, 0, 67, 0
1, 126840, Note_on_c, 0, 75, 0
1, 126840, Note_on_c, 0, 61, 0
1, 127200, Tempo, 492732
1, 127200, Note_on_c, 0, 68, 35
1, 127200, Note_on_c, 0, 73, 42
1, 127200, Note_on_c, 0, 56, 14
1, 127200, Note_on_c, 0, 61, 14
1, 127200, Note_on_c, 0, 64, 17
1, 127320, Note_on_c, 0, 64, 0
1, 127320, Note_on_c, 0, 56, 0
1, 127320, Note_on_c, 0, 68, 0
1, 127320, Note_on_c, 0, 73, 0
1, 127320, Note_on_c, 0, 61, 0
1, 127680, Tempo, 516040
1, 127680, Note_on_c, 0, 69, 34
1, 127680, Note_on_c, 0, 75, 41
1, 127680, Note_on_c, 0, 55, 13
1, 127680, Note_on_c, 0, 61, 13
1, 127680, Note_on_c, 0, 64, 17
1, 127800, Note_on_c, 0, 64, 0
1, 127800, Note_on_c, 0, 55, 0
1, 127800, Note_on_c, 0, 69, 0
1, 127800, Note_on_c, 0, 75, 0
1, 127800, Note_on_c, 0, 61, 0
1, 128120, Note_on_c, 0, 54, 57
1, 128130, Note_on_c, 0, 58, 58
1, 128140, Note_on_c, 0, 61, 67
1, 128150, Note_on_c, 0, 64, 69
1, 128160, Tempo, 443557
1, 128160, Note_on_c, 0, 68, 75
1, 128280, Note_on_c, 0, 68, 0
1, 128280, Note_on_c, 0, 61, 0
1, 128280, Note_on_c, 0, 54, 0
1, 128280, Note_on_c, 0, 58, 0
1, 128280, Note_on_c, 0, 64, 0
1, 128600, Note_on_c, 0, 54, 57
1, 128610, Note_on_c, 0, 58, 58
1, 128620, Note_on_c, 0, 61, 67
1, 128630, Note_on_c, 0, 64, 69
1, 128640, Note_on_c, 0, 68, 75
1, 128760, Note_on_c, 0, 68, 0
1, 128760, Note_on_c, 0, 61, 0
1, 128760, Note_on_c, 0, 54, 0
1, 128760, Note_on_c, 0, 58, 0
1, 128760, Note_on_c, 0, 64, 0
1, 129080, Note_on_c, 0, 54, 57
1, 129090, Note_on_c, 0, 58, 58
1, 129100, Note_on_c, 0, 61, 67
1, 129110, Note_on_c, 0, 64, 69
1, 129120, Note_on_c, 0, 68, 75
1, 129240, Note_on_c, 0, 68, 0
1, 129240, Note_on_c, 0, 61, 0
1, 129240, Note_on_c, 0, 54, 0
1, 129240, Note_on_c, 0, 58, 0
1, 129240, Note_on_c, 0, 64, 0
1, 129560, Note_on_c, 0, 54, 55
1, 129570, Note_on_c, 0, 58, 55
1, 129580, Note_on_c, 0, 61, 63
1, 129590, Note_on_c, 0, 64, 66
1, 129600, Tempo, 445203
1, 129600, Note_on_c, 0, 68, 71
1, 129720, Note_on_c, 0, 68, 0
1, 129720, Note_on_c, 0, 61, 0
1, 129720, Note_on_c, 0, 54, 0
1, 129720, Note_on_c, 0, 58, 0
1, 129720, Note_on_c, 0, 64, 0
1, 130040, Note_on_c, 0, 54, 52
1, 130050, Note_on_c, 0, 58, 53
1, 130060, Note_on_c, 0, 61, 61
1, 130070, Note_on_c, 0, 64, 63
1, 130080, Tempo, 450214
1, 130080, Note_on_c, 0, 68, 68
1, 130200, Note_on_c, 0, 68, 0
1, 130200, Note_on_c, 0, 61, 0
1, 130200, Note_on_c, 0, 54, 0
1, 130200, Note_on_c, 0, 58, 0
1, 130200, Note_on_c, 0, 64, 0
1, 130520, Note_on_c, 0, 54, 49
1, 130530, Note_on_c, 0, 58, 50
1, 130540, Note_on_c, 0, 61, 57
1, 130550, Note_on_c, 0, 64, 59
1, 130560, Tempo, 455339
1, 130560, Note_on_c, 0, 68, 64
1, 130680, Note_on_c, 0, 68, 0
1, 130680, Note_on_c, 0, 61, 0
1, 130680, Note_on_c, 0, 54, 0
1, 130680, Note_on_c, 0, 58, 0
1, 130680, Note_on_c, 0, 64, 0
1, 131000, Note_on_c, 0, 54, 32
1, 131010, Note_on_c, 0, 57, 33
1, 131020, Note_on_c, 0, 61, 38
1, 131030, Note_on_c, 0, 63, 39
1, 131040, Tempo, 473298
1, 131040, Note_on_c, 0, 68, 43
1, 131160, Note_on_c, 0, 68, 0
1, 131160, Note_on_c, 0, 61, 0
1, 131160, Note_on_c, 0, 54, 0
1, 131160, Note_on_c, 0, 57, 0
1, 131160, Note_on_c, 0, 63, 0
1, 131480, Note_on_c, 0, 54, 30
1, 131490, Note_on_c, 0, 57, 30
1, 131500, Note_on_c, 0, 61, 35
1, 131510, Note_on_c, 0, 63, 36
1, 131520, Tempo, 496812
1, 131520, Note_on_c, 0, 68, 40
1, 131640, Note_on_c, 0, 68, 0
1, 131640, Note_on_c, 0, 61, 0
1, 131640, Note_on_c, 0, 54, 0
1, 131640, Note_on_c, 0, 57, 0
1, 131640, Note_on_c, 0, 63, 0
1, 131960, Note_on_c, 0, 54, 27
1, 131970, Note_on_c, 0, 57, 28
1, 131980, Note_on_c, 0, 61, 32
1, 131990, Note_on_c, 0, 63, 33
1, 132000, Tempo, 520517
1, 132000, Note_on_c, 0, 68, 36
1, 132120, Note_on_c, 0, 68, 0
1, 132120, Note_on_c, 0, 61, 0
1, 132120, Note_on_c, 0, 54, 0
1, 132120, Note_on_c, 0, 57, 0
1, 132120, Note_on_c, 0, 63, 0
1, 132460, Note_on_c, 0, 57, 27
1, 132480, Tempo, 453618
1, 132480, Note_on_c, 0, 59, 32
1, 132480, Note_on_c, 0, 47, 37
1, 132600, Note_on_c, 0, 59, 0
1, 132600, Note_on_c, 0, 57, 0
1, 132940, Note_on_c, 0, 57, 27
1, 132960, Note_on_c, 0, 59, 32
1, 133080, Note_on_c, 0, 59, 0
1, 133080, Note_on_c, 0, 57, 0
1, 133420, Note_on_c, 0, 57, 27
1, 133440, Note_on_c, 0, 59, 32
1, 133560, Note_on_c, 0, 59, 0
1, 133560, Note_on_c, 0, 57, 0
1, 133900, Note_on_c, 0, 56, 27
1, 133910, Note_on_c, 0, 59, 27
1, 133920, Note_on_c, 0, 61, 32
1, 133920, Note_on_c, 0, 40, 26
1, 134040, Note_on_c, 0, 61, 0
1, 134040, Note_on_c, 0, 59, 0
1, 134040, Note_on_c, 0, 56, 0
1, 134380, Note_on_c, 0, 56, 27
1, 134390, Note_on_c, 0, 59, 27
1, 134400, Note_on_c, 0, 61, 32
1, 134520, Note_on_c, 0, 61, 0
1, 134520, Note_on_c, 0, 56, 0
1, 134520, Note_on_c, 0, 59, 0
1, 134860, Note_on_c, 0, 56, 27
1, 134870, Note_on_c, 0, 59, 27
1, 134880, Note_on_c, 0, 61, 32
1, 135000, Note_on_c, 0, 61, 0
1, 135000, Note_on_c, 0, 56, 0
1, 135000, Note_on_c, 0, 59, 0
1, 135120, Tempo, 473298
1, 135120, Note_on_c, 0, 47, 0
1, 135120, Note_on_c, 0, 49, 33
1, 135340, Note_on_c, 0, 56, 27
1, 135350, Note_on_c, 0, 59, 27
1, 135360, Tempo, 451909
1, 135360, Note_on_c, 0, 49, 0
1, 135360, Note_on_c, 0, 61, 32
1, 135360, Note_on_c, 0, 51, 40
1, 135480, Note_on_c, 0, 61, 0
1, 135480, Note_on_c, 0, 59, 0
1, 135480, Note_on_c, 0, 56, 0
1, 135820, Note_on_c, 0, 56, 27
1, 135830, Note_on_c, 0, 59, 27
1, 135840, Note_on_c, 0, 61, 32
1, 135960, Note_on_c, 0, 61, 0
1, 135960, Note_on_c, 0, 56, 0
1, 135960, Note_on_c, 0, 59, 0
1, 136300, Note_on_c, 0, 56, 27
1, 136310, Note_on_c, 0, 59, 27
1, 136320, Note_on_c, 0, 61, 32
1, 136440, Note_on_c, 0, 61, 0
1, 136440, Note_on_c, 0, 56, 0
1, 136440, Note_on_c, 0, 59, 0
1, 136560, Tempo, 473298
1, 136560, Note_on_c, 0, 51, 0
1, 136560, Note_on_c, 0, 49, 33
1, 136780, Note_on_c, 0, 55, 27
1, 136790, Note_on_c, 0, 58, 27
1, 136800, Tempo, 450214
1, 136800, Note_on_c, 0, 49, 0
1, 136800, Note_on_c, 0, 40, 0
1, 136800, Note_on_c, 0, 62, 32
1, 136800, Note_on_c, 0, 48, 40
1, 136800, Note_on_c, 0, 40, 26
1, 136920, Note_on_c, 0, 62, 0
1, 136920, Note_on_c, 0, 58, 0
1, 136920, Note_on_c, 0, 55, 0
1, 136920, Control_c, 0, 64, 127
1, 137260, Note_on_c, 0, 55, 27
1, 137270, Note_on_c, 0, 58, 27
1, 137280, Note_on_c, 0, 62, 32
1, 137400, Note_on_c, 0, 62, 0
1, 137400, Note_on_c, 0, 55, 0
1, 137400, Note_on_c, 0, 58, 0
1, 137475, Tempo, 446861
1, 137520, Note_on_c, 0, 48, 0
1, 137520, Note_on_c, 0, 50, 40
1, 137619, Tempo, 445203
1, 137739, Tempo, 443557
1, 137760, Note_on_c, 0, 50, 0
1, 137760, Note_on_c, 0, 52, 41
1, 137773, Control_c, 0, 64, 0
1, 137859, Tempo, 441924
1, 137880, Control_c, 0, 64, 127
1, 137979, Tempo, 440302
1, 138000, Note_on_c, 0, 52, 0
1, 138000, Note_on_c, 0, 54, 45
1, 138099, Tempo, 438693
1, 138219, Tempo, 437095
1, 138240, Note_on_c, 0, 54, 0
1, 138240, Note_on_c, 0, 40, 0
1, 138240, Note_on_c, 0, 55, 49
1, 138241, Control_c, 0, 64, 0
1, 138480, Tempo, 482820
1, 138480, Note_on_c, 0, 55, 0
1, 138480, Note_on_c, 0, 57, 55
1, 138720, Tempo, 494764
1, 138720, Note_on_c, 0, 57, 0
1, 138720, Note_on_c, 0, 58, 33
1, 138840, Note_on_c, 0, 58, 0
1, 139200, Note_on_c, 0, 60, 33
1, 139320, Note_on_c, 0, 60, 0
1, 139660, Tempo, 453618
1, 139660, Note_on_c, 0, 56, 27
1, 139670, Note_on_c, 0, 59, 27
1, 139680, Note_on_c, 0, 61, 32
1, 139680, Note_on_c, 0, 47, 40
1, 139680, Note_on_c, 0, 40, 26
1, 139800, Note_on_c, 0, 61, 0
1, 139800, Note_on_c, 0, 56, 0
1, 139800, Note_on_c, 0, 59, 0
1, 140140, Note_on_c, 0, 56, 27
1, 140150, Note_on_c, 0, 59, 27
1, 140160, Note_on_c, 0, 61, 32
1, 140280, Note_on_c, 0, 61, 0
1, 140280, Note_on_c, 0, 56, 0
1, 140280, Note_on_c, 0, 59, 0
1, 140620, Note_on_c, 0, 56, 27
1, 140630, Note_on_c, 0, 59, 27
1, 140640, Note_on_c, 0, 61, 32
1, 140760, Note_on_c, 0, 61, 0
1, 140760, Note_on_c, 0, 56, 0
1, 140760, Note_on_c, 0, 59, 0
1, 140880, Tempo, 473298
1, 140880, Note_on_c, 0, 47, 0
1, 140880, Note_on_c, 0, 49, 33
1, 141100, Note_on_c, 0, 56, 27
1, 141110, Note_on_c, 0, 59, 27
1, 141120, Tempo, 451909
1, 141120, Note_on_c, 0, 49, 0
1, 141120, Note_on_c, 0, 61, 32
1, 141120, Note_on_c, 0, 51, 40
1, 141240, Note_on_c, 0, 61, 0
1, 141240, Note_on_c, 0, 59, 0
1, 141240, Note_on_c, 0, 56, 0
1, 141580, Note_on_c, 0, 56, 27
1, 141590, Note_on_c, 0, 59, 27
1, 141600, Note_on_c, 0, 61, 32
1, 141720, Note_on_c, 0, 61, 0
1, 141720, Note_on_c, 0, 56, 0
1, 141720, Note_on_c, 0, 59, 0
1, 142060, Note_on_c, 0, 56, 27
1, 142070, Note_on_c, 0, 59, 27
1, 142080, Note_on_c, 0, 61, 32
1, 142200, Note_on_c, 0, 61, 0
1, 142200, Note_on_c, 0, 56, 0
1, 142200, Note_on_c, 0, 59, 0
1, 142320, Tempo, 473298
1, 142320, Note_on_c, 0, 51, 0
1, 142320, Note_on_c, 0, 49, 33
1, 142540, Note_on_c, 0, 55, 27
1, 142550, Note_on_c, 0, 58, 27
1, 142560, Tempo, 450214
1, 142560, Note_on_c, 0, 49, 0
1, 142560, Note_on_c, 0, 40, 0
1, 142560, Note_on_c, 0, 62, 32
1, 142560, Note_on_c, 0, 48, 40
1, 142560, Note_on_c, 0, 40, 26
1, 142675, Control_c, 0, 64, 127
1, 142680, Note_on_c, 0, 62, 0
1, 142680, Note_on_c, 0, 58, 0
1, 142680, Note_on_c, 0, 55, 0
1, 143020, Note_on_c, 0, 55, 27
1, 143030, Note_on_c, 0, 58, 27
1, 143040, Note_on_c, 0, 62, 32
1, 143160, Note_on_c, 0, 62, 0
1, 143160, Note_on_c, 0, 55, 0
1, 143160, Note_on_c, 0, 58, 0
1, 143235, Tempo, 446861
1, 143280, Note_on_c, 0, 48, 0
1, 143280, Note_on_c, 0, 50, 40
1, 143379, Tempo, 445203
1, 143499, Tempo, 443557
1, 143520, Note_on_c, 0, 50, 0
1, 143520, Note_on_c, 0, 52, 41
1, 143533, Control_c, 0, 64, 0
1, 143619, Tempo, 441924
1, 143640, Control_c, 0, 64, 127
1, 143739, Tempo, 440302
1, 143760, Note_on_c, 0, 52, 0
1, 143760, Note_on_c, 0, 54, 45
1, 143859, Tempo, 438693
1, 143979, Tempo, 437095
1, 144000, Note_on_c, 0, 54, 0
1, 144000, Note_on_c, 0, 40, 0
1, 144000, Note_on_c, 0, 55, 49
1, 144001, Control_c, 0, 64, 0
1, 144240, Tempo, 482820
1, 144240, Note_on_c, 0, 55, 0
1, 144240, Note_on_c, 0, 57, 55
1, 144480, Tempo, 494764
1, 144480, Note_on_c, 0, 57, 0
1, 144480, Note_on_c, 0, 58, 33
1, 144600, Note_on_c, 0, 58, 0
1, 144960, Note_on_c, 0, 60, 33
1, 145080, Note_on_c, 0, 60, 0
1, 145920, Tempo, 457073
1, 145920, Note_on_c, 0, 60, 45
1, 146160, Note_on_c, 0, 60, 0
1, 146160, Note_on_c, 0, 62, 41
1, 146400, Tempo, 443557
1, 146400, Note_on_c, 0, 62, 0
1, 146400, Note_on_c, 0, 64, 41
1, 146413, Control_c, 0, 64, 0
1, 146499, Tempo, 441924
1, 146520, Control_c, 0, 64, 127
1, 146619, Tempo, 440302
1, 146640, Note_on_c, 0, 64, 0
1, 146640, Note_on_c, 0, 66, 45
1, 146739, Tempo, 438693
1, 146859, Tempo, 437095
1, 146880, Note_on_c, 0, 66, 0
1, 146880, Note_on_c, 0, 67, 49
1, 146881, Control_c, 0, 64, 0
1, 147120, Tempo, 482820
1, 147120, Note_on_c, 0, 67, 0
1, 147120, Note_on_c, 0, 69, 55
1, 147360, Tempo, 494764
1, 147360, Note_on_c, 0, 69, 0
1, 147360, Note_on_c, 0, 70, 33
1, 147480, Note_on_c, 0, 70, 0
1, 147840, Note_on_c, 0, 72, 33
1, 147960, Note_on_c, 0, 72, 0
1, 148800, Tempo, 457073
1, 148800, Note_on_c, 0, 72, 45
1, 149040, Note_on_c, 0, 72, 0
1, 149040, Note_on_c, 0, 74, 41
1, 149280, Tempo, 443557
1, 149280, Note_on_c, 0, 74, 0
1, 149280, Note_on_c, 0, 76, 41
1, 149293, Control_c, 0, 64, 0
1, 149379, Tempo, 441924
1, 149400, Control_c, 0, 64, 127
1, 149499, Tempo, 440302
1, 149520, Note_on_c, 0, 76, 0
1, 149520, Note_on_c, 0, 78, 45
1, 149619, Tempo, 438693
1, 149739, Tempo, 437095
1, 149760, Note_on_c, 0, 78, 0
1, 149760, Note_on_c, 0, 79, 49
1, 149761, Control_c, 0, 64, 0
1, 150000, Tempo, 482820
1, 150000, Note_on_c, 0, 79, 0
1, 150000, Note_on_c, 0, 81, 55
1, 150240, Tempo, 513831
1, 150240, Note_on_c, 0, 81, 0
1, 150240, Note_on_c, 0, 82, 33
1, 150360, Note_on_c, 0, 82, 0
1, 150685, Note_on_c, 0, 71, 45
1, 150690, Note_on_c, 0, 75, 46
1, 150705, Note_on_c, 0, 78, 50
1, 150720, Tempo, 492732
1, 150720, Note_on_c, 0, 83, 54
1, 150720, Note_on_c, 0, 69, 48
1, 150720, Note_on_c, 0, 66, 48
1, 150720, Note_on_c, 0, 59, 48
1, 150960, Note_on_c, 0, 59, 0
1, 150960, Note_on_c, 0, 69, 0
1, 150960, Note_on_c, 0, 75, 0
1, 150960, Note_on_c, 0, 78, 0
1, 150960, Note_on_c, 0, 83, 0
1, 150960, Note_on_c, 0, 66, 0
1, 150970, Note_on_c, 0, 71, 0
1, 151680, Tempo, 423221
1, 151680, Note_on_c, 0, 64, 25
1, 151779, Control_c, 0, 64, 127
1, 151920, Note_on_c, 0, 64, 0
1, 151920, Note_on_c, 0, 71, 25
1, 152160, Tempo, 437095
1, 152160, Note_on_c, 0, 71, 0
1, 152160, Note_on_c, 0, 64, 28
1, 152400, Note_on_c, 0, 64, 0
1, 152400, Note_on_c, 0, 71, 28
1, 152640, Tempo, 429277
1, 152640, Note_on_c, 0, 71, 0
1, 152640, Note_on_c, 0, 64, 24
1, 152880, Note_on_c, 0, 64, 0
1, 152880, Note_on_c, 0, 71, 24
1, 153060, Note_on_c, 0, 63, 32
1, 153066, Control_c, 0, 64, 0
1, 153120, Tempo, 423221
1, 153120, Note_on_c, 0, 63, 0
1, 153120, Note_on_c, 0, 71, 0
1, 153120, Note_on_c, 0, 68, 40
1, 153120, Note_on_c, 0, 64, 21
1, 153137, Control_c, 0, 64, 127
1, 153240, Note_on_c, 0, 68, 0
1, 153360, Note_on_c, 0, 64, 0
1, 153360, Note_on_c, 0, 71, 21
1, 153540, Note_on_c, 0, 68, 36
1, 153563, Control_c, 0, 64, 0
1, 153600, Tempo, 437095
1, 153600, Note_on_c, 0, 68, 0
1, 153600, Note_on_c, 0, 71, 0
1, 153600, Note_on_c, 0, 73, 47
1, 153600, Note_on_c, 0, 64, 23
1, 153623, Control_c, 0, 64, 127
1, 153720, Note_on_c, 0, 73, 0
1, 153840, Note_on_c, 0, 64, 0
1, 153840, Note_on_c, 0, 71, 23
1, 154020, Note_on_c, 0, 61, 37
1, 154035, Control_c, 0, 64, 0
1, 154080, Tempo, 430818
1, 154080, Note_on_c, 0, 61, 0
1, 154080, Note_on_c, 0, 71, 0
1, 154080, Note_on_c, 0, 66, 45
1, 154080, Note_on_c, 0, 64, 20
1, 154080, Control_c, 0, 64, 127
1, 154320, Note_on_c, 0, 64, 0
1, 154320, Note_on_c, 0, 71, 20
1, 154560, Tempo, 423221
1, 154560, Note_on_c, 0, 71, 0
1, 154560, Note_on_c, 0, 64, 21
1, 154800, Note_on_c, 0, 64, 0
1, 154800, Note_on_c, 0, 71, 21
1, 155040, Tempo, 437095
1, 155040, Note_on_c, 0, 71, 0
1, 155040, Note_on_c, 0, 64, 23
1, 155280, Note_on_c, 0, 64, 0
1, 155280, Note_on_c, 0, 71, 23
1, 155520, Tempo, 429277
1, 155520, Note_on_c, 0, 71, 0
1, 155520, Note_on_c, 0, 66, 0
1, 155520, Note_on_c, 0, 64, 20
1, 155520, Control_c, 0, 64, 0
1, 155601, Control_c, 0, 64, 127
1, 155760, Note_on_c, 0, 64, 0
1, 155760, Note_on_c, 0, 71, 20
1, 155940, Note_on_c, 0, 70, 32
1, 155946, Control_c, 0, 64, 0
1, 156000, Tempo, 423221
1, 156000, Note_on_c, 0, 70, 0
1, 156000, Note_on_c, 0, 71, 0
1, 156000, Note_on_c, 0, 75, 40
1, 156000, Note_on_c, 0, 64, 21
1, 156017, Control_c, 0, 64, 127
1, 156120, Note_on_c, 0, 75, 0
1, 156240, Note_on_c, 0, 64, 0
1, 156240, Note_on_c, 0, 71, 21
1, 156420, Note_on_c, 0, 75, 36
1, 156443, Control_c, 0, 64, 0
1, 156480, Tempo, 437095
1, 156480, Note_on_c, 0, 75, 0
1, 156480, Note_on_c, 0, 71, 0
1, 156480, Note_on_c, 0, 80, 47
1, 156480, Note_on_c, 0, 64, 23
1, 156503, Control_c, 0, 64, 127
1, 156600, Note_on_c, 0, 80, 0
1, 156720, Note_on_c, 0, 64, 0
1, 156720, Note_on_c, 0, 71, 23
1, 156900, Note_on_c, 0, 68, 37
1, 156915, Control_c, 0, 64, 0
1, 156960, Tempo, 430818
1, 156960, Note_on_c, 0, 68, 0
1, 156960, Note_on_c, 0, 71, 0
1, 156960, Note_on_c, 0, 73, 45
1, 156960, Note_on_c, 0, 64, 20
1, 156960, Control_c, 0, 64, 127
1, 157200, Note_on_c, 0, 64, 0
1, 157200, Note_on_c, 0, 71, 20
1, 157440, Tempo, 423221
1, 157440, Note_on_c, 0, 71, 0
1, 157440, Note_on_c, 0, 64, 21
1, 157680, Note_on_c, 0, 64, 0
1, 157680, Note_on_c, 0, 71, 21
1, 157920, Tempo, 437095
1, 157920, Note_on_c, 0, 71, 0
1, 157920, Note_on_c, 0, 64, 23
1, 158160, Note_on_c, 0, 64, 0
1, 158160, Note_on_c, 0, 71, 23
1, 158400, Tempo, 429277
1, 158400, Note_on_c, 0, 71, 0
1, 158400, Note_on_c, 0, 73, 0
1, 158400, Note_on_c, 0, 64, 20
1, 158400, Control_c, 0, 64, 0
1, 158481, Control_c, 0, 64, 127
1, 158640, Note_on_c, 0, 64, 0
1, 158640, Note_on_c, 0, 71, 20
1, 158820, Note_on_c, 0, 63, 32
1, 158826, Control_c, 0, 64, 0
1, 158880, Tempo, 423221
1, 158880, Note_on_c, 0, 63, 0
1, 158880, Note_on_c, 0, 71, 0
1, 158880, Note_on_c, 0, 68, 40
1, 158880, Note_on_c, 0, 64, 21
1, 158897, Control_c, 0, 64, 127
1, 159000, Note_on_c, 0, 68, 0
1, 159120, Note_on_c, 0, 64, 0
1, 159120, Note_on_c, 0, 71, 21
1, 159300, Note_on_c, 0, 68, 36
1, 159323, Control_c, 0, 64, 0
1, 159360, Tempo, 426227
1, 159360, Note_on_c, 0, 68, 0
1, 159360, Note_on_c, 0, 71, 0
1, 159360, Note_on_c, 0, 73, 47
1, 159360, Note_on_c, 0, 64, 23
1, 159383, Control_c, 0, 64, 127
1, 159480, Note_on_c, 0, 73, 0
1, 159600, Note_on_c, 0, 64, 0
1, 159600, Note_on_c, 0, 71, 23
1, 159780, Note_on_c, 0, 61, 37
1, 159795, Control_c, 0, 64, 0
1, 159840, Tempo, 429277
1, 159840, Note_on_c, 0, 61, 0
1, 159840, Note_on_c, 0, 71, 0
1, 159840, Note_on_c, 0, 66, 44
1, 159840, Note_on_c, 0, 64, 20
1, 159846, Control_c, 0, 64, 127
1, 159960, Note_on_c, 0, 66, 0
1, 160080, Note_on_c, 0, 64, 0
1, 160080, Note_on_c, 0, 71, 20
1, 160260, Note_on_c, 0, 70, 41
1, 160266, Control_c, 0, 64, 0
1, 160320, Tempo, 417333
1, 160320, Note_on_c, 0, 70, 0
1, 160320, Note_on_c, 0, 71, 0
1, 160320, Note_on_c, 0, 75, 49
1, 160320, Note_on_c, 0, 64, 21
1, 160337, Control_c, 0, 64, 127
1, 160440, Note_on_c, 0, 75, 0
1, 160560, Note_on_c, 0, 64, 0
1, 160560, Note_on_c, 0, 71, 21
1, 160740, Note_on_c, 0, 75, 46
1, 160763, Control_c, 0, 64, 0
1, 160800, Tempo, 437095
1, 160800, Note_on_c, 0, 75, 0
1, 160800, Note_on_c, 0, 71, 0
1, 160800, Note_on_c, 0, 80, 59
1, 160800, Note_on_c, 0, 64, 23
1, 160823, Control_c, 0, 64, 127
1, 160920, Note_on_c, 0, 80, 0
1, 161040, Note_on_c, 0, 64, 0
1, 161040, Note_on_c, 0, 71, 23
1, 161220, Note_on_c, 0, 68, 37
1, 161235, Control_c, 0, 64, 0
1, 161280, Tempo, 429277
1, 161280, Note_on_c, 0, 68, 0
1, 161280, Note_on_c, 0, 71, 0
1, 161280, Note_on_c, 0, 73, 44
1, 161280, Note_on_c, 0, 64, 20
1, 161280, Control_c, 0, 64, 0
1, 161361, Control_c, 0, 64, 127
1, 161400, Note_on_c, 0, 73, 0
1, 161520, Note_on_c, 0, 64, 0
1, 161520, Note_on_c, 0, 71, 20
1, 161700, Note_on_c, 0, 63, 32
1, 161706, Control_c, 0, 64, 0
1, 161760, Tempo, 423221
1, 161760, Note_on_c, 0, 63, 0
1, 161760, Note_on_c, 0, 71, 0
1, 161760, Note_on_c, 0, 68, 40
1, 161760, Note_on_c, 0, 64, 21
1, 161777, Control_c, 0, 64, 127
1, 161880, Note_on_c, 0, 68, 0
1, 162000, Note_on_c, 0, 64, 0
1, 162000, Note_on_c, 0, 71, 21
1, 162180, Note_on_c, 0, 68, 36
1, 162203, Control_c, 0, 64, 0
1, 162240, Tempo, 426227
1, 162240, Note_on_c, 0, 68, 0
1, 162240, Note_on_c, 0, 71, 0
1, 162240, Note_on_c, 0, 73, 47
1, 162240, Note_on_c, 0, 64, 23
1, 162263, Control_c, 0, 64, 127
1, 162360, Note_on_c, 0, 73, 0
1, 162480, Note_on_c, 0, 64, 0
1, 162480, Note_on_c, 0, 71, 23
1, 162660, Note_on_c, 0, 61, 37
1, 162675, Control_c, 0, 64, 0
1, 162720, Tempo, 429277
1, 162720, Note_on_c, 0, 61, 0
1, 162720, Note_on_c, 0, 71, 0
1, 162720, Note_on_c, 0, 66, 44
1, 162720, Note_on_c, 0, 64, 20
1, 162726, Control_c, 0, 64, 127
1, 162840, Note_on_c, 0, 66, 0
1, 162960, Note_on_c, 0, 64, 0
1, 162960, Note_on_c, 0, 71, 20
1, 163140, Note_on_c, 0, 70, 41
1, 163146, Control_c, 0, 64, 0
1, 163200, Tempo, 417333
1, 163200, Note_on_c, 0, 70, 0
1, 163200, Note_on_c, 0, 71, 0
1, 163200, Note_on_c, 0, 75, 49
1, 163200, Note_on_c, 0, 64, 21
1, 163217, Control_c, 0, 64, 127
1, 163320, Note_on_c, 0, 75, 0
1, 163440, Note_on_c, 0, 64, 0
1, 163440, Note_on_c, 0, 71, 21
1, 163620, Note_on_c, 0, 75, 46
1, 163643, Control_c, 0, 64, 0
1, 163680, Tempo, 437095
1, 163680, Note_on_c, 0, 75, 0
1, 163680, Note_on_c, 0, 71, 0
1, 163680, Note_on_c, 0, 80, 59
1, 163680, Note_on_c, 0, 64, 23
1, 163703, Control_c, 0, 64, 127
1, 163800, Note_on_c, 0, 80, 0
1, 163920, Note_on_c, 0, 64, 0
1, 163920, Note_on_c, 0, 71, 23
1, 164160, Tempo, 423221
1, 164160, Note_on_c, 0, 71, 0
1, 164160, Note_on_c, 0, 73, 33
1, 164160, Note_on_c, 0, 68, 26
1, 164160, Control_c, 0, 64, 0
1, 164330, Control_c, 0, 64, 127
1, 164400, Note_on_c, 0, 68, 0
1, 164400, Note_on_c, 0, 73, 0
1, 164400, Note_on_c, 0, 64, 17
1, 164400, Note_on_c, 0, 71, 22
1, 164640, Tempo, 420256
1, 164640, Note_on_c, 0, 71, 0
1, 164640, Note_on_c, 0, 64, 0
1, 164640, Note_on_c, 0, 63, 25
1, 164640, Note_on_c, 0, 68, 32
1, 164880, Note_on_c, 0, 68, 0
1, 164880, Note_on_c, 0, 63, 0
1, 164880, Note_on_c, 0, 64, 17
1, 164880, Note_on_c, 0, 71, 22
1, 165120, Note_on_c, 0, 71, 0
1, 165120, Note_on_c, 0, 64, 0
1, 165120, Note_on_c, 0, 68, 26
1, 165120, Note_on_c, 0, 73, 33
1, 165360, Note_on_c, 0, 73, 0
1, 165360, Note_on_c, 0, 68, 0
1, 165360, Note_on_c, 0, 64, 18
1, 165360, Note_on_c, 0, 71, 23
1, 165600, Tempo, 421733
1, 165600, Note_on_c, 0, 71, 0
1, 165600, Note_on_c, 0, 64, 0
1, 165600, Note_on_c, 0, 68, 33
1, 165600, Note_on_c, 0, 63, 26
1, 165840, Note_on_c, 0, 63, 0
1, 165840, Note_on_c, 0, 68, 0
1, 165840, Note_on_c, 0, 64, 17
1, 165840, Note_on_c, 0, 71, 22
1, 166080, Note_on_c, 0, 71, 0
1, 166080, Note_on_c, 0, 64, 0
1, 166080, Note_on_c, 0, 68, 25
1, 166080, Note_on_c, 0, 73, 32
1, 166320, Note_on_c, 0, 73, 0
1, 166320, Note_on_c, 0, 68, 0
1, 166320, Note_on_c, 0, 64, 17
1, 166320, Note_on_c, 0, 71, 22
1, 166560, Tempo, 432370
1, 166560, Note_on_c, 0, 71, 0
1, 166560, Note_on_c, 0, 64, 0
1, 166560, Note_on_c, 0, 63, 26
1, 166560, Note_on_c, 0, 68, 33
1, 166800, Tempo, 490717
1, 166800, Note_on_c, 0, 68, 0
1, 166800, Note_on_c, 0, 63, 0
1, 166800, Note_on_c, 0, 64, 18
1, 166800, Note_on_c, 0, 71, 23
1, 167040, Tempo, 433934
1, 167040, Note_on_c, 0, 71, 0
1, 167040, Note_on_c, 0, 64, 0
1, 167040, Note_on_c, 0, 73, 28
1, 167040, Note_on_c, 0, 68, 22
1, 167045, Control_c, 0, 64, 0
1, 167210, Control_c, 0, 64, 127
1, 167280, Note_on_c, 0, 68, 0
1, 167280, Note_on_c, 0, 73, 0
1, 167280, Note_on_c, 0, 64, 14
1, 167280, Note_on_c, 0, 71, 18
1, 167520, Tempo, 421733
1, 167520, Note_on_c, 0, 71, 0
1, 167520, Note_on_c, 0, 64, 0
1, 167520, Note_on_c, 0, 63, 21
1, 167520, Note_on_c, 0, 68, 27
1, 167760, Note_on_c, 0, 68, 0
1, 167760, Note_on_c, 0, 63, 0
1, 167760, Note_on_c, 0, 64, 14
1, 167760, Note_on_c, 0, 71, 18
1, 168000, Note_on_c, 0, 71, 0
1, 168000, Note_on_c, 0, 64, 0
1, 168000, Note_on_c, 0, 68, 22
1, 168000, Note_on_c, 0, 73, 28
1, 168240, Note_on_c, 0, 73, 0
1, 168240, Note_on_c, 0, 68, 0
1, 168240, Note_on_c, 0, 64, 15
1, 168240, Note_on_c, 0, 71, 19
1, 168480, Tempo, 415887
1, 168480, Note_on_c, 0, 71, 0
1, 168480, Note_on_c, 0, 64, 0
1, 168480, Note_on_c, 0, 68, 28
1, 168480, Note_on_c, 0, 63, 22
1, 168720, Note_on_c, 0, 63, 0
1, 168720, Note_on_c, 0, 68, 0
1, 168720, Note_on_c, 0, 64, 14
1, 168720, Note_on_c, 0, 71, 18
1, 168960, Tempo, 421733
1, 168960, Note_on_c, 0, 71, 0
1, 168960, Note_on_c, 0, 64, 0
1, 168960, Note_on_c, 0, 68, 21
1, 168960, Note_on_c, 0, 73, 27
1, 169200, Note_on_c, 0, 73, 0
1, 169200, Note_on_c, 0, 68, 0
1, 169200, Note_on_c, 0, 64, 14
1, 169200, Note_on_c, 0, 71, 18
1, 169440, Note_on_c, 0, 71, 0
1, 169440, Note_on_c, 0, 64, 0
1, 169440, Note_on_c, 0, 63, 22
1, 169440, Note_on_c, 0, 68, 28
1, 169680, Note_on_c, 0, 68, 0
1, 169680, Note_on_c, 0, 63, 0
1, 169680, Note_on_c, 0, 64, 15
1, 169680, Note_on_c, 0, 71, 19
1, 169920, Tempo, 421733
1, 169920, Note_on_c, 0, 71, 0
1, 169920, Note_on_c, 0, 64, 0
1, 169920, Note_on_c, 0, 68, 28
1, 169920, Note_on_c, 0, 63, 22
1, 170160, Note_on_c, 0, 63, 0
1, 170160, Note_on_c, 0, 68, 0
1, 170287, Control_c, 0, 64, 0
1, 171360, Note_on_c, 0, 63, 23
1, 171360, Note_on_c, 0, 68, 23
1, 171360, Note_on_c, 0, 71, 23
1, 171360, Note_on_c, 0, 56, 16
1, 171360, Note_on_c, 0, 59, 16
1, 171600, Note_on_c, 0, 59, 0
1, 171600, Note_on_c, 0, 71, 0
1, 171600, Note_on_c, 0, 63, 0
1, 171600, Note_on_c, 0, 68, 0
1, 171600, Note_on_c, 0, 56, 0
1, 172800, Tempo, 421733
1, 172800, Note_on_c, 0, 52, 20
1, 173012, Control_c, 0, 64, 127
1, 173040, Note_on_c, 0, 52, 0
1, 173040, Note_on_c, 0, 59, 16
1, 173280, Tempo, 418790
1, 173280, Note_on_c, 0, 59, 0
1, 173280, Note_on_c, 0, 64, 20
1, 173520, Note_on_c, 0, 64, 0
1, 173520, Note_on_c, 0, 68, 22
1, 173760, Tempo, 414451
1, 173760, Note_on_c, 0, 68, 0
1, 173760, Note_on_c, 0, 76, 25
1, 174000, Tempo, 448531
1, 174000, Note_on_c, 0, 76, 0
1, 174000, Note_on_c, 0, 80, 25
1, 174240, Tempo, 418790
1, 174240, Note_on_c, 0, 80, 0
1, 174240, Note_on_c, 0, 88, 29
1, 174480, Note_on_c, 0, 88, 0
1, 175680, Note_on_c, 0, 100, 32
1, 175920, Note_on_c, 0, 100, 0
1, 176923, Control_c, 0, 64, 0
1, 176923, End_track
0, 0, End_of_file
