0, 0, Header, 1, 7, 120
1, 0, Start_track
1, 0, Title_t, "untitled"
1, 0, System_exclusive, 5, 126, 127, 9, 1, 247
1, 0, Time_signature, 4, 2, 24, 8
1, 0, Key_signature, 0, "major"
1, 0, Tempo, 461538
1, 480, Marker_t, "1st Mov't. ""Allegro"""
1, 53280, Time_signature, 3, 2, 24, 8
1, 53280, Tempo, 600000
1, 53280, Marker_t, "2nd Mov't. ""Menuetto"""
1, 71280, Key_signature, -1, "major"
1, 71280, Marker_t, "Trio"
1, 79920, Key_signature, 0, "major"
1, 91080, Time_signature, 2, 2, 24, 8
1, 91080, Marker_t, "3rd Mov't. ""Rondeau"""
1, 124680, Time_signature, 3, 2, 24, 8
1, 124680, Tempo, 750000
1, 131880, Tempo, 1000000
1, 132240, Time_signature, 2, 2, 24, 8
1, 132240, Tempo, 600000
1, 132240, End_track
2, 0, Start_track
2, 0, Title_t, "Primo"
2, 0, Control_c, 0, 121, 0
2, 0, Control_c, 0, 7, 121
2, 120, Program_c, 0, 0
2, 120, Control_c, 0, 7, 115
2, 120, Control_c, 0, 10, 83
2, 120, Control_c, 0, 91, 75
2, 480, Note_on_c, 0, 76, 103
2, 480, Note_on_c, 0, 72, 99
2, 480, Note_on_c, 0, 84, 99
2, 480, Note_on_c, 0, 67, 86
2, 480, Note_on_c, 0, 64, 103
2, 482, Control_c, 0, 64, 127
2, 613, Note_on_c, 0, 72, 0
2, 618, Note_on_c, 0, 76, 0
2, 622, Note_on_c, 0, 84, 0
2, 626, Note_on_c, 0, 67, 0
2, 627, Note_on_c, 0, 64, 0
2, 719, Control_c, 0, 64, 0
2, 720, Note_on_c, 0, 84, 95
2, 720, Note_on_c, 0, 72, 90
2, 720, Note_on_c, 0, 67, 86
2, 720, Note_on_c, 0, 64, 90
2, 720, Note_on_c, 0, 76, 103
2, 751, Control_c, 0, 64, 127
2, 872, Note_on_c, 0, 72, 0
2, 875, Note_on_c, 0, 76, 0
2, 878, Note_on_c, 0, 84, 0
2, 881, Note_on_c, 0, 64, 0
2, 882, Note_on_c, 0, 67, 0
2, 955, Control_c, 0, 64, 0
2, 960, Note_on_c, 0, 76, 95
2, 960, Note_on_c, 0, 84, 99
2, 960, Note_on_c, 0, 72, 99
2, 960, Note_on_c, 0, 67, 90
2, 960, Note_on_c, 0, 64, 90
2, 988, Control_c, 0, 64, 127
2, 1209, Note_on_c, 0, 67, 0
2, 1209, Note_on_c, 0, 72, 0
2, 1210, Note_on_c, 0, 76, 0
2, 1212, Note_on_c, 0, 84, 0
2, 1213, Note_on_c, 0, 64, 0
2, 1217, Control_c, 0, 64, 0
2, 1320, Note_on_c, 0, 79, 99
2, 1326, Control_c, 0, 64, 127
2, 1380, Note_on_c, 0, 76, 95
2, 1383, Note_on_c, 0, 79, 0
2, 1402, Note_on_c, 0, 76, 0
2, 1431, Control_c, 0, 64, 0
2, 1440, Note_on_c, 0, 76, 95
2, 1464, Control_c, 0, 64, 127
2, 1467, Note_on_c, 0, 76, 0
2, 1470, Note_on_c, 0, 74, 86
2, 1491, Note_on_c, 0, 74, 0
2, 1500, Note_on_c, 0, 72, 95
2, 1527, Note_on_c, 0, 72, 0
2, 1560, Note_on_c, 0, 74, 90
2, 1560, Note_on_c, 0, 64, 72
2, 1560, Control_c, 0, 64, 0
2, 1560, Note_on_c, 0, 67, 72
2, 1586, Note_on_c, 0, 74, 0
2, 1590, Note_on_c, 0, 72, 86
2, 1594, Control_c, 0, 64, 127
2, 1614, Note_on_c, 0, 72, 0
2, 1620, Note_on_c, 0, 74, 57
2, 1637, Note_on_c, 0, 67, 0
2, 1641, Note_on_c, 0, 64, 0
2, 1646, Note_on_c, 0, 74, 0
2, 1650, Note_on_c, 0, 72, 74
2, 1674, Note_on_c, 0, 72, 0
2, 1676, Control_c, 0, 64, 0
2, 1680, Note_on_c, 0, 64, 74
2, 1680, Note_on_c, 0, 74, 82
2, 1680, Note_on_c, 0, 67, 86
2, 1705, Control_c, 0, 64, 127
2, 1707, Note_on_c, 0, 74, 0
2, 1710, Note_on_c, 0, 72, 90
2, 1737, Note_on_c, 0, 72, 0
2, 1740, Note_on_c, 0, 71, 86
2, 1753, Note_on_c, 0, 67, 0
2, 1756, Note_on_c, 0, 64, 0
2, 1768, Note_on_c, 0, 71, 0
2, 1770, Note_on_c, 0, 72, 82
2, 1787, Note_on_c, 0, 72, 0
2, 1789, Control_c, 0, 64, 0
2, 1800, Note_on_c, 0, 81, 72
2, 1838, Control_c, 0, 64, 127
2, 1860, Note_on_c, 0, 77, 90
2, 1863, Note_on_c, 0, 81, 0
2, 1916, Control_c, 0, 64, 0
2, 1920, Note_on_c, 0, 76, 95
2, 1921, Note_on_c, 0, 77, 0
2, 1947, Control_c, 0, 64, 127
2, 1974, Note_on_c, 0, 76, 0
2, 1980, Note_on_c, 0, 74, 86
2, 2011, Note_on_c, 0, 74, 0
2, 2038, Control_c, 0, 64, 0
2, 2040, Note_on_c, 0, 65, 78
2, 2040, Note_on_c, 0, 69, 86
2, 2040, Note_on_c, 0, 76, 99
2, 2064, Note_on_c, 0, 76, 0
2, 2069, Control_c, 0, 64, 127
2, 2070, Note_on_c, 0, 74, 86
2, 2093, Note_on_c, 0, 74, 0
2, 2100, Note_on_c, 0, 76, 82
2, 2125, Note_on_c, 0, 76, 0
2, 2128, Note_on_c, 0, 69, 0
2, 2130, Note_on_c, 0, 65, 0
2, 2130, Note_on_c, 0, 74, 86
2, 2150, Note_on_c, 0, 74, 0
2, 2155, Control_c, 0, 64, 0
2, 2160, Note_on_c, 0, 76, 86
2, 2160, Note_on_c, 0, 65, 82
2, 2160, Note_on_c, 0, 69, 74
2, 2183, Control_c, 0, 64, 127
2, 2188, Note_on_c, 0, 76, 0
2, 2190, Note_on_c, 0, 74, 95
2, 2215, Note_on_c, 0, 69, 0
2, 2216, Note_on_c, 0, 74, 0
2, 2220, Note_on_c, 0, 65, 0
2, 2220, Note_on_c, 0, 72, 90
2, 2248, Note_on_c, 0, 72, 0
2, 2250, Note_on_c, 0, 74, 95
2, 2258, Control_c, 0, 64, 0
2, 2273, Note_on_c, 0, 74, 0
2, 2280, Note_on_c, 0, 77, 82
2, 2310, Control_c, 0, 64, 127
2, 2340, Note_on_c, 0, 74, 86
2, 2345, Note_on_c, 0, 77, 0
2, 2391, Control_c, 0, 64, 0
2, 2398, Note_on_c, 0, 74, 0
2, 2400, Note_on_c, 0, 76, 95
2, 2426, Control_c, 0, 64, 127
2, 2460, Note_on_c, 0, 74, 90
2, 2462, Note_on_c, 0, 76, 0
2, 2512, Note_on_c, 0, 74, 0
2, 2520, Note_on_c, 0, 67, 66
2, 2520, Note_on_c, 0, 79, 99
2, 2520, Note_on_c, 0, 59, 82
2, 2522, Control_c, 0, 64, 0
2, 2555, Control_c, 0, 64, 127
2, 2588, Note_on_c, 0, 59, 0
2, 2590, Note_on_c, 0, 67, 0
2, 2640, Note_on_c, 0, 59, 86
2, 2640, Note_on_c, 0, 67, 63
2, 2700, Note_on_c, 0, 59, 0
2, 2704, Note_on_c, 0, 67, 0
2, 2715, Note_on_c, 0, 79, 0
2, 2757, Control_c, 0, 64, 0
2, 2760, Note_on_c, 0, 59, 95
2, 2760, Note_on_c, 0, 67, 66
2, 2760, Note_on_c, 0, 77, 95
2, 2784, Control_c, 0, 64, 127
2, 2808, Note_on_c, 0, 77, 0
2, 2813, Note_on_c, 0, 59, 0
2, 2817, Note_on_c, 0, 67, 0
2, 2874, Control_c, 0, 64, 0
2, 2880, Note_on_c, 0, 79, 86
2, 2880, Note_on_c, 0, 60, 86
2, 2880, Note_on_c, 0, 67, 69
2, 2910, Note_on_c, 0, 77, 82
2, 2912, Control_c, 0, 64, 127
2, 2914, Note_on_c, 0, 79, 0
2, 2936, Note_on_c, 0, 77, 0
2, 2940, Note_on_c, 0, 79, 86
2, 2966, Note_on_c, 0, 79, 0
2, 2970, Note_on_c, 0, 77, 82
2, 2997, Note_on_c, 0, 77, 0
2, 3000, Note_on_c, 0, 79, 86
2, 3027, Note_on_c, 0, 79, 0
2, 3030, Note_on_c, 0, 77, 82
2, 3059, Note_on_c, 0, 77, 0
2, 3060, Note_on_c, 0, 76, 90
2, 3087, Note_on_c, 0, 76, 0
2, 3090, Note_on_c, 0, 77, 82
2, 3094, Note_on_c, 0, 67, 0
2, 3097, Note_on_c, 0, 60, 0
2, 3111, Control_c, 0, 64, 0
2, 3113, Note_on_c, 0, 77, 0
2, 3120, Note_on_c, 0, 76, 99
2, 3120, Note_on_c, 0, 60, 90
2, 3120, Note_on_c, 0, 67, 66
2, 3140, Control_c, 0, 64, 127
2, 3233, Note_on_c, 0, 60, 0
2, 3235, Note_on_c, 0, 76, 0
2, 3243, Note_on_c, 0, 67, 0
2, 3247, Control_c, 0, 64, 0
2, 3360, Note_on_c, 0, 64, 90
2, 3360, Note_on_c, 0, 67, 86
2, 3360, Note_on_c, 0, 79, 103
2, 3360, Note_on_c, 0, 84, 99
2, 3360, Note_on_c, 0, 76, 108
2, 3360, Note_on_c, 0, 72, 90
2, 3362, Control_c, 0, 64, 127
2, 3526, Note_on_c, 0, 76, 0
2, 3527, Note_on_c, 0, 84, 0
2, 3527, Note_on_c, 0, 67, 0
2, 3528, Note_on_c, 0, 64, 0
2, 3528, Note_on_c, 0, 72, 0
2, 3529, Note_on_c, 0, 79, 0
2, 3600, Note_on_c, 0, 76, 99
2, 3600, Note_on_c, 0, 79, 108
2, 3600, Note_on_c, 0, 84, 99
2, 3600, Note_on_c, 0, 64, 90
2, 3600, Note_on_c, 0, 67, 90
2, 3600, Note_on_c, 0, 72, 90
2, 3601, Control_c, 0, 64, 0
2, 3635, Control_c, 0, 64, 127
2, 3761, Note_on_c, 0, 67, 0
2, 3764, Note_on_c, 0, 64, 0
2, 3765, Note_on_c, 0, 72, 0
2, 3768, Note_on_c, 0, 76, 0
2, 3769, Note_on_c, 0, 84, 0
2, 3770, Note_on_c, 0, 79, 0
2, 3836, Control_c, 0, 64, 0
2, 3840, Note_on_c, 0, 76, 103
2, 3840, Note_on_c, 0, 79, 103
2, 3840, Note_on_c, 0, 84, 99
2, 3840, Note_on_c, 0, 64, 103
2, 3840, Note_on_c, 0, 67, 95
2, 3840, Note_on_c, 0, 72, 90
2, 3868, Control_c, 0, 64, 127
2, 4083, Note_on_c, 0, 79, 0
2, 4085, Note_on_c, 0, 72, 0
2, 4085, Control_c, 0, 64, 0
2, 4086, Note_on_c, 0, 76, 0
2, 4087, Note_on_c, 0, 84, 0
2, 4088, Note_on_c, 0, 67, 0
2, 4090, Note_on_c, 0, 64, 0
2, 6120, Note_on_c, 0, 72, 90
2, 6133, Control_c, 0, 64, 127
2, 6150, Note_on_c, 0, 74, 82
2, 6151, Note_on_c, 0, 72, 0
2, 6177, Note_on_c, 0, 74, 0
2, 6180, Note_on_c, 0, 76, 86
2, 6203, Note_on_c, 0, 76, 0
2, 6210, Note_on_c, 0, 77, 72
2, 6218, Control_c, 0, 64, 0
2, 6231, Note_on_c, 0, 77, 0
2, 6240, Note_on_c, 0, 79, 95
2, 6240, Note_on_c, 0, 60, 86
2, 6252, Control_c, 0, 64, 127
2, 6290, Note_on_c, 0, 79, 0
2, 6300, Note_on_c, 0, 67, 86
2, 6302, Note_on_c, 0, 60, 0
2, 6322, Control_c, 0, 64, 0
2, 6330, Note_on_c, 0, 64, 72
2, 6346, Note_on_c, 0, 67, 0
2, 6360, Note_on_c, 0, 79, 103
2, 6366, Control_c, 0, 64, 127
2, 6396, Note_on_c, 0, 64, 0
2, 6420, Note_on_c, 0, 67, 78
2, 6428, Note_on_c, 0, 79, 0
2, 6460, Note_on_c, 0, 67, 0
2, 6474, Control_c, 0, 64, 0
2, 6480, Note_on_c, 0, 79, 99
2, 6480, Note_on_c, 0, 60, 72
2, 6507, Control_c, 0, 64, 127
2, 6540, Note_on_c, 0, 67, 69
2, 6545, Note_on_c, 0, 60, 0
2, 6546, Note_on_c, 0, 79, 0
2, 6596, Note_on_c, 0, 67, 0
2, 6598, Control_c, 0, 64, 0
2, 6600, Note_on_c, 0, 64, 72
2, 6600, Note_on_c, 0, 77, 95
2, 6626, Note_on_c, 0, 77, 0
2, 6628, Control_c, 0, 64, 127
2, 6630, Note_on_c, 0, 76, 78
2, 6652, Note_on_c, 0, 76, 0
2, 6660, Note_on_c, 0, 74, 90
2, 6660, Note_on_c, 0, 67, 82
2, 6664, Note_on_c, 0, 64, 0
2, 6685, Note_on_c, 0, 74, 0
2, 6690, Note_on_c, 0, 72, 90
2, 6695, Note_on_c, 0, 67, 0
2, 6715, Note_on_c, 0, 72, 0
2, 6718, Control_c, 0, 64, 0
2, 6720, Note_on_c, 0, 81, 99
2, 6720, Note_on_c, 0, 60, 86
2, 6751, Control_c, 0, 64, 127
2, 6777, Note_on_c, 0, 60, 0
2, 6780, Note_on_c, 0, 69, 90
2, 6781, Note_on_c, 0, 81, 0
2, 6829, Note_on_c, 0, 69, 0
2, 6840, Control_c, 0, 64, 0
2, 6840, Note_on_c, 0, 65, 67
2, 6840, Note_on_c, 0, 81, 103
2, 6874, Control_c, 0, 64, 127
2, 6892, Note_on_c, 0, 81, 0
2, 6900, Note_on_c, 0, 65, 0
2, 6900, Note_on_c, 0, 69, 82
2, 6949, Note_on_c, 0, 69, 0
2, 6958, Control_c, 0, 64, 0
2, 6960, Note_on_c, 0, 81, 90
2, 6960, Note_on_c, 0, 60, 74
2, 6992, Control_c, 0, 64, 127
2, 7016, Note_on_c, 0, 81, 0
2, 7020, Note_on_c, 0, 83, 99
2, 7020, Note_on_c, 0, 69, 78
2, 7022, Note_on_c, 0, 60, 0
2, 7067, Note_on_c, 0, 83, 0
2, 7073, Note_on_c, 0, 69, 0
2, 7079, Control_c, 0, 64, 0
2, 7080, Note_on_c, 0, 84, 86
2, 7080, Note_on_c, 0, 65, 70
2, 7107, Control_c, 0, 64, 127
2, 7140, Note_on_c, 0, 81, 99
2, 7140, Note_on_c, 0, 69, 82
2, 7143, Note_on_c, 0, 65, 0
2, 7144, Note_on_c, 0, 84, 0
2, 7161, Note_on_c, 0, 81, 0
2, 7178, Note_on_c, 0, 69, 0
2, 7197, Control_c, 0, 64, 0
2, 7200, Note_on_c, 0, 60, 86
2, 7200, Note_on_c, 0, 81, 90
2, 7230, Control_c, 0, 64, 127
2, 7259, Note_on_c, 0, 81, 0
2, 7260, Note_on_c, 0, 79, 86
2, 7260, Note_on_c, 0, 67, 66
2, 7263, Note_on_c, 0, 60, 0
2, 7316, Control_c, 0, 64, 0
2, 7318, Note_on_c, 0, 67, 0
2, 7320, Note_on_c, 0, 64, 82
2, 7320, Note_on_c, 0, 77, 95
2, 7323, Note_on_c, 0, 79, 0
2, 7346, Control_c, 0, 64, 127
2, 7373, Note_on_c, 0, 77, 0
2, 7377, Note_on_c, 0, 64, 0
2, 7380, Note_on_c, 0, 76, 95
2, 7380, Note_on_c, 0, 67, 72
2, 7416, Note_on_c, 0, 76, 0
2, 7424, Note_on_c, 0, 67, 0
2, 7433, Control_c, 0, 64, 0
2, 7440, Note_on_c, 0, 59, 72
2, 7440, Note_on_c, 0, 79, 82
2, 7467, Control_c, 0, 64, 127
2, 7494, Note_on_c, 0, 79, 0
2, 7500, Note_on_c, 0, 77, 86
2, 7500, Note_on_c, 0, 67, 74
2, 7502, Note_on_c, 0, 59, 0
2, 7552, Note_on_c, 0, 77, 0
2, 7554, Control_c, 0, 64, 0
2, 7556, Note_on_c, 0, 67, 0
2, 7560, Note_on_c, 0, 76, 95
2, 7560, Note_on_c, 0, 65, 82
2, 7586, Control_c, 0, 64, 127
2, 7618, Note_on_c, 0, 76, 0
2, 7619, Note_on_c, 0, 65, 0
2, 7620, Note_on_c, 0, 77, 95
2, 7620, Note_on_c, 0, 67, 86
2, 7646, Note_on_c, 0, 77, 0
2, 7664, Note_on_c, 0, 67, 0
2, 7670, Control_c, 0, 64, 0
2, 7680, Note_on_c, 0, 60, 70
2, 7680, Note_on_c, 0, 79, 95
2, 7703, Note_on_c, 0, 79, 0
2, 7703, Control_c, 0, 64, 127
2, 7710, Note_on_c, 0, 77, 86
2, 7730, Note_on_c, 0, 77, 0
2, 7738, Note_on_c, 0, 60, 0
2, 7740, Note_on_c, 0, 67, 72
2, 7740, Note_on_c, 0, 79, 90
2, 7762, Note_on_c, 0, 79, 0
2, 7770, Note_on_c, 0, 77, 86
2, 7792, Note_on_c, 0, 77, 0
2, 7800, Note_on_c, 0, 79, 74
2, 7800, Note_on_c, 0, 64, 74
2, 7800, Control_c, 0, 64, 0
2, 7802, Note_on_c, 0, 67, 0
2, 7827, Control_c, 0, 64, 127
2, 7828, Note_on_c, 0, 79, 0
2, 7830, Note_on_c, 0, 77, 90
2, 7855, Note_on_c, 0, 64, 0
2, 7856, Note_on_c, 0, 77, 0
2, 7860, Note_on_c, 0, 76, 78
2, 7860, Note_on_c, 0, 67, 72
2, 7884, Note_on_c, 0, 76, 0
2, 7890, Note_on_c, 0, 77, 86
2, 7905, Note_on_c, 0, 67, 0
2, 7905, Control_c, 0, 64, 0
2, 7913, Note_on_c, 0, 77, 0
2, 7920, Note_on_c, 0, 76, 86
2, 7920, Note_on_c, 0, 60, 74
2, 7935, Control_c, 0, 64, 127
2, 7976, Note_on_c, 0, 76, 0
2, 7980, Note_on_c, 0, 67, 78
2, 7982, Note_on_c, 0, 60, 0
2, 8029, Note_on_c, 0, 67, 0
2, 8037, Control_c, 0, 64, 0
2, 8040, Note_on_c, 0, 72, 82
2, 8040, Note_on_c, 0, 64, 67
2, 8065, Note_on_c, 0, 72, 0
2, 8065, Control_c, 0, 64, 127
2, 8070, Note_on_c, 0, 74, 86
2, 8094, Note_on_c, 0, 74, 0
2, 8100, Note_on_c, 0, 64, 0
2, 8100, Note_on_c, 0, 76, 86
2, 8100, Note_on_c, 0, 67, 70
2, 8125, Note_on_c, 0, 76, 0
2, 8130, Note_on_c, 0, 77, 82
2, 8142, Note_on_c, 0, 67, 0
2, 8150, Note_on_c, 0, 77, 0
2, 8152, Control_c, 0, 64, 0
2, 8160, Note_on_c, 0, 79, 90
2, 8160, Note_on_c, 0, 60, 72
2, 8181, Control_c, 0, 64, 127
2, 8193, Note_on_c, 0, 79, 0
2, 8218, Note_on_c, 0, 60, 0
2, 8220, Note_on_c, 0, 67, 78
2, 8264, Note_on_c, 0, 67, 0
2, 8269, Control_c, 0, 64, 0
2, 8280, Note_on_c, 0, 64, 82
2, 8280, Note_on_c, 0, 79, 99
2, 8303, Control_c, 0, 64, 127
2, 8338, Note_on_c, 0, 79, 0
2, 8339, Note_on_c, 0, 64, 0
2, 8340, Note_on_c, 0, 67, 69
2, 8379, Note_on_c, 0, 67, 0
2, 8396, Control_c, 0, 64, 0
2, 8400, Note_on_c, 0, 60, 72
2, 8400, Note_on_c, 0, 79, 99
2, 8427, Control_c, 0, 64, 127
2, 8460, Note_on_c, 0, 67, 82
2, 8464, Note_on_c, 0, 60, 0
2, 8469, Note_on_c, 0, 79, 0
2, 8512, Note_on_c, 0, 67, 0
2, 8515, Control_c, 0, 64, 0
2, 8520, Note_on_c, 0, 64, 78
2, 8520, Note_on_c, 0, 77, 99
2, 8545, Note_on_c, 0, 77, 0
2, 8546, Control_c, 0, 64, 127
2, 8550, Note_on_c, 0, 76, 99
2, 8575, Note_on_c, 0, 76, 0
2, 8580, Note_on_c, 0, 74, 78
2, 8580, Note_on_c, 0, 67, 86
2, 8583, Control_c, 0, 64, 0
2, 8584, Note_on_c, 0, 64, 0
2, 8603, Note_on_c, 0, 74, 0
2, 8603, Control_c, 0, 64, 127
2, 8610, Note_on_c, 0, 72, 90
2, 8625, Note_on_c, 0, 67, 0
2, 8632, Control_c, 0, 64, 0
2, 8636, Note_on_c, 0, 72, 0
2, 8640, Note_on_c, 0, 60, 86
2, 8640, Note_on_c, 0, 81, 103
2, 8667, Control_c, 0, 64, 127
2, 8689, Note_on_c, 0, 81, 0
2, 8699, Note_on_c, 0, 60, 0
2, 8700, Note_on_c, 0, 69, 74
2, 8739, Control_c, 0, 64, 0
2, 8748, Note_on_c, 0, 69, 0
2, 8760, Note_on_c, 0, 81, 99
2, 8760, Note_on_c, 0, 65, 74
2, 8778, Control_c, 0, 64, 127
2, 8816, Note_on_c, 0, 65, 0
2, 8820, Note_on_c, 0, 69, 69
2, 8837, Note_on_c, 0, 81, 0
2, 8874, Note_on_c, 0, 69, 0
2, 8877, Control_c, 0, 64, 0
2, 8880, Note_on_c, 0, 60, 74
2, 8880, Note_on_c, 0, 81, 103
2, 8908, Control_c, 0, 64, 127
2, 8939, Note_on_c, 0, 81, 0
2, 8940, Note_on_c, 0, 83, 99
2, 8940, Note_on_c, 0, 69, 82
2, 8962, Note_on_c, 0, 60, 0
2, 8970, Note_on_c, 0, 83, 0
2, 8996, Note_on_c, 0, 69, 0
2, 8999, Control_c, 0, 64, 0
2, 9000, Note_on_c, 0, 84, 90
2, 9000, Note_on_c, 0, 65, 72
2, 9028, Control_c, 0, 64, 127
2, 9059, Note_on_c, 0, 65, 0
2, 9060, Note_on_c, 0, 69, 72
2, 9060, Note_on_c, 0, 81, 99
2, 9062, Note_on_c, 0, 84, 0
2, 9081, Note_on_c, 0, 81, 0
2, 9103, Note_on_c, 0, 69, 0
2, 9116, Control_c, 0, 64, 0
2, 9120, Note_on_c, 0, 60, 72
2, 9120, Note_on_c, 0, 81, 90
2, 9150, Control_c, 0, 64, 127
2, 9178, Note_on_c, 0, 81, 0
2, 9180, Note_on_c, 0, 67, 69
2, 9180, Note_on_c, 0, 79, 90
2, 9182, Note_on_c, 0, 60, 0
2, 9235, Control_c, 0, 64, 0
2, 9237, Note_on_c, 0, 79, 0
2, 9240, Note_on_c, 0, 77, 90
2, 9240, Note_on_c, 0, 64, 72
2, 9241, Note_on_c, 0, 67, 0
2, 9264, Control_c, 0, 64, 127
2, 9297, Note_on_c, 0, 64, 0
2, 9297, Note_on_c, 0, 77, 0
2, 9300, Note_on_c, 0, 76, 90
2, 9300, Note_on_c, 0, 67, 82
2, 9324, Note_on_c, 0, 76, 0
2, 9346, Note_on_c, 0, 67, 0
2, 9354, Control_c, 0, 64, 0
2, 9360, Note_on_c, 0, 59, 65
2, 9360, Note_on_c, 0, 76, 82
2, 9360, Note_on_c, 0, 79, 95
2, 9384, Control_c, 0, 64, 127
2, 9389, Note_on_c, 0, 76, 0
2, 9403, Note_on_c, 0, 79, 0
2, 9420, Note_on_c, 0, 75, 86
2, 9420, Note_on_c, 0, 78, 74
2, 9420, Note_on_c, 0, 67, 82
2, 9425, Note_on_c, 0, 59, 0
2, 9446, Note_on_c, 0, 75, 0
2, 9447, Note_on_c, 0, 78, 0
2, 9467, Note_on_c, 0, 67, 0
2, 9478, Control_c, 0, 64, 0
2, 9480, Note_on_c, 0, 60, 54
2, 9480, Note_on_c, 0, 74, 86
2, 9480, Note_on_c, 0, 77, 99
2, 9510, Control_c, 0, 64, 127
2, 9527, Note_on_c, 0, 74, 0
2, 9531, Note_on_c, 0, 77, 0
2, 9535, Note_on_c, 0, 60, 0
2, 9540, Note_on_c, 0, 64, 67
2, 9540, Note_on_c, 0, 76, 90
2, 9540, Note_on_c, 0, 72, 86
2, 9561, Note_on_c, 0, 72, 0
2, 9564, Note_on_c, 0, 64, 0
2, 9569, Note_on_c, 0, 76, 0
2, 9589, Control_c, 0, 64, 0
2, 9600, Note_on_c, 0, 71, 90
2, 9600, Note_on_c, 0, 74, 99
2, 9600, Note_on_c, 0, 67, 82
2, 9621, Control_c, 0, 64, 127
2, 9658, Note_on_c, 0, 74, 0
2, 9659, Note_on_c, 0, 71, 0
2, 9660, Note_on_c, 0, 67, 0
2, 9717, Control_c, 0, 64, 0
2, 9720, Note_on_c, 0, 67, 74
2, 9720, Note_on_c, 0, 71, 86
2, 9720, Note_on_c, 0, 74, 99
2, 9746, Control_c, 0, 64, 127
2, 9771, Note_on_c, 0, 71, 0
2, 9776, Note_on_c, 0, 74, 0
2, 9778, Note_on_c, 0, 67, 0
2, 9830, Control_c, 0, 64, 0
2, 9840, Note_on_c, 0, 71, 90
2, 9840, Note_on_c, 0, 74, 95
2, 9840, Note_on_c, 0, 67, 90
2, 9859, Control_c, 0, 64, 127
2, 9886, Note_on_c, 0, 67, 0
2, 9888, Note_on_c, 0, 71, 0
2, 9895, Note_on_c, 0, 74, 0
2, 9972, Control_c, 0, 64, 0
2, 10080, Note_on_c, 0, 74, 117
2, 10080, Note_on_c, 0, 67, 86
2, 10080, Note_on_c, 0, 71, 99
2, 10088, Control_c, 0, 64, 127
2, 10137, Note_on_c, 0, 74, 0
2, 10140, Note_on_c, 0, 79, 108
2, 10186, Note_on_c, 0, 79, 0
2, 10200, Note_on_c, 0, 83, 103
2, 10230, Note_on_c, 0, 83, 0
2, 10260, Note_on_c, 0, 86, 103
2, 10289, Note_on_c, 0, 86, 0
2, 10317, Note_on_c, 0, 71, 0
2, 10320, Note_on_c, 0, 67, 0
2, 10320, Note_on_c, 0, 84, 108
2, 10321, Control_c, 0, 64, 0
2, 10380, Note_on_c, 0, 83, 95
2, 10383, Note_on_c, 0, 84, 0
2, 10440, Note_on_c, 0, 81, 99
2, 10442, Note_on_c, 0, 83, 0
2, 10462, Control_c, 0, 64, 127
2, 10500, Note_on_c, 0, 79, 108
2, 10501, Note_on_c, 0, 81, 0
2, 10525, Note_on_c, 0, 79, 0
2, 10551, Control_c, 0, 64, 0
2, 10560, Note_on_c, 0, 79, 99
2, 10560, Note_on_c, 0, 69, 86
2, 10588, Control_c, 0, 64, 127
2, 10618, Note_on_c, 0, 79, 0
2, 10620, Note_on_c, 0, 78, 90
2, 10620, Note_on_c, 0, 72, 72
2, 10625, Note_on_c, 0, 69, 0
2, 10657, Note_on_c, 0, 78, 0
2, 10677, Note_on_c, 0, 72, 0
2, 10680, Note_on_c, 0, 74, 86
2, 10680, Note_on_c, 0, 78, 117
2, 10686, Control_c, 0, 64, 0
2, 10721, Control_c, 0, 64, 127
2, 10740, Note_on_c, 0, 72, 74
2, 10754, Note_on_c, 0, 74, 0
2, 10799, Note_on_c, 0, 72, 0
2, 10800, Note_on_c, 0, 69, 74
2, 10814, Control_c, 0, 64, 0
2, 10847, Control_c, 0, 64, 127
2, 10860, Note_on_c, 0, 72, 72
2, 10866, Note_on_c, 0, 69, 0
2, 10896, Note_on_c, 0, 78, 0
2, 10919, Note_on_c, 0, 72, 0
2, 10920, Note_on_c, 0, 74, 82
2, 10968, Note_on_c, 0, 74, 0
2, 10980, Note_on_c, 0, 72, 69
2, 11004, Note_on_c, 0, 72, 0
2, 11040, Note_on_c, 0, 74, 72
2, 11040, Note_on_c, 0, 71, 63
2, 11040, Note_on_c, 0, 67, 72
2, 11043, Control_c, 0, 64, 0
2, 11087, Control_c, 0, 64, 127
2, 11098, Note_on_c, 0, 74, 0
2, 11100, Note_on_c, 0, 79, 74
2, 11146, Note_on_c, 0, 79, 0
2, 11160, Note_on_c, 0, 83, 82
2, 11207, Note_on_c, 0, 83, 0
2, 11220, Note_on_c, 0, 86, 74
2, 11223, Note_on_c, 0, 71, 0
2, 11228, Note_on_c, 0, 67, 0
2, 11279, Note_on_c, 0, 86, 0
2, 11280, Note_on_c, 0, 84, 82
2, 11283, Control_c, 0, 64, 0
2, 11340, Note_on_c, 0, 84, 0
2, 11340, Note_on_c, 0, 83, 82
2, 11400, Note_on_c, 0, 81, 74
2, 11403, Note_on_c, 0, 83, 0
2, 11413, Control_c, 0, 64, 127
2, 11460, Note_on_c, 0, 81, 0
2, 11460, Note_on_c, 0, 79, 78
2, 11485, Note_on_c, 0, 79, 0
2, 11515, Control_c, 0, 64, 0
2, 11520, Note_on_c, 0, 79, 78
2, 11520, Note_on_c, 0, 69, 66
2, 11549, Control_c, 0, 64, 127
2, 11578, Note_on_c, 0, 79, 0
2, 11580, Note_on_c, 0, 78, 86
2, 11580, Note_on_c, 0, 72, 65
2, 11581, Note_on_c, 0, 69, 0
2, 11611, Note_on_c, 0, 78, 0
2, 11630, Note_on_c, 0, 72, 0
2, 11640, Note_on_c, 0, 78, 74
2, 11640, Note_on_c, 0, 74, 62
2, 11645, Control_c, 0, 64, 0
2, 11679, Control_c, 0, 64, 127
2, 11700, Note_on_c, 0, 72, 62
2, 11712, Note_on_c, 0, 74, 0
2, 11758, Note_on_c, 0, 72, 0
2, 11760, Note_on_c, 0, 69, 74
2, 11776, Control_c, 0, 64, 0
2, 11808, Control_c, 0, 64, 127
2, 11818, Note_on_c, 0, 69, 0
2, 11820, Note_on_c, 0, 72, 70
2, 11878, Note_on_c, 0, 72, 0
2, 11880, Note_on_c, 0, 74, 74
2, 11911, Note_on_c, 0, 78, 0
2, 11940, Note_on_c, 0, 72, 82
2, 11941, Note_on_c, 0, 74, 0
2, 11982, Note_on_c, 0, 72, 0
2, 12000, Control_c, 0, 64, 0
2, 12000, Note_on_c, 0, 71, 86
2, 12030, Note_on_c, 0, 74, 74
2, 12033, Note_on_c, 0, 71, 0
2, 12060, Note_on_c, 0, 76, 90
2, 12061, Note_on_c, 0, 74, 0
2, 12088, Note_on_c, 0, 76, 0
2, 12090, Note_on_c, 0, 78, 86
2, 12114, Note_on_c, 0, 78, 0
2, 12120, Note_on_c, 0, 79, 86
2, 12150, Note_on_c, 0, 81, 82
2, 12155, Note_on_c, 0, 79, 0
2, 12177, Note_on_c, 0, 81, 0
2, 12180, Note_on_c, 0, 83, 90
2, 12203, Note_on_c, 0, 83, 0
2, 12210, Note_on_c, 0, 84, 99
2, 12235, Note_on_c, 0, 84, 0
2, 12240, Note_on_c, 0, 86, 99
2, 12240, Note_on_c, 0, 71, 90
2, 12268, Note_on_c, 0, 86, 0
2, 12270, Note_on_c, 0, 84, 86
2, 12292, Note_on_c, 0, 71, 0
2, 12300, Note_on_c, 0, 83, 95
2, 12307, Note_on_c, 0, 84, 0
2, 12330, Note_on_c, 0, 81, 90
2, 12336, Note_on_c, 0, 83, 0
2, 12357, Note_on_c, 0, 81, 0
2, 12360, Note_on_c, 0, 79, 74
2, 12390, Note_on_c, 0, 78, 82
2, 12391, Note_on_c, 0, 79, 0
2, 12419, Note_on_c, 0, 78, 0
2, 12420, Note_on_c, 0, 76, 95
2, 12450, Note_on_c, 0, 74, 78
2, 12451, Note_on_c, 0, 76, 0
2, 12473, Note_on_c, 0, 74, 0
2, 12480, Note_on_c, 0, 72, 99
2, 12510, Note_on_c, 0, 76, 99
2, 12540, Note_on_c, 0, 78, 78
2, 12541, Note_on_c, 0, 76, 0
2, 12565, Note_on_c, 0, 78, 0
2, 12570, Note_on_c, 0, 79, 103
2, 12596, Note_on_c, 0, 79, 0
2, 12600, Note_on_c, 0, 81, 95
2, 12603, Note_on_c, 0, 72, 0
2, 12630, Note_on_c, 0, 81, 0
2, 12630, Note_on_c, 0, 83, 90
2, 12656, Note_on_c, 0, 83, 0
2, 12660, Note_on_c, 0, 84, 99
2, 12687, Note_on_c, 0, 84, 0
2, 12690, Note_on_c, 0, 86, 86
2, 12707, Note_on_c, 0, 86, 0
2, 12720, Note_on_c, 0, 88, 112
2, 12742, Control_c, 0, 64, 127
2, 12843, Note_on_c, 0, 88, 0
2, 12955, Control_c, 0, 64, 0
2, 12960, Note_on_c, 0, 83, 99
2, 12960, Note_on_c, 0, 74, 65
2, 12960, Note_on_c, 0, 71, 78
2, 12990, Control_c, 0, 64, 127
2, 13001, Note_on_c, 0, 71, 0
2, 13004, Note_on_c, 0, 74, 0
2, 13020, Note_on_c, 0, 74, 86
2, 13020, Note_on_c, 0, 71, 72
2, 13040, Note_on_c, 0, 71, 0
2, 13043, Note_on_c, 0, 74, 0
2, 13080, Note_on_c, 0, 71, 72
2, 13080, Note_on_c, 0, 74, 82
2, 13091, Note_on_c, 0, 83, 0
2, 13102, Note_on_c, 0, 74, 0
2, 13103, Note_on_c, 0, 71, 0
2, 13140, Note_on_c, 0, 84, 99
2, 13140, Note_on_c, 0, 71, 74
2, 13140, Note_on_c, 0, 74, 78
2, 13161, Note_on_c, 0, 74, 0
2, 13164, Note_on_c, 0, 71, 0
2, 13168, Note_on_c, 0, 84, 0
2, 13200, Note_on_c, 0, 74, 78
2, 13200, Note_on_c, 0, 81, 99
2, 13200, Note_on_c, 0, 72, 72
2, 13205, Control_c, 0, 64, 0
2, 13235, Note_on_c, 0, 72, 0
2, 13238, Note_on_c, 0, 74, 0
2, 13239, Control_c, 0, 64, 127
2, 13260, Note_on_c, 0, 72, 72
2, 13260, Note_on_c, 0, 74, 78
2, 13281, Note_on_c, 0, 74, 0
2, 13284, Note_on_c, 0, 72, 0
2, 13320, Note_on_c, 0, 72, 74
2, 13320, Note_on_c, 0, 74, 74
2, 13341, Note_on_c, 0, 74, 0
2, 13343, Note_on_c, 0, 72, 0
2, 13364, Note_on_c, 0, 81, 0
2, 13380, Note_on_c, 0, 74, 86
2, 13380, Note_on_c, 0, 72, 74
2, 13401, Note_on_c, 0, 72, 0
2, 13401, Note_on_c, 0, 74, 0
2, 13440, Note_on_c, 0, 74, 103
2, 13440, Note_on_c, 0, 71, 78
2, 13440, Note_on_c, 0, 67, 82
2, 13441, Control_c, 0, 64, 0
2, 13471, Control_c, 0, 64, 127
2, 13499, Note_on_c, 0, 74, 0
2, 13500, Note_on_c, 0, 79, 99
2, 13506, Note_on_c, 0, 71, 0
2, 13508, Note_on_c, 0, 67, 0
2, 13523, Control_c, 0, 64, 0
2, 13559, Note_on_c, 0, 79, 0
2, 13560, Note_on_c, 0, 83, 86
2, 13582, Control_c, 0, 64, 127
2, 13598, Note_on_c, 0, 83, 0
2, 13620, Note_on_c, 0, 83, 99
2, 13643, Note_on_c, 0, 83, 0
2, 13676, Control_c, 0, 64, 0
2, 13680, Note_on_c, 0, 66, 72
2, 13680, Note_on_c, 0, 74, 90
2, 13680, Note_on_c, 0, 72, 86
2, 13716, Control_c, 0, 64, 127
2, 13738, Note_on_c, 0, 74, 0
2, 13740, Note_on_c, 0, 81, 86
2, 13800, Note_on_c, 0, 84, 99
2, 13802, Note_on_c, 0, 81, 0
2, 13805, Control_c, 0, 64, 0
2, 13809, Note_on_c, 0, 72, 0
2, 13814, Note_on_c, 0, 66, 0
2, 13833, Control_c, 0, 64, 127
2, 13842, Note_on_c, 0, 84, 0
2, 13860, Note_on_c, 0, 84, 95
2, 13886, Note_on_c, 0, 84, 0
2, 13913, Control_c, 0, 64, 0
2, 13920, Note_on_c, 0, 83, 103
2, 13920, Note_on_c, 0, 67, 86
2, 13920, Note_on_c, 0, 71, 82
2, 13920, Note_on_c, 0, 74, 90
2, 13946, Control_c, 0, 64, 127
2, 14038, Note_on_c, 0, 71, 0
2, 14038, Control_c, 0, 64, 0
2, 14039, Note_on_c, 0, 74, 0
2, 14040, Note_on_c, 0, 67, 0
2, 14043, Note_on_c, 0, 83, 0
2, 14400, Note_on_c, 0, 74, 82
2, 14400, Note_on_c, 0, 67, 66
2, 14400, Note_on_c, 0, 71, 67
2, 14425, Control_c, 0, 64, 127
2, 14460, Note_on_c, 0, 79, 66
2, 14464, Note_on_c, 0, 74, 0
2, 14512, Note_on_c, 0, 79, 0
2, 14520, Note_on_c, 0, 83, 72
2, 14543, Note_on_c, 0, 71, 0
2, 14547, Note_on_c, 0, 83, 0
2, 14549, Note_on_c, 0, 67, 0
2, 14580, Note_on_c, 0, 83, 69
2, 14589, Note_on_c, 0, 83, 0
2, 14625, Control_c, 0, 64, 0
2, 14640, Note_on_c, 0, 66, 74
2, 14640, Note_on_c, 0, 74, 78
2, 14640, Note_on_c, 0, 72, 63
2, 14670, Control_c, 0, 64, 127
2, 14700, Note_on_c, 0, 81, 82
2, 14701, Note_on_c, 0, 74, 0
2, 14708, Note_on_c, 0, 72, 0
2, 14712, Note_on_c, 0, 66, 0
2, 14750, Note_on_c, 0, 81, 0
2, 14755, Control_c, 0, 64, 0
2, 14760, Note_on_c, 0, 84, 86
2, 14786, Control_c, 0, 64, 127
2, 14803, Note_on_c, 0, 84, 0
2, 14820, Note_on_c, 0, 84, 78
2, 14842, Note_on_c, 0, 84, 0
2, 14869, Control_c, 0, 64, 0
2, 14880, Note_on_c, 0, 83, 74
2, 14880, Note_on_c, 0, 74, 69
2, 14880, Note_on_c, 0, 71, 69
2, 14880, Note_on_c, 0, 67, 82
2, 14899, Control_c, 0, 64, 127
2, 14956, Note_on_c, 0, 71, 0
2, 14958, Note_on_c, 0, 67, 0
2, 14964, Note_on_c, 0, 74, 0
2, 14965, Note_on_c, 0, 83, 0
2, 14994, Control_c, 0, 64, 0
2, 15360, Note_on_c, 0, 84, 103
2, 15360, Note_on_c, 0, 72, 86
2, 15360, Note_on_c, 0, 76, 103
2, 15376, Control_c, 0, 64, 127
2, 15480, Control_c, 0, 64, 0
2, 15482, Note_on_c, 0, 76, 0
2, 15482, Note_on_c, 0, 72, 0
2, 15489, Note_on_c, 0, 84, 0
2, 15600, Note_on_c, 0, 71, 86
2, 15600, Note_on_c, 0, 83, 108
2, 15600, Note_on_c, 0, 74, 99
2, 15610, Control_c, 0, 64, 127
2, 15672, Note_on_c, 0, 83, 0
2, 15672, Note_on_c, 0, 71, 0
2, 15676, Note_on_c, 0, 74, 0
2, 15737, Control_c, 0, 64, 0
2, 15840, Note_on_c, 0, 74, 90
2, 15840, Note_on_c, 0, 71, 86
2, 15840, Note_on_c, 0, 83, 95
2, 15840, Note_on_c, 0, 67, 95
2, 15871, Control_c, 0, 64, 127
2, 15894, Note_on_c, 0, 71, 0
2, 15895, Note_on_c, 0, 74, 0
2, 15895, Note_on_c, 0, 67, 0
2, 15900, Note_on_c, 0, 84, 95
2, 15904, Note_on_c, 0, 83, 0
2, 15948, Control_c, 0, 64, 0
2, 15957, Note_on_c, 0, 84, 0
2, 15960, Note_on_c, 0, 85, 103
2, 16017, Note_on_c, 0, 85, 0
2, 16020, Note_on_c, 0, 86, 108
2, 16080, Note_on_c, 0, 84, 103
2, 16087, Note_on_c, 0, 86, 0
2, 16140, Note_on_c, 0, 83, 99
2, 16143, Note_on_c, 0, 84, 0
2, 16200, Note_on_c, 0, 81, 99
2, 16203, Note_on_c, 0, 83, 0
2, 16260, Note_on_c, 0, 79, 99
2, 16270, Note_on_c, 0, 81, 0
2, 16313, Note_on_c, 0, 79, 0
2, 16320, Note_on_c, 0, 69, 78
2, 16320, Note_on_c, 0, 83, 99
2, 16349, Note_on_c, 0, 83, 0
2, 16350, Control_c, 0, 64, 127
2, 16350, Note_on_c, 0, 81, 86
2, 16373, Note_on_c, 0, 81, 0
2, 16377, Note_on_c, 0, 69, 0
2, 16380, Note_on_c, 0, 83, 99
2, 16380, Note_on_c, 0, 74, 74
2, 16385, Control_c, 0, 64, 0
2, 16406, Control_c, 0, 64, 127
2, 16408, Note_on_c, 0, 83, 0
2, 16410, Note_on_c, 0, 81, 103
2, 16433, Note_on_c, 0, 81, 0
2, 16437, Note_on_c, 0, 74, 0
2, 16440, Note_on_c, 0, 83, 99
2, 16440, Note_on_c, 0, 72, 82
2, 16442, Control_c, 0, 64, 0
2, 16466, Control_c, 0, 64, 127
2, 16468, Note_on_c, 0, 83, 0
2, 16470, Note_on_c, 0, 81, 90
2, 16490, Note_on_c, 0, 81, 0
2, 16498, Note_on_c, 0, 72, 0
2, 16500, Note_on_c, 0, 83, 78
2, 16500, Note_on_c, 0, 74, 78
2, 16527, Note_on_c, 0, 83, 0
2, 16530, Note_on_c, 0, 81, 86
2, 16543, Note_on_c, 0, 74, 0
2, 16550, Note_on_c, 0, 81, 0
2, 16550, Control_c, 0, 64, 0
2, 16560, Note_on_c, 0, 83, 103
2, 16560, Note_on_c, 0, 69, 82
2, 16579, Control_c, 0, 64, 127
2, 16585, Note_on_c, 0, 83, 0
2, 16590, Note_on_c, 0, 81, 90
2, 16610, Note_on_c, 0, 69, 0
2, 16612, Note_on_c, 0, 81, 0
2, 16620, Note_on_c, 0, 83, 99
2, 16620, Note_on_c, 0, 74, 82
2, 16646, Note_on_c, 0, 83, 0
2, 16650, Note_on_c, 0, 81, 82
2, 16674, Note_on_c, 0, 81, 0
2, 16674, Note_on_c, 0, 74, 0
2, 16680, Note_on_c, 0, 83, 99
2, 16680, Note_on_c, 0, 72, 78
2, 16703, Note_on_c, 0, 83, 0
2, 16710, Note_on_c, 0, 81, 74
2, 16735, Note_on_c, 0, 72, 0
2, 16736, Note_on_c, 0, 81, 0
2, 16740, Note_on_c, 0, 79, 99
2, 16740, Note_on_c, 0, 74, 82
2, 16770, Note_on_c, 0, 81, 99
2, 16772, Note_on_c, 0, 79, 0
2, 16785, Note_on_c, 0, 74, 0
2, 16790, Control_c, 0, 64, 0
2, 16791, Note_on_c, 0, 81, 0
2, 16800, Note_on_c, 0, 71, 70
2, 16800, Note_on_c, 0, 79, 103
2, 16828, Control_c, 0, 64, 127
2, 16860, Note_on_c, 0, 71, 0
2, 16860, Note_on_c, 0, 74, 82
2, 16920, Note_on_c, 0, 72, 72
2, 16921, Note_on_c, 0, 74, 0
2, 16939, Note_on_c, 0, 79, 0
2, 16980, Note_on_c, 0, 80, 95
2, 16980, Note_on_c, 0, 74, 82
2, 16983, Note_on_c, 0, 72, 0
2, 17038, Note_on_c, 0, 80, 0
2, 17040, Note_on_c, 0, 81, 95
2, 17040, Note_on_c, 0, 72, 72
2, 17041, Note_on_c, 0, 74, 0
2, 17041, Control_c, 0, 64, 0
2, 17078, Control_c, 0, 64, 127
2, 17100, Note_on_c, 0, 83, 99
2, 17100, Note_on_c, 0, 74, 78
2, 17103, Note_on_c, 0, 72, 0
2, 17104, Note_on_c, 0, 81, 0
2, 17153, Note_on_c, 0, 83, 0
2, 17157, Note_on_c, 0, 74, 0
2, 17160, Note_on_c, 0, 72, 72
2, 17160, Note_on_c, 0, 84, 90
2, 17220, Note_on_c, 0, 72, 0
2, 17220, Note_on_c, 0, 74, 82
2, 17220, Note_on_c, 0, 81, 86
2, 17222, Note_on_c, 0, 84, 0
2, 17259, Note_on_c, 0, 81, 0
2, 17271, Note_on_c, 0, 74, 0
2, 17280, Note_on_c, 0, 79, 99
2, 17280, Note_on_c, 0, 71, 66
2, 17282, Control_c, 0, 64, 0
2, 17324, Control_c, 0, 64, 127
2, 17336, Note_on_c, 0, 71, 0
2, 17340, Note_on_c, 0, 74, 66
2, 17395, Note_on_c, 0, 79, 0
2, 17400, Note_on_c, 0, 71, 74
2, 17403, Note_on_c, 0, 74, 0
2, 17454, Note_on_c, 0, 71, 0
2, 17460, Note_on_c, 0, 74, 74
2, 17460, Note_on_c, 0, 80, 90
2, 17493, Note_on_c, 0, 80, 0
2, 17507, Note_on_c, 0, 74, 0
2, 17520, Note_on_c, 0, 81, 78
2, 17520, Note_on_c, 0, 72, 61
2, 17527, Control_c, 0, 64, 0
2, 17563, Control_c, 0, 64, 127
2, 17575, Note_on_c, 0, 72, 0
2, 17576, Note_on_c, 0, 81, 0
2, 17580, Note_on_c, 0, 83, 78
2, 17580, Note_on_c, 0, 74, 69
2, 17635, Note_on_c, 0, 83, 0
2, 17637, Note_on_c, 0, 74, 0
2, 17640, Note_on_c, 0, 72, 66
2, 17640, Note_on_c, 0, 84, 82
2, 17645, Control_c, 0, 64, 0
2, 17672, Control_c, 0, 64, 127
2, 17695, Note_on_c, 0, 84, 0
2, 17696, Note_on_c, 0, 72, 0
2, 17700, Note_on_c, 0, 74, 72
2, 17700, Note_on_c, 0, 81, 78
2, 17741, Note_on_c, 0, 81, 0
2, 17758, Note_on_c, 0, 74, 0
2, 17760, Note_on_c, 0, 71, 69
2, 17760, Note_on_c, 0, 79, 90
2, 17763, Control_c, 0, 64, 0
2, 17798, Control_c, 0, 64, 127
2, 17820, Note_on_c, 0, 74, 72
2, 17821, Note_on_c, 0, 71, 0
2, 17834, Note_on_c, 0, 79, 0
2, 17878, Note_on_c, 0, 74, 0
2, 17880, Note_on_c, 0, 81, 86
2, 17880, Note_on_c, 0, 72, 60
2, 17884, Control_c, 0, 64, 0
2, 17917, Control_c, 0, 64, 127
2, 17940, Note_on_c, 0, 74, 69
2, 17941, Note_on_c, 0, 72, 0
2, 17947, Note_on_c, 0, 81, 0
2, 17970, Note_on_c, 0, 78, 78
2, 17988, Note_on_c, 0, 74, 0
2, 17993, Note_on_c, 0, 78, 0
2, 17993, Control_c, 0, 64, 0
2, 18000, Note_on_c, 0, 71, 67
2, 18000, Note_on_c, 0, 79, 86
2, 18027, Control_c, 0, 64, 127
2, 18038, Note_on_c, 0, 79, 0
2, 18059, Note_on_c, 0, 71, 0
2, 18060, Note_on_c, 0, 74, 82
2, 18115, Note_on_c, 0, 74, 0
2, 18116, Control_c, 0, 64, 0
2, 18120, Note_on_c, 0, 72, 72
2, 18120, Note_on_c, 0, 86, 103
2, 18149, Control_c, 0, 64, 127
2, 18180, Note_on_c, 0, 74, 67
2, 18184, Note_on_c, 0, 86, 0
2, 18184, Note_on_c, 0, 72, 0
2, 18210, Note_on_c, 0, 78, 74
2, 18223, Note_on_c, 0, 74, 0
2, 18225, Note_on_c, 0, 78, 0
2, 18238, Control_c, 0, 64, 0
2, 18240, Note_on_c, 0, 79, 86
2, 18240, Note_on_c, 0, 71, 70
2, 18272, Control_c, 0, 64, 127
2, 18299, Note_on_c, 0, 71, 0
2, 18300, Note_on_c, 0, 74, 74
2, 18306, Note_on_c, 0, 79, 0
2, 18349, Note_on_c, 0, 74, 0
2, 18360, Note_on_c, 0, 72, 67
2, 18360, Note_on_c, 0, 81, 90
2, 18360, Control_c, 0, 64, 0
2, 18392, Control_c, 0, 64, 127
2, 18420, Note_on_c, 0, 74, 78
2, 18422, Note_on_c, 0, 72, 0
2, 18433, Note_on_c, 0, 81, 0
2, 18450, Note_on_c, 0, 78, 70
2, 18464, Note_on_c, 0, 74, 0
2, 18468, Control_c, 0, 64, 0
2, 18469, Note_on_c, 0, 78, 0
2, 18480, Note_on_c, 0, 71, 74
2, 18480, Note_on_c, 0, 79, 86
2, 18499, Control_c, 0, 64, 127
2, 18517, Note_on_c, 0, 79, 0
2, 18540, Note_on_c, 0, 74, 78
2, 18541, Note_on_c, 0, 71, 0
2, 18592, Note_on_c, 0, 74, 0
2, 18595, Control_c, 0, 64, 0
2, 18600, Note_on_c, 0, 72, 86
2, 18600, Note_on_c, 0, 86, 103
2, 18626, Control_c, 0, 64, 127
2, 18660, Note_on_c, 0, 74, 70
2, 18661, Note_on_c, 0, 72, 0
2, 18685, Note_on_c, 0, 86, 0
2, 18688, Note_on_c, 0, 74, 0
2, 18690, Note_on_c, 0, 78, 72
2, 18709, Control_c, 0, 64, 0
2, 18710, Note_on_c, 0, 78, 0
2, 18720, Note_on_c, 0, 79, 103
2, 18720, Note_on_c, 0, 74, 74
2, 18720, Note_on_c, 0, 71, 63
2, 18739, Control_c, 0, 64, 127
2, 18774, Note_on_c, 0, 74, 0
2, 18775, Note_on_c, 0, 79, 0
2, 18778, Note_on_c, 0, 71, 0
2, 18833, Control_c, 0, 64, 0
2, 18840, Note_on_c, 0, 79, 99
2, 18840, Note_on_c, 0, 71, 63
2, 18840, Note_on_c, 0, 74, 70
2, 18864, Control_c, 0, 64, 127
2, 18899, Note_on_c, 0, 74, 0
2, 18901, Note_on_c, 0, 71, 0
2, 18907, Note_on_c, 0, 79, 0
2, 18951, Control_c, 0, 64, 0
2, 18960, Note_on_c, 0, 79, 99
2, 18960, Note_on_c, 0, 71, 66
2, 18960, Note_on_c, 0, 74, 72
2, 18979, Control_c, 0, 64, 127
2, 19009, Note_on_c, 0, 79, 0
2, 19010, Note_on_c, 0, 74, 0
2, 19012, Note_on_c, 0, 71, 0
2, 19082, Control_c, 0, 64, 0
2, 19200, Note_on_c, 0, 79, 108
2, 19200, Note_on_c, 0, 74, 103
2, 19200, Note_on_c, 0, 71, 108
2, 19200, Note_on_c, 0, 67, 103
2, 19211, Control_c, 0, 64, 127
2, 19348, Note_on_c, 0, 71, 0
2, 19350, Note_on_c, 0, 74, 0
2, 19354, Note_on_c, 0, 79, 0
2, 19354, Note_on_c, 0, 67, 0
2, 19440, Note_on_c, 0, 79, 103
2, 19440, Note_on_c, 0, 71, 103
2, 19440, Note_on_c, 0, 74, 108
2, 19440, Note_on_c, 0, 67, 103
2, 19456, Control_c, 0, 64, 0
2, 19498, Control_c, 0, 64, 127
2, 19556, Note_on_c, 0, 71, 0
2, 19560, Note_on_c, 0, 74, 0
2, 19562, Note_on_c, 0, 79, 0
2, 19563, Note_on_c, 0, 67, 0
2, 19680, Control_c, 0, 64, 0
2, 19680, Note_on_c, 0, 67, 99
2, 19680, Note_on_c, 0, 79, 108
2, 19680, Note_on_c, 0, 74, 108
2, 19680, Note_on_c, 0, 71, 103
2, 19713, Control_c, 0, 64, 127
2, 19754, Note_on_c, 0, 71, 0
2, 19756, Note_on_c, 0, 74, 0
2, 19756, Note_on_c, 0, 67, 0
2, 19762, Note_on_c, 0, 79, 0
2, 19911, Control_c, 0, 64, 0
2, 19920, Note_on_c, 0, 81, 117
2, 19980, Note_on_c, 0, 79, 99
2, 19985, Note_on_c, 0, 81, 0
2, 20040, Note_on_c, 0, 78, 82
2, 20043, Note_on_c, 0, 79, 0
2, 20100, Note_on_c, 0, 79, 103
2, 20118, Note_on_c, 0, 78, 0
2, 20146, Note_on_c, 0, 79, 0
2, 20160, Note_on_c, 0, 74, 103
2, 20160, Note_on_c, 0, 77, 108
2, 20160, Note_on_c, 0, 80, 103
2, 20160, Note_on_c, 0, 65, 86
2, 20160, Note_on_c, 0, 68, 86
2, 20160, Note_on_c, 0, 71, 99
2, 20227, Control_c, 0, 64, 127
2, 20273, Note_on_c, 0, 68, 0
2, 20275, Note_on_c, 0, 74, 0
2, 20275, Note_on_c, 0, 71, 0
2, 20277, Note_on_c, 0, 80, 0
2, 20279, Note_on_c, 0, 77, 0
2, 20280, Note_on_c, 0, 65, 0
2, 20394, Control_c, 0, 64, 0
2, 20400, Note_on_c, 0, 80, 103
2, 20400, Note_on_c, 0, 77, 108
2, 20400, Note_on_c, 0, 74, 108
2, 20400, Note_on_c, 0, 65, 90
2, 20400, Note_on_c, 0, 68, 90
2, 20400, Note_on_c, 0, 71, 103
2, 20441, Control_c, 0, 64, 127
2, 20509, Note_on_c, 0, 68, 0
2, 20516, Note_on_c, 0, 71, 0
2, 20517, Note_on_c, 0, 65, 0
2, 20518, Note_on_c, 0, 74, 0
2, 20520, Note_on_c, 0, 77, 0
2, 20523, Note_on_c, 0, 80, 0
2, 20640, Note_on_c, 0, 74, 112
2, 20640, Note_on_c, 0, 80, 103
2, 20640, Note_on_c, 0, 77, 108
2, 20640, Note_on_c, 0, 68, 90
2, 20640, Note_on_c, 0, 65, 90
2, 20640, Note_on_c, 0, 71, 103
2, 20649, Control_c, 0, 64, 0
2, 20687, Control_c, 0, 64, 127
2, 20736, Note_on_c, 0, 71, 0
2, 20737, Note_on_c, 0, 68, 0
2, 20738, Note_on_c, 0, 65, 0
2, 20740, Note_on_c, 0, 77, 0
2, 20742, Note_on_c, 0, 74, 0
2, 20744, Note_on_c, 0, 80, 0
2, 20872, Control_c, 0, 64, 0
2, 20880, Note_on_c, 0, 83, 103
2, 20931, Note_on_c, 0, 83, 0
2, 20940, Note_on_c, 0, 80, 95
2, 20994, Control_c, 0, 64, 127
2, 20995, Note_on_c, 0, 80, 0
2, 21000, Note_on_c, 0, 77, 99
2, 21060, Note_on_c, 0, 76, 90
2, 21061, Note_on_c, 0, 77, 0
2, 21098, Note_on_c, 0, 76, 0
2, 21108, Control_c, 0, 64, 0
2, 21120, Note_on_c, 0, 64, 67
2, 21120, Note_on_c, 0, 81, 103
2, 21161, Control_c, 0, 64, 127
2, 21180, Note_on_c, 0, 72, 70
2, 21183, Note_on_c, 0, 81, 0
2, 21191, Note_on_c, 0, 64, 0
2, 21239, Note_on_c, 0, 72, 0
2, 21240, Note_on_c, 0, 69, 67
2, 21240, Note_on_c, 0, 76, 90
2, 21261, Control_c, 0, 64, 0
2, 21297, Control_c, 0, 64, 127
2, 21299, Note_on_c, 0, 69, 0
2, 21300, Note_on_c, 0, 72, 70
2, 21324, Note_on_c, 0, 76, 0
2, 21353, Note_on_c, 0, 72, 0
2, 21360, Note_on_c, 0, 64, 82
2, 21377, Control_c, 0, 64, 0
2, 21413, Control_c, 0, 64, 127
2, 21420, Note_on_c, 0, 72, 72
2, 21431, Note_on_c, 0, 64, 0
2, 21474, Note_on_c, 0, 72, 0
2, 21480, Note_on_c, 0, 69, 74
2, 21480, Note_on_c, 0, 81, 103
2, 21488, Control_c, 0, 64, 0
2, 21521, Control_c, 0, 64, 127
2, 21539, Note_on_c, 0, 69, 0
2, 21540, Note_on_c, 0, 72, 74
2, 21565, Note_on_c, 0, 81, 0
2, 21583, Note_on_c, 0, 72, 0
2, 21600, Note_on_c, 0, 64, 90
2, 21600, Note_on_c, 0, 83, 108
2, 21602, Control_c, 0, 64, 0
2, 21639, Control_c, 0, 64, 127
2, 21660, Note_on_c, 0, 71, 86
2, 21664, Note_on_c, 0, 64, 0
2, 21694, Note_on_c, 0, 83, 0
2, 21711, Note_on_c, 0, 71, 0
2, 21720, Note_on_c, 0, 68, 72
2, 21720, Note_on_c, 0, 83, 103
2, 21731, Control_c, 0, 64, 0
2, 21765, Control_c, 0, 64, 127
2, 21780, Note_on_c, 0, 71, 86
2, 21785, Note_on_c, 0, 68, 0
2, 21806, Note_on_c, 0, 83, 0
2, 21822, Note_on_c, 0, 71, 0
2, 21839, Control_c, 0, 64, 0
2, 21840, Note_on_c, 0, 64, 95
2, 21840, Note_on_c, 0, 81, 99
2, 21876, Control_c, 0, 64, 127
2, 21892, Note_on_c, 0, 81, 0
2, 21900, Note_on_c, 0, 80, 99
2, 21900, Note_on_c, 0, 71, 86
2, 21903, Note_on_c, 0, 64, 0
2, 21951, Control_c, 0, 64, 0
2, 21955, Note_on_c, 0, 71, 0
2, 21958, Note_on_c, 0, 80, 0
2, 21960, Note_on_c, 0, 68, 82
2, 21960, Note_on_c, 0, 78, 90
2, 21983, Control_c, 0, 64, 127
2, 22006, Note_on_c, 0, 78, 0
2, 22020, Note_on_c, 0, 68, 0
2, 22020, Note_on_c, 0, 76, 99
2, 22020, Note_on_c, 0, 71, 95
2, 22056, Note_on_c, 0, 71, 0
2, 22058, Note_on_c, 0, 76, 0
2, 22074, Control_c, 0, 64, 0
2, 22080, Note_on_c, 0, 64, 99
2, 22080, Note_on_c, 0, 81, 99
2, 22116, Control_c, 0, 64, 127
2, 22140, Note_on_c, 0, 72, 82
2, 22148, Note_on_c, 0, 64, 0
2, 22165, Note_on_c, 0, 81, 0
2, 22195, Note_on_c, 0, 72, 0
2, 22200, Note_on_c, 0, 69, 66
2, 22200, Note_on_c, 0, 76, 99
2, 22207, Control_c, 0, 64, 0
2, 22238, Control_c, 0, 64, 127
2, 22260, Note_on_c, 0, 69, 0
2, 22260, Note_on_c, 0, 72, 74
2, 22269, Note_on_c, 0, 76, 0
2, 22302, Note_on_c, 0, 72, 0
2, 22320, Note_on_c, 0, 64, 90
2, 22322, Control_c, 0, 64, 0
2, 22358, Control_c, 0, 64, 127
2, 22378, Note_on_c, 0, 64, 0
2, 22380, Note_on_c, 0, 72, 74
2, 22439, Note_on_c, 0, 72, 0
2, 22440, Note_on_c, 0, 69, 70
2, 22440, Control_c, 0, 64, 0
2, 22440, Note_on_c, 0, 81, 103
2, 22473, Control_c, 0, 64, 127
2, 22500, Note_on_c, 0, 72, 86
2, 22504, Note_on_c, 0, 69, 0
2, 22508, Note_on_c, 0, 81, 0
2, 22540, Note_on_c, 0, 72, 0
2, 22560, Note_on_c, 0, 64, 86
2, 22560, Note_on_c, 0, 83, 117
2, 22567, Control_c, 0, 64, 0
2, 22603, Control_c, 0, 64, 127
2, 22620, Note_on_c, 0, 71, 82
2, 22622, Note_on_c, 0, 83, 0
2, 22625, Note_on_c, 0, 64, 0
2, 22673, Note_on_c, 0, 71, 0
2, 22680, Note_on_c, 0, 68, 74
2, 22680, Note_on_c, 0, 83, 117
2, 22694, Control_c, 0, 64, 0
2, 22725, Control_c, 0, 64, 127
2, 22740, Note_on_c, 0, 71, 82
2, 22745, Note_on_c, 0, 68, 0
2, 22759, Note_on_c, 0, 83, 0
2, 22785, Note_on_c, 0, 71, 0
2, 22800, Note_on_c, 0, 83, 117
2, 22800, Note_on_c, 0, 64, 82
2, 22801, Control_c, 0, 64, 0
2, 22831, Control_c, 0, 64, 127
2, 22837, Note_on_c, 0, 83, 0
2, 22860, Note_on_c, 0, 64, 0
2, 22860, Note_on_c, 0, 71, 86
2, 22860, Note_on_c, 0, 86, 112
2, 22889, Note_on_c, 0, 86, 0
2, 22914, Note_on_c, 0, 71, 0
2, 22920, Note_on_c, 0, 68, 74
2, 22920, Note_on_c, 0, 84, 103
2, 22931, Control_c, 0, 64, 0
2, 22957, Note_on_c, 0, 84, 0
2, 22966, Control_c, 0, 64, 127
2, 22980, Note_on_c, 0, 68, 0
2, 22980, Note_on_c, 0, 83, 99
2, 22980, Note_on_c, 0, 71, 86
2, 23013, Note_on_c, 0, 83, 0
2, 23014, Note_on_c, 0, 71, 0
2, 23034, Control_c, 0, 64, 0
2, 23040, Note_on_c, 0, 64, 82
2, 23040, Note_on_c, 0, 81, 108
2, 23067, Control_c, 0, 64, 127
2, 23088, Note_on_c, 0, 81, 0
2, 23100, Note_on_c, 0, 72, 78
2, 23109, Note_on_c, 0, 64, 0
2, 23155, Note_on_c, 0, 72, 0
2, 23160, Note_on_c, 0, 69, 67
2, 23160, Note_on_c, 0, 76, 99
2, 23163, Control_c, 0, 64, 0
2, 23196, Control_c, 0, 64, 127
2, 23218, Note_on_c, 0, 69, 0
2, 23220, Note_on_c, 0, 72, 72
2, 23241, Note_on_c, 0, 76, 0
2, 23266, Note_on_c, 0, 72, 0
2, 23280, Note_on_c, 0, 64, 90
2, 23287, Control_c, 0, 64, 0
2, 23321, Control_c, 0, 64, 127
2, 23336, Note_on_c, 0, 64, 0
2, 23340, Note_on_c, 0, 72, 78
2, 23396, Note_on_c, 0, 72, 0
2, 23400, Note_on_c, 0, 69, 69
2, 23400, Note_on_c, 0, 81, 112
2, 23408, Control_c, 0, 64, 0
2, 23441, Control_c, 0, 64, 127
2, 23458, Note_on_c, 0, 69, 0
2, 23460, Note_on_c, 0, 72, 86
2, 23487, Note_on_c, 0, 81, 0
2, 23499, Note_on_c, 0, 72, 0
2, 23520, Note_on_c, 0, 64, 86
2, 23520, Control_c, 0, 64, 0
2, 23520, Note_on_c, 0, 82, 123
2, 23556, Control_c, 0, 64, 127
2, 23580, Note_on_c, 0, 72, 86
2, 23582, Note_on_c, 0, 64, 0
2, 23611, Note_on_c, 0, 82, 0
2, 23633, Note_on_c, 0, 72, 0
2, 23640, Note_on_c, 0, 67, 86
2, 23640, Note_on_c, 0, 82, 127
2, 23645, Control_c, 0, 64, 0
2, 23673, Control_c, 0, 64, 127
2, 23700, Note_on_c, 0, 72, 82
2, 23707, Note_on_c, 0, 67, 0
2, 23713, Note_on_c, 0, 82, 0
2, 23741, Note_on_c, 0, 72, 0
2, 23749, Control_c, 0, 64, 0
2, 23760, Note_on_c, 0, 64, 95
2, 23760, Note_on_c, 0, 82, 117
2, 23778, Control_c, 0, 64, 127
2, 23813, Note_on_c, 0, 82, 0
2, 23818, Note_on_c, 0, 64, 0
2, 23820, Note_on_c, 0, 72, 82
2, 23820, Note_on_c, 0, 86, 99
2, 23863, Note_on_c, 0, 86, 0
2, 23874, Note_on_c, 0, 72, 0
2, 23880, Note_on_c, 0, 67, 82
2, 23880, Note_on_c, 0, 84, 99
2, 23934, Note_on_c, 0, 84, 0
2, 23940, Note_on_c, 0, 67, 0
2, 23940, Note_on_c, 0, 72, 72
2, 23940, Note_on_c, 0, 82, 103
2, 23976, Note_on_c, 0, 82, 0
2, 23988, Note_on_c, 0, 72, 0
2, 23989, Control_c, 0, 64, 0
2, 24000, Note_on_c, 0, 65, 72
2, 24000, Note_on_c, 0, 81, 99
2, 24032, Control_c, 0, 64, 127
2, 24060, Note_on_c, 0, 72, 69
2, 24063, Note_on_c, 0, 81, 0
2, 24063, Note_on_c, 0, 65, 0
2, 24114, Note_on_c, 0, 72, 0
2, 24120, Note_on_c, 0, 69, 67
2, 24120, Note_on_c, 0, 77, 99
2, 24129, Control_c, 0, 64, 0
2, 24163, Control_c, 0, 64, 127
2, 24179, Note_on_c, 0, 69, 0
2, 24180, Note_on_c, 0, 72, 67
2, 24202, Note_on_c, 0, 77, 0
2, 24235, Note_on_c, 0, 72, 0
2, 24240, Note_on_c, 0, 65, 82
2, 24253, Control_c, 0, 64, 0
2, 24290, Control_c, 0, 64, 127
2, 24300, Note_on_c, 0, 72, 70
2, 24303, Note_on_c, 0, 65, 0
2, 24354, Note_on_c, 0, 72, 0
2, 24360, Note_on_c, 0, 69, 63
2, 24360, Note_on_c, 0, 81, 78
2, 24368, Control_c, 0, 64, 0
2, 24399, Control_c, 0, 64, 127
2, 24420, Note_on_c, 0, 72, 86
2, 24421, Note_on_c, 0, 69, 0
2, 24450, Note_on_c, 0, 81, 0
2, 24458, Note_on_c, 0, 72, 0
2, 24480, Note_on_c, 0, 82, 103
2, 24480, Note_on_c, 0, 64, 82
2, 24484, Control_c, 0, 64, 0
2, 24519, Control_c, 0, 64, 127
2, 24540, Note_on_c, 0, 72, 66
2, 24551, Note_on_c, 0, 64, 0
2, 24564, Note_on_c, 0, 82, 0
2, 24591, Note_on_c, 0, 72, 0
2, 24600, Note_on_c, 0, 67, 67
2, 24600, Note_on_c, 0, 82, 117
2, 24611, Control_c, 0, 64, 0
2, 24638, Control_c, 0, 64, 127
2, 24659, Note_on_c, 0, 67, 0
2, 24660, Note_on_c, 0, 72, 70
2, 24665, Note_on_c, 0, 82, 0
2, 24703, Note_on_c, 0, 72, 0
2, 24720, Note_on_c, 0, 64, 90
2, 24720, Note_on_c, 0, 82, 112
2, 24724, Control_c, 0, 64, 0
2, 24753, Control_c, 0, 64, 127
2, 24768, Note_on_c, 0, 82, 0
2, 24775, Note_on_c, 0, 64, 0
2, 24780, Note_on_c, 0, 72, 72
2, 24780, Note_on_c, 0, 86, 99
2, 24817, Note_on_c, 0, 86, 0
2, 24838, Note_on_c, 0, 72, 0
2, 24840, Note_on_c, 0, 67, 72
2, 24840, Note_on_c, 0, 84, 90
2, 24841, Control_c, 0, 64, 0
2, 24871, Control_c, 0, 64, 127
2, 24886, Note_on_c, 0, 84, 0
2, 24894, Note_on_c, 0, 67, 0
2, 24900, Note_on_c, 0, 82, 78
2, 24900, Note_on_c, 0, 72, 72
2, 24934, Note_on_c, 0, 82, 0
2, 24948, Note_on_c, 0, 72, 0
2, 24956, Control_c, 0, 64, 0
2, 24960, Note_on_c, 0, 81, 95
2, 24960, Note_on_c, 0, 65, 70
2, 24992, Control_c, 0, 64, 127
2, 25019, Note_on_c, 0, 65, 0
2, 25020, Note_on_c, 0, 81, 0
2, 25020, Note_on_c, 0, 72, 74
2, 25063, Note_on_c, 0, 72, 0
2, 25080, Note_on_c, 0, 69, 67
2, 25080, Note_on_c, 0, 77, 86
2, 25082, Control_c, 0, 64, 0
2, 25115, Control_c, 0, 64, 127
2, 25136, Note_on_c, 0, 69, 0
2, 25140, Note_on_c, 0, 72, 72
2, 25153, Note_on_c, 0, 77, 0
2, 25180, Note_on_c, 0, 72, 0
2, 25200, Note_on_c, 0, 65, 74
2, 25200, Control_c, 0, 64, 0
2, 25235, Control_c, 0, 64, 127
2, 25260, Note_on_c, 0, 65, 0
2, 25260, Note_on_c, 0, 72, 70
2, 25314, Note_on_c, 0, 72, 0
2, 25320, Note_on_c, 0, 69, 74
2, 25320, Note_on_c, 0, 77, 108
2, 25323, Control_c, 0, 64, 0
2, 25354, Control_c, 0, 64, 127
2, 25380, Note_on_c, 0, 72, 82
2, 25383, Note_on_c, 0, 69, 0
2, 25400, Note_on_c, 0, 77, 0
2, 25418, Note_on_c, 0, 72, 0
2, 25438, Control_c, 0, 64, 0
2, 25440, Note_on_c, 0, 63, 72
2, 25440, Note_on_c, 0, 81, 112
2, 25474, Control_c, 0, 64, 127
2, 25497, Note_on_c, 0, 63, 0
2, 25500, Note_on_c, 0, 72, 74
2, 25509, Note_on_c, 0, 81, 0
2, 25555, Note_on_c, 0, 72, 0
2, 25560, Note_on_c, 0, 69, 86
2, 25560, Note_on_c, 0, 81, 108
2, 25563, Control_c, 0, 64, 0
2, 25596, Control_c, 0, 64, 127
2, 25620, Note_on_c, 0, 69, 0
2, 25620, Note_on_c, 0, 72, 86
2, 25625, Note_on_c, 0, 81, 0
2, 25660, Note_on_c, 0, 72, 0
2, 25680, Note_on_c, 0, 63, 74
2, 25680, Note_on_c, 0, 81, 108
2, 25682, Control_c, 0, 64, 0
2, 25712, Control_c, 0, 64, 127
2, 25724, Note_on_c, 0, 81, 0
2, 25736, Note_on_c, 0, 63, 0
2, 25740, Note_on_c, 0, 72, 82
2, 25740, Note_on_c, 0, 84, 103
2, 25775, Note_on_c, 0, 84, 0
2, 25789, Note_on_c, 0, 72, 0
2, 25800, Note_on_c, 0, 69, 74
2, 25800, Note_on_c, 0, 83, 99
2, 25843, Note_on_c, 0, 83, 0
2, 25860, Note_on_c, 0, 81, 90
2, 25860, Note_on_c, 0, 72, 82
2, 25862, Note_on_c, 0, 69, 0
2, 25886, Note_on_c, 0, 81, 0
2, 25896, Note_on_c, 0, 72, 0
2, 25920, Note_on_c, 0, 81, 117
2, 25920, Note_on_c, 0, 62, 67
2, 25931, Control_c, 0, 64, 0
2, 25973, Control_c, 0, 64, 127
2, 25980, Note_on_c, 0, 72, 69
2, 25991, Note_on_c, 0, 62, 0
2, 26012, Note_on_c, 0, 81, 0
2, 26040, Note_on_c, 0, 69, 82
2, 26040, Note_on_c, 0, 81, 123
2, 26045, Note_on_c, 0, 72, 0
2, 26047, Control_c, 0, 64, 0
2, 26073, Control_c, 0, 64, 127
2, 26100, Note_on_c, 0, 72, 82
2, 26106, Note_on_c, 0, 81, 0
2, 26114, Note_on_c, 0, 69, 0
2, 26136, Note_on_c, 0, 72, 0
2, 26153, Control_c, 0, 64, 0
2, 26160, Note_on_c, 0, 62, 90
2, 26160, Note_on_c, 0, 81, 112
2, 26185, Control_c, 0, 64, 127
2, 26199, Note_on_c, 0, 81, 0
2, 26218, Note_on_c, 0, 62, 0
2, 26220, Note_on_c, 0, 72, 82
2, 26220, Note_on_c, 0, 84, 99
2, 26255, Note_on_c, 0, 84, 0
2, 26268, Note_on_c, 0, 72, 0
2, 26280, Note_on_c, 0, 83, 99
2, 26280, Note_on_c, 0, 69, 86
2, 26317, Note_on_c, 0, 83, 0
2, 26340, Note_on_c, 0, 81, 99
2, 26340, Note_on_c, 0, 72, 86
2, 26343, Note_on_c, 0, 69, 0
2, 26373, Note_on_c, 0, 72, 0
2, 26373, Note_on_c, 0, 81, 0
2, 26400, Note_on_c, 0, 79, 117
2, 26400, Note_on_c, 0, 61, 72
2, 26401, Control_c, 0, 64, 0
2, 26442, Control_c, 0, 64, 127
2, 26460, Note_on_c, 0, 70, 78
2, 26469, Note_on_c, 0, 61, 0
2, 26487, Note_on_c, 0, 79, 0
2, 26500, Note_on_c, 0, 70, 0
2, 26520, Note_on_c, 0, 67, 86
2, 26520, Note_on_c, 0, 79, 103
2, 26522, Control_c, 0, 64, 0
2, 26551, Control_c, 0, 64, 127
2, 26580, Note_on_c, 0, 70, 72
2, 26581, Note_on_c, 0, 67, 0
2, 26595, Note_on_c, 0, 79, 0
2, 26616, Note_on_c, 0, 70, 0
2, 26634, Control_c, 0, 64, 0
2, 26640, Note_on_c, 0, 61, 82
2, 26640, Note_on_c, 0, 79, 112
2, 26664, Control_c, 0, 64, 127
2, 26686, Note_on_c, 0, 79, 0
2, 26690, Note_on_c, 0, 61, 0
2, 26700, Note_on_c, 0, 70, 74
2, 26700, Note_on_c, 0, 82, 95
2, 26738, Note_on_c, 0, 82, 0
2, 26748, Note_on_c, 0, 70, 0
2, 26758, Control_c, 0, 64, 0
2, 26760, Note_on_c, 0, 67, 82
2, 26760, Note_on_c, 0, 81, 99
2, 26787, Control_c, 0, 64, 127
2, 26802, Note_on_c, 0, 67, 0
2, 26808, Note_on_c, 0, 81, 0
2, 26820, Note_on_c, 0, 70, 78
2, 26820, Note_on_c, 0, 79, 103
2, 26845, Note_on_c, 0, 79, 0
2, 26858, Note_on_c, 0, 70, 0
2, 26873, Control_c, 0, 64, 0
2, 26880, Note_on_c, 0, 62, 86
2, 26880, Note_on_c, 0, 78, 123
2, 26911, Control_c, 0, 64, 127
2, 26925, Note_on_c, 0, 78, 0
2, 26940, Note_on_c, 0, 69, 82
2, 26941, Note_on_c, 0, 62, 0
2, 26993, Note_on_c, 0, 69, 0
2, 27000, Note_on_c, 0, 66, 86
2, 27000, Note_on_c, 0, 74, 95
2, 27000, Note_on_c, 0, 86, 117
2, 27009, Control_c, 0, 64, 0
2, 27047, Control_c, 0, 64, 127
2, 27060, Note_on_c, 0, 69, 86
2, 27062, Note_on_c, 0, 66, 0
2, 27115, Note_on_c, 0, 69, 0
2, 27120, Note_on_c, 0, 62, 99
2, 27123, Note_on_c, 0, 86, 0
2, 27136, Note_on_c, 0, 74, 0
2, 27147, Control_c, 0, 64, 0
2, 27180, Note_on_c, 0, 62, 0
2, 27180, Control_c, 0, 64, 127
2, 27180, Note_on_c, 0, 69, 90
2, 27218, Note_on_c, 0, 69, 0
2, 27240, Note_on_c, 0, 66, 90
2, 27240, Note_on_c, 0, 78, 108
2, 27247, Control_c, 0, 64, 0
2, 27278, Control_c, 0, 64, 127
2, 27300, Note_on_c, 0, 69, 90
2, 27303, Note_on_c, 0, 66, 0
2, 27307, Note_on_c, 0, 78, 0
2, 27327, Note_on_c, 0, 69, 0
2, 27348, Control_c, 0, 64, 0
2, 27360, Note_on_c, 0, 79, 103
2, 27360, Note_on_c, 0, 61, 69
2, 27391, Control_c, 0, 64, 127
2, 27420, Note_on_c, 0, 70, 72
2, 27422, Note_on_c, 0, 61, 0
2, 27436, Note_on_c, 0, 79, 0
2, 27473, Note_on_c, 0, 70, 0
2, 27480, Note_on_c, 0, 79, 103
2, 27480, Control_c, 0, 64, 0
2, 27480, Note_on_c, 0, 67, 86
2, 27512, Control_c, 0, 64, 127
2, 27538, Note_on_c, 0, 67, 0
2, 27540, Note_on_c, 0, 70, 74
2, 27553, Note_on_c, 0, 79, 0
2, 27590, Note_on_c, 0, 70, 0
2, 27597, Control_c, 0, 64, 0
2, 27600, Note_on_c, 0, 61, 72
2, 27600, Note_on_c, 0, 79, 103
2, 27631, Control_c, 0, 64, 127
2, 27652, Note_on_c, 0, 79, 0
2, 27653, Note_on_c, 0, 61, 0
2, 27660, Note_on_c, 0, 70, 72
2, 27660, Note_on_c, 0, 82, 86
2, 27700, Note_on_c, 0, 82, 0
2, 27706, Note_on_c, 0, 70, 0
2, 27719, Control_c, 0, 64, 0
2, 27720, Note_on_c, 0, 81, 82
2, 27720, Note_on_c, 0, 67, 86
2, 27748, Control_c, 0, 64, 127
2, 27772, Note_on_c, 0, 81, 0
2, 27777, Note_on_c, 0, 67, 0
2, 27780, Note_on_c, 0, 70, 67
2, 27780, Note_on_c, 0, 79, 95
2, 27803, Note_on_c, 0, 79, 0
2, 27813, Note_on_c, 0, 70, 0
2, 27840, Note_on_c, 0, 78, 95
2, 27840, Note_on_c, 0, 62, 82
2, 27840, Control_c, 0, 64, 0
2, 27874, Control_c, 0, 64, 127
2, 27883, Note_on_c, 0, 78, 0
2, 27900, Note_on_c, 0, 62, 0
2, 27900, Note_on_c, 0, 69, 90
2, 27933, Note_on_c, 0, 69, 0
2, 27960, Note_on_c, 0, 66, 78
2, 27960, Note_on_c, 0, 74, 99
2, 27960, Note_on_c, 0, 86, 112
2, 27963, Control_c, 0, 64, 0
2, 27999, Control_c, 0, 64, 127
2, 28019, Note_on_c, 0, 66, 0
2, 28020, Note_on_c, 0, 69, 82
2, 28064, Note_on_c, 0, 69, 0
2, 28078, Control_c, 0, 64, 0
2, 28080, Note_on_c, 0, 62, 90
2, 28107, Control_c, 0, 64, 127
2, 28132, Note_on_c, 0, 86, 0
2, 28140, Note_on_c, 0, 62, 0
2, 28140, Note_on_c, 0, 69, 90
2, 28143, Note_on_c, 0, 74, 0
2, 28178, Control_c, 0, 64, 0
2, 28192, Note_on_c, 0, 69, 0
2, 28200, Note_on_c, 0, 66, 78
2, 28200, Note_on_c, 0, 78, 112
2, 28221, Control_c, 0, 64, 127
2, 28260, Note_on_c, 0, 69, 90
2, 28261, Note_on_c, 0, 66, 0
2, 28293, Note_on_c, 0, 78, 0
2, 28298, Note_on_c, 0, 69, 0
2, 28307, Control_c, 0, 64, 0
2, 28320, Note_on_c, 0, 61, 86
2, 28320, Note_on_c, 0, 79, 108
2, 28342, Control_c, 0, 64, 127
2, 28380, Note_on_c, 0, 70, 78
2, 28385, Note_on_c, 0, 61, 0
2, 28401, Note_on_c, 0, 79, 0
2, 28429, Note_on_c, 0, 70, 0
2, 28439, Control_c, 0, 64, 0
2, 28440, Note_on_c, 0, 79, 103
2, 28440, Note_on_c, 0, 67, 86
2, 28459, Control_c, 0, 64, 127
2, 28500, Note_on_c, 0, 70, 70
2, 28503, Note_on_c, 0, 67, 0
2, 28521, Note_on_c, 0, 79, 0
2, 28535, Control_c, 0, 64, 0
2, 28545, Note_on_c, 0, 70, 0
2, 28560, Note_on_c, 0, 61, 95
2, 28560, Note_on_c, 0, 79, 108
2, 28561, Control_c, 0, 64, 127
2, 28620, Note_on_c, 0, 70, 74
2, 28620, Note_on_c, 0, 82, 99
2, 28621, Note_on_c, 0, 79, 0
2, 28623, Note_on_c, 0, 61, 0
2, 28660, Note_on_c, 0, 82, 0
2, 28671, Note_on_c, 0, 70, 0
2, 28680, Note_on_c, 0, 81, 103
2, 28680, Note_on_c, 0, 67, 90
2, 28725, Note_on_c, 0, 81, 0
2, 28740, Note_on_c, 0, 79, 95
2, 28740, Note_on_c, 0, 70, 67
2, 28742, Note_on_c, 0, 67, 0
2, 28765, Note_on_c, 0, 79, 0
2, 28767, Note_on_c, 0, 70, 0
2, 28800, Note_on_c, 0, 66, 72
2, 28800, Note_on_c, 0, 60, 95
2, 28800, Note_on_c, 0, 78, 127
2, 28800, Note_on_c, 0, 69, 72
2, 28810, Control_c, 0, 64, 0
2, 28848, Control_c, 0, 64, 127
2, 28903, Note_on_c, 0, 78, 0
2, 28920, Note_on_c, 0, 74, 103
2, 28920, Note_on_c, 0, 86, 127
2, 28928, Control_c, 0, 64, 0
2, 28969, Control_c, 0, 64, 127
2, 29282, Note_on_c, 0, 86, 0
2, 29282, Note_on_c, 0, 74, 0
2, 29284, Control_c, 0, 64, 0
2, 29285, Note_on_c, 0, 69, 0
2, 29292, Note_on_c, 0, 66, 0
2, 29293, Note_on_c, 0, 60, 0
2, 29760, Note_on_c, 0, 82, 86
2, 29818, Note_on_c, 0, 82, 0
2, 29820, Note_on_c, 0, 77, 90
2, 29829, Control_c, 0, 64, 127
2, 29863, Note_on_c, 0, 77, 0
2, 29880, Note_on_c, 0, 77, 99
2, 29880, Note_on_c, 0, 70, 74
2, 29880, Note_on_c, 0, 74, 67
2, 29886, Control_c, 0, 64, 0
2, 29913, Control_c, 0, 64, 127
2, 29958, Note_on_c, 0, 70, 0
2, 29961, Note_on_c, 0, 74, 0
2, 30000, Note_on_c, 0, 74, 70
2, 30000, Note_on_c, 0, 70, 74
2, 30041, Note_on_c, 0, 70, 0
2, 30047, Note_on_c, 0, 74, 0
2, 30068, Note_on_c, 0, 77, 0
2, 30120, Note_on_c, 0, 82, 95
2, 30120, Note_on_c, 0, 74, 78
2, 30120, Note_on_c, 0, 70, 82
2, 30167, Note_on_c, 0, 70, 0
2, 30178, Note_on_c, 0, 74, 0
2, 30194, Note_on_c, 0, 82, 0
2, 30240, Note_on_c, 0, 82, 95
2, 30252, Control_c, 0, 64, 0
2, 30285, Control_c, 0, 64, 127
2, 30297, Note_on_c, 0, 82, 0
2, 30300, Note_on_c, 0, 81, 99
2, 30353, Note_on_c, 0, 81, 0
2, 30359, Control_c, 0, 64, 0
2, 30360, Note_on_c, 0, 79, 103
2, 30360, Note_on_c, 0, 72, 86
2, 30360, Note_on_c, 0, 75, 82
2, 30391, Control_c, 0, 64, 127
2, 30416, Note_on_c, 0, 79, 0
2, 30417, Note_on_c, 0, 75, 0
2, 30417, Note_on_c, 0, 72, 0
2, 30420, Note_on_c, 0, 77, 99
2, 30453, Note_on_c, 0, 77, 0
2, 30478, Control_c, 0, 64, 0
2, 30480, Note_on_c, 0, 77, 99
2, 30480, Note_on_c, 0, 72, 82
2, 30480, Note_on_c, 0, 75, 86
2, 30507, Control_c, 0, 64, 127
2, 30545, Note_on_c, 0, 75, 0
2, 30549, Note_on_c, 0, 72, 0
2, 30600, Control_c, 0, 64, 0
2, 30600, Note_on_c, 0, 75, 82
2, 30600, Note_on_c, 0, 72, 90
2, 30623, Control_c, 0, 64, 127
2, 30665, Note_on_c, 0, 77, 0
2, 30674, Note_on_c, 0, 72, 0
2, 30677, Note_on_c, 0, 75, 0
2, 30715, Control_c, 0, 64, 0
2, 30720, Note_on_c, 0, 77, 117
2, 30752, Control_c, 0, 64, 127
2, 30808, Note_on_c, 0, 77, 0
2, 30840, Note_on_c, 0, 70, 86
2, 30840, Note_on_c, 0, 82, 123
2, 30840, Note_on_c, 0, 74, 86
2, 30843, Control_c, 0, 64, 0
2, 30874, Control_c, 0, 64, 127
2, 30906, Note_on_c, 0, 74, 0
2, 30908, Note_on_c, 0, 70, 0
2, 30929, Note_on_c, 0, 82, 0
2, 30960, Note_on_c, 0, 70, 86
2, 30960, Note_on_c, 0, 82, 117
2, 30960, Note_on_c, 0, 74, 86
2, 30962, Control_c, 0, 64, 0
2, 30986, Control_c, 0, 64, 127
2, 31014, Note_on_c, 0, 82, 0
2, 31020, Note_on_c, 0, 86, 103
2, 31025, Note_on_c, 0, 74, 0
2, 31025, Note_on_c, 0, 70, 0
2, 31057, Note_on_c, 0, 86, 0
2, 31080, Note_on_c, 0, 84, 99
2, 31080, Note_on_c, 0, 74, 90
2, 31080, Note_on_c, 0, 70, 78
2, 31084, Control_c, 0, 64, 0
2, 31113, Control_c, 0, 64, 127
2, 31130, Note_on_c, 0, 70, 0
2, 31133, Note_on_c, 0, 74, 0
2, 31140, Note_on_c, 0, 84, 0
2, 31140, Note_on_c, 0, 82, 103
2, 31167, Note_on_c, 0, 82, 0
2, 31179, Control_c, 0, 64, 0
2, 31200, Note_on_c, 0, 82, 99
2, 31213, Control_c, 0, 64, 127
2, 31236, Note_on_c, 0, 82, 0
2, 31260, Note_on_c, 0, 81, 95
2, 31303, Control_c, 0, 64, 0
2, 31312, Note_on_c, 0, 81, 0
2, 31320, Note_on_c, 0, 79, 99
2, 31320, Note_on_c, 0, 72, 86
2, 31320, Note_on_c, 0, 75, 82
2, 31336, Control_c, 0, 64, 127
2, 31370, Note_on_c, 0, 75, 0
2, 31377, Note_on_c, 0, 72, 0
2, 31377, Note_on_c, 0, 79, 0
2, 31380, Note_on_c, 0, 77, 99
2, 31414, Note_on_c, 0, 77, 0
2, 31434, Control_c, 0, 64, 0
2, 31440, Note_on_c, 0, 77, 108
2, 31440, Note_on_c, 0, 75, 82
2, 31440, Note_on_c, 0, 72, 86
2, 31467, Control_c, 0, 64, 127
2, 31503, Note_on_c, 0, 72, 0
2, 31503, Note_on_c, 0, 75, 0
2, 31560, Note_on_c, 0, 72, 86
2, 31560, Note_on_c, 0, 75, 90
2, 31569, Note_on_c, 0, 77, 0
2, 31599, Note_on_c, 0, 75, 0
2, 31602, Note_on_c, 0, 72, 0
2, 31677, Control_c, 0, 64, 0
2, 31680, Note_on_c, 0, 77, 103
2, 31715, Control_c, 0, 64, 127
2, 31740, Note_on_c, 0, 82, 99
2, 31742, Note_on_c, 0, 77, 0
2, 31771, Note_on_c, 0, 82, 0
2, 31793, Control_c, 0, 64, 0
2, 31800, Note_on_c, 0, 82, 112
2, 31800, Note_on_c, 0, 70, 78
2, 31800, Note_on_c, 0, 74, 86
2, 31824, Control_c, 0, 64, 127
2, 31864, Note_on_c, 0, 70, 0
2, 31865, Note_on_c, 0, 74, 0
2, 31920, Note_on_c, 0, 74, 90
2, 31920, Note_on_c, 0, 70, 82
2, 31922, Control_c, 0, 64, 0
2, 31946, Control_c, 0, 64, 127
2, 31986, Note_on_c, 0, 70, 0
2, 31992, Note_on_c, 0, 74, 0
2, 32018, Note_on_c, 0, 82, 0
2, 32040, Note_on_c, 0, 80, 108
2, 32040, Note_on_c, 0, 70, 86
2, 32040, Note_on_c, 0, 74, 95
2, 32050, Control_c, 0, 64, 0
2, 32079, Control_c, 0, 64, 127
2, 32110, Note_on_c, 0, 70, 0
2, 32116, Note_on_c, 0, 74, 0
2, 32134, Note_on_c, 0, 80, 0
2, 32160, Note_on_c, 0, 78, 103
2, 32161, Control_c, 0, 64, 0
2, 32194, Control_c, 0, 64, 127
2, 32203, Note_on_c, 0, 78, 0
2, 32220, Note_on_c, 0, 79, 99
2, 32256, Note_on_c, 0, 79, 0
2, 32275, Control_c, 0, 64, 0
2, 32280, Note_on_c, 0, 79, 108
2, 32280, Note_on_c, 0, 70, 86
2, 32280, Note_on_c, 0, 75, 90
2, 32307, Control_c, 0, 64, 127
2, 32347, Note_on_c, 0, 70, 0
2, 32350, Note_on_c, 0, 75, 0
2, 32400, Note_on_c, 0, 75, 86
2, 32400, Note_on_c, 0, 70, 78
2, 32435, Note_on_c, 0, 70, 0
2, 32442, Note_on_c, 0, 75, 0
2, 32470, Note_on_c, 0, 79, 0
2, 32524, Note_on_c, 0, 81, 103
2, 32526, Note_on_c, 0, 75, 82
2, 32526, Note_on_c, 0, 70, 78
2, 32556, Note_on_c, 0, 70, 0
2, 32563, Note_on_c, 0, 75, 0
2, 32568, Note_on_c, 0, 81, 0
2, 32623, Control_c, 0, 64, 0
2, 32640, Note_on_c, 0, 70, 86
2, 32640, Note_on_c, 0, 74, 90
2, 32640, Note_on_c, 0, 82, 112
2, 32653, Control_c, 0, 64, 127
2, 32673, Note_on_c, 0, 82, 0
2, 32680, Note_on_c, 0, 70, 0
2, 32680, Note_on_c, 0, 86, 103
2, 32681, Note_on_c, 0, 74, 0
2, 32699, Control_c, 0, 64, 0
2, 32718, Note_on_c, 0, 86, 0
2, 32720, Note_on_c, 0, 84, 103
2, 32760, Note_on_c, 0, 84, 0
2, 32760, Note_on_c, 0, 82, 99
2, 32794, Control_c, 0, 64, 127
2, 32800, Note_on_c, 0, 81, 86
2, 32811, Note_on_c, 0, 82, 0
2, 32840, Note_on_c, 0, 79, 108
2, 32842, Note_on_c, 0, 81, 0
2, 32842, Control_c, 0, 64, 0
2, 32863, Note_on_c, 0, 79, 0
2, 32880, Note_on_c, 0, 77, 99
2, 32919, Control_c, 0, 64, 127
2, 32920, Note_on_c, 0, 75, 82
2, 32929, Note_on_c, 0, 77, 0
2, 32957, Note_on_c, 0, 75, 0
2, 32960, Note_on_c, 0, 74, 99
2, 32995, Note_on_c, 0, 74, 0
2, 33000, Note_on_c, 0, 72, 86
2, 33005, Control_c, 0, 64, 0
2, 33040, Note_on_c, 0, 70, 112
2, 33042, Control_c, 0, 64, 127
2, 33047, Note_on_c, 0, 72, 0
2, 33080, Note_on_c, 0, 69, 103
2, 33081, Note_on_c, 0, 70, 0
2, 33112, Control_c, 0, 64, 0
2, 33113, Note_on_c, 0, 69, 0
2, 33120, Note_on_c, 0, 67, 103
2, 33128, Control_c, 0, 64, 127
2, 33156, Note_on_c, 0, 67, 0
2, 33180, Note_on_c, 0, 79, 103
2, 33218, Note_on_c, 0, 79, 0
2, 33233, Control_c, 0, 64, 0
2, 33240, Note_on_c, 0, 77, 99
2, 33240, Note_on_c, 0, 63, 90
2, 33270, Note_on_c, 0, 75, 74
2, 33272, Control_c, 0, 64, 127
2, 33273, Note_on_c, 0, 77, 0
2, 33300, Note_on_c, 0, 75, 0
2, 33300, Note_on_c, 0, 74, 70
2, 33318, Note_on_c, 0, 63, 0
2, 33326, Note_on_c, 0, 74, 0
2, 33330, Note_on_c, 0, 72, 95
2, 33352, Control_c, 0, 64, 0
2, 33356, Note_on_c, 0, 72, 0
2, 33360, Note_on_c, 0, 70, 117
2, 33360, Note_on_c, 0, 65, 103
2, 33392, Control_c, 0, 64, 127
2, 33430, Note_on_c, 0, 65, 0
2, 33431, Note_on_c, 0, 70, 0
2, 33477, Control_c, 0, 64, 0
2, 33480, Note_on_c, 0, 69, 108
2, 33480, Note_on_c, 0, 65, 99
2, 33504, Control_c, 0, 64, 127
2, 33505, Note_on_c, 0, 65, 0
2, 33505, Note_on_c, 0, 69, 0
2, 33588, Control_c, 0, 64, 0
2, 33597, Note_on_c, 0, 70, 95
2, 33599, Note_on_c, 0, 82, 108
2, 33613, Control_c, 0, 64, 127
2, 33633, Note_on_c, 0, 82, 0
2, 33636, Note_on_c, 0, 70, 0
2, 33640, Note_on_c, 0, 86, 99
2, 33647, Control_c, 0, 64, 0
2, 33672, Note_on_c, 0, 86, 0
2, 33680, Note_on_c, 0, 84, 99
2, 33715, Note_on_c, 0, 84, 0
2, 33720, Note_on_c, 0, 82, 86
2, 33760, Note_on_c, 0, 81, 90
2, 33771, Note_on_c, 0, 82, 0
2, 33780, Control_c, 0, 64, 127
2, 33800, Note_on_c, 0, 79, 99
2, 33801, Note_on_c, 0, 81, 0
2, 33824, Note_on_c, 0, 79, 0
2, 33828, Control_c, 0, 64, 0
2, 33840, Note_on_c, 0, 77, 108
2, 33870, Control_c, 0, 64, 127
2, 33880, Note_on_c, 0, 75, 66
2, 33886, Note_on_c, 0, 77, 0
2, 33916, Note_on_c, 0, 75, 0
2, 33920, Note_on_c, 0, 74, 99
2, 33948, Control_c, 0, 64, 0
2, 33949, Note_on_c, 0, 74, 0
2, 33960, Note_on_c, 0, 72, 82
2, 33992, Control_c, 0, 64, 127
2, 34000, Note_on_c, 0, 70, 108
2, 34007, Note_on_c, 0, 72, 0
2, 34037, Note_on_c, 0, 70, 0
2, 34040, Note_on_c, 0, 69, 99
2, 34068, Control_c, 0, 64, 0
2, 34071, Note_on_c, 0, 69, 0
2, 34080, Note_on_c, 0, 67, 103
2, 34117, Control_c, 0, 64, 127
2, 34129, Note_on_c, 0, 67, 0
2, 34140, Note_on_c, 0, 79, 108
2, 34183, Note_on_c, 0, 79, 0
2, 34199, Control_c, 0, 64, 0
2, 34200, Note_on_c, 0, 77, 103
2, 34200, Note_on_c, 0, 63, 74
2, 34230, Note_on_c, 0, 75, 72
2, 34236, Note_on_c, 0, 77, 0
2, 34236, Control_c, 0, 64, 127
2, 34260, Note_on_c, 0, 74, 82
2, 34263, Note_on_c, 0, 75, 0
2, 34290, Note_on_c, 0, 74, 0
2, 34290, Note_on_c, 0, 72, 82
2, 34291, Note_on_c, 0, 63, 0
2, 34312, Control_c, 0, 64, 0
2, 34320, Note_on_c, 0, 70, 99
2, 34320, Note_on_c, 0, 65, 82
2, 34330, Note_on_c, 0, 72, 0
2, 34350, Control_c, 0, 64, 127
2, 34398, Note_on_c, 0, 65, 0
2, 34407, Note_on_c, 0, 70, 0
2, 34440, Note_on_c, 0, 69, 99
2, 34440, Note_on_c, 0, 65, 90
2, 34445, Control_c, 0, 64, 0
2, 34476, Control_c, 0, 64, 127
2, 34492, Note_on_c, 0, 65, 0
2, 34512, Note_on_c, 0, 69, 0
2, 34550, Control_c, 0, 64, 0
2, 34560, Note_on_c, 0, 70, 103
2, 34560, Note_on_c, 0, 65, 90
2, 34560, Note_on_c, 0, 62, 86
2, 34584, Control_c, 0, 64, 127
2, 34636, Note_on_c, 0, 62, 0
2, 34637, Note_on_c, 0, 65, 0
2, 34639, Note_on_c, 0, 70, 0
2, 34650, Note_on_c, 0, 72, 82
2, 34664, Control_c, 0, 64, 0
2, 34670, Note_on_c, 0, 72, 0
2, 34680, Note_on_c, 0, 69, 99
2, 34680, Note_on_c, 0, 63, 74
2, 34680, Note_on_c, 0, 65, 82
2, 34702, Control_c, 0, 64, 127
2, 34753, Note_on_c, 0, 65, 0
2, 34756, Note_on_c, 0, 69, 0
2, 34761, Note_on_c, 0, 63, 0
2, 34770, Note_on_c, 0, 72, 82
2, 34783, Control_c, 0, 64, 0
2, 34788, Note_on_c, 0, 72, 0
2, 34800, Note_on_c, 0, 70, 99
2, 34800, Note_on_c, 0, 62, 86
2, 34800, Note_on_c, 0, 65, 86
2, 34823, Control_c, 0, 64, 127
2, 34871, Note_on_c, 0, 70, 0
2, 34881, Note_on_c, 0, 65, 0
2, 34884, Note_on_c, 0, 62, 0
2, 34890, Note_on_c, 0, 72, 82
2, 34905, Control_c, 0, 64, 0
2, 34913, Note_on_c, 0, 72, 0
2, 34920, Note_on_c, 0, 69, 99
2, 34920, Note_on_c, 0, 63, 78
2, 34920, Note_on_c, 0, 65, 82
2, 34941, Control_c, 0, 64, 127
2, 34985, Note_on_c, 0, 65, 0
2, 34992, Note_on_c, 0, 69, 0
2, 34993, Note_on_c, 0, 63, 0
2, 35010, Note_on_c, 0, 72, 78
2, 35027, Control_c, 0, 64, 0
2, 35035, Note_on_c, 0, 72, 0
2, 35040, Note_on_c, 0, 70, 117
2, 35040, Note_on_c, 0, 62, 95
2, 35040, Note_on_c, 0, 65, 90
2, 35063, Control_c, 0, 64, 127
2, 35079, Note_on_c, 0, 70, 0
2, 35087, Note_on_c, 0, 65, 0
2, 35089, Note_on_c, 0, 62, 0
2, 35266, Control_c, 0, 64, 0
2, 35520, Note_on_c, 0, 74, 95
2, 35520, Note_on_c, 0, 79, 117
2, 35520, Note_on_c, 0, 77, 66
2, 35520, Note_on_c, 0, 70, 90
2, 35520, Note_on_c, 0, 74, 90
2, 35520, Note_on_c, 0, 79, 103
2, 35532, Control_c, 0, 64, 127
2, 35536, Note_on_c, 0, 77, 0
2, 35590, Note_on_c, 0, 79, 0
2, 35598, Note_on_c, 0, 70, 0
2, 35600, Note_on_c, 0, 79, 0
2, 35602, Note_on_c, 0, 74, 0
2, 35603, Note_on_c, 0, 74, 0
2, 35610, Note_on_c, 0, 81, 86
2, 35628, Control_c, 0, 64, 0
2, 35635, Note_on_c, 0, 81, 0
2, 35640, Note_on_c, 0, 78, 108
2, 35640, Note_on_c, 0, 74, 95
2, 35640, Note_on_c, 0, 72, 95
2, 35671, Control_c, 0, 64, 127
2, 35711, Note_on_c, 0, 78, 0
2, 35716, Note_on_c, 0, 74, 0
2, 35722, Note_on_c, 0, 72, 0
2, 35730, Note_on_c, 0, 81, 99
2, 35740, Control_c, 0, 64, 0
2, 35752, Note_on_c, 0, 81, 0
2, 35760, Note_on_c, 0, 70, 86
2, 35760, Note_on_c, 0, 79, 108
2, 35760, Note_on_c, 0, 74, 82
2, 35782, Control_c, 0, 64, 127
2, 35825, Note_on_c, 0, 79, 0
2, 35832, Note_on_c, 0, 74, 0
2, 35837, Note_on_c, 0, 70, 0
2, 35850, Note_on_c, 0, 81, 90
2, 35863, Control_c, 0, 64, 0
2, 35874, Note_on_c, 0, 81, 0
2, 35880, Note_on_c, 0, 78, 117
2, 35880, Note_on_c, 0, 72, 90
2, 35880, Note_on_c, 0, 74, 95
2, 35894, Control_c, 0, 64, 127
2, 35939, Note_on_c, 0, 74, 0
2, 35939, Note_on_c, 0, 78, 0
2, 35947, Note_on_c, 0, 72, 0
2, 35970, Note_on_c, 0, 81, 90
2, 35979, Control_c, 0, 64, 0
2, 35993, Note_on_c, 0, 81, 0
2, 36000, Note_on_c, 0, 79, 117
2, 36000, Note_on_c, 0, 70, 86
2, 36000, Note_on_c, 0, 74, 95
2, 36013, Control_c, 0, 64, 127
2, 36134, Note_on_c, 0, 79, 0
2, 36138, Note_on_c, 0, 70, 0
2, 36140, Note_on_c, 0, 74, 0
2, 36153, Control_c, 0, 64, 0
2, 36480, Note_on_c, 0, 69, 103
2, 36480, Note_on_c, 0, 72, 99
2, 36480, Note_on_c, 0, 77, 117
2, 36487, Control_c, 0, 64, 127
2, 36540, Note_on_c, 0, 69, 0
2, 36546, Note_on_c, 0, 72, 0
2, 36549, Note_on_c, 0, 77, 0
2, 36570, Note_on_c, 0, 79, 90
2, 36585, Control_c, 0, 64, 0
2, 36593, Note_on_c, 0, 79, 0
2, 36600, Note_on_c, 0, 70, 90
2, 36600, Note_on_c, 0, 76, 117
2, 36600, Note_on_c, 0, 72, 99
2, 36634, Control_c, 0, 64, 127
2, 36672, Note_on_c, 0, 76, 0
2, 36687, Note_on_c, 0, 72, 0
2, 36689, Note_on_c, 0, 70, 0
2, 36690, Note_on_c, 0, 79, 99
2, 36709, Control_c, 0, 64, 0
2, 36712, Note_on_c, 0, 79, 0
2, 36720, Note_on_c, 0, 69, 90
2, 36720, Note_on_c, 0, 72, 90
2, 36720, Note_on_c, 0, 77, 112
2, 36754, Control_c, 0, 64, 127
2, 36793, Note_on_c, 0, 77, 0
2, 36803, Note_on_c, 0, 72, 0
2, 36803, Note_on_c, 0, 69, 0
2, 36810, Note_on_c, 0, 79, 86
2, 36833, Note_on_c, 0, 79, 0
2, 36840, Control_c, 0, 64, 0
2, 36840, Note_on_c, 0, 70, 103
2, 36840, Note_on_c, 0, 76, 112
2, 36840, Note_on_c, 0, 72, 95
2, 36888, Control_c, 0, 64, 127
2, 36910, Note_on_c, 0, 76, 0
2, 36920, Note_on_c, 0, 72, 0
2, 36926, Note_on_c, 0, 70, 0
2, 36930, Note_on_c, 0, 77, 103
2, 36948, Note_on_c, 0, 77, 0
2, 36958, Control_c, 0, 64, 0
2, 36960, Note_on_c, 0, 72, 95
2, 36960, Note_on_c, 0, 69, 99
2, 36960, Note_on_c, 0, 77, 112
2, 36992, Control_c, 0, 64, 127
2, 37005, Note_on_c, 0, 77, 0
2, 37019, Note_on_c, 0, 69, 0
2, 37020, Note_on_c, 0, 72, 0
2, 37020, Note_on_c, 0, 81, 108
2, 37024, Control_c, 0, 64, 0
2, 37041, Note_on_c, 0, 81, 0
2, 37080, Note_on_c, 0, 84, 108
2, 37080, Note_on_c, 0, 72, 99
2, 37108, Note_on_c, 0, 84, 0
2, 37112, Note_on_c, 0, 72, 0
2, 37140, Note_on_c, 0, 70, 86
2, 37140, Note_on_c, 0, 82, 117
2, 37168, Note_on_c, 0, 82, 0
2, 37173, Note_on_c, 0, 70, 0
2, 37200, Note_on_c, 0, 81, 117
2, 37200, Note_on_c, 0, 69, 86
2, 37224, Note_on_c, 0, 81, 0
2, 37231, Note_on_c, 0, 69, 0
2, 37260, Note_on_c, 0, 82, 117
2, 37260, Note_on_c, 0, 70, 95
2, 37284, Note_on_c, 0, 82, 0
2, 37291, Note_on_c, 0, 70, 0
2, 37320, Note_on_c, 0, 67, 103
2, 37320, Note_on_c, 0, 79, 108
2, 37344, Note_on_c, 0, 79, 0
2, 37353, Note_on_c, 0, 67, 0
2, 37380, Note_on_c, 0, 81, 108
2, 37380, Note_on_c, 0, 69, 95
2, 37403, Note_on_c, 0, 81, 0
2, 37410, Note_on_c, 0, 69, 0
2, 37440, Note_on_c, 0, 65, 90
2, 37440, Note_on_c, 0, 77, 103
2, 37460, Control_c, 0, 64, 127
2, 37497, Note_on_c, 0, 77, 0
2, 37500, Note_on_c, 0, 67, 86
2, 37500, Note_on_c, 0, 79, 99
2, 37502, Note_on_c, 0, 65, 0
2, 37539, Note_on_c, 0, 79, 0
2, 37544, Control_c, 0, 64, 0
2, 37556, Note_on_c, 0, 67, 0
2, 37560, Note_on_c, 0, 69, 95
2, 37560, Note_on_c, 0, 81, 99
2, 37585, Control_c, 0, 64, 127
2, 37620, Note_on_c, 0, 81, 0
2, 37620, Note_on_c, 0, 69, 0
2, 37620, Note_on_c, 0, 79, 99
2, 37620, Note_on_c, 0, 67, 95
2, 37651, Note_on_c, 0, 67, 0
2, 37658, Note_on_c, 0, 79, 0
2, 37662, Control_c, 0, 64, 0
2, 37680, Note_on_c, 0, 77, 103
2, 37680, Note_on_c, 0, 65, 103
2, 37732, Note_on_c, 0, 77, 0
2, 37738, Note_on_c, 0, 65, 0
2, 37740, Note_on_c, 0, 79, 99
2, 37740, Note_on_c, 0, 67, 99
2, 37789, Note_on_c, 0, 79, 0
2, 37794, Note_on_c, 0, 67, 0
2, 37800, Note_on_c, 0, 64, 103
2, 37800, Note_on_c, 0, 76, 99
2, 37847, Control_c, 0, 64, 127
2, 37850, Note_on_c, 0, 76, 0
2, 37860, Note_on_c, 0, 77, 99
2, 37860, Note_on_c, 0, 65, 99
2, 37861, Note_on_c, 0, 64, 0
2, 37870, Control_c, 0, 64, 0
2, 37910, Note_on_c, 0, 77, 0
2, 37911, Note_on_c, 0, 65, 0
2, 37920, Note_on_c, 0, 62, 99
2, 37920, Note_on_c, 0, 74, 103
2, 37929, Control_c, 0, 64, 127
2, 37964, Note_on_c, 0, 74, 0
2, 37980, Note_on_c, 0, 64, 99
2, 37980, Note_on_c, 0, 76, 103
2, 37982, Note_on_c, 0, 62, 0
2, 37993, Control_c, 0, 64, 0
2, 38034, Note_on_c, 0, 76, 0
2, 38038, Note_on_c, 0, 64, 0
2, 38040, Note_on_c, 0, 65, 95
2, 38040, Note_on_c, 0, 77, 99
2, 38065, Control_c, 0, 64, 127
2, 38099, Note_on_c, 0, 77, 0
2, 38100, Note_on_c, 0, 76, 99
2, 38100, Note_on_c, 0, 64, 103
2, 38104, Note_on_c, 0, 65, 0
2, 38135, Control_c, 0, 64, 0
2, 38151, Note_on_c, 0, 64, 0
2, 38154, Note_on_c, 0, 76, 0
2, 38160, Note_on_c, 0, 62, 90
2, 38160, Note_on_c, 0, 74, 103
2, 38185, Control_c, 0, 64, 127
2, 38212, Note_on_c, 0, 74, 0
2, 38215, Note_on_c, 0, 62, 0
2, 38220, Note_on_c, 0, 64, 95
2, 38220, Note_on_c, 0, 76, 108
2, 38263, Control_c, 0, 64, 0
2, 38273, Note_on_c, 0, 76, 0
2, 38280, Note_on_c, 0, 60, 82
2, 38280, Note_on_c, 0, 72, 108
2, 38284, Note_on_c, 0, 64, 0
2, 38306, Control_c, 0, 64, 127
2, 38322, Note_on_c, 0, 72, 0
2, 38333, Note_on_c, 0, 60, 0
2, 38340, Note_on_c, 0, 74, 99
2, 38340, Note_on_c, 0, 62, 99
2, 38371, Note_on_c, 0, 62, 0
2, 38384, Note_on_c, 0, 74, 0
2, 38389, Control_c, 0, 64, 0
2, 38400, Note_on_c, 0, 59, 99
2, 38400, Note_on_c, 0, 71, 117
2, 38448, Control_c, 0, 64, 127
2, 38455, Note_on_c, 0, 71, 0
2, 38460, Note_on_c, 0, 72, 103
2, 38460, Note_on_c, 0, 60, 99
2, 38468, Note_on_c, 0, 59, 0
2, 38493, Control_c, 0, 64, 0
2, 38512, Note_on_c, 0, 72, 0
2, 38516, Note_on_c, 0, 60, 0
2, 38520, Note_on_c, 0, 62, 103
2, 38520, Note_on_c, 0, 74, 103
2, 38541, Control_c, 0, 64, 127
2, 38580, Note_on_c, 0, 60, 103
2, 38580, Note_on_c, 0, 72, 99
2, 38583, Note_on_c, 0, 74, 0
2, 38589, Note_on_c, 0, 62, 0
2, 38607, Control_c, 0, 64, 0
2, 38631, Note_on_c, 0, 60, 0
2, 38634, Note_on_c, 0, 72, 0
2, 38640, Note_on_c, 0, 59, 90
2, 38640, Note_on_c, 0, 71, 108
2, 38660, Control_c, 0, 64, 127
2, 38685, Note_on_c, 0, 71, 0
2, 38698, Note_on_c, 0, 59, 0
2, 38700, Note_on_c, 0, 72, 103
2, 38700, Note_on_c, 0, 60, 99
2, 38743, Control_c, 0, 64, 0
2, 38747, Note_on_c, 0, 72, 0
2, 38750, Note_on_c, 0, 60, 0
2, 38760, Note_on_c, 0, 57, 86
2, 38760, Note_on_c, 0, 69, 108
2, 38785, Control_c, 0, 64, 127
2, 38813, Note_on_c, 0, 69, 0
2, 38820, Note_on_c, 0, 59, 95
2, 38820, Note_on_c, 0, 71, 103
2, 38823, Note_on_c, 0, 57, 0
2, 38856, Note_on_c, 0, 71, 0
2, 38856, Note_on_c, 0, 59, 0
2, 38880, Note_on_c, 0, 55, 95
2, 38880, Note_on_c, 0, 55, 103
2, 38880, Note_on_c, 0, 62, 112
2, 38880, Note_on_c, 0, 67, 112
2, 39000, Note_on_c, 0, 71, 127
2, 39000, Note_on_c, 0, 77, 117
2, 39000, Note_on_c, 0, 74, 127
2, 39046, Control_c, 0, 64, 127
2, 39234, Note_on_c, 0, 55, 0
2, 39359, Note_on_c, 0, 74, 0
2, 39360, Note_on_c, 0, 67, 0
2, 39361, Note_on_c, 0, 71, 0
2, 39361, Note_on_c, 0, 77, 0
2, 39363, Note_on_c, 0, 62, 0
2, 39365, Control_c, 0, 64, 0
2, 39369, Note_on_c, 0, 55, 0
2, 39840, Note_on_c, 0, 72, 99
2, 39840, Control_c, 0, 64, 127
2, 39840, Note_on_c, 0, 64, 95
2, 39840, Note_on_c, 0, 76, 103
2, 39840, Note_on_c, 0, 67, 99
2, 39874, Note_on_c, 0, 64, 0
2, 39876, Note_on_c, 0, 67, 0
2, 39877, Note_on_c, 0, 72, 0
2, 39879, Note_on_c, 0, 76, 0
2, 39956, Control_c, 0, 64, 0
2, 39960, Note_on_c, 0, 67, 86
2, 39960, Note_on_c, 0, 76, 99
2, 39960, Note_on_c, 0, 79, 99
2, 39960, Note_on_c, 0, 72, 95
2, 39979, Control_c, 0, 64, 127
2, 40010, Note_on_c, 0, 79, 0
2, 40011, Note_on_c, 0, 76, 0
2, 40014, Note_on_c, 0, 67, 0
2, 40014, Note_on_c, 0, 72, 0
2, 40078, Control_c, 0, 64, 0
2, 40320, Note_on_c, 0, 67, 86
2, 40320, Note_on_c, 0, 77, 95
2, 40336, Control_c, 0, 64, 127
2, 40350, Note_on_c, 0, 74, 95
2, 40354, Note_on_c, 0, 77, 0
2, 40379, Note_on_c, 0, 74, 0
2, 40380, Note_on_c, 0, 76, 90
2, 40409, Note_on_c, 0, 76, 0
2, 40410, Note_on_c, 0, 77, 99
2, 40428, Note_on_c, 0, 77, 0
2, 40440, Note_on_c, 0, 79, 112
2, 40448, Control_c, 0, 64, 0
2, 40461, Note_on_c, 0, 79, 0
2, 40470, Note_on_c, 0, 81, 86
2, 40475, Control_c, 0, 64, 127
2, 40489, Note_on_c, 0, 81, 0
2, 40500, Note_on_c, 0, 83, 99
2, 40517, Note_on_c, 0, 83, 0
2, 40530, Note_on_c, 0, 84, 82
2, 40550, Note_on_c, 0, 84, 0
2, 40555, Note_on_c, 0, 67, 0
2, 40560, Note_on_c, 0, 71, 99
2, 40560, Note_on_c, 0, 86, 112
2, 40566, Control_c, 0, 64, 0
2, 40583, Note_on_c, 0, 86, 0
2, 40590, Note_on_c, 0, 84, 103
2, 40604, Control_c, 0, 64, 127
2, 40613, Note_on_c, 0, 84, 0
2, 40620, Note_on_c, 0, 83, 99
2, 40641, Note_on_c, 0, 83, 0
2, 40650, Note_on_c, 0, 81, 103
2, 40675, Note_on_c, 0, 81, 0
2, 40680, Note_on_c, 0, 79, 103
2, 40697, Note_on_c, 0, 79, 0
2, 40710, Note_on_c, 0, 77, 95
2, 40731, Note_on_c, 0, 71, 0
2, 40733, Note_on_c, 0, 77, 0
2, 40740, Note_on_c, 0, 76, 72
2, 40760, Note_on_c, 0, 76, 0
2, 40770, Note_on_c, 0, 74, 82
2, 40790, Note_on_c, 0, 74, 0
2, 40800, Note_on_c, 0, 64, 86
2, 40800, Note_on_c, 0, 76, 99
2, 40800, Note_on_c, 0, 67, 82
2, 40800, Note_on_c, 0, 72, 99
2, 40805, Control_c, 0, 64, 0
2, 40833, Control_c, 0, 64, 127
2, 40837, Note_on_c, 0, 67, 0
2, 40837, Note_on_c, 0, 64, 0
2, 40842, Note_on_c, 0, 76, 0
2, 40844, Note_on_c, 0, 72, 0
2, 40915, Control_c, 0, 64, 0
2, 40920, Note_on_c, 0, 76, 95
2, 40920, Note_on_c, 0, 67, 86
2, 40920, Note_on_c, 0, 79, 99
2, 40920, Note_on_c, 0, 72, 90
2, 40940, Control_c, 0, 64, 127
2, 40971, Note_on_c, 0, 79, 0
2, 40976, Note_on_c, 0, 76, 0
2, 40978, Note_on_c, 0, 67, 0
2, 40979, Note_on_c, 0, 72, 0
2, 41041, Control_c, 0, 64, 0
2, 41280, Note_on_c, 0, 67, 74
2, 41280, Note_on_c, 0, 77, 82
2, 41307, Note_on_c, 0, 77, 0
2, 41307, Control_c, 0, 64, 127
2, 41310, Note_on_c, 0, 74, 86
2, 41340, Note_on_c, 0, 74, 0
2, 41340, Note_on_c, 0, 76, 82
2, 41365, Note_on_c, 0, 76, 0
2, 41370, Note_on_c, 0, 77, 78
2, 41390, Note_on_c, 0, 77, 0
2, 41400, Note_on_c, 0, 79, 82
2, 41412, Control_c, 0, 64, 0
2, 41421, Note_on_c, 0, 79, 0
2, 41430, Note_on_c, 0, 81, 90
2, 41437, Control_c, 0, 64, 127
2, 41452, Note_on_c, 0, 81, 0
2, 41460, Note_on_c, 0, 83, 86
2, 41481, Note_on_c, 0, 83, 0
2, 41490, Note_on_c, 0, 84, 82
2, 41507, Note_on_c, 0, 67, 0
2, 41510, Note_on_c, 0, 84, 0
2, 41520, Note_on_c, 0, 71, 95
2, 41520, Note_on_c, 0, 86, 99
2, 41523, Control_c, 0, 64, 0
2, 41544, Note_on_c, 0, 86, 0
2, 41550, Note_on_c, 0, 84, 82
2, 41555, Control_c, 0, 64, 127
2, 41576, Note_on_c, 0, 84, 0
2, 41580, Note_on_c, 0, 83, 74
2, 41610, Note_on_c, 0, 83, 0
2, 41610, Note_on_c, 0, 81, 74
2, 41640, Note_on_c, 0, 81, 0
2, 41640, Note_on_c, 0, 79, 86
2, 41658, Note_on_c, 0, 79, 0
2, 41670, Note_on_c, 0, 77, 86
2, 41689, Note_on_c, 0, 77, 0
2, 41700, Note_on_c, 0, 76, 67
2, 41708, Note_on_c, 0, 71, 0
2, 41723, Note_on_c, 0, 76, 0
2, 41730, Note_on_c, 0, 74, 72
2, 41751, Note_on_c, 0, 74, 0
2, 41754, Control_c, 0, 64, 0
2, 41760, Note_on_c, 0, 76, 78
2, 41760, Note_on_c, 0, 67, 86
2, 41760, Note_on_c, 0, 72, 74
2, 41782, Control_c, 0, 64, 127
2, 41809, Note_on_c, 0, 72, 0
2, 41812, Note_on_c, 0, 76, 0
2, 41820, Note_on_c, 0, 72, 65
2, 41820, Note_on_c, 0, 76, 69
2, 41853, Note_on_c, 0, 72, 0
2, 41854, Note_on_c, 0, 76, 0
2, 41880, Note_on_c, 0, 72, 82
2, 41880, Note_on_c, 0, 76, 82
2, 41916, Note_on_c, 0, 72, 0
2, 41919, Note_on_c, 0, 76, 0
2, 41940, Note_on_c, 0, 76, 74
2, 41940, Note_on_c, 0, 72, 78
2, 41958, Note_on_c, 0, 67, 0
2, 41961, Note_on_c, 0, 76, 0
2, 41967, Note_on_c, 0, 72, 0
2, 41999, Control_c, 0, 64, 0
2, 42000, Note_on_c, 0, 67, 74
2, 42000, Note_on_c, 0, 76, 78
2, 42000, Note_on_c, 0, 72, 90
2, 42025, Control_c, 0, 64, 127
2, 42055, Note_on_c, 0, 72, 0
2, 42056, Note_on_c, 0, 76, 0
2, 42060, Note_on_c, 0, 72, 86
2, 42060, Note_on_c, 0, 76, 86
2, 42095, Note_on_c, 0, 76, 0
2, 42096, Note_on_c, 0, 72, 0
2, 42120, Note_on_c, 0, 72, 86
2, 42120, Note_on_c, 0, 76, 95
2, 42153, Note_on_c, 0, 76, 0
2, 42155, Note_on_c, 0, 72, 0
2, 42180, Note_on_c, 0, 67, 0
2, 42180, Note_on_c, 0, 76, 82
2, 42180, Note_on_c, 0, 72, 86
2, 42198, Note_on_c, 0, 72, 0
2, 42202, Note_on_c, 0, 76, 0
2, 42240, Note_on_c, 0, 77, 82
2, 42240, Note_on_c, 0, 72, 86
2, 42240, Note_on_c, 0, 69, 90
2, 42241, Control_c, 0, 64, 0
2, 42266, Control_c, 0, 64, 127
2, 42333, Note_on_c, 0, 69, 0
2, 42333, Note_on_c, 0, 77, 0
2, 42334, Note_on_c, 0, 72, 0
2, 42344, Control_c, 0, 64, 0
2, 42483, Control_c, 0, 64, 127
2, 42540, Note_on_c, 0, 69, 99
2, 42540, Note_on_c, 0, 72, 86
2, 42540, Note_on_c, 0, 77, 99
2, 42562, Note_on_c, 0, 72, 0
2, 42564, Note_on_c, 0, 69, 0
2, 42566, Note_on_c, 0, 77, 0
2, 42600, Note_on_c, 0, 69, 99
2, 42600, Note_on_c, 0, 72, 82
2, 42600, Note_on_c, 0, 77, 86
2, 42621, Note_on_c, 0, 69, 0
2, 42623, Note_on_c, 0, 77, 0
2, 42623, Note_on_c, 0, 72, 0
2, 42660, Note_on_c, 0, 69, 86
2, 42660, Note_on_c, 0, 72, 72
2, 42660, Note_on_c, 0, 77, 78
2, 42682, Note_on_c, 0, 77, 0
2, 42684, Note_on_c, 0, 72, 0
2, 42687, Note_on_c, 0, 69, 0
2, 42715, Control_c, 0, 64, 0
2, 42720, Note_on_c, 0, 76, 90
2, 42720, Note_on_c, 0, 67, 90
2, 42723, Control_c, 0, 64, 127
2, 42744, Note_on_c, 0, 67, 0
2, 42780, Note_on_c, 0, 67, 86
2, 42800, Note_on_c, 0, 67, 0
2, 42814, Note_on_c, 0, 76, 0
2, 42840, Note_on_c, 0, 67, 86
2, 42864, Note_on_c, 0, 67, 0
2, 42900, Note_on_c, 0, 67, 86
2, 42923, Note_on_c, 0, 67, 0
2, 42930, Note_on_c, 0, 77, 86
2, 42948, Note_on_c, 0, 77, 0
2, 42960, Note_on_c, 0, 67, 95
2, 42960, Note_on_c, 0, 65, 86
2, 42960, Note_on_c, 0, 76, 86
2, 42964, Control_c, 0, 64, 0
2, 42988, Note_on_c, 0, 76, 0
2, 42990, Note_on_c, 0, 74, 86
2, 42991, Control_c, 0, 64, 127
2, 43000, Note_on_c, 0, 67, 0
2, 43002, Note_on_c, 0, 74, 0
2, 43002, Note_on_c, 0, 65, 0
2, 43020, Note_on_c, 0, 76, 95
2, 43020, Note_on_c, 0, 65, 74
2, 43020, Note_on_c, 0, 67, 86
2, 43041, Note_on_c, 0, 76, 0
2, 43042, Note_on_c, 0, 67, 0
2, 43043, Note_on_c, 0, 65, 0
2, 43050, Note_on_c, 0, 74, 86
2, 43064, Note_on_c, 0, 74, 0
2, 43080, Note_on_c, 0, 76, 90
2, 43080, Note_on_c, 0, 65, 90
2, 43080, Note_on_c, 0, 67, 86
2, 43086, Control_c, 0, 64, 0
2, 43101, Note_on_c, 0, 76, 0
2, 43106, Control_c, 0, 64, 127
2, 43110, Note_on_c, 0, 74, 82
2, 43118, Note_on_c, 0, 67, 0
2, 43121, Note_on_c, 0, 65, 0
2, 43129, Note_on_c, 0, 74, 0
2, 43140, Note_on_c, 0, 72, 82
2, 43140, Note_on_c, 0, 65, 86
2, 43140, Note_on_c, 0, 67, 74
2, 43157, Note_on_c, 0, 65, 0
2, 43158, Note_on_c, 0, 67, 0
2, 43162, Note_on_c, 0, 72, 0
2, 43170, Note_on_c, 0, 74, 86
2, 43183, Note_on_c, 0, 74, 0
2, 43193, Control_c, 0, 64, 0
2, 43200, Note_on_c, 0, 60, 86
2, 43200, Note_on_c, 0, 72, 103
2, 43219, Control_c, 0, 64, 127
2, 43220, Note_on_c, 0, 72, 0
2, 43251, Note_on_c, 0, 60, 0
2, 43260, Note_on_c, 0, 67, 78
2, 43291, Note_on_c, 0, 67, 0
2, 43298, Control_c, 0, 64, 0
2, 43320, Note_on_c, 0, 64, 78
2, 43320, Note_on_c, 0, 79, 103
2, 43334, Control_c, 0, 64, 127
2, 43380, Note_on_c, 0, 64, 0
2, 43380, Note_on_c, 0, 67, 72
2, 43396, Note_on_c, 0, 79, 0
2, 43417, Note_on_c, 0, 67, 0
2, 43440, Note_on_c, 0, 60, 72
2, 43440, Note_on_c, 0, 79, 103
2, 43442, Control_c, 0, 64, 0
2, 43470, Control_c, 0, 64, 127
2, 43499, Note_on_c, 0, 60, 0
2, 43500, Note_on_c, 0, 67, 86
2, 43505, Note_on_c, 0, 79, 0
2, 43538, Note_on_c, 0, 67, 0
2, 43560, Note_on_c, 0, 64, 90
2, 43560, Note_on_c, 0, 77, 99
2, 43563, Control_c, 0, 64, 0
2, 43583, Note_on_c, 0, 77, 0
2, 43587, Control_c, 0, 64, 127
2, 43590, Note_on_c, 0, 76, 86
2, 43607, Note_on_c, 0, 76, 0
2, 43619, Note_on_c, 0, 64, 0
2, 43620, Note_on_c, 0, 74, 86
2, 43620, Note_on_c, 0, 67, 86
2, 43637, Note_on_c, 0, 74, 0
2, 43640, Note_on_c, 0, 67, 0
2, 43650, Note_on_c, 0, 72, 74
2, 43668, Note_on_c, 0, 72, 0
2, 43671, Control_c, 0, 64, 0
2, 43680, Note_on_c, 0, 60, 90
2, 43680, Note_on_c, 0, 81, 103
2, 43700, Control_c, 0, 64, 127
2, 43734, Note_on_c, 0, 81, 0
2, 43737, Note_on_c, 0, 60, 0
2, 43740, Note_on_c, 0, 69, 86
2, 43784, Note_on_c, 0, 69, 0
2, 43800, Note_on_c, 0, 65, 90
2, 43800, Note_on_c, 0, 81, 108
2, 43806, Control_c, 0, 64, 0
2, 43829, Control_c, 0, 64, 127
2, 43859, Note_on_c, 0, 65, 0
2, 43860, Note_on_c, 0, 69, 86
2, 43862, Note_on_c, 0, 81, 0
2, 43897, Note_on_c, 0, 69, 0
2, 43918, Control_c, 0, 64, 0
2, 43920, Note_on_c, 0, 81, 103
2, 43920, Note_on_c, 0, 60, 82
2, 43940, Control_c, 0, 64, 127
2, 43971, Note_on_c, 0, 81, 0
2, 43977, Note_on_c, 0, 60, 0
2, 43980, Note_on_c, 0, 83, 103
2, 43980, Note_on_c, 0, 69, 82
2, 43994, Note_on_c, 0, 83, 0
2, 44021, Note_on_c, 0, 69, 0
2, 44040, Note_on_c, 0, 65, 72
2, 44040, Note_on_c, 0, 84, 99
2, 44094, Note_on_c, 0, 65, 0
2, 44097, Note_on_c, 0, 84, 0
2, 44100, Note_on_c, 0, 81, 103
2, 44100, Note_on_c, 0, 69, 82
2, 44113, Note_on_c, 0, 81, 0
2, 44121, Note_on_c, 0, 69, 0
2, 44147, Control_c, 0, 64, 0
2, 44160, Note_on_c, 0, 60, 78
2, 44160, Note_on_c, 0, 81, 103
2, 44179, Control_c, 0, 64, 127
2, 44218, Note_on_c, 0, 81, 0
2, 44220, Note_on_c, 0, 60, 0
2, 44220, Note_on_c, 0, 67, 62
2, 44220, Note_on_c, 0, 79, 99
2, 44264, Note_on_c, 0, 79, 0
2, 44272, Note_on_c, 0, 67, 0
2, 44280, Note_on_c, 0, 64, 86
2, 44280, Note_on_c, 0, 77, 86
2, 44282, Control_c, 0, 64, 0
2, 44305, Control_c, 0, 64, 127
2, 44336, Note_on_c, 0, 77, 0
2, 44340, Note_on_c, 0, 64, 0
2, 44340, Note_on_c, 0, 76, 95
2, 44340, Note_on_c, 0, 67, 86
2, 44362, Note_on_c, 0, 67, 0
2, 44364, Note_on_c, 0, 76, 0
2, 44397, Control_c, 0, 64, 0
2, 44400, Note_on_c, 0, 62, 82
2, 44400, Note_on_c, 0, 79, 103
2, 44422, Control_c, 0, 64, 127
2, 44457, Note_on_c, 0, 79, 0
2, 44458, Note_on_c, 0, 62, 0
2, 44460, Note_on_c, 0, 67, 82
2, 44460, Note_on_c, 0, 77, 99
2, 44481, Note_on_c, 0, 77, 0
2, 44510, Note_on_c, 0, 67, 0
2, 44515, Control_c, 0, 64, 0
2, 44520, Note_on_c, 0, 65, 78
2, 44520, Note_on_c, 0, 76, 95
2, 44538, Control_c, 0, 64, 127
2, 44573, Note_on_c, 0, 76, 0
2, 44580, Note_on_c, 0, 65, 0
2, 44580, Note_on_c, 0, 67, 82
2, 44580, Note_on_c, 0, 77, 103
2, 44596, Note_on_c, 0, 77, 0
2, 44600, Note_on_c, 0, 67, 0
2, 44635, Control_c, 0, 64, 0
2, 44640, Note_on_c, 0, 60, 74
2, 44640, Note_on_c, 0, 79, 108
2, 44662, Control_c, 0, 64, 127
2, 44670, Note_on_c, 0, 77, 78
2, 44671, Note_on_c, 0, 79, 0
2, 44690, Note_on_c, 0, 77, 0
2, 44698, Note_on_c, 0, 60, 0
2, 44700, Note_on_c, 0, 67, 86
2, 44700, Note_on_c, 0, 79, 99
2, 44725, Note_on_c, 0, 79, 0
2, 44730, Note_on_c, 0, 77, 95
2, 44749, Note_on_c, 0, 77, 0
2, 44749, Note_on_c, 0, 67, 0
2, 44757, Control_c, 0, 64, 0
2, 44760, Note_on_c, 0, 79, 95
2, 44760, Note_on_c, 0, 64, 90
2, 44777, Control_c, 0, 64, 127
2, 44785, Note_on_c, 0, 79, 0
2, 44790, Note_on_c, 0, 77, 99
2, 44810, Note_on_c, 0, 77, 0
2, 44818, Note_on_c, 0, 64, 0
2, 44820, Note_on_c, 0, 76, 99
2, 44820, Note_on_c, 0, 67, 86
2, 44841, Note_on_c, 0, 76, 0
2, 44849, Note_on_c, 0, 67, 0
2, 44850, Note_on_c, 0, 77, 86
2, 44867, Note_on_c, 0, 77, 0
2, 44868, Control_c, 0, 64, 0
2, 44880, Note_on_c, 0, 60, 78
2, 44880, Note_on_c, 0, 76, 103
2, 44895, Control_c, 0, 64, 127
2, 44932, Note_on_c, 0, 76, 0
2, 44939, Note_on_c, 0, 60, 0
2, 44940, Note_on_c, 0, 67, 86
2, 44963, Note_on_c, 0, 67, 0
2, 44992, Control_c, 0, 64, 0
2, 45000, Note_on_c, 0, 64, 72
2, 45000, Note_on_c, 0, 72, 86
2, 45018, Control_c, 0, 64, 127
2, 45023, Note_on_c, 0, 72, 0
2, 45030, Note_on_c, 0, 74, 78
2, 45050, Note_on_c, 0, 74, 0
2, 45060, Note_on_c, 0, 76, 90
2, 45060, Note_on_c, 0, 67, 78
2, 45061, Note_on_c, 0, 64, 0
2, 45081, Note_on_c, 0, 67, 0
2, 45083, Note_on_c, 0, 76, 0
2, 45090, Note_on_c, 0, 77, 70
2, 45109, Note_on_c, 0, 77, 0
2, 45111, Control_c, 0, 64, 0
2, 45120, Note_on_c, 0, 60, 86
2, 45120, Note_on_c, 0, 79, 78
2, 45136, Control_c, 0, 64, 127
2, 45179, Note_on_c, 0, 79, 0
2, 45179, Note_on_c, 0, 60, 0
2, 45180, Note_on_c, 0, 67, 58
2, 45235, Note_on_c, 0, 67, 0
2, 45240, Note_on_c, 0, 64, 74
2, 45240, Note_on_c, 0, 79, 86
2, 45240, Control_c, 0, 64, 0
2, 45259, Control_c, 0, 64, 127
2, 45300, Note_on_c, 0, 79, 0
2, 45300, Note_on_c, 0, 67, 70
2, 45303, Note_on_c, 0, 64, 0
2, 45341, Note_on_c, 0, 67, 0
2, 45360, Note_on_c, 0, 79, 86
2, 45360, Note_on_c, 0, 60, 70
2, 45360, Control_c, 0, 64, 0
2, 45381, Control_c, 0, 64, 127
2, 45418, Note_on_c, 0, 60, 0
2, 45420, Note_on_c, 0, 67, 74
2, 45424, Note_on_c, 0, 79, 0
2, 45468, Note_on_c, 0, 67, 0
2, 45478, Control_c, 0, 64, 0
2, 45480, Note_on_c, 0, 64, 86
2, 45480, Note_on_c, 0, 77, 90
2, 45501, Control_c, 0, 64, 127
2, 45507, Note_on_c, 0, 77, 0
2, 45510, Note_on_c, 0, 76, 86
2, 45530, Note_on_c, 0, 76, 0
2, 45537, Note_on_c, 0, 64, 0
2, 45540, Note_on_c, 0, 74, 86
2, 45540, Note_on_c, 0, 67, 86
2, 45558, Note_on_c, 0, 74, 0
2, 45561, Note_on_c, 0, 67, 0
2, 45570, Note_on_c, 0, 72, 74
2, 45586, Control_c, 0, 64, 0
2, 45593, Note_on_c, 0, 72, 0
2, 45600, Note_on_c, 0, 60, 82
2, 45600, Note_on_c, 0, 81, 103
2, 45614, Control_c, 0, 64, 127
2, 45656, Note_on_c, 0, 60, 0
2, 45658, Note_on_c, 0, 81, 0
2, 45660, Note_on_c, 0, 69, 82
2, 45717, Note_on_c, 0, 69, 0
2, 45719, Control_c, 0, 64, 0
2, 45720, Note_on_c, 0, 81, 103
2, 45720, Note_on_c, 0, 65, 69
2, 45740, Control_c, 0, 64, 127
2, 45777, Note_on_c, 0, 81, 0
2, 45779, Note_on_c, 0, 65, 0
2, 45780, Note_on_c, 0, 69, 74
2, 45836, Control_c, 0, 64, 0
2, 45838, Note_on_c, 0, 69, 0
2, 45840, Note_on_c, 0, 60, 74
2, 45840, Note_on_c, 0, 81, 99
2, 45860, Control_c, 0, 64, 127
2, 45895, Note_on_c, 0, 81, 0
2, 45900, Note_on_c, 0, 69, 74
2, 45900, Note_on_c, 0, 83, 103
2, 45903, Note_on_c, 0, 60, 0
2, 45915, Note_on_c, 0, 83, 0
2, 45957, Note_on_c, 0, 69, 0
2, 45957, Control_c, 0, 64, 0
2, 45960, Note_on_c, 0, 65, 74
2, 45960, Note_on_c, 0, 84, 95
2, 45978, Control_c, 0, 64, 127
2, 46020, Note_on_c, 0, 81, 95
2, 46020, Note_on_c, 0, 69, 82
2, 46022, Note_on_c, 0, 84, 0
2, 46025, Note_on_c, 0, 65, 0
2, 46034, Note_on_c, 0, 81, 0
2, 46041, Note_on_c, 0, 69, 0
2, 46077, Control_c, 0, 64, 0
2, 46080, Note_on_c, 0, 60, 69
2, 46080, Note_on_c, 0, 81, 99
2, 46103, Control_c, 0, 64, 127
2, 46138, Note_on_c, 0, 81, 0
2, 46138, Note_on_c, 0, 60, 0
2, 46140, Note_on_c, 0, 67, 67
2, 46140, Note_on_c, 0, 79, 86
2, 46197, Note_on_c, 0, 79, 0
2, 46199, Note_on_c, 0, 67, 0
2, 46200, Note_on_c, 0, 77, 95
2, 46200, Note_on_c, 0, 64, 72
2, 46200, Control_c, 0, 64, 0
2, 46222, Control_c, 0, 64, 127
2, 46258, Note_on_c, 0, 77, 0
2, 46260, Note_on_c, 0, 64, 0
2, 46260, Note_on_c, 0, 67, 82
2, 46260, Note_on_c, 0, 76, 95
2, 46285, Note_on_c, 0, 76, 0
2, 46301, Note_on_c, 0, 67, 0
2, 46319, Control_c, 0, 64, 0
2, 46320, Note_on_c, 0, 79, 99
2, 46320, Note_on_c, 0, 62, 74
2, 46348, Control_c, 0, 64, 127
2, 46379, Note_on_c, 0, 62, 0
2, 46380, Note_on_c, 0, 79, 0
2, 46380, Note_on_c, 0, 67, 72
2, 46380, Note_on_c, 0, 77, 86
2, 46431, Note_on_c, 0, 77, 0
2, 46440, Note_on_c, 0, 67, 0
2, 46440, Note_on_c, 0, 76, 86
2, 46440, Note_on_c, 0, 65, 72
2, 46441, Control_c, 0, 64, 0
2, 46469, Control_c, 0, 64, 127
2, 46498, Note_on_c, 0, 76, 0
2, 46500, Note_on_c, 0, 65, 0
2, 46500, Note_on_c, 0, 74, 99
2, 46500, Note_on_c, 0, 67, 78
2, 46522, Note_on_c, 0, 74, 0
2, 46542, Note_on_c, 0, 67, 0
2, 46560, Note_on_c, 0, 60, 82
2, 46560, Note_on_c, 0, 74, 86
2, 46565, Control_c, 0, 64, 0
2, 46603, Control_c, 0, 64, 127
2, 46620, Note_on_c, 0, 67, 67
2, 46622, Note_on_c, 0, 60, 0
2, 46680, Note_on_c, 0, 64, 70
2, 46690, Note_on_c, 0, 67, 0
2, 46737, Note_on_c, 0, 64, 0
2, 46740, Note_on_c, 0, 67, 66
2, 46746, Note_on_c, 0, 74, 0
2, 46791, Note_on_c, 0, 67, 0
2, 46800, Note_on_c, 0, 76, 99
2, 46800, Note_on_c, 0, 60, 63
2, 46811, Control_c, 0, 64, 0
2, 46838, Control_c, 0, 64, 127
2, 46860, Note_on_c, 0, 67, 69
2, 46864, Note_on_c, 0, 76, 0
2, 46865, Note_on_c, 0, 60, 0
2, 46920, Control_c, 0, 64, 0
2, 46920, Note_on_c, 0, 64, 82
2, 46924, Note_on_c, 0, 67, 0
2, 46951, Control_c, 0, 64, 127
2, 46976, Note_on_c, 0, 64, 0
2, 46980, Note_on_c, 0, 79, 112
2, 46980, Note_on_c, 0, 67, 82
2, 46996, Note_on_c, 0, 79, 0
2, 47003, Note_on_c, 0, 67, 0
2, 47040, Note_on_c, 0, 60, 69
2, 47040, Note_on_c, 0, 79, 103
2, 47048, Control_c, 0, 64, 0
2, 47072, Control_c, 0, 64, 127
2, 47100, Note_on_c, 0, 67, 61
2, 47100, Note_on_c, 0, 76, 90
2, 47102, Note_on_c, 0, 79, 0
2, 47106, Note_on_c, 0, 60, 0
2, 47114, Control_c, 0, 64, 0
2, 47137, Control_c, 0, 64, 127
2, 47149, Note_on_c, 0, 76, 0
2, 47160, Note_on_c, 0, 64, 67
2, 47161, Note_on_c, 0, 67, 0
2, 47177, Control_c, 0, 64, 0
2, 47211, Control_c, 0, 64, 127
2, 47220, Note_on_c, 0, 79, 99
2, 47220, Note_on_c, 0, 67, 67
2, 47222, Note_on_c, 0, 64, 0
2, 47241, Note_on_c, 0, 79, 0
2, 47273, Note_on_c, 0, 67, 0
2, 47280, Note_on_c, 0, 62, 86
2, 47280, Note_on_c, 0, 79, 99
2, 47283, Control_c, 0, 64, 0
2, 47307, Control_c, 0, 64, 127
2, 47334, Note_on_c, 0, 79, 0
2, 47338, Note_on_c, 0, 62, 0
2, 47340, Note_on_c, 0, 67, 72
2, 47340, Note_on_c, 0, 77, 86
2, 47352, Control_c, 0, 64, 0
2, 47385, Note_on_c, 0, 77, 0
2, 47386, Control_c, 0, 64, 127
2, 47397, Note_on_c, 0, 67, 0
2, 47400, Note_on_c, 0, 65, 69
2, 47410, Control_c, 0, 64, 0
2, 47452, Control_c, 0, 64, 127
2, 47458, Note_on_c, 0, 65, 0
2, 47460, Note_on_c, 0, 67, 69
2, 47460, Note_on_c, 0, 74, 90
2, 47482, Note_on_c, 0, 74, 0
2, 47502, Note_on_c, 0, 67, 0
2, 47512, Control_c, 0, 64, 0
2, 47520, Note_on_c, 0, 76, 90
2, 47520, Note_on_c, 0, 60, 74
2, 47531, Control_c, 0, 64, 127
2, 47550, Note_on_c, 0, 72, 86
2, 47553, Note_on_c, 0, 76, 0
2, 47556, Control_c, 0, 64, 0
2, 47580, Note_on_c, 0, 74, 95
2, 47582, Note_on_c, 0, 72, 0
2, 47608, Note_on_c, 0, 74, 0
2, 47610, Note_on_c, 0, 76, 99
2, 47614, Note_on_c, 0, 60, 0
2, 47632, Note_on_c, 0, 76, 0
2, 47640, Note_on_c, 0, 77, 103
2, 47669, Note_on_c, 0, 77, 0
2, 47670, Note_on_c, 0, 79, 86
2, 47697, Note_on_c, 0, 79, 0
2, 47700, Note_on_c, 0, 81, 95
2, 47729, Note_on_c, 0, 81, 0
2, 47730, Note_on_c, 0, 83, 108
2, 47755, Note_on_c, 0, 83, 0
2, 47760, Note_on_c, 0, 84, 103
2, 47785, Note_on_c, 0, 84, 0
2, 47790, Note_on_c, 0, 83, 103
2, 47820, Note_on_c, 0, 81, 99
2, 47828, Note_on_c, 0, 83, 0
2, 47850, Note_on_c, 0, 79, 82
2, 47860, Note_on_c, 0, 81, 0
2, 47880, Note_on_c, 0, 79, 0
2, 47880, Note_on_c, 0, 77, 95
2, 47904, Note_on_c, 0, 77, 0
2, 47910, Note_on_c, 0, 76, 78
2, 47940, Note_on_c, 0, 74, 72
2, 47943, Note_on_c, 0, 76, 0
2, 47970, Note_on_c, 0, 72, 90
2, 47972, Note_on_c, 0, 74, 0
2, 47999, Note_on_c, 0, 72, 0
2, 48000, Note_on_c, 0, 60, 70
2, 48000, Note_on_c, 0, 79, 95
2, 48009, Control_c, 0, 64, 127
2, 48058, Note_on_c, 0, 79, 0
2, 48060, Note_on_c, 0, 67, 66
2, 48060, Note_on_c, 0, 76, 82
2, 48063, Note_on_c, 0, 60, 0
2, 48070, Control_c, 0, 64, 0
2, 48116, Note_on_c, 0, 76, 0
2, 48120, Note_on_c, 0, 64, 72
2, 48123, Note_on_c, 0, 67, 0
2, 48123, Control_c, 0, 64, 127
2, 48178, Note_on_c, 0, 64, 0
2, 48180, Note_on_c, 0, 67, 66
2, 48180, Note_on_c, 0, 76, 82
2, 48201, Note_on_c, 0, 76, 0
2, 48226, Note_on_c, 0, 67, 0
2, 48231, Control_c, 0, 64, 0
2, 48240, Note_on_c, 0, 79, 86
2, 48240, Note_on_c, 0, 62, 69
2, 48256, Control_c, 0, 64, 127
2, 48295, Note_on_c, 0, 79, 0
2, 48299, Note_on_c, 0, 62, 0
2, 48300, Note_on_c, 0, 67, 53
2, 48300, Note_on_c, 0, 77, 86
2, 48321, Control_c, 0, 64, 0
2, 48347, Control_c, 0, 64, 127
2, 48360, Note_on_c, 0, 65, 63
2, 48362, Note_on_c, 0, 67, 0
2, 48367, Note_on_c, 0, 77, 0
2, 48415, Control_c, 0, 64, 0
2, 48419, Note_on_c, 0, 65, 0
2, 48420, Note_on_c, 0, 67, 66
2, 48420, Note_on_c, 0, 74, 86
2, 48438, Control_c, 0, 64, 127
2, 48476, Note_on_c, 0, 74, 0
2, 48478, Note_on_c, 0, 67, 0
2, 48480, Note_on_c, 0, 76, 86
2, 48480, Note_on_c, 0, 64, 66
2, 48492, Control_c, 0, 64, 0
2, 48510, Note_on_c, 0, 76, 0
2, 48510, Note_on_c, 0, 72, 82
2, 48517, Note_on_c, 0, 64, 0
2, 48540, Note_on_c, 0, 74, 86
2, 48541, Note_on_c, 0, 72, 0
2, 48570, Note_on_c, 0, 76, 78
2, 48572, Note_on_c, 0, 74, 0
2, 48594, Note_on_c, 0, 76, 0
2, 48600, Note_on_c, 0, 77, 86
2, 48630, Note_on_c, 0, 79, 70
2, 48635, Note_on_c, 0, 77, 0
2, 48660, Note_on_c, 0, 81, 90
2, 48661, Note_on_c, 0, 79, 0
2, 48690, Note_on_c, 0, 83, 99
2, 48694, Note_on_c, 0, 81, 0
2, 48720, Note_on_c, 0, 84, 90
2, 48721, Note_on_c, 0, 83, 0
2, 48744, Note_on_c, 0, 84, 0
2, 48750, Note_on_c, 0, 83, 86
2, 48780, Note_on_c, 0, 81, 74
2, 48789, Note_on_c, 0, 83, 0
2, 48810, Note_on_c, 0, 79, 67
2, 48822, Note_on_c, 0, 81, 0
2, 48840, Note_on_c, 0, 77, 90
2, 48843, Note_on_c, 0, 79, 0
2, 48869, Note_on_c, 0, 77, 0
2, 48870, Note_on_c, 0, 76, 78
2, 48900, Note_on_c, 0, 74, 82
2, 48904, Note_on_c, 0, 76, 0
2, 48909, Control_c, 0, 64, 127
2, 48925, Note_on_c, 0, 74, 0
2, 48930, Note_on_c, 0, 72, 82
2, 48946, Note_on_c, 0, 72, 0
2, 48949, Control_c, 0, 64, 0
2, 48960, Note_on_c, 0, 65, 86
2, 48960, Note_on_c, 0, 81, 90
2, 48975, Control_c, 0, 64, 127
2, 48990, Note_on_c, 0, 81, 0
2, 48990, Note_on_c, 0, 79, 86
2, 49019, Note_on_c, 0, 79, 0
2, 49020, Note_on_c, 0, 81, 95
2, 49046, Note_on_c, 0, 81, 0
2, 49050, Note_on_c, 0, 83, 86
2, 49057, Note_on_c, 0, 65, 0
2, 49078, Note_on_c, 0, 83, 0
2, 49078, Control_c, 0, 64, 0
2, 49080, Note_on_c, 0, 84, 86
2, 49110, Note_on_c, 0, 83, 86
2, 49112, Note_on_c, 0, 84, 0
2, 49138, Note_on_c, 0, 83, 0
2, 49140, Note_on_c, 0, 84, 82
2, 49170, Note_on_c, 0, 83, 74
2, 49178, Note_on_c, 0, 84, 0
2, 49188, Note_on_c, 0, 83, 0
2, 49200, Note_on_c, 0, 84, 90
2, 49200, Note_on_c, 0, 64, 90
2, 49230, Note_on_c, 0, 83, 99
2, 49234, Note_on_c, 0, 84, 0
2, 49247, Control_c, 0, 64, 127
2, 49260, Note_on_c, 0, 81, 90
2, 49269, Note_on_c, 0, 83, 0
2, 49283, Control_c, 0, 64, 0
2, 49290, Note_on_c, 0, 79, 86
2, 49302, Note_on_c, 0, 64, 0
2, 49308, Note_on_c, 0, 81, 0
2, 49316, Note_on_c, 0, 79, 0
2, 49320, Note_on_c, 0, 77, 86
2, 49346, Note_on_c, 0, 77, 0
2, 49350, Note_on_c, 0, 76, 70
2, 49375, Control_c, 0, 64, 127
2, 49380, Note_on_c, 0, 74, 82
2, 49388, Note_on_c, 0, 76, 0
2, 49407, Note_on_c, 0, 74, 0
2, 49410, Note_on_c, 0, 72, 78
2, 49430, Note_on_c, 0, 72, 0
2, 49436, Control_c, 0, 64, 0
2, 49440, Note_on_c, 0, 72, 67
2, 49440, Note_on_c, 0, 76, 99
2, 49475, Control_c, 0, 64, 127
2, 49500, Note_on_c, 0, 77, 95
2, 49502, Note_on_c, 0, 76, 0
2, 49560, Note_on_c, 0, 78, 65
2, 49562, Note_on_c, 0, 77, 0
2, 49566, Note_on_c, 0, 72, 0
2, 49574, Control_c, 0, 64, 0
2, 49617, Note_on_c, 0, 78, 0
2, 49620, Note_on_c, 0, 79, 103
2, 49628, Control_c, 0, 64, 127
2, 49675, Control_c, 0, 64, 0
2, 49680, Note_on_c, 0, 79, 0
2, 49680, Note_on_c, 0, 77, 90
2, 49734, Control_c, 0, 64, 127
2, 49740, Note_on_c, 0, 76, 95
2, 49743, Control_c, 0, 64, 0
2, 49746, Note_on_c, 0, 77, 0
2, 49800, Note_on_c, 0, 74, 90
2, 49807, Note_on_c, 0, 76, 0
2, 49818, Control_c, 0, 64, 127
2, 49857, Note_on_c, 0, 74, 0
2, 49860, Note_on_c, 0, 72, 90
2, 49918, Control_c, 0, 64, 0
2, 49919, Note_on_c, 0, 72, 0
2, 49920, Note_on_c, 0, 76, 86
2, 49920, Note_on_c, 0, 62, 70
2, 49949, Control_c, 0, 64, 127
2, 49950, Note_on_c, 0, 74, 82
2, 49952, Note_on_c, 0, 76, 0
2, 49977, Note_on_c, 0, 74, 0
2, 49978, Note_on_c, 0, 62, 0
2, 49978, Control_c, 0, 64, 0
2, 49980, Note_on_c, 0, 76, 74
2, 49980, Note_on_c, 0, 67, 78
2, 50007, Control_c, 0, 64, 127
2, 50010, Note_on_c, 0, 74, 72
2, 50013, Note_on_c, 0, 76, 0
2, 50035, Note_on_c, 0, 74, 0
2, 50037, Control_c, 0, 64, 0
2, 50038, Note_on_c, 0, 67, 0
2, 50040, Note_on_c, 0, 65, 82
2, 50040, Note_on_c, 0, 76, 74
2, 50062, Control_c, 0, 64, 127
2, 50070, Note_on_c, 0, 74, 82
2, 50072, Note_on_c, 0, 76, 0
2, 50095, Note_on_c, 0, 74, 0
2, 50100, Note_on_c, 0, 65, 0
2, 50100, Note_on_c, 0, 76, 82
2, 50100, Control_c, 0, 64, 0
2, 50100, Note_on_c, 0, 67, 86
2, 50122, Control_c, 0, 64, 127
2, 50130, Note_on_c, 0, 74, 72
2, 50133, Note_on_c, 0, 76, 0
2, 50149, Control_c, 0, 64, 0
2, 50153, Note_on_c, 0, 67, 0
2, 50154, Note_on_c, 0, 74, 0
2, 50160, Note_on_c, 0, 62, 72
2, 50160, Note_on_c, 0, 76, 95
2, 50177, Control_c, 0, 64, 127
2, 50190, Note_on_c, 0, 74, 86
2, 50194, Note_on_c, 0, 76, 0
2, 50216, Note_on_c, 0, 74, 0
2, 50220, Note_on_c, 0, 76, 86
2, 50220, Note_on_c, 0, 67, 82
2, 50221, Note_on_c, 0, 62, 0
2, 50225, Control_c, 0, 64, 0
2, 50249, Control_c, 0, 64, 127
2, 50250, Note_on_c, 0, 76, 0
2, 50250, Note_on_c, 0, 74, 72
2, 50276, Note_on_c, 0, 74, 0
2, 50279, Note_on_c, 0, 67, 0
2, 50280, Note_on_c, 0, 76, 82
2, 50280, Note_on_c, 0, 65, 78
2, 50290, Control_c, 0, 64, 0
2, 50310, Note_on_c, 0, 74, 74
2, 50313, Note_on_c, 0, 76, 0
2, 50313, Control_c, 0, 64, 127
2, 50337, Control_c, 0, 64, 0
2, 50339, Note_on_c, 0, 65, 0
2, 50340, Note_on_c, 0, 74, 0
2, 50340, Note_on_c, 0, 72, 74
2, 50340, Note_on_c, 0, 67, 82
2, 50359, Control_c, 0, 64, 127
2, 50370, Note_on_c, 0, 74, 86
2, 50371, Note_on_c, 0, 72, 0
2, 50389, Note_on_c, 0, 67, 0
2, 50390, Control_c, 0, 64, 0
2, 50395, Note_on_c, 0, 74, 0
2, 50400, Note_on_c, 0, 72, 86
2, 50400, Note_on_c, 0, 64, 72
2, 50413, Control_c, 0, 64, 127
2, 50458, Note_on_c, 0, 64, 0
2, 50460, Note_on_c, 0, 67, 74
2, 50467, Note_on_c, 0, 72, 0
2, 50518, Note_on_c, 0, 67, 0
2, 50520, Note_on_c, 0, 64, 74
2, 50534, Control_c, 0, 64, 0
2, 50578, Note_on_c, 0, 64, 0
2, 50580, Note_on_c, 0, 73, 99
2, 50580, Note_on_c, 0, 67, 82
2, 50596, Control_c, 0, 64, 127
2, 50640, Note_on_c, 0, 73, 0
2, 50640, Note_on_c, 0, 65, 86
2, 50640, Note_on_c, 0, 74, 99
2, 50641, Note_on_c, 0, 67, 0
2, 50648, Control_c, 0, 64, 0
2, 50680, Control_c, 0, 64, 127
2, 50695, Note_on_c, 0, 74, 0
2, 50698, Note_on_c, 0, 65, 0
2, 50700, Note_on_c, 0, 76, 95
2, 50700, Note_on_c, 0, 67, 86
2, 50711, Control_c, 0, 64, 0
2, 50757, Note_on_c, 0, 76, 0
2, 50760, Note_on_c, 0, 77, 90
2, 50760, Note_on_c, 0, 65, 74
2, 50764, Note_on_c, 0, 67, 0
2, 50819, Note_on_c, 0, 65, 0
2, 50820, Note_on_c, 0, 77, 0
2, 50820, Note_on_c, 0, 74, 86
2, 50820, Note_on_c, 0, 67, 67
2, 50824, Control_c, 0, 64, 127
2, 50878, Note_on_c, 0, 67, 0
2, 50880, Note_on_c, 0, 64, 72
2, 50880, Note_on_c, 0, 72, 78
2, 50882, Note_on_c, 0, 74, 0
2, 50885, Control_c, 0, 64, 0
2, 50924, Control_c, 0, 64, 127
2, 50940, Note_on_c, 0, 72, 0
2, 50940, Note_on_c, 0, 67, 66
2, 50942, Note_on_c, 0, 64, 0
2, 50997, Note_on_c, 0, 67, 0
2, 51000, Note_on_c, 0, 64, 74
2, 51012, Control_c, 0, 64, 0
2, 51053, Control_c, 0, 64, 127
2, 51057, Note_on_c, 0, 64, 0
2, 51060, Note_on_c, 0, 73, 117
2, 51060, Note_on_c, 0, 67, 74
2, 51107, Note_on_c, 0, 73, 0
2, 51119, Note_on_c, 0, 67, 0
2, 51120, Note_on_c, 0, 65, 86
2, 51120, Note_on_c, 0, 74, 103
2, 51132, Control_c, 0, 64, 0
2, 51164, Control_c, 0, 64, 127
2, 51172, Note_on_c, 0, 74, 0
2, 51180, Note_on_c, 0, 65, 0
2, 51180, Note_on_c, 0, 76, 99
2, 51180, Note_on_c, 0, 67, 82
2, 51195, Control_c, 0, 64, 0
2, 51240, Note_on_c, 0, 76, 0
2, 51240, Note_on_c, 0, 77, 95
2, 51240, Note_on_c, 0, 65, 74
2, 51242, Note_on_c, 0, 67, 0
2, 51261, Control_c, 0, 64, 127
2, 51298, Note_on_c, 0, 65, 0
2, 51299, Note_on_c, 0, 77, 0
2, 51300, Note_on_c, 0, 67, 86
2, 51300, Note_on_c, 0, 74, 86
2, 51355, Note_on_c, 0, 74, 0
2, 51356, Control_c, 0, 64, 0
2, 51359, Note_on_c, 0, 67, 0
2, 51360, Note_on_c, 0, 64, 70
2, 51360, Note_on_c, 0, 72, 90
2, 51400, Control_c, 0, 64, 127
2, 51420, Note_on_c, 0, 67, 86
2, 51421, Note_on_c, 0, 64, 0
2, 51432, Note_on_c, 0, 72, 0
2, 51474, Note_on_c, 0, 67, 0
2, 51480, Note_on_c, 0, 65, 74
2, 51480, Note_on_c, 0, 74, 103
2, 51481, Control_c, 0, 64, 0
2, 51516, Control_c, 0, 64, 127
2, 51540, Note_on_c, 0, 67, 86
2, 51543, Note_on_c, 0, 65, 0
2, 51567, Note_on_c, 0, 74, 0
2, 51570, Note_on_c, 0, 71, 99
2, 51593, Note_on_c, 0, 71, 0
2, 51594, Note_on_c, 0, 67, 0
2, 51594, Control_c, 0, 64, 0
2, 51600, Note_on_c, 0, 72, 103
2, 51600, Note_on_c, 0, 64, 74
2, 51631, Control_c, 0, 64, 127
2, 51653, Note_on_c, 0, 64, 0
2, 51660, Note_on_c, 0, 67, 78
2, 51698, Note_on_c, 0, 72, 0
2, 51716, Note_on_c, 0, 67, 0
2, 51718, Control_c, 0, 64, 0
2, 51720, Note_on_c, 0, 65, 86
2, 51720, Note_on_c, 0, 79, 103
2, 51752, Control_c, 0, 64, 127
2, 51780, Note_on_c, 0, 67, 86
2, 51783, Note_on_c, 0, 65, 0
2, 51803, Note_on_c, 0, 79, 0
2, 51810, Note_on_c, 0, 71, 95
2, 51827, Note_on_c, 0, 67, 0
2, 51829, Note_on_c, 0, 71, 0
2, 51833, Control_c, 0, 64, 0
2, 51840, Note_on_c, 0, 72, 95
2, 51840, Note_on_c, 0, 64, 78
2, 51869, Control_c, 0, 64, 127
2, 51898, Note_on_c, 0, 64, 0
2, 51900, Note_on_c, 0, 67, 86
2, 51910, Note_on_c, 0, 72, 0
2, 51955, Note_on_c, 0, 67, 0
2, 51960, Note_on_c, 0, 65, 78
2, 51960, Note_on_c, 0, 74, 103
2, 51961, Control_c, 0, 64, 0
2, 51995, Control_c, 0, 64, 127
2, 52020, Note_on_c, 0, 67, 86
2, 52022, Note_on_c, 0, 65, 0
2, 52049, Note_on_c, 0, 74, 0
2, 52050, Note_on_c, 0, 71, 99
2, 52071, Note_on_c, 0, 71, 0
2, 52071, Note_on_c, 0, 67, 0
2, 52071, Control_c, 0, 64, 0
2, 52080, Note_on_c, 0, 72, 99
2, 52080, Note_on_c, 0, 64, 86
2, 52106, Control_c, 0, 64, 127
2, 52140, Note_on_c, 0, 64, 0
2, 52140, Note_on_c, 0, 67, 90
2, 52152, Note_on_c, 0, 72, 0
2, 52193, Note_on_c, 0, 67, 0
2, 52198, Control_c, 0, 64, 0
2, 52200, Note_on_c, 0, 65, 86
2, 52200, Note_on_c, 0, 79, 112
2, 52229, Control_c, 0, 64, 127
2, 52260, Note_on_c, 0, 67, 90
2, 52262, Note_on_c, 0, 65, 0
2, 52286, Note_on_c, 0, 79, 0
2, 52290, Note_on_c, 0, 71, 82
2, 52295, Note_on_c, 0, 67, 0
2, 52307, Note_on_c, 0, 71, 0
2, 52320, Note_on_c, 0, 67, 78
2, 52320, Note_on_c, 0, 72, 108
2, 52320, Note_on_c, 0, 64, 90
2, 52321, Control_c, 0, 64, 0
2, 52347, Control_c, 0, 64, 127
2, 52363, Note_on_c, 0, 72, 0
2, 52369, Note_on_c, 0, 64, 0
2, 52369, Note_on_c, 0, 67, 0
2, 52435, Control_c, 0, 64, 0
2, 52440, Note_on_c, 0, 84, 103
2, 52440, Note_on_c, 0, 76, 117
2, 52440, Note_on_c, 0, 67, 90
2, 52440, Note_on_c, 0, 64, 103
2, 52440, Note_on_c, 0, 72, 90
2, 52466, Control_c, 0, 64, 127
2, 52498, Note_on_c, 0, 64, 0
2, 52499, Note_on_c, 0, 67, 0
2, 52502, Note_on_c, 0, 72, 0
2, 52509, Note_on_c, 0, 76, 0
2, 52513, Note_on_c, 0, 84, 0
2, 52554, Control_c, 0, 64, 0
2, 52560, Note_on_c, 0, 84, 108
2, 52560, Note_on_c, 0, 76, 117
2, 52560, Note_on_c, 0, 67, 99
2, 52560, Note_on_c, 0, 64, 103
2, 52560, Note_on_c, 0, 72, 95
2, 52577, Control_c, 0, 64, 127
2, 52597, Note_on_c, 0, 72, 0
2, 52599, Note_on_c, 0, 67, 0
2, 52600, Note_on_c, 0, 64, 0
2, 52600, Note_on_c, 0, 76, 0
2, 52603, Note_on_c, 0, 84, 0
2, 52684, Control_c, 0, 64, 0
2, 52800, Control_c, 0, 7, 91
2, 52916, Control_c, 0, 64, 0
2, 52954, Control_c, 0, 64, 127
2, 53041, Control_c, 0, 64, 0
2, 53069, Control_c, 0, 64, 127
2, 53143, Control_c, 0, 64, 0
2, 53280, Note_on_c, 0, 79, 99
2, 53400, Note_on_c, 0, 64, 86
2, 53400, Note_on_c, 0, 72, 86
2, 53410, Control_c, 0, 64, 127
2, 53434, Note_on_c, 0, 64, 0
2, 53437, Note_on_c, 0, 72, 0
2, 53439, Note_on_c, 0, 79, 0
2, 53520, Note_on_c, 0, 80, 103
2, 53520, Note_on_c, 0, 72, 86
2, 53520, Note_on_c, 0, 64, 86
2, 53523, Control_c, 0, 64, 0
2, 53549, Control_c, 0, 64, 127
2, 53580, Note_on_c, 0, 64, 0
2, 53580, Note_on_c, 0, 72, 0
2, 53581, Note_on_c, 0, 80, 0
2, 53640, Note_on_c, 0, 80, 90
2, 53641, Control_c, 0, 64, 0
2, 53700, Note_on_c, 0, 80, 0
2, 53700, Note_on_c, 0, 81, 95
2, 53760, Note_on_c, 0, 65, 90
2, 53760, Note_on_c, 0, 72, 72
2, 53769, Control_c, 0, 64, 127
2, 53801, Note_on_c, 0, 72, 0
2, 53805, Note_on_c, 0, 81, 0
2, 53806, Note_on_c, 0, 65, 0
2, 53879, Control_c, 0, 64, 0
2, 53880, Note_on_c, 0, 64, 78
2, 53880, Note_on_c, 0, 79, 99
2, 53880, Note_on_c, 0, 72, 66
2, 53904, Control_c, 0, 64, 127
2, 53933, Note_on_c, 0, 79, 0
2, 53934, Note_on_c, 0, 72, 0
2, 53934, Note_on_c, 0, 64, 0
2, 54000, Note_on_c, 0, 79, 103
2, 54007, Control_c, 0, 64, 0
2, 54058, Note_on_c, 0, 79, 0
2, 54060, Note_on_c, 0, 77, 90
2, 54118, Control_c, 0, 64, 127
2, 54120, Note_on_c, 0, 71, 82
2, 54120, Note_on_c, 0, 62, 90
2, 54154, Note_on_c, 0, 77, 0
2, 54158, Note_on_c, 0, 62, 0
2, 54158, Note_on_c, 0, 71, 0
2, 54234, Control_c, 0, 64, 0
2, 54240, Note_on_c, 0, 76, 103
2, 54240, Note_on_c, 0, 72, 78
2, 54240, Note_on_c, 0, 64, 86
2, 54258, Control_c, 0, 64, 127
2, 54264, Note_on_c, 0, 72, 0
2, 54265, Note_on_c, 0, 64, 0
2, 54274, Note_on_c, 0, 76, 0
2, 54356, Control_c, 0, 64, 0
2, 54360, Note_on_c, 0, 72, 90
2, 54360, Note_on_c, 0, 76, 90
2, 54360, Note_on_c, 0, 67, 86
2, 54380, Control_c, 0, 64, 127
2, 54414, Note_on_c, 0, 67, 0
2, 54420, Note_on_c, 0, 55, 62
2, 54424, Note_on_c, 0, 76, 0
2, 54425, Note_on_c, 0, 72, 0
2, 54476, Note_on_c, 0, 55, 0
2, 54480, Note_on_c, 0, 71, 70
2, 54480, Note_on_c, 0, 74, 74
2, 54480, Note_on_c, 0, 67, 72
2, 54492, Control_c, 0, 64, 0
2, 54516, Control_c, 0, 64, 127
2, 54539, Note_on_c, 0, 67, 0
2, 54540, Note_on_c, 0, 65, 74
2, 54599, Note_on_c, 0, 65, 0
2, 54600, Note_on_c, 0, 71, 0
2, 54600, Note_on_c, 0, 64, 86
2, 54601, Note_on_c, 0, 74, 0
2, 54604, Control_c, 0, 64, 0
2, 54652, Control_c, 0, 64, 127
2, 54656, Note_on_c, 0, 64, 0
2, 54660, Note_on_c, 0, 62, 86
2, 54713, Control_c, 0, 64, 0
2, 54717, Note_on_c, 0, 62, 0
2, 54720, Note_on_c, 0, 72, 103
2, 54720, Note_on_c, 0, 60, 82
2, 54744, Control_c, 0, 64, 127
2, 54764, Note_on_c, 0, 60, 0
2, 54764, Note_on_c, 0, 72, 0
2, 54840, Note_on_c, 0, 72, 86
2, 54840, Note_on_c, 0, 76, 103
2, 54842, Control_c, 0, 64, 0
2, 54867, Control_c, 0, 64, 127
2, 54898, Note_on_c, 0, 76, 0
2, 54899, Note_on_c, 0, 72, 0
2, 54960, Note_on_c, 0, 76, 108
2, 54960, Note_on_c, 0, 72, 95
2, 54989, Note_on_c, 0, 76, 0
2, 54996, Note_on_c, 0, 72, 0
2, 55079, Control_c, 0, 64, 0
2, 55080, Note_on_c, 0, 74, 108
2, 55080, Note_on_c, 0, 71, 99
2, 55106, Control_c, 0, 64, 127
2, 55140, Note_on_c, 0, 76, 103
2, 55142, Note_on_c, 0, 74, 0
2, 55144, Control_c, 0, 64, 0
2, 55167, Control_c, 0, 64, 127
2, 55170, Note_on_c, 0, 78, 70
2, 55173, Note_on_c, 0, 76, 0
2, 55195, Note_on_c, 0, 78, 0
2, 55200, Note_on_c, 0, 79, 108
2, 55204, Control_c, 0, 64, 0
2, 55229, Note_on_c, 0, 79, 0
2, 55230, Note_on_c, 0, 81, 82
2, 55237, Control_c, 0, 64, 127
2, 55254, Note_on_c, 0, 81, 0
2, 55260, Note_on_c, 0, 83, 108
2, 55281, Note_on_c, 0, 83, 0
2, 55290, Note_on_c, 0, 84, 99
2, 55307, Note_on_c, 0, 71, 0
2, 55310, Note_on_c, 0, 84, 0
2, 55317, Control_c, 0, 64, 0
2, 55320, Note_on_c, 0, 86, 112
2, 55349, Control_c, 0, 64, 127
2, 55363, Note_on_c, 0, 86, 0
2, 55380, Note_on_c, 0, 86, 103
2, 55404, Note_on_c, 0, 86, 0
2, 55440, Note_on_c, 0, 84, 103
2, 55440, Note_on_c, 0, 69, 90
2, 55441, Control_c, 0, 64, 0
2, 55462, Note_on_c, 0, 84, 0
2, 55470, Note_on_c, 0, 86, 90
2, 55474, Control_c, 0, 64, 127
2, 55492, Note_on_c, 0, 86, 0
2, 55492, Control_c, 0, 64, 0
2, 55500, Note_on_c, 0, 88, 99
2, 55522, Note_on_c, 0, 88, 0
2, 55530, Note_on_c, 0, 86, 103
2, 55552, Note_on_c, 0, 86, 0
2, 55560, Note_on_c, 0, 84, 103
2, 55583, Note_on_c, 0, 84, 0
2, 55590, Note_on_c, 0, 83, 108
2, 55591, Control_c, 0, 64, 127
2, 55620, Note_on_c, 0, 81, 90
2, 55624, Note_on_c, 0, 83, 0
2, 55637, Note_on_c, 0, 81, 0
2, 55650, Note_on_c, 0, 79, 103
2, 55664, Note_on_c, 0, 79, 0
2, 55675, Note_on_c, 0, 69, 0
2, 55680, Note_on_c, 0, 81, 103
2, 55687, Control_c, 0, 64, 0
2, 55710, Note_on_c, 0, 79, 103
2, 55717, Note_on_c, 0, 81, 0
2, 55732, Control_c, 0, 64, 127
2, 55734, Note_on_c, 0, 79, 0
2, 55740, Note_on_c, 0, 78, 69
2, 55765, Note_on_c, 0, 78, 0
2, 55770, Note_on_c, 0, 76, 103
2, 55787, Note_on_c, 0, 76, 0
2, 55800, Control_c, 0, 64, 0
2, 55800, Note_on_c, 0, 66, 82
2, 55800, Note_on_c, 0, 78, 99
2, 55800, Note_on_c, 0, 86, 103
2, 55826, Note_on_c, 0, 66, 0
2, 55830, Note_on_c, 0, 62, 90
2, 55859, Note_on_c, 0, 62, 0
2, 55860, Note_on_c, 0, 64, 86
2, 55890, Note_on_c, 0, 66, 69
2, 55894, Note_on_c, 0, 64, 0
2, 55920, Note_on_c, 0, 67, 95
2, 55926, Note_on_c, 0, 66, 0
2, 55949, Note_on_c, 0, 67, 0
2, 55950, Note_on_c, 0, 69, 86
2, 55980, Note_on_c, 0, 71, 82
2, 55983, Note_on_c, 0, 69, 0
2, 56010, Note_on_c, 0, 72, 82
2, 56014, Note_on_c, 0, 71, 0
2, 56040, Note_on_c, 0, 74, 82
2, 56041, Note_on_c, 0, 72, 0
2, 56070, Note_on_c, 0, 72, 74
2, 56075, Note_on_c, 0, 74, 0
2, 56098, Note_on_c, 0, 72, 0
2, 56100, Control_c, 0, 64, 127
2, 56100, Note_on_c, 0, 71, 69
2, 56123, Note_on_c, 0, 71, 0
2, 56130, Note_on_c, 0, 69, 74
2, 56143, Note_on_c, 0, 78, 0
2, 56154, Note_on_c, 0, 69, 0
2, 56155, Note_on_c, 0, 86, 0
2, 56160, Note_on_c, 0, 83, 95
2, 56160, Note_on_c, 0, 67, 95
2, 56161, Control_c, 0, 64, 0
2, 56190, Note_on_c, 0, 83, 0
2, 56190, Note_on_c, 0, 79, 86
2, 56220, Note_on_c, 0, 79, 0
2, 56220, Note_on_c, 0, 81, 86
2, 56236, Control_c, 0, 64, 127
2, 56245, Note_on_c, 0, 81, 0
2, 56250, Note_on_c, 0, 83, 95
2, 56274, Note_on_c, 0, 83, 0
2, 56278, Note_on_c, 0, 67, 0
2, 56280, Note_on_c, 0, 69, 90
2, 56280, Note_on_c, 0, 84, 82
2, 56283, Control_c, 0, 64, 0
2, 56310, Note_on_c, 0, 81, 99
2, 56313, Note_on_c, 0, 84, 0
2, 56319, Control_c, 0, 64, 127
2, 56333, Note_on_c, 0, 81, 0
2, 56340, Note_on_c, 0, 83, 95
2, 56361, Note_on_c, 0, 83, 0
2, 56370, Note_on_c, 0, 84, 99
2, 56389, Note_on_c, 0, 84, 0
2, 56396, Note_on_c, 0, 69, 0
2, 56400, Note_on_c, 0, 71, 86
2, 56400, Note_on_c, 0, 86, 112
2, 56408, Control_c, 0, 64, 0
2, 56424, Note_on_c, 0, 86, 0
2, 56430, Note_on_c, 0, 83, 103
2, 56442, Control_c, 0, 64, 127
2, 56449, Note_on_c, 0, 83, 0
2, 56460, Note_on_c, 0, 84, 95
2, 56478, Note_on_c, 0, 84, 0
2, 56490, Note_on_c, 0, 86, 99
2, 56507, Note_on_c, 0, 86, 0
2, 56517, Note_on_c, 0, 71, 0
2, 56520, Note_on_c, 0, 88, 99
2, 56520, Note_on_c, 0, 72, 86
2, 56529, Control_c, 0, 64, 0
2, 56550, Note_on_c, 0, 84, 95
2, 56551, Note_on_c, 0, 88, 0
2, 56566, Control_c, 0, 64, 127
2, 56580, Note_on_c, 0, 83, 90
2, 56585, Note_on_c, 0, 84, 0
2, 56598, Note_on_c, 0, 83, 0
2, 56603, Note_on_c, 0, 72, 0
2, 56610, Note_on_c, 0, 81, 117
2, 56621, Note_on_c, 0, 81, 0
2, 56640, Note_on_c, 0, 79, 117
2, 56640, Note_on_c, 0, 74, 95
2, 56651, Control_c, 0, 64, 0
2, 56678, Control_c, 0, 64, 127
2, 56696, Note_on_c, 0, 79, 0
2, 56707, Note_on_c, 0, 74, 0
2, 56760, Note_on_c, 0, 83, 108
2, 56760, Note_on_c, 0, 74, 86
2, 56760, Note_on_c, 0, 72, 74
2, 56764, Control_c, 0, 64, 0
2, 56783, Note_on_c, 0, 83, 0
2, 56790, Note_on_c, 0, 81, 86
2, 56792, Control_c, 0, 64, 127
2, 56820, Note_on_c, 0, 81, 0
2, 56820, Note_on_c, 0, 79, 99
2, 56843, Note_on_c, 0, 79, 0
2, 56848, Note_on_c, 0, 74, 0
2, 56850, Note_on_c, 0, 81, 99
2, 56852, Note_on_c, 0, 72, 0
2, 56866, Note_on_c, 0, 81, 0
2, 56880, Note_on_c, 0, 81, 99
2, 56880, Note_on_c, 0, 71, 69
2, 56880, Note_on_c, 0, 74, 72
2, 56889, Control_c, 0, 64, 0
2, 56940, Note_on_c, 0, 79, 99
2, 56946, Note_on_c, 0, 81, 0
2, 57009, Control_c, 0, 64, 127
2, 57256, Note_on_c, 0, 79, 0
2, 57258, Note_on_c, 0, 74, 0
2, 57259, Note_on_c, 0, 71, 0
2, 57265, Control_c, 0, 64, 0
2, 57959, Control_c, 0, 64, 127
2, 57960, Note_on_c, 0, 67, 90
2, 57960, Note_on_c, 0, 72, 99
2, 58013, Note_on_c, 0, 72, 0
2, 58020, Note_on_c, 0, 76, 95
2, 58043, Note_on_c, 0, 76, 0
2, 58050, Note_on_c, 0, 79, 99
2, 58071, Note_on_c, 0, 79, 0
2, 58071, Control_c, 0, 64, 0
2, 58080, Note_on_c, 0, 84, 103
2, 58094, Control_c, 0, 64, 127
2, 58122, Note_on_c, 0, 84, 0
2, 58140, Note_on_c, 0, 84, 86
2, 58162, Note_on_c, 0, 84, 0
2, 58178, Note_on_c, 0, 67, 0
2, 58194, Control_c, 0, 64, 0
2, 58200, Note_on_c, 0, 64, 90
2, 58200, Note_on_c, 0, 84, 99
2, 58216, Control_c, 0, 64, 127
2, 58246, Note_on_c, 0, 84, 0
2, 58260, Note_on_c, 0, 82, 95
2, 58260, Note_on_c, 0, 79, 99
2, 58275, Note_on_c, 0, 79, 0
2, 58280, Note_on_c, 0, 82, 0
2, 58285, Note_on_c, 0, 64, 0
2, 58320, Note_on_c, 0, 65, 72
2, 58320, Note_on_c, 0, 81, 99
2, 58320, Note_on_c, 0, 77, 86
2, 58327, Control_c, 0, 64, 0
2, 58354, Control_c, 0, 64, 127
2, 58373, Note_on_c, 0, 77, 0
2, 58377, Note_on_c, 0, 81, 0
2, 58380, Note_on_c, 0, 79, 99
2, 58380, Note_on_c, 0, 76, 95
2, 58395, Note_on_c, 0, 76, 0
2, 58396, Note_on_c, 0, 79, 0
2, 58438, Control_c, 0, 64, 0
2, 58440, Note_on_c, 0, 74, 82
2, 58440, Note_on_c, 0, 77, 90
2, 58462, Control_c, 0, 64, 127
2, 58491, Note_on_c, 0, 77, 0
2, 58492, Note_on_c, 0, 74, 0
2, 58500, Note_on_c, 0, 76, 86
2, 58500, Note_on_c, 0, 72, 90
2, 58517, Note_on_c, 0, 65, 0
2, 58521, Note_on_c, 0, 72, 0
2, 58526, Note_on_c, 0, 76, 0
2, 58560, Note_on_c, 0, 66, 86
2, 58560, Control_c, 0, 64, 0
2, 58560, Note_on_c, 0, 71, 86
2, 58560, Note_on_c, 0, 74, 99
2, 58585, Control_c, 0, 64, 127
2, 58592, Note_on_c, 0, 71, 0
2, 58608, Note_on_c, 0, 74, 0
2, 58620, Note_on_c, 0, 76, 103
2, 58620, Note_on_c, 0, 72, 86
2, 58639, Note_on_c, 0, 76, 0
2, 58642, Note_on_c, 0, 72, 0
2, 58644, Note_on_c, 0, 66, 0
2, 58680, Note_on_c, 0, 72, 90
2, 58680, Note_on_c, 0, 76, 86
2, 58680, Note_on_c, 0, 67, 86
2, 58691, Control_c, 0, 64, 0
2, 58719, Control_c, 0, 64, 127
2, 58762, Note_on_c, 0, 67, 0
2, 58765, Note_on_c, 0, 72, 0
2, 58766, Note_on_c, 0, 76, 0
2, 58800, Note_on_c, 0, 71, 86
2, 58800, Note_on_c, 0, 74, 86
2, 58800, Note_on_c, 0, 67, 78
2, 58809, Control_c, 0, 64, 0
2, 58831, Control_c, 0, 64, 127
2, 58867, Note_on_c, 0, 71, 0
2, 58870, Note_on_c, 0, 74, 0
2, 58871, Note_on_c, 0, 67, 0
2, 58926, Control_c, 0, 64, 0
2, 59040, Note_on_c, 0, 67, 74
2, 59040, Note_on_c, 0, 79, 103
2, 59055, Control_c, 0, 64, 127
2, 59096, Note_on_c, 0, 67, 0
2, 59100, Note_on_c, 0, 72, 82
2, 59109, Note_on_c, 0, 79, 0
2, 59147, Note_on_c, 0, 72, 0
2, 59160, Note_on_c, 0, 84, 112
2, 59160, Note_on_c, 0, 67, 82
2, 59174, Control_c, 0, 64, 0
2, 59196, Control_c, 0, 64, 127
2, 59216, Note_on_c, 0, 67, 0
2, 59220, Note_on_c, 0, 72, 72
2, 59239, Note_on_c, 0, 84, 0
2, 59266, Note_on_c, 0, 72, 0
2, 59280, Note_on_c, 0, 84, 108
2, 59280, Note_on_c, 0, 67, 86
2, 59295, Control_c, 0, 64, 0
2, 59315, Control_c, 0, 64, 127
2, 59334, Note_on_c, 0, 67, 0
2, 59340, Note_on_c, 0, 72, 66
2, 59356, Note_on_c, 0, 84, 0
2, 59376, Note_on_c, 0, 72, 0
2, 59400, Note_on_c, 0, 84, 108
2, 59400, Note_on_c, 0, 67, 78
2, 59406, Control_c, 0, 64, 0
2, 59426, Control_c, 0, 64, 127
2, 59451, Note_on_c, 0, 67, 0
2, 59454, Note_on_c, 0, 84, 0
2, 59460, Note_on_c, 0, 83, 99
2, 59460, Note_on_c, 0, 71, 90
2, 59483, Note_on_c, 0, 71, 0
2, 59488, Note_on_c, 0, 83, 0
2, 59520, Note_on_c, 0, 81, 112
2, 59520, Note_on_c, 0, 67, 78
2, 59524, Control_c, 0, 64, 0
2, 59546, Control_c, 0, 64, 127
2, 59572, Note_on_c, 0, 67, 0
2, 59573, Note_on_c, 0, 81, 0
2, 59580, Note_on_c, 0, 79, 99
2, 59580, Note_on_c, 0, 71, 90
2, 59599, Note_on_c, 0, 71, 0
2, 59601, Note_on_c, 0, 79, 0
2, 59640, Note_on_c, 0, 79, 112
2, 59640, Note_on_c, 0, 67, 86
2, 59644, Control_c, 0, 64, 0
2, 59668, Control_c, 0, 64, 127
2, 59689, Note_on_c, 0, 67, 0
2, 59700, Note_on_c, 0, 71, 90
2, 59715, Note_on_c, 0, 79, 0
2, 59724, Note_on_c, 0, 71, 0
2, 59760, Note_on_c, 0, 67, 86
2, 59760, Note_on_c, 0, 79, 117
2, 59767, Control_c, 0, 64, 0
2, 59792, Control_c, 0, 64, 127
2, 59812, Note_on_c, 0, 79, 0
2, 59815, Note_on_c, 0, 67, 0
2, 59820, Note_on_c, 0, 72, 86
2, 59857, Note_on_c, 0, 72, 0
2, 59880, Note_on_c, 0, 84, 112
2, 59880, Note_on_c, 0, 67, 86
2, 59885, Control_c, 0, 64, 0
2, 59905, Control_c, 0, 64, 127
2, 59935, Note_on_c, 0, 67, 0
2, 59937, Note_on_c, 0, 84, 0
2, 59940, Note_on_c, 0, 72, 82
2, 59940, Note_on_c, 0, 88, 108
2, 59965, Note_on_c, 0, 88, 0
2, 59973, Note_on_c, 0, 72, 0
2, 59999, Control_c, 0, 64, 0
2, 60000, Note_on_c, 0, 67, 86
2, 60000, Note_on_c, 0, 86, 117
2, 60019, Control_c, 0, 64, 127
2, 60055, Note_on_c, 0, 86, 0
2, 60057, Note_on_c, 0, 67, 0
2, 60060, Note_on_c, 0, 84, 99
2, 60060, Note_on_c, 0, 72, 72
2, 60078, Note_on_c, 0, 84, 0
2, 60082, Note_on_c, 0, 72, 0
2, 60120, Note_on_c, 0, 67, 74
2, 60120, Note_on_c, 0, 84, 112
2, 60126, Control_c, 0, 64, 0
2, 60149, Control_c, 0, 64, 127
2, 60173, Note_on_c, 0, 84, 0
2, 60175, Note_on_c, 0, 67, 0
2, 60180, Note_on_c, 0, 83, 95
2, 60180, Note_on_c, 0, 71, 86
2, 60207, Note_on_c, 0, 71, 0
2, 60211, Note_on_c, 0, 83, 0
2, 60240, Note_on_c, 0, 67, 74
2, 60240, Note_on_c, 0, 81, 108
2, 60246, Control_c, 0, 64, 0
2, 60268, Control_c, 0, 64, 127
2, 60289, Note_on_c, 0, 81, 0
2, 60292, Note_on_c, 0, 67, 0
2, 60300, Note_on_c, 0, 79, 99
2, 60300, Note_on_c, 0, 71, 86
2, 60322, Note_on_c, 0, 71, 0
2, 60322, Note_on_c, 0, 79, 0
2, 60360, Note_on_c, 0, 67, 90
2, 60360, Note_on_c, 0, 79, 103
2, 60363, Control_c, 0, 64, 0
2, 60385, Control_c, 0, 64, 127
2, 60418, Note_on_c, 0, 67, 0
2, 60420, Note_on_c, 0, 71, 90
2, 60433, Note_on_c, 0, 79, 0
2, 60452, Note_on_c, 0, 71, 0
2, 60480, Note_on_c, 0, 79, 123
2, 60485, Control_c, 0, 64, 0
2, 60508, Control_c, 0, 64, 127
2, 60537, Note_on_c, 0, 79, 0
2, 60598, Control_c, 0, 64, 0
2, 60600, Note_on_c, 0, 64, 90
2, 60600, Note_on_c, 0, 84, 117
2, 60600, Note_on_c, 0, 72, 82
2, 60619, Control_c, 0, 64, 127
2, 60655, Note_on_c, 0, 64, 0
2, 60661, Note_on_c, 0, 72, 0
2, 60667, Note_on_c, 0, 84, 0
2, 60720, Note_on_c, 0, 83, 108
2, 60720, Note_on_c, 0, 64, 99
2, 60720, Note_on_c, 0, 72, 82
2, 60726, Control_c, 0, 64, 0
2, 60747, Control_c, 0, 64, 127
2, 60797, Note_on_c, 0, 64, 0
2, 60798, Note_on_c, 0, 83, 0
2, 60803, Note_on_c, 0, 72, 0
2, 60840, Control_c, 0, 64, 0
2, 60840, Note_on_c, 0, 83, 108
2, 60868, Control_c, 0, 64, 127
2, 60890, Note_on_c, 0, 83, 0
2, 60900, Note_on_c, 0, 81, 99
2, 60945, Control_c, 0, 64, 0
2, 60960, Note_on_c, 0, 65, 103
2, 60960, Note_on_c, 0, 72, 86
2, 60972, Control_c, 0, 64, 127
2, 61008, Note_on_c, 0, 72, 0
2, 61011, Note_on_c, 0, 65, 0
2, 61015, Note_on_c, 0, 81, 0
2, 61075, Control_c, 0, 64, 0
2, 61080, Note_on_c, 0, 79, 103
2, 61080, Note_on_c, 0, 64, 99
2, 61080, Note_on_c, 0, 72, 90
2, 61097, Control_c, 0, 64, 127
2, 61123, Note_on_c, 0, 79, 0
2, 61141, Note_on_c, 0, 64, 0
2, 61145, Note_on_c, 0, 72, 0
2, 61188, Control_c, 0, 64, 0
2, 61200, Note_on_c, 0, 79, 103
2, 61215, Control_c, 0, 64, 127
2, 61252, Note_on_c, 0, 79, 0
2, 61260, Note_on_c, 0, 77, 90
2, 61302, Control_c, 0, 64, 0
2, 61320, Note_on_c, 0, 62, 99
2, 61320, Note_on_c, 0, 71, 95
2, 61325, Control_c, 0, 64, 127
2, 61353, Note_on_c, 0, 77, 0
2, 61358, Note_on_c, 0, 62, 0
2, 61362, Note_on_c, 0, 71, 0
2, 61437, Control_c, 0, 64, 0
2, 61440, Note_on_c, 0, 60, 78
2, 61440, Note_on_c, 0, 76, 108
2, 61440, Note_on_c, 0, 72, 82
2, 61459, Control_c, 0, 64, 127
2, 61498, Note_on_c, 0, 72, 0
2, 61505, Note_on_c, 0, 60, 0
2, 61514, Note_on_c, 0, 76, 0
2, 61556, Control_c, 0, 64, 0
2, 61560, Note_on_c, 0, 65, 82
2, 61560, Note_on_c, 0, 76, 86
2, 61580, Control_c, 0, 64, 127
2, 61590, Note_on_c, 0, 74, 99
2, 61593, Note_on_c, 0, 76, 0
2, 61613, Note_on_c, 0, 74, 0
2, 61620, Note_on_c, 0, 77, 86
2, 61648, Note_on_c, 0, 77, 0
2, 61650, Note_on_c, 0, 74, 90
2, 61668, Note_on_c, 0, 74, 0
2, 61668, Note_on_c, 0, 65, 0
2, 61677, Control_c, 0, 64, 0
2, 61680, Note_on_c, 0, 72, 99
2, 61680, Note_on_c, 0, 67, 103
2, 61698, Control_c, 0, 64, 127
2, 61729, Note_on_c, 0, 67, 0
2, 61738, Note_on_c, 0, 72, 0
2, 61792, Control_c, 0, 64, 0
2, 61800, Note_on_c, 0, 71, 103
2, 61800, Note_on_c, 0, 65, 78
2, 61800, Note_on_c, 0, 67, 70
2, 61815, Control_c, 0, 64, 127
2, 61851, Note_on_c, 0, 67, 0
2, 61851, Note_on_c, 0, 65, 0
2, 61854, Note_on_c, 0, 71, 0
2, 61920, Note_on_c, 0, 71, 103
2, 61920, Note_on_c, 0, 64, 78
2, 61920, Note_on_c, 0, 67, 86
2, 61923, Control_c, 0, 64, 0
2, 61945, Control_c, 0, 64, 127
2, 61980, Note_on_c, 0, 72, 95
2, 61983, Note_on_c, 0, 71, 0
2, 61993, Control_c, 0, 64, 0
2, 62025, Control_c, 0, 64, 127
2, 62225, Note_on_c, 0, 64, 0
2, 62226, Note_on_c, 0, 72, 0
2, 62228, Note_on_c, 0, 67, 0
2, 62244, Control_c, 0, 64, 0
2, 62280, Note_on_c, 0, 79, 86
2, 62362, Control_c, 0, 64, 127
2, 62400, Note_on_c, 0, 72, 58
2, 62400, Note_on_c, 0, 64, 74
2, 62421, Note_on_c, 0, 79, 0
2, 62434, Note_on_c, 0, 64, 0
2, 62443, Note_on_c, 0, 72, 0
2, 62520, Note_on_c, 0, 72, 58
2, 62520, Note_on_c, 0, 80, 74
2, 62520, Note_on_c, 0, 64, 82
2, 62525, Control_c, 0, 64, 0
2, 62547, Control_c, 0, 64, 127
2, 62576, Note_on_c, 0, 80, 0
2, 62589, Note_on_c, 0, 64, 0
2, 62592, Note_on_c, 0, 72, 0
2, 62640, Note_on_c, 0, 80, 70
2, 62644, Control_c, 0, 64, 0
2, 62681, Control_c, 0, 64, 127
2, 62700, Note_on_c, 0, 81, 86
2, 62701, Note_on_c, 0, 80, 0
2, 62734, Control_c, 0, 64, 0
2, 62760, Note_on_c, 0, 65, 78
2, 62760, Note_on_c, 0, 72, 60
2, 62767, Control_c, 0, 64, 127
2, 62803, Note_on_c, 0, 81, 0
2, 62808, Note_on_c, 0, 72, 0
2, 62808, Note_on_c, 0, 65, 0
2, 62880, Note_on_c, 0, 79, 86
2, 62880, Note_on_c, 0, 72, 54
2, 62880, Control_c, 0, 64, 0
2, 62880, Note_on_c, 0, 64, 67
2, 62903, Control_c, 0, 64, 127
2, 62938, Note_on_c, 0, 79, 0
2, 62946, Note_on_c, 0, 64, 0
2, 62949, Note_on_c, 0, 72, 0
2, 62997, Control_c, 0, 64, 0
2, 63000, Note_on_c, 0, 79, 72
2, 63028, Control_c, 0, 64, 127
2, 63051, Note_on_c, 0, 79, 0
2, 63060, Note_on_c, 0, 77, 72
2, 63106, Control_c, 0, 64, 0
2, 63120, Note_on_c, 0, 62, 74
2, 63120, Note_on_c, 0, 71, 63
2, 63131, Control_c, 0, 64, 127
2, 63161, Note_on_c, 0, 62, 0
2, 63163, Note_on_c, 0, 71, 0
2, 63163, Note_on_c, 0, 77, 0
2, 63240, Note_on_c, 0, 76, 82
2, 63240, Note_on_c, 0, 64, 66
2, 63240, Note_on_c, 0, 72, 66
2, 63241, Control_c, 0, 64, 0
2, 63262, Control_c, 0, 64, 127
2, 63263, Note_on_c, 0, 64, 0
2, 63273, Note_on_c, 0, 72, 0
2, 63278, Note_on_c, 0, 76, 0
2, 63355, Control_c, 0, 64, 0
2, 63360, Note_on_c, 0, 72, 74
2, 63360, Note_on_c, 0, 76, 70
2, 63360, Note_on_c, 0, 67, 72
2, 63376, Control_c, 0, 64, 127
2, 63416, Note_on_c, 0, 67, 0
2, 63420, Note_on_c, 0, 55, 90
2, 63427, Note_on_c, 0, 72, 0
2, 63430, Note_on_c, 0, 76, 0
2, 63476, Note_on_c, 0, 55, 0
2, 63480, Note_on_c, 0, 71, 72
2, 63480, Note_on_c, 0, 67, 72
2, 63480, Note_on_c, 0, 74, 74
2, 63485, Control_c, 0, 64, 0
2, 63509, Control_c, 0, 64, 127
2, 63540, Note_on_c, 0, 65, 74
2, 63542, Note_on_c, 0, 67, 0
2, 63561, Control_c, 0, 64, 0
2, 63598, Note_on_c, 0, 65, 0
2, 63600, Note_on_c, 0, 64, 86
2, 63608, Control_c, 0, 64, 127
2, 63635, Control_c, 0, 64, 0
2, 63641, Note_on_c, 0, 74, 0
2, 63645, Note_on_c, 0, 71, 0
2, 63653, Note_on_c, 0, 64, 0
2, 63660, Note_on_c, 0, 62, 95
2, 63669, Control_c, 0, 64, 127
2, 63719, Control_c, 0, 64, 0
2, 63720, Note_on_c, 0, 72, 95
2, 63720, Note_on_c, 0, 60, 82
2, 63723, Note_on_c, 0, 62, 0
2, 63747, Control_c, 0, 64, 127
2, 63778, Note_on_c, 0, 72, 0
2, 63794, Note_on_c, 0, 60, 0
2, 63840, Note_on_c, 0, 72, 69
2, 63840, Note_on_c, 0, 76, 86
2, 63847, Control_c, 0, 64, 0
2, 63869, Control_c, 0, 64, 127
2, 63902, Note_on_c, 0, 72, 0
2, 63903, Note_on_c, 0, 76, 0
2, 63960, Note_on_c, 0, 72, 72
2, 63960, Note_on_c, 0, 76, 90
2, 63989, Note_on_c, 0, 76, 0
2, 64001, Note_on_c, 0, 72, 0
2, 64080, Note_on_c, 0, 74, 90
2, 64080, Note_on_c, 0, 71, 72
2, 64088, Control_c, 0, 64, 0
2, 64112, Control_c, 0, 64, 127
2, 64140, Note_on_c, 0, 74, 0
2, 64140, Note_on_c, 0, 76, 86
2, 64146, Control_c, 0, 64, 0
2, 64168, Note_on_c, 0, 76, 0
2, 64170, Note_on_c, 0, 78, 69
2, 64194, Note_on_c, 0, 78, 0
2, 64200, Note_on_c, 0, 79, 86
2, 64230, Note_on_c, 0, 81, 78
2, 64231, Note_on_c, 0, 79, 0
2, 64258, Note_on_c, 0, 81, 0
2, 64260, Note_on_c, 0, 83, 74
2, 64287, Note_on_c, 0, 83, 0
2, 64290, Note_on_c, 0, 84, 78
2, 64317, Note_on_c, 0, 84, 0
2, 64320, Note_on_c, 0, 86, 90
2, 64338, Note_on_c, 0, 71, 0
2, 64348, Note_on_c, 0, 86, 0
2, 64379, Control_c, 0, 64, 127
2, 64380, Note_on_c, 0, 86, 95
2, 64425, Note_on_c, 0, 86, 0
2, 64440, Note_on_c, 0, 84, 86
2, 64440, Note_on_c, 0, 69, 86
2, 64447, Control_c, 0, 64, 0
2, 64470, Note_on_c, 0, 84, 0
2, 64470, Note_on_c, 0, 86, 95
2, 64494, Note_on_c, 0, 86, 0
2, 64496, Control_c, 0, 64, 127
2, 64500, Note_on_c, 0, 88, 86
2, 64530, Note_on_c, 0, 86, 99
2, 64533, Note_on_c, 0, 88, 0
2, 64560, Note_on_c, 0, 84, 86
2, 64562, Control_c, 0, 64, 0
2, 64564, Note_on_c, 0, 86, 0
2, 64588, Control_c, 0, 64, 127
2, 64590, Note_on_c, 0, 83, 86
2, 64595, Note_on_c, 0, 84, 0
2, 64620, Note_on_c, 0, 81, 72
2, 64622, Note_on_c, 0, 83, 0
2, 64650, Note_on_c, 0, 79, 90
2, 64655, Note_on_c, 0, 81, 0
2, 64664, Note_on_c, 0, 79, 0
2, 64677, Note_on_c, 0, 69, 0
2, 64680, Note_on_c, 0, 81, 90
2, 64680, Control_c, 0, 64, 0
2, 64710, Note_on_c, 0, 79, 86
2, 64714, Control_c, 0, 64, 127
2, 64719, Note_on_c, 0, 81, 0
2, 64740, Note_on_c, 0, 78, 61
2, 64746, Note_on_c, 0, 79, 0
2, 64770, Note_on_c, 0, 76, 74
2, 64773, Note_on_c, 0, 78, 0
2, 64788, Note_on_c, 0, 76, 0
2, 64800, Note_on_c, 0, 66, 74
2, 64800, Note_on_c, 0, 78, 69
2, 64800, Note_on_c, 0, 86, 86
2, 64803, Control_c, 0, 64, 127
2, 64830, Note_on_c, 0, 62, 72
2, 64831, Control_c, 0, 64, 0
2, 64848, Note_on_c, 0, 66, 0
2, 64857, Note_on_c, 0, 62, 0
2, 64860, Note_on_c, 0, 64, 72
2, 64890, Note_on_c, 0, 66, 69
2, 64891, Note_on_c, 0, 64, 0
2, 64920, Note_on_c, 0, 67, 74
2, 64925, Note_on_c, 0, 66, 0
2, 64950, Note_on_c, 0, 67, 0
2, 64950, Note_on_c, 0, 69, 70
2, 64980, Note_on_c, 0, 71, 78
2, 64985, Note_on_c, 0, 69, 0
2, 65010, Note_on_c, 0, 71, 0
2, 65010, Note_on_c, 0, 72, 86
2, 65040, Note_on_c, 0, 74, 78
2, 65042, Note_on_c, 0, 72, 0
2, 65070, Note_on_c, 0, 72, 72
2, 65073, Note_on_c, 0, 74, 0
2, 65098, Note_on_c, 0, 72, 0
2, 65100, Note_on_c, 0, 71, 69
2, 65124, Note_on_c, 0, 71, 0
2, 65130, Note_on_c, 0, 69, 69
2, 65141, Note_on_c, 0, 78, 0
2, 65155, Note_on_c, 0, 69, 0
2, 65159, Note_on_c, 0, 86, 0
2, 65160, Note_on_c, 0, 83, 74
2, 65160, Note_on_c, 0, 67, 74
2, 65190, Note_on_c, 0, 79, 57
2, 65193, Note_on_c, 0, 83, 0
2, 65220, Note_on_c, 0, 81, 86
2, 65222, Note_on_c, 0, 79, 0
2, 65250, Note_on_c, 0, 83, 90
2, 65253, Note_on_c, 0, 81, 0
2, 65273, Note_on_c, 0, 67, 0
2, 65275, Note_on_c, 0, 83, 0
2, 65280, Note_on_c, 0, 69, 86
2, 65280, Note_on_c, 0, 84, 82
2, 65310, Note_on_c, 0, 81, 82
2, 65314, Note_on_c, 0, 84, 0
2, 65340, Note_on_c, 0, 83, 82
2, 65348, Note_on_c, 0, 81, 0
2, 65370, Note_on_c, 0, 83, 0
2, 65370, Note_on_c, 0, 84, 86
2, 65396, Note_on_c, 0, 84, 0
2, 65400, Note_on_c, 0, 69, 0
2, 65400, Note_on_c, 0, 86, 86
2, 65400, Note_on_c, 0, 71, 90
2, 65430, Note_on_c, 0, 83, 72
2, 65433, Note_on_c, 0, 86, 0
2, 65459, Note_on_c, 0, 83, 0
2, 65460, Note_on_c, 0, 84, 90
2, 65467, Control_c, 0, 64, 127
2, 65483, Note_on_c, 0, 84, 0
2, 65490, Note_on_c, 0, 86, 90
2, 65508, Note_on_c, 0, 86, 0
2, 65512, Note_on_c, 0, 71, 0
2, 65520, Note_on_c, 0, 72, 82
2, 65520, Note_on_c, 0, 88, 103
2, 65524, Control_c, 0, 64, 0
2, 65548, Note_on_c, 0, 88, 0
2, 65550, Note_on_c, 0, 84, 74
2, 65573, Control_c, 0, 64, 127
2, 65580, Note_on_c, 0, 84, 0
2, 65580, Note_on_c, 0, 83, 74
2, 65610, Note_on_c, 0, 81, 67
2, 65612, Note_on_c, 0, 83, 0
2, 65632, Note_on_c, 0, 81, 0
2, 65632, Note_on_c, 0, 72, 0
2, 65638, Control_c, 0, 64, 0
2, 65640, Note_on_c, 0, 79, 90
2, 65640, Note_on_c, 0, 74, 78
2, 65664, Control_c, 0, 64, 127
2, 65703, Note_on_c, 0, 74, 0
2, 65704, Note_on_c, 0, 79, 0
2, 65759, Control_c, 0, 64, 0
2, 65760, Note_on_c, 0, 74, 69
2, 65760, Note_on_c, 0, 72, 67
2, 65760, Note_on_c, 0, 83, 99
2, 65790, Note_on_c, 0, 81, 74
2, 65792, Note_on_c, 0, 83, 0
2, 65792, Control_c, 0, 64, 127
2, 65820, Note_on_c, 0, 79, 74
2, 65821, Note_on_c, 0, 81, 0
2, 65842, Note_on_c, 0, 79, 0
2, 65842, Note_on_c, 0, 74, 0
2, 65847, Note_on_c, 0, 72, 0
2, 65850, Note_on_c, 0, 81, 86
2, 65868, Note_on_c, 0, 81, 0
2, 65880, Note_on_c, 0, 81, 86
2, 65880, Note_on_c, 0, 74, 72
2, 65880, Note_on_c, 0, 71, 70
2, 65883, Control_c, 0, 64, 0
2, 65910, Control_c, 0, 64, 127
2, 65996, Note_on_c, 0, 81, 0
2, 66000, Note_on_c, 0, 79, 74
2, 66004, Control_c, 0, 64, 0
2, 66114, Control_c, 0, 64, 127
2, 66233, Note_on_c, 0, 71, 0
2, 66233, Control_c, 0, 64, 0
2, 66237, Note_on_c, 0, 79, 0
2, 66237, Note_on_c, 0, 74, 0
2, 66960, Note_on_c, 0, 67, 78
2, 66960, Note_on_c, 0, 72, 74
2, 66968, Control_c, 0, 64, 127
2, 67015, Note_on_c, 0, 72, 0
2, 67020, Note_on_c, 0, 76, 70
2, 67047, Note_on_c, 0, 76, 0
2, 67050, Note_on_c, 0, 79, 74
2, 67074, Note_on_c, 0, 79, 0
2, 67080, Note_on_c, 0, 84, 74
2, 67084, Control_c, 0, 64, 0
2, 67104, Control_c, 0, 64, 127
2, 67122, Note_on_c, 0, 84, 0
2, 67140, Note_on_c, 0, 84, 78
2, 67165, Note_on_c, 0, 84, 0
2, 67174, Note_on_c, 0, 67, 0
2, 67200, Note_on_c, 0, 84, 86
2, 67200, Note_on_c, 0, 64, 82
2, 67204, Control_c, 0, 64, 0
2, 67225, Control_c, 0, 64, 127
2, 67247, Note_on_c, 0, 84, 0
2, 67260, Note_on_c, 0, 82, 74
2, 67260, Note_on_c, 0, 79, 86
2, 67275, Note_on_c, 0, 79, 0
2, 67277, Note_on_c, 0, 64, 0
2, 67283, Note_on_c, 0, 82, 0
2, 67320, Note_on_c, 0, 65, 72
2, 67320, Note_on_c, 0, 81, 90
2, 67320, Note_on_c, 0, 77, 86
2, 67331, Control_c, 0, 64, 0
2, 67354, Control_c, 0, 64, 127
2, 67372, Note_on_c, 0, 77, 0
2, 67377, Note_on_c, 0, 81, 0
2, 67380, Note_on_c, 0, 79, 82
2, 67380, Note_on_c, 0, 76, 78
2, 67399, Note_on_c, 0, 79, 0
2, 67402, Note_on_c, 0, 76, 0
2, 67440, Note_on_c, 0, 74, 74
2, 67440, Note_on_c, 0, 77, 74
2, 67449, Control_c, 0, 64, 0
2, 67472, Control_c, 0, 64, 127
2, 67484, Note_on_c, 0, 77, 0
2, 67485, Note_on_c, 0, 74, 0
2, 67500, Note_on_c, 0, 76, 82
2, 67500, Note_on_c, 0, 72, 82
2, 67515, Note_on_c, 0, 65, 0
2, 67523, Note_on_c, 0, 72, 0
2, 67525, Note_on_c, 0, 76, 0
2, 67560, Note_on_c, 0, 66, 74
2, 67560, Note_on_c, 0, 71, 86
2, 67560, Note_on_c, 0, 74, 86
2, 67565, Control_c, 0, 64, 0
2, 67590, Note_on_c, 0, 71, 0
2, 67592, Control_c, 0, 64, 127
2, 67607, Note_on_c, 0, 74, 0
2, 67620, Note_on_c, 0, 76, 90
2, 67620, Note_on_c, 0, 72, 86
2, 67639, Note_on_c, 0, 76, 0
2, 67642, Note_on_c, 0, 72, 0
2, 67645, Note_on_c, 0, 66, 0
2, 67680, Note_on_c, 0, 72, 74
2, 67680, Note_on_c, 0, 76, 86
2, 67680, Note_on_c, 0, 67, 72
2, 67685, Control_c, 0, 64, 0
2, 67708, Control_c, 0, 64, 127
2, 67737, Note_on_c, 0, 67, 0
2, 67737, Note_on_c, 0, 76, 0
2, 67741, Note_on_c, 0, 72, 0
2, 67800, Note_on_c, 0, 71, 72
2, 67800, Note_on_c, 0, 74, 72
2, 67800, Note_on_c, 0, 67, 59
2, 67802, Control_c, 0, 64, 0
2, 67823, Control_c, 0, 64, 127
2, 67887, Note_on_c, 0, 71, 0
2, 67888, Note_on_c, 0, 67, 0
2, 67890, Note_on_c, 0, 74, 0
2, 67924, Control_c, 0, 64, 0
2, 68040, Note_on_c, 0, 79, 90
2, 68040, Note_on_c, 0, 67, 70
2, 68062, Control_c, 0, 64, 127
2, 68097, Note_on_c, 0, 67, 0
2, 68100, Note_on_c, 0, 72, 70
2, 68113, Note_on_c, 0, 79, 0
2, 68155, Note_on_c, 0, 72, 0
2, 68160, Note_on_c, 0, 84, 99
2, 68160, Note_on_c, 0, 67, 66
2, 68177, Control_c, 0, 64, 0
2, 68201, Control_c, 0, 64, 127
2, 68215, Note_on_c, 0, 67, 0
2, 68220, Note_on_c, 0, 72, 67
2, 68238, Note_on_c, 0, 84, 0
2, 68276, Note_on_c, 0, 72, 0
2, 68280, Note_on_c, 0, 84, 95
2, 68280, Note_on_c, 0, 67, 69
2, 68294, Control_c, 0, 64, 0
2, 68318, Control_c, 0, 64, 127
2, 68334, Note_on_c, 0, 67, 0
2, 68340, Note_on_c, 0, 72, 69
2, 68354, Note_on_c, 0, 84, 0
2, 68378, Note_on_c, 0, 72, 0
2, 68400, Note_on_c, 0, 84, 90
2, 68400, Note_on_c, 0, 67, 74
2, 68402, Control_c, 0, 64, 0
2, 68425, Control_c, 0, 64, 127
2, 68453, Note_on_c, 0, 67, 0
2, 68455, Note_on_c, 0, 84, 0
2, 68460, Note_on_c, 0, 71, 72
2, 68460, Note_on_c, 0, 83, 90
2, 68471, Control_c, 0, 64, 0
2, 68490, Control_c, 0, 64, 127
2, 68514, Note_on_c, 0, 83, 0
2, 68514, Note_on_c, 0, 71, 0
2, 68520, Note_on_c, 0, 81, 90
2, 68520, Note_on_c, 0, 67, 65
2, 68523, Control_c, 0, 64, 0
2, 68551, Control_c, 0, 64, 127
2, 68575, Note_on_c, 0, 81, 0
2, 68576, Note_on_c, 0, 67, 0
2, 68580, Note_on_c, 0, 79, 99
2, 68580, Note_on_c, 0, 71, 74
2, 68601, Note_on_c, 0, 71, 0
2, 68606, Note_on_c, 0, 79, 0
2, 68640, Note_on_c, 0, 79, 90
2, 68640, Note_on_c, 0, 67, 72
2, 68641, Control_c, 0, 64, 0
2, 68665, Control_c, 0, 64, 127
2, 68687, Note_on_c, 0, 67, 0
2, 68700, Note_on_c, 0, 71, 86
2, 68716, Note_on_c, 0, 79, 0
2, 68725, Note_on_c, 0, 71, 0
2, 68760, Note_on_c, 0, 79, 86
2, 68760, Note_on_c, 0, 67, 78
2, 68771, Control_c, 0, 64, 0
2, 68794, Control_c, 0, 64, 127
2, 68813, Note_on_c, 0, 67, 0
2, 68820, Note_on_c, 0, 72, 78
2, 68841, Note_on_c, 0, 79, 0
2, 68865, Note_on_c, 0, 72, 0
2, 68880, Note_on_c, 0, 84, 90
2, 68880, Note_on_c, 0, 67, 72
2, 68884, Control_c, 0, 64, 0
2, 68907, Control_c, 0, 64, 127
2, 68934, Note_on_c, 0, 67, 0
2, 68935, Note_on_c, 0, 84, 0
2, 68940, Note_on_c, 0, 88, 82
2, 68940, Note_on_c, 0, 72, 70
2, 68976, Note_on_c, 0, 88, 0
2, 68980, Note_on_c, 0, 72, 0
2, 69000, Note_on_c, 0, 67, 66
2, 69000, Note_on_c, 0, 86, 86
2, 69009, Control_c, 0, 64, 0
2, 69031, Control_c, 0, 64, 127
2, 69054, Note_on_c, 0, 67, 0
2, 69060, Note_on_c, 0, 86, 0
2, 69060, Note_on_c, 0, 72, 60
2, 69060, Note_on_c, 0, 84, 86
2, 69081, Note_on_c, 0, 84, 0
2, 69086, Note_on_c, 0, 72, 0
2, 69120, Note_on_c, 0, 84, 90
2, 69120, Note_on_c, 0, 67, 67
2, 69131, Control_c, 0, 64, 0
2, 69158, Control_c, 0, 64, 127
2, 69175, Note_on_c, 0, 84, 0
2, 69179, Note_on_c, 0, 67, 0
2, 69180, Note_on_c, 0, 83, 74
2, 69180, Note_on_c, 0, 71, 72
2, 69196, Control_c, 0, 64, 0
2, 69215, Control_c, 0, 64, 127
2, 69231, Note_on_c, 0, 71, 0
2, 69236, Note_on_c, 0, 83, 0
2, 69240, Note_on_c, 0, 67, 67
2, 69240, Note_on_c, 0, 81, 74
2, 69248, Control_c, 0, 64, 0
2, 69264, Control_c, 0, 64, 127
2, 69290, Note_on_c, 0, 81, 0
2, 69295, Note_on_c, 0, 67, 0
2, 69300, Note_on_c, 0, 79, 82
2, 69300, Note_on_c, 0, 71, 55
2, 69316, Note_on_c, 0, 71, 0
2, 69320, Note_on_c, 0, 79, 0
2, 69360, Note_on_c, 0, 67, 72
2, 69360, Note_on_c, 0, 79, 82
2, 69367, Control_c, 0, 64, 0
2, 69390, Control_c, 0, 64, 127
2, 69414, Note_on_c, 0, 67, 0
2, 69420, Note_on_c, 0, 71, 74
2, 69433, Note_on_c, 0, 79, 0
2, 69439, Note_on_c, 0, 71, 0
2, 69480, Note_on_c, 0, 79, 90
2, 69484, Control_c, 0, 64, 0
2, 69511, Control_c, 0, 64, 127
2, 69548, Note_on_c, 0, 79, 0
2, 69600, Control_c, 0, 64, 0
2, 69600, Note_on_c, 0, 84, 86
2, 69600, Note_on_c, 0, 72, 66
2, 69600, Note_on_c, 0, 64, 74
2, 69621, Control_c, 0, 64, 127
2, 69651, Note_on_c, 0, 64, 0
2, 69656, Note_on_c, 0, 72, 0
2, 69664, Note_on_c, 0, 84, 0
2, 69720, Note_on_c, 0, 83, 90
2, 69720, Note_on_c, 0, 64, 86
2, 69720, Note_on_c, 0, 72, 67
2, 69721, Control_c, 0, 64, 0
2, 69744, Control_c, 0, 64, 127
2, 69790, Note_on_c, 0, 64, 0
2, 69797, Note_on_c, 0, 72, 0
2, 69805, Note_on_c, 0, 83, 0
2, 69839, Control_c, 0, 64, 0
2, 69840, Note_on_c, 0, 83, 90
2, 69865, Control_c, 0, 64, 127
2, 69892, Note_on_c, 0, 83, 0
2, 69900, Note_on_c, 0, 81, 90
2, 69952, Control_c, 0, 64, 0
2, 69960, Note_on_c, 0, 65, 78
2, 69960, Note_on_c, 0, 72, 66
2, 69973, Control_c, 0, 64, 127
2, 70010, Note_on_c, 0, 72, 0
2, 70012, Note_on_c, 0, 65, 0
2, 70015, Note_on_c, 0, 81, 0
2, 70080, Note_on_c, 0, 79, 99
2, 70080, Note_on_c, 0, 64, 72
2, 70080, Control_c, 0, 64, 0
2, 70080, Note_on_c, 0, 72, 62
2, 70102, Control_c, 0, 64, 127
2, 70130, Note_on_c, 0, 79, 0
2, 70139, Note_on_c, 0, 64, 0
2, 70144, Note_on_c, 0, 72, 0
2, 70195, Control_c, 0, 64, 0
2, 70200, Note_on_c, 0, 79, 82
2, 70225, Control_c, 0, 64, 127
2, 70251, Note_on_c, 0, 79, 0
2, 70260, Note_on_c, 0, 77, 86
2, 70304, Control_c, 0, 64, 0
2, 70320, Note_on_c, 0, 62, 86
2, 70320, Note_on_c, 0, 71, 74
2, 70327, Control_c, 0, 64, 127
2, 70350, Note_on_c, 0, 77, 0
2, 70353, Note_on_c, 0, 62, 0
2, 70359, Note_on_c, 0, 71, 0
2, 70440, Note_on_c, 0, 60, 66
2, 70440, Note_on_c, 0, 72, 72
2, 70440, Note_on_c, 0, 76, 95
2, 70441, Control_c, 0, 64, 0
2, 70464, Control_c, 0, 64, 127
2, 70483, Note_on_c, 0, 72, 0
2, 70485, Note_on_c, 0, 76, 0
2, 70487, Note_on_c, 0, 60, 0
2, 70560, Note_on_c, 0, 76, 86
2, 70560, Note_on_c, 0, 65, 72
2, 70562, Control_c, 0, 64, 0
2, 70586, Note_on_c, 0, 76, 0
2, 70587, Control_c, 0, 64, 127
2, 70590, Note_on_c, 0, 74, 72
2, 70618, Note_on_c, 0, 74, 0
2, 70620, Note_on_c, 0, 77, 78
2, 70631, Control_c, 0, 64, 0
2, 70650, Note_on_c, 0, 74, 78
2, 70651, Note_on_c, 0, 77, 0
2, 70652, Control_c, 0, 64, 127
2, 70668, Note_on_c, 0, 65, 0
2, 70673, Note_on_c, 0, 74, 0
2, 70679, Control_c, 0, 64, 0
2, 70680, Note_on_c, 0, 72, 72
2, 70680, Note_on_c, 0, 67, 74
2, 70702, Control_c, 0, 64, 127
2, 70726, Note_on_c, 0, 67, 0
2, 70735, Note_on_c, 0, 72, 0
2, 70797, Control_c, 0, 64, 0
2, 70800, Note_on_c, 0, 71, 99
2, 70800, Note_on_c, 0, 65, 60
2, 70800, Note_on_c, 0, 67, 70
2, 70819, Control_c, 0, 64, 127
2, 70853, Note_on_c, 0, 67, 0
2, 70853, Note_on_c, 0, 65, 0
2, 70862, Note_on_c, 0, 71, 0
2, 70920, Note_on_c, 0, 71, 86
2, 70920, Note_on_c, 0, 67, 65
2, 70920, Note_on_c, 0, 64, 72
2, 70927, Control_c, 0, 64, 0
2, 70953, Control_c, 0, 64, 127
2, 70980, Note_on_c, 0, 71, 0
2, 70980, Note_on_c, 0, 72, 90
2, 70990, Control_c, 0, 64, 0
2, 71040, Control_c, 0, 64, 127
2, 71270, Note_on_c, 0, 64, 0
2, 71271, Note_on_c, 0, 72, 0
2, 71271, Note_on_c, 0, 67, 0
2, 71278, Control_c, 0, 64, 0
2, 71280, Note_on_c, 0, 69, 72
2, 71280, Note_on_c, 0, 77, 99
2, 71324, Control_c, 0, 64, 127
2, 71340, Note_on_c, 0, 69, 0
2, 71340, Note_on_c, 0, 72, 78
2, 71365, Note_on_c, 0, 77, 0
2, 71386, Note_on_c, 0, 72, 0
2, 71400, Note_on_c, 0, 69, 74
2, 71400, Note_on_c, 0, 77, 99
2, 71457, Note_on_c, 0, 69, 0
2, 71460, Note_on_c, 0, 72, 74
2, 71478, Note_on_c, 0, 77, 0
2, 71503, Note_on_c, 0, 72, 0
2, 71520, Note_on_c, 0, 69, 70
2, 71520, Note_on_c, 0, 77, 95
2, 71574, Note_on_c, 0, 77, 0
2, 71580, Note_on_c, 0, 69, 0
2, 71580, Note_on_c, 0, 72, 74
2, 71621, Note_on_c, 0, 72, 0
2, 71637, Control_c, 0, 64, 0
2, 71640, Note_on_c, 0, 78, 86
2, 71640, Note_on_c, 0, 70, 82
2, 71677, Control_c, 0, 64, 127
2, 71698, Note_on_c, 0, 70, 0
2, 71698, Note_on_c, 0, 78, 0
2, 71700, Note_on_c, 0, 72, 72
2, 71700, Note_on_c, 0, 79, 86
2, 71714, Control_c, 0, 64, 0
2, 71760, Note_on_c, 0, 70, 72
2, 71767, Note_on_c, 0, 72, 0
2, 71780, Control_c, 0, 64, 127
2, 71818, Note_on_c, 0, 70, 0
2, 71820, Note_on_c, 0, 72, 74
2, 71824, Control_c, 0, 64, 0
2, 71862, Control_c, 0, 64, 127
2, 71878, Note_on_c, 0, 72, 0
2, 71880, Note_on_c, 0, 70, 72
2, 71940, Note_on_c, 0, 70, 0
2, 71940, Note_on_c, 0, 72, 69
2, 71942, Note_on_c, 0, 79, 0
2, 71991, Note_on_c, 0, 72, 0
2, 71994, Control_c, 0, 64, 0
2, 72000, Note_on_c, 0, 84, 95
2, 72000, Note_on_c, 0, 67, 72
2, 72040, Control_c, 0, 64, 127
2, 72054, Note_on_c, 0, 84, 0
2, 72059, Note_on_c, 0, 67, 0
2, 72060, Note_on_c, 0, 82, 95
2, 72060, Note_on_c, 0, 72, 72
2, 72115, Note_on_c, 0, 82, 0
2, 72117, Note_on_c, 0, 72, 0
2, 72120, Note_on_c, 0, 67, 90
2, 72120, Note_on_c, 0, 82, 99
2, 72121, Control_c, 0, 64, 0
2, 72157, Control_c, 0, 64, 127
2, 72173, Note_on_c, 0, 67, 0
2, 72179, Note_on_c, 0, 82, 0
2, 72180, Note_on_c, 0, 72, 74
2, 72180, Note_on_c, 0, 81, 90
2, 72231, Control_c, 0, 64, 0
2, 72234, Note_on_c, 0, 81, 0
2, 72237, Note_on_c, 0, 72, 0
2, 72240, Note_on_c, 0, 67, 74
2, 72240, Note_on_c, 0, 82, 90
2, 72269, Control_c, 0, 64, 127
2, 72296, Note_on_c, 0, 82, 0
2, 72297, Note_on_c, 0, 67, 0
2, 72300, Note_on_c, 0, 72, 59
2, 72300, Note_on_c, 0, 84, 99
2, 72335, Note_on_c, 0, 84, 0
2, 72346, Note_on_c, 0, 72, 0
2, 72347, Control_c, 0, 64, 0
2, 72360, Note_on_c, 0, 65, 65
2, 72360, Note_on_c, 0, 82, 82
2, 72378, Control_c, 0, 64, 127
2, 72413, Note_on_c, 0, 82, 0
2, 72416, Note_on_c, 0, 65, 0
2, 72420, Note_on_c, 0, 72, 70
2, 72420, Note_on_c, 0, 81, 86
2, 72423, Control_c, 0, 64, 0
2, 72459, Control_c, 0, 64, 127
2, 72480, Note_on_c, 0, 65, 55
2, 72484, Note_on_c, 0, 72, 0
2, 72487, Note_on_c, 0, 81, 0
2, 72529, Note_on_c, 0, 65, 0
2, 72540, Note_on_c, 0, 69, 66
2, 72544, Control_c, 0, 64, 0
2, 72583, Control_c, 0, 64, 127
2, 72594, Note_on_c, 0, 69, 0
2, 72600, Note_on_c, 0, 65, 66
2, 72658, Note_on_c, 0, 65, 0
2, 72660, Note_on_c, 0, 69, 72
2, 72692, Note_on_c, 0, 69, 0
2, 72720, Note_on_c, 0, 65, 72
2, 72720, Note_on_c, 0, 81, 86
2, 72720, Note_on_c, 0, 72, 67
2, 72720, Control_c, 0, 64, 0
2, 72755, Control_c, 0, 64, 127
2, 72777, Note_on_c, 0, 81, 0
2, 72780, Note_on_c, 0, 82, 78
2, 72836, Note_on_c, 0, 72, 0
2, 72837, Control_c, 0, 64, 0
2, 72838, Note_on_c, 0, 82, 0
2, 72839, Note_on_c, 0, 65, 0
2, 72840, Note_on_c, 0, 84, 90
2, 72876, Control_c, 0, 64, 127
2, 72889, Note_on_c, 0, 84, 0
2, 72900, Note_on_c, 0, 84, 82
2, 72944, Note_on_c, 0, 84, 0
2, 72953, Control_c, 0, 64, 0
2, 72960, Note_on_c, 0, 65, 86
2, 72960, Note_on_c, 0, 72, 78
2, 72960, Note_on_c, 0, 84, 99
2, 72983, Control_c, 0, 64, 127
2, 73000, Note_on_c, 0, 84, 0
2, 73017, Note_on_c, 0, 65, 0
2, 73019, Note_on_c, 0, 72, 0
2, 73020, Note_on_c, 0, 84, 90
2, 73057, Note_on_c, 0, 84, 0
2, 73080, Note_on_c, 0, 79, 90
2, 73080, Note_on_c, 0, 64, 99
2, 73080, Note_on_c, 0, 72, 82
2, 73087, Control_c, 0, 64, 0
2, 73130, Control_c, 0, 64, 127
2, 73140, Note_on_c, 0, 79, 0
2, 73140, Note_on_c, 0, 83, 90
2, 73195, Control_c, 0, 64, 0
2, 73196, Note_on_c, 0, 83, 0
2, 73200, Note_on_c, 0, 84, 99
2, 73210, Note_on_c, 0, 72, 0
2, 73210, Note_on_c, 0, 64, 0
2, 73239, Control_c, 0, 64, 127
2, 73249, Note_on_c, 0, 84, 0
2, 73260, Note_on_c, 0, 84, 90
2, 73306, Note_on_c, 0, 84, 0
2, 73312, Control_c, 0, 64, 0
2, 73320, Note_on_c, 0, 72, 82
2, 73320, Note_on_c, 0, 64, 95
2, 73320, Note_on_c, 0, 84, 103
2, 73342, Control_c, 0, 64, 127
2, 73359, Note_on_c, 0, 84, 0
2, 73364, Note_on_c, 0, 64, 0
2, 73370, Note_on_c, 0, 72, 0
2, 73380, Note_on_c, 0, 84, 82
2, 73405, Note_on_c, 0, 84, 0
2, 73430, Control_c, 0, 64, 0
2, 73440, Note_on_c, 0, 65, 82
2, 73440, Note_on_c, 0, 77, 99
2, 73440, Note_on_c, 0, 86, 108
2, 73461, Control_c, 0, 64, 127
2, 73498, Note_on_c, 0, 86, 0
2, 73498, Note_on_c, 0, 65, 0
2, 73505, Note_on_c, 0, 77, 0
2, 73560, Control_c, 0, 64, 0
2, 73560, Note_on_c, 0, 67, 86
2, 73560, Note_on_c, 0, 76, 95
2, 73560, Note_on_c, 0, 84, 103
2, 73591, Control_c, 0, 64, 127
2, 73603, Note_on_c, 0, 76, 0
2, 73603, Note_on_c, 0, 67, 0
2, 73610, Note_on_c, 0, 84, 0
2, 73673, Control_c, 0, 64, 0
2, 73680, Note_on_c, 0, 65, 90
2, 73680, Note_on_c, 0, 83, 95
2, 73680, Note_on_c, 0, 74, 86
2, 73680, Note_on_c, 0, 67, 86
2, 73706, Control_c, 0, 64, 127
2, 73716, Note_on_c, 0, 67, 0
2, 73717, Note_on_c, 0, 65, 0
2, 73724, Note_on_c, 0, 74, 0
2, 73732, Note_on_c, 0, 83, 0
2, 73799, Control_c, 0, 64, 0
2, 73800, Note_on_c, 0, 76, 103
2, 73800, Note_on_c, 0, 84, 99
2, 73800, Note_on_c, 0, 64, 90
2, 73800, Note_on_c, 0, 67, 95
2, 73800, Note_on_c, 0, 72, 78
2, 73848, Control_c, 0, 64, 127
2, 74148, Control_c, 0, 64, 0
2, 74153, Note_on_c, 0, 72, 0
2, 74156, Note_on_c, 0, 67, 0
2, 74158, Note_on_c, 0, 84, 0
2, 74159, Note_on_c, 0, 76, 0
2, 74160, Note_on_c, 0, 64, 0
2, 77040, Note_on_c, 0, 77, 95
2, 77040, Note_on_c, 0, 69, 82
2, 77100, Note_on_c, 0, 72, 78
2, 77102, Note_on_c, 0, 69, 0
2, 77121, Note_on_c, 0, 77, 0
2, 77144, Note_on_c, 0, 72, 0
2, 77160, Note_on_c, 0, 69, 74
2, 77160, Note_on_c, 0, 77, 103
2, 77218, Note_on_c, 0, 69, 0
2, 77220, Note_on_c, 0, 72, 78
2, 77236, Note_on_c, 0, 77, 0
2, 77266, Note_on_c, 0, 72, 0
2, 77280, Note_on_c, 0, 69, 78
2, 77280, Note_on_c, 0, 77, 103
2, 77340, Note_on_c, 0, 72, 78
2, 77342, Note_on_c, 0, 69, 0
2, 77344, Note_on_c, 0, 77, 0
2, 77389, Note_on_c, 0, 72, 0
2, 77400, Note_on_c, 0, 78, 99
2, 77400, Note_on_c, 0, 70, 72
2, 77420, Control_c, 0, 64, 127
2, 77456, Note_on_c, 0, 78, 0
2, 77460, Note_on_c, 0, 70, 0
2, 77460, Note_on_c, 0, 72, 78
2, 77460, Note_on_c, 0, 79, 99
2, 77471, Control_c, 0, 64, 0
2, 77500, Control_c, 0, 64, 127
2, 77518, Note_on_c, 0, 72, 0
2, 77520, Note_on_c, 0, 70, 70
2, 77533, Control_c, 0, 64, 0
2, 77559, Control_c, 0, 64, 127
2, 77580, Note_on_c, 0, 72, 86
2, 77582, Note_on_c, 0, 70, 0
2, 77586, Control_c, 0, 64, 0
2, 77617, Control_c, 0, 64, 127
2, 77640, Note_on_c, 0, 70, 86
2, 77643, Note_on_c, 0, 72, 0
2, 77643, Note_on_c, 0, 79, 0
2, 77679, Note_on_c, 0, 70, 0
2, 77700, Note_on_c, 0, 72, 90
2, 77750, Note_on_c, 0, 72, 0
2, 77752, Control_c, 0, 64, 0
2, 77760, Note_on_c, 0, 67, 82
2, 77760, Note_on_c, 0, 84, 99
2, 77804, Control_c, 0, 64, 127
2, 77815, Note_on_c, 0, 67, 0
2, 77817, Note_on_c, 0, 84, 0
2, 77820, Note_on_c, 0, 72, 72
2, 77820, Note_on_c, 0, 82, 95
2, 77848, Note_on_c, 0, 82, 0
2, 77864, Note_on_c, 0, 72, 0
2, 77880, Control_c, 0, 64, 0
2, 77880, Note_on_c, 0, 67, 78
2, 77880, Note_on_c, 0, 82, 86
2, 77917, Control_c, 0, 64, 127
2, 77933, Note_on_c, 0, 67, 0
2, 77934, Note_on_c, 0, 82, 0
2, 77940, Note_on_c, 0, 72, 72
2, 77940, Note_on_c, 0, 81, 103
2, 77986, Note_on_c, 0, 81, 0
2, 77990, Note_on_c, 0, 72, 0
2, 77997, Control_c, 0, 64, 0
2, 78000, Note_on_c, 0, 82, 86
2, 78000, Note_on_c, 0, 67, 82
2, 78030, Control_c, 0, 64, 127
2, 78051, Note_on_c, 0, 82, 0
2, 78053, Note_on_c, 0, 67, 0
2, 78060, Note_on_c, 0, 72, 78
2, 78060, Note_on_c, 0, 84, 103
2, 78085, Note_on_c, 0, 72, 0
2, 78089, Note_on_c, 0, 84, 0
2, 78118, Control_c, 0, 64, 0
2, 78120, Note_on_c, 0, 80, 99
2, 78120, Note_on_c, 0, 65, 86
2, 78154, Control_c, 0, 64, 127
2, 78164, Note_on_c, 0, 65, 0
2, 78171, Note_on_c, 0, 80, 0
2, 78180, Note_on_c, 0, 72, 72
2, 78180, Control_c, 0, 64, 0
2, 78180, Note_on_c, 0, 81, 95
2, 78204, Control_c, 0, 64, 127
2, 78233, Note_on_c, 0, 72, 0
2, 78234, Control_c, 0, 64, 0
2, 78240, Note_on_c, 0, 65, 74
2, 78265, Note_on_c, 0, 81, 0
2, 78271, Control_c, 0, 64, 127
2, 78280, Control_c, 0, 64, 0
2, 78300, Note_on_c, 0, 72, 72
2, 78304, Note_on_c, 0, 65, 0
2, 78325, Control_c, 0, 64, 127
2, 78348, Note_on_c, 0, 72, 0
2, 78360, Note_on_c, 0, 65, 82
2, 78416, Note_on_c, 0, 65, 0
2, 78420, Note_on_c, 0, 72, 82
2, 78444, Note_on_c, 0, 72, 0
2, 78479, Control_c, 0, 64, 0
2, 78481, Note_on_c, 0, 70, 86
2, 78482, Note_on_c, 0, 65, 90
2, 78482, Note_on_c, 0, 74, 86
2, 78519, Note_on_c, 0, 76, 99
2, 78525, Note_on_c, 0, 74, 0
2, 78533, Control_c, 0, 64, 127
2, 78538, Control_c, 0, 64, 0
2, 78544, Control_c, 0, 64, 127
2, 78553, Note_on_c, 0, 76, 0
2, 78555, Note_on_c, 0, 77, 99
2, 78590, Note_on_c, 0, 77, 0
2, 78603, Note_on_c, 0, 77, 103
2, 78608, Note_on_c, 0, 65, 0
2, 78608, Note_on_c, 0, 70, 0
2, 78612, Control_c, 0, 64, 0
2, 78652, Note_on_c, 0, 77, 0
2, 78657, Control_c, 0, 64, 127
2, 78664, Note_on_c, 0, 77, 95
2, 78701, Note_on_c, 0, 77, 0
2, 78705, Control_c, 0, 64, 0
2, 78720, Note_on_c, 0, 77, 103
2, 78722, Note_on_c, 0, 65, 86
2, 78722, Note_on_c, 0, 70, 86
2, 78738, Control_c, 0, 64, 127
2, 78759, Note_on_c, 0, 77, 0
2, 78771, Note_on_c, 0, 65, 0
2, 78778, Note_on_c, 0, 70, 0
2, 78786, Note_on_c, 0, 77, 99
2, 78812, Note_on_c, 0, 77, 0
2, 78844, Note_on_c, 0, 65, 86
2, 78844, Note_on_c, 0, 72, 95
2, 78845, Note_on_c, 0, 69, 90
2, 78846, Control_c, 0, 64, 0
2, 78882, Note_on_c, 0, 76, 95
2, 78883, Note_on_c, 0, 72, 0
2, 78887, Control_c, 0, 64, 127
2, 78913, Note_on_c, 0, 76, 0
2, 78919, Note_on_c, 0, 69, 0
2, 78921, Note_on_c, 0, 65, 0
2, 78921, Note_on_c, 0, 77, 103
2, 78948, Note_on_c, 0, 77, 0
2, 78949, Control_c, 0, 64, 0
2, 78965, Note_on_c, 0, 77, 103
2, 78992, Control_c, 0, 64, 127
2, 79008, Note_on_c, 0, 77, 0
2, 79025, Note_on_c, 0, 77, 99
2, 79055, Note_on_c, 0, 77, 0
2, 79069, Control_c, 0, 64, 0
2, 79080, Note_on_c, 0, 77, 112
2, 79083, Note_on_c, 0, 69, 90
2, 79083, Note_on_c, 0, 65, 86
2, 79100, Control_c, 0, 64, 127
2, 79109, Note_on_c, 0, 77, 0
2, 79127, Note_on_c, 0, 65, 0
2, 79127, Note_on_c, 0, 69, 0
2, 79145, Note_on_c, 0, 77, 108
2, 79164, Note_on_c, 0, 77, 0
2, 79201, Note_on_c, 0, 67, 72
2, 79203, Note_on_c, 0, 72, 66
2, 79206, Note_on_c, 0, 79, 108
2, 79206, Note_on_c, 0, 76, 86
2, 79208, Control_c, 0, 64, 0
2, 79241, Note_on_c, 0, 79, 0
2, 79243, Note_on_c, 0, 81, 99
2, 79258, Control_c, 0, 64, 127
2, 79273, Note_on_c, 0, 81, 0
2, 79280, Note_on_c, 0, 82, 117
2, 79304, Note_on_c, 0, 76, 0
2, 79308, Note_on_c, 0, 72, 0
2, 79309, Note_on_c, 0, 67, 0
2, 79309, Note_on_c, 0, 82, 0
2, 79314, Control_c, 0, 64, 0
2, 79326, Note_on_c, 0, 82, 117
2, 79365, Note_on_c, 0, 82, 0
2, 79384, Note_on_c, 0, 82, 112
2, 79416, Note_on_c, 0, 82, 0
2, 79440, Note_on_c, 0, 82, 123
2, 79442, Note_on_c, 0, 67, 95
2, 79444, Note_on_c, 0, 72, 86
2, 79445, Note_on_c, 0, 76, 86
2, 79446, Control_c, 0, 64, 127
2, 79477, Note_on_c, 0, 82, 0
2, 79495, Note_on_c, 0, 67, 0
2, 79495, Note_on_c, 0, 72, 0
2, 79495, Note_on_c, 0, 76, 0
2, 79504, Note_on_c, 0, 82, 117
2, 79529, Note_on_c, 0, 82, 0
2, 79540, Control_c, 0, 64, 0
2, 79560, Note_on_c, 0, 67, 95
2, 79560, Note_on_c, 0, 72, 86
2, 79560, Note_on_c, 0, 76, 86
2, 79566, Note_on_c, 0, 82, 127
2, 79574, Control_c, 0, 64, 127
2, 79680, Note_on_c, 0, 76, 0
2, 79683, Note_on_c, 0, 72, 0
2, 79684, Note_on_c, 0, 82, 0
2, 79686, Note_on_c, 0, 67, 0
2, 79686, Control_c, 0, 64, 0
2, 79920, Note_on_c, 0, 79, 90
2, 79957, Control_c, 0, 64, 127
2, 80040, Note_on_c, 0, 70, 74
2, 80040, Note_on_c, 0, 72, 86
2, 80053, Note_on_c, 0, 79, 0
2, 80077, Note_on_c, 0, 70, 0
2, 80085, Note_on_c, 0, 72, 0
2, 80100, Note_on_c, 0, 82, 86
2, 80149, Control_c, 0, 64, 0
2, 80156, Note_on_c, 0, 82, 0
2, 80160, Note_on_c, 0, 72, 74
2, 80160, Note_on_c, 0, 76, 90
2, 80160, Note_on_c, 0, 70, 72
2, 80184, Control_c, 0, 64, 127
2, 80210, Note_on_c, 0, 72, 0
2, 80218, Note_on_c, 0, 76, 0
2, 80219, Note_on_c, 0, 70, 0
2, 80220, Note_on_c, 0, 79, 86
2, 80250, Note_on_c, 0, 79, 0
2, 80273, Control_c, 0, 64, 0
2, 80280, Note_on_c, 0, 72, 60
2, 80280, Note_on_c, 0, 77, 95
2, 80280, Note_on_c, 0, 69, 78
2, 80305, Control_c, 0, 64, 127
2, 80333, Note_on_c, 0, 69, 0
2, 80334, Note_on_c, 0, 72, 0
2, 80342, Note_on_c, 0, 77, 0
2, 80400, Note_on_c, 0, 77, 86
2, 80400, Note_on_c, 0, 69, 67
2, 80400, Note_on_c, 0, 72, 72
2, 80439, Note_on_c, 0, 72, 0
2, 80439, Note_on_c, 0, 69, 0
2, 80452, Note_on_c, 0, 77, 0
2, 80520, Note_on_c, 0, 77, 90
2, 80520, Note_on_c, 0, 69, 70
2, 80520, Note_on_c, 0, 72, 86
2, 80562, Note_on_c, 0, 77, 0
2, 80565, Note_on_c, 0, 72, 0
2, 80567, Note_on_c, 0, 69, 0
2, 80640, Note_on_c, 0, 79, 103
2, 80645, Control_c, 0, 64, 0
2, 80705, Control_c, 0, 64, 127
2, 80760, Note_on_c, 0, 72, 74
2, 80760, Note_on_c, 0, 70, 86
2, 80809, Note_on_c, 0, 79, 0
2, 80815, Note_on_c, 0, 72, 0
2, 80818, Note_on_c, 0, 70, 0
2, 80820, Note_on_c, 0, 82, 99
2, 80864, Note_on_c, 0, 82, 0
2, 80877, Control_c, 0, 64, 0
2, 80880, Note_on_c, 0, 76, 103
2, 80880, Note_on_c, 0, 70, 78
2, 80880, Note_on_c, 0, 72, 82
2, 80910, Control_c, 0, 64, 127
2, 80933, Note_on_c, 0, 72, 0
2, 80933, Note_on_c, 0, 76, 0
2, 80934, Note_on_c, 0, 70, 0
2, 80940, Note_on_c, 0, 79, 95
2, 80966, Note_on_c, 0, 79, 0
2, 80996, Control_c, 0, 64, 0
2, 81000, Note_on_c, 0, 77, 99
2, 81000, Note_on_c, 0, 72, 78
2, 81000, Note_on_c, 0, 69, 82
2, 81025, Control_c, 0, 64, 127
2, 81084, Note_on_c, 0, 69, 0
2, 81085, Note_on_c, 0, 77, 0
2, 81086, Note_on_c, 0, 72, 0
2, 81099, Control_c, 0, 64, 0
2, 81240, Note_on_c, 0, 79, 99
2, 81240, Note_on_c, 0, 70, 82
2, 81240, Note_on_c, 0, 72, 86
2, 81254, Control_c, 0, 64, 127
2, 81282, Note_on_c, 0, 72, 0
2, 81283, Note_on_c, 0, 70, 0
2, 81286, Note_on_c, 0, 79, 0
2, 81341, Control_c, 0, 64, 0
2, 81360, Note_on_c, 0, 77, 99
2, 81360, Note_on_c, 0, 69, 74
2, 81360, Note_on_c, 0, 72, 82
2, 81402, Control_c, 0, 64, 127
2, 81634, Control_c, 0, 64, 0
2, 81643, Note_on_c, 0, 77, 0
2, 81648, Note_on_c, 0, 69, 0
2, 81651, Note_on_c, 0, 72, 0
2, 81720, Note_on_c, 0, 79, 99
2, 81760, Control_c, 0, 64, 127
2, 81840, Note_on_c, 0, 64, 90
2, 81840, Note_on_c, 0, 72, 70
2, 81884, Note_on_c, 0, 64, 0
2, 81891, Note_on_c, 0, 72, 0
2, 81896, Note_on_c, 0, 79, 0
2, 81960, Note_on_c, 0, 80, 103
2, 81960, Note_on_c, 0, 64, 90
2, 81960, Note_on_c, 0, 72, 72
2, 81970, Control_c, 0, 64, 0
2, 81993, Control_c, 0, 64, 127
2, 82028, Note_on_c, 0, 72, 0
2, 82028, Note_on_c, 0, 64, 0
2, 82031, Note_on_c, 0, 80, 0
2, 82078, Control_c, 0, 64, 0
2, 82080, Note_on_c, 0, 80, 103
2, 82117, Control_c, 0, 64, 127
2, 82135, Note_on_c, 0, 80, 0
2, 82140, Note_on_c, 0, 81, 95
2, 82182, Control_c, 0, 64, 0
2, 82200, Note_on_c, 0, 65, 90
2, 82200, Note_on_c, 0, 72, 82
2, 82224, Control_c, 0, 64, 127
2, 82251, Note_on_c, 0, 72, 0
2, 82252, Note_on_c, 0, 65, 0
2, 82258, Note_on_c, 0, 81, 0
2, 82315, Control_c, 0, 64, 0
2, 82320, Note_on_c, 0, 79, 108
2, 82320, Note_on_c, 0, 64, 99
2, 82320, Note_on_c, 0, 72, 82
2, 82344, Control_c, 0, 64, 127
2, 82387, Note_on_c, 0, 64, 0
2, 82390, Note_on_c, 0, 72, 0
2, 82394, Note_on_c, 0, 79, 0
2, 82429, Control_c, 0, 64, 0
2, 82440, Note_on_c, 0, 79, 103
2, 82494, Note_on_c, 0, 79, 0
2, 82500, Note_on_c, 0, 77, 90
2, 82560, Note_on_c, 0, 62, 99
2, 82560, Note_on_c, 0, 71, 90
2, 82564, Control_c, 0, 64, 127
2, 82600, Note_on_c, 0, 71, 0
2, 82604, Note_on_c, 0, 62, 0
2, 82615, Note_on_c, 0, 77, 0
2, 82667, Control_c, 0, 64, 0
2, 82680, Note_on_c, 0, 64, 90
2, 82680, Note_on_c, 0, 72, 90
2, 82680, Note_on_c, 0, 76, 108
2, 82695, Control_c, 0, 64, 127
2, 82710, Note_on_c, 0, 64, 0
2, 82714, Note_on_c, 0, 72, 0
2, 82730, Note_on_c, 0, 76, 0
2, 82793, Control_c, 0, 64, 0
2, 82800, Note_on_c, 0, 67, 90
2, 82800, Note_on_c, 0, 76, 99
2, 82800, Note_on_c, 0, 72, 108
2, 82823, Control_c, 0, 64, 127
2, 82860, Note_on_c, 0, 67, 0
2, 82860, Note_on_c, 0, 55, 95
2, 82862, Note_on_c, 0, 72, 0
2, 82873, Note_on_c, 0, 76, 0
2, 82916, Note_on_c, 0, 55, 0
2, 82920, Note_on_c, 0, 74, 99
2, 82920, Note_on_c, 0, 67, 90
2, 82920, Note_on_c, 0, 71, 103
2, 82925, Control_c, 0, 64, 0
2, 82955, Control_c, 0, 64, 127
2, 82980, Note_on_c, 0, 65, 86
2, 82983, Note_on_c, 0, 67, 0
2, 83004, Note_on_c, 0, 71, 0
2, 83005, Note_on_c, 0, 74, 0
2, 83036, Note_on_c, 0, 65, 0
2, 83040, Note_on_c, 0, 64, 99
2, 83048, Control_c, 0, 64, 0
2, 83082, Control_c, 0, 64, 127
2, 83094, Note_on_c, 0, 64, 0
2, 83100, Note_on_c, 0, 62, 99
2, 83150, Control_c, 0, 64, 0
2, 83153, Note_on_c, 0, 62, 0
2, 83160, Note_on_c, 0, 60, 90
2, 83160, Note_on_c, 0, 72, 99
2, 83182, Control_c, 0, 64, 127
2, 83215, Note_on_c, 0, 72, 0
2, 83227, Note_on_c, 0, 60, 0
2, 83280, Note_on_c, 0, 76, 103
2, 83280, Note_on_c, 0, 72, 99
2, 83281, Control_c, 0, 64, 0
2, 83307, Control_c, 0, 64, 127
2, 83350, Note_on_c, 0, 72, 0
2, 83356, Note_on_c, 0, 76, 0
2, 83400, Note_on_c, 0, 76, 108
2, 83400, Note_on_c, 0, 72, 95
2, 83430, Note_on_c, 0, 76, 0
2, 83441, Note_on_c, 0, 72, 0
2, 83520, Control_c, 0, 64, 0
2, 83520, Note_on_c, 0, 71, 90
2, 83520, Note_on_c, 0, 74, 103
2, 83553, Control_c, 0, 64, 127
2, 83577, Note_on_c, 0, 74, 0
2, 83580, Note_on_c, 0, 76, 99
2, 83608, Note_on_c, 0, 76, 0
2, 83610, Note_on_c, 0, 78, 74
2, 83631, Note_on_c, 0, 78, 0
2, 83640, Note_on_c, 0, 79, 103
2, 83646, Control_c, 0, 64, 0
2, 83668, Note_on_c, 0, 79, 0
2, 83670, Note_on_c, 0, 81, 86
2, 83686, Control_c, 0, 64, 127
2, 83695, Note_on_c, 0, 81, 0
2, 83700, Note_on_c, 0, 83, 95
2, 83722, Note_on_c, 0, 83, 0
2, 83730, Note_on_c, 0, 84, 86
2, 83753, Note_on_c, 0, 84, 0
2, 83760, Note_on_c, 0, 86, 108
2, 83761, Note_on_c, 0, 71, 0
2, 83761, Control_c, 0, 64, 0
2, 83804, Control_c, 0, 64, 127
2, 83807, Note_on_c, 0, 86, 0
2, 83820, Note_on_c, 0, 86, 99
2, 83862, Note_on_c, 0, 86, 0
2, 83880, Note_on_c, 0, 69, 95
2, 83880, Note_on_c, 0, 84, 103
2, 83901, Control_c, 0, 64, 127
2, 83905, Note_on_c, 0, 84, 0
2, 83910, Note_on_c, 0, 86, 99
2, 83930, Note_on_c, 0, 86, 0
2, 83940, Note_on_c, 0, 88, 99
2, 83960, Note_on_c, 0, 88, 0
2, 83970, Note_on_c, 0, 86, 99
2, 83989, Note_on_c, 0, 86, 0
2, 83996, Control_c, 0, 64, 0
2, 84000, Note_on_c, 0, 84, 103
2, 84030, Note_on_c, 0, 83, 99
2, 84030, Control_c, 0, 64, 127
2, 84032, Note_on_c, 0, 84, 0
2, 84060, Note_on_c, 0, 81, 99
2, 84063, Note_on_c, 0, 83, 0
2, 84081, Note_on_c, 0, 81, 0
2, 84090, Note_on_c, 0, 79, 90
2, 84092, Note_on_c, 0, 69, 0
2, 84111, Note_on_c, 0, 79, 0
2, 84114, Control_c, 0, 64, 0
2, 84120, Note_on_c, 0, 81, 86
2, 84150, Note_on_c, 0, 79, 86
2, 84156, Note_on_c, 0, 81, 0
2, 84180, Note_on_c, 0, 78, 72
2, 84181, Note_on_c, 0, 79, 0
2, 84193, Control_c, 0, 64, 127
2, 84207, Note_on_c, 0, 78, 0
2, 84210, Note_on_c, 0, 76, 86
2, 84232, Note_on_c, 0, 76, 0
2, 84235, Control_c, 0, 64, 0
2, 84240, Note_on_c, 0, 66, 90
2, 84240, Note_on_c, 0, 78, 90
2, 84240, Note_on_c, 0, 86, 108
2, 84270, Note_on_c, 0, 62, 82
2, 84271, Note_on_c, 0, 66, 0
2, 84300, Note_on_c, 0, 64, 95
2, 84306, Note_on_c, 0, 62, 0
2, 84330, Note_on_c, 0, 66, 74
2, 84333, Note_on_c, 0, 64, 0
2, 84360, Note_on_c, 0, 67, 99
2, 84363, Note_on_c, 0, 66, 0
2, 84390, Note_on_c, 0, 69, 63
2, 84394, Note_on_c, 0, 67, 0
2, 84420, Note_on_c, 0, 71, 82
2, 84423, Note_on_c, 0, 69, 0
2, 84450, Note_on_c, 0, 72, 78
2, 84451, Note_on_c, 0, 71, 0
2, 84480, Note_on_c, 0, 74, 82
2, 84481, Note_on_c, 0, 72, 0
2, 84510, Note_on_c, 0, 74, 0
2, 84510, Note_on_c, 0, 72, 90
2, 84540, Note_on_c, 0, 71, 95
2, 84545, Note_on_c, 0, 72, 0
2, 84566, Note_on_c, 0, 71, 0
2, 84570, Note_on_c, 0, 69, 70
2, 84590, Note_on_c, 0, 78, 0
2, 84593, Note_on_c, 0, 69, 0
2, 84594, Note_on_c, 0, 86, 0
2, 84600, Note_on_c, 0, 67, 86
2, 84600, Note_on_c, 0, 83, 90
2, 84628, Note_on_c, 0, 83, 0
2, 84630, Note_on_c, 0, 79, 78
2, 84660, Note_on_c, 0, 79, 0
2, 84660, Note_on_c, 0, 81, 95
2, 84686, Note_on_c, 0, 81, 0
2, 84690, Note_on_c, 0, 83, 90
2, 84716, Note_on_c, 0, 83, 0
2, 84718, Note_on_c, 0, 67, 0
2, 84720, Note_on_c, 0, 84, 86
2, 84720, Note_on_c, 0, 69, 86
2, 84750, Note_on_c, 0, 81, 95
2, 84752, Note_on_c, 0, 84, 0
2, 84775, Note_on_c, 0, 81, 0
2, 84780, Note_on_c, 0, 83, 103
2, 84800, Note_on_c, 0, 83, 0
2, 84810, Note_on_c, 0, 84, 99
2, 84832, Note_on_c, 0, 69, 0
2, 84833, Note_on_c, 0, 84, 0
2, 84840, Note_on_c, 0, 86, 99
2, 84840, Note_on_c, 0, 71, 103
2, 84867, Note_on_c, 0, 86, 0
2, 84870, Note_on_c, 0, 83, 108
2, 84891, Note_on_c, 0, 83, 0
2, 84900, Note_on_c, 0, 84, 90
2, 84921, Note_on_c, 0, 84, 0
2, 84930, Note_on_c, 0, 86, 103
2, 84952, Note_on_c, 0, 86, 0
2, 84960, Note_on_c, 0, 88, 99
2, 84960, Note_on_c, 0, 72, 99
2, 84962, Note_on_c, 0, 71, 0
2, 84990, Note_on_c, 0, 84, 99
2, 84996, Note_on_c, 0, 88, 0
2, 85020, Note_on_c, 0, 83, 86
2, 85026, Note_on_c, 0, 84, 0
2, 85044, Note_on_c, 0, 83, 0
2, 85048, Control_c, 0, 64, 127
2, 85050, Note_on_c, 0, 81, 108
2, 85074, Note_on_c, 0, 81, 0
2, 85079, Note_on_c, 0, 72, 0
2, 85080, Note_on_c, 0, 79, 90
2, 85080, Note_on_c, 0, 74, 99
2, 85083, Control_c, 0, 64, 0
2, 85113, Control_c, 0, 64, 127
2, 85159, Note_on_c, 0, 74, 0
2, 85179, Note_on_c, 0, 79, 0
2, 85200, Note_on_c, 0, 74, 86
2, 85200, Note_on_c, 0, 72, 74
2, 85200, Note_on_c, 0, 83, 108
2, 85210, Control_c, 0, 64, 0
2, 85230, Note_on_c, 0, 81, 86
2, 85231, Note_on_c, 0, 83, 0
2, 85249, Control_c, 0, 64, 127
2, 85260, Note_on_c, 0, 79, 95
2, 85261, Note_on_c, 0, 81, 0
2, 85283, Note_on_c, 0, 79, 0
2, 85290, Note_on_c, 0, 81, 103
2, 85292, Note_on_c, 0, 74, 0
2, 85295, Note_on_c, 0, 72, 0
2, 85308, Note_on_c, 0, 81, 0
2, 85320, Note_on_c, 0, 81, 99
2, 85320, Note_on_c, 0, 71, 74
2, 85320, Note_on_c, 0, 74, 72
2, 85328, Control_c, 0, 64, 0
2, 85380, Note_on_c, 0, 79, 90
2, 85384, Note_on_c, 0, 81, 0
2, 85449, Control_c, 0, 64, 127
2, 85684, Note_on_c, 0, 79, 0
2, 85685, Note_on_c, 0, 74, 0
2, 85687, Note_on_c, 0, 71, 0
2, 86400, Note_on_c, 0, 72, 99
2, 86400, Note_on_c, 0, 67, 103
2, 86417, Control_c, 0, 64, 127
2, 86458, Note_on_c, 0, 72, 0
2, 86460, Note_on_c, 0, 76, 99
2, 86483, Note_on_c, 0, 76, 0
2, 86490, Note_on_c, 0, 79, 95
2, 86508, Note_on_c, 0, 79, 0
2, 86520, Note_on_c, 0, 84, 99
2, 86540, Note_on_c, 0, 84, 0
2, 86580, Note_on_c, 0, 84, 99
2, 86600, Note_on_c, 0, 84, 0
2, 86621, Note_on_c, 0, 67, 0
2, 86637, Control_c, 0, 64, 0
2, 86640, Note_on_c, 0, 84, 99
2, 86640, Note_on_c, 0, 64, 86
2, 86664, Control_c, 0, 64, 127
2, 86687, Note_on_c, 0, 84, 0
2, 86700, Note_on_c, 0, 82, 90
2, 86700, Note_on_c, 0, 79, 103
2, 86717, Note_on_c, 0, 79, 0
2, 86727, Note_on_c, 0, 82, 0
2, 86736, Note_on_c, 0, 64, 0
2, 86760, Note_on_c, 0, 65, 82
2, 86760, Note_on_c, 0, 81, 99
2, 86760, Note_on_c, 0, 77, 99
2, 86761, Control_c, 0, 64, 0
2, 86796, Control_c, 0, 64, 127
2, 86810, Note_on_c, 0, 77, 0
2, 86818, Note_on_c, 0, 81, 0
2, 86820, Note_on_c, 0, 79, 99
2, 86820, Note_on_c, 0, 76, 99
2, 86838, Note_on_c, 0, 79, 0
2, 86842, Note_on_c, 0, 76, 0
2, 86880, Note_on_c, 0, 77, 90
2, 86880, Note_on_c, 0, 74, 99
2, 86882, Control_c, 0, 64, 0
2, 86911, Control_c, 0, 64, 127
2, 86922, Note_on_c, 0, 74, 0
2, 86929, Note_on_c, 0, 77, 0
2, 86940, Note_on_c, 0, 76, 99
2, 86940, Note_on_c, 0, 72, 103
2, 86952, Note_on_c, 0, 65, 0
2, 86964, Note_on_c, 0, 72, 0
2, 86971, Note_on_c, 0, 76, 0
2, 87000, Control_c, 0, 64, 0
2, 87000, Note_on_c, 0, 66, 86
2, 87000, Note_on_c, 0, 74, 99
2, 87000, Note_on_c, 0, 71, 99
2, 87034, Note_on_c, 0, 71, 0
2, 87034, Control_c, 0, 64, 127
2, 87049, Note_on_c, 0, 74, 0
2, 87060, Note_on_c, 0, 76, 103
2, 87060, Note_on_c, 0, 72, 95
2, 87077, Note_on_c, 0, 66, 0
2, 87080, Note_on_c, 0, 76, 0
2, 87083, Note_on_c, 0, 72, 0
2, 87120, Note_on_c, 0, 72, 103
2, 87120, Note_on_c, 0, 76, 99
2, 87120, Note_on_c, 0, 67, 99
2, 87123, Control_c, 0, 64, 0
2, 87152, Control_c, 0, 64, 127
2, 87182, Note_on_c, 0, 67, 0
2, 87187, Note_on_c, 0, 76, 0
2, 87189, Note_on_c, 0, 72, 0
2, 87240, Note_on_c, 0, 67, 86
2, 87240, Note_on_c, 0, 71, 95
2, 87240, Note_on_c, 0, 74, 99
2, 87248, Control_c, 0, 64, 0
2, 87272, Control_c, 0, 64, 127
2, 87307, Note_on_c, 0, 71, 0
2, 87307, Note_on_c, 0, 67, 0
2, 87312, Note_on_c, 0, 74, 0
2, 87374, Control_c, 0, 64, 0
2, 87480, Note_on_c, 0, 67, 74
2, 87480, Note_on_c, 0, 79, 108
2, 87506, Control_c, 0, 64, 127
2, 87537, Note_on_c, 0, 67, 0
2, 87540, Note_on_c, 0, 72, 90
2, 87566, Note_on_c, 0, 79, 0
2, 87590, Note_on_c, 0, 72, 0
2, 87600, Note_on_c, 0, 84, 108
2, 87600, Note_on_c, 0, 67, 74
2, 87654, Note_on_c, 0, 67, 0
2, 87660, Note_on_c, 0, 72, 78
2, 87684, Note_on_c, 0, 84, 0
2, 87707, Note_on_c, 0, 72, 0
2, 87720, Note_on_c, 0, 67, 86
2, 87720, Note_on_c, 0, 84, 112
2, 87769, Note_on_c, 0, 67, 0
2, 87780, Note_on_c, 0, 72, 70
2, 87798, Note_on_c, 0, 84, 0
2, 87810, Note_on_c, 0, 72, 0
2, 87840, Note_on_c, 0, 67, 74
2, 87840, Note_on_c, 0, 84, 103
2, 87843, Control_c, 0, 64, 0
2, 87873, Control_c, 0, 64, 127
2, 87892, Note_on_c, 0, 84, 0
2, 87892, Note_on_c, 0, 67, 0
2, 87900, Note_on_c, 0, 83, 99
2, 87900, Note_on_c, 0, 71, 86
2, 87943, Note_on_c, 0, 71, 0
2, 87946, Note_on_c, 0, 83, 0
2, 87960, Control_c, 0, 64, 0
2, 87960, Note_on_c, 0, 67, 86
2, 87960, Note_on_c, 0, 81, 90
2, 87988, Control_c, 0, 64, 127
2, 88014, Note_on_c, 0, 81, 0
2, 88014, Note_on_c, 0, 67, 0
2, 88020, Note_on_c, 0, 79, 103
2, 88020, Note_on_c, 0, 71, 86
2, 88043, Note_on_c, 0, 71, 0
2, 88049, Note_on_c, 0, 79, 0
2, 88080, Note_on_c, 0, 67, 90
2, 88080, Note_on_c, 0, 79, 103
2, 88082, Control_c, 0, 64, 0
2, 88112, Control_c, 0, 64, 127
2, 88137, Note_on_c, 0, 67, 0
2, 88140, Note_on_c, 0, 71, 90
2, 88153, Note_on_c, 0, 79, 0
2, 88166, Note_on_c, 0, 71, 0
2, 88200, Note_on_c, 0, 79, 112
2, 88200, Note_on_c, 0, 67, 82
2, 88204, Control_c, 0, 64, 0
2, 88234, Control_c, 0, 64, 127
2, 88253, Note_on_c, 0, 67, 0
2, 88260, Note_on_c, 0, 72, 82
2, 88277, Note_on_c, 0, 79, 0
2, 88307, Note_on_c, 0, 72, 0
2, 88320, Note_on_c, 0, 67, 86
2, 88320, Note_on_c, 0, 84, 103
2, 88324, Control_c, 0, 64, 0
2, 88351, Control_c, 0, 64, 127
2, 88369, Note_on_c, 0, 84, 0
2, 88371, Note_on_c, 0, 67, 0
2, 88380, Note_on_c, 0, 72, 82
2, 88380, Note_on_c, 0, 88, 103
2, 88404, Note_on_c, 0, 88, 0
2, 88415, Note_on_c, 0, 72, 0
2, 88440, Note_on_c, 0, 67, 86
2, 88440, Note_on_c, 0, 86, 108
2, 88441, Control_c, 0, 64, 0
2, 88459, Control_c, 0, 64, 127
2, 88497, Note_on_c, 0, 67, 0
2, 88498, Note_on_c, 0, 86, 0
2, 88500, Note_on_c, 0, 72, 90
2, 88500, Note_on_c, 0, 84, 103
2, 88518, Note_on_c, 0, 84, 0
2, 88526, Note_on_c, 0, 72, 0
2, 88558, Control_c, 0, 64, 0
2, 88560, Note_on_c, 0, 67, 82
2, 88560, Note_on_c, 0, 84, 108
2, 88588, Control_c, 0, 64, 127
2, 88615, Note_on_c, 0, 84, 0
2, 88617, Note_on_c, 0, 67, 0
2, 88620, Note_on_c, 0, 83, 99
2, 88620, Note_on_c, 0, 71, 86
2, 88657, Note_on_c, 0, 71, 0
2, 88666, Note_on_c, 0, 83, 0
2, 88680, Note_on_c, 0, 67, 82
2, 88680, Note_on_c, 0, 81, 99
2, 88681, Control_c, 0, 64, 0
2, 88709, Control_c, 0, 64, 127
2, 88730, Note_on_c, 0, 81, 0
2, 88733, Note_on_c, 0, 67, 0
2, 88740, Note_on_c, 0, 79, 108
2, 88740, Note_on_c, 0, 71, 86
2, 88763, Note_on_c, 0, 71, 0
2, 88764, Note_on_c, 0, 79, 0
2, 88795, Control_c, 0, 64, 0
2, 88800, Note_on_c, 0, 67, 82
2, 88800, Note_on_c, 0, 79, 117
2, 88823, Control_c, 0, 64, 127
2, 88860, Note_on_c, 0, 71, 95
2, 88861, Note_on_c, 0, 67, 0
2, 88879, Note_on_c, 0, 79, 0
2, 88887, Note_on_c, 0, 71, 0
2, 88920, Note_on_c, 0, 79, 123
2, 88923, Control_c, 0, 64, 0
2, 88951, Control_c, 0, 64, 127
2, 89006, Note_on_c, 0, 79, 0
2, 89038, Control_c, 0, 64, 0
2, 89040, Note_on_c, 0, 64, 99
2, 89040, Note_on_c, 0, 84, 103
2, 89040, Note_on_c, 0, 72, 90
2, 89063, Control_c, 0, 64, 127
2, 89096, Note_on_c, 0, 64, 0
2, 89100, Note_on_c, 0, 72, 0
2, 89111, Note_on_c, 0, 84, 0
2, 89160, Note_on_c, 0, 83, 112
2, 89160, Note_on_c, 0, 64, 99
2, 89160, Note_on_c, 0, 72, 82
2, 89166, Control_c, 0, 64, 0
2, 89191, Control_c, 0, 64, 127
2, 89232, Note_on_c, 0, 72, 0
2, 89234, Note_on_c, 0, 64, 0
2, 89250, Note_on_c, 0, 83, 0
2, 89273, Control_c, 0, 64, 0
2, 89280, Note_on_c, 0, 83, 108
2, 89302, Control_c, 0, 64, 127
2, 89331, Note_on_c, 0, 83, 0
2, 89340, Note_on_c, 0, 81, 108
2, 89379, Control_c, 0, 64, 0
2, 89400, Note_on_c, 0, 65, 90
2, 89400, Note_on_c, 0, 72, 86
2, 89408, Control_c, 0, 64, 127
2, 89444, Note_on_c, 0, 72, 0
2, 89445, Note_on_c, 0, 65, 0
2, 89447, Note_on_c, 0, 81, 0
2, 89520, Control_c, 0, 64, 0
2, 89520, Note_on_c, 0, 79, 108
2, 89520, Note_on_c, 0, 64, 95
2, 89520, Note_on_c, 0, 72, 86
2, 89546, Control_c, 0, 64, 127
2, 89563, Note_on_c, 0, 79, 0
2, 89579, Note_on_c, 0, 64, 0
2, 89580, Note_on_c, 0, 72, 0
2, 89627, Control_c, 0, 64, 0
2, 89640, Note_on_c, 0, 79, 112
2, 89659, Control_c, 0, 64, 127
2, 89694, Note_on_c, 0, 79, 0
2, 89700, Note_on_c, 0, 77, 103
2, 89721, Control_c, 0, 64, 0
2, 89760, Note_on_c, 0, 62, 99
2, 89760, Note_on_c, 0, 71, 86
2, 89760, Control_c, 0, 64, 127
2, 89794, Note_on_c, 0, 62, 0
2, 89798, Note_on_c, 0, 77, 0
2, 89799, Note_on_c, 0, 71, 0
2, 89873, Control_c, 0, 64, 0
2, 89880, Note_on_c, 0, 60, 72
2, 89880, Note_on_c, 0, 76, 99
2, 89880, Note_on_c, 0, 72, 90
2, 89900, Control_c, 0, 64, 127
2, 89940, Note_on_c, 0, 72, 0
2, 89944, Note_on_c, 0, 60, 0
2, 89955, Note_on_c, 0, 76, 0
2, 90000, Note_on_c, 0, 65, 82
2, 90000, Note_on_c, 0, 76, 90
2, 90009, Control_c, 0, 64, 0
2, 90030, Note_on_c, 0, 74, 82
2, 90040, Note_on_c, 0, 76, 0
2, 90059, Note_on_c, 0, 74, 0
2, 90060, Note_on_c, 0, 77, 86
2, 90090, Note_on_c, 0, 74, 99
2, 90093, Control_c, 0, 64, 127
2, 90094, Note_on_c, 0, 77, 0
2, 90111, Note_on_c, 0, 74, 0
2, 90120, Note_on_c, 0, 72, 103
2, 90120, Note_on_c, 0, 67, 86
2, 90124, Note_on_c, 0, 65, 0
2, 90125, Control_c, 0, 64, 0
2, 90154, Control_c, 0, 64, 127
2, 90182, Note_on_c, 0, 67, 0
2, 90188, Note_on_c, 0, 72, 0
2, 90238, Control_c, 0, 64, 0
2, 90240, Note_on_c, 0, 65, 72
2, 90240, Note_on_c, 0, 67, 86
2, 90240, Note_on_c, 0, 71, 108
2, 90262, Control_c, 0, 64, 127
2, 90295, Note_on_c, 0, 67, 0
2, 90299, Note_on_c, 0, 65, 0
2, 90301, Note_on_c, 0, 71, 0
2, 90362, Note_on_c, 0, 71, 103
2, 90363, Control_c, 0, 64, 0
2, 90363, Note_on_c, 0, 67, 78
2, 90365, Note_on_c, 0, 64, 78
2, 90394, Control_c, 0, 64, 127
2, 90426, Note_on_c, 0, 71, 0
2, 90428, Note_on_c, 0, 72, 103
2, 90441, Control_c, 0, 64, 0
2, 90484, Control_c, 0, 64, 127
2, 90715, Control_c, 0, 64, 0
2, 90719, Note_on_c, 0, 72, 0
2, 90720, Control_c, 0, 7, 121
2, 90721, Note_on_c, 0, 67, 0
2, 90723, Note_on_c, 0, 64, 0
2, 91080, Note_on_c, 0, 64, 82
2, 91080, Note_on_c, 0, 79, 112
2, 91085, Control_c, 0, 64, 127
2, 91106, Note_on_c, 0, 79, 0
2, 91110, Note_on_c, 0, 76, 86
2, 91122, Note_on_c, 0, 76, 0
2, 91135, Note_on_c, 0, 64, 0
2, 91140, Note_on_c, 0, 79, 99
2, 91140, Note_on_c, 0, 67, 90
2, 91157, Note_on_c, 0, 79, 0
2, 91170, Note_on_c, 0, 76, 99
2, 91179, Note_on_c, 0, 76, 0
2, 91179, Note_on_c, 0, 67, 0
2, 91193, Control_c, 0, 64, 0
2, 91200, Note_on_c, 0, 64, 90
2, 91200, Note_on_c, 0, 72, 112
2, 91212, Note_on_c, 0, 72, 0
2, 91259, Note_on_c, 0, 64, 0
2, 91260, Note_on_c, 0, 67, 86
2, 91260, Note_on_c, 0, 72, 117
2, 91272, Note_on_c, 0, 72, 0
2, 91320, Note_on_c, 0, 65, 82
2, 91320, Note_on_c, 0, 77, 112
2, 91322, Note_on_c, 0, 67, 0
2, 91341, Note_on_c, 0, 77, 0
2, 91350, Note_on_c, 0, 74, 90
2, 91363, Note_on_c, 0, 74, 0
2, 91380, Note_on_c, 0, 65, 0
2, 91380, Note_on_c, 0, 67, 90
2, 91380, Note_on_c, 0, 77, 108
2, 91395, Note_on_c, 0, 77, 0
2, 91410, Note_on_c, 0, 74, 86
2, 91421, Note_on_c, 0, 74, 0
2, 91440, Note_on_c, 0, 67, 0
2, 91440, Note_on_c, 0, 65, 90
2, 91440, Note_on_c, 0, 71, 112
2, 91451, Note_on_c, 0, 71, 0
2, 91500, Note_on_c, 0, 71, 123
2, 91500, Note_on_c, 0, 67, 86
2, 91501, Note_on_c, 0, 65, 0
2, 91511, Note_on_c, 0, 71, 0
2, 91560, Note_on_c, 0, 64, 95
2, 91560, Note_on_c, 0, 72, 108
2, 91561, Note_on_c, 0, 67, 0
2, 91569, Control_c, 0, 64, 127
2, 91580, Note_on_c, 0, 72, 0
2, 91590, Note_on_c, 0, 74, 99
2, 91606, Note_on_c, 0, 74, 0
2, 91612, Control_c, 0, 64, 0
2, 91619, Note_on_c, 0, 64, 0
2, 91620, Note_on_c, 0, 76, 103
2, 91620, Note_on_c, 0, 67, 90
2, 91641, Note_on_c, 0, 76, 0
2, 91650, Note_on_c, 0, 77, 117
2, 91664, Note_on_c, 0, 77, 0
2, 91680, Note_on_c, 0, 64, 99
2, 91680, Note_on_c, 0, 79, 108
2, 91681, Note_on_c, 0, 67, 0
2, 91691, Control_c, 0, 64, 127
2, 91696, Note_on_c, 0, 79, 0
2, 91710, Note_on_c, 0, 81, 103
2, 91724, Note_on_c, 0, 81, 0
2, 91740, Note_on_c, 0, 83, 108
2, 91740, Note_on_c, 0, 67, 99
2, 91742, Note_on_c, 0, 64, 0
2, 91756, Note_on_c, 0, 83, 0
2, 91770, Note_on_c, 0, 84, 103
2, 91782, Note_on_c, 0, 84, 0
2, 91789, Note_on_c, 0, 67, 0
2, 91794, Control_c, 0, 64, 0
2, 91800, Note_on_c, 0, 65, 95
2, 91800, Note_on_c, 0, 84, 117
2, 91816, Note_on_c, 0, 84, 0
2, 91818, Control_c, 0, 64, 127
2, 91830, Note_on_c, 0, 83, 99
2, 91845, Note_on_c, 0, 83, 0
2, 91858, Control_c, 0, 64, 0
2, 91860, Note_on_c, 0, 81, 108
2, 91860, Note_on_c, 0, 67, 86
2, 91863, Note_on_c, 0, 65, 0
2, 91876, Control_c, 0, 64, 127
2, 91889, Note_on_c, 0, 81, 0
2, 91890, Note_on_c, 0, 79, 103
2, 91900, Note_on_c, 0, 79, 0
2, 91917, Note_on_c, 0, 67, 0
2, 91917, Control_c, 0, 64, 0
2, 91920, Note_on_c, 0, 65, 90
2, 91920, Note_on_c, 0, 79, 123
2, 91937, Note_on_c, 0, 79, 0
2, 91940, Control_c, 0, 64, 127
2, 91950, Note_on_c, 0, 77, 108
2, 91963, Note_on_c, 0, 77, 0
2, 91980, Control_c, 0, 64, 0
2, 91980, Note_on_c, 0, 67, 90
2, 91980, Note_on_c, 0, 76, 123
2, 91982, Note_on_c, 0, 65, 0
2, 91995, Note_on_c, 0, 76, 0
2, 91999, Control_c, 0, 64, 127
2, 92010, Note_on_c, 0, 74, 108
2, 92022, Note_on_c, 0, 74, 0
2, 92035, Control_c, 0, 64, 0
2, 92037, Note_on_c, 0, 67, 0
2, 92040, Note_on_c, 0, 64, 86
2, 92040, Note_on_c, 0, 79, 108
2, 92056, Note_on_c, 0, 79, 0
2, 92059, Control_c, 0, 64, 127
2, 92070, Note_on_c, 0, 76, 99
2, 92082, Note_on_c, 0, 76, 0
2, 92096, Note_on_c, 0, 64, 0
2, 92096, Control_c, 0, 64, 0
2, 92100, Note_on_c, 0, 67, 78
2, 92100, Note_on_c, 0, 79, 99
2, 92116, Control_c, 0, 64, 127
2, 92119, Note_on_c, 0, 79, 0
2, 92130, Note_on_c, 0, 76, 99
2, 92140, Note_on_c, 0, 76, 0
2, 92158, Control_c, 0, 64, 0
2, 92160, Note_on_c, 0, 67, 0
2, 92160, Note_on_c, 0, 64, 90
2, 92160, Note_on_c, 0, 72, 117
2, 92172, Note_on_c, 0, 72, 0
2, 92220, Note_on_c, 0, 67, 86
2, 92220, Note_on_c, 0, 72, 117
2, 92221, Note_on_c, 0, 64, 0
2, 92232, Note_on_c, 0, 72, 0
2, 92280, Note_on_c, 0, 65, 86
2, 92280, Note_on_c, 0, 77, 117
2, 92284, Note_on_c, 0, 67, 0
2, 92293, Control_c, 0, 64, 127
2, 92299, Note_on_c, 0, 77, 0
2, 92310, Note_on_c, 0, 74, 99
2, 92322, Note_on_c, 0, 74, 0
2, 92340, Note_on_c, 0, 65, 0
2, 92340, Note_on_c, 0, 77, 103
2, 92340, Note_on_c, 0, 67, 86
2, 92341, Control_c, 0, 64, 0
2, 92362, Control_c, 0, 64, 127
2, 92363, Note_on_c, 0, 77, 0
2, 92370, Note_on_c, 0, 74, 99
2, 92380, Note_on_c, 0, 74, 0
2, 92398, Control_c, 0, 64, 0
2, 92400, Note_on_c, 0, 65, 86
2, 92400, Note_on_c, 0, 71, 123
2, 92402, Note_on_c, 0, 67, 0
2, 92411, Note_on_c, 0, 71, 0
2, 92460, Note_on_c, 0, 65, 0
2, 92460, Note_on_c, 0, 71, 123
2, 92460, Note_on_c, 0, 67, 90
2, 92472, Note_on_c, 0, 71, 0
2, 92520, Note_on_c, 0, 64, 82
2, 92520, Note_on_c, 0, 72, 123
2, 92522, Note_on_c, 0, 67, 0
2, 92529, Control_c, 0, 64, 127
2, 92536, Note_on_c, 0, 72, 0
2, 92550, Note_on_c, 0, 74, 90
2, 92566, Note_on_c, 0, 74, 0
2, 92572, Control_c, 0, 64, 0
2, 92580, Note_on_c, 0, 64, 0
2, 92580, Note_on_c, 0, 76, 103
2, 92580, Note_on_c, 0, 67, 95
2, 92599, Note_on_c, 0, 76, 0
2, 92604, Control_c, 0, 64, 127
2, 92610, Note_on_c, 0, 77, 90
2, 92625, Note_on_c, 0, 77, 0
2, 92634, Note_on_c, 0, 67, 0
2, 92637, Control_c, 0, 64, 0
2, 92640, Note_on_c, 0, 64, 86
2, 92640, Note_on_c, 0, 79, 123
2, 92655, Note_on_c, 0, 79, 0
2, 92662, Control_c, 0, 64, 127
2, 92670, Note_on_c, 0, 81, 103
2, 92682, Note_on_c, 0, 81, 0
2, 92700, Note_on_c, 0, 67, 86
2, 92700, Note_on_c, 0, 83, 108
2, 92701, Control_c, 0, 64, 0
2, 92705, Note_on_c, 0, 64, 0
2, 92720, Control_c, 0, 64, 127
2, 92725, Note_on_c, 0, 83, 0
2, 92730, Note_on_c, 0, 84, 99
2, 92742, Note_on_c, 0, 84, 0
2, 92757, Note_on_c, 0, 67, 0
2, 92760, Note_on_c, 0, 79, 117
2, 92760, Note_on_c, 0, 65, 90
2, 92763, Control_c, 0, 64, 0
2, 92784, Note_on_c, 0, 79, 0
2, 92787, Control_c, 0, 64, 127
2, 92790, Note_on_c, 0, 77, 95
2, 92802, Note_on_c, 0, 77, 0
2, 92820, Note_on_c, 0, 67, 86
2, 92820, Note_on_c, 0, 76, 112
2, 92821, Note_on_c, 0, 65, 0
2, 92821, Control_c, 0, 64, 0
2, 92838, Control_c, 0, 64, 127
2, 92846, Note_on_c, 0, 76, 0
2, 92850, Note_on_c, 0, 74, 99
2, 92864, Note_on_c, 0, 74, 0
2, 92864, Note_on_c, 0, 67, 0
2, 92879, Control_c, 0, 64, 0
2, 92880, Note_on_c, 0, 72, 112
2, 92880, Note_on_c, 0, 64, 90
2, 92902, Control_c, 0, 64, 127
2, 92914, Note_on_c, 0, 72, 0
2, 92924, Note_on_c, 0, 64, 0
2, 92972, Control_c, 0, 64, 0
2, 93000, Note_on_c, 0, 77, 99
2, 93000, Note_on_c, 0, 65, 72
2, 93009, Control_c, 0, 64, 127
2, 93020, Note_on_c, 0, 77, 0
2, 93030, Note_on_c, 0, 74, 74
2, 93045, Note_on_c, 0, 74, 0
2, 93060, Note_on_c, 0, 77, 86
2, 93060, Note_on_c, 0, 67, 74
2, 93061, Note_on_c, 0, 65, 0
2, 93062, Control_c, 0, 64, 0
2, 93080, Control_c, 0, 64, 127
2, 93085, Note_on_c, 0, 77, 0
2, 93090, Note_on_c, 0, 74, 86
2, 93101, Note_on_c, 0, 74, 0
2, 93117, Control_c, 0, 64, 0
2, 93120, Note_on_c, 0, 67, 0
2, 93120, Note_on_c, 0, 71, 90
2, 93120, Note_on_c, 0, 65, 72
2, 93132, Note_on_c, 0, 71, 0
2, 93179, Note_on_c, 0, 65, 0
2, 93180, Note_on_c, 0, 67, 74
2, 93180, Note_on_c, 0, 71, 103
2, 93183, Control_c, 0, 64, 127
2, 93192, Note_on_c, 0, 71, 0
2, 93206, Control_c, 0, 64, 0
2, 93236, Note_on_c, 0, 67, 0
2, 93240, Note_on_c, 0, 64, 78
2, 93240, Note_on_c, 0, 72, 103
2, 93250, Control_c, 0, 64, 127
2, 93268, Note_on_c, 0, 72, 0
2, 93270, Note_on_c, 0, 74, 99
2, 93294, Note_on_c, 0, 74, 0
2, 93294, Control_c, 0, 64, 0
2, 93298, Note_on_c, 0, 64, 0
2, 93300, Note_on_c, 0, 76, 103
2, 93300, Note_on_c, 0, 67, 90
2, 93316, Control_c, 0, 64, 127
2, 93329, Note_on_c, 0, 76, 0
2, 93330, Note_on_c, 0, 77, 99
2, 93345, Note_on_c, 0, 77, 0
2, 93357, Control_c, 0, 64, 0
2, 93359, Note_on_c, 0, 67, 0
2, 93360, Note_on_c, 0, 79, 112
2, 93360, Note_on_c, 0, 64, 95
2, 93374, Control_c, 0, 64, 127
2, 93383, Note_on_c, 0, 79, 0
2, 93390, Note_on_c, 0, 81, 99
2, 93407, Note_on_c, 0, 81, 0
2, 93418, Control_c, 0, 64, 0
2, 93420, Note_on_c, 0, 64, 0
2, 93420, Note_on_c, 0, 83, 117
2, 93420, Note_on_c, 0, 67, 103
2, 93434, Control_c, 0, 64, 127
2, 93442, Note_on_c, 0, 83, 0
2, 93450, Note_on_c, 0, 84, 99
2, 93464, Note_on_c, 0, 84, 0
2, 93476, Control_c, 0, 64, 0
2, 93479, Note_on_c, 0, 67, 0
2, 93480, Note_on_c, 0, 65, 90
2, 93480, Note_on_c, 0, 84, 108
2, 93495, Control_c, 0, 64, 127
2, 93502, Note_on_c, 0, 84, 0
2, 93510, Note_on_c, 0, 83, 99
2, 93526, Note_on_c, 0, 83, 0
2, 93540, Control_c, 0, 64, 0
2, 93540, Note_on_c, 0, 81, 108
2, 93540, Note_on_c, 0, 67, 86
2, 93544, Note_on_c, 0, 65, 0
2, 93558, Control_c, 0, 64, 127
2, 93570, Note_on_c, 0, 79, 99
2, 93571, Note_on_c, 0, 81, 0
2, 93585, Note_on_c, 0, 79, 0
2, 93594, Note_on_c, 0, 67, 0
2, 93600, Note_on_c, 0, 81, 117
2, 93600, Note_on_c, 0, 65, 90
2, 93602, Control_c, 0, 64, 0
2, 93621, Control_c, 0, 64, 127
2, 93629, Note_on_c, 0, 81, 0
2, 93630, Note_on_c, 0, 79, 103
2, 93645, Note_on_c, 0, 79, 0
2, 93660, Control_c, 0, 64, 0
2, 93660, Note_on_c, 0, 81, 103
2, 93660, Note_on_c, 0, 67, 82
2, 93663, Note_on_c, 0, 65, 0
2, 93677, Control_c, 0, 64, 127
2, 93680, Note_on_c, 0, 81, 0
2, 93690, Note_on_c, 0, 83, 103
2, 93708, Note_on_c, 0, 83, 0
2, 93715, Control_c, 0, 64, 0
2, 93716, Note_on_c, 0, 67, 0
2, 93720, Note_on_c, 0, 64, 99
2, 93720, Note_on_c, 0, 84, 112
2, 93734, Control_c, 0, 64, 127
2, 93743, Note_on_c, 0, 84, 0
2, 93750, Note_on_c, 0, 83, 103
2, 93765, Note_on_c, 0, 83, 0
2, 93780, Control_c, 0, 64, 0
2, 93780, Note_on_c, 0, 84, 99
2, 93780, Note_on_c, 0, 67, 95
2, 93781, Note_on_c, 0, 64, 0
2, 93797, Control_c, 0, 64, 127
2, 93802, Note_on_c, 0, 84, 0
2, 93810, Note_on_c, 0, 86, 99
2, 93827, Note_on_c, 0, 86, 0
2, 93833, Note_on_c, 0, 67, 0
2, 93835, Control_c, 0, 64, 0
2, 93840, Note_on_c, 0, 64, 99
2, 93840, Note_on_c, 0, 88, 123
2, 93853, Control_c, 0, 64, 127
2, 93870, Note_on_c, 0, 88, 0
2, 93900, Note_on_c, 0, 64, 0
2, 93900, Note_on_c, 0, 67, 103
2, 93900, Note_on_c, 0, 79, 103
2, 93902, Control_c, 0, 64, 0
2, 93918, Control_c, 0, 64, 127
2, 93919, Note_on_c, 0, 79, 0
2, 93945, Note_on_c, 0, 67, 0
2, 93960, Control_c, 0, 64, 0
2, 93960, Note_on_c, 0, 77, 90
2, 93960, Note_on_c, 0, 65, 66
2, 93983, Note_on_c, 0, 77, 0
2, 93984, Control_c, 0, 64, 127
2, 93990, Note_on_c, 0, 74, 86
2, 94005, Note_on_c, 0, 74, 0
2, 94020, Note_on_c, 0, 65, 0
2, 94020, Note_on_c, 0, 67, 69
2, 94020, Note_on_c, 0, 77, 82
2, 94023, Control_c, 0, 64, 0
2, 94039, Control_c, 0, 64, 127
2, 94045, Note_on_c, 0, 77, 0
2, 94050, Note_on_c, 0, 74, 82
2, 94062, Note_on_c, 0, 74, 0
2, 94077, Note_on_c, 0, 67, 0
2, 94080, Note_on_c, 0, 65, 74
2, 94080, Note_on_c, 0, 71, 90
2, 94084, Control_c, 0, 64, 0
2, 94093, Note_on_c, 0, 71, 0
2, 94138, Control_c, 0, 64, 127
2, 94140, Note_on_c, 0, 65, 0
2, 94140, Note_on_c, 0, 71, 99
2, 94140, Note_on_c, 0, 67, 82
2, 94153, Note_on_c, 0, 71, 0
2, 94185, Control_c, 0, 64, 0
2, 94200, Note_on_c, 0, 64, 86
2, 94200, Note_on_c, 0, 72, 99
2, 94201, Note_on_c, 0, 67, 0
2, 94215, Control_c, 0, 64, 127
2, 94226, Note_on_c, 0, 72, 0
2, 94230, Note_on_c, 0, 74, 86
2, 94250, Control_c, 0, 64, 0
2, 94258, Note_on_c, 0, 74, 0
2, 94259, Note_on_c, 0, 64, 0
2, 94260, Note_on_c, 0, 67, 86
2, 94260, Note_on_c, 0, 76, 103
2, 94275, Control_c, 0, 64, 127
2, 94288, Note_on_c, 0, 76, 0
2, 94290, Note_on_c, 0, 77, 103
2, 94306, Note_on_c, 0, 77, 0
2, 94320, Note_on_c, 0, 64, 95
2, 94320, Note_on_c, 0, 79, 103
2, 94322, Note_on_c, 0, 67, 0
2, 94322, Control_c, 0, 64, 0
2, 94337, Note_on_c, 0, 79, 0
2, 94340, Control_c, 0, 64, 127
2, 94350, Note_on_c, 0, 81, 108
2, 94366, Note_on_c, 0, 81, 0
2, 94380, Note_on_c, 0, 67, 90
2, 94380, Note_on_c, 0, 83, 117
2, 94381, Note_on_c, 0, 64, 0
2, 94381, Control_c, 0, 64, 0
2, 94397, Note_on_c, 0, 83, 0
2, 94397, Control_c, 0, 64, 127
2, 94410, Note_on_c, 0, 84, 108
2, 94424, Note_on_c, 0, 84, 0
2, 94429, Note_on_c, 0, 67, 0
2, 94439, Control_c, 0, 64, 0
2, 94440, Note_on_c, 0, 65, 82
2, 94440, Note_on_c, 0, 84, 108
2, 94457, Control_c, 0, 64, 127
2, 94458, Note_on_c, 0, 84, 0
2, 94470, Note_on_c, 0, 83, 99
2, 94486, Note_on_c, 0, 83, 0
2, 94498, Control_c, 0, 64, 0
2, 94500, Note_on_c, 0, 81, 108
2, 94500, Note_on_c, 0, 67, 90
2, 94503, Note_on_c, 0, 65, 0
2, 94515, Control_c, 0, 64, 127
2, 94530, Note_on_c, 0, 79, 103
2, 94534, Note_on_c, 0, 81, 0
2, 94542, Note_on_c, 0, 79, 0
2, 94557, Note_on_c, 0, 67, 0
2, 94557, Control_c, 0, 64, 0
2, 94560, Note_on_c, 0, 79, 108
2, 94560, Note_on_c, 0, 65, 86
2, 94574, Control_c, 0, 64, 127
2, 94579, Note_on_c, 0, 79, 0
2, 94590, Note_on_c, 0, 77, 103
2, 94607, Note_on_c, 0, 77, 0
2, 94616, Control_c, 0, 64, 0
2, 94620, Note_on_c, 0, 76, 99
2, 94620, Note_on_c, 0, 67, 90
2, 94622, Note_on_c, 0, 65, 0
2, 94633, Control_c, 0, 64, 127
2, 94646, Note_on_c, 0, 76, 0
2, 94650, Note_on_c, 0, 74, 103
2, 94665, Note_on_c, 0, 74, 0
2, 94671, Note_on_c, 0, 67, 0
2, 94674, Control_c, 0, 64, 0
2, 94680, Note_on_c, 0, 64, 86
2, 94680, Note_on_c, 0, 76, 103
2, 94693, Control_c, 0, 64, 127
2, 94705, Note_on_c, 0, 76, 0
2, 94710, Note_on_c, 0, 74, 99
2, 94725, Note_on_c, 0, 74, 0
2, 94731, Control_c, 0, 64, 0
2, 94740, Note_on_c, 0, 76, 103
2, 94740, Note_on_c, 0, 67, 86
2, 94741, Note_on_c, 0, 64, 0
2, 94751, Control_c, 0, 64, 127
2, 94760, Note_on_c, 0, 76, 0
2, 94770, Note_on_c, 0, 79, 90
2, 94790, Control_c, 0, 64, 0
2, 94792, Note_on_c, 0, 79, 0
2, 94797, Note_on_c, 0, 67, 0
2, 94800, Note_on_c, 0, 72, 112
2, 94800, Note_on_c, 0, 64, 99
2, 94808, Control_c, 0, 64, 127
2, 94825, Note_on_c, 0, 72, 0
2, 94828, Note_on_c, 0, 64, 0
2, 94915, Control_c, 0, 64, 0
2, 94920, Note_on_c, 0, 53, 99
2, 94920, Note_on_c, 0, 81, 123
2, 94943, Control_c, 0, 64, 127
2, 94944, Note_on_c, 0, 81, 0
2, 94950, Note_on_c, 0, 84, 99
2, 94968, Note_on_c, 0, 84, 0
2, 94980, Note_on_c, 0, 86, 103
2, 95001, Note_on_c, 0, 86, 0
2, 95010, Note_on_c, 0, 84, 103
2, 95020, Note_on_c, 0, 84, 0
2, 95038, Note_on_c, 0, 53, 0
2, 95040, Note_on_c, 0, 57, 99
2, 95040, Note_on_c, 0, 82, 112
2, 95046, Control_c, 0, 64, 0
2, 95069, Note_on_c, 0, 82, 0
2, 95070, Control_c, 0, 64, 127
2, 95070, Note_on_c, 0, 81, 99
2, 95097, Note_on_c, 0, 81, 0
2, 95100, Note_on_c, 0, 79, 103
2, 95129, Note_on_c, 0, 79, 0
2, 95130, Note_on_c, 0, 77, 95
2, 95144, Note_on_c, 0, 77, 0
2, 95152, Note_on_c, 0, 57, 0
2, 95160, Note_on_c, 0, 60, 95
2, 95160, Note_on_c, 0, 76, 112
2, 95165, Control_c, 0, 64, 0
2, 95186, Note_on_c, 0, 76, 0
2, 95189, Control_c, 0, 64, 127
2, 95190, Note_on_c, 0, 77, 95
2, 95208, Note_on_c, 0, 77, 0
2, 95220, Note_on_c, 0, 79, 103
2, 95239, Note_on_c, 0, 79, 0
2, 95250, Note_on_c, 0, 77, 99
2, 95266, Note_on_c, 0, 77, 0
2, 95268, Note_on_c, 0, 60, 0
2, 95278, Control_c, 0, 64, 0
2, 95280, Note_on_c, 0, 76, 112
2, 95280, Note_on_c, 0, 52, 103
2, 95299, Control_c, 0, 64, 127
2, 95310, Note_on_c, 0, 74, 99
2, 95311, Note_on_c, 0, 76, 0
2, 95323, Note_on_c, 0, 74, 0
2, 95340, Note_on_c, 0, 72, 86
2, 95356, Note_on_c, 0, 72, 0
2, 95370, Note_on_c, 0, 70, 103
2, 95383, Note_on_c, 0, 70, 0
2, 95391, Note_on_c, 0, 52, 0
2, 95391, Control_c, 0, 64, 0
2, 95400, Note_on_c, 0, 69, 112
2, 95400, Note_on_c, 0, 53, 86
2, 95418, Control_c, 0, 64, 127
2, 95419, Note_on_c, 0, 69, 0
2, 95430, Note_on_c, 0, 72, 99
2, 95453, Note_on_c, 0, 72, 0
2, 95460, Note_on_c, 0, 77, 103
2, 95482, Note_on_c, 0, 77, 0
2, 95490, Note_on_c, 0, 76, 112
2, 95498, Note_on_c, 0, 76, 0
2, 95515, Note_on_c, 0, 53, 0
2, 95515, Control_c, 0, 64, 0
2, 95520, Note_on_c, 0, 46, 99
2, 95520, Note_on_c, 0, 74, 117
2, 95543, Note_on_c, 0, 74, 0
2, 95549, Control_c, 0, 64, 127
2, 95550, Note_on_c, 0, 79, 103
2, 95566, Note_on_c, 0, 79, 0
2, 95580, Note_on_c, 0, 82, 95
2, 95599, Note_on_c, 0, 82, 0
2, 95610, Note_on_c, 0, 81, 103
2, 95626, Note_on_c, 0, 81, 0
2, 95630, Note_on_c, 0, 46, 0
2, 95634, Control_c, 0, 64, 0
2, 95640, Note_on_c, 0, 79, 112
2, 95640, Note_on_c, 0, 48, 90
2, 95655, Control_c, 0, 64, 127
2, 95661, Note_on_c, 0, 79, 0
2, 95670, Note_on_c, 0, 81, 103
2, 95682, Note_on_c, 0, 48, 0
2, 95685, Note_on_c, 0, 81, 0
2, 95694, Control_c, 0, 64, 0
2, 95700, Note_on_c, 0, 79, 108
2, 95700, Note_on_c, 0, 48, 86
2, 95708, Control_c, 0, 64, 127
2, 95729, Note_on_c, 0, 79, 0
2, 95730, Note_on_c, 0, 77, 99
2, 95734, Note_on_c, 0, 48, 0
2, 95744, Note_on_c, 0, 77, 0
2, 95747, Control_c, 0, 64, 0
2, 95760, Note_on_c, 0, 76, 117
2, 95760, Note_on_c, 0, 48, 90
2, 95766, Control_c, 0, 64, 127
2, 95786, Note_on_c, 0, 76, 0
2, 95788, Note_on_c, 0, 48, 0
2, 95849, Control_c, 0, 64, 0
2, 95880, Note_on_c, 0, 53, 90
2, 95880, Note_on_c, 0, 81, 117
2, 95899, Control_c, 0, 64, 127
2, 95903, Note_on_c, 0, 81, 0
2, 95910, Note_on_c, 0, 84, 99
2, 95925, Note_on_c, 0, 84, 0
2, 95940, Note_on_c, 0, 86, 99
2, 95955, Note_on_c, 0, 86, 0
2, 95970, Note_on_c, 0, 84, 99
2, 95980, Note_on_c, 0, 84, 0
2, 95998, Note_on_c, 0, 53, 0
2, 95998, Control_c, 0, 64, 0
2, 96000, Note_on_c, 0, 82, 99
2, 96000, Note_on_c, 0, 57, 99
2, 96024, Control_c, 0, 64, 127
2, 96028, Note_on_c, 0, 82, 0
2, 96030, Note_on_c, 0, 81, 103
2, 96050, Note_on_c, 0, 81, 0
2, 96060, Note_on_c, 0, 79, 103
2, 96089, Note_on_c, 0, 79, 0
2, 96090, Note_on_c, 0, 77, 90
2, 96103, Note_on_c, 0, 77, 0
2, 96114, Note_on_c, 0, 57, 0
2, 96114, Control_c, 0, 64, 0
2, 96120, Note_on_c, 0, 60, 95
2, 96120, Note_on_c, 0, 76, 112
2, 96138, Control_c, 0, 64, 127
2, 96140, Note_on_c, 0, 76, 0
2, 96150, Note_on_c, 0, 77, 90
2, 96164, Note_on_c, 0, 77, 0
2, 96180, Note_on_c, 0, 79, 103
2, 96194, Note_on_c, 0, 79, 0
2, 96210, Note_on_c, 0, 77, 99
2, 96226, Note_on_c, 0, 77, 0
2, 96229, Control_c, 0, 64, 0
2, 96231, Note_on_c, 0, 60, 0
2, 96240, Note_on_c, 0, 76, 117
2, 96240, Note_on_c, 0, 52, 99
2, 96248, Control_c, 0, 64, 127
2, 96255, Note_on_c, 0, 76, 0
2, 96270, Note_on_c, 0, 74, 103
2, 96285, Note_on_c, 0, 74, 0
2, 96300, Note_on_c, 0, 72, 86
2, 96318, Note_on_c, 0, 72, 0
2, 96330, Note_on_c, 0, 70, 99
2, 96343, Note_on_c, 0, 70, 0
2, 96347, Control_c, 0, 64, 0
2, 96353, Note_on_c, 0, 52, 0
2, 96360, Note_on_c, 0, 69, 117
2, 96360, Note_on_c, 0, 53, 86
2, 96376, Control_c, 0, 64, 127
2, 96379, Note_on_c, 0, 69, 0
2, 96390, Note_on_c, 0, 72, 99
2, 96407, Note_on_c, 0, 72, 0
2, 96420, Note_on_c, 0, 77, 99
2, 96442, Note_on_c, 0, 77, 0
2, 96450, Note_on_c, 0, 72, 86
2, 96463, Note_on_c, 0, 72, 0
2, 96470, Control_c, 0, 64, 0
2, 96473, Note_on_c, 0, 53, 0
2, 96480, Note_on_c, 0, 70, 112
2, 96480, Note_on_c, 0, 46, 99
2, 96491, Control_c, 0, 64, 127
2, 96499, Note_on_c, 0, 70, 0
2, 96510, Note_on_c, 0, 74, 103
2, 96527, Note_on_c, 0, 74, 0
2, 96540, Note_on_c, 0, 79, 99
2, 96567, Note_on_c, 0, 79, 0
2, 96570, Note_on_c, 0, 74, 99
2, 96580, Note_on_c, 0, 74, 0
2, 96588, Note_on_c, 0, 46, 0
2, 96591, Control_c, 0, 64, 0
2, 96600, Note_on_c, 0, 48, 95
2, 96600, Note_on_c, 0, 67, 99
2, 96620, Control_c, 0, 64, 127
2, 96622, Note_on_c, 0, 67, 0
2, 96630, Note_on_c, 0, 70, 90
2, 96651, Note_on_c, 0, 70, 0
2, 96660, Note_on_c, 0, 76, 99
2, 96687, Note_on_c, 0, 76, 0
2, 96690, Note_on_c, 0, 70, 95
2, 96707, Note_on_c, 0, 70, 0
2, 96713, Control_c, 0, 64, 0
2, 96717, Note_on_c, 0, 48, 0
2, 96720, Note_on_c, 0, 77, 108
2, 96720, Note_on_c, 0, 53, 103
2, 96730, Control_c, 0, 64, 127
2, 96757, Note_on_c, 0, 77, 0
2, 96762, Note_on_c, 0, 53, 0
2, 96808, Control_c, 0, 64, 0
2, 96840, Note_on_c, 0, 78, 90
2, 96840, Note_on_c, 0, 66, 103
2, 96840, Control_c, 0, 64, 127
2, 96840, Note_on_c, 0, 84, 99
2, 96850, Note_on_c, 0, 78, 0
2, 96851, Note_on_c, 0, 66, 0
2, 96870, Note_on_c, 0, 74, 99
2, 96872, Note_on_c, 0, 84, 0
2, 96887, Note_on_c, 0, 74, 0
2, 96896, Control_c, 0, 64, 0
2, 96900, Note_on_c, 0, 62, 95
2, 96900, Note_on_c, 0, 74, 86
2, 96900, Note_on_c, 0, 81, 103
2, 96912, Control_c, 0, 64, 127
2, 96915, Note_on_c, 0, 62, 0
2, 96918, Note_on_c, 0, 74, 0
2, 96924, Note_on_c, 0, 81, 0
2, 96930, Note_on_c, 0, 74, 82
2, 96944, Note_on_c, 0, 74, 0
2, 96952, Control_c, 0, 64, 0
2, 96960, Note_on_c, 0, 66, 82
2, 96960, Note_on_c, 0, 84, 112
2, 96960, Note_on_c, 0, 78, 82
2, 96968, Control_c, 0, 64, 127
2, 96977, Note_on_c, 0, 78, 0
2, 96978, Note_on_c, 0, 66, 0
2, 96989, Note_on_c, 0, 84, 0
2, 96990, Note_on_c, 0, 74, 86
2, 97008, Note_on_c, 0, 74, 0
2, 97020, Note_on_c, 0, 81, 103
2, 97020, Note_on_c, 0, 62, 95
2, 97020, Note_on_c, 0, 74, 86
2, 97031, Note_on_c, 0, 74, 0
2, 97031, Note_on_c, 0, 62, 0
2, 97041, Note_on_c, 0, 81, 0
2, 97050, Note_on_c, 0, 74, 60
2, 97064, Note_on_c, 0, 74, 0
2, 97073, Control_c, 0, 64, 0
2, 97080, Note_on_c, 0, 82, 99
2, 97080, Note_on_c, 0, 67, 90
2, 97080, Note_on_c, 0, 74, 103
2, 97080, Note_on_c, 0, 79, 103
2, 97095, Note_on_c, 0, 79, 0
2, 97098, Note_on_c, 0, 82, 0
2, 97101, Note_on_c, 0, 67, 0
2, 97140, Note_on_c, 0, 81, 112
2, 97140, Note_on_c, 0, 69, 103
2, 97150, Note_on_c, 0, 69, 0
2, 97151, Note_on_c, 0, 81, 0
2, 97200, Note_on_c, 0, 79, 123
2, 97200, Note_on_c, 0, 70, 103
2, 97210, Note_on_c, 0, 79, 0
2, 97212, Note_on_c, 0, 70, 0
2, 97263, Note_on_c, 0, 74, 0
2, 97320, Note_on_c, 0, 82, 103
2, 97320, Note_on_c, 0, 64, 103
2, 97320, Note_on_c, 0, 63, 70
2, 97322, Note_on_c, 0, 63, 0
2, 97331, Control_c, 0, 64, 127
2, 97350, Note_on_c, 0, 72, 86
2, 97351, Note_on_c, 0, 82, 0
2, 97363, Note_on_c, 0, 64, 0
2, 97370, Note_on_c, 0, 72, 0
2, 97377, Control_c, 0, 64, 0
2, 97380, Note_on_c, 0, 60, 103
2, 97380, Note_on_c, 0, 79, 103
2, 97393, Control_c, 0, 64, 127
2, 97405, Note_on_c, 0, 79, 0
2, 97410, Note_on_c, 0, 72, 95
2, 97421, Note_on_c, 0, 60, 0
2, 97426, Note_on_c, 0, 72, 0
2, 97426, Control_c, 0, 64, 0
2, 97440, Note_on_c, 0, 82, 95
2, 97440, Note_on_c, 0, 64, 99
2, 97444, Control_c, 0, 64, 127
2, 97468, Note_on_c, 0, 82, 0
2, 97470, Note_on_c, 0, 72, 82
2, 97473, Note_on_c, 0, 64, 0
2, 97493, Note_on_c, 0, 72, 0
2, 97500, Note_on_c, 0, 79, 103
2, 97500, Note_on_c, 0, 60, 103
2, 97517, Note_on_c, 0, 60, 0
2, 97523, Note_on_c, 0, 79, 0
2, 97530, Note_on_c, 0, 72, 86
2, 97547, Control_c, 0, 64, 0
2, 97560, Note_on_c, 0, 81, 117
2, 97560, Note_on_c, 0, 65, 108
2, 97571, Note_on_c, 0, 65, 0
2, 97571, Note_on_c, 0, 81, 0
2, 97620, Note_on_c, 0, 79, 99
2, 97620, Note_on_c, 0, 67, 103
2, 97628, Note_on_c, 0, 79, 0
2, 97632, Note_on_c, 0, 67, 0
2, 97680, Note_on_c, 0, 77, 99
2, 97680, Note_on_c, 0, 69, 103
2, 97683, Control_c, 0, 64, 127
2, 97689, Note_on_c, 0, 69, 0
2, 97689, Note_on_c, 0, 77, 0
2, 97720, Control_c, 0, 64, 0
2, 97724, Note_on_c, 0, 72, 0
2, 97800, Note_on_c, 0, 81, 95
2, 97800, Note_on_c, 0, 41, 82
2, 97800, Note_on_c, 0, 53, 82
2, 97805, Control_c, 0, 64, 127
2, 97825, Note_on_c, 0, 81, 0
2, 97830, Note_on_c, 0, 84, 103
2, 97846, Note_on_c, 0, 84, 0
2, 97860, Note_on_c, 0, 86, 112
2, 97869, Note_on_c, 0, 41, 0
2, 97875, Note_on_c, 0, 53, 0
2, 97877, Note_on_c, 0, 86, 0
2, 97890, Note_on_c, 0, 84, 99
2, 97905, Note_on_c, 0, 84, 0
2, 97910, Control_c, 0, 64, 0
2, 97920, Note_on_c, 0, 82, 117
2, 97920, Note_on_c, 0, 45, 99
2, 97920, Note_on_c, 0, 57, 90
2, 97939, Control_c, 0, 64, 127
2, 97946, Note_on_c, 0, 82, 0
2, 97950, Note_on_c, 0, 81, 95
2, 97978, Note_on_c, 0, 81, 0
2, 97980, Note_on_c, 0, 79, 95
2, 97990, Note_on_c, 0, 45, 0
2, 97995, Note_on_c, 0, 79, 0
2, 97997, Note_on_c, 0, 57, 0
2, 98010, Note_on_c, 0, 77, 103
2, 98024, Note_on_c, 0, 77, 0
2, 98028, Control_c, 0, 64, 0
2, 98040, Note_on_c, 0, 76, 123
2, 98040, Note_on_c, 0, 48, 99
2, 98040, Note_on_c, 0, 60, 67
2, 98051, Control_c, 0, 64, 127
2, 98057, Note_on_c, 0, 76, 0
2, 98070, Note_on_c, 0, 77, 95
2, 98079, Note_on_c, 0, 60, 0
2, 98087, Note_on_c, 0, 77, 0
2, 98090, Note_on_c, 0, 48, 0
2, 98100, Note_on_c, 0, 79, 95
2, 98120, Note_on_c, 0, 79, 0
2, 98139, Control_c, 0, 64, 0
2, 98159, Control_c, 0, 64, 127
2, 98160, Note_on_c, 0, 76, 117
2, 98160, Note_on_c, 0, 52, 95
2, 98160, Note_on_c, 0, 40, 99
2, 98178, Note_on_c, 0, 76, 0
2, 98190, Note_on_c, 0, 74, 90
2, 98213, Note_on_c, 0, 74, 0
2, 98220, Note_on_c, 0, 40, 0
2, 98220, Note_on_c, 0, 72, 86
2, 98231, Note_on_c, 0, 52, 0
2, 98236, Note_on_c, 0, 72, 0
2, 98250, Note_on_c, 0, 70, 117
2, 98267, Control_c, 0, 64, 0
2, 98273, Note_on_c, 0, 70, 0
2, 98280, Note_on_c, 0, 53, 82
2, 98288, Control_c, 0, 64, 127
2, 98310, Note_on_c, 0, 72, 86
2, 98336, Note_on_c, 0, 72, 0
2, 98340, Note_on_c, 0, 77, 99
2, 98349, Note_on_c, 0, 53, 0
2, 98369, Note_on_c, 0, 77, 0
2, 98370, Note_on_c, 0, 72, 99
2, 98384, Control_c, 0, 64, 0
2, 98386, Note_on_c, 0, 72, 0
2, 98400, Note_on_c, 0, 70, 117
2, 98400, Note_on_c, 0, 46, 103
2, 98406, Control_c, 0, 64, 127
2, 98424, Note_on_c, 0, 70, 0
2, 98430, Note_on_c, 0, 74, 103
2, 98455, Note_on_c, 0, 74, 0
2, 98460, Note_on_c, 0, 79, 99
2, 98488, Note_on_c, 0, 79, 0
2, 98490, Note_on_c, 0, 74, 99
2, 98501, Note_on_c, 0, 74, 0
2, 98506, Control_c, 0, 64, 0
2, 98509, Note_on_c, 0, 46, 0
2, 98520, Note_on_c, 0, 67, 108
2, 98520, Note_on_c, 0, 48, 99
2, 98525, Control_c, 0, 64, 127
2, 98541, Note_on_c, 0, 67, 0
2, 98550, Note_on_c, 0, 70, 90
2, 98553, Note_on_c, 0, 48, 0
2, 98563, Control_c, 0, 64, 0
2, 98567, Note_on_c, 0, 70, 0
2, 98578, Control_c, 0, 64, 127
2, 98580, Note_on_c, 0, 48, 95
2, 98580, Note_on_c, 0, 76, 103
2, 98609, Note_on_c, 0, 48, 0
2, 98610, Note_on_c, 0, 70, 86
2, 98611, Note_on_c, 0, 76, 0
2, 98622, Control_c, 0, 64, 0
2, 98626, Note_on_c, 0, 70, 0
2, 98640, Note_on_c, 0, 77, 108
2, 98640, Note_on_c, 0, 53, 108
2, 98640, Control_c, 0, 64, 127
2, 98662, Note_on_c, 0, 53, 0
2, 98666, Note_on_c, 0, 77, 0
2, 98713, Control_c, 0, 64, 0
2, 98760, Note_on_c, 0, 79, 103
2, 98760, Note_on_c, 0, 64, 74
2, 98760, Note_on_c, 0, 67, 86
2, 98764, Control_c, 0, 64, 127
2, 98790, Note_on_c, 0, 76, 86
2, 98791, Note_on_c, 0, 79, 0
2, 98814, Note_on_c, 0, 76, 0
2, 98820, Note_on_c, 0, 79, 90
2, 98850, Note_on_c, 0, 76, 90
2, 98851, Note_on_c, 0, 79, 0
2, 98875, Control_c, 0, 64, 0
2, 98879, Note_on_c, 0, 76, 0
2, 98880, Note_on_c, 0, 72, 95
2, 98892, Control_c, 0, 64, 127
2, 98922, Note_on_c, 0, 72, 0
2, 98940, Note_on_c, 0, 72, 99
2, 98960, Note_on_c, 0, 67, 0
2, 98962, Note_on_c, 0, 64, 0
2, 98965, Note_on_c, 0, 72, 0
2, 99000, Note_on_c, 0, 77, 99
2, 99000, Note_on_c, 0, 65, 69
2, 99000, Note_on_c, 0, 67, 82
2, 99001, Control_c, 0, 64, 0
2, 99021, Control_c, 0, 64, 127
2, 99030, Note_on_c, 0, 74, 86
2, 99032, Note_on_c, 0, 77, 0
2, 99058, Note_on_c, 0, 74, 0
2, 99060, Note_on_c, 0, 77, 90
2, 99090, Note_on_c, 0, 74, 82
2, 99096, Note_on_c, 0, 77, 0
2, 99116, Note_on_c, 0, 74, 0
2, 99119, Control_c, 0, 64, 0
2, 99120, Note_on_c, 0, 71, 99
2, 99136, Control_c, 0, 64, 127
2, 99162, Note_on_c, 0, 71, 0
2, 99180, Note_on_c, 0, 71, 103
2, 99188, Note_on_c, 0, 67, 0
2, 99198, Note_on_c, 0, 71, 0
2, 99198, Note_on_c, 0, 65, 0
2, 99236, Control_c, 0, 64, 0
2, 99240, Note_on_c, 0, 72, 112
2, 99240, Note_on_c, 0, 64, 86
2, 99240, Note_on_c, 0, 67, 90
2, 99255, Control_c, 0, 64, 127
2, 99270, Note_on_c, 0, 74, 95
2, 99275, Note_on_c, 0, 72, 0
2, 99278, Control_c, 0, 64, 0
2, 99293, Control_c, 0, 64, 127
2, 99300, Note_on_c, 0, 76, 103
2, 99303, Note_on_c, 0, 74, 0
2, 99328, Note_on_c, 0, 76, 0
2, 99330, Note_on_c, 0, 77, 99
2, 99354, Note_on_c, 0, 77, 0
2, 99354, Control_c, 0, 64, 0
2, 99360, Note_on_c, 0, 79, 103
2, 99372, Control_c, 0, 64, 127
2, 99387, Note_on_c, 0, 79, 0
2, 99390, Note_on_c, 0, 81, 103
2, 99414, Note_on_c, 0, 81, 0
2, 99420, Note_on_c, 0, 83, 82
2, 99441, Note_on_c, 0, 83, 0
2, 99450, Note_on_c, 0, 84, 103
2, 99453, Note_on_c, 0, 67, 0
2, 99456, Note_on_c, 0, 64, 0
2, 99464, Note_on_c, 0, 84, 0
2, 99477, Control_c, 0, 64, 0
2, 99480, Note_on_c, 0, 65, 82
2, 99480, Note_on_c, 0, 84, 112
2, 99480, Note_on_c, 0, 67, 90
2, 99496, Control_c, 0, 64, 127
2, 99509, Note_on_c, 0, 84, 0
2, 99510, Note_on_c, 0, 83, 103
2, 99540, Note_on_c, 0, 81, 90
2, 99541, Note_on_c, 0, 83, 0
2, 99543, Control_c, 0, 64, 0
2, 99555, Control_c, 0, 64, 127
2, 99570, Note_on_c, 0, 79, 108
2, 99574, Note_on_c, 0, 81, 0
2, 99581, Note_on_c, 0, 79, 0
2, 99592, Control_c, 0, 64, 0
2, 99600, Note_on_c, 0, 79, 108
2, 99607, Control_c, 0, 64, 127
2, 99630, Note_on_c, 0, 79, 0
2, 99630, Note_on_c, 0, 77, 99
2, 99660, Note_on_c, 0, 76, 90
2, 99662, Note_on_c, 0, 77, 0
2, 99680, Note_on_c, 0, 67, 0
2, 99687, Note_on_c, 0, 76, 0
2, 99689, Note_on_c, 0, 65, 0
2, 99690, Note_on_c, 0, 74, 99
2, 99708, Note_on_c, 0, 74, 0
2, 99714, Control_c, 0, 64, 0
2, 99720, Note_on_c, 0, 64, 82
2, 99720, Note_on_c, 0, 79, 95
2, 99720, Note_on_c, 0, 67, 86
2, 99734, Control_c, 0, 64, 127
2, 99750, Note_on_c, 0, 76, 95
2, 99753, Note_on_c, 0, 79, 0
2, 99778, Note_on_c, 0, 76, 0
2, 99780, Note_on_c, 0, 79, 95
2, 99810, Note_on_c, 0, 79, 0
2, 99810, Note_on_c, 0, 76, 99
2, 99829, Control_c, 0, 64, 0
2, 99840, Note_on_c, 0, 76, 0
2, 99840, Note_on_c, 0, 72, 95
2, 99846, Control_c, 0, 64, 127
2, 99879, Note_on_c, 0, 72, 0
2, 99900, Note_on_c, 0, 72, 103
2, 99910, Note_on_c, 0, 67, 0
2, 99915, Note_on_c, 0, 64, 0
2, 99930, Note_on_c, 0, 72, 0
2, 99955, Control_c, 0, 64, 0
2, 99960, Note_on_c, 0, 77, 103
2, 99960, Note_on_c, 0, 67, 86
2, 99960, Note_on_c, 0, 65, 78
2, 99974, Control_c, 0, 64, 127
2, 99990, Note_on_c, 0, 74, 90
2, 99992, Note_on_c, 0, 77, 0
2, 100018, Note_on_c, 0, 74, 0
2, 100020, Note_on_c, 0, 77, 90
2, 100050, Note_on_c, 0, 77, 0
2, 100050, Note_on_c, 0, 74, 95
2, 100072, Control_c, 0, 64, 0
2, 100076, Note_on_c, 0, 74, 0
2, 100080, Note_on_c, 0, 71, 99
2, 100089, Control_c, 0, 64, 127
2, 100120, Note_on_c, 0, 71, 0
2, 100140, Note_on_c, 0, 71, 108
2, 100148, Note_on_c, 0, 67, 0
2, 100154, Note_on_c, 0, 65, 0
2, 100159, Note_on_c, 0, 71, 0
2, 100192, Control_c, 0, 64, 0
2, 100200, Note_on_c, 0, 72, 112
2, 100200, Note_on_c, 0, 64, 82
2, 100200, Note_on_c, 0, 67, 86
2, 100211, Control_c, 0, 64, 127
2, 100230, Note_on_c, 0, 74, 95
2, 100233, Note_on_c, 0, 72, 0
2, 100238, Control_c, 0, 64, 0
2, 100255, Control_c, 0, 64, 127
2, 100260, Note_on_c, 0, 76, 95
2, 100262, Note_on_c, 0, 74, 0
2, 100288, Note_on_c, 0, 76, 0
2, 100290, Note_on_c, 0, 77, 99
2, 100313, Control_c, 0, 64, 0
2, 100318, Note_on_c, 0, 77, 0
2, 100320, Note_on_c, 0, 79, 99
2, 100330, Control_c, 0, 64, 127
2, 100345, Note_on_c, 0, 79, 0
2, 100350, Note_on_c, 0, 81, 99
2, 100373, Note_on_c, 0, 81, 0
2, 100380, Note_on_c, 0, 83, 99
2, 100404, Note_on_c, 0, 83, 0
2, 100408, Note_on_c, 0, 67, 0
2, 100410, Note_on_c, 0, 84, 99
2, 100421, Note_on_c, 0, 64, 0
2, 100423, Note_on_c, 0, 84, 0
2, 100439, Control_c, 0, 64, 0
2, 100440, Note_on_c, 0, 79, 108
2, 100440, Note_on_c, 0, 65, 74
2, 100440, Note_on_c, 0, 67, 90
2, 100463, Control_c, 0, 64, 127
2, 100470, Note_on_c, 0, 77, 82
2, 100474, Note_on_c, 0, 79, 0
2, 100500, Note_on_c, 0, 77, 0
2, 100500, Note_on_c, 0, 76, 99
2, 100527, Note_on_c, 0, 67, 0
2, 100529, Note_on_c, 0, 76, 0
2, 100530, Note_on_c, 0, 74, 86
2, 100533, Note_on_c, 0, 65, 0
2, 100546, Note_on_c, 0, 74, 0
2, 100551, Control_c, 0, 64, 0
2, 100560, Note_on_c, 0, 72, 95
2, 100560, Note_on_c, 0, 67, 82
2, 100560, Note_on_c, 0, 64, 86
2, 100570, Control_c, 0, 64, 127
2, 100596, Note_on_c, 0, 72, 0
2, 100608, Note_on_c, 0, 67, 0
2, 100611, Note_on_c, 0, 64, 0
2, 100668, Control_c, 0, 64, 0
2, 100680, Note_on_c, 0, 77, 90
2, 100680, Note_on_c, 0, 67, 78
2, 100680, Note_on_c, 0, 65, 72
2, 100696, Control_c, 0, 64, 127
2, 100710, Note_on_c, 0, 74, 74
2, 100712, Note_on_c, 0, 77, 0
2, 100738, Note_on_c, 0, 74, 0
2, 100740, Note_on_c, 0, 77, 86
2, 100770, Note_on_c, 0, 77, 0
2, 100770, Note_on_c, 0, 74, 86
2, 100798, Note_on_c, 0, 74, 0
2, 100799, Control_c, 0, 64, 0
2, 100800, Note_on_c, 0, 71, 90
2, 100815, Control_c, 0, 64, 127
2, 100836, Note_on_c, 0, 71, 0
2, 100860, Note_on_c, 0, 71, 99
2, 100862, Note_on_c, 0, 67, 0
2, 100868, Note_on_c, 0, 65, 0
2, 100878, Note_on_c, 0, 71, 0
2, 100920, Control_c, 0, 64, 0
2, 100920, Note_on_c, 0, 72, 112
2, 100920, Note_on_c, 0, 64, 74
2, 100920, Note_on_c, 0, 67, 82
2, 100940, Control_c, 0, 64, 127
2, 100950, Note_on_c, 0, 74, 99
2, 100954, Note_on_c, 0, 72, 0
2, 100961, Control_c, 0, 64, 0
2, 100974, Control_c, 0, 64, 127
2, 100980, Note_on_c, 0, 74, 0
2, 100980, Note_on_c, 0, 76, 99
2, 101006, Note_on_c, 0, 76, 0
2, 101010, Note_on_c, 0, 77, 103
2, 101034, Note_on_c, 0, 77, 0
2, 101039, Control_c, 0, 64, 0
2, 101040, Note_on_c, 0, 79, 103
2, 101053, Control_c, 0, 64, 127
2, 101066, Note_on_c, 0, 79, 0
2, 101070, Note_on_c, 0, 81, 103
2, 101092, Note_on_c, 0, 81, 0
2, 101100, Note_on_c, 0, 83, 99
2, 101117, Note_on_c, 0, 83, 0
2, 101119, Note_on_c, 0, 67, 0
2, 101124, Note_on_c, 0, 64, 0
2, 101130, Note_on_c, 0, 84, 112
2, 101143, Note_on_c, 0, 84, 0
2, 101159, Control_c, 0, 64, 0
2, 101160, Note_on_c, 0, 84, 117
2, 101160, Note_on_c, 0, 65, 82
2, 101160, Note_on_c, 0, 67, 86
2, 101179, Control_c, 0, 64, 127
2, 101190, Note_on_c, 0, 84, 0
2, 101190, Note_on_c, 0, 83, 103
2, 101220, Note_on_c, 0, 81, 95
2, 101220, Control_c, 0, 64, 0
2, 101221, Note_on_c, 0, 83, 0
2, 101235, Control_c, 0, 64, 127
2, 101250, Note_on_c, 0, 79, 90
2, 101255, Note_on_c, 0, 81, 0
2, 101275, Control_c, 0, 64, 0
2, 101276, Note_on_c, 0, 79, 0
2, 101280, Note_on_c, 0, 81, 103
2, 101292, Control_c, 0, 64, 127
2, 101309, Note_on_c, 0, 81, 0
2, 101310, Note_on_c, 0, 79, 112
2, 101331, Note_on_c, 0, 79, 0
2, 101340, Note_on_c, 0, 81, 103
2, 101362, Note_on_c, 0, 81, 0
2, 101364, Note_on_c, 0, 67, 0
2, 101370, Note_on_c, 0, 65, 0
2, 101370, Note_on_c, 0, 83, 103
2, 101387, Note_on_c, 0, 83, 0
2, 101395, Control_c, 0, 64, 0
2, 101400, Note_on_c, 0, 64, 95
2, 101400, Note_on_c, 0, 67, 99
2, 101400, Note_on_c, 0, 84, 117
2, 101414, Control_c, 0, 64, 127
2, 101430, Note_on_c, 0, 84, 0
2, 101430, Note_on_c, 0, 83, 108
2, 101448, Note_on_c, 0, 83, 0
2, 101460, Note_on_c, 0, 84, 90
2, 101481, Note_on_c, 0, 84, 0
2, 101490, Note_on_c, 0, 86, 112
2, 101506, Note_on_c, 0, 86, 0
2, 101513, Control_c, 0, 64, 0
2, 101520, Note_on_c, 0, 88, 123
2, 101533, Control_c, 0, 64, 127
2, 101577, Note_on_c, 0, 88, 0
2, 101580, Note_on_c, 0, 79, 103
2, 101596, Note_on_c, 0, 67, 0
2, 101597, Note_on_c, 0, 79, 0
2, 101601, Note_on_c, 0, 64, 0
2, 101633, Control_c, 0, 64, 0
2, 101640, Note_on_c, 0, 77, 99
2, 101640, Note_on_c, 0, 65, 72
2, 101640, Note_on_c, 0, 67, 74
2, 101653, Control_c, 0, 64, 127
2, 101670, Note_on_c, 0, 74, 82
2, 101672, Note_on_c, 0, 77, 0
2, 101698, Note_on_c, 0, 74, 0
2, 101700, Note_on_c, 0, 77, 86
2, 101730, Note_on_c, 0, 74, 82
2, 101732, Note_on_c, 0, 77, 0
2, 101757, Control_c, 0, 64, 0
2, 101759, Note_on_c, 0, 74, 0
2, 101760, Note_on_c, 0, 71, 103
2, 101773, Control_c, 0, 64, 127
2, 101801, Note_on_c, 0, 71, 0
2, 101820, Note_on_c, 0, 71, 103
2, 101835, Note_on_c, 0, 67, 0
2, 101838, Note_on_c, 0, 71, 0
2, 101840, Note_on_c, 0, 65, 0
2, 101873, Control_c, 0, 64, 0
2, 101880, Note_on_c, 0, 72, 103
2, 101880, Note_on_c, 0, 64, 72
2, 101880, Note_on_c, 0, 67, 72
2, 101893, Control_c, 0, 64, 127
2, 101910, Note_on_c, 0, 74, 90
2, 101912, Note_on_c, 0, 72, 0
2, 101940, Note_on_c, 0, 76, 99
2, 101942, Note_on_c, 0, 74, 0
2, 101967, Note_on_c, 0, 76, 0
2, 101970, Note_on_c, 0, 77, 103
2, 101997, Note_on_c, 0, 77, 0
2, 101997, Control_c, 0, 64, 0
2, 102000, Note_on_c, 0, 79, 99
2, 102014, Control_c, 0, 64, 127
2, 102030, Note_on_c, 0, 79, 0
2, 102030, Note_on_c, 0, 81, 86
2, 102050, Control_c, 0, 64, 0
2, 102056, Note_on_c, 0, 81, 0
2, 102060, Note_on_c, 0, 83, 103
2, 102063, Control_c, 0, 64, 127
2, 102084, Note_on_c, 0, 83, 0
2, 102090, Note_on_c, 0, 84, 86
2, 102099, Note_on_c, 0, 67, 0
2, 102103, Note_on_c, 0, 64, 0
2, 102105, Note_on_c, 0, 84, 0
2, 102109, Control_c, 0, 64, 0
2, 102120, Note_on_c, 0, 84, 99
2, 102120, Note_on_c, 0, 65, 70
2, 102120, Note_on_c, 0, 67, 82
2, 102128, Control_c, 0, 64, 127
2, 102149, Note_on_c, 0, 84, 0
2, 102150, Note_on_c, 0, 83, 90
2, 102180, Note_on_c, 0, 81, 95
2, 102183, Control_c, 0, 64, 0
2, 102184, Note_on_c, 0, 83, 0
2, 102198, Control_c, 0, 64, 127
2, 102210, Note_on_c, 0, 79, 99
2, 102215, Note_on_c, 0, 81, 0
2, 102223, Note_on_c, 0, 79, 0
2, 102236, Control_c, 0, 64, 0
2, 102240, Note_on_c, 0, 79, 99
2, 102252, Control_c, 0, 64, 127
2, 102269, Note_on_c, 0, 79, 0
2, 102270, Note_on_c, 0, 77, 95
2, 102300, Note_on_c, 0, 76, 90
2, 102301, Note_on_c, 0, 77, 0
2, 102329, Note_on_c, 0, 76, 0
2, 102330, Note_on_c, 0, 67, 0
2, 102330, Note_on_c, 0, 74, 95
2, 102337, Note_on_c, 0, 65, 0
2, 102351, Note_on_c, 0, 74, 0
2, 102352, Control_c, 0, 64, 0
2, 102360, Note_on_c, 0, 76, 99
2, 102360, Note_on_c, 0, 64, 72
2, 102360, Note_on_c, 0, 67, 74
2, 102373, Control_c, 0, 64, 127
2, 102390, Note_on_c, 0, 74, 86
2, 102393, Note_on_c, 0, 76, 0
2, 102410, Note_on_c, 0, 74, 0
2, 102420, Note_on_c, 0, 76, 99
2, 102435, Note_on_c, 0, 76, 0
2, 102450, Note_on_c, 0, 79, 86
2, 102468, Control_c, 0, 64, 0
2, 102477, Note_on_c, 0, 79, 0
2, 102480, Note_on_c, 0, 72, 103
2, 102486, Control_c, 0, 64, 127
2, 102519, Note_on_c, 0, 72, 0
2, 102532, Note_on_c, 0, 64, 0
2, 102533, Note_on_c, 0, 67, 0
2, 102594, Control_c, 0, 64, 0
2, 102600, Note_on_c, 0, 81, 90
2, 102600, Note_on_c, 0, 84, 99
2, 102600, Note_on_c, 0, 65, 86
2, 102600, Note_on_c, 0, 81, 123
2, 102600, Note_on_c, 0, 65, 74
2, 102600, Note_on_c, 0, 84, 112
2, 102607, Control_c, 0, 64, 127
2, 102637, Note_on_c, 0, 65, 0
2, 102642, Note_on_c, 0, 65, 0
2, 102660, Note_on_c, 0, 65, 72
2, 102675, Note_on_c, 0, 65, 0
2, 102708, Note_on_c, 0, 84, 0
2, 102709, Note_on_c, 0, 81, 0
2, 102720, Note_on_c, 0, 65, 78
2, 102728, Note_on_c, 0, 84, 0
2, 102730, Note_on_c, 0, 81, 0
2, 102736, Note_on_c, 0, 65, 0
2, 102779, Control_c, 0, 64, 0
2, 102780, Note_on_c, 0, 82, 103
2, 102780, Note_on_c, 0, 79, 108
2, 102780, Note_on_c, 0, 65, 82
2, 102795, Control_c, 0, 64, 127
2, 102804, Note_on_c, 0, 65, 0
2, 102808, Note_on_c, 0, 79, 0
2, 102814, Note_on_c, 0, 82, 0
2, 102840, Note_on_c, 0, 77, 103
2, 102840, Note_on_c, 0, 65, 86
2, 102840, Note_on_c, 0, 81, 108
2, 102841, Control_c, 0, 64, 0
2, 102857, Control_c, 0, 64, 127
2, 102869, Note_on_c, 0, 65, 0
2, 102899, Note_on_c, 0, 81, 0
2, 102900, Note_on_c, 0, 77, 0
2, 102900, Note_on_c, 0, 65, 78
2, 102914, Note_on_c, 0, 65, 0
2, 102957, Control_c, 0, 64, 0
2, 102960, Note_on_c, 0, 77, 117
2, 102960, Note_on_c, 0, 65, 82
2, 102960, Note_on_c, 0, 81, 108
2, 102973, Control_c, 0, 64, 127
2, 102993, Note_on_c, 0, 65, 0
2, 103000, Note_on_c, 0, 81, 0
2, 103004, Note_on_c, 0, 77, 0
2, 103020, Note_on_c, 0, 65, 86
2, 103037, Note_on_c, 0, 65, 0
2, 103074, Control_c, 0, 64, 0
2, 103080, Note_on_c, 0, 72, 112
2, 103080, Note_on_c, 0, 81, 103
2, 103080, Note_on_c, 0, 65, 86
2, 103095, Control_c, 0, 64, 127
2, 103120, Note_on_c, 0, 65, 0
2, 103140, Note_on_c, 0, 65, 86
2, 103160, Note_on_c, 0, 65, 0
2, 103197, Note_on_c, 0, 81, 0
2, 103200, Note_on_c, 0, 65, 90
2, 103204, Note_on_c, 0, 72, 0
2, 103215, Note_on_c, 0, 65, 0
2, 103257, Control_c, 0, 64, 0
2, 103260, Note_on_c, 0, 65, 82
2, 103260, Note_on_c, 0, 70, 95
2, 103260, Note_on_c, 0, 79, 103
2, 103271, Control_c, 0, 64, 127
2, 103286, Note_on_c, 0, 79, 0
2, 103286, Note_on_c, 0, 65, 0
2, 103288, Note_on_c, 0, 70, 0
2, 103314, Control_c, 0, 64, 0
2, 103320, Note_on_c, 0, 77, 99
2, 103320, Note_on_c, 0, 69, 99
2, 103320, Note_on_c, 0, 65, 90
2, 103340, Control_c, 0, 64, 127
2, 103354, Note_on_c, 0, 65, 0
2, 103379, Note_on_c, 0, 77, 0
2, 103380, Note_on_c, 0, 65, 90
2, 103381, Note_on_c, 0, 69, 0
2, 103395, Note_on_c, 0, 65, 0
2, 103435, Control_c, 0, 64, 0
2, 103440, Note_on_c, 0, 65, 90
2, 103440, Note_on_c, 0, 77, 99
2, 103440, Note_on_c, 0, 69, 103
2, 103452, Control_c, 0, 64, 127
2, 103462, Note_on_c, 0, 65, 0
2, 103497, Note_on_c, 0, 77, 0
2, 103500, Note_on_c, 0, 65, 95
2, 103501, Note_on_c, 0, 69, 0
2, 103517, Note_on_c, 0, 65, 0
2, 103554, Control_c, 0, 64, 0
2, 103560, Note_on_c, 0, 76, 103
2, 103560, Note_on_c, 0, 79, 103
2, 103577, Control_c, 0, 64, 127
2, 103609, Control_c, 0, 64, 0
2, 103620, Note_on_c, 0, 72, 86
2, 103620, Note_on_c, 0, 64, 99
2, 103631, Note_on_c, 0, 79, 0
2, 103633, Note_on_c, 0, 76, 0
2, 103661, Note_on_c, 0, 64, 0
2, 103662, Note_on_c, 0, 72, 0
2, 103680, Note_on_c, 0, 72, 74
2, 103680, Note_on_c, 0, 64, 99
2, 103681, Control_c, 0, 64, 127
2, 103706, Note_on_c, 0, 64, 0
2, 103707, Note_on_c, 0, 72, 0
2, 103733, Control_c, 0, 64, 0
2, 103740, Note_on_c, 0, 64, 99
2, 103740, Note_on_c, 0, 72, 82
2, 103755, Control_c, 0, 64, 127
2, 103777, Note_on_c, 0, 72, 0
2, 103779, Note_on_c, 0, 64, 0
2, 103794, Control_c, 0, 64, 0
2, 103800, Note_on_c, 0, 81, 108
2, 103800, Note_on_c, 0, 77, 108
2, 103847, Control_c, 0, 64, 127
2, 103860, Note_on_c, 0, 77, 0
2, 103860, Note_on_c, 0, 72, 65
2, 103860, Note_on_c, 0, 65, 86
2, 103863, Note_on_c, 0, 81, 0
2, 103863, Control_c, 0, 64, 0
2, 103888, Control_c, 0, 64, 127
2, 103898, Note_on_c, 0, 65, 0
2, 103899, Note_on_c, 0, 72, 0
2, 103911, Control_c, 0, 64, 0
2, 103920, Note_on_c, 0, 72, 86
2, 103920, Note_on_c, 0, 65, 99
2, 103933, Control_c, 0, 64, 127
2, 103944, Note_on_c, 0, 72, 0
2, 103947, Note_on_c, 0, 65, 0
2, 103973, Control_c, 0, 64, 0
2, 103980, Note_on_c, 0, 65, 103
2, 103980, Note_on_c, 0, 72, 90
2, 103992, Control_c, 0, 64, 127
2, 104014, Note_on_c, 0, 72, 0
2, 104018, Note_on_c, 0, 65, 0
2, 104032, Control_c, 0, 64, 0
2, 104040, Note_on_c, 0, 84, 99
2, 104040, Note_on_c, 0, 76, 117
2, 104063, Control_c, 0, 64, 127
2, 104093, Control_c, 0, 64, 0
2, 104098, Note_on_c, 0, 76, 0
2, 104099, Note_on_c, 0, 84, 0
2, 104100, Note_on_c, 0, 67, 86
2, 104100, Note_on_c, 0, 72, 95
2, 104114, Control_c, 0, 64, 127
2, 104132, Note_on_c, 0, 67, 0
2, 104133, Note_on_c, 0, 72, 0
2, 104134, Control_c, 0, 64, 0
2, 104160, Note_on_c, 0, 67, 86
2, 104160, Note_on_c, 0, 72, 99
2, 104166, Control_c, 0, 64, 127
2, 104178, Note_on_c, 0, 72, 0
2, 104183, Note_on_c, 0, 67, 0
2, 104220, Note_on_c, 0, 67, 90
2, 104220, Note_on_c, 0, 72, 99
2, 104236, Note_on_c, 0, 72, 0
2, 104236, Note_on_c, 0, 67, 0
2, 104269, Control_c, 0, 64, 0
2, 104280, Note_on_c, 0, 81, 103
2, 104280, Note_on_c, 0, 77, 112
2, 104280, Note_on_c, 0, 65, 99
2, 104280, Note_on_c, 0, 69, 103
2, 104292, Control_c, 0, 64, 127
2, 104295, Note_on_c, 0, 77, 0
2, 104296, Note_on_c, 0, 81, 0
2, 104300, Note_on_c, 0, 69, 0
2, 104302, Note_on_c, 0, 65, 0
2, 104423, Control_c, 0, 64, 0
2, 104520, Note_on_c, 0, 60, 86
2, 104520, Note_on_c, 0, 76, 103
2, 104520, Note_on_c, 0, 79, 99
2, 104528, Control_c, 0, 64, 127
2, 104557, Note_on_c, 0, 60, 0
2, 104580, Note_on_c, 0, 60, 86
2, 104597, Note_on_c, 0, 60, 0
2, 104626, Note_on_c, 0, 79, 0
2, 104627, Note_on_c, 0, 76, 0
2, 104640, Note_on_c, 0, 60, 82
2, 104653, Note_on_c, 0, 60, 0
2, 104699, Control_c, 0, 64, 0
2, 104700, Note_on_c, 0, 77, 112
2, 104700, Note_on_c, 0, 60, 82
2, 104700, Note_on_c, 0, 74, 123
2, 104712, Control_c, 0, 64, 127
2, 104729, Note_on_c, 0, 60, 0
2, 104735, Note_on_c, 0, 77, 0
2, 104737, Note_on_c, 0, 74, 0
2, 104754, Control_c, 0, 64, 0
2, 104760, Note_on_c, 0, 60, 74
2, 104760, Note_on_c, 0, 72, 103
2, 104760, Note_on_c, 0, 76, 103
2, 104768, Control_c, 0, 64, 127
2, 104792, Note_on_c, 0, 60, 0
2, 104793, Note_on_c, 0, 72, 0
2, 104798, Note_on_c, 0, 76, 0
2, 104810, Control_c, 0, 64, 0
2, 104820, Note_on_c, 0, 77, 103
2, 104820, Note_on_c, 0, 74, 103
2, 104820, Note_on_c, 0, 60, 86
2, 104821, Control_c, 0, 64, 127
2, 104844, Note_on_c, 0, 60, 0
2, 104844, Note_on_c, 0, 74, 0
2, 104846, Note_on_c, 0, 77, 0
2, 104865, Control_c, 0, 64, 0
2, 104878, Control_c, 0, 64, 127
2, 104880, Note_on_c, 0, 60, 90
2, 104880, Note_on_c, 0, 79, 103
2, 104880, Note_on_c, 0, 76, 99
2, 104898, Note_on_c, 0, 76, 0
2, 104898, Note_on_c, 0, 79, 0
2, 104901, Note_on_c, 0, 60, 0
2, 104926, Control_c, 0, 64, 0
2, 104939, Control_c, 0, 64, 127
2, 104940, Note_on_c, 0, 60, 90
2, 104940, Note_on_c, 0, 81, 99
2, 104940, Note_on_c, 0, 77, 108
2, 104960, Note_on_c, 0, 77, 0
2, 104962, Note_on_c, 0, 81, 0
2, 104965, Note_on_c, 0, 60, 0
2, 104991, Control_c, 0, 64, 0
2, 105000, Note_on_c, 0, 82, 108
2, 105000, Note_on_c, 0, 79, 103
2, 105000, Note_on_c, 0, 60, 95
2, 105007, Control_c, 0, 64, 127
2, 105031, Note_on_c, 0, 60, 0
2, 105048, Note_on_c, 0, 79, 0
2, 105051, Note_on_c, 0, 82, 0
2, 105060, Note_on_c, 0, 60, 86
2, 105075, Note_on_c, 0, 60, 0
2, 105110, Control_c, 0, 64, 0
2, 105120, Note_on_c, 0, 77, 95
2, 105120, Note_on_c, 0, 81, 90
2, 105120, Note_on_c, 0, 60, 90
2, 105126, Control_c, 0, 64, 127
2, 105156, Note_on_c, 0, 60, 0
2, 105171, Note_on_c, 0, 81, 0
2, 105171, Note_on_c, 0, 77, 0
2, 105180, Note_on_c, 0, 60, 90
2, 105195, Note_on_c, 0, 60, 0
2, 105231, Control_c, 0, 64, 0
2, 105240, Note_on_c, 0, 60, 82
2, 105240, Note_on_c, 0, 79, 95
2, 105240, Note_on_c, 0, 76, 99
2, 105246, Control_c, 0, 64, 127
2, 105272, Note_on_c, 0, 76, 0
2, 105272, Note_on_c, 0, 60, 0
2, 105273, Note_on_c, 0, 79, 0
2, 105300, Note_on_c, 0, 60, 82
2, 105315, Note_on_c, 0, 60, 0
2, 105354, Control_c, 0, 64, 0
2, 105360, Note_on_c, 0, 60, 82
2, 105374, Control_c, 0, 64, 127
2, 105396, Note_on_c, 0, 60, 0
2, 105420, Note_on_c, 0, 60, 95
2, 105439, Note_on_c, 0, 60, 0
2, 105475, Control_c, 0, 64, 0
2, 105480, Note_on_c, 0, 81, 103
2, 105480, Note_on_c, 0, 84, 99
2, 105480, Note_on_c, 0, 65, 86
2, 105492, Control_c, 0, 64, 127
2, 105521, Note_on_c, 0, 65, 0
2, 105540, Note_on_c, 0, 65, 62
2, 105543, Note_on_c, 0, 81, 0
2, 105546, Note_on_c, 0, 84, 0
2, 105558, Note_on_c, 0, 65, 0
2, 105600, Note_on_c, 0, 65, 70
2, 105616, Note_on_c, 0, 65, 0
2, 105657, Control_c, 0, 64, 0
2, 105660, Note_on_c, 0, 82, 99
2, 105660, Note_on_c, 0, 65, 86
2, 105660, Note_on_c, 0, 79, 108
2, 105670, Control_c, 0, 64, 127
2, 105681, Note_on_c, 0, 65, 0
2, 105684, Note_on_c, 0, 79, 0
2, 105685, Note_on_c, 0, 82, 0
2, 105715, Control_c, 0, 64, 0
2, 105720, Note_on_c, 0, 77, 103
2, 105720, Note_on_c, 0, 81, 112
2, 105720, Note_on_c, 0, 65, 86
2, 105727, Control_c, 0, 64, 127
2, 105740, Note_on_c, 0, 65, 0
2, 105745, Note_on_c, 0, 77, 0
2, 105755, Note_on_c, 0, 81, 0
2, 105774, Control_c, 0, 64, 0
2, 105780, Note_on_c, 0, 65, 90
2, 105780, Note_on_c, 0, 82, 112
2, 105780, Note_on_c, 0, 79, 123
2, 105786, Control_c, 0, 64, 127
2, 105801, Note_on_c, 0, 65, 0
2, 105810, Note_on_c, 0, 79, 0
2, 105816, Note_on_c, 0, 82, 0
2, 105834, Control_c, 0, 64, 0
2, 105840, Note_on_c, 0, 81, 112
2, 105840, Note_on_c, 0, 84, 108
2, 105840, Note_on_c, 0, 65, 95
2, 105845, Control_c, 0, 64, 127
2, 105861, Note_on_c, 0, 65, 0
2, 105862, Note_on_c, 0, 81, 0
2, 105865, Note_on_c, 0, 84, 0
2, 105889, Control_c, 0, 64, 0
2, 105900, Note_on_c, 0, 86, 112
2, 105900, Note_on_c, 0, 65, 99
2, 105900, Note_on_c, 0, 82, 112
2, 105901, Control_c, 0, 64, 127
2, 105916, Note_on_c, 0, 86, 0
2, 105917, Note_on_c, 0, 65, 0
2, 105919, Note_on_c, 0, 82, 0
2, 105952, Control_c, 0, 64, 0
2, 105960, Note_on_c, 0, 84, 112
2, 105960, Note_on_c, 0, 87, 108
2, 105960, Note_on_c, 0, 65, 95
2, 105968, Control_c, 0, 64, 127
2, 105990, Note_on_c, 0, 65, 0
2, 106002, Note_on_c, 0, 87, 0
2, 106006, Note_on_c, 0, 84, 0
2, 106020, Note_on_c, 0, 65, 86
2, 106036, Note_on_c, 0, 65, 0
2, 106070, Control_c, 0, 64, 0
2, 106080, Note_on_c, 0, 86, 99
2, 106080, Note_on_c, 0, 82, 99
2, 106080, Note_on_c, 0, 65, 90
2, 106085, Control_c, 0, 64, 127
2, 106109, Note_on_c, 0, 65, 0
2, 106124, Note_on_c, 0, 86, 0
2, 106125, Note_on_c, 0, 82, 0
2, 106140, Note_on_c, 0, 65, 82
2, 106157, Note_on_c, 0, 65, 0
2, 106189, Control_c, 0, 64, 0
2, 106200, Note_on_c, 0, 65, 86
2, 106200, Note_on_c, 0, 81, 103
2, 106200, Note_on_c, 0, 84, 86
2, 106206, Control_c, 0, 64, 127
2, 106228, Note_on_c, 0, 65, 0
2, 106242, Note_on_c, 0, 84, 0
2, 106242, Note_on_c, 0, 81, 0
2, 106260, Note_on_c, 0, 65, 86
2, 106275, Note_on_c, 0, 65, 0
2, 106312, Control_c, 0, 64, 0
2, 106320, Note_on_c, 0, 65, 90
2, 106328, Control_c, 0, 64, 127
2, 106341, Note_on_c, 0, 65, 0
2, 106380, Note_on_c, 0, 65, 90
2, 106393, Note_on_c, 0, 65, 0
2, 106433, Control_c, 0, 64, 0
2, 106440, Note_on_c, 0, 70, 74
2, 106440, Note_on_c, 0, 82, 99
2, 106440, Note_on_c, 0, 74, 103
2, 106451, Control_c, 0, 64, 127
2, 106477, Note_on_c, 0, 70, 0
2, 106500, Note_on_c, 0, 70, 74
2, 106528, Note_on_c, 0, 70, 0
2, 106557, Control_c, 0, 64, 0
2, 106560, Note_on_c, 0, 67, 86
2, 106571, Control_c, 0, 64, 127
2, 106592, Note_on_c, 0, 67, 0
2, 106620, Note_on_c, 0, 67, 86
2, 106623, Note_on_c, 0, 82, 0
2, 106626, Note_on_c, 0, 74, 0
2, 106633, Note_on_c, 0, 67, 0
2, 106673, Control_c, 0, 64, 0
2, 106680, Note_on_c, 0, 74, 112
2, 106680, Note_on_c, 0, 82, 103
2, 106680, Note_on_c, 0, 64, 90
2, 106688, Control_c, 0, 64, 127
2, 106715, Note_on_c, 0, 64, 0
2, 106740, Note_on_c, 0, 64, 74
2, 106763, Note_on_c, 0, 82, 0
2, 106766, Note_on_c, 0, 64, 0
2, 106768, Note_on_c, 0, 74, 0
2, 106795, Control_c, 0, 64, 0
2, 106800, Note_on_c, 0, 81, 99
2, 106800, Note_on_c, 0, 72, 99
2, 106800, Note_on_c, 0, 65, 90
2, 106811, Control_c, 0, 64, 127
2, 106829, Note_on_c, 0, 65, 0
2, 106860, Note_on_c, 0, 65, 86
2, 106871, Note_on_c, 0, 65, 0
2, 106873, Note_on_c, 0, 81, 0
2, 106878, Note_on_c, 0, 72, 0
2, 106915, Control_c, 0, 64, 0
2, 106920, Note_on_c, 0, 70, 90
2, 106920, Note_on_c, 0, 81, 99
2, 106920, Note_on_c, 0, 74, 99
2, 106933, Control_c, 0, 64, 127
2, 106963, Note_on_c, 0, 70, 0
2, 106980, Note_on_c, 0, 70, 90
2, 106989, Note_on_c, 0, 74, 0
2, 106992, Note_on_c, 0, 81, 0
2, 106997, Note_on_c, 0, 70, 0
2, 107030, Control_c, 0, 64, 0
2, 107040, Note_on_c, 0, 79, 95
2, 107040, Note_on_c, 0, 70, 95
2, 107040, Note_on_c, 0, 74, 103
2, 107044, Control_c, 0, 64, 127
2, 107067, Note_on_c, 0, 74, 0
2, 107067, Note_on_c, 0, 79, 0
2, 107073, Note_on_c, 0, 70, 0
2, 107087, Control_c, 0, 64, 0
2, 107099, Control_c, 0, 64, 127
2, 107100, Note_on_c, 0, 77, 95
2, 107100, Note_on_c, 0, 71, 95
2, 107100, Note_on_c, 0, 74, 95
2, 107119, Note_on_c, 0, 77, 0
2, 107125, Note_on_c, 0, 71, 0
2, 107132, Note_on_c, 0, 74, 0
2, 107147, Control_c, 0, 64, 0
2, 107160, Note_on_c, 0, 72, 108
2, 107165, Control_c, 0, 64, 127
2, 107270, Control_c, 0, 64, 0
2, 107275, Note_on_c, 0, 72, 0
2, 107280, Note_on_c, 0, 60, 99
2, 107292, Control_c, 0, 64, 127
2, 107332, Note_on_c, 0, 60, 0
2, 107392, Control_c, 0, 64, 0
2, 107400, Note_on_c, 0, 81, 82
2, 107400, Note_on_c, 0, 84, 90
2, 107400, Note_on_c, 0, 65, 67
2, 107412, Control_c, 0, 64, 127
2, 107438, Note_on_c, 0, 65, 0
2, 107460, Note_on_c, 0, 65, 67
2, 107479, Note_on_c, 0, 65, 0
2, 107489, Note_on_c, 0, 81, 0
2, 107491, Note_on_c, 0, 84, 0
2, 107520, Note_on_c, 0, 65, 72
2, 107539, Note_on_c, 0, 65, 0
2, 107580, Note_on_c, 0, 82, 82
2, 107580, Note_on_c, 0, 79, 86
2, 107580, Note_on_c, 0, 65, 67
2, 107592, Note_on_c, 0, 65, 0
2, 107597, Note_on_c, 0, 79, 0
2, 107598, Note_on_c, 0, 82, 0
2, 107636, Control_c, 0, 64, 0
2, 107640, Note_on_c, 0, 65, 72
2, 107640, Note_on_c, 0, 81, 86
2, 107640, Note_on_c, 0, 77, 78
2, 107652, Control_c, 0, 64, 127
2, 107669, Note_on_c, 0, 65, 0
2, 107693, Note_on_c, 0, 77, 0
2, 107693, Note_on_c, 0, 81, 0
2, 107700, Note_on_c, 0, 65, 67
2, 107715, Note_on_c, 0, 65, 0
2, 107751, Control_c, 0, 64, 0
2, 107760, Note_on_c, 0, 65, 72
2, 107760, Note_on_c, 0, 77, 72
2, 107760, Note_on_c, 0, 81, 86
2, 107765, Control_c, 0, 64, 127
2, 107796, Note_on_c, 0, 65, 0
2, 107810, Note_on_c, 0, 81, 0
2, 107812, Note_on_c, 0, 77, 0
2, 107820, Note_on_c, 0, 65, 74
2, 107834, Note_on_c, 0, 65, 0
2, 107873, Control_c, 0, 64, 0
2, 107880, Note_on_c, 0, 77, 86
2, 107880, Note_on_c, 0, 65, 86
2, 107880, Note_on_c, 0, 81, 90
2, 107887, Control_c, 0, 64, 127
2, 107912, Note_on_c, 0, 65, 0
2, 107940, Note_on_c, 0, 65, 74
2, 107959, Note_on_c, 0, 65, 0
2, 107972, Note_on_c, 0, 77, 0
2, 107973, Note_on_c, 0, 81, 0
2, 108000, Note_on_c, 0, 65, 74
2, 108016, Note_on_c, 0, 65, 0
2, 108054, Control_c, 0, 64, 0
2, 108060, Note_on_c, 0, 79, 86
2, 108060, Note_on_c, 0, 65, 78
2, 108060, Note_on_c, 0, 76, 90
2, 108068, Control_c, 0, 64, 127
2, 108086, Note_on_c, 0, 65, 0
2, 108091, Note_on_c, 0, 76, 0
2, 108093, Note_on_c, 0, 79, 0
2, 108114, Control_c, 0, 64, 0
2, 108120, Note_on_c, 0, 74, 86
2, 108120, Note_on_c, 0, 65, 72
2, 108120, Note_on_c, 0, 77, 82
2, 108120, Note_on_c, 0, 77, 74
2, 108120, Note_on_c, 0, 74, 82
2, 108120, Control_c, 0, 64, 127
2, 108120, Note_on_c, 0, 62, 72
2, 108155, Note_on_c, 0, 62, 0
2, 108155, Note_on_c, 0, 65, 0
2, 108168, Note_on_c, 0, 77, 0
2, 108169, Note_on_c, 0, 74, 0
2, 108180, Note_on_c, 0, 62, 69
2, 108195, Note_on_c, 0, 62, 0
2, 108215, Note_on_c, 0, 74, 0
2, 108217, Note_on_c, 0, 77, 0
2, 108240, Note_on_c, 0, 74, 99
2, 108240, Note_on_c, 0, 77, 90
2, 108240, Note_on_c, 0, 62, 66
2, 108260, Note_on_c, 0, 62, 0
2, 108268, Note_on_c, 0, 74, 0
2, 108269, Note_on_c, 0, 77, 0
2, 108300, Note_on_c, 0, 62, 82
2, 108316, Note_on_c, 0, 62, 0
2, 108354, Control_c, 0, 64, 0
2, 108360, Note_on_c, 0, 77, 103
2, 108360, Note_on_c, 0, 74, 103
2, 108360, Note_on_c, 0, 58, 74
2, 108372, Control_c, 0, 64, 127
2, 108398, Note_on_c, 0, 58, 0
2, 108420, Note_on_c, 0, 58, 67
2, 108429, Note_on_c, 0, 74, 0
2, 108432, Note_on_c, 0, 77, 0
2, 108439, Note_on_c, 0, 58, 0
2, 108480, Note_on_c, 0, 58, 70
2, 108497, Note_on_c, 0, 58, 0
2, 108540, Note_on_c, 0, 72, 90
2, 108540, Note_on_c, 0, 75, 78
2, 108540, Note_on_c, 0, 58, 74
2, 108541, Control_c, 0, 64, 0
2, 108557, Control_c, 0, 64, 127
2, 108566, Note_on_c, 0, 58, 0
2, 108567, Note_on_c, 0, 72, 0
2, 108568, Note_on_c, 0, 75, 0
2, 108595, Control_c, 0, 64, 0
2, 108600, Note_on_c, 0, 58, 74
2, 108600, Note_on_c, 0, 74, 108
2, 108600, Note_on_c, 0, 70, 86
2, 108610, Control_c, 0, 64, 127
2, 108627, Note_on_c, 0, 58, 0
2, 108631, Note_on_c, 0, 74, 0
2, 108634, Note_on_c, 0, 70, 0
2, 108660, Note_on_c, 0, 58, 82
2, 108674, Note_on_c, 0, 58, 0
2, 108718, Control_c, 0, 64, 0
2, 108720, Note_on_c, 0, 74, 103
2, 108720, Note_on_c, 0, 82, 99
2, 108720, Note_on_c, 0, 58, 74
2, 108734, Control_c, 0, 64, 127
2, 108748, Note_on_c, 0, 58, 0
2, 108775, Note_on_c, 0, 82, 0
2, 108780, Note_on_c, 0, 58, 82
2, 108784, Note_on_c, 0, 74, 0
2, 108801, Note_on_c, 0, 58, 0
2, 108830, Control_c, 0, 64, 0
2, 108840, Note_on_c, 0, 81, 103
2, 108840, Note_on_c, 0, 60, 86
2, 108840, Note_on_c, 0, 72, 99
2, 108845, Control_c, 0, 64, 127
2, 108860, Note_on_c, 0, 81, 0
2, 108862, Note_on_c, 0, 72, 0
2, 108865, Note_on_c, 0, 60, 0
2, 108900, Note_on_c, 0, 79, 99
2, 108900, Note_on_c, 0, 70, 82
2, 108900, Note_on_c, 0, 60, 90
2, 108914, Note_on_c, 0, 60, 0
2, 108918, Note_on_c, 0, 70, 0
2, 108920, Note_on_c, 0, 79, 0
2, 108949, Control_c, 0, 64, 0
2, 108960, Note_on_c, 0, 60, 82
2, 108960, Note_on_c, 0, 77, 90
2, 108960, Note_on_c, 0, 69, 99
2, 108964, Control_c, 0, 64, 127
2, 108987, Note_on_c, 0, 60, 0
2, 108991, Note_on_c, 0, 77, 0
2, 108994, Note_on_c, 0, 69, 0
2, 109020, Note_on_c, 0, 76, 90
2, 109020, Note_on_c, 0, 67, 95
2, 109020, Note_on_c, 0, 60, 82
2, 109034, Note_on_c, 0, 67, 0
2, 109039, Note_on_c, 0, 60, 0
2, 109042, Note_on_c, 0, 76, 0
2, 109078, Control_c, 0, 64, 0
2, 109080, Note_on_c, 0, 69, 90
2, 109080, Note_on_c, 0, 77, 90
2, 109080, Note_on_c, 0, 72, 90
2, 109080, Note_on_c, 0, 65, 103
2, 109096, Control_c, 0, 64, 127
2, 109200, Control_c, 0, 64, 0
2, 109203, Note_on_c, 0, 65, 0
2, 109205, Note_on_c, 0, 72, 0
2, 109207, Note_on_c, 0, 69, 0
2, 109210, Note_on_c, 0, 77, 0
2, 109320, Note_on_c, 0, 67, 67
2, 109320, Note_on_c, 0, 64, 78
2, 109320, Note_on_c, 0, 79, 99
2, 109338, Control_c, 0, 64, 127
2, 109350, Note_on_c, 0, 76, 86
2, 109352, Note_on_c, 0, 79, 0
2, 109376, Note_on_c, 0, 76, 0
2, 109380, Note_on_c, 0, 79, 86
2, 109410, Note_on_c, 0, 76, 90
2, 109415, Note_on_c, 0, 79, 0
2, 109432, Note_on_c, 0, 76, 0
2, 109440, Note_on_c, 0, 72, 99
2, 109441, Note_on_c, 0, 64, 0
2, 109442, Note_on_c, 0, 67, 0
2, 109445, Control_c, 0, 64, 0
2, 109453, Note_on_c, 0, 72, 0
2, 109500, Note_on_c, 0, 72, 103
2, 109516, Note_on_c, 0, 72, 0
2, 109560, Note_on_c, 0, 77, 90
2, 109560, Note_on_c, 0, 67, 67
2, 109560, Note_on_c, 0, 65, 72
2, 109578, Control_c, 0, 64, 127
2, 109590, Note_on_c, 0, 74, 86
2, 109593, Note_on_c, 0, 77, 0
2, 109615, Note_on_c, 0, 74, 0
2, 109620, Note_on_c, 0, 77, 90
2, 109638, Control_c, 0, 64, 0
2, 109650, Note_on_c, 0, 77, 0
2, 109650, Note_on_c, 0, 74, 82
2, 109664, Note_on_c, 0, 74, 0
2, 109680, Note_on_c, 0, 71, 95
2, 109692, Note_on_c, 0, 71, 0
2, 109740, Note_on_c, 0, 71, 99
2, 109753, Note_on_c, 0, 71, 0
2, 109771, Note_on_c, 0, 67, 0
2, 109783, Note_on_c, 0, 65, 0
2, 109800, Note_on_c, 0, 72, 108
2, 109800, Note_on_c, 0, 67, 86
2, 109800, Note_on_c, 0, 64, 82
2, 109816, Control_c, 0, 64, 127
2, 109830, Note_on_c, 0, 74, 99
2, 109833, Note_on_c, 0, 72, 0
2, 109838, Control_c, 0, 64, 0
2, 109860, Note_on_c, 0, 76, 86
2, 109863, Note_on_c, 0, 74, 0
2, 109889, Note_on_c, 0, 76, 0
2, 109890, Note_on_c, 0, 77, 86
2, 109920, Note_on_c, 0, 79, 112
2, 109921, Note_on_c, 0, 77, 0
2, 109950, Note_on_c, 0, 81, 90
2, 109951, Note_on_c, 0, 79, 0
2, 109963, Control_c, 0, 64, 127
2, 109980, Note_on_c, 0, 83, 103
2, 109982, Note_on_c, 0, 81, 0
2, 110002, Note_on_c, 0, 83, 0
2, 110010, Note_on_c, 0, 84, 103
2, 110024, Note_on_c, 0, 67, 0
2, 110025, Note_on_c, 0, 84, 0
2, 110026, Note_on_c, 0, 64, 0
2, 110040, Note_on_c, 0, 84, 103
2, 110040, Note_on_c, 0, 65, 72
2, 110040, Note_on_c, 0, 67, 72
2, 110046, Control_c, 0, 64, 0
2, 110070, Note_on_c, 0, 83, 95
2, 110075, Note_on_c, 0, 84, 0
2, 110084, Control_c, 0, 64, 127
2, 110100, Note_on_c, 0, 81, 95
2, 110101, Note_on_c, 0, 83, 0
2, 110130, Note_on_c, 0, 79, 90
2, 110137, Note_on_c, 0, 81, 0
2, 110142, Note_on_c, 0, 79, 0
2, 110160, Note_on_c, 0, 79, 108
2, 110163, Control_c, 0, 64, 0
2, 110188, Control_c, 0, 64, 127
2, 110190, Note_on_c, 0, 77, 86
2, 110191, Note_on_c, 0, 79, 0
2, 110220, Note_on_c, 0, 76, 95
2, 110224, Note_on_c, 0, 77, 0
2, 110247, Note_on_c, 0, 76, 0
2, 110249, Note_on_c, 0, 67, 0
2, 110250, Note_on_c, 0, 74, 90
2, 110258, Note_on_c, 0, 65, 0
2, 110269, Note_on_c, 0, 74, 0
2, 110280, Note_on_c, 0, 79, 99
2, 110280, Note_on_c, 0, 67, 82
2, 110280, Note_on_c, 0, 64, 82
2, 110281, Control_c, 0, 64, 0
2, 110304, Control_c, 0, 64, 127
2, 110310, Note_on_c, 0, 76, 99
2, 110315, Note_on_c, 0, 79, 0
2, 110339, Note_on_c, 0, 76, 0
2, 110340, Note_on_c, 0, 79, 99
2, 110362, Control_c, 0, 64, 0
2, 110369, Note_on_c, 0, 79, 0
2, 110370, Note_on_c, 0, 76, 95
2, 110397, Note_on_c, 0, 76, 0
2, 110400, Note_on_c, 0, 72, 103
2, 110412, Note_on_c, 0, 72, 0
2, 110460, Note_on_c, 0, 72, 108
2, 110474, Note_on_c, 0, 72, 0
2, 110485, Note_on_c, 0, 67, 0
2, 110492, Note_on_c, 0, 64, 0
2, 110520, Note_on_c, 0, 67, 78
2, 110520, Note_on_c, 0, 65, 61
2, 110520, Note_on_c, 0, 77, 99
2, 110533, Control_c, 0, 64, 127
2, 110550, Note_on_c, 0, 74, 86
2, 110551, Note_on_c, 0, 77, 0
2, 110578, Note_on_c, 0, 74, 0
2, 110580, Note_on_c, 0, 77, 86
2, 110610, Note_on_c, 0, 74, 86
2, 110612, Note_on_c, 0, 77, 0
2, 110628, Note_on_c, 0, 74, 0
2, 110636, Control_c, 0, 64, 0
2, 110640, Note_on_c, 0, 71, 95
2, 110653, Note_on_c, 0, 71, 0
2, 110700, Note_on_c, 0, 71, 112
2, 110714, Note_on_c, 0, 71, 0
2, 110735, Note_on_c, 0, 67, 0
2, 110741, Note_on_c, 0, 65, 0
2, 110760, Note_on_c, 0, 67, 86
2, 110760, Note_on_c, 0, 72, 117
2, 110760, Note_on_c, 0, 64, 82
2, 110778, Control_c, 0, 64, 127
2, 110789, Note_on_c, 0, 72, 0
2, 110790, Note_on_c, 0, 74, 103
2, 110798, Control_c, 0, 64, 0
2, 110820, Note_on_c, 0, 76, 103
2, 110821, Note_on_c, 0, 74, 0
2, 110821, Control_c, 0, 64, 127
2, 110848, Note_on_c, 0, 76, 0
2, 110850, Note_on_c, 0, 77, 99
2, 110864, Note_on_c, 0, 77, 0
2, 110875, Control_c, 0, 64, 0
2, 110880, Note_on_c, 0, 79, 117
2, 110901, Control_c, 0, 64, 127
2, 110904, Note_on_c, 0, 79, 0
2, 110910, Note_on_c, 0, 81, 99
2, 110934, Note_on_c, 0, 81, 0
2, 110940, Note_on_c, 0, 83, 103
2, 110962, Note_on_c, 0, 83, 0
2, 110970, Note_on_c, 0, 84, 86
2, 110974, Note_on_c, 0, 67, 0
2, 110980, Note_on_c, 0, 64, 0
2, 110982, Note_on_c, 0, 84, 0
2, 111000, Note_on_c, 0, 65, 69
2, 111000, Note_on_c, 0, 67, 82
2, 111000, Note_on_c, 0, 79, 99
2, 111003, Control_c, 0, 64, 0
2, 111030, Note_on_c, 0, 79, 0
2, 111030, Note_on_c, 0, 77, 82
2, 111034, Control_c, 0, 64, 127
2, 111060, Note_on_c, 0, 77, 0
2, 111060, Note_on_c, 0, 76, 95
2, 111090, Note_on_c, 0, 74, 86
2, 111091, Note_on_c, 0, 76, 0
2, 111098, Note_on_c, 0, 67, 0
2, 111101, Note_on_c, 0, 65, 0
2, 111105, Note_on_c, 0, 74, 0
2, 111120, Note_on_c, 0, 64, 74
2, 111120, Note_on_c, 0, 67, 63
2, 111120, Note_on_c, 0, 72, 95
2, 111121, Control_c, 0, 64, 0
2, 111141, Control_c, 0, 64, 127
2, 111160, Note_on_c, 0, 72, 0
2, 111173, Note_on_c, 0, 67, 0
2, 111176, Note_on_c, 0, 64, 0
2, 111229, Control_c, 0, 64, 0
2, 111240, Note_on_c, 0, 77, 103
2, 111240, Note_on_c, 0, 67, 72
2, 111240, Note_on_c, 0, 65, 72
2, 111260, Control_c, 0, 64, 127
2, 111270, Note_on_c, 0, 74, 90
2, 111273, Note_on_c, 0, 77, 0
2, 111297, Note_on_c, 0, 74, 0
2, 111300, Note_on_c, 0, 77, 86
2, 111330, Note_on_c, 0, 77, 0
2, 111330, Note_on_c, 0, 74, 86
2, 111345, Note_on_c, 0, 74, 0
2, 111358, Control_c, 0, 64, 0
2, 111360, Note_on_c, 0, 71, 90
2, 111371, Note_on_c, 0, 71, 0
2, 111420, Note_on_c, 0, 71, 95
2, 111433, Note_on_c, 0, 71, 0
2, 111449, Note_on_c, 0, 65, 0
2, 111449, Note_on_c, 0, 67, 0
2, 111480, Note_on_c, 0, 72, 103
2, 111480, Note_on_c, 0, 67, 82
2, 111480, Note_on_c, 0, 64, 82
2, 111500, Control_c, 0, 64, 127
2, 111510, Note_on_c, 0, 74, 99
2, 111513, Note_on_c, 0, 72, 0
2, 111526, Control_c, 0, 64, 0
2, 111540, Note_on_c, 0, 76, 103
2, 111541, Note_on_c, 0, 74, 0
2, 111544, Control_c, 0, 64, 127
2, 111567, Note_on_c, 0, 76, 0
2, 111570, Note_on_c, 0, 77, 103
2, 111579, Control_c, 0, 64, 0
2, 111598, Note_on_c, 0, 77, 0
2, 111600, Note_on_c, 0, 79, 108
2, 111620, Control_c, 0, 64, 127
2, 111627, Note_on_c, 0, 79, 0
2, 111630, Note_on_c, 0, 81, 103
2, 111657, Note_on_c, 0, 81, 0
2, 111660, Note_on_c, 0, 83, 99
2, 111680, Note_on_c, 0, 83, 0
2, 111690, Note_on_c, 0, 84, 103
2, 111697, Note_on_c, 0, 67, 0
2, 111702, Note_on_c, 0, 64, 0
2, 111703, Note_on_c, 0, 84, 0
2, 111720, Note_on_c, 0, 84, 117
2, 111720, Note_on_c, 0, 67, 74
2, 111720, Note_on_c, 0, 65, 78
2, 111723, Control_c, 0, 64, 0
2, 111750, Control_c, 0, 64, 127
2, 111750, Note_on_c, 0, 83, 103
2, 111751, Note_on_c, 0, 84, 0
2, 111780, Note_on_c, 0, 83, 0
2, 111780, Note_on_c, 0, 81, 99
2, 111808, Note_on_c, 0, 81, 0
2, 111810, Note_on_c, 0, 79, 86
2, 111823, Note_on_c, 0, 79, 0
2, 111840, Note_on_c, 0, 81, 117
2, 111846, Control_c, 0, 64, 0
2, 111866, Control_c, 0, 64, 127
2, 111870, Note_on_c, 0, 81, 0
2, 111870, Note_on_c, 0, 79, 103
2, 111889, Note_on_c, 0, 79, 0
2, 111900, Note_on_c, 0, 81, 103
2, 111920, Note_on_c, 0, 81, 0
2, 111930, Note_on_c, 0, 83, 103
2, 111935, Note_on_c, 0, 67, 0
2, 111939, Note_on_c, 0, 65, 0
2, 111947, Note_on_c, 0, 83, 0
2, 111960, Note_on_c, 0, 64, 74
2, 111960, Note_on_c, 0, 84, 112
2, 111960, Note_on_c, 0, 67, 82
2, 111963, Control_c, 0, 64, 0
2, 111983, Control_c, 0, 64, 127
2, 111988, Note_on_c, 0, 84, 0
2, 111990, Note_on_c, 0, 83, 103
2, 112012, Note_on_c, 0, 83, 0
2, 112020, Note_on_c, 0, 84, 90
2, 112041, Note_on_c, 0, 84, 0
2, 112050, Note_on_c, 0, 86, 108
2, 112066, Note_on_c, 0, 86, 0
2, 112078, Control_c, 0, 64, 0
2, 112080, Note_on_c, 0, 88, 123
2, 112100, Control_c, 0, 64, 127
2, 112140, Note_on_c, 0, 88, 0
2, 112140, Note_on_c, 0, 79, 103
2, 112160, Note_on_c, 0, 79, 0
2, 112160, Note_on_c, 0, 64, 0
2, 112161, Note_on_c, 0, 67, 0
2, 112200, Note_on_c, 0, 67, 69
2, 112200, Note_on_c, 0, 77, 86
2, 112200, Note_on_c, 0, 65, 61
2, 112202, Control_c, 0, 64, 0
2, 112224, Control_c, 0, 64, 127
2, 112230, Note_on_c, 0, 74, 86
2, 112232, Note_on_c, 0, 77, 0
2, 112258, Note_on_c, 0, 74, 0
2, 112260, Note_on_c, 0, 77, 82
2, 112289, Note_on_c, 0, 77, 0
2, 112290, Note_on_c, 0, 74, 86
2, 112311, Note_on_c, 0, 74, 0
2, 112320, Note_on_c, 0, 71, 90
2, 112329, Control_c, 0, 64, 0
2, 112331, Note_on_c, 0, 71, 0
2, 112380, Note_on_c, 0, 71, 103
2, 112393, Note_on_c, 0, 71, 0
2, 112425, Note_on_c, 0, 65, 0
2, 112429, Note_on_c, 0, 67, 0
2, 112440, Note_on_c, 0, 72, 95
2, 112440, Note_on_c, 0, 67, 70
2, 112440, Note_on_c, 0, 64, 74
2, 112458, Control_c, 0, 64, 127
2, 112468, Note_on_c, 0, 72, 0
2, 112470, Note_on_c, 0, 74, 95
2, 112499, Note_on_c, 0, 74, 0
2, 112500, Note_on_c, 0, 76, 99
2, 112528, Note_on_c, 0, 76, 0
2, 112530, Note_on_c, 0, 77, 103
2, 112546, Note_on_c, 0, 77, 0
2, 112560, Note_on_c, 0, 79, 95
2, 112567, Control_c, 0, 64, 0
2, 112582, Control_c, 0, 64, 127
2, 112583, Note_on_c, 0, 79, 0
2, 112590, Note_on_c, 0, 81, 95
2, 112608, Note_on_c, 0, 81, 0
2, 112620, Note_on_c, 0, 83, 108
2, 112635, Note_on_c, 0, 83, 0
2, 112650, Note_on_c, 0, 84, 108
2, 112653, Note_on_c, 0, 67, 0
2, 112655, Note_on_c, 0, 64, 0
2, 112663, Note_on_c, 0, 84, 0
2, 112680, Note_on_c, 0, 67, 74
2, 112680, Note_on_c, 0, 84, 112
2, 112680, Note_on_c, 0, 65, 74
2, 112685, Control_c, 0, 64, 0
2, 112705, Control_c, 0, 64, 127
2, 112706, Note_on_c, 0, 84, 0
2, 112710, Note_on_c, 0, 83, 82
2, 112740, Note_on_c, 0, 81, 103
2, 112741, Note_on_c, 0, 83, 0
2, 112770, Note_on_c, 0, 79, 99
2, 112774, Note_on_c, 0, 81, 0
2, 112780, Note_on_c, 0, 79, 0
2, 112800, Note_on_c, 0, 79, 108
2, 112802, Control_c, 0, 64, 0
2, 112822, Control_c, 0, 64, 127
2, 112830, Note_on_c, 0, 77, 95
2, 112831, Note_on_c, 0, 79, 0
2, 112860, Note_on_c, 0, 76, 95
2, 112861, Note_on_c, 0, 77, 0
2, 112887, Note_on_c, 0, 76, 0
2, 112890, Note_on_c, 0, 74, 90
2, 112899, Note_on_c, 0, 67, 0
2, 112902, Note_on_c, 0, 65, 0
2, 112907, Note_on_c, 0, 74, 0
2, 112920, Note_on_c, 0, 64, 74
2, 112920, Note_on_c, 0, 67, 69
2, 112920, Note_on_c, 0, 76, 95
2, 112923, Control_c, 0, 64, 0
2, 112944, Control_c, 0, 64, 127
2, 112950, Note_on_c, 0, 74, 90
2, 112953, Note_on_c, 0, 76, 0
2, 112971, Note_on_c, 0, 74, 0
2, 112980, Note_on_c, 0, 76, 99
2, 112999, Note_on_c, 0, 76, 0
2, 113010, Note_on_c, 0, 79, 95
2, 113026, Note_on_c, 0, 79, 0
2, 113040, Note_on_c, 0, 72, 117
2, 113044, Control_c, 0, 64, 0
2, 113061, Control_c, 0, 64, 127
2, 113126, Control_c, 0, 64, 0
2, 113160, Note_on_c, 0, 72, 0
2, 113160, Note_on_c, 0, 67, 0
2, 113160, Note_on_c, 0, 64, 0
2, 113160, Note_on_c, 0, 79, 95
2, 113160, Note_on_c, 0, 60, 67
2, 113180, Control_c, 0, 64, 127
2, 113280, Note_on_c, 0, 63, 74
2, 113281, Note_on_c, 0, 60, 0
2, 113330, Note_on_c, 0, 79, 0
2, 113340, Note_on_c, 0, 75, 86
2, 113370, Note_on_c, 0, 72, 66
2, 113376, Note_on_c, 0, 75, 0
2, 113397, Note_on_c, 0, 63, 0
2, 113400, Note_on_c, 0, 72, 0
2, 113400, Note_on_c, 0, 74, 90
2, 113400, Note_on_c, 0, 62, 86
2, 113406, Control_c, 0, 64, 0
2, 113441, Control_c, 0, 64, 127
2, 113515, Note_on_c, 0, 62, 0
2, 113520, Note_on_c, 0, 65, 86
2, 113567, Note_on_c, 0, 74, 0
2, 113576, Note_on_c, 0, 65, 0
2, 113580, Note_on_c, 0, 71, 86
2, 113604, Note_on_c, 0, 71, 0
2, 113610, Note_on_c, 0, 67, 66
2, 113622, Control_c, 0, 64, 0
2, 113638, Note_on_c, 0, 67, 0
2, 113640, Note_on_c, 0, 63, 74
2, 113640, Note_on_c, 0, 72, 99
2, 113656, Control_c, 0, 64, 127
2, 113698, Note_on_c, 0, 72, 0
2, 113700, Note_on_c, 0, 67, 90
2, 113743, Note_on_c, 0, 67, 0
2, 113754, Note_on_c, 0, 63, 0
2, 113758, Control_c, 0, 64, 0
2, 113760, Note_on_c, 0, 60, 86
2, 113760, Note_on_c, 0, 72, 103
2, 113784, Control_c, 0, 64, 127
2, 113816, Note_on_c, 0, 72, 0
2, 113820, Note_on_c, 0, 75, 90
2, 113822, Note_on_c, 0, 60, 0
2, 113860, Note_on_c, 0, 75, 0
2, 113876, Control_c, 0, 64, 0
2, 113880, Note_on_c, 0, 74, 90
2, 113880, Note_on_c, 0, 59, 72
2, 113906, Control_c, 0, 64, 127
2, 113938, Note_on_c, 0, 74, 0
2, 113940, Note_on_c, 0, 67, 90
2, 113950, Note_on_c, 0, 59, 0
2, 113959, Note_on_c, 0, 67, 0
2, 113995, Control_c, 0, 64, 0
2, 114000, Note_on_c, 0, 74, 99
2, 114000, Note_on_c, 0, 67, 86
2, 114023, Control_c, 0, 64, 127
2, 114044, Note_on_c, 0, 67, 0
2, 114060, Note_on_c, 0, 74, 0
2, 114060, Note_on_c, 0, 79, 99
2, 114091, Note_on_c, 0, 79, 0
2, 114119, Control_c, 0, 64, 0
2, 114120, Note_on_c, 0, 72, 86
2, 114120, Note_on_c, 0, 77, 103
2, 114148, Control_c, 0, 64, 127
2, 114180, Note_on_c, 0, 75, 95
2, 114183, Note_on_c, 0, 77, 0
2, 114199, Note_on_c, 0, 75, 0
2, 114210, Note_on_c, 0, 72, 0
2, 114240, Control_c, 0, 64, 0
2, 114240, Note_on_c, 0, 74, 95
2, 114240, Note_on_c, 0, 68, 74
2, 114270, Control_c, 0, 64, 127
2, 114294, Note_on_c, 0, 74, 0
2, 114300, Note_on_c, 0, 72, 82
2, 114306, Note_on_c, 0, 68, 0
2, 114323, Note_on_c, 0, 72, 0
2, 114351, Control_c, 0, 64, 0
2, 114360, Note_on_c, 0, 67, 86
2, 114360, Note_on_c, 0, 74, 90
2, 114376, Control_c, 0, 64, 127
2, 114483, Note_on_c, 0, 74, 0
2, 114484, Note_on_c, 0, 67, 0
2, 114484, Control_c, 0, 64, 0
2, 114600, Note_on_c, 0, 75, 78
2, 114600, Note_on_c, 0, 63, 61
2, 114603, Control_c, 0, 64, 127
2, 114655, Note_on_c, 0, 63, 0
2, 114660, Note_on_c, 0, 70, 72
2, 114670, Note_on_c, 0, 75, 0
2, 114719, Note_on_c, 0, 70, 0
2, 114720, Note_on_c, 0, 67, 82
2, 114780, Note_on_c, 0, 70, 72
2, 114780, Note_on_c, 0, 79, 103
2, 114782, Note_on_c, 0, 67, 0
2, 114795, Note_on_c, 0, 79, 0
2, 114817, Note_on_c, 0, 70, 0
2, 114833, Control_c, 0, 64, 0
2, 114840, Note_on_c, 0, 82, 99
2, 114840, Note_on_c, 0, 65, 82
2, 114864, Control_c, 0, 64, 127
2, 114893, Note_on_c, 0, 82, 0
2, 114896, Note_on_c, 0, 65, 0
2, 114900, Note_on_c, 0, 70, 70
2, 114900, Note_on_c, 0, 80, 99
2, 114900, Control_c, 0, 64, 0
2, 114927, Control_c, 0, 64, 127
2, 114953, Note_on_c, 0, 80, 0
2, 114960, Note_on_c, 0, 68, 86
2, 114963, Note_on_c, 0, 70, 0
2, 115008, Control_c, 0, 64, 0
2, 115017, Note_on_c, 0, 68, 0
2, 115020, Note_on_c, 0, 70, 86
2, 115020, Note_on_c, 0, 77, 95
2, 115031, Control_c, 0, 64, 127
2, 115065, Control_c, 0, 64, 0
2, 115076, Note_on_c, 0, 77, 0
2, 115078, Note_on_c, 0, 70, 0
2, 115080, Note_on_c, 0, 63, 82
2, 115080, Note_on_c, 0, 75, 86
2, 115087, Control_c, 0, 64, 127
2, 115100, Note_on_c, 0, 75, 0
2, 115110, Note_on_c, 0, 77, 95
2, 115122, Control_c, 0, 64, 0
2, 115133, Note_on_c, 0, 63, 0
2, 115136, Note_on_c, 0, 77, 0
2, 115140, Note_on_c, 0, 79, 95
2, 115140, Note_on_c, 0, 70, 70
2, 115154, Control_c, 0, 64, 127
2, 115170, Note_on_c, 0, 79, 0
2, 115170, Note_on_c, 0, 80, 82
2, 115182, Control_c, 0, 64, 0
2, 115195, Note_on_c, 0, 70, 0
2, 115196, Note_on_c, 0, 80, 0
2, 115200, Note_on_c, 0, 82, 95
2, 115200, Note_on_c, 0, 67, 90
2, 115204, Control_c, 0, 64, 127
2, 115220, Note_on_c, 0, 82, 0
2, 115230, Note_on_c, 0, 84, 103
2, 115248, Note_on_c, 0, 84, 0
2, 115252, Control_c, 0, 64, 0
2, 115260, Note_on_c, 0, 86, 95
2, 115260, Note_on_c, 0, 70, 72
2, 115262, Note_on_c, 0, 67, 0
2, 115274, Control_c, 0, 64, 127
2, 115281, Note_on_c, 0, 86, 0
2, 115290, Note_on_c, 0, 87, 99
2, 115304, Control_c, 0, 64, 0
2, 115306, Note_on_c, 0, 87, 0
2, 115306, Note_on_c, 0, 70, 0
2, 115320, Note_on_c, 0, 87, 112
2, 115320, Note_on_c, 0, 65, 90
2, 115330, Control_c, 0, 64, 127
2, 115374, Control_c, 0, 64, 0
2, 115378, Note_on_c, 0, 87, 0
2, 115380, Note_on_c, 0, 65, 0
2, 115380, Note_on_c, 0, 70, 67
2, 115380, Note_on_c, 0, 86, 108
2, 115399, Control_c, 0, 64, 127
2, 115435, Note_on_c, 0, 86, 0
2, 115440, Note_on_c, 0, 68, 90
2, 115444, Note_on_c, 0, 70, 0
2, 115473, Control_c, 0, 64, 0
2, 115500, Note_on_c, 0, 68, 0
2, 115500, Note_on_c, 0, 82, 103
2, 115500, Note_on_c, 0, 70, 74
2, 115507, Control_c, 0, 64, 127
2, 115539, Note_on_c, 0, 82, 0
2, 115557, Control_c, 0, 64, 0
2, 115559, Note_on_c, 0, 70, 0
2, 115560, Note_on_c, 0, 82, 95
2, 115560, Note_on_c, 0, 63, 72
2, 115583, Control_c, 0, 64, 127
2, 115614, Note_on_c, 0, 82, 0
2, 115620, Note_on_c, 0, 63, 0
2, 115620, Note_on_c, 0, 70, 67
2, 115620, Note_on_c, 0, 79, 99
2, 115624, Control_c, 0, 64, 0
2, 115648, Control_c, 0, 64, 127
2, 115680, Note_on_c, 0, 67, 82
2, 115682, Note_on_c, 0, 79, 0
2, 115684, Note_on_c, 0, 70, 0
2, 115728, Control_c, 0, 64, 0
2, 115740, Note_on_c, 0, 70, 72
2, 115740, Note_on_c, 0, 82, 108
2, 115741, Note_on_c, 0, 67, 0
2, 115751, Control_c, 0, 64, 127
2, 115770, Note_on_c, 0, 82, 0
2, 115798, Note_on_c, 0, 70, 0
2, 115800, Note_on_c, 0, 82, 103
2, 115800, Note_on_c, 0, 65, 70
2, 115808, Control_c, 0, 64, 0
2, 115832, Control_c, 0, 64, 127
2, 115850, Note_on_c, 0, 82, 0
2, 115855, Note_on_c, 0, 65, 0
2, 115860, Note_on_c, 0, 70, 70
2, 115860, Note_on_c, 0, 80, 99
2, 115870, Control_c, 0, 64, 0
2, 115894, Control_c, 0, 64, 127
2, 115911, Note_on_c, 0, 80, 0
2, 115920, Note_on_c, 0, 68, 82
2, 115921, Note_on_c, 0, 70, 0
2, 115971, Control_c, 0, 64, 0
2, 115977, Note_on_c, 0, 68, 0
2, 115980, Note_on_c, 0, 70, 70
2, 115980, Note_on_c, 0, 77, 103
2, 115994, Control_c, 0, 64, 127
2, 116011, Note_on_c, 0, 77, 0
2, 116029, Note_on_c, 0, 70, 0
2, 116030, Control_c, 0, 64, 0
2, 116040, Note_on_c, 0, 75, 86
2, 116040, Note_on_c, 0, 63, 82
2, 116053, Control_c, 0, 64, 127
2, 116059, Note_on_c, 0, 75, 0
2, 116070, Note_on_c, 0, 77, 86
2, 116093, Note_on_c, 0, 77, 0
2, 116094, Control_c, 0, 64, 0
2, 116097, Note_on_c, 0, 63, 0
2, 116100, Note_on_c, 0, 79, 99
2, 116100, Note_on_c, 0, 70, 74
2, 116117, Control_c, 0, 64, 127
2, 116123, Note_on_c, 0, 79, 0
2, 116130, Note_on_c, 0, 80, 82
2, 116145, Control_c, 0, 64, 0
2, 116155, Note_on_c, 0, 70, 0
2, 116158, Note_on_c, 0, 80, 0
2, 116160, Note_on_c, 0, 82, 90
2, 116160, Note_on_c, 0, 67, 86
2, 116164, Control_c, 0, 64, 127
2, 116178, Note_on_c, 0, 82, 0
2, 116190, Note_on_c, 0, 84, 99
2, 116208, Note_on_c, 0, 84, 0
2, 116211, Control_c, 0, 64, 0
2, 116220, Note_on_c, 0, 86, 86
2, 116220, Note_on_c, 0, 70, 72
2, 116221, Note_on_c, 0, 67, 0
2, 116231, Control_c, 0, 64, 127
2, 116242, Note_on_c, 0, 86, 0
2, 116250, Note_on_c, 0, 87, 99
2, 116266, Control_c, 0, 64, 0
2, 116267, Note_on_c, 0, 87, 0
2, 116270, Note_on_c, 0, 70, 0
2, 116280, Note_on_c, 0, 87, 99
2, 116280, Note_on_c, 0, 65, 86
2, 116288, Control_c, 0, 64, 127
2, 116334, Note_on_c, 0, 87, 0
2, 116335, Control_c, 0, 64, 0
2, 116338, Note_on_c, 0, 65, 0
2, 116340, Note_on_c, 0, 86, 99
2, 116340, Note_on_c, 0, 70, 70
2, 116358, Control_c, 0, 64, 127
2, 116396, Note_on_c, 0, 86, 0
2, 116400, Note_on_c, 0, 68, 82
2, 116404, Note_on_c, 0, 70, 0
2, 116417, Control_c, 0, 64, 0
2, 116460, Note_on_c, 0, 70, 78
2, 116460, Note_on_c, 0, 86, 103
2, 116462, Control_c, 0, 64, 127
2, 116463, Note_on_c, 0, 68, 0
2, 116497, Note_on_c, 0, 86, 0
2, 116514, Control_c, 0, 64, 0
2, 116519, Note_on_c, 0, 70, 0
2, 116520, Note_on_c, 0, 63, 74
2, 116520, Note_on_c, 0, 87, 99
2, 116538, Control_c, 0, 64, 127
2, 116575, Note_on_c, 0, 87, 0
2, 116580, Note_on_c, 0, 70, 65
2, 116580, Control_c, 0, 64, 0
2, 116580, Note_on_c, 0, 82, 99
2, 116585, Note_on_c, 0, 63, 0
2, 116604, Control_c, 0, 64, 127
2, 116627, Note_on_c, 0, 82, 0
2, 116640, Note_on_c, 0, 70, 0
2, 116640, Note_on_c, 0, 67, 82
2, 116644, Control_c, 0, 64, 0
2, 116674, Control_c, 0, 64, 127
2, 116696, Note_on_c, 0, 67, 0
2, 116700, Note_on_c, 0, 70, 72
2, 116700, Note_on_c, 0, 82, 99
2, 116734, Note_on_c, 0, 82, 0
2, 116734, Note_on_c, 0, 70, 0
2, 116753, Control_c, 0, 64, 0
2, 116760, Note_on_c, 0, 84, 99
2, 116760, Note_on_c, 0, 68, 86
2, 116776, Control_c, 0, 64, 127
2, 116814, Note_on_c, 0, 84, 0
2, 116820, Note_on_c, 0, 68, 0
2, 116820, Note_on_c, 0, 80, 99
2, 116820, Note_on_c, 0, 72, 74
2, 116820, Control_c, 0, 64, 0
2, 116844, Control_c, 0, 64, 127
2, 116863, Note_on_c, 0, 80, 0
2, 116879, Note_on_c, 0, 72, 0
2, 116880, Note_on_c, 0, 68, 82
2, 116883, Control_c, 0, 64, 0
2, 116921, Control_c, 0, 64, 127
2, 116938, Note_on_c, 0, 68, 0
2, 116940, Note_on_c, 0, 72, 82
2, 116940, Note_on_c, 0, 80, 99
2, 116966, Note_on_c, 0, 80, 0
2, 116986, Note_on_c, 0, 72, 0
2, 116996, Control_c, 0, 64, 0
2, 117000, Note_on_c, 0, 70, 86
2, 117000, Note_on_c, 0, 79, 99
2, 117023, Control_c, 0, 64, 127
2, 117056, Note_on_c, 0, 79, 0
2, 117060, Note_on_c, 0, 75, 90
2, 117071, Note_on_c, 0, 70, 0
2, 117078, Note_on_c, 0, 75, 0
2, 117120, Control_c, 0, 64, 0
2, 117120, Note_on_c, 0, 70, 74
2, 117120, Note_on_c, 0, 77, 90
2, 117146, Control_c, 0, 64, 127
2, 117172, Note_on_c, 0, 77, 0
2, 117180, Note_on_c, 0, 74, 90
2, 117181, Note_on_c, 0, 70, 0
2, 117210, Note_on_c, 0, 74, 0
2, 117231, Control_c, 0, 64, 0
2, 117240, Note_on_c, 0, 75, 90
2, 117240, Note_on_c, 0, 67, 72
2, 117256, Control_c, 0, 64, 127
2, 117358, Note_on_c, 0, 75, 0
2, 117359, Control_c, 0, 64, 0
2, 117360, Note_on_c, 0, 67, 0
2, 117480, Note_on_c, 0, 64, 86
2, 117480, Note_on_c, 0, 79, 99
2, 117492, Control_c, 0, 64, 127
2, 117537, Note_on_c, 0, 64, 0
2, 117540, Note_on_c, 0, 72, 74
2, 117590, Note_on_c, 0, 72, 0
2, 117600, Note_on_c, 0, 67, 86
2, 117606, Note_on_c, 0, 79, 0
2, 117660, Note_on_c, 0, 72, 82
2, 117661, Note_on_c, 0, 67, 0
2, 117697, Note_on_c, 0, 72, 0
2, 117715, Control_c, 0, 64, 0
2, 117720, Note_on_c, 0, 65, 86
2, 117720, Note_on_c, 0, 80, 99
2, 117749, Note_on_c, 0, 80, 0
2, 117750, Note_on_c, 0, 82, 78
2, 117758, Control_c, 0, 64, 127
2, 117759, Control_c, 0, 64, 0
2, 117776, Control_c, 0, 64, 127
2, 117780, Note_on_c, 0, 82, 0
2, 117780, Note_on_c, 0, 84, 86
2, 117801, Control_c, 0, 64, 0
2, 117810, Note_on_c, 0, 82, 90
2, 117818, Note_on_c, 0, 84, 0
2, 117840, Note_on_c, 0, 80, 72
2, 117840, Control_c, 0, 64, 127
2, 117843, Note_on_c, 0, 82, 0
2, 117870, Note_on_c, 0, 80, 0
2, 117870, Note_on_c, 0, 79, 86
2, 117889, Note_on_c, 0, 79, 0
2, 117895, Note_on_c, 0, 65, 0
2, 117900, Note_on_c, 0, 77, 60
2, 117920, Note_on_c, 0, 77, 0
2, 117930, Note_on_c, 0, 75, 99
2, 117947, Note_on_c, 0, 75, 0
2, 117949, Control_c, 0, 64, 0
2, 117960, Note_on_c, 0, 77, 90
2, 117960, Note_on_c, 0, 62, 86
2, 117990, Control_c, 0, 64, 127
2, 118020, Note_on_c, 0, 70, 78
2, 118026, Note_on_c, 0, 62, 0
2, 118072, Note_on_c, 0, 70, 0
2, 118080, Note_on_c, 0, 65, 86
2, 118138, Note_on_c, 0, 65, 0
2, 118140, Note_on_c, 0, 70, 74
2, 118146, Note_on_c, 0, 77, 0
2, 118173, Note_on_c, 0, 70, 0
2, 118200, Note_on_c, 0, 63, 74
2, 118200, Note_on_c, 0, 79, 103
2, 118200, Note_on_c, 0, 67, 90
2, 118203, Control_c, 0, 64, 0
2, 118227, Note_on_c, 0, 79, 0
2, 118230, Note_on_c, 0, 80, 78
2, 118258, Control_c, 0, 64, 127
2, 118260, Note_on_c, 0, 82, 90
2, 118262, Note_on_c, 0, 80, 0
2, 118290, Note_on_c, 0, 80, 82
2, 118292, Control_c, 0, 64, 0
2, 118294, Note_on_c, 0, 82, 0
2, 118315, Note_on_c, 0, 80, 0
2, 118320, Note_on_c, 0, 79, 99
2, 118331, Note_on_c, 0, 67, 0
2, 118332, Note_on_c, 0, 63, 0
2, 118346, Note_on_c, 0, 79, 0
2, 118350, Note_on_c, 0, 77, 90
2, 118373, Control_c, 0, 64, 127
2, 118378, Note_on_c, 0, 77, 0
2, 118380, Note_on_c, 0, 75, 95
2, 118404, Note_on_c, 0, 75, 0
2, 118410, Note_on_c, 0, 74, 86
2, 118425, Control_c, 0, 64, 0
2, 118430, Note_on_c, 0, 74, 0
2, 118440, Note_on_c, 0, 79, 90
2, 118440, Note_on_c, 0, 60, 86
2, 118457, Control_c, 0, 64, 127
2, 118500, Note_on_c, 0, 79, 0
2, 118500, Note_on_c, 0, 75, 86
2, 118500, Control_c, 0, 64, 0
2, 118500, Note_on_c, 0, 67, 74
2, 118507, Note_on_c, 0, 60, 0
2, 118528, Control_c, 0, 64, 127
2, 118554, Note_on_c, 0, 75, 0
2, 118560, Note_on_c, 0, 63, 72
2, 118562, Note_on_c, 0, 67, 0
2, 118568, Control_c, 0, 64, 0
2, 118596, Control_c, 0, 64, 127
2, 118620, Note_on_c, 0, 79, 99
2, 118620, Note_on_c, 0, 67, 82
2, 118621, Note_on_c, 0, 63, 0
2, 118638, Note_on_c, 0, 79, 0
2, 118667, Note_on_c, 0, 67, 0
2, 118677, Control_c, 0, 64, 0
2, 118680, Note_on_c, 0, 79, 99
2, 118680, Note_on_c, 0, 62, 86
2, 118704, Control_c, 0, 64, 127
2, 118737, Note_on_c, 0, 79, 0
2, 118740, Note_on_c, 0, 62, 0
2, 118740, Note_on_c, 0, 67, 72
2, 118740, Note_on_c, 0, 77, 90
2, 118743, Control_c, 0, 64, 0
2, 118769, Control_c, 0, 64, 127
2, 118799, Note_on_c, 0, 77, 0
2, 118799, Note_on_c, 0, 67, 0
2, 118800, Note_on_c, 0, 65, 82
2, 118808, Control_c, 0, 64, 0
2, 118831, Control_c, 0, 64, 127
2, 118860, Note_on_c, 0, 74, 95
2, 118860, Note_on_c, 0, 67, 72
2, 118864, Note_on_c, 0, 65, 0
2, 118916, Control_c, 0, 64, 0
2, 118917, Note_on_c, 0, 67, 0
2, 118918, Note_on_c, 0, 74, 0
2, 118920, Note_on_c, 0, 72, 82
2, 118920, Note_on_c, 0, 60, 82
2, 118943, Control_c, 0, 64, 127
2, 118950, Note_on_c, 0, 74, 86
2, 118951, Note_on_c, 0, 72, 0
2, 118977, Note_on_c, 0, 74, 0
2, 118979, Note_on_c, 0, 60, 0
2, 118980, Note_on_c, 0, 75, 82
2, 118980, Note_on_c, 0, 67, 86
2, 119001, Note_on_c, 0, 75, 0
2, 119010, Note_on_c, 0, 77, 99
2, 119030, Note_on_c, 0, 77, 0
2, 119030, Note_on_c, 0, 67, 0
2, 119037, Control_c, 0, 64, 0
2, 119040, Note_on_c, 0, 79, 90
2, 119040, Note_on_c, 0, 63, 78
2, 119065, Control_c, 0, 64, 127
2, 119066, Note_on_c, 0, 79, 0
2, 119070, Note_on_c, 0, 81, 82
2, 119091, Note_on_c, 0, 81, 0
2, 119098, Note_on_c, 0, 63, 0
2, 119100, Note_on_c, 0, 83, 99
2, 119100, Note_on_c, 0, 67, 86
2, 119122, Note_on_c, 0, 83, 0
2, 119130, Note_on_c, 0, 84, 69
2, 119141, Note_on_c, 0, 67, 0
2, 119149, Note_on_c, 0, 84, 0
2, 119157, Control_c, 0, 64, 0
2, 119160, Note_on_c, 0, 84, 95
2, 119160, Note_on_c, 0, 62, 86
2, 119185, Control_c, 0, 64, 127
2, 119217, Note_on_c, 0, 84, 0
2, 119218, Control_c, 0, 64, 0
2, 119219, Note_on_c, 0, 62, 0
2, 119220, Note_on_c, 0, 67, 72
2, 119220, Note_on_c, 0, 83, 99
2, 119244, Control_c, 0, 64, 127
2, 119273, Note_on_c, 0, 83, 0
2, 119280, Note_on_c, 0, 65, 86
2, 119281, Note_on_c, 0, 67, 0
2, 119293, Control_c, 0, 64, 0
2, 119324, Control_c, 0, 64, 127
2, 119340, Note_on_c, 0, 79, 99
2, 119340, Note_on_c, 0, 67, 74
2, 119346, Note_on_c, 0, 65, 0
2, 119360, Note_on_c, 0, 79, 0
2, 119396, Note_on_c, 0, 67, 0
2, 119397, Control_c, 0, 64, 0
2, 119400, Note_on_c, 0, 60, 72
2, 119400, Note_on_c, 0, 79, 90
2, 119423, Control_c, 0, 64, 127
2, 119460, Note_on_c, 0, 67, 65
2, 119460, Note_on_c, 0, 75, 78
2, 119463, Note_on_c, 0, 79, 0
2, 119463, Control_c, 0, 64, 0
2, 119464, Note_on_c, 0, 60, 0
2, 119488, Control_c, 0, 64, 127
2, 119510, Note_on_c, 0, 75, 0
2, 119520, Note_on_c, 0, 63, 70
2, 119523, Note_on_c, 0, 67, 0
2, 119544, Control_c, 0, 64, 0
2, 119577, Control_c, 0, 64, 127
2, 119580, Note_on_c, 0, 67, 74
2, 119580, Note_on_c, 0, 79, 86
2, 119582, Note_on_c, 0, 63, 0
2, 119601, Note_on_c, 0, 79, 0
2, 119634, Note_on_c, 0, 67, 0
2, 119640, Note_on_c, 0, 62, 70
2, 119640, Note_on_c, 0, 79, 86
2, 119641, Control_c, 0, 64, 0
2, 119668, Control_c, 0, 64, 127
2, 119695, Note_on_c, 0, 79, 0
2, 119695, Note_on_c, 0, 62, 0
2, 119700, Note_on_c, 0, 67, 70
2, 119700, Note_on_c, 0, 77, 78
2, 119709, Control_c, 0, 64, 0
2, 119740, Control_c, 0, 64, 127
2, 119760, Note_on_c, 0, 65, 82
2, 119768, Note_on_c, 0, 67, 0
2, 119798, Note_on_c, 0, 77, 0
2, 119804, Control_c, 0, 64, 0
2, 119819, Note_on_c, 0, 65, 0
2, 119820, Note_on_c, 0, 67, 86
2, 119820, Note_on_c, 0, 74, 95
2, 119829, Control_c, 0, 64, 127
2, 119869, Note_on_c, 0, 74, 0
2, 119874, Control_c, 0, 64, 0
2, 119875, Note_on_c, 0, 67, 0
2, 119880, Note_on_c, 0, 72, 86
2, 119880, Note_on_c, 0, 60, 90
2, 119905, Control_c, 0, 64, 127
2, 119910, Note_on_c, 0, 74, 86
2, 119912, Note_on_c, 0, 72, 0
2, 119932, Control_c, 0, 64, 0
2, 119937, Note_on_c, 0, 74, 0
2, 119940, Note_on_c, 0, 60, 0
2, 119940, Note_on_c, 0, 75, 78
2, 119940, Note_on_c, 0, 67, 86
2, 119954, Control_c, 0, 64, 127
2, 119965, Note_on_c, 0, 75, 0
2, 119970, Note_on_c, 0, 77, 103
2, 119985, Control_c, 0, 64, 0
2, 119989, Note_on_c, 0, 77, 0
2, 119995, Note_on_c, 0, 67, 0
2, 120000, Note_on_c, 0, 79, 86
2, 120000, Note_on_c, 0, 63, 78
2, 120011, Control_c, 0, 64, 127
2, 120022, Note_on_c, 0, 79, 0
2, 120030, Note_on_c, 0, 81, 86
2, 120044, Control_c, 0, 64, 0
2, 120050, Note_on_c, 0, 81, 0
2, 120056, Note_on_c, 0, 63, 0
2, 120060, Note_on_c, 0, 83, 90
2, 120060, Note_on_c, 0, 67, 86
2, 120067, Control_c, 0, 64, 127
2, 120081, Note_on_c, 0, 83, 0
2, 120090, Note_on_c, 0, 84, 90
2, 120098, Control_c, 0, 64, 0
2, 120103, Note_on_c, 0, 67, 0
2, 120106, Note_on_c, 0, 84, 0
2, 120120, Note_on_c, 0, 62, 86
2, 120120, Note_on_c, 0, 84, 86
2, 120122, Control_c, 0, 64, 127
2, 120169, Note_on_c, 0, 84, 0
2, 120174, Control_c, 0, 64, 0
2, 120180, Note_on_c, 0, 62, 0
2, 120180, Note_on_c, 0, 83, 99
2, 120180, Note_on_c, 0, 67, 72
2, 120200, Control_c, 0, 64, 127
2, 120240, Note_on_c, 0, 67, 0
2, 120240, Note_on_c, 0, 65, 82
2, 120241, Note_on_c, 0, 83, 0
2, 120282, Control_c, 0, 64, 0
2, 120300, Note_on_c, 0, 83, 99
2, 120300, Note_on_c, 0, 67, 86
2, 120305, Control_c, 0, 64, 127
2, 120312, Note_on_c, 0, 65, 0
2, 120340, Note_on_c, 0, 83, 0
2, 120348, Control_c, 0, 64, 0
2, 120358, Note_on_c, 0, 67, 0
2, 120360, Note_on_c, 0, 60, 90
2, 120360, Note_on_c, 0, 84, 99
2, 120375, Control_c, 0, 64, 127
2, 120419, Note_on_c, 0, 84, 0
2, 120420, Control_c, 0, 64, 0
2, 120420, Note_on_c, 0, 67, 74
2, 120420, Note_on_c, 0, 79, 99
2, 120427, Note_on_c, 0, 60, 0
2, 120446, Control_c, 0, 64, 127
2, 120474, Note_on_c, 0, 79, 0
2, 120480, Note_on_c, 0, 63, 74
2, 120484, Note_on_c, 0, 67, 0
2, 120492, Control_c, 0, 64, 0
2, 120535, Control_c, 0, 64, 127
2, 120539, Note_on_c, 0, 63, 0
2, 120540, Note_on_c, 0, 67, 82
2, 120540, Note_on_c, 0, 79, 99
2, 120590, Note_on_c, 0, 79, 0
2, 120597, Note_on_c, 0, 67, 0
2, 120597, Control_c, 0, 64, 0
2, 120600, Note_on_c, 0, 80, 99
2, 120600, Note_on_c, 0, 65, 90
2, 120623, Control_c, 0, 64, 127
2, 120656, Note_on_c, 0, 80, 0
2, 120660, Note_on_c, 0, 77, 95
2, 120660, Note_on_c, 0, 68, 74
2, 120662, Note_on_c, 0, 65, 0
2, 120667, Control_c, 0, 64, 0
2, 120691, Control_c, 0, 64, 127
2, 120711, Note_on_c, 0, 77, 0
2, 120719, Note_on_c, 0, 68, 0
2, 120720, Note_on_c, 0, 65, 82
2, 120769, Note_on_c, 0, 65, 0
2, 120769, Control_c, 0, 64, 0
2, 120780, Note_on_c, 0, 68, 82
2, 120780, Note_on_c, 0, 77, 95
2, 120796, Control_c, 0, 64, 127
2, 120811, Note_on_c, 0, 77, 0
2, 120814, Note_on_c, 0, 68, 0
2, 120839, Control_c, 0, 64, 0
2, 120840, Note_on_c, 0, 75, 95
2, 120840, Note_on_c, 0, 67, 95
2, 120866, Control_c, 0, 64, 127
2, 120900, Note_on_c, 0, 72, 90
2, 120906, Note_on_c, 0, 75, 0
2, 120919, Note_on_c, 0, 72, 0
2, 120921, Note_on_c, 0, 67, 0
2, 120951, Control_c, 0, 64, 0
2, 120960, Note_on_c, 0, 67, 86
2, 120960, Note_on_c, 0, 74, 86
2, 120960, Note_on_c, 0, 77, 86
2, 120981, Control_c, 0, 64, 127
2, 120997, Note_on_c, 0, 74, 0
2, 120998, Note_on_c, 0, 77, 0
2, 121020, Note_on_c, 0, 71, 86
2, 121020, Note_on_c, 0, 74, 99
2, 121032, Note_on_c, 0, 67, 0
2, 121040, Note_on_c, 0, 74, 0
2, 121045, Note_on_c, 0, 71, 0
2, 121074, Control_c, 0, 64, 0
2, 121080, Note_on_c, 0, 72, 90
2, 121080, Note_on_c, 0, 63, 86
2, 121098, Control_c, 0, 64, 127
2, 121196, Note_on_c, 0, 72, 0
2, 121201, Note_on_c, 0, 63, 0
2, 121204, Control_c, 0, 64, 0
2, 121320, Note_on_c, 0, 79, 103
2, 121320, Note_on_c, 0, 64, 82
2, 121320, Note_on_c, 0, 67, 82
2, 121334, Control_c, 0, 64, 127
2, 121349, Note_on_c, 0, 79, 0
2, 121350, Note_on_c, 0, 76, 74
2, 121373, Note_on_c, 0, 76, 0
2, 121380, Note_on_c, 0, 79, 86
2, 121406, Note_on_c, 0, 79, 0
2, 121409, Control_c, 0, 64, 0
2, 121410, Note_on_c, 0, 76, 78
2, 121426, Note_on_c, 0, 76, 0
2, 121440, Note_on_c, 0, 72, 86
2, 121456, Note_on_c, 0, 72, 0
2, 121500, Note_on_c, 0, 72, 90
2, 121515, Note_on_c, 0, 72, 0
2, 121530, Note_on_c, 0, 67, 0
2, 121536, Note_on_c, 0, 64, 0
2, 121560, Note_on_c, 0, 77, 95
2, 121560, Note_on_c, 0, 67, 72
2, 121560, Note_on_c, 0, 65, 82
2, 121575, Control_c, 0, 64, 127
2, 121583, Note_on_c, 0, 77, 0
2, 121590, Note_on_c, 0, 74, 82
2, 121610, Note_on_c, 0, 74, 0
2, 121620, Note_on_c, 0, 77, 82
2, 121642, Note_on_c, 0, 77, 0
2, 121650, Note_on_c, 0, 74, 86
2, 121650, Control_c, 0, 64, 0
2, 121666, Note_on_c, 0, 74, 0
2, 121680, Note_on_c, 0, 71, 95
2, 121696, Note_on_c, 0, 71, 0
2, 121740, Note_on_c, 0, 71, 99
2, 121754, Note_on_c, 0, 71, 0
2, 121770, Note_on_c, 0, 67, 0
2, 121771, Note_on_c, 0, 65, 0
2, 121800, Note_on_c, 0, 72, 103
2, 121800, Note_on_c, 0, 64, 74
2, 121800, Note_on_c, 0, 67, 72
2, 121819, Control_c, 0, 64, 127
2, 121827, Note_on_c, 0, 72, 0
2, 121830, Note_on_c, 0, 74, 86
2, 121855, Note_on_c, 0, 74, 0
2, 121856, Control_c, 0, 64, 0
2, 121860, Note_on_c, 0, 76, 95
2, 121881, Note_on_c, 0, 76, 0
2, 121890, Note_on_c, 0, 77, 103
2, 121910, Note_on_c, 0, 77, 0
2, 121911, Control_c, 0, 64, 127
2, 121920, Note_on_c, 0, 79, 99
2, 121938, Note_on_c, 0, 79, 0
2, 121950, Note_on_c, 0, 81, 103
2, 121967, Note_on_c, 0, 81, 0
2, 121980, Note_on_c, 0, 83, 103
2, 121997, Note_on_c, 0, 83, 0
2, 122010, Note_on_c, 0, 84, 99
2, 122015, Note_on_c, 0, 67, 0
2, 122019, Note_on_c, 0, 64, 0
2, 122025, Note_on_c, 0, 84, 0
2, 122038, Control_c, 0, 64, 0
2, 122040, Note_on_c, 0, 84, 108
2, 122040, Note_on_c, 0, 67, 82
2, 122040, Note_on_c, 0, 65, 82
2, 122064, Note_on_c, 0, 84, 0
2, 122070, Note_on_c, 0, 83, 90
2, 122074, Control_c, 0, 64, 127
2, 122097, Note_on_c, 0, 83, 0
2, 122100, Note_on_c, 0, 81, 99
2, 122122, Note_on_c, 0, 81, 0
2, 122130, Note_on_c, 0, 79, 99
2, 122142, Note_on_c, 0, 79, 0
2, 122150, Control_c, 0, 64, 0
2, 122160, Note_on_c, 0, 79, 103
2, 122186, Control_c, 0, 64, 127
2, 122190, Note_on_c, 0, 77, 86
2, 122195, Note_on_c, 0, 79, 0
2, 122211, Note_on_c, 0, 77, 0
2, 122220, Note_on_c, 0, 76, 99
2, 122242, Note_on_c, 0, 76, 0
2, 122250, Note_on_c, 0, 74, 99
2, 122251, Note_on_c, 0, 67, 0
2, 122254, Note_on_c, 0, 65, 0
2, 122265, Note_on_c, 0, 74, 0
2, 122274, Control_c, 0, 64, 0
2, 122280, Note_on_c, 0, 79, 90
2, 122280, Note_on_c, 0, 67, 63
2, 122280, Note_on_c, 0, 64, 70
2, 122307, Note_on_c, 0, 79, 0
2, 122310, Note_on_c, 0, 76, 86
2, 122312, Control_c, 0, 64, 127
2, 122329, Note_on_c, 0, 76, 0
2, 122340, Note_on_c, 0, 79, 72
2, 122370, Note_on_c, 0, 76, 70
2, 122373, Note_on_c, 0, 79, 0
2, 122384, Control_c, 0, 64, 0
2, 122385, Note_on_c, 0, 76, 0
2, 122400, Note_on_c, 0, 72, 90
2, 122416, Note_on_c, 0, 72, 0
2, 122460, Note_on_c, 0, 72, 82
2, 122475, Note_on_c, 0, 72, 0
2, 122489, Note_on_c, 0, 67, 0
2, 122493, Note_on_c, 0, 64, 0
2, 122520, Note_on_c, 0, 77, 86
2, 122520, Note_on_c, 0, 65, 72
2, 122520, Note_on_c, 0, 67, 70
2, 122531, Control_c, 0, 64, 127
2, 122542, Note_on_c, 0, 77, 0
2, 122550, Note_on_c, 0, 74, 72
2, 122569, Note_on_c, 0, 74, 0
2, 122580, Note_on_c, 0, 77, 82
2, 122603, Note_on_c, 0, 77, 0
2, 122610, Note_on_c, 0, 74, 86
2, 122623, Note_on_c, 0, 74, 0
2, 122634, Control_c, 0, 64, 0
2, 122640, Note_on_c, 0, 71, 90
2, 122655, Note_on_c, 0, 71, 0
2, 122700, Note_on_c, 0, 71, 90
2, 122713, Note_on_c, 0, 71, 0
2, 122725, Note_on_c, 0, 67, 0
2, 122728, Note_on_c, 0, 65, 0
2, 122760, Note_on_c, 0, 72, 78
2, 122760, Note_on_c, 0, 64, 67
2, 122760, Note_on_c, 0, 67, 67
2, 122784, Control_c, 0, 64, 127
2, 122790, Note_on_c, 0, 74, 82
2, 122793, Note_on_c, 0, 72, 0
2, 122818, Note_on_c, 0, 74, 0
2, 122820, Note_on_c, 0, 76, 86
2, 122838, Note_on_c, 0, 76, 0
2, 122850, Note_on_c, 0, 77, 99
2, 122869, Note_on_c, 0, 77, 0
2, 122880, Note_on_c, 0, 79, 99
2, 122898, Note_on_c, 0, 79, 0
2, 122910, Note_on_c, 0, 81, 103
2, 122926, Note_on_c, 0, 81, 0
2, 122940, Note_on_c, 0, 83, 99
2, 122959, Note_on_c, 0, 83, 0
2, 122970, Note_on_c, 0, 84, 99
2, 122973, Note_on_c, 0, 67, 0
2, 122979, Note_on_c, 0, 64, 0
2, 122982, Note_on_c, 0, 84, 0
2, 123000, Note_on_c, 0, 67, 69
2, 123000, Note_on_c, 0, 65, 82
2, 123000, Note_on_c, 0, 79, 108
2, 123009, Control_c, 0, 64, 0
2, 123028, Note_on_c, 0, 79, 0
2, 123030, Note_on_c, 0, 77, 82
2, 123045, Control_c, 0, 64, 127
2, 123053, Note_on_c, 0, 77, 0
2, 123060, Note_on_c, 0, 76, 90
2, 123084, Note_on_c, 0, 76, 0
2, 123090, Note_on_c, 0, 74, 99
2, 123095, Note_on_c, 0, 67, 0
2, 123098, Note_on_c, 0, 65, 0
2, 123108, Note_on_c, 0, 74, 0
2, 123120, Note_on_c, 0, 64, 72
2, 123120, Note_on_c, 0, 72, 99
2, 123120, Note_on_c, 0, 67, 72
2, 123121, Control_c, 0, 64, 0
2, 123148, Control_c, 0, 64, 127
2, 123166, Note_on_c, 0, 72, 0
2, 123181, Note_on_c, 0, 67, 0
2, 123183, Note_on_c, 0, 64, 0
2, 123216, Control_c, 0, 64, 0
2, 123240, Note_on_c, 0, 77, 90
2, 123240, Note_on_c, 0, 67, 72
2, 123240, Note_on_c, 0, 65, 72
2, 123255, Control_c, 0, 64, 127
2, 123265, Note_on_c, 0, 77, 0
2, 123270, Note_on_c, 0, 74, 82
2, 123290, Note_on_c, 0, 74, 0
2, 123300, Note_on_c, 0, 77, 78
2, 123325, Note_on_c, 0, 77, 0
2, 123330, Note_on_c, 0, 74, 70
2, 123347, Note_on_c, 0, 74, 0
2, 123360, Note_on_c, 0, 71, 95
2, 123367, Control_c, 0, 64, 0
2, 123374, Note_on_c, 0, 71, 0
2, 123420, Note_on_c, 0, 71, 90
2, 123435, Note_on_c, 0, 71, 0
2, 123447, Note_on_c, 0, 67, 0
2, 123453, Note_on_c, 0, 65, 0
2, 123480, Note_on_c, 0, 72, 99
2, 123480, Note_on_c, 0, 67, 74
2, 123480, Note_on_c, 0, 64, 74
2, 123502, Control_c, 0, 64, 127
2, 123507, Note_on_c, 0, 72, 0
2, 123510, Note_on_c, 0, 74, 86
2, 123532, Control_c, 0, 64, 0
2, 123539, Note_on_c, 0, 74, 0
2, 123540, Note_on_c, 0, 76, 95
2, 123553, Control_c, 0, 64, 127
2, 123561, Note_on_c, 0, 76, 0
2, 123570, Note_on_c, 0, 77, 82
2, 123588, Note_on_c, 0, 77, 0
2, 123600, Note_on_c, 0, 79, 103
2, 123618, Note_on_c, 0, 79, 0
2, 123630, Note_on_c, 0, 81, 99
2, 123646, Note_on_c, 0, 81, 0
2, 123660, Note_on_c, 0, 83, 99
2, 123678, Note_on_c, 0, 83, 0
2, 123690, Note_on_c, 0, 84, 103
2, 123698, Note_on_c, 0, 67, 0
2, 123700, Note_on_c, 0, 64, 0
2, 123705, Note_on_c, 0, 84, 0
2, 123720, Note_on_c, 0, 67, 78
2, 123720, Note_on_c, 0, 84, 99
2, 123720, Note_on_c, 0, 65, 82
2, 123730, Control_c, 0, 64, 0
2, 123744, Note_on_c, 0, 84, 0
2, 123750, Note_on_c, 0, 83, 90
2, 123763, Control_c, 0, 64, 127
2, 123780, Note_on_c, 0, 81, 82
2, 123788, Note_on_c, 0, 83, 0
2, 123807, Note_on_c, 0, 81, 0
2, 123810, Note_on_c, 0, 79, 90
2, 123823, Note_on_c, 0, 79, 0
2, 123840, Note_on_c, 0, 81, 99
2, 123850, Control_c, 0, 64, 0
2, 123860, Note_on_c, 0, 81, 0
2, 123870, Note_on_c, 0, 79, 95
2, 123873, Control_c, 0, 64, 127
2, 123889, Note_on_c, 0, 79, 0
2, 123900, Note_on_c, 0, 81, 72
2, 123919, Note_on_c, 0, 81, 0
2, 123930, Note_on_c, 0, 83, 103
2, 123947, Note_on_c, 0, 83, 0
2, 123948, Note_on_c, 0, 65, 0
2, 123948, Note_on_c, 0, 67, 0
2, 123960, Note_on_c, 0, 84, 99
2, 123960, Note_on_c, 0, 64, 90
2, 123960, Note_on_c, 0, 67, 90
2, 123969, Control_c, 0, 64, 0
2, 123984, Note_on_c, 0, 84, 0
2, 123990, Note_on_c, 0, 83, 90
2, 124000, Control_c, 0, 64, 127
2, 124009, Note_on_c, 0, 83, 0
2, 124020, Note_on_c, 0, 84, 86
2, 124042, Note_on_c, 0, 84, 0
2, 124050, Note_on_c, 0, 86, 103
2, 124066, Note_on_c, 0, 86, 0
2, 124080, Note_on_c, 0, 88, 117
2, 124083, Control_c, 0, 64, 0
2, 124109, Control_c, 0, 64, 127
2, 124112, Note_on_c, 0, 88, 0
2, 124140, Note_on_c, 0, 79, 117
2, 124155, Control_c, 0, 64, 0
2, 124159, Note_on_c, 0, 79, 0
2, 124165, Note_on_c, 0, 67, 0
2, 124172, Note_on_c, 0, 64, 0
2, 124200, Note_on_c, 0, 77, 99
2, 124200, Note_on_c, 0, 67, 95
2, 124200, Note_on_c, 0, 65, 95
2, 124213, Control_c, 0, 64, 127
2, 124230, Note_on_c, 0, 74, 90
2, 124232, Note_on_c, 0, 77, 0
2, 124254, Note_on_c, 0, 74, 0
2, 124260, Note_on_c, 0, 77, 86
2, 124290, Note_on_c, 0, 74, 90
2, 124291, Note_on_c, 0, 77, 0
2, 124304, Note_on_c, 0, 74, 0
2, 124320, Note_on_c, 0, 71, 99
2, 124334, Note_on_c, 0, 71, 0
2, 124347, Control_c, 0, 64, 0
2, 124380, Note_on_c, 0, 71, 117
2, 124394, Note_on_c, 0, 71, 0
2, 124416, Note_on_c, 0, 65, 0
2, 124419, Note_on_c, 0, 67, 0
2, 124680, Note_on_c, 0, 76, 103
2, 124680, Note_on_c, 0, 79, 99
2, 124680, Note_on_c, 0, 60, 86
2, 124680, Note_on_c, 0, 64, 86
2, 124699, Control_c, 0, 64, 127
2, 124742, Note_on_c, 0, 60, 0
2, 124747, Note_on_c, 0, 64, 0
2, 124748, Note_on_c, 0, 79, 0
2, 124748, Note_on_c, 0, 76, 0
2, 124798, Control_c, 0, 64, 0
2, 124800, Note_on_c, 0, 74, 99
2, 124800, Note_on_c, 0, 77, 99
2, 124800, Note_on_c, 0, 62, 86
2, 124800, Note_on_c, 0, 65, 90
2, 124826, Control_c, 0, 64, 127
2, 124855, Note_on_c, 0, 62, 0
2, 124856, Note_on_c, 0, 65, 0
2, 124860, Note_on_c, 0, 74, 0
2, 124861, Note_on_c, 0, 77, 0
2, 124915, Control_c, 0, 64, 0
2, 124920, Note_on_c, 0, 76, 99
2, 124920, Note_on_c, 0, 72, 90
2, 124920, Note_on_c, 0, 64, 86
2, 124920, Note_on_c, 0, 67, 78
2, 124942, Control_c, 0, 64, 127
2, 124976, Note_on_c, 0, 67, 0
2, 124981, Note_on_c, 0, 64, 0
2, 124982, Note_on_c, 0, 76, 0
2, 124984, Note_on_c, 0, 72, 0
2, 125036, Control_c, 0, 64, 0
2, 125040, Note_on_c, 0, 71, 99
2, 125040, Note_on_c, 0, 74, 99
2, 125040, Note_on_c, 0, 67, 86
2, 125040, Note_on_c, 0, 65, 86
2, 125071, Control_c, 0, 64, 127
2, 125150, Note_on_c, 0, 67, 0
2, 125152, Note_on_c, 0, 65, 0
2, 125155, Note_on_c, 0, 71, 0
2, 125162, Note_on_c, 0, 74, 0
2, 125216, Control_c, 0, 64, 0
2, 125220, Note_on_c, 0, 72, 90
2, 125220, Note_on_c, 0, 76, 99
2, 125220, Note_on_c, 0, 67, 82
2, 125220, Note_on_c, 0, 64, 86
2, 125238, Control_c, 0, 64, 127
2, 125264, Note_on_c, 0, 64, 0
2, 125265, Note_on_c, 0, 72, 0
2, 125267, Note_on_c, 0, 76, 0
2, 125269, Note_on_c, 0, 67, 0
2, 125272, Control_c, 0, 64, 0
2, 125280, Note_on_c, 0, 74, 95
2, 125280, Note_on_c, 0, 77, 90
2, 125280, Note_on_c, 0, 62, 82
2, 125280, Note_on_c, 0, 65, 86
2, 125296, Control_c, 0, 64, 127
2, 125317, Note_on_c, 0, 74, 0
2, 125318, Note_on_c, 0, 62, 0
2, 125320, Note_on_c, 0, 77, 0
2, 125326, Note_on_c, 0, 65, 0
2, 125340, Note_on_c, 0, 76, 86
2, 125340, Note_on_c, 0, 79, 90
2, 125340, Note_on_c, 0, 60, 86
2, 125340, Note_on_c, 0, 64, 95
2, 125356, Note_on_c, 0, 64, 0
2, 125361, Note_on_c, 0, 60, 0
2, 125362, Note_on_c, 0, 76, 0
2, 125365, Note_on_c, 0, 79, 0
2, 125399, Control_c, 0, 64, 0
2, 125400, Note_on_c, 0, 77, 103
2, 125400, Note_on_c, 0, 81, 99
2, 125400, Note_on_c, 0, 62, 72
2, 125400, Note_on_c, 0, 59, 90
2, 125400, Note_on_c, 0, 67, 86
2, 125520, Control_c, 0, 64, 127
2, 125622, Note_on_c, 0, 67, 0
2, 125622, Note_on_c, 0, 81, 0
2, 125625, Note_on_c, 0, 77, 0
2, 125626, Note_on_c, 0, 62, 0
2, 125630, Control_c, 0, 64, 0
2, 125631, Note_on_c, 0, 59, 0
2, 125640, Note_on_c, 0, 79, 95
2, 125640, Note_on_c, 0, 76, 99
2, 125664, Control_c, 0, 64, 127
2, 125688, Note_on_c, 0, 76, 0
2, 125699, Note_on_c, 0, 79, 0
2, 125700, Note_on_c, 0, 77, 95
2, 125700, Note_on_c, 0, 74, 74
2, 125726, Note_on_c, 0, 77, 0
2, 125727, Note_on_c, 0, 74, 0
2, 125760, Note_on_c, 0, 77, 90
2, 125760, Note_on_c, 0, 60, 74
2, 125760, Note_on_c, 0, 72, 74
2, 125760, Note_on_c, 0, 64, 82
2, 125764, Control_c, 0, 64, 0
2, 125820, Note_on_c, 0, 76, 103
2, 125825, Note_on_c, 0, 77, 0
2, 125889, Control_c, 0, 64, 127
2, 125940, Control_c, 0, 64, 0
2, 125942, Note_on_c, 0, 64, 0
2, 125942, Note_on_c, 0, 76, 0
2, 125946, Note_on_c, 0, 72, 0
2, 125946, Note_on_c, 0, 60, 0
2, 126120, Note_on_c, 0, 79, 90
2, 126128, Control_c, 0, 64, 127
2, 126180, Note_on_c, 0, 64, 86
2, 126180, Note_on_c, 0, 72, 72
2, 126216, Note_on_c, 0, 64, 0
2, 126218, Note_on_c, 0, 72, 0
2, 126240, Note_on_c, 0, 64, 99
2, 126240, Note_on_c, 0, 72, 74
2, 126273, Note_on_c, 0, 64, 0
2, 126278, Note_on_c, 0, 72, 0
2, 126300, Note_on_c, 0, 72, 67
2, 126300, Note_on_c, 0, 64, 82
2, 126303, Note_on_c, 0, 79, 0
2, 126320, Note_on_c, 0, 64, 0
2, 126321, Note_on_c, 0, 72, 0
2, 126352, Control_c, 0, 64, 0
2, 126360, Note_on_c, 0, 80, 112
2, 126360, Note_on_c, 0, 64, 90
2, 126360, Note_on_c, 0, 72, 72
2, 126376, Control_c, 0, 64, 127
2, 126396, Note_on_c, 0, 64, 0
2, 126399, Note_on_c, 0, 72, 0
2, 126420, Note_on_c, 0, 64, 95
2, 126420, Note_on_c, 0, 72, 74
2, 126443, Note_on_c, 0, 80, 0
2, 126453, Note_on_c, 0, 72, 0
2, 126457, Note_on_c, 0, 64, 0
2, 126477, Control_c, 0, 64, 0
2, 126480, Note_on_c, 0, 81, 103
2, 126509, Control_c, 0, 64, 127
2, 126540, Note_on_c, 0, 65, 86
2, 126540, Note_on_c, 0, 72, 65
2, 126570, Note_on_c, 0, 72, 0
2, 126571, Note_on_c, 0, 65, 0
2, 126575, Note_on_c, 0, 81, 0
2, 126600, Note_on_c, 0, 65, 90
2, 126600, Note_on_c, 0, 72, 67
2, 126628, Note_on_c, 0, 72, 0
2, 126631, Note_on_c, 0, 65, 0
2, 126660, Note_on_c, 0, 65, 78
2, 126660, Note_on_c, 0, 72, 66
2, 126680, Note_on_c, 0, 72, 0
2, 126681, Note_on_c, 0, 65, 0
2, 126715, Control_c, 0, 64, 0
2, 126720, Note_on_c, 0, 73, 99
2, 126720, Note_on_c, 0, 65, 90
2, 126720, Note_on_c, 0, 72, 82
2, 126738, Control_c, 0, 64, 127
2, 126752, Note_on_c, 0, 72, 0
2, 126753, Note_on_c, 0, 65, 0
2, 126759, Note_on_c, 0, 73, 0
2, 126780, Note_on_c, 0, 65, 86
2, 126780, Note_on_c, 0, 74, 103
2, 126780, Note_on_c, 0, 72, 69
2, 126798, Note_on_c, 0, 72, 0
2, 126799, Note_on_c, 0, 74, 0
2, 126808, Note_on_c, 0, 65, 0
2, 126838, Control_c, 0, 64, 0
2, 126840, Note_on_c, 0, 67, 78
2, 126840, Note_on_c, 0, 76, 90
2, 126840, Note_on_c, 0, 72, 90
2, 126863, Control_c, 0, 64, 127
2, 126923, Note_on_c, 0, 76, 0
2, 126930, Note_on_c, 0, 77, 86
2, 126931, Note_on_c, 0, 67, 0
2, 126932, Note_on_c, 0, 72, 0
2, 126950, Note_on_c, 0, 77, 0
2, 126960, Note_on_c, 0, 76, 82
2, 126960, Note_on_c, 0, 67, 90
2, 126960, Note_on_c, 0, 72, 86
2, 126969, Control_c, 0, 64, 0
2, 126988, Note_on_c, 0, 76, 0
2, 126990, Note_on_c, 0, 74, 95
2, 126990, Note_on_c, 0, 71, 90
2, 126991, Note_on_c, 0, 72, 0
2, 127016, Control_c, 0, 64, 127
2, 127061, Control_c, 0, 64, 0
2, 127079, Note_on_c, 0, 67, 0
2, 127080, Note_on_c, 0, 65, 90
2, 127084, Control_c, 0, 64, 127
2, 127150, Note_on_c, 0, 71, 0
2, 127155, Note_on_c, 0, 74, 0
2, 127167, Note_on_c, 0, 65, 0
2, 127200, Note_on_c, 0, 64, 86
2, 127200, Note_on_c, 0, 72, 103
2, 127200, Note_on_c, 0, 67, 95
2, 127213, Control_c, 0, 64, 0
2, 127234, Control_c, 0, 64, 127
2, 127295, Note_on_c, 0, 72, 0
2, 127301, Note_on_c, 0, 67, 0
2, 127303, Note_on_c, 0, 64, 0
2, 127320, Note_on_c, 0, 72, 112
2, 127330, Control_c, 0, 64, 0
2, 127350, Note_on_c, 0, 74, 99
2, 127353, Note_on_c, 0, 72, 0
2, 127380, Note_on_c, 0, 76, 99
2, 127381, Note_on_c, 0, 74, 0
2, 127405, Note_on_c, 0, 76, 0
2, 127410, Note_on_c, 0, 77, 103
2, 127435, Note_on_c, 0, 77, 0
2, 127440, Note_on_c, 0, 79, 103
2, 127466, Note_on_c, 0, 79, 0
2, 127470, Note_on_c, 0, 81, 103
2, 127500, Note_on_c, 0, 83, 108
2, 127504, Note_on_c, 0, 81, 0
2, 127526, Note_on_c, 0, 83, 0
2, 127530, Note_on_c, 0, 84, 103
2, 127548, Note_on_c, 0, 84, 0
2, 127560, Note_on_c, 0, 84, 103
2, 127610, Note_on_c, 0, 84, 0
2, 127620, Note_on_c, 0, 72, 72
2, 127620, Note_on_c, 0, 64, 90
2, 127620, Note_on_c, 0, 79, 103
2, 127626, Control_c, 0, 64, 127
2, 127667, Note_on_c, 0, 72, 0
2, 127668, Note_on_c, 0, 64, 0
2, 127680, Note_on_c, 0, 72, 72
2, 127680, Note_on_c, 0, 64, 86
2, 127711, Note_on_c, 0, 64, 0
2, 127713, Note_on_c, 0, 72, 0
2, 127739, Note_on_c, 0, 79, 0
2, 127740, Note_on_c, 0, 64, 86
2, 127740, Note_on_c, 0, 72, 67
2, 127764, Note_on_c, 0, 72, 0
2, 127764, Note_on_c, 0, 64, 0
2, 127800, Note_on_c, 0, 80, 112
2, 127800, Note_on_c, 0, 64, 90
2, 127800, Note_on_c, 0, 72, 70
2, 127802, Control_c, 0, 64, 0
2, 127824, Control_c, 0, 64, 127
2, 127832, Note_on_c, 0, 64, 0
2, 127834, Note_on_c, 0, 72, 0
2, 127860, Note_on_c, 0, 64, 99
2, 127860, Note_on_c, 0, 72, 65
2, 127898, Note_on_c, 0, 72, 0
2, 127898, Note_on_c, 0, 80, 0
2, 127900, Note_on_c, 0, 64, 0
2, 127920, Note_on_c, 0, 81, 103
2, 127921, Control_c, 0, 64, 0
2, 127949, Control_c, 0, 64, 127
2, 127980, Note_on_c, 0, 65, 86
2, 127980, Note_on_c, 0, 72, 65
2, 128009, Note_on_c, 0, 72, 0
2, 128011, Note_on_c, 0, 65, 0
2, 128024, Note_on_c, 0, 81, 0
2, 128040, Note_on_c, 0, 65, 86
2, 128040, Note_on_c, 0, 72, 69
2, 128067, Note_on_c, 0, 65, 0
2, 128071, Note_on_c, 0, 72, 0
2, 128100, Note_on_c, 0, 65, 86
2, 128100, Note_on_c, 0, 72, 70
2, 128119, Note_on_c, 0, 72, 0
2, 128119, Note_on_c, 0, 65, 0
2, 128157, Control_c, 0, 64, 0
2, 128160, Note_on_c, 0, 73, 108
2, 128160, Note_on_c, 0, 65, 95
2, 128160, Note_on_c, 0, 72, 86
2, 128177, Control_c, 0, 64, 127
2, 128193, Note_on_c, 0, 72, 0
2, 128193, Note_on_c, 0, 73, 0
2, 128194, Note_on_c, 0, 65, 0
2, 128220, Note_on_c, 0, 74, 103
2, 128220, Note_on_c, 0, 65, 78
2, 128220, Note_on_c, 0, 72, 69
2, 128239, Note_on_c, 0, 72, 0
2, 128244, Note_on_c, 0, 74, 0
2, 128246, Note_on_c, 0, 65, 0
2, 128280, Note_on_c, 0, 76, 112
2, 128280, Note_on_c, 0, 67, 86
2, 128280, Note_on_c, 0, 72, 86
2, 128285, Control_c, 0, 64, 0
2, 128312, Control_c, 0, 64, 127
2, 128352, Note_on_c, 0, 76, 0
2, 128365, Note_on_c, 0, 72, 0
2, 128366, Note_on_c, 0, 67, 0
2, 128370, Note_on_c, 0, 77, 86
2, 128388, Note_on_c, 0, 77, 0
2, 128400, Note_on_c, 0, 76, 95
2, 128400, Note_on_c, 0, 67, 74
2, 128400, Note_on_c, 0, 72, 95
2, 128404, Control_c, 0, 64, 0
2, 128427, Note_on_c, 0, 76, 0
2, 128430, Note_on_c, 0, 74, 99
2, 128430, Note_on_c, 0, 71, 86
2, 128431, Note_on_c, 0, 72, 0
2, 128477, Control_c, 0, 64, 127
2, 128532, Control_c, 0, 64, 0
2, 128543, Control_c, 0, 64, 127
2, 128590, Note_on_c, 0, 71, 0
2, 128592, Note_on_c, 0, 74, 0
2, 128593, Note_on_c, 0, 67, 0
2, 128640, Note_on_c, 0, 72, 90
2, 128640, Note_on_c, 0, 69, 95
2, 128640, Note_on_c, 0, 77, 90
2, 128644, Control_c, 0, 64, 0
2, 128670, Control_c, 0, 64, 127
2, 128713, Note_on_c, 0, 69, 0
2, 128760, Note_on_c, 0, 69, 99
2, 128792, Note_on_c, 0, 72, 0
2, 128802, Note_on_c, 0, 77, 0
2, 128824, Note_on_c, 0, 69, 0
2, 128880, Note_on_c, 0, 72, 103
2, 128880, Note_on_c, 0, 76, 103
2, 128880, Note_on_c, 0, 67, 99
2, 128882, Control_c, 0, 64, 0
2, 128906, Control_c, 0, 64, 127
2, 128934, Note_on_c, 0, 72, 0
2, 128938, Note_on_c, 0, 67, 0
2, 128940, Note_on_c, 0, 76, 0
2, 129000, Note_on_c, 0, 65, 86
2, 129000, Note_on_c, 0, 72, 103
2, 129000, Note_on_c, 0, 81, 112
2, 129010, Control_c, 0, 64, 0
2, 129034, Control_c, 0, 64, 127
2, 129113, Note_on_c, 0, 65, 0
2, 129118, Note_on_c, 0, 81, 0
2, 129119, Control_c, 0, 64, 0
2, 129120, Note_on_c, 0, 64, 90
2, 129120, Note_on_c, 0, 79, 108
2, 129139, Control_c, 0, 64, 127
2, 129168, Note_on_c, 0, 72, 0
2, 129170, Note_on_c, 0, 79, 0
2, 129181, Note_on_c, 0, 64, 0
2, 129238, Control_c, 0, 64, 0
2, 129240, Note_on_c, 0, 83, 103
2, 129240, Note_on_c, 0, 74, 108
2, 129240, Note_on_c, 0, 67, 99
2, 129259, Control_c, 0, 64, 127
2, 129287, Note_on_c, 0, 67, 0
2, 129289, Note_on_c, 0, 74, 0
2, 129290, Note_on_c, 0, 83, 0
2, 129349, Control_c, 0, 64, 0
2, 129360, Note_on_c, 0, 76, 112
2, 129360, Note_on_c, 0, 84, 108
2, 129360, Note_on_c, 0, 72, 99
2, 129376, Control_c, 0, 64, 127
2, 129587, Control_c, 0, 64, 0
2, 129596, Note_on_c, 0, 72, 0
2, 129596, Note_on_c, 0, 84, 0
2, 129596, Note_on_c, 0, 76, 0
2, 129720, Note_on_c, 0, 69, 103
2, 129720, Note_on_c, 0, 72, 108
2, 129720, Note_on_c, 0, 74, 108
2, 129720, Note_on_c, 0, 81, 103
2, 129720, Note_on_c, 0, 84, 108
2, 129728, Control_c, 0, 64, 127
2, 130088, Control_c, 0, 64, 0
2, 130320, Note_on_c, 0, 84, 0
2, 130320, Note_on_c, 0, 74, 0
2, 130320, Note_on_c, 0, 69, 0
2, 130320, Note_on_c, 0, 72, 0
2, 130320, Note_on_c, 0, 81, 0
2, 130440, Control_c, 0, 64, 127
2, 130440, Note_on_c, 0, 84, 95
2, 130464, Note_on_c, 0, 84, 0
2, 130470, Note_on_c, 0, 83, 95
2, 130493, Note_on_c, 0, 83, 0
2, 130497, Control_c, 0, 64, 0
2, 130500, Note_on_c, 0, 81, 86
2, 130500, Note_on_c, 0, 67, 86
2, 130500, Note_on_c, 0, 74, 74
2, 130518, Control_c, 0, 64, 127
2, 130529, Note_on_c, 0, 81, 0
2, 130530, Note_on_c, 0, 79, 90
2, 130532, Note_on_c, 0, 67, 0
2, 130537, Note_on_c, 0, 74, 0
2, 130549, Note_on_c, 0, 79, 0
2, 130560, Control_c, 0, 64, 0
2, 130560, Note_on_c, 0, 79, 90
2, 130560, Note_on_c, 0, 67, 90
2, 130560, Note_on_c, 0, 74, 72
2, 130580, Control_c, 0, 64, 127
2, 130601, Note_on_c, 0, 67, 0
2, 130602, Note_on_c, 0, 74, 0
2, 130620, Note_on_c, 0, 67, 75
2, 130620, Note_on_c, 0, 74, 73
2, 130634, Note_on_c, 0, 79, 0
2, 130655, Note_on_c, 0, 67, 0
2, 130657, Note_on_c, 0, 74, 0
2, 130680, Note_on_c, 0, 74, 71
2, 130680, Note_on_c, 0, 67, 88
2, 130686, Control_c, 0, 64, 0
2, 130708, Control_c, 0, 64, 127
2, 130714, Note_on_c, 0, 67, 0
2, 130714, Note_on_c, 0, 74, 0
2, 130740, Note_on_c, 0, 74, 68
2, 130740, Note_on_c, 0, 67, 68
2, 130761, Note_on_c, 0, 67, 0
2, 130767, Note_on_c, 0, 74, 0
2, 130800, Note_on_c, 0, 77, 99
2, 130801, Control_c, 0, 64, 0
2, 130823, Control_c, 0, 64, 127
2, 130827, Note_on_c, 0, 77, 0
2, 130830, Note_on_c, 0, 76, 73
2, 130852, Note_on_c, 0, 76, 0
2, 130854, Control_c, 0, 64, 0
2, 130860, Note_on_c, 0, 77, 94
2, 130860, Note_on_c, 0, 74, 89
2, 130860, Note_on_c, 0, 67, 94
2, 130873, Control_c, 0, 64, 127
2, 130886, Note_on_c, 0, 77, 0
2, 130888, Note_on_c, 0, 67, 0
2, 130890, Note_on_c, 0, 76, 77
2, 130891, Note_on_c, 0, 74, 0
2, 130910, Note_on_c, 0, 76, 0
2, 130919, Control_c, 0, 64, 0
2, 130920, Note_on_c, 0, 77, 100
2, 130920, Note_on_c, 0, 74, 73
2, 130920, Note_on_c, 0, 67, 94
2, 130940, Control_c, 0, 64, 127
2, 130955, Note_on_c, 0, 67, 0
2, 130956, Note_on_c, 0, 74, 0
2, 130969, Note_on_c, 0, 77, 0
2, 130980, Note_on_c, 0, 74, 76
2, 130980, Note_on_c, 0, 67, 82
2, 131001, Note_on_c, 0, 74, 0
2, 131004, Note_on_c, 0, 67, 0
2, 131039, Control_c, 0, 64, 0
2, 131040, Note_on_c, 0, 67, 87
2, 131040, Note_on_c, 0, 74, 76
2, 131060, Control_c, 0, 64, 127
2, 131073, Note_on_c, 0, 74, 0
2, 131076, Note_on_c, 0, 67, 0
2, 131100, Note_on_c, 0, 74, 74
2, 131100, Note_on_c, 0, 67, 88
2, 131122, Note_on_c, 0, 67, 0
2, 131122, Note_on_c, 0, 74, 0
2, 131152, Control_c, 0, 64, 0
2, 131160, Note_on_c, 0, 77, 103
2, 131176, Control_c, 0, 64, 127
2, 131184, Note_on_c, 0, 77, 0
2, 131190, Note_on_c, 0, 76, 98
2, 131209, Note_on_c, 0, 76, 0
2, 131219, Control_c, 0, 64, 0
2, 131220, Note_on_c, 0, 77, 104
2, 131220, Note_on_c, 0, 67, 98
2, 131220, Note_on_c, 0, 74, 89
2, 131240, Control_c, 0, 64, 127
2, 131244, Note_on_c, 0, 77, 0
2, 131248, Note_on_c, 0, 74, 0
2, 131248, Note_on_c, 0, 67, 0
2, 131250, Note_on_c, 0, 76, 76
2, 131269, Note_on_c, 0, 76, 0
2, 131277, Control_c, 0, 64, 0
2, 131280, Note_on_c, 0, 77, 108
2, 131280, Note_on_c, 0, 67, 98
2, 131280, Note_on_c, 0, 74, 78
2, 131296, Control_c, 0, 64, 127
2, 131311, Note_on_c, 0, 74, 0
2, 131311, Note_on_c, 0, 67, 0
2, 131338, Note_on_c, 0, 77, 0
2, 131340, Note_on_c, 0, 67, 95
2, 131340, Note_on_c, 0, 74, 73
2, 131359, Note_on_c, 0, 74, 0
2, 131360, Note_on_c, 0, 67, 0
2, 131394, Control_c, 0, 64, 0
2, 131400, Note_on_c, 0, 67, 95
2, 131400, Note_on_c, 0, 74, 80
2, 131416, Control_c, 0, 64, 127
2, 131432, Note_on_c, 0, 67, 0
2, 131433, Note_on_c, 0, 74, 0
2, 131460, Note_on_c, 0, 74, 69
2, 131460, Note_on_c, 0, 67, 92
2, 131478, Note_on_c, 0, 67, 0
2, 131480, Note_on_c, 0, 74, 0
2, 131518, Control_c, 0, 64, 0
2, 131520, Note_on_c, 0, 77, 107
2, 131520, Note_on_c, 0, 67, 107
2, 131520, Note_on_c, 0, 74, 97
2, 131539, Control_c, 0, 64, 127
2, 131546, Note_on_c, 0, 77, 0
2, 131550, Note_on_c, 0, 76, 107
2, 131572, Note_on_c, 0, 76, 0
2, 131578, Control_c, 0, 64, 0
2, 131580, Note_on_c, 0, 77, 108
2, 131601, Control_c, 0, 64, 127
2, 131603, Note_on_c, 0, 77, 0
2, 131610, Note_on_c, 0, 76, 102
2, 131625, Control_c, 0, 64, 0
2, 131631, Note_on_c, 0, 76, 0
2, 131640, Note_on_c, 0, 77, 114
2, 131654, Control_c, 0, 64, 127
2, 131876, Note_on_c, 0, 74, 0
2, 131877, Note_on_c, 0, 77, 0
2, 131877, Note_on_c, 0, 67, 0
2, 131880, Note_on_c, 0, 76, 82
2, 132000, Note_on_c, 0, 77, 90
2, 132021, Note_on_c, 0, 76, 0
2, 132119, Note_on_c, 0, 77, 0
2, 132120, Note_on_c, 0, 78, 82
2, 132239, Note_on_c, 0, 78, 0
2, 132240, Note_on_c, 0, 67, 80
2, 132240, Note_on_c, 0, 64, 80
2, 132240, Note_on_c, 0, 79, 98
2, 132259, Control_c, 0, 64, 127
2, 132267, Note_on_c, 0, 79, 0
2, 132270, Note_on_c, 0, 76, 98
2, 132291, Note_on_c, 0, 76, 0
2, 132300, Note_on_c, 0, 79, 93
2, 132326, Note_on_c, 0, 79, 0
2, 132330, Note_on_c, 0, 76, 93
2, 132335, Control_c, 0, 64, 0
2, 132355, Note_on_c, 0, 76, 0
2, 132360, Note_on_c, 0, 72, 98
2, 132376, Control_c, 0, 64, 127
2, 132399, Note_on_c, 0, 72, 0
2, 132420, Note_on_c, 0, 72, 98
2, 132434, Note_on_c, 0, 67, 0
2, 132440, Note_on_c, 0, 64, 0
2, 132446, Note_on_c, 0, 72, 0
2, 132480, Control_c, 0, 64, 0
2, 132480, Note_on_c, 0, 77, 98
2, 132480, Note_on_c, 0, 65, 78
2, 132480, Note_on_c, 0, 67, 84
2, 132510, Note_on_c, 0, 74, 93
2, 132512, Note_on_c, 0, 77, 0
2, 132523, Control_c, 0, 64, 127
2, 132533, Note_on_c, 0, 74, 0
2, 132540, Note_on_c, 0, 77, 89
2, 132566, Note_on_c, 0, 77, 0
2, 132570, Note_on_c, 0, 74, 84
2, 132589, Note_on_c, 0, 74, 0
2, 132599, Control_c, 0, 64, 0
2, 132600, Note_on_c, 0, 71, 107
2, 132628, Control_c, 0, 64, 127
2, 132642, Note_on_c, 0, 71, 0
2, 132660, Note_on_c, 0, 71, 107
2, 132675, Note_on_c, 0, 67, 0
2, 132683, Note_on_c, 0, 71, 0
2, 132683, Note_on_c, 0, 65, 0
2, 132719, Control_c, 0, 64, 0
2, 132720, Note_on_c, 0, 72, 122
2, 132720, Note_on_c, 0, 67, 84
2, 132720, Note_on_c, 0, 64, 89
2, 132748, Control_c, 0, 64, 127
2, 132750, Note_on_c, 0, 74, 93
2, 132752, Note_on_c, 0, 72, 0
2, 132780, Note_on_c, 0, 74, 0
2, 132780, Note_on_c, 0, 76, 98
2, 132800, Note_on_c, 0, 76, 0
2, 132810, Note_on_c, 0, 77, 107
2, 132829, Note_on_c, 0, 77, 0
2, 132839, Control_c, 0, 64, 0
2, 132840, Note_on_c, 0, 79, 107
2, 132860, Note_on_c, 0, 79, 0
2, 132866, Control_c, 0, 64, 127
2, 132870, Note_on_c, 0, 81, 103
2, 132888, Note_on_c, 0, 81, 0
2, 132900, Note_on_c, 0, 83, 112
2, 132919, Note_on_c, 0, 83, 0
2, 132930, Note_on_c, 0, 84, 107
2, 132937, Note_on_c, 0, 67, 0
2, 132940, Note_on_c, 0, 64, 0
2, 132947, Note_on_c, 0, 84, 0
2, 132960, Note_on_c, 0, 84, 112
2, 132960, Note_on_c, 0, 67, 84
2, 132960, Note_on_c, 0, 65, 89
2, 132962, Control_c, 0, 64, 0
2, 132986, Note_on_c, 0, 84, 0
2, 132990, Note_on_c, 0, 83, 93
2, 132996, Control_c, 0, 64, 127
2, 133020, Note_on_c, 0, 81, 89
2, 133022, Note_on_c, 0, 83, 0
2, 133043, Note_on_c, 0, 81, 0
2, 133050, Note_on_c, 0, 79, 103
2, 133064, Note_on_c, 0, 79, 0
2, 133080, Note_on_c, 0, 79, 107
2, 133108, Note_on_c, 0, 79, 0
2, 133110, Note_on_c, 0, 77, 93
2, 133135, Note_on_c, 0, 77, 0
2, 133140, Note_on_c, 0, 76, 98
2, 133166, Note_on_c, 0, 76, 0
2, 133170, Note_on_c, 0, 74, 103
2, 133178, Note_on_c, 0, 67, 0
2, 133179, Note_on_c, 0, 65, 0
2, 133189, Note_on_c, 0, 74, 0
2, 133198, Control_c, 0, 64, 0
2, 133200, Note_on_c, 0, 79, 112
2, 133200, Note_on_c, 0, 67, 76
2, 133200, Note_on_c, 0, 64, 89
2, 133227, Note_on_c, 0, 79, 0
2, 133230, Note_on_c, 0, 76, 98
2, 133233, Control_c, 0, 64, 127
2, 133249, Note_on_c, 0, 76, 0
2, 133260, Note_on_c, 0, 79, 93
2, 133287, Note_on_c, 0, 79, 0
2, 133290, Note_on_c, 0, 76, 89
2, 133308, Note_on_c, 0, 76, 0
2, 133319, Control_c, 0, 64, 0
2, 133320, Note_on_c, 0, 72, 103
2, 133344, Control_c, 0, 64, 127
2, 133359, Note_on_c, 0, 72, 0
2, 133380, Note_on_c, 0, 72, 107
2, 133395, Note_on_c, 0, 67, 0
2, 133399, Note_on_c, 0, 64, 0
2, 133402, Note_on_c, 0, 72, 0
2, 133440, Note_on_c, 0, 77, 112
2, 133440, Note_on_c, 0, 67, 80
2, 133440, Note_on_c, 0, 65, 76
2, 133445, Control_c, 0, 64, 0
2, 133467, Note_on_c, 0, 77, 0
2, 133470, Note_on_c, 0, 74, 84
2, 133474, Control_c, 0, 64, 127
2, 133492, Note_on_c, 0, 74, 0
2, 133500, Note_on_c, 0, 77, 89
2, 133525, Note_on_c, 0, 77, 0
2, 133530, Note_on_c, 0, 74, 84
2, 133548, Note_on_c, 0, 74, 0
2, 133560, Note_on_c, 0, 71, 107
2, 133562, Control_c, 0, 64, 0
2, 133587, Control_c, 0, 64, 127
2, 133596, Note_on_c, 0, 71, 0
2, 133620, Note_on_c, 0, 71, 93
2, 133635, Note_on_c, 0, 67, 0
2, 133637, Note_on_c, 0, 65, 0
2, 133641, Note_on_c, 0, 71, 0
2, 133680, Note_on_c, 0, 67, 89
2, 133680, Note_on_c, 0, 72, 107
2, 133680, Note_on_c, 0, 64, 93
2, 133682, Control_c, 0, 64, 0
2, 133710, Control_c, 0, 64, 127
2, 133710, Note_on_c, 0, 74, 93
2, 133711, Note_on_c, 0, 72, 0
2, 133721, Control_c, 0, 64, 0
2, 133739, Note_on_c, 0, 74, 0
2, 133740, Note_on_c, 0, 76, 107
2, 133746, Control_c, 0, 64, 127
2, 133762, Note_on_c, 0, 76, 0
2, 133770, Note_on_c, 0, 77, 107
2, 133789, Note_on_c, 0, 77, 0
2, 133800, Note_on_c, 0, 79, 112
2, 133808, Control_c, 0, 64, 0
2, 133819, Note_on_c, 0, 79, 0
2, 133830, Note_on_c, 0, 81, 107
2, 133831, Control_c, 0, 64, 127
2, 133849, Note_on_c, 0, 81, 0
2, 133860, Note_on_c, 0, 83, 98
2, 133886, Note_on_c, 0, 83, 0
2, 133890, Note_on_c, 0, 84, 107
2, 133899, Note_on_c, 0, 67, 0
2, 133904, Note_on_c, 0, 64, 0
2, 133907, Note_on_c, 0, 84, 0
2, 133920, Note_on_c, 0, 67, 80
2, 133920, Note_on_c, 0, 65, 89
2, 133920, Note_on_c, 0, 79, 112
2, 133926, Control_c, 0, 64, 0
2, 133950, Note_on_c, 0, 77, 89
2, 133955, Note_on_c, 0, 79, 0
2, 133960, Control_c, 0, 64, 127
2, 133972, Note_on_c, 0, 77, 0
2, 133980, Note_on_c, 0, 76, 107
2, 134005, Note_on_c, 0, 76, 0
2, 134010, Note_on_c, 0, 74, 71
2, 134013, Note_on_c, 0, 67, 0
2, 134018, Note_on_c, 0, 65, 0
2, 134027, Note_on_c, 0, 74, 0
2, 134038, Control_c, 0, 64, 0
2, 134040, Note_on_c, 0, 72, 122
2, 134040, Note_on_c, 0, 64, 78
2, 134040, Note_on_c, 0, 67, 89
2, 134068, Control_c, 0, 64, 127
2, 134098, Note_on_c, 0, 72, 0
2, 134109, Note_on_c, 0, 67, 0
2, 134116, Note_on_c, 0, 64, 0
2, 134159, Control_c, 0, 64, 0
2, 134160, Note_on_c, 0, 77, 103
2, 134160, Note_on_c, 0, 67, 78
2, 134160, Note_on_c, 0, 65, 78
2, 134188, Note_on_c, 0, 77, 0
2, 134190, Note_on_c, 0, 74, 93
2, 134195, Control_c, 0, 64, 127
2, 134213, Note_on_c, 0, 74, 0
2, 134220, Note_on_c, 0, 77, 93
2, 134244, Note_on_c, 0, 77, 0
2, 134250, Note_on_c, 0, 74, 98
2, 134267, Note_on_c, 0, 74, 0
2, 134275, Control_c, 0, 64, 0
2, 134280, Note_on_c, 0, 71, 112
2, 134301, Control_c, 0, 64, 127
2, 134318, Note_on_c, 0, 71, 0
2, 134340, Note_on_c, 0, 71, 112
2, 134345, Note_on_c, 0, 67, 0
2, 134351, Note_on_c, 0, 65, 0
2, 134359, Note_on_c, 0, 71, 0
2, 134399, Control_c, 0, 64, 0
2, 134400, Note_on_c, 0, 72, 117
2, 134400, Note_on_c, 0, 67, 84
2, 134400, Note_on_c, 0, 64, 84
2, 134427, Control_c, 0, 64, 127
2, 134430, Note_on_c, 0, 74, 103
2, 134431, Note_on_c, 0, 72, 0
2, 134455, Note_on_c, 0, 74, 0
2, 134460, Note_on_c, 0, 76, 107
2, 134478, Note_on_c, 0, 76, 0
2, 134490, Note_on_c, 0, 77, 112
2, 134508, Note_on_c, 0, 77, 0
2, 134514, Control_c, 0, 64, 0
2, 134520, Note_on_c, 0, 79, 112
2, 134537, Control_c, 0, 64, 127
2, 134541, Note_on_c, 0, 79, 0
2, 134550, Note_on_c, 0, 81, 107
2, 134568, Note_on_c, 0, 81, 0
2, 134580, Note_on_c, 0, 83, 107
2, 134599, Note_on_c, 0, 83, 0
2, 134610, Note_on_c, 0, 84, 112
2, 134622, Note_on_c, 0, 67, 0
2, 134623, Note_on_c, 0, 64, 0
2, 134626, Note_on_c, 0, 84, 0
2, 134640, Note_on_c, 0, 67, 80
2, 134640, Note_on_c, 0, 65, 89
2, 134640, Note_on_c, 0, 84, 112
2, 134644, Control_c, 0, 64, 0
2, 134664, Note_on_c, 0, 84, 0
2, 134670, Note_on_c, 0, 83, 112
2, 134673, Control_c, 0, 64, 127
2, 134693, Note_on_c, 0, 83, 0
2, 134700, Note_on_c, 0, 81, 103
2, 134726, Note_on_c, 0, 81, 0
2, 134730, Note_on_c, 0, 79, 107
2, 134748, Note_on_c, 0, 79, 0
2, 134760, Note_on_c, 0, 81, 107
2, 134765, Control_c, 0, 64, 0
2, 134783, Note_on_c, 0, 81, 0
2, 134790, Control_c, 0, 64, 127
2, 134790, Note_on_c, 0, 79, 107
2, 134811, Note_on_c, 0, 79, 0
2, 134820, Note_on_c, 0, 81, 112
2, 134840, Note_on_c, 0, 81, 0
2, 134850, Note_on_c, 0, 83, 107
2, 134863, Note_on_c, 0, 65, 0
2, 134864, Note_on_c, 0, 67, 0
2, 134870, Note_on_c, 0, 83, 0
2, 134880, Control_c, 0, 64, 0
2, 134880, Note_on_c, 0, 64, 98
2, 134880, Note_on_c, 0, 67, 93
2, 134880, Note_on_c, 0, 84, 112
2, 134906, Note_on_c, 0, 84, 0
2, 134907, Control_c, 0, 64, 127
2, 134910, Note_on_c, 0, 83, 107
2, 134929, Note_on_c, 0, 83, 0
2, 134940, Note_on_c, 0, 84, 107
2, 134963, Note_on_c, 0, 84, 0
2, 134970, Note_on_c, 0, 88, 112
2, 134989, Note_on_c, 0, 88, 0
2, 134999, Control_c, 0, 64, 0
2, 135000, Note_on_c, 0, 79, 107
2, 135028, Control_c, 0, 64, 127
2, 135073, Note_on_c, 0, 79, 0
2, 135087, Note_on_c, 0, 67, 0
2, 135087, Note_on_c, 0, 64, 0
2, 135113, Control_c, 0, 64, 0
2, 135120, Note_on_c, 0, 77, 112
2, 135120, Note_on_c, 0, 65, 76
2, 135120, Note_on_c, 0, 67, 80
2, 135149, Note_on_c, 0, 77, 0
2, 135150, Note_on_c, 0, 74, 84
2, 135151, Control_c, 0, 64, 127
2, 135169, Note_on_c, 0, 74, 0
2, 135180, Note_on_c, 0, 77, 89
2, 135208, Note_on_c, 0, 77, 0
2, 135210, Note_on_c, 0, 74, 89
2, 135233, Note_on_c, 0, 74, 0
2, 135240, Note_on_c, 0, 71, 93
2, 135241, Control_c, 0, 64, 0
2, 135267, Control_c, 0, 64, 127
2, 135286, Note_on_c, 0, 71, 0
2, 135300, Note_on_c, 0, 71, 107
2, 135312, Note_on_c, 0, 67, 0
2, 135317, Note_on_c, 0, 65, 0
2, 135320, Note_on_c, 0, 71, 0
2, 135357, Control_c, 0, 64, 0
2, 135360, Note_on_c, 0, 72, 107
2, 135360, Note_on_c, 0, 67, 76
2, 135360, Note_on_c, 0, 64, 80
2, 135385, Control_c, 0, 64, 127
2, 135390, Note_on_c, 0, 74, 98
2, 135391, Note_on_c, 0, 72, 0
2, 135410, Control_c, 0, 64, 0
2, 135420, Note_on_c, 0, 76, 103
2, 135422, Note_on_c, 0, 74, 0
2, 135432, Control_c, 0, 64, 127
2, 135446, Note_on_c, 0, 76, 0
2, 135450, Note_on_c, 0, 77, 107
2, 135469, Note_on_c, 0, 77, 0
2, 135480, Note_on_c, 0, 79, 112
2, 135499, Note_on_c, 0, 79, 0
2, 135510, Note_on_c, 0, 81, 112
2, 135527, Note_on_c, 0, 81, 0
2, 135540, Note_on_c, 0, 83, 112
2, 135559, Note_on_c, 0, 83, 0
2, 135570, Note_on_c, 0, 84, 112
2, 135586, Note_on_c, 0, 67, 0
2, 135587, Note_on_c, 0, 84, 0
2, 135588, Note_on_c, 0, 64, 0
2, 135600, Note_on_c, 0, 84, 112
2, 135600, Note_on_c, 0, 67, 80
2, 135600, Note_on_c, 0, 65, 78
2, 135608, Control_c, 0, 64, 0
2, 135626, Note_on_c, 0, 84, 0
2, 135630, Note_on_c, 0, 83, 98
2, 135641, Control_c, 0, 64, 127
2, 135660, Note_on_c, 0, 81, 80
2, 135662, Note_on_c, 0, 83, 0
2, 135690, Note_on_c, 0, 79, 98
2, 135693, Note_on_c, 0, 81, 0
2, 135704, Note_on_c, 0, 79, 0
2, 135720, Note_on_c, 0, 79, 103
2, 135722, Control_c, 0, 64, 0
2, 135749, Control_c, 0, 64, 127
2, 135750, Note_on_c, 0, 79, 0
2, 135750, Note_on_c, 0, 77, 93
2, 135779, Note_on_c, 0, 77, 0
2, 135780, Note_on_c, 0, 76, 80
2, 135801, Note_on_c, 0, 67, 0
2, 135807, Note_on_c, 0, 76, 0
2, 135810, Note_on_c, 0, 74, 93
2, 135811, Note_on_c, 0, 65, 0
2, 135830, Note_on_c, 0, 74, 0
2, 135840, Note_on_c, 0, 64, 71
2, 135840, Note_on_c, 0, 76, 98
2, 135840, Note_on_c, 0, 67, 74
2, 135845, Control_c, 0, 64, 0
2, 135866, Note_on_c, 0, 76, 0
2, 135870, Note_on_c, 0, 74, 93
2, 135876, Control_c, 0, 64, 127
2, 135892, Note_on_c, 0, 74, 0
2, 135900, Note_on_c, 0, 76, 93
2, 135920, Note_on_c, 0, 76, 0
2, 135930, Note_on_c, 0, 79, 98
2, 135937, Control_c, 0, 64, 0
2, 135955, Note_on_c, 0, 79, 0
2, 135960, Note_on_c, 0, 72, 117
2, 135964, Control_c, 0, 64, 127
2, 135980, Note_on_c, 0, 72, 0
2, 135992, Note_on_c, 0, 64, 0
2, 136001, Note_on_c, 0, 67, 0
2, 136077, Control_c, 0, 64, 0
2, 136080, Note_on_c, 0, 83, 127
2, 136080, Note_on_c, 0, 71, 107
2, 136080, Note_on_c, 0, 67, 98
2, 136104, Note_on_c, 0, 83, 0
2, 136105, Control_c, 0, 64, 127
2, 136110, Note_on_c, 0, 86, 112
2, 136132, Note_on_c, 0, 86, 0
2, 136140, Note_on_c, 0, 83, 103
2, 136143, Note_on_c, 0, 67, 0
2, 136161, Note_on_c, 0, 71, 0
2, 136165, Note_on_c, 0, 83, 0
2, 136170, Note_on_c, 0, 79, 117
2, 136187, Note_on_c, 0, 79, 0
2, 136200, Note_on_c, 0, 84, 127
2, 136200, Note_on_c, 0, 72, 103
2, 136200, Note_on_c, 0, 67, 103
2, 136202, Control_c, 0, 64, 0
2, 136230, Control_c, 0, 64, 127
2, 136255, Note_on_c, 0, 84, 0
2, 136260, Note_on_c, 0, 88, 127
2, 136275, Note_on_c, 0, 72, 0
2, 136276, Note_on_c, 0, 67, 0
2, 136278, Note_on_c, 0, 88, 0
2, 136320, Note_on_c, 0, 83, 127
2, 136320, Note_on_c, 0, 74, 98
2, 136320, Note_on_c, 0, 67, 103
2, 136325, Control_c, 0, 64, 0
2, 136344, Note_on_c, 0, 83, 0
2, 136350, Note_on_c, 0, 86, 117
2, 136353, Control_c, 0, 64, 127
2, 136370, Note_on_c, 0, 86, 0
2, 136380, Note_on_c, 0, 83, 122
2, 136399, Note_on_c, 0, 83, 0
2, 136410, Note_on_c, 0, 79, 112
2, 136427, Note_on_c, 0, 79, 0
2, 136437, Control_c, 0, 64, 0
2, 136438, Note_on_c, 0, 74, 0
2, 136440, Note_on_c, 0, 72, 107
2, 136440, Note_on_c, 0, 84, 127
2, 136463, Control_c, 0, 64, 127
2, 136481, Note_on_c, 0, 84, 0
2, 136500, Note_on_c, 0, 84, 127
2, 136520, Note_on_c, 0, 84, 0
2, 136527, Note_on_c, 0, 67, 0
2, 136530, Note_on_c, 0, 72, 0
2, 136560, Note_on_c, 0, 83, 127
2, 136560, Note_on_c, 0, 67, 98
2, 136560, Note_on_c, 0, 74, 93
2, 136563, Control_c, 0, 64, 0
2, 136583, Note_on_c, 0, 83, 0
2, 136590, Control_c, 0, 64, 127
2, 136590, Note_on_c, 0, 86, 117
2, 136610, Note_on_c, 0, 86, 0
2, 136620, Note_on_c, 0, 83, 107
2, 136641, Note_on_c, 0, 83, 0
2, 136650, Note_on_c, 0, 79, 112
2, 136668, Note_on_c, 0, 79, 0
2, 136674, Note_on_c, 0, 74, 0
2, 136678, Control_c, 0, 64, 0
2, 136680, Note_on_c, 0, 72, 107
2, 136680, Note_on_c, 0, 84, 127
2, 136704, Control_c, 0, 64, 127
2, 136735, Note_on_c, 0, 84, 0
2, 136740, Note_on_c, 0, 88, 107
2, 136760, Note_on_c, 0, 88, 0
2, 136762, Note_on_c, 0, 67, 0
2, 136767, Note_on_c, 0, 72, 0
2, 136800, Note_on_c, 0, 67, 93
2, 136800, Note_on_c, 0, 74, 93
2, 136800, Note_on_c, 0, 83, 127
2, 136804, Control_c, 0, 64, 0
2, 136823, Note_on_c, 0, 83, 0
2, 136830, Note_on_c, 0, 86, 112
2, 136831, Control_c, 0, 64, 127
2, 136860, Note_on_c, 0, 86, 0
2, 136860, Note_on_c, 0, 83, 103
2, 136882, Note_on_c, 0, 83, 0
2, 136890, Note_on_c, 0, 79, 112
2, 136910, Note_on_c, 0, 79, 0
2, 136916, Note_on_c, 0, 74, 0
2, 136916, Control_c, 0, 64, 0
2, 136920, Note_on_c, 0, 72, 112
2, 136920, Note_on_c, 0, 84, 122
2, 136942, Control_c, 0, 64, 127
2, 136964, Note_on_c, 0, 84, 0
2, 136980, Note_on_c, 0, 84, 127
2, 137000, Note_on_c, 0, 84, 0
2, 137006, Note_on_c, 0, 72, 0
2, 137006, Note_on_c, 0, 67, 0
2, 137040, Note_on_c, 0, 84, 127
2, 137040, Note_on_c, 0, 67, 98
2, 137040, Note_on_c, 0, 72, 89
2, 137040, Note_on_c, 0, 76, 98
2, 137041, Control_c, 0, 64, 0
2, 137066, Control_c, 0, 64, 127
2, 137115, Note_on_c, 0, 72, 0
2, 137116, Note_on_c, 0, 67, 0
2, 137117, Note_on_c, 0, 84, 0
2, 137118, Note_on_c, 0, 76, 0
2, 137160, Note_on_c, 0, 76, 103
2, 137160, Note_on_c, 0, 67, 112
2, 137160, Note_on_c, 0, 72, 93
2, 137160, Note_on_c, 0, 84, 127
2, 137164, Control_c, 0, 64, 0
2, 137186, Control_c, 0, 64, 127
2, 137212, Note_on_c, 0, 84, 0
2, 137215, Note_on_c, 0, 67, 0
2, 137218, Note_on_c, 0, 76, 0
2, 137219, Note_on_c, 0, 72, 0
2, 137280, Note_on_c, 0, 67, 86
2, 137280, Note_on_c, 0, 72, 99
2, 137280, Note_on_c, 0, 76, 99
2, 137280, Note_on_c, 0, 84, 123
2, 137293, Control_c, 0, 64, 0
2, 137344, Control_c, 0, 64, 127
2, 137525, Control_c, 0, 64, 0
2, 137760, Note_on_c, 0, 84, 0
2, 137760, Note_on_c, 0, 67, 0
2, 137760, Note_on_c, 0, 72, 0
2, 137760, Note_on_c, 0, 76, 0
2, 137760, Control_c, 0, 64, 0
2, 137820, Control_c, 0, 64, 127
2, 138011, Control_c, 0, 64, 0
2, 138240, Control_c, 0, 121, 0
2, 138240, End_track
3, 0, Start_track
3, 0, Title_t, "Secondo"
3, 0, Control_c, 0, 121, 0
3, 0, Control_c, 0, 7, 127
3, 120, Program_c, 0, 0
3, 120, Control_c, 0, 7, 115
3, 120, Control_c, 0, 10, 44
3, 120, Control_c, 0, 91, 75
3, 480, Note_on_c, 0, 52, 90
3, 480, Note_on_c, 0, 60, 95
3, 480, Note_on_c, 0, 55, 90
3, 480, Note_on_c, 0, 36, 82
3, 480, Note_on_c, 0, 48, 72
3, 499, Control_c, 0, 64, 127
3, 649, Note_on_c, 0, 48, 0
3, 649, Note_on_c, 0, 55, 0
3, 649, Note_on_c, 0, 36, 0
3, 651, Note_on_c, 0, 52, 0
3, 653, Note_on_c, 0, 60, 0
3, 720, Note_on_c, 0, 60, 95
3, 720, Note_on_c, 0, 55, 90
3, 720, Note_on_c, 0, 52, 86
3, 720, Note_on_c, 0, 48, 72
3, 720, Note_on_c, 0, 36, 86
3, 722, Control_c, 0, 64, 0
3, 757, Control_c, 0, 64, 127
3, 867, Note_on_c, 0, 36, 0
3, 867, Note_on_c, 0, 52, 0
3, 868, Note_on_c, 0, 48, 0
3, 869, Note_on_c, 0, 60, 0
3, 871, Note_on_c, 0, 55, 0
3, 960, Note_on_c, 0, 60, 95
3, 960, Note_on_c, 0, 52, 86
3, 960, Note_on_c, 0, 55, 90
3, 960, Note_on_c, 0, 36, 95
3, 960, Note_on_c, 0, 48, 82
3, 961, Control_c, 0, 64, 0
3, 995, Control_c, 0, 64, 127
3, 1203, Note_on_c, 0, 48, 0
3, 1203, Control_c, 0, 64, 0
3, 1204, Note_on_c, 0, 55, 0
3, 1204, Note_on_c, 0, 52, 0
3, 1206, Note_on_c, 0, 60, 0
3, 1208, Note_on_c, 0, 36, 0
3, 3360, Note_on_c, 0, 60, 90
3, 3360, Note_on_c, 0, 52, 95
3, 3360, Note_on_c, 0, 55, 95
3, 3360, Note_on_c, 0, 36, 95
3, 3376, Control_c, 0, 64, 127
3, 3506, Note_on_c, 0, 36, 0
3, 3540, Note_on_c, 0, 40, 95
3, 3541, Note_on_c, 0, 52, 0
3, 3544, Note_on_c, 0, 60, 0
3, 3544, Note_on_c, 0, 55, 0
3, 3559, Note_on_c, 0, 40, 0
3, 3600, Note_on_c, 0, 43, 86
3, 3600, Note_on_c, 0, 52, 82
3, 3600, Note_on_c, 0, 60, 90
3, 3600, Note_on_c, 0, 55, 82
3, 3601, Control_c, 0, 64, 0
3, 3646, Control_c, 0, 64, 127
3, 3742, Note_on_c, 0, 43, 0
3, 3780, Note_on_c, 0, 40, 103
3, 3790, Note_on_c, 0, 52, 0
3, 3794, Note_on_c, 0, 55, 0
3, 3794, Note_on_c, 0, 60, 0
3, 3806, Note_on_c, 0, 40, 0
3, 3840, Note_on_c, 0, 60, 78
3, 3840, Note_on_c, 0, 52, 82
3, 3840, Note_on_c, 0, 36, 90
3, 3840, Note_on_c, 0, 55, 78
3, 3843, Control_c, 0, 64, 0
3, 3880, Control_c, 0, 64, 127
3, 4004, Note_on_c, 0, 55, 0
3, 4007, Note_on_c, 0, 52, 0
3, 4009, Note_on_c, 0, 36, 0
3, 4011, Note_on_c, 0, 60, 0
3, 4105, Control_c, 0, 64, 0
3, 4200, Note_on_c, 0, 67, 95
3, 4222, Control_c, 0, 64, 127
3, 4260, Note_on_c, 0, 64, 95
3, 4264, Note_on_c, 0, 67, 0
3, 4280, Note_on_c, 0, 64, 0
3, 4313, Control_c, 0, 64, 0
3, 4320, Note_on_c, 0, 64, 95
3, 4346, Note_on_c, 0, 64, 0
3, 4350, Note_on_c, 0, 62, 86
3, 4353, Control_c, 0, 64, 127
3, 4375, Note_on_c, 0, 62, 0
3, 4380, Note_on_c, 0, 60, 99
3, 4407, Note_on_c, 0, 60, 0
3, 4438, Control_c, 0, 64, 0
3, 4440, Note_on_c, 0, 62, 90
3, 4440, Note_on_c, 0, 48, 82
3, 4440, Note_on_c, 0, 52, 74
3, 4440, Note_on_c, 0, 55, 78
3, 4463, Note_on_c, 0, 62, 0
3, 4470, Note_on_c, 0, 60, 86
3, 4473, Control_c, 0, 64, 127
3, 4490, Note_on_c, 0, 60, 0
3, 4500, Note_on_c, 0, 62, 95
3, 4504, Note_on_c, 0, 48, 0
3, 4505, Note_on_c, 0, 55, 0
3, 4506, Note_on_c, 0, 52, 0
3, 4522, Note_on_c, 0, 62, 0
3, 4530, Note_on_c, 0, 60, 86
3, 4550, Note_on_c, 0, 60, 0
3, 4558, Control_c, 0, 64, 0
3, 4560, Note_on_c, 0, 62, 86
3, 4560, Note_on_c, 0, 55, 78
3, 4560, Note_on_c, 0, 52, 78
3, 4560, Note_on_c, 0, 48, 82
3, 4582, Note_on_c, 0, 62, 0
3, 4589, Control_c, 0, 64, 127
3, 4590, Note_on_c, 0, 60, 86
3, 4617, Note_on_c, 0, 48, 0
3, 4617, Note_on_c, 0, 52, 0
3, 4618, Note_on_c, 0, 60, 0
3, 4619, Note_on_c, 0, 55, 0
3, 4620, Note_on_c, 0, 59, 82
3, 4649, Note_on_c, 0, 59, 0
3, 4650, Note_on_c, 0, 60, 90
3, 4654, Control_c, 0, 64, 0
3, 4671, Note_on_c, 0, 60, 0
3, 4680, Note_on_c, 0, 69, 95
3, 4737, Note_on_c, 0, 69, 0
3, 4740, Note_on_c, 0, 65, 86
3, 4800, Note_on_c, 0, 64, 99
3, 4803, Note_on_c, 0, 65, 0
3, 4808, Control_c, 0, 64, 127
3, 4859, Note_on_c, 0, 64, 0
3, 4860, Note_on_c, 0, 62, 103
3, 4894, Note_on_c, 0, 62, 0
3, 4909, Control_c, 0, 64, 0
3, 4920, Note_on_c, 0, 64, 90
3, 4920, Note_on_c, 0, 50, 86
3, 4920, Note_on_c, 0, 57, 82
3, 4920, Note_on_c, 0, 53, 67
3, 4943, Control_c, 0, 64, 127
3, 4948, Note_on_c, 0, 64, 0
3, 4950, Note_on_c, 0, 62, 82
3, 4972, Note_on_c, 0, 62, 0
3, 4980, Note_on_c, 0, 50, 0
3, 4980, Note_on_c, 0, 64, 86
3, 4983, Note_on_c, 0, 57, 0
3, 4985, Note_on_c, 0, 53, 0
3, 5005, Note_on_c, 0, 64, 0
3, 5010, Note_on_c, 0, 62, 103
3, 5031, Note_on_c, 0, 62, 0
3, 5035, Control_c, 0, 64, 0
3, 5040, Note_on_c, 0, 64, 90
3, 5040, Note_on_c, 0, 53, 69
3, 5040, Note_on_c, 0, 50, 78
3, 5040, Note_on_c, 0, 57, 82
3, 5070, Note_on_c, 0, 64, 0
3, 5070, Note_on_c, 0, 62, 99
3, 5071, Control_c, 0, 64, 127
3, 5094, Note_on_c, 0, 62, 0
3, 5100, Note_on_c, 0, 60, 99
3, 5118, Note_on_c, 0, 53, 0
3, 5118, Note_on_c, 0, 50, 0
3, 5119, Note_on_c, 0, 57, 0
3, 5126, Note_on_c, 0, 60, 0
3, 5130, Note_on_c, 0, 62, 95
3, 5157, Note_on_c, 0, 62, 0
3, 5157, Control_c, 0, 64, 0
3, 5160, Note_on_c, 0, 65, 90
3, 5202, Control_c, 0, 64, 127
3, 5220, Note_on_c, 0, 62, 103
3, 5223, Note_on_c, 0, 65, 0
3, 5240, Note_on_c, 0, 62, 0
3, 5277, Control_c, 0, 64, 0
3, 5280, Note_on_c, 0, 60, 95
3, 5308, Control_c, 0, 64, 127
3, 5337, Note_on_c, 0, 60, 0
3, 5340, Note_on_c, 0, 59, 99
3, 5391, Note_on_c, 0, 59, 0
3, 5400, Note_on_c, 0, 55, 78
3, 5400, Note_on_c, 0, 69, 103
3, 5400, Note_on_c, 0, 43, 86
3, 5402, Control_c, 0, 64, 0
3, 5435, Control_c, 0, 64, 127
3, 5470, Note_on_c, 0, 43, 0
3, 5474, Note_on_c, 0, 55, 0
3, 5520, Note_on_c, 0, 55, 86
3, 5520, Note_on_c, 0, 43, 86
3, 5571, Note_on_c, 0, 43, 0
3, 5581, Note_on_c, 0, 55, 0
3, 5595, Note_on_c, 0, 69, 0
3, 5640, Note_on_c, 0, 65, 99
3, 5640, Note_on_c, 0, 43, 82
3, 5640, Note_on_c, 0, 55, 74
3, 5646, Control_c, 0, 64, 0
3, 5675, Control_c, 0, 64, 127
3, 5688, Note_on_c, 0, 43, 0
3, 5696, Note_on_c, 0, 55, 0
3, 5696, Note_on_c, 0, 65, 0
3, 5760, Note_on_c, 0, 67, 108
3, 5760, Note_on_c, 0, 43, 86
3, 5760, Note_on_c, 0, 55, 78
3, 5771, Control_c, 0, 64, 0
3, 5790, Note_on_c, 0, 65, 82
3, 5794, Note_on_c, 0, 67, 0
3, 5807, Control_c, 0, 64, 127
3, 5816, Note_on_c, 0, 65, 0
3, 5820, Note_on_c, 0, 67, 86
3, 5846, Note_on_c, 0, 67, 0
3, 5850, Note_on_c, 0, 65, 99
3, 5879, Note_on_c, 0, 65, 0
3, 5880, Note_on_c, 0, 67, 90
3, 5890, Control_c, 0, 64, 0
3, 5910, Note_on_c, 0, 65, 95
3, 5911, Note_on_c, 0, 67, 0
3, 5919, Control_c, 0, 64, 127
3, 5936, Note_on_c, 0, 65, 0
3, 5940, Note_on_c, 0, 64, 78
3, 5949, Note_on_c, 0, 43, 0
3, 5954, Note_on_c, 0, 55, 0
3, 5962, Note_on_c, 0, 64, 0
3, 5970, Note_on_c, 0, 65, 86
3, 5986, Control_c, 0, 64, 0
3, 5994, Note_on_c, 0, 65, 0
3, 6000, Note_on_c, 0, 64, 86
3, 6000, Note_on_c, 0, 45, 78
3, 6000, Note_on_c, 0, 57, 69
3, 6021, Control_c, 0, 64, 127
3, 6065, Note_on_c, 0, 57, 0
3, 6065, Note_on_c, 0, 64, 0
3, 6069, Note_on_c, 0, 45, 0
3, 6134, Control_c, 0, 64, 0
3, 6239, Control_c, 0, 64, 127
3, 6240, Note_on_c, 0, 36, 70
3, 6240, Note_on_c, 0, 48, 65
3, 6240, Note_on_c, 0, 52, 78
3, 6300, Note_on_c, 0, 55, 74
3, 6302, Note_on_c, 0, 52, 0
3, 6346, Note_on_c, 0, 55, 0
3, 6360, Note_on_c, 0, 60, 72
3, 6412, Note_on_c, 0, 60, 0
3, 6420, Note_on_c, 0, 55, 82
3, 6422, Note_on_c, 0, 48, 0
3, 6422, Note_on_c, 0, 36, 0
3, 6474, Note_on_c, 0, 55, 0
3, 6476, Control_c, 0, 64, 0
3, 6480, Note_on_c, 0, 52, 82
3, 6480, Note_on_c, 0, 36, 78
3, 6480, Note_on_c, 0, 48, 69
3, 6515, Control_c, 0, 64, 127
3, 6540, Note_on_c, 0, 55, 82
3, 6549, Note_on_c, 0, 52, 0
3, 6599, Note_on_c, 0, 55, 0
3, 6600, Note_on_c, 0, 60, 78
3, 6631, Note_on_c, 0, 36, 0
3, 6647, Note_on_c, 0, 48, 0
3, 6649, Note_on_c, 0, 60, 0
3, 6660, Note_on_c, 0, 55, 86
3, 6680, Note_on_c, 0, 55, 0
3, 6720, Note_on_c, 0, 41, 78
3, 6720, Note_on_c, 0, 53, 72
3, 6726, Control_c, 0, 64, 0
3, 6773, Control_c, 0, 64, 127
3, 6780, Note_on_c, 0, 57, 86
3, 6834, Note_on_c, 0, 57, 0
3, 6840, Note_on_c, 0, 60, 86
3, 6899, Note_on_c, 0, 60, 0
3, 6900, Note_on_c, 0, 57, 78
3, 6921, Note_on_c, 0, 53, 0
3, 6921, Note_on_c, 0, 41, 0
3, 6931, Note_on_c, 0, 57, 0
3, 6960, Note_on_c, 0, 53, 66
3, 6960, Note_on_c, 0, 41, 72
3, 6979, Control_c, 0, 64, 0
3, 7017, Control_c, 0, 64, 127
3, 7020, Note_on_c, 0, 57, 86
3, 7067, Note_on_c, 0, 57, 0
3, 7080, Note_on_c, 0, 53, 0
3, 7080, Note_on_c, 0, 60, 72
3, 7088, Note_on_c, 0, 41, 0
3, 7140, Note_on_c, 0, 57, 82
3, 7142, Note_on_c, 0, 60, 0
3, 7158, Note_on_c, 0, 57, 0
3, 7200, Note_on_c, 0, 52, 78
3, 7200, Note_on_c, 0, 48, 65
3, 7200, Note_on_c, 0, 36, 70
3, 7211, Control_c, 0, 64, 0
3, 7251, Control_c, 0, 64, 127
3, 7260, Note_on_c, 0, 55, 82
3, 7263, Note_on_c, 0, 52, 0
3, 7301, Note_on_c, 0, 36, 0
3, 7302, Note_on_c, 0, 55, 0
3, 7320, Note_on_c, 0, 60, 82
3, 7321, Note_on_c, 0, 48, 0
3, 7353, Note_on_c, 0, 60, 0
3, 7380, Note_on_c, 0, 55, 82
3, 7393, Note_on_c, 0, 55, 0
3, 7440, Note_on_c, 0, 55, 86
3, 7440, Note_on_c, 0, 43, 78
3, 7440, Note_on_c, 0, 50, 82
3, 7450, Control_c, 0, 64, 0
3, 7500, Note_on_c, 0, 53, 78
3, 7513, Note_on_c, 0, 50, 0
3, 7525, Control_c, 0, 64, 127
3, 7560, Note_on_c, 0, 59, 78
3, 7565, Note_on_c, 0, 53, 0
3, 7577, Note_on_c, 0, 55, 0
3, 7591, Note_on_c, 0, 43, 0
3, 7612, Note_on_c, 0, 59, 0
3, 7620, Note_on_c, 0, 53, 78
3, 7638, Note_on_c, 0, 53, 0
3, 7678, Control_c, 0, 64, 0
3, 7680, Note_on_c, 0, 52, 82
3, 7680, Note_on_c, 0, 48, 65
3, 7680, Note_on_c, 0, 36, 70
3, 7719, Control_c, 0, 64, 127
3, 7735, Note_on_c, 0, 52, 0
3, 7740, Note_on_c, 0, 55, 74
3, 7789, Note_on_c, 0, 55, 0
3, 7800, Note_on_c, 0, 60, 86
3, 7854, Note_on_c, 0, 60, 0
3, 7860, Note_on_c, 0, 55, 70
3, 7867, Note_on_c, 0, 36, 0
3, 7867, Note_on_c, 0, 48, 0
3, 7918, Note_on_c, 0, 55, 0
3, 7920, Note_on_c, 0, 52, 74
3, 7920, Note_on_c, 0, 48, 61
3, 7920, Note_on_c, 0, 36, 69
3, 7926, Control_c, 0, 64, 0
3, 7963, Control_c, 0, 64, 127
3, 7980, Note_on_c, 0, 55, 74
3, 7984, Note_on_c, 0, 52, 0
3, 8036, Note_on_c, 0, 55, 0
3, 8040, Note_on_c, 0, 60, 78
3, 8088, Note_on_c, 0, 36, 0
3, 8091, Note_on_c, 0, 60, 0
3, 8094, Note_on_c, 0, 48, 0
3, 8100, Note_on_c, 0, 55, 74
3, 8159, Note_on_c, 0, 55, 0
3, 8160, Note_on_c, 0, 48, 63
3, 8160, Note_on_c, 0, 52, 86
3, 8160, Note_on_c, 0, 36, 69
3, 8162, Control_c, 0, 64, 0
3, 8200, Control_c, 0, 64, 127
3, 8220, Note_on_c, 0, 55, 86
3, 8228, Note_on_c, 0, 52, 0
3, 8280, Note_on_c, 0, 55, 0
3, 8280, Note_on_c, 0, 60, 82
3, 8336, Note_on_c, 0, 60, 0
3, 8340, Note_on_c, 0, 55, 82
3, 8355, Note_on_c, 0, 36, 0
3, 8357, Note_on_c, 0, 48, 0
3, 8395, Note_on_c, 0, 55, 0
3, 8400, Note_on_c, 0, 52, 82
3, 8400, Note_on_c, 0, 48, 65
3, 8400, Note_on_c, 0, 36, 69
3, 8409, Control_c, 0, 64, 0
3, 8446, Control_c, 0, 64, 127
3, 8459, Note_on_c, 0, 52, 0
3, 8460, Note_on_c, 0, 55, 86
3, 8497, Note_on_c, 0, 36, 0
3, 8513, Note_on_c, 0, 55, 0
3, 8520, Note_on_c, 0, 60, 86
3, 8525, Note_on_c, 0, 48, 0
3, 8575, Note_on_c, 0, 60, 0
3, 8580, Note_on_c, 0, 55, 78
3, 8597, Note_on_c, 0, 55, 0
3, 8640, Note_on_c, 0, 41, 78
3, 8640, Note_on_c, 0, 53, 72
3, 8642, Control_c, 0, 64, 0
3, 8680, Control_c, 0, 64, 127
3, 8700, Note_on_c, 0, 57, 82
3, 8759, Note_on_c, 0, 57, 0
3, 8760, Note_on_c, 0, 60, 90
3, 8818, Note_on_c, 0, 60, 0
3, 8820, Note_on_c, 0, 57, 86
3, 8831, Note_on_c, 0, 53, 0
3, 8831, Note_on_c, 0, 41, 0
3, 8843, Note_on_c, 0, 57, 0
3, 8880, Note_on_c, 0, 41, 78
3, 8880, Note_on_c, 0, 53, 72
3, 8887, Control_c, 0, 64, 0
3, 8928, Control_c, 0, 64, 127
3, 8940, Note_on_c, 0, 57, 86
3, 8993, Note_on_c, 0, 57, 0
3, 8998, Note_on_c, 0, 53, 0
3, 9000, Note_on_c, 0, 60, 86
3, 9007, Note_on_c, 0, 41, 0
3, 9053, Note_on_c, 0, 60, 0
3, 9060, Note_on_c, 0, 57, 82
3, 9075, Note_on_c, 0, 57, 0
3, 9120, Note_on_c, 0, 48, 69
3, 9120, Note_on_c, 0, 52, 90
3, 9120, Note_on_c, 0, 36, 74
3, 9121, Control_c, 0, 64, 0
3, 9161, Control_c, 0, 64, 127
3, 9180, Note_on_c, 0, 55, 82
3, 9183, Note_on_c, 0, 52, 0
3, 9233, Note_on_c, 0, 55, 0
3, 9240, Note_on_c, 0, 60, 74
3, 9265, Note_on_c, 0, 36, 0
3, 9291, Note_on_c, 0, 60, 0
3, 9300, Note_on_c, 0, 55, 72
3, 9314, Note_on_c, 0, 55, 0
3, 9317, Note_on_c, 0, 48, 0
3, 9358, Control_c, 0, 64, 0
3, 9360, Note_on_c, 0, 47, 86
3, 9360, Note_on_c, 0, 50, 99
3, 9397, Control_c, 0, 64, 127
3, 9419, Note_on_c, 0, 50, 0
3, 9420, Note_on_c, 0, 55, 78
3, 9455, Note_on_c, 0, 55, 0
3, 9464, Note_on_c, 0, 47, 0
3, 9474, Control_c, 0, 64, 0
3, 9480, Note_on_c, 0, 52, 90
3, 9480, Note_on_c, 0, 48, 86
3, 9504, Control_c, 0, 64, 127
3, 9521, Note_on_c, 0, 52, 0
3, 9540, Note_on_c, 0, 55, 90
3, 9545, Note_on_c, 0, 48, 0
3, 9558, Note_on_c, 0, 55, 0
3, 9595, Control_c, 0, 64, 0
3, 9600, Note_on_c, 0, 59, 99
3, 9600, Note_on_c, 0, 43, 95
3, 9600, Note_on_c, 0, 43, 103
3, 9600, Note_on_c, 0, 55, 99
3, 9600, Note_on_c, 0, 59, 103
3, 9600, Note_on_c, 0, 50, 103
3, 9602, Control_c, 0, 64, 127
3, 9659, Note_on_c, 0, 50, 0
3, 9659, Note_on_c, 0, 43, 0
3, 9663, Note_on_c, 0, 55, 0
3, 9663, Note_on_c, 0, 59, 0
3, 9681, Note_on_c, 0, 43, 0
3, 9686, Note_on_c, 0, 59, 0
3, 9716, Control_c, 0, 64, 0
3, 9720, Note_on_c, 0, 55, 99
3, 9720, Note_on_c, 0, 59, 99
3, 9720, Note_on_c, 0, 50, 99
3, 9720, Note_on_c, 0, 43, 99
3, 9746, Control_c, 0, 64, 127
3, 9765, Note_on_c, 0, 50, 0
3, 9769, Note_on_c, 0, 43, 0
3, 9771, Note_on_c, 0, 59, 0
3, 9772, Note_on_c, 0, 55, 0
3, 9838, Control_c, 0, 64, 0
3, 9840, Note_on_c, 0, 55, 95
3, 9840, Note_on_c, 0, 50, 95
3, 9840, Note_on_c, 0, 59, 103
3, 9840, Note_on_c, 0, 43, 103
3, 9863, Control_c, 0, 64, 127
3, 9872, Note_on_c, 0, 59, 0
3, 9874, Note_on_c, 0, 55, 0
3, 9879, Note_on_c, 0, 50, 0
3, 9884, Note_on_c, 0, 43, 0
3, 9964, Control_c, 0, 64, 0
3, 10080, Note_on_c, 0, 55, 86
3, 10080, Note_on_c, 0, 47, 99
3, 10080, Note_on_c, 0, 43, 86
3, 10080, Note_on_c, 0, 31, 99
3, 10083, Control_c, 0, 64, 127
3, 10310, Note_on_c, 0, 43, 0
3, 10310, Note_on_c, 0, 47, 0
3, 10312, Note_on_c, 0, 31, 0
3, 10317, Note_on_c, 0, 55, 0
3, 10317, Control_c, 0, 64, 0
3, 10560, Note_on_c, 0, 38, 95
3, 10560, Note_on_c, 0, 50, 95
3, 10560, Note_on_c, 0, 60, 99
3, 10588, Control_c, 0, 64, 127
3, 10590, Note_on_c, 0, 57, 90
3, 10592, Note_on_c, 0, 60, 0
3, 10612, Control_c, 0, 64, 0
3, 10619, Note_on_c, 0, 57, 0
3, 10620, Note_on_c, 0, 59, 86
3, 10650, Note_on_c, 0, 60, 86
3, 10655, Note_on_c, 0, 59, 0
3, 10668, Note_on_c, 0, 60, 0
3, 10680, Note_on_c, 0, 62, 86
3, 10702, Note_on_c, 0, 62, 0
3, 10710, Note_on_c, 0, 64, 72
3, 10728, Control_c, 0, 64, 127
3, 10731, Note_on_c, 0, 64, 0
3, 10737, Note_on_c, 0, 38, 0
3, 10740, Note_on_c, 0, 66, 90
3, 10749, Note_on_c, 0, 50, 0
3, 10759, Note_on_c, 0, 66, 0
3, 10770, Note_on_c, 0, 67, 99
3, 10789, Note_on_c, 0, 67, 0
3, 10800, Control_c, 0, 64, 0
3, 10800, Note_on_c, 0, 69, 99
3, 10800, Note_on_c, 0, 42, 70
3, 10800, Note_on_c, 0, 54, 70
3, 10825, Note_on_c, 0, 69, 0
3, 10830, Note_on_c, 0, 67, 103
3, 10848, Control_c, 0, 64, 127
3, 10852, Note_on_c, 0, 67, 0
3, 10860, Note_on_c, 0, 66, 90
3, 10883, Note_on_c, 0, 66, 0
3, 10890, Note_on_c, 0, 64, 82
3, 10914, Note_on_c, 0, 64, 0
3, 10920, Note_on_c, 0, 62, 90
3, 10920, Control_c, 0, 64, 0
3, 10941, Note_on_c, 0, 62, 0
3, 10950, Note_on_c, 0, 60, 95
3, 10960, Control_c, 0, 64, 127
3, 10974, Note_on_c, 0, 60, 0
3, 10980, Note_on_c, 0, 59, 86
3, 10994, Note_on_c, 0, 54, 0
3, 10998, Note_on_c, 0, 42, 0
3, 11007, Note_on_c, 0, 59, 0
3, 11010, Note_on_c, 0, 57, 86
3, 11030, Note_on_c, 0, 57, 0
3, 11035, Control_c, 0, 64, 0
3, 11040, Note_on_c, 0, 43, 78
3, 11040, Note_on_c, 0, 59, 99
3, 11040, Note_on_c, 0, 55, 74
3, 11071, Control_c, 0, 64, 127
3, 11224, Note_on_c, 0, 59, 0
3, 11230, Note_on_c, 0, 55, 0
3, 11234, Note_on_c, 0, 43, 0
3, 11276, Control_c, 0, 64, 0
3, 11520, Note_on_c, 0, 60, 78
3, 11520, Note_on_c, 0, 38, 82
3, 11520, Note_on_c, 0, 50, 70
3, 11532, Control_c, 0, 64, 127
3, 11540, Note_on_c, 0, 60, 0
3, 11550, Note_on_c, 0, 57, 78
3, 11580, Note_on_c, 0, 59, 82
3, 11582, Note_on_c, 0, 57, 0
3, 11610, Note_on_c, 0, 60, 78
3, 11612, Note_on_c, 0, 59, 0
3, 11628, Note_on_c, 0, 60, 0
3, 11636, Control_c, 0, 64, 0
3, 11640, Note_on_c, 0, 62, 86
3, 11661, Note_on_c, 0, 62, 0
3, 11670, Note_on_c, 0, 64, 67
3, 11673, Control_c, 0, 64, 127
3, 11692, Note_on_c, 0, 64, 0
3, 11700, Note_on_c, 0, 66, 72
3, 11714, Note_on_c, 0, 38, 0
3, 11723, Note_on_c, 0, 66, 0
3, 11725, Note_on_c, 0, 50, 0
3, 11730, Note_on_c, 0, 67, 86
3, 11754, Note_on_c, 0, 67, 0
3, 11760, Note_on_c, 0, 69, 90
3, 11760, Note_on_c, 0, 42, 86
3, 11760, Note_on_c, 0, 54, 74
3, 11766, Control_c, 0, 64, 0
3, 11787, Note_on_c, 0, 69, 0
3, 11790, Note_on_c, 0, 67, 90
3, 11807, Control_c, 0, 64, 127
3, 11817, Note_on_c, 0, 67, 0
3, 11820, Note_on_c, 0, 66, 67
3, 11850, Note_on_c, 0, 64, 66
3, 11854, Note_on_c, 0, 66, 0
3, 11875, Note_on_c, 0, 64, 0
3, 11880, Note_on_c, 0, 62, 82
3, 11892, Control_c, 0, 64, 0
3, 11903, Note_on_c, 0, 62, 0
3, 11910, Note_on_c, 0, 60, 70
3, 11921, Control_c, 0, 64, 127
3, 11940, Note_on_c, 0, 59, 82
3, 11943, Note_on_c, 0, 60, 0
3, 11954, Note_on_c, 0, 42, 0
3, 11956, Note_on_c, 0, 54, 0
3, 11969, Note_on_c, 0, 59, 0
3, 11970, Note_on_c, 0, 57, 65
3, 11990, Note_on_c, 0, 57, 0
3, 11995, Control_c, 0, 64, 0
3, 12000, Note_on_c, 0, 43, 72
3, 12000, Note_on_c, 0, 55, 66
3, 12000, Note_on_c, 0, 59, 95
3, 12027, Control_c, 0, 64, 127
3, 12115, Note_on_c, 0, 59, 0
3, 12116, Note_on_c, 0, 43, 0
3, 12119, Note_on_c, 0, 55, 0
3, 12125, Control_c, 0, 64, 0
3, 12240, Note_on_c, 0, 55, 90
3, 12240, Note_on_c, 0, 59, 99
3, 12240, Note_on_c, 0, 50, 86
3, 12242, Control_c, 0, 64, 127
3, 12353, Note_on_c, 0, 50, 0
3, 12354, Note_on_c, 0, 59, 0
3, 12355, Note_on_c, 0, 55, 0
3, 12363, Control_c, 0, 64, 0
3, 12480, Note_on_c, 0, 60, 95
3, 12480, Note_on_c, 0, 48, 90
3, 12480, Note_on_c, 0, 64, 99
3, 12487, Control_c, 0, 64, 127
3, 12587, Note_on_c, 0, 64, 0
3, 12587, Note_on_c, 0, 60, 0
3, 12589, Note_on_c, 0, 48, 0
3, 12619, Control_c, 0, 64, 0
3, 12960, Note_on_c, 0, 43, 67
3, 12960, Note_on_c, 0, 55, 70
3, 12960, Note_on_c, 0, 59, 95
3, 12972, Control_c, 0, 64, 127
3, 13020, Note_on_c, 0, 62, 86
3, 13028, Note_on_c, 0, 59, 0
3, 13079, Note_on_c, 0, 62, 0
3, 13080, Note_on_c, 0, 67, 86
3, 13111, Note_on_c, 0, 55, 0
3, 13121, Note_on_c, 0, 43, 0
3, 13140, Note_on_c, 0, 67, 0
3, 13140, Note_on_c, 0, 62, 82
3, 13182, Note_on_c, 0, 62, 0
3, 13200, Note_on_c, 0, 57, 86
3, 13200, Note_on_c, 0, 50, 70
3, 13200, Note_on_c, 0, 38, 69
3, 13213, Control_c, 0, 64, 0
3, 13256, Control_c, 0, 64, 127
3, 13260, Note_on_c, 0, 62, 86
3, 13267, Note_on_c, 0, 57, 0
3, 13319, Note_on_c, 0, 62, 0
3, 13320, Note_on_c, 0, 66, 82
3, 13343, Note_on_c, 0, 38, 0
3, 13375, Note_on_c, 0, 66, 0
3, 13377, Note_on_c, 0, 50, 0
3, 13380, Note_on_c, 0, 62, 99
3, 13400, Note_on_c, 0, 62, 0
3, 13434, Control_c, 0, 64, 0
3, 13440, Note_on_c, 0, 43, 82
3, 13440, Note_on_c, 0, 62, 103
3, 13467, Control_c, 0, 64, 127
3, 13492, Note_on_c, 0, 62, 0
3, 13500, Note_on_c, 0, 59, 86
3, 13500, Note_on_c, 0, 50, 82
3, 13503, Note_on_c, 0, 43, 0
3, 13510, Control_c, 0, 64, 0
3, 13544, Control_c, 0, 64, 127
3, 13554, Note_on_c, 0, 59, 0
3, 13559, Note_on_c, 0, 50, 0
3, 13560, Note_on_c, 0, 47, 82
3, 13580, Control_c, 0, 64, 0
3, 13615, Note_on_c, 0, 47, 0
3, 13620, Note_on_c, 0, 62, 103
3, 13620, Note_on_c, 0, 50, 86
3, 13622, Control_c, 0, 64, 127
3, 13639, Note_on_c, 0, 62, 0
3, 13665, Note_on_c, 0, 50, 0
3, 13670, Control_c, 0, 64, 0
3, 13680, Note_on_c, 0, 45, 74
3, 13680, Note_on_c, 0, 62, 112
3, 13707, Control_c, 0, 64, 127
3, 13729, Note_on_c, 0, 62, 0
3, 13738, Note_on_c, 0, 45, 0
3, 13740, Note_on_c, 0, 50, 82
3, 13740, Note_on_c, 0, 60, 82
3, 13757, Control_c, 0, 64, 0
3, 13794, Control_c, 0, 64, 127
3, 13800, Note_on_c, 0, 48, 82
3, 13802, Note_on_c, 0, 50, 0
3, 13808, Note_on_c, 0, 60, 0
3, 13849, Control_c, 0, 64, 0
3, 13856, Note_on_c, 0, 48, 0
3, 13860, Note_on_c, 0, 50, 82
3, 13860, Note_on_c, 0, 57, 95
3, 13875, Control_c, 0, 64, 127
3, 13887, Note_on_c, 0, 57, 0
3, 13893, Note_on_c, 0, 50, 0
3, 13916, Control_c, 0, 64, 0
3, 13920, Note_on_c, 0, 43, 90
3, 13920, Note_on_c, 0, 59, 86
3, 13939, Control_c, 0, 64, 127
3, 13944, Note_on_c, 0, 59, 0
3, 13950, Note_on_c, 0, 55, 90
3, 13967, Note_on_c, 0, 43, 0
3, 13971, Control_c, 0, 64, 0
3, 13980, Note_on_c, 0, 55, 0
3, 13980, Note_on_c, 0, 57, 95
3, 14009, Note_on_c, 0, 57, 0
3, 14010, Note_on_c, 0, 59, 90
3, 14034, Note_on_c, 0, 59, 0
3, 14040, Note_on_c, 0, 60, 103
3, 14064, Note_on_c, 0, 60, 0
3, 14070, Note_on_c, 0, 62, 90
3, 14099, Note_on_c, 0, 62, 0
3, 14100, Note_on_c, 0, 64, 95
3, 14129, Note_on_c, 0, 64, 0
3, 14130, Note_on_c, 0, 66, 103
3, 14155, Note_on_c, 0, 66, 0
3, 14160, Note_on_c, 0, 67, 103
3, 14186, Note_on_c, 0, 67, 0
3, 14190, Note_on_c, 0, 66, 86
3, 14220, Note_on_c, 0, 64, 99
3, 14221, Note_on_c, 0, 66, 0
3, 14250, Note_on_c, 0, 62, 90
3, 14254, Note_on_c, 0, 64, 0
3, 14277, Note_on_c, 0, 62, 0
3, 14280, Note_on_c, 0, 60, 82
3, 14308, Note_on_c, 0, 60, 0
3, 14310, Note_on_c, 0, 59, 78
3, 14318, Control_c, 0, 64, 127
3, 14340, Note_on_c, 0, 57, 86
3, 14342, Note_on_c, 0, 59, 0
3, 14370, Note_on_c, 0, 55, 82
3, 14371, Note_on_c, 0, 57, 0
3, 14384, Control_c, 0, 64, 0
3, 14392, Note_on_c, 0, 55, 0
3, 14400, Note_on_c, 0, 43, 72
3, 14400, Note_on_c, 0, 62, 99
3, 14420, Control_c, 0, 64, 127
3, 14452, Note_on_c, 0, 62, 0
3, 14460, Note_on_c, 0, 59, 69
3, 14460, Note_on_c, 0, 50, 69
3, 14471, Control_c, 0, 64, 0
3, 14476, Note_on_c, 0, 43, 0
3, 14501, Control_c, 0, 64, 127
3, 14518, Note_on_c, 0, 50, 0
3, 14518, Note_on_c, 0, 59, 0
3, 14520, Note_on_c, 0, 47, 72
3, 14558, Control_c, 0, 64, 0
3, 14580, Note_on_c, 0, 50, 74
3, 14580, Note_on_c, 0, 62, 95
3, 14585, Note_on_c, 0, 47, 0
3, 14592, Control_c, 0, 64, 127
3, 14605, Note_on_c, 0, 62, 0
3, 14629, Note_on_c, 0, 50, 0
3, 14640, Note_on_c, 0, 62, 86
3, 14640, Note_on_c, 0, 45, 72
3, 14641, Control_c, 0, 64, 0
3, 14673, Control_c, 0, 64, 127
3, 14686, Note_on_c, 0, 62, 0
3, 14695, Note_on_c, 0, 45, 0
3, 14700, Note_on_c, 0, 50, 72
3, 14700, Note_on_c, 0, 60, 86
3, 14708, Control_c, 0, 64, 0
3, 14743, Control_c, 0, 64, 127
3, 14759, Note_on_c, 0, 50, 0
3, 14760, Note_on_c, 0, 48, 69
3, 14761, Note_on_c, 0, 60, 0
3, 14801, Control_c, 0, 64, 0
3, 14813, Note_on_c, 0, 48, 0
3, 14820, Note_on_c, 0, 50, 67
3, 14820, Note_on_c, 0, 57, 86
3, 14825, Control_c, 0, 64, 127
3, 14847, Note_on_c, 0, 57, 0
3, 14859, Note_on_c, 0, 50, 0
3, 14867, Control_c, 0, 64, 0
3, 14880, Note_on_c, 0, 59, 74
3, 14880, Note_on_c, 0, 43, 74
3, 14894, Control_c, 0, 64, 127
3, 14909, Note_on_c, 0, 59, 0
3, 14910, Note_on_c, 0, 55, 72
3, 14918, Note_on_c, 0, 43, 0
3, 14920, Control_c, 0, 64, 0
3, 14940, Note_on_c, 0, 57, 90
3, 14946, Note_on_c, 0, 55, 0
3, 14970, Note_on_c, 0, 59, 74
3, 14972, Note_on_c, 0, 57, 0
3, 14993, Note_on_c, 0, 59, 0
3, 15000, Note_on_c, 0, 60, 72
3, 15028, Note_on_c, 0, 60, 0
3, 15030, Note_on_c, 0, 62, 86
3, 15060, Note_on_c, 0, 64, 78
3, 15068, Note_on_c, 0, 62, 0
3, 15090, Note_on_c, 0, 66, 72
3, 15091, Note_on_c, 0, 64, 0
3, 15120, Note_on_c, 0, 66, 0
3, 15120, Note_on_c, 0, 67, 103
3, 15150, Note_on_c, 0, 67, 0
3, 15150, Note_on_c, 0, 66, 74
3, 15180, Note_on_c, 0, 64, 95
3, 15188, Note_on_c, 0, 66, 0
3, 15210, Note_on_c, 0, 62, 86
3, 15214, Note_on_c, 0, 64, 0
3, 15240, Note_on_c, 0, 60, 82
3, 15243, Note_on_c, 0, 62, 0
3, 15269, Note_on_c, 0, 60, 0
3, 15270, Note_on_c, 0, 59, 72
3, 15300, Note_on_c, 0, 57, 86
3, 15306, Note_on_c, 0, 59, 0
3, 15307, Control_c, 0, 64, 127
3, 15328, Note_on_c, 0, 57, 0
3, 15330, Note_on_c, 0, 55, 74
3, 15355, Note_on_c, 0, 55, 0
3, 15357, Control_c, 0, 64, 0
3, 15360, Note_on_c, 0, 64, 99
3, 15360, Note_on_c, 0, 48, 86
3, 15371, Control_c, 0, 64, 127
3, 15380, Note_on_c, 0, 64, 0
3, 15390, Note_on_c, 0, 63, 99
3, 15417, Note_on_c, 0, 63, 0
3, 15419, Control_c, 0, 64, 0
3, 15420, Note_on_c, 0, 64, 95
3, 15446, Note_on_c, 0, 64, 0
3, 15450, Note_on_c, 0, 66, 82
3, 15470, Note_on_c, 0, 66, 0
3, 15480, Note_on_c, 0, 67, 103
3, 15494, Control_c, 0, 64, 127
3, 15508, Note_on_c, 0, 67, 0
3, 15510, Note_on_c, 0, 66, 86
3, 15532, Note_on_c, 0, 66, 0
3, 15540, Note_on_c, 0, 67, 90
3, 15569, Note_on_c, 0, 67, 0
3, 15570, Note_on_c, 0, 66, 99
3, 15587, Note_on_c, 0, 66, 0
3, 15589, Control_c, 0, 64, 0
3, 15593, Note_on_c, 0, 48, 0
3, 15600, Note_on_c, 0, 67, 90
3, 15600, Note_on_c, 0, 47, 95
3, 15628, Note_on_c, 0, 67, 0
3, 15630, Note_on_c, 0, 66, 78
3, 15653, Control_c, 0, 64, 127
3, 15660, Note_on_c, 0, 64, 99
3, 15666, Note_on_c, 0, 66, 0
3, 15690, Note_on_c, 0, 62, 86
3, 15692, Note_on_c, 0, 64, 0
3, 15719, Note_on_c, 0, 62, 0
3, 15720, Note_on_c, 0, 60, 95
3, 15742, Note_on_c, 0, 60, 0
3, 15750, Note_on_c, 0, 59, 90
3, 15774, Note_on_c, 0, 59, 0
3, 15780, Note_on_c, 0, 57, 103
3, 15799, Note_on_c, 0, 47, 0
3, 15806, Note_on_c, 0, 57, 0
3, 15810, Note_on_c, 0, 55, 99
3, 15826, Note_on_c, 0, 55, 0
3, 15831, Control_c, 0, 64, 0
3, 15840, Note_on_c, 0, 43, 99
3, 15840, Note_on_c, 0, 67, 99
3, 15840, Note_on_c, 0, 43, 82
3, 15854, Control_c, 0, 64, 127
3, 15879, Note_on_c, 0, 43, 0
3, 15900, Note_on_c, 0, 69, 103
3, 15904, Note_on_c, 0, 67, 0
3, 15940, Note_on_c, 0, 43, 0
3, 15950, Note_on_c, 0, 69, 0
3, 15960, Note_on_c, 0, 70, 99
3, 15962, Control_c, 0, 64, 0
3, 16015, Note_on_c, 0, 70, 0
3, 16020, Note_on_c, 0, 71, 99
3, 16080, Note_on_c, 0, 69, 103
3, 16083, Note_on_c, 0, 71, 0
3, 16140, Note_on_c, 0, 67, 90
3, 16141, Note_on_c, 0, 69, 0
3, 16200, Note_on_c, 0, 66, 82
3, 16207, Note_on_c, 0, 67, 0
3, 16251, Note_on_c, 0, 66, 0
3, 16252, Control_c, 0, 64, 127
3, 16260, Note_on_c, 0, 67, 99
3, 16279, Note_on_c, 0, 67, 0
3, 16320, Note_on_c, 0, 50, 95
3, 16320, Note_on_c, 0, 57, 90
3, 16322, Control_c, 0, 64, 0
3, 16377, Control_c, 0, 64, 127
3, 16380, Note_on_c, 0, 60, 78
3, 16392, Note_on_c, 0, 57, 0
3, 16440, Note_on_c, 0, 66, 82
3, 16443, Note_on_c, 0, 60, 0
3, 16497, Note_on_c, 0, 66, 0
3, 16500, Note_on_c, 0, 60, 86
3, 16557, Note_on_c, 0, 60, 0
3, 16560, Note_on_c, 0, 57, 82
3, 16560, Note_on_c, 0, 38, 86
3, 16561, Note_on_c, 0, 50, 0
3, 16575, Control_c, 0, 64, 0
3, 16617, Control_c, 0, 64, 127
3, 16620, Note_on_c, 0, 60, 86
3, 16624, Note_on_c, 0, 57, 0
3, 16670, Note_on_c, 0, 38, 0
3, 16678, Note_on_c, 0, 60, 0
3, 16680, Note_on_c, 0, 66, 74
3, 16728, Note_on_c, 0, 66, 0
3, 16740, Note_on_c, 0, 60, 70
3, 16785, Note_on_c, 0, 60, 0
3, 16797, Control_c, 0, 64, 0
3, 16800, Note_on_c, 0, 55, 72
3, 16800, Note_on_c, 0, 59, 74
3, 16849, Control_c, 0, 64, 127
3, 16860, Note_on_c, 0, 62, 86
3, 16875, Note_on_c, 0, 59, 0
3, 16920, Note_on_c, 0, 67, 69
3, 16921, Note_on_c, 0, 62, 0
3, 16980, Note_on_c, 0, 62, 86
3, 16986, Note_on_c, 0, 67, 0
3, 17011, Note_on_c, 0, 55, 0
3, 17031, Note_on_c, 0, 62, 0
3, 17040, Note_on_c, 0, 57, 90
3, 17040, Note_on_c, 0, 50, 72
3, 17047, Control_c, 0, 64, 0
3, 17097, Control_c, 0, 64, 127
3, 17100, Note_on_c, 0, 60, 72
3, 17111, Note_on_c, 0, 57, 0
3, 17160, Note_on_c, 0, 66, 72
3, 17165, Note_on_c, 0, 60, 0
3, 17214, Note_on_c, 0, 66, 0
3, 17220, Note_on_c, 0, 60, 70
3, 17253, Note_on_c, 0, 50, 0
3, 17277, Note_on_c, 0, 60, 0
3, 17280, Note_on_c, 0, 59, 72
3, 17280, Note_on_c, 0, 43, 66
3, 17288, Control_c, 0, 64, 0
3, 17330, Control_c, 0, 64, 127
3, 17340, Note_on_c, 0, 62, 82
3, 17347, Note_on_c, 0, 59, 0
3, 17394, Note_on_c, 0, 62, 0
3, 17400, Note_on_c, 0, 67, 82
3, 17458, Note_on_c, 0, 43, 0
3, 17460, Note_on_c, 0, 62, 86
3, 17462, Note_on_c, 0, 67, 0
3, 17482, Note_on_c, 0, 62, 0
3, 17520, Note_on_c, 0, 57, 82
3, 17520, Note_on_c, 0, 50, 72
3, 17531, Control_c, 0, 64, 0
3, 17573, Control_c, 0, 64, 127
3, 17579, Note_on_c, 0, 57, 0
3, 17580, Note_on_c, 0, 60, 72
3, 17637, Note_on_c, 0, 60, 0
3, 17640, Note_on_c, 0, 66, 69
3, 17655, Note_on_c, 0, 50, 0
3, 17695, Note_on_c, 0, 66, 0
3, 17700, Note_on_c, 0, 60, 72
3, 17752, Note_on_c, 0, 60, 0
3, 17760, Note_on_c, 0, 55, 86
3, 17760, Note_on_c, 0, 59, 95
3, 17763, Control_c, 0, 64, 0
3, 17799, Control_c, 0, 64, 127
3, 17818, Note_on_c, 0, 59, 0
3, 17820, Note_on_c, 0, 67, 99
3, 17847, Note_on_c, 0, 67, 0
3, 17847, Note_on_c, 0, 55, 0
3, 17880, Note_on_c, 0, 60, 90
3, 17880, Note_on_c, 0, 50, 90
3, 17884, Control_c, 0, 64, 0
3, 17917, Control_c, 0, 64, 127
3, 17935, Note_on_c, 0, 60, 0
3, 17940, Note_on_c, 0, 66, 86
3, 17959, Note_on_c, 0, 50, 0
3, 17989, Note_on_c, 0, 66, 0
3, 18000, Note_on_c, 0, 59, 99
3, 18000, Note_on_c, 0, 55, 86
3, 18002, Control_c, 0, 64, 0
3, 18038, Control_c, 0, 64, 127
3, 18060, Note_on_c, 0, 67, 99
3, 18061, Note_on_c, 0, 59, 0
3, 18084, Note_on_c, 0, 55, 0
3, 18092, Note_on_c, 0, 67, 0
3, 18120, Note_on_c, 0, 60, 82
3, 18120, Note_on_c, 0, 50, 72
3, 18125, Control_c, 0, 64, 0
3, 18160, Control_c, 0, 64, 127
3, 18177, Note_on_c, 0, 60, 0
3, 18180, Note_on_c, 0, 66, 78
3, 18200, Note_on_c, 0, 50, 0
3, 18215, Note_on_c, 0, 66, 0
3, 18240, Note_on_c, 0, 55, 86
3, 18240, Note_on_c, 0, 59, 72
3, 18254, Control_c, 0, 64, 0
3, 18295, Note_on_c, 0, 59, 0
3, 18299, Control_c, 0, 64, 127
3, 18300, Note_on_c, 0, 67, 90
3, 18341, Note_on_c, 0, 55, 0
3, 18342, Note_on_c, 0, 67, 0
3, 18360, Note_on_c, 0, 60, 95
3, 18360, Note_on_c, 0, 50, 86
3, 18365, Control_c, 0, 64, 0
3, 18396, Control_c, 0, 64, 127
3, 18417, Note_on_c, 0, 60, 0
3, 18420, Note_on_c, 0, 66, 78
3, 18439, Note_on_c, 0, 50, 0
3, 18471, Note_on_c, 0, 66, 0
3, 18480, Note_on_c, 0, 59, 90
3, 18480, Note_on_c, 0, 55, 74
3, 18483, Control_c, 0, 64, 0
3, 18517, Control_c, 0, 64, 127
3, 18539, Note_on_c, 0, 59, 0
3, 18540, Note_on_c, 0, 67, 90
3, 18568, Note_on_c, 0, 55, 0
3, 18583, Note_on_c, 0, 67, 0
3, 18598, Control_c, 0, 64, 0
3, 18600, Note_on_c, 0, 60, 90
3, 18600, Note_on_c, 0, 50, 82
3, 18626, Control_c, 0, 64, 127
3, 18643, Note_on_c, 0, 50, 0
3, 18656, Note_on_c, 0, 60, 0
3, 18660, Note_on_c, 0, 66, 82
3, 18676, Note_on_c, 0, 66, 0
3, 18720, Note_on_c, 0, 62, 103
3, 18720, Note_on_c, 0, 67, 99
3, 18720, Note_on_c, 0, 31, 82
3, 18720, Note_on_c, 0, 43, 78
3, 18726, Control_c, 0, 64, 127
3, 18786, Note_on_c, 0, 43, 0
3, 18786, Note_on_c, 0, 31, 0
3, 18788, Note_on_c, 0, 62, 0
3, 18789, Note_on_c, 0, 67, 0
3, 18840, Control_c, 0, 64, 0
3, 18840, Note_on_c, 0, 31, 99
3, 18840, Note_on_c, 0, 67, 103
3, 18840, Note_on_c, 0, 62, 99
3, 18840, Note_on_c, 0, 43, 78
3, 18868, Control_c, 0, 64, 127
3, 18906, Note_on_c, 0, 43, 0
3, 18906, Note_on_c, 0, 67, 0
3, 18907, Note_on_c, 0, 62, 0
3, 18907, Note_on_c, 0, 31, 0
3, 18950, Control_c, 0, 64, 0
3, 18960, Note_on_c, 0, 62, 103
3, 18960, Note_on_c, 0, 31, 99
3, 18960, Note_on_c, 0, 67, 112
3, 18960, Note_on_c, 0, 43, 82
3, 18977, Control_c, 0, 64, 127
3, 19008, Note_on_c, 0, 67, 0
3, 19008, Note_on_c, 0, 62, 0
3, 19009, Note_on_c, 0, 43, 0
3, 19010, Note_on_c, 0, 31, 0
3, 19084, Control_c, 0, 64, 0
3, 19200, Note_on_c, 0, 59, 99
3, 19200, Note_on_c, 0, 62, 103
3, 19200, Note_on_c, 0, 43, 95
3, 19200, Note_on_c, 0, 55, 86
3, 19222, Control_c, 0, 64, 127
3, 19344, Note_on_c, 0, 62, 0
3, 19346, Note_on_c, 0, 59, 0
3, 19347, Note_on_c, 0, 55, 0
3, 19351, Note_on_c, 0, 43, 0
3, 19440, Note_on_c, 0, 55, 95
3, 19440, Note_on_c, 0, 59, 108
3, 19440, Note_on_c, 0, 62, 108
3, 19440, Note_on_c, 0, 43, 99
3, 19445, Control_c, 0, 64, 0
3, 19482, Control_c, 0, 64, 127
3, 19604, Note_on_c, 0, 62, 0
3, 19606, Note_on_c, 0, 43, 0
3, 19606, Note_on_c, 0, 55, 0
3, 19607, Note_on_c, 0, 59, 0
3, 19680, Note_on_c, 0, 59, 117
3, 19680, Note_on_c, 0, 55, 103
3, 19680, Note_on_c, 0, 62, 112
3, 19680, Note_on_c, 0, 43, 99
3, 19684, Control_c, 0, 64, 0
3, 19719, Control_c, 0, 64, 127
3, 19909, Note_on_c, 0, 55, 0
3, 19909, Control_c, 0, 64, 0
3, 19910, Note_on_c, 0, 62, 0
3, 19913, Note_on_c, 0, 59, 0
3, 19914, Note_on_c, 0, 43, 0
3, 20160, Note_on_c, 0, 59, 112
3, 20160, Note_on_c, 0, 41, 99
3, 20160, Note_on_c, 0, 56, 103
3, 20160, Note_on_c, 0, 53, 95
3, 20160, Note_on_c, 0, 62, 103
3, 20160, Note_on_c, 0, 50, 103
3, 20179, Control_c, 0, 64, 127
3, 20321, Note_on_c, 0, 62, 0
3, 20322, Note_on_c, 0, 59, 0
3, 20324, Note_on_c, 0, 56, 0
3, 20325, Note_on_c, 0, 50, 0
3, 20325, Note_on_c, 0, 41, 0
3, 20326, Note_on_c, 0, 53, 0
3, 20400, Note_on_c, 0, 53, 86
3, 20400, Note_on_c, 0, 56, 90
3, 20400, Note_on_c, 0, 59, 108
3, 20400, Note_on_c, 0, 41, 90
3, 20400, Note_on_c, 0, 62, 108
3, 20400, Note_on_c, 0, 50, 99
3, 20402, Control_c, 0, 64, 0
3, 20438, Control_c, 0, 64, 127
3, 20542, Note_on_c, 0, 62, 0
3, 20543, Note_on_c, 0, 59, 0
3, 20544, Note_on_c, 0, 56, 0
3, 20545, Note_on_c, 0, 50, 0
3, 20546, Note_on_c, 0, 53, 0
3, 20547, Note_on_c, 0, 41, 0
3, 20636, Control_c, 0, 64, 0
3, 20640, Note_on_c, 0, 56, 86
3, 20640, Note_on_c, 0, 59, 112
3, 20640, Note_on_c, 0, 62, 103
3, 20640, Note_on_c, 0, 41, 95
3, 20640, Note_on_c, 0, 53, 86
3, 20640, Note_on_c, 0, 50, 99
3, 20669, Control_c, 0, 64, 127
3, 20872, Note_on_c, 0, 50, 0
3, 20875, Note_on_c, 0, 59, 0
3, 20876, Control_c, 0, 64, 0
3, 20878, Note_on_c, 0, 53, 0
3, 20879, Note_on_c, 0, 62, 0
3, 20880, Note_on_c, 0, 56, 0
3, 20882, Note_on_c, 0, 41, 0
3, 21120, Note_on_c, 0, 57, 82
3, 21120, Note_on_c, 0, 40, 72
3, 21120, Note_on_c, 0, 52, 62
3, 21137, Control_c, 0, 64, 127
3, 21180, Note_on_c, 0, 60, 78
3, 21195, Note_on_c, 0, 57, 0
3, 21235, Note_on_c, 0, 60, 0
3, 21240, Note_on_c, 0, 64, 78
3, 21243, Note_on_c, 0, 40, 0
3, 21252, Note_on_c, 0, 52, 0
3, 21300, Note_on_c, 0, 60, 82
3, 21303, Note_on_c, 0, 64, 0
3, 21326, Note_on_c, 0, 60, 0
3, 21360, Note_on_c, 0, 45, 74
3, 21360, Note_on_c, 0, 57, 82
3, 21366, Control_c, 0, 64, 0
3, 21406, Control_c, 0, 64, 127
3, 21420, Note_on_c, 0, 60, 74
3, 21467, Note_on_c, 0, 60, 0
3, 21480, Note_on_c, 0, 64, 86
3, 21483, Note_on_c, 0, 57, 0
3, 21494, Note_on_c, 0, 45, 0
3, 21532, Note_on_c, 0, 64, 0
3, 21540, Note_on_c, 0, 60, 86
3, 21559, Note_on_c, 0, 60, 0
3, 21600, Note_on_c, 0, 56, 78
3, 21600, Note_on_c, 0, 40, 82
3, 21600, Note_on_c, 0, 52, 72
3, 21609, Control_c, 0, 64, 0
3, 21646, Control_c, 0, 64, 127
3, 21657, Note_on_c, 0, 56, 0
3, 21660, Note_on_c, 0, 59, 90
3, 21692, Note_on_c, 0, 59, 0
3, 21720, Note_on_c, 0, 64, 70
3, 21751, Note_on_c, 0, 52, 0
3, 21754, Note_on_c, 0, 40, 0
3, 21763, Note_on_c, 0, 64, 0
3, 21780, Note_on_c, 0, 59, 86
3, 21835, Note_on_c, 0, 59, 0
3, 21840, Note_on_c, 0, 40, 74
3, 21840, Note_on_c, 0, 52, 70
3, 21840, Note_on_c, 0, 56, 78
3, 21843, Control_c, 0, 64, 0
3, 21877, Control_c, 0, 64, 127
3, 21897, Note_on_c, 0, 56, 0
3, 21900, Note_on_c, 0, 59, 86
3, 21939, Note_on_c, 0, 40, 0
3, 21944, Note_on_c, 0, 59, 0
3, 21960, Note_on_c, 0, 64, 74
3, 21963, Note_on_c, 0, 52, 0
3, 22008, Note_on_c, 0, 64, 0
3, 22020, Note_on_c, 0, 59, 86
3, 22036, Note_on_c, 0, 59, 0
3, 22080, Note_on_c, 0, 45, 86
3, 22080, Note_on_c, 0, 57, 86
3, 22089, Control_c, 0, 64, 0
3, 22126, Control_c, 0, 64, 127
3, 22140, Note_on_c, 0, 60, 90
3, 22195, Note_on_c, 0, 60, 0
3, 22200, Note_on_c, 0, 64, 82
3, 22244, Note_on_c, 0, 57, 0
3, 22246, Note_on_c, 0, 45, 0
3, 22251, Note_on_c, 0, 64, 0
3, 22260, Note_on_c, 0, 60, 86
3, 22288, Note_on_c, 0, 60, 0
3, 22320, Note_on_c, 0, 45, 82
3, 22320, Note_on_c, 0, 57, 74
3, 22330, Control_c, 0, 64, 0
3, 22365, Control_c, 0, 64, 127
3, 22380, Note_on_c, 0, 60, 82
3, 22431, Note_on_c, 0, 57, 0
3, 22436, Note_on_c, 0, 60, 0
3, 22440, Note_on_c, 0, 64, 90
3, 22444, Note_on_c, 0, 45, 0
3, 22493, Note_on_c, 0, 64, 0
3, 22500, Note_on_c, 0, 60, 82
3, 22524, Note_on_c, 0, 60, 0
3, 22560, Note_on_c, 0, 56, 82
3, 22560, Note_on_c, 0, 40, 82
3, 22560, Note_on_c, 0, 52, 74
3, 22575, Control_c, 0, 64, 0
3, 22615, Control_c, 0, 64, 127
3, 22620, Note_on_c, 0, 59, 90
3, 22623, Note_on_c, 0, 56, 0
3, 22663, Note_on_c, 0, 59, 0
3, 22680, Note_on_c, 0, 64, 86
3, 22726, Note_on_c, 0, 64, 0
3, 22728, Note_on_c, 0, 52, 0
3, 22732, Note_on_c, 0, 40, 0
3, 22740, Note_on_c, 0, 59, 82
3, 22794, Note_on_c, 0, 59, 0
3, 22800, Note_on_c, 0, 56, 86
3, 22800, Note_on_c, 0, 52, 72
3, 22800, Note_on_c, 0, 40, 82
3, 22817, Control_c, 0, 64, 0
3, 22849, Control_c, 0, 64, 127
3, 22860, Note_on_c, 0, 59, 86
3, 22861, Note_on_c, 0, 56, 0
3, 22905, Note_on_c, 0, 59, 0
3, 22920, Note_on_c, 0, 64, 95
3, 22940, Note_on_c, 0, 52, 0
3, 22944, Note_on_c, 0, 40, 0
3, 22970, Note_on_c, 0, 64, 0
3, 22980, Note_on_c, 0, 59, 86
3, 23006, Note_on_c, 0, 59, 0
3, 23040, Note_on_c, 0, 57, 95
3, 23040, Note_on_c, 0, 45, 82
3, 23040, Note_on_c, 0, 33, 78
3, 23051, Control_c, 0, 64, 0
3, 23089, Control_c, 0, 64, 127
3, 23100, Note_on_c, 0, 60, 86
3, 23109, Note_on_c, 0, 57, 0
3, 23160, Note_on_c, 0, 64, 95
3, 23163, Note_on_c, 0, 60, 0
3, 23219, Note_on_c, 0, 64, 0
3, 23220, Note_on_c, 0, 60, 86
3, 23223, Note_on_c, 0, 45, 0
3, 23232, Note_on_c, 0, 33, 0
3, 23279, Note_on_c, 0, 60, 0
3, 23280, Note_on_c, 0, 57, 90
3, 23280, Note_on_c, 0, 33, 82
3, 23280, Note_on_c, 0, 45, 78
3, 23291, Control_c, 0, 64, 0
3, 23326, Control_c, 0, 64, 127
3, 23340, Note_on_c, 0, 60, 86
3, 23345, Note_on_c, 0, 57, 0
3, 23400, Note_on_c, 0, 64, 99
3, 23402, Note_on_c, 0, 60, 0
3, 23411, Note_on_c, 0, 33, 0
3, 23432, Note_on_c, 0, 45, 0
3, 23455, Note_on_c, 0, 64, 0
3, 23460, Note_on_c, 0, 60, 72
3, 23488, Note_on_c, 0, 60, 0
3, 23520, Note_on_c, 0, 58, 99
3, 23520, Note_on_c, 0, 48, 82
3, 23520, Note_on_c, 0, 36, 78
3, 23542, Control_c, 0, 64, 0
3, 23580, Note_on_c, 0, 60, 99
3, 23584, Note_on_c, 0, 58, 0
3, 23587, Control_c, 0, 64, 127
3, 23640, Note_on_c, 0, 64, 99
3, 23641, Note_on_c, 0, 60, 0
3, 23693, Note_on_c, 0, 64, 0
3, 23698, Note_on_c, 0, 36, 0
3, 23700, Note_on_c, 0, 60, 86
3, 23703, Note_on_c, 0, 48, 0
3, 23760, Note_on_c, 0, 60, 0
3, 23760, Note_on_c, 0, 48, 78
3, 23760, Note_on_c, 0, 58, 82
3, 23760, Note_on_c, 0, 36, 86
3, 23769, Control_c, 0, 64, 0
3, 23799, Control_c, 0, 64, 127
3, 23820, Note_on_c, 0, 60, 90
3, 23827, Note_on_c, 0, 58, 0
3, 23880, Note_on_c, 0, 64, 90
3, 23881, Note_on_c, 0, 60, 0
3, 23895, Note_on_c, 0, 36, 0
3, 23916, Note_on_c, 0, 48, 0
3, 23939, Note_on_c, 0, 64, 0
3, 23940, Note_on_c, 0, 60, 90
3, 23985, Note_on_c, 0, 60, 0
3, 24000, Note_on_c, 0, 57, 90
3, 24000, Note_on_c, 0, 41, 86
3, 24000, Note_on_c, 0, 53, 74
3, 24010, Control_c, 0, 64, 0
3, 24051, Control_c, 0, 64, 127
3, 24060, Note_on_c, 0, 60, 86
3, 24064, Note_on_c, 0, 57, 0
3, 24119, Note_on_c, 0, 60, 0
3, 24120, Note_on_c, 0, 65, 103
3, 24167, Note_on_c, 0, 53, 0
3, 24167, Note_on_c, 0, 41, 0
3, 24180, Note_on_c, 0, 65, 0
3, 24180, Note_on_c, 0, 60, 86
3, 24240, Note_on_c, 0, 41, 86
3, 24240, Note_on_c, 0, 57, 95
3, 24240, Note_on_c, 0, 53, 72
3, 24241, Note_on_c, 0, 60, 0
3, 24253, Control_c, 0, 64, 0
3, 24288, Control_c, 0, 64, 127
3, 24300, Note_on_c, 0, 60, 82
3, 24307, Note_on_c, 0, 57, 0
3, 24360, Note_on_c, 0, 65, 86
3, 24362, Note_on_c, 0, 60, 0
3, 24368, Note_on_c, 0, 53, 0
3, 24379, Note_on_c, 0, 41, 0
3, 24418, Note_on_c, 0, 65, 0
3, 24420, Note_on_c, 0, 60, 74
3, 24480, Note_on_c, 0, 58, 82
3, 24480, Note_on_c, 0, 48, 70
3, 24480, Note_on_c, 0, 36, 82
3, 24481, Note_on_c, 0, 60, 0
3, 24486, Control_c, 0, 64, 0
3, 24524, Control_c, 0, 64, 127
3, 24540, Note_on_c, 0, 60, 86
3, 24551, Note_on_c, 0, 58, 0
3, 24600, Note_on_c, 0, 60, 0
3, 24600, Note_on_c, 0, 64, 86
3, 24653, Note_on_c, 0, 36, 0
3, 24656, Note_on_c, 0, 48, 0
3, 24657, Note_on_c, 0, 64, 0
3, 24660, Note_on_c, 0, 60, 82
3, 24716, Note_on_c, 0, 60, 0
3, 24720, Note_on_c, 0, 58, 78
3, 24720, Note_on_c, 0, 48, 70
3, 24720, Note_on_c, 0, 36, 82
3, 24727, Control_c, 0, 64, 0
3, 24759, Control_c, 0, 64, 127
3, 24780, Note_on_c, 0, 60, 86
3, 24785, Note_on_c, 0, 58, 0
3, 24838, Note_on_c, 0, 60, 0
3, 24840, Note_on_c, 0, 64, 82
3, 24851, Note_on_c, 0, 36, 0
3, 24875, Note_on_c, 0, 48, 0
3, 24893, Note_on_c, 0, 64, 0
3, 24900, Note_on_c, 0, 60, 78
3, 24944, Note_on_c, 0, 60, 0
3, 24960, Note_on_c, 0, 57, 86
3, 24960, Note_on_c, 0, 41, 72
3, 24960, Note_on_c, 0, 53, 70
3, 24968, Control_c, 0, 64, 0
3, 25005, Control_c, 0, 64, 127
3, 25020, Note_on_c, 0, 60, 86
3, 25025, Note_on_c, 0, 57, 0
3, 25079, Note_on_c, 0, 60, 0
3, 25080, Note_on_c, 0, 65, 86
3, 25105, Note_on_c, 0, 41, 0
3, 25106, Note_on_c, 0, 53, 0
3, 25133, Note_on_c, 0, 65, 0
3, 25140, Note_on_c, 0, 60, 82
3, 25200, Note_on_c, 0, 41, 78
3, 25200, Note_on_c, 0, 53, 72
3, 25200, Note_on_c, 0, 57, 90
3, 25201, Note_on_c, 0, 60, 0
3, 25210, Control_c, 0, 64, 0
3, 25244, Control_c, 0, 64, 127
3, 25260, Note_on_c, 0, 60, 86
3, 25267, Note_on_c, 0, 57, 0
3, 25318, Note_on_c, 0, 60, 0
3, 25320, Note_on_c, 0, 65, 99
3, 25334, Note_on_c, 0, 53, 0
3, 25338, Note_on_c, 0, 41, 0
3, 25378, Note_on_c, 0, 65, 0
3, 25380, Note_on_c, 0, 60, 86
3, 25440, Note_on_c, 0, 57, 86
3, 25440, Note_on_c, 0, 39, 82
3, 25440, Note_on_c, 0, 51, 90
3, 25442, Note_on_c, 0, 60, 0
3, 25459, Control_c, 0, 64, 0
3, 25500, Note_on_c, 0, 60, 86
3, 25508, Control_c, 0, 64, 127
3, 25509, Note_on_c, 0, 57, 0
3, 25560, Note_on_c, 0, 63, 86
3, 25570, Note_on_c, 0, 60, 0
3, 25620, Note_on_c, 0, 60, 95
3, 25621, Note_on_c, 0, 63, 0
3, 25622, Note_on_c, 0, 51, 0
3, 25625, Note_on_c, 0, 39, 0
3, 25678, Note_on_c, 0, 60, 0
3, 25680, Note_on_c, 0, 57, 90
3, 25680, Note_on_c, 0, 39, 90
3, 25680, Note_on_c, 0, 51, 90
3, 25692, Control_c, 0, 64, 0
3, 25727, Control_c, 0, 64, 127
3, 25740, Note_on_c, 0, 60, 95
3, 25749, Note_on_c, 0, 57, 0
3, 25800, Note_on_c, 0, 63, 99
3, 25804, Note_on_c, 0, 60, 0
3, 25845, Note_on_c, 0, 51, 0
3, 25851, Note_on_c, 0, 39, 0
3, 25853, Note_on_c, 0, 63, 0
3, 25860, Note_on_c, 0, 60, 99
3, 25879, Note_on_c, 0, 60, 0
3, 25920, Note_on_c, 0, 54, 99
3, 25920, Note_on_c, 0, 38, 86
3, 25920, Note_on_c, 0, 50, 86
3, 25935, Control_c, 0, 64, 0
3, 25972, Control_c, 0, 64, 127
3, 25980, Note_on_c, 0, 57, 99
3, 25984, Note_on_c, 0, 54, 0
3, 26037, Note_on_c, 0, 57, 0
3, 26040, Note_on_c, 0, 62, 99
3, 26096, Note_on_c, 0, 62, 0
3, 26096, Note_on_c, 0, 50, 0
3, 26100, Note_on_c, 0, 57, 99
3, 26101, Note_on_c, 0, 38, 0
3, 26156, Note_on_c, 0, 57, 0
3, 26160, Note_on_c, 0, 54, 95
3, 26160, Note_on_c, 0, 38, 90
3, 26160, Note_on_c, 0, 50, 86
3, 26169, Control_c, 0, 64, 0
3, 26201, Control_c, 0, 64, 127
3, 26220, Note_on_c, 0, 57, 103
3, 26229, Note_on_c, 0, 54, 0
3, 26279, Note_on_c, 0, 57, 0
3, 26280, Note_on_c, 0, 62, 103
3, 26299, Note_on_c, 0, 38, 0
3, 26304, Note_on_c, 0, 50, 0
3, 26337, Note_on_c, 0, 62, 0
3, 26340, Note_on_c, 0, 57, 103
3, 26398, Note_on_c, 0, 57, 0
3, 26400, Note_on_c, 0, 51, 74
3, 26400, Note_on_c, 0, 55, 103
3, 26400, Note_on_c, 0, 39, 82
3, 26412, Control_c, 0, 64, 0
3, 26449, Control_c, 0, 64, 127
3, 26460, Note_on_c, 0, 58, 82
3, 26470, Note_on_c, 0, 55, 0
3, 26520, Note_on_c, 0, 61, 78
3, 26527, Note_on_c, 0, 58, 0
3, 26576, Note_on_c, 0, 61, 0
3, 26580, Note_on_c, 0, 58, 82
3, 26589, Note_on_c, 0, 39, 0
3, 26589, Note_on_c, 0, 51, 0
3, 26640, Note_on_c, 0, 55, 86
3, 26640, Note_on_c, 0, 51, 67
3, 26640, Note_on_c, 0, 39, 74
3, 26641, Note_on_c, 0, 58, 0
3, 26651, Control_c, 0, 64, 0
3, 26684, Control_c, 0, 64, 127
3, 26700, Note_on_c, 0, 58, 74
3, 26711, Note_on_c, 0, 55, 0
3, 26760, Note_on_c, 0, 61, 86
3, 26764, Note_on_c, 0, 58, 0
3, 26783, Note_on_c, 0, 51, 0
3, 26789, Note_on_c, 0, 39, 0
3, 26810, Note_on_c, 0, 61, 0
3, 26820, Note_on_c, 0, 58, 70
3, 26853, Note_on_c, 0, 58, 0
3, 26880, Note_on_c, 0, 54, 90
3, 26880, Note_on_c, 0, 38, 86
3, 26880, Note_on_c, 0, 50, 78
3, 26895, Control_c, 0, 64, 0
3, 26929, Control_c, 0, 64, 127
3, 26940, Note_on_c, 0, 57, 99
3, 26948, Note_on_c, 0, 54, 0
3, 27000, Note_on_c, 0, 62, 103
3, 27001, Note_on_c, 0, 57, 0
3, 27043, Note_on_c, 0, 50, 0
3, 27048, Note_on_c, 0, 38, 0
3, 27052, Note_on_c, 0, 62, 0
3, 27060, Note_on_c, 0, 57, 103
3, 27120, Note_on_c, 0, 54, 103
3, 27120, Note_on_c, 0, 38, 103
3, 27120, Note_on_c, 0, 50, 99
3, 27121, Note_on_c, 0, 57, 0
3, 27127, Control_c, 0, 64, 0
3, 27157, Control_c, 0, 64, 127
3, 27180, Note_on_c, 0, 57, 99
3, 27186, Note_on_c, 0, 54, 0
3, 27237, Note_on_c, 0, 57, 0
3, 27240, Note_on_c, 0, 62, 99
3, 27263, Note_on_c, 0, 38, 0
3, 27272, Note_on_c, 0, 50, 0
3, 27294, Note_on_c, 0, 62, 0
3, 27300, Note_on_c, 0, 57, 86
3, 27356, Note_on_c, 0, 57, 0
3, 27360, Note_on_c, 0, 55, 86
3, 27360, Note_on_c, 0, 51, 60
3, 27360, Note_on_c, 0, 39, 63
3, 27365, Control_c, 0, 64, 0
3, 27401, Control_c, 0, 64, 127
3, 27420, Note_on_c, 0, 58, 74
3, 27435, Note_on_c, 0, 55, 0
3, 27480, Note_on_c, 0, 61, 70
3, 27485, Note_on_c, 0, 58, 0
3, 27529, Note_on_c, 0, 39, 0
3, 27532, Note_on_c, 0, 51, 0
3, 27536, Note_on_c, 0, 61, 0
3, 27540, Note_on_c, 0, 58, 70
3, 27600, Note_on_c, 0, 58, 0
3, 27600, Note_on_c, 0, 55, 74
3, 27600, Note_on_c, 0, 51, 70
3, 27600, Note_on_c, 0, 39, 82
3, 27606, Control_c, 0, 64, 0
3, 27637, Control_c, 0, 64, 127
3, 27660, Note_on_c, 0, 58, 78
3, 27672, Note_on_c, 0, 55, 0
3, 27720, Note_on_c, 0, 61, 86
3, 27723, Note_on_c, 0, 58, 0
3, 27749, Note_on_c, 0, 51, 0
3, 27752, Note_on_c, 0, 39, 0
3, 27770, Note_on_c, 0, 61, 0
3, 27780, Note_on_c, 0, 58, 69
3, 27806, Note_on_c, 0, 58, 0
3, 27840, Note_on_c, 0, 54, 66
3, 27840, Note_on_c, 0, 38, 82
3, 27840, Note_on_c, 0, 50, 70
3, 27851, Control_c, 0, 64, 0
3, 27883, Control_c, 0, 64, 127
3, 27899, Note_on_c, 0, 54, 0
3, 27900, Note_on_c, 0, 57, 99
3, 27960, Note_on_c, 0, 62, 86
3, 27961, Note_on_c, 0, 57, 0
3, 27998, Note_on_c, 0, 50, 0
3, 28001, Note_on_c, 0, 38, 0
3, 28016, Note_on_c, 0, 62, 0
3, 28020, Note_on_c, 0, 57, 86
3, 28080, Note_on_c, 0, 54, 86
3, 28080, Note_on_c, 0, 38, 86
3, 28080, Note_on_c, 0, 50, 78
3, 28081, Note_on_c, 0, 57, 0
3, 28097, Control_c, 0, 64, 0
3, 28125, Control_c, 0, 64, 127
3, 28140, Note_on_c, 0, 57, 99
3, 28148, Note_on_c, 0, 54, 0
3, 28197, Note_on_c, 0, 57, 0
3, 28200, Note_on_c, 0, 62, 99
3, 28218, Note_on_c, 0, 38, 0
3, 28224, Note_on_c, 0, 50, 0
3, 28259, Note_on_c, 0, 62, 0
3, 28260, Note_on_c, 0, 57, 99
3, 28319, Note_on_c, 0, 57, 0
3, 28320, Note_on_c, 0, 55, 108
3, 28320, Note_on_c, 0, 39, 90
3, 28320, Note_on_c, 0, 51, 86
3, 28335, Control_c, 0, 64, 0
3, 28375, Control_c, 0, 64, 127
3, 28380, Note_on_c, 0, 58, 86
3, 28393, Note_on_c, 0, 55, 0
3, 28440, Note_on_c, 0, 61, 95
3, 28443, Note_on_c, 0, 58, 0
3, 28497, Note_on_c, 0, 61, 0
3, 28500, Note_on_c, 0, 58, 86
3, 28523, Note_on_c, 0, 51, 0
3, 28523, Note_on_c, 0, 39, 0
3, 28557, Note_on_c, 0, 58, 0
3, 28560, Note_on_c, 0, 55, 99
3, 28560, Note_on_c, 0, 39, 86
3, 28560, Note_on_c, 0, 51, 74
3, 28565, Control_c, 0, 64, 0
3, 28598, Control_c, 0, 64, 127
3, 28620, Note_on_c, 0, 58, 72
3, 28629, Note_on_c, 0, 55, 0
3, 28680, Note_on_c, 0, 61, 78
3, 28682, Note_on_c, 0, 58, 0
3, 28707, Note_on_c, 0, 51, 0
3, 28714, Note_on_c, 0, 39, 0
3, 28740, Note_on_c, 0, 61, 0
3, 28740, Note_on_c, 0, 58, 86
3, 28763, Note_on_c, 0, 58, 0
3, 28796, Control_c, 0, 64, 0
3, 28800, Note_on_c, 0, 54, 78
3, 28800, Note_on_c, 0, 57, 103
3, 28800, Note_on_c, 0, 62, 99
3, 28800, Note_on_c, 0, 38, 86
3, 28800, Note_on_c, 0, 50, 78
3, 28831, Control_c, 0, 64, 127
3, 29275, Control_c, 0, 64, 0
3, 29280, Note_on_c, 0, 62, 0
3, 29282, Note_on_c, 0, 50, 0
3, 29283, Note_on_c, 0, 38, 0
3, 29283, Note_on_c, 0, 57, 0
3, 29284, Note_on_c, 0, 54, 0
3, 29760, Note_on_c, 0, 34, 67
3, 29760, Note_on_c, 0, 50, 82
3, 29760, Note_on_c, 0, 46, 90
3, 29771, Control_c, 0, 64, 127
3, 29820, Note_on_c, 0, 53, 78
3, 29840, Note_on_c, 0, 50, 0
3, 29880, Note_on_c, 0, 58, 72
3, 29885, Note_on_c, 0, 53, 0
3, 29936, Note_on_c, 0, 58, 0
3, 29940, Note_on_c, 0, 53, 72
3, 29988, Note_on_c, 0, 46, 0
3, 29991, Note_on_c, 0, 34, 0
3, 29997, Note_on_c, 0, 53, 0
3, 30000, Note_on_c, 0, 50, 78
3, 30012, Control_c, 0, 64, 0
3, 30049, Control_c, 0, 64, 127
3, 30060, Note_on_c, 0, 53, 86
3, 30067, Note_on_c, 0, 50, 0
3, 30117, Note_on_c, 0, 53, 0
3, 30120, Note_on_c, 0, 58, 70
3, 30126, Control_c, 0, 64, 0
3, 30153, Control_c, 0, 64, 127
3, 30180, Note_on_c, 0, 53, 69
3, 30183, Note_on_c, 0, 58, 0
3, 30229, Note_on_c, 0, 53, 0
3, 30240, Control_c, 0, 64, 0
3, 30240, Note_on_c, 0, 51, 82
3, 30240, Note_on_c, 0, 41, 86
3, 30240, Note_on_c, 0, 53, 67
3, 30277, Control_c, 0, 64, 127
3, 30302, Note_on_c, 0, 51, 0
3, 30355, Note_on_c, 0, 53, 0
3, 30360, Note_on_c, 0, 57, 90
3, 30362, Note_on_c, 0, 41, 0
3, 30420, Note_on_c, 0, 57, 0
3, 30420, Note_on_c, 0, 53, 82
3, 30479, Control_c, 0, 64, 0
3, 30480, Note_on_c, 0, 53, 0
3, 30480, Note_on_c, 0, 51, 78
3, 30511, Control_c, 0, 64, 127
3, 30540, Note_on_c, 0, 53, 74
3, 30550, Note_on_c, 0, 51, 0
3, 30600, Note_on_c, 0, 57, 82
3, 30604, Note_on_c, 0, 53, 0
3, 30655, Note_on_c, 0, 57, 0
3, 30660, Note_on_c, 0, 53, 86
3, 30710, Note_on_c, 0, 53, 0
3, 30720, Note_on_c, 0, 34, 72
3, 30720, Note_on_c, 0, 46, 70
3, 30720, Note_on_c, 0, 50, 86
3, 30722, Control_c, 0, 64, 0
3, 30759, Control_c, 0, 64, 127
3, 30780, Note_on_c, 0, 53, 69
3, 30785, Note_on_c, 0, 50, 0
3, 30840, Note_on_c, 0, 58, 72
3, 30842, Note_on_c, 0, 53, 0
3, 30900, Note_on_c, 0, 58, 0
3, 30900, Note_on_c, 0, 53, 70
3, 30913, Note_on_c, 0, 46, 0
3, 30918, Note_on_c, 0, 34, 0
3, 30960, Note_on_c, 0, 50, 86
3, 30961, Note_on_c, 0, 53, 0
3, 30967, Control_c, 0, 64, 0
3, 31003, Control_c, 0, 64, 127
3, 31017, Note_on_c, 0, 50, 0
3, 31020, Note_on_c, 0, 53, 78
3, 31080, Note_on_c, 0, 58, 72
3, 31081, Control_c, 0, 64, 0
3, 31084, Note_on_c, 0, 53, 0
3, 31104, Control_c, 0, 64, 127
3, 31138, Note_on_c, 0, 58, 0
3, 31140, Note_on_c, 0, 53, 78
3, 31180, Note_on_c, 0, 53, 0
3, 31200, Note_on_c, 0, 51, 99
3, 31200, Note_on_c, 0, 53, 74
3, 31200, Note_on_c, 0, 41, 82
3, 31207, Control_c, 0, 64, 0
3, 31252, Control_c, 0, 64, 127
3, 31258, Note_on_c, 0, 51, 0
3, 31316, Note_on_c, 0, 53, 0
3, 31320, Note_on_c, 0, 57, 99
3, 31337, Control_c, 0, 64, 0
3, 31364, Control_c, 0, 64, 127
3, 31380, Note_on_c, 0, 57, 0
3, 31380, Note_on_c, 0, 53, 86
3, 31440, Note_on_c, 0, 51, 70
3, 31441, Note_on_c, 0, 53, 0
3, 31443, Control_c, 0, 64, 0
3, 31464, Control_c, 0, 64, 127
3, 31500, Note_on_c, 0, 53, 72
3, 31512, Note_on_c, 0, 51, 0
3, 31559, Note_on_c, 0, 41, 0
3, 31560, Note_on_c, 0, 57, 95
3, 31561, Note_on_c, 0, 53, 0
3, 31610, Note_on_c, 0, 57, 0
3, 31620, Note_on_c, 0, 53, 67
3, 31670, Note_on_c, 0, 53, 0
3, 31679, Control_c, 0, 64, 0
3, 31680, Note_on_c, 0, 34, 69
3, 31680, Note_on_c, 0, 50, 82
3, 31680, Note_on_c, 0, 46, 66
3, 31717, Control_c, 0, 64, 127
3, 31740, Note_on_c, 0, 53, 67
3, 31746, Note_on_c, 0, 50, 0
3, 31800, Note_on_c, 0, 58, 70
3, 31807, Note_on_c, 0, 53, 0
3, 31860, Note_on_c, 0, 53, 82
3, 31863, Note_on_c, 0, 58, 0
3, 31920, Note_on_c, 0, 50, 82
3, 31922, Note_on_c, 0, 53, 0
3, 31923, Note_on_c, 0, 46, 0
3, 31927, Note_on_c, 0, 34, 0
3, 31930, Control_c, 0, 64, 0
3, 31969, Control_c, 0, 64, 127
3, 31978, Note_on_c, 0, 50, 0
3, 31980, Note_on_c, 0, 53, 60
3, 32023, Control_c, 0, 64, 0
3, 32040, Note_on_c, 0, 58, 72
3, 32043, Note_on_c, 0, 53, 0
3, 32047, Control_c, 0, 64, 127
3, 32100, Note_on_c, 0, 53, 72
3, 32104, Note_on_c, 0, 58, 0
3, 32160, Note_on_c, 0, 53, 0
3, 32160, Note_on_c, 0, 39, 82
3, 32160, Note_on_c, 0, 51, 86
3, 32162, Control_c, 0, 64, 0
3, 32192, Control_c, 0, 64, 127
3, 32220, Note_on_c, 0, 55, 90
3, 32227, Note_on_c, 0, 51, 0
3, 32250, Note_on_c, 0, 51, 54
3, 32269, Note_on_c, 0, 55, 0
3, 32280, Note_on_c, 0, 58, 58
3, 32337, Note_on_c, 0, 58, 0
3, 32340, Note_on_c, 0, 55, 78
3, 32362, Note_on_c, 0, 51, 0
3, 32394, Note_on_c, 0, 55, 0
3, 32400, Note_on_c, 0, 51, 70
3, 32413, Control_c, 0, 64, 0
3, 32435, Control_c, 0, 64, 127
3, 32460, Note_on_c, 0, 55, 90
3, 32469, Note_on_c, 0, 51, 0
3, 32514, Note_on_c, 0, 55, 0
3, 32520, Note_on_c, 0, 58, 74
3, 32535, Note_on_c, 0, 39, 0
3, 32574, Note_on_c, 0, 58, 0
3, 32580, Note_on_c, 0, 55, 74
3, 32620, Note_on_c, 0, 55, 0
3, 32640, Note_on_c, 0, 34, 78
3, 32640, Note_on_c, 0, 46, 74
3, 32640, Note_on_c, 0, 50, 99
3, 32641, Control_c, 0, 64, 0
3, 32668, Control_c, 0, 64, 127
3, 32741, Note_on_c, 0, 50, 0
3, 32746, Note_on_c, 0, 46, 0
3, 32751, Note_on_c, 0, 34, 0
3, 32758, Control_c, 0, 64, 0
3, 33240, Note_on_c, 0, 51, 103
3, 33240, Note_on_c, 0, 39, 82
3, 33253, Control_c, 0, 64, 127
3, 33300, Note_on_c, 0, 51, 0
3, 33300, Note_on_c, 0, 60, 99
3, 33327, Note_on_c, 0, 60, 0
3, 33342, Note_on_c, 0, 39, 0
3, 33354, Control_c, 0, 64, 0
3, 33360, Note_on_c, 0, 50, 99
3, 33360, Note_on_c, 0, 41, 99
3, 33391, Control_c, 0, 64, 127
3, 33419, Note_on_c, 0, 50, 0
3, 33420, Note_on_c, 0, 58, 86
3, 33446, Note_on_c, 0, 58, 0
3, 33446, Note_on_c, 0, 41, 0
3, 33473, Control_c, 0, 64, 0
3, 33480, Note_on_c, 0, 51, 95
3, 33480, Note_on_c, 0, 41, 95
3, 33503, Control_c, 0, 64, 127
3, 33531, Note_on_c, 0, 51, 0
3, 33540, Note_on_c, 0, 57, 103
3, 33555, Note_on_c, 0, 41, 0
3, 33567, Note_on_c, 0, 57, 0
3, 33593, Control_c, 0, 64, 0
3, 33600, Note_on_c, 0, 34, 78
3, 33600, Note_on_c, 0, 58, 86
3, 33600, Note_on_c, 0, 50, 99
3, 33600, Note_on_c, 0, 46, 72
3, 33624, Control_c, 0, 64, 127
3, 33709, Note_on_c, 0, 50, 0
3, 33710, Note_on_c, 0, 58, 0
3, 33712, Control_c, 0, 64, 0
3, 33713, Note_on_c, 0, 34, 0
3, 33713, Note_on_c, 0, 46, 0
3, 34200, Note_on_c, 0, 51, 66
3, 34200, Note_on_c, 0, 39, 70
3, 34214, Control_c, 0, 64, 127
3, 34254, Note_on_c, 0, 51, 0
3, 34260, Note_on_c, 0, 60, 78
3, 34278, Note_on_c, 0, 60, 0
3, 34280, Note_on_c, 0, 39, 0
3, 34317, Control_c, 0, 64, 0
3, 34320, Note_on_c, 0, 41, 82
3, 34320, Note_on_c, 0, 50, 82
3, 34354, Control_c, 0, 64, 127
3, 34378, Note_on_c, 0, 50, 0
3, 34380, Note_on_c, 0, 58, 70
3, 34395, Note_on_c, 0, 41, 0
3, 34403, Note_on_c, 0, 58, 0
3, 34430, Control_c, 0, 64, 0
3, 34440, Note_on_c, 0, 51, 82
3, 34440, Note_on_c, 0, 41, 86
3, 34458, Control_c, 0, 64, 127
3, 34488, Note_on_c, 0, 51, 0
3, 34490, Note_on_c, 0, 41, 0
3, 34500, Note_on_c, 0, 57, 86
3, 34518, Note_on_c, 0, 57, 0
3, 34546, Control_c, 0, 64, 0
3, 34560, Note_on_c, 0, 58, 82
3, 34560, Note_on_c, 0, 50, 86
3, 34560, Note_on_c, 0, 46, 86
3, 34580, Control_c, 0, 64, 127
3, 34614, Note_on_c, 0, 50, 0
3, 34615, Note_on_c, 0, 46, 0
3, 34615, Note_on_c, 0, 58, 0
3, 34666, Control_c, 0, 64, 0
3, 34680, Note_on_c, 0, 51, 95
3, 34680, Note_on_c, 0, 41, 95
3, 34680, Note_on_c, 0, 57, 103
3, 34700, Control_c, 0, 64, 127
3, 34732, Note_on_c, 0, 51, 0
3, 34735, Note_on_c, 0, 57, 0
3, 34741, Note_on_c, 0, 41, 0
3, 34793, Control_c, 0, 64, 0
3, 34800, Note_on_c, 0, 50, 99
3, 34800, Note_on_c, 0, 46, 90
3, 34800, Note_on_c, 0, 58, 95
3, 34825, Control_c, 0, 64, 127
3, 34845, Note_on_c, 0, 50, 0
3, 34858, Note_on_c, 0, 46, 0
3, 34861, Note_on_c, 0, 58, 0
3, 34905, Control_c, 0, 64, 0
3, 34920, Note_on_c, 0, 51, 95
3, 34920, Note_on_c, 0, 57, 108
3, 34920, Note_on_c, 0, 41, 99
3, 34932, Control_c, 0, 64, 127
3, 34955, Note_on_c, 0, 41, 0
3, 34960, Note_on_c, 0, 51, 0
3, 34961, Note_on_c, 0, 57, 0
3, 35025, Control_c, 0, 64, 0
3, 35040, Note_on_c, 0, 58, 108
3, 35040, Note_on_c, 0, 46, 90
3, 35053, Control_c, 0, 64, 127
3, 35095, Note_on_c, 0, 58, 0
3, 35098, Note_on_c, 0, 46, 0
3, 35100, Note_on_c, 0, 48, 103
3, 35100, Note_on_c, 0, 60, 99
3, 35126, Control_c, 0, 64, 0
3, 35149, Note_on_c, 0, 60, 0
3, 35156, Note_on_c, 0, 48, 0
3, 35160, Note_on_c, 0, 50, 99
3, 35160, Note_on_c, 0, 62, 95
3, 35168, Control_c, 0, 64, 127
3, 35207, Note_on_c, 0, 62, 0
3, 35218, Note_on_c, 0, 50, 0
3, 35219, Control_c, 0, 64, 0
3, 35220, Note_on_c, 0, 60, 103
3, 35220, Note_on_c, 0, 48, 103
3, 35271, Note_on_c, 0, 60, 0
3, 35274, Note_on_c, 0, 48, 0
3, 35280, Note_on_c, 0, 58, 99
3, 35280, Note_on_c, 0, 46, 86
3, 35282, Control_c, 0, 64, 127
3, 35317, Control_c, 0, 64, 0
3, 35335, Note_on_c, 0, 58, 0
3, 35338, Note_on_c, 0, 46, 0
3, 35340, Note_on_c, 0, 60, 103
3, 35340, Note_on_c, 0, 48, 95
3, 35393, Note_on_c, 0, 48, 0
3, 35394, Note_on_c, 0, 60, 0
3, 35400, Note_on_c, 0, 45, 95
3, 35400, Note_on_c, 0, 57, 108
3, 35401, Control_c, 0, 64, 127
3, 35430, Control_c, 0, 64, 0
3, 35459, Note_on_c, 0, 57, 0
3, 35460, Note_on_c, 0, 46, 99
3, 35460, Note_on_c, 0, 58, 103
3, 35462, Note_on_c, 0, 45, 0
3, 35509, Note_on_c, 0, 46, 0
3, 35511, Note_on_c, 0, 58, 0
3, 35520, Control_c, 0, 64, 127
3, 35520, Note_on_c, 0, 46, 99
3, 35520, Note_on_c, 0, 55, 108
3, 35520, Note_on_c, 0, 43, 103
3, 35569, Note_on_c, 0, 43, 0
3, 35569, Note_on_c, 0, 46, 0
3, 35570, Note_on_c, 0, 55, 0
3, 35636, Control_c, 0, 64, 0
3, 35640, Note_on_c, 0, 38, 103
3, 35640, Note_on_c, 0, 48, 99
3, 35640, Note_on_c, 0, 54, 95
3, 35666, Control_c, 0, 64, 127
3, 35685, Note_on_c, 0, 54, 0
3, 35688, Note_on_c, 0, 48, 0
3, 35697, Note_on_c, 0, 38, 0
3, 35749, Control_c, 0, 64, 0
3, 35760, Note_on_c, 0, 46, 90
3, 35760, Note_on_c, 0, 55, 99
3, 35760, Note_on_c, 0, 43, 95
3, 35779, Control_c, 0, 64, 127
3, 35807, Note_on_c, 0, 46, 0
3, 35808, Note_on_c, 0, 43, 0
3, 35809, Note_on_c, 0, 55, 0
3, 35863, Control_c, 0, 64, 0
3, 35880, Note_on_c, 0, 48, 99
3, 35880, Note_on_c, 0, 54, 95
3, 35880, Note_on_c, 0, 38, 99
3, 35888, Control_c, 0, 64, 127
3, 35901, Note_on_c, 0, 38, 0
3, 35902, Note_on_c, 0, 48, 0
3, 35906, Note_on_c, 0, 54, 0
3, 35991, Control_c, 0, 64, 0
3, 36000, Note_on_c, 0, 43, 99
3, 36000, Note_on_c, 0, 55, 103
3, 36025, Control_c, 0, 64, 127
3, 36056, Note_on_c, 0, 55, 0
3, 36056, Note_on_c, 0, 43, 0
3, 36060, Note_on_c, 0, 45, 103
3, 36060, Note_on_c, 0, 57, 99
3, 36084, Control_c, 0, 64, 0
3, 36117, Note_on_c, 0, 57, 0
3, 36118, Note_on_c, 0, 45, 0
3, 36120, Note_on_c, 0, 46, 99
3, 36120, Note_on_c, 0, 58, 99
3, 36130, Control_c, 0, 64, 127
3, 36180, Note_on_c, 0, 57, 99
3, 36180, Note_on_c, 0, 45, 99
3, 36183, Note_on_c, 0, 46, 0
3, 36185, Note_on_c, 0, 58, 0
3, 36201, Control_c, 0, 64, 0
3, 36235, Note_on_c, 0, 45, 0
3, 36240, Note_on_c, 0, 57, 0
3, 36240, Note_on_c, 0, 43, 86
3, 36240, Note_on_c, 0, 55, 103
3, 36252, Control_c, 0, 64, 127
3, 36294, Note_on_c, 0, 55, 0
3, 36299, Note_on_c, 0, 43, 0
3, 36300, Note_on_c, 0, 45, 95
3, 36300, Note_on_c, 0, 57, 108
3, 36308, Control_c, 0, 64, 0
3, 36360, Note_on_c, 0, 45, 0
3, 36360, Note_on_c, 0, 41, 86
3, 36360, Note_on_c, 0, 53, 95
3, 36361, Note_on_c, 0, 57, 0
3, 36376, Control_c, 0, 64, 127
3, 36410, Note_on_c, 0, 53, 0
3, 36420, Note_on_c, 0, 55, 99
3, 36420, Note_on_c, 0, 43, 99
3, 36422, Note_on_c, 0, 41, 0
3, 36434, Note_on_c, 0, 55, 0
3, 36441, Note_on_c, 0, 43, 0
3, 36473, Control_c, 0, 64, 0
3, 36480, Note_on_c, 0, 41, 103
3, 36480, Note_on_c, 0, 53, 103
3, 36480, Note_on_c, 0, 45, 103
3, 36519, Control_c, 0, 64, 127
3, 36550, Note_on_c, 0, 45, 0
3, 36556, Note_on_c, 0, 41, 0
3, 36557, Note_on_c, 0, 53, 0
3, 36598, Control_c, 0, 64, 0
3, 36600, Note_on_c, 0, 46, 90
3, 36600, Note_on_c, 0, 52, 99
3, 36600, Note_on_c, 0, 36, 99
3, 36633, Control_c, 0, 64, 127
3, 36659, Note_on_c, 0, 36, 0
3, 36659, Note_on_c, 0, 52, 0
3, 36661, Note_on_c, 0, 46, 0
3, 36712, Control_c, 0, 64, 0
3, 36720, Note_on_c, 0, 41, 86
3, 36720, Note_on_c, 0, 45, 103
3, 36720, Note_on_c, 0, 53, 99
3, 36743, Control_c, 0, 64, 127
3, 36787, Note_on_c, 0, 45, 0
3, 36791, Note_on_c, 0, 53, 0
3, 36794, Note_on_c, 0, 41, 0
3, 36821, Control_c, 0, 64, 0
3, 36840, Note_on_c, 0, 46, 86
3, 36840, Note_on_c, 0, 52, 99
3, 36840, Note_on_c, 0, 36, 95
3, 36851, Control_c, 0, 64, 127
3, 36858, Note_on_c, 0, 36, 0
3, 36860, Note_on_c, 0, 46, 0
3, 36863, Note_on_c, 0, 52, 0
3, 36957, Control_c, 0, 64, 0
3, 36960, Note_on_c, 0, 41, 103
3, 36960, Note_on_c, 0, 53, 117
3, 36983, Note_on_c, 0, 41, 0
3, 36984, Note_on_c, 0, 53, 0
3, 37020, Note_on_c, 0, 45, 95
3, 37020, Note_on_c, 0, 57, 103
3, 37037, Note_on_c, 0, 57, 0
3, 37041, Note_on_c, 0, 45, 0
3, 37080, Note_on_c, 0, 60, 103
3, 37080, Note_on_c, 0, 48, 103
3, 37100, Note_on_c, 0, 60, 0
3, 37101, Note_on_c, 0, 48, 0
3, 37140, Note_on_c, 0, 58, 108
3, 37140, Note_on_c, 0, 46, 86
3, 37159, Note_on_c, 0, 46, 0
3, 37159, Note_on_c, 0, 58, 0
3, 37200, Note_on_c, 0, 45, 82
3, 37200, Note_on_c, 0, 57, 103
3, 37217, Note_on_c, 0, 57, 0
3, 37223, Note_on_c, 0, 45, 0
3, 37260, Note_on_c, 0, 58, 108
3, 37260, Note_on_c, 0, 46, 90
3, 37282, Note_on_c, 0, 58, 0
3, 37286, Note_on_c, 0, 46, 0
3, 37320, Note_on_c, 0, 43, 86
3, 37320, Note_on_c, 0, 55, 108
3, 37338, Note_on_c, 0, 55, 0
3, 37339, Note_on_c, 0, 43, 0
3, 37380, Note_on_c, 0, 45, 95
3, 37380, Note_on_c, 0, 57, 99
3, 37396, Note_on_c, 0, 57, 0
3, 37400, Note_on_c, 0, 45, 0
3, 37440, Note_on_c, 0, 41, 99
3, 37440, Note_on_c, 0, 53, 90
3, 37458, Control_c, 0, 64, 127
3, 37492, Note_on_c, 0, 53, 0
3, 37499, Note_on_c, 0, 41, 0
3, 37500, Note_on_c, 0, 43, 86
3, 37500, Note_on_c, 0, 55, 103
3, 37532, Control_c, 0, 64, 0
3, 37558, Note_on_c, 0, 55, 0
3, 37560, Note_on_c, 0, 57, 103
3, 37560, Note_on_c, 0, 45, 99
3, 37563, Note_on_c, 0, 43, 0
3, 37597, Control_c, 0, 64, 127
3, 37618, Note_on_c, 0, 57, 0
3, 37620, Note_on_c, 0, 45, 0
3, 37620, Note_on_c, 0, 43, 90
3, 37620, Note_on_c, 0, 55, 99
3, 37668, Control_c, 0, 64, 0
3, 37676, Note_on_c, 0, 55, 0
3, 37680, Note_on_c, 0, 43, 0
3, 37680, Note_on_c, 0, 41, 90
3, 37680, Note_on_c, 0, 53, 103
3, 37701, Control_c, 0, 64, 127
3, 37729, Note_on_c, 0, 53, 0
3, 37735, Note_on_c, 0, 41, 0
3, 37740, Note_on_c, 0, 55, 99
3, 37740, Note_on_c, 0, 43, 86
3, 37786, Control_c, 0, 64, 0
3, 37800, Note_on_c, 0, 43, 0
3, 37800, Note_on_c, 0, 40, 86
3, 37800, Note_on_c, 0, 52, 103
3, 37803, Note_on_c, 0, 55, 0
3, 37825, Control_c, 0, 64, 127
3, 37857, Note_on_c, 0, 52, 0
3, 37860, Note_on_c, 0, 53, 99
3, 37860, Note_on_c, 0, 41, 95
3, 37861, Note_on_c, 0, 40, 0
3, 37900, Control_c, 0, 64, 0
3, 37918, Note_on_c, 0, 53, 0
3, 37919, Note_on_c, 0, 41, 0
3, 37920, Note_on_c, 0, 38, 99
3, 37920, Note_on_c, 0, 50, 112
3, 37937, Control_c, 0, 64, 127
3, 37972, Note_on_c, 0, 50, 0
3, 37976, Control_c, 0, 64, 0
3, 37980, Note_on_c, 0, 52, 103
3, 37980, Note_on_c, 0, 40, 95
3, 37982, Note_on_c, 0, 38, 0
3, 38039, Note_on_c, 0, 52, 0
3, 38040, Note_on_c, 0, 41, 90
3, 38040, Note_on_c, 0, 53, 95
3, 38041, Note_on_c, 0, 40, 0
3, 38045, Control_c, 0, 64, 127
3, 38074, Control_c, 0, 64, 0
3, 38100, Note_on_c, 0, 52, 103
3, 38100, Note_on_c, 0, 40, 103
3, 38101, Note_on_c, 0, 41, 0
3, 38103, Note_on_c, 0, 53, 0
3, 38109, Control_c, 0, 64, 127
3, 38133, Control_c, 0, 64, 0
3, 38156, Note_on_c, 0, 52, 0
3, 38156, Note_on_c, 0, 40, 0
3, 38160, Note_on_c, 0, 38, 103
3, 38160, Note_on_c, 0, 50, 103
3, 38174, Control_c, 0, 64, 127
3, 38204, Control_c, 0, 64, 0
3, 38207, Note_on_c, 0, 50, 0
3, 38213, Note_on_c, 0, 38, 0
3, 38220, Note_on_c, 0, 52, 99
3, 38220, Note_on_c, 0, 40, 95
3, 38277, Note_on_c, 0, 52, 0
3, 38280, Note_on_c, 0, 36, 86
3, 38280, Note_on_c, 0, 48, 99
3, 38282, Note_on_c, 0, 40, 0
3, 38291, Control_c, 0, 64, 127
3, 38338, Note_on_c, 0, 48, 0
3, 38340, Note_on_c, 0, 50, 103
3, 38340, Note_on_c, 0, 38, 99
3, 38345, Note_on_c, 0, 36, 0
3, 38384, Note_on_c, 0, 50, 0
3, 38394, Note_on_c, 0, 38, 0
3, 38399, Control_c, 0, 64, 0
3, 38400, Note_on_c, 0, 35, 95
3, 38400, Note_on_c, 0, 47, 117
3, 38407, Control_c, 0, 64, 127
3, 38451, Note_on_c, 0, 47, 0
3, 38458, Control_c, 0, 64, 0
3, 38460, Note_on_c, 0, 48, 99
3, 38460, Note_on_c, 0, 36, 90
3, 38465, Note_on_c, 0, 35, 0
3, 38519, Note_on_c, 0, 48, 0
3, 38520, Note_on_c, 0, 50, 99
3, 38520, Note_on_c, 0, 38, 99
3, 38523, Note_on_c, 0, 36, 0
3, 38580, Note_on_c, 0, 48, 99
3, 38580, Note_on_c, 0, 36, 95
3, 38586, Note_on_c, 0, 50, 0
3, 38591, Note_on_c, 0, 38, 0
3, 38593, Control_c, 0, 64, 127
3, 38634, Control_c, 0, 64, 0
3, 38635, Note_on_c, 0, 48, 0
3, 38638, Note_on_c, 0, 36, 0
3, 38640, Note_on_c, 0, 35, 95
3, 38640, Note_on_c, 0, 47, 108
3, 38663, Control_c, 0, 64, 127
3, 38692, Note_on_c, 0, 47, 0
3, 38696, Note_on_c, 0, 35, 0
3, 38700, Note_on_c, 0, 36, 86
3, 38700, Note_on_c, 0, 48, 99
3, 38742, Control_c, 0, 64, 0
3, 38757, Note_on_c, 0, 36, 0
3, 38758, Note_on_c, 0, 48, 0
3, 38760, Note_on_c, 0, 33, 95
3, 38760, Note_on_c, 0, 45, 103
3, 38784, Control_c, 0, 64, 127
3, 38820, Note_on_c, 0, 35, 95
3, 38820, Note_on_c, 0, 47, 95
3, 38822, Note_on_c, 0, 45, 0
3, 38823, Note_on_c, 0, 33, 0
3, 38841, Note_on_c, 0, 47, 0
3, 38851, Note_on_c, 0, 35, 0
3, 38880, Note_on_c, 0, 55, 103
3, 38880, Note_on_c, 0, 50, 99
3, 38880, Note_on_c, 0, 31, 103
3, 38880, Note_on_c, 0, 45, 65
3, 38880, Note_on_c, 0, 43, 78
3, 38884, Control_c, 0, 64, 0
3, 38887, Note_on_c, 0, 45, 0
3, 38990, Control_c, 0, 64, 127
3, 39349, Note_on_c, 0, 31, 0
3, 39349, Note_on_c, 0, 43, 0
3, 39350, Note_on_c, 0, 50, 0
3, 39351, Note_on_c, 0, 55, 0
3, 39357, Control_c, 0, 64, 0
3, 39840, Note_on_c, 0, 55, 99
3, 39840, Note_on_c, 0, 48, 95
3, 39840, Note_on_c, 0, 52, 82
3, 39869, Control_c, 0, 64, 127
3, 39896, Note_on_c, 0, 55, 0
3, 39900, Note_on_c, 0, 60, 99
3, 39945, Note_on_c, 0, 60, 0
3, 39960, Note_on_c, 0, 64, 108
3, 40006, Note_on_c, 0, 64, 0
3, 40020, Note_on_c, 0, 67, 95
3, 40074, Note_on_c, 0, 67, 0
3, 40080, Note_on_c, 0, 52, 0
3, 40080, Note_on_c, 0, 65, 103
3, 40083, Note_on_c, 0, 48, 0
3, 40088, Control_c, 0, 64, 0
3, 40126, Control_c, 0, 64, 127
3, 40140, Note_on_c, 0, 65, 0
3, 40140, Note_on_c, 0, 64, 99
3, 40149, Control_c, 0, 64, 0
3, 40200, Note_on_c, 0, 62, 103
3, 40203, Note_on_c, 0, 64, 0
3, 40218, Control_c, 0, 64, 127
3, 40260, Note_on_c, 0, 60, 103
3, 40261, Note_on_c, 0, 62, 0
3, 40295, Note_on_c, 0, 60, 0
3, 40320, Note_on_c, 0, 60, 103
3, 40320, Note_on_c, 0, 50, 95
3, 40324, Control_c, 0, 64, 0
3, 40356, Control_c, 0, 64, 127
3, 40376, Note_on_c, 0, 60, 0
3, 40379, Note_on_c, 0, 50, 0
3, 40380, Note_on_c, 0, 53, 86
3, 40380, Note_on_c, 0, 59, 103
3, 40383, Control_c, 0, 64, 0
3, 40408, Control_c, 0, 64, 127
3, 40429, Note_on_c, 0, 59, 0
3, 40437, Note_on_c, 0, 53, 0
3, 40438, Control_c, 0, 64, 0
3, 40440, Note_on_c, 0, 55, 86
3, 40440, Note_on_c, 0, 59, 108
3, 40469, Control_c, 0, 64, 127
3, 40500, Note_on_c, 0, 53, 82
3, 40501, Note_on_c, 0, 55, 0
3, 40560, Note_on_c, 0, 50, 86
3, 40562, Note_on_c, 0, 53, 0
3, 40565, Control_c, 0, 64, 0
3, 40593, Control_c, 0, 64, 127
3, 40620, Note_on_c, 0, 53, 86
3, 40625, Note_on_c, 0, 50, 0
3, 40680, Note_on_c, 0, 53, 0
3, 40680, Note_on_c, 0, 55, 82
3, 40688, Control_c, 0, 64, 0
3, 40712, Control_c, 0, 64, 127
3, 40735, Note_on_c, 0, 55, 0
3, 40737, Note_on_c, 0, 59, 0
3, 40740, Note_on_c, 0, 53, 78
3, 40763, Note_on_c, 0, 53, 0
3, 40800, Note_on_c, 0, 48, 90
3, 40800, Note_on_c, 0, 52, 99
3, 40800, Note_on_c, 0, 55, 117
3, 40801, Control_c, 0, 64, 0
3, 40842, Control_c, 0, 64, 127
3, 40859, Note_on_c, 0, 55, 0
3, 40860, Note_on_c, 0, 60, 103
3, 40910, Note_on_c, 0, 60, 0
3, 40920, Note_on_c, 0, 64, 99
3, 40925, Control_c, 0, 64, 0
3, 40949, Control_c, 0, 64, 127
3, 40977, Note_on_c, 0, 64, 0
3, 40980, Note_on_c, 0, 67, 108
3, 41036, Control_c, 0, 64, 0
3, 41038, Note_on_c, 0, 67, 0
3, 41040, Note_on_c, 0, 65, 103
3, 41043, Note_on_c, 0, 52, 0
3, 41045, Note_on_c, 0, 48, 0
3, 41061, Control_c, 0, 64, 127
3, 41100, Note_on_c, 0, 64, 86
3, 41100, Control_c, 0, 64, 0
3, 41101, Note_on_c, 0, 65, 0
3, 41160, Note_on_c, 0, 62, 99
3, 41165, Note_on_c, 0, 64, 0
3, 41170, Control_c, 0, 64, 127
3, 41220, Note_on_c, 0, 60, 103
3, 41221, Note_on_c, 0, 62, 0
3, 41260, Note_on_c, 0, 60, 0
3, 41280, Note_on_c, 0, 60, 86
3, 41280, Note_on_c, 0, 50, 99
3, 41283, Control_c, 0, 64, 0
3, 41336, Note_on_c, 0, 60, 0
3, 41337, Note_on_c, 0, 50, 0
3, 41340, Note_on_c, 0, 53, 86
3, 41340, Note_on_c, 0, 59, 103
3, 41366, Control_c, 0, 64, 127
3, 41386, Note_on_c, 0, 59, 0
3, 41396, Note_on_c, 0, 53, 0
3, 41400, Note_on_c, 0, 55, 72
3, 41400, Control_c, 0, 64, 0
3, 41400, Note_on_c, 0, 59, 103
3, 41433, Control_c, 0, 64, 127
3, 41460, Note_on_c, 0, 53, 78
3, 41464, Note_on_c, 0, 55, 0
3, 41520, Note_on_c, 0, 50, 90
3, 41523, Note_on_c, 0, 53, 0
3, 41530, Control_c, 0, 64, 0
3, 41557, Control_c, 0, 64, 127
3, 41580, Note_on_c, 0, 53, 82
3, 41582, Note_on_c, 0, 50, 0
3, 41640, Control_c, 0, 64, 0
3, 41640, Note_on_c, 0, 55, 86
3, 41642, Note_on_c, 0, 53, 0
3, 41665, Control_c, 0, 64, 127
3, 41694, Note_on_c, 0, 59, 0
3, 41697, Note_on_c, 0, 55, 0
3, 41700, Note_on_c, 0, 53, 86
3, 41743, Note_on_c, 0, 53, 0
3, 41760, Note_on_c, 0, 52, 99
3, 41760, Note_on_c, 0, 60, 103
3, 41767, Control_c, 0, 64, 0
3, 41790, Note_on_c, 0, 55, 90
3, 41792, Note_on_c, 0, 60, 0
3, 41798, Control_c, 0, 64, 127
3, 41818, Control_c, 0, 64, 0
3, 41820, Note_on_c, 0, 57, 103
3, 41822, Note_on_c, 0, 55, 0
3, 41845, Control_c, 0, 64, 127
3, 41850, Note_on_c, 0, 59, 95
3, 41851, Note_on_c, 0, 57, 0
3, 41873, Note_on_c, 0, 59, 0
3, 41875, Note_on_c, 0, 52, 0
3, 41877, Control_c, 0, 64, 0
3, 41880, Note_on_c, 0, 60, 103
3, 41909, Note_on_c, 0, 60, 0
3, 41910, Note_on_c, 0, 62, 82
3, 41935, Note_on_c, 0, 62, 0
3, 41940, Note_on_c, 0, 64, 99
3, 41966, Note_on_c, 0, 64, 0
3, 41970, Note_on_c, 0, 65, 99
3, 41994, Note_on_c, 0, 65, 0
3, 42000, Note_on_c, 0, 67, 103
3, 42000, Note_on_c, 0, 52, 86
3, 42000, Note_on_c, 0, 48, 90
3, 42026, Note_on_c, 0, 67, 0
3, 42030, Note_on_c, 0, 65, 90
3, 42031, Control_c, 0, 64, 127
3, 42055, Control_c, 0, 64, 0
3, 42060, Note_on_c, 0, 64, 90
3, 42061, Note_on_c, 0, 52, 0
3, 42063, Note_on_c, 0, 48, 0
3, 42063, Note_on_c, 0, 65, 0
3, 42090, Note_on_c, 0, 62, 95
3, 42097, Note_on_c, 0, 64, 0
3, 42118, Note_on_c, 0, 62, 0
3, 42120, Note_on_c, 0, 60, 99
3, 42145, Note_on_c, 0, 60, 0
3, 42150, Note_on_c, 0, 59, 90
3, 42180, Note_on_c, 0, 57, 86
3, 42182, Note_on_c, 0, 59, 0
3, 42188, Control_c, 0, 64, 127
3, 42210, Note_on_c, 0, 57, 0
3, 42210, Note_on_c, 0, 55, 90
3, 42210, Note_on_c, 0, 53, 99
3, 42225, Note_on_c, 0, 53, 0
3, 42225, Note_on_c, 0, 55, 0
3, 42228, Control_c, 0, 64, 0
3, 42240, Note_on_c, 0, 48, 108
3, 42240, Note_on_c, 0, 53, 90
3, 42270, Note_on_c, 0, 57, 108
3, 42295, Note_on_c, 0, 57, 0
3, 42300, Note_on_c, 0, 59, 103
3, 42324, Control_c, 0, 64, 127
3, 42328, Note_on_c, 0, 59, 0
3, 42330, Note_on_c, 0, 60, 90
3, 42354, Note_on_c, 0, 60, 0
3, 42360, Note_on_c, 0, 62, 82
3, 42368, Control_c, 0, 64, 0
3, 42375, Note_on_c, 0, 53, 0
3, 42381, Note_on_c, 0, 62, 0
3, 42390, Note_on_c, 0, 64, 99
3, 42393, Note_on_c, 0, 48, 0
3, 42416, Note_on_c, 0, 64, 0
3, 42420, Note_on_c, 0, 65, 99
3, 42443, Note_on_c, 0, 65, 0
3, 42450, Note_on_c, 0, 67, 99
3, 42476, Note_on_c, 0, 67, 0
3, 42480, Note_on_c, 0, 69, 103
3, 42511, Control_c, 0, 64, 127
3, 42572, Note_on_c, 0, 69, 0
3, 42608, Control_c, 0, 64, 0
3, 42720, Note_on_c, 0, 52, 103
3, 42720, Note_on_c, 0, 52, 103
3, 42720, Note_on_c, 0, 55, 99
3, 42733, Control_c, 0, 64, 127
3, 42756, Note_on_c, 0, 55, 0
3, 42772, Note_on_c, 0, 52, 0
3, 42780, Note_on_c, 0, 55, 82
3, 42787, Note_on_c, 0, 52, 0
3, 42829, Note_on_c, 0, 55, 0
3, 42840, Note_on_c, 0, 60, 86
3, 42900, Note_on_c, 0, 55, 95
3, 42903, Note_on_c, 0, 60, 0
3, 42960, Note_on_c, 0, 53, 82
3, 42960, Note_on_c, 0, 43, 86
3, 42962, Note_on_c, 0, 55, 0
3, 42971, Control_c, 0, 64, 0
3, 43011, Control_c, 0, 64, 127
3, 43020, Note_on_c, 0, 55, 90
3, 43022, Note_on_c, 0, 53, 0
3, 43079, Note_on_c, 0, 55, 0
3, 43080, Note_on_c, 0, 59, 82
3, 43081, Control_c, 0, 64, 0
3, 43103, Control_c, 0, 64, 127
3, 43129, Note_on_c, 0, 43, 0
3, 43137, Note_on_c, 0, 59, 0
3, 43140, Note_on_c, 0, 55, 90
3, 43178, Note_on_c, 0, 55, 0
3, 43200, Note_on_c, 0, 52, 95
3, 43200, Note_on_c, 0, 48, 78
3, 43200, Note_on_c, 0, 36, 74
3, 43201, Control_c, 0, 64, 0
3, 43233, Control_c, 0, 64, 127
3, 43258, Note_on_c, 0, 52, 0
3, 43260, Note_on_c, 0, 60, 86
3, 43313, Note_on_c, 0, 60, 0
3, 43320, Note_on_c, 0, 55, 74
3, 43376, Note_on_c, 0, 55, 0
3, 43380, Note_on_c, 0, 60, 82
3, 43440, Note_on_c, 0, 60, 0
3, 43440, Note_on_c, 0, 52, 78
3, 43441, Note_on_c, 0, 48, 0
3, 43442, Note_on_c, 0, 36, 0
3, 43454, Control_c, 0, 64, 0
3, 43494, Control_c, 0, 64, 127
3, 43500, Note_on_c, 0, 60, 86
3, 43503, Note_on_c, 0, 52, 0
3, 43552, Note_on_c, 0, 60, 0
3, 43560, Note_on_c, 0, 55, 82
3, 43573, Control_c, 0, 64, 0
3, 43596, Control_c, 0, 64, 127
3, 43619, Note_on_c, 0, 55, 0
3, 43620, Note_on_c, 0, 60, 86
3, 43677, Note_on_c, 0, 60, 0
3, 43679, Control_c, 0, 64, 0
3, 43680, Note_on_c, 0, 53, 82
3, 43680, Note_on_c, 0, 41, 74
3, 43708, Control_c, 0, 64, 127
3, 43740, Note_on_c, 0, 60, 90
3, 43745, Note_on_c, 0, 53, 0
3, 43794, Note_on_c, 0, 60, 0
3, 43800, Note_on_c, 0, 57, 67
3, 43860, Note_on_c, 0, 60, 82
3, 43861, Note_on_c, 0, 57, 0
3, 43920, Note_on_c, 0, 53, 74
3, 43921, Note_on_c, 0, 60, 0
3, 43926, Control_c, 0, 64, 0
3, 43929, Note_on_c, 0, 41, 0
3, 43956, Control_c, 0, 64, 127
3, 43980, Note_on_c, 0, 60, 72
3, 43981, Note_on_c, 0, 53, 0
3, 43992, Control_c, 0, 64, 0
3, 44028, Control_c, 0, 64, 127
3, 44038, Note_on_c, 0, 60, 0
3, 44040, Note_on_c, 0, 57, 82
3, 44099, Note_on_c, 0, 57, 0
3, 44100, Note_on_c, 0, 60, 82
3, 44160, Note_on_c, 0, 52, 90
3, 44160, Note_on_c, 0, 48, 72
3, 44160, Note_on_c, 0, 36, 72
3, 44161, Control_c, 0, 64, 0
3, 44162, Note_on_c, 0, 60, 0
3, 44193, Control_c, 0, 64, 127
3, 44219, Note_on_c, 0, 52, 0
3, 44220, Note_on_c, 0, 60, 70
3, 44266, Note_on_c, 0, 60, 0
3, 44280, Note_on_c, 0, 55, 78
3, 44283, Note_on_c, 0, 48, 0
3, 44289, Note_on_c, 0, 36, 0
3, 44339, Note_on_c, 0, 55, 0
3, 44340, Note_on_c, 0, 60, 78
3, 44397, Note_on_c, 0, 60, 0
3, 44400, Note_on_c, 0, 53, 86
3, 44400, Note_on_c, 0, 43, 72
3, 44400, Note_on_c, 0, 31, 86
3, 44405, Control_c, 0, 64, 0
3, 44444, Control_c, 0, 64, 127
3, 44457, Note_on_c, 0, 53, 0
3, 44460, Note_on_c, 0, 59, 82
3, 44517, Note_on_c, 0, 59, 0
3, 44520, Note_on_c, 0, 55, 95
3, 44523, Control_c, 0, 64, 0
3, 44545, Control_c, 0, 64, 127
3, 44564, Note_on_c, 0, 31, 0
3, 44579, Note_on_c, 0, 55, 0
3, 44579, Note_on_c, 0, 43, 0
3, 44580, Note_on_c, 0, 59, 78
3, 44640, Note_on_c, 0, 59, 0
3, 44640, Note_on_c, 0, 52, 90
3, 44640, Note_on_c, 0, 48, 69
3, 44640, Note_on_c, 0, 36, 74
3, 44642, Control_c, 0, 64, 0
3, 44671, Control_c, 0, 64, 127
3, 44697, Note_on_c, 0, 52, 0
3, 44700, Note_on_c, 0, 60, 86
3, 44755, Note_on_c, 0, 60, 0
3, 44760, Note_on_c, 0, 55, 86
3, 44819, Note_on_c, 0, 55, 0
3, 44820, Note_on_c, 0, 60, 86
3, 44878, Note_on_c, 0, 36, 0
3, 44878, Note_on_c, 0, 48, 0
3, 44879, Note_on_c, 0, 60, 0
3, 44880, Note_on_c, 0, 52, 90
3, 44889, Control_c, 0, 64, 0
3, 44919, Control_c, 0, 64, 127
3, 44939, Note_on_c, 0, 52, 0
3, 44940, Note_on_c, 0, 60, 86
3, 44994, Note_on_c, 0, 60, 0
3, 45000, Note_on_c, 0, 55, 82
3, 45057, Note_on_c, 0, 55, 0
3, 45060, Note_on_c, 0, 60, 74
3, 45114, Note_on_c, 0, 60, 0
3, 45120, Note_on_c, 0, 52, 72
3, 45120, Note_on_c, 0, 48, 69
3, 45120, Note_on_c, 0, 36, 74
3, 45124, Control_c, 0, 64, 0
3, 45157, Control_c, 0, 64, 127
3, 45180, Note_on_c, 0, 60, 74
3, 45185, Note_on_c, 0, 52, 0
3, 45231, Note_on_c, 0, 60, 0
3, 45240, Note_on_c, 0, 55, 69
3, 45298, Note_on_c, 0, 55, 0
3, 45300, Note_on_c, 0, 60, 74
3, 45360, Note_on_c, 0, 52, 74
3, 45361, Note_on_c, 0, 60, 0
3, 45364, Note_on_c, 0, 36, 0
3, 45366, Note_on_c, 0, 48, 0
3, 45372, Control_c, 0, 64, 0
3, 45398, Control_c, 0, 64, 127
3, 45420, Note_on_c, 0, 52, 0
3, 45420, Note_on_c, 0, 60, 74
3, 45466, Note_on_c, 0, 60, 0
3, 45480, Note_on_c, 0, 55, 70
3, 45537, Note_on_c, 0, 55, 0
3, 45540, Note_on_c, 0, 60, 74
3, 45597, Note_on_c, 0, 60, 0
3, 45600, Note_on_c, 0, 53, 70
3, 45600, Note_on_c, 0, 41, 78
3, 45601, Control_c, 0, 64, 0
3, 45633, Control_c, 0, 64, 127
3, 45659, Note_on_c, 0, 53, 0
3, 45660, Note_on_c, 0, 60, 66
3, 45717, Note_on_c, 0, 60, 0
3, 45720, Note_on_c, 0, 57, 69
3, 45775, Note_on_c, 0, 57, 0
3, 45780, Note_on_c, 0, 60, 62
3, 45840, Note_on_c, 0, 60, 0
3, 45840, Note_on_c, 0, 53, 70
3, 45844, Note_on_c, 0, 41, 0
3, 45849, Control_c, 0, 64, 0
3, 45880, Control_c, 0, 64, 127
3, 45900, Note_on_c, 0, 60, 69
3, 45905, Note_on_c, 0, 53, 0
3, 45951, Note_on_c, 0, 60, 0
3, 45960, Note_on_c, 0, 57, 72
3, 46020, Note_on_c, 0, 60, 82
3, 46021, Note_on_c, 0, 57, 0
3, 46079, Note_on_c, 0, 60, 0
3, 46080, Note_on_c, 0, 52, 78
3, 46080, Note_on_c, 0, 48, 67
3, 46080, Note_on_c, 0, 36, 67
3, 46087, Control_c, 0, 64, 0
3, 46119, Control_c, 0, 64, 127
3, 46134, Note_on_c, 0, 52, 0
3, 46140, Note_on_c, 0, 60, 82
3, 46180, Note_on_c, 0, 48, 0
3, 46182, Note_on_c, 0, 36, 0
3, 46197, Note_on_c, 0, 60, 0
3, 46200, Note_on_c, 0, 55, 74
3, 46255, Note_on_c, 0, 55, 0
3, 46260, Note_on_c, 0, 60, 70
3, 46311, Note_on_c, 0, 60, 0
3, 46320, Note_on_c, 0, 53, 74
3, 46320, Note_on_c, 0, 31, 72
3, 46320, Note_on_c, 0, 43, 66
3, 46322, Control_c, 0, 64, 0
3, 46360, Control_c, 0, 64, 127
3, 46378, Note_on_c, 0, 53, 0
3, 46380, Note_on_c, 0, 59, 82
3, 46440, Note_on_c, 0, 59, 0
3, 46440, Note_on_c, 0, 55, 82
3, 46457, Note_on_c, 0, 31, 0
3, 46480, Note_on_c, 0, 43, 0
3, 46498, Note_on_c, 0, 55, 0
3, 46500, Note_on_c, 0, 59, 69
3, 46558, Note_on_c, 0, 59, 0
3, 46559, Control_c, 0, 64, 0
3, 46560, Note_on_c, 0, 52, 74
3, 46560, Note_on_c, 0, 48, 66
3, 46560, Note_on_c, 0, 36, 70
3, 46592, Control_c, 0, 64, 127
3, 46618, Note_on_c, 0, 52, 0
3, 46620, Note_on_c, 0, 60, 86
3, 46677, Note_on_c, 0, 60, 0
3, 46680, Note_on_c, 0, 55, 82
3, 46733, Note_on_c, 0, 55, 0
3, 46740, Note_on_c, 0, 36, 0
3, 46740, Note_on_c, 0, 60, 63
3, 46745, Note_on_c, 0, 48, 0
3, 46800, Note_on_c, 0, 52, 74
3, 46800, Note_on_c, 0, 36, 70
3, 46802, Note_on_c, 0, 60, 0
3, 46812, Control_c, 0, 64, 0
3, 46842, Control_c, 0, 64, 127
3, 46859, Note_on_c, 0, 52, 0
3, 46860, Note_on_c, 0, 60, 74
3, 46910, Note_on_c, 0, 60, 0
3, 46920, Note_on_c, 0, 55, 70
3, 46951, Note_on_c, 0, 36, 0
3, 46973, Note_on_c, 0, 55, 0
3, 46980, Note_on_c, 0, 60, 72
3, 47030, Note_on_c, 0, 60, 0
3, 47040, Note_on_c, 0, 52, 78
3, 47040, Note_on_c, 0, 36, 78
3, 47040, Note_on_c, 0, 48, 65
3, 47046, Note_on_c, 0, 48, 0
3, 47048, Control_c, 0, 64, 0
3, 47079, Control_c, 0, 64, 127
3, 47100, Note_on_c, 0, 55, 86
3, 47106, Note_on_c, 0, 52, 0
3, 47120, Note_on_c, 0, 36, 0
3, 47158, Note_on_c, 0, 55, 0
3, 47160, Note_on_c, 0, 60, 99
3, 47169, Control_c, 0, 64, 0
3, 47176, Note_on_c, 0, 60, 0
3, 47220, Note_on_c, 0, 60, 86
3, 47236, Note_on_c, 0, 60, 0
3, 47280, Note_on_c, 0, 53, 70
3, 47280, Note_on_c, 0, 31, 70
3, 47280, Note_on_c, 0, 43, 59
3, 47299, Control_c, 0, 64, 127
3, 47340, Note_on_c, 0, 53, 0
3, 47340, Note_on_c, 0, 55, 95
3, 47400, Note_on_c, 0, 59, 103
3, 47401, Note_on_c, 0, 55, 0
3, 47407, Control_c, 0, 64, 0
3, 47411, Note_on_c, 0, 31, 0
3, 47411, Note_on_c, 0, 43, 0
3, 47416, Note_on_c, 0, 59, 0
3, 47460, Note_on_c, 0, 59, 95
3, 47478, Note_on_c, 0, 59, 0
3, 47520, Note_on_c, 0, 60, 82
3, 47520, Note_on_c, 0, 48, 66
3, 47520, Note_on_c, 0, 52, 86
3, 47520, Note_on_c, 0, 36, 63
3, 47542, Control_c, 0, 64, 127
3, 47638, Note_on_c, 0, 52, 0
3, 47640, Note_on_c, 0, 60, 0
3, 47640, Note_on_c, 0, 48, 0
3, 47640, Control_c, 0, 64, 0
3, 47641, Note_on_c, 0, 36, 0
3, 48000, Note_on_c, 0, 36, 99
3, 48000, Note_on_c, 0, 52, 103
3, 48000, Note_on_c, 0, 48, 99
3, 48027, Control_c, 0, 64, 127
3, 48060, Note_on_c, 0, 55, 90
3, 48064, Note_on_c, 0, 52, 0
3, 48120, Note_on_c, 0, 60, 103
3, 48123, Note_on_c, 0, 55, 0
3, 48123, Control_c, 0, 64, 0
3, 48130, Note_on_c, 0, 48, 0
3, 48132, Note_on_c, 0, 36, 0
3, 48134, Note_on_c, 0, 60, 0
3, 48180, Note_on_c, 0, 60, 82
3, 48194, Note_on_c, 0, 60, 0
3, 48240, Note_on_c, 0, 53, 82
3, 48240, Note_on_c, 0, 43, 70
3, 48240, Note_on_c, 0, 31, 78
3, 48264, Control_c, 0, 64, 127
3, 48300, Note_on_c, 0, 55, 82
3, 48302, Note_on_c, 0, 53, 0
3, 48359, Note_on_c, 0, 55, 0
3, 48360, Note_on_c, 0, 59, 103
3, 48366, Note_on_c, 0, 43, 0
3, 48367, Note_on_c, 0, 31, 0
3, 48369, Control_c, 0, 64, 0
3, 48373, Note_on_c, 0, 59, 0
3, 48420, Note_on_c, 0, 59, 95
3, 48435, Note_on_c, 0, 59, 0
3, 48480, Note_on_c, 0, 60, 99
3, 48480, Note_on_c, 0, 52, 95
3, 48480, Note_on_c, 0, 36, 82
3, 48480, Note_on_c, 0, 48, 70
3, 48500, Control_c, 0, 64, 127
3, 48584, Note_on_c, 0, 52, 0
3, 48585, Note_on_c, 0, 48, 0
3, 48587, Note_on_c, 0, 36, 0
3, 48588, Note_on_c, 0, 60, 0
3, 48592, Control_c, 0, 64, 0
3, 48960, Note_on_c, 0, 41, 95
3, 48960, Note_on_c, 0, 60, 99
3, 48960, Note_on_c, 0, 53, 103
3, 48974, Control_c, 0, 64, 127
3, 49062, Note_on_c, 0, 60, 0
3, 49065, Note_on_c, 0, 53, 0
3, 49067, Note_on_c, 0, 41, 0
3, 49077, Control_c, 0, 64, 0
3, 49200, Note_on_c, 0, 60, 103
3, 49200, Note_on_c, 0, 52, 99
3, 49200, Note_on_c, 0, 36, 103
3, 49215, Control_c, 0, 64, 127
3, 49296, Note_on_c, 0, 36, 0
3, 49298, Note_on_c, 0, 52, 0
3, 49302, Note_on_c, 0, 60, 0
3, 49316, Control_c, 0, 64, 0
3, 49440, Note_on_c, 0, 60, 99
3, 49440, Note_on_c, 0, 48, 70
3, 49440, Note_on_c, 0, 60, 90
3, 49440, Note_on_c, 0, 48, 90
3, 49454, Control_c, 0, 64, 127
3, 49494, Note_on_c, 0, 60, 0
3, 49500, Note_on_c, 0, 62, 99
3, 49512, Note_on_c, 0, 60, 0
3, 49556, Note_on_c, 0, 62, 0
3, 49560, Note_on_c, 0, 63, 90
3, 49565, Note_on_c, 0, 48, 0
3, 49575, Control_c, 0, 64, 0
3, 49616, Note_on_c, 0, 63, 0
3, 49620, Note_on_c, 0, 64, 99
3, 49680, Note_on_c, 0, 62, 95
3, 49683, Note_on_c, 0, 64, 0
3, 49712, Control_c, 0, 64, 127
3, 49740, Control_c, 0, 64, 0
3, 49740, Note_on_c, 0, 60, 86
3, 49747, Note_on_c, 0, 62, 0
3, 49800, Note_on_c, 0, 59, 90
3, 49802, Note_on_c, 0, 60, 0
3, 49802, Control_c, 0, 64, 127
3, 49851, Note_on_c, 0, 59, 0
3, 49860, Note_on_c, 0, 60, 90
3, 49872, Note_on_c, 0, 60, 0
3, 49890, Note_on_c, 0, 48, 0
3, 49918, Control_c, 0, 64, 0
3, 49920, Note_on_c, 0, 53, 99
3, 49920, Note_on_c, 0, 55, 86
3, 49944, Control_c, 0, 64, 127
3, 49946, Note_on_c, 0, 55, 0
3, 49949, Note_on_c, 0, 53, 0
3, 49980, Note_on_c, 0, 55, 99
3, 50003, Note_on_c, 0, 55, 0
3, 50040, Note_on_c, 0, 55, 74
3, 50040, Note_on_c, 0, 59, 103
3, 50056, Note_on_c, 0, 55, 0
3, 50060, Note_on_c, 0, 59, 0
3, 50100, Note_on_c, 0, 55, 82
3, 50124, Note_on_c, 0, 55, 0
3, 50157, Control_c, 0, 64, 0
3, 50160, Note_on_c, 0, 53, 90
3, 50160, Note_on_c, 0, 43, 82
3, 50183, Control_c, 0, 64, 127
3, 50196, Note_on_c, 0, 53, 0
3, 50197, Note_on_c, 0, 43, 0
3, 50220, Note_on_c, 0, 55, 86
3, 50220, Note_on_c, 0, 43, 74
3, 50235, Note_on_c, 0, 43, 0
3, 50242, Note_on_c, 0, 55, 0
3, 50280, Note_on_c, 0, 59, 90
3, 50280, Note_on_c, 0, 43, 82
3, 50297, Note_on_c, 0, 43, 0
3, 50302, Note_on_c, 0, 59, 0
3, 50340, Note_on_c, 0, 43, 86
3, 50340, Note_on_c, 0, 55, 95
3, 50357, Note_on_c, 0, 55, 0
3, 50358, Note_on_c, 0, 43, 0
3, 50400, Note_on_c, 0, 52, 82
3, 50400, Note_on_c, 0, 48, 90
3, 50407, Control_c, 0, 64, 0
3, 50441, Control_c, 0, 64, 127
3, 50460, Note_on_c, 0, 55, 86
3, 50464, Note_on_c, 0, 52, 0
3, 50520, Note_on_c, 0, 55, 0
3, 50520, Note_on_c, 0, 60, 82
3, 50578, Note_on_c, 0, 60, 0
3, 50580, Note_on_c, 0, 55, 86
3, 50639, Note_on_c, 0, 55, 0
3, 50639, Note_on_c, 0, 48, 0
3, 50640, Note_on_c, 0, 53, 82
3, 50640, Note_on_c, 0, 43, 74
3, 50653, Control_c, 0, 64, 0
3, 50688, Control_c, 0, 64, 127
3, 50700, Note_on_c, 0, 55, 90
3, 50702, Note_on_c, 0, 53, 0
3, 50760, Note_on_c, 0, 55, 0
3, 50760, Note_on_c, 0, 59, 74
3, 50794, Note_on_c, 0, 43, 0
3, 50820, Note_on_c, 0, 55, 78
3, 50824, Note_on_c, 0, 59, 0
3, 50880, Note_on_c, 0, 55, 0
3, 50880, Note_on_c, 0, 52, 86
3, 50880, Note_on_c, 0, 36, 86
3, 50893, Control_c, 0, 64, 0
3, 50926, Control_c, 0, 64, 127
3, 50940, Note_on_c, 0, 52, 0
3, 50940, Note_on_c, 0, 55, 74
3, 50999, Note_on_c, 0, 55, 0
3, 51000, Note_on_c, 0, 60, 82
3, 51060, Note_on_c, 0, 55, 86
3, 51063, Note_on_c, 0, 60, 0
3, 51116, Note_on_c, 0, 36, 0
3, 51118, Note_on_c, 0, 55, 0
3, 51120, Note_on_c, 0, 53, 86
3, 51120, Note_on_c, 0, 43, 78
3, 51134, Control_c, 0, 64, 0
3, 51169, Control_c, 0, 64, 127
3, 51180, Note_on_c, 0, 55, 90
3, 51182, Note_on_c, 0, 53, 0
3, 51238, Note_on_c, 0, 55, 0
3, 51240, Note_on_c, 0, 59, 90
3, 51287, Note_on_c, 0, 43, 0
3, 51296, Note_on_c, 0, 59, 0
3, 51300, Note_on_c, 0, 55, 90
3, 51352, Control_c, 0, 64, 0
3, 51360, Note_on_c, 0, 55, 0
3, 51360, Note_on_c, 0, 52, 95
3, 51360, Note_on_c, 0, 36, 82
3, 51360, Note_on_c, 0, 48, 82
3, 51378, Control_c, 0, 64, 127
3, 51390, Note_on_c, 0, 48, 0
3, 51394, Note_on_c, 0, 36, 0
3, 51419, Note_on_c, 0, 52, 0
3, 51420, Note_on_c, 0, 60, 103
3, 51459, Note_on_c, 0, 60, 0
3, 51480, Note_on_c, 0, 53, 99
3, 51480, Note_on_c, 0, 31, 82
3, 51480, Note_on_c, 0, 43, 72
3, 51484, Control_c, 0, 64, 0
3, 51511, Control_c, 0, 64, 127
3, 51532, Note_on_c, 0, 53, 0
3, 51539, Note_on_c, 0, 31, 0
3, 51540, Note_on_c, 0, 59, 86
3, 51543, Note_on_c, 0, 43, 0
3, 51598, Note_on_c, 0, 59, 0
3, 51598, Control_c, 0, 64, 0
3, 51600, Note_on_c, 0, 52, 90
3, 51600, Note_on_c, 0, 36, 74
3, 51600, Note_on_c, 0, 48, 65
3, 51626, Control_c, 0, 64, 127
3, 51646, Note_on_c, 0, 48, 0
3, 51652, Note_on_c, 0, 36, 0
3, 51657, Note_on_c, 0, 52, 0
3, 51660, Note_on_c, 0, 60, 95
3, 51708, Note_on_c, 0, 60, 0
3, 51719, Control_c, 0, 64, 0
3, 51720, Note_on_c, 0, 53, 99
3, 51720, Note_on_c, 0, 31, 86
3, 51720, Note_on_c, 0, 43, 70
3, 51742, Control_c, 0, 64, 127
3, 51761, Note_on_c, 0, 31, 0
3, 51771, Note_on_c, 0, 43, 0
3, 51772, Note_on_c, 0, 53, 0
3, 51780, Note_on_c, 0, 59, 82
3, 51832, Control_c, 0, 64, 0
3, 51839, Note_on_c, 0, 59, 0
3, 51840, Note_on_c, 0, 52, 90
3, 51840, Note_on_c, 0, 48, 74
3, 51840, Note_on_c, 0, 36, 86
3, 51859, Control_c, 0, 64, 127
3, 51884, Note_on_c, 0, 48, 0
3, 51888, Note_on_c, 0, 36, 0
3, 51899, Note_on_c, 0, 52, 0
3, 51900, Note_on_c, 0, 60, 103
3, 51951, Note_on_c, 0, 60, 0
3, 51960, Note_on_c, 0, 53, 99
3, 51960, Note_on_c, 0, 31, 90
3, 51960, Note_on_c, 0, 43, 78
3, 51962, Control_c, 0, 64, 0
3, 51989, Control_c, 0, 64, 127
3, 52004, Note_on_c, 0, 31, 0
3, 52010, Note_on_c, 0, 53, 0
3, 52014, Note_on_c, 0, 43, 0
3, 52020, Note_on_c, 0, 59, 90
3, 52077, Control_c, 0, 64, 0
3, 52080, Note_on_c, 0, 52, 82
3, 52080, Note_on_c, 0, 48, 72
3, 52080, Note_on_c, 0, 36, 86
3, 52081, Note_on_c, 0, 59, 0
3, 52103, Control_c, 0, 64, 127
3, 52124, Note_on_c, 0, 48, 0
3, 52126, Note_on_c, 0, 36, 0
3, 52136, Note_on_c, 0, 52, 0
3, 52140, Note_on_c, 0, 60, 95
3, 52183, Note_on_c, 0, 60, 0
3, 52196, Control_c, 0, 64, 0
3, 52200, Note_on_c, 0, 53, 95
3, 52200, Note_on_c, 0, 31, 103
3, 52200, Note_on_c, 0, 43, 86
3, 52220, Control_c, 0, 64, 127
3, 52248, Note_on_c, 0, 31, 0
3, 52256, Note_on_c, 0, 53, 0
3, 52259, Note_on_c, 0, 43, 0
3, 52260, Note_on_c, 0, 59, 99
3, 52293, Note_on_c, 0, 59, 0
3, 52317, Control_c, 0, 64, 0
3, 52320, Note_on_c, 0, 55, 99
3, 52320, Note_on_c, 0, 60, 99
3, 52320, Note_on_c, 0, 52, 99
3, 52320, Note_on_c, 0, 36, 95
3, 52320, Note_on_c, 0, 48, 86
3, 52342, Control_c, 0, 64, 127
3, 52377, Note_on_c, 0, 48, 0
3, 52378, Note_on_c, 0, 52, 0
3, 52379, Note_on_c, 0, 36, 0
3, 52380, Note_on_c, 0, 60, 0
3, 52383, Note_on_c, 0, 55, 0
3, 52435, Control_c, 0, 64, 0
3, 52440, Note_on_c, 0, 36, 99
3, 52440, Note_on_c, 0, 55, 99
3, 52440, Note_on_c, 0, 48, 86
3, 52440, Note_on_c, 0, 52, 103
3, 52440, Note_on_c, 0, 60, 99
3, 52459, Control_c, 0, 64, 127
3, 52496, Note_on_c, 0, 48, 0
3, 52496, Note_on_c, 0, 36, 0
3, 52497, Note_on_c, 0, 60, 0
3, 52497, Note_on_c, 0, 52, 0
3, 52502, Note_on_c, 0, 55, 0
3, 52554, Control_c, 0, 64, 0
3, 52560, Note_on_c, 0, 52, 103
3, 52560, Note_on_c, 0, 55, 103
3, 52560, Note_on_c, 0, 60, 103
3, 52560, Note_on_c, 0, 36, 99
3, 52560, Note_on_c, 0, 48, 90
3, 52576, Control_c, 0, 64, 127
3, 52591, Note_on_c, 0, 48, 0
3, 52594, Note_on_c, 0, 52, 0
3, 52594, Note_on_c, 0, 36, 0
3, 52596, Note_on_c, 0, 60, 0
3, 52597, Note_on_c, 0, 55, 0
3, 52696, Control_c, 0, 64, 0
3, 52800, Control_c, 0, 7, 97
3, 54720, Note_on_c, 0, 55, 90
3, 54720, Note_on_c, 0, 48, 82
3, 54720, Note_on_c, 0, 36, 72
3, 54727, Control_c, 0, 64, 127
3, 54777, Note_on_c, 0, 55, 0
3, 54780, Note_on_c, 0, 64, 86
3, 54831, Note_on_c, 0, 64, 0
3, 54840, Note_on_c, 0, 60, 86
3, 54894, Note_on_c, 0, 60, 0
3, 54900, Note_on_c, 0, 64, 74
3, 54960, Note_on_c, 0, 55, 78
3, 54961, Note_on_c, 0, 64, 0
3, 55012, Note_on_c, 0, 55, 0
3, 55014, Note_on_c, 0, 36, 0
3, 55018, Note_on_c, 0, 48, 0
3, 55020, Note_on_c, 0, 64, 95
3, 55039, Note_on_c, 0, 64, 0
3, 55080, Note_on_c, 0, 55, 95
3, 55080, Note_on_c, 0, 47, 72
3, 55080, Note_on_c, 0, 35, 72
3, 55087, Control_c, 0, 64, 0
3, 55120, Control_c, 0, 64, 127
3, 55135, Note_on_c, 0, 55, 0
3, 55140, Note_on_c, 0, 62, 86
3, 55188, Note_on_c, 0, 62, 0
3, 55200, Note_on_c, 0, 59, 86
3, 55260, Note_on_c, 0, 62, 90
3, 55261, Note_on_c, 0, 59, 0
3, 55310, Note_on_c, 0, 62, 0
3, 55320, Note_on_c, 0, 55, 86
3, 55336, Note_on_c, 0, 35, 0
3, 55367, Note_on_c, 0, 47, 0
3, 55371, Note_on_c, 0, 55, 0
3, 55380, Note_on_c, 0, 62, 86
3, 55424, Note_on_c, 0, 62, 0
3, 55440, Note_on_c, 0, 45, 82
3, 55440, Note_on_c, 0, 54, 82
3, 55448, Control_c, 0, 64, 0
3, 55474, Control_c, 0, 64, 127
3, 55493, Note_on_c, 0, 54, 0
3, 55500, Note_on_c, 0, 60, 95
3, 55552, Note_on_c, 0, 60, 0
3, 55560, Note_on_c, 0, 57, 95
3, 55616, Note_on_c, 0, 57, 0
3, 55620, Note_on_c, 0, 60, 82
3, 55670, Note_on_c, 0, 60, 0
3, 55680, Note_on_c, 0, 54, 74
3, 55728, Note_on_c, 0, 45, 0
3, 55739, Note_on_c, 0, 54, 0
3, 55740, Note_on_c, 0, 60, 95
3, 55757, Note_on_c, 0, 60, 0
3, 55795, Control_c, 0, 64, 0
3, 55800, Note_on_c, 0, 60, 99
3, 55800, Note_on_c, 0, 42, 78
3, 55800, Note_on_c, 0, 50, 82
3, 55800, Note_on_c, 0, 52, 70
3, 55803, Note_on_c, 0, 52, 0
3, 55831, Control_c, 0, 64, 127
3, 56050, Note_on_c, 0, 50, 0
3, 56057, Note_on_c, 0, 42, 0
3, 56057, Note_on_c, 0, 60, 0
3, 56158, Control_c, 0, 64, 0
3, 56160, Note_on_c, 0, 43, 82
3, 56160, Note_on_c, 0, 59, 99
3, 56188, Control_c, 0, 64, 127
3, 56220, Note_on_c, 0, 59, 0
3, 56220, Note_on_c, 0, 67, 99
3, 56240, Note_on_c, 0, 43, 0
3, 56253, Note_on_c, 0, 67, 0
3, 56280, Note_on_c, 0, 60, 95
3, 56280, Note_on_c, 0, 45, 90
3, 56282, Control_c, 0, 64, 0
3, 56305, Control_c, 0, 64, 127
3, 56340, Note_on_c, 0, 67, 99
3, 56341, Note_on_c, 0, 60, 0
3, 56362, Note_on_c, 0, 67, 0
3, 56364, Note_on_c, 0, 45, 0
3, 56400, Note_on_c, 0, 47, 95
3, 56400, Note_on_c, 0, 62, 108
3, 56406, Control_c, 0, 64, 0
3, 56429, Control_c, 0, 64, 127
3, 56460, Note_on_c, 0, 67, 95
3, 56462, Note_on_c, 0, 62, 0
3, 56490, Note_on_c, 0, 67, 0
3, 56491, Note_on_c, 0, 47, 0
3, 56520, Note_on_c, 0, 48, 78
3, 56520, Note_on_c, 0, 64, 99
3, 56536, Control_c, 0, 64, 0
3, 56564, Control_c, 0, 64, 127
3, 56573, Note_on_c, 0, 64, 0
3, 56580, Note_on_c, 0, 60, 90
3, 56611, Note_on_c, 0, 48, 0
3, 56637, Control_c, 0, 64, 0
3, 56639, Note_on_c, 0, 60, 0
3, 56640, Note_on_c, 0, 59, 103
3, 56640, Note_on_c, 0, 50, 90
3, 56659, Control_c, 0, 64, 127
3, 56687, Note_on_c, 0, 59, 0
3, 56695, Note_on_c, 0, 50, 0
3, 56760, Note_on_c, 0, 57, 99
3, 56760, Note_on_c, 0, 60, 86
3, 56760, Note_on_c, 0, 38, 90
3, 56762, Control_c, 0, 64, 0
3, 56785, Control_c, 0, 64, 127
3, 56801, Note_on_c, 0, 38, 0
3, 56804, Note_on_c, 0, 57, 0
3, 56806, Note_on_c, 0, 60, 0
3, 56877, Control_c, 0, 64, 0
3, 56880, Note_on_c, 0, 43, 72
3, 56880, Note_on_c, 0, 55, 86
3, 56880, Note_on_c, 0, 59, 90
3, 56903, Control_c, 0, 64, 127
3, 57000, Note_on_c, 0, 43, 0
3, 57000, Note_on_c, 0, 38, 86
3, 57006, Control_c, 0, 64, 0
3, 57027, Control_c, 0, 64, 127
3, 57116, Control_c, 0, 64, 0
3, 57118, Note_on_c, 0, 38, 0
3, 57120, Note_on_c, 0, 31, 86
3, 57138, Control_c, 0, 64, 127
3, 57157, Note_on_c, 0, 31, 0
3, 57174, Note_on_c, 0, 59, 0
3, 57175, Note_on_c, 0, 55, 0
3, 57228, Control_c, 0, 64, 0
3, 57240, Note_on_c, 0, 43, 99
3, 57255, Control_c, 0, 64, 127
3, 57295, Note_on_c, 0, 43, 0
3, 57300, Note_on_c, 0, 47, 90
3, 57308, Control_c, 0, 64, 0
3, 57330, Note_on_c, 0, 50, 99
3, 57340, Note_on_c, 0, 47, 0
3, 57357, Note_on_c, 0, 50, 0
3, 57360, Note_on_c, 0, 55, 86
3, 57379, Control_c, 0, 64, 127
3, 57408, Note_on_c, 0, 55, 0
3, 57420, Note_on_c, 0, 55, 95
3, 57453, Note_on_c, 0, 55, 0
3, 57480, Note_on_c, 0, 55, 99
3, 57532, Note_on_c, 0, 55, 0
3, 57540, Note_on_c, 0, 53, 95
3, 57572, Note_on_c, 0, 53, 0
3, 57600, Note_on_c, 0, 52, 99
3, 57600, Note_on_c, 0, 55, 103
3, 57601, Control_c, 0, 64, 0
3, 57634, Control_c, 0, 64, 127
3, 57652, Note_on_c, 0, 55, 0
3, 57660, Note_on_c, 0, 60, 86
3, 57682, Note_on_c, 0, 60, 0
3, 57690, Note_on_c, 0, 64, 95
3, 57708, Note_on_c, 0, 64, 0
3, 57720, Note_on_c, 0, 67, 103
3, 57738, Note_on_c, 0, 67, 0
3, 57780, Note_on_c, 0, 67, 103
3, 57798, Note_on_c, 0, 67, 0
3, 57821, Note_on_c, 0, 52, 0
3, 57840, Note_on_c, 0, 47, 95
3, 57840, Note_on_c, 0, 67, 103
3, 57842, Control_c, 0, 64, 0
3, 57865, Control_c, 0, 64, 127
3, 57891, Note_on_c, 0, 67, 0
3, 57900, Note_on_c, 0, 65, 103
3, 57912, Note_on_c, 0, 47, 0
3, 57929, Note_on_c, 0, 65, 0
3, 57951, Control_c, 0, 64, 0
3, 57960, Note_on_c, 0, 60, 86
3, 57960, Note_on_c, 0, 64, 90
3, 57960, Note_on_c, 0, 48, 86
3, 57973, Control_c, 0, 64, 127
3, 58021, Note_on_c, 0, 60, 0
3, 58023, Note_on_c, 0, 64, 0
3, 58024, Note_on_c, 0, 48, 0
3, 58074, Control_c, 0, 64, 0
3, 58320, Note_on_c, 0, 53, 74
3, 58320, Note_on_c, 0, 65, 90
3, 58320, Note_on_c, 0, 69, 95
3, 58334, Control_c, 0, 64, 127
3, 58373, Note_on_c, 0, 69, 0
3, 58373, Note_on_c, 0, 65, 0
3, 58380, Note_on_c, 0, 67, 86
3, 58380, Note_on_c, 0, 64, 90
3, 58427, Control_c, 0, 64, 0
3, 58432, Note_on_c, 0, 64, 0
3, 58437, Note_on_c, 0, 67, 0
3, 58440, Note_on_c, 0, 65, 103
3, 58440, Note_on_c, 0, 62, 95
3, 58446, Control_c, 0, 64, 127
3, 58465, Note_on_c, 0, 65, 0
3, 58472, Note_on_c, 0, 62, 0
3, 58500, Note_on_c, 0, 64, 86
3, 58500, Note_on_c, 0, 60, 86
3, 58517, Note_on_c, 0, 53, 0
3, 58526, Note_on_c, 0, 60, 0
3, 58531, Note_on_c, 0, 64, 0
3, 58557, Control_c, 0, 64, 0
3, 58560, Note_on_c, 0, 54, 82
3, 58560, Note_on_c, 0, 62, 99
3, 58560, Note_on_c, 0, 59, 95
3, 58582, Control_c, 0, 64, 127
3, 58610, Note_on_c, 0, 59, 0
3, 58613, Note_on_c, 0, 62, 0
3, 58620, Note_on_c, 0, 64, 90
3, 58620, Note_on_c, 0, 60, 82
3, 58640, Note_on_c, 0, 60, 0
3, 58643, Note_on_c, 0, 64, 0
3, 58650, Note_on_c, 0, 54, 0
3, 58675, Control_c, 0, 64, 0
3, 58680, Note_on_c, 0, 64, 90
3, 58680, Note_on_c, 0, 60, 95
3, 58680, Note_on_c, 0, 55, 90
3, 58703, Control_c, 0, 64, 127
3, 58735, Note_on_c, 0, 55, 0
3, 58740, Note_on_c, 0, 43, 82
3, 58758, Note_on_c, 0, 60, 0
3, 58763, Note_on_c, 0, 64, 0
3, 58795, Note_on_c, 0, 43, 0
3, 58800, Note_on_c, 0, 59, 95
3, 58800, Note_on_c, 0, 62, 95
3, 58800, Note_on_c, 0, 55, 86
3, 58813, Control_c, 0, 64, 0
3, 58839, Control_c, 0, 64, 127
3, 58860, Note_on_c, 0, 53, 99
3, 58864, Note_on_c, 0, 55, 0
3, 58873, Control_c, 0, 64, 0
3, 58896, Control_c, 0, 64, 127
3, 58920, Note_on_c, 0, 52, 99
3, 58921, Note_on_c, 0, 53, 0
3, 58932, Control_c, 0, 64, 0
3, 58956, Note_on_c, 0, 62, 0
3, 58957, Note_on_c, 0, 59, 0
3, 58978, Note_on_c, 0, 52, 0
3, 58980, Note_on_c, 0, 50, 86
3, 58987, Control_c, 0, 64, 127
3, 59002, Note_on_c, 0, 50, 0
3, 59040, Note_on_c, 0, 55, 86
3, 59040, Note_on_c, 0, 48, 72
3, 59040, Note_on_c, 0, 36, 70
3, 59051, Control_c, 0, 64, 127
3, 59095, Note_on_c, 0, 55, 0
3, 59100, Note_on_c, 0, 60, 86
3, 59152, Note_on_c, 0, 60, 0
3, 59160, Note_on_c, 0, 64, 90
3, 59220, Note_on_c, 0, 60, 82
3, 59224, Note_on_c, 0, 64, 0
3, 59280, Note_on_c, 0, 64, 103
3, 59282, Note_on_c, 0, 60, 0
3, 59340, Note_on_c, 0, 60, 95
3, 59346, Note_on_c, 0, 64, 0
3, 59346, Note_on_c, 0, 36, 0
3, 59347, Note_on_c, 0, 48, 0
3, 59384, Note_on_c, 0, 60, 0
3, 59400, Note_on_c, 0, 55, 90
3, 59400, Note_on_c, 0, 35, 90
3, 59400, Note_on_c, 0, 47, 86
3, 59412, Control_c, 0, 64, 0
3, 59448, Control_c, 0, 64, 127
3, 59460, Note_on_c, 0, 55, 0
3, 59460, Note_on_c, 0, 62, 90
3, 59516, Note_on_c, 0, 62, 0
3, 59520, Note_on_c, 0, 65, 99
3, 59580, Note_on_c, 0, 62, 99
3, 59581, Note_on_c, 0, 65, 0
3, 59637, Note_on_c, 0, 62, 0
3, 59640, Note_on_c, 0, 65, 99
3, 59670, Note_on_c, 0, 35, 0
3, 59682, Note_on_c, 0, 47, 0
3, 59695, Note_on_c, 0, 65, 0
3, 59700, Note_on_c, 0, 62, 86
3, 59716, Note_on_c, 0, 62, 0
3, 59760, Note_on_c, 0, 48, 70
3, 59760, Note_on_c, 0, 55, 95
3, 59760, Note_on_c, 0, 36, 82
3, 59767, Control_c, 0, 64, 0
3, 59799, Control_c, 0, 64, 127
3, 59818, Note_on_c, 0, 55, 0
3, 59820, Note_on_c, 0, 60, 86
3, 59874, Note_on_c, 0, 60, 0
3, 59880, Note_on_c, 0, 64, 90
3, 59940, Note_on_c, 0, 60, 90
3, 59943, Note_on_c, 0, 64, 0
3, 60000, Note_on_c, 0, 64, 99
3, 60001, Note_on_c, 0, 60, 0
3, 60054, Note_on_c, 0, 48, 0
3, 60060, Note_on_c, 0, 36, 0
3, 60060, Note_on_c, 0, 60, 95
3, 60062, Note_on_c, 0, 64, 0
3, 60112, Note_on_c, 0, 60, 0
3, 60120, Note_on_c, 0, 55, 90
3, 60120, Note_on_c, 0, 35, 78
3, 60120, Note_on_c, 0, 47, 67
3, 60128, Control_c, 0, 64, 0
3, 60160, Control_c, 0, 64, 127
3, 60180, Note_on_c, 0, 62, 95
3, 60181, Note_on_c, 0, 55, 0
3, 60237, Note_on_c, 0, 62, 0
3, 60240, Note_on_c, 0, 65, 95
3, 60300, Note_on_c, 0, 65, 0
3, 60300, Note_on_c, 0, 62, 99
3, 60356, Note_on_c, 0, 62, 0
3, 60360, Note_on_c, 0, 65, 103
3, 60395, Note_on_c, 0, 35, 0
3, 60405, Note_on_c, 0, 47, 0
3, 60420, Note_on_c, 0, 65, 0
3, 60420, Note_on_c, 0, 62, 99
3, 60435, Note_on_c, 0, 62, 0
3, 60480, Note_on_c, 0, 55, 90
3, 60480, Note_on_c, 0, 36, 86
3, 60480, Note_on_c, 0, 48, 82
3, 60488, Control_c, 0, 64, 0
3, 60519, Control_c, 0, 64, 127
3, 60540, Note_on_c, 0, 60, 86
3, 60543, Note_on_c, 0, 55, 0
3, 60595, Note_on_c, 0, 60, 0
3, 60600, Note_on_c, 0, 64, 90
3, 60660, Note_on_c, 0, 60, 90
3, 60661, Note_on_c, 0, 64, 0
3, 60720, Note_on_c, 0, 64, 103
3, 60722, Note_on_c, 0, 60, 0
3, 60736, Note_on_c, 0, 36, 0
3, 60753, Note_on_c, 0, 48, 0
3, 60779, Note_on_c, 0, 64, 0
3, 60780, Note_on_c, 0, 60, 95
3, 60837, Note_on_c, 0, 60, 0
3, 60840, Note_on_c, 0, 53, 74
3, 60840, Note_on_c, 0, 57, 99
3, 60840, Note_on_c, 0, 41, 78
3, 60850, Control_c, 0, 64, 0
3, 60880, Control_c, 0, 64, 127
3, 60898, Note_on_c, 0, 57, 0
3, 60900, Note_on_c, 0, 60, 86
3, 60956, Note_on_c, 0, 60, 0
3, 60960, Note_on_c, 0, 65, 90
3, 60990, Note_on_c, 0, 53, 0
3, 60998, Note_on_c, 0, 41, 0
3, 61020, Note_on_c, 0, 60, 99
3, 61023, Note_on_c, 0, 65, 0
3, 61077, Note_on_c, 0, 60, 0
3, 61079, Control_c, 0, 64, 0
3, 61080, Note_on_c, 0, 52, 90
3, 61080, Note_on_c, 0, 40, 86
3, 61080, Note_on_c, 0, 55, 90
3, 61104, Control_c, 0, 64, 127
3, 61128, Note_on_c, 0, 55, 0
3, 61135, Note_on_c, 0, 52, 0
3, 61139, Note_on_c, 0, 40, 0
3, 61140, Note_on_c, 0, 60, 90
3, 61153, Note_on_c, 0, 60, 0
3, 61200, Note_on_c, 0, 50, 99
3, 61200, Note_on_c, 0, 38, 99
3, 61203, Control_c, 0, 64, 0
3, 61227, Control_c, 0, 64, 127
3, 61260, Note_on_c, 0, 59, 99
3, 61260, Note_on_c, 0, 50, 62
3, 61267, Note_on_c, 0, 50, 0
3, 61285, Note_on_c, 0, 50, 0
3, 61314, Note_on_c, 0, 59, 0
3, 61320, Note_on_c, 0, 50, 86
3, 61360, Note_on_c, 0, 38, 0
3, 61371, Note_on_c, 0, 50, 0
3, 61380, Note_on_c, 0, 59, 95
3, 61399, Note_on_c, 0, 59, 0
3, 61435, Control_c, 0, 64, 0
3, 61440, Note_on_c, 0, 52, 90
3, 61440, Note_on_c, 0, 36, 74
3, 61440, Note_on_c, 0, 48, 82
3, 61459, Control_c, 0, 64, 127
3, 61474, Note_on_c, 0, 36, 0
3, 61494, Note_on_c, 0, 52, 0
3, 61500, Note_on_c, 0, 60, 99
3, 61503, Note_on_c, 0, 48, 0
3, 61515, Note_on_c, 0, 60, 0
3, 61560, Note_on_c, 0, 53, 82
3, 61560, Note_on_c, 0, 57, 103
3, 61568, Control_c, 0, 64, 127
3, 61611, Note_on_c, 0, 57, 0
3, 61620, Note_on_c, 0, 62, 99
3, 61640, Note_on_c, 0, 62, 0
3, 61656, Note_on_c, 0, 53, 0
3, 61678, Control_c, 0, 64, 0
3, 61680, Note_on_c, 0, 60, 95
3, 61680, Note_on_c, 0, 55, 90
3, 61706, Control_c, 0, 64, 127
3, 61740, Note_on_c, 0, 60, 0
3, 61740, Note_on_c, 0, 64, 95
3, 61767, Note_on_c, 0, 55, 0
3, 61768, Note_on_c, 0, 64, 0
3, 61800, Note_on_c, 0, 62, 90
3, 61800, Note_on_c, 0, 43, 82
3, 61800, Control_c, 0, 64, 0
3, 61825, Control_c, 0, 64, 127
3, 61853, Note_on_c, 0, 62, 0
3, 61860, Note_on_c, 0, 65, 95
3, 61862, Note_on_c, 0, 43, 0
3, 61883, Note_on_c, 0, 65, 0
3, 61913, Control_c, 0, 64, 0
3, 61920, Note_on_c, 0, 64, 95
3, 61920, Note_on_c, 0, 60, 90
3, 61920, Note_on_c, 0, 48, 82
3, 61940, Control_c, 0, 64, 127
3, 62040, Note_on_c, 0, 43, 86
3, 62045, Control_c, 0, 64, 0
3, 62048, Note_on_c, 0, 48, 0
3, 62071, Control_c, 0, 64, 127
3, 62153, Note_on_c, 0, 43, 0
3, 62157, Control_c, 0, 64, 0
3, 62160, Note_on_c, 0, 36, 86
3, 62176, Control_c, 0, 64, 127
3, 62228, Note_on_c, 0, 36, 0
3, 62232, Note_on_c, 0, 60, 0
3, 62233, Note_on_c, 0, 64, 0
3, 62275, Control_c, 0, 64, 0
3, 63720, Note_on_c, 0, 48, 66
3, 63720, Note_on_c, 0, 55, 78
3, 63720, Note_on_c, 0, 36, 69
3, 63734, Control_c, 0, 64, 127
3, 63779, Note_on_c, 0, 55, 0
3, 63780, Note_on_c, 0, 64, 70
3, 63825, Note_on_c, 0, 64, 0
3, 63840, Note_on_c, 0, 60, 72
3, 63897, Note_on_c, 0, 60, 0
3, 63900, Note_on_c, 0, 64, 72
3, 63948, Note_on_c, 0, 64, 0
3, 63960, Note_on_c, 0, 55, 72
3, 64012, Note_on_c, 0, 55, 0
3, 64020, Note_on_c, 0, 64, 70
3, 64026, Note_on_c, 0, 36, 0
3, 64027, Note_on_c, 0, 48, 0
3, 64050, Note_on_c, 0, 64, 0
3, 64080, Note_on_c, 0, 47, 66
3, 64080, Note_on_c, 0, 55, 74
3, 64080, Note_on_c, 0, 35, 72
3, 64089, Control_c, 0, 64, 0
3, 64119, Control_c, 0, 64, 127
3, 64136, Note_on_c, 0, 55, 0
3, 64140, Note_on_c, 0, 62, 86
3, 64179, Note_on_c, 0, 62, 0
3, 64200, Note_on_c, 0, 59, 82
3, 64260, Note_on_c, 0, 62, 82
3, 64261, Note_on_c, 0, 59, 0
3, 64306, Note_on_c, 0, 62, 0
3, 64320, Note_on_c, 0, 55, 74
3, 64339, Note_on_c, 0, 35, 0
3, 64366, Note_on_c, 0, 55, 0
3, 64367, Note_on_c, 0, 47, 0
3, 64380, Note_on_c, 0, 62, 74
3, 64419, Note_on_c, 0, 62, 0
3, 64440, Note_on_c, 0, 54, 70
3, 64440, Note_on_c, 0, 45, 72
3, 64440, Control_c, 0, 64, 0
3, 64466, Control_c, 0, 64, 127
3, 64499, Note_on_c, 0, 54, 0
3, 64500, Note_on_c, 0, 60, 72
3, 64545, Note_on_c, 0, 60, 0
3, 64560, Note_on_c, 0, 57, 82
3, 64616, Note_on_c, 0, 57, 0
3, 64620, Note_on_c, 0, 60, 70
3, 64668, Note_on_c, 0, 60, 0
3, 64680, Note_on_c, 0, 54, 78
3, 64714, Note_on_c, 0, 45, 0
3, 64720, Note_on_c, 0, 54, 0
3, 64740, Note_on_c, 0, 60, 86
3, 64755, Note_on_c, 0, 60, 0
3, 64791, Control_c, 0, 64, 0
3, 64800, Note_on_c, 0, 60, 95
3, 64800, Note_on_c, 0, 42, 74
3, 64800, Note_on_c, 0, 50, 86
3, 64821, Control_c, 0, 64, 127
3, 65065, Note_on_c, 0, 50, 0
3, 65073, Note_on_c, 0, 60, 0
3, 65075, Note_on_c, 0, 42, 0
3, 65160, Note_on_c, 0, 59, 66
3, 65160, Note_on_c, 0, 43, 74
3, 65164, Control_c, 0, 64, 0
3, 65190, Control_c, 0, 64, 127
3, 65220, Note_on_c, 0, 59, 0
3, 65220, Note_on_c, 0, 67, 95
3, 65250, Note_on_c, 0, 67, 0
3, 65254, Note_on_c, 0, 43, 0
3, 65280, Note_on_c, 0, 60, 86
3, 65280, Note_on_c, 0, 45, 82
3, 65286, Control_c, 0, 64, 0
3, 65310, Control_c, 0, 64, 127
3, 65335, Note_on_c, 0, 60, 0
3, 65340, Note_on_c, 0, 67, 86
3, 65364, Note_on_c, 0, 45, 0
3, 65379, Note_on_c, 0, 67, 0
3, 65400, Note_on_c, 0, 47, 74
3, 65400, Note_on_c, 0, 62, 99
3, 65403, Control_c, 0, 64, 0
3, 65427, Control_c, 0, 64, 127
3, 65459, Note_on_c, 0, 62, 0
3, 65460, Note_on_c, 0, 67, 90
3, 65482, Note_on_c, 0, 67, 0
3, 65485, Note_on_c, 0, 47, 0
3, 65520, Note_on_c, 0, 64, 99
3, 65520, Note_on_c, 0, 48, 72
3, 65526, Control_c, 0, 64, 0
3, 65549, Control_c, 0, 64, 127
3, 65576, Note_on_c, 0, 64, 0
3, 65580, Note_on_c, 0, 60, 82
3, 65627, Note_on_c, 0, 48, 0
3, 65634, Control_c, 0, 64, 0
3, 65640, Note_on_c, 0, 59, 86
3, 65640, Note_on_c, 0, 50, 82
3, 65641, Note_on_c, 0, 60, 0
3, 65658, Control_c, 0, 64, 127
3, 65697, Note_on_c, 0, 59, 0
3, 65709, Note_on_c, 0, 50, 0
3, 65760, Note_on_c, 0, 60, 82
3, 65760, Note_on_c, 0, 57, 86
3, 65760, Control_c, 0, 64, 0
3, 65760, Note_on_c, 0, 38, 72
3, 65784, Control_c, 0, 64, 127
3, 65809, Note_on_c, 0, 57, 0
3, 65810, Note_on_c, 0, 60, 0
3, 65812, Note_on_c, 0, 38, 0
3, 65880, Note_on_c, 0, 55, 82
3, 65880, Note_on_c, 0, 43, 74
3, 65880, Note_on_c, 0, 59, 78
3, 65889, Control_c, 0, 64, 0
3, 65918, Control_c, 0, 64, 127
3, 65996, Note_on_c, 0, 43, 0
3, 66000, Note_on_c, 0, 38, 78
3, 66003, Control_c, 0, 64, 0
3, 66026, Control_c, 0, 64, 127
3, 66115, Note_on_c, 0, 38, 0
3, 66120, Note_on_c, 0, 31, 72
3, 66122, Control_c, 0, 64, 0
3, 66141, Control_c, 0, 64, 127
3, 66161, Note_on_c, 0, 31, 0
3, 66161, Note_on_c, 0, 59, 0
3, 66164, Note_on_c, 0, 55, 0
3, 66221, Control_c, 0, 64, 0
3, 66240, Note_on_c, 0, 43, 86
3, 66254, Control_c, 0, 64, 127
3, 66298, Note_on_c, 0, 43, 0
3, 66300, Note_on_c, 0, 47, 90
3, 66330, Note_on_c, 0, 50, 95
3, 66335, Note_on_c, 0, 47, 0
3, 66339, Control_c, 0, 64, 0
3, 66356, Note_on_c, 0, 50, 0
3, 66360, Note_on_c, 0, 55, 74
3, 66368, Control_c, 0, 64, 127
3, 66412, Note_on_c, 0, 55, 0
3, 66420, Note_on_c, 0, 55, 86
3, 66451, Note_on_c, 0, 55, 0
3, 66480, Note_on_c, 0, 55, 90
3, 66530, Note_on_c, 0, 55, 0
3, 66540, Note_on_c, 0, 53, 74
3, 66575, Note_on_c, 0, 53, 0
3, 66600, Note_on_c, 0, 52, 78
3, 66600, Note_on_c, 0, 55, 90
3, 66602, Control_c, 0, 64, 0
3, 66636, Control_c, 0, 64, 127
3, 66654, Note_on_c, 0, 55, 0
3, 66660, Note_on_c, 0, 60, 74
3, 66687, Note_on_c, 0, 60, 0
3, 66690, Note_on_c, 0, 64, 78
3, 66705, Control_c, 0, 64, 0
3, 66716, Note_on_c, 0, 64, 0
3, 66720, Note_on_c, 0, 67, 86
3, 66725, Control_c, 0, 64, 127
3, 66759, Note_on_c, 0, 67, 0
3, 66780, Note_on_c, 0, 67, 74
3, 66808, Note_on_c, 0, 67, 0
3, 66822, Note_on_c, 0, 52, 0
3, 66840, Note_on_c, 0, 67, 86
3, 66840, Note_on_c, 0, 47, 86
3, 66841, Control_c, 0, 64, 0
3, 66863, Control_c, 0, 64, 127
3, 66894, Note_on_c, 0, 67, 0
3, 66900, Note_on_c, 0, 65, 90
3, 66919, Note_on_c, 0, 47, 0
3, 66928, Note_on_c, 0, 65, 0
3, 66960, Note_on_c, 0, 60, 78
3, 66960, Control_c, 0, 64, 0
3, 66960, Note_on_c, 0, 64, 86
3, 66960, Note_on_c, 0, 48, 86
3, 66981, Control_c, 0, 64, 127
3, 67079, Note_on_c, 0, 60, 0
3, 67080, Note_on_c, 0, 64, 0
3, 67081, Note_on_c, 0, 48, 0
3, 67092, Control_c, 0, 64, 0
3, 67320, Note_on_c, 0, 53, 72
3, 67320, Note_on_c, 0, 65, 86
3, 67320, Note_on_c, 0, 69, 78
3, 67335, Control_c, 0, 64, 127
3, 67371, Note_on_c, 0, 69, 0
3, 67374, Note_on_c, 0, 65, 0
3, 67380, Note_on_c, 0, 64, 74
3, 67380, Note_on_c, 0, 67, 86
3, 67435, Note_on_c, 0, 64, 0
3, 67436, Note_on_c, 0, 67, 0
3, 67437, Control_c, 0, 64, 0
3, 67440, Note_on_c, 0, 65, 90
3, 67440, Note_on_c, 0, 62, 86
3, 67458, Control_c, 0, 64, 127
3, 67460, Note_on_c, 0, 65, 0
3, 67468, Note_on_c, 0, 62, 0
3, 67500, Note_on_c, 0, 64, 90
3, 67500, Note_on_c, 0, 60, 86
3, 67503, Note_on_c, 0, 53, 0
3, 67526, Note_on_c, 0, 60, 0
3, 67527, Note_on_c, 0, 64, 0
3, 67558, Control_c, 0, 64, 0
3, 67560, Note_on_c, 0, 54, 82
3, 67560, Note_on_c, 0, 62, 86
3, 67560, Note_on_c, 0, 59, 90
3, 67584, Control_c, 0, 64, 127
3, 67603, Note_on_c, 0, 59, 0
3, 67608, Note_on_c, 0, 62, 0
3, 67620, Note_on_c, 0, 64, 86
3, 67620, Note_on_c, 0, 60, 86
3, 67632, Note_on_c, 0, 54, 0
3, 67641, Note_on_c, 0, 60, 0
3, 67644, Note_on_c, 0, 64, 0
3, 67669, Control_c, 0, 64, 0
3, 67680, Note_on_c, 0, 64, 86
3, 67680, Note_on_c, 0, 60, 78
3, 67680, Note_on_c, 0, 55, 72
3, 67692, Control_c, 0, 64, 127
3, 67738, Note_on_c, 0, 55, 0
3, 67740, Note_on_c, 0, 43, 66
3, 67757, Note_on_c, 0, 64, 0
3, 67765, Note_on_c, 0, 60, 0
3, 67791, Note_on_c, 0, 43, 0
3, 67800, Note_on_c, 0, 59, 74
3, 67800, Note_on_c, 0, 62, 74
3, 67800, Note_on_c, 0, 55, 72
3, 67809, Control_c, 0, 64, 0
3, 67834, Control_c, 0, 64, 127
3, 67860, Note_on_c, 0, 53, 82
3, 67862, Note_on_c, 0, 55, 0
3, 67920, Note_on_c, 0, 52, 82
3, 67922, Note_on_c, 0, 53, 0
3, 67929, Control_c, 0, 64, 0
3, 67950, Note_on_c, 0, 62, 0
3, 67953, Note_on_c, 0, 59, 0
3, 67971, Control_c, 0, 64, 127
3, 67972, Note_on_c, 0, 52, 0
3, 67980, Note_on_c, 0, 50, 86
3, 68037, Note_on_c, 0, 50, 0
3, 68040, Note_on_c, 0, 55, 78
3, 68040, Note_on_c, 0, 48, 69
3, 68040, Note_on_c, 0, 36, 74
3, 68046, Control_c, 0, 64, 127
3, 68096, Note_on_c, 0, 55, 0
3, 68100, Note_on_c, 0, 60, 82
3, 68157, Note_on_c, 0, 60, 0
3, 68160, Note_on_c, 0, 64, 82
3, 68217, Note_on_c, 0, 64, 0
3, 68220, Note_on_c, 0, 60, 72
3, 68280, Note_on_c, 0, 64, 86
3, 68285, Note_on_c, 0, 60, 0
3, 68324, Note_on_c, 0, 48, 0
3, 68325, Note_on_c, 0, 36, 0
3, 68340, Note_on_c, 0, 60, 82
3, 68341, Note_on_c, 0, 64, 0
3, 68393, Note_on_c, 0, 60, 0
3, 68400, Note_on_c, 0, 55, 86
3, 68400, Note_on_c, 0, 35, 70
3, 68400, Note_on_c, 0, 47, 63
3, 68411, Control_c, 0, 64, 0
3, 68446, Control_c, 0, 64, 127
3, 68460, Note_on_c, 0, 62, 72
3, 68465, Note_on_c, 0, 55, 0
3, 68509, Note_on_c, 0, 62, 0
3, 68520, Note_on_c, 0, 65, 74
3, 68575, Note_on_c, 0, 65, 0
3, 68580, Note_on_c, 0, 62, 78
3, 68635, Note_on_c, 0, 62, 0
3, 68640, Note_on_c, 0, 65, 74
3, 68656, Note_on_c, 0, 35, 0
3, 68673, Note_on_c, 0, 47, 0
3, 68700, Note_on_c, 0, 65, 0
3, 68700, Note_on_c, 0, 62, 86
3, 68720, Note_on_c, 0, 62, 0
3, 68760, Note_on_c, 0, 55, 86
3, 68760, Note_on_c, 0, 48, 65
3, 68760, Note_on_c, 0, 36, 72
3, 68772, Control_c, 0, 64, 0
3, 68806, Control_c, 0, 64, 127
3, 68820, Note_on_c, 0, 60, 78
3, 68824, Note_on_c, 0, 55, 0
3, 68879, Note_on_c, 0, 60, 0
3, 68880, Note_on_c, 0, 64, 82
3, 68939, Note_on_c, 0, 64, 0
3, 68940, Note_on_c, 0, 60, 74
3, 68996, Note_on_c, 0, 60, 0
3, 69000, Note_on_c, 0, 64, 86
3, 69047, Note_on_c, 0, 48, 0
3, 69049, Note_on_c, 0, 36, 0
3, 69057, Note_on_c, 0, 64, 0
3, 69060, Note_on_c, 0, 60, 78
3, 69075, Note_on_c, 0, 60, 0
3, 69120, Note_on_c, 0, 55, 78
3, 69120, Note_on_c, 0, 47, 66
3, 69120, Note_on_c, 0, 35, 70
3, 69127, Control_c, 0, 64, 0
3, 69161, Control_c, 0, 64, 127
3, 69180, Note_on_c, 0, 62, 72
3, 69181, Note_on_c, 0, 55, 0
3, 69234, Note_on_c, 0, 62, 0
3, 69240, Note_on_c, 0, 65, 86
3, 69294, Note_on_c, 0, 65, 0
3, 69300, Note_on_c, 0, 62, 82
3, 69351, Note_on_c, 0, 62, 0
3, 69360, Note_on_c, 0, 65, 78
3, 69379, Note_on_c, 0, 35, 0
3, 69390, Note_on_c, 0, 47, 0
3, 69415, Note_on_c, 0, 65, 0
3, 69420, Note_on_c, 0, 62, 82
3, 69436, Note_on_c, 0, 62, 0
3, 69480, Note_on_c, 0, 55, 78
3, 69480, Note_on_c, 0, 48, 67
3, 69480, Note_on_c, 0, 36, 70
3, 69486, Control_c, 0, 64, 0
3, 69518, Control_c, 0, 64, 127
3, 69537, Note_on_c, 0, 55, 0
3, 69540, Note_on_c, 0, 60, 74
3, 69592, Note_on_c, 0, 60, 0
3, 69600, Note_on_c, 0, 64, 86
3, 69660, Note_on_c, 0, 60, 78
3, 69661, Note_on_c, 0, 64, 0
3, 69719, Note_on_c, 0, 36, 0
3, 69720, Note_on_c, 0, 60, 0
3, 69720, Note_on_c, 0, 64, 86
3, 69742, Note_on_c, 0, 48, 0
3, 69780, Note_on_c, 0, 60, 86
3, 69782, Note_on_c, 0, 64, 0
3, 69835, Note_on_c, 0, 60, 0
3, 69840, Note_on_c, 0, 53, 69
3, 69840, Note_on_c, 0, 57, 82
3, 69840, Note_on_c, 0, 41, 67
3, 69844, Control_c, 0, 64, 0
3, 69874, Control_c, 0, 64, 127
3, 69899, Note_on_c, 0, 57, 0
3, 69900, Note_on_c, 0, 60, 70
3, 69958, Note_on_c, 0, 60, 0
3, 69960, Note_on_c, 0, 65, 90
3, 69978, Note_on_c, 0, 41, 0
3, 69978, Note_on_c, 0, 53, 0
3, 70020, Note_on_c, 0, 65, 0
3, 70020, Note_on_c, 0, 60, 90
3, 70074, Control_c, 0, 64, 0
3, 70077, Note_on_c, 0, 60, 0
3, 70080, Note_on_c, 0, 40, 74
3, 70080, Note_on_c, 0, 52, 70
3, 70080, Note_on_c, 0, 55, 86
3, 70099, Control_c, 0, 64, 127
3, 70128, Note_on_c, 0, 52, 0
3, 70129, Note_on_c, 0, 55, 0
3, 70131, Note_on_c, 0, 40, 0
3, 70140, Note_on_c, 0, 60, 70
3, 70150, Note_on_c, 0, 60, 0
3, 70200, Note_on_c, 0, 38, 90
3, 70200, Note_on_c, 0, 50, 90
3, 70211, Control_c, 0, 64, 0
3, 70244, Control_c, 0, 64, 127
3, 70260, Note_on_c, 0, 59, 78
3, 70279, Note_on_c, 0, 50, 0
3, 70316, Note_on_c, 0, 59, 0
3, 70320, Note_on_c, 0, 50, 74
3, 70368, Note_on_c, 0, 38, 0
3, 70370, Note_on_c, 0, 50, 0
3, 70380, Note_on_c, 0, 59, 86
3, 70415, Note_on_c, 0, 59, 0
3, 70440, Note_on_c, 0, 52, 90
3, 70440, Note_on_c, 0, 36, 74
3, 70440, Note_on_c, 0, 48, 66
3, 70440, Control_c, 0, 64, 0
3, 70463, Control_c, 0, 64, 127
3, 70490, Note_on_c, 0, 36, 0
3, 70495, Note_on_c, 0, 52, 0
3, 70500, Note_on_c, 0, 60, 95
3, 70501, Note_on_c, 0, 48, 0
3, 70513, Note_on_c, 0, 60, 0
3, 70560, Note_on_c, 0, 53, 95
3, 70560, Note_on_c, 0, 57, 74
3, 70573, Control_c, 0, 64, 0
3, 70597, Control_c, 0, 64, 127
3, 70617, Note_on_c, 0, 57, 0
3, 70620, Note_on_c, 0, 62, 95
3, 70670, Note_on_c, 0, 62, 0
3, 70679, Note_on_c, 0, 53, 0
3, 70680, Note_on_c, 0, 55, 72
3, 70680, Note_on_c, 0, 60, 90
3, 70683, Control_c, 0, 64, 0
3, 70707, Control_c, 0, 64, 127
3, 70740, Note_on_c, 0, 64, 90
3, 70743, Note_on_c, 0, 60, 0
3, 70794, Note_on_c, 0, 64, 0
3, 70796, Note_on_c, 0, 55, 0
3, 70800, Note_on_c, 0, 43, 82
3, 70800, Note_on_c, 0, 62, 86
3, 70809, Control_c, 0, 64, 0
3, 70833, Control_c, 0, 64, 127
3, 70850, Note_on_c, 0, 62, 0
3, 70860, Note_on_c, 0, 65, 78
3, 70872, Note_on_c, 0, 43, 0
3, 70892, Note_on_c, 0, 65, 0
3, 70916, Control_c, 0, 64, 0
3, 70920, Note_on_c, 0, 64, 78
3, 70920, Note_on_c, 0, 60, 86
3, 70920, Note_on_c, 0, 48, 74
3, 70938, Control_c, 0, 64, 127
3, 71040, Note_on_c, 0, 43, 82
3, 71047, Control_c, 0, 64, 0
3, 71048, Note_on_c, 0, 48, 0
3, 71068, Control_c, 0, 64, 127
3, 71160, Note_on_c, 0, 36, 78
3, 71161, Note_on_c, 0, 43, 0
3, 71163, Control_c, 0, 64, 0
3, 71180, Control_c, 0, 64, 127
3, 71204, Note_on_c, 0, 36, 0
3, 71214, Note_on_c, 0, 60, 0
3, 71217, Note_on_c, 0, 64, 0
3, 71278, Control_c, 0, 64, 0
3, 71280, Note_on_c, 0, 41, 72
3, 71280, Note_on_c, 0, 53, 70
3, 71280, Note_on_c, 0, 57, 86
3, 71332, Control_c, 0, 64, 127
3, 71340, Note_on_c, 0, 65, 78
3, 71341, Note_on_c, 0, 57, 0
3, 71388, Note_on_c, 0, 65, 0
3, 71400, Note_on_c, 0, 60, 82
3, 71456, Note_on_c, 0, 60, 0
3, 71460, Note_on_c, 0, 65, 78
3, 71516, Note_on_c, 0, 65, 0
3, 71520, Note_on_c, 0, 57, 72
3, 71523, Note_on_c, 0, 53, 0
3, 71534, Note_on_c, 0, 41, 0
3, 71579, Note_on_c, 0, 57, 0
3, 71580, Note_on_c, 0, 65, 90
3, 71624, Note_on_c, 0, 65, 0
3, 71640, Note_on_c, 0, 58, 78
3, 71640, Note_on_c, 0, 48, 63
3, 71640, Note_on_c, 0, 36, 72
3, 71655, Control_c, 0, 64, 0
3, 71699, Control_c, 0, 64, 127
3, 71700, Note_on_c, 0, 64, 86
3, 71703, Note_on_c, 0, 58, 0
3, 71760, Note_on_c, 0, 60, 82
3, 71761, Note_on_c, 0, 64, 0
3, 71820, Note_on_c, 0, 64, 86
3, 71821, Note_on_c, 0, 60, 0
3, 71876, Note_on_c, 0, 64, 0
3, 71880, Note_on_c, 0, 58, 72
3, 71932, Note_on_c, 0, 58, 0
3, 71937, Note_on_c, 0, 36, 0
3, 71940, Note_on_c, 0, 64, 82
3, 71942, Note_on_c, 0, 48, 0
3, 71967, Note_on_c, 0, 64, 0
3, 72000, Note_on_c, 0, 48, 78
3, 72000, Note_on_c, 0, 58, 74
3, 72000, Note_on_c, 0, 36, 70
3, 72006, Control_c, 0, 64, 0
3, 72042, Control_c, 0, 64, 127
3, 72051, Note_on_c, 0, 58, 0
3, 72060, Note_on_c, 0, 64, 78
3, 72108, Note_on_c, 0, 64, 0
3, 72120, Note_on_c, 0, 60, 82
3, 72175, Note_on_c, 0, 60, 0
3, 72180, Note_on_c, 0, 64, 82
3, 72234, Note_on_c, 0, 64, 0
3, 72240, Note_on_c, 0, 58, 86
3, 72251, Note_on_c, 0, 36, 0
3, 72268, Note_on_c, 0, 48, 0
3, 72285, Note_on_c, 0, 58, 0
3, 72300, Note_on_c, 0, 64, 78
3, 72355, Note_on_c, 0, 64, 0
3, 72360, Note_on_c, 0, 57, 86
3, 72360, Note_on_c, 0, 53, 72
3, 72360, Note_on_c, 0, 41, 72
3, 72368, Control_c, 0, 64, 0
3, 72413, Control_c, 0, 64, 127
3, 72420, Note_on_c, 0, 65, 74
3, 72422, Note_on_c, 0, 57, 0
3, 72449, Note_on_c, 0, 65, 0
3, 72480, Note_on_c, 0, 60, 86
3, 72540, Note_on_c, 0, 65, 78
3, 72542, Note_on_c, 0, 60, 0
3, 72590, Note_on_c, 0, 65, 0
3, 72600, Note_on_c, 0, 57, 82
3, 72657, Note_on_c, 0, 41, 0
3, 72658, Note_on_c, 0, 57, 0
3, 72660, Note_on_c, 0, 65, 86
3, 72662, Note_on_c, 0, 53, 0
3, 72682, Note_on_c, 0, 65, 0
3, 72714, Control_c, 0, 64, 0
3, 72720, Note_on_c, 0, 41, 86
3, 72720, Note_on_c, 0, 53, 82
3, 72720, Note_on_c, 0, 65, 103
3, 72720, Note_on_c, 0, 57, 95
3, 72741, Control_c, 0, 64, 127
3, 72787, Note_on_c, 0, 57, 0
3, 72787, Note_on_c, 0, 65, 0
3, 72798, Note_on_c, 0, 53, 0
3, 72799, Note_on_c, 0, 41, 0
3, 72822, Control_c, 0, 64, 0
3, 72960, Note_on_c, 0, 65, 103
3, 72960, Note_on_c, 0, 57, 99
3, 72960, Note_on_c, 0, 41, 78
3, 72960, Note_on_c, 0, 53, 70
3, 72963, Control_c, 0, 64, 127
3, 72994, Note_on_c, 0, 53, 0
3, 72997, Note_on_c, 0, 41, 0
3, 72998, Note_on_c, 0, 65, 0
3, 73005, Note_on_c, 0, 57, 0
3, 73054, Control_c, 0, 64, 0
3, 73080, Note_on_c, 0, 64, 95
3, 73080, Note_on_c, 0, 55, 86
3, 73080, Note_on_c, 0, 36, 78
3, 73080, Note_on_c, 0, 48, 74
3, 73099, Control_c, 0, 64, 127
3, 73142, Note_on_c, 0, 48, 0
3, 73143, Note_on_c, 0, 36, 0
3, 73144, Note_on_c, 0, 64, 0
3, 73145, Note_on_c, 0, 55, 0
3, 73186, Control_c, 0, 64, 0
3, 73320, Note_on_c, 0, 36, 78
3, 73320, Note_on_c, 0, 64, 99
3, 73320, Note_on_c, 0, 55, 99
3, 73320, Note_on_c, 0, 48, 86
3, 73334, Control_c, 0, 64, 127
3, 73343, Note_on_c, 0, 36, 0
3, 73354, Note_on_c, 0, 64, 0
3, 73356, Note_on_c, 0, 48, 0
3, 73357, Note_on_c, 0, 55, 0
3, 73437, Control_c, 0, 64, 0
3, 73440, Note_on_c, 0, 62, 90
3, 73440, Note_on_c, 0, 65, 95
3, 73440, Note_on_c, 0, 53, 90
3, 73474, Control_c, 0, 64, 127
3, 73496, Note_on_c, 0, 65, 0
3, 73504, Note_on_c, 0, 62, 0
3, 73505, Note_on_c, 0, 53, 0
3, 73554, Control_c, 0, 64, 0
3, 73560, Note_on_c, 0, 64, 90
3, 73560, Note_on_c, 0, 60, 86
3, 73560, Note_on_c, 0, 55, 90
3, 73587, Control_c, 0, 64, 127
3, 73609, Note_on_c, 0, 64, 0
3, 73616, Note_on_c, 0, 60, 0
3, 73633, Note_on_c, 0, 55, 0
3, 73680, Note_on_c, 0, 43, 82
3, 73680, Note_on_c, 0, 62, 99
3, 73680, Note_on_c, 0, 59, 99
3, 73681, Control_c, 0, 64, 0
3, 73712, Control_c, 0, 64, 127
3, 73723, Note_on_c, 0, 43, 0
3, 73732, Note_on_c, 0, 59, 0
3, 73732, Note_on_c, 0, 62, 0
3, 73800, Note_on_c, 0, 48, 86
3, 73800, Note_on_c, 0, 59, 108
3, 73800, Note_on_c, 0, 62, 103
3, 73837, Control_c, 0, 64, 127
3, 73852, Note_on_c, 0, 59, 0
3, 73854, Note_on_c, 0, 62, 0
3, 73860, Note_on_c, 0, 60, 78
3, 73860, Note_on_c, 0, 64, 99
3, 73906, Control_c, 0, 64, 0
3, 73912, Note_on_c, 0, 48, 0
3, 73920, Note_on_c, 0, 43, 82
3, 73955, Control_c, 0, 64, 127
3, 74035, Note_on_c, 0, 43, 0
3, 74040, Control_c, 0, 64, 0
3, 74040, Note_on_c, 0, 36, 74
3, 74065, Control_c, 0, 64, 127
3, 74085, Note_on_c, 0, 64, 0
3, 74086, Note_on_c, 0, 60, 0
3, 74090, Note_on_c, 0, 36, 0
3, 74158, Control_c, 0, 64, 0
3, 74160, Note_on_c, 0, 60, 90
3, 74160, Note_on_c, 0, 41, 78
3, 74160, Note_on_c, 0, 53, 72
3, 74214, Control_c, 0, 64, 127
3, 74280, Note_on_c, 0, 60, 0
3, 74280, Note_on_c, 0, 65, 95
3, 74295, Note_on_c, 0, 41, 0
3, 74308, Note_on_c, 0, 53, 0
3, 74356, Note_on_c, 0, 65, 0
3, 74400, Note_on_c, 0, 45, 82
3, 74400, Note_on_c, 0, 64, 99
3, 74400, Note_on_c, 0, 57, 72
3, 74407, Control_c, 0, 64, 0
3, 74441, Control_c, 0, 64, 127
3, 74453, Note_on_c, 0, 45, 0
3, 74469, Note_on_c, 0, 57, 0
3, 74485, Note_on_c, 0, 64, 0
3, 74520, Note_on_c, 0, 64, 99
3, 74520, Note_on_c, 0, 58, 72
3, 74520, Note_on_c, 0, 46, 99
3, 74540, Control_c, 0, 64, 0
3, 74581, Control_c, 0, 64, 127
3, 74640, Note_on_c, 0, 62, 103
3, 74647, Note_on_c, 0, 64, 0
3, 74658, Note_on_c, 0, 46, 0
3, 74662, Note_on_c, 0, 58, 0
3, 74755, Note_on_c, 0, 62, 0
3, 74760, Note_on_c, 0, 60, 99
3, 74760, Note_on_c, 0, 44, 82
3, 74760, Note_on_c, 0, 56, 86
3, 74764, Control_c, 0, 64, 0
3, 74798, Control_c, 0, 64, 127
3, 74811, Note_on_c, 0, 56, 0
3, 74815, Note_on_c, 0, 44, 0
3, 74815, Note_on_c, 0, 60, 0
3, 74880, Note_on_c, 0, 55, 67
3, 74880, Note_on_c, 0, 59, 103
3, 74880, Note_on_c, 0, 43, 69
3, 74888, Control_c, 0, 64, 0
3, 74926, Control_c, 0, 64, 127
3, 74936, Note_on_c, 0, 43, 0
3, 74953, Note_on_c, 0, 55, 0
3, 74957, Note_on_c, 0, 59, 0
3, 75000, Note_on_c, 0, 67, 103
3, 75088, Note_on_c, 0, 67, 0
3, 75120, Note_on_c, 0, 47, 72
3, 75120, Note_on_c, 0, 65, 99
3, 75120, Note_on_c, 0, 59, 78
3, 75122, Control_c, 0, 64, 0
3, 75150, Control_c, 0, 64, 127
3, 75168, Note_on_c, 0, 47, 0
3, 75178, Note_on_c, 0, 59, 0
3, 75178, Note_on_c, 0, 65, 0
3, 75240, Note_on_c, 0, 65, 99
3, 75240, Note_on_c, 0, 48, 86
3, 75240, Note_on_c, 0, 60, 74
3, 75248, Control_c, 0, 64, 0
3, 75279, Control_c, 0, 64, 127
3, 75357, Note_on_c, 0, 60, 0
3, 75358, Note_on_c, 0, 65, 0
3, 75359, Note_on_c, 0, 48, 0
3, 75360, Note_on_c, 0, 64, 103
3, 75409, Note_on_c, 0, 64, 0
3, 75480, Note_on_c, 0, 58, 82
3, 75480, Note_on_c, 0, 46, 99
3, 75480, Note_on_c, 0, 62, 108
3, 75481, Control_c, 0, 64, 0
3, 75515, Control_c, 0, 64, 127
3, 75528, Note_on_c, 0, 62, 0
3, 75537, Note_on_c, 0, 58, 0
3, 75547, Note_on_c, 0, 46, 0
3, 75600, Note_on_c, 0, 61, 108
3, 75600, Note_on_c, 0, 45, 95
3, 75600, Note_on_c, 0, 57, 86
3, 75632, Control_c, 0, 64, 0
3, 75679, Control_c, 0, 64, 127
3, 75717, Note_on_c, 0, 61, 0
3, 75720, Note_on_c, 0, 45, 0
3, 75720, Note_on_c, 0, 69, 112
3, 75729, Note_on_c, 0, 57, 0
3, 75778, Note_on_c, 0, 69, 0
3, 75840, Note_on_c, 0, 61, 82
3, 75840, Note_on_c, 0, 49, 103
3, 75840, Note_on_c, 0, 67, 108
3, 75841, Control_c, 0, 64, 0
3, 75867, Control_c, 0, 64, 127
3, 75881, Note_on_c, 0, 67, 0
3, 75885, Note_on_c, 0, 49, 0
3, 75887, Note_on_c, 0, 61, 0
3, 75960, Note_on_c, 0, 50, 99
3, 75960, Note_on_c, 0, 65, 112
3, 75960, Note_on_c, 0, 62, 86
3, 75963, Control_c, 0, 64, 0
3, 75989, Control_c, 0, 64, 127
3, 76008, Note_on_c, 0, 50, 0
3, 76016, Note_on_c, 0, 65, 0
3, 76020, Note_on_c, 0, 62, 0
3, 76077, Control_c, 0, 64, 0
3, 76080, Note_on_c, 0, 52, 90
3, 76080, Note_on_c, 0, 70, 108
3, 76080, Note_on_c, 0, 64, 95
3, 76102, Control_c, 0, 64, 127
3, 76126, Note_on_c, 0, 52, 0
3, 76132, Note_on_c, 0, 64, 0
3, 76140, Note_on_c, 0, 70, 0
3, 76195, Control_c, 0, 64, 0
3, 76200, Note_on_c, 0, 53, 86
3, 76200, Note_on_c, 0, 69, 108
3, 76200, Note_on_c, 0, 65, 86
3, 76218, Control_c, 0, 64, 127
3, 76229, Note_on_c, 0, 65, 0
3, 76238, Note_on_c, 0, 53, 0
3, 76251, Note_on_c, 0, 69, 0
3, 76320, Note_on_c, 0, 46, 90
3, 76320, Note_on_c, 0, 58, 78
3, 76320, Note_on_c, 0, 69, 103
3, 76331, Control_c, 0, 64, 0
3, 76368, Control_c, 0, 64, 127
3, 76379, Note_on_c, 0, 69, 0
3, 76380, Note_on_c, 0, 67, 99
3, 76440, Note_on_c, 0, 70, 95
3, 76441, Note_on_c, 0, 67, 0
3, 76449, Control_c, 0, 64, 0
3, 76478, Control_c, 0, 64, 127
3, 76494, Note_on_c, 0, 70, 0
3, 76500, Note_on_c, 0, 69, 103
3, 76510, Note_on_c, 0, 46, 0
3, 76512, Note_on_c, 0, 58, 0
3, 76557, Note_on_c, 0, 69, 0
3, 76560, Note_on_c, 0, 67, 103
3, 76560, Note_on_c, 0, 47, 90
3, 76560, Note_on_c, 0, 59, 74
3, 76566, Control_c, 0, 64, 0
3, 76595, Control_c, 0, 64, 127
3, 76620, Note_on_c, 0, 47, 0
3, 76620, Note_on_c, 0, 67, 0
3, 76620, Note_on_c, 0, 65, 103
3, 76626, Note_on_c, 0, 59, 0
3, 76647, Note_on_c, 0, 65, 0
3, 76679, Control_c, 0, 64, 0
3, 76680, Note_on_c, 0, 60, 69
3, 76680, Note_on_c, 0, 65, 99
3, 76703, Control_c, 0, 64, 127
3, 76736, Note_on_c, 0, 65, 0
3, 76740, Note_on_c, 0, 64, 95
3, 76740, Note_on_c, 0, 48, 86
3, 76744, Note_on_c, 0, 60, 0
3, 76754, Control_c, 0, 64, 0
3, 76780, Control_c, 0, 64, 127
3, 76800, Note_on_c, 0, 60, 86
3, 76801, Note_on_c, 0, 48, 0
3, 76812, Control_c, 0, 64, 0
3, 76836, Control_c, 0, 64, 127
3, 76860, Note_on_c, 0, 58, 86
3, 76865, Note_on_c, 0, 60, 0
3, 76869, Control_c, 0, 64, 0
3, 76892, Control_c, 0, 64, 127
3, 76920, Note_on_c, 0, 57, 99
3, 76921, Note_on_c, 0, 58, 0
3, 76928, Note_on_c, 0, 64, 0
3, 76929, Control_c, 0, 64, 0
3, 76979, Note_on_c, 0, 57, 0
3, 76980, Note_on_c, 0, 55, 90
3, 76985, Control_c, 0, 64, 127
3, 77010, Note_on_c, 0, 55, 0
3, 77040, Note_on_c, 0, 57, 86
3, 77040, Note_on_c, 0, 41, 74
3, 77040, Note_on_c, 0, 53, 72
3, 77063, Control_c, 0, 64, 127
3, 77098, Note_on_c, 0, 57, 0
3, 77100, Note_on_c, 0, 65, 82
3, 77150, Note_on_c, 0, 65, 0
3, 77160, Note_on_c, 0, 60, 86
3, 77220, Note_on_c, 0, 60, 0
3, 77220, Note_on_c, 0, 65, 82
3, 77276, Note_on_c, 0, 65, 0
3, 77280, Note_on_c, 0, 57, 82
3, 77291, Note_on_c, 0, 53, 0
3, 77302, Note_on_c, 0, 41, 0
3, 77330, Note_on_c, 0, 57, 0
3, 77340, Note_on_c, 0, 65, 82
3, 77392, Note_on_c, 0, 65, 0
3, 77400, Note_on_c, 0, 58, 82
3, 77400, Note_on_c, 0, 36, 74
3, 77400, Note_on_c, 0, 48, 67
3, 77412, Control_c, 0, 64, 0
3, 77453, Note_on_c, 0, 58, 0
3, 77460, Note_on_c, 0, 64, 90
3, 77465, Control_c, 0, 64, 127
3, 77520, Note_on_c, 0, 64, 0
3, 77520, Note_on_c, 0, 60, 86
3, 77579, Note_on_c, 0, 60, 0
3, 77580, Note_on_c, 0, 64, 90
3, 77636, Note_on_c, 0, 64, 0
3, 77640, Note_on_c, 0, 58, 72
3, 77684, Note_on_c, 0, 48, 0
3, 77687, Note_on_c, 0, 36, 0
3, 77692, Note_on_c, 0, 58, 0
3, 77700, Note_on_c, 0, 64, 78
3, 77749, Note_on_c, 0, 64, 0
3, 77760, Note_on_c, 0, 58, 78
3, 77760, Note_on_c, 0, 36, 72
3, 77760, Note_on_c, 0, 48, 69
3, 77763, Control_c, 0, 64, 0
3, 77795, Control_c, 0, 64, 127
3, 77819, Note_on_c, 0, 58, 0
3, 77820, Note_on_c, 0, 64, 90
3, 77876, Note_on_c, 0, 64, 0
3, 77880, Note_on_c, 0, 60, 90
3, 77936, Note_on_c, 0, 60, 0
3, 77940, Note_on_c, 0, 64, 99
3, 77980, Note_on_c, 0, 36, 0
3, 77996, Note_on_c, 0, 64, 0
3, 78000, Note_on_c, 0, 58, 82
3, 78002, Note_on_c, 0, 48, 0
3, 78050, Note_on_c, 0, 58, 0
3, 78060, Note_on_c, 0, 64, 99
3, 78120, Note_on_c, 0, 41, 78
3, 78120, Note_on_c, 0, 53, 72
3, 78120, Note_on_c, 0, 57, 99
3, 78121, Note_on_c, 0, 64, 0
3, 78122, Control_c, 0, 64, 0
3, 78166, Control_c, 0, 64, 127
3, 78180, Note_on_c, 0, 65, 90
3, 78183, Note_on_c, 0, 57, 0
3, 78221, Note_on_c, 0, 65, 0
3, 78240, Note_on_c, 0, 60, 78
3, 78300, Note_on_c, 0, 60, 0
3, 78300, Note_on_c, 0, 65, 86
3, 78354, Note_on_c, 0, 65, 0
3, 78360, Note_on_c, 0, 57, 78
3, 78397, Note_on_c, 0, 53, 0
3, 78400, Note_on_c, 0, 41, 0
3, 78412, Note_on_c, 0, 57, 0
3, 78420, Note_on_c, 0, 65, 95
3, 78447, Note_on_c, 0, 65, 0
3, 78457, Control_c, 0, 64, 0
3, 78480, Note_on_c, 0, 41, 86
3, 78480, Note_on_c, 0, 58, 90
3, 78480, Note_on_c, 0, 53, 78
3, 78480, Note_on_c, 0, 62, 103
3, 78493, Control_c, 0, 64, 127
3, 78582, Note_on_c, 0, 62, 0
3, 78582, Note_on_c, 0, 58, 0
3, 78583, Control_c, 0, 64, 0
3, 78585, Note_on_c, 0, 53, 0
3, 78588, Note_on_c, 0, 41, 0
3, 78720, Note_on_c, 0, 58, 95
3, 78720, Note_on_c, 0, 62, 103
3, 78720, Note_on_c, 0, 41, 82
3, 78720, Note_on_c, 0, 53, 78
3, 78729, Control_c, 0, 64, 127
3, 78787, Note_on_c, 0, 41, 0
3, 78788, Note_on_c, 0, 58, 0
3, 78788, Note_on_c, 0, 62, 0
3, 78792, Note_on_c, 0, 53, 0
3, 78821, Control_c, 0, 64, 0
3, 78840, Note_on_c, 0, 60, 95
3, 78840, Note_on_c, 0, 57, 103
3, 78840, Note_on_c, 0, 41, 95
3, 78840, Note_on_c, 0, 53, 86
3, 78860, Control_c, 0, 64, 127
3, 78907, Note_on_c, 0, 53, 0
3, 78908, Note_on_c, 0, 41, 0
3, 78909, Note_on_c, 0, 57, 0
3, 78909, Note_on_c, 0, 60, 0
3, 78932, Control_c, 0, 64, 0
3, 79080, Note_on_c, 0, 57, 103
3, 79080, Note_on_c, 0, 60, 99
3, 79080, Note_on_c, 0, 41, 86
3, 79080, Note_on_c, 0, 53, 82
3, 79104, Control_c, 0, 64, 127
3, 79147, Note_on_c, 0, 53, 0
3, 79152, Note_on_c, 0, 41, 0
3, 79157, Note_on_c, 0, 60, 0
3, 79165, Note_on_c, 0, 57, 0
3, 79196, Control_c, 0, 64, 0
3, 79200, Note_on_c, 0, 58, 90
3, 79200, Note_on_c, 0, 55, 99
3, 79200, Note_on_c, 0, 52, 86
3, 79200, Note_on_c, 0, 40, 86
3, 79247, Control_c, 0, 64, 127
3, 79288, Note_on_c, 0, 52, 0
3, 79288, Note_on_c, 0, 58, 0
3, 79288, Note_on_c, 0, 55, 0
3, 79290, Note_on_c, 0, 40, 0
3, 79296, Control_c, 0, 64, 0
3, 79440, Note_on_c, 0, 40, 86
3, 79440, Note_on_c, 0, 58, 95
3, 79440, Note_on_c, 0, 52, 78
3, 79440, Note_on_c, 0, 55, 99
3, 79452, Control_c, 0, 64, 127
3, 79498, Note_on_c, 0, 40, 0
3, 79499, Note_on_c, 0, 52, 0
3, 79501, Note_on_c, 0, 55, 0
3, 79503, Note_on_c, 0, 58, 0
3, 79536, Control_c, 0, 64, 0
3, 79560, Note_on_c, 0, 58, 108
3, 79560, Note_on_c, 0, 55, 103
3, 79560, Note_on_c, 0, 52, 90
3, 79560, Note_on_c, 0, 40, 108
3, 79577, Control_c, 0, 64, 127
3, 79668, Note_on_c, 0, 40, 0
3, 79669, Note_on_c, 0, 52, 0
3, 79669, Note_on_c, 0, 55, 0
3, 79671, Note_on_c, 0, 58, 0
3, 79680, Control_c, 0, 64, 0
3, 79920, Note_on_c, 0, 58, 67
3, 79920, Note_on_c, 0, 48, 69
3, 79920, Note_on_c, 0, 36, 70
3, 79959, Control_c, 0, 64, 127
3, 79980, Note_on_c, 0, 58, 0
3, 79980, Note_on_c, 0, 64, 78
3, 80038, Note_on_c, 0, 64, 0
3, 80040, Note_on_c, 0, 58, 78
3, 80095, Note_on_c, 0, 58, 0
3, 80100, Note_on_c, 0, 64, 82
3, 80153, Note_on_c, 0, 64, 0
3, 80160, Note_on_c, 0, 58, 86
3, 80177, Note_on_c, 0, 36, 0
3, 80197, Note_on_c, 0, 48, 0
3, 80212, Note_on_c, 0, 58, 0
3, 80220, Note_on_c, 0, 64, 95
3, 80273, Note_on_c, 0, 64, 0
3, 80280, Note_on_c, 0, 57, 90
3, 80280, Note_on_c, 0, 53, 72
3, 80280, Note_on_c, 0, 41, 78
3, 80285, Control_c, 0, 64, 0
3, 80332, Control_c, 0, 64, 127
3, 80340, Note_on_c, 0, 65, 78
3, 80344, Note_on_c, 0, 57, 0
3, 80395, Note_on_c, 0, 65, 0
3, 80400, Note_on_c, 0, 57, 86
3, 80459, Note_on_c, 0, 57, 0
3, 80460, Note_on_c, 0, 65, 86
3, 80517, Note_on_c, 0, 65, 0
3, 80520, Note_on_c, 0, 57, 86
3, 80523, Note_on_c, 0, 53, 0
3, 80531, Note_on_c, 0, 41, 0
3, 80579, Note_on_c, 0, 57, 0
3, 80580, Note_on_c, 0, 65, 90
3, 80602, Note_on_c, 0, 65, 0
3, 80640, Note_on_c, 0, 48, 74
3, 80640, Note_on_c, 0, 58, 99
3, 80640, Note_on_c, 0, 36, 82
3, 80647, Control_c, 0, 64, 0
3, 80690, Control_c, 0, 64, 127
3, 80698, Note_on_c, 0, 58, 0
3, 80700, Note_on_c, 0, 64, 78
3, 80760, Note_on_c, 0, 64, 0
3, 80760, Note_on_c, 0, 58, 86
3, 80818, Note_on_c, 0, 58, 0
3, 80820, Note_on_c, 0, 64, 90
3, 80868, Note_on_c, 0, 64, 0
3, 80880, Note_on_c, 0, 58, 72
3, 80895, Note_on_c, 0, 36, 0
3, 80909, Note_on_c, 0, 48, 0
3, 80935, Note_on_c, 0, 58, 0
3, 80940, Note_on_c, 0, 64, 99
3, 80962, Note_on_c, 0, 64, 0
3, 80993, Control_c, 0, 64, 0
3, 81000, Note_on_c, 0, 41, 82
3, 81000, Note_on_c, 0, 65, 103
3, 81000, Note_on_c, 0, 53, 72
3, 81000, Note_on_c, 0, 57, 103
3, 81030, Control_c, 0, 64, 127
3, 81082, Note_on_c, 0, 65, 0
3, 81083, Note_on_c, 0, 57, 0
3, 81083, Note_on_c, 0, 53, 0
3, 81092, Note_on_c, 0, 41, 0
3, 81115, Control_c, 0, 64, 0
3, 81234, Control_c, 0, 64, 127
3, 81240, Note_on_c, 0, 36, 86
3, 81240, Note_on_c, 0, 64, 103
3, 81240, Note_on_c, 0, 48, 72
3, 81240, Note_on_c, 0, 58, 99
3, 81264, Note_on_c, 0, 48, 0
3, 81264, Note_on_c, 0, 36, 0
3, 81268, Note_on_c, 0, 58, 0
3, 81269, Note_on_c, 0, 64, 0
3, 81332, Control_c, 0, 64, 0
3, 81360, Note_on_c, 0, 65, 99
3, 81360, Note_on_c, 0, 57, 99
3, 81360, Note_on_c, 0, 53, 86
3, 81393, Control_c, 0, 64, 127
3, 81470, Note_on_c, 0, 53, 0
3, 81480, Note_on_c, 0, 48, 86
3, 81538, Note_on_c, 0, 48, 0
3, 81596, Note_on_c, 0, 57, 0
3, 81598, Note_on_c, 0, 65, 0
3, 81600, Note_on_c, 0, 41, 95
3, 81621, Note_on_c, 0, 41, 0
3, 81709, Control_c, 0, 64, 0
3, 83160, Note_on_c, 0, 36, 82
3, 83160, Note_on_c, 0, 55, 86
3, 83160, Note_on_c, 0, 48, 72
3, 83187, Control_c, 0, 64, 127
3, 83219, Note_on_c, 0, 55, 0
3, 83220, Note_on_c, 0, 64, 95
3, 83274, Note_on_c, 0, 64, 0
3, 83280, Note_on_c, 0, 60, 90
3, 83334, Note_on_c, 0, 60, 0
3, 83340, Note_on_c, 0, 64, 82
3, 83398, Note_on_c, 0, 64, 0
3, 83400, Note_on_c, 0, 55, 72
3, 83454, Note_on_c, 0, 48, 0
3, 83456, Note_on_c, 0, 55, 0
3, 83459, Note_on_c, 0, 36, 0
3, 83460, Note_on_c, 0, 64, 99
3, 83482, Note_on_c, 0, 64, 0
3, 83520, Note_on_c, 0, 55, 108
3, 83520, Note_on_c, 0, 47, 99
3, 83520, Note_on_c, 0, 35, 99
3, 83540, Control_c, 0, 64, 0
3, 83580, Note_on_c, 0, 62, 99
3, 83584, Note_on_c, 0, 55, 0
3, 83620, Control_c, 0, 64, 127
3, 83639, Note_on_c, 0, 62, 0
3, 83640, Note_on_c, 0, 59, 99
3, 83697, Control_c, 0, 64, 0
3, 83699, Note_on_c, 0, 59, 0
3, 83700, Note_on_c, 0, 62, 90
3, 83719, Control_c, 0, 64, 127
3, 83760, Note_on_c, 0, 55, 90
3, 83761, Note_on_c, 0, 62, 0
3, 83792, Note_on_c, 0, 35, 0
3, 83814, Note_on_c, 0, 55, 0
3, 83820, Note_on_c, 0, 62, 103
3, 83831, Note_on_c, 0, 47, 0
3, 83843, Note_on_c, 0, 62, 0
3, 83880, Note_on_c, 0, 54, 90
3, 83880, Note_on_c, 0, 45, 86
3, 83886, Control_c, 0, 64, 0
3, 83922, Control_c, 0, 64, 127
3, 83940, Note_on_c, 0, 60, 95
3, 83941, Note_on_c, 0, 54, 0
3, 83990, Note_on_c, 0, 60, 0
3, 84000, Note_on_c, 0, 57, 99
3, 84058, Note_on_c, 0, 57, 0
3, 84060, Note_on_c, 0, 60, 99
3, 84117, Note_on_c, 0, 60, 0
3, 84120, Note_on_c, 0, 54, 74
3, 84168, Note_on_c, 0, 45, 0
3, 84171, Note_on_c, 0, 54, 0
3, 84180, Note_on_c, 0, 60, 99
3, 84211, Note_on_c, 0, 60, 0
3, 84233, Control_c, 0, 64, 0
3, 84240, Note_on_c, 0, 60, 103
3, 84240, Note_on_c, 0, 50, 99
3, 84240, Note_on_c, 0, 42, 86
3, 84314, Control_c, 0, 64, 127
3, 84466, Note_on_c, 0, 50, 0
3, 84476, Note_on_c, 0, 60, 0
3, 84478, Note_on_c, 0, 42, 0
3, 84591, Control_c, 0, 64, 0
3, 84600, Note_on_c, 0, 43, 90
3, 84600, Note_on_c, 0, 59, 99
3, 84623, Control_c, 0, 64, 127
3, 84660, Note_on_c, 0, 59, 0
3, 84660, Note_on_c, 0, 67, 99
3, 84683, Note_on_c, 0, 67, 0
3, 84700, Note_on_c, 0, 43, 0
3, 84720, Note_on_c, 0, 60, 108
3, 84720, Note_on_c, 0, 45, 99
3, 84727, Control_c, 0, 64, 0
3, 84750, Control_c, 0, 64, 127
3, 84776, Note_on_c, 0, 60, 0
3, 84780, Note_on_c, 0, 67, 99
3, 84803, Note_on_c, 0, 67, 0
3, 84811, Note_on_c, 0, 45, 0
3, 84840, Note_on_c, 0, 47, 103
3, 84840, Note_on_c, 0, 62, 99
3, 84843, Control_c, 0, 64, 0
3, 84872, Control_c, 0, 64, 127
3, 84896, Note_on_c, 0, 62, 0
3, 84900, Note_on_c, 0, 67, 103
3, 84934, Note_on_c, 0, 67, 0
3, 84959, Note_on_c, 0, 47, 0
3, 84960, Note_on_c, 0, 64, 108
3, 84960, Note_on_c, 0, 48, 95
3, 84966, Control_c, 0, 64, 0
3, 84994, Control_c, 0, 64, 127
3, 85015, Note_on_c, 0, 64, 0
3, 85020, Note_on_c, 0, 60, 95
3, 85062, Note_on_c, 0, 48, 0
3, 85076, Control_c, 0, 64, 0
3, 85080, Note_on_c, 0, 59, 108
3, 85080, Note_on_c, 0, 50, 103
3, 85081, Note_on_c, 0, 60, 0
3, 85101, Control_c, 0, 64, 127
3, 85141, Note_on_c, 0, 59, 0
3, 85192, Note_on_c, 0, 50, 0
3, 85200, Note_on_c, 0, 57, 103
3, 85200, Note_on_c, 0, 60, 99
3, 85200, Note_on_c, 0, 38, 99
3, 85202, Control_c, 0, 64, 0
3, 85227, Control_c, 0, 64, 127
3, 85250, Note_on_c, 0, 60, 0
3, 85251, Note_on_c, 0, 57, 0
3, 85262, Note_on_c, 0, 38, 0
3, 85320, Note_on_c, 0, 55, 99
3, 85320, Note_on_c, 0, 43, 86
3, 85320, Note_on_c, 0, 59, 103
3, 85321, Control_c, 0, 64, 0
3, 85346, Control_c, 0, 64, 127
3, 85440, Note_on_c, 0, 38, 95
3, 85441, Note_on_c, 0, 43, 0
3, 85446, Control_c, 0, 64, 0
3, 85469, Control_c, 0, 64, 127
3, 85551, Note_on_c, 0, 38, 0
3, 85556, Control_c, 0, 64, 0
3, 85560, Note_on_c, 0, 31, 95
3, 85573, Control_c, 0, 64, 127
3, 85600, Note_on_c, 0, 59, 0
3, 85601, Note_on_c, 0, 31, 0
3, 85604, Note_on_c, 0, 55, 0
3, 85662, Control_c, 0, 64, 0
3, 85680, Note_on_c, 0, 43, 103
3, 85694, Control_c, 0, 64, 127
3, 85736, Note_on_c, 0, 43, 0
3, 85740, Note_on_c, 0, 47, 95
3, 85762, Control_c, 0, 64, 0
3, 85770, Note_on_c, 0, 50, 103
3, 85777, Note_on_c, 0, 47, 0
3, 85800, Note_on_c, 0, 55, 99
3, 85801, Note_on_c, 0, 50, 0
3, 85813, Control_c, 0, 64, 127
3, 85848, Note_on_c, 0, 55, 0
3, 85860, Note_on_c, 0, 55, 112
3, 85886, Note_on_c, 0, 55, 0
3, 85920, Note_on_c, 0, 55, 103
3, 85969, Note_on_c, 0, 55, 0
3, 85980, Note_on_c, 0, 53, 95
3, 86032, Note_on_c, 0, 53, 0
3, 86034, Control_c, 0, 64, 0
3, 86040, Note_on_c, 0, 55, 86
3, 86040, Note_on_c, 0, 52, 103
3, 86072, Control_c, 0, 64, 127
3, 86088, Note_on_c, 0, 55, 0
3, 86100, Note_on_c, 0, 60, 95
3, 86122, Note_on_c, 0, 60, 0
3, 86130, Note_on_c, 0, 64, 99
3, 86149, Note_on_c, 0, 64, 0
3, 86160, Note_on_c, 0, 67, 108
3, 86180, Note_on_c, 0, 67, 0
3, 86220, Note_on_c, 0, 67, 108
3, 86243, Note_on_c, 0, 67, 0
3, 86255, Note_on_c, 0, 52, 0
3, 86277, Control_c, 0, 64, 0
3, 86280, Note_on_c, 0, 67, 103
3, 86280, Note_on_c, 0, 47, 103
3, 86302, Control_c, 0, 64, 127
3, 86331, Note_on_c, 0, 67, 0
3, 86340, Note_on_c, 0, 65, 103
3, 86366, Note_on_c, 0, 47, 0
3, 86373, Note_on_c, 0, 65, 0
3, 86391, Control_c, 0, 64, 0
3, 86400, Note_on_c, 0, 60, 95
3, 86400, Note_on_c, 0, 64, 95
3, 86400, Note_on_c, 0, 48, 95
3, 86414, Control_c, 0, 64, 127
3, 86530, Note_on_c, 0, 48, 0
3, 86531, Note_on_c, 0, 64, 0
3, 86531, Note_on_c, 0, 60, 0
3, 86535, Control_c, 0, 64, 0
3, 86760, Note_on_c, 0, 53, 95
3, 86760, Note_on_c, 0, 65, 108
3, 86760, Note_on_c, 0, 69, 99
3, 86779, Control_c, 0, 64, 127
3, 86809, Note_on_c, 0, 69, 0
3, 86812, Note_on_c, 0, 65, 0
3, 86820, Note_on_c, 0, 67, 95
3, 86820, Note_on_c, 0, 64, 95
3, 86871, Note_on_c, 0, 64, 0
3, 86871, Control_c, 0, 64, 0
3, 86874, Note_on_c, 0, 67, 0
3, 86880, Note_on_c, 0, 65, 103
3, 86880, Note_on_c, 0, 62, 99
3, 86896, Control_c, 0, 64, 127
3, 86910, Note_on_c, 0, 65, 0
3, 86916, Note_on_c, 0, 62, 0
3, 86940, Note_on_c, 0, 64, 99
3, 86940, Note_on_c, 0, 60, 99
3, 86952, Note_on_c, 0, 53, 0
3, 86963, Note_on_c, 0, 60, 0
3, 86967, Note_on_c, 0, 64, 0
3, 86999, Control_c, 0, 64, 0
3, 87000, Note_on_c, 0, 54, 86
3, 87000, Note_on_c, 0, 62, 108
3, 87000, Note_on_c, 0, 59, 99
3, 87027, Control_c, 0, 64, 127
3, 87044, Note_on_c, 0, 59, 0
3, 87046, Note_on_c, 0, 62, 0
3, 87060, Note_on_c, 0, 64, 99
3, 87060, Note_on_c, 0, 60, 95
3, 87078, Note_on_c, 0, 60, 0
3, 87080, Note_on_c, 0, 64, 0
3, 87083, Note_on_c, 0, 54, 0
3, 87107, Control_c, 0, 64, 0
3, 87120, Note_on_c, 0, 64, 103
3, 87120, Note_on_c, 0, 60, 103
3, 87120, Note_on_c, 0, 55, 82
3, 87138, Control_c, 0, 64, 127
3, 87177, Note_on_c, 0, 55, 0
3, 87180, Note_on_c, 0, 43, 99
3, 87193, Note_on_c, 0, 60, 0
3, 87193, Note_on_c, 0, 64, 0
3, 87225, Note_on_c, 0, 43, 0
3, 87240, Note_on_c, 0, 62, 99
3, 87240, Note_on_c, 0, 59, 99
3, 87240, Note_on_c, 0, 55, 95
3, 87249, Control_c, 0, 64, 0
3, 87278, Control_c, 0, 64, 127
3, 87300, Note_on_c, 0, 53, 95
3, 87304, Note_on_c, 0, 55, 0
3, 87329, Note_on_c, 0, 62, 0
3, 87330, Note_on_c, 0, 59, 0
3, 87356, Note_on_c, 0, 53, 0
3, 87360, Note_on_c, 0, 52, 95
3, 87362, Control_c, 0, 64, 0
3, 87392, Control_c, 0, 64, 127
3, 87415, Note_on_c, 0, 52, 0
3, 87420, Note_on_c, 0, 50, 95
3, 87437, Note_on_c, 0, 50, 0
3, 87480, Note_on_c, 0, 55, 78
3, 87480, Note_on_c, 0, 36, 86
3, 87480, Note_on_c, 0, 48, 86
3, 87487, Control_c, 0, 64, 0
3, 87531, Control_c, 0, 64, 127
3, 87540, Note_on_c, 0, 60, 86
3, 87543, Note_on_c, 0, 55, 0
3, 87600, Note_on_c, 0, 64, 86
3, 87602, Note_on_c, 0, 60, 0
3, 87660, Note_on_c, 0, 60, 86
3, 87665, Note_on_c, 0, 64, 0
3, 87718, Note_on_c, 0, 60, 0
3, 87720, Note_on_c, 0, 64, 95
3, 87774, Note_on_c, 0, 48, 0
3, 87779, Note_on_c, 0, 36, 0
3, 87780, Note_on_c, 0, 60, 90
3, 87788, Note_on_c, 0, 64, 0
3, 87832, Note_on_c, 0, 60, 0
3, 87840, Note_on_c, 0, 55, 99
3, 87840, Note_on_c, 0, 47, 78
3, 87840, Note_on_c, 0, 35, 82
3, 87853, Control_c, 0, 64, 0
3, 87897, Control_c, 0, 64, 127
3, 87900, Note_on_c, 0, 62, 99
3, 87912, Note_on_c, 0, 55, 0
3, 87958, Note_on_c, 0, 62, 0
3, 87960, Note_on_c, 0, 65, 90
3, 88015, Note_on_c, 0, 65, 0
3, 88020, Note_on_c, 0, 62, 86
3, 88080, Note_on_c, 0, 65, 95
3, 88082, Note_on_c, 0, 62, 0
3, 88118, Note_on_c, 0, 35, 0
3, 88130, Note_on_c, 0, 65, 0
3, 88133, Note_on_c, 0, 47, 0
3, 88140, Note_on_c, 0, 62, 99
3, 88199, Note_on_c, 0, 62, 0
3, 88200, Note_on_c, 0, 55, 86
3, 88200, Note_on_c, 0, 48, 82
3, 88200, Note_on_c, 0, 36, 82
3, 88204, Control_c, 0, 64, 0
3, 88238, Control_c, 0, 64, 127
3, 88260, Note_on_c, 0, 60, 90
3, 88263, Note_on_c, 0, 55, 0
3, 88319, Note_on_c, 0, 60, 0
3, 88320, Note_on_c, 0, 64, 99
3, 88380, Note_on_c, 0, 60, 99
3, 88385, Note_on_c, 0, 64, 0
3, 88440, Note_on_c, 0, 60, 0
3, 88440, Note_on_c, 0, 64, 95
3, 88500, Note_on_c, 0, 60, 95
3, 88508, Note_on_c, 0, 64, 0
3, 88509, Note_on_c, 0, 48, 0
3, 88515, Note_on_c, 0, 36, 0
3, 88554, Note_on_c, 0, 60, 0
3, 88560, Note_on_c, 0, 47, 70
3, 88560, Note_on_c, 0, 55, 86
3, 88560, Note_on_c, 0, 35, 82
3, 88581, Control_c, 0, 64, 0
3, 88620, Control_c, 0, 64, 127
3, 88620, Note_on_c, 0, 62, 95
3, 88636, Note_on_c, 0, 55, 0
3, 88680, Note_on_c, 0, 65, 95
3, 88683, Note_on_c, 0, 62, 0
3, 88733, Note_on_c, 0, 65, 0
3, 88740, Note_on_c, 0, 62, 90
3, 88791, Note_on_c, 0, 62, 0
3, 88800, Note_on_c, 0, 65, 60
3, 88834, Note_on_c, 0, 35, 0
3, 88857, Note_on_c, 0, 47, 0
3, 88858, Note_on_c, 0, 65, 0
3, 88860, Note_on_c, 0, 62, 95
3, 88914, Note_on_c, 0, 62, 0
3, 88920, Note_on_c, 0, 55, 95
3, 88920, Note_on_c, 0, 48, 78
3, 88920, Note_on_c, 0, 36, 86
3, 88933, Control_c, 0, 64, 0
3, 88966, Control_c, 0, 64, 127
3, 88980, Note_on_c, 0, 60, 95
3, 88987, Note_on_c, 0, 55, 0
3, 89040, Note_on_c, 0, 64, 103
3, 89041, Note_on_c, 0, 60, 0
3, 89100, Note_on_c, 0, 60, 95
3, 89106, Note_on_c, 0, 64, 0
3, 89160, Note_on_c, 0, 64, 103
3, 89161, Note_on_c, 0, 60, 0
3, 89179, Note_on_c, 0, 36, 0
3, 89197, Note_on_c, 0, 48, 0
3, 89220, Note_on_c, 0, 60, 99
3, 89223, Note_on_c, 0, 64, 0
3, 89274, Note_on_c, 0, 60, 0
3, 89280, Note_on_c, 0, 57, 99
3, 89280, Note_on_c, 0, 53, 78
3, 89280, Note_on_c, 0, 41, 82
3, 89287, Control_c, 0, 64, 0
3, 89321, Control_c, 0, 64, 127
3, 89340, Note_on_c, 0, 60, 99
3, 89345, Note_on_c, 0, 57, 0
3, 89397, Note_on_c, 0, 60, 0
3, 89400, Note_on_c, 0, 65, 99
3, 89423, Note_on_c, 0, 53, 0
3, 89428, Note_on_c, 0, 41, 0
3, 89459, Note_on_c, 0, 65, 0
3, 89460, Note_on_c, 0, 60, 86
3, 89515, Control_c, 0, 64, 0
3, 89516, Note_on_c, 0, 60, 0
3, 89520, Note_on_c, 0, 55, 99
3, 89520, Note_on_c, 0, 40, 99
3, 89520, Note_on_c, 0, 52, 95
3, 89541, Control_c, 0, 64, 127
3, 89574, Note_on_c, 0, 52, 0
3, 89576, Note_on_c, 0, 55, 0
3, 89577, Note_on_c, 0, 40, 0
3, 89580, Note_on_c, 0, 60, 95
3, 89595, Note_on_c, 0, 60, 0
3, 89640, Note_on_c, 0, 38, 103
3, 89640, Note_on_c, 0, 50, 99
3, 89647, Control_c, 0, 64, 0
3, 89679, Control_c, 0, 64, 127
3, 89700, Note_on_c, 0, 59, 103
3, 89726, Note_on_c, 0, 50, 0
3, 89755, Note_on_c, 0, 59, 0
3, 89760, Note_on_c, 0, 50, 90
3, 89803, Note_on_c, 0, 38, 0
3, 89812, Note_on_c, 0, 50, 0
3, 89820, Note_on_c, 0, 59, 103
3, 89839, Note_on_c, 0, 59, 0
3, 89879, Control_c, 0, 64, 0
3, 89880, Note_on_c, 0, 52, 99
3, 89880, Note_on_c, 0, 36, 86
3, 89880, Note_on_c, 0, 48, 86
3, 89904, Control_c, 0, 64, 127
3, 89915, Note_on_c, 0, 36, 0
3, 89928, Note_on_c, 0, 48, 0
3, 89933, Note_on_c, 0, 52, 0
3, 89940, Note_on_c, 0, 60, 99
3, 89978, Note_on_c, 0, 60, 0
3, 90000, Note_on_c, 0, 57, 103
3, 90000, Note_on_c, 0, 53, 86
3, 90015, Control_c, 0, 64, 0
3, 90042, Control_c, 0, 64, 127
3, 90060, Note_on_c, 0, 62, 99
3, 90061, Note_on_c, 0, 57, 0
3, 90085, Note_on_c, 0, 62, 0
3, 90116, Note_on_c, 0, 53, 0
3, 90120, Control_c, 0, 64, 0
3, 90120, Note_on_c, 0, 60, 95
3, 90120, Note_on_c, 0, 55, 95
3, 90143, Control_c, 0, 64, 127
3, 90176, Note_on_c, 0, 60, 0
3, 90180, Note_on_c, 0, 64, 103
3, 90219, Note_on_c, 0, 64, 0
3, 90234, Control_c, 0, 64, 0
3, 90235, Note_on_c, 0, 55, 0
3, 90240, Note_on_c, 0, 43, 90
3, 90240, Note_on_c, 0, 62, 95
3, 90255, Control_c, 0, 64, 127
3, 90294, Note_on_c, 0, 62, 0
3, 90300, Note_on_c, 0, 65, 86
3, 90326, Note_on_c, 0, 43, 0
3, 90330, Note_on_c, 0, 65, 0
3, 90360, Note_on_c, 0, 60, 95
3, 90360, Note_on_c, 0, 64, 103
3, 90360, Note_on_c, 0, 48, 86
3, 90361, Control_c, 0, 64, 0
3, 90386, Control_c, 0, 64, 127
3, 90480, Note_on_c, 0, 43, 86
3, 90488, Note_on_c, 0, 48, 0
3, 90491, Control_c, 0, 64, 0
3, 90510, Control_c, 0, 64, 127
3, 90600, Note_on_c, 0, 36, 95
3, 90601, Control_c, 0, 64, 0
3, 90603, Note_on_c, 0, 43, 0
3, 90618, Control_c, 0, 64, 127
3, 90651, Note_on_c, 0, 36, 0
3, 90660, Note_on_c, 0, 64, 0
3, 90661, Note_on_c, 0, 60, 0
3, 90720, Control_c, 0, 7, 127
3, 90728, Control_c, 0, 64, 0
3, 91080, Note_on_c, 0, 52, 86
3, 91080, Note_on_c, 0, 48, 82
3, 91093, Control_c, 0, 64, 127
3, 91108, Note_on_c, 0, 52, 0
3, 91110, Note_on_c, 0, 55, 86
3, 91137, Note_on_c, 0, 55, 0
3, 91140, Note_on_c, 0, 60, 86
3, 91167, Note_on_c, 0, 60, 0
3, 91170, Note_on_c, 0, 55, 82
3, 91197, Control_c, 0, 64, 0
3, 91200, Note_on_c, 0, 52, 103
3, 91201, Note_on_c, 0, 55, 0
3, 91219, Control_c, 0, 64, 127
3, 91228, Note_on_c, 0, 52, 0
3, 91230, Note_on_c, 0, 55, 86
3, 91260, Note_on_c, 0, 60, 95
3, 91262, Note_on_c, 0, 55, 0
3, 91290, Note_on_c, 0, 55, 90
3, 91294, Note_on_c, 0, 60, 0
3, 91304, Note_on_c, 0, 48, 0
3, 91309, Note_on_c, 0, 55, 0
3, 91320, Note_on_c, 0, 53, 99
3, 91320, Note_on_c, 0, 43, 86
3, 91325, Control_c, 0, 64, 0
3, 91348, Note_on_c, 0, 53, 0
3, 91350, Note_on_c, 0, 55, 99
3, 91355, Control_c, 0, 64, 127
3, 91374, Note_on_c, 0, 55, 0
3, 91380, Note_on_c, 0, 59, 99
3, 91404, Note_on_c, 0, 59, 0
3, 91410, Note_on_c, 0, 55, 86
3, 91429, Note_on_c, 0, 55, 0
3, 91440, Note_on_c, 0, 53, 103
3, 91462, Note_on_c, 0, 53, 0
3, 91470, Note_on_c, 0, 55, 86
3, 91495, Note_on_c, 0, 55, 0
3, 91500, Note_on_c, 0, 59, 90
3, 91520, Note_on_c, 0, 43, 0
3, 91527, Note_on_c, 0, 59, 0
3, 91530, Note_on_c, 0, 55, 86
3, 91545, Note_on_c, 0, 55, 0
3, 91559, Control_c, 0, 64, 0
3, 91560, Note_on_c, 0, 52, 108
3, 91560, Note_on_c, 0, 36, 95
3, 91586, Note_on_c, 0, 52, 0
3, 91586, Control_c, 0, 64, 127
3, 91590, Note_on_c, 0, 55, 99
3, 91613, Note_on_c, 0, 55, 0
3, 91620, Note_on_c, 0, 60, 99
3, 91646, Note_on_c, 0, 60, 0
3, 91650, Note_on_c, 0, 55, 86
3, 91670, Note_on_c, 0, 55, 0
3, 91680, Note_on_c, 0, 52, 103
3, 91700, Note_on_c, 0, 52, 0
3, 91710, Note_on_c, 0, 55, 95
3, 91731, Note_on_c, 0, 55, 0
3, 91740, Note_on_c, 0, 60, 99
3, 91764, Note_on_c, 0, 60, 0
3, 91764, Note_on_c, 0, 36, 0
3, 91770, Note_on_c, 0, 55, 82
3, 91786, Note_on_c, 0, 55, 0
3, 91800, Note_on_c, 0, 53, 103
3, 91800, Note_on_c, 0, 43, 108
3, 91807, Control_c, 0, 64, 0
3, 91827, Note_on_c, 0, 53, 0
3, 91830, Note_on_c, 0, 55, 90
3, 91840, Control_c, 0, 64, 127
3, 91856, Note_on_c, 0, 55, 0
3, 91860, Note_on_c, 0, 59, 90
3, 91884, Note_on_c, 0, 59, 0
3, 91890, Note_on_c, 0, 55, 86
3, 91914, Note_on_c, 0, 55, 0
3, 91920, Note_on_c, 0, 53, 90
3, 91942, Note_on_c, 0, 53, 0
3, 91950, Note_on_c, 0, 55, 86
3, 91974, Note_on_c, 0, 55, 0
3, 91980, Note_on_c, 0, 59, 82
3, 91983, Note_on_c, 0, 43, 0
3, 92004, Note_on_c, 0, 59, 0
3, 92010, Note_on_c, 0, 55, 86
3, 92023, Note_on_c, 0, 55, 0
3, 92040, Note_on_c, 0, 48, 112
3, 92040, Note_on_c, 0, 52, 103
3, 92052, Control_c, 0, 64, 0
3, 92064, Note_on_c, 0, 52, 0
3, 92070, Note_on_c, 0, 55, 90
3, 92083, Control_c, 0, 64, 127
3, 92092, Note_on_c, 0, 55, 0
3, 92100, Note_on_c, 0, 60, 78
3, 92125, Note_on_c, 0, 60, 0
3, 92130, Note_on_c, 0, 55, 90
3, 92149, Note_on_c, 0, 55, 0
3, 92160, Note_on_c, 0, 52, 86
3, 92180, Note_on_c, 0, 52, 0
3, 92190, Note_on_c, 0, 55, 86
3, 92212, Note_on_c, 0, 55, 0
3, 92220, Note_on_c, 0, 60, 86
3, 92230, Note_on_c, 0, 48, 0
3, 92245, Note_on_c, 0, 60, 0
3, 92250, Note_on_c, 0, 55, 90
3, 92265, Note_on_c, 0, 55, 0
3, 92280, Note_on_c, 0, 53, 103
3, 92280, Note_on_c, 0, 43, 103
3, 92285, Control_c, 0, 64, 0
3, 92305, Note_on_c, 0, 53, 0
3, 92310, Note_on_c, 0, 55, 86
3, 92314, Control_c, 0, 64, 127
3, 92334, Note_on_c, 0, 55, 0
3, 92340, Note_on_c, 0, 59, 95
3, 92365, Note_on_c, 0, 59, 0
3, 92370, Note_on_c, 0, 55, 74
3, 92391, Note_on_c, 0, 55, 0
3, 92400, Note_on_c, 0, 53, 95
3, 92424, Note_on_c, 0, 53, 0
3, 92430, Note_on_c, 0, 55, 95
3, 92450, Note_on_c, 0, 55, 0
3, 92460, Note_on_c, 0, 59, 86
3, 92484, Note_on_c, 0, 59, 0
3, 92490, Note_on_c, 0, 55, 90
3, 92507, Note_on_c, 0, 55, 0
3, 92519, Note_on_c, 0, 43, 0
3, 92520, Note_on_c, 0, 52, 103
3, 92520, Note_on_c, 0, 36, 99
3, 92526, Control_c, 0, 64, 0
3, 92542, Note_on_c, 0, 52, 0
3, 92550, Note_on_c, 0, 55, 99
3, 92554, Control_c, 0, 64, 127
3, 92572, Note_on_c, 0, 55, 0
3, 92580, Note_on_c, 0, 60, 82
3, 92604, Note_on_c, 0, 60, 0
3, 92610, Note_on_c, 0, 55, 86
3, 92631, Note_on_c, 0, 55, 0
3, 92640, Note_on_c, 0, 52, 99
3, 92658, Note_on_c, 0, 52, 0
3, 92670, Note_on_c, 0, 55, 95
3, 92692, Note_on_c, 0, 55, 0
3, 92700, Note_on_c, 0, 60, 95
3, 92730, Note_on_c, 0, 55, 95
3, 92735, Note_on_c, 0, 60, 0
3, 92746, Note_on_c, 0, 55, 0
3, 92749, Note_on_c, 0, 36, 0
3, 92760, Note_on_c, 0, 50, 86
3, 92760, Note_on_c, 0, 43, 99
3, 92769, Control_c, 0, 64, 0
3, 92787, Note_on_c, 0, 50, 0
3, 92790, Note_on_c, 0, 55, 99
3, 92804, Control_c, 0, 64, 127
3, 92813, Note_on_c, 0, 55, 0
3, 92820, Note_on_c, 0, 59, 90
3, 92848, Note_on_c, 0, 59, 0
3, 92850, Note_on_c, 0, 55, 86
3, 92869, Note_on_c, 0, 55, 0
3, 92875, Note_on_c, 0, 43, 0
3, 92880, Note_on_c, 0, 60, 99
3, 92880, Note_on_c, 0, 36, 90
3, 92882, Control_c, 0, 64, 0
3, 92911, Control_c, 0, 64, 127
3, 92937, Note_on_c, 0, 36, 0
3, 92937, Note_on_c, 0, 60, 0
3, 92940, Note_on_c, 0, 48, 99
3, 92966, Note_on_c, 0, 48, 0
3, 93000, Note_on_c, 0, 53, 90
3, 93000, Note_on_c, 0, 43, 95
3, 93008, Control_c, 0, 64, 0
3, 93028, Note_on_c, 0, 53, 0
3, 93030, Note_on_c, 0, 55, 90
3, 93039, Control_c, 0, 64, 127
3, 93058, Note_on_c, 0, 55, 0
3, 93060, Note_on_c, 0, 59, 82
3, 93087, Note_on_c, 0, 59, 0
3, 93090, Note_on_c, 0, 55, 78
3, 93118, Note_on_c, 0, 55, 0
3, 93120, Note_on_c, 0, 53, 70
3, 93145, Note_on_c, 0, 53, 0
3, 93150, Note_on_c, 0, 55, 78
3, 93179, Note_on_c, 0, 55, 0
3, 93180, Note_on_c, 0, 59, 72
3, 93210, Note_on_c, 0, 55, 78
3, 93212, Note_on_c, 0, 59, 0
3, 93228, Note_on_c, 0, 55, 0
3, 93229, Note_on_c, 0, 43, 0
3, 93240, Note_on_c, 0, 52, 86
3, 93240, Note_on_c, 0, 36, 78
3, 93253, Control_c, 0, 64, 0
3, 93270, Note_on_c, 0, 52, 0
3, 93270, Note_on_c, 0, 55, 86
3, 93277, Control_c, 0, 64, 127
3, 93295, Note_on_c, 0, 55, 0
3, 93300, Note_on_c, 0, 60, 82
3, 93328, Note_on_c, 0, 60, 0
3, 93330, Note_on_c, 0, 55, 86
3, 93353, Note_on_c, 0, 55, 0
3, 93360, Note_on_c, 0, 52, 57
3, 93386, Note_on_c, 0, 52, 0
3, 93390, Note_on_c, 0, 55, 90
3, 93409, Note_on_c, 0, 36, 0
3, 93418, Note_on_c, 0, 55, 0
3, 93420, Note_on_c, 0, 60, 86
3, 93450, Note_on_c, 0, 60, 0
3, 93450, Note_on_c, 0, 55, 86
3, 93472, Note_on_c, 0, 55, 0
3, 93480, Note_on_c, 0, 53, 95
3, 93480, Note_on_c, 0, 31, 99
3, 93480, Note_on_c, 0, 43, 82
3, 93482, Control_c, 0, 64, 0
3, 93507, Note_on_c, 0, 53, 0
3, 93509, Control_c, 0, 64, 127
3, 93510, Note_on_c, 0, 55, 95
3, 93537, Note_on_c, 0, 55, 0
3, 93540, Note_on_c, 0, 59, 86
3, 93570, Note_on_c, 0, 55, 86
3, 93575, Note_on_c, 0, 59, 0
3, 93596, Note_on_c, 0, 55, 0
3, 93600, Note_on_c, 0, 53, 86
3, 93628, Note_on_c, 0, 53, 0
3, 93630, Note_on_c, 0, 55, 86
3, 93647, Note_on_c, 0, 31, 0
3, 93659, Note_on_c, 0, 55, 0
3, 93660, Note_on_c, 0, 59, 90
3, 93671, Note_on_c, 0, 43, 0
3, 93690, Note_on_c, 0, 55, 99
3, 93697, Note_on_c, 0, 59, 0
3, 93710, Note_on_c, 0, 55, 0
3, 93720, Note_on_c, 0, 36, 78
3, 93720, Note_on_c, 0, 52, 90
3, 93720, Note_on_c, 0, 48, 70
3, 93730, Control_c, 0, 64, 0
3, 93750, Note_on_c, 0, 55, 99
3, 93753, Note_on_c, 0, 52, 0
3, 93755, Control_c, 0, 64, 127
3, 93775, Note_on_c, 0, 55, 0
3, 93780, Note_on_c, 0, 60, 78
3, 93810, Note_on_c, 0, 60, 0
3, 93810, Note_on_c, 0, 55, 90
3, 93837, Note_on_c, 0, 55, 0
3, 93840, Note_on_c, 0, 52, 74
3, 93866, Note_on_c, 0, 52, 0
3, 93870, Note_on_c, 0, 55, 103
3, 93895, Note_on_c, 0, 55, 0
3, 93900, Note_on_c, 0, 60, 90
3, 93930, Note_on_c, 0, 55, 99
3, 93934, Note_on_c, 0, 60, 0
3, 93946, Note_on_c, 0, 36, 0
3, 93948, Note_on_c, 0, 48, 0
3, 93951, Note_on_c, 0, 55, 0
3, 93960, Note_on_c, 0, 53, 99
3, 93960, Note_on_c, 0, 43, 86
3, 93971, Control_c, 0, 64, 0
3, 93990, Note_on_c, 0, 53, 0
3, 93990, Note_on_c, 0, 55, 90
3, 93998, Control_c, 0, 64, 127
3, 94015, Note_on_c, 0, 55, 0
3, 94020, Note_on_c, 0, 59, 90
3, 94050, Note_on_c, 0, 55, 90
3, 94051, Note_on_c, 0, 59, 0
3, 94074, Note_on_c, 0, 55, 0
3, 94080, Note_on_c, 0, 53, 74
3, 94107, Note_on_c, 0, 53, 0
3, 94110, Note_on_c, 0, 55, 95
3, 94138, Note_on_c, 0, 55, 0
3, 94140, Note_on_c, 0, 59, 86
3, 94170, Note_on_c, 0, 55, 72
3, 94172, Note_on_c, 0, 59, 0
3, 94182, Note_on_c, 0, 43, 0
3, 94193, Note_on_c, 0, 55, 0
3, 94200, Note_on_c, 0, 52, 99
3, 94200, Note_on_c, 0, 48, 78
3, 94200, Note_on_c, 0, 36, 78
3, 94212, Control_c, 0, 64, 0
3, 94230, Note_on_c, 0, 55, 82
3, 94232, Note_on_c, 0, 52, 0
3, 94238, Control_c, 0, 64, 127
3, 94257, Note_on_c, 0, 55, 0
3, 94260, Note_on_c, 0, 60, 82
3, 94288, Note_on_c, 0, 60, 0
3, 94290, Note_on_c, 0, 55, 82
3, 94315, Note_on_c, 0, 55, 0
3, 94320, Note_on_c, 0, 52, 95
3, 94343, Note_on_c, 0, 52, 0
3, 94350, Note_on_c, 0, 55, 99
3, 94356, Note_on_c, 0, 48, 0
3, 94364, Note_on_c, 0, 36, 0
3, 94377, Note_on_c, 0, 55, 0
3, 94380, Note_on_c, 0, 60, 86
3, 94410, Note_on_c, 0, 55, 86
3, 94412, Note_on_c, 0, 60, 0
3, 94432, Note_on_c, 0, 55, 0
3, 94440, Note_on_c, 0, 53, 99
3, 94440, Note_on_c, 0, 31, 86
3, 94440, Note_on_c, 0, 43, 74
3, 94442, Control_c, 0, 64, 0
3, 94469, Control_c, 0, 64, 127
3, 94470, Note_on_c, 0, 53, 0
3, 94470, Note_on_c, 0, 55, 99
3, 94495, Note_on_c, 0, 55, 0
3, 94500, Note_on_c, 0, 59, 90
3, 94530, Note_on_c, 0, 55, 86
3, 94533, Note_on_c, 0, 59, 0
3, 94554, Note_on_c, 0, 55, 0
3, 94560, Note_on_c, 0, 53, 99
3, 94586, Note_on_c, 0, 53, 0
3, 94590, Note_on_c, 0, 55, 90
3, 94596, Note_on_c, 0, 31, 0
3, 94616, Note_on_c, 0, 43, 0
3, 94618, Note_on_c, 0, 55, 0
3, 94620, Note_on_c, 0, 59, 86
3, 94650, Note_on_c, 0, 55, 78
3, 94654, Note_on_c, 0, 59, 0
3, 94670, Note_on_c, 0, 55, 0
3, 94680, Note_on_c, 0, 52, 90
3, 94680, Note_on_c, 0, 36, 78
3, 94680, Note_on_c, 0, 48, 78
3, 94683, Control_c, 0, 64, 0
3, 94707, Note_on_c, 0, 52, 0
3, 94707, Control_c, 0, 64, 127
3, 94710, Note_on_c, 0, 55, 103
3, 94735, Note_on_c, 0, 55, 0
3, 94740, Note_on_c, 0, 60, 82
3, 94770, Note_on_c, 0, 60, 0
3, 94770, Note_on_c, 0, 55, 99
3, 94792, Control_c, 0, 64, 0
3, 94796, Note_on_c, 0, 55, 0
3, 94800, Note_on_c, 0, 60, 99
3, 94806, Control_c, 0, 64, 127
3, 94841, Note_on_c, 0, 60, 0
3, 94847, Note_on_c, 0, 36, 0
3, 94858, Note_on_c, 0, 48, 0
3, 94915, Control_c, 0, 64, 0
3, 94920, Note_on_c, 0, 69, 90
3, 94920, Note_on_c, 0, 41, 78
3, 94950, Note_on_c, 0, 69, 0
3, 94950, Note_on_c, 0, 72, 95
3, 94951, Control_c, 0, 64, 127
3, 94976, Note_on_c, 0, 72, 0
3, 94980, Note_on_c, 0, 74, 78
3, 95005, Note_on_c, 0, 74, 0
3, 95010, Note_on_c, 0, 72, 95
3, 95023, Note_on_c, 0, 72, 0
3, 95038, Note_on_c, 0, 41, 0
3, 95040, Note_on_c, 0, 70, 99
3, 95040, Note_on_c, 0, 45, 95
3, 95048, Control_c, 0, 64, 0
3, 95066, Note_on_c, 0, 70, 0
3, 95070, Note_on_c, 0, 69, 99
3, 95077, Control_c, 0, 64, 127
3, 95090, Note_on_c, 0, 69, 0
3, 95100, Note_on_c, 0, 67, 95
3, 95128, Note_on_c, 0, 67, 0
3, 95130, Note_on_c, 0, 65, 103
3, 95147, Note_on_c, 0, 65, 0
3, 95152, Note_on_c, 0, 45, 0
3, 95160, Note_on_c, 0, 48, 90
3, 95160, Note_on_c, 0, 64, 90
3, 95162, Control_c, 0, 64, 0
3, 95177, Note_on_c, 0, 64, 0
3, 95190, Note_on_c, 0, 65, 99
3, 95195, Control_c, 0, 64, 127
3, 95211, Note_on_c, 0, 65, 0
3, 95220, Note_on_c, 0, 67, 90
3, 95241, Note_on_c, 0, 67, 0
3, 95250, Note_on_c, 0, 65, 103
3, 95268, Note_on_c, 0, 48, 0
3, 95270, Note_on_c, 0, 65, 0
3, 95280, Control_c, 0, 64, 0
3, 95280, Note_on_c, 0, 64, 103
3, 95280, Note_on_c, 0, 40, 90
3, 95303, Control_c, 0, 64, 127
3, 95310, Note_on_c, 0, 64, 0
3, 95310, Note_on_c, 0, 62, 95
3, 95325, Note_on_c, 0, 62, 0
3, 95340, Note_on_c, 0, 60, 99
3, 95359, Note_on_c, 0, 60, 0
3, 95370, Note_on_c, 0, 58, 103
3, 95385, Note_on_c, 0, 58, 0
3, 95385, Note_on_c, 0, 40, 0
3, 95400, Control_c, 0, 64, 0
3, 95400, Note_on_c, 0, 57, 99
3, 95400, Note_on_c, 0, 41, 82
3, 95420, Note_on_c, 0, 57, 0
3, 95425, Control_c, 0, 64, 127
3, 95430, Note_on_c, 0, 60, 95
3, 95452, Note_on_c, 0, 60, 0
3, 95459, Note_on_c, 0, 41, 0
3, 95460, Note_on_c, 0, 65, 95
3, 95483, Note_on_c, 0, 65, 0
3, 95490, Note_on_c, 0, 64, 90
3, 95503, Note_on_c, 0, 64, 0
3, 95516, Control_c, 0, 64, 0
3, 95520, Note_on_c, 0, 34, 90
3, 95520, Note_on_c, 0, 62, 117
3, 95542, Note_on_c, 0, 62, 0
3, 95550, Note_on_c, 0, 67, 99
3, 95557, Control_c, 0, 64, 127
3, 95568, Note_on_c, 0, 67, 0
3, 95580, Note_on_c, 0, 70, 99
3, 95603, Note_on_c, 0, 34, 0
3, 95605, Note_on_c, 0, 70, 0
3, 95610, Note_on_c, 0, 69, 103
3, 95632, Note_on_c, 0, 69, 0
3, 95640, Note_on_c, 0, 67, 103
3, 95640, Note_on_c, 0, 36, 90
3, 95644, Control_c, 0, 64, 0
3, 95658, Note_on_c, 0, 67, 0
3, 95666, Control_c, 0, 64, 127
3, 95670, Note_on_c, 0, 69, 99
3, 95681, Note_on_c, 0, 36, 0
3, 95689, Note_on_c, 0, 69, 0
3, 95700, Note_on_c, 0, 67, 108
3, 95700, Note_on_c, 0, 36, 99
3, 95717, Note_on_c, 0, 67, 0
3, 95730, Note_on_c, 0, 69, 82
3, 95744, Note_on_c, 0, 36, 0
3, 95753, Note_on_c, 0, 69, 0
3, 95760, Control_c, 0, 64, 0
3, 95760, Note_on_c, 0, 64, 103
3, 95760, Note_on_c, 0, 36, 99
3, 95782, Control_c, 0, 64, 127
3, 95809, Note_on_c, 0, 64, 0
3, 95811, Note_on_c, 0, 36, 0
3, 95872, Control_c, 0, 64, 0
3, 95880, Note_on_c, 0, 69, 108
3, 95880, Note_on_c, 0, 41, 103
3, 95900, Note_on_c, 0, 69, 0
3, 95901, Control_c, 0, 64, 127
3, 95910, Note_on_c, 0, 72, 99
3, 95928, Note_on_c, 0, 72, 0
3, 95940, Note_on_c, 0, 74, 108
3, 95963, Note_on_c, 0, 74, 0
3, 95970, Note_on_c, 0, 72, 95
3, 95986, Note_on_c, 0, 41, 0
3, 95989, Note_on_c, 0, 72, 0
3, 95998, Control_c, 0, 64, 0
3, 96000, Note_on_c, 0, 70, 112
3, 96000, Note_on_c, 0, 45, 99
3, 96020, Note_on_c, 0, 70, 0
3, 96024, Control_c, 0, 64, 127
3, 96030, Note_on_c, 0, 69, 103
3, 96056, Note_on_c, 0, 69, 0
3, 96060, Note_on_c, 0, 67, 99
3, 96078, Note_on_c, 0, 67, 0
3, 96090, Note_on_c, 0, 65, 103
3, 96106, Note_on_c, 0, 65, 0
3, 96108, Note_on_c, 0, 45, 0
3, 96115, Control_c, 0, 64, 0
3, 96120, Note_on_c, 0, 64, 99
3, 96120, Note_on_c, 0, 48, 99
3, 96140, Control_c, 0, 64, 127
3, 96142, Note_on_c, 0, 64, 0
3, 96150, Note_on_c, 0, 65, 103
3, 96168, Note_on_c, 0, 65, 0
3, 96180, Note_on_c, 0, 67, 99
3, 96200, Note_on_c, 0, 67, 0
3, 96210, Note_on_c, 0, 65, 103
3, 96220, Note_on_c, 0, 48, 0
3, 96229, Control_c, 0, 64, 0
3, 96237, Note_on_c, 0, 65, 0
3, 96240, Note_on_c, 0, 64, 108
3, 96240, Note_on_c, 0, 40, 103
3, 96251, Control_c, 0, 64, 127
3, 96257, Note_on_c, 0, 64, 0
3, 96270, Note_on_c, 0, 62, 90
3, 96291, Note_on_c, 0, 62, 0
3, 96300, Note_on_c, 0, 60, 66
3, 96318, Note_on_c, 0, 60, 0
3, 96330, Note_on_c, 0, 58, 103
3, 96337, Note_on_c, 0, 40, 0
3, 96348, Note_on_c, 0, 58, 0
3, 96354, Control_c, 0, 64, 0
3, 96360, Note_on_c, 0, 41, 86
3, 96360, Note_on_c, 0, 57, 108
3, 96379, Control_c, 0, 64, 127
3, 96383, Note_on_c, 0, 57, 0
3, 96390, Note_on_c, 0, 60, 72
3, 96414, Note_on_c, 0, 60, 0
3, 96420, Note_on_c, 0, 65, 99
3, 96425, Note_on_c, 0, 41, 0
3, 96444, Note_on_c, 0, 65, 0
3, 96450, Note_on_c, 0, 60, 99
3, 96463, Note_on_c, 0, 60, 0
3, 96472, Control_c, 0, 64, 0
3, 96480, Note_on_c, 0, 58, 117
3, 96480, Note_on_c, 0, 34, 78
3, 96495, Control_c, 0, 64, 127
3, 96502, Note_on_c, 0, 58, 0
3, 96510, Note_on_c, 0, 62, 103
3, 96540, Note_on_c, 0, 62, 0
3, 96540, Note_on_c, 0, 67, 90
3, 96563, Note_on_c, 0, 34, 0
3, 96570, Note_on_c, 0, 67, 0
3, 96570, Note_on_c, 0, 62, 103
3, 96583, Note_on_c, 0, 62, 0
3, 96596, Control_c, 0, 64, 0
3, 96600, Note_on_c, 0, 36, 95
3, 96600, Note_on_c, 0, 55, 103
3, 96621, Note_on_c, 0, 55, 0
3, 96621, Control_c, 0, 64, 127
3, 96630, Note_on_c, 0, 58, 95
3, 96651, Note_on_c, 0, 58, 0
3, 96653, Note_on_c, 0, 36, 0
3, 96660, Note_on_c, 0, 64, 99
3, 96660, Note_on_c, 0, 36, 95
3, 96690, Note_on_c, 0, 64, 0
3, 96690, Note_on_c, 0, 58, 86
3, 96697, Note_on_c, 0, 36, 0
3, 96709, Note_on_c, 0, 58, 0
3, 96709, Control_c, 0, 64, 0
3, 96720, Note_on_c, 0, 65, 103
3, 96720, Note_on_c, 0, 41, 103
3, 96731, Control_c, 0, 64, 127
3, 96753, Note_on_c, 0, 65, 0
3, 96762, Note_on_c, 0, 41, 0
3, 96813, Control_c, 0, 64, 0
3, 96840, Note_on_c, 0, 54, 103
3, 96840, Note_on_c, 0, 57, 117
3, 96840, Note_on_c, 0, 50, 123
3, 96840, Note_on_c, 0, 60, 112
3, 96840, Note_on_c, 0, 42, 112
3, 96856, Control_c, 0, 64, 127
3, 97033, Note_on_c, 0, 50, 0
3, 97034, Note_on_c, 0, 54, 0
3, 97039, Note_on_c, 0, 60, 0
3, 97042, Note_on_c, 0, 57, 0
3, 97047, Note_on_c, 0, 42, 0
3, 97066, Control_c, 0, 64, 0
3, 97080, Note_on_c, 0, 43, 103
3, 97080, Note_on_c, 0, 55, 99
3, 97080, Note_on_c, 0, 50, 95
3, 97080, Note_on_c, 0, 58, 99
3, 97097, Note_on_c, 0, 50, 0
3, 97097, Note_on_c, 0, 55, 0
3, 97102, Note_on_c, 0, 58, 0
3, 97104, Note_on_c, 0, 43, 0
3, 97140, Note_on_c, 0, 57, 103
3, 97140, Note_on_c, 0, 50, 112
3, 97140, Note_on_c, 0, 45, 103
3, 97157, Note_on_c, 0, 50, 0
3, 97158, Note_on_c, 0, 45, 0
3, 97164, Note_on_c, 0, 57, 0
3, 97200, Note_on_c, 0, 50, 112
3, 97200, Note_on_c, 0, 46, 103
3, 97200, Note_on_c, 0, 55, 112
3, 97226, Note_on_c, 0, 50, 0
3, 97229, Note_on_c, 0, 55, 0
3, 97229, Note_on_c, 0, 46, 0
3, 97320, Note_on_c, 0, 55, 108
3, 97320, Note_on_c, 0, 52, 103
3, 97320, Note_on_c, 0, 48, 112
3, 97320, Note_on_c, 0, 58, 103
3, 97320, Note_on_c, 0, 40, 117
3, 97320, Note_on_c, 0, 39, 65
3, 97324, Note_on_c, 0, 39, 0
3, 97429, Control_c, 0, 64, 127
3, 97504, Note_on_c, 0, 58, 0
3, 97505, Note_on_c, 0, 55, 0
3, 97510, Note_on_c, 0, 52, 0
3, 97512, Note_on_c, 0, 48, 0
3, 97519, Note_on_c, 0, 40, 0
3, 97550, Control_c, 0, 64, 0
3, 97560, Note_on_c, 0, 41, 103
3, 97560, Note_on_c, 0, 48, 117
3, 97560, Note_on_c, 0, 57, 103
3, 97575, Note_on_c, 0, 48, 0
3, 97579, Note_on_c, 0, 57, 0
3, 97580, Note_on_c, 0, 41, 0
3, 97620, Note_on_c, 0, 55, 103
3, 97620, Note_on_c, 0, 48, 99
3, 97620, Note_on_c, 0, 43, 103
3, 97638, Note_on_c, 0, 48, 0
3, 97641, Note_on_c, 0, 43, 0
3, 97642, Note_on_c, 0, 55, 0
3, 97672, Control_c, 0, 64, 127
3, 97680, Note_on_c, 0, 48, 103
3, 97680, Note_on_c, 0, 53, 103
3, 97680, Note_on_c, 0, 45, 108
3, 97694, Note_on_c, 0, 48, 0
3, 97697, Note_on_c, 0, 45, 0
3, 97697, Note_on_c, 0, 53, 0
3, 97697, Control_c, 0, 64, 0
3, 97800, Note_on_c, 0, 69, 108
3, 97800, Note_on_c, 0, 41, 86
3, 97812, Control_c, 0, 64, 127
3, 97820, Note_on_c, 0, 69, 0
3, 97830, Note_on_c, 0, 72, 99
3, 97848, Note_on_c, 0, 72, 0
3, 97860, Note_on_c, 0, 74, 103
3, 97879, Note_on_c, 0, 74, 0
3, 97890, Note_on_c, 0, 72, 95
3, 97905, Note_on_c, 0, 41, 0
3, 97908, Note_on_c, 0, 72, 0
3, 97912, Control_c, 0, 64, 0
3, 97920, Note_on_c, 0, 70, 117
3, 97920, Note_on_c, 0, 45, 103
3, 97938, Note_on_c, 0, 70, 0
3, 97943, Control_c, 0, 64, 127
3, 97950, Note_on_c, 0, 69, 108
3, 97970, Note_on_c, 0, 69, 0
3, 97980, Note_on_c, 0, 67, 103
3, 97997, Note_on_c, 0, 67, 0
3, 98010, Note_on_c, 0, 65, 108
3, 98024, Note_on_c, 0, 45, 0
3, 98024, Control_c, 0, 64, 0
3, 98025, Note_on_c, 0, 65, 0
3, 98040, Note_on_c, 0, 64, 112
3, 98040, Note_on_c, 0, 48, 99
3, 98055, Control_c, 0, 64, 127
3, 98060, Note_on_c, 0, 64, 0
3, 98070, Note_on_c, 0, 65, 103
3, 98087, Note_on_c, 0, 65, 0
3, 98100, Note_on_c, 0, 67, 95
3, 98124, Note_on_c, 0, 67, 0
3, 98130, Note_on_c, 0, 65, 99
3, 98142, Note_on_c, 0, 48, 0
3, 98144, Note_on_c, 0, 65, 0
3, 98150, Control_c, 0, 64, 0
3, 98160, Note_on_c, 0, 40, 99
3, 98160, Note_on_c, 0, 64, 99
3, 98179, Note_on_c, 0, 64, 0
3, 98182, Control_c, 0, 64, 127
3, 98190, Note_on_c, 0, 62, 90
3, 98209, Note_on_c, 0, 62, 0
3, 98220, Note_on_c, 0, 60, 103
3, 98246, Note_on_c, 0, 60, 0
3, 98250, Note_on_c, 0, 58, 108
3, 98261, Note_on_c, 0, 40, 0
3, 98262, Control_c, 0, 64, 0
3, 98266, Note_on_c, 0, 58, 0
3, 98280, Note_on_c, 0, 41, 90
3, 98280, Note_on_c, 0, 57, 123
3, 98280, Note_on_c, 0, 60, 90
3, 98297, Control_c, 0, 64, 127
3, 98302, Note_on_c, 0, 60, 0
3, 98302, Note_on_c, 0, 57, 0
3, 98310, Note_on_c, 0, 65, 86
3, 98334, Note_on_c, 0, 65, 0
3, 98339, Note_on_c, 0, 41, 0
3, 98340, Note_on_c, 0, 60, 95
3, 98354, Note_on_c, 0, 60, 0
3, 98370, Note_on_c, 0, 58, 108
3, 98370, Note_on_c, 0, 34, 95
3, 98376, Control_c, 0, 64, 0
3, 98389, Note_on_c, 0, 58, 0
3, 98400, Note_on_c, 0, 62, 103
3, 98402, Control_c, 0, 64, 127
3, 98422, Note_on_c, 0, 62, 0
3, 98430, Note_on_c, 0, 67, 86
3, 98451, Note_on_c, 0, 34, 0
3, 98455, Note_on_c, 0, 67, 0
3, 98460, Note_on_c, 0, 62, 90
3, 98473, Note_on_c, 0, 62, 0
3, 98490, Note_on_c, 0, 55, 103
3, 98503, Control_c, 0, 64, 0
3, 98511, Note_on_c, 0, 55, 0
3, 98520, Note_on_c, 0, 36, 103
3, 98520, Note_on_c, 0, 58, 99
3, 98534, Control_c, 0, 64, 127
3, 98542, Note_on_c, 0, 58, 0
3, 98580, Note_on_c, 0, 64, 82
3, 98606, Note_on_c, 0, 64, 0
3, 98610, Note_on_c, 0, 58, 108
3, 98616, Control_c, 0, 64, 0
3, 98624, Note_on_c, 0, 36, 0
3, 98628, Note_on_c, 0, 58, 0
3, 98640, Note_on_c, 0, 65, 103
3, 98640, Note_on_c, 0, 41, 99
3, 98641, Control_c, 0, 64, 127
3, 98675, Note_on_c, 0, 65, 0
3, 98680, Note_on_c, 0, 41, 0
3, 98720, Control_c, 0, 64, 0
3, 98760, Note_on_c, 0, 52, 78
3, 98760, Note_on_c, 0, 48, 70
3, 98770, Control_c, 0, 64, 127
3, 98789, Note_on_c, 0, 52, 0
3, 98790, Note_on_c, 0, 55, 95
3, 98815, Note_on_c, 0, 55, 0
3, 98820, Note_on_c, 0, 60, 82
3, 98849, Note_on_c, 0, 60, 0
3, 98850, Note_on_c, 0, 55, 82
3, 98869, Note_on_c, 0, 55, 0
3, 98880, Note_on_c, 0, 52, 78
3, 98903, Note_on_c, 0, 52, 0
3, 98910, Note_on_c, 0, 55, 99
3, 98934, Note_on_c, 0, 55, 0
3, 98940, Note_on_c, 0, 60, 95
3, 98965, Note_on_c, 0, 60, 0
3, 98970, Note_on_c, 0, 55, 86
3, 98984, Note_on_c, 0, 48, 0
3, 98987, Note_on_c, 0, 55, 0
3, 99000, Note_on_c, 0, 53, 103
3, 99000, Note_on_c, 0, 43, 99
3, 99002, Control_c, 0, 64, 0
3, 99025, Note_on_c, 0, 53, 0
3, 99028, Control_c, 0, 64, 127
3, 99030, Note_on_c, 0, 55, 82
3, 99054, Note_on_c, 0, 55, 0
3, 99060, Note_on_c, 0, 59, 99
3, 99085, Note_on_c, 0, 59, 0
3, 99090, Note_on_c, 0, 55, 86
3, 99111, Note_on_c, 0, 55, 0
3, 99120, Note_on_c, 0, 53, 99
3, 99145, Note_on_c, 0, 53, 0
3, 99150, Note_on_c, 0, 55, 95
3, 99175, Note_on_c, 0, 55, 0
3, 99180, Note_on_c, 0, 59, 90
3, 99206, Note_on_c, 0, 59, 0
3, 99210, Note_on_c, 0, 55, 78
3, 99215, Note_on_c, 0, 43, 0
3, 99226, Note_on_c, 0, 55, 0
3, 99237, Control_c, 0, 64, 0
3, 99240, Note_on_c, 0, 52, 103
3, 99240, Note_on_c, 0, 36, 95
3, 99262, Control_c, 0, 64, 127
3, 99263, Note_on_c, 0, 52, 0
3, 99270, Note_on_c, 0, 55, 99
3, 99295, Note_on_c, 0, 55, 0
3, 99300, Note_on_c, 0, 60, 95
3, 99328, Note_on_c, 0, 60, 0
3, 99330, Note_on_c, 0, 55, 86
3, 99351, Note_on_c, 0, 55, 0
3, 99360, Note_on_c, 0, 52, 86
3, 99384, Note_on_c, 0, 52, 0
3, 99390, Note_on_c, 0, 55, 103
3, 99412, Note_on_c, 0, 55, 0
3, 99420, Note_on_c, 0, 60, 95
3, 99444, Note_on_c, 0, 60, 0
3, 99450, Note_on_c, 0, 55, 86
3, 99459, Note_on_c, 0, 36, 0
3, 99469, Note_on_c, 0, 55, 0
3, 99478, Control_c, 0, 64, 0
3, 99480, Note_on_c, 0, 53, 108
3, 99480, Note_on_c, 0, 43, 86
3, 99501, Control_c, 0, 64, 127
3, 99505, Note_on_c, 0, 53, 0
3, 99510, Note_on_c, 0, 55, 95
3, 99535, Note_on_c, 0, 55, 0
3, 99540, Note_on_c, 0, 59, 86
3, 99567, Note_on_c, 0, 59, 0
3, 99570, Note_on_c, 0, 55, 86
3, 99590, Note_on_c, 0, 55, 0
3, 99600, Note_on_c, 0, 53, 103
3, 99624, Note_on_c, 0, 53, 0
3, 99630, Note_on_c, 0, 55, 86
3, 99654, Note_on_c, 0, 55, 0
3, 99660, Note_on_c, 0, 59, 86
3, 99681, Note_on_c, 0, 43, 0
3, 99683, Note_on_c, 0, 59, 0
3, 99690, Note_on_c, 0, 55, 95
3, 99706, Note_on_c, 0, 55, 0
3, 99716, Control_c, 0, 64, 0
3, 99720, Note_on_c, 0, 52, 112
3, 99720, Note_on_c, 0, 48, 90
3, 99740, Control_c, 0, 64, 127
3, 99742, Note_on_c, 0, 52, 0
3, 99750, Note_on_c, 0, 55, 99
3, 99774, Note_on_c, 0, 55, 0
3, 99780, Note_on_c, 0, 60, 95
3, 99806, Note_on_c, 0, 60, 0
3, 99810, Note_on_c, 0, 55, 90
3, 99830, Note_on_c, 0, 55, 0
3, 99840, Note_on_c, 0, 52, 90
3, 99862, Note_on_c, 0, 52, 0
3, 99870, Note_on_c, 0, 55, 95
3, 99894, Note_on_c, 0, 55, 0
3, 99900, Note_on_c, 0, 60, 99
3, 99926, Note_on_c, 0, 60, 0
3, 99930, Note_on_c, 0, 55, 82
3, 99947, Note_on_c, 0, 55, 0
3, 99951, Note_on_c, 0, 48, 0
3, 99957, Control_c, 0, 64, 0
3, 99960, Note_on_c, 0, 53, 103
3, 99960, Note_on_c, 0, 43, 82
3, 99980, Control_c, 0, 64, 127
3, 99984, Note_on_c, 0, 53, 0
3, 99990, Note_on_c, 0, 55, 99
3, 100012, Note_on_c, 0, 55, 0
3, 100020, Note_on_c, 0, 59, 90
3, 100047, Note_on_c, 0, 59, 0
3, 100050, Note_on_c, 0, 55, 86
3, 100069, Note_on_c, 0, 55, 0
3, 100080, Note_on_c, 0, 53, 99
3, 100102, Note_on_c, 0, 53, 0
3, 100110, Note_on_c, 0, 55, 95
3, 100133, Note_on_c, 0, 55, 0
3, 100140, Note_on_c, 0, 59, 90
3, 100163, Note_on_c, 0, 59, 0
3, 100170, Note_on_c, 0, 55, 95
3, 100185, Note_on_c, 0, 55, 0
3, 100193, Note_on_c, 0, 43, 0
3, 100199, Control_c, 0, 64, 0
3, 100200, Note_on_c, 0, 52, 103
3, 100200, Note_on_c, 0, 36, 99
3, 100222, Note_on_c, 0, 52, 0
3, 100222, Control_c, 0, 64, 127
3, 100230, Note_on_c, 0, 55, 95
3, 100253, Note_on_c, 0, 55, 0
3, 100260, Note_on_c, 0, 60, 90
3, 100285, Note_on_c, 0, 60, 0
3, 100290, Note_on_c, 0, 55, 86
3, 100308, Note_on_c, 0, 55, 0
3, 100320, Note_on_c, 0, 52, 99
3, 100341, Note_on_c, 0, 52, 0
3, 100350, Note_on_c, 0, 55, 86
3, 100373, Note_on_c, 0, 55, 0
3, 100380, Note_on_c, 0, 60, 99
3, 100410, Note_on_c, 0, 55, 82
3, 100414, Note_on_c, 0, 60, 0
3, 100429, Note_on_c, 0, 55, 0
3, 100433, Note_on_c, 0, 36, 0
3, 100440, Note_on_c, 0, 50, 66
3, 100440, Note_on_c, 0, 43, 95
3, 100444, Control_c, 0, 64, 0
3, 100466, Note_on_c, 0, 50, 0
3, 100467, Control_c, 0, 64, 127
3, 100470, Note_on_c, 0, 55, 99
3, 100493, Note_on_c, 0, 55, 0
3, 100500, Note_on_c, 0, 59, 99
3, 100527, Note_on_c, 0, 59, 0
3, 100530, Note_on_c, 0, 55, 99
3, 100543, Note_on_c, 0, 43, 0
3, 100549, Note_on_c, 0, 55, 0
3, 100549, Control_c, 0, 64, 0
3, 100560, Note_on_c, 0, 60, 103
3, 100560, Note_on_c, 0, 36, 99
3, 100560, Note_on_c, 0, 48, 86
3, 100568, Control_c, 0, 64, 127
3, 100606, Note_on_c, 0, 60, 0
3, 100617, Note_on_c, 0, 36, 0
3, 100621, Note_on_c, 0, 48, 0
3, 100649, Control_c, 0, 64, 0
3, 100680, Note_on_c, 0, 53, 108
3, 100680, Note_on_c, 0, 43, 95
3, 100687, Control_c, 0, 64, 127
3, 100704, Note_on_c, 0, 53, 0
3, 100710, Note_on_c, 0, 55, 99
3, 100731, Note_on_c, 0, 55, 0
3, 100740, Note_on_c, 0, 59, 95
3, 100766, Note_on_c, 0, 59, 0
3, 100770, Note_on_c, 0, 55, 90
3, 100788, Note_on_c, 0, 55, 0
3, 100800, Note_on_c, 0, 53, 99
3, 100804, Control_c, 0, 64, 0
3, 100817, Control_c, 0, 64, 127
3, 100828, Note_on_c, 0, 53, 0
3, 100830, Note_on_c, 0, 55, 90
3, 100853, Note_on_c, 0, 55, 0
3, 100860, Note_on_c, 0, 59, 95
3, 100884, Note_on_c, 0, 59, 0
3, 100890, Note_on_c, 0, 55, 90
3, 100908, Note_on_c, 0, 43, 0
3, 100909, Note_on_c, 0, 55, 0
3, 100920, Note_on_c, 0, 52, 112
3, 100920, Note_on_c, 0, 36, 99
3, 100933, Control_c, 0, 64, 0
3, 100950, Note_on_c, 0, 52, 0
3, 100950, Note_on_c, 0, 55, 99
3, 100957, Control_c, 0, 64, 127
3, 100974, Note_on_c, 0, 55, 0
3, 100980, Note_on_c, 0, 60, 103
3, 101005, Note_on_c, 0, 60, 0
3, 101010, Note_on_c, 0, 55, 74
3, 101034, Note_on_c, 0, 55, 0
3, 101040, Note_on_c, 0, 52, 99
3, 101062, Note_on_c, 0, 52, 0
3, 101070, Note_on_c, 0, 55, 99
3, 101090, Note_on_c, 0, 55, 0
3, 101100, Note_on_c, 0, 60, 99
3, 101105, Note_on_c, 0, 36, 0
3, 101127, Note_on_c, 0, 60, 0
3, 101130, Note_on_c, 0, 55, 90
3, 101147, Note_on_c, 0, 55, 0
3, 101159, Control_c, 0, 64, 0
3, 101160, Note_on_c, 0, 53, 112
3, 101160, Note_on_c, 0, 31, 99
3, 101160, Note_on_c, 0, 43, 99
3, 101184, Control_c, 0, 64, 127
3, 101185, Note_on_c, 0, 53, 0
3, 101190, Note_on_c, 0, 55, 86
3, 101213, Note_on_c, 0, 55, 0
3, 101220, Note_on_c, 0, 59, 103
3, 101244, Note_on_c, 0, 59, 0
3, 101250, Note_on_c, 0, 55, 82
3, 101269, Note_on_c, 0, 55, 0
3, 101280, Note_on_c, 0, 53, 108
3, 101301, Note_on_c, 0, 53, 0
3, 101310, Note_on_c, 0, 55, 95
3, 101327, Note_on_c, 0, 31, 0
3, 101330, Note_on_c, 0, 55, 0
3, 101340, Note_on_c, 0, 59, 99
3, 101342, Note_on_c, 0, 43, 0
3, 101363, Note_on_c, 0, 59, 0
3, 101370, Note_on_c, 0, 55, 95
3, 101386, Note_on_c, 0, 55, 0
3, 101400, Note_on_c, 0, 36, 90
3, 101400, Note_on_c, 0, 52, 103
3, 101400, Note_on_c, 0, 48, 74
3, 101401, Control_c, 0, 64, 0
3, 101423, Note_on_c, 0, 52, 0
3, 101426, Control_c, 0, 64, 127
3, 101430, Note_on_c, 0, 55, 103
3, 101453, Note_on_c, 0, 55, 0
3, 101460, Note_on_c, 0, 60, 86
3, 101486, Note_on_c, 0, 60, 0
3, 101490, Note_on_c, 0, 55, 99
3, 101510, Note_on_c, 0, 55, 0
3, 101520, Note_on_c, 0, 52, 108
3, 101539, Note_on_c, 0, 52, 0
3, 101550, Note_on_c, 0, 55, 103
3, 101570, Note_on_c, 0, 55, 0
3, 101580, Note_on_c, 0, 60, 95
3, 101605, Note_on_c, 0, 60, 0
3, 101610, Note_on_c, 0, 55, 95
3, 101628, Note_on_c, 0, 55, 0
3, 101632, Note_on_c, 0, 48, 0
3, 101635, Note_on_c, 0, 36, 0
3, 101640, Note_on_c, 0, 53, 103
3, 101640, Note_on_c, 0, 43, 82
3, 101640, Control_c, 0, 64, 0
3, 101663, Control_c, 0, 64, 127
3, 101664, Note_on_c, 0, 53, 0
3, 101670, Note_on_c, 0, 55, 99
3, 101693, Note_on_c, 0, 55, 0
3, 101700, Note_on_c, 0, 59, 90
3, 101724, Note_on_c, 0, 59, 0
3, 101730, Note_on_c, 0, 55, 86
3, 101750, Note_on_c, 0, 55, 0
3, 101760, Note_on_c, 0, 53, 103
3, 101782, Note_on_c, 0, 53, 0
3, 101790, Note_on_c, 0, 55, 95
3, 101813, Note_on_c, 0, 55, 0
3, 101820, Note_on_c, 0, 59, 90
3, 101849, Note_on_c, 0, 59, 0
3, 101850, Note_on_c, 0, 55, 78
3, 101869, Note_on_c, 0, 55, 0
3, 101872, Note_on_c, 0, 43, 0
3, 101878, Control_c, 0, 64, 0
3, 101880, Note_on_c, 0, 52, 108
3, 101880, Note_on_c, 0, 36, 95
3, 101900, Control_c, 0, 64, 127
3, 101905, Note_on_c, 0, 52, 0
3, 101910, Note_on_c, 0, 55, 95
3, 101934, Note_on_c, 0, 55, 0
3, 101940, Note_on_c, 0, 60, 95
3, 101968, Note_on_c, 0, 60, 0
3, 101970, Note_on_c, 0, 55, 95
3, 101992, Note_on_c, 0, 55, 0
3, 102000, Note_on_c, 0, 52, 103
3, 102024, Note_on_c, 0, 52, 0
3, 102030, Note_on_c, 0, 55, 99
3, 102052, Note_on_c, 0, 36, 0
3, 102054, Note_on_c, 0, 55, 0
3, 102060, Note_on_c, 0, 60, 99
3, 102088, Note_on_c, 0, 60, 0
3, 102090, Note_on_c, 0, 55, 95
3, 102109, Note_on_c, 0, 55, 0
3, 102111, Control_c, 0, 64, 0
3, 102120, Note_on_c, 0, 53, 108
3, 102120, Note_on_c, 0, 31, 95
3, 102120, Note_on_c, 0, 43, 82
3, 102136, Control_c, 0, 64, 127
3, 102145, Note_on_c, 0, 53, 0
3, 102150, Note_on_c, 0, 55, 99
3, 102172, Note_on_c, 0, 55, 0
3, 102180, Note_on_c, 0, 59, 90
3, 102206, Note_on_c, 0, 59, 0
3, 102210, Note_on_c, 0, 55, 86
3, 102232, Note_on_c, 0, 55, 0
3, 102240, Note_on_c, 0, 53, 108
3, 102264, Note_on_c, 0, 53, 0
3, 102270, Note_on_c, 0, 55, 95
3, 102292, Note_on_c, 0, 55, 0
3, 102294, Note_on_c, 0, 31, 0
3, 102300, Note_on_c, 0, 59, 95
3, 102316, Note_on_c, 0, 43, 0
3, 102329, Note_on_c, 0, 59, 0
3, 102330, Note_on_c, 0, 55, 90
3, 102350, Note_on_c, 0, 55, 0
3, 102354, Control_c, 0, 64, 0
3, 102360, Note_on_c, 0, 36, 86
3, 102360, Note_on_c, 0, 48, 74
3, 102360, Note_on_c, 0, 52, 103
3, 102378, Control_c, 0, 64, 127
3, 102385, Note_on_c, 0, 52, 0
3, 102390, Note_on_c, 0, 55, 95
3, 102415, Note_on_c, 0, 55, 0
3, 102420, Note_on_c, 0, 60, 99
3, 102448, Note_on_c, 0, 60, 0
3, 102450, Note_on_c, 0, 59, 103
3, 102470, Note_on_c, 0, 59, 0
3, 102480, Note_on_c, 0, 60, 103
3, 102502, Control_c, 0, 64, 0
3, 102524, Control_c, 0, 64, 127
3, 102561, Note_on_c, 0, 36, 0
3, 102562, Note_on_c, 0, 60, 0
3, 102562, Note_on_c, 0, 48, 0
3, 102573, Control_c, 0, 64, 0
3, 102600, Note_on_c, 0, 57, 103
3, 102600, Note_on_c, 0, 60, 90
3, 102600, Note_on_c, 0, 41, 82
3, 102604, Control_c, 0, 64, 127
3, 102740, Note_on_c, 0, 57, 0
3, 102741, Note_on_c, 0, 60, 0
3, 102780, Note_on_c, 0, 58, 82
3, 102780, Note_on_c, 0, 55, 103
3, 102800, Note_on_c, 0, 55, 0
3, 102805, Note_on_c, 0, 58, 0
3, 102816, Note_on_c, 0, 41, 0
3, 102840, Note_on_c, 0, 53, 108
3, 102840, Note_on_c, 0, 57, 103
3, 102840, Note_on_c, 0, 41, 86
3, 102851, Control_c, 0, 64, 0
3, 102887, Control_c, 0, 64, 127
3, 102925, Note_on_c, 0, 57, 0
3, 102930, Note_on_c, 0, 53, 0
3, 102960, Note_on_c, 0, 53, 99
3, 102960, Note_on_c, 0, 57, 103
3, 102985, Note_on_c, 0, 57, 0
3, 102986, Note_on_c, 0, 53, 0
3, 102998, Note_on_c, 0, 41, 0
3, 103072, Control_c, 0, 64, 0
3, 103080, Note_on_c, 0, 57, 108
3, 103080, Note_on_c, 0, 41, 86
3, 103080, Note_on_c, 0, 48, 103
3, 103109, Control_c, 0, 64, 127
3, 103149, Note_on_c, 0, 57, 0
3, 103159, Note_on_c, 0, 48, 0
3, 103260, Note_on_c, 0, 55, 99
3, 103260, Note_on_c, 0, 46, 103
3, 103271, Note_on_c, 0, 41, 0
3, 103279, Note_on_c, 0, 46, 0
3, 103284, Note_on_c, 0, 55, 0
3, 103307, Control_c, 0, 64, 0
3, 103320, Note_on_c, 0, 41, 82
3, 103320, Note_on_c, 0, 45, 99
3, 103320, Note_on_c, 0, 53, 99
3, 103363, Control_c, 0, 64, 127
3, 103389, Note_on_c, 0, 53, 0
3, 103395, Note_on_c, 0, 45, 0
3, 103440, Note_on_c, 0, 53, 103
3, 103440, Note_on_c, 0, 45, 103
3, 103459, Note_on_c, 0, 45, 0
3, 103464, Note_on_c, 0, 53, 0
3, 103464, Note_on_c, 0, 41, 0
3, 103547, Control_c, 0, 64, 0
3, 103560, Note_on_c, 0, 48, 90
3, 103560, Note_on_c, 0, 52, 103
3, 103593, Control_c, 0, 64, 127
3, 103619, Note_on_c, 0, 52, 0
3, 103620, Note_on_c, 0, 55, 95
3, 103677, Note_on_c, 0, 55, 0
3, 103678, Control_c, 0, 64, 0
3, 103680, Note_on_c, 0, 60, 108
3, 103694, Note_on_c, 0, 60, 0
3, 103740, Note_on_c, 0, 60, 112
3, 103756, Note_on_c, 0, 60, 0
3, 103799, Note_on_c, 0, 48, 0
3, 103800, Note_on_c, 0, 41, 86
3, 103800, Note_on_c, 0, 53, 99
3, 103840, Control_c, 0, 64, 127
3, 103858, Note_on_c, 0, 53, 0
3, 103860, Note_on_c, 0, 57, 103
3, 103878, Note_on_c, 0, 57, 0
3, 103920, Note_on_c, 0, 60, 117
3, 103932, Control_c, 0, 64, 0
3, 103933, Note_on_c, 0, 60, 0
3, 103980, Note_on_c, 0, 60, 108
3, 103996, Note_on_c, 0, 60, 0
3, 104030, Note_on_c, 0, 41, 0
3, 104040, Note_on_c, 0, 36, 90
3, 104040, Note_on_c, 0, 52, 99
3, 104085, Control_c, 0, 64, 127
3, 104093, Note_on_c, 0, 52, 0
3, 104100, Note_on_c, 0, 55, 95
3, 104121, Note_on_c, 0, 55, 0
3, 104158, Control_c, 0, 64, 0
3, 104160, Note_on_c, 0, 60, 108
3, 104176, Note_on_c, 0, 60, 0
3, 104220, Note_on_c, 0, 60, 99
3, 104222, Note_on_c, 0, 36, 0
3, 104242, Note_on_c, 0, 60, 0
3, 104280, Note_on_c, 0, 57, 103
3, 104280, Note_on_c, 0, 53, 108
3, 104288, Control_c, 0, 64, 127
3, 104310, Note_on_c, 0, 53, 0
3, 104310, Note_on_c, 0, 57, 0
3, 104400, Note_on_c, 0, 53, 103
3, 104402, Control_c, 0, 64, 0
3, 104427, Note_on_c, 0, 53, 0
3, 104430, Note_on_c, 0, 48, 103
3, 104452, Note_on_c, 0, 48, 0
3, 104460, Note_on_c, 0, 45, 90
3, 104489, Note_on_c, 0, 45, 0
3, 104490, Note_on_c, 0, 41, 117
3, 104512, Note_on_c, 0, 41, 0
3, 104520, Note_on_c, 0, 55, 95
3, 104520, Note_on_c, 0, 52, 99
3, 104520, Note_on_c, 0, 36, 90
3, 104545, Control_c, 0, 64, 127
3, 104585, Note_on_c, 0, 52, 0
3, 104586, Note_on_c, 0, 55, 0
3, 104700, Note_on_c, 0, 36, 0
3, 104700, Note_on_c, 0, 53, 82
3, 104700, Note_on_c, 0, 50, 103
3, 104726, Note_on_c, 0, 50, 0
3, 104726, Note_on_c, 0, 53, 0
3, 104742, Control_c, 0, 64, 0
3, 104760, Note_on_c, 0, 48, 95
3, 104760, Note_on_c, 0, 36, 74
3, 104760, Note_on_c, 0, 52, 99
3, 104794, Control_c, 0, 64, 127
3, 104801, Note_on_c, 0, 48, 0
3, 104807, Note_on_c, 0, 52, 0
3, 104820, Note_on_c, 0, 53, 90
3, 104820, Note_on_c, 0, 50, 90
3, 104846, Note_on_c, 0, 50, 0
3, 104855, Note_on_c, 0, 53, 0
3, 104859, Control_c, 0, 64, 0
3, 104880, Note_on_c, 0, 55, 99
3, 104880, Note_on_c, 0, 52, 99
3, 104886, Control_c, 0, 64, 127
3, 104900, Note_on_c, 0, 52, 0
3, 104904, Note_on_c, 0, 55, 0
3, 104940, Note_on_c, 0, 53, 103
3, 104940, Note_on_c, 0, 57, 99
3, 104952, Note_on_c, 0, 36, 0
3, 104955, Note_on_c, 0, 57, 0
3, 104958, Note_on_c, 0, 53, 0
3, 104971, Control_c, 0, 64, 0
3, 105000, Note_on_c, 0, 58, 90
3, 105000, Note_on_c, 0, 36, 90
3, 105000, Note_on_c, 0, 55, 95
3, 105036, Control_c, 0, 64, 127
3, 105074, Note_on_c, 0, 55, 0
3, 105080, Note_on_c, 0, 58, 0
3, 105103, Control_c, 0, 64, 0
3, 105120, Note_on_c, 0, 53, 99
3, 105120, Note_on_c, 0, 57, 103
3, 105128, Control_c, 0, 64, 127
3, 105194, Note_on_c, 0, 57, 0
3, 105198, Note_on_c, 0, 53, 0
3, 105225, Note_on_c, 0, 36, 0
3, 105237, Control_c, 0, 64, 0
3, 105240, Note_on_c, 0, 36, 78
3, 105240, Note_on_c, 0, 55, 103
3, 105240, Note_on_c, 0, 52, 103
3, 105272, Control_c, 0, 64, 127
3, 105307, Note_on_c, 0, 52, 0
3, 105317, Note_on_c, 0, 55, 0
3, 105357, Control_c, 0, 64, 0
3, 105471, Note_on_c, 0, 36, 0
3, 105480, Note_on_c, 0, 41, 99
3, 105480, Note_on_c, 0, 60, 108
3, 105480, Note_on_c, 0, 57, 112
3, 105517, Control_c, 0, 64, 127
3, 105558, Note_on_c, 0, 60, 0
3, 105560, Note_on_c, 0, 57, 0
3, 105660, Note_on_c, 0, 58, 82
3, 105660, Note_on_c, 0, 55, 99
3, 105685, Note_on_c, 0, 55, 0
3, 105690, Note_on_c, 0, 58, 0
3, 105695, Note_on_c, 0, 41, 0
3, 105713, Control_c, 0, 64, 0
3, 105720, Note_on_c, 0, 41, 86
3, 105720, Note_on_c, 0, 57, 108
3, 105720, Note_on_c, 0, 53, 108
3, 105761, Control_c, 0, 64, 127
3, 105762, Note_on_c, 0, 53, 0
3, 105766, Note_on_c, 0, 57, 0
3, 105780, Note_on_c, 0, 58, 82
3, 105780, Note_on_c, 0, 55, 99
3, 105805, Note_on_c, 0, 55, 0
3, 105815, Note_on_c, 0, 58, 0
3, 105827, Control_c, 0, 64, 0
3, 105840, Note_on_c, 0, 57, 103
3, 105840, Note_on_c, 0, 60, 103
3, 105853, Control_c, 0, 64, 127
3, 105866, Note_on_c, 0, 57, 0
3, 105868, Note_on_c, 0, 60, 0
3, 105900, Note_on_c, 0, 62, 108
3, 105900, Note_on_c, 0, 58, 103
3, 105917, Note_on_c, 0, 41, 0
3, 105921, Note_on_c, 0, 58, 0
3, 105921, Note_on_c, 0, 62, 0
3, 105938, Control_c, 0, 64, 0
3, 105960, Note_on_c, 0, 60, 99
3, 105960, Note_on_c, 0, 41, 86
3, 105960, Note_on_c, 0, 63, 99
3, 105960, Note_on_c, 0, 63, 95
3, 105960, Note_on_c, 0, 60, 108
3, 105960, Note_on_c, 0, 41, 86
3, 105974, Control_c, 0, 64, 127
3, 105990, Note_on_c, 0, 63, 0
3, 106014, Note_on_c, 0, 60, 0
3, 106018, Note_on_c, 0, 63, 0
3, 106027, Note_on_c, 0, 60, 0
3, 106080, Note_on_c, 0, 58, 99
3, 106080, Note_on_c, 0, 62, 108
3, 106119, Note_on_c, 0, 58, 0
3, 106122, Note_on_c, 0, 62, 0
3, 106156, Note_on_c, 0, 41, 0
3, 106197, Control_c, 0, 64, 0
3, 106200, Note_on_c, 0, 57, 108
3, 106200, Note_on_c, 0, 60, 108
3, 106200, Note_on_c, 0, 41, 86
3, 106228, Control_c, 0, 64, 127
3, 106300, Note_on_c, 0, 41, 0
3, 106309, Note_on_c, 0, 57, 0
3, 106310, Note_on_c, 0, 60, 0
3, 106324, Control_c, 0, 64, 0
3, 106381, Note_on_c, 0, 41, 0
3, 107160, Note_on_c, 0, 48, 103
3, 107160, Note_on_c, 0, 60, 108
3, 107173, Control_c, 0, 64, 127
3, 107204, Control_c, 0, 64, 0
3, 107214, Note_on_c, 0, 60, 0
3, 107220, Note_on_c, 0, 46, 103
3, 107220, Note_on_c, 0, 58, 99
3, 107221, Note_on_c, 0, 48, 0
3, 107273, Note_on_c, 0, 58, 0
3, 107280, Note_on_c, 0, 46, 0
3, 107280, Note_on_c, 0, 57, 103
3, 107280, Note_on_c, 0, 45, 82
3, 107289, Control_c, 0, 64, 127
3, 107328, Control_c, 0, 64, 0
3, 107338, Note_on_c, 0, 45, 0
3, 107339, Note_on_c, 0, 57, 0
3, 107340, Note_on_c, 0, 43, 78
3, 107340, Note_on_c, 0, 55, 99
3, 107388, Note_on_c, 0, 55, 0
3, 107400, Note_on_c, 0, 43, 0
3, 107400, Note_on_c, 0, 41, 99
3, 107400, Note_on_c, 0, 60, 103
3, 107400, Note_on_c, 0, 57, 108
3, 107442, Control_c, 0, 64, 127
3, 107492, Note_on_c, 0, 57, 0
3, 107492, Note_on_c, 0, 60, 0
3, 107580, Note_on_c, 0, 58, 90
3, 107580, Note_on_c, 0, 55, 99
3, 107603, Note_on_c, 0, 55, 0
3, 107610, Note_on_c, 0, 58, 0
3, 107612, Note_on_c, 0, 41, 0
3, 107640, Note_on_c, 0, 57, 112
3, 107640, Note_on_c, 0, 53, 117
3, 107640, Note_on_c, 0, 41, 103
3, 107644, Control_c, 0, 64, 0
3, 107686, Control_c, 0, 64, 127
3, 107731, Note_on_c, 0, 57, 0
3, 107734, Note_on_c, 0, 53, 0
3, 107760, Note_on_c, 0, 53, 108
3, 107760, Note_on_c, 0, 57, 108
3, 107789, Note_on_c, 0, 53, 0
3, 107790, Note_on_c, 0, 57, 0
3, 107814, Note_on_c, 0, 41, 0
3, 107868, Control_c, 0, 64, 0
3, 107880, Note_on_c, 0, 57, 112
3, 107880, Note_on_c, 0, 53, 108
3, 107880, Note_on_c, 0, 38, 99
3, 107880, Note_on_c, 0, 50, 112
3, 107912, Control_c, 0, 64, 127
3, 107971, Note_on_c, 0, 57, 0
3, 107974, Note_on_c, 0, 53, 0
3, 107977, Note_on_c, 0, 50, 0
3, 108060, Note_on_c, 0, 52, 108
3, 108060, Note_on_c, 0, 55, 103
3, 108082, Note_on_c, 0, 52, 0
3, 108084, Note_on_c, 0, 38, 0
3, 108087, Note_on_c, 0, 55, 0
3, 108118, Control_c, 0, 64, 0
3, 108120, Note_on_c, 0, 50, 108
3, 108120, Note_on_c, 0, 53, 103
3, 108120, Note_on_c, 0, 38, 103
3, 108165, Control_c, 0, 64, 127
3, 108204, Note_on_c, 0, 50, 0
3, 108212, Note_on_c, 0, 53, 0
3, 108240, Note_on_c, 0, 53, 99
3, 108240, Note_on_c, 0, 50, 99
3, 108244, Note_on_c, 0, 38, 0
3, 108264, Note_on_c, 0, 53, 0
3, 108275, Note_on_c, 0, 50, 0
3, 108360, Note_on_c, 0, 53, 112
3, 108360, Note_on_c, 0, 50, 117
3, 108360, Note_on_c, 0, 34, 90
3, 108370, Control_c, 0, 64, 0
3, 108419, Control_c, 0, 64, 127
3, 108455, Note_on_c, 0, 50, 0
3, 108459, Note_on_c, 0, 53, 0
3, 108540, Note_on_c, 0, 48, 90
3, 108540, Note_on_c, 0, 51, 86
3, 108548, Note_on_c, 0, 34, 0
3, 108562, Note_on_c, 0, 48, 0
3, 108569, Note_on_c, 0, 51, 0
3, 108589, Control_c, 0, 64, 0
3, 108600, Note_on_c, 0, 34, 90
3, 108600, Note_on_c, 0, 50, 117
3, 108600, Note_on_c, 0, 46, 108
3, 108626, Control_c, 0, 64, 127
3, 108643, Note_on_c, 0, 46, 0
3, 108643, Note_on_c, 0, 50, 0
3, 108780, Note_on_c, 0, 58, 99
3, 108780, Note_on_c, 0, 50, 103
3, 108789, Note_on_c, 0, 34, 0
3, 108806, Note_on_c, 0, 50, 0
3, 108809, Note_on_c, 0, 58, 0
3, 108826, Control_c, 0, 64, 0
3, 108840, Note_on_c, 0, 57, 103
3, 108840, Note_on_c, 0, 36, 86
3, 108840, Note_on_c, 0, 48, 108
3, 108860, Control_c, 0, 64, 127
3, 108871, Note_on_c, 0, 48, 0
3, 108877, Note_on_c, 0, 57, 0
3, 108900, Note_on_c, 0, 55, 103
3, 108900, Note_on_c, 0, 46, 99
3, 108931, Note_on_c, 0, 46, 0
3, 108937, Note_on_c, 0, 55, 0
3, 108945, Control_c, 0, 64, 0
3, 108960, Note_on_c, 0, 45, 99
3, 108960, Note_on_c, 0, 53, 103
3, 108971, Control_c, 0, 64, 127
3, 108990, Note_on_c, 0, 45, 0
3, 108992, Note_on_c, 0, 53, 0
3, 109020, Note_on_c, 0, 52, 70
3, 109020, Note_on_c, 0, 43, 86
3, 109047, Note_on_c, 0, 36, 0
3, 109051, Note_on_c, 0, 43, 0
3, 109064, Note_on_c, 0, 52, 0
3, 109065, Control_c, 0, 64, 0
3, 109080, Note_on_c, 0, 57, 103
3, 109080, Note_on_c, 0, 53, 117
3, 109110, Note_on_c, 0, 41, 103
3, 109119, Control_c, 0, 64, 127
3, 109140, Note_on_c, 0, 45, 95
3, 109147, Note_on_c, 0, 41, 0
3, 109170, Note_on_c, 0, 48, 95
3, 109181, Note_on_c, 0, 45, 0
3, 109200, Note_on_c, 0, 57, 0
3, 109200, Note_on_c, 0, 53, 0
3, 109200, Note_on_c, 0, 53, 99
3, 109204, Note_on_c, 0, 48, 0
3, 109211, Control_c, 0, 64, 0
3, 109263, Control_c, 0, 64, 127
3, 109269, Note_on_c, 0, 53, 0
3, 109320, Note_on_c, 0, 48, 90
3, 109320, Note_on_c, 0, 52, 99
3, 109338, Control_c, 0, 64, 0
3, 109350, Note_on_c, 0, 55, 103
3, 109351, Note_on_c, 0, 52, 0
3, 109380, Note_on_c, 0, 55, 0
3, 109380, Note_on_c, 0, 60, 103
3, 109395, Control_c, 0, 64, 127
3, 109410, Note_on_c, 0, 55, 86
3, 109412, Note_on_c, 0, 60, 0
3, 109436, Note_on_c, 0, 55, 0
3, 109440, Note_on_c, 0, 52, 86
3, 109469, Note_on_c, 0, 52, 0
3, 109470, Note_on_c, 0, 55, 95
3, 109494, Note_on_c, 0, 55, 0
3, 109500, Note_on_c, 0, 60, 90
3, 109530, Note_on_c, 0, 55, 99
3, 109533, Note_on_c, 0, 60, 0
3, 109547, Note_on_c, 0, 48, 0
3, 109550, Note_on_c, 0, 55, 0
3, 109560, Note_on_c, 0, 53, 99
3, 109560, Note_on_c, 0, 43, 99
3, 109570, Control_c, 0, 64, 0
3, 109589, Note_on_c, 0, 53, 0
3, 109590, Note_on_c, 0, 55, 90
3, 109616, Note_on_c, 0, 55, 0
3, 109620, Note_on_c, 0, 59, 99
3, 109634, Control_c, 0, 64, 127
3, 109648, Note_on_c, 0, 59, 0
3, 109650, Note_on_c, 0, 55, 82
3, 109676, Note_on_c, 0, 55, 0
3, 109678, Control_c, 0, 64, 0
3, 109680, Note_on_c, 0, 53, 82
3, 109705, Control_c, 0, 64, 127
3, 109710, Note_on_c, 0, 55, 86
3, 109712, Note_on_c, 0, 53, 0
3, 109725, Note_on_c, 0, 43, 0
3, 109740, Note_on_c, 0, 55, 0
3, 109740, Note_on_c, 0, 59, 90
3, 109770, Note_on_c, 0, 55, 82
3, 109777, Note_on_c, 0, 59, 0
3, 109791, Note_on_c, 0, 55, 0
3, 109800, Note_on_c, 0, 52, 99
3, 109800, Note_on_c, 0, 36, 99
3, 109801, Control_c, 0, 64, 0
3, 109826, Note_on_c, 0, 52, 0
3, 109830, Note_on_c, 0, 55, 86
3, 109836, Control_c, 0, 64, 127
3, 109855, Note_on_c, 0, 55, 0
3, 109860, Note_on_c, 0, 60, 90
3, 109890, Note_on_c, 0, 55, 90
3, 109894, Note_on_c, 0, 60, 0
3, 109914, Note_on_c, 0, 55, 0
3, 109920, Note_on_c, 0, 52, 72
3, 109945, Note_on_c, 0, 52, 0
3, 109950, Note_on_c, 0, 55, 90
3, 109976, Note_on_c, 0, 55, 0
3, 109980, Note_on_c, 0, 60, 99
3, 110010, Note_on_c, 0, 55, 99
3, 110012, Note_on_c, 0, 60, 0
3, 110031, Note_on_c, 0, 55, 0
3, 110034, Note_on_c, 0, 36, 0
3, 110040, Note_on_c, 0, 53, 103
3, 110040, Note_on_c, 0, 43, 95
3, 110046, Control_c, 0, 64, 0
3, 110064, Note_on_c, 0, 53, 0
3, 110070, Note_on_c, 0, 55, 95
3, 110080, Control_c, 0, 64, 127
3, 110094, Note_on_c, 0, 55, 0
3, 110100, Note_on_c, 0, 59, 95
3, 110126, Note_on_c, 0, 59, 0
3, 110130, Note_on_c, 0, 55, 99
3, 110149, Note_on_c, 0, 55, 0
3, 110160, Note_on_c, 0, 53, 95
3, 110172, Control_c, 0, 64, 0
3, 110185, Note_on_c, 0, 53, 0
3, 110190, Note_on_c, 0, 55, 103
3, 110194, Control_c, 0, 64, 127
3, 110212, Note_on_c, 0, 55, 0
3, 110220, Note_on_c, 0, 59, 99
3, 110246, Note_on_c, 0, 59, 0
3, 110248, Note_on_c, 0, 43, 0
3, 110250, Note_on_c, 0, 55, 86
3, 110271, Note_on_c, 0, 55, 0
3, 110280, Note_on_c, 0, 52, 108
3, 110280, Note_on_c, 0, 48, 95
3, 110283, Control_c, 0, 64, 0
3, 110306, Note_on_c, 0, 52, 0
3, 110310, Note_on_c, 0, 55, 90
3, 110315, Control_c, 0, 64, 127
3, 110334, Note_on_c, 0, 55, 0
3, 110340, Note_on_c, 0, 60, 99
3, 110369, Note_on_c, 0, 60, 0
3, 110370, Note_on_c, 0, 55, 99
3, 110389, Note_on_c, 0, 55, 0
3, 110400, Note_on_c, 0, 52, 86
3, 110412, Control_c, 0, 64, 0
3, 110421, Note_on_c, 0, 52, 0
3, 110430, Note_on_c, 0, 55, 99
3, 110431, Control_c, 0, 64, 127
3, 110451, Note_on_c, 0, 55, 0
3, 110460, Note_on_c, 0, 60, 95
3, 110490, Note_on_c, 0, 55, 99
3, 110492, Note_on_c, 0, 60, 0
3, 110511, Note_on_c, 0, 55, 0
3, 110515, Note_on_c, 0, 48, 0
3, 110520, Note_on_c, 0, 53, 99
3, 110520, Note_on_c, 0, 43, 82
3, 110530, Control_c, 0, 64, 0
3, 110546, Note_on_c, 0, 53, 0
3, 110550, Note_on_c, 0, 55, 99
3, 110558, Control_c, 0, 64, 127
3, 110573, Note_on_c, 0, 55, 0
3, 110580, Note_on_c, 0, 59, 95
3, 110609, Note_on_c, 0, 59, 0
3, 110610, Note_on_c, 0, 55, 90
3, 110633, Note_on_c, 0, 55, 0
3, 110640, Note_on_c, 0, 53, 99
3, 110667, Note_on_c, 0, 53, 0
3, 110670, Note_on_c, 0, 55, 82
3, 110695, Note_on_c, 0, 55, 0
3, 110700, Note_on_c, 0, 59, 99
3, 110730, Note_on_c, 0, 55, 90
3, 110732, Note_on_c, 0, 59, 0
3, 110748, Note_on_c, 0, 43, 0
3, 110750, Note_on_c, 0, 55, 0
3, 110760, Note_on_c, 0, 52, 95
3, 110760, Note_on_c, 0, 36, 95
3, 110765, Control_c, 0, 64, 0
3, 110785, Note_on_c, 0, 52, 0
3, 110790, Note_on_c, 0, 55, 86
3, 110795, Control_c, 0, 64, 127
3, 110816, Note_on_c, 0, 55, 0
3, 110820, Note_on_c, 0, 60, 95
3, 110850, Note_on_c, 0, 55, 95
3, 110852, Note_on_c, 0, 60, 0
3, 110871, Note_on_c, 0, 55, 0
3, 110880, Note_on_c, 0, 52, 86
3, 110905, Note_on_c, 0, 52, 0
3, 110910, Note_on_c, 0, 55, 74
3, 110940, Note_on_c, 0, 55, 0
3, 110940, Note_on_c, 0, 60, 95
3, 110970, Note_on_c, 0, 55, 99
3, 110978, Note_on_c, 0, 60, 0
3, 110989, Note_on_c, 0, 55, 0
3, 110995, Note_on_c, 0, 36, 0
3, 111000, Note_on_c, 0, 50, 95
3, 111000, Note_on_c, 0, 43, 99
3, 111012, Control_c, 0, 64, 0
3, 111028, Note_on_c, 0, 50, 0
3, 111030, Note_on_c, 0, 55, 103
3, 111042, Control_c, 0, 64, 127
3, 111058, Note_on_c, 0, 55, 0
3, 111060, Note_on_c, 0, 59, 95
3, 111090, Note_on_c, 0, 55, 99
3, 111091, Note_on_c, 0, 59, 0
3, 111107, Note_on_c, 0, 43, 0
3, 111113, Note_on_c, 0, 55, 0
3, 111120, Control_c, 0, 64, 0
3, 111120, Note_on_c, 0, 36, 95
3, 111120, Note_on_c, 0, 60, 117
3, 111120, Note_on_c, 0, 48, 95
3, 111148, Control_c, 0, 64, 127
3, 111177, Note_on_c, 0, 60, 0
3, 111190, Note_on_c, 0, 48, 0
3, 111192, Note_on_c, 0, 36, 0
3, 111236, Control_c, 0, 64, 0
3, 111240, Note_on_c, 0, 53, 112
3, 111240, Note_on_c, 0, 43, 95
3, 111266, Note_on_c, 0, 53, 0
3, 111270, Note_on_c, 0, 55, 90
3, 111272, Control_c, 0, 64, 127
3, 111296, Note_on_c, 0, 55, 0
3, 111300, Note_on_c, 0, 59, 95
3, 111329, Note_on_c, 0, 59, 0
3, 111330, Note_on_c, 0, 55, 67
3, 111352, Note_on_c, 0, 55, 0
3, 111360, Note_on_c, 0, 53, 103
3, 111365, Control_c, 0, 64, 0
3, 111388, Note_on_c, 0, 53, 0
3, 111388, Control_c, 0, 64, 127
3, 111390, Note_on_c, 0, 55, 99
3, 111416, Note_on_c, 0, 55, 0
3, 111420, Note_on_c, 0, 59, 90
3, 111448, Note_on_c, 0, 59, 0
3, 111450, Note_on_c, 0, 55, 74
3, 111465, Note_on_c, 0, 43, 0
3, 111470, Note_on_c, 0, 55, 0
3, 111480, Note_on_c, 0, 52, 112
3, 111480, Note_on_c, 0, 36, 103
3, 111489, Control_c, 0, 64, 0
3, 111508, Note_on_c, 0, 52, 0
3, 111510, Note_on_c, 0, 55, 90
3, 111518, Control_c, 0, 64, 127
3, 111537, Note_on_c, 0, 55, 0
3, 111540, Note_on_c, 0, 60, 82
3, 111570, Note_on_c, 0, 55, 99
3, 111571, Note_on_c, 0, 60, 0
3, 111592, Note_on_c, 0, 55, 0
3, 111600, Note_on_c, 0, 52, 99
3, 111624, Note_on_c, 0, 52, 0
3, 111630, Note_on_c, 0, 55, 86
3, 111649, Note_on_c, 0, 36, 0
3, 111656, Note_on_c, 0, 55, 0
3, 111660, Note_on_c, 0, 60, 99
3, 111690, Note_on_c, 0, 55, 103
3, 111691, Note_on_c, 0, 60, 0
3, 111708, Note_on_c, 0, 55, 0
3, 111720, Note_on_c, 0, 53, 103
3, 111720, Note_on_c, 0, 31, 103
3, 111720, Note_on_c, 0, 43, 90
3, 111725, Control_c, 0, 64, 0
3, 111747, Note_on_c, 0, 53, 0
3, 111750, Note_on_c, 0, 55, 90
3, 111759, Control_c, 0, 64, 127
3, 111777, Note_on_c, 0, 55, 0
3, 111780, Note_on_c, 0, 59, 86
3, 111807, Note_on_c, 0, 59, 0
3, 111810, Note_on_c, 0, 55, 69
3, 111834, Note_on_c, 0, 55, 0
3, 111840, Note_on_c, 0, 53, 99
3, 111865, Note_on_c, 0, 53, 0
3, 111870, Note_on_c, 0, 55, 103
3, 111888, Note_on_c, 0, 31, 0
3, 111894, Note_on_c, 0, 55, 0
3, 111900, Note_on_c, 0, 59, 86
3, 111909, Note_on_c, 0, 43, 0
3, 111928, Note_on_c, 0, 59, 0
3, 111930, Note_on_c, 0, 55, 95
3, 111949, Note_on_c, 0, 55, 0
3, 111960, Control_c, 0, 64, 0
3, 111960, Note_on_c, 0, 36, 99
3, 111960, Note_on_c, 0, 52, 112
3, 111960, Note_on_c, 0, 48, 74
3, 111983, Note_on_c, 0, 52, 0
3, 111990, Note_on_c, 0, 55, 95
3, 111991, Control_c, 0, 64, 127
3, 112017, Note_on_c, 0, 55, 0
3, 112020, Note_on_c, 0, 60, 95
3, 112050, Note_on_c, 0, 60, 0
3, 112050, Note_on_c, 0, 55, 95
3, 112072, Note_on_c, 0, 55, 0
3, 112080, Note_on_c, 0, 52, 99
3, 112102, Note_on_c, 0, 52, 0
3, 112110, Note_on_c, 0, 55, 90
3, 112138, Note_on_c, 0, 55, 0
3, 112140, Note_on_c, 0, 60, 95
3, 112167, Note_on_c, 0, 60, 0
3, 112170, Note_on_c, 0, 55, 90
3, 112184, Note_on_c, 0, 55, 0
3, 112184, Note_on_c, 0, 48, 0
3, 112191, Note_on_c, 0, 36, 0
3, 112200, Note_on_c, 0, 53, 90
3, 112200, Note_on_c, 0, 43, 99
3, 112207, Control_c, 0, 64, 0
3, 112227, Note_on_c, 0, 53, 0
3, 112230, Note_on_c, 0, 55, 95
3, 112238, Control_c, 0, 64, 127
3, 112255, Note_on_c, 0, 55, 0
3, 112260, Note_on_c, 0, 59, 90
3, 112288, Note_on_c, 0, 59, 0
3, 112290, Note_on_c, 0, 55, 82
3, 112312, Note_on_c, 0, 55, 0
3, 112320, Note_on_c, 0, 53, 99
3, 112347, Note_on_c, 0, 53, 0
3, 112350, Note_on_c, 0, 55, 86
3, 112376, Note_on_c, 0, 55, 0
3, 112380, Note_on_c, 0, 59, 99
3, 112408, Note_on_c, 0, 59, 0
3, 112410, Note_on_c, 0, 55, 72
3, 112432, Note_on_c, 0, 55, 0
3, 112440, Note_on_c, 0, 43, 0
3, 112440, Note_on_c, 0, 52, 74
3, 112440, Note_on_c, 0, 36, 90
3, 112451, Control_c, 0, 64, 0
3, 112467, Note_on_c, 0, 52, 0
3, 112470, Note_on_c, 0, 55, 99
3, 112478, Control_c, 0, 64, 127
3, 112498, Note_on_c, 0, 55, 0
3, 112500, Note_on_c, 0, 60, 95
3, 112530, Note_on_c, 0, 55, 86
3, 112533, Note_on_c, 0, 60, 0
3, 112554, Note_on_c, 0, 55, 0
3, 112560, Note_on_c, 0, 52, 86
3, 112586, Note_on_c, 0, 52, 0
3, 112590, Note_on_c, 0, 55, 82
3, 112603, Note_on_c, 0, 36, 0
3, 112620, Note_on_c, 0, 55, 0
3, 112620, Note_on_c, 0, 60, 90
3, 112650, Note_on_c, 0, 55, 86
3, 112659, Note_on_c, 0, 60, 0
3, 112672, Note_on_c, 0, 55, 0
3, 112680, Note_on_c, 0, 31, 99
3, 112680, Note_on_c, 0, 53, 103
3, 112680, Note_on_c, 0, 43, 82
3, 112687, Control_c, 0, 64, 0
3, 112707, Note_on_c, 0, 53, 0
3, 112710, Note_on_c, 0, 55, 86
3, 112720, Control_c, 0, 64, 127
3, 112737, Note_on_c, 0, 55, 0
3, 112740, Note_on_c, 0, 59, 99
3, 112770, Note_on_c, 0, 55, 86
3, 112773, Note_on_c, 0, 59, 0
3, 112793, Note_on_c, 0, 55, 0
3, 112800, Note_on_c, 0, 53, 99
3, 112829, Note_on_c, 0, 53, 0
3, 112830, Note_on_c, 0, 55, 99
3, 112846, Note_on_c, 0, 31, 0
3, 112860, Note_on_c, 0, 55, 0
3, 112860, Note_on_c, 0, 59, 90
3, 112890, Note_on_c, 0, 55, 78
3, 112891, Note_on_c, 0, 43, 0
3, 112893, Note_on_c, 0, 59, 0
3, 112914, Note_on_c, 0, 55, 0
3, 112920, Note_on_c, 0, 48, 117
3, 112920, Note_on_c, 0, 36, 99
3, 112920, Note_on_c, 0, 52, 99
3, 112934, Control_c, 0, 64, 0
3, 112946, Note_on_c, 0, 52, 0
3, 112950, Note_on_c, 0, 55, 90
3, 112964, Control_c, 0, 64, 127
3, 112978, Note_on_c, 0, 55, 0
3, 112980, Note_on_c, 0, 60, 95
3, 113010, Note_on_c, 0, 59, 86
3, 113018, Note_on_c, 0, 60, 0
3, 113032, Note_on_c, 0, 59, 0
3, 113040, Note_on_c, 0, 36, 0
3, 113040, Note_on_c, 0, 48, 0
3, 113040, Note_on_c, 0, 60, 99
3, 113049, Control_c, 0, 64, 0
3, 113074, Control_c, 0, 64, 127
3, 113141, Control_c, 0, 64, 0
3, 113160, Note_on_c, 0, 60, 0
3, 113160, Control_c, 0, 64, 127
3, 113160, Note_on_c, 0, 51, 99
3, 113160, Note_on_c, 0, 48, 86
3, 113216, Note_on_c, 0, 51, 0
3, 113220, Note_on_c, 0, 60, 86
3, 113266, Note_on_c, 0, 60, 0
3, 113280, Note_on_c, 0, 55, 90
3, 113333, Note_on_c, 0, 55, 0
3, 113340, Note_on_c, 0, 60, 82
3, 113355, Note_on_c, 0, 48, 0
3, 113391, Note_on_c, 0, 60, 0
3, 113400, Note_on_c, 0, 53, 82
3, 113400, Note_on_c, 0, 43, 99
3, 113409, Control_c, 0, 64, 0
3, 113449, Control_c, 0, 64, 127
3, 113460, Note_on_c, 0, 59, 78
3, 113469, Note_on_c, 0, 53, 0
3, 113505, Note_on_c, 0, 59, 0
3, 113520, Note_on_c, 0, 55, 72
3, 113570, Note_on_c, 0, 55, 0
3, 113580, Note_on_c, 0, 59, 62
3, 113632, Note_on_c, 0, 43, 0
3, 113636, Note_on_c, 0, 59, 0
3, 113640, Note_on_c, 0, 51, 78
3, 113640, Note_on_c, 0, 48, 103
3, 113645, Control_c, 0, 64, 0
3, 113693, Control_c, 0, 64, 127
3, 113700, Note_on_c, 0, 60, 78
3, 113704, Note_on_c, 0, 51, 0
3, 113737, Note_on_c, 0, 60, 0
3, 113760, Note_on_c, 0, 55, 82
3, 113815, Note_on_c, 0, 55, 0
3, 113820, Note_on_c, 0, 60, 72
3, 113877, Note_on_c, 0, 60, 0
3, 113878, Note_on_c, 0, 48, 0
3, 113880, Note_on_c, 0, 53, 82
3, 113880, Note_on_c, 0, 43, 103
3, 113886, Control_c, 0, 64, 0
3, 113925, Control_c, 0, 64, 127
3, 113940, Note_on_c, 0, 59, 69
3, 113945, Note_on_c, 0, 53, 0
3, 113984, Note_on_c, 0, 59, 0
3, 114000, Note_on_c, 0, 55, 69
3, 114056, Note_on_c, 0, 55, 0
3, 114060, Note_on_c, 0, 59, 82
3, 114117, Note_on_c, 0, 59, 0
3, 114120, Note_on_c, 0, 51, 78
3, 114120, Control_c, 0, 64, 0
3, 114120, Note_on_c, 0, 48, 99
3, 114124, Note_on_c, 0, 43, 0
3, 114148, Control_c, 0, 64, 127
3, 114180, Note_on_c, 0, 60, 86
3, 114181, Note_on_c, 0, 51, 0
3, 114214, Note_on_c, 0, 48, 0
3, 114220, Note_on_c, 0, 60, 0
3, 114240, Note_on_c, 0, 54, 95
3, 114240, Note_on_c, 0, 42, 90
3, 114240, Control_c, 0, 64, 0
3, 114264, Control_c, 0, 64, 127
3, 114299, Note_on_c, 0, 54, 0
3, 114300, Note_on_c, 0, 60, 99
3, 114337, Note_on_c, 0, 42, 0
3, 114343, Note_on_c, 0, 60, 0
3, 114360, Control_c, 0, 64, 0
3, 114360, Note_on_c, 0, 59, 108
3, 114360, Note_on_c, 0, 43, 86
3, 114384, Control_c, 0, 64, 127
3, 114417, Note_on_c, 0, 59, 0
3, 114420, Note_on_c, 0, 55, 99
3, 114446, Note_on_c, 0, 43, 0
3, 114478, Note_on_c, 0, 55, 0
3, 114480, Note_on_c, 0, 50, 103
3, 114532, Note_on_c, 0, 50, 0
3, 114540, Note_on_c, 0, 43, 103
3, 114555, Note_on_c, 0, 43, 0
3, 114600, Note_on_c, 0, 55, 95
3, 114600, Note_on_c, 0, 58, 86
3, 114600, Note_on_c, 0, 51, 82
3, 114600, Note_on_c, 0, 39, 90
3, 114604, Control_c, 0, 64, 0
3, 114640, Control_c, 0, 64, 127
3, 114660, Note_on_c, 0, 63, 70
3, 114664, Note_on_c, 0, 55, 0
3, 114665, Note_on_c, 0, 58, 0
3, 114714, Note_on_c, 0, 63, 0
3, 114720, Note_on_c, 0, 58, 86
3, 114779, Note_on_c, 0, 58, 0
3, 114780, Note_on_c, 0, 63, 86
3, 114798, Note_on_c, 0, 51, 0
3, 114802, Note_on_c, 0, 39, 0
3, 114811, Note_on_c, 0, 63, 0
3, 114840, Note_on_c, 0, 56, 82
3, 114840, Note_on_c, 0, 46, 99
3, 114843, Control_c, 0, 64, 0
3, 114873, Control_c, 0, 64, 127
3, 114900, Note_on_c, 0, 62, 90
3, 114904, Note_on_c, 0, 56, 0
3, 114937, Note_on_c, 0, 62, 0
3, 114960, Note_on_c, 0, 58, 82
3, 115010, Note_on_c, 0, 58, 0
3, 115020, Note_on_c, 0, 62, 95
3, 115044, Note_on_c, 0, 62, 0
3, 115077, Note_on_c, 0, 46, 0
3, 115080, Note_on_c, 0, 55, 95
3, 115080, Note_on_c, 0, 39, 78
3, 115083, Control_c, 0, 64, 0
3, 115110, Control_c, 0, 64, 127
3, 115140, Note_on_c, 0, 63, 78
3, 115142, Note_on_c, 0, 55, 0
3, 115195, Note_on_c, 0, 63, 0
3, 115200, Note_on_c, 0, 58, 82
3, 115257, Note_on_c, 0, 58, 0
3, 115260, Note_on_c, 0, 63, 74
3, 115293, Note_on_c, 0, 39, 0
3, 115318, Note_on_c, 0, 63, 0
3, 115320, Note_on_c, 0, 56, 82
3, 115320, Note_on_c, 0, 46, 86
3, 115322, Control_c, 0, 64, 0
3, 115350, Control_c, 0, 64, 127
3, 115380, Note_on_c, 0, 62, 86
3, 115387, Note_on_c, 0, 56, 0
3, 115427, Note_on_c, 0, 62, 0
3, 115440, Note_on_c, 0, 58, 82
3, 115498, Note_on_c, 0, 58, 0
3, 115500, Note_on_c, 0, 62, 86
3, 115525, Note_on_c, 0, 46, 0
3, 115539, Note_on_c, 0, 62, 0
3, 115560, Note_on_c, 0, 55, 90
3, 115560, Note_on_c, 0, 51, 82
3, 115566, Control_c, 0, 64, 0
3, 115596, Control_c, 0, 64, 127
3, 115620, Note_on_c, 0, 63, 82
3, 115630, Note_on_c, 0, 55, 0
3, 115674, Note_on_c, 0, 63, 0
3, 115680, Note_on_c, 0, 58, 86
3, 115738, Note_on_c, 0, 58, 0
3, 115740, Note_on_c, 0, 63, 82
3, 115749, Note_on_c, 0, 51, 0
3, 115783, Note_on_c, 0, 63, 0
3, 115800, Note_on_c, 0, 56, 82
3, 115800, Note_on_c, 0, 46, 86
3, 115803, Control_c, 0, 64, 0
3, 115830, Control_c, 0, 64, 127
3, 115860, Note_on_c, 0, 62, 99
3, 115863, Note_on_c, 0, 56, 0
3, 115910, Note_on_c, 0, 62, 0
3, 115920, Note_on_c, 0, 58, 70
3, 115970, Note_on_c, 0, 58, 0
3, 115980, Note_on_c, 0, 62, 90
3, 116027, Note_on_c, 0, 62, 0
3, 116037, Note_on_c, 0, 46, 0
3, 116040, Note_on_c, 0, 55, 95
3, 116040, Note_on_c, 0, 39, 82
3, 116041, Control_c, 0, 64, 0
3, 116071, Control_c, 0, 64, 127
3, 116100, Note_on_c, 0, 63, 78
3, 116107, Note_on_c, 0, 55, 0
3, 116160, Note_on_c, 0, 63, 0
3, 116160, Note_on_c, 0, 58, 82
3, 116216, Note_on_c, 0, 58, 0
3, 116220, Note_on_c, 0, 63, 78
3, 116280, Note_on_c, 0, 58, 86
3, 116280, Note_on_c, 0, 46, 82
3, 116281, Note_on_c, 0, 39, 0
3, 116283, Note_on_c, 0, 63, 0
3, 116285, Control_c, 0, 64, 0
3, 116315, Control_c, 0, 64, 127
3, 116337, Note_on_c, 0, 58, 0
3, 116340, Note_on_c, 0, 62, 90
3, 116400, Note_on_c, 0, 62, 0
3, 116400, Note_on_c, 0, 58, 82
3, 116456, Note_on_c, 0, 58, 0
3, 116460, Note_on_c, 0, 62, 86
3, 116518, Note_on_c, 0, 62, 0
3, 116520, Note_on_c, 0, 55, 95
3, 116520, Note_on_c, 0, 39, 74
3, 116523, Control_c, 0, 64, 0
3, 116524, Note_on_c, 0, 46, 0
3, 116550, Control_c, 0, 64, 127
3, 116580, Note_on_c, 0, 63, 82
3, 116582, Note_on_c, 0, 55, 0
3, 116635, Note_on_c, 0, 63, 0
3, 116640, Note_on_c, 0, 58, 82
3, 116699, Note_on_c, 0, 58, 0
3, 116700, Note_on_c, 0, 63, 82
3, 116744, Note_on_c, 0, 39, 0
3, 116758, Note_on_c, 0, 63, 0
3, 116760, Note_on_c, 0, 44, 78
3, 116760, Note_on_c, 0, 56, 86
3, 116761, Control_c, 0, 64, 0
3, 116790, Control_c, 0, 64, 127
3, 116818, Note_on_c, 0, 56, 0
3, 116820, Note_on_c, 0, 63, 82
3, 116876, Note_on_c, 0, 63, 0
3, 116880, Note_on_c, 0, 60, 90
3, 116934, Note_on_c, 0, 60, 0
3, 116940, Note_on_c, 0, 63, 74
3, 116944, Note_on_c, 0, 44, 0
3, 116993, Note_on_c, 0, 63, 0
3, 117000, Note_on_c, 0, 58, 95
3, 117000, Note_on_c, 0, 46, 90
3, 117003, Control_c, 0, 64, 0
3, 117030, Control_c, 0, 64, 127
3, 117060, Note_on_c, 0, 58, 0
3, 117060, Note_on_c, 0, 63, 72
3, 117074, Note_on_c, 0, 46, 0
3, 117114, Note_on_c, 0, 63, 0
3, 117120, Note_on_c, 0, 58, 86
3, 117120, Control_c, 0, 64, 0
3, 117120, Note_on_c, 0, 46, 95
3, 117142, Control_c, 0, 64, 127
3, 117176, Note_on_c, 0, 58, 0
3, 117180, Note_on_c, 0, 62, 99
3, 117220, Note_on_c, 0, 46, 0
3, 117226, Note_on_c, 0, 62, 0
3, 117231, Control_c, 0, 64, 0
3, 117240, Note_on_c, 0, 63, 95
3, 117240, Note_on_c, 0, 51, 82
3, 117258, Control_c, 0, 64, 127
3, 117342, Note_on_c, 0, 63, 0
3, 117360, Note_on_c, 0, 39, 99
3, 117364, Note_on_c, 0, 51, 0
3, 117366, Control_c, 0, 64, 0
3, 117386, Control_c, 0, 64, 127
3, 117420, Note_on_c, 0, 39, 0
3, 117478, Control_c, 0, 64, 0
3, 117480, Note_on_c, 0, 48, 99
3, 117480, Note_on_c, 0, 36, 95
3, 117510, Note_on_c, 0, 50, 90
3, 117511, Note_on_c, 0, 48, 0
3, 117511, Control_c, 0, 64, 127
3, 117535, Note_on_c, 0, 50, 0
3, 117540, Note_on_c, 0, 52, 99
3, 117558, Note_on_c, 0, 52, 0
3, 117563, Control_c, 0, 64, 0
3, 117570, Note_on_c, 0, 53, 99
3, 117589, Note_on_c, 0, 53, 0
3, 117600, Note_on_c, 0, 55, 86
3, 117609, Control_c, 0, 64, 127
3, 117620, Note_on_c, 0, 55, 0
3, 117630, Note_on_c, 0, 36, 0
3, 117630, Note_on_c, 0, 56, 90
3, 117655, Note_on_c, 0, 56, 0
3, 117660, Note_on_c, 0, 58, 103
3, 117679, Note_on_c, 0, 58, 0
3, 117690, Note_on_c, 0, 60, 99
3, 117712, Control_c, 0, 64, 0
3, 117720, Note_on_c, 0, 53, 99
3, 117750, Note_on_c, 0, 55, 63
3, 117754, Note_on_c, 0, 53, 0
3, 117780, Note_on_c, 0, 56, 82
3, 117785, Note_on_c, 0, 55, 0
3, 117810, Note_on_c, 0, 55, 82
3, 117811, Note_on_c, 0, 56, 0
3, 117840, Note_on_c, 0, 53, 82
3, 117845, Note_on_c, 0, 55, 0
3, 117870, Note_on_c, 0, 53, 0
3, 117870, Note_on_c, 0, 51, 86
3, 117879, Control_c, 0, 64, 127
3, 117900, Note_on_c, 0, 51, 0
3, 117900, Note_on_c, 0, 50, 99
3, 117913, Note_on_c, 0, 60, 0
3, 117927, Note_on_c, 0, 50, 0
3, 117930, Note_on_c, 0, 48, 99
3, 117949, Control_c, 0, 64, 0
3, 117952, Note_on_c, 0, 48, 0
3, 117960, Note_on_c, 0, 46, 103
3, 117990, Note_on_c, 0, 48, 90
3, 118019, Note_on_c, 0, 48, 0
3, 118020, Note_on_c, 0, 50, 99
3, 118032, Control_c, 0, 64, 127
3, 118047, Note_on_c, 0, 50, 0
3, 118050, Note_on_c, 0, 51, 78
3, 118056, Control_c, 0, 64, 0
3, 118070, Note_on_c, 0, 51, 0
3, 118080, Note_on_c, 0, 53, 95
3, 118104, Note_on_c, 0, 53, 0
3, 118110, Note_on_c, 0, 55, 70
3, 118115, Note_on_c, 0, 46, 0
3, 118135, Control_c, 0, 64, 127
3, 118140, Note_on_c, 0, 56, 86
3, 118147, Note_on_c, 0, 55, 0
3, 118167, Note_on_c, 0, 56, 0
3, 118170, Note_on_c, 0, 58, 103
3, 118189, Note_on_c, 0, 58, 0
3, 118200, Note_on_c, 0, 56, 103
3, 118200, Note_on_c, 0, 51, 72
3, 118200, Control_c, 0, 64, 0
3, 118230, Note_on_c, 0, 53, 95
3, 118234, Note_on_c, 0, 51, 0
3, 118260, Note_on_c, 0, 55, 86
3, 118263, Note_on_c, 0, 53, 0
3, 118290, Note_on_c, 0, 53, 99
3, 118293, Note_on_c, 0, 55, 0
3, 118318, Note_on_c, 0, 53, 0
3, 118320, Note_on_c, 0, 51, 82
3, 118347, Note_on_c, 0, 51, 0
3, 118350, Note_on_c, 0, 50, 95
3, 118375, Control_c, 0, 64, 127
3, 118380, Note_on_c, 0, 48, 82
3, 118384, Note_on_c, 0, 50, 0
3, 118402, Note_on_c, 0, 56, 0
3, 118410, Note_on_c, 0, 47, 103
3, 118414, Note_on_c, 0, 48, 0
3, 118427, Control_c, 0, 64, 0
3, 118440, Note_on_c, 0, 51, 82
3, 118440, Note_on_c, 0, 48, 103
3, 118442, Note_on_c, 0, 47, 0
3, 118480, Control_c, 0, 64, 127
3, 118500, Note_on_c, 0, 60, 99
3, 118505, Note_on_c, 0, 51, 0
3, 118557, Note_on_c, 0, 60, 0
3, 118560, Note_on_c, 0, 55, 86
3, 118620, Note_on_c, 0, 55, 0
3, 118620, Note_on_c, 0, 60, 90
3, 118680, Note_on_c, 0, 53, 86
3, 118680, Note_on_c, 0, 43, 99
3, 118684, Note_on_c, 0, 60, 0
3, 118685, Note_on_c, 0, 48, 0
3, 118690, Control_c, 0, 64, 0
3, 118726, Control_c, 0, 64, 127
3, 118740, Note_on_c, 0, 59, 90
3, 118744, Note_on_c, 0, 53, 0
3, 118800, Note_on_c, 0, 55, 86
3, 118803, Note_on_c, 0, 59, 0
3, 118839, Note_on_c, 0, 43, 0
3, 118858, Note_on_c, 0, 55, 0
3, 118860, Note_on_c, 0, 59, 82
3, 118920, Note_on_c, 0, 59, 0
3, 118920, Note_on_c, 0, 51, 74
3, 118920, Note_on_c, 0, 36, 95
3, 118928, Control_c, 0, 64, 0
3, 118959, Control_c, 0, 64, 127
3, 118980, Note_on_c, 0, 60, 86
3, 118984, Note_on_c, 0, 51, 0
3, 119032, Note_on_c, 0, 60, 0
3, 119040, Note_on_c, 0, 55, 95
3, 119095, Note_on_c, 0, 55, 0
3, 119100, Note_on_c, 0, 60, 95
3, 119148, Note_on_c, 0, 36, 0
3, 119160, Note_on_c, 0, 53, 72
3, 119160, Note_on_c, 0, 43, 74
3, 119160, Control_c, 0, 64, 0
3, 119163, Note_on_c, 0, 60, 0
3, 119193, Control_c, 0, 64, 127
3, 119220, Note_on_c, 0, 59, 86
3, 119222, Note_on_c, 0, 53, 0
3, 119280, Note_on_c, 0, 55, 95
3, 119286, Note_on_c, 0, 59, 0
3, 119339, Note_on_c, 0, 55, 0
3, 119340, Note_on_c, 0, 59, 90
3, 119341, Note_on_c, 0, 43, 0
3, 119400, Note_on_c, 0, 48, 86
3, 119400, Note_on_c, 0, 51, 86
3, 119403, Note_on_c, 0, 59, 0
3, 119403, Control_c, 0, 64, 0
3, 119434, Control_c, 0, 64, 127
3, 119460, Note_on_c, 0, 60, 90
3, 119461, Note_on_c, 0, 51, 0
3, 119513, Note_on_c, 0, 60, 0
3, 119520, Note_on_c, 0, 55, 86
3, 119579, Note_on_c, 0, 55, 0
3, 119580, Note_on_c, 0, 60, 86
3, 119640, Note_on_c, 0, 53, 70
3, 119640, Note_on_c, 0, 43, 82
3, 119645, Note_on_c, 0, 60, 0
3, 119648, Note_on_c, 0, 48, 0
3, 119657, Control_c, 0, 64, 0
3, 119690, Control_c, 0, 64, 127
3, 119700, Note_on_c, 0, 59, 86
3, 119701, Note_on_c, 0, 53, 0
3, 119755, Note_on_c, 0, 59, 0
3, 119760, Note_on_c, 0, 55, 67
3, 119817, Note_on_c, 0, 55, 0
3, 119820, Note_on_c, 0, 59, 78
3, 119874, Note_on_c, 0, 43, 0
3, 119880, Note_on_c, 0, 59, 0
3, 119880, Note_on_c, 0, 51, 72
3, 119880, Note_on_c, 0, 36, 82
3, 119888, Control_c, 0, 64, 0
3, 119919, Control_c, 0, 64, 127
3, 119940, Note_on_c, 0, 60, 86
3, 119942, Note_on_c, 0, 51, 0
3, 119995, Note_on_c, 0, 60, 0
3, 120000, Note_on_c, 0, 55, 78
3, 120054, Note_on_c, 0, 55, 0
3, 120060, Note_on_c, 0, 60, 82
3, 120113, Note_on_c, 0, 36, 0
3, 120120, Note_on_c, 0, 60, 0
3, 120120, Note_on_c, 0, 53, 72
3, 120120, Note_on_c, 0, 43, 82
3, 120125, Control_c, 0, 64, 0
3, 120159, Control_c, 0, 64, 127
3, 120180, Note_on_c, 0, 59, 86
3, 120182, Note_on_c, 0, 53, 0
3, 120240, Note_on_c, 0, 59, 0
3, 120240, Note_on_c, 0, 55, 82
3, 120300, Note_on_c, 0, 55, 0
3, 120300, Note_on_c, 0, 59, 72
3, 120360, Note_on_c, 0, 43, 0
3, 120360, Note_on_c, 0, 51, 72
3, 120360, Note_on_c, 0, 36, 82
3, 120361, Note_on_c, 0, 59, 0
3, 120362, Control_c, 0, 64, 0
3, 120392, Control_c, 0, 64, 127
3, 120420, Note_on_c, 0, 60, 86
3, 120427, Note_on_c, 0, 51, 0
3, 120478, Note_on_c, 0, 60, 0
3, 120480, Note_on_c, 0, 55, 86
3, 120540, Note_on_c, 0, 60, 86
3, 120542, Note_on_c, 0, 55, 0
3, 120594, Note_on_c, 0, 60, 0
3, 120599, Note_on_c, 0, 36, 0
3, 120600, Note_on_c, 0, 53, 86
3, 120600, Note_on_c, 0, 41, 82
3, 120608, Control_c, 0, 64, 0
3, 120640, Control_c, 0, 64, 127
3, 120660, Note_on_c, 0, 60, 82
3, 120664, Note_on_c, 0, 53, 0
3, 120714, Note_on_c, 0, 60, 0
3, 120720, Note_on_c, 0, 56, 86
3, 120778, Note_on_c, 0, 56, 0
3, 120780, Note_on_c, 0, 60, 86
3, 120834, Note_on_c, 0, 60, 0
3, 120836, Note_on_c, 0, 41, 0
3, 120840, Note_on_c, 0, 43, 70
3, 120840, Note_on_c, 0, 55, 86
3, 120843, Control_c, 0, 64, 0
3, 120871, Control_c, 0, 64, 127
3, 120899, Note_on_c, 0, 55, 0
3, 120900, Note_on_c, 0, 60, 86
3, 120960, Note_on_c, 0, 55, 103
3, 120967, Control_c, 0, 64, 0
3, 120971, Note_on_c, 0, 60, 0
3, 120991, Control_c, 0, 64, 127
3, 121020, Note_on_c, 0, 55, 0
3, 121020, Note_on_c, 0, 59, 90
3, 121079, Note_on_c, 0, 59, 0
3, 121080, Note_on_c, 0, 60, 99
3, 121080, Note_on_c, 0, 48, 86
3, 121087, Note_on_c, 0, 43, 0
3, 121088, Control_c, 0, 64, 0
3, 121118, Control_c, 0, 64, 127
3, 121199, Note_on_c, 0, 48, 0
3, 121200, Note_on_c, 0, 36, 103
3, 121242, Note_on_c, 0, 36, 0
3, 121249, Note_on_c, 0, 60, 0
3, 121306, Control_c, 0, 64, 0
3, 121320, Note_on_c, 0, 48, 95
3, 121320, Note_on_c, 0, 52, 95
3, 121322, Control_c, 0, 64, 127
3, 121350, Note_on_c, 0, 55, 86
3, 121351, Note_on_c, 0, 52, 0
3, 121377, Note_on_c, 0, 55, 0
3, 121380, Note_on_c, 0, 60, 86
3, 121410, Note_on_c, 0, 55, 82
3, 121411, Note_on_c, 0, 60, 0
3, 121435, Note_on_c, 0, 55, 0
3, 121440, Note_on_c, 0, 52, 72
3, 121466, Note_on_c, 0, 52, 0
3, 121470, Note_on_c, 0, 55, 86
3, 121498, Note_on_c, 0, 55, 0
3, 121500, Note_on_c, 0, 60, 86
3, 121530, Note_on_c, 0, 55, 78
3, 121532, Note_on_c, 0, 60, 0
3, 121553, Note_on_c, 0, 55, 0
3, 121560, Note_on_c, 0, 53, 103
3, 121560, Note_on_c, 0, 43, 90
3, 121562, Note_on_c, 0, 48, 0
3, 121566, Control_c, 0, 64, 0
3, 121590, Note_on_c, 0, 55, 86
3, 121592, Note_on_c, 0, 53, 0
3, 121594, Control_c, 0, 64, 127
3, 121615, Note_on_c, 0, 55, 0
3, 121620, Note_on_c, 0, 59, 82
3, 121650, Note_on_c, 0, 55, 72
3, 121653, Note_on_c, 0, 59, 0
3, 121678, Note_on_c, 0, 55, 0
3, 121680, Note_on_c, 0, 53, 78
3, 121710, Note_on_c, 0, 55, 82
3, 121711, Note_on_c, 0, 53, 0
3, 121717, Note_on_c, 0, 43, 0
3, 121738, Note_on_c, 0, 55, 0
3, 121740, Note_on_c, 0, 59, 82
3, 121770, Note_on_c, 0, 55, 74
3, 121775, Note_on_c, 0, 59, 0
3, 121791, Note_on_c, 0, 55, 0
3, 121800, Note_on_c, 0, 52, 90
3, 121800, Note_on_c, 0, 36, 95
3, 121806, Control_c, 0, 64, 0
3, 121830, Note_on_c, 0, 55, 90
3, 121831, Control_c, 0, 64, 127
3, 121832, Note_on_c, 0, 52, 0
3, 121858, Note_on_c, 0, 55, 0
3, 121860, Note_on_c, 0, 60, 82
3, 121890, Note_on_c, 0, 55, 86
3, 121892, Note_on_c, 0, 60, 0
3, 121915, Note_on_c, 0, 55, 0
3, 121920, Note_on_c, 0, 52, 74
3, 121928, Control_c, 0, 64, 0
3, 121945, Control_c, 0, 64, 127
3, 121950, Note_on_c, 0, 55, 86
3, 121952, Note_on_c, 0, 52, 0
3, 121978, Note_on_c, 0, 55, 0
3, 121980, Note_on_c, 0, 60, 86
3, 122010, Note_on_c, 0, 55, 82
3, 122013, Note_on_c, 0, 60, 0
3, 122020, Note_on_c, 0, 36, 0
3, 122036, Note_on_c, 0, 55, 0
3, 122040, Note_on_c, 0, 43, 99
3, 122040, Note_on_c, 0, 53, 99
3, 122044, Control_c, 0, 64, 0
3, 122070, Note_on_c, 0, 55, 86
3, 122072, Note_on_c, 0, 53, 0
3, 122072, Control_c, 0, 64, 127
3, 122100, Note_on_c, 0, 55, 0
3, 122100, Note_on_c, 0, 59, 90
3, 122130, Note_on_c, 0, 55, 72
3, 122135, Note_on_c, 0, 59, 0
3, 122156, Note_on_c, 0, 55, 0
3, 122160, Note_on_c, 0, 53, 90
3, 122165, Control_c, 0, 64, 0
3, 122182, Control_c, 0, 64, 127
3, 122190, Note_on_c, 0, 55, 86
3, 122192, Note_on_c, 0, 53, 0
3, 122220, Note_on_c, 0, 55, 0
3, 122220, Note_on_c, 0, 59, 90
3, 122250, Note_on_c, 0, 55, 86
3, 122256, Note_on_c, 0, 59, 0
3, 122266, Note_on_c, 0, 43, 0
3, 122271, Note_on_c, 0, 55, 0
3, 122280, Note_on_c, 0, 52, 90
3, 122280, Note_on_c, 0, 48, 95
3, 122281, Control_c, 0, 64, 0
3, 122308, Control_c, 0, 64, 127
3, 122310, Note_on_c, 0, 55, 90
3, 122312, Note_on_c, 0, 52, 0
3, 122339, Note_on_c, 0, 55, 0
3, 122340, Note_on_c, 0, 60, 86
3, 122370, Note_on_c, 0, 55, 86
3, 122371, Note_on_c, 0, 60, 0
3, 122394, Note_on_c, 0, 55, 0
3, 122400, Note_on_c, 0, 52, 70
3, 122416, Control_c, 0, 64, 0
3, 122430, Note_on_c, 0, 52, 0
3, 122430, Note_on_c, 0, 55, 78
3, 122434, Control_c, 0, 64, 127
3, 122460, Note_on_c, 0, 60, 86
3, 122462, Note_on_c, 0, 55, 0
3, 122490, Note_on_c, 0, 55, 69
3, 122494, Note_on_c, 0, 60, 0
3, 122519, Note_on_c, 0, 55, 0
3, 122520, Note_on_c, 0, 53, 78
3, 122520, Note_on_c, 0, 43, 74
3, 122529, Note_on_c, 0, 48, 0
3, 122544, Control_c, 0, 64, 0
3, 122550, Note_on_c, 0, 55, 86
3, 122552, Note_on_c, 0, 53, 0
3, 122566, Control_c, 0, 64, 127
3, 122580, Note_on_c, 0, 59, 78
3, 122582, Note_on_c, 0, 55, 0
3, 122606, Note_on_c, 0, 59, 0
3, 122610, Note_on_c, 0, 55, 74
3, 122640, Note_on_c, 0, 55, 0
3, 122640, Note_on_c, 0, 53, 70
3, 122670, Note_on_c, 0, 55, 82
3, 122674, Note_on_c, 0, 53, 0
3, 122700, Note_on_c, 0, 59, 95
3, 122702, Note_on_c, 0, 55, 0
3, 122730, Note_on_c, 0, 55, 72
3, 122739, Note_on_c, 0, 59, 0
3, 122752, Note_on_c, 0, 55, 0
3, 122753, Note_on_c, 0, 43, 0
3, 122760, Note_on_c, 0, 52, 78
3, 122760, Note_on_c, 0, 36, 86
3, 122771, Control_c, 0, 64, 0
3, 122789, Note_on_c, 0, 52, 0
3, 122790, Note_on_c, 0, 55, 86
3, 122795, Control_c, 0, 64, 127
3, 122819, Note_on_c, 0, 55, 0
3, 122820, Note_on_c, 0, 60, 82
3, 122850, Note_on_c, 0, 55, 82
3, 122851, Note_on_c, 0, 60, 0
3, 122880, Note_on_c, 0, 55, 0
3, 122880, Note_on_c, 0, 52, 66
3, 122905, Note_on_c, 0, 52, 0
3, 122910, Note_on_c, 0, 55, 82
3, 122940, Note_on_c, 0, 60, 90
3, 122943, Note_on_c, 0, 55, 0
3, 122970, Note_on_c, 0, 55, 86
3, 122980, Note_on_c, 0, 60, 0
3, 122995, Note_on_c, 0, 55, 0
3, 122997, Note_on_c, 0, 36, 0
3, 123000, Note_on_c, 0, 50, 86
3, 123000, Note_on_c, 0, 43, 99
3, 123008, Control_c, 0, 64, 0
3, 123027, Note_on_c, 0, 50, 0
3, 123030, Note_on_c, 0, 55, 86
3, 123034, Control_c, 0, 64, 127
3, 123050, Note_on_c, 0, 43, 0
3, 123057, Note_on_c, 0, 55, 0
3, 123060, Note_on_c, 0, 59, 95
3, 123060, Note_on_c, 0, 43, 95
3, 123063, Control_c, 0, 64, 0
3, 123080, Control_c, 0, 64, 127
3, 123090, Note_on_c, 0, 55, 86
3, 123092, Note_on_c, 0, 59, 0
3, 123105, Note_on_c, 0, 43, 0
3, 123110, Note_on_c, 0, 55, 0
3, 123120, Note_on_c, 0, 48, 99
3, 123120, Note_on_c, 0, 60, 90
3, 123122, Control_c, 0, 64, 0
3, 123142, Control_c, 0, 64, 127
3, 123170, Note_on_c, 0, 60, 0
3, 123178, Note_on_c, 0, 48, 0
3, 123229, Control_c, 0, 64, 0
3, 123240, Note_on_c, 0, 53, 99
3, 123240, Note_on_c, 0, 43, 82
3, 123262, Control_c, 0, 64, 127
3, 123266, Note_on_c, 0, 53, 0
3, 123270, Note_on_c, 0, 55, 86
3, 123297, Note_on_c, 0, 55, 0
3, 123300, Note_on_c, 0, 59, 86
3, 123330, Note_on_c, 0, 55, 86
3, 123333, Note_on_c, 0, 59, 0
3, 123357, Note_on_c, 0, 55, 0
3, 123360, Note_on_c, 0, 53, 72
3, 123364, Control_c, 0, 64, 0
3, 123380, Control_c, 0, 64, 127
3, 123390, Note_on_c, 0, 55, 82
3, 123391, Note_on_c, 0, 53, 0
3, 123420, Note_on_c, 0, 59, 82
3, 123426, Note_on_c, 0, 55, 0
3, 123450, Note_on_c, 0, 55, 82
3, 123456, Note_on_c, 0, 59, 0
3, 123469, Note_on_c, 0, 55, 0
3, 123471, Note_on_c, 0, 43, 0
3, 123480, Note_on_c, 0, 52, 86
3, 123480, Note_on_c, 0, 48, 86
3, 123510, Note_on_c, 0, 52, 0
3, 123510, Note_on_c, 0, 55, 90
3, 123512, Control_c, 0, 64, 0
3, 123531, Control_c, 0, 64, 127
3, 123539, Note_on_c, 0, 55, 0
3, 123540, Note_on_c, 0, 60, 90
3, 123570, Note_on_c, 0, 55, 72
3, 123579, Note_on_c, 0, 60, 0
3, 123597, Note_on_c, 0, 55, 0
3, 123600, Note_on_c, 0, 52, 67
3, 123630, Note_on_c, 0, 52, 0
3, 123630, Note_on_c, 0, 55, 95
3, 123656, Note_on_c, 0, 55, 0
3, 123660, Note_on_c, 0, 60, 90
3, 123690, Note_on_c, 0, 55, 86
3, 123695, Note_on_c, 0, 60, 0
3, 123714, Note_on_c, 0, 55, 0
3, 123717, Note_on_c, 0, 48, 0
3, 123720, Note_on_c, 0, 53, 103
3, 123720, Note_on_c, 0, 43, 95
3, 123724, Control_c, 0, 64, 0
3, 123744, Control_c, 0, 64, 127
3, 123750, Note_on_c, 0, 55, 78
3, 123751, Note_on_c, 0, 53, 0
3, 123780, Note_on_c, 0, 55, 0
3, 123780, Note_on_c, 0, 59, 95
3, 123810, Note_on_c, 0, 55, 90
3, 123818, Note_on_c, 0, 59, 0
3, 123836, Note_on_c, 0, 55, 0
3, 123840, Note_on_c, 0, 53, 78
3, 123870, Note_on_c, 0, 53, 0
3, 123870, Note_on_c, 0, 55, 72
3, 123895, Note_on_c, 0, 55, 0
3, 123900, Note_on_c, 0, 59, 82
3, 123930, Note_on_c, 0, 55, 69
3, 123941, Note_on_c, 0, 59, 0
3, 123954, Note_on_c, 0, 55, 0
3, 123959, Note_on_c, 0, 43, 0
3, 123960, Note_on_c, 0, 52, 99
3, 123960, Note_on_c, 0, 36, 99
3, 123969, Control_c, 0, 64, 0
3, 123990, Note_on_c, 0, 55, 78
3, 123993, Note_on_c, 0, 52, 0
3, 123993, Control_c, 0, 64, 127
3, 124018, Note_on_c, 0, 55, 0
3, 124020, Note_on_c, 0, 60, 90
3, 124050, Note_on_c, 0, 55, 90
3, 124053, Note_on_c, 0, 60, 0
3, 124077, Note_on_c, 0, 55, 0
3, 124080, Note_on_c, 0, 52, 86
3, 124095, Control_c, 0, 64, 0
3, 124110, Note_on_c, 0, 55, 86
3, 124112, Note_on_c, 0, 52, 0
3, 124113, Control_c, 0, 64, 127
3, 124137, Note_on_c, 0, 55, 0
3, 124140, Note_on_c, 0, 60, 82
3, 124170, Note_on_c, 0, 55, 86
3, 124177, Note_on_c, 0, 60, 0
3, 124194, Note_on_c, 0, 36, 0
3, 124200, Note_on_c, 0, 55, 0
3, 124200, Note_on_c, 0, 53, 108
3, 124200, Note_on_c, 0, 43, 86
3, 124209, Control_c, 0, 64, 0
3, 124230, Note_on_c, 0, 55, 74
3, 124231, Note_on_c, 0, 53, 0
3, 124232, Control_c, 0, 64, 127
3, 124256, Note_on_c, 0, 55, 0
3, 124260, Note_on_c, 0, 59, 90
3, 124290, Note_on_c, 0, 55, 86
3, 124296, Note_on_c, 0, 59, 0
3, 124320, Note_on_c, 0, 53, 86
3, 124322, Note_on_c, 0, 55, 0
3, 124327, Control_c, 0, 64, 0
3, 124344, Control_c, 0, 64, 127
3, 124350, Note_on_c, 0, 55, 86
3, 124353, Note_on_c, 0, 53, 0
3, 124380, Note_on_c, 0, 59, 99
3, 124384, Note_on_c, 0, 55, 0
3, 124410, Note_on_c, 0, 55, 82
3, 124415, Note_on_c, 0, 59, 0
3, 124431, Note_on_c, 0, 55, 0
3, 124431, Note_on_c, 0, 43, 0
3, 124454, Control_c, 0, 64, 0
3, 124680, Note_on_c, 0, 55, 103
3, 124680, Note_on_c, 0, 52, 99
3, 124680, Note_on_c, 0, 36, 90
3, 124711, Control_c, 0, 64, 127
3, 124775, Note_on_c, 0, 55, 0
3, 124777, Note_on_c, 0, 36, 0
3, 124779, Note_on_c, 0, 52, 0
3, 124800, Note_on_c, 0, 53, 99
3, 124800, Note_on_c, 0, 50, 103
3, 124800, Note_on_c, 0, 38, 95
3, 124811, Control_c, 0, 64, 0
3, 124839, Control_c, 0, 64, 127
3, 124860, Note_on_c, 0, 50, 0
3, 124865, Note_on_c, 0, 53, 0
3, 124872, Note_on_c, 0, 38, 0
3, 124917, Control_c, 0, 64, 0
3, 124920, Note_on_c, 0, 52, 95
3, 124920, Note_on_c, 0, 40, 95
3, 124920, Note_on_c, 0, 48, 90
3, 124944, Control_c, 0, 64, 127
3, 124986, Note_on_c, 0, 52, 0
3, 124987, Note_on_c, 0, 48, 0
3, 124995, Note_on_c, 0, 40, 0
3, 125039, Control_c, 0, 64, 0
3, 125040, Note_on_c, 0, 41, 90
3, 125040, Note_on_c, 0, 50, 103
3, 125040, Note_on_c, 0, 47, 103
3, 125090, Control_c, 0, 64, 127
3, 125176, Note_on_c, 0, 47, 0
3, 125183, Note_on_c, 0, 50, 0
3, 125185, Note_on_c, 0, 41, 0
3, 125220, Control_c, 0, 64, 0
3, 125220, Note_on_c, 0, 48, 90
3, 125220, Note_on_c, 0, 40, 90
3, 125220, Note_on_c, 0, 52, 99
3, 125242, Control_c, 0, 64, 127
3, 125269, Note_on_c, 0, 48, 0
3, 125270, Note_on_c, 0, 52, 0
3, 125272, Control_c, 0, 64, 0
3, 125276, Note_on_c, 0, 40, 0
3, 125280, Note_on_c, 0, 50, 95
3, 125280, Note_on_c, 0, 53, 86
3, 125280, Note_on_c, 0, 38, 90
3, 125295, Control_c, 0, 64, 127
3, 125323, Note_on_c, 0, 50, 0
3, 125325, Note_on_c, 0, 53, 0
3, 125331, Note_on_c, 0, 38, 0
3, 125332, Control_c, 0, 64, 0
3, 125340, Note_on_c, 0, 36, 86
3, 125340, Note_on_c, 0, 52, 86
3, 125340, Note_on_c, 0, 55, 86
3, 125354, Control_c, 0, 64, 127
3, 125371, Note_on_c, 0, 52, 0
3, 125374, Note_on_c, 0, 55, 0
3, 125378, Note_on_c, 0, 36, 0
3, 125397, Control_c, 0, 64, 0
3, 125400, Note_on_c, 0, 53, 99
3, 125400, Note_on_c, 0, 57, 99
3, 125400, Note_on_c, 0, 35, 95
3, 125436, Control_c, 0, 64, 127
3, 125622, Note_on_c, 0, 57, 0
3, 125622, Note_on_c, 0, 53, 0
3, 125630, Control_c, 0, 64, 0
3, 125640, Note_on_c, 0, 52, 86
3, 125640, Note_on_c, 0, 55, 82
3, 125661, Control_c, 0, 64, 127
3, 125679, Note_on_c, 0, 35, 0
3, 125685, Control_c, 0, 64, 0
3, 125694, Note_on_c, 0, 52, 0
3, 125700, Note_on_c, 0, 53, 72
3, 125700, Note_on_c, 0, 50, 99
3, 125703, Note_on_c, 0, 55, 0
3, 125709, Control_c, 0, 64, 127
3, 125747, Note_on_c, 0, 50, 0
3, 125748, Note_on_c, 0, 53, 0
3, 125760, Note_on_c, 0, 48, 90
3, 125760, Note_on_c, 0, 53, 95
3, 125760, Note_on_c, 0, 36, 86
3, 125763, Control_c, 0, 64, 0
3, 125790, Control_c, 0, 64, 127
3, 125818, Note_on_c, 0, 53, 0
3, 125820, Note_on_c, 0, 52, 86
3, 125827, Control_c, 0, 64, 0
3, 125882, Control_c, 0, 64, 127
3, 125948, Note_on_c, 0, 36, 0
3, 125951, Note_on_c, 0, 48, 0
3, 125953, Note_on_c, 0, 52, 0
3, 125956, Control_c, 0, 64, 0
3, 126119, Control_c, 0, 64, 127
3, 126120, Note_on_c, 0, 48, 99
3, 126171, Note_on_c, 0, 48, 0
3, 126178, Control_c, 0, 64, 0
3, 126180, Note_on_c, 0, 60, 90
3, 126209, Control_c, 0, 64, 127
3, 126220, Note_on_c, 0, 60, 0
3, 126232, Control_c, 0, 64, 0
3, 126240, Note_on_c, 0, 60, 82
3, 126263, Control_c, 0, 64, 127
3, 126292, Note_on_c, 0, 60, 0
3, 126300, Note_on_c, 0, 60, 95
3, 126343, Note_on_c, 0, 60, 0
3, 126360, Note_on_c, 0, 60, 90
3, 126367, Control_c, 0, 64, 0
3, 126391, Control_c, 0, 64, 127
3, 126408, Note_on_c, 0, 60, 0
3, 126420, Note_on_c, 0, 60, 90
3, 126462, Note_on_c, 0, 60, 0
3, 126477, Control_c, 0, 64, 0
3, 126480, Note_on_c, 0, 53, 86
3, 126503, Control_c, 0, 64, 127
3, 126539, Control_c, 0, 64, 0
3, 126540, Note_on_c, 0, 57, 99
3, 126550, Note_on_c, 0, 53, 0
3, 126563, Control_c, 0, 64, 127
3, 126583, Note_on_c, 0, 57, 0
3, 126593, Control_c, 0, 64, 0
3, 126600, Note_on_c, 0, 57, 90
3, 126614, Control_c, 0, 64, 127
3, 126652, Note_on_c, 0, 57, 0
3, 126660, Note_on_c, 0, 57, 99
3, 126706, Note_on_c, 0, 57, 0
3, 126719, Control_c, 0, 64, 0
3, 126720, Note_on_c, 0, 57, 95
3, 126740, Control_c, 0, 64, 127
3, 126759, Note_on_c, 0, 57, 0
3, 126780, Note_on_c, 0, 57, 86
3, 126808, Note_on_c, 0, 57, 0
3, 126836, Control_c, 0, 64, 0
3, 126840, Note_on_c, 0, 55, 99
3, 126840, Note_on_c, 0, 48, 90
3, 126866, Control_c, 0, 64, 127
3, 126902, Note_on_c, 0, 48, 0
3, 126906, Note_on_c, 0, 55, 0
3, 126960, Note_on_c, 0, 55, 99
3, 126960, Note_on_c, 0, 60, 99
3, 126968, Control_c, 0, 64, 0
3, 126993, Control_c, 0, 64, 127
3, 127044, Note_on_c, 0, 60, 0
3, 127048, Note_on_c, 0, 55, 0
3, 127080, Note_on_c, 0, 59, 99
3, 127080, Note_on_c, 0, 53, 90
3, 127080, Note_on_c, 0, 43, 86
3, 127091, Control_c, 0, 64, 0
3, 127120, Control_c, 0, 64, 127
3, 127141, Note_on_c, 0, 43, 0
3, 127142, Note_on_c, 0, 59, 0
3, 127144, Note_on_c, 0, 53, 0
3, 127200, Control_c, 0, 64, 0
3, 127200, Note_on_c, 0, 60, 99
3, 127200, Note_on_c, 0, 48, 90
3, 127224, Control_c, 0, 64, 127
3, 127328, Note_on_c, 0, 48, 0
3, 127333, Note_on_c, 0, 60, 0
3, 127335, Control_c, 0, 64, 0
3, 127560, Note_on_c, 0, 48, 99
3, 127560, Control_c, 0, 64, 127
3, 127620, Note_on_c, 0, 60, 95
3, 127623, Control_c, 0, 64, 0
3, 127625, Note_on_c, 0, 48, 0
3, 127652, Control_c, 0, 64, 127
3, 127672, Note_on_c, 0, 60, 0
3, 127680, Note_on_c, 0, 60, 78
3, 127726, Note_on_c, 0, 60, 0
3, 127740, Note_on_c, 0, 60, 86
3, 127775, Note_on_c, 0, 60, 0
3, 127800, Note_on_c, 0, 60, 82
3, 127830, Note_on_c, 0, 60, 0
3, 127860, Note_on_c, 0, 60, 82
3, 127882, Note_on_c, 0, 60, 0
3, 127920, Note_on_c, 0, 53, 103
3, 127930, Control_c, 0, 64, 0
3, 127966, Control_c, 0, 64, 127
3, 127980, Note_on_c, 0, 57, 82
3, 127992, Note_on_c, 0, 53, 0
3, 128000, Control_c, 0, 64, 0
3, 128024, Control_c, 0, 64, 127
3, 128028, Note_on_c, 0, 57, 0
3, 128040, Note_on_c, 0, 57, 82
3, 128084, Note_on_c, 0, 57, 0
3, 128100, Note_on_c, 0, 57, 99
3, 128136, Note_on_c, 0, 57, 0
3, 128160, Note_on_c, 0, 57, 99
3, 128189, Note_on_c, 0, 57, 0
3, 128220, Note_on_c, 0, 57, 95
3, 128244, Note_on_c, 0, 57, 0
3, 128280, Control_c, 0, 64, 0
3, 128280, Note_on_c, 0, 55, 95
3, 128280, Note_on_c, 0, 48, 90
3, 128304, Control_c, 0, 64, 127
3, 128339, Note_on_c, 0, 48, 0
3, 128343, Note_on_c, 0, 55, 0
3, 128400, Note_on_c, 0, 60, 99
3, 128400, Note_on_c, 0, 55, 86
3, 128406, Control_c, 0, 64, 0
3, 128428, Control_c, 0, 64, 127
3, 128470, Note_on_c, 0, 55, 0
3, 128477, Note_on_c, 0, 60, 0
3, 128520, Note_on_c, 0, 55, 82
3, 128520, Note_on_c, 0, 59, 99
3, 128525, Control_c, 0, 64, 0
3, 128547, Control_c, 0, 64, 127
3, 128588, Note_on_c, 0, 59, 0
3, 128594, Note_on_c, 0, 55, 0
3, 128640, Note_on_c, 0, 60, 99
3, 128640, Note_on_c, 0, 57, 103
3, 128643, Control_c, 0, 64, 0
3, 128664, Control_c, 0, 64, 127
3, 128695, Note_on_c, 0, 57, 0
3, 128699, Note_on_c, 0, 60, 0
3, 128760, Note_on_c, 0, 53, 90
3, 128760, Note_on_c, 0, 57, 103
3, 128772, Control_c, 0, 64, 0
3, 128796, Control_c, 0, 64, 127
3, 128825, Note_on_c, 0, 53, 0
3, 128828, Note_on_c, 0, 57, 0
3, 128880, Note_on_c, 0, 55, 103
3, 128880, Note_on_c, 0, 52, 95
3, 128893, Control_c, 0, 64, 0
3, 128919, Control_c, 0, 64, 127
3, 128937, Note_on_c, 0, 52, 0
3, 128939, Note_on_c, 0, 55, 0
3, 129000, Note_on_c, 0, 53, 99
3, 129000, Note_on_c, 0, 57, 103
3, 129002, Control_c, 0, 64, 0
3, 129027, Control_c, 0, 64, 127
3, 129061, Note_on_c, 0, 57, 0
3, 129062, Note_on_c, 0, 53, 0
3, 129120, Note_on_c, 0, 55, 103
3, 129120, Note_on_c, 0, 52, 95
3, 129122, Control_c, 0, 64, 0
3, 129145, Control_c, 0, 64, 127
3, 129176, Note_on_c, 0, 52, 0
3, 129180, Note_on_c, 0, 55, 0
3, 129228, Control_c, 0, 64, 0
3, 129240, Note_on_c, 0, 59, 103
3, 129240, Note_on_c, 0, 55, 99
3, 129240, Note_on_c, 0, 50, 103
3, 129252, Control_c, 0, 64, 127
3, 129298, Note_on_c, 0, 50, 0
3, 129308, Note_on_c, 0, 55, 0
3, 129310, Note_on_c, 0, 59, 0
3, 129358, Control_c, 0, 64, 0
3, 129360, Note_on_c, 0, 55, 108
3, 129360, Note_on_c, 0, 60, 103
3, 129360, Note_on_c, 0, 48, 95
3, 129386, Control_c, 0, 64, 127
3, 129602, Note_on_c, 0, 55, 0
3, 129603, Control_c, 0, 64, 0
3, 129604, Note_on_c, 0, 60, 0
3, 129607, Note_on_c, 0, 48, 0
3, 129720, Note_on_c, 0, 42, 95
3, 129720, Note_on_c, 0, 50, 108
3, 129720, Note_on_c, 0, 54, 95
3, 129720, Note_on_c, 0, 57, 103
3, 129720, Note_on_c, 0, 60, 103
3, 129835, Control_c, 0, 64, 127
3, 130089, Control_c, 0, 64, 0
3, 130320, Note_on_c, 0, 60, 0
3, 130320, Note_on_c, 0, 54, 0
3, 130320, Note_on_c, 0, 42, 0
3, 130320, Note_on_c, 0, 50, 0
3, 130320, Note_on_c, 0, 57, 0
3, 130440, Note_on_c, 0, 43, 99
3, 130448, Control_c, 0, 64, 127
3, 130451, Control_c, 0, 64, 0
3, 130454, Control_c, 0, 64, 127
3, 130500, Note_on_c, 0, 43, 0
3, 130500, Note_on_c, 0, 59, 82
3, 130500, Note_on_c, 0, 55, 86
3, 130508, Control_c, 0, 64, 0
3, 130531, Control_c, 0, 64, 127
3, 130554, Note_on_c, 0, 55, 0
3, 130556, Note_on_c, 0, 59, 0
3, 130560, Note_on_c, 0, 55, 86
3, 130560, Note_on_c, 0, 59, 86
3, 130565, Control_c, 0, 64, 0
3, 130591, Control_c, 0, 64, 127
3, 130610, Note_on_c, 0, 55, 0
3, 130611, Note_on_c, 0, 59, 0
3, 130620, Note_on_c, 0, 55, 83
3, 130620, Note_on_c, 0, 59, 96
3, 130628, Control_c, 0, 64, 0
3, 130648, Control_c, 0, 64, 127
3, 130670, Note_on_c, 0, 55, 0
3, 130673, Note_on_c, 0, 59, 0
3, 130680, Note_on_c, 0, 59, 97
3, 130680, Note_on_c, 0, 55, 84
3, 130687, Control_c, 0, 64, 0
3, 130705, Control_c, 0, 64, 127
3, 130716, Note_on_c, 0, 59, 0
3, 130717, Note_on_c, 0, 55, 0
3, 130740, Control_c, 0, 64, 0
3, 130740, Note_on_c, 0, 55, 84
3, 130740, Note_on_c, 0, 59, 80
3, 130753, Control_c, 0, 64, 127
3, 130792, Note_on_c, 0, 55, 0
3, 130794, Note_on_c, 0, 59, 0
3, 130800, Note_on_c, 0, 43, 89
3, 130801, Control_c, 0, 64, 0
3, 130825, Control_c, 0, 64, 127
3, 130857, Control_c, 0, 64, 0
3, 130860, Note_on_c, 0, 55, 89
3, 130860, Note_on_c, 0, 59, 89
3, 130871, Note_on_c, 0, 43, 0
3, 130879, Control_c, 0, 64, 127
3, 130906, Note_on_c, 0, 59, 0
3, 130906, Note_on_c, 0, 55, 0
3, 130920, Note_on_c, 0, 55, 86
3, 130920, Note_on_c, 0, 59, 90
3, 130922, Control_c, 0, 64, 0
3, 130942, Control_c, 0, 64, 127
3, 130964, Note_on_c, 0, 59, 0
3, 130964, Note_on_c, 0, 55, 0
3, 130980, Control_c, 0, 64, 0
3, 130980, Note_on_c, 0, 55, 95
3, 130980, Note_on_c, 0, 59, 100
3, 130999, Control_c, 0, 64, 127
3, 131017, Note_on_c, 0, 55, 0
3, 131019, Note_on_c, 0, 59, 0
3, 131040, Control_c, 0, 64, 0
3, 131040, Note_on_c, 0, 55, 96
3, 131040, Note_on_c, 0, 59, 96
3, 131058, Control_c, 0, 64, 127
3, 131078, Note_on_c, 0, 55, 0
3, 131080, Note_on_c, 0, 59, 0
3, 131100, Note_on_c, 0, 55, 97
3, 131100, Note_on_c, 0, 59, 97
3, 131140, Note_on_c, 0, 59, 0
3, 131148, Note_on_c, 0, 55, 0
3, 131150, Control_c, 0, 64, 0
3, 131160, Note_on_c, 0, 43, 112
3, 131179, Control_c, 0, 64, 127
3, 131220, Note_on_c, 0, 59, 98
3, 131220, Note_on_c, 0, 55, 104
3, 131223, Control_c, 0, 64, 0
3, 131227, Note_on_c, 0, 43, 0
3, 131243, Control_c, 0, 64, 127
3, 131259, Note_on_c, 0, 55, 0
3, 131259, Note_on_c, 0, 59, 0
3, 131275, Control_c, 0, 64, 0
3, 131280, Note_on_c, 0, 59, 104
3, 131280, Note_on_c, 0, 55, 89
3, 131294, Control_c, 0, 64, 127
3, 131327, Note_on_c, 0, 55, 0
3, 131329, Note_on_c, 0, 59, 0
3, 131340, Note_on_c, 0, 59, 105
3, 131340, Note_on_c, 0, 55, 99
3, 131349, Control_c, 0, 64, 0
3, 131368, Control_c, 0, 64, 127
3, 131372, Note_on_c, 0, 59, 0
3, 131374, Note_on_c, 0, 55, 0
3, 131398, Control_c, 0, 64, 0
3, 131400, Note_on_c, 0, 55, 95
3, 131400, Note_on_c, 0, 59, 110
3, 131416, Control_c, 0, 64, 127
3, 131429, Note_on_c, 0, 59, 0
3, 131429, Note_on_c, 0, 55, 0
3, 131460, Note_on_c, 0, 55, 92
3, 131460, Note_on_c, 0, 59, 96
3, 131481, Note_on_c, 0, 59, 0
3, 131481, Note_on_c, 0, 55, 0
3, 131513, Control_c, 0, 64, 0
3, 131520, Note_on_c, 0, 55, 112
3, 131520, Note_on_c, 0, 59, 112
3, 131520, Note_on_c, 0, 43, 112
3, 131539, Control_c, 0, 64, 127
3, 131867, Note_on_c, 0, 43, 0
3, 131868, Note_on_c, 0, 59, 0
3, 131868, Note_on_c, 0, 55, 0
3, 131874, Control_c, 0, 64, 0
3, 132240, Note_on_c, 0, 52, 89
3, 132240, Note_on_c, 0, 48, 98
3, 132246, Control_c, 0, 64, 127
3, 132268, Note_on_c, 0, 52, 0
3, 132270, Note_on_c, 0, 55, 89
3, 132300, Note_on_c, 0, 55, 0
3, 132300, Note_on_c, 0, 60, 93
3, 132330, Note_on_c, 0, 55, 89
3, 132331, Note_on_c, 0, 60, 0
3, 132360, Note_on_c, 0, 55, 0
3, 132360, Note_on_c, 0, 52, 107
3, 132360, Control_c, 0, 64, 0
3, 132379, Control_c, 0, 64, 127
3, 132390, Note_on_c, 0, 55, 98
3, 132391, Note_on_c, 0, 52, 0
3, 132419, Note_on_c, 0, 55, 0
3, 132420, Note_on_c, 0, 60, 98
3, 132450, Note_on_c, 0, 55, 98
3, 132452, Note_on_c, 0, 60, 0
3, 132478, Note_on_c, 0, 48, 0
3, 132479, Note_on_c, 0, 55, 0
3, 132480, Note_on_c, 0, 53, 93
3, 132480, Note_on_c, 0, 43, 103
3, 132484, Control_c, 0, 64, 0
3, 132510, Note_on_c, 0, 55, 89
3, 132511, Note_on_c, 0, 53, 0
3, 132512, Control_c, 0, 64, 127
3, 132540, Note_on_c, 0, 55, 0
3, 132540, Note_on_c, 0, 59, 98
3, 132570, Note_on_c, 0, 55, 89
3, 132577, Note_on_c, 0, 59, 0
3, 132599, Note_on_c, 0, 55, 0
3, 132600, Note_on_c, 0, 53, 93
3, 132608, Control_c, 0, 64, 0
3, 132628, Control_c, 0, 64, 127
3, 132630, Note_on_c, 0, 55, 103
3, 132633, Note_on_c, 0, 53, 0
3, 132660, Note_on_c, 0, 59, 98
3, 132664, Note_on_c, 0, 55, 0
3, 132667, Note_on_c, 0, 43, 0
3, 132690, Note_on_c, 0, 55, 93
3, 132699, Note_on_c, 0, 59, 0
3, 132713, Note_on_c, 0, 55, 0
3, 132720, Note_on_c, 0, 52, 93
3, 132720, Note_on_c, 0, 36, 89
3, 132726, Control_c, 0, 64, 0
3, 132750, Note_on_c, 0, 52, 0
3, 132750, Note_on_c, 0, 55, 98
3, 132752, Control_c, 0, 64, 127
3, 132778, Note_on_c, 0, 55, 0
3, 132780, Note_on_c, 0, 60, 93
3, 132809, Note_on_c, 0, 60, 0
3, 132810, Note_on_c, 0, 55, 89
3, 132840, Note_on_c, 0, 55, 0
3, 132840, Note_on_c, 0, 52, 98
3, 132847, Control_c, 0, 64, 0
3, 132864, Control_c, 0, 64, 127
3, 132870, Note_on_c, 0, 55, 103
3, 132871, Note_on_c, 0, 52, 0
3, 132899, Note_on_c, 0, 55, 0
3, 132900, Note_on_c, 0, 60, 107
3, 132930, Note_on_c, 0, 55, 93
3, 132932, Note_on_c, 0, 60, 0
3, 132947, Note_on_c, 0, 36, 0
3, 132956, Note_on_c, 0, 55, 0
3, 132960, Note_on_c, 0, 53, 112
3, 132960, Note_on_c, 0, 43, 98
3, 132967, Control_c, 0, 64, 0
3, 132990, Note_on_c, 0, 55, 93
3, 132991, Note_on_c, 0, 53, 0
3, 132992, Control_c, 0, 64, 127
3, 133018, Note_on_c, 0, 55, 0
3, 133020, Note_on_c, 0, 59, 103
3, 133050, Note_on_c, 0, 55, 98
3, 133052, Note_on_c, 0, 59, 0
3, 133075, Note_on_c, 0, 55, 0
3, 133080, Note_on_c, 0, 53, 93
3, 133109, Note_on_c, 0, 53, 0
3, 133110, Note_on_c, 0, 55, 98
3, 133139, Note_on_c, 0, 55, 0
3, 133140, Note_on_c, 0, 59, 93
3, 133170, Note_on_c, 0, 55, 103
3, 133174, Note_on_c, 0, 59, 0
3, 133192, Note_on_c, 0, 55, 0
3, 133192, Note_on_c, 0, 43, 0
3, 133200, Note_on_c, 0, 52, 107
3, 133200, Note_on_c, 0, 48, 98
3, 133207, Control_c, 0, 64, 0
3, 133230, Note_on_c, 0, 52, 0
3, 133230, Note_on_c, 0, 55, 93
3, 133234, Control_c, 0, 64, 127
3, 133255, Note_on_c, 0, 55, 0
3, 133260, Note_on_c, 0, 60, 98
3, 133290, Note_on_c, 0, 60, 0
3, 133290, Note_on_c, 0, 55, 93
3, 133320, Note_on_c, 0, 55, 0
3, 133320, Note_on_c, 0, 52, 84
3, 133338, Control_c, 0, 64, 0
3, 133349, Note_on_c, 0, 52, 0
3, 133350, Note_on_c, 0, 55, 103
3, 133358, Control_c, 0, 64, 127
3, 133380, Note_on_c, 0, 55, 0
3, 133380, Note_on_c, 0, 60, 107
3, 133409, Note_on_c, 0, 60, 0
3, 133410, Note_on_c, 0, 55, 84
3, 133432, Note_on_c, 0, 55, 0
3, 133433, Note_on_c, 0, 48, 0
3, 133440, Note_on_c, 0, 53, 112
3, 133440, Note_on_c, 0, 43, 89
3, 133446, Control_c, 0, 64, 0
3, 133467, Note_on_c, 0, 53, 0
3, 133470, Note_on_c, 0, 55, 93
3, 133470, Control_c, 0, 64, 127
3, 133500, Note_on_c, 0, 55, 0
3, 133500, Note_on_c, 0, 59, 98
3, 133530, Note_on_c, 0, 55, 89
3, 133531, Note_on_c, 0, 59, 0
3, 133557, Note_on_c, 0, 55, 0
3, 133560, Note_on_c, 0, 53, 112
3, 133570, Control_c, 0, 64, 0
3, 133590, Note_on_c, 0, 55, 103
3, 133590, Control_c, 0, 64, 127
3, 133591, Note_on_c, 0, 53, 0
3, 133620, Note_on_c, 0, 59, 107
3, 133623, Note_on_c, 0, 55, 0
3, 133650, Note_on_c, 0, 55, 103
3, 133656, Note_on_c, 0, 59, 0
3, 133673, Note_on_c, 0, 55, 0
3, 133678, Note_on_c, 0, 43, 0
3, 133680, Note_on_c, 0, 52, 89
3, 133680, Note_on_c, 0, 36, 107
3, 133688, Control_c, 0, 64, 0
3, 133708, Note_on_c, 0, 52, 0
3, 133710, Note_on_c, 0, 55, 103
3, 133712, Control_c, 0, 64, 127
3, 133737, Note_on_c, 0, 55, 0
3, 133740, Note_on_c, 0, 60, 107
3, 133769, Note_on_c, 0, 60, 0
3, 133770, Note_on_c, 0, 55, 93
3, 133796, Note_on_c, 0, 55, 0
3, 133799, Control_c, 0, 64, 0
3, 133800, Note_on_c, 0, 52, 112
3, 133816, Control_c, 0, 64, 127
3, 133825, Note_on_c, 0, 52, 0
3, 133830, Note_on_c, 0, 55, 103
3, 133858, Note_on_c, 0, 55, 0
3, 133860, Note_on_c, 0, 60, 103
3, 133890, Note_on_c, 0, 55, 98
3, 133897, Note_on_c, 0, 60, 0
3, 133915, Note_on_c, 0, 36, 0
3, 133917, Note_on_c, 0, 55, 0
3, 133920, Note_on_c, 0, 53, 112
3, 133920, Note_on_c, 0, 43, 93
3, 133925, Control_c, 0, 64, 0
3, 133950, Note_on_c, 0, 55, 98
3, 133950, Control_c, 0, 64, 127
3, 133951, Note_on_c, 0, 53, 0
3, 133974, Note_on_c, 0, 55, 0
3, 133980, Note_on_c, 0, 59, 107
3, 134010, Note_on_c, 0, 55, 107
3, 134012, Note_on_c, 0, 59, 0
3, 134029, Note_on_c, 0, 55, 0
3, 134035, Control_c, 0, 64, 0
3, 134038, Note_on_c, 0, 43, 0
3, 134040, Note_on_c, 0, 60, 107
3, 134040, Note_on_c, 0, 48, 93
3, 134058, Control_c, 0, 64, 127
3, 134091, Note_on_c, 0, 60, 0
3, 134121, Note_on_c, 0, 48, 0
3, 134156, Control_c, 0, 64, 0
3, 134160, Note_on_c, 0, 53, 103
3, 134160, Note_on_c, 0, 43, 89
3, 134183, Control_c, 0, 64, 127
3, 134189, Note_on_c, 0, 53, 0
3, 134190, Note_on_c, 0, 55, 93
3, 134219, Note_on_c, 0, 55, 0
3, 134220, Note_on_c, 0, 59, 103
3, 134249, Note_on_c, 0, 59, 0
3, 134250, Note_on_c, 0, 55, 93
3, 134280, Note_on_c, 0, 53, 107
3, 134283, Note_on_c, 0, 55, 0
3, 134288, Control_c, 0, 64, 0
3, 134309, Control_c, 0, 64, 127
3, 134310, Note_on_c, 0, 55, 93
3, 134311, Note_on_c, 0, 53, 0
3, 134340, Note_on_c, 0, 59, 103
3, 134342, Note_on_c, 0, 55, 0
3, 134370, Note_on_c, 0, 55, 89
3, 134378, Note_on_c, 0, 59, 0
3, 134392, Note_on_c, 0, 55, 0
3, 134400, Note_on_c, 0, 52, 112
3, 134400, Note_on_c, 0, 36, 103
3, 134403, Note_on_c, 0, 43, 0
3, 134412, Control_c, 0, 64, 0
3, 134429, Note_on_c, 0, 52, 0
3, 134430, Note_on_c, 0, 55, 98
3, 134435, Control_c, 0, 64, 127
3, 134456, Note_on_c, 0, 55, 0
3, 134460, Note_on_c, 0, 60, 103
3, 134490, Note_on_c, 0, 60, 0
3, 134490, Note_on_c, 0, 55, 89
3, 134515, Note_on_c, 0, 55, 0
3, 134520, Note_on_c, 0, 52, 112
3, 134527, Control_c, 0, 64, 0
3, 134545, Note_on_c, 0, 52, 0
3, 134546, Control_c, 0, 64, 127
3, 134550, Note_on_c, 0, 55, 93
3, 134575, Note_on_c, 0, 55, 0
3, 134580, Note_on_c, 0, 60, 107
3, 134610, Note_on_c, 0, 55, 84
3, 134613, Note_on_c, 0, 60, 0
3, 134631, Note_on_c, 0, 36, 0
3, 134634, Note_on_c, 0, 55, 0
3, 134640, Note_on_c, 0, 53, 117
3, 134640, Note_on_c, 0, 43, 98
3, 134644, Control_c, 0, 64, 0
3, 134670, Control_c, 0, 64, 127
3, 134670, Note_on_c, 0, 55, 98
3, 134672, Note_on_c, 0, 53, 0
3, 134698, Note_on_c, 0, 55, 0
3, 134700, Note_on_c, 0, 59, 107
3, 134730, Note_on_c, 0, 55, 98
3, 134732, Note_on_c, 0, 59, 0
3, 134760, Note_on_c, 0, 55, 0
3, 134760, Note_on_c, 0, 53, 117
3, 134766, Control_c, 0, 64, 0
3, 134781, Control_c, 0, 64, 127
3, 134790, Note_on_c, 0, 55, 93
3, 134793, Note_on_c, 0, 53, 0
3, 134819, Note_on_c, 0, 55, 0
3, 134820, Note_on_c, 0, 59, 107
3, 134850, Note_on_c, 0, 55, 107
3, 134856, Note_on_c, 0, 59, 0
3, 134872, Note_on_c, 0, 55, 0
3, 134879, Note_on_c, 0, 43, 0
3, 134880, Note_on_c, 0, 52, 112
3, 134880, Note_on_c, 0, 48, 93
3, 134887, Control_c, 0, 64, 0
3, 134909, Note_on_c, 0, 52, 0
3, 134910, Note_on_c, 0, 55, 93
3, 134911, Control_c, 0, 64, 127
3, 134939, Note_on_c, 0, 55, 0
3, 134940, Note_on_c, 0, 60, 107
3, 134968, Note_on_c, 0, 60, 0
3, 134970, Note_on_c, 0, 55, 98
3, 134996, Note_on_c, 0, 55, 0
3, 135000, Note_on_c, 0, 52, 107
3, 135022, Note_on_c, 0, 52, 0
3, 135030, Note_on_c, 0, 55, 107
3, 135058, Note_on_c, 0, 55, 0
3, 135060, Note_on_c, 0, 60, 103
3, 135088, Note_on_c, 0, 60, 0
3, 135090, Note_on_c, 0, 55, 89
3, 135113, Note_on_c, 0, 48, 0
3, 135118, Note_on_c, 0, 55, 0
3, 135120, Note_on_c, 0, 43, 89
3, 135120, Note_on_c, 0, 53, 122
3, 135121, Control_c, 0, 64, 0
3, 135150, Note_on_c, 0, 53, 0
3, 135150, Control_c, 0, 64, 127
3, 135150, Note_on_c, 0, 55, 93
3, 135176, Note_on_c, 0, 55, 0
3, 135180, Note_on_c, 0, 59, 103
3, 135210, Note_on_c, 0, 55, 93
3, 135212, Note_on_c, 0, 59, 0
3, 135234, Note_on_c, 0, 55, 0
3, 135240, Note_on_c, 0, 53, 98
3, 135246, Control_c, 0, 64, 0
3, 135265, Control_c, 0, 64, 127
3, 135270, Note_on_c, 0, 53, 0
3, 135270, Note_on_c, 0, 55, 93
3, 135300, Note_on_c, 0, 55, 0
3, 135300, Note_on_c, 0, 59, 93
3, 135330, Note_on_c, 0, 55, 93
3, 135335, Note_on_c, 0, 59, 0
3, 135351, Note_on_c, 0, 55, 0
3, 135360, Note_on_c, 0, 43, 0
3, 135360, Note_on_c, 0, 52, 84
3, 135360, Note_on_c, 0, 36, 89
3, 135368, Control_c, 0, 64, 0
3, 135389, Note_on_c, 0, 52, 0
3, 135390, Note_on_c, 0, 55, 93
3, 135392, Control_c, 0, 64, 127
3, 135420, Note_on_c, 0, 55, 0
3, 135420, Note_on_c, 0, 60, 103
3, 135450, Note_on_c, 0, 60, 0
3, 135450, Note_on_c, 0, 55, 89
3, 135480, Note_on_c, 0, 55, 0
3, 135480, Note_on_c, 0, 52, 76
3, 135490, Control_c, 0, 64, 0
3, 135508, Note_on_c, 0, 52, 0
3, 135509, Control_c, 0, 64, 127
3, 135510, Note_on_c, 0, 55, 98
3, 135540, Note_on_c, 0, 60, 107
3, 135542, Note_on_c, 0, 55, 0
3, 135570, Note_on_c, 0, 55, 89
3, 135573, Note_on_c, 0, 60, 0
3, 135599, Note_on_c, 0, 36, 0
3, 135600, Note_on_c, 0, 53, 112
3, 135600, Note_on_c, 0, 43, 84
3, 135601, Note_on_c, 0, 55, 0
3, 135608, Control_c, 0, 64, 0
3, 135630, Note_on_c, 0, 55, 98
3, 135632, Note_on_c, 0, 53, 0
3, 135632, Control_c, 0, 64, 127
3, 135659, Note_on_c, 0, 55, 0
3, 135660, Note_on_c, 0, 59, 98
3, 135690, Note_on_c, 0, 55, 93
3, 135691, Note_on_c, 0, 59, 0
3, 135719, Note_on_c, 0, 55, 0
3, 135720, Note_on_c, 0, 53, 93
3, 135736, Control_c, 0, 64, 0
3, 135750, Note_on_c, 0, 55, 98
3, 135754, Note_on_c, 0, 53, 0
3, 135756, Control_c, 0, 64, 127
3, 135780, Note_on_c, 0, 55, 0
3, 135780, Note_on_c, 0, 59, 103
3, 135810, Note_on_c, 0, 55, 89
3, 135820, Note_on_c, 0, 59, 0
3, 135832, Note_on_c, 0, 55, 0
3, 135840, Note_on_c, 0, 52, 93
3, 135840, Note_on_c, 0, 36, 103
3, 135843, Note_on_c, 0, 43, 0
3, 135851, Control_c, 0, 64, 0
3, 135869, Note_on_c, 0, 52, 0
3, 135870, Note_on_c, 0, 55, 103
3, 135874, Control_c, 0, 64, 127
3, 135898, Note_on_c, 0, 55, 0
3, 135900, Note_on_c, 0, 60, 98
3, 135930, Note_on_c, 0, 59, 98
3, 135934, Note_on_c, 0, 60, 0
3, 135947, Control_c, 0, 64, 0
3, 135957, Note_on_c, 0, 59, 0
3, 135960, Note_on_c, 0, 60, 117
3, 135965, Control_c, 0, 64, 127
3, 136017, Note_on_c, 0, 60, 0
3, 136033, Note_on_c, 0, 36, 0
3, 136075, Control_c, 0, 64, 0
3, 136080, Note_on_c, 0, 59, 127
3, 136080, Note_on_c, 0, 55, 117
3, 136080, Note_on_c, 0, 62, 127
3, 136080, Note_on_c, 0, 43, 107
3, 136100, Control_c, 0, 64, 127
3, 136134, Note_on_c, 0, 59, 0
3, 136136, Note_on_c, 0, 55, 0
3, 136137, Note_on_c, 0, 62, 0
3, 136143, Note_on_c, 0, 43, 0
3, 136200, Note_on_c, 0, 48, 107
3, 136200, Note_on_c, 0, 60, 122
3, 136200, Note_on_c, 0, 55, 117
3, 136200, Note_on_c, 0, 64, 127
3, 136201, Control_c, 0, 64, 0
3, 136224, Control_c, 0, 64, 127
3, 136251, Note_on_c, 0, 60, 0
3, 136252, Note_on_c, 0, 64, 0
3, 136258, Note_on_c, 0, 55, 0
3, 136259, Note_on_c, 0, 48, 0
3, 136318, Control_c, 0, 64, 0
3, 136320, Note_on_c, 0, 55, 117
3, 136320, Note_on_c, 0, 59, 127
3, 136320, Note_on_c, 0, 62, 127
3, 136320, Note_on_c, 0, 43, 107
3, 136341, Control_c, 0, 64, 127
3, 136368, Note_on_c, 0, 59, 0
3, 136372, Note_on_c, 0, 55, 0
3, 136373, Note_on_c, 0, 62, 0
3, 136376, Note_on_c, 0, 43, 0
3, 136436, Control_c, 0, 64, 0
3, 136440, Note_on_c, 0, 60, 112
3, 136440, Note_on_c, 0, 55, 117
3, 136440, Note_on_c, 0, 36, 98
3, 136459, Control_c, 0, 64, 127
3, 136500, Note_on_c, 0, 55, 0
3, 136500, Note_on_c, 0, 60, 0
3, 136514, Note_on_c, 0, 36, 0
3, 136560, Control_c, 0, 64, 0
3, 136560, Note_on_c, 0, 55, 107
3, 136560, Note_on_c, 0, 59, 122
3, 136560, Note_on_c, 0, 62, 127
3, 136560, Note_on_c, 0, 43, 103
3, 136583, Control_c, 0, 64, 127
3, 136608, Note_on_c, 0, 59, 0
3, 136610, Note_on_c, 0, 55, 0
3, 136610, Note_on_c, 0, 62, 0
3, 136618, Note_on_c, 0, 43, 0
3, 136679, Control_c, 0, 64, 0
3, 136680, Note_on_c, 0, 55, 117
3, 136680, Note_on_c, 0, 60, 127
3, 136680, Note_on_c, 0, 64, 127
3, 136680, Note_on_c, 0, 48, 98
3, 136704, Control_c, 0, 64, 127
3, 136728, Note_on_c, 0, 60, 0
3, 136731, Note_on_c, 0, 64, 0
3, 136733, Note_on_c, 0, 55, 0
3, 136737, Note_on_c, 0, 48, 0
3, 136797, Control_c, 0, 64, 0
3, 136800, Note_on_c, 0, 55, 107
3, 136800, Note_on_c, 0, 59, 127
3, 136800, Note_on_c, 0, 62, 117
3, 136800, Note_on_c, 0, 43, 103
3, 136821, Control_c, 0, 64, 127
3, 136852, Note_on_c, 0, 59, 0
3, 136855, Note_on_c, 0, 55, 0
3, 136857, Note_on_c, 0, 62, 0
3, 136863, Note_on_c, 0, 43, 0
3, 136917, Control_c, 0, 64, 0
3, 136920, Note_on_c, 0, 60, 117
3, 136920, Note_on_c, 0, 36, 103
3, 136920, Note_on_c, 0, 55, 122
3, 136920, Note_on_c, 0, 48, 98
3, 136941, Control_c, 0, 64, 127
3, 136980, Note_on_c, 0, 60, 0
3, 136988, Note_on_c, 0, 55, 0
3, 136997, Note_on_c, 0, 36, 0
3, 136998, Note_on_c, 0, 48, 0
3, 137040, Note_on_c, 0, 36, 103
3, 137040, Note_on_c, 0, 55, 107
3, 137040, Note_on_c, 0, 48, 93
3, 137040, Note_on_c, 0, 60, 117
3, 137040, Note_on_c, 0, 52, 117
3, 137040, Note_on_c, 0, 43, 112
3, 137042, Control_c, 0, 64, 0
3, 137074, Control_c, 0, 64, 127
3, 137110, Note_on_c, 0, 52, 0
3, 137112, Note_on_c, 0, 60, 0
3, 137117, Note_on_c, 0, 43, 0
3, 137118, Note_on_c, 0, 36, 0
3, 137119, Note_on_c, 0, 55, 0
3, 137120, Note_on_c, 0, 48, 0
3, 137160, Note_on_c, 0, 48, 98
3, 137160, Note_on_c, 0, 52, 127
3, 137160, Note_on_c, 0, 36, 103
3, 137160, Note_on_c, 0, 43, 93
3, 137160, Note_on_c, 0, 60, 112
3, 137160, Note_on_c, 0, 55, 122
3, 137167, Control_c, 0, 64, 0
3, 137192, Control_c, 0, 64, 127
3, 137231, Note_on_c, 0, 60, 0
3, 137231, Note_on_c, 0, 52, 0
3, 137233, Note_on_c, 0, 48, 0
3, 137234, Note_on_c, 0, 43, 0
3, 137234, Note_on_c, 0, 36, 0
3, 137236, Note_on_c, 0, 55, 0
3, 137280, Note_on_c, 0, 36, 99
3, 137280, Note_on_c, 0, 43, 99
3, 137280, Note_on_c, 0, 48, 108
3, 137280, Note_on_c, 0, 52, 72
3, 137280, Note_on_c, 0, 55, 99
3, 137280, Note_on_c, 0, 60, 117
3, 137358, Control_c, 0, 64, 127
3, 137541, Control_c, 0, 64, 0
3, 137760, Note_on_c, 0, 60, 0
3, 137760, Note_on_c, 0, 43, 0
3, 137760, Note_on_c, 0, 48, 0
3, 137760, Note_on_c, 0, 36, 0
3, 137760, Note_on_c, 0, 55, 0
3, 137760, Note_on_c, 0, 52, 0
3, 138240, Control_c, 0, 121, 0
3, 138240, End_track
4, 0, Start_track
4, 0, Title_t, "Title: Sonate in Cmaj (K. 19d, 1765)"
4, 0, End_track
5, 0, Start_track
5, 0, Title_t, "Composer: W. A. Mozart"
5, 0, End_track
6, 0, Start_track
6, 0, Title_t, "Sequence: Faren Raborn, Copyright 1996"
6, 0, End_track
7, 0, Start_track
7, 0, Title_t, "Email: raborn@dtx.net"
7, 0, End_track
0, 0, End_of_file
