0, 0, Header, 0, 1, 384
1, 0, Start_track
1, 0, Tempo, 512820
1, 0, Title_t, "Klaviersonate B-3. Satz"
1, 0, Program_c, 0, 0
1, 0, Control_c, 0, 7, 100
1, 3, Control_c, 0, 10, 64
1, 3, Control_c, 0, 91, 127
1, 3, Program_c, 0, 0
1, 6, Control_c, 0, 7, 100
1, 6, Control_c, 0, 10, 64
1, 6, Control_c, 0, 91, 127
1, 9, Control_c, 0, 64, 0
1, 748, Note_on_c, 0, 77, 60
1, 1020, Note_on_c, 0, 58, 42
1, 1156, Note_on_c, 0, 74, 53
1, 1156, Note_on_c, 0, 77, 0
1, 1292, Note_on_c, 0, 74, 0
1, 1292, Note_on_c, 0, 70, 55
1, 1292, Note_on_c, 0, 58, 0
1, 1295, Note_on_c, 0, 62, 48
1, 1428, Note_on_c, 0, 70, 0
1, 1565, Note_on_c, 0, 70, 55
1, 1565, Note_on_c, 0, 62, 0
1, 1565, Note_on_c, 0, 67, 47
1, 1706, Note_on_c, 0, 70, 0
1, 1847, Note_on_c, 0, 75, 60
1, 1847, Note_on_c, 0, 67, 0
1, 1847, Note_on_c, 0, 60, 52
1, 2119, Note_on_c, 0, 75, 0
1, 2119, Note_on_c, 0, 79, 55
1, 2119, Note_on_c, 0, 60, 0
1, 2122, Note_on_c, 0, 63, 47
1, 2392, Note_on_c, 0, 79, 0
1, 2392, Note_on_c, 0, 69, 52
1, 2392, Note_on_c, 0, 63, 0
1, 2395, Note_on_c, 0, 65, 48
1, 2667, Note_on_c, 0, 69, 0
1, 2667, Note_on_c, 0, 65, 0
1, 2667, Note_on_c, 0, 63, 46
1, 2941, Note_on_c, 0, 72, 55
1, 2941, Note_on_c, 0, 63, 0
1, 2941, Note_on_c, 0, 62, 53
1, 3077, Note_on_c, 0, 72, 0
1, 3077, Note_on_c, 0, 70, 53
1, 3214, Note_on_c, 0, 70, 0
1, 3214, Note_on_c, 0, 74, 57
1, 3214, Note_on_c, 0, 62, 0
1, 3217, Note_on_c, 0, 57, 47
1, 3350, Note_on_c, 0, 74, 0
1, 3350, Note_on_c, 0, 72, 54
1, 3486, Note_on_c, 0, 72, 0
1, 3486, Note_on_c, 0, 75, 58
1, 3486, Note_on_c, 0, 57, 0
1, 3489, Note_on_c, 0, 58, 51
1, 3622, Note_on_c, 0, 75, 0
1, 3622, Note_on_c, 0, 74, 56
1, 3758, Note_on_c, 0, 74, 0
1, 3758, Note_on_c, 0, 77, 60
1, 3758, Note_on_c, 0, 58, 0
1, 3761, Note_on_c, 0, 51, 51
1, 3761, Note_on_c, 0, 60, 51
1, 3896, Note_on_c, 0, 77, 0
1, 3896, Note_on_c, 0, 75, 57
1, 4035, Note_on_c, 0, 75, 0
1, 4035, Note_on_c, 0, 74, 60
1, 4035, Note_on_c, 0, 60, 0
1, 4038, Note_on_c, 0, 51, 0
1, 4038, Note_on_c, 0, 58, 52
1, 4038, Note_on_c, 0, 53, 52
1, 4446, Note_on_c, 0, 74, 0
1, 4446, Note_on_c, 0, 75, 57
1, 4514, Note_on_c, 0, 75, 0
1, 4514, Note_on_c, 0, 74, 53
1, 4583, Note_on_c, 0, 74, 0
1, 4583, Note_on_c, 0, 72, 52
1, 4583, Note_on_c, 0, 58, 0
1, 4586, Note_on_c, 0, 57, 47
1, 4720, Note_on_c, 0, 72, 0
1, 4720, Note_on_c, 0, 74, 54
1, 4860, Note_on_c, 0, 74, 0
1, 4860, Note_on_c, 0, 75, 55
1, 4860, Note_on_c, 0, 57, 0
1, 4863, Note_on_c, 0, 53, 0
1, 5003, Note_on_c, 0, 75, 0
1, 5003, Note_on_c, 0, 76, 57
1, 5146, Note_on_c, 0, 76, 0
1, 5146, Note_on_c, 0, 77, 59
1, 5419, Note_on_c, 0, 58, 39
1, 5555, Note_on_c, 0, 77, 0
1, 5555, Note_on_c, 0, 75, 53
1, 5600, Note_on_c, 0, 75, 0
1, 5600, Note_on_c, 0, 74, 53
1, 5646, Note_on_c, 0, 74, 0
1, 5646, Note_on_c, 0, 72, 53
1, 5691, Note_on_c, 0, 72, 0
1, 5691, Note_on_c, 0, 70, 56
1, 5691, Note_on_c, 0, 58, 0
1, 5694, Note_on_c, 0, 62, 47
1, 5826, Note_on_c, 0, 70, 0
1, 5961, Note_on_c, 0, 70, 56
1, 5961, Note_on_c, 0, 62, 0
1, 5961, Note_on_c, 0, 67, 46
1, 6100, Note_on_c, 0, 70, 0
1, 6239, Note_on_c, 0, 75, 60
1, 6239, Note_on_c, 0, 67, 0
1, 6239, Note_on_c, 0, 60, 51
1, 6511, Note_on_c, 0, 75, 0
1, 6511, Note_on_c, 0, 79, 55
1, 6511, Note_on_c, 0, 60, 0
1, 6514, Note_on_c, 0, 63, 45
1, 6784, Note_on_c, 0, 79, 0
1, 6784, Note_on_c, 0, 69, 58
1, 6784, Note_on_c, 0, 63, 0
1, 6787, Note_on_c, 0, 65, 48
1, 7056, Note_on_c, 0, 69, 0
1, 7056, Note_on_c, 0, 65, 0
1, 7056, Note_on_c, 0, 63, 43
1, 7192, Note_on_c, 0, 69, 52
1, 7328, Note_on_c, 0, 69, 0
1, 7328, Note_on_c, 0, 70, 58
1, 7328, Note_on_c, 0, 63, 0
1, 7331, Note_on_c, 0, 62, 51
1, 7464, Note_on_c, 0, 70, 0
1, 7464, Note_on_c, 0, 74, 55
1, 7600, Note_on_c, 0, 74, 0
1, 7600, Note_on_c, 0, 67, 58
1, 7600, Note_on_c, 0, 62, 0
1, 7603, Note_on_c, 0, 51, 47
1, 7603, Note_on_c, 0, 63, 47
1, 7737, Note_on_c, 0, 67, 0
1, 7737, Note_on_c, 0, 72, 55
1, 7875, Note_on_c, 0, 72, 0
1, 7875, Note_on_c, 0, 70, 58
1, 7875, Note_on_c, 0, 63, 0
1, 7878, Note_on_c, 0, 51, 0
1, 7878, Note_on_c, 0, 62, 50
1, 7878, Note_on_c, 0, 53, 50
1, 8155, Note_on_c, 0, 70, 0
1, 8155, Note_on_c, 0, 69, 55
1, 8155, Note_on_c, 0, 62, 0
1, 8158, Note_on_c, 0, 60, 48
1, 8436, Note_on_c, 0, 69, 0
1, 8436, Note_on_c, 0, 70, 58
1, 8436, Note_on_c, 0, 60, 0
1, 8439, Note_on_c, 0, 53, 0
1, 8439, Note_on_c, 0, 58, 51
1, 8577, Note_on_c, 0, 70, 0
1, 8577, Note_on_c, 0, 65, 56
1, 8645, Note_on_c, 0, 65, 0
1, 8713, Note_on_c, 0, 67, 60
1, 8713, Note_on_c, 0, 58, 0
1, 8782, Note_on_c, 0, 67, 0
1, 8850, Note_on_c, 0, 69, 63
1, 8918, Note_on_c, 0, 69, 0
1, 8986, Note_on_c, 0, 70, 67
1, 9053, Note_on_c, 0, 70, 0
1, 9121, Note_on_c, 0, 72, 70
1, 9188, Note_on_c, 0, 72, 0
1, 9256, Note_on_c, 0, 74, 74
1, 9323, Note_on_c, 0, 74, 0
1, 9390, Note_on_c, 0, 75, 77
1, 9462, Note_on_c, 0, 75, 0
1, 9533, Control_c, 0, 91, 127
1, 9533, Control_c, 0, 91, 127
1, 9533, Note_on_c, 0, 58, 64
1, 9533, Note_on_c, 0, 77, 85
1, 9541, Control_c, 0, 64, 127
1, 9669, Note_on_c, 0, 58, 0
1, 9669, Note_on_c, 0, 65, 54
1, 9806, Note_on_c, 0, 65, 0
1, 9806, Note_on_c, 0, 62, 59
1, 9910, Control_c, 0, 64, 0
1, 9942, Note_on_c, 0, 74, 74
1, 9942, Note_on_c, 0, 62, 0
1, 9942, Note_on_c, 0, 65, 54
1, 9945, Note_on_c, 0, 77, 0
1, 10078, Note_on_c, 0, 74, 0
1, 10078, Note_on_c, 0, 70, 78
1, 10078, Note_on_c, 0, 65, 0
1, 10081, Note_on_c, 0, 55, 63
1, 10214, Note_on_c, 0, 70, 0
1, 10214, Note_on_c, 0, 55, 0
1, 10214, Note_on_c, 0, 62, 56
1, 10350, Note_on_c, 0, 70, 78
1, 10350, Note_on_c, 0, 62, 0
1, 10350, Note_on_c, 0, 58, 59
1, 10489, Note_on_c, 0, 70, 0
1, 10489, Note_on_c, 0, 58, 0
1, 10489, Note_on_c, 0, 62, 55
1, 10627, Note_on_c, 0, 75, 85
1, 10627, Note_on_c, 0, 62, 0
1, 10627, Note_on_c, 0, 51, 64
1, 10642, Control_c, 0, 64, 127
1, 10764, Note_on_c, 0, 75, 0
1, 10764, Note_on_c, 0, 77, 61
1, 10764, Note_on_c, 0, 51, 0
1, 10767, Note_on_c, 0, 60, 54
1, 10798, Note_on_c, 0, 77, 0
1, 10798, Note_on_c, 0, 75, 61
1, 10832, Note_on_c, 0, 75, 0
1, 10832, Note_on_c, 0, 74, 61
1, 10866, Note_on_c, 0, 74, 0
1, 10866, Note_on_c, 0, 75, 61
1, 10880, Control_c, 0, 64, 0
1, 10900, Note_on_c, 0, 75, 0
1, 10900, Note_on_c, 0, 79, 78
1, 10900, Note_on_c, 0, 60, 0
1, 10903, Note_on_c, 0, 55, 59
1, 11036, Note_on_c, 0, 55, 0
1, 11036, Note_on_c, 0, 60, 55
1, 11172, Note_on_c, 0, 79, 0
1, 11172, Note_on_c, 0, 69, 81
1, 11172, Note_on_c, 0, 60, 0
1, 11175, Note_on_c, 0, 53, 64
1, 11309, Note_on_c, 0, 53, 0
1, 11309, Note_on_c, 0, 63, 54
1, 11447, Note_on_c, 0, 69, 0
1, 11447, Note_on_c, 0, 63, 0
1, 11447, Note_on_c, 0, 60, 60
1, 11584, Note_on_c, 0, 60, 0
1, 11584, Note_on_c, 0, 63, 56
1, 11722, Note_on_c, 0, 72, 78
1, 11722, Note_on_c, 0, 63, 0
1, 11722, Note_on_c, 0, 62, 66
1, 11858, Note_on_c, 0, 72, 0
1, 11858, Note_on_c, 0, 70, 74
1, 11994, Note_on_c, 0, 70, 0
1, 11994, Note_on_c, 0, 74, 81
1, 11994, Note_on_c, 0, 62, 0
1, 11997, Note_on_c, 0, 62, 60
1, 11997, Note_on_c, 0, 57, 60
1, 12130, Note_on_c, 0, 74, 0
1, 12130, Note_on_c, 0, 72, 77
1, 12266, Note_on_c, 0, 72, 0
1, 12266, Note_on_c, 0, 75, 82
1, 12266, Note_on_c, 0, 57, 0
1, 12269, Note_on_c, 0, 58, 64
1, 12402, Note_on_c, 0, 75, 0
1, 12402, Note_on_c, 0, 74, 79
1, 12539, Note_on_c, 0, 74, 0
1, 12539, Note_on_c, 0, 77, 85
1, 12539, Note_on_c, 0, 58, 0
1, 12542, Note_on_c, 0, 62, 0
1, 12542, Note_on_c, 0, 51, 64
1, 12542, Note_on_c, 0, 60, 64
1, 12677, Note_on_c, 0, 77, 0
1, 12677, Note_on_c, 0, 75, 81
1, 12815, Note_on_c, 0, 75, 0
1, 12815, Note_on_c, 0, 74, 85
1, 12815, Note_on_c, 0, 60, 0
1, 12818, Note_on_c, 0, 51, 0
1, 12818, Note_on_c, 0, 58, 65
1, 12818, Note_on_c, 0, 53, 65
1, 13226, Note_on_c, 0, 74, 0
1, 13226, Note_on_c, 0, 75, 81
1, 13294, Note_on_c, 0, 75, 0
1, 13294, Note_on_c, 0, 74, 81
1, 13363, Note_on_c, 0, 74, 0
1, 13363, Note_on_c, 0, 72, 73
1, 13363, Note_on_c, 0, 58, 0
1, 13366, Note_on_c, 0, 57, 60
1, 13500, Note_on_c, 0, 72, 0
1, 13500, Note_on_c, 0, 74, 77
1, 13641, Note_on_c, 0, 74, 0
1, 13641, Note_on_c, 0, 75, 78
1, 13641, Note_on_c, 0, 57, 0
1, 13644, Note_on_c, 0, 53, 0
1, 13783, Note_on_c, 0, 75, 0
1, 13783, Note_on_c, 0, 76, 81
1, 13927, Note_on_c, 0, 76, 0
1, 13927, Note_on_c, 0, 77, 83
1, 13927, Note_on_c, 0, 58, 65
1, 13943, Control_c, 0, 64, 127
1, 14063, Note_on_c, 0, 58, 0
1, 14063, Note_on_c, 0, 65, 55
1, 14199, Note_on_c, 0, 65, 0
1, 14199, Note_on_c, 0, 62, 60
1, 14335, Note_on_c, 0, 77, 0
1, 14335, Note_on_c, 0, 75, 74
1, 14335, Note_on_c, 0, 62, 0
1, 14338, Note_on_c, 0, 65, 55
1, 14381, Note_on_c, 0, 75, 0
1, 14381, Note_on_c, 0, 74, 74
1, 14426, Note_on_c, 0, 74, 0
1, 14426, Note_on_c, 0, 72, 74
1, 14445, Control_c, 0, 64, 0
1, 14471, Note_on_c, 0, 72, 0
1, 14471, Note_on_c, 0, 70, 79
1, 14471, Note_on_c, 0, 65, 0
1, 14474, Note_on_c, 0, 55, 64
1, 14539, Note_on_c, 0, 70, 0
1, 14606, Note_on_c, 0, 70, 76
1, 14606, Note_on_c, 0, 55, 0
1, 14606, Note_on_c, 0, 62, 57
1, 14674, Note_on_c, 0, 70, 0
1, 14741, Note_on_c, 0, 70, 79
1, 14741, Note_on_c, 0, 62, 0
1, 14741, Note_on_c, 0, 58, 60
1, 14811, Note_on_c, 0, 70, 0
1, 14880, Note_on_c, 0, 70, 76
1, 14880, Note_on_c, 0, 58, 0
1, 14880, Note_on_c, 0, 62, 57
1, 14950, Note_on_c, 0, 70, 0
1, 15019, Note_on_c, 0, 75, 85
1, 15019, Note_on_c, 0, 62, 0
1, 15019, Note_on_c, 0, 51, 64
1, 15037, Control_c, 0, 64, 127
1, 15155, Note_on_c, 0, 75, 0
1, 15155, Note_on_c, 0, 77, 61
1, 15155, Note_on_c, 0, 51, 0
1, 15158, Note_on_c, 0, 60, 55
1, 15190, Note_on_c, 0, 77, 0
1, 15190, Note_on_c, 0, 75, 61
1, 15224, Note_on_c, 0, 75, 0
1, 15224, Note_on_c, 0, 74, 61
1, 15258, Note_on_c, 0, 74, 0
1, 15258, Note_on_c, 0, 75, 61
1, 15269, Control_c, 0, 64, 0
1, 15292, Note_on_c, 0, 75, 0
1, 15292, Note_on_c, 0, 79, 78
1, 15292, Note_on_c, 0, 60, 0
1, 15295, Note_on_c, 0, 55, 59
1, 15428, Note_on_c, 0, 55, 0
1, 15428, Note_on_c, 0, 60, 55
1, 15564, Note_on_c, 0, 79, 0
1, 15564, Note_on_c, 0, 69, 82
1, 15564, Note_on_c, 0, 60, 0
1, 15567, Note_on_c, 0, 53, 64
1, 15700, Note_on_c, 0, 53, 0
1, 15700, Note_on_c, 0, 63, 55
1, 15836, Note_on_c, 0, 69, 0
1, 15836, Note_on_c, 0, 63, 0
1, 15836, Note_on_c, 0, 60, 59
1, 15975, Note_on_c, 0, 81, 77
1, 15975, Note_on_c, 0, 60, 0
1, 15975, Note_on_c, 0, 63, 55
1, 16110, Note_on_c, 0, 81, 0
1, 16110, Note_on_c, 0, 82, 85
1, 16110, Note_on_c, 0, 63, 0
1, 16113, Note_on_c, 0, 58, 59
1, 16113, Note_on_c, 0, 50, 59
1, 16130, Control_c, 0, 64, 127
1, 16200, Note_on_c, 0, 82, 0
1, 16200, Note_on_c, 0, 77, 74
1, 16291, Note_on_c, 0, 77, 0
1, 16291, Note_on_c, 0, 74, 72
1, 16369, Control_c, 0, 64, 0
1, 16381, Note_on_c, 0, 74, 0
1, 16381, Note_on_c, 0, 79, 84
1, 16381, Note_on_c, 0, 50, 0
1, 16384, Note_on_c, 0, 51, 55
1, 16393, Control_c, 0, 64, 127
1, 16471, Note_on_c, 0, 79, 0
1, 16471, Note_on_c, 0, 75, 73
1, 16561, Note_on_c, 0, 75, 0
1, 16561, Note_on_c, 0, 72, 74
1, 16651, Note_on_c, 0, 72, 0
1, 16651, Note_on_c, 0, 77, 84
1, 16651, Note_on_c, 0, 51, 0
1, 16654, Note_on_c, 0, 58, 0
1, 16654, Control_c, 0, 64, 0
1, 16654, Note_on_c, 0, 62, 59
1, 16657, Note_on_c, 0, 53, 59
1, 16679, Control_c, 0, 64, 127
1, 16742, Note_on_c, 0, 77, 0
1, 16742, Note_on_c, 0, 74, 75
1, 16832, Note_on_c, 0, 74, 0
1, 16832, Note_on_c, 0, 70, 74
1, 16919, Control_c, 0, 64, 0
1, 16923, Note_on_c, 0, 70, 0
1, 16923, Note_on_c, 0, 75, 84
1, 16923, Note_on_c, 0, 62, 0
1, 16926, Note_on_c, 0, 63, 56
1, 16959, Control_c, 0, 64, 127
1, 17013, Note_on_c, 0, 75, 0
1, 17013, Note_on_c, 0, 72, 74
1, 17104, Note_on_c, 0, 72, 0
1, 17104, Note_on_c, 0, 69, 74
1, 17195, Note_on_c, 0, 69, 0
1, 17195, Note_on_c, 0, 70, 83
1, 17195, Note_on_c, 0, 63, 0
1, 17198, Note_on_c, 0, 53, 0
1, 17198, Control_c, 0, 64, 0
1, 17198, Note_on_c, 0, 58, 59
1, 17201, Note_on_c, 0, 62, 59
1, 17285, Control_c, 0, 64, 127
1, 17488, Note_on_c, 0, 70, 0
1, 17488, Note_on_c, 0, 62, 0
1, 17488, Note_on_c, 0, 58, 0
1, 17491, Note_on_c, 0, 46, 64
1, 17570, Control_c, 0, 64, 0
1, 17634, Note_on_c, 0, 65, 53
1, 17776, Note_on_c, 0, 65, 0
1, 17776, Note_on_c, 0, 70, 58
1, 17776, Note_on_c, 0, 46, 0
1, 17848, Note_on_c, 0, 70, 0
1, 17919, Note_on_c, 0, 69, 53
1, 17990, Note_on_c, 0, 69, 0
1, 18061, Note_on_c, 0, 70, 55
1, 18132, Note_on_c, 0, 70, 0
1, 18203, Note_on_c, 0, 72, 53
1, 18274, Note_on_c, 0, 72, 0
1, 18345, Note_on_c, 0, 74, 55
1, 18643, Note_on_c, 0, 74, 0
1, 18643, Note_on_c, 0, 74, 56
1, 18643, Note_on_c, 0, 70, 56
1, 18646, Note_on_c, 0, 58, 48
1, 18934, Note_on_c, 0, 70, 0
1, 18934, Note_on_c, 0, 74, 0
1, 18934, Note_on_c, 0, 70, 59
1, 18937, Note_on_c, 0, 74, 59
1, 18937, Note_on_c, 0, 58, 0
1, 18937, Note_on_c, 0, 55, 48
1, 19224, Note_on_c, 0, 74, 0
1, 19224, Note_on_c, 0, 70, 0
1, 19224, Note_on_c, 0, 75, 55
1, 19227, Note_on_c, 0, 72, 55
1, 19227, Note_on_c, 0, 55, 0
1, 19227, Note_on_c, 0, 51, 45
1, 19518, Note_on_c, 0, 72, 0
1, 19518, Note_on_c, 0, 75, 0
1, 19518, Note_on_c, 0, 72, 54
1, 19521, Note_on_c, 0, 69, 54
1, 19521, Note_on_c, 0, 51, 0
1, 19521, Note_on_c, 0, 53, 47
1, 19812, Note_on_c, 0, 69, 0
1, 19812, Note_on_c, 0, 72, 0
1, 19812, Note_on_c, 0, 53, 0
1, 19815, Note_on_c, 0, 41, 55
1, 19958, Note_on_c, 0, 65, 55
1, 20099, Note_on_c, 0, 65, 0
1, 20099, Note_on_c, 0, 72, 57
1, 20099, Note_on_c, 0, 41, 0
1, 20170, Note_on_c, 0, 72, 0
1, 20240, Note_on_c, 0, 70, 55
1, 20311, Note_on_c, 0, 70, 0
1, 20381, Note_on_c, 0, 72, 56
1, 20452, Note_on_c, 0, 72, 0
1, 20523, Note_on_c, 0, 74, 53
1, 20594, Note_on_c, 0, 74, 0
1, 20665, Note_on_c, 0, 75, 56
1, 20966, Note_on_c, 0, 75, 0
1, 20966, Note_on_c, 0, 67, 56
1, 20966, Note_on_c, 0, 75, 56
1, 20969, Note_on_c, 0, 60, 45
1, 21254, Note_on_c, 0, 75, 0
1, 21254, Note_on_c, 0, 67, 0
1, 21254, Note_on_c, 0, 72, 58
1, 21257, Note_on_c, 0, 75, 58
1, 21257, Note_on_c, 0, 60, 0
1, 21257, Note_on_c, 0, 57, 45
1, 21548, Note_on_c, 0, 75, 0
1, 21548, Note_on_c, 0, 72, 0
1, 21548, Note_on_c, 0, 77, 56
1, 21551, Note_on_c, 0, 69, 56
1, 21551, Note_on_c, 0, 57, 0
1, 21551, Note_on_c, 0, 53, 42
1, 21843, Note_on_c, 0, 69, 0
1, 21843, Note_on_c, 0, 77, 0
1, 21843, Note_on_c, 0, 70, 54
1, 21846, Note_on_c, 0, 74, 54
1, 21846, Note_on_c, 0, 53, 0
1, 21846, Note_on_c, 0, 58, 46
1, 22138, Note_on_c, 0, 74, 0
1, 22138, Note_on_c, 0, 70, 0
1, 22138, Note_on_c, 0, 58, 0
1, 22141, Note_on_c, 0, 46, 65
1, 22285, Note_on_c, 0, 70, 73
1, 22424, Note_on_c, 0, 70, 0
1, 22424, Note_on_c, 0, 74, 79
1, 22424, Note_on_c, 0, 46, 0
1, 22494, Note_on_c, 0, 74, 0
1, 22564, Note_on_c, 0, 72, 72
1, 22633, Note_on_c, 0, 72, 0
1, 22702, Note_on_c, 0, 74, 75
1, 22772, Note_on_c, 0, 74, 0
1, 22841, Note_on_c, 0, 76, 72
1, 22910, Note_on_c, 0, 76, 0
1, 22979, Note_on_c, 0, 77, 79
1, 23116, Note_on_c, 0, 57, 53
1, 23254, Note_on_c, 0, 77, 0
1, 23254, Note_on_c, 0, 57, 0
1, 23254, Note_on_c, 0, 60, 57
1, 23344, Note_on_c, 0, 77, 77
1, 23390, Note_on_c, 0, 60, 0
1, 23390, Note_on_c, 0, 57, 53
1, 23435, Note_on_c, 0, 77, 0
1, 23435, Note_on_c, 0, 79, 79
1, 23526, Note_on_c, 0, 79, 0
1, 23526, Note_on_c, 0, 81, 82
1, 23526, Note_on_c, 0, 57, 0
1, 23529, Note_on_c, 0, 65, 67
1, 23617, Note_on_c, 0, 81, 0
1, 23617, Note_on_c, 0, 79, 76
1, 23708, Note_on_c, 0, 79, 0
1, 23708, Note_on_c, 0, 77, 76
1, 23798, Note_on_c, 0, 77, 0
1, 23798, Note_on_c, 0, 76, 79
1, 23798, Note_on_c, 0, 65, 0
1, 23889, Note_on_c, 0, 76, 0
1, 23889, Note_on_c, 0, 74, 77
1, 23980, Note_on_c, 0, 74, 0
1, 23980, Note_on_c, 0, 72, 76
1, 24073, Note_on_c, 0, 72, 0
1, 24073, Note_on_c, 0, 70, 75
1, 24212, Note_on_c, 0, 55, 53
1, 24351, Note_on_c, 0, 70, 0
1, 24351, Note_on_c, 0, 55, 0
1, 24351, Note_on_c, 0, 58, 58
1, 24441, Note_on_c, 0, 76, 73
1, 24486, Note_on_c, 0, 58, 0
1, 24486, Note_on_c, 0, 55, 54
1, 24531, Note_on_c, 0, 76, 0
1, 24531, Note_on_c, 0, 77, 76
1, 24622, Note_on_c, 0, 77, 0
1, 24622, Note_on_c, 0, 79, 80
1, 24622, Note_on_c, 0, 55, 0
1, 24625, Note_on_c, 0, 64, 66
1, 24712, Note_on_c, 0, 79, 0
1, 24712, Note_on_c, 0, 77, 79
1, 24802, Note_on_c, 0, 77, 0
1, 24802, Note_on_c, 0, 76, 78
1, 24892, Note_on_c, 0, 76, 0
1, 24892, Note_on_c, 0, 74, 77
1, 24892, Note_on_c, 0, 64, 0
1, 24982, Note_on_c, 0, 74, 0
1, 24982, Note_on_c, 0, 72, 76
1, 25073, Note_on_c, 0, 72, 0
1, 25073, Note_on_c, 0, 70, 75
1, 25164, Note_on_c, 0, 70, 0
1, 25164, Note_on_c, 0, 69, 73
1, 25164, Note_on_c, 0, 65, 69
1, 25233, Note_on_c, 0, 69, 0
1, 25233, Note_on_c, 0, 72, 69
1, 25301, Note_on_c, 0, 72, 0
1, 25301, Note_on_c, 0, 70, 71
1, 25369, Note_on_c, 0, 70, 0
1, 25369, Note_on_c, 0, 69, 72
1, 25438, Note_on_c, 0, 69, 0
1, 25438, Note_on_c, 0, 70, 74
1, 25438, Note_on_c, 0, 65, 0
1, 25506, Note_on_c, 0, 70, 0
1, 25506, Note_on_c, 0, 72, 76
1, 25574, Note_on_c, 0, 72, 0
1, 25574, Note_on_c, 0, 74, 77
1, 25642, Note_on_c, 0, 74, 0
1, 25642, Note_on_c, 0, 76, 79
1, 25710, Note_on_c, 0, 76, 0
1, 25710, Note_on_c, 0, 77, 81
1, 25778, Note_on_c, 0, 77, 0
1, 25778, Note_on_c, 0, 79, 82
1, 25845, Note_on_c, 0, 79, 0
1, 25845, Note_on_c, 0, 81, 84
1, 25913, Note_on_c, 0, 81, 0
1, 25913, Note_on_c, 0, 82, 86
1, 25981, Note_on_c, 0, 82, 0
1, 25981, Note_on_c, 0, 84, 87
1, 25981, Note_on_c, 0, 53, 53
1, 26052, Note_on_c, 0, 84, 0
1, 26123, Note_on_c, 0, 69, 59
1, 26123, Note_on_c, 0, 65, 59
1, 26261, Note_on_c, 0, 65, 0
1, 26261, Note_on_c, 0, 69, 0
1, 26261, Note_on_c, 0, 69, 56
1, 26264, Note_on_c, 0, 65, 56
1, 26264, Note_on_c, 0, 53, 0
1, 26264, Note_on_c, 0, 48, 53
1, 26399, Note_on_c, 0, 48, 0
1, 26399, Note_on_c, 0, 60, 47
1, 26536, Note_on_c, 0, 65, 0
1, 26536, Note_on_c, 0, 69, 0
1, 26536, Note_on_c, 0, 67, 52
1, 26539, Note_on_c, 0, 64, 52
1, 26539, Note_on_c, 0, 60, 0
1, 26539, Note_on_c, 0, 59, 49
1, 26674, Note_on_c, 0, 64, 0
1, 26674, Note_on_c, 0, 67, 0
1, 26674, Note_on_c, 0, 59, 0
1, 26677, Note_on_c, 0, 60, 47
1, 26814, Note_on_c, 0, 79, 76
1, 26814, Note_on_c, 0, 60, 0
1, 26814, Note_on_c, 0, 58, 54
1, 26879, Control_c, 0, 64, 127
1, 26951, Note_on_c, 0, 58, 0
1, 26951, Note_on_c, 0, 60, 50
1, 27087, Note_on_c, 0, 60, 0
1, 27087, Note_on_c, 0, 58, 45
1, 27223, Note_on_c, 0, 79, 0
1, 27223, Note_on_c, 0, 76, 60
1, 27223, Note_on_c, 0, 58, 0
1, 27226, Note_on_c, 0, 60, 41
1, 27291, Note_on_c, 0, 76, 0
1, 27291, Note_on_c, 0, 72, 60
1, 27359, Note_on_c, 0, 72, 0
1, 27359, Note_on_c, 0, 77, 67
1, 27359, Note_on_c, 0, 60, 0
1, 27362, Note_on_c, 0, 57, 48
1, 27362, Control_c, 0, 64, 0
1, 27495, Note_on_c, 0, 57, 0
1, 27495, Note_on_c, 0, 60, 45
1, 27637, Note_on_c, 0, 77, 0
1, 27637, Note_on_c, 0, 78, 70
1, 27637, Note_on_c, 0, 60, 0
1, 27640, Note_on_c, 0, 57, 51
1, 27774, Note_on_c, 0, 57, 0
1, 27774, Note_on_c, 0, 60, 47
1, 27912, Note_on_c, 0, 78, 0
1, 27912, Note_on_c, 0, 79, 74
1, 27912, Note_on_c, 0, 60, 0
1, 27915, Note_on_c, 0, 58, 53
1, 27944, Control_c, 0, 64, 127
1, 28048, Note_on_c, 0, 58, 0
1, 28048, Note_on_c, 0, 60, 50
1, 28184, Note_on_c, 0, 60, 0
1, 28184, Note_on_c, 0, 58, 47
1, 28320, Note_on_c, 0, 79, 0
1, 28320, Note_on_c, 0, 76, 61
1, 28320, Note_on_c, 0, 58, 0
1, 28323, Note_on_c, 0, 60, 43
1, 28388, Note_on_c, 0, 76, 0
1, 28388, Note_on_c, 0, 72, 61
1, 28456, Note_on_c, 0, 72, 0
1, 28456, Note_on_c, 0, 77, 65
1, 28456, Note_on_c, 0, 60, 0
1, 28459, Note_on_c, 0, 57, 46
1, 28459, Control_c, 0, 64, 0
1, 28592, Note_on_c, 0, 57, 0
1, 28592, Note_on_c, 0, 60, 36
1, 28729, Note_on_c, 0, 77, 0
1, 28729, Note_on_c, 0, 60, 0
1, 28729, Note_on_c, 0, 57, 43
1, 28865, Note_on_c, 0, 57, 0
1, 28865, Note_on_c, 0, 60, 36
1, 29006, Note_on_c, 0, 79, 75
1, 29006, Note_on_c, 0, 60, 0
1, 29006, Note_on_c, 0, 58, 56
1, 29074, Note_on_c, 0, 79, 0
1, 29142, Note_on_c, 0, 79, 75
1, 29142, Note_on_c, 0, 58, 0
1, 29142, Note_on_c, 0, 60, 55
1, 29165, Control_c, 0, 64, 127
1, 29278, Note_on_c, 0, 60, 0
1, 29278, Note_on_c, 0, 58, 49
1, 29414, Note_on_c, 0, 79, 0
1, 29414, Note_on_c, 0, 76, 61
1, 29414, Note_on_c, 0, 58, 0
1, 29417, Note_on_c, 0, 60, 46
1, 29483, Note_on_c, 0, 76, 0
1, 29483, Note_on_c, 0, 72, 61
1, 29552, Note_on_c, 0, 72, 0
1, 29552, Note_on_c, 0, 77, 64
1, 29552, Note_on_c, 0, 60, 0
1, 29555, Note_on_c, 0, 57, 48
1, 29555, Control_c, 0, 64, 0
1, 29621, Note_on_c, 0, 77, 0
1, 29689, Note_on_c, 0, 77, 68
1, 29689, Note_on_c, 0, 57, 0
1, 29689, Note_on_c, 0, 60, 45
1, 29758, Note_on_c, 0, 77, 0
1, 29827, Note_on_c, 0, 78, 71
1, 29827, Note_on_c, 0, 60, 0
1, 29827, Note_on_c, 0, 57, 50
1, 29895, Note_on_c, 0, 78, 0
1, 29964, Note_on_c, 0, 78, 71
1, 29964, Note_on_c, 0, 57, 0
1, 29964, Note_on_c, 0, 60, 47
1, 30032, Note_on_c, 0, 78, 0
1, 30100, Note_on_c, 0, 79, 77
1, 30100, Note_on_c, 0, 60, 0
1, 30100, Note_on_c, 0, 58, 53
1, 30168, Note_on_c, 0, 79, 0
1, 30230, Control_c, 0, 64, 127
1, 30236, Note_on_c, 0, 79, 77
1, 30236, Note_on_c, 0, 58, 0
1, 30236, Note_on_c, 0, 60, 50
1, 30372, Note_on_c, 0, 60, 0
1, 30372, Note_on_c, 0, 58, 48
1, 30507, Note_on_c, 0, 79, 0
1, 30507, Note_on_c, 0, 76, 60
1, 30507, Note_on_c, 0, 58, 0
1, 30510, Note_on_c, 0, 60, 45
1, 30575, Note_on_c, 0, 76, 0
1, 30575, Note_on_c, 0, 72, 62
1, 30643, Note_on_c, 0, 72, 0
1, 30643, Note_on_c, 0, 77, 66
1, 30643, Note_on_c, 0, 60, 0
1, 30646, Note_on_c, 0, 57, 53
1, 30646, Control_c, 0, 64, 0
1, 30698, Control_c, 0, 64, 127
1, 30779, Note_on_c, 0, 57, 0
1, 30779, Note_on_c, 0, 60, 49
1, 30915, Note_on_c, 0, 77, 0
1, 30915, Note_on_c, 0, 60, 0
1, 30915, Note_on_c, 0, 57, 53
1, 30925, Control_c, 0, 64, 0
1, 30955, Control_c, 0, 64, 127
1, 31052, Note_on_c, 0, 57, 0
1, 31052, Note_on_c, 0, 60, 49
1, 31188, Note_on_c, 0, 78, 69
1, 31188, Note_on_c, 0, 60, 0
1, 31188, Note_on_c, 0, 58, 54
1, 31201, Control_c, 0, 64, 0
1, 31227, Control_c, 0, 64, 127
1, 31255, Note_on_c, 0, 78, 0
1, 31255, Note_on_c, 0, 79, 70
1, 31323, Note_on_c, 0, 79, 0
1, 31323, Note_on_c, 0, 81, 71
1, 31323, Note_on_c, 0, 58, 0
1, 31326, Note_on_c, 0, 60, 48
1, 31391, Note_on_c, 0, 81, 0
1, 31391, Note_on_c, 0, 79, 71
1, 31459, Note_on_c, 0, 79, 0
1, 31459, Note_on_c, 0, 77, 72
1, 31459, Note_on_c, 0, 60, 0
1, 31462, Note_on_c, 0, 58, 57
1, 31472, Control_c, 0, 64, 0
1, 31494, Control_c, 0, 64, 127
1, 31527, Note_on_c, 0, 77, 0
1, 31527, Note_on_c, 0, 76, 73
1, 31595, Note_on_c, 0, 76, 0
1, 31595, Note_on_c, 0, 74, 74
1, 31595, Note_on_c, 0, 58, 0
1, 31598, Note_on_c, 0, 60, 52
1, 31663, Note_on_c, 0, 74, 0
1, 31663, Note_on_c, 0, 72, 75
1, 31732, Note_on_c, 0, 72, 0
1, 31732, Note_on_c, 0, 77, 80
1, 31732, Note_on_c, 0, 60, 0
1, 31735, Control_c, 0, 64, 0
1, 31735, Note_on_c, 0, 57, 64
1, 31756, Control_c, 0, 64, 127
1, 31801, Note_on_c, 0, 77, 0
1, 31801, Note_on_c, 0, 72, 76
1, 31870, Note_on_c, 0, 72, 0
1, 31870, Note_on_c, 0, 81, 80
1, 31938, Note_on_c, 0, 81, 0
1, 31938, Note_on_c, 0, 77, 76
1, 32007, Note_on_c, 0, 77, 0
1, 32007, Note_on_c, 0, 84, 80
1, 32007, Note_on_c, 0, 57, 0
1, 32075, Note_on_c, 0, 84, 0
1, 32075, Note_on_c, 0, 81, 76
1, 32143, Note_on_c, 0, 81, 0
1, 32143, Note_on_c, 0, 84, 80
1, 32211, Note_on_c, 0, 84, 0
1, 32211, Note_on_c, 0, 81, 75
1, 32279, Note_on_c, 0, 81, 0
1, 32279, Note_on_c, 0, 84, 78
1, 32291, Control_c, 0, 64, 0
1, 32331, Control_c, 0, 64, 127
1, 32347, Note_on_c, 0, 84, 0
1, 32347, Note_on_c, 0, 82, 78
1, 32415, Note_on_c, 0, 82, 0
1, 32415, Note_on_c, 0, 81, 77
1, 32483, Note_on_c, 0, 81, 0
1, 32483, Note_on_c, 0, 79, 76
1, 32551, Note_on_c, 0, 79, 0
1, 32551, Note_on_c, 0, 77, 76
1, 32551, Note_on_c, 0, 65, 71
1, 32554, Note_on_c, 0, 57, 71
1, 32566, Control_c, 0, 64, 0
1, 32591, Control_c, 0, 64, 127
1, 32619, Note_on_c, 0, 77, 0
1, 32619, Note_on_c, 0, 75, 76
1, 32687, Note_on_c, 0, 75, 0
1, 32687, Note_on_c, 0, 74, 75
1, 32755, Note_on_c, 0, 74, 0
1, 32755, Note_on_c, 0, 72, 75
1, 32824, Note_on_c, 0, 72, 0
1, 32824, Note_on_c, 0, 74, 79
1, 32824, Note_on_c, 0, 57, 0
1, 32827, Note_on_c, 0, 65, 0
1, 32827, Control_c, 0, 64, 0
1, 32827, Note_on_c, 0, 58, 81
1, 32830, Note_on_c, 0, 65, 81
1, 32847, Control_c, 0, 64, 127
1, 32892, Note_on_c, 0, 74, 0
1, 32892, Note_on_c, 0, 70, 74
1, 32961, Note_on_c, 0, 70, 0
1, 32961, Note_on_c, 0, 77, 81
1, 33029, Note_on_c, 0, 77, 0
1, 33029, Note_on_c, 0, 74, 75
1, 33084, Control_c, 0, 64, 0
1, 33097, Note_on_c, 0, 74, 0
1, 33097, Note_on_c, 0, 82, 84
1, 33097, Note_on_c, 0, 65, 0
1, 33100, Note_on_c, 0, 58, 0
1, 33113, Control_c, 0, 64, 127
1, 33165, Note_on_c, 0, 82, 0
1, 33165, Note_on_c, 0, 77, 79
1, 33233, Note_on_c, 0, 77, 0
1, 33233, Note_on_c, 0, 86, 82
1, 33300, Note_on_c, 0, 86, 0
1, 33300, Note_on_c, 0, 82, 80
1, 33364, Control_c, 0, 64, 0
1, 33368, Note_on_c, 0, 82, 0
1, 33368, Note_on_c, 0, 86, 78
1, 33384, Control_c, 0, 64, 127
1, 33435, Note_on_c, 0, 86, 0
1, 33435, Note_on_c, 0, 84, 76
1, 33502, Note_on_c, 0, 84, 0
1, 33502, Note_on_c, 0, 82, 75
1, 33570, Note_on_c, 0, 82, 0
1, 33570, Note_on_c, 0, 81, 73
1, 33602, Control_c, 0, 64, 0
1, 33628, Control_c, 0, 64, 127
1, 33637, Note_on_c, 0, 81, 0
1, 33637, Note_on_c, 0, 79, 72
1, 33637, Note_on_c, 0, 65, 51
1, 33640, Note_on_c, 0, 67, 51
1, 33640, Note_on_c, 0, 58, 51
1, 33705, Note_on_c, 0, 79, 0
1, 33705, Note_on_c, 0, 77, 69
1, 33773, Note_on_c, 0, 77, 0
1, 33773, Note_on_c, 0, 76, 67
1, 33840, Note_on_c, 0, 76, 0
1, 33840, Note_on_c, 0, 74, 65
1, 33908, Note_on_c, 0, 74, 0
1, 33908, Note_on_c, 0, 72, 63
1, 33908, Note_on_c, 0, 58, 0
1, 33911, Note_on_c, 0, 67, 0
1, 33911, Note_on_c, 0, 65, 0
1, 33911, Note_on_c, 0, 60, 55
1, 33914, Control_c, 0, 64, 0
1, 33983, Control_c, 0, 64, 127
1, 34044, Note_on_c, 0, 60, 0
1, 34044, Note_on_c, 0, 69, 51
1, 34181, Note_on_c, 0, 69, 0
1, 34181, Note_on_c, 0, 65, 56
1, 34317, Note_on_c, 0, 65, 0
1, 34317, Note_on_c, 0, 69, 51
1, 34453, Note_on_c, 0, 72, 0
1, 34453, Note_on_c, 0, 81, 67
1, 34453, Note_on_c, 0, 69, 0
1, 34456, Note_on_c, 0, 60, 55
1, 34463, Control_c, 0, 64, 0
1, 34485, Control_c, 0, 64, 127
1, 34504, Note_on_c, 0, 81, 0
1, 34504, Note_on_c, 0, 79, 61
1, 34555, Note_on_c, 0, 79, 0
1, 34555, Note_on_c, 0, 81, 67
1, 34589, Note_on_c, 0, 60, 0
1, 34589, Note_on_c, 0, 70, 49
1, 34606, Note_on_c, 0, 81, 0
1, 34606, Note_on_c, 0, 79, 59
1, 34657, Note_on_c, 0, 79, 0
1, 34657, Note_on_c, 0, 81, 67
1, 34708, Note_on_c, 0, 81, 0
1, 34708, Note_on_c, 0, 79, 61
1, 34725, Note_on_c, 0, 70, 0
1, 34725, Note_on_c, 0, 64, 55
1, 34733, Control_c, 0, 64, 0
1, 34743, Control_c, 0, 64, 127
1, 34759, Note_on_c, 0, 79, 0
1, 34759, Note_on_c, 0, 81, 67
1, 34810, Note_on_c, 0, 81, 0
1, 34810, Note_on_c, 0, 79, 67
1, 34861, Note_on_c, 0, 79, 0
1, 34861, Note_on_c, 0, 77, 69
1, 34861, Note_on_c, 0, 64, 0
1, 34864, Note_on_c, 0, 70, 49
1, 34929, Note_on_c, 0, 77, 0
1, 34929, Note_on_c, 0, 79, 70
1, 34997, Note_on_c, 0, 79, 0
1, 34997, Note_on_c, 0, 81, 72
1, 34997, Note_on_c, 0, 70, 0
1, 35000, Control_c, 0, 64, 0
1, 35000, Note_on_c, 0, 65, 55
1, 35066, Note_on_c, 0, 81, 0
1, 35066, Note_on_c, 0, 82, 74
1, 35134, Note_on_c, 0, 82, 0
1, 35134, Note_on_c, 0, 84, 74
1, 35202, Note_on_c, 0, 84, 0
1, 35202, Note_on_c, 0, 82, 72
1, 35269, Note_on_c, 0, 82, 0
1, 35269, Note_on_c, 0, 81, 71
1, 35269, Note_on_c, 0, 65, 0
1, 35337, Note_on_c, 0, 81, 0
1, 35337, Note_on_c, 0, 79, 70
1, 35405, Note_on_c, 0, 79, 0
1, 35405, Note_on_c, 0, 77, 68
1, 35405, Note_on_c, 0, 67, 61
1, 35473, Note_on_c, 0, 77, 0
1, 35473, Note_on_c, 0, 76, 67
1, 35542, Note_on_c, 0, 76, 0
1, 35542, Note_on_c, 0, 77, 69
1, 35542, Note_on_c, 0, 67, 0
1, 35545, Note_on_c, 0, 69, 66
1, 35610, Note_on_c, 0, 77, 0
1, 35610, Note_on_c, 0, 79, 71
1, 35678, Note_on_c, 0, 79, 0
1, 35678, Note_on_c, 0, 81, 72
1, 35745, Note_on_c, 0, 81, 0
1, 35745, Note_on_c, 0, 79, 70
1, 35813, Note_on_c, 0, 79, 0
1, 35813, Note_on_c, 0, 77, 69
1, 35813, Note_on_c, 0, 69, 0
1, 35881, Note_on_c, 0, 77, 0
1, 35881, Note_on_c, 0, 75, 69
1, 35948, Note_on_c, 0, 75, 0
1, 35948, Note_on_c, 0, 74, 68
1, 35948, Note_on_c, 0, 57, 60
1, 36016, Note_on_c, 0, 74, 0
1, 36016, Note_on_c, 0, 73, 67
1, 36084, Note_on_c, 0, 73, 0
1, 36084, Note_on_c, 0, 74, 67
1, 36084, Note_on_c, 0, 57, 0
1, 36087, Note_on_c, 0, 58, 66
1, 36152, Note_on_c, 0, 74, 0
1, 36152, Note_on_c, 0, 76, 70
1, 36220, Note_on_c, 0, 76, 0
1, 36220, Note_on_c, 0, 77, 72
1, 36287, Note_on_c, 0, 77, 0
1, 36287, Note_on_c, 0, 75, 71
1, 36355, Note_on_c, 0, 75, 0
1, 36355, Note_on_c, 0, 74, 70
1, 36355, Note_on_c, 0, 58, 0
1, 36423, Note_on_c, 0, 74, 0
1, 36423, Note_on_c, 0, 72, 69
1, 36491, Note_on_c, 0, 72, 0
1, 36491, Note_on_c, 0, 70, 68
1, 36559, Note_on_c, 0, 70, 0
1, 36559, Note_on_c, 0, 69, 68
1, 36627, Note_on_c, 0, 69, 0
1, 36627, Note_on_c, 0, 67, 67
1, 36627, Note_on_c, 0, 34, 67
1, 36630, Note_on_c, 0, 46, 67
1, 36696, Note_on_c, 0, 67, 0
1, 36696, Note_on_c, 0, 69, 68
1, 36764, Note_on_c, 0, 69, 0
1, 36764, Note_on_c, 0, 70, 69
1, 36831, Note_on_c, 0, 70, 0
1, 36831, Note_on_c, 0, 69, 68
1, 36899, Note_on_c, 0, 69, 0
1, 36899, Note_on_c, 0, 67, 66
1, 36899, Note_on_c, 0, 46, 0
1, 36902, Note_on_c, 0, 34, 0
1, 36967, Note_on_c, 0, 67, 0
1, 36967, Note_on_c, 0, 65, 65
1, 37036, Note_on_c, 0, 65, 0
1, 37036, Note_on_c, 0, 64, 63
1, 37105, Note_on_c, 0, 64, 0
1, 37105, Note_on_c, 0, 62, 61
1, 37174, Note_on_c, 0, 62, 0
1, 37174, Note_on_c, 0, 60, 60
1, 37174, Note_on_c, 0, 48, 57
1, 37310, Note_on_c, 0, 60, 0
1, 37310, Note_on_c, 0, 62, 60
1, 37310, Note_on_c, 0, 48, 0
1, 37313, Note_on_c, 0, 57, 54
1, 37378, Note_on_c, 0, 62, 0
1, 37378, Note_on_c, 0, 64, 61
1, 37447, Note_on_c, 0, 64, 0
1, 37447, Note_on_c, 0, 65, 62
1, 37447, Note_on_c, 0, 57, 0
1, 37450, Note_on_c, 0, 53, 57
1, 37514, Note_on_c, 0, 65, 0
1, 37514, Note_on_c, 0, 67, 64
1, 37582, Note_on_c, 0, 67, 0
1, 37582, Note_on_c, 0, 69, 65
1, 37582, Note_on_c, 0, 53, 0
1, 37585, Note_on_c, 0, 57, 54
1, 37650, Note_on_c, 0, 69, 0
1, 37650, Note_on_c, 0, 70, 66
1, 37718, Note_on_c, 0, 70, 0
1, 37718, Note_on_c, 0, 72, 67
1, 37718, Note_on_c, 0, 57, 0
1, 37721, Note_on_c, 0, 48, 63
1, 37785, Note_on_c, 0, 72, 0
1, 37785, Note_on_c, 0, 74, 69
1, 37852, Note_on_c, 0, 74, 0
1, 37852, Note_on_c, 0, 76, 70
1, 37852, Note_on_c, 0, 48, 0
1, 37855, Note_on_c, 0, 57, 57
1, 37920, Note_on_c, 0, 76, 0
1, 37920, Note_on_c, 0, 77, 71
1, 37987, Note_on_c, 0, 77, 0
1, 37987, Note_on_c, 0, 79, 73
1, 37987, Note_on_c, 0, 57, 0
1, 37990, Note_on_c, 0, 53, 67
1, 38054, Note_on_c, 0, 79, 0
1, 38054, Note_on_c, 0, 81, 74
1, 38121, Note_on_c, 0, 81, 0
1, 38121, Note_on_c, 0, 82, 75
1, 38121, Note_on_c, 0, 53, 0
1, 38124, Note_on_c, 0, 57, 61
1, 38188, Note_on_c, 0, 82, 0
1, 38188, Note_on_c, 0, 84, 77
1, 38258, Note_on_c, 0, 84, 0
1, 38258, Note_on_c, 0, 77, 71
1, 38258, Note_on_c, 0, 57, 0
1, 38261, Note_on_c, 0, 48, 57
1, 38269, Control_c, 0, 64, 127
1, 38306, Note_on_c, 0, 77, 0
1, 38306, Note_on_c, 0, 79, 64
1, 38354, Note_on_c, 0, 79, 0
1, 38354, Note_on_c, 0, 81, 58
1, 38401, Note_on_c, 0, 81, 0
1, 38401, Note_on_c, 0, 79, 64
1, 38401, Note_on_c, 0, 48, 0
1, 38404, Note_on_c, 0, 58, 53
1, 38447, Note_on_c, 0, 79, 0
1, 38447, Note_on_c, 0, 81, 58
1, 38494, Note_on_c, 0, 81, 0
1, 38494, Note_on_c, 0, 79, 65
1, 38540, Note_on_c, 0, 79, 0
1, 38540, Note_on_c, 0, 81, 62
1, 38540, Note_on_c, 0, 58, 0
1, 38543, Note_on_c, 0, 52, 57
1, 38586, Note_on_c, 0, 81, 0
1, 38586, Note_on_c, 0, 79, 67
1, 38631, Note_on_c, 0, 79, 0
1, 38631, Note_on_c, 0, 81, 61
1, 38677, Note_on_c, 0, 81, 0
1, 38677, Note_on_c, 0, 79, 68
1, 38677, Note_on_c, 0, 52, 0
1, 38680, Note_on_c, 0, 58, 53
1, 38722, Note_on_c, 0, 79, 0
1, 38722, Note_on_c, 0, 81, 61
1, 38767, Note_on_c, 0, 81, 0
1, 38767, Note_on_c, 0, 79, 69
1, 38812, Note_on_c, 0, 79, 0
1, 38812, Note_on_c, 0, 81, 64
1, 38812, Note_on_c, 0, 58, 0
1, 38815, Note_on_c, 0, 48, 57
1, 38820, Control_c, 0, 64, 0
1, 38838, Control_c, 0, 64, 127
1, 38857, Note_on_c, 0, 81, 0
1, 38857, Note_on_c, 0, 79, 70
1, 38902, Note_on_c, 0, 79, 0
1, 38902, Note_on_c, 0, 81, 64
1, 38948, Note_on_c, 0, 81, 0
1, 38948, Note_on_c, 0, 79, 70
1, 38948, Note_on_c, 0, 48, 0
1, 38951, Note_on_c, 0, 58, 53
1, 38993, Note_on_c, 0, 79, 0
1, 38993, Note_on_c, 0, 81, 66
1, 39039, Note_on_c, 0, 81, 0
1, 39039, Note_on_c, 0, 79, 69
1, 39084, Note_on_c, 0, 79, 0
1, 39084, Note_on_c, 0, 81, 72
1, 39084, Note_on_c, 0, 58, 0
1, 39087, Note_on_c, 0, 52, 57
1, 39153, Note_on_c, 0, 81, 0
1, 39153, Note_on_c, 0, 79, 72
1, 39222, Note_on_c, 0, 79, 0
1, 39222, Note_on_c, 0, 77, 73
1, 39222, Note_on_c, 0, 52, 0
1, 39225, Note_on_c, 0, 58, 52
1, 39292, Note_on_c, 0, 77, 0
1, 39292, Note_on_c, 0, 79, 70
1, 39366, Note_on_c, 0, 79, 0
1, 39366, Note_on_c, 0, 77, 76
1, 39366, Note_on_c, 0, 58, 0
1, 39369, Control_c, 0, 64, 0
1, 39369, Note_on_c, 0, 53, 57
1, 39369, Note_on_c, 0, 57, 57
1, 39438, Control_c, 0, 64, 127
1, 39502, Note_on_c, 0, 77, 0
1, 39502, Note_on_c, 0, 77, 72
1, 39606, Control_c, 0, 64, 0
1, 39638, Note_on_c, 0, 77, 0
1, 39638, Note_on_c, 0, 57, 0
1, 39638, Note_on_c, 0, 53, 0
1, 39641, Note_on_c, 0, 57, 47
1, 39641, Note_on_c, 0, 53, 47
1, 39774, Note_on_c, 0, 77, 55
1, 39814, Control_c, 0, 64, 127
1, 39910, Note_on_c, 0, 77, 0
1, 39910, Note_on_c, 0, 77, 57
1, 39910, Note_on_c, 0, 53, 0
1, 39913, Note_on_c, 0, 57, 0
1, 40046, Note_on_c, 0, 77, 0
1, 40046, Note_on_c, 0, 77, 54
1, 40118, Control_c, 0, 64, 0
1, 40183, Note_on_c, 0, 77, 0
1, 40183, Note_on_c, 0, 57, 47
1, 40183, Note_on_c, 0, 53, 47
1, 40206, Control_c, 0, 64, 127
1, 40319, Note_on_c, 0, 77, 55
1, 40455, Note_on_c, 0, 77, 0
1, 40455, Note_on_c, 0, 77, 57
1, 40455, Note_on_c, 0, 53, 0
1, 40458, Note_on_c, 0, 57, 0
1, 40458, Control_c, 0, 64, 0
1, 40458, Note_on_c, 0, 55, 50
1, 40461, Note_on_c, 0, 58, 50
1, 40461, Note_on_c, 0, 53, 50
1, 40519, Control_c, 0, 64, 127
1, 40591, Note_on_c, 0, 77, 0
1, 40591, Note_on_c, 0, 77, 53
1, 40727, Note_on_c, 0, 77, 0
1, 40727, Note_on_c, 0, 53, 0
1, 40727, Note_on_c, 0, 58, 0
1, 40730, Note_on_c, 0, 55, 0
1, 40730, Note_on_c, 0, 53, 50
1, 40730, Note_on_c, 0, 55, 50
1, 40733, Note_on_c, 0, 58, 50
1, 40799, Control_c, 0, 64, 0
1, 40863, Note_on_c, 0, 77, 60
1, 40904, Control_c, 0, 64, 127
1, 40999, Note_on_c, 0, 77, 0
1, 40999, Note_on_c, 0, 77, 64
1, 40999, Note_on_c, 0, 58, 0
1, 41002, Note_on_c, 0, 55, 0
1, 41002, Note_on_c, 0, 53, 0
1, 41136, Note_on_c, 0, 77, 0
1, 41136, Note_on_c, 0, 77, 60
1, 41192, Control_c, 0, 64, 0
1, 41264, Control_c, 0, 64, 127
1, 41272, Note_on_c, 0, 77, 0
1, 41272, Note_on_c, 0, 53, 54
1, 41272, Note_on_c, 0, 56, 54
1, 41275, Note_on_c, 0, 59, 54
1, 41408, Note_on_c, 0, 77, 69
1, 41544, Note_on_c, 0, 77, 0
1, 41544, Note_on_c, 0, 77, 72
1, 41544, Note_on_c, 0, 59, 0
1, 41547, Note_on_c, 0, 56, 0
1, 41547, Note_on_c, 0, 53, 0
1, 41547, Control_c, 0, 64, 0
1, 41550, Note_on_c, 0, 53, 55
1, 41550, Note_on_c, 0, 60, 55
1, 41550, Note_on_c, 0, 57, 55
1, 41632, Control_c, 0, 64, 127
1, 41680, Note_on_c, 0, 77, 0
1, 41680, Note_on_c, 0, 77, 69
1, 41817, Note_on_c, 0, 77, 0
1, 41817, Note_on_c, 0, 57, 0
1, 41817, Note_on_c, 0, 60, 0
1, 41820, Note_on_c, 0, 57, 61
1, 41820, Note_on_c, 0, 61, 61
1, 41820, Control_c, 0, 64, 0
1, 41873, Control_c, 0, 64, 127
1, 41954, Note_on_c, 0, 77, 79
1, 42051, Control_c, 0, 64, 0
1, 42092, Note_on_c, 0, 77, 0
1, 42092, Note_on_c, 0, 77, 82
1, 42092, Note_on_c, 0, 61, 0
1, 42095, Note_on_c, 0, 57, 0
1, 42095, Note_on_c, 0, 53, 0
1, 42095, Note_on_c, 0, 58, 66
1, 42098, Note_on_c, 0, 62, 66
1, 42098, Note_on_c, 0, 53, 66
1, 42108, Control_c, 0, 64, 127
1, 42231, Note_on_c, 0, 77, 0
1, 42231, Note_on_c, 0, 77, 78
1, 42322, Control_c, 0, 64, 0
1, 42371, Note_on_c, 0, 77, 0
1, 42371, Note_on_c, 0, 62, 0
1, 42371, Note_on_c, 0, 58, 0
1, 42374, Note_on_c, 0, 59, 71
1, 42374, Note_on_c, 0, 62, 71
1, 42379, Control_c, 0, 64, 127
1, 42512, Note_on_c, 0, 77, 80
1, 42653, Note_on_c, 0, 77, 0
1, 42653, Note_on_c, 0, 77, 86
1, 42653, Note_on_c, 0, 62, 0
1, 42656, Note_on_c, 0, 59, 0
1, 42656, Note_on_c, 0, 53, 0
1, 42656, Control_c, 0, 64, 0
1, 42659, Note_on_c, 0, 60, 77
1, 42659, Note_on_c, 0, 53, 77
1, 42659, Note_on_c, 0, 63, 77
1, 42742, Control_c, 0, 64, 127
1, 42790, Note_on_c, 0, 77, 0
1, 42790, Note_on_c, 0, 81, 81
1, 42926, Note_on_c, 0, 81, 0
1, 42926, Note_on_c, 0, 81, 86
1, 43063, Note_on_c, 0, 81, 0
1, 43063, Note_on_c, 0, 84, 81
1, 43200, Note_on_c, 0, 84, 0
1, 43200, Note_on_c, 0, 84, 86
1, 43336, Note_on_c, 0, 84, 0
1, 43336, Note_on_c, 0, 87, 81
1, 43473, Note_on_c, 0, 87, 0
1, 43473, Note_on_c, 0, 87, 86
1, 43609, Note_on_c, 0, 87, 0
1, 43609, Note_on_c, 0, 84, 75
1, 43746, Note_on_c, 0, 84, 0
1, 43746, Note_on_c, 0, 84, 81
1, 43746, Note_on_c, 0, 63, 0
1, 43749, Note_on_c, 0, 53, 0
1, 43749, Note_on_c, 0, 60, 0
1, 43749, Control_c, 0, 64, 0
1, 43805, Control_c, 0, 64, 127
1, 43883, Note_on_c, 0, 84, 0
1, 43883, Note_on_c, 0, 81, 73
1, 44021, Note_on_c, 0, 81, 0
1, 44021, Note_on_c, 0, 81, 79
1, 44158, Note_on_c, 0, 81, 0
1, 44158, Note_on_c, 0, 77, 71
1, 44295, Note_on_c, 0, 77, 0
1, 44295, Note_on_c, 0, 77, 68
1, 44309, Control_c, 0, 64, 0
1, 44437, Note_on_c, 0, 77, 0
1, 44437, Note_on_c, 0, 76, 57
1, 44582, Note_on_c, 0, 76, 0
1, 44582, Note_on_c, 0, 76, 57
1, 44728, Note_on_c, 0, 76, 0
1, 44728, Note_on_c, 0, 77, 57
1, 44900, Note_on_c, 0, 77, 0
1, 44900, Control_c, 0, 91, 127
1, 44900, Control_c, 0, 91, 127
1, 44903, Note_on_c, 0, 77, 67
1, 45172, Note_on_c, 0, 58, 45
1, 45308, Note_on_c, 0, 74, 53
1, 45308, Note_on_c, 0, 77, 0
1, 45444, Note_on_c, 0, 74, 0
1, 45444, Note_on_c, 0, 70, 55
1, 45444, Note_on_c, 0, 58, 0
1, 45447, Note_on_c, 0, 62, 48
1, 45581, Note_on_c, 0, 70, 0
1, 45717, Note_on_c, 0, 70, 53
1, 45717, Note_on_c, 0, 62, 0
1, 45717, Note_on_c, 0, 67, 46
1, 45858, Note_on_c, 0, 70, 0
1, 45999, Note_on_c, 0, 75, 60
1, 45999, Note_on_c, 0, 67, 0
1, 45999, Note_on_c, 0, 60, 52
1, 46272, Note_on_c, 0, 75, 0
1, 46272, Note_on_c, 0, 79, 55
1, 46272, Note_on_c, 0, 60, 0
1, 46275, Note_on_c, 0, 63, 46
1, 46544, Note_on_c, 0, 79, 0
1, 46544, Note_on_c, 0, 69, 57
1, 46544, Note_on_c, 0, 63, 0
1, 46547, Note_on_c, 0, 65, 48
1, 46819, Note_on_c, 0, 69, 0
1, 46819, Note_on_c, 0, 65, 0
1, 46819, Note_on_c, 0, 63, 46
1, 47093, Note_on_c, 0, 72, 55
1, 47093, Note_on_c, 0, 63, 0
1, 47093, Note_on_c, 0, 62, 53
1, 47230, Note_on_c, 0, 72, 0
1, 47230, Note_on_c, 0, 70, 53
1, 47366, Note_on_c, 0, 70, 0
1, 47366, Note_on_c, 0, 74, 57
1, 47366, Note_on_c, 0, 62, 0
1, 47369, Note_on_c, 0, 57, 47
1, 47502, Note_on_c, 0, 74, 0
1, 47502, Note_on_c, 0, 72, 54
1, 47638, Note_on_c, 0, 72, 0
1, 47638, Note_on_c, 0, 75, 58
1, 47638, Note_on_c, 0, 57, 0
1, 47641, Note_on_c, 0, 58, 51
1, 47774, Note_on_c, 0, 75, 0
1, 47774, Note_on_c, 0, 74, 56
1, 47910, Note_on_c, 0, 74, 0
1, 47910, Note_on_c, 0, 77, 60
1, 47910, Note_on_c, 0, 58, 0
1, 47913, Note_on_c, 0, 60, 49
1, 47913, Note_on_c, 0, 51, 49
1, 48048, Note_on_c, 0, 77, 0
1, 48048, Note_on_c, 0, 75, 57
1, 48187, Note_on_c, 0, 75, 0
1, 48187, Note_on_c, 0, 74, 60
1, 48187, Note_on_c, 0, 51, 0
1, 48190, Note_on_c, 0, 60, 0
1, 48190, Note_on_c, 0, 53, 52
1, 48190, Note_on_c, 0, 58, 52
1, 48598, Note_on_c, 0, 74, 0
1, 48598, Note_on_c, 0, 75, 57
1, 48666, Note_on_c, 0, 75, 0
1, 48666, Note_on_c, 0, 74, 57
1, 48735, Note_on_c, 0, 74, 0
1, 48735, Note_on_c, 0, 72, 52
1, 48735, Note_on_c, 0, 58, 0
1, 48738, Note_on_c, 0, 57, 47
1, 48872, Note_on_c, 0, 72, 0
1, 48872, Note_on_c, 0, 74, 54
1, 49012, Note_on_c, 0, 74, 0
1, 49012, Note_on_c, 0, 75, 55
1, 49012, Note_on_c, 0, 57, 0
1, 49015, Note_on_c, 0, 53, 0
1, 49155, Note_on_c, 0, 75, 0
1, 49155, Note_on_c, 0, 76, 57
1, 49298, Note_on_c, 0, 76, 0
1, 49298, Note_on_c, 0, 77, 59
1, 49571, Note_on_c, 0, 58, 41
1, 49707, Note_on_c, 0, 77, 0
1, 49707, Note_on_c, 0, 75, 53
1, 49752, Note_on_c, 0, 75, 0
1, 49752, Note_on_c, 0, 74, 53
1, 49798, Note_on_c, 0, 74, 0
1, 49798, Note_on_c, 0, 72, 53
1, 49843, Note_on_c, 0, 72, 0
1, 49843, Note_on_c, 0, 70, 56
1, 49843, Note_on_c, 0, 58, 0
1, 49846, Note_on_c, 0, 62, 47
1, 49978, Note_on_c, 0, 70, 0
1, 50113, Note_on_c, 0, 70, 56
1, 50113, Note_on_c, 0, 62, 0
1, 50113, Note_on_c, 0, 67, 45
1, 50252, Note_on_c, 0, 70, 0
1, 50391, Note_on_c, 0, 75, 60
1, 50391, Note_on_c, 0, 67, 0
1, 50391, Note_on_c, 0, 60, 51
1, 50663, Note_on_c, 0, 75, 0
1, 50663, Note_on_c, 0, 79, 55
1, 50663, Note_on_c, 0, 60, 0
1, 50666, Note_on_c, 0, 63, 47
1, 50936, Note_on_c, 0, 79, 0
1, 50936, Note_on_c, 0, 69, 58
1, 50936, Note_on_c, 0, 63, 0
1, 50939, Note_on_c, 0, 65, 48
1, 51208, Note_on_c, 0, 69, 0
1, 51208, Note_on_c, 0, 65, 0
1, 51208, Note_on_c, 0, 63, 45
1, 51344, Note_on_c, 0, 69, 54
1, 51480, Note_on_c, 0, 69, 0
1, 51480, Note_on_c, 0, 70, 58
1, 51480, Note_on_c, 0, 63, 0
1, 51483, Note_on_c, 0, 62, 51
1, 51616, Note_on_c, 0, 70, 0
1, 51616, Note_on_c, 0, 74, 55
1, 51752, Note_on_c, 0, 74, 0
1, 51752, Note_on_c, 0, 67, 58
1, 51752, Note_on_c, 0, 62, 0
1, 51755, Note_on_c, 0, 63, 47
1, 51755, Note_on_c, 0, 51, 47
1, 51889, Note_on_c, 0, 67, 0
1, 51889, Note_on_c, 0, 72, 55
1, 52027, Note_on_c, 0, 72, 0
1, 52027, Note_on_c, 0, 70, 58
1, 52027, Note_on_c, 0, 51, 0
1, 52030, Note_on_c, 0, 63, 0
1, 52030, Note_on_c, 0, 53, 50
1, 52030, Note_on_c, 0, 62, 50
1, 52307, Note_on_c, 0, 70, 0
1, 52307, Note_on_c, 0, 69, 55
1, 52307, Note_on_c, 0, 62, 0
1, 52310, Note_on_c, 0, 60, 48
1, 52588, Note_on_c, 0, 69, 0
1, 52588, Note_on_c, 0, 70, 58
1, 52588, Note_on_c, 0, 60, 0
1, 52591, Note_on_c, 0, 53, 0
1, 52591, Note_on_c, 0, 58, 51
1, 52729, Note_on_c, 0, 70, 0
1, 52729, Note_on_c, 0, 65, 56
1, 52797, Note_on_c, 0, 65, 0
1, 52865, Note_on_c, 0, 67, 60
1, 52865, Note_on_c, 0, 58, 0
1, 52934, Note_on_c, 0, 67, 0
1, 53002, Note_on_c, 0, 69, 63
1, 53070, Note_on_c, 0, 69, 0
1, 53138, Note_on_c, 0, 70, 67
1, 53205, Note_on_c, 0, 70, 0
1, 53273, Note_on_c, 0, 72, 70
1, 53340, Note_on_c, 0, 72, 0
1, 53408, Note_on_c, 0, 74, 74
1, 53475, Note_on_c, 0, 74, 0
1, 53542, Note_on_c, 0, 75, 77
1, 53614, Note_on_c, 0, 75, 0
1, 53685, Control_c, 0, 91, 127
1, 53685, Control_c, 0, 91, 127
1, 53685, Note_on_c, 0, 58, 64
1, 53685, Note_on_c, 0, 77, 85
1, 53717, Control_c, 0, 64, 127
1, 53821, Note_on_c, 0, 58, 0
1, 53821, Note_on_c, 0, 65, 54
1, 53958, Note_on_c, 0, 65, 0
1, 53958, Note_on_c, 0, 62, 59
1, 54094, Note_on_c, 0, 74, 74
1, 54094, Note_on_c, 0, 62, 0
1, 54094, Note_on_c, 0, 65, 54
1, 54097, Note_on_c, 0, 77, 0
1, 54230, Note_on_c, 0, 74, 0
1, 54230, Note_on_c, 0, 70, 78
1, 54230, Note_on_c, 0, 65, 0
1, 54233, Note_on_c, 0, 55, 63
1, 54262, Control_c, 0, 64, 0
1, 54366, Note_on_c, 0, 70, 0
1, 54366, Note_on_c, 0, 55, 0
1, 54366, Note_on_c, 0, 62, 55
1, 54502, Note_on_c, 0, 70, 78
1, 54502, Note_on_c, 0, 62, 0
1, 54502, Note_on_c, 0, 58, 59
1, 54641, Note_on_c, 0, 70, 0
1, 54641, Note_on_c, 0, 58, 0
1, 54641, Note_on_c, 0, 62, 55
1, 54780, Note_on_c, 0, 75, 85
1, 54780, Note_on_c, 0, 62, 0
1, 54780, Note_on_c, 0, 51, 64
1, 54786, Control_c, 0, 64, 127
1, 54916, Note_on_c, 0, 75, 0
1, 54916, Note_on_c, 0, 77, 61
1, 54916, Note_on_c, 0, 51, 0
1, 54919, Note_on_c, 0, 60, 56
1, 54950, Note_on_c, 0, 77, 0
1, 54950, Note_on_c, 0, 75, 61
1, 54984, Note_on_c, 0, 75, 0
1, 54984, Note_on_c, 0, 74, 61
1, 55018, Note_on_c, 0, 74, 0
1, 55018, Note_on_c, 0, 75, 61
1, 55018, Control_c, 0, 64, 0
1, 55052, Note_on_c, 0, 75, 0
1, 55052, Note_on_c, 0, 79, 78
1, 55052, Note_on_c, 0, 60, 0
1, 55055, Note_on_c, 0, 55, 59
1, 55188, Note_on_c, 0, 55, 0
1, 55188, Note_on_c, 0, 60, 55
1, 55324, Note_on_c, 0, 79, 0
1, 55324, Note_on_c, 0, 69, 81
1, 55324, Note_on_c, 0, 60, 0
1, 55327, Note_on_c, 0, 53, 64
1, 55462, Note_on_c, 0, 53, 0
1, 55462, Note_on_c, 0, 63, 56
1, 55599, Note_on_c, 0, 69, 0
1, 55599, Note_on_c, 0, 63, 0
1, 55599, Note_on_c, 0, 60, 60
1, 55736, Note_on_c, 0, 60, 0
1, 55736, Note_on_c, 0, 63, 56
1, 55874, Note_on_c, 0, 72, 78
1, 55874, Note_on_c, 0, 63, 0
1, 55874, Note_on_c, 0, 62, 66
1, 56010, Note_on_c, 0, 72, 0
1, 56010, Note_on_c, 0, 70, 71
1, 56146, Note_on_c, 0, 70, 0
1, 56146, Note_on_c, 0, 74, 81
1, 56146, Note_on_c, 0, 62, 0
1, 56149, Note_on_c, 0, 62, 57
1, 56149, Note_on_c, 0, 57, 57
1, 56282, Note_on_c, 0, 74, 0
1, 56282, Note_on_c, 0, 72, 75
1, 56418, Note_on_c, 0, 72, 0
1, 56418, Note_on_c, 0, 75, 82
1, 56418, Note_on_c, 0, 57, 0
1, 56421, Note_on_c, 0, 58, 64
1, 56554, Note_on_c, 0, 75, 0
1, 56554, Note_on_c, 0, 74, 77
1, 56691, Note_on_c, 0, 74, 0
1, 56691, Note_on_c, 0, 77, 85
1, 56691, Note_on_c, 0, 58, 0
1, 56694, Note_on_c, 0, 62, 0
1, 56694, Note_on_c, 0, 51, 64
1, 56694, Note_on_c, 0, 60, 64
1, 56829, Note_on_c, 0, 77, 0
1, 56829, Note_on_c, 0, 75, 81
1, 56967, Note_on_c, 0, 75, 0
1, 56967, Note_on_c, 0, 74, 85
1, 56967, Note_on_c, 0, 60, 0
1, 56970, Note_on_c, 0, 51, 0
1, 56970, Note_on_c, 0, 58, 65
1, 56970, Note_on_c, 0, 53, 65
1, 57378, Note_on_c, 0, 74, 0
1, 57378, Note_on_c, 0, 75, 78
1, 57446, Note_on_c, 0, 75, 0
1, 57446, Note_on_c, 0, 74, 76
1, 57515, Note_on_c, 0, 74, 0
1, 57515, Note_on_c, 0, 72, 73
1, 57515, Note_on_c, 0, 58, 0
1, 57518, Note_on_c, 0, 57, 60
1, 57652, Note_on_c, 0, 72, 0
1, 57652, Note_on_c, 0, 74, 77
1, 57793, Note_on_c, 0, 74, 0
1, 57793, Note_on_c, 0, 75, 78
1, 57793, Note_on_c, 0, 57, 0
1, 57796, Note_on_c, 0, 53, 0
1, 57935, Note_on_c, 0, 75, 0
1, 57935, Note_on_c, 0, 76, 81
1, 58079, Note_on_c, 0, 76, 0
1, 58079, Note_on_c, 0, 77, 83
1, 58079, Note_on_c, 0, 58, 65
1, 58089, Control_c, 0, 64, 127
1, 58215, Note_on_c, 0, 58, 0
1, 58215, Note_on_c, 0, 65, 55
1, 58351, Note_on_c, 0, 65, 0
1, 58351, Note_on_c, 0, 62, 60
1, 58487, Note_on_c, 0, 77, 0
1, 58487, Note_on_c, 0, 75, 74
1, 58487, Note_on_c, 0, 62, 0
1, 58490, Note_on_c, 0, 65, 55
1, 58533, Note_on_c, 0, 75, 0
1, 58533, Note_on_c, 0, 74, 74
1, 58571, Control_c, 0, 64, 0
1, 58578, Note_on_c, 0, 74, 0
1, 58578, Note_on_c, 0, 72, 74
1, 58623, Note_on_c, 0, 72, 0
1, 58623, Note_on_c, 0, 70, 79
1, 58623, Note_on_c, 0, 65, 0
1, 58626, Note_on_c, 0, 55, 64
1, 58691, Note_on_c, 0, 70, 0
1, 58758, Note_on_c, 0, 70, 79
1, 58758, Note_on_c, 0, 55, 0
1, 58758, Note_on_c, 0, 62, 56
1, 58826, Note_on_c, 0, 70, 0
1, 58893, Note_on_c, 0, 70, 79
1, 58893, Note_on_c, 0, 62, 0
1, 58893, Note_on_c, 0, 58, 60
1, 58963, Note_on_c, 0, 70, 0
1, 59032, Note_on_c, 0, 70, 79
1, 59032, Note_on_c, 0, 58, 0
1, 59032, Note_on_c, 0, 62, 55
1, 59102, Note_on_c, 0, 70, 0
1, 59171, Note_on_c, 0, 75, 85
1, 59171, Note_on_c, 0, 62, 0
1, 59171, Note_on_c, 0, 51, 64
1, 59182, Control_c, 0, 64, 127
1, 59308, Note_on_c, 0, 75, 0
1, 59308, Note_on_c, 0, 77, 61
1, 59308, Note_on_c, 0, 51, 0
1, 59311, Note_on_c, 0, 60, 55
1, 59342, Note_on_c, 0, 77, 0
1, 59342, Note_on_c, 0, 75, 61
1, 59376, Note_on_c, 0, 75, 0
1, 59376, Note_on_c, 0, 74, 61
1, 59407, Control_c, 0, 64, 0
1, 59410, Note_on_c, 0, 74, 0
1, 59410, Note_on_c, 0, 75, 61
1, 59444, Note_on_c, 0, 75, 0
1, 59444, Note_on_c, 0, 79, 78
1, 59444, Note_on_c, 0, 60, 0
1, 59447, Note_on_c, 0, 55, 59
1, 59580, Note_on_c, 0, 55, 0
1, 59580, Note_on_c, 0, 60, 55
1, 59716, Note_on_c, 0, 79, 0
1, 59716, Note_on_c, 0, 69, 82
1, 59716, Note_on_c, 0, 60, 0
1, 59719, Note_on_c, 0, 53, 64
1, 59852, Note_on_c, 0, 53, 0
1, 59852, Note_on_c, 0, 63, 55
1, 59988, Note_on_c, 0, 69, 0
1, 59988, Note_on_c, 0, 63, 0
1, 59988, Note_on_c, 0, 60, 59
1, 60127, Note_on_c, 0, 81, 77
1, 60127, Note_on_c, 0, 60, 0
1, 60127, Note_on_c, 0, 63, 54
1, 60262, Note_on_c, 0, 81, 0
1, 60262, Note_on_c, 0, 82, 85
1, 60262, Note_on_c, 0, 63, 0
1, 60265, Note_on_c, 0, 50, 59
1, 60265, Note_on_c, 0, 58, 59
1, 60314, Control_c, 0, 64, 127
1, 60352, Note_on_c, 0, 82, 0
1, 60352, Note_on_c, 0, 77, 75
1, 60443, Note_on_c, 0, 77, 0
1, 60443, Note_on_c, 0, 74, 74
1, 60533, Note_on_c, 0, 74, 0
1, 60533, Note_on_c, 0, 79, 84
1, 60533, Note_on_c, 0, 50, 0
1, 60536, Note_on_c, 0, 51, 56
1, 60545, Control_c, 0, 64, 0
1, 60585, Control_c, 0, 64, 127
1, 60623, Note_on_c, 0, 79, 0
1, 60623, Note_on_c, 0, 75, 75
1, 60713, Note_on_c, 0, 75, 0
1, 60713, Note_on_c, 0, 72, 75
1, 60796, Control_c, 0, 64, 0
1, 60804, Note_on_c, 0, 72, 0
1, 60804, Note_on_c, 0, 77, 84
1, 60804, Note_on_c, 0, 51, 0
1, 60807, Note_on_c, 0, 58, 0
1, 60807, Note_on_c, 0, 53, 59
1, 60807, Note_on_c, 0, 62, 59
1, 60835, Control_c, 0, 64, 127
1, 60894, Note_on_c, 0, 77, 0
1, 60894, Note_on_c, 0, 74, 74
1, 60984, Note_on_c, 0, 74, 0
1, 60984, Note_on_c, 0, 70, 74
1, 61075, Note_on_c, 0, 70, 0
1, 61075, Note_on_c, 0, 75, 84
1, 61075, Note_on_c, 0, 62, 0
1, 61078, Note_on_c, 0, 63, 56
1, 61087, Control_c, 0, 64, 0
1, 61119, Control_c, 0, 64, 127
1, 61165, Note_on_c, 0, 75, 0
1, 61165, Note_on_c, 0, 72, 74
1, 61256, Note_on_c, 0, 72, 0
1, 61256, Note_on_c, 0, 69, 72
1, 61347, Note_on_c, 0, 69, 0
1, 61347, Note_on_c, 0, 70, 83
1, 61347, Note_on_c, 0, 63, 0
1, 61350, Note_on_c, 0, 53, 0
1, 61350, Control_c, 0, 64, 0
1, 61350, Note_on_c, 0, 62, 59
1, 61353, Note_on_c, 0, 58, 59
1, 61442, Control_c, 0, 64, 127
1, 61640, Note_on_c, 0, 70, 0
1, 61640, Note_on_c, 0, 58, 0
1, 61640, Note_on_c, 0, 62, 0
1, 61643, Note_on_c, 0, 46, 63
1, 61726, Control_c, 0, 64, 0
1, 61786, Note_on_c, 0, 65, 55
1, 61929, Note_on_c, 0, 65, 0
1, 61929, Note_on_c, 0, 70, 58
1, 61929, Note_on_c, 0, 46, 0
1, 62000, Note_on_c, 0, 70, 0
1, 62071, Note_on_c, 0, 69, 52
1, 62142, Note_on_c, 0, 69, 0
1, 62213, Note_on_c, 0, 70, 55
1, 62284, Note_on_c, 0, 70, 0
1, 62355, Note_on_c, 0, 72, 51
1, 62426, Note_on_c, 0, 72, 0
1, 62497, Note_on_c, 0, 74, 55
1, 62795, Note_on_c, 0, 74, 0
1, 62795, Note_on_c, 0, 70, 56
1, 62795, Note_on_c, 0, 74, 56
1, 62798, Note_on_c, 0, 58, 46
1, 63086, Note_on_c, 0, 74, 0
1, 63086, Note_on_c, 0, 70, 0
1, 63086, Note_on_c, 0, 70, 59
1, 63089, Note_on_c, 0, 74, 59
1, 63089, Note_on_c, 0, 58, 0
1, 63089, Note_on_c, 0, 55, 48
1, 63376, Note_on_c, 0, 74, 0
1, 63376, Note_on_c, 0, 70, 0
1, 63376, Note_on_c, 0, 72, 55
1, 63379, Note_on_c, 0, 75, 55
1, 63379, Note_on_c, 0, 55, 0
1, 63379, Note_on_c, 0, 51, 46
1, 63670, Note_on_c, 0, 75, 0
1, 63670, Note_on_c, 0, 72, 0
1, 63670, Note_on_c, 0, 72, 54
1, 63673, Note_on_c, 0, 69, 54
1, 63673, Note_on_c, 0, 51, 0
1, 63673, Note_on_c, 0, 53, 47
1, 63964, Note_on_c, 0, 69, 0
1, 63964, Note_on_c, 0, 72, 0
1, 63964, Note_on_c, 0, 53, 0
1, 63967, Note_on_c, 0, 41, 57
1, 64110, Note_on_c, 0, 65, 55
1, 64251, Note_on_c, 0, 65, 0
1, 64251, Note_on_c, 0, 72, 57
1, 64251, Note_on_c, 0, 41, 0
1, 64322, Note_on_c, 0, 72, 0
1, 64392, Note_on_c, 0, 70, 54
1, 64463, Note_on_c, 0, 70, 0
1, 64533, Note_on_c, 0, 72, 56
1, 64604, Note_on_c, 0, 72, 0
1, 64675, Note_on_c, 0, 74, 54
1, 64746, Note_on_c, 0, 74, 0
1, 64817, Note_on_c, 0, 75, 56
1, 65118, Note_on_c, 0, 75, 0
1, 65118, Note_on_c, 0, 67, 56
1, 65118, Note_on_c, 0, 75, 56
1, 65121, Note_on_c, 0, 60, 45
1, 65406, Note_on_c, 0, 75, 0
1, 65406, Note_on_c, 0, 67, 0
1, 65406, Note_on_c, 0, 75, 58
1, 65409, Note_on_c, 0, 72, 58
1, 65409, Note_on_c, 0, 60, 0
1, 65409, Note_on_c, 0, 57, 45
1, 65700, Note_on_c, 0, 72, 0
1, 65700, Note_on_c, 0, 75, 0
1, 65700, Note_on_c, 0, 77, 56
1, 65703, Note_on_c, 0, 69, 56
1, 65703, Note_on_c, 0, 57, 0
1, 65703, Note_on_c, 0, 53, 42
1, 65995, Note_on_c, 0, 69, 0
1, 65995, Note_on_c, 0, 77, 0
1, 65995, Note_on_c, 0, 74, 54
1, 65998, Note_on_c, 0, 70, 54
1, 65998, Note_on_c, 0, 53, 0
1, 65998, Note_on_c, 0, 58, 46
1, 66290, Note_on_c, 0, 70, 0
1, 66290, Note_on_c, 0, 74, 0
1, 66290, Note_on_c, 0, 58, 0
1, 66293, Note_on_c, 0, 46, 58
1, 66437, Note_on_c, 0, 70, 58
1, 66577, Note_on_c, 0, 70, 0
1, 66577, Note_on_c, 0, 74, 64
1, 66577, Note_on_c, 0, 46, 0
1, 66647, Note_on_c, 0, 74, 0
1, 66717, Note_on_c, 0, 72, 59
1, 66787, Note_on_c, 0, 72, 0
1, 66857, Note_on_c, 0, 74, 64
1, 66927, Note_on_c, 0, 74, 0
1, 66997, Note_on_c, 0, 75, 67
1, 67067, Note_on_c, 0, 75, 0
1, 67137, Note_on_c, 0, 77, 71
1, 67360, Note_on_c, 0, 77, 0
1, 67434, Note_on_c, 0, 77, 76
1, 67434, Note_on_c, 0, 62, 53
1, 67434, Note_on_c, 0, 58, 53
1, 67658, Note_on_c, 0, 77, 0
1, 67658, Note_on_c, 0, 58, 0
1, 67658, Note_on_c, 0, 62, 0
1, 67733, Note_on_c, 0, 77, 79
1, 67733, Note_on_c, 0, 58, 56
1, 67733, Note_on_c, 0, 62, 56
1, 67959, Note_on_c, 0, 77, 0
1, 67959, Note_on_c, 0, 62, 0
1, 67959, Note_on_c, 0, 58, 0
1, 68034, Note_on_c, 0, 77, 82
1, 68034, Note_on_c, 0, 62, 60
1, 68034, Note_on_c, 0, 58, 60
1, 68263, Note_on_c, 0, 77, 0
1, 68263, Note_on_c, 0, 58, 0
1, 68263, Note_on_c, 0, 62, 0
1, 68339, Note_on_c, 0, 78, 91
1, 68339, Note_on_c, 0, 57, 68
1, 68339, Note_on_c, 0, 60, 68
1, 68492, Note_on_c, 0, 72, 59
1, 68630, Note_on_c, 0, 72, 0
1, 68630, Note_on_c, 0, 74, 59
1, 68767, Note_on_c, 0, 74, 0
1, 68767, Note_on_c, 0, 75, 63
1, 68905, Note_on_c, 0, 75, 0
1, 68905, Note_on_c, 0, 75, 63
1, 68905, Note_on_c, 0, 60, 0
1, 68908, Note_on_c, 0, 57, 0
1, 68908, Note_on_c, 0, 57, 54
1, 68908, Note_on_c, 0, 50, 54
1, 69044, Note_on_c, 0, 75, 0
1, 69044, Note_on_c, 0, 74, 62
1, 69184, Note_on_c, 0, 74, 0
1, 69184, Note_on_c, 0, 74, 61
1, 69326, Note_on_c, 0, 74, 0
1, 69326, Note_on_c, 0, 72, 57
1, 69467, Note_on_c, 0, 72, 0
1, 69467, Note_on_c, 0, 78, 0
1, 69467, Note_on_c, 0, 70, 70
1, 69470, Note_on_c, 0, 79, 70
1, 69470, Note_on_c, 0, 50, 0
1, 69470, Note_on_c, 0, 57, 0
1, 69473, Note_on_c, 0, 51, 53
1, 69617, Note_on_c, 0, 55, 52
1, 69757, Note_on_c, 0, 55, 0
1, 69757, Note_on_c, 0, 57, 54
1, 69897, Note_on_c, 0, 57, 0
1, 69897, Note_on_c, 0, 58, 57
1, 70043, Note_on_c, 0, 79, 0
1, 70043, Note_on_c, 0, 70, 0
1, 70043, Note_on_c, 0, 73, 64
1, 70046, Note_on_c, 0, 58, 0
1, 70046, Note_on_c, 0, 58, 57
1, 70186, Note_on_c, 0, 58, 0
1, 70186, Note_on_c, 0, 57, 55
1, 70331, Note_on_c, 0, 57, 0
1, 70331, Note_on_c, 0, 57, 55
1, 70476, Note_on_c, 0, 57, 0
1, 70476, Note_on_c, 0, 55, 54
1, 70622, Note_on_c, 0, 73, 0
1, 70622, Note_on_c, 0, 74, 69
1, 70622, Note_on_c, 0, 55, 0
1, 70625, Note_on_c, 0, 51, 0
1, 70625, Note_on_c, 0, 50, 47
1, 70625, Note_on_c, 0, 54, 47
1, 70916, Note_on_c, 0, 74, 0
1, 70916, Note_on_c, 0, 54, 0
1, 70916, Note_on_c, 0, 50, 0
1, 71136, Note_on_c, 0, 62, 63
1, 71209, Note_on_c, 0, 62, 0
1, 71209, Note_on_c, 0, 74, 80
1, 71503, Note_on_c, 0, 74, 0
1, 71503, Note_on_c, 0, 74, 76
1, 71796, Note_on_c, 0, 74, 0
1, 71796, Note_on_c, 0, 82, 85
1, 71796, Note_on_c, 0, 55, 58
1, 71845, Control_c, 0, 64, 127
1, 71943, Note_on_c, 0, 55, 0
1, 71943, Note_on_c, 0, 58, 50
1, 72090, Note_on_c, 0, 58, 0
1, 72090, Note_on_c, 0, 62, 54
1, 72228, Note_on_c, 0, 82, 0
1, 72228, Note_on_c, 0, 81, 75
1, 72228, Note_on_c, 0, 62, 0
1, 72231, Note_on_c, 0, 58, 50
1, 72274, Note_on_c, 0, 81, 0
1, 72274, Note_on_c, 0, 79, 72
1, 72321, Note_on_c, 0, 79, 0
1, 72321, Note_on_c, 0, 78, 72
1, 72367, Note_on_c, 0, 78, 0
1, 72367, Note_on_c, 0, 79, 79
1, 72367, Note_on_c, 0, 58, 0
1, 72370, Note_on_c, 0, 55, 54
1, 72373, Control_c, 0, 64, 0
1, 72401, Control_c, 0, 64, 127
1, 72505, Note_on_c, 0, 55, 0
1, 72505, Note_on_c, 0, 58, 47
1, 72643, Note_on_c, 0, 79, 0
1, 72643, Note_on_c, 0, 74, 73
1, 72643, Note_on_c, 0, 58, 0
1, 72646, Note_on_c, 0, 62, 50
1, 72667, Control_c, 0, 64, 0
1, 72702, Control_c, 0, 64, 127
1, 72789, Note_on_c, 0, 62, 0
1, 72789, Note_on_c, 0, 58, 47
1, 72935, Note_on_c, 0, 74, 0
1, 72935, Note_on_c, 0, 75, 80
1, 72935, Note_on_c, 0, 58, 0
1, 72938, Control_c, 0, 64, 0
1, 72938, Note_on_c, 0, 55, 58
1, 72986, Control_c, 0, 64, 127
1, 73081, Note_on_c, 0, 55, 0
1, 73081, Note_on_c, 0, 60, 51
1, 73227, Note_on_c, 0, 75, 0
1, 73227, Note_on_c, 0, 60, 0
1, 73227, Note_on_c, 0, 63, 54
1, 73364, Note_on_c, 0, 63, 0
1, 73364, Note_on_c, 0, 60, 51
1, 73433, Note_on_c, 0, 67, 71
1, 73498, Control_c, 0, 64, 0
1, 73502, Note_on_c, 0, 67, 0
1, 73502, Note_on_c, 0, 79, 86
1, 73502, Note_on_c, 0, 60, 0
1, 73505, Note_on_c, 0, 55, 53
1, 73551, Control_c, 0, 64, 127
1, 73640, Note_on_c, 0, 55, 0
1, 73640, Note_on_c, 0, 60, 49
1, 73778, Note_on_c, 0, 79, 0
1, 73778, Note_on_c, 0, 79, 83
1, 73778, Note_on_c, 0, 60, 0
1, 73781, Note_on_c, 0, 63, 51
1, 73920, Note_on_c, 0, 63, 0
1, 73920, Note_on_c, 0, 60, 48
1, 74063, Note_on_c, 0, 79, 0
1, 74063, Note_on_c, 0, 87, 101
1, 74063, Note_on_c, 0, 60, 0
1, 74066, Control_c, 0, 64, 0
1, 74066, Note_on_c, 0, 53, 58
1, 74107, Control_c, 0, 64, 127
1, 74206, Note_on_c, 0, 53, 0
1, 74206, Note_on_c, 0, 60, 51
1, 74348, Note_on_c, 0, 60, 0
1, 74348, Note_on_c, 0, 63, 54
1, 74486, Note_on_c, 0, 87, 0
1, 74486, Note_on_c, 0, 86, 75
1, 74486, Note_on_c, 0, 63, 0
1, 74489, Note_on_c, 0, 60, 51
1, 74532, Note_on_c, 0, 86, 0
1, 74532, Note_on_c, 0, 84, 71
1, 74578, Note_on_c, 0, 84, 0
1, 74578, Note_on_c, 0, 83, 71
1, 74624, Note_on_c, 0, 83, 0
1, 74624, Note_on_c, 0, 84, 79
1, 74624, Note_on_c, 0, 60, 0
1, 74627, Note_on_c, 0, 55, 56
1, 74642, Control_c, 0, 64, 0
1, 74665, Control_c, 0, 64, 127
1, 74762, Note_on_c, 0, 55, 0
1, 74762, Note_on_c, 0, 60, 50
1, 74900, Note_on_c, 0, 84, 0
1, 74900, Note_on_c, 0, 75, 78
1, 74900, Note_on_c, 0, 60, 0
1, 74903, Note_on_c, 0, 63, 52
1, 75048, Note_on_c, 0, 63, 0
1, 75048, Note_on_c, 0, 60, 49
1, 75196, Note_on_c, 0, 75, 0
1, 75196, Note_on_c, 0, 74, 74
1, 75196, Note_on_c, 0, 60, 0
1, 75199, Note_on_c, 0, 55, 53
1, 75199, Control_c, 0, 64, 0
1, 75279, Control_c, 0, 64, 127
1, 75344, Note_on_c, 0, 55, 0
1, 75344, Note_on_c, 0, 58, 50
1, 75493, Note_on_c, 0, 74, 0
1, 75493, Note_on_c, 0, 58, 0
1, 75493, Note_on_c, 0, 62, 50
1, 75584, Control_c, 0, 64, 0
1, 75641, Note_on_c, 0, 73, 69
1, 75641, Note_on_c, 0, 62, 0
1, 75780, Note_on_c, 0, 73, 0
1, 75780, Note_on_c, 0, 74, 73
1, 75922, Note_on_c, 0, 74, 0
1, 75922, Note_on_c, 0, 82, 72
1, 75995, Note_on_c, 0, 82, 0
1, 76068, Note_on_c, 0, 81, 71
1, 76141, Note_on_c, 0, 81, 0
1, 76214, Note_on_c, 0, 79, 69
1, 76287, Note_on_c, 0, 79, 0
1, 76360, Note_on_c, 0, 78, 74
1, 76360, Note_on_c, 0, 60, 50
1, 76360, Note_on_c, 0, 57, 50
1, 76363, Note_on_c, 0, 63, 50
1, 76371, Control_c, 0, 64, 127
1, 76579, Note_on_c, 0, 78, 0
1, 76579, Note_on_c, 0, 79, 64
1, 76611, Control_c, 0, 64, 0
1, 76615, Note_on_c, 0, 79, 0
1, 76615, Note_on_c, 0, 81, 64
1, 76651, Note_on_c, 0, 81, 0
1, 76651, Note_on_c, 0, 79, 78
1, 76651, Note_on_c, 0, 63, 0
1, 76654, Note_on_c, 0, 57, 0
1, 76654, Note_on_c, 0, 60, 0
1, 76654, Note_on_c, 0, 58, 46
1, 76657, Note_on_c, 0, 62, 46
1, 76723, Note_on_c, 0, 79, 0
1, 76794, Note_on_c, 0, 79, 74
1, 76794, Note_on_c, 0, 62, 0
1, 76794, Note_on_c, 0, 58, 0
1, 76869, Note_on_c, 0, 79, 0
1, 76944, Note_on_c, 0, 85, 83
1, 77090, Note_on_c, 0, 85, 0
1, 77090, Note_on_c, 0, 86, 78
1, 77236, Note_on_c, 0, 86, 0
1, 77236, Note_on_c, 0, 82, 74
1, 77308, Note_on_c, 0, 82, 0
1, 77379, Note_on_c, 0, 79, 74
1, 77454, Note_on_c, 0, 79, 0
1, 77528, Note_on_c, 0, 78, 77
1, 77528, Note_on_c, 0, 63, 49
1, 77528, Note_on_c, 0, 57, 49
1, 77531, Note_on_c, 0, 60, 49
1, 77571, Control_c, 0, 64, 127
1, 77745, Note_on_c, 0, 78, 0
1, 77745, Note_on_c, 0, 79, 66
1, 77781, Note_on_c, 0, 79, 0
1, 77781, Note_on_c, 0, 81, 66
1, 77817, Note_on_c, 0, 81, 0
1, 77817, Note_on_c, 0, 79, 77
1, 77817, Note_on_c, 0, 60, 0
1, 77820, Note_on_c, 0, 57, 0
1, 77820, Note_on_c, 0, 63, 0
1, 77820, Note_on_c, 0, 58, 45
1, 77823, Note_on_c, 0, 62, 45
1, 77823, Control_c, 0, 64, 0
1, 77889, Note_on_c, 0, 79, 0
1, 77962, Note_on_c, 0, 74, 67
1, 77962, Note_on_c, 0, 62, 0
1, 77962, Note_on_c, 0, 58, 0
1, 78107, Note_on_c, 0, 74, 0
1, 78107, Note_on_c, 0, 79, 71
1, 78180, Note_on_c, 0, 79, 0
1, 78254, Note_on_c, 0, 79, 71
1, 78328, Note_on_c, 0, 79, 0
1, 78402, Note_on_c, 0, 79, 71
1, 78477, Note_on_c, 0, 79, 0
1, 78552, Note_on_c, 0, 79, 71
1, 78628, Note_on_c, 0, 79, 0
1, 78704, Note_on_c, 0, 79, 78
1, 78704, Note_on_c, 0, 51, 53
1, 78704, Note_on_c, 0, 58, 53
1, 78933, Note_on_c, 0, 79, 0
1, 78933, Note_on_c, 0, 81, 63
1, 78969, Note_on_c, 0, 81, 0
1, 78969, Note_on_c, 0, 82, 63
1, 79005, Note_on_c, 0, 82, 0
1, 79005, Note_on_c, 0, 81, 75
1, 79078, Note_on_c, 0, 81, 0
1, 79150, Note_on_c, 0, 79, 72
1, 79223, Note_on_c, 0, 79, 0
1, 79295, Note_on_c, 0, 77, 72
1, 79295, Note_on_c, 0, 58, 0
1, 79295, Note_on_c, 0, 55, 47
1, 79368, Note_on_c, 0, 77, 0
1, 79441, Note_on_c, 0, 75, 70
1, 79515, Note_on_c, 0, 75, 0
1, 79589, Note_on_c, 0, 74, 68
1, 79663, Note_on_c, 0, 74, 0
1, 79737, Note_on_c, 0, 73, 67
1, 79812, Note_on_c, 0, 73, 0
1, 79887, Note_on_c, 0, 73, 71
1, 79887, Note_on_c, 0, 55, 0
1, 79887, Note_on_c, 0, 51, 0
1, 79890, Note_on_c, 0, 54, 40
1, 79890, Note_on_c, 0, 57, 40
1, 80038, Note_on_c, 0, 73, 0
1, 80038, Note_on_c, 0, 74, 68
1, 80188, Note_on_c, 0, 74, 0
1, 80188, Note_on_c, 0, 74, 59
1, 80188, Note_on_c, 0, 57, 0
1, 80191, Note_on_c, 0, 54, 0
1, 80191, Note_on_c, 0, 50, 28
1, 80191, Note_on_c, 0, 54, 28
1, 80194, Note_on_c, 0, 57, 34
1, 80409, Note_on_c, 0, 74, 0
1, 80483, Note_on_c, 0, 74, 58
1, 80483, Note_on_c, 0, 57, 0
1, 80483, Note_on_c, 0, 54, 0
1, 80486, Note_on_c, 0, 50, 0
1, 80486, Note_on_c, 0, 50, 29
1, 80486, Note_on_c, 0, 54, 29
1, 80489, Note_on_c, 0, 57, 35
1, 80707, Note_on_c, 0, 74, 0
1, 80782, Note_on_c, 0, 74, 54
1, 80782, Note_on_c, 0, 57, 0
1, 80782, Note_on_c, 0, 54, 0
1, 80785, Note_on_c, 0, 50, 0
1, 80785, Note_on_c, 0, 50, 28
1, 80785, Note_on_c, 0, 54, 28
1, 80788, Note_on_c, 0, 57, 34
1, 81011, Note_on_c, 0, 74, 0
1, 81087, Note_on_c, 0, 73, 40
1, 81087, Note_on_c, 0, 57, 0
1, 81087, Note_on_c, 0, 54, 0
1, 81090, Note_on_c, 0, 50, 0
1, 81138, Note_on_c, 0, 73, 0
1, 81138, Note_on_c, 0, 74, 44
1, 81189, Note_on_c, 0, 74, 0
1, 81189, Note_on_c, 0, 75, 49
1, 81240, Note_on_c, 0, 75, 0
1, 81240, Note_on_c, 0, 74, 62
1, 81353, Control_c, 0, 64, 127
1, 81386, Note_on_c, 0, 53, 27
1, 81386, Note_on_c, 0, 57, 37
1, 81386, Note_on_c, 0, 50, 27
1, 81679, Note_on_c, 0, 50, 0
1, 81679, Note_on_c, 0, 57, 0
1, 81679, Note_on_c, 0, 53, 0
1, 81682, Note_on_c, 0, 53, 27
1, 81682, Note_on_c, 0, 57, 37
1, 81682, Note_on_c, 0, 50, 27
1, 81972, Note_on_c, 0, 50, 0
1, 81972, Note_on_c, 0, 57, 0
1, 81972, Note_on_c, 0, 53, 0
1, 81975, Note_on_c, 0, 53, 26
1, 81975, Note_on_c, 0, 57, 36
1, 81975, Note_on_c, 0, 50, 26
1, 82296, Note_on_c, 0, 74, 0
1, 82296, Note_on_c, 0, 77, 72
1, 82296, Note_on_c, 0, 50, 0
1, 82299, Note_on_c, 0, 57, 0
1, 82299, Note_on_c, 0, 53, 0
1, 82299, Control_c, 0, 64, 0
1, 82508, Control_c, 0, 64, 127
1, 82589, Note_on_c, 0, 50, 38
1, 82589, Note_on_c, 0, 58, 51
1, 82589, Note_on_c, 0, 53, 38
1, 82881, Note_on_c, 0, 53, 0
1, 82881, Note_on_c, 0, 58, 0
1, 82881, Note_on_c, 0, 50, 0
1, 82884, Note_on_c, 0, 50, 41
1, 82884, Note_on_c, 0, 53, 41
1, 82884, Note_on_c, 0, 58, 56
1, 83174, Note_on_c, 0, 58, 0
1, 83174, Note_on_c, 0, 53, 0
1, 83174, Note_on_c, 0, 50, 0
1, 83177, Note_on_c, 0, 50, 45
1, 83177, Note_on_c, 0, 53, 45
1, 83177, Note_on_c, 0, 58, 60
1, 83483, Note_on_c, 0, 77, 0
1, 83483, Note_on_c, 0, 62, 74
1, 83483, Note_on_c, 0, 56, 74
1, 83486, Note_on_c, 0, 58, 0
1, 83486, Note_on_c, 0, 53, 0
1, 83486, Note_on_c, 0, 50, 0
1, 83489, Control_c, 0, 64, 0
1, 83645, Control_c, 0, 64, 127
1, 83775, Note_on_c, 0, 53, 60
1, 83775, Note_on_c, 0, 46, 45
1, 84066, Note_on_c, 0, 46, 0
1, 84066, Note_on_c, 0, 53, 0
1, 84066, Note_on_c, 0, 46, 48
1, 84069, Note_on_c, 0, 53, 63
1, 84358, Note_on_c, 0, 53, 0
1, 84358, Note_on_c, 0, 46, 0
1, 84358, Note_on_c, 0, 53, 60
1, 84361, Note_on_c, 0, 46, 45
1, 84650, Note_on_c, 0, 56, 0
1, 84650, Note_on_c, 0, 62, 0
1, 84650, Note_on_c, 0, 55, 74
1, 84653, Note_on_c, 0, 63, 74
1, 84653, Note_on_c, 0, 46, 0
1, 84653, Note_on_c, 0, 53, 0
1, 84656, Control_c, 0, 64, 0
1, 84656, Note_on_c, 0, 39, 48
1, 84656, Note_on_c, 0, 51, 63
1, 84942, Note_on_c, 0, 55, 0
1, 84942, Note_on_c, 0, 51, 0
1, 84942, Note_on_c, 0, 39, 0
1, 84945, Note_on_c, 0, 51, 46
1, 85214, Note_on_c, 0, 51, 0
1, 85214, Note_on_c, 0, 55, 41
1, 85418, Note_on_c, 0, 63, 0
1, 85418, Note_on_c, 0, 58, 45
1, 85486, Note_on_c, 0, 58, 0
1, 85486, Note_on_c, 0, 62, 49
1, 85486, Note_on_c, 0, 55, 0
1, 85489, Note_on_c, 0, 56, 38
1, 85693, Note_on_c, 0, 62, 0
1, 85693, Note_on_c, 0, 58, 46
1, 85762, Note_on_c, 0, 58, 0
1, 85762, Note_on_c, 0, 63, 52
1, 85762, Note_on_c, 0, 56, 0
1, 85765, Note_on_c, 0, 55, 44
1, 85815, Control_c, 0, 64, 127
1, 85969, Note_on_c, 0, 63, 0
1, 85969, Note_on_c, 0, 58, 49
1, 86038, Note_on_c, 0, 58, 0
1, 86038, Note_on_c, 0, 65, 51
1, 86038, Note_on_c, 0, 55, 0
1, 86041, Note_on_c, 0, 50, 35
1, 86041, Control_c, 0, 64, 0
1, 86074, Control_c, 0, 64, 127
1, 86242, Note_on_c, 0, 65, 0
1, 86242, Note_on_c, 0, 58, 51
1, 86311, Note_on_c, 0, 58, 0
1, 86311, Note_on_c, 0, 67, 53
1, 86311, Note_on_c, 0, 50, 0
1, 86314, Note_on_c, 0, 51, 41
1, 86319, Control_c, 0, 64, 0
1, 86360, Control_c, 0, 64, 127
1, 86519, Note_on_c, 0, 67, 0
1, 86519, Note_on_c, 0, 58, 54
1, 86589, Note_on_c, 0, 58, 0
1, 86589, Note_on_c, 0, 68, 56
1, 86589, Note_on_c, 0, 51, 0
1, 86592, Note_on_c, 0, 53, 46
1, 86601, Control_c, 0, 64, 0
1, 86644, Control_c, 0, 64, 127
1, 86805, Note_on_c, 0, 68, 0
1, 86805, Note_on_c, 0, 58, 54
1, 86813, Control_c, 0, 64, 0
1, 86877, Note_on_c, 0, 58, 0
1, 86877, Note_on_c, 0, 65, 57
1, 86877, Note_on_c, 0, 53, 0
1, 87161, Note_on_c, 0, 46, 41
1, 87433, Note_on_c, 0, 46, 0
1, 87433, Note_on_c, 0, 50, 45
1, 87470, Control_c, 0, 64, 127
1, 87638, Note_on_c, 0, 65, 0
1, 87638, Note_on_c, 0, 58, 50
1, 87706, Note_on_c, 0, 58, 0
1, 87706, Note_on_c, 0, 64, 52
1, 87706, Note_on_c, 0, 50, 0
1, 87709, Note_on_c, 0, 49, 41
1, 87726, Control_c, 0, 64, 0
1, 87799, Control_c, 0, 64, 127
1, 87912, Note_on_c, 0, 64, 0
1, 87912, Note_on_c, 0, 58, 53
1, 87981, Note_on_c, 0, 58, 0
1, 87981, Note_on_c, 0, 65, 55
1, 87981, Note_on_c, 0, 49, 0
1, 87984, Note_on_c, 0, 50, 47
1, 87984, Control_c, 0, 64, 0
1, 88054, Control_c, 0, 64, 127
1, 88188, Note_on_c, 0, 65, 0
1, 88188, Note_on_c, 0, 58, 51
1, 88257, Note_on_c, 0, 58, 0
1, 88257, Note_on_c, 0, 67, 52
1, 88257, Note_on_c, 0, 50, 0
1, 88260, Note_on_c, 0, 52, 38
1, 88273, Control_c, 0, 64, 0
1, 88333, Control_c, 0, 64, 127
1, 88461, Note_on_c, 0, 67, 0
1, 88461, Note_on_c, 0, 58, 54
1, 88529, Note_on_c, 0, 58, 0
1, 88529, Note_on_c, 0, 68, 56
1, 88529, Note_on_c, 0, 52, 0
1, 88532, Note_on_c, 0, 53, 42
1, 88557, Control_c, 0, 64, 0
1, 88638, Control_c, 0, 64, 127
1, 88733, Note_on_c, 0, 68, 0
1, 88733, Note_on_c, 0, 58, 56
1, 88801, Note_on_c, 0, 58, 0
1, 88801, Note_on_c, 0, 70, 57
1, 88801, Note_on_c, 0, 53, 0
1, 88804, Note_on_c, 0, 50, 48
1, 88804, Control_c, 0, 64, 0
1, 88888, Control_c, 0, 64, 127
1, 89022, Note_on_c, 0, 70, 0
1, 89022, Note_on_c, 0, 58, 55
1, 89095, Note_on_c, 0, 58, 0
1, 89095, Note_on_c, 0, 67, 58
1, 89095, Note_on_c, 0, 50, 0
1, 89098, Control_c, 0, 64, 0
1, 89098, Note_on_c, 0, 51, 50
1, 89377, Note_on_c, 0, 67, 0
1, 89377, Note_on_c, 0, 51, 0
1, 89377, Note_on_c, 0, 39, 45
1, 89512, Note_on_c, 0, 70, 63
1, 89647, Note_on_c, 0, 70, 0
1, 89647, Note_on_c, 0, 75, 67
1, 89647, Note_on_c, 0, 39, 0
1, 89849, Note_on_c, 0, 75, 0
1, 89849, Note_on_c, 0, 77, 69
1, 89917, Note_on_c, 0, 77, 0
1, 89917, Note_on_c, 0, 79, 72
1, 89917, Note_on_c, 0, 55, 49
1, 89920, Note_on_c, 0, 63, 49
1, 89954, Control_c, 0, 64, 127
1, 90128, Note_on_c, 0, 79, 0
1, 90128, Note_on_c, 0, 70, 63
1, 90128, Control_c, 0, 64, 0
1, 90196, Note_on_c, 0, 70, 0
1, 90196, Note_on_c, 0, 72, 66
1, 90196, Note_on_c, 0, 63, 0
1, 90199, Note_on_c, 0, 55, 0
1, 90400, Note_on_c, 0, 72, 0
1, 90400, Note_on_c, 0, 74, 68
1, 90468, Note_on_c, 0, 74, 0
1, 90468, Note_on_c, 0, 75, 71
1, 90468, Note_on_c, 0, 56, 47
1, 90471, Note_on_c, 0, 63, 47
1, 90513, Control_c, 0, 64, 127
1, 90678, Note_on_c, 0, 75, 0
1, 90678, Note_on_c, 0, 67, 63
1, 90746, Note_on_c, 0, 67, 0
1, 90746, Note_on_c, 0, 68, 65
1, 90746, Note_on_c, 0, 63, 0
1, 90749, Note_on_c, 0, 56, 0
1, 90749, Control_c, 0, 64, 0
1, 90950, Note_on_c, 0, 68, 0
1, 90950, Note_on_c, 0, 70, 67
1, 91018, Note_on_c, 0, 70, 0
1, 91018, Note_on_c, 0, 72, 70
1, 91018, Note_on_c, 0, 60, 46
1, 91021, Note_on_c, 0, 63, 46
1, 91054, Control_c, 0, 64, 127
1, 91224, Note_on_c, 0, 72, 0
1, 91224, Note_on_c, 0, 68, 63
1, 91241, Control_c, 0, 64, 0
1, 91296, Note_on_c, 0, 68, 0
1, 91296, Note_on_c, 0, 67, 61
1, 91296, Note_on_c, 0, 63, 0
1, 91299, Note_on_c, 0, 60, 0
1, 91299, Note_on_c, 0, 58, 46
1, 91299, Note_on_c, 0, 63, 46
1, 91432, Note_on_c, 0, 63, 0
1, 91432, Note_on_c, 0, 58, 0
1, 91568, Note_on_c, 0, 67, 0
1, 91568, Note_on_c, 0, 46, 58
1, 91703, Note_on_c, 0, 70, 63
1, 91703, Note_on_c, 0, 46, 0
1, 91839, Note_on_c, 0, 70, 0
1, 91839, Note_on_c, 0, 75, 65
1, 92043, Note_on_c, 0, 75, 0
1, 92043, Note_on_c, 0, 77, 67
1, 92111, Note_on_c, 0, 77, 0
1, 92111, Note_on_c, 0, 79, 70
1, 92111, Note_on_c, 0, 55, 47
1, 92114, Note_on_c, 0, 63, 47
1, 92127, Control_c, 0, 64, 127
1, 92320, Note_on_c, 0, 79, 0
1, 92320, Note_on_c, 0, 71, 63
1, 92349, Control_c, 0, 64, 0
1, 92387, Note_on_c, 0, 71, 0
1, 92387, Note_on_c, 0, 72, 66
1, 92387, Note_on_c, 0, 63, 0
1, 92390, Note_on_c, 0, 55, 0
1, 92590, Note_on_c, 0, 72, 0
1, 92590, Note_on_c, 0, 74, 67
1, 92657, Note_on_c, 0, 74, 0
1, 92657, Note_on_c, 0, 75, 71
1, 92657, Note_on_c, 0, 56, 47
1, 92660, Note_on_c, 0, 63, 47
1, 92686, Control_c, 0, 64, 127
1, 92867, Note_on_c, 0, 75, 0
1, 92867, Note_on_c, 0, 67, 61
1, 92899, Control_c, 0, 64, 0
1, 92935, Note_on_c, 0, 67, 0
1, 92935, Note_on_c, 0, 68, 63
1, 92935, Note_on_c, 0, 63, 0
1, 92938, Note_on_c, 0, 56, 0
1, 93139, Note_on_c, 0, 68, 0
1, 93139, Note_on_c, 0, 70, 64
1, 93207, Note_on_c, 0, 70, 0
1, 93207, Note_on_c, 0, 72, 68
1, 93207, Note_on_c, 0, 63, 47
1, 93210, Note_on_c, 0, 60, 47
1, 93228, Control_c, 0, 64, 127
1, 93415, Note_on_c, 0, 72, 0
1, 93415, Note_on_c, 0, 68, 61
1, 93445, Control_c, 0, 64, 0
1, 93487, Note_on_c, 0, 68, 0
1, 93487, Note_on_c, 0, 67, 57
1, 93487, Note_on_c, 0, 60, 0
1, 93490, Note_on_c, 0, 63, 0
1, 93490, Note_on_c, 0, 63, 52
1, 93490, Note_on_c, 0, 58, 52
1, 93629, Note_on_c, 0, 58, 0
1, 93629, Note_on_c, 0, 63, 0
1, 93772, Note_on_c, 0, 67, 0
1, 93772, Note_on_c, 0, 46, 62
1, 93915, Note_on_c, 0, 67, 49
1, 93915, Note_on_c, 0, 46, 0
1, 94052, Note_on_c, 0, 67, 0
1, 94052, Note_on_c, 0, 70, 53
1, 94192, Note_on_c, 0, 70, 0
1, 94192, Note_on_c, 0, 69, 49
1, 94331, Note_on_c, 0, 69, 0
1, 94331, Note_on_c, 0, 60, 47
1, 94331, Note_on_c, 0, 63, 47
1, 94474, Note_on_c, 0, 69, 54
1, 94611, Note_on_c, 0, 69, 0
1, 94611, Note_on_c, 0, 72, 58
1, 94611, Note_on_c, 0, 63, 0
1, 94614, Note_on_c, 0, 60, 0
1, 94750, Note_on_c, 0, 72, 0
1, 94750, Note_on_c, 0, 70, 55
1, 94890, Note_on_c, 0, 70, 0
1, 94890, Note_on_c, 0, 63, 49
1, 94890, Note_on_c, 0, 55, 49
1, 95032, Note_on_c, 0, 71, 61
1, 95169, Note_on_c, 0, 71, 0
1, 95169, Note_on_c, 0, 74, 66
1, 95169, Note_on_c, 0, 55, 0
1, 95172, Note_on_c, 0, 63, 0
1, 95172, Note_on_c, 0, 56, 52
1, 95172, Note_on_c, 0, 63, 52
1, 95306, Note_on_c, 0, 74, 0
1, 95306, Note_on_c, 0, 72, 60
1, 95443, Note_on_c, 0, 72, 0
1, 95443, Note_on_c, 0, 75, 71
1, 95443, Note_on_c, 0, 63, 0
1, 95446, Note_on_c, 0, 56, 0
1, 95446, Note_on_c, 0, 56, 55
1, 95446, Note_on_c, 0, 53, 55
1, 95580, Note_on_c, 0, 75, 0
1, 95580, Note_on_c, 0, 74, 62
1, 95717, Note_on_c, 0, 74, 0
1, 95717, Note_on_c, 0, 77, 74
1, 95717, Note_on_c, 0, 53, 0
1, 95720, Note_on_c, 0, 56, 0
1, 95720, Note_on_c, 0, 58, 56
1, 95720, Note_on_c, 0, 55, 56
1, 95854, Note_on_c, 0, 77, 0
1, 95854, Note_on_c, 0, 75, 63
1, 95991, Note_on_c, 0, 75, 0
1, 95991, Note_on_c, 0, 77, 79
1, 95991, Note_on_c, 0, 55, 0
1, 95994, Note_on_c, 0, 58, 0
1, 95994, Note_on_c, 0, 55, 57
1, 95994, Note_on_c, 0, 58, 57
1, 96128, Note_on_c, 0, 77, 0
1, 96128, Note_on_c, 0, 76, 69
1, 96265, Note_on_c, 0, 76, 0
1, 96265, Note_on_c, 0, 79, 86
1, 96265, Note_on_c, 0, 58, 0
1, 96268, Note_on_c, 0, 55, 0
1, 96268, Note_on_c, 0, 53, 57
1, 96268, Note_on_c, 0, 56, 57
1, 96271, Note_on_c, 0, 58, 57
1, 96402, Note_on_c, 0, 79, 0
1, 96402, Note_on_c, 0, 77, 74
1, 96539, Note_on_c, 0, 77, 0
1, 96539, Note_on_c, 0, 80, 91
1, 96539, Note_on_c, 0, 58, 0
1, 96542, Note_on_c, 0, 56, 0
1, 96542, Note_on_c, 0, 53, 0
1, 96542, Note_on_c, 0, 51, 59
1, 96545, Note_on_c, 0, 55, 59
1, 96545, Note_on_c, 0, 58, 59
1, 96676, Note_on_c, 0, 80, 0
1, 96676, Note_on_c, 0, 79, 83
1, 96813, Note_on_c, 0, 79, 0
1, 96813, Note_on_c, 0, 82, 99
1, 96813, Note_on_c, 0, 58, 0
1, 96816, Note_on_c, 0, 55, 0
1, 96816, Note_on_c, 0, 51, 0
1, 96816, Note_on_c, 0, 50, 65
1, 96819, Note_on_c, 0, 53, 65
1, 96819, Note_on_c, 0, 58, 65
1, 96952, Note_on_c, 0, 82, 0
1, 96952, Note_on_c, 0, 80, 83
1, 97091, Note_on_c, 0, 80, 0
1, 97091, Note_on_c, 0, 58, 0
1, 97091, Note_on_c, 0, 53, 0
1, 97094, Note_on_c, 0, 50, 0
1, 97776, Note_on_c, 0, 77, 49
1, 97913, Note_on_c, 0, 77, 0
1, 97913, Note_on_c, 0, 79, 52
1, 97913, Note_on_c, 0, 63, 48
1, 97916, Note_on_c, 0, 70, 48
1, 98119, Note_on_c, 0, 79, 0
1, 98119, Note_on_c, 0, 75, 49
1, 98187, Note_on_c, 0, 75, 0
1, 98187, Note_on_c, 0, 72, 53
1, 98187, Note_on_c, 0, 70, 0
1, 98190, Note_on_c, 0, 63, 0
1, 98190, Note_on_c, 0, 68, 47
1, 98190, Note_on_c, 0, 56, 47
1, 98393, Note_on_c, 0, 72, 0
1, 98393, Note_on_c, 0, 77, 49
1, 98461, Note_on_c, 0, 77, 0
1, 98461, Note_on_c, 0, 75, 53
1, 98461, Note_on_c, 0, 56, 0
1, 98464, Note_on_c, 0, 68, 0
1, 98464, Note_on_c, 0, 58, 48
1, 98464, Note_on_c, 0, 67, 48
1, 98738, Note_on_c, 0, 75, 0
1, 98738, Note_on_c, 0, 74, 49
1, 98738, Note_on_c, 0, 67, 0
1, 98741, Note_on_c, 0, 65, 45
1, 99030, Note_on_c, 0, 74, 0
1, 99030, Note_on_c, 0, 82, 97
1, 99030, Note_on_c, 0, 65, 0
1, 99033, Note_on_c, 0, 58, 0
1, 99033, Note_on_c, 0, 50, 68
1, 99033, Note_on_c, 0, 53, 68
1, 99036, Note_on_c, 0, 58, 68
1, 99170, Note_on_c, 0, 82, 0
1, 99170, Note_on_c, 0, 80, 87
1, 99309, Note_on_c, 0, 80, 0
1, 99309, Note_on_c, 0, 58, 0
1, 99309, Note_on_c, 0, 53, 0
1, 99312, Note_on_c, 0, 50, 0
1, 99994, Note_on_c, 0, 77, 48
1, 100131, Note_on_c, 0, 77, 0
1, 100131, Note_on_c, 0, 79, 51
1, 100131, Note_on_c, 0, 63, 46
1, 100134, Note_on_c, 0, 70, 46
1, 100337, Note_on_c, 0, 79, 0
1, 100337, Note_on_c, 0, 75, 48
1, 100405, Note_on_c, 0, 75, 0
1, 100405, Note_on_c, 0, 72, 51
1, 100405, Note_on_c, 0, 70, 0
1, 100408, Note_on_c, 0, 63, 0
1, 100408, Note_on_c, 0, 68, 43
1, 100408, Note_on_c, 0, 56, 43
1, 100611, Note_on_c, 0, 72, 0
1, 100611, Note_on_c, 0, 77, 48
1, 100679, Note_on_c, 0, 77, 0
1, 100679, Note_on_c, 0, 75, 51
1, 100679, Note_on_c, 0, 56, 0
1, 100682, Note_on_c, 0, 68, 0
1, 100682, Note_on_c, 0, 58, 46
1, 100682, Note_on_c, 0, 67, 46
1, 100956, Note_on_c, 0, 75, 0
1, 100956, Note_on_c, 0, 74, 48
1, 100956, Note_on_c, 0, 67, 0
1, 100959, Note_on_c, 0, 65, 43
1, 101245, Note_on_c, 0, 74, 0
1, 101245, Note_on_c, 0, 67, 69
1, 101245, Note_on_c, 0, 65, 0
1, 101248, Note_on_c, 0, 58, 0
1, 101318, Note_on_c, 0, 67, 0
1, 101318, Note_on_c, 0, 79, 74
1, 101674, Note_on_c, 0, 79, 0
1, 101674, Note_on_c, 0, 75, 56
1, 101813, Note_on_c, 0, 75, 0
1, 101813, Note_on_c, 0, 72, 51
1, 101813, Note_on_c, 0, 67, 44
1, 101816, Note_on_c, 0, 63, 44
1, 101953, Note_on_c, 0, 72, 0
1, 102092, Note_on_c, 0, 72, 47
1, 102235, Note_on_c, 0, 72, 0
1, 102378, Note_on_c, 0, 77, 55
1, 102378, Note_on_c, 0, 63, 0
1, 102378, Note_on_c, 0, 67, 0
1, 102381, Note_on_c, 0, 71, 49
1, 102381, Note_on_c, 0, 62, 49
1, 102654, Note_on_c, 0, 77, 0
1, 102654, Note_on_c, 0, 80, 56
1, 102935, Note_on_c, 0, 71, 0
1, 102938, Note_on_c, 0, 80, 0
1, 102938, Note_on_c, 0, 71, 46
1, 102938, Note_on_c, 0, 62, 0
1, 102941, Note_on_c, 0, 65, 46
1, 102941, Note_on_c, 0, 68, 46
1, 103079, Note_on_c, 0, 71, 0
1, 103221, Note_on_c, 0, 68, 0
1, 103221, Note_on_c, 0, 65, 0
1, 103363, Note_on_c, 0, 71, 46
1, 103500, Note_on_c, 0, 71, 0
1, 103500, Note_on_c, 0, 74, 52
1, 103500, Note_on_c, 0, 67, 40
1, 103503, Note_on_c, 0, 63, 40
1, 103638, Note_on_c, 0, 74, 0
1, 103638, Note_on_c, 0, 72, 49
1, 103775, Note_on_c, 0, 72, 0
1, 103775, Note_on_c, 0, 75, 55
1, 103775, Note_on_c, 0, 63, 0
1, 103778, Note_on_c, 0, 59, 42
1, 103912, Note_on_c, 0, 75, 0
1, 103912, Note_on_c, 0, 74, 50
1, 104050, Note_on_c, 0, 74, 0
1, 104050, Note_on_c, 0, 77, 58
1, 104050, Note_on_c, 0, 59, 0
1, 104053, Note_on_c, 0, 60, 45
1, 104185, Note_on_c, 0, 77, 0
1, 104185, Note_on_c, 0, 75, 53
1, 104321, Note_on_c, 0, 75, 0
1, 104321, Note_on_c, 0, 60, 0
1, 104321, Note_on_c, 0, 62, 46
1, 104460, Note_on_c, 0, 71, 46
1, 104596, Note_on_c, 0, 71, 0
1, 104596, Note_on_c, 0, 74, 50
1, 104596, Note_on_c, 0, 62, 0
1, 104599, Note_on_c, 0, 67, 0
1, 104599, Note_on_c, 0, 67, 42
1, 104599, Note_on_c, 0, 63, 42
1, 104732, Note_on_c, 0, 74, 0
1, 104732, Note_on_c, 0, 72, 48
1, 104868, Note_on_c, 0, 72, 0
1, 104868, Note_on_c, 0, 75, 55
1, 104868, Note_on_c, 0, 63, 0
1, 104871, Note_on_c, 0, 59, 46
1, 105003, Note_on_c, 0, 75, 0
1, 105003, Note_on_c, 0, 74, 51
1, 105139, Note_on_c, 0, 74, 0
1, 105139, Note_on_c, 0, 77, 58
1, 105139, Note_on_c, 0, 59, 0
1, 105142, Note_on_c, 0, 60, 49
1, 105275, Note_on_c, 0, 77, 0
1, 105275, Note_on_c, 0, 75, 51
1, 105411, Note_on_c, 0, 75, 0
1, 105411, Note_on_c, 0, 77, 62
1, 105411, Note_on_c, 0, 60, 0
1, 105414, Note_on_c, 0, 67, 0
1, 105548, Note_on_c, 0, 77, 0
1, 105548, Note_on_c, 0, 76, 56
1, 105691, Note_on_c, 0, 76, 0
1, 105691, Note_on_c, 0, 77, 75
1, 106100, Note_on_c, 0, 77, 0
1, 106100, Note_on_c, 0, 74, 44
1, 106236, Note_on_c, 0, 74, 0
1, 106236, Note_on_c, 0, 70, 48
1, 106236, Note_on_c, 0, 65, 41
1, 106239, Note_on_c, 0, 62, 41
1, 106372, Note_on_c, 0, 70, 0
1, 106508, Note_on_c, 0, 70, 48
1, 106647, Note_on_c, 0, 70, 0
1, 106786, Note_on_c, 0, 75, 52
1, 106786, Note_on_c, 0, 62, 0
1, 106786, Note_on_c, 0, 65, 0
1, 106789, Note_on_c, 0, 69, 49
1, 106789, Note_on_c, 0, 60, 49
1, 107060, Note_on_c, 0, 75, 0
1, 107060, Note_on_c, 0, 78, 49
1, 107330, Note_on_c, 0, 69, 0
1, 107333, Note_on_c, 0, 78, 0
1, 107333, Note_on_c, 0, 69, 52
1, 107333, Note_on_c, 0, 60, 0
1, 107336, Note_on_c, 0, 66, 40
1, 107336, Note_on_c, 0, 63, 40
1, 107472, Note_on_c, 0, 69, 0
1, 107611, Note_on_c, 0, 63, 0
1, 107611, Note_on_c, 0, 66, 0
1, 107750, Note_on_c, 0, 69, 44
1, 107887, Note_on_c, 0, 69, 0
1, 107887, Note_on_c, 0, 72, 49
1, 107887, Note_on_c, 0, 61, 42
1, 107890, Note_on_c, 0, 65, 42
1, 108024, Note_on_c, 0, 72, 0
1, 108024, Note_on_c, 0, 70, 47
1, 108161, Note_on_c, 0, 70, 0
1, 108161, Note_on_c, 0, 73, 51
1, 108161, Note_on_c, 0, 61, 0
1, 108164, Note_on_c, 0, 57, 44
1, 108298, Note_on_c, 0, 73, 0
1, 108298, Note_on_c, 0, 72, 47
1, 108435, Note_on_c, 0, 72, 0
1, 108435, Note_on_c, 0, 75, 54
1, 108435, Note_on_c, 0, 57, 0
1, 108438, Note_on_c, 0, 58, 47
1, 108576, Note_on_c, 0, 75, 0
1, 108576, Note_on_c, 0, 73, 51
1, 108717, Note_on_c, 0, 73, 0
1, 108717, Note_on_c, 0, 58, 0
1, 108717, Note_on_c, 0, 60, 42
1, 108859, Note_on_c, 0, 69, 45
1, 108995, Note_on_c, 0, 69, 0
1, 108995, Note_on_c, 0, 72, 50
1, 108995, Note_on_c, 0, 60, 0
1, 108998, Note_on_c, 0, 65, 0
1, 108998, Note_on_c, 0, 61, 43
1, 108998, Note_on_c, 0, 65, 43
1, 109131, Note_on_c, 0, 72, 0
1, 109131, Note_on_c, 0, 70, 45
1, 109267, Note_on_c, 0, 70, 0
1, 109267, Note_on_c, 0, 73, 52
1, 109267, Note_on_c, 0, 61, 0
1, 109270, Note_on_c, 0, 57, 46
1, 109403, Note_on_c, 0, 73, 0
1, 109403, Note_on_c, 0, 72, 48
1, 109539, Note_on_c, 0, 72, 0
1, 109539, Note_on_c, 0, 75, 55
1, 109539, Note_on_c, 0, 57, 0
1, 109542, Note_on_c, 0, 58, 48
1, 109679, Note_on_c, 0, 75, 0
1, 109679, Note_on_c, 0, 73, 50
1, 109819, Note_on_c, 0, 73, 0
1, 109819, Note_on_c, 0, 58, 0
1, 109819, Note_on_c, 0, 65, 0
1, 109822, Note_on_c, 0, 58, 44
1, 109822, Note_on_c, 0, 65, 44
1, 109959, Note_on_c, 0, 73, 51
1, 110027, Note_on_c, 0, 73, 0
1, 110095, Note_on_c, 0, 73, 55
1, 110095, Note_on_c, 0, 65, 0
1, 110095, Note_on_c, 0, 58, 0
1, 110232, Note_on_c, 0, 73, 0
1, 110232, Note_on_c, 0, 71, 52
1, 110370, Note_on_c, 0, 71, 0
1, 110370, Note_on_c, 0, 65, 49
1, 110370, Note_on_c, 0, 56, 49
1, 110505, Note_on_c, 0, 71, 48
1, 110640, Note_on_c, 0, 71, 0
1, 110640, Note_on_c, 0, 71, 53
1, 110640, Note_on_c, 0, 56, 0
1, 110643, Note_on_c, 0, 65, 0
1, 110777, Note_on_c, 0, 71, 0
1, 110777, Note_on_c, 0, 70, 49
1, 110914, Note_on_c, 0, 70, 0
1, 110914, Note_on_c, 0, 54, 49
1, 110914, Note_on_c, 0, 61, 49
1, 111049, Note_on_c, 0, 70, 52
1, 111184, Note_on_c, 0, 70, 0
1, 111184, Note_on_c, 0, 70, 71
1, 111184, Note_on_c, 0, 61, 0
1, 111187, Note_on_c, 0, 54, 0
1, 111323, Note_on_c, 0, 70, 0
1, 111323, Note_on_c, 0, 80, 73
1, 111462, Note_on_c, 0, 80, 0
1, 111462, Note_on_c, 0, 53, 49
1, 111462, Note_on_c, 0, 62, 49
1, 111597, Note_on_c, 0, 80, 74
1, 111735, Note_on_c, 0, 80, 0
1, 111735, Note_on_c, 0, 80, 78
1, 111735, Note_on_c, 0, 62, 0
1, 111738, Note_on_c, 0, 53, 0
1, 111872, Note_on_c, 0, 80, 0
1, 111872, Note_on_c, 0, 78, 75
1, 112009, Note_on_c, 0, 78, 0
1, 112009, Note_on_c, 0, 63, 58
1, 112009, Note_on_c, 0, 51, 58
1, 112146, Note_on_c, 0, 78, 76
1, 112282, Note_on_c, 0, 78, 0
1, 112282, Note_on_c, 0, 78, 81
1, 112282, Note_on_c, 0, 51, 0
1, 112285, Note_on_c, 0, 63, 0
1, 112419, Note_on_c, 0, 78, 0
1, 112419, Note_on_c, 0, 77, 78
1, 112557, Note_on_c, 0, 77, 0
1, 112557, Note_on_c, 0, 53, 66
1, 112557, Note_on_c, 0, 61, 66
1, 112692, Note_on_c, 0, 77, 84
1, 112828, Note_on_c, 0, 77, 0
1, 112828, Note_on_c, 0, 77, 89
1, 112828, Note_on_c, 0, 61, 0
1, 112831, Note_on_c, 0, 53, 0
1, 112965, Note_on_c, 0, 77, 0
1, 112965, Note_on_c, 0, 76, 84
1, 113102, Note_on_c, 0, 76, 0
1, 113102, Note_on_c, 0, 61, 71
1, 113102, Note_on_c, 0, 54, 71
1, 113239, Note_on_c, 0, 76, 91
1, 113376, Note_on_c, 0, 76, 0
1, 113376, Note_on_c, 0, 82, 93
1, 113376, Note_on_c, 0, 54, 0
1, 113379, Note_on_c, 0, 61, 0
1, 113379, Note_on_c, 0, 64, 71
1, 113379, Note_on_c, 0, 54, 71
1, 113394, Control_c, 0, 64, 127
1, 113645, Note_on_c, 0, 82, 0
1, 113645, Note_on_c, 0, 84, 76
1, 113679, Note_on_c, 0, 84, 0
1, 113679, Note_on_c, 0, 82, 78
1, 113712, Note_on_c, 0, 82, 0
1, 113712, Note_on_c, 0, 81, 80
1, 113746, Note_on_c, 0, 81, 0
1, 113746, Note_on_c, 0, 82, 79
1, 113779, Note_on_c, 0, 82, 0
1, 113779, Note_on_c, 0, 84, 86
1, 113859, Control_c, 0, 64, 0
1, 113914, Note_on_c, 0, 84, 0
1, 113914, Note_on_c, 0, 85, 92
1, 113914, Note_on_c, 0, 64, 0
1, 113917, Note_on_c, 0, 58, 76
1, 114185, Note_on_c, 0, 85, 0
1, 114185, Note_on_c, 0, 76, 89
1, 114458, Note_on_c, 0, 76, 0
1, 114458, Note_on_c, 0, 77, 91
1, 114458, Note_on_c, 0, 58, 0
1, 114461, Note_on_c, 0, 54, 0
1, 114461, Note_on_c, 0, 57, 74
1, 114461, Note_on_c, 0, 53, 74
1, 114593, Note_on_c, 0, 77, 0
1, 114593, Note_on_c, 0, 76, 79
1, 114729, Note_on_c, 0, 76, 0
1, 114729, Note_on_c, 0, 77, 85
1, 114864, Note_on_c, 0, 77, 0
1, 114864, Note_on_c, 0, 72, 74
1, 114999, Note_on_c, 0, 72, 0
1, 114999, Note_on_c, 0, 75, 78
1, 114999, Note_on_c, 0, 57, 0
1, 115002, Note_on_c, 0, 58, 65
1, 115135, Note_on_c, 0, 75, 0
1, 115135, Note_on_c, 0, 73, 70
1, 115271, Note_on_c, 0, 73, 0
1, 115271, Note_on_c, 0, 72, 68
1, 115408, Note_on_c, 0, 72, 0
1, 115408, Note_on_c, 0, 70, 64
1, 115547, Note_on_c, 0, 70, 0
1, 115547, Note_on_c, 0, 78, 76
1, 115547, Note_on_c, 0, 58, 0
1, 115550, Note_on_c, 0, 53, 0
1, 115550, Note_on_c, 0, 57, 59
1, 115550, Note_on_c, 0, 53, 59
1, 115682, Note_on_c, 0, 78, 0
1, 115682, Note_on_c, 0, 77, 71
1, 115817, Note_on_c, 0, 77, 0
1, 115817, Note_on_c, 0, 76, 71
1, 115953, Note_on_c, 0, 76, 0
1, 115953, Note_on_c, 0, 77, 61
1, 116088, Note_on_c, 0, 77, 0
1, 116088, Note_on_c, 0, 75, 66
1, 116088, Note_on_c, 0, 57, 0
1, 116091, Note_on_c, 0, 58, 47
1, 116227, Note_on_c, 0, 75, 0
1, 116227, Note_on_c, 0, 73, 60
1, 116366, Note_on_c, 0, 73, 0
1, 116366, Note_on_c, 0, 72, 56
1, 116505, Note_on_c, 0, 72, 0
1, 116505, Note_on_c, 0, 70, 53
1, 116644, Note_on_c, 0, 70, 0
1, 116644, Note_on_c, 0, 69, 50
1, 116644, Note_on_c, 0, 72, 50
1, 116647, Note_on_c, 0, 58, 0
1, 116647, Note_on_c, 0, 53, 0
1, 116647, Note_on_c, 0, 65, 47
1, 116652, Control_c, 0, 64, 127
1, 116783, Note_on_c, 0, 65, 0
1, 116783, Note_on_c, 0, 65, 47
1, 116923, Note_on_c, 0, 72, 0
1, 116923, Note_on_c, 0, 69, 0
1, 116923, Note_on_c, 0, 70, 62
1, 116926, Note_on_c, 0, 73, 62
1, 116926, Note_on_c, 0, 65, 0
1, 116963, Control_c, 0, 64, 0
1, 117027, Control_c, 0, 64, 127
1, 117059, Note_on_c, 0, 65, 45
1, 117196, Note_on_c, 0, 73, 0
1, 117196, Note_on_c, 0, 70, 0
1, 117196, Note_on_c, 0, 72, 57
1, 117199, Note_on_c, 0, 69, 57
1, 117199, Note_on_c, 0, 65, 0
1, 117199, Note_on_c, 0, 65, 47
1, 117236, Control_c, 0, 64, 0
1, 117300, Control_c, 0, 64, 127
1, 117332, Note_on_c, 0, 65, 0
1, 117332, Note_on_c, 0, 65, 47
1, 117469, Note_on_c, 0, 69, 0
1, 117469, Note_on_c, 0, 72, 0
1, 117469, Note_on_c, 0, 70, 62
1, 117472, Note_on_c, 0, 76, 62
1, 117472, Note_on_c, 0, 65, 0
1, 117551, Control_c, 0, 64, 0
1, 117551, Control_c, 0, 64, 127
1, 117610, Note_on_c, 0, 65, 44
1, 117750, Note_on_c, 0, 76, 0
1, 117750, Note_on_c, 0, 70, 0
1, 117750, Note_on_c, 0, 77, 65
1, 117753, Note_on_c, 0, 69, 65
1, 117753, Note_on_c, 0, 65, 0
1, 117753, Control_c, 0, 64, 0
1, 117756, Note_on_c, 0, 65, 47
1, 117832, Control_c, 0, 64, 127
1, 117889, Note_on_c, 0, 65, 0
1, 117889, Note_on_c, 0, 65, 47
1, 118027, Note_on_c, 0, 69, 0
1, 118027, Note_on_c, 0, 77, 0
1, 118027, Note_on_c, 0, 73, 62
1, 118030, Note_on_c, 0, 70, 62
1, 118030, Note_on_c, 0, 65, 0
1, 118091, Control_c, 0, 64, 0
1, 118147, Control_c, 0, 64, 127
1, 118163, Note_on_c, 0, 65, 44
1, 118298, Note_on_c, 0, 70, 0
1, 118298, Note_on_c, 0, 73, 0
1, 118298, Note_on_c, 0, 72, 57
1, 118301, Note_on_c, 0, 69, 57
1, 118301, Note_on_c, 0, 65, 0
1, 118301, Note_on_c, 0, 65, 47
1, 118362, Control_c, 0, 64, 0
1, 118418, Control_c, 0, 64, 127
1, 118434, Note_on_c, 0, 65, 0
1, 118434, Note_on_c, 0, 65, 47
1, 118544, Control_c, 0, 64, 0
1, 118578, Note_on_c, 0, 69, 0
1, 118578, Note_on_c, 0, 72, 0
1, 118578, Note_on_c, 0, 70, 62
1, 118581, Note_on_c, 0, 76, 62
1, 118581, Note_on_c, 0, 65, 0
1, 118618, Control_c, 0, 64, 127
1, 118715, Note_on_c, 0, 65, 47
1, 118853, Note_on_c, 0, 76, 0
1, 118853, Note_on_c, 0, 70, 0
1, 118853, Note_on_c, 0, 77, 68
1, 118856, Note_on_c, 0, 69, 68
1, 118856, Note_on_c, 0, 65, 0
1, 118856, Control_c, 0, 64, 0
1, 118859, Note_on_c, 0, 53, 53
1, 118859, Note_on_c, 0, 65, 53
1, 118933, Control_c, 0, 64, 127
1, 118989, Note_on_c, 0, 69, 0
1, 118989, Note_on_c, 0, 77, 0
1, 118989, Note_on_c, 0, 77, 68
1, 119126, Note_on_c, 0, 77, 0
1, 119126, Note_on_c, 0, 65, 0
1, 119126, Note_on_c, 0, 53, 0
1, 119129, Note_on_c, 0, 53, 50
1, 119129, Note_on_c, 0, 57, 50
1, 119166, Control_c, 0, 64, 0
1, 119262, Note_on_c, 0, 77, 60
1, 119382, Control_c, 0, 64, 127
1, 119398, Note_on_c, 0, 77, 0
1, 119398, Note_on_c, 0, 77, 64
1, 119398, Note_on_c, 0, 57, 0
1, 119401, Note_on_c, 0, 53, 0
1, 119534, Note_on_c, 0, 77, 0
1, 119534, Note_on_c, 0, 77, 60
1, 119614, Control_c, 0, 64, 0
1, 119670, Note_on_c, 0, 77, 0
1, 119670, Note_on_c, 0, 53, 50
1, 119670, Note_on_c, 0, 57, 50
1, 119718, Control_c, 0, 64, 127
1, 119806, Note_on_c, 0, 77, 60
1, 119942, Note_on_c, 0, 77, 0
1, 119942, Note_on_c, 0, 77, 63
1, 119942, Note_on_c, 0, 57, 0
1, 119945, Note_on_c, 0, 53, 0
1, 119945, Note_on_c, 0, 53, 53
1, 119945, Note_on_c, 0, 55, 53
1, 119948, Note_on_c, 0, 58, 53
1, 119948, Control_c, 0, 64, 0
1, 119983, Control_c, 0, 64, 127
1, 120079, Note_on_c, 0, 77, 0
1, 120079, Note_on_c, 0, 77, 60
1, 120215, Note_on_c, 0, 77, 0
1, 120215, Note_on_c, 0, 58, 0
1, 120215, Note_on_c, 0, 55, 0
1, 120218, Note_on_c, 0, 53, 0
1, 120218, Note_on_c, 0, 53, 50
1, 120218, Note_on_c, 0, 58, 50
1, 120221, Note_on_c, 0, 55, 50
1, 120319, Control_c, 0, 64, 0
1, 120351, Note_on_c, 0, 77, 64
1, 120399, Control_c, 0, 64, 127
1, 120487, Note_on_c, 0, 77, 0
1, 120487, Note_on_c, 0, 77, 67
1, 120487, Note_on_c, 0, 55, 0
1, 120490, Note_on_c, 0, 58, 0
1, 120490, Note_on_c, 0, 53, 0
1, 120623, Note_on_c, 0, 77, 0
1, 120623, Note_on_c, 0, 77, 64
1, 120663, Control_c, 0, 64, 0
1, 120759, Note_on_c, 0, 77, 0
1, 120759, Note_on_c, 0, 53, 54
1, 120759, Note_on_c, 0, 59, 54
1, 120762, Note_on_c, 0, 56, 54
1, 120791, Control_c, 0, 64, 127
1, 120895, Note_on_c, 0, 77, 69
1, 121032, Note_on_c, 0, 77, 0
1, 121032, Note_on_c, 0, 77, 72
1, 121032, Note_on_c, 0, 56, 0
1, 121035, Note_on_c, 0, 59, 0
1, 121035, Note_on_c, 0, 53, 0
1, 121035, Control_c, 0, 64, 0
1, 121038, Note_on_c, 0, 53, 55
1, 121038, Note_on_c, 0, 60, 55
1, 121038, Note_on_c, 0, 57, 55
1, 121096, Control_c, 0, 64, 127
1, 121168, Note_on_c, 0, 77, 0
1, 121168, Note_on_c, 0, 77, 74
1, 121264, Control_c, 0, 64, 0
1, 121304, Note_on_c, 0, 77, 0
1, 121304, Note_on_c, 0, 57, 0
1, 121304, Note_on_c, 0, 60, 0
1, 121307, Note_on_c, 0, 57, 61
1, 121307, Note_on_c, 0, 61, 61
1, 121328, Control_c, 0, 64, 127
1, 121442, Note_on_c, 0, 77, 79
1, 121548, Control_c, 0, 64, 0
1, 121580, Note_on_c, 0, 77, 0
1, 121580, Note_on_c, 0, 77, 82
1, 121580, Note_on_c, 0, 61, 0
1, 121583, Note_on_c, 0, 57, 0
1, 121583, Note_on_c, 0, 53, 0
1, 121583, Note_on_c, 0, 53, 66
1, 121586, Note_on_c, 0, 62, 66
1, 121586, Note_on_c, 0, 58, 66
1, 121621, Control_c, 0, 64, 127
1, 121719, Note_on_c, 0, 77, 0
1, 121719, Note_on_c, 0, 77, 84
1, 121801, Control_c, 0, 64, 0
1, 121859, Note_on_c, 0, 77, 0
1, 121859, Note_on_c, 0, 58, 0
1, 121859, Note_on_c, 0, 62, 0
1, 121862, Note_on_c, 0, 59, 71
1, 121862, Note_on_c, 0, 62, 71
1, 121862, Control_c, 0, 64, 127
1, 121999, Note_on_c, 0, 77, 86
1, 122016, Control_c, 0, 64, 0
1, 122141, Note_on_c, 0, 77, 0
1, 122141, Note_on_c, 0, 77, 86
1, 122141, Note_on_c, 0, 62, 0
1, 122144, Note_on_c, 0, 59, 0
1, 122144, Note_on_c, 0, 53, 0
1, 122144, Note_on_c, 0, 63, 77
1, 122147, Note_on_c, 0, 60, 77
1, 122147, Note_on_c, 0, 53, 77
1, 122209, Note_on_c, 0, 77, 0
1, 122277, Note_on_c, 0, 65, 67
1, 122414, Note_on_c, 0, 65, 0
1, 122414, Note_on_c, 0, 64, 66
1, 122551, Note_on_c, 0, 64, 0
1, 122551, Note_on_c, 0, 65, 65
1, 122687, Note_on_c, 0, 65, 0
1, 122687, Note_on_c, 0, 66, 64
1, 122824, Note_on_c, 0, 66, 0
1, 122824, Note_on_c, 0, 67, 63
1, 122960, Note_on_c, 0, 67, 0
1, 122960, Note_on_c, 0, 68, 62
1, 123097, Note_on_c, 0, 68, 0
1, 123097, Note_on_c, 0, 69, 61
1, 123233, Note_on_c, 0, 69, 0
1, 123233, Note_on_c, 0, 70, 60
1, 123233, Note_on_c, 0, 53, 0
1, 123236, Note_on_c, 0, 60, 0
1, 123236, Note_on_c, 0, 63, 0
1, 123370, Note_on_c, 0, 70, 0
1, 123370, Note_on_c, 0, 71, 59
1, 123507, Note_on_c, 0, 71, 0
1, 123507, Note_on_c, 0, 72, 58
1, 123643, Note_on_c, 0, 72, 0
1, 123643, Note_on_c, 0, 73, 57
1, 123780, Note_on_c, 0, 73, 0
1, 123780, Note_on_c, 0, 74, 56
1, 123918, Note_on_c, 0, 74, 0
1, 123918, Note_on_c, 0, 75, 55
1, 124057, Note_on_c, 0, 75, 0
1, 124057, Note_on_c, 0, 76, 54
1, 124198, Note_on_c, 0, 76, 0
1, 124198, Note_on_c, 0, 77, 52
1, 124358, Note_on_c, 0, 77, 0
1, 124358, Control_c, 0, 91, 127
1, 124358, Control_c, 0, 91, 127
1, 124358, Note_on_c, 0, 77, 66
1, 124631, Note_on_c, 0, 58, 42
1, 124767, Note_on_c, 0, 74, 53
1, 124767, Note_on_c, 0, 77, 0
1, 124903, Note_on_c, 0, 74, 0
1, 124903, Note_on_c, 0, 70, 55
1, 124903, Note_on_c, 0, 58, 0
1, 124906, Note_on_c, 0, 62, 48
1, 125039, Note_on_c, 0, 70, 0
1, 125175, Note_on_c, 0, 70, 55
1, 125175, Note_on_c, 0, 62, 0
1, 125175, Note_on_c, 0, 67, 46
1, 125317, Note_on_c, 0, 70, 0
1, 125458, Note_on_c, 0, 75, 60
1, 125458, Note_on_c, 0, 67, 0
1, 125458, Note_on_c, 0, 60, 52
1, 125730, Note_on_c, 0, 75, 0
1, 125730, Note_on_c, 0, 79, 55
1, 125730, Note_on_c, 0, 60, 0
1, 125733, Note_on_c, 0, 63, 46
1, 126002, Note_on_c, 0, 79, 0
1, 126002, Note_on_c, 0, 69, 57
1, 126002, Note_on_c, 0, 63, 0
1, 126005, Note_on_c, 0, 65, 48
1, 126277, Note_on_c, 0, 69, 0
1, 126277, Note_on_c, 0, 65, 0
1, 126277, Note_on_c, 0, 63, 47
1, 126552, Note_on_c, 0, 72, 55
1, 126552, Note_on_c, 0, 63, 0
1, 126552, Note_on_c, 0, 62, 53
1, 126688, Note_on_c, 0, 72, 0
1, 126688, Note_on_c, 0, 70, 53
1, 126824, Note_on_c, 0, 70, 0
1, 126824, Note_on_c, 0, 74, 57
1, 126824, Note_on_c, 0, 62, 0
1, 126827, Note_on_c, 0, 57, 47
1, 126960, Note_on_c, 0, 74, 0
1, 126960, Note_on_c, 0, 72, 54
1, 127097, Note_on_c, 0, 72, 0
1, 127097, Note_on_c, 0, 75, 58
1, 127097, Note_on_c, 0, 57, 0
1, 127100, Note_on_c, 0, 58, 51
1, 127233, Note_on_c, 0, 75, 0
1, 127233, Note_on_c, 0, 74, 56
1, 127369, Note_on_c, 0, 74, 0
1, 127369, Note_on_c, 0, 77, 60
1, 127369, Note_on_c, 0, 58, 0
1, 127372, Note_on_c, 0, 51, 51
1, 127372, Note_on_c, 0, 60, 51
1, 127507, Note_on_c, 0, 77, 0
1, 127507, Note_on_c, 0, 75, 57
1, 127645, Note_on_c, 0, 75, 0
1, 127645, Note_on_c, 0, 74, 60
1, 127645, Note_on_c, 0, 60, 0
1, 127648, Note_on_c, 0, 51, 0
1, 127648, Note_on_c, 0, 58, 52
1, 127648, Note_on_c, 0, 53, 52
1, 128056, Note_on_c, 0, 74, 0
1, 128056, Note_on_c, 0, 75, 57
1, 128125, Note_on_c, 0, 75, 0
1, 128125, Note_on_c, 0, 74, 55
1, 128193, Note_on_c, 0, 74, 0
1, 128193, Note_on_c, 0, 72, 52
1, 128193, Note_on_c, 0, 58, 0
1, 128196, Note_on_c, 0, 57, 47
1, 128330, Note_on_c, 0, 72, 0
1, 128330, Note_on_c, 0, 74, 54
1, 128471, Note_on_c, 0, 74, 0
1, 128471, Note_on_c, 0, 75, 55
1, 128471, Note_on_c, 0, 57, 0
1, 128474, Note_on_c, 0, 53, 0
1, 128613, Note_on_c, 0, 75, 0
1, 128613, Note_on_c, 0, 76, 57
1, 128757, Note_on_c, 0, 76, 0
1, 128757, Note_on_c, 0, 77, 59
1, 129029, Note_on_c, 0, 58, 45
1, 129165, Note_on_c, 0, 77, 0
1, 129165, Note_on_c, 0, 75, 53
1, 129211, Note_on_c, 0, 75, 0
1, 129211, Note_on_c, 0, 74, 53
1, 129256, Note_on_c, 0, 74, 0
1, 129256, Note_on_c, 0, 72, 53
1, 129302, Note_on_c, 0, 72, 0
1, 129302, Note_on_c, 0, 70, 56
1, 129302, Note_on_c, 0, 58, 0
1, 129305, Note_on_c, 0, 62, 47
1, 129437, Note_on_c, 0, 70, 0
1, 129571, Note_on_c, 0, 70, 56
1, 129571, Note_on_c, 0, 62, 0
1, 129571, Note_on_c, 0, 67, 47
1, 129711, Note_on_c, 0, 70, 0
1, 129850, Note_on_c, 0, 75, 60
1, 129850, Note_on_c, 0, 67, 0
1, 129850, Note_on_c, 0, 60, 51
1, 130122, Note_on_c, 0, 75, 0
1, 130122, Note_on_c, 0, 79, 55
1, 130122, Note_on_c, 0, 60, 0
1, 130125, Note_on_c, 0, 63, 46
1, 130394, Note_on_c, 0, 79, 0
1, 130394, Note_on_c, 0, 69, 58
1, 130394, Note_on_c, 0, 63, 0
1, 130397, Note_on_c, 0, 65, 48
1, 130667, Note_on_c, 0, 69, 0
1, 130667, Note_on_c, 0, 65, 0
1, 130667, Note_on_c, 0, 63, 48
1, 130803, Note_on_c, 0, 69, 54
1, 130939, Note_on_c, 0, 69, 0
1, 130939, Note_on_c, 0, 70, 58
1, 130939, Note_on_c, 0, 63, 0
1, 130942, Note_on_c, 0, 62, 51
1, 131075, Note_on_c, 0, 70, 0
1, 131075, Note_on_c, 0, 74, 55
1, 131211, Note_on_c, 0, 74, 0
1, 131211, Note_on_c, 0, 67, 58
1, 131211, Note_on_c, 0, 62, 0
1, 131214, Note_on_c, 0, 51, 47
1, 131214, Note_on_c, 0, 63, 47
1, 131348, Note_on_c, 0, 67, 0
1, 131348, Note_on_c, 0, 72, 55
1, 131485, Note_on_c, 0, 72, 0
1, 131485, Note_on_c, 0, 70, 58
1, 131485, Note_on_c, 0, 63, 0
1, 131488, Note_on_c, 0, 51, 0
1, 131488, Note_on_c, 0, 62, 50
1, 131488, Note_on_c, 0, 53, 50
1, 131766, Note_on_c, 0, 70, 0
1, 131766, Note_on_c, 0, 69, 55
1, 131766, Note_on_c, 0, 62, 0
1, 131769, Note_on_c, 0, 60, 48
1, 132047, Note_on_c, 0, 69, 0
1, 132047, Note_on_c, 0, 70, 58
1, 132047, Note_on_c, 0, 60, 0
1, 132050, Note_on_c, 0, 53, 0
1, 132050, Note_on_c, 0, 58, 51
1, 132187, Note_on_c, 0, 70, 0
1, 132187, Note_on_c, 0, 65, 56
1, 132256, Note_on_c, 0, 65, 0
1, 132324, Note_on_c, 0, 67, 60
1, 132324, Note_on_c, 0, 58, 0
1, 132392, Note_on_c, 0, 67, 0
1, 132460, Note_on_c, 0, 69, 63
1, 132528, Note_on_c, 0, 69, 0
1, 132596, Note_on_c, 0, 70, 67
1, 132664, Note_on_c, 0, 70, 0
1, 132731, Note_on_c, 0, 72, 70
1, 132799, Note_on_c, 0, 72, 0
1, 132866, Note_on_c, 0, 74, 74
1, 132933, Note_on_c, 0, 74, 0
1, 133000, Note_on_c, 0, 75, 77
1, 133072, Note_on_c, 0, 75, 0
1, 133144, Control_c, 0, 91, 127
1, 133144, Control_c, 0, 91, 127
1, 133144, Note_on_c, 0, 58, 64
1, 133147, Note_on_c, 0, 77, 85
1, 133152, Control_c, 0, 64, 127
1, 133280, Note_on_c, 0, 58, 0
1, 133280, Note_on_c, 0, 65, 56
1, 133416, Note_on_c, 0, 65, 0
1, 133416, Note_on_c, 0, 62, 59
1, 133552, Note_on_c, 0, 74, 74
1, 133552, Note_on_c, 0, 62, 0
1, 133552, Note_on_c, 0, 65, 56
1, 133552, Note_on_c, 0, 77, 0
1, 133632, Control_c, 0, 64, 0
1, 133689, Note_on_c, 0, 74, 0
1, 133689, Note_on_c, 0, 70, 78
1, 133689, Note_on_c, 0, 65, 0
1, 133692, Note_on_c, 0, 55, 63
1, 133825, Note_on_c, 0, 70, 0
1, 133825, Note_on_c, 0, 55, 0
1, 133825, Note_on_c, 0, 62, 57
1, 133961, Note_on_c, 0, 70, 78
1, 133961, Note_on_c, 0, 62, 0
1, 133961, Note_on_c, 0, 58, 59
1, 134099, Note_on_c, 0, 70, 0
1, 134099, Note_on_c, 0, 58, 0
1, 134099, Note_on_c, 0, 62, 56
1, 134238, Note_on_c, 0, 75, 85
1, 134238, Note_on_c, 0, 62, 0
1, 134238, Note_on_c, 0, 51, 64
1, 134252, Control_c, 0, 64, 127
1, 134374, Note_on_c, 0, 75, 0
1, 134374, Note_on_c, 0, 77, 61
1, 134374, Note_on_c, 0, 51, 0
1, 134377, Note_on_c, 0, 60, 56
1, 134408, Note_on_c, 0, 77, 0
1, 134408, Note_on_c, 0, 75, 61
1, 134442, Note_on_c, 0, 75, 0
1, 134442, Note_on_c, 0, 74, 61
1, 134472, Control_c, 0, 64, 0
1, 134476, Note_on_c, 0, 74, 0
1, 134476, Note_on_c, 0, 75, 61
1, 134510, Note_on_c, 0, 75, 0
1, 134510, Note_on_c, 0, 79, 78
1, 134510, Note_on_c, 0, 60, 0
1, 134513, Note_on_c, 0, 55, 59
1, 134647, Note_on_c, 0, 55, 0
1, 134647, Note_on_c, 0, 60, 56
1, 134783, Note_on_c, 0, 79, 0
1, 134783, Note_on_c, 0, 69, 81
1, 134783, Note_on_c, 0, 60, 0
1, 134786, Note_on_c, 0, 53, 64
1, 134920, Note_on_c, 0, 53, 0
1, 134920, Note_on_c, 0, 63, 57
1, 135057, Note_on_c, 0, 69, 0
1, 135057, Note_on_c, 0, 63, 0
1, 135057, Note_on_c, 0, 60, 60
1, 135195, Note_on_c, 0, 60, 0
1, 135195, Note_on_c, 0, 63, 57
1, 135332, Note_on_c, 0, 72, 78
1, 135332, Note_on_c, 0, 63, 0
1, 135332, Note_on_c, 0, 62, 66
1, 135468, Note_on_c, 0, 72, 0
1, 135468, Note_on_c, 0, 70, 73
1, 135605, Note_on_c, 0, 70, 0
1, 135605, Note_on_c, 0, 74, 81
1, 135605, Note_on_c, 0, 62, 0
1, 135608, Note_on_c, 0, 62, 60
1, 135608, Note_on_c, 0, 57, 60
1, 135741, Note_on_c, 0, 74, 0
1, 135741, Note_on_c, 0, 72, 75
1, 135877, Note_on_c, 0, 72, 0
1, 135877, Note_on_c, 0, 75, 82
1, 135877, Note_on_c, 0, 57, 0
1, 135880, Note_on_c, 0, 58, 64
1, 136013, Note_on_c, 0, 75, 0
1, 136013, Note_on_c, 0, 74, 77
1, 136149, Note_on_c, 0, 74, 0
1, 136149, Note_on_c, 0, 77, 85
1, 136149, Note_on_c, 0, 58, 0
1, 136152, Note_on_c, 0, 62, 0
1, 136152, Note_on_c, 0, 51, 58
1, 136152, Note_on_c, 0, 60, 58
1, 136287, Note_on_c, 0, 77, 0
1, 136287, Note_on_c, 0, 75, 81
1, 136426, Note_on_c, 0, 75, 0
1, 136426, Note_on_c, 0, 74, 85
1, 136426, Note_on_c, 0, 60, 0
1, 136429, Note_on_c, 0, 51, 0
1, 136429, Note_on_c, 0, 58, 65
1, 136429, Note_on_c, 0, 53, 65
1, 136837, Note_on_c, 0, 74, 0
1, 136837, Note_on_c, 0, 75, 81
1, 136905, Note_on_c, 0, 75, 0
1, 136905, Note_on_c, 0, 74, 76
1, 136974, Note_on_c, 0, 74, 0
1, 136974, Note_on_c, 0, 72, 73
1, 136974, Note_on_c, 0, 58, 0
1, 136977, Note_on_c, 0, 57, 60
1, 137111, Note_on_c, 0, 72, 0
1, 137111, Note_on_c, 0, 74, 77
1, 137251, Note_on_c, 0, 74, 0
1, 137251, Note_on_c, 0, 75, 78
1, 137251, Note_on_c, 0, 57, 0
1, 137254, Note_on_c, 0, 53, 0
1, 137394, Note_on_c, 0, 75, 0
1, 137394, Note_on_c, 0, 76, 81
1, 137537, Note_on_c, 0, 76, 0
1, 137537, Note_on_c, 0, 77, 83
1, 137537, Note_on_c, 0, 58, 65
1, 137553, Control_c, 0, 64, 127
1, 137673, Note_on_c, 0, 58, 0
1, 137673, Note_on_c, 0, 65, 57
1, 137810, Note_on_c, 0, 65, 0
1, 137810, Note_on_c, 0, 62, 60
1, 137946, Note_on_c, 0, 77, 0
1, 137946, Note_on_c, 0, 75, 74
1, 137946, Note_on_c, 0, 62, 0
1, 137949, Note_on_c, 0, 65, 56
1, 137991, Note_on_c, 0, 75, 0
1, 137991, Note_on_c, 0, 74, 74
1, 138037, Note_on_c, 0, 74, 0
1, 138037, Note_on_c, 0, 72, 74
1, 138052, Control_c, 0, 64, 0
1, 138082, Note_on_c, 0, 72, 0
1, 138082, Note_on_c, 0, 70, 79
1, 138082, Note_on_c, 0, 65, 0
1, 138085, Note_on_c, 0, 55, 64
1, 138149, Note_on_c, 0, 70, 0
1, 138217, Note_on_c, 0, 70, 76
1, 138217, Note_on_c, 0, 55, 0
1, 138217, Note_on_c, 0, 62, 57
1, 138284, Note_on_c, 0, 70, 0
1, 138352, Note_on_c, 0, 70, 79
1, 138352, Note_on_c, 0, 62, 0
1, 138352, Note_on_c, 0, 58, 60
1, 138421, Note_on_c, 0, 70, 0
1, 138491, Note_on_c, 0, 70, 77
1, 138491, Note_on_c, 0, 58, 0
1, 138491, Note_on_c, 0, 62, 57
1, 138560, Note_on_c, 0, 70, 0
1, 138630, Note_on_c, 0, 75, 85
1, 138630, Note_on_c, 0, 62, 0
1, 138630, Note_on_c, 0, 51, 64
1, 138640, Control_c, 0, 64, 127
1, 138766, Note_on_c, 0, 75, 0
1, 138766, Note_on_c, 0, 77, 61
1, 138766, Note_on_c, 0, 51, 0
1, 138769, Note_on_c, 0, 60, 56
1, 138800, Note_on_c, 0, 77, 0
1, 138800, Note_on_c, 0, 75, 61
1, 138834, Note_on_c, 0, 75, 0
1, 138834, Note_on_c, 0, 74, 61
1, 138868, Note_on_c, 0, 74, 0
1, 138868, Note_on_c, 0, 75, 61
1, 138872, Control_c, 0, 64, 0
1, 138902, Note_on_c, 0, 75, 0
1, 138902, Note_on_c, 0, 79, 78
1, 138902, Note_on_c, 0, 60, 0
1, 138905, Note_on_c, 0, 55, 59
1, 139038, Note_on_c, 0, 55, 0
1, 139038, Note_on_c, 0, 60, 56
1, 139175, Note_on_c, 0, 79, 0
1, 139175, Note_on_c, 0, 69, 82
1, 139175, Note_on_c, 0, 60, 0
1, 139178, Note_on_c, 0, 53, 64
1, 139311, Note_on_c, 0, 53, 0
1, 139311, Note_on_c, 0, 63, 56
1, 139447, Note_on_c, 0, 69, 0
1, 139447, Note_on_c, 0, 63, 0
1, 139447, Note_on_c, 0, 60, 59
1, 139586, Note_on_c, 0, 81, 77
1, 139586, Note_on_c, 0, 60, 0
1, 139586, Note_on_c, 0, 63, 55
1, 139721, Note_on_c, 0, 81, 0
1, 139721, Note_on_c, 0, 82, 85
1, 139721, Note_on_c, 0, 63, 0
1, 139724, Note_on_c, 0, 58, 59
1, 139724, Note_on_c, 0, 50, 59
1, 139733, Control_c, 0, 64, 127
1, 139811, Note_on_c, 0, 82, 0
1, 139811, Note_on_c, 0, 77, 75
1, 139901, Note_on_c, 0, 77, 0
1, 139901, Note_on_c, 0, 74, 74
1, 139991, Note_on_c, 0, 74, 0
1, 139991, Note_on_c, 0, 79, 84
1, 139991, Note_on_c, 0, 50, 0
1, 139994, Note_on_c, 0, 51, 57
1, 139999, Control_c, 0, 64, 0
1, 140035, Control_c, 0, 64, 127
1, 140082, Note_on_c, 0, 79, 0
1, 140082, Note_on_c, 0, 75, 76
1, 140172, Note_on_c, 0, 75, 0
1, 140172, Note_on_c, 0, 72, 75
1, 140258, Control_c, 0, 64, 0
1, 140262, Note_on_c, 0, 72, 0
1, 140262, Note_on_c, 0, 77, 84
1, 140262, Note_on_c, 0, 51, 0
1, 140265, Note_on_c, 0, 58, 0
1, 140265, Note_on_c, 0, 62, 59
1, 140265, Note_on_c, 0, 53, 59
1, 140306, Control_c, 0, 64, 127
1, 140352, Note_on_c, 0, 77, 0
1, 140352, Note_on_c, 0, 74, 76
1, 140443, Note_on_c, 0, 74, 0
1, 140443, Note_on_c, 0, 70, 77
1, 140533, Note_on_c, 0, 70, 0
1, 140533, Note_on_c, 0, 75, 84
1, 140533, Note_on_c, 0, 62, 0
1, 140536, Note_on_c, 0, 63, 57
1, 140549, Control_c, 0, 64, 0
1, 140593, Control_c, 0, 64, 127
1, 140624, Note_on_c, 0, 75, 0
1, 140624, Note_on_c, 0, 72, 76
1, 140715, Note_on_c, 0, 72, 0
1, 140715, Note_on_c, 0, 69, 75
1, 140806, Note_on_c, 0, 69, 0
1, 140806, Note_on_c, 0, 70, 83
1, 140806, Note_on_c, 0, 63, 0
1, 140809, Note_on_c, 0, 53, 0
1, 140809, Control_c, 0, 64, 0
1, 140809, Note_on_c, 0, 58, 59
1, 140812, Note_on_c, 0, 62, 59
1, 141099, Note_on_c, 0, 70, 0
1, 141099, Note_on_c, 0, 62, 0
1, 141099, Note_on_c, 0, 58, 0
1, 141102, Note_on_c, 0, 46, 63
1, 141245, Note_on_c, 0, 65, 55
1, 141387, Note_on_c, 0, 65, 0
1, 141387, Note_on_c, 0, 70, 58
1, 141387, Note_on_c, 0, 46, 0
1, 141458, Note_on_c, 0, 70, 0
1, 141529, Note_on_c, 0, 69, 53
1, 141600, Note_on_c, 0, 69, 0
1, 141671, Note_on_c, 0, 70, 55
1, 141743, Note_on_c, 0, 70, 0
1, 141814, Note_on_c, 0, 72, 52
1, 141885, Note_on_c, 0, 72, 0
1, 141956, Note_on_c, 0, 74, 55
1, 142253, Note_on_c, 0, 74, 0
1, 142253, Note_on_c, 0, 70, 56
1, 142253, Note_on_c, 0, 74, 56
1, 142256, Note_on_c, 0, 58, 47
1, 142544, Note_on_c, 0, 74, 0
1, 142544, Note_on_c, 0, 70, 0
1, 142544, Note_on_c, 0, 70, 59
1, 142547, Note_on_c, 0, 74, 59
1, 142547, Note_on_c, 0, 58, 0
1, 142547, Note_on_c, 0, 55, 48
1, 142835, Note_on_c, 0, 74, 0
1, 142835, Note_on_c, 0, 70, 0
1, 142835, Note_on_c, 0, 72, 55
1, 142838, Note_on_c, 0, 75, 55
1, 142838, Note_on_c, 0, 55, 0
1, 142838, Note_on_c, 0, 51, 46
1, 143129, Note_on_c, 0, 75, 0
1, 143129, Note_on_c, 0, 72, 0
1, 143129, Note_on_c, 0, 72, 54
1, 143132, Note_on_c, 0, 69, 54
1, 143132, Note_on_c, 0, 51, 0
1, 143132, Note_on_c, 0, 53, 47
1, 143422, Note_on_c, 0, 69, 0
1, 143422, Note_on_c, 0, 72, 0
1, 143422, Note_on_c, 0, 53, 0
1, 143425, Note_on_c, 0, 41, 57
1, 143569, Note_on_c, 0, 65, 55
1, 143710, Note_on_c, 0, 65, 0
1, 143710, Note_on_c, 0, 72, 57
1, 143710, Note_on_c, 0, 41, 0
1, 143780, Note_on_c, 0, 72, 0
1, 143851, Note_on_c, 0, 70, 53
1, 143921, Note_on_c, 0, 70, 0
1, 143992, Note_on_c, 0, 72, 56
1, 144063, Note_on_c, 0, 72, 0
1, 144134, Note_on_c, 0, 74, 52
1, 144205, Note_on_c, 0, 74, 0
1, 144276, Note_on_c, 0, 75, 56
1, 144576, Note_on_c, 0, 75, 0
1, 144576, Note_on_c, 0, 67, 56
1, 144576, Note_on_c, 0, 75, 56
1, 144579, Note_on_c, 0, 60, 45
1, 144864, Note_on_c, 0, 75, 0
1, 144864, Note_on_c, 0, 67, 0
1, 144864, Note_on_c, 0, 75, 58
1, 144867, Note_on_c, 0, 72, 58
1, 144867, Note_on_c, 0, 60, 0
1, 144867, Note_on_c, 0, 57, 45
1, 145159, Note_on_c, 0, 72, 0
1, 145159, Note_on_c, 0, 75, 0
1, 145159, Note_on_c, 0, 77, 56
1, 145162, Note_on_c, 0, 69, 56
1, 145162, Note_on_c, 0, 57, 0
1, 145162, Note_on_c, 0, 53, 45
1, 145454, Note_on_c, 0, 69, 0
1, 145454, Note_on_c, 0, 77, 0
1, 145454, Note_on_c, 0, 70, 54
1, 145457, Note_on_c, 0, 74, 54
1, 145457, Note_on_c, 0, 53, 0
1, 145457, Note_on_c, 0, 58, 46
1, 145748, Note_on_c, 0, 74, 0
1, 145748, Note_on_c, 0, 70, 0
1, 145748, Note_on_c, 0, 58, 0
1, 145751, Note_on_c, 0, 46, 70
1, 145896, Note_on_c, 0, 70, 56
1, 146035, Note_on_c, 0, 70, 0
1, 146035, Note_on_c, 0, 74, 60
1, 146035, Note_on_c, 0, 46, 0
1, 146105, Note_on_c, 0, 74, 0
1, 146174, Note_on_c, 0, 75, 64
1, 146244, Note_on_c, 0, 75, 0
1, 146313, Note_on_c, 0, 77, 68
1, 146382, Note_on_c, 0, 77, 0
1, 146451, Note_on_c, 0, 79, 72
1, 146520, Note_on_c, 0, 79, 0
1, 146589, Note_on_c, 0, 80, 76
1, 146730, Note_on_c, 0, 80, 0
1, 146870, Note_on_c, 0, 65, 72
1, 146870, Note_on_c, 0, 68, 72
1, 146870, Note_on_c, 0, 58, 64
1, 146873, Note_on_c, 0, 50, 59
1, 146873, Note_on_c, 0, 38, 53
1, 147020, Note_on_c, 0, 58, 0
1, 147020, Note_on_c, 0, 68, 0
1, 147020, Note_on_c, 0, 65, 0
1, 147023, Note_on_c, 0, 38, 0
1, 147023, Note_on_c, 0, 50, 0
1, 147170, Note_on_c, 0, 68, 73
1, 147170, Note_on_c, 0, 58, 65
1, 147170, Note_on_c, 0, 65, 73
1, 147173, Note_on_c, 0, 38, 57
1, 147173, Note_on_c, 0, 50, 64
1, 147319, Note_on_c, 0, 65, 0
1, 147319, Note_on_c, 0, 58, 0
1, 147319, Note_on_c, 0, 68, 0
1, 147322, Note_on_c, 0, 50, 0
1, 147322, Note_on_c, 0, 38, 0
1, 147469, Note_on_c, 0, 68, 71
1, 147469, Note_on_c, 0, 65, 71
1, 147469, Note_on_c, 0, 60, 63
1, 147472, Note_on_c, 0, 48, 58
1, 147472, Note_on_c, 0, 36, 52
1, 147631, Note_on_c, 0, 60, 0
1, 147631, Note_on_c, 0, 65, 0
1, 147631, Note_on_c, 0, 68, 0
1, 147634, Note_on_c, 0, 36, 0
1, 147634, Note_on_c, 0, 48, 0
1, 147794, Note_on_c, 0, 65, 72
1, 147794, Note_on_c, 0, 62, 64
1, 147794, Note_on_c, 0, 67, 72
1, 147797, Note_on_c, 0, 47, 57
1, 147797, Note_on_c, 0, 35, 51
1, 148081, Note_on_c, 0, 67, 0
1, 148081, Note_on_c, 0, 62, 0
1, 148081, Note_on_c, 0, 65, 0
1, 148084, Note_on_c, 0, 35, 0
1, 148084, Note_on_c, 0, 47, 0
1, 148084, Note_on_c, 0, 59, 66
1, 148224, Note_on_c, 0, 74, 53
1, 148362, Note_on_c, 0, 74, 0
1, 148362, Note_on_c, 0, 79, 58
1, 148362, Note_on_c, 0, 59, 0
1, 148430, Note_on_c, 0, 79, 0
1, 148499, Note_on_c, 0, 78, 53
1, 148568, Note_on_c, 0, 78, 0
1, 148636, Note_on_c, 0, 79, 56
1, 148636, Note_on_c, 0, 67, 47
1, 148636, Note_on_c, 0, 58, 47
1, 148706, Note_on_c, 0, 79, 0
1, 148775, Note_on_c, 0, 74, 53
1, 148845, Note_on_c, 0, 74, 0
1, 148915, Note_on_c, 0, 77, 57
1, 148915, Note_on_c, 0, 58, 0
1, 148915, Note_on_c, 0, 67, 0
1, 148918, Note_on_c, 0, 60, 48
1, 148918, Note_on_c, 0, 67, 48
1, 149059, Note_on_c, 0, 77, 0
1, 149059, Note_on_c, 0, 75, 53
1, 149204, Note_on_c, 0, 75, 0
1, 149204, Note_on_c, 0, 67, 0
1, 149204, Note_on_c, 0, 60, 0
1, 149207, Note_on_c, 0, 48, 55
1, 149348, Note_on_c, 0, 67, 53
1, 149484, Note_on_c, 0, 67, 0
1, 149484, Note_on_c, 0, 72, 54
1, 149484, Note_on_c, 0, 48, 0
1, 149552, Note_on_c, 0, 72, 0
1, 149552, Note_on_c, 0, 71, 58
1, 149619, Note_on_c, 0, 71, 0
1, 149619, Note_on_c, 0, 74, 61
1, 149687, Note_on_c, 0, 74, 0
1, 149687, Note_on_c, 0, 72, 65
1, 149754, Note_on_c, 0, 72, 0
1, 149754, Note_on_c, 0, 75, 69
1, 149821, Note_on_c, 0, 75, 0
1, 149821, Note_on_c, 0, 74, 73
1, 149887, Note_on_c, 0, 74, 0
1, 149887, Note_on_c, 0, 77, 76
1, 149954, Note_on_c, 0, 77, 0
1, 149954, Note_on_c, 0, 75, 80
1, 150020, Note_on_c, 0, 75, 0
1, 150020, Note_on_c, 0, 79, 84
1, 150160, Note_on_c, 0, 79, 0
1, 150299, Note_on_c, 0, 67, 74
1, 150299, Note_on_c, 0, 60, 66
1, 150299, Note_on_c, 0, 63, 74
1, 150302, Note_on_c, 0, 36, 52
1, 150302, Note_on_c, 0, 48, 58
1, 150450, Note_on_c, 0, 63, 0
1, 150450, Note_on_c, 0, 60, 0
1, 150450, Note_on_c, 0, 67, 0
1, 150453, Note_on_c, 0, 48, 0
1, 150453, Note_on_c, 0, 36, 0
1, 150601, Note_on_c, 0, 60, 66
1, 150601, Note_on_c, 0, 63, 74
1, 150601, Note_on_c, 0, 67, 74
1, 150604, Note_on_c, 0, 48, 62
1, 150604, Note_on_c, 0, 36, 55
1, 150752, Note_on_c, 0, 67, 0
1, 150752, Note_on_c, 0, 63, 0
1, 150752, Note_on_c, 0, 60, 0
1, 150755, Note_on_c, 0, 36, 0
1, 150755, Note_on_c, 0, 48, 0
1, 150903, Note_on_c, 0, 60, 64
1, 150903, Note_on_c, 0, 66, 72
1, 150903, Note_on_c, 0, 63, 72
1, 150906, Note_on_c, 0, 34, 52
1, 150906, Note_on_c, 0, 46, 58
1, 151065, Note_on_c, 0, 63, 0
1, 151065, Note_on_c, 0, 66, 0
1, 151065, Note_on_c, 0, 60, 0
1, 151068, Note_on_c, 0, 46, 0
1, 151068, Note_on_c, 0, 34, 0
1, 151228, Note_on_c, 0, 63, 71
1, 151228, Note_on_c, 0, 65, 71
1, 151228, Note_on_c, 0, 60, 63
1, 151231, Note_on_c, 0, 45, 57
1, 151231, Note_on_c, 0, 33, 51
1, 151515, Note_on_c, 0, 60, 0
1, 151515, Note_on_c, 0, 65, 0
1, 151515, Note_on_c, 0, 63, 0
1, 151518, Note_on_c, 0, 33, 0
1, 151518, Note_on_c, 0, 45, 0
1, 151518, Note_on_c, 0, 57, 60
1, 151659, Note_on_c, 0, 72, 52
1, 151797, Note_on_c, 0, 72, 0
1, 151797, Note_on_c, 0, 77, 55
1, 151797, Note_on_c, 0, 57, 0
1, 151865, Note_on_c, 0, 77, 0
1, 151934, Note_on_c, 0, 76, 52
1, 152003, Note_on_c, 0, 76, 0
1, 152072, Note_on_c, 0, 77, 55
1, 152072, Note_on_c, 0, 57, 44
1, 152072, Note_on_c, 0, 65, 44
1, 152142, Note_on_c, 0, 77, 0
1, 152211, Note_on_c, 0, 72, 52
1, 152281, Note_on_c, 0, 72, 0
1, 152350, Note_on_c, 0, 75, 55
1, 152350, Note_on_c, 0, 65, 0
1, 152350, Note_on_c, 0, 57, 0
1, 152353, Note_on_c, 0, 58, 44
1, 152353, Note_on_c, 0, 65, 44
1, 152494, Note_on_c, 0, 75, 0
1, 152494, Note_on_c, 0, 74, 52
1, 152637, Note_on_c, 0, 74, 0
1, 152637, Note_on_c, 0, 65, 0
1, 152637, Note_on_c, 0, 58, 0
1, 152640, Note_on_c, 0, 46, 51
1, 152728, Note_on_c, 0, 82, 73
1, 152818, Note_on_c, 0, 82, 0
1, 152818, Note_on_c, 0, 81, 69
1, 152910, Note_on_c, 0, 81, 0
1, 152910, Note_on_c, 0, 82, 77
1, 152910, Note_on_c, 0, 46, 0
1, 153001, Note_on_c, 0, 82, 0
1, 153001, Note_on_c, 0, 81, 69
1, 153091, Note_on_c, 0, 81, 0
1, 153091, Note_on_c, 0, 79, 70
1, 153182, Note_on_c, 0, 79, 0
1, 153182, Note_on_c, 0, 77, 73
1, 153273, Note_on_c, 0, 77, 0
1, 153273, Note_on_c, 0, 75, 72
1, 153365, Note_on_c, 0, 75, 0
1, 153365, Note_on_c, 0, 74, 71
1, 153457, Note_on_c, 0, 74, 0
1, 153457, Note_on_c, 0, 72, 70
1, 153595, Note_on_c, 0, 72, 0
1, 153595, Note_on_c, 0, 51, 52
1, 153733, Note_on_c, 0, 51, 0
1, 153733, Note_on_c, 0, 58, 55
1, 153825, Note_on_c, 0, 72, 70
1, 153871, Note_on_c, 0, 58, 0
1, 153871, Note_on_c, 0, 55, 51
1, 153917, Note_on_c, 0, 72, 0
1, 153917, Note_on_c, 0, 74, 72
1, 154008, Note_on_c, 0, 74, 0
1, 154008, Note_on_c, 0, 75, 74
1, 154008, Note_on_c, 0, 55, 0
1, 154011, Note_on_c, 0, 60, 60
1, 154099, Note_on_c, 0, 75, 0
1, 154099, Note_on_c, 0, 74, 73
1, 154190, Note_on_c, 0, 74, 0
1, 154190, Note_on_c, 0, 72, 68
1, 154281, Note_on_c, 0, 72, 0
1, 154281, Note_on_c, 0, 79, 73
1, 154281, Note_on_c, 0, 60, 0
1, 154372, Note_on_c, 0, 79, 0
1, 154372, Note_on_c, 0, 77, 72
1, 154462, Note_on_c, 0, 77, 0
1, 154462, Note_on_c, 0, 75, 71
1, 154553, Note_on_c, 0, 75, 0
1, 154553, Note_on_c, 0, 74, 69
1, 154688, Note_on_c, 0, 53, 57
1, 154824, Note_on_c, 0, 74, 0
1, 154824, Note_on_c, 0, 53, 0
1, 154824, Note_on_c, 0, 58, 60
1, 154914, Note_on_c, 0, 82, 74
1, 154960, Note_on_c, 0, 58, 0
1, 154960, Note_on_c, 0, 56, 54
1, 155005, Note_on_c, 0, 82, 0
1, 155005, Note_on_c, 0, 81, 74
1, 155097, Note_on_c, 0, 81, 0
1, 155097, Note_on_c, 0, 82, 76
1, 155097, Note_on_c, 0, 56, 0
1, 155100, Note_on_c, 0, 62, 68
1, 155188, Note_on_c, 0, 82, 0
1, 155188, Note_on_c, 0, 80, 72
1, 155278, Note_on_c, 0, 80, 0
1, 155278, Note_on_c, 0, 79, 71
1, 155369, Note_on_c, 0, 79, 0
1, 155369, Note_on_c, 0, 77, 73
1, 155369, Note_on_c, 0, 62, 0
1, 155460, Note_on_c, 0, 77, 0
1, 155460, Note_on_c, 0, 75, 71
1, 155552, Note_on_c, 0, 75, 0
1, 155552, Note_on_c, 0, 74, 70
1, 155644, Note_on_c, 0, 74, 0
1, 155644, Note_on_c, 0, 75, 74
1, 155781, Note_on_c, 0, 55, 54
1, 155918, Note_on_c, 0, 75, 0
1, 155918, Note_on_c, 0, 55, 0
1, 155918, Note_on_c, 0, 63, 58
1, 156009, Note_on_c, 0, 75, 71
1, 156054, Note_on_c, 0, 63, 0
1, 156054, Note_on_c, 0, 58, 54
1, 156099, Note_on_c, 0, 75, 0
1, 156099, Note_on_c, 0, 77, 72
1, 156190, Note_on_c, 0, 77, 0
1, 156190, Note_on_c, 0, 79, 74
1, 156190, Note_on_c, 0, 58, 0
1, 156193, Note_on_c, 0, 67, 65
1, 156280, Note_on_c, 0, 79, 0
1, 156280, Note_on_c, 0, 77, 73
1, 156371, Note_on_c, 0, 77, 0
1, 156371, Note_on_c, 0, 75, 72
1, 156464, Note_on_c, 0, 75, 0
1, 156464, Note_on_c, 0, 82, 79
1, 156464, Note_on_c, 0, 67, 0
1, 156557, Note_on_c, 0, 82, 0
1, 156557, Note_on_c, 0, 80, 72
1, 156650, Note_on_c, 0, 80, 0
1, 156650, Note_on_c, 0, 79, 70
1, 156743, Note_on_c, 0, 79, 0
1, 156743, Note_on_c, 0, 77, 72
1, 156881, Note_on_c, 0, 50, 55
1, 157019, Note_on_c, 0, 77, 0
1, 157019, Note_on_c, 0, 50, 0
1, 157019, Note_on_c, 0, 58, 58
1, 157110, Note_on_c, 0, 82, 74
1, 157155, Note_on_c, 0, 58, 0
1, 157155, Note_on_c, 0, 53, 55
1, 157201, Note_on_c, 0, 82, 0
1, 157201, Note_on_c, 0, 81, 71
1, 157291, Note_on_c, 0, 81, 0
1, 157291, Note_on_c, 0, 82, 76
1, 157291, Note_on_c, 0, 53, 0
1, 157294, Note_on_c, 0, 62, 64
1, 157382, Note_on_c, 0, 82, 0
1, 157382, Note_on_c, 0, 80, 72
1, 157473, Note_on_c, 0, 80, 0
1, 157473, Note_on_c, 0, 79, 73
1, 157564, Note_on_c, 0, 79, 0
1, 157564, Note_on_c, 0, 77, 71
1, 157564, Note_on_c, 0, 62, 0
1, 157656, Note_on_c, 0, 77, 0
1, 157656, Note_on_c, 0, 79, 72
1, 157747, Note_on_c, 0, 79, 0
1, 157747, Note_on_c, 0, 80, 74
1, 157837, Note_on_c, 0, 80, 0
1, 157837, Note_on_c, 0, 79, 72
1, 157837, Note_on_c, 0, 51, 73
1, 157930, Note_on_c, 0, 79, 0
1, 157930, Note_on_c, 0, 82, 78
1, 158020, Note_on_c, 0, 82, 0
1, 158020, Note_on_c, 0, 81, 75
1, 158111, Note_on_c, 0, 81, 0
1, 158111, Note_on_c, 0, 79, 71
1, 158202, Note_on_c, 0, 79, 0
1, 158202, Note_on_c, 0, 81, 73
1, 158293, Note_on_c, 0, 81, 0
1, 158293, Note_on_c, 0, 82, 75
1, 158384, Note_on_c, 0, 82, 0
1, 158384, Note_on_c, 0, 75, 70
1, 158384, Note_on_c, 0, 55, 70
1, 158476, Note_on_c, 0, 75, 0
1, 158476, Note_on_c, 0, 79, 74
1, 158566, Note_on_c, 0, 79, 0
1, 158566, Note_on_c, 0, 77, 69
1, 158656, Note_on_c, 0, 77, 0
1, 158656, Note_on_c, 0, 75, 70
1, 158746, Note_on_c, 0, 75, 0
1, 158746, Note_on_c, 0, 77, 72
1, 158837, Note_on_c, 0, 77, 0
1, 158837, Note_on_c, 0, 79, 75
1, 158927, Note_on_c, 0, 79, 0
1, 158927, Note_on_c, 0, 72, 73
1, 158927, Note_on_c, 0, 55, 0
1, 158930, Note_on_c, 0, 60, 74
1, 159018, Note_on_c, 0, 72, 0
1, 159018, Note_on_c, 0, 75, 76
1, 159108, Note_on_c, 0, 75, 0
1, 159108, Note_on_c, 0, 74, 74
1, 159199, Note_on_c, 0, 74, 0
1, 159199, Note_on_c, 0, 72, 73
1, 159289, Note_on_c, 0, 72, 0
1, 159289, Note_on_c, 0, 74, 74
1, 159379, Note_on_c, 0, 74, 0
1, 159379, Note_on_c, 0, 75, 69
1, 159469, Note_on_c, 0, 75, 0
1, 159469, Note_on_c, 0, 67, 72
1, 159469, Note_on_c, 0, 60, 0
1, 159472, Note_on_c, 0, 51, 0
1, 159472, Note_on_c, 0, 60, 70
1, 159472, Note_on_c, 0, 52, 70
1, 159561, Note_on_c, 0, 67, 0
1, 159561, Note_on_c, 0, 70, 74
1, 159652, Note_on_c, 0, 70, 0
1, 159652, Note_on_c, 0, 69, 72
1, 159742, Note_on_c, 0, 69, 0
1, 159742, Note_on_c, 0, 67, 68
1, 159833, Note_on_c, 0, 67, 0
1, 159833, Note_on_c, 0, 69, 70
1, 159924, Note_on_c, 0, 69, 0
1, 159924, Note_on_c, 0, 70, 71
1, 160015, Note_on_c, 0, 70, 0
1, 160015, Note_on_c, 0, 69, 71
1, 160015, Note_on_c, 0, 52, 0
1, 160018, Note_on_c, 0, 60, 0
1, 160018, Note_on_c, 0, 53, 65
1, 160045, Control_c, 0, 64, 127
1, 160084, Note_on_c, 0, 69, 0
1, 160084, Note_on_c, 0, 65, 69
1, 160152, Note_on_c, 0, 65, 0
1, 160152, Note_on_c, 0, 67, 70
1, 160152, Note_on_c, 0, 53, 0
1, 160155, Note_on_c, 0, 60, 60
1, 160221, Note_on_c, 0, 67, 0
1, 160221, Note_on_c, 0, 69, 71
1, 160275, Control_c, 0, 64, 0
1, 160288, Note_on_c, 0, 69, 0
1, 160288, Note_on_c, 0, 70, 72
1, 160288, Note_on_c, 0, 60, 0
1, 160291, Note_on_c, 0, 57, 68
1, 160317, Control_c, 0, 64, 127
1, 160356, Note_on_c, 0, 70, 0
1, 160356, Note_on_c, 0, 72, 73
1, 160424, Note_on_c, 0, 72, 0
1, 160424, Note_on_c, 0, 74, 74
1, 160424, Note_on_c, 0, 57, 0
1, 160427, Note_on_c, 0, 60, 66
1, 160492, Note_on_c, 0, 74, 0
1, 160492, Note_on_c, 0, 76, 76
1, 160553, Control_c, 0, 64, 0
1, 160559, Note_on_c, 0, 76, 0
1, 160559, Note_on_c, 0, 77, 77
1, 160559, Note_on_c, 0, 60, 0
1, 160562, Note_on_c, 0, 53, 69
1, 160591, Control_c, 0, 64, 127
1, 160627, Note_on_c, 0, 77, 0
1, 160627, Note_on_c, 0, 79, 78
1, 160694, Note_on_c, 0, 79, 0
1, 160694, Note_on_c, 0, 81, 79
1, 160694, Note_on_c, 0, 53, 0
1, 160697, Note_on_c, 0, 60, 65
1, 160761, Note_on_c, 0, 81, 0
1, 160761, Note_on_c, 0, 82, 80
1, 160829, Note_on_c, 0, 82, 0
1, 160829, Note_on_c, 0, 84, 93
1, 160829, Note_on_c, 0, 60, 0
1, 160832, Note_on_c, 0, 57, 71
1, 160851, Control_c, 0, 64, 0
1, 160878, Control_c, 0, 64, 127
1, 160966, Note_on_c, 0, 84, 0
1, 160966, Note_on_c, 0, 75, 76
1, 160966, Note_on_c, 0, 57, 0
1, 160969, Note_on_c, 0, 60, 66
1, 160972, Control_c, 0, 64, 0
1, 161035, Note_on_c, 0, 75, 0
1, 161103, Note_on_c, 0, 74, 74
1, 161103, Note_on_c, 0, 60, 0
1, 161103, Note_on_c, 0, 53, 65
1, 161115, Control_c, 0, 64, 127
1, 161172, Note_on_c, 0, 74, 0
1, 161172, Note_on_c, 0, 70, 69
1, 161240, Note_on_c, 0, 70, 0
1, 161240, Note_on_c, 0, 72, 71
1, 161240, Note_on_c, 0, 53, 0
1, 161243, Note_on_c, 0, 62, 58
1, 161308, Note_on_c, 0, 72, 0
1, 161308, Note_on_c, 0, 74, 72
1, 161367, Control_c, 0, 64, 0
1, 161375, Note_on_c, 0, 74, 0
1, 161375, Note_on_c, 0, 75, 74
1, 161375, Note_on_c, 0, 62, 0
1, 161378, Note_on_c, 0, 58, 66
1, 161411, Control_c, 0, 64, 127
1, 161443, Note_on_c, 0, 75, 0
1, 161443, Note_on_c, 0, 77, 75
1, 161510, Note_on_c, 0, 77, 0
1, 161510, Note_on_c, 0, 79, 77
1, 161510, Note_on_c, 0, 58, 0
1, 161513, Note_on_c, 0, 62, 62
1, 161578, Note_on_c, 0, 79, 0
1, 161578, Note_on_c, 0, 81, 78
1, 161634, Control_c, 0, 64, 0
1, 161645, Note_on_c, 0, 81, 0
1, 161645, Note_on_c, 0, 82, 80
1, 161645, Note_on_c, 0, 62, 0
1, 161648, Note_on_c, 0, 53, 69
1, 161661, Control_c, 0, 64, 127
1, 161713, Note_on_c, 0, 82, 0
1, 161713, Note_on_c, 0, 84, 81
1, 161780, Note_on_c, 0, 84, 0
1, 161780, Note_on_c, 0, 86, 83
1, 161780, Note_on_c, 0, 53, 0
1, 161783, Note_on_c, 0, 62, 64
1, 161847, Note_on_c, 0, 86, 0
1, 161847, Note_on_c, 0, 87, 84
1, 161910, Control_c, 0, 64, 0
1, 161914, Note_on_c, 0, 87, 0
1, 161914, Note_on_c, 0, 89, 99
1, 161914, Note_on_c, 0, 62, 0
1, 161917, Note_on_c, 0, 58, 71
1, 161946, Control_c, 0, 64, 127
1, 162052, Note_on_c, 0, 89, 0
1, 162052, Note_on_c, 0, 82, 82
1, 162052, Note_on_c, 0, 58, 0
1, 162055, Note_on_c, 0, 62, 66
1, 162137, Control_c, 0, 64, 0
1, 162190, Note_on_c, 0, 82, 0
1, 162190, Note_on_c, 0, 81, 78
1, 162190, Note_on_c, 0, 62, 0
1, 162193, Note_on_c, 0, 53, 71
1, 162214, Control_c, 0, 64, 127
1, 162259, Note_on_c, 0, 81, 0
1, 162259, Note_on_c, 0, 82, 81
1, 162327, Note_on_c, 0, 82, 0
1, 162327, Note_on_c, 0, 84, 83
1, 162327, Note_on_c, 0, 53, 0
1, 162330, Note_on_c, 0, 63, 67
1, 162395, Note_on_c, 0, 84, 0
1, 162395, Note_on_c, 0, 82, 80
1, 162463, Note_on_c, 0, 82, 0
1, 162463, Note_on_c, 0, 81, 79
1, 162463, Note_on_c, 0, 63, 0
1, 162466, Control_c, 0, 64, 0
1, 162466, Note_on_c, 0, 60, 71
1, 162483, Control_c, 0, 64, 127
1, 162532, Note_on_c, 0, 81, 0
1, 162532, Note_on_c, 0, 82, 82
1, 162599, Note_on_c, 0, 82, 0
1, 162599, Note_on_c, 0, 84, 85
1, 162599, Note_on_c, 0, 60, 0
1, 162602, Note_on_c, 0, 63, 66
1, 162667, Note_on_c, 0, 84, 0
1, 162667, Note_on_c, 0, 86, 88
1, 162734, Note_on_c, 0, 86, 0
1, 162734, Note_on_c, 0, 87, 89
1, 162734, Note_on_c, 0, 63, 0
1, 162737, Note_on_c, 0, 53, 75
1, 162746, Control_c, 0, 64, 0
1, 162782, Control_c, 0, 64, 127
1, 162801, Note_on_c, 0, 87, 0
1, 162801, Note_on_c, 0, 86, 87
1, 162869, Note_on_c, 0, 86, 0
1, 162869, Note_on_c, 0, 84, 86
1, 162869, Note_on_c, 0, 53, 0
1, 162872, Note_on_c, 0, 60, 71
1, 162936, Note_on_c, 0, 84, 0
1, 162936, Note_on_c, 0, 82, 84
1, 163004, Note_on_c, 0, 82, 0
1, 163004, Note_on_c, 0, 81, 82
1, 163004, Note_on_c, 0, 60, 0
1, 163007, Control_c, 0, 64, 0
1, 163007, Note_on_c, 0, 57, 73
1, 163040, Control_c, 0, 64, 127
1, 163072, Note_on_c, 0, 81, 0
1, 163072, Note_on_c, 0, 79, 80
1, 163140, Note_on_c, 0, 79, 0
1, 163140, Note_on_c, 0, 77, 78
1, 163140, Note_on_c, 0, 57, 0
1, 163143, Note_on_c, 0, 60, 66
1, 163208, Note_on_c, 0, 77, 0
1, 163208, Note_on_c, 0, 75, 77
1, 163276, Note_on_c, 0, 75, 0
1, 163276, Note_on_c, 0, 74, 75
1, 163276, Note_on_c, 0, 60, 0
1, 163279, Control_c, 0, 64, 0
1, 163279, Note_on_c, 0, 53, 69
1, 163325, Control_c, 0, 64, 127
1, 163345, Note_on_c, 0, 74, 0
1, 163345, Note_on_c, 0, 77, 75
1, 163414, Note_on_c, 0, 77, 0
1, 163414, Note_on_c, 0, 75, 74
1, 163414, Note_on_c, 0, 53, 0
1, 163417, Note_on_c, 0, 62, 65
1, 163482, Note_on_c, 0, 75, 0
1, 163482, Note_on_c, 0, 74, 73
1, 163551, Note_on_c, 0, 74, 0
1, 163551, Note_on_c, 0, 75, 71
1, 163551, Note_on_c, 0, 62, 0
1, 163554, Note_on_c, 0, 58, 67
1, 163567, Control_c, 0, 64, 0
1, 163596, Control_c, 0, 64, 127
1, 163620, Note_on_c, 0, 75, 0
1, 163620, Note_on_c, 0, 77, 73
1, 163688, Note_on_c, 0, 77, 0
1, 163688, Note_on_c, 0, 79, 76
1, 163688, Note_on_c, 0, 58, 0
1, 163691, Note_on_c, 0, 62, 63
1, 163756, Note_on_c, 0, 79, 0
1, 163756, Note_on_c, 0, 81, 78
1, 163824, Note_on_c, 0, 81, 0
1, 163824, Note_on_c, 0, 82, 79
1, 163824, Note_on_c, 0, 62, 0
1, 163827, Note_on_c, 0, 53, 68
1, 163827, Control_c, 0, 64, 0
1, 163851, Control_c, 0, 64, 127
1, 163891, Note_on_c, 0, 82, 0
1, 163891, Note_on_c, 0, 81, 78
1, 163958, Note_on_c, 0, 81, 0
1, 163958, Note_on_c, 0, 79, 77
1, 163958, Note_on_c, 0, 53, 0
1, 163961, Note_on_c, 0, 62, 63
1, 164026, Note_on_c, 0, 79, 0
1, 164026, Note_on_c, 0, 77, 76
1, 164071, Control_c, 0, 64, 0
1, 164095, Note_on_c, 0, 77, 0
1, 164095, Note_on_c, 0, 75, 75
1, 164095, Note_on_c, 0, 62, 0
1, 164098, Control_c, 0, 64, 127
1, 164098, Note_on_c, 0, 58, 65
1, 164163, Note_on_c, 0, 75, 0
1, 164163, Note_on_c, 0, 74, 74
1, 164232, Note_on_c, 0, 74, 0
1, 164232, Note_on_c, 0, 72, 72
1, 164232, Note_on_c, 0, 58, 0
1, 164235, Note_on_c, 0, 62, 56
1, 164302, Note_on_c, 0, 72, 0
1, 164302, Note_on_c, 0, 70, 71
1, 164371, Note_on_c, 0, 70, 0
1, 164371, Note_on_c, 0, 77, 70
1, 164371, Note_on_c, 0, 69, 70
1, 164374, Note_on_c, 0, 72, 70
1, 164374, Note_on_c, 0, 62, 0
1, 164374, Control_c, 0, 64, 0
1, 164377, Note_on_c, 0, 57, 60
1, 164377, Note_on_c, 0, 60, 60
1, 164377, Note_on_c, 0, 53, 60
1, 164512, Note_on_c, 0, 72, 0
1, 164512, Note_on_c, 0, 69, 0
1, 164512, Note_on_c, 0, 77, 0
1, 164653, Note_on_c, 0, 65, 71
1, 164653, Note_on_c, 0, 53, 0
1, 164653, Note_on_c, 0, 60, 0
1, 164656, Note_on_c, 0, 57, 0
1, 164798, Note_on_c, 0, 65, 0
1, 164944, Note_on_c, 0, 72, 76
1, 164944, Note_on_c, 0, 51, 54
1, 165080, Note_on_c, 0, 51, 0
1, 165080, Note_on_c, 0, 53, 50
1, 165216, Note_on_c, 0, 53, 0
1, 165216, Note_on_c, 0, 51, 45
1, 165352, Note_on_c, 0, 72, 0
1, 165352, Note_on_c, 0, 69, 60
1, 165352, Note_on_c, 0, 51, 0
1, 165355, Note_on_c, 0, 53, 41
1, 165420, Note_on_c, 0, 69, 0
1, 165420, Note_on_c, 0, 65, 60
1, 165488, Note_on_c, 0, 65, 0
1, 165488, Note_on_c, 0, 70, 67
1, 165488, Note_on_c, 0, 53, 0
1, 165491, Note_on_c, 0, 50, 48
1, 165625, Note_on_c, 0, 50, 0
1, 165625, Note_on_c, 0, 53, 45
1, 165766, Note_on_c, 0, 70, 0
1, 165766, Note_on_c, 0, 71, 70
1, 165766, Note_on_c, 0, 53, 0
1, 165769, Note_on_c, 0, 50, 51
1, 165904, Note_on_c, 0, 50, 0
1, 165904, Note_on_c, 0, 53, 47
1, 166041, Note_on_c, 0, 71, 0
1, 166041, Note_on_c, 0, 72, 74
1, 166041, Note_on_c, 0, 53, 0
1, 166044, Note_on_c, 0, 51, 53
1, 166177, Note_on_c, 0, 51, 0
1, 166177, Note_on_c, 0, 53, 50
1, 166313, Note_on_c, 0, 53, 0
1, 166313, Note_on_c, 0, 51, 47
1, 166449, Note_on_c, 0, 72, 0
1, 166449, Note_on_c, 0, 69, 61
1, 166449, Note_on_c, 0, 51, 0
1, 166452, Note_on_c, 0, 53, 43
1, 166518, Note_on_c, 0, 69, 0
1, 166518, Note_on_c, 0, 65, 61
1, 166586, Note_on_c, 0, 65, 0
1, 166586, Note_on_c, 0, 70, 65
1, 166586, Note_on_c, 0, 53, 0
1, 166589, Note_on_c, 0, 50, 46
1, 166722, Note_on_c, 0, 50, 0
1, 166722, Note_on_c, 0, 53, 38
1, 166858, Note_on_c, 0, 70, 0
1, 166858, Note_on_c, 0, 53, 0
1, 166858, Note_on_c, 0, 50, 44
1, 166994, Note_on_c, 0, 50, 0
1, 166994, Note_on_c, 0, 53, 42
1, 167135, Note_on_c, 0, 72, 75
1, 167135, Note_on_c, 0, 53, 0
1, 167135, Note_on_c, 0, 51, 56
1, 167203, Note_on_c, 0, 72, 0
1, 167271, Note_on_c, 0, 72, 75
1, 167271, Note_on_c, 0, 51, 0
1, 167271, Note_on_c, 0, 53, 55
1, 167408, Note_on_c, 0, 53, 0
1, 167408, Note_on_c, 0, 51, 49
1, 167544, Note_on_c, 0, 72, 0
1, 167544, Note_on_c, 0, 69, 61
1, 167544, Note_on_c, 0, 51, 0
1, 167547, Note_on_c, 0, 53, 46
1, 167612, Note_on_c, 0, 69, 0
1, 167612, Note_on_c, 0, 65, 61
1, 167681, Note_on_c, 0, 65, 0
1, 167681, Note_on_c, 0, 70, 64
1, 167681, Note_on_c, 0, 53, 0
1, 167684, Note_on_c, 0, 50, 48
1, 167750, Note_on_c, 0, 70, 0
1, 167819, Note_on_c, 0, 70, 68
1, 167819, Note_on_c, 0, 50, 0
1, 167819, Note_on_c, 0, 53, 45
1, 167887, Note_on_c, 0, 70, 0
1, 167956, Note_on_c, 0, 71, 71
1, 167956, Note_on_c, 0, 53, 0
1, 167956, Note_on_c, 0, 50, 50
1, 168025, Note_on_c, 0, 71, 0
1, 168093, Note_on_c, 0, 71, 71
1, 168093, Note_on_c, 0, 50, 0
1, 168093, Note_on_c, 0, 53, 47
1, 168161, Note_on_c, 0, 71, 0
1, 168229, Note_on_c, 0, 72, 77
1, 168229, Note_on_c, 0, 53, 0
1, 168229, Note_on_c, 0, 51, 53
1, 168297, Note_on_c, 0, 72, 0
1, 168365, Note_on_c, 0, 72, 77
1, 168365, Note_on_c, 0, 51, 0
1, 168365, Note_on_c, 0, 53, 50
1, 168501, Note_on_c, 0, 53, 0
1, 168501, Note_on_c, 0, 51, 48
1, 168637, Note_on_c, 0, 72, 0
1, 168637, Note_on_c, 0, 69, 60
1, 168637, Note_on_c, 0, 51, 0
1, 168640, Note_on_c, 0, 53, 45
1, 168705, Note_on_c, 0, 69, 0
1, 168705, Note_on_c, 0, 65, 62
1, 168772, Note_on_c, 0, 65, 0
1, 168772, Note_on_c, 0, 70, 66
1, 168772, Note_on_c, 0, 53, 0
1, 168775, Note_on_c, 0, 50, 53
1, 168909, Note_on_c, 0, 50, 0
1, 168909, Note_on_c, 0, 65, 49
1, 169045, Note_on_c, 0, 70, 0
1, 169045, Note_on_c, 0, 65, 0
1, 169045, Note_on_c, 0, 62, 53
1, 169181, Note_on_c, 0, 62, 0
1, 169181, Note_on_c, 0, 65, 49
1, 169317, Note_on_c, 0, 83, 65
1, 169317, Note_on_c, 0, 65, 0
1, 169317, Note_on_c, 0, 63, 54
1, 169352, Control_c, 0, 64, 127
1, 169385, Note_on_c, 0, 83, 0
1, 169385, Note_on_c, 0, 84, 68
1, 169452, Note_on_c, 0, 84, 0
1, 169452, Note_on_c, 0, 86, 70
1, 169452, Note_on_c, 0, 63, 0
1, 169455, Note_on_c, 0, 65, 48
1, 169520, Note_on_c, 0, 86, 0
1, 169520, Note_on_c, 0, 84, 73
1, 169588, Note_on_c, 0, 84, 0
1, 169588, Note_on_c, 0, 82, 76
1, 169588, Note_on_c, 0, 65, 0
1, 169591, Note_on_c, 0, 63, 57
1, 169607, Control_c, 0, 64, 0
1, 169633, Control_c, 0, 64, 127
1, 169656, Note_on_c, 0, 82, 0
1, 169656, Note_on_c, 0, 81, 77
1, 169724, Note_on_c, 0, 81, 0
1, 169724, Note_on_c, 0, 79, 80
1, 169724, Note_on_c, 0, 63, 0
1, 169727, Note_on_c, 0, 65, 52
1, 169793, Note_on_c, 0, 79, 0
1, 169793, Note_on_c, 0, 77, 79
1, 169861, Note_on_c, 0, 77, 0
1, 169861, Note_on_c, 0, 82, 85
1, 169861, Note_on_c, 0, 65, 0
1, 169864, Note_on_c, 0, 62, 64
1, 169864, Control_c, 0, 64, 0
1, 169898, Control_c, 0, 64, 127
1, 169930, Note_on_c, 0, 82, 0
1, 169930, Note_on_c, 0, 77, 75
1, 169999, Note_on_c, 0, 77, 0
1, 169999, Note_on_c, 0, 86, 85
1, 170068, Note_on_c, 0, 86, 0
1, 170068, Note_on_c, 0, 82, 79
1, 170132, Control_c, 0, 64, 0
1, 170136, Note_on_c, 0, 82, 0
1, 170136, Note_on_c, 0, 89, 85
1, 170136, Note_on_c, 0, 62, 0
1, 170164, Control_c, 0, 64, 127
1, 170205, Note_on_c, 0, 89, 0
1, 170205, Note_on_c, 0, 86, 78
1, 170273, Note_on_c, 0, 86, 0
1, 170273, Note_on_c, 0, 89, 85
1, 170341, Note_on_c, 0, 89, 0
1, 170341, Note_on_c, 0, 86, 77
1, 170349, Control_c, 0, 64, 0
1, 170409, Note_on_c, 0, 86, 0
1, 170409, Note_on_c, 0, 89, 83
1, 170476, Note_on_c, 0, 89, 0
1, 170476, Note_on_c, 0, 87, 83
1, 170544, Note_on_c, 0, 87, 0
1, 170544, Note_on_c, 0, 86, 82
1, 170612, Note_on_c, 0, 86, 0
1, 170612, Note_on_c, 0, 84, 81
1, 170680, Note_on_c, 0, 84, 0
1, 170680, Note_on_c, 0, 82, 81
1, 170680, Note_on_c, 0, 58, 75
1, 170683, Note_on_c, 0, 50, 75
1, 170748, Note_on_c, 0, 82, 0
1, 170748, Note_on_c, 0, 81, 80
1, 170816, Note_on_c, 0, 81, 0
1, 170816, Note_on_c, 0, 79, 79
1, 170885, Note_on_c, 0, 79, 0
1, 170885, Note_on_c, 0, 77, 79
1, 170953, Note_on_c, 0, 77, 0
1, 170953, Note_on_c, 0, 79, 87
1, 170953, Note_on_c, 0, 50, 0
1, 170956, Note_on_c, 0, 58, 0
1, 170956, Note_on_c, 0, 51, 85
1, 170956, Note_on_c, 0, 58, 85
1, 170985, Control_c, 0, 64, 127
1, 171022, Note_on_c, 0, 79, 0
1, 171022, Note_on_c, 0, 75, 78
1, 171090, Note_on_c, 0, 75, 0
1, 171090, Note_on_c, 0, 82, 86
1, 171158, Note_on_c, 0, 82, 0
1, 171158, Note_on_c, 0, 79, 76
1, 171225, Note_on_c, 0, 79, 0
1, 171225, Note_on_c, 0, 82, 86
1, 171225, Note_on_c, 0, 58, 0
1, 171228, Note_on_c, 0, 51, 0
1, 171228, Control_c, 0, 64, 0
1, 171261, Control_c, 0, 64, 127
1, 171293, Note_on_c, 0, 82, 0
1, 171293, Note_on_c, 0, 81, 77
1, 171361, Note_on_c, 0, 81, 0
1, 171361, Note_on_c, 0, 82, 83
1, 171428, Note_on_c, 0, 82, 0
1, 171428, Note_on_c, 0, 81, 77
1, 171472, Control_c, 0, 64, 0
1, 171496, Note_on_c, 0, 81, 0
1, 171496, Note_on_c, 0, 82, 79
1, 171563, Note_on_c, 0, 82, 0
1, 171563, Note_on_c, 0, 81, 73
1, 171631, Note_on_c, 0, 81, 0
1, 171631, Note_on_c, 0, 79, 76
1, 171699, Note_on_c, 0, 79, 0
1, 171699, Note_on_c, 0, 77, 68
1, 171767, Note_on_c, 0, 77, 0
1, 171767, Note_on_c, 0, 75, 72
1, 171767, Note_on_c, 0, 58, 57
1, 171770, Note_on_c, 0, 60, 57
1, 171770, Note_on_c, 0, 51, 57
1, 171835, Note_on_c, 0, 75, 0
1, 171835, Note_on_c, 0, 74, 67
1, 171903, Note_on_c, 0, 74, 0
1, 171903, Note_on_c, 0, 72, 68
1, 171972, Note_on_c, 0, 72, 0
1, 171972, Note_on_c, 0, 70, 63
1, 172041, Note_on_c, 0, 70, 0
1, 172041, Note_on_c, 0, 65, 67
1, 172041, Note_on_c, 0, 51, 0
1, 172044, Note_on_c, 0, 60, 0
1, 172044, Note_on_c, 0, 58, 0
1, 172044, Note_on_c, 0, 53, 61
1, 172075, Note_on_c, 0, 65, 0
1, 172109, Note_on_c, 0, 77, 67
1, 172177, Note_on_c, 0, 77, 0
1, 172177, Note_on_c, 0, 79, 69
1, 172177, Note_on_c, 0, 53, 0
1, 172180, Note_on_c, 0, 62, 57
1, 172245, Note_on_c, 0, 79, 0
1, 172245, Note_on_c, 0, 77, 67
1, 172313, Note_on_c, 0, 77, 0
1, 172313, Note_on_c, 0, 75, 67
1, 172313, Note_on_c, 0, 62, 0
1, 172316, Note_on_c, 0, 58, 62
1, 172381, Note_on_c, 0, 75, 0
1, 172381, Note_on_c, 0, 74, 64
1, 172449, Note_on_c, 0, 74, 0
1, 172449, Note_on_c, 0, 72, 67
1, 172449, Note_on_c, 0, 58, 0
1, 172452, Note_on_c, 0, 62, 57
1, 172517, Note_on_c, 0, 72, 0
1, 172517, Note_on_c, 0, 70, 64
1, 172585, Note_on_c, 0, 70, 0
1, 172585, Note_on_c, 0, 74, 67
1, 172585, Note_on_c, 0, 62, 0
1, 172588, Note_on_c, 0, 53, 61
1, 172595, Control_c, 0, 64, 127
1, 172636, Note_on_c, 0, 74, 0
1, 172636, Note_on_c, 0, 72, 62
1, 172687, Note_on_c, 0, 72, 0
1, 172687, Note_on_c, 0, 74, 67
1, 172721, Note_on_c, 0, 53, 0
1, 172721, Note_on_c, 0, 63, 55
1, 172738, Note_on_c, 0, 74, 0
1, 172738, Note_on_c, 0, 72, 67
1, 172789, Note_on_c, 0, 72, 0
1, 172789, Note_on_c, 0, 74, 67
1, 172840, Note_on_c, 0, 74, 0
1, 172840, Note_on_c, 0, 72, 61
1, 172857, Note_on_c, 0, 63, 0
1, 172857, Note_on_c, 0, 57, 61
1, 172868, Control_c, 0, 64, 0
1, 172887, Control_c, 0, 64, 127
1, 172891, Note_on_c, 0, 72, 0
1, 172891, Note_on_c, 0, 74, 67
1, 172942, Note_on_c, 0, 74, 0
1, 172942, Note_on_c, 0, 72, 63
1, 172994, Note_on_c, 0, 72, 0
1, 172994, Note_on_c, 0, 70, 69
1, 172994, Note_on_c, 0, 57, 0
1, 172997, Note_on_c, 0, 63, 55
1, 173062, Note_on_c, 0, 70, 0
1, 173062, Note_on_c, 0, 72, 70
1, 173096, Control_c, 0, 64, 0
1, 173130, Note_on_c, 0, 72, 0
1, 173130, Note_on_c, 0, 74, 72
1, 173130, Note_on_c, 0, 63, 0
1, 173133, Note_on_c, 0, 58, 61
1, 173198, Note_on_c, 0, 74, 0
1, 173198, Note_on_c, 0, 75, 74
1, 173266, Note_on_c, 0, 75, 0
1, 173266, Note_on_c, 0, 77, 74
1, 173334, Note_on_c, 0, 77, 0
1, 173334, Note_on_c, 0, 75, 72
1, 173402, Note_on_c, 0, 75, 0
1, 173402, Note_on_c, 0, 74, 71
1, 173402, Note_on_c, 0, 58, 0
1, 173469, Note_on_c, 0, 74, 0
1, 173469, Note_on_c, 0, 72, 70
1, 173537, Note_on_c, 0, 72, 0
1, 173537, Note_on_c, 0, 70, 68
1, 173537, Note_on_c, 0, 60, 69
1, 173606, Note_on_c, 0, 70, 0
1, 173606, Note_on_c, 0, 69, 67
1, 173674, Note_on_c, 0, 69, 0
1, 173674, Note_on_c, 0, 70, 69
1, 173674, Note_on_c, 0, 60, 0
1, 173677, Note_on_c, 0, 62, 74
1, 173742, Note_on_c, 0, 70, 0
1, 173742, Note_on_c, 0, 72, 71
1, 173810, Note_on_c, 0, 72, 0
1, 173810, Note_on_c, 0, 74, 72
1, 173878, Note_on_c, 0, 74, 0
1, 173878, Note_on_c, 0, 72, 70
1, 173945, Note_on_c, 0, 72, 0
1, 173945, Note_on_c, 0, 70, 69
1, 173945, Note_on_c, 0, 62, 0
1, 174013, Note_on_c, 0, 70, 0
1, 174013, Note_on_c, 0, 68, 69
1, 174081, Note_on_c, 0, 68, 0
1, 174081, Note_on_c, 0, 67, 68
1, 174081, Note_on_c, 0, 38, 64
1, 174084, Note_on_c, 0, 50, 64
1, 174149, Note_on_c, 0, 67, 0
1, 174149, Note_on_c, 0, 66, 67
1, 174217, Note_on_c, 0, 66, 0
1, 174217, Note_on_c, 0, 67, 67
1, 174217, Note_on_c, 0, 50, 0
1, 174220, Note_on_c, 0, 38, 0
1, 174220, Note_on_c, 0, 39, 69
1, 174220, Note_on_c, 0, 51, 69
1, 174285, Note_on_c, 0, 67, 0
1, 174285, Note_on_c, 0, 69, 70
1, 174352, Note_on_c, 0, 69, 0
1, 174352, Note_on_c, 0, 70, 72
1, 174420, Note_on_c, 0, 70, 0
1, 174420, Note_on_c, 0, 69, 71
1, 174487, Note_on_c, 0, 69, 0
1, 174487, Note_on_c, 0, 67, 70
1, 174487, Note_on_c, 0, 51, 0
1, 174490, Note_on_c, 0, 39, 0
1, 174555, Note_on_c, 0, 67, 0
1, 174555, Note_on_c, 0, 65, 69
1, 174623, Note_on_c, 0, 65, 0
1, 174623, Note_on_c, 0, 63, 68
1, 174691, Note_on_c, 0, 63, 0
1, 174691, Note_on_c, 0, 62, 68
1, 174759, Note_on_c, 0, 62, 0
1, 174759, Note_on_c, 0, 60, 67
1, 174828, Note_on_c, 0, 60, 0
1, 174828, Note_on_c, 0, 62, 68
1, 174896, Note_on_c, 0, 62, 0
1, 174896, Note_on_c, 0, 63, 69
1, 174963, Note_on_c, 0, 63, 0
1, 174963, Note_on_c, 0, 62, 68
1, 175031, Note_on_c, 0, 62, 0
1, 175031, Note_on_c, 0, 60, 66
1, 175100, Note_on_c, 0, 60, 0
1, 175100, Note_on_c, 0, 58, 65
1, 175168, Note_on_c, 0, 58, 0
1, 175168, Note_on_c, 0, 57, 63
1, 175237, Note_on_c, 0, 57, 0
1, 175237, Note_on_c, 0, 55, 61
1, 175306, Note_on_c, 0, 55, 0
1, 175306, Note_on_c, 0, 53, 60
1, 175306, Note_on_c, 0, 41, 88
1, 175309, Note_on_c, 0, 29, 88
1, 175443, Note_on_c, 0, 53, 0
1, 175443, Note_on_c, 0, 55, 62
1, 175511, Note_on_c, 0, 55, 0
1, 175511, Note_on_c, 0, 57, 64
1, 175579, Note_on_c, 0, 57, 0
1, 175579, Note_on_c, 0, 58, 66
1, 175647, Note_on_c, 0, 58, 0
1, 175647, Note_on_c, 0, 60, 68
1, 175714, Note_on_c, 0, 60, 0
1, 175714, Note_on_c, 0, 62, 70
1, 175782, Note_on_c, 0, 62, 0
1, 175782, Note_on_c, 0, 63, 69
1, 175850, Note_on_c, 0, 63, 0
1, 175850, Note_on_c, 0, 67, 72
1, 175917, Note_on_c, 0, 67, 0
1, 175917, Note_on_c, 0, 65, 71
1, 175985, Note_on_c, 0, 65, 0
1, 175985, Note_on_c, 0, 63, 70
1, 176053, Note_on_c, 0, 63, 0
1, 176053, Note_on_c, 0, 62, 69
1, 176121, Note_on_c, 0, 62, 0
1, 176121, Note_on_c, 0, 63, 67
1, 176189, Note_on_c, 0, 63, 0
1, 176189, Note_on_c, 0, 65, 67
1, 176257, Note_on_c, 0, 65, 0
1, 176257, Note_on_c, 0, 67, 68
1, 176325, Note_on_c, 0, 67, 0
1, 176325, Note_on_c, 0, 69, 69
1, 176393, Note_on_c, 0, 69, 0
1, 176393, Note_on_c, 0, 70, 71
1, 176393, Note_on_c, 0, 29, 0
1, 176396, Note_on_c, 0, 41, 0
1, 176396, Note_on_c, 0, 41, 70
1, 176396, Note_on_c, 0, 50, 70
1, 176399, Note_on_c, 0, 46, 70
1, 176460, Note_on_c, 0, 70, 0
1, 176460, Note_on_c, 0, 69, 71
1, 176528, Note_on_c, 0, 69, 0
1, 176528, Note_on_c, 0, 67, 70
1, 176595, Note_on_c, 0, 67, 0
1, 176595, Note_on_c, 0, 65, 69
1, 176663, Note_on_c, 0, 65, 0
1, 176663, Note_on_c, 0, 67, 68
1, 176663, Note_on_c, 0, 46, 0
1, 176666, Note_on_c, 0, 50, 0
1, 176666, Note_on_c, 0, 41, 0
1, 176731, Note_on_c, 0, 67, 0
1, 176731, Note_on_c, 0, 69, 69
1, 176799, Note_on_c, 0, 69, 0
1, 176799, Note_on_c, 0, 70, 70
1, 176866, Note_on_c, 0, 70, 0
1, 176866, Note_on_c, 0, 72, 71
1, 176934, Note_on_c, 0, 72, 0
1, 176934, Note_on_c, 0, 74, 73
1, 176934, Note_on_c, 0, 46, 71
1, 176937, Note_on_c, 0, 50, 71
1, 176937, Note_on_c, 0, 41, 71
1, 177001, Note_on_c, 0, 74, 0
1, 177001, Note_on_c, 0, 72, 73
1, 177068, Note_on_c, 0, 72, 0
1, 177068, Note_on_c, 0, 70, 72
1, 177136, Note_on_c, 0, 70, 0
1, 177136, Note_on_c, 0, 69, 71
1, 177204, Note_on_c, 0, 69, 0
1, 177204, Note_on_c, 0, 70, 70
1, 177204, Note_on_c, 0, 41, 0
1, 177207, Note_on_c, 0, 50, 0
1, 177207, Note_on_c, 0, 46, 0
1, 177272, Note_on_c, 0, 70, 0
1, 177272, Note_on_c, 0, 72, 71
1, 177340, Note_on_c, 0, 72, 0
1, 177340, Note_on_c, 0, 74, 73
1, 177408, Note_on_c, 0, 74, 0
1, 177408, Note_on_c, 0, 75, 75
1, 177475, Note_on_c, 0, 75, 0
1, 177475, Note_on_c, 0, 77, 76
1, 177475, Note_on_c, 0, 58, 81
1, 177478, Note_on_c, 0, 53, 81
1, 177478, Note_on_c, 0, 62, 81
1, 177487, Control_c, 0, 64, 127
1, 177543, Note_on_c, 0, 77, 0
1, 177543, Note_on_c, 0, 74, 71
1, 177610, Note_on_c, 0, 74, 0
1, 177610, Note_on_c, 0, 77, 76
1, 177678, Note_on_c, 0, 77, 0
1, 177678, Note_on_c, 0, 74, 70
1, 177745, Note_on_c, 0, 74, 0
1, 177745, Note_on_c, 0, 82, 82
1, 177745, Note_on_c, 0, 62, 0
1, 177748, Note_on_c, 0, 53, 0
1, 177748, Note_on_c, 0, 58, 0
1, 177748, Control_c, 0, 64, 0
1, 177765, Control_c, 0, 64, 127
1, 177813, Note_on_c, 0, 82, 0
1, 177813, Note_on_c, 0, 77, 76
1, 177880, Note_on_c, 0, 77, 0
1, 177880, Note_on_c, 0, 82, 82
1, 177947, Note_on_c, 0, 82, 0
1, 177947, Note_on_c, 0, 77, 76
1, 178015, Note_on_c, 0, 77, 0
1, 178015, Note_on_c, 0, 86, 88
1, 178082, Note_on_c, 0, 86, 0
1, 178082, Note_on_c, 0, 82, 83
1, 178149, Note_on_c, 0, 82, 0
1, 178149, Note_on_c, 0, 86, 88
1, 178216, Note_on_c, 0, 86, 0
1, 178216, Note_on_c, 0, 82, 83
1, 178283, Note_on_c, 0, 82, 0
1, 178283, Note_on_c, 0, 89, 95
1, 178350, Note_on_c, 0, 89, 0
1, 178350, Note_on_c, 0, 86, 88
1, 178418, Note_on_c, 0, 86, 0
1, 178418, Note_on_c, 0, 89, 95
1, 178485, Note_on_c, 0, 89, 0
1, 178485, Note_on_c, 0, 86, 85
1, 178552, Note_on_c, 0, 86, 0
1, 178552, Note_on_c, 0, 82, 93
1, 178552, Control_c, 0, 64, 0
1, 178575, Control_c, 0, 64, 127
1, 178618, Note_on_c, 0, 82, 0
1, 178618, Note_on_c, 0, 86, 89
1, 178685, Note_on_c, 0, 86, 0
1, 178685, Note_on_c, 0, 82, 93
1, 178752, Note_on_c, 0, 82, 0
1, 178752, Note_on_c, 0, 86, 87
1, 178819, Note_on_c, 0, 86, 0
1, 178819, Note_on_c, 0, 77, 89
1, 178886, Note_on_c, 0, 77, 0
1, 178886, Note_on_c, 0, 82, 84
1, 178953, Note_on_c, 0, 82, 0
1, 178953, Note_on_c, 0, 77, 90
1, 179020, Note_on_c, 0, 77, 0
1, 179020, Note_on_c, 0, 82, 84
1, 179088, Note_on_c, 0, 82, 0
1, 179088, Note_on_c, 0, 74, 87
1, 179155, Note_on_c, 0, 74, 0
1, 179155, Note_on_c, 0, 77, 80
1, 179222, Note_on_c, 0, 77, 0
1, 179222, Note_on_c, 0, 74, 87
1, 179290, Note_on_c, 0, 74, 0
1, 179290, Note_on_c, 0, 77, 80
1, 179357, Note_on_c, 0, 77, 0
1, 179357, Note_on_c, 0, 70, 81
1, 179425, Note_on_c, 0, 70, 0
1, 179425, Note_on_c, 0, 74, 73
1, 179492, Note_on_c, 0, 74, 0
1, 179492, Note_on_c, 0, 70, 81
1, 179560, Note_on_c, 0, 70, 0
1, 179560, Note_on_c, 0, 74, 73
1, 179628, Note_on_c, 0, 74, 0
1, 179628, Note_on_c, 0, 65, 83
1, 179628, Control_c, 0, 64, 0
1, 179631, Note_on_c, 0, 53, 57
1, 179767, Note_on_c, 0, 65, 0
1, 179767, Note_on_c, 0, 53, 0
1, 179767, Note_on_c, 0, 62, 54
1, 179906, Note_on_c, 0, 77, 91
1, 179906, Note_on_c, 0, 62, 0
1, 179906, Note_on_c, 0, 58, 57
1, 180042, Note_on_c, 0, 58, 0
1, 180042, Note_on_c, 0, 62, 53
1, 180177, Note_on_c, 0, 62, 0
1, 180177, Note_on_c, 0, 53, 57
1, 180313, Note_on_c, 0, 77, 0
1, 180313, Note_on_c, 0, 79, 77
1, 180313, Note_on_c, 0, 53, 0
1, 180316, Note_on_c, 0, 62, 52
1, 180381, Note_on_c, 0, 79, 0
1, 180381, Note_on_c, 0, 77, 76
1, 180449, Note_on_c, 0, 77, 0
1, 180449, Note_on_c, 0, 75, 76
1, 180449, Note_on_c, 0, 62, 0
1, 180452, Note_on_c, 0, 58, 57
1, 180517, Note_on_c, 0, 75, 0
1, 180517, Note_on_c, 0, 74, 75
1, 180585, Note_on_c, 0, 74, 0
1, 180585, Note_on_c, 0, 72, 74
1, 180585, Note_on_c, 0, 58, 0
1, 180588, Note_on_c, 0, 62, 53
1, 180652, Note_on_c, 0, 72, 0
1, 180652, Note_on_c, 0, 70, 73
1, 180720, Note_on_c, 0, 70, 0
1, 180720, Note_on_c, 0, 70, 53
1, 180720, Note_on_c, 0, 62, 0
1, 180723, Control_c, 0, 64, 127
1, 180723, Note_on_c, 0, 53, 66
1, 180766, Note_on_c, 0, 70, 0
1, 180766, Note_on_c, 0, 72, 48
1, 180812, Note_on_c, 0, 72, 0
1, 180812, Note_on_c, 0, 74, 49
1, 180858, Note_on_c, 0, 74, 0
1, 180858, Note_on_c, 0, 72, 53
1, 180858, Note_on_c, 0, 53, 0
1, 180861, Note_on_c, 0, 63, 59
1, 180903, Note_on_c, 0, 72, 0
1, 180903, Note_on_c, 0, 74, 51
1, 180949, Note_on_c, 0, 74, 0
1, 180949, Note_on_c, 0, 72, 55
1, 180994, Note_on_c, 0, 72, 0
1, 180994, Note_on_c, 0, 74, 52
1, 180994, Note_on_c, 0, 63, 0
1, 180997, Note_on_c, 0, 60, 65
1, 181040, Note_on_c, 0, 74, 0
1, 181040, Note_on_c, 0, 72, 56
1, 181085, Note_on_c, 0, 72, 0
1, 181085, Note_on_c, 0, 74, 52
1, 181130, Note_on_c, 0, 74, 0
1, 181130, Note_on_c, 0, 72, 56
1, 181130, Note_on_c, 0, 60, 0
1, 181133, Note_on_c, 0, 63, 61
1, 181175, Note_on_c, 0, 72, 0
1, 181175, Note_on_c, 0, 74, 54
1, 181221, Note_on_c, 0, 74, 0
1, 181221, Note_on_c, 0, 72, 58
1, 181266, Note_on_c, 0, 72, 0
1, 181266, Note_on_c, 0, 74, 55
1, 181266, Note_on_c, 0, 63, 0
1, 181269, Note_on_c, 0, 53, 65
1, 181311, Note_on_c, 0, 74, 0
1, 181311, Note_on_c, 0, 72, 59
1, 181356, Note_on_c, 0, 72, 0
1, 181356, Note_on_c, 0, 74, 54
1, 181401, Note_on_c, 0, 74, 0
1, 181401, Note_on_c, 0, 72, 60
1, 181401, Note_on_c, 0, 53, 0
1, 181404, Note_on_c, 0, 63, 61
1, 181447, Note_on_c, 0, 72, 0
1, 181447, Note_on_c, 0, 74, 56
1, 181492, Note_on_c, 0, 74, 0
1, 181492, Note_on_c, 0, 72, 57
1, 181538, Note_on_c, 0, 72, 0
1, 181538, Note_on_c, 0, 74, 65
1, 181538, Note_on_c, 0, 63, 0
1, 181541, Note_on_c, 0, 60, 65
1, 181607, Note_on_c, 0, 74, 0
1, 181607, Note_on_c, 0, 72, 61
1, 181676, Note_on_c, 0, 72, 0
1, 181676, Note_on_c, 0, 70, 67
1, 181676, Note_on_c, 0, 60, 0
1, 181679, Note_on_c, 0, 63, 61
1, 181745, Note_on_c, 0, 70, 0
1, 181745, Note_on_c, 0, 72, 64
1, 181815, Note_on_c, 0, 72, 0
1, 181815, Note_on_c, 0, 70, 70
1, 181815, Note_on_c, 0, 63, 0
1, 181818, Control_c, 0, 64, 0
1, 181818, Note_on_c, 0, 58, 52
1, 181818, Note_on_c, 0, 62, 52
1, 181910, Control_c, 0, 64, 127
1, 181950, Note_on_c, 0, 70, 0
1, 181950, Note_on_c, 0, 70, 59
1, 182086, Note_on_c, 0, 70, 0
1, 182086, Note_on_c, 0, 62, 0
1, 182086, Note_on_c, 0, 58, 0
1, 182089, Note_on_c, 0, 62, 52
1, 182089, Note_on_c, 0, 58, 52
1, 182142, Control_c, 0, 64, 0
1, 182214, Control_c, 0, 64, 127
1, 182222, Note_on_c, 0, 70, 56
1, 182358, Note_on_c, 0, 70, 0
1, 182358, Note_on_c, 0, 70, 57
1, 182358, Note_on_c, 0, 58, 0
1, 182361, Note_on_c, 0, 62, 0
1, 182493, Note_on_c, 0, 70, 0
1, 182493, Note_on_c, 0, 70, 57
1, 182541, Control_c, 0, 64, 0
1, 182605, Control_c, 0, 64, 127
1, 182629, Note_on_c, 0, 70, 0
1, 182629, Note_on_c, 0, 62, 56
1, 182629, Note_on_c, 0, 58, 56
1, 182765, Note_on_c, 0, 70, 56
1, 182901, Note_on_c, 0, 70, 0
1, 182901, Note_on_c, 0, 72, 60
1, 182901, Note_on_c, 0, 58, 0
1, 182904, Note_on_c, 0, 62, 0
1, 182904, Control_c, 0, 64, 0
1, 182904, Note_on_c, 0, 58, 58
1, 182907, Note_on_c, 0, 69, 58
1, 182920, Control_c, 0, 64, 127
1, 183036, Note_on_c, 0, 72, 0
1, 183036, Note_on_c, 0, 72, 57
1, 183104, Note_on_c, 0, 72, 0
1, 183172, Note_on_c, 0, 69, 0
1, 183172, Note_on_c, 0, 58, 0
1, 183172, Note_on_c, 0, 58, 54
1, 183175, Note_on_c, 0, 69, 54
1, 183256, Control_c, 0, 64, 0
1, 183308, Note_on_c, 0, 72, 57
1, 183320, Control_c, 0, 64, 127
1, 183443, Note_on_c, 0, 72, 0
1, 183443, Note_on_c, 0, 72, 60
1, 183443, Note_on_c, 0, 69, 0
1, 183446, Note_on_c, 0, 58, 0
1, 183579, Note_on_c, 0, 72, 0
1, 183579, Note_on_c, 0, 72, 57
1, 183655, Control_c, 0, 64, 0
1, 183715, Note_on_c, 0, 72, 0
1, 183715, Note_on_c, 0, 58, 61
1, 183715, Note_on_c, 0, 69, 61
1, 183763, Control_c, 0, 64, 127
1, 183851, Note_on_c, 0, 72, 61
1, 183986, Note_on_c, 0, 72, 0
1, 183986, Note_on_c, 0, 74, 65
1, 183986, Note_on_c, 0, 69, 0
1, 183989, Note_on_c, 0, 58, 0
1, 183989, Note_on_c, 0, 58, 67
1, 183989, Note_on_c, 0, 68, 67
1, 183992, Control_c, 0, 64, 0
1, 184018, Control_c, 0, 64, 127
1, 184122, Note_on_c, 0, 74, 0
1, 184122, Note_on_c, 0, 74, 61
1, 184190, Note_on_c, 0, 74, 0
1, 184258, Note_on_c, 0, 68, 0
1, 184258, Note_on_c, 0, 58, 0
1, 184258, Note_on_c, 0, 68, 62
1, 184261, Note_on_c, 0, 58, 62
1, 184394, Note_on_c, 0, 74, 70
1, 184525, Control_c, 0, 64, 0
1, 184529, Note_on_c, 0, 74, 0
1, 184529, Note_on_c, 0, 75, 72
1, 184529, Note_on_c, 0, 58, 0
1, 184532, Note_on_c, 0, 68, 0
1, 184532, Note_on_c, 0, 67, 71
1, 184532, Note_on_c, 0, 58, 71
1, 184570, Control_c, 0, 64, 127
1, 184665, Note_on_c, 0, 75, 0
1, 184665, Note_on_c, 0, 75, 70
1, 184733, Note_on_c, 0, 75, 0
1, 184801, Note_on_c, 0, 58, 0
1, 184801, Note_on_c, 0, 67, 0
1, 184801, Note_on_c, 0, 67, 68
1, 184804, Note_on_c, 0, 58, 68
1, 184845, Control_c, 0, 64, 0
1, 184937, Note_on_c, 0, 76, 77
1, 185072, Note_on_c, 0, 76, 0
1, 185072, Note_on_c, 0, 77, 81
1, 185072, Note_on_c, 0, 58, 0
1, 185075, Note_on_c, 0, 67, 0
1, 185075, Note_on_c, 0, 62, 82
1, 185075, Note_on_c, 0, 58, 82
1, 185096, Control_c, 0, 64, 127
1, 185208, Note_on_c, 0, 77, 0
1, 185208, Note_on_c, 0, 77, 78
1, 185276, Note_on_c, 0, 77, 0
1, 185344, Note_on_c, 0, 58, 0
1, 185344, Note_on_c, 0, 62, 0
1, 185344, Note_on_c, 0, 58, 76
1, 185347, Note_on_c, 0, 62, 76
1, 185435, Control_c, 0, 64, 0
1, 185479, Note_on_c, 0, 78, 85
1, 185615, Note_on_c, 0, 78, 0
1, 185615, Note_on_c, 0, 79, 92
1, 185615, Note_on_c, 0, 62, 0
1, 185618, Note_on_c, 0, 58, 0
1, 185618, Note_on_c, 0, 58, 85
1, 185618, Note_on_c, 0, 63, 85
1, 185643, Control_c, 0, 64, 127
1, 185751, Note_on_c, 0, 79, 0
1, 185751, Note_on_c, 0, 79, 92
1, 185820, Note_on_c, 0, 79, 0
1, 185889, Note_on_c, 0, 81, 96
1, 185889, Note_on_c, 0, 63, 0
1, 185889, Note_on_c, 0, 58, 0
1, 185892, Note_on_c, 0, 58, 91
1, 185892, Note_on_c, 0, 60, 91
1, 185901, Control_c, 0, 64, 0
1, 185958, Note_on_c, 0, 81, 0
1, 186028, Note_on_c, 0, 81, 96
1, 186098, Note_on_c, 0, 81, 0
1, 186168, Note_on_c, 0, 74, 109
1, 186168, Note_on_c, 0, 60, 0
1, 186168, Note_on_c, 0, 58, 0
1, 186171, Control_c, 0, 64, 127
1, 186171, Note_on_c, 0, 58, 90
1, 186171, Note_on_c, 0, 46, 76
1, 186236, Note_on_c, 0, 74, 0
1, 186236, Note_on_c, 0, 82, 93
1, 186236, Note_on_c, 0, 46, 0
1, 186239, Note_on_c, 0, 58, 0
1, 186303, Note_on_c, 0, 82, 0
1, 186303, Note_on_c, 0, 86, 105
1, 186303, Note_on_c, 0, 58, 87
1, 186306, Note_on_c, 0, 46, 73
1, 186371, Note_on_c, 0, 86, 0
1, 186371, Note_on_c, 0, 82, 96
1, 186371, Note_on_c, 0, 46, 0
1, 186374, Note_on_c, 0, 58, 0
1, 186439, Note_on_c, 0, 82, 0
1, 186439, Note_on_c, 0, 86, 105
1, 186470, Control_c, 0, 64, 0
1, 186498, Control_c, 0, 64, 127
1, 186506, Note_on_c, 0, 86, 0
1, 186506, Note_on_c, 0, 82, 96
1, 186574, Note_on_c, 0, 82, 0
1, 186574, Note_on_c, 0, 86, 103
1, 186574, Note_on_c, 0, 46, 71
1, 186577, Note_on_c, 0, 58, 84
1, 186642, Note_on_c, 0, 86, 0
1, 186642, Note_on_c, 0, 82, 94
1, 186709, Note_on_c, 0, 82, 0
1, 186709, Note_on_c, 0, 74, 110
1, 186709, Note_on_c, 0, 58, 0
1, 186712, Note_on_c, 0, 46, 0
1, 186712, Note_on_c, 0, 62, 90
1, 186712, Note_on_c, 0, 50, 76
1, 186725, Control_c, 0, 64, 0
1, 186757, Control_c, 0, 64, 127
1, 186777, Note_on_c, 0, 74, 0
1, 186777, Note_on_c, 0, 82, 94
1, 186845, Note_on_c, 0, 82, 0
1, 186845, Note_on_c, 0, 86, 103
1, 186845, Note_on_c, 0, 50, 0
1, 186848, Note_on_c, 0, 62, 0
1, 186848, Note_on_c, 0, 50, 74
1, 186848, Note_on_c, 0, 62, 88
1, 186912, Note_on_c, 0, 86, 0
1, 186912, Note_on_c, 0, 82, 100
1, 186912, Note_on_c, 0, 62, 0
1, 186915, Note_on_c, 0, 50, 0
1, 186964, Control_c, 0, 64, 0
1, 186980, Note_on_c, 0, 82, 0
1, 186980, Note_on_c, 0, 86, 105
1, 187012, Control_c, 0, 64, 127
1, 187048, Note_on_c, 0, 86, 0
1, 187048, Note_on_c, 0, 82, 94
1, 187115, Note_on_c, 0, 82, 0
1, 187115, Note_on_c, 0, 86, 100
1, 187115, Note_on_c, 0, 46, 72
1, 187118, Note_on_c, 0, 58, 85
1, 187183, Note_on_c, 0, 86, 0
1, 187183, Note_on_c, 0, 82, 95
1, 187251, Note_on_c, 0, 82, 0
1, 187251, Note_on_c, 0, 74, 109
1, 187251, Note_on_c, 0, 58, 0
1, 187254, Note_on_c, 0, 46, 0
1, 187254, Note_on_c, 0, 43, 76
1, 187254, Note_on_c, 0, 55, 90
1, 187257, Control_c, 0, 64, 0
1, 187295, Control_c, 0, 64, 127
1, 187318, Note_on_c, 0, 74, 0
1, 187318, Note_on_c, 0, 82, 95
1, 187386, Note_on_c, 0, 82, 0
1, 187386, Note_on_c, 0, 86, 100
1, 187386, Note_on_c, 0, 55, 0
1, 187389, Note_on_c, 0, 43, 0
1, 187389, Note_on_c, 0, 43, 74
1, 187389, Note_on_c, 0, 55, 88
1, 187454, Note_on_c, 0, 86, 0
1, 187454, Note_on_c, 0, 82, 93
1, 187454, Note_on_c, 0, 55, 0
1, 187457, Note_on_c, 0, 43, 0
1, 187521, Note_on_c, 0, 82, 0
1, 187521, Note_on_c, 0, 86, 105
1, 187529, Control_c, 0, 64, 0
1, 187569, Control_c, 0, 64, 127
1, 187589, Note_on_c, 0, 86, 0
1, 187589, Note_on_c, 0, 82, 95
1, 187657, Note_on_c, 0, 82, 0
1, 187657, Note_on_c, 0, 86, 100
1, 187657, Note_on_c, 0, 43, 71
1, 187660, Note_on_c, 0, 55, 84
1, 187724, Note_on_c, 0, 86, 0
1, 187724, Note_on_c, 0, 82, 93
1, 187792, Note_on_c, 0, 82, 0
1, 187792, Note_on_c, 0, 74, 109
1, 187792, Note_on_c, 0, 55, 0
1, 187795, Note_on_c, 0, 43, 0
1, 187795, Note_on_c, 0, 58, 90
1, 187795, Note_on_c, 0, 46, 76
1, 187795, Control_c, 0, 64, 0
1, 187832, Control_c, 0, 64, 127
1, 187860, Note_on_c, 0, 74, 0
1, 187860, Note_on_c, 0, 82, 95
1, 187927, Note_on_c, 0, 82, 0
1, 187927, Note_on_c, 0, 86, 101
1, 187927, Note_on_c, 0, 46, 0
1, 187930, Note_on_c, 0, 58, 0
1, 187930, Note_on_c, 0, 58, 87
1, 187930, Note_on_c, 0, 46, 73
1, 187995, Note_on_c, 0, 86, 0
1, 187995, Note_on_c, 0, 82, 94
1, 187995, Note_on_c, 0, 46, 0
1, 187998, Note_on_c, 0, 58, 0
1, 188043, Control_c, 0, 64, 0
1, 188063, Note_on_c, 0, 82, 0
1, 188063, Note_on_c, 0, 86, 105
1, 188082, Control_c, 0, 64, 127
1, 188130, Note_on_c, 0, 86, 0
1, 188130, Note_on_c, 0, 82, 96
1, 188198, Note_on_c, 0, 82, 0
1, 188198, Note_on_c, 0, 86, 100
1, 188198, Note_on_c, 0, 43, 71
1, 188201, Note_on_c, 0, 55, 84
1, 188267, Note_on_c, 0, 86, 0
1, 188267, Note_on_c, 0, 82, 93
1, 188336, Note_on_c, 0, 82, 0
1, 188336, Note_on_c, 0, 74, 109
1, 188336, Note_on_c, 0, 55, 0
1, 188339, Note_on_c, 0, 43, 0
1, 188339, Note_on_c, 0, 38, 76
1, 188339, Note_on_c, 0, 50, 90
1, 188342, Control_c, 0, 64, 0
1, 188377, Control_c, 0, 64, 127
1, 188405, Note_on_c, 0, 74, 0
1, 188405, Note_on_c, 0, 82, 95
1, 188474, Note_on_c, 0, 82, 0
1, 188474, Note_on_c, 0, 86, 100
1, 188474, Note_on_c, 0, 50, 0
1, 188477, Note_on_c, 0, 38, 0
1, 188477, Note_on_c, 0, 50, 89
1, 188477, Note_on_c, 0, 38, 75
1, 188542, Note_on_c, 0, 86, 0
1, 188542, Note_on_c, 0, 82, 95
1, 188542, Note_on_c, 0, 38, 0
1, 188545, Note_on_c, 0, 50, 0
1, 188575, Control_c, 0, 64, 0
1, 188611, Note_on_c, 0, 82, 0
1, 188611, Note_on_c, 0, 86, 104
1, 188615, Control_c, 0, 64, 127
1, 188680, Note_on_c, 0, 86, 0
1, 188680, Note_on_c, 0, 82, 94
1, 188750, Note_on_c, 0, 82, 0
1, 188750, Note_on_c, 0, 86, 101
1, 188750, Note_on_c, 0, 38, 74
1, 188753, Note_on_c, 0, 50, 88
1, 188822, Note_on_c, 0, 86, 0
1, 188822, Note_on_c, 0, 82, 93
1, 188895, Note_on_c, 0, 82, 0
1, 188895, Note_on_c, 0, 74, 109
1, 188895, Note_on_c, 0, 50, 0
1, 188898, Note_on_c, 0, 38, 0
1, 188898, Note_on_c, 0, 51, 91
1, 188898, Note_on_c, 0, 39, 77
1, 188912, Control_c, 0, 64, 0
1, 188969, Note_on_c, 0, 74, 0
1, 188969, Note_on_c, 0, 82, 95
1, 188973, Control_c, 0, 64, 127
1, 189044, Note_on_c, 0, 82, 0
1, 189044, Note_on_c, 0, 86, 100
1, 189044, Note_on_c, 0, 39, 0
1, 189047, Note_on_c, 0, 51, 0
1, 189047, Note_on_c, 0, 39, 77
1, 189047, Note_on_c, 0, 51, 91
1, 189120, Note_on_c, 0, 86, 0
1, 189120, Note_on_c, 0, 82, 95
1, 189197, Note_on_c, 0, 82, 0
1, 189197, Note_on_c, 0, 86, 104
1, 189197, Note_on_c, 0, 51, 0
1, 189200, Note_on_c, 0, 39, 0
1, 189200, Note_on_c, 0, 52, 96
1, 189200, Note_on_c, 0, 40, 81
1, 189215, Control_c, 0, 64, 0
1, 189261, Control_c, 0, 64, 127
1, 189275, Note_on_c, 0, 86, 0
1, 189275, Note_on_c, 0, 82, 95
1, 189354, Note_on_c, 0, 82, 0
1, 189354, Note_on_c, 0, 86, 100
1, 189354, Note_on_c, 0, 40, 0
1, 189357, Note_on_c, 0, 52, 0
1, 189357, Note_on_c, 0, 40, 78
1, 189357, Note_on_c, 0, 52, 92
1, 189434, Note_on_c, 0, 86, 0
1, 189434, Note_on_c, 0, 82, 95
1, 189563, Note_on_c, 0, 82, 0
1, 189563, Note_on_c, 0, 82, 99
1, 189563, Note_on_c, 0, 86, 99
1, 189566, Note_on_c, 0, 74, 99
1, 189566, Note_on_c, 0, 77, 99
1, 189566, Note_on_c, 0, 52, 0
1, 189569, Note_on_c, 0, 40, 0
1, 189569, Control_c, 0, 64, 0
1, 189569, Note_on_c, 0, 41, 79
1, 189572, Note_on_c, 0, 53, 93
1, 189799, Control_c, 0, 64, 127
1, 190596, Note_on_c, 0, 77, 0
1, 190596, Note_on_c, 0, 82, 0
1, 190596, Note_on_c, 0, 86, 0
1, 190599, Note_on_c, 0, 74, 0
1, 190599, Note_on_c, 0, 53, 0
1, 190599, Note_on_c, 0, 41, 0
1, 190642, Control_c, 0, 64, 0
1, 190728, Note_on_c, 0, 65, 57
1, 190793, Note_on_c, 0, 65, 0
1, 190793, Note_on_c, 0, 69, 59
1, 190859, Note_on_c, 0, 69, 0
1, 190859, Note_on_c, 0, 67, 61
1, 190925, Note_on_c, 0, 67, 0
1, 190925, Note_on_c, 0, 70, 62
1, 190991, Note_on_c, 0, 70, 0
1, 190991, Note_on_c, 0, 69, 64
1, 191057, Note_on_c, 0, 69, 0
1, 191057, Note_on_c, 0, 72, 66
1, 191123, Note_on_c, 0, 72, 0
1, 191123, Note_on_c, 0, 70, 68
1, 191197, Note_on_c, 0, 70, 0
1, 191272, Note_on_c, 0, 69, 54
1, 191339, Note_on_c, 0, 69, 0
1, 191339, Note_on_c, 0, 72, 56
1, 191406, Note_on_c, 0, 72, 0
1, 191406, Note_on_c, 0, 70, 58
1, 191473, Note_on_c, 0, 70, 0
1, 191473, Note_on_c, 0, 74, 60
1, 191540, Note_on_c, 0, 74, 0
1, 191540, Note_on_c, 0, 72, 61
1, 191607, Note_on_c, 0, 72, 0
1, 191607, Note_on_c, 0, 75, 63
1, 191674, Note_on_c, 0, 75, 0
1, 191674, Note_on_c, 0, 74, 65
1, 191745, Note_on_c, 0, 74, 0
1, 191815, Note_on_c, 0, 72, 56
1, 191886, Note_on_c, 0, 72, 0
1, 191886, Note_on_c, 0, 75, 58
1, 191957, Note_on_c, 0, 75, 0
1, 191957, Note_on_c, 0, 74, 59
1, 192029, Note_on_c, 0, 74, 0
1, 192029, Note_on_c, 0, 77, 60
1, 192102, Note_on_c, 0, 77, 0
1, 192102, Note_on_c, 0, 75, 62
1, 192176, Note_on_c, 0, 75, 0
1, 192176, Note_on_c, 0, 79, 63
1, 192256, Note_on_c, 0, 79, 0
1, 192256, Control_c, 0, 91, 127
1, 192256, Control_c, 0, 91, 127
1, 192259, Note_on_c, 0, 53, 51
1, 192259, Note_on_c, 0, 77, 69
1, 192392, Note_on_c, 0, 53, 0
1, 192392, Note_on_c, 0, 62, 45
1, 192528, Note_on_c, 0, 62, 0
1, 192528, Note_on_c, 0, 58, 47
1, 192664, Note_on_c, 0, 74, 66
1, 192664, Note_on_c, 0, 58, 0
1, 192664, Note_on_c, 0, 62, 44
1, 192664, Note_on_c, 0, 77, 0
1, 192801, Note_on_c, 0, 74, 0
1, 192801, Note_on_c, 0, 70, 70
1, 192801, Note_on_c, 0, 62, 0
1, 192804, Note_on_c, 0, 53, 50
1, 192937, Note_on_c, 0, 70, 0
1, 192937, Note_on_c, 0, 53, 0
1, 192937, Note_on_c, 0, 62, 44
1, 193073, Note_on_c, 0, 70, 70
1, 193073, Note_on_c, 0, 62, 0
1, 193073, Note_on_c, 0, 58, 47
1, 193212, Note_on_c, 0, 70, 0
1, 193212, Note_on_c, 0, 58, 0
1, 193212, Note_on_c, 0, 62, 44
1, 193350, Note_on_c, 0, 75, 76
1, 193350, Note_on_c, 0, 62, 0
1, 193350, Note_on_c, 0, 53, 51
1, 193486, Note_on_c, 0, 75, 0
1, 193486, Note_on_c, 0, 77, 54
1, 193486, Note_on_c, 0, 53, 0
1, 193489, Note_on_c, 0, 63, 44
1, 193520, Note_on_c, 0, 77, 0
1, 193520, Note_on_c, 0, 75, 54
1, 193554, Note_on_c, 0, 75, 0
1, 193554, Note_on_c, 0, 74, 54
1, 193588, Note_on_c, 0, 74, 0
1, 193588, Note_on_c, 0, 75, 54
1, 193622, Note_on_c, 0, 75, 0
1, 193622, Note_on_c, 0, 79, 70
1, 193622, Note_on_c, 0, 63, 0
1, 193625, Note_on_c, 0, 60, 47
1, 193759, Note_on_c, 0, 60, 0
1, 193759, Note_on_c, 0, 63, 45
1, 193895, Note_on_c, 0, 79, 0
1, 193895, Note_on_c, 0, 69, 72
1, 193895, Note_on_c, 0, 63, 0
1, 193898, Note_on_c, 0, 53, 50
1, 194032, Note_on_c, 0, 53, 0
1, 194032, Note_on_c, 0, 63, 39
1, 194170, Note_on_c, 0, 69, 0
1, 194170, Note_on_c, 0, 63, 0
1, 194170, Note_on_c, 0, 60, 44
1, 194307, Note_on_c, 0, 60, 0
1, 194307, Note_on_c, 0, 63, 38
1, 194448, Control_c, 0, 91, 127
1, 194448, Note_on_c, 0, 63, 0
1, 194448, Control_c, 0, 91, 127
1, 194451, Note_on_c, 0, 53, 51
1, 194451, Note_on_c, 0, 77, 68
1, 194468, Control_c, 0, 64, 127
1, 194584, Note_on_c, 0, 53, 0
1, 194584, Note_on_c, 0, 61, 41
1, 194721, Note_on_c, 0, 61, 0
1, 194721, Note_on_c, 0, 58, 45
1, 194857, Note_on_c, 0, 73, 59
1, 194857, Note_on_c, 0, 58, 0
1, 194857, Note_on_c, 0, 61, 41
1, 194860, Note_on_c, 0, 77, 0
1, 194934, Control_c, 0, 64, 0
1, 194993, Note_on_c, 0, 73, 0
1, 194993, Note_on_c, 0, 70, 63
1, 194993, Note_on_c, 0, 61, 0
1, 194996, Note_on_c, 0, 53, 47
1, 195129, Note_on_c, 0, 70, 0
1, 195129, Note_on_c, 0, 53, 0
1, 195129, Note_on_c, 0, 61, 40
1, 195265, Note_on_c, 0, 70, 63
1, 195265, Note_on_c, 0, 61, 0
1, 195265, Note_on_c, 0, 58, 45
1, 195404, Note_on_c, 0, 70, 0
1, 195404, Note_on_c, 0, 58, 0
1, 195404, Note_on_c, 0, 61, 40
1, 195542, Note_on_c, 0, 75, 68
1, 195542, Note_on_c, 0, 61, 0
1, 195542, Note_on_c, 0, 53, 48
1, 195554, Control_c, 0, 64, 127
1, 195679, Note_on_c, 0, 75, 0
1, 195679, Note_on_c, 0, 77, 48
1, 195679, Note_on_c, 0, 53, 0
1, 195682, Note_on_c, 0, 63, 40
1, 195713, Note_on_c, 0, 77, 0
1, 195713, Note_on_c, 0, 75, 48
1, 195747, Note_on_c, 0, 75, 0
1, 195747, Note_on_c, 0, 74, 48
1, 195777, Control_c, 0, 64, 0
1, 195781, Note_on_c, 0, 74, 0
1, 195781, Note_on_c, 0, 75, 48
1, 195815, Note_on_c, 0, 75, 0
1, 195815, Note_on_c, 0, 78, 63
1, 195815, Note_on_c, 0, 63, 0
1, 195818, Note_on_c, 0, 60, 45
1, 195951, Note_on_c, 0, 60, 0
1, 195951, Note_on_c, 0, 63, 40
1, 196087, Note_on_c, 0, 78, 0
1, 196087, Note_on_c, 0, 69, 64
1, 196087, Note_on_c, 0, 63, 0
1, 196090, Note_on_c, 0, 53, 48
1, 196224, Note_on_c, 0, 53, 0
1, 196224, Note_on_c, 0, 63, 36
1, 196362, Note_on_c, 0, 69, 0
1, 196362, Note_on_c, 0, 63, 0
1, 196362, Note_on_c, 0, 60, 41
1, 196499, Note_on_c, 0, 60, 0
1, 196499, Note_on_c, 0, 63, 35
1, 196637, Note_on_c, 0, 70, 76
1, 196637, Note_on_c, 0, 63, 0
1, 196637, Note_on_c, 0, 54, 75
1, 196640, Note_on_c, 0, 61, 75
1, 196705, Note_on_c, 0, 70, 0
1, 196774, Note_on_c, 0, 82, 79
1, 196910, Note_on_c, 0, 82, 0
1, 196910, Note_on_c, 0, 84, 81
1, 196910, Note_on_c, 0, 61, 0
1, 196913, Note_on_c, 0, 54, 0
1, 197045, Note_on_c, 0, 84, 0
1, 197045, Note_on_c, 0, 85, 77
1, 197184, Note_on_c, 0, 85, 0
1, 197184, Note_on_c, 0, 84, 84
1, 197320, Note_on_c, 0, 84, 0
1, 197320, Note_on_c, 0, 82, 77
1, 197455, Note_on_c, 0, 82, 0
1, 197455, Note_on_c, 0, 80, 79
1, 197592, Note_on_c, 0, 80, 0
1, 197592, Note_on_c, 0, 78, 78
1, 197729, Note_on_c, 0, 78, 0
1, 197729, Note_on_c, 0, 77, 76
1, 197729, Note_on_c, 0, 54, 66
1, 197866, Note_on_c, 0, 58, 63
1, 198002, Note_on_c, 0, 58, 0
1, 198002, Note_on_c, 0, 60, 66
1, 198138, Note_on_c, 0, 60, 0
1, 198138, Note_on_c, 0, 61, 70
1, 198279, Note_on_c, 0, 77, 0
1, 198279, Note_on_c, 0, 76, 72
1, 198279, Note_on_c, 0, 61, 0
1, 198282, Note_on_c, 0, 61, 70
1, 198416, Note_on_c, 0, 61, 0
1, 198416, Note_on_c, 0, 60, 65
1, 198553, Note_on_c, 0, 60, 0
1, 198553, Note_on_c, 0, 60, 69
1, 198690, Note_on_c, 0, 60, 0
1, 198690, Note_on_c, 0, 58, 66
1, 198827, Note_on_c, 0, 76, 0
1, 198827, Note_on_c, 0, 77, 86
1, 198827, Note_on_c, 0, 58, 0
1, 198830, Note_on_c, 0, 54, 0
1, 198830, Note_on_c, 0, 57, 67
1, 198830, Note_on_c, 0, 53, 47
1, 198858, Control_c, 0, 64, 127
1, 198963, Note_on_c, 0, 77, 0
1, 198963, Note_on_c, 0, 77, 86
1, 199099, Note_on_c, 0, 77, 0
1, 199099, Note_on_c, 0, 53, 0
1, 199099, Note_on_c, 0, 57, 0
1, 199102, Note_on_c, 0, 57, 50
1, 199102, Note_on_c, 0, 53, 35
1, 199235, Note_on_c, 0, 77, 60
1, 199251, Control_c, 0, 64, 0
1, 199307, Control_c, 0, 64, 127
1, 199371, Note_on_c, 0, 77, 0
1, 199371, Note_on_c, 0, 77, 65
1, 199371, Note_on_c, 0, 53, 0
1, 199374, Note_on_c, 0, 57, 0
1, 199507, Note_on_c, 0, 77, 0
1, 199507, Note_on_c, 0, 77, 60
1, 199587, Control_c, 0, 64, 0
1, 199644, Note_on_c, 0, 77, 0
1, 199644, Note_on_c, 0, 53, 35
1, 199644, Note_on_c, 0, 57, 50
1, 199651, Control_c, 0, 64, 127
1, 199780, Note_on_c, 0, 77, 60
1, 199916, Note_on_c, 0, 77, 0
1, 199916, Note_on_c, 0, 77, 65
1, 199916, Note_on_c, 0, 57, 0
1, 199919, Note_on_c, 0, 53, 0
1, 199919, Control_c, 0, 64, 0
1, 199919, Note_on_c, 0, 53, 38
1, 199922, Note_on_c, 0, 58, 53
1, 199922, Note_on_c, 0, 55, 38
1, 199988, Control_c, 0, 64, 127
1, 200052, Note_on_c, 0, 77, 0
1, 200052, Note_on_c, 0, 77, 60
1, 200188, Note_on_c, 0, 77, 0
1, 200188, Note_on_c, 0, 55, 0
1, 200188, Note_on_c, 0, 58, 0
1, 200191, Note_on_c, 0, 53, 0
1, 200191, Note_on_c, 0, 55, 35
1, 200191, Note_on_c, 0, 58, 50
1, 200194, Note_on_c, 0, 53, 35
1, 200292, Control_c, 0, 64, 0
1, 200324, Note_on_c, 0, 77, 64
1, 200420, Control_c, 0, 64, 127
1, 200460, Note_on_c, 0, 77, 0
1, 200460, Note_on_c, 0, 77, 66
1, 200460, Note_on_c, 0, 53, 0
1, 200463, Note_on_c, 0, 58, 0
1, 200463, Note_on_c, 0, 55, 0
1, 200597, Note_on_c, 0, 77, 0
1, 200597, Note_on_c, 0, 77, 64
1, 200628, Control_c, 0, 64, 0
1, 200733, Note_on_c, 0, 77, 0
1, 200733, Note_on_c, 0, 56, 54
1, 200733, Note_on_c, 0, 59, 54
1, 200736, Note_on_c, 0, 53, 38
1, 200821, Control_c, 0, 64, 127
1, 200869, Note_on_c, 0, 77, 69
1, 201005, Note_on_c, 0, 77, 0
1, 201005, Note_on_c, 0, 77, 72
1, 201005, Note_on_c, 0, 53, 0
1, 201008, Note_on_c, 0, 59, 0
1, 201008, Note_on_c, 0, 56, 0
1, 201008, Control_c, 0, 64, 0
1, 201011, Note_on_c, 0, 57, 39
1, 201011, Note_on_c, 0, 60, 55
1, 201011, Note_on_c, 0, 53, 39
1, 201093, Control_c, 0, 64, 127
1, 201141, Note_on_c, 0, 77, 0
1, 201141, Note_on_c, 0, 77, 72
1, 201278, Note_on_c, 0, 77, 0
1, 201278, Note_on_c, 0, 60, 0
1, 201278, Note_on_c, 0, 57, 0
1, 201281, Control_c, 0, 64, 0
1, 201281, Note_on_c, 0, 57, 43
1, 201281, Note_on_c, 0, 61, 61
1, 201350, Control_c, 0, 64, 127
1, 201415, Note_on_c, 0, 77, 79
1, 201529, Control_c, 0, 64, 0
1, 201553, Note_on_c, 0, 77, 0
1, 201553, Note_on_c, 0, 77, 82
1, 201553, Note_on_c, 0, 61, 0
1, 201556, Note_on_c, 0, 57, 0
1, 201556, Note_on_c, 0, 53, 0
1, 201556, Note_on_c, 0, 58, 47
1, 201559, Note_on_c, 0, 62, 66
1, 201559, Note_on_c, 0, 53, 47
1, 201602, Control_c, 0, 64, 127
1, 201692, Note_on_c, 0, 77, 0
1, 201692, Note_on_c, 0, 77, 84
1, 201766, Control_c, 0, 64, 0
1, 201832, Note_on_c, 0, 77, 0
1, 201832, Note_on_c, 0, 62, 0
1, 201832, Note_on_c, 0, 58, 0
1, 201835, Note_on_c, 0, 59, 51
1, 201835, Note_on_c, 0, 62, 71
1, 201906, Control_c, 0, 64, 127
1, 201973, Note_on_c, 0, 77, 86
1, 202114, Note_on_c, 0, 77, 0
1, 202114, Note_on_c, 0, 77, 86
1, 202114, Note_on_c, 0, 62, 0
1, 202117, Note_on_c, 0, 59, 0
1, 202117, Note_on_c, 0, 53, 0
1, 202117, Control_c, 0, 64, 0
1, 202120, Note_on_c, 0, 63, 77
1, 202120, Note_on_c, 0, 53, 55
1, 202120, Note_on_c, 0, 60, 55
1, 202227, Control_c, 0, 64, 127
1, 202251, Note_on_c, 0, 77, 0
1, 202251, Note_on_c, 0, 81, 81
1, 202387, Note_on_c, 0, 81, 0
1, 202387, Note_on_c, 0, 81, 86
1, 202524, Note_on_c, 0, 81, 0
1, 202524, Note_on_c, 0, 84, 81
1, 202661, Note_on_c, 0, 84, 0
1, 202661, Note_on_c, 0, 84, 86
1, 202797, Note_on_c, 0, 84, 0
1, 202797, Note_on_c, 0, 87, 81
1, 202934, Note_on_c, 0, 87, 0
1, 202934, Note_on_c, 0, 87, 86
1, 203070, Note_on_c, 0, 87, 0
1, 203070, Note_on_c, 0, 84, 75
1, 203207, Note_on_c, 0, 84, 0
1, 203207, Note_on_c, 0, 84, 81
1, 203207, Note_on_c, 0, 60, 0
1, 203210, Note_on_c, 0, 53, 0
1, 203210, Note_on_c, 0, 63, 0
1, 203210, Control_c, 0, 64, 0
1, 203272, Control_c, 0, 64, 127
1, 203344, Note_on_c, 0, 84, 0
1, 203344, Note_on_c, 0, 81, 73
1, 203482, Note_on_c, 0, 81, 0
1, 203482, Note_on_c, 0, 81, 79
1, 203619, Note_on_c, 0, 81, 0
1, 203619, Note_on_c, 0, 77, 71
1, 203684, Control_c, 0, 64, 0
1, 203756, Note_on_c, 0, 77, 0
1, 203756, Note_on_c, 0, 77, 68
1, 203898, Note_on_c, 0, 77, 0
1, 203898, Note_on_c, 0, 76, 57
1, 204043, Note_on_c, 0, 76, 0
1, 204043, Note_on_c, 0, 76, 60
1, 204189, Note_on_c, 0, 76, 0
1, 204189, Note_on_c, 0, 77, 57
1, 204361, Note_on_c, 0, 77, 0
1, 204361, Note_on_c, 0, 77, 57
1, 204361, Note_on_c, 0, 53, 36
1, 204507, Note_on_c, 0, 77, 0
1, 204507, Note_on_c, 0, 76, 56
1, 204507, Note_on_c, 0, 53, 0
1, 204510, Note_on_c, 0, 57, 36
1, 204653, Note_on_c, 0, 76, 0
1, 204653, Note_on_c, 0, 75, 54
1, 204653, Note_on_c, 0, 57, 0
1, 204656, Note_on_c, 0, 57, 42
1, 204799, Note_on_c, 0, 57, 0
1, 204799, Note_on_c, 0, 60, 42
1, 204942, Note_on_c, 0, 60, 0
1, 204942, Note_on_c, 0, 60, 50
1, 205084, Note_on_c, 0, 60, 0
1, 205084, Note_on_c, 0, 63, 48
1, 205228, Note_on_c, 0, 75, 0
1, 205228, Note_on_c, 0, 75, 66
1, 205228, Note_on_c, 0, 63, 0
1, 205231, Note_on_c, 0, 63, 56
1, 205366, Note_on_c, 0, 63, 0
1, 205366, Note_on_c, 0, 60, 51
1, 205504, Note_on_c, 0, 60, 0
1, 205504, Note_on_c, 0, 60, 55
1, 205643, Note_on_c, 0, 60, 0
1, 205643, Note_on_c, 0, 57, 53
1, 205781, Note_on_c, 0, 75, 0
1, 205781, Note_on_c, 0, 75, 68
1, 205781, Note_on_c, 0, 57, 0
1, 205784, Note_on_c, 0, 57, 55
1, 205921, Note_on_c, 0, 57, 0
1, 205921, Note_on_c, 0, 53, 51
1, 205991, Note_on_c, 0, 75, 0
1, 206062, Note_on_c, 0, 75, 70
1, 206062, Note_on_c, 0, 53, 0
1, 206062, Note_on_c, 0, 54, 56
1, 206203, Note_on_c, 0, 54, 0
1, 206203, Note_on_c, 0, 55, 59
1, 206272, Note_on_c, 0, 75, 0
1, 206342, Note_on_c, 0, 75, 76
1, 206342, Note_on_c, 0, 55, 0
1, 206342, Note_on_c, 0, 56, 62
1, 206480, Note_on_c, 0, 56, 0
1, 206480, Note_on_c, 0, 57, 65
1, 206549, Note_on_c, 0, 75, 0
1, 206617, Note_on_c, 0, 74, 84
1, 206617, Note_on_c, 0, 57, 0
1, 206617, Note_on_c, 0, 58, 69
1, 206674, Control_c, 0, 64, 127
1, 206756, Note_on_c, 0, 58, 0
1, 206756, Note_on_c, 0, 58, 46
1, 206896, Note_on_c, 0, 74, 0
1, 206896, Note_on_c, 0, 77, 58
1, 206896, Note_on_c, 0, 68, 58
1, 206899, Note_on_c, 0, 58, 0
1, 206919, Control_c, 0, 64, 0
1, 206983, Control_c, 0, 64, 127
1, 207031, Note_on_c, 0, 58, 46
1, 207166, Note_on_c, 0, 68, 0
1, 207166, Note_on_c, 0, 77, 0
1, 207166, Note_on_c, 0, 75, 54
1, 207169, Note_on_c, 0, 67, 54
1, 207169, Note_on_c, 0, 58, 0
1, 207169, Note_on_c, 0, 58, 48
1, 207174, Control_c, 0, 64, 0
1, 207238, Control_c, 0, 64, 127
1, 207302, Note_on_c, 0, 58, 0
1, 207302, Note_on_c, 0, 58, 46
1, 207438, Note_on_c, 0, 67, 0
1, 207438, Note_on_c, 0, 75, 0
1, 207438, Note_on_c, 0, 74, 48
1, 207441, Note_on_c, 0, 66, 48
1, 207441, Note_on_c, 0, 58, 0
1, 207511, Control_c, 0, 64, 0
1, 207551, Control_c, 0, 64, 127
1, 207575, Note_on_c, 0, 58, 46
1, 207713, Note_on_c, 0, 66, 0
1, 207713, Note_on_c, 0, 74, 0
1, 207713, Note_on_c, 0, 67, 48
1, 207716, Note_on_c, 0, 75, 48
1, 207716, Note_on_c, 0, 58, 0
1, 207716, Control_c, 0, 64, 0
1, 207719, Note_on_c, 0, 58, 49
1, 207762, Control_c, 0, 64, 127
1, 207853, Note_on_c, 0, 58, 0
1, 207853, Note_on_c, 0, 58, 46
1, 207992, Note_on_c, 0, 75, 0
1, 207992, Note_on_c, 0, 67, 0
1, 207992, Note_on_c, 0, 79, 56
1, 207995, Note_on_c, 0, 70, 56
1, 207995, Note_on_c, 0, 58, 0
1, 208008, Control_c, 0, 64, 0
1, 208072, Control_c, 0, 64, 127
1, 208128, Note_on_c, 0, 58, 46
1, 208263, Note_on_c, 0, 70, 0
1, 208263, Note_on_c, 0, 79, 0
1, 208263, Note_on_c, 0, 77, 54
1, 208266, Note_on_c, 0, 68, 54
1, 208266, Note_on_c, 0, 58, 0
1, 208266, Note_on_c, 0, 58, 49
1, 208311, Control_c, 0, 64, 0
1, 208367, Control_c, 0, 64, 127
1, 208399, Note_on_c, 0, 58, 0
1, 208399, Note_on_c, 0, 58, 46
1, 208528, Control_c, 0, 64, 0
1, 208536, Note_on_c, 0, 68, 0
1, 208536, Note_on_c, 0, 77, 0
1, 208536, Note_on_c, 0, 76, 51
1, 208539, Note_on_c, 0, 67, 51
1, 208539, Note_on_c, 0, 58, 0
1, 208584, Control_c, 0, 64, 127
1, 208673, Note_on_c, 0, 58, 45
1, 208811, Note_on_c, 0, 67, 0
1, 208811, Note_on_c, 0, 76, 0
1, 208811, Note_on_c, 0, 68, 56
1, 208814, Note_on_c, 0, 77, 56
1, 208814, Note_on_c, 0, 58, 0
1, 208814, Note_on_c, 0, 58, 48
1, 208817, Control_c, 0, 64, 0
1, 208860, Control_c, 0, 64, 127
1, 208949, Note_on_c, 0, 58, 0
1, 208949, Note_on_c, 0, 58, 51
1, 209087, Note_on_c, 0, 77, 0
1, 209087, Note_on_c, 0, 68, 0
1, 209087, Note_on_c, 0, 77, 63
1, 209090, Note_on_c, 0, 80, 63
1, 209090, Note_on_c, 0, 58, 0
1, 209159, Control_c, 0, 64, 0
1, 209223, Control_c, 0, 64, 127
1, 209223, Note_on_c, 0, 58, 57
1, 209359, Note_on_c, 0, 80, 0
1, 209359, Note_on_c, 0, 77, 0
1, 209359, Note_on_c, 0, 75, 69
1, 209362, Note_on_c, 0, 79, 69
1, 209362, Note_on_c, 0, 58, 0
1, 209362, Note_on_c, 0, 58, 60
1, 209390, Control_c, 0, 64, 0
1, 209446, Control_c, 0, 64, 127
1, 209494, Note_on_c, 0, 58, 0
1, 209494, Note_on_c, 0, 58, 64
1, 209630, Note_on_c, 0, 79, 0
1, 209630, Note_on_c, 0, 75, 0
1, 209630, Note_on_c, 0, 77, 78
1, 209633, Note_on_c, 0, 74, 78
1, 209633, Note_on_c, 0, 58, 0
1, 209654, Control_c, 0, 64, 0
1, 209702, Control_c, 0, 64, 127
1, 209766, Note_on_c, 0, 58, 70
1, 209902, Note_on_c, 0, 74, 0
1, 209902, Note_on_c, 0, 77, 0
1, 209902, Note_on_c, 0, 79, 78
1, 209905, Note_on_c, 0, 74, 66
1, 209905, Note_on_c, 0, 77, 78
1, 209905, Note_on_c, 0, 58, 0
1, 209908, Note_on_c, 0, 59, 66
1, 209908, Control_c, 0, 64, 0
1, 209945, Control_c, 0, 64, 127
1, 210037, Note_on_c, 0, 77, 0
1, 210037, Note_on_c, 0, 74, 0
1, 210037, Note_on_c, 0, 79, 0
1, 210040, Note_on_c, 0, 79, 78
1, 210040, Note_on_c, 0, 74, 66
1, 210040, Note_on_c, 0, 77, 78
1, 210105, Note_on_c, 0, 77, 0
1, 210105, Note_on_c, 0, 74, 0
1, 210105, Note_on_c, 0, 79, 0
1, 210127, Control_c, 0, 64, 0
1, 210173, Note_on_c, 0, 59, 0
1, 210173, Note_on_c, 0, 47, 56
1, 210173, Note_on_c, 0, 59, 66
1, 210309, Note_on_c, 0, 74, 66
1, 210309, Note_on_c, 0, 77, 78
1, 210309, Note_on_c, 0, 79, 78
1, 210446, Note_on_c, 0, 79, 0
1, 210446, Note_on_c, 0, 77, 0
1, 210446, Note_on_c, 0, 74, 0
1, 210449, Note_on_c, 0, 87, 82
1, 210449, Note_on_c, 0, 75, 69
1, 210449, Note_on_c, 0, 79, 69
1, 210452, Note_on_c, 0, 59, 0
1, 210452, Note_on_c, 0, 47, 0
1, 210452, Note_on_c, 0, 60, 71
1, 210455, Note_on_c, 0, 48, 60
1, 210522, Control_c, 0, 64, 127
1, 210583, Note_on_c, 0, 79, 0
1, 210583, Note_on_c, 0, 75, 0
1, 210583, Note_on_c, 0, 87, 0
1, 210586, Note_on_c, 0, 79, 66
1, 210586, Note_on_c, 0, 87, 78
1, 210586, Note_on_c, 0, 75, 66
1, 210648, Control_c, 0, 64, 0
1, 210651, Note_on_c, 0, 75, 0
1, 210651, Note_on_c, 0, 87, 0
1, 210651, Note_on_c, 0, 79, 0
1, 210720, Note_on_c, 0, 48, 0
1, 210720, Note_on_c, 0, 60, 0
1, 210720, Note_on_c, 0, 58, 66
1, 210723, Note_on_c, 0, 46, 56
1, 210857, Note_on_c, 0, 79, 75
1, 210857, Note_on_c, 0, 72, 63
1, 210857, Note_on_c, 0, 75, 63
1, 210992, Note_on_c, 0, 75, 0
1, 210992, Note_on_c, 0, 72, 0
1, 210992, Note_on_c, 0, 79, 0
1, 210995, Note_on_c, 0, 77, 78
1, 210995, Note_on_c, 0, 72, 66
1, 210995, Note_on_c, 0, 75, 78
1, 210998, Note_on_c, 0, 46, 0
1, 210998, Note_on_c, 0, 58, 0
1, 210998, Note_on_c, 0, 45, 61
1, 211001, Note_on_c, 0, 57, 72
1, 211024, Control_c, 0, 64, 127
1, 211127, Note_on_c, 0, 75, 0
1, 211127, Note_on_c, 0, 72, 0
1, 211127, Note_on_c, 0, 77, 0
1, 211130, Note_on_c, 0, 72, 63
1, 211130, Note_on_c, 0, 75, 75
1, 211130, Note_on_c, 0, 77, 75
1, 211195, Note_on_c, 0, 77, 0
1, 211195, Note_on_c, 0, 75, 0
1, 211195, Note_on_c, 0, 72, 0
1, 211245, Control_c, 0, 64, 0
1, 211263, Note_on_c, 0, 57, 0
1, 211263, Note_on_c, 0, 45, 0
1, 211263, Note_on_c, 0, 57, 66
1, 211266, Note_on_c, 0, 45, 56
1, 211398, Note_on_c, 0, 72, 69
1, 211398, Note_on_c, 0, 77, 82
1, 211398, Note_on_c, 0, 75, 82
1, 211533, Note_on_c, 0, 75, 0
1, 211533, Note_on_c, 0, 77, 0
1, 211533, Note_on_c, 0, 72, 0
1, 211536, Note_on_c, 0, 77, 73
1, 211536, Note_on_c, 0, 74, 73
1, 211536, Note_on_c, 0, 86, 86
1, 211539, Note_on_c, 0, 45, 0
1, 211539, Note_on_c, 0, 57, 0
1, 211539, Note_on_c, 0, 46, 58
1, 211542, Note_on_c, 0, 58, 69
1, 211572, Control_c, 0, 64, 127
1, 211669, Note_on_c, 0, 86, 0
1, 211669, Note_on_c, 0, 74, 0
1, 211669, Note_on_c, 0, 77, 0
1, 211672, Note_on_c, 0, 74, 68
1, 211672, Note_on_c, 0, 77, 68
1, 211672, Note_on_c, 0, 86, 81
1, 211736, Note_on_c, 0, 86, 0
1, 211736, Note_on_c, 0, 77, 0
1, 211736, Note_on_c, 0, 74, 0
1, 211786, Control_c, 0, 64, 0
1, 211804, Note_on_c, 0, 58, 0
1, 211804, Note_on_c, 0, 46, 0
1, 211804, Note_on_c, 0, 57, 66
1, 211807, Note_on_c, 0, 45, 56
1, 211939, Note_on_c, 0, 70, 63
1, 211939, Note_on_c, 0, 77, 75
1, 211939, Note_on_c, 0, 74, 63
1, 212076, Note_on_c, 0, 74, 0
1, 212076, Note_on_c, 0, 77, 0
1, 212076, Note_on_c, 0, 70, 0
1, 212079, Note_on_c, 0, 74, 78
1, 212079, Note_on_c, 0, 70, 66
1, 212079, Note_on_c, 0, 75, 78
1, 212082, Note_on_c, 0, 45, 0
1, 212082, Note_on_c, 0, 57, 0
1, 212082, Note_on_c, 0, 55, 70
1, 212085, Note_on_c, 0, 43, 59
1, 212098, Control_c, 0, 64, 127
1, 212213, Note_on_c, 0, 75, 0
1, 212213, Note_on_c, 0, 70, 0
1, 212213, Note_on_c, 0, 74, 0
1, 212216, Note_on_c, 0, 74, 74
1, 212216, Note_on_c, 0, 70, 62
1, 212216, Note_on_c, 0, 75, 74
1, 212282, Note_on_c, 0, 75, 0
1, 212282, Note_on_c, 0, 70, 0
1, 212282, Note_on_c, 0, 74, 0
1, 212339, Control_c, 0, 64, 0
1, 212350, Note_on_c, 0, 43, 0
1, 212350, Note_on_c, 0, 55, 0
1, 212350, Note_on_c, 0, 43, 56
1, 212353, Note_on_c, 0, 55, 66
1, 212487, Note_on_c, 0, 75, 79
1, 212487, Note_on_c, 0, 74, 79
1, 212487, Note_on_c, 0, 70, 67
1, 212624, Note_on_c, 0, 70, 0
1, 212624, Note_on_c, 0, 74, 0
1, 212624, Note_on_c, 0, 75, 0
1, 212627, Note_on_c, 0, 84, 84
1, 212627, Note_on_c, 0, 72, 71
1, 212627, Note_on_c, 0, 75, 71
1, 212630, Note_on_c, 0, 55, 0
1, 212630, Note_on_c, 0, 43, 0
1, 212630, Note_on_c, 0, 57, 69
1, 212633, Note_on_c, 0, 45, 58
1, 212681, Control_c, 0, 64, 127
1, 212760, Note_on_c, 0, 75, 0
1, 212760, Note_on_c, 0, 72, 0
1, 212760, Note_on_c, 0, 84, 0
1, 212763, Note_on_c, 0, 72, 65
1, 212763, Note_on_c, 0, 84, 77
1, 212763, Note_on_c, 0, 75, 65
1, 212829, Note_on_c, 0, 75, 0
1, 212829, Note_on_c, 0, 84, 0
1, 212829, Note_on_c, 0, 72, 0
1, 212883, Control_c, 0, 64, 0
1, 212897, Note_on_c, 0, 45, 0
1, 212897, Note_on_c, 0, 57, 0
1, 212897, Note_on_c, 0, 43, 56
1, 212900, Note_on_c, 0, 55, 66
1, 213033, Note_on_c, 0, 72, 62
1, 213033, Note_on_c, 0, 69, 62
1, 213033, Note_on_c, 0, 75, 74
1, 213171, Note_on_c, 0, 75, 0
1, 213171, Note_on_c, 0, 69, 0
1, 213171, Note_on_c, 0, 72, 0
1, 213174, Note_on_c, 0, 72, 78
1, 213174, Note_on_c, 0, 69, 66
1, 213174, Note_on_c, 0, 74, 78
1, 213177, Note_on_c, 0, 55, 0
1, 213177, Note_on_c, 0, 43, 0
1, 213177, Note_on_c, 0, 54, 68
1, 213180, Note_on_c, 0, 42, 57
1, 213193, Control_c, 0, 64, 127
1, 213308, Note_on_c, 0, 74, 0
1, 213308, Note_on_c, 0, 69, 0
1, 213308, Note_on_c, 0, 72, 0
1, 213311, Note_on_c, 0, 74, 74
1, 213311, Note_on_c, 0, 72, 74
1, 213311, Note_on_c, 0, 69, 62
1, 213377, Note_on_c, 0, 69, 0
1, 213377, Note_on_c, 0, 72, 0
1, 213377, Note_on_c, 0, 74, 0
1, 213427, Control_c, 0, 64, 0
1, 213446, Note_on_c, 0, 42, 0
1, 213446, Note_on_c, 0, 54, 0
1, 213446, Note_on_c, 0, 54, 66
1, 213449, Note_on_c, 0, 42, 56
1, 213583, Note_on_c, 0, 69, 64
1, 213583, Note_on_c, 0, 72, 76
1, 213583, Note_on_c, 0, 74, 76
1, 213719, Note_on_c, 0, 74, 0
1, 213719, Note_on_c, 0, 72, 0
1, 213719, Note_on_c, 0, 69, 0
1, 213722, Note_on_c, 0, 82, 83
1, 213722, Note_on_c, 0, 74, 70
1, 213722, Note_on_c, 0, 70, 70
1, 213725, Note_on_c, 0, 42, 0
1, 213725, Note_on_c, 0, 54, 0
1, 213725, Note_on_c, 0, 43, 59
1, 213728, Note_on_c, 0, 55, 70
1, 213772, Control_c, 0, 64, 127
1, 213854, Note_on_c, 0, 70, 0
1, 213854, Note_on_c, 0, 74, 0
1, 213854, Note_on_c, 0, 82, 0
1, 213857, Note_on_c, 0, 74, 65
1, 213857, Note_on_c, 0, 70, 65
1, 213857, Note_on_c, 0, 82, 77
1, 213922, Note_on_c, 0, 82, 0
1, 213922, Note_on_c, 0, 70, 0
1, 213922, Note_on_c, 0, 74, 0
1, 213947, Control_c, 0, 64, 0
1, 213990, Note_on_c, 0, 55, 0
1, 213990, Note_on_c, 0, 43, 0
1, 213990, Note_on_c, 0, 53, 66
1, 213993, Note_on_c, 0, 41, 56
1, 214126, Note_on_c, 0, 70, 63
1, 214126, Note_on_c, 0, 67, 63
1, 214126, Note_on_c, 0, 74, 75
1, 214263, Note_on_c, 0, 74, 0
1, 214263, Note_on_c, 0, 67, 0
1, 214263, Note_on_c, 0, 70, 0
1, 214266, Note_on_c, 0, 72, 78
1, 214266, Note_on_c, 0, 70, 78
1, 214266, Note_on_c, 0, 67, 66
1, 214269, Note_on_c, 0, 41, 0
1, 214269, Note_on_c, 0, 53, 0
1, 214269, Note_on_c, 0, 39, 62
1, 214272, Note_on_c, 0, 51, 73
1, 214292, Control_c, 0, 64, 127
1, 214401, Note_on_c, 0, 67, 0
1, 214401, Note_on_c, 0, 70, 0
1, 214401, Note_on_c, 0, 72, 0
1, 214404, Note_on_c, 0, 67, 63
1, 214404, Note_on_c, 0, 70, 75
1, 214404, Note_on_c, 0, 72, 75
1, 214407, Note_on_c, 0, 51, 0
1, 214407, Note_on_c, 0, 39, 0
1, 214407, Note_on_c, 0, 55, 65
1, 214469, Note_on_c, 0, 72, 0
1, 214469, Note_on_c, 0, 70, 0
1, 214469, Note_on_c, 0, 67, 0
1, 214538, Note_on_c, 0, 55, 0
1, 214538, Note_on_c, 0, 58, 65
1, 214542, Control_c, 0, 64, 0
1, 214675, Note_on_c, 0, 72, 78
1, 214675, Note_on_c, 0, 58, 0
1, 214675, Note_on_c, 0, 55, 65
1, 214811, Note_on_c, 0, 72, 0
1, 214811, Note_on_c, 0, 82, 86
1, 214811, Note_on_c, 0, 55, 0
1, 214814, Note_on_c, 0, 51, 71
1, 214946, Note_on_c, 0, 82, 0
1, 214946, Note_on_c, 0, 82, 82
1, 214946, Note_on_c, 0, 51, 0
1, 214949, Note_on_c, 0, 55, 65
1, 215014, Note_on_c, 0, 82, 0
1, 215081, Note_on_c, 0, 82, 84
1, 215081, Note_on_c, 0, 55, 0
1, 215081, Note_on_c, 0, 58, 65
1, 215217, Note_on_c, 0, 82, 0
1, 215217, Note_on_c, 0, 72, 76
1, 215217, Note_on_c, 0, 58, 0
1, 215220, Note_on_c, 0, 55, 60
1, 215354, Note_on_c, 0, 72, 0
1, 215354, Note_on_c, 0, 74, 79
1, 215354, Note_on_c, 0, 55, 0
1, 215357, Note_on_c, 0, 53, 69
1, 215422, Note_on_c, 0, 74, 0
1, 215491, Note_on_c, 0, 74, 79
1, 215491, Note_on_c, 0, 53, 0
1, 215491, Note_on_c, 0, 56, 60
1, 215559, Note_on_c, 0, 74, 0
1, 215628, Note_on_c, 0, 56, 0
1, 215628, Note_on_c, 0, 58, 65
1, 215765, Note_on_c, 0, 74, 74
1, 215765, Note_on_c, 0, 58, 0
1, 215765, Note_on_c, 0, 56, 60
1, 215899, Note_on_c, 0, 74, 0
1, 215899, Note_on_c, 0, 82, 86
1, 215899, Note_on_c, 0, 56, 0
1, 215902, Note_on_c, 0, 53, 69
1, 216034, Note_on_c, 0, 82, 0
1, 216034, Note_on_c, 0, 82, 82
1, 216034, Note_on_c, 0, 53, 0
1, 216037, Note_on_c, 0, 56, 61
1, 216101, Note_on_c, 0, 82, 0
1, 216168, Note_on_c, 0, 82, 82
1, 216168, Note_on_c, 0, 56, 0
1, 216168, Note_on_c, 0, 58, 65
1, 216303, Note_on_c, 0, 82, 0
1, 216303, Note_on_c, 0, 74, 76
1, 216303, Note_on_c, 0, 58, 0
1, 216306, Note_on_c, 0, 56, 61
1, 216439, Note_on_c, 0, 74, 0
1, 216439, Note_on_c, 0, 75, 80
1, 216439, Note_on_c, 0, 56, 0
1, 216442, Note_on_c, 0, 55, 71
1, 216508, Note_on_c, 0, 75, 0
1, 216576, Note_on_c, 0, 75, 80
1, 216576, Note_on_c, 0, 55, 0
1, 216576, Note_on_c, 0, 58, 64
1, 216644, Note_on_c, 0, 75, 0
1, 216712, Note_on_c, 0, 58, 0
1, 216712, Note_on_c, 0, 63, 68
1, 216849, Note_on_c, 0, 76, 77
1, 216849, Note_on_c, 0, 63, 0
1, 216849, Note_on_c, 0, 58, 65
1, 216986, Note_on_c, 0, 76, 0
1, 216986, Note_on_c, 0, 77, 82
1, 216986, Note_on_c, 0, 58, 0
1, 216989, Note_on_c, 0, 50, 78
1, 217054, Note_on_c, 0, 77, 0
1, 217122, Note_on_c, 0, 77, 82
1, 217122, Note_on_c, 0, 50, 0
1, 217122, Note_on_c, 0, 56, 66
1, 217190, Note_on_c, 0, 77, 0
1, 217259, Note_on_c, 0, 56, 0
1, 217259, Note_on_c, 0, 58, 71
1, 217395, Note_on_c, 0, 78, 79
1, 217395, Note_on_c, 0, 58, 0
1, 217395, Note_on_c, 0, 56, 69
1, 217532, Note_on_c, 0, 78, 0
1, 217532, Note_on_c, 0, 79, 80
1, 217532, Note_on_c, 0, 56, 0
1, 217535, Note_on_c, 0, 51, 79
1, 217668, Note_on_c, 0, 79, 0
1, 217668, Note_on_c, 0, 79, 82
1, 217668, Note_on_c, 0, 51, 0
1, 217671, Note_on_c, 0, 63, 72
1, 217737, Note_on_c, 0, 79, 0
1, 217806, Note_on_c, 0, 81, 83
1, 217806, Note_on_c, 0, 63, 0
1, 217806, Note_on_c, 0, 48, 82
1, 217875, Note_on_c, 0, 81, 0
1, 217944, Note_on_c, 0, 81, 85
1, 217944, Note_on_c, 0, 48, 0
1, 217944, Note_on_c, 0, 60, 73
1, 218013, Note_on_c, 0, 81, 0
1, 218082, Note_on_c, 0, 82, 86
1, 218082, Note_on_c, 0, 60, 0
1, 218082, Note_on_c, 0, 50, 83
1, 218151, Note_on_c, 0, 82, 0
1, 218221, Note_on_c, 0, 82, 88
1, 218221, Note_on_c, 0, 50, 0
1, 218221, Note_on_c, 0, 62, 76
1, 218291, Note_on_c, 0, 82, 0
1, 218361, Note_on_c, 0, 84, 89
1, 218361, Note_on_c, 0, 62, 0
1, 218361, Note_on_c, 0, 45, 84
1, 218432, Note_on_c, 0, 84, 0
1, 218504, Note_on_c, 0, 84, 91
1, 218504, Note_on_c, 0, 45, 0
1, 218504, Note_on_c, 0, 57, 78
1, 218575, Note_on_c, 0, 84, 0
1, 218647, Note_on_c, 0, 85, 98
1, 218647, Note_on_c, 0, 57, 0
1, 218647, Note_on_c, 0, 46, 90
1, 218650, Note_on_c, 0, 58, 90
1, 218709, Control_c, 0, 64, 127
1, 219082, Note_on_c, 0, 85, 0
1, 219082, Note_on_c, 0, 84, 84
1, 219118, Note_on_c, 0, 84, 0
1, 219118, Note_on_c, 0, 82, 87
1, 219155, Note_on_c, 0, 82, 0
1, 219155, Note_on_c, 0, 81, 89
1, 219191, Note_on_c, 0, 81, 0
1, 219191, Note_on_c, 0, 82, 92
1, 219227, Note_on_c, 0, 82, 0
1, 219227, Note_on_c, 0, 85, 94
1, 219227, Note_on_c, 0, 58, 0
1, 219230, Note_on_c, 0, 46, 0
1, 219230, Note_on_c, 0, 42, 89
1, 219230, Note_on_c, 0, 54, 89
1, 219249, Control_c, 0, 64, 0
1, 219278, Control_c, 0, 64, 127
1, 219676, Note_on_c, 0, 85, 0
1, 219676, Note_on_c, 0, 84, 87
1, 219714, Note_on_c, 0, 84, 0
1, 219714, Note_on_c, 0, 82, 89
1, 219751, Note_on_c, 0, 82, 0
1, 219751, Note_on_c, 0, 81, 91
1, 219789, Note_on_c, 0, 81, 0
1, 219789, Note_on_c, 0, 82, 94
1, 219826, Note_on_c, 0, 82, 0
1, 219826, Note_on_c, 0, 85, 95
1, 219826, Note_on_c, 0, 54, 0
1, 219829, Note_on_c, 0, 42, 0
1, 219829, Note_on_c, 0, 40, 89
1, 219829, Note_on_c, 0, 52, 89
1, 219832, Control_c, 0, 64, 0
1, 219963, Control_c, 0, 64, 127
1, 220662, Note_on_c, 0, 52, 0
1, 220662, Note_on_c, 0, 40, 0
1, 220675, Control_c, 0, 64, 0
1, 220683, Control_c, 0, 64, 127
1, 220727, Note_on_c, 0, 85, 0
1, 220727, Note_on_c, 0, 82, 87
1, 220792, Note_on_c, 0, 82, 0
1, 220792, Note_on_c, 0, 79, 86
1, 220858, Note_on_c, 0, 79, 0
1, 220858, Note_on_c, 0, 76, 84
1, 220925, Note_on_c, 0, 76, 0
1, 220925, Note_on_c, 0, 73, 83
1, 220934, Control_c, 0, 64, 0
1, 220941, Control_c, 0, 64, 127
1, 220993, Note_on_c, 0, 73, 0
1, 220993, Note_on_c, 0, 70, 82
1, 221062, Note_on_c, 0, 70, 0
1, 221062, Note_on_c, 0, 67, 81
1, 221132, Note_on_c, 0, 67, 0
1, 221132, Note_on_c, 0, 64, 79
1, 221194, Control_c, 0, 64, 0
1, 221203, Note_on_c, 0, 64, 0
1, 221203, Note_on_c, 0, 61, 69
1, 221207, Control_c, 0, 64, 127
1, 221275, Note_on_c, 0, 61, 0
1, 221275, Note_on_c, 0, 58, 71
1, 221349, Note_on_c, 0, 58, 0
1, 221349, Note_on_c, 0, 55, 74
1, 221423, Note_on_c, 0, 55, 0
1, 221423, Note_on_c, 0, 52, 77
1, 221489, Control_c, 0, 64, 0
1, 221498, Note_on_c, 0, 52, 0
1, 221498, Note_on_c, 0, 50, 80
1, 221498, Control_c, 0, 64, 127
1, 221575, Note_on_c, 0, 50, 0
1, 221575, Note_on_c, 0, 46, 82
1, 221652, Note_on_c, 0, 46, 0
1, 221652, Note_on_c, 0, 43, 85
1, 221731, Note_on_c, 0, 43, 0
1, 221731, Note_on_c, 0, 40, 88
1, 221812, Note_on_c, 0, 40, 0
1, 221812, Note_on_c, 0, 41, 108
1, 221812, Note_on_c, 0, 53, 108
1, 221821, Control_c, 0, 64, 0
1, 222041, Control_c, 0, 64, 127
1, 222566, Control_c, 0, 64, 0
1, 222632, Note_on_c, 0, 53, 0
1, 222632, Note_on_c, 0, 41, 0
1, 222663, Control_c, 0, 64, 127
1, 222706, Note_on_c, 0, 57, 66
1, 222779, Note_on_c, 0, 57, 0
1, 222779, Note_on_c, 0, 55, 67
1, 222840, Control_c, 0, 64, 0
1, 222851, Note_on_c, 0, 55, 0
1, 222851, Note_on_c, 0, 53, 69
1, 222881, Control_c, 0, 64, 127
1, 222921, Note_on_c, 0, 53, 0
1, 222921, Note_on_c, 0, 55, 70
1, 222990, Note_on_c, 0, 55, 0
1, 222990, Note_on_c, 0, 57, 71
1, 223058, Note_on_c, 0, 57, 0
1, 223058, Control_c, 0, 64, 0
1, 223058, Note_on_c, 0, 58, 72
1, 223114, Control_c, 0, 64, 127
1, 223124, Note_on_c, 0, 58, 0
1, 223124, Note_on_c, 0, 60, 74
1, 223190, Note_on_c, 0, 62, 74
1, 223190, Note_on_c, 0, 60, 0
1, 223254, Note_on_c, 0, 62, 0
1, 223254, Note_on_c, 0, 63, 76
1, 223318, Note_on_c, 0, 63, 0
1, 223318, Note_on_c, 0, 65, 78
1, 223381, Note_on_c, 0, 65, 0
1, 223381, Note_on_c, 0, 67, 79
1, 223442, Note_on_c, 0, 67, 0
1, 223442, Note_on_c, 0, 69, 81
1, 223499, Control_c, 0, 64, 0
1, 223503, Note_on_c, 0, 69, 0
1, 223503, Note_on_c, 0, 70, 83
1, 223537, Control_c, 0, 64, 127
1, 223562, Note_on_c, 0, 70, 0
1, 223562, Note_on_c, 0, 72, 84
1, 223621, Note_on_c, 0, 72, 0
1, 223621, Note_on_c, 0, 74, 86
1, 223678, Note_on_c, 0, 74, 0
1, 223678, Note_on_c, 0, 75, 88
1, 223735, Note_on_c, 0, 75, 0
1, 223735, Note_on_c, 0, 77, 89
1, 223792, Note_on_c, 0, 77, 0
1, 223792, Note_on_c, 0, 79, 91
1, 223836, Control_c, 0, 64, 0
1, 223847, Note_on_c, 0, 79, 0
1, 223847, Note_on_c, 0, 81, 93
1, 223862, Control_c, 0, 64, 127
1, 223902, Note_on_c, 0, 81, 0
1, 223902, Note_on_c, 0, 82, 94
1, 223956, Note_on_c, 0, 82, 0
1, 223956, Note_on_c, 0, 84, 94
1, 224009, Note_on_c, 0, 84, 0
1, 224009, Note_on_c, 0, 86, 96
1, 224061, Note_on_c, 0, 86, 0
1, 224061, Note_on_c, 0, 87, 98
1, 224113, Note_on_c, 0, 87, 0
1, 224113, Note_on_c, 0, 89, 99
1, 224167, Note_on_c, 0, 89, 0
1, 224186, Control_c, 0, 64, 0
1, 224838, Note_on_c, 0, 70, 63
1, 224981, Note_on_c, 0, 70, 0
1, 224981, Note_on_c, 0, 70, 64
1, 225050, Note_on_c, 0, 70, 0
1, 225050, Note_on_c, 0, 72, 60
1, 225119, Note_on_c, 0, 72, 0
1, 225119, Note_on_c, 0, 74, 65
1, 225187, Note_on_c, 0, 74, 0
1, 225187, Note_on_c, 0, 72, 60
1, 225254, Note_on_c, 0, 72, 0
1, 225254, Note_on_c, 0, 74, 66
1, 225320, Note_on_c, 0, 74, 0
1, 225320, Note_on_c, 0, 72, 61
1, 225385, Note_on_c, 0, 72, 0
1, 225385, Note_on_c, 0, 74, 67
1, 225449, Note_on_c, 0, 74, 0
1, 225449, Note_on_c, 0, 72, 63
1, 225513, Note_on_c, 0, 72, 0
1, 225513, Note_on_c, 0, 74, 68
1, 225575, Note_on_c, 0, 74, 0
1, 225575, Note_on_c, 0, 72, 63
1, 225637, Note_on_c, 0, 72, 0
1, 225637, Note_on_c, 0, 74, 69
1, 225698, Note_on_c, 0, 74, 0
1, 225698, Note_on_c, 0, 72, 65
1, 225759, Note_on_c, 0, 72, 0
1, 225759, Note_on_c, 0, 74, 70
1, 225818, Note_on_c, 0, 74, 0
1, 225818, Note_on_c, 0, 72, 65
1, 225877, Note_on_c, 0, 72, 0
1, 225877, Note_on_c, 0, 74, 69
1, 225877, Note_on_c, 0, 60, 54
1, 225880, Note_on_c, 0, 63, 54
1, 225880, Note_on_c, 0, 53, 54
1, 225880, Note_on_c, 0, 57, 54
1, 225893, Control_c, 0, 64, 127
1, 225935, Note_on_c, 0, 74, 0
1, 225935, Note_on_c, 0, 72, 64
1, 225993, Note_on_c, 0, 72, 0
1, 225993, Note_on_c, 0, 74, 68
1, 226052, Note_on_c, 0, 74, 0
1, 226052, Note_on_c, 0, 72, 67
1, 226110, Note_on_c, 0, 72, 0
1, 226110, Note_on_c, 0, 74, 66
1, 226168, Note_on_c, 0, 74, 0
1, 226168, Note_on_c, 0, 72, 62
1, 226226, Note_on_c, 0, 72, 0
1, 226226, Note_on_c, 0, 74, 65
1, 226284, Note_on_c, 0, 74, 0
1, 226284, Note_on_c, 0, 72, 64
1, 226330, Control_c, 0, 64, 0
1, 226343, Note_on_c, 0, 72, 0
1, 226343, Note_on_c, 0, 71, 63
1, 226350, Control_c, 0, 64, 127
1, 226402, Note_on_c, 0, 71, 0
1, 226402, Note_on_c, 0, 72, 65
1, 226461, Note_on_c, 0, 72, 0
1, 226461, Note_on_c, 0, 74, 66
1, 226520, Note_on_c, 0, 74, 0
1, 226520, Note_on_c, 0, 75, 68
1, 226577, Note_on_c, 0, 75, 0
1, 226577, Note_on_c, 0, 77, 69
1, 226634, Note_on_c, 0, 77, 0
1, 226634, Note_on_c, 0, 79, 71
1, 226682, Control_c, 0, 64, 0
1, 226691, Note_on_c, 0, 79, 0
1, 226691, Note_on_c, 0, 81, 72
1, 226695, Control_c, 0, 64, 127
1, 226747, Note_on_c, 0, 81, 0
1, 226747, Note_on_c, 0, 82, 74
1, 226802, Note_on_c, 0, 82, 0
1, 226802, Note_on_c, 0, 84, 75
1, 226856, Note_on_c, 0, 84, 0
1, 226856, Note_on_c, 0, 86, 76
1, 226910, Note_on_c, 0, 86, 0
1, 226910, Note_on_c, 0, 87, 78
1, 226964, Note_on_c, 0, 87, 0
1, 226964, Note_on_c, 0, 86, 79
1, 226986, Control_c, 0, 64, 0
1, 227016, Note_on_c, 0, 86, 0
1, 227016, Note_on_c, 0, 89, 96
1, 227038, Control_c, 0, 64, 127
1, 227080, Note_on_c, 0, 89, 0
1, 227080, Note_on_c, 0, 87, 94
1, 227144, Note_on_c, 0, 87, 0
1, 227144, Note_on_c, 0, 86, 91
1, 227176, Note_on_c, 0, 86, 0
1, 227208, Note_on_c, 0, 84, 89
1, 227240, Note_on_c, 0, 84, 0
1, 227272, Note_on_c, 0, 87, 92
1, 227272, Control_c, 0, 64, 0
1, 227293, Control_c, 0, 64, 127
1, 227335, Note_on_c, 0, 87, 0
1, 227335, Note_on_c, 0, 86, 91
1, 227399, Note_on_c, 0, 86, 0
1, 227399, Note_on_c, 0, 84, 89
1, 227431, Note_on_c, 0, 84, 0
1, 227463, Note_on_c, 0, 82, 87
1, 227495, Note_on_c, 0, 82, 0
1, 227517, Control_c, 0, 64, 0
1, 227527, Note_on_c, 0, 86, 91
1, 227527, Note_on_c, 0, 57, 0
1, 227527, Note_on_c, 0, 60, 0
1, 227530, Note_on_c, 0, 63, 0
1, 227530, Note_on_c, 0, 53, 0
1, 227548, Control_c, 0, 64, 127
1, 227591, Note_on_c, 0, 86, 0
1, 227591, Note_on_c, 0, 84, 89
1, 227655, Note_on_c, 0, 84, 0
1, 227655, Note_on_c, 0, 82, 87
1, 227686, Note_on_c, 0, 82, 0
1, 227718, Note_on_c, 0, 81, 85
1, 227750, Note_on_c, 0, 81, 0
1, 227764, Control_c, 0, 64, 0
1, 227782, Note_on_c, 0, 84, 89
1, 227794, Control_c, 0, 64, 127
1, 227846, Note_on_c, 0, 84, 0
1, 227846, Note_on_c, 0, 82, 88
1, 227910, Note_on_c, 0, 82, 0
1, 227910, Note_on_c, 0, 81, 86
1, 227942, Note_on_c, 0, 81, 0
1, 227974, Note_on_c, 0, 79, 88
1, 228006, Note_on_c, 0, 79, 0
1, 228034, Control_c, 0, 64, 0
1, 228037, Note_on_c, 0, 81, 90
1, 228073, Control_c, 0, 64, 127
1, 228164, Note_on_c, 0, 81, 0
1, 228164, Note_on_c, 0, 79, 82
1, 228243, Control_c, 0, 64, 0
1, 228292, Note_on_c, 0, 79, 0
1, 228292, Note_on_c, 0, 77, 80
1, 228356, Note_on_c, 0, 77, 0
1, 228420, Note_on_c, 0, 75, 75
1, 228484, Note_on_c, 0, 75, 0
1, 228548, Note_on_c, 0, 79, 81
1, 228576, Control_c, 0, 64, 127
1, 228677, Note_on_c, 0, 79, 0
1, 228677, Note_on_c, 0, 77, 74
1, 228775, Control_c, 0, 64, 0
1, 228807, Note_on_c, 0, 77, 0
1, 228807, Note_on_c, 0, 75, 71
1, 228872, Note_on_c, 0, 75, 0
1, 228937, Note_on_c, 0, 74, 67
1, 229002, Note_on_c, 0, 74, 0
1, 229067, Note_on_c, 0, 79, 72
1, 229099, Control_c, 0, 64, 127
1, 229199, Note_on_c, 0, 79, 0
1, 229199, Note_on_c, 0, 77, 68
1, 229261, Control_c, 0, 64, 0
1, 229331, Note_on_c, 0, 77, 0
1, 229331, Note_on_c, 0, 75, 65
1, 229397, Note_on_c, 0, 75, 0
1, 229463, Note_on_c, 0, 74, 62
1, 229530, Note_on_c, 0, 74, 0
1, 229596, Note_on_c, 0, 77, 64
1, 229608, Control_c, 0, 64, 127
1, 229863, Note_on_c, 0, 77, 0
1, 229863, Note_on_c, 0, 75, 60
1, 230019, Control_c, 0, 64, 0
1, 230131, Note_on_c, 0, 75, 0
1, 230131, Note_on_c, 0, 74, 56
1, 230265, Note_on_c, 0, 74, 0
1, 230398, Note_on_c, 0, 72, 52
1, 230532, Note_on_c, 0, 72, 0
1, 230666, Note_on_c, 0, 70, 51
1, 230732, Note_on_c, 0, 70, 0
1, 230801, Note_on_c, 0, 72, 49
1, 230870, Note_on_c, 0, 72, 0
1, 230940, Note_on_c, 0, 73, 48
1, 231011, Note_on_c, 0, 73, 0
1, 231084, Note_on_c, 0, 74, 46
1, 231158, Note_on_c, 0, 74, 0
1, 231233, Note_on_c, 0, 75, 47
1, 231995, Note_on_c, 0, 75, 0
1, 231995, Note_on_c, 0, 76, 40
1, 232972, Note_on_c, 0, 76, 0
1, 232972, Control_c, 0, 91, 127
1, 232972, Control_c, 0, 91, 127
1, 232975, Note_on_c, 0, 77, 60
1, 233244, Note_on_c, 0, 58, 42
1, 233380, Note_on_c, 0, 74, 53
1, 233380, Note_on_c, 0, 77, 0
1, 233516, Note_on_c, 0, 74, 0
1, 233516, Note_on_c, 0, 70, 55
1, 233516, Note_on_c, 0, 58, 0
1, 233519, Note_on_c, 0, 62, 48
1, 233652, Note_on_c, 0, 70, 0
1, 233788, Note_on_c, 0, 70, 55
1, 233788, Note_on_c, 0, 62, 0
1, 233788, Note_on_c, 0, 67, 46
1, 233930, Note_on_c, 0, 70, 0
1, 234071, Note_on_c, 0, 75, 60
1, 234071, Note_on_c, 0, 67, 0
1, 234071, Note_on_c, 0, 60, 52
1, 234207, Note_on_c, 0, 75, 0
1, 234207, Note_on_c, 0, 77, 47
1, 234241, Note_on_c, 0, 77, 0
1, 234241, Note_on_c, 0, 75, 47
1, 234275, Note_on_c, 0, 75, 0
1, 234275, Note_on_c, 0, 74, 47
1, 234309, Note_on_c, 0, 74, 0
1, 234309, Note_on_c, 0, 75, 49
1, 234343, Note_on_c, 0, 75, 0
1, 234343, Note_on_c, 0, 79, 55
1, 234343, Note_on_c, 0, 60, 0
1, 234346, Note_on_c, 0, 63, 47
1, 234616, Note_on_c, 0, 79, 0
1, 234616, Note_on_c, 0, 69, 57
1, 234616, Note_on_c, 0, 63, 0
1, 234619, Note_on_c, 0, 65, 48
1, 234890, Note_on_c, 0, 69, 0
1, 234890, Note_on_c, 0, 65, 0
1, 234890, Note_on_c, 0, 63, 45
1, 235028, Note_on_c, 0, 69, 52
1, 235165, Note_on_c, 0, 69, 0
1, 235165, Note_on_c, 0, 72, 55
1, 235165, Note_on_c, 0, 63, 0
1, 235168, Note_on_c, 0, 62, 53
1, 235301, Note_on_c, 0, 72, 0
1, 235301, Note_on_c, 0, 70, 53
1, 235437, Note_on_c, 0, 70, 0
1, 235437, Note_on_c, 0, 74, 57
1, 235437, Note_on_c, 0, 62, 0
1, 235440, Note_on_c, 0, 65, 47
1, 235440, Note_on_c, 0, 57, 47
1, 235574, Note_on_c, 0, 74, 0
1, 235574, Note_on_c, 0, 72, 54
1, 235710, Note_on_c, 0, 72, 0
1, 235710, Note_on_c, 0, 75, 58
1, 235710, Note_on_c, 0, 57, 0
1, 235713, Note_on_c, 0, 58, 51
1, 235846, Note_on_c, 0, 75, 0
1, 235846, Note_on_c, 0, 74, 56
1, 235982, Note_on_c, 0, 74, 0
1, 235982, Note_on_c, 0, 77, 60
1, 235982, Note_on_c, 0, 58, 0
1, 235985, Note_on_c, 0, 65, 0
1, 235985, Note_on_c, 0, 51, 48
1, 235985, Note_on_c, 0, 60, 48
1, 236120, Note_on_c, 0, 77, 0
1, 236120, Note_on_c, 0, 75, 57
1, 236259, Note_on_c, 0, 75, 0
1, 236259, Note_on_c, 0, 74, 60
1, 236259, Note_on_c, 0, 60, 0
1, 236262, Note_on_c, 0, 51, 0
1, 236262, Note_on_c, 0, 58, 52
1, 236262, Note_on_c, 0, 53, 52
1, 236669, Note_on_c, 0, 74, 0
1, 236669, Note_on_c, 0, 75, 57
1, 236738, Note_on_c, 0, 75, 0
1, 236738, Note_on_c, 0, 74, 54
1, 236806, Note_on_c, 0, 74, 0
1, 236806, Note_on_c, 0, 72, 52
1, 236806, Note_on_c, 0, 58, 0
1, 236809, Note_on_c, 0, 57, 47
1, 236943, Note_on_c, 0, 72, 0
1, 236943, Note_on_c, 0, 74, 58
1, 237084, Note_on_c, 0, 74, 0
1, 237084, Note_on_c, 0, 75, 64
1, 237084, Note_on_c, 0, 57, 0
1, 237087, Note_on_c, 0, 53, 0
1, 237227, Note_on_c, 0, 75, 0
1, 237227, Note_on_c, 0, 76, 69
1, 237370, Note_on_c, 0, 76, 0
1, 237370, Note_on_c, 0, 77, 76
1, 237370, Note_on_c, 0, 46, 62
1, 237438, Note_on_c, 0, 46, 0
1, 237506, Note_on_c, 0, 58, 50
1, 237643, Note_on_c, 0, 58, 0
1, 237643, Note_on_c, 0, 62, 53
1, 237779, Note_on_c, 0, 77, 0
1, 237779, Note_on_c, 0, 75, 68
1, 237779, Note_on_c, 0, 62, 0
1, 237782, Note_on_c, 0, 58, 50
1, 237824, Note_on_c, 0, 75, 0
1, 237824, Note_on_c, 0, 74, 68
1, 237869, Note_on_c, 0, 74, 0
1, 237869, Note_on_c, 0, 72, 68
1, 237915, Note_on_c, 0, 72, 0
1, 237915, Note_on_c, 0, 70, 72
1, 237915, Note_on_c, 0, 58, 0
1, 237918, Note_on_c, 0, 43, 62
1, 237982, Note_on_c, 0, 43, 0
1, 238050, Note_on_c, 0, 70, 0
1, 238050, Note_on_c, 0, 70, 65
1, 238050, Note_on_c, 0, 55, 52
1, 238117, Note_on_c, 0, 70, 0
1, 238185, Note_on_c, 0, 70, 65
1, 238185, Note_on_c, 0, 55, 0
1, 238185, Note_on_c, 0, 58, 54
1, 238254, Note_on_c, 0, 70, 0
1, 238324, Note_on_c, 0, 70, 65
1, 238324, Note_on_c, 0, 58, 0
1, 238324, Note_on_c, 0, 55, 52
1, 238463, Note_on_c, 0, 70, 0
1, 238463, Note_on_c, 0, 75, 78
1, 238463, Note_on_c, 0, 55, 0
1, 238466, Note_on_c, 0, 36, 64
1, 238531, Note_on_c, 0, 36, 0
1, 238599, Note_on_c, 0, 75, 0
1, 238599, Note_on_c, 0, 77, 60
1, 238599, Note_on_c, 0, 48, 51
1, 238633, Note_on_c, 0, 77, 0
1, 238633, Note_on_c, 0, 75, 60
1, 238667, Note_on_c, 0, 75, 0
1, 238667, Note_on_c, 0, 74, 60
1, 238701, Note_on_c, 0, 74, 0
1, 238701, Note_on_c, 0, 75, 60
1, 238735, Note_on_c, 0, 75, 0
1, 238735, Note_on_c, 0, 79, 71
1, 238735, Note_on_c, 0, 48, 0
1, 238738, Note_on_c, 0, 51, 54
1, 238871, Note_on_c, 0, 51, 0
1, 238871, Note_on_c, 0, 48, 52
1, 239007, Note_on_c, 0, 79, 0
1, 239007, Note_on_c, 0, 69, 75
1, 239007, Note_on_c, 0, 48, 0
1, 239010, Note_on_c, 0, 41, 64
1, 239076, Note_on_c, 0, 41, 0
1, 239144, Note_on_c, 0, 53, 53
1, 239280, Note_on_c, 0, 69, 0
1, 239280, Note_on_c, 0, 53, 0
1, 239280, Note_on_c, 0, 57, 54
1, 239416, Note_on_c, 0, 77, 77
1, 239416, Note_on_c, 0, 57, 0
1, 239416, Note_on_c, 0, 53, 54
1, 239552, Note_on_c, 0, 77, 0
1, 239552, Note_on_c, 0, 74, 84
1, 239552, Note_on_c, 0, 53, 0
1, 239555, Note_on_c, 0, 58, 63
1, 239572, Control_c, 0, 64, 127
1, 239643, Note_on_c, 0, 74, 0
1, 239643, Note_on_c, 0, 77, 74
1, 239734, Note_on_c, 0, 77, 0
1, 239734, Note_on_c, 0, 82, 78
1, 239816, Control_c, 0, 64, 0
1, 239824, Note_on_c, 0, 82, 0
1, 239824, Note_on_c, 0, 79, 89
1, 239824, Note_on_c, 0, 58, 0
1, 239827, Note_on_c, 0, 51, 54
1, 239852, Control_c, 0, 64, 127
1, 239915, Note_on_c, 0, 79, 0
1, 239915, Note_on_c, 0, 75, 76
1, 240006, Note_on_c, 0, 75, 0
1, 240006, Note_on_c, 0, 72, 76
1, 240085, Control_c, 0, 64, 0
1, 240097, Note_on_c, 0, 72, 0
1, 240097, Note_on_c, 0, 77, 88
1, 240097, Note_on_c, 0, 51, 0
1, 240100, Note_on_c, 0, 53, 57
1, 240120, Control_c, 0, 64, 127
1, 240187, Note_on_c, 0, 77, 0
1, 240187, Note_on_c, 0, 74, 76
1, 240278, Note_on_c, 0, 74, 0
1, 240278, Note_on_c, 0, 70, 76
1, 240357, Control_c, 0, 64, 0
1, 240369, Note_on_c, 0, 70, 0
1, 240369, Note_on_c, 0, 75, 85
1, 240369, Note_on_c, 0, 53, 0
1, 240372, Note_on_c, 0, 41, 54
1, 240397, Control_c, 0, 64, 127
1, 240461, Note_on_c, 0, 75, 0
1, 240461, Note_on_c, 0, 72, 76
1, 240554, Note_on_c, 0, 72, 0
1, 240554, Note_on_c, 0, 69, 76
1, 240646, Note_on_c, 0, 69, 0
1, 240646, Note_on_c, 0, 70, 90
1, 240646, Note_on_c, 0, 41, 0
1, 240649, Note_on_c, 0, 50, 69
1, 240649, Note_on_c, 0, 58, 69
1, 240649, Control_c, 0, 64, 0
1, 240670, Control_c, 0, 64, 127
1, 240739, Note_on_c, 0, 70, 0
1, 240739, Note_on_c, 0, 82, 86
1, 240831, Note_on_c, 0, 82, 0
1, 240831, Note_on_c, 0, 82, 82
1, 240907, Control_c, 0, 64, 0
1, 240924, Note_on_c, 0, 82, 0
1, 240924, Note_on_c, 0, 82, 87
1, 240924, Note_on_c, 0, 58, 0
1, 240927, Note_on_c, 0, 50, 0
1, 240944, Control_c, 0, 64, 127
1, 241016, Note_on_c, 0, 82, 0
1, 241016, Note_on_c, 0, 82, 79
1, 241108, Note_on_c, 0, 82, 0
1, 241108, Note_on_c, 0, 82, 80
1, 241140, Control_c, 0, 64, 0
1, 241201, Note_on_c, 0, 82, 0
1, 241201, Note_on_c, 0, 82, 86
1, 241291, Note_on_c, 0, 82, 0
1, 241291, Note_on_c, 0, 81, 77
1, 241381, Note_on_c, 0, 81, 0
1, 241381, Note_on_c, 0, 79, 77
1, 241471, Note_on_c, 0, 79, 0
1, 241471, Note_on_c, 0, 77, 81
1, 241471, Note_on_c, 0, 50, 63
1, 241474, Note_on_c, 0, 58, 63
1, 241562, Note_on_c, 0, 77, 0
1, 241562, Note_on_c, 0, 75, 78
1, 241653, Note_on_c, 0, 75, 0
1, 241653, Note_on_c, 0, 74, 77
1, 241745, Note_on_c, 0, 74, 0
1, 241745, Note_on_c, 0, 72, 88
1, 241745, Note_on_c, 0, 58, 0
1, 241748, Note_on_c, 0, 50, 0
1, 241748, Note_on_c, 0, 58, 68
1, 241748, Note_on_c, 0, 51, 68
1, 241806, Control_c, 0, 64, 127
1, 241837, Note_on_c, 0, 72, 0
1, 241837, Note_on_c, 0, 79, 77
1, 241928, Note_on_c, 0, 79, 0
1, 241928, Note_on_c, 0, 79, 77
1, 242020, Note_on_c, 0, 79, 0
1, 242020, Note_on_c, 0, 79, 83
1, 242020, Note_on_c, 0, 51, 0
1, 242023, Note_on_c, 0, 58, 0
1, 242023, Control_c, 0, 64, 0
1, 242069, Control_c, 0, 64, 127
1, 242112, Note_on_c, 0, 79, 0
1, 242112, Note_on_c, 0, 79, 76
1, 242204, Note_on_c, 0, 79, 0
1, 242204, Note_on_c, 0, 79, 76
1, 242292, Control_c, 0, 64, 0
1, 242296, Note_on_c, 0, 79, 0
1, 242296, Note_on_c, 0, 79, 80
1, 242386, Note_on_c, 0, 79, 0
1, 242386, Note_on_c, 0, 77, 76
1, 242476, Note_on_c, 0, 77, 0
1, 242476, Note_on_c, 0, 75, 75
1, 242567, Note_on_c, 0, 75, 0
1, 242567, Note_on_c, 0, 74, 78
1, 242567, Note_on_c, 0, 51, 64
1, 242570, Note_on_c, 0, 57, 64
1, 242657, Note_on_c, 0, 74, 0
1, 242657, Note_on_c, 0, 75, 73
1, 242747, Note_on_c, 0, 75, 0
1, 242747, Note_on_c, 0, 72, 73
1, 242837, Note_on_c, 0, 72, 0
1, 242837, Note_on_c, 0, 76, 81
1, 242837, Note_on_c, 0, 57, 0
1, 242840, Note_on_c, 0, 51, 0
1, 242840, Note_on_c, 0, 50, 69
1, 242840, Note_on_c, 0, 58, 69
1, 242891, Control_c, 0, 64, 127
1, 242905, Note_on_c, 0, 76, 0
1, 242905, Note_on_c, 0, 77, 83
1, 242973, Note_on_c, 0, 77, 0
1, 242973, Note_on_c, 0, 79, 85
1, 243040, Note_on_c, 0, 79, 0
1, 243040, Note_on_c, 0, 77, 83
1, 243108, Note_on_c, 0, 77, 0
1, 243108, Note_on_c, 0, 75, 80
1, 243108, Note_on_c, 0, 50, 0
1, 243111, Note_on_c, 0, 55, 59
1, 243111, Control_c, 0, 64, 0
1, 243128, Control_c, 0, 64, 127
1, 243175, Note_on_c, 0, 75, 0
1, 243175, Note_on_c, 0, 74, 79
1, 243243, Note_on_c, 0, 74, 0
1, 243243, Note_on_c, 0, 72, 77
1, 243311, Note_on_c, 0, 72, 0
1, 243311, Note_on_c, 0, 70, 76
1, 243377, Control_c, 0, 64, 0
1, 243380, Note_on_c, 0, 70, 0
1, 243380, Note_on_c, 0, 74, 74
1, 243380, Note_on_c, 0, 55, 0
1, 243383, Note_on_c, 0, 51, 66
1, 243408, Control_c, 0, 64, 127
1, 243448, Note_on_c, 0, 74, 0
1, 243448, Note_on_c, 0, 72, 68
1, 243517, Note_on_c, 0, 72, 0
1, 243517, Note_on_c, 0, 74, 66
1, 243563, Note_on_c, 0, 74, 0
1, 243563, Note_on_c, 0, 72, 63
1, 243609, Note_on_c, 0, 72, 0
1, 243609, Note_on_c, 0, 74, 66
1, 243651, Control_c, 0, 64, 0
1, 243656, Note_on_c, 0, 74, 0
1, 243656, Note_on_c, 0, 72, 66
1, 243656, Note_on_c, 0, 51, 0
1, 243659, Note_on_c, 0, 58, 0
1, 243659, Note_on_c, 0, 57, 59
1, 243659, Note_on_c, 0, 53, 59
1, 243674, Control_c, 0, 64, 127
1, 243702, Note_on_c, 0, 72, 0
1, 243702, Note_on_c, 0, 74, 66
1, 243748, Note_on_c, 0, 74, 0
1, 243748, Note_on_c, 0, 72, 66
1, 243795, Note_on_c, 0, 72, 0
1, 243795, Note_on_c, 0, 70, 69
1, 243864, Note_on_c, 0, 70, 0
1, 243864, Note_on_c, 0, 72, 69
1, 243910, Control_c, 0, 64, 0
1, 243934, Note_on_c, 0, 72, 0
1, 243934, Note_on_c, 0, 70, 74
1, 243934, Note_on_c, 0, 53, 0
1, 243937, Note_on_c, 0, 57, 0
1, 243937, Note_on_c, 0, 50, 64
1, 243937, Note_on_c, 0, 58, 64
1, 244004, Note_on_c, 0, 70, 0
1, 244075, Note_on_c, 0, 82, 74
1, 244145, Note_on_c, 0, 82, 0
1, 244145, Note_on_c, 0, 81, 72
1, 244215, Note_on_c, 0, 81, 0
1, 244215, Note_on_c, 0, 82, 74
1, 244215, Note_on_c, 0, 58, 0
1, 244218, Note_on_c, 0, 50, 0
1, 244284, Note_on_c, 0, 82, 0
1, 244284, Note_on_c, 0, 81, 70
1, 244352, Note_on_c, 0, 81, 0
1, 244352, Note_on_c, 0, 82, 74
1, 244421, Note_on_c, 0, 82, 0
1, 244421, Note_on_c, 0, 81, 71
1, 244490, Note_on_c, 0, 81, 0
1, 244490, Note_on_c, 0, 82, 74
1, 244558, Note_on_c, 0, 82, 0
1, 244558, Note_on_c, 0, 81, 74
1, 244627, Note_on_c, 0, 81, 0
1, 244627, Note_on_c, 0, 79, 73
1, 244695, Note_on_c, 0, 79, 0
1, 244695, Note_on_c, 0, 77, 72
1, 244764, Note_on_c, 0, 77, 0
1, 244764, Note_on_c, 0, 75, 71
1, 244764, Note_on_c, 0, 58, 54
1, 244767, Note_on_c, 0, 50, 54
1, 244767, Control_c, 0, 64, 127
1, 244832, Note_on_c, 0, 75, 0
1, 244832, Note_on_c, 0, 74, 70
1, 244900, Note_on_c, 0, 74, 0
1, 244900, Note_on_c, 0, 72, 70
1, 244968, Note_on_c, 0, 72, 0
1, 244968, Note_on_c, 0, 70, 69
1, 245000, Control_c, 0, 64, 0
1, 245036, Note_on_c, 0, 70, 0
1, 245036, Note_on_c, 0, 67, 77
1, 245036, Note_on_c, 0, 50, 0
1, 245039, Note_on_c, 0, 58, 0
1, 245039, Note_on_c, 0, 58, 58
1, 245039, Note_on_c, 0, 51, 58
1, 245106, Note_on_c, 0, 67, 0
1, 245176, Note_on_c, 0, 79, 75
1, 245245, Note_on_c, 0, 79, 0
1, 245245, Note_on_c, 0, 78, 72
1, 245314, Note_on_c, 0, 78, 0
1, 245314, Note_on_c, 0, 79, 75
1, 245314, Note_on_c, 0, 51, 0
1, 245317, Note_on_c, 0, 58, 0
1, 245383, Note_on_c, 0, 79, 0
1, 245383, Note_on_c, 0, 78, 71
1, 245452, Note_on_c, 0, 78, 0
1, 245452, Note_on_c, 0, 79, 75
1, 245521, Note_on_c, 0, 79, 0
1, 245521, Note_on_c, 0, 78, 72
1, 245589, Note_on_c, 0, 78, 0
1, 245589, Note_on_c, 0, 79, 74
1, 245659, Note_on_c, 0, 79, 0
1, 245659, Note_on_c, 0, 77, 74
1, 245728, Note_on_c, 0, 77, 0
1, 245728, Note_on_c, 0, 75, 73
1, 245797, Note_on_c, 0, 75, 0
1, 245797, Note_on_c, 0, 74, 72
1, 245866, Note_on_c, 0, 74, 0
1, 245866, Note_on_c, 0, 72, 71
1, 245866, Note_on_c, 0, 51, 55
1, 245869, Note_on_c, 0, 60, 55
1, 245885, Control_c, 0, 64, 127
1, 245934, Note_on_c, 0, 72, 0
1, 245934, Note_on_c, 0, 70, 70
1, 246003, Note_on_c, 0, 70, 0
1, 246003, Note_on_c, 0, 69, 70
1, 246071, Note_on_c, 0, 69, 0
1, 246071, Note_on_c, 0, 67, 69
1, 246139, Note_on_c, 0, 67, 0
1, 246139, Note_on_c, 0, 65, 77
1, 246139, Note_on_c, 0, 60, 0
1, 246142, Note_on_c, 0, 51, 0
1, 246142, Control_c, 0, 64, 0
1, 246142, Note_on_c, 0, 53, 64
1, 246192, Control_c, 0, 64, 127
1, 246278, Note_on_c, 0, 65, 0
1, 246278, Note_on_c, 0, 67, 70
1, 246278, Note_on_c, 0, 53, 0
1, 246281, Note_on_c, 0, 62, 57
1, 246347, Note_on_c, 0, 67, 0
1, 246347, Note_on_c, 0, 69, 72
1, 246403, Control_c, 0, 64, 0
1, 246415, Note_on_c, 0, 69, 0
1, 246415, Note_on_c, 0, 70, 73
1, 246415, Note_on_c, 0, 62, 0
1, 246418, Note_on_c, 0, 58, 64
1, 246435, Control_c, 0, 64, 127
1, 246484, Note_on_c, 0, 70, 0
1, 246484, Note_on_c, 0, 72, 74
1, 246552, Note_on_c, 0, 72, 0
1, 246552, Note_on_c, 0, 74, 76
1, 246552, Note_on_c, 0, 58, 0
1, 246555, Note_on_c, 0, 62, 58
1, 246620, Note_on_c, 0, 74, 0
1, 246620, Note_on_c, 0, 75, 77
1, 246684, Control_c, 0, 64, 0
1, 246688, Note_on_c, 0, 75, 0
1, 246688, Note_on_c, 0, 77, 79
1, 246688, Note_on_c, 0, 62, 0
1, 246691, Note_on_c, 0, 53, 64
1, 246716, Control_c, 0, 64, 127
1, 246756, Note_on_c, 0, 77, 0
1, 246756, Note_on_c, 0, 79, 80
1, 246824, Note_on_c, 0, 79, 0
1, 246824, Note_on_c, 0, 81, 82
1, 246824, Note_on_c, 0, 53, 0
1, 246827, Note_on_c, 0, 62, 58
1, 246891, Note_on_c, 0, 81, 0
1, 246891, Note_on_c, 0, 82, 83
1, 246954, Control_c, 0, 64, 0
1, 246958, Note_on_c, 0, 82, 0
1, 246958, Note_on_c, 0, 84, 84
1, 246958, Note_on_c, 0, 62, 0
1, 246961, Note_on_c, 0, 58, 64
1, 246998, Control_c, 0, 64, 127
1, 247025, Note_on_c, 0, 84, 0
1, 247025, Note_on_c, 0, 86, 86
1, 247092, Note_on_c, 0, 86, 0
1, 247092, Note_on_c, 0, 87, 87
1, 247092, Note_on_c, 0, 58, 0
1, 247095, Note_on_c, 0, 62, 58
1, 247159, Note_on_c, 0, 87, 0
1, 247159, Note_on_c, 0, 89, 89
1, 247225, Note_on_c, 0, 89, 0
1, 247225, Note_on_c, 0, 82, 71
1, 247225, Note_on_c, 0, 62, 0
1, 247228, Control_c, 0, 64, 0
1, 247228, Note_on_c, 0, 53, 64
1, 247256, Control_c, 0, 64, 127
1, 247272, Note_on_c, 0, 82, 0
1, 247272, Note_on_c, 0, 84, 66
1, 247317, Note_on_c, 0, 84, 0
1, 247317, Note_on_c, 0, 86, 67
1, 247363, Note_on_c, 0, 86, 0
1, 247363, Note_on_c, 0, 84, 72
1, 247363, Note_on_c, 0, 53, 0
1, 247366, Note_on_c, 0, 63, 64
1, 247409, Note_on_c, 0, 84, 0
1, 247409, Note_on_c, 0, 86, 69
1, 247455, Note_on_c, 0, 86, 0
1, 247455, Note_on_c, 0, 84, 73
1, 247500, Note_on_c, 0, 84, 0
1, 247500, Note_on_c, 0, 86, 69
1, 247500, Note_on_c, 0, 63, 0
1, 247503, Note_on_c, 0, 60, 67
1, 247545, Note_on_c, 0, 86, 0
1, 247545, Note_on_c, 0, 84, 74
1, 247590, Note_on_c, 0, 84, 0
1, 247590, Note_on_c, 0, 86, 71
1, 247635, Note_on_c, 0, 86, 0
1, 247635, Note_on_c, 0, 84, 75
1, 247635, Note_on_c, 0, 60, 0
1, 247638, Note_on_c, 0, 63, 64
1, 247680, Note_on_c, 0, 84, 0
1, 247680, Note_on_c, 0, 86, 71
1, 247725, Note_on_c, 0, 86, 0
1, 247725, Note_on_c, 0, 84, 75
1, 247771, Note_on_c, 0, 84, 0
1, 247771, Note_on_c, 0, 86, 71
1, 247771, Note_on_c, 0, 63, 0
1, 247774, Note_on_c, 0, 53, 70
1, 247816, Note_on_c, 0, 86, 0
1, 247816, Note_on_c, 0, 84, 77
1, 247861, Note_on_c, 0, 84, 0
1, 247861, Note_on_c, 0, 86, 73
1, 247906, Note_on_c, 0, 86, 0
1, 247906, Note_on_c, 0, 84, 79
1, 247906, Note_on_c, 0, 53, 0
1, 247909, Note_on_c, 0, 63, 64
1, 247951, Note_on_c, 0, 84, 0
1, 247951, Note_on_c, 0, 86, 74
1, 247997, Note_on_c, 0, 86, 0
1, 247997, Note_on_c, 0, 84, 79
1, 248042, Note_on_c, 0, 84, 0
1, 248042, Note_on_c, 0, 86, 82
1, 248042, Note_on_c, 0, 63, 0
1, 248045, Note_on_c, 0, 60, 71
1, 248045, Control_c, 0, 64, 0
1, 248057, Control_c, 0, 64, 127
1, 248111, Note_on_c, 0, 86, 0
1, 248111, Note_on_c, 0, 84, 79
1, 248179, Note_on_c, 0, 84, 0
1, 248179, Note_on_c, 0, 82, 87
1, 248179, Note_on_c, 0, 60, 0
1, 248182, Note_on_c, 0, 63, 66
1, 248248, Note_on_c, 0, 82, 0
1, 248248, Note_on_c, 0, 84, 85
1, 248317, Note_on_c, 0, 84, 0
1, 248317, Note_on_c, 0, 82, 93
1, 248317, Note_on_c, 0, 63, 0
1, 248320, Control_c, 0, 64, 0
1, 248320, Note_on_c, 0, 62, 66
1, 248414, Control_c, 0, 64, 127
1, 248455, Note_on_c, 0, 82, 0
1, 248455, Note_on_c, 0, 62, 0
1, 248455, Note_on_c, 0, 58, 49
1, 248568, Control_c, 0, 64, 0
1, 248592, Note_on_c, 0, 58, 0
1, 248592, Note_on_c, 0, 62, 41
1, 248649, Control_c, 0, 64, 127
1, 248729, Note_on_c, 0, 62, 0
1, 248729, Note_on_c, 0, 58, 34
1, 248866, Note_on_c, 0, 58, 0
1, 248866, Note_on_c, 0, 62, 40
1, 249003, Note_on_c, 0, 62, 0
1, 249003, Note_on_c, 0, 58, 35
1, 249140, Note_on_c, 0, 58, 0
1, 249140, Note_on_c, 0, 62, 40
1, 249277, Note_on_c, 0, 70, 51
1, 249277, Note_on_c, 0, 62, 0
1, 249277, Note_on_c, 0, 58, 35
1, 249421, Note_on_c, 0, 70, 0
1, 249421, Note_on_c, 0, 80, 54
1, 249421, Note_on_c, 0, 58, 0
1, 249424, Control_c, 0, 64, 0
1, 249424, Note_on_c, 0, 65, 43
1, 249467, Control_c, 0, 64, 127
1, 249558, Note_on_c, 0, 65, 0
1, 249558, Note_on_c, 0, 58, 39
1, 249695, Note_on_c, 0, 58, 0
1, 249695, Note_on_c, 0, 65, 44
1, 249832, Note_on_c, 0, 80, 0
1, 249832, Note_on_c, 0, 77, 52
1, 249832, Note_on_c, 0, 65, 0
1, 249835, Note_on_c, 0, 58, 38
1, 249865, Control_c, 0, 64, 0
1, 249969, Note_on_c, 0, 77, 0
1, 249969, Note_on_c, 0, 74, 50
1, 249969, Note_on_c, 0, 58, 0
1, 249972, Note_on_c, 0, 68, 44
1, 250106, Note_on_c, 0, 74, 0
1, 250106, Note_on_c, 0, 68, 0
1, 250106, Note_on_c, 0, 58, 38
1, 250243, Note_on_c, 0, 74, 51
1, 250243, Note_on_c, 0, 58, 0
1, 250243, Note_on_c, 0, 68, 44
1, 250380, Note_on_c, 0, 74, 0
1, 250380, Note_on_c, 0, 68, 0
1, 250380, Note_on_c, 0, 58, 38
1, 250517, Note_on_c, 0, 75, 56
1, 250517, Note_on_c, 0, 58, 0
1, 250517, Note_on_c, 0, 67, 44
1, 250656, Note_on_c, 0, 75, 0
1, 250656, Note_on_c, 0, 67, 0
1, 250656, Note_on_c, 0, 58, 42
1, 250794, Note_on_c, 0, 77, 57
1, 250794, Note_on_c, 0, 58, 0
1, 250794, Note_on_c, 0, 62, 47
1, 250933, Note_on_c, 0, 77, 0
1, 250933, Note_on_c, 0, 62, 0
1, 250933, Note_on_c, 0, 58, 44
1, 251072, Note_on_c, 0, 79, 61
1, 251072, Note_on_c, 0, 58, 0
1, 251072, Note_on_c, 0, 63, 50
1, 251210, Note_on_c, 0, 79, 0
1, 251210, Note_on_c, 0, 63, 0
1, 251210, Note_on_c, 0, 58, 46
1, 251349, Note_on_c, 0, 58, 0
1, 251349, Note_on_c, 0, 63, 44
1, 251488, Note_on_c, 0, 79, 53
1, 251488, Note_on_c, 0, 63, 0
1, 251488, Note_on_c, 0, 58, 44
1, 251624, Note_on_c, 0, 79, 0
1, 251624, Note_on_c, 0, 77, 57
1, 251624, Note_on_c, 0, 58, 0
1, 251627, Note_on_c, 0, 60, 43
1, 251632, Control_c, 0, 64, 127
1, 251761, Note_on_c, 0, 77, 0
1, 251761, Note_on_c, 0, 75, 57
1, 251761, Note_on_c, 0, 60, 0
1, 251764, Note_on_c, 0, 58, 38
1, 251899, Note_on_c, 0, 75, 0
1, 251899, Note_on_c, 0, 74, 56
1, 251899, Note_on_c, 0, 58, 0
1, 251902, Note_on_c, 0, 60, 41
1, 252036, Note_on_c, 0, 74, 0
1, 252036, Note_on_c, 0, 72, 56
1, 252036, Note_on_c, 0, 60, 0
1, 252039, Note_on_c, 0, 58, 40
1, 252166, Control_c, 0, 64, 0
1, 252174, Note_on_c, 0, 72, 0
1, 252174, Note_on_c, 0, 70, 55
1, 252174, Note_on_c, 0, 58, 0
1, 252177, Note_on_c, 0, 60, 48
1, 252238, Control_c, 0, 64, 127
1, 252311, Note_on_c, 0, 70, 0
1, 252311, Note_on_c, 0, 69, 55
1, 252311, Note_on_c, 0, 60, 0
1, 252314, Note_on_c, 0, 58, 43
1, 252448, Note_on_c, 0, 69, 0
1, 252448, Note_on_c, 0, 75, 62
1, 252448, Note_on_c, 0, 58, 0
1, 252451, Note_on_c, 0, 60, 43
1, 252590, Note_on_c, 0, 75, 0
1, 252590, Note_on_c, 0, 69, 58
1, 252590, Note_on_c, 0, 60, 0
1, 252593, Note_on_c, 0, 58, 39
1, 252731, Note_on_c, 0, 69, 0
1, 252731, Note_on_c, 0, 70, 58
1, 252731, Note_on_c, 0, 58, 0
1, 252734, Control_c, 0, 64, 0
1, 252734, Note_on_c, 0, 58, 45
1, 252734, Note_on_c, 0, 62, 45
1, 252799, Note_on_c, 0, 70, 0
1, 252867, Note_on_c, 0, 72, 60
1, 252935, Note_on_c, 0, 72, 0
1, 253003, Note_on_c, 0, 74, 61
1, 253003, Note_on_c, 0, 62, 0
1, 253003, Note_on_c, 0, 58, 0
1, 253071, Note_on_c, 0, 74, 0
1, 253139, Note_on_c, 0, 75, 63
1, 253207, Note_on_c, 0, 75, 0
1, 253275, Note_on_c, 0, 76, 65
1, 253344, Note_on_c, 0, 76, 0
1, 253413, Note_on_c, 0, 77, 67
1, 253482, Note_on_c, 0, 77, 0
1, 253552, Note_on_c, 0, 78, 69
1, 253622, Note_on_c, 0, 78, 0
1, 253693, Note_on_c, 0, 79, 71
1, 253764, Note_on_c, 0, 79, 0
1, 253835, Note_on_c, 0, 80, 73
1, 253835, Note_on_c, 0, 65, 42
1, 253843, Control_c, 0, 64, 127
1, 253971, Note_on_c, 0, 65, 0
1, 253971, Note_on_c, 0, 58, 38
1, 254107, Note_on_c, 0, 58, 0
1, 254107, Note_on_c, 0, 65, 42
1, 254244, Note_on_c, 0, 80, 0
1, 254244, Note_on_c, 0, 79, 58
1, 254244, Note_on_c, 0, 65, 0
1, 254247, Note_on_c, 0, 58, 39
1, 254289, Note_on_c, 0, 79, 0
1, 254289, Note_on_c, 0, 77, 58
1, 254312, Control_c, 0, 64, 0
1, 254334, Note_on_c, 0, 77, 0
1, 254334, Note_on_c, 0, 75, 58
1, 254380, Note_on_c, 0, 75, 0
1, 254380, Note_on_c, 0, 74, 63
1, 254380, Note_on_c, 0, 58, 0
1, 254383, Note_on_c, 0, 68, 42
1, 254448, Note_on_c, 0, 74, 0
1, 254516, Note_on_c, 0, 74, 60
1, 254516, Note_on_c, 0, 68, 0
1, 254516, Note_on_c, 0, 58, 39
1, 254584, Note_on_c, 0, 74, 0
1, 254652, Note_on_c, 0, 74, 64
1, 254652, Note_on_c, 0, 58, 0
1, 254652, Note_on_c, 0, 68, 42
1, 254720, Note_on_c, 0, 74, 0
1, 254788, Note_on_c, 0, 74, 60
1, 254788, Note_on_c, 0, 68, 0
1, 254788, Note_on_c, 0, 58, 38
1, 254856, Note_on_c, 0, 74, 0
1, 254924, Note_on_c, 0, 75, 66
1, 254924, Note_on_c, 0, 58, 0
1, 254924, Note_on_c, 0, 67, 42
1, 254931, Control_c, 0, 64, 127
1, 255062, Note_on_c, 0, 67, 0
1, 255062, Note_on_c, 0, 58, 42
1, 255196, Control_c, 0, 64, 0
1, 255200, Note_on_c, 0, 75, 0
1, 255200, Note_on_c, 0, 79, 59
1, 255200, Note_on_c, 0, 58, 0
1, 255203, Note_on_c, 0, 62, 46
1, 255212, Control_c, 0, 64, 127
1, 255246, Note_on_c, 0, 79, 0
1, 255246, Note_on_c, 0, 77, 59
1, 255292, Note_on_c, 0, 77, 0
1, 255292, Note_on_c, 0, 79, 60
1, 255338, Note_on_c, 0, 79, 0
1, 255338, Note_on_c, 0, 77, 60
1, 255338, Note_on_c, 0, 62, 0
1, 255341, Note_on_c, 0, 58, 42
1, 255407, Note_on_c, 0, 77, 0
1, 255407, Note_on_c, 0, 75, 59
1, 255441, Note_on_c, 0, 75, 0
1, 255441, Note_on_c, 0, 77, 63
1, 255441, Control_c, 0, 64, 0
1, 255476, Note_on_c, 0, 77, 0
1, 255476, Note_on_c, 0, 79, 66
1, 255476, Note_on_c, 0, 58, 0
1, 255479, Note_on_c, 0, 63, 45
1, 255613, Note_on_c, 0, 63, 0
1, 255613, Note_on_c, 0, 58, 34
1, 255751, Note_on_c, 0, 79, 0
1, 255751, Note_on_c, 0, 58, 0
1, 255751, Note_on_c, 0, 63, 39
1, 255889, Note_on_c, 0, 79, 55
1, 255889, Note_on_c, 0, 63, 0
1, 255889, Note_on_c, 0, 58, 35
1, 256027, Note_on_c, 0, 79, 0
1, 256027, Note_on_c, 0, 77, 59
1, 256027, Note_on_c, 0, 58, 0
1, 256030, Note_on_c, 0, 60, 45
1, 256035, Control_c, 0, 64, 127
1, 256165, Note_on_c, 0, 77, 0
1, 256165, Note_on_c, 0, 75, 58
1, 256165, Note_on_c, 0, 60, 0
1, 256168, Note_on_c, 0, 58, 42
1, 256303, Note_on_c, 0, 75, 0
1, 256303, Note_on_c, 0, 74, 57
1, 256303, Note_on_c, 0, 58, 0
1, 256306, Note_on_c, 0, 60, 45
1, 256440, Note_on_c, 0, 74, 0
1, 256440, Note_on_c, 0, 72, 57
1, 256440, Note_on_c, 0, 60, 0
1, 256443, Note_on_c, 0, 58, 42
1, 256578, Note_on_c, 0, 72, 0
1, 256578, Note_on_c, 0, 70, 56
1, 256578, Note_on_c, 0, 58, 0
1, 256581, Note_on_c, 0, 60, 46
1, 256603, Control_c, 0, 64, 0
1, 256676, Control_c, 0, 64, 127
1, 256718, Note_on_c, 0, 70, 0
1, 256718, Note_on_c, 0, 69, 56
1, 256718, Note_on_c, 0, 60, 0
1, 256721, Note_on_c, 0, 58, 42
1, 256857, Note_on_c, 0, 69, 0
1, 256857, Note_on_c, 0, 75, 60
1, 256857, Note_on_c, 0, 58, 0
1, 256860, Note_on_c, 0, 60, 46
1, 257000, Note_on_c, 0, 75, 0
1, 257000, Note_on_c, 0, 69, 57
1, 257000, Note_on_c, 0, 60, 0
1, 257003, Note_on_c, 0, 58, 44
1, 257059, Control_c, 0, 64, 0
1, 257143, Note_on_c, 0, 69, 0
1, 257143, Note_on_c, 0, 70, 61
1, 257143, Note_on_c, 0, 58, 0
1, 257146, Note_on_c, 0, 62, 49
1, 257146, Note_on_c, 0, 58, 49
1, 257430, Note_on_c, 0, 70, 0
1, 257430, Note_on_c, 0, 58, 0
1, 257430, Note_on_c, 0, 62, 0
1, 257573, Note_on_c, 0, 74, 53
1, 257711, Note_on_c, 0, 74, 0
1, 257711, Note_on_c, 0, 77, 56
1, 257711, Note_on_c, 0, 60, 39
1, 257714, Note_on_c, 0, 53, 39
1, 257752, Control_c, 0, 64, 127
1, 257850, Note_on_c, 0, 77, 0
1, 257850, Note_on_c, 0, 75, 54
1, 257989, Note_on_c, 0, 75, 0
1, 257989, Note_on_c, 0, 72, 54
1, 257989, Note_on_c, 0, 60, 0
1, 257992, Note_on_c, 0, 63, 39
1, 258129, Note_on_c, 0, 72, 0
1, 258129, Note_on_c, 0, 69, 54
1, 258146, Control_c, 0, 64, 0
1, 258270, Note_on_c, 0, 69, 0
1, 258270, Note_on_c, 0, 70, 57
1, 258270, Note_on_c, 0, 63, 0
1, 258273, Note_on_c, 0, 53, 0
1, 258273, Note_on_c, 0, 62, 46
1, 258273, Note_on_c, 0, 58, 46
1, 258552, Note_on_c, 0, 70, 0
1, 258552, Note_on_c, 0, 58, 0
1, 258552, Note_on_c, 0, 62, 0
1, 258693, Note_on_c, 0, 74, 50
1, 258767, Note_on_c, 0, 74, 0
1, 258767, Note_on_c, 0, 70, 48
1, 258841, Note_on_c, 0, 70, 0
1, 258841, Note_on_c, 0, 77, 54
1, 258841, Note_on_c, 0, 60, 37
1, 258844, Note_on_c, 0, 53, 37
1, 258870, Control_c, 0, 64, 127
1, 258984, Note_on_c, 0, 77, 0
1, 258984, Note_on_c, 0, 75, 51
1, 259128, Note_on_c, 0, 75, 0
1, 259128, Note_on_c, 0, 72, 51
1, 259128, Note_on_c, 0, 60, 0
1, 259131, Note_on_c, 0, 63, 37
1, 259275, Note_on_c, 0, 72, 0
1, 259275, Note_on_c, 0, 69, 49
1, 259356, Control_c, 0, 64, 0
1, 259421, Note_on_c, 0, 69, 0
1, 259421, Note_on_c, 0, 70, 55
1, 259421, Note_on_c, 0, 63, 0
1, 259424, Note_on_c, 0, 53, 0
1, 259424, Note_on_c, 0, 58, 43
1, 259424, Note_on_c, 0, 62, 43
1, 259732, Note_on_c, 0, 70, 0
1, 259732, Note_on_c, 0, 62, 0
1, 259732, Note_on_c, 0, 58, 0
1, 259879, Note_on_c, 0, 77, 91
1, 260026, Note_on_c, 0, 77, 0
1, 260026, Note_on_c, 0, 75, 81
1, 260026, Note_on_c, 0, 72, 81
1, 260029, Note_on_c, 0, 77, 96
1, 260029, Note_on_c, 0, 81, 96
1, 260029, Note_on_c, 0, 53, 84
1, 260032, Note_on_c, 0, 41, 71
1, 260173, Note_on_c, 0, 81, 0
1, 260173, Note_on_c, 0, 75, 0
1, 260173, Note_on_c, 0, 72, 0
1, 260176, Note_on_c, 0, 77, 0
1, 260176, Note_on_c, 0, 41, 0
1, 260176, Note_on_c, 0, 53, 0
1, 260320, Note_on_c, 0, 72, 81
1, 260320, Note_on_c, 0, 81, 96
1, 260320, Note_on_c, 0, 75, 81
1, 260323, Note_on_c, 0, 77, 96
1, 260323, Note_on_c, 0, 41, 71
1, 260323, Note_on_c, 0, 53, 84
1, 260472, Note_on_c, 0, 77, 0
1, 260472, Note_on_c, 0, 72, 0
1, 260472, Note_on_c, 0, 81, 0
1, 260475, Note_on_c, 0, 75, 0
1, 260475, Note_on_c, 0, 53, 0
1, 260475, Note_on_c, 0, 41, 0
1, 260624, Note_on_c, 0, 70, 84
1, 260624, Note_on_c, 0, 82, 99
1, 260624, Note_on_c, 0, 74, 84
1, 260627, Note_on_c, 0, 77, 99
1, 260627, Note_on_c, 0, 34, 75
1, 260627, Note_on_c, 0, 46, 89
1, 260776, Note_on_c, 0, 77, 0
1, 260776, Note_on_c, 0, 70, 0
1, 260776, Note_on_c, 0, 82, 0
1, 260779, Note_on_c, 0, 74, 0
1, 260779, Note_on_c, 0, 46, 0
1, 260779, Note_on_c, 0, 34, 0
1, 262277, End_track
0, 0, End_of_file
