0, 0, Header, 1, 5, 384
1, 0, Start_track
1, 0, Title_t, "        "
1, 0, Sequencer_specific, 3, 0, 0, 65
1, 0, Time_signature, 4, 2, 24, 8
1, 0, Key_signature, 0, "major"
1, 0, Tempo, 500000
1, 474624, Tempo, 566038
1, 486912, Tempo, 750000
1, 491136, Tempo, 1500000
1, 491616, Tempo, 750000
1, 496128, Tempo, 476190
1, 500736, Tempo, 769231
1, 505344, Tempo, 500000
1, 505344, End_track
2, 0, Start_track
2, 0, Title_t, "Mozart - Piano"
2, 0, Control_c, 0, 0, 0
2, 0, Control_c, 0, 7, 110
2, 0, Control_c, 0, 10, 89
2, 0, Control_c, 0, 91, 63
2, 0, Control_c, 0, 93, 63
2, 0, Control_c, 0, 121, 0
2, 0, Control_c, 0, 32, 0
2, 1, Program_c, 0, 0
2, 96, Control_c, 0, 10, 83
2, 192, Control_c, 0, 91, 63
2, 240, Control_c, 0, 93, 40
2, 288, Program_c, 0, 0
2, 90624, Note_on_c, 0, 70, 97
2, 90668, Note_on_c, 0, 70, 0
2, 90672, Note_on_c, 0, 74, 97
2, 90716, Note_on_c, 0, 74, 0
2, 90720, Note_on_c, 0, 77, 97
2, 90764, Note_on_c, 0, 77, 0
2, 90768, Note_on_c, 0, 82, 104
2, 91020, Note_on_c, 0, 82, 0
2, 91392, Note_on_c, 0, 82, 104
2, 92156, Note_on_c, 0, 82, 0
2, 92160, Note_on_c, 0, 81, 92
2, 92224, Note_on_c, 0, 81, 0
2, 92256, Note_on_c, 0, 86, 92
2, 92320, Note_on_c, 0, 86, 0
2, 92352, Note_on_c, 0, 84, 92
2, 92416, Note_on_c, 0, 84, 0
2, 92448, Note_on_c, 0, 82, 92
2, 92512, Note_on_c, 0, 82, 0
2, 92544, Note_on_c, 0, 81, 92
2, 92608, Note_on_c, 0, 81, 0
2, 92640, Note_on_c, 0, 79, 92
2, 92704, Note_on_c, 0, 79, 0
2, 92736, Note_on_c, 0, 77, 92
2, 92800, Note_on_c, 0, 77, 0
2, 92832, Note_on_c, 0, 76, 92
2, 92896, Note_on_c, 0, 76, 0
2, 92928, Note_on_c, 0, 77, 92
2, 92992, Note_on_c, 0, 77, 0
2, 93024, Note_on_c, 0, 79, 92
2, 93088, Note_on_c, 0, 79, 0
2, 93120, Note_on_c, 0, 77, 92
2, 93184, Note_on_c, 0, 77, 0
2, 93216, Note_on_c, 0, 75, 92
2, 93280, Note_on_c, 0, 75, 0
2, 93312, Note_on_c, 0, 74, 92
2, 93376, Note_on_c, 0, 74, 0
2, 93408, Note_on_c, 0, 72, 92
2, 93472, Note_on_c, 0, 72, 0
2, 93504, Note_on_c, 0, 70, 92
2, 93568, Note_on_c, 0, 70, 0
2, 93600, Note_on_c, 0, 69, 92
2, 93664, Note_on_c, 0, 69, 0
2, 93696, Note_on_c, 0, 72, 92
2, 94080, Note_on_c, 0, 72, 0
2, 94272, Note_on_c, 0, 70, 92
2, 94400, Note_on_c, 0, 70, 0
2, 94464, Note_on_c, 0, 70, 92
2, 94976, Note_on_c, 0, 70, 0
2, 95232, Note_on_c, 0, 70, 92
2, 95296, Note_on_c, 0, 70, 0
2, 95328, Note_on_c, 0, 74, 92
2, 95392, Note_on_c, 0, 74, 0
2, 95424, Note_on_c, 0, 72, 92
2, 95488, Note_on_c, 0, 72, 0
2, 95520, Note_on_c, 0, 70, 92
2, 95584, Note_on_c, 0, 70, 0
2, 95616, Note_on_c, 0, 69, 92
2, 95680, Note_on_c, 0, 69, 0
2, 95712, Note_on_c, 0, 67, 92
2, 95776, Note_on_c, 0, 67, 0
2, 95808, Note_on_c, 0, 65, 92
2, 95872, Note_on_c, 0, 65, 0
2, 95904, Note_on_c, 0, 64, 92
2, 95968, Note_on_c, 0, 64, 0
2, 96000, Note_on_c, 0, 65, 92
2, 96064, Note_on_c, 0, 65, 0
2, 96096, Note_on_c, 0, 67, 92
2, 96160, Note_on_c, 0, 67, 0
2, 96192, Note_on_c, 0, 65, 92
2, 96256, Note_on_c, 0, 65, 0
2, 96288, Note_on_c, 0, 63, 92
2, 96352, Note_on_c, 0, 63, 0
2, 98304, Note_on_c, 0, 62, 92
2, 98368, Note_on_c, 0, 62, 0
2, 98400, Note_on_c, 0, 63, 92
2, 98464, Note_on_c, 0, 63, 0
2, 98496, Note_on_c, 0, 62, 92
2, 98560, Note_on_c, 0, 62, 0
2, 98592, Note_on_c, 0, 60, 92
2, 98656, Note_on_c, 0, 60, 0
2, 98688, Note_on_c, 0, 62, 92
2, 98752, Note_on_c, 0, 62, 0
2, 98784, Note_on_c, 0, 58, 92
2, 98848, Note_on_c, 0, 58, 0
2, 98880, Note_on_c, 0, 65, 92
2, 98944, Note_on_c, 0, 65, 0
2, 98976, Note_on_c, 0, 62, 92
2, 99040, Note_on_c, 0, 62, 0
2, 99072, Note_on_c, 0, 63, 92
2, 99136, Note_on_c, 0, 63, 0
2, 99168, Note_on_c, 0, 62, 92
2, 99232, Note_on_c, 0, 62, 0
2, 99264, Note_on_c, 0, 60, 92
2, 99328, Note_on_c, 0, 60, 0
2, 99360, Note_on_c, 0, 62, 92
2, 99424, Note_on_c, 0, 62, 0
2, 99456, Note_on_c, 0, 63, 92
2, 99520, Note_on_c, 0, 63, 0
2, 99552, Note_on_c, 0, 65, 92
2, 99616, Note_on_c, 0, 65, 0
2, 99648, Note_on_c, 0, 67, 92
2, 99712, Note_on_c, 0, 67, 0
2, 99744, Note_on_c, 0, 69, 92
2, 99808, Note_on_c, 0, 69, 0
2, 99840, Note_on_c, 0, 70, 92
2, 99904, Note_on_c, 0, 70, 0
2, 99936, Note_on_c, 0, 72, 92
2, 100000, Note_on_c, 0, 72, 0
2, 100032, Note_on_c, 0, 70, 92
2, 100096, Note_on_c, 0, 70, 0
2, 100128, Note_on_c, 0, 69, 92
2, 100192, Note_on_c, 0, 69, 0
2, 100224, Note_on_c, 0, 70, 92
2, 100288, Note_on_c, 0, 70, 0
2, 100320, Note_on_c, 0, 65, 92
2, 100384, Note_on_c, 0, 65, 0
2, 100416, Note_on_c, 0, 74, 92
2, 100480, Note_on_c, 0, 74, 0
2, 100512, Note_on_c, 0, 70, 92
2, 100576, Note_on_c, 0, 70, 0
2, 100608, Note_on_c, 0, 72, 92
2, 100672, Note_on_c, 0, 72, 0
2, 100704, Note_on_c, 0, 74, 92
2, 100768, Note_on_c, 0, 74, 0
2, 100800, Note_on_c, 0, 72, 92
2, 100864, Note_on_c, 0, 72, 0
2, 100896, Note_on_c, 0, 70, 92
2, 100960, Note_on_c, 0, 70, 0
2, 100992, Note_on_c, 0, 72, 92
2, 101056, Note_on_c, 0, 72, 0
2, 101088, Note_on_c, 0, 69, 92
2, 101152, Note_on_c, 0, 69, 0
2, 101184, Note_on_c, 0, 75, 92
2, 101248, Note_on_c, 0, 75, 0
2, 101280, Note_on_c, 0, 72, 92
2, 101344, Note_on_c, 0, 72, 0
2, 101376, Note_on_c, 0, 74, 92
2, 101440, Note_on_c, 0, 74, 0
2, 101472, Note_on_c, 0, 75, 92
2, 101536, Note_on_c, 0, 75, 0
2, 101568, Note_on_c, 0, 74, 92
2, 101632, Note_on_c, 0, 74, 0
2, 101664, Note_on_c, 0, 72, 92
2, 101728, Note_on_c, 0, 72, 0
2, 101760, Note_on_c, 0, 74, 92
2, 101824, Note_on_c, 0, 74, 0
2, 101856, Note_on_c, 0, 70, 92
2, 101920, Note_on_c, 0, 70, 0
2, 101952, Note_on_c, 0, 77, 92
2, 102016, Note_on_c, 0, 77, 0
2, 102048, Note_on_c, 0, 74, 92
2, 102112, Note_on_c, 0, 74, 0
2, 102144, Note_on_c, 0, 75, 92
2, 102208, Note_on_c, 0, 75, 0
2, 102240, Note_on_c, 0, 74, 92
2, 102304, Note_on_c, 0, 74, 0
2, 102320, Note_on_c, 0, 72, 92
2, 102384, Note_on_c, 0, 72, 0
2, 102432, Note_on_c, 0, 74, 92
2, 102496, Note_on_c, 0, 74, 0
2, 102528, Note_on_c, 0, 75, 92
2, 102592, Note_on_c, 0, 75, 0
2, 102624, Note_on_c, 0, 77, 92
2, 102688, Note_on_c, 0, 77, 0
2, 102720, Note_on_c, 0, 79, 92
2, 102784, Note_on_c, 0, 79, 0
2, 102816, Note_on_c, 0, 81, 92
2, 102880, Note_on_c, 0, 81, 0
2, 102912, Note_on_c, 0, 82, 92
2, 102976, Note_on_c, 0, 82, 0
2, 103008, Note_on_c, 0, 70, 92
2, 103072, Note_on_c, 0, 70, 0
2, 103104, Note_on_c, 0, 72, 92
2, 103168, Note_on_c, 0, 72, 0
2, 103200, Note_on_c, 0, 74, 92
2, 103264, Note_on_c, 0, 74, 0
2, 103296, Note_on_c, 0, 75, 92
2, 103360, Note_on_c, 0, 75, 0
2, 103392, Note_on_c, 0, 77, 92
2, 103456, Note_on_c, 0, 77, 0
2, 103488, Note_on_c, 0, 79, 92
2, 103552, Note_on_c, 0, 79, 0
2, 103584, Note_on_c, 0, 81, 92
2, 103648, Note_on_c, 0, 81, 0
2, 103680, Note_on_c, 0, 82, 92
2, 103744, Note_on_c, 0, 82, 0
2, 103776, Note_on_c, 0, 58, 92
2, 103776, Note_on_c, 0, 74, 92
2, 103840, Note_on_c, 0, 74, 0
2, 103840, Note_on_c, 0, 58, 0
2, 103872, Note_on_c, 0, 60, 92
2, 103872, Note_on_c, 0, 75, 92
2, 103936, Note_on_c, 0, 75, 0
2, 103936, Note_on_c, 0, 60, 0
2, 103968, Note_on_c, 0, 62, 92
2, 103968, Note_on_c, 0, 77, 92
2, 104032, Note_on_c, 0, 77, 0
2, 104032, Note_on_c, 0, 62, 0
2, 104064, Note_on_c, 0, 63, 92
2, 104064, Note_on_c, 0, 79, 92
2, 104128, Note_on_c, 0, 79, 0
2, 104128, Note_on_c, 0, 63, 0
2, 104160, Note_on_c, 0, 65, 92
2, 104160, Note_on_c, 0, 81, 92
2, 104224, Note_on_c, 0, 81, 0
2, 104224, Note_on_c, 0, 65, 0
2, 104256, Note_on_c, 0, 82, 92
2, 104256, Note_on_c, 0, 67, 92
2, 104320, Note_on_c, 0, 67, 0
2, 104320, Note_on_c, 0, 82, 0
2, 104352, Note_on_c, 0, 69, 92
2, 104352, Note_on_c, 0, 84, 92
2, 104416, Note_on_c, 0, 84, 0
2, 104416, Note_on_c, 0, 69, 0
2, 104448, Note_on_c, 0, 70, 92
2, 104448, Note_on_c, 0, 86, 92
2, 104512, Note_on_c, 0, 86, 0
2, 104512, Note_on_c, 0, 70, 0
2, 104544, Note_on_c, 0, 62, 92
2, 104544, Note_on_c, 0, 77, 92
2, 104608, Note_on_c, 0, 77, 0
2, 104608, Note_on_c, 0, 62, 0
2, 104640, Note_on_c, 0, 79, 92
2, 104640, Note_on_c, 0, 63, 92
2, 104704, Note_on_c, 0, 63, 0
2, 104704, Note_on_c, 0, 79, 0
2, 104736, Note_on_c, 0, 65, 92
2, 104736, Note_on_c, 0, 81, 92
2, 104800, Note_on_c, 0, 81, 0
2, 104800, Note_on_c, 0, 65, 0
2, 104832, Note_on_c, 0, 67, 92
2, 104832, Note_on_c, 0, 82, 92
2, 104896, Note_on_c, 0, 82, 0
2, 104896, Note_on_c, 0, 67, 0
2, 104928, Note_on_c, 0, 69, 92
2, 104928, Note_on_c, 0, 84, 92
2, 104992, Note_on_c, 0, 84, 0
2, 104992, Note_on_c, 0, 69, 0
2, 105024, Note_on_c, 0, 86, 92
2, 105024, Note_on_c, 0, 70, 92
2, 105088, Note_on_c, 0, 70, 0
2, 105088, Note_on_c, 0, 86, 0
2, 105120, Note_on_c, 0, 87, 92
2, 105120, Note_on_c, 0, 72, 92
2, 105184, Note_on_c, 0, 72, 0
2, 105184, Note_on_c, 0, 87, 0
2, 105216, Note_on_c, 0, 74, 92
2, 105216, Note_on_c, 0, 89, 92
2, 105280, Note_on_c, 0, 89, 0
2, 105280, Note_on_c, 0, 74, 0
2, 105312, Note_on_c, 0, 86, 92
2, 105312, Note_on_c, 0, 70, 92
2, 105376, Note_on_c, 0, 70, 0
2, 105376, Note_on_c, 0, 86, 0
2, 105408, Note_on_c, 0, 74, 92
2, 105408, Note_on_c, 0, 89, 92
2, 105472, Note_on_c, 0, 89, 0
2, 105472, Note_on_c, 0, 74, 0
2, 105504, Note_on_c, 0, 70, 92
2, 105504, Note_on_c, 0, 86, 92
2, 105568, Note_on_c, 0, 86, 0
2, 105568, Note_on_c, 0, 70, 0
2, 105600, Note_on_c, 0, 74, 92
2, 105600, Note_on_c, 0, 89, 92
2, 105664, Note_on_c, 0, 89, 0
2, 105664, Note_on_c, 0, 74, 0
2, 105696, Note_on_c, 0, 70, 92
2, 105696, Note_on_c, 0, 86, 92
2, 105760, Note_on_c, 0, 86, 0
2, 105760, Note_on_c, 0, 70, 0
2, 105792, Note_on_c, 0, 74, 92
2, 105792, Note_on_c, 0, 89, 92
2, 105856, Note_on_c, 0, 89, 0
2, 105856, Note_on_c, 0, 74, 0
2, 105888, Note_on_c, 0, 70, 92
2, 105888, Note_on_c, 0, 86, 92
2, 105952, Note_on_c, 0, 86, 0
2, 105952, Note_on_c, 0, 70, 0
2, 105984, Note_on_c, 0, 74, 92
2, 105984, Note_on_c, 0, 89, 92
2, 106112, Note_on_c, 0, 89, 0
2, 106176, Note_on_c, 0, 86, 92
2, 106240, Note_on_c, 0, 74, 0
2, 106304, Note_on_c, 0, 86, 0
2, 106368, Note_on_c, 0, 82, 92
2, 106496, Note_on_c, 0, 82, 0
2, 106560, Note_on_c, 0, 77, 92
2, 106688, Note_on_c, 0, 77, 0
2, 106752, Note_on_c, 0, 86, 92
2, 106880, Note_on_c, 0, 86, 0
2, 106944, Note_on_c, 0, 82, 92
2, 107072, Note_on_c, 0, 82, 0
2, 107136, Note_on_c, 0, 77, 92
2, 107264, Note_on_c, 0, 77, 0
2, 107328, Note_on_c, 0, 74, 92
2, 107456, Note_on_c, 0, 74, 0
2, 107520, Note_on_c, 0, 82, 92
2, 107564, Note_on_c, 0, 82, 0
2, 107568, Note_on_c, 0, 84, 92
2, 107612, Note_on_c, 0, 84, 0
2, 107616, Note_on_c, 0, 82, 92
2, 107660, Note_on_c, 0, 82, 0
2, 107664, Note_on_c, 0, 84, 92
2, 107708, Note_on_c, 0, 84, 0
2, 107712, Note_on_c, 0, 82, 92
2, 107756, Note_on_c, 0, 82, 0
2, 107760, Note_on_c, 0, 84, 92
2, 107804, Note_on_c, 0, 84, 0
2, 107808, Note_on_c, 0, 82, 92
2, 107852, Note_on_c, 0, 82, 0
2, 107856, Note_on_c, 0, 84, 92
2, 107900, Note_on_c, 0, 84, 0
2, 107904, Note_on_c, 0, 82, 92
2, 107948, Note_on_c, 0, 82, 0
2, 107952, Note_on_c, 0, 84, 92
2, 107996, Note_on_c, 0, 84, 0
2, 108000, Note_on_c, 0, 82, 92
2, 108044, Note_on_c, 0, 82, 0
2, 108048, Note_on_c, 0, 84, 92
2, 108092, Note_on_c, 0, 84, 0
2, 108096, Note_on_c, 0, 82, 92
2, 108140, Note_on_c, 0, 82, 0
2, 108144, Note_on_c, 0, 84, 92
2, 108188, Note_on_c, 0, 84, 0
2, 108192, Note_on_c, 0, 82, 92
2, 108236, Note_on_c, 0, 82, 0
2, 108240, Note_on_c, 0, 84, 92
2, 108284, Note_on_c, 0, 84, 0
2, 108288, Note_on_c, 0, 81, 92
2, 108332, Note_on_c, 0, 81, 0
2, 108336, Note_on_c, 0, 82, 92
2, 108380, Note_on_c, 0, 82, 0
2, 108384, Note_on_c, 0, 70, 92
2, 108428, Note_on_c, 0, 70, 0
2, 108432, Note_on_c, 0, 72, 92
2, 108476, Note_on_c, 0, 72, 0
2, 108480, Note_on_c, 0, 70, 92
2, 108524, Note_on_c, 0, 70, 0
2, 108528, Note_on_c, 0, 72, 92
2, 108572, Note_on_c, 0, 72, 0
2, 108576, Note_on_c, 0, 70, 92
2, 108620, Note_on_c, 0, 70, 0
2, 108624, Note_on_c, 0, 72, 92
2, 108668, Note_on_c, 0, 72, 0
2, 108672, Note_on_c, 0, 70, 92
2, 108716, Note_on_c, 0, 70, 0
2, 108720, Note_on_c, 0, 72, 92
2, 108764, Note_on_c, 0, 72, 0
2, 108768, Note_on_c, 0, 70, 92
2, 108812, Note_on_c, 0, 70, 0
2, 108816, Note_on_c, 0, 72, 92
2, 108860, Note_on_c, 0, 72, 0
2, 108864, Note_on_c, 0, 70, 92
2, 108908, Note_on_c, 0, 70, 0
2, 108912, Note_on_c, 0, 72, 92
2, 108956, Note_on_c, 0, 72, 0
2, 108960, Note_on_c, 0, 70, 92
2, 109004, Note_on_c, 0, 70, 0
2, 109008, Note_on_c, 0, 72, 92
2, 109052, Note_on_c, 0, 72, 0
2, 109056, Note_on_c, 0, 70, 92
2, 109100, Note_on_c, 0, 70, 0
2, 109104, Note_on_c, 0, 72, 92
2, 109148, Note_on_c, 0, 72, 0
2, 109152, Note_on_c, 0, 82, 92
2, 109196, Note_on_c, 0, 82, 0
2, 109200, Note_on_c, 0, 84, 92
2, 109244, Note_on_c, 0, 84, 0
2, 109248, Note_on_c, 0, 82, 92
2, 109292, Note_on_c, 0, 82, 0
2, 109296, Note_on_c, 0, 84, 92
2, 109340, Note_on_c, 0, 84, 0
2, 109344, Note_on_c, 0, 82, 92
2, 109388, Note_on_c, 0, 82, 0
2, 109392, Note_on_c, 0, 84, 92
2, 109436, Note_on_c, 0, 84, 0
2, 109440, Note_on_c, 0, 82, 92
2, 109484, Note_on_c, 0, 82, 0
2, 109488, Note_on_c, 0, 84, 92
2, 109532, Note_on_c, 0, 84, 0
2, 109536, Note_on_c, 0, 82, 92
2, 109580, Note_on_c, 0, 82, 0
2, 109584, Note_on_c, 0, 84, 92
2, 109628, Note_on_c, 0, 84, 0
2, 109632, Note_on_c, 0, 81, 92
2, 109696, Note_on_c, 0, 81, 0
2, 109728, Note_on_c, 0, 82, 92
2, 109792, Note_on_c, 0, 82, 0
2, 109824, Note_on_c, 0, 70, 92
2, 110204, Note_on_c, 0, 70, 0
2, 110208, Note_on_c, 0, 62, 92
2, 110208, Note_on_c, 0, 58, 92
2, 110208, Note_on_c, 0, 74, 92
2, 110208, Note_on_c, 0, 70, 92
2, 110336, Note_on_c, 0, 70, 0
2, 110336, Note_on_c, 0, 62, 0
2, 110336, Note_on_c, 0, 58, 0
2, 110336, Note_on_c, 0, 74, 0
2, 110400, Note_on_c, 0, 63, 92
2, 110400, Note_on_c, 0, 60, 92
2, 110400, Note_on_c, 0, 75, 92
2, 110400, Note_on_c, 0, 72, 92
2, 110528, Note_on_c, 0, 72, 0
2, 110528, Note_on_c, 0, 63, 0
2, 110528, Note_on_c, 0, 60, 0
2, 110528, Note_on_c, 0, 75, 0
2, 110592, Note_on_c, 0, 64, 92
2, 110592, Note_on_c, 0, 61, 92
2, 110592, Note_on_c, 0, 73, 92
2, 110592, Note_on_c, 0, 76, 92
2, 110720, Note_on_c, 0, 76, 0
2, 110720, Note_on_c, 0, 64, 0
2, 110720, Note_on_c, 0, 61, 0
2, 110720, Note_on_c, 0, 73, 0
2, 110784, Note_on_c, 0, 65, 92
2, 110784, Note_on_c, 0, 62, 92
2, 110784, Note_on_c, 0, 74, 92
2, 110784, Note_on_c, 0, 77, 92
2, 110912, Note_on_c, 0, 77, 0
2, 110912, Note_on_c, 0, 65, 0
2, 110912, Note_on_c, 0, 62, 0
2, 110912, Note_on_c, 0, 74, 0
2, 110976, Note_on_c, 0, 62, 92
2, 110976, Note_on_c, 0, 58, 92
2, 110976, Note_on_c, 0, 70, 92
2, 110976, Note_on_c, 0, 74, 92
2, 111104, Note_on_c, 0, 74, 0
2, 111104, Note_on_c, 0, 62, 0
2, 111104, Note_on_c, 0, 58, 0
2, 111104, Note_on_c, 0, 70, 0
2, 111168, Note_on_c, 0, 63, 92
2, 111168, Note_on_c, 0, 60, 92
2, 111168, Note_on_c, 0, 75, 92
2, 111168, Note_on_c, 0, 72, 92
2, 111296, Note_on_c, 0, 72, 0
2, 111296, Note_on_c, 0, 63, 0
2, 111296, Note_on_c, 0, 60, 0
2, 111296, Note_on_c, 0, 75, 0
2, 111360, Note_on_c, 0, 64, 92
2, 111360, Note_on_c, 0, 61, 92
2, 111360, Note_on_c, 0, 76, 92
2, 111360, Note_on_c, 0, 73, 92
2, 111488, Note_on_c, 0, 73, 0
2, 111488, Note_on_c, 0, 64, 0
2, 111488, Note_on_c, 0, 61, 0
2, 111488, Note_on_c, 0, 76, 0
2, 111552, Note_on_c, 0, 65, 92
2, 111552, Note_on_c, 0, 62, 92
2, 111552, Note_on_c, 0, 74, 92
2, 111552, Note_on_c, 0, 77, 92
2, 111680, Note_on_c, 0, 77, 0
2, 111680, Note_on_c, 0, 65, 0
2, 111680, Note_on_c, 0, 62, 0
2, 111680, Note_on_c, 0, 74, 0
2, 111744, Note_on_c, 0, 62, 92
2, 111744, Note_on_c, 0, 58, 92
2, 111744, Note_on_c, 0, 70, 92
2, 111744, Note_on_c, 0, 74, 92
2, 111872, Note_on_c, 0, 74, 0
2, 111872, Note_on_c, 0, 62, 0
2, 111872, Note_on_c, 0, 58, 0
2, 111872, Note_on_c, 0, 70, 0
2, 111936, Note_on_c, 0, 63, 92
2, 111936, Note_on_c, 0, 60, 92
2, 111936, Note_on_c, 0, 72, 92
2, 111936, Note_on_c, 0, 75, 92
2, 112064, Note_on_c, 0, 75, 0
2, 112064, Note_on_c, 0, 63, 0
2, 112064, Note_on_c, 0, 60, 0
2, 112064, Note_on_c, 0, 72, 0
2, 112128, Note_on_c, 0, 63, 92
2, 112128, Note_on_c, 0, 60, 92
2, 112128, Note_on_c, 0, 76, 92
2, 112128, Note_on_c, 0, 73, 92
2, 112256, Note_on_c, 0, 73, 0
2, 112256, Note_on_c, 0, 63, 0
2, 112256, Note_on_c, 0, 60, 0
2, 112256, Note_on_c, 0, 76, 0
2, 112320, Note_on_c, 0, 65, 92
2, 112320, Note_on_c, 0, 62, 92
2, 112320, Note_on_c, 0, 77, 92
2, 112320, Note_on_c, 0, 74, 92
2, 112448, Note_on_c, 0, 74, 0
2, 112448, Note_on_c, 0, 65, 0
2, 112448, Note_on_c, 0, 62, 0
2, 112448, Note_on_c, 0, 77, 0
2, 112512, Note_on_c, 0, 77, 92
2, 112512, Note_on_c, 0, 74, 92
2, 112512, Note_on_c, 0, 62, 92
2, 112516, Note_on_c, 0, 65, 92
2, 112700, Note_on_c, 0, 74, 0
2, 112700, Note_on_c, 0, 77, 0
2, 113024, Note_on_c, 0, 62, 0
2, 113028, Note_on_c, 0, 65, 0
2, 113088, Note_on_c, 0, 75, 92
2, 113132, Note_on_c, 0, 75, 0
2, 113136, Note_on_c, 0, 70, 92
2, 113136, Note_on_c, 0, 74, 92
2, 113180, Note_on_c, 0, 74, 0
2, 113184, Note_on_c, 0, 72, 92
2, 113276, Note_on_c, 0, 72, 0
2, 113280, Note_on_c, 0, 74, 92
2, 113408, Note_on_c, 0, 74, 0
2, 113472, Note_on_c, 0, 70, 0
2, 113472, Note_on_c, 0, 77, 92
2, 113472, Note_on_c, 0, 74, 92
2, 113600, Note_on_c, 0, 77, 0
2, 113660, Note_on_c, 0, 74, 0
2, 113664, Note_on_c, 0, 77, 92
2, 113664, Note_on_c, 0, 82, 92
2, 113792, Note_on_c, 0, 82, 0
2, 113792, Note_on_c, 0, 77, 0
2, 113856, Note_on_c, 0, 77, 92
2, 113856, Note_on_c, 0, 74, 92
2, 113984, Note_on_c, 0, 74, 0
2, 113984, Note_on_c, 0, 77, 0
2, 114048, Note_on_c, 0, 86, 92
2, 114048, Note_on_c, 0, 82, 92
2, 114176, Note_on_c, 0, 82, 0
2, 114176, Note_on_c, 0, 86, 0
2, 114240, Note_on_c, 0, 77, 92
2, 114240, Note_on_c, 0, 82, 92
2, 114368, Note_on_c, 0, 82, 0
2, 114368, Note_on_c, 0, 77, 0
2, 114432, Note_on_c, 0, 86, 92
2, 114432, Note_on_c, 0, 89, 92
2, 114560, Note_on_c, 0, 89, 0
2, 114560, Note_on_c, 0, 86, 0
2, 114624, Note_on_c, 0, 82, 92
2, 114624, Note_on_c, 0, 86, 92
2, 114752, Note_on_c, 0, 86, 0
2, 114752, Note_on_c, 0, 82, 0
2, 114816, Note_on_c, 0, 77, 92
2, 114816, Note_on_c, 0, 82, 92
2, 114944, Note_on_c, 0, 82, 0
2, 114944, Note_on_c, 0, 77, 0
2, 115008, Note_on_c, 0, 77, 92
2, 115008, Note_on_c, 0, 74, 92
2, 115136, Note_on_c, 0, 74, 0
2, 115136, Note_on_c, 0, 77, 0
2, 115200, Note_on_c, 0, 74, 92
2, 115200, Note_on_c, 0, 71, 92
2, 115328, Note_on_c, 0, 71, 0
2, 115328, Note_on_c, 0, 74, 0
2, 115392, Note_on_c, 0, 75, 92
2, 115392, Note_on_c, 0, 72, 92
2, 115520, Note_on_c, 0, 72, 0
2, 115520, Note_on_c, 0, 75, 0
2, 115584, Note_on_c, 0, 75, 92
2, 115584, Note_on_c, 0, 72, 92
2, 115712, Note_on_c, 0, 72, 0
2, 115712, Note_on_c, 0, 75, 0
2, 115776, Note_on_c, 0, 75, 92
2, 115776, Note_on_c, 0, 72, 92
2, 115904, Note_on_c, 0, 72, 0
2, 115904, Note_on_c, 0, 75, 0
2, 115968, Note_on_c, 0, 72, 92
2, 115968, Note_on_c, 0, 75, 92
2, 116096, Note_on_c, 0, 75, 0
2, 116096, Note_on_c, 0, 72, 0
2, 116160, Note_on_c, 0, 60, 92
2, 116160, Note_on_c, 0, 57, 92
2, 116160, Note_on_c, 0, 72, 92
2, 116160, Note_on_c, 0, 69, 92
2, 116288, Note_on_c, 0, 69, 0
2, 116288, Note_on_c, 0, 60, 0
2, 116288, Note_on_c, 0, 57, 0
2, 116288, Note_on_c, 0, 72, 0
2, 116352, Note_on_c, 0, 61, 92
2, 116352, Note_on_c, 0, 58, 92
2, 116352, Note_on_c, 0, 73, 92
2, 116352, Note_on_c, 0, 70, 92
2, 116480, Note_on_c, 0, 70, 0
2, 116480, Note_on_c, 0, 61, 0
2, 116480, Note_on_c, 0, 58, 0
2, 116480, Note_on_c, 0, 73, 0
2, 116544, Note_on_c, 0, 62, 92
2, 116544, Note_on_c, 0, 59, 92
2, 116544, Note_on_c, 0, 71, 92
2, 116544, Note_on_c, 0, 74, 92
2, 116672, Note_on_c, 0, 74, 0
2, 116672, Note_on_c, 0, 62, 0
2, 116672, Note_on_c, 0, 59, 0
2, 116672, Note_on_c, 0, 71, 0
2, 116736, Note_on_c, 0, 63, 92
2, 116736, Note_on_c, 0, 60, 92
2, 116736, Note_on_c, 0, 75, 92
2, 116736, Note_on_c, 0, 72, 92
2, 116864, Note_on_c, 0, 72, 0
2, 116864, Note_on_c, 0, 63, 0
2, 116864, Note_on_c, 0, 60, 0
2, 116864, Note_on_c, 0, 75, 0
2, 116928, Note_on_c, 0, 60, 92
2, 116928, Note_on_c, 0, 57, 92
2, 116928, Note_on_c, 0, 72, 92
2, 116928, Note_on_c, 0, 69, 92
2, 117056, Note_on_c, 0, 69, 0
2, 117056, Note_on_c, 0, 60, 0
2, 117056, Note_on_c, 0, 57, 0
2, 117056, Note_on_c, 0, 72, 0
2, 117120, Note_on_c, 0, 61, 92
2, 117120, Note_on_c, 0, 58, 92
2, 117120, Note_on_c, 0, 73, 92
2, 117120, Note_on_c, 0, 70, 92
2, 117248, Note_on_c, 0, 70, 0
2, 117248, Note_on_c, 0, 61, 0
2, 117248, Note_on_c, 0, 58, 0
2, 117248, Note_on_c, 0, 73, 0
2, 117312, Note_on_c, 0, 62, 92
2, 117312, Note_on_c, 0, 59, 92
2, 117312, Note_on_c, 0, 74, 92
2, 117312, Note_on_c, 0, 71, 92
2, 117440, Note_on_c, 0, 71, 0
2, 117440, Note_on_c, 0, 62, 0
2, 117440, Note_on_c, 0, 59, 0
2, 117440, Note_on_c, 0, 74, 0
2, 117504, Note_on_c, 0, 63, 92
2, 117504, Note_on_c, 0, 75, 92
2, 117504, Note_on_c, 0, 72, 92
2, 117504, Note_on_c, 0, 60, 92
2, 117632, Note_on_c, 0, 60, 0
2, 117632, Note_on_c, 0, 63, 0
2, 117632, Note_on_c, 0, 75, 0
2, 117632, Note_on_c, 0, 72, 0
2, 117696, Note_on_c, 0, 60, 92
2, 117696, Note_on_c, 0, 57, 92
2, 117696, Note_on_c, 0, 72, 92
2, 117696, Note_on_c, 0, 69, 92
2, 117824, Note_on_c, 0, 69, 0
2, 117824, Note_on_c, 0, 60, 0
2, 117824, Note_on_c, 0, 57, 0
2, 117824, Note_on_c, 0, 72, 0
2, 117888, Note_on_c, 0, 61, 92
2, 117888, Note_on_c, 0, 58, 92
2, 117888, Note_on_c, 0, 73, 92
2, 117888, Note_on_c, 0, 70, 92
2, 118016, Note_on_c, 0, 70, 0
2, 118016, Note_on_c, 0, 61, 0
2, 118016, Note_on_c, 0, 58, 0
2, 118016, Note_on_c, 0, 73, 0
2, 118080, Note_on_c, 0, 59, 92
2, 118080, Note_on_c, 0, 74, 92
2, 118080, Note_on_c, 0, 71, 92
2, 118080, Note_on_c, 0, 62, 92
2, 118208, Note_on_c, 0, 62, 0
2, 118208, Note_on_c, 0, 59, 0
2, 118208, Note_on_c, 0, 74, 0
2, 118208, Note_on_c, 0, 71, 0
2, 118268, Note_on_c, 0, 72, 92
2, 118272, Note_on_c, 0, 63, 92
2, 118272, Note_on_c, 0, 60, 92
2, 118272, Note_on_c, 0, 75, 92
2, 118364, Note_on_c, 0, 72, 0
2, 118400, Note_on_c, 0, 69, 92
2, 118464, Note_on_c, 0, 75, 0
2, 118496, Note_on_c, 0, 69, 0
2, 118528, Note_on_c, 0, 60, 0
2, 118528, Note_on_c, 0, 63, 0
2, 118528, Note_on_c, 0, 75, 92
2, 118528, Note_on_c, 0, 81, 92
2, 118592, Note_on_c, 0, 81, 0
2, 118624, Note_on_c, 0, 75, 0
2, 118656, Note_on_c, 0, 75, 92
2, 118656, Note_on_c, 0, 81, 92
2, 118752, Note_on_c, 0, 75, 0
2, 118784, Note_on_c, 0, 72, 92
2, 118848, Note_on_c, 0, 81, 0
2, 118880, Note_on_c, 0, 72, 0
2, 118912, Note_on_c, 0, 84, 92
2, 118912, Note_on_c, 0, 81, 92
2, 118976, Note_on_c, 0, 84, 0
2, 119008, Note_on_c, 0, 81, 0
2, 119040, Note_on_c, 0, 84, 92
2, 119040, Note_on_c, 0, 81, 92
2, 119136, Note_on_c, 0, 81, 0
2, 119168, Note_on_c, 0, 75, 92
2, 119232, Note_on_c, 0, 84, 0
2, 119264, Note_on_c, 0, 75, 0
2, 119296, Note_on_c, 0, 87, 92
2, 119296, Note_on_c, 0, 84, 92
2, 119360, Note_on_c, 0, 87, 0
2, 119392, Note_on_c, 0, 84, 0
2, 119424, Note_on_c, 0, 84, 92
2, 119424, Note_on_c, 0, 87, 92
2, 119804, Note_on_c, 0, 87, 0
2, 119804, Note_on_c, 0, 84, 0
2, 119808, Note_on_c, 0, 87, 92
2, 119808, Note_on_c, 0, 84, 92
2, 119936, Note_on_c, 0, 84, 0
2, 119936, Note_on_c, 0, 87, 0
2, 120000, Note_on_c, 0, 86, 92
2, 120000, Note_on_c, 0, 82, 92
2, 120128, Note_on_c, 0, 82, 0
2, 120128, Note_on_c, 0, 86, 0
2, 120192, Note_on_c, 0, 84, 92
2, 120192, Note_on_c, 0, 81, 92
2, 120320, Note_on_c, 0, 81, 0
2, 120320, Note_on_c, 0, 84, 0
2, 120384, Note_on_c, 0, 82, 92
2, 120384, Note_on_c, 0, 79, 92
2, 120512, Note_on_c, 0, 79, 0
2, 120512, Note_on_c, 0, 82, 0
2, 120576, Note_on_c, 0, 81, 92
2, 120576, Note_on_c, 0, 77, 92
2, 120704, Note_on_c, 0, 77, 0
2, 120704, Note_on_c, 0, 81, 0
2, 120768, Note_on_c, 0, 79, 92
2, 120768, Note_on_c, 0, 75, 92
2, 120896, Note_on_c, 0, 75, 0
2, 120896, Note_on_c, 0, 79, 0
2, 120960, Note_on_c, 0, 77, 92
2, 120960, Note_on_c, 0, 74, 92
2, 121088, Note_on_c, 0, 74, 0
2, 121088, Note_on_c, 0, 77, 0
2, 121152, Note_on_c, 0, 75, 92
2, 121152, Note_on_c, 0, 72, 92
2, 121280, Note_on_c, 0, 72, 0
2, 121280, Note_on_c, 0, 75, 0
2, 121344, Note_on_c, 0, 73, 92
2, 121344, Note_on_c, 0, 69, 92
2, 121472, Note_on_c, 0, 69, 0
2, 121472, Note_on_c, 0, 73, 0
2, 121536, Note_on_c, 0, 74, 92
2, 121536, Note_on_c, 0, 70, 92
2, 121664, Note_on_c, 0, 70, 0
2, 121664, Note_on_c, 0, 74, 0
2, 121728, Note_on_c, 0, 74, 92
2, 121728, Note_on_c, 0, 70, 92
2, 121856, Note_on_c, 0, 70, 0
2, 121856, Note_on_c, 0, 74, 0
2, 121920, Note_on_c, 0, 74, 92
2, 121920, Note_on_c, 0, 70, 92
2, 122048, Note_on_c, 0, 70, 0
2, 122048, Note_on_c, 0, 74, 0
2, 122112, Note_on_c, 0, 74, 92
2, 122112, Note_on_c, 0, 70, 92
2, 122368, Note_on_c, 0, 70, 0
2, 122368, Note_on_c, 0, 74, 0
2, 122880, Note_on_c, 0, 74, 92
2, 122944, Note_on_c, 0, 74, 0
2, 122976, Note_on_c, 0, 77, 92
2, 123040, Note_on_c, 0, 77, 0
2, 123072, Note_on_c, 0, 75, 92
2, 123136, Note_on_c, 0, 75, 0
2, 123168, Note_on_c, 0, 74, 92
2, 123232, Note_on_c, 0, 74, 0
2, 123264, Note_on_c, 0, 72, 92
2, 123328, Note_on_c, 0, 72, 0
2, 123360, Note_on_c, 0, 75, 92
2, 123424, Note_on_c, 0, 75, 0
2, 123456, Note_on_c, 0, 74, 92
2, 123520, Note_on_c, 0, 74, 0
2, 123552, Note_on_c, 0, 72, 92
2, 123616, Note_on_c, 0, 72, 0
2, 123648, Note_on_c, 0, 70, 92
2, 123904, Note_on_c, 0, 70, 0
2, 124416, Note_on_c, 0, 74, 92
2, 124480, Note_on_c, 0, 74, 0
2, 124512, Note_on_c, 0, 77, 92
2, 124576, Note_on_c, 0, 77, 0
2, 124608, Note_on_c, 0, 75, 92
2, 124672, Note_on_c, 0, 75, 0
2, 124704, Note_on_c, 0, 74, 92
2, 124768, Note_on_c, 0, 74, 0
2, 124800, Note_on_c, 0, 72, 92
2, 124864, Note_on_c, 0, 72, 0
2, 124896, Note_on_c, 0, 75, 92
2, 124960, Note_on_c, 0, 75, 0
2, 124992, Note_on_c, 0, 74, 92
2, 125056, Note_on_c, 0, 74, 0
2, 125088, Note_on_c, 0, 72, 92
2, 125152, Note_on_c, 0, 72, 0
2, 125184, Note_on_c, 0, 70, 92
2, 125440, Note_on_c, 0, 70, 0
2, 125952, Note_on_c, 0, 74, 92
2, 126016, Note_on_c, 0, 74, 0
2, 126048, Note_on_c, 0, 77, 92
2, 126112, Note_on_c, 0, 77, 0
2, 126144, Note_on_c, 0, 75, 92
2, 126208, Note_on_c, 0, 75, 0
2, 126240, Note_on_c, 0, 74, 92
2, 126304, Note_on_c, 0, 74, 0
2, 126336, Note_on_c, 0, 72, 92
2, 126400, Note_on_c, 0, 72, 0
2, 126432, Note_on_c, 0, 75, 92
2, 126496, Note_on_c, 0, 75, 0
2, 126528, Note_on_c, 0, 74, 92
2, 126592, Note_on_c, 0, 74, 0
2, 126624, Note_on_c, 0, 72, 92
2, 126688, Note_on_c, 0, 72, 0
2, 126720, Note_on_c, 0, 70, 92
2, 126784, Note_on_c, 0, 70, 0
2, 126816, Note_on_c, 0, 74, 92
2, 126880, Note_on_c, 0, 74, 0
2, 126912, Note_on_c, 0, 72, 92
2, 126976, Note_on_c, 0, 72, 0
2, 127008, Note_on_c, 0, 70, 92
2, 127072, Note_on_c, 0, 70, 0
2, 127104, Note_on_c, 0, 72, 92
2, 127168, Note_on_c, 0, 72, 0
2, 127200, Note_on_c, 0, 75, 92
2, 127264, Note_on_c, 0, 75, 0
2, 127296, Note_on_c, 0, 74, 92
2, 127360, Note_on_c, 0, 74, 0
2, 127392, Note_on_c, 0, 72, 92
2, 127456, Note_on_c, 0, 72, 0
2, 127488, Note_on_c, 0, 74, 92
2, 127552, Note_on_c, 0, 74, 0
2, 127584, Note_on_c, 0, 77, 92
2, 127648, Note_on_c, 0, 77, 0
2, 127680, Note_on_c, 0, 75, 92
2, 127744, Note_on_c, 0, 75, 0
2, 127776, Note_on_c, 0, 74, 92
2, 127840, Note_on_c, 0, 74, 0
2, 127872, Note_on_c, 0, 72, 92
2, 127936, Note_on_c, 0, 72, 0
2, 127968, Note_on_c, 0, 75, 92
2, 128032, Note_on_c, 0, 75, 0
2, 128064, Note_on_c, 0, 74, 92
2, 128128, Note_on_c, 0, 74, 0
2, 128160, Note_on_c, 0, 72, 92
2, 128224, Note_on_c, 0, 72, 0
2, 128256, Note_on_c, 0, 70, 92
2, 128320, Note_on_c, 0, 70, 0
2, 128352, Note_on_c, 0, 74, 92
2, 128416, Note_on_c, 0, 74, 0
2, 128448, Note_on_c, 0, 72, 92
2, 128512, Note_on_c, 0, 72, 0
2, 128544, Note_on_c, 0, 70, 92
2, 128608, Note_on_c, 0, 70, 0
2, 128640, Note_on_c, 0, 72, 92
2, 128704, Note_on_c, 0, 72, 0
2, 128736, Note_on_c, 0, 75, 92
2, 128800, Note_on_c, 0, 75, 0
2, 128832, Note_on_c, 0, 74, 92
2, 128896, Note_on_c, 0, 74, 0
2, 128928, Note_on_c, 0, 72, 92
2, 128992, Note_on_c, 0, 72, 0
2, 129024, Note_on_c, 0, 74, 92
2, 129088, Note_on_c, 0, 74, 0
2, 129120, Note_on_c, 0, 70, 92
2, 129184, Note_on_c, 0, 70, 0
2, 129216, Note_on_c, 0, 72, 92
2, 129280, Note_on_c, 0, 72, 0
2, 129312, Note_on_c, 0, 74, 92
2, 129376, Note_on_c, 0, 74, 0
2, 129408, Note_on_c, 0, 75, 92
2, 129472, Note_on_c, 0, 75, 0
2, 129504, Note_on_c, 0, 77, 92
2, 129568, Note_on_c, 0, 77, 0
2, 129600, Note_on_c, 0, 79, 92
2, 129664, Note_on_c, 0, 79, 0
2, 129696, Note_on_c, 0, 81, 92
2, 129760, Note_on_c, 0, 81, 0
2, 129792, Note_on_c, 0, 82, 92
2, 129856, Note_on_c, 0, 82, 0
2, 129888, Note_on_c, 0, 77, 92
2, 129952, Note_on_c, 0, 77, 0
2, 129984, Note_on_c, 0, 79, 92
2, 130048, Note_on_c, 0, 79, 0
2, 130080, Note_on_c, 0, 81, 92
2, 130144, Note_on_c, 0, 81, 0
2, 130176, Note_on_c, 0, 82, 92
2, 130240, Note_on_c, 0, 82, 0
2, 130272, Note_on_c, 0, 84, 92
2, 130336, Note_on_c, 0, 84, 0
2, 130368, Note_on_c, 0, 86, 92
2, 130432, Note_on_c, 0, 86, 0
2, 130464, Note_on_c, 0, 87, 92
2, 130528, Note_on_c, 0, 87, 0
2, 130560, Note_on_c, 0, 89, 92
2, 130656, Note_on_c, 0, 89, 0
2, 130688, Note_on_c, 0, 86, 92
2, 130784, Note_on_c, 0, 86, 0
2, 130816, Note_on_c, 0, 82, 92
2, 130912, Note_on_c, 0, 82, 0
2, 130944, Note_on_c, 0, 77, 92
2, 131040, Note_on_c, 0, 77, 0
2, 131072, Note_on_c, 0, 74, 92
2, 131168, Note_on_c, 0, 74, 0
2, 131200, Note_on_c, 0, 70, 92
2, 131296, Note_on_c, 0, 70, 0
2, 131328, Note_on_c, 0, 65, 92
2, 131424, Note_on_c, 0, 65, 0
2, 131456, Note_on_c, 0, 62, 92
2, 131552, Note_on_c, 0, 62, 0
2, 131584, Note_on_c, 0, 58, 92
2, 131680, Note_on_c, 0, 58, 0
2, 132288, Note_on_c, 0, 74, 92
2, 132288, Note_on_c, 0, 70, 92
2, 132416, Note_on_c, 0, 70, 0
2, 132416, Note_on_c, 0, 74, 0
2, 132480, Note_on_c, 0, 72, 92
2, 132480, Note_on_c, 0, 75, 92
2, 132608, Note_on_c, 0, 75, 0
2, 132608, Note_on_c, 0, 72, 0
2, 132672, Note_on_c, 0, 74, 92
2, 132672, Note_on_c, 0, 77, 92
2, 132800, Note_on_c, 0, 77, 0
2, 132800, Note_on_c, 0, 74, 0
2, 132864, Note_on_c, 0, 77, 92
2, 132864, Note_on_c, 0, 74, 92
2, 132992, Note_on_c, 0, 74, 0
2, 132992, Note_on_c, 0, 77, 0
2, 133056, Note_on_c, 0, 75, 92
2, 133056, Note_on_c, 0, 72, 92
2, 133184, Note_on_c, 0, 72, 0
2, 133184, Note_on_c, 0, 75, 0
2, 133248, Note_on_c, 0, 74, 92
2, 133248, Note_on_c, 0, 70, 92
2, 133376, Note_on_c, 0, 70, 0
2, 133376, Note_on_c, 0, 74, 0
2, 133440, Note_on_c, 0, 72, 92
2, 133440, Note_on_c, 0, 69, 92
2, 133568, Note_on_c, 0, 69, 0
2, 133568, Note_on_c, 0, 72, 0
2, 133632, Note_on_c, 0, 70, 92
2, 133888, Note_on_c, 0, 70, 0
2, 135168, Note_on_c, 0, 74, 102
2, 135260, Note_on_c, 0, 74, 0
2, 135264, Note_on_c, 0, 86, 102
2, 135936, Note_on_c, 0, 86, 0
2, 135936, Note_on_c, 0, 84, 92
2, 136064, Note_on_c, 0, 84, 0
2, 136128, Note_on_c, 0, 82, 92
2, 136256, Note_on_c, 0, 82, 0
2, 136320, Note_on_c, 0, 81, 92
2, 136448, Note_on_c, 0, 81, 0
2, 136512, Note_on_c, 0, 79, 92
2, 136640, Note_on_c, 0, 79, 0
2, 136704, Note_on_c, 0, 79, 92
2, 136832, Note_on_c, 0, 79, 0
2, 136896, Note_on_c, 0, 78, 92
2, 137024, Note_on_c, 0, 78, 0
2, 137088, Note_on_c, 0, 87, 102
2, 137832, Note_on_c, 0, 87, 0
2, 137856, Note_on_c, 0, 86, 92
2, 137920, Note_on_c, 0, 86, 0
2, 137952, Note_on_c, 0, 84, 92
2, 138016, Note_on_c, 0, 84, 0
2, 138048, Note_on_c, 0, 82, 92
2, 138112, Note_on_c, 0, 82, 0
2, 138144, Note_on_c, 0, 81, 92
2, 138208, Note_on_c, 0, 81, 0
2, 138240, Note_on_c, 0, 79, 92
2, 138304, Note_on_c, 0, 79, 0
2, 138336, Note_on_c, 0, 78, 92
2, 138400, Note_on_c, 0, 78, 0
2, 138432, Note_on_c, 0, 81, 92
2, 138496, Note_on_c, 0, 81, 0
2, 138528, Note_on_c, 0, 79, 92
2, 138592, Note_on_c, 0, 79, 0
2, 138624, Note_on_c, 0, 82, 92
2, 138688, Note_on_c, 0, 82, 0
2, 138720, Note_on_c, 0, 81, 92
2, 138784, Note_on_c, 0, 81, 0
2, 138816, Note_on_c, 0, 84, 92
2, 138880, Note_on_c, 0, 84, 0
2, 138912, Note_on_c, 0, 82, 92
2, 138976, Note_on_c, 0, 82, 0
2, 139008, Note_on_c, 0, 86, 92
2, 139072, Note_on_c, 0, 86, 0
2, 139104, Note_on_c, 0, 84, 92
2, 139168, Note_on_c, 0, 84, 0
2, 139200, Note_on_c, 0, 82, 92
2, 139264, Note_on_c, 0, 82, 0
2, 139296, Note_on_c, 0, 81, 92
2, 139360, Note_on_c, 0, 81, 0
2, 139392, Note_on_c, 0, 79, 92
2, 139456, Note_on_c, 0, 79, 0
2, 139488, Note_on_c, 0, 78, 92
2, 139552, Note_on_c, 0, 78, 0
2, 139584, Note_on_c, 0, 75, 92
2, 139648, Note_on_c, 0, 75, 0
2, 139680, Note_on_c, 0, 74, 92
2, 139744, Note_on_c, 0, 74, 0
2, 139776, Note_on_c, 0, 72, 92
2, 140156, Note_on_c, 0, 72, 0
2, 140160, Note_on_c, 0, 70, 92
2, 140732, Note_on_c, 0, 70, 0
2, 140736, Note_on_c, 0, 69, 92
2, 140864, Note_on_c, 0, 69, 0
2, 140928, Note_on_c, 0, 70, 92
2, 141056, Note_on_c, 0, 70, 0
2, 141120, Note_on_c, 0, 71, 92
2, 141248, Note_on_c, 0, 71, 0
2, 141312, Note_on_c, 0, 74, 92
2, 141504, Note_on_c, 0, 74, 0
2, 141600, Note_on_c, 0, 72, 92
2, 141664, Note_on_c, 0, 72, 0
2, 141696, Note_on_c, 0, 72, 92
2, 142080, Note_on_c, 0, 72, 0
2, 142272, Note_on_c, 0, 81, 92
2, 142400, Note_on_c, 0, 81, 0
2, 142464, Note_on_c, 0, 79, 92
2, 142592, Note_on_c, 0, 79, 0
2, 142656, Note_on_c, 0, 77, 92
2, 142784, Note_on_c, 0, 77, 0
2, 142848, Note_on_c, 0, 77, 92
2, 142944, Note_on_c, 0, 77, 0
2, 142976, Note_on_c, 0, 76, 92
2, 143072, Note_on_c, 0, 76, 0
2, 143104, Note_on_c, 0, 77, 92
2, 143200, Note_on_c, 0, 77, 0
2, 143232, Note_on_c, 0, 78, 92
2, 143328, Note_on_c, 0, 78, 0
2, 143360, Note_on_c, 0, 79, 92
2, 143456, Note_on_c, 0, 79, 0
2, 143488, Note_on_c, 0, 80, 92
2, 143584, Note_on_c, 0, 80, 0
2, 143616, Note_on_c, 0, 81, 92
2, 143712, Note_on_c, 0, 81, 0
2, 143744, Note_on_c, 0, 82, 92
2, 143840, Note_on_c, 0, 82, 0
2, 143872, Note_on_c, 0, 83, 92
2, 143968, Note_on_c, 0, 83, 0
2, 144000, Note_on_c, 0, 84, 92
2, 144096, Note_on_c, 0, 84, 0
2, 144128, Note_on_c, 0, 85, 92
2, 144224, Note_on_c, 0, 85, 0
2, 144256, Note_on_c, 0, 86, 92
2, 144384, Note_on_c, 0, 84, 92
2, 144388, Note_on_c, 0, 86, 0
2, 144480, Note_on_c, 0, 84, 0
2, 144512, Note_on_c, 0, 82, 92
2, 144608, Note_on_c, 0, 82, 0
2, 144640, Note_on_c, 0, 81, 92
2, 144736, Note_on_c, 0, 81, 0
2, 144768, Note_on_c, 0, 79, 92
2, 144864, Note_on_c, 0, 79, 0
2, 144896, Note_on_c, 0, 77, 92
2, 144992, Note_on_c, 0, 77, 0
2, 145024, Note_on_c, 0, 76, 92
2, 145120, Note_on_c, 0, 76, 0
2, 145152, Note_on_c, 0, 74, 92
2, 145248, Note_on_c, 0, 74, 0
2, 145280, Note_on_c, 0, 72, 92
2, 145376, Note_on_c, 0, 72, 0
2, 145408, Note_on_c, 0, 71, 92
2, 145504, Note_on_c, 0, 71, 0
2, 145536, Note_on_c, 0, 72, 92
2, 145600, Note_on_c, 0, 72, 0
2, 145632, Note_on_c, 0, 73, 92
2, 145696, Note_on_c, 0, 73, 0
2, 145728, Note_on_c, 0, 74, 92
2, 145792, Note_on_c, 0, 74, 0
2, 145824, Note_on_c, 0, 70, 92
2, 145888, Note_on_c, 0, 70, 0
2, 145920, Note_on_c, 0, 69, 92
2, 145984, Note_on_c, 0, 69, 0
2, 146016, Note_on_c, 0, 72, 92
2, 146080, Note_on_c, 0, 72, 0
2, 146112, Note_on_c, 0, 70, 92
2, 146176, Note_on_c, 0, 70, 0
2, 146208, Note_on_c, 0, 69, 92
2, 146272, Note_on_c, 0, 69, 0
2, 146304, Note_on_c, 0, 70, 92
2, 146368, Note_on_c, 0, 70, 0
2, 146400, Note_on_c, 0, 72, 92
2, 146464, Note_on_c, 0, 72, 0
2, 146496, Note_on_c, 0, 74, 92
2, 146560, Note_on_c, 0, 74, 0
2, 146592, Note_on_c, 0, 76, 92
2, 146656, Note_on_c, 0, 76, 0
2, 146688, Note_on_c, 0, 77, 92
2, 146752, Note_on_c, 0, 77, 0
2, 146784, Note_on_c, 0, 79, 92
2, 146848, Note_on_c, 0, 79, 0
2, 146880, Note_on_c, 0, 81, 92
2, 146944, Note_on_c, 0, 81, 0
2, 146976, Note_on_c, 0, 82, 92
2, 147040, Note_on_c, 0, 82, 0
2, 147072, Note_on_c, 0, 69, 92
2, 147072, Note_on_c, 0, 65, 92
2, 147072, Note_on_c, 0, 84, 92
2, 147200, Note_on_c, 0, 65, 0
2, 147200, Note_on_c, 0, 69, 0
2, 147260, Note_on_c, 0, 84, 0
2, 147264, Note_on_c, 0, 67, 92
2, 147264, Note_on_c, 0, 64, 92
2, 147264, Note_on_c, 0, 84, 92
2, 147392, Note_on_c, 0, 64, 0
2, 147392, Note_on_c, 0, 67, 0
2, 147452, Note_on_c, 0, 84, 0
2, 147456, Note_on_c, 0, 65, 92
2, 147456, Note_on_c, 0, 62, 92
2, 147456, Note_on_c, 0, 84, 92
2, 147644, Note_on_c, 0, 84, 0
2, 147648, Note_on_c, 0, 82, 92
2, 147712, Note_on_c, 0, 62, 0
2, 147712, Note_on_c, 0, 65, 0
2, 147840, Note_on_c, 0, 64, 92
2, 147840, Note_on_c, 0, 60, 92
2, 148028, Note_on_c, 0, 82, 0
2, 148032, Note_on_c, 0, 81, 92
2, 148096, Note_on_c, 0, 60, 0
2, 148096, Note_on_c, 0, 64, 0
2, 148224, Note_on_c, 0, 62, 92
2, 148224, Note_on_c, 0, 58, 92
2, 148412, Note_on_c, 0, 81, 0
2, 148416, Note_on_c, 0, 79, 92
2, 148480, Note_on_c, 0, 58, 0
2, 148480, Note_on_c, 0, 62, 0
2, 148608, Note_on_c, 0, 62, 92
2, 148608, Note_on_c, 0, 59, 92
2, 148796, Note_on_c, 0, 79, 0
2, 148800, Note_on_c, 0, 77, 92
2, 148864, Note_on_c, 0, 59, 0
2, 148864, Note_on_c, 0, 62, 0
2, 148988, Note_on_c, 0, 77, 0
2, 148992, Note_on_c, 0, 60, 92
2, 148992, Note_on_c, 0, 76, 92
2, 149056, Note_on_c, 0, 76, 0
2, 149088, Note_on_c, 0, 72, 92
2, 149152, Note_on_c, 0, 72, 0
2, 149184, Note_on_c, 0, 74, 92
2, 149248, Note_on_c, 0, 74, 0
2, 149248, Note_on_c, 0, 60, 0
2, 149280, Note_on_c, 0, 76, 92
2, 149344, Note_on_c, 0, 76, 0
2, 149376, Note_on_c, 0, 77, 92
2, 149440, Note_on_c, 0, 77, 0
2, 149472, Note_on_c, 0, 79, 92
2, 149536, Note_on_c, 0, 79, 0
2, 149568, Note_on_c, 0, 81, 92
2, 149632, Note_on_c, 0, 81, 0
2, 149664, Note_on_c, 0, 83, 92
2, 149728, Note_on_c, 0, 83, 0
2, 149760, Note_on_c, 0, 84, 92
2, 149824, Note_on_c, 0, 84, 0
2, 149856, Note_on_c, 0, 72, 92
2, 149920, Note_on_c, 0, 72, 0
2, 149952, Note_on_c, 0, 82, 92
2, 150016, Note_on_c, 0, 82, 0
2, 150048, Note_on_c, 0, 70, 92
2, 150112, Note_on_c, 0, 70, 0
2, 150144, Note_on_c, 0, 81, 92
2, 150208, Note_on_c, 0, 81, 0
2, 150240, Note_on_c, 0, 69, 92
2, 150304, Note_on_c, 0, 69, 0
2, 150336, Note_on_c, 0, 79, 92
2, 150400, Note_on_c, 0, 79, 0
2, 150432, Note_on_c, 0, 67, 92
2, 150496, Note_on_c, 0, 67, 0
2, 150528, Note_on_c, 0, 77, 92
2, 150592, Note_on_c, 0, 77, 0
2, 150624, Note_on_c, 0, 65, 92
2, 150688, Note_on_c, 0, 65, 0
2, 150720, Note_on_c, 0, 76, 92
2, 150784, Note_on_c, 0, 76, 0
2, 150816, Note_on_c, 0, 64, 92
2, 150880, Note_on_c, 0, 64, 0
2, 150912, Note_on_c, 0, 74, 92
2, 150976, Note_on_c, 0, 74, 0
2, 151008, Note_on_c, 0, 62, 92
2, 151072, Note_on_c, 0, 62, 0
2, 151104, Note_on_c, 0, 72, 92
2, 151168, Note_on_c, 0, 72, 0
2, 151200, Note_on_c, 0, 60, 92
2, 151264, Note_on_c, 0, 60, 0
2, 151296, Note_on_c, 0, 71, 92
2, 151296, Note_on_c, 0, 59, 92
2, 151424, Note_on_c, 0, 59, 0
2, 151424, Note_on_c, 0, 71, 0
2, 151488, Note_on_c, 0, 59, 92
2, 151488, Note_on_c, 0, 71, 92
2, 151868, Note_on_c, 0, 71, 0
2, 151868, Note_on_c, 0, 59, 0
2, 151872, Note_on_c, 0, 71, 92
2, 151872, Note_on_c, 0, 59, 92
2, 152000, Note_on_c, 0, 59, 0
2, 152000, Note_on_c, 0, 71, 0
2, 152160, Note_on_c, 0, 72, 92
2, 152224, Note_on_c, 0, 72, 0
2, 152256, Note_on_c, 0, 74, 92
2, 152320, Note_on_c, 0, 74, 0
2, 152352, Note_on_c, 0, 76, 92
2, 152416, Note_on_c, 0, 76, 0
2, 152448, Note_on_c, 0, 77, 92
2, 152512, Note_on_c, 0, 77, 0
2, 152544, Note_on_c, 0, 79, 92
2, 152608, Note_on_c, 0, 79, 0
2, 152640, Note_on_c, 0, 81, 92
2, 152704, Note_on_c, 0, 81, 0
2, 152736, Note_on_c, 0, 83, 92
2, 152800, Note_on_c, 0, 83, 0
2, 152832, Note_on_c, 0, 84, 92
2, 152896, Note_on_c, 0, 84, 0
2, 152928, Note_on_c, 0, 72, 92
2, 152992, Note_on_c, 0, 72, 0
2, 153024, Note_on_c, 0, 82, 92
2, 153088, Note_on_c, 0, 82, 0
2, 153120, Note_on_c, 0, 70, 92
2, 153184, Note_on_c, 0, 70, 0
2, 153216, Note_on_c, 0, 81, 92
2, 153280, Note_on_c, 0, 81, 0
2, 153312, Note_on_c, 0, 69, 92
2, 153376, Note_on_c, 0, 69, 0
2, 153408, Note_on_c, 0, 79, 92
2, 153472, Note_on_c, 0, 79, 0
2, 153504, Note_on_c, 0, 67, 92
2, 153568, Note_on_c, 0, 67, 0
2, 153600, Note_on_c, 0, 77, 92
2, 153664, Note_on_c, 0, 77, 0
2, 153696, Note_on_c, 0, 65, 92
2, 153760, Note_on_c, 0, 65, 0
2, 153792, Note_on_c, 0, 76, 92
2, 153856, Note_on_c, 0, 76, 0
2, 153888, Note_on_c, 0, 64, 92
2, 153952, Note_on_c, 0, 64, 0
2, 153984, Note_on_c, 0, 74, 92
2, 154048, Note_on_c, 0, 74, 0
2, 154080, Note_on_c, 0, 62, 92
2, 154144, Note_on_c, 0, 62, 0
2, 154176, Note_on_c, 0, 72, 92
2, 154240, Note_on_c, 0, 72, 0
2, 154272, Note_on_c, 0, 60, 92
2, 154336, Note_on_c, 0, 60, 0
2, 154368, Note_on_c, 0, 71, 92
2, 154368, Note_on_c, 0, 59, 92
2, 154556, Note_on_c, 0, 59, 0
2, 154556, Note_on_c, 0, 71, 0
2, 154560, Note_on_c, 0, 71, 92
2, 154560, Note_on_c, 0, 59, 92
2, 154940, Note_on_c, 0, 59, 0
2, 154940, Note_on_c, 0, 71, 0
2, 154944, Note_on_c, 0, 71, 92
2, 154944, Note_on_c, 0, 59, 92
2, 155132, Note_on_c, 0, 59, 0
2, 155132, Note_on_c, 0, 71, 0
2, 155136, Note_on_c, 0, 72, 92
2, 155136, Note_on_c, 0, 60, 92
2, 155516, Note_on_c, 0, 60, 0
2, 155516, Note_on_c, 0, 72, 0
2, 156864, Note_on_c, 0, 60, 92
2, 156928, Note_on_c, 0, 60, 0
2, 156960, Note_on_c, 0, 72, 92
2, 157024, Note_on_c, 0, 72, 0
2, 157056, Note_on_c, 0, 62, 92
2, 157120, Note_on_c, 0, 62, 0
2, 157152, Note_on_c, 0, 74, 92
2, 157216, Note_on_c, 0, 74, 0
2, 157248, Note_on_c, 0, 64, 92
2, 157312, Note_on_c, 0, 64, 0
2, 157344, Note_on_c, 0, 76, 92
2, 157408, Note_on_c, 0, 76, 0
2, 157440, Note_on_c, 0, 65, 92
2, 157504, Note_on_c, 0, 65, 0
2, 157536, Note_on_c, 0, 77, 92
2, 157600, Note_on_c, 0, 77, 0
2, 157632, Note_on_c, 0, 67, 92
2, 157696, Note_on_c, 0, 67, 0
2, 157728, Note_on_c, 0, 79, 92
2, 157792, Note_on_c, 0, 79, 0
2, 157824, Note_on_c, 0, 69, 92
2, 157888, Note_on_c, 0, 69, 0
2, 157920, Note_on_c, 0, 81, 92
2, 157984, Note_on_c, 0, 81, 0
2, 158000, Note_on_c, 0, 71, 92
2, 158064, Note_on_c, 0, 71, 0
2, 158112, Note_on_c, 0, 83, 92
2, 158176, Note_on_c, 0, 83, 0
2, 158208, Note_on_c, 0, 84, 92
2, 158208, Note_on_c, 0, 72, 92
2, 158588, Note_on_c, 0, 72, 0
2, 158588, Note_on_c, 0, 84, 0
2, 159936, Note_on_c, 0, 72, 92
2, 160064, Note_on_c, 0, 72, 0
2, 160128, Note_on_c, 0, 72, 92
2, 160256, Note_on_c, 0, 72, 0
2, 160320, Note_on_c, 0, 72, 92
2, 160448, Note_on_c, 0, 72, 0
2, 160512, Note_on_c, 0, 72, 92
2, 160640, Note_on_c, 0, 72, 0
2, 160704, Note_on_c, 0, 73, 92
2, 160832, Note_on_c, 0, 73, 0
2, 160896, Note_on_c, 0, 74, 92
2, 161024, Note_on_c, 0, 74, 0
2, 161088, Note_on_c, 0, 70, 92
2, 161216, Note_on_c, 0, 70, 0
2, 161280, Note_on_c, 0, 69, 92
2, 161664, Note_on_c, 0, 69, 0
2, 161856, Note_on_c, 0, 65, 92
2, 161984, Note_on_c, 0, 65, 0
2, 162048, Note_on_c, 0, 69, 92
2, 162240, Note_on_c, 0, 69, 0
2, 162336, Note_on_c, 0, 65, 92
2, 162400, Note_on_c, 0, 65, 0
2, 162432, Note_on_c, 0, 70, 92
2, 162624, Note_on_c, 0, 70, 0
2, 162720, Note_on_c, 0, 67, 92
2, 162784, Note_on_c, 0, 67, 0
2, 162816, Note_on_c, 0, 72, 92
2, 163200, Note_on_c, 0, 72, 0
2, 163392, Note_on_c, 0, 69, 92
2, 163520, Note_on_c, 0, 69, 0
2, 163584, Note_on_c, 0, 72, 92
2, 163712, Note_on_c, 0, 72, 0
2, 163968, Note_on_c, 0, 81, 92
2, 164032, Note_on_c, 0, 81, 0
2, 164064, Note_on_c, 0, 82, 92
2, 164128, Note_on_c, 0, 82, 0
2, 164160, Note_on_c, 0, 81, 92
2, 164224, Note_on_c, 0, 81, 0
2, 164256, Note_on_c, 0, 82, 92
2, 164320, Note_on_c, 0, 82, 0
2, 164352, Note_on_c, 0, 84, 92
2, 164480, Note_on_c, 0, 84, 0
2, 164736, Note_on_c, 0, 77, 92
2, 164800, Note_on_c, 0, 77, 0
2, 164832, Note_on_c, 0, 79, 92
2, 164896, Note_on_c, 0, 79, 0
2, 164928, Note_on_c, 0, 77, 92
2, 164992, Note_on_c, 0, 77, 0
2, 165024, Note_on_c, 0, 79, 92
2, 165088, Note_on_c, 0, 79, 0
2, 165120, Note_on_c, 0, 81, 92
2, 165248, Note_on_c, 0, 81, 0
2, 165504, Note_on_c, 0, 69, 92
2, 165504, Note_on_c, 0, 65, 92
2, 165632, Note_on_c, 0, 65, 0
2, 165632, Note_on_c, 0, 69, 0
2, 165696, Note_on_c, 0, 74, 92
2, 165696, Note_on_c, 0, 70, 92
2, 165824, Note_on_c, 0, 70, 0
2, 165824, Note_on_c, 0, 74, 0
2, 165888, Note_on_c, 0, 72, 92
2, 165888, Note_on_c, 0, 69, 92
2, 166016, Note_on_c, 0, 69, 0
2, 166016, Note_on_c, 0, 72, 0
2, 166080, Note_on_c, 0, 70, 92
2, 166080, Note_on_c, 0, 67, 92
2, 166208, Note_on_c, 0, 67, 0
2, 166208, Note_on_c, 0, 70, 0
2, 166272, Note_on_c, 0, 69, 92
2, 166272, Note_on_c, 0, 66, 92
2, 166400, Note_on_c, 0, 66, 0
2, 166400, Note_on_c, 0, 69, 0
2, 166464, Note_on_c, 0, 70, 92
2, 166464, Note_on_c, 0, 67, 92
2, 166592, Note_on_c, 0, 67, 0
2, 166592, Note_on_c, 0, 70, 0
2, 166656, Note_on_c, 0, 70, 92
2, 166656, Note_on_c, 0, 67, 92
2, 166784, Note_on_c, 0, 67, 0
2, 166784, Note_on_c, 0, 70, 0
2, 167424, Note_on_c, 0, 67, 92
2, 167808, Note_on_c, 0, 67, 0
2, 168000, Note_on_c, 0, 64, 92
2, 168128, Note_on_c, 0, 64, 0
2, 168192, Note_on_c, 0, 67, 92
2, 168384, Note_on_c, 0, 67, 0
2, 168480, Note_on_c, 0, 64, 92
2, 168544, Note_on_c, 0, 64, 0
2, 168576, Note_on_c, 0, 69, 92
2, 168768, Note_on_c, 0, 69, 0
2, 168864, Note_on_c, 0, 65, 92
2, 168928, Note_on_c, 0, 65, 0
2, 168960, Note_on_c, 0, 70, 92
2, 169024, Note_on_c, 0, 70, 0
2, 169056, Note_on_c, 0, 67, 92
2, 169120, Note_on_c, 0, 67, 0
2, 169152, Note_on_c, 0, 69, 92
2, 169216, Note_on_c, 0, 69, 0
2, 169248, Note_on_c, 0, 70, 92
2, 169312, Note_on_c, 0, 70, 0
2, 169344, Note_on_c, 0, 72, 92
2, 169408, Note_on_c, 0, 72, 0
2, 169440, Note_on_c, 0, 74, 92
2, 169504, Note_on_c, 0, 74, 0
2, 169536, Note_on_c, 0, 76, 92
2, 169600, Note_on_c, 0, 76, 0
2, 169632, Note_on_c, 0, 77, 92
2, 169696, Note_on_c, 0, 77, 0
2, 169728, Note_on_c, 0, 79, 92
2, 169792, Note_on_c, 0, 79, 0
2, 169824, Note_on_c, 0, 81, 92
2, 169888, Note_on_c, 0, 81, 0
2, 169920, Note_on_c, 0, 82, 92
2, 169984, Note_on_c, 0, 82, 0
2, 170016, Note_on_c, 0, 84, 92
2, 170080, Note_on_c, 0, 84, 0
2, 170112, Note_on_c, 0, 86, 92
2, 170176, Note_on_c, 0, 86, 0
2, 170208, Note_on_c, 0, 84, 92
2, 170272, Note_on_c, 0, 84, 0
2, 170304, Note_on_c, 0, 82, 92
2, 170368, Note_on_c, 0, 82, 0
2, 170400, Note_on_c, 0, 81, 92
2, 170464, Note_on_c, 0, 81, 0
2, 170496, Note_on_c, 0, 79, 92
2, 170560, Note_on_c, 0, 79, 0
2, 170592, Note_on_c, 0, 81, 92
2, 170656, Note_on_c, 0, 81, 0
2, 170688, Note_on_c, 0, 82, 92
2, 170752, Note_on_c, 0, 82, 0
2, 170784, Note_on_c, 0, 81, 92
2, 170848, Note_on_c, 0, 81, 0
2, 170880, Note_on_c, 0, 79, 92
2, 170944, Note_on_c, 0, 79, 0
2, 170976, Note_on_c, 0, 77, 92
2, 171040, Note_on_c, 0, 77, 0
2, 171072, Note_on_c, 0, 76, 92
2, 171136, Note_on_c, 0, 76, 0
2, 171168, Note_on_c, 0, 74, 92
2, 171232, Note_on_c, 0, 74, 0
2, 171264, Note_on_c, 0, 72, 92
2, 171328, Note_on_c, 0, 72, 0
2, 171360, Note_on_c, 0, 76, 92
2, 171424, Note_on_c, 0, 76, 0
2, 171456, Note_on_c, 0, 79, 92
2, 171520, Note_on_c, 0, 79, 0
2, 171552, Note_on_c, 0, 77, 92
2, 171616, Note_on_c, 0, 77, 0
2, 171648, Note_on_c, 0, 76, 92
2, 171712, Note_on_c, 0, 76, 0
2, 171744, Note_on_c, 0, 74, 92
2, 171808, Note_on_c, 0, 74, 0
2, 171840, Note_on_c, 0, 72, 92
2, 171904, Note_on_c, 0, 72, 0
2, 171936, Note_on_c, 0, 70, 92
2, 172000, Note_on_c, 0, 70, 0
2, 172032, Note_on_c, 0, 72, 92
2, 172288, Note_on_c, 0, 72, 0
2, 172416, Note_on_c, 0, 70, 92
2, 172460, Note_on_c, 0, 70, 0
2, 172464, Note_on_c, 0, 72, 92
2, 172508, Note_on_c, 0, 72, 0
2, 172512, Note_on_c, 0, 70, 92
2, 172556, Note_on_c, 0, 70, 0
2, 172560, Note_on_c, 0, 72, 92
2, 172604, Note_on_c, 0, 72, 0
2, 172608, Note_on_c, 0, 70, 92
2, 172652, Note_on_c, 0, 70, 0
2, 172656, Note_on_c, 0, 72, 92
2, 172700, Note_on_c, 0, 72, 0
2, 172704, Note_on_c, 0, 70, 92
2, 172748, Note_on_c, 0, 70, 0
2, 172800, Note_on_c, 0, 69, 92
2, 173056, Note_on_c, 0, 69, 0
2, 173664, Note_on_c, 0, 60, 92
2, 173728, Note_on_c, 0, 60, 0
2, 173760, Note_on_c, 0, 62, 92
2, 173824, Note_on_c, 0, 62, 0
2, 173856, Note_on_c, 0, 65, 92
2, 173920, Note_on_c, 0, 65, 0
2, 173952, Note_on_c, 0, 70, 92
2, 174016, Note_on_c, 0, 70, 0
2, 174048, Note_on_c, 0, 65, 92
2, 174112, Note_on_c, 0, 65, 0
2, 174144, Note_on_c, 0, 74, 92
2, 174208, Note_on_c, 0, 74, 0
2, 174240, Note_on_c, 0, 70, 92
2, 174304, Note_on_c, 0, 70, 0
2, 174336, Note_on_c, 0, 77, 92
2, 174400, Note_on_c, 0, 77, 0
2, 174432, Note_on_c, 0, 74, 92
2, 174496, Note_on_c, 0, 74, 0
2, 174528, Note_on_c, 0, 82, 92
2, 174592, Note_on_c, 0, 82, 0
2, 174624, Note_on_c, 0, 77, 92
2, 174688, Note_on_c, 0, 77, 0
2, 174720, Note_on_c, 0, 86, 92
2, 174784, Note_on_c, 0, 86, 0
2, 174816, Note_on_c, 0, 82, 92
2, 174880, Note_on_c, 0, 82, 0
2, 174912, Note_on_c, 0, 89, 92
2, 174976, Note_on_c, 0, 89, 0
2, 175008, Note_on_c, 0, 86, 92
2, 175072, Note_on_c, 0, 86, 0
2, 175104, Note_on_c, 0, 84, 92
2, 175168, Note_on_c, 0, 84, 0
2, 175200, Note_on_c, 0, 89, 92
2, 175264, Note_on_c, 0, 89, 0
2, 175296, Note_on_c, 0, 84, 92
2, 175360, Note_on_c, 0, 84, 0
2, 175392, Note_on_c, 0, 81, 92
2, 175456, Note_on_c, 0, 81, 0
2, 175488, Note_on_c, 0, 77, 92
2, 175552, Note_on_c, 0, 77, 0
2, 175584, Note_on_c, 0, 84, 92
2, 175648, Note_on_c, 0, 84, 0
2, 175680, Note_on_c, 0, 81, 92
2, 175744, Note_on_c, 0, 81, 0
2, 175776, Note_on_c, 0, 77, 92
2, 175840, Note_on_c, 0, 77, 0
2, 175872, Note_on_c, 0, 72, 92
2, 175936, Note_on_c, 0, 72, 0
2, 175968, Note_on_c, 0, 81, 92
2, 176032, Note_on_c, 0, 81, 0
2, 176064, Note_on_c, 0, 77, 92
2, 176128, Note_on_c, 0, 77, 0
2, 176160, Note_on_c, 0, 72, 92
2, 176224, Note_on_c, 0, 72, 0
2, 176256, Note_on_c, 0, 69, 92
2, 176320, Note_on_c, 0, 69, 0
2, 176352, Note_on_c, 0, 77, 92
2, 176416, Note_on_c, 0, 77, 0
2, 176448, Note_on_c, 0, 72, 92
2, 176512, Note_on_c, 0, 72, 0
2, 176544, Note_on_c, 0, 69, 92
2, 176608, Note_on_c, 0, 69, 0
2, 176736, Note_on_c, 0, 58, 92
2, 176800, Note_on_c, 0, 58, 0
2, 176832, Note_on_c, 0, 62, 92
2, 176896, Note_on_c, 0, 62, 0
2, 176928, Note_on_c, 0, 65, 92
2, 176992, Note_on_c, 0, 65, 0
2, 177024, Note_on_c, 0, 70, 92
2, 177088, Note_on_c, 0, 70, 0
2, 177120, Note_on_c, 0, 65, 92
2, 177184, Note_on_c, 0, 65, 0
2, 177216, Note_on_c, 0, 74, 92
2, 177280, Note_on_c, 0, 74, 0
2, 177312, Note_on_c, 0, 70, 92
2, 177376, Note_on_c, 0, 70, 0
2, 177408, Note_on_c, 0, 77, 92
2, 177472, Note_on_c, 0, 77, 0
2, 177504, Note_on_c, 0, 74, 92
2, 177568, Note_on_c, 0, 74, 0
2, 177600, Note_on_c, 0, 82, 92
2, 177664, Note_on_c, 0, 82, 0
2, 177696, Note_on_c, 0, 77, 92
2, 177760, Note_on_c, 0, 77, 0
2, 177792, Note_on_c, 0, 86, 92
2, 177856, Note_on_c, 0, 86, 0
2, 177888, Note_on_c, 0, 82, 92
2, 177952, Note_on_c, 0, 82, 0
2, 177984, Note_on_c, 0, 89, 92
2, 178048, Note_on_c, 0, 89, 0
2, 178080, Note_on_c, 0, 86, 92
2, 178144, Note_on_c, 0, 86, 0
2, 178176, Note_on_c, 0, 84, 92
2, 178240, Note_on_c, 0, 84, 0
2, 178272, Note_on_c, 0, 89, 92
2, 178336, Note_on_c, 0, 89, 0
2, 178368, Note_on_c, 0, 84, 92
2, 178432, Note_on_c, 0, 84, 0
2, 178464, Note_on_c, 0, 81, 92
2, 178528, Note_on_c, 0, 81, 0
2, 178560, Note_on_c, 0, 77, 92
2, 178624, Note_on_c, 0, 77, 0
2, 178656, Note_on_c, 0, 84, 92
2, 178720, Note_on_c, 0, 84, 0
2, 178752, Note_on_c, 0, 81, 92
2, 178816, Note_on_c, 0, 81, 0
2, 178848, Note_on_c, 0, 77, 92
2, 178912, Note_on_c, 0, 77, 0
2, 178944, Note_on_c, 0, 72, 92
2, 179008, Note_on_c, 0, 72, 0
2, 179040, Note_on_c, 0, 81, 92
2, 179104, Note_on_c, 0, 81, 0
2, 179136, Note_on_c, 0, 77, 92
2, 179200, Note_on_c, 0, 77, 0
2, 179232, Note_on_c, 0, 72, 92
2, 179296, Note_on_c, 0, 72, 0
2, 179328, Note_on_c, 0, 69, 92
2, 179392, Note_on_c, 0, 69, 0
2, 179424, Note_on_c, 0, 77, 92
2, 179488, Note_on_c, 0, 77, 0
2, 179520, Note_on_c, 0, 72, 92
2, 179584, Note_on_c, 0, 72, 0
2, 179616, Note_on_c, 0, 69, 92
2, 179680, Note_on_c, 0, 69, 0
2, 180192, Note_on_c, 0, 66, 92
2, 180256, Note_on_c, 0, 66, 0
2, 180288, Note_on_c, 0, 69, 92
2, 180352, Note_on_c, 0, 69, 0
2, 180384, Note_on_c, 0, 72, 92
2, 180448, Note_on_c, 0, 72, 0
2, 180480, Note_on_c, 0, 71, 92
2, 180736, Note_on_c, 0, 71, 0
2, 180960, Note_on_c, 0, 71, 92
2, 181024, Note_on_c, 0, 71, 0
2, 181056, Note_on_c, 0, 74, 92
2, 181120, Note_on_c, 0, 74, 0
2, 181152, Note_on_c, 0, 77, 92
2, 181216, Note_on_c, 0, 77, 0
2, 181248, Note_on_c, 0, 76, 92
2, 181504, Note_on_c, 0, 76, 0
2, 181728, Note_on_c, 0, 64, 92
2, 181792, Note_on_c, 0, 64, 0
2, 181824, Note_on_c, 0, 67, 92
2, 181888, Note_on_c, 0, 67, 0
2, 181920, Note_on_c, 0, 70, 92
2, 181984, Note_on_c, 0, 70, 0
2, 182016, Note_on_c, 0, 69, 92
2, 182396, Note_on_c, 0, 69, 0
2, 182496, Note_on_c, 0, 69, 92
2, 182560, Note_on_c, 0, 69, 0
2, 182592, Note_on_c, 0, 72, 92
2, 182656, Note_on_c, 0, 72, 0
2, 182688, Note_on_c, 0, 75, 92
2, 182752, Note_on_c, 0, 75, 0
2, 182784, Note_on_c, 0, 74, 92
2, 182848, Note_on_c, 0, 74, 0
2, 182880, Note_on_c, 0, 77, 92
2, 182944, Note_on_c, 0, 77, 0
2, 182976, Note_on_c, 0, 74, 92
2, 183040, Note_on_c, 0, 74, 0
2, 183072, Note_on_c, 0, 70, 92
2, 183136, Note_on_c, 0, 70, 0
2, 183168, Note_on_c, 0, 70, 92
2, 183232, Note_on_c, 0, 70, 0
2, 183264, Note_on_c, 0, 74, 92
2, 183328, Note_on_c, 0, 74, 0
2, 183360, Note_on_c, 0, 70, 92
2, 183424, Note_on_c, 0, 70, 0
2, 183456, Note_on_c, 0, 67, 92
2, 183520, Note_on_c, 0, 67, 0
2, 183552, Note_on_c, 0, 69, 92
2, 183616, Note_on_c, 0, 69, 0
2, 183648, Note_on_c, 0, 72, 92
2, 183712, Note_on_c, 0, 72, 0
2, 183744, Note_on_c, 0, 69, 92
2, 183808, Note_on_c, 0, 69, 0
2, 183840, Note_on_c, 0, 65, 92
2, 183904, Note_on_c, 0, 65, 0
2, 183936, Note_on_c, 0, 67, 92
2, 184000, Note_on_c, 0, 67, 0
2, 184032, Note_on_c, 0, 70, 92
2, 184096, Note_on_c, 0, 70, 0
2, 184128, Note_on_c, 0, 67, 92
2, 184192, Note_on_c, 0, 67, 0
2, 184224, Note_on_c, 0, 64, 92
2, 184288, Note_on_c, 0, 64, 0
2, 184320, Note_on_c, 0, 65, 92
2, 184700, Note_on_c, 0, 65, 0
2, 184896, Note_on_c, 0, 69, 92
2, 184896, Note_on_c, 0, 65, 92
2, 185084, Note_on_c, 0, 69, 0
2, 185088, Note_on_c, 0, 67, 92
2, 185276, Note_on_c, 0, 65, 0
2, 185280, Note_on_c, 0, 64, 92
2, 185468, Note_on_c, 0, 64, 0
2, 185468, Note_on_c, 0, 67, 0
2, 185664, Note_on_c, 0, 70, 92
2, 185664, Note_on_c, 0, 67, 92
2, 185852, Note_on_c, 0, 67, 0
2, 185852, Note_on_c, 0, 70, 0
2, 185856, Note_on_c, 0, 69, 92
2, 185856, Note_on_c, 0, 67, 92
2, 186044, Note_on_c, 0, 67, 0
2, 186048, Note_on_c, 0, 65, 92
2, 186236, Note_on_c, 0, 65, 0
2, 186236, Note_on_c, 0, 69, 0
2, 186432, Note_on_c, 0, 69, 92
2, 186432, Note_on_c, 0, 77, 92
2, 186620, Note_on_c, 0, 69, 0
2, 186624, Note_on_c, 0, 67, 92
2, 186812, Note_on_c, 0, 77, 0
2, 186816, Note_on_c, 0, 76, 92
2, 187004, Note_on_c, 0, 76, 0
2, 187004, Note_on_c, 0, 67, 0
2, 187008, Note_on_c, 0, 64, 92
2, 187072, Note_on_c, 0, 64, 0
2, 187104, Note_on_c, 0, 62, 92
2, 187168, Note_on_c, 0, 62, 0
2, 187200, Note_on_c, 0, 64, 92
2, 187200, Note_on_c, 0, 70, 92
2, 187200, Note_on_c, 0, 79, 92
2, 187264, Note_on_c, 0, 64, 0
2, 187296, Note_on_c, 0, 60, 92
2, 187360, Note_on_c, 0, 60, 0
2, 187388, Note_on_c, 0, 79, 0
2, 187388, Note_on_c, 0, 70, 0
2, 187392, Note_on_c, 0, 65, 92
2, 187392, Note_on_c, 0, 79, 92
2, 187392, Note_on_c, 0, 69, 92
2, 187456, Note_on_c, 0, 65, 0
2, 187488, Note_on_c, 0, 64, 92
2, 187552, Note_on_c, 0, 64, 0
2, 187580, Note_on_c, 0, 79, 0
2, 187584, Note_on_c, 0, 65, 92
2, 187584, Note_on_c, 0, 77, 92
2, 187648, Note_on_c, 0, 65, 0
2, 187680, Note_on_c, 0, 67, 92
2, 187744, Note_on_c, 0, 67, 0
2, 187772, Note_on_c, 0, 77, 0
2, 187772, Note_on_c, 0, 69, 0
2, 187776, Note_on_c, 0, 69, 92
2, 187840, Note_on_c, 0, 69, 0
2, 187872, Note_on_c, 0, 67, 92
2, 187936, Note_on_c, 0, 67, 0
2, 187968, Note_on_c, 0, 69, 92
2, 187968, Note_on_c, 0, 81, 92
2, 187968, Note_on_c, 0, 77, 92
2, 188032, Note_on_c, 0, 69, 0
2, 188064, Note_on_c, 0, 70, 92
2, 188128, Note_on_c, 0, 70, 0
2, 188156, Note_on_c, 0, 81, 0
2, 188160, Note_on_c, 0, 72, 92
2, 188160, Note_on_c, 0, 79, 92
2, 188224, Note_on_c, 0, 72, 0
2, 188256, Note_on_c, 0, 71, 92
2, 188320, Note_on_c, 0, 71, 0
2, 188348, Note_on_c, 0, 77, 0
2, 188352, Note_on_c, 0, 72, 92
2, 188352, Note_on_c, 0, 76, 92
2, 188416, Note_on_c, 0, 72, 0
2, 188448, Note_on_c, 0, 74, 92
2, 188512, Note_on_c, 0, 74, 0
2, 188540, Note_on_c, 0, 76, 0
2, 188540, Note_on_c, 0, 79, 0
2, 188544, Note_on_c, 0, 76, 92
2, 188608, Note_on_c, 0, 76, 0
2, 188640, Note_on_c, 0, 74, 92
2, 188704, Note_on_c, 0, 74, 0
2, 188736, Note_on_c, 0, 79, 92
2, 188736, Note_on_c, 0, 82, 92
2, 188736, Note_on_c, 0, 76, 92
2, 188800, Note_on_c, 0, 76, 0
2, 188832, Note_on_c, 0, 74, 92
2, 188896, Note_on_c, 0, 74, 0
2, 188924, Note_on_c, 0, 82, 0
2, 188924, Note_on_c, 0, 79, 0
2, 188928, Note_on_c, 0, 77, 92
2, 188928, Note_on_c, 0, 81, 92
2, 188992, Note_on_c, 0, 81, 0
2, 188992, Note_on_c, 0, 77, 0
2, 189024, Note_on_c, 0, 76, 92
2, 189024, Note_on_c, 0, 79, 92
2, 189088, Note_on_c, 0, 79, 0
2, 189088, Note_on_c, 0, 76, 0
2, 189120, Note_on_c, 0, 77, 92
2, 189120, Note_on_c, 0, 81, 92
2, 189184, Note_on_c, 0, 81, 0
2, 189184, Note_on_c, 0, 77, 0
2, 189216, Note_on_c, 0, 74, 92
2, 189216, Note_on_c, 0, 82, 92
2, 189280, Note_on_c, 0, 82, 0
2, 189280, Note_on_c, 0, 74, 0
2, 189312, Note_on_c, 0, 76, 92
2, 189312, Note_on_c, 0, 79, 92
2, 189376, Note_on_c, 0, 79, 0
2, 189376, Note_on_c, 0, 76, 0
2, 189408, Note_on_c, 0, 74, 92
2, 189408, Note_on_c, 0, 77, 92
2, 189472, Note_on_c, 0, 77, 0
2, 189472, Note_on_c, 0, 74, 0
2, 189504, Note_on_c, 0, 76, 92
2, 189504, Note_on_c, 0, 79, 92
2, 189568, Note_on_c, 0, 79, 0
2, 189568, Note_on_c, 0, 76, 0
2, 189600, Note_on_c, 0, 72, 92
2, 189600, Note_on_c, 0, 81, 92
2, 189664, Note_on_c, 0, 81, 0
2, 189664, Note_on_c, 0, 72, 0
2, 189696, Note_on_c, 0, 74, 92
2, 189696, Note_on_c, 0, 77, 92
2, 189760, Note_on_c, 0, 77, 0
2, 189760, Note_on_c, 0, 74, 0
2, 189792, Note_on_c, 0, 72, 92
2, 189792, Note_on_c, 0, 76, 92
2, 189856, Note_on_c, 0, 76, 0
2, 189856, Note_on_c, 0, 72, 0
2, 189888, Note_on_c, 0, 74, 92
2, 189888, Note_on_c, 0, 77, 92
2, 189952, Note_on_c, 0, 77, 0
2, 189952, Note_on_c, 0, 74, 0
2, 189984, Note_on_c, 0, 70, 92
2, 189984, Note_on_c, 0, 79, 92
2, 190048, Note_on_c, 0, 79, 0
2, 190048, Note_on_c, 0, 70, 0
2, 190080, Note_on_c, 0, 72, 92
2, 190080, Note_on_c, 0, 76, 92
2, 190144, Note_on_c, 0, 76, 0
2, 190144, Note_on_c, 0, 72, 0
2, 190176, Note_on_c, 0, 70, 92
2, 190176, Note_on_c, 0, 74, 92
2, 190240, Note_on_c, 0, 74, 0
2, 190240, Note_on_c, 0, 70, 0
2, 190272, Note_on_c, 0, 72, 92
2, 190272, Note_on_c, 0, 76, 92
2, 190336, Note_on_c, 0, 76, 0
2, 190336, Note_on_c, 0, 72, 0
2, 190368, Note_on_c, 0, 69, 92
2, 190368, Note_on_c, 0, 77, 92
2, 190432, Note_on_c, 0, 77, 0
2, 190432, Note_on_c, 0, 69, 0
2, 190464, Note_on_c, 0, 70, 92
2, 190464, Note_on_c, 0, 74, 92
2, 190528, Note_on_c, 0, 74, 0
2, 190528, Note_on_c, 0, 70, 0
2, 190560, Note_on_c, 0, 69, 92
2, 190560, Note_on_c, 0, 72, 92
2, 190624, Note_on_c, 0, 72, 0
2, 190624, Note_on_c, 0, 69, 0
2, 190656, Note_on_c, 0, 70, 92
2, 190656, Note_on_c, 0, 74, 92
2, 190720, Note_on_c, 0, 74, 0
2, 190720, Note_on_c, 0, 70, 0
2, 190752, Note_on_c, 0, 67, 92
2, 190752, Note_on_c, 0, 75, 92
2, 190816, Note_on_c, 0, 75, 0
2, 190816, Note_on_c, 0, 67, 0
2, 190848, Note_on_c, 0, 69, 92
2, 190848, Note_on_c, 0, 72, 92
2, 190912, Note_on_c, 0, 72, 0
2, 190912, Note_on_c, 0, 69, 0
2, 190944, Note_on_c, 0, 67, 92
2, 190944, Note_on_c, 0, 70, 92
2, 191008, Note_on_c, 0, 70, 0
2, 191008, Note_on_c, 0, 67, 0
2, 191040, Note_on_c, 0, 69, 92
2, 191040, Note_on_c, 0, 72, 92
2, 191104, Note_on_c, 0, 72, 0
2, 191104, Note_on_c, 0, 69, 0
2, 191136, Note_on_c, 0, 66, 92
2, 191136, Note_on_c, 0, 74, 92
2, 191200, Note_on_c, 0, 74, 0
2, 191200, Note_on_c, 0, 66, 0
2, 191232, Note_on_c, 0, 67, 92
2, 191232, Note_on_c, 0, 70, 92
2, 191296, Note_on_c, 0, 70, 0
2, 191296, Note_on_c, 0, 67, 0
2, 191328, Note_on_c, 0, 65, 92
2, 191328, Note_on_c, 0, 69, 92
2, 191392, Note_on_c, 0, 69, 0
2, 191392, Note_on_c, 0, 65, 0
2, 191424, Note_on_c, 0, 67, 92
2, 191424, Note_on_c, 0, 70, 92
2, 191488, Note_on_c, 0, 70, 0
2, 191488, Note_on_c, 0, 67, 0
2, 191520, Note_on_c, 0, 64, 92
2, 191520, Note_on_c, 0, 72, 92
2, 191584, Note_on_c, 0, 72, 0
2, 191584, Note_on_c, 0, 64, 0
2, 191616, Note_on_c, 0, 65, 92
2, 191616, Note_on_c, 0, 69, 92
2, 191680, Note_on_c, 0, 69, 0
2, 191680, Note_on_c, 0, 65, 0
2, 191712, Note_on_c, 0, 64, 92
2, 191712, Note_on_c, 0, 67, 92
2, 191776, Note_on_c, 0, 67, 0
2, 191776, Note_on_c, 0, 64, 0
2, 191808, Note_on_c, 0, 65, 92
2, 191808, Note_on_c, 0, 69, 92
2, 191872, Note_on_c, 0, 69, 0
2, 191872, Note_on_c, 0, 65, 0
2, 191904, Note_on_c, 0, 62, 92
2, 191904, Note_on_c, 0, 70, 92
2, 191968, Note_on_c, 0, 70, 0
2, 191968, Note_on_c, 0, 62, 0
2, 192000, Note_on_c, 0, 58, 92
2, 192000, Note_on_c, 0, 67, 92
2, 192064, Note_on_c, 0, 67, 0
2, 192096, Note_on_c, 0, 69, 92
2, 192160, Note_on_c, 0, 69, 0
2, 192192, Note_on_c, 0, 67, 92
2, 192256, Note_on_c, 0, 67, 0
2, 192256, Note_on_c, 0, 58, 0
2, 192288, Note_on_c, 0, 66, 92
2, 192352, Note_on_c, 0, 66, 0
2, 192384, Note_on_c, 0, 67, 92
2, 192448, Note_on_c, 0, 67, 0
2, 192480, Note_on_c, 0, 69, 92
2, 192544, Note_on_c, 0, 69, 0
2, 192576, Note_on_c, 0, 70, 92
2, 192640, Note_on_c, 0, 70, 0
2, 192672, Note_on_c, 0, 72, 92
2, 192736, Note_on_c, 0, 72, 0
2, 192768, Note_on_c, 0, 74, 92
2, 192832, Note_on_c, 0, 74, 0
2, 192864, Note_on_c, 0, 76, 92
2, 192928, Note_on_c, 0, 76, 0
2, 192960, Note_on_c, 0, 77, 92
2, 193024, Note_on_c, 0, 77, 0
2, 193056, Note_on_c, 0, 76, 92
2, 193120, Note_on_c, 0, 76, 0
2, 193152, Note_on_c, 0, 64, 92
2, 193152, Note_on_c, 0, 58, 92
2, 193152, Note_on_c, 0, 79, 92
2, 193216, Note_on_c, 0, 79, 0
2, 193248, Note_on_c, 0, 77, 92
2, 193312, Note_on_c, 0, 77, 0
2, 193344, Note_on_c, 0, 76, 92
2, 193408, Note_on_c, 0, 76, 0
2, 193408, Note_on_c, 0, 58, 0
2, 193408, Note_on_c, 0, 64, 0
2, 193440, Note_on_c, 0, 74, 92
2, 193504, Note_on_c, 0, 74, 0
2, 193536, Note_on_c, 0, 65, 92
2, 193536, Note_on_c, 0, 57, 92
2, 193536, Note_on_c, 0, 74, 92
2, 193600, Note_on_c, 0, 74, 0
2, 193632, Note_on_c, 0, 72, 92
2, 193696, Note_on_c, 0, 72, 0
2, 193728, Note_on_c, 0, 71, 92
2, 193792, Note_on_c, 0, 71, 0
2, 193792, Note_on_c, 0, 57, 0
2, 193792, Note_on_c, 0, 65, 0
2, 193824, Note_on_c, 0, 72, 92
2, 193888, Note_on_c, 0, 72, 0
2, 193920, Note_on_c, 0, 76, 92
2, 193920, Note_on_c, 0, 65, 92
2, 193920, Note_on_c, 0, 58, 92
2, 193984, Note_on_c, 0, 76, 0
2, 194016, Note_on_c, 0, 74, 92
2, 194080, Note_on_c, 0, 74, 0
2, 194112, Note_on_c, 0, 72, 92
2, 194176, Note_on_c, 0, 72, 0
2, 194176, Note_on_c, 0, 58, 0
2, 194208, Note_on_c, 0, 70, 92
2, 194272, Note_on_c, 0, 70, 0
2, 194304, Note_on_c, 0, 69, 92
2, 194304, Note_on_c, 0, 60, 92
2, 194432, Note_on_c, 0, 65, 0
2, 194684, Note_on_c, 0, 69, 0
2, 194688, Note_on_c, 0, 67, 92
2, 194688, Note_on_c, 0, 64, 92
2, 194816, Note_on_c, 0, 60, 0
2, 194944, Note_on_c, 0, 64, 0
2, 195068, Note_on_c, 0, 67, 0
2, 195072, Note_on_c, 0, 77, 92
2, 195072, Note_on_c, 0, 81, 92
2, 195136, Note_on_c, 0, 81, 0
2, 195136, Note_on_c, 0, 77, 0
2, 195168, Note_on_c, 0, 76, 92
2, 195168, Note_on_c, 0, 79, 92
2, 195168, Note_on_c, 0, 79, 92
2, 195232, Note_on_c, 0, 79, 0
2, 195232, Note_on_c, 0, 79, 0
2, 195232, Note_on_c, 0, 76, 0
2, 195264, Note_on_c, 0, 77, 92
2, 195264, Note_on_c, 0, 81, 92
2, 195328, Note_on_c, 0, 81, 0
2, 195328, Note_on_c, 0, 77, 0
2, 195360, Note_on_c, 0, 72, 92
2, 195360, Note_on_c, 0, 84, 92
2, 195360, Note_on_c, 0, 84, 92
2, 195424, Note_on_c, 0, 84, 0
2, 195424, Note_on_c, 0, 84, 0
2, 195424, Note_on_c, 0, 72, 0
2, 195456, Note_on_c, 0, 69, 92
2, 195456, Note_on_c, 0, 89, 92
2, 195520, Note_on_c, 0, 89, 0
2, 195552, Note_on_c, 0, 84, 92
2, 195584, Note_on_c, 0, 69, 0
2, 195616, Note_on_c, 0, 84, 0
2, 195648, Note_on_c, 0, 81, 92
2, 195712, Note_on_c, 0, 81, 0
2, 195744, Note_on_c, 0, 77, 92
2, 195808, Note_on_c, 0, 77, 0
2, 195840, Note_on_c, 0, 76, 92
2, 195840, Note_on_c, 0, 79, 92
2, 195904, Note_on_c, 0, 79, 0
2, 195904, Note_on_c, 0, 76, 0
2, 195936, Note_on_c, 0, 74, 92
2, 195936, Note_on_c, 0, 77, 92
2, 196000, Note_on_c, 0, 77, 0
2, 196000, Note_on_c, 0, 74, 0
2, 196032, Note_on_c, 0, 76, 92
2, 196032, Note_on_c, 0, 79, 92
2, 196096, Note_on_c, 0, 79, 0
2, 196096, Note_on_c, 0, 76, 0
2, 196128, Note_on_c, 0, 84, 92
2, 196176, Note_on_c, 0, 72, 92
2, 196192, Note_on_c, 0, 84, 0
2, 196224, Note_on_c, 0, 67, 92
2, 196224, Note_on_c, 0, 88, 92
2, 196240, Note_on_c, 0, 72, 0
2, 196288, Note_on_c, 0, 88, 0
2, 196320, Note_on_c, 0, 84, 92
2, 196352, Note_on_c, 0, 67, 0
2, 196384, Note_on_c, 0, 84, 0
2, 196416, Note_on_c, 0, 79, 92
2, 196480, Note_on_c, 0, 79, 0
2, 196512, Note_on_c, 0, 76, 92
2, 196576, Note_on_c, 0, 76, 0
2, 196608, Note_on_c, 0, 74, 92
2, 196608, Note_on_c, 0, 77, 92
2, 196672, Note_on_c, 0, 77, 0
2, 196672, Note_on_c, 0, 74, 0
2, 196704, Note_on_c, 0, 73, 92
2, 196704, Note_on_c, 0, 76, 92
2, 196768, Note_on_c, 0, 76, 0
2, 196768, Note_on_c, 0, 73, 0
2, 196800, Note_on_c, 0, 74, 92
2, 196800, Note_on_c, 0, 77, 92
2, 196864, Note_on_c, 0, 77, 0
2, 196864, Note_on_c, 0, 74, 0
2, 196896, Note_on_c, 0, 81, 92
2, 196896, Note_on_c, 0, 69, 92
2, 196960, Note_on_c, 0, 69, 0
2, 196960, Note_on_c, 0, 81, 0
2, 196992, Note_on_c, 0, 65, 92
2, 196992, Note_on_c, 0, 86, 92
2, 197056, Note_on_c, 0, 86, 0
2, 197088, Note_on_c, 0, 81, 92
2, 197120, Note_on_c, 0, 65, 0
2, 197152, Note_on_c, 0, 81, 0
2, 197184, Note_on_c, 0, 77, 92
2, 197248, Note_on_c, 0, 77, 0
2, 197280, Note_on_c, 0, 74, 92
2, 197344, Note_on_c, 0, 74, 0
2, 197376, Note_on_c, 0, 72, 92
2, 197376, Note_on_c, 0, 76, 92
2, 197440, Note_on_c, 0, 76, 0
2, 197440, Note_on_c, 0, 72, 0
2, 197472, Note_on_c, 0, 71, 92
2, 197472, Note_on_c, 0, 74, 92
2, 197536, Note_on_c, 0, 74, 0
2, 197536, Note_on_c, 0, 71, 0
2, 197568, Note_on_c, 0, 72, 92
2, 197568, Note_on_c, 0, 76, 92
2, 197632, Note_on_c, 0, 76, 0
2, 197632, Note_on_c, 0, 72, 0
2, 197664, Note_on_c, 0, 69, 92
2, 197664, Note_on_c, 0, 81, 92
2, 197728, Note_on_c, 0, 81, 0
2, 197728, Note_on_c, 0, 69, 0
2, 197760, Note_on_c, 0, 84, 92
2, 197760, Note_on_c, 0, 64, 92
2, 197824, Note_on_c, 0, 84, 0
2, 197856, Note_on_c, 0, 81, 92
2, 197888, Note_on_c, 0, 64, 0
2, 197920, Note_on_c, 0, 81, 0
2, 197952, Note_on_c, 0, 76, 92
2, 198016, Note_on_c, 0, 76, 0
2, 198048, Note_on_c, 0, 72, 92
2, 198112, Note_on_c, 0, 72, 0
2, 198144, Note_on_c, 0, 70, 92
2, 198144, Note_on_c, 0, 74, 92
2, 198208, Note_on_c, 0, 74, 0
2, 198208, Note_on_c, 0, 70, 0
2, 198240, Note_on_c, 0, 69, 92
2, 198240, Note_on_c, 0, 72, 92
2, 198304, Note_on_c, 0, 72, 0
2, 198304, Note_on_c, 0, 69, 0
2, 198336, Note_on_c, 0, 70, 92
2, 198336, Note_on_c, 0, 74, 92
2, 198400, Note_on_c, 0, 74, 0
2, 198400, Note_on_c, 0, 70, 0
2, 198432, Note_on_c, 0, 77, 92
2, 198432, Note_on_c, 0, 65, 92
2, 198496, Note_on_c, 0, 65, 0
2, 198496, Note_on_c, 0, 77, 0
2, 198528, Note_on_c, 0, 62, 92
2, 198528, Note_on_c, 0, 82, 92
2, 198592, Note_on_c, 0, 82, 0
2, 198624, Note_on_c, 0, 77, 92
2, 198656, Note_on_c, 0, 62, 0
2, 198688, Note_on_c, 0, 77, 0
2, 198720, Note_on_c, 0, 74, 92
2, 198784, Note_on_c, 0, 74, 0
2, 198816, Note_on_c, 0, 70, 92
2, 198880, Note_on_c, 0, 70, 0
2, 198912, Note_on_c, 0, 69, 92
2, 198912, Note_on_c, 0, 72, 92
2, 198976, Note_on_c, 0, 72, 0
2, 198976, Note_on_c, 0, 69, 0
2, 199008, Note_on_c, 0, 67, 92
2, 199008, Note_on_c, 0, 70, 92
2, 199072, Note_on_c, 0, 70, 0
2, 199072, Note_on_c, 0, 67, 0
2, 199104, Note_on_c, 0, 69, 92
2, 199104, Note_on_c, 0, 72, 92
2, 199168, Note_on_c, 0, 72, 0
2, 199168, Note_on_c, 0, 69, 0
2, 199200, Note_on_c, 0, 65, 92
2, 199200, Note_on_c, 0, 77, 92
2, 199264, Note_on_c, 0, 77, 0
2, 199264, Note_on_c, 0, 65, 0
2, 199296, Note_on_c, 0, 60, 92
2, 199296, Note_on_c, 0, 81, 92
2, 199360, Note_on_c, 0, 81, 0
2, 199392, Note_on_c, 0, 77, 92
2, 199424, Note_on_c, 0, 60, 0
2, 199456, Note_on_c, 0, 77, 0
2, 199488, Note_on_c, 0, 72, 92
2, 199552, Note_on_c, 0, 72, 0
2, 199584, Note_on_c, 0, 69, 92
2, 199648, Note_on_c, 0, 69, 0
2, 199680, Note_on_c, 0, 70, 92
2, 199744, Note_on_c, 0, 70, 0
2, 199776, Note_on_c, 0, 86, 92
2, 199840, Note_on_c, 0, 86, 0
2, 199872, Note_on_c, 0, 82, 92
2, 199936, Note_on_c, 0, 82, 0
2, 199968, Note_on_c, 0, 81, 92
2, 200032, Note_on_c, 0, 81, 0
2, 200064, Note_on_c, 0, 79, 92
2, 200128, Note_on_c, 0, 79, 0
2, 200160, Note_on_c, 0, 86, 92
2, 200224, Note_on_c, 0, 86, 0
2, 200256, Note_on_c, 0, 79, 92
2, 200320, Note_on_c, 0, 79, 0
2, 200352, Note_on_c, 0, 77, 92
2, 200416, Note_on_c, 0, 77, 0
2, 200448, Note_on_c, 0, 76, 92
2, 200512, Note_on_c, 0, 76, 0
2, 200544, Note_on_c, 0, 79, 92
2, 200608, Note_on_c, 0, 79, 0
2, 200640, Note_on_c, 0, 76, 92
2, 200704, Note_on_c, 0, 76, 0
2, 200736, Note_on_c, 0, 74, 92
2, 200800, Note_on_c, 0, 74, 0
2, 200832, Note_on_c, 0, 72, 92
2, 200896, Note_on_c, 0, 72, 0
2, 200928, Note_on_c, 0, 79, 92
2, 200992, Note_on_c, 0, 79, 0
2, 201024, Note_on_c, 0, 72, 92
2, 201088, Note_on_c, 0, 72, 0
2, 201120, Note_on_c, 0, 70, 92
2, 201184, Note_on_c, 0, 70, 0
2, 201216, Note_on_c, 0, 69, 92
2, 201596, Note_on_c, 0, 69, 0
2, 201600, Note_on_c, 0, 84, 92
2, 202112, Note_on_c, 0, 84, 0
2, 202368, Note_on_c, 0, 69, 92
2, 202748, Note_on_c, 0, 69, 0
2, 202752, Note_on_c, 0, 70, 92
2, 203132, Note_on_c, 0, 70, 0
2, 203136, Note_on_c, 0, 86, 92
2, 203648, Note_on_c, 0, 86, 0
2, 203904, Note_on_c, 0, 70, 92
2, 204284, Note_on_c, 0, 70, 0
2, 204288, Note_on_c, 0, 71, 92
2, 204668, Note_on_c, 0, 71, 0
2, 204672, Note_on_c, 0, 89, 92
2, 205184, Note_on_c, 0, 89, 0
2, 205440, Note_on_c, 0, 71, 92
2, 205820, Note_on_c, 0, 71, 0
2, 205920, Note_on_c, 0, 60, 92
2, 205984, Note_on_c, 0, 60, 0
2, 206016, Note_on_c, 0, 65, 92
2, 206080, Note_on_c, 0, 65, 0
2, 206112, Note_on_c, 0, 69, 92
2, 206176, Note_on_c, 0, 69, 0
2, 206208, Note_on_c, 0, 72, 92
2, 206272, Note_on_c, 0, 72, 0
2, 206304, Note_on_c, 0, 65, 92
2, 206368, Note_on_c, 0, 65, 0
2, 206400, Note_on_c, 0, 69, 92
2, 206464, Note_on_c, 0, 69, 0
2, 206496, Note_on_c, 0, 72, 92
2, 206560, Note_on_c, 0, 72, 0
2, 206592, Note_on_c, 0, 77, 92
2, 206656, Note_on_c, 0, 77, 0
2, 206688, Note_on_c, 0, 69, 92
2, 206752, Note_on_c, 0, 69, 0
2, 206784, Note_on_c, 0, 72, 92
2, 206848, Note_on_c, 0, 72, 0
2, 206880, Note_on_c, 0, 77, 92
2, 206944, Note_on_c, 0, 77, 0
2, 206976, Note_on_c, 0, 81, 92
2, 207040, Note_on_c, 0, 81, 0
2, 207072, Note_on_c, 0, 72, 92
2, 207136, Note_on_c, 0, 72, 0
2, 207168, Note_on_c, 0, 77, 92
2, 207232, Note_on_c, 0, 77, 0
2, 207264, Note_on_c, 0, 81, 92
2, 207328, Note_on_c, 0, 81, 0
2, 207360, Note_on_c, 0, 84, 92
2, 207616, Note_on_c, 0, 84, 0
2, 209024, Note_on_c, 0, 89, 92
2, 209120, Note_on_c, 0, 89, 0
2, 209152, Note_on_c, 0, 88, 92
2, 209248, Note_on_c, 0, 88, 0
2, 209280, Note_on_c, 0, 87, 92
2, 209376, Note_on_c, 0, 87, 0
2, 209408, Note_on_c, 0, 86, 92
2, 209504, Note_on_c, 0, 86, 0
2, 209536, Note_on_c, 0, 85, 92
2, 209632, Note_on_c, 0, 85, 0
2, 209664, Note_on_c, 0, 84, 92
2, 209760, Note_on_c, 0, 84, 0
2, 209792, Note_on_c, 0, 83, 92
2, 209888, Note_on_c, 0, 83, 0
2, 209920, Note_on_c, 0, 82, 92
2, 210016, Note_on_c, 0, 82, 0
2, 210048, Note_on_c, 0, 81, 92
2, 210144, Note_on_c, 0, 81, 0
2, 210176, Note_on_c, 0, 79, 92
2, 210272, Note_on_c, 0, 79, 0
2, 210304, Note_on_c, 0, 77, 92
2, 210400, Note_on_c, 0, 77, 0
2, 210432, Note_on_c, 0, 60, 92
2, 210432, Note_on_c, 0, 79, 92
2, 210476, Note_on_c, 0, 79, 0
2, 210480, Note_on_c, 0, 81, 92
2, 210496, Note_on_c, 0, 60, 0
2, 210524, Note_on_c, 0, 81, 0
2, 210528, Note_on_c, 0, 70, 92
2, 210528, Note_on_c, 0, 79, 92
2, 210572, Note_on_c, 0, 79, 0
2, 210576, Note_on_c, 0, 81, 92
2, 210592, Note_on_c, 0, 70, 0
2, 210620, Note_on_c, 0, 81, 0
2, 210624, Note_on_c, 0, 64, 92
2, 210624, Note_on_c, 0, 79, 92
2, 210668, Note_on_c, 0, 79, 0
2, 210672, Note_on_c, 0, 81, 92
2, 210688, Note_on_c, 0, 64, 0
2, 210716, Note_on_c, 0, 81, 0
2, 210720, Note_on_c, 0, 70, 92
2, 210720, Note_on_c, 0, 79, 92
2, 210764, Note_on_c, 0, 79, 0
2, 210768, Note_on_c, 0, 81, 92
2, 210784, Note_on_c, 0, 70, 0
2, 210812, Note_on_c, 0, 81, 0
2, 210816, Note_on_c, 0, 60, 92
2, 210816, Note_on_c, 0, 79, 92
2, 210860, Note_on_c, 0, 79, 0
2, 210864, Note_on_c, 0, 81, 92
2, 210880, Note_on_c, 0, 60, 0
2, 210908, Note_on_c, 0, 81, 0
2, 210912, Note_on_c, 0, 70, 92
2, 210912, Note_on_c, 0, 79, 92
2, 210956, Note_on_c, 0, 79, 0
2, 210960, Note_on_c, 0, 81, 92
2, 210976, Note_on_c, 0, 70, 0
2, 211004, Note_on_c, 0, 81, 0
2, 211008, Note_on_c, 0, 79, 92
2, 211008, Note_on_c, 0, 64, 92
2, 211052, Note_on_c, 0, 79, 0
2, 211056, Note_on_c, 0, 81, 92
2, 211072, Note_on_c, 0, 64, 0
2, 211100, Note_on_c, 0, 81, 0
2, 211104, Note_on_c, 0, 70, 92
2, 211104, Note_on_c, 0, 79, 92
2, 211148, Note_on_c, 0, 79, 0
2, 211152, Note_on_c, 0, 81, 92
2, 211168, Note_on_c, 0, 70, 0
2, 211196, Note_on_c, 0, 81, 0
2, 211200, Note_on_c, 0, 60, 92
2, 211200, Note_on_c, 0, 79, 92
2, 211244, Note_on_c, 0, 79, 0
2, 211248, Note_on_c, 0, 81, 92
2, 211264, Note_on_c, 0, 60, 0
2, 211292, Note_on_c, 0, 81, 0
2, 211296, Note_on_c, 0, 70, 92
2, 211296, Note_on_c, 0, 79, 92
2, 211340, Note_on_c, 0, 79, 0
2, 211344, Note_on_c, 0, 81, 92
2, 211360, Note_on_c, 0, 70, 0
2, 211388, Note_on_c, 0, 81, 0
2, 211392, Note_on_c, 0, 64, 92
2, 211392, Note_on_c, 0, 79, 92
2, 211436, Note_on_c, 0, 79, 0
2, 211440, Note_on_c, 0, 81, 92
2, 211456, Note_on_c, 0, 64, 0
2, 211484, Note_on_c, 0, 81, 0
2, 211488, Note_on_c, 0, 70, 92
2, 211488, Note_on_c, 0, 79, 92
2, 211532, Note_on_c, 0, 79, 0
2, 211536, Note_on_c, 0, 81, 92
2, 211552, Note_on_c, 0, 70, 0
2, 211580, Note_on_c, 0, 81, 0
2, 211584, Note_on_c, 0, 60, 92
2, 211584, Note_on_c, 0, 79, 92
2, 211628, Note_on_c, 0, 79, 0
2, 211632, Note_on_c, 0, 81, 92
2, 211648, Note_on_c, 0, 60, 0
2, 211676, Note_on_c, 0, 81, 0
2, 211680, Note_on_c, 0, 70, 92
2, 211680, Note_on_c, 0, 79, 92
2, 211724, Note_on_c, 0, 79, 0
2, 211728, Note_on_c, 0, 81, 92
2, 211744, Note_on_c, 0, 70, 0
2, 211772, Note_on_c, 0, 81, 0
2, 211776, Note_on_c, 0, 64, 92
2, 211776, Note_on_c, 0, 79, 92
2, 211820, Note_on_c, 0, 79, 0
2, 211824, Note_on_c, 0, 81, 92
2, 211840, Note_on_c, 0, 64, 0
2, 211868, Note_on_c, 0, 81, 0
2, 211872, Note_on_c, 0, 70, 92
2, 211872, Note_on_c, 0, 77, 92
2, 211916, Note_on_c, 0, 77, 0
2, 211920, Note_on_c, 0, 79, 92
2, 211936, Note_on_c, 0, 70, 0
2, 211964, Note_on_c, 0, 79, 0
2, 211968, Note_on_c, 0, 65, 92
2, 211968, Note_on_c, 0, 69, 92
2, 211968, Note_on_c, 0, 77, 92
2, 212224, Note_on_c, 0, 77, 0
2, 212224, Note_on_c, 0, 69, 0
2, 212224, Note_on_c, 0, 65, 0
2, 238464, Note_on_c, 0, 77, 92
2, 238528, Note_on_c, 0, 77, 0
2, 238560, Note_on_c, 0, 76, 92
2, 238624, Note_on_c, 0, 76, 0
2, 238656, Note_on_c, 0, 77, 92
2, 238720, Note_on_c, 0, 77, 0
2, 238752, Note_on_c, 0, 79, 92
2, 238816, Note_on_c, 0, 79, 0
2, 238848, Note_on_c, 0, 77, 92
2, 238848, Note_on_c, 0, 70, 92
2, 238848, Note_on_c, 0, 67, 92
2, 238848, Note_on_c, 0, 60, 92
2, 238912, Note_on_c, 0, 77, 0
2, 238944, Note_on_c, 0, 76, 92
2, 239008, Note_on_c, 0, 76, 0
2, 239040, Note_on_c, 0, 74, 92
2, 239104, Note_on_c, 0, 74, 0
2, 239136, Note_on_c, 0, 72, 92
2, 239200, Note_on_c, 0, 72, 0
2, 239232, Note_on_c, 0, 73, 92
2, 239296, Note_on_c, 0, 73, 0
2, 239328, Note_on_c, 0, 74, 92
2, 239392, Note_on_c, 0, 74, 0
2, 239424, Note_on_c, 0, 75, 92
2, 239488, Note_on_c, 0, 75, 0
2, 239520, Note_on_c, 0, 76, 92
2, 239584, Note_on_c, 0, 76, 0
2, 239612, Note_on_c, 0, 60, 0
2, 239612, Note_on_c, 0, 67, 0
2, 239612, Note_on_c, 0, 70, 0
2, 239616, Note_on_c, 0, 68, 92
2, 239616, Note_on_c, 0, 65, 92
2, 239616, Note_on_c, 0, 77, 92
2, 239680, Note_on_c, 0, 77, 0
2, 239712, Note_on_c, 0, 76, 92
2, 239776, Note_on_c, 0, 76, 0
2, 239808, Note_on_c, 0, 77, 92
2, 239872, Note_on_c, 0, 77, 0
2, 239904, Note_on_c, 0, 72, 92
2, 239968, Note_on_c, 0, 72, 0
2, 239996, Note_on_c, 0, 65, 0
2, 239996, Note_on_c, 0, 68, 0
2, 240000, Note_on_c, 0, 77, 92
2, 240064, Note_on_c, 0, 77, 0
2, 240096, Note_on_c, 0, 76, 92
2, 240160, Note_on_c, 0, 76, 0
2, 240192, Note_on_c, 0, 77, 92
2, 240256, Note_on_c, 0, 77, 0
2, 240288, Note_on_c, 0, 79, 92
2, 240352, Note_on_c, 0, 79, 0
2, 240384, Note_on_c, 0, 70, 92
2, 240384, Note_on_c, 0, 60, 92
2, 240384, Note_on_c, 0, 67, 92
2, 240384, Note_on_c, 0, 77, 92
2, 240448, Note_on_c, 0, 77, 0
2, 240480, Note_on_c, 0, 76, 92
2, 240544, Note_on_c, 0, 76, 0
2, 240576, Note_on_c, 0, 74, 92
2, 240640, Note_on_c, 0, 74, 0
2, 240672, Note_on_c, 0, 72, 92
2, 240736, Note_on_c, 0, 72, 0
2, 240768, Note_on_c, 0, 73, 92
2, 240832, Note_on_c, 0, 73, 0
2, 240864, Note_on_c, 0, 74, 92
2, 240928, Note_on_c, 0, 74, 0
2, 240960, Note_on_c, 0, 75, 92
2, 241024, Note_on_c, 0, 75, 0
2, 241056, Note_on_c, 0, 76, 92
2, 241120, Note_on_c, 0, 76, 0
2, 241148, Note_on_c, 0, 67, 0
2, 241148, Note_on_c, 0, 60, 0
2, 241148, Note_on_c, 0, 70, 0
2, 241152, Note_on_c, 0, 65, 92
2, 241152, Note_on_c, 0, 68, 92
2, 241152, Note_on_c, 0, 77, 92
2, 241216, Note_on_c, 0, 77, 0
2, 241248, Note_on_c, 0, 79, 92
2, 241312, Note_on_c, 0, 79, 0
2, 241344, Note_on_c, 0, 80, 92
2, 241408, Note_on_c, 0, 80, 0
2, 241440, Note_on_c, 0, 79, 92
2, 241504, Note_on_c, 0, 79, 0
2, 241532, Note_on_c, 0, 68, 0
2, 241532, Note_on_c, 0, 65, 0
2, 241536, Note_on_c, 0, 68, 92
2, 241536, Note_on_c, 0, 65, 92
2, 241536, Note_on_c, 0, 77, 92
2, 241600, Note_on_c, 0, 77, 0
2, 241632, Note_on_c, 0, 79, 92
2, 241696, Note_on_c, 0, 79, 0
2, 241728, Note_on_c, 0, 80, 92
2, 241792, Note_on_c, 0, 80, 0
2, 241824, Note_on_c, 0, 79, 92
2, 241888, Note_on_c, 0, 79, 0
2, 241916, Note_on_c, 0, 65, 0
2, 241916, Note_on_c, 0, 68, 0
2, 241920, Note_on_c, 0, 68, 92
2, 241920, Note_on_c, 0, 65, 92
2, 241920, Note_on_c, 0, 77, 92
2, 241984, Note_on_c, 0, 77, 0
2, 242016, Note_on_c, 0, 79, 92
2, 242080, Note_on_c, 0, 79, 0
2, 242112, Note_on_c, 0, 75, 92
2, 242176, Note_on_c, 0, 75, 0
2, 242208, Note_on_c, 0, 77, 92
2, 242272, Note_on_c, 0, 77, 0
2, 242300, Note_on_c, 0, 65, 0
2, 242300, Note_on_c, 0, 68, 0
2, 242304, Note_on_c, 0, 74, 92
2, 242368, Note_on_c, 0, 74, 0
2, 242400, Note_on_c, 0, 75, 92
2, 242464, Note_on_c, 0, 75, 0
2, 242496, Note_on_c, 0, 72, 92
2, 242560, Note_on_c, 0, 72, 0
2, 242592, Note_on_c, 0, 74, 92
2, 242656, Note_on_c, 0, 74, 0
2, 242688, Note_on_c, 0, 67, 92
2, 242688, Note_on_c, 0, 71, 92
2, 242752, Note_on_c, 0, 71, 0
2, 242784, Note_on_c, 0, 89, 92
2, 242848, Note_on_c, 0, 89, 0
2, 242880, Note_on_c, 0, 86, 92
2, 242944, Note_on_c, 0, 86, 0
2, 242976, Note_on_c, 0, 84, 92
2, 243040, Note_on_c, 0, 84, 0
2, 243068, Note_on_c, 0, 67, 0
2, 243072, Note_on_c, 0, 77, 92
2, 243072, Note_on_c, 0, 74, 92
2, 243072, Note_on_c, 0, 67, 92
2, 243072, Note_on_c, 0, 83, 92
2, 243136, Note_on_c, 0, 83, 0
2, 243168, Note_on_c, 0, 84, 92
2, 243232, Note_on_c, 0, 84, 0
2, 243264, Note_on_c, 0, 86, 92
2, 243328, Note_on_c, 0, 86, 0
2, 243360, Note_on_c, 0, 84, 92
2, 243424, Note_on_c, 0, 84, 0
2, 243452, Note_on_c, 0, 67, 0
2, 243452, Note_on_c, 0, 74, 0
2, 243452, Note_on_c, 0, 77, 0
2, 243456, Note_on_c, 0, 77, 92
2, 243456, Note_on_c, 0, 74, 92
2, 243456, Note_on_c, 0, 67, 92
2, 243456, Note_on_c, 0, 83, 92
2, 243520, Note_on_c, 0, 83, 0
2, 243552, Note_on_c, 0, 84, 92
2, 243616, Note_on_c, 0, 84, 0
2, 243632, Note_on_c, 0, 86, 92
2, 243696, Note_on_c, 0, 86, 0
2, 243744, Note_on_c, 0, 84, 92
2, 243808, Note_on_c, 0, 84, 0
2, 243836, Note_on_c, 0, 67, 0
2, 243836, Note_on_c, 0, 74, 0
2, 243836, Note_on_c, 0, 77, 0
2, 243840, Note_on_c, 0, 83, 92
2, 243904, Note_on_c, 0, 83, 0
2, 243936, Note_on_c, 0, 80, 92
2, 244000, Note_on_c, 0, 80, 0
2, 244032, Note_on_c, 0, 79, 92
2, 244096, Note_on_c, 0, 79, 0
2, 244128, Note_on_c, 0, 77, 92
2, 244192, Note_on_c, 0, 77, 0
2, 244224, Note_on_c, 0, 75, 92
2, 244288, Note_on_c, 0, 75, 0
2, 244320, Note_on_c, 0, 74, 92
2, 244384, Note_on_c, 0, 74, 0
2, 244416, Note_on_c, 0, 75, 92
2, 244480, Note_on_c, 0, 75, 0
2, 244512, Note_on_c, 0, 72, 92
2, 244576, Note_on_c, 0, 72, 0
2, 244608, Note_on_c, 0, 79, 92
2, 244988, Note_on_c, 0, 79, 0
2, 245376, Note_on_c, 0, 79, 92
2, 245376, Note_on_c, 0, 77, 92
2, 245756, Note_on_c, 0, 77, 0
2, 245756, Note_on_c, 0, 79, 0
2, 245760, Note_on_c, 0, 79, 92
2, 245760, Note_on_c, 0, 75, 92
2, 246140, Note_on_c, 0, 75, 0
2, 246140, Note_on_c, 0, 79, 0
2, 246912, Note_on_c, 0, 79, 92
2, 246912, Note_on_c, 0, 77, 92
2, 247292, Note_on_c, 0, 77, 0
2, 247292, Note_on_c, 0, 79, 0
2, 247296, Note_on_c, 0, 79, 92
2, 247296, Note_on_c, 0, 75, 92
2, 247676, Note_on_c, 0, 75, 0
2, 247676, Note_on_c, 0, 79, 0
2, 248448, Note_on_c, 0, 77, 92
2, 248448, Note_on_c, 0, 79, 92
2, 248828, Note_on_c, 0, 79, 0
2, 248828, Note_on_c, 0, 77, 0
2, 248832, Note_on_c, 0, 79, 92
2, 248832, Note_on_c, 0, 75, 92
2, 249212, Note_on_c, 0, 75, 0
2, 249212, Note_on_c, 0, 79, 0
2, 249216, Note_on_c, 0, 79, 92
2, 249216, Note_on_c, 0, 75, 92
2, 249596, Note_on_c, 0, 75, 0
2, 249596, Note_on_c, 0, 79, 0
2, 249600, Note_on_c, 0, 79, 92
2, 249600, Note_on_c, 0, 75, 92
2, 249980, Note_on_c, 0, 75, 0
2, 249980, Note_on_c, 0, 79, 0
2, 249984, Note_on_c, 0, 75, 92
2, 249984, Note_on_c, 0, 78, 92
2, 250172, Note_on_c, 0, 78, 0
2, 250176, Note_on_c, 0, 79, 92
2, 250364, Note_on_c, 0, 79, 0
2, 250364, Note_on_c, 0, 75, 0
2, 250368, Note_on_c, 0, 81, 92
2, 250368, Note_on_c, 0, 74, 92
2, 250464, Note_on_c, 0, 70, 92
2, 250528, Note_on_c, 0, 70, 0
2, 250560, Note_on_c, 0, 69, 92
2, 250624, Note_on_c, 0, 69, 0
2, 250656, Note_on_c, 0, 67, 92
2, 250720, Note_on_c, 0, 67, 0
2, 250748, Note_on_c, 0, 74, 0
2, 250748, Note_on_c, 0, 81, 0
2, 250752, Note_on_c, 0, 81, 92
2, 250752, Note_on_c, 0, 74, 92
2, 250752, Note_on_c, 0, 66, 92
2, 250816, Note_on_c, 0, 66, 0
2, 250848, Note_on_c, 0, 67, 92
2, 250912, Note_on_c, 0, 67, 0
2, 250944, Note_on_c, 0, 69, 92
2, 251008, Note_on_c, 0, 69, 0
2, 251040, Note_on_c, 0, 67, 92
2, 251104, Note_on_c, 0, 67, 0
2, 251120, Note_on_c, 0, 81, 92
2, 251132, Note_on_c, 0, 74, 0
2, 251132, Note_on_c, 0, 81, 0
2, 251136, Note_on_c, 0, 74, 92
2, 251136, Note_on_c, 0, 66, 92
2, 251200, Note_on_c, 0, 66, 0
2, 251232, Note_on_c, 0, 67, 92
2, 251296, Note_on_c, 0, 67, 0
2, 251328, Note_on_c, 0, 69, 92
2, 251392, Note_on_c, 0, 69, 0
2, 251424, Note_on_c, 0, 67, 92
2, 251488, Note_on_c, 0, 67, 0
2, 251500, Note_on_c, 0, 81, 0
2, 251516, Note_on_c, 0, 74, 0
2, 251520, Note_on_c, 0, 66, 92
2, 251584, Note_on_c, 0, 66, 0
2, 251616, Note_on_c, 0, 63, 92
2, 251680, Note_on_c, 0, 63, 0
2, 251712, Note_on_c, 0, 62, 92
2, 251776, Note_on_c, 0, 62, 0
2, 251808, Note_on_c, 0, 60, 92
2, 251872, Note_on_c, 0, 60, 0
2, 251904, Note_on_c, 0, 58, 92
2, 252160, Note_on_c, 0, 58, 0
2, 252288, Note_on_c, 0, 79, 92
2, 252352, Note_on_c, 0, 79, 0
2, 252384, Note_on_c, 0, 78, 92
2, 252448, Note_on_c, 0, 78, 0
2, 252480, Note_on_c, 0, 79, 92
2, 252544, Note_on_c, 0, 79, 0
2, 252576, Note_on_c, 0, 81, 92
2, 252640, Note_on_c, 0, 81, 0
2, 252672, Note_on_c, 0, 79, 92
2, 252736, Note_on_c, 0, 79, 0
2, 252768, Note_on_c, 0, 78, 92
2, 252832, Note_on_c, 0, 78, 0
2, 252864, Note_on_c, 0, 76, 92
2, 252928, Note_on_c, 0, 76, 0
2, 252960, Note_on_c, 0, 74, 92
2, 253024, Note_on_c, 0, 74, 0
2, 253056, Note_on_c, 0, 62, 92
2, 253056, Note_on_c, 0, 69, 92
2, 253056, Note_on_c, 0, 72, 92
2, 253056, Note_on_c, 0, 75, 92
2, 253120, Note_on_c, 0, 75, 0
2, 253152, Note_on_c, 0, 76, 92
2, 253216, Note_on_c, 0, 76, 0
2, 253248, Note_on_c, 0, 77, 92
2, 253312, Note_on_c, 0, 77, 0
2, 253344, Note_on_c, 0, 78, 92
2, 253408, Note_on_c, 0, 78, 0
2, 253436, Note_on_c, 0, 72, 0
2, 253436, Note_on_c, 0, 69, 0
2, 253436, Note_on_c, 0, 62, 0
2, 253440, Note_on_c, 0, 70, 92
2, 253440, Note_on_c, 0, 67, 92
2, 253440, Note_on_c, 0, 79, 92
2, 253504, Note_on_c, 0, 79, 0
2, 253536, Note_on_c, 0, 78, 92
2, 253600, Note_on_c, 0, 78, 0
2, 253632, Note_on_c, 0, 79, 92
2, 253696, Note_on_c, 0, 79, 0
2, 253728, Note_on_c, 0, 74, 92
2, 253792, Note_on_c, 0, 74, 0
2, 253820, Note_on_c, 0, 67, 0
2, 253820, Note_on_c, 0, 70, 0
2, 253824, Note_on_c, 0, 79, 92
2, 253888, Note_on_c, 0, 79, 0
2, 253920, Note_on_c, 0, 78, 92
2, 253984, Note_on_c, 0, 78, 0
2, 254016, Note_on_c, 0, 79, 92
2, 254080, Note_on_c, 0, 79, 0
2, 254112, Note_on_c, 0, 81, 92
2, 254176, Note_on_c, 0, 81, 0
2, 254208, Note_on_c, 0, 79, 92
2, 254272, Note_on_c, 0, 79, 0
2, 254304, Note_on_c, 0, 78, 92
2, 254368, Note_on_c, 0, 78, 0
2, 254400, Note_on_c, 0, 76, 92
2, 254464, Note_on_c, 0, 76, 0
2, 254496, Note_on_c, 0, 74, 92
2, 254560, Note_on_c, 0, 74, 0
2, 254592, Note_on_c, 0, 72, 92
2, 254592, Note_on_c, 0, 69, 92
2, 254592, Note_on_c, 0, 62, 92
2, 254592, Note_on_c, 0, 75, 92
2, 254656, Note_on_c, 0, 75, 0
2, 254688, Note_on_c, 0, 76, 92
2, 254752, Note_on_c, 0, 76, 0
2, 254784, Note_on_c, 0, 77, 92
2, 254848, Note_on_c, 0, 77, 0
2, 254880, Note_on_c, 0, 78, 92
2, 254944, Note_on_c, 0, 78, 0
2, 254972, Note_on_c, 0, 62, 0
2, 254972, Note_on_c, 0, 69, 0
2, 254972, Note_on_c, 0, 72, 0
2, 254976, Note_on_c, 0, 70, 92
2, 254976, Note_on_c, 0, 67, 92
2, 254976, Note_on_c, 0, 79, 92
2, 255040, Note_on_c, 0, 79, 0
2, 255072, Note_on_c, 0, 78, 92
2, 255136, Note_on_c, 0, 78, 0
2, 255168, Note_on_c, 0, 79, 92
2, 255232, Note_on_c, 0, 79, 0
2, 255232, Note_on_c, 0, 67, 0
2, 255232, Note_on_c, 0, 70, 0
2, 255264, Note_on_c, 0, 74, 92
2, 255328, Note_on_c, 0, 74, 0
2, 255360, Note_on_c, 0, 67, 92
2, 255360, Note_on_c, 0, 82, 92
2, 255424, Note_on_c, 0, 82, 0
2, 255424, Note_on_c, 0, 67, 0
2, 255456, Note_on_c, 0, 66, 92
2, 255456, Note_on_c, 0, 81, 92
2, 255520, Note_on_c, 0, 81, 0
2, 255520, Note_on_c, 0, 66, 0
2, 255552, Note_on_c, 0, 67, 92
2, 255552, Note_on_c, 0, 82, 92
2, 255616, Note_on_c, 0, 82, 0
2, 255616, Note_on_c, 0, 67, 0
2, 255648, Note_on_c, 0, 69, 92
2, 255648, Note_on_c, 0, 84, 92
2, 255712, Note_on_c, 0, 84, 0
2, 255712, Note_on_c, 0, 69, 0
2, 255744, Note_on_c, 0, 67, 92
2, 255744, Note_on_c, 0, 82, 92
2, 255808, Note_on_c, 0, 82, 0
2, 255808, Note_on_c, 0, 67, 0
2, 255840, Note_on_c, 0, 66, 92
2, 255840, Note_on_c, 0, 81, 92
2, 255904, Note_on_c, 0, 81, 0
2, 255904, Note_on_c, 0, 66, 0
2, 255936, Note_on_c, 0, 64, 92
2, 255936, Note_on_c, 0, 79, 92
2, 256000, Note_on_c, 0, 79, 0
2, 256000, Note_on_c, 0, 64, 0
2, 256032, Note_on_c, 0, 62, 92
2, 256032, Note_on_c, 0, 78, 92
2, 256096, Note_on_c, 0, 78, 0
2, 256096, Note_on_c, 0, 62, 0
2, 256128, Note_on_c, 0, 63, 92
2, 256128, Note_on_c, 0, 79, 92
2, 256192, Note_on_c, 0, 63, 0
2, 256224, Note_on_c, 0, 64, 92
2, 256256, Note_on_c, 0, 79, 0
2, 256288, Note_on_c, 0, 64, 0
2, 256320, Note_on_c, 0, 65, 92
2, 256320, Note_on_c, 0, 81, 92
2, 256384, Note_on_c, 0, 65, 0
2, 256416, Note_on_c, 0, 66, 92
2, 256448, Note_on_c, 0, 81, 0
2, 256480, Note_on_c, 0, 66, 0
2, 256512, Note_on_c, 0, 67, 92
2, 256512, Note_on_c, 0, 82, 92
2, 256640, Note_on_c, 0, 82, 0
2, 256640, Note_on_c, 0, 67, 0
2, 256704, Note_on_c, 0, 70, 92
2, 256704, Note_on_c, 0, 85, 92
2, 256768, Note_on_c, 0, 85, 0
2, 256768, Note_on_c, 0, 70, 0
2, 256800, Note_on_c, 0, 68, 92
2, 256800, Note_on_c, 0, 84, 92
2, 256864, Note_on_c, 0, 84, 0
2, 256864, Note_on_c, 0, 68, 0
2, 256896, Note_on_c, 0, 67, 92
2, 256896, Note_on_c, 0, 82, 92
2, 257024, Note_on_c, 0, 82, 0
2, 257024, Note_on_c, 0, 67, 0
2, 257088, Note_on_c, 0, 85, 92
2, 257088, Note_on_c, 0, 70, 92
2, 257152, Note_on_c, 0, 70, 0
2, 257152, Note_on_c, 0, 85, 0
2, 257184, Note_on_c, 0, 68, 92
2, 257184, Note_on_c, 0, 84, 92
2, 257248, Note_on_c, 0, 84, 0
2, 257248, Note_on_c, 0, 68, 0
2, 257280, Note_on_c, 0, 67, 92
2, 257280, Note_on_c, 0, 82, 92
2, 257408, Note_on_c, 0, 82, 0
2, 257472, Note_on_c, 0, 85, 92
2, 257536, Note_on_c, 0, 85, 0
2, 257536, Note_on_c, 0, 67, 0
2, 257568, Note_on_c, 0, 84, 92
2, 257632, Note_on_c, 0, 84, 0
2, 257664, Note_on_c, 0, 82, 92
2, 257728, Note_on_c, 0, 82, 0
2, 257760, Note_on_c, 0, 80, 92
2, 257824, Note_on_c, 0, 80, 0
2, 257856, Note_on_c, 0, 79, 92
2, 257920, Note_on_c, 0, 79, 0
2, 257952, Note_on_c, 0, 77, 92
2, 258016, Note_on_c, 0, 77, 0
2, 258048, Note_on_c, 0, 76, 92
2, 258176, Note_on_c, 0, 76, 0
2, 258240, Note_on_c, 0, 79, 92
2, 258304, Note_on_c, 0, 79, 0
2, 258336, Note_on_c, 0, 77, 92
2, 258400, Note_on_c, 0, 77, 0
2, 258432, Note_on_c, 0, 76, 92
2, 258560, Note_on_c, 0, 76, 0
2, 258624, Note_on_c, 0, 79, 92
2, 258688, Note_on_c, 0, 79, 0
2, 258720, Note_on_c, 0, 77, 92
2, 258784, Note_on_c, 0, 77, 0
2, 258816, Note_on_c, 0, 76, 92
2, 258944, Note_on_c, 0, 76, 0
2, 259008, Note_on_c, 0, 79, 92
2, 259072, Note_on_c, 0, 79, 0
2, 259104, Note_on_c, 0, 77, 92
2, 259168, Note_on_c, 0, 77, 0
2, 259200, Note_on_c, 0, 76, 92
2, 259264, Note_on_c, 0, 76, 0
2, 259296, Note_on_c, 0, 73, 92
2, 259360, Note_on_c, 0, 73, 0
2, 259392, Note_on_c, 0, 72, 92
2, 259456, Note_on_c, 0, 72, 0
2, 259488, Note_on_c, 0, 70, 92
2, 259552, Note_on_c, 0, 70, 0
2, 259584, Note_on_c, 0, 68, 92
2, 259712, Note_on_c, 0, 68, 0
2, 259776, Note_on_c, 0, 68, 92
2, 259776, Note_on_c, 0, 84, 92
2, 259840, Note_on_c, 0, 84, 0
2, 259840, Note_on_c, 0, 68, 0
2, 259872, Note_on_c, 0, 67, 92
2, 259872, Note_on_c, 0, 82, 92
2, 259936, Note_on_c, 0, 82, 0
2, 259936, Note_on_c, 0, 67, 0
2, 259968, Note_on_c, 0, 65, 92
2, 259968, Note_on_c, 0, 80, 92
2, 260096, Note_on_c, 0, 80, 0
2, 260096, Note_on_c, 0, 65, 0
2, 260160, Note_on_c, 0, 68, 92
2, 260160, Note_on_c, 0, 84, 92
2, 260224, Note_on_c, 0, 84, 0
2, 260224, Note_on_c, 0, 68, 0
2, 260256, Note_on_c, 0, 67, 92
2, 260256, Note_on_c, 0, 82, 92
2, 260320, Note_on_c, 0, 82, 0
2, 260320, Note_on_c, 0, 67, 0
2, 260352, Note_on_c, 0, 65, 92
2, 260352, Note_on_c, 0, 80, 92
2, 260480, Note_on_c, 0, 80, 0
2, 260544, Note_on_c, 0, 84, 92
2, 260608, Note_on_c, 0, 84, 0
2, 260640, Note_on_c, 0, 82, 92
2, 260704, Note_on_c, 0, 82, 0
2, 260732, Note_on_c, 0, 65, 0
2, 260736, Note_on_c, 0, 80, 92
2, 260800, Note_on_c, 0, 80, 0
2, 260832, Note_on_c, 0, 79, 92
2, 260896, Note_on_c, 0, 79, 0
2, 260928, Note_on_c, 0, 77, 92
2, 260992, Note_on_c, 0, 77, 0
2, 261024, Note_on_c, 0, 75, 92
2, 261088, Note_on_c, 0, 75, 0
2, 261120, Note_on_c, 0, 74, 92
2, 261248, Note_on_c, 0, 74, 0
2, 261312, Note_on_c, 0, 77, 92
2, 261376, Note_on_c, 0, 77, 0
2, 261408, Note_on_c, 0, 75, 92
2, 261472, Note_on_c, 0, 75, 0
2, 261504, Note_on_c, 0, 74, 92
2, 261632, Note_on_c, 0, 74, 0
2, 261696, Note_on_c, 0, 77, 92
2, 261760, Note_on_c, 0, 77, 0
2, 261792, Note_on_c, 0, 75, 92
2, 261856, Note_on_c, 0, 75, 0
2, 261888, Note_on_c, 0, 74, 92
2, 262016, Note_on_c, 0, 74, 0
2, 262080, Note_on_c, 0, 77, 92
2, 262144, Note_on_c, 0, 77, 0
2, 262176, Note_on_c, 0, 75, 92
2, 262240, Note_on_c, 0, 75, 0
2, 262272, Note_on_c, 0, 74, 92
2, 262336, Note_on_c, 0, 74, 0
2, 262368, Note_on_c, 0, 72, 92
2, 262432, Note_on_c, 0, 72, 0
2, 262464, Note_on_c, 0, 70, 92
2, 262528, Note_on_c, 0, 70, 0
2, 262560, Note_on_c, 0, 68, 92
2, 262624, Note_on_c, 0, 68, 0
2, 262656, Note_on_c, 0, 67, 92
2, 262752, Note_on_c, 0, 67, 0
2, 262784, Note_on_c, 0, 63, 92
2, 262880, Note_on_c, 0, 63, 0
2, 262912, Note_on_c, 0, 62, 92
2, 263008, Note_on_c, 0, 62, 0
2, 263040, Note_on_c, 0, 63, 92
2, 263136, Note_on_c, 0, 63, 0
2, 263168, Note_on_c, 0, 67, 92
2, 263264, Note_on_c, 0, 67, 0
2, 263296, Note_on_c, 0, 66, 92
2, 263392, Note_on_c, 0, 66, 0
2, 263424, Note_on_c, 0, 67, 92
2, 263520, Note_on_c, 0, 67, 0
2, 263552, Note_on_c, 0, 70, 92
2, 263648, Note_on_c, 0, 70, 0
2, 263680, Note_on_c, 0, 69, 92
2, 263776, Note_on_c, 0, 69, 0
2, 263808, Note_on_c, 0, 58, 92
2, 263808, Note_on_c, 0, 70, 92
2, 263904, Note_on_c, 0, 70, 0
2, 263904, Note_on_c, 0, 58, 0
2, 263936, Note_on_c, 0, 63, 92
2, 263936, Note_on_c, 0, 75, 92
2, 264032, Note_on_c, 0, 75, 0
2, 264032, Note_on_c, 0, 63, 0
2, 264064, Note_on_c, 0, 62, 92
2, 264064, Note_on_c, 0, 74, 92
2, 264160, Note_on_c, 0, 74, 0
2, 264160, Note_on_c, 0, 62, 0
2, 264192, Note_on_c, 0, 63, 92
2, 264192, Note_on_c, 0, 75, 92
2, 264288, Note_on_c, 0, 75, 0
2, 264288, Note_on_c, 0, 63, 0
2, 264320, Note_on_c, 0, 67, 92
2, 264320, Note_on_c, 0, 79, 92
2, 264416, Note_on_c, 0, 79, 0
2, 264416, Note_on_c, 0, 67, 0
2, 264448, Note_on_c, 0, 66, 92
2, 264448, Note_on_c, 0, 78, 92
2, 264544, Note_on_c, 0, 78, 0
2, 264544, Note_on_c, 0, 66, 0
2, 264576, Note_on_c, 0, 67, 92
2, 264576, Note_on_c, 0, 79, 92
2, 264672, Note_on_c, 0, 79, 0
2, 264672, Note_on_c, 0, 67, 0
2, 264704, Note_on_c, 0, 70, 92
2, 264704, Note_on_c, 0, 82, 92
2, 264800, Note_on_c, 0, 82, 0
2, 264800, Note_on_c, 0, 70, 0
2, 264832, Note_on_c, 0, 69, 92
2, 264832, Note_on_c, 0, 81, 92
2, 264928, Note_on_c, 0, 81, 0
2, 264928, Note_on_c, 0, 69, 0
2, 264960, Note_on_c, 0, 70, 92
2, 264960, Note_on_c, 0, 82, 92
2, 265056, Note_on_c, 0, 82, 0
2, 265056, Note_on_c, 0, 70, 0
2, 265088, Note_on_c, 0, 68, 92
2, 265088, Note_on_c, 0, 80, 92
2, 265184, Note_on_c, 0, 80, 0
2, 265184, Note_on_c, 0, 68, 0
2, 265216, Note_on_c, 0, 67, 92
2, 265216, Note_on_c, 0, 79, 92
2, 265312, Note_on_c, 0, 79, 0
2, 265312, Note_on_c, 0, 67, 0
2, 265344, Note_on_c, 0, 65, 92
2, 265344, Note_on_c, 0, 77, 92
2, 265440, Note_on_c, 0, 77, 0
2, 265440, Note_on_c, 0, 65, 0
2, 265472, Note_on_c, 0, 67, 92
2, 265472, Note_on_c, 0, 79, 92
2, 265568, Note_on_c, 0, 79, 0
2, 265568, Note_on_c, 0, 67, 0
2, 265600, Note_on_c, 0, 63, 92
2, 265600, Note_on_c, 0, 75, 92
2, 265696, Note_on_c, 0, 75, 0
2, 265696, Note_on_c, 0, 63, 0
2, 265728, Note_on_c, 0, 70, 92
2, 265728, Note_on_c, 0, 82, 92
2, 265824, Note_on_c, 0, 82, 0
2, 265824, Note_on_c, 0, 70, 0
2, 265856, Note_on_c, 0, 65, 92
2, 265856, Note_on_c, 0, 77, 92
2, 265952, Note_on_c, 0, 77, 0
2, 265952, Note_on_c, 0, 65, 0
2, 265984, Note_on_c, 0, 64, 92
2, 265984, Note_on_c, 0, 76, 92
2, 266080, Note_on_c, 0, 76, 0
2, 266080, Note_on_c, 0, 64, 0
2, 266112, Note_on_c, 0, 65, 92
2, 266112, Note_on_c, 0, 77, 92
2, 266208, Note_on_c, 0, 77, 0
2, 266208, Note_on_c, 0, 65, 0
2, 266240, Note_on_c, 0, 62, 92
2, 266240, Note_on_c, 0, 74, 92
2, 266336, Note_on_c, 0, 74, 0
2, 266336, Note_on_c, 0, 62, 0
2, 266368, Note_on_c, 0, 61, 92
2, 266368, Note_on_c, 0, 73, 92
2, 266464, Note_on_c, 0, 73, 0
2, 266464, Note_on_c, 0, 61, 0
2, 266496, Note_on_c, 0, 74, 92
2, 266592, Note_on_c, 0, 74, 0
2, 266624, Note_on_c, 0, 70, 92
2, 266720, Note_on_c, 0, 70, 0
2, 266752, Note_on_c, 0, 69, 92
2, 266848, Note_on_c, 0, 69, 0
2, 266880, Note_on_c, 0, 70, 92
2, 266976, Note_on_c, 0, 70, 0
2, 267008, Note_on_c, 0, 65, 92
2, 267104, Note_on_c, 0, 65, 0
2, 267136, Note_on_c, 0, 64, 92
2, 267232, Note_on_c, 0, 64, 0
2, 267264, Note_on_c, 0, 65, 92
2, 267360, Note_on_c, 0, 65, 0
2, 267392, Note_on_c, 0, 62, 92
2, 267488, Note_on_c, 0, 62, 0
2, 267520, Note_on_c, 0, 61, 92
2, 267616, Note_on_c, 0, 61, 0
2, 267648, Note_on_c, 0, 62, 92
2, 267744, Note_on_c, 0, 62, 0
2, 267776, Note_on_c, 0, 58, 92
2, 267872, Note_on_c, 0, 58, 0
2, 267904, Note_on_c, 0, 57, 92
2, 268000, Note_on_c, 0, 57, 0
2, 268032, Note_on_c, 0, 58, 92
2, 268128, Note_on_c, 0, 58, 0
2, 268160, Note_on_c, 0, 65, 92
2, 268256, Note_on_c, 0, 65, 0
2, 268288, Note_on_c, 0, 63, 92
2, 268384, Note_on_c, 0, 63, 0
2, 268416, Note_on_c, 0, 62, 92
2, 268512, Note_on_c, 0, 62, 0
2, 268544, Note_on_c, 0, 60, 92
2, 268640, Note_on_c, 0, 60, 0
2, 268672, Note_on_c, 0, 58, 92
2, 268768, Note_on_c, 0, 58, 0
2, 268800, Note_on_c, 0, 63, 92
2, 268896, Note_on_c, 0, 63, 0
2, 268928, Note_on_c, 0, 60, 92
2, 269024, Note_on_c, 0, 60, 0
2, 269056, Note_on_c, 0, 59, 92
2, 269152, Note_on_c, 0, 59, 0
2, 269184, Note_on_c, 0, 60, 92
2, 269280, Note_on_c, 0, 60, 0
2, 269312, Note_on_c, 0, 63, 92
2, 269408, Note_on_c, 0, 63, 0
2, 269440, Note_on_c, 0, 62, 92
2, 269536, Note_on_c, 0, 62, 0
2, 269568, Note_on_c, 0, 63, 92
2, 269664, Note_on_c, 0, 63, 0
2, 269696, Note_on_c, 0, 67, 92
2, 269792, Note_on_c, 0, 67, 0
2, 269824, Note_on_c, 0, 66, 92
2, 269920, Note_on_c, 0, 66, 0
2, 269952, Note_on_c, 0, 67, 92
2, 270048, Note_on_c, 0, 67, 0
2, 270080, Note_on_c, 0, 72, 92
2, 270176, Note_on_c, 0, 72, 0
2, 270208, Note_on_c, 0, 71, 92
2, 270304, Note_on_c, 0, 71, 0
2, 270336, Note_on_c, 0, 60, 92
2, 270336, Note_on_c, 0, 72, 92
2, 270432, Note_on_c, 0, 72, 0
2, 270432, Note_on_c, 0, 60, 0
2, 270464, Note_on_c, 0, 63, 92
2, 270464, Note_on_c, 0, 75, 92
2, 270560, Note_on_c, 0, 75, 0
2, 270560, Note_on_c, 0, 63, 0
2, 270592, Note_on_c, 0, 62, 92
2, 270592, Note_on_c, 0, 74, 92
2, 270688, Note_on_c, 0, 74, 0
2, 270688, Note_on_c, 0, 62, 0
2, 270720, Note_on_c, 0, 63, 92
2, 270720, Note_on_c, 0, 75, 92
2, 270816, Note_on_c, 0, 75, 0
2, 270816, Note_on_c, 0, 63, 0
2, 270848, Note_on_c, 0, 67, 92
2, 270848, Note_on_c, 0, 79, 92
2, 270944, Note_on_c, 0, 79, 0
2, 270944, Note_on_c, 0, 67, 0
2, 270976, Note_on_c, 0, 66, 92
2, 270976, Note_on_c, 0, 78, 92
2, 271072, Note_on_c, 0, 78, 0
2, 271072, Note_on_c, 0, 66, 0
2, 271104, Note_on_c, 0, 67, 92
2, 271104, Note_on_c, 0, 79, 92
2, 271200, Note_on_c, 0, 79, 0
2, 271200, Note_on_c, 0, 67, 0
2, 271232, Note_on_c, 0, 65, 92
2, 271232, Note_on_c, 0, 77, 92
2, 271328, Note_on_c, 0, 77, 0
2, 271328, Note_on_c, 0, 65, 0
2, 271360, Note_on_c, 0, 63, 92
2, 271360, Note_on_c, 0, 75, 92
2, 271456, Note_on_c, 0, 75, 0
2, 271456, Note_on_c, 0, 63, 0
2, 271488, Note_on_c, 0, 62, 92
2, 271488, Note_on_c, 0, 74, 92
2, 271584, Note_on_c, 0, 74, 0
2, 271584, Note_on_c, 0, 62, 0
2, 271616, Note_on_c, 0, 63, 92
2, 271616, Note_on_c, 0, 75, 92
2, 271712, Note_on_c, 0, 75, 0
2, 271712, Note_on_c, 0, 63, 0
2, 271744, Note_on_c, 0, 60, 92
2, 271744, Note_on_c, 0, 72, 92
2, 271840, Note_on_c, 0, 72, 0
2, 271840, Note_on_c, 0, 60, 0
2, 271872, Note_on_c, 0, 67, 92
2, 271872, Note_on_c, 0, 79, 92
2, 271968, Note_on_c, 0, 79, 0
2, 271968, Note_on_c, 0, 67, 0
2, 272000, Note_on_c, 0, 62, 92
2, 272000, Note_on_c, 0, 74, 92
2, 272096, Note_on_c, 0, 74, 0
2, 272096, Note_on_c, 0, 62, 0
2, 272128, Note_on_c, 0, 61, 92
2, 272128, Note_on_c, 0, 73, 92
2, 272224, Note_on_c, 0, 73, 0
2, 272224, Note_on_c, 0, 61, 0
2, 272256, Note_on_c, 0, 74, 92
2, 272352, Note_on_c, 0, 74, 0
2, 272384, Note_on_c, 0, 70, 92
2, 272480, Note_on_c, 0, 70, 0
2, 272512, Note_on_c, 0, 69, 92
2, 272608, Note_on_c, 0, 69, 0
2, 272640, Note_on_c, 0, 70, 92
2, 272736, Note_on_c, 0, 70, 0
2, 272768, Note_on_c, 0, 67, 92
2, 272864, Note_on_c, 0, 67, 0
2, 272896, Note_on_c, 0, 66, 92
2, 272992, Note_on_c, 0, 66, 0
2, 273024, Note_on_c, 0, 67, 92
2, 273120, Note_on_c, 0, 67, 0
2, 273152, Note_on_c, 0, 62, 92
2, 273248, Note_on_c, 0, 62, 0
2, 273280, Note_on_c, 0, 61, 92
2, 273376, Note_on_c, 0, 61, 0
2, 273408, Note_on_c, 0, 62, 92
2, 273504, Note_on_c, 0, 62, 0
2, 274944, Note_on_c, 0, 60, 92
2, 275008, Note_on_c, 0, 60, 0
2, 275040, Note_on_c, 0, 56, 92
2, 275104, Note_on_c, 0, 56, 0
2, 275136, Note_on_c, 0, 55, 92
2, 275200, Note_on_c, 0, 55, 0
2, 275232, Note_on_c, 0, 56, 92
2, 275296, Note_on_c, 0, 56, 0
2, 275328, Note_on_c, 0, 60, 92
2, 275392, Note_on_c, 0, 60, 0
2, 275424, Note_on_c, 0, 56, 92
2, 275488, Note_on_c, 0, 56, 0
2, 275520, Note_on_c, 0, 63, 92
2, 275584, Note_on_c, 0, 63, 0
2, 275616, Note_on_c, 0, 60, 92
2, 275680, Note_on_c, 0, 60, 0
2, 275712, Note_on_c, 0, 68, 92
2, 275776, Note_on_c, 0, 68, 0
2, 275808, Note_on_c, 0, 63, 92
2, 275872, Note_on_c, 0, 63, 0
2, 275904, Note_on_c, 0, 62, 92
2, 275968, Note_on_c, 0, 62, 0
2, 276000, Note_on_c, 0, 63, 92
2, 276064, Note_on_c, 0, 63, 0
2, 276096, Note_on_c, 0, 68, 92
2, 276160, Note_on_c, 0, 68, 0
2, 276192, Note_on_c, 0, 63, 92
2, 276256, Note_on_c, 0, 63, 0
2, 276288, Note_on_c, 0, 72, 92
2, 276352, Note_on_c, 0, 72, 0
2, 276384, Note_on_c, 0, 68, 92
2, 276448, Note_on_c, 0, 68, 0
2, 276480, Note_on_c, 0, 75, 92
2, 276544, Note_on_c, 0, 75, 0
2, 276576, Note_on_c, 0, 72, 92
2, 276640, Note_on_c, 0, 72, 0
2, 276672, Note_on_c, 0, 70, 92
2, 276736, Note_on_c, 0, 70, 0
2, 276768, Note_on_c, 0, 72, 92
2, 276832, Note_on_c, 0, 72, 0
2, 276864, Note_on_c, 0, 75, 92
2, 276928, Note_on_c, 0, 75, 0
2, 276960, Note_on_c, 0, 72, 92
2, 277024, Note_on_c, 0, 72, 0
2, 277056, Note_on_c, 0, 80, 92
2, 277120, Note_on_c, 0, 80, 0
2, 277152, Note_on_c, 0, 75, 92
2, 277216, Note_on_c, 0, 75, 0
2, 277248, Note_on_c, 0, 84, 92
2, 277312, Note_on_c, 0, 84, 0
2, 277344, Note_on_c, 0, 80, 92
2, 277408, Note_on_c, 0, 80, 0
2, 277440, Note_on_c, 0, 79, 92
2, 277504, Note_on_c, 0, 79, 0
2, 277536, Note_on_c, 0, 80, 92
2, 277600, Note_on_c, 0, 80, 0
2, 277632, Note_on_c, 0, 84, 92
2, 277696, Note_on_c, 0, 84, 0
2, 277728, Note_on_c, 0, 80, 92
2, 277792, Note_on_c, 0, 80, 0
2, 277824, Note_on_c, 0, 87, 92
2, 277888, Note_on_c, 0, 87, 0
2, 277920, Note_on_c, 0, 84, 92
2, 277984, Note_on_c, 0, 84, 0
2, 278016, Note_on_c, 0, 82, 92
2, 278080, Note_on_c, 0, 82, 0
2, 278112, Note_on_c, 0, 84, 92
2, 278176, Note_on_c, 0, 84, 0
2, 278208, Note_on_c, 0, 82, 92
2, 278272, Note_on_c, 0, 82, 0
2, 278304, Note_on_c, 0, 79, 92
2, 278368, Note_on_c, 0, 79, 0
2, 278400, Note_on_c, 0, 80, 92
2, 278464, Note_on_c, 0, 80, 0
2, 278496, Note_on_c, 0, 82, 92
2, 278560, Note_on_c, 0, 82, 0
2, 278592, Note_on_c, 0, 84, 92
2, 278656, Note_on_c, 0, 84, 0
2, 278688, Note_on_c, 0, 86, 92
2, 278752, Note_on_c, 0, 86, 0
2, 278784, Note_on_c, 0, 87, 92
2, 278848, Note_on_c, 0, 87, 0
2, 278880, Note_on_c, 0, 86, 92
2, 278944, Note_on_c, 0, 86, 0
2, 278976, Note_on_c, 0, 87, 92
2, 279040, Note_on_c, 0, 87, 0
2, 279072, Note_on_c, 0, 86, 92
2, 279136, Note_on_c, 0, 86, 0
2, 279168, Note_on_c, 0, 87, 92
2, 279232, Note_on_c, 0, 87, 0
2, 279264, Note_on_c, 0, 86, 92
2, 279328, Note_on_c, 0, 86, 0
2, 279360, Note_on_c, 0, 87, 92
2, 279424, Note_on_c, 0, 87, 0
2, 279456, Note_on_c, 0, 86, 92
2, 279520, Note_on_c, 0, 86, 0
2, 279552, Note_on_c, 0, 87, 92
2, 279616, Note_on_c, 0, 87, 0
2, 279648, Note_on_c, 0, 75, 92
2, 279712, Note_on_c, 0, 75, 0
2, 279744, Note_on_c, 0, 86, 92
2, 279808, Note_on_c, 0, 86, 0
2, 279840, Note_on_c, 0, 74, 92
2, 279904, Note_on_c, 0, 74, 0
2, 279936, Note_on_c, 0, 84, 92
2, 280000, Note_on_c, 0, 84, 0
2, 280032, Note_on_c, 0, 72, 92
2, 280096, Note_on_c, 0, 72, 0
2, 280128, Note_on_c, 0, 82, 92
2, 280192, Note_on_c, 0, 82, 0
2, 280224, Note_on_c, 0, 70, 92
2, 280288, Note_on_c, 0, 70, 0
2, 280320, Note_on_c, 0, 80, 92
2, 280384, Note_on_c, 0, 80, 0
2, 280416, Note_on_c, 0, 68, 92
2, 280480, Note_on_c, 0, 68, 0
2, 280512, Note_on_c, 0, 79, 92
2, 280576, Note_on_c, 0, 79, 0
2, 280608, Note_on_c, 0, 67, 92
2, 280672, Note_on_c, 0, 67, 0
2, 280704, Note_on_c, 0, 77, 92
2, 280768, Note_on_c, 0, 77, 0
2, 280800, Note_on_c, 0, 65, 92
2, 280864, Note_on_c, 0, 65, 0
2, 280896, Note_on_c, 0, 75, 92
2, 280960, Note_on_c, 0, 75, 0
2, 280992, Note_on_c, 0, 63, 92
2, 281056, Note_on_c, 0, 63, 0
2, 281088, Note_on_c, 0, 75, 92
2, 281088, Note_on_c, 0, 72, 92
2, 281088, Note_on_c, 0, 69, 92
2, 281600, Note_on_c, 0, 69, 0
2, 281600, Note_on_c, 0, 72, 0
2, 281600, Note_on_c, 0, 75, 0
2, 281856, Note_on_c, 0, 75, 92
2, 281952, Note_on_c, 0, 75, 0
2, 281984, Note_on_c, 0, 69, 92
2, 281984, Note_on_c, 0, 65, 92
2, 282080, Note_on_c, 0, 65, 0
2, 282080, Note_on_c, 0, 69, 0
2, 282112, Note_on_c, 0, 70, 92
2, 282112, Note_on_c, 0, 67, 92
2, 282208, Note_on_c, 0, 67, 0
2, 282208, Note_on_c, 0, 70, 0
2, 282240, Note_on_c, 0, 72, 92
2, 282240, Note_on_c, 0, 69, 92
2, 282336, Note_on_c, 0, 69, 0
2, 282336, Note_on_c, 0, 72, 0
2, 282368, Note_on_c, 0, 74, 92
2, 282372, Note_on_c, 0, 70, 92
2, 282464, Note_on_c, 0, 74, 0
2, 282468, Note_on_c, 0, 70, 0
2, 282496, Note_on_c, 0, 75, 92
2, 282496, Note_on_c, 0, 72, 92
2, 282592, Note_on_c, 0, 72, 0
2, 282592, Note_on_c, 0, 75, 0
2, 282624, Note_on_c, 0, 70, 92
2, 282624, Note_on_c, 0, 74, 92
2, 283136, Note_on_c, 0, 74, 0
2, 283136, Note_on_c, 0, 70, 0
2, 283392, Note_on_c, 0, 74, 92
2, 283392, Note_on_c, 0, 70, 92
2, 283488, Note_on_c, 0, 70, 0
2, 283488, Note_on_c, 0, 74, 0
2, 283520, Note_on_c, 0, 70, 92
2, 283616, Note_on_c, 0, 70, 0
2, 283648, Note_on_c, 0, 69, 92
2, 283648, Note_on_c, 0, 72, 92
2, 283744, Note_on_c, 0, 72, 0
2, 283744, Note_on_c, 0, 69, 0
2, 283776, Note_on_c, 0, 70, 92
2, 283776, Note_on_c, 0, 74, 92
2, 283872, Note_on_c, 0, 74, 0
2, 283872, Note_on_c, 0, 70, 0
2, 283904, Note_on_c, 0, 72, 92
2, 283904, Note_on_c, 0, 75, 92
2, 284000, Note_on_c, 0, 75, 0
2, 284000, Note_on_c, 0, 72, 0
2, 284032, Note_on_c, 0, 74, 92
2, 284032, Note_on_c, 0, 77, 92
2, 284128, Note_on_c, 0, 77, 0
2, 284128, Note_on_c, 0, 74, 0
2, 284160, Note_on_c, 0, 76, 92
2, 284160, Note_on_c, 0, 70, 92
2, 284672, Note_on_c, 0, 70, 0
2, 284672, Note_on_c, 0, 76, 0
2, 284928, Note_on_c, 0, 76, 92
2, 284928, Note_on_c, 0, 70, 92
2, 285024, Note_on_c, 0, 70, 0
2, 285024, Note_on_c, 0, 76, 0
2, 285056, Note_on_c, 0, 82, 92
2, 285056, Note_on_c, 0, 79, 92
2, 285152, Note_on_c, 0, 79, 0
2, 285152, Note_on_c, 0, 82, 0
2, 285184, Note_on_c, 0, 77, 92
2, 285184, Note_on_c, 0, 81, 92
2, 285280, Note_on_c, 0, 81, 0
2, 285280, Note_on_c, 0, 77, 0
2, 285312, Note_on_c, 0, 79, 92
2, 285312, Note_on_c, 0, 76, 92
2, 285408, Note_on_c, 0, 76, 0
2, 285408, Note_on_c, 0, 79, 0
2, 285440, Note_on_c, 0, 77, 92
2, 285440, Note_on_c, 0, 74, 92
2, 285536, Note_on_c, 0, 74, 0
2, 285536, Note_on_c, 0, 77, 0
2, 285568, Note_on_c, 0, 76, 92
2, 285664, Note_on_c, 0, 76, 0
2, 285696, Note_on_c, 0, 77, 92
2, 285696, Note_on_c, 0, 69, 92
2, 286208, Note_on_c, 0, 69, 0
2, 286208, Note_on_c, 0, 77, 0
2, 286464, Note_on_c, 0, 77, 92
2, 286464, Note_on_c, 0, 69, 92
2, 286560, Note_on_c, 0, 69, 0
2, 286560, Note_on_c, 0, 77, 0
2, 286592, Note_on_c, 0, 81, 92
2, 286592, Note_on_c, 0, 84, 92
2, 286688, Note_on_c, 0, 84, 0
2, 286688, Note_on_c, 0, 81, 0
2, 286720, Note_on_c, 0, 79, 92
2, 286720, Note_on_c, 0, 82, 92
2, 286816, Note_on_c, 0, 82, 0
2, 286816, Note_on_c, 0, 79, 0
2, 286848, Note_on_c, 0, 77, 92
2, 286848, Note_on_c, 0, 81, 92
2, 286944, Note_on_c, 0, 81, 0
2, 286944, Note_on_c, 0, 77, 0
2, 286976, Note_on_c, 0, 76, 92
2, 286976, Note_on_c, 0, 79, 92
2, 287072, Note_on_c, 0, 79, 0
2, 287072, Note_on_c, 0, 76, 0
2, 287104, Note_on_c, 0, 77, 92
2, 287232, Note_on_c, 0, 75, 92
2, 287236, Note_on_c, 0, 77, 0
2, 287360, Note_on_c, 0, 75, 0
2, 287424, Note_on_c, 0, 87, 92
2, 287804, Note_on_c, 0, 87, 0
2, 287808, Note_on_c, 0, 84, 92
2, 288188, Note_on_c, 0, 84, 0
2, 288192, Note_on_c, 0, 81, 92
2, 288572, Note_on_c, 0, 81, 0
2, 288576, Note_on_c, 0, 75, 92
2, 288704, Note_on_c, 0, 75, 0
2, 288768, Note_on_c, 0, 73, 92
2, 288896, Note_on_c, 0, 73, 0
2, 288960, Note_on_c, 0, 89, 92
2, 289340, Note_on_c, 0, 89, 0
2, 289344, Note_on_c, 0, 85, 92
2, 289724, Note_on_c, 0, 85, 0
2, 289728, Note_on_c, 0, 82, 92
2, 290108, Note_on_c, 0, 82, 0
2, 290112, Note_on_c, 0, 77, 92
2, 290240, Note_on_c, 0, 77, 0
2, 290304, Note_on_c, 0, 77, 92
2, 290432, Note_on_c, 0, 77, 0
2, 290496, Note_on_c, 0, 76, 92
2, 290876, Note_on_c, 0, 76, 0
2, 290880, Note_on_c, 0, 82, 92
2, 291260, Note_on_c, 0, 82, 0
2, 291264, Note_on_c, 0, 85, 92
2, 291644, Note_on_c, 0, 85, 0
2, 291648, Note_on_c, 0, 75, 92
2, 291776, Note_on_c, 0, 75, 0
2, 291840, Note_on_c, 0, 77, 92
2, 291884, Note_on_c, 0, 77, 0
2, 291888, Note_on_c, 0, 79, 92
2, 291932, Note_on_c, 0, 79, 0
2, 291936, Note_on_c, 0, 77, 92
2, 291980, Note_on_c, 0, 77, 0
2, 291984, Note_on_c, 0, 79, 92
2, 292028, Note_on_c, 0, 79, 0
2, 292032, Note_on_c, 0, 77, 92
2, 292076, Note_on_c, 0, 77, 0
2, 292080, Note_on_c, 0, 79, 92
2, 292124, Note_on_c, 0, 79, 0
2, 292128, Note_on_c, 0, 77, 92
2, 292172, Note_on_c, 0, 77, 0
2, 292176, Note_on_c, 0, 79, 92
2, 292220, Note_on_c, 0, 79, 0
2, 292224, Note_on_c, 0, 77, 92
2, 292268, Note_on_c, 0, 77, 0
2, 292272, Note_on_c, 0, 79, 92
2, 292316, Note_on_c, 0, 79, 0
2, 292320, Note_on_c, 0, 77, 92
2, 292364, Note_on_c, 0, 77, 0
2, 292368, Note_on_c, 0, 79, 92
2, 292412, Note_on_c, 0, 79, 0
2, 292416, Note_on_c, 0, 77, 92
2, 292460, Note_on_c, 0, 77, 0
2, 292464, Note_on_c, 0, 79, 92
2, 292508, Note_on_c, 0, 79, 0
2, 292512, Note_on_c, 0, 77, 92
2, 292556, Note_on_c, 0, 77, 0
2, 292560, Note_on_c, 0, 79, 92
2, 292604, Note_on_c, 0, 79, 0
2, 292608, Note_on_c, 0, 77, 92
2, 292652, Note_on_c, 0, 77, 0
2, 292656, Note_on_c, 0, 79, 92
2, 292700, Note_on_c, 0, 79, 0
2, 292704, Note_on_c, 0, 77, 92
2, 292748, Note_on_c, 0, 77, 0
2, 292752, Note_on_c, 0, 79, 92
2, 292796, Note_on_c, 0, 79, 0
2, 292800, Note_on_c, 0, 77, 92
2, 292844, Note_on_c, 0, 77, 0
2, 292848, Note_on_c, 0, 79, 92
2, 292892, Note_on_c, 0, 79, 0
2, 292896, Note_on_c, 0, 77, 92
2, 292940, Note_on_c, 0, 77, 0
2, 292944, Note_on_c, 0, 79, 92
2, 292988, Note_on_c, 0, 79, 0
2, 292992, Note_on_c, 0, 77, 92
2, 293036, Note_on_c, 0, 77, 0
2, 293040, Note_on_c, 0, 79, 92
2, 293084, Note_on_c, 0, 79, 0
2, 293088, Note_on_c, 0, 77, 92
2, 293132, Note_on_c, 0, 77, 0
2, 293136, Note_on_c, 0, 79, 92
2, 293180, Note_on_c, 0, 79, 0
2, 293184, Note_on_c, 0, 77, 92
2, 293228, Note_on_c, 0, 77, 0
2, 293232, Note_on_c, 0, 79, 92
2, 293276, Note_on_c, 0, 79, 0
2, 293280, Note_on_c, 0, 77, 92
2, 293324, Note_on_c, 0, 77, 0
2, 293328, Note_on_c, 0, 79, 92
2, 293372, Note_on_c, 0, 79, 0
2, 293376, Note_on_c, 0, 77, 92
2, 293420, Note_on_c, 0, 77, 0
2, 293424, Note_on_c, 0, 79, 92
2, 293468, Note_on_c, 0, 79, 0
2, 293472, Note_on_c, 0, 77, 92
2, 293516, Note_on_c, 0, 77, 0
2, 293520, Note_on_c, 0, 79, 92
2, 293564, Note_on_c, 0, 79, 0
2, 293568, Note_on_c, 0, 77, 92
2, 293612, Note_on_c, 0, 77, 0
2, 293616, Note_on_c, 0, 79, 92
2, 293660, Note_on_c, 0, 79, 0
2, 293664, Note_on_c, 0, 77, 92
2, 293708, Note_on_c, 0, 77, 0
2, 293712, Note_on_c, 0, 79, 92
2, 293756, Note_on_c, 0, 79, 0
2, 293760, Note_on_c, 0, 77, 92
2, 293804, Note_on_c, 0, 77, 0
2, 293808, Note_on_c, 0, 79, 92
2, 293852, Note_on_c, 0, 79, 0
2, 293856, Note_on_c, 0, 77, 92
2, 293900, Note_on_c, 0, 77, 0
2, 293904, Note_on_c, 0, 79, 92
2, 293948, Note_on_c, 0, 79, 0
2, 293952, Note_on_c, 0, 77, 92
2, 293996, Note_on_c, 0, 77, 0
2, 294000, Note_on_c, 0, 79, 92
2, 294044, Note_on_c, 0, 79, 0
2, 294048, Note_on_c, 0, 77, 92
2, 294092, Note_on_c, 0, 77, 0
2, 294096, Note_on_c, 0, 79, 92
2, 294140, Note_on_c, 0, 79, 0
2, 294144, Note_on_c, 0, 77, 92
2, 294188, Note_on_c, 0, 77, 0
2, 294192, Note_on_c, 0, 79, 92
2, 294236, Note_on_c, 0, 79, 0
2, 294240, Note_on_c, 0, 77, 92
2, 294284, Note_on_c, 0, 77, 0
2, 294288, Note_on_c, 0, 79, 92
2, 294332, Note_on_c, 0, 79, 0
2, 294336, Note_on_c, 0, 77, 92
2, 294380, Note_on_c, 0, 77, 0
2, 294384, Note_on_c, 0, 79, 92
2, 294428, Note_on_c, 0, 79, 0
2, 294432, Note_on_c, 0, 77, 92
2, 294476, Note_on_c, 0, 77, 0
2, 294480, Note_on_c, 0, 79, 92
2, 294524, Note_on_c, 0, 79, 0
2, 294528, Note_on_c, 0, 77, 92
2, 294572, Note_on_c, 0, 77, 0
2, 294576, Note_on_c, 0, 79, 92
2, 294620, Note_on_c, 0, 79, 0
2, 294624, Note_on_c, 0, 77, 92
2, 294668, Note_on_c, 0, 77, 0
2, 294672, Note_on_c, 0, 79, 92
2, 294716, Note_on_c, 0, 79, 0
2, 294720, Note_on_c, 0, 77, 92
2, 294764, Note_on_c, 0, 77, 0
2, 294768, Note_on_c, 0, 79, 92
2, 294812, Note_on_c, 0, 79, 0
2, 294816, Note_on_c, 0, 77, 92
2, 294860, Note_on_c, 0, 77, 0
2, 294864, Note_on_c, 0, 79, 92
2, 294908, Note_on_c, 0, 79, 0
2, 294912, Note_on_c, 0, 77, 92
2, 294956, Note_on_c, 0, 77, 0
2, 294960, Note_on_c, 0, 79, 92
2, 295004, Note_on_c, 0, 79, 0
2, 295008, Note_on_c, 0, 77, 92
2, 295052, Note_on_c, 0, 77, 0
2, 295056, Note_on_c, 0, 79, 92
2, 295100, Note_on_c, 0, 79, 0
2, 295104, Note_on_c, 0, 77, 92
2, 295148, Note_on_c, 0, 77, 0
2, 295152, Note_on_c, 0, 79, 92
2, 295196, Note_on_c, 0, 79, 0
2, 295200, Note_on_c, 0, 77, 92
2, 295244, Note_on_c, 0, 77, 0
2, 295248, Note_on_c, 0, 79, 92
2, 295292, Note_on_c, 0, 79, 0
2, 295296, Note_on_c, 0, 77, 92
2, 295340, Note_on_c, 0, 77, 0
2, 295344, Note_on_c, 0, 79, 92
2, 295388, Note_on_c, 0, 79, 0
2, 295392, Note_on_c, 0, 77, 92
2, 295436, Note_on_c, 0, 77, 0
2, 295440, Note_on_c, 0, 79, 92
2, 295484, Note_on_c, 0, 79, 0
2, 295488, Note_on_c, 0, 77, 92
2, 295532, Note_on_c, 0, 77, 0
2, 295536, Note_on_c, 0, 79, 92
2, 295580, Note_on_c, 0, 79, 0
2, 295584, Note_on_c, 0, 77, 92
2, 295628, Note_on_c, 0, 77, 0
2, 295632, Note_on_c, 0, 79, 92
2, 295676, Note_on_c, 0, 79, 0
2, 295680, Note_on_c, 0, 77, 92
2, 295724, Note_on_c, 0, 77, 0
2, 295728, Note_on_c, 0, 79, 92
2, 295772, Note_on_c, 0, 79, 0
2, 295776, Note_on_c, 0, 77, 92
2, 295820, Note_on_c, 0, 77, 0
2, 295824, Note_on_c, 0, 79, 92
2, 295868, Note_on_c, 0, 79, 0
2, 295872, Note_on_c, 0, 77, 92
2, 295916, Note_on_c, 0, 77, 0
2, 295920, Note_on_c, 0, 79, 92
2, 295964, Note_on_c, 0, 79, 0
2, 295968, Note_on_c, 0, 77, 92
2, 296012, Note_on_c, 0, 77, 0
2, 296016, Note_on_c, 0, 79, 92
2, 296060, Note_on_c, 0, 79, 0
2, 296064, Note_on_c, 0, 77, 92
2, 296108, Note_on_c, 0, 77, 0
2, 296112, Note_on_c, 0, 79, 92
2, 296156, Note_on_c, 0, 79, 0
2, 296160, Note_on_c, 0, 77, 92
2, 296204, Note_on_c, 0, 77, 0
2, 296208, Note_on_c, 0, 79, 92
2, 296252, Note_on_c, 0, 79, 0
2, 296256, Note_on_c, 0, 77, 92
2, 296300, Note_on_c, 0, 77, 0
2, 296304, Note_on_c, 0, 79, 92
2, 296348, Note_on_c, 0, 79, 0
2, 296352, Note_on_c, 0, 77, 92
2, 296396, Note_on_c, 0, 77, 0
2, 296400, Note_on_c, 0, 79, 92
2, 296444, Note_on_c, 0, 79, 0
2, 296448, Note_on_c, 0, 77, 92
2, 296492, Note_on_c, 0, 77, 0
2, 296496, Note_on_c, 0, 79, 92
2, 296540, Note_on_c, 0, 79, 0
2, 296544, Note_on_c, 0, 77, 92
2, 296588, Note_on_c, 0, 77, 0
2, 296592, Note_on_c, 0, 79, 92
2, 296636, Note_on_c, 0, 79, 0
2, 296640, Note_on_c, 0, 77, 92
2, 296684, Note_on_c, 0, 77, 0
2, 296688, Note_on_c, 0, 79, 92
2, 296732, Note_on_c, 0, 79, 0
2, 296736, Note_on_c, 0, 77, 92
2, 296780, Note_on_c, 0, 77, 0
2, 296784, Note_on_c, 0, 79, 92
2, 296828, Note_on_c, 0, 79, 0
2, 296832, Note_on_c, 0, 77, 92
2, 296876, Note_on_c, 0, 77, 0
2, 296880, Note_on_c, 0, 79, 92
2, 296924, Note_on_c, 0, 79, 0
2, 296928, Note_on_c, 0, 77, 92
2, 296972, Note_on_c, 0, 77, 0
2, 296976, Note_on_c, 0, 79, 92
2, 297020, Note_on_c, 0, 79, 0
2, 297024, Note_on_c, 0, 77, 92
2, 297068, Note_on_c, 0, 77, 0
2, 297072, Note_on_c, 0, 79, 92
2, 297116, Note_on_c, 0, 79, 0
2, 297120, Note_on_c, 0, 77, 92
2, 297164, Note_on_c, 0, 77, 0
2, 297168, Note_on_c, 0, 79, 92
2, 297212, Note_on_c, 0, 79, 0
2, 297216, Note_on_c, 0, 77, 92
2, 297260, Note_on_c, 0, 77, 0
2, 297264, Note_on_c, 0, 79, 92
2, 297308, Note_on_c, 0, 79, 0
2, 297312, Note_on_c, 0, 77, 92
2, 297356, Note_on_c, 0, 77, 0
2, 297360, Note_on_c, 0, 79, 92
2, 297404, Note_on_c, 0, 79, 0
2, 297408, Note_on_c, 0, 77, 92
2, 297452, Note_on_c, 0, 77, 0
2, 297456, Note_on_c, 0, 79, 92
2, 297500, Note_on_c, 0, 79, 0
2, 297504, Note_on_c, 0, 77, 92
2, 297548, Note_on_c, 0, 77, 0
2, 297552, Note_on_c, 0, 79, 92
2, 297596, Note_on_c, 0, 79, 0
2, 297600, Note_on_c, 0, 77, 92
2, 297644, Note_on_c, 0, 77, 0
2, 297648, Note_on_c, 0, 79, 92
2, 297692, Note_on_c, 0, 79, 0
2, 297696, Note_on_c, 0, 77, 92
2, 297740, Note_on_c, 0, 77, 0
2, 297744, Note_on_c, 0, 79, 92
2, 297788, Note_on_c, 0, 79, 0
2, 297792, Note_on_c, 0, 76, 92
2, 297884, Note_on_c, 0, 76, 0
2, 297888, Note_on_c, 0, 77, 92
2, 297980, Note_on_c, 0, 77, 0
2, 297984, Note_on_c, 0, 77, 92
2, 297984, Note_on_c, 0, 65, 92
2, 298028, Note_on_c, 0, 65, 0
2, 298032, Note_on_c, 0, 67, 92
2, 298076, Note_on_c, 0, 67, 0
2, 298080, Note_on_c, 0, 65, 92
2, 298124, Note_on_c, 0, 65, 0
2, 298128, Note_on_c, 0, 67, 92
2, 298172, Note_on_c, 0, 67, 0
2, 298176, Note_on_c, 0, 65, 92
2, 298220, Note_on_c, 0, 65, 0
2, 298224, Note_on_c, 0, 67, 92
2, 298268, Note_on_c, 0, 67, 0
2, 298272, Note_on_c, 0, 65, 92
2, 298316, Note_on_c, 0, 65, 0
2, 298320, Note_on_c, 0, 67, 92
2, 298364, Note_on_c, 0, 67, 0
2, 298364, Note_on_c, 0, 77, 0
2, 298368, Note_on_c, 0, 65, 92
2, 298412, Note_on_c, 0, 65, 0
2, 298416, Note_on_c, 0, 67, 92
2, 298460, Note_on_c, 0, 67, 0
2, 298464, Note_on_c, 0, 65, 92
2, 298508, Note_on_c, 0, 65, 0
2, 298512, Note_on_c, 0, 67, 92
2, 298556, Note_on_c, 0, 67, 0
2, 298560, Note_on_c, 0, 65, 92
2, 298604, Note_on_c, 0, 65, 0
2, 298608, Note_on_c, 0, 67, 92
2, 298652, Note_on_c, 0, 67, 0
2, 298656, Note_on_c, 0, 65, 92
2, 298700, Note_on_c, 0, 65, 0
2, 298704, Note_on_c, 0, 67, 92
2, 298748, Note_on_c, 0, 67, 0
2, 298752, Note_on_c, 0, 65, 92
2, 298796, Note_on_c, 0, 65, 0
2, 298800, Note_on_c, 0, 67, 92
2, 298844, Note_on_c, 0, 67, 0
2, 298848, Note_on_c, 0, 65, 92
2, 298892, Note_on_c, 0, 65, 0
2, 298896, Note_on_c, 0, 67, 92
2, 298940, Note_on_c, 0, 67, 0
2, 298944, Note_on_c, 0, 65, 92
2, 298988, Note_on_c, 0, 65, 0
2, 298992, Note_on_c, 0, 67, 92
2, 299036, Note_on_c, 0, 67, 0
2, 299040, Note_on_c, 0, 65, 92
2, 299084, Note_on_c, 0, 65, 0
2, 299088, Note_on_c, 0, 67, 92
2, 299132, Note_on_c, 0, 67, 0
2, 299136, Note_on_c, 0, 65, 92
2, 299136, Note_on_c, 0, 77, 92
2, 299136, Note_on_c, 0, 81, 92
2, 299180, Note_on_c, 0, 65, 0
2, 299184, Note_on_c, 0, 67, 92
2, 299228, Note_on_c, 0, 67, 0
2, 299232, Note_on_c, 0, 65, 92
2, 299264, Note_on_c, 0, 81, 0
2, 299264, Note_on_c, 0, 77, 0
2, 299276, Note_on_c, 0, 65, 0
2, 299280, Note_on_c, 0, 67, 92
2, 299324, Note_on_c, 0, 67, 0
2, 299328, Note_on_c, 0, 65, 92
2, 299328, Note_on_c, 0, 79, 92
2, 299328, Note_on_c, 0, 82, 92
2, 299372, Note_on_c, 0, 65, 0
2, 299376, Note_on_c, 0, 67, 92
2, 299420, Note_on_c, 0, 67, 0
2, 299424, Note_on_c, 0, 65, 92
2, 299456, Note_on_c, 0, 82, 0
2, 299456, Note_on_c, 0, 79, 0
2, 299468, Note_on_c, 0, 65, 0
2, 299472, Note_on_c, 0, 67, 92
2, 299516, Note_on_c, 0, 67, 0
2, 299520, Note_on_c, 0, 80, 92
2, 299520, Note_on_c, 0, 83, 92
2, 299520, Note_on_c, 0, 65, 92
2, 299564, Note_on_c, 0, 65, 0
2, 299568, Note_on_c, 0, 67, 92
2, 299612, Note_on_c, 0, 67, 0
2, 299616, Note_on_c, 0, 65, 92
2, 299648, Note_on_c, 0, 83, 0
2, 299648, Note_on_c, 0, 80, 0
2, 299660, Note_on_c, 0, 65, 0
2, 299664, Note_on_c, 0, 67, 92
2, 299708, Note_on_c, 0, 67, 0
2, 299712, Note_on_c, 0, 65, 92
2, 299712, Note_on_c, 0, 81, 92
2, 299712, Note_on_c, 0, 84, 92
2, 299756, Note_on_c, 0, 65, 0
2, 299760, Note_on_c, 0, 67, 92
2, 299804, Note_on_c, 0, 67, 0
2, 299808, Note_on_c, 0, 65, 92
2, 299840, Note_on_c, 0, 84, 0
2, 299840, Note_on_c, 0, 81, 0
2, 299852, Note_on_c, 0, 65, 0
2, 299856, Note_on_c, 0, 67, 92
2, 299900, Note_on_c, 0, 67, 0
2, 299904, Note_on_c, 0, 65, 92
2, 299904, Note_on_c, 0, 79, 92
2, 299904, Note_on_c, 0, 82, 92
2, 299948, Note_on_c, 0, 65, 0
2, 299952, Note_on_c, 0, 67, 92
2, 299996, Note_on_c, 0, 67, 0
2, 300000, Note_on_c, 0, 65, 92
2, 300032, Note_on_c, 0, 82, 0
2, 300032, Note_on_c, 0, 79, 0
2, 300044, Note_on_c, 0, 65, 0
2, 300048, Note_on_c, 0, 67, 92
2, 300092, Note_on_c, 0, 67, 0
2, 300096, Note_on_c, 0, 81, 92
2, 300096, Note_on_c, 0, 84, 92
2, 300096, Note_on_c, 0, 65, 92
2, 300140, Note_on_c, 0, 65, 0
2, 300144, Note_on_c, 0, 67, 92
2, 300188, Note_on_c, 0, 67, 0
2, 300192, Note_on_c, 0, 65, 92
2, 300224, Note_on_c, 0, 84, 0
2, 300224, Note_on_c, 0, 81, 0
2, 300236, Note_on_c, 0, 65, 0
2, 300240, Note_on_c, 0, 67, 92
2, 300284, Note_on_c, 0, 67, 0
2, 300288, Note_on_c, 0, 65, 92
2, 300288, Note_on_c, 0, 81, 92
2, 300288, Note_on_c, 0, 85, 92
2, 300332, Note_on_c, 0, 65, 0
2, 300336, Note_on_c, 0, 67, 92
2, 300380, Note_on_c, 0, 67, 0
2, 300384, Note_on_c, 0, 65, 92
2, 300416, Note_on_c, 0, 85, 0
2, 300416, Note_on_c, 0, 81, 0
2, 300428, Note_on_c, 0, 65, 0
2, 300432, Note_on_c, 0, 67, 92
2, 300476, Note_on_c, 0, 67, 0
2, 300480, Note_on_c, 0, 86, 92
2, 300480, Note_on_c, 0, 82, 92
2, 300480, Note_on_c, 0, 65, 92
2, 300524, Note_on_c, 0, 65, 0
2, 300528, Note_on_c, 0, 67, 92
2, 300572, Note_on_c, 0, 67, 0
2, 300576, Note_on_c, 0, 65, 92
2, 300608, Note_on_c, 0, 82, 0
2, 300608, Note_on_c, 0, 86, 0
2, 300620, Note_on_c, 0, 65, 0
2, 300624, Note_on_c, 0, 67, 92
2, 300668, Note_on_c, 0, 67, 0
2, 300672, Note_on_c, 0, 65, 92
2, 300672, Note_on_c, 0, 81, 92
2, 300672, Note_on_c, 0, 84, 92
2, 300716, Note_on_c, 0, 65, 0
2, 300720, Note_on_c, 0, 67, 92
2, 300764, Note_on_c, 0, 67, 0
2, 300768, Note_on_c, 0, 65, 92
2, 300800, Note_on_c, 0, 84, 0
2, 300800, Note_on_c, 0, 81, 0
2, 300812, Note_on_c, 0, 65, 0
2, 300816, Note_on_c, 0, 67, 92
2, 300860, Note_on_c, 0, 67, 0
2, 300864, Note_on_c, 0, 82, 92
2, 300864, Note_on_c, 0, 86, 92
2, 300864, Note_on_c, 0, 64, 92
2, 300956, Note_on_c, 0, 64, 0
2, 300960, Note_on_c, 0, 65, 92
2, 300992, Note_on_c, 0, 86, 0
2, 300992, Note_on_c, 0, 82, 0
2, 301052, Note_on_c, 0, 65, 0
2, 301056, Note_on_c, 0, 84, 92
2, 301056, Note_on_c, 0, 87, 92
2, 301184, Note_on_c, 0, 87, 0
2, 301184, Note_on_c, 0, 84, 0
2, 301248, Note_on_c, 0, 89, 92
2, 301248, Note_on_c, 0, 86, 92
2, 301376, Note_on_c, 0, 86, 0
2, 301376, Note_on_c, 0, 89, 0
2, 301440, Note_on_c, 0, 87, 92
2, 301440, Note_on_c, 0, 84, 92
2, 301568, Note_on_c, 0, 84, 0
2, 301568, Note_on_c, 0, 87, 0
2, 301632, Note_on_c, 0, 86, 92
2, 301632, Note_on_c, 0, 82, 92
2, 301760, Note_on_c, 0, 82, 0
2, 301760, Note_on_c, 0, 86, 0
2, 301824, Note_on_c, 0, 84, 92
2, 301824, Note_on_c, 0, 81, 92
2, 301952, Note_on_c, 0, 81, 0
2, 301952, Note_on_c, 0, 84, 0
2, 302016, Note_on_c, 0, 86, 92
2, 302016, Note_on_c, 0, 82, 92
2, 302144, Note_on_c, 0, 82, 0
2, 302144, Note_on_c, 0, 86, 0
2, 302208, Note_on_c, 0, 84, 92
2, 302208, Note_on_c, 0, 81, 92
2, 302336, Note_on_c, 0, 81, 0
2, 302336, Note_on_c, 0, 84, 0
2, 302396, Note_on_c, 0, 79, 92
2, 302400, Note_on_c, 0, 82, 92
2, 302524, Note_on_c, 0, 79, 0
2, 302528, Note_on_c, 0, 82, 0
2, 302592, Note_on_c, 0, 77, 92
2, 302592, Note_on_c, 0, 81, 92
2, 302720, Note_on_c, 0, 81, 0
2, 302720, Note_on_c, 0, 77, 0
2, 302784, Note_on_c, 0, 79, 92
2, 302784, Note_on_c, 0, 82, 92
2, 302912, Note_on_c, 0, 82, 0
2, 302912, Note_on_c, 0, 79, 0
2, 302976, Note_on_c, 0, 77, 92
2, 302976, Note_on_c, 0, 81, 92
2, 303104, Note_on_c, 0, 81, 0
2, 303104, Note_on_c, 0, 77, 0
2, 303168, Note_on_c, 0, 75, 92
2, 303168, Note_on_c, 0, 79, 92
2, 303296, Note_on_c, 0, 79, 0
2, 303296, Note_on_c, 0, 75, 0
2, 303360, Note_on_c, 0, 77, 92
2, 303360, Note_on_c, 0, 74, 92
2, 303488, Note_on_c, 0, 74, 0
2, 303488, Note_on_c, 0, 77, 0
2, 303552, Note_on_c, 0, 75, 92
2, 303552, Note_on_c, 0, 72, 92
2, 303680, Note_on_c, 0, 72, 0
2, 303680, Note_on_c, 0, 75, 0
2, 303744, Note_on_c, 0, 74, 92
2, 303744, Note_on_c, 0, 70, 92
2, 303872, Note_on_c, 0, 70, 0
2, 303872, Note_on_c, 0, 74, 0
2, 303936, Note_on_c, 0, 72, 92
2, 303936, Note_on_c, 0, 65, 92
2, 304064, Note_on_c, 0, 65, 0
2, 304064, Note_on_c, 0, 72, 0
2, 306624, Note_on_c, 0, 75, 92
2, 306668, Note_on_c, 0, 75, 0
2, 306672, Note_on_c, 0, 70, 92
2, 306672, Note_on_c, 0, 74, 92
2, 306716, Note_on_c, 0, 74, 0
2, 306720, Note_on_c, 0, 72, 92
2, 306812, Note_on_c, 0, 72, 0
2, 306816, Note_on_c, 0, 74, 92
2, 306944, Note_on_c, 0, 74, 0
2, 307008, Note_on_c, 0, 77, 92
2, 307008, Note_on_c, 0, 74, 92
2, 307052, Note_on_c, 0, 70, 0
2, 307136, Note_on_c, 0, 74, 0
2, 307136, Note_on_c, 0, 77, 0
2, 307200, Note_on_c, 0, 77, 92
2, 307200, Note_on_c, 0, 82, 92
2, 307328, Note_on_c, 0, 82, 0
2, 307328, Note_on_c, 0, 77, 0
2, 307392, Note_on_c, 0, 77, 92
2, 307392, Note_on_c, 0, 74, 92
2, 307520, Note_on_c, 0, 74, 0
2, 307520, Note_on_c, 0, 77, 0
2, 307584, Note_on_c, 0, 82, 92
2, 307584, Note_on_c, 0, 86, 92
2, 307712, Note_on_c, 0, 86, 0
2, 307712, Note_on_c, 0, 82, 0
2, 307776, Note_on_c, 0, 82, 92
2, 307776, Note_on_c, 0, 77, 92
2, 307904, Note_on_c, 0, 77, 0
2, 307904, Note_on_c, 0, 82, 0
2, 307968, Note_on_c, 0, 86, 92
2, 307968, Note_on_c, 0, 89, 92
2, 308096, Note_on_c, 0, 89, 0
2, 308096, Note_on_c, 0, 86, 0
2, 308160, Note_on_c, 0, 82, 92
2, 308160, Note_on_c, 0, 86, 92
2, 308288, Note_on_c, 0, 86, 0
2, 308288, Note_on_c, 0, 82, 0
2, 308352, Note_on_c, 0, 82, 92
2, 308352, Note_on_c, 0, 77, 92
2, 308480, Note_on_c, 0, 77, 0
2, 308480, Note_on_c, 0, 82, 0
2, 308544, Note_on_c, 0, 77, 92
2, 308544, Note_on_c, 0, 74, 92
2, 308672, Note_on_c, 0, 74, 0
2, 308672, Note_on_c, 0, 77, 0
2, 308736, Note_on_c, 0, 74, 92
2, 308736, Note_on_c, 0, 71, 92
2, 308864, Note_on_c, 0, 71, 0
2, 308864, Note_on_c, 0, 74, 0
2, 308928, Note_on_c, 0, 75, 92
2, 308928, Note_on_c, 0, 72, 92
2, 309056, Note_on_c, 0, 72, 0
2, 309056, Note_on_c, 0, 75, 0
2, 309120, Note_on_c, 0, 75, 92
2, 309120, Note_on_c, 0, 72, 92
2, 309248, Note_on_c, 0, 72, 0
2, 309248, Note_on_c, 0, 75, 0
2, 309312, Note_on_c, 0, 75, 92
2, 309312, Note_on_c, 0, 72, 92
2, 309440, Note_on_c, 0, 72, 0
2, 309440, Note_on_c, 0, 75, 0
2, 309504, Note_on_c, 0, 75, 92
2, 309504, Note_on_c, 0, 72, 92
2, 309760, Note_on_c, 0, 72, 0
2, 309760, Note_on_c, 0, 75, 0
2, 311808, Note_on_c, 0, 72, 92
2, 311808, Note_on_c, 0, 75, 92
2, 311904, Note_on_c, 0, 72, 0
2, 311936, Note_on_c, 0, 69, 92
2, 312000, Note_on_c, 0, 75, 0
2, 312032, Note_on_c, 0, 69, 0
2, 312064, Note_on_c, 0, 81, 92
2, 312064, Note_on_c, 0, 75, 92
2, 312128, Note_on_c, 0, 81, 0
2, 312160, Note_on_c, 0, 75, 0
2, 312192, Note_on_c, 0, 81, 92
2, 312192, Note_on_c, 0, 75, 92
2, 312288, Note_on_c, 0, 75, 0
2, 312320, Note_on_c, 0, 72, 92
2, 312384, Note_on_c, 0, 81, 0
2, 312416, Note_on_c, 0, 72, 0
2, 312448, Note_on_c, 0, 81, 92
2, 312448, Note_on_c, 0, 84, 92
2, 312512, Note_on_c, 0, 84, 0
2, 312544, Note_on_c, 0, 81, 0
2, 312576, Note_on_c, 0, 81, 92
2, 312576, Note_on_c, 0, 84, 92
2, 312672, Note_on_c, 0, 81, 0
2, 312704, Note_on_c, 0, 75, 92
2, 312768, Note_on_c, 0, 84, 0
2, 312800, Note_on_c, 0, 75, 0
2, 312832, Note_on_c, 0, 84, 92
2, 312832, Note_on_c, 0, 87, 92
2, 312896, Note_on_c, 0, 87, 0
2, 312928, Note_on_c, 0, 84, 0
2, 312960, Note_on_c, 0, 87, 92
2, 312960, Note_on_c, 0, 84, 92
2, 313340, Note_on_c, 0, 84, 0
2, 313340, Note_on_c, 0, 87, 0
2, 313344, Note_on_c, 0, 87, 92
2, 313344, Note_on_c, 0, 84, 92
2, 313472, Note_on_c, 0, 84, 0
2, 313472, Note_on_c, 0, 87, 0
2, 313536, Note_on_c, 0, 86, 92
2, 313536, Note_on_c, 0, 82, 92
2, 313664, Note_on_c, 0, 82, 0
2, 313664, Note_on_c, 0, 86, 0
2, 313728, Note_on_c, 0, 84, 92
2, 313728, Note_on_c, 0, 81, 92
2, 313856, Note_on_c, 0, 81, 0
2, 313856, Note_on_c, 0, 84, 0
2, 313920, Note_on_c, 0, 82, 92
2, 313920, Note_on_c, 0, 79, 92
2, 314048, Note_on_c, 0, 79, 0
2, 314048, Note_on_c, 0, 82, 0
2, 314112, Note_on_c, 0, 81, 92
2, 314112, Note_on_c, 0, 77, 92
2, 314240, Note_on_c, 0, 77, 0
2, 314240, Note_on_c, 0, 81, 0
2, 314304, Note_on_c, 0, 79, 92
2, 314304, Note_on_c, 0, 75, 92
2, 314432, Note_on_c, 0, 75, 0
2, 314432, Note_on_c, 0, 79, 0
2, 314496, Note_on_c, 0, 77, 92
2, 314496, Note_on_c, 0, 74, 92
2, 314624, Note_on_c, 0, 74, 0
2, 314624, Note_on_c, 0, 77, 0
2, 314688, Note_on_c, 0, 75, 92
2, 314688, Note_on_c, 0, 72, 92
2, 314816, Note_on_c, 0, 72, 0
2, 314816, Note_on_c, 0, 75, 0
2, 314880, Note_on_c, 0, 73, 92
2, 314880, Note_on_c, 0, 69, 92
2, 315008, Note_on_c, 0, 69, 0
2, 315008, Note_on_c, 0, 73, 0
2, 315072, Note_on_c, 0, 74, 92
2, 315072, Note_on_c, 0, 70, 92
2, 315200, Note_on_c, 0, 70, 0
2, 315200, Note_on_c, 0, 74, 0
2, 315264, Note_on_c, 0, 70, 92
2, 315264, Note_on_c, 0, 74, 92
2, 315392, Note_on_c, 0, 74, 0
2, 315392, Note_on_c, 0, 70, 0
2, 315456, Note_on_c, 0, 74, 92
2, 315456, Note_on_c, 0, 70, 92
2, 315584, Note_on_c, 0, 70, 0
2, 315584, Note_on_c, 0, 74, 0
2, 315648, Note_on_c, 0, 70, 92
2, 315648, Note_on_c, 0, 74, 92
2, 316028, Note_on_c, 0, 74, 0
2, 316028, Note_on_c, 0, 70, 0
2, 316416, Note_on_c, 0, 74, 92
2, 316480, Note_on_c, 0, 74, 0
2, 316512, Note_on_c, 0, 77, 92
2, 316576, Note_on_c, 0, 77, 0
2, 316608, Note_on_c, 0, 75, 92
2, 316672, Note_on_c, 0, 75, 0
2, 316704, Note_on_c, 0, 74, 92
2, 316768, Note_on_c, 0, 74, 0
2, 316800, Note_on_c, 0, 72, 92
2, 316864, Note_on_c, 0, 72, 0
2, 316896, Note_on_c, 0, 75, 92
2, 316960, Note_on_c, 0, 75, 0
2, 316992, Note_on_c, 0, 74, 92
2, 317056, Note_on_c, 0, 74, 0
2, 317088, Note_on_c, 0, 72, 92
2, 317152, Note_on_c, 0, 72, 0
2, 317184, Note_on_c, 0, 70, 92
2, 317564, Note_on_c, 0, 70, 0
2, 317952, Note_on_c, 0, 74, 92
2, 318016, Note_on_c, 0, 74, 0
2, 318048, Note_on_c, 0, 77, 92
2, 318112, Note_on_c, 0, 77, 0
2, 318144, Note_on_c, 0, 75, 92
2, 318208, Note_on_c, 0, 75, 0
2, 318240, Note_on_c, 0, 74, 92
2, 318304, Note_on_c, 0, 74, 0
2, 318336, Note_on_c, 0, 72, 92
2, 318400, Note_on_c, 0, 72, 0
2, 318432, Note_on_c, 0, 75, 92
2, 318496, Note_on_c, 0, 75, 0
2, 318528, Note_on_c, 0, 74, 92
2, 318592, Note_on_c, 0, 74, 0
2, 318624, Note_on_c, 0, 72, 92
2, 318688, Note_on_c, 0, 72, 0
2, 318720, Note_on_c, 0, 70, 92
2, 318976, Note_on_c, 0, 70, 0
2, 319488, Note_on_c, 0, 74, 92
2, 319552, Note_on_c, 0, 74, 0
2, 319584, Note_on_c, 0, 77, 92
2, 319648, Note_on_c, 0, 77, 0
2, 319680, Note_on_c, 0, 75, 92
2, 319744, Note_on_c, 0, 75, 0
2, 319776, Note_on_c, 0, 74, 92
2, 319840, Note_on_c, 0, 74, 0
2, 319872, Note_on_c, 0, 72, 92
2, 319936, Note_on_c, 0, 72, 0
2, 319968, Note_on_c, 0, 75, 92
2, 320032, Note_on_c, 0, 75, 0
2, 320064, Note_on_c, 0, 74, 92
2, 320128, Note_on_c, 0, 74, 0
2, 320160, Note_on_c, 0, 72, 92
2, 320224, Note_on_c, 0, 72, 0
2, 320256, Note_on_c, 0, 70, 92
2, 320320, Note_on_c, 0, 70, 0
2, 320352, Note_on_c, 0, 74, 92
2, 320416, Note_on_c, 0, 74, 0
2, 320448, Note_on_c, 0, 72, 92
2, 320512, Note_on_c, 0, 72, 0
2, 320544, Note_on_c, 0, 70, 92
2, 320608, Note_on_c, 0, 70, 0
2, 320640, Note_on_c, 0, 72, 92
2, 320704, Note_on_c, 0, 72, 0
2, 320736, Note_on_c, 0, 75, 92
2, 320800, Note_on_c, 0, 75, 0
2, 320832, Note_on_c, 0, 74, 92
2, 320896, Note_on_c, 0, 74, 0
2, 320928, Note_on_c, 0, 72, 92
2, 320992, Note_on_c, 0, 72, 0
2, 321024, Note_on_c, 0, 74, 92
2, 321088, Note_on_c, 0, 74, 0
2, 321120, Note_on_c, 0, 77, 92
2, 321184, Note_on_c, 0, 77, 0
2, 321216, Note_on_c, 0, 75, 92
2, 321280, Note_on_c, 0, 75, 0
2, 321312, Note_on_c, 0, 74, 92
2, 321376, Note_on_c, 0, 74, 0
2, 321408, Note_on_c, 0, 72, 92
2, 321472, Note_on_c, 0, 72, 0
2, 321504, Note_on_c, 0, 75, 92
2, 321568, Note_on_c, 0, 75, 0
2, 321600, Note_on_c, 0, 74, 92
2, 321664, Note_on_c, 0, 74, 0
2, 321696, Note_on_c, 0, 72, 92
2, 321760, Note_on_c, 0, 72, 0
2, 321792, Note_on_c, 0, 70, 92
2, 321856, Note_on_c, 0, 70, 0
2, 321888, Note_on_c, 0, 74, 92
2, 321952, Note_on_c, 0, 74, 0
2, 321984, Note_on_c, 0, 72, 92
2, 322048, Note_on_c, 0, 72, 0
2, 322080, Note_on_c, 0, 70, 92
2, 322144, Note_on_c, 0, 70, 0
2, 322176, Note_on_c, 0, 72, 92
2, 322240, Note_on_c, 0, 72, 0
2, 322272, Note_on_c, 0, 75, 92
2, 322336, Note_on_c, 0, 75, 0
2, 322368, Note_on_c, 0, 74, 92
2, 322432, Note_on_c, 0, 74, 0
2, 322464, Note_on_c, 0, 72, 92
2, 322528, Note_on_c, 0, 72, 0
2, 322560, Note_on_c, 0, 74, 92
2, 322624, Note_on_c, 0, 74, 0
2, 322656, Note_on_c, 0, 77, 92
2, 322720, Note_on_c, 0, 77, 0
2, 322752, Note_on_c, 0, 75, 92
2, 322816, Note_on_c, 0, 75, 0
2, 322848, Note_on_c, 0, 74, 92
2, 322912, Note_on_c, 0, 74, 0
2, 322944, Note_on_c, 0, 79, 92
2, 323008, Note_on_c, 0, 79, 0
2, 323040, Note_on_c, 0, 82, 92
2, 323104, Note_on_c, 0, 82, 0
2, 323136, Note_on_c, 0, 81, 92
2, 323200, Note_on_c, 0, 81, 0
2, 323232, Note_on_c, 0, 79, 92
2, 323296, Note_on_c, 0, 79, 0
2, 323328, Note_on_c, 0, 74, 92
2, 323392, Note_on_c, 0, 74, 0
2, 323424, Note_on_c, 0, 77, 92
2, 323488, Note_on_c, 0, 77, 0
2, 323520, Note_on_c, 0, 75, 92
2, 323584, Note_on_c, 0, 75, 0
2, 323616, Note_on_c, 0, 74, 92
2, 323680, Note_on_c, 0, 74, 0
2, 323712, Note_on_c, 0, 72, 92
2, 323776, Note_on_c, 0, 72, 0
2, 323808, Note_on_c, 0, 75, 92
2, 323872, Note_on_c, 0, 75, 0
2, 323904, Note_on_c, 0, 74, 92
2, 323968, Note_on_c, 0, 74, 0
2, 324000, Note_on_c, 0, 72, 92
2, 324064, Note_on_c, 0, 72, 0
2, 324096, Note_on_c, 0, 70, 92
2, 324352, Note_on_c, 0, 70, 0
2, 333312, Note_on_c, 0, 60, 92
2, 333312, Note_on_c, 0, 79, 92
2, 333440, Note_on_c, 0, 60, 0
2, 333504, Note_on_c, 0, 67, 92
2, 333632, Note_on_c, 0, 67, 0
2, 333696, Note_on_c, 0, 63, 92
2, 333824, Note_on_c, 0, 63, 0
2, 333824, Note_on_c, 0, 79, 0
2, 333888, Note_on_c, 0, 67, 92
2, 334016, Note_on_c, 0, 67, 0
2, 334080, Note_on_c, 0, 60, 92
2, 334080, Note_on_c, 0, 79, 92
2, 334124, Note_on_c, 0, 79, 0
2, 334128, Note_on_c, 0, 81, 92
2, 334172, Note_on_c, 0, 81, 0
2, 334176, Note_on_c, 0, 79, 92
2, 334208, Note_on_c, 0, 60, 0
2, 334220, Note_on_c, 0, 79, 0
2, 334224, Note_on_c, 0, 81, 92
2, 334268, Note_on_c, 0, 81, 0
2, 334272, Note_on_c, 0, 67, 92
2, 334272, Note_on_c, 0, 79, 92
2, 334316, Note_on_c, 0, 79, 0
2, 334320, Note_on_c, 0, 81, 92
2, 334364, Note_on_c, 0, 81, 0
2, 334368, Note_on_c, 0, 79, 92
2, 334400, Note_on_c, 0, 67, 0
2, 334412, Note_on_c, 0, 79, 0
2, 334416, Note_on_c, 0, 81, 92
2, 334460, Note_on_c, 0, 81, 0
2, 334464, Note_on_c, 0, 63, 92
2, 334464, Note_on_c, 0, 79, 92
2, 334508, Note_on_c, 0, 79, 0
2, 334512, Note_on_c, 0, 81, 92
2, 334556, Note_on_c, 0, 81, 0
2, 334560, Note_on_c, 0, 77, 92
2, 334592, Note_on_c, 0, 63, 0
2, 334604, Note_on_c, 0, 77, 0
2, 334608, Note_on_c, 0, 79, 92
2, 334652, Note_on_c, 0, 79, 0
2, 334656, Note_on_c, 0, 67, 92
2, 334656, Note_on_c, 0, 80, 92
2, 334784, Note_on_c, 0, 80, 0
2, 334784, Note_on_c, 0, 67, 0
2, 334848, Note_on_c, 0, 62, 92
2, 334848, Note_on_c, 0, 72, 92
2, 334976, Note_on_c, 0, 72, 0
2, 334976, Note_on_c, 0, 62, 0
2, 335040, Note_on_c, 0, 68, 92
2, 335040, Note_on_c, 0, 71, 92
2, 335168, Note_on_c, 0, 71, 0
2, 335168, Note_on_c, 0, 68, 0
2, 335232, Note_on_c, 0, 65, 92
2, 335232, Note_on_c, 0, 89, 101
2, 335360, Note_on_c, 0, 65, 0
2, 335424, Note_on_c, 0, 68, 98
2, 335552, Note_on_c, 0, 68, 0
2, 335616, Note_on_c, 0, 89, 0
2, 335616, Note_on_c, 0, 62, 95
2, 335808, Note_on_c, 0, 89, 92
2, 335872, Note_on_c, 0, 62, 0
2, 335936, Note_on_c, 0, 89, 0
2, 336000, Note_on_c, 0, 87, 92
2, 336128, Note_on_c, 0, 87, 0
2, 336192, Note_on_c, 0, 86, 92
2, 336320, Note_on_c, 0, 86, 0
2, 336384, Note_on_c, 0, 84, 92
2, 336512, Note_on_c, 0, 84, 0
2, 336576, Note_on_c, 0, 83, 92
2, 336640, Note_on_c, 0, 83, 0
2, 336768, Note_on_c, 0, 86, 92
2, 336896, Note_on_c, 0, 86, 0
2, 336960, Note_on_c, 0, 80, 92
2, 337024, Note_on_c, 0, 80, 0
2, 337152, Note_on_c, 0, 86, 92
2, 337280, Note_on_c, 0, 86, 0
2, 337344, Note_on_c, 0, 79, 92
2, 337408, Note_on_c, 0, 79, 0
2, 337536, Note_on_c, 0, 86, 92
2, 337664, Note_on_c, 0, 86, 0
2, 337728, Note_on_c, 0, 77, 92
2, 337792, Note_on_c, 0, 77, 0
2, 337920, Note_on_c, 0, 79, 92
2, 338048, Note_on_c, 0, 79, 0
2, 338112, Note_on_c, 0, 60, 92
2, 338112, Note_on_c, 0, 77, 92
2, 338156, Note_on_c, 0, 77, 0
2, 338160, Note_on_c, 0, 79, 92
2, 338204, Note_on_c, 0, 79, 0
2, 338208, Note_on_c, 0, 77, 92
2, 338240, Note_on_c, 0, 60, 0
2, 338252, Note_on_c, 0, 77, 0
2, 338256, Note_on_c, 0, 79, 92
2, 338300, Note_on_c, 0, 79, 0
2, 338304, Note_on_c, 0, 67, 92
2, 338304, Note_on_c, 0, 75, 92
2, 338432, Note_on_c, 0, 67, 0
2, 338496, Note_on_c, 0, 71, 92
2, 338624, Note_on_c, 0, 71, 0
2, 338688, Note_on_c, 0, 75, 0
2, 338688, Note_on_c, 0, 72, 92
2, 338880, Note_on_c, 0, 74, 92
2, 338944, Note_on_c, 0, 72, 0
2, 339008, Note_on_c, 0, 74, 0
2, 339072, Note_on_c, 0, 75, 92
2, 339200, Note_on_c, 0, 75, 0
2, 339264, Note_on_c, 0, 76, 92
2, 339392, Note_on_c, 0, 76, 0
2, 339456, Note_on_c, 0, 58, 92
2, 339456, Note_on_c, 0, 79, 92
2, 339584, Note_on_c, 0, 58, 0
2, 339648, Note_on_c, 0, 79, 0
2, 339648, Note_on_c, 0, 65, 92
2, 339744, Note_on_c, 0, 77, 92
2, 339776, Note_on_c, 0, 65, 0
2, 339808, Note_on_c, 0, 77, 0
2, 339840, Note_on_c, 0, 62, 92
2, 339840, Note_on_c, 0, 77, 92
2, 339884, Note_on_c, 0, 77, 0
2, 339888, Note_on_c, 0, 79, 92
2, 339932, Note_on_c, 0, 79, 0
2, 339936, Note_on_c, 0, 77, 92
2, 339968, Note_on_c, 0, 62, 0
2, 339980, Note_on_c, 0, 77, 0
2, 339984, Note_on_c, 0, 79, 92
2, 340028, Note_on_c, 0, 79, 0
2, 340032, Note_on_c, 0, 65, 92
2, 340032, Note_on_c, 0, 77, 92
2, 340076, Note_on_c, 0, 77, 0
2, 340080, Note_on_c, 0, 79, 92
2, 340124, Note_on_c, 0, 79, 0
2, 340128, Note_on_c, 0, 77, 92
2, 340160, Note_on_c, 0, 65, 0
2, 340172, Note_on_c, 0, 77, 0
2, 340176, Note_on_c, 0, 79, 92
2, 340220, Note_on_c, 0, 79, 0
2, 340224, Note_on_c, 0, 60, 92
2, 340224, Note_on_c, 0, 77, 92
2, 340268, Note_on_c, 0, 77, 0
2, 340272, Note_on_c, 0, 79, 92
2, 340316, Note_on_c, 0, 79, 0
2, 340320, Note_on_c, 0, 75, 92
2, 340352, Note_on_c, 0, 60, 0
2, 340364, Note_on_c, 0, 75, 0
2, 340368, Note_on_c, 0, 77, 92
2, 340412, Note_on_c, 0, 77, 0
2, 340416, Note_on_c, 0, 65, 92
2, 340416, Note_on_c, 0, 86, 92
2, 340544, Note_on_c, 0, 86, 0
2, 340544, Note_on_c, 0, 65, 0
2, 340608, Note_on_c, 0, 62, 92
2, 340608, Note_on_c, 0, 84, 92
2, 340736, Note_on_c, 0, 84, 0
2, 340736, Note_on_c, 0, 62, 0
2, 340800, Note_on_c, 0, 65, 92
2, 340800, Note_on_c, 0, 82, 92
2, 340928, Note_on_c, 0, 82, 0
2, 340928, Note_on_c, 0, 65, 0
2, 340992, Note_on_c, 0, 63, 92
2, 340992, Note_on_c, 0, 60, 92
2, 340992, Note_on_c, 0, 82, 92
2, 341088, Note_on_c, 0, 82, 0
2, 341120, Note_on_c, 0, 81, 92
2, 341216, Note_on_c, 0, 81, 0
2, 341248, Note_on_c, 0, 89, 92
2, 341344, Note_on_c, 0, 89, 0
2, 341376, Note_on_c, 0, 87, 92
2, 341472, Note_on_c, 0, 87, 0
2, 341504, Note_on_c, 0, 86, 92
2, 341600, Note_on_c, 0, 86, 0
2, 341632, Note_on_c, 0, 84, 92
2, 341728, Note_on_c, 0, 84, 0
2, 341760, Note_on_c, 0, 82, 92
2, 341856, Note_on_c, 0, 82, 0
2, 341888, Note_on_c, 0, 81, 92
2, 341984, Note_on_c, 0, 81, 0
2, 342016, Note_on_c, 0, 87, 92
2, 342020, Note_on_c, 0, 60, 0
2, 342020, Note_on_c, 0, 63, 0
2, 342112, Note_on_c, 0, 87, 0
2, 342144, Note_on_c, 0, 86, 92
2, 342240, Note_on_c, 0, 86, 0
2, 342272, Note_on_c, 0, 84, 92
2, 342368, Note_on_c, 0, 84, 0
2, 342400, Note_on_c, 0, 82, 92
2, 342496, Note_on_c, 0, 82, 0
2, 342528, Note_on_c, 0, 81, 92
2, 342624, Note_on_c, 0, 81, 0
2, 342656, Note_on_c, 0, 79, 92
2, 342752, Note_on_c, 0, 79, 0
2, 342784, Note_on_c, 0, 86, 92
2, 342880, Note_on_c, 0, 86, 0
2, 342912, Note_on_c, 0, 84, 92
2, 343008, Note_on_c, 0, 84, 0
2, 343040, Note_on_c, 0, 82, 92
2, 343136, Note_on_c, 0, 82, 0
2, 343168, Note_on_c, 0, 81, 92
2, 343264, Note_on_c, 0, 81, 0
2, 343296, Note_on_c, 0, 79, 92
2, 343392, Note_on_c, 0, 79, 0
2, 343424, Note_on_c, 0, 77, 92
2, 343520, Note_on_c, 0, 77, 0
2, 343552, Note_on_c, 0, 76, 92
2, 343648, Note_on_c, 0, 76, 0
2, 343680, Note_on_c, 0, 77, 92
2, 343744, Note_on_c, 0, 77, 0
2, 343776, Note_on_c, 0, 78, 92
2, 343840, Note_on_c, 0, 78, 0
2, 343872, Note_on_c, 0, 79, 92
2, 343936, Note_on_c, 0, 79, 0
2, 343968, Note_on_c, 0, 75, 92
2, 344032, Note_on_c, 0, 75, 0
2, 344064, Note_on_c, 0, 74, 92
2, 344160, Note_on_c, 0, 74, 0
2, 344192, Note_on_c, 0, 82, 92
2, 344288, Note_on_c, 0, 82, 0
2, 344320, Note_on_c, 0, 81, 92
2, 344416, Note_on_c, 0, 81, 0
2, 344448, Note_on_c, 0, 80, 92
2, 344544, Note_on_c, 0, 80, 0
2, 344576, Note_on_c, 0, 79, 92
2, 344672, Note_on_c, 0, 79, 0
2, 344704, Note_on_c, 0, 78, 92
2, 344800, Note_on_c, 0, 78, 0
2, 344832, Note_on_c, 0, 77, 92
2, 344928, Note_on_c, 0, 77, 0
2, 344960, Note_on_c, 0, 76, 92
2, 345056, Note_on_c, 0, 76, 0
2, 345088, Note_on_c, 0, 75, 92
2, 345184, Note_on_c, 0, 75, 0
2, 345216, Note_on_c, 0, 74, 92
2, 345312, Note_on_c, 0, 74, 0
2, 345344, Note_on_c, 0, 72, 92
2, 345440, Note_on_c, 0, 72, 0
2, 345472, Note_on_c, 0, 70, 92
2, 345568, Note_on_c, 0, 70, 0
2, 345600, Note_on_c, 0, 72, 92
2, 345644, Note_on_c, 0, 72, 0
2, 345648, Note_on_c, 0, 74, 92
2, 345692, Note_on_c, 0, 74, 0
2, 345696, Note_on_c, 0, 70, 92
2, 345760, Note_on_c, 0, 70, 0
2, 345792, Note_on_c, 0, 72, 92
2, 345856, Note_on_c, 0, 72, 0
2, 345888, Note_on_c, 0, 74, 92
2, 345952, Note_on_c, 0, 74, 0
2, 345984, Note_on_c, 0, 75, 92
2, 346028, Note_on_c, 0, 75, 0
2, 346032, Note_on_c, 0, 77, 92
2, 346076, Note_on_c, 0, 77, 0
2, 346080, Note_on_c, 0, 74, 92
2, 346144, Note_on_c, 0, 74, 0
2, 346176, Note_on_c, 0, 75, 92
2, 346240, Note_on_c, 0, 75, 0
2, 346272, Note_on_c, 0, 77, 92
2, 346336, Note_on_c, 0, 77, 0
2, 346368, Note_on_c, 0, 79, 92
2, 346412, Note_on_c, 0, 79, 0
2, 346416, Note_on_c, 0, 81, 92
2, 346460, Note_on_c, 0, 81, 0
2, 346464, Note_on_c, 0, 78, 92
2, 346528, Note_on_c, 0, 78, 0
2, 346560, Note_on_c, 0, 79, 92
2, 346624, Note_on_c, 0, 79, 0
2, 346656, Note_on_c, 0, 81, 92
2, 346720, Note_on_c, 0, 81, 0
2, 346752, Note_on_c, 0, 82, 92
2, 346880, Note_on_c, 0, 82, 0
2, 346944, Note_on_c, 0, 70, 92
2, 347072, Note_on_c, 0, 70, 0
2, 347136, Note_on_c, 0, 69, 92
2, 347200, Note_on_c, 0, 69, 0
2, 347232, Note_on_c, 0, 65, 92
2, 347296, Note_on_c, 0, 65, 0
2, 347328, Note_on_c, 0, 67, 92
2, 347392, Note_on_c, 0, 67, 0
2, 347424, Note_on_c, 0, 69, 92
2, 347488, Note_on_c, 0, 69, 0
2, 347520, Note_on_c, 0, 70, 92
2, 347584, Note_on_c, 0, 70, 0
2, 347616, Note_on_c, 0, 72, 92
2, 347680, Note_on_c, 0, 72, 0
2, 347712, Note_on_c, 0, 74, 92
2, 347776, Note_on_c, 0, 74, 0
2, 347808, Note_on_c, 0, 76, 92
2, 347872, Note_on_c, 0, 76, 0
2, 347904, Note_on_c, 0, 77, 92
2, 347968, Note_on_c, 0, 77, 0
2, 348000, Note_on_c, 0, 65, 92
2, 348064, Note_on_c, 0, 65, 0
2, 348096, Note_on_c, 0, 75, 92
2, 348160, Note_on_c, 0, 75, 0
2, 348192, Note_on_c, 0, 63, 92
2, 348256, Note_on_c, 0, 63, 0
2, 348288, Note_on_c, 0, 74, 92
2, 348352, Note_on_c, 0, 74, 0
2, 348384, Note_on_c, 0, 62, 92
2, 348448, Note_on_c, 0, 62, 0
2, 348480, Note_on_c, 0, 72, 92
2, 348544, Note_on_c, 0, 72, 0
2, 348576, Note_on_c, 0, 60, 92
2, 348640, Note_on_c, 0, 60, 0
2, 348672, Note_on_c, 0, 70, 92
2, 348736, Note_on_c, 0, 70, 0
2, 348768, Note_on_c, 0, 58, 92
2, 348832, Note_on_c, 0, 58, 0
2, 348864, Note_on_c, 0, 69, 92
2, 348928, Note_on_c, 0, 69, 0
2, 348960, Note_on_c, 0, 57, 92
2, 349024, Note_on_c, 0, 57, 0
2, 349056, Note_on_c, 0, 67, 92
2, 349120, Note_on_c, 0, 67, 0
2, 349152, Note_on_c, 0, 55, 92
2, 349216, Note_on_c, 0, 55, 0
2, 349248, Note_on_c, 0, 65, 92
2, 349312, Note_on_c, 0, 65, 0
2, 349344, Note_on_c, 0, 53, 92
2, 349408, Note_on_c, 0, 53, 0
2, 349440, Note_on_c, 0, 64, 92
2, 349440, Note_on_c, 0, 52, 92
2, 349568, Note_on_c, 0, 52, 0
2, 349568, Note_on_c, 0, 64, 0
2, 349632, Note_on_c, 0, 64, 92
2, 349632, Note_on_c, 0, 52, 92
2, 350012, Note_on_c, 0, 52, 0
2, 350012, Note_on_c, 0, 64, 0
2, 350016, Note_on_c, 0, 64, 92
2, 350016, Note_on_c, 0, 52, 92
2, 350144, Note_on_c, 0, 52, 0
2, 350144, Note_on_c, 0, 64, 0
2, 350304, Note_on_c, 0, 77, 92
2, 350368, Note_on_c, 0, 77, 0
2, 350400, Note_on_c, 0, 79, 92
2, 350464, Note_on_c, 0, 79, 0
2, 350496, Note_on_c, 0, 81, 92
2, 350560, Note_on_c, 0, 81, 0
2, 350592, Note_on_c, 0, 82, 92
2, 350656, Note_on_c, 0, 82, 0
2, 350688, Note_on_c, 0, 84, 92
2, 350752, Note_on_c, 0, 84, 0
2, 350784, Note_on_c, 0, 86, 92
2, 350848, Note_on_c, 0, 86, 0
2, 350880, Note_on_c, 0, 88, 92
2, 350944, Note_on_c, 0, 88, 0
2, 350976, Note_on_c, 0, 89, 92
2, 351040, Note_on_c, 0, 89, 0
2, 351072, Note_on_c, 0, 77, 92
2, 351136, Note_on_c, 0, 77, 0
2, 351168, Note_on_c, 0, 87, 92
2, 351232, Note_on_c, 0, 87, 0
2, 351264, Note_on_c, 0, 75, 92
2, 351328, Note_on_c, 0, 75, 0
2, 351360, Note_on_c, 0, 86, 92
2, 351424, Note_on_c, 0, 86, 0
2, 351456, Note_on_c, 0, 74, 92
2, 351520, Note_on_c, 0, 74, 0
2, 351552, Note_on_c, 0, 84, 92
2, 351616, Note_on_c, 0, 84, 0
2, 351648, Note_on_c, 0, 72, 92
2, 351712, Note_on_c, 0, 72, 0
2, 351744, Note_on_c, 0, 82, 92
2, 351808, Note_on_c, 0, 82, 0
2, 351840, Note_on_c, 0, 70, 92
2, 351904, Note_on_c, 0, 70, 0
2, 351936, Note_on_c, 0, 81, 92
2, 352000, Note_on_c, 0, 81, 0
2, 352032, Note_on_c, 0, 69, 92
2, 352096, Note_on_c, 0, 69, 0
2, 352128, Note_on_c, 0, 79, 92
2, 352192, Note_on_c, 0, 79, 0
2, 352224, Note_on_c, 0, 67, 92
2, 352288, Note_on_c, 0, 67, 0
2, 352320, Note_on_c, 0, 77, 92
2, 352384, Note_on_c, 0, 77, 0
2, 352416, Note_on_c, 0, 65, 92
2, 352480, Note_on_c, 0, 65, 0
2, 352512, Note_on_c, 0, 76, 92
2, 352512, Note_on_c, 0, 64, 92
2, 352640, Note_on_c, 0, 64, 0
2, 352640, Note_on_c, 0, 76, 0
2, 352704, Note_on_c, 0, 64, 92
2, 352704, Note_on_c, 0, 76, 92
2, 352960, Note_on_c, 0, 76, 0
2, 352960, Note_on_c, 0, 64, 0
2, 353088, Note_on_c, 0, 76, 92
2, 353088, Note_on_c, 0, 64, 92
2, 353216, Note_on_c, 0, 64, 0
2, 353216, Note_on_c, 0, 76, 0
2, 353280, Note_on_c, 0, 77, 92
2, 353280, Note_on_c, 0, 65, 92
2, 353660, Note_on_c, 0, 65, 0
2, 353660, Note_on_c, 0, 77, 0
2, 355008, Note_on_c, 0, 65, 92
2, 355072, Note_on_c, 0, 65, 0
2, 355104, Note_on_c, 0, 77, 92
2, 355168, Note_on_c, 0, 77, 0
2, 355200, Note_on_c, 0, 67, 92
2, 355264, Note_on_c, 0, 67, 0
2, 355296, Note_on_c, 0, 79, 92
2, 355360, Note_on_c, 0, 79, 0
2, 355392, Note_on_c, 0, 69, 92
2, 355456, Note_on_c, 0, 69, 0
2, 355488, Note_on_c, 0, 81, 92
2, 355552, Note_on_c, 0, 81, 0
2, 355584, Note_on_c, 0, 70, 92
2, 355648, Note_on_c, 0, 70, 0
2, 355680, Note_on_c, 0, 82, 92
2, 355744, Note_on_c, 0, 82, 0
2, 355776, Note_on_c, 0, 72, 92
2, 355840, Note_on_c, 0, 72, 0
2, 355872, Note_on_c, 0, 84, 92
2, 355936, Note_on_c, 0, 84, 0
2, 355968, Note_on_c, 0, 74, 92
2, 356032, Note_on_c, 0, 74, 0
2, 356064, Note_on_c, 0, 86, 92
2, 356128, Note_on_c, 0, 86, 0
2, 356160, Note_on_c, 0, 76, 92
2, 356224, Note_on_c, 0, 76, 0
2, 356256, Note_on_c, 0, 88, 92
2, 356320, Note_on_c, 0, 88, 0
2, 356352, Note_on_c, 0, 77, 92
2, 356352, Note_on_c, 0, 89, 92
2, 356732, Note_on_c, 0, 89, 0
2, 356732, Note_on_c, 0, 77, 0
2, 358080, Note_on_c, 0, 77, 92
2, 358208, Note_on_c, 0, 77, 0
2, 358272, Note_on_c, 0, 77, 92
2, 358400, Note_on_c, 0, 77, 0
2, 358464, Note_on_c, 0, 77, 92
2, 358592, Note_on_c, 0, 77, 0
2, 358656, Note_on_c, 0, 77, 92
2, 358784, Note_on_c, 0, 77, 0
2, 358848, Note_on_c, 0, 78, 92
2, 358976, Note_on_c, 0, 78, 0
2, 359040, Note_on_c, 0, 79, 92
2, 359168, Note_on_c, 0, 79, 0
2, 359232, Note_on_c, 0, 75, 92
2, 359360, Note_on_c, 0, 75, 0
2, 359424, Note_on_c, 0, 58, 92
2, 359424, Note_on_c, 0, 74, 92
2, 359552, Note_on_c, 0, 58, 0
2, 359616, Note_on_c, 0, 62, 92
2, 359744, Note_on_c, 0, 62, 0
2, 359804, Note_on_c, 0, 74, 0
2, 359808, Note_on_c, 0, 65, 92
2, 359936, Note_on_c, 0, 65, 0
2, 360000, Note_on_c, 0, 62, 92
2, 360000, Note_on_c, 0, 70, 92
2, 360128, Note_on_c, 0, 70, 0
2, 360128, Note_on_c, 0, 62, 0
2, 360192, Note_on_c, 0, 58, 92
2, 360192, Note_on_c, 0, 74, 92
2, 360320, Note_on_c, 0, 58, 0
2, 360380, Note_on_c, 0, 74, 0
2, 360384, Note_on_c, 0, 62, 92
2, 360480, Note_on_c, 0, 70, 92
2, 360512, Note_on_c, 0, 62, 0
2, 360544, Note_on_c, 0, 70, 0
2, 360576, Note_on_c, 0, 60, 92
2, 360576, Note_on_c, 0, 75, 92
2, 360704, Note_on_c, 0, 60, 0
2, 360764, Note_on_c, 0, 75, 0
2, 360768, Note_on_c, 0, 63, 92
2, 360864, Note_on_c, 0, 72, 92
2, 360896, Note_on_c, 0, 63, 0
2, 360928, Note_on_c, 0, 72, 0
2, 360960, Note_on_c, 0, 62, 92
2, 360960, Note_on_c, 0, 77, 92
2, 361088, Note_on_c, 0, 62, 0
2, 361152, Note_on_c, 0, 58, 92
2, 361280, Note_on_c, 0, 58, 0
2, 361344, Note_on_c, 0, 77, 0
2, 361344, Note_on_c, 0, 62, 92
2, 361472, Note_on_c, 0, 62, 0
2, 361536, Note_on_c, 0, 65, 92
2, 361536, Note_on_c, 0, 74, 92
2, 361664, Note_on_c, 0, 74, 0
2, 361664, Note_on_c, 0, 65, 0
2, 361728, Note_on_c, 0, 62, 92
2, 361728, Note_on_c, 0, 77, 92
2, 361856, Note_on_c, 0, 77, 0
2, 361984, Note_on_c, 0, 62, 0
2, 362112, Note_on_c, 0, 86, 92
2, 362176, Note_on_c, 0, 86, 0
2, 362208, Note_on_c, 0, 87, 92
2, 362272, Note_on_c, 0, 87, 0
2, 362304, Note_on_c, 0, 86, 92
2, 362368, Note_on_c, 0, 86, 0
2, 362400, Note_on_c, 0, 87, 92
2, 362464, Note_on_c, 0, 87, 0
2, 362496, Note_on_c, 0, 89, 92
2, 362624, Note_on_c, 0, 89, 0
2, 362880, Note_on_c, 0, 82, 92
2, 362944, Note_on_c, 0, 82, 0
2, 362976, Note_on_c, 0, 84, 92
2, 363040, Note_on_c, 0, 84, 0
2, 363072, Note_on_c, 0, 82, 92
2, 363136, Note_on_c, 0, 82, 0
2, 363168, Note_on_c, 0, 84, 92
2, 363232, Note_on_c, 0, 84, 0
2, 363264, Note_on_c, 0, 86, 92
2, 363392, Note_on_c, 0, 86, 0
2, 363648, Note_on_c, 0, 74, 92
2, 363652, Note_on_c, 0, 70, 92
2, 363776, Note_on_c, 0, 74, 0
2, 363780, Note_on_c, 0, 70, 0
2, 363840, Note_on_c, 0, 75, 92
2, 363840, Note_on_c, 0, 79, 92
2, 363968, Note_on_c, 0, 79, 0
2, 363968, Note_on_c, 0, 75, 0
2, 364032, Note_on_c, 0, 77, 92
2, 364032, Note_on_c, 0, 74, 92
2, 364160, Note_on_c, 0, 74, 0
2, 364160, Note_on_c, 0, 77, 0
2, 364224, Note_on_c, 0, 75, 92
2, 364224, Note_on_c, 0, 72, 92
2, 364352, Note_on_c, 0, 72, 0
2, 364352, Note_on_c, 0, 75, 0
2, 364416, Note_on_c, 0, 70, 92
2, 364416, Note_on_c, 0, 74, 92
2, 364544, Note_on_c, 0, 74, 0
2, 364544, Note_on_c, 0, 70, 0
2, 364608, Note_on_c, 0, 75, 92
2, 364608, Note_on_c, 0, 72, 92
2, 364736, Note_on_c, 0, 72, 0
2, 364736, Note_on_c, 0, 75, 0
2, 364800, Note_on_c, 0, 75, 92
2, 364800, Note_on_c, 0, 72, 92
2, 365180, Note_on_c, 0, 72, 0
2, 365180, Note_on_c, 0, 75, 0
2, 365568, Note_on_c, 0, 72, 92
2, 365952, Note_on_c, 0, 72, 0
2, 366144, Note_on_c, 0, 69, 92
2, 366272, Note_on_c, 0, 69, 0
2, 366336, Note_on_c, 0, 72, 92
2, 366524, Note_on_c, 0, 72, 0
2, 366624, Note_on_c, 0, 69, 92
2, 366688, Note_on_c, 0, 69, 0
2, 366720, Note_on_c, 0, 74, 92
2, 366908, Note_on_c, 0, 74, 0
2, 367008, Note_on_c, 0, 70, 92
2, 367072, Note_on_c, 0, 70, 0
2, 367104, Note_on_c, 0, 75, 92
2, 367168, Note_on_c, 0, 75, 0
2, 367200, Note_on_c, 0, 72, 92
2, 367264, Note_on_c, 0, 72, 0
2, 367296, Note_on_c, 0, 74, 92
2, 367360, Note_on_c, 0, 74, 0
2, 367392, Note_on_c, 0, 75, 92
2, 367456, Note_on_c, 0, 75, 0
2, 367488, Note_on_c, 0, 77, 92
2, 367552, Note_on_c, 0, 77, 0
2, 367584, Note_on_c, 0, 79, 92
2, 367648, Note_on_c, 0, 79, 0
2, 367680, Note_on_c, 0, 81, 92
2, 367744, Note_on_c, 0, 81, 0
2, 367776, Note_on_c, 0, 82, 92
2, 367840, Note_on_c, 0, 82, 0
2, 367872, Note_on_c, 0, 84, 92
2, 367936, Note_on_c, 0, 84, 0
2, 367968, Note_on_c, 0, 82, 92
2, 368032, Note_on_c, 0, 82, 0
2, 368064, Note_on_c, 0, 81, 92
2, 368128, Note_on_c, 0, 81, 0
2, 368160, Note_on_c, 0, 79, 92
2, 368224, Note_on_c, 0, 79, 0
2, 368256, Note_on_c, 0, 81, 92
2, 368320, Note_on_c, 0, 81, 0
2, 368352, Note_on_c, 0, 82, 92
2, 368416, Note_on_c, 0, 82, 0
2, 368448, Note_on_c, 0, 84, 92
2, 368512, Note_on_c, 0, 84, 0
2, 368544, Note_on_c, 0, 86, 92
2, 368608, Note_on_c, 0, 86, 0
2, 368640, Note_on_c, 0, 87, 92
2, 368704, Note_on_c, 0, 87, 0
2, 368736, Note_on_c, 0, 89, 92
2, 368800, Note_on_c, 0, 89, 0
2, 368832, Note_on_c, 0, 86, 92
2, 368896, Note_on_c, 0, 86, 0
2, 368928, Note_on_c, 0, 87, 92
2, 368992, Note_on_c, 0, 87, 0
2, 369024, Note_on_c, 0, 84, 92
2, 369088, Note_on_c, 0, 84, 0
2, 369120, Note_on_c, 0, 86, 92
2, 369184, Note_on_c, 0, 86, 0
2, 369216, Note_on_c, 0, 82, 92
2, 369280, Note_on_c, 0, 82, 0
2, 369312, Note_on_c, 0, 84, 92
2, 369376, Note_on_c, 0, 84, 0
2, 369408, Note_on_c, 0, 81, 92
2, 369472, Note_on_c, 0, 81, 0
2, 369504, Note_on_c, 0, 82, 92
2, 369568, Note_on_c, 0, 82, 0
2, 369600, Note_on_c, 0, 84, 92
2, 369664, Note_on_c, 0, 84, 0
2, 369696, Note_on_c, 0, 82, 92
2, 369760, Note_on_c, 0, 82, 0
2, 369792, Note_on_c, 0, 81, 92
2, 369856, Note_on_c, 0, 81, 0
2, 369888, Note_on_c, 0, 79, 92
2, 369952, Note_on_c, 0, 79, 0
2, 369984, Note_on_c, 0, 77, 92
2, 370048, Note_on_c, 0, 77, 0
2, 370080, Note_on_c, 0, 75, 92
2, 370144, Note_on_c, 0, 75, 0
2, 370176, Note_on_c, 0, 77, 92
2, 370556, Note_on_c, 0, 77, 0
2, 370560, Note_on_c, 0, 75, 92
2, 370604, Note_on_c, 0, 75, 0
2, 370608, Note_on_c, 0, 77, 92
2, 370652, Note_on_c, 0, 77, 0
2, 370656, Note_on_c, 0, 75, 92
2, 370700, Note_on_c, 0, 75, 0
2, 370704, Note_on_c, 0, 77, 92
2, 370748, Note_on_c, 0, 77, 0
2, 370752, Note_on_c, 0, 75, 92
2, 370796, Note_on_c, 0, 75, 0
2, 370800, Note_on_c, 0, 77, 92
2, 370844, Note_on_c, 0, 77, 0
2, 370848, Note_on_c, 0, 74, 92
2, 370892, Note_on_c, 0, 74, 0
2, 370896, Note_on_c, 0, 75, 92
2, 370940, Note_on_c, 0, 75, 0
2, 370944, Note_on_c, 0, 74, 92
2, 371324, Note_on_c, 0, 74, 0
2, 371808, Note_on_c, 0, 63, 92
2, 371872, Note_on_c, 0, 63, 0
2, 371904, Note_on_c, 0, 62, 92
2, 371968, Note_on_c, 0, 62, 0
2, 372000, Note_on_c, 0, 63, 92
2, 372064, Note_on_c, 0, 63, 0
2, 372096, Note_on_c, 0, 67, 92
2, 372160, Note_on_c, 0, 67, 0
2, 372192, Note_on_c, 0, 63, 92
2, 372256, Note_on_c, 0, 63, 0
2, 372272, Note_on_c, 0, 70, 92
2, 372336, Note_on_c, 0, 70, 0
2, 372384, Note_on_c, 0, 67, 92
2, 372448, Note_on_c, 0, 67, 0
2, 372480, Note_on_c, 0, 75, 92
2, 372544, Note_on_c, 0, 75, 0
2, 372576, Note_on_c, 0, 70, 92
2, 372640, Note_on_c, 0, 70, 0
2, 372672, Note_on_c, 0, 79, 92
2, 372736, Note_on_c, 0, 79, 0
2, 372768, Note_on_c, 0, 75, 92
2, 372832, Note_on_c, 0, 75, 0
2, 372864, Note_on_c, 0, 82, 92
2, 372928, Note_on_c, 0, 82, 0
2, 372960, Note_on_c, 0, 79, 92
2, 373024, Note_on_c, 0, 79, 0
2, 373056, Note_on_c, 0, 75, 92
2, 373120, Note_on_c, 0, 75, 0
2, 373152, Note_on_c, 0, 79, 92
2, 373216, Note_on_c, 0, 79, 0
2, 373248, Note_on_c, 0, 77, 92
2, 373312, Note_on_c, 0, 77, 0
2, 373344, Note_on_c, 0, 86, 92
2, 373408, Note_on_c, 0, 86, 0
2, 373440, Note_on_c, 0, 82, 92
2, 373504, Note_on_c, 0, 82, 0
2, 373536, Note_on_c, 0, 77, 92
2, 373600, Note_on_c, 0, 77, 0
2, 373632, Note_on_c, 0, 74, 92
2, 373696, Note_on_c, 0, 74, 0
2, 373728, Note_on_c, 0, 82, 92
2, 373792, Note_on_c, 0, 82, 0
2, 373824, Note_on_c, 0, 77, 92
2, 373888, Note_on_c, 0, 77, 0
2, 373920, Note_on_c, 0, 74, 92
2, 373984, Note_on_c, 0, 74, 0
2, 374016, Note_on_c, 0, 70, 92
2, 374080, Note_on_c, 0, 70, 0
2, 374112, Note_on_c, 0, 77, 92
2, 374176, Note_on_c, 0, 77, 0
2, 374208, Note_on_c, 0, 74, 92
2, 374272, Note_on_c, 0, 74, 0
2, 374304, Note_on_c, 0, 70, 92
2, 374368, Note_on_c, 0, 70, 0
2, 374400, Note_on_c, 0, 65, 92
2, 374464, Note_on_c, 0, 65, 0
2, 374496, Note_on_c, 0, 74, 92
2, 374560, Note_on_c, 0, 74, 0
2, 374592, Note_on_c, 0, 70, 92
2, 374656, Note_on_c, 0, 70, 0
2, 374688, Note_on_c, 0, 65, 92
2, 374752, Note_on_c, 0, 65, 0
2, 374784, Note_on_c, 0, 67, 92
2, 374848, Note_on_c, 0, 67, 0
2, 374880, Note_on_c, 0, 63, 92
2, 374944, Note_on_c, 0, 63, 0
2, 374976, Note_on_c, 0, 62, 92
2, 375040, Note_on_c, 0, 62, 0
2, 375072, Note_on_c, 0, 63, 92
2, 375136, Note_on_c, 0, 63, 0
2, 375168, Note_on_c, 0, 67, 92
2, 375232, Note_on_c, 0, 67, 0
2, 375264, Note_on_c, 0, 63, 92
2, 375328, Note_on_c, 0, 63, 0
2, 375360, Note_on_c, 0, 70, 92
2, 375424, Note_on_c, 0, 70, 0
2, 375456, Note_on_c, 0, 67, 92
2, 375520, Note_on_c, 0, 67, 0
2, 375552, Note_on_c, 0, 75, 92
2, 375616, Note_on_c, 0, 75, 0
2, 375648, Note_on_c, 0, 70, 92
2, 375712, Note_on_c, 0, 70, 0
2, 375744, Note_on_c, 0, 79, 92
2, 375808, Note_on_c, 0, 79, 0
2, 375840, Note_on_c, 0, 75, 92
2, 375904, Note_on_c, 0, 75, 0
2, 375936, Note_on_c, 0, 82, 92
2, 376000, Note_on_c, 0, 82, 0
2, 376032, Note_on_c, 0, 79, 92
2, 376096, Note_on_c, 0, 79, 0
2, 376128, Note_on_c, 0, 75, 92
2, 376192, Note_on_c, 0, 75, 0
2, 376224, Note_on_c, 0, 79, 92
2, 376288, Note_on_c, 0, 79, 0
2, 376320, Note_on_c, 0, 77, 92
2, 376384, Note_on_c, 0, 77, 0
2, 376416, Note_on_c, 0, 86, 92
2, 376480, Note_on_c, 0, 86, 0
2, 376512, Note_on_c, 0, 82, 92
2, 376576, Note_on_c, 0, 82, 0
2, 376608, Note_on_c, 0, 77, 92
2, 376672, Note_on_c, 0, 77, 0
2, 376704, Note_on_c, 0, 74, 92
2, 376768, Note_on_c, 0, 74, 0
2, 376800, Note_on_c, 0, 82, 92
2, 376864, Note_on_c, 0, 82, 0
2, 376896, Note_on_c, 0, 77, 92
2, 376960, Note_on_c, 0, 77, 0
2, 376992, Note_on_c, 0, 74, 92
2, 377056, Note_on_c, 0, 74, 0
2, 377088, Note_on_c, 0, 70, 92
2, 377152, Note_on_c, 0, 70, 0
2, 377184, Note_on_c, 0, 77, 92
2, 377248, Note_on_c, 0, 77, 0
2, 377280, Note_on_c, 0, 74, 92
2, 377344, Note_on_c, 0, 74, 0
2, 377376, Note_on_c, 0, 70, 92
2, 377440, Note_on_c, 0, 70, 0
2, 377472, Note_on_c, 0, 65, 92
2, 377536, Note_on_c, 0, 65, 0
2, 377568, Note_on_c, 0, 74, 92
2, 377632, Note_on_c, 0, 74, 0
2, 377664, Note_on_c, 0, 70, 92
2, 377728, Note_on_c, 0, 70, 0
2, 377760, Note_on_c, 0, 65, 92
2, 377824, Note_on_c, 0, 65, 0
2, 378336, Note_on_c, 0, 71, 92
2, 378400, Note_on_c, 0, 71, 0
2, 378432, Note_on_c, 0, 74, 92
2, 378496, Note_on_c, 0, 74, 0
2, 378528, Note_on_c, 0, 77, 92
2, 378592, Note_on_c, 0, 77, 0
2, 378624, Note_on_c, 0, 76, 92
2, 378816, Note_on_c, 0, 64, 92
2, 378880, Note_on_c, 0, 64, 0
2, 378912, Note_on_c, 0, 67, 92
2, 378976, Note_on_c, 0, 67, 0
2, 379004, Note_on_c, 0, 76, 0
2, 379008, Note_on_c, 0, 72, 92
2, 379104, Note_on_c, 0, 76, 92
2, 379136, Note_on_c, 0, 72, 0
2, 379168, Note_on_c, 0, 76, 0
2, 379200, Note_on_c, 0, 79, 92
2, 379264, Note_on_c, 0, 79, 0
2, 379296, Note_on_c, 0, 82, 92
2, 379360, Note_on_c, 0, 82, 0
2, 379392, Note_on_c, 0, 81, 92
2, 379772, Note_on_c, 0, 81, 0
2, 379872, Note_on_c, 0, 69, 92
2, 379936, Note_on_c, 0, 69, 0
2, 379968, Note_on_c, 0, 72, 92
2, 380032, Note_on_c, 0, 72, 0
2, 380064, Note_on_c, 0, 75, 92
2, 380128, Note_on_c, 0, 75, 0
2, 380160, Note_on_c, 0, 74, 92
2, 380352, Note_on_c, 0, 62, 92
2, 380416, Note_on_c, 0, 62, 0
2, 380448, Note_on_c, 0, 65, 92
2, 380512, Note_on_c, 0, 65, 0
2, 380540, Note_on_c, 0, 74, 0
2, 380544, Note_on_c, 0, 70, 92
2, 380640, Note_on_c, 0, 74, 92
2, 380672, Note_on_c, 0, 70, 0
2, 380704, Note_on_c, 0, 74, 0
2, 380736, Note_on_c, 0, 77, 92
2, 380800, Note_on_c, 0, 77, 0
2, 380832, Note_on_c, 0, 80, 92
2, 380896, Note_on_c, 0, 80, 0
2, 380928, Note_on_c, 0, 78, 92
2, 380992, Note_on_c, 0, 78, 0
2, 381024, Note_on_c, 0, 79, 92
2, 381088, Note_on_c, 0, 79, 0
2, 381120, Note_on_c, 0, 81, 92
2, 381184, Note_on_c, 0, 81, 0
2, 381216, Note_on_c, 0, 82, 92
2, 381280, Note_on_c, 0, 82, 0
2, 381312, Note_on_c, 0, 81, 92
2, 381376, Note_on_c, 0, 81, 0
2, 381408, Note_on_c, 0, 79, 92
2, 381472, Note_on_c, 0, 79, 0
2, 381504, Note_on_c, 0, 77, 92
2, 381568, Note_on_c, 0, 77, 0
2, 381600, Note_on_c, 0, 75, 92
2, 381664, Note_on_c, 0, 75, 0
2, 381696, Note_on_c, 0, 74, 92
2, 381760, Note_on_c, 0, 74, 0
2, 381792, Note_on_c, 0, 75, 92
2, 381856, Note_on_c, 0, 75, 0
2, 381888, Note_on_c, 0, 76, 92
2, 381952, Note_on_c, 0, 76, 0
2, 381984, Note_on_c, 0, 77, 92
2, 382048, Note_on_c, 0, 77, 0
2, 382080, Note_on_c, 0, 77, 92
2, 382144, Note_on_c, 0, 77, 0
2, 382176, Note_on_c, 0, 75, 92
2, 382240, Note_on_c, 0, 75, 0
2, 382256, Note_on_c, 0, 74, 92
2, 382320, Note_on_c, 0, 74, 0
2, 382368, Note_on_c, 0, 72, 92
2, 382432, Note_on_c, 0, 72, 0
2, 382464, Note_on_c, 0, 70, 92
2, 382592, Note_on_c, 0, 70, 0
2, 382656, Note_on_c, 0, 65, 92
2, 382784, Note_on_c, 0, 65, 0
2, 382848, Note_on_c, 0, 69, 92
2, 382912, Note_on_c, 0, 69, 0
2, 382944, Note_on_c, 0, 67, 92
2, 383008, Note_on_c, 0, 67, 0
2, 383040, Note_on_c, 0, 70, 92
2, 383104, Note_on_c, 0, 70, 0
2, 383136, Note_on_c, 0, 69, 92
2, 383200, Note_on_c, 0, 69, 0
2, 383232, Note_on_c, 0, 72, 92
2, 383296, Note_on_c, 0, 72, 0
2, 383328, Note_on_c, 0, 70, 92
2, 383392, Note_on_c, 0, 70, 0
2, 383424, Note_on_c, 0, 74, 92
2, 383488, Note_on_c, 0, 74, 0
2, 383520, Note_on_c, 0, 72, 92
2, 383584, Note_on_c, 0, 72, 0
2, 383616, Note_on_c, 0, 75, 92
2, 383680, Note_on_c, 0, 75, 0
2, 383712, Note_on_c, 0, 74, 92
2, 383776, Note_on_c, 0, 74, 0
2, 383808, Note_on_c, 0, 77, 92
2, 383872, Note_on_c, 0, 77, 0
2, 383904, Note_on_c, 0, 75, 92
2, 383968, Note_on_c, 0, 75, 0
2, 384000, Note_on_c, 0, 79, 92
2, 384128, Note_on_c, 0, 79, 0
2, 384176, Note_on_c, 0, 77, 92
2, 384304, Note_on_c, 0, 77, 0
2, 384384, Note_on_c, 0, 77, 92
2, 384896, Note_on_c, 0, 77, 0
2, 385152, Note_on_c, 0, 77, 92
2, 385408, Note_on_c, 0, 77, 0
2, 385536, Note_on_c, 0, 77, 92
2, 385580, Note_on_c, 0, 77, 0
2, 385584, Note_on_c, 0, 79, 92
2, 385628, Note_on_c, 0, 79, 0
2, 385632, Note_on_c, 0, 77, 92
2, 385676, Note_on_c, 0, 77, 0
2, 385680, Note_on_c, 0, 79, 92
2, 385724, Note_on_c, 0, 79, 0
2, 385728, Note_on_c, 0, 77, 92
2, 385772, Note_on_c, 0, 77, 0
2, 385776, Note_on_c, 0, 79, 92
2, 385820, Note_on_c, 0, 79, 0
2, 385824, Note_on_c, 0, 77, 92
2, 385868, Note_on_c, 0, 77, 0
2, 385872, Note_on_c, 0, 79, 92
2, 385916, Note_on_c, 0, 79, 0
2, 385920, Note_on_c, 0, 77, 92
2, 385964, Note_on_c, 0, 77, 0
2, 385968, Note_on_c, 0, 79, 92
2, 386012, Note_on_c, 0, 79, 0
2, 386016, Note_on_c, 0, 77, 92
2, 386060, Note_on_c, 0, 77, 0
2, 386064, Note_on_c, 0, 79, 92
2, 386108, Note_on_c, 0, 79, 0
2, 386112, Note_on_c, 0, 77, 92
2, 386156, Note_on_c, 0, 77, 0
2, 386160, Note_on_c, 0, 79, 92
2, 386204, Note_on_c, 0, 79, 0
2, 386208, Note_on_c, 0, 77, 92
2, 386252, Note_on_c, 0, 77, 0
2, 386256, Note_on_c, 0, 79, 92
2, 386300, Note_on_c, 0, 79, 0
2, 386304, Note_on_c, 0, 77, 92
2, 386348, Note_on_c, 0, 77, 0
2, 386352, Note_on_c, 0, 79, 92
2, 386396, Note_on_c, 0, 79, 0
2, 386400, Note_on_c, 0, 77, 92
2, 386444, Note_on_c, 0, 77, 0
2, 386448, Note_on_c, 0, 79, 92
2, 386492, Note_on_c, 0, 79, 0
2, 386496, Note_on_c, 0, 77, 92
2, 386540, Note_on_c, 0, 77, 0
2, 386544, Note_on_c, 0, 79, 92
2, 386588, Note_on_c, 0, 79, 0
2, 386592, Note_on_c, 0, 77, 92
2, 386636, Note_on_c, 0, 77, 0
2, 386640, Note_on_c, 0, 79, 92
2, 386684, Note_on_c, 0, 79, 0
2, 386688, Note_on_c, 0, 77, 92
2, 386732, Note_on_c, 0, 77, 0
2, 386736, Note_on_c, 0, 79, 92
2, 386780, Note_on_c, 0, 79, 0
2, 386784, Note_on_c, 0, 77, 92
2, 386828, Note_on_c, 0, 77, 0
2, 386832, Note_on_c, 0, 79, 92
2, 386876, Note_on_c, 0, 79, 0
2, 386880, Note_on_c, 0, 77, 92
2, 386924, Note_on_c, 0, 77, 0
2, 386928, Note_on_c, 0, 79, 92
2, 386972, Note_on_c, 0, 79, 0
2, 386976, Note_on_c, 0, 77, 92
2, 387020, Note_on_c, 0, 77, 0
2, 387024, Note_on_c, 0, 79, 92
2, 387068, Note_on_c, 0, 79, 0
2, 387072, Note_on_c, 0, 77, 92
2, 387116, Note_on_c, 0, 77, 0
2, 387120, Note_on_c, 0, 79, 92
2, 387164, Note_on_c, 0, 79, 0
2, 387168, Note_on_c, 0, 77, 92
2, 387212, Note_on_c, 0, 77, 0
2, 387216, Note_on_c, 0, 79, 92
2, 387260, Note_on_c, 0, 79, 0
2, 387264, Note_on_c, 0, 77, 92
2, 387308, Note_on_c, 0, 77, 0
2, 387312, Note_on_c, 0, 79, 92
2, 387356, Note_on_c, 0, 79, 0
2, 387360, Note_on_c, 0, 77, 92
2, 387404, Note_on_c, 0, 77, 0
2, 387408, Note_on_c, 0, 79, 92
2, 387452, Note_on_c, 0, 79, 0
2, 387456, Note_on_c, 0, 77, 92
2, 387500, Note_on_c, 0, 77, 0
2, 387504, Note_on_c, 0, 79, 92
2, 387548, Note_on_c, 0, 79, 0
2, 387552, Note_on_c, 0, 77, 92
2, 387596, Note_on_c, 0, 77, 0
2, 387600, Note_on_c, 0, 79, 92
2, 387644, Note_on_c, 0, 79, 0
2, 387648, Note_on_c, 0, 77, 92
2, 387692, Note_on_c, 0, 77, 0
2, 387696, Note_on_c, 0, 79, 92
2, 387740, Note_on_c, 0, 79, 0
2, 387744, Note_on_c, 0, 77, 92
2, 387788, Note_on_c, 0, 77, 0
2, 387792, Note_on_c, 0, 79, 92
2, 387836, Note_on_c, 0, 79, 0
2, 387840, Note_on_c, 0, 77, 92
2, 387884, Note_on_c, 0, 77, 0
2, 387888, Note_on_c, 0, 79, 92
2, 387932, Note_on_c, 0, 79, 0
2, 387936, Note_on_c, 0, 77, 92
2, 387980, Note_on_c, 0, 77, 0
2, 387984, Note_on_c, 0, 79, 92
2, 388028, Note_on_c, 0, 79, 0
2, 388032, Note_on_c, 0, 77, 92
2, 388076, Note_on_c, 0, 77, 0
2, 388080, Note_on_c, 0, 79, 92
2, 388124, Note_on_c, 0, 79, 0
2, 388128, Note_on_c, 0, 77, 92
2, 388172, Note_on_c, 0, 77, 0
2, 388176, Note_on_c, 0, 79, 92
2, 388220, Note_on_c, 0, 79, 0
2, 388224, Note_on_c, 0, 77, 92
2, 388268, Note_on_c, 0, 77, 0
2, 388272, Note_on_c, 0, 79, 92
2, 388316, Note_on_c, 0, 79, 0
2, 388320, Note_on_c, 0, 77, 92
2, 388364, Note_on_c, 0, 77, 0
2, 388368, Note_on_c, 0, 79, 92
2, 388412, Note_on_c, 0, 79, 0
2, 388416, Note_on_c, 0, 77, 92
2, 388460, Note_on_c, 0, 77, 0
2, 388464, Note_on_c, 0, 79, 92
2, 388512, Note_on_c, 0, 79, 0
2, 388512, Note_on_c, 0, 75, 92
2, 388552, Note_on_c, 0, 75, 0
2, 388560, Note_on_c, 0, 77, 92
2, 388604, Note_on_c, 0, 77, 0
2, 388608, Note_on_c, 0, 77, 92
2, 388988, Note_on_c, 0, 77, 0
2, 389184, Note_on_c, 0, 76, 92
2, 389248, Note_on_c, 0, 76, 0
2, 389280, Note_on_c, 0, 77, 92
2, 389344, Note_on_c, 0, 77, 0
2, 389376, Note_on_c, 0, 77, 92
2, 389756, Note_on_c, 0, 77, 0
2, 389760, Note_on_c, 0, 65, 92
2, 389760, Note_on_c, 0, 77, 92
2, 390524, Note_on_c, 0, 77, 0
2, 390524, Note_on_c, 0, 65, 0
2, 390528, Note_on_c, 0, 74, 92
2, 390528, Note_on_c, 0, 62, 92
2, 391292, Note_on_c, 0, 62, 0
2, 391292, Note_on_c, 0, 74, 0
2, 391296, Note_on_c, 0, 70, 92
2, 391296, Note_on_c, 0, 82, 92
2, 392060, Note_on_c, 0, 82, 0
2, 392060, Note_on_c, 0, 70, 0
2, 392064, Note_on_c, 0, 67, 92
2, 392064, Note_on_c, 0, 79, 92
2, 392828, Note_on_c, 0, 79, 0
2, 392828, Note_on_c, 0, 67, 0
2, 392832, Note_on_c, 0, 63, 92
2, 392832, Note_on_c, 0, 75, 92
2, 393212, Note_on_c, 0, 63, 0
2, 393216, Note_on_c, 0, 69, 92
2, 393596, Note_on_c, 0, 69, 0
2, 393596, Note_on_c, 0, 75, 0
2, 393600, Note_on_c, 0, 70, 92
2, 393600, Note_on_c, 0, 74, 92
2, 394364, Note_on_c, 0, 74, 0
2, 394364, Note_on_c, 0, 70, 0
2, 394368, Note_on_c, 0, 72, 92
2, 394368, Note_on_c, 0, 69, 92
2, 394748, Note_on_c, 0, 69, 0
2, 394748, Note_on_c, 0, 72, 0
2, 394752, Note_on_c, 0, 69, 92
2, 394752, Note_on_c, 0, 73, 92
2, 395132, Note_on_c, 0, 73, 0
2, 395132, Note_on_c, 0, 69, 0
2, 395136, Note_on_c, 0, 70, 92
2, 395136, Note_on_c, 0, 74, 92
2, 395516, Note_on_c, 0, 74, 0
2, 395516, Note_on_c, 0, 70, 0
2, 395712, Note_on_c, 0, 77, 92
2, 395840, Note_on_c, 0, 77, 0
2, 395904, Note_on_c, 0, 79, 92
2, 396032, Note_on_c, 0, 79, 0
2, 396096, Note_on_c, 0, 81, 92
2, 396224, Note_on_c, 0, 81, 0
2, 396288, Note_on_c, 0, 82, 92
2, 396416, Note_on_c, 0, 82, 0
2, 396480, Note_on_c, 0, 86, 92
2, 396544, Note_on_c, 0, 86, 0
2, 396576, Note_on_c, 0, 84, 92
2, 396640, Note_on_c, 0, 84, 0
2, 396672, Note_on_c, 0, 82, 92
2, 396736, Note_on_c, 0, 82, 0
2, 396768, Note_on_c, 0, 84, 92
2, 396832, Note_on_c, 0, 84, 0
2, 396864, Note_on_c, 0, 81, 92
2, 396928, Note_on_c, 0, 81, 0
2, 396960, Note_on_c, 0, 82, 92
2, 397024, Note_on_c, 0, 82, 0
2, 397056, Note_on_c, 0, 79, 92
2, 397184, Note_on_c, 0, 79, 0
2, 397248, Note_on_c, 0, 82, 92
2, 397312, Note_on_c, 0, 82, 0
2, 397344, Note_on_c, 0, 81, 92
2, 397408, Note_on_c, 0, 81, 0
2, 397440, Note_on_c, 0, 79, 92
2, 397504, Note_on_c, 0, 79, 0
2, 397536, Note_on_c, 0, 81, 92
2, 397600, Note_on_c, 0, 81, 0
2, 397632, Note_on_c, 0, 77, 92
2, 397696, Note_on_c, 0, 77, 0
2, 397728, Note_on_c, 0, 79, 92
2, 397792, Note_on_c, 0, 79, 0
2, 397824, Note_on_c, 0, 75, 92
2, 397952, Note_on_c, 0, 75, 0
2, 398016, Note_on_c, 0, 79, 92
2, 398080, Note_on_c, 0, 79, 0
2, 398112, Note_on_c, 0, 77, 92
2, 398176, Note_on_c, 0, 77, 0
2, 398208, Note_on_c, 0, 75, 92
2, 398272, Note_on_c, 0, 75, 0
2, 398304, Note_on_c, 0, 77, 92
2, 398368, Note_on_c, 0, 77, 0
2, 398400, Note_on_c, 0, 74, 92
2, 398464, Note_on_c, 0, 74, 0
2, 398496, Note_on_c, 0, 75, 92
2, 398560, Note_on_c, 0, 75, 0
2, 398592, Note_on_c, 0, 72, 92
2, 398720, Note_on_c, 0, 72, 0
2, 398784, Note_on_c, 0, 75, 92
2, 398848, Note_on_c, 0, 75, 0
2, 398880, Note_on_c, 0, 74, 92
2, 398944, Note_on_c, 0, 74, 0
2, 398976, Note_on_c, 0, 72, 92
2, 399040, Note_on_c, 0, 72, 0
2, 399072, Note_on_c, 0, 74, 92
2, 399136, Note_on_c, 0, 74, 0
2, 399168, Note_on_c, 0, 70, 92
2, 399232, Note_on_c, 0, 70, 0
2, 399264, Note_on_c, 0, 72, 92
2, 399328, Note_on_c, 0, 72, 0
2, 399360, Note_on_c, 0, 69, 92
2, 399424, Note_on_c, 0, 69, 0
2, 399456, Note_on_c, 0, 67, 92
2, 399520, Note_on_c, 0, 67, 0
2, 399552, Note_on_c, 0, 65, 92
2, 399616, Note_on_c, 0, 65, 0
2, 399648, Note_on_c, 0, 67, 92
2, 399712, Note_on_c, 0, 67, 0
2, 399744, Note_on_c, 0, 69, 92
2, 399808, Note_on_c, 0, 69, 0
2, 399840, Note_on_c, 0, 70, 92
2, 399904, Note_on_c, 0, 70, 0
2, 399936, Note_on_c, 0, 72, 92
2, 400000, Note_on_c, 0, 72, 0
2, 400032, Note_on_c, 0, 74, 92
2, 400096, Note_on_c, 0, 74, 0
2, 400128, Note_on_c, 0, 75, 92
2, 400192, Note_on_c, 0, 75, 0
2, 400224, Note_on_c, 0, 74, 92
2, 400288, Note_on_c, 0, 74, 0
2, 400320, Note_on_c, 0, 72, 92
2, 400384, Note_on_c, 0, 72, 0
2, 400416, Note_on_c, 0, 74, 92
2, 400480, Note_on_c, 0, 74, 0
2, 400512, Note_on_c, 0, 75, 92
2, 400576, Note_on_c, 0, 75, 0
2, 400608, Note_on_c, 0, 77, 92
2, 400672, Note_on_c, 0, 77, 0
2, 400704, Note_on_c, 0, 79, 92
2, 400768, Note_on_c, 0, 79, 0
2, 400800, Note_on_c, 0, 81, 92
2, 400864, Note_on_c, 0, 81, 0
2, 400896, Note_on_c, 0, 82, 92
2, 400960, Note_on_c, 0, 82, 0
2, 400992, Note_on_c, 0, 84, 92
2, 401056, Note_on_c, 0, 84, 0
2, 401088, Note_on_c, 0, 86, 92
2, 401152, Note_on_c, 0, 86, 0
2, 401184, Note_on_c, 0, 87, 92
2, 401248, Note_on_c, 0, 87, 0
2, 401280, Note_on_c, 0, 89, 92
2, 401344, Note_on_c, 0, 89, 0
2, 401376, Note_on_c, 0, 87, 92
2, 401440, Note_on_c, 0, 87, 0
2, 401472, Note_on_c, 0, 86, 92
2, 401536, Note_on_c, 0, 86, 0
2, 401568, Note_on_c, 0, 84, 92
2, 401632, Note_on_c, 0, 84, 0
2, 401664, Note_on_c, 0, 82, 92
2, 401728, Note_on_c, 0, 82, 0
2, 401760, Note_on_c, 0, 81, 92
2, 401824, Note_on_c, 0, 81, 0
2, 401856, Note_on_c, 0, 79, 92
2, 401920, Note_on_c, 0, 79, 0
2, 401952, Note_on_c, 0, 77, 92
2, 402016, Note_on_c, 0, 77, 0
2, 402048, Note_on_c, 0, 75, 92
2, 402112, Note_on_c, 0, 75, 0
2, 402144, Note_on_c, 0, 74, 92
2, 402208, Note_on_c, 0, 74, 0
2, 402240, Note_on_c, 0, 72, 92
2, 402304, Note_on_c, 0, 72, 0
2, 402336, Note_on_c, 0, 70, 92
2, 402400, Note_on_c, 0, 70, 0
2, 402432, Note_on_c, 0, 68, 92
2, 402496, Note_on_c, 0, 68, 0
2, 402528, Note_on_c, 0, 67, 92
2, 402592, Note_on_c, 0, 67, 0
2, 402624, Note_on_c, 0, 65, 92
2, 402688, Note_on_c, 0, 65, 0
2, 402720, Note_on_c, 0, 63, 92
2, 402784, Note_on_c, 0, 63, 0
2, 402816, Note_on_c, 0, 62, 92
2, 402880, Note_on_c, 0, 62, 0
2, 402912, Note_on_c, 0, 63, 92
2, 402976, Note_on_c, 0, 63, 0
2, 403008, Note_on_c, 0, 65, 92
2, 403072, Note_on_c, 0, 65, 0
2, 403104, Note_on_c, 0, 67, 92
2, 403168, Note_on_c, 0, 67, 0
2, 403200, Note_on_c, 0, 68, 92
2, 403264, Note_on_c, 0, 68, 0
2, 403296, Note_on_c, 0, 67, 92
2, 403360, Note_on_c, 0, 67, 0
2, 403392, Note_on_c, 0, 65, 92
2, 403456, Note_on_c, 0, 65, 0
2, 403488, Note_on_c, 0, 67, 92
2, 403552, Note_on_c, 0, 67, 0
2, 403584, Note_on_c, 0, 68, 92
2, 403648, Note_on_c, 0, 68, 0
2, 403680, Note_on_c, 0, 70, 92
2, 403744, Note_on_c, 0, 70, 0
2, 403776, Note_on_c, 0, 72, 92
2, 403840, Note_on_c, 0, 72, 0
2, 403872, Note_on_c, 0, 74, 92
2, 403936, Note_on_c, 0, 74, 0
2, 403968, Note_on_c, 0, 75, 92
2, 404032, Note_on_c, 0, 75, 0
2, 404064, Note_on_c, 0, 77, 92
2, 404128, Note_on_c, 0, 77, 0
2, 404160, Note_on_c, 0, 79, 92
2, 404224, Note_on_c, 0, 79, 0
2, 404256, Note_on_c, 0, 80, 92
2, 404320, Note_on_c, 0, 80, 0
2, 404352, Note_on_c, 0, 82, 92
2, 404416, Note_on_c, 0, 82, 0
2, 404448, Note_on_c, 0, 80, 92
2, 404512, Note_on_c, 0, 80, 0
2, 404544, Note_on_c, 0, 79, 92
2, 404608, Note_on_c, 0, 79, 0
2, 404640, Note_on_c, 0, 77, 92
2, 404704, Note_on_c, 0, 77, 0
2, 404736, Note_on_c, 0, 75, 92
2, 404800, Note_on_c, 0, 75, 0
2, 404832, Note_on_c, 0, 74, 92
2, 404896, Note_on_c, 0, 74, 0
2, 404928, Note_on_c, 0, 72, 92
2, 404992, Note_on_c, 0, 72, 0
2, 405024, Note_on_c, 0, 70, 92
2, 405088, Note_on_c, 0, 70, 0
2, 405120, Note_on_c, 0, 68, 92
2, 405184, Note_on_c, 0, 68, 0
2, 405216, Note_on_c, 0, 67, 92
2, 405280, Note_on_c, 0, 67, 0
2, 405312, Note_on_c, 0, 65, 92
2, 405376, Note_on_c, 0, 65, 0
2, 405408, Note_on_c, 0, 63, 92
2, 405472, Note_on_c, 0, 63, 0
2, 405504, Note_on_c, 0, 62, 92
2, 405568, Note_on_c, 0, 62, 0
2, 405600, Note_on_c, 0, 65, 92
2, 405664, Note_on_c, 0, 65, 0
2, 405696, Note_on_c, 0, 70, 92
2, 405760, Note_on_c, 0, 70, 0
2, 405792, Note_on_c, 0, 74, 92
2, 405856, Note_on_c, 0, 74, 0
2, 405888, Note_on_c, 0, 63, 92
2, 405952, Note_on_c, 0, 63, 0
2, 405984, Note_on_c, 0, 67, 92
2, 406048, Note_on_c, 0, 67, 0
2, 406080, Note_on_c, 0, 72, 92
2, 406144, Note_on_c, 0, 72, 0
2, 406176, Note_on_c, 0, 75, 92
2, 406240, Note_on_c, 0, 75, 0
2, 406272, Note_on_c, 0, 62, 92
2, 406336, Note_on_c, 0, 62, 0
2, 406368, Note_on_c, 0, 65, 92
2, 406432, Note_on_c, 0, 65, 0
2, 406464, Note_on_c, 0, 70, 92
2, 406528, Note_on_c, 0, 70, 0
2, 406560, Note_on_c, 0, 74, 92
2, 406624, Note_on_c, 0, 74, 0
2, 406656, Note_on_c, 0, 60, 92
2, 406720, Note_on_c, 0, 60, 0
2, 406752, Note_on_c, 0, 63, 92
2, 406816, Note_on_c, 0, 63, 0
2, 406848, Note_on_c, 0, 69, 92
2, 406912, Note_on_c, 0, 69, 0
2, 406944, Note_on_c, 0, 72, 92
2, 407008, Note_on_c, 0, 72, 0
2, 407040, Note_on_c, 0, 70, 92
2, 407420, Note_on_c, 0, 70, 0
2, 407424, Note_on_c, 0, 70, 92
2, 407424, Note_on_c, 0, 74, 92
2, 407552, Note_on_c, 0, 74, 0
2, 407616, Note_on_c, 0, 74, 92
2, 407804, Note_on_c, 0, 70, 0
2, 407808, Note_on_c, 0, 69, 92
2, 407936, Note_on_c, 0, 69, 0
2, 407996, Note_on_c, 0, 74, 0
2, 408192, Note_on_c, 0, 75, 92
2, 408192, Note_on_c, 0, 72, 92
2, 408320, Note_on_c, 0, 72, 0
2, 408320, Note_on_c, 0, 75, 0
2, 408576, Note_on_c, 0, 74, 92
2, 408576, Note_on_c, 0, 72, 92
2, 408704, Note_on_c, 0, 72, 0
2, 408768, Note_on_c, 0, 70, 92
2, 408896, Note_on_c, 0, 70, 0
2, 408956, Note_on_c, 0, 74, 0
2, 408960, Note_on_c, 0, 62, 92
2, 409024, Note_on_c, 0, 62, 0
2, 409056, Note_on_c, 0, 60, 92
2, 409120, Note_on_c, 0, 60, 0
2, 409152, Note_on_c, 0, 62, 92
2, 409152, Note_on_c, 0, 74, 92
2, 409152, Note_on_c, 0, 82, 92
2, 409216, Note_on_c, 0, 62, 0
2, 409248, Note_on_c, 0, 63, 92
2, 409280, Note_on_c, 0, 74, 0
2, 409312, Note_on_c, 0, 63, 0
2, 409344, Note_on_c, 0, 72, 92
2, 409344, Note_on_c, 0, 65, 92
2, 409408, Note_on_c, 0, 65, 0
2, 409440, Note_on_c, 0, 64, 92
2, 409504, Note_on_c, 0, 64, 0
2, 409532, Note_on_c, 0, 82, 0
2, 409536, Note_on_c, 0, 65, 92
2, 409536, Note_on_c, 0, 81, 92
2, 409600, Note_on_c, 0, 65, 0
2, 409632, Note_on_c, 0, 67, 92
2, 409664, Note_on_c, 0, 81, 0
2, 409696, Note_on_c, 0, 67, 0
2, 409724, Note_on_c, 0, 72, 0
2, 409728, Note_on_c, 0, 69, 92
2, 409792, Note_on_c, 0, 69, 0
2, 409824, Note_on_c, 0, 67, 92
2, 409888, Note_on_c, 0, 67, 0
2, 409920, Note_on_c, 0, 69, 92
2, 409920, Note_on_c, 0, 75, 92
2, 409920, Note_on_c, 0, 84, 92
2, 409984, Note_on_c, 0, 69, 0
2, 410016, Note_on_c, 0, 65, 92
2, 410048, Note_on_c, 0, 84, 0
2, 410048, Note_on_c, 0, 75, 0
2, 410080, Note_on_c, 0, 65, 0
2, 410112, Note_on_c, 0, 70, 92
2, 410112, Note_on_c, 0, 84, 92
2, 410112, Note_on_c, 0, 74, 92
2, 410176, Note_on_c, 0, 70, 0
2, 410208, Note_on_c, 0, 69, 92
2, 410240, Note_on_c, 0, 84, 0
2, 410272, Note_on_c, 0, 69, 0
2, 410304, Note_on_c, 0, 70, 92
2, 410304, Note_on_c, 0, 82, 92
2, 410368, Note_on_c, 0, 70, 0
2, 410368, Note_on_c, 0, 74, 0
2, 410400, Note_on_c, 0, 72, 92
2, 410432, Note_on_c, 0, 82, 0
2, 410464, Note_on_c, 0, 72, 0
2, 410496, Note_on_c, 0, 74, 92
2, 410560, Note_on_c, 0, 74, 0
2, 410592, Note_on_c, 0, 72, 92
2, 410656, Note_on_c, 0, 72, 0
2, 410688, Note_on_c, 0, 74, 92
2, 410688, Note_on_c, 0, 86, 92
2, 410688, Note_on_c, 0, 82, 92
2, 410752, Note_on_c, 0, 74, 0
2, 410784, Note_on_c, 0, 75, 92
2, 410816, Note_on_c, 0, 82, 0
2, 410816, Note_on_c, 0, 86, 0
2, 410848, Note_on_c, 0, 75, 0
2, 410880, Note_on_c, 0, 77, 92
2, 410880, Note_on_c, 0, 84, 92
2, 410880, Note_on_c, 0, 82, 92
2, 410944, Note_on_c, 0, 77, 0
2, 410976, Note_on_c, 0, 76, 92
2, 411008, Note_on_c, 0, 82, 0
2, 411040, Note_on_c, 0, 76, 0
2, 411072, Note_on_c, 0, 77, 92
2, 411072, Note_on_c, 0, 81, 92
2, 411136, Note_on_c, 0, 77, 0
2, 411136, Note_on_c, 0, 84, 0
2, 411168, Note_on_c, 0, 79, 92
2, 411200, Note_on_c, 0, 81, 0
2, 411232, Note_on_c, 0, 79, 0
2, 411264, Note_on_c, 0, 81, 92
2, 411328, Note_on_c, 0, 81, 0
2, 411360, Note_on_c, 0, 79, 92
2, 411424, Note_on_c, 0, 79, 0
2, 411456, Note_on_c, 0, 81, 92
2, 411456, Note_on_c, 0, 84, 92
2, 411456, Note_on_c, 0, 87, 92
2, 411520, Note_on_c, 0, 81, 0
2, 411552, Note_on_c, 0, 77, 92
2, 411584, Note_on_c, 0, 87, 0
2, 411584, Note_on_c, 0, 84, 0
2, 411616, Note_on_c, 0, 77, 0
2, 411648, Note_on_c, 0, 82, 92
2, 411648, Note_on_c, 0, 86, 92
2, 411712, Note_on_c, 0, 86, 0
2, 411712, Note_on_c, 0, 82, 0
2, 411744, Note_on_c, 0, 81, 92
2, 411744, Note_on_c, 0, 84, 92
2, 411808, Note_on_c, 0, 84, 0
2, 411808, Note_on_c, 0, 81, 0
2, 411840, Note_on_c, 0, 82, 92
2, 411840, Note_on_c, 0, 86, 92
2, 411904, Note_on_c, 0, 86, 0
2, 411904, Note_on_c, 0, 82, 0
2, 411936, Note_on_c, 0, 79, 92
2, 411936, Note_on_c, 0, 87, 92
2, 412000, Note_on_c, 0, 87, 0
2, 412000, Note_on_c, 0, 79, 0
2, 412032, Note_on_c, 0, 81, 92
2, 412032, Note_on_c, 0, 84, 92
2, 412096, Note_on_c, 0, 84, 0
2, 412096, Note_on_c, 0, 81, 0
2, 412128, Note_on_c, 0, 79, 92
2, 412128, Note_on_c, 0, 82, 92
2, 412192, Note_on_c, 0, 82, 0
2, 412192, Note_on_c, 0, 79, 0
2, 412224, Note_on_c, 0, 81, 92
2, 412224, Note_on_c, 0, 84, 92
2, 412288, Note_on_c, 0, 84, 0
2, 412288, Note_on_c, 0, 81, 0
2, 412320, Note_on_c, 0, 77, 92
2, 412320, Note_on_c, 0, 86, 92
2, 412384, Note_on_c, 0, 86, 0
2, 412384, Note_on_c, 0, 77, 0
2, 412416, Note_on_c, 0, 79, 92
2, 412416, Note_on_c, 0, 82, 92
2, 412480, Note_on_c, 0, 82, 0
2, 412480, Note_on_c, 0, 79, 0
2, 412512, Note_on_c, 0, 77, 92
2, 412512, Note_on_c, 0, 81, 92
2, 412576, Note_on_c, 0, 81, 0
2, 412576, Note_on_c, 0, 77, 0
2, 412608, Note_on_c, 0, 79, 92
2, 412608, Note_on_c, 0, 82, 92
2, 412672, Note_on_c, 0, 82, 0
2, 412672, Note_on_c, 0, 79, 0
2, 412704, Note_on_c, 0, 75, 92
2, 412704, Note_on_c, 0, 84, 92
2, 412768, Note_on_c, 0, 84, 0
2, 412768, Note_on_c, 0, 75, 0
2, 412800, Note_on_c, 0, 77, 92
2, 412800, Note_on_c, 0, 81, 92
2, 412864, Note_on_c, 0, 81, 0
2, 412864, Note_on_c, 0, 77, 0
2, 412896, Note_on_c, 0, 75, 92
2, 412896, Note_on_c, 0, 79, 92
2, 412960, Note_on_c, 0, 79, 0
2, 412960, Note_on_c, 0, 75, 0
2, 412992, Note_on_c, 0, 77, 92
2, 412992, Note_on_c, 0, 81, 92
2, 413056, Note_on_c, 0, 81, 0
2, 413056, Note_on_c, 0, 77, 0
2, 413088, Note_on_c, 0, 74, 92
2, 413088, Note_on_c, 0, 82, 92
2, 413152, Note_on_c, 0, 82, 0
2, 413152, Note_on_c, 0, 74, 0
2, 413184, Note_on_c, 0, 75, 92
2, 413184, Note_on_c, 0, 79, 92
2, 413248, Note_on_c, 0, 79, 0
2, 413248, Note_on_c, 0, 75, 0
2, 413280, Note_on_c, 0, 74, 92
2, 413280, Note_on_c, 0, 77, 92
2, 413344, Note_on_c, 0, 77, 0
2, 413344, Note_on_c, 0, 74, 0
2, 413376, Note_on_c, 0, 75, 92
2, 413376, Note_on_c, 0, 79, 92
2, 413440, Note_on_c, 0, 79, 0
2, 413440, Note_on_c, 0, 75, 0
2, 413472, Note_on_c, 0, 72, 92
2, 413472, Note_on_c, 0, 80, 92
2, 413536, Note_on_c, 0, 80, 0
2, 413536, Note_on_c, 0, 72, 0
2, 413568, Note_on_c, 0, 74, 92
2, 413568, Note_on_c, 0, 77, 92
2, 413632, Note_on_c, 0, 77, 0
2, 413632, Note_on_c, 0, 74, 0
2, 413664, Note_on_c, 0, 72, 92
2, 413664, Note_on_c, 0, 75, 92
2, 413728, Note_on_c, 0, 75, 0
2, 413728, Note_on_c, 0, 72, 0
2, 413760, Note_on_c, 0, 74, 92
2, 413760, Note_on_c, 0, 77, 92
2, 413824, Note_on_c, 0, 77, 0
2, 413824, Note_on_c, 0, 74, 0
2, 413856, Note_on_c, 0, 71, 92
2, 413856, Note_on_c, 0, 79, 92
2, 413920, Note_on_c, 0, 79, 0
2, 413920, Note_on_c, 0, 71, 0
2, 413952, Note_on_c, 0, 72, 92
2, 413952, Note_on_c, 0, 75, 92
2, 414016, Note_on_c, 0, 75, 0
2, 414016, Note_on_c, 0, 72, 0
2, 414048, Note_on_c, 0, 70, 92
2, 414048, Note_on_c, 0, 74, 92
2, 414112, Note_on_c, 0, 74, 0
2, 414112, Note_on_c, 0, 70, 0
2, 414144, Note_on_c, 0, 72, 92
2, 414144, Note_on_c, 0, 75, 92
2, 414208, Note_on_c, 0, 75, 0
2, 414208, Note_on_c, 0, 72, 0
2, 414240, Note_on_c, 0, 69, 92
2, 414240, Note_on_c, 0, 77, 92
2, 414304, Note_on_c, 0, 77, 0
2, 414304, Note_on_c, 0, 69, 0
2, 414336, Note_on_c, 0, 70, 92
2, 414336, Note_on_c, 0, 74, 92
2, 414400, Note_on_c, 0, 74, 0
2, 414400, Note_on_c, 0, 70, 0
2, 414432, Note_on_c, 0, 69, 92
2, 414432, Note_on_c, 0, 72, 92
2, 414496, Note_on_c, 0, 72, 0
2, 414496, Note_on_c, 0, 69, 0
2, 414528, Note_on_c, 0, 70, 92
2, 414528, Note_on_c, 0, 74, 92
2, 414592, Note_on_c, 0, 74, 0
2, 414592, Note_on_c, 0, 70, 0
2, 414624, Note_on_c, 0, 67, 92
2, 414624, Note_on_c, 0, 75, 92
2, 414688, Note_on_c, 0, 75, 0
2, 414688, Note_on_c, 0, 67, 0
2, 414720, Note_on_c, 0, 63, 92
2, 414720, Note_on_c, 0, 72, 92
2, 414784, Note_on_c, 0, 72, 0
2, 414816, Note_on_c, 0, 74, 92
2, 414880, Note_on_c, 0, 74, 0
2, 414912, Note_on_c, 0, 72, 92
2, 414976, Note_on_c, 0, 72, 0
2, 414976, Note_on_c, 0, 63, 0
2, 415008, Note_on_c, 0, 71, 92
2, 415072, Note_on_c, 0, 71, 0
2, 415104, Note_on_c, 0, 72, 92
2, 415168, Note_on_c, 0, 72, 0
2, 415200, Note_on_c, 0, 74, 92
2, 415264, Note_on_c, 0, 74, 0
2, 415296, Note_on_c, 0, 75, 92
2, 415360, Note_on_c, 0, 75, 0
2, 415392, Note_on_c, 0, 77, 92
2, 415456, Note_on_c, 0, 77, 0
2, 415488, Note_on_c, 0, 79, 92
2, 415552, Note_on_c, 0, 79, 0
2, 415584, Note_on_c, 0, 81, 92
2, 415648, Note_on_c, 0, 81, 0
2, 415680, Note_on_c, 0, 82, 92
2, 415744, Note_on_c, 0, 82, 0
2, 415776, Note_on_c, 0, 81, 92
2, 415840, Note_on_c, 0, 81, 0
2, 415872, Note_on_c, 0, 63, 92
2, 415872, Note_on_c, 0, 84, 92
2, 415872, Note_on_c, 0, 69, 92
2, 415968, Note_on_c, 0, 82, 92
2, 416032, Note_on_c, 0, 82, 0
2, 416064, Note_on_c, 0, 81, 92
2, 416128, Note_on_c, 0, 81, 0
2, 416160, Note_on_c, 0, 79, 92
2, 416224, Note_on_c, 0, 79, 0
2, 416252, Note_on_c, 0, 63, 0
2, 416252, Note_on_c, 0, 84, 0
2, 416256, Note_on_c, 0, 62, 92
2, 416256, Note_on_c, 0, 70, 92
2, 416256, Note_on_c, 0, 79, 92
2, 416260, Note_on_c, 0, 69, 0
2, 416300, Note_on_c, 0, 79, 0
2, 416304, Note_on_c, 0, 77, 92
2, 416448, Note_on_c, 0, 77, 0
2, 416448, Note_on_c, 0, 75, 92
2, 416512, Note_on_c, 0, 75, 0
2, 416512, Note_on_c, 0, 70, 0
2, 416512, Note_on_c, 0, 62, 0
2, 416544, Note_on_c, 0, 77, 92
2, 416608, Note_on_c, 0, 77, 0
2, 416640, Note_on_c, 0, 63, 92
2, 416640, Note_on_c, 0, 70, 92
2, 416640, Note_on_c, 0, 81, 92
2, 416684, Note_on_c, 0, 81, 0
2, 416688, Note_on_c, 0, 79, 92
2, 416832, Note_on_c, 0, 79, 0
2, 416832, Note_on_c, 0, 77, 92
2, 416896, Note_on_c, 0, 77, 0
2, 416928, Note_on_c, 0, 75, 92
2, 416992, Note_on_c, 0, 75, 0
2, 417020, Note_on_c, 0, 63, 0
2, 417024, Note_on_c, 0, 74, 92
2, 417024, Note_on_c, 0, 65, 92
2, 417152, Note_on_c, 0, 70, 0
2, 417404, Note_on_c, 0, 74, 0
2, 417408, Note_on_c, 0, 69, 92
2, 417408, Note_on_c, 0, 72, 92
2, 417664, Note_on_c, 0, 69, 0
2, 417788, Note_on_c, 0, 72, 0
2, 417788, Note_on_c, 0, 65, 0
2, 417792, Note_on_c, 0, 86, 92
2, 417856, Note_on_c, 0, 86, 0
2, 417888, Note_on_c, 0, 82, 92
2, 417952, Note_on_c, 0, 82, 0
2, 417984, Note_on_c, 0, 77, 92
2, 418048, Note_on_c, 0, 77, 0
2, 418080, Note_on_c, 0, 74, 92
2, 418144, Note_on_c, 0, 74, 0
2, 418176, Note_on_c, 0, 70, 92
2, 418240, Note_on_c, 0, 70, 0
2, 418272, Note_on_c, 0, 74, 92
2, 418336, Note_on_c, 0, 74, 0
2, 418368, Note_on_c, 0, 77, 92
2, 418432, Note_on_c, 0, 77, 0
2, 418464, Note_on_c, 0, 82, 92
2, 418528, Note_on_c, 0, 82, 0
2, 418560, Note_on_c, 0, 86, 92
2, 418624, Note_on_c, 0, 86, 0
2, 418656, Note_on_c, 0, 82, 92
2, 418720, Note_on_c, 0, 82, 0
2, 418752, Note_on_c, 0, 77, 92
2, 418816, Note_on_c, 0, 77, 0
2, 418848, Note_on_c, 0, 72, 92
2, 418912, Note_on_c, 0, 72, 0
2, 418944, Note_on_c, 0, 69, 92
2, 419008, Note_on_c, 0, 69, 0
2, 419040, Note_on_c, 0, 72, 92
2, 419104, Note_on_c, 0, 72, 0
2, 419136, Note_on_c, 0, 77, 92
2, 419200, Note_on_c, 0, 77, 0
2, 419232, Note_on_c, 0, 81, 92
2, 419296, Note_on_c, 0, 81, 0
2, 419328, Note_on_c, 0, 82, 92
2, 419392, Note_on_c, 0, 82, 0
2, 419424, Note_on_c, 0, 79, 92
2, 419488, Note_on_c, 0, 79, 0
2, 419520, Note_on_c, 0, 74, 92
2, 419584, Note_on_c, 0, 74, 0
2, 419616, Note_on_c, 0, 70, 92
2, 419680, Note_on_c, 0, 70, 0
2, 419712, Note_on_c, 0, 67, 92
2, 419776, Note_on_c, 0, 67, 0
2, 419808, Note_on_c, 0, 70, 92
2, 419872, Note_on_c, 0, 70, 0
2, 419904, Note_on_c, 0, 74, 92
2, 419968, Note_on_c, 0, 74, 0
2, 420000, Note_on_c, 0, 79, 92
2, 420064, Note_on_c, 0, 79, 0
2, 420096, Note_on_c, 0, 81, 92
2, 420160, Note_on_c, 0, 81, 0
2, 420192, Note_on_c, 0, 77, 92
2, 420256, Note_on_c, 0, 77, 0
2, 420288, Note_on_c, 0, 74, 92
2, 420352, Note_on_c, 0, 74, 0
2, 420384, Note_on_c, 0, 69, 92
2, 420448, Note_on_c, 0, 69, 0
2, 420480, Note_on_c, 0, 65, 92
2, 420544, Note_on_c, 0, 65, 0
2, 420576, Note_on_c, 0, 69, 92
2, 420640, Note_on_c, 0, 69, 0
2, 420672, Note_on_c, 0, 74, 92
2, 420736, Note_on_c, 0, 74, 0
2, 420768, Note_on_c, 0, 77, 92
2, 420832, Note_on_c, 0, 77, 0
2, 420864, Note_on_c, 0, 79, 92
2, 420928, Note_on_c, 0, 79, 0
2, 420960, Note_on_c, 0, 75, 92
2, 421024, Note_on_c, 0, 75, 0
2, 421056, Note_on_c, 0, 70, 92
2, 421120, Note_on_c, 0, 70, 0
2, 421152, Note_on_c, 0, 67, 92
2, 421216, Note_on_c, 0, 67, 0
2, 421248, Note_on_c, 0, 63, 92
2, 421312, Note_on_c, 0, 63, 0
2, 421344, Note_on_c, 0, 67, 92
2, 421408, Note_on_c, 0, 67, 0
2, 421440, Note_on_c, 0, 70, 92
2, 421504, Note_on_c, 0, 70, 0
2, 421536, Note_on_c, 0, 75, 92
2, 421600, Note_on_c, 0, 75, 0
2, 421632, Note_on_c, 0, 77, 92
2, 421696, Note_on_c, 0, 77, 0
2, 421728, Note_on_c, 0, 74, 92
2, 421792, Note_on_c, 0, 74, 0
2, 421824, Note_on_c, 0, 70, 92
2, 421888, Note_on_c, 0, 70, 0
2, 421920, Note_on_c, 0, 65, 92
2, 421984, Note_on_c, 0, 65, 0
2, 422016, Note_on_c, 0, 62, 92
2, 422080, Note_on_c, 0, 62, 0
2, 422112, Note_on_c, 0, 65, 92
2, 422176, Note_on_c, 0, 65, 0
2, 422208, Note_on_c, 0, 70, 92
2, 422272, Note_on_c, 0, 70, 0
2, 422304, Note_on_c, 0, 74, 92
2, 422368, Note_on_c, 0, 74, 0
2, 422400, Note_on_c, 0, 75, 92
2, 422464, Note_on_c, 0, 75, 0
2, 422496, Note_on_c, 0, 79, 92
2, 422560, Note_on_c, 0, 79, 0
2, 422592, Note_on_c, 0, 75, 92
2, 422656, Note_on_c, 0, 75, 0
2, 422688, Note_on_c, 0, 74, 92
2, 422752, Note_on_c, 0, 74, 0
2, 422784, Note_on_c, 0, 72, 92
2, 422848, Note_on_c, 0, 72, 0
2, 422880, Note_on_c, 0, 79, 92
2, 422944, Note_on_c, 0, 79, 0
2, 422976, Note_on_c, 0, 72, 92
2, 423040, Note_on_c, 0, 72, 0
2, 423072, Note_on_c, 0, 70, 92
2, 423136, Note_on_c, 0, 70, 0
2, 423168, Note_on_c, 0, 69, 92
2, 423232, Note_on_c, 0, 69, 0
2, 423264, Note_on_c, 0, 72, 92
2, 423328, Note_on_c, 0, 72, 0
2, 423360, Note_on_c, 0, 69, 92
2, 423424, Note_on_c, 0, 69, 0
2, 423456, Note_on_c, 0, 67, 92
2, 423520, Note_on_c, 0, 67, 0
2, 423552, Note_on_c, 0, 65, 92
2, 423616, Note_on_c, 0, 65, 0
2, 423648, Note_on_c, 0, 72, 92
2, 423712, Note_on_c, 0, 72, 0
2, 423744, Note_on_c, 0, 65, 92
2, 423808, Note_on_c, 0, 65, 0
2, 423840, Note_on_c, 0, 63, 92
2, 423904, Note_on_c, 0, 63, 0
2, 423936, Note_on_c, 0, 62, 92
2, 424316, Note_on_c, 0, 62, 0
2, 424320, Note_on_c, 0, 77, 92
2, 424832, Note_on_c, 0, 77, 0
2, 425088, Note_on_c, 0, 62, 92
2, 425468, Note_on_c, 0, 62, 0
2, 425472, Note_on_c, 0, 63, 92
2, 425852, Note_on_c, 0, 63, 0
2, 425856, Note_on_c, 0, 79, 92
2, 426368, Note_on_c, 0, 79, 0
2, 426624, Note_on_c, 0, 63, 92
2, 427004, Note_on_c, 0, 63, 0
2, 427008, Note_on_c, 0, 64, 92
2, 427388, Note_on_c, 0, 64, 0
2, 427392, Note_on_c, 0, 85, 92
2, 427904, Note_on_c, 0, 85, 0
2, 428160, Note_on_c, 0, 64, 92
2, 428540, Note_on_c, 0, 64, 0
2, 428544, Note_on_c, 0, 65, 92
2, 428640, Note_on_c, 0, 65, 0
2, 428672, Note_on_c, 0, 60, 92
2, 428768, Note_on_c, 0, 60, 0
2, 428800, Note_on_c, 0, 70, 92
2, 428896, Note_on_c, 0, 70, 0
2, 428928, Note_on_c, 0, 70, 92
2, 429024, Note_on_c, 0, 70, 0
2, 429056, Note_on_c, 0, 70, 92
2, 429152, Note_on_c, 0, 70, 0
2, 429184, Note_on_c, 0, 70, 92
2, 429280, Note_on_c, 0, 70, 0
2, 429312, Note_on_c, 0, 70, 92
2, 429408, Note_on_c, 0, 70, 0
2, 429440, Note_on_c, 0, 65, 92
2, 429536, Note_on_c, 0, 65, 0
2, 429568, Note_on_c, 0, 74, 92
2, 429568, Note_on_c, 0, 70, 92
2, 429664, Note_on_c, 0, 70, 0
2, 429664, Note_on_c, 0, 74, 0
2, 429696, Note_on_c, 0, 74, 92
2, 429696, Note_on_c, 0, 70, 92
2, 429792, Note_on_c, 0, 70, 0
2, 429792, Note_on_c, 0, 74, 0
2, 429824, Note_on_c, 0, 70, 92
2, 429824, Note_on_c, 0, 74, 92
2, 429920, Note_on_c, 0, 74, 0
2, 429920, Note_on_c, 0, 70, 0
2, 429952, Note_on_c, 0, 74, 92
2, 429952, Note_on_c, 0, 70, 92
2, 430048, Note_on_c, 0, 70, 0
2, 430048, Note_on_c, 0, 74, 0
2, 430080, Note_on_c, 0, 70, 92
2, 430080, Note_on_c, 0, 74, 92
2, 430176, Note_on_c, 0, 70, 0
2, 430208, Note_on_c, 0, 65, 92
2, 430272, Note_on_c, 0, 74, 0
2, 430304, Note_on_c, 0, 65, 0
2, 430336, Note_on_c, 0, 74, 92
2, 430336, Note_on_c, 0, 77, 92
2, 430400, Note_on_c, 0, 77, 0
2, 430432, Note_on_c, 0, 74, 0
2, 430464, Note_on_c, 0, 74, 92
2, 430464, Note_on_c, 0, 77, 92
2, 430560, Note_on_c, 0, 74, 0
2, 430592, Note_on_c, 0, 70, 92
2, 430656, Note_on_c, 0, 77, 0
2, 430688, Note_on_c, 0, 70, 0
2, 430720, Note_on_c, 0, 77, 92
2, 430720, Note_on_c, 0, 82, 92
2, 430784, Note_on_c, 0, 82, 0
2, 430816, Note_on_c, 0, 77, 0
2, 430848, Note_on_c, 0, 77, 92
2, 430848, Note_on_c, 0, 82, 92
2, 430944, Note_on_c, 0, 77, 0
2, 430976, Note_on_c, 0, 74, 92
2, 431040, Note_on_c, 0, 82, 0
2, 431072, Note_on_c, 0, 74, 0
2, 431104, Note_on_c, 0, 82, 92
2, 431104, Note_on_c, 0, 86, 92
2, 431168, Note_on_c, 0, 86, 0
2, 431200, Note_on_c, 0, 82, 0
2, 431232, Note_on_c, 0, 82, 92
2, 431232, Note_on_c, 0, 86, 92
2, 431328, Note_on_c, 0, 82, 0
2, 431360, Note_on_c, 0, 77, 92
2, 431424, Note_on_c, 0, 86, 0
2, 431456, Note_on_c, 0, 77, 0
2, 431488, Note_on_c, 0, 86, 92
2, 431488, Note_on_c, 0, 89, 92
2, 431552, Note_on_c, 0, 89, 0
2, 431584, Note_on_c, 0, 86, 0
2, 431616, Note_on_c, 0, 86, 92
2, 431616, Note_on_c, 0, 89, 92
2, 431996, Note_on_c, 0, 89, 0
2, 431996, Note_on_c, 0, 86, 0
2, 432128, Note_on_c, 0, 81, 92
2, 432128, Note_on_c, 0, 85, 92
2, 432224, Note_on_c, 0, 85, 0
2, 432224, Note_on_c, 0, 81, 0
2, 432256, Note_on_c, 0, 82, 92
2, 432256, Note_on_c, 0, 86, 92
2, 432352, Note_on_c, 0, 86, 0
2, 432352, Note_on_c, 0, 82, 0
2, 432384, Note_on_c, 0, 82, 92
2, 432384, Note_on_c, 0, 86, 92
2, 432764, Note_on_c, 0, 86, 0
2, 432764, Note_on_c, 0, 82, 0
2, 432896, Note_on_c, 0, 81, 92
2, 432896, Note_on_c, 0, 73, 92
2, 432992, Note_on_c, 0, 73, 0
2, 432992, Note_on_c, 0, 81, 0
2, 433024, Note_on_c, 0, 74, 92
2, 433024, Note_on_c, 0, 82, 92
2, 433120, Note_on_c, 0, 82, 0
2, 433120, Note_on_c, 0, 74, 0
2, 433152, Note_on_c, 0, 82, 92
2, 433152, Note_on_c, 0, 74, 92
2, 433248, Note_on_c, 0, 74, 0
2, 433248, Note_on_c, 0, 82, 0
2, 433280, Note_on_c, 0, 76, 92
2, 433280, Note_on_c, 0, 73, 92
2, 433376, Note_on_c, 0, 73, 0
2, 433376, Note_on_c, 0, 76, 0
2, 433408, Note_on_c, 0, 77, 92
2, 433408, Note_on_c, 0, 74, 92
2, 433504, Note_on_c, 0, 74, 0
2, 433504, Note_on_c, 0, 77, 0
2, 433536, Note_on_c, 0, 77, 92
2, 433536, Note_on_c, 0, 74, 92
2, 433632, Note_on_c, 0, 74, 0
2, 433632, Note_on_c, 0, 77, 0
2, 433664, Note_on_c, 0, 73, 92
2, 433664, Note_on_c, 0, 69, 92
2, 433760, Note_on_c, 0, 69, 0
2, 433760, Note_on_c, 0, 73, 0
2, 433792, Note_on_c, 0, 70, 92
2, 433792, Note_on_c, 0, 74, 92
2, 433888, Note_on_c, 0, 74, 0
2, 433888, Note_on_c, 0, 70, 0
2, 433920, Note_on_c, 0, 74, 92
2, 433920, Note_on_c, 0, 70, 92
2, 434016, Note_on_c, 0, 70, 0
2, 434016, Note_on_c, 0, 74, 0
2, 434048, Note_on_c, 0, 61, 92
2, 434048, Note_on_c, 0, 69, 92
2, 434144, Note_on_c, 0, 69, 0
2, 434144, Note_on_c, 0, 61, 0
2, 434176, Note_on_c, 0, 62, 92
2, 434176, Note_on_c, 0, 70, 92
2, 434272, Note_on_c, 0, 70, 0
2, 434272, Note_on_c, 0, 62, 0
2, 434304, Note_on_c, 0, 70, 92
2, 434304, Note_on_c, 0, 62, 92
2, 434400, Note_on_c, 0, 62, 0
2, 434400, Note_on_c, 0, 70, 0
2, 434432, Note_on_c, 0, 64, 92
2, 434432, Note_on_c, 0, 61, 92
2, 434528, Note_on_c, 0, 61, 0
2, 434528, Note_on_c, 0, 64, 0
2, 434560, Note_on_c, 0, 62, 92
2, 434560, Note_on_c, 0, 65, 92
2, 434656, Note_on_c, 0, 65, 0
2, 434656, Note_on_c, 0, 62, 0
2, 434784, Note_on_c, 0, 65, 92
2, 434848, Note_on_c, 0, 65, 0
2, 434880, Note_on_c, 0, 67, 92
2, 434944, Note_on_c, 0, 67, 0
2, 434976, Note_on_c, 0, 69, 92
2, 435040, Note_on_c, 0, 69, 0
2, 435072, Note_on_c, 0, 70, 92
2, 435136, Note_on_c, 0, 70, 0
2, 435168, Note_on_c, 0, 72, 92
2, 435232, Note_on_c, 0, 72, 0
2, 435264, Note_on_c, 0, 74, 92
2, 435328, Note_on_c, 0, 74, 0
2, 435360, Note_on_c, 0, 75, 92
2, 435424, Note_on_c, 0, 75, 0
2, 435456, Note_on_c, 0, 77, 92
2, 435520, Note_on_c, 0, 77, 0
2, 435552, Note_on_c, 0, 79, 92
2, 435616, Note_on_c, 0, 79, 0
2, 435648, Note_on_c, 0, 81, 92
2, 435712, Note_on_c, 0, 81, 0
2, 435744, Note_on_c, 0, 82, 92
2, 435808, Note_on_c, 0, 82, 0
2, 435840, Note_on_c, 0, 84, 92
2, 435904, Note_on_c, 0, 84, 0
2, 435936, Note_on_c, 0, 86, 92
2, 436000, Note_on_c, 0, 86, 0
2, 436032, Note_on_c, 0, 87, 92
2, 436096, Note_on_c, 0, 87, 0
2, 436128, Note_on_c, 0, 89, 92
2, 436192, Note_on_c, 0, 89, 0
2, 436224, Note_on_c, 0, 84, 92
2, 436268, Note_on_c, 0, 84, 0
2, 436272, Note_on_c, 0, 86, 92
2, 436316, Note_on_c, 0, 86, 0
2, 436320, Note_on_c, 0, 84, 92
2, 436364, Note_on_c, 0, 84, 0
2, 436368, Note_on_c, 0, 86, 92
2, 436412, Note_on_c, 0, 86, 0
2, 436416, Note_on_c, 0, 84, 92
2, 436460, Note_on_c, 0, 84, 0
2, 436464, Note_on_c, 0, 86, 92
2, 436508, Note_on_c, 0, 86, 0
2, 436512, Note_on_c, 0, 84, 92
2, 436556, Note_on_c, 0, 84, 0
2, 436560, Note_on_c, 0, 86, 92
2, 436604, Note_on_c, 0, 86, 0
2, 436608, Note_on_c, 0, 84, 92
2, 436652, Note_on_c, 0, 84, 0
2, 436656, Note_on_c, 0, 86, 92
2, 436700, Note_on_c, 0, 86, 0
2, 436704, Note_on_c, 0, 84, 92
2, 436748, Note_on_c, 0, 84, 0
2, 436752, Note_on_c, 0, 86, 92
2, 436796, Note_on_c, 0, 86, 0
2, 436800, Note_on_c, 0, 84, 92
2, 436844, Note_on_c, 0, 84, 0
2, 436848, Note_on_c, 0, 86, 92
2, 436892, Note_on_c, 0, 86, 0
2, 436896, Note_on_c, 0, 84, 92
2, 436940, Note_on_c, 0, 84, 0
2, 436944, Note_on_c, 0, 86, 92
2, 436988, Note_on_c, 0, 86, 0
2, 436992, Note_on_c, 0, 84, 92
2, 437036, Note_on_c, 0, 84, 0
2, 437040, Note_on_c, 0, 86, 92
2, 437084, Note_on_c, 0, 86, 0
2, 437088, Note_on_c, 0, 84, 92
2, 437132, Note_on_c, 0, 84, 0
2, 437136, Note_on_c, 0, 86, 92
2, 437180, Note_on_c, 0, 86, 0
2, 437184, Note_on_c, 0, 84, 92
2, 437228, Note_on_c, 0, 84, 0
2, 437232, Note_on_c, 0, 86, 92
2, 437276, Note_on_c, 0, 86, 0
2, 437280, Note_on_c, 0, 84, 92
2, 437324, Note_on_c, 0, 84, 0
2, 437328, Note_on_c, 0, 86, 92
2, 437372, Note_on_c, 0, 86, 0
2, 437376, Note_on_c, 0, 84, 92
2, 437420, Note_on_c, 0, 84, 0
2, 437424, Note_on_c, 0, 86, 92
2, 437468, Note_on_c, 0, 86, 0
2, 437472, Note_on_c, 0, 84, 92
2, 437516, Note_on_c, 0, 84, 0
2, 437520, Note_on_c, 0, 86, 92
2, 437564, Note_on_c, 0, 86, 0
2, 437568, Note_on_c, 0, 84, 92
2, 437612, Note_on_c, 0, 84, 0
2, 437616, Note_on_c, 0, 86, 92
2, 437660, Note_on_c, 0, 86, 0
2, 437664, Note_on_c, 0, 82, 92
2, 437708, Note_on_c, 0, 82, 0
2, 437712, Note_on_c, 0, 84, 92
2, 437756, Note_on_c, 0, 84, 0
2, 437760, Note_on_c, 0, 82, 92
2, 438140, Note_on_c, 0, 82, 0
2, 453120, Note_on_c, 0, 74, 108
2, 453120, Note_on_c, 0, 70, 108
2, 453120, Note_on_c, 0, 65, 108
2, 454652, Note_on_c, 0, 65, 0
2, 454652, Note_on_c, 0, 70, 0
2, 454652, Note_on_c, 0, 74, 0
2, 454656, Note_on_c, 0, 77, 101
2, 454784, Note_on_c, 0, 77, 0
2, 455040, Note_on_c, 0, 77, 101
2, 455420, Note_on_c, 0, 77, 0
2, 455616, Note_on_c, 0, 77, 101
2, 455660, Note_on_c, 0, 77, 0
2, 455664, Note_on_c, 0, 79, 101
2, 455708, Note_on_c, 0, 79, 0
2, 455712, Note_on_c, 0, 76, 101
2, 455756, Note_on_c, 0, 76, 0
2, 455760, Note_on_c, 0, 77, 101
2, 455804, Note_on_c, 0, 77, 0
2, 455808, Note_on_c, 0, 82, 101
2, 455936, Note_on_c, 0, 82, 0
2, 456000, Note_on_c, 0, 77, 101
2, 456128, Note_on_c, 0, 77, 0
2, 456192, Note_on_c, 0, 75, 101
2, 456320, Note_on_c, 0, 75, 0
2, 456384, Note_on_c, 0, 74, 101
2, 456512, Note_on_c, 0, 74, 0
2, 456576, Note_on_c, 0, 74, 101
2, 456956, Note_on_c, 0, 74, 0
2, 457152, Note_on_c, 0, 74, 101
2, 457196, Note_on_c, 0, 74, 0
2, 457200, Note_on_c, 0, 75, 101
2, 457244, Note_on_c, 0, 75, 0
2, 457248, Note_on_c, 0, 72, 101
2, 457292, Note_on_c, 0, 72, 0
2, 457296, Note_on_c, 0, 74, 101
2, 457340, Note_on_c, 0, 74, 0
2, 457344, Note_on_c, 0, 77, 101
2, 457472, Note_on_c, 0, 77, 0
2, 457536, Note_on_c, 0, 70, 101
2, 457664, Note_on_c, 0, 70, 0
2, 457728, Note_on_c, 0, 70, 101
2, 457856, Note_on_c, 0, 70, 0
2, 457920, Note_on_c, 0, 69, 101
2, 458048, Note_on_c, 0, 69, 0
2, 458112, Note_on_c, 0, 87, 110
2, 458624, Note_on_c, 0, 87, 0
2, 458880, Note_on_c, 0, 86, 101
2, 458944, Note_on_c, 0, 86, 0
2, 458976, Note_on_c, 0, 84, 101
2, 459040, Note_on_c, 0, 84, 0
2, 459072, Note_on_c, 0, 82, 101
2, 459136, Note_on_c, 0, 82, 0
2, 459168, Note_on_c, 0, 81, 101
2, 459232, Note_on_c, 0, 81, 0
2, 459264, Note_on_c, 0, 79, 101
2, 459392, Note_on_c, 0, 79, 0
2, 459456, Note_on_c, 0, 77, 101
2, 459584, Note_on_c, 0, 77, 0
2, 459648, Note_on_c, 0, 77, 101
2, 460028, Note_on_c, 0, 77, 0
2, 460224, Note_on_c, 0, 78, 101
2, 460352, Note_on_c, 0, 78, 0
2, 460416, Note_on_c, 0, 79, 101
2, 460544, Note_on_c, 0, 79, 0
2, 460608, Note_on_c, 0, 75, 101
2, 460736, Note_on_c, 0, 75, 0
2, 460800, Note_on_c, 0, 74, 110
2, 460864, Note_on_c, 0, 74, 0
2, 460864, Note_on_c, 0, 77, 110
2, 460988, Note_on_c, 0, 77, 0
2, 461184, Note_on_c, 0, 77, 101
2, 461756, Note_on_c, 0, 77, 0
2, 461760, Note_on_c, 0, 77, 101
2, 461804, Note_on_c, 0, 77, 0
2, 461808, Note_on_c, 0, 79, 101
2, 461852, Note_on_c, 0, 79, 0
2, 461856, Note_on_c, 0, 75, 101
2, 461900, Note_on_c, 0, 75, 0
2, 461904, Note_on_c, 0, 77, 101
2, 461948, Note_on_c, 0, 77, 0
2, 461952, Note_on_c, 0, 82, 101
2, 462080, Note_on_c, 0, 82, 0
2, 462144, Note_on_c, 0, 77, 101
2, 462272, Note_on_c, 0, 77, 0
2, 462336, Note_on_c, 0, 75, 101
2, 462464, Note_on_c, 0, 75, 0
2, 462528, Note_on_c, 0, 74, 101
2, 462656, Note_on_c, 0, 74, 0
2, 462720, Note_on_c, 0, 74, 101
2, 463292, Note_on_c, 0, 74, 0
2, 463296, Note_on_c, 0, 74, 101
2, 463340, Note_on_c, 0, 74, 0
2, 463344, Note_on_c, 0, 75, 101
2, 463388, Note_on_c, 0, 75, 0
2, 463392, Note_on_c, 0, 72, 101
2, 463436, Note_on_c, 0, 72, 0
2, 463440, Note_on_c, 0, 74, 101
2, 463484, Note_on_c, 0, 74, 0
2, 463488, Note_on_c, 0, 77, 101
2, 463488, Note_on_c, 0, 77, 101
2, 463616, Note_on_c, 0, 77, 0
2, 463616, Note_on_c, 0, 77, 0
2, 463680, Note_on_c, 0, 70, 101
2, 463808, Note_on_c, 0, 70, 0
2, 463872, Note_on_c, 0, 70, 101
2, 464000, Note_on_c, 0, 70, 0
2, 464048, Note_on_c, 0, 69, 101
2, 464176, Note_on_c, 0, 69, 0
2, 464256, Note_on_c, 0, 87, 110
2, 464768, Note_on_c, 0, 87, 0
2, 465024, Note_on_c, 0, 86, 101
2, 465088, Note_on_c, 0, 86, 0
2, 465120, Note_on_c, 0, 84, 101
2, 465184, Note_on_c, 0, 84, 0
2, 465216, Note_on_c, 0, 82, 101
2, 465280, Note_on_c, 0, 82, 0
2, 465312, Note_on_c, 0, 81, 101
2, 465376, Note_on_c, 0, 81, 0
2, 465408, Note_on_c, 0, 79, 101
2, 465472, Note_on_c, 0, 79, 0
2, 465504, Note_on_c, 0, 77, 101
2, 465568, Note_on_c, 0, 77, 0
2, 465600, Note_on_c, 0, 76, 101
2, 465664, Note_on_c, 0, 76, 0
2, 465696, Note_on_c, 0, 77, 101
2, 465760, Note_on_c, 0, 77, 0
2, 465792, Note_on_c, 0, 76, 101
2, 465856, Note_on_c, 0, 76, 0
2, 465888, Note_on_c, 0, 77, 101
2, 465952, Note_on_c, 0, 77, 0
2, 465984, Note_on_c, 0, 76, 101
2, 466048, Note_on_c, 0, 76, 0
2, 466080, Note_on_c, 0, 77, 101
2, 466144, Note_on_c, 0, 77, 0
2, 466176, Note_on_c, 0, 76, 101
2, 466240, Note_on_c, 0, 76, 0
2, 466272, Note_on_c, 0, 77, 101
2, 466336, Note_on_c, 0, 77, 0
2, 466352, Note_on_c, 0, 76, 101
2, 466416, Note_on_c, 0, 76, 0
2, 466464, Note_on_c, 0, 77, 101
2, 466528, Note_on_c, 0, 77, 0
2, 466560, Note_on_c, 0, 76, 101
2, 466624, Note_on_c, 0, 76, 0
2, 466656, Note_on_c, 0, 77, 101
2, 466720, Note_on_c, 0, 77, 0
2, 466752, Note_on_c, 0, 79, 101
2, 466816, Note_on_c, 0, 79, 0
2, 466848, Note_on_c, 0, 75, 101
2, 466912, Note_on_c, 0, 75, 0
2, 466944, Note_on_c, 0, 74, 110
2, 467324, Note_on_c, 0, 74, 0
2, 467520, Note_on_c, 0, 86, 102
2, 467520, Note_on_c, 0, 82, 102
2, 467648, Note_on_c, 0, 86, 0
2, 467712, Note_on_c, 0, 82, 101
2, 467900, Note_on_c, 0, 82, 0
2, 467904, Note_on_c, 0, 81, 101
2, 468032, Note_on_c, 0, 81, 0
2, 468092, Note_on_c, 0, 82, 0
2, 468288, Note_on_c, 0, 72, 101
2, 468288, Note_on_c, 0, 69, 101
2, 468416, Note_on_c, 0, 69, 0
2, 468416, Note_on_c, 0, 72, 0
2, 468480, Note_on_c, 0, 70, 101
2, 468480, Note_on_c, 0, 69, 101
2, 468608, Note_on_c, 0, 69, 0
2, 468672, Note_on_c, 0, 67, 101
2, 468800, Note_on_c, 0, 67, 0
2, 468860, Note_on_c, 0, 70, 0
2, 469056, Note_on_c, 0, 82, 101
2, 469056, Note_on_c, 0, 79, 101
2, 469184, Note_on_c, 0, 82, 0
2, 469248, Note_on_c, 0, 81, 101
2, 469436, Note_on_c, 0, 79, 0
2, 469440, Note_on_c, 0, 77, 101
2, 469568, Note_on_c, 0, 77, 0
2, 469628, Note_on_c, 0, 81, 0
2, 469824, Note_on_c, 0, 69, 101
2, 469824, Note_on_c, 0, 65, 101
2, 469952, Note_on_c, 0, 65, 0
2, 469952, Note_on_c, 0, 69, 0
2, 470016, Note_on_c, 0, 67, 101
2, 470016, Note_on_c, 0, 65, 101
2, 470144, Note_on_c, 0, 65, 0
2, 470208, Note_on_c, 0, 63, 101
2, 470336, Note_on_c, 0, 63, 0
2, 470396, Note_on_c, 0, 67, 0
2, 470592, Note_on_c, 0, 79, 101
2, 470592, Note_on_c, 0, 75, 101
2, 470720, Note_on_c, 0, 79, 0
2, 470784, Note_on_c, 0, 77, 101
2, 470972, Note_on_c, 0, 75, 0
2, 470976, Note_on_c, 0, 74, 101
2, 471104, Note_on_c, 0, 74, 0
2, 471164, Note_on_c, 0, 77, 0
2, 471360, Note_on_c, 0, 77, 101
2, 471488, Note_on_c, 0, 77, 0
2, 471552, Note_on_c, 0, 77, 101
2, 471616, Note_on_c, 0, 77, 0
2, 471648, Note_on_c, 0, 75, 101
2, 471712, Note_on_c, 0, 75, 0
2, 471744, Note_on_c, 0, 79, 101
2, 471808, Note_on_c, 0, 79, 0
2, 471840, Note_on_c, 0, 77, 101
2, 471904, Note_on_c, 0, 77, 0
2, 471936, Note_on_c, 0, 75, 101
2, 472000, Note_on_c, 0, 75, 0
2, 472032, Note_on_c, 0, 74, 101
2, 472096, Note_on_c, 0, 74, 0
2, 472128, Note_on_c, 0, 72, 101
2, 472192, Note_on_c, 0, 72, 0
2, 472224, Note_on_c, 0, 70, 101
2, 472288, Note_on_c, 0, 70, 0
2, 472320, Note_on_c, 0, 70, 101
2, 472384, Note_on_c, 0, 70, 0
2, 472416, Note_on_c, 0, 69, 101
2, 472480, Note_on_c, 0, 69, 0
2, 472512, Note_on_c, 0, 72, 101
2, 472576, Note_on_c, 0, 72, 0
2, 472608, Note_on_c, 0, 70, 101
2, 472672, Note_on_c, 0, 70, 0
2, 472704, Note_on_c, 0, 69, 101
2, 472768, Note_on_c, 0, 69, 0
2, 472800, Note_on_c, 0, 67, 101
2, 472864, Note_on_c, 0, 67, 0
2, 472896, Note_on_c, 0, 65, 101
2, 472960, Note_on_c, 0, 65, 0
2, 472992, Note_on_c, 0, 63, 101
2, 472992, Note_on_c, 0, 63, 101
2, 473056, Note_on_c, 0, 63, 0
2, 473056, Note_on_c, 0, 63, 0
2, 473088, Note_on_c, 0, 62, 101
2, 473152, Note_on_c, 0, 62, 0
2, 473184, Note_on_c, 0, 65, 101
2, 473248, Note_on_c, 0, 65, 0
2, 473280, Note_on_c, 0, 63, 101
2, 473344, Note_on_c, 0, 63, 0
2, 473376, Note_on_c, 0, 62, 101
2, 473440, Note_on_c, 0, 62, 0
2, 473472, Note_on_c, 0, 63, 101
2, 473536, Note_on_c, 0, 63, 0
2, 473568, Note_on_c, 0, 65, 101
2, 473632, Note_on_c, 0, 65, 0
2, 473664, Note_on_c, 0, 67, 101
2, 473728, Note_on_c, 0, 67, 0
2, 473760, Note_on_c, 0, 69, 101
2, 473824, Note_on_c, 0, 69, 0
2, 473856, Note_on_c, 0, 70, 101
2, 473920, Note_on_c, 0, 70, 0
2, 473952, Note_on_c, 0, 72, 101
2, 474016, Note_on_c, 0, 72, 0
2, 474048, Note_on_c, 0, 70, 101
2, 474112, Note_on_c, 0, 70, 0
2, 474144, Note_on_c, 0, 69, 101
2, 474208, Note_on_c, 0, 69, 0
2, 474240, Note_on_c, 0, 70, 101
2, 474304, Note_on_c, 0, 70, 0
2, 474336, Note_on_c, 0, 72, 101
2, 474400, Note_on_c, 0, 72, 0
2, 474432, Note_on_c, 0, 74, 101
2, 474496, Note_on_c, 0, 74, 0
2, 474528, Note_on_c, 0, 75, 101
2, 474592, Note_on_c, 0, 75, 0
2, 474624, Note_on_c, 0, 58, 101
2, 474624, Note_on_c, 0, 77, 110
2, 474752, Note_on_c, 0, 58, 0
2, 474816, Note_on_c, 0, 65, 101
2, 474944, Note_on_c, 0, 65, 0
2, 475004, Note_on_c, 0, 77, 0
2, 475008, Note_on_c, 0, 65, 101
2, 475008, Note_on_c, 0, 74, 110
2, 475136, Note_on_c, 0, 65, 0
2, 475200, Note_on_c, 0, 65, 105
2, 475328, Note_on_c, 0, 65, 0
2, 475392, Note_on_c, 0, 62, 101
2, 475520, Note_on_c, 0, 62, 0
2, 475584, Note_on_c, 0, 65, 101
2, 475712, Note_on_c, 0, 65, 0
2, 475772, Note_on_c, 0, 74, 0
2, 475776, Note_on_c, 0, 65, 101
2, 475776, Note_on_c, 0, 70, 105
2, 475904, Note_on_c, 0, 65, 0
2, 475968, Note_on_c, 0, 65, 101
2, 476096, Note_on_c, 0, 65, 0
2, 476156, Note_on_c, 0, 70, 0
2, 476160, Note_on_c, 0, 63, 101
2, 476160, Note_on_c, 0, 70, 105
2, 476252, Note_on_c, 0, 70, 0
2, 476288, Note_on_c, 0, 63, 0
2, 476352, Note_on_c, 0, 65, 101
2, 476352, Note_on_c, 0, 69, 104
2, 476444, Note_on_c, 0, 69, 0
2, 476480, Note_on_c, 0, 65, 0
2, 476544, Note_on_c, 0, 65, 101
2, 476544, Note_on_c, 0, 75, 105
2, 476672, Note_on_c, 0, 65, 0
2, 476736, Note_on_c, 0, 65, 101
2, 476864, Note_on_c, 0, 65, 0
2, 476924, Note_on_c, 0, 75, 0
2, 476928, Note_on_c, 0, 60, 101
2, 477056, Note_on_c, 0, 60, 0
2, 477120, Note_on_c, 0, 65, 101
2, 477248, Note_on_c, 0, 65, 0
2, 477312, Note_on_c, 0, 65, 101
2, 477312, Note_on_c, 0, 87, 110
2, 477312, Note_on_c, 0, 75, 101
2, 477440, Note_on_c, 0, 65, 0
2, 477504, Note_on_c, 0, 65, 101
2, 477632, Note_on_c, 0, 65, 0
2, 477692, Note_on_c, 0, 75, 0
2, 477692, Note_on_c, 0, 87, 0
2, 477696, Note_on_c, 0, 57, 101
2, 477824, Note_on_c, 0, 57, 0
2, 477888, Note_on_c, 0, 65, 101
2, 478016, Note_on_c, 0, 65, 0
2, 478080, Note_on_c, 0, 65, 101
2, 478080, Note_on_c, 0, 72, 101
2, 478080, Note_on_c, 0, 84, 110
2, 478208, Note_on_c, 0, 65, 0
2, 478272, Note_on_c, 0, 65, 101
2, 478400, Note_on_c, 0, 65, 0
2, 478464, Note_on_c, 0, 63, 101
2, 478592, Note_on_c, 0, 63, 0
2, 478656, Note_on_c, 0, 65, 101
2, 478784, Note_on_c, 0, 65, 0
2, 478844, Note_on_c, 0, 84, 0
2, 478844, Note_on_c, 0, 72, 0
2, 478848, Note_on_c, 0, 65, 101
2, 478848, Note_on_c, 0, 81, 110
2, 478848, Note_on_c, 0, 69, 101
2, 478976, Note_on_c, 0, 65, 0
2, 479040, Note_on_c, 0, 65, 101
2, 479168, Note_on_c, 0, 65, 0
2, 479228, Note_on_c, 0, 69, 0
2, 479228, Note_on_c, 0, 81, 0
2, 479232, Note_on_c, 0, 62, 101
2, 479232, Note_on_c, 0, 81, 101
2, 479232, Note_on_c, 0, 69, 101
2, 479324, Note_on_c, 0, 69, 0
2, 479324, Note_on_c, 0, 81, 0
2, 479360, Note_on_c, 0, 62, 0
2, 479424, Note_on_c, 0, 65, 101
2, 479424, Note_on_c, 0, 82, 101
2, 479424, Note_on_c, 0, 70, 101
2, 479516, Note_on_c, 0, 70, 0
2, 479516, Note_on_c, 0, 82, 0
2, 479552, Note_on_c, 0, 65, 0
2, 479616, Note_on_c, 0, 65, 101
2, 479616, Note_on_c, 0, 77, 101
2, 479616, Note_on_c, 0, 89, 101
2, 479744, Note_on_c, 0, 65, 0
2, 479808, Note_on_c, 0, 65, 101
2, 479936, Note_on_c, 0, 65, 0
2, 479996, Note_on_c, 0, 89, 0
2, 479996, Note_on_c, 0, 77, 0
2, 480000, Note_on_c, 0, 58, 101
2, 480256, Note_on_c, 0, 58, 0
2, 480384, Note_on_c, 0, 75, 101
2, 480764, Note_on_c, 0, 75, 0
2, 480768, Note_on_c, 0, 75, 101
2, 480860, Note_on_c, 0, 75, 0
2, 480960, Note_on_c, 0, 74, 101
2, 481052, Note_on_c, 0, 74, 0
2, 481152, Note_on_c, 0, 82, 101
2, 481532, Note_on_c, 0, 82, 0
2, 481920, Note_on_c, 0, 77, 101
2, 482300, Note_on_c, 0, 77, 0
2, 482304, Note_on_c, 0, 77, 101
2, 482396, Note_on_c, 0, 77, 0
2, 482496, Note_on_c, 0, 75, 101
2, 482588, Note_on_c, 0, 75, 0
2, 482688, Note_on_c, 0, 82, 101
2, 483068, Note_on_c, 0, 82, 0
2, 483456, Note_on_c, 0, 77, 101
2, 483836, Note_on_c, 0, 77, 0
2, 483840, Note_on_c, 0, 77, 101
2, 483932, Note_on_c, 0, 77, 0
2, 484032, Note_on_c, 0, 76, 101
2, 484124, Note_on_c, 0, 76, 0
2, 484224, Note_on_c, 0, 85, 110
2, 484604, Note_on_c, 0, 85, 0
2, 485184, Note_on_c, 0, 76, 101
2, 485372, Note_on_c, 0, 76, 0
2, 485376, Note_on_c, 0, 86, 110
2, 485756, Note_on_c, 0, 86, 0
2, 485952, Note_on_c, 0, 77, 101
2, 486140, Note_on_c, 0, 77, 0
2, 486144, Note_on_c, 0, 87, 110
2, 486908, Note_on_c, 0, 87, 0
2, 486912, Note_on_c, 0, 87, 105
2, 486956, Note_on_c, 0, 87, 0
2, 486960, Note_on_c, 0, 86, 104
2, 487004, Note_on_c, 0, 86, 0
2, 487008, Note_on_c, 0, 84, 102
2, 487052, Note_on_c, 0, 84, 0
2, 487056, Note_on_c, 0, 82, 101
2, 487100, Note_on_c, 0, 82, 0
2, 487104, Note_on_c, 0, 81, 101
2, 487148, Note_on_c, 0, 81, 0
2, 487152, Note_on_c, 0, 82, 101
2, 487196, Note_on_c, 0, 82, 0
2, 487200, Note_on_c, 0, 84, 101
2, 487244, Note_on_c, 0, 84, 0
2, 487248, Note_on_c, 0, 82, 101
2, 487292, Note_on_c, 0, 82, 0
2, 487296, Note_on_c, 0, 81, 101
2, 487340, Note_on_c, 0, 81, 0
2, 487344, Note_on_c, 0, 79, 101
2, 487388, Note_on_c, 0, 79, 0
2, 487392, Note_on_c, 0, 77, 101
2, 487436, Note_on_c, 0, 77, 0
2, 487440, Note_on_c, 0, 76, 101
2, 487484, Note_on_c, 0, 76, 0
2, 487488, Note_on_c, 0, 77, 101
2, 487532, Note_on_c, 0, 77, 0
2, 487536, Note_on_c, 0, 78, 101
2, 487580, Note_on_c, 0, 78, 0
2, 487584, Note_on_c, 0, 79, 101
2, 487628, Note_on_c, 0, 79, 0
2, 487632, Note_on_c, 0, 77, 101
2, 487676, Note_on_c, 0, 77, 0
2, 487680, Note_on_c, 0, 75, 101
2, 487724, Note_on_c, 0, 75, 0
2, 487728, Note_on_c, 0, 74, 101
2, 487772, Note_on_c, 0, 74, 0
2, 487776, Note_on_c, 0, 72, 101
2, 487820, Note_on_c, 0, 72, 0
2, 487824, Note_on_c, 0, 70, 101
2, 487868, Note_on_c, 0, 70, 0
2, 487872, Note_on_c, 0, 69, 101
2, 487916, Note_on_c, 0, 69, 0
2, 487920, Note_on_c, 0, 70, 101
2, 487964, Note_on_c, 0, 70, 0
2, 487968, Note_on_c, 0, 72, 101
2, 488012, Note_on_c, 0, 72, 0
2, 488016, Note_on_c, 0, 70, 101
2, 488060, Note_on_c, 0, 70, 0
2, 488064, Note_on_c, 0, 69, 101
2, 488108, Note_on_c, 0, 69, 0
2, 488112, Note_on_c, 0, 67, 101
2, 488156, Note_on_c, 0, 67, 0
2, 488160, Note_on_c, 0, 65, 101
2, 488204, Note_on_c, 0, 65, 0
2, 488208, Note_on_c, 0, 64, 101
2, 488252, Note_on_c, 0, 64, 0
2, 488256, Note_on_c, 0, 65, 101
2, 488300, Note_on_c, 0, 65, 0
2, 488304, Note_on_c, 0, 66, 101
2, 488348, Note_on_c, 0, 66, 0
2, 488352, Note_on_c, 0, 67, 101
2, 488396, Note_on_c, 0, 67, 0
2, 488400, Note_on_c, 0, 65, 101
2, 488444, Note_on_c, 0, 65, 0
2, 488448, Note_on_c, 0, 63, 101
2, 488492, Note_on_c, 0, 63, 0
2, 488496, Note_on_c, 0, 62, 101
2, 488540, Note_on_c, 0, 62, 0
2, 488544, Note_on_c, 0, 60, 101
2, 488588, Note_on_c, 0, 60, 0
2, 488592, Note_on_c, 0, 58, 101
2, 488636, Note_on_c, 0, 58, 0
2, 492096, Note_on_c, 0, 62, 101
2, 492140, Note_on_c, 0, 62, 0
2, 492144, Note_on_c, 0, 63, 101
2, 492188, Note_on_c, 0, 63, 0
2, 492192, Note_on_c, 0, 65, 101
2, 492236, Note_on_c, 0, 65, 0
2, 492240, Note_on_c, 0, 67, 101
2, 492284, Note_on_c, 0, 67, 0
2, 492288, Note_on_c, 0, 69, 101
2, 492332, Note_on_c, 0, 69, 0
2, 492336, Note_on_c, 0, 70, 101
2, 492380, Note_on_c, 0, 70, 0
2, 492384, Note_on_c, 0, 72, 101
2, 492428, Note_on_c, 0, 72, 0
2, 492432, Note_on_c, 0, 74, 101
2, 492476, Note_on_c, 0, 74, 0
2, 492480, Note_on_c, 0, 75, 101
2, 492524, Note_on_c, 0, 75, 0
2, 492528, Note_on_c, 0, 77, 101
2, 492572, Note_on_c, 0, 77, 0
2, 492576, Note_on_c, 0, 79, 101
2, 492620, Note_on_c, 0, 79, 0
2, 492624, Note_on_c, 0, 81, 101
2, 492668, Note_on_c, 0, 81, 0
2, 492672, Note_on_c, 0, 82, 101
2, 492716, Note_on_c, 0, 82, 0
2, 492720, Note_on_c, 0, 84, 101
2, 492764, Note_on_c, 0, 84, 0
2, 492768, Note_on_c, 0, 86, 101
2, 492812, Note_on_c, 0, 86, 0
2, 492816, Note_on_c, 0, 87, 101
2, 492860, Note_on_c, 0, 87, 0
2, 492864, Note_on_c, 0, 89, 101
2, 493052, Note_on_c, 0, 89, 0
2, 493056, Note_on_c, 0, 62, 105
2, 493148, Note_on_c, 0, 62, 0
2, 493152, Note_on_c, 0, 62, 105
2, 493344, Note_on_c, 0, 62, 0
2, 493344, Note_on_c, 0, 60, 105
2, 493388, Note_on_c, 0, 60, 0
2, 493392, Note_on_c, 0, 62, 105
2, 493436, Note_on_c, 0, 62, 0
2, 493440, Note_on_c, 0, 60, 113
2, 493820, Note_on_c, 0, 60, 0
2, 493872, Note_on_c, 0, 60, 101
2, 493916, Note_on_c, 0, 60, 0
2, 493920, Note_on_c, 0, 62, 101
2, 493964, Note_on_c, 0, 62, 0
2, 493968, Note_on_c, 0, 60, 101
2, 494012, Note_on_c, 0, 60, 0
2, 494016, Note_on_c, 0, 59, 101
2, 494060, Note_on_c, 0, 59, 0
2, 494064, Note_on_c, 0, 60, 101
2, 494108, Note_on_c, 0, 60, 0
2, 494112, Note_on_c, 0, 61, 101
2, 494156, Note_on_c, 0, 61, 0
2, 494160, Note_on_c, 0, 62, 101
2, 494204, Note_on_c, 0, 62, 0
2, 494208, Note_on_c, 0, 63, 101
2, 494252, Note_on_c, 0, 63, 0
2, 494256, Note_on_c, 0, 64, 101
2, 494300, Note_on_c, 0, 64, 0
2, 494304, Note_on_c, 0, 65, 101
2, 494348, Note_on_c, 0, 65, 0
2, 494352, Note_on_c, 0, 66, 101
2, 494396, Note_on_c, 0, 66, 0
2, 494400, Note_on_c, 0, 67, 101
2, 494444, Note_on_c, 0, 67, 0
2, 494448, Note_on_c, 0, 68, 101
2, 494492, Note_on_c, 0, 68, 0
2, 494496, Note_on_c, 0, 69, 101
2, 494540, Note_on_c, 0, 69, 0
2, 494544, Note_on_c, 0, 70, 101
2, 494588, Note_on_c, 0, 70, 0
2, 494592, Note_on_c, 0, 71, 101
2, 494636, Note_on_c, 0, 71, 0
2, 494640, Note_on_c, 0, 72, 101
2, 494684, Note_on_c, 0, 72, 0
2, 494688, Note_on_c, 0, 73, 101
2, 494732, Note_on_c, 0, 73, 0
2, 494736, Note_on_c, 0, 74, 101
2, 494780, Note_on_c, 0, 74, 0
2, 494784, Note_on_c, 0, 75, 101
2, 494828, Note_on_c, 0, 75, 0
2, 494832, Note_on_c, 0, 76, 101
2, 494876, Note_on_c, 0, 76, 0
2, 494880, Note_on_c, 0, 77, 101
2, 494924, Note_on_c, 0, 77, 0
2, 494928, Note_on_c, 0, 78, 101
2, 494972, Note_on_c, 0, 78, 0
2, 494976, Note_on_c, 0, 79, 101
2, 495020, Note_on_c, 0, 79, 0
2, 495024, Note_on_c, 0, 80, 101
2, 495068, Note_on_c, 0, 80, 0
2, 495072, Note_on_c, 0, 81, 101
2, 495116, Note_on_c, 0, 81, 0
2, 495120, Note_on_c, 0, 82, 101
2, 495164, Note_on_c, 0, 82, 0
2, 495168, Note_on_c, 0, 83, 101
2, 495212, Note_on_c, 0, 83, 0
2, 495216, Note_on_c, 0, 84, 101
2, 495260, Note_on_c, 0, 84, 0
2, 495264, Note_on_c, 0, 85, 101
2, 495308, Note_on_c, 0, 85, 0
2, 495312, Note_on_c, 0, 86, 101
2, 495356, Note_on_c, 0, 86, 0
2, 495360, Note_on_c, 0, 87, 110
2, 495548, Note_on_c, 0, 87, 0
2, 495648, Note_on_c, 0, 84, 101
2, 495712, Note_on_c, 0, 84, 0
2, 495744, Note_on_c, 0, 87, 110
2, 495836, Note_on_c, 0, 87, 0
2, 495888, Note_on_c, 0, 84, 101
2, 495932, Note_on_c, 0, 84, 0
2, 495936, Note_on_c, 0, 87, 110
2, 496028, Note_on_c, 0, 87, 0
2, 496080, Note_on_c, 0, 84, 101
2, 496124, Note_on_c, 0, 84, 0
2, 496128, Note_on_c, 0, 86, 110
2, 496508, Note_on_c, 0, 86, 0
2, 496512, Note_on_c, 0, 86, 101
2, 496604, Note_on_c, 0, 86, 0
2, 496640, Note_on_c, 0, 89, 101
2, 496732, Note_on_c, 0, 89, 0
2, 496768, Note_on_c, 0, 81, 101
2, 496864, Note_on_c, 0, 81, 0
2, 496896, Note_on_c, 0, 82, 101
2, 496992, Note_on_c, 0, 82, 0
2, 497024, Note_on_c, 0, 86, 101
2, 497120, Note_on_c, 0, 86, 0
2, 497152, Note_on_c, 0, 76, 101
2, 497248, Note_on_c, 0, 76, 0
2, 497280, Note_on_c, 0, 77, 101
2, 497376, Note_on_c, 0, 77, 0
2, 497408, Note_on_c, 0, 82, 101
2, 497504, Note_on_c, 0, 82, 0
2, 497536, Note_on_c, 0, 73, 101
2, 497632, Note_on_c, 0, 73, 0
2, 497664, Note_on_c, 0, 74, 101
2, 497760, Note_on_c, 0, 74, 0
2, 497792, Note_on_c, 0, 77, 101
2, 497888, Note_on_c, 0, 77, 0
2, 497920, Note_on_c, 0, 69, 101
2, 498016, Note_on_c, 0, 69, 0
2, 498048, Note_on_c, 0, 70, 101
2, 498144, Note_on_c, 0, 70, 0
2, 498176, Note_on_c, 0, 74, 101
2, 498272, Note_on_c, 0, 74, 0
2, 498304, Note_on_c, 0, 64, 101
2, 498400, Note_on_c, 0, 64, 0
2, 498432, Note_on_c, 0, 65, 101
2, 498528, Note_on_c, 0, 65, 0
2, 498560, Note_on_c, 0, 70, 101
2, 498656, Note_on_c, 0, 70, 0
2, 498688, Note_on_c, 0, 61, 101
2, 498784, Note_on_c, 0, 61, 0
2, 498816, Note_on_c, 0, 62, 101
2, 498912, Note_on_c, 0, 62, 0
2, 498944, Note_on_c, 0, 65, 101
2, 499040, Note_on_c, 0, 65, 0
2, 502272, Note_on_c, 0, 58, 101
2, 502316, Note_on_c, 0, 58, 0
2, 502320, Note_on_c, 0, 62, 101
2, 502364, Note_on_c, 0, 62, 0
2, 502368, Note_on_c, 0, 60, 101
2, 502412, Note_on_c, 0, 60, 0
2, 502416, Note_on_c, 0, 63, 101
2, 502460, Note_on_c, 0, 63, 0
2, 502464, Note_on_c, 0, 62, 101
2, 502508, Note_on_c, 0, 62, 0
2, 502512, Note_on_c, 0, 65, 101
2, 502556, Note_on_c, 0, 65, 0
2, 502560, Note_on_c, 0, 63, 101
2, 502604, Note_on_c, 0, 63, 0
2, 502608, Note_on_c, 0, 67, 101
2, 502652, Note_on_c, 0, 67, 0
2, 502656, Note_on_c, 0, 65, 101
2, 502700, Note_on_c, 0, 65, 0
2, 502704, Note_on_c, 0, 69, 101
2, 502748, Note_on_c, 0, 69, 0
2, 502752, Note_on_c, 0, 67, 101
2, 502796, Note_on_c, 0, 67, 0
2, 502800, Note_on_c, 0, 70, 101
2, 502844, Note_on_c, 0, 70, 0
2, 502848, Note_on_c, 0, 69, 101
2, 502892, Note_on_c, 0, 69, 0
2, 502896, Note_on_c, 0, 72, 101
2, 502940, Note_on_c, 0, 72, 0
2, 502944, Note_on_c, 0, 70, 101
2, 502988, Note_on_c, 0, 70, 0
2, 502992, Note_on_c, 0, 72, 101
2, 503036, Note_on_c, 0, 72, 0
2, 503040, Note_on_c, 0, 70, 101
2, 503084, Note_on_c, 0, 70, 0
2, 503088, Note_on_c, 0, 69, 101
2, 503132, Note_on_c, 0, 69, 0
2, 503136, Note_on_c, 0, 70, 101
2, 503180, Note_on_c, 0, 70, 0
2, 503184, Note_on_c, 0, 72, 101
2, 503228, Note_on_c, 0, 72, 0
2, 503232, Note_on_c, 0, 74, 101
2, 503276, Note_on_c, 0, 74, 0
2, 503280, Note_on_c, 0, 75, 101
2, 503324, Note_on_c, 0, 75, 0
2, 503328, Note_on_c, 0, 77, 101
2, 503372, Note_on_c, 0, 77, 0
2, 503376, Note_on_c, 0, 79, 101
2, 503420, Note_on_c, 0, 79, 0
2, 503424, Note_on_c, 0, 81, 101
2, 503468, Note_on_c, 0, 81, 0
2, 503472, Note_on_c, 0, 82, 101
2, 503516, Note_on_c, 0, 82, 0
2, 503520, Note_on_c, 0, 86, 101
2, 503564, Note_on_c, 0, 86, 0
2, 503568, Note_on_c, 0, 87, 101
2, 503612, Note_on_c, 0, 87, 0
2, 503616, Note_on_c, 0, 89, 101
2, 503660, Note_on_c, 0, 89, 0
2, 503664, Note_on_c, 0, 87, 101
2, 503708, Note_on_c, 0, 87, 0
2, 503712, Note_on_c, 0, 86, 101
2, 503756, Note_on_c, 0, 86, 0
2, 503760, Note_on_c, 0, 84, 101
2, 503804, Note_on_c, 0, 84, 0
2, 503808, Note_on_c, 0, 82, 101
2, 503852, Note_on_c, 0, 82, 0
2, 503856, Note_on_c, 0, 81, 101
2, 503900, Note_on_c, 0, 81, 0
2, 503904, Note_on_c, 0, 79, 101
2, 503948, Note_on_c, 0, 79, 0
2, 503952, Note_on_c, 0, 77, 101
2, 503996, Note_on_c, 0, 77, 0
2, 504000, Note_on_c, 0, 86, 101
2, 504044, Note_on_c, 0, 86, 0
2, 504048, Note_on_c, 0, 84, 101
2, 504092, Note_on_c, 0, 84, 0
2, 504096, Note_on_c, 0, 82, 101
2, 504140, Note_on_c, 0, 82, 0
2, 504144, Note_on_c, 0, 81, 101
2, 504188, Note_on_c, 0, 81, 0
2, 504192, Note_on_c, 0, 79, 101
2, 504236, Note_on_c, 0, 79, 0
2, 504240, Note_on_c, 0, 77, 101
2, 504284, Note_on_c, 0, 77, 0
2, 504288, Note_on_c, 0, 75, 101
2, 504332, Note_on_c, 0, 75, 0
2, 504336, Note_on_c, 0, 74, 101
2, 504380, Note_on_c, 0, 74, 0
2, 504384, Note_on_c, 0, 82, 101
2, 504476, Note_on_c, 0, 82, 0
2, 504480, Note_on_c, 0, 81, 110
2, 504572, Note_on_c, 0, 81, 0
2, 504576, Note_on_c, 0, 80, 107
2, 504668, Note_on_c, 0, 80, 0
2, 504672, Note_on_c, 0, 79, 105
2, 504764, Note_on_c, 0, 79, 0
2, 504768, Note_on_c, 0, 78, 104
2, 504956, Note_on_c, 0, 78, 0
2, 504960, Note_on_c, 0, 77, 102
2, 505148, Note_on_c, 0, 77, 0
2, 505152, Note_on_c, 0, 76, 101
2, 505340, Note_on_c, 0, 76, 0
2, 505344, Note_on_c, 0, 75, 105
2, 505724, Note_on_c, 0, 75, 0
2, 505728, Note_on_c, 0, 74, 104
2, 506108, Note_on_c, 0, 74, 0
2, 506112, Note_on_c, 0, 72, 102
2, 506156, Note_on_c, 0, 72, 0
2, 506160, Note_on_c, 0, 74, 101
2, 506204, Note_on_c, 0, 74, 0
2, 506208, Note_on_c, 0, 72, 101
2, 506252, Note_on_c, 0, 72, 0
2, 506256, Note_on_c, 0, 74, 101
2, 506300, Note_on_c, 0, 74, 0
2, 506304, Note_on_c, 0, 72, 101
2, 506348, Note_on_c, 0, 72, 0
2, 506352, Note_on_c, 0, 74, 101
2, 506396, Note_on_c, 0, 74, 0
2, 506400, Note_on_c, 0, 72, 101
2, 506444, Note_on_c, 0, 72, 0
2, 506448, Note_on_c, 0, 74, 101
2, 506492, Note_on_c, 0, 74, 0
2, 506496, Note_on_c, 0, 72, 101
2, 506540, Note_on_c, 0, 72, 0
2, 506544, Note_on_c, 0, 74, 101
2, 506588, Note_on_c, 0, 74, 0
2, 506592, Note_on_c, 0, 72, 101
2, 506636, Note_on_c, 0, 72, 0
2, 506640, Note_on_c, 0, 74, 101
2, 506684, Note_on_c, 0, 74, 0
2, 506688, Note_on_c, 0, 70, 101
2, 506780, Note_on_c, 0, 70, 0
2, 506784, Note_on_c, 0, 72, 101
2, 506876, Note_on_c, 0, 72, 0
2, 506880, Note_on_c, 0, 70, 101
2, 507260, Note_on_c, 0, 70, 0
2, 507260, End_track
3, 0, Start_track
3, 0, Title_t, "Concerto  #15"
3, 0, Control_c, 0, 0, 0
3, 0, Control_c, 0, 7, 110
3, 0, Control_c, 0, 10, 38
3, 0, Control_c, 0, 91, 84
3, 0, Control_c, 0, 93, 66
3, 0, Control_c, 0, 121, 0
3, 0, Control_c, 0, 32, 0
3, 1, Program_c, 0, 0
3, 96, Control_c, 0, 10, 83
3, 192, Control_c, 0, 91, 68
3, 240, Control_c, 0, 93, 40
3, 288, Program_c, 0, 0
3, 1536, Note_on_c, 0, 46, 89
3, 1916, Note_on_c, 0, 46, 0
3, 2304, Note_on_c, 0, 46, 89
3, 2684, Note_on_c, 0, 46, 0
3, 3072, Note_on_c, 0, 46, 89
3, 3452, Note_on_c, 0, 46, 0
3, 3456, Note_on_c, 0, 58, 89
3, 3836, Note_on_c, 0, 58, 0
3, 3840, Note_on_c, 0, 46, 89
3, 4220, Note_on_c, 0, 46, 0
3, 4608, Note_on_c, 0, 58, 89
3, 6140, Note_on_c, 0, 58, 0
3, 6144, Note_on_c, 0, 53, 89
3, 6524, Note_on_c, 0, 53, 0
3, 6528, Note_on_c, 0, 53, 89
3, 6908, Note_on_c, 0, 53, 0
3, 6912, Note_on_c, 0, 53, 89
3, 7292, Note_on_c, 0, 53, 0
3, 7680, Note_on_c, 0, 53, 89
3, 8060, Note_on_c, 0, 53, 0
3, 8448, Note_on_c, 0, 53, 89
3, 8828, Note_on_c, 0, 53, 0
3, 9216, Note_on_c, 0, 53, 89
3, 10748, Note_on_c, 0, 53, 0
3, 10752, Note_on_c, 0, 53, 89
3, 12284, Note_on_c, 0, 53, 0
3, 12288, Note_on_c, 0, 46, 89
3, 12668, Note_on_c, 0, 46, 0
3, 12672, Note_on_c, 0, 58, 89
3, 13052, Note_on_c, 0, 58, 0
3, 13056, Note_on_c, 0, 46, 89
3, 13436, Note_on_c, 0, 46, 0
3, 20352, Note_on_c, 0, 51, 89
3, 20480, Note_on_c, 0, 51, 0
3, 20736, Note_on_c, 0, 53, 89
3, 20864, Note_on_c, 0, 53, 0
3, 21120, Note_on_c, 0, 41, 89
3, 21248, Note_on_c, 0, 41, 0
3, 21504, Note_on_c, 0, 46, 104
3, 21632, Note_on_c, 0, 46, 0
3, 21696, Note_on_c, 0, 46, 104
3, 21824, Note_on_c, 0, 46, 0
3, 21888, Note_on_c, 0, 46, 104
3, 22016, Note_on_c, 0, 46, 0
3, 22080, Note_on_c, 0, 46, 104
3, 22208, Note_on_c, 0, 46, 0
3, 22272, Note_on_c, 0, 46, 104
3, 22400, Note_on_c, 0, 46, 0
3, 22464, Note_on_c, 0, 46, 104
3, 22592, Note_on_c, 0, 46, 0
3, 22656, Note_on_c, 0, 46, 104
3, 22784, Note_on_c, 0, 46, 0
3, 22848, Note_on_c, 0, 46, 104
3, 22976, Note_on_c, 0, 46, 0
3, 23040, Note_on_c, 0, 48, 104
3, 23168, Note_on_c, 0, 48, 0
3, 23232, Note_on_c, 0, 60, 104
3, 23360, Note_on_c, 0, 60, 0
3, 23424, Note_on_c, 0, 63, 104
3, 23552, Note_on_c, 0, 63, 0
3, 23616, Note_on_c, 0, 62, 104
3, 23744, Note_on_c, 0, 62, 0
3, 23808, Note_on_c, 0, 60, 104
3, 23936, Note_on_c, 0, 60, 0
3, 24000, Note_on_c, 0, 58, 104
3, 24128, Note_on_c, 0, 58, 0
3, 24192, Note_on_c, 0, 57, 104
3, 24320, Note_on_c, 0, 57, 0
3, 24384, Note_on_c, 0, 55, 104
3, 24512, Note_on_c, 0, 55, 0
3, 24576, Note_on_c, 0, 53, 104
3, 24704, Note_on_c, 0, 53, 0
3, 24768, Note_on_c, 0, 53, 104
3, 24896, Note_on_c, 0, 53, 0
3, 24960, Note_on_c, 0, 53, 104
3, 25088, Note_on_c, 0, 53, 0
3, 25152, Note_on_c, 0, 53, 104
3, 25280, Note_on_c, 0, 53, 0
3, 25344, Note_on_c, 0, 53, 104
3, 25472, Note_on_c, 0, 53, 0
3, 25536, Note_on_c, 0, 53, 104
3, 25664, Note_on_c, 0, 53, 0
3, 25728, Note_on_c, 0, 51, 104
3, 25856, Note_on_c, 0, 51, 0
3, 25920, Note_on_c, 0, 51, 104
3, 26048, Note_on_c, 0, 51, 0
3, 26112, Note_on_c, 0, 50, 104
3, 26240, Note_on_c, 0, 50, 0
3, 26304, Note_on_c, 0, 58, 104
3, 26432, Note_on_c, 0, 58, 0
3, 26496, Note_on_c, 0, 62, 104
3, 26624, Note_on_c, 0, 62, 0
3, 26688, Note_on_c, 0, 58, 104
3, 26816, Note_on_c, 0, 58, 0
3, 26880, Note_on_c, 0, 53, 104
3, 27008, Note_on_c, 0, 53, 0
3, 27072, Note_on_c, 0, 58, 104
3, 27200, Note_on_c, 0, 58, 0
3, 27264, Note_on_c, 0, 50, 104
3, 27392, Note_on_c, 0, 50, 0
3, 27456, Note_on_c, 0, 53, 104
3, 27584, Note_on_c, 0, 53, 0
3, 27648, Note_on_c, 0, 46, 104
3, 27776, Note_on_c, 0, 46, 0
3, 27840, Note_on_c, 0, 46, 104
3, 27968, Note_on_c, 0, 46, 0
3, 28032, Note_on_c, 0, 46, 104
3, 28160, Note_on_c, 0, 46, 0
3, 28224, Note_on_c, 0, 46, 104
3, 28352, Note_on_c, 0, 46, 0
3, 28416, Note_on_c, 0, 46, 104
3, 28544, Note_on_c, 0, 46, 0
3, 28608, Note_on_c, 0, 46, 104
3, 28736, Note_on_c, 0, 46, 0
3, 28800, Note_on_c, 0, 48, 104
3, 28928, Note_on_c, 0, 48, 0
3, 28992, Note_on_c, 0, 50, 104
3, 29120, Note_on_c, 0, 50, 0
3, 29184, Note_on_c, 0, 51, 104
3, 29312, Note_on_c, 0, 51, 0
3, 29376, Note_on_c, 0, 51, 104
3, 29504, Note_on_c, 0, 51, 0
3, 29568, Note_on_c, 0, 51, 104
3, 29696, Note_on_c, 0, 51, 0
3, 29760, Note_on_c, 0, 51, 104
3, 29888, Note_on_c, 0, 51, 0
3, 29952, Note_on_c, 0, 51, 104
3, 30080, Note_on_c, 0, 51, 0
3, 30144, Note_on_c, 0, 51, 104
3, 30272, Note_on_c, 0, 51, 0
3, 30336, Note_on_c, 0, 51, 104
3, 30464, Note_on_c, 0, 51, 0
3, 30528, Note_on_c, 0, 51, 104
3, 30656, Note_on_c, 0, 51, 0
3, 30720, Note_on_c, 0, 51, 104
3, 30848, Note_on_c, 0, 51, 0
3, 30912, Note_on_c, 0, 51, 104
3, 31040, Note_on_c, 0, 51, 0
3, 31104, Note_on_c, 0, 51, 104
3, 31232, Note_on_c, 0, 51, 0
3, 31296, Note_on_c, 0, 51, 104
3, 31424, Note_on_c, 0, 51, 0
3, 31488, Note_on_c, 0, 51, 104
3, 31616, Note_on_c, 0, 51, 0
3, 31680, Note_on_c, 0, 51, 104
3, 31808, Note_on_c, 0, 51, 0
3, 31872, Note_on_c, 0, 52, 104
3, 32000, Note_on_c, 0, 52, 0
3, 32064, Note_on_c, 0, 52, 104
3, 32192, Note_on_c, 0, 52, 0
3, 32256, Note_on_c, 0, 53, 104
3, 32384, Note_on_c, 0, 53, 0
3, 32448, Note_on_c, 0, 53, 104
3, 32576, Note_on_c, 0, 53, 0
3, 32640, Note_on_c, 0, 53, 104
3, 32768, Note_on_c, 0, 53, 0
3, 32832, Note_on_c, 0, 53, 104
3, 32960, Note_on_c, 0, 53, 0
3, 33024, Note_on_c, 0, 53, 104
3, 33152, Note_on_c, 0, 53, 0
3, 33216, Note_on_c, 0, 53, 104
3, 33344, Note_on_c, 0, 53, 0
3, 33408, Note_on_c, 0, 53, 104
3, 33536, Note_on_c, 0, 53, 0
3, 33600, Note_on_c, 0, 53, 104
3, 33728, Note_on_c, 0, 53, 0
3, 33792, Note_on_c, 0, 53, 104
3, 33920, Note_on_c, 0, 53, 0
3, 33984, Note_on_c, 0, 53, 104
3, 34112, Note_on_c, 0, 53, 0
3, 34176, Note_on_c, 0, 53, 104
3, 34304, Note_on_c, 0, 53, 0
3, 34368, Note_on_c, 0, 53, 104
3, 34496, Note_on_c, 0, 53, 0
3, 34560, Note_on_c, 0, 53, 104
3, 34688, Note_on_c, 0, 53, 0
3, 34752, Note_on_c, 0, 53, 104
3, 34880, Note_on_c, 0, 53, 0
3, 34944, Note_on_c, 0, 53, 104
3, 35072, Note_on_c, 0, 53, 0
3, 35136, Note_on_c, 0, 53, 104
3, 35264, Note_on_c, 0, 53, 0
3, 35360, Note_on_c, 0, 53, 104
3, 35488, Note_on_c, 0, 53, 0
3, 35520, Note_on_c, 0, 53, 104
3, 35648, Note_on_c, 0, 53, 0
3, 35712, Note_on_c, 0, 53, 104
3, 35840, Note_on_c, 0, 53, 0
3, 35904, Note_on_c, 0, 53, 104
3, 36032, Note_on_c, 0, 53, 0
3, 36096, Note_on_c, 0, 53, 104
3, 36224, Note_on_c, 0, 53, 0
3, 36288, Note_on_c, 0, 53, 104
3, 36416, Note_on_c, 0, 53, 0
3, 36480, Note_on_c, 0, 53, 104
3, 36608, Note_on_c, 0, 53, 0
3, 36672, Note_on_c, 0, 53, 104
3, 36800, Note_on_c, 0, 53, 0
3, 36864, Note_on_c, 0, 53, 104
3, 37244, Note_on_c, 0, 53, 0
3, 37440, Note_on_c, 0, 53, 104
3, 37568, Note_on_c, 0, 53, 0
3, 37632, Note_on_c, 0, 53, 104
3, 37760, Note_on_c, 0, 53, 0
3, 37824, Note_on_c, 0, 53, 104
3, 37952, Note_on_c, 0, 53, 0
3, 38016, Note_on_c, 0, 53, 104
3, 38144, Note_on_c, 0, 53, 0
3, 38208, Note_on_c, 0, 53, 104
3, 38336, Note_on_c, 0, 53, 0
3, 38400, Note_on_c, 0, 53, 104
3, 38912, Note_on_c, 0, 53, 0
3, 39936, Note_on_c, 0, 46, 89
3, 40316, Note_on_c, 0, 46, 0
3, 40704, Note_on_c, 0, 50, 89
3, 41084, Note_on_c, 0, 50, 0
3, 41472, Note_on_c, 0, 48, 89
3, 41852, Note_on_c, 0, 48, 0
3, 42240, Note_on_c, 0, 45, 89
3, 42620, Note_on_c, 0, 45, 0
3, 43008, Note_on_c, 0, 41, 89
3, 43388, Note_on_c, 0, 41, 0
3, 43776, Note_on_c, 0, 51, 89
3, 44156, Note_on_c, 0, 51, 0
3, 44544, Note_on_c, 0, 50, 89
3, 44924, Note_on_c, 0, 50, 0
3, 45312, Note_on_c, 0, 46, 89
3, 45692, Note_on_c, 0, 46, 0
3, 46080, Note_on_c, 0, 58, 89
3, 46460, Note_on_c, 0, 58, 0
3, 46848, Note_on_c, 0, 50, 89
3, 47228, Note_on_c, 0, 50, 0
3, 47616, Note_on_c, 0, 51, 89
3, 47996, Note_on_c, 0, 51, 0
3, 48384, Note_on_c, 0, 55, 89
3, 48764, Note_on_c, 0, 55, 0
3, 49152, Note_on_c, 0, 53, 89
3, 49532, Note_on_c, 0, 53, 0
3, 49920, Note_on_c, 0, 41, 89
3, 50300, Note_on_c, 0, 41, 0
3, 50688, Note_on_c, 0, 46, 89
3, 51068, Note_on_c, 0, 46, 0
3, 51456, Note_on_c, 0, 58, 89
3, 51836, Note_on_c, 0, 58, 0
3, 52224, Note_on_c, 0, 46, 89
3, 52604, Note_on_c, 0, 46, 0
3, 52992, Note_on_c, 0, 50, 89
3, 53372, Note_on_c, 0, 50, 0
3, 53760, Note_on_c, 0, 48, 89
3, 54140, Note_on_c, 0, 48, 0
3, 54528, Note_on_c, 0, 55, 89
3, 54908, Note_on_c, 0, 55, 0
3, 55296, Note_on_c, 0, 53, 89
3, 55676, Note_on_c, 0, 53, 0
3, 56064, Note_on_c, 0, 51, 89
3, 56444, Note_on_c, 0, 51, 0
3, 56832, Note_on_c, 0, 50, 89
3, 57212, Note_on_c, 0, 50, 0
3, 57600, Note_on_c, 0, 46, 89
3, 57980, Note_on_c, 0, 46, 0
3, 58368, Note_on_c, 0, 58, 89
3, 58748, Note_on_c, 0, 58, 0
3, 59136, Note_on_c, 0, 56, 89
3, 59516, Note_on_c, 0, 56, 0
3, 59904, Note_on_c, 0, 55, 89
3, 60284, Note_on_c, 0, 55, 0
3, 62976, Note_on_c, 0, 46, 72
3, 63104, Note_on_c, 0, 46, 0
3, 63168, Note_on_c, 0, 46, 72
3, 63296, Note_on_c, 0, 46, 0
3, 63360, Note_on_c, 0, 46, 72
3, 63488, Note_on_c, 0, 46, 0
3, 63552, Note_on_c, 0, 46, 72
3, 63680, Note_on_c, 0, 46, 0
3, 63744, Note_on_c, 0, 46, 72
3, 63872, Note_on_c, 0, 46, 0
3, 63936, Note_on_c, 0, 46, 72
3, 64064, Note_on_c, 0, 46, 0
3, 64128, Note_on_c, 0, 46, 72
3, 64256, Note_on_c, 0, 46, 0
3, 64320, Note_on_c, 0, 46, 72
3, 64448, Note_on_c, 0, 46, 0
3, 64512, Note_on_c, 0, 46, 72
3, 64640, Note_on_c, 0, 46, 0
3, 64704, Note_on_c, 0, 46, 72
3, 64832, Note_on_c, 0, 46, 0
3, 64896, Note_on_c, 0, 46, 75
3, 65024, Note_on_c, 0, 46, 0
3, 65088, Note_on_c, 0, 46, 76
3, 65216, Note_on_c, 0, 46, 0
3, 65280, Note_on_c, 0, 46, 78
3, 65408, Note_on_c, 0, 46, 0
3, 65472, Note_on_c, 0, 46, 79
3, 65600, Note_on_c, 0, 46, 0
3, 65664, Note_on_c, 0, 46, 81
3, 65792, Note_on_c, 0, 46, 0
3, 65856, Note_on_c, 0, 46, 81
3, 65984, Note_on_c, 0, 46, 0
3, 66048, Note_on_c, 0, 46, 82
3, 66176, Note_on_c, 0, 46, 0
3, 66240, Note_on_c, 0, 46, 84
3, 66368, Note_on_c, 0, 46, 0
3, 66432, Note_on_c, 0, 46, 85
3, 66560, Note_on_c, 0, 46, 0
3, 66624, Note_on_c, 0, 46, 88
3, 66752, Note_on_c, 0, 46, 0
3, 66816, Note_on_c, 0, 46, 89
3, 66944, Note_on_c, 0, 46, 0
3, 67008, Note_on_c, 0, 46, 89
3, 67136, Note_on_c, 0, 46, 0
3, 67200, Note_on_c, 0, 46, 91
3, 67328, Note_on_c, 0, 46, 0
3, 67392, Note_on_c, 0, 46, 92
3, 67520, Note_on_c, 0, 46, 0
3, 67584, Note_on_c, 0, 46, 94
3, 67712, Note_on_c, 0, 46, 0
3, 67776, Note_on_c, 0, 46, 95
3, 67904, Note_on_c, 0, 46, 0
3, 67968, Note_on_c, 0, 46, 97
3, 68096, Note_on_c, 0, 46, 0
3, 68160, Note_on_c, 0, 46, 97
3, 68288, Note_on_c, 0, 46, 0
3, 68352, Note_on_c, 0, 46, 97
3, 68480, Note_on_c, 0, 46, 0
3, 68544, Note_on_c, 0, 46, 98
3, 68672, Note_on_c, 0, 46, 0
3, 68736, Note_on_c, 0, 46, 101
3, 68864, Note_on_c, 0, 46, 0
3, 68928, Note_on_c, 0, 46, 102
3, 69056, Note_on_c, 0, 46, 0
3, 69120, Note_on_c, 0, 46, 104
3, 69248, Note_on_c, 0, 46, 0
3, 69312, Note_on_c, 0, 46, 104
3, 69440, Note_on_c, 0, 46, 0
3, 69504, Note_on_c, 0, 46, 104
3, 69632, Note_on_c, 0, 46, 0
3, 69696, Note_on_c, 0, 46, 104
3, 69824, Note_on_c, 0, 46, 0
3, 69888, Note_on_c, 0, 50, 104
3, 70016, Note_on_c, 0, 50, 0
3, 70080, Note_on_c, 0, 50, 104
3, 70208, Note_on_c, 0, 50, 0
3, 70272, Note_on_c, 0, 50, 104
3, 70400, Note_on_c, 0, 50, 0
3, 70464, Note_on_c, 0, 50, 104
3, 70592, Note_on_c, 0, 50, 0
3, 70656, Note_on_c, 0, 51, 104
3, 70784, Note_on_c, 0, 51, 0
3, 70848, Note_on_c, 0, 51, 104
3, 70976, Note_on_c, 0, 51, 0
3, 71040, Note_on_c, 0, 51, 104
3, 71168, Note_on_c, 0, 51, 0
3, 71232, Note_on_c, 0, 51, 104
3, 71360, Note_on_c, 0, 51, 0
3, 71424, Note_on_c, 0, 51, 104
3, 71552, Note_on_c, 0, 51, 0
3, 71616, Note_on_c, 0, 51, 104
3, 71744, Note_on_c, 0, 51, 0
3, 71808, Note_on_c, 0, 51, 104
3, 71936, Note_on_c, 0, 51, 0
3, 72000, Note_on_c, 0, 51, 104
3, 72128, Note_on_c, 0, 51, 0
3, 72192, Note_on_c, 0, 55, 104
3, 72320, Note_on_c, 0, 55, 0
3, 72384, Note_on_c, 0, 55, 104
3, 72512, Note_on_c, 0, 55, 0
3, 72576, Note_on_c, 0, 55, 104
3, 72704, Note_on_c, 0, 55, 0
3, 72768, Note_on_c, 0, 55, 104
3, 72896, Note_on_c, 0, 55, 0
3, 72960, Note_on_c, 0, 55, 104
3, 73088, Note_on_c, 0, 55, 0
3, 73152, Note_on_c, 0, 55, 104
3, 73280, Note_on_c, 0, 55, 0
3, 73344, Note_on_c, 0, 55, 104
3, 73472, Note_on_c, 0, 55, 0
3, 73536, Note_on_c, 0, 55, 104
3, 73664, Note_on_c, 0, 55, 0
3, 73728, Note_on_c, 0, 53, 104
3, 73856, Note_on_c, 0, 53, 0
3, 73920, Note_on_c, 0, 53, 104
3, 74048, Note_on_c, 0, 53, 0
3, 74112, Note_on_c, 0, 53, 104
3, 74240, Note_on_c, 0, 53, 0
3, 74304, Note_on_c, 0, 53, 104
3, 74432, Note_on_c, 0, 53, 0
3, 74496, Note_on_c, 0, 53, 104
3, 74624, Note_on_c, 0, 53, 0
3, 74688, Note_on_c, 0, 53, 104
3, 74816, Note_on_c, 0, 53, 0
3, 74880, Note_on_c, 0, 53, 104
3, 75008, Note_on_c, 0, 53, 0
3, 75072, Note_on_c, 0, 53, 104
3, 75200, Note_on_c, 0, 53, 0
3, 75264, Note_on_c, 0, 50, 104
3, 75392, Note_on_c, 0, 50, 0
3, 75456, Note_on_c, 0, 50, 104
3, 75584, Note_on_c, 0, 50, 0
3, 75648, Note_on_c, 0, 50, 104
3, 75776, Note_on_c, 0, 50, 0
3, 75840, Note_on_c, 0, 50, 104
3, 75968, Note_on_c, 0, 50, 0
3, 76032, Note_on_c, 0, 50, 104
3, 76160, Note_on_c, 0, 50, 0
3, 76224, Note_on_c, 0, 50, 104
3, 76352, Note_on_c, 0, 50, 0
3, 76416, Note_on_c, 0, 50, 104
3, 76544, Note_on_c, 0, 50, 0
3, 76608, Note_on_c, 0, 50, 104
3, 76736, Note_on_c, 0, 50, 0
3, 76800, Note_on_c, 0, 51, 104
3, 76928, Note_on_c, 0, 51, 0
3, 76992, Note_on_c, 0, 51, 104
3, 77120, Note_on_c, 0, 51, 0
3, 77184, Note_on_c, 0, 51, 104
3, 77312, Note_on_c, 0, 51, 0
3, 77376, Note_on_c, 0, 51, 104
3, 77504, Note_on_c, 0, 51, 0
3, 77568, Note_on_c, 0, 51, 104
3, 77696, Note_on_c, 0, 51, 0
3, 77760, Note_on_c, 0, 51, 104
3, 77888, Note_on_c, 0, 51, 0
3, 77952, Note_on_c, 0, 51, 104
3, 78080, Note_on_c, 0, 51, 0
3, 78144, Note_on_c, 0, 51, 104
3, 78272, Note_on_c, 0, 51, 0
3, 78336, Note_on_c, 0, 55, 104
3, 78464, Note_on_c, 0, 55, 0
3, 78528, Note_on_c, 0, 55, 104
3, 78656, Note_on_c, 0, 55, 0
3, 78720, Note_on_c, 0, 55, 104
3, 78848, Note_on_c, 0, 55, 0
3, 78912, Note_on_c, 0, 55, 104
3, 79040, Note_on_c, 0, 55, 0
3, 79104, Note_on_c, 0, 55, 104
3, 79232, Note_on_c, 0, 55, 0
3, 79296, Note_on_c, 0, 55, 104
3, 79424, Note_on_c, 0, 55, 0
3, 79488, Note_on_c, 0, 55, 104
3, 79616, Note_on_c, 0, 55, 0
3, 79680, Note_on_c, 0, 55, 104
3, 79808, Note_on_c, 0, 55, 0
3, 79872, Note_on_c, 0, 53, 104
3, 80000, Note_on_c, 0, 53, 0
3, 80064, Note_on_c, 0, 53, 104
3, 80192, Note_on_c, 0, 53, 0
3, 80256, Note_on_c, 0, 53, 104
3, 80384, Note_on_c, 0, 53, 0
3, 80448, Note_on_c, 0, 53, 104
3, 80576, Note_on_c, 0, 53, 0
3, 80640, Note_on_c, 0, 53, 104
3, 80768, Note_on_c, 0, 53, 0
3, 80832, Note_on_c, 0, 53, 104
3, 80960, Note_on_c, 0, 53, 0
3, 81024, Note_on_c, 0, 53, 104
3, 81152, Note_on_c, 0, 53, 0
3, 81216, Note_on_c, 0, 53, 104
3, 81344, Note_on_c, 0, 53, 0
3, 81408, Note_on_c, 0, 46, 104
3, 81788, Note_on_c, 0, 46, 0
3, 83712, Note_on_c, 0, 53, 89
3, 84224, Note_on_c, 0, 53, 0
3, 84480, Note_on_c, 0, 58, 89
3, 84860, Note_on_c, 0, 58, 0
3, 86784, Note_on_c, 0, 41, 89
3, 87296, Note_on_c, 0, 41, 0
3, 87552, Note_on_c, 0, 46, 89
3, 88064, Note_on_c, 0, 46, 0
3, 88320, Note_on_c, 0, 41, 89
3, 88832, Note_on_c, 0, 41, 0
3, 89088, Note_on_c, 0, 46, 89
3, 89600, Note_on_c, 0, 46, 0
3, 89856, Note_on_c, 0, 41, 89
3, 90368, Note_on_c, 0, 41, 0
3, 90624, Note_on_c, 0, 46, 89
3, 91004, Note_on_c, 0, 46, 0
3, 96384, Note_on_c, 0, 62, 89
3, 96448, Note_on_c, 0, 62, 0
3, 96480, Note_on_c, 0, 60, 89
3, 96544, Note_on_c, 0, 60, 0
3, 96576, Note_on_c, 0, 58, 89
3, 96640, Note_on_c, 0, 58, 0
3, 96672, Note_on_c, 0, 57, 89
3, 96736, Note_on_c, 0, 57, 0
3, 96768, Note_on_c, 0, 58, 89
3, 96768, Note_on_c, 0, 46, 89
3, 96768, Note_on_c, 0, 34, 89
3, 96832, Note_on_c, 0, 58, 0
3, 96864, Note_on_c, 0, 60, 89
3, 96928, Note_on_c, 0, 60, 0
3, 96960, Note_on_c, 0, 58, 89
3, 97024, Note_on_c, 0, 58, 0
3, 97056, Note_on_c, 0, 57, 89
3, 97120, Note_on_c, 0, 57, 0
3, 97152, Note_on_c, 0, 58, 89
3, 97216, Note_on_c, 0, 58, 0
3, 97248, Note_on_c, 0, 53, 89
3, 97312, Note_on_c, 0, 53, 0
3, 97344, Note_on_c, 0, 62, 89
3, 97408, Note_on_c, 0, 62, 0
3, 97440, Note_on_c, 0, 58, 89
3, 97504, Note_on_c, 0, 58, 0
3, 97536, Note_on_c, 0, 60, 89
3, 97600, Note_on_c, 0, 60, 0
3, 97632, Note_on_c, 0, 62, 89
3, 97696, Note_on_c, 0, 62, 0
3, 97728, Note_on_c, 0, 60, 89
3, 97792, Note_on_c, 0, 60, 0
3, 97796, Note_on_c, 0, 34, 0
3, 97796, Note_on_c, 0, 46, 0
3, 97824, Note_on_c, 0, 58, 89
3, 97888, Note_on_c, 0, 58, 0
3, 97920, Note_on_c, 0, 60, 89
3, 97984, Note_on_c, 0, 60, 0
3, 98016, Note_on_c, 0, 57, 89
3, 98080, Note_on_c, 0, 57, 0
3, 98112, Note_on_c, 0, 63, 89
3, 98176, Note_on_c, 0, 63, 0
3, 98208, Note_on_c, 0, 60, 89
3, 98272, Note_on_c, 0, 60, 0
3, 98304, Note_on_c, 0, 46, 89
3, 98304, Note_on_c, 0, 34, 89
3, 99836, Note_on_c, 0, 34, 0
3, 99836, Note_on_c, 0, 46, 0
3, 99840, Note_on_c, 0, 58, 89
3, 99840, Note_on_c, 0, 46, 89
3, 101372, Note_on_c, 0, 46, 0
3, 101372, Note_on_c, 0, 58, 0
3, 101376, Note_on_c, 0, 58, 89
3, 101376, Note_on_c, 0, 46, 89
3, 102908, Note_on_c, 0, 46, 0
3, 102908, Note_on_c, 0, 58, 0
3, 102912, Note_on_c, 0, 58, 89
3, 102912, Note_on_c, 0, 46, 89
3, 103292, Note_on_c, 0, 46, 0
3, 103292, Note_on_c, 0, 58, 0
3, 106560, Note_on_c, 0, 53, 89
3, 106688, Note_on_c, 0, 53, 0
3, 106752, Note_on_c, 0, 62, 89
3, 106880, Note_on_c, 0, 62, 0
3, 106944, Note_on_c, 0, 58, 89
3, 107072, Note_on_c, 0, 58, 0
3, 107136, Note_on_c, 0, 53, 89
3, 107264, Note_on_c, 0, 53, 0
3, 107328, Note_on_c, 0, 50, 89
3, 107456, Note_on_c, 0, 50, 0
3, 107520, Note_on_c, 0, 58, 89
3, 107520, Note_on_c, 0, 46, 89
3, 107900, Note_on_c, 0, 46, 0
3, 107900, Note_on_c, 0, 58, 0
3, 113664, Note_on_c, 0, 58, 89
3, 113664, Note_on_c, 0, 46, 89
3, 115196, Note_on_c, 0, 46, 0
3, 115196, Note_on_c, 0, 58, 0
3, 115200, Note_on_c, 0, 53, 89
3, 115200, Note_on_c, 0, 41, 89
3, 115580, Note_on_c, 0, 41, 0
3, 115580, Note_on_c, 0, 53, 0
3, 119808, Note_on_c, 0, 53, 89
3, 119808, Note_on_c, 0, 41, 89
3, 121340, Note_on_c, 0, 41, 0
3, 121340, Note_on_c, 0, 53, 0
3, 121344, Note_on_c, 0, 58, 89
3, 121344, Note_on_c, 0, 46, 89
3, 121724, Note_on_c, 0, 46, 0
3, 121724, Note_on_c, 0, 58, 0
3, 122880, Note_on_c, 0, 58, 89
3, 122880, Note_on_c, 0, 62, 89
3, 123008, Note_on_c, 0, 62, 0
3, 123008, Note_on_c, 0, 58, 0
3, 123072, Note_on_c, 0, 58, 89
3, 123072, Note_on_c, 0, 62, 89
3, 123200, Note_on_c, 0, 62, 0
3, 123200, Note_on_c, 0, 58, 0
3, 123264, Note_on_c, 0, 53, 89
3, 123264, Note_on_c, 0, 60, 89
3, 123392, Note_on_c, 0, 60, 0
3, 123392, Note_on_c, 0, 53, 0
3, 123456, Note_on_c, 0, 53, 89
3, 123456, Note_on_c, 0, 60, 89
3, 123584, Note_on_c, 0, 60, 0
3, 123584, Note_on_c, 0, 53, 0
3, 123648, Note_on_c, 0, 58, 89
3, 123648, Note_on_c, 0, 50, 89
3, 124028, Note_on_c, 0, 50, 0
3, 124028, Note_on_c, 0, 58, 0
3, 124416, Note_on_c, 0, 58, 89
3, 124416, Note_on_c, 0, 62, 89
3, 124544, Note_on_c, 0, 62, 0
3, 124544, Note_on_c, 0, 58, 0
3, 124608, Note_on_c, 0, 58, 89
3, 124608, Note_on_c, 0, 62, 89
3, 124736, Note_on_c, 0, 62, 0
3, 124736, Note_on_c, 0, 58, 0
3, 124800, Note_on_c, 0, 60, 89
3, 124800, Note_on_c, 0, 53, 89
3, 124928, Note_on_c, 0, 53, 0
3, 124928, Note_on_c, 0, 60, 0
3, 124992, Note_on_c, 0, 53, 89
3, 124992, Note_on_c, 0, 60, 89
3, 125120, Note_on_c, 0, 60, 0
3, 125120, Note_on_c, 0, 53, 0
3, 125184, Note_on_c, 0, 58, 89
3, 125184, Note_on_c, 0, 50, 89
3, 125564, Note_on_c, 0, 50, 0
3, 125564, Note_on_c, 0, 58, 0
3, 125952, Note_on_c, 0, 58, 89
3, 125952, Note_on_c, 0, 62, 89
3, 126080, Note_on_c, 0, 62, 0
3, 126080, Note_on_c, 0, 58, 0
3, 126144, Note_on_c, 0, 58, 89
3, 126144, Note_on_c, 0, 62, 89
3, 126272, Note_on_c, 0, 62, 0
3, 126272, Note_on_c, 0, 58, 0
3, 126336, Note_on_c, 0, 53, 89
3, 126336, Note_on_c, 0, 60, 89
3, 126464, Note_on_c, 0, 60, 0
3, 126464, Note_on_c, 0, 53, 0
3, 126528, Note_on_c, 0, 53, 89
3, 126528, Note_on_c, 0, 60, 89
3, 126656, Note_on_c, 0, 60, 0
3, 126656, Note_on_c, 0, 53, 0
3, 126720, Note_on_c, 0, 58, 89
3, 126720, Note_on_c, 0, 50, 89
3, 126848, Note_on_c, 0, 50, 0
3, 126848, Note_on_c, 0, 58, 0
3, 126912, Note_on_c, 0, 58, 89
3, 126912, Note_on_c, 0, 50, 89
3, 127040, Note_on_c, 0, 50, 0
3, 127040, Note_on_c, 0, 58, 0
3, 127104, Note_on_c, 0, 60, 89
3, 127104, Note_on_c, 0, 53, 89
3, 127232, Note_on_c, 0, 53, 0
3, 127232, Note_on_c, 0, 60, 0
3, 127296, Note_on_c, 0, 60, 89
3, 127296, Note_on_c, 0, 53, 89
3, 127424, Note_on_c, 0, 53, 0
3, 127424, Note_on_c, 0, 60, 0
3, 127488, Note_on_c, 0, 58, 89
3, 127488, Note_on_c, 0, 62, 89
3, 127616, Note_on_c, 0, 62, 0
3, 127616, Note_on_c, 0, 58, 0
3, 127680, Note_on_c, 0, 58, 89
3, 127680, Note_on_c, 0, 62, 89
3, 127808, Note_on_c, 0, 62, 0
3, 127808, Note_on_c, 0, 58, 0
3, 127872, Note_on_c, 0, 53, 89
3, 127872, Note_on_c, 0, 60, 89
3, 128000, Note_on_c, 0, 60, 0
3, 128000, Note_on_c, 0, 53, 0
3, 128064, Note_on_c, 0, 53, 89
3, 128064, Note_on_c, 0, 60, 89
3, 128192, Note_on_c, 0, 60, 0
3, 128192, Note_on_c, 0, 53, 0
3, 128256, Note_on_c, 0, 50, 89
3, 128256, Note_on_c, 0, 58, 89
3, 128384, Note_on_c, 0, 58, 0
3, 128384, Note_on_c, 0, 50, 0
3, 128448, Note_on_c, 0, 58, 89
3, 128448, Note_on_c, 0, 50, 89
3, 128576, Note_on_c, 0, 50, 0
3, 128576, Note_on_c, 0, 58, 0
3, 128640, Note_on_c, 0, 60, 89
3, 128640, Note_on_c, 0, 53, 89
3, 128768, Note_on_c, 0, 53, 0
3, 128768, Note_on_c, 0, 60, 0
3, 128832, Note_on_c, 0, 60, 89
3, 128832, Note_on_c, 0, 53, 89
3, 128960, Note_on_c, 0, 53, 0
3, 128960, Note_on_c, 0, 60, 0
3, 129024, Note_on_c, 0, 58, 89
3, 129024, Note_on_c, 0, 62, 89
3, 129404, Note_on_c, 0, 62, 0
3, 129404, Note_on_c, 0, 58, 0
3, 129792, Note_on_c, 0, 58, 89
3, 129792, Note_on_c, 0, 62, 89
3, 130172, Note_on_c, 0, 62, 0
3, 130172, Note_on_c, 0, 58, 0
3, 130560, Note_on_c, 0, 58, 89
3, 130560, Note_on_c, 0, 62, 89
3, 130940, Note_on_c, 0, 62, 0
3, 130940, Note_on_c, 0, 58, 0
3, 131712, Note_on_c, 0, 53, 89
3, 131712, Note_on_c, 0, 41, 89
3, 131808, Note_on_c, 0, 41, 0
3, 131808, Note_on_c, 0, 53, 0
3, 131840, Note_on_c, 0, 38, 89
3, 131840, Note_on_c, 0, 50, 89
3, 131936, Note_on_c, 0, 50, 0
3, 131936, Note_on_c, 0, 38, 0
3, 131968, Note_on_c, 0, 34, 89
3, 131968, Note_on_c, 0, 46, 89
3, 132064, Note_on_c, 0, 34, 0
3, 132096, Note_on_c, 0, 41, 89
3, 132096, Note_on_c, 0, 29, 89
3, 132100, Note_on_c, 0, 46, 0
3, 132224, Note_on_c, 0, 29, 0
3, 132476, Note_on_c, 0, 41, 0
3, 132864, Note_on_c, 0, 53, 89
3, 132864, Note_on_c, 0, 41, 89
3, 133244, Note_on_c, 0, 41, 0
3, 133244, Note_on_c, 0, 53, 0
3, 133632, Note_on_c, 0, 46, 89
3, 134012, Note_on_c, 0, 46, 0
3, 135168, Note_on_c, 0, 55, 89
3, 135296, Note_on_c, 0, 55, 0
3, 135360, Note_on_c, 0, 62, 89
3, 135488, Note_on_c, 0, 62, 0
3, 135552, Note_on_c, 0, 58, 89
3, 135680, Note_on_c, 0, 58, 0
3, 135744, Note_on_c, 0, 62, 89
3, 135872, Note_on_c, 0, 62, 0
3, 135936, Note_on_c, 0, 55, 89
3, 136064, Note_on_c, 0, 55, 0
3, 136128, Note_on_c, 0, 62, 89
3, 136256, Note_on_c, 0, 62, 0
3, 136320, Note_on_c, 0, 58, 89
3, 136448, Note_on_c, 0, 58, 0
3, 136512, Note_on_c, 0, 62, 89
3, 136640, Note_on_c, 0, 62, 0
3, 136704, Note_on_c, 0, 57, 89
3, 136832, Note_on_c, 0, 57, 0
3, 136896, Note_on_c, 0, 63, 89
3, 137024, Note_on_c, 0, 63, 0
3, 137088, Note_on_c, 0, 60, 89
3, 137216, Note_on_c, 0, 60, 0
3, 137280, Note_on_c, 0, 63, 89
3, 137408, Note_on_c, 0, 63, 0
3, 137472, Note_on_c, 0, 57, 89
3, 137852, Note_on_c, 0, 57, 0
3, 138240, Note_on_c, 0, 60, 89
3, 138240, Note_on_c, 0, 57, 89
3, 138240, Note_on_c, 0, 50, 89
3, 139772, Note_on_c, 0, 50, 0
3, 139772, Note_on_c, 0, 57, 0
3, 139772, Note_on_c, 0, 60, 0
3, 139776, Note_on_c, 0, 55, 89
3, 140156, Note_on_c, 0, 55, 0
3, 141312, Note_on_c, 0, 53, 89
3, 141440, Note_on_c, 0, 53, 0
3, 141504, Note_on_c, 0, 60, 89
3, 141632, Note_on_c, 0, 60, 0
3, 141696, Note_on_c, 0, 57, 89
3, 141824, Note_on_c, 0, 57, 0
3, 141888, Note_on_c, 0, 60, 89
3, 142016, Note_on_c, 0, 60, 0
3, 142080, Note_on_c, 0, 53, 89
3, 142208, Note_on_c, 0, 53, 0
3, 142272, Note_on_c, 0, 60, 89
3, 142400, Note_on_c, 0, 60, 0
3, 142464, Note_on_c, 0, 57, 89
3, 142592, Note_on_c, 0, 57, 0
3, 142656, Note_on_c, 0, 60, 89
3, 142784, Note_on_c, 0, 60, 0
3, 142848, Note_on_c, 0, 58, 89
3, 142848, Note_on_c, 0, 55, 89
3, 142848, Note_on_c, 0, 60, 89
3, 144380, Note_on_c, 0, 60, 0
3, 144380, Note_on_c, 0, 55, 0
3, 144380, Note_on_c, 0, 58, 0
3, 144384, Note_on_c, 0, 58, 89
3, 144384, Note_on_c, 0, 52, 89
3, 144384, Note_on_c, 0, 48, 89
3, 145916, Note_on_c, 0, 48, 0
3, 145916, Note_on_c, 0, 52, 0
3, 145916, Note_on_c, 0, 58, 0
3, 145920, Note_on_c, 0, 57, 89
3, 145920, Note_on_c, 0, 53, 89
3, 146300, Note_on_c, 0, 53, 0
3, 146300, Note_on_c, 0, 57, 0
3, 151296, Note_on_c, 0, 55, 89
3, 151296, Note_on_c, 0, 53, 89
3, 151296, Note_on_c, 0, 50, 89
3, 151808, Note_on_c, 0, 50, 0
3, 151808, Note_on_c, 0, 53, 0
3, 151808, Note_on_c, 0, 55, 0
3, 152064, Note_on_c, 0, 55, 89
3, 152064, Note_on_c, 0, 52, 89
3, 152064, Note_on_c, 0, 48, 89
3, 152444, Note_on_c, 0, 48, 0
3, 152444, Note_on_c, 0, 52, 0
3, 152444, Note_on_c, 0, 55, 0
3, 154368, Note_on_c, 0, 55, 89
3, 154368, Note_on_c, 0, 50, 89
3, 154368, Note_on_c, 0, 53, 89
3, 154880, Note_on_c, 0, 53, 0
3, 154880, Note_on_c, 0, 50, 0
3, 154880, Note_on_c, 0, 55, 0
3, 155136, Note_on_c, 0, 55, 89
3, 155136, Note_on_c, 0, 52, 89
3, 155136, Note_on_c, 0, 48, 89
3, 155264, Note_on_c, 0, 48, 0
3, 155264, Note_on_c, 0, 52, 0
3, 155264, Note_on_c, 0, 55, 0
3, 155328, Note_on_c, 0, 36, 89
3, 155392, Note_on_c, 0, 36, 0
3, 155424, Note_on_c, 0, 48, 89
3, 155488, Note_on_c, 0, 48, 0
3, 155520, Note_on_c, 0, 38, 89
3, 155584, Note_on_c, 0, 38, 0
3, 155616, Note_on_c, 0, 50, 89
3, 155680, Note_on_c, 0, 50, 0
3, 155712, Note_on_c, 0, 40, 89
3, 155776, Note_on_c, 0, 40, 0
3, 155808, Note_on_c, 0, 52, 89
3, 155872, Note_on_c, 0, 52, 0
3, 155904, Note_on_c, 0, 41, 89
3, 155968, Note_on_c, 0, 41, 0
3, 156000, Note_on_c, 0, 53, 89
3, 156064, Note_on_c, 0, 53, 0
3, 156096, Note_on_c, 0, 43, 89
3, 156160, Note_on_c, 0, 43, 0
3, 156192, Note_on_c, 0, 55, 89
3, 156256, Note_on_c, 0, 55, 0
3, 156288, Note_on_c, 0, 45, 89
3, 156352, Note_on_c, 0, 45, 0
3, 156384, Note_on_c, 0, 57, 89
3, 156448, Note_on_c, 0, 57, 0
3, 156480, Note_on_c, 0, 47, 89
3, 156544, Note_on_c, 0, 47, 0
3, 156576, Note_on_c, 0, 59, 89
3, 156640, Note_on_c, 0, 59, 0
3, 156672, Note_on_c, 0, 48, 89
3, 157052, Note_on_c, 0, 48, 0
3, 161280, Note_on_c, 0, 53, 89
3, 161408, Note_on_c, 0, 53, 0
3, 161472, Note_on_c, 0, 57, 89
3, 161600, Note_on_c, 0, 57, 0
3, 161664, Note_on_c, 0, 60, 89
3, 161792, Note_on_c, 0, 60, 0
3, 161856, Note_on_c, 0, 57, 89
3, 161984, Note_on_c, 0, 57, 0
3, 162048, Note_on_c, 0, 53, 89
3, 162176, Note_on_c, 0, 53, 0
3, 162240, Note_on_c, 0, 57, 89
3, 162368, Note_on_c, 0, 57, 0
3, 162432, Note_on_c, 0, 55, 89
3, 162560, Note_on_c, 0, 55, 0
3, 162624, Note_on_c, 0, 58, 89
3, 162752, Note_on_c, 0, 58, 0
3, 162816, Note_on_c, 0, 57, 89
3, 162944, Note_on_c, 0, 57, 0
3, 163008, Note_on_c, 0, 53, 89
3, 163136, Note_on_c, 0, 53, 0
3, 163200, Note_on_c, 0, 57, 89
3, 163328, Note_on_c, 0, 57, 0
3, 163392, Note_on_c, 0, 60, 89
3, 163520, Note_on_c, 0, 60, 0
3, 163584, Note_on_c, 0, 57, 89
3, 163964, Note_on_c, 0, 57, 0
3, 165888, Note_on_c, 0, 60, 89
3, 165888, Note_on_c, 0, 48, 89
3, 166400, Note_on_c, 0, 48, 0
3, 166400, Note_on_c, 0, 60, 0
3, 166656, Note_on_c, 0, 60, 89
3, 166656, Note_on_c, 0, 48, 89
3, 166912, Note_on_c, 0, 48, 0
3, 166912, Note_on_c, 0, 60, 0
3, 167424, Note_on_c, 0, 48, 89
3, 167552, Note_on_c, 0, 48, 0
3, 167616, Note_on_c, 0, 55, 89
3, 167744, Note_on_c, 0, 55, 0
3, 167808, Note_on_c, 0, 58, 89
3, 167936, Note_on_c, 0, 58, 0
3, 168000, Note_on_c, 0, 55, 89
3, 168128, Note_on_c, 0, 55, 0
3, 168192, Note_on_c, 0, 58, 89
3, 168320, Note_on_c, 0, 58, 0
3, 168384, Note_on_c, 0, 55, 89
3, 168512, Note_on_c, 0, 55, 0
3, 168576, Note_on_c, 0, 53, 89
3, 168704, Note_on_c, 0, 53, 0
3, 168768, Note_on_c, 0, 57, 89
3, 168896, Note_on_c, 0, 57, 0
3, 168960, Note_on_c, 0, 55, 89
3, 168960, Note_on_c, 0, 52, 89
3, 168960, Note_on_c, 0, 48, 89
3, 169340, Note_on_c, 0, 48, 0
3, 169340, Note_on_c, 0, 52, 0
3, 169340, Note_on_c, 0, 55, 0
3, 172032, Note_on_c, 0, 53, 89
3, 172544, Note_on_c, 0, 53, 0
3, 172800, Note_on_c, 0, 53, 89
3, 173180, Note_on_c, 0, 53, 0
3, 173568, Note_on_c, 0, 53, 89
3, 173568, Note_on_c, 0, 50, 89
3, 173568, Note_on_c, 0, 46, 89
3, 173568, Note_on_c, 0, 41, 89
3, 173948, Note_on_c, 0, 41, 0
3, 173948, Note_on_c, 0, 53, 0
3, 173948, Note_on_c, 0, 50, 0
3, 173948, Note_on_c, 0, 46, 0
3, 175104, Note_on_c, 0, 53, 89
3, 175104, Note_on_c, 0, 48, 89
3, 175104, Note_on_c, 0, 45, 89
3, 175104, Note_on_c, 0, 41, 89
3, 175484, Note_on_c, 0, 41, 0
3, 175484, Note_on_c, 0, 53, 0
3, 175484, Note_on_c, 0, 48, 0
3, 175484, Note_on_c, 0, 45, 0
3, 176640, Note_on_c, 0, 53, 89
3, 176640, Note_on_c, 0, 50, 89
3, 176640, Note_on_c, 0, 46, 89
3, 176640, Note_on_c, 0, 41, 89
3, 177020, Note_on_c, 0, 41, 0
3, 177020, Note_on_c, 0, 53, 0
3, 177020, Note_on_c, 0, 50, 0
3, 177020, Note_on_c, 0, 46, 0
3, 178176, Note_on_c, 0, 53, 89
3, 178176, Note_on_c, 0, 48, 89
3, 178176, Note_on_c, 0, 45, 89
3, 178176, Note_on_c, 0, 41, 89
3, 178556, Note_on_c, 0, 41, 0
3, 178556, Note_on_c, 0, 53, 0
3, 178556, Note_on_c, 0, 48, 0
3, 178556, Note_on_c, 0, 45, 0
3, 179712, Note_on_c, 0, 38, 89
3, 179776, Note_on_c, 0, 38, 0
3, 179808, Note_on_c, 0, 50, 89
3, 179872, Note_on_c, 0, 50, 0
3, 179904, Note_on_c, 0, 54, 89
3, 179968, Note_on_c, 0, 54, 0
3, 180000, Note_on_c, 0, 57, 89
3, 180064, Note_on_c, 0, 57, 0
3, 180096, Note_on_c, 0, 62, 89
3, 180224, Note_on_c, 0, 62, 0
3, 180480, Note_on_c, 0, 43, 89
3, 180544, Note_on_c, 0, 43, 0
3, 180576, Note_on_c, 0, 55, 89
3, 180640, Note_on_c, 0, 55, 0
3, 180672, Note_on_c, 0, 59, 89
3, 180736, Note_on_c, 0, 59, 0
3, 180768, Note_on_c, 0, 62, 89
3, 180832, Note_on_c, 0, 62, 0
3, 180864, Note_on_c, 0, 67, 89
3, 180992, Note_on_c, 0, 67, 0
3, 181248, Note_on_c, 0, 36, 89
3, 181312, Note_on_c, 0, 36, 0
3, 181344, Note_on_c, 0, 48, 89
3, 181408, Note_on_c, 0, 48, 0
3, 181440, Note_on_c, 0, 52, 89
3, 181504, Note_on_c, 0, 52, 0
3, 181536, Note_on_c, 0, 55, 89
3, 181600, Note_on_c, 0, 55, 0
3, 181632, Note_on_c, 0, 60, 89
3, 181760, Note_on_c, 0, 60, 0
3, 182016, Note_on_c, 0, 41, 89
3, 182080, Note_on_c, 0, 41, 0
3, 182112, Note_on_c, 0, 53, 89
3, 182176, Note_on_c, 0, 53, 0
3, 182208, Note_on_c, 0, 57, 89
3, 182272, Note_on_c, 0, 57, 0
3, 182304, Note_on_c, 0, 60, 89
3, 182368, Note_on_c, 0, 60, 0
3, 182400, Note_on_c, 0, 65, 89
3, 182528, Note_on_c, 0, 65, 0
3, 183168, Note_on_c, 0, 58, 89
3, 183296, Note_on_c, 0, 58, 0
3, 183552, Note_on_c, 0, 60, 89
3, 183680, Note_on_c, 0, 60, 0
3, 183936, Note_on_c, 0, 48, 89
3, 184064, Note_on_c, 0, 48, 0
3, 184320, Note_on_c, 0, 41, 89
3, 184384, Note_on_c, 0, 41, 0
3, 184416, Note_on_c, 0, 40, 89
3, 184480, Note_on_c, 0, 40, 0
3, 184512, Note_on_c, 0, 41, 89
3, 184576, Note_on_c, 0, 41, 0
3, 184608, Note_on_c, 0, 43, 89
3, 184672, Note_on_c, 0, 43, 0
3, 184704, Note_on_c, 0, 45, 89
3, 184768, Note_on_c, 0, 45, 0
3, 184800, Note_on_c, 0, 43, 89
3, 184864, Note_on_c, 0, 43, 0
3, 184896, Note_on_c, 0, 45, 89
3, 184960, Note_on_c, 0, 45, 0
3, 184992, Note_on_c, 0, 46, 89
3, 185056, Note_on_c, 0, 46, 0
3, 185088, Note_on_c, 0, 48, 89
3, 185152, Note_on_c, 0, 48, 0
3, 185184, Note_on_c, 0, 47, 89
3, 185248, Note_on_c, 0, 47, 0
3, 185280, Note_on_c, 0, 48, 89
3, 185344, Note_on_c, 0, 48, 0
3, 185376, Note_on_c, 0, 50, 89
3, 185440, Note_on_c, 0, 50, 0
3, 185472, Note_on_c, 0, 52, 89
3, 185536, Note_on_c, 0, 52, 0
3, 185568, Note_on_c, 0, 50, 89
3, 185632, Note_on_c, 0, 50, 0
3, 185664, Note_on_c, 0, 52, 89
3, 185728, Note_on_c, 0, 52, 0
3, 185760, Note_on_c, 0, 48, 89
3, 185824, Note_on_c, 0, 48, 0
3, 185856, Note_on_c, 0, 53, 89
3, 185920, Note_on_c, 0, 53, 0
3, 185952, Note_on_c, 0, 52, 89
3, 186016, Note_on_c, 0, 52, 0
3, 186048, Note_on_c, 0, 53, 89
3, 186112, Note_on_c, 0, 53, 0
3, 186144, Note_on_c, 0, 55, 89
3, 186208, Note_on_c, 0, 55, 0
3, 186240, Note_on_c, 0, 57, 89
3, 186304, Note_on_c, 0, 57, 0
3, 186336, Note_on_c, 0, 55, 89
3, 186400, Note_on_c, 0, 55, 0
3, 186432, Note_on_c, 0, 57, 89
3, 186496, Note_on_c, 0, 57, 0
3, 186528, Note_on_c, 0, 58, 89
3, 186592, Note_on_c, 0, 58, 0
3, 186624, Note_on_c, 0, 60, 89
3, 186688, Note_on_c, 0, 60, 0
3, 186720, Note_on_c, 0, 59, 89
3, 186784, Note_on_c, 0, 59, 0
3, 186816, Note_on_c, 0, 60, 89
3, 186880, Note_on_c, 0, 60, 0
3, 186912, Note_on_c, 0, 62, 89
3, 186976, Note_on_c, 0, 62, 0
3, 199680, Note_on_c, 0, 55, 89
3, 199936, Note_on_c, 0, 55, 0
3, 200064, Note_on_c, 0, 58, 89
3, 200320, Note_on_c, 0, 58, 0
3, 200448, Note_on_c, 0, 60, 89
3, 200704, Note_on_c, 0, 60, 0
3, 200832, Note_on_c, 0, 52, 89
3, 201088, Note_on_c, 0, 52, 0
3, 201344, Note_on_c, 0, 41, 89
3, 201440, Note_on_c, 0, 41, 0
3, 201472, Note_on_c, 0, 45, 89
3, 201568, Note_on_c, 0, 45, 0
3, 201600, Note_on_c, 0, 48, 89
3, 201696, Note_on_c, 0, 48, 0
3, 201728, Note_on_c, 0, 53, 89
3, 201824, Note_on_c, 0, 53, 0
3, 201856, Note_on_c, 0, 57, 89
3, 201952, Note_on_c, 0, 57, 0
3, 201984, Note_on_c, 0, 60, 89
3, 202080, Note_on_c, 0, 60, 0
3, 202112, Note_on_c, 0, 57, 89
3, 202208, Note_on_c, 0, 57, 0
3, 202240, Note_on_c, 0, 53, 89
3, 202336, Note_on_c, 0, 53, 0
3, 202380, Note_on_c, 0, 48, 89
3, 202476, Note_on_c, 0, 48, 0
3, 202496, Note_on_c, 0, 45, 89
3, 202592, Note_on_c, 0, 45, 0
3, 202624, Note_on_c, 0, 41, 89
3, 202720, Note_on_c, 0, 41, 0
3, 202880, Note_on_c, 0, 46, 89
3, 202976, Note_on_c, 0, 46, 0
3, 203008, Note_on_c, 0, 50, 89
3, 203104, Note_on_c, 0, 50, 0
3, 203136, Note_on_c, 0, 53, 89
3, 203232, Note_on_c, 0, 53, 0
3, 203264, Note_on_c, 0, 58, 89
3, 203360, Note_on_c, 0, 58, 0
3, 203392, Note_on_c, 0, 62, 89
3, 203488, Note_on_c, 0, 62, 0
3, 203520, Note_on_c, 0, 65, 89
3, 203616, Note_on_c, 0, 65, 0
3, 203648, Note_on_c, 0, 62, 89
3, 203744, Note_on_c, 0, 62, 0
3, 203776, Note_on_c, 0, 58, 89
3, 203872, Note_on_c, 0, 58, 0
3, 203904, Note_on_c, 0, 53, 89
3, 204000, Note_on_c, 0, 53, 0
3, 204032, Note_on_c, 0, 50, 89
3, 204128, Note_on_c, 0, 50, 0
3, 204160, Note_on_c, 0, 46, 89
3, 204256, Note_on_c, 0, 46, 0
3, 204416, Note_on_c, 0, 47, 89
3, 204512, Note_on_c, 0, 47, 0
3, 204544, Note_on_c, 0, 50, 89
3, 204640, Note_on_c, 0, 50, 0
3, 204672, Note_on_c, 0, 53, 89
3, 204768, Note_on_c, 0, 53, 0
3, 204800, Note_on_c, 0, 59, 89
3, 204896, Note_on_c, 0, 59, 0
3, 204928, Note_on_c, 0, 62, 89
3, 205024, Note_on_c, 0, 62, 0
3, 205056, Note_on_c, 0, 65, 89
3, 205152, Note_on_c, 0, 65, 0
3, 205184, Note_on_c, 0, 62, 89
3, 205280, Note_on_c, 0, 62, 0
3, 205312, Note_on_c, 0, 59, 89
3, 205408, Note_on_c, 0, 59, 0
3, 205440, Note_on_c, 0, 53, 89
3, 205536, Note_on_c, 0, 53, 0
3, 205568, Note_on_c, 0, 50, 89
3, 205664, Note_on_c, 0, 50, 0
3, 205696, Note_on_c, 0, 47, 89
3, 205792, Note_on_c, 0, 47, 0
3, 205824, Note_on_c, 0, 48, 89
3, 205824, Note_on_c, 0, 36, 89
3, 206080, Note_on_c, 0, 36, 0
3, 206080, Note_on_c, 0, 48, 0
3, 207456, Note_on_c, 0, 60, 89
3, 207520, Note_on_c, 0, 60, 0
3, 207552, Note_on_c, 0, 57, 89
3, 207616, Note_on_c, 0, 57, 0
3, 207648, Note_on_c, 0, 53, 89
3, 207712, Note_on_c, 0, 53, 0
3, 207744, Note_on_c, 0, 48, 89
3, 207808, Note_on_c, 0, 48, 0
3, 207840, Note_on_c, 0, 57, 89
3, 207904, Note_on_c, 0, 57, 0
3, 207936, Note_on_c, 0, 53, 89
3, 208000, Note_on_c, 0, 53, 0
3, 208032, Note_on_c, 0, 48, 89
3, 208096, Note_on_c, 0, 48, 0
3, 208128, Note_on_c, 0, 45, 89
3, 208192, Note_on_c, 0, 45, 0
3, 208224, Note_on_c, 0, 53, 89
3, 208288, Note_on_c, 0, 53, 0
3, 208320, Note_on_c, 0, 48, 89
3, 208384, Note_on_c, 0, 48, 0
3, 208416, Note_on_c, 0, 45, 89
3, 208480, Note_on_c, 0, 45, 0
3, 208512, Note_on_c, 0, 41, 89
3, 208576, Note_on_c, 0, 41, 0
3, 208608, Note_on_c, 0, 48, 89
3, 208672, Note_on_c, 0, 48, 0
3, 208704, Note_on_c, 0, 45, 89
3, 208768, Note_on_c, 0, 45, 0
3, 208800, Note_on_c, 0, 41, 89
3, 208864, Note_on_c, 0, 41, 0
3, 208896, Note_on_c, 0, 36, 89
3, 209152, Note_on_c, 0, 36, 0
3, 212160, Note_on_c, 0, 53, 104
3, 212288, Note_on_c, 0, 53, 0
3, 212352, Note_on_c, 0, 53, 104
3, 212480, Note_on_c, 0, 53, 0
3, 212544, Note_on_c, 0, 53, 104
3, 212672, Note_on_c, 0, 53, 0
3, 212736, Note_on_c, 0, 53, 104
3, 212864, Note_on_c, 0, 53, 0
3, 212928, Note_on_c, 0, 53, 104
3, 213056, Note_on_c, 0, 53, 0
3, 213120, Note_on_c, 0, 53, 104
3, 213248, Note_on_c, 0, 53, 0
3, 213312, Note_on_c, 0, 53, 104
3, 213440, Note_on_c, 0, 53, 0
3, 213504, Note_on_c, 0, 55, 104
3, 213632, Note_on_c, 0, 55, 0
3, 213696, Note_on_c, 0, 55, 104
3, 213824, Note_on_c, 0, 55, 0
3, 213888, Note_on_c, 0, 58, 104
3, 214016, Note_on_c, 0, 58, 0
3, 214080, Note_on_c, 0, 57, 104
3, 214208, Note_on_c, 0, 57, 0
3, 214272, Note_on_c, 0, 55, 104
3, 214400, Note_on_c, 0, 55, 0
3, 214464, Note_on_c, 0, 53, 104
3, 214592, Note_on_c, 0, 53, 0
3, 214656, Note_on_c, 0, 52, 104
3, 214784, Note_on_c, 0, 52, 0
3, 214848, Note_on_c, 0, 50, 104
3, 214976, Note_on_c, 0, 50, 0
3, 215040, Note_on_c, 0, 48, 104
3, 215168, Note_on_c, 0, 48, 0
3, 215232, Note_on_c, 0, 48, 104
3, 215360, Note_on_c, 0, 48, 0
3, 215424, Note_on_c, 0, 48, 104
3, 215552, Note_on_c, 0, 48, 0
3, 215616, Note_on_c, 0, 48, 104
3, 215744, Note_on_c, 0, 48, 0
3, 215808, Note_on_c, 0, 48, 104
3, 215936, Note_on_c, 0, 48, 0
3, 216000, Note_on_c, 0, 48, 104
3, 216128, Note_on_c, 0, 48, 0
3, 216192, Note_on_c, 0, 46, 104
3, 216320, Note_on_c, 0, 46, 0
3, 216384, Note_on_c, 0, 46, 104
3, 216512, Note_on_c, 0, 46, 0
3, 216576, Note_on_c, 0, 45, 104
3, 216704, Note_on_c, 0, 45, 0
3, 216768, Note_on_c, 0, 53, 104
3, 216896, Note_on_c, 0, 53, 0
3, 216960, Note_on_c, 0, 57, 104
3, 217088, Note_on_c, 0, 57, 0
3, 217152, Note_on_c, 0, 53, 104
3, 217280, Note_on_c, 0, 53, 0
3, 217344, Note_on_c, 0, 48, 104
3, 217472, Note_on_c, 0, 48, 0
3, 217536, Note_on_c, 0, 53, 104
3, 217664, Note_on_c, 0, 53, 0
3, 217728, Note_on_c, 0, 45, 104
3, 217856, Note_on_c, 0, 45, 0
3, 217920, Note_on_c, 0, 48, 104
3, 218048, Note_on_c, 0, 48, 0
3, 218112, Note_on_c, 0, 41, 104
3, 218240, Note_on_c, 0, 41, 0
3, 218304, Note_on_c, 0, 41, 104
3, 218432, Note_on_c, 0, 41, 0
3, 218496, Note_on_c, 0, 41, 104
3, 218624, Note_on_c, 0, 41, 0
3, 218688, Note_on_c, 0, 41, 104
3, 218816, Note_on_c, 0, 41, 0
3, 218880, Note_on_c, 0, 45, 104
3, 219008, Note_on_c, 0, 45, 0
3, 219072, Note_on_c, 0, 45, 104
3, 219200, Note_on_c, 0, 45, 0
3, 219264, Note_on_c, 0, 45, 104
3, 219392, Note_on_c, 0, 45, 0
3, 219456, Note_on_c, 0, 45, 104
3, 219584, Note_on_c, 0, 45, 0
3, 219648, Note_on_c, 0, 46, 104
3, 219776, Note_on_c, 0, 46, 0
3, 219840, Note_on_c, 0, 46, 104
3, 219968, Note_on_c, 0, 46, 0
3, 220032, Note_on_c, 0, 46, 104
3, 220160, Note_on_c, 0, 46, 0
3, 220224, Note_on_c, 0, 46, 104
3, 220352, Note_on_c, 0, 46, 0
3, 220416, Note_on_c, 0, 46, 104
3, 220544, Note_on_c, 0, 46, 0
3, 220608, Note_on_c, 0, 46, 104
3, 220736, Note_on_c, 0, 46, 0
3, 220800, Note_on_c, 0, 46, 104
3, 220928, Note_on_c, 0, 46, 0
3, 220992, Note_on_c, 0, 46, 104
3, 221120, Note_on_c, 0, 46, 0
3, 221184, Note_on_c, 0, 50, 104
3, 221312, Note_on_c, 0, 50, 0
3, 221376, Note_on_c, 0, 50, 104
3, 221504, Note_on_c, 0, 50, 0
3, 221568, Note_on_c, 0, 50, 104
3, 221696, Note_on_c, 0, 50, 0
3, 221760, Note_on_c, 0, 50, 104
3, 221888, Note_on_c, 0, 50, 0
3, 221952, Note_on_c, 0, 50, 104
3, 222080, Note_on_c, 0, 50, 0
3, 222144, Note_on_c, 0, 50, 104
3, 222272, Note_on_c, 0, 50, 0
3, 222336, Note_on_c, 0, 50, 104
3, 222464, Note_on_c, 0, 50, 0
3, 222528, Note_on_c, 0, 50, 104
3, 222656, Note_on_c, 0, 50, 0
3, 222720, Note_on_c, 0, 48, 104
3, 222848, Note_on_c, 0, 48, 0
3, 222912, Note_on_c, 0, 48, 104
3, 223040, Note_on_c, 0, 48, 0
3, 223104, Note_on_c, 0, 48, 104
3, 223232, Note_on_c, 0, 48, 0
3, 223296, Note_on_c, 0, 48, 104
3, 223424, Note_on_c, 0, 48, 0
3, 223488, Note_on_c, 0, 48, 104
3, 223616, Note_on_c, 0, 48, 0
3, 223680, Note_on_c, 0, 48, 104
3, 223808, Note_on_c, 0, 48, 0
3, 223872, Note_on_c, 0, 48, 104
3, 224000, Note_on_c, 0, 48, 0
3, 224064, Note_on_c, 0, 48, 104
3, 224192, Note_on_c, 0, 48, 0
3, 224256, Note_on_c, 0, 45, 104
3, 224384, Note_on_c, 0, 45, 0
3, 224448, Note_on_c, 0, 45, 104
3, 224576, Note_on_c, 0, 45, 0
3, 224640, Note_on_c, 0, 45, 104
3, 224768, Note_on_c, 0, 45, 0
3, 224832, Note_on_c, 0, 45, 104
3, 224960, Note_on_c, 0, 45, 0
3, 225024, Note_on_c, 0, 57, 104
3, 225152, Note_on_c, 0, 57, 0
3, 225216, Note_on_c, 0, 57, 104
3, 225344, Note_on_c, 0, 57, 0
3, 225408, Note_on_c, 0, 57, 104
3, 225536, Note_on_c, 0, 57, 0
3, 225600, Note_on_c, 0, 57, 104
3, 225728, Note_on_c, 0, 57, 0
3, 225792, Note_on_c, 0, 58, 104
3, 225920, Note_on_c, 0, 58, 0
3, 225984, Note_on_c, 0, 58, 104
3, 226112, Note_on_c, 0, 58, 0
3, 226176, Note_on_c, 0, 58, 104
3, 226304, Note_on_c, 0, 58, 0
3, 226368, Note_on_c, 0, 58, 104
3, 226496, Note_on_c, 0, 58, 0
3, 226560, Note_on_c, 0, 58, 104
3, 226688, Note_on_c, 0, 58, 0
3, 226752, Note_on_c, 0, 58, 104
3, 226880, Note_on_c, 0, 58, 0
3, 226944, Note_on_c, 0, 58, 104
3, 227072, Note_on_c, 0, 58, 0
3, 227136, Note_on_c, 0, 58, 104
3, 227264, Note_on_c, 0, 58, 0
3, 227328, Note_on_c, 0, 62, 104
3, 227456, Note_on_c, 0, 62, 0
3, 227520, Note_on_c, 0, 62, 104
3, 227648, Note_on_c, 0, 62, 0
3, 227712, Note_on_c, 0, 62, 104
3, 227840, Note_on_c, 0, 62, 0
3, 227904, Note_on_c, 0, 62, 104
3, 228032, Note_on_c, 0, 62, 0
3, 228096, Note_on_c, 0, 62, 104
3, 228224, Note_on_c, 0, 62, 0
3, 228288, Note_on_c, 0, 62, 104
3, 228416, Note_on_c, 0, 62, 0
3, 228480, Note_on_c, 0, 62, 104
3, 228608, Note_on_c, 0, 62, 0
3, 228672, Note_on_c, 0, 62, 104
3, 228800, Note_on_c, 0, 62, 0
3, 228864, Note_on_c, 0, 60, 104
3, 228992, Note_on_c, 0, 60, 0
3, 229056, Note_on_c, 0, 60, 104
3, 229184, Note_on_c, 0, 60, 0
3, 229248, Note_on_c, 0, 60, 104
3, 229376, Note_on_c, 0, 60, 0
3, 229440, Note_on_c, 0, 60, 104
3, 229568, Note_on_c, 0, 60, 0
3, 229632, Note_on_c, 0, 48, 104
3, 229760, Note_on_c, 0, 48, 0
3, 229824, Note_on_c, 0, 48, 104
3, 229952, Note_on_c, 0, 48, 0
3, 230016, Note_on_c, 0, 48, 104
3, 230144, Note_on_c, 0, 48, 0
3, 230208, Note_on_c, 0, 48, 104
3, 230336, Note_on_c, 0, 48, 0
3, 230400, Note_on_c, 0, 53, 104
3, 230780, Note_on_c, 0, 53, 0
3, 232704, Note_on_c, 0, 60, 89
3, 233216, Note_on_c, 0, 60, 0
3, 233472, Note_on_c, 0, 53, 89
3, 233852, Note_on_c, 0, 53, 0
3, 235776, Note_on_c, 0, 48, 89
3, 236288, Note_on_c, 0, 48, 0
3, 236544, Note_on_c, 0, 53, 89
3, 237056, Note_on_c, 0, 53, 0
3, 237312, Note_on_c, 0, 48, 89
3, 237824, Note_on_c, 0, 48, 0
3, 238080, Note_on_c, 0, 53, 89
3, 238460, Note_on_c, 0, 53, 0
3, 244608, Note_on_c, 0, 60, 89
3, 244672, Note_on_c, 0, 60, 0
3, 244704, Note_on_c, 0, 59, 89
3, 244768, Note_on_c, 0, 59, 0
3, 244800, Note_on_c, 0, 60, 89
3, 244864, Note_on_c, 0, 60, 0
3, 244896, Note_on_c, 0, 62, 89
3, 244960, Note_on_c, 0, 62, 0
3, 244992, Note_on_c, 0, 60, 89
3, 245056, Note_on_c, 0, 60, 0
3, 245088, Note_on_c, 0, 59, 89
3, 245152, Note_on_c, 0, 59, 0
3, 245184, Note_on_c, 0, 57, 89
3, 245248, Note_on_c, 0, 57, 0
3, 245280, Note_on_c, 0, 55, 89
3, 245344, Note_on_c, 0, 55, 0
3, 245376, Note_on_c, 0, 56, 89
3, 245440, Note_on_c, 0, 56, 0
3, 245472, Note_on_c, 0, 57, 89
3, 245536, Note_on_c, 0, 57, 0
3, 245568, Note_on_c, 0, 58, 89
3, 245632, Note_on_c, 0, 58, 0
3, 245664, Note_on_c, 0, 59, 89
3, 245728, Note_on_c, 0, 59, 0
3, 245760, Note_on_c, 0, 60, 89
3, 245824, Note_on_c, 0, 60, 0
3, 245856, Note_on_c, 0, 59, 89
3, 245920, Note_on_c, 0, 59, 0
3, 245952, Note_on_c, 0, 60, 89
3, 246016, Note_on_c, 0, 60, 0
3, 246048, Note_on_c, 0, 55, 89
3, 246112, Note_on_c, 0, 55, 0
3, 246144, Note_on_c, 0, 60, 89
3, 246208, Note_on_c, 0, 60, 0
3, 246240, Note_on_c, 0, 59, 89
3, 246304, Note_on_c, 0, 59, 0
3, 246336, Note_on_c, 0, 60, 89
3, 246400, Note_on_c, 0, 60, 0
3, 246432, Note_on_c, 0, 62, 89
3, 246496, Note_on_c, 0, 62, 0
3, 246528, Note_on_c, 0, 60, 89
3, 246592, Note_on_c, 0, 60, 0
3, 246624, Note_on_c, 0, 59, 89
3, 246688, Note_on_c, 0, 59, 0
3, 246720, Note_on_c, 0, 57, 89
3, 246784, Note_on_c, 0, 57, 0
3, 246816, Note_on_c, 0, 55, 89
3, 246880, Note_on_c, 0, 55, 0
3, 246912, Note_on_c, 0, 56, 89
3, 246976, Note_on_c, 0, 56, 0
3, 247008, Note_on_c, 0, 57, 89
3, 247072, Note_on_c, 0, 57, 0
3, 247104, Note_on_c, 0, 58, 89
3, 247168, Note_on_c, 0, 58, 0
3, 247200, Note_on_c, 0, 59, 89
3, 247264, Note_on_c, 0, 59, 0
3, 247296, Note_on_c, 0, 60, 89
3, 247360, Note_on_c, 0, 60, 0
3, 247392, Note_on_c, 0, 59, 89
3, 247456, Note_on_c, 0, 59, 0
3, 247488, Note_on_c, 0, 60, 89
3, 247552, Note_on_c, 0, 60, 0
3, 247584, Note_on_c, 0, 55, 89
3, 247648, Note_on_c, 0, 55, 0
3, 247680, Note_on_c, 0, 60, 89
3, 247744, Note_on_c, 0, 60, 0
3, 247776, Note_on_c, 0, 59, 89
3, 247840, Note_on_c, 0, 59, 0
3, 247872, Note_on_c, 0, 60, 89
3, 247936, Note_on_c, 0, 60, 0
3, 247968, Note_on_c, 0, 62, 89
3, 248032, Note_on_c, 0, 62, 0
3, 248064, Note_on_c, 0, 60, 89
3, 248128, Note_on_c, 0, 60, 0
3, 248160, Note_on_c, 0, 59, 89
3, 248224, Note_on_c, 0, 59, 0
3, 248256, Note_on_c, 0, 57, 89
3, 248320, Note_on_c, 0, 57, 0
3, 248352, Note_on_c, 0, 55, 89
3, 248416, Note_on_c, 0, 55, 0
3, 248448, Note_on_c, 0, 56, 89
3, 248512, Note_on_c, 0, 56, 0
3, 248544, Note_on_c, 0, 57, 89
3, 248608, Note_on_c, 0, 57, 0
3, 248640, Note_on_c, 0, 58, 89
3, 248704, Note_on_c, 0, 58, 0
3, 248736, Note_on_c, 0, 59, 89
3, 248800, Note_on_c, 0, 59, 0
3, 248832, Note_on_c, 0, 60, 89
3, 248896, Note_on_c, 0, 60, 0
3, 248928, Note_on_c, 0, 62, 89
3, 248992, Note_on_c, 0, 62, 0
3, 249024, Note_on_c, 0, 63, 89
3, 249088, Note_on_c, 0, 63, 0
3, 249120, Note_on_c, 0, 62, 89
3, 249184, Note_on_c, 0, 62, 0
3, 249216, Note_on_c, 0, 60, 89
3, 249280, Note_on_c, 0, 60, 0
3, 249312, Note_on_c, 0, 62, 89
3, 249376, Note_on_c, 0, 62, 0
3, 249408, Note_on_c, 0, 63, 89
3, 249472, Note_on_c, 0, 63, 0
3, 249504, Note_on_c, 0, 62, 89
3, 249568, Note_on_c, 0, 62, 0
3, 249600, Note_on_c, 0, 60, 89
3, 249664, Note_on_c, 0, 60, 0
3, 249696, Note_on_c, 0, 62, 89
3, 249760, Note_on_c, 0, 62, 0
3, 249792, Note_on_c, 0, 58, 89
3, 249856, Note_on_c, 0, 58, 0
3, 249888, Note_on_c, 0, 60, 89
3, 249952, Note_on_c, 0, 60, 0
3, 249984, Note_on_c, 0, 57, 89
3, 250048, Note_on_c, 0, 57, 0
3, 250080, Note_on_c, 0, 58, 89
3, 250144, Note_on_c, 0, 58, 0
3, 250176, Note_on_c, 0, 55, 89
3, 250240, Note_on_c, 0, 55, 0
3, 250272, Note_on_c, 0, 57, 89
3, 250336, Note_on_c, 0, 57, 0
3, 250368, Note_on_c, 0, 54, 89
3, 250432, Note_on_c, 0, 54, 0
3, 258048, Note_on_c, 0, 60, 89
3, 258176, Note_on_c, 0, 60, 0
3, 258240, Note_on_c, 0, 64, 89
3, 258304, Note_on_c, 0, 64, 0
3, 258336, Note_on_c, 0, 62, 89
3, 258400, Note_on_c, 0, 62, 0
3, 258432, Note_on_c, 0, 60, 89
3, 258560, Note_on_c, 0, 60, 0
3, 258624, Note_on_c, 0, 64, 89
3, 258688, Note_on_c, 0, 64, 0
3, 258720, Note_on_c, 0, 62, 89
3, 258784, Note_on_c, 0, 62, 0
3, 258816, Note_on_c, 0, 60, 89
3, 259196, Note_on_c, 0, 60, 0
3, 259584, Note_on_c, 0, 53, 89
3, 259712, Note_on_c, 0, 53, 0
3, 261120, Note_on_c, 0, 58, 89
3, 261248, Note_on_c, 0, 58, 0
3, 261312, Note_on_c, 0, 62, 89
3, 261376, Note_on_c, 0, 62, 0
3, 261408, Note_on_c, 0, 60, 89
3, 261472, Note_on_c, 0, 60, 0
3, 261504, Note_on_c, 0, 58, 89
3, 261632, Note_on_c, 0, 58, 0
3, 261696, Note_on_c, 0, 62, 89
3, 261760, Note_on_c, 0, 62, 0
3, 261792, Note_on_c, 0, 60, 89
3, 261856, Note_on_c, 0, 60, 0
3, 261888, Note_on_c, 0, 58, 89
3, 262268, Note_on_c, 0, 58, 0
3, 262784, Note_on_c, 0, 51, 89
3, 262880, Note_on_c, 0, 51, 0
3, 262912, Note_on_c, 0, 50, 89
3, 263008, Note_on_c, 0, 50, 0
3, 263040, Note_on_c, 0, 51, 89
3, 263136, Note_on_c, 0, 51, 0
3, 263168, Note_on_c, 0, 55, 89
3, 263264, Note_on_c, 0, 55, 0
3, 263296, Note_on_c, 0, 54, 89
3, 263392, Note_on_c, 0, 54, 0
3, 263424, Note_on_c, 0, 55, 89
3, 263520, Note_on_c, 0, 55, 0
3, 263552, Note_on_c, 0, 58, 89
3, 263648, Note_on_c, 0, 58, 0
3, 263680, Note_on_c, 0, 57, 89
3, 263776, Note_on_c, 0, 57, 0
3, 266496, Note_on_c, 0, 62, 89
3, 266592, Note_on_c, 0, 62, 0
3, 266624, Note_on_c, 0, 58, 89
3, 266720, Note_on_c, 0, 58, 0
3, 266752, Note_on_c, 0, 57, 89
3, 266848, Note_on_c, 0, 57, 0
3, 266880, Note_on_c, 0, 58, 89
3, 266976, Note_on_c, 0, 58, 0
3, 267008, Note_on_c, 0, 53, 89
3, 267104, Note_on_c, 0, 53, 0
3, 267136, Note_on_c, 0, 52, 89
3, 267232, Note_on_c, 0, 52, 0
3, 267264, Note_on_c, 0, 53, 89
3, 267360, Note_on_c, 0, 53, 0
3, 267392, Note_on_c, 0, 50, 89
3, 267488, Note_on_c, 0, 50, 0
3, 267520, Note_on_c, 0, 49, 89
3, 267616, Note_on_c, 0, 49, 0
3, 267648, Note_on_c, 0, 50, 89
3, 267744, Note_on_c, 0, 50, 0
3, 267776, Note_on_c, 0, 46, 89
3, 267872, Note_on_c, 0, 46, 0
3, 267904, Note_on_c, 0, 45, 89
3, 268000, Note_on_c, 0, 45, 0
3, 268032, Note_on_c, 0, 46, 89
3, 268128, Note_on_c, 0, 46, 0
3, 268160, Note_on_c, 0, 53, 89
3, 268256, Note_on_c, 0, 53, 0
3, 268288, Note_on_c, 0, 51, 89
3, 268384, Note_on_c, 0, 51, 0
3, 268416, Note_on_c, 0, 50, 89
3, 268512, Note_on_c, 0, 50, 0
3, 268544, Note_on_c, 0, 48, 89
3, 268640, Note_on_c, 0, 48, 0
3, 268672, Note_on_c, 0, 46, 89
3, 268800, Note_on_c, 0, 51, 89
3, 268804, Note_on_c, 0, 46, 0
3, 268896, Note_on_c, 0, 51, 0
3, 268928, Note_on_c, 0, 48, 89
3, 269024, Note_on_c, 0, 48, 0
3, 269056, Note_on_c, 0, 47, 89
3, 269152, Note_on_c, 0, 47, 0
3, 269184, Note_on_c, 0, 48, 89
3, 269280, Note_on_c, 0, 48, 0
3, 269312, Note_on_c, 0, 51, 89
3, 269408, Note_on_c, 0, 51, 0
3, 269440, Note_on_c, 0, 50, 89
3, 269536, Note_on_c, 0, 50, 0
3, 269568, Note_on_c, 0, 51, 89
3, 269664, Note_on_c, 0, 51, 0
3, 269696, Note_on_c, 0, 55, 89
3, 269792, Note_on_c, 0, 55, 0
3, 269824, Note_on_c, 0, 54, 89
3, 269920, Note_on_c, 0, 54, 0
3, 269952, Note_on_c, 0, 55, 89
3, 270048, Note_on_c, 0, 55, 0
3, 270080, Note_on_c, 0, 60, 89
3, 270176, Note_on_c, 0, 60, 0
3, 270208, Note_on_c, 0, 59, 89
3, 270304, Note_on_c, 0, 59, 0
3, 272256, Note_on_c, 0, 62, 89
3, 272352, Note_on_c, 0, 62, 0
3, 272384, Note_on_c, 0, 58, 89
3, 272480, Note_on_c, 0, 58, 0
3, 272512, Note_on_c, 0, 57, 89
3, 272608, Note_on_c, 0, 57, 0
3, 272640, Note_on_c, 0, 58, 89
3, 272736, Note_on_c, 0, 58, 0
3, 272768, Note_on_c, 0, 55, 89
3, 272864, Note_on_c, 0, 55, 0
3, 272896, Note_on_c, 0, 54, 89
3, 272992, Note_on_c, 0, 54, 0
3, 273024, Note_on_c, 0, 55, 89
3, 273120, Note_on_c, 0, 55, 0
3, 273152, Note_on_c, 0, 50, 89
3, 273248, Note_on_c, 0, 50, 0
3, 273280, Note_on_c, 0, 49, 89
3, 273376, Note_on_c, 0, 49, 0
3, 273408, Note_on_c, 0, 50, 89
3, 273504, Note_on_c, 0, 50, 0
3, 273536, Note_on_c, 0, 58, 89
3, 273536, Note_on_c, 0, 46, 89
3, 273632, Note_on_c, 0, 46, 0
3, 273632, Note_on_c, 0, 58, 0
3, 273664, Note_on_c, 0, 57, 89
3, 273664, Note_on_c, 0, 45, 89
3, 273760, Note_on_c, 0, 45, 0
3, 273760, Note_on_c, 0, 57, 0
3, 273792, Note_on_c, 0, 58, 89
3, 273792, Note_on_c, 0, 46, 89
3, 273888, Note_on_c, 0, 46, 0
3, 273888, Note_on_c, 0, 58, 0
3, 273920, Note_on_c, 0, 55, 89
3, 273920, Note_on_c, 0, 43, 89
3, 274016, Note_on_c, 0, 43, 0
3, 274016, Note_on_c, 0, 55, 0
3, 274048, Note_on_c, 0, 54, 89
3, 274048, Note_on_c, 0, 42, 89
3, 274144, Note_on_c, 0, 42, 0
3, 274144, Note_on_c, 0, 54, 0
3, 274176, Note_on_c, 0, 55, 89
3, 274176, Note_on_c, 0, 43, 89
3, 274272, Note_on_c, 0, 43, 0
3, 274272, Note_on_c, 0, 55, 0
3, 274304, Note_on_c, 0, 61, 89
3, 274304, Note_on_c, 0, 49, 89
3, 274400, Note_on_c, 0, 49, 0
3, 274400, Note_on_c, 0, 61, 0
3, 274432, Note_on_c, 0, 60, 89
3, 274432, Note_on_c, 0, 48, 89
3, 274528, Note_on_c, 0, 48, 0
3, 274528, Note_on_c, 0, 60, 0
3, 274560, Note_on_c, 0, 58, 89
3, 274560, Note_on_c, 0, 46, 89
3, 274656, Note_on_c, 0, 46, 0
3, 274656, Note_on_c, 0, 58, 0
3, 274688, Note_on_c, 0, 56, 89
3, 274688, Note_on_c, 0, 44, 89
3, 274784, Note_on_c, 0, 44, 0
3, 274784, Note_on_c, 0, 56, 0
3, 274816, Note_on_c, 0, 55, 89
3, 274816, Note_on_c, 0, 43, 89
3, 274912, Note_on_c, 0, 43, 0
3, 274912, Note_on_c, 0, 55, 0
3, 274944, Note_on_c, 0, 44, 89
3, 274944, Note_on_c, 0, 32, 89
3, 276476, Note_on_c, 0, 32, 0
3, 276476, Note_on_c, 0, 44, 0
3, 276480, Note_on_c, 0, 56, 89
3, 276480, Note_on_c, 0, 44, 89
3, 278012, Note_on_c, 0, 44, 0
3, 278012, Note_on_c, 0, 56, 0
3, 278016, Note_on_c, 0, 51, 89
3, 278016, Note_on_c, 0, 39, 89
3, 278396, Note_on_c, 0, 39, 0
3, 278396, Note_on_c, 0, 51, 0
3, 281088, Note_on_c, 0, 41, 89
3, 281184, Note_on_c, 0, 41, 0
3, 281216, Note_on_c, 0, 45, 89
3, 281312, Note_on_c, 0, 45, 0
3, 281344, Note_on_c, 0, 48, 89
3, 281440, Note_on_c, 0, 48, 0
3, 281472, Note_on_c, 0, 53, 89
3, 281568, Note_on_c, 0, 53, 0
3, 281600, Note_on_c, 0, 57, 89
3, 281696, Note_on_c, 0, 57, 0
3, 281728, Note_on_c, 0, 60, 89
3, 281824, Note_on_c, 0, 60, 0
3, 281856, Note_on_c, 0, 41, 89
3, 282236, Note_on_c, 0, 41, 0
3, 282624, Note_on_c, 0, 41, 89
3, 282720, Note_on_c, 0, 41, 0
3, 282752, Note_on_c, 0, 46, 89
3, 282848, Note_on_c, 0, 46, 0
3, 282880, Note_on_c, 0, 50, 89
3, 282976, Note_on_c, 0, 50, 0
3, 283008, Note_on_c, 0, 53, 89
3, 283104, Note_on_c, 0, 53, 0
3, 283136, Note_on_c, 0, 58, 89
3, 283232, Note_on_c, 0, 58, 0
3, 283264, Note_on_c, 0, 62, 89
3, 283360, Note_on_c, 0, 62, 0
3, 283392, Note_on_c, 0, 41, 89
3, 283648, Note_on_c, 0, 41, 0
3, 284160, Note_on_c, 0, 43, 89
3, 284256, Note_on_c, 0, 43, 0
3, 284288, Note_on_c, 0, 46, 89
3, 284384, Note_on_c, 0, 46, 0
3, 284416, Note_on_c, 0, 52, 89
3, 284512, Note_on_c, 0, 52, 0
3, 284544, Note_on_c, 0, 55, 89
3, 284640, Note_on_c, 0, 55, 0
3, 284672, Note_on_c, 0, 58, 89
3, 284768, Note_on_c, 0, 58, 0
3, 284800, Note_on_c, 0, 64, 89
3, 284896, Note_on_c, 0, 64, 0
3, 284928, Note_on_c, 0, 43, 89
3, 285184, Note_on_c, 0, 43, 0
3, 285696, Note_on_c, 0, 41, 89
3, 285792, Note_on_c, 0, 41, 0
3, 285824, Note_on_c, 0, 45, 89
3, 285920, Note_on_c, 0, 45, 0
3, 285952, Note_on_c, 0, 48, 89
3, 286048, Note_on_c, 0, 48, 0
3, 286080, Note_on_c, 0, 53, 89
3, 286176, Note_on_c, 0, 53, 0
3, 286208, Note_on_c, 0, 57, 89
3, 286304, Note_on_c, 0, 57, 0
3, 286336, Note_on_c, 0, 60, 89
3, 286432, Note_on_c, 0, 60, 0
3, 286464, Note_on_c, 0, 41, 89
3, 286720, Note_on_c, 0, 41, 0
3, 287232, Note_on_c, 0, 53, 89
3, 287360, Note_on_c, 0, 53, 0
3, 287424, Note_on_c, 0, 57, 89
3, 287552, Note_on_c, 0, 57, 0
3, 287616, Note_on_c, 0, 60, 89
3, 287744, Note_on_c, 0, 60, 0
3, 287808, Note_on_c, 0, 57, 89
3, 287936, Note_on_c, 0, 57, 0
3, 288000, Note_on_c, 0, 53, 89
3, 288128, Note_on_c, 0, 53, 0
3, 288192, Note_on_c, 0, 57, 89
3, 288320, Note_on_c, 0, 57, 0
3, 288384, Note_on_c, 0, 60, 89
3, 288512, Note_on_c, 0, 60, 0
3, 288576, Note_on_c, 0, 57, 89
3, 288704, Note_on_c, 0, 57, 0
3, 288768, Note_on_c, 0, 53, 89
3, 288896, Note_on_c, 0, 53, 0
3, 288960, Note_on_c, 0, 58, 89
3, 289088, Note_on_c, 0, 58, 0
3, 289152, Note_on_c, 0, 61, 89
3, 289280, Note_on_c, 0, 61, 0
3, 289344, Note_on_c, 0, 58, 89
3, 289472, Note_on_c, 0, 58, 0
3, 289536, Note_on_c, 0, 53, 89
3, 289664, Note_on_c, 0, 53, 0
3, 289728, Note_on_c, 0, 58, 89
3, 289856, Note_on_c, 0, 58, 0
3, 289920, Note_on_c, 0, 61, 89
3, 290048, Note_on_c, 0, 61, 0
3, 290112, Note_on_c, 0, 58, 89
3, 290240, Note_on_c, 0, 58, 0
3, 290304, Note_on_c, 0, 54, 89
3, 290432, Note_on_c, 0, 54, 0
3, 290496, Note_on_c, 0, 58, 89
3, 290624, Note_on_c, 0, 58, 0
3, 290688, Note_on_c, 0, 61, 89
3, 290816, Note_on_c, 0, 61, 0
3, 290880, Note_on_c, 0, 58, 89
3, 291008, Note_on_c, 0, 58, 0
3, 291072, Note_on_c, 0, 54, 89
3, 291200, Note_on_c, 0, 54, 0
3, 291264, Note_on_c, 0, 58, 89
3, 291392, Note_on_c, 0, 58, 0
3, 291456, Note_on_c, 0, 61, 89
3, 291584, Note_on_c, 0, 61, 0
3, 291648, Note_on_c, 0, 58, 89
3, 291776, Note_on_c, 0, 58, 0
3, 291840, Note_on_c, 0, 53, 89
3, 291840, Note_on_c, 0, 57, 89
3, 292220, Note_on_c, 0, 57, 0
3, 292220, Note_on_c, 0, 53, 0
3, 307200, Note_on_c, 0, 58, 89
3, 307200, Note_on_c, 0, 46, 89
3, 307580, Note_on_c, 0, 46, 0
3, 307580, Note_on_c, 0, 58, 0
3, 308736, Note_on_c, 0, 53, 89
3, 308736, Note_on_c, 0, 41, 89
3, 309116, Note_on_c, 0, 41, 0
3, 309116, Note_on_c, 0, 53, 0
3, 316416, Note_on_c, 0, 58, 89
3, 316416, Note_on_c, 0, 62, 89
3, 316544, Note_on_c, 0, 62, 0
3, 316544, Note_on_c, 0, 58, 0
3, 316608, Note_on_c, 0, 58, 89
3, 316608, Note_on_c, 0, 62, 89
3, 316736, Note_on_c, 0, 62, 0
3, 316736, Note_on_c, 0, 58, 0
3, 316800, Note_on_c, 0, 60, 89
3, 316800, Note_on_c, 0, 53, 89
3, 316928, Note_on_c, 0, 53, 0
3, 316928, Note_on_c, 0, 60, 0
3, 316992, Note_on_c, 0, 60, 89
3, 316992, Note_on_c, 0, 53, 89
3, 317120, Note_on_c, 0, 53, 0
3, 317120, Note_on_c, 0, 60, 0
3, 317184, Note_on_c, 0, 58, 89
3, 317184, Note_on_c, 0, 50, 89
3, 317564, Note_on_c, 0, 50, 0
3, 317564, Note_on_c, 0, 58, 0
3, 317952, Note_on_c, 0, 58, 89
3, 317952, Note_on_c, 0, 62, 89
3, 318080, Note_on_c, 0, 62, 0
3, 318080, Note_on_c, 0, 58, 0
3, 318144, Note_on_c, 0, 58, 89
3, 318144, Note_on_c, 0, 62, 89
3, 318272, Note_on_c, 0, 62, 0
3, 318272, Note_on_c, 0, 58, 0
3, 318336, Note_on_c, 0, 60, 89
3, 318336, Note_on_c, 0, 53, 89
3, 318464, Note_on_c, 0, 53, 0
3, 318464, Note_on_c, 0, 60, 0
3, 318528, Note_on_c, 0, 60, 89
3, 318528, Note_on_c, 0, 53, 89
3, 318656, Note_on_c, 0, 53, 0
3, 318656, Note_on_c, 0, 60, 0
3, 318720, Note_on_c, 0, 58, 89
3, 318720, Note_on_c, 0, 50, 89
3, 319100, Note_on_c, 0, 50, 0
3, 319100, Note_on_c, 0, 58, 0
3, 319488, Note_on_c, 0, 58, 89
3, 319488, Note_on_c, 0, 62, 89
3, 319616, Note_on_c, 0, 62, 0
3, 319616, Note_on_c, 0, 58, 0
3, 319680, Note_on_c, 0, 58, 89
3, 319680, Note_on_c, 0, 62, 89
3, 319808, Note_on_c, 0, 62, 0
3, 319808, Note_on_c, 0, 58, 0
3, 319872, Note_on_c, 0, 53, 89
3, 319872, Note_on_c, 0, 60, 89
3, 320000, Note_on_c, 0, 60, 0
3, 320000, Note_on_c, 0, 53, 0
3, 320064, Note_on_c, 0, 60, 89
3, 320064, Note_on_c, 0, 53, 89
3, 320192, Note_on_c, 0, 53, 0
3, 320192, Note_on_c, 0, 60, 0
3, 320256, Note_on_c, 0, 58, 89
3, 320256, Note_on_c, 0, 50, 89
3, 320384, Note_on_c, 0, 50, 0
3, 320384, Note_on_c, 0, 58, 0
3, 320448, Note_on_c, 0, 58, 89
3, 320448, Note_on_c, 0, 50, 89
3, 320576, Note_on_c, 0, 50, 0
3, 320576, Note_on_c, 0, 58, 0
3, 320640, Note_on_c, 0, 60, 89
3, 320640, Note_on_c, 0, 53, 89
3, 320768, Note_on_c, 0, 53, 0
3, 320768, Note_on_c, 0, 60, 0
3, 320832, Note_on_c, 0, 60, 89
3, 320832, Note_on_c, 0, 53, 89
3, 320960, Note_on_c, 0, 53, 0
3, 320960, Note_on_c, 0, 60, 0
3, 321024, Note_on_c, 0, 58, 89
3, 321024, Note_on_c, 0, 62, 89
3, 321152, Note_on_c, 0, 62, 0
3, 321152, Note_on_c, 0, 58, 0
3, 321216, Note_on_c, 0, 58, 89
3, 321216, Note_on_c, 0, 62, 89
3, 321344, Note_on_c, 0, 62, 0
3, 321344, Note_on_c, 0, 58, 0
3, 321408, Note_on_c, 0, 60, 89
3, 321408, Note_on_c, 0, 53, 89
3, 321536, Note_on_c, 0, 53, 0
3, 321536, Note_on_c, 0, 60, 0
3, 321600, Note_on_c, 0, 60, 89
3, 321600, Note_on_c, 0, 53, 89
3, 321728, Note_on_c, 0, 53, 0
3, 321728, Note_on_c, 0, 60, 0
3, 321792, Note_on_c, 0, 58, 89
3, 321792, Note_on_c, 0, 50, 89
3, 321920, Note_on_c, 0, 50, 0
3, 321920, Note_on_c, 0, 58, 0
3, 321984, Note_on_c, 0, 58, 89
3, 321984, Note_on_c, 0, 50, 89
3, 322112, Note_on_c, 0, 50, 0
3, 322112, Note_on_c, 0, 58, 0
3, 322176, Note_on_c, 0, 60, 89
3, 322176, Note_on_c, 0, 53, 89
3, 322304, Note_on_c, 0, 53, 0
3, 322304, Note_on_c, 0, 60, 0
3, 322368, Note_on_c, 0, 60, 89
3, 322368, Note_on_c, 0, 53, 89
3, 322496, Note_on_c, 0, 53, 0
3, 322496, Note_on_c, 0, 60, 0
3, 322560, Note_on_c, 0, 58, 89
3, 322560, Note_on_c, 0, 62, 89
3, 322688, Note_on_c, 0, 62, 0
3, 322688, Note_on_c, 0, 58, 0
3, 322752, Note_on_c, 0, 58, 89
3, 322752, Note_on_c, 0, 62, 89
3, 322880, Note_on_c, 0, 62, 0
3, 322880, Note_on_c, 0, 58, 0
3, 322944, Note_on_c, 0, 60, 89
3, 322944, Note_on_c, 0, 51, 89
3, 323072, Note_on_c, 0, 51, 0
3, 323072, Note_on_c, 0, 60, 0
3, 323136, Note_on_c, 0, 60, 89
3, 323136, Note_on_c, 0, 51, 89
3, 323264, Note_on_c, 0, 51, 0
3, 323264, Note_on_c, 0, 60, 0
3, 323328, Note_on_c, 0, 58, 89
3, 323328, Note_on_c, 0, 53, 89
3, 323456, Note_on_c, 0, 53, 0
3, 323456, Note_on_c, 0, 58, 0
3, 323520, Note_on_c, 0, 58, 89
3, 323520, Note_on_c, 0, 53, 89
3, 323648, Note_on_c, 0, 53, 0
3, 323648, Note_on_c, 0, 58, 0
3, 323712, Note_on_c, 0, 53, 89
3, 323712, Note_on_c, 0, 57, 89
3, 323840, Note_on_c, 0, 57, 0
3, 323840, Note_on_c, 0, 53, 0
3, 323904, Note_on_c, 0, 53, 89
3, 323904, Note_on_c, 0, 57, 89
3, 324032, Note_on_c, 0, 57, 0
3, 324032, Note_on_c, 0, 53, 0
3, 324096, Note_on_c, 0, 58, 89
3, 324224, Note_on_c, 0, 58, 0
3, 324288, Note_on_c, 0, 46, 89
3, 324416, Note_on_c, 0, 46, 0
3, 324480, Note_on_c, 0, 46, 89
3, 324608, Note_on_c, 0, 46, 0
3, 324672, Note_on_c, 0, 46, 89
3, 324800, Note_on_c, 0, 46, 0
3, 324864, Note_on_c, 0, 46, 89
3, 324992, Note_on_c, 0, 46, 0
3, 325056, Note_on_c, 0, 46, 89
3, 325184, Note_on_c, 0, 46, 0
3, 325248, Note_on_c, 0, 46, 89
3, 325376, Note_on_c, 0, 46, 0
3, 325440, Note_on_c, 0, 46, 89
3, 325568, Note_on_c, 0, 46, 0
3, 325632, Note_on_c, 0, 48, 89
3, 325760, Note_on_c, 0, 48, 0
3, 325824, Note_on_c, 0, 60, 89
3, 325952, Note_on_c, 0, 60, 0
3, 326016, Note_on_c, 0, 63, 89
3, 326144, Note_on_c, 0, 63, 0
3, 326208, Note_on_c, 0, 62, 89
3, 326336, Note_on_c, 0, 62, 0
3, 326400, Note_on_c, 0, 60, 89
3, 326528, Note_on_c, 0, 60, 0
3, 326592, Note_on_c, 0, 58, 89
3, 326720, Note_on_c, 0, 58, 0
3, 326784, Note_on_c, 0, 57, 89
3, 326912, Note_on_c, 0, 57, 0
3, 326976, Note_on_c, 0, 55, 89
3, 327104, Note_on_c, 0, 55, 0
3, 327168, Note_on_c, 0, 53, 89
3, 327296, Note_on_c, 0, 53, 0
3, 327360, Note_on_c, 0, 53, 89
3, 327488, Note_on_c, 0, 53, 0
3, 327552, Note_on_c, 0, 53, 89
3, 327680, Note_on_c, 0, 53, 0
3, 327744, Note_on_c, 0, 53, 89
3, 327872, Note_on_c, 0, 53, 0
3, 327936, Note_on_c, 0, 53, 89
3, 328064, Note_on_c, 0, 53, 0
3, 328128, Note_on_c, 0, 53, 89
3, 328256, Note_on_c, 0, 53, 0
3, 328320, Note_on_c, 0, 53, 89
3, 328448, Note_on_c, 0, 53, 0
3, 328512, Note_on_c, 0, 53, 89
3, 328640, Note_on_c, 0, 53, 0
3, 328704, Note_on_c, 0, 50, 89
3, 328832, Note_on_c, 0, 50, 0
3, 328896, Note_on_c, 0, 58, 89
3, 329024, Note_on_c, 0, 58, 0
3, 329088, Note_on_c, 0, 62, 89
3, 329216, Note_on_c, 0, 62, 0
3, 329280, Note_on_c, 0, 58, 89
3, 329408, Note_on_c, 0, 58, 0
3, 329472, Note_on_c, 0, 53, 89
3, 329600, Note_on_c, 0, 53, 0
3, 329664, Note_on_c, 0, 58, 89
3, 329792, Note_on_c, 0, 58, 0
3, 329856, Note_on_c, 0, 53, 89
3, 329984, Note_on_c, 0, 53, 0
3, 330048, Note_on_c, 0, 51, 89
3, 330176, Note_on_c, 0, 51, 0
3, 330240, Note_on_c, 0, 50, 89
3, 330368, Note_on_c, 0, 50, 0
3, 330432, Note_on_c, 0, 53, 89
3, 330560, Note_on_c, 0, 53, 0
3, 330624, Note_on_c, 0, 56, 89
3, 330752, Note_on_c, 0, 56, 0
3, 330816, Note_on_c, 0, 53, 89
3, 330944, Note_on_c, 0, 53, 0
3, 331008, Note_on_c, 0, 50, 89
3, 331136, Note_on_c, 0, 50, 0
3, 331200, Note_on_c, 0, 53, 89
3, 331328, Note_on_c, 0, 53, 0
3, 331392, Note_on_c, 0, 50, 89
3, 331520, Note_on_c, 0, 50, 0
3, 331584, Note_on_c, 0, 48, 89
3, 331712, Note_on_c, 0, 48, 0
3, 331776, Note_on_c, 0, 47, 89
3, 332156, Note_on_c, 0, 47, 0
3, 332160, Note_on_c, 0, 59, 89
3, 332540, Note_on_c, 0, 59, 0
3, 336384, Note_on_c, 0, 62, 89
3, 336384, Note_on_c, 0, 65, 89
3, 336384, Note_on_c, 0, 55, 89
3, 336764, Note_on_c, 0, 65, 0
3, 336764, Note_on_c, 0, 62, 0
3, 336768, Note_on_c, 0, 60, 89
3, 336768, Note_on_c, 0, 63, 89
3, 337148, Note_on_c, 0, 63, 0
3, 337148, Note_on_c, 0, 60, 0
3, 337152, Note_on_c, 0, 59, 89
3, 337152, Note_on_c, 0, 62, 89
3, 337916, Note_on_c, 0, 62, 0
3, 337916, Note_on_c, 0, 59, 0
3, 337916, Note_on_c, 0, 55, 0
3, 342528, Note_on_c, 0, 57, 89
3, 342528, Note_on_c, 0, 60, 89
3, 344060, Note_on_c, 0, 60, 0
3, 344060, Note_on_c, 0, 57, 0
3, 344064, Note_on_c, 0, 58, 89
3, 344320, Note_on_c, 0, 58, 0
3, 345600, Note_on_c, 0, 60, 89
3, 345600, Note_on_c, 0, 51, 89
3, 345600, Note_on_c, 0, 55, 89
3, 346556, Note_on_c, 0, 55, 0
3, 346752, Note_on_c, 0, 52, 89
3, 347132, Note_on_c, 0, 52, 0
3, 347132, Note_on_c, 0, 51, 0
3, 347132, Note_on_c, 0, 60, 0
3, 347136, Note_on_c, 0, 57, 89
3, 347136, Note_on_c, 0, 53, 89
3, 347136, Note_on_c, 0, 60, 89
3, 347516, Note_on_c, 0, 60, 0
3, 347516, Note_on_c, 0, 53, 0
3, 347516, Note_on_c, 0, 57, 0
3, 349440, Note_on_c, 0, 43, 89
3, 349440, Note_on_c, 0, 46, 89
3, 349440, Note_on_c, 0, 48, 89
3, 349952, Note_on_c, 0, 48, 0
3, 349952, Note_on_c, 0, 46, 0
3, 349952, Note_on_c, 0, 43, 0
3, 350208, Note_on_c, 0, 48, 89
3, 350208, Note_on_c, 0, 45, 89
3, 350208, Note_on_c, 0, 41, 89
3, 350588, Note_on_c, 0, 41, 0
3, 350588, Note_on_c, 0, 45, 0
3, 350588, Note_on_c, 0, 48, 0
3, 352512, Note_on_c, 0, 55, 89
3, 352512, Note_on_c, 0, 60, 89
3, 352512, Note_on_c, 0, 58, 89
3, 353276, Note_on_c, 0, 58, 0
3, 353276, Note_on_c, 0, 60, 0
3, 353276, Note_on_c, 0, 55, 0
3, 353280, Note_on_c, 0, 57, 89
3, 353280, Note_on_c, 0, 60, 89
3, 353280, Note_on_c, 0, 53, 89
3, 353408, Note_on_c, 0, 53, 0
3, 353408, Note_on_c, 0, 60, 0
3, 353408, Note_on_c, 0, 57, 0
3, 353472, Note_on_c, 0, 41, 89
3, 353536, Note_on_c, 0, 41, 0
3, 353568, Note_on_c, 0, 53, 89
3, 353632, Note_on_c, 0, 53, 0
3, 353664, Note_on_c, 0, 43, 89
3, 353728, Note_on_c, 0, 43, 0
3, 353760, Note_on_c, 0, 55, 89
3, 353824, Note_on_c, 0, 55, 0
3, 353856, Note_on_c, 0, 45, 89
3, 353920, Note_on_c, 0, 45, 0
3, 353952, Note_on_c, 0, 57, 89
3, 354016, Note_on_c, 0, 57, 0
3, 354048, Note_on_c, 0, 46, 89
3, 354112, Note_on_c, 0, 46, 0
3, 354144, Note_on_c, 0, 58, 89
3, 354208, Note_on_c, 0, 58, 0
3, 354240, Note_on_c, 0, 48, 89
3, 354304, Note_on_c, 0, 48, 0
3, 354336, Note_on_c, 0, 60, 89
3, 354400, Note_on_c, 0, 60, 0
3, 354432, Note_on_c, 0, 50, 89
3, 354496, Note_on_c, 0, 50, 0
3, 354528, Note_on_c, 0, 62, 89
3, 354592, Note_on_c, 0, 62, 0
3, 354624, Note_on_c, 0, 52, 89
3, 354688, Note_on_c, 0, 52, 0
3, 354720, Note_on_c, 0, 64, 89
3, 354784, Note_on_c, 0, 64, 0
3, 354816, Note_on_c, 0, 53, 89
3, 355072, Note_on_c, 0, 53, 0
3, 364032, Note_on_c, 0, 65, 89
3, 364032, Note_on_c, 0, 53, 89
3, 364800, Note_on_c, 0, 65, 89
3, 364800, Note_on_c, 0, 53, 89
3, 364988, Note_on_c, 0, 53, 0
3, 364988, Note_on_c, 0, 65, 0
3, 365180, Note_on_c, 0, 65, 0
3, 365180, Note_on_c, 0, 53, 0
3, 365568, Note_on_c, 0, 53, 89
3, 365696, Note_on_c, 0, 53, 0
3, 365760, Note_on_c, 0, 60, 89
3, 365888, Note_on_c, 0, 60, 0
3, 365952, Note_on_c, 0, 63, 89
3, 366080, Note_on_c, 0, 63, 0
3, 366144, Note_on_c, 0, 60, 89
3, 366272, Note_on_c, 0, 60, 0
3, 366336, Note_on_c, 0, 63, 89
3, 366464, Note_on_c, 0, 63, 0
3, 366528, Note_on_c, 0, 60, 89
3, 366656, Note_on_c, 0, 60, 0
3, 366720, Note_on_c, 0, 58, 89
3, 366848, Note_on_c, 0, 58, 0
3, 366912, Note_on_c, 0, 62, 89
3, 367040, Note_on_c, 0, 62, 0
3, 367104, Note_on_c, 0, 60, 89
3, 367104, Note_on_c, 0, 57, 89
3, 367104, Note_on_c, 0, 53, 89
3, 367484, Note_on_c, 0, 53, 0
3, 367484, Note_on_c, 0, 57, 0
3, 367484, Note_on_c, 0, 60, 0
3, 370176, Note_on_c, 0, 58, 89
3, 370944, Note_on_c, 0, 46, 89
3, 371132, Note_on_c, 0, 58, 0
3, 371324, Note_on_c, 0, 46, 0
3, 371712, Note_on_c, 0, 58, 89
3, 371712, Note_on_c, 0, 55, 89
3, 371712, Note_on_c, 0, 55, 89
3, 371712, Note_on_c, 0, 51, 89
3, 371712, Note_on_c, 0, 46, 89
3, 372092, Note_on_c, 0, 46, 0
3, 372092, Note_on_c, 0, 55, 0
3, 372092, Note_on_c, 0, 58, 0
3, 372092, Note_on_c, 0, 55, 0
3, 372092, Note_on_c, 0, 51, 0
3, 373248, Note_on_c, 0, 58, 89
3, 373248, Note_on_c, 0, 53, 89
3, 373248, Note_on_c, 0, 50, 89
3, 373248, Note_on_c, 0, 46, 89
3, 373628, Note_on_c, 0, 46, 0
3, 373628, Note_on_c, 0, 58, 0
3, 373628, Note_on_c, 0, 53, 0
3, 373628, Note_on_c, 0, 50, 0
3, 374784, Note_on_c, 0, 58, 89
3, 374784, Note_on_c, 0, 51, 89
3, 374784, Note_on_c, 0, 46, 89
3, 374784, Note_on_c, 0, 55, 89
3, 375164, Note_on_c, 0, 55, 0
3, 375164, Note_on_c, 0, 58, 0
3, 375164, Note_on_c, 0, 51, 0
3, 375164, Note_on_c, 0, 46, 0
3, 376320, Note_on_c, 0, 58, 89
3, 376320, Note_on_c, 0, 50, 89
3, 376320, Note_on_c, 0, 46, 89
3, 376320, Note_on_c, 0, 53, 89
3, 376700, Note_on_c, 0, 53, 0
3, 376700, Note_on_c, 0, 58, 0
3, 376700, Note_on_c, 0, 50, 0
3, 376700, Note_on_c, 0, 46, 0
3, 377856, Note_on_c, 0, 43, 89
3, 377920, Note_on_c, 0, 43, 0
3, 377952, Note_on_c, 0, 55, 89
3, 378016, Note_on_c, 0, 55, 0
3, 378048, Note_on_c, 0, 59, 89
3, 378112, Note_on_c, 0, 59, 0
3, 378144, Note_on_c, 0, 62, 89
3, 378208, Note_on_c, 0, 62, 0
3, 378240, Note_on_c, 0, 67, 89
3, 378368, Note_on_c, 0, 67, 0
3, 378624, Note_on_c, 0, 48, 89
3, 378688, Note_on_c, 0, 48, 0
3, 378720, Note_on_c, 0, 60, 89
3, 378784, Note_on_c, 0, 60, 0
3, 379392, Note_on_c, 0, 41, 89
3, 379456, Note_on_c, 0, 41, 0
3, 379488, Note_on_c, 0, 53, 89
3, 379552, Note_on_c, 0, 53, 0
3, 379584, Note_on_c, 0, 57, 89
3, 379648, Note_on_c, 0, 57, 0
3, 379680, Note_on_c, 0, 60, 89
3, 379744, Note_on_c, 0, 60, 0
3, 379776, Note_on_c, 0, 65, 89
3, 379904, Note_on_c, 0, 65, 0
3, 380160, Note_on_c, 0, 46, 89
3, 380224, Note_on_c, 0, 46, 0
3, 380256, Note_on_c, 0, 58, 89
3, 380320, Note_on_c, 0, 58, 0
3, 381312, Note_on_c, 0, 60, 89
3, 381312, Note_on_c, 0, 51, 89
3, 381692, Note_on_c, 0, 51, 0
3, 381692, Note_on_c, 0, 60, 0
3, 381696, Note_on_c, 0, 58, 89
3, 381696, Note_on_c, 0, 53, 89
3, 382076, Note_on_c, 0, 58, 0
3, 382080, Note_on_c, 0, 57, 89
3, 382208, Note_on_c, 0, 53, 0
3, 382460, Note_on_c, 0, 57, 0
3, 382464, Note_on_c, 0, 58, 89
3, 382464, Note_on_c, 0, 46, 89
3, 382844, Note_on_c, 0, 46, 0
3, 382844, Note_on_c, 0, 58, 0
3, 390144, Note_on_c, 0, 50, 89
3, 390144, Note_on_c, 0, 46, 89
3, 390656, Note_on_c, 0, 46, 0
3, 390656, Note_on_c, 0, 50, 0
3, 390912, Note_on_c, 0, 53, 89
3, 390912, Note_on_c, 0, 50, 89
3, 391424, Note_on_c, 0, 50, 0
3, 391424, Note_on_c, 0, 53, 0
3, 391680, Note_on_c, 0, 55, 89
3, 391680, Note_on_c, 0, 51, 89
3, 392192, Note_on_c, 0, 51, 0
3, 392192, Note_on_c, 0, 55, 0
3, 392448, Note_on_c, 0, 55, 89
3, 392448, Note_on_c, 0, 58, 89
3, 392960, Note_on_c, 0, 58, 0
3, 392960, Note_on_c, 0, 55, 0
3, 393216, Note_on_c, 0, 53, 89
3, 393216, Note_on_c, 0, 60, 89
3, 393596, Note_on_c, 0, 60, 0
3, 393600, Note_on_c, 0, 62, 89
3, 393792, Note_on_c, 0, 62, 0
3, 393888, Note_on_c, 0, 63, 89
3, 393952, Note_on_c, 0, 63, 0
3, 393984, Note_on_c, 0, 65, 89
3, 394496, Note_on_c, 0, 65, 0
3, 394748, Note_on_c, 0, 53, 0
3, 395136, Note_on_c, 0, 58, 89
3, 395392, Note_on_c, 0, 58, 0
3, 395520, Note_on_c, 0, 46, 89
3, 395776, Note_on_c, 0, 46, 0
3, 407040, Note_on_c, 0, 46, 89
3, 407104, Note_on_c, 0, 46, 0
3, 407136, Note_on_c, 0, 45, 89
3, 407200, Note_on_c, 0, 45, 0
3, 407232, Note_on_c, 0, 46, 89
3, 407296, Note_on_c, 0, 46, 0
3, 407328, Note_on_c, 0, 48, 89
3, 407392, Note_on_c, 0, 48, 0
3, 407424, Note_on_c, 0, 50, 89
3, 407488, Note_on_c, 0, 50, 0
3, 407520, Note_on_c, 0, 48, 89
3, 407584, Note_on_c, 0, 48, 0
3, 407616, Note_on_c, 0, 50, 89
3, 407680, Note_on_c, 0, 50, 0
3, 407712, Note_on_c, 0, 51, 89
3, 407776, Note_on_c, 0, 51, 0
3, 407808, Note_on_c, 0, 53, 89
3, 407872, Note_on_c, 0, 53, 0
3, 407904, Note_on_c, 0, 52, 89
3, 407968, Note_on_c, 0, 52, 0
3, 408000, Note_on_c, 0, 53, 89
3, 408064, Note_on_c, 0, 53, 0
3, 408096, Note_on_c, 0, 55, 89
3, 408160, Note_on_c, 0, 55, 0
3, 408192, Note_on_c, 0, 57, 89
3, 408256, Note_on_c, 0, 57, 0
3, 408288, Note_on_c, 0, 55, 89
3, 408352, Note_on_c, 0, 55, 0
3, 408384, Note_on_c, 0, 57, 89
3, 408448, Note_on_c, 0, 57, 0
3, 408480, Note_on_c, 0, 53, 89
3, 408544, Note_on_c, 0, 53, 0
3, 408576, Note_on_c, 0, 58, 89
3, 408640, Note_on_c, 0, 58, 0
3, 408672, Note_on_c, 0, 57, 89
3, 408736, Note_on_c, 0, 57, 0
3, 408768, Note_on_c, 0, 58, 89
3, 408832, Note_on_c, 0, 58, 0
3, 408864, Note_on_c, 0, 60, 89
3, 408928, Note_on_c, 0, 60, 0
3, 417792, Note_on_c, 0, 46, 89
3, 417856, Note_on_c, 0, 46, 0
3, 417888, Note_on_c, 0, 50, 89
3, 417952, Note_on_c, 0, 50, 0
3, 417984, Note_on_c, 0, 53, 89
3, 418048, Note_on_c, 0, 53, 0
3, 418080, Note_on_c, 0, 58, 89
3, 418144, Note_on_c, 0, 58, 0
3, 418176, Note_on_c, 0, 62, 89
3, 418304, Note_on_c, 0, 62, 0
3, 418560, Note_on_c, 0, 45, 89
3, 418624, Note_on_c, 0, 45, 0
3, 418656, Note_on_c, 0, 48, 89
3, 418720, Note_on_c, 0, 48, 0
3, 418752, Note_on_c, 0, 53, 89
3, 418816, Note_on_c, 0, 53, 0
3, 418848, Note_on_c, 0, 57, 89
3, 418912, Note_on_c, 0, 57, 0
3, 418944, Note_on_c, 0, 60, 89
3, 419072, Note_on_c, 0, 60, 0
3, 419328, Note_on_c, 0, 43, 89
3, 419392, Note_on_c, 0, 43, 0
3, 419424, Note_on_c, 0, 46, 89
3, 419488, Note_on_c, 0, 46, 0
3, 419520, Note_on_c, 0, 50, 89
3, 419584, Note_on_c, 0, 50, 0
3, 419616, Note_on_c, 0, 55, 89
3, 419680, Note_on_c, 0, 55, 0
3, 419712, Note_on_c, 0, 58, 89
3, 419840, Note_on_c, 0, 58, 0
3, 420096, Note_on_c, 0, 41, 89
3, 420160, Note_on_c, 0, 41, 0
3, 420192, Note_on_c, 0, 45, 89
3, 420256, Note_on_c, 0, 45, 0
3, 420288, Note_on_c, 0, 50, 89
3, 420352, Note_on_c, 0, 50, 0
3, 420384, Note_on_c, 0, 53, 89
3, 420448, Note_on_c, 0, 53, 0
3, 420480, Note_on_c, 0, 57, 89
3, 420608, Note_on_c, 0, 57, 0
3, 420864, Note_on_c, 0, 39, 89
3, 420928, Note_on_c, 0, 39, 0
3, 420960, Note_on_c, 0, 43, 89
3, 421024, Note_on_c, 0, 43, 0
3, 421056, Note_on_c, 0, 46, 89
3, 421120, Note_on_c, 0, 46, 0
3, 421152, Note_on_c, 0, 51, 89
3, 421216, Note_on_c, 0, 51, 0
3, 421248, Note_on_c, 0, 55, 89
3, 421376, Note_on_c, 0, 55, 0
3, 421632, Note_on_c, 0, 38, 89
3, 421696, Note_on_c, 0, 38, 0
3, 421728, Note_on_c, 0, 41, 89
3, 421792, Note_on_c, 0, 41, 0
3, 421824, Note_on_c, 0, 46, 89
3, 421888, Note_on_c, 0, 46, 0
3, 421936, Note_on_c, 0, 50, 89
3, 422000, Note_on_c, 0, 50, 0
3, 422016, Note_on_c, 0, 53, 89
3, 422144, Note_on_c, 0, 53, 0
3, 422400, Note_on_c, 0, 48, 89
3, 422400, Note_on_c, 0, 36, 89
3, 422780, Note_on_c, 0, 36, 0
3, 422780, Note_on_c, 0, 48, 0
3, 422784, Note_on_c, 0, 51, 89
3, 422784, Note_on_c, 0, 39, 89
3, 423164, Note_on_c, 0, 39, 0
3, 423164, Note_on_c, 0, 51, 0
3, 423168, Note_on_c, 0, 53, 89
3, 423168, Note_on_c, 0, 41, 89
3, 423548, Note_on_c, 0, 41, 0
3, 423548, Note_on_c, 0, 53, 0
3, 423552, Note_on_c, 0, 57, 89
3, 423552, Note_on_c, 0, 45, 89
3, 423932, Note_on_c, 0, 45, 0
3, 423932, Note_on_c, 0, 57, 0
3, 424064, Note_on_c, 0, 34, 89
3, 424160, Note_on_c, 0, 34, 0
3, 424192, Note_on_c, 0, 38, 89
3, 424288, Note_on_c, 0, 38, 0
3, 424320, Note_on_c, 0, 41, 89
3, 424416, Note_on_c, 0, 41, 0
3, 424448, Note_on_c, 0, 46, 89
3, 424544, Note_on_c, 0, 46, 0
3, 424576, Note_on_c, 0, 50, 89
3, 424672, Note_on_c, 0, 50, 0
3, 424704, Note_on_c, 0, 53, 89
3, 424800, Note_on_c, 0, 53, 0
3, 424832, Note_on_c, 0, 50, 89
3, 424928, Note_on_c, 0, 50, 0
3, 424960, Note_on_c, 0, 46, 89
3, 425056, Note_on_c, 0, 46, 0
3, 425088, Note_on_c, 0, 43, 89
3, 425184, Note_on_c, 0, 43, 0
3, 425216, Note_on_c, 0, 38, 89
3, 425312, Note_on_c, 0, 38, 0
3, 425344, Note_on_c, 0, 34, 89
3, 425440, Note_on_c, 0, 34, 0
3, 425600, Note_on_c, 0, 39, 89
3, 425696, Note_on_c, 0, 39, 0
3, 425728, Note_on_c, 0, 43, 89
3, 425824, Note_on_c, 0, 43, 0
3, 425856, Note_on_c, 0, 46, 89
3, 425952, Note_on_c, 0, 46, 0
3, 425984, Note_on_c, 0, 51, 89
3, 426080, Note_on_c, 0, 51, 0
3, 426112, Note_on_c, 0, 55, 89
3, 426208, Note_on_c, 0, 55, 0
3, 426240, Note_on_c, 0, 58, 89
3, 426336, Note_on_c, 0, 58, 0
3, 426368, Note_on_c, 0, 55, 89
3, 426464, Note_on_c, 0, 55, 0
3, 426496, Note_on_c, 0, 51, 89
3, 426592, Note_on_c, 0, 51, 0
3, 426624, Note_on_c, 0, 46, 89
3, 426720, Note_on_c, 0, 46, 0
3, 426752, Note_on_c, 0, 43, 89
3, 426848, Note_on_c, 0, 43, 0
3, 426880, Note_on_c, 0, 39, 89
3, 426976, Note_on_c, 0, 39, 0
3, 427136, Note_on_c, 0, 39, 89
3, 427232, Note_on_c, 0, 39, 0
3, 427264, Note_on_c, 0, 43, 89
3, 427360, Note_on_c, 0, 43, 0
3, 427392, Note_on_c, 0, 46, 89
3, 427488, Note_on_c, 0, 46, 0
3, 427520, Note_on_c, 0, 51, 89
3, 427616, Note_on_c, 0, 51, 0
3, 427648, Note_on_c, 0, 55, 89
3, 427744, Note_on_c, 0, 55, 0
3, 427776, Note_on_c, 0, 58, 89
3, 427872, Note_on_c, 0, 58, 0
3, 427904, Note_on_c, 0, 55, 89
3, 428000, Note_on_c, 0, 55, 0
3, 428032, Note_on_c, 0, 51, 89
3, 428128, Note_on_c, 0, 51, 0
3, 428160, Note_on_c, 0, 46, 89
3, 428256, Note_on_c, 0, 46, 0
3, 428288, Note_on_c, 0, 43, 89
3, 428384, Note_on_c, 0, 43, 0
3, 428416, Note_on_c, 0, 39, 89
3, 428544, Note_on_c, 0, 41, 89
3, 428548, Note_on_c, 0, 39, 0
3, 428924, Note_on_c, 0, 41, 0
3, 429312, Note_on_c, 0, 53, 89
3, 429312, Note_on_c, 0, 41, 89
3, 429692, Note_on_c, 0, 41, 0
3, 429692, Note_on_c, 0, 53, 0
3, 430080, Note_on_c, 0, 53, 89
3, 430080, Note_on_c, 0, 41, 89
3, 430460, Note_on_c, 0, 41, 0
3, 430460, Note_on_c, 0, 53, 0
3, 431808, Note_on_c, 0, 65, 89
3, 431808, Note_on_c, 0, 53, 89
3, 431872, Note_on_c, 0, 53, 0
3, 431872, Note_on_c, 0, 65, 0
3, 431904, Note_on_c, 0, 53, 89
3, 431904, Note_on_c, 0, 65, 89
3, 431968, Note_on_c, 0, 65, 0
3, 431968, Note_on_c, 0, 53, 0
3, 432000, Note_on_c, 0, 65, 89
3, 432000, Note_on_c, 0, 53, 89
3, 432380, Note_on_c, 0, 53, 0
3, 432380, Note_on_c, 0, 65, 0
3, 432576, Note_on_c, 0, 65, 89
3, 432576, Note_on_c, 0, 53, 89
3, 432640, Note_on_c, 0, 53, 0
3, 432640, Note_on_c, 0, 65, 0
3, 432672, Note_on_c, 0, 65, 89
3, 432672, Note_on_c, 0, 53, 89
3, 432736, Note_on_c, 0, 53, 0
3, 432736, Note_on_c, 0, 65, 0
3, 432768, Note_on_c, 0, 65, 89
3, 432768, Note_on_c, 0, 53, 89
3, 433148, Note_on_c, 0, 53, 0
3, 433148, Note_on_c, 0, 65, 0
3, 434688, Note_on_c, 0, 53, 89
3, 434688, Note_on_c, 0, 50, 89
3, 434688, Note_on_c, 0, 46, 89
3, 434688, Note_on_c, 0, 41, 89
3, 435068, Note_on_c, 0, 41, 0
3, 435068, Note_on_c, 0, 53, 0
3, 435068, Note_on_c, 0, 50, 0
3, 435068, Note_on_c, 0, 46, 0
3, 436224, Note_on_c, 0, 53, 89
3, 436288, Note_on_c, 0, 53, 0
3, 436320, Note_on_c, 0, 63, 89
3, 436384, Note_on_c, 0, 63, 0
3, 436416, Note_on_c, 0, 57, 89
3, 436480, Note_on_c, 0, 57, 0
3, 436512, Note_on_c, 0, 63, 89
3, 436576, Note_on_c, 0, 63, 0
3, 436608, Note_on_c, 0, 53, 89
3, 436672, Note_on_c, 0, 53, 0
3, 436704, Note_on_c, 0, 63, 89
3, 436768, Note_on_c, 0, 63, 0
3, 436800, Note_on_c, 0, 57, 89
3, 436864, Note_on_c, 0, 57, 0
3, 436896, Note_on_c, 0, 63, 89
3, 436960, Note_on_c, 0, 63, 0
3, 436992, Note_on_c, 0, 53, 89
3, 437056, Note_on_c, 0, 53, 0
3, 437088, Note_on_c, 0, 63, 89
3, 437152, Note_on_c, 0, 63, 0
3, 437184, Note_on_c, 0, 57, 89
3, 437248, Note_on_c, 0, 57, 0
3, 437280, Note_on_c, 0, 63, 89
3, 437344, Note_on_c, 0, 63, 0
3, 437376, Note_on_c, 0, 53, 89
3, 437440, Note_on_c, 0, 53, 0
3, 437472, Note_on_c, 0, 63, 89
3, 437536, Note_on_c, 0, 63, 0
3, 437568, Note_on_c, 0, 57, 89
3, 437632, Note_on_c, 0, 57, 0
3, 437664, Note_on_c, 0, 63, 89
3, 437728, Note_on_c, 0, 63, 0
3, 437760, Note_on_c, 0, 58, 72
3, 437760, Note_on_c, 0, 62, 72
3, 437888, Note_on_c, 0, 62, 0
3, 437888, Note_on_c, 0, 58, 0
3, 437952, Note_on_c, 0, 46, 72
3, 438080, Note_on_c, 0, 46, 0
3, 438144, Note_on_c, 0, 46, 72
3, 438272, Note_on_c, 0, 46, 0
3, 438336, Note_on_c, 0, 46, 72
3, 438464, Note_on_c, 0, 46, 0
3, 438528, Note_on_c, 0, 46, 72
3, 438656, Note_on_c, 0, 46, 0
3, 438720, Note_on_c, 0, 46, 72
3, 438848, Note_on_c, 0, 46, 0
3, 438912, Note_on_c, 0, 46, 72
3, 439040, Note_on_c, 0, 46, 0
3, 439104, Note_on_c, 0, 46, 72
3, 439232, Note_on_c, 0, 46, 0
3, 439296, Note_on_c, 0, 46, 75
3, 439424, Note_on_c, 0, 46, 0
3, 439488, Note_on_c, 0, 46, 76
3, 439616, Note_on_c, 0, 46, 0
3, 439680, Note_on_c, 0, 46, 78
3, 439808, Note_on_c, 0, 46, 0
3, 439872, Note_on_c, 0, 46, 79
3, 440000, Note_on_c, 0, 46, 0
3, 440064, Note_on_c, 0, 46, 81
3, 440192, Note_on_c, 0, 46, 0
3, 440256, Note_on_c, 0, 46, 82
3, 440384, Note_on_c, 0, 46, 0
3, 440448, Note_on_c, 0, 46, 85
3, 440576, Note_on_c, 0, 46, 0
3, 440640, Note_on_c, 0, 46, 88
3, 440768, Note_on_c, 0, 46, 0
3, 440832, Note_on_c, 0, 46, 89
3, 440960, Note_on_c, 0, 46, 0
3, 441024, Note_on_c, 0, 46, 91
3, 441152, Note_on_c, 0, 46, 0
3, 441216, Note_on_c, 0, 46, 92
3, 441344, Note_on_c, 0, 46, 0
3, 441408, Note_on_c, 0, 46, 95
3, 441536, Note_on_c, 0, 46, 0
3, 441600, Note_on_c, 0, 46, 97
3, 441728, Note_on_c, 0, 46, 0
3, 441792, Note_on_c, 0, 46, 97
3, 441920, Note_on_c, 0, 46, 0
3, 441984, Note_on_c, 0, 46, 98
3, 442112, Note_on_c, 0, 46, 0
3, 442176, Note_on_c, 0, 46, 101
3, 442304, Note_on_c, 0, 46, 0
3, 442368, Note_on_c, 0, 46, 104
3, 442496, Note_on_c, 0, 46, 0
3, 442560, Note_on_c, 0, 46, 104
3, 442688, Note_on_c, 0, 46, 0
3, 442752, Note_on_c, 0, 46, 104
3, 442880, Note_on_c, 0, 46, 0
3, 442944, Note_on_c, 0, 46, 104
3, 443072, Note_on_c, 0, 46, 0
3, 443136, Note_on_c, 0, 46, 104
3, 443264, Note_on_c, 0, 46, 0
3, 443328, Note_on_c, 0, 46, 104
3, 443456, Note_on_c, 0, 46, 0
3, 443520, Note_on_c, 0, 46, 104
3, 443648, Note_on_c, 0, 46, 0
3, 443712, Note_on_c, 0, 46, 104
3, 443840, Note_on_c, 0, 46, 0
3, 443904, Note_on_c, 0, 46, 104
3, 444032, Note_on_c, 0, 46, 0
3, 444096, Note_on_c, 0, 46, 104
3, 444224, Note_on_c, 0, 46, 0
3, 444288, Note_on_c, 0, 46, 104
3, 444416, Note_on_c, 0, 46, 0
3, 444480, Note_on_c, 0, 46, 104
3, 444608, Note_on_c, 0, 46, 0
3, 444672, Note_on_c, 0, 50, 104
3, 444800, Note_on_c, 0, 50, 0
3, 444864, Note_on_c, 0, 50, 104
3, 444992, Note_on_c, 0, 50, 0
3, 445056, Note_on_c, 0, 50, 104
3, 445184, Note_on_c, 0, 50, 0
3, 445248, Note_on_c, 0, 50, 104
3, 445376, Note_on_c, 0, 50, 0
3, 445440, Note_on_c, 0, 51, 104
3, 445568, Note_on_c, 0, 51, 0
3, 445632, Note_on_c, 0, 51, 104
3, 445760, Note_on_c, 0, 51, 0
3, 445824, Note_on_c, 0, 51, 104
3, 445952, Note_on_c, 0, 51, 0
3, 446016, Note_on_c, 0, 51, 104
3, 446144, Note_on_c, 0, 51, 0
3, 446208, Note_on_c, 0, 51, 104
3, 446336, Note_on_c, 0, 51, 0
3, 446400, Note_on_c, 0, 51, 104
3, 446528, Note_on_c, 0, 51, 0
3, 446592, Note_on_c, 0, 51, 104
3, 446720, Note_on_c, 0, 51, 0
3, 446784, Note_on_c, 0, 51, 104
3, 446912, Note_on_c, 0, 51, 0
3, 446976, Note_on_c, 0, 55, 104
3, 447104, Note_on_c, 0, 55, 0
3, 447168, Note_on_c, 0, 55, 104
3, 447296, Note_on_c, 0, 55, 0
3, 447360, Note_on_c, 0, 55, 104
3, 447488, Note_on_c, 0, 55, 0
3, 447552, Note_on_c, 0, 55, 104
3, 447680, Note_on_c, 0, 55, 0
3, 447744, Note_on_c, 0, 55, 104
3, 447872, Note_on_c, 0, 55, 0
3, 447936, Note_on_c, 0, 55, 104
3, 448064, Note_on_c, 0, 55, 0
3, 448128, Note_on_c, 0, 57, 104
3, 448256, Note_on_c, 0, 57, 0
3, 448320, Note_on_c, 0, 57, 104
3, 448448, Note_on_c, 0, 57, 0
3, 448512, Note_on_c, 0, 58, 104
3, 448892, Note_on_c, 0, 58, 0
3, 448896, Note_on_c, 0, 58, 104
3, 449276, Note_on_c, 0, 58, 0
3, 449472, Note_on_c, 0, 58, 104
3, 449504, Note_on_c, 0, 58, 0
3, 449520, Note_on_c, 0, 60, 104
3, 449552, Note_on_c, 0, 60, 0
3, 449568, Note_on_c, 0, 57, 104
3, 449600, Note_on_c, 0, 57, 0
3, 449616, Note_on_c, 0, 58, 104
3, 449648, Note_on_c, 0, 58, 0
3, 449664, Note_on_c, 0, 62, 104
3, 449792, Note_on_c, 0, 62, 0
3, 449856, Note_on_c, 0, 58, 104
3, 449984, Note_on_c, 0, 58, 0
3, 450048, Note_on_c, 0, 57, 104
3, 450176, Note_on_c, 0, 57, 0
3, 450240, Note_on_c, 0, 55, 104
3, 450368, Note_on_c, 0, 55, 0
3, 450432, Note_on_c, 0, 55, 104
3, 451008, Note_on_c, 0, 55, 104
3, 451040, Note_on_c, 0, 55, 0
3, 451056, Note_on_c, 0, 57, 104
3, 451088, Note_on_c, 0, 57, 0
3, 451104, Note_on_c, 0, 54, 104
3, 451136, Note_on_c, 0, 54, 0
3, 451152, Note_on_c, 0, 55, 104
3, 451184, Note_on_c, 0, 55, 0
3, 451200, Note_on_c, 0, 58, 104
3, 451328, Note_on_c, 0, 58, 0
3, 451388, Note_on_c, 0, 55, 0
3, 451392, Note_on_c, 0, 55, 104
3, 451520, Note_on_c, 0, 55, 0
3, 451584, Note_on_c, 0, 51, 104
3, 451712, Note_on_c, 0, 51, 0
3, 451776, Note_on_c, 0, 50, 104
3, 451904, Note_on_c, 0, 50, 0
3, 451968, Note_on_c, 0, 50, 104
3, 452096, Note_on_c, 0, 50, 0
3, 452160, Note_on_c, 0, 50, 104
3, 452288, Note_on_c, 0, 50, 0
3, 452352, Note_on_c, 0, 53, 104
3, 452480, Note_on_c, 0, 53, 0
3, 452544, Note_on_c, 0, 52, 104
3, 452672, Note_on_c, 0, 52, 0
3, 452736, Note_on_c, 0, 52, 104
3, 452864, Note_on_c, 0, 52, 0
3, 452928, Note_on_c, 0, 52, 104
3, 453056, Note_on_c, 0, 52, 0
3, 453120, Note_on_c, 0, 53, 104
3, 453120, Note_on_c, 0, 41, 104
3, 454268, Note_on_c, 0, 41, 0
3, 454268, Note_on_c, 0, 53, 0
3, 457728, Note_on_c, 0, 60, 97
3, 457728, Note_on_c, 0, 63, 97
3, 457856, Note_on_c, 0, 60, 0
3, 457920, Note_on_c, 0, 53, 97
3, 458048, Note_on_c, 0, 53, 0
3, 458108, Note_on_c, 0, 63, 0
3, 458112, Note_on_c, 0, 57, 97
3, 458112, Note_on_c, 0, 60, 97
3, 458240, Note_on_c, 0, 57, 0
3, 458304, Note_on_c, 0, 53, 97
3, 458432, Note_on_c, 0, 53, 0
3, 458492, Note_on_c, 0, 60, 0
3, 458496, Note_on_c, 0, 57, 97
3, 458496, Note_on_c, 0, 60, 97
3, 458624, Note_on_c, 0, 57, 0
3, 458688, Note_on_c, 0, 53, 97
3, 458816, Note_on_c, 0, 53, 0
3, 458876, Note_on_c, 0, 60, 0
3, 458880, Note_on_c, 0, 58, 97
3, 458880, Note_on_c, 0, 62, 97
3, 459008, Note_on_c, 0, 58, 0
3, 459072, Note_on_c, 0, 53, 97
3, 459200, Note_on_c, 0, 53, 0
3, 459256, Note_on_c, 0, 62, 0
3, 459264, Note_on_c, 0, 60, 97
3, 459264, Note_on_c, 0, 63, 97
3, 459392, Note_on_c, 0, 60, 0
3, 459456, Note_on_c, 0, 53, 97
3, 459584, Note_on_c, 0, 53, 0
3, 459644, Note_on_c, 0, 63, 0
3, 459648, Note_on_c, 0, 60, 97
3, 459648, Note_on_c, 0, 63, 97
3, 459776, Note_on_c, 0, 60, 0
3, 459840, Note_on_c, 0, 53, 97
3, 459968, Note_on_c, 0, 53, 0
3, 460028, Note_on_c, 0, 63, 0
3, 460032, Note_on_c, 0, 57, 97
3, 460032, Note_on_c, 0, 60, 97
3, 460160, Note_on_c, 0, 57, 0
3, 460224, Note_on_c, 0, 53, 97
3, 460352, Note_on_c, 0, 53, 0
3, 460412, Note_on_c, 0, 60, 0
3, 460416, Note_on_c, 0, 60, 97
3, 460416, Note_on_c, 0, 57, 97
3, 460544, Note_on_c, 0, 57, 0
3, 460608, Note_on_c, 0, 53, 97
3, 460736, Note_on_c, 0, 53, 0
3, 460796, Note_on_c, 0, 60, 0
3, 460800, Note_on_c, 0, 58, 97
3, 460800, Note_on_c, 0, 62, 97
3, 461180, Note_on_c, 0, 62, 0
3, 461180, Note_on_c, 0, 58, 0
3, 463872, Note_on_c, 0, 63, 97
3, 463872, Note_on_c, 0, 60, 97
3, 464000, Note_on_c, 0, 60, 0
3, 464064, Note_on_c, 0, 53, 97
3, 464192, Note_on_c, 0, 53, 0
3, 464252, Note_on_c, 0, 63, 0
3, 464256, Note_on_c, 0, 57, 97
3, 464256, Note_on_c, 0, 60, 97
3, 464384, Note_on_c, 0, 57, 0
3, 464448, Note_on_c, 0, 51, 97
3, 464576, Note_on_c, 0, 51, 0
3, 464636, Note_on_c, 0, 60, 0
3, 464640, Note_on_c, 0, 57, 97
3, 464640, Note_on_c, 0, 60, 97
3, 464768, Note_on_c, 0, 57, 0
3, 464832, Note_on_c, 0, 53, 97
3, 464960, Note_on_c, 0, 53, 0
3, 465020, Note_on_c, 0, 60, 0
3, 465024, Note_on_c, 0, 58, 97
3, 465024, Note_on_c, 0, 62, 97
3, 465152, Note_on_c, 0, 58, 0
3, 465216, Note_on_c, 0, 53, 97
3, 465344, Note_on_c, 0, 53, 0
3, 465404, Note_on_c, 0, 62, 0
3, 465408, Note_on_c, 0, 60, 97
3, 465408, Note_on_c, 0, 63, 97
3, 465408, Note_on_c, 0, 53, 97
3, 465788, Note_on_c, 0, 53, 0
3, 465788, Note_on_c, 0, 63, 0
3, 465788, Note_on_c, 0, 60, 0
3, 466176, Note_on_c, 0, 57, 97
3, 466176, Note_on_c, 0, 60, 97
3, 466176, Note_on_c, 0, 53, 97
3, 466556, Note_on_c, 0, 53, 0
3, 466556, Note_on_c, 0, 60, 0
3, 466556, Note_on_c, 0, 57, 0
3, 466944, Note_on_c, 0, 34, 97
3, 467008, Note_on_c, 0, 34, 0
3, 467040, Note_on_c, 0, 33, 97
3, 467104, Note_on_c, 0, 33, 0
3, 467136, Note_on_c, 0, 34, 97
3, 467200, Note_on_c, 0, 34, 0
3, 467232, Note_on_c, 0, 36, 97
3, 467296, Note_on_c, 0, 36, 0
3, 467328, Note_on_c, 0, 38, 97
3, 467392, Note_on_c, 0, 38, 0
3, 467424, Note_on_c, 0, 36, 97
3, 467488, Note_on_c, 0, 36, 0
3, 467520, Note_on_c, 0, 38, 97
3, 467584, Note_on_c, 0, 38, 0
3, 467616, Note_on_c, 0, 39, 97
3, 467680, Note_on_c, 0, 39, 0
3, 467712, Note_on_c, 0, 41, 97
3, 467776, Note_on_c, 0, 41, 0
3, 467808, Note_on_c, 0, 40, 97
3, 467872, Note_on_c, 0, 40, 0
3, 467904, Note_on_c, 0, 41, 97
3, 467968, Note_on_c, 0, 41, 0
3, 468000, Note_on_c, 0, 43, 97
3, 468064, Note_on_c, 0, 43, 0
3, 468096, Note_on_c, 0, 45, 97
3, 468160, Note_on_c, 0, 45, 0
3, 468192, Note_on_c, 0, 43, 97
3, 468256, Note_on_c, 0, 43, 0
3, 468288, Note_on_c, 0, 45, 97
3, 468352, Note_on_c, 0, 45, 0
3, 468384, Note_on_c, 0, 41, 97
3, 468448, Note_on_c, 0, 41, 0
3, 468480, Note_on_c, 0, 43, 97
3, 468544, Note_on_c, 0, 43, 0
3, 468576, Note_on_c, 0, 42, 97
3, 468640, Note_on_c, 0, 42, 0
3, 468672, Note_on_c, 0, 43, 97
3, 468736, Note_on_c, 0, 43, 0
3, 468768, Note_on_c, 0, 45, 97
3, 468832, Note_on_c, 0, 45, 0
3, 468864, Note_on_c, 0, 46, 97
3, 468928, Note_on_c, 0, 46, 0
3, 468960, Note_on_c, 0, 45, 97
3, 469024, Note_on_c, 0, 45, 0
3, 469056, Note_on_c, 0, 46, 97
3, 469120, Note_on_c, 0, 46, 0
3, 469152, Note_on_c, 0, 48, 97
3, 469216, Note_on_c, 0, 48, 0
3, 469248, Note_on_c, 0, 50, 97
3, 469312, Note_on_c, 0, 50, 0
3, 469344, Note_on_c, 0, 49, 97
3, 469408, Note_on_c, 0, 49, 0
3, 469440, Note_on_c, 0, 50, 97
3, 469504, Note_on_c, 0, 50, 0
3, 469536, Note_on_c, 0, 52, 97
3, 469600, Note_on_c, 0, 52, 0
3, 469632, Note_on_c, 0, 53, 97
3, 469696, Note_on_c, 0, 53, 0
3, 469728, Note_on_c, 0, 52, 97
3, 469792, Note_on_c, 0, 52, 0
3, 469824, Note_on_c, 0, 53, 97
3, 469888, Note_on_c, 0, 53, 0
3, 469920, Note_on_c, 0, 50, 97
3, 469984, Note_on_c, 0, 50, 0
3, 470016, Note_on_c, 0, 51, 97
3, 470080, Note_on_c, 0, 51, 0
3, 470112, Note_on_c, 0, 50, 97
3, 470176, Note_on_c, 0, 50, 0
3, 470208, Note_on_c, 0, 51, 97
3, 470272, Note_on_c, 0, 51, 0
3, 470304, Note_on_c, 0, 53, 97
3, 470368, Note_on_c, 0, 53, 0
3, 470400, Note_on_c, 0, 55, 97
3, 470464, Note_on_c, 0, 55, 0
3, 470496, Note_on_c, 0, 53, 97
3, 470560, Note_on_c, 0, 53, 0
3, 470592, Note_on_c, 0, 55, 97
3, 470656, Note_on_c, 0, 55, 0
3, 470688, Note_on_c, 0, 57, 97
3, 470752, Note_on_c, 0, 57, 0
3, 470784, Note_on_c, 0, 58, 97
3, 470848, Note_on_c, 0, 58, 0
3, 470880, Note_on_c, 0, 57, 97
3, 470944, Note_on_c, 0, 57, 0
3, 470976, Note_on_c, 0, 58, 97
3, 471040, Note_on_c, 0, 58, 0
3, 471072, Note_on_c, 0, 60, 97
3, 471136, Note_on_c, 0, 60, 0
3, 471168, Note_on_c, 0, 62, 97
3, 471232, Note_on_c, 0, 62, 0
3, 471264, Note_on_c, 0, 60, 97
3, 471328, Note_on_c, 0, 60, 0
3, 471360, Note_on_c, 0, 62, 97
3, 471424, Note_on_c, 0, 62, 0
3, 471456, Note_on_c, 0, 58, 97
3, 471520, Note_on_c, 0, 58, 0
3, 471552, Note_on_c, 0, 60, 97
3, 471932, Note_on_c, 0, 60, 0
3, 472128, Note_on_c, 0, 51, 97
3, 472256, Note_on_c, 0, 51, 0
3, 472320, Note_on_c, 0, 53, 97
3, 472700, Note_on_c, 0, 53, 0
3, 472896, Note_on_c, 0, 45, 97
3, 473024, Note_on_c, 0, 45, 0
3, 473088, Note_on_c, 0, 46, 97
3, 473468, Note_on_c, 0, 46, 0
3, 481152, Note_on_c, 0, 58, 97
3, 481152, Note_on_c, 0, 62, 97
3, 481152, Note_on_c, 0, 56, 97
3, 481532, Note_on_c, 0, 62, 0
3, 481532, Note_on_c, 0, 58, 0
3, 481536, Note_on_c, 0, 62, 97
3, 481536, Note_on_c, 0, 65, 97
3, 481664, Note_on_c, 0, 56, 0
3, 481916, Note_on_c, 0, 65, 0
3, 481916, Note_on_c, 0, 62, 0
3, 482688, Note_on_c, 0, 55, 97
3, 482688, Note_on_c, 0, 58, 97
3, 482688, Note_on_c, 0, 63, 97
3, 483068, Note_on_c, 0, 63, 0
3, 483068, Note_on_c, 0, 58, 0
3, 483072, Note_on_c, 0, 63, 97
3, 483072, Note_on_c, 0, 67, 97
3, 483200, Note_on_c, 0, 55, 0
3, 483452, Note_on_c, 0, 67, 0
3, 483452, Note_on_c, 0, 63, 0
3, 484224, Note_on_c, 0, 54, 97
3, 484224, Note_on_c, 0, 58, 97
3, 484224, Note_on_c, 0, 61, 97
3, 484604, Note_on_c, 0, 61, 0
3, 484604, Note_on_c, 0, 58, 0
3, 484608, Note_on_c, 0, 61, 97
3, 484608, Note_on_c, 0, 64, 97
3, 484988, Note_on_c, 0, 64, 0
3, 484988, Note_on_c, 0, 61, 0
3, 485180, Note_on_c, 0, 54, 0
3, 485376, Note_on_c, 0, 62, 97
3, 485376, Note_on_c, 0, 53, 97
3, 485376, Note_on_c, 0, 58, 97
3, 486144, Note_on_c, 0, 57, 97
3, 486144, Note_on_c, 0, 53, 97
3, 486144, Note_on_c, 0, 60, 97
3, 486332, Note_on_c, 0, 58, 0
3, 486332, Note_on_c, 0, 62, 0
3, 486332, Note_on_c, 0, 53, 0
3, 486908, Note_on_c, 0, 57, 0
3, 486908, Note_on_c, 0, 53, 0
3, 486908, Note_on_c, 0, 60, 0
3, 486912, Note_on_c, 0, 57, 97
3, 486912, Note_on_c, 0, 53, 97
3, 486912, Note_on_c, 0, 60, 97
3, 487292, Note_on_c, 0, 60, 0
3, 487292, Note_on_c, 0, 53, 0
3, 487292, Note_on_c, 0, 57, 0
3, 488640, Note_on_c, 0, 57, 97
3, 488684, Note_on_c, 0, 57, 0
3, 488688, Note_on_c, 0, 58, 97
3, 488732, Note_on_c, 0, 58, 0
3, 488736, Note_on_c, 0, 60, 97
3, 488780, Note_on_c, 0, 60, 0
3, 488784, Note_on_c, 0, 58, 97
3, 488828, Note_on_c, 0, 58, 0
3, 488832, Note_on_c, 0, 57, 97
3, 488876, Note_on_c, 0, 57, 0
3, 488880, Note_on_c, 0, 55, 97
3, 488924, Note_on_c, 0, 55, 0
3, 488928, Note_on_c, 0, 53, 97
3, 488972, Note_on_c, 0, 53, 0
3, 488976, Note_on_c, 0, 52, 97
3, 489020, Note_on_c, 0, 52, 0
3, 489024, Note_on_c, 0, 51, 97
3, 489068, Note_on_c, 0, 51, 0
3, 489072, Note_on_c, 0, 53, 97
3, 489116, Note_on_c, 0, 53, 0
3, 489120, Note_on_c, 0, 51, 97
3, 489164, Note_on_c, 0, 51, 0
3, 489168, Note_on_c, 0, 53, 97
3, 489212, Note_on_c, 0, 53, 0
3, 489216, Note_on_c, 0, 51, 97
3, 489260, Note_on_c, 0, 51, 0
3, 489264, Note_on_c, 0, 53, 97
3, 489308, Note_on_c, 0, 53, 0
3, 489312, Note_on_c, 0, 51, 97
3, 489356, Note_on_c, 0, 51, 0
3, 489360, Note_on_c, 0, 53, 97
3, 489404, Note_on_c, 0, 53, 0
3, 489408, Note_on_c, 0, 51, 97
3, 489452, Note_on_c, 0, 51, 0
3, 489456, Note_on_c, 0, 53, 97
3, 489500, Note_on_c, 0, 53, 0
3, 489504, Note_on_c, 0, 51, 97
3, 489548, Note_on_c, 0, 51, 0
3, 489552, Note_on_c, 0, 53, 97
3, 489596, Note_on_c, 0, 53, 0
3, 489600, Note_on_c, 0, 51, 97
3, 489644, Note_on_c, 0, 51, 0
3, 489648, Note_on_c, 0, 53, 97
3, 489692, Note_on_c, 0, 53, 0
3, 489696, Note_on_c, 0, 51, 97
3, 489740, Note_on_c, 0, 51, 0
3, 489744, Note_on_c, 0, 53, 97
3, 489788, Note_on_c, 0, 53, 0
3, 489792, Note_on_c, 0, 51, 97
3, 489836, Note_on_c, 0, 51, 0
3, 489840, Note_on_c, 0, 53, 97
3, 489884, Note_on_c, 0, 53, 0
3, 489888, Note_on_c, 0, 51, 97
3, 489932, Note_on_c, 0, 51, 0
3, 489936, Note_on_c, 0, 53, 97
3, 489984, Note_on_c, 0, 41, 108
3, 489984, Note_on_c, 0, 45, 108
3, 489984, Note_on_c, 0, 51, 97
3, 489988, Note_on_c, 0, 53, 0
3, 490028, Note_on_c, 0, 51, 0
3, 490032, Note_on_c, 0, 53, 97
3, 490076, Note_on_c, 0, 53, 0
3, 490080, Note_on_c, 0, 51, 97
3, 490124, Note_on_c, 0, 51, 0
3, 490128, Note_on_c, 0, 53, 97
3, 490172, Note_on_c, 0, 53, 0
3, 490176, Note_on_c, 0, 51, 97
3, 490220, Note_on_c, 0, 51, 0
3, 490224, Note_on_c, 0, 53, 97
3, 490268, Note_on_c, 0, 53, 0
3, 490272, Note_on_c, 0, 51, 97
3, 490316, Note_on_c, 0, 51, 0
3, 490320, Note_on_c, 0, 53, 97
3, 490364, Note_on_c, 0, 53, 0
3, 490364, Note_on_c, 0, 45, 0
3, 490364, Note_on_c, 0, 41, 0
3, 490368, Note_on_c, 0, 43, 108
3, 490368, Note_on_c, 0, 46, 108
3, 490368, Note_on_c, 0, 51, 97
3, 490368, Note_on_c, 0, 53, 97
3, 490412, Note_on_c, 0, 53, 0
3, 490412, Note_on_c, 0, 51, 0
3, 490464, Note_on_c, 0, 51, 97
3, 490508, Note_on_c, 0, 51, 0
3, 490512, Note_on_c, 0, 53, 97
3, 490556, Note_on_c, 0, 53, 0
3, 490560, Note_on_c, 0, 51, 97
3, 490604, Note_on_c, 0, 51, 0
3, 490608, Note_on_c, 0, 53, 97
3, 490652, Note_on_c, 0, 53, 0
3, 490656, Note_on_c, 0, 51, 97
3, 490700, Note_on_c, 0, 51, 0
3, 490704, Note_on_c, 0, 53, 97
3, 490748, Note_on_c, 0, 53, 0
3, 490748, Note_on_c, 0, 46, 0
3, 490748, Note_on_c, 0, 43, 0
3, 490752, Note_on_c, 0, 51, 97
3, 490752, Note_on_c, 0, 45, 108
3, 490752, Note_on_c, 0, 48, 108
3, 490796, Note_on_c, 0, 51, 0
3, 490800, Note_on_c, 0, 53, 97
3, 490844, Note_on_c, 0, 53, 0
3, 490848, Note_on_c, 0, 51, 97
3, 490892, Note_on_c, 0, 51, 0
3, 490896, Note_on_c, 0, 53, 97
3, 490940, Note_on_c, 0, 53, 0
3, 490944, Note_on_c, 0, 50, 97
3, 491008, Note_on_c, 0, 50, 0
3, 491040, Note_on_c, 0, 51, 97
3, 491104, Note_on_c, 0, 51, 0
3, 491132, Note_on_c, 0, 48, 0
3, 491132, Note_on_c, 0, 45, 0
3, 491136, Note_on_c, 0, 46, 124
3, 491136, Note_on_c, 0, 34, 124
3, 491136, Note_on_c, 0, 50, 124
3, 491616, Note_on_c, 0, 50, 97
3, 491660, Note_on_c, 0, 50, 0
3, 491664, Note_on_c, 0, 53, 97
3, 491708, Note_on_c, 0, 53, 0
3, 491712, Note_on_c, 0, 51, 97
3, 491756, Note_on_c, 0, 51, 0
3, 491760, Note_on_c, 0, 50, 97
3, 491804, Note_on_c, 0, 50, 0
3, 491808, Note_on_c, 0, 51, 97
3, 491852, Note_on_c, 0, 51, 0
3, 491856, Note_on_c, 0, 53, 97
3, 491900, Note_on_c, 0, 53, 0
3, 491900, Note_on_c, 0, 46, 0
3, 491900, Note_on_c, 0, 34, 0
3, 491900, Note_on_c, 0, 50, 0
3, 491904, Note_on_c, 0, 55, 97
3, 491948, Note_on_c, 0, 55, 0
3, 491952, Note_on_c, 0, 57, 97
3, 491996, Note_on_c, 0, 57, 0
3, 492000, Note_on_c, 0, 58, 97
3, 492044, Note_on_c, 0, 58, 0
3, 492048, Note_on_c, 0, 60, 97
3, 492092, Note_on_c, 0, 60, 0
3, 496128, Note_on_c, 0, 53, 117
3, 496128, Note_on_c, 0, 41, 117
3, 497660, Note_on_c, 0, 41, 0
3, 497660, Note_on_c, 0, 53, 0
3, 499072, Note_on_c, 0, 57, 97
3, 499072, Note_on_c, 0, 45, 97
3, 499164, Note_on_c, 0, 45, 0
3, 499164, Note_on_c, 0, 57, 0
3, 499200, Note_on_c, 0, 46, 97
3, 499200, Note_on_c, 0, 58, 97
3, 499292, Note_on_c, 0, 58, 0
3, 499328, Note_on_c, 0, 62, 97
3, 499420, Note_on_c, 0, 62, 0
3, 499456, Note_on_c, 0, 46, 0
3, 499456, Note_on_c, 0, 52, 97
3, 499456, Note_on_c, 0, 40, 97
3, 499548, Note_on_c, 0, 40, 0
3, 499548, Note_on_c, 0, 52, 0
3, 499584, Note_on_c, 0, 41, 97
3, 499584, Note_on_c, 0, 53, 97
3, 499676, Note_on_c, 0, 53, 0
3, 499712, Note_on_c, 0, 58, 97
3, 499804, Note_on_c, 0, 58, 0
3, 499840, Note_on_c, 0, 41, 0
3, 499840, Note_on_c, 0, 49, 97
3, 499840, Note_on_c, 0, 37, 97
3, 499932, Note_on_c, 0, 37, 0
3, 499932, Note_on_c, 0, 49, 0
3, 499968, Note_on_c, 0, 38, 97
3, 499968, Note_on_c, 0, 50, 97
3, 500060, Note_on_c, 0, 50, 0
3, 500096, Note_on_c, 0, 53, 97
3, 500188, Note_on_c, 0, 53, 0
3, 500224, Note_on_c, 0, 38, 0
3, 500224, Note_on_c, 0, 45, 97
3, 500224, Note_on_c, 0, 33, 97
3, 500316, Note_on_c, 0, 33, 0
3, 500316, Note_on_c, 0, 45, 0
3, 500352, Note_on_c, 0, 46, 97
3, 500352, Note_on_c, 0, 34, 97
3, 500444, Note_on_c, 0, 34, 0
3, 500444, Note_on_c, 0, 46, 0
3, 500480, Note_on_c, 0, 50, 97
3, 500480, Note_on_c, 0, 38, 97
3, 500572, Note_on_c, 0, 38, 0
3, 500572, Note_on_c, 0, 50, 0
3, 500608, Note_on_c, 0, 46, 97
3, 500608, Note_on_c, 0, 34, 97
3, 500700, Note_on_c, 0, 34, 0
3, 500700, Note_on_c, 0, 46, 0
3, 500736, Note_on_c, 0, 29, 124
3, 500736, Note_on_c, 0, 41, 124
3, 501312, Note_on_c, 0, 41, 97
3, 501356, Note_on_c, 0, 41, 0
3, 501360, Note_on_c, 0, 45, 97
3, 501404, Note_on_c, 0, 45, 0
3, 501408, Note_on_c, 0, 43, 97
3, 501452, Note_on_c, 0, 43, 0
3, 501456, Note_on_c, 0, 46, 97
3, 501500, Note_on_c, 0, 46, 0
3, 501500, Note_on_c, 0, 41, 0
3, 501500, Note_on_c, 0, 29, 0
3, 501504, Note_on_c, 0, 45, 97
3, 501548, Note_on_c, 0, 45, 0
3, 501552, Note_on_c, 0, 48, 97
3, 501596, Note_on_c, 0, 48, 0
3, 501600, Note_on_c, 0, 46, 97
3, 501644, Note_on_c, 0, 46, 0
3, 501648, Note_on_c, 0, 50, 97
3, 501692, Note_on_c, 0, 50, 0
3, 501696, Note_on_c, 0, 48, 97
3, 501740, Note_on_c, 0, 48, 0
3, 501744, Note_on_c, 0, 51, 97
3, 501788, Note_on_c, 0, 51, 0
3, 501792, Note_on_c, 0, 50, 97
3, 501836, Note_on_c, 0, 50, 0
3, 501840, Note_on_c, 0, 53, 97
3, 501884, Note_on_c, 0, 53, 0
3, 501888, Note_on_c, 0, 51, 97
3, 501932, Note_on_c, 0, 51, 0
3, 501936, Note_on_c, 0, 55, 97
3, 501980, Note_on_c, 0, 55, 0
3, 501984, Note_on_c, 0, 53, 97
3, 502028, Note_on_c, 0, 53, 0
3, 502032, Note_on_c, 0, 57, 97
3, 502076, Note_on_c, 0, 57, 0
3, 502080, Note_on_c, 0, 55, 97
3, 502124, Note_on_c, 0, 55, 0
3, 502128, Note_on_c, 0, 58, 97
3, 502172, Note_on_c, 0, 58, 0
3, 502176, Note_on_c, 0, 57, 97
3, 502220, Note_on_c, 0, 57, 0
3, 502224, Note_on_c, 0, 60, 97
3, 502268, Note_on_c, 0, 60, 0
3, 506112, Note_on_c, 0, 63, 105
3, 506112, Note_on_c, 0, 57, 105
3, 506112, Note_on_c, 0, 53, 105
3, 506624, Note_on_c, 0, 53, 0
3, 506624, Note_on_c, 0, 57, 0
3, 506624, Note_on_c, 0, 63, 0
3, 506880, Note_on_c, 0, 58, 97
3, 506880, Note_on_c, 0, 62, 97
3, 507072, Note_on_c, 0, 46, 97
3, 507200, Note_on_c, 0, 46, 0
3, 507260, Note_on_c, 0, 62, 0
3, 507260, Note_on_c, 0, 58, 0
3, 507264, Note_on_c, 0, 46, 97
3, 507392, Note_on_c, 0, 46, 0
3, 507456, Note_on_c, 0, 46, 97
3, 507584, Note_on_c, 0, 46, 0
3, 507648, Note_on_c, 0, 46, 97
3, 507776, Note_on_c, 0, 46, 0
3, 507840, Note_on_c, 0, 46, 97
3, 507968, Note_on_c, 0, 46, 0
3, 508032, Note_on_c, 0, 46, 97
3, 508160, Note_on_c, 0, 46, 0
3, 508224, Note_on_c, 0, 46, 97
3, 508352, Note_on_c, 0, 46, 0
3, 508416, Note_on_c, 0, 51, 89
3, 508544, Note_on_c, 0, 51, 0
3, 508608, Note_on_c, 0, 51, 89
3, 508736, Note_on_c, 0, 51, 0
3, 508800, Note_on_c, 0, 51, 89
3, 508928, Note_on_c, 0, 51, 0
3, 508992, Note_on_c, 0, 51, 89
3, 509120, Note_on_c, 0, 51, 0
3, 509184, Note_on_c, 0, 51, 89
3, 509312, Note_on_c, 0, 51, 0
3, 509376, Note_on_c, 0, 51, 89
3, 509504, Note_on_c, 0, 51, 0
3, 509568, Note_on_c, 0, 51, 89
3, 509696, Note_on_c, 0, 51, 0
3, 509760, Note_on_c, 0, 51, 89
3, 509888, Note_on_c, 0, 51, 0
3, 509952, Note_on_c, 0, 55, 89
3, 510080, Note_on_c, 0, 55, 0
3, 510144, Note_on_c, 0, 55, 89
3, 510272, Note_on_c, 0, 55, 0
3, 510336, Note_on_c, 0, 55, 89
3, 510464, Note_on_c, 0, 55, 0
3, 510528, Note_on_c, 0, 55, 89
3, 510656, Note_on_c, 0, 55, 0
3, 510720, Note_on_c, 0, 55, 89
3, 510848, Note_on_c, 0, 55, 0
3, 510912, Note_on_c, 0, 55, 89
3, 511040, Note_on_c, 0, 55, 0
3, 511104, Note_on_c, 0, 55, 89
3, 511232, Note_on_c, 0, 55, 0
3, 511296, Note_on_c, 0, 55, 89
3, 511424, Note_on_c, 0, 55, 0
3, 511488, Note_on_c, 0, 53, 89
3, 511616, Note_on_c, 0, 53, 0
3, 511680, Note_on_c, 0, 53, 89
3, 511808, Note_on_c, 0, 53, 0
3, 511872, Note_on_c, 0, 53, 89
3, 512000, Note_on_c, 0, 53, 0
3, 512064, Note_on_c, 0, 53, 89
3, 512192, Note_on_c, 0, 53, 0
3, 512256, Note_on_c, 0, 53, 89
3, 512384, Note_on_c, 0, 53, 0
3, 512448, Note_on_c, 0, 53, 89
3, 512576, Note_on_c, 0, 53, 0
3, 512640, Note_on_c, 0, 53, 89
3, 512768, Note_on_c, 0, 53, 0
3, 512832, Note_on_c, 0, 53, 89
3, 512960, Note_on_c, 0, 53, 0
3, 513024, Note_on_c, 0, 46, 89
3, 513404, Note_on_c, 0, 46, 0
3, 515328, Note_on_c, 0, 53, 89
3, 515840, Note_on_c, 0, 53, 0
3, 516096, Note_on_c, 0, 58, 89
3, 516476, Note_on_c, 0, 58, 0
3, 518400, Note_on_c, 0, 41, 89
3, 518912, Note_on_c, 0, 41, 0
3, 519168, Note_on_c, 0, 46, 89
3, 519680, Note_on_c, 0, 46, 0
3, 519936, Note_on_c, 0, 41, 89
3, 520448, Note_on_c, 0, 41, 0
3, 520704, Note_on_c, 0, 46, 89
3, 521216, Note_on_c, 0, 46, 0
3, 521472, Note_on_c, 0, 41, 89
3, 521984, Note_on_c, 0, 41, 0
3, 522240, Note_on_c, 0, 46, 89
3, 522620, Note_on_c, 0, 46, 0
3, 525696, Note_on_c, 0, 53, 120
3, 526076, Note_on_c, 0, 53, 0
3, 526080, Note_on_c, 0, 58, 120
3, 526460, Note_on_c, 0, 58, 0
3, 526464, Note_on_c, 0, 53, 120
3, 526844, Note_on_c, 0, 53, 0
3, 526848, Note_on_c, 0, 46, 120
3, 527228, Note_on_c, 0, 46, 0
3, 527228, End_track
4, 0, Start_track
4, 0, Title_t, "K450 -a -Allegro"
4, 0, Control_c, 0, 0, 0
4, 0, Control_c, 0, 7, 110
4, 0, Control_c, 0, 10, 83
4, 0, Control_c, 0, 91, 63
4, 0, Control_c, 0, 93, 63
4, 0, Control_c, 0, 121, 0
4, 0, Control_c, 0, 32, 0
4, 1, Program_c, 0, 0
4, 4, Control_c, 0, 10, 43
4, 12, Control_c, 0, 91, 63
4, 16, Control_c, 0, 93, 40
4, 288, Program_c, 0, 0
4, 1152, Note_on_c, 0, 74, 87
4, 1152, Note_on_c, 0, 70, 87
4, 1280, Note_on_c, 0, 70, 0
4, 1280, Note_on_c, 0, 74, 0
4, 1344, Note_on_c, 0, 75, 87
4, 1344, Note_on_c, 0, 72, 87
4, 1472, Note_on_c, 0, 72, 0
4, 1472, Note_on_c, 0, 75, 0
4, 1536, Note_on_c, 0, 76, 87
4, 1536, Note_on_c, 0, 73, 87
4, 1724, Note_on_c, 0, 73, 0
4, 1724, Note_on_c, 0, 76, 0
4, 1728, Note_on_c, 0, 77, 87
4, 1728, Note_on_c, 0, 74, 87
4, 1916, Note_on_c, 0, 74, 0
4, 1916, Note_on_c, 0, 77, 0
4, 1920, Note_on_c, 0, 74, 87
4, 1920, Note_on_c, 0, 70, 87
4, 2108, Note_on_c, 0, 70, 0
4, 2108, Note_on_c, 0, 74, 0
4, 2112, Note_on_c, 0, 75, 87
4, 2112, Note_on_c, 0, 72, 87
4, 2300, Note_on_c, 0, 72, 0
4, 2300, Note_on_c, 0, 75, 0
4, 2304, Note_on_c, 0, 76, 87
4, 2304, Note_on_c, 0, 73, 87
4, 2492, Note_on_c, 0, 73, 0
4, 2492, Note_on_c, 0, 76, 0
4, 2496, Note_on_c, 0, 77, 87
4, 2496, Note_on_c, 0, 74, 87
4, 2684, Note_on_c, 0, 74, 0
4, 2684, Note_on_c, 0, 77, 0
4, 2688, Note_on_c, 0, 74, 87
4, 2688, Note_on_c, 0, 70, 87
4, 2876, Note_on_c, 0, 70, 0
4, 2876, Note_on_c, 0, 74, 0
4, 2880, Note_on_c, 0, 75, 87
4, 2880, Note_on_c, 0, 72, 87
4, 3068, Note_on_c, 0, 72, 0
4, 3068, Note_on_c, 0, 75, 0
4, 3072, Note_on_c, 0, 76, 87
4, 3072, Note_on_c, 0, 73, 87
4, 3260, Note_on_c, 0, 73, 0
4, 3260, Note_on_c, 0, 76, 0
4, 3264, Note_on_c, 0, 77, 87
4, 3264, Note_on_c, 0, 74, 87
4, 3452, Note_on_c, 0, 74, 0
4, 3452, Note_on_c, 0, 77, 0
4, 3456, Note_on_c, 0, 77, 87
4, 3456, Note_on_c, 0, 74, 87
4, 4028, Note_on_c, 0, 74, 0
4, 4028, Note_on_c, 0, 77, 0
4, 4032, Note_on_c, 0, 75, 87
4, 4076, Note_on_c, 0, 75, 0
4, 4080, Note_on_c, 0, 74, 87
4, 4128, Note_on_c, 0, 72, 87
4, 4144, Note_on_c, 0, 74, 0
4, 4192, Note_on_c, 0, 72, 0
4, 4224, Note_on_c, 0, 74, 87
4, 4412, Note_on_c, 0, 74, 0
4, 4416, Note_on_c, 0, 75, 87
4, 4604, Note_on_c, 0, 75, 0
4, 4608, Note_on_c, 0, 77, 87
4, 4796, Note_on_c, 0, 77, 0
4, 4800, Note_on_c, 0, 74, 87
4, 4988, Note_on_c, 0, 74, 0
4, 4992, Note_on_c, 0, 82, 87
4, 5180, Note_on_c, 0, 82, 0
4, 5184, Note_on_c, 0, 77, 87
4, 5372, Note_on_c, 0, 77, 0
4, 5376, Note_on_c, 0, 86, 87
4, 5564, Note_on_c, 0, 86, 0
4, 5568, Note_on_c, 0, 82, 87
4, 5756, Note_on_c, 0, 82, 0
4, 5760, Note_on_c, 0, 77, 87
4, 5948, Note_on_c, 0, 77, 0
4, 5952, Note_on_c, 0, 74, 87
4, 6140, Note_on_c, 0, 74, 0
4, 6144, Note_on_c, 0, 71, 87
4, 6144, Note_on_c, 0, 74, 87
4, 6332, Note_on_c, 0, 74, 0
4, 6332, Note_on_c, 0, 71, 0
4, 6336, Note_on_c, 0, 72, 87
4, 6336, Note_on_c, 0, 75, 87
4, 6524, Note_on_c, 0, 75, 0
4, 6524, Note_on_c, 0, 72, 0
4, 6528, Note_on_c, 0, 75, 87
4, 6528, Note_on_c, 0, 72, 87
4, 6716, Note_on_c, 0, 72, 0
4, 6716, Note_on_c, 0, 75, 0
4, 6720, Note_on_c, 0, 75, 87
4, 6720, Note_on_c, 0, 72, 87
4, 6908, Note_on_c, 0, 72, 0
4, 6908, Note_on_c, 0, 75, 0
4, 6912, Note_on_c, 0, 75, 87
4, 6912, Note_on_c, 0, 72, 87
4, 7100, Note_on_c, 0, 72, 0
4, 7100, Note_on_c, 0, 75, 0
4, 7104, Note_on_c, 0, 72, 87
4, 7104, Note_on_c, 0, 69, 87
4, 7292, Note_on_c, 0, 69, 0
4, 7292, Note_on_c, 0, 72, 0
4, 7296, Note_on_c, 0, 73, 87
4, 7296, Note_on_c, 0, 70, 87
4, 7484, Note_on_c, 0, 70, 0
4, 7484, Note_on_c, 0, 73, 0
4, 7488, Note_on_c, 0, 74, 87
4, 7488, Note_on_c, 0, 71, 87
4, 7676, Note_on_c, 0, 71, 0
4, 7676, Note_on_c, 0, 74, 0
4, 7680, Note_on_c, 0, 75, 87
4, 7680, Note_on_c, 0, 72, 87
4, 7868, Note_on_c, 0, 72, 0
4, 7868, Note_on_c, 0, 75, 0
4, 7872, Note_on_c, 0, 72, 87
4, 7872, Note_on_c, 0, 69, 87
4, 8060, Note_on_c, 0, 69, 0
4, 8060, Note_on_c, 0, 72, 0
4, 8064, Note_on_c, 0, 73, 87
4, 8064, Note_on_c, 0, 70, 87
4, 8252, Note_on_c, 0, 70, 0
4, 8252, Note_on_c, 0, 73, 0
4, 8256, Note_on_c, 0, 74, 87
4, 8256, Note_on_c, 0, 71, 87
4, 8444, Note_on_c, 0, 71, 0
4, 8444, Note_on_c, 0, 74, 0
4, 8448, Note_on_c, 0, 75, 87
4, 8448, Note_on_c, 0, 72, 87
4, 8636, Note_on_c, 0, 72, 0
4, 8636, Note_on_c, 0, 75, 0
4, 8640, Note_on_c, 0, 69, 87
4, 8640, Note_on_c, 0, 72, 87
4, 8828, Note_on_c, 0, 72, 0
4, 8828, Note_on_c, 0, 69, 0
4, 8832, Note_on_c, 0, 70, 87
4, 8832, Note_on_c, 0, 73, 87
4, 9020, Note_on_c, 0, 73, 0
4, 9020, Note_on_c, 0, 70, 0
4, 9024, Note_on_c, 0, 74, 87
4, 9024, Note_on_c, 0, 70, 87
4, 9212, Note_on_c, 0, 70, 0
4, 9212, Note_on_c, 0, 74, 0
4, 9216, Note_on_c, 0, 75, 87
4, 9216, Note_on_c, 0, 72, 87
4, 9404, Note_on_c, 0, 72, 0
4, 9404, Note_on_c, 0, 75, 0
4, 9408, Note_on_c, 0, 74, 87
4, 9452, Note_on_c, 0, 74, 0
4, 9456, Note_on_c, 0, 72, 87
4, 9500, Note_on_c, 0, 72, 0
4, 9504, Note_on_c, 0, 71, 87
4, 9568, Note_on_c, 0, 71, 0
4, 9600, Note_on_c, 0, 72, 87
4, 9788, Note_on_c, 0, 72, 0
4, 9792, Note_on_c, 0, 74, 87
4, 9980, Note_on_c, 0, 74, 0
4, 9984, Note_on_c, 0, 75, 87
4, 10172, Note_on_c, 0, 75, 0
4, 10176, Note_on_c, 0, 82, 87
4, 10220, Note_on_c, 0, 82, 0
4, 10224, Note_on_c, 0, 81, 87
4, 10268, Note_on_c, 0, 81, 0
4, 10272, Note_on_c, 0, 79, 87
4, 10336, Note_on_c, 0, 79, 0
4, 10368, Note_on_c, 0, 81, 87
4, 10556, Note_on_c, 0, 81, 0
4, 10560, Note_on_c, 0, 82, 87
4, 10748, Note_on_c, 0, 82, 0
4, 10752, Note_on_c, 0, 84, 87
4, 10940, Note_on_c, 0, 84, 0
4, 10944, Note_on_c, 0, 81, 87
4, 11132, Note_on_c, 0, 81, 0
4, 11136, Note_on_c, 0, 87, 87
4, 11324, Note_on_c, 0, 87, 0
4, 11328, Note_on_c, 0, 84, 87
4, 11516, Note_on_c, 0, 84, 0
4, 11520, Note_on_c, 0, 81, 87
4, 11708, Note_on_c, 0, 81, 0
4, 11712, Note_on_c, 0, 77, 87
4, 11900, Note_on_c, 0, 77, 0
4, 11904, Note_on_c, 0, 84, 87
4, 12092, Note_on_c, 0, 84, 0
4, 12096, Note_on_c, 0, 75, 87
4, 12284, Note_on_c, 0, 75, 0
4, 12288, Note_on_c, 0, 73, 87
4, 12288, Note_on_c, 0, 69, 87
4, 12476, Note_on_c, 0, 69, 0
4, 12476, Note_on_c, 0, 73, 0
4, 12480, Note_on_c, 0, 74, 87
4, 12480, Note_on_c, 0, 70, 87
4, 12668, Note_on_c, 0, 70, 0
4, 12668, Note_on_c, 0, 74, 0
4, 12672, Note_on_c, 0, 74, 87
4, 12672, Note_on_c, 0, 70, 87
4, 12860, Note_on_c, 0, 70, 0
4, 12860, Note_on_c, 0, 74, 0
4, 12864, Note_on_c, 0, 74, 87
4, 12864, Note_on_c, 0, 70, 87
4, 13052, Note_on_c, 0, 70, 0
4, 13052, Note_on_c, 0, 74, 0
4, 13056, Note_on_c, 0, 74, 87
4, 13056, Note_on_c, 0, 70, 87
4, 13436, Note_on_c, 0, 70, 0
4, 13436, Note_on_c, 0, 74, 0
4, 13824, Note_on_c, 0, 74, 87
4, 13824, Note_on_c, 0, 65, 87
4, 13888, Note_on_c, 0, 74, 0
4, 13920, Note_on_c, 0, 77, 87
4, 13984, Note_on_c, 0, 77, 0
4, 14016, Note_on_c, 0, 75, 87
4, 14080, Note_on_c, 0, 75, 0
4, 14112, Note_on_c, 0, 74, 87
4, 14176, Note_on_c, 0, 74, 0
4, 14208, Note_on_c, 0, 72, 87
4, 14272, Note_on_c, 0, 72, 0
4, 14304, Note_on_c, 0, 75, 87
4, 14368, Note_on_c, 0, 75, 0
4, 14396, Note_on_c, 0, 65, 0
4, 14400, Note_on_c, 0, 74, 87
4, 14464, Note_on_c, 0, 74, 0
4, 14496, Note_on_c, 0, 72, 87
4, 14560, Note_on_c, 0, 72, 0
4, 14592, Note_on_c, 0, 70, 87
4, 14592, Note_on_c, 0, 65, 87
4, 14780, Note_on_c, 0, 65, 0
4, 14780, Note_on_c, 0, 70, 0
4, 15360, Note_on_c, 0, 74, 87
4, 15360, Note_on_c, 0, 65, 87
4, 15424, Note_on_c, 0, 74, 0
4, 15456, Note_on_c, 0, 77, 87
4, 15520, Note_on_c, 0, 77, 0
4, 15552, Note_on_c, 0, 75, 87
4, 15616, Note_on_c, 0, 75, 0
4, 15648, Note_on_c, 0, 74, 87
4, 15712, Note_on_c, 0, 74, 0
4, 15744, Note_on_c, 0, 72, 87
4, 15808, Note_on_c, 0, 72, 0
4, 15840, Note_on_c, 0, 75, 87
4, 15904, Note_on_c, 0, 75, 0
4, 15932, Note_on_c, 0, 65, 0
4, 15936, Note_on_c, 0, 74, 87
4, 16000, Note_on_c, 0, 74, 0
4, 16032, Note_on_c, 0, 72, 87
4, 16096, Note_on_c, 0, 72, 0
4, 16128, Note_on_c, 0, 65, 87
4, 16144, Note_on_c, 0, 70, 87
4, 16316, Note_on_c, 0, 65, 0
4, 16332, Note_on_c, 0, 70, 0
4, 16896, Note_on_c, 0, 65, 87
4, 16896, Note_on_c, 0, 74, 87
4, 16960, Note_on_c, 0, 74, 0
4, 16960, Note_on_c, 0, 65, 0
4, 16992, Note_on_c, 0, 77, 87
4, 17056, Note_on_c, 0, 77, 0
4, 17088, Note_on_c, 0, 75, 87
4, 17152, Note_on_c, 0, 75, 0
4, 17184, Note_on_c, 0, 74, 87
4, 17248, Note_on_c, 0, 74, 0
4, 17280, Note_on_c, 0, 72, 87
4, 17344, Note_on_c, 0, 72, 0
4, 17376, Note_on_c, 0, 75, 87
4, 17440, Note_on_c, 0, 75, 0
4, 17472, Note_on_c, 0, 74, 87
4, 17536, Note_on_c, 0, 74, 0
4, 17568, Note_on_c, 0, 72, 87
4, 17632, Note_on_c, 0, 72, 0
4, 17664, Note_on_c, 0, 70, 87
4, 17728, Note_on_c, 0, 70, 0
4, 17760, Note_on_c, 0, 74, 87
4, 17824, Note_on_c, 0, 74, 0
4, 17856, Note_on_c, 0, 72, 87
4, 17920, Note_on_c, 0, 72, 0
4, 17952, Note_on_c, 0, 70, 87
4, 18016, Note_on_c, 0, 70, 0
4, 18048, Note_on_c, 0, 72, 87
4, 18112, Note_on_c, 0, 72, 0
4, 18144, Note_on_c, 0, 75, 87
4, 18208, Note_on_c, 0, 75, 0
4, 18240, Note_on_c, 0, 74, 87
4, 18304, Note_on_c, 0, 74, 0
4, 18336, Note_on_c, 0, 72, 87
4, 18400, Note_on_c, 0, 72, 0
4, 18432, Note_on_c, 0, 74, 87
4, 18496, Note_on_c, 0, 74, 0
4, 18528, Note_on_c, 0, 77, 87
4, 18592, Note_on_c, 0, 77, 0
4, 18624, Note_on_c, 0, 75, 87
4, 18688, Note_on_c, 0, 75, 0
4, 18720, Note_on_c, 0, 74, 87
4, 18784, Note_on_c, 0, 74, 0
4, 18816, Note_on_c, 0, 72, 87
4, 18880, Note_on_c, 0, 72, 0
4, 18912, Note_on_c, 0, 75, 87
4, 18976, Note_on_c, 0, 75, 0
4, 19008, Note_on_c, 0, 74, 87
4, 19072, Note_on_c, 0, 74, 0
4, 19104, Note_on_c, 0, 72, 87
4, 19168, Note_on_c, 0, 72, 0
4, 19200, Note_on_c, 0, 70, 87
4, 19264, Note_on_c, 0, 70, 0
4, 19296, Note_on_c, 0, 74, 87
4, 19360, Note_on_c, 0, 74, 0
4, 19392, Note_on_c, 0, 72, 87
4, 19456, Note_on_c, 0, 72, 0
4, 19488, Note_on_c, 0, 70, 87
4, 19552, Note_on_c, 0, 70, 0
4, 19584, Note_on_c, 0, 72, 87
4, 19648, Note_on_c, 0, 72, 0
4, 19680, Note_on_c, 0, 75, 87
4, 19744, Note_on_c, 0, 75, 0
4, 19776, Note_on_c, 0, 74, 87
4, 19840, Note_on_c, 0, 74, 0
4, 19872, Note_on_c, 0, 72, 87
4, 19936, Note_on_c, 0, 72, 0
4, 19968, Note_on_c, 0, 74, 87
4, 20032, Note_on_c, 0, 74, 0
4, 20064, Note_on_c, 0, 77, 87
4, 20128, Note_on_c, 0, 77, 0
4, 20160, Note_on_c, 0, 75, 87
4, 20224, Note_on_c, 0, 75, 0
4, 20256, Note_on_c, 0, 74, 87
4, 20320, Note_on_c, 0, 74, 0
4, 20352, Note_on_c, 0, 79, 87
4, 20416, Note_on_c, 0, 79, 0
4, 20448, Note_on_c, 0, 82, 87
4, 20512, Note_on_c, 0, 82, 0
4, 20544, Note_on_c, 0, 81, 87
4, 20608, Note_on_c, 0, 81, 0
4, 20640, Note_on_c, 0, 79, 87
4, 20704, Note_on_c, 0, 79, 0
4, 20736, Note_on_c, 0, 74, 87
4, 20736, Note_on_c, 0, 70, 87
4, 20800, Note_on_c, 0, 70, 0
4, 20800, Note_on_c, 0, 74, 0
4, 20832, Note_on_c, 0, 77, 87
4, 20896, Note_on_c, 0, 77, 0
4, 20928, Note_on_c, 0, 75, 87
4, 20992, Note_on_c, 0, 75, 0
4, 21024, Note_on_c, 0, 74, 87
4, 21088, Note_on_c, 0, 74, 0
4, 21120, Note_on_c, 0, 72, 87
4, 21120, Note_on_c, 0, 69, 87
4, 21184, Note_on_c, 0, 69, 0
4, 21184, Note_on_c, 0, 72, 0
4, 21216, Note_on_c, 0, 75, 87
4, 21280, Note_on_c, 0, 75, 0
4, 21312, Note_on_c, 0, 74, 87
4, 21376, Note_on_c, 0, 74, 0
4, 21408, Note_on_c, 0, 72, 87
4, 21472, Note_on_c, 0, 72, 0
4, 21504, Note_on_c, 0, 70, 110
4, 21504, Note_on_c, 0, 62, 110
4, 22076, Note_on_c, 0, 62, 0
4, 22076, Note_on_c, 0, 70, 0
4, 22272, Note_on_c, 0, 82, 110
4, 22272, Note_on_c, 0, 74, 110
4, 22272, Note_on_c, 0, 70, 110
4, 22656, Note_on_c, 0, 70, 0
4, 22656, Note_on_c, 0, 74, 0
4, 22656, Note_on_c, 0, 82, 0
4, 22848, Note_on_c, 0, 77, 110
4, 22908, Note_on_c, 0, 77, 0
4, 22912, Note_on_c, 0, 74, 110
4, 22972, Note_on_c, 0, 74, 0
4, 22976, Note_on_c, 0, 70, 110
4, 23036, Note_on_c, 0, 70, 0
4, 23040, Note_on_c, 0, 69, 110
4, 23420, Note_on_c, 0, 69, 0
4, 23424, Note_on_c, 0, 81, 110
4, 23424, Note_on_c, 0, 77, 110
4, 23424, Note_on_c, 0, 72, 110
4, 23424, Note_on_c, 0, 75, 110
4, 23612, Note_on_c, 0, 75, 0
4, 23612, Note_on_c, 0, 72, 0
4, 23612, Note_on_c, 0, 77, 0
4, 23712, Note_on_c, 0, 77, 110
4, 23712, Note_on_c, 0, 75, 110
4, 23776, Note_on_c, 0, 75, 0
4, 23776, Note_on_c, 0, 77, 0
4, 23804, Note_on_c, 0, 81, 0
4, 23808, Note_on_c, 0, 84, 110
4, 23808, Note_on_c, 0, 75, 110
4, 23808, Note_on_c, 0, 72, 110
4, 24188, Note_on_c, 0, 72, 0
4, 24188, Note_on_c, 0, 75, 0
4, 24188, Note_on_c, 0, 84, 0
4, 24576, Note_on_c, 0, 65, 110
4, 24576, Note_on_c, 0, 63, 110
4, 24576, Note_on_c, 0, 60, 110
4, 24576, Note_on_c, 0, 57, 110
4, 25344, Note_on_c, 0, 75, 110
4, 25344, Note_on_c, 0, 84, 110
4, 25344, Note_on_c, 0, 72, 110
4, 25916, Note_on_c, 0, 72, 0
4, 25916, Note_on_c, 0, 75, 0
4, 25916, Note_on_c, 0, 84, 0
4, 25920, Note_on_c, 0, 81, 110
4, 25980, Note_on_c, 0, 81, 0
4, 25984, Note_on_c, 0, 77, 110
4, 26044, Note_on_c, 0, 77, 0
4, 26048, Note_on_c, 0, 72, 110
4, 26108, Note_on_c, 0, 72, 0
4, 26108, Note_on_c, 0, 57, 0
4, 26108, Note_on_c, 0, 65, 0
4, 26108, Note_on_c, 0, 63, 0
4, 26108, Note_on_c, 0, 60, 0
4, 26112, Note_on_c, 0, 70, 110
4, 26368, Note_on_c, 0, 70, 0
4, 26496, Note_on_c, 0, 74, 110
4, 26496, Note_on_c, 0, 77, 110
4, 26496, Note_on_c, 0, 70, 110
4, 26496, Note_on_c, 0, 82, 110
4, 26684, Note_on_c, 0, 70, 0
4, 26684, Note_on_c, 0, 74, 0
4, 26684, Note_on_c, 0, 77, 0
4, 26784, Note_on_c, 0, 77, 110
4, 26784, Note_on_c, 0, 74, 110
4, 26848, Note_on_c, 0, 74, 0
4, 26848, Note_on_c, 0, 77, 0
4, 26876, Note_on_c, 0, 82, 0
4, 26880, Note_on_c, 0, 74, 110
4, 26880, Note_on_c, 0, 86, 110
4, 26880, Note_on_c, 0, 77, 110
4, 27260, Note_on_c, 0, 77, 0
4, 27260, Note_on_c, 0, 86, 0
4, 27260, Note_on_c, 0, 74, 0
4, 27648, Note_on_c, 0, 62, 110
4, 27648, Note_on_c, 0, 65, 110
4, 27648, Note_on_c, 0, 70, 110
4, 28412, Note_on_c, 0, 70, 0
4, 28412, Note_on_c, 0, 65, 0
4, 28412, Note_on_c, 0, 62, 0
4, 28416, Note_on_c, 0, 86, 110
4, 28416, Note_on_c, 0, 77, 110
4, 28416, Note_on_c, 0, 74, 110
4, 28800, Note_on_c, 0, 74, 0
4, 28800, Note_on_c, 0, 77, 0
4, 28800, Note_on_c, 0, 86, 0
4, 28992, Note_on_c, 0, 84, 110
4, 29052, Note_on_c, 0, 84, 0
4, 29056, Note_on_c, 0, 82, 110
4, 29116, Note_on_c, 0, 82, 0
4, 29120, Note_on_c, 0, 81, 110
4, 29180, Note_on_c, 0, 81, 0
4, 29184, Note_on_c, 0, 79, 110
4, 29372, Note_on_c, 0, 79, 0
4, 29376, Note_on_c, 0, 79, 110
4, 29376, Note_on_c, 0, 70, 110
4, 29376, Note_on_c, 0, 67, 110
4, 29564, Note_on_c, 0, 67, 0
4, 29564, Note_on_c, 0, 70, 0
4, 29564, Note_on_c, 0, 79, 0
4, 29568, Note_on_c, 0, 79, 110
4, 29568, Note_on_c, 0, 70, 110
4, 29568, Note_on_c, 0, 67, 110
4, 29952, Note_on_c, 0, 67, 0
4, 29952, Note_on_c, 0, 70, 0
4, 29952, Note_on_c, 0, 79, 0
4, 30144, Note_on_c, 0, 81, 110
4, 30144, Note_on_c, 0, 69, 110
4, 30332, Note_on_c, 0, 69, 0
4, 30332, Note_on_c, 0, 81, 0
4, 30336, Note_on_c, 0, 79, 110
4, 30336, Note_on_c, 0, 82, 110
4, 30336, Note_on_c, 0, 70, 110
4, 30524, Note_on_c, 0, 70, 0
4, 30524, Note_on_c, 0, 82, 0
4, 30524, Note_on_c, 0, 79, 0
4, 30528, Note_on_c, 0, 83, 110
4, 30528, Note_on_c, 0, 71, 110
4, 30716, Note_on_c, 0, 71, 0
4, 30716, Note_on_c, 0, 83, 0
4, 30720, Note_on_c, 0, 79, 110
4, 30720, Note_on_c, 0, 84, 110
4, 30720, Note_on_c, 0, 72, 110
4, 30908, Note_on_c, 0, 72, 0
4, 30908, Note_on_c, 0, 84, 0
4, 30908, Note_on_c, 0, 79, 0
4, 30912, Note_on_c, 0, 72, 110
4, 30912, Note_on_c, 0, 79, 110
4, 30912, Note_on_c, 0, 84, 110
4, 31100, Note_on_c, 0, 84, 0
4, 31100, Note_on_c, 0, 79, 0
4, 31100, Note_on_c, 0, 72, 0
4, 31104, Note_on_c, 0, 84, 110
4, 31104, Note_on_c, 0, 72, 110
4, 31104, Note_on_c, 0, 79, 110
4, 31676, Note_on_c, 0, 79, 0
4, 31676, Note_on_c, 0, 72, 0
4, 31676, Note_on_c, 0, 84, 0
4, 31680, Note_on_c, 0, 86, 110
4, 31772, Note_on_c, 0, 86, 0
4, 31776, Note_on_c, 0, 84, 110
4, 31868, Note_on_c, 0, 84, 0
4, 31872, Note_on_c, 0, 84, 110
4, 31964, Note_on_c, 0, 84, 0
4, 31968, Note_on_c, 0, 82, 110
4, 31968, Note_on_c, 0, 79, 110
4, 31968, Note_on_c, 0, 72, 110
4, 32060, Note_on_c, 0, 82, 0
4, 32064, Note_on_c, 0, 81, 110
4, 32156, Note_on_c, 0, 81, 0
4, 32160, Note_on_c, 0, 82, 110
4, 32252, Note_on_c, 0, 82, 0
4, 32256, Note_on_c, 0, 72, 0
4, 32256, Note_on_c, 0, 79, 0
4, 32256, Note_on_c, 0, 77, 110
4, 32256, Note_on_c, 0, 81, 110
4, 32256, Note_on_c, 0, 72, 110
4, 32636, Note_on_c, 0, 72, 0
4, 32636, Note_on_c, 0, 81, 0
4, 32636, Note_on_c, 0, 77, 0
4, 32832, Note_on_c, 0, 77, 110
4, 32832, Note_on_c, 0, 81, 110
4, 32832, Note_on_c, 0, 84, 110
4, 33020, Note_on_c, 0, 84, 0
4, 33020, Note_on_c, 0, 81, 0
4, 33020, Note_on_c, 0, 77, 0
4, 33024, Note_on_c, 0, 86, 110
4, 33024, Note_on_c, 0, 82, 110
4, 33088, Note_on_c, 0, 82, 0
4, 33088, Note_on_c, 0, 86, 0
4, 33120, Note_on_c, 0, 77, 110
4, 33184, Note_on_c, 0, 77, 0
4, 33216, Note_on_c, 0, 81, 110
4, 33216, Note_on_c, 0, 84, 110
4, 33280, Note_on_c, 0, 84, 0
4, 33280, Note_on_c, 0, 81, 0
4, 33312, Note_on_c, 0, 77, 110
4, 33376, Note_on_c, 0, 77, 0
4, 33408, Note_on_c, 0, 82, 110
4, 33408, Note_on_c, 0, 86, 110
4, 33472, Note_on_c, 0, 86, 0
4, 33472, Note_on_c, 0, 82, 0
4, 33504, Note_on_c, 0, 77, 110
4, 33568, Note_on_c, 0, 77, 0
4, 33600, Note_on_c, 0, 77, 110
4, 33600, Note_on_c, 0, 82, 110
4, 33664, Note_on_c, 0, 82, 0
4, 33664, Note_on_c, 0, 77, 0
4, 33696, Note_on_c, 0, 74, 110
4, 33760, Note_on_c, 0, 74, 0
4, 33792, Note_on_c, 0, 77, 110
4, 33792, Note_on_c, 0, 81, 110
4, 33856, Note_on_c, 0, 81, 0
4, 33856, Note_on_c, 0, 77, 0
4, 33888, Note_on_c, 0, 72, 110
4, 33952, Note_on_c, 0, 72, 0
4, 33984, Note_on_c, 0, 77, 110
4, 33984, Note_on_c, 0, 82, 110
4, 34048, Note_on_c, 0, 82, 0
4, 34048, Note_on_c, 0, 77, 0
4, 34080, Note_on_c, 0, 74, 110
4, 34144, Note_on_c, 0, 74, 0
4, 34176, Note_on_c, 0, 77, 110
4, 34176, Note_on_c, 0, 81, 110
4, 34240, Note_on_c, 0, 81, 0
4, 34240, Note_on_c, 0, 77, 0
4, 34272, Note_on_c, 0, 72, 110
4, 34336, Note_on_c, 0, 72, 0
4, 34368, Note_on_c, 0, 81, 110
4, 34368, Note_on_c, 0, 84, 110
4, 34432, Note_on_c, 0, 84, 0
4, 34432, Note_on_c, 0, 81, 0
4, 34464, Note_on_c, 0, 77, 110
4, 34528, Note_on_c, 0, 77, 0
4, 34560, Note_on_c, 0, 82, 110
4, 34560, Note_on_c, 0, 86, 110
4, 34624, Note_on_c, 0, 86, 0
4, 34624, Note_on_c, 0, 82, 0
4, 34656, Note_on_c, 0, 77, 110
4, 34720, Note_on_c, 0, 77, 0
4, 34752, Note_on_c, 0, 81, 110
4, 34752, Note_on_c, 0, 84, 110
4, 34816, Note_on_c, 0, 84, 0
4, 34816, Note_on_c, 0, 81, 0
4, 34848, Note_on_c, 0, 77, 110
4, 34912, Note_on_c, 0, 77, 0
4, 34944, Note_on_c, 0, 82, 110
4, 34944, Note_on_c, 0, 86, 110
4, 35008, Note_on_c, 0, 86, 0
4, 35008, Note_on_c, 0, 82, 0
4, 35040, Note_on_c, 0, 77, 110
4, 35104, Note_on_c, 0, 77, 0
4, 35136, Note_on_c, 0, 77, 110
4, 35136, Note_on_c, 0, 82, 110
4, 35200, Note_on_c, 0, 82, 0
4, 35200, Note_on_c, 0, 77, 0
4, 35232, Note_on_c, 0, 74, 110
4, 35296, Note_on_c, 0, 74, 0
4, 35328, Note_on_c, 0, 77, 110
4, 35328, Note_on_c, 0, 81, 110
4, 35392, Note_on_c, 0, 81, 0
4, 35392, Note_on_c, 0, 77, 0
4, 35424, Note_on_c, 0, 72, 110
4, 35488, Note_on_c, 0, 72, 0
4, 35520, Note_on_c, 0, 77, 110
4, 35520, Note_on_c, 0, 82, 110
4, 35584, Note_on_c, 0, 82, 0
4, 35584, Note_on_c, 0, 77, 0
4, 35616, Note_on_c, 0, 74, 110
4, 35680, Note_on_c, 0, 74, 0
4, 35712, Note_on_c, 0, 77, 110
4, 35712, Note_on_c, 0, 81, 110
4, 35776, Note_on_c, 0, 81, 0
4, 35776, Note_on_c, 0, 77, 0
4, 35808, Note_on_c, 0, 72, 110
4, 35872, Note_on_c, 0, 72, 0
4, 35904, Note_on_c, 0, 81, 110
4, 35904, Note_on_c, 0, 84, 110
4, 35968, Note_on_c, 0, 84, 0
4, 35968, Note_on_c, 0, 81, 0
4, 36000, Note_on_c, 0, 77, 110
4, 36064, Note_on_c, 0, 77, 0
4, 36096, Note_on_c, 0, 82, 110
4, 36096, Note_on_c, 0, 86, 110
4, 36160, Note_on_c, 0, 86, 0
4, 36160, Note_on_c, 0, 82, 0
4, 36192, Note_on_c, 0, 77, 110
4, 36256, Note_on_c, 0, 77, 0
4, 36288, Note_on_c, 0, 81, 110
4, 36288, Note_on_c, 0, 84, 110
4, 36352, Note_on_c, 0, 84, 0
4, 36352, Note_on_c, 0, 81, 0
4, 36384, Note_on_c, 0, 77, 110
4, 36448, Note_on_c, 0, 77, 0
4, 36480, Note_on_c, 0, 82, 110
4, 36480, Note_on_c, 0, 86, 110
4, 36544, Note_on_c, 0, 86, 0
4, 36544, Note_on_c, 0, 82, 0
4, 36576, Note_on_c, 0, 77, 110
4, 36640, Note_on_c, 0, 77, 0
4, 36672, Note_on_c, 0, 77, 110
4, 36672, Note_on_c, 0, 82, 110
4, 36736, Note_on_c, 0, 82, 0
4, 36736, Note_on_c, 0, 77, 0
4, 36768, Note_on_c, 0, 74, 110
4, 36832, Note_on_c, 0, 74, 0
4, 36864, Note_on_c, 0, 77, 110
4, 36864, Note_on_c, 0, 81, 110
4, 36864, Note_on_c, 0, 72, 110
4, 37244, Note_on_c, 0, 72, 0
4, 37244, Note_on_c, 0, 81, 0
4, 37244, Note_on_c, 0, 77, 0
4, 37440, Note_on_c, 0, 65, 110
4, 37440, Note_on_c, 0, 57, 110
4, 37628, Note_on_c, 0, 57, 0
4, 37628, Note_on_c, 0, 65, 0
4, 37632, Note_on_c, 0, 65, 110
4, 37632, Note_on_c, 0, 57, 110
4, 37820, Note_on_c, 0, 57, 0
4, 37820, Note_on_c, 0, 65, 0
4, 37824, Note_on_c, 0, 65, 110
4, 37824, Note_on_c, 0, 57, 110
4, 38012, Note_on_c, 0, 57, 0
4, 38012, Note_on_c, 0, 65, 0
4, 38016, Note_on_c, 0, 65, 110
4, 38016, Note_on_c, 0, 57, 110
4, 38204, Note_on_c, 0, 57, 0
4, 38204, Note_on_c, 0, 65, 0
4, 38208, Note_on_c, 0, 65, 110
4, 38208, Note_on_c, 0, 57, 110
4, 38396, Note_on_c, 0, 57, 0
4, 38396, Note_on_c, 0, 65, 0
4, 38400, Note_on_c, 0, 65, 110
4, 38400, Note_on_c, 0, 57, 110
4, 38972, Note_on_c, 0, 57, 0
4, 38972, Note_on_c, 0, 65, 0
4, 39552, Note_on_c, 0, 77, 87
4, 39552, Note_on_c, 0, 65, 87
4, 40316, Note_on_c, 0, 65, 0
4, 40316, Note_on_c, 0, 77, 0
4, 40320, Note_on_c, 0, 74, 87
4, 40320, Note_on_c, 0, 62, 87
4, 41084, Note_on_c, 0, 62, 0
4, 41084, Note_on_c, 0, 74, 0
4, 41088, Note_on_c, 0, 70, 87
4, 41088, Note_on_c, 0, 58, 87
4, 41664, Note_on_c, 0, 69, 87
4, 41664, Note_on_c, 0, 57, 87
4, 41852, Note_on_c, 0, 57, 0
4, 41852, Note_on_c, 0, 70, 0
4, 41852, Note_on_c, 0, 58, 0
4, 41852, Note_on_c, 0, 69, 0
4, 41856, Note_on_c, 0, 75, 87
4, 41856, Note_on_c, 0, 63, 87
4, 42236, Note_on_c, 0, 63, 0
4, 42236, Note_on_c, 0, 75, 0
4, 42624, Note_on_c, 0, 63, 87
4, 42624, Note_on_c, 0, 75, 87
4, 43388, Note_on_c, 0, 75, 0
4, 43388, Note_on_c, 0, 63, 0
4, 43392, Note_on_c, 0, 60, 87
4, 43392, Note_on_c, 0, 72, 87
4, 44156, Note_on_c, 0, 72, 0
4, 44156, Note_on_c, 0, 60, 0
4, 44160, Note_on_c, 0, 57, 87
4, 44160, Note_on_c, 0, 69, 87
4, 44736, Note_on_c, 0, 58, 87
4, 44736, Note_on_c, 0, 70, 87
4, 44924, Note_on_c, 0, 70, 0
4, 44924, Note_on_c, 0, 57, 0
4, 44924, Note_on_c, 0, 69, 0
4, 44924, Note_on_c, 0, 58, 0
4, 44928, Note_on_c, 0, 77, 87
4, 44928, Note_on_c, 0, 65, 87
4, 45308, Note_on_c, 0, 65, 0
4, 45308, Note_on_c, 0, 77, 0
4, 45696, Note_on_c, 0, 65, 87
4, 45696, Note_on_c, 0, 77, 87
4, 46460, Note_on_c, 0, 77, 0
4, 46460, Note_on_c, 0, 65, 0
4, 46464, Note_on_c, 0, 74, 87
4, 46464, Note_on_c, 0, 62, 87
4, 47228, Note_on_c, 0, 62, 0
4, 47228, Note_on_c, 0, 74, 0
4, 47232, Note_on_c, 0, 70, 87
4, 47232, Note_on_c, 0, 82, 87
4, 47996, Note_on_c, 0, 82, 0
4, 47996, Note_on_c, 0, 70, 0
4, 48000, Note_on_c, 0, 67, 87
4, 48000, Note_on_c, 0, 79, 87
4, 48764, Note_on_c, 0, 79, 0
4, 48764, Note_on_c, 0, 67, 0
4, 48768, Note_on_c, 0, 63, 87
4, 48768, Note_on_c, 0, 75, 87
4, 49532, Note_on_c, 0, 75, 0
4, 49532, Note_on_c, 0, 63, 0
4, 49536, Note_on_c, 0, 62, 87
4, 49536, Note_on_c, 0, 74, 87
4, 50108, Note_on_c, 0, 74, 0
4, 50108, Note_on_c, 0, 62, 0
4, 50304, Note_on_c, 0, 72, 87
4, 50304, Note_on_c, 0, 60, 87
4, 50684, Note_on_c, 0, 60, 0
4, 50684, Note_on_c, 0, 72, 0
4, 50688, Note_on_c, 0, 73, 87
4, 50688, Note_on_c, 0, 69, 87
4, 50688, Note_on_c, 0, 61, 87
4, 51068, Note_on_c, 0, 61, 0
4, 51068, Note_on_c, 0, 69, 0
4, 51068, Note_on_c, 0, 73, 0
4, 51072, Note_on_c, 0, 74, 87
4, 51072, Note_on_c, 0, 70, 87
4, 51072, Note_on_c, 0, 62, 87
4, 51452, Note_on_c, 0, 62, 0
4, 51452, Note_on_c, 0, 70, 0
4, 51452, Note_on_c, 0, 74, 0
4, 51648, Note_on_c, 0, 77, 87
4, 51836, Note_on_c, 0, 77, 0
4, 51840, Note_on_c, 0, 79, 87
4, 52028, Note_on_c, 0, 79, 0
4, 52032, Note_on_c, 0, 81, 87
4, 52220, Note_on_c, 0, 81, 0
4, 52224, Note_on_c, 0, 82, 87
4, 52412, Note_on_c, 0, 82, 0
4, 52416, Note_on_c, 0, 84, 87
4, 52604, Note_on_c, 0, 84, 0
4, 52608, Note_on_c, 0, 86, 87
4, 52796, Note_on_c, 0, 86, 0
4, 52800, Note_on_c, 0, 81, 87
4, 52988, Note_on_c, 0, 81, 0
4, 52992, Note_on_c, 0, 82, 87
4, 53180, Note_on_c, 0, 82, 0
4, 53184, Note_on_c, 0, 77, 87
4, 53372, Note_on_c, 0, 77, 0
4, 53376, Note_on_c, 0, 79, 87
4, 53564, Note_on_c, 0, 79, 0
4, 53568, Note_on_c, 0, 74, 87
4, 53756, Note_on_c, 0, 74, 0
4, 53760, Note_on_c, 0, 75, 87
4, 53948, Note_on_c, 0, 75, 0
4, 53952, Note_on_c, 0, 77, 87
4, 54140, Note_on_c, 0, 77, 0
4, 54144, Note_on_c, 0, 79, 87
4, 54332, Note_on_c, 0, 79, 0
4, 54336, Note_on_c, 0, 75, 87
4, 54524, Note_on_c, 0, 75, 0
4, 54528, Note_on_c, 0, 75, 87
4, 54716, Note_on_c, 0, 75, 0
4, 54720, Note_on_c, 0, 70, 87
4, 54908, Note_on_c, 0, 70, 0
4, 54912, Note_on_c, 0, 72, 87
4, 55100, Note_on_c, 0, 72, 0
4, 55104, Note_on_c, 0, 67, 87
4, 55292, Note_on_c, 0, 67, 0
4, 55296, Note_on_c, 0, 69, 87
4, 55484, Note_on_c, 0, 69, 0
4, 55488, Note_on_c, 0, 70, 87
4, 55676, Note_on_c, 0, 70, 0
4, 55680, Note_on_c, 0, 72, 87
4, 55868, Note_on_c, 0, 72, 0
4, 55872, Note_on_c, 0, 74, 87
4, 56060, Note_on_c, 0, 74, 0
4, 56064, Note_on_c, 0, 75, 87
4, 56252, Note_on_c, 0, 75, 0
4, 56256, Note_on_c, 0, 74, 87
4, 56444, Note_on_c, 0, 74, 0
4, 56448, Note_on_c, 0, 75, 87
4, 56636, Note_on_c, 0, 75, 0
4, 56640, Note_on_c, 0, 72, 87
4, 56828, Note_on_c, 0, 72, 0
4, 56832, Note_on_c, 0, 77, 87
4, 57020, Note_on_c, 0, 77, 0
4, 57024, Note_on_c, 0, 74, 87
4, 57212, Note_on_c, 0, 74, 0
4, 57216, Note_on_c, 0, 70, 87
4, 57404, Note_on_c, 0, 70, 0
4, 57408, Note_on_c, 0, 72, 87
4, 57596, Note_on_c, 0, 72, 0
4, 57600, Note_on_c, 0, 74, 87
4, 57788, Note_on_c, 0, 74, 0
4, 57792, Note_on_c, 0, 75, 87
4, 57980, Note_on_c, 0, 75, 0
4, 57984, Note_on_c, 0, 77, 87
4, 58172, Note_on_c, 0, 77, 0
4, 58176, Note_on_c, 0, 79, 87
4, 58364, Note_on_c, 0, 79, 0
4, 58368, Note_on_c, 0, 80, 87
4, 58556, Note_on_c, 0, 80, 0
4, 58560, Note_on_c, 0, 79, 87
4, 58748, Note_on_c, 0, 79, 0
4, 58752, Note_on_c, 0, 77, 87
4, 58940, Note_on_c, 0, 77, 0
4, 58944, Note_on_c, 0, 75, 87
4, 59132, Note_on_c, 0, 75, 0
4, 59136, Note_on_c, 0, 74, 87
4, 59324, Note_on_c, 0, 74, 0
4, 59328, Note_on_c, 0, 77, 87
4, 59516, Note_on_c, 0, 77, 0
4, 59520, Note_on_c, 0, 79, 87
4, 59708, Note_on_c, 0, 79, 0
4, 59712, Note_on_c, 0, 80, 87
4, 59900, Note_on_c, 0, 80, 0
4, 59904, Note_on_c, 0, 82, 87
4, 60092, Note_on_c, 0, 82, 0
4, 60096, Note_on_c, 0, 80, 87
4, 60284, Note_on_c, 0, 80, 0
4, 60288, Note_on_c, 0, 79, 87
4, 60476, Note_on_c, 0, 79, 0
4, 60480, Note_on_c, 0, 77, 87
4, 60668, Note_on_c, 0, 77, 0
4, 60672, Note_on_c, 0, 75, 87
4, 60860, Note_on_c, 0, 75, 0
4, 60864, Note_on_c, 0, 79, 87
4, 61052, Note_on_c, 0, 79, 0
4, 61056, Note_on_c, 0, 82, 87
4, 61244, Note_on_c, 0, 82, 0
4, 61248, Note_on_c, 0, 75, 87
4, 61248, Note_on_c, 0, 79, 87
4, 61436, Note_on_c, 0, 79, 0
4, 61436, Note_on_c, 0, 75, 0
4, 61440, Note_on_c, 0, 75, 87
4, 61440, Note_on_c, 0, 79, 87
4, 61628, Note_on_c, 0, 79, 0
4, 61628, Note_on_c, 0, 75, 0
4, 61632, Note_on_c, 0, 74, 87
4, 61632, Note_on_c, 0, 77, 87
4, 61820, Note_on_c, 0, 77, 0
4, 61820, Note_on_c, 0, 74, 0
4, 61824, Note_on_c, 0, 70, 87
4, 61824, Note_on_c, 0, 74, 87
4, 62012, Note_on_c, 0, 74, 0
4, 62012, Note_on_c, 0, 70, 0
4, 62016, Note_on_c, 0, 74, 87
4, 62016, Note_on_c, 0, 77, 87
4, 62204, Note_on_c, 0, 77, 0
4, 62204, Note_on_c, 0, 74, 0
4, 62208, Note_on_c, 0, 74, 87
4, 62208, Note_on_c, 0, 77, 87
4, 62396, Note_on_c, 0, 77, 0
4, 62396, Note_on_c, 0, 74, 0
4, 62400, Note_on_c, 0, 72, 87
4, 62400, Note_on_c, 0, 75, 87
4, 62588, Note_on_c, 0, 75, 0
4, 62588, Note_on_c, 0, 72, 0
4, 62592, Note_on_c, 0, 70, 87
4, 62592, Note_on_c, 0, 74, 87
4, 62780, Note_on_c, 0, 74, 0
4, 62780, Note_on_c, 0, 70, 0
4, 62784, Note_on_c, 0, 69, 87
4, 62784, Note_on_c, 0, 72, 87
4, 62972, Note_on_c, 0, 72, 0
4, 62972, Note_on_c, 0, 69, 0
4, 62976, Note_on_c, 0, 70, 72
4, 63164, Note_on_c, 0, 70, 0
4, 63168, Note_on_c, 0, 70, 72
4, 63168, Note_on_c, 0, 62, 72
4, 63168, Note_on_c, 0, 65, 72
4, 63356, Note_on_c, 0, 65, 0
4, 63356, Note_on_c, 0, 62, 0
4, 63356, Note_on_c, 0, 70, 0
4, 63360, Note_on_c, 0, 70, 72
4, 63360, Note_on_c, 0, 65, 72
4, 63360, Note_on_c, 0, 62, 72
4, 63548, Note_on_c, 0, 62, 0
4, 63548, Note_on_c, 0, 65, 0
4, 63548, Note_on_c, 0, 70, 0
4, 63552, Note_on_c, 0, 65, 72
4, 63552, Note_on_c, 0, 70, 72
4, 63552, Note_on_c, 0, 62, 72
4, 63740, Note_on_c, 0, 62, 0
4, 63740, Note_on_c, 0, 70, 0
4, 63740, Note_on_c, 0, 65, 0
4, 63744, Note_on_c, 0, 65, 72
4, 63744, Note_on_c, 0, 62, 72
4, 63744, Note_on_c, 0, 70, 72
4, 63932, Note_on_c, 0, 62, 0
4, 63932, Note_on_c, 0, 65, 0
4, 63936, Note_on_c, 0, 62, 72
4, 63936, Note_on_c, 0, 65, 72
4, 64124, Note_on_c, 0, 70, 0
4, 64316, Note_on_c, 0, 65, 0
4, 64316, Note_on_c, 0, 62, 0
4, 64320, Note_on_c, 0, 74, 72
4, 64380, Note_on_c, 0, 74, 0
4, 64384, Note_on_c, 0, 72, 72
4, 64444, Note_on_c, 0, 72, 0
4, 64448, Note_on_c, 0, 70, 72
4, 64508, Note_on_c, 0, 70, 0
4, 64512, Note_on_c, 0, 72, 72
4, 64700, Note_on_c, 0, 72, 0
4, 64704, Note_on_c, 0, 72, 74
4, 64704, Note_on_c, 0, 63, 74
4, 64704, Note_on_c, 0, 69, 74
4, 64892, Note_on_c, 0, 69, 0
4, 64892, Note_on_c, 0, 63, 0
4, 64892, Note_on_c, 0, 72, 0
4, 64896, Note_on_c, 0, 72, 75
4, 64896, Note_on_c, 0, 69, 75
4, 64896, Note_on_c, 0, 63, 75
4, 65084, Note_on_c, 0, 63, 0
4, 65084, Note_on_c, 0, 69, 0
4, 65084, Note_on_c, 0, 72, 0
4, 65088, Note_on_c, 0, 69, 75
4, 65088, Note_on_c, 0, 72, 75
4, 65088, Note_on_c, 0, 63, 75
4, 65276, Note_on_c, 0, 63, 0
4, 65276, Note_on_c, 0, 72, 0
4, 65276, Note_on_c, 0, 69, 0
4, 65280, Note_on_c, 0, 69, 77
4, 65280, Note_on_c, 0, 72, 77
4, 65280, Note_on_c, 0, 63, 77
4, 65468, Note_on_c, 0, 63, 0
4, 65468, Note_on_c, 0, 69, 0
4, 65472, Note_on_c, 0, 69, 78
4, 65472, Note_on_c, 0, 63, 78
4, 65536, Note_on_c, 0, 72, 0
4, 65852, Note_on_c, 0, 63, 0
4, 65852, Note_on_c, 0, 69, 0
4, 65856, Note_on_c, 0, 75, 80
4, 65916, Note_on_c, 0, 75, 0
4, 65920, Note_on_c, 0, 74, 80
4, 65980, Note_on_c, 0, 74, 0
4, 65984, Note_on_c, 0, 72, 81
4, 66044, Note_on_c, 0, 72, 0
4, 66048, Note_on_c, 0, 74, 81
4, 66236, Note_on_c, 0, 74, 0
4, 66240, Note_on_c, 0, 69, 83
4, 66240, Note_on_c, 0, 74, 83
4, 66240, Note_on_c, 0, 65, 83
4, 66428, Note_on_c, 0, 65, 0
4, 66428, Note_on_c, 0, 74, 0
4, 66428, Note_on_c, 0, 69, 0
4, 66432, Note_on_c, 0, 74, 84
4, 66432, Note_on_c, 0, 65, 84
4, 66432, Note_on_c, 0, 69, 84
4, 66620, Note_on_c, 0, 69, 0
4, 66620, Note_on_c, 0, 65, 0
4, 66620, Note_on_c, 0, 74, 0
4, 66624, Note_on_c, 0, 74, 86
4, 66624, Note_on_c, 0, 65, 86
4, 66624, Note_on_c, 0, 69, 86
4, 66812, Note_on_c, 0, 69, 0
4, 66812, Note_on_c, 0, 65, 0
4, 66812, Note_on_c, 0, 74, 0
4, 66816, Note_on_c, 0, 69, 89
4, 66816, Note_on_c, 0, 65, 89
4, 66816, Note_on_c, 0, 74, 89
4, 67004, Note_on_c, 0, 65, 0
4, 67004, Note_on_c, 0, 69, 0
4, 67008, Note_on_c, 0, 69, 90
4, 67008, Note_on_c, 0, 65, 90
4, 67196, Note_on_c, 0, 74, 0
4, 67388, Note_on_c, 0, 65, 0
4, 67388, Note_on_c, 0, 69, 0
4, 67392, Note_on_c, 0, 77, 93
4, 67452, Note_on_c, 0, 77, 0
4, 67456, Note_on_c, 0, 75, 93
4, 67516, Note_on_c, 0, 75, 0
4, 67520, Note_on_c, 0, 74, 93
4, 67584, Note_on_c, 0, 75, 95
4, 67588, Note_on_c, 0, 74, 0
4, 67648, Note_on_c, 0, 75, 0
4, 67680, Note_on_c, 0, 67, 95
4, 67744, Note_on_c, 0, 67, 0
4, 67776, Note_on_c, 0, 75, 96
4, 67776, Note_on_c, 0, 70, 96
4, 67840, Note_on_c, 0, 70, 0
4, 67840, Note_on_c, 0, 75, 0
4, 67872, Note_on_c, 0, 67, 96
4, 67936, Note_on_c, 0, 67, 0
4, 67968, Note_on_c, 0, 74, 98
4, 67968, Note_on_c, 0, 77, 98
4, 68032, Note_on_c, 0, 77, 0
4, 68032, Note_on_c, 0, 74, 0
4, 68064, Note_on_c, 0, 70, 99
4, 68128, Note_on_c, 0, 70, 0
4, 68160, Note_on_c, 0, 77, 99
4, 68160, Note_on_c, 0, 74, 99
4, 68224, Note_on_c, 0, 74, 0
4, 68224, Note_on_c, 0, 77, 0
4, 68256, Note_on_c, 0, 70, 101
4, 68320, Note_on_c, 0, 70, 0
4, 68352, Note_on_c, 0, 79, 101
4, 68352, Note_on_c, 0, 75, 101
4, 68416, Note_on_c, 0, 75, 0
4, 68416, Note_on_c, 0, 79, 0
4, 68448, Note_on_c, 0, 70, 102
4, 68512, Note_on_c, 0, 70, 0
4, 68544, Note_on_c, 0, 79, 102
4, 68544, Note_on_c, 0, 75, 102
4, 68608, Note_on_c, 0, 75, 0
4, 68608, Note_on_c, 0, 79, 0
4, 68640, Note_on_c, 0, 70, 104
4, 68704, Note_on_c, 0, 70, 0
4, 68736, Note_on_c, 0, 81, 104
4, 68736, Note_on_c, 0, 75, 104
4, 68800, Note_on_c, 0, 75, 0
4, 68800, Note_on_c, 0, 81, 0
4, 68832, Note_on_c, 0, 72, 105
4, 68896, Note_on_c, 0, 72, 0
4, 68928, Note_on_c, 0, 81, 105
4, 68928, Note_on_c, 0, 75, 105
4, 68992, Note_on_c, 0, 75, 0
4, 68992, Note_on_c, 0, 81, 0
4, 69024, Note_on_c, 0, 72, 107
4, 69088, Note_on_c, 0, 72, 0
4, 69120, Note_on_c, 0, 82, 110
4, 69120, Note_on_c, 0, 74, 110
4, 69120, Note_on_c, 0, 70, 110
4, 69376, Note_on_c, 0, 70, 0
4, 69376, Note_on_c, 0, 74, 0
4, 69376, Note_on_c, 0, 82, 0
4, 69504, Note_on_c, 0, 82, 110
4, 69504, Note_on_c, 0, 70, 110
4, 69696, Note_on_c, 0, 70, 0
4, 69696, Note_on_c, 0, 82, 0
4, 69792, Note_on_c, 0, 70, 110
4, 69856, Note_on_c, 0, 70, 0
4, 69888, Note_on_c, 0, 70, 110
4, 70076, Note_on_c, 0, 70, 0
4, 70080, Note_on_c, 0, 82, 110
4, 70124, Note_on_c, 0, 82, 0
4, 70128, Note_on_c, 0, 84, 110
4, 70172, Note_on_c, 0, 84, 0
4, 70176, Note_on_c, 0, 82, 110
4, 70220, Note_on_c, 0, 82, 0
4, 70224, Note_on_c, 0, 82, 110
4, 70268, Note_on_c, 0, 82, 0
4, 70272, Note_on_c, 0, 86, 110
4, 70460, Note_on_c, 0, 86, 0
4, 70464, Note_on_c, 0, 82, 110
4, 70652, Note_on_c, 0, 82, 0
4, 70656, Note_on_c, 0, 81, 110
4, 70656, Note_on_c, 0, 70, 110
4, 70844, Note_on_c, 0, 70, 0
4, 70844, Note_on_c, 0, 81, 0
4, 70848, Note_on_c, 0, 79, 110
4, 71036, Note_on_c, 0, 79, 0
4, 71040, Note_on_c, 0, 79, 110
4, 71040, Note_on_c, 0, 70, 110
4, 71228, Note_on_c, 0, 70, 0
4, 71228, Note_on_c, 0, 79, 0
4, 71328, Note_on_c, 0, 70, 110
4, 71392, Note_on_c, 0, 70, 0
4, 71424, Note_on_c, 0, 70, 110
4, 71612, Note_on_c, 0, 70, 0
4, 71616, Note_on_c, 0, 79, 110
4, 71660, Note_on_c, 0, 79, 0
4, 71664, Note_on_c, 0, 81, 110
4, 71708, Note_on_c, 0, 81, 0
4, 71712, Note_on_c, 0, 79, 110
4, 71756, Note_on_c, 0, 79, 0
4, 71760, Note_on_c, 0, 78, 110
4, 71804, Note_on_c, 0, 78, 0
4, 71808, Note_on_c, 0, 82, 110
4, 71996, Note_on_c, 0, 82, 0
4, 72000, Note_on_c, 0, 79, 110
4, 72188, Note_on_c, 0, 79, 0
4, 72192, Note_on_c, 0, 77, 110
4, 72192, Note_on_c, 0, 70, 110
4, 72380, Note_on_c, 0, 70, 0
4, 72380, Note_on_c, 0, 77, 0
4, 72384, Note_on_c, 0, 75, 110
4, 72512, Note_on_c, 0, 75, 0
4, 72576, Note_on_c, 0, 75, 110
4, 72576, Note_on_c, 0, 70, 110
4, 72768, Note_on_c, 0, 70, 0
4, 72768, Note_on_c, 0, 75, 0
4, 72864, Note_on_c, 0, 70, 110
4, 72928, Note_on_c, 0, 70, 0
4, 72960, Note_on_c, 0, 70, 110
4, 73148, Note_on_c, 0, 70, 0
4, 73152, Note_on_c, 0, 75, 110
4, 73244, Note_on_c, 0, 75, 0
4, 73248, Note_on_c, 0, 74, 110
4, 73292, Note_on_c, 0, 74, 0
4, 73296, Note_on_c, 0, 75, 110
4, 73340, Note_on_c, 0, 75, 0
4, 73344, Note_on_c, 0, 79, 110
4, 73532, Note_on_c, 0, 79, 0
4, 73536, Note_on_c, 0, 75, 110
4, 73724, Note_on_c, 0, 75, 0
4, 73728, Note_on_c, 0, 74, 110
4, 73916, Note_on_c, 0, 74, 0
4, 73920, Note_on_c, 0, 70, 110
4, 73920, Note_on_c, 0, 62, 110
4, 74096, Note_on_c, 0, 70, 110
4, 74108, Note_on_c, 0, 62, 0
4, 74108, Note_on_c, 0, 70, 0
4, 74112, Note_on_c, 0, 74, 110
4, 74284, Note_on_c, 0, 70, 0
4, 74300, Note_on_c, 0, 74, 0
4, 74304, Note_on_c, 0, 77, 110
4, 74304, Note_on_c, 0, 74, 110
4, 74492, Note_on_c, 0, 74, 0
4, 74492, Note_on_c, 0, 77, 0
4, 74496, Note_on_c, 0, 77, 110
4, 74496, Note_on_c, 0, 74, 110
4, 74684, Note_on_c, 0, 74, 0
4, 74684, Note_on_c, 0, 77, 0
4, 74688, Note_on_c, 0, 75, 110
4, 74688, Note_on_c, 0, 72, 110
4, 74876, Note_on_c, 0, 72, 0
4, 74876, Note_on_c, 0, 75, 0
4, 74880, Note_on_c, 0, 74, 110
4, 74880, Note_on_c, 0, 70, 110
4, 75068, Note_on_c, 0, 70, 0
4, 75068, Note_on_c, 0, 74, 0
4, 75072, Note_on_c, 0, 72, 110
4, 75072, Note_on_c, 0, 69, 110
4, 75260, Note_on_c, 0, 69, 0
4, 75260, Note_on_c, 0, 72, 0
4, 75264, Note_on_c, 0, 70, 110
4, 75264, Note_on_c, 0, 82, 110
4, 75452, Note_on_c, 0, 82, 0
4, 75452, Note_on_c, 0, 70, 0
4, 75456, Note_on_c, 0, 82, 110
4, 75644, Note_on_c, 0, 82, 0
4, 75648, Note_on_c, 0, 82, 110
4, 75648, Note_on_c, 0, 70, 110
4, 75836, Note_on_c, 0, 70, 0
4, 75836, Note_on_c, 0, 82, 0
4, 75936, Note_on_c, 0, 70, 110
4, 76000, Note_on_c, 0, 70, 0
4, 76032, Note_on_c, 0, 70, 110
4, 76220, Note_on_c, 0, 70, 0
4, 76224, Note_on_c, 0, 82, 110
4, 76288, Note_on_c, 0, 82, 0
4, 76320, Note_on_c, 0, 81, 110
4, 76352, Note_on_c, 0, 81, 0
4, 76368, Note_on_c, 0, 82, 110
4, 76400, Note_on_c, 0, 82, 0
4, 76416, Note_on_c, 0, 86, 110
4, 76604, Note_on_c, 0, 86, 0
4, 76608, Note_on_c, 0, 82, 110
4, 76796, Note_on_c, 0, 82, 0
4, 76800, Note_on_c, 0, 81, 110
4, 76800, Note_on_c, 0, 70, 110
4, 76988, Note_on_c, 0, 70, 0
4, 76988, Note_on_c, 0, 81, 0
4, 76992, Note_on_c, 0, 79, 110
4, 77180, Note_on_c, 0, 79, 0
4, 77184, Note_on_c, 0, 79, 110
4, 77184, Note_on_c, 0, 70, 110
4, 77372, Note_on_c, 0, 70, 0
4, 77372, Note_on_c, 0, 79, 0
4, 77472, Note_on_c, 0, 70, 110
4, 77536, Note_on_c, 0, 70, 0
4, 77568, Note_on_c, 0, 70, 110
4, 77756, Note_on_c, 0, 70, 0
4, 77760, Note_on_c, 0, 79, 110
4, 77804, Note_on_c, 0, 79, 0
4, 77808, Note_on_c, 0, 81, 110
4, 77852, Note_on_c, 0, 81, 0
4, 77856, Note_on_c, 0, 78, 110
4, 77900, Note_on_c, 0, 78, 0
4, 77904, Note_on_c, 0, 79, 110
4, 77948, Note_on_c, 0, 79, 0
4, 77952, Note_on_c, 0, 82, 110
4, 78140, Note_on_c, 0, 82, 0
4, 78144, Note_on_c, 0, 79, 110
4, 78332, Note_on_c, 0, 79, 0
4, 78336, Note_on_c, 0, 77, 110
4, 78336, Note_on_c, 0, 70, 110
4, 78524, Note_on_c, 0, 70, 0
4, 78524, Note_on_c, 0, 77, 0
4, 78528, Note_on_c, 0, 75, 110
4, 78716, Note_on_c, 0, 75, 0
4, 78720, Note_on_c, 0, 75, 110
4, 78720, Note_on_c, 0, 70, 110
4, 78908, Note_on_c, 0, 70, 0
4, 78908, Note_on_c, 0, 75, 0
4, 79008, Note_on_c, 0, 70, 110
4, 79072, Note_on_c, 0, 70, 0
4, 79104, Note_on_c, 0, 70, 110
4, 79292, Note_on_c, 0, 70, 0
4, 79296, Note_on_c, 0, 75, 110
4, 79344, Note_on_c, 0, 77, 110
4, 79360, Note_on_c, 0, 75, 0
4, 79388, Note_on_c, 0, 77, 0
4, 79392, Note_on_c, 0, 74, 110
4, 79436, Note_on_c, 0, 74, 0
4, 79440, Note_on_c, 0, 75, 110
4, 79484, Note_on_c, 0, 75, 0
4, 79488, Note_on_c, 0, 79, 110
4, 79676, Note_on_c, 0, 79, 0
4, 79680, Note_on_c, 0, 75, 110
4, 79868, Note_on_c, 0, 75, 0
4, 79872, Note_on_c, 0, 74, 110
4, 80060, Note_on_c, 0, 74, 0
4, 80064, Note_on_c, 0, 70, 110
4, 80064, Note_on_c, 0, 62, 110
4, 80252, Note_on_c, 0, 62, 0
4, 80252, Note_on_c, 0, 70, 0
4, 80256, Note_on_c, 0, 74, 110
4, 80256, Note_on_c, 0, 70, 110
4, 80444, Note_on_c, 0, 70, 0
4, 80444, Note_on_c, 0, 74, 0
4, 80448, Note_on_c, 0, 77, 110
4, 80448, Note_on_c, 0, 74, 110
4, 80636, Note_on_c, 0, 74, 0
4, 80636, Note_on_c, 0, 77, 0
4, 80640, Note_on_c, 0, 77, 110
4, 80640, Note_on_c, 0, 74, 110
4, 80828, Note_on_c, 0, 74, 0
4, 80828, Note_on_c, 0, 77, 0
4, 80832, Note_on_c, 0, 75, 110
4, 80832, Note_on_c, 0, 72, 110
4, 81020, Note_on_c, 0, 72, 0
4, 81020, Note_on_c, 0, 75, 0
4, 81024, Note_on_c, 0, 70, 110
4, 81024, Note_on_c, 0, 74, 110
4, 81212, Note_on_c, 0, 74, 0
4, 81212, Note_on_c, 0, 70, 0
4, 81216, Note_on_c, 0, 72, 110
4, 81216, Note_on_c, 0, 69, 110
4, 81404, Note_on_c, 0, 69, 0
4, 81404, Note_on_c, 0, 72, 0
4, 81408, Note_on_c, 0, 70, 110
4, 81408, Note_on_c, 0, 62, 110
4, 81788, Note_on_c, 0, 62, 0
4, 81788, Note_on_c, 0, 70, 0
4, 81792, Note_on_c, 0, 70, 87
4, 81980, Note_on_c, 0, 70, 0
4, 81984, Note_on_c, 0, 74, 87
4, 82172, Note_on_c, 0, 74, 0
4, 82176, Note_on_c, 0, 77, 87
4, 82220, Note_on_c, 0, 77, 0
4, 82224, Note_on_c, 0, 79, 87
4, 82268, Note_on_c, 0, 79, 0
4, 82272, Note_on_c, 0, 77, 87
4, 82316, Note_on_c, 0, 77, 0
4, 82320, Note_on_c, 0, 79, 87
4, 82364, Note_on_c, 0, 79, 0
4, 82368, Note_on_c, 0, 77, 87
4, 82556, Note_on_c, 0, 77, 0
4, 82560, Note_on_c, 0, 70, 87
4, 82748, Note_on_c, 0, 70, 0
4, 82752, Note_on_c, 0, 74, 87
4, 82940, Note_on_c, 0, 74, 0
4, 82944, Note_on_c, 0, 77, 87
4, 83324, Note_on_c, 0, 77, 0
4, 83328, Note_on_c, 0, 82, 87
4, 83516, Note_on_c, 0, 82, 0
4, 83520, Note_on_c, 0, 81, 87
4, 83708, Note_on_c, 0, 81, 0
4, 83712, Note_on_c, 0, 79, 87
4, 83900, Note_on_c, 0, 79, 0
4, 83904, Note_on_c, 0, 77, 87
4, 84092, Note_on_c, 0, 77, 0
4, 84096, Note_on_c, 0, 79, 87
4, 84284, Note_on_c, 0, 79, 0
4, 84288, Note_on_c, 0, 81, 87
4, 84476, Note_on_c, 0, 81, 0
4, 84480, Note_on_c, 0, 81, 87
4, 84668, Note_on_c, 0, 81, 0
4, 84672, Note_on_c, 0, 82, 87
4, 84860, Note_on_c, 0, 82, 0
4, 84864, Note_on_c, 0, 77, 87
4, 85244, Note_on_c, 0, 77, 0
4, 85248, Note_on_c, 0, 65, 87
4, 85436, Note_on_c, 0, 65, 0
4, 85440, Note_on_c, 0, 65, 87
4, 85628, Note_on_c, 0, 65, 0
4, 85632, Note_on_c, 0, 58, 87
4, 85820, Note_on_c, 0, 58, 0
4, 85824, Note_on_c, 0, 62, 87
4, 86012, Note_on_c, 0, 62, 0
4, 86016, Note_on_c, 0, 65, 87
4, 86396, Note_on_c, 0, 65, 0
4, 86400, Note_on_c, 0, 70, 87
4, 86588, Note_on_c, 0, 70, 0
4, 86592, Note_on_c, 0, 69, 87
4, 86780, Note_on_c, 0, 69, 0
4, 86784, Note_on_c, 0, 67, 87
4, 86828, Note_on_c, 0, 67, 0
4, 86832, Note_on_c, 0, 69, 87
4, 86876, Note_on_c, 0, 69, 0
4, 86880, Note_on_c, 0, 67, 87
4, 86924, Note_on_c, 0, 67, 0
4, 86928, Note_on_c, 0, 69, 87
4, 86972, Note_on_c, 0, 69, 0
4, 86976, Note_on_c, 0, 65, 87
4, 87164, Note_on_c, 0, 65, 0
4, 87168, Note_on_c, 0, 67, 87
4, 87356, Note_on_c, 0, 67, 0
4, 87360, Note_on_c, 0, 69, 87
4, 87552, Note_on_c, 0, 69, 87
4, 87556, Note_on_c, 0, 69, 0
4, 87740, Note_on_c, 0, 69, 0
4, 87744, Note_on_c, 0, 70, 87
4, 87932, Note_on_c, 0, 70, 0
4, 87936, Note_on_c, 0, 70, 87
4, 88124, Note_on_c, 0, 70, 0
4, 88128, Note_on_c, 0, 69, 87
4, 88316, Note_on_c, 0, 69, 0
4, 88320, Note_on_c, 0, 67, 87
4, 88364, Note_on_c, 0, 67, 0
4, 88368, Note_on_c, 0, 69, 87
4, 88412, Note_on_c, 0, 69, 0
4, 88416, Note_on_c, 0, 67, 87
4, 88460, Note_on_c, 0, 67, 0
4, 88464, Note_on_c, 0, 69, 87
4, 88508, Note_on_c, 0, 69, 0
4, 88512, Note_on_c, 0, 65, 87
4, 88700, Note_on_c, 0, 65, 0
4, 88704, Note_on_c, 0, 67, 87
4, 88892, Note_on_c, 0, 67, 0
4, 88896, Note_on_c, 0, 69, 87
4, 89084, Note_on_c, 0, 69, 0
4, 89088, Note_on_c, 0, 69, 87
4, 89276, Note_on_c, 0, 69, 0
4, 89280, Note_on_c, 0, 70, 87
4, 89468, Note_on_c, 0, 70, 0
4, 89472, Note_on_c, 0, 70, 87
4, 89472, Note_on_c, 0, 82, 87
4, 89660, Note_on_c, 0, 82, 0
4, 89660, Note_on_c, 0, 70, 0
4, 89664, Note_on_c, 0, 81, 87
4, 89664, Note_on_c, 0, 69, 87
4, 89852, Note_on_c, 0, 69, 0
4, 89852, Note_on_c, 0, 81, 0
4, 89856, Note_on_c, 0, 67, 87
4, 89856, Note_on_c, 0, 77, 87
4, 89900, Note_on_c, 0, 77, 0
4, 89904, Note_on_c, 0, 79, 87
4, 89948, Note_on_c, 0, 79, 0
4, 89952, Note_on_c, 0, 77, 87
4, 89996, Note_on_c, 0, 77, 0
4, 90000, Note_on_c, 0, 79, 87
4, 90044, Note_on_c, 0, 79, 0
4, 90044, Note_on_c, 0, 67, 0
4, 90048, Note_on_c, 0, 77, 87
4, 90048, Note_on_c, 0, 65, 87
4, 90236, Note_on_c, 0, 65, 0
4, 90236, Note_on_c, 0, 77, 0
4, 90240, Note_on_c, 0, 79, 87
4, 90240, Note_on_c, 0, 67, 87
4, 90428, Note_on_c, 0, 67, 0
4, 90428, Note_on_c, 0, 79, 0
4, 90432, Note_on_c, 0, 81, 87
4, 90432, Note_on_c, 0, 69, 87
4, 90620, Note_on_c, 0, 81, 0
4, 90624, Note_on_c, 0, 82, 87
4, 90624, Note_on_c, 0, 70, 87
4, 90628, Note_on_c, 0, 69, 0
4, 90812, Note_on_c, 0, 70, 0
4, 90812, Note_on_c, 0, 82, 0
4, 91008, Note_on_c, 0, 65, 87
4, 91008, Note_on_c, 0, 74, 87
4, 91196, Note_on_c, 0, 74, 0
4, 91196, Note_on_c, 0, 65, 0
4, 91392, Note_on_c, 0, 70, 87
4, 91392, Note_on_c, 0, 62, 87
4, 91580, Note_on_c, 0, 62, 0
4, 91580, Note_on_c, 0, 70, 0
4, 91776, Note_on_c, 0, 65, 87
4, 91776, Note_on_c, 0, 74, 87
4, 91964, Note_on_c, 0, 74, 0
4, 91964, Note_on_c, 0, 65, 0
4, 92160, Note_on_c, 0, 70, 87
4, 92160, Note_on_c, 0, 62, 87
4, 92540, Note_on_c, 0, 62, 0
4, 92540, Note_on_c, 0, 70, 0
4, 94080, Note_on_c, 0, 65, 87
4, 94080, Note_on_c, 0, 62, 87
4, 94208, Note_on_c, 0, 62, 0
4, 94208, Note_on_c, 0, 65, 0
4, 94464, Note_on_c, 0, 62, 87
4, 94464, Note_on_c, 0, 58, 87
4, 94592, Note_on_c, 0, 58, 0
4, 94592, Note_on_c, 0, 62, 0
4, 94848, Note_on_c, 0, 62, 87
4, 94848, Note_on_c, 0, 65, 87
4, 94976, Note_on_c, 0, 65, 0
4, 94976, Note_on_c, 0, 62, 0
4, 95232, Note_on_c, 0, 62, 87
4, 95232, Note_on_c, 0, 58, 87
4, 95360, Note_on_c, 0, 58, 0
4, 95360, Note_on_c, 0, 62, 0
4, 102528, Note_on_c, 0, 69, 87
4, 102528, Note_on_c, 0, 65, 87
4, 102528, Note_on_c, 0, 63, 87
4, 102528, Note_on_c, 0, 60, 87
4, 102908, Note_on_c, 0, 60, 0
4, 102908, Note_on_c, 0, 69, 0
4, 102908, Note_on_c, 0, 65, 0
4, 102908, Note_on_c, 0, 63, 0
4, 102912, Note_on_c, 0, 70, 87
4, 102912, Note_on_c, 0, 65, 87
4, 102912, Note_on_c, 0, 62, 87
4, 102912, Note_on_c, 0, 58, 87
4, 103292, Note_on_c, 0, 58, 0
4, 103292, Note_on_c, 0, 70, 0
4, 103292, Note_on_c, 0, 65, 0
4, 103292, Note_on_c, 0, 62, 0
4, 106560, Note_on_c, 0, 65, 110
4, 106688, Note_on_c, 0, 65, 0
4, 106752, Note_on_c, 0, 74, 110
4, 106880, Note_on_c, 0, 74, 0
4, 106944, Note_on_c, 0, 70, 110
4, 107072, Note_on_c, 0, 70, 0
4, 107136, Note_on_c, 0, 65, 110
4, 107264, Note_on_c, 0, 65, 0
4, 107328, Note_on_c, 0, 62, 110
4, 107456, Note_on_c, 0, 62, 0
4, 107520, Note_on_c, 0, 58, 110
4, 107900, Note_on_c, 0, 58, 0
4, 110592, Note_on_c, 0, 58, 87
4, 110972, Note_on_c, 0, 58, 0
4, 111360, Note_on_c, 0, 58, 87
4, 111740, Note_on_c, 0, 58, 0
4, 112128, Note_on_c, 0, 58, 87
4, 112508, Note_on_c, 0, 58, 0
4, 112512, Note_on_c, 0, 70, 87
4, 112512, Note_on_c, 0, 58, 87
4, 112892, Note_on_c, 0, 58, 0
4, 112892, Note_on_c, 0, 70, 0
4, 112896, Note_on_c, 0, 58, 87
4, 113152, Note_on_c, 0, 58, 0
4, 116736, Note_on_c, 0, 65, 87
4, 116992, Note_on_c, 0, 65, 0
4, 117504, Note_on_c, 0, 65, 87
4, 117884, Note_on_c, 0, 65, 0
4, 118272, Note_on_c, 0, 65, 87
4, 118652, Note_on_c, 0, 65, 0
4, 122304, Note_on_c, 0, 74, 87
4, 122432, Note_on_c, 0, 74, 0
4, 122496, Note_on_c, 0, 75, 87
4, 122624, Note_on_c, 0, 75, 0
4, 122688, Note_on_c, 0, 76, 87
4, 122816, Note_on_c, 0, 76, 0
4, 122880, Note_on_c, 0, 77, 87
4, 123392, Note_on_c, 0, 77, 0
4, 123648, Note_on_c, 0, 77, 87
4, 123776, Note_on_c, 0, 77, 0
4, 123840, Note_on_c, 0, 74, 87
4, 123968, Note_on_c, 0, 74, 0
4, 124032, Note_on_c, 0, 75, 87
4, 124160, Note_on_c, 0, 75, 0
4, 124224, Note_on_c, 0, 76, 87
4, 124352, Note_on_c, 0, 76, 0
4, 124416, Note_on_c, 0, 77, 87
4, 124928, Note_on_c, 0, 77, 0
4, 125184, Note_on_c, 0, 77, 87
4, 125312, Note_on_c, 0, 77, 0
4, 125376, Note_on_c, 0, 74, 87
4, 125504, Note_on_c, 0, 74, 0
4, 125568, Note_on_c, 0, 75, 87
4, 125696, Note_on_c, 0, 75, 0
4, 125760, Note_on_c, 0, 76, 87
4, 125888, Note_on_c, 0, 76, 0
4, 125952, Note_on_c, 0, 77, 87
4, 127484, Note_on_c, 0, 77, 0
4, 127488, Note_on_c, 0, 77, 87
4, 129020, Note_on_c, 0, 77, 0
4, 129024, Note_on_c, 0, 77, 87
4, 129404, Note_on_c, 0, 77, 0
4, 133632, Note_on_c, 0, 70, 110
4, 133676, Note_on_c, 0, 70, 0
4, 133680, Note_on_c, 0, 72, 110
4, 133724, Note_on_c, 0, 72, 0
4, 133728, Note_on_c, 0, 70, 110
4, 133772, Note_on_c, 0, 70, 0
4, 133776, Note_on_c, 0, 72, 110
4, 133820, Note_on_c, 0, 72, 0
4, 133824, Note_on_c, 0, 70, 110
4, 133868, Note_on_c, 0, 70, 0
4, 133872, Note_on_c, 0, 72, 110
4, 133916, Note_on_c, 0, 72, 0
4, 133920, Note_on_c, 0, 70, 110
4, 133964, Note_on_c, 0, 70, 0
4, 133968, Note_on_c, 0, 72, 110
4, 134012, Note_on_c, 0, 72, 0
4, 134016, Note_on_c, 0, 70, 110
4, 134060, Note_on_c, 0, 70, 0
4, 134064, Note_on_c, 0, 72, 110
4, 134108, Note_on_c, 0, 72, 0
4, 134112, Note_on_c, 0, 70, 110
4, 134156, Note_on_c, 0, 70, 0
4, 134208, Note_on_c, 0, 69, 110
4, 134300, Note_on_c, 0, 69, 0
4, 134304, Note_on_c, 0, 70, 110
4, 134396, Note_on_c, 0, 70, 0
4, 134400, Note_on_c, 0, 74, 110
4, 134400, Note_on_c, 0, 62, 110
4, 134780, Note_on_c, 0, 62, 0
4, 134780, Note_on_c, 0, 74, 0
4, 134784, Note_on_c, 0, 66, 110
4, 135164, Note_on_c, 0, 66, 0
4, 135168, Note_on_c, 0, 67, 110
4, 135548, Note_on_c, 0, 67, 0
4, 141312, Note_on_c, 0, 69, 87
4, 141312, Note_on_c, 0, 65, 87
4, 141312, Note_on_c, 0, 60, 87
4, 142844, Note_on_c, 0, 60, 0
4, 142844, Note_on_c, 0, 65, 0
4, 142844, Note_on_c, 0, 69, 0
4, 142848, Note_on_c, 0, 60, 87
4, 142848, Note_on_c, 0, 64, 87
4, 142848, Note_on_c, 0, 70, 87
4, 144380, Note_on_c, 0, 70, 0
4, 144380, Note_on_c, 0, 64, 0
4, 144380, Note_on_c, 0, 60, 0
4, 144384, Note_on_c, 0, 58, 87
4, 144384, Note_on_c, 0, 55, 87
4, 144384, Note_on_c, 0, 64, 87
4, 145916, Note_on_c, 0, 64, 0
4, 145916, Note_on_c, 0, 55, 0
4, 145916, Note_on_c, 0, 58, 0
4, 145920, Note_on_c, 0, 65, 87
4, 145920, Note_on_c, 0, 57, 87
4, 146300, Note_on_c, 0, 57, 0
4, 146300, Note_on_c, 0, 65, 0
4, 151296, Note_on_c, 0, 59, 110
4, 151296, Note_on_c, 0, 55, 110
4, 151296, Note_on_c, 0, 65, 110
4, 152060, Note_on_c, 0, 65, 0
4, 152060, Note_on_c, 0, 55, 0
4, 152060, Note_on_c, 0, 59, 0
4, 152064, Note_on_c, 0, 64, 87
4, 152064, Note_on_c, 0, 60, 87
4, 152064, Note_on_c, 0, 55, 87
4, 152444, Note_on_c, 0, 55, 0
4, 152444, Note_on_c, 0, 60, 0
4, 152444, Note_on_c, 0, 64, 0
4, 154368, Note_on_c, 0, 65, 110
4, 154368, Note_on_c, 0, 59, 110
4, 154368, Note_on_c, 0, 55, 110
4, 154880, Note_on_c, 0, 55, 0
4, 154880, Note_on_c, 0, 59, 0
4, 154880, Note_on_c, 0, 65, 0
4, 155136, Note_on_c, 0, 64, 87
4, 155136, Note_on_c, 0, 60, 87
4, 155136, Note_on_c, 0, 55, 87
4, 155516, Note_on_c, 0, 55, 0
4, 155516, Note_on_c, 0, 60, 0
4, 155516, Note_on_c, 0, 64, 0
4, 158400, Note_on_c, 0, 72, 110
4, 158528, Note_on_c, 0, 72, 0
4, 158592, Note_on_c, 0, 76, 110
4, 158720, Note_on_c, 0, 76, 0
4, 158784, Note_on_c, 0, 72, 110
4, 158912, Note_on_c, 0, 72, 0
4, 158976, Note_on_c, 0, 67, 110
4, 159104, Note_on_c, 0, 67, 0
4, 159168, Note_on_c, 0, 72, 110
4, 159296, Note_on_c, 0, 72, 0
4, 159360, Note_on_c, 0, 64, 110
4, 159488, Note_on_c, 0, 64, 0
4, 159552, Note_on_c, 0, 67, 110
4, 159680, Note_on_c, 0, 67, 0
4, 159744, Note_on_c, 0, 60, 110
4, 160000, Note_on_c, 0, 60, 0
4, 166848, Note_on_c, 0, 64, 87
4, 166848, Note_on_c, 0, 67, 87
4, 166976, Note_on_c, 0, 67, 0
4, 166976, Note_on_c, 0, 64, 0
4, 167040, Note_on_c, 0, 70, 87
4, 167040, Note_on_c, 0, 67, 87
4, 167168, Note_on_c, 0, 67, 0
4, 167168, Note_on_c, 0, 70, 0
4, 167232, Note_on_c, 0, 69, 87
4, 167232, Note_on_c, 0, 65, 87
4, 167360, Note_on_c, 0, 65, 0
4, 167360, Note_on_c, 0, 69, 0
4, 167424, Note_on_c, 0, 67, 87
4, 167424, Note_on_c, 0, 64, 87
4, 167424, Note_on_c, 0, 60, 87
4, 168572, Note_on_c, 0, 64, 0
4, 168572, Note_on_c, 0, 67, 0
4, 168576, Note_on_c, 0, 69, 87
4, 168576, Note_on_c, 0, 65, 87
4, 168956, Note_on_c, 0, 65, 0
4, 168956, Note_on_c, 0, 69, 0
4, 168956, Note_on_c, 0, 60, 0
4, 168960, Note_on_c, 0, 70, 87
4, 168960, Note_on_c, 0, 67, 87
4, 168960, Note_on_c, 0, 60, 87
4, 169340, Note_on_c, 0, 60, 0
4, 169340, Note_on_c, 0, 67, 0
4, 169340, Note_on_c, 0, 70, 0
4, 172224, Note_on_c, 0, 64, 87
4, 172224, Note_on_c, 0, 60, 87
4, 172352, Note_on_c, 0, 60, 0
4, 172352, Note_on_c, 0, 64, 0
4, 172416, Note_on_c, 0, 65, 87
4, 172416, Note_on_c, 0, 62, 87
4, 172544, Note_on_c, 0, 62, 0
4, 172544, Note_on_c, 0, 65, 0
4, 172608, Note_on_c, 0, 67, 87
4, 172608, Note_on_c, 0, 64, 87
4, 172736, Note_on_c, 0, 64, 0
4, 172736, Note_on_c, 0, 67, 0
4, 172800, Note_on_c, 0, 69, 87
4, 172800, Note_on_c, 0, 65, 87
4, 172928, Note_on_c, 0, 65, 0
4, 172928, Note_on_c, 0, 69, 0
4, 172992, Note_on_c, 0, 69, 87
4, 172992, Note_on_c, 0, 65, 87
4, 173120, Note_on_c, 0, 65, 0
4, 173120, Note_on_c, 0, 69, 0
4, 173184, Note_on_c, 0, 67, 87
4, 173184, Note_on_c, 0, 70, 87
4, 173312, Note_on_c, 0, 70, 0
4, 173312, Note_on_c, 0, 67, 0
4, 173376, Note_on_c, 0, 72, 87
4, 173376, Note_on_c, 0, 69, 87
4, 173504, Note_on_c, 0, 69, 0
4, 173504, Note_on_c, 0, 72, 0
4, 173568, Note_on_c, 0, 74, 87
4, 173568, Note_on_c, 0, 70, 87
4, 173952, Note_on_c, 0, 70, 0
4, 173952, Note_on_c, 0, 74, 0
4, 174336, Note_on_c, 0, 70, 87
4, 174336, Note_on_c, 0, 62, 87
4, 174716, Note_on_c, 0, 62, 0
4, 174716, Note_on_c, 0, 70, 0
4, 174720, Note_on_c, 0, 77, 87
4, 174720, Note_on_c, 0, 74, 87
4, 174848, Note_on_c, 0, 74, 0
4, 174848, Note_on_c, 0, 77, 0
4, 174912, Note_on_c, 0, 77, 87
4, 174912, Note_on_c, 0, 74, 87
4, 175040, Note_on_c, 0, 74, 0
4, 175040, Note_on_c, 0, 77, 0
4, 175104, Note_on_c, 0, 77, 87
4, 175104, Note_on_c, 0, 69, 87
4, 175488, Note_on_c, 0, 69, 0
4, 175488, Note_on_c, 0, 77, 0
4, 175680, Note_on_c, 0, 76, 87
4, 175680, Note_on_c, 0, 72, 87
4, 175744, Note_on_c, 0, 72, 0
4, 175744, Note_on_c, 0, 76, 0
4, 175776, Note_on_c, 0, 70, 87
4, 175776, Note_on_c, 0, 74, 87
4, 175840, Note_on_c, 0, 74, 0
4, 175840, Note_on_c, 0, 70, 0
4, 175872, Note_on_c, 0, 72, 87
4, 175872, Note_on_c, 0, 69, 87
4, 176252, Note_on_c, 0, 69, 0
4, 176252, Note_on_c, 0, 72, 0
4, 176640, Note_on_c, 0, 74, 87
4, 176640, Note_on_c, 0, 65, 87
4, 177024, Note_on_c, 0, 65, 0
4, 177024, Note_on_c, 0, 74, 0
4, 177216, Note_on_c, 0, 70, 87
4, 177216, Note_on_c, 0, 62, 87
4, 177344, Note_on_c, 0, 62, 0
4, 177344, Note_on_c, 0, 70, 0
4, 177408, Note_on_c, 0, 77, 87
4, 177408, Note_on_c, 0, 74, 87
4, 177536, Note_on_c, 0, 74, 0
4, 177536, Note_on_c, 0, 77, 0
4, 177600, Note_on_c, 0, 77, 87
4, 177600, Note_on_c, 0, 74, 87
4, 177728, Note_on_c, 0, 74, 0
4, 177728, Note_on_c, 0, 77, 0
4, 177792, Note_on_c, 0, 77, 87
4, 177792, Note_on_c, 0, 74, 87
4, 177920, Note_on_c, 0, 74, 0
4, 177920, Note_on_c, 0, 77, 0
4, 177984, Note_on_c, 0, 74, 87
4, 177984, Note_on_c, 0, 77, 87
4, 178112, Note_on_c, 0, 77, 0
4, 178112, Note_on_c, 0, 74, 0
4, 178176, Note_on_c, 0, 77, 87
4, 178176, Note_on_c, 0, 69, 87
4, 178560, Note_on_c, 0, 69, 0
4, 178560, Note_on_c, 0, 77, 0
4, 178752, Note_on_c, 0, 76, 87
4, 178752, Note_on_c, 0, 72, 87
4, 178816, Note_on_c, 0, 72, 0
4, 178816, Note_on_c, 0, 76, 0
4, 178848, Note_on_c, 0, 70, 87
4, 178848, Note_on_c, 0, 74, 87
4, 178912, Note_on_c, 0, 74, 0
4, 178912, Note_on_c, 0, 70, 0
4, 178944, Note_on_c, 0, 72, 87
4, 178944, Note_on_c, 0, 69, 87
4, 179324, Note_on_c, 0, 69, 0
4, 179324, Note_on_c, 0, 72, 0
4, 179712, Note_on_c, 0, 72, 87
4, 179712, Note_on_c, 0, 69, 87
4, 179712, Note_on_c, 0, 66, 87
4, 180096, Note_on_c, 0, 72, 0
4, 180224, Note_on_c, 0, 66, 0
4, 180224, Note_on_c, 0, 69, 0
4, 180288, Note_on_c, 0, 74, 87
4, 180416, Note_on_c, 0, 74, 0
4, 180480, Note_on_c, 0, 71, 87
4, 180480, Note_on_c, 0, 67, 87
4, 180608, Note_on_c, 0, 67, 0
4, 180608, Note_on_c, 0, 71, 0
4, 180864, Note_on_c, 0, 79, 87
4, 180992, Note_on_c, 0, 79, 0
4, 181248, Note_on_c, 0, 67, 87
4, 181248, Note_on_c, 0, 64, 87
4, 181248, Note_on_c, 0, 70, 87
4, 181632, Note_on_c, 0, 70, 0
4, 181760, Note_on_c, 0, 64, 0
4, 181760, Note_on_c, 0, 67, 0
4, 181824, Note_on_c, 0, 72, 87
4, 181952, Note_on_c, 0, 72, 0
4, 182016, Note_on_c, 0, 65, 87
4, 182016, Note_on_c, 0, 69, 87
4, 182144, Note_on_c, 0, 69, 0
4, 182144, Note_on_c, 0, 65, 0
4, 182400, Note_on_c, 0, 77, 87
4, 182528, Note_on_c, 0, 77, 0
4, 182784, Note_on_c, 0, 77, 87
4, 182784, Note_on_c, 0, 74, 87
4, 182912, Note_on_c, 0, 74, 0
4, 182912, Note_on_c, 0, 77, 0
4, 182976, Note_on_c, 0, 70, 87
4, 182976, Note_on_c, 0, 74, 87
4, 183040, Note_on_c, 0, 74, 0
4, 183040, Note_on_c, 0, 70, 0
4, 183168, Note_on_c, 0, 70, 87
4, 183168, Note_on_c, 0, 62, 87
4, 183168, Note_on_c, 0, 74, 87
4, 183296, Note_on_c, 0, 74, 0
4, 183296, Note_on_c, 0, 62, 0
4, 183296, Note_on_c, 0, 70, 0
4, 183360, Note_on_c, 0, 70, 87
4, 183360, Note_on_c, 0, 67, 87
4, 183424, Note_on_c, 0, 67, 0
4, 183424, Note_on_c, 0, 70, 0
4, 183552, Note_on_c, 0, 69, 87
4, 183552, Note_on_c, 0, 65, 87
4, 183552, Note_on_c, 0, 60, 87
4, 183680, Note_on_c, 0, 60, 0
4, 183680, Note_on_c, 0, 65, 0
4, 183680, Note_on_c, 0, 69, 0
4, 183936, Note_on_c, 0, 67, 87
4, 183936, Note_on_c, 0, 63, 87
4, 183936, Note_on_c, 0, 58, 87
4, 184064, Note_on_c, 0, 58, 0
4, 184064, Note_on_c, 0, 63, 0
4, 184064, Note_on_c, 0, 67, 0
4, 184320, Note_on_c, 0, 65, 87
4, 184320, Note_on_c, 0, 57, 87
4, 184576, Note_on_c, 0, 57, 0
4, 184576, Note_on_c, 0, 65, 0
4, 195072, Note_on_c, 0, 69, 110
4, 195072, Note_on_c, 0, 65, 110
4, 195200, Note_on_c, 0, 65, 0
4, 195200, Note_on_c, 0, 69, 0
4, 195456, Note_on_c, 0, 77, 87
4, 195456, Note_on_c, 0, 69, 87
4, 195584, Note_on_c, 0, 69, 0
4, 195584, Note_on_c, 0, 77, 0
4, 195840, Note_on_c, 0, 67, 110
4, 195840, Note_on_c, 0, 64, 110
4, 195968, Note_on_c, 0, 64, 0
4, 195968, Note_on_c, 0, 67, 0
4, 196224, Note_on_c, 0, 76, 87
4, 196224, Note_on_c, 0, 67, 87
4, 196352, Note_on_c, 0, 67, 0
4, 196352, Note_on_c, 0, 76, 0
4, 196608, Note_on_c, 0, 65, 110
4, 196608, Note_on_c, 0, 62, 110
4, 196736, Note_on_c, 0, 62, 0
4, 196736, Note_on_c, 0, 65, 0
4, 196992, Note_on_c, 0, 74, 87
4, 196992, Note_on_c, 0, 65, 87
4, 197120, Note_on_c, 0, 65, 0
4, 197120, Note_on_c, 0, 74, 0
4, 197376, Note_on_c, 0, 64, 110
4, 197376, Note_on_c, 0, 60, 110
4, 197504, Note_on_c, 0, 60, 0
4, 197504, Note_on_c, 0, 64, 0
4, 197760, Note_on_c, 0, 72, 87
4, 197760, Note_on_c, 0, 64, 87
4, 197888, Note_on_c, 0, 64, 0
4, 197888, Note_on_c, 0, 72, 0
4, 198144, Note_on_c, 0, 62, 110
4, 198144, Note_on_c, 0, 58, 110
4, 198272, Note_on_c, 0, 58, 0
4, 198272, Note_on_c, 0, 62, 0
4, 198528, Note_on_c, 0, 70, 87
4, 198528, Note_on_c, 0, 62, 87
4, 198656, Note_on_c, 0, 62, 0
4, 198656, Note_on_c, 0, 70, 0
4, 198912, Note_on_c, 0, 60, 110
4, 198912, Note_on_c, 0, 57, 110
4, 199040, Note_on_c, 0, 57, 0
4, 199040, Note_on_c, 0, 60, 0
4, 199296, Note_on_c, 0, 69, 87
4, 199296, Note_on_c, 0, 60, 87
4, 199424, Note_on_c, 0, 60, 0
4, 199424, Note_on_c, 0, 69, 0
4, 199680, Note_on_c, 0, 67, 87
4, 199680, Note_on_c, 0, 62, 87
4, 199680, Note_on_c, 0, 70, 87
4, 200060, Note_on_c, 0, 62, 0
4, 200060, Note_on_c, 0, 67, 0
4, 200064, Note_on_c, 0, 65, 87
4, 200064, Note_on_c, 0, 67, 87
4, 200444, Note_on_c, 0, 67, 0
4, 200444, Note_on_c, 0, 65, 0
4, 200448, Note_on_c, 0, 64, 87
4, 200448, Note_on_c, 0, 67, 87
4, 200828, Note_on_c, 0, 67, 0
4, 200828, Note_on_c, 0, 64, 0
4, 200832, Note_on_c, 0, 67, 87
4, 200832, Note_on_c, 0, 60, 87
4, 201212, Note_on_c, 0, 60, 0
4, 201212, Note_on_c, 0, 67, 0
4, 201212, Note_on_c, 0, 70, 0
4, 201216, Note_on_c, 0, 65, 87
4, 201216, Note_on_c, 0, 69, 87
4, 201216, Note_on_c, 0, 60, 87
4, 201596, Note_on_c, 0, 60, 0
4, 201596, Note_on_c, 0, 69, 0
4, 201596, Note_on_c, 0, 65, 0
4, 201984, Note_on_c, 0, 63, 87
4, 201984, Note_on_c, 0, 60, 87
4, 201984, Note_on_c, 0, 53, 87
4, 202496, Note_on_c, 0, 53, 0
4, 202496, Note_on_c, 0, 60, 0
4, 202496, Note_on_c, 0, 63, 0
4, 202752, Note_on_c, 0, 62, 87
4, 202752, Note_on_c, 0, 58, 87
4, 202752, Note_on_c, 0, 53, 87
4, 203008, Note_on_c, 0, 53, 0
4, 203008, Note_on_c, 0, 58, 0
4, 203008, Note_on_c, 0, 62, 0
4, 203520, Note_on_c, 0, 65, 87
4, 203520, Note_on_c, 0, 62, 87
4, 203520, Note_on_c, 0, 58, 87
4, 204032, Note_on_c, 0, 58, 0
4, 204032, Note_on_c, 0, 62, 0
4, 204032, Note_on_c, 0, 65, 0
4, 204288, Note_on_c, 0, 65, 87
4, 204288, Note_on_c, 0, 62, 87
4, 204288, Note_on_c, 0, 55, 87
4, 204416, Note_on_c, 0, 55, 0
4, 204416, Note_on_c, 0, 62, 0
4, 204416, Note_on_c, 0, 65, 0
4, 205056, Note_on_c, 0, 65, 87
4, 205056, Note_on_c, 0, 62, 87
4, 205056, Note_on_c, 0, 67, 87
4, 205568, Note_on_c, 0, 67, 0
4, 205568, Note_on_c, 0, 62, 0
4, 205568, Note_on_c, 0, 65, 0
4, 205824, Note_on_c, 0, 69, 87
4, 205824, Note_on_c, 0, 65, 87
4, 205824, Note_on_c, 0, 60, 87
4, 206204, Note_on_c, 0, 60, 0
4, 206204, Note_on_c, 0, 65, 0
4, 206204, Note_on_c, 0, 69, 0
4, 207360, Note_on_c, 0, 84, 87
4, 207360, Note_on_c, 0, 72, 87
4, 208892, Note_on_c, 0, 72, 0
4, 208892, Note_on_c, 0, 84, 0
4, 208896, Note_on_c, 0, 69, 87
4, 208896, Note_on_c, 0, 65, 87
4, 208896, Note_on_c, 0, 60, 87
4, 209024, Note_on_c, 0, 60, 0
4, 209024, Note_on_c, 0, 65, 0
4, 209024, Note_on_c, 0, 69, 0
4, 209088, Note_on_c, 0, 69, 87
4, 209088, Note_on_c, 0, 65, 87
4, 209088, Note_on_c, 0, 60, 87
4, 209216, Note_on_c, 0, 60, 0
4, 209216, Note_on_c, 0, 65, 0
4, 209216, Note_on_c, 0, 69, 0
4, 209280, Note_on_c, 0, 69, 87
4, 209280, Note_on_c, 0, 65, 87
4, 209280, Note_on_c, 0, 60, 87
4, 209408, Note_on_c, 0, 60, 0
4, 209408, Note_on_c, 0, 65, 0
4, 209408, Note_on_c, 0, 69, 0
4, 209472, Note_on_c, 0, 69, 87
4, 209472, Note_on_c, 0, 65, 87
4, 209472, Note_on_c, 0, 60, 87
4, 209600, Note_on_c, 0, 60, 0
4, 209600, Note_on_c, 0, 65, 0
4, 209600, Note_on_c, 0, 69, 0
4, 209664, Note_on_c, 0, 69, 89
4, 209664, Note_on_c, 0, 65, 89
4, 209664, Note_on_c, 0, 60, 89
4, 209792, Note_on_c, 0, 60, 0
4, 209792, Note_on_c, 0, 65, 0
4, 209792, Note_on_c, 0, 69, 0
4, 209856, Note_on_c, 0, 69, 90
4, 209856, Note_on_c, 0, 65, 90
4, 209856, Note_on_c, 0, 60, 90
4, 209984, Note_on_c, 0, 60, 0
4, 209984, Note_on_c, 0, 65, 0
4, 209984, Note_on_c, 0, 69, 0
4, 210048, Note_on_c, 0, 69, 92
4, 210048, Note_on_c, 0, 65, 92
4, 210048, Note_on_c, 0, 60, 92
4, 210176, Note_on_c, 0, 60, 0
4, 210176, Note_on_c, 0, 65, 0
4, 210176, Note_on_c, 0, 69, 0
4, 210240, Note_on_c, 0, 69, 93
4, 210240, Note_on_c, 0, 65, 93
4, 210240, Note_on_c, 0, 60, 93
4, 210368, Note_on_c, 0, 60, 0
4, 210368, Note_on_c, 0, 65, 0
4, 210368, Note_on_c, 0, 69, 0
4, 210432, Note_on_c, 0, 67, 95
4, 210432, Note_on_c, 0, 64, 95
4, 210496, Note_on_c, 0, 64, 0
4, 210496, Note_on_c, 0, 67, 0
4, 210528, Note_on_c, 0, 60, 96
4, 210592, Note_on_c, 0, 60, 0
4, 210624, Note_on_c, 0, 67, 96
4, 210624, Note_on_c, 0, 64, 96
4, 210688, Note_on_c, 0, 64, 0
4, 210688, Note_on_c, 0, 67, 0
4, 210720, Note_on_c, 0, 60, 98
4, 210784, Note_on_c, 0, 60, 0
4, 210816, Note_on_c, 0, 67, 99
4, 210816, Note_on_c, 0, 64, 99
4, 210880, Note_on_c, 0, 64, 0
4, 210880, Note_on_c, 0, 67, 0
4, 210912, Note_on_c, 0, 60, 99
4, 210976, Note_on_c, 0, 60, 0
4, 211008, Note_on_c, 0, 67, 101
4, 211008, Note_on_c, 0, 64, 101
4, 211072, Note_on_c, 0, 64, 0
4, 211072, Note_on_c, 0, 67, 0
4, 211104, Note_on_c, 0, 60, 101
4, 211168, Note_on_c, 0, 60, 0
4, 211200, Note_on_c, 0, 67, 102
4, 211200, Note_on_c, 0, 64, 102
4, 211264, Note_on_c, 0, 64, 0
4, 211264, Note_on_c, 0, 67, 0
4, 211296, Note_on_c, 0, 60, 102
4, 211360, Note_on_c, 0, 60, 0
4, 211392, Note_on_c, 0, 67, 104
4, 211392, Note_on_c, 0, 64, 104
4, 211456, Note_on_c, 0, 64, 0
4, 211456, Note_on_c, 0, 67, 0
4, 211488, Note_on_c, 0, 60, 105
4, 211552, Note_on_c, 0, 60, 0
4, 211584, Note_on_c, 0, 67, 105
4, 211584, Note_on_c, 0, 64, 105
4, 211648, Note_on_c, 0, 64, 0
4, 211648, Note_on_c, 0, 67, 0
4, 211680, Note_on_c, 0, 60, 107
4, 211744, Note_on_c, 0, 60, 0
4, 211776, Note_on_c, 0, 67, 107
4, 211776, Note_on_c, 0, 64, 107
4, 211840, Note_on_c, 0, 64, 0
4, 211840, Note_on_c, 0, 67, 0
4, 211872, Note_on_c, 0, 60, 108
4, 211936, Note_on_c, 0, 60, 0
4, 211968, Note_on_c, 0, 65, 110
4, 211968, Note_on_c, 0, 60, 110
4, 211968, Note_on_c, 0, 57, 110
4, 212480, Note_on_c, 0, 57, 0
4, 212480, Note_on_c, 0, 60, 0
4, 212480, Note_on_c, 0, 65, 0
4, 212736, Note_on_c, 0, 77, 110
4, 212736, Note_on_c, 0, 72, 110
4, 212736, Note_on_c, 0, 69, 110
4, 213120, Note_on_c, 0, 69, 0
4, 213120, Note_on_c, 0, 72, 0
4, 213120, Note_on_c, 0, 77, 0
4, 213312, Note_on_c, 0, 72, 110
4, 213372, Note_on_c, 0, 72, 0
4, 213376, Note_on_c, 0, 69, 110
4, 213436, Note_on_c, 0, 69, 0
4, 213440, Note_on_c, 0, 65, 110
4, 213504, Note_on_c, 0, 64, 110
4, 213508, Note_on_c, 0, 65, 0
4, 213884, Note_on_c, 0, 64, 0
4, 213888, Note_on_c, 0, 70, 110
4, 213888, Note_on_c, 0, 76, 110
4, 213888, Note_on_c, 0, 72, 110
4, 213888, Note_on_c, 0, 67, 110
4, 214080, Note_on_c, 0, 67, 0
4, 214080, Note_on_c, 0, 72, 0
4, 214080, Note_on_c, 0, 70, 0
4, 214176, Note_on_c, 0, 70, 110
4, 214176, Note_on_c, 0, 72, 110
4, 214240, Note_on_c, 0, 72, 0
4, 214240, Note_on_c, 0, 70, 0
4, 214268, Note_on_c, 0, 76, 0
4, 214272, Note_on_c, 0, 79, 110
4, 214272, Note_on_c, 0, 70, 110
4, 214272, Note_on_c, 0, 67, 110
4, 214652, Note_on_c, 0, 67, 0
4, 214652, Note_on_c, 0, 70, 0
4, 214652, Note_on_c, 0, 79, 0
4, 215040, Note_on_c, 0, 60, 110
4, 215040, Note_on_c, 0, 58, 110
4, 215040, Note_on_c, 0, 55, 110
4, 215040, Note_on_c, 0, 52, 110
4, 215552, Note_on_c, 0, 52, 0
4, 215552, Note_on_c, 0, 60, 0
4, 215552, Note_on_c, 0, 58, 0
4, 215552, Note_on_c, 0, 55, 0
4, 215808, Note_on_c, 0, 79, 110
4, 215808, Note_on_c, 0, 70, 110
4, 215808, Note_on_c, 0, 67, 110
4, 216188, Note_on_c, 0, 67, 0
4, 216188, Note_on_c, 0, 70, 0
4, 216188, Note_on_c, 0, 79, 0
4, 216384, Note_on_c, 0, 76, 110
4, 216444, Note_on_c, 0, 76, 0
4, 216448, Note_on_c, 0, 70, 110
4, 216508, Note_on_c, 0, 70, 0
4, 216512, Note_on_c, 0, 67, 110
4, 216572, Note_on_c, 0, 67, 0
4, 216576, Note_on_c, 0, 65, 110
4, 216956, Note_on_c, 0, 65, 0
4, 216960, Note_on_c, 0, 77, 110
4, 216960, Note_on_c, 0, 65, 110
4, 216960, Note_on_c, 0, 69, 110
4, 216960, Note_on_c, 0, 72, 110
4, 217248, Note_on_c, 0, 69, 110
4, 217248, Note_on_c, 0, 72, 110
4, 217312, Note_on_c, 0, 72, 0
4, 217312, Note_on_c, 0, 69, 0
4, 217340, Note_on_c, 0, 69, 0
4, 217340, Note_on_c, 0, 77, 0
4, 217340, Note_on_c, 0, 72, 0
4, 217340, Note_on_c, 0, 65, 0
4, 217344, Note_on_c, 0, 72, 110
4, 217344, Note_on_c, 0, 69, 110
4, 217344, Note_on_c, 0, 81, 110
4, 217724, Note_on_c, 0, 81, 0
4, 217724, Note_on_c, 0, 69, 0
4, 217724, Note_on_c, 0, 72, 0
4, 218112, Note_on_c, 0, 77, 110
4, 218112, Note_on_c, 0, 65, 110
4, 218492, Note_on_c, 0, 65, 0
4, 218492, Note_on_c, 0, 77, 0
4, 218496, Note_on_c, 0, 65, 110
4, 218496, Note_on_c, 0, 77, 110
4, 218688, Note_on_c, 0, 77, 0
4, 218688, Note_on_c, 0, 65, 0
4, 218784, Note_on_c, 0, 65, 110
4, 218848, Note_on_c, 0, 65, 0
4, 218880, Note_on_c, 0, 65, 110
4, 219008, Note_on_c, 0, 65, 0
4, 219072, Note_on_c, 0, 77, 110
4, 219120, Note_on_c, 0, 79, 110
4, 219136, Note_on_c, 0, 77, 0
4, 219164, Note_on_c, 0, 79, 0
4, 219168, Note_on_c, 0, 76, 110
4, 219212, Note_on_c, 0, 76, 0
4, 219216, Note_on_c, 0, 77, 110
4, 219260, Note_on_c, 0, 77, 0
4, 219264, Note_on_c, 0, 81, 110
4, 219392, Note_on_c, 0, 81, 0
4, 219456, Note_on_c, 0, 77, 110
4, 219584, Note_on_c, 0, 77, 0
4, 219648, Note_on_c, 0, 65, 110
4, 219648, Note_on_c, 0, 76, 110
4, 219776, Note_on_c, 0, 76, 0
4, 219776, Note_on_c, 0, 65, 0
4, 219840, Note_on_c, 0, 74, 110
4, 219968, Note_on_c, 0, 74, 0
4, 220032, Note_on_c, 0, 74, 110
4, 220032, Note_on_c, 0, 65, 110
4, 220224, Note_on_c, 0, 65, 0
4, 220224, Note_on_c, 0, 74, 0
4, 220320, Note_on_c, 0, 65, 110
4, 220384, Note_on_c, 0, 65, 0
4, 220416, Note_on_c, 0, 65, 110
4, 220544, Note_on_c, 0, 65, 0
4, 220608, Note_on_c, 0, 74, 110
4, 220656, Note_on_c, 0, 76, 110
4, 220672, Note_on_c, 0, 74, 0
4, 220700, Note_on_c, 0, 76, 0
4, 220704, Note_on_c, 0, 72, 110
4, 220748, Note_on_c, 0, 72, 0
4, 220752, Note_on_c, 0, 74, 110
4, 220796, Note_on_c, 0, 74, 0
4, 220800, Note_on_c, 0, 77, 110
4, 220928, Note_on_c, 0, 77, 0
4, 220992, Note_on_c, 0, 74, 110
4, 221120, Note_on_c, 0, 74, 0
4, 221184, Note_on_c, 0, 72, 110
4, 221184, Note_on_c, 0, 65, 110
4, 221312, Note_on_c, 0, 65, 0
4, 221312, Note_on_c, 0, 72, 0
4, 221376, Note_on_c, 0, 70, 110
4, 221504, Note_on_c, 0, 70, 0
4, 221568, Note_on_c, 0, 65, 110
4, 221568, Note_on_c, 0, 70, 110
4, 221760, Note_on_c, 0, 70, 0
4, 221760, Note_on_c, 0, 65, 0
4, 221856, Note_on_c, 0, 65, 110
4, 221920, Note_on_c, 0, 65, 0
4, 221952, Note_on_c, 0, 65, 110
4, 222080, Note_on_c, 0, 65, 0
4, 222144, Note_on_c, 0, 70, 110
4, 222192, Note_on_c, 0, 72, 110
4, 222208, Note_on_c, 0, 70, 0
4, 222236, Note_on_c, 0, 72, 0
4, 222240, Note_on_c, 0, 69, 110
4, 222284, Note_on_c, 0, 69, 0
4, 222288, Note_on_c, 0, 70, 110
4, 222332, Note_on_c, 0, 70, 0
4, 222336, Note_on_c, 0, 74, 110
4, 222464, Note_on_c, 0, 74, 0
4, 222528, Note_on_c, 0, 70, 110
4, 222656, Note_on_c, 0, 70, 0
4, 222720, Note_on_c, 0, 69, 110
4, 222848, Note_on_c, 0, 69, 0
4, 222912, Note_on_c, 0, 65, 110
4, 222912, Note_on_c, 0, 57, 110
4, 223040, Note_on_c, 0, 57, 0
4, 223040, Note_on_c, 0, 65, 0
4, 223104, Note_on_c, 0, 69, 110
4, 223104, Note_on_c, 0, 65, 110
4, 223232, Note_on_c, 0, 65, 0
4, 223232, Note_on_c, 0, 69, 0
4, 223296, Note_on_c, 0, 72, 110
4, 223296, Note_on_c, 0, 69, 110
4, 223424, Note_on_c, 0, 69, 0
4, 223424, Note_on_c, 0, 72, 0
4, 223488, Note_on_c, 0, 72, 110
4, 223488, Note_on_c, 0, 69, 110
4, 223616, Note_on_c, 0, 69, 0
4, 223616, Note_on_c, 0, 72, 0
4, 223680, Note_on_c, 0, 70, 110
4, 223680, Note_on_c, 0, 67, 110
4, 223808, Note_on_c, 0, 67, 0
4, 223808, Note_on_c, 0, 70, 0
4, 223872, Note_on_c, 0, 69, 110
4, 223872, Note_on_c, 0, 65, 110
4, 224000, Note_on_c, 0, 65, 0
4, 224000, Note_on_c, 0, 69, 0
4, 224064, Note_on_c, 0, 67, 110
4, 224064, Note_on_c, 0, 64, 110
4, 224192, Note_on_c, 0, 64, 0
4, 224192, Note_on_c, 0, 67, 0
4, 224256, Note_on_c, 0, 65, 110
4, 224256, Note_on_c, 0, 77, 110
4, 224384, Note_on_c, 0, 77, 0
4, 224384, Note_on_c, 0, 65, 0
4, 224448, Note_on_c, 0, 77, 110
4, 224576, Note_on_c, 0, 77, 0
4, 224640, Note_on_c, 0, 65, 110
4, 224640, Note_on_c, 0, 77, 110
4, 224832, Note_on_c, 0, 77, 0
4, 224832, Note_on_c, 0, 65, 0
4, 224928, Note_on_c, 0, 65, 110
4, 224992, Note_on_c, 0, 65, 0
4, 225024, Note_on_c, 0, 65, 110
4, 225152, Note_on_c, 0, 65, 0
4, 225216, Note_on_c, 0, 77, 110
4, 225248, Note_on_c, 0, 77, 0
4, 225264, Note_on_c, 0, 79, 110
4, 225296, Note_on_c, 0, 79, 0
4, 225312, Note_on_c, 0, 76, 110
4, 225344, Note_on_c, 0, 76, 0
4, 225360, Note_on_c, 0, 77, 110
4, 225392, Note_on_c, 0, 77, 0
4, 225408, Note_on_c, 0, 81, 110
4, 225536, Note_on_c, 0, 81, 0
4, 225600, Note_on_c, 0, 77, 110
4, 225728, Note_on_c, 0, 77, 0
4, 225792, Note_on_c, 0, 75, 110
4, 225792, Note_on_c, 0, 65, 110
4, 225920, Note_on_c, 0, 65, 0
4, 225920, Note_on_c, 0, 75, 0
4, 225984, Note_on_c, 0, 74, 110
4, 226112, Note_on_c, 0, 74, 0
4, 226176, Note_on_c, 0, 74, 110
4, 226176, Note_on_c, 0, 65, 110
4, 226368, Note_on_c, 0, 65, 0
4, 226368, Note_on_c, 0, 74, 0
4, 226464, Note_on_c, 0, 65, 110
4, 226528, Note_on_c, 0, 65, 0
4, 226560, Note_on_c, 0, 65, 110
4, 226688, Note_on_c, 0, 65, 0
4, 226752, Note_on_c, 0, 70, 110
4, 226752, Note_on_c, 0, 85, 110
4, 226816, Note_on_c, 0, 85, 0
4, 226816, Note_on_c, 0, 70, 0
4, 226848, Note_on_c, 0, 86, 110
4, 226912, Note_on_c, 0, 86, 0
4, 226944, Note_on_c, 0, 85, 110
4, 226944, Note_on_c, 0, 70, 110
4, 227008, Note_on_c, 0, 70, 0
4, 227008, Note_on_c, 0, 85, 0
4, 227040, Note_on_c, 0, 86, 110
4, 227104, Note_on_c, 0, 86, 0
4, 227136, Note_on_c, 0, 85, 110
4, 227136, Note_on_c, 0, 70, 110
4, 227200, Note_on_c, 0, 70, 0
4, 227200, Note_on_c, 0, 85, 0
4, 227232, Note_on_c, 0, 86, 110
4, 227296, Note_on_c, 0, 86, 0
4, 227328, Note_on_c, 0, 72, 110
4, 227328, Note_on_c, 0, 77, 110
4, 227328, Note_on_c, 0, 84, 110
4, 227456, Note_on_c, 0, 84, 0
4, 227456, Note_on_c, 0, 77, 0
4, 227456, Note_on_c, 0, 72, 0
4, 227520, Note_on_c, 0, 70, 110
4, 227520, Note_on_c, 0, 82, 110
4, 227648, Note_on_c, 0, 82, 0
4, 227648, Note_on_c, 0, 70, 0
4, 227712, Note_on_c, 0, 82, 110
4, 227712, Note_on_c, 0, 77, 110
4, 227712, Note_on_c, 0, 70, 110
4, 227904, Note_on_c, 0, 70, 0
4, 227904, Note_on_c, 0, 77, 0
4, 227904, Note_on_c, 0, 82, 0
4, 228288, Note_on_c, 0, 77, 110
4, 228288, Note_on_c, 0, 70, 110
4, 228288, Note_on_c, 0, 82, 110
4, 228416, Note_on_c, 0, 82, 0
4, 228416, Note_on_c, 0, 70, 0
4, 228416, Note_on_c, 0, 77, 0
4, 228480, Note_on_c, 0, 77, 110
4, 228480, Note_on_c, 0, 82, 110
4, 228480, Note_on_c, 0, 70, 110
4, 228608, Note_on_c, 0, 70, 0
4, 228608, Note_on_c, 0, 82, 0
4, 228608, Note_on_c, 0, 77, 0
4, 228672, Note_on_c, 0, 77, 110
4, 228672, Note_on_c, 0, 82, 110
4, 228672, Note_on_c, 0, 70, 110
4, 228800, Note_on_c, 0, 70, 0
4, 228800, Note_on_c, 0, 82, 0
4, 228800, Note_on_c, 0, 77, 0
4, 228864, Note_on_c, 0, 77, 110
4, 228864, Note_on_c, 0, 81, 110
4, 228864, Note_on_c, 0, 69, 110
4, 228992, Note_on_c, 0, 69, 0
4, 228992, Note_on_c, 0, 81, 0
4, 228992, Note_on_c, 0, 77, 0
4, 229056, Note_on_c, 0, 77, 110
4, 229056, Note_on_c, 0, 69, 110
4, 229184, Note_on_c, 0, 69, 0
4, 229184, Note_on_c, 0, 77, 0
4, 229248, Note_on_c, 0, 77, 110
4, 229248, Note_on_c, 0, 81, 110
4, 229376, Note_on_c, 0, 81, 0
4, 229376, Note_on_c, 0, 77, 0
4, 229440, Note_on_c, 0, 81, 110
4, 229440, Note_on_c, 0, 84, 110
4, 229568, Note_on_c, 0, 84, 0
4, 229568, Note_on_c, 0, 81, 0
4, 229632, Note_on_c, 0, 81, 110
4, 229632, Note_on_c, 0, 84, 110
4, 229760, Note_on_c, 0, 84, 0
4, 229760, Note_on_c, 0, 81, 0
4, 229824, Note_on_c, 0, 79, 110
4, 229824, Note_on_c, 0, 82, 110
4, 229952, Note_on_c, 0, 82, 0
4, 229952, Note_on_c, 0, 79, 0
4, 230016, Note_on_c, 0, 77, 110
4, 230016, Note_on_c, 0, 81, 110
4, 230144, Note_on_c, 0, 81, 0
4, 230144, Note_on_c, 0, 77, 0
4, 230208, Note_on_c, 0, 76, 110
4, 230208, Note_on_c, 0, 79, 110
4, 230336, Note_on_c, 0, 79, 0
4, 230336, Note_on_c, 0, 76, 0
4, 230400, Note_on_c, 0, 77, 110
4, 230780, Note_on_c, 0, 77, 0
4, 230784, Note_on_c, 0, 77, 87
4, 230912, Note_on_c, 0, 77, 0
4, 230976, Note_on_c, 0, 81, 87
4, 231104, Note_on_c, 0, 81, 0
4, 231168, Note_on_c, 0, 84, 87
4, 231296, Note_on_c, 0, 84, 0
4, 231360, Note_on_c, 0, 84, 87
4, 231488, Note_on_c, 0, 84, 0
4, 231552, Note_on_c, 0, 77, 87
4, 231680, Note_on_c, 0, 77, 0
4, 231744, Note_on_c, 0, 81, 87
4, 231872, Note_on_c, 0, 81, 0
4, 231936, Note_on_c, 0, 84, 87
4, 232064, Note_on_c, 0, 84, 0
4, 232320, Note_on_c, 0, 77, 87
4, 232448, Note_on_c, 0, 77, 0
4, 232512, Note_on_c, 0, 76, 87
4, 232640, Note_on_c, 0, 76, 0
4, 232704, Note_on_c, 0, 70, 87
4, 232704, Note_on_c, 0, 67, 87
4, 232704, Note_on_c, 0, 60, 87
4, 232704, Note_on_c, 0, 74, 87
4, 232748, Note_on_c, 0, 74, 0
4, 232752, Note_on_c, 0, 76, 87
4, 232796, Note_on_c, 0, 76, 0
4, 232800, Note_on_c, 0, 74, 87
4, 232844, Note_on_c, 0, 74, 0
4, 232848, Note_on_c, 0, 76, 87
4, 232892, Note_on_c, 0, 76, 0
4, 232896, Note_on_c, 0, 72, 87
4, 233024, Note_on_c, 0, 72, 0
4, 233088, Note_on_c, 0, 74, 87
4, 233216, Note_on_c, 0, 74, 0
4, 233216, Note_on_c, 0, 60, 0
4, 233216, Note_on_c, 0, 67, 0
4, 233216, Note_on_c, 0, 70, 0
4, 233280, Note_on_c, 0, 76, 87
4, 233408, Note_on_c, 0, 76, 0
4, 233472, Note_on_c, 0, 76, 87
4, 233472, Note_on_c, 0, 65, 87
4, 233472, Note_on_c, 0, 69, 87
4, 233600, Note_on_c, 0, 76, 0
4, 233664, Note_on_c, 0, 77, 87
4, 233728, Note_on_c, 0, 69, 0
4, 233728, Note_on_c, 0, 65, 0
4, 233792, Note_on_c, 0, 77, 0
4, 233856, Note_on_c, 0, 65, 87
4, 233856, Note_on_c, 0, 72, 87
4, 233984, Note_on_c, 0, 65, 0
4, 234048, Note_on_c, 0, 69, 87
4, 234176, Note_on_c, 0, 69, 0
4, 234236, Note_on_c, 0, 72, 0
4, 234240, Note_on_c, 0, 72, 87
4, 234368, Note_on_c, 0, 72, 0
4, 234432, Note_on_c, 0, 72, 87
4, 234560, Note_on_c, 0, 72, 0
4, 234624, Note_on_c, 0, 65, 87
4, 234752, Note_on_c, 0, 65, 0
4, 234816, Note_on_c, 0, 69, 87
4, 234944, Note_on_c, 0, 69, 0
4, 235008, Note_on_c, 0, 72, 87
4, 235388, Note_on_c, 0, 72, 0
4, 235392, Note_on_c, 0, 65, 87
4, 235520, Note_on_c, 0, 65, 0
4, 235584, Note_on_c, 0, 64, 87
4, 235712, Note_on_c, 0, 64, 0
4, 235776, Note_on_c, 0, 62, 87
4, 235808, Note_on_c, 0, 62, 0
4, 235824, Note_on_c, 0, 64, 87
4, 235856, Note_on_c, 0, 64, 0
4, 235872, Note_on_c, 0, 62, 87
4, 235904, Note_on_c, 0, 62, 0
4, 235920, Note_on_c, 0, 64, 87
4, 235952, Note_on_c, 0, 64, 0
4, 235968, Note_on_c, 0, 60, 87
4, 236096, Note_on_c, 0, 60, 0
4, 236160, Note_on_c, 0, 62, 87
4, 236288, Note_on_c, 0, 62, 0
4, 236352, Note_on_c, 0, 64, 87
4, 236480, Note_on_c, 0, 64, 0
4, 236544, Note_on_c, 0, 64, 87
4, 236672, Note_on_c, 0, 64, 0
4, 236736, Note_on_c, 0, 65, 87
4, 236864, Note_on_c, 0, 65, 0
4, 236928, Note_on_c, 0, 65, 87
4, 236928, Note_on_c, 0, 77, 87
4, 237056, Note_on_c, 0, 77, 0
4, 237056, Note_on_c, 0, 65, 0
4, 237120, Note_on_c, 0, 76, 87
4, 237120, Note_on_c, 0, 64, 87
4, 237248, Note_on_c, 0, 64, 0
4, 237248, Note_on_c, 0, 76, 0
4, 237312, Note_on_c, 0, 62, 87
4, 237312, Note_on_c, 0, 74, 87
4, 237356, Note_on_c, 0, 74, 0
4, 237360, Note_on_c, 0, 76, 87
4, 237360, Note_on_c, 0, 64, 87
4, 237404, Note_on_c, 0, 64, 0
4, 237404, Note_on_c, 0, 76, 0
4, 237408, Note_on_c, 0, 74, 87
4, 237408, Note_on_c, 0, 62, 87
4, 237440, Note_on_c, 0, 62, 0
4, 237452, Note_on_c, 0, 62, 0
4, 237452, Note_on_c, 0, 74, 0
4, 237456, Note_on_c, 0, 76, 87
4, 237456, Note_on_c, 0, 64, 87
4, 237500, Note_on_c, 0, 64, 0
4, 237500, Note_on_c, 0, 76, 0
4, 237504, Note_on_c, 0, 72, 87
4, 237504, Note_on_c, 0, 60, 87
4, 237632, Note_on_c, 0, 60, 0
4, 237632, Note_on_c, 0, 72, 0
4, 237696, Note_on_c, 0, 74, 87
4, 237696, Note_on_c, 0, 62, 87
4, 237824, Note_on_c, 0, 62, 0
4, 237824, Note_on_c, 0, 74, 0
4, 237888, Note_on_c, 0, 64, 87
4, 237888, Note_on_c, 0, 76, 87
4, 238016, Note_on_c, 0, 76, 0
4, 238016, Note_on_c, 0, 64, 0
4, 238080, Note_on_c, 0, 77, 87
4, 238080, Note_on_c, 0, 65, 87
4, 238336, Note_on_c, 0, 65, 0
4, 238336, Note_on_c, 0, 77, 0
4, 256896, Note_on_c, 0, 70, 87
4, 256896, Note_on_c, 0, 67, 87
4, 257276, Note_on_c, 0, 67, 0
4, 257276, Note_on_c, 0, 70, 0
4, 257280, Note_on_c, 0, 79, 87
4, 257280, Note_on_c, 0, 82, 87
4, 257660, Note_on_c, 0, 82, 0
4, 257660, Note_on_c, 0, 79, 0
4, 257664, Note_on_c, 0, 79, 87
4, 257664, Note_on_c, 0, 82, 87
4, 258044, Note_on_c, 0, 82, 0
4, 258044, Note_on_c, 0, 79, 0
4, 258048, Note_on_c, 0, 79, 87
4, 258048, Note_on_c, 0, 82, 87
4, 258560, Note_on_c, 0, 82, 0
4, 258560, Note_on_c, 0, 79, 0
4, 258816, Note_on_c, 0, 67, 87
4, 258816, Note_on_c, 0, 70, 87
4, 259328, Note_on_c, 0, 70, 0
4, 259328, Note_on_c, 0, 67, 0
4, 259968, Note_on_c, 0, 65, 87
4, 259968, Note_on_c, 0, 68, 87
4, 260348, Note_on_c, 0, 68, 0
4, 260348, Note_on_c, 0, 65, 0
4, 260352, Note_on_c, 0, 77, 87
4, 260352, Note_on_c, 0, 80, 87
4, 260732, Note_on_c, 0, 80, 0
4, 260732, Note_on_c, 0, 77, 0
4, 260736, Note_on_c, 0, 77, 87
4, 260736, Note_on_c, 0, 80, 87
4, 261116, Note_on_c, 0, 80, 0
4, 261116, Note_on_c, 0, 77, 0
4, 261120, Note_on_c, 0, 80, 87
4, 261120, Note_on_c, 0, 77, 87
4, 261632, Note_on_c, 0, 77, 0
4, 261632, Note_on_c, 0, 80, 0
4, 261888, Note_on_c, 0, 65, 87
4, 261888, Note_on_c, 0, 68, 87
4, 262400, Note_on_c, 0, 68, 0
4, 262400, Note_on_c, 0, 65, 0
4, 262656, Note_on_c, 0, 67, 87
4, 262656, Note_on_c, 0, 63, 87
4, 264188, Note_on_c, 0, 63, 0
4, 264188, Note_on_c, 0, 67, 0
4, 264192, Note_on_c, 0, 67, 87
4, 264192, Note_on_c, 0, 63, 87
4, 264572, Note_on_c, 0, 63, 0
4, 264572, Note_on_c, 0, 67, 0
4, 264576, Note_on_c, 0, 70, 87
4, 264576, Note_on_c, 0, 67, 87
4, 264956, Note_on_c, 0, 67, 0
4, 264956, Note_on_c, 0, 70, 0
4, 264960, Note_on_c, 0, 70, 87
4, 264960, Note_on_c, 0, 75, 87
4, 265340, Note_on_c, 0, 75, 0
4, 265340, Note_on_c, 0, 70, 0
4, 265344, Note_on_c, 0, 79, 87
4, 265344, Note_on_c, 0, 75, 87
4, 265724, Note_on_c, 0, 75, 0
4, 265724, Note_on_c, 0, 79, 0
4, 265728, Note_on_c, 0, 77, 87
4, 265728, Note_on_c, 0, 74, 87
4, 266240, Note_on_c, 0, 74, 0
4, 266240, Note_on_c, 0, 77, 0
4, 266496, Note_on_c, 0, 74, 87
4, 266496, Note_on_c, 0, 82, 87
4, 266876, Note_on_c, 0, 82, 0
4, 266876, Note_on_c, 0, 74, 0
4, 267264, Note_on_c, 0, 65, 87
4, 267264, Note_on_c, 0, 62, 87
4, 267644, Note_on_c, 0, 62, 0
4, 267644, Note_on_c, 0, 65, 0
4, 267648, Note_on_c, 0, 62, 87
4, 267648, Note_on_c, 0, 65, 87
4, 267648, Note_on_c, 0, 70, 87
4, 268028, Note_on_c, 0, 70, 0
4, 268028, Note_on_c, 0, 65, 0
4, 268028, Note_on_c, 0, 62, 0
4, 268032, Note_on_c, 0, 65, 87
4, 268032, Note_on_c, 0, 70, 87
4, 268032, Note_on_c, 0, 74, 87
4, 268412, Note_on_c, 0, 74, 0
4, 268412, Note_on_c, 0, 70, 0
4, 268412, Note_on_c, 0, 65, 0
4, 268416, Note_on_c, 0, 77, 87
4, 268416, Note_on_c, 0, 74, 87
4, 268416, Note_on_c, 0, 70, 87
4, 268796, Note_on_c, 0, 70, 0
4, 268796, Note_on_c, 0, 74, 0
4, 268796, Note_on_c, 0, 77, 0
4, 268800, Note_on_c, 0, 75, 87
4, 268800, Note_on_c, 0, 72, 87
4, 268800, Note_on_c, 0, 67, 87
4, 269312, Note_on_c, 0, 67, 0
4, 269312, Note_on_c, 0, 72, 0
4, 269312, Note_on_c, 0, 75, 0
4, 269568, Note_on_c, 0, 79, 87
4, 269568, Note_on_c, 0, 75, 87
4, 269568, Note_on_c, 0, 72, 87
4, 269948, Note_on_c, 0, 72, 0
4, 269948, Note_on_c, 0, 75, 0
4, 269948, Note_on_c, 0, 79, 0
4, 270336, Note_on_c, 0, 63, 87
4, 270336, Note_on_c, 0, 60, 87
4, 270716, Note_on_c, 0, 60, 0
4, 270716, Note_on_c, 0, 63, 0
4, 270720, Note_on_c, 0, 67, 87
4, 270720, Note_on_c, 0, 63, 87
4, 271100, Note_on_c, 0, 63, 0
4, 271100, Note_on_c, 0, 67, 0
4, 271104, Note_on_c, 0, 67, 87
4, 271104, Note_on_c, 0, 72, 87
4, 271484, Note_on_c, 0, 72, 0
4, 271484, Note_on_c, 0, 67, 0
4, 271488, Note_on_c, 0, 75, 87
4, 271488, Note_on_c, 0, 72, 87
4, 271868, Note_on_c, 0, 72, 0
4, 271868, Note_on_c, 0, 75, 0
4, 271872, Note_on_c, 0, 74, 87
4, 271872, Note_on_c, 0, 70, 87
4, 272636, Note_on_c, 0, 70, 0
4, 272636, Note_on_c, 0, 74, 0
4, 272640, Note_on_c, 0, 79, 87
4, 272640, Note_on_c, 0, 70, 87
4, 273020, Note_on_c, 0, 70, 0
4, 273020, Note_on_c, 0, 79, 0
4, 273408, Note_on_c, 0, 62, 87
4, 273408, Note_on_c, 0, 58, 87
4, 273788, Note_on_c, 0, 58, 0
4, 273788, Note_on_c, 0, 62, 0
4, 273792, Note_on_c, 0, 63, 87
4, 273792, Note_on_c, 0, 67, 87
4, 273792, Note_on_c, 0, 58, 87
4, 274172, Note_on_c, 0, 58, 0
4, 274172, Note_on_c, 0, 67, 0
4, 274172, Note_on_c, 0, 63, 0
4, 274176, Note_on_c, 0, 70, 87
4, 274176, Note_on_c, 0, 67, 87
4, 274176, Note_on_c, 0, 61, 87
4, 274556, Note_on_c, 0, 61, 0
4, 274556, Note_on_c, 0, 67, 0
4, 274556, Note_on_c, 0, 70, 0
4, 274560, Note_on_c, 0, 73, 87
4, 274560, Note_on_c, 0, 70, 87
4, 274560, Note_on_c, 0, 63, 87
4, 274940, Note_on_c, 0, 63, 0
4, 274940, Note_on_c, 0, 70, 0
4, 274940, Note_on_c, 0, 73, 0
4, 274944, Note_on_c, 0, 72, 87
4, 274944, Note_on_c, 0, 68, 87
4, 274944, Note_on_c, 0, 63, 87
4, 275456, Note_on_c, 0, 63, 0
4, 275456, Note_on_c, 0, 68, 0
4, 275456, Note_on_c, 0, 72, 0
4, 275712, Note_on_c, 0, 75, 87
4, 275712, Note_on_c, 0, 72, 87
4, 275712, Note_on_c, 0, 68, 87
4, 276092, Note_on_c, 0, 68, 0
4, 276092, Note_on_c, 0, 72, 0
4, 276092, Note_on_c, 0, 75, 0
4, 276480, Note_on_c, 0, 72, 87
4, 276480, Note_on_c, 0, 68, 87
4, 276860, Note_on_c, 0, 68, 0
4, 276860, Note_on_c, 0, 72, 0
4, 276864, Note_on_c, 0, 75, 87
4, 276864, Note_on_c, 0, 72, 87
4, 277244, Note_on_c, 0, 72, 0
4, 277244, Note_on_c, 0, 75, 0
4, 277248, Note_on_c, 0, 75, 87
4, 277248, Note_on_c, 0, 80, 87
4, 277628, Note_on_c, 0, 80, 0
4, 277628, Note_on_c, 0, 75, 0
4, 277632, Note_on_c, 0, 80, 87
4, 277632, Note_on_c, 0, 84, 87
4, 278012, Note_on_c, 0, 84, 0
4, 278012, Note_on_c, 0, 80, 0
4, 278016, Note_on_c, 0, 79, 87
4, 278016, Note_on_c, 0, 82, 87
4, 278592, Note_on_c, 0, 75, 87
4, 278592, Note_on_c, 0, 79, 87
4, 278720, Note_on_c, 0, 75, 0
4, 278720, Note_on_c, 0, 79, 0
4, 278780, Note_on_c, 0, 82, 0
4, 278780, Note_on_c, 0, 79, 0
4, 278784, Note_on_c, 0, 79, 87
4, 278784, Note_on_c, 0, 82, 87
4, 279164, Note_on_c, 0, 82, 0
4, 279164, Note_on_c, 0, 79, 0
4, 279552, Note_on_c, 0, 58, 87
4, 279552, Note_on_c, 0, 55, 87
4, 279932, Note_on_c, 0, 55, 0
4, 279932, Note_on_c, 0, 58, 0
4, 279936, Note_on_c, 0, 58, 87
4, 279936, Note_on_c, 0, 55, 87
4, 279936, Note_on_c, 0, 63, 87
4, 280316, Note_on_c, 0, 63, 0
4, 280316, Note_on_c, 0, 55, 0
4, 280316, Note_on_c, 0, 58, 0
4, 280320, Note_on_c, 0, 63, 87
4, 280320, Note_on_c, 0, 67, 87
4, 280320, Note_on_c, 0, 58, 87
4, 280700, Note_on_c, 0, 58, 0
4, 280700, Note_on_c, 0, 67, 0
4, 280700, Note_on_c, 0, 63, 0
4, 280704, Note_on_c, 0, 67, 87
4, 280704, Note_on_c, 0, 70, 87
4, 280704, Note_on_c, 0, 63, 87
4, 281084, Note_on_c, 0, 63, 0
4, 281084, Note_on_c, 0, 70, 0
4, 281084, Note_on_c, 0, 67, 0
4, 281088, Note_on_c, 0, 60, 87
4, 281088, Note_on_c, 0, 57, 87
4, 281088, Note_on_c, 0, 53, 87
4, 281468, Note_on_c, 0, 53, 0
4, 281468, Note_on_c, 0, 57, 0
4, 281468, Note_on_c, 0, 60, 0
4, 281472, Note_on_c, 0, 74, 87
4, 281472, Note_on_c, 0, 70, 87
4, 281516, Note_on_c, 0, 70, 0
4, 281516, Note_on_c, 0, 74, 0
4, 281520, Note_on_c, 0, 69, 87
4, 281520, Note_on_c, 0, 72, 87
4, 281664, Note_on_c, 0, 72, 0
4, 281664, Note_on_c, 0, 69, 0
4, 281664, Note_on_c, 0, 70, 87
4, 281664, Note_on_c, 0, 67, 87
4, 281756, Note_on_c, 0, 67, 0
4, 281756, Note_on_c, 0, 70, 0
4, 281760, Note_on_c, 0, 72, 87
4, 281760, Note_on_c, 0, 69, 87
4, 281852, Note_on_c, 0, 69, 0
4, 281852, Note_on_c, 0, 72, 0
4, 281856, Note_on_c, 0, 75, 87
4, 281856, Note_on_c, 0, 72, 87
4, 282236, Note_on_c, 0, 72, 0
4, 282236, Note_on_c, 0, 75, 0
4, 282624, Note_on_c, 0, 62, 87
4, 282624, Note_on_c, 0, 58, 87
4, 283004, Note_on_c, 0, 58, 0
4, 283004, Note_on_c, 0, 62, 0
4, 283008, Note_on_c, 0, 75, 87
4, 283008, Note_on_c, 0, 72, 87
4, 283052, Note_on_c, 0, 72, 0
4, 283052, Note_on_c, 0, 75, 0
4, 283056, Note_on_c, 0, 74, 87
4, 283056, Note_on_c, 0, 70, 87
4, 283200, Note_on_c, 0, 70, 0
4, 283200, Note_on_c, 0, 74, 0
4, 283200, Note_on_c, 0, 72, 87
4, 283200, Note_on_c, 0, 69, 87
4, 283292, Note_on_c, 0, 69, 0
4, 283292, Note_on_c, 0, 72, 0
4, 283296, Note_on_c, 0, 74, 87
4, 283296, Note_on_c, 0, 70, 87
4, 283388, Note_on_c, 0, 70, 0
4, 283388, Note_on_c, 0, 74, 0
4, 283392, Note_on_c, 0, 77, 87
4, 283392, Note_on_c, 0, 74, 87
4, 283772, Note_on_c, 0, 74, 0
4, 283772, Note_on_c, 0, 77, 0
4, 284160, Note_on_c, 0, 64, 87
4, 284160, Note_on_c, 0, 58, 87
4, 284540, Note_on_c, 0, 58, 0
4, 284540, Note_on_c, 0, 64, 0
4, 284544, Note_on_c, 0, 77, 87
4, 284544, Note_on_c, 0, 81, 87
4, 284588, Note_on_c, 0, 81, 0
4, 284588, Note_on_c, 0, 77, 0
4, 284592, Note_on_c, 0, 79, 87
4, 284592, Note_on_c, 0, 76, 87
4, 284736, Note_on_c, 0, 76, 0
4, 284736, Note_on_c, 0, 79, 0
4, 284736, Note_on_c, 0, 74, 87
4, 284736, Note_on_c, 0, 77, 87
4, 284828, Note_on_c, 0, 77, 0
4, 284828, Note_on_c, 0, 74, 0
4, 284832, Note_on_c, 0, 79, 87
4, 284832, Note_on_c, 0, 76, 87
4, 284924, Note_on_c, 0, 79, 0
4, 284928, Note_on_c, 0, 79, 87
4, 284928, Note_on_c, 0, 82, 87
4, 284932, Note_on_c, 0, 76, 0
4, 285308, Note_on_c, 0, 82, 0
4, 285308, Note_on_c, 0, 79, 0
4, 285696, Note_on_c, 0, 65, 87
4, 285696, Note_on_c, 0, 57, 87
4, 286076, Note_on_c, 0, 57, 0
4, 286076, Note_on_c, 0, 65, 0
4, 286080, Note_on_c, 0, 79, 87
4, 286080, Note_on_c, 0, 82, 87
4, 286124, Note_on_c, 0, 82, 0
4, 286124, Note_on_c, 0, 79, 0
4, 286128, Note_on_c, 0, 81, 87
4, 286128, Note_on_c, 0, 77, 87
4, 286272, Note_on_c, 0, 77, 0
4, 286272, Note_on_c, 0, 81, 0
4, 286272, Note_on_c, 0, 79, 87
4, 286272, Note_on_c, 0, 76, 87
4, 286364, Note_on_c, 0, 76, 0
4, 286364, Note_on_c, 0, 79, 0
4, 286368, Note_on_c, 0, 81, 87
4, 286368, Note_on_c, 0, 77, 87
4, 286460, Note_on_c, 0, 77, 0
4, 286460, Note_on_c, 0, 81, 0
4, 286464, Note_on_c, 0, 84, 87
4, 286464, Note_on_c, 0, 81, 87
4, 286844, Note_on_c, 0, 81, 0
4, 286844, Note_on_c, 0, 84, 0
4, 287232, Note_on_c, 0, 63, 87
4, 287232, Note_on_c, 0, 60, 87
4, 287232, Note_on_c, 0, 57, 87
4, 288764, Note_on_c, 0, 57, 0
4, 288764, Note_on_c, 0, 60, 0
4, 288764, Note_on_c, 0, 63, 0
4, 288768, Note_on_c, 0, 61, 87
4, 288768, Note_on_c, 0, 58, 87
4, 290300, Note_on_c, 0, 58, 0
4, 290300, Note_on_c, 0, 61, 0
4, 290304, Note_on_c, 0, 61, 87
4, 290304, Note_on_c, 0, 58, 87
4, 290304, Note_on_c, 0, 63, 87
4, 291068, Note_on_c, 0, 58, 0
4, 291068, Note_on_c, 0, 61, 0
4, 291072, Note_on_c, 0, 58, 87
4, 291836, Note_on_c, 0, 58, 0
4, 291836, Note_on_c, 0, 63, 0
4, 291840, Note_on_c, 0, 65, 87
4, 291840, Note_on_c, 0, 60, 87
4, 291840, Note_on_c, 0, 57, 87
4, 292220, Note_on_c, 0, 57, 0
4, 292220, Note_on_c, 0, 60, 0
4, 292220, Note_on_c, 0, 65, 0
4, 292992, Note_on_c, 0, 65, 87
4, 292992, Note_on_c, 0, 69, 87
4, 293120, Note_on_c, 0, 69, 0
4, 293120, Note_on_c, 0, 65, 0
4, 293184, Note_on_c, 0, 67, 87
4, 293184, Note_on_c, 0, 70, 87
4, 293312, Note_on_c, 0, 70, 0
4, 293312, Note_on_c, 0, 67, 0
4, 293376, Note_on_c, 0, 68, 87
4, 293376, Note_on_c, 0, 71, 87
4, 293504, Note_on_c, 0, 71, 0
4, 293504, Note_on_c, 0, 68, 0
4, 293568, Note_on_c, 0, 69, 87
4, 293568, Note_on_c, 0, 72, 87
4, 293696, Note_on_c, 0, 72, 0
4, 293696, Note_on_c, 0, 69, 0
4, 293760, Note_on_c, 0, 65, 87
4, 293760, Note_on_c, 0, 69, 87
4, 293888, Note_on_c, 0, 69, 0
4, 293888, Note_on_c, 0, 65, 0
4, 293952, Note_on_c, 0, 67, 87
4, 293952, Note_on_c, 0, 70, 87
4, 294080, Note_on_c, 0, 70, 0
4, 294080, Note_on_c, 0, 67, 0
4, 294144, Note_on_c, 0, 68, 87
4, 294144, Note_on_c, 0, 71, 87
4, 294272, Note_on_c, 0, 71, 0
4, 294272, Note_on_c, 0, 68, 0
4, 294336, Note_on_c, 0, 69, 87
4, 294336, Note_on_c, 0, 72, 87
4, 294464, Note_on_c, 0, 72, 0
4, 294464, Note_on_c, 0, 69, 0
4, 294528, Note_on_c, 0, 65, 87
4, 294528, Note_on_c, 0, 69, 87
4, 294656, Note_on_c, 0, 69, 0
4, 294656, Note_on_c, 0, 65, 0
4, 294720, Note_on_c, 0, 67, 87
4, 294720, Note_on_c, 0, 70, 87
4, 294848, Note_on_c, 0, 70, 0
4, 294848, Note_on_c, 0, 67, 0
4, 294912, Note_on_c, 0, 68, 87
4, 294912, Note_on_c, 0, 71, 87
4, 295040, Note_on_c, 0, 71, 0
4, 295040, Note_on_c, 0, 68, 0
4, 295104, Note_on_c, 0, 69, 87
4, 295104, Note_on_c, 0, 72, 87
4, 295232, Note_on_c, 0, 72, 0
4, 295232, Note_on_c, 0, 69, 0
4, 295296, Note_on_c, 0, 72, 87
4, 295296, Note_on_c, 0, 69, 87
4, 295296, Note_on_c, 0, 60, 87
4, 295808, Note_on_c, 0, 60, 0
4, 295808, Note_on_c, 0, 69, 0
4, 295808, Note_on_c, 0, 72, 0
4, 296064, Note_on_c, 0, 72, 87
4, 296064, Note_on_c, 0, 69, 87
4, 296192, Note_on_c, 0, 69, 0
4, 296192, Note_on_c, 0, 72, 0
4, 296256, Note_on_c, 0, 73, 87
4, 296256, Note_on_c, 0, 70, 87
4, 296384, Note_on_c, 0, 70, 0
4, 296384, Note_on_c, 0, 73, 0
4, 296448, Note_on_c, 0, 74, 87
4, 296448, Note_on_c, 0, 71, 87
4, 296576, Note_on_c, 0, 71, 0
4, 296576, Note_on_c, 0, 74, 0
4, 296640, Note_on_c, 0, 75, 87
4, 296640, Note_on_c, 0, 72, 87
4, 296768, Note_on_c, 0, 72, 0
4, 296768, Note_on_c, 0, 75, 0
4, 296832, Note_on_c, 0, 72, 87
4, 296832, Note_on_c, 0, 69, 87
4, 296960, Note_on_c, 0, 69, 0
4, 296960, Note_on_c, 0, 72, 0
4, 297024, Note_on_c, 0, 73, 87
4, 297024, Note_on_c, 0, 70, 87
4, 297152, Note_on_c, 0, 70, 0
4, 297152, Note_on_c, 0, 73, 0
4, 297216, Note_on_c, 0, 74, 87
4, 297216, Note_on_c, 0, 71, 87
4, 297344, Note_on_c, 0, 71, 0
4, 297344, Note_on_c, 0, 74, 0
4, 297408, Note_on_c, 0, 75, 87
4, 297408, Note_on_c, 0, 72, 87
4, 297536, Note_on_c, 0, 72, 0
4, 297536, Note_on_c, 0, 75, 0
4, 297600, Note_on_c, 0, 72, 87
4, 297600, Note_on_c, 0, 69, 87
4, 297728, Note_on_c, 0, 69, 0
4, 297728, Note_on_c, 0, 72, 0
4, 297792, Note_on_c, 0, 73, 87
4, 297792, Note_on_c, 0, 70, 87
4, 297920, Note_on_c, 0, 70, 0
4, 297920, Note_on_c, 0, 73, 0
4, 297984, Note_on_c, 0, 71, 87
4, 297984, Note_on_c, 0, 74, 87
4, 298112, Note_on_c, 0, 74, 0
4, 298112, Note_on_c, 0, 71, 0
4, 298176, Note_on_c, 0, 72, 87
4, 298176, Note_on_c, 0, 75, 87
4, 298304, Note_on_c, 0, 75, 0
4, 298304, Note_on_c, 0, 72, 0
4, 298368, Note_on_c, 0, 75, 87
4, 298368, Note_on_c, 0, 72, 87
4, 298368, Note_on_c, 0, 63, 87
4, 298748, Note_on_c, 0, 63, 0
4, 298748, Note_on_c, 0, 72, 0
4, 298748, Note_on_c, 0, 75, 0
4, 303744, Note_on_c, 0, 74, 87
4, 303744, Note_on_c, 0, 70, 87
4, 303872, Note_on_c, 0, 70, 0
4, 303872, Note_on_c, 0, 74, 0
4, 303936, Note_on_c, 0, 75, 87
4, 303936, Note_on_c, 0, 72, 87
4, 304064, Note_on_c, 0, 72, 0
4, 304064, Note_on_c, 0, 75, 0
4, 304128, Note_on_c, 0, 76, 87
4, 304128, Note_on_c, 0, 73, 87
4, 304256, Note_on_c, 0, 73, 0
4, 304256, Note_on_c, 0, 76, 0
4, 304320, Note_on_c, 0, 77, 87
4, 304320, Note_on_c, 0, 74, 87
4, 304448, Note_on_c, 0, 74, 0
4, 304448, Note_on_c, 0, 77, 0
4, 304512, Note_on_c, 0, 74, 87
4, 304512, Note_on_c, 0, 70, 87
4, 304640, Note_on_c, 0, 70, 0
4, 304640, Note_on_c, 0, 74, 0
4, 304704, Note_on_c, 0, 75, 87
4, 304704, Note_on_c, 0, 72, 87
4, 304832, Note_on_c, 0, 72, 0
4, 304832, Note_on_c, 0, 75, 0
4, 304896, Note_on_c, 0, 73, 87
4, 304896, Note_on_c, 0, 76, 87
4, 305024, Note_on_c, 0, 76, 0
4, 305024, Note_on_c, 0, 73, 0
4, 305088, Note_on_c, 0, 77, 87
4, 305088, Note_on_c, 0, 74, 87
4, 305216, Note_on_c, 0, 74, 0
4, 305216, Note_on_c, 0, 77, 0
4, 305280, Note_on_c, 0, 70, 87
4, 305280, Note_on_c, 0, 74, 87
4, 305408, Note_on_c, 0, 74, 0
4, 305408, Note_on_c, 0, 70, 0
4, 305472, Note_on_c, 0, 75, 87
4, 305472, Note_on_c, 0, 72, 87
4, 305600, Note_on_c, 0, 72, 0
4, 305600, Note_on_c, 0, 75, 0
4, 305664, Note_on_c, 0, 73, 87
4, 305664, Note_on_c, 0, 76, 87
4, 305792, Note_on_c, 0, 76, 0
4, 305792, Note_on_c, 0, 73, 0
4, 305856, Note_on_c, 0, 74, 87
4, 305856, Note_on_c, 0, 77, 87
4, 305984, Note_on_c, 0, 77, 0
4, 305984, Note_on_c, 0, 74, 0
4, 306048, Note_on_c, 0, 74, 87
4, 306048, Note_on_c, 0, 77, 87
4, 306176, Note_on_c, 0, 77, 0
4, 306176, Note_on_c, 0, 74, 0
4, 306432, Note_on_c, 0, 65, 87
4, 306432, Note_on_c, 0, 62, 87
4, 306812, Note_on_c, 0, 62, 0
4, 306812, Note_on_c, 0, 65, 0
4, 306816, Note_on_c, 0, 62, 87
4, 306816, Note_on_c, 0, 65, 87
4, 307196, Note_on_c, 0, 65, 0
4, 307196, Note_on_c, 0, 62, 0
4, 307200, Note_on_c, 0, 65, 87
4, 307200, Note_on_c, 0, 62, 87
4, 308732, Note_on_c, 0, 62, 0
4, 308732, Note_on_c, 0, 65, 0
4, 308736, Note_on_c, 0, 62, 87
4, 308736, Note_on_c, 0, 59, 87
4, 308864, Note_on_c, 0, 59, 0
4, 308864, Note_on_c, 0, 62, 0
4, 308928, Note_on_c, 0, 63, 87
4, 308928, Note_on_c, 0, 60, 87
4, 309056, Note_on_c, 0, 60, 0
4, 309056, Note_on_c, 0, 63, 0
4, 309120, Note_on_c, 0, 63, 87
4, 309120, Note_on_c, 0, 60, 87
4, 309248, Note_on_c, 0, 60, 0
4, 309248, Note_on_c, 0, 63, 0
4, 309312, Note_on_c, 0, 63, 87
4, 309312, Note_on_c, 0, 60, 87
4, 309440, Note_on_c, 0, 60, 0
4, 309440, Note_on_c, 0, 63, 0
4, 309504, Note_on_c, 0, 63, 87
4, 309504, Note_on_c, 0, 60, 87
4, 309632, Note_on_c, 0, 60, 0
4, 309632, Note_on_c, 0, 63, 0
4, 309696, Note_on_c, 0, 72, 87
4, 309696, Note_on_c, 0, 69, 87
4, 309824, Note_on_c, 0, 69, 0
4, 309824, Note_on_c, 0, 72, 0
4, 309888, Note_on_c, 0, 73, 87
4, 309888, Note_on_c, 0, 70, 87
4, 310016, Note_on_c, 0, 70, 0
4, 310016, Note_on_c, 0, 73, 0
4, 310080, Note_on_c, 0, 74, 87
4, 310080, Note_on_c, 0, 71, 87
4, 310208, Note_on_c, 0, 71, 0
4, 310208, Note_on_c, 0, 74, 0
4, 310272, Note_on_c, 0, 75, 87
4, 310272, Note_on_c, 0, 72, 87
4, 310400, Note_on_c, 0, 72, 0
4, 310400, Note_on_c, 0, 75, 0
4, 310464, Note_on_c, 0, 72, 87
4, 310464, Note_on_c, 0, 69, 87
4, 310592, Note_on_c, 0, 69, 0
4, 310592, Note_on_c, 0, 72, 0
4, 310656, Note_on_c, 0, 73, 87
4, 310656, Note_on_c, 0, 70, 87
4, 310784, Note_on_c, 0, 70, 0
4, 310784, Note_on_c, 0, 73, 0
4, 310848, Note_on_c, 0, 74, 87
4, 310848, Note_on_c, 0, 71, 87
4, 310976, Note_on_c, 0, 71, 0
4, 310976, Note_on_c, 0, 74, 0
4, 311040, Note_on_c, 0, 75, 87
4, 311040, Note_on_c, 0, 72, 87
4, 311168, Note_on_c, 0, 72, 0
4, 311168, Note_on_c, 0, 75, 0
4, 311232, Note_on_c, 0, 72, 87
4, 311232, Note_on_c, 0, 69, 87
4, 311360, Note_on_c, 0, 69, 0
4, 311360, Note_on_c, 0, 72, 0
4, 311424, Note_on_c, 0, 73, 87
4, 311424, Note_on_c, 0, 70, 87
4, 311552, Note_on_c, 0, 70, 0
4, 311552, Note_on_c, 0, 73, 0
4, 311616, Note_on_c, 0, 74, 87
4, 311616, Note_on_c, 0, 71, 87
4, 311744, Note_on_c, 0, 71, 0
4, 311744, Note_on_c, 0, 74, 0
4, 311808, Note_on_c, 0, 75, 87
4, 311808, Note_on_c, 0, 72, 87
4, 312188, Note_on_c, 0, 72, 0
4, 312188, Note_on_c, 0, 75, 0
4, 312192, Note_on_c, 0, 63, 87
4, 312192, Note_on_c, 0, 57, 87
4, 312192, Note_on_c, 0, 60, 87
4, 312572, Note_on_c, 0, 60, 0
4, 312572, Note_on_c, 0, 57, 0
4, 312572, Note_on_c, 0, 63, 0
4, 312576, Note_on_c, 0, 63, 87
4, 312576, Note_on_c, 0, 60, 87
4, 312576, Note_on_c, 0, 57, 87
4, 312956, Note_on_c, 0, 57, 0
4, 312956, Note_on_c, 0, 60, 0
4, 312956, Note_on_c, 0, 63, 0
4, 312960, Note_on_c, 0, 60, 87
4, 312960, Note_on_c, 0, 57, 87
4, 312960, Note_on_c, 0, 63, 87
4, 313340, Note_on_c, 0, 63, 0
4, 313340, Note_on_c, 0, 57, 0
4, 313340, Note_on_c, 0, 60, 0
4, 313344, Note_on_c, 0, 63, 87
4, 313344, Note_on_c, 0, 60, 87
4, 313344, Note_on_c, 0, 57, 87
4, 314876, Note_on_c, 0, 57, 0
4, 314876, Note_on_c, 0, 60, 0
4, 314876, Note_on_c, 0, 63, 0
4, 314880, Note_on_c, 0, 61, 87
4, 314880, Note_on_c, 0, 57, 87
4, 315008, Note_on_c, 0, 57, 0
4, 315008, Note_on_c, 0, 61, 0
4, 315072, Note_on_c, 0, 62, 87
4, 315072, Note_on_c, 0, 58, 87
4, 315200, Note_on_c, 0, 58, 0
4, 315200, Note_on_c, 0, 62, 0
4, 315264, Note_on_c, 0, 62, 87
4, 315264, Note_on_c, 0, 58, 87
4, 315392, Note_on_c, 0, 58, 0
4, 315392, Note_on_c, 0, 62, 0
4, 315456, Note_on_c, 0, 62, 87
4, 315456, Note_on_c, 0, 58, 87
4, 315584, Note_on_c, 0, 58, 0
4, 315584, Note_on_c, 0, 62, 0
4, 315648, Note_on_c, 0, 62, 87
4, 315648, Note_on_c, 0, 58, 87
4, 315776, Note_on_c, 0, 58, 0
4, 315776, Note_on_c, 0, 62, 0
4, 315840, Note_on_c, 0, 74, 87
4, 315968, Note_on_c, 0, 74, 0
4, 316032, Note_on_c, 0, 75, 87
4, 316160, Note_on_c, 0, 75, 0
4, 316224, Note_on_c, 0, 76, 87
4, 316352, Note_on_c, 0, 76, 0
4, 316416, Note_on_c, 0, 77, 87
4, 316928, Note_on_c, 0, 77, 0
4, 317184, Note_on_c, 0, 77, 87
4, 317312, Note_on_c, 0, 77, 0
4, 317376, Note_on_c, 0, 74, 87
4, 317504, Note_on_c, 0, 74, 0
4, 317568, Note_on_c, 0, 75, 87
4, 317696, Note_on_c, 0, 75, 0
4, 317760, Note_on_c, 0, 76, 87
4, 317888, Note_on_c, 0, 76, 0
4, 317952, Note_on_c, 0, 77, 87
4, 318464, Note_on_c, 0, 77, 0
4, 318720, Note_on_c, 0, 77, 87
4, 318848, Note_on_c, 0, 77, 0
4, 318912, Note_on_c, 0, 74, 87
4, 319040, Note_on_c, 0, 74, 0
4, 319104, Note_on_c, 0, 75, 87
4, 319232, Note_on_c, 0, 75, 0
4, 319296, Note_on_c, 0, 76, 87
4, 319424, Note_on_c, 0, 76, 0
4, 319488, Note_on_c, 0, 77, 87
4, 321020, Note_on_c, 0, 77, 0
4, 321024, Note_on_c, 0, 77, 87
4, 322556, Note_on_c, 0, 77, 0
4, 322560, Note_on_c, 0, 77, 87
4, 322560, Note_on_c, 0, 74, 87
4, 322688, Note_on_c, 0, 74, 0
4, 322688, Note_on_c, 0, 77, 0
4, 322944, Note_on_c, 0, 75, 87
4, 322944, Note_on_c, 0, 72, 87
4, 323072, Note_on_c, 0, 72, 0
4, 323072, Note_on_c, 0, 75, 0
4, 323328, Note_on_c, 0, 74, 87
4, 323328, Note_on_c, 0, 70, 87
4, 323456, Note_on_c, 0, 70, 0
4, 323456, Note_on_c, 0, 74, 0
4, 323712, Note_on_c, 0, 72, 87
4, 323712, Note_on_c, 0, 69, 87
4, 323840, Note_on_c, 0, 69, 0
4, 323840, Note_on_c, 0, 72, 0
4, 324096, Note_on_c, 0, 70, 110
4, 324096, Note_on_c, 0, 62, 110
4, 324608, Note_on_c, 0, 62, 0
4, 324608, Note_on_c, 0, 70, 0
4, 324864, Note_on_c, 0, 74, 110
4, 324864, Note_on_c, 0, 82, 110
4, 324864, Note_on_c, 0, 70, 110
4, 325248, Note_on_c, 0, 70, 0
4, 325248, Note_on_c, 0, 82, 0
4, 325248, Note_on_c, 0, 74, 0
4, 325440, Note_on_c, 0, 77, 110
4, 325504, Note_on_c, 0, 77, 0
4, 325504, Note_on_c, 0, 74, 110
4, 325568, Note_on_c, 0, 74, 0
4, 325568, Note_on_c, 0, 70, 110
4, 325632, Note_on_c, 0, 70, 0
4, 325632, Note_on_c, 0, 69, 110
4, 326012, Note_on_c, 0, 69, 0
4, 326016, Note_on_c, 0, 72, 110
4, 326016, Note_on_c, 0, 77, 110
4, 326016, Note_on_c, 0, 75, 110
4, 326016, Note_on_c, 0, 81, 110
4, 326208, Note_on_c, 0, 75, 0
4, 326208, Note_on_c, 0, 72, 0
4, 326208, Note_on_c, 0, 77, 0
4, 326304, Note_on_c, 0, 75, 110
4, 326304, Note_on_c, 0, 77, 110
4, 326396, Note_on_c, 0, 77, 0
4, 326396, Note_on_c, 0, 75, 0
4, 326396, Note_on_c, 0, 81, 0
4, 326400, Note_on_c, 0, 84, 110
4, 326400, Note_on_c, 0, 75, 110
4, 326400, Note_on_c, 0, 72, 110
4, 326780, Note_on_c, 0, 72, 0
4, 326780, Note_on_c, 0, 75, 0
4, 326780, Note_on_c, 0, 84, 0
4, 327168, Note_on_c, 0, 63, 110
4, 327168, Note_on_c, 0, 60, 110
4, 327168, Note_on_c, 0, 57, 110
4, 327168, Note_on_c, 0, 65, 110
4, 327932, Note_on_c, 0, 65, 0
4, 327936, Note_on_c, 0, 84, 110
4, 327936, Note_on_c, 0, 75, 110
4, 327936, Note_on_c, 0, 72, 110
4, 328320, Note_on_c, 0, 72, 0
4, 328320, Note_on_c, 0, 84, 0
4, 328320, Note_on_c, 0, 75, 0
4, 328512, Note_on_c, 0, 81, 110
4, 328576, Note_on_c, 0, 81, 0
4, 328576, Note_on_c, 0, 77, 110
4, 328640, Note_on_c, 0, 77, 0
4, 328640, Note_on_c, 0, 72, 110
4, 328700, Note_on_c, 0, 57, 0
4, 328700, Note_on_c, 0, 60, 0
4, 328700, Note_on_c, 0, 63, 0
4, 328704, Note_on_c, 0, 70, 110
4, 328708, Note_on_c, 0, 72, 0
4, 329084, Note_on_c, 0, 70, 0
4, 329088, Note_on_c, 0, 82, 110
4, 329088, Note_on_c, 0, 77, 110
4, 329088, Note_on_c, 0, 74, 110
4, 329088, Note_on_c, 0, 70, 110
4, 329280, Note_on_c, 0, 70, 0
4, 329280, Note_on_c, 0, 74, 0
4, 329280, Note_on_c, 0, 77, 0
4, 329376, Note_on_c, 0, 77, 110
4, 329376, Note_on_c, 0, 74, 110
4, 329440, Note_on_c, 0, 74, 0
4, 329440, Note_on_c, 0, 77, 0
4, 329468, Note_on_c, 0, 82, 0
4, 329472, Note_on_c, 0, 86, 110
4, 329472, Note_on_c, 0, 77, 110
4, 329472, Note_on_c, 0, 74, 110
4, 329852, Note_on_c, 0, 74, 0
4, 329852, Note_on_c, 0, 77, 0
4, 329852, Note_on_c, 0, 86, 0
4, 330240, Note_on_c, 0, 68, 110
4, 330240, Note_on_c, 0, 65, 110
4, 330240, Note_on_c, 0, 58, 110
4, 330620, Note_on_c, 0, 58, 0
4, 330620, Note_on_c, 0, 65, 0
4, 330620, Note_on_c, 0, 68, 0
4, 330624, Note_on_c, 0, 68, 110
4, 330624, Note_on_c, 0, 65, 110
4, 330624, Note_on_c, 0, 58, 110
4, 330816, Note_on_c, 0, 58, 0
4, 330816, Note_on_c, 0, 65, 0
4, 330816, Note_on_c, 0, 68, 0
4, 330912, Note_on_c, 0, 68, 110
4, 330912, Note_on_c, 0, 65, 110
4, 330912, Note_on_c, 0, 58, 110
4, 330976, Note_on_c, 0, 58, 0
4, 330976, Note_on_c, 0, 65, 0
4, 330976, Note_on_c, 0, 68, 0
4, 331008, Note_on_c, 0, 74, 110
4, 331008, Note_on_c, 0, 77, 110
4, 331008, Note_on_c, 0, 70, 110
4, 331008, Note_on_c, 0, 80, 110
4, 331388, Note_on_c, 0, 80, 0
4, 331388, Note_on_c, 0, 74, 0
4, 331388, Note_on_c, 0, 77, 0
4, 331388, Note_on_c, 0, 70, 0
4, 331392, Note_on_c, 0, 80, 110
4, 331392, Note_on_c, 0, 77, 110
4, 331392, Note_on_c, 0, 74, 110
4, 331392, Note_on_c, 0, 68, 110
4, 331772, Note_on_c, 0, 68, 0
4, 331772, Note_on_c, 0, 80, 0
4, 331772, Note_on_c, 0, 77, 0
4, 331772, Note_on_c, 0, 74, 0
4, 331776, Note_on_c, 0, 79, 110
4, 331776, Note_on_c, 0, 77, 110
4, 331776, Note_on_c, 0, 74, 110
4, 331776, Note_on_c, 0, 67, 110
4, 332156, Note_on_c, 0, 67, 0
4, 332156, Note_on_c, 0, 79, 0
4, 332156, Note_on_c, 0, 77, 0
4, 332156, Note_on_c, 0, 74, 0
4, 332160, Note_on_c, 0, 77, 110
4, 332160, Note_on_c, 0, 79, 110
4, 332160, Note_on_c, 0, 86, 110
4, 332160, Note_on_c, 0, 74, 110
4, 332540, Note_on_c, 0, 74, 0
4, 332540, Note_on_c, 0, 77, 0
4, 332540, Note_on_c, 0, 79, 0
4, 332540, Note_on_c, 0, 86, 0
4, 339456, Note_on_c, 0, 70, 87
4, 339456, Note_on_c, 0, 65, 87
4, 339456, Note_on_c, 0, 62, 87
4, 340988, Note_on_c, 0, 62, 0
4, 340988, Note_on_c, 0, 65, 0
4, 340988, Note_on_c, 0, 70, 0
4, 340992, Note_on_c, 0, 69, 87
4, 340992, Note_on_c, 0, 65, 87
4, 340992, Note_on_c, 0, 63, 87
4, 342524, Note_on_c, 0, 63, 0
4, 342524, Note_on_c, 0, 65, 0
4, 342524, Note_on_c, 0, 69, 0
4, 342528, Note_on_c, 0, 63, 87
4, 342528, Note_on_c, 0, 72, 87
4, 342528, Note_on_c, 0, 65, 87
4, 344060, Note_on_c, 0, 65, 0
4, 344060, Note_on_c, 0, 72, 0
4, 344060, Note_on_c, 0, 63, 0
4, 344064, Note_on_c, 0, 70, 87
4, 344064, Note_on_c, 0, 65, 87
4, 344064, Note_on_c, 0, 62, 87
4, 344444, Note_on_c, 0, 62, 0
4, 344444, Note_on_c, 0, 65, 0
4, 344444, Note_on_c, 0, 70, 0
4, 349440, Note_on_c, 0, 58, 110
4, 349440, Note_on_c, 0, 64, 110
4, 349952, Note_on_c, 0, 58, 0
4, 350204, Note_on_c, 0, 64, 0
4, 350208, Note_on_c, 0, 65, 87
4, 350208, Note_on_c, 0, 57, 87
4, 350588, Note_on_c, 0, 57, 0
4, 350588, Note_on_c, 0, 65, 0
4, 352512, Note_on_c, 0, 64, 110
4, 352512, Note_on_c, 0, 58, 110
4, 353276, Note_on_c, 0, 58, 0
4, 353276, Note_on_c, 0, 64, 0
4, 353280, Note_on_c, 0, 65, 87
4, 353280, Note_on_c, 0, 57, 87
4, 353660, Note_on_c, 0, 57, 0
4, 353660, Note_on_c, 0, 65, 0
4, 356544, Note_on_c, 0, 77, 110
4, 356672, Note_on_c, 0, 77, 0
4, 356736, Note_on_c, 0, 81, 110
4, 356864, Note_on_c, 0, 81, 0
4, 356928, Note_on_c, 0, 77, 110
4, 357056, Note_on_c, 0, 77, 0
4, 357120, Note_on_c, 0, 72, 110
4, 357248, Note_on_c, 0, 72, 0
4, 357312, Note_on_c, 0, 77, 110
4, 357440, Note_on_c, 0, 77, 0
4, 357504, Note_on_c, 0, 69, 110
4, 357632, Note_on_c, 0, 69, 0
4, 357696, Note_on_c, 0, 72, 110
4, 357824, Note_on_c, 0, 72, 0
4, 357888, Note_on_c, 0, 65, 110
4, 358016, Note_on_c, 0, 65, 0
4, 364608, Note_on_c, 0, 60, 80
4, 364608, Note_on_c, 0, 63, 80
4, 364736, Note_on_c, 0, 63, 0
4, 364736, Note_on_c, 0, 60, 0
4, 364800, Note_on_c, 0, 63, 80
4, 364800, Note_on_c, 0, 67, 80
4, 364928, Note_on_c, 0, 67, 0
4, 364928, Note_on_c, 0, 63, 0
4, 364992, Note_on_c, 0, 62, 80
4, 364992, Note_on_c, 0, 65, 80
4, 365120, Note_on_c, 0, 65, 0
4, 365120, Note_on_c, 0, 62, 0
4, 365184, Note_on_c, 0, 60, 80
4, 365184, Note_on_c, 0, 63, 80
4, 365312, Note_on_c, 0, 63, 0
4, 365312, Note_on_c, 0, 60, 0
4, 365376, Note_on_c, 0, 62, 80
4, 365376, Note_on_c, 0, 58, 80
4, 365504, Note_on_c, 0, 58, 0
4, 365504, Note_on_c, 0, 62, 0
4, 365568, Note_on_c, 0, 60, 87
4, 365568, Note_on_c, 0, 57, 87
4, 366336, Note_on_c, 0, 57, 0
4, 366336, Note_on_c, 0, 60, 0
4, 366720, Note_on_c, 0, 58, 87
4, 366720, Note_on_c, 0, 62, 87
4, 367100, Note_on_c, 0, 62, 0
4, 367100, Note_on_c, 0, 58, 0
4, 367104, Note_on_c, 0, 63, 87
4, 367104, Note_on_c, 0, 60, 87
4, 367484, Note_on_c, 0, 60, 0
4, 367484, Note_on_c, 0, 63, 0
4, 370368, Note_on_c, 0, 57, 87
4, 370496, Note_on_c, 0, 57, 0
4, 370560, Note_on_c, 0, 58, 87
4, 370688, Note_on_c, 0, 58, 0
4, 370752, Note_on_c, 0, 60, 87
4, 370880, Note_on_c, 0, 60, 0
4, 370944, Note_on_c, 0, 62, 87
4, 371072, Note_on_c, 0, 62, 0
4, 371136, Note_on_c, 0, 62, 87
4, 371264, Note_on_c, 0, 62, 0
4, 371328, Note_on_c, 0, 63, 87
4, 371328, Note_on_c, 0, 60, 87
4, 371456, Note_on_c, 0, 60, 0
4, 371456, Note_on_c, 0, 63, 0
4, 371520, Note_on_c, 0, 65, 87
4, 371520, Note_on_c, 0, 62, 87
4, 371648, Note_on_c, 0, 62, 0
4, 371648, Note_on_c, 0, 65, 0
4, 371712, Note_on_c, 0, 67, 87
4, 371712, Note_on_c, 0, 63, 87
4, 372096, Note_on_c, 0, 63, 0
4, 372096, Note_on_c, 0, 67, 0
4, 372288, Note_on_c, 0, 63, 87
4, 372288, Note_on_c, 0, 55, 87
4, 372416, Note_on_c, 0, 55, 0
4, 372416, Note_on_c, 0, 63, 0
4, 372480, Note_on_c, 0, 67, 87
4, 372480, Note_on_c, 0, 70, 87
4, 372608, Note_on_c, 0, 70, 0
4, 372608, Note_on_c, 0, 67, 0
4, 372864, Note_on_c, 0, 70, 87
4, 372864, Note_on_c, 0, 67, 87
4, 372992, Note_on_c, 0, 67, 0
4, 372992, Note_on_c, 0, 70, 0
4, 373248, Note_on_c, 0, 70, 87
4, 373248, Note_on_c, 0, 62, 87
4, 373632, Note_on_c, 0, 62, 0
4, 373632, Note_on_c, 0, 70, 0
4, 373824, Note_on_c, 0, 69, 87
4, 373824, Note_on_c, 0, 65, 87
4, 373888, Note_on_c, 0, 65, 0
4, 373888, Note_on_c, 0, 69, 0
4, 373920, Note_on_c, 0, 67, 87
4, 373920, Note_on_c, 0, 63, 87
4, 373984, Note_on_c, 0, 63, 0
4, 373984, Note_on_c, 0, 67, 0
4, 374016, Note_on_c, 0, 65, 87
4, 374016, Note_on_c, 0, 62, 87
4, 374396, Note_on_c, 0, 62, 0
4, 374396, Note_on_c, 0, 65, 0
4, 374784, Note_on_c, 0, 79, 87
4, 374784, Note_on_c, 0, 75, 87
4, 374784, Note_on_c, 0, 67, 87
4, 375168, Note_on_c, 0, 67, 0
4, 375168, Note_on_c, 0, 75, 0
4, 375168, Note_on_c, 0, 79, 0
4, 375360, Note_on_c, 0, 75, 87
4, 375360, Note_on_c, 0, 70, 87
4, 375488, Note_on_c, 0, 70, 0
4, 375488, Note_on_c, 0, 75, 0
4, 375552, Note_on_c, 0, 79, 87
4, 375552, Note_on_c, 0, 82, 87
4, 375552, Note_on_c, 0, 70, 87
4, 375680, Note_on_c, 0, 70, 0
4, 375680, Note_on_c, 0, 82, 0
4, 375680, Note_on_c, 0, 79, 0
4, 375744, Note_on_c, 0, 70, 87
4, 375872, Note_on_c, 0, 70, 0
4, 375936, Note_on_c, 0, 79, 87
4, 375936, Note_on_c, 0, 70, 87
4, 375936, Note_on_c, 0, 82, 87
4, 376064, Note_on_c, 0, 82, 0
4, 376064, Note_on_c, 0, 70, 0
4, 376064, Note_on_c, 0, 79, 0
4, 376128, Note_on_c, 0, 70, 87
4, 376256, Note_on_c, 0, 70, 0
4, 376320, Note_on_c, 0, 82, 87
4, 376320, Note_on_c, 0, 74, 87
4, 376320, Note_on_c, 0, 70, 87
4, 376704, Note_on_c, 0, 70, 0
4, 376704, Note_on_c, 0, 74, 0
4, 376704, Note_on_c, 0, 82, 0
4, 376896, Note_on_c, 0, 77, 87
4, 376896, Note_on_c, 0, 81, 87
4, 376896, Note_on_c, 0, 69, 87
4, 376896, Note_on_c, 0, 65, 87
4, 376960, Note_on_c, 0, 65, 0
4, 376960, Note_on_c, 0, 77, 0
4, 376960, Note_on_c, 0, 81, 0
4, 376960, Note_on_c, 0, 69, 0
4, 376992, Note_on_c, 0, 75, 87
4, 376992, Note_on_c, 0, 79, 87
4, 376992, Note_on_c, 0, 67, 87
4, 376992, Note_on_c, 0, 63, 87
4, 377056, Note_on_c, 0, 63, 0
4, 377056, Note_on_c, 0, 75, 0
4, 377056, Note_on_c, 0, 79, 0
4, 377056, Note_on_c, 0, 67, 0
4, 377088, Note_on_c, 0, 77, 87
4, 377088, Note_on_c, 0, 65, 87
4, 377088, Note_on_c, 0, 62, 87
4, 377088, Note_on_c, 0, 74, 87
4, 377216, Note_on_c, 0, 74, 0
4, 377216, Note_on_c, 0, 77, 0
4, 377344, Note_on_c, 0, 62, 0
4, 377344, Note_on_c, 0, 65, 0
4, 377856, Note_on_c, 0, 77, 87
4, 377856, Note_on_c, 0, 71, 87
4, 377856, Note_on_c, 0, 65, 87
4, 378236, Note_on_c, 0, 65, 0
4, 378368, Note_on_c, 0, 71, 0
4, 378368, Note_on_c, 0, 77, 0
4, 378432, Note_on_c, 0, 67, 87
4, 378560, Note_on_c, 0, 67, 0
4, 378624, Note_on_c, 0, 64, 87
4, 378624, Note_on_c, 0, 72, 87
4, 378624, Note_on_c, 0, 76, 87
4, 378752, Note_on_c, 0, 76, 0
4, 378752, Note_on_c, 0, 72, 0
4, 378752, Note_on_c, 0, 64, 0
4, 379008, Note_on_c, 0, 72, 87
4, 379136, Note_on_c, 0, 72, 0
4, 379392, Note_on_c, 0, 75, 87
4, 379392, Note_on_c, 0, 69, 87
4, 379392, Note_on_c, 0, 63, 87
4, 379772, Note_on_c, 0, 63, 0
4, 379904, Note_on_c, 0, 69, 0
4, 379904, Note_on_c, 0, 75, 0
4, 379968, Note_on_c, 0, 65, 87
4, 380096, Note_on_c, 0, 65, 0
4, 380160, Note_on_c, 0, 74, 87
4, 380160, Note_on_c, 0, 62, 87
4, 380160, Note_on_c, 0, 70, 87
4, 380288, Note_on_c, 0, 70, 0
4, 380288, Note_on_c, 0, 62, 0
4, 380288, Note_on_c, 0, 74, 0
4, 380544, Note_on_c, 0, 70, 87
4, 380672, Note_on_c, 0, 70, 0
4, 380928, Note_on_c, 0, 70, 87
4, 380928, Note_on_c, 0, 67, 87
4, 381056, Note_on_c, 0, 67, 0
4, 381056, Note_on_c, 0, 70, 0
4, 381120, Note_on_c, 0, 67, 87
4, 381120, Note_on_c, 0, 63, 87
4, 381184, Note_on_c, 0, 63, 0
4, 381184, Note_on_c, 0, 67, 0
4, 381312, Note_on_c, 0, 67, 87
4, 381312, Note_on_c, 0, 63, 87
4, 381312, Note_on_c, 0, 55, 87
4, 381440, Note_on_c, 0, 55, 0
4, 381440, Note_on_c, 0, 63, 0
4, 381440, Note_on_c, 0, 67, 0
4, 381504, Note_on_c, 0, 63, 87
4, 381504, Note_on_c, 0, 60, 87
4, 381568, Note_on_c, 0, 60, 0
4, 381568, Note_on_c, 0, 63, 0
4, 383616, Note_on_c, 0, 77, 87
4, 383616, Note_on_c, 0, 65, 87
4, 384380, Note_on_c, 0, 65, 0
4, 384380, Note_on_c, 0, 77, 0
4, 384384, Note_on_c, 0, 74, 87
4, 384384, Note_on_c, 0, 62, 87
4, 385148, Note_on_c, 0, 74, 0
4, 385152, Note_on_c, 0, 58, 87
4, 385152, Note_on_c, 0, 70, 87
4, 385164, Note_on_c, 0, 62, 0
4, 385728, Note_on_c, 0, 69, 87
4, 385728, Note_on_c, 0, 57, 87
4, 385916, Note_on_c, 0, 57, 0
4, 385916, Note_on_c, 0, 58, 0
4, 385916, Note_on_c, 0, 70, 0
4, 385916, Note_on_c, 0, 69, 0
4, 385920, Note_on_c, 0, 75, 87
4, 385920, Note_on_c, 0, 63, 87
4, 386300, Note_on_c, 0, 63, 0
4, 386300, Note_on_c, 0, 75, 0
4, 386688, Note_on_c, 0, 75, 87
4, 386688, Note_on_c, 0, 63, 87
4, 387452, Note_on_c, 0, 63, 0
4, 387452, Note_on_c, 0, 75, 0
4, 387456, Note_on_c, 0, 72, 87
4, 387456, Note_on_c, 0, 60, 87
4, 388220, Note_on_c, 0, 60, 0
4, 388220, Note_on_c, 0, 72, 0
4, 388224, Note_on_c, 0, 69, 87
4, 388224, Note_on_c, 0, 57, 87
4, 388800, Note_on_c, 0, 58, 87
4, 388800, Note_on_c, 0, 70, 87
4, 388988, Note_on_c, 0, 70, 0
4, 388988, Note_on_c, 0, 69, 0
4, 388988, Note_on_c, 0, 57, 0
4, 388988, Note_on_c, 0, 58, 0
4, 388992, Note_on_c, 0, 77, 87
4, 388992, Note_on_c, 0, 65, 87
4, 389372, Note_on_c, 0, 65, 0
4, 389372, Note_on_c, 0, 77, 0
4, 395904, Note_on_c, 0, 65, 87
4, 395904, Note_on_c, 0, 77, 87
4, 396668, Note_on_c, 0, 77, 0
4, 396668, Note_on_c, 0, 65, 0
4, 396672, Note_on_c, 0, 74, 87
4, 396672, Note_on_c, 0, 62, 87
4, 397436, Note_on_c, 0, 62, 0
4, 397436, Note_on_c, 0, 74, 0
4, 397440, Note_on_c, 0, 70, 87
4, 397440, Note_on_c, 0, 58, 87
4, 398012, Note_on_c, 0, 58, 0
4, 398012, Note_on_c, 0, 70, 0
4, 398016, Note_on_c, 0, 69, 87
4, 398016, Note_on_c, 0, 57, 87
4, 398204, Note_on_c, 0, 57, 0
4, 398204, Note_on_c, 0, 69, 0
4, 398208, Note_on_c, 0, 75, 87
4, 398208, Note_on_c, 0, 63, 87
4, 398588, Note_on_c, 0, 63, 0
4, 398588, Note_on_c, 0, 75, 0
4, 398976, Note_on_c, 0, 75, 87
4, 398976, Note_on_c, 0, 63, 87
4, 399740, Note_on_c, 0, 63, 0
4, 399740, Note_on_c, 0, 75, 0
4, 399744, Note_on_c, 0, 72, 87
4, 399744, Note_on_c, 0, 60, 87
4, 400508, Note_on_c, 0, 60, 0
4, 400508, Note_on_c, 0, 72, 0
4, 400512, Note_on_c, 0, 69, 87
4, 400512, Note_on_c, 0, 57, 87
4, 401088, Note_on_c, 0, 70, 87
4, 401088, Note_on_c, 0, 58, 87
4, 401276, Note_on_c, 0, 58, 0
4, 401276, Note_on_c, 0, 69, 0
4, 401276, Note_on_c, 0, 57, 0
4, 401276, Note_on_c, 0, 70, 0
4, 401280, Note_on_c, 0, 77, 87
4, 401280, Note_on_c, 0, 65, 87
4, 401852, Note_on_c, 0, 65, 0
4, 401852, Note_on_c, 0, 77, 0
4, 402048, Note_on_c, 0, 65, 87
4, 402048, Note_on_c, 0, 77, 87
4, 402812, Note_on_c, 0, 77, 0
4, 402812, Note_on_c, 0, 65, 0
4, 402816, Note_on_c, 0, 74, 87
4, 402816, Note_on_c, 0, 62, 87
4, 403580, Note_on_c, 0, 62, 0
4, 403580, Note_on_c, 0, 74, 0
4, 403584, Note_on_c, 0, 70, 87
4, 403584, Note_on_c, 0, 58, 87
4, 404160, Note_on_c, 0, 75, 87
4, 404160, Note_on_c, 0, 63, 87
4, 404348, Note_on_c, 0, 63, 0
4, 404348, Note_on_c, 0, 70, 0
4, 404348, Note_on_c, 0, 58, 0
4, 404348, Note_on_c, 0, 75, 0
4, 404352, Note_on_c, 0, 67, 87
4, 404352, Note_on_c, 0, 79, 87
4, 404924, Note_on_c, 0, 79, 0
4, 404924, Note_on_c, 0, 67, 0
4, 404928, Note_on_c, 0, 79, 87
4, 404928, Note_on_c, 0, 75, 87
4, 405056, Note_on_c, 0, 75, 0
4, 405056, Note_on_c, 0, 79, 0
4, 405120, Note_on_c, 0, 82, 87
4, 405120, Note_on_c, 0, 79, 87
4, 405248, Note_on_c, 0, 79, 0
4, 405248, Note_on_c, 0, 82, 0
4, 405312, Note_on_c, 0, 79, 87
4, 405312, Note_on_c, 0, 75, 87
4, 405440, Note_on_c, 0, 75, 0
4, 405440, Note_on_c, 0, 79, 0
4, 405504, Note_on_c, 0, 77, 87
4, 405504, Note_on_c, 0, 74, 87
4, 405632, Note_on_c, 0, 74, 0
4, 405632, Note_on_c, 0, 77, 0
4, 405696, Note_on_c, 0, 77, 87
4, 405696, Note_on_c, 0, 74, 87
4, 405740, Note_on_c, 0, 74, 0
4, 405740, Note_on_c, 0, 77, 0
4, 405744, Note_on_c, 0, 79, 87
4, 405744, Note_on_c, 0, 75, 87
4, 405788, Note_on_c, 0, 75, 0
4, 405788, Note_on_c, 0, 79, 0
4, 405792, Note_on_c, 0, 74, 87
4, 405792, Note_on_c, 0, 77, 87
4, 405836, Note_on_c, 0, 77, 0
4, 405836, Note_on_c, 0, 74, 0
4, 405840, Note_on_c, 0, 75, 87
4, 405840, Note_on_c, 0, 79, 87
4, 405884, Note_on_c, 0, 79, 0
4, 405884, Note_on_c, 0, 75, 0
4, 405888, Note_on_c, 0, 79, 87
4, 405888, Note_on_c, 0, 75, 87
4, 406016, Note_on_c, 0, 75, 0
4, 406016, Note_on_c, 0, 79, 0
4, 406080, Note_on_c, 0, 75, 87
4, 406080, Note_on_c, 0, 72, 87
4, 406208, Note_on_c, 0, 72, 0
4, 406208, Note_on_c, 0, 75, 0
4, 406272, Note_on_c, 0, 74, 87
4, 406272, Note_on_c, 0, 70, 87
4, 406652, Note_on_c, 0, 70, 0
4, 406652, Note_on_c, 0, 74, 0
4, 406656, Note_on_c, 0, 72, 87
4, 406656, Note_on_c, 0, 69, 87
4, 407036, Note_on_c, 0, 69, 0
4, 407036, Note_on_c, 0, 72, 0
4, 407040, Note_on_c, 0, 70, 87
4, 407420, Note_on_c, 0, 70, 0
4, 417792, Note_on_c, 0, 74, 110
4, 417792, Note_on_c, 0, 65, 110
4, 418172, Note_on_c, 0, 65, 0
4, 418172, Note_on_c, 0, 74, 0
4, 418560, Note_on_c, 0, 72, 110
4, 418560, Note_on_c, 0, 65, 110
4, 418560, Note_on_c, 0, 60, 110
4, 418940, Note_on_c, 0, 60, 0
4, 418940, Note_on_c, 0, 65, 0
4, 418940, Note_on_c, 0, 72, 0
4, 419328, Note_on_c, 0, 70, 110
4, 419328, Note_on_c, 0, 62, 110
4, 419708, Note_on_c, 0, 62, 0
4, 419708, Note_on_c, 0, 70, 0
4, 420096, Note_on_c, 0, 69, 110
4, 420096, Note_on_c, 0, 62, 110
4, 420096, Note_on_c, 0, 57, 110
4, 420476, Note_on_c, 0, 57, 0
4, 420476, Note_on_c, 0, 62, 0
4, 420476, Note_on_c, 0, 69, 0
4, 420864, Note_on_c, 0, 67, 110
4, 420864, Note_on_c, 0, 58, 110
4, 421244, Note_on_c, 0, 58, 0
4, 421244, Note_on_c, 0, 67, 0
4, 421632, Note_on_c, 0, 65, 110
4, 421632, Note_on_c, 0, 58, 110
4, 421632, Note_on_c, 0, 53, 110
4, 422012, Note_on_c, 0, 53, 0
4, 422012, Note_on_c, 0, 58, 0
4, 422012, Note_on_c, 0, 65, 0
4, 422400, Note_on_c, 0, 63, 87
4, 422400, Note_on_c, 0, 55, 87
4, 422780, Note_on_c, 0, 55, 0
4, 422784, Note_on_c, 0, 60, 87
4, 422912, Note_on_c, 0, 63, 0
4, 423164, Note_on_c, 0, 60, 0
4, 423168, Note_on_c, 0, 75, 87
4, 423552, Note_on_c, 0, 72, 87
4, 423552, Note_on_c, 0, 65, 87
4, 423680, Note_on_c, 0, 75, 0
4, 423932, Note_on_c, 0, 65, 0
4, 423932, Note_on_c, 0, 72, 0
4, 423936, Note_on_c, 0, 74, 87
4, 423936, Note_on_c, 0, 70, 87
4, 423936, Note_on_c, 0, 65, 87
4, 424316, Note_on_c, 0, 65, 0
4, 424316, Note_on_c, 0, 70, 0
4, 424316, Note_on_c, 0, 74, 0
4, 424704, Note_on_c, 0, 69, 87
4, 424704, Note_on_c, 0, 58, 87
4, 424704, Note_on_c, 0, 65, 87
4, 425468, Note_on_c, 0, 65, 0
4, 425468, Note_on_c, 0, 58, 0
4, 425468, Note_on_c, 0, 69, 0
4, 425472, Note_on_c, 0, 67, 87
4, 425472, Note_on_c, 0, 63, 87
4, 425472, Note_on_c, 0, 58, 87
4, 425728, Note_on_c, 0, 58, 0
4, 425728, Note_on_c, 0, 63, 0
4, 425728, Note_on_c, 0, 67, 0
4, 426240, Note_on_c, 0, 70, 87
4, 426240, Note_on_c, 0, 67, 87
4, 426240, Note_on_c, 0, 63, 87
4, 426752, Note_on_c, 0, 63, 0
4, 426752, Note_on_c, 0, 67, 0
4, 426752, Note_on_c, 0, 70, 0
4, 427008, Note_on_c, 0, 70, 87
4, 427008, Note_on_c, 0, 67, 87
4, 427008, Note_on_c, 0, 61, 87
4, 427264, Note_on_c, 0, 61, 0
4, 427264, Note_on_c, 0, 67, 0
4, 427264, Note_on_c, 0, 70, 0
4, 427776, Note_on_c, 0, 61, 87
4, 427776, Note_on_c, 0, 58, 87
4, 427776, Note_on_c, 0, 55, 87
4, 428288, Note_on_c, 0, 55, 0
4, 428288, Note_on_c, 0, 58, 0
4, 428288, Note_on_c, 0, 61, 0
4, 428544, Note_on_c, 0, 62, 87
4, 428544, Note_on_c, 0, 58, 87
4, 428544, Note_on_c, 0, 53, 87
4, 428800, Note_on_c, 0, 53, 0
4, 428800, Note_on_c, 0, 58, 0
4, 428800, Note_on_c, 0, 62, 0
4, 429312, Note_on_c, 0, 65, 87
4, 429312, Note_on_c, 0, 62, 87
4, 429568, Note_on_c, 0, 62, 0
4, 429568, Note_on_c, 0, 65, 0
4, 430080, Note_on_c, 0, 70, 87
4, 430080, Note_on_c, 0, 65, 87
4, 430208, Note_on_c, 0, 65, 0
4, 430208, Note_on_c, 0, 70, 0
4, 430464, Note_on_c, 0, 74, 87
4, 430464, Note_on_c, 0, 70, 87
4, 430592, Note_on_c, 0, 70, 0
4, 430592, Note_on_c, 0, 74, 0
4, 430848, Note_on_c, 0, 77, 87
4, 430848, Note_on_c, 0, 74, 87
4, 430976, Note_on_c, 0, 74, 0
4, 430976, Note_on_c, 0, 77, 0
4, 431232, Note_on_c, 0, 77, 87
4, 431232, Note_on_c, 0, 82, 87
4, 431360, Note_on_c, 0, 82, 0
4, 431360, Note_on_c, 0, 77, 0
4, 431616, Note_on_c, 0, 74, 87
4, 431616, Note_on_c, 0, 70, 87
4, 431616, Note_on_c, 0, 82, 87
4, 431616, Note_on_c, 0, 86, 87
4, 431872, Note_on_c, 0, 86, 0
4, 431872, Note_on_c, 0, 82, 0
4, 433148, Note_on_c, 0, 70, 0
4, 433148, Note_on_c, 0, 74, 0
4, 433152, Note_on_c, 0, 74, 87
4, 433152, Note_on_c, 0, 70, 87
4, 433152, Note_on_c, 0, 65, 87
4, 434684, Note_on_c, 0, 65, 0
4, 434684, Note_on_c, 0, 70, 0
4, 434684, Note_on_c, 0, 74, 0
4, 434688, Note_on_c, 0, 74, 87
4, 434688, Note_on_c, 0, 70, 87
4, 434688, Note_on_c, 0, 65, 87
4, 436220, Note_on_c, 0, 65, 0
4, 436220, Note_on_c, 0, 70, 0
4, 436220, Note_on_c, 0, 74, 0
4, 436224, Note_on_c, 0, 72, 87
4, 436224, Note_on_c, 0, 69, 87
4, 436224, Note_on_c, 0, 65, 87
4, 437756, Note_on_c, 0, 65, 0
4, 437756, Note_on_c, 0, 69, 0
4, 437756, Note_on_c, 0, 72, 0
4, 437760, Note_on_c, 0, 70, 72
4, 437760, Note_on_c, 0, 65, 72
4, 437760, Note_on_c, 0, 62, 72
4, 437888, Note_on_c, 0, 62, 0
4, 437888, Note_on_c, 0, 65, 0
4, 437888, Note_on_c, 0, 70, 0
4, 437952, Note_on_c, 0, 65, 72
4, 437952, Note_on_c, 0, 62, 72
4, 437952, Note_on_c, 0, 70, 72
4, 438080, Note_on_c, 0, 70, 0
4, 438080, Note_on_c, 0, 62, 0
4, 438080, Note_on_c, 0, 65, 0
4, 438144, Note_on_c, 0, 65, 72
4, 438144, Note_on_c, 0, 70, 72
4, 438144, Note_on_c, 0, 62, 72
4, 438272, Note_on_c, 0, 62, 0
4, 438272, Note_on_c, 0, 70, 0
4, 438272, Note_on_c, 0, 65, 0
4, 438336, Note_on_c, 0, 70, 72
4, 438336, Note_on_c, 0, 65, 72
4, 438336, Note_on_c, 0, 62, 72
4, 438464, Note_on_c, 0, 62, 0
4, 438464, Note_on_c, 0, 65, 0
4, 438464, Note_on_c, 0, 70, 0
4, 438528, Note_on_c, 0, 70, 72
4, 438528, Note_on_c, 0, 65, 72
4, 438528, Note_on_c, 0, 62, 72
4, 438656, Note_on_c, 0, 62, 0
4, 438656, Note_on_c, 0, 65, 0
4, 438720, Note_on_c, 0, 65, 72
4, 438720, Note_on_c, 0, 62, 72
4, 438908, Note_on_c, 0, 70, 0
4, 439100, Note_on_c, 0, 62, 0
4, 439100, Note_on_c, 0, 65, 0
4, 439104, Note_on_c, 0, 74, 72
4, 439168, Note_on_c, 0, 74, 0
4, 439168, Note_on_c, 0, 72, 72
4, 439232, Note_on_c, 0, 72, 0
4, 439232, Note_on_c, 0, 70, 72
4, 439296, Note_on_c, 0, 72, 74
4, 439300, Note_on_c, 0, 70, 0
4, 439424, Note_on_c, 0, 72, 0
4, 439488, Note_on_c, 0, 63, 75
4, 439488, Note_on_c, 0, 72, 75
4, 439488, Note_on_c, 0, 69, 75
4, 439616, Note_on_c, 0, 69, 0
4, 439616, Note_on_c, 0, 72, 0
4, 439616, Note_on_c, 0, 63, 0
4, 439680, Note_on_c, 0, 72, 78
4, 439680, Note_on_c, 0, 63, 78
4, 439680, Note_on_c, 0, 69, 78
4, 439808, Note_on_c, 0, 69, 0
4, 439808, Note_on_c, 0, 63, 0
4, 439808, Note_on_c, 0, 72, 0
4, 439872, Note_on_c, 0, 72, 80
4, 439872, Note_on_c, 0, 63, 80
4, 439872, Note_on_c, 0, 69, 80
4, 440000, Note_on_c, 0, 69, 0
4, 440000, Note_on_c, 0, 63, 0
4, 440000, Note_on_c, 0, 72, 0
4, 440064, Note_on_c, 0, 63, 83
4, 440064, Note_on_c, 0, 72, 83
4, 440064, Note_on_c, 0, 69, 83
4, 440192, Note_on_c, 0, 69, 0
4, 440192, Note_on_c, 0, 63, 0
4, 440256, Note_on_c, 0, 69, 84
4, 440256, Note_on_c, 0, 63, 84
4, 440444, Note_on_c, 0, 72, 0
4, 440636, Note_on_c, 0, 63, 0
4, 440636, Note_on_c, 0, 69, 0
4, 440640, Note_on_c, 0, 75, 89
4, 440704, Note_on_c, 0, 75, 0
4, 440704, Note_on_c, 0, 74, 90
4, 440768, Note_on_c, 0, 74, 0
4, 440768, Note_on_c, 0, 72, 90
4, 440832, Note_on_c, 0, 74, 92
4, 440836, Note_on_c, 0, 72, 0
4, 440960, Note_on_c, 0, 74, 0
4, 441024, Note_on_c, 0, 74, 93
4, 441024, Note_on_c, 0, 69, 93
4, 441024, Note_on_c, 0, 65, 93
4, 441152, Note_on_c, 0, 65, 0
4, 441152, Note_on_c, 0, 69, 0
4, 441152, Note_on_c, 0, 74, 0
4, 441216, Note_on_c, 0, 69, 96
4, 441216, Note_on_c, 0, 74, 96
4, 441216, Note_on_c, 0, 65, 96
4, 441344, Note_on_c, 0, 65, 0
4, 441344, Note_on_c, 0, 74, 0
4, 441344, Note_on_c, 0, 69, 0
4, 441408, Note_on_c, 0, 74, 98
4, 441408, Note_on_c, 0, 69, 98
4, 441408, Note_on_c, 0, 65, 98
4, 441536, Note_on_c, 0, 65, 0
4, 441536, Note_on_c, 0, 69, 0
4, 441536, Note_on_c, 0, 74, 0
4, 441600, Note_on_c, 0, 69, 101
4, 441600, Note_on_c, 0, 65, 101
4, 441600, Note_on_c, 0, 74, 101
4, 441728, Note_on_c, 0, 65, 0
4, 441728, Note_on_c, 0, 69, 0
4, 441792, Note_on_c, 0, 69, 102
4, 441792, Note_on_c, 0, 65, 102
4, 441980, Note_on_c, 0, 74, 0
4, 442172, Note_on_c, 0, 65, 0
4, 442172, Note_on_c, 0, 69, 0
4, 442176, Note_on_c, 0, 77, 107
4, 442240, Note_on_c, 0, 77, 0
4, 442240, Note_on_c, 0, 75, 108
4, 442304, Note_on_c, 0, 75, 0
4, 442304, Note_on_c, 0, 74, 108
4, 442368, Note_on_c, 0, 75, 110
4, 442372, Note_on_c, 0, 74, 0
4, 442432, Note_on_c, 0, 75, 0
4, 442464, Note_on_c, 0, 67, 110
4, 442528, Note_on_c, 0, 67, 0
4, 442560, Note_on_c, 0, 75, 110
4, 442560, Note_on_c, 0, 70, 110
4, 442624, Note_on_c, 0, 70, 0
4, 442624, Note_on_c, 0, 75, 0
4, 442656, Note_on_c, 0, 67, 110
4, 442720, Note_on_c, 0, 67, 0
4, 442752, Note_on_c, 0, 77, 110
4, 442752, Note_on_c, 0, 74, 110
4, 442816, Note_on_c, 0, 74, 0
4, 442816, Note_on_c, 0, 77, 0
4, 442848, Note_on_c, 0, 70, 110
4, 442912, Note_on_c, 0, 70, 0
4, 442944, Note_on_c, 0, 77, 110
4, 442944, Note_on_c, 0, 74, 110
4, 443008, Note_on_c, 0, 74, 0
4, 443008, Note_on_c, 0, 77, 0
4, 443040, Note_on_c, 0, 70, 110
4, 443104, Note_on_c, 0, 70, 0
4, 443136, Note_on_c, 0, 79, 110
4, 443136, Note_on_c, 0, 75, 110
4, 443200, Note_on_c, 0, 75, 0
4, 443200, Note_on_c, 0, 79, 0
4, 443232, Note_on_c, 0, 70, 110
4, 443296, Note_on_c, 0, 70, 0
4, 443328, Note_on_c, 0, 79, 110
4, 443328, Note_on_c, 0, 75, 110
4, 443392, Note_on_c, 0, 75, 0
4, 443392, Note_on_c, 0, 79, 0
4, 443424, Note_on_c, 0, 70, 110
4, 443488, Note_on_c, 0, 70, 0
4, 443520, Note_on_c, 0, 81, 110
4, 443520, Note_on_c, 0, 75, 110
4, 443584, Note_on_c, 0, 75, 0
4, 443584, Note_on_c, 0, 81, 0
4, 443616, Note_on_c, 0, 72, 110
4, 443680, Note_on_c, 0, 72, 0
4, 443712, Note_on_c, 0, 75, 110
4, 443712, Note_on_c, 0, 81, 110
4, 443776, Note_on_c, 0, 81, 0
4, 443776, Note_on_c, 0, 75, 0
4, 443808, Note_on_c, 0, 72, 110
4, 443872, Note_on_c, 0, 72, 0
4, 443904, Note_on_c, 0, 82, 110
4, 443904, Note_on_c, 0, 74, 110
4, 443904, Note_on_c, 0, 70, 110
4, 444284, Note_on_c, 0, 70, 0
4, 444284, Note_on_c, 0, 74, 0
4, 444284, Note_on_c, 0, 82, 0
4, 444288, Note_on_c, 0, 82, 110
4, 444288, Note_on_c, 0, 70, 110
4, 444480, Note_on_c, 0, 70, 0
4, 444480, Note_on_c, 0, 82, 0
4, 444576, Note_on_c, 0, 70, 110
4, 444640, Note_on_c, 0, 70, 0
4, 444672, Note_on_c, 0, 70, 110
4, 444800, Note_on_c, 0, 70, 0
4, 444864, Note_on_c, 0, 82, 110
4, 444912, Note_on_c, 0, 84, 110
4, 444928, Note_on_c, 0, 82, 0
4, 444956, Note_on_c, 0, 84, 0
4, 444960, Note_on_c, 0, 81, 110
4, 445004, Note_on_c, 0, 81, 0
4, 445008, Note_on_c, 0, 82, 110
4, 445052, Note_on_c, 0, 82, 0
4, 445056, Note_on_c, 0, 86, 110
4, 445184, Note_on_c, 0, 86, 0
4, 445248, Note_on_c, 0, 82, 110
4, 445376, Note_on_c, 0, 82, 0
4, 445440, Note_on_c, 0, 81, 110
4, 445440, Note_on_c, 0, 70, 110
4, 445568, Note_on_c, 0, 70, 0
4, 445568, Note_on_c, 0, 81, 0
4, 445632, Note_on_c, 0, 79, 110
4, 445760, Note_on_c, 0, 79, 0
4, 445824, Note_on_c, 0, 70, 110
4, 445824, Note_on_c, 0, 79, 110
4, 446016, Note_on_c, 0, 79, 0
4, 446016, Note_on_c, 0, 70, 0
4, 446112, Note_on_c, 0, 70, 110
4, 446176, Note_on_c, 0, 70, 0
4, 446208, Note_on_c, 0, 70, 110
4, 446336, Note_on_c, 0, 70, 0
4, 446400, Note_on_c, 0, 79, 110
4, 446448, Note_on_c, 0, 81, 110
4, 446464, Note_on_c, 0, 79, 0
4, 446492, Note_on_c, 0, 81, 0
4, 446496, Note_on_c, 0, 78, 110
4, 446540, Note_on_c, 0, 78, 0
4, 446544, Note_on_c, 0, 79, 110
4, 446588, Note_on_c, 0, 79, 0
4, 446592, Note_on_c, 0, 82, 110
4, 446720, Note_on_c, 0, 82, 0
4, 446784, Note_on_c, 0, 79, 110
4, 446912, Note_on_c, 0, 79, 0
4, 446976, Note_on_c, 0, 77, 110
4, 446976, Note_on_c, 0, 70, 110
4, 447104, Note_on_c, 0, 70, 0
4, 447104, Note_on_c, 0, 77, 0
4, 447168, Note_on_c, 0, 75, 110
4, 447296, Note_on_c, 0, 75, 0
4, 447360, Note_on_c, 0, 70, 110
4, 447360, Note_on_c, 0, 75, 110
4, 447552, Note_on_c, 0, 75, 0
4, 447552, Note_on_c, 0, 70, 0
4, 447648, Note_on_c, 0, 70, 110
4, 447712, Note_on_c, 0, 70, 0
4, 447744, Note_on_c, 0, 70, 110
4, 447872, Note_on_c, 0, 70, 0
4, 447936, Note_on_c, 0, 75, 110
4, 447984, Note_on_c, 0, 77, 110
4, 448000, Note_on_c, 0, 75, 0
4, 448016, Note_on_c, 0, 77, 0
4, 448032, Note_on_c, 0, 74, 110
4, 448064, Note_on_c, 0, 74, 0
4, 448080, Note_on_c, 0, 75, 110
4, 448112, Note_on_c, 0, 75, 0
4, 448128, Note_on_c, 0, 79, 110
4, 448128, Note_on_c, 0, 72, 110
4, 448128, Note_on_c, 0, 65, 110
4, 448256, Note_on_c, 0, 65, 0
4, 448256, Note_on_c, 0, 72, 0
4, 448256, Note_on_c, 0, 79, 0
4, 448320, Note_on_c, 0, 75, 110
4, 448320, Note_on_c, 0, 72, 110
4, 448448, Note_on_c, 0, 72, 0
4, 448448, Note_on_c, 0, 75, 0
4, 448512, Note_on_c, 0, 74, 110
4, 448512, Note_on_c, 0, 70, 110
4, 448512, Note_on_c, 0, 62, 110
4, 448640, Note_on_c, 0, 62, 0
4, 448640, Note_on_c, 0, 70, 0
4, 448640, Note_on_c, 0, 74, 0
4, 448704, Note_on_c, 0, 62, 110
4, 448704, Note_on_c, 0, 74, 110
4, 448704, Note_on_c, 0, 70, 110
4, 449084, Note_on_c, 0, 70, 0
4, 449084, Note_on_c, 0, 74, 0
4, 449084, Note_on_c, 0, 62, 0
4, 449088, Note_on_c, 0, 62, 110
4, 449088, Note_on_c, 0, 74, 110
4, 449088, Note_on_c, 0, 70, 110
4, 449468, Note_on_c, 0, 70, 0
4, 449468, Note_on_c, 0, 74, 0
4, 449468, Note_on_c, 0, 62, 0
4, 449472, Note_on_c, 0, 74, 110
4, 449472, Note_on_c, 0, 70, 110
4, 449852, Note_on_c, 0, 70, 0
4, 449852, Note_on_c, 0, 74, 0
4, 449856, Note_on_c, 0, 74, 110
4, 449856, Note_on_c, 0, 70, 110
4, 449984, Note_on_c, 0, 70, 0
4, 449984, Note_on_c, 0, 74, 0
4, 450048, Note_on_c, 0, 74, 110
4, 450048, Note_on_c, 0, 70, 110
4, 450176, Note_on_c, 0, 70, 0
4, 450176, Note_on_c, 0, 74, 0
4, 450240, Note_on_c, 0, 70, 110
4, 450240, Note_on_c, 0, 82, 110
4, 450240, Note_on_c, 0, 74, 110
4, 450620, Note_on_c, 0, 74, 0
4, 450620, Note_on_c, 0, 82, 0
4, 450620, Note_on_c, 0, 70, 0
4, 450624, Note_on_c, 0, 82, 110
4, 450624, Note_on_c, 0, 74, 110
4, 450624, Note_on_c, 0, 70, 110
4, 451004, Note_on_c, 0, 70, 0
4, 451004, Note_on_c, 0, 74, 0
4, 451004, Note_on_c, 0, 82, 0
4, 451008, Note_on_c, 0, 82, 110
4, 451008, Note_on_c, 0, 74, 110
4, 451008, Note_on_c, 0, 70, 110
4, 451388, Note_on_c, 0, 70, 0
4, 451388, Note_on_c, 0, 74, 0
4, 451388, Note_on_c, 0, 82, 0
4, 451392, Note_on_c, 0, 74, 110
4, 451392, Note_on_c, 0, 70, 110
4, 451392, Note_on_c, 0, 82, 110
4, 451520, Note_on_c, 0, 82, 0
4, 451520, Note_on_c, 0, 70, 0
4, 451520, Note_on_c, 0, 74, 0
4, 451584, Note_on_c, 0, 82, 110
4, 451584, Note_on_c, 0, 74, 110
4, 451584, Note_on_c, 0, 70, 110
4, 451712, Note_on_c, 0, 70, 0
4, 451712, Note_on_c, 0, 74, 0
4, 451712, Note_on_c, 0, 82, 0
4, 451776, Note_on_c, 0, 82, 110
4, 451776, Note_on_c, 0, 86, 110
4, 451776, Note_on_c, 0, 74, 110
4, 452156, Note_on_c, 0, 74, 0
4, 452156, Note_on_c, 0, 86, 0
4, 452156, Note_on_c, 0, 82, 0
4, 452160, Note_on_c, 0, 86, 110
4, 452160, Note_on_c, 0, 82, 110
4, 452160, Note_on_c, 0, 74, 110
4, 452540, Note_on_c, 0, 74, 0
4, 452540, Note_on_c, 0, 82, 0
4, 452540, Note_on_c, 0, 86, 0
4, 452544, Note_on_c, 0, 74, 110
4, 452544, Note_on_c, 0, 86, 110
4, 452544, Note_on_c, 0, 82, 110
4, 452924, Note_on_c, 0, 82, 0
4, 452924, Note_on_c, 0, 86, 0
4, 452924, Note_on_c, 0, 74, 0
4, 452928, Note_on_c, 0, 86, 110
4, 452928, Note_on_c, 0, 82, 110
4, 452928, Note_on_c, 0, 74, 110
4, 453056, Note_on_c, 0, 74, 0
4, 453056, Note_on_c, 0, 82, 0
4, 453056, Note_on_c, 0, 86, 0
4, 453120, Note_on_c, 0, 86, 110
4, 453120, Note_on_c, 0, 82, 110
4, 453120, Note_on_c, 0, 74, 110
4, 453632, Note_on_c, 0, 74, 0
4, 453632, Note_on_c, 0, 82, 0
4, 453632, Note_on_c, 0, 86, 0
4, 506880, Note_on_c, 0, 82, 110
4, 506880, Note_on_c, 0, 70, 110
4, 507008, Note_on_c, 0, 70, 0
4, 507008, Note_on_c, 0, 82, 0
4, 507072, Note_on_c, 0, 82, 110
4, 507200, Note_on_c, 0, 82, 0
4, 507264, Note_on_c, 0, 82, 110
4, 507264, Note_on_c, 0, 70, 110
4, 507456, Note_on_c, 0, 70, 0
4, 507456, Note_on_c, 0, 82, 0
4, 507552, Note_on_c, 0, 70, 110
4, 507616, Note_on_c, 0, 70, 0
4, 507648, Note_on_c, 0, 70, 110
4, 507776, Note_on_c, 0, 70, 0
4, 507840, Note_on_c, 0, 82, 110
4, 507888, Note_on_c, 0, 84, 110
4, 507904, Note_on_c, 0, 82, 0
4, 507932, Note_on_c, 0, 84, 0
4, 507936, Note_on_c, 0, 81, 110
4, 507980, Note_on_c, 0, 81, 0
4, 507984, Note_on_c, 0, 82, 110
4, 508028, Note_on_c, 0, 82, 0
4, 508032, Note_on_c, 0, 86, 110
4, 508160, Note_on_c, 0, 86, 0
4, 508224, Note_on_c, 0, 82, 110
4, 508352, Note_on_c, 0, 82, 0
4, 508416, Note_on_c, 0, 81, 110
4, 508416, Note_on_c, 0, 70, 110
4, 508544, Note_on_c, 0, 70, 0
4, 508544, Note_on_c, 0, 81, 0
4, 508608, Note_on_c, 0, 79, 110
4, 508736, Note_on_c, 0, 79, 0
4, 508800, Note_on_c, 0, 79, 110
4, 508800, Note_on_c, 0, 70, 110
4, 508992, Note_on_c, 0, 70, 0
4, 508992, Note_on_c, 0, 79, 0
4, 509088, Note_on_c, 0, 70, 110
4, 509152, Note_on_c, 0, 70, 0
4, 509184, Note_on_c, 0, 70, 110
4, 509312, Note_on_c, 0, 70, 0
4, 509376, Note_on_c, 0, 79, 110
4, 509424, Note_on_c, 0, 81, 110
4, 509440, Note_on_c, 0, 79, 0
4, 509468, Note_on_c, 0, 81, 0
4, 509472, Note_on_c, 0, 78, 110
4, 509516, Note_on_c, 0, 78, 0
4, 509520, Note_on_c, 0, 79, 110
4, 509564, Note_on_c, 0, 79, 0
4, 509568, Note_on_c, 0, 82, 110
4, 509696, Note_on_c, 0, 82, 0
4, 509760, Note_on_c, 0, 79, 110
4, 509888, Note_on_c, 0, 79, 0
4, 509952, Note_on_c, 0, 77, 110
4, 509952, Note_on_c, 0, 70, 110
4, 510080, Note_on_c, 0, 70, 0
4, 510080, Note_on_c, 0, 77, 0
4, 510144, Note_on_c, 0, 75, 110
4, 510272, Note_on_c, 0, 75, 0
4, 510336, Note_on_c, 0, 75, 110
4, 510336, Note_on_c, 0, 70, 110
4, 510528, Note_on_c, 0, 70, 0
4, 510528, Note_on_c, 0, 75, 0
4, 510624, Note_on_c, 0, 70, 110
4, 510688, Note_on_c, 0, 70, 0
4, 510720, Note_on_c, 0, 70, 110
4, 510848, Note_on_c, 0, 70, 0
4, 510912, Note_on_c, 0, 75, 110
4, 510960, Note_on_c, 0, 77, 110
4, 510976, Note_on_c, 0, 75, 0
4, 510992, Note_on_c, 0, 77, 0
4, 511008, Note_on_c, 0, 74, 110
4, 511040, Note_on_c, 0, 74, 0
4, 511056, Note_on_c, 0, 75, 110
4, 511056, Note_on_c, 0, 75, 110
4, 511088, Note_on_c, 0, 75, 0
4, 511088, Note_on_c, 0, 75, 0
4, 511104, Note_on_c, 0, 79, 110
4, 511232, Note_on_c, 0, 79, 0
4, 511296, Note_on_c, 0, 75, 110
4, 511424, Note_on_c, 0, 75, 0
4, 511488, Note_on_c, 0, 74, 110
4, 511616, Note_on_c, 0, 74, 0
4, 511680, Note_on_c, 0, 70, 110
4, 511680, Note_on_c, 0, 62, 110
4, 511808, Note_on_c, 0, 62, 0
4, 511808, Note_on_c, 0, 70, 0
4, 511872, Note_on_c, 0, 74, 110
4, 511872, Note_on_c, 0, 70, 110
4, 512000, Note_on_c, 0, 70, 0
4, 512000, Note_on_c, 0, 74, 0
4, 512064, Note_on_c, 0, 77, 110
4, 512064, Note_on_c, 0, 74, 110
4, 512192, Note_on_c, 0, 74, 0
4, 512192, Note_on_c, 0, 77, 0
4, 512256, Note_on_c, 0, 77, 110
4, 512256, Note_on_c, 0, 74, 110
4, 512384, Note_on_c, 0, 74, 0
4, 512384, Note_on_c, 0, 77, 0
4, 512448, Note_on_c, 0, 75, 110
4, 512448, Note_on_c, 0, 72, 110
4, 512576, Note_on_c, 0, 72, 0
4, 512576, Note_on_c, 0, 75, 0
4, 512640, Note_on_c, 0, 74, 110
4, 512640, Note_on_c, 0, 70, 110
4, 512768, Note_on_c, 0, 70, 0
4, 512768, Note_on_c, 0, 74, 0
4, 512832, Note_on_c, 0, 72, 110
4, 512832, Note_on_c, 0, 69, 110
4, 512960, Note_on_c, 0, 69, 0
4, 512960, Note_on_c, 0, 72, 0
4, 513024, Note_on_c, 0, 70, 110
4, 513024, Note_on_c, 0, 62, 110
4, 513404, Note_on_c, 0, 62, 0
4, 513404, Note_on_c, 0, 70, 0
4, 513408, Note_on_c, 0, 70, 87
4, 513536, Note_on_c, 0, 70, 0
4, 513600, Note_on_c, 0, 74, 87
4, 513728, Note_on_c, 0, 74, 0
4, 513792, Note_on_c, 0, 77, 87
4, 513920, Note_on_c, 0, 77, 0
4, 513984, Note_on_c, 0, 77, 87
4, 514112, Note_on_c, 0, 77, 0
4, 514176, Note_on_c, 0, 70, 87
4, 514304, Note_on_c, 0, 70, 0
4, 514368, Note_on_c, 0, 74, 87
4, 514496, Note_on_c, 0, 74, 0
4, 514560, Note_on_c, 0, 77, 87
4, 514940, Note_on_c, 0, 77, 0
4, 514944, Note_on_c, 0, 82, 87
4, 515072, Note_on_c, 0, 82, 0
4, 515136, Note_on_c, 0, 81, 87
4, 515264, Note_on_c, 0, 81, 0
4, 515328, Note_on_c, 0, 79, 87
4, 515360, Note_on_c, 0, 79, 0
4, 515376, Note_on_c, 0, 81, 87
4, 515408, Note_on_c, 0, 81, 0
4, 515424, Note_on_c, 0, 79, 87
4, 515456, Note_on_c, 0, 79, 0
4, 515472, Note_on_c, 0, 81, 87
4, 515504, Note_on_c, 0, 81, 0
4, 515520, Note_on_c, 0, 77, 87
4, 515648, Note_on_c, 0, 77, 0
4, 515712, Note_on_c, 0, 79, 87
4, 515840, Note_on_c, 0, 79, 0
4, 515904, Note_on_c, 0, 81, 87
4, 516032, Note_on_c, 0, 81, 0
4, 516096, Note_on_c, 0, 81, 87
4, 516224, Note_on_c, 0, 81, 0
4, 516288, Note_on_c, 0, 82, 87
4, 516416, Note_on_c, 0, 82, 0
4, 516480, Note_on_c, 0, 77, 87
4, 516860, Note_on_c, 0, 77, 0
4, 516864, Note_on_c, 0, 65, 87
4, 516992, Note_on_c, 0, 65, 0
4, 517056, Note_on_c, 0, 65, 87
4, 517184, Note_on_c, 0, 65, 0
4, 517248, Note_on_c, 0, 58, 87
4, 517376, Note_on_c, 0, 58, 0
4, 517440, Note_on_c, 0, 62, 87
4, 517568, Note_on_c, 0, 62, 0
4, 517632, Note_on_c, 0, 65, 87
4, 518012, Note_on_c, 0, 65, 0
4, 518016, Note_on_c, 0, 70, 87
4, 518144, Note_on_c, 0, 70, 0
4, 518208, Note_on_c, 0, 69, 87
4, 518336, Note_on_c, 0, 69, 0
4, 518400, Note_on_c, 0, 67, 87
4, 518432, Note_on_c, 0, 67, 0
4, 518448, Note_on_c, 0, 69, 87
4, 518480, Note_on_c, 0, 69, 0
4, 518496, Note_on_c, 0, 67, 87
4, 518528, Note_on_c, 0, 67, 0
4, 518544, Note_on_c, 0, 69, 87
4, 518576, Note_on_c, 0, 69, 0
4, 518592, Note_on_c, 0, 65, 87
4, 518720, Note_on_c, 0, 65, 0
4, 518784, Note_on_c, 0, 67, 87
4, 518912, Note_on_c, 0, 67, 0
4, 518976, Note_on_c, 0, 69, 87
4, 519104, Note_on_c, 0, 69, 0
4, 519168, Note_on_c, 0, 69, 87
4, 519296, Note_on_c, 0, 69, 0
4, 519360, Note_on_c, 0, 70, 87
4, 519488, Note_on_c, 0, 70, 0
4, 519552, Note_on_c, 0, 70, 87
4, 519680, Note_on_c, 0, 70, 0
4, 519744, Note_on_c, 0, 69, 87
4, 519872, Note_on_c, 0, 69, 0
4, 519936, Note_on_c, 0, 67, 87
4, 519968, Note_on_c, 0, 67, 0
4, 519984, Note_on_c, 0, 69, 87
4, 520016, Note_on_c, 0, 69, 0
4, 520032, Note_on_c, 0, 67, 87
4, 520064, Note_on_c, 0, 67, 0
4, 520080, Note_on_c, 0, 69, 87
4, 520112, Note_on_c, 0, 69, 0
4, 520128, Note_on_c, 0, 65, 87
4, 520256, Note_on_c, 0, 65, 0
4, 520320, Note_on_c, 0, 67, 87
4, 520448, Note_on_c, 0, 67, 0
4, 520512, Note_on_c, 0, 69, 87
4, 520640, Note_on_c, 0, 69, 0
4, 520704, Note_on_c, 0, 69, 87
4, 520832, Note_on_c, 0, 69, 0
4, 520896, Note_on_c, 0, 70, 87
4, 521024, Note_on_c, 0, 70, 0
4, 521088, Note_on_c, 0, 70, 87
4, 521088, Note_on_c, 0, 82, 87
4, 521216, Note_on_c, 0, 82, 0
4, 521216, Note_on_c, 0, 70, 0
4, 521280, Note_on_c, 0, 69, 87
4, 521280, Note_on_c, 0, 81, 87
4, 521408, Note_on_c, 0, 81, 0
4, 521408, Note_on_c, 0, 69, 0
4, 521472, Note_on_c, 0, 79, 87
4, 521472, Note_on_c, 0, 67, 87
4, 521504, Note_on_c, 0, 67, 0
4, 521504, Note_on_c, 0, 79, 0
4, 521520, Note_on_c, 0, 81, 87
4, 521520, Note_on_c, 0, 69, 87
4, 521552, Note_on_c, 0, 69, 0
4, 521552, Note_on_c, 0, 81, 0
4, 521568, Note_on_c, 0, 79, 87
4, 521568, Note_on_c, 0, 67, 87
4, 521600, Note_on_c, 0, 67, 0
4, 521600, Note_on_c, 0, 79, 0
4, 521616, Note_on_c, 0, 81, 87
4, 521616, Note_on_c, 0, 69, 87
4, 521648, Note_on_c, 0, 69, 0
4, 521648, Note_on_c, 0, 81, 0
4, 521664, Note_on_c, 0, 77, 87
4, 521664, Note_on_c, 0, 65, 87
4, 521792, Note_on_c, 0, 65, 0
4, 521792, Note_on_c, 0, 77, 0
4, 521856, Note_on_c, 0, 79, 87
4, 521856, Note_on_c, 0, 67, 87
4, 521984, Note_on_c, 0, 67, 0
4, 521984, Note_on_c, 0, 79, 0
4, 522048, Note_on_c, 0, 81, 87
4, 522048, Note_on_c, 0, 69, 87
4, 522176, Note_on_c, 0, 69, 0
4, 522176, Note_on_c, 0, 81, 0
4, 522240, Note_on_c, 0, 82, 87
4, 522240, Note_on_c, 0, 70, 87
4, 522368, Note_on_c, 0, 70, 0
4, 522368, Note_on_c, 0, 82, 0
4, 522624, Note_on_c, 0, 86, 87
4, 522624, Note_on_c, 0, 77, 87
4, 522624, Note_on_c, 0, 65, 87
4, 522624, Note_on_c, 0, 74, 87
4, 522752, Note_on_c, 0, 74, 0
4, 522752, Note_on_c, 0, 86, 0
4, 522752, Note_on_c, 0, 77, 0
4, 522752, Note_on_c, 0, 65, 0
4, 523008, Note_on_c, 0, 82, 87
4, 523008, Note_on_c, 0, 74, 87
4, 523008, Note_on_c, 0, 70, 87
4, 523008, Note_on_c, 0, 62, 87
4, 523136, Note_on_c, 0, 62, 0
4, 523136, Note_on_c, 0, 82, 0
4, 523136, Note_on_c, 0, 74, 0
4, 523136, Note_on_c, 0, 70, 0
4, 523392, Note_on_c, 0, 74, 87
4, 523392, Note_on_c, 0, 65, 87
4, 523392, Note_on_c, 0, 77, 87
4, 523392, Note_on_c, 0, 86, 87
4, 523520, Note_on_c, 0, 86, 0
4, 523520, Note_on_c, 0, 74, 0
4, 523520, Note_on_c, 0, 65, 0
4, 523520, Note_on_c, 0, 77, 0
4, 523776, Note_on_c, 0, 82, 87
4, 523776, Note_on_c, 0, 74, 87
4, 523776, Note_on_c, 0, 70, 87
4, 523776, Note_on_c, 0, 62, 87
4, 523904, Note_on_c, 0, 62, 0
4, 523904, Note_on_c, 0, 82, 0
4, 523904, Note_on_c, 0, 74, 0
4, 523904, Note_on_c, 0, 70, 0
4, 524160, Note_on_c, 0, 77, 87
4, 524160, Note_on_c, 0, 74, 87
4, 524160, Note_on_c, 0, 65, 87
4, 524160, Note_on_c, 0, 62, 87
4, 524288, Note_on_c, 0, 62, 0
4, 524288, Note_on_c, 0, 77, 0
4, 524288, Note_on_c, 0, 74, 0
4, 524288, Note_on_c, 0, 65, 0
4, 524544, Note_on_c, 0, 74, 87
4, 524544, Note_on_c, 0, 70, 87
4, 524544, Note_on_c, 0, 62, 87
4, 524544, Note_on_c, 0, 58, 87
4, 524672, Note_on_c, 0, 58, 0
4, 524672, Note_on_c, 0, 74, 0
4, 524672, Note_on_c, 0, 70, 0
4, 524672, Note_on_c, 0, 62, 0
4, 524928, Note_on_c, 0, 77, 87
4, 524928, Note_on_c, 0, 74, 87
4, 524928, Note_on_c, 0, 65, 87
4, 524928, Note_on_c, 0, 62, 87
4, 525056, Note_on_c, 0, 62, 0
4, 525056, Note_on_c, 0, 77, 0
4, 525056, Note_on_c, 0, 74, 0
4, 525056, Note_on_c, 0, 65, 0
4, 525312, Note_on_c, 0, 74, 87
4, 525312, Note_on_c, 0, 70, 87
4, 525312, Note_on_c, 0, 62, 87
4, 525312, Note_on_c, 0, 58, 87
4, 525440, Note_on_c, 0, 58, 0
4, 525440, Note_on_c, 0, 74, 0
4, 525440, Note_on_c, 0, 70, 0
4, 525440, Note_on_c, 0, 62, 0
4, 525696, Note_on_c, 0, 77, 117
4, 525696, Note_on_c, 0, 81, 117
4, 525696, Note_on_c, 0, 75, 117
4, 525696, Note_on_c, 0, 72, 117
4, 526076, Note_on_c, 0, 72, 0
4, 526076, Note_on_c, 0, 77, 0
4, 526076, Note_on_c, 0, 81, 0
4, 526076, Note_on_c, 0, 75, 0
4, 526080, Note_on_c, 0, 82, 117
4, 526080, Note_on_c, 0, 77, 117
4, 526080, Note_on_c, 0, 74, 117
4, 526080, Note_on_c, 0, 70, 117
4, 526460, Note_on_c, 0, 70, 0
4, 526460, Note_on_c, 0, 82, 0
4, 526460, Note_on_c, 0, 77, 0
4, 526460, Note_on_c, 0, 74, 0
4, 526464, Note_on_c, 0, 81, 117
4, 526464, Note_on_c, 0, 72, 117
4, 526464, Note_on_c, 0, 75, 117
4, 526464, Note_on_c, 0, 77, 117
4, 526844, Note_on_c, 0, 77, 0
4, 526844, Note_on_c, 0, 81, 0
4, 526844, Note_on_c, 0, 72, 0
4, 526844, Note_on_c, 0, 75, 0
4, 526848, Note_on_c, 0, 82, 117
4, 526848, Note_on_c, 0, 77, 117
4, 526848, Note_on_c, 0, 74, 117
4, 526848, Note_on_c, 0, 70, 117
4, 527228, Note_on_c, 0, 70, 0
4, 527228, Note_on_c, 0, 82, 0
4, 527228, Note_on_c, 0, 77, 0
4, 527228, Note_on_c, 0, 74, 0
4, 527228, End_track
5, 0, Start_track
5, 0, Title_t, "Piano"
5, 0, Control_c, 0, 0, 0
5, 0, Control_c, 0, 7, 110
5, 0, Control_c, 0, 10, 45
5, 0, Control_c, 0, 91, 80
5, 0, Control_c, 0, 93, 63
5, 0, Control_c, 0, 121, 0
5, 0, Control_c, 0, 32, 0
5, 1, Program_c, 0, 0
5, 96, Control_c, 0, 10, 43
5, 192, Control_c, 0, 91, 68
5, 240, Control_c, 0, 93, 40
5, 288, Program_c, 0, 0
5, 1536, Note_on_c, 0, 58, 87
5, 1536, Note_on_c, 0, 46, 87
5, 1916, Note_on_c, 0, 46, 0
5, 1916, Note_on_c, 0, 58, 0
5, 2304, Note_on_c, 0, 58, 87
5, 2304, Note_on_c, 0, 46, 87
5, 2684, Note_on_c, 0, 46, 0
5, 2684, Note_on_c, 0, 58, 0
5, 3072, Note_on_c, 0, 58, 87
5, 3072, Note_on_c, 0, 46, 87
5, 3452, Note_on_c, 0, 46, 0
5, 3452, Note_on_c, 0, 58, 0
5, 3456, Note_on_c, 0, 65, 87
5, 3456, Note_on_c, 0, 62, 87
5, 3456, Note_on_c, 0, 58, 87
5, 3836, Note_on_c, 0, 58, 0
5, 3836, Note_on_c, 0, 62, 0
5, 3836, Note_on_c, 0, 65, 0
5, 3840, Note_on_c, 0, 58, 87
5, 3840, Note_on_c, 0, 62, 87
5, 3840, Note_on_c, 0, 65, 87
5, 4220, Note_on_c, 0, 65, 0
5, 4220, Note_on_c, 0, 62, 0
5, 4220, Note_on_c, 0, 58, 0
5, 4224, Note_on_c, 0, 58, 87
5, 4224, Note_on_c, 0, 62, 87
5, 4224, Note_on_c, 0, 65, 87
5, 4604, Note_on_c, 0, 65, 0
5, 4604, Note_on_c, 0, 62, 0
5, 4604, Note_on_c, 0, 58, 0
5, 4608, Note_on_c, 0, 58, 87
5, 4608, Note_on_c, 0, 62, 87
5, 4608, Note_on_c, 0, 65, 87
5, 5756, Note_on_c, 0, 65, 0
5, 5756, Note_on_c, 0, 62, 0
5, 5756, Note_on_c, 0, 58, 0
5, 6144, Note_on_c, 0, 53, 87
5, 6144, Note_on_c, 0, 41, 87
5, 6524, Note_on_c, 0, 41, 0
5, 6524, Note_on_c, 0, 53, 0
5, 6528, Note_on_c, 0, 41, 87
5, 6528, Note_on_c, 0, 53, 87
5, 6908, Note_on_c, 0, 53, 0
5, 6908, Note_on_c, 0, 41, 0
5, 6912, Note_on_c, 0, 53, 87
5, 6912, Note_on_c, 0, 41, 87
5, 7292, Note_on_c, 0, 41, 0
5, 7292, Note_on_c, 0, 53, 0
5, 7680, Note_on_c, 0, 53, 87
5, 7680, Note_on_c, 0, 41, 87
5, 8060, Note_on_c, 0, 41, 0
5, 8060, Note_on_c, 0, 53, 0
5, 8448, Note_on_c, 0, 53, 87
5, 8448, Note_on_c, 0, 41, 87
5, 8828, Note_on_c, 0, 41, 0
5, 8828, Note_on_c, 0, 53, 0
5, 9216, Note_on_c, 0, 53, 87
5, 9600, Note_on_c, 0, 60, 87
5, 9600, Note_on_c, 0, 63, 87
5, 9600, Note_on_c, 0, 57, 87
5, 9980, Note_on_c, 0, 57, 0
5, 9980, Note_on_c, 0, 63, 0
5, 9980, Note_on_c, 0, 60, 0
5, 9984, Note_on_c, 0, 57, 87
5, 9984, Note_on_c, 0, 63, 87
5, 9984, Note_on_c, 0, 60, 87
5, 10364, Note_on_c, 0, 60, 0
5, 10364, Note_on_c, 0, 53, 0
5, 10364, Note_on_c, 0, 57, 0
5, 10364, Note_on_c, 0, 63, 0
5, 10368, Note_on_c, 0, 57, 87
5, 10368, Note_on_c, 0, 60, 87
5, 10368, Note_on_c, 0, 63, 87
5, 10748, Note_on_c, 0, 63, 0
5, 10748, Note_on_c, 0, 60, 0
5, 10748, Note_on_c, 0, 57, 0
5, 10752, Note_on_c, 0, 53, 87
5, 10752, Note_on_c, 0, 57, 87
5, 10752, Note_on_c, 0, 60, 87
5, 10752, Note_on_c, 0, 63, 87
5, 11900, Note_on_c, 0, 63, 0
5, 11900, Note_on_c, 0, 53, 0
5, 11900, Note_on_c, 0, 57, 0
5, 11900, Note_on_c, 0, 60, 0
5, 12288, Note_on_c, 0, 46, 87
5, 12288, Note_on_c, 0, 34, 87
5, 12668, Note_on_c, 0, 34, 0
5, 12668, Note_on_c, 0, 46, 0
5, 12672, Note_on_c, 0, 46, 87
5, 12672, Note_on_c, 0, 58, 87
5, 13052, Note_on_c, 0, 58, 0
5, 13052, Note_on_c, 0, 46, 0
5, 13056, Note_on_c, 0, 46, 87
5, 13244, Note_on_c, 0, 46, 0
5, 13248, Note_on_c, 0, 62, 87
5, 13436, Note_on_c, 0, 62, 0
5, 13440, Note_on_c, 0, 63, 87
5, 13628, Note_on_c, 0, 63, 0
5, 13632, Note_on_c, 0, 64, 87
5, 13820, Note_on_c, 0, 64, 0
5, 13824, Note_on_c, 0, 58, 87
5, 13824, Note_on_c, 0, 62, 87
5, 14012, Note_on_c, 0, 62, 0
5, 14012, Note_on_c, 0, 58, 0
5, 14016, Note_on_c, 0, 58, 87
5, 14016, Note_on_c, 0, 62, 87
5, 14204, Note_on_c, 0, 62, 0
5, 14204, Note_on_c, 0, 58, 0
5, 14208, Note_on_c, 0, 60, 87
5, 14208, Note_on_c, 0, 53, 87
5, 14396, Note_on_c, 0, 53, 0
5, 14396, Note_on_c, 0, 60, 0
5, 14400, Note_on_c, 0, 53, 87
5, 14400, Note_on_c, 0, 60, 87
5, 14588, Note_on_c, 0, 60, 0
5, 14588, Note_on_c, 0, 53, 0
5, 14592, Note_on_c, 0, 58, 87
5, 14592, Note_on_c, 0, 50, 87
5, 14780, Note_on_c, 0, 50, 0
5, 14780, Note_on_c, 0, 58, 0
5, 14784, Note_on_c, 0, 62, 87
5, 14972, Note_on_c, 0, 62, 0
5, 14976, Note_on_c, 0, 63, 87
5, 15164, Note_on_c, 0, 63, 0
5, 15168, Note_on_c, 0, 64, 87
5, 15356, Note_on_c, 0, 64, 0
5, 15360, Note_on_c, 0, 58, 87
5, 15360, Note_on_c, 0, 62, 87
5, 15548, Note_on_c, 0, 62, 0
5, 15548, Note_on_c, 0, 58, 0
5, 15552, Note_on_c, 0, 58, 87
5, 15552, Note_on_c, 0, 62, 87
5, 15740, Note_on_c, 0, 62, 0
5, 15740, Note_on_c, 0, 58, 0
5, 15744, Note_on_c, 0, 60, 87
5, 15744, Note_on_c, 0, 53, 87
5, 15932, Note_on_c, 0, 53, 0
5, 15932, Note_on_c, 0, 60, 0
5, 15936, Note_on_c, 0, 53, 87
5, 15936, Note_on_c, 0, 60, 87
5, 16124, Note_on_c, 0, 60, 0
5, 16124, Note_on_c, 0, 53, 0
5, 16128, Note_on_c, 0, 58, 87
5, 16128, Note_on_c, 0, 50, 87
5, 16316, Note_on_c, 0, 50, 0
5, 16316, Note_on_c, 0, 58, 0
5, 16320, Note_on_c, 0, 62, 87
5, 16508, Note_on_c, 0, 62, 0
5, 16512, Note_on_c, 0, 63, 87
5, 16700, Note_on_c, 0, 63, 0
5, 16704, Note_on_c, 0, 64, 87
5, 16892, Note_on_c, 0, 64, 0
5, 16896, Note_on_c, 0, 58, 87
5, 16896, Note_on_c, 0, 62, 87
5, 17084, Note_on_c, 0, 62, 0
5, 17084, Note_on_c, 0, 58, 0
5, 17088, Note_on_c, 0, 58, 87
5, 17088, Note_on_c, 0, 62, 87
5, 17276, Note_on_c, 0, 62, 0
5, 17276, Note_on_c, 0, 58, 0
5, 17280, Note_on_c, 0, 60, 87
5, 17280, Note_on_c, 0, 53, 87
5, 17468, Note_on_c, 0, 53, 0
5, 17468, Note_on_c, 0, 60, 0
5, 17472, Note_on_c, 0, 60, 87
5, 17472, Note_on_c, 0, 53, 87
5, 17660, Note_on_c, 0, 53, 0
5, 17660, Note_on_c, 0, 60, 0
5, 17664, Note_on_c, 0, 58, 87
5, 17664, Note_on_c, 0, 50, 87
5, 17852, Note_on_c, 0, 50, 0
5, 17852, Note_on_c, 0, 58, 0
5, 17856, Note_on_c, 0, 58, 87
5, 17856, Note_on_c, 0, 50, 87
5, 18044, Note_on_c, 0, 50, 0
5, 18044, Note_on_c, 0, 58, 0
5, 18048, Note_on_c, 0, 60, 87
5, 18048, Note_on_c, 0, 53, 87
5, 18236, Note_on_c, 0, 53, 0
5, 18236, Note_on_c, 0, 60, 0
5, 18240, Note_on_c, 0, 60, 87
5, 18240, Note_on_c, 0, 53, 87
5, 18428, Note_on_c, 0, 53, 0
5, 18428, Note_on_c, 0, 60, 0
5, 18432, Note_on_c, 0, 58, 87
5, 18432, Note_on_c, 0, 62, 87
5, 18620, Note_on_c, 0, 62, 0
5, 18620, Note_on_c, 0, 58, 0
5, 18624, Note_on_c, 0, 58, 87
5, 18624, Note_on_c, 0, 62, 87
5, 18812, Note_on_c, 0, 62, 0
5, 18812, Note_on_c, 0, 58, 0
5, 18816, Note_on_c, 0, 53, 87
5, 18816, Note_on_c, 0, 60, 87
5, 19004, Note_on_c, 0, 60, 0
5, 19004, Note_on_c, 0, 53, 0
5, 19008, Note_on_c, 0, 53, 87
5, 19008, Note_on_c, 0, 60, 87
5, 19196, Note_on_c, 0, 60, 0
5, 19196, Note_on_c, 0, 53, 0
5, 19200, Note_on_c, 0, 50, 87
5, 19200, Note_on_c, 0, 58, 87
5, 19388, Note_on_c, 0, 58, 0
5, 19388, Note_on_c, 0, 50, 0
5, 19392, Note_on_c, 0, 50, 87
5, 19392, Note_on_c, 0, 58, 87
5, 19580, Note_on_c, 0, 58, 0
5, 19580, Note_on_c, 0, 50, 0
5, 19584, Note_on_c, 0, 53, 87
5, 19584, Note_on_c, 0, 60, 87
5, 19772, Note_on_c, 0, 60, 0
5, 19772, Note_on_c, 0, 53, 0
5, 19776, Note_on_c, 0, 53, 87
5, 19776, Note_on_c, 0, 60, 87
5, 19964, Note_on_c, 0, 60, 0
5, 19964, Note_on_c, 0, 53, 0
5, 19968, Note_on_c, 0, 58, 87
5, 19968, Note_on_c, 0, 62, 87
5, 20156, Note_on_c, 0, 62, 0
5, 20156, Note_on_c, 0, 58, 0
5, 20160, Note_on_c, 0, 58, 87
5, 20160, Note_on_c, 0, 62, 87
5, 20348, Note_on_c, 0, 62, 0
5, 20348, Note_on_c, 0, 58, 0
5, 20352, Note_on_c, 0, 58, 87
5, 20352, Note_on_c, 0, 51, 87
5, 20352, Note_on_c, 0, 60, 87
5, 20352, Note_on_c, 0, 63, 87
5, 20540, Note_on_c, 0, 63, 0
5, 20540, Note_on_c, 0, 58, 0
5, 20540, Note_on_c, 0, 51, 0
5, 20540, Note_on_c, 0, 60, 0
5, 20544, Note_on_c, 0, 60, 87
5, 20544, Note_on_c, 0, 63, 87
5, 20732, Note_on_c, 0, 63, 0
5, 20732, Note_on_c, 0, 60, 0
5, 20736, Note_on_c, 0, 58, 87
5, 20736, Note_on_c, 0, 62, 87
5, 20736, Note_on_c, 0, 53, 87
5, 20924, Note_on_c, 0, 53, 0
5, 20924, Note_on_c, 0, 62, 0
5, 20924, Note_on_c, 0, 58, 0
5, 20928, Note_on_c, 0, 58, 87
5, 20928, Note_on_c, 0, 62, 87
5, 21116, Note_on_c, 0, 62, 0
5, 21116, Note_on_c, 0, 58, 0
5, 21120, Note_on_c, 0, 57, 87
5, 21120, Note_on_c, 0, 60, 87
5, 21120, Note_on_c, 0, 53, 87
5, 21308, Note_on_c, 0, 53, 0
5, 21308, Note_on_c, 0, 60, 0
5, 21308, Note_on_c, 0, 57, 0
5, 21312, Note_on_c, 0, 57, 87
5, 21312, Note_on_c, 0, 60, 87
5, 21500, Note_on_c, 0, 60, 0
5, 21500, Note_on_c, 0, 57, 0
5, 21504, Note_on_c, 0, 46, 110
5, 21504, Note_on_c, 0, 34, 110
5, 21692, Note_on_c, 0, 34, 0
5, 21692, Note_on_c, 0, 46, 0
5, 21696, Note_on_c, 0, 46, 110
5, 21696, Note_on_c, 0, 34, 110
5, 21884, Note_on_c, 0, 34, 0
5, 21884, Note_on_c, 0, 46, 0
5, 21888, Note_on_c, 0, 46, 110
5, 21888, Note_on_c, 0, 34, 110
5, 22076, Note_on_c, 0, 34, 0
5, 22076, Note_on_c, 0, 46, 0
5, 22080, Note_on_c, 0, 46, 110
5, 22080, Note_on_c, 0, 34, 110
5, 22268, Note_on_c, 0, 34, 0
5, 22268, Note_on_c, 0, 46, 0
5, 22272, Note_on_c, 0, 46, 110
5, 22272, Note_on_c, 0, 34, 110
5, 22460, Note_on_c, 0, 34, 0
5, 22460, Note_on_c, 0, 46, 0
5, 22464, Note_on_c, 0, 46, 110
5, 22464, Note_on_c, 0, 34, 110
5, 22652, Note_on_c, 0, 34, 0
5, 22652, Note_on_c, 0, 46, 0
5, 22656, Note_on_c, 0, 46, 110
5, 22656, Note_on_c, 0, 34, 110
5, 22844, Note_on_c, 0, 34, 0
5, 22844, Note_on_c, 0, 46, 0
5, 22848, Note_on_c, 0, 46, 110
5, 22848, Note_on_c, 0, 34, 110
5, 23036, Note_on_c, 0, 34, 0
5, 23036, Note_on_c, 0, 46, 0
5, 23040, Note_on_c, 0, 48, 110
5, 23040, Note_on_c, 0, 36, 110
5, 23228, Note_on_c, 0, 36, 0
5, 23228, Note_on_c, 0, 48, 0
5, 23232, Note_on_c, 0, 60, 110
5, 23232, Note_on_c, 0, 48, 110
5, 23420, Note_on_c, 0, 48, 0
5, 23420, Note_on_c, 0, 60, 0
5, 23424, Note_on_c, 0, 63, 110
5, 23424, Note_on_c, 0, 51, 110
5, 23612, Note_on_c, 0, 51, 0
5, 23612, Note_on_c, 0, 63, 0
5, 23616, Note_on_c, 0, 50, 110
5, 23616, Note_on_c, 0, 62, 110
5, 23804, Note_on_c, 0, 62, 0
5, 23804, Note_on_c, 0, 50, 0
5, 23808, Note_on_c, 0, 48, 110
5, 23808, Note_on_c, 0, 60, 110
5, 23996, Note_on_c, 0, 60, 0
5, 23996, Note_on_c, 0, 48, 0
5, 24000, Note_on_c, 0, 58, 110
5, 24000, Note_on_c, 0, 46, 110
5, 24188, Note_on_c, 0, 46, 0
5, 24188, Note_on_c, 0, 58, 0
5, 24192, Note_on_c, 0, 57, 110
5, 24192, Note_on_c, 0, 45, 110
5, 24380, Note_on_c, 0, 45, 0
5, 24380, Note_on_c, 0, 57, 0
5, 24384, Note_on_c, 0, 55, 110
5, 24384, Note_on_c, 0, 43, 110
5, 24572, Note_on_c, 0, 43, 0
5, 24572, Note_on_c, 0, 55, 0
5, 24576, Note_on_c, 0, 53, 110
5, 24576, Note_on_c, 0, 41, 110
5, 24764, Note_on_c, 0, 41, 0
5, 24764, Note_on_c, 0, 53, 0
5, 24768, Note_on_c, 0, 53, 110
5, 24768, Note_on_c, 0, 41, 110
5, 24956, Note_on_c, 0, 41, 0
5, 24956, Note_on_c, 0, 53, 0
5, 24960, Note_on_c, 0, 53, 110
5, 24960, Note_on_c, 0, 41, 110
5, 25148, Note_on_c, 0, 41, 0
5, 25148, Note_on_c, 0, 53, 0
5, 25152, Note_on_c, 0, 53, 110
5, 25152, Note_on_c, 0, 41, 110
5, 25340, Note_on_c, 0, 41, 0
5, 25340, Note_on_c, 0, 53, 0
5, 25344, Note_on_c, 0, 53, 110
5, 25344, Note_on_c, 0, 41, 110
5, 25532, Note_on_c, 0, 41, 0
5, 25532, Note_on_c, 0, 53, 0
5, 25536, Note_on_c, 0, 41, 110
5, 25536, Note_on_c, 0, 53, 110
5, 25724, Note_on_c, 0, 53, 0
5, 25724, Note_on_c, 0, 41, 0
5, 25728, Note_on_c, 0, 51, 110
5, 25728, Note_on_c, 0, 39, 110
5, 25916, Note_on_c, 0, 39, 0
5, 25916, Note_on_c, 0, 51, 0
5, 25920, Note_on_c, 0, 51, 110
5, 25920, Note_on_c, 0, 39, 110
5, 26108, Note_on_c, 0, 39, 0
5, 26108, Note_on_c, 0, 51, 0
5, 26112, Note_on_c, 0, 50, 110
5, 26112, Note_on_c, 0, 38, 110
5, 26300, Note_on_c, 0, 38, 0
5, 26300, Note_on_c, 0, 50, 0
5, 26304, Note_on_c, 0, 46, 110
5, 26304, Note_on_c, 0, 58, 110
5, 26492, Note_on_c, 0, 58, 0
5, 26492, Note_on_c, 0, 46, 0
5, 26496, Note_on_c, 0, 62, 110
5, 26496, Note_on_c, 0, 50, 110
5, 26684, Note_on_c, 0, 50, 0
5, 26684, Note_on_c, 0, 62, 0
5, 26688, Note_on_c, 0, 46, 110
5, 26688, Note_on_c, 0, 58, 110
5, 26876, Note_on_c, 0, 58, 0
5, 26876, Note_on_c, 0, 46, 0
5, 26880, Note_on_c, 0, 53, 110
5, 26880, Note_on_c, 0, 41, 110
5, 27068, Note_on_c, 0, 41, 0
5, 27068, Note_on_c, 0, 53, 0
5, 27072, Note_on_c, 0, 58, 110
5, 27072, Note_on_c, 0, 46, 110
5, 27260, Note_on_c, 0, 46, 0
5, 27260, Note_on_c, 0, 58, 0
5, 27264, Note_on_c, 0, 50, 110
5, 27264, Note_on_c, 0, 38, 110
5, 27452, Note_on_c, 0, 38, 0
5, 27452, Note_on_c, 0, 50, 0
5, 27456, Note_on_c, 0, 53, 110
5, 27456, Note_on_c, 0, 41, 110
5, 27644, Note_on_c, 0, 41, 0
5, 27644, Note_on_c, 0, 53, 0
5, 27648, Note_on_c, 0, 46, 110
5, 27648, Note_on_c, 0, 34, 110
5, 27836, Note_on_c, 0, 34, 0
5, 27836, Note_on_c, 0, 46, 0
5, 27840, Note_on_c, 0, 46, 110
5, 27840, Note_on_c, 0, 34, 110
5, 28028, Note_on_c, 0, 34, 0
5, 28028, Note_on_c, 0, 46, 0
5, 28032, Note_on_c, 0, 46, 110
5, 28032, Note_on_c, 0, 34, 110
5, 28220, Note_on_c, 0, 34, 0
5, 28220, Note_on_c, 0, 46, 0
5, 28224, Note_on_c, 0, 46, 110
5, 28224, Note_on_c, 0, 34, 110
5, 28412, Note_on_c, 0, 34, 0
5, 28412, Note_on_c, 0, 46, 0
5, 28416, Note_on_c, 0, 46, 110
5, 28416, Note_on_c, 0, 34, 110
5, 28604, Note_on_c, 0, 34, 0
5, 28604, Note_on_c, 0, 46, 0
5, 28608, Note_on_c, 0, 46, 110
5, 28608, Note_on_c, 0, 34, 110
5, 28796, Note_on_c, 0, 34, 0
5, 28796, Note_on_c, 0, 46, 0
5, 28800, Note_on_c, 0, 48, 110
5, 28800, Note_on_c, 0, 36, 110
5, 28988, Note_on_c, 0, 36, 0
5, 28988, Note_on_c, 0, 48, 0
5, 28992, Note_on_c, 0, 38, 110
5, 28992, Note_on_c, 0, 50, 110
5, 29180, Note_on_c, 0, 50, 0
5, 29180, Note_on_c, 0, 38, 0
5, 29184, Note_on_c, 0, 51, 110
5, 29184, Note_on_c, 0, 39, 110
5, 29372, Note_on_c, 0, 39, 0
5, 29372, Note_on_c, 0, 51, 0
5, 29376, Note_on_c, 0, 51, 110
5, 29376, Note_on_c, 0, 39, 110
5, 29564, Note_on_c, 0, 39, 0
5, 29564, Note_on_c, 0, 51, 0
5, 29568, Note_on_c, 0, 51, 110
5, 29568, Note_on_c, 0, 39, 110
5, 29756, Note_on_c, 0, 39, 0
5, 29756, Note_on_c, 0, 51, 0
5, 29760, Note_on_c, 0, 51, 110
5, 29760, Note_on_c, 0, 39, 110
5, 29948, Note_on_c, 0, 39, 0
5, 29948, Note_on_c, 0, 51, 0
5, 29952, Note_on_c, 0, 51, 110
5, 29952, Note_on_c, 0, 39, 110
5, 30140, Note_on_c, 0, 39, 0
5, 30140, Note_on_c, 0, 51, 0
5, 30144, Note_on_c, 0, 51, 110
5, 30144, Note_on_c, 0, 39, 110
5, 30332, Note_on_c, 0, 39, 0
5, 30332, Note_on_c, 0, 51, 0
5, 30336, Note_on_c, 0, 51, 110
5, 30336, Note_on_c, 0, 39, 110
5, 30524, Note_on_c, 0, 39, 0
5, 30524, Note_on_c, 0, 51, 0
5, 30528, Note_on_c, 0, 51, 110
5, 30528, Note_on_c, 0, 39, 110
5, 30716, Note_on_c, 0, 39, 0
5, 30716, Note_on_c, 0, 51, 0
5, 30720, Note_on_c, 0, 51, 110
5, 30720, Note_on_c, 0, 39, 110
5, 30908, Note_on_c, 0, 39, 0
5, 30908, Note_on_c, 0, 51, 0
5, 30912, Note_on_c, 0, 51, 110
5, 30912, Note_on_c, 0, 39, 110
5, 31100, Note_on_c, 0, 39, 0
5, 31100, Note_on_c, 0, 51, 0
5, 31104, Note_on_c, 0, 39, 110
5, 31104, Note_on_c, 0, 51, 110
5, 31292, Note_on_c, 0, 51, 0
5, 31292, Note_on_c, 0, 39, 0
5, 31296, Note_on_c, 0, 51, 110
5, 31296, Note_on_c, 0, 39, 110
5, 31484, Note_on_c, 0, 39, 0
5, 31484, Note_on_c, 0, 51, 0
5, 31488, Note_on_c, 0, 51, 110
5, 31488, Note_on_c, 0, 39, 110
5, 31676, Note_on_c, 0, 39, 0
5, 31676, Note_on_c, 0, 51, 0
5, 31680, Note_on_c, 0, 51, 110
5, 31680, Note_on_c, 0, 39, 110
5, 31868, Note_on_c, 0, 39, 0
5, 31868, Note_on_c, 0, 51, 0
5, 31872, Note_on_c, 0, 40, 110
5, 31872, Note_on_c, 0, 52, 110
5, 32060, Note_on_c, 0, 52, 0
5, 32060, Note_on_c, 0, 40, 0
5, 32064, Note_on_c, 0, 52, 110
5, 32064, Note_on_c, 0, 40, 110
5, 32252, Note_on_c, 0, 40, 0
5, 32252, Note_on_c, 0, 52, 0
5, 32256, Note_on_c, 0, 53, 110
5, 32256, Note_on_c, 0, 41, 110
5, 32444, Note_on_c, 0, 41, 0
5, 32444, Note_on_c, 0, 53, 0
5, 32448, Note_on_c, 0, 53, 110
5, 32448, Note_on_c, 0, 41, 110
5, 32636, Note_on_c, 0, 41, 0
5, 32636, Note_on_c, 0, 53, 0
5, 32640, Note_on_c, 0, 53, 110
5, 32640, Note_on_c, 0, 41, 110
5, 32828, Note_on_c, 0, 41, 0
5, 32828, Note_on_c, 0, 53, 0
5, 32832, Note_on_c, 0, 53, 110
5, 32832, Note_on_c, 0, 41, 110
5, 33020, Note_on_c, 0, 41, 0
5, 33020, Note_on_c, 0, 53, 0
5, 33024, Note_on_c, 0, 53, 110
5, 33024, Note_on_c, 0, 41, 110
5, 33212, Note_on_c, 0, 41, 0
5, 33212, Note_on_c, 0, 53, 0
5, 33216, Note_on_c, 0, 53, 110
5, 33216, Note_on_c, 0, 41, 110
5, 33404, Note_on_c, 0, 41, 0
5, 33404, Note_on_c, 0, 53, 0
5, 33408, Note_on_c, 0, 53, 110
5, 33408, Note_on_c, 0, 41, 110
5, 33596, Note_on_c, 0, 41, 0
5, 33596, Note_on_c, 0, 53, 0
5, 33600, Note_on_c, 0, 53, 110
5, 33600, Note_on_c, 0, 41, 110
5, 33788, Note_on_c, 0, 41, 0
5, 33788, Note_on_c, 0, 53, 0
5, 33792, Note_on_c, 0, 53, 110
5, 33792, Note_on_c, 0, 41, 110
5, 33980, Note_on_c, 0, 41, 0
5, 33980, Note_on_c, 0, 53, 0
5, 33984, Note_on_c, 0, 41, 110
5, 33984, Note_on_c, 0, 53, 110
5, 34172, Note_on_c, 0, 53, 0
5, 34172, Note_on_c, 0, 41, 0
5, 34176, Note_on_c, 0, 53, 110
5, 34176, Note_on_c, 0, 41, 110
5, 34364, Note_on_c, 0, 41, 0
5, 34364, Note_on_c, 0, 53, 0
5, 34368, Note_on_c, 0, 41, 110
5, 34368, Note_on_c, 0, 53, 110
5, 34556, Note_on_c, 0, 53, 0
5, 34556, Note_on_c, 0, 41, 0
5, 34560, Note_on_c, 0, 41, 110
5, 34560, Note_on_c, 0, 53, 110
5, 34748, Note_on_c, 0, 53, 0
5, 34748, Note_on_c, 0, 41, 0
5, 34752, Note_on_c, 0, 53, 110
5, 34752, Note_on_c, 0, 41, 110
5, 34940, Note_on_c, 0, 41, 0
5, 34940, Note_on_c, 0, 53, 0
5, 34944, Note_on_c, 0, 41, 110
5, 34944, Note_on_c, 0, 53, 110
5, 35132, Note_on_c, 0, 53, 0
5, 35132, Note_on_c, 0, 41, 0
5, 35136, Note_on_c, 0, 41, 110
5, 35136, Note_on_c, 0, 53, 110
5, 35324, Note_on_c, 0, 53, 0
5, 35324, Note_on_c, 0, 41, 0
5, 35328, Note_on_c, 0, 53, 110
5, 35328, Note_on_c, 0, 41, 110
5, 35516, Note_on_c, 0, 41, 0
5, 35516, Note_on_c, 0, 53, 0
5, 35520, Note_on_c, 0, 41, 110
5, 35520, Note_on_c, 0, 53, 110
5, 35708, Note_on_c, 0, 53, 0
5, 35708, Note_on_c, 0, 41, 0
5, 35712, Note_on_c, 0, 41, 110
5, 35712, Note_on_c, 0, 53, 110
5, 35900, Note_on_c, 0, 53, 0
5, 35900, Note_on_c, 0, 41, 0
5, 35904, Note_on_c, 0, 41, 110
5, 35904, Note_on_c, 0, 53, 110
5, 36092, Note_on_c, 0, 53, 0
5, 36092, Note_on_c, 0, 41, 0
5, 36096, Note_on_c, 0, 53, 110
5, 36096, Note_on_c, 0, 41, 110
5, 36284, Note_on_c, 0, 41, 0
5, 36284, Note_on_c, 0, 53, 0
5, 36288, Note_on_c, 0, 41, 110
5, 36288, Note_on_c, 0, 53, 110
5, 36476, Note_on_c, 0, 53, 0
5, 36476, Note_on_c, 0, 41, 0
5, 36480, Note_on_c, 0, 41, 110
5, 36480, Note_on_c, 0, 53, 110
5, 36668, Note_on_c, 0, 53, 0
5, 36668, Note_on_c, 0, 41, 0
5, 36672, Note_on_c, 0, 41, 110
5, 36672, Note_on_c, 0, 53, 110
5, 36860, Note_on_c, 0, 53, 0
5, 36860, Note_on_c, 0, 41, 0
5, 36864, Note_on_c, 0, 53, 110
5, 36864, Note_on_c, 0, 41, 110
5, 37244, Note_on_c, 0, 41, 0
5, 37244, Note_on_c, 0, 53, 0
5, 37440, Note_on_c, 0, 53, 110
5, 37440, Note_on_c, 0, 41, 110
5, 37628, Note_on_c, 0, 41, 0
5, 37628, Note_on_c, 0, 53, 0
5, 37632, Note_on_c, 0, 41, 110
5, 37632, Note_on_c, 0, 53, 110
5, 37820, Note_on_c, 0, 53, 0
5, 37820, Note_on_c, 0, 41, 0
5, 37824, Note_on_c, 0, 53, 110
5, 37824, Note_on_c, 0, 41, 110
5, 38012, Note_on_c, 0, 41, 0
5, 38012, Note_on_c, 0, 53, 0
5, 38016, Note_on_c, 0, 53, 80
5, 38016, Note_on_c, 0, 41, 110
5, 38204, Note_on_c, 0, 41, 0
5, 38204, Note_on_c, 0, 53, 0
5, 38208, Note_on_c, 0, 53, 80
5, 38208, Note_on_c, 0, 41, 80
5, 38396, Note_on_c, 0, 41, 0
5, 38396, Note_on_c, 0, 53, 0
5, 38400, Note_on_c, 0, 53, 80
5, 38400, Note_on_c, 0, 41, 80
5, 38972, Note_on_c, 0, 41, 0
5, 38972, Note_on_c, 0, 53, 0
5, 39936, Note_on_c, 0, 46, 87
5, 39936, Note_on_c, 0, 34, 87
5, 40316, Note_on_c, 0, 34, 0
5, 40316, Note_on_c, 0, 46, 0
5, 40704, Note_on_c, 0, 50, 87
5, 40704, Note_on_c, 0, 38, 87
5, 41084, Note_on_c, 0, 38, 0
5, 41084, Note_on_c, 0, 50, 0
5, 41472, Note_on_c, 0, 48, 87
5, 41472, Note_on_c, 0, 36, 87
5, 41852, Note_on_c, 0, 36, 0
5, 41852, Note_on_c, 0, 48, 0
5, 42240, Note_on_c, 0, 45, 87
5, 42240, Note_on_c, 0, 33, 87
5, 42620, Note_on_c, 0, 33, 0
5, 42620, Note_on_c, 0, 45, 0
5, 43008, Note_on_c, 0, 41, 87
5, 43008, Note_on_c, 0, 29, 87
5, 43388, Note_on_c, 0, 29, 0
5, 43388, Note_on_c, 0, 41, 0
5, 43776, Note_on_c, 0, 51, 87
5, 43776, Note_on_c, 0, 39, 87
5, 44156, Note_on_c, 0, 39, 0
5, 44156, Note_on_c, 0, 51, 0
5, 44544, Note_on_c, 0, 50, 87
5, 44544, Note_on_c, 0, 38, 87
5, 44924, Note_on_c, 0, 38, 0
5, 44924, Note_on_c, 0, 50, 0
5, 45696, Note_on_c, 0, 46, 87
5, 45696, Note_on_c, 0, 34, 87
5, 46076, Note_on_c, 0, 34, 0
5, 46076, Note_on_c, 0, 46, 0
5, 46080, Note_on_c, 0, 58, 87
5, 46080, Note_on_c, 0, 46, 87
5, 46460, Note_on_c, 0, 46, 0
5, 46460, Note_on_c, 0, 58, 0
5, 46848, Note_on_c, 0, 50, 87
5, 46848, Note_on_c, 0, 38, 87
5, 47228, Note_on_c, 0, 38, 0
5, 47228, Note_on_c, 0, 50, 0
5, 47616, Note_on_c, 0, 51, 87
5, 47616, Note_on_c, 0, 39, 87
5, 47996, Note_on_c, 0, 39, 0
5, 47996, Note_on_c, 0, 51, 0
5, 48384, Note_on_c, 0, 55, 87
5, 48384, Note_on_c, 0, 43, 87
5, 48764, Note_on_c, 0, 43, 0
5, 48764, Note_on_c, 0, 55, 0
5, 48768, Note_on_c, 0, 58, 87
5, 49148, Note_on_c, 0, 58, 0
5, 49152, Note_on_c, 0, 57, 87
5, 49152, Note_on_c, 0, 53, 87
5, 49532, Note_on_c, 0, 53, 0
5, 49532, Note_on_c, 0, 57, 0
5, 49536, Note_on_c, 0, 58, 87
5, 49920, Note_on_c, 0, 41, 87
5, 50108, Note_on_c, 0, 58, 0
5, 50300, Note_on_c, 0, 41, 0
5, 50304, Note_on_c, 0, 57, 87
5, 50684, Note_on_c, 0, 57, 0
5, 50688, Note_on_c, 0, 46, 87
5, 50688, Note_on_c, 0, 34, 87
5, 51068, Note_on_c, 0, 34, 0
5, 51068, Note_on_c, 0, 46, 0
5, 51456, Note_on_c, 0, 58, 87
5, 51456, Note_on_c, 0, 46, 87
5, 51836, Note_on_c, 0, 46, 0
5, 51836, Note_on_c, 0, 58, 0
5, 51840, Note_on_c, 0, 65, 87
5, 52224, Note_on_c, 0, 58, 87
5, 52604, Note_on_c, 0, 58, 0
5, 52604, Note_on_c, 0, 65, 0
5, 52608, Note_on_c, 0, 62, 87
5, 52992, Note_on_c, 0, 50, 87
5, 53372, Note_on_c, 0, 50, 0
5, 53372, Note_on_c, 0, 62, 0
5, 53376, Note_on_c, 0, 58, 87
5, 53760, Note_on_c, 0, 48, 87
5, 53952, Note_on_c, 0, 57, 87
5, 54140, Note_on_c, 0, 57, 0
5, 54140, Note_on_c, 0, 48, 0
5, 54140, Note_on_c, 0, 58, 0
5, 54144, Note_on_c, 0, 63, 87
5, 54524, Note_on_c, 0, 63, 0
5, 54528, Note_on_c, 0, 55, 87
5, 54908, Note_on_c, 0, 55, 0
5, 54912, Note_on_c, 0, 63, 87
5, 55296, Note_on_c, 0, 53, 87
5, 55676, Note_on_c, 0, 53, 0
5, 55676, Note_on_c, 0, 63, 0
5, 55680, Note_on_c, 0, 60, 87
5, 56064, Note_on_c, 0, 51, 87
5, 56444, Note_on_c, 0, 51, 0
5, 56444, Note_on_c, 0, 60, 0
5, 56448, Note_on_c, 0, 57, 87
5, 56832, Note_on_c, 0, 50, 87
5, 57024, Note_on_c, 0, 58, 87
5, 57212, Note_on_c, 0, 58, 0
5, 57212, Note_on_c, 0, 50, 0
5, 57212, Note_on_c, 0, 57, 0
5, 57216, Note_on_c, 0, 65, 87
5, 57596, Note_on_c, 0, 65, 0
5, 57600, Note_on_c, 0, 46, 87
5, 57980, Note_on_c, 0, 46, 0
5, 57984, Note_on_c, 0, 65, 87
5, 58368, Note_on_c, 0, 58, 87
5, 58748, Note_on_c, 0, 58, 0
5, 58748, Note_on_c, 0, 65, 0
5, 58752, Note_on_c, 0, 62, 87
5, 59136, Note_on_c, 0, 56, 87
5, 59516, Note_on_c, 0, 56, 0
5, 59516, Note_on_c, 0, 62, 0
5, 59520, Note_on_c, 0, 58, 87
5, 59904, Note_on_c, 0, 55, 87
5, 60096, Note_on_c, 0, 63, 87
5, 60284, Note_on_c, 0, 63, 0
5, 60284, Note_on_c, 0, 55, 0
5, 60284, Note_on_c, 0, 58, 0
5, 60288, Note_on_c, 0, 63, 87
5, 60288, Note_on_c, 0, 67, 87
5, 60668, Note_on_c, 0, 67, 0
5, 60668, Note_on_c, 0, 63, 0
5, 60672, Note_on_c, 0, 63, 87
5, 60672, Note_on_c, 0, 67, 87
5, 61052, Note_on_c, 0, 67, 0
5, 61052, Note_on_c, 0, 63, 0
5, 61056, Note_on_c, 0, 48, 87
5, 61056, Note_on_c, 0, 63, 87
5, 61436, Note_on_c, 0, 63, 0
5, 61436, Note_on_c, 0, 48, 0
5, 61440, Note_on_c, 0, 65, 87
5, 61440, Note_on_c, 0, 53, 87
5, 61820, Note_on_c, 0, 53, 0
5, 61820, Note_on_c, 0, 65, 0
5, 61824, Note_on_c, 0, 65, 87
5, 61824, Note_on_c, 0, 53, 87
5, 62204, Note_on_c, 0, 53, 0
5, 62204, Note_on_c, 0, 65, 0
5, 62208, Note_on_c, 0, 65, 87
5, 62208, Note_on_c, 0, 53, 87
5, 62588, Note_on_c, 0, 53, 0
5, 62588, Note_on_c, 0, 65, 0
5, 62592, Note_on_c, 0, 65, 87
5, 62592, Note_on_c, 0, 53, 87
5, 62972, Note_on_c, 0, 53, 0
5, 62972, Note_on_c, 0, 65, 0
5, 62976, Note_on_c, 0, 46, 69
5, 62976, Note_on_c, 0, 34, 69
5, 63164, Note_on_c, 0, 34, 0
5, 63164, Note_on_c, 0, 46, 0
5, 63168, Note_on_c, 0, 34, 69
5, 63168, Note_on_c, 0, 46, 69
5, 63356, Note_on_c, 0, 46, 0
5, 63356, Note_on_c, 0, 34, 0
5, 63360, Note_on_c, 0, 46, 69
5, 63360, Note_on_c, 0, 34, 69
5, 63548, Note_on_c, 0, 34, 0
5, 63548, Note_on_c, 0, 46, 0
5, 63552, Note_on_c, 0, 46, 69
5, 63552, Note_on_c, 0, 34, 69
5, 63740, Note_on_c, 0, 34, 0
5, 63740, Note_on_c, 0, 46, 0
5, 63744, Note_on_c, 0, 46, 69
5, 63744, Note_on_c, 0, 34, 69
5, 63932, Note_on_c, 0, 34, 0
5, 63932, Note_on_c, 0, 46, 0
5, 63936, Note_on_c, 0, 34, 69
5, 63936, Note_on_c, 0, 46, 69
5, 64124, Note_on_c, 0, 46, 0
5, 64124, Note_on_c, 0, 34, 0
5, 64128, Note_on_c, 0, 46, 69
5, 64128, Note_on_c, 0, 34, 69
5, 64316, Note_on_c, 0, 34, 0
5, 64316, Note_on_c, 0, 46, 0
5, 64320, Note_on_c, 0, 34, 69
5, 64320, Note_on_c, 0, 46, 69
5, 64508, Note_on_c, 0, 46, 0
5, 64508, Note_on_c, 0, 34, 0
5, 64512, Note_on_c, 0, 46, 69
5, 64512, Note_on_c, 0, 34, 69
5, 64700, Note_on_c, 0, 34, 0
5, 64700, Note_on_c, 0, 46, 0
5, 64704, Note_on_c, 0, 46, 71
5, 64704, Note_on_c, 0, 34, 71
5, 64892, Note_on_c, 0, 34, 0
5, 64892, Note_on_c, 0, 46, 0
5, 64896, Note_on_c, 0, 34, 72
5, 64896, Note_on_c, 0, 46, 72
5, 65084, Note_on_c, 0, 46, 0
5, 65084, Note_on_c, 0, 34, 0
5, 65088, Note_on_c, 0, 46, 74
5, 65088, Note_on_c, 0, 34, 74
5, 65276, Note_on_c, 0, 34, 0
5, 65276, Note_on_c, 0, 46, 0
5, 65280, Note_on_c, 0, 46, 75
5, 65280, Note_on_c, 0, 34, 75
5, 65468, Note_on_c, 0, 34, 0
5, 65468, Note_on_c, 0, 46, 0
5, 65472, Note_on_c, 0, 46, 77
5, 65472, Note_on_c, 0, 34, 77
5, 65660, Note_on_c, 0, 34, 0
5, 65660, Note_on_c, 0, 46, 0
5, 65664, Note_on_c, 0, 46, 78
5, 65664, Note_on_c, 0, 34, 78
5, 65852, Note_on_c, 0, 34, 0
5, 65852, Note_on_c, 0, 46, 0
5, 65856, Note_on_c, 0, 34, 80
5, 65856, Note_on_c, 0, 46, 80
5, 66044, Note_on_c, 0, 46, 0
5, 66044, Note_on_c, 0, 34, 0
5, 66048, Note_on_c, 0, 46, 81
5, 66048, Note_on_c, 0, 34, 81
5, 66236, Note_on_c, 0, 34, 0
5, 66236, Note_on_c, 0, 46, 0
5, 66240, Note_on_c, 0, 46, 83
5, 66240, Note_on_c, 0, 34, 83
5, 66428, Note_on_c, 0, 34, 0
5, 66428, Note_on_c, 0, 46, 0
5, 66432, Note_on_c, 0, 46, 84
5, 66432, Note_on_c, 0, 34, 84
5, 66620, Note_on_c, 0, 34, 0
5, 66620, Note_on_c, 0, 46, 0
5, 66624, Note_on_c, 0, 34, 86
5, 66624, Note_on_c, 0, 46, 86
5, 66812, Note_on_c, 0, 46, 0
5, 66812, Note_on_c, 0, 34, 0
5, 66816, Note_on_c, 0, 46, 89
5, 66816, Note_on_c, 0, 34, 89
5, 67004, Note_on_c, 0, 34, 0
5, 67004, Note_on_c, 0, 46, 0
5, 67008, Note_on_c, 0, 46, 90
5, 67008, Note_on_c, 0, 34, 90
5, 67196, Note_on_c, 0, 34, 0
5, 67196, Note_on_c, 0, 46, 0
5, 67200, Note_on_c, 0, 46, 92
5, 67200, Note_on_c, 0, 34, 92
5, 67388, Note_on_c, 0, 34, 0
5, 67388, Note_on_c, 0, 46, 0
5, 67392, Note_on_c, 0, 34, 93
5, 67392, Note_on_c, 0, 46, 93
5, 67580, Note_on_c, 0, 46, 0
5, 67580, Note_on_c, 0, 34, 0
5, 67584, Note_on_c, 0, 46, 95
5, 67584, Note_on_c, 0, 34, 95
5, 67772, Note_on_c, 0, 34, 0
5, 67772, Note_on_c, 0, 46, 0
5, 67776, Note_on_c, 0, 46, 96
5, 67776, Note_on_c, 0, 34, 96
5, 67964, Note_on_c, 0, 34, 0
5, 67964, Note_on_c, 0, 46, 0
5, 67968, Note_on_c, 0, 34, 98
5, 67968, Note_on_c, 0, 46, 98
5, 68156, Note_on_c, 0, 46, 0
5, 68156, Note_on_c, 0, 34, 0
5, 68160, Note_on_c, 0, 46, 99
5, 68160, Note_on_c, 0, 34, 99
5, 68348, Note_on_c, 0, 34, 0
5, 68348, Note_on_c, 0, 46, 0
5, 68352, Note_on_c, 0, 46, 101
5, 68352, Note_on_c, 0, 34, 101
5, 68540, Note_on_c, 0, 34, 0
5, 68540, Note_on_c, 0, 46, 0
5, 68544, Note_on_c, 0, 46, 102
5, 68544, Note_on_c, 0, 34, 102
5, 68732, Note_on_c, 0, 34, 0
5, 68732, Note_on_c, 0, 46, 0
5, 68736, Note_on_c, 0, 46, 104
5, 68736, Note_on_c, 0, 34, 104
5, 68924, Note_on_c, 0, 34, 0
5, 68924, Note_on_c, 0, 46, 0
5, 68928, Note_on_c, 0, 34, 105
5, 68928, Note_on_c, 0, 46, 105
5, 69116, Note_on_c, 0, 46, 0
5, 69116, Note_on_c, 0, 34, 0
5, 69120, Note_on_c, 0, 46, 110
5, 69120, Note_on_c, 0, 34, 110
5, 69308, Note_on_c, 0, 34, 0
5, 69308, Note_on_c, 0, 46, 0
5, 69312, Note_on_c, 0, 46, 110
5, 69312, Note_on_c, 0, 34, 110
5, 69500, Note_on_c, 0, 34, 0
5, 69500, Note_on_c, 0, 46, 0
5, 69504, Note_on_c, 0, 46, 110
5, 69504, Note_on_c, 0, 34, 110
5, 69692, Note_on_c, 0, 34, 0
5, 69692, Note_on_c, 0, 46, 0
5, 69696, Note_on_c, 0, 46, 110
5, 69696, Note_on_c, 0, 34, 110
5, 69884, Note_on_c, 0, 34, 0
5, 69884, Note_on_c, 0, 46, 0
5, 69888, Note_on_c, 0, 50, 110
5, 69888, Note_on_c, 0, 38, 110
5, 70076, Note_on_c, 0, 38, 0
5, 70076, Note_on_c, 0, 50, 0
5, 70080, Note_on_c, 0, 50, 110
5, 70080, Note_on_c, 0, 38, 110
5, 70268, Note_on_c, 0, 38, 0
5, 70268, Note_on_c, 0, 50, 0
5, 70272, Note_on_c, 0, 50, 110
5, 70288, Note_on_c, 0, 38, 110
5, 70460, Note_on_c, 0, 50, 0
5, 70464, Note_on_c, 0, 50, 110
5, 70464, Note_on_c, 0, 38, 110
5, 70476, Note_on_c, 0, 38, 0
5, 70652, Note_on_c, 0, 38, 0
5, 70652, Note_on_c, 0, 50, 0
5, 70656, Note_on_c, 0, 51, 110
5, 70656, Note_on_c, 0, 39, 110
5, 70844, Note_on_c, 0, 39, 0
5, 70844, Note_on_c, 0, 51, 0
5, 70848, Note_on_c, 0, 51, 110
5, 70848, Note_on_c, 0, 39, 110
5, 71036, Note_on_c, 0, 39, 0
5, 71036, Note_on_c, 0, 51, 0
5, 71040, Note_on_c, 0, 51, 110
5, 71040, Note_on_c, 0, 39, 110
5, 71228, Note_on_c, 0, 39, 0
5, 71228, Note_on_c, 0, 51, 0
5, 71232, Note_on_c, 0, 51, 110
5, 71232, Note_on_c, 0, 39, 110
5, 71420, Note_on_c, 0, 39, 0
5, 71420, Note_on_c, 0, 51, 0
5, 71424, Note_on_c, 0, 51, 110
5, 71424, Note_on_c, 0, 39, 110
5, 71612, Note_on_c, 0, 39, 0
5, 71612, Note_on_c, 0, 51, 0
5, 71616, Note_on_c, 0, 39, 110
5, 71616, Note_on_c, 0, 51, 110
5, 71804, Note_on_c, 0, 51, 0
5, 71804, Note_on_c, 0, 39, 0
5, 71808, Note_on_c, 0, 51, 110
5, 71808, Note_on_c, 0, 39, 110
5, 71996, Note_on_c, 0, 39, 0
5, 71996, Note_on_c, 0, 51, 0
5, 72000, Note_on_c, 0, 39, 110
5, 72000, Note_on_c, 0, 51, 110
5, 72188, Note_on_c, 0, 51, 0
5, 72188, Note_on_c, 0, 39, 0
5, 72192, Note_on_c, 0, 55, 110
5, 72192, Note_on_c, 0, 43, 110
5, 72380, Note_on_c, 0, 43, 0
5, 72380, Note_on_c, 0, 55, 0
5, 72384, Note_on_c, 0, 55, 110
5, 72384, Note_on_c, 0, 43, 110
5, 72572, Note_on_c, 0, 43, 0
5, 72572, Note_on_c, 0, 55, 0
5, 72576, Note_on_c, 0, 55, 110
5, 72576, Note_on_c, 0, 43, 110
5, 72764, Note_on_c, 0, 43, 0
5, 72764, Note_on_c, 0, 55, 0
5, 72768, Note_on_c, 0, 55, 110
5, 72768, Note_on_c, 0, 43, 110
5, 72956, Note_on_c, 0, 43, 0
5, 72956, Note_on_c, 0, 55, 0
5, 72960, Note_on_c, 0, 55, 110
5, 72960, Note_on_c, 0, 43, 110
5, 73148, Note_on_c, 0, 43, 0
5, 73148, Note_on_c, 0, 55, 0
5, 73152, Note_on_c, 0, 55, 110
5, 73152, Note_on_c, 0, 43, 110
5, 73340, Note_on_c, 0, 43, 0
5, 73340, Note_on_c, 0, 55, 0
5, 73344, Note_on_c, 0, 55, 110
5, 73344, Note_on_c, 0, 43, 110
5, 73532, Note_on_c, 0, 43, 0
5, 73532, Note_on_c, 0, 55, 0
5, 73536, Note_on_c, 0, 55, 110
5, 73536, Note_on_c, 0, 43, 110
5, 73724, Note_on_c, 0, 43, 0
5, 73724, Note_on_c, 0, 55, 0
5, 73728, Note_on_c, 0, 53, 110
5, 73728, Note_on_c, 0, 41, 110
5, 73916, Note_on_c, 0, 41, 0
5, 73916, Note_on_c, 0, 53, 0
5, 73920, Note_on_c, 0, 53, 110
5, 73920, Note_on_c, 0, 41, 110
5, 74108, Note_on_c, 0, 41, 0
5, 74108, Note_on_c, 0, 53, 0
5, 74112, Note_on_c, 0, 53, 110
5, 74112, Note_on_c, 0, 41, 110
5, 74300, Note_on_c, 0, 41, 0
5, 74300, Note_on_c, 0, 53, 0
5, 74304, Note_on_c, 0, 53, 110
5, 74304, Note_on_c, 0, 41, 110
5, 74492, Note_on_c, 0, 41, 0
5, 74492, Note_on_c, 0, 53, 0
5, 74496, Note_on_c, 0, 53, 110
5, 74496, Note_on_c, 0, 41, 110
5, 74684, Note_on_c, 0, 41, 0
5, 74684, Note_on_c, 0, 53, 0
5, 74688, Note_on_c, 0, 53, 110
5, 74688, Note_on_c, 0, 41, 110
5, 74876, Note_on_c, 0, 41, 0
5, 74876, Note_on_c, 0, 53, 0
5, 74880, Note_on_c, 0, 53, 110
5, 74880, Note_on_c, 0, 41, 110
5, 75068, Note_on_c, 0, 41, 0
5, 75068, Note_on_c, 0, 53, 0
5, 75072, Note_on_c, 0, 53, 110
5, 75072, Note_on_c, 0, 41, 110
5, 75260, Note_on_c, 0, 41, 0
5, 75260, Note_on_c, 0, 53, 0
5, 75264, Note_on_c, 0, 50, 110
5, 75264, Note_on_c, 0, 38, 110
5, 75452, Note_on_c, 0, 38, 0
5, 75452, Note_on_c, 0, 50, 0
5, 75456, Note_on_c, 0, 50, 110
5, 75456, Note_on_c, 0, 38, 110
5, 75644, Note_on_c, 0, 38, 0
5, 75644, Note_on_c, 0, 50, 0
5, 75648, Note_on_c, 0, 50, 110
5, 75648, Note_on_c, 0, 38, 110
5, 75836, Note_on_c, 0, 38, 0
5, 75836, Note_on_c, 0, 50, 0
5, 75840, Note_on_c, 0, 50, 110
5, 75840, Note_on_c, 0, 38, 110
5, 76028, Note_on_c, 0, 38, 0
5, 76028, Note_on_c, 0, 50, 0
5, 76032, Note_on_c, 0, 50, 110
5, 76032, Note_on_c, 0, 38, 110
5, 76220, Note_on_c, 0, 38, 0
5, 76220, Note_on_c, 0, 50, 0
5, 76224, Note_on_c, 0, 50, 110
5, 76224, Note_on_c, 0, 38, 110
5, 76412, Note_on_c, 0, 38, 0
5, 76412, Note_on_c, 0, 50, 0
5, 76416, Note_on_c, 0, 50, 110
5, 76416, Note_on_c, 0, 38, 110
5, 76604, Note_on_c, 0, 38, 0
5, 76604, Note_on_c, 0, 50, 0
5, 76608, Note_on_c, 0, 50, 110
5, 76608, Note_on_c, 0, 38, 110
5, 76796, Note_on_c, 0, 38, 0
5, 76796, Note_on_c, 0, 50, 0
5, 76800, Note_on_c, 0, 51, 110
5, 76800, Note_on_c, 0, 39, 110
5, 76988, Note_on_c, 0, 39, 0
5, 76988, Note_on_c, 0, 51, 0
5, 76992, Note_on_c, 0, 51, 110
5, 76992, Note_on_c, 0, 39, 110
5, 77180, Note_on_c, 0, 39, 0
5, 77180, Note_on_c, 0, 51, 0
5, 77184, Note_on_c, 0, 51, 110
5, 77184, Note_on_c, 0, 39, 110
5, 77372, Note_on_c, 0, 39, 0
5, 77372, Note_on_c, 0, 51, 0
5, 77376, Note_on_c, 0, 51, 110
5, 77376, Note_on_c, 0, 39, 110
5, 77564, Note_on_c, 0, 39, 0
5, 77564, Note_on_c, 0, 51, 0
5, 77568, Note_on_c, 0, 51, 110
5, 77568, Note_on_c, 0, 39, 110
5, 77756, Note_on_c, 0, 39, 0
5, 77756, Note_on_c, 0, 51, 0
5, 77760, Note_on_c, 0, 51, 110
5, 77760, Note_on_c, 0, 39, 110
5, 77948, Note_on_c, 0, 39, 0
5, 77948, Note_on_c, 0, 51, 0
5, 77952, Note_on_c, 0, 51, 110
5, 77952, Note_on_c, 0, 39, 110
5, 78140, Note_on_c, 0, 39, 0
5, 78140, Note_on_c, 0, 51, 0
5, 78144, Note_on_c, 0, 51, 110
5, 78144, Note_on_c, 0, 39, 110
5, 78332, Note_on_c, 0, 39, 0
5, 78332, Note_on_c, 0, 51, 0
5, 78336, Note_on_c, 0, 55, 110
5, 78336, Note_on_c, 0, 43, 110
5, 78524, Note_on_c, 0, 43, 0
5, 78524, Note_on_c, 0, 55, 0
5, 78528, Note_on_c, 0, 55, 110
5, 78528, Note_on_c, 0, 43, 110
5, 78716, Note_on_c, 0, 43, 0
5, 78716, Note_on_c, 0, 55, 0
5, 78720, Note_on_c, 0, 55, 110
5, 78720, Note_on_c, 0, 43, 110
5, 78908, Note_on_c, 0, 43, 0
5, 78908, Note_on_c, 0, 55, 0
5, 78912, Note_on_c, 0, 55, 110
5, 78912, Note_on_c, 0, 43, 110
5, 79100, Note_on_c, 0, 43, 0
5, 79100, Note_on_c, 0, 55, 0
5, 79104, Note_on_c, 0, 55, 110
5, 79104, Note_on_c, 0, 43, 110
5, 79292, Note_on_c, 0, 43, 0
5, 79292, Note_on_c, 0, 55, 0
5, 79296, Note_on_c, 0, 55, 110
5, 79296, Note_on_c, 0, 43, 110
5, 79484, Note_on_c, 0, 43, 0
5, 79484, Note_on_c, 0, 55, 0
5, 79488, Note_on_c, 0, 55, 110
5, 79488, Note_on_c, 0, 43, 110
5, 79676, Note_on_c, 0, 43, 0
5, 79676, Note_on_c, 0, 55, 0
5, 79680, Note_on_c, 0, 55, 110
5, 79680, Note_on_c, 0, 43, 110
5, 79868, Note_on_c, 0, 43, 0
5, 79868, Note_on_c, 0, 55, 0
5, 79872, Note_on_c, 0, 53, 110
5, 79872, Note_on_c, 0, 41, 110
5, 80060, Note_on_c, 0, 41, 0
5, 80060, Note_on_c, 0, 53, 0
5, 80064, Note_on_c, 0, 53, 110
5, 80064, Note_on_c, 0, 41, 110
5, 80252, Note_on_c, 0, 41, 0
5, 80252, Note_on_c, 0, 53, 0
5, 80256, Note_on_c, 0, 41, 110
5, 80256, Note_on_c, 0, 53, 110
5, 80444, Note_on_c, 0, 53, 0
5, 80444, Note_on_c, 0, 41, 0
5, 80448, Note_on_c, 0, 53, 110
5, 80448, Note_on_c, 0, 41, 110
5, 80636, Note_on_c, 0, 41, 0
5, 80636, Note_on_c, 0, 53, 0
5, 80640, Note_on_c, 0, 53, 110
5, 80640, Note_on_c, 0, 41, 110
5, 80828, Note_on_c, 0, 41, 0
5, 80828, Note_on_c, 0, 53, 0
5, 80832, Note_on_c, 0, 53, 110
5, 80832, Note_on_c, 0, 41, 110
5, 81020, Note_on_c, 0, 41, 0
5, 81020, Note_on_c, 0, 53, 0
5, 81024, Note_on_c, 0, 53, 110
5, 81024, Note_on_c, 0, 41, 110
5, 81212, Note_on_c, 0, 41, 0
5, 81212, Note_on_c, 0, 53, 0
5, 81216, Note_on_c, 0, 53, 110
5, 81216, Note_on_c, 0, 41, 110
5, 81404, Note_on_c, 0, 41, 0
5, 81404, Note_on_c, 0, 53, 0
5, 81408, Note_on_c, 0, 46, 110
5, 81788, Note_on_c, 0, 46, 0
5, 81792, Note_on_c, 0, 58, 87
5, 81980, Note_on_c, 0, 58, 0
5, 81984, Note_on_c, 0, 62, 87
5, 82172, Note_on_c, 0, 62, 0
5, 82176, Note_on_c, 0, 65, 87
5, 82364, Note_on_c, 0, 65, 0
5, 82368, Note_on_c, 0, 65, 87
5, 82556, Note_on_c, 0, 65, 0
5, 82560, Note_on_c, 0, 58, 87
5, 82748, Note_on_c, 0, 58, 0
5, 82752, Note_on_c, 0, 62, 87
5, 82940, Note_on_c, 0, 62, 0
5, 82944, Note_on_c, 0, 65, 87
5, 83324, Note_on_c, 0, 65, 0
5, 83712, Note_on_c, 0, 60, 87
5, 83712, Note_on_c, 0, 63, 87
5, 83712, Note_on_c, 0, 53, 87
5, 84284, Note_on_c, 0, 53, 0
5, 84284, Note_on_c, 0, 63, 0
5, 84284, Note_on_c, 0, 60, 0
5, 84480, Note_on_c, 0, 58, 87
5, 84480, Note_on_c, 0, 62, 87
5, 84860, Note_on_c, 0, 62, 0
5, 84860, Note_on_c, 0, 58, 0
5, 84864, Note_on_c, 0, 46, 87
5, 84864, Note_on_c, 0, 58, 87
5, 85052, Note_on_c, 0, 58, 0
5, 85052, Note_on_c, 0, 46, 0
5, 85056, Note_on_c, 0, 50, 87
5, 85244, Note_on_c, 0, 50, 0
5, 85248, Note_on_c, 0, 53, 87
5, 85436, Note_on_c, 0, 53, 0
5, 85440, Note_on_c, 0, 53, 87
5, 85628, Note_on_c, 0, 53, 0
5, 85632, Note_on_c, 0, 46, 87
5, 85820, Note_on_c, 0, 46, 0
5, 85824, Note_on_c, 0, 50, 87
5, 86012, Note_on_c, 0, 50, 0
5, 86016, Note_on_c, 0, 53, 87
5, 86396, Note_on_c, 0, 53, 0
5, 86784, Note_on_c, 0, 53, 87
5, 86784, Note_on_c, 0, 60, 87
5, 86784, Note_on_c, 0, 63, 87
5, 87356, Note_on_c, 0, 63, 0
5, 87356, Note_on_c, 0, 60, 0
5, 87356, Note_on_c, 0, 53, 0
5, 87552, Note_on_c, 0, 58, 87
5, 87552, Note_on_c, 0, 62, 87
5, 88124, Note_on_c, 0, 62, 0
5, 88124, Note_on_c, 0, 58, 0
5, 88320, Note_on_c, 0, 53, 87
5, 88320, Note_on_c, 0, 60, 87
5, 88320, Note_on_c, 0, 63, 87
5, 88892, Note_on_c, 0, 63, 0
5, 88892, Note_on_c, 0, 60, 0
5, 88892, Note_on_c, 0, 53, 0
5, 89088, Note_on_c, 0, 58, 87
5, 89088, Note_on_c, 0, 62, 87
5, 89660, Note_on_c, 0, 62, 0
5, 89660, Note_on_c, 0, 58, 0
5, 89856, Note_on_c, 0, 53, 87
5, 89856, Note_on_c, 0, 60, 87
5, 89856, Note_on_c, 0, 63, 87
5, 90428, Note_on_c, 0, 63, 0
5, 90428, Note_on_c, 0, 60, 0
5, 90428, Note_on_c, 0, 53, 0
5, 90624, Note_on_c, 0, 58, 87
5, 90624, Note_on_c, 0, 62, 87
5, 91004, Note_on_c, 0, 62, 0
5, 91004, Note_on_c, 0, 58, 0
5, 93696, Note_on_c, 0, 46, 87
5, 93696, Note_on_c, 0, 34, 87
5, 94076, Note_on_c, 0, 34, 0
5, 94076, Note_on_c, 0, 46, 0
5, 99840, Note_on_c, 0, 58, 87
5, 99840, Note_on_c, 0, 50, 87
5, 99840, Note_on_c, 0, 46, 87
5, 99840, Note_on_c, 0, 34, 87
5, 100412, Note_on_c, 0, 50, 0
5, 100412, Note_on_c, 0, 58, 0
5, 100608, Note_on_c, 0, 60, 87
5, 100608, Note_on_c, 0, 57, 87
5, 100608, Note_on_c, 0, 51, 87
5, 100988, Note_on_c, 0, 46, 0
5, 100988, Note_on_c, 0, 34, 0
5, 101180, Note_on_c, 0, 57, 0
5, 101180, Note_on_c, 0, 60, 0
5, 101180, Note_on_c, 0, 51, 0
5, 101376, Note_on_c, 0, 46, 87
5, 101376, Note_on_c, 0, 34, 87
5, 101376, Note_on_c, 0, 62, 87
5, 101376, Note_on_c, 0, 58, 87
5, 101376, Note_on_c, 0, 53, 87
5, 101948, Note_on_c, 0, 53, 0
5, 101948, Note_on_c, 0, 62, 0
5, 101948, Note_on_c, 0, 58, 0
5, 102144, Note_on_c, 0, 63, 87
5, 102144, Note_on_c, 0, 57, 87
5, 102144, Note_on_c, 0, 53, 87
5, 102524, Note_on_c, 0, 53, 0
5, 102524, Note_on_c, 0, 63, 0
5, 102524, Note_on_c, 0, 46, 0
5, 102524, Note_on_c, 0, 34, 0
5, 102524, Note_on_c, 0, 57, 0
5, 102912, Note_on_c, 0, 46, 87
5, 102912, Note_on_c, 0, 34, 87
5, 103292, Note_on_c, 0, 34, 0
5, 103292, Note_on_c, 0, 46, 0
5, 106560, Note_on_c, 0, 41, 110
5, 106748, Note_on_c, 0, 41, 0
5, 106752, Note_on_c, 0, 50, 110
5, 106940, Note_on_c, 0, 50, 0
5, 106944, Note_on_c, 0, 46, 110
5, 107132, Note_on_c, 0, 46, 0
5, 107136, Note_on_c, 0, 41, 110
5, 107324, Note_on_c, 0, 41, 0
5, 107328, Note_on_c, 0, 38, 110
5, 107516, Note_on_c, 0, 38, 0
5, 107520, Note_on_c, 0, 46, 110
5, 107520, Note_on_c, 0, 34, 110
5, 107900, Note_on_c, 0, 34, 0
5, 107900, Note_on_c, 0, 46, 0
5, 110592, Note_on_c, 0, 46, 87
5, 110592, Note_on_c, 0, 34, 87
5, 110972, Note_on_c, 0, 34, 0
5, 110972, Note_on_c, 0, 46, 0
5, 111360, Note_on_c, 0, 46, 87
5, 111360, Note_on_c, 0, 34, 87
5, 111740, Note_on_c, 0, 34, 0
5, 111740, Note_on_c, 0, 46, 0
5, 112128, Note_on_c, 0, 46, 87
5, 112128, Note_on_c, 0, 34, 87
5, 112508, Note_on_c, 0, 34, 0
5, 112508, Note_on_c, 0, 46, 0
5, 112512, Note_on_c, 0, 46, 87
5, 112892, Note_on_c, 0, 46, 0
5, 112896, Note_on_c, 0, 46, 87
5, 112896, Note_on_c, 0, 34, 87
5, 113276, Note_on_c, 0, 34, 0
5, 113276, Note_on_c, 0, 46, 0
5, 116736, Note_on_c, 0, 53, 87
5, 116736, Note_on_c, 0, 41, 87
5, 117116, Note_on_c, 0, 41, 0
5, 117116, Note_on_c, 0, 53, 0
5, 117504, Note_on_c, 0, 53, 87
5, 117504, Note_on_c, 0, 41, 87
5, 117884, Note_on_c, 0, 41, 0
5, 117884, Note_on_c, 0, 53, 0
5, 118272, Note_on_c, 0, 53, 87
5, 118272, Note_on_c, 0, 41, 87
5, 118652, Note_on_c, 0, 41, 0
5, 118652, Note_on_c, 0, 53, 0
5, 122304, Note_on_c, 0, 60, 87
5, 122492, Note_on_c, 0, 60, 0
5, 122496, Note_on_c, 0, 63, 87
5, 122684, Note_on_c, 0, 63, 0
5, 122688, Note_on_c, 0, 64, 87
5, 122876, Note_on_c, 0, 64, 0
5, 122880, Note_on_c, 0, 65, 87
5, 123452, Note_on_c, 0, 65, 0
5, 123648, Note_on_c, 0, 65, 87
5, 123836, Note_on_c, 0, 65, 0
5, 123840, Note_on_c, 0, 62, 87
5, 124028, Note_on_c, 0, 62, 0
5, 124032, Note_on_c, 0, 63, 87
5, 124220, Note_on_c, 0, 63, 0
5, 124224, Note_on_c, 0, 64, 87
5, 124412, Note_on_c, 0, 64, 0
5, 124416, Note_on_c, 0, 65, 87
5, 124988, Note_on_c, 0, 65, 0
5, 125184, Note_on_c, 0, 65, 87
5, 125372, Note_on_c, 0, 65, 0
5, 125376, Note_on_c, 0, 62, 87
5, 125564, Note_on_c, 0, 62, 0
5, 125568, Note_on_c, 0, 63, 87
5, 125756, Note_on_c, 0, 63, 0
5, 125760, Note_on_c, 0, 64, 87
5, 125948, Note_on_c, 0, 64, 0
5, 125952, Note_on_c, 0, 65, 87
5, 127100, Note_on_c, 0, 65, 0
5, 127488, Note_on_c, 0, 65, 87
5, 128636, Note_on_c, 0, 65, 0
5, 129024, Note_on_c, 0, 65, 87
5, 129404, Note_on_c, 0, 65, 0
5, 133632, Note_on_c, 0, 46, 110
5, 133676, Note_on_c, 0, 46, 0
5, 133680, Note_on_c, 0, 48, 110
5, 133724, Note_on_c, 0, 48, 0
5, 133728, Note_on_c, 0, 46, 110
5, 133772, Note_on_c, 0, 46, 0
5, 133776, Note_on_c, 0, 48, 110
5, 133820, Note_on_c, 0, 48, 0
5, 133824, Note_on_c, 0, 46, 110
5, 133868, Note_on_c, 0, 46, 0
5, 133872, Note_on_c, 0, 48, 110
5, 133916, Note_on_c, 0, 48, 0
5, 133920, Note_on_c, 0, 46, 110
5, 133964, Note_on_c, 0, 46, 0
5, 133968, Note_on_c, 0, 48, 110
5, 134012, Note_on_c, 0, 48, 0
5, 134016, Note_on_c, 0, 46, 110
5, 134060, Note_on_c, 0, 46, 0
5, 134064, Note_on_c, 0, 48, 110
5, 134108, Note_on_c, 0, 48, 0
5, 134112, Note_on_c, 0, 46, 110
5, 134156, Note_on_c, 0, 46, 0
5, 134208, Note_on_c, 0, 45, 110
5, 134300, Note_on_c, 0, 45, 0
5, 134304, Note_on_c, 0, 46, 110
5, 134396, Note_on_c, 0, 46, 0
5, 134400, Note_on_c, 0, 50, 110
5, 134780, Note_on_c, 0, 50, 0
5, 134784, Note_on_c, 0, 54, 110
5, 134784, Note_on_c, 0, 42, 110
5, 135164, Note_on_c, 0, 42, 0
5, 135164, Note_on_c, 0, 54, 0
5, 135168, Note_on_c, 0, 55, 110
5, 135168, Note_on_c, 0, 43, 110
5, 135548, Note_on_c, 0, 43, 0
5, 135548, Note_on_c, 0, 55, 0
5, 141312, Note_on_c, 0, 53, 87
5, 141312, Note_on_c, 0, 41, 87
5, 142460, Note_on_c, 0, 41, 0
5, 142460, Note_on_c, 0, 53, 0
5, 142848, Note_on_c, 0, 55, 87
5, 142848, Note_on_c, 0, 43, 87
5, 143996, Note_on_c, 0, 43, 0
5, 143996, Note_on_c, 0, 55, 0
5, 144384, Note_on_c, 0, 48, 87
5, 144384, Note_on_c, 0, 36, 87
5, 145532, Note_on_c, 0, 36, 0
5, 145532, Note_on_c, 0, 48, 0
5, 145920, Note_on_c, 0, 53, 87
5, 145920, Note_on_c, 0, 41, 87
5, 146300, Note_on_c, 0, 41, 0
5, 146300, Note_on_c, 0, 53, 0
5, 151296, Note_on_c, 0, 50, 110
5, 151296, Note_on_c, 0, 38, 110
5, 151868, Note_on_c, 0, 38, 0
5, 151868, Note_on_c, 0, 50, 0
5, 152064, Note_on_c, 0, 48, 80
5, 152064, Note_on_c, 0, 36, 80
5, 152444, Note_on_c, 0, 36, 0
5, 152444, Note_on_c, 0, 48, 0
5, 154368, Note_on_c, 0, 50, 110
5, 154368, Note_on_c, 0, 38, 110
5, 154940, Note_on_c, 0, 38, 0
5, 154940, Note_on_c, 0, 50, 0
5, 155136, Note_on_c, 0, 48, 80
5, 155136, Note_on_c, 0, 36, 80
5, 155516, Note_on_c, 0, 36, 0
5, 155516, Note_on_c, 0, 48, 0
5, 158400, Note_on_c, 0, 60, 110
5, 158588, Note_on_c, 0, 60, 0
5, 158592, Note_on_c, 0, 64, 110
5, 158780, Note_on_c, 0, 64, 0
5, 158784, Note_on_c, 0, 60, 110
5, 158972, Note_on_c, 0, 60, 0
5, 158976, Note_on_c, 0, 55, 110
5, 159164, Note_on_c, 0, 55, 0
5, 159168, Note_on_c, 0, 60, 110
5, 159356, Note_on_c, 0, 60, 0
5, 159360, Note_on_c, 0, 52, 110
5, 159548, Note_on_c, 0, 52, 0
5, 159552, Note_on_c, 0, 55, 110
5, 159740, Note_on_c, 0, 55, 0
5, 159744, Note_on_c, 0, 48, 110
5, 160124, Note_on_c, 0, 48, 0
5, 167424, Note_on_c, 0, 48, 87
5, 167424, Note_on_c, 0, 36, 87
5, 168572, Note_on_c, 0, 36, 0
5, 168572, Note_on_c, 0, 48, 0
5, 168960, Note_on_c, 0, 48, 87
5, 168960, Note_on_c, 0, 36, 87
5, 169340, Note_on_c, 0, 36, 0
5, 169340, Note_on_c, 0, 48, 0
5, 173184, Note_on_c, 0, 64, 87
5, 173372, Note_on_c, 0, 64, 0
5, 173376, Note_on_c, 0, 63, 87
5, 173564, Note_on_c, 0, 63, 0
5, 173568, Note_on_c, 0, 60, 87
5, 173568, Note_on_c, 0, 53, 87
5, 173948, Note_on_c, 0, 53, 0
5, 173948, Note_on_c, 0, 60, 0
5, 175104, Note_on_c, 0, 60, 87
5, 175104, Note_on_c, 0, 53, 87
5, 175484, Note_on_c, 0, 53, 0
5, 175484, Note_on_c, 0, 60, 0
5, 176640, Note_on_c, 0, 58, 87
5, 176640, Note_on_c, 0, 53, 87
5, 177020, Note_on_c, 0, 53, 0
5, 177020, Note_on_c, 0, 58, 0
5, 178176, Note_on_c, 0, 60, 87
5, 178176, Note_on_c, 0, 53, 87
5, 178556, Note_on_c, 0, 53, 0
5, 178556, Note_on_c, 0, 60, 0
5, 179712, Note_on_c, 0, 62, 87
5, 179712, Note_on_c, 0, 50, 87
5, 180284, Note_on_c, 0, 50, 0
5, 180284, Note_on_c, 0, 62, 0
5, 180480, Note_on_c, 0, 55, 87
5, 180480, Note_on_c, 0, 43, 87
5, 180668, Note_on_c, 0, 43, 0
5, 180668, Note_on_c, 0, 55, 0
5, 181248, Note_on_c, 0, 60, 87
5, 181248, Note_on_c, 0, 48, 87
5, 181820, Note_on_c, 0, 48, 0
5, 181820, Note_on_c, 0, 60, 0
5, 182016, Note_on_c, 0, 53, 87
5, 182016, Note_on_c, 0, 41, 87
5, 182204, Note_on_c, 0, 41, 0
5, 182204, Note_on_c, 0, 53, 0
5, 183168, Note_on_c, 0, 58, 87
5, 183168, Note_on_c, 0, 46, 87
5, 183356, Note_on_c, 0, 46, 0
5, 183356, Note_on_c, 0, 58, 0
5, 183552, Note_on_c, 0, 48, 87
5, 183740, Note_on_c, 0, 48, 0
5, 183936, Note_on_c, 0, 48, 87
5, 183936, Note_on_c, 0, 36, 87
5, 184124, Note_on_c, 0, 36, 0
5, 184124, Note_on_c, 0, 48, 0
5, 184320, Note_on_c, 0, 53, 87
5, 184320, Note_on_c, 0, 41, 87
5, 184700, Note_on_c, 0, 41, 0
5, 184700, Note_on_c, 0, 53, 0
5, 195072, Note_on_c, 0, 53, 110
5, 195072, Note_on_c, 0, 60, 110
5, 195260, Note_on_c, 0, 60, 0
5, 195260, Note_on_c, 0, 53, 0
5, 195840, Note_on_c, 0, 60, 110
5, 195840, Note_on_c, 0, 48, 110
5, 196028, Note_on_c, 0, 48, 0
5, 196028, Note_on_c, 0, 60, 0
5, 196608, Note_on_c, 0, 57, 110
5, 196608, Note_on_c, 0, 50, 110
5, 196796, Note_on_c, 0, 50, 0
5, 196796, Note_on_c, 0, 57, 0
5, 197376, Note_on_c, 0, 57, 110
5, 197376, Note_on_c, 0, 45, 110
5, 197564, Note_on_c, 0, 45, 0
5, 197564, Note_on_c, 0, 57, 0
5, 198144, Note_on_c, 0, 53, 110
5, 198144, Note_on_c, 0, 46, 110
5, 198332, Note_on_c, 0, 46, 0
5, 198332, Note_on_c, 0, 53, 0
5, 198912, Note_on_c, 0, 53, 110
5, 198912, Note_on_c, 0, 41, 110
5, 199100, Note_on_c, 0, 41, 0
5, 199100, Note_on_c, 0, 53, 0
5, 199680, Note_on_c, 0, 43, 87
5, 199680, Note_on_c, 0, 31, 87
5, 200060, Note_on_c, 0, 31, 0
5, 200060, Note_on_c, 0, 43, 0
5, 200064, Note_on_c, 0, 46, 87
5, 200064, Note_on_c, 0, 34, 87
5, 200444, Note_on_c, 0, 34, 0
5, 200444, Note_on_c, 0, 46, 0
5, 200448, Note_on_c, 0, 48, 87
5, 200448, Note_on_c, 0, 36, 87
5, 200828, Note_on_c, 0, 36, 0
5, 200828, Note_on_c, 0, 48, 0
5, 200832, Note_on_c, 0, 52, 87
5, 200832, Note_on_c, 0, 40, 87
5, 201212, Note_on_c, 0, 40, 0
5, 201212, Note_on_c, 0, 52, 0
5, 201216, Note_on_c, 0, 53, 87
5, 201216, Note_on_c, 0, 41, 87
5, 201596, Note_on_c, 0, 41, 0
5, 201596, Note_on_c, 0, 53, 0
5, 201984, Note_on_c, 0, 45, 87
5, 201984, Note_on_c, 0, 33, 87
5, 202556, Note_on_c, 0, 33, 0
5, 202556, Note_on_c, 0, 45, 0
5, 202752, Note_on_c, 0, 46, 87
5, 202752, Note_on_c, 0, 34, 87
5, 203132, Note_on_c, 0, 34, 0
5, 203132, Note_on_c, 0, 46, 0
5, 203520, Note_on_c, 0, 46, 87
5, 203520, Note_on_c, 0, 34, 87
5, 204092, Note_on_c, 0, 34, 0
5, 204092, Note_on_c, 0, 46, 0
5, 204288, Note_on_c, 0, 47, 87
5, 204288, Note_on_c, 0, 35, 87
5, 204476, Note_on_c, 0, 35, 0
5, 204476, Note_on_c, 0, 47, 0
5, 205056, Note_on_c, 0, 47, 87
5, 205056, Note_on_c, 0, 35, 87
5, 205628, Note_on_c, 0, 35, 0
5, 205628, Note_on_c, 0, 47, 0
5, 205824, Note_on_c, 0, 48, 87
5, 205824, Note_on_c, 0, 36, 87
5, 206204, Note_on_c, 0, 36, 0
5, 206204, Note_on_c, 0, 48, 0
5, 207744, Note_on_c, 0, 60, 87
5, 207744, Note_on_c, 0, 48, 87
5, 208124, Note_on_c, 0, 48, 0
5, 208124, Note_on_c, 0, 60, 0
5, 208128, Note_on_c, 0, 57, 87
5, 208128, Note_on_c, 0, 45, 87
5, 208508, Note_on_c, 0, 45, 0
5, 208508, Note_on_c, 0, 57, 0
5, 208512, Note_on_c, 0, 53, 87
5, 208512, Note_on_c, 0, 41, 87
5, 208892, Note_on_c, 0, 41, 0
5, 208892, Note_on_c, 0, 53, 0
5, 208896, Note_on_c, 0, 48, 87
5, 208896, Note_on_c, 0, 36, 87
5, 209276, Note_on_c, 0, 36, 0
5, 209276, Note_on_c, 0, 48, 0
5, 210432, Note_on_c, 0, 48, 95
5, 210432, Note_on_c, 0, 36, 95
5, 210620, Note_on_c, 0, 36, 0
5, 210620, Note_on_c, 0, 48, 0
5, 210624, Note_on_c, 0, 48, 96
5, 210624, Note_on_c, 0, 36, 96
5, 210812, Note_on_c, 0, 36, 0
5, 210812, Note_on_c, 0, 48, 0
5, 210816, Note_on_c, 0, 48, 98
5, 210816, Note_on_c, 0, 36, 98
5, 211004, Note_on_c, 0, 36, 0
5, 211004, Note_on_c, 0, 48, 0
5, 211008, Note_on_c, 0, 48, 99
5, 211008, Note_on_c, 0, 36, 99
5, 211196, Note_on_c, 0, 36, 0
5, 211196, Note_on_c, 0, 48, 0
5, 211200, Note_on_c, 0, 48, 102
5, 211200, Note_on_c, 0, 36, 102
5, 211388, Note_on_c, 0, 36, 0
5, 211388, Note_on_c, 0, 48, 0
5, 211392, Note_on_c, 0, 48, 104
5, 211392, Note_on_c, 0, 36, 104
5, 211580, Note_on_c, 0, 36, 0
5, 211580, Note_on_c, 0, 48, 0
5, 211584, Note_on_c, 0, 48, 105
5, 211584, Note_on_c, 0, 36, 105
5, 211772, Note_on_c, 0, 36, 0
5, 211772, Note_on_c, 0, 48, 0
5, 211776, Note_on_c, 0, 48, 107
5, 211776, Note_on_c, 0, 36, 107
5, 211964, Note_on_c, 0, 36, 0
5, 211964, Note_on_c, 0, 48, 0
5, 211968, Note_on_c, 0, 53, 110
5, 211968, Note_on_c, 0, 41, 110
5, 212156, Note_on_c, 0, 41, 0
5, 212156, Note_on_c, 0, 53, 0
5, 212160, Note_on_c, 0, 53, 110
5, 212160, Note_on_c, 0, 41, 110
5, 212348, Note_on_c, 0, 41, 0
5, 212348, Note_on_c, 0, 53, 0
5, 212352, Note_on_c, 0, 41, 110
5, 212352, Note_on_c, 0, 53, 110
5, 212540, Note_on_c, 0, 53, 0
5, 212540, Note_on_c, 0, 41, 0
5, 212544, Note_on_c, 0, 53, 110
5, 212544, Note_on_c, 0, 41, 110
5, 212732, Note_on_c, 0, 41, 0
5, 212732, Note_on_c, 0, 53, 0
5, 212736, Note_on_c, 0, 53, 110
5, 212736, Note_on_c, 0, 41, 110
5, 212924, Note_on_c, 0, 41, 0
5, 212924, Note_on_c, 0, 53, 0
5, 212928, Note_on_c, 0, 53, 110
5, 212928, Note_on_c, 0, 41, 110
5, 213116, Note_on_c, 0, 41, 0
5, 213116, Note_on_c, 0, 53, 0
5, 213120, Note_on_c, 0, 53, 110
5, 213120, Note_on_c, 0, 41, 110
5, 213308, Note_on_c, 0, 41, 0
5, 213308, Note_on_c, 0, 53, 0
5, 213312, Note_on_c, 0, 53, 110
5, 213312, Note_on_c, 0, 41, 110
5, 213500, Note_on_c, 0, 41, 0
5, 213500, Note_on_c, 0, 53, 0
5, 213504, Note_on_c, 0, 55, 110
5, 213504, Note_on_c, 0, 43, 110
5, 213692, Note_on_c, 0, 43, 0
5, 213692, Note_on_c, 0, 55, 0
5, 213696, Note_on_c, 0, 55, 110
5, 213696, Note_on_c, 0, 43, 110
5, 213884, Note_on_c, 0, 43, 0
5, 213884, Note_on_c, 0, 55, 0
5, 213888, Note_on_c, 0, 58, 110
5, 213888, Note_on_c, 0, 46, 110
5, 214076, Note_on_c, 0, 46, 0
5, 214076, Note_on_c, 0, 58, 0
5, 214080, Note_on_c, 0, 57, 110
5, 214080, Note_on_c, 0, 45, 110
5, 214268, Note_on_c, 0, 45, 0
5, 214268, Note_on_c, 0, 57, 0
5, 214272, Note_on_c, 0, 55, 110
5, 214272, Note_on_c, 0, 43, 110
5, 214460, Note_on_c, 0, 43, 0
5, 214460, Note_on_c, 0, 55, 0
5, 214464, Note_on_c, 0, 53, 110
5, 214464, Note_on_c, 0, 41, 110
5, 214652, Note_on_c, 0, 41, 0
5, 214652, Note_on_c, 0, 53, 0
5, 214656, Note_on_c, 0, 52, 110
5, 214656, Note_on_c, 0, 40, 110
5, 214844, Note_on_c, 0, 40, 0
5, 214844, Note_on_c, 0, 52, 0
5, 214848, Note_on_c, 0, 50, 110
5, 214848, Note_on_c, 0, 38, 110
5, 215036, Note_on_c, 0, 38, 0
5, 215036, Note_on_c, 0, 50, 0
5, 215040, Note_on_c, 0, 48, 110
5, 215040, Note_on_c, 0, 36, 110
5, 215228, Note_on_c, 0, 36, 0
5, 215228, Note_on_c, 0, 48, 0
5, 215232, Note_on_c, 0, 36, 110
5, 215232, Note_on_c, 0, 48, 110
5, 215420, Note_on_c, 0, 48, 0
5, 215420, Note_on_c, 0, 36, 0
5, 215424, Note_on_c, 0, 36, 110
5, 215424, Note_on_c, 0, 48, 110
5, 215612, Note_on_c, 0, 48, 0
5, 215612, Note_on_c, 0, 36, 0
5, 215616, Note_on_c, 0, 36, 110
5, 215616, Note_on_c, 0, 48, 110
5, 215804, Note_on_c, 0, 48, 0
5, 215804, Note_on_c, 0, 36, 0
5, 215808, Note_on_c, 0, 48, 110
5, 215808, Note_on_c, 0, 36, 110
5, 215996, Note_on_c, 0, 36, 0
5, 215996, Note_on_c, 0, 48, 0
5, 216000, Note_on_c, 0, 48, 110
5, 216000, Note_on_c, 0, 36, 110
5, 216188, Note_on_c, 0, 36, 0
5, 216188, Note_on_c, 0, 48, 0
5, 216192, Note_on_c, 0, 46, 110
5, 216192, Note_on_c, 0, 34, 110
5, 216380, Note_on_c, 0, 34, 0
5, 216380, Note_on_c, 0, 46, 0
5, 216384, Note_on_c, 0, 34, 110
5, 216384, Note_on_c, 0, 46, 110
5, 216572, Note_on_c, 0, 46, 0
5, 216572, Note_on_c, 0, 34, 0
5, 216576, Note_on_c, 0, 45, 110
5, 216576, Note_on_c, 0, 33, 110
5, 216764, Note_on_c, 0, 33, 0
5, 216764, Note_on_c, 0, 45, 0
5, 216768, Note_on_c, 0, 41, 110
5, 216768, Note_on_c, 0, 53, 110
5, 216956, Note_on_c, 0, 53, 0
5, 216956, Note_on_c, 0, 41, 0
5, 216960, Note_on_c, 0, 57, 110
5, 216960, Note_on_c, 0, 45, 110
5, 217148, Note_on_c, 0, 45, 0
5, 217148, Note_on_c, 0, 57, 0
5, 217152, Note_on_c, 0, 53, 110
5, 217152, Note_on_c, 0, 41, 110
5, 217340, Note_on_c, 0, 41, 0
5, 217340, Note_on_c, 0, 53, 0
5, 217344, Note_on_c, 0, 48, 110
5, 217344, Note_on_c, 0, 36, 110
5, 217532, Note_on_c, 0, 36, 0
5, 217532, Note_on_c, 0, 48, 0
5, 217536, Note_on_c, 0, 53, 110
5, 217536, Note_on_c, 0, 41, 110
5, 217724, Note_on_c, 0, 41, 0
5, 217724, Note_on_c, 0, 53, 0
5, 217728, Note_on_c, 0, 45, 110
5, 217728, Note_on_c, 0, 33, 110
5, 217916, Note_on_c, 0, 33, 0
5, 217916, Note_on_c, 0, 45, 0
5, 217920, Note_on_c, 0, 48, 110
5, 217920, Note_on_c, 0, 36, 110
5, 218108, Note_on_c, 0, 36, 0
5, 218108, Note_on_c, 0, 48, 0
5, 218112, Note_on_c, 0, 41, 110
5, 218112, Note_on_c, 0, 29, 110
5, 218300, Note_on_c, 0, 29, 0
5, 218300, Note_on_c, 0, 41, 0
5, 218304, Note_on_c, 0, 29, 110
5, 218304, Note_on_c, 0, 41, 110
5, 218492, Note_on_c, 0, 41, 0
5, 218492, Note_on_c, 0, 29, 0
5, 218496, Note_on_c, 0, 41, 110
5, 218496, Note_on_c, 0, 29, 110
5, 218684, Note_on_c, 0, 29, 0
5, 218684, Note_on_c, 0, 41, 0
5, 218688, Note_on_c, 0, 41, 110
5, 218688, Note_on_c, 0, 29, 110
5, 218876, Note_on_c, 0, 29, 0
5, 218876, Note_on_c, 0, 41, 0
5, 218880, Note_on_c, 0, 45, 110
5, 218880, Note_on_c, 0, 33, 110
5, 219068, Note_on_c, 0, 33, 0
5, 219068, Note_on_c, 0, 45, 0
5, 219072, Note_on_c, 0, 45, 110
5, 219072, Note_on_c, 0, 33, 110
5, 219260, Note_on_c, 0, 33, 0
5, 219260, Note_on_c, 0, 45, 0
5, 219264, Note_on_c, 0, 45, 110
5, 219264, Note_on_c, 0, 33, 110
5, 219452, Note_on_c, 0, 33, 0
5, 219452, Note_on_c, 0, 45, 0
5, 219456, Note_on_c, 0, 33, 110
5, 219456, Note_on_c, 0, 45, 110
5, 219644, Note_on_c, 0, 45, 0
5, 219644, Note_on_c, 0, 33, 0
5, 219648, Note_on_c, 0, 46, 110
5, 219648, Note_on_c, 0, 34, 110
5, 219836, Note_on_c, 0, 34, 0
5, 219836, Note_on_c, 0, 46, 0
5, 219840, Note_on_c, 0, 46, 110
5, 219840, Note_on_c, 0, 34, 110
5, 220028, Note_on_c, 0, 34, 0
5, 220028, Note_on_c, 0, 46, 0
5, 220032, Note_on_c, 0, 46, 110
5, 220032, Note_on_c, 0, 34, 110
5, 220220, Note_on_c, 0, 34, 0
5, 220220, Note_on_c, 0, 46, 0
5, 220224, Note_on_c, 0, 46, 110
5, 220224, Note_on_c, 0, 34, 110
5, 220412, Note_on_c, 0, 34, 0
5, 220412, Note_on_c, 0, 46, 0
5, 220416, Note_on_c, 0, 46, 110
5, 220416, Note_on_c, 0, 34, 110
5, 220604, Note_on_c, 0, 34, 0
5, 220604, Note_on_c, 0, 46, 0
5, 220608, Note_on_c, 0, 46, 110
5, 220608, Note_on_c, 0, 34, 110
5, 220796, Note_on_c, 0, 34, 0
5, 220796, Note_on_c, 0, 46, 0
5, 220800, Note_on_c, 0, 46, 110
5, 220800, Note_on_c, 0, 34, 110
5, 220988, Note_on_c, 0, 34, 0
5, 220988, Note_on_c, 0, 46, 0
5, 220992, Note_on_c, 0, 46, 110
5, 220992, Note_on_c, 0, 34, 110
5, 221180, Note_on_c, 0, 34, 0
5, 221180, Note_on_c, 0, 46, 0
5, 221184, Note_on_c, 0, 50, 110
5, 221184, Note_on_c, 0, 38, 110
5, 221372, Note_on_c, 0, 38, 0
5, 221372, Note_on_c, 0, 50, 0
5, 221376, Note_on_c, 0, 50, 110
5, 221376, Note_on_c, 0, 38, 110
5, 221564, Note_on_c, 0, 38, 0
5, 221564, Note_on_c, 0, 50, 0
5, 221568, Note_on_c, 0, 50, 110
5, 221568, Note_on_c, 0, 38, 110
5, 221756, Note_on_c, 0, 38, 0
5, 221756, Note_on_c, 0, 50, 0
5, 221760, Note_on_c, 0, 38, 110
5, 221760, Note_on_c, 0, 50, 110
5, 221948, Note_on_c, 0, 50, 0
5, 221948, Note_on_c, 0, 38, 0
5, 221952, Note_on_c, 0, 50, 110
5, 221952, Note_on_c, 0, 38, 110
5, 222140, Note_on_c, 0, 38, 0
5, 222140, Note_on_c, 0, 50, 0
5, 222144, Note_on_c, 0, 38, 110
5, 222144, Note_on_c, 0, 50, 110
5, 222332, Note_on_c, 0, 50, 0
5, 222332, Note_on_c, 0, 38, 0
5, 222336, Note_on_c, 0, 50, 110
5, 222336, Note_on_c, 0, 38, 110
5, 222524, Note_on_c, 0, 38, 0
5, 222524, Note_on_c, 0, 50, 0
5, 222528, Note_on_c, 0, 50, 110
5, 222528, Note_on_c, 0, 38, 110
5, 222716, Note_on_c, 0, 38, 0
5, 222716, Note_on_c, 0, 50, 0
5, 222720, Note_on_c, 0, 48, 110
5, 222720, Note_on_c, 0, 36, 110
5, 222908, Note_on_c, 0, 36, 0
5, 222908, Note_on_c, 0, 48, 0
5, 222912, Note_on_c, 0, 36, 110
5, 222912, Note_on_c, 0, 48, 110
5, 223100, Note_on_c, 0, 48, 0
5, 223100, Note_on_c, 0, 36, 0
5, 223104, Note_on_c, 0, 48, 110
5, 223104, Note_on_c, 0, 36, 110
5, 223292, Note_on_c, 0, 36, 0
5, 223292, Note_on_c, 0, 48, 0
5, 223296, Note_on_c, 0, 48, 110
5, 223296, Note_on_c, 0, 36, 110
5, 223484, Note_on_c, 0, 36, 0
5, 223484, Note_on_c, 0, 48, 0
5, 223488, Note_on_c, 0, 48, 110
5, 223488, Note_on_c, 0, 36, 110
5, 223676, Note_on_c, 0, 36, 0
5, 223676, Note_on_c, 0, 48, 0
5, 223680, Note_on_c, 0, 48, 110
5, 223680, Note_on_c, 0, 36, 110
5, 223868, Note_on_c, 0, 36, 0
5, 223868, Note_on_c, 0, 48, 0
5, 223872, Note_on_c, 0, 36, 110
5, 223872, Note_on_c, 0, 48, 110
5, 224060, Note_on_c, 0, 48, 0
5, 224060, Note_on_c, 0, 36, 0
5, 224064, Note_on_c, 0, 48, 110
5, 224064, Note_on_c, 0, 36, 110
5, 224252, Note_on_c, 0, 36, 0
5, 224252, Note_on_c, 0, 48, 0
5, 224256, Note_on_c, 0, 45, 110
5, 224256, Note_on_c, 0, 33, 110
5, 224444, Note_on_c, 0, 33, 0
5, 224444, Note_on_c, 0, 45, 0
5, 224448, Note_on_c, 0, 45, 110
5, 224448, Note_on_c, 0, 33, 110
5, 224636, Note_on_c, 0, 33, 0
5, 224636, Note_on_c, 0, 45, 0
5, 224640, Note_on_c, 0, 45, 110
5, 224640, Note_on_c, 0, 33, 110
5, 224828, Note_on_c, 0, 33, 0
5, 224828, Note_on_c, 0, 45, 0
5, 224832, Note_on_c, 0, 45, 110
5, 224832, Note_on_c, 0, 33, 110
5, 225020, Note_on_c, 0, 33, 0
5, 225020, Note_on_c, 0, 45, 0
5, 225024, Note_on_c, 0, 45, 110
5, 225024, Note_on_c, 0, 57, 110
5, 225212, Note_on_c, 0, 57, 0
5, 225212, Note_on_c, 0, 45, 0
5, 225216, Note_on_c, 0, 45, 110
5, 225216, Note_on_c, 0, 57, 110
5, 225404, Note_on_c, 0, 57, 0
5, 225404, Note_on_c, 0, 45, 0
5, 225408, Note_on_c, 0, 45, 110
5, 225408, Note_on_c, 0, 57, 110
5, 225596, Note_on_c, 0, 57, 0
5, 225596, Note_on_c, 0, 45, 0
5, 225600, Note_on_c, 0, 45, 110
5, 225600, Note_on_c, 0, 57, 110
5, 225788, Note_on_c, 0, 57, 0
5, 225788, Note_on_c, 0, 45, 0
5, 225792, Note_on_c, 0, 58, 110
5, 225792, Note_on_c, 0, 46, 110
5, 225980, Note_on_c, 0, 46, 0
5, 225980, Note_on_c, 0, 58, 0
5, 225984, Note_on_c, 0, 46, 110
5, 225984, Note_on_c, 0, 58, 110
5, 226172, Note_on_c, 0, 58, 0
5, 226172, Note_on_c, 0, 46, 0
5, 226176, Note_on_c, 0, 58, 110
5, 226176, Note_on_c, 0, 46, 110
5, 226364, Note_on_c, 0, 46, 0
5, 226364, Note_on_c, 0, 58, 0
5, 226368, Note_on_c, 0, 58, 110
5, 226368, Note_on_c, 0, 46, 110
5, 226556, Note_on_c, 0, 46, 0
5, 226556, Note_on_c, 0, 58, 0
5, 226560, Note_on_c, 0, 58, 110
5, 226560, Note_on_c, 0, 46, 110
5, 226748, Note_on_c, 0, 46, 0
5, 226748, Note_on_c, 0, 58, 0
5, 226752, Note_on_c, 0, 58, 110
5, 226752, Note_on_c, 0, 46, 110
5, 226940, Note_on_c, 0, 46, 0
5, 226940, Note_on_c, 0, 58, 0
5, 226944, Note_on_c, 0, 58, 110
5, 226944, Note_on_c, 0, 46, 110
5, 227132, Note_on_c, 0, 46, 0
5, 227132, Note_on_c, 0, 58, 0
5, 227136, Note_on_c, 0, 58, 110
5, 227136, Note_on_c, 0, 46, 110
5, 227324, Note_on_c, 0, 46, 0
5, 227324, Note_on_c, 0, 58, 0
5, 227328, Note_on_c, 0, 62, 110
5, 227328, Note_on_c, 0, 50, 110
5, 227516, Note_on_c, 0, 50, 0
5, 227516, Note_on_c, 0, 62, 0
5, 227520, Note_on_c, 0, 62, 110
5, 227520, Note_on_c, 0, 50, 110
5, 227708, Note_on_c, 0, 50, 0
5, 227708, Note_on_c, 0, 62, 0
5, 227712, Note_on_c, 0, 62, 110
5, 227712, Note_on_c, 0, 50, 110
5, 227900, Note_on_c, 0, 50, 0
5, 227900, Note_on_c, 0, 62, 0
5, 227904, Note_on_c, 0, 62, 110
5, 227904, Note_on_c, 0, 50, 110
5, 228092, Note_on_c, 0, 50, 0
5, 228092, Note_on_c, 0, 62, 0
5, 228096, Note_on_c, 0, 62, 110
5, 228096, Note_on_c, 0, 50, 110
5, 228284, Note_on_c, 0, 50, 0
5, 228284, Note_on_c, 0, 62, 0
5, 228288, Note_on_c, 0, 62, 110
5, 228288, Note_on_c, 0, 50, 110
5, 228476, Note_on_c, 0, 50, 0
5, 228476, Note_on_c, 0, 62, 0
5, 228480, Note_on_c, 0, 62, 110
5, 228480, Note_on_c, 0, 50, 110
5, 228668, Note_on_c, 0, 50, 0
5, 228668, Note_on_c, 0, 62, 0
5, 228672, Note_on_c, 0, 62, 110
5, 228672, Note_on_c, 0, 50, 110
5, 228860, Note_on_c, 0, 50, 0
5, 228860, Note_on_c, 0, 62, 0
5, 228864, Note_on_c, 0, 60, 110
5, 228864, Note_on_c, 0, 48, 110
5, 229052, Note_on_c, 0, 48, 0
5, 229052, Note_on_c, 0, 60, 0
5, 229056, Note_on_c, 0, 60, 110
5, 229056, Note_on_c, 0, 48, 110
5, 229244, Note_on_c, 0, 48, 0
5, 229244, Note_on_c, 0, 60, 0
5, 229248, Note_on_c, 0, 60, 110
5, 229248, Note_on_c, 0, 48, 110
5, 229436, Note_on_c, 0, 48, 0
5, 229436, Note_on_c, 0, 60, 0
5, 229440, Note_on_c, 0, 60, 110
5, 229440, Note_on_c, 0, 48, 110
5, 229628, Note_on_c, 0, 48, 0
5, 229628, Note_on_c, 0, 60, 0
5, 229632, Note_on_c, 0, 48, 110
5, 229632, Note_on_c, 0, 36, 110
5, 229820, Note_on_c, 0, 36, 0
5, 229820, Note_on_c, 0, 48, 0
5, 229824, Note_on_c, 0, 48, 110
5, 229824, Note_on_c, 0, 36, 110
5, 230012, Note_on_c, 0, 36, 0
5, 230012, Note_on_c, 0, 48, 0
5, 230016, Note_on_c, 0, 36, 110
5, 230016, Note_on_c, 0, 48, 110
5, 230204, Note_on_c, 0, 48, 0
5, 230204, Note_on_c, 0, 36, 0
5, 230208, Note_on_c, 0, 48, 110
5, 230208, Note_on_c, 0, 36, 110
5, 230396, Note_on_c, 0, 36, 0
5, 230396, Note_on_c, 0, 48, 0
5, 230400, Note_on_c, 0, 53, 110
5, 230400, Note_on_c, 0, 41, 110
5, 230780, Note_on_c, 0, 41, 0
5, 230780, Note_on_c, 0, 53, 0
5, 230784, Note_on_c, 0, 53, 87
5, 230972, Note_on_c, 0, 53, 0
5, 230976, Note_on_c, 0, 57, 87
5, 231164, Note_on_c, 0, 57, 0
5, 231168, Note_on_c, 0, 60, 87
5, 231356, Note_on_c, 0, 60, 0
5, 231360, Note_on_c, 0, 60, 87
5, 231548, Note_on_c, 0, 60, 0
5, 231552, Note_on_c, 0, 53, 87
5, 231740, Note_on_c, 0, 53, 0
5, 231744, Note_on_c, 0, 57, 87
5, 231932, Note_on_c, 0, 57, 0
5, 231936, Note_on_c, 0, 60, 87
5, 232124, Note_on_c, 0, 60, 0
5, 233856, Note_on_c, 0, 41, 87
5, 234044, Note_on_c, 0, 41, 0
5, 234048, Note_on_c, 0, 45, 87
5, 234236, Note_on_c, 0, 45, 0
5, 234240, Note_on_c, 0, 48, 87
5, 234428, Note_on_c, 0, 48, 0
5, 234432, Note_on_c, 0, 48, 87
5, 234620, Note_on_c, 0, 48, 0
5, 234624, Note_on_c, 0, 41, 87
5, 234812, Note_on_c, 0, 41, 0
5, 234816, Note_on_c, 0, 45, 87
5, 235004, Note_on_c, 0, 45, 0
5, 235008, Note_on_c, 0, 48, 87
5, 235388, Note_on_c, 0, 48, 0
5, 235776, Note_on_c, 0, 58, 87
5, 235776, Note_on_c, 0, 48, 87
5, 235776, Note_on_c, 0, 55, 87
5, 236348, Note_on_c, 0, 55, 0
5, 236348, Note_on_c, 0, 48, 0
5, 236348, Note_on_c, 0, 58, 0
5, 236544, Note_on_c, 0, 57, 87
5, 236544, Note_on_c, 0, 53, 87
5, 237116, Note_on_c, 0, 53, 0
5, 237116, Note_on_c, 0, 57, 0
5, 237312, Note_on_c, 0, 55, 87
5, 237312, Note_on_c, 0, 48, 87
5, 237312, Note_on_c, 0, 58, 87
5, 237884, Note_on_c, 0, 58, 0
5, 237884, Note_on_c, 0, 48, 0
5, 237884, Note_on_c, 0, 55, 0
5, 238080, Note_on_c, 0, 57, 87
5, 238080, Note_on_c, 0, 53, 87
5, 238460, Note_on_c, 0, 53, 0
5, 238460, Note_on_c, 0, 57, 0
5, 258432, Note_on_c, 0, 48, 87
5, 258432, Note_on_c, 0, 52, 87
5, 258812, Note_on_c, 0, 52, 0
5, 258812, Note_on_c, 0, 48, 0
5, 258816, Note_on_c, 0, 60, 87
5, 258816, Note_on_c, 0, 64, 87
5, 259196, Note_on_c, 0, 64, 0
5, 259196, Note_on_c, 0, 60, 0
5, 259200, Note_on_c, 0, 60, 87
5, 259200, Note_on_c, 0, 64, 87
5, 259580, Note_on_c, 0, 64, 0
5, 259580, Note_on_c, 0, 60, 0
5, 259584, Note_on_c, 0, 53, 87
5, 259584, Note_on_c, 0, 65, 87
5, 259964, Note_on_c, 0, 65, 0
5, 259964, Note_on_c, 0, 53, 0
5, 261504, Note_on_c, 0, 46, 87
5, 261504, Note_on_c, 0, 50, 87
5, 261884, Note_on_c, 0, 50, 0
5, 261884, Note_on_c, 0, 46, 0
5, 261888, Note_on_c, 0, 58, 87
5, 261888, Note_on_c, 0, 62, 87
5, 262268, Note_on_c, 0, 62, 0
5, 262268, Note_on_c, 0, 58, 0
5, 262272, Note_on_c, 0, 58, 87
5, 262272, Note_on_c, 0, 62, 87
5, 262652, Note_on_c, 0, 62, 0
5, 262652, Note_on_c, 0, 58, 0
5, 262656, Note_on_c, 0, 51, 87
5, 262656, Note_on_c, 0, 39, 87
5, 263036, Note_on_c, 0, 39, 0
5, 263036, Note_on_c, 0, 51, 0
5, 263040, Note_on_c, 0, 51, 87
5, 263420, Note_on_c, 0, 51, 0
5, 263424, Note_on_c, 0, 58, 87
5, 263804, Note_on_c, 0, 58, 0
5, 263808, Note_on_c, 0, 55, 87
5, 264188, Note_on_c, 0, 55, 0
5, 264192, Note_on_c, 0, 51, 87
5, 264572, Note_on_c, 0, 51, 0
5, 264576, Note_on_c, 0, 46, 87
5, 264956, Note_on_c, 0, 46, 0
5, 264960, Note_on_c, 0, 43, 87
5, 265340, Note_on_c, 0, 43, 0
5, 265344, Note_on_c, 0, 39, 87
5, 265724, Note_on_c, 0, 39, 0
5, 265728, Note_on_c, 0, 46, 87
5, 266108, Note_on_c, 0, 46, 0
5, 266112, Note_on_c, 0, 58, 87
5, 266112, Note_on_c, 0, 46, 87
5, 266492, Note_on_c, 0, 46, 0
5, 266492, Note_on_c, 0, 58, 0
5, 266496, Note_on_c, 0, 65, 87
5, 266496, Note_on_c, 0, 53, 87
5, 266876, Note_on_c, 0, 53, 0
5, 266876, Note_on_c, 0, 65, 0
5, 266880, Note_on_c, 0, 50, 87
5, 266880, Note_on_c, 0, 62, 87
5, 267260, Note_on_c, 0, 62, 0
5, 267260, Note_on_c, 0, 50, 0
5, 267264, Note_on_c, 0, 58, 87
5, 267264, Note_on_c, 0, 46, 87
5, 267644, Note_on_c, 0, 46, 0
5, 267644, Note_on_c, 0, 58, 0
5, 267648, Note_on_c, 0, 53, 87
5, 267648, Note_on_c, 0, 41, 87
5, 268028, Note_on_c, 0, 41, 0
5, 268028, Note_on_c, 0, 53, 0
5, 268032, Note_on_c, 0, 50, 87
5, 268032, Note_on_c, 0, 38, 87
5, 268412, Note_on_c, 0, 38, 0
5, 268412, Note_on_c, 0, 50, 0
5, 268416, Note_on_c, 0, 46, 87
5, 268416, Note_on_c, 0, 34, 87
5, 268796, Note_on_c, 0, 34, 0
5, 268796, Note_on_c, 0, 46, 0
5, 268800, Note_on_c, 0, 48, 87
5, 268800, Note_on_c, 0, 36, 87
5, 269180, Note_on_c, 0, 36, 0
5, 269180, Note_on_c, 0, 48, 0
5, 269184, Note_on_c, 0, 48, 87
5, 269564, Note_on_c, 0, 48, 0
5, 269568, Note_on_c, 0, 55, 87
5, 269948, Note_on_c, 0, 55, 0
5, 269952, Note_on_c, 0, 51, 87
5, 270332, Note_on_c, 0, 51, 0
5, 270336, Note_on_c, 0, 48, 87
5, 270716, Note_on_c, 0, 48, 0
5, 270720, Note_on_c, 0, 43, 87
5, 271100, Note_on_c, 0, 43, 0
5, 271104, Note_on_c, 0, 39, 87
5, 271484, Note_on_c, 0, 39, 0
5, 271488, Note_on_c, 0, 36, 87
5, 271872, Note_on_c, 0, 43, 87
5, 271876, Note_on_c, 0, 36, 0
5, 272252, Note_on_c, 0, 43, 0
5, 272256, Note_on_c, 0, 43, 87
5, 272256, Note_on_c, 0, 55, 87
5, 272636, Note_on_c, 0, 55, 0
5, 272636, Note_on_c, 0, 43, 0
5, 272640, Note_on_c, 0, 50, 87
5, 272640, Note_on_c, 0, 62, 87
5, 273020, Note_on_c, 0, 62, 0
5, 273020, Note_on_c, 0, 50, 0
5, 273024, Note_on_c, 0, 58, 87
5, 273024, Note_on_c, 0, 46, 87
5, 273404, Note_on_c, 0, 46, 0
5, 273404, Note_on_c, 0, 58, 0
5, 273408, Note_on_c, 0, 55, 87
5, 273408, Note_on_c, 0, 43, 87
5, 273788, Note_on_c, 0, 43, 0
5, 273788, Note_on_c, 0, 55, 0
5, 273792, Note_on_c, 0, 51, 87
5, 273792, Note_on_c, 0, 39, 87
5, 274172, Note_on_c, 0, 39, 0
5, 274172, Note_on_c, 0, 51, 0
5, 274176, Note_on_c, 0, 46, 87
5, 274176, Note_on_c, 0, 34, 87
5, 274556, Note_on_c, 0, 34, 0
5, 274556, Note_on_c, 0, 46, 0
5, 274560, Note_on_c, 0, 43, 87
5, 274560, Note_on_c, 0, 31, 87
5, 274940, Note_on_c, 0, 31, 0
5, 274940, Note_on_c, 0, 43, 0
5, 274944, Note_on_c, 0, 44, 87
5, 274944, Note_on_c, 0, 32, 87
5, 275324, Note_on_c, 0, 32, 0
5, 275324, Note_on_c, 0, 44, 0
5, 275328, Note_on_c, 0, 56, 87
5, 275708, Note_on_c, 0, 56, 0
5, 275712, Note_on_c, 0, 63, 87
5, 276092, Note_on_c, 0, 63, 0
5, 276096, Note_on_c, 0, 60, 87
5, 276476, Note_on_c, 0, 60, 0
5, 276480, Note_on_c, 0, 56, 87
5, 276860, Note_on_c, 0, 56, 0
5, 276864, Note_on_c, 0, 51, 87
5, 277244, Note_on_c, 0, 51, 0
5, 277248, Note_on_c, 0, 48, 87
5, 277628, Note_on_c, 0, 48, 0
5, 277632, Note_on_c, 0, 44, 87
5, 278012, Note_on_c, 0, 44, 0
5, 278016, Note_on_c, 0, 58, 87
5, 278016, Note_on_c, 0, 55, 87
5, 278016, Note_on_c, 0, 51, 87
5, 278396, Note_on_c, 0, 51, 0
5, 278396, Note_on_c, 0, 55, 0
5, 278396, Note_on_c, 0, 58, 0
5, 278400, Note_on_c, 0, 51, 87
5, 278400, Note_on_c, 0, 39, 87
5, 278780, Note_on_c, 0, 39, 0
5, 278780, Note_on_c, 0, 51, 0
5, 278784, Note_on_c, 0, 46, 87
5, 278784, Note_on_c, 0, 58, 87
5, 279164, Note_on_c, 0, 58, 0
5, 279164, Note_on_c, 0, 46, 0
5, 279168, Note_on_c, 0, 55, 87
5, 279168, Note_on_c, 0, 43, 87
5, 279548, Note_on_c, 0, 43, 0
5, 279548, Note_on_c, 0, 55, 0
5, 279552, Note_on_c, 0, 51, 87
5, 279552, Note_on_c, 0, 39, 87
5, 279932, Note_on_c, 0, 39, 0
5, 279932, Note_on_c, 0, 51, 0
5, 279936, Note_on_c, 0, 46, 87
5, 279936, Note_on_c, 0, 34, 87
5, 280316, Note_on_c, 0, 34, 0
5, 280316, Note_on_c, 0, 46, 0
5, 280320, Note_on_c, 0, 43, 87
5, 280320, Note_on_c, 0, 31, 87
5, 280700, Note_on_c, 0, 31, 0
5, 280700, Note_on_c, 0, 43, 0
5, 280704, Note_on_c, 0, 39, 87
5, 280704, Note_on_c, 0, 27, 87
5, 281084, Note_on_c, 0, 27, 0
5, 281084, Note_on_c, 0, 39, 0
5, 281088, Note_on_c, 0, 41, 87
5, 281088, Note_on_c, 0, 29, 87
5, 281468, Note_on_c, 0, 29, 0
5, 281468, Note_on_c, 0, 41, 0
5, 282624, Note_on_c, 0, 53, 87
5, 282624, Note_on_c, 0, 41, 87
5, 283004, Note_on_c, 0, 41, 0
5, 283004, Note_on_c, 0, 53, 0
5, 284160, Note_on_c, 0, 55, 87
5, 284160, Note_on_c, 0, 43, 87
5, 284540, Note_on_c, 0, 43, 0
5, 284540, Note_on_c, 0, 55, 0
5, 285696, Note_on_c, 0, 53, 87
5, 285696, Note_on_c, 0, 41, 87
5, 286076, Note_on_c, 0, 41, 0
5, 286076, Note_on_c, 0, 53, 0
5, 287232, Note_on_c, 0, 53, 87
5, 287232, Note_on_c, 0, 41, 87
5, 288380, Note_on_c, 0, 41, 0
5, 288380, Note_on_c, 0, 53, 0
5, 288768, Note_on_c, 0, 53, 87
5, 288768, Note_on_c, 0, 41, 87
5, 289916, Note_on_c, 0, 41, 0
5, 289916, Note_on_c, 0, 53, 0
5, 290304, Note_on_c, 0, 54, 87
5, 290304, Note_on_c, 0, 42, 87
5, 291452, Note_on_c, 0, 42, 0
5, 291452, Note_on_c, 0, 54, 0
5, 291840, Note_on_c, 0, 53, 87
5, 291840, Note_on_c, 0, 41, 87
5, 292220, Note_on_c, 0, 41, 0
5, 292220, Note_on_c, 0, 53, 0
5, 292992, Note_on_c, 0, 57, 87
5, 292992, Note_on_c, 0, 53, 87
5, 293180, Note_on_c, 0, 53, 0
5, 293180, Note_on_c, 0, 57, 0
5, 293184, Note_on_c, 0, 58, 87
5, 293184, Note_on_c, 0, 55, 87
5, 293372, Note_on_c, 0, 55, 0
5, 293372, Note_on_c, 0, 58, 0
5, 293376, Note_on_c, 0, 56, 87
5, 293376, Note_on_c, 0, 59, 87
5, 293564, Note_on_c, 0, 59, 0
5, 293564, Note_on_c, 0, 56, 0
5, 293568, Note_on_c, 0, 57, 87
5, 293568, Note_on_c, 0, 60, 87
5, 293756, Note_on_c, 0, 60, 0
5, 293756, Note_on_c, 0, 57, 0
5, 293760, Note_on_c, 0, 53, 87
5, 293760, Note_on_c, 0, 57, 87
5, 293948, Note_on_c, 0, 57, 0
5, 293948, Note_on_c, 0, 53, 0
5, 293952, Note_on_c, 0, 55, 87
5, 293952, Note_on_c, 0, 58, 87
5, 294140, Note_on_c, 0, 58, 0
5, 294140, Note_on_c, 0, 55, 0
5, 294144, Note_on_c, 0, 56, 87
5, 294144, Note_on_c, 0, 59, 87
5, 294332, Note_on_c, 0, 59, 0
5, 294332, Note_on_c, 0, 56, 0
5, 294336, Note_on_c, 0, 57, 87
5, 294336, Note_on_c, 0, 60, 87
5, 294524, Note_on_c, 0, 60, 0
5, 294524, Note_on_c, 0, 57, 0
5, 294528, Note_on_c, 0, 57, 87
5, 294528, Note_on_c, 0, 53, 87
5, 294716, Note_on_c, 0, 53, 0
5, 294716, Note_on_c, 0, 57, 0
5, 294720, Note_on_c, 0, 55, 87
5, 294720, Note_on_c, 0, 58, 87
5, 294908, Note_on_c, 0, 58, 0
5, 294908, Note_on_c, 0, 55, 0
5, 294912, Note_on_c, 0, 56, 87
5, 294912, Note_on_c, 0, 59, 87
5, 295100, Note_on_c, 0, 59, 0
5, 295100, Note_on_c, 0, 56, 0
5, 295104, Note_on_c, 0, 57, 87
5, 295104, Note_on_c, 0, 60, 87
5, 295292, Note_on_c, 0, 60, 0
5, 295292, Note_on_c, 0, 57, 0
5, 295296, Note_on_c, 0, 53, 87
5, 295296, Note_on_c, 0, 41, 87
5, 295676, Note_on_c, 0, 41, 0
5, 295676, Note_on_c, 0, 53, 0
5, 295680, Note_on_c, 0, 41, 87
5, 295680, Note_on_c, 0, 29, 87
5, 296060, Note_on_c, 0, 29, 0
5, 296060, Note_on_c, 0, 41, 0
5, 296064, Note_on_c, 0, 60, 87
5, 296064, Note_on_c, 0, 57, 87
5, 296252, Note_on_c, 0, 57, 0
5, 296252, Note_on_c, 0, 60, 0
5, 296256, Note_on_c, 0, 58, 87
5, 296256, Note_on_c, 0, 61, 87
5, 296444, Note_on_c, 0, 61, 0
5, 296444, Note_on_c, 0, 58, 0
5, 296448, Note_on_c, 0, 59, 87
5, 296448, Note_on_c, 0, 62, 87
5, 296636, Note_on_c, 0, 62, 0
5, 296636, Note_on_c, 0, 59, 0
5, 296640, Note_on_c, 0, 60, 87
5, 296640, Note_on_c, 0, 63, 87
5, 296828, Note_on_c, 0, 63, 0
5, 296828, Note_on_c, 0, 60, 0
5, 296832, Note_on_c, 0, 57, 87
5, 296832, Note_on_c, 0, 60, 87
5, 297020, Note_on_c, 0, 60, 0
5, 297020, Note_on_c, 0, 57, 0
5, 297024, Note_on_c, 0, 58, 87
5, 297024, Note_on_c, 0, 61, 87
5, 297212, Note_on_c, 0, 61, 0
5, 297212, Note_on_c, 0, 58, 0
5, 297216, Note_on_c, 0, 59, 87
5, 297216, Note_on_c, 0, 62, 87
5, 297404, Note_on_c, 0, 62, 0
5, 297404, Note_on_c, 0, 59, 0
5, 297408, Note_on_c, 0, 60, 87
5, 297408, Note_on_c, 0, 63, 87
5, 297596, Note_on_c, 0, 63, 0
5, 297596, Note_on_c, 0, 60, 0
5, 297600, Note_on_c, 0, 57, 87
5, 297600, Note_on_c, 0, 60, 87
5, 297788, Note_on_c, 0, 60, 0
5, 297788, Note_on_c, 0, 57, 0
5, 297792, Note_on_c, 0, 58, 87
5, 297792, Note_on_c, 0, 61, 87
5, 297980, Note_on_c, 0, 61, 0
5, 297980, Note_on_c, 0, 58, 0
5, 297984, Note_on_c, 0, 59, 87
5, 297984, Note_on_c, 0, 62, 87
5, 298172, Note_on_c, 0, 62, 0
5, 298172, Note_on_c, 0, 59, 0
5, 298176, Note_on_c, 0, 60, 87
5, 298176, Note_on_c, 0, 63, 87
5, 298364, Note_on_c, 0, 63, 0
5, 298364, Note_on_c, 0, 60, 0
5, 298368, Note_on_c, 0, 53, 87
5, 298368, Note_on_c, 0, 41, 87
5, 298748, Note_on_c, 0, 41, 0
5, 298748, Note_on_c, 0, 53, 0
5, 298752, Note_on_c, 0, 41, 87
5, 298752, Note_on_c, 0, 29, 87
5, 299132, Note_on_c, 0, 29, 0
5, 299132, Note_on_c, 0, 41, 0
5, 304128, Note_on_c, 0, 58, 87
5, 304128, Note_on_c, 0, 46, 87
5, 304508, Note_on_c, 0, 46, 0
5, 304508, Note_on_c, 0, 58, 0
5, 304896, Note_on_c, 0, 58, 87
5, 304896, Note_on_c, 0, 46, 87
5, 305276, Note_on_c, 0, 46, 0
5, 305276, Note_on_c, 0, 58, 0
5, 305664, Note_on_c, 0, 58, 87
5, 305664, Note_on_c, 0, 46, 87
5, 306044, Note_on_c, 0, 46, 0
5, 306044, Note_on_c, 0, 58, 0
5, 306048, Note_on_c, 0, 58, 87
5, 306048, Note_on_c, 0, 65, 87
5, 306048, Note_on_c, 0, 62, 87
5, 306428, Note_on_c, 0, 65, 0
5, 306428, Note_on_c, 0, 58, 0
5, 306432, Note_on_c, 0, 58, 87
5, 306432, Note_on_c, 0, 46, 87
5, 306812, Note_on_c, 0, 46, 0
5, 306812, Note_on_c, 0, 58, 0
5, 306812, Note_on_c, 0, 62, 0
5, 306816, Note_on_c, 0, 58, 87
5, 307196, Note_on_c, 0, 58, 0
5, 307200, Note_on_c, 0, 58, 87
5, 307200, Note_on_c, 0, 46, 87
5, 308348, Note_on_c, 0, 46, 0
5, 308348, Note_on_c, 0, 58, 0
5, 308736, Note_on_c, 0, 53, 87
5, 308736, Note_on_c, 0, 41, 87
5, 309116, Note_on_c, 0, 41, 0
5, 309116, Note_on_c, 0, 53, 0
5, 309120, Note_on_c, 0, 53, 87
5, 309120, Note_on_c, 0, 41, 87
5, 309500, Note_on_c, 0, 41, 0
5, 309500, Note_on_c, 0, 53, 0
5, 309504, Note_on_c, 0, 41, 87
5, 309504, Note_on_c, 0, 53, 87
5, 309884, Note_on_c, 0, 53, 0
5, 309884, Note_on_c, 0, 41, 0
5, 310272, Note_on_c, 0, 53, 87
5, 310272, Note_on_c, 0, 41, 87
5, 310652, Note_on_c, 0, 41, 0
5, 310652, Note_on_c, 0, 53, 0
5, 311040, Note_on_c, 0, 53, 87
5, 311040, Note_on_c, 0, 41, 87
5, 311420, Note_on_c, 0, 41, 0
5, 311420, Note_on_c, 0, 53, 0
5, 311808, Note_on_c, 0, 53, 87
5, 311808, Note_on_c, 0, 41, 87
5, 312956, Note_on_c, 0, 41, 0
5, 312956, Note_on_c, 0, 53, 0
5, 313344, Note_on_c, 0, 53, 87
5, 313344, Note_on_c, 0, 41, 87
5, 314492, Note_on_c, 0, 41, 0
5, 314492, Note_on_c, 0, 53, 0
5, 314880, Note_on_c, 0, 46, 87
5, 314880, Note_on_c, 0, 34, 87
5, 315260, Note_on_c, 0, 34, 0
5, 315260, Note_on_c, 0, 46, 0
5, 315264, Note_on_c, 0, 46, 87
5, 315644, Note_on_c, 0, 46, 0
5, 315648, Note_on_c, 0, 46, 87
5, 315648, Note_on_c, 0, 34, 87
5, 315836, Note_on_c, 0, 34, 0
5, 315836, Note_on_c, 0, 46, 0
5, 315840, Note_on_c, 0, 62, 87
5, 316028, Note_on_c, 0, 62, 0
5, 316032, Note_on_c, 0, 63, 87
5, 316220, Note_on_c, 0, 63, 0
5, 316224, Note_on_c, 0, 64, 87
5, 316412, Note_on_c, 0, 64, 0
5, 316416, Note_on_c, 0, 65, 87
5, 316988, Note_on_c, 0, 65, 0
5, 317184, Note_on_c, 0, 65, 87
5, 317372, Note_on_c, 0, 65, 0
5, 317376, Note_on_c, 0, 62, 87
5, 317564, Note_on_c, 0, 62, 0
5, 317568, Note_on_c, 0, 63, 87
5, 317756, Note_on_c, 0, 63, 0
5, 317760, Note_on_c, 0, 64, 87
5, 317948, Note_on_c, 0, 64, 0
5, 317952, Note_on_c, 0, 65, 87
5, 318524, Note_on_c, 0, 65, 0
5, 318720, Note_on_c, 0, 65, 87
5, 318908, Note_on_c, 0, 65, 0
5, 318912, Note_on_c, 0, 62, 87
5, 319100, Note_on_c, 0, 62, 0
5, 319104, Note_on_c, 0, 63, 87
5, 319292, Note_on_c, 0, 63, 0
5, 319296, Note_on_c, 0, 64, 87
5, 319484, Note_on_c, 0, 64, 0
5, 319488, Note_on_c, 0, 65, 87
5, 320636, Note_on_c, 0, 65, 0
5, 321024, Note_on_c, 0, 65, 87
5, 322172, Note_on_c, 0, 65, 0
5, 322560, Note_on_c, 0, 65, 87
5, 322560, Note_on_c, 0, 62, 87
5, 322748, Note_on_c, 0, 62, 0
5, 322748, Note_on_c, 0, 65, 0
5, 322944, Note_on_c, 0, 63, 87
5, 322944, Note_on_c, 0, 60, 87
5, 323132, Note_on_c, 0, 60, 0
5, 323132, Note_on_c, 0, 63, 0
5, 323328, Note_on_c, 0, 58, 87
5, 323328, Note_on_c, 0, 62, 87
5, 323516, Note_on_c, 0, 62, 0
5, 323516, Note_on_c, 0, 58, 0
5, 323712, Note_on_c, 0, 57, 87
5, 323712, Note_on_c, 0, 60, 87
5, 323900, Note_on_c, 0, 60, 0
5, 323900, Note_on_c, 0, 57, 0
5, 324096, Note_on_c, 0, 46, 110
5, 324096, Note_on_c, 0, 34, 110
5, 324284, Note_on_c, 0, 34, 0
5, 324284, Note_on_c, 0, 46, 0
5, 324288, Note_on_c, 0, 46, 110
5, 324288, Note_on_c, 0, 34, 110
5, 324476, Note_on_c, 0, 34, 0
5, 324476, Note_on_c, 0, 46, 0
5, 324480, Note_on_c, 0, 46, 110
5, 324480, Note_on_c, 0, 34, 110
5, 324668, Note_on_c, 0, 34, 0
5, 324668, Note_on_c, 0, 46, 0
5, 324672, Note_on_c, 0, 34, 110
5, 324672, Note_on_c, 0, 46, 110
5, 324860, Note_on_c, 0, 46, 0
5, 324860, Note_on_c, 0, 34, 0
5, 324864, Note_on_c, 0, 34, 110
5, 324864, Note_on_c, 0, 46, 110
5, 325052, Note_on_c, 0, 46, 0
5, 325052, Note_on_c, 0, 34, 0
5, 325056, Note_on_c, 0, 46, 110
5, 325056, Note_on_c, 0, 34, 110
5, 325244, Note_on_c, 0, 34, 0
5, 325244, Note_on_c, 0, 46, 0
5, 325248, Note_on_c, 0, 46, 110
5, 325248, Note_on_c, 0, 34, 110
5, 325436, Note_on_c, 0, 34, 0
5, 325436, Note_on_c, 0, 46, 0
5, 325440, Note_on_c, 0, 46, 110
5, 325440, Note_on_c, 0, 34, 110
5, 325628, Note_on_c, 0, 34, 0
5, 325628, Note_on_c, 0, 46, 0
5, 325632, Note_on_c, 0, 48, 110
5, 325632, Note_on_c, 0, 36, 110
5, 325820, Note_on_c, 0, 36, 0
5, 325820, Note_on_c, 0, 48, 0
5, 325824, Note_on_c, 0, 48, 110
5, 325824, Note_on_c, 0, 60, 110
5, 326012, Note_on_c, 0, 60, 0
5, 326012, Note_on_c, 0, 48, 0
5, 326016, Note_on_c, 0, 63, 110
5, 326016, Note_on_c, 0, 51, 110
5, 326204, Note_on_c, 0, 51, 0
5, 326204, Note_on_c, 0, 63, 0
5, 326208, Note_on_c, 0, 62, 110
5, 326208, Note_on_c, 0, 50, 110
5, 326396, Note_on_c, 0, 50, 0
5, 326396, Note_on_c, 0, 62, 0
5, 326400, Note_on_c, 0, 60, 110
5, 326400, Note_on_c, 0, 48, 110
5, 326588, Note_on_c, 0, 48, 0
5, 326588, Note_on_c, 0, 60, 0
5, 326592, Note_on_c, 0, 58, 110
5, 326592, Note_on_c, 0, 46, 110
5, 326780, Note_on_c, 0, 46, 0
5, 326780, Note_on_c, 0, 58, 0
5, 326784, Note_on_c, 0, 57, 110
5, 326784, Note_on_c, 0, 45, 110
5, 326972, Note_on_c, 0, 45, 0
5, 326972, Note_on_c, 0, 57, 0
5, 326976, Note_on_c, 0, 55, 110
5, 326976, Note_on_c, 0, 43, 110
5, 327164, Note_on_c, 0, 43, 0
5, 327164, Note_on_c, 0, 55, 0
5, 327168, Note_on_c, 0, 53, 110
5, 327168, Note_on_c, 0, 41, 110
5, 327356, Note_on_c, 0, 41, 0
5, 327356, Note_on_c, 0, 53, 0
5, 327360, Note_on_c, 0, 53, 110
5, 327360, Note_on_c, 0, 41, 110
5, 327548, Note_on_c, 0, 41, 0
5, 327548, Note_on_c, 0, 53, 0
5, 327552, Note_on_c, 0, 53, 110
5, 327552, Note_on_c, 0, 41, 110
5, 327740, Note_on_c, 0, 41, 0
5, 327740, Note_on_c, 0, 53, 0
5, 327744, Note_on_c, 0, 53, 110
5, 327744, Note_on_c, 0, 41, 110
5, 327932, Note_on_c, 0, 41, 0
5, 327932, Note_on_c, 0, 53, 0
5, 327936, Note_on_c, 0, 53, 110
5, 327936, Note_on_c, 0, 41, 110
5, 328124, Note_on_c, 0, 41, 0
5, 328124, Note_on_c, 0, 53, 0
5, 328128, Note_on_c, 0, 53, 110
5, 328128, Note_on_c, 0, 41, 110
5, 328316, Note_on_c, 0, 41, 0
5, 328316, Note_on_c, 0, 53, 0
5, 328320, Note_on_c, 0, 53, 110
5, 328320, Note_on_c, 0, 41, 110
5, 328508, Note_on_c, 0, 41, 0
5, 328508, Note_on_c, 0, 53, 0
5, 328512, Note_on_c, 0, 53, 110
5, 328512, Note_on_c, 0, 41, 110
5, 328700, Note_on_c, 0, 41, 0
5, 328700, Note_on_c, 0, 53, 0
5, 328704, Note_on_c, 0, 50, 110
5, 328704, Note_on_c, 0, 38, 110
5, 328892, Note_on_c, 0, 38, 0
5, 328892, Note_on_c, 0, 50, 0
5, 328896, Note_on_c, 0, 46, 110
5, 328896, Note_on_c, 0, 58, 110
5, 329084, Note_on_c, 0, 58, 0
5, 329084, Note_on_c, 0, 46, 0
5, 329088, Note_on_c, 0, 62, 110
5, 329088, Note_on_c, 0, 50, 110
5, 329276, Note_on_c, 0, 50, 0
5, 329276, Note_on_c, 0, 62, 0
5, 329280, Note_on_c, 0, 58, 110
5, 329280, Note_on_c, 0, 46, 110
5, 329468, Note_on_c, 0, 46, 0
5, 329468, Note_on_c, 0, 58, 0
5, 329472, Note_on_c, 0, 53, 110
5, 329472, Note_on_c, 0, 41, 110
5, 329660, Note_on_c, 0, 41, 0
5, 329660, Note_on_c, 0, 53, 0
5, 329664, Note_on_c, 0, 58, 110
5, 329664, Note_on_c, 0, 46, 110
5, 329852, Note_on_c, 0, 46, 0
5, 329852, Note_on_c, 0, 58, 0
5, 329856, Note_on_c, 0, 53, 110
5, 329856, Note_on_c, 0, 41, 110
5, 330044, Note_on_c, 0, 41, 0
5, 330044, Note_on_c, 0, 53, 0
5, 330048, Note_on_c, 0, 39, 110
5, 330048, Note_on_c, 0, 51, 110
5, 330236, Note_on_c, 0, 51, 0
5, 330236, Note_on_c, 0, 39, 0
5, 330240, Note_on_c, 0, 50, 110
5, 330240, Note_on_c, 0, 38, 110
5, 330428, Note_on_c, 0, 38, 0
5, 330428, Note_on_c, 0, 50, 0
5, 330432, Note_on_c, 0, 53, 110
5, 330432, Note_on_c, 0, 41, 110
5, 330620, Note_on_c, 0, 41, 0
5, 330620, Note_on_c, 0, 53, 0
5, 330624, Note_on_c, 0, 56, 110
5, 330624, Note_on_c, 0, 44, 110
5, 330812, Note_on_c, 0, 44, 0
5, 330812, Note_on_c, 0, 56, 0
5, 330816, Note_on_c, 0, 53, 110
5, 330816, Note_on_c, 0, 41, 110
5, 331004, Note_on_c, 0, 41, 0
5, 331004, Note_on_c, 0, 53, 0
5, 331008, Note_on_c, 0, 50, 110
5, 331008, Note_on_c, 0, 38, 110
5, 331196, Note_on_c, 0, 38, 0
5, 331196, Note_on_c, 0, 50, 0
5, 331200, Note_on_c, 0, 53, 110
5, 331200, Note_on_c, 0, 41, 110
5, 331388, Note_on_c, 0, 41, 0
5, 331388, Note_on_c, 0, 53, 0
5, 331392, Note_on_c, 0, 50, 110
5, 331392, Note_on_c, 0, 38, 110
5, 331580, Note_on_c, 0, 38, 0
5, 331580, Note_on_c, 0, 50, 0
5, 331584, Note_on_c, 0, 48, 110
5, 331584, Note_on_c, 0, 36, 110
5, 331772, Note_on_c, 0, 36, 0
5, 331772, Note_on_c, 0, 48, 0
5, 331776, Note_on_c, 0, 47, 110
5, 331776, Note_on_c, 0, 35, 110
5, 332156, Note_on_c, 0, 35, 0
5, 332156, Note_on_c, 0, 47, 0
5, 332160, Note_on_c, 0, 59, 110
5, 332160, Note_on_c, 0, 47, 110
5, 332540, Note_on_c, 0, 47, 0
5, 332540, Note_on_c, 0, 59, 0
5, 339456, Note_on_c, 0, 58, 87
5, 339456, Note_on_c, 0, 46, 87
5, 340604, Note_on_c, 0, 46, 0
5, 340604, Note_on_c, 0, 58, 0
5, 340992, Note_on_c, 0, 60, 87
5, 340992, Note_on_c, 0, 48, 87
5, 342140, Note_on_c, 0, 48, 0
5, 342140, Note_on_c, 0, 60, 0
5, 342528, Note_on_c, 0, 57, 87
5, 342528, Note_on_c, 0, 45, 87
5, 343676, Note_on_c, 0, 45, 0
5, 343676, Note_on_c, 0, 57, 0
5, 344064, Note_on_c, 0, 58, 87
5, 344064, Note_on_c, 0, 46, 87
5, 344444, Note_on_c, 0, 46, 0
5, 344444, Note_on_c, 0, 58, 0
5, 349440, Note_on_c, 0, 55, 110
5, 349440, Note_on_c, 0, 48, 110
5, 349440, Note_on_c, 0, 43, 110
5, 350012, Note_on_c, 0, 43, 0
5, 350012, Note_on_c, 0, 48, 0
5, 350012, Note_on_c, 0, 55, 0
5, 350208, Note_on_c, 0, 53, 87
5, 350208, Note_on_c, 0, 48, 87
5, 350208, Note_on_c, 0, 41, 87
5, 350588, Note_on_c, 0, 41, 0
5, 350588, Note_on_c, 0, 48, 0
5, 350588, Note_on_c, 0, 53, 0
5, 352512, Note_on_c, 0, 55, 110
5, 352512, Note_on_c, 0, 48, 110
5, 352512, Note_on_c, 0, 43, 110
5, 353276, Note_on_c, 0, 43, 0
5, 353276, Note_on_c, 0, 48, 0
5, 353276, Note_on_c, 0, 55, 0
5, 353280, Note_on_c, 0, 53, 87
5, 353280, Note_on_c, 0, 48, 87
5, 353280, Note_on_c, 0, 41, 87
5, 353660, Note_on_c, 0, 41, 0
5, 353660, Note_on_c, 0, 48, 0
5, 353660, Note_on_c, 0, 53, 0
5, 356544, Note_on_c, 0, 53, 110
5, 356732, Note_on_c, 0, 53, 0
5, 356736, Note_on_c, 0, 57, 110
5, 356924, Note_on_c, 0, 57, 0
5, 356928, Note_on_c, 0, 53, 110
5, 357116, Note_on_c, 0, 53, 0
5, 357120, Note_on_c, 0, 48, 110
5, 357308, Note_on_c, 0, 48, 0
5, 357312, Note_on_c, 0, 53, 110
5, 357500, Note_on_c, 0, 53, 0
5, 357504, Note_on_c, 0, 45, 110
5, 357692, Note_on_c, 0, 45, 0
5, 357696, Note_on_c, 0, 48, 110
5, 357884, Note_on_c, 0, 48, 0
5, 357888, Note_on_c, 0, 41, 110
5, 358076, Note_on_c, 0, 41, 0
5, 365568, Note_on_c, 0, 53, 87
5, 365568, Note_on_c, 0, 41, 87
5, 366716, Note_on_c, 0, 41, 0
5, 366716, Note_on_c, 0, 53, 0
5, 367104, Note_on_c, 0, 53, 87
5, 367104, Note_on_c, 0, 41, 87
5, 367484, Note_on_c, 0, 41, 0
5, 367484, Note_on_c, 0, 53, 0
5, 370368, Note_on_c, 0, 53, 87
5, 370556, Note_on_c, 0, 53, 0
5, 370560, Note_on_c, 0, 55, 87
5, 370748, Note_on_c, 0, 55, 0
5, 370752, Note_on_c, 0, 57, 87
5, 370940, Note_on_c, 0, 57, 0
5, 370944, Note_on_c, 0, 58, 87
5, 371132, Note_on_c, 0, 58, 0
5, 371136, Note_on_c, 0, 58, 87
5, 371324, Note_on_c, 0, 58, 0
5, 371328, Note_on_c, 0, 57, 87
5, 371516, Note_on_c, 0, 57, 0
5, 371520, Note_on_c, 0, 56, 87
5, 371712, Note_on_c, 0, 55, 87
5, 371712, Note_on_c, 0, 46, 87
5, 371716, Note_on_c, 0, 56, 0
5, 372092, Note_on_c, 0, 46, 0
5, 372092, Note_on_c, 0, 55, 0
5, 373248, Note_on_c, 0, 53, 87
5, 373248, Note_on_c, 0, 46, 87
5, 373628, Note_on_c, 0, 46, 0
5, 373628, Note_on_c, 0, 53, 0
5, 374784, Note_on_c, 0, 58, 87
5, 374784, Note_on_c, 0, 46, 87
5, 375356, Note_on_c, 0, 46, 0
5, 375356, Note_on_c, 0, 58, 0
5, 375360, Note_on_c, 0, 63, 87
5, 375360, Note_on_c, 0, 55, 87
5, 375548, Note_on_c, 0, 55, 0
5, 375548, Note_on_c, 0, 63, 0
5, 375552, Note_on_c, 0, 67, 87
5, 375740, Note_on_c, 0, 67, 0
5, 375744, Note_on_c, 0, 67, 87
5, 375932, Note_on_c, 0, 67, 0
5, 375936, Note_on_c, 0, 67, 87
5, 376124, Note_on_c, 0, 67, 0
5, 376128, Note_on_c, 0, 67, 87
5, 376316, Note_on_c, 0, 67, 0
5, 376320, Note_on_c, 0, 62, 87
5, 376320, Note_on_c, 0, 53, 87
5, 376320, Note_on_c, 0, 46, 87
5, 376892, Note_on_c, 0, 46, 0
5, 376892, Note_on_c, 0, 53, 0
5, 376892, Note_on_c, 0, 62, 0
5, 377856, Note_on_c, 0, 62, 87
5, 377856, Note_on_c, 0, 55, 87
5, 378620, Note_on_c, 0, 55, 0
5, 378620, Note_on_c, 0, 62, 0
5, 378624, Note_on_c, 0, 60, 87
5, 378624, Note_on_c, 0, 48, 87
5, 378812, Note_on_c, 0, 48, 0
5, 378812, Note_on_c, 0, 60, 0
5, 379392, Note_on_c, 0, 60, 87
5, 379392, Note_on_c, 0, 53, 87
5, 380156, Note_on_c, 0, 53, 0
5, 380156, Note_on_c, 0, 60, 0
5, 380160, Note_on_c, 0, 58, 87
5, 380160, Note_on_c, 0, 46, 87
5, 380348, Note_on_c, 0, 46, 0
5, 380348, Note_on_c, 0, 58, 0
5, 380928, Note_on_c, 0, 51, 87
5, 380928, Note_on_c, 0, 38, 87
5, 381116, Note_on_c, 0, 38, 0
5, 381116, Note_on_c, 0, 51, 0
5, 381696, Note_on_c, 0, 41, 87
5, 381696, Note_on_c, 0, 62, 87
5, 381696, Note_on_c, 0, 58, 87
5, 381696, Note_on_c, 0, 53, 87
5, 381884, Note_on_c, 0, 53, 0
5, 381884, Note_on_c, 0, 41, 0
5, 381884, Note_on_c, 0, 62, 0
5, 381884, Note_on_c, 0, 58, 0
5, 382080, Note_on_c, 0, 41, 87
5, 382080, Note_on_c, 0, 29, 87
5, 382080, Note_on_c, 0, 60, 87
5, 382080, Note_on_c, 0, 57, 87
5, 382080, Note_on_c, 0, 51, 87
5, 382268, Note_on_c, 0, 51, 0
5, 382268, Note_on_c, 0, 60, 0
5, 382268, Note_on_c, 0, 41, 0
5, 382268, Note_on_c, 0, 29, 0
5, 382268, Note_on_c, 0, 57, 0
5, 382464, Note_on_c, 0, 58, 87
5, 382464, Note_on_c, 0, 50, 87
5, 382464, Note_on_c, 0, 46, 87
5, 382464, Note_on_c, 0, 34, 87
5, 382652, Note_on_c, 0, 34, 0
5, 382652, Note_on_c, 0, 58, 0
5, 382652, Note_on_c, 0, 50, 0
5, 382652, Note_on_c, 0, 46, 0
5, 384000, Note_on_c, 0, 46, 87
5, 384000, Note_on_c, 0, 34, 87
5, 384380, Note_on_c, 0, 34, 0
5, 384380, Note_on_c, 0, 46, 0
5, 384768, Note_on_c, 0, 50, 87
5, 384768, Note_on_c, 0, 38, 87
5, 385148, Note_on_c, 0, 38, 0
5, 385148, Note_on_c, 0, 50, 0
5, 385536, Note_on_c, 0, 48, 87
5, 385536, Note_on_c, 0, 36, 87
5, 385916, Note_on_c, 0, 36, 0
5, 385916, Note_on_c, 0, 48, 0
5, 386304, Note_on_c, 0, 45, 87
5, 386304, Note_on_c, 0, 33, 87
5, 386684, Note_on_c, 0, 33, 0
5, 386684, Note_on_c, 0, 45, 0
5, 387072, Note_on_c, 0, 41, 87
5, 387072, Note_on_c, 0, 29, 87
5, 387452, Note_on_c, 0, 29, 0
5, 387452, Note_on_c, 0, 41, 0
5, 387840, Note_on_c, 0, 51, 87
5, 387840, Note_on_c, 0, 39, 87
5, 388220, Note_on_c, 0, 39, 0
5, 388220, Note_on_c, 0, 51, 0
5, 388608, Note_on_c, 0, 50, 87
5, 388608, Note_on_c, 0, 38, 87
5, 388988, Note_on_c, 0, 38, 0
5, 388988, Note_on_c, 0, 50, 0
5, 389376, Note_on_c, 0, 46, 87
5, 389376, Note_on_c, 0, 34, 87
5, 389756, Note_on_c, 0, 34, 0
5, 389756, Note_on_c, 0, 46, 0
5, 396288, Note_on_c, 0, 50, 87
5, 396288, Note_on_c, 0, 38, 87
5, 396668, Note_on_c, 0, 38, 0
5, 396668, Note_on_c, 0, 50, 0
5, 397056, Note_on_c, 0, 46, 87
5, 397056, Note_on_c, 0, 34, 87
5, 397436, Note_on_c, 0, 34, 0
5, 397436, Note_on_c, 0, 46, 0
5, 397824, Note_on_c, 0, 48, 87
5, 397824, Note_on_c, 0, 36, 87
5, 398204, Note_on_c, 0, 36, 0
5, 398204, Note_on_c, 0, 48, 0
5, 398592, Note_on_c, 0, 51, 87
5, 398592, Note_on_c, 0, 39, 87
5, 398972, Note_on_c, 0, 39, 0
5, 398972, Note_on_c, 0, 51, 0
5, 399360, Note_on_c, 0, 53, 87
5, 399360, Note_on_c, 0, 41, 87
5, 399740, Note_on_c, 0, 41, 0
5, 399740, Note_on_c, 0, 53, 0
5, 400128, Note_on_c, 0, 51, 87
5, 400128, Note_on_c, 0, 39, 87
5, 400508, Note_on_c, 0, 39, 0
5, 400508, Note_on_c, 0, 51, 0
5, 400896, Note_on_c, 0, 50, 87
5, 400896, Note_on_c, 0, 38, 87
5, 401276, Note_on_c, 0, 38, 0
5, 401276, Note_on_c, 0, 50, 0
5, 401664, Note_on_c, 0, 46, 87
5, 401664, Note_on_c, 0, 34, 87
5, 402044, Note_on_c, 0, 34, 0
5, 402044, Note_on_c, 0, 46, 0
5, 402432, Note_on_c, 0, 58, 87
5, 402432, Note_on_c, 0, 46, 87
5, 402812, Note_on_c, 0, 46, 0
5, 402812, Note_on_c, 0, 58, 0
5, 403200, Note_on_c, 0, 56, 87
5, 403200, Note_on_c, 0, 44, 87
5, 403580, Note_on_c, 0, 44, 0
5, 403580, Note_on_c, 0, 56, 0
5, 403968, Note_on_c, 0, 55, 87
5, 403968, Note_on_c, 0, 43, 87
5, 404348, Note_on_c, 0, 43, 0
5, 404348, Note_on_c, 0, 55, 0
5, 404736, Note_on_c, 0, 51, 87
5, 404736, Note_on_c, 0, 39, 87
5, 405116, Note_on_c, 0, 39, 0
5, 405116, Note_on_c, 0, 51, 0
5, 405504, Note_on_c, 0, 58, 87
5, 405504, Note_on_c, 0, 46, 87
5, 405884, Note_on_c, 0, 46, 0
5, 405884, Note_on_c, 0, 58, 0
5, 405888, Note_on_c, 0, 51, 87
5, 405888, Note_on_c, 0, 39, 87
5, 406268, Note_on_c, 0, 39, 0
5, 406268, Note_on_c, 0, 51, 0
5, 406272, Note_on_c, 0, 53, 87
5, 406272, Note_on_c, 0, 41, 87
5, 406652, Note_on_c, 0, 41, 0
5, 406652, Note_on_c, 0, 53, 0
5, 406656, Note_on_c, 0, 41, 87
5, 406656, Note_on_c, 0, 29, 87
5, 407036, Note_on_c, 0, 29, 0
5, 407036, Note_on_c, 0, 41, 0
5, 407040, Note_on_c, 0, 46, 87
5, 407040, Note_on_c, 0, 34, 87
5, 407420, Note_on_c, 0, 34, 0
5, 407420, Note_on_c, 0, 46, 0
5, 417792, Note_on_c, 0, 58, 110
5, 417792, Note_on_c, 0, 46, 110
5, 418172, Note_on_c, 0, 46, 0
5, 418172, Note_on_c, 0, 58, 0
5, 418560, Note_on_c, 0, 57, 110
5, 418560, Note_on_c, 0, 45, 110
5, 418940, Note_on_c, 0, 45, 0
5, 418940, Note_on_c, 0, 57, 0
5, 419328, Note_on_c, 0, 43, 110
5, 419328, Note_on_c, 0, 55, 110
5, 419708, Note_on_c, 0, 55, 0
5, 419708, Note_on_c, 0, 43, 0
5, 420096, Note_on_c, 0, 53, 110
5, 420096, Note_on_c, 0, 41, 110
5, 420476, Note_on_c, 0, 41, 0
5, 420476, Note_on_c, 0, 53, 0
5, 420864, Note_on_c, 0, 51, 110
5, 420864, Note_on_c, 0, 39, 110
5, 421244, Note_on_c, 0, 39, 0
5, 421244, Note_on_c, 0, 51, 0
5, 421632, Note_on_c, 0, 38, 110
5, 421632, Note_on_c, 0, 50, 110
5, 422012, Note_on_c, 0, 50, 0
5, 422012, Note_on_c, 0, 38, 0
5, 422400, Note_on_c, 0, 48, 87
5, 422400, Note_on_c, 0, 60, 87
5, 422780, Note_on_c, 0, 60, 0
5, 422780, Note_on_c, 0, 48, 0
5, 422784, Note_on_c, 0, 60, 87
5, 422784, Note_on_c, 0, 51, 87
5, 423164, Note_on_c, 0, 51, 0
5, 423164, Note_on_c, 0, 60, 0
5, 423168, Note_on_c, 0, 57, 87
5, 423168, Note_on_c, 0, 53, 87
5, 423548, Note_on_c, 0, 53, 0
5, 423548, Note_on_c, 0, 57, 0
5, 423552, Note_on_c, 0, 45, 87
5, 423552, Note_on_c, 0, 33, 87
5, 423932, Note_on_c, 0, 33, 0
5, 423932, Note_on_c, 0, 45, 0
5, 423936, Note_on_c, 0, 46, 87
5, 423936, Note_on_c, 0, 34, 87
5, 424316, Note_on_c, 0, 34, 0
5, 424316, Note_on_c, 0, 46, 0
5, 424704, Note_on_c, 0, 38, 87
5, 424704, Note_on_c, 0, 50, 87
5, 425276, Note_on_c, 0, 50, 0
5, 425276, Note_on_c, 0, 38, 0
5, 425472, Note_on_c, 0, 51, 87
5, 425472, Note_on_c, 0, 39, 87
5, 425852, Note_on_c, 0, 39, 0
5, 425852, Note_on_c, 0, 51, 0
5, 426240, Note_on_c, 0, 51, 87
5, 426240, Note_on_c, 0, 39, 87
5, 426812, Note_on_c, 0, 39, 0
5, 426812, Note_on_c, 0, 51, 0
5, 427008, Note_on_c, 0, 52, 87
5, 427008, Note_on_c, 0, 40, 87
5, 427388, Note_on_c, 0, 40, 0
5, 427388, Note_on_c, 0, 52, 0
5, 427776, Note_on_c, 0, 52, 87
5, 427776, Note_on_c, 0, 40, 87
5, 428348, Note_on_c, 0, 40, 0
5, 428348, Note_on_c, 0, 52, 0
5, 428544, Note_on_c, 0, 41, 87
5, 428924, Note_on_c, 0, 41, 0
5, 429312, Note_on_c, 0, 53, 87
5, 429312, Note_on_c, 0, 41, 87
5, 429692, Note_on_c, 0, 41, 0
5, 429692, Note_on_c, 0, 53, 0
5, 430080, Note_on_c, 0, 53, 87
5, 430080, Note_on_c, 0, 41, 87
5, 430460, Note_on_c, 0, 41, 0
5, 430460, Note_on_c, 0, 53, 0
5, 433152, Note_on_c, 0, 53, 87
5, 434300, Note_on_c, 0, 53, 0
5, 434688, Note_on_c, 0, 58, 87
5, 434688, Note_on_c, 0, 62, 87
5, 434688, Note_on_c, 0, 53, 87
5, 435836, Note_on_c, 0, 53, 0
5, 435836, Note_on_c, 0, 62, 0
5, 435836, Note_on_c, 0, 58, 0
5, 436224, Note_on_c, 0, 60, 87
5, 436224, Note_on_c, 0, 57, 87
5, 436224, Note_on_c, 0, 53, 87
5, 437372, Note_on_c, 0, 53, 0
5, 437372, Note_on_c, 0, 57, 0
5, 437372, Note_on_c, 0, 60, 0
5, 437760, Note_on_c, 0, 46, 72
5, 437760, Note_on_c, 0, 34, 72
5, 437948, Note_on_c, 0, 34, 0
5, 437948, Note_on_c, 0, 46, 0
5, 437952, Note_on_c, 0, 46, 72
5, 437952, Note_on_c, 0, 34, 72
5, 438140, Note_on_c, 0, 34, 0
5, 438140, Note_on_c, 0, 46, 0
5, 438144, Note_on_c, 0, 46, 72
5, 438144, Note_on_c, 0, 34, 72
5, 438332, Note_on_c, 0, 34, 0
5, 438332, Note_on_c, 0, 46, 0
5, 438336, Note_on_c, 0, 34, 72
5, 438336, Note_on_c, 0, 46, 72
5, 438524, Note_on_c, 0, 46, 0
5, 438524, Note_on_c, 0, 34, 0
5, 438528, Note_on_c, 0, 46, 72
5, 438528, Note_on_c, 0, 34, 72
5, 438716, Note_on_c, 0, 34, 0
5, 438716, Note_on_c, 0, 46, 0
5, 438720, Note_on_c, 0, 34, 72
5, 438720, Note_on_c, 0, 46, 72
5, 438908, Note_on_c, 0, 46, 0
5, 438908, Note_on_c, 0, 34, 0
5, 438912, Note_on_c, 0, 34, 72
5, 438912, Note_on_c, 0, 46, 72
5, 439100, Note_on_c, 0, 46, 0
5, 439100, Note_on_c, 0, 34, 0
5, 439104, Note_on_c, 0, 34, 72
5, 439104, Note_on_c, 0, 46, 72
5, 439292, Note_on_c, 0, 46, 0
5, 439292, Note_on_c, 0, 34, 0
5, 439296, Note_on_c, 0, 46, 74
5, 439296, Note_on_c, 0, 34, 74
5, 439484, Note_on_c, 0, 34, 0
5, 439484, Note_on_c, 0, 46, 0
5, 439488, Note_on_c, 0, 46, 75
5, 439488, Note_on_c, 0, 34, 75
5, 439676, Note_on_c, 0, 34, 0
5, 439676, Note_on_c, 0, 46, 0
5, 439680, Note_on_c, 0, 46, 78
5, 439680, Note_on_c, 0, 34, 78
5, 439868, Note_on_c, 0, 34, 0
5, 439868, Note_on_c, 0, 46, 0
5, 439872, Note_on_c, 0, 34, 80
5, 439872, Note_on_c, 0, 46, 80
5, 440060, Note_on_c, 0, 46, 0
5, 440060, Note_on_c, 0, 34, 0
5, 440064, Note_on_c, 0, 46, 83
5, 440064, Note_on_c, 0, 34, 83
5, 440252, Note_on_c, 0, 34, 0
5, 440252, Note_on_c, 0, 46, 0
5, 440256, Note_on_c, 0, 46, 84
5, 440256, Note_on_c, 0, 34, 84
5, 440444, Note_on_c, 0, 34, 0
5, 440444, Note_on_c, 0, 46, 0
5, 440448, Note_on_c, 0, 34, 87
5, 440448, Note_on_c, 0, 46, 87
5, 440636, Note_on_c, 0, 46, 0
5, 440636, Note_on_c, 0, 34, 0
5, 440640, Note_on_c, 0, 34, 89
5, 440640, Note_on_c, 0, 46, 89
5, 440828, Note_on_c, 0, 46, 0
5, 440828, Note_on_c, 0, 34, 0
5, 440832, Note_on_c, 0, 46, 92
5, 440832, Note_on_c, 0, 34, 92
5, 441020, Note_on_c, 0, 34, 0
5, 441020, Note_on_c, 0, 46, 0
5, 441024, Note_on_c, 0, 34, 93
5, 441024, Note_on_c, 0, 46, 93
5, 441212, Note_on_c, 0, 46, 0
5, 441212, Note_on_c, 0, 34, 0
5, 441216, Note_on_c, 0, 46, 96
5, 441216, Note_on_c, 0, 34, 96
5, 441404, Note_on_c, 0, 34, 0
5, 441404, Note_on_c, 0, 46, 0
5, 441408, Note_on_c, 0, 34, 98
5, 441408, Note_on_c, 0, 46, 98
5, 441596, Note_on_c, 0, 46, 0
5, 441596, Note_on_c, 0, 34, 0
5, 441600, Note_on_c, 0, 46, 101
5, 441600, Note_on_c, 0, 34, 101
5, 441788, Note_on_c, 0, 34, 0
5, 441788, Note_on_c, 0, 46, 0
5, 441792, Note_on_c, 0, 46, 102
5, 441792, Note_on_c, 0, 34, 102
5, 441980, Note_on_c, 0, 34, 0
5, 441980, Note_on_c, 0, 46, 0
5, 441984, Note_on_c, 0, 46, 105
5, 441984, Note_on_c, 0, 34, 105
5, 442172, Note_on_c, 0, 34, 0
5, 442172, Note_on_c, 0, 46, 0
5, 442176, Note_on_c, 0, 34, 107
5, 442176, Note_on_c, 0, 46, 107
5, 442364, Note_on_c, 0, 46, 0
5, 442364, Note_on_c, 0, 34, 0
5, 442368, Note_on_c, 0, 46, 110
5, 442368, Note_on_c, 0, 34, 110
5, 442556, Note_on_c, 0, 34, 0
5, 442556, Note_on_c, 0, 46, 0
5, 442560, Note_on_c, 0, 46, 110
5, 442560, Note_on_c, 0, 34, 110
5, 442748, Note_on_c, 0, 34, 0
5, 442748, Note_on_c, 0, 46, 0
5, 442752, Note_on_c, 0, 34, 110
5, 442752, Note_on_c, 0, 46, 110
5, 442940, Note_on_c, 0, 46, 0
5, 442940, Note_on_c, 0, 34, 0
5, 442944, Note_on_c, 0, 34, 110
5, 442944, Note_on_c, 0, 46, 110
5, 443132, Note_on_c, 0, 46, 0
5, 443132, Note_on_c, 0, 34, 0
5, 443136, Note_on_c, 0, 46, 110
5, 443136, Note_on_c, 0, 34, 110
5, 443324, Note_on_c, 0, 34, 0
5, 443324, Note_on_c, 0, 46, 0
5, 443328, Note_on_c, 0, 46, 110
5, 443328, Note_on_c, 0, 34, 110
5, 443516, Note_on_c, 0, 34, 0
5, 443516, Note_on_c, 0, 46, 0
5, 443520, Note_on_c, 0, 46, 110
5, 443520, Note_on_c, 0, 34, 110
5, 443708, Note_on_c, 0, 34, 0
5, 443708, Note_on_c, 0, 46, 0
5, 443712, Note_on_c, 0, 46, 110
5, 443712, Note_on_c, 0, 34, 110
5, 443900, Note_on_c, 0, 34, 0
5, 443900, Note_on_c, 0, 46, 0
5, 443904, Note_on_c, 0, 46, 110
5, 443904, Note_on_c, 0, 34, 110
5, 444092, Note_on_c, 0, 34, 0
5, 444092, Note_on_c, 0, 46, 0
5, 444096, Note_on_c, 0, 46, 110
5, 444096, Note_on_c, 0, 34, 110
5, 444284, Note_on_c, 0, 34, 0
5, 444284, Note_on_c, 0, 46, 0
5, 444288, Note_on_c, 0, 46, 110
5, 444288, Note_on_c, 0, 34, 110
5, 444476, Note_on_c, 0, 34, 0
5, 444476, Note_on_c, 0, 46, 0
5, 444480, Note_on_c, 0, 46, 110
5, 444480, Note_on_c, 0, 34, 110
5, 444668, Note_on_c, 0, 34, 0
5, 444668, Note_on_c, 0, 46, 0
5, 444672, Note_on_c, 0, 50, 110
5, 444672, Note_on_c, 0, 38, 110
5, 444860, Note_on_c, 0, 38, 0
5, 444860, Note_on_c, 0, 50, 0
5, 444864, Note_on_c, 0, 50, 110
5, 444864, Note_on_c, 0, 38, 110
5, 445052, Note_on_c, 0, 38, 0
5, 445052, Note_on_c, 0, 50, 0
5, 445056, Note_on_c, 0, 50, 110
5, 445056, Note_on_c, 0, 38, 110
5, 445244, Note_on_c, 0, 38, 0
5, 445244, Note_on_c, 0, 50, 0
5, 445248, Note_on_c, 0, 50, 110
5, 445248, Note_on_c, 0, 38, 110
5, 445436, Note_on_c, 0, 38, 0
5, 445436, Note_on_c, 0, 50, 0
5, 445440, Note_on_c, 0, 51, 110
5, 445440, Note_on_c, 0, 39, 110
5, 445628, Note_on_c, 0, 39, 0
5, 445628, Note_on_c, 0, 51, 0
5, 445632, Note_on_c, 0, 39, 110
5, 445632, Note_on_c, 0, 51, 110
5, 445820, Note_on_c, 0, 51, 0
5, 445820, Note_on_c, 0, 39, 0
5, 445824, Note_on_c, 0, 51, 110
5, 445824, Note_on_c, 0, 39, 110
5, 446012, Note_on_c, 0, 39, 0
5, 446012, Note_on_c, 0, 51, 0
5, 446016, Note_on_c, 0, 51, 110
5, 446016, Note_on_c, 0, 39, 110
5, 446204, Note_on_c, 0, 39, 0
5, 446204, Note_on_c, 0, 51, 0
5, 446208, Note_on_c, 0, 51, 110
5, 446208, Note_on_c, 0, 39, 110
5, 446396, Note_on_c, 0, 39, 0
5, 446396, Note_on_c, 0, 51, 0
5, 446400, Note_on_c, 0, 51, 110
5, 446400, Note_on_c, 0, 39, 110
5, 446588, Note_on_c, 0, 39, 0
5, 446588, Note_on_c, 0, 51, 0
5, 446592, Note_on_c, 0, 51, 110
5, 446592, Note_on_c, 0, 39, 110
5, 446780, Note_on_c, 0, 39, 0
5, 446780, Note_on_c, 0, 51, 0
5, 446784, Note_on_c, 0, 39, 110
5, 446784, Note_on_c, 0, 51, 110
5, 446972, Note_on_c, 0, 51, 0
5, 446972, Note_on_c, 0, 39, 0
5, 446976, Note_on_c, 0, 55, 110
5, 446976, Note_on_c, 0, 43, 110
5, 447164, Note_on_c, 0, 43, 0
5, 447164, Note_on_c, 0, 55, 0
5, 447168, Note_on_c, 0, 55, 110
5, 447168, Note_on_c, 0, 43, 110
5, 447356, Note_on_c, 0, 43, 0
5, 447356, Note_on_c, 0, 55, 0
5, 447360, Note_on_c, 0, 55, 110
5, 447360, Note_on_c, 0, 43, 110
5, 447548, Note_on_c, 0, 43, 0
5, 447548, Note_on_c, 0, 55, 0
5, 447552, Note_on_c, 0, 55, 110
5, 447552, Note_on_c, 0, 43, 110
5, 447740, Note_on_c, 0, 43, 0
5, 447740, Note_on_c, 0, 55, 0
5, 447744, Note_on_c, 0, 43, 110
5, 447744, Note_on_c, 0, 55, 110
5, 447932, Note_on_c, 0, 55, 0
5, 447932, Note_on_c, 0, 43, 0
5, 447936, Note_on_c, 0, 55, 110
5, 447936, Note_on_c, 0, 43, 110
5, 448124, Note_on_c, 0, 43, 0
5, 448124, Note_on_c, 0, 55, 0
5, 448128, Note_on_c, 0, 57, 110
5, 448128, Note_on_c, 0, 45, 110
5, 448316, Note_on_c, 0, 45, 0
5, 448316, Note_on_c, 0, 57, 0
5, 448320, Note_on_c, 0, 45, 110
5, 448320, Note_on_c, 0, 57, 110
5, 448508, Note_on_c, 0, 57, 0
5, 448508, Note_on_c, 0, 45, 0
5, 448512, Note_on_c, 0, 58, 110
5, 448512, Note_on_c, 0, 46, 110
5, 448892, Note_on_c, 0, 46, 0
5, 448892, Note_on_c, 0, 58, 0
5, 448896, Note_on_c, 0, 58, 110
5, 449468, Note_on_c, 0, 58, 0
5, 449472, Note_on_c, 0, 58, 110
5, 449516, Note_on_c, 0, 58, 0
5, 449520, Note_on_c, 0, 60, 110
5, 449564, Note_on_c, 0, 60, 0
5, 449568, Note_on_c, 0, 57, 110
5, 449612, Note_on_c, 0, 57, 0
5, 449616, Note_on_c, 0, 58, 110
5, 449660, Note_on_c, 0, 58, 0
5, 449664, Note_on_c, 0, 62, 110
5, 449852, Note_on_c, 0, 62, 0
5, 449856, Note_on_c, 0, 58, 110
5, 449856, Note_on_c, 0, 46, 110
5, 450044, Note_on_c, 0, 58, 0
5, 450048, Note_on_c, 0, 57, 110
5, 450048, Note_on_c, 0, 45, 110
5, 450052, Note_on_c, 0, 46, 0
5, 450236, Note_on_c, 0, 45, 0
5, 450236, Note_on_c, 0, 57, 0
5, 450240, Note_on_c, 0, 55, 110
5, 450240, Note_on_c, 0, 43, 110
5, 450428, Note_on_c, 0, 43, 0
5, 450428, Note_on_c, 0, 55, 0
5, 450432, Note_on_c, 0, 55, 110
5, 450432, Note_on_c, 0, 43, 110
5, 451004, Note_on_c, 0, 43, 0
5, 451004, Note_on_c, 0, 55, 0
5, 451008, Note_on_c, 0, 55, 110
5, 451052, Note_on_c, 0, 55, 0
5, 451056, Note_on_c, 0, 57, 110
5, 451100, Note_on_c, 0, 57, 0
5, 451104, Note_on_c, 0, 54, 110
5, 451148, Note_on_c, 0, 54, 0
5, 451152, Note_on_c, 0, 55, 110
5, 451196, Note_on_c, 0, 55, 0
5, 451200, Note_on_c, 0, 58, 110
5, 451388, Note_on_c, 0, 58, 0
5, 451392, Note_on_c, 0, 43, 110
5, 451392, Note_on_c, 0, 55, 110
5, 451580, Note_on_c, 0, 55, 0
5, 451580, Note_on_c, 0, 43, 0
5, 451584, Note_on_c, 0, 51, 110
5, 451584, Note_on_c, 0, 39, 110
5, 451772, Note_on_c, 0, 39, 0
5, 451772, Note_on_c, 0, 51, 0
5, 451776, Note_on_c, 0, 50, 110
5, 451776, Note_on_c, 0, 38, 110
5, 451964, Note_on_c, 0, 38, 0
5, 451964, Note_on_c, 0, 50, 0
5, 451968, Note_on_c, 0, 38, 110
5, 451968, Note_on_c, 0, 50, 110
5, 452156, Note_on_c, 0, 50, 0
5, 452156, Note_on_c, 0, 38, 0
5, 452160, Note_on_c, 0, 50, 110
5, 452160, Note_on_c, 0, 38, 110
5, 452348, Note_on_c, 0, 38, 0
5, 452348, Note_on_c, 0, 50, 0
5, 452352, Note_on_c, 0, 53, 110
5, 452352, Note_on_c, 0, 41, 110
5, 452540, Note_on_c, 0, 41, 0
5, 452540, Note_on_c, 0, 53, 0
5, 452544, Note_on_c, 0, 40, 110
5, 452544, Note_on_c, 0, 52, 110
5, 452732, Note_on_c, 0, 52, 0
5, 452732, Note_on_c, 0, 40, 0
5, 452736, Note_on_c, 0, 52, 110
5, 452736, Note_on_c, 0, 40, 110
5, 452924, Note_on_c, 0, 40, 0
5, 452924, Note_on_c, 0, 52, 0
5, 452928, Note_on_c, 0, 52, 110
5, 452928, Note_on_c, 0, 40, 110
5, 453116, Note_on_c, 0, 40, 0
5, 453116, Note_on_c, 0, 52, 0
5, 453120, Note_on_c, 0, 53, 110
5, 453120, Note_on_c, 0, 41, 110
5, 453884, Note_on_c, 0, 41, 0
5, 453884, Note_on_c, 0, 53, 0
5, 506880, Note_on_c, 0, 46, 110
5, 506880, Note_on_c, 0, 34, 110
5, 507068, Note_on_c, 0, 34, 0
5, 507068, Note_on_c, 0, 46, 0
5, 507072, Note_on_c, 0, 46, 110
5, 507072, Note_on_c, 0, 34, 110
5, 507260, Note_on_c, 0, 34, 0
5, 507260, Note_on_c, 0, 46, 0
5, 507264, Note_on_c, 0, 46, 110
5, 507264, Note_on_c, 0, 34, 110
5, 507452, Note_on_c, 0, 34, 0
5, 507452, Note_on_c, 0, 46, 0
5, 507456, Note_on_c, 0, 46, 110
5, 507456, Note_on_c, 0, 34, 110
5, 507644, Note_on_c, 0, 34, 0
5, 507644, Note_on_c, 0, 46, 0
5, 507648, Note_on_c, 0, 50, 110
5, 507648, Note_on_c, 0, 38, 110
5, 507836, Note_on_c, 0, 38, 0
5, 507836, Note_on_c, 0, 50, 0
5, 507840, Note_on_c, 0, 50, 110
5, 507840, Note_on_c, 0, 38, 110
5, 508028, Note_on_c, 0, 38, 0
5, 508028, Note_on_c, 0, 50, 0
5, 508032, Note_on_c, 0, 50, 110
5, 508032, Note_on_c, 0, 38, 110
5, 508220, Note_on_c, 0, 38, 0
5, 508220, Note_on_c, 0, 50, 0
5, 508224, Note_on_c, 0, 50, 110
5, 508224, Note_on_c, 0, 38, 110
5, 508412, Note_on_c, 0, 38, 0
5, 508412, Note_on_c, 0, 50, 0
5, 508416, Note_on_c, 0, 51, 110
5, 508416, Note_on_c, 0, 39, 110
5, 508604, Note_on_c, 0, 39, 0
5, 508604, Note_on_c, 0, 51, 0
5, 508608, Note_on_c, 0, 39, 110
5, 508608, Note_on_c, 0, 51, 110
5, 508796, Note_on_c, 0, 51, 0
5, 508796, Note_on_c, 0, 39, 0
5, 508800, Note_on_c, 0, 51, 110
5, 508800, Note_on_c, 0, 39, 110
5, 508988, Note_on_c, 0, 39, 0
5, 508988, Note_on_c, 0, 51, 0
5, 508992, Note_on_c, 0, 51, 110
5, 508992, Note_on_c, 0, 39, 110
5, 509180, Note_on_c, 0, 39, 0
5, 509180, Note_on_c, 0, 51, 0
5, 509184, Note_on_c, 0, 51, 110
5, 509184, Note_on_c, 0, 39, 110
5, 509372, Note_on_c, 0, 39, 0
5, 509372, Note_on_c, 0, 51, 0
5, 509376, Note_on_c, 0, 39, 110
5, 509376, Note_on_c, 0, 51, 110
5, 509564, Note_on_c, 0, 51, 0
5, 509564, Note_on_c, 0, 39, 0
5, 509568, Note_on_c, 0, 51, 110
5, 509568, Note_on_c, 0, 39, 110
5, 509756, Note_on_c, 0, 39, 0
5, 509756, Note_on_c, 0, 51, 0
5, 509760, Note_on_c, 0, 51, 110
5, 509760, Note_on_c, 0, 39, 110
5, 509948, Note_on_c, 0, 39, 0
5, 509948, Note_on_c, 0, 51, 0
5, 509952, Note_on_c, 0, 55, 110
5, 509952, Note_on_c, 0, 43, 110
5, 510140, Note_on_c, 0, 43, 0
5, 510140, Note_on_c, 0, 55, 0
5, 510144, Note_on_c, 0, 43, 110
5, 510144, Note_on_c, 0, 55, 110
5, 510332, Note_on_c, 0, 55, 0
5, 510332, Note_on_c, 0, 43, 0
5, 510336, Note_on_c, 0, 55, 110
5, 510336, Note_on_c, 0, 43, 110
5, 510524, Note_on_c, 0, 43, 0
5, 510524, Note_on_c, 0, 55, 0
5, 510528, Note_on_c, 0, 55, 110
5, 510528, Note_on_c, 0, 43, 110
5, 510716, Note_on_c, 0, 43, 0
5, 510716, Note_on_c, 0, 55, 0
5, 510720, Note_on_c, 0, 55, 110
5, 510720, Note_on_c, 0, 43, 110
5, 510908, Note_on_c, 0, 43, 0
5, 510908, Note_on_c, 0, 55, 0
5, 510912, Note_on_c, 0, 43, 110
5, 510912, Note_on_c, 0, 55, 110
5, 511100, Note_on_c, 0, 55, 0
5, 511100, Note_on_c, 0, 43, 0
5, 511104, Note_on_c, 0, 55, 110
5, 511104, Note_on_c, 0, 43, 110
5, 511292, Note_on_c, 0, 43, 0
5, 511292, Note_on_c, 0, 55, 0
5, 511296, Note_on_c, 0, 55, 110
5, 511296, Note_on_c, 0, 43, 110
5, 511484, Note_on_c, 0, 43, 0
5, 511484, Note_on_c, 0, 55, 0
5, 511488, Note_on_c, 0, 53, 110
5, 511488, Note_on_c, 0, 41, 110
5, 511676, Note_on_c, 0, 41, 0
5, 511676, Note_on_c, 0, 53, 0
5, 511680, Note_on_c, 0, 53, 110
5, 511680, Note_on_c, 0, 41, 110
5, 511868, Note_on_c, 0, 41, 0
5, 511868, Note_on_c, 0, 53, 0
5, 511872, Note_on_c, 0, 53, 110
5, 511872, Note_on_c, 0, 41, 110
5, 512060, Note_on_c, 0, 41, 0
5, 512060, Note_on_c, 0, 53, 0
5, 512064, Note_on_c, 0, 41, 110
5, 512064, Note_on_c, 0, 53, 110
5, 512252, Note_on_c, 0, 53, 0
5, 512252, Note_on_c, 0, 41, 0
5, 512256, Note_on_c, 0, 53, 110
5, 512256, Note_on_c, 0, 41, 110
5, 512444, Note_on_c, 0, 41, 0
5, 512444, Note_on_c, 0, 53, 0
5, 512448, Note_on_c, 0, 53, 110
5, 512448, Note_on_c, 0, 41, 110
5, 512636, Note_on_c, 0, 41, 0
5, 512636, Note_on_c, 0, 53, 0
5, 512640, Note_on_c, 0, 41, 110
5, 512640, Note_on_c, 0, 53, 110
5, 512828, Note_on_c, 0, 53, 0
5, 512828, Note_on_c, 0, 41, 0
5, 512832, Note_on_c, 0, 41, 110
5, 512832, Note_on_c, 0, 53, 110
5, 513020, Note_on_c, 0, 53, 0
5, 513020, Note_on_c, 0, 41, 0
5, 513024, Note_on_c, 0, 46, 110
5, 513404, Note_on_c, 0, 46, 0
5, 513408, Note_on_c, 0, 58, 87
5, 513596, Note_on_c, 0, 58, 0
5, 513600, Note_on_c, 0, 62, 87
5, 513788, Note_on_c, 0, 62, 0
5, 513792, Note_on_c, 0, 65, 87
5, 513980, Note_on_c, 0, 65, 0
5, 513984, Note_on_c, 0, 65, 87
5, 514172, Note_on_c, 0, 65, 0
5, 514176, Note_on_c, 0, 58, 87
5, 514364, Note_on_c, 0, 58, 0
5, 514368, Note_on_c, 0, 62, 87
5, 514556, Note_on_c, 0, 62, 0
5, 514560, Note_on_c, 0, 65, 87
5, 514940, Note_on_c, 0, 65, 0
5, 515328, Note_on_c, 0, 63, 87
5, 515328, Note_on_c, 0, 60, 87
5, 515328, Note_on_c, 0, 53, 87
5, 515900, Note_on_c, 0, 53, 0
5, 515900, Note_on_c, 0, 60, 0
5, 516092, Note_on_c, 0, 63, 0
5, 516096, Note_on_c, 0, 58, 87
5, 516096, Note_on_c, 0, 62, 87
5, 516476, Note_on_c, 0, 62, 0
5, 516476, Note_on_c, 0, 58, 0
5, 516480, Note_on_c, 0, 58, 87
5, 516480, Note_on_c, 0, 46, 87
5, 516668, Note_on_c, 0, 46, 0
5, 516668, Note_on_c, 0, 58, 0
5, 516672, Note_on_c, 0, 50, 87
5, 516860, Note_on_c, 0, 50, 0
5, 516864, Note_on_c, 0, 53, 87
5, 517052, Note_on_c, 0, 53, 0
5, 517056, Note_on_c, 0, 53, 87
5, 517244, Note_on_c, 0, 53, 0
5, 517248, Note_on_c, 0, 46, 87
5, 517436, Note_on_c, 0, 46, 0
5, 517440, Note_on_c, 0, 50, 87
5, 517628, Note_on_c, 0, 50, 0
5, 517632, Note_on_c, 0, 53, 87
5, 518012, Note_on_c, 0, 53, 0
5, 518400, Note_on_c, 0, 63, 87
5, 518400, Note_on_c, 0, 60, 87
5, 518400, Note_on_c, 0, 53, 87
5, 518972, Note_on_c, 0, 53, 0
5, 518972, Note_on_c, 0, 60, 0
5, 518972, Note_on_c, 0, 63, 0
5, 519168, Note_on_c, 0, 58, 87
5, 519168, Note_on_c, 0, 62, 87
5, 519932, Note_on_c, 0, 62, 0
5, 519932, Note_on_c, 0, 58, 0
5, 519936, Note_on_c, 0, 60, 87
5, 519936, Note_on_c, 0, 63, 87
5, 519936, Note_on_c, 0, 53, 87
5, 520700, Note_on_c, 0, 63, 0
5, 520700, Note_on_c, 0, 60, 0
5, 520704, Note_on_c, 0, 58, 87
5, 520704, Note_on_c, 0, 62, 87
5, 520708, Note_on_c, 0, 53, 0
5, 521468, Note_on_c, 0, 62, 0
5, 521468, Note_on_c, 0, 58, 0
5, 521472, Note_on_c, 0, 60, 87
5, 521472, Note_on_c, 0, 63, 87
5, 521472, Note_on_c, 0, 53, 87
5, 522236, Note_on_c, 0, 63, 0
5, 522236, Note_on_c, 0, 60, 0
5, 522240, Note_on_c, 0, 62, 87
5, 522240, Note_on_c, 0, 58, 87
5, 522244, Note_on_c, 0, 53, 0
5, 522428, Note_on_c, 0, 58, 0
5, 522428, Note_on_c, 0, 62, 0
5, 525696, Note_on_c, 0, 53, 117
5, 525696, Note_on_c, 0, 41, 117
5, 526076, Note_on_c, 0, 41, 0
5, 526076, Note_on_c, 0, 53, 0
5, 526080, Note_on_c, 0, 58, 117
5, 526080, Note_on_c, 0, 46, 117
5, 526460, Note_on_c, 0, 46, 0
5, 526460, Note_on_c, 0, 58, 0
5, 526464, Note_on_c, 0, 53, 117
5, 526464, Note_on_c, 0, 41, 117
5, 526844, Note_on_c, 0, 41, 0
5, 526844, Note_on_c, 0, 53, 0
5, 526848, Note_on_c, 0, 46, 117
5, 526848, Note_on_c, 0, 34, 117
5, 527228, Note_on_c, 0, 34, 0
5, 527228, Note_on_c, 0, 46, 0
5, 527228, End_track
0, 0, End_of_file
