0, 0, Header, 1, 2, 480
1, 0, Start_track
1, 0, Title_t, "untitled"
1, 0, Time_signature, 4, 2, 24, 8
1, 0, Key_signature, 0, "major"
1, 0, Tempo, 500000
1, 0, End_track
2, 0, Start_track
2, 0, Title_t, "Mozart: Fantasie c-moll"
2, 0, Program_c, 0, 0
2, 0, Control_c, 0, 7, 105
2, 0, Note_on_c, 0, 60, 117
2, 10, Note_on_c, 0, 48, 105
2, 12, Note_on_c, 0, 36, 97
2, 236, Control_c, 0, 64, 127
2, 836, Control_c, 0, 64, 0
2, 1436, Control_c, 0, 64, 127
2, 2014, Note_on_c, 0, 48, 0
2, 2186, Note_on_c, 0, 36, 0
2, 3492, Note_on_c, 0, 63, 43
2, 3518, Note_on_c, 0, 51, 27
2, 3524, Note_on_c, 0, 39, 29
2, 3552, Note_on_c, 0, 60, 0
2, 3632, Control_c, 0, 64, 0
2, 3940, Control_c, 0, 64, 127
2, 4038, Note_on_c, 0, 51, 0
2, 4052, Note_on_c, 0, 39, 0
2, 4364, Note_on_c, 0, 42, 40
2, 4366, Note_on_c, 0, 66, 59
2, 4366, Note_on_c, 0, 54, 31
2, 4510, Note_on_c, 0, 63, 0
2, 4586, Control_c, 0, 64, 0
2, 4846, Control_c, 0, 64, 127
2, 4962, Note_on_c, 0, 42, 0
2, 4978, Note_on_c, 0, 54, 0
2, 5104, Note_on_c, 0, 67, 78
2, 5142, Note_on_c, 0, 55, 43
2, 5142, Note_on_c, 0, 43, 48
2, 5232, Note_on_c, 0, 66, 0
2, 5322, Control_c, 0, 64, 0
2, 5568, Control_c, 0, 64, 127
2, 5588, Note_on_c, 0, 55, 0
2, 5686, Note_on_c, 0, 43, 0
2, 5844, Note_on_c, 0, 68, 78
2, 5852, Note_on_c, 0, 56, 40
2, 5876, Note_on_c, 0, 44, 37
2, 5958, Note_on_c, 0, 67, 0
2, 5984, Control_c, 0, 64, 0
2, 6260, Control_c, 0, 64, 127
2, 6284, Note_on_c, 0, 56, 0
2, 6446, Note_on_c, 0, 44, 0
2, 6702, Note_on_c, 0, 60, 50
2, 6746, Note_on_c, 0, 48, 33
2, 6752, Note_on_c, 0, 36, 29
2, 6874, Note_on_c, 0, 68, 0
2, 6950, Control_c, 0, 64, 0
2, 7228, Note_on_c, 0, 36, 0
2, 7258, Control_c, 0, 64, 127
2, 7270, Note_on_c, 0, 48, 0
2, 7656, Note_on_c, 0, 60, 0
2, 7659, Note_on_c, 0, 59, 39
2, 7700, Note_on_c, 0, 47, 19
2, 7712, Note_on_c, 0, 35, 16
2, 7842, Control_c, 0, 64, 0
2, 8334, Note_on_c, 0, 35, 0
2, 8366, Note_on_c, 0, 47, 0
2, 8380, Control_c, 0, 64, 127
2, 8440, Note_on_c, 0, 59, 0
2, 9072, Control_c, 0, 64, 0
2, 9176, Note_on_c, 0, 75, 74
2, 9186, Note_on_c, 0, 72, 67
2, 9200, Note_on_c, 0, 66, 46
2, 9716, Control_c, 0, 64, 127
2, 9920, Note_on_c, 0, 66, 0
2, 9925, Note_on_c, 0, 72, 0
2, 9936, Note_on_c, 0, 74, 52
2, 9938, Note_on_c, 0, 75, 0
2, 9944, Note_on_c, 0, 67, 42
2, 9956, Note_on_c, 0, 71, 35
2, 9964, Control_c, 0, 64, 0
2, 10198, Note_on_c, 0, 71, 0
2, 10214, Note_on_c, 0, 67, 0
2, 10230, Note_on_c, 0, 74, 0
2, 10254, Control_c, 0, 64, 127
2, 10608, Control_c, 0, 64, 0
2, 10680, Note_on_c, 0, 78, 49
2, 10716, Note_on_c, 0, 68, 35
2, 10730, Note_on_c, 0, 72, 33
2, 11056, Note_on_c, 0, 68, 0
2, 11162, Control_c, 0, 64, 127
2, 11182, Note_on_c, 0, 72, 0
2, 11378, Note_on_c, 0, 78, 0
2, 11668, Note_on_c, 0, 79, 16
2, 11688, Note_on_c, 0, 71, 16
2, 11722, Note_on_c, 0, 67, 13
2, 11946, Control_c, 0, 64, 0
2, 12282, Control_c, 0, 64, 127
2, 12348, Note_on_c, 0, 71, 0
2, 12350, Note_on_c, 0, 79, 0
2, 12374, Note_on_c, 0, 67, 0
2, 12912, Control_c, 0, 64, 0
2, 14854, Note_on_c, 0, 58, 127
2, 14862, Note_on_c, 0, 46, 121
2, 14864, Note_on_c, 0, 34, 120
2, 15724, Control_c, 0, 64, 127
2, 16002, Control_c, 0, 64, 0
2, 16364, Note_on_c, 0, 46, 0
2, 16369, Control_c, 0, 64, 127
2, 16994, Note_on_c, 0, 34, 0
2, 17934, Note_on_c, 0, 61, 74
2, 17956, Note_on_c, 0, 49, 46
2, 17974, Note_on_c, 0, 37, 44
2, 18030, Control_c, 0, 64, 0
2, 18076, Note_on_c, 0, 58, 0
2, 18368, Control_c, 0, 64, 127
2, 18436, Note_on_c, 0, 37, 0
2, 18448, Note_on_c, 0, 49, 0
2, 18680, Note_on_c, 0, 64, 86
2, 18698, Note_on_c, 0, 40, 51
2, 18698, Note_on_c, 0, 52, 52
2, 18746, Note_on_c, 0, 61, 0
2, 18766, Control_c, 0, 64, 0
2, 19044, Control_c, 0, 64, 127
2, 19066, Note_on_c, 0, 65, 88
2, 19069, Note_on_c, 0, 64, 0
2, 19238, Note_on_c, 0, 64, 83
2, 19276, Note_on_c, 0, 65, 0
2, 19340, Note_on_c, 0, 62, 89
2, 19350, Note_on_c, 0, 64, 0
2, 19458, Control_c, 0, 64, 0
2, 19466, Note_on_c, 0, 64, 79
2, 19478, Note_on_c, 0, 62, 0
2, 19674, Note_on_c, 0, 40, 0
2, 19674, Control_c, 0, 64, 127
2, 19688, Note_on_c, 0, 52, 0
2, 19822, Note_on_c, 0, 65, 72
2, 19824, Note_on_c, 0, 41, 58
2, 19842, Control_c, 0, 64, 0
2, 19848, Note_on_c, 0, 53, 29
2, 19884, Note_on_c, 0, 64, 0
2, 20042, Control_c, 0, 64, 127
2, 20064, Note_on_c, 0, 53, 0
2, 20066, Note_on_c, 0, 41, 0
2, 20248, Note_on_c, 0, 67, 73
2, 20270, Note_on_c, 0, 43, 39
2, 20334, Control_c, 0, 64, 0
2, 20358, Note_on_c, 0, 65, 0
2, 20610, Control_c, 0, 64, 127
2, 20762, Note_on_c, 0, 43, 0
2, 21050, Note_on_c, 0, 58, 59
2, 21088, Note_on_c, 0, 34, 37
2, 21092, Note_on_c, 0, 46, 32
2, 21274, Note_on_c, 0, 67, 0
2, 21380, Control_c, 0, 64, 0
2, 21552, Note_on_c, 0, 46, 0
2, 21610, Control_c, 0, 64, 127
2, 21664, Note_on_c, 0, 34, 0
2, 21970, Note_on_c, 0, 45, 36
2, 21970, Note_on_c, 0, 33, 48
2, 21984, Note_on_c, 0, 57, 37
2, 22090, Note_on_c, 0, 58, 0
2, 22148, Control_c, 0, 64, 0
2, 22700, Control_c, 0, 64, 127
2, 22728, Note_on_c, 0, 45, 0
2, 22796, Note_on_c, 0, 57, 0
2, 22916, Note_on_c, 0, 33, 0
2, 23618, Note_on_c, 0, 73, 50
2, 23632, Note_on_c, 0, 70, 48
2, 23652, Control_c, 0, 64, 0
2, 23654, Note_on_c, 0, 64, 55
2, 24252, Control_c, 0, 64, 127
2, 24378, Note_on_c, 0, 64, 0
2, 24396, Note_on_c, 0, 73, 0
2, 24404, Note_on_c, 0, 72, 56
2, 24416, Note_on_c, 0, 69, 31
2, 24430, Note_on_c, 0, 70, 0
2, 24446, Note_on_c, 0, 65, 9
2, 24482, Control_c, 0, 64, 0
2, 24738, Note_on_c, 0, 69, 0
2, 24760, Control_c, 0, 64, 127
2, 24768, Note_on_c, 0, 65, 0
2, 24788, Note_on_c, 0, 72, 0
2, 25066, Control_c, 0, 64, 0
2, 25250, Note_on_c, 0, 73, 47
2, 25250, Note_on_c, 0, 76, 58
2, 25264, Note_on_c, 0, 70, 40
2, 25666, Control_c, 0, 64, 127
2, 25684, Note_on_c, 0, 73, 0
2, 25688, Note_on_c, 0, 70, 0
2, 25808, Note_on_c, 0, 76, 0
2, 26182, Note_on_c, 0, 77, 35
2, 26184, Note_on_c, 0, 72, 32
2, 26206, Note_on_c, 0, 69, 14
2, 26280, Control_c, 0, 64, 0
2, 26732, Note_on_c, 0, 72, 0
2, 26752, Note_on_c, 0, 77, 0
2, 26755, Control_c, 0, 64, 127
2, 26862, Note_on_c, 0, 69, 0
2, 27064, Control_c, 0, 64, 0
2, 29470, Note_on_c, 0, 56, 118
2, 29476, Note_on_c, 0, 44, 97
2, 29478, Note_on_c, 0, 32, 95
2, 30520, Control_c, 0, 64, 127
2, 30706, Control_c, 0, 64, 0
2, 31058, Control_c, 0, 64, 127
2, 31212, Note_on_c, 0, 32, 0
2, 32608, Note_on_c, 0, 60, 63
2, 32611, Note_on_c, 0, 44, 0
2, 32616, Note_on_c, 0, 48, 33
2, 32630, Note_on_c, 0, 36, 34
2, 32720, Note_on_c, 0, 56, 0
2, 32764, Control_c, 0, 64, 0
2, 33026, Control_c, 0, 64, 127
2, 33029, Note_on_c, 0, 48, 0
2, 33306, Note_on_c, 0, 36, 0
2, 33314, Note_on_c, 0, 61, 78
2, 33332, Note_on_c, 0, 49, 57
2, 33332, Note_on_c, 0, 37, 49
2, 33394, Note_on_c, 0, 60, 0
2, 33548, Control_c, 0, 64, 0
2, 33762, Control_c, 0, 64, 127
2, 33806, Note_on_c, 0, 37, 0
2, 33838, Note_on_c, 0, 49, 0
2, 34030, Note_on_c, 0, 65, 92
2, 34036, Note_on_c, 0, 53, 50
2, 34046, Note_on_c, 0, 41, 36
2, 34248, Note_on_c, 0, 61, 0
2, 34270, Control_c, 0, 64, 0
2, 34454, Control_c, 0, 64, 127
2, 34457, Note_on_c, 0, 53, 0
2, 34470, Note_on_c, 0, 41, 0
2, 34676, Note_on_c, 0, 68, 74
2, 34684, Note_on_c, 0, 56, 43
2, 34716, Note_on_c, 0, 44, 27
2, 34794, Note_on_c, 0, 65, 0
2, 34900, Control_c, 0, 64, 0
2, 35160, Control_c, 0, 64, 127
2, 35380, Note_on_c, 0, 61, 57
2, 35430, Note_on_c, 0, 44, 0
2, 35522, Note_on_c, 0, 68, 0
2, 35522, Note_on_c, 0, 56, 0
2, 35668, Control_c, 0, 64, 0
2, 35914, Control_c, 0, 64, 127
2, 36238, Note_on_c, 0, 60, 51
2, 36250, Note_on_c, 0, 44, 24
2, 36254, Note_on_c, 0, 61, 0
2, 36452, Control_c, 0, 64, 0
2, 36498, Control_c, 0, 64, 127
2, 36620, Control_c, 0, 64, 0
2, 36648, Note_on_c, 0, 54, 32
2, 36836, Control_c, 0, 64, 127
2, 36940, Note_on_c, 0, 54, 0
2, 37008, Note_on_c, 0, 51, 20
2, 37018, Note_on_c, 0, 44, 0
2, 37130, Note_on_c, 0, 51, 0
2, 37328, Note_on_c, 0, 54, 36
2, 37554, Note_on_c, 0, 54, 0
2, 37654, Note_on_c, 0, 44, 39
2, 37966, Note_on_c, 0, 54, 36
2, 38024, Note_on_c, 0, 44, 0
2, 38140, Note_on_c, 0, 54, 0
2, 38278, Note_on_c, 0, 62, 72
2, 38332, Note_on_c, 0, 51, 24
2, 38408, Note_on_c, 0, 60, 0
2, 38556, Note_on_c, 0, 54, 42
2, 38570, Note_on_c, 0, 51, 0
2, 38770, Note_on_c, 0, 54, 0
2, 38912, Note_on_c, 0, 63, 80
2, 38942, Note_on_c, 0, 44, 33
2, 39088, Note_on_c, 0, 62, 0
2, 39204, Note_on_c, 0, 54, 48
2, 39204, Control_c, 0, 64, 0
2, 39416, Control_c, 0, 64, 127
2, 39526, Note_on_c, 0, 54, 0
2, 39544, Note_on_c, 0, 66, 95
2, 39580, Note_on_c, 0, 51, 40
2, 39690, Note_on_c, 0, 63, 0
2, 39856, Note_on_c, 0, 54, 55
2, 39872, Note_on_c, 0, 44, 0
2, 40052, Note_on_c, 0, 54, 0
2, 40176, Note_on_c, 0, 51, 0
2, 40188, Note_on_c, 0, 70, 101
2, 40226, Note_on_c, 0, 44, 43
2, 40368, Note_on_c, 0, 66, 0
2, 40506, Note_on_c, 0, 54, 47
2, 40806, Note_on_c, 0, 54, 0
2, 40816, Note_on_c, 0, 60, 89
2, 40838, Note_on_c, 0, 51, 42
2, 40938, Control_c, 0, 64, 0
2, 40990, Note_on_c, 0, 70, 0
2, 41154, Note_on_c, 0, 54, 49
2, 41168, Control_c, 0, 64, 127
2, 41240, Note_on_c, 0, 44, 0
2, 41380, Note_on_c, 0, 51, 0
2, 41436, Note_on_c, 0, 54, 0
2, 41552, Control_c, 0, 64, 0
2, 41554, Note_on_c, 0, 61, 66
2, 41590, Note_on_c, 0, 44, 41
2, 41678, Note_on_c, 0, 60, 0
2, 41912, Note_on_c, 0, 53, 42
2, 42030, Control_c, 0, 64, 127
2, 42130, Note_on_c, 0, 53, 0
2, 42190, Note_on_c, 0, 49, 42
2, 42250, Note_on_c, 0, 44, 0
2, 42426, Note_on_c, 0, 49, 0
2, 42508, Note_on_c, 0, 53, 32
2, 42640, Note_on_c, 0, 53, 0
2, 42792, Note_on_c, 0, 44, 33
2, 43090, Note_on_c, 0, 53, 37
2, 43100, Note_on_c, 0, 44, 0
2, 43364, Note_on_c, 0, 53, 0
2, 43424, Note_on_c, 0, 64, 70
2, 43440, Note_on_c, 0, 49, 28
2, 43572, Note_on_c, 0, 61, 0
2, 43734, Note_on_c, 0, 53, 41
2, 43828, Note_on_c, 0, 49, 0
2, 43894, Note_on_c, 0, 53, 0
2, 44030, Note_on_c, 0, 65, 90
2, 44042, Note_on_c, 0, 44, 37
2, 44074, Note_on_c, 0, 64, 0
2, 44336, Note_on_c, 0, 53, 47
2, 44364, Control_c, 0, 64, 0
2, 44564, Control_c, 0, 64, 127
2, 44616, Note_on_c, 0, 68, 89
2, 44622, Note_on_c, 0, 53, 0
2, 44644, Note_on_c, 0, 49, 47
2, 44684, Note_on_c, 0, 65, 0
2, 44748, Control_c, 0, 64, 0
2, 44948, Control_c, 0, 64, 127
2, 44978, Note_on_c, 0, 44, 0
2, 44986, Note_on_c, 0, 53, 36
2, 45136, Note_on_c, 0, 53, 0
2, 45246, Note_on_c, 0, 49, 0
2, 45258, Note_on_c, 0, 73, 73
2, 45258, Note_on_c, 0, 44, 37
2, 45346, Note_on_c, 0, 68, 0
2, 45508, Control_c, 0, 64, 0
2, 45582, Note_on_c, 0, 53, 50
2, 45670, Control_c, 0, 64, 127
2, 45840, Note_on_c, 0, 53, 0
2, 45850, Note_on_c, 0, 61, 85
2, 45874, Note_on_c, 0, 49, 44
2, 45900, Note_on_c, 0, 73, 0
2, 46106, Note_on_c, 0, 44, 0
2, 46170, Note_on_c, 0, 49, 0
2, 46210, Note_on_c, 0, 53, 42
2, 46260, Note_on_c, 0, 61, 0
2, 46330, Note_on_c, 0, 53, 0
2, 46580, Note_on_c, 0, 60, 92
2, 46590, Note_on_c, 0, 45, 82
2, 46946, Control_c, 0, 64, 0
2, 46954, Note_on_c, 0, 54, 52
2, 47208, Control_c, 0, 64, 127
2, 47238, Note_on_c, 0, 54, 0
2, 47258, Note_on_c, 0, 51, 54
2, 47400, Note_on_c, 0, 45, 0
2, 47462, Note_on_c, 0, 51, 0
2, 47542, Note_on_c, 0, 54, 54
2, 47766, Note_on_c, 0, 54, 0
2, 47894, Note_on_c, 0, 45, 37
2, 47916, Note_on_c, 0, 60, 0
2, 48182, Note_on_c, 0, 54, 41
2, 48458, Note_on_c, 0, 54, 0
2, 48526, Note_on_c, 0, 75, 67
2, 48534, Note_on_c, 0, 45, 0
2, 48570, Note_on_c, 0, 51, 24
2, 48784, Note_on_c, 0, 51, 0
2, 48832, Note_on_c, 0, 54, 41
2, 49086, Note_on_c, 0, 54, 0
2, 49152, Note_on_c, 0, 72, 86
2, 49188, Note_on_c, 0, 45, 43
2, 49328, Control_c, 0, 64, 0
2, 49344, Note_on_c, 0, 75, 0
2, 49458, Note_on_c, 0, 54, 50
2, 49542, Control_c, 0, 64, 127
2, 49702, Note_on_c, 0, 54, 0
2, 49756, Note_on_c, 0, 69, 89
2, 49776, Note_on_c, 0, 51, 42
2, 49792, Note_on_c, 0, 45, 0
2, 49866, Note_on_c, 0, 72, 0
2, 50034, Note_on_c, 0, 51, 0
2, 50056, Note_on_c, 0, 54, 52
2, 50328, Note_on_c, 0, 54, 0
2, 50332, Note_on_c, 0, 66, 90
2, 50352, Note_on_c, 0, 45, 65
2, 50448, Note_on_c, 0, 69, 0
2, 50496, Control_c, 0, 64, 0
2, 50646, Note_on_c, 0, 54, 59
2, 50710, Control_c, 0, 64, 127
2, 50868, Note_on_c, 0, 54, 0
2, 50910, Note_on_c, 0, 63, 92
2, 50944, Note_on_c, 0, 51, 55
2, 50990, Note_on_c, 0, 66, 0
2, 51080, Note_on_c, 0, 45, 0
2, 51194, Note_on_c, 0, 51, 0
2, 51218, Note_on_c, 0, 63, 0
2, 51224, Note_on_c, 0, 54, 48
2, 51396, Note_on_c, 0, 54, 0
2, 51562, Note_on_c, 0, 58, 118
2, 51578, Note_on_c, 0, 46, 110
2, 51910, Note_on_c, 0, 54, 71
2, 52032, Control_c, 0, 64, 0
2, 52208, Note_on_c, 0, 51, 64
2, 52220, Note_on_c, 0, 54, 0
2, 52246, Control_c, 0, 64, 127
2, 52440, Note_on_c, 0, 51, 0
2, 52488, Note_on_c, 0, 46, 0
2, 52504, Note_on_c, 0, 54, 57
2, 52760, Note_on_c, 0, 54, 0
2, 52814, Note_on_c, 0, 58, 0
2, 52817, Note_on_c, 0, 46, 74
2, 53122, Note_on_c, 0, 54, 59
2, 53422, Note_on_c, 0, 54, 0
2, 53446, Note_on_c, 0, 46, 0
2, 53466, Note_on_c, 0, 78, 87
2, 53474, Note_on_c, 0, 51, 48
2, 53750, Note_on_c, 0, 51, 0
2, 53788, Note_on_c, 0, 54, 40
2, 54046, Note_on_c, 0, 54, 0
2, 54128, Note_on_c, 0, 75, 78
2, 54140, Note_on_c, 0, 46, 48
2, 54234, Note_on_c, 0, 78, 0
2, 54430, Note_on_c, 0, 54, 39
2, 54474, Control_c, 0, 64, 0
2, 54674, Control_c, 0, 64, 127
2, 54732, Note_on_c, 0, 54, 0
2, 54740, Note_on_c, 0, 70, 74
2, 54766, Note_on_c, 0, 51, 35
2, 54910, Note_on_c, 0, 75, 0
2, 54928, Note_on_c, 0, 46, 0
2, 55046, Note_on_c, 0, 51, 0
2, 55048, Note_on_c, 0, 54, 42
2, 55284, Note_on_c, 0, 54, 0
2, 55344, Note_on_c, 0, 66, 56
2, 55380, Note_on_c, 0, 46, 44
2, 55428, Control_c, 0, 64, 0
2, 55446, Note_on_c, 0, 70, 0
2, 55640, Note_on_c, 0, 54, 40
2, 55658, Control_c, 0, 64, 127
2, 55914, Note_on_c, 0, 54, 0
2, 55964, Note_on_c, 0, 63, 39
2, 55988, Note_on_c, 0, 51, 25
2, 56014, Note_on_c, 0, 66, 0
2, 56026, Control_c, 0, 64, 0
2, 56242, Control_c, 0, 64, 127
2, 56264, Note_on_c, 0, 51, 0
2, 56288, Note_on_c, 0, 54, 33
2, 56416, Note_on_c, 0, 46, 0
2, 56436, Note_on_c, 0, 54, 0
2, 56672, Control_c, 0, 64, 0
2, 56728, Note_on_c, 0, 59, 29
2, 56730, Note_on_c, 0, 47, 42
2, 56736, Note_on_c, 0, 63, 0
2, 57070, Note_on_c, 0, 63, 47
2, 57070, Note_on_c, 0, 66, 37
2, 57168, Note_on_c, 0, 63, 0
2, 57174, Note_on_c, 0, 66, 0
2, 57362, Note_on_c, 0, 63, 41
2, 57366, Note_on_c, 0, 66, 48
2, 57380, Note_on_c, 0, 59, 0
2, 57432, Note_on_c, 0, 66, 0
2, 57438, Note_on_c, 0, 63, 0
2, 57642, Note_on_c, 0, 63, 48
2, 57646, Note_on_c, 0, 66, 36
2, 57716, Note_on_c, 0, 63, 0
2, 57738, Note_on_c, 0, 66, 0
2, 57746, Control_c, 0, 64, 127
2, 57938, Note_on_c, 0, 63, 39
2, 57956, Note_on_c, 0, 66, 35
2, 57962, Control_c, 0, 64, 0
2, 58030, Note_on_c, 0, 63, 0
2, 58052, Note_on_c, 0, 66, 0
2, 58240, Note_on_c, 0, 63, 55
2, 58243, Note_on_c, 0, 66, 41
2, 58320, Note_on_c, 0, 63, 0
2, 58332, Control_c, 0, 64, 127
2, 58378, Note_on_c, 0, 66, 0
2, 58484, Control_c, 0, 64, 0
2, 58518, Note_on_c, 0, 66, 35
2, 58530, Note_on_c, 0, 63, 44
2, 58533, Note_on_c, 0, 51, 71
2, 58604, Note_on_c, 0, 47, 0
2, 58622, Note_on_c, 0, 63, 0
2, 58678, Note_on_c, 0, 66, 0
2, 58700, Control_c, 0, 64, 127
2, 58746, Control_c, 0, 64, 0
2, 58808, Note_on_c, 0, 66, 43
2, 58824, Note_on_c, 0, 63, 55
2, 58912, Note_on_c, 0, 63, 0
2, 58960, Control_c, 0, 64, 127
2, 58962, Note_on_c, 0, 66, 0
2, 59118, Note_on_c, 0, 54, 85
2, 59126, Note_on_c, 0, 66, 52
2, 59128, Note_on_c, 0, 63, 39
2, 59146, Control_c, 0, 64, 0
2, 59194, Note_on_c, 0, 51, 0
2, 59220, Note_on_c, 0, 63, 0
2, 59256, Note_on_c, 0, 66, 0
2, 59376, Control_c, 0, 64, 127
2, 59406, Control_c, 0, 64, 0
2, 59420, Note_on_c, 0, 66, 63
2, 59426, Note_on_c, 0, 63, 43
2, 59518, Note_on_c, 0, 63, 0
2, 59572, Note_on_c, 0, 66, 0
2, 59622, Control_c, 0, 64, 127
2, 59700, Note_on_c, 0, 66, 34
2, 59702, Note_on_c, 0, 63, 48
2, 59712, Note_on_c, 0, 58, 93
2, 59730, Control_c, 0, 64, 0
2, 59786, Note_on_c, 0, 63, 0
2, 59808, Note_on_c, 0, 54, 0
2, 59832, Note_on_c, 0, 66, 0
2, 59944, Control_c, 0, 64, 127
2, 60000, Note_on_c, 0, 63, 54
2, 60006, Control_c, 0, 64, 0
2, 60014, Note_on_c, 0, 66, 57
2, 60076, Note_on_c, 0, 63, 0
2, 60088, Note_on_c, 0, 66, 0
2, 60174, Control_c, 0, 64, 127
2, 60278, Note_on_c, 0, 66, 41
2, 60280, Note_on_c, 0, 58, 0
2, 60294, Note_on_c, 0, 63, 20
2, 60302, Note_on_c, 0, 59, 60
2, 60374, Control_c, 0, 64, 0
2, 60392, Note_on_c, 0, 63, 0
2, 60416, Note_on_c, 0, 66, 0
2, 60568, Note_on_c, 0, 66, 32
2, 60582, Note_on_c, 0, 63, 33
2, 60590, Control_c, 0, 64, 127
2, 60662, Note_on_c, 0, 63, 0
2, 60700, Note_on_c, 0, 66, 0
2, 60876, Note_on_c, 0, 63, 29
2, 60884, Note_on_c, 0, 66, 43
2, 60916, Note_on_c, 0, 47, 56
2, 60942, Control_c, 0, 64, 0
2, 60966, Note_on_c, 0, 63, 0
2, 60968, Note_on_c, 0, 66, 0
2, 60996, Note_on_c, 0, 59, 0
2, 61128, Control_c, 0, 64, 127
2, 61196, Note_on_c, 0, 63, 35
2, 61196, Note_on_c, 0, 66, 46
2, 61250, Note_on_c, 0, 47, 0
2, 61278, Note_on_c, 0, 63, 0
2, 61310, Note_on_c, 0, 66, 0
2, 61498, Note_on_c, 0, 46, 118
2, 61501, Note_on_c, 0, 66, 74
2, 61506, Note_on_c, 0, 34, 119
2, 61512, Note_on_c, 0, 64, 81
2, 61638, Note_on_c, 0, 64, 0
2, 61680, Note_on_c, 0, 66, 0
2, 61828, Note_on_c, 0, 64, 78
2, 61830, Note_on_c, 0, 66, 78
2, 61850, Control_c, 0, 64, 0
2, 61994, Note_on_c, 0, 64, 0
2, 62016, Note_on_c, 0, 66, 0
2, 62034, Control_c, 0, 64, 127
2, 62098, Note_on_c, 0, 66, 74
2, 62112, Note_on_c, 0, 64, 58
2, 62156, Control_c, 0, 64, 0
2, 62252, Note_on_c, 0, 64, 0
2, 62278, Note_on_c, 0, 66, 0
2, 62312, Control_c, 0, 64, 127
2, 62372, Note_on_c, 0, 66, 58
2, 62390, Note_on_c, 0, 64, 63
2, 62404, Control_c, 0, 64, 0
2, 62524, Note_on_c, 0, 64, 0
2, 62540, Control_c, 0, 64, 127
2, 62550, Note_on_c, 0, 66, 0
2, 62620, Note_on_c, 0, 46, 0
2, 62658, Note_on_c, 0, 66, 42
2, 62678, Control_c, 0, 64, 0
2, 62684, Note_on_c, 0, 64, 58
2, 62804, Note_on_c, 0, 64, 0
2, 62830, Note_on_c, 0, 66, 0
2, 62848, Control_c, 0, 64, 127
2, 62948, Note_on_c, 0, 34, 0
2, 62962, Note_on_c, 0, 66, 25
2, 62986, Note_on_c, 0, 64, 43
2, 63064, Note_on_c, 0, 64, 0
2, 63100, Note_on_c, 0, 66, 0
2, 63298, Note_on_c, 0, 66, 51
2, 63304, Note_on_c, 0, 49, 66
2, 63318, Note_on_c, 0, 64, 26
2, 63390, Note_on_c, 0, 64, 0
2, 63418, Note_on_c, 0, 66, 0
2, 63494, Control_c, 0, 64, 0
2, 63596, Note_on_c, 0, 66, 67
2, 63599, Note_on_c, 0, 64, 56
2, 63694, Control_c, 0, 64, 127
2, 63697, Note_on_c, 0, 64, 0
2, 63728, Note_on_c, 0, 66, 0
2, 63882, Note_on_c, 0, 54, 98
2, 63894, Note_on_c, 0, 66, 57
2, 63896, Note_on_c, 0, 64, 55
2, 63978, Note_on_c, 0, 64, 0
2, 63986, Control_c, 0, 64, 0
2, 64026, Note_on_c, 0, 66, 0
2, 64150, Note_on_c, 0, 49, 0
2, 64153, Control_c, 0, 64, 127
2, 64166, Note_on_c, 0, 66, 63
2, 64176, Note_on_c, 0, 64, 62
2, 64266, Note_on_c, 0, 64, 0
2, 64304, Note_on_c, 0, 66, 0
2, 64448, Note_on_c, 0, 58, 105
2, 64458, Note_on_c, 0, 66, 52
2, 64468, Note_on_c, 0, 64, 50
2, 64508, Control_c, 0, 64, 0
2, 64530, Note_on_c, 0, 64, 0
2, 64564, Note_on_c, 0, 54, 0
2, 64588, Note_on_c, 0, 66, 0
2, 64692, Control_c, 0, 64, 127
2, 64722, Note_on_c, 0, 66, 55
2, 64740, Note_on_c, 0, 64, 54
2, 64816, Note_on_c, 0, 64, 0
2, 64860, Note_on_c, 0, 66, 0
2, 65010, Note_on_c, 0, 66, 36
2, 65022, Note_on_c, 0, 64, 44
2, 65028, Note_on_c, 0, 61, 67
2, 65076, Control_c, 0, 64, 0
2, 65092, Note_on_c, 0, 58, 0
2, 65095, Note_on_c, 0, 64, 0
2, 65152, Note_on_c, 0, 66, 0
2, 65292, Control_c, 0, 64, 127
2, 65324, Note_on_c, 0, 66, 49
2, 65346, Note_on_c, 0, 64, 40
2, 65412, Note_on_c, 0, 64, 0
2, 65454, Note_on_c, 0, 66, 0
2, 65504, Note_on_c, 0, 61, 0
2, 65620, Note_on_c, 0, 46, 87
2, 65634, Note_on_c, 0, 66, 59
2, 65637, Note_on_c, 0, 64, 39
2, 65704, Note_on_c, 0, 64, 0
2, 65709, Note_on_c, 0, 66, 0
2, 65752, Control_c, 0, 64, 0
2, 65922, Control_c, 0, 64, 127
2, 65925, Note_on_c, 0, 66, 60
2, 65930, Note_on_c, 0, 64, 62
2, 65958, Note_on_c, 0, 46, 0
2, 65988, Note_on_c, 0, 64, 0
2, 66062, Note_on_c, 0, 66, 0
2, 66228, Note_on_c, 0, 45, 117
2, 66228, Note_on_c, 0, 61, 97
2, 66231, Note_on_c, 0, 33, 109
2, 66238, Note_on_c, 0, 67, 108
2, 66238, Note_on_c, 0, 64, 105
2, 66406, Note_on_c, 0, 64, 0
2, 66408, Note_on_c, 0, 61, 0
2, 66432, Note_on_c, 0, 67, 0
2, 66526, Note_on_c, 0, 67, 66
2, 66536, Note_on_c, 0, 61, 69
2, 66542, Note_on_c, 0, 64, 67
2, 66552, Control_c, 0, 64, 0
2, 66710, Note_on_c, 0, 64, 0
2, 66720, Note_on_c, 0, 61, 0
2, 66730, Note_on_c, 0, 67, 0
2, 66750, Control_c, 0, 64, 127
2, 66812, Note_on_c, 0, 61, 63
2, 66812, Note_on_c, 0, 64, 70
2, 66815, Note_on_c, 0, 67, 82
2, 66948, Note_on_c, 0, 64, 0
2, 66950, Note_on_c, 0, 61, 0
2, 66972, Note_on_c, 0, 67, 0
2, 67098, Note_on_c, 0, 61, 54
2, 67108, Note_on_c, 0, 67, 47
2, 67112, Note_on_c, 0, 64, 43
2, 67176, Note_on_c, 0, 45, 0
2, 67224, Note_on_c, 0, 64, 0
2, 67232, Note_on_c, 0, 61, 0
2, 67242, Note_on_c, 0, 67, 0
2, 67412, Control_c, 0, 64, 0
2, 67426, Note_on_c, 0, 61, 52
2, 67434, Note_on_c, 0, 67, 72
2, 67440, Note_on_c, 0, 64, 56
2, 67516, Note_on_c, 0, 64, 0
2, 67532, Note_on_c, 0, 67, 0
2, 67536, Note_on_c, 0, 61, 0
2, 67580, Control_c, 0, 64, 127
2, 67628, Note_on_c, 0, 33, 0
2, 67750, Note_on_c, 0, 61, 41
2, 67750, Note_on_c, 0, 64, 52
2, 67770, Note_on_c, 0, 67, 54
2, 67834, Note_on_c, 0, 67, 0
2, 67844, Note_on_c, 0, 64, 0
2, 67850, Note_on_c, 0, 61, 0
2, 68050, Note_on_c, 0, 61, 48
2, 68056, Note_on_c, 0, 64, 54
2, 68062, Note_on_c, 0, 67, 50
2, 68066, Note_on_c, 0, 49, 64
2, 68122, Note_on_c, 0, 61, 0
2, 68124, Note_on_c, 0, 64, 0
2, 68127, Note_on_c, 0, 67, 0
2, 68332, Note_on_c, 0, 67, 58
2, 68344, Note_on_c, 0, 61, 50
2, 68354, Note_on_c, 0, 64, 54
2, 68406, Note_on_c, 0, 61, 0
2, 68408, Note_on_c, 0, 64, 0
2, 68430, Note_on_c, 0, 67, 0
2, 68618, Note_on_c, 0, 52, 95
2, 68620, Note_on_c, 0, 67, 67
2, 68620, Note_on_c, 0, 61, 63
2, 68622, Note_on_c, 0, 64, 58
2, 68626, Control_c, 0, 64, 0
2, 68716, Note_on_c, 0, 49, 0
2, 68720, Note_on_c, 0, 67, 0
2, 68742, Note_on_c, 0, 64, 0
2, 68764, Note_on_c, 0, 61, 0
2, 68840, Control_c, 0, 64, 127
2, 68880, Note_on_c, 0, 61, 55
2, 68890, Note_on_c, 0, 64, 57
2, 68906, Note_on_c, 0, 67, 85
2, 69000, Note_on_c, 0, 61, 0
2, 69012, Note_on_c, 0, 64, 0
2, 69022, Note_on_c, 0, 67, 0
2, 69184, Note_on_c, 0, 61, 59
2, 69194, Note_on_c, 0, 56, 83
2, 69200, Note_on_c, 0, 64, 69
2, 69208, Note_on_c, 0, 67, 59
2, 69230, Note_on_c, 0, 52, 0
2, 69256, Control_c, 0, 64, 0
2, 69264, Note_on_c, 0, 64, 0
2, 69267, Note_on_c, 0, 67, 0
2, 69290, Note_on_c, 0, 61, 0
2, 69456, Control_c, 0, 64, 127
2, 69478, Note_on_c, 0, 61, 63
2, 69481, Note_on_c, 0, 64, 57
2, 69490, Note_on_c, 0, 67, 66
2, 69548, Note_on_c, 0, 67, 0
2, 69550, Note_on_c, 0, 64, 0
2, 69550, Note_on_c, 0, 61, 0
2, 69742, Note_on_c, 0, 56, 0
2, 69776, Note_on_c, 0, 57, 66
2, 69782, Control_c, 0, 64, 0
2, 69788, Note_on_c, 0, 61, 54
2, 69796, Note_on_c, 0, 64, 42
2, 69800, Note_on_c, 0, 67, 44
2, 69868, Note_on_c, 0, 67, 0
2, 69868, Note_on_c, 0, 64, 0
2, 69876, Note_on_c, 0, 61, 0
2, 69992, Control_c, 0, 64, 127
2, 70084, Note_on_c, 0, 61, 52
2, 70087, Note_on_c, 0, 67, 44
2, 70096, Note_on_c, 0, 64, 37
2, 70150, Note_on_c, 0, 61, 0
2, 70156, Note_on_c, 0, 67, 0
2, 70158, Note_on_c, 0, 64, 0
2, 70362, Control_c, 0, 64, 0
2, 70380, Note_on_c, 0, 61, 50
2, 70382, Note_on_c, 0, 57, 0
2, 70392, Note_on_c, 0, 64, 34
2, 70404, Note_on_c, 0, 67, 44
2, 70406, Note_on_c, 0, 45, 75
2, 70480, Note_on_c, 0, 64, 0
2, 70494, Note_on_c, 0, 67, 0
2, 70506, Note_on_c, 0, 61, 0
2, 70560, Control_c, 0, 64, 127
2, 70628, Note_on_c, 0, 45, 0
2, 70692, Note_on_c, 0, 61, 54
2, 70718, Note_on_c, 0, 67, 43
2, 70730, Note_on_c, 0, 64, 43
2, 70790, Note_on_c, 0, 64, 0
2, 70798, Note_on_c, 0, 61, 0
2, 70802, Note_on_c, 0, 67, 0
2, 71068, Note_on_c, 0, 44, 96
2, 71072, Note_on_c, 0, 65, 102
2, 71074, Note_on_c, 0, 32, 104
2, 71076, Note_on_c, 0, 60, 101
2, 71230, Note_on_c, 0, 60, 0
2, 71232, Note_on_c, 0, 65, 0
2, 71404, Note_on_c, 0, 60, 73
2, 71407, Control_c, 0, 64, 0
2, 71410, Note_on_c, 0, 65, 71
2, 71564, Note_on_c, 0, 60, 0
2, 71592, Note_on_c, 0, 65, 0
2, 71606, Control_c, 0, 64, 127
2, 71674, Note_on_c, 0, 65, 78
2, 71686, Note_on_c, 0, 60, 51
2, 71814, Note_on_c, 0, 65, 0
2, 71820, Note_on_c, 0, 60, 0
2, 71968, Note_on_c, 0, 60, 54
2, 71988, Note_on_c, 0, 65, 78
2, 71990, Control_c, 0, 64, 0
2, 72074, Note_on_c, 0, 65, 0
2, 72102, Note_on_c, 0, 60, 0
2, 72136, Note_on_c, 0, 44, 0
2, 72144, Control_c, 0, 64, 127
2, 72264, Note_on_c, 0, 65, 66
2, 72270, Note_on_c, 0, 32, 0
2, 72272, Note_on_c, 0, 60, 60
2, 72336, Note_on_c, 0, 60, 0
2, 72342, Note_on_c, 0, 65, 0
2, 72550, Note_on_c, 0, 60, 50
2, 72566, Note_on_c, 0, 65, 49
2, 72638, Note_on_c, 0, 60, 0
2, 72648, Note_on_c, 0, 65, 0
2, 72876, Note_on_c, 0, 60, 57
2, 72888, Note_on_c, 0, 65, 59
2, 72912, Note_on_c, 0, 48, 83
2, 72970, Note_on_c, 0, 60, 0
2, 72988, Note_on_c, 0, 65, 0
2, 73112, Control_c, 0, 64, 0
2, 73168, Note_on_c, 0, 60, 51
2, 73184, Note_on_c, 0, 65, 73
2, 73256, Note_on_c, 0, 65, 0
2, 73262, Note_on_c, 0, 60, 0
2, 73296, Control_c, 0, 64, 127
2, 73484, Note_on_c, 0, 53, 89
2, 73488, Note_on_c, 0, 60, 54
2, 73496, Note_on_c, 0, 65, 60
2, 73542, Note_on_c, 0, 48, 0
2, 73558, Control_c, 0, 64, 0
2, 73562, Note_on_c, 0, 60, 0
2, 73570, Note_on_c, 0, 65, 0
2, 73758, Control_c, 0, 64, 127
2, 73780, Note_on_c, 0, 60, 62
2, 73784, Note_on_c, 0, 65, 57
2, 73852, Note_on_c, 0, 60, 0
2, 73872, Note_on_c, 0, 65, 0
2, 74040, Note_on_c, 0, 60, 54
2, 74060, Note_on_c, 0, 65, 75
2, 74068, Note_on_c, 0, 55, 92
2, 74070, Note_on_c, 0, 53, 0
2, 74126, Note_on_c, 0, 65, 0
2, 74126, Control_c, 0, 64, 0
2, 74160, Note_on_c, 0, 60, 0
2, 74326, Control_c, 0, 64, 127
2, 74340, Note_on_c, 0, 60, 59
2, 74350, Note_on_c, 0, 65, 63
2, 74412, Note_on_c, 0, 60, 0
2, 74424, Note_on_c, 0, 65, 0
2, 74634, Note_on_c, 0, 55, 0
2, 74644, Note_on_c, 0, 60, 54
2, 74656, Note_on_c, 0, 65, 49
2, 74660, Note_on_c, 0, 56, 64
2, 74680, Control_c, 0, 64, 0
2, 74730, Note_on_c, 0, 60, 0
2, 74742, Note_on_c, 0, 65, 0
2, 74878, Control_c, 0, 64, 127
2, 74942, Note_on_c, 0, 65, 63
2, 74958, Note_on_c, 0, 60, 49
2, 75034, Note_on_c, 0, 60, 0
2, 75046, Note_on_c, 0, 65, 0
2, 75232, Control_c, 0, 64, 0
2, 75248, Note_on_c, 0, 44, 59
2, 75250, Note_on_c, 0, 60, 62
2, 75264, Note_on_c, 0, 65, 50
2, 75340, Note_on_c, 0, 65, 0
2, 75350, Note_on_c, 0, 60, 0
2, 75357, Note_on_c, 0, 56, 0
2, 75418, Control_c, 0, 64, 127
2, 75508, Note_on_c, 0, 44, 0
2, 75558, Note_on_c, 0, 60, 57
2, 75574, Note_on_c, 0, 65, 50
2, 75658, Note_on_c, 0, 65, 0
2, 75686, Note_on_c, 0, 60, 0
2, 75922, Note_on_c, 0, 65, 111
2, 75922, Note_on_c, 0, 62, 100
2, 75926, Note_on_c, 0, 59, 93
2, 75928, Note_on_c, 0, 43, 110
2, 75930, Note_on_c, 0, 31, 116
2, 76134, Note_on_c, 0, 59, 0
2, 76134, Note_on_c, 0, 62, 0
2, 76137, Note_on_c, 0, 65, 0
2, 76256, Note_on_c, 0, 65, 60
2, 76256, Note_on_c, 0, 59, 57
2, 76260, Note_on_c, 0, 62, 58
2, 76338, Control_c, 0, 64, 0
2, 76466, Note_on_c, 0, 62, 0
2, 76474, Note_on_c, 0, 59, 0
2, 76482, Note_on_c, 0, 65, 0
2, 76538, Control_c, 0, 64, 127
2, 76546, Note_on_c, 0, 62, 74
2, 76556, Note_on_c, 0, 59, 75
2, 76556, Note_on_c, 0, 65, 96
2, 76694, Note_on_c, 0, 59, 0
2, 76696, Note_on_c, 0, 65, 0
2, 76700, Note_on_c, 0, 62, 0
2, 76724, Note_on_c, 0, 43, 0
2, 76822, Note_on_c, 0, 59, 44
2, 76822, Note_on_c, 0, 62, 49
2, 76840, Note_on_c, 0, 65, 72
2, 76876, Control_c, 0, 64, 0
2, 76958, Note_on_c, 0, 59, 0
2, 76960, Note_on_c, 0, 62, 0
2, 76974, Note_on_c, 0, 65, 0
2, 76985, Control_c, 0, 64, 127
2, 77122, Note_on_c, 0, 31, 0
2, 77150, Note_on_c, 0, 59, 39
2, 77162, Note_on_c, 0, 65, 48
2, 77164, Note_on_c, 0, 62, 39
2, 77232, Note_on_c, 0, 65, 0
2, 77232, Note_on_c, 0, 59, 0
2, 77235, Note_on_c, 0, 62, 0
2, 77464, Note_on_c, 0, 59, 26
2, 77472, Note_on_c, 0, 65, 50
2, 77476, Note_on_c, 0, 62, 42
2, 77538, Note_on_c, 0, 59, 0
2, 77541, Note_on_c, 0, 65, 0
2, 77550, Note_on_c, 0, 62, 0
2, 77776, Note_on_c, 0, 65, 58
2, 77779, Note_on_c, 0, 62, 58
2, 77786, Note_on_c, 0, 47, 54
2, 77789, Note_on_c, 0, 59, 41
2, 77860, Note_on_c, 0, 59, 0
2, 77866, Note_on_c, 0, 65, 0
2, 77870, Note_on_c, 0, 62, 0
2, 78044, Control_c, 0, 64, 0
2, 78056, Note_on_c, 0, 62, 62
2, 78056, Note_on_c, 0, 65, 60
2, 78062, Note_on_c, 0, 59, 46
2, 78160, Note_on_c, 0, 59, 0
2, 78164, Note_on_c, 0, 65, 0
2, 78166, Control_c, 0, 64, 127
2, 78168, Note_on_c, 0, 62, 0
2, 78360, Note_on_c, 0, 59, 42
2, 78364, Note_on_c, 0, 62, 42
2, 78368, Note_on_c, 0, 50, 88
2, 78384, Note_on_c, 0, 65, 33
2, 78462, Note_on_c, 0, 65, 0
2, 78466, Note_on_c, 0, 62, 0
2, 78468, Note_on_c, 0, 59, 0
2, 78582, Control_c, 0, 64, 0
2, 78658, Note_on_c, 0, 62, 46
2, 78668, Note_on_c, 0, 59, 44
2, 78670, Note_on_c, 0, 65, 33
2, 78676, Note_on_c, 0, 47, 0
2, 78736, Control_c, 0, 64, 127
2, 78742, Note_on_c, 0, 59, 0
2, 78746, Note_on_c, 0, 62, 0
2, 78748, Note_on_c, 0, 65, 0
2, 78964, Note_on_c, 0, 65, 48
2, 78972, Note_on_c, 0, 59, 26
2, 78974, Note_on_c, 0, 54, 60
2, 78976, Note_on_c, 0, 50, 0
2, 78986, Note_on_c, 0, 62, 34
2, 79050, Note_on_c, 0, 59, 0
2, 79058, Note_on_c, 0, 65, 0
2, 79061, Note_on_c, 0, 62, 0
2, 79120, Control_c, 0, 64, 0
2, 79242, Control_c, 0, 64, 127
2, 79256, Note_on_c, 0, 62, 48
2, 79272, Note_on_c, 0, 65, 39
2, 79274, Note_on_c, 0, 59, 26
2, 79344, Note_on_c, 0, 59, 0
2, 79347, Note_on_c, 0, 65, 0
2, 79362, Note_on_c, 0, 62, 0
2, 79518, Note_on_c, 0, 54, 0
2, 79554, Note_on_c, 0, 59, 33
2, 79556, Note_on_c, 0, 55, 69
2, 79564, Note_on_c, 0, 62, 35
2, 79576, Note_on_c, 0, 65, 32
2, 79626, Note_on_c, 0, 59, 0
2, 79640, Note_on_c, 0, 62, 0
2, 79650, Note_on_c, 0, 65, 0
2, 79750, Control_c, 0, 64, 0
2, 79846, Note_on_c, 0, 62, 40
2, 79852, Note_on_c, 0, 65, 54
2, 79854, Note_on_c, 0, 59, 28
2, 79920, Note_on_c, 0, 65, 0
2, 79920, Control_c, 0, 64, 127
2, 79926, Note_on_c, 0, 59, 0
2, 79934, Note_on_c, 0, 62, 0
2, 80146, Note_on_c, 0, 59, 29
2, 80149, Note_on_c, 0, 62, 47
2, 80164, Note_on_c, 0, 65, 52
2, 80168, Note_on_c, 0, 43, 85
2, 80180, Control_c, 0, 64, 0
2, 80238, Note_on_c, 0, 65, 0
2, 80260, Note_on_c, 0, 62, 0
2, 80280, Note_on_c, 0, 59, 0
2, 80344, Note_on_c, 0, 55, 0
2, 80364, Control_c, 0, 64, 127
2, 80456, Note_on_c, 0, 43, 0
2, 80488, Note_on_c, 0, 65, 62
2, 80491, Note_on_c, 0, 59, 52
2, 80500, Note_on_c, 0, 62, 47
2, 80578, Note_on_c, 0, 65, 0
2, 80582, Note_on_c, 0, 62, 0
2, 80592, Note_on_c, 0, 59, 0
2, 80896, Note_on_c, 0, 58, 71
2, 80898, Note_on_c, 0, 42, 81
2, 80908, Note_on_c, 0, 63, 59
2, 80912, Note_on_c, 0, 30, 75
2, 81071, Note_on_c, 0, 58, 0
2, 81096, Note_on_c, 0, 63, 0
2, 81210, Control_c, 0, 64, 0
2, 81248, Note_on_c, 0, 58, 73
2, 81260, Note_on_c, 0, 63, 63
2, 81394, Control_c, 0, 64, 127
2, 81402, Note_on_c, 0, 58, 0
2, 81414, Note_on_c, 0, 63, 0
2, 81518, Note_on_c, 0, 63, 47
2, 81528, Note_on_c, 0, 58, 54
2, 81564, Control_c, 0, 64, 0
2, 81684, Note_on_c, 0, 58, 0
2, 81696, Note_on_c, 0, 63, 0
2, 81732, Control_c, 0, 64, 127
2, 81800, Note_on_c, 0, 63, 40
2, 81802, Note_on_c, 0, 58, 52
2, 81914, Note_on_c, 0, 58, 0
2, 81940, Note_on_c, 0, 63, 0
2, 82112, Note_on_c, 0, 30, 0
2, 82117, Note_on_c, 0, 58, 37
2, 82138, Note_on_c, 0, 42, 0
2, 82141, Note_on_c, 0, 63, 43
2, 82200, Note_on_c, 0, 58, 0
2, 82204, Note_on_c, 0, 63, 0
2, 82420, Note_on_c, 0, 63, 40
2, 82434, Note_on_c, 0, 58, 44
2, 82502, Note_on_c, 0, 63, 0
2, 82508, Note_on_c, 0, 58, 0
2, 82699, Note_on_c, 0, 58, 48
2, 82712, Note_on_c, 0, 63, 43
2, 82712, Note_on_c, 0, 46, 82
2, 82792, Note_on_c, 0, 63, 0
2, 82798, Note_on_c, 0, 58, 0
2, 82990, Note_on_c, 0, 63, 48
2, 82995, Note_on_c, 0, 58, 51
2, 83072, Note_on_c, 0, 58, 0
2, 83076, Note_on_c, 0, 63, 0
2, 83270, Note_on_c, 0, 58, 56
2, 83276, Note_on_c, 0, 51, 80
2, 83278, Note_on_c, 0, 63, 40
2, 83368, Note_on_c, 0, 58, 0
2, 83374, Note_on_c, 0, 63, 0
2, 83440, Note_on_c, 0, 46, 0
2, 83546, Control_c, 0, 64, 0
2, 83572, Note_on_c, 0, 58, 63
2, 83574, Note_on_c, 0, 63, 48
2, 83674, Note_on_c, 0, 58, 0
2, 83690, Note_on_c, 0, 63, 0
2, 83714, Control_c, 0, 64, 127
2, 83854, Note_on_c, 0, 58, 51
2, 83870, Note_on_c, 0, 63, 36
2, 83880, Note_on_c, 0, 53, 67
2, 83906, Note_on_c, 0, 51, 0
2, 83946, Note_on_c, 0, 58, 0
2, 83952, Note_on_c, 0, 63, 0
2, 84144, Note_on_c, 0, 63, 52
2, 84152, Note_on_c, 0, 58, 51
2, 84234, Note_on_c, 0, 58, 0
2, 84256, Note_on_c, 0, 63, 0
2, 84448, Note_on_c, 0, 58, 44
2, 84450, Note_on_c, 0, 63, 44
2, 84466, Note_on_c, 0, 54, 57
2, 84480, Note_on_c, 0, 53, 0
2, 84482, Control_c, 0, 64, 0
2, 84574, Note_on_c, 0, 58, 0
2, 84576, Note_on_c, 0, 63, 0
2, 84696, Control_c, 0, 64, 127
2, 84770, Note_on_c, 0, 58, 50
2, 84784, Note_on_c, 0, 63, 35
2, 84864, Note_on_c, 0, 63, 0
2, 84864, Note_on_c, 0, 58, 0
2, 85120, Note_on_c, 0, 63, 42
2, 85128, Control_c, 0, 64, 0
2, 85128, Note_on_c, 0, 58, 31
2, 85131, Note_on_c, 0, 42, 49
2, 85228, Note_on_c, 0, 58, 0
2, 85246, Note_on_c, 0, 63, 0
2, 85296, Control_c, 0, 64, 127
2, 85302, Note_on_c, 0, 54, 0
2, 85376, Note_on_c, 0, 42, 0
2, 85422, Note_on_c, 0, 58, 46
2, 85446, Note_on_c, 0, 63, 41
2, 85500, Note_on_c, 0, 58, 0
2, 85510, Note_on_c, 0, 63, 0
2, 85884, Note_on_c, 0, 63, 60
2, 85890, Note_on_c, 0, 52, 49
2, 85896, Note_on_c, 0, 42, 42
2, 85898, Note_on_c, 0, 58, 54
2, 85906, Note_on_c, 0, 54, 12
2, 86172, Control_c, 0, 64, 0
2, 86262, Note_on_c, 0, 61, 67
2, 86282, Note_on_c, 0, 63, 0
2, 86388, Control_c, 0, 64, 127
2, 86426, Note_on_c, 0, 61, 0
2, 86510, Control_c, 0, 64, 0
2, 86522, Note_on_c, 0, 61, 60
2, 86648, Control_c, 0, 64, 127
2, 86666, Note_on_c, 0, 61, 0
2, 86785, Note_on_c, 0, 61, 47
2, 86844, Note_on_c, 0, 52, 0
2, 86908, Note_on_c, 0, 61, 0
2, 87092, Note_on_c, 0, 61, 57
2, 87130, Note_on_c, 0, 51, 43
2, 87132, Note_on_c, 0, 58, 0
2, 87310, Control_c, 0, 64, 0
2, 87420, Note_on_c, 0, 59, 56
2, 87462, Note_on_c, 0, 61, 0
2, 87508, Control_c, 0, 64, 127
2, 87576, Note_on_c, 0, 59, 0
2, 87674, Note_on_c, 0, 59, 51
2, 87818, Note_on_c, 0, 59, 0
2, 87876, Note_on_c, 0, 54, 0
2, 87938, Note_on_c, 0, 51, 0
2, 87946, Note_on_c, 0, 42, 0
2, 87974, Note_on_c, 0, 59, 50
2, 88052, Note_on_c, 0, 59, 0
2, 88288, Note_on_c, 0, 58, 83
2, 88300, Note_on_c, 0, 54, 25
2, 88300, Note_on_c, 0, 49, 35
2, 88304, Note_on_c, 0, 66, 70
2, 88304, Note_on_c, 0, 42, 29
2, 88462, Control_c, 0, 64, 0
2, 88628, Note_on_c, 0, 64, 86
2, 88650, Note_on_c, 0, 66, 0
2, 88708, Control_c, 0, 64, 127
2, 88764, Note_on_c, 0, 64, 0
2, 88862, Control_c, 0, 64, 0
2, 88886, Note_on_c, 0, 64, 54
2, 89014, Note_on_c, 0, 64, 0
2, 89014, Control_c, 0, 64, 127
2, 89184, Note_on_c, 0, 64, 52
2, 89254, Note_on_c, 0, 64, 0
2, 89316, Note_on_c, 0, 58, 0
2, 89478, Note_on_c, 0, 49, 0
2, 89478, Note_on_c, 0, 59, 34
2, 89498, Note_on_c, 0, 64, 52
2, 89504, Note_on_c, 0, 47, 44
2, 89552, Control_c, 0, 64, 0
2, 89782, Note_on_c, 0, 64, 0
2, 89794, Note_on_c, 0, 63, 55
2, 89890, Note_on_c, 0, 59, 0
2, 89890, Control_c, 0, 64, 127
2, 89956, Note_on_c, 0, 63, 0
2, 90066, Note_on_c, 0, 63, 47
2, 90126, Note_on_c, 0, 42, 0
2, 90146, Note_on_c, 0, 54, 0
2, 90168, Note_on_c, 0, 47, 0
2, 90190, Note_on_c, 0, 63, 0
2, 90354, Note_on_c, 0, 63, 50
2, 90432, Note_on_c, 0, 63, 0
2, 90684, Note_on_c, 0, 63, 51
2, 90696, Note_on_c, 0, 58, 48
2, 90702, Note_on_c, 0, 52, 69
2, 90702, Note_on_c, 0, 54, 23
2, 90702, Note_on_c, 0, 42, 31
2, 90704, Control_c, 0, 64, 0
2, 91024, Note_on_c, 0, 63, 0
2, 91027, Note_on_c, 0, 61, 58
2, 91074, Control_c, 0, 64, 127
2, 91102, Note_on_c, 0, 61, 0
2, 91274, Control_c, 0, 64, 0
2, 91284, Note_on_c, 0, 61, 59
2, 91352, Note_on_c, 0, 58, 0
2, 91378, Note_on_c, 0, 61, 0
2, 91428, Control_c, 0, 64, 127
2, 91514, Note_on_c, 0, 52, 0
2, 91566, Note_on_c, 0, 61, 50
2, 91630, Note_on_c, 0, 61, 0
2, 91882, Note_on_c, 0, 61, 46
2, 91916, Note_on_c, 0, 50, 48
2, 92010, Control_c, 0, 64, 0
2, 92200, Note_on_c, 0, 61, 0
2, 92214, Note_on_c, 0, 59, 48
2, 92256, Control_c, 0, 64, 127
2, 92306, Note_on_c, 0, 59, 0
2, 92488, Note_on_c, 0, 54, 0
2, 92528, Note_on_c, 0, 59, 23
2, 92558, Note_on_c, 0, 42, 0
2, 92568, Note_on_c, 0, 50, 0
2, 92588, Note_on_c, 0, 59, 0
2, 92802, Note_on_c, 0, 59, 48
2, 92862, Note_on_c, 0, 59, 0
2, 93132, Control_c, 0, 64, 0
2, 93142, Note_on_c, 0, 54, 23
2, 93142, Note_on_c, 0, 58, 77
2, 93146, Note_on_c, 0, 42, 28
2, 93150, Note_on_c, 0, 49, 41
2, 93152, Note_on_c, 0, 66, 50
2, 93414, Note_on_c, 0, 66, 0
2, 93454, Note_on_c, 0, 64, 73
2, 93532, Control_c, 0, 64, 127
2, 93568, Note_on_c, 0, 64, 0
2, 93750, Note_on_c, 0, 64, 57
2, 93798, Note_on_c, 0, 64, 0
2, 93830, Note_on_c, 0, 58, 0
2, 94018, Note_on_c, 0, 64, 64
2, 94090, Note_on_c, 0, 64, 0
2, 94300, Control_c, 0, 64, 0
2, 94330, Note_on_c, 0, 64, 56
2, 94332, Note_on_c, 0, 49, 0
2, 94344, Note_on_c, 0, 59, 39
2, 94390, Note_on_c, 0, 47, 33
2, 94624, Note_on_c, 0, 62, 52
2, 94626, Note_on_c, 0, 64, 0
2, 94684, Control_c, 0, 64, 127
2, 94768, Note_on_c, 0, 62, 0
2, 94896, Note_on_c, 0, 62, 33
2, 95008, Note_on_c, 0, 62, 0
2, 95122, Note_on_c, 0, 42, 0
2, 95192, Note_on_c, 0, 54, 0
2, 95206, Note_on_c, 0, 62, 52
2, 95222, Note_on_c, 0, 59, 0
2, 95306, Note_on_c, 0, 62, 0
2, 95368, Note_on_c, 0, 47, 0
2, 95578, Note_on_c, 0, 62, 57
2, 95592, Control_c, 0, 64, 0
2, 95598, Note_on_c, 0, 59, 46
2, 95614, Note_on_c, 0, 43, 33
2, 95617, Note_on_c, 0, 55, 28
2, 95814, Note_on_c, 0, 62, 0
2, 95852, Control_c, 0, 64, 127
2, 95928, Note_on_c, 0, 62, 35
2, 96068, Note_on_c, 0, 62, 0
2, 96218, Note_on_c, 0, 59, 0
2, 96240, Note_on_c, 0, 62, 32
2, 96322, Note_on_c, 0, 62, 0
2, 96522, Note_on_c, 0, 62, 43
2, 96576, Note_on_c, 0, 55, 0
2, 96610, Note_on_c, 0, 62, 0
2, 96618, Note_on_c, 0, 43, 0
2, 96818, Note_on_c, 0, 62, 52
2, 96850, Control_c, 0, 64, 0
2, 96974, Note_on_c, 0, 62, 0
2, 97052, Control_c, 0, 64, 127
2, 97076, Note_on_c, 0, 62, 58
2, 97200, Note_on_c, 0, 62, 0
2, 97332, Note_on_c, 0, 62, 43
2, 97444, Note_on_c, 0, 62, 0
2, 97626, Note_on_c, 0, 62, 55
2, 97694, Note_on_c, 0, 62, 0
2, 97880, Control_c, 0, 64, 0
2, 97914, Note_on_c, 0, 62, 51
2, 97920, Note_on_c, 0, 60, 51
2, 98014, Note_on_c, 0, 60, 0
2, 98042, Note_on_c, 0, 62, 0
2, 98080, Control_c, 0, 64, 127
2, 98182, Note_on_c, 0, 62, 37
2, 98190, Note_on_c, 0, 60, 58
2, 98266, Note_on_c, 0, 60, 0
2, 98288, Note_on_c, 0, 62, 0
2, 98456, Note_on_c, 0, 62, 44
2, 98464, Note_on_c, 0, 60, 49
2, 98532, Note_on_c, 0, 60, 0
2, 98544, Note_on_c, 0, 62, 0
2, 98734, Note_on_c, 0, 62, 47
2, 98738, Note_on_c, 0, 60, 50
2, 98806, Note_on_c, 0, 60, 0
2, 98818, Note_on_c, 0, 62, 0
2, 99014, Note_on_c, 0, 62, 47
2, 99020, Note_on_c, 0, 60, 50
2, 99088, Note_on_c, 0, 60, 0
2, 99098, Note_on_c, 0, 62, 0
2, 99278, Control_c, 0, 64, 0
2, 99282, Note_on_c, 0, 38, 74
2, 99282, Note_on_c, 0, 62, 48
2, 99286, Note_on_c, 0, 60, 44
2, 99356, Note_on_c, 0, 60, 0
2, 99359, Note_on_c, 0, 62, 0
2, 99408, Note_on_c, 0, 40, 93
2, 99412, Note_on_c, 0, 38, 0
2, 99512, Note_on_c, 0, 42, 89
2, 99524, Note_on_c, 0, 62, 41
2, 99544, Note_on_c, 0, 60, 41
2, 99558, Note_on_c, 0, 40, 0
2, 99608, Note_on_c, 0, 60, 0
2, 99608, Note_on_c, 0, 62, 0
2, 99656, Note_on_c, 0, 43, 93
2, 99676, Note_on_c, 0, 42, 0
2, 99756, Note_on_c, 0, 62, 48
2, 99762, Note_on_c, 0, 60, 35
2, 99766, Note_on_c, 0, 43, 0
2, 99786, Note_on_c, 0, 45, 89
2, 99830, Note_on_c, 0, 60, 0
2, 99854, Note_on_c, 0, 62, 0
2, 99900, Note_on_c, 0, 42, 78
2, 99908, Note_on_c, 0, 45, 0
2, 100048, Note_on_c, 0, 42, 0
2, 100054, Note_on_c, 0, 62, 47
2, 100054, Note_on_c, 0, 59, 42
2, 100064, Note_on_c, 0, 43, 81
2, 100180, Note_on_c, 0, 59, 0
2, 100198, Note_on_c, 0, 62, 0
2, 100294, Control_c, 0, 64, 127
2, 100366, Note_on_c, 0, 59, 36
2, 100382, Note_on_c, 0, 62, 48
2, 100458, Note_on_c, 0, 62, 0
2, 100458, Note_on_c, 0, 59, 0
2, 100461, Control_c, 0, 64, 0
2, 100600, Control_c, 0, 64, 127
2, 100655, Note_on_c, 0, 62, 59
2, 100655, Note_on_c, 0, 59, 57
2, 100726, Note_on_c, 0, 59, 0
2, 100726, Note_on_c, 0, 43, 0
2, 100729, Note_on_c, 0, 62, 0
2, 100916, Note_on_c, 0, 59, 55
2, 100916, Note_on_c, 0, 62, 56
2, 101034, Note_on_c, 0, 59, 0
2, 101058, Note_on_c, 0, 62, 0
2, 101184, Control_c, 0, 64, 0
2, 101188, Note_on_c, 0, 62, 48
2, 101196, Note_on_c, 0, 60, 74
2, 101360, Note_on_c, 0, 60, 0
2, 101370, Note_on_c, 0, 62, 0
2, 101384, Control_c, 0, 64, 127
2, 101462, Note_on_c, 0, 60, 69
2, 101464, Note_on_c, 0, 62, 59
2, 101472, Note_on_c, 0, 38, 79
2, 101564, Note_on_c, 0, 62, 0
2, 101584, Note_on_c, 0, 60, 0
2, 101602, Note_on_c, 0, 38, 0
2, 101606, Note_on_c, 0, 40, 85
2, 101702, Note_on_c, 0, 42, 77
2, 101724, Note_on_c, 0, 60, 63
2, 101734, Note_on_c, 0, 40, 0
2, 101740, Note_on_c, 0, 62, 65
2, 101798, Note_on_c, 0, 62, 0
2, 101814, Note_on_c, 0, 60, 0
2, 101856, Note_on_c, 0, 43, 89
2, 101870, Note_on_c, 0, 42, 0
2, 101964, Note_on_c, 0, 62, 66
2, 101966, Note_on_c, 0, 60, 92
2, 101968, Note_on_c, 0, 43, 0
2, 101970, Note_on_c, 0, 45, 97
2, 102064, Note_on_c, 0, 62, 0
2, 102074, Note_on_c, 0, 60, 0
2, 102092, Note_on_c, 0, 42, 90
2, 102108, Note_on_c, 0, 45, 0
2, 102182, Control_c, 0, 64, 0
2, 102210, Note_on_c, 0, 42, 0
2, 102236, Note_on_c, 0, 62, 81
2, 102244, Note_on_c, 0, 59, 80
2, 102250, Note_on_c, 0, 43, 96
2, 102402, Note_on_c, 0, 43, 0
2, 102412, Note_on_c, 0, 59, 0
2, 102424, Note_on_c, 0, 62, 0
2, 102440, Control_c, 0, 64, 127
2, 102536, Control_c, 0, 64, 0
2, 102562, Note_on_c, 0, 38, 80
2, 102562, Note_on_c, 0, 62, 49
2, 102564, Note_on_c, 0, 60, 65
2, 102672, Note_on_c, 0, 60, 0
2, 102696, Note_on_c, 0, 40, 90
2, 102706, Note_on_c, 0, 38, 0
2, 102708, Note_on_c, 0, 62, 0
2, 102766, Control_c, 0, 64, 127
2, 102804, Note_on_c, 0, 62, 73
2, 102816, Note_on_c, 0, 42, 71
2, 102824, Note_on_c, 0, 60, 90
2, 102856, Note_on_c, 0, 40, 0
2, 102906, Note_on_c, 0, 60, 0
2, 102926, Note_on_c, 0, 62, 0
2, 102944, Note_on_c, 0, 43, 95
2, 102958, Note_on_c, 0, 42, 0
2, 103052, Note_on_c, 0, 43, 0
2, 103064, Note_on_c, 0, 60, 95
2, 103068, Note_on_c, 0, 62, 89
2, 103068, Note_on_c, 0, 45, 103
2, 103168, Note_on_c, 0, 60, 0
2, 103178, Note_on_c, 0, 62, 0
2, 103184, Note_on_c, 0, 42, 100
2, 103208, Note_on_c, 0, 45, 0
2, 103276, Note_on_c, 0, 42, 0
2, 103304, Control_c, 0, 64, 0
2, 103336, Note_on_c, 0, 59, 93
2, 103338, Note_on_c, 0, 62, 106
2, 103352, Note_on_c, 0, 43, 113
2, 103540, Note_on_c, 0, 59, 0
2, 103544, Note_on_c, 0, 43, 0
2, 103550, Note_on_c, 0, 62, 0
2, 103550, Control_c, 0, 64, 127
2, 103642, Control_c, 0, 64, 0
2, 103652, Note_on_c, 0, 62, 65
2, 103654, Note_on_c, 0, 38, 94
2, 103662, Note_on_c, 0, 60, 86
2, 103792, Note_on_c, 0, 60, 0
2, 103792, Note_on_c, 0, 40, 102
2, 103802, Note_on_c, 0, 62, 0
2, 103854, Note_on_c, 0, 38, 0
2, 103858, Control_c, 0, 64, 127
2, 103900, Note_on_c, 0, 62, 73
2, 103914, Note_on_c, 0, 60, 80
2, 103920, Note_on_c, 0, 42, 83
2, 103934, Control_c, 0, 64, 0
2, 103986, Note_on_c, 0, 40, 0
2, 104020, Note_on_c, 0, 62, 0
2, 104028, Note_on_c, 0, 60, 0
2, 104044, Note_on_c, 0, 43, 102
2, 104074, Note_on_c, 0, 42, 0
2, 104158, Note_on_c, 0, 60, 82
2, 104164, Note_on_c, 0, 43, 0
2, 104166, Note_on_c, 0, 45, 104
2, 104168, Note_on_c, 0, 62, 80
2, 104270, Note_on_c, 0, 60, 0
2, 104290, Note_on_c, 0, 62, 0
2, 104293, Note_on_c, 0, 45, 0
2, 104298, Note_on_c, 0, 42, 92
2, 104301, Control_c, 0, 64, 127
2, 104380, Control_c, 0, 64, 0
2, 104442, Note_on_c, 0, 42, 0
2, 104458, Note_on_c, 0, 59, 74
2, 104468, Note_on_c, 0, 62, 65
2, 104478, Note_on_c, 0, 43, 74
2, 104698, Note_on_c, 0, 59, 0
2, 104776, Note_on_c, 0, 62, 0
2, 104779, Control_c, 0, 64, 127
2, 104796, Note_on_c, 0, 55, 78
2, 104928, Note_on_c, 0, 43, 0
2, 104934, Note_on_c, 0, 57, 83
2, 104948, Note_on_c, 0, 55, 0
2, 105040, Control_c, 0, 64, 0
2, 105048, Note_on_c, 0, 59, 80
2, 105084, Note_on_c, 0, 57, 0
2, 105182, Note_on_c, 0, 60, 88
2, 105240, Note_on_c, 0, 59, 0
2, 105302, Note_on_c, 0, 62, 81
2, 105318, Note_on_c, 0, 60, 0
2, 105414, Note_on_c, 0, 60, 67
2, 105454, Note_on_c, 0, 62, 0
2, 105572, Note_on_c, 0, 60, 0
2, 105596, Note_on_c, 0, 59, 57
2, 105720, Note_on_c, 0, 59, 0
2, 105748, Control_c, 0, 64, 127
2, 105892, Note_on_c, 0, 67, 71
2, 105900, Control_c, 0, 64, 0
2, 106020, Note_on_c, 0, 69, 71
2, 106048, Note_on_c, 0, 67, 0
2, 106130, Note_on_c, 0, 71, 77
2, 106164, Note_on_c, 0, 69, 0
2, 106272, Note_on_c, 0, 72, 97
2, 106306, Note_on_c, 0, 71, 0
2, 106390, Note_on_c, 0, 74, 97
2, 106408, Note_on_c, 0, 72, 0
2, 106514, Note_on_c, 0, 72, 79
2, 106542, Note_on_c, 0, 74, 0
2, 106682, Note_on_c, 0, 72, 0
2, 106688, Note_on_c, 0, 71, 77
2, 106808, Note_on_c, 0, 71, 0
2, 106824, Control_c, 0, 64, 127
2, 106962, Control_c, 0, 64, 0
2, 106965, Note_on_c, 0, 79, 108
2, 107100, Note_on_c, 0, 81, 102
2, 107126, Note_on_c, 0, 79, 0
2, 107210, Note_on_c, 0, 83, 98
2, 107262, Note_on_c, 0, 81, 0
2, 107334, Note_on_c, 0, 84, 113
2, 107390, Note_on_c, 0, 83, 0
2, 107462, Note_on_c, 0, 86, 115
2, 107492, Note_on_c, 0, 84, 0
2, 107594, Note_on_c, 0, 84, 105
2, 107646, Note_on_c, 0, 86, 0
2, 107756, Note_on_c, 0, 83, 97
2, 107758, Note_on_c, 0, 84, 0
2, 107836, Control_c, 0, 64, 127
2, 107914, Control_c, 0, 64, 0
2, 107932, Note_on_c, 0, 83, 0
2, 108056, Note_on_c, 0, 81, 103
2, 108144, Control_c, 0, 64, 127
2, 108222, Control_c, 0, 64, 0
2, 108264, Note_on_c, 0, 81, 0
2, 108390, Control_c, 0, 64, 127
2, 108400, Note_on_c, 0, 79, 102
2, 108528, Control_c, 0, 64, 0
2, 108656, Note_on_c, 0, 79, 0
2, 108698, Control_c, 0, 64, 127
2, 108722, Note_on_c, 0, 78, 96
2, 108790, Control_c, 0, 64, 0
2, 108944, Control_c, 0, 64, 127
2, 108988, Note_on_c, 0, 78, 0
2, 109160, Note_on_c, 0, 77, 108
2, 109170, Note_on_c, 0, 55, 70
2, 109486, Note_on_c, 0, 71, 69
2, 109558, Control_c, 0, 64, 0
2, 109608, Note_on_c, 0, 70, 87
2, 109616, Note_on_c, 0, 71, 0
2, 109774, Note_on_c, 0, 71, 87
2, 109777, Note_on_c, 0, 70, 0
2, 109834, Control_c, 0, 64, 127
2, 109896, Control_c, 0, 64, 0
2, 109904, Note_on_c, 0, 73, 96
2, 109928, Note_on_c, 0, 71, 0
2, 110032, Note_on_c, 0, 74, 105
2, 110044, Note_on_c, 0, 73, 0
2, 110066, Control_c, 0, 64, 127
2, 110168, Note_on_c, 0, 74, 0
2, 110178, Note_on_c, 0, 73, 96
2, 110280, Control_c, 0, 64, 0
2, 110346, Note_on_c, 0, 73, 0
2, 110346, Note_on_c, 0, 74, 97
2, 110572, Control_c, 0, 64, 127
2, 110672, Note_on_c, 0, 73, 82
2, 110694, Note_on_c, 0, 59, 58
2, 110696, Control_c, 0, 64, 0
2, 110704, Note_on_c, 0, 74, 0
2, 110808, Note_on_c, 0, 58, 90
2, 110830, Note_on_c, 0, 59, 0
2, 110952, Note_on_c, 0, 58, 0
2, 110954, Note_on_c, 0, 59, 77
2, 110968, Note_on_c, 0, 71, 75
2, 110974, Note_on_c, 0, 73, 0
2, 111078, Note_on_c, 0, 59, 0
2, 111082, Note_on_c, 0, 61, 89
2, 111192, Note_on_c, 0, 71, 0
2, 111195, Note_on_c, 0, 70, 86
2, 111210, Note_on_c, 0, 61, 0
2, 111218, Note_on_c, 0, 62, 80
2, 111350, Note_on_c, 0, 62, 0
2, 111382, Note_on_c, 0, 61, 73
2, 111464, Note_on_c, 0, 70, 0
2, 111530, Note_on_c, 0, 62, 55
2, 111534, Note_on_c, 0, 61, 0
2, 111556, Note_on_c, 0, 71, 54
2, 111756, Control_c, 0, 64, 127
2, 111810, Note_on_c, 0, 62, 0
2, 111816, Control_c, 0, 64, 0
2, 111822, Note_on_c, 0, 71, 0
2, 111880, Note_on_c, 0, 69, 54
2, 111882, Note_on_c, 0, 61, 52
2, 111956, Note_on_c, 0, 61, 0
2, 111994, Note_on_c, 0, 77, 0
2, 112000, Control_c, 0, 64, 127
2, 112158, Note_on_c, 0, 69, 0
2, 112208, Note_on_c, 0, 59, 46
2, 112210, Note_on_c, 0, 71, 62
2, 112216, Control_c, 0, 64, 0
2, 112226, Note_on_c, 0, 67, 50
2, 112376, Note_on_c, 0, 55, 0
2, 112416, Control_c, 0, 64, 127
2, 112442, Note_on_c, 0, 67, 0
2, 112492, Note_on_c, 0, 59, 0
2, 112522, Note_on_c, 0, 66, 55
2, 112522, Control_c, 0, 64, 0
2, 112548, Note_on_c, 0, 57, 43
2, 112692, Control_c, 0, 64, 127
2, 112806, Note_on_c, 0, 57, 0
2, 112816, Note_on_c, 0, 66, 0
2, 112870, Note_on_c, 0, 65, 55
2, 112880, Note_on_c, 0, 55, 51
2, 112908, Control_c, 0, 64, 0
2, 113154, Control_c, 0, 64, 127
2, 113206, Note_on_c, 0, 59, 34
2, 113214, Note_on_c, 0, 74, 75
2, 113230, Control_c, 0, 64, 0
2, 113240, Note_on_c, 0, 71, 0
2, 113360, Note_on_c, 0, 55, 0
2, 113460, Control_c, 0, 64, 127
2, 113506, Control_c, 0, 64, 0
2, 113528, Note_on_c, 0, 59, 0
2, 113528, Note_on_c, 0, 58, 56
2, 113531, Note_on_c, 0, 73, 55
2, 113558, Note_on_c, 0, 74, 0
2, 113752, Control_c, 0, 64, 127
2, 113876, Control_c, 0, 64, 0
2, 113926, Note_on_c, 0, 71, 46
2, 113936, Note_on_c, 0, 73, 0
2, 113956, Note_on_c, 0, 58, 0
2, 113956, Note_on_c, 0, 59, 20
2, 114136, Control_c, 0, 64, 127
2, 114186, Note_on_c, 0, 65, 0
2, 114348, Note_on_c, 0, 59, 0
2, 114430, Note_on_c, 0, 71, 0
2, 114458, Control_c, 0, 64, 0
2, 114460, Note_on_c, 0, 70, 43
2, 114462, Note_on_c, 0, 66, 27
2, 114500, Note_on_c, 0, 61, 27
2, 114512, Note_on_c, 0, 54, 24
2, 115166, Control_c, 0, 64, 127
2, 115364, Note_on_c, 0, 61, 0
2, 115404, Note_on_c, 0, 66, 0
2, 115408, Note_on_c, 0, 70, 0
2, 115418, Note_on_c, 0, 54, 0
2, 115566, Control_c, 0, 64, 0
2, 116230, Note_on_c, 0, 66, 103
2, 116230, Note_on_c, 0, 78, 118
2, 116238, Note_on_c, 0, 47, 83
2, 116240, Note_on_c, 0, 35, 87
2, 116240, Note_on_c, 0, 71, 98
2, 116242, Note_on_c, 0, 74, 112
2, 116350, Control_c, 0, 64, 127
2, 116688, Note_on_c, 0, 35, 0
2, 116752, Note_on_c, 0, 47, 0
2, 117076, Note_on_c, 0, 38, 77
2, 117076, Note_on_c, 0, 50, 66
2, 117148, Control_c, 0, 64, 0
2, 117412, Note_on_c, 0, 71, 0
2, 117470, Control_c, 0, 64, 127
2, 117524, Note_on_c, 0, 74, 0
2, 117576, Note_on_c, 0, 50, 0
2, 117668, Note_on_c, 0, 66, 0
2, 117682, Note_on_c, 0, 38, 0
2, 117686, Note_on_c, 0, 76, 64
2, 117772, Note_on_c, 0, 78, 0
2, 117836, Note_on_c, 0, 76, 0
2, 117839, Note_on_c, 0, 74, 64
2, 117974, Note_on_c, 0, 70, 65
2, 117986, Note_on_c, 0, 73, 70
2, 117996, Note_on_c, 0, 74, 0
2, 117996, Note_on_c, 0, 54, 33
2, 118010, Note_on_c, 0, 42, 33
2, 118070, Control_c, 0, 64, 0
2, 118562, Control_c, 0, 64, 127
2, 118764, Note_on_c, 0, 70, 0
2, 118776, Note_on_c, 0, 42, 0
2, 118792, Note_on_c, 0, 73, 0
2, 118826, Note_on_c, 0, 54, 0
2, 119006, Control_c, 0, 64, 0
2, 119704, Note_on_c, 0, 74, 92
2, 119709, Note_on_c, 0, 68, 54
2, 119732, Note_on_c, 0, 53, 54
2, 119732, Note_on_c, 0, 59, 43
2, 120190, Control_c, 0, 64, 127
2, 120418, Note_on_c, 0, 71, 65
2, 120426, Note_on_c, 0, 59, 0
2, 120438, Note_on_c, 0, 62, 52
2, 120442, Note_on_c, 0, 74, 0
2, 120528, Control_c, 0, 64, 0
2, 120628, Note_on_c, 0, 74, 81
2, 120631, Note_on_c, 0, 59, 54
2, 120634, Note_on_c, 0, 62, 0
2, 120660, Note_on_c, 0, 71, 0
2, 121218, Control_c, 0, 64, 127
2, 121416, Note_on_c, 0, 59, 0
2, 121438, Note_on_c, 0, 53, 0
2, 121480, Note_on_c, 0, 74, 0
2, 121480, Note_on_c, 0, 71, 39
2, 121486, Note_on_c, 0, 62, 33
2, 121680, Control_c, 0, 64, 0
2, 121710, Note_on_c, 0, 70, 57
2, 121724, Note_on_c, 0, 66, 36
2, 121754, Note_on_c, 0, 71, 0
2, 121756, Note_on_c, 0, 62, 0
2, 121762, Note_on_c, 0, 54, 44
2, 121765, Note_on_c, 0, 61, 43
2, 121784, Note_on_c, 0, 68, 0
2, 122432, Control_c, 0, 64, 127
2, 122566, Note_on_c, 0, 54, 0
2, 122566, Note_on_c, 0, 61, 0
2, 122574, Note_on_c, 0, 66, 0
2, 122616, Note_on_c, 0, 70, 0
2, 122910, Control_c, 0, 64, 0
2, 123402, Note_on_c, 0, 66, 66
2, 123616, Control_c, 0, 64, 127
2, 123662, Note_on_c, 0, 66, 0
2, 124046, Control_c, 0, 64, 0
2, 124196, Note_on_c, 0, 66, 93
2, 124492, Control_c, 0, 64, 127
2, 124506, Note_on_c, 0, 66, 0
2, 124954, Control_c, 0, 64, 0
2, 125126, Note_on_c, 0, 71, 71
2, 125536, Control_c, 0, 64, 127
2, 125806, Note_on_c, 0, 71, 0
2, 126336, Control_c, 0, 64, 0
2, 126606, Note_on_c, 0, 54, 58
2, 126618, Note_on_c, 0, 59, 63
2, 126624, Note_on_c, 0, 50, 51
2, 126624, Note_on_c, 0, 38, 50
2, 126828, Note_on_c, 0, 59, 0
2, 126842, Control_c, 0, 64, 127
2, 126944, Note_on_c, 0, 50, 0
2, 126968, Note_on_c, 0, 59, 57
2, 127032, Note_on_c, 0, 38, 0
2, 127058, Note_on_c, 0, 54, 0
2, 127138, Note_on_c, 0, 59, 0
2, 127304, Control_c, 0, 64, 0
2, 127326, Note_on_c, 0, 62, 65
2, 127328, Note_on_c, 0, 59, 52
2, 127336, Note_on_c, 0, 47, 34
2, 127344, Note_on_c, 0, 35, 41
2, 127562, Note_on_c, 0, 62, 0
2, 127580, Control_c, 0, 64, 127
2, 127596, Note_on_c, 0, 47, 0
2, 127599, Note_on_c, 0, 35, 0
2, 127682, Note_on_c, 0, 62, 57
2, 127806, Note_on_c, 0, 59, 0
2, 127886, Note_on_c, 0, 62, 0
2, 128026, Control_c, 0, 64, 0
2, 128058, Note_on_c, 0, 58, 65
2, 128066, Note_on_c, 0, 54, 42
2, 128072, Note_on_c, 0, 66, 58
2, 128078, Note_on_c, 0, 61, 51
2, 128092, Note_on_c, 0, 42, 47
2, 128518, Control_c, 0, 64, 127
2, 128570, Note_on_c, 0, 54, 0
2, 128614, Note_on_c, 0, 58, 0
2, 128666, Note_on_c, 0, 42, 0
2, 128676, Note_on_c, 0, 66, 0
2, 128692, Note_on_c, 0, 61, 0
2, 129164, Control_c, 0, 64, 0
2, 129494, Note_on_c, 0, 54, 55
2, 129504, Note_on_c, 0, 59, 56
2, 129514, Note_on_c, 0, 38, 41
2, 129520, Note_on_c, 0, 50, 41
2, 129654, Control_c, 0, 64, 127
2, 129662, Note_on_c, 0, 59, 0
2, 129764, Note_on_c, 0, 50, 0
2, 129854, Note_on_c, 0, 59, 71
2, 129860, Note_on_c, 0, 38, 0
2, 129890, Note_on_c, 0, 54, 0
2, 129958, Note_on_c, 0, 59, 0
2, 130176, Control_c, 0, 64, 0
2, 130190, Note_on_c, 0, 62, 73
2, 130194, Note_on_c, 0, 59, 44
2, 130210, Note_on_c, 0, 47, 35
2, 130210, Note_on_c, 0, 35, 37
2, 130412, Note_on_c, 0, 62, 0
2, 130438, Control_c, 0, 64, 127
2, 130440, Note_on_c, 0, 35, 0
2, 130512, Note_on_c, 0, 47, 0
2, 130542, Note_on_c, 0, 62, 47
2, 130554, Note_on_c, 0, 59, 0
2, 130692, Note_on_c, 0, 62, 0
2, 130896, Note_on_c, 0, 66, 47
2, 130898, Control_c, 0, 64, 0
2, 130906, Note_on_c, 0, 58, 48
2, 130924, Note_on_c, 0, 54, 26
2, 130926, Note_on_c, 0, 61, 32
2, 130932, Note_on_c, 0, 42, 32
2, 131356, Note_on_c, 0, 61, 0
2, 131368, Note_on_c, 0, 54, 0
2, 131376, Control_c, 0, 64, 127
2, 131384, Note_on_c, 0, 58, 0
2, 131494, Note_on_c, 0, 66, 0
2, 131584, Note_on_c, 0, 42, 0
2, 131820, Control_c, 0, 64, 0
2, 132246, Note_on_c, 0, 54, 34
2, 132284, Note_on_c, 0, 38, 28
2, 132284, Note_on_c, 0, 59, 24
2, 132294, Note_on_c, 0, 50, 26
2, 132406, Control_c, 0, 64, 127
2, 132446, Note_on_c, 0, 59, 0
2, 132492, Note_on_c, 0, 50, 0
2, 132510, Note_on_c, 0, 54, 0
2, 132574, Note_on_c, 0, 38, 0
2, 132670, Note_on_c, 0, 59, 49
2, 132722, Note_on_c, 0, 59, 0
2, 132988, Control_c, 0, 64, 0
2, 133002, Note_on_c, 0, 62, 48
2, 133024, Note_on_c, 0, 59, 32
2, 133036, Note_on_c, 0, 35, 26
2, 133036, Note_on_c, 0, 47, 17
2, 133190, Note_on_c, 0, 62, 0
2, 133240, Note_on_c, 0, 35, 0
2, 133250, Control_c, 0, 64, 127
2, 133272, Note_on_c, 0, 47, 0
2, 133354, Note_on_c, 0, 59, 0
2, 133404, Note_on_c, 0, 62, 37
2, 133492, Note_on_c, 0, 62, 0
2, 133878, Note_on_c, 0, 58, 42
2, 133878, Note_on_c, 0, 66, 31
2, 133901, Note_on_c, 0, 61, 24
2, 133901, Note_on_c, 0, 54, 18
2, 133906, Note_on_c, 0, 42, 20
2, 133958, Control_c, 0, 64, 0
2, 134418, Note_on_c, 0, 58, 0
2, 134418, Control_c, 0, 64, 127
2, 134428, Note_on_c, 0, 54, 0
2, 134452, Note_on_c, 0, 66, 0
2, 134455, Note_on_c, 0, 61, 0
2, 134460, Note_on_c, 0, 42, 0
2, 134864, Control_c, 0, 64, 0
2, 135246, Note_on_c, 0, 66, 28
2, 135252, Note_on_c, 0, 54, 19
2, 135256, Note_on_c, 0, 42, 21
2, 135262, Note_on_c, 0, 61, 28
2, 135262, Note_on_c, 0, 58, 34
2, 135478, Control_c, 0, 64, 127
2, 135520, Note_on_c, 0, 54, 0
2, 135540, Note_on_c, 0, 58, 0
2, 135548, Note_on_c, 0, 61, 0
2, 135572, Note_on_c, 0, 42, 0
2, 135604, Note_on_c, 0, 66, 0
2, 136092, Control_c, 0, 64, 0
2, 136666, Note_on_c, 0, 42, 19
2, 136669, Note_on_c, 0, 54, 20
2, 136669, Note_on_c, 0, 66, 26
2, 136672, Note_on_c, 0, 61, 26
2, 136672, Note_on_c, 0, 58, 36
2, 136862, Control_c, 0, 64, 127
2, 136904, Note_on_c, 0, 54, 0
2, 136918, Note_on_c, 0, 42, 0
2, 136936, Note_on_c, 0, 58, 0
2, 136944, Note_on_c, 0, 61, 0
2, 137044, Note_on_c, 0, 66, 0
2, 137614, Note_on_c, 0, 66, 48
2, 137996, Note_on_c, 0, 66, 0
2, 138286, Note_on_c, 0, 66, 59
2, 138850, Note_on_c, 0, 66, 0
2, 139092, Note_on_c, 0, 66, 41
2, 139166, Control_c, 0, 64, 0
2, 139458, Control_c, 0, 64, 127
2, 139598, Note_on_c, 0, 66, 0
2, 140212, Note_on_c, 0, 66, 58
2, 140256, Note_on_c, 0, 50, 27
2, 140702, Note_on_c, 0, 50, 0
2, 140740, Note_on_c, 0, 57, 24
2, 141028, Note_on_c, 0, 57, 0
2, 141070, Note_on_c, 0, 54, 25
2, 141304, Note_on_c, 0, 54, 0
2, 141308, Note_on_c, 0, 66, 0
2, 141430, Note_on_c, 0, 57, 28
2, 141596, Note_on_c, 0, 57, 0
2, 141772, Note_on_c, 0, 66, 87
2, 141810, Note_on_c, 0, 50, 27
2, 142132, Note_on_c, 0, 57, 39
2, 142174, Note_on_c, 0, 66, 0
2, 142346, Note_on_c, 0, 57, 0
2, 142412, Note_on_c, 0, 50, 0
2, 142438, Note_on_c, 0, 66, 103
2, 142450, Note_on_c, 0, 54, 39
2, 142654, Note_on_c, 0, 54, 0
2, 142724, Note_on_c, 0, 66, 0
2, 142760, Note_on_c, 0, 57, 50
2, 142871, Note_on_c, 0, 57, 0
2, 143170, Note_on_c, 0, 64, 92
2, 143186, Note_on_c, 0, 55, 32
2, 143189, Note_on_c, 0, 50, 20
2, 143314, Control_c, 0, 64, 0
2, 143560, Control_c, 0, 64, 127
2, 143576, Note_on_c, 0, 69, 86
2, 143576, Note_on_c, 0, 61, 44
2, 143602, Note_on_c, 0, 64, 0
2, 143740, Note_on_c, 0, 67, 96
2, 143770, Note_on_c, 0, 69, 0
2, 143788, Note_on_c, 0, 67, 0
2, 143796, Note_on_c, 0, 61, 0
2, 143874, Note_on_c, 0, 67, 81
2, 143900, Note_on_c, 0, 52, 50
2, 143914, Control_c, 0, 64, 0
2, 144174, Control_c, 0, 64, 127
2, 144212, Note_on_c, 0, 61, 42
2, 144218, Note_on_c, 0, 52, 0
2, 144474, Note_on_c, 0, 61, 0
2, 144538, Note_on_c, 0, 52, 48
2, 144834, Note_on_c, 0, 61, 46
2, 144874, Note_on_c, 0, 55, 0
2, 144932, Note_on_c, 0, 52, 0
2, 145068, Note_on_c, 0, 61, 0
2, 145122, Note_on_c, 0, 66, 59
2, 145138, Note_on_c, 0, 54, 47
2, 145232, Note_on_c, 0, 67, 0
2, 145250, Control_c, 0, 64, 0
2, 145448, Note_on_c, 0, 62, 47
2, 145466, Control_c, 0, 64, 127
2, 145514, Note_on_c, 0, 62, 0
2, 145528, Note_on_c, 0, 66, 0
2, 145546, Note_on_c, 0, 54, 0
2, 145562, Note_on_c, 0, 50, 0
2, 145854, Note_on_c, 0, 64, 77
2, 145894, Note_on_c, 0, 43, 28
2, 146094, Control_c, 0, 64, 0
2, 146206, Note_on_c, 0, 55, 52
2, 146310, Control_c, 0, 64, 127
2, 146458, Note_on_c, 0, 55, 0
2, 146540, Note_on_c, 0, 52, 51
2, 146678, Note_on_c, 0, 67, 75
2, 146680, Note_on_c, 0, 52, 0
2, 146804, Note_on_c, 0, 64, 0
2, 146826, Note_on_c, 0, 43, 0
2, 146874, Note_on_c, 0, 67, 0
2, 146886, Note_on_c, 0, 71, 69
2, 146912, Note_on_c, 0, 55, 44
2, 147018, Note_on_c, 0, 67, 71
2, 147028, Note_on_c, 0, 71, 0
2, 147114, Note_on_c, 0, 55, 0
2, 147146, Note_on_c, 0, 64, 80
2, 147180, Note_on_c, 0, 67, 0
2, 147282, Note_on_c, 0, 45, 73
2, 147298, Note_on_c, 0, 54, 21
2, 147308, Note_on_c, 0, 62, 81
2, 147324, Note_on_c, 0, 64, 0
2, 147354, Control_c, 0, 64, 0
2, 147594, Note_on_c, 0, 57, 48
2, 147648, Note_on_c, 0, 54, 0
2, 147678, Control_c, 0, 64, 127
2, 147800, Note_on_c, 0, 57, 0
2, 147904, Note_on_c, 0, 47, 8
2, 147914, Note_on_c, 0, 61, 80
2, 147944, Note_on_c, 0, 55, 41
2, 147986, Note_on_c, 0, 62, 0
2, 148000, Control_c, 0, 64, 0
2, 148016, Note_on_c, 0, 45, 0
2, 148046, Note_on_c, 0, 47, 0
2, 148186, Control_c, 0, 64, 127
2, 148208, Note_on_c, 0, 55, 0
2, 148260, Note_on_c, 0, 52, 58
2, 148306, Note_on_c, 0, 52, 0
2, 148678, Note_on_c, 0, 62, 64
2, 148690, Note_on_c, 0, 54, 36
2, 148718, Note_on_c, 0, 45, 39
2, 148750, Note_on_c, 0, 61, 0
2, 148768, Control_c, 0, 64, 0
2, 149038, Note_on_c, 0, 45, 0
2, 149060, Control_c, 0, 64, 127
2, 149144, Note_on_c, 0, 54, 0
2, 149304, Note_on_c, 0, 62, 0
2, 149326, Note_on_c, 0, 64, 46
2, 149390, Note_on_c, 0, 64, 0
2, 149424, Note_on_c, 0, 66, 58
2, 149568, Note_on_c, 0, 66, 0
2, 149602, Note_on_c, 0, 52, 35
2, 149606, Note_on_c, 0, 64, 67
2, 149608, Note_on_c, 0, 49, 33
2, 149616, Note_on_c, 0, 45, 31
2, 149630, Control_c, 0, 64, 0
2, 150178, Note_on_c, 0, 64, 0
2, 150181, Control_c, 0, 64, 127
2, 150186, Note_on_c, 0, 52, 0
2, 150190, Note_on_c, 0, 49, 0
2, 150330, Note_on_c, 0, 45, 0
2, 150428, Control_c, 0, 64, 0
2, 150544, Note_on_c, 0, 69, 90
2, 150694, Note_on_c, 0, 69, 0
2, 150786, Note_on_c, 0, 71, 95
2, 150890, Note_on_c, 0, 71, 0
2, 150992, Note_on_c, 0, 73, 95
2, 151142, Note_on_c, 0, 73, 0
2, 151206, Note_on_c, 0, 74, 102
2, 151338, Note_on_c, 0, 74, 0
2, 151452, Note_on_c, 0, 76, 105
2, 151612, Control_c, 0, 64, 127
2, 151642, Note_on_c, 0, 76, 0
2, 151734, Control_c, 0, 64, 0
2, 151776, Note_on_c, 0, 62, 39
2, 151800, Note_on_c, 0, 78, 90
2, 152160, Note_on_c, 0, 69, 47
2, 152240, Control_c, 0, 64, 127
2, 152400, Note_on_c, 0, 69, 0
2, 152448, Note_on_c, 0, 62, 0
2, 152472, Note_on_c, 0, 66, 37
2, 152548, Note_on_c, 0, 78, 0
2, 152716, Note_on_c, 0, 66, 0
2, 152812, Note_on_c, 0, 69, 34
2, 152958, Note_on_c, 0, 69, 0
2, 153098, Note_on_c, 0, 78, 73
2, 153114, Note_on_c, 0, 62, 26
2, 153286, Control_c, 0, 64, 0
2, 153470, Note_on_c, 0, 69, 42
2, 153472, Control_c, 0, 64, 127
2, 153536, Note_on_c, 0, 78, 0
2, 153646, Note_on_c, 0, 62, 0
2, 153664, Note_on_c, 0, 69, 0
2, 153760, Note_on_c, 0, 78, 101
2, 153768, Note_on_c, 0, 66, 41
2, 153954, Note_on_c, 0, 66, 0
2, 153988, Note_on_c, 0, 78, 0
2, 154090, Note_on_c, 0, 69, 54
2, 154192, Note_on_c, 0, 69, 0
2, 154378, Note_on_c, 0, 76, 102
2, 154410, Note_on_c, 0, 62, 47
2, 154446, Note_on_c, 0, 67, 28
2, 154484, Control_c, 0, 64, 0
2, 154694, Note_on_c, 0, 81, 101
2, 154716, Control_c, 0, 64, 127
2, 154719, Note_on_c, 0, 76, 0
2, 154722, Note_on_c, 0, 73, 49
2, 154850, Note_on_c, 0, 79, 103
2, 154878, Note_on_c, 0, 81, 0
2, 154888, Note_on_c, 0, 73, 0
2, 154892, Note_on_c, 0, 79, 0
2, 154990, Note_on_c, 0, 67, 0
2, 155016, Note_on_c, 0, 79, 90
2, 155022, Note_on_c, 0, 64, 47
2, 155262, Note_on_c, 0, 64, 0
2, 155272, Note_on_c, 0, 73, 44
2, 155586, Note_on_c, 0, 64, 58
2, 155591, Control_c, 0, 64, 0
2, 155596, Note_on_c, 0, 73, 0
2, 155774, Control_c, 0, 64, 127
2, 155894, Note_on_c, 0, 73, 60
2, 155976, Note_on_c, 0, 64, 0
2, 156096, Note_on_c, 0, 73, 0
2, 156190, Note_on_c, 0, 78, 87
2, 156226, Note_on_c, 0, 66, 54
2, 156298, Control_c, 0, 64, 0
2, 156301, Note_on_c, 0, 79, 0
2, 156482, Control_c, 0, 64, 127
2, 156504, Note_on_c, 0, 74, 77
2, 156544, Note_on_c, 0, 74, 0
2, 156562, Note_on_c, 0, 62, 0
2, 156566, Note_on_c, 0, 66, 0
2, 156644, Note_on_c, 0, 78, 0
2, 156858, Note_on_c, 0, 71, 81
2, 156868, Note_on_c, 0, 55, 43
2, 157126, Control_c, 0, 64, 0
2, 157160, Note_on_c, 0, 67, 65
2, 157372, Control_c, 0, 64, 127
2, 157446, Note_on_c, 0, 67, 0
2, 157522, Note_on_c, 0, 64, 49
2, 157636, Note_on_c, 0, 71, 0
2, 157644, Note_on_c, 0, 76, 83
2, 157658, Note_on_c, 0, 55, 0
2, 157742, Note_on_c, 0, 76, 0
2, 157760, Note_on_c, 0, 79, 79
2, 157798, Note_on_c, 0, 64, 0
2, 157878, Note_on_c, 0, 83, 71
2, 157880, Note_on_c, 0, 79, 0
2, 157894, Note_on_c, 0, 67, 41
2, 157962, Note_on_c, 0, 79, 96
2, 157992, Note_on_c, 0, 83, 0
2, 158080, Note_on_c, 0, 76, 94
2, 158084, Note_on_c, 0, 67, 0
2, 158100, Note_on_c, 0, 79, 0
2, 158124, Note_on_c, 0, 66, 44
2, 158156, Note_on_c, 0, 57, 39
2, 158172, Control_c, 0, 64, 0
2, 158190, Note_on_c, 0, 76, 0
2, 158198, Note_on_c, 0, 74, 95
2, 158478, Note_on_c, 0, 69, 52
2, 158510, Note_on_c, 0, 66, 0
2, 158556, Control_c, 0, 64, 127
2, 158682, Note_on_c, 0, 69, 0
2, 158800, Note_on_c, 0, 73, 49
2, 158816, Note_on_c, 0, 78, 69
2, 158842, Note_on_c, 0, 74, 0
2, 158858, Note_on_c, 0, 67, 41
2, 158880, Control_c, 0, 64, 0
2, 159164, Note_on_c, 0, 76, 69
2, 159174, Note_on_c, 0, 67, 0
2, 159174, Note_on_c, 0, 69, 43
2, 159216, Note_on_c, 0, 78, 0
2, 159386, Control_c, 0, 64, 127
2, 159532, Note_on_c, 0, 69, 0
2, 159554, Control_c, 0, 64, 0
2, 159558, Note_on_c, 0, 73, 0
2, 159572, Note_on_c, 0, 76, 0
2, 159578, Note_on_c, 0, 74, 50
2, 159590, Note_on_c, 0, 66, 39
2, 159600, Note_on_c, 0, 62, 28
2, 159726, Note_on_c, 0, 57, 0
2, 160138, Control_c, 0, 64, 127
2, 160240, Note_on_c, 0, 74, 0
2, 160256, Note_on_c, 0, 66, 0
2, 160296, Note_on_c, 0, 62, 0
2, 160446, Control_c, 0, 64, 0
2, 160684, Note_on_c, 0, 71, 35
2, 160752, Note_on_c, 0, 74, 73
2, 160752, Control_c, 0, 64, 127
2, 160794, Note_on_c, 0, 71, 0
2, 160800, Control_c, 0, 64, 0
2, 160954, Control_c, 0, 64, 127
2, 161000, Control_c, 0, 64, 0
2, 161006, Note_on_c, 0, 69, 59
2, 161048, Note_on_c, 0, 73, 86
2, 161058, Note_on_c, 0, 74, 0
2, 161078, Note_on_c, 0, 69, 0
2, 161198, Control_c, 0, 64, 127
2, 161218, Note_on_c, 0, 73, 0
2, 161300, Note_on_c, 0, 67, 64
2, 161306, Control_c, 0, 64, 0
2, 161348, Note_on_c, 0, 71, 52
2, 161360, Note_on_c, 0, 67, 0
2, 161506, Control_c, 0, 64, 127
2, 161566, Note_on_c, 0, 66, 54
2, 161568, Control_c, 0, 64, 0
2, 161588, Note_on_c, 0, 71, 0
2, 161604, Note_on_c, 0, 69, 65
2, 161714, Note_on_c, 0, 66, 0
2, 161782, Control_c, 0, 64, 127
2, 161860, Control_c, 0, 64, 0
2, 161916, Note_on_c, 0, 64, 40
2, 161920, Note_on_c, 0, 69, 0
2, 161952, Note_on_c, 0, 67, 51
2, 161982, Note_on_c, 0, 64, 0
2, 162152, Control_c, 0, 64, 127
2, 162320, Control_c, 0, 64, 0
2, 162338, Note_on_c, 0, 67, 0
2, 162338, Note_on_c, 0, 66, 55
2, 162370, Note_on_c, 0, 50, 40
2, 162722, Note_on_c, 0, 57, 33
2, 162904, Control_c, 0, 64, 127
2, 162946, Note_on_c, 0, 57, 0
2, 162988, Note_on_c, 0, 50, 0
2, 162998, Note_on_c, 0, 54, 33
2, 163008, Note_on_c, 0, 66, 0
2, 163130, Note_on_c, 0, 54, 0
2, 163324, Note_on_c, 0, 57, 36
2, 163468, Note_on_c, 0, 57, 0
2, 163624, Note_on_c, 0, 66, 83
2, 163672, Note_on_c, 0, 50, 44
2, 163984, Note_on_c, 0, 66, 0
2, 163994, Note_on_c, 0, 57, 29
2, 164142, Note_on_c, 0, 57, 0
2, 164256, Note_on_c, 0, 50, 0
2, 164288, Note_on_c, 0, 66, 93
2, 164318, Note_on_c, 0, 54, 40
2, 164476, Note_on_c, 0, 54, 0
2, 164482, Note_on_c, 0, 66, 0
2, 164592, Note_on_c, 0, 57, 47
2, 164678, Note_on_c, 0, 57, 0
2, 164910, Note_on_c, 0, 64, 87
2, 164922, Note_on_c, 0, 50, 48
2, 164934, Note_on_c, 0, 55, 29
2, 165070, Control_c, 0, 64, 0
2, 165242, Note_on_c, 0, 69, 93
2, 165252, Note_on_c, 0, 64, 0
2, 165256, Note_on_c, 0, 61, 42
2, 165300, Control_c, 0, 64, 127
2, 165418, Note_on_c, 0, 67, 94
2, 165458, Note_on_c, 0, 69, 0
2, 165461, Note_on_c, 0, 61, 0
2, 165474, Note_on_c, 0, 67, 0
2, 165554, Note_on_c, 0, 67, 94
2, 165562, Control_c, 0, 64, 0
2, 165592, Note_on_c, 0, 52, 46
2, 165848, Note_on_c, 0, 52, 0
2, 165864, Note_on_c, 0, 61, 40
2, 165870, Control_c, 0, 64, 127
2, 166086, Note_on_c, 0, 61, 0
2, 166178, Note_on_c, 0, 52, 41
2, 166432, Note_on_c, 0, 52, 0
2, 166476, Note_on_c, 0, 55, 0
2, 166506, Note_on_c, 0, 61, 37
2, 166636, Note_on_c, 0, 61, 0
2, 166842, Note_on_c, 0, 66, 59
2, 166864, Note_on_c, 0, 54, 37
2, 166904, Note_on_c, 0, 67, 0
2, 166914, Control_c, 0, 64, 0
2, 167158, Note_on_c, 0, 50, 0
2, 167160, Note_on_c, 0, 62, 39
2, 167160, Control_c, 0, 64, 127
2, 167180, Note_on_c, 0, 54, 0
2, 167218, Note_on_c, 0, 66, 0
2, 167221, Note_on_c, 0, 62, 0
2, 167478, Note_on_c, 0, 64, 73
2, 167544, Note_on_c, 0, 43, 44
2, 167636, Control_c, 0, 64, 0
2, 167850, Note_on_c, 0, 55, 46
2, 167928, Control_c, 0, 64, 127
2, 168038, Note_on_c, 0, 55, 0
2, 168198, Note_on_c, 0, 52, 47
2, 168244, Note_on_c, 0, 43, 0
2, 168334, Note_on_c, 0, 67, 56
2, 168384, Note_on_c, 0, 64, 0
2, 168448, Note_on_c, 0, 52, 0
2, 168478, Note_on_c, 0, 67, 0
2, 168498, Note_on_c, 0, 71, 67
2, 168548, Note_on_c, 0, 55, 44
2, 168624, Note_on_c, 0, 67, 47
2, 168630, Note_on_c, 0, 71, 0
2, 168726, Note_on_c, 0, 64, 78
2, 168758, Note_on_c, 0, 55, 0
2, 168812, Note_on_c, 0, 67, 0
2, 168850, Note_on_c, 0, 54, 35
2, 168874, Note_on_c, 0, 62, 82
2, 168886, Note_on_c, 0, 64, 0
2, 168902, Note_on_c, 0, 45, 46
2, 169036, Control_c, 0, 64, 0
2, 169180, Note_on_c, 0, 57, 52
2, 169218, Note_on_c, 0, 54, 0
2, 169296, Control_c, 0, 64, 127
2, 169338, Note_on_c, 0, 57, 0
2, 169514, Note_on_c, 0, 61, 72
2, 169536, Note_on_c, 0, 55, 39
2, 169630, Note_on_c, 0, 62, 0
2, 169726, Control_c, 0, 64, 0
2, 169872, Note_on_c, 0, 52, 51
2, 169912, Note_on_c, 0, 55, 0
2, 169912, Control_c, 0, 64, 127
2, 169942, Note_on_c, 0, 45, 0
2, 170050, Note_on_c, 0, 52, 0
2, 170278, Note_on_c, 0, 54, 29
2, 170280, Note_on_c, 0, 62, 52
2, 170282, Note_on_c, 0, 45, 29
2, 170320, Note_on_c, 0, 61, 0
2, 170388, Control_c, 0, 64, 0
2, 170680, Control_c, 0, 64, 127
2, 170738, Note_on_c, 0, 45, 0
2, 170824, Note_on_c, 0, 54, 0
2, 170900, Note_on_c, 0, 64, 40
2, 170908, Note_on_c, 0, 62, 0
2, 171028, Note_on_c, 0, 66, 40
2, 171062, Note_on_c, 0, 64, 0
2, 171110, Note_on_c, 0, 66, 0
2, 171172, Note_on_c, 0, 64, 36
2, 171246, Note_on_c, 0, 52, 29
2, 171256, Note_on_c, 0, 45, 35
2, 171268, Note_on_c, 0, 49, 17
2, 171354, Control_c, 0, 64, 0
2, 171724, Note_on_c, 0, 52, 0
2, 171800, Note_on_c, 0, 49, 0
2, 171814, Note_on_c, 0, 64, 0
2, 171848, Control_c, 0, 64, 127
2, 171922, Note_on_c, 0, 45, 0
2, 172124, Control_c, 0, 64, 0
2, 172332, Note_on_c, 0, 69, 54
2, 172422, Note_on_c, 0, 69, 0
2, 172508, Control_c, 0, 64, 127
2, 172586, Note_on_c, 0, 71, 73
2, 172646, Control_c, 0, 64, 0
2, 172692, Note_on_c, 0, 71, 0
2, 172804, Note_on_c, 0, 73, 85
2, 172926, Note_on_c, 0, 73, 0
2, 173018, Note_on_c, 0, 74, 98
2, 173030, Control_c, 0, 64, 127
2, 173060, Control_c, 0, 64, 0
2, 173146, Note_on_c, 0, 74, 0
2, 173240, Note_on_c, 0, 76, 97
2, 173368, Control_c, 0, 64, 127
2, 173392, Note_on_c, 0, 76, 0
2, 173520, Note_on_c, 0, 78, 86
2, 173536, Note_on_c, 0, 62, 43
2, 173568, Control_c, 0, 64, 0
2, 173920, Note_on_c, 0, 69, 43
2, 173968, Control_c, 0, 64, 127
2, 174094, Note_on_c, 0, 62, 0
2, 174126, Note_on_c, 0, 69, 0
2, 174248, Note_on_c, 0, 66, 44
2, 174282, Note_on_c, 0, 78, 0
2, 174376, Note_on_c, 0, 66, 0
2, 174566, Note_on_c, 0, 69, 50
2, 174752, Note_on_c, 0, 69, 0
2, 174846, Note_on_c, 0, 78, 78
2, 174884, Note_on_c, 0, 62, 34
2, 175010, Note_on_c, 0, 62, 0
2, 175164, Note_on_c, 0, 78, 0
2, 175216, Note_on_c, 0, 69, 39
2, 175314, Note_on_c, 0, 69, 0
2, 175484, Note_on_c, 0, 78, 95
2, 175496, Note_on_c, 0, 66, 46
2, 175714, Note_on_c, 0, 66, 0
2, 175746, Note_on_c, 0, 78, 0
2, 175804, Note_on_c, 0, 69, 64
2, 175880, Note_on_c, 0, 69, 0
2, 176096, Note_on_c, 0, 76, 108
2, 176116, Note_on_c, 0, 62, 35
2, 176180, Note_on_c, 0, 67, 24
2, 176380, Control_c, 0, 64, 0
2, 176408, Note_on_c, 0, 81, 108
2, 176422, Note_on_c, 0, 73, 51
2, 176448, Note_on_c, 0, 76, 0
2, 176548, Control_c, 0, 64, 127
2, 176566, Note_on_c, 0, 79, 111
2, 176618, Note_on_c, 0, 81, 0
2, 176644, Note_on_c, 0, 73, 0
2, 176670, Note_on_c, 0, 79, 0
2, 176750, Note_on_c, 0, 64, 41
2, 176758, Note_on_c, 0, 79, 83
2, 176856, Control_c, 0, 64, 0
2, 177086, Note_on_c, 0, 64, 0
2, 177086, Control_c, 0, 64, 127
2, 177104, Note_on_c, 0, 73, 47
2, 177352, Note_on_c, 0, 73, 0
2, 177428, Note_on_c, 0, 64, 50
2, 177714, Note_on_c, 0, 67, 0
2, 177720, Note_on_c, 0, 73, 44
2, 177722, Note_on_c, 0, 64, 0
2, 177862, Note_on_c, 0, 73, 0
2, 178034, Note_on_c, 0, 78, 62
2, 178054, Note_on_c, 0, 66, 42
2, 178114, Note_on_c, 0, 79, 0
2, 178116, Control_c, 0, 64, 0
2, 178330, Control_c, 0, 64, 127
2, 178358, Note_on_c, 0, 74, 46
2, 178404, Note_on_c, 0, 66, 0
2, 178410, Note_on_c, 0, 74, 0
2, 178410, Note_on_c, 0, 78, 0
2, 178430, Note_on_c, 0, 62, 0
2, 178732, Note_on_c, 0, 71, 54
2, 178746, Note_on_c, 0, 55, 40
2, 178946, Control_c, 0, 64, 0
2, 179078, Note_on_c, 0, 67, 51
2, 179190, Control_c, 0, 64, 127
2, 179290, Note_on_c, 0, 67, 0
2, 179432, Note_on_c, 0, 64, 37
2, 179504, Note_on_c, 0, 55, 0
2, 179542, Note_on_c, 0, 71, 0
2, 179542, Note_on_c, 0, 76, 65
2, 179612, Note_on_c, 0, 76, 0
2, 179634, Note_on_c, 0, 64, 0
2, 179658, Note_on_c, 0, 79, 65
2, 179738, Note_on_c, 0, 79, 0
2, 179774, Note_on_c, 0, 83, 58
2, 179796, Note_on_c, 0, 67, 39
2, 179844, Note_on_c, 0, 83, 0
2, 179896, Note_on_c, 0, 79, 72
2, 179950, Note_on_c, 0, 67, 0
2, 179956, Note_on_c, 0, 79, 0
2, 179990, Note_on_c, 0, 76, 58
2, 180068, Control_c, 0, 64, 0
2, 180078, Note_on_c, 0, 57, 25
2, 180090, Note_on_c, 0, 76, 0
2, 180090, Note_on_c, 0, 66, 24
2, 180128, Note_on_c, 0, 74, 82
2, 180440, Note_on_c, 0, 66, 0
2, 180442, Note_on_c, 0, 69, 41
2, 180528, Control_c, 0, 64, 127
2, 180590, Note_on_c, 0, 69, 0
2, 180728, Note_on_c, 0, 78, 57
2, 180758, Note_on_c, 0, 74, 0
2, 180758, Note_on_c, 0, 73, 40
2, 180798, Note_on_c, 0, 67, 32
2, 180852, Control_c, 0, 64, 0
2, 181098, Note_on_c, 0, 76, 57
2, 181130, Note_on_c, 0, 78, 0
2, 181133, Note_on_c, 0, 69, 39
2, 181152, Note_on_c, 0, 67, 0
2, 181312, Control_c, 0, 64, 127
2, 181326, Note_on_c, 0, 57, 0
2, 181384, Note_on_c, 0, 69, 0
2, 181556, Note_on_c, 0, 73, 0
2, 181584, Note_on_c, 0, 76, 0
2, 181626, Note_on_c, 0, 74, 39
2, 181642, Note_on_c, 0, 66, 20
2, 181666, Note_on_c, 0, 62, 25
2, 181696, Control_c, 0, 64, 0
2, 182172, Control_c, 0, 64, 127
2, 182198, Note_on_c, 0, 66, 0
2, 182298, Note_on_c, 0, 74, 0
2, 182301, Note_on_c, 0, 62, 0
2, 182496, Control_c, 0, 64, 0
2, 182948, Note_on_c, 0, 69, 46
2, 183262, Control_c, 0, 64, 127
2, 183276, Note_on_c, 0, 68, 57
2, 183296, Note_on_c, 0, 69, 0
2, 183310, Control_c, 0, 64, 0
2, 183592, Note_on_c, 0, 69, 89
2, 183666, Note_on_c, 0, 68, 0
2, 183816, Control_c, 0, 64, 127
2, 183890, Note_on_c, 0, 71, 74
2, 183938, Control_c, 0, 64, 0
2, 183952, Note_on_c, 0, 69, 0
2, 184154, Control_c, 0, 64, 127
2, 184176, Note_on_c, 0, 69, 93
2, 184194, Note_on_c, 0, 71, 0
2, 184200, Control_c, 0, 64, 0
2, 184354, Control_c, 0, 64, 127
2, 184360, Note_on_c, 0, 69, 0
2, 184506, Note_on_c, 0, 76, 83
2, 184509, Control_c, 0, 64, 0
2, 184509, Note_on_c, 0, 79, 96
2, 184516, Note_on_c, 0, 69, 54
2, 184520, Note_on_c, 0, 61, 59
2, 184680, Note_on_c, 0, 69, 0
2, 184688, Note_on_c, 0, 61, 0
2, 184696, Note_on_c, 0, 76, 0
2, 184724, Note_on_c, 0, 79, 0
2, 184738, Control_c, 0, 64, 127
2, 184846, Control_c, 0, 64, 0
2, 184866, Note_on_c, 0, 79, 69
2, 184868, Note_on_c, 0, 61, 59
2, 184872, Note_on_c, 0, 76, 80
2, 184878, Note_on_c, 0, 69, 49
2, 185030, Note_on_c, 0, 69, 0
2, 185076, Control_c, 0, 64, 127
2, 185092, Note_on_c, 0, 76, 0
2, 185102, Note_on_c, 0, 61, 0
2, 185120, Note_on_c, 0, 79, 0
2, 185198, Control_c, 0, 64, 0
2, 185502, Note_on_c, 0, 69, 90
2, 185614, Control_c, 0, 64, 127
2, 185642, Note_on_c, 0, 69, 0
2, 185798, Control_c, 0, 64, 0
2, 185822, Note_on_c, 0, 78, 94
2, 185825, Note_on_c, 0, 69, 70
2, 185832, Note_on_c, 0, 62, 63
2, 185836, Note_on_c, 0, 74, 88
2, 185972, Note_on_c, 0, 69, 0
2, 185980, Note_on_c, 0, 74, 0
2, 185986, Note_on_c, 0, 62, 0
2, 186014, Control_c, 0, 64, 127
2, 186024, Note_on_c, 0, 78, 0
2, 186120, Control_c, 0, 64, 0
2, 186182, Note_on_c, 0, 78, 69
2, 186182, Note_on_c, 0, 74, 55
2, 186196, Note_on_c, 0, 62, 47
2, 186202, Note_on_c, 0, 69, 55
2, 186338, Note_on_c, 0, 69, 0
2, 186390, Note_on_c, 0, 74, 0
2, 186398, Control_c, 0, 64, 127
2, 186402, Note_on_c, 0, 62, 0
2, 186442, Note_on_c, 0, 78, 0
2, 186536, Control_c, 0, 64, 0
2, 186820, Note_on_c, 0, 69, 35
2, 186874, Control_c, 0, 64, 127
2, 186916, Note_on_c, 0, 69, 0
2, 187134, Control_c, 0, 64, 0
2, 187160, Note_on_c, 0, 73, 52
2, 187162, Note_on_c, 0, 76, 52
2, 187164, Note_on_c, 0, 69, 32
2, 187182, Note_on_c, 0, 57, 36
2, 187266, Note_on_c, 0, 57, 0
2, 187304, Note_on_c, 0, 69, 0
2, 187304, Note_on_c, 0, 73, 0
2, 187344, Note_on_c, 0, 76, 0
2, 187350, Control_c, 0, 64, 127
2, 187474, Control_c, 0, 64, 0
2, 187544, Note_on_c, 0, 73, 41
2, 187556, Note_on_c, 0, 76, 42
2, 187572, Note_on_c, 0, 69, 43
2, 187592, Note_on_c, 0, 57, 19
2, 187740, Note_on_c, 0, 69, 0
2, 187766, Control_c, 0, 64, 127
2, 187798, Note_on_c, 0, 76, 0
2, 187804, Note_on_c, 0, 73, 0
2, 187816, Note_on_c, 0, 57, 0
2, 188010, Control_c, 0, 64, 0
2, 188422, Note_on_c, 0, 69, 46
2, 188548, Control_c, 0, 64, 127
2, 188728, Note_on_c, 0, 68, 69
2, 188733, Note_on_c, 0, 69, 0
2, 188794, Control_c, 0, 64, 0
2, 188994, Control_c, 0, 64, 127
2, 189026, Control_c, 0, 64, 0
2, 189038, Note_on_c, 0, 69, 73
2, 189142, Note_on_c, 0, 68, 0
2, 189286, Control_c, 0, 64, 127
2, 189348, Control_c, 0, 64, 0
2, 189366, Note_on_c, 0, 71, 40
2, 189386, Note_on_c, 0, 69, 0
2, 189548, Control_c, 0, 64, 127
2, 189608, Control_c, 0, 64, 0
2, 189678, Note_on_c, 0, 71, 0
2, 189678, Note_on_c, 0, 69, 48
2, 189762, Control_c, 0, 64, 127
2, 189992, Control_c, 0, 64, 0
2, 190014, Note_on_c, 0, 69, 0
2, 190036, Note_on_c, 0, 49, 37
2, 190041, Note_on_c, 0, 57, 35
2, 190041, Note_on_c, 0, 67, 47
2, 190060, Note_on_c, 0, 64, 47
2, 190224, Control_c, 0, 64, 127
2, 190232, Note_on_c, 0, 57, 0
2, 190236, Note_on_c, 0, 49, 0
2, 190262, Note_on_c, 0, 67, 0
2, 190262, Note_on_c, 0, 64, 0
2, 190346, Control_c, 0, 64, 0
2, 190412, Note_on_c, 0, 67, 35
2, 190426, Note_on_c, 0, 49, 47
2, 190432, Note_on_c, 0, 57, 47
2, 190434, Note_on_c, 0, 64, 29
2, 190616, Note_on_c, 0, 64, 0
2, 190624, Note_on_c, 0, 49, 0
2, 190628, Note_on_c, 0, 57, 0
2, 190638, Control_c, 0, 64, 127
2, 190670, Note_on_c, 0, 67, 0
2, 190746, Control_c, 0, 64, 0
2, 191080, Note_on_c, 0, 69, 54
2, 191268, Control_c, 0, 64, 127
2, 191344, Control_c, 0, 64, 0
2, 191396, Note_on_c, 0, 66, 57
2, 191406, Note_on_c, 0, 69, 0
2, 191408, Note_on_c, 0, 57, 48
2, 191422, Note_on_c, 0, 62, 47
2, 191432, Note_on_c, 0, 50, 47
2, 191552, Note_on_c, 0, 50, 0
2, 191558, Note_on_c, 0, 57, 0
2, 191576, Control_c, 0, 64, 127
2, 191582, Note_on_c, 0, 62, 0
2, 191600, Note_on_c, 0, 66, 0
2, 191682, Control_c, 0, 64, 0
2, 191772, Note_on_c, 0, 62, 47
2, 191784, Note_on_c, 0, 66, 57
2, 191794, Note_on_c, 0, 57, 34
2, 191802, Note_on_c, 0, 50, 39
2, 191944, Control_c, 0, 64, 127
2, 191946, Note_on_c, 0, 57, 0
2, 191954, Note_on_c, 0, 62, 0
2, 191978, Note_on_c, 0, 50, 0
2, 192014, Note_on_c, 0, 66, 0
2, 192114, Control_c, 0, 64, 0
2, 192508, Note_on_c, 0, 69, 48
2, 192682, Control_c, 0, 64, 127
2, 192756, Note_on_c, 0, 69, 0
2, 192836, Control_c, 0, 64, 0
2, 192880, Note_on_c, 0, 61, 40
2, 192888, Note_on_c, 0, 57, 33
2, 192898, Note_on_c, 0, 64, 60
2, 192908, Note_on_c, 0, 45, 41
2, 193034, Note_on_c, 0, 45, 0
2, 193037, Note_on_c, 0, 57, 0
2, 193050, Control_c, 0, 64, 127
2, 193068, Note_on_c, 0, 61, 0
2, 193074, Note_on_c, 0, 64, 0
2, 193204, Control_c, 0, 64, 0
2, 193326, Note_on_c, 0, 57, 39
2, 193328, Note_on_c, 0, 45, 37
2, 193336, Note_on_c, 0, 61, 40
2, 193336, Note_on_c, 0, 64, 48
2, 193504, Note_on_c, 0, 57, 0
2, 193506, Note_on_c, 0, 61, 0
2, 193512, Control_c, 0, 64, 127
2, 193520, Note_on_c, 0, 64, 0
2, 193538, Note_on_c, 0, 45, 0
2, 193880, Control_c, 0, 64, 0
2, 193962, Note_on_c, 0, 68, 59
2, 194156, Control_c, 0, 64, 127
2, 194174, Note_on_c, 0, 71, 65
2, 194196, Note_on_c, 0, 68, 0
2, 194338, Note_on_c, 0, 71, 0
2, 194342, Note_on_c, 0, 69, 83
2, 194434, Control_c, 0, 64, 0
2, 194482, Note_on_c, 0, 73, 96
2, 194494, Note_on_c, 0, 69, 0
2, 194634, Note_on_c, 0, 71, 89
2, 194658, Note_on_c, 0, 73, 0
2, 194664, Control_c, 0, 64, 127
2, 194780, Note_on_c, 0, 74, 105
2, 194818, Control_c, 0, 64, 0
2, 194821, Note_on_c, 0, 71, 0
2, 194908, Note_on_c, 0, 73, 103
2, 194940, Note_on_c, 0, 74, 0
2, 195002, Control_c, 0, 64, 127
2, 195032, Control_c, 0, 64, 0
2, 195072, Note_on_c, 0, 76, 104
2, 195102, Note_on_c, 0, 73, 0
2, 195208, Note_on_c, 0, 74, 101
2, 195218, Note_on_c, 0, 76, 0
2, 195356, Note_on_c, 0, 78, 88
2, 195382, Note_on_c, 0, 74, 0
2, 195506, Note_on_c, 0, 76, 101
2, 195526, Note_on_c, 0, 78, 0
2, 195710, Note_on_c, 0, 79, 81
2, 195712, Note_on_c, 0, 76, 0
2, 195766, Note_on_c, 0, 62, 36
2, 195908, Control_c, 0, 64, 127
2, 195962, Note_on_c, 0, 78, 69
2, 196000, Control_c, 0, 64, 0
2, 196034, Note_on_c, 0, 79, 0
2, 196180, Note_on_c, 0, 69, 37
2, 196492, Note_on_c, 0, 69, 0
2, 196494, Note_on_c, 0, 66, 35
2, 196558, Note_on_c, 0, 62, 0
2, 196568, Control_c, 0, 64, 127
2, 196678, Note_on_c, 0, 66, 0
2, 196780, Note_on_c, 0, 78, 0
2, 196852, Note_on_c, 0, 69, 19
2, 196960, Note_on_c, 0, 69, 0
2, 197168, Note_on_c, 0, 78, 63
2, 197214, Note_on_c, 0, 62, 25
2, 197502, Note_on_c, 0, 78, 0
2, 197530, Note_on_c, 0, 69, 33
2, 197620, Note_on_c, 0, 62, 0
2, 197746, Note_on_c, 0, 69, 0
2, 197818, Note_on_c, 0, 78, 97
2, 197846, Note_on_c, 0, 66, 36
2, 197940, Note_on_c, 0, 66, 0
2, 198046, Note_on_c, 0, 78, 0
2, 198138, Note_on_c, 0, 69, 54
2, 198238, Note_on_c, 0, 69, 0
2, 198438, Note_on_c, 0, 76, 105
2, 198484, Note_on_c, 0, 62, 29
2, 198514, Note_on_c, 0, 67, 21
2, 198628, Control_c, 0, 64, 0
2, 198744, Note_on_c, 0, 81, 94
2, 198760, Note_on_c, 0, 73, 47
2, 198764, Note_on_c, 0, 76, 0
2, 198826, Control_c, 0, 64, 127
2, 198918, Note_on_c, 0, 79, 102
2, 198954, Note_on_c, 0, 81, 0
2, 198954, Note_on_c, 0, 73, 0
2, 198970, Note_on_c, 0, 79, 0
2, 199104, Note_on_c, 0, 79, 83
2, 199116, Note_on_c, 0, 64, 37
2, 199342, Note_on_c, 0, 64, 0
2, 199402, Note_on_c, 0, 73, 43
2, 199648, Note_on_c, 0, 73, 0
2, 199722, Note_on_c, 0, 64, 47
2, 199734, Control_c, 0, 64, 0
2, 199948, Control_c, 0, 64, 127
2, 200028, Note_on_c, 0, 73, 49
2, 200062, Note_on_c, 0, 64, 0
2, 200066, Note_on_c, 0, 67, 0
2, 200182, Note_on_c, 0, 73, 0
2, 200348, Note_on_c, 0, 78, 64
2, 200376, Note_on_c, 0, 66, 41
2, 200442, Note_on_c, 0, 79, 0
2, 200472, Control_c, 0, 64, 0
2, 200670, Note_on_c, 0, 74, 47
2, 200670, Control_c, 0, 64, 127
2, 200722, Note_on_c, 0, 78, 0
2, 200744, Note_on_c, 0, 66, 0
2, 200744, Note_on_c, 0, 74, 0
2, 200758, Note_on_c, 0, 62, 0
2, 201010, Note_on_c, 0, 76, 83
2, 201030, Note_on_c, 0, 55, 47
2, 201240, Control_c, 0, 64, 0
2, 201336, Note_on_c, 0, 67, 60
2, 201454, Control_c, 0, 64, 127
2, 201506, Note_on_c, 0, 67, 0
2, 201688, Note_on_c, 0, 55, 0
2, 201708, Note_on_c, 0, 64, 54
2, 201840, Note_on_c, 0, 79, 81
2, 201872, Note_on_c, 0, 76, 0
2, 201902, Note_on_c, 0, 64, 0
2, 202014, Note_on_c, 0, 79, 0
2, 202024, Note_on_c, 0, 83, 82
2, 202040, Note_on_c, 0, 67, 52
2, 202142, Note_on_c, 0, 83, 0
2, 202144, Note_on_c, 0, 79, 79
2, 202264, Note_on_c, 0, 76, 97
2, 202302, Note_on_c, 0, 79, 0
2, 202318, Note_on_c, 0, 67, 0
2, 202404, Note_on_c, 0, 74, 97
2, 202434, Note_on_c, 0, 57, 37
2, 202440, Note_on_c, 0, 76, 0
2, 202576, Control_c, 0, 64, 0
2, 202704, Note_on_c, 0, 66, 51
2, 202822, Control_c, 0, 64, 127
2, 202944, Note_on_c, 0, 66, 0
2, 202988, Note_on_c, 0, 57, 0
2, 203040, Note_on_c, 0, 78, 74
2, 203046, Note_on_c, 0, 73, 59
2, 203084, Note_on_c, 0, 58, 47
2, 203094, Note_on_c, 0, 74, 0
2, 203114, Control_c, 0, 64, 0
2, 203452, Note_on_c, 0, 76, 74
2, 203474, Note_on_c, 0, 67, 47
2, 203496, Note_on_c, 0, 78, 0
2, 203652, Control_c, 0, 64, 127
2, 203666, Note_on_c, 0, 58, 0
2, 203708, Note_on_c, 0, 67, 0
2, 204012, Note_on_c, 0, 66, 29
2, 204016, Note_on_c, 0, 59, 25
2, 204020, Note_on_c, 0, 74, 41
2, 204036, Note_on_c, 0, 73, 0
2, 204052, Control_c, 0, 64, 0
2, 204068, Note_on_c, 0, 76, 0
2, 204542, Control_c, 0, 64, 127
2, 204598, Note_on_c, 0, 66, 0
2, 204606, Note_on_c, 0, 59, 0
2, 204638, Note_on_c, 0, 74, 0
2, 205188, Control_c, 0, 64, 0
2, 205318, Note_on_c, 0, 78, 52
2, 205526, Control_c, 0, 64, 127
2, 205554, Note_on_c, 0, 78, 0
2, 205554, Note_on_c, 0, 76, 65
2, 205664, Control_c, 0, 64, 0
2, 205688, Note_on_c, 0, 76, 0
2, 205708, Note_on_c, 0, 74, 82
2, 205870, Note_on_c, 0, 73, 82
2, 205888, Note_on_c, 0, 74, 0
2, 206036, Note_on_c, 0, 73, 0
2, 206044, Note_on_c, 0, 76, 80
2, 206208, Note_on_c, 0, 74, 77
2, 206211, Note_on_c, 0, 76, 0
2, 206342, Note_on_c, 0, 74, 0
2, 206370, Note_on_c, 0, 71, 60
2, 206516, Note_on_c, 0, 71, 0
2, 206522, Note_on_c, 0, 70, 67
2, 206686, Note_on_c, 0, 73, 63
2, 206691, Note_on_c, 0, 70, 0
2, 206892, Note_on_c, 0, 73, 0
2, 206894, Note_on_c, 0, 71, 55
2, 207016, Control_c, 0, 64, 127
2, 207062, Control_c, 0, 64, 0
2, 207108, Note_on_c, 0, 67, 58
2, 207126, Note_on_c, 0, 71, 0
2, 207248, Control_c, 0, 64, 127
2, 207432, Control_c, 0, 64, 0
2, 207456, Note_on_c, 0, 66, 54
2, 207492, Note_on_c, 0, 50, 34
2, 207552, Note_on_c, 0, 67, 0
2, 207804, Note_on_c, 0, 57, 42
2, 207986, Control_c, 0, 64, 127
2, 208076, Note_on_c, 0, 57, 0
2, 208102, Note_on_c, 0, 50, 0
2, 208124, Note_on_c, 0, 54, 33
2, 208126, Note_on_c, 0, 66, 0
2, 208318, Note_on_c, 0, 54, 0
2, 208460, Note_on_c, 0, 57, 29
2, 208582, Note_on_c, 0, 57, 0
2, 208798, Note_on_c, 0, 66, 50
2, 208808, Note_on_c, 0, 50, 37
2, 208978, Note_on_c, 0, 66, 0
2, 209108, Note_on_c, 0, 50, 0
2, 209142, Note_on_c, 0, 66, 78
2, 209158, Note_on_c, 0, 57, 34
2, 209264, Note_on_c, 0, 66, 0
2, 209288, Note_on_c, 0, 57, 0
2, 209428, Note_on_c, 0, 66, 82
2, 209442, Note_on_c, 0, 54, 47
2, 209558, Note_on_c, 0, 66, 0
2, 209640, Note_on_c, 0, 54, 0
2, 209740, Note_on_c, 0, 66, 82
2, 209750, Note_on_c, 0, 57, 52
2, 209862, Note_on_c, 0, 57, 0
2, 209862, Note_on_c, 0, 66, 0
2, 210046, Note_on_c, 0, 50, 44
2, 210050, Note_on_c, 0, 55, 39
2, 210080, Note_on_c, 0, 64, 86
2, 210152, Control_c, 0, 64, 0
2, 210350, Note_on_c, 0, 64, 0
2, 210372, Note_on_c, 0, 69, 82
2, 210384, Note_on_c, 0, 61, 43
2, 210412, Control_c, 0, 64, 127
2, 210512, Note_on_c, 0, 67, 93
2, 210528, Note_on_c, 0, 69, 0
2, 210556, Note_on_c, 0, 61, 0
2, 210559, Note_on_c, 0, 67, 0
2, 210704, Note_on_c, 0, 67, 83
2, 210734, Control_c, 0, 64, 0
2, 210760, Note_on_c, 0, 52, 37
2, 211012, Control_c, 0, 64, 127
2, 211054, Note_on_c, 0, 52, 0
2, 211054, Note_on_c, 0, 61, 35
2, 211288, Note_on_c, 0, 61, 0
2, 211384, Note_on_c, 0, 52, 42
2, 211584, Note_on_c, 0, 52, 0
2, 211640, Note_on_c, 0, 55, 0
2, 211688, Note_on_c, 0, 61, 41
2, 211810, Note_on_c, 0, 61, 0
2, 212014, Note_on_c, 0, 66, 62
2, 212029, Note_on_c, 0, 54, 36
2, 212048, Note_on_c, 0, 67, 0
2, 212056, Control_c, 0, 64, 0
2, 212302, Control_c, 0, 64, 127
2, 212328, Note_on_c, 0, 62, 39
2, 212390, Note_on_c, 0, 62, 0
2, 212404, Note_on_c, 0, 54, 0
2, 212406, Note_on_c, 0, 50, 0
2, 212436, Note_on_c, 0, 66, 0
2, 212764, Note_on_c, 0, 59, 63
2, 212788, Note_on_c, 0, 43, 34
2, 212794, Control_c, 0, 64, 0
2, 213096, Note_on_c, 0, 55, 37
2, 213240, Control_c, 0, 64, 127
2, 213288, Note_on_c, 0, 55, 0
2, 213294, Note_on_c, 0, 43, 0
2, 213396, Note_on_c, 0, 52, 47
2, 213442, Note_on_c, 0, 59, 0
2, 213462, Note_on_c, 0, 52, 0
2, 213484, Note_on_c, 0, 64, 69
2, 213558, Note_on_c, 0, 64, 0
2, 213592, Note_on_c, 0, 67, 75
2, 213688, Note_on_c, 0, 67, 0
2, 213688, Note_on_c, 0, 55, 55
2, 213706, Note_on_c, 0, 71, 63
2, 213786, Note_on_c, 0, 71, 0
2, 213798, Note_on_c, 0, 67, 56
2, 213904, Note_on_c, 0, 64, 78
2, 213926, Note_on_c, 0, 55, 0
2, 213976, Control_c, 0, 64, 0
2, 213986, Note_on_c, 0, 67, 0
2, 214016, Note_on_c, 0, 54, 32
2, 214030, Note_on_c, 0, 45, 37
2, 214080, Note_on_c, 0, 62, 81
2, 214166, Note_on_c, 0, 64, 0
2, 214398, Note_on_c, 0, 57, 47
2, 214464, Note_on_c, 0, 54, 0
2, 214484, Control_c, 0, 64, 127
2, 214578, Note_on_c, 0, 57, 0
2, 214706, Note_on_c, 0, 66, 50
2, 214742, Note_on_c, 0, 61, 36
2, 214752, Note_on_c, 0, 55, 39
2, 214762, Note_on_c, 0, 62, 0
2, 214792, Control_c, 0, 64, 0
2, 215076, Note_on_c, 0, 64, 49
2, 215096, Note_on_c, 0, 57, 48
2, 215118, Note_on_c, 0, 66, 0
2, 215152, Note_on_c, 0, 55, 0
2, 215330, Control_c, 0, 64, 127
2, 215556, Note_on_c, 0, 57, 0
2, 215566, Note_on_c, 0, 62, 39
2, 215568, Note_on_c, 0, 64, 0
2, 215574, Control_c, 0, 64, 0
2, 215590, Note_on_c, 0, 61, 0
2, 215596, Note_on_c, 0, 54, 27
2, 215612, Note_on_c, 0, 50, 41
2, 215794, Note_on_c, 0, 45, 0
2, 216160, Control_c, 0, 64, 127
2, 216204, Note_on_c, 0, 62, 0
2, 216204, Note_on_c, 0, 50, 0
2, 216222, Note_on_c, 0, 54, 0
2, 216358, Control_c, 0, 64, 0
2, 216572, Note_on_c, 0, 69, 43
2, 216804, Control_c, 0, 64, 127
2, 216876, Note_on_c, 0, 69, 0
2, 216888, Note_on_c, 0, 68, 62
2, 216896, Control_c, 0, 64, 0
2, 217126, Control_c, 0, 64, 127
2, 217172, Control_c, 0, 64, 0
2, 217196, Note_on_c, 0, 69, 83
2, 217318, Note_on_c, 0, 68, 0
2, 217420, Control_c, 0, 64, 127
2, 217506, Note_on_c, 0, 71, 79
2, 217526, Control_c, 0, 64, 0
2, 217548, Note_on_c, 0, 69, 0
2, 217740, Control_c, 0, 64, 127
2, 217798, Note_on_c, 0, 71, 0
2, 217800, Note_on_c, 0, 69, 96
2, 217804, Control_c, 0, 64, 0
2, 217942, Note_on_c, 0, 69, 0
2, 217942, Control_c, 0, 64, 127
2, 218080, Control_c, 0, 64, 0
2, 218108, Note_on_c, 0, 79, 95
2, 218122, Note_on_c, 0, 76, 75
2, 218125, Note_on_c, 0, 61, 54
2, 218125, Note_on_c, 0, 69, 64
2, 218256, Note_on_c, 0, 69, 0
2, 218256, Note_on_c, 0, 61, 0
2, 218272, Note_on_c, 0, 76, 0
2, 218304, Note_on_c, 0, 79, 0
2, 218310, Control_c, 0, 64, 127
2, 218418, Control_c, 0, 64, 0
2, 218440, Note_on_c, 0, 76, 81
2, 218446, Note_on_c, 0, 79, 73
2, 218462, Note_on_c, 0, 61, 40
2, 218462, Note_on_c, 0, 69, 52
2, 218608, Note_on_c, 0, 69, 0
2, 218648, Control_c, 0, 64, 127
2, 218662, Note_on_c, 0, 76, 0
2, 218672, Note_on_c, 0, 61, 0
2, 218680, Note_on_c, 0, 79, 0
2, 218740, Control_c, 0, 64, 0
2, 219020, Note_on_c, 0, 69, 79
2, 219140, Control_c, 0, 64, 127
2, 219174, Note_on_c, 0, 69, 0
2, 219338, Control_c, 0, 64, 0
2, 219344, Note_on_c, 0, 78, 80
2, 219362, Note_on_c, 0, 74, 77
2, 219364, Note_on_c, 0, 62, 55
2, 219366, Note_on_c, 0, 69, 57
2, 219504, Note_on_c, 0, 69, 0
2, 219510, Note_on_c, 0, 74, 0
2, 219516, Note_on_c, 0, 62, 0
2, 219552, Note_on_c, 0, 78, 0
2, 219554, Control_c, 0, 64, 127
2, 219646, Control_c, 0, 64, 0
2, 219718, Note_on_c, 0, 78, 74
2, 219726, Note_on_c, 0, 69, 51
2, 219736, Note_on_c, 0, 74, 28
2, 219742, Note_on_c, 0, 62, 29
2, 219882, Note_on_c, 0, 69, 0
2, 219924, Control_c, 0, 64, 127
2, 219934, Note_on_c, 0, 74, 0
2, 219936, Note_on_c, 0, 62, 0
2, 219974, Note_on_c, 0, 78, 0
2, 220046, Control_c, 0, 64, 0
2, 220328, Note_on_c, 0, 69, 50
2, 220368, Control_c, 0, 64, 127
2, 220408, Note_on_c, 0, 69, 0
2, 220630, Control_c, 0, 64, 0
2, 220676, Note_on_c, 0, 73, 44
2, 220676, Note_on_c, 0, 76, 63
2, 220682, Note_on_c, 0, 69, 33
2, 220694, Note_on_c, 0, 57, 20
2, 220776, Note_on_c, 0, 57, 0
2, 220810, Note_on_c, 0, 69, 0
2, 220834, Note_on_c, 0, 73, 0
2, 220837, Note_on_c, 0, 76, 0
2, 220846, Control_c, 0, 64, 127
2, 220952, Control_c, 0, 64, 0
2, 221038, Note_on_c, 0, 73, 48
2, 221062, Note_on_c, 0, 76, 48
2, 221066, Note_on_c, 0, 69, 33
2, 221076, Note_on_c, 0, 57, 26
2, 221228, Note_on_c, 0, 69, 0
2, 221250, Note_on_c, 0, 76, 0
2, 221253, Note_on_c, 0, 73, 0
2, 221258, Note_on_c, 0, 57, 0
2, 221260, Control_c, 0, 64, 127
2, 221430, Control_c, 0, 64, 0
2, 221804, Note_on_c, 0, 69, 47
2, 222044, Control_c, 0, 64, 127
2, 222120, Note_on_c, 0, 68, 63
2, 222134, Note_on_c, 0, 69, 0
2, 222136, Control_c, 0, 64, 0
2, 222416, Note_on_c, 0, 69, 71
2, 222464, Note_on_c, 0, 68, 0
2, 222762, Note_on_c, 0, 71, 34
2, 222770, Note_on_c, 0, 69, 0
2, 223120, Note_on_c, 0, 69, 32
2, 223148, Note_on_c, 0, 71, 0
2, 223272, Control_c, 0, 64, 127
2, 223364, Control_c, 0, 64, 0
2, 223442, Note_on_c, 0, 69, 0
2, 223462, Note_on_c, 0, 67, 40
2, 223480, Note_on_c, 0, 49, 32
2, 223488, Note_on_c, 0, 57, 34
2, 223510, Note_on_c, 0, 64, 28
2, 223636, Note_on_c, 0, 57, 0
2, 223642, Control_c, 0, 64, 127
2, 223650, Note_on_c, 0, 49, 0
2, 223668, Note_on_c, 0, 64, 0
2, 223676, Note_on_c, 0, 67, 0
2, 223734, Control_c, 0, 64, 0
2, 223850, Note_on_c, 0, 57, 44
2, 223850, Note_on_c, 0, 49, 34
2, 223854, Note_on_c, 0, 67, 32
2, 223870, Note_on_c, 0, 64, 28
2, 223996, Control_c, 0, 64, 127
2, 224046, Note_on_c, 0, 57, 0
2, 224066, Note_on_c, 0, 49, 0
2, 224066, Note_on_c, 0, 64, 0
2, 224116, Note_on_c, 0, 67, 0
2, 224180, Control_c, 0, 64, 0
2, 224484, Note_on_c, 0, 69, 59
2, 224670, Control_c, 0, 64, 127
2, 224778, Control_c, 0, 64, 0
2, 224812, Note_on_c, 0, 69, 0
2, 224812, Note_on_c, 0, 66, 51
2, 224814, Note_on_c, 0, 57, 47
2, 224822, Note_on_c, 0, 62, 42
2, 224824, Note_on_c, 0, 50, 51
2, 224974, Note_on_c, 0, 57, 0
2, 224990, Note_on_c, 0, 50, 0
2, 224990, Note_on_c, 0, 62, 0
2, 225008, Control_c, 0, 64, 127
2, 225013, Note_on_c, 0, 66, 0
2, 225085, Control_c, 0, 64, 0
2, 225206, Note_on_c, 0, 66, 46
2, 225212, Note_on_c, 0, 50, 31
2, 225216, Note_on_c, 0, 62, 41
2, 225238, Note_on_c, 0, 57, 29
2, 225386, Note_on_c, 0, 57, 0
2, 225402, Note_on_c, 0, 62, 0
2, 225402, Note_on_c, 0, 50, 0
2, 225438, Control_c, 0, 64, 127
2, 225450, Note_on_c, 0, 66, 0
2, 225484, Control_c, 0, 64, 0
2, 225868, Note_on_c, 0, 69, 39
2, 225992, Control_c, 0, 64, 127
2, 226082, Note_on_c, 0, 69, 0
2, 226176, Control_c, 0, 64, 0
2, 226244, Note_on_c, 0, 61, 34
2, 226254, Note_on_c, 0, 45, 31
2, 226270, Note_on_c, 0, 57, 21
2, 226272, Note_on_c, 0, 64, 41
2, 226402, Note_on_c, 0, 61, 0
2, 226404, Note_on_c, 0, 45, 0
2, 226406, Note_on_c, 0, 57, 0
2, 226420, Note_on_c, 0, 64, 0
2, 226422, Control_c, 0, 64, 127
2, 226560, Control_c, 0, 64, 0
2, 226702, Note_on_c, 0, 57, 14
2, 226702, Note_on_c, 0, 45, 34
2, 226708, Note_on_c, 0, 61, 26
2, 226716, Note_on_c, 0, 64, 31
2, 226822, Control_c, 0, 64, 127
2, 226860, Note_on_c, 0, 61, 0
2, 226866, Note_on_c, 0, 57, 0
2, 226888, Note_on_c, 0, 64, 0
2, 226910, Note_on_c, 0, 45, 0
2, 227192, Control_c, 0, 64, 0
2, 227340, Note_on_c, 0, 68, 36
2, 227572, Note_on_c, 0, 68, 0
2, 227582, Note_on_c, 0, 71, 51
2, 227732, Note_on_c, 0, 71, 0
2, 227746, Note_on_c, 0, 69, 65
2, 227896, Note_on_c, 0, 69, 0
2, 227896, Note_on_c, 0, 73, 83
2, 228048, Note_on_c, 0, 71, 82
2, 228074, Note_on_c, 0, 73, 0
2, 228192, Note_on_c, 0, 74, 97
2, 228224, Note_on_c, 0, 71, 0
2, 228332, Note_on_c, 0, 73, 96
2, 228357, Note_on_c, 0, 74, 0
2, 228494, Note_on_c, 0, 76, 101
2, 228524, Note_on_c, 0, 73, 0
2, 228652, Note_on_c, 0, 74, 100
2, 228656, Note_on_c, 0, 76, 0
2, 228822, Note_on_c, 0, 78, 90
2, 228864, Note_on_c, 0, 74, 0
2, 228992, Note_on_c, 0, 76, 96
2, 229028, Note_on_c, 0, 78, 0
2, 229050, Control_c, 0, 64, 127
2, 229080, Control_c, 0, 64, 0
2, 229202, Note_on_c, 0, 79, 86
2, 229228, Note_on_c, 0, 76, 0
2, 229252, Note_on_c, 0, 62, 39
2, 229476, Note_on_c, 0, 78, 60
2, 229582, Note_on_c, 0, 79, 0
2, 229710, Note_on_c, 0, 69, 35
2, 229956, Control_c, 0, 64, 127
2, 229992, Note_on_c, 0, 69, 0
2, 230030, Note_on_c, 0, 62, 0
2, 230032, Note_on_c, 0, 66, 39
2, 230244, Note_on_c, 0, 66, 0
2, 230252, Note_on_c, 0, 78, 0
2, 230374, Note_on_c, 0, 69, 39
2, 230564, Note_on_c, 0, 69, 0
2, 230714, Note_on_c, 0, 78, 71
2, 230758, Note_on_c, 0, 62, 33
2, 230854, Note_on_c, 0, 62, 0
2, 231006, Note_on_c, 0, 78, 0
2, 231068, Note_on_c, 0, 69, 44
2, 231258, Note_on_c, 0, 69, 0
2, 231372, Note_on_c, 0, 78, 101
2, 231386, Note_on_c, 0, 66, 36
2, 231568, Note_on_c, 0, 66, 0
2, 231582, Note_on_c, 0, 78, 0
2, 231694, Note_on_c, 0, 69, 49
2, 231776, Note_on_c, 0, 69, 0
2, 232000, Note_on_c, 0, 76, 97
2, 232024, Note_on_c, 0, 62, 32
2, 232042, Note_on_c, 0, 67, 29
2, 232170, Control_c, 0, 64, 0
2, 232322, Note_on_c, 0, 81, 90
2, 232344, Note_on_c, 0, 76, 0
2, 232360, Note_on_c, 0, 73, 34
2, 232384, Control_c, 0, 64, 127
2, 232496, Note_on_c, 0, 79, 101
2, 232516, Note_on_c, 0, 73, 0
2, 232538, Note_on_c, 0, 81, 0
2, 232564, Note_on_c, 0, 79, 0
2, 232700, Note_on_c, 0, 79, 96
2, 232718, Note_on_c, 0, 64, 44
2, 232784, Control_c, 0, 64, 0
2, 232984, Control_c, 0, 64, 127
2, 232998, Note_on_c, 0, 64, 0
2, 233012, Note_on_c, 0, 73, 44
2, 233196, Note_on_c, 0, 73, 0
2, 233330, Note_on_c, 0, 64, 52
2, 233416, Note_on_c, 0, 67, 0
2, 233592, Note_on_c, 0, 64, 0
2, 233598, Note_on_c, 0, 73, 54
2, 233790, Note_on_c, 0, 73, 0
2, 233914, Note_on_c, 0, 78, 78
2, 233932, Note_on_c, 0, 66, 48
2, 234010, Note_on_c, 0, 79, 0
2, 234044, Control_c, 0, 64, 0
2, 234228, Control_c, 0, 64, 127
2, 234238, Note_on_c, 0, 74, 64
2, 234288, Note_on_c, 0, 78, 0
2, 234290, Note_on_c, 0, 74, 0
2, 234296, Note_on_c, 0, 62, 0
2, 234306, Note_on_c, 0, 66, 0
2, 234588, Note_on_c, 0, 76, 98
2, 234602, Note_on_c, 0, 55, 43
2, 234940, Note_on_c, 0, 67, 46
2, 235058, Control_c, 0, 64, 0
2, 235212, Note_on_c, 0, 67, 0
2, 235242, Control_c, 0, 64, 127
2, 235245, Note_on_c, 0, 64, 58
2, 235358, Note_on_c, 0, 79, 83
2, 235422, Note_on_c, 0, 55, 0
2, 235454, Note_on_c, 0, 76, 0
2, 235558, Note_on_c, 0, 64, 0
2, 235560, Note_on_c, 0, 83, 87
2, 235570, Note_on_c, 0, 79, 0
2, 235610, Note_on_c, 0, 67, 62
2, 235674, Note_on_c, 0, 79, 78
2, 235730, Note_on_c, 0, 83, 0
2, 235776, Note_on_c, 0, 67, 0
2, 235818, Note_on_c, 0, 76, 108
2, 235880, Note_on_c, 0, 79, 0
2, 235972, Note_on_c, 0, 57, 48
2, 236004, Note_on_c, 0, 74, 104
2, 236098, Note_on_c, 0, 76, 0
2, 236164, Control_c, 0, 64, 0
2, 236306, Note_on_c, 0, 66, 49
2, 236410, Control_c, 0, 64, 127
2, 236640, Note_on_c, 0, 66, 0
2, 236656, Note_on_c, 0, 78, 79
2, 236659, Note_on_c, 0, 57, 0
2, 236668, Note_on_c, 0, 73, 52
2, 236720, Note_on_c, 0, 74, 0
2, 236720, Note_on_c, 0, 58, 40
2, 236810, Control_c, 0, 64, 0
2, 237050, Note_on_c, 0, 76, 74
2, 237080, Note_on_c, 0, 67, 42
2, 237102, Note_on_c, 0, 78, 0
2, 237270, Control_c, 0, 64, 127
2, 237302, Note_on_c, 0, 67, 0
2, 237306, Note_on_c, 0, 58, 0
2, 237588, Note_on_c, 0, 74, 47
2, 237612, Note_on_c, 0, 66, 21
2, 237618, Note_on_c, 0, 73, 0
2, 237618, Note_on_c, 0, 59, 20
2, 237654, Control_c, 0, 64, 0
2, 237660, Note_on_c, 0, 76, 0
2, 238208, Control_c, 0, 64, 127
2, 238328, Note_on_c, 0, 59, 0
2, 238356, Note_on_c, 0, 66, 0
2, 238408, Note_on_c, 0, 74, 0
2, 238746, Control_c, 0, 64, 0
2, 238932, Note_on_c, 0, 78, 51
2, 239202, Note_on_c, 0, 76, 66
2, 239210, Note_on_c, 0, 78, 0
2, 239368, Note_on_c, 0, 76, 0
2, 239378, Note_on_c, 0, 74, 73
2, 239556, Note_on_c, 0, 73, 79
2, 239586, Note_on_c, 0, 74, 0
2, 239742, Note_on_c, 0, 73, 0
2, 239748, Note_on_c, 0, 76, 86
2, 239910, Note_on_c, 0, 74, 85
2, 239932, Note_on_c, 0, 76, 0
2, 240056, Note_on_c, 0, 74, 0
2, 240078, Note_on_c, 0, 71, 63
2, 240242, Note_on_c, 0, 70, 75
2, 240258, Note_on_c, 0, 71, 0
2, 240434, Note_on_c, 0, 70, 0
2, 240437, Note_on_c, 0, 73, 57
2, 240656, Note_on_c, 0, 71, 54
2, 240668, Note_on_c, 0, 73, 0
2, 240858, Note_on_c, 0, 67, 57
2, 240870, Note_on_c, 0, 71, 0
2, 241224, Note_on_c, 0, 66, 52
2, 241254, Note_on_c, 0, 67, 0
2, 241262, Note_on_c, 0, 50, 29
2, 241614, Note_on_c, 0, 57, 41
2, 241756, Control_c, 0, 64, 127
2, 241882, Note_on_c, 0, 57, 0
2, 241900, Note_on_c, 0, 66, 0
2, 241916, Note_on_c, 0, 50, 0
2, 241946, Note_on_c, 0, 54, 32
2, 242122, Note_on_c, 0, 54, 0
2, 242280, Note_on_c, 0, 57, 40
2, 242422, Note_on_c, 0, 57, 0
2, 242624, Note_on_c, 0, 66, 51
2, 242662, Note_on_c, 0, 50, 43
2, 242768, Note_on_c, 0, 50, 0
2, 242802, Note_on_c, 0, 66, 0
2, 242954, Note_on_c, 0, 66, 83
2, 242996, Note_on_c, 0, 57, 42
2, 243076, Note_on_c, 0, 66, 0
2, 243120, Note_on_c, 0, 57, 0
2, 243262, Note_on_c, 0, 66, 92
2, 243288, Note_on_c, 0, 54, 46
2, 243370, Note_on_c, 0, 54, 0
2, 243380, Note_on_c, 0, 66, 0
2, 243556, Note_on_c, 0, 66, 95
2, 243578, Note_on_c, 0, 57, 58
2, 243632, Note_on_c, 0, 57, 0
2, 243658, Note_on_c, 0, 66, 0
2, 243870, Note_on_c, 0, 55, 56
2, 243882, Note_on_c, 0, 50, 44
2, 243886, Note_on_c, 0, 64, 96
2, 243890, Note_on_c, 0, 61, 49
2, 244046, Control_c, 0, 64, 0
2, 244370, Control_c, 0, 64, 127
2, 244436, Note_on_c, 0, 61, 0
2, 244446, Note_on_c, 0, 50, 0
2, 244474, Note_on_c, 0, 64, 0
2, 244480, Note_on_c, 0, 69, 86
2, 244550, Note_on_c, 0, 55, 0
2, 244672, Note_on_c, 0, 67, 92
2, 244702, Note_on_c, 0, 69, 0
2, 244716, Note_on_c, 0, 67, 0
2, 244754, Control_c, 0, 64, 0
2, 244850, Note_on_c, 0, 67, 72
2, 244856, Note_on_c, 0, 61, 39
2, 244870, Note_on_c, 0, 50, 37
2, 244872, Note_on_c, 0, 52, 52
2, 245184, Control_c, 0, 64, 127
2, 245206, Note_on_c, 0, 50, 0
2, 245272, Note_on_c, 0, 61, 0
2, 245300, Note_on_c, 0, 52, 0
2, 245458, Note_on_c, 0, 67, 0
2, 245598, Control_c, 0, 64, 0
2, 246644, Note_on_c, 0, 66, 93
2, 246668, Note_on_c, 0, 62, 59
2, 246674, Note_on_c, 0, 50, 55
2, 246686, Note_on_c, 0, 57, 62
2, 246920, Control_c, 0, 64, 127
2, 246992, Note_on_c, 0, 74, 102
2, 247020, Note_on_c, 0, 62, 0
2, 247026, Note_on_c, 0, 57, 0
2, 247072, Note_on_c, 0, 66, 0
2, 247108, Note_on_c, 0, 50, 0
2, 247184, Note_on_c, 0, 72, 111
2, 247252, Note_on_c, 0, 74, 0
2, 247282, Note_on_c, 0, 72, 0
2, 247406, Note_on_c, 0, 57, 54
2, 247410, Note_on_c, 0, 72, 73
2, 247424, Note_on_c, 0, 50, 59
2, 247424, Note_on_c, 0, 54, 44
2, 247427, Control_c, 0, 64, 0
2, 247734, Control_c, 0, 64, 127
2, 247768, Note_on_c, 0, 54, 0
2, 247778, Note_on_c, 0, 57, 0
2, 247904, Note_on_c, 0, 50, 0
2, 247910, Note_on_c, 0, 72, 0
2, 248164, Control_c, 0, 64, 0
2, 249292, Note_on_c, 0, 63, 26
2, 249304, Note_on_c, 0, 71, 40
2, 249310, Note_on_c, 0, 66, 32
2, 249562, Control_c, 0, 64, 127
2, 249592, Note_on_c, 0, 66, 0
2, 249638, Note_on_c, 0, 63, 0
2, 249894, Note_on_c, 0, 71, 0
2, 249948, Note_on_c, 0, 83, 25
2, 249986, Note_on_c, 0, 66, 8
2, 250008, Control_c, 0, 64, 0
2, 250108, Note_on_c, 0, 66, 0
2, 250116, Control_c, 0, 64, 127
2, 250228, Note_on_c, 0, 83, 0
2, 250262, Note_on_c, 0, 81, 39
2, 250440, Note_on_c, 0, 81, 0
2, 250790, Note_on_c, 0, 81, 24
2, 250798, Note_on_c, 0, 71, 9
2, 250816, Note_on_c, 0, 66, 19
2, 250830, Note_on_c, 0, 63, 20
2, 250970, Note_on_c, 0, 63, 0
2, 251010, Note_on_c, 0, 66, 0
2, 251034, Note_on_c, 0, 71, 0
2, 251148, Note_on_c, 0, 81, 0
2, 251774, Control_c, 0, 64, 0
2, 254528, Note_on_c, 0, 52, 123
2, 254528, Note_on_c, 0, 40, 116
2, 254802, Control_c, 0, 64, 127
2, 255288, Note_on_c, 0, 40, 0
2, 255326, Note_on_c, 0, 52, 0
2, 255494, Control_c, 0, 64, 0
2, 255500, Note_on_c, 0, 53, 121
2, 255508, Note_on_c, 0, 41, 112
2, 255708, Control_c, 0, 64, 127
2, 255716, Note_on_c, 0, 53, 0
2, 255740, Note_on_c, 0, 41, 0
2, 255840, Note_on_c, 0, 52, 127
2, 255842, Note_on_c, 0, 40, 127
2, 255908, Control_c, 0, 64, 0
2, 256522, Control_c, 0, 64, 127
2, 256590, Note_on_c, 0, 40, 0
2, 256618, Note_on_c, 0, 52, 0
2, 256752, Control_c, 0, 64, 0
2, 256776, Note_on_c, 0, 53, 126
2, 256781, Note_on_c, 0, 41, 119
2, 256922, Control_c, 0, 64, 127
2, 256980, Note_on_c, 0, 53, 0
2, 257018, Note_on_c, 0, 41, 0
2, 257106, Note_on_c, 0, 52, 127
2, 257110, Note_on_c, 0, 40, 127
2, 257114, Note_on_c, 0, 71, 103
2, 257116, Note_on_c, 0, 74, 111
2, 257138, Control_c, 0, 64, 0
2, 257150, Note_on_c, 0, 71, 0
2, 257152, Note_on_c, 0, 74, 0
2, 257176, Note_on_c, 0, 80, 104
2, 257244, Note_on_c, 0, 80, 0
2, 257258, Note_on_c, 0, 71, 74
2, 257264, Note_on_c, 0, 74, 82
2, 257308, Note_on_c, 0, 74, 0
2, 257308, Note_on_c, 0, 71, 0
2, 257334, Note_on_c, 0, 80, 89
2, 257402, Note_on_c, 0, 71, 81
2, 257414, Note_on_c, 0, 74, 85
2, 257434, Note_on_c, 0, 80, 0
2, 257466, Note_on_c, 0, 74, 0
2, 257498, Note_on_c, 0, 71, 0
2, 257498, Note_on_c, 0, 80, 100
2, 257546, Note_on_c, 0, 80, 0
2, 257562, Note_on_c, 0, 74, 71
2, 257566, Note_on_c, 0, 71, 69
2, 257616, Note_on_c, 0, 71, 0
2, 257618, Note_on_c, 0, 74, 0
2, 257632, Note_on_c, 0, 80, 80
2, 257710, Note_on_c, 0, 71, 88
2, 257712, Note_on_c, 0, 74, 96
2, 257726, Note_on_c, 0, 80, 0
2, 257762, Note_on_c, 0, 74, 0
2, 257764, Note_on_c, 0, 71, 0
2, 257794, Note_on_c, 0, 80, 101
2, 257814, Control_c, 0, 64, 127
2, 257848, Note_on_c, 0, 80, 0
2, 257852, Note_on_c, 0, 71, 75
2, 257852, Note_on_c, 0, 74, 89
2, 257894, Note_on_c, 0, 40, 0
2, 257898, Note_on_c, 0, 71, 0
2, 257906, Note_on_c, 0, 74, 0
2, 257906, Control_c, 0, 64, 0
2, 257909, Note_on_c, 0, 52, 0
2, 257928, Note_on_c, 0, 80, 79
2, 257978, Note_on_c, 0, 80, 0
2, 257978, Note_on_c, 0, 71, 83
2, 257986, Note_on_c, 0, 74, 100
2, 257992, Note_on_c, 0, 53, 115
2, 257998, Note_on_c, 0, 41, 111
2, 258028, Note_on_c, 0, 74, 0
2, 258034, Note_on_c, 0, 71, 0
2, 258054, Note_on_c, 0, 80, 82
2, 258090, Control_c, 0, 64, 127
2, 258116, Note_on_c, 0, 71, 75
2, 258118, Note_on_c, 0, 74, 81
2, 258122, Note_on_c, 0, 80, 0
2, 258186, Note_on_c, 0, 71, 0
2, 258196, Note_on_c, 0, 53, 0
2, 258204, Note_on_c, 0, 74, 0
2, 258210, Note_on_c, 0, 80, 86
2, 258212, Control_c, 0, 64, 0
2, 258228, Note_on_c, 0, 41, 0
2, 258294, Note_on_c, 0, 74, 90
2, 258302, Note_on_c, 0, 52, 121
2, 258302, Note_on_c, 0, 40, 123
2, 258308, Note_on_c, 0, 71, 59
2, 258316, Note_on_c, 0, 80, 0
2, 258354, Note_on_c, 0, 71, 0
2, 258374, Note_on_c, 0, 74, 0
2, 258386, Note_on_c, 0, 80, 103
2, 258428, Control_c, 0, 64, 127
2, 258452, Note_on_c, 0, 80, 0
2, 258462, Note_on_c, 0, 71, 72
2, 258466, Note_on_c, 0, 74, 88
2, 258508, Note_on_c, 0, 40, 0
2, 258522, Note_on_c, 0, 71, 0
2, 258526, Note_on_c, 0, 74, 0
2, 258534, Note_on_c, 0, 52, 0
2, 258548, Note_on_c, 0, 80, 87
2, 258551, Control_c, 0, 64, 0
2, 258616, Note_on_c, 0, 53, 109
2, 258616, Note_on_c, 0, 71, 83
2, 258616, Note_on_c, 0, 74, 100
2, 258622, Note_on_c, 0, 80, 0
2, 258622, Note_on_c, 0, 41, 105
2, 258674, Note_on_c, 0, 74, 0
2, 258690, Note_on_c, 0, 71, 0
2, 258690, Control_c, 0, 64, 127
2, 258693, Note_on_c, 0, 80, 98
2, 258770, Note_on_c, 0, 71, 80
2, 258773, Note_on_c, 0, 74, 88
2, 258802, Note_on_c, 0, 80, 0
2, 258838, Note_on_c, 0, 53, 0
2, 258844, Note_on_c, 0, 74, 0
2, 258852, Note_on_c, 0, 71, 0
2, 258858, Control_c, 0, 64, 0
2, 258860, Note_on_c, 0, 80, 109
2, 258866, Note_on_c, 0, 41, 0
2, 258926, Note_on_c, 0, 40, 121
2, 258926, Note_on_c, 0, 52, 121
2, 258930, Note_on_c, 0, 71, 102
2, 258936, Note_on_c, 0, 74, 105
2, 258964, Note_on_c, 0, 80, 0
2, 258992, Note_on_c, 0, 74, 0
2, 259012, Control_c, 0, 64, 127
2, 259016, Note_on_c, 0, 71, 0
2, 259024, Note_on_c, 0, 80, 110
2, 259076, Note_on_c, 0, 80, 0
2, 259079, Note_on_c, 0, 74, 105
2, 259082, Note_on_c, 0, 71, 98
2, 259130, Note_on_c, 0, 40, 0
2, 259136, Note_on_c, 0, 71, 0
2, 259136, Note_on_c, 0, 74, 0
2, 259146, Note_on_c, 0, 52, 0
2, 259156, Note_on_c, 0, 80, 98
2, 259210, Note_on_c, 0, 71, 92
2, 259218, Note_on_c, 0, 74, 103
2, 259222, Note_on_c, 0, 53, 116
2, 259228, Note_on_c, 0, 41, 112
2, 259254, Note_on_c, 0, 80, 0
2, 259288, Control_c, 0, 64, 0
2, 259294, Note_on_c, 0, 74, 0
2, 259296, Note_on_c, 0, 71, 0
2, 259310, Note_on_c, 0, 80, 115
2, 259380, Note_on_c, 0, 74, 105
2, 259382, Note_on_c, 0, 71, 89
2, 259410, Note_on_c, 0, 80, 0
2, 259412, Control_c, 0, 64, 127
2, 259422, Note_on_c, 0, 53, 0
2, 259466, Note_on_c, 0, 41, 0
2, 259472, Note_on_c, 0, 71, 0
2, 259474, Note_on_c, 0, 74, 0
2, 259476, Note_on_c, 0, 80, 109
2, 259504, Control_c, 0, 64, 0
2, 259538, Note_on_c, 0, 40, 124
2, 259538, Note_on_c, 0, 52, 121
2, 259541, Note_on_c, 0, 74, 124
2, 259546, Note_on_c, 0, 71, 96
2, 259594, Note_on_c, 0, 74, 0
2, 259598, Note_on_c, 0, 80, 0
2, 259628, Note_on_c, 0, 71, 0
2, 259690, Note_on_c, 0, 74, 110
2, 259692, Note_on_c, 0, 71, 115
2, 259728, Note_on_c, 0, 71, 0
2, 259731, Note_on_c, 0, 74, 0
2, 259870, Note_on_c, 0, 83, 120
2, 259870, Note_on_c, 0, 80, 124
2, 259910, Note_on_c, 0, 40, 0
2, 259920, Note_on_c, 0, 52, 0
2, 260022, Note_on_c, 0, 53, 111
2, 260026, Note_on_c, 0, 41, 109
2, 260040, Control_c, 0, 64, 127
2, 260092, Note_on_c, 0, 53, 0
2, 260104, Note_on_c, 0, 41, 0
2, 260196, Control_c, 0, 64, 0
2, 260199, Note_on_c, 0, 80, 0
2, 260210, Note_on_c, 0, 52, 127
2, 260218, Note_on_c, 0, 40, 124
2, 260268, Note_on_c, 0, 83, 0
2, 260380, Note_on_c, 0, 80, 121
2, 260384, Note_on_c, 0, 74, 119
2, 260422, Note_on_c, 0, 74, 0
2, 260468, Note_on_c, 0, 80, 0
2, 260556, Note_on_c, 0, 86, 127
2, 260564, Note_on_c, 0, 83, 118
2, 260616, Note_on_c, 0, 40, 0
2, 260626, Note_on_c, 0, 52, 0
2, 260710, Note_on_c, 0, 53, 113
2, 260713, Note_on_c, 0, 41, 105
2, 260758, Note_on_c, 0, 53, 0
2, 260766, Note_on_c, 0, 41, 0
2, 260906, Note_on_c, 0, 52, 124
2, 260906, Note_on_c, 0, 40, 116
2, 261020, Note_on_c, 0, 83, 0
2, 261056, Note_on_c, 0, 86, 0
2, 261074, Note_on_c, 0, 81, 105
2, 261074, Note_on_c, 0, 84, 112
2, 261114, Note_on_c, 0, 84, 0
2, 261117, Note_on_c, 0, 81, 0
2, 261234, Note_on_c, 0, 83, 105
2, 261234, Note_on_c, 0, 80, 111
2, 261292, Note_on_c, 0, 80, 0
2, 261328, Note_on_c, 0, 83, 0
2, 261334, Note_on_c, 0, 52, 0
2, 261338, Note_on_c, 0, 40, 0
2, 261396, Note_on_c, 0, 81, 116
2, 261400, Note_on_c, 0, 77, 115
2, 261444, Note_on_c, 0, 77, 0
2, 261508, Note_on_c, 0, 81, 0
2, 261560, Note_on_c, 0, 80, 110
2, 261564, Note_on_c, 0, 76, 111
2, 261616, Note_on_c, 0, 80, 0
2, 261619, Note_on_c, 0, 76, 0
2, 261728, Note_on_c, 0, 74, 111
2, 261728, Note_on_c, 0, 77, 106
2, 261766, Note_on_c, 0, 74, 0
2, 261780, Note_on_c, 0, 77, 0
2, 261892, Note_on_c, 0, 72, 109
2, 261896, Note_on_c, 0, 76, 111
2, 261928, Note_on_c, 0, 76, 0
2, 261936, Note_on_c, 0, 72, 0
2, 262052, Note_on_c, 0, 71, 100
2, 262054, Note_on_c, 0, 74, 111
2, 262088, Note_on_c, 0, 71, 0
2, 262110, Note_on_c, 0, 74, 0
2, 262242, Note_on_c, 0, 57, 64
2, 262245, Note_on_c, 0, 45, 66
2, 262248, Note_on_c, 0, 72, 106
2, 262248, Note_on_c, 0, 69, 95
2, 262310, Note_on_c, 0, 72, 0
2, 262422, Note_on_c, 0, 74, 92
2, 262442, Note_on_c, 0, 69, 0
2, 262468, Note_on_c, 0, 72, 108
2, 262471, Note_on_c, 0, 74, 0
2, 262512, Note_on_c, 0, 72, 0
2, 262524, Note_on_c, 0, 71, 78
2, 262572, Note_on_c, 0, 71, 0
2, 262590, Note_on_c, 0, 72, 112
2, 262660, Note_on_c, 0, 72, 0
2, 262772, Note_on_c, 0, 74, 106
2, 262812, Note_on_c, 0, 74, 0
2, 262840, Note_on_c, 0, 57, 0
2, 262872, Note_on_c, 0, 45, 0
2, 262978, Note_on_c, 0, 76, 97
2, 263334, Note_on_c, 0, 76, 0
2, 263562, Note_on_c, 0, 69, 70
2, 263562, Note_on_c, 0, 64, 50
2, 263570, Note_on_c, 0, 60, 49
2, 263606, Note_on_c, 0, 69, 0
2, 263612, Note_on_c, 0, 64, 0
2, 263626, Note_on_c, 0, 60, 0
2, 263658, Note_on_c, 0, 65, 87
2, 263661, Note_on_c, 0, 62, 63
2, 263664, Note_on_c, 0, 70, 104
2, 263916, Note_on_c, 0, 68, 77
2, 263936, Note_on_c, 0, 70, 0
2, 263982, Note_on_c, 0, 68, 0
2, 264000, Note_on_c, 0, 62, 0
2, 264006, Note_on_c, 0, 69, 102
2, 264018, Note_on_c, 0, 60, 70
2, 264022, Note_on_c, 0, 65, 0
2, 264024, Note_on_c, 0, 64, 77
2, 264068, Note_on_c, 0, 69, 0
2, 264248, Note_on_c, 0, 69, 96
2, 264312, Note_on_c, 0, 69, 0
2, 264316, Note_on_c, 0, 60, 0
2, 264334, Note_on_c, 0, 64, 0
2, 264344, Note_on_c, 0, 70, 101
2, 264362, Note_on_c, 0, 65, 82
2, 264374, Note_on_c, 0, 62, 57
2, 264586, Note_on_c, 0, 68, 71
2, 264618, Note_on_c, 0, 70, 0
2, 264664, Note_on_c, 0, 68, 0
2, 264664, Note_on_c, 0, 62, 0
2, 264692, Note_on_c, 0, 65, 0
2, 264694, Note_on_c, 0, 69, 100
2, 264714, Note_on_c, 0, 64, 79
2, 264718, Note_on_c, 0, 60, 67
2, 264734, Note_on_c, 0, 69, 0
2, 264752, Note_on_c, 0, 64, 0
2, 264768, Note_on_c, 0, 60, 0
2, 264942, Note_on_c, 0, 69, 77
2, 264984, Note_on_c, 0, 69, 0
2, 265056, Note_on_c, 0, 68, 82
2, 265067, Note_on_c, 0, 64, 67
2, 265072, Note_on_c, 0, 74, 89
2, 265076, Note_on_c, 0, 59, 52
2, 265128, Note_on_c, 0, 64, 0
2, 265160, Note_on_c, 0, 68, 0
2, 265168, Note_on_c, 0, 59, 0
2, 265188, Note_on_c, 0, 74, 0
2, 265492, Note_on_c, 0, 72, 57
2, 265522, Note_on_c, 0, 57, 31
2, 265522, Note_on_c, 0, 64, 39
2, 265525, Note_on_c, 0, 69, 36
2, 265596, Note_on_c, 0, 69, 0
2, 265618, Note_on_c, 0, 64, 0
2, 265660, Note_on_c, 0, 72, 0
2, 265710, Note_on_c, 0, 57, 0
2, 266912, Note_on_c, 0, 38, 120
2, 266914, Note_on_c, 0, 50, 125
2, 267692, Control_c, 0, 64, 127
2, 267792, Note_on_c, 0, 50, 0
2, 267850, Note_on_c, 0, 38, 0
2, 267954, Note_on_c, 0, 51, 118
2, 267957, Note_on_c, 0, 39, 115
2, 268000, Control_c, 0, 64, 0
2, 268196, Note_on_c, 0, 51, 0
2, 268214, Control_c, 0, 64, 127
2, 268224, Note_on_c, 0, 39, 0
2, 268328, Note_on_c, 0, 38, 126
2, 268330, Note_on_c, 0, 50, 125
2, 268554, Control_c, 0, 64, 0
2, 269136, Control_c, 0, 64, 127
2, 269264, Note_on_c, 0, 50, 0
2, 269384, Note_on_c, 0, 38, 0
2, 269418, Note_on_c, 0, 39, 105
2, 269420, Note_on_c, 0, 51, 117
2, 269460, Control_c, 0, 64, 0
2, 269630, Control_c, 0, 64, 127
2, 269696, Note_on_c, 0, 51, 0
2, 269746, Note_on_c, 0, 39, 0
2, 269756, Note_on_c, 0, 50, 124
2, 269759, Note_on_c, 0, 72, 118
2, 269759, Note_on_c, 0, 38, 120
2, 269759, Note_on_c, 0, 69, 115
2, 269768, Control_c, 0, 64, 0
2, 269816, Note_on_c, 0, 72, 0
2, 269826, Note_on_c, 0, 69, 0
2, 269840, Note_on_c, 0, 78, 100
2, 269904, Note_on_c, 0, 78, 0
2, 269906, Note_on_c, 0, 69, 98
2, 269912, Note_on_c, 0, 72, 96
2, 269967, Note_on_c, 0, 72, 0
2, 269992, Note_on_c, 0, 69, 0
2, 269998, Note_on_c, 0, 78, 77
2, 270028, Control_c, 0, 64, 127
2, 270048, Note_on_c, 0, 78, 0
2, 270066, Note_on_c, 0, 72, 73
2, 270072, Note_on_c, 0, 69, 98
2, 270132, Note_on_c, 0, 69, 0
2, 270132, Note_on_c, 0, 72, 0
2, 270152, Note_on_c, 0, 78, 73
2, 270214, Note_on_c, 0, 78, 0
2, 270228, Note_on_c, 0, 69, 81
2, 270240, Note_on_c, 0, 72, 73
2, 270288, Note_on_c, 0, 72, 0
2, 270296, Note_on_c, 0, 69, 0
2, 270304, Control_c, 0, 64, 0
2, 270316, Note_on_c, 0, 78, 71
2, 270380, Note_on_c, 0, 78, 0
2, 270384, Note_on_c, 0, 69, 88
2, 270396, Note_on_c, 0, 72, 69
2, 270446, Note_on_c, 0, 72, 0
2, 270460, Note_on_c, 0, 69, 0
2, 270478, Note_on_c, 0, 78, 64
2, 270490, Control_c, 0, 64, 127
2, 270536, Note_on_c, 0, 78, 0
2, 270539, Note_on_c, 0, 50, 0
2, 270552, Note_on_c, 0, 69, 67
2, 270555, Note_on_c, 0, 72, 63
2, 270604, Note_on_c, 0, 69, 0
2, 270607, Note_on_c, 0, 72, 0
2, 270628, Note_on_c, 0, 78, 58
2, 270642, Control_c, 0, 64, 0
2, 270696, Note_on_c, 0, 78, 0
2, 270696, Note_on_c, 0, 38, 0
2, 270704, Note_on_c, 0, 51, 103
2, 270710, Note_on_c, 0, 39, 90
2, 270712, Note_on_c, 0, 72, 66
2, 270712, Note_on_c, 0, 69, 65
2, 270770, Note_on_c, 0, 72, 0
2, 270790, Note_on_c, 0, 69, 0
2, 270804, Note_on_c, 0, 78, 64
2, 270812, Control_c, 0, 64, 127
2, 270866, Note_on_c, 0, 78, 0
2, 270882, Note_on_c, 0, 72, 57
2, 270884, Note_on_c, 0, 69, 77
2, 270938, Note_on_c, 0, 69, 0
2, 270938, Note_on_c, 0, 72, 0
2, 270964, Note_on_c, 0, 78, 57
2, 270964, Control_c, 0, 64, 0
2, 270970, Note_on_c, 0, 51, 0
2, 271036, Note_on_c, 0, 39, 0
2, 271039, Note_on_c, 0, 78, 0
2, 271042, Note_on_c, 0, 69, 75
2, 271044, Note_on_c, 0, 72, 75
2, 271044, Note_on_c, 0, 50, 111
2, 271050, Note_on_c, 0, 38, 103
2, 271102, Note_on_c, 0, 72, 0
2, 271114, Note_on_c, 0, 69, 0
2, 271124, Note_on_c, 0, 78, 73
2, 271150, Control_c, 0, 64, 127
2, 271204, Note_on_c, 0, 69, 79
2, 271207, Note_on_c, 0, 78, 0
2, 271207, Note_on_c, 0, 72, 75
2, 271268, Note_on_c, 0, 72, 0
2, 271270, Note_on_c, 0, 50, 0
2, 271286, Note_on_c, 0, 69, 0
2, 271292, Note_on_c, 0, 78, 74
2, 271364, Note_on_c, 0, 51, 115
2, 271370, Note_on_c, 0, 69, 92
2, 271376, Note_on_c, 0, 72, 83
2, 271376, Note_on_c, 0, 39, 101
2, 271386, Note_on_c, 0, 78, 0
2, 271396, Note_on_c, 0, 38, 0
2, 271448, Note_on_c, 0, 72, 0
2, 271460, Note_on_c, 0, 69, 0
2, 271462, Note_on_c, 0, 78, 87
2, 271538, Note_on_c, 0, 69, 95
2, 271540, Note_on_c, 0, 72, 87
2, 271548, Note_on_c, 0, 78, 0
2, 271604, Note_on_c, 0, 72, 0
2, 271620, Note_on_c, 0, 69, 0
2, 271626, Note_on_c, 0, 78, 90
2, 271642, Control_c, 0, 64, 0
2, 271676, Note_on_c, 0, 51, 0
2, 271694, Note_on_c, 0, 50, 120
2, 271698, Note_on_c, 0, 38, 118
2, 271702, Note_on_c, 0, 69, 97
2, 271704, Note_on_c, 0, 72, 101
2, 271724, Note_on_c, 0, 78, 0
2, 271732, Note_on_c, 0, 39, 0
2, 271764, Control_c, 0, 64, 127
2, 271780, Note_on_c, 0, 69, 0
2, 271784, Note_on_c, 0, 72, 0
2, 271790, Note_on_c, 0, 78, 98
2, 271842, Control_c, 0, 64, 0
2, 271862, Note_on_c, 0, 69, 101
2, 271864, Note_on_c, 0, 72, 105
2, 271892, Note_on_c, 0, 78, 0
2, 271900, Note_on_c, 0, 50, 0
2, 271944, Note_on_c, 0, 72, 0
2, 271946, Note_on_c, 0, 69, 0
2, 271952, Note_on_c, 0, 78, 103
2, 271964, Control_c, 0, 64, 127
2, 272002, Note_on_c, 0, 51, 115
2, 272014, Note_on_c, 0, 39, 100
2, 272018, Note_on_c, 0, 69, 109
2, 272020, Note_on_c, 0, 72, 111
2, 272032, Note_on_c, 0, 38, 0
2, 272046, Note_on_c, 0, 78, 0
2, 272088, Note_on_c, 0, 72, 0
2, 272088, Control_c, 0, 64, 0
2, 272091, Note_on_c, 0, 69, 0
2, 272106, Note_on_c, 0, 78, 109
2, 272148, Control_c, 0, 64, 127
2, 272170, Note_on_c, 0, 69, 102
2, 272176, Note_on_c, 0, 72, 103
2, 272212, Note_on_c, 0, 78, 0
2, 272244, Note_on_c, 0, 72, 0
2, 272262, Note_on_c, 0, 69, 0
2, 272272, Note_on_c, 0, 78, 115
2, 272284, Note_on_c, 0, 51, 0
2, 272286, Control_c, 0, 64, 0
2, 272326, Note_on_c, 0, 50, 120
2, 272326, Note_on_c, 0, 38, 116
2, 272330, Note_on_c, 0, 72, 116
2, 272334, Note_on_c, 0, 39, 0
2, 272334, Note_on_c, 0, 69, 111
2, 272364, Note_on_c, 0, 78, 0
2, 272425, Note_on_c, 0, 69, 0
2, 272434, Note_on_c, 0, 72, 0
2, 272492, Note_on_c, 0, 72, 126
2, 272494, Note_on_c, 0, 69, 112
2, 272558, Note_on_c, 0, 69, 0
2, 272586, Note_on_c, 0, 72, 0
2, 272680, Note_on_c, 0, 78, 118
2, 272682, Note_on_c, 0, 81, 127
2, 272712, Note_on_c, 0, 50, 0
2, 272804, Note_on_c, 0, 38, 0
2, 272808, Control_c, 0, 64, 127
2, 272842, Note_on_c, 0, 51, 110
2, 272847, Note_on_c, 0, 39, 97
2, 272984, Note_on_c, 0, 51, 0
2, 272992, Note_on_c, 0, 78, 0
2, 273028, Note_on_c, 0, 50, 124
2, 273028, Note_on_c, 0, 38, 118
2, 273038, Note_on_c, 0, 81, 0
2, 273041, Note_on_c, 0, 39, 0
2, 273102, Control_c, 0, 64, 0
2, 273196, Note_on_c, 0, 78, 111
2, 273202, Note_on_c, 0, 72, 120
2, 273248, Note_on_c, 0, 72, 0
2, 273286, Note_on_c, 0, 78, 0
2, 273380, Note_on_c, 0, 84, 127
2, 273383, Note_on_c, 0, 81, 126
2, 273450, Note_on_c, 0, 50, 0
2, 273474, Note_on_c, 0, 38, 0
2, 273548, Note_on_c, 0, 51, 115
2, 273560, Note_on_c, 0, 39, 97
2, 273592, Control_c, 0, 64, 127
2, 273648, Note_on_c, 0, 51, 0
2, 273674, Note_on_c, 0, 39, 0
2, 273734, Note_on_c, 0, 50, 111
2, 273740, Note_on_c, 0, 38, 109
2, 273762, Control_c, 0, 64, 0
2, 273782, Note_on_c, 0, 81, 0
2, 273848, Note_on_c, 0, 84, 0
2, 273890, Note_on_c, 0, 82, 115
2, 273894, Note_on_c, 0, 79, 108
2, 273940, Note_on_c, 0, 79, 0
2, 273958, Note_on_c, 0, 82, 0
2, 274030, Note_on_c, 0, 50, 0
2, 274050, Note_on_c, 0, 38, 0
2, 274053, Note_on_c, 0, 81, 115
2, 274056, Note_on_c, 0, 78, 105
2, 274106, Note_on_c, 0, 78, 0
2, 274134, Note_on_c, 0, 81, 0
2, 274216, Note_on_c, 0, 75, 103
2, 274216, Note_on_c, 0, 79, 113
2, 274260, Note_on_c, 0, 75, 0
2, 274296, Note_on_c, 0, 79, 0
2, 274384, Note_on_c, 0, 78, 103
2, 274394, Note_on_c, 0, 74, 106
2, 274440, Note_on_c, 0, 74, 0
2, 274464, Note_on_c, 0, 78, 0
2, 274556, Note_on_c, 0, 72, 104
2, 274556, Note_on_c, 0, 75, 95
2, 274592, Note_on_c, 0, 75, 0
2, 274610, Note_on_c, 0, 72, 0
2, 274712, Note_on_c, 0, 70, 104
2, 274714, Note_on_c, 0, 74, 101
2, 274756, Note_on_c, 0, 70, 0
2, 274762, Note_on_c, 0, 74, 0
2, 274874, Note_on_c, 0, 72, 102
2, 274876, Note_on_c, 0, 69, 97
2, 274916, Note_on_c, 0, 69, 0
2, 274918, Note_on_c, 0, 72, 0
2, 275042, Note_on_c, 0, 70, 108
2, 275046, Note_on_c, 0, 67, 98
2, 275046, Note_on_c, 0, 55, 56
2, 275064, Note_on_c, 0, 43, 42
2, 275136, Note_on_c, 0, 70, 0
2, 275206, Note_on_c, 0, 72, 93
2, 275240, Note_on_c, 0, 67, 0
2, 275244, Note_on_c, 0, 70, 92
2, 275252, Note_on_c, 0, 72, 0
2, 275306, Note_on_c, 0, 70, 0
2, 275306, Note_on_c, 0, 69, 88
2, 275372, Note_on_c, 0, 70, 106
2, 275404, Note_on_c, 0, 69, 0
2, 275446, Note_on_c, 0, 70, 0
2, 275554, Note_on_c, 0, 72, 89
2, 275594, Note_on_c, 0, 72, 0
2, 275596, Note_on_c, 0, 55, 0
2, 275688, Note_on_c, 0, 43, 0
2, 275778, Note_on_c, 0, 74, 75
2, 275954, Note_on_c, 0, 74, 0
2, 276364, Note_on_c, 0, 67, 71
2, 276366, Note_on_c, 0, 58, 59
2, 276392, Note_on_c, 0, 62, 29
2, 276428, Note_on_c, 0, 67, 0
2, 276436, Note_on_c, 0, 58, 0
2, 276462, Note_on_c, 0, 62, 0
2, 276476, Note_on_c, 0, 68, 71
2, 276488, Note_on_c, 0, 63, 64
2, 276490, Note_on_c, 0, 60, 59
2, 276754, Note_on_c, 0, 66, 75
2, 276800, Note_on_c, 0, 68, 0
2, 276816, Note_on_c, 0, 66, 0
2, 276842, Note_on_c, 0, 63, 0
2, 276846, Note_on_c, 0, 60, 0
2, 276858, Note_on_c, 0, 58, 67
2, 276858, Note_on_c, 0, 67, 66
2, 276884, Note_on_c, 0, 62, 40
2, 276918, Note_on_c, 0, 67, 0
2, 277102, Note_on_c, 0, 67, 93
2, 277164, Note_on_c, 0, 67, 0
2, 277188, Note_on_c, 0, 58, 0
2, 277194, Note_on_c, 0, 68, 96
2, 277214, Note_on_c, 0, 63, 77
2, 277222, Note_on_c, 0, 62, 0
2, 277222, Note_on_c, 0, 60, 72
2, 277442, Note_on_c, 0, 66, 85
2, 277504, Note_on_c, 0, 68, 0
2, 277538, Note_on_c, 0, 60, 0
2, 277554, Note_on_c, 0, 63, 0
2, 277554, Note_on_c, 0, 67, 106
2, 277574, Note_on_c, 0, 58, 75
2, 277574, Note_on_c, 0, 62, 72
2, 277590, Note_on_c, 0, 66, 0
2, 277646, Note_on_c, 0, 67, 0
2, 277674, Note_on_c, 0, 62, 0
2, 277780, Note_on_c, 0, 58, 0
2, 277790, Note_on_c, 0, 67, 104
2, 277830, Note_on_c, 0, 67, 0
2, 277898, Note_on_c, 0, 72, 117
2, 277902, Note_on_c, 0, 66, 92
2, 277918, Note_on_c, 0, 62, 80
2, 277924, Note_on_c, 0, 57, 82
2, 278042, Note_on_c, 0, 62, 0
2, 278052, Note_on_c, 0, 57, 0
2, 278060, Note_on_c, 0, 66, 0
2, 278070, Note_on_c, 0, 72, 0
2, 278298, Note_on_c, 0, 70, 86
2, 278318, Note_on_c, 0, 67, 65
2, 278326, Note_on_c, 0, 55, 51
2, 278334, Note_on_c, 0, 62, 37
2, 278394, Note_on_c, 0, 67, 0
2, 278504, Note_on_c, 0, 62, 0
2, 278504, Note_on_c, 0, 55, 0
2, 278524, Note_on_c, 0, 70, 0
2, 279226, Note_on_c, 0, 67, 82
2, 279276, Note_on_c, 0, 67, 0
2, 279360, Note_on_c, 0, 64, 92
2, 279362, Note_on_c, 0, 60, 73
2, 279366, Note_on_c, 0, 58, 79
2, 279370, Note_on_c, 0, 74, 102
2, 279524, Note_on_c, 0, 64, 0
2, 279526, Note_on_c, 0, 60, 0
2, 279530, Note_on_c, 0, 58, 0
2, 279566, Note_on_c, 0, 74, 0
2, 279788, Note_on_c, 0, 72, 83
2, 279791, Note_on_c, 0, 60, 47
2, 279800, Note_on_c, 0, 65, 70
2, 279816, Note_on_c, 0, 57, 52
2, 279994, Note_on_c, 0, 60, 0
2, 280046, Note_on_c, 0, 57, 0
2, 280062, Note_on_c, 0, 65, 0
2, 280062, Control_c, 0, 64, 127
2, 280096, Note_on_c, 0, 72, 0
2, 280108, Control_c, 0, 64, 0
2, 280942, Note_on_c, 0, 72, 115
2, 280986, Note_on_c, 0, 72, 0
2, 281098, Note_on_c, 0, 77, 127
2, 281100, Note_on_c, 0, 71, 106
2, 281102, Note_on_c, 0, 62, 120
2, 281104, Note_on_c, 0, 50, 117
2, 281106, Note_on_c, 0, 65, 119
2, 281230, Control_c, 0, 64, 127
2, 281306, Note_on_c, 0, 62, 0
2, 281314, Note_on_c, 0, 50, 0
2, 281320, Note_on_c, 0, 65, 0
2, 281356, Note_on_c, 0, 77, 0
2, 281362, Note_on_c, 0, 71, 0
2, 281444, Control_c, 0, 64, 0
2, 281668, Note_on_c, 0, 76, 127
2, 281670, Note_on_c, 0, 67, 120
2, 281670, Note_on_c, 0, 72, 123
2, 281682, Note_on_c, 0, 60, 120
2, 281682, Note_on_c, 0, 48, 121
2, 281838, Note_on_c, 0, 60, 0
2, 281860, Control_c, 0, 64, 127
2, 281880, Note_on_c, 0, 67, 0
2, 281880, Note_on_c, 0, 48, 0
2, 281912, Note_on_c, 0, 72, 0
2, 281964, Note_on_c, 0, 76, 0
2, 282104, Control_c, 0, 64, 0
2, 282950, Control_c, 0, 64, 127
2, 283670, Note_on_c, 0, 53, 18
2, 283898, Note_on_c, 0, 53, 0
2, 283944, Note_on_c, 0, 57, 40
2, 284034, Note_on_c, 0, 57, 0
2, 284154, Note_on_c, 0, 60, 43
2, 284266, Note_on_c, 0, 60, 0
2, 284374, Note_on_c, 0, 57, 41
2, 284442, Note_on_c, 0, 57, 0
2, 284590, Note_on_c, 0, 53, 36
2, 284682, Note_on_c, 0, 53, 0
2, 284750, Note_on_c, 0, 57, 36
2, 284822, Note_on_c, 0, 57, 0
2, 284942, Note_on_c, 0, 60, 56
2, 285026, Note_on_c, 0, 60, 0
2, 285128, Note_on_c, 0, 57, 48
2, 285222, Note_on_c, 0, 57, 0
2, 285342, Note_on_c, 0, 52, 57
2, 285408, Control_c, 0, 64, 0
2, 285542, Note_on_c, 0, 58, 75
2, 285702, Note_on_c, 0, 58, 0
2, 285716, Control_c, 0, 64, 127
2, 285740, Note_on_c, 0, 60, 62
2, 285806, Note_on_c, 0, 52, 0
2, 285898, Note_on_c, 0, 60, 0
2, 285934, Note_on_c, 0, 58, 70
2, 286004, Note_on_c, 0, 58, 0
2, 286154, Note_on_c, 0, 52, 44
2, 286310, Note_on_c, 0, 52, 0
2, 286338, Note_on_c, 0, 58, 57
2, 286414, Note_on_c, 0, 58, 0
2, 286516, Note_on_c, 0, 60, 50
2, 286628, Note_on_c, 0, 60, 0
2, 286712, Note_on_c, 0, 58, 67
2, 286812, Note_on_c, 0, 58, 0
2, 286926, Note_on_c, 0, 72, 101
2, 286960, Note_on_c, 0, 53, 40
2, 286976, Control_c, 0, 64, 0
2, 287168, Note_on_c, 0, 57, 50
2, 287344, Note_on_c, 0, 57, 0
2, 287344, Control_c, 0, 64, 127
2, 287362, Note_on_c, 0, 60, 51
2, 287428, Note_on_c, 0, 53, 0
2, 287556, Note_on_c, 0, 60, 0
2, 287580, Note_on_c, 0, 57, 43
2, 287654, Note_on_c, 0, 57, 0
2, 287790, Note_on_c, 0, 53, 44
2, 287862, Note_on_c, 0, 72, 0
2, 287938, Note_on_c, 0, 74, 73
2, 288030, Note_on_c, 0, 74, 0
2, 288030, Note_on_c, 0, 72, 86
2, 288052, Note_on_c, 0, 57, 32
2, 288084, Note_on_c, 0, 72, 0
2, 288118, Note_on_c, 0, 71, 79
2, 288140, Note_on_c, 0, 57, 0
2, 288238, Note_on_c, 0, 72, 106
2, 288241, Note_on_c, 0, 60, 47
2, 288256, Note_on_c, 0, 71, 0
2, 288312, Control_c, 0, 64, 0
2, 288432, Note_on_c, 0, 74, 97
2, 288460, Note_on_c, 0, 57, 50
2, 288472, Note_on_c, 0, 72, 0
2, 288486, Note_on_c, 0, 60, 0
2, 288526, Control_c, 0, 64, 127
2, 288660, Note_on_c, 0, 57, 0
2, 288676, Note_on_c, 0, 65, 85
2, 288692, Note_on_c, 0, 53, 0
2, 288695, Control_c, 0, 64, 0
2, 288708, Note_on_c, 0, 55, 35
2, 288804, Note_on_c, 0, 74, 0
2, 288896, Note_on_c, 0, 58, 63
2, 289074, Note_on_c, 0, 58, 0
2, 289080, Control_c, 0, 64, 127
2, 289094, Note_on_c, 0, 55, 0
2, 289112, Note_on_c, 0, 60, 47
2, 289310, Note_on_c, 0, 60, 0
2, 289310, Note_on_c, 0, 58, 59
2, 289424, Note_on_c, 0, 58, 0
2, 289480, Control_c, 0, 64, 0
2, 289524, Note_on_c, 0, 64, 58
2, 289554, Note_on_c, 0, 55, 39
2, 289556, Note_on_c, 0, 65, 0
2, 289736, Note_on_c, 0, 58, 64
2, 289834, Control_c, 0, 64, 127
2, 289837, Note_on_c, 0, 58, 0
2, 289912, Note_on_c, 0, 64, 0
2, 289930, Note_on_c, 0, 60, 54
2, 290086, Note_on_c, 0, 60, 0
2, 290130, Note_on_c, 0, 58, 66
2, 290258, Note_on_c, 0, 55, 0
2, 290294, Note_on_c, 0, 58, 0
2, 290358, Note_on_c, 0, 53, 36
2, 290494, Control_c, 0, 64, 0
2, 290544, Note_on_c, 0, 65, 72
2, 290596, Note_on_c, 0, 57, 51
2, 290688, Note_on_c, 0, 57, 0
2, 290740, Control_c, 0, 64, 127
2, 290758, Note_on_c, 0, 69, 86
2, 290774, Note_on_c, 0, 65, 0
2, 290798, Note_on_c, 0, 60, 47
2, 290832, Note_on_c, 0, 53, 0
2, 290892, Note_on_c, 0, 69, 0
2, 290946, Note_on_c, 0, 72, 115
2, 290960, Note_on_c, 0, 60, 0
2, 290982, Note_on_c, 0, 72, 0
2, 291002, Note_on_c, 0, 57, 40
2, 291078, Note_on_c, 0, 57, 0
2, 291152, Note_on_c, 0, 77, 112
2, 291158, Note_on_c, 0, 53, 59
2, 291292, Control_c, 0, 64, 0
2, 291358, Note_on_c, 0, 81, 112
2, 291376, Note_on_c, 0, 77, 0
2, 291394, Note_on_c, 0, 57, 65
2, 291508, Control_c, 0, 64, 127
2, 291510, Note_on_c, 0, 57, 0
2, 291534, Note_on_c, 0, 81, 0
2, 291544, Note_on_c, 0, 84, 118
2, 291584, Note_on_c, 0, 60, 57
2, 291628, Note_on_c, 0, 84, 0
2, 291736, Note_on_c, 0, 84, 109
2, 291746, Note_on_c, 0, 60, 0
2, 291794, Note_on_c, 0, 57, 41
2, 291820, Note_on_c, 0, 84, 0
2, 291900, Note_on_c, 0, 53, 0
2, 291922, Note_on_c, 0, 57, 0
2, 291942, Note_on_c, 0, 83, 90
2, 292044, Note_on_c, 0, 84, 100
2, 292052, Note_on_c, 0, 52, 35
2, 292056, Note_on_c, 0, 83, 0
2, 292146, Note_on_c, 0, 84, 0
2, 292154, Note_on_c, 0, 86, 78
2, 292262, Note_on_c, 0, 84, 73
2, 292276, Note_on_c, 0, 86, 0
2, 292308, Control_c, 0, 64, 0
2, 292384, Note_on_c, 0, 55, 33
2, 292588, Note_on_c, 0, 55, 0
2, 292598, Control_c, 0, 64, 127
2, 292632, Note_on_c, 0, 60, 40
2, 292800, Note_on_c, 0, 60, 0
2, 292810, Note_on_c, 0, 52, 0
2, 292838, Note_on_c, 0, 82, 71
2, 292864, Note_on_c, 0, 84, 0
2, 292914, Note_on_c, 0, 55, 27
2, 292946, Note_on_c, 0, 82, 0
2, 292972, Note_on_c, 0, 81, 57
2, 293008, Note_on_c, 0, 55, 0
2, 293082, Note_on_c, 0, 81, 0
2, 293104, Note_on_c, 0, 79, 67
2, 293120, Note_on_c, 0, 52, 39
2, 293122, Control_c, 0, 64, 0
2, 293334, Note_on_c, 0, 58, 51
2, 293352, Control_c, 0, 64, 127
2, 293396, Note_on_c, 0, 79, 0
2, 293450, Note_on_c, 0, 52, 0
2, 293454, Note_on_c, 0, 58, 0
2, 293544, Note_on_c, 0, 60, 32
2, 293676, Note_on_c, 0, 60, 0
2, 293776, Note_on_c, 0, 58, 49
2, 293854, Note_on_c, 0, 58, 0
2, 294068, Note_on_c, 0, 72, 81
2, 294114, Note_on_c, 0, 53, 39
2, 294120, Control_c, 0, 64, 0
2, 294360, Note_on_c, 0, 56, 47
2, 294566, Note_on_c, 0, 56, 0
2, 294590, Note_on_c, 0, 60, 46
2, 294612, Control_c, 0, 64, 127
2, 294686, Note_on_c, 0, 53, 0
2, 294768, Note_on_c, 0, 60, 0
2, 294818, Note_on_c, 0, 56, 37
2, 294914, Note_on_c, 0, 56, 0
2, 295020, Note_on_c, 0, 53, 39
2, 295070, Note_on_c, 0, 72, 0
2, 295192, Note_on_c, 0, 73, 57
2, 295252, Note_on_c, 0, 56, 44
2, 295262, Note_on_c, 0, 73, 0
2, 295288, Note_on_c, 0, 72, 41
2, 295350, Note_on_c, 0, 72, 0
2, 295352, Note_on_c, 0, 71, 49
2, 295426, Note_on_c, 0, 71, 0
2, 295426, Control_c, 0, 64, 0
2, 295434, Note_on_c, 0, 72, 73
2, 295480, Note_on_c, 0, 56, 0
2, 295502, Note_on_c, 0, 60, 44
2, 295610, Control_c, 0, 64, 127
2, 295680, Note_on_c, 0, 73, 69
2, 295696, Note_on_c, 0, 60, 0
2, 295700, Note_on_c, 0, 72, 0
2, 295732, Note_on_c, 0, 56, 48
2, 295800, Note_on_c, 0, 56, 0
2, 295972, Note_on_c, 0, 65, 77
2, 295980, Note_on_c, 0, 53, 0
2, 295980, Control_c, 0, 64, 0
2, 296026, Note_on_c, 0, 55, 27
2, 296152, Note_on_c, 0, 73, 0
2, 296212, Note_on_c, 0, 58, 56
2, 296308, Note_on_c, 0, 58, 0
2, 296348, Control_c, 0, 64, 127
2, 296418, Note_on_c, 0, 60, 43
2, 296460, Note_on_c, 0, 55, 0
2, 296612, Note_on_c, 0, 60, 0
2, 296644, Note_on_c, 0, 58, 43
2, 296784, Note_on_c, 0, 58, 0
2, 296866, Note_on_c, 0, 64, 54
2, 296884, Note_on_c, 0, 65, 0
2, 296896, Note_on_c, 0, 55, 25
2, 296948, Control_c, 0, 64, 0
2, 297092, Note_on_c, 0, 58, 59
2, 297162, Control_c, 0, 64, 127
2, 297218, Note_on_c, 0, 58, 0
2, 297222, Note_on_c, 0, 64, 0
2, 297292, Note_on_c, 0, 60, 43
2, 297464, Note_on_c, 0, 60, 0
2, 297478, Note_on_c, 0, 58, 70
2, 297564, Note_on_c, 0, 58, 0
2, 297594, Note_on_c, 0, 55, 0
2, 297696, Note_on_c, 0, 53, 59
2, 297854, Control_c, 0, 64, 0
2, 297884, Note_on_c, 0, 65, 92
2, 297908, Note_on_c, 0, 56, 49
2, 298066, Note_on_c, 0, 56, 0
2, 298070, Note_on_c, 0, 68, 95
2, 298092, Note_on_c, 0, 60, 63
2, 298130, Note_on_c, 0, 65, 0
2, 298130, Control_c, 0, 64, 127
2, 298184, Note_on_c, 0, 53, 0
2, 298240, Note_on_c, 0, 68, 0
2, 298276, Note_on_c, 0, 72, 116
2, 298288, Note_on_c, 0, 60, 0
2, 298294, Note_on_c, 0, 56, 59
2, 298320, Note_on_c, 0, 72, 0
2, 298374, Note_on_c, 0, 56, 0
2, 298476, Note_on_c, 0, 77, 117
2, 298520, Note_on_c, 0, 53, 55
2, 298592, Control_c, 0, 64, 0
2, 298666, Note_on_c, 0, 80, 108
2, 298696, Note_on_c, 0, 56, 57
2, 298744, Note_on_c, 0, 77, 0
2, 298814, Note_on_c, 0, 56, 0
2, 298822, Control_c, 0, 64, 127
2, 298866, Note_on_c, 0, 80, 0
2, 298866, Note_on_c, 0, 84, 117
2, 298904, Note_on_c, 0, 60, 52
2, 298952, Note_on_c, 0, 84, 0
2, 299066, Note_on_c, 0, 60, 0
2, 299088, Note_on_c, 0, 84, 111
2, 299114, Note_on_c, 0, 56, 52
2, 299224, Note_on_c, 0, 84, 0
2, 299254, Note_on_c, 0, 53, 0
2, 299322, Note_on_c, 0, 56, 0
2, 299384, Note_on_c, 0, 51, 52
2, 299394, Note_on_c, 0, 84, 109
2, 299420, Control_c, 0, 64, 0
2, 299634, Note_on_c, 0, 54, 44
2, 299740, Note_on_c, 0, 54, 0
2, 299790, Control_c, 0, 64, 127
2, 299818, Note_on_c, 0, 56, 51
2, 299958, Note_on_c, 0, 51, 0
2, 300004, Note_on_c, 0, 56, 0
2, 300046, Note_on_c, 0, 54, 42
2, 300208, Note_on_c, 0, 54, 0
2, 300242, Note_on_c, 0, 84, 0
2, 300248, Note_on_c, 0, 51, 49
2, 300428, Note_on_c, 0, 80, 90
2, 300478, Note_on_c, 0, 54, 35
2, 300532, Note_on_c, 0, 80, 0
2, 300576, Note_on_c, 0, 54, 0
2, 300620, Note_on_c, 0, 82, 109
2, 300642, Note_on_c, 0, 56, 50
2, 300730, Note_on_c, 0, 82, 0
2, 300796, Note_on_c, 0, 56, 0
2, 300808, Note_on_c, 0, 84, 112
2, 300828, Note_on_c, 0, 54, 56
2, 300898, Note_on_c, 0, 84, 0
2, 300948, Note_on_c, 0, 54, 0
2, 301014, Note_on_c, 0, 51, 0
2, 301026, Note_on_c, 0, 85, 94
2, 301034, Note_on_c, 0, 49, 55
2, 301034, Control_c, 0, 64, 0
2, 301256, Note_on_c, 0, 53, 49
2, 301296, Control_c, 0, 64, 127
2, 301352, Note_on_c, 0, 53, 0
2, 301438, Note_on_c, 0, 56, 52
2, 301508, Note_on_c, 0, 49, 0
2, 301588, Note_on_c, 0, 56, 0
2, 301614, Note_on_c, 0, 85, 0
2, 301662, Note_on_c, 0, 53, 47
2, 301738, Note_on_c, 0, 53, 0
2, 301830, Note_on_c, 0, 49, 63
2, 302012, Note_on_c, 0, 49, 0
2, 302012, Note_on_c, 0, 80, 97
2, 302046, Note_on_c, 0, 53, 43
2, 302114, Note_on_c, 0, 53, 0
2, 302120, Note_on_c, 0, 80, 0
2, 302202, Note_on_c, 0, 84, 117
2, 302205, Note_on_c, 0, 56, 62
2, 302300, Note_on_c, 0, 84, 0
2, 302358, Note_on_c, 0, 56, 0
2, 302390, Note_on_c, 0, 85, 115
2, 302402, Note_on_c, 0, 53, 71
2, 302514, Note_on_c, 0, 85, 0
2, 302534, Note_on_c, 0, 53, 0
2, 302602, Note_on_c, 0, 87, 105
2, 302604, Note_on_c, 0, 48, 70
2, 302694, Control_c, 0, 64, 0
2, 302790, Note_on_c, 0, 51, 66
2, 302954, Control_c, 0, 64, 127
2, 302956, Note_on_c, 0, 51, 0
2, 302962, Note_on_c, 0, 56, 67
2, 303028, Note_on_c, 0, 87, 0
2, 303068, Note_on_c, 0, 48, 0
2, 303164, Note_on_c, 0, 56, 0
2, 303182, Note_on_c, 0, 51, 71
2, 303360, Note_on_c, 0, 51, 0
2, 303396, Note_on_c, 0, 48, 83
2, 303564, Note_on_c, 0, 80, 101
2, 303588, Note_on_c, 0, 54, 70
2, 303682, Note_on_c, 0, 80, 0
2, 303690, Note_on_c, 0, 54, 0
2, 303746, Note_on_c, 0, 56, 75
2, 303749, Note_on_c, 0, 85, 111
2, 303866, Note_on_c, 0, 85, 0
2, 303924, Note_on_c, 0, 87, 116
2, 303932, Note_on_c, 0, 56, 0
2, 303940, Note_on_c, 0, 54, 77
2, 304062, Note_on_c, 0, 54, 0
2, 304126, Note_on_c, 0, 89, 119
2, 304128, Note_on_c, 0, 49, 79
2, 304144, Note_on_c, 0, 87, 0
2, 304152, Note_on_c, 0, 48, 0
2, 304200, Control_c, 0, 64, 0
2, 304342, Note_on_c, 0, 53, 69
2, 304476, Control_c, 0, 64, 127
2, 304480, Note_on_c, 0, 53, 0
2, 304508, Note_on_c, 0, 56, 71
2, 304574, Note_on_c, 0, 89, 0
2, 304790, Note_on_c, 0, 56, 0
2, 304802, Note_on_c, 0, 89, 111
2, 304812, Note_on_c, 0, 53, 60
2, 304988, Note_on_c, 0, 53, 0
2, 305010, Note_on_c, 0, 49, 0
2, 305034, Note_on_c, 0, 87, 92
2, 305040, Note_on_c, 0, 47, 50
2, 305112, Note_on_c, 0, 89, 0
2, 305136, Control_c, 0, 64, 0
2, 305272, Note_on_c, 0, 53, 59
2, 305354, Note_on_c, 0, 53, 0
2, 305398, Control_c, 0, 64, 127
2, 305418, Note_on_c, 0, 87, 0
2, 305418, Note_on_c, 0, 56, 62
2, 305596, Note_on_c, 0, 87, 92
2, 305604, Note_on_c, 0, 56, 0
2, 305658, Note_on_c, 0, 53, 43
2, 305668, Note_on_c, 0, 47, 0
2, 305746, Note_on_c, 0, 53, 0
2, 305820, Note_on_c, 0, 46, 78
2, 305828, Control_c, 0, 64, 0
2, 305840, Note_on_c, 0, 86, 81
2, 305912, Note_on_c, 0, 87, 0
2, 306054, Note_on_c, 0, 53, 60
2, 306126, Note_on_c, 0, 53, 0
2, 306212, Note_on_c, 0, 56, 64
2, 306212, Control_c, 0, 64, 127
2, 306224, Note_on_c, 0, 86, 0
2, 306312, Note_on_c, 0, 46, 0
2, 306408, Note_on_c, 0, 56, 0
2, 306432, Note_on_c, 0, 53, 66
2, 306506, Note_on_c, 0, 53, 0
2, 306630, Note_on_c, 0, 46, 89
2, 306802, Note_on_c, 0, 82, 119
2, 306856, Note_on_c, 0, 53, 55
2, 306886, Note_on_c, 0, 46, 0
2, 306934, Note_on_c, 0, 53, 0
2, 307002, Note_on_c, 0, 84, 124
2, 307008, Note_on_c, 0, 56, 73
2, 307070, Note_on_c, 0, 82, 0
2, 307166, Note_on_c, 0, 56, 0
2, 307190, Note_on_c, 0, 86, 123
2, 307218, Note_on_c, 0, 53, 70
2, 307272, Note_on_c, 0, 84, 0
2, 307382, Note_on_c, 0, 53, 0
2, 307382, Note_on_c, 0, 87, 109
2, 307390, Note_on_c, 0, 46, 95
2, 307434, Note_on_c, 0, 86, 0
2, 307456, Control_c, 0, 64, 0
2, 307592, Note_on_c, 0, 51, 66
2, 307594, Note_on_c, 0, 78, 92
2, 307664, Note_on_c, 0, 87, 0
2, 307718, Control_c, 0, 64, 127
2, 307768, Note_on_c, 0, 54, 67
2, 307774, Note_on_c, 0, 51, 0
2, 307780, Note_on_c, 0, 78, 0
2, 307938, Note_on_c, 0, 78, 108
2, 307956, Note_on_c, 0, 54, 0
2, 307974, Note_on_c, 0, 51, 70
2, 308146, Note_on_c, 0, 85, 109
2, 308158, Note_on_c, 0, 45, 97
2, 308176, Note_on_c, 0, 51, 0
2, 308178, Note_on_c, 0, 46, 0
2, 308182, Note_on_c, 0, 78, 0
2, 308256, Control_c, 0, 64, 0
2, 308382, Note_on_c, 0, 78, 90
2, 308414, Note_on_c, 0, 51, 72
2, 308424, Note_on_c, 0, 85, 0
2, 308502, Control_c, 0, 64, 127
2, 308538, Note_on_c, 0, 51, 0
2, 308588, Note_on_c, 0, 78, 0
2, 308594, Note_on_c, 0, 54, 67
2, 308748, Note_on_c, 0, 78, 101
2, 308751, Note_on_c, 0, 54, 0
2, 308814, Note_on_c, 0, 51, 60
2, 308888, Note_on_c, 0, 51, 0
2, 308966, Note_on_c, 0, 45, 0
2, 308974, Note_on_c, 0, 44, 62
2, 308978, Note_on_c, 0, 84, 104
2, 308994, Control_c, 0, 64, 0
2, 308996, Note_on_c, 0, 78, 0
2, 309236, Note_on_c, 0, 51, 58
2, 309236, Note_on_c, 0, 78, 83
2, 309282, Note_on_c, 0, 84, 0
2, 309330, Control_c, 0, 64, 127
2, 309378, Note_on_c, 0, 51, 0
2, 309416, Note_on_c, 0, 54, 60
2, 309444, Note_on_c, 0, 78, 0
2, 309468, Note_on_c, 0, 44, 0
2, 309600, Note_on_c, 0, 54, 0
2, 309618, Note_on_c, 0, 51, 73
2, 309800, Note_on_c, 0, 51, 0
2, 309802, Note_on_c, 0, 44, 77
2, 309990, Note_on_c, 0, 80, 109
2, 309996, Note_on_c, 0, 51, 74
2, 310122, Note_on_c, 0, 51, 0
2, 310186, Note_on_c, 0, 54, 78
2, 310190, Note_on_c, 0, 82, 127
2, 310252, Note_on_c, 0, 44, 0
2, 310258, Note_on_c, 0, 80, 0
2, 310368, Note_on_c, 0, 84, 124
2, 310394, Note_on_c, 0, 51, 80
2, 310420, Note_on_c, 0, 82, 0
2, 310434, Note_on_c, 0, 54, 0
2, 310544, Note_on_c, 0, 51, 0
2, 310556, Note_on_c, 0, 85, 115
2, 310556, Note_on_c, 0, 44, 87
2, 310566, Note_on_c, 0, 84, 0
2, 310576, Control_c, 0, 64, 0
2, 310740, Note_on_c, 0, 76, 118
2, 310754, Note_on_c, 0, 85, 0
2, 310760, Note_on_c, 0, 49, 83
2, 310790, Control_c, 0, 64, 127
2, 310834, Note_on_c, 0, 76, 0
2, 310918, Note_on_c, 0, 78, 98
2, 310922, Note_on_c, 0, 49, 0
2, 310948, Note_on_c, 0, 52, 74
2, 310980, Note_on_c, 0, 78, 0
2, 310996, Note_on_c, 0, 76, 89
2, 311048, Note_on_c, 0, 76, 0
2, 311064, Note_on_c, 0, 78, 101
2, 311138, Note_on_c, 0, 76, 100
2, 311162, Note_on_c, 0, 78, 0
2, 311180, Note_on_c, 0, 49, 66
2, 311204, Note_on_c, 0, 75, 95
2, 311206, Note_on_c, 0, 76, 0
2, 311266, Note_on_c, 0, 52, 0
2, 311274, Note_on_c, 0, 76, 123
2, 311276, Note_on_c, 0, 44, 0
2, 311302, Note_on_c, 0, 75, 0
2, 311382, Note_on_c, 0, 83, 110
2, 311385, Note_on_c, 0, 43, 95
2, 311392, Note_on_c, 0, 49, 0
2, 311406, Control_c, 0, 64, 0
2, 311416, Note_on_c, 0, 76, 0
2, 311578, Note_on_c, 0, 76, 117
2, 311594, Note_on_c, 0, 49, 93
2, 311616, Note_on_c, 0, 83, 0
2, 311636, Control_c, 0, 64, 127
2, 311668, Note_on_c, 0, 76, 0
2, 311742, Note_on_c, 0, 49, 0
2, 311752, Note_on_c, 0, 78, 103
2, 311784, Note_on_c, 0, 52, 88
2, 311828, Note_on_c, 0, 78, 0
2, 311828, Note_on_c, 0, 76, 94
2, 311876, Note_on_c, 0, 76, 0
2, 311900, Note_on_c, 0, 78, 95
2, 311974, Note_on_c, 0, 76, 105
2, 311978, Note_on_c, 0, 52, 0
2, 312010, Note_on_c, 0, 78, 0
2, 312024, Note_on_c, 0, 49, 94
2, 312046, Note_on_c, 0, 76, 0
2, 312048, Note_on_c, 0, 75, 95
2, 312094, Note_on_c, 0, 43, 0
2, 312132, Note_on_c, 0, 76, 118
2, 312150, Note_on_c, 0, 49, 0
2, 312162, Note_on_c, 0, 75, 0
2, 312230, Note_on_c, 0, 54, 109
2, 312240, Note_on_c, 0, 42, 103
2, 312250, Note_on_c, 0, 76, 0
2, 312328, Control_c, 0, 64, 0
2, 312370, Note_on_c, 0, 73, 105
2, 312498, Note_on_c, 0, 76, 115
2, 312536, Note_on_c, 0, 73, 0
2, 312636, Control_c, 0, 64, 127
2, 312652, Note_on_c, 0, 82, 123
2, 312670, Note_on_c, 0, 76, 0
2, 312808, Note_on_c, 0, 76, 106
2, 312928, Note_on_c, 0, 73, 105
2, 312944, Note_on_c, 0, 76, 0
2, 313024, Note_on_c, 0, 82, 0
2, 313038, Note_on_c, 0, 73, 0
2, 313136, Note_on_c, 0, 83, 103
2, 313204, Control_c, 0, 64, 0
2, 313280, Note_on_c, 0, 74, 96
2, 313410, Note_on_c, 0, 83, 0
2, 313418, Control_c, 0, 64, 127
2, 313428, Note_on_c, 0, 71, 81
2, 313480, Note_on_c, 0, 74, 0
2, 313498, Note_on_c, 0, 54, 0
2, 313536, Note_on_c, 0, 42, 0
2, 313536, Note_on_c, 0, 71, 0
2, 313556, Note_on_c, 0, 53, 101
2, 313558, Note_on_c, 0, 41, 100
2, 313570, Note_on_c, 0, 81, 116
2, 313618, Control_c, 0, 64, 0
2, 313718, Note_on_c, 0, 74, 102
2, 313834, Control_c, 0, 64, 127
2, 313848, Note_on_c, 0, 71, 93
2, 313866, Note_on_c, 0, 81, 0
2, 313882, Note_on_c, 0, 53, 0
2, 313888, Note_on_c, 0, 74, 0
2, 313898, Note_on_c, 0, 41, 0
2, 313956, Note_on_c, 0, 71, 0
2, 313982, Note_on_c, 0, 52, 119
2, 313982, Note_on_c, 0, 40, 120
2, 314048, Control_c, 0, 64, 0
2, 314130, Note_on_c, 0, 71, 96
2, 314264, Note_on_c, 0, 74, 115
2, 314294, Control_c, 0, 64, 127
2, 314322, Note_on_c, 0, 71, 0
2, 314406, Note_on_c, 0, 80, 118
2, 314408, Note_on_c, 0, 74, 0
2, 314418, Control_c, 0, 64, 0
2, 314564, Note_on_c, 0, 74, 115
2, 314632, Control_c, 0, 64, 127
2, 314680, Note_on_c, 0, 71, 103
2, 314718, Note_on_c, 0, 80, 0
2, 314726, Note_on_c, 0, 74, 0
2, 314802, Note_on_c, 0, 71, 0
2, 314870, Note_on_c, 0, 81, 117
2, 314924, Control_c, 0, 64, 0
2, 315028, Note_on_c, 0, 72, 92
2, 315118, Note_on_c, 0, 81, 0
2, 315154, Control_c, 0, 64, 127
2, 315159, Note_on_c, 0, 52, 0
2, 315164, Note_on_c, 0, 69, 78
2, 315208, Note_on_c, 0, 72, 0
2, 315262, Note_on_c, 0, 40, 0
2, 315286, Note_on_c, 0, 69, 0
2, 315288, Note_on_c, 0, 51, 116
2, 315292, Note_on_c, 0, 39, 105
2, 315306, Note_on_c, 0, 79, 112
2, 315354, Control_c, 0, 64, 0
2, 315440, Note_on_c, 0, 72, 105
2, 315524, Control_c, 0, 64, 127
2, 315556, Note_on_c, 0, 69, 97
2, 315584, Note_on_c, 0, 79, 0
2, 315626, Note_on_c, 0, 72, 0
2, 315632, Note_on_c, 0, 51, 0
2, 315664, Note_on_c, 0, 69, 0
2, 315684, Note_on_c, 0, 39, 0
2, 315706, Note_on_c, 0, 50, 115
2, 315706, Note_on_c, 0, 38, 113
2, 315768, Control_c, 0, 64, 0
2, 315846, Note_on_c, 0, 69, 106
2, 315980, Note_on_c, 0, 72, 115
2, 316016, Note_on_c, 0, 69, 0
2, 316016, Control_c, 0, 64, 127
2, 316130, Note_on_c, 0, 72, 0
2, 316140, Note_on_c, 0, 78, 113
2, 316168, Control_c, 0, 64, 0
2, 316290, Note_on_c, 0, 72, 105
2, 316400, Control_c, 0, 64, 127
2, 316414, Note_on_c, 0, 69, 103
2, 316440, Note_on_c, 0, 72, 0
2, 316516, Note_on_c, 0, 78, 0
2, 316534, Note_on_c, 0, 69, 0
2, 316630, Note_on_c, 0, 79, 111
2, 316692, Control_c, 0, 64, 0
2, 316776, Note_on_c, 0, 70, 93
2, 316868, Note_on_c, 0, 50, 0
2, 316890, Control_c, 0, 64, 127
2, 316902, Note_on_c, 0, 79, 0
2, 316910, Note_on_c, 0, 67, 86
2, 316956, Note_on_c, 0, 70, 0
2, 317028, Note_on_c, 0, 49, 90
2, 317030, Note_on_c, 0, 37, 93
2, 317036, Note_on_c, 0, 67, 0
2, 317040, Note_on_c, 0, 38, 0
2, 317040, Note_on_c, 0, 77, 115
2, 317044, Control_c, 0, 64, 0
2, 317178, Note_on_c, 0, 70, 87
2, 317244, Control_c, 0, 64, 127
2, 317280, Note_on_c, 0, 77, 0
2, 317290, Note_on_c, 0, 67, 93
2, 317340, Note_on_c, 0, 70, 0
2, 317352, Note_on_c, 0, 49, 0
2, 317382, Note_on_c, 0, 37, 0
2, 317412, Note_on_c, 0, 67, 0
2, 317438, Note_on_c, 0, 36, 111
2, 317438, Note_on_c, 0, 48, 110
2, 317438, Note_on_c, 0, 76, 118
2, 317444, Control_c, 0, 64, 0
2, 317576, Note_on_c, 0, 70, 97
2, 317674, Control_c, 0, 64, 127
2, 317700, Note_on_c, 0, 67, 88
2, 317732, Note_on_c, 0, 76, 0
2, 317752, Note_on_c, 0, 70, 0
2, 317816, Note_on_c, 0, 67, 0
2, 317844, Control_c, 0, 64, 0
2, 317847, Note_on_c, 0, 77, 115
2, 317992, Note_on_c, 0, 69, 85
2, 318044, Control_c, 0, 64, 127
2, 318050, Note_on_c, 0, 77, 0
2, 318092, Note_on_c, 0, 65, 90
2, 318130, Note_on_c, 0, 48, 0
2, 318142, Note_on_c, 0, 69, 0
2, 318146, Note_on_c, 0, 36, 0
2, 318208, Note_on_c, 0, 65, 0
2, 318232, Note_on_c, 0, 47, 97
2, 318235, Note_on_c, 0, 35, 98
2, 318240, Note_on_c, 0, 75, 111
2, 318320, Control_c, 0, 64, 0
2, 318390, Note_on_c, 0, 69, 96
2, 318506, Note_on_c, 0, 66, 93
2, 318534, Control_c, 0, 64, 127
2, 318570, Note_on_c, 0, 69, 0
2, 318588, Note_on_c, 0, 75, 0
2, 318614, Note_on_c, 0, 66, 0
2, 318650, Note_on_c, 0, 76, 123
2, 318672, Control_c, 0, 64, 0
2, 318786, Note_on_c, 0, 67, 101
2, 318798, Note_on_c, 0, 76, 0
2, 318874, Control_c, 0, 64, 127
2, 318888, Note_on_c, 0, 64, 105
2, 318934, Note_on_c, 0, 47, 0
2, 318940, Note_on_c, 0, 35, 0
2, 318958, Note_on_c, 0, 67, 0
2, 319010, Note_on_c, 0, 73, 115
2, 319012, Note_on_c, 0, 33, 123
2, 319014, Note_on_c, 0, 45, 121
2, 319022, Note_on_c, 0, 64, 0
2, 319058, Control_c, 0, 64, 0
2, 319160, Note_on_c, 0, 67, 102
2, 319272, Control_c, 0, 64, 127
2, 319282, Note_on_c, 0, 64, 97
2, 319318, Note_on_c, 0, 67, 0
2, 319342, Note_on_c, 0, 73, 0
2, 319380, Note_on_c, 0, 64, 0
2, 319420, Note_on_c, 0, 74, 121
2, 319442, Control_c, 0, 64, 0
2, 319554, Note_on_c, 0, 65, 104
2, 319594, Note_on_c, 0, 74, 0
2, 319626, Control_c, 0, 64, 127
2, 319660, Note_on_c, 0, 62, 96
2, 319686, Note_on_c, 0, 45, 0
2, 319712, Note_on_c, 0, 33, 0
2, 319746, Note_on_c, 0, 65, 0
2, 319788, Note_on_c, 0, 31, 123
2, 319788, Note_on_c, 0, 71, 106
2, 319790, Note_on_c, 0, 43, 116
2, 319818, Note_on_c, 0, 62, 0
2, 319856, Control_c, 0, 64, 0
2, 319908, Note_on_c, 0, 65, 103
2, 320024, Note_on_c, 0, 62, 102
2, 320040, Control_c, 0, 64, 127
2, 320074, Note_on_c, 0, 71, 0
2, 320096, Note_on_c, 0, 65, 0
2, 320172, Note_on_c, 0, 72, 121
2, 320210, Note_on_c, 0, 62, 0
2, 320210, Control_c, 0, 64, 0
2, 320312, Note_on_c, 0, 64, 112
2, 320388, Note_on_c, 0, 72, 0
2, 320394, Control_c, 0, 64, 127
2, 320434, Note_on_c, 0, 60, 111
2, 320474, Note_on_c, 0, 43, 0
2, 320516, Note_on_c, 0, 31, 0
2, 320524, Note_on_c, 0, 64, 0
2, 320536, Note_on_c, 0, 60, 0
2, 320662, Note_on_c, 0, 42, 124
2, 320666, Note_on_c, 0, 30, 124
2, 320916, Note_on_c, 0, 84, 127
2, 320962, Control_c, 0, 64, 0
2, 321238, Note_on_c, 0, 87, 125
2, 321270, Control_c, 0, 64, 127
2, 321284, Note_on_c, 0, 84, 0
2, 321356, Note_on_c, 0, 87, 0
2, 321470, Note_on_c, 0, 81, 127
2, 321684, Note_on_c, 0, 81, 0
2, 321686, Note_on_c, 0, 84, 126
2, 321772, Note_on_c, 0, 84, 0
2, 321888, Note_on_c, 0, 78, 115
2, 322080, Note_on_c, 0, 81, 123
2, 322114, Note_on_c, 0, 78, 0
2, 322186, Note_on_c, 0, 81, 0
2, 322260, Note_on_c, 0, 75, 112
2, 322468, Note_on_c, 0, 78, 117
2, 322492, Note_on_c, 0, 75, 0
2, 322660, Note_on_c, 0, 78, 0
2, 322686, Note_on_c, 0, 72, 116
2, 322820, Note_on_c, 0, 72, 0
2, 322892, Note_on_c, 0, 75, 109
2, 322976, Note_on_c, 0, 75, 0
2, 323076, Note_on_c, 0, 69, 115
2, 323174, Note_on_c, 0, 69, 0
2, 323274, Note_on_c, 0, 72, 115
2, 323360, Note_on_c, 0, 72, 0
2, 323462, Note_on_c, 0, 66, 103
2, 323638, Note_on_c, 0, 66, 0
2, 323642, Note_on_c, 0, 69, 112
2, 323722, Note_on_c, 0, 69, 0
2, 323810, Note_on_c, 0, 63, 98
2, 323950, Note_on_c, 0, 63, 0
2, 324008, Note_on_c, 0, 66, 109
2, 324128, Control_c, 0, 64, 0
2, 324164, Note_on_c, 0, 60, 103
2, 324196, Note_on_c, 0, 66, 0
2, 324278, Note_on_c, 0, 60, 0
2, 324294, Note_on_c, 0, 63, 101
2, 324358, Control_c, 0, 64, 127
2, 324400, Note_on_c, 0, 63, 0
2, 324414, Note_on_c, 0, 57, 109
2, 324478, Note_on_c, 0, 42, 0
2, 324502, Note_on_c, 0, 30, 0
2, 324520, Note_on_c, 0, 57, 0
2, 324538, Note_on_c, 0, 60, 105
2, 324646, Note_on_c, 0, 54, 104
2, 324670, Note_on_c, 0, 60, 0
2, 324742, Control_c, 0, 64, 0
2, 324780, Note_on_c, 0, 57, 112
2, 324806, Note_on_c, 0, 54, 0
2, 324892, Note_on_c, 0, 51, 109
2, 324928, Note_on_c, 0, 57, 0
2, 325022, Note_on_c, 0, 54, 101
2, 325060, Note_on_c, 0, 51, 0
2, 325152, Note_on_c, 0, 48, 109
2, 325194, Note_on_c, 0, 54, 0
2, 325260, Note_on_c, 0, 48, 0
2, 325262, Note_on_c, 0, 51, 105
2, 325342, Control_c, 0, 64, 127
2, 325390, Note_on_c, 0, 45, 118
2, 325394, Note_on_c, 0, 51, 0
2, 325510, Control_c, 0, 64, 0
2, 325524, Note_on_c, 0, 48, 118
2, 325544, Note_on_c, 0, 45, 0
2, 325696, Control_c, 0, 64, 127
2, 325730, Note_on_c, 0, 42, 109
2, 325766, Note_on_c, 0, 48, 0
2, 325940, Note_on_c, 0, 45, 120
2, 325972, Control_c, 0, 64, 0
2, 326010, Note_on_c, 0, 42, 0
2, 326164, Note_on_c, 0, 39, 113
2, 326190, Note_on_c, 0, 45, 0
2, 326202, Control_c, 0, 64, 127
2, 326386, Control_c, 0, 64, 0
2, 326408, Note_on_c, 0, 42, 115
2, 326482, Note_on_c, 0, 39, 0
2, 326618, Control_c, 0, 64, 127
2, 326682, Note_on_c, 0, 36, 120
2, 326704, Note_on_c, 0, 42, 0
2, 326754, Control_c, 0, 64, 0
2, 326924, Control_c, 0, 64, 127
2, 327010, Note_on_c, 0, 39, 118
2, 327032, Control_c, 0, 64, 0
2, 327078, Note_on_c, 0, 36, 0
2, 327216, Control_c, 0, 64, 127
2, 327378, Note_on_c, 0, 34, 127
2, 327496, Note_on_c, 0, 39, 0
2, 328042, Note_on_c, 0, 33, 121
2, 328045, Note_on_c, 0, 29, 126
2, 328148, Note_on_c, 0, 34, 0
2, 328246, Control_c, 0, 64, 0
2, 328938, Control_c, 0, 64, 127
2, 329898, Note_on_c, 0, 36, 105
2, 329974, Note_on_c, 0, 33, 0
2, 330174, Note_on_c, 0, 39, 97
2, 330200, Note_on_c, 0, 36, 0
2, 330370, Note_on_c, 0, 41, 108
2, 330390, Note_on_c, 0, 39, 0
2, 330538, Note_on_c, 0, 45, 118
2, 330564, Note_on_c, 0, 41, 0
2, 330704, Note_on_c, 0, 48, 111
2, 330714, Note_on_c, 0, 45, 0
2, 330844, Note_on_c, 0, 51, 101
2, 330866, Note_on_c, 0, 48, 0
2, 330952, Note_on_c, 0, 51, 0
2, 330962, Note_on_c, 0, 53, 105
2, 331070, Note_on_c, 0, 57, 111
2, 331073, Note_on_c, 0, 29, 0
2, 331088, Note_on_c, 0, 53, 0
2, 331176, Note_on_c, 0, 60, 108
2, 331180, Note_on_c, 0, 57, 0
2, 331270, Note_on_c, 0, 63, 104
2, 331288, Note_on_c, 0, 60, 0
2, 331362, Note_on_c, 0, 63, 0
2, 331372, Note_on_c, 0, 65, 116
2, 331456, Note_on_c, 0, 69, 115
2, 331466, Note_on_c, 0, 65, 0
2, 331548, Note_on_c, 0, 72, 116
2, 331564, Note_on_c, 0, 69, 0
2, 331638, Note_on_c, 0, 75, 109
2, 331666, Note_on_c, 0, 72, 0
2, 331704, Note_on_c, 0, 75, 0
2, 331742, Note_on_c, 0, 77, 118
2, 331858, Note_on_c, 0, 81, 110
2, 331962, Note_on_c, 0, 84, 103
2, 332060, Note_on_c, 0, 87, 119
2, 332064, Note_on_c, 0, 63, 98
2, 332080, Note_on_c, 0, 53, 86
2, 332082, Note_on_c, 0, 60, 90
2, 332088, Note_on_c, 0, 57, 86
2, 332182, Note_on_c, 0, 81, 0
2, 332210, Control_c, 0, 64, 0
2, 332218, Note_on_c, 0, 77, 0
2, 332240, Note_on_c, 0, 84, 0
2, 332808, Control_c, 0, 64, 127
2, 333638, Note_on_c, 0, 86, 82
2, 333862, Note_on_c, 0, 87, 0
2, 333868, Note_on_c, 0, 84, 95
2, 333928, Note_on_c, 0, 86, 0
2, 334032, Note_on_c, 0, 82, 111
2, 334072, Note_on_c, 0, 84, 0
2, 334202, Note_on_c, 0, 82, 0
2, 334207, Note_on_c, 0, 81, 105
2, 334336, Note_on_c, 0, 79, 108
2, 334354, Note_on_c, 0, 81, 0
2, 334444, Note_on_c, 0, 77, 109
2, 334456, Note_on_c, 0, 79, 0
2, 334536, Note_on_c, 0, 77, 0
2, 334548, Note_on_c, 0, 76, 106
2, 334656, Note_on_c, 0, 75, 100
2, 334680, Note_on_c, 0, 76, 0
2, 334762, Note_on_c, 0, 74, 104
2, 334794, Note_on_c, 0, 57, 0
2, 334804, Note_on_c, 0, 75, 0
2, 334816, Note_on_c, 0, 60, 0
2, 334850, Note_on_c, 0, 53, 0
2, 334850, Note_on_c, 0, 74, 0
2, 334856, Note_on_c, 0, 72, 109
2, 334874, Note_on_c, 0, 63, 0
2, 334962, Note_on_c, 0, 70, 116
2, 334986, Note_on_c, 0, 72, 0
2, 335068, Note_on_c, 0, 69, 109
2, 335136, Note_on_c, 0, 70, 0
2, 335174, Note_on_c, 0, 67, 111
2, 335222, Note_on_c, 0, 69, 0
2, 335270, Note_on_c, 0, 65, 109
2, 335273, Note_on_c, 0, 67, 0
2, 335374, Note_on_c, 0, 64, 118
2, 335386, Note_on_c, 0, 65, 0
2, 335402, Note_on_c, 0, 64, 0
2, 335532, Note_on_c, 0, 75, 117
2, 335534, Note_on_c, 0, 63, 112
2, 335546, Note_on_c, 0, 48, 86
2, 335548, Note_on_c, 0, 41, 71
2, 335550, Note_on_c, 0, 45, 74
2, 335682, Control_c, 0, 64, 0
2, 336436, Control_c, 0, 64, 127
2, 336576, Note_on_c, 0, 41, 0
2, 336594, Note_on_c, 0, 45, 0
2, 336640, Note_on_c, 0, 48, 0
2, 336898, Note_on_c, 0, 75, 0
2, 336928, Note_on_c, 0, 74, 88
2, 336942, Note_on_c, 0, 62, 62
2, 336954, Note_on_c, 0, 63, 0
2, 337046, Note_on_c, 0, 62, 0
2, 337086, Note_on_c, 0, 60, 72
2, 337089, Note_on_c, 0, 72, 89
2, 337106, Note_on_c, 0, 74, 0
2, 337184, Note_on_c, 0, 60, 0
2, 337208, Note_on_c, 0, 70, 97
2, 337220, Note_on_c, 0, 58, 90
2, 337232, Note_on_c, 0, 72, 0
2, 337320, Note_on_c, 0, 58, 0
2, 337348, Note_on_c, 0, 57, 87
2, 337348, Note_on_c, 0, 69, 93
2, 337364, Note_on_c, 0, 70, 0
2, 337454, Note_on_c, 0, 57, 0
2, 337466, Note_on_c, 0, 69, 0
2, 337476, Note_on_c, 0, 55, 92
2, 337482, Note_on_c, 0, 67, 95
2, 337600, Note_on_c, 0, 53, 98
2, 337602, Note_on_c, 0, 65, 104
2, 337616, Note_on_c, 0, 55, 0
2, 337618, Note_on_c, 0, 67, 0
2, 337712, Note_on_c, 0, 53, 0
2, 337724, Note_on_c, 0, 64, 102
2, 337726, Note_on_c, 0, 52, 90
2, 337764, Note_on_c, 0, 65, 0
2, 337844, Note_on_c, 0, 63, 100
2, 337858, Note_on_c, 0, 51, 87
2, 337861, Note_on_c, 0, 64, 0
2, 337872, Note_on_c, 0, 52, 0
2, 337950, Note_on_c, 0, 51, 0
2, 337986, Note_on_c, 0, 62, 100
2, 337989, Note_on_c, 0, 63, 0
2, 337996, Note_on_c, 0, 50, 106
2, 338108, Note_on_c, 0, 60, 108
2, 338130, Note_on_c, 0, 50, 0
2, 338133, Note_on_c, 0, 62, 0
2, 338133, Note_on_c, 0, 48, 105
2, 338258, Note_on_c, 0, 58, 116
2, 338264, Note_on_c, 0, 46, 115
2, 338276, Note_on_c, 0, 48, 0
2, 338294, Note_on_c, 0, 60, 0
2, 338414, Note_on_c, 0, 57, 109
2, 338420, Note_on_c, 0, 45, 106
2, 338422, Note_on_c, 0, 46, 0
2, 338456, Note_on_c, 0, 58, 0
2, 338568, Note_on_c, 0, 55, 111
2, 338578, Note_on_c, 0, 43, 106
2, 338580, Note_on_c, 0, 57, 0
2, 338586, Note_on_c, 0, 45, 0
2, 338742, Note_on_c, 0, 53, 111
2, 338750, Note_on_c, 0, 41, 105
2, 338770, Note_on_c, 0, 43, 0
2, 338782, Note_on_c, 0, 55, 0
2, 338874, Note_on_c, 0, 41, 0
2, 338922, Note_on_c, 0, 53, 0
2, 338946, Note_on_c, 0, 52, 120
2, 338956, Note_on_c, 0, 40, 121
2, 339028, Note_on_c, 0, 40, 0
2, 339350, Note_on_c, 0, 51, 109
2, 339362, Note_on_c, 0, 29, 121
2, 339366, Note_on_c, 0, 33, 90
2, 339366, Note_on_c, 0, 36, 100
2, 339368, Note_on_c, 0, 39, 111
2, 339432, Note_on_c, 0, 52, 0
2, 339446, Control_c, 0, 64, 0
2, 339862, Control_c, 0, 64, 127
2, 341172, Note_on_c, 0, 53, 87
2, 341272, Note_on_c, 0, 51, 0
2, 341472, Note_on_c, 0, 51, 89
2, 341558, Note_on_c, 0, 53, 0
2, 341662, Note_on_c, 0, 50, 96
2, 341708, Note_on_c, 0, 51, 0
2, 341862, Note_on_c, 0, 51, 90
2, 341898, Note_on_c, 0, 50, 0
2, 341904, Control_c, 0, 64, 0
2, 342044, Note_on_c, 0, 52, 96
2, 342070, Note_on_c, 0, 51, 0
2, 342186, Note_on_c, 0, 53, 87
2, 342196, Control_c, 0, 64, 127
2, 342232, Note_on_c, 0, 52, 0
2, 342326, Note_on_c, 0, 54, 80
2, 342348, Note_on_c, 0, 53, 0
2, 342468, Note_on_c, 0, 54, 0
2, 342472, Note_on_c, 0, 55, 83
2, 342582, Note_on_c, 0, 56, 80
2, 342582, Control_c, 0, 64, 0
2, 342598, Note_on_c, 0, 55, 0
2, 342684, Note_on_c, 0, 57, 93
2, 342704, Note_on_c, 0, 56, 0
2, 342790, Note_on_c, 0, 58, 101
2, 342796, Control_c, 0, 64, 127
2, 342814, Note_on_c, 0, 57, 0
2, 342840, Note_on_c, 0, 58, 0
2, 342870, Note_on_c, 0, 59, 79
2, 342936, Note_on_c, 0, 59, 0
2, 342958, Note_on_c, 0, 60, 95
2, 343026, Note_on_c, 0, 60, 0
2, 343038, Note_on_c, 0, 61, 90
2, 343080, Note_on_c, 0, 61, 0
2, 343118, Note_on_c, 0, 62, 81
2, 343160, Note_on_c, 0, 62, 0
2, 343190, Note_on_c, 0, 63, 95
2, 343226, Note_on_c, 0, 63, 0
2, 343270, Note_on_c, 0, 64, 96
2, 343304, Control_c, 0, 64, 0
2, 343334, Note_on_c, 0, 64, 0
2, 343350, Note_on_c, 0, 65, 100
2, 343406, Note_on_c, 0, 66, 81
2, 343408, Note_on_c, 0, 65, 0
2, 343448, Note_on_c, 0, 66, 0
2, 343456, Control_c, 0, 64, 127
2, 343472, Note_on_c, 0, 67, 97
2, 343518, Control_c, 0, 64, 0
2, 343544, Note_on_c, 0, 67, 0
2, 343547, Note_on_c, 0, 68, 89
2, 343630, Note_on_c, 0, 69, 80
2, 343658, Note_on_c, 0, 68, 0
2, 343674, Note_on_c, 0, 69, 0
2, 343674, Note_on_c, 0, 70, 104
2, 343688, Control_c, 0, 64, 127
2, 343718, Note_on_c, 0, 70, 0
2, 343748, Note_on_c, 0, 71, 80
2, 343798, Note_on_c, 0, 71, 0
2, 343830, Note_on_c, 0, 72, 96
2, 343878, Note_on_c, 0, 72, 0
2, 343886, Control_c, 0, 64, 0
2, 343892, Note_on_c, 0, 73, 80
2, 343934, Note_on_c, 0, 73, 0
2, 343970, Note_on_c, 0, 74, 87
2, 343970, Control_c, 0, 64, 127
2, 344008, Note_on_c, 0, 74, 0
2, 344040, Note_on_c, 0, 75, 86
2, 344078, Note_on_c, 0, 75, 0
2, 344088, Control_c, 0, 64, 0
2, 344110, Note_on_c, 0, 39, 0
2, 344116, Note_on_c, 0, 36, 0
2, 344118, Note_on_c, 0, 33, 0
2, 344124, Note_on_c, 0, 76, 89
2, 344164, Control_c, 0, 64, 127
2, 344176, Note_on_c, 0, 76, 0
2, 344202, Note_on_c, 0, 77, 96
2, 344256, Control_c, 0, 64, 0
2, 344266, Note_on_c, 0, 77, 0
2, 344272, Note_on_c, 0, 78, 77
2, 344318, Note_on_c, 0, 78, 0
2, 344342, Note_on_c, 0, 29, 0
2, 344354, Note_on_c, 0, 79, 87
2, 344354, Control_c, 0, 64, 127
2, 344414, Note_on_c, 0, 79, 0
2, 344430, Note_on_c, 0, 80, 86
2, 344520, Note_on_c, 0, 81, 87
2, 344540, Note_on_c, 0, 80, 0
2, 344598, Note_on_c, 0, 81, 0
2, 344604, Note_on_c, 0, 82, 85
2, 344654, Note_on_c, 0, 82, 0
2, 344678, Note_on_c, 0, 83, 65
2, 344778, Note_on_c, 0, 84, 81
2, 344781, Note_on_c, 0, 83, 0
2, 344794, Control_c, 0, 64, 0
2, 344882, Note_on_c, 0, 85, 74
2, 344892, Note_on_c, 0, 84, 0
2, 344992, Note_on_c, 0, 86, 65
2, 345000, Note_on_c, 0, 85, 0
2, 345100, Control_c, 0, 64, 127
2, 345146, Control_c, 0, 64, 0
2, 345212, Note_on_c, 0, 86, 0
2, 345218, Note_on_c, 0, 87, 71
2, 345224, Control_c, 0, 64, 127
2, 345256, Control_c, 0, 64, 0
2, 345653, Control_c, 0, 64, 127
2, 345904, Note_on_c, 0, 84, 62
2, 345994, Note_on_c, 0, 87, 0
2, 346116, Control_c, 0, 64, 0
2, 346284, Control_c, 0, 64, 127
2, 346306, Note_on_c, 0, 84, 0
2, 346420, Note_on_c, 0, 81, 66
2, 346467, Control_c, 0, 64, 0
2, 346638, Control_c, 0, 64, 127
2, 346710, Note_on_c, 0, 81, 0
2, 346936, Note_on_c, 0, 77, 74
2, 347128, Control_c, 0, 64, 0
2, 347360, Control_c, 0, 64, 127
2, 347408, Note_on_c, 0, 77, 0
2, 347646, Note_on_c, 0, 76, 63
2, 347898, Control_c, 0, 64, 0
2, 348818, Control_c, 0, 64, 127
2, 349526, Note_on_c, 0, 76, 0
2, 349806, Note_on_c, 0, 75, 25
2, 349972, Control_c, 0, 64, 0
2, 350248, Control_c, 0, 64, 127
2, 351798, Note_on_c, 0, 75, 0
2, 352726, Note_on_c, 0, 74, 63
2, 352748, Note_on_c, 0, 65, 32
2, 352752, Note_on_c, 0, 58, 39
2, 352756, Note_on_c, 0, 62, 26
2, 353060, Control_c, 0, 64, 0
2, 353382, Control_c, 0, 64, 127
2, 353570, Note_on_c, 0, 72, 47
2, 353592, Note_on_c, 0, 74, 0
2, 353704, Note_on_c, 0, 70, 69
2, 353726, Note_on_c, 0, 72, 0
2, 353840, Note_on_c, 0, 62, 0
2, 353896, Note_on_c, 0, 63, 35
2, 353902, Note_on_c, 0, 70, 0
2, 353904, Note_on_c, 0, 60, 32
2, 353906, Note_on_c, 0, 69, 59
2, 353920, Control_c, 0, 64, 0
2, 353942, Note_on_c, 0, 58, 0
2, 354458, Control_c, 0, 64, 127
2, 354460, Note_on_c, 0, 60, 0
2, 354486, Note_on_c, 0, 65, 0
2, 354536, Note_on_c, 0, 69, 0
2, 354556, Note_on_c, 0, 63, 0
2, 354750, Control_c, 0, 64, 0
2, 355272, Control_c, 0, 64, 127
2, 355712, Note_on_c, 0, 72, 72
2, 355790, Note_on_c, 0, 72, 0
2, 355924, Note_on_c, 0, 75, 86
2, 355948, Note_on_c, 0, 65, 43
2, 355950, Note_on_c, 0, 69, 51
2, 355956, Note_on_c, 0, 60, 39
2, 356026, Control_c, 0, 64, 0
2, 356440, Control_c, 0, 64, 127
2, 356470, Note_on_c, 0, 65, 0
2, 356744, Note_on_c, 0, 74, 42
2, 356788, Note_on_c, 0, 75, 0
2, 356820, Note_on_c, 0, 74, 0
2, 356862, Note_on_c, 0, 72, 47
2, 357018, Note_on_c, 0, 60, 0
2, 357034, Note_on_c, 0, 72, 0
2, 357034, Note_on_c, 0, 70, 65
2, 357038, Note_on_c, 0, 65, 41
2, 357060, Note_on_c, 0, 62, 26
2, 357102, Control_c, 0, 64, 0
2, 357162, Note_on_c, 0, 69, 0
2, 357412, Note_on_c, 0, 65, 0
2, 357436, Note_on_c, 0, 62, 0
2, 357466, Note_on_c, 0, 70, 0
2, 357500, Control_c, 0, 64, 127
2, 357578, Control_c, 0, 64, 0
2, 358130, Note_on_c, 0, 74, 82
2, 358182, Note_on_c, 0, 74, 0
2, 358192, Control_c, 0, 64, 127
2, 358308, Note_on_c, 0, 77, 127
2, 358312, Note_on_c, 0, 65, 109
2, 358312, Note_on_c, 0, 62, 111
2, 358312, Note_on_c, 0, 71, 98
2, 358318, Note_on_c, 0, 50, 105
2, 358500, Control_c, 0, 64, 0
2, 358868, Control_c, 0, 64, 127
2, 358994, Note_on_c, 0, 65, 0
2, 359012, Note_on_c, 0, 71, 0
2, 359148, Note_on_c, 0, 75, 93
2, 359204, Note_on_c, 0, 77, 0
2, 359224, Note_on_c, 0, 50, 0
2, 359224, Note_on_c, 0, 62, 0
2, 359278, Note_on_c, 0, 74, 116
2, 359342, Note_on_c, 0, 75, 0
2, 359374, Control_c, 0, 64, 0
2, 359410, Note_on_c, 0, 72, 127
2, 359413, Note_on_c, 0, 67, 119
2, 359413, Note_on_c, 0, 63, 113
2, 359422, Note_on_c, 0, 51, 111
2, 359462, Note_on_c, 0, 74, 0
2, 359560, Note_on_c, 0, 63, 0
2, 359586, Note_on_c, 0, 67, 0
2, 359594, Note_on_c, 0, 51, 0
2, 359606, Control_c, 0, 64, 127
2, 359654, Note_on_c, 0, 72, 0
2, 359758, Control_c, 0, 64, 0
2, 359970, Note_on_c, 0, 79, 124
2, 359970, Note_on_c, 0, 67, 110
2, 359973, Note_on_c, 0, 74, 115
2, 359978, Note_on_c, 0, 59, 92
2, 359978, Note_on_c, 0, 47, 95
2, 360142, Note_on_c, 0, 47, 0
2, 360142, Control_c, 0, 64, 127
2, 360148, Note_on_c, 0, 59, 0
2, 360178, Note_on_c, 0, 67, 0
2, 360240, Note_on_c, 0, 79, 0
2, 360282, Note_on_c, 0, 74, 0
2, 360450, Control_c, 0, 64, 0
2, 361184, Note_on_c, 0, 77, 73
2, 361188, Note_on_c, 0, 67, 51
2, 361218, Note_on_c, 0, 48, 46
2, 361402, Control_c, 0, 64, 127
2, 361496, Note_on_c, 0, 75, 67
2, 361534, Note_on_c, 0, 77, 0
2, 361580, Note_on_c, 0, 75, 0
2, 361584, Note_on_c, 0, 67, 0
2, 361768, Note_on_c, 0, 50, 46
2, 361780, Note_on_c, 0, 75, 75
2, 361804, Note_on_c, 0, 65, 50
2, 361822, Note_on_c, 0, 48, 0
2, 361848, Control_c, 0, 64, 0
2, 362068, Note_on_c, 0, 74, 92
2, 362080, Control_c, 0, 64, 127
2, 362084, Note_on_c, 0, 65, 0
2, 362094, Note_on_c, 0, 75, 0
2, 362122, Note_on_c, 0, 74, 0
2, 362334, Note_on_c, 0, 50, 0
2, 362350, Note_on_c, 0, 51, 46
2, 362362, Note_on_c, 0, 74, 75
2, 362364, Note_on_c, 0, 63, 41
2, 362402, Control_c, 0, 64, 0
2, 362632, Control_c, 0, 64, 127
2, 362652, Note_on_c, 0, 74, 0
2, 362660, Note_on_c, 0, 72, 77
2, 362702, Note_on_c, 0, 63, 0
2, 362728, Note_on_c, 0, 51, 0
2, 362822, Note_on_c, 0, 72, 0
2, 363052, Note_on_c, 0, 70, 62
2, 363072, Note_on_c, 0, 62, 39
2, 363124, Control_c, 0, 64, 0
2, 363144, Note_on_c, 0, 53, 14
2, 363508, Control_c, 0, 64, 127
2, 363570, Control_c, 0, 64, 0
2, 363830, Control_c, 0, 64, 127
2, 364158, Note_on_c, 0, 62, 0
2, 364284, Note_on_c, 0, 69, 27
2, 364334, Note_on_c, 0, 70, 0
2, 364336, Note_on_c, 0, 60, 16
2, 364339, Control_c, 0, 64, 0
2, 364768, Control_c, 0, 64, 127
2, 364780, Note_on_c, 0, 69, 0
2, 364940, Note_on_c, 0, 60, 0
2, 365002, Note_on_c, 0, 53, 0
2, 365122, Control_c, 0, 64, 0
2, 365564, Note_on_c, 0, 65, 43
2, 365720, Control_c, 0, 64, 127
2, 365882, Note_on_c, 0, 67, 56
2, 365888, Note_on_c, 0, 65, 0
2, 365890, Control_c, 0, 64, 0
2, 366154, Note_on_c, 0, 69, 83
2, 366178, Note_on_c, 0, 67, 0
2, 366398, Note_on_c, 0, 70, 100
2, 366456, Note_on_c, 0, 69, 0
2, 366642, Note_on_c, 0, 72, 106
2, 366692, Note_on_c, 0, 70, 0
2, 367010, Note_on_c, 0, 58, 56
2, 367016, Note_on_c, 0, 65, 57
2, 367020, Note_on_c, 0, 74, 92
2, 367090, Note_on_c, 0, 72, 0
2, 367750, Control_c, 0, 64, 127
2, 367982, Note_on_c, 0, 58, 0
2, 368000, Note_on_c, 0, 72, 41
2, 368004, Note_on_c, 0, 60, 28
2, 368038, Note_on_c, 0, 74, 0
2, 368098, Note_on_c, 0, 60, 0
2, 368106, Note_on_c, 0, 70, 67
2, 368122, Note_on_c, 0, 72, 0
2, 368172, Note_on_c, 0, 62, 44
2, 368194, Control_c, 0, 64, 0
2, 368310, Note_on_c, 0, 70, 0
2, 368320, Note_on_c, 0, 69, 57
2, 368348, Note_on_c, 0, 63, 36
2, 368352, Note_on_c, 0, 62, 0
2, 368762, Control_c, 0, 64, 127
2, 368844, Note_on_c, 0, 65, 0
2, 368868, Note_on_c, 0, 63, 0
2, 368894, Note_on_c, 0, 69, 0
2, 369100, Control_c, 0, 64, 0
2, 369474, Note_on_c, 0, 72, 55
2, 369516, Control_c, 0, 64, 127
2, 369578, Note_on_c, 0, 72, 0
2, 369666, Note_on_c, 0, 75, 73
2, 369702, Note_on_c, 0, 65, 18
2, 369706, Note_on_c, 0, 57, 31
2, 369884, Control_c, 0, 64, 0
2, 370160, Control_c, 0, 64, 127
2, 370410, Note_on_c, 0, 57, 0
2, 370526, Note_on_c, 0, 75, 0
2, 370529, Note_on_c, 0, 58, 51
2, 370552, Note_on_c, 0, 74, 48
2, 370570, Note_on_c, 0, 65, 0
2, 370662, Note_on_c, 0, 58, 0
2, 370668, Note_on_c, 0, 74, 0
2, 370682, Note_on_c, 0, 72, 80
2, 370692, Note_on_c, 0, 60, 59
2, 370768, Note_on_c, 0, 60, 0
2, 370836, Note_on_c, 0, 72, 0
2, 370840, Note_on_c, 0, 77, 105
2, 370856, Note_on_c, 0, 50, 71
2, 370868, Note_on_c, 0, 65, 32
2, 370876, Note_on_c, 0, 71, 49
2, 370914, Control_c, 0, 64, 0
2, 371406, Control_c, 0, 64, 127
2, 371420, Note_on_c, 0, 71, 0
2, 371430, Note_on_c, 0, 65, 0
2, 371694, Note_on_c, 0, 75, 82
2, 371706, Note_on_c, 0, 51, 69
2, 371710, Note_on_c, 0, 50, 0
2, 371788, Note_on_c, 0, 77, 0
2, 371788, Note_on_c, 0, 51, 0
2, 371840, Note_on_c, 0, 74, 108
2, 371862, Note_on_c, 0, 53, 54
2, 371868, Note_on_c, 0, 75, 0
2, 371948, Note_on_c, 0, 53, 0
2, 372076, Note_on_c, 0, 78, 97
2, 372112, Note_on_c, 0, 51, 48
2, 372150, Note_on_c, 0, 74, 0
2, 372174, Control_c, 0, 64, 0
2, 372988, Control_c, 0, 64, 127
2, 373314, Note_on_c, 0, 60, 42
2, 373674, Note_on_c, 0, 79, 85
2, 373714, Note_on_c, 0, 78, 0
2, 373726, Control_c, 0, 64, 0
2, 373894, Control_c, 0, 64, 127
2, 374020, Note_on_c, 0, 75, 73
2, 374052, Note_on_c, 0, 63, 31
2, 374055, Note_on_c, 0, 60, 0
2, 374080, Control_c, 0, 64, 0
2, 374132, Note_on_c, 0, 79, 0
2, 374262, Control_c, 0, 64, 127
2, 374322, Note_on_c, 0, 72, 96
2, 374326, Note_on_c, 0, 75, 0
2, 374332, Note_on_c, 0, 51, 0
2, 374362, Note_on_c, 0, 63, 0
2, 374444, Note_on_c, 0, 72, 0
2, 374562, Note_on_c, 0, 53, 37
2, 374676, Note_on_c, 0, 72, 87
2, 374680, Note_on_c, 0, 62, 28
2, 374690, Note_on_c, 0, 65, 57
2, 374786, Control_c, 0, 64, 0
2, 374992, Note_on_c, 0, 70, 87
2, 375016, Control_c, 0, 64, 127
2, 375024, Note_on_c, 0, 72, 0
2, 375204, Note_on_c, 0, 70, 0
2, 375370, Control_c, 0, 64, 0
2, 375392, Note_on_c, 0, 70, 75
2, 375722, Control_c, 0, 64, 127
2, 375736, Note_on_c, 0, 53, 0
2, 375750, Note_on_c, 0, 62, 0
2, 376158, Note_on_c, 0, 58, 58
2, 376158, Note_on_c, 0, 53, 39
2, 376488, Note_on_c, 0, 65, 0
2, 376498, Note_on_c, 0, 74, 85
2, 376696, Note_on_c, 0, 70, 0
2, 376808, Note_on_c, 0, 62, 56
2, 376810, Note_on_c, 0, 58, 0
2, 377066, Note_on_c, 0, 53, 0
2, 377126, Note_on_c, 0, 77, 64
2, 377154, Note_on_c, 0, 62, 0
2, 377188, Note_on_c, 0, 74, 0
2, 377446, Note_on_c, 0, 60, 34
2, 377454, Note_on_c, 0, 53, 40
2, 377490, Control_c, 0, 64, 0
2, 377752, Control_c, 0, 64, 127
2, 377780, Note_on_c, 0, 75, 54
2, 377842, Note_on_c, 0, 77, 0
2, 377874, Control_c, 0, 64, 0
2, 378028, Control_c, 0, 64, 127
2, 378106, Note_on_c, 0, 60, 0
2, 378132, Note_on_c, 0, 57, 39
2, 378166, Control_c, 0, 64, 0
2, 378304, Control_c, 0, 64, 127
2, 378420, Note_on_c, 0, 53, 0
2, 378448, Note_on_c, 0, 57, 0
2, 378522, Note_on_c, 0, 75, 0
2, 378528, Note_on_c, 0, 72, 60
2, 378620, Note_on_c, 0, 72, 0
2, 378912, Note_on_c, 0, 63, 36
2, 378914, Note_on_c, 0, 72, 58
2, 378914, Note_on_c, 0, 46, 43
2, 378922, Note_on_c, 0, 57, 25
2, 378950, Control_c, 0, 64, 0
2, 379180, Control_c, 0, 64, 127
2, 379224, Note_on_c, 0, 57, 0
2, 379430, Note_on_c, 0, 63, 0
2, 379540, Note_on_c, 0, 72, 0
2, 379562, Note_on_c, 0, 70, 44
2, 379564, Control_c, 0, 64, 0
2, 379584, Note_on_c, 0, 58, 35
2, 379600, Note_on_c, 0, 62, 17
2, 379810, Note_on_c, 0, 58, 0
2, 379822, Note_on_c, 0, 62, 0
2, 379844, Note_on_c, 0, 46, 0
2, 379868, Note_on_c, 0, 70, 0
2, 379872, Control_c, 0, 64, 127
2, 380282, Note_on_c, 0, 70, 32
2, 380326, Note_on_c, 0, 62, 18
2, 380334, Note_on_c, 0, 58, 18
2, 380344, Note_on_c, 0, 46, 19
2, 380578, Control_c, 0, 64, 0
2, 380870, Control_c, 0, 64, 127
2, 381194, Note_on_c, 0, 58, 0
2, 381248, Note_on_c, 0, 46, 0
2, 381276, Note_on_c, 0, 62, 0
2, 381304, Note_on_c, 0, 70, 0
2, 381470, Control_c, 0, 64, 0
2, 382486, Note_on_c, 0, 62, 58
2, 382486, Note_on_c, 0, 46, 48
2, 382489, Note_on_c, 0, 53, 33
2, 382504, Note_on_c, 0, 50, 37
2, 382684, Control_c, 0, 64, 127
2, 383458, Note_on_c, 0, 60, 39
2, 383496, Note_on_c, 0, 62, 0
2, 383598, Note_on_c, 0, 60, 0
2, 383598, Note_on_c, 0, 58, 62
2, 383658, Note_on_c, 0, 50, 0
2, 383724, Note_on_c, 0, 58, 0
2, 383742, Control_c, 0, 64, 0
2, 383770, Note_on_c, 0, 51, 37
2, 383784, Note_on_c, 0, 57, 54
2, 383836, Note_on_c, 0, 48, 28
2, 383892, Note_on_c, 0, 46, 0
2, 384358, Control_c, 0, 64, 127
2, 384506, Note_on_c, 0, 48, 0
2, 384524, Note_on_c, 0, 53, 0
2, 384548, Note_on_c, 0, 51, 0
2, 384632, Note_on_c, 0, 57, 0
2, 384696, Control_c, 0, 64, 0
2, 385818, Control_c, 0, 64, 127
2, 385874, Note_on_c, 0, 60, 47
2, 386070, Note_on_c, 0, 63, 73
2, 386102, Note_on_c, 0, 57, 59
2, 386108, Note_on_c, 0, 53, 43
2, 386126, Note_on_c, 0, 60, 0
2, 386126, Note_on_c, 0, 48, 49
2, 386140, Control_c, 0, 64, 0
2, 386664, Control_c, 0, 64, 127
2, 387044, Note_on_c, 0, 62, 47
2, 387162, Note_on_c, 0, 63, 0
2, 387188, Note_on_c, 0, 60, 54
2, 387226, Note_on_c, 0, 62, 0
2, 387338, Control_c, 0, 64, 0
2, 387376, Note_on_c, 0, 58, 80
2, 387394, Note_on_c, 0, 60, 0
2, 387408, Note_on_c, 0, 50, 37
2, 387416, Note_on_c, 0, 48, 0
2, 387510, Note_on_c, 0, 57, 0
2, 387740, Note_on_c, 0, 53, 0
2, 387770, Note_on_c, 0, 58, 0
2, 387782, Note_on_c, 0, 50, 0
2, 387830, Control_c, 0, 64, 127
2, 387876, Control_c, 0, 64, 0
2, 388494, Note_on_c, 0, 62, 94
2, 388690, Note_on_c, 0, 65, 121
2, 388692, Note_on_c, 0, 59, 100
2, 388698, Note_on_c, 0, 53, 106
2, 388700, Note_on_c, 0, 50, 104
2, 388702, Note_on_c, 0, 38, 103
2, 388760, Note_on_c, 0, 62, 0
2, 389214, Control_c, 0, 64, 127
2, 389306, Note_on_c, 0, 50, 0
2, 389442, Note_on_c, 0, 53, 0
2, 389626, Note_on_c, 0, 63, 81
2, 389634, Note_on_c, 0, 59, 0
2, 389784, Note_on_c, 0, 62, 105
2, 389826, Note_on_c, 0, 65, 0
2, 389934, Note_on_c, 0, 60, 124
2, 389936, Note_on_c, 0, 39, 111
2, 389936, Note_on_c, 0, 51, 115
2, 389938, Note_on_c, 0, 55, 118
2, 389940, Note_on_c, 0, 63, 0
2, 389950, Note_on_c, 0, 38, 0
2, 389952, Control_c, 0, 64, 0
2, 389986, Note_on_c, 0, 62, 0
2, 390086, Note_on_c, 0, 51, 0
2, 390094, Note_on_c, 0, 55, 0
2, 390144, Note_on_c, 0, 39, 0
2, 390144, Note_on_c, 0, 60, 0
2, 390166, Control_c, 0, 64, 127
2, 390272, Control_c, 0, 64, 0
2, 390536, Note_on_c, 0, 47, 80
2, 390538, Note_on_c, 0, 67, 118
2, 390540, Note_on_c, 0, 55, 106
2, 390542, Note_on_c, 0, 35, 82
2, 390544, Note_on_c, 0, 62, 101
2, 390704, Control_c, 0, 64, 127
2, 390754, Note_on_c, 0, 55, 0
2, 390762, Note_on_c, 0, 47, 0
2, 390798, Note_on_c, 0, 35, 0
2, 390826, Note_on_c, 0, 67, 0
2, 390838, Note_on_c, 0, 62, 0
2, 391010, Control_c, 0, 64, 0
2, 391922, Note_on_c, 0, 65, 49
2, 391950, Note_on_c, 0, 55, 41
2, 391952, Note_on_c, 0, 36, 39
2, 392210, Control_c, 0, 64, 127
2, 392256, Note_on_c, 0, 63, 57
2, 392284, Note_on_c, 0, 65, 0
2, 392298, Note_on_c, 0, 55, 0
2, 392326, Note_on_c, 0, 63, 0
2, 392516, Control_c, 0, 64, 0
2, 392552, Note_on_c, 0, 63, 73
2, 392560, Note_on_c, 0, 53, 43
2, 392578, Note_on_c, 0, 38, 43
2, 392590, Note_on_c, 0, 36, 0
2, 392824, Note_on_c, 0, 53, 0
2, 392840, Control_c, 0, 64, 127
2, 392860, Note_on_c, 0, 62, 69
2, 392884, Note_on_c, 0, 63, 0
2, 392932, Note_on_c, 0, 62, 0
2, 393140, Note_on_c, 0, 62, 48
2, 393156, Note_on_c, 0, 51, 54
2, 393168, Note_on_c, 0, 39, 32
2, 393176, Control_c, 0, 64, 0
2, 393234, Note_on_c, 0, 38, 0
2, 393470, Note_on_c, 0, 62, 0
2, 393490, Note_on_c, 0, 60, 62
2, 393576, Control_c, 0, 64, 127
2, 393678, Note_on_c, 0, 60, 0
2, 393762, Note_on_c, 0, 51, 0
2, 393924, Note_on_c, 0, 58, 60
2, 393954, Note_on_c, 0, 50, 39
2, 393954, Note_on_c, 0, 41, 28
2, 394002, Note_on_c, 0, 39, 0
2, 394022, Control_c, 0, 64, 0
2, 394714, Control_c, 0, 64, 127
2, 394840, Note_on_c, 0, 50, 0
2, 395304, Note_on_c, 0, 57, 40
2, 395320, Note_on_c, 0, 48, 11
2, 395324, Note_on_c, 0, 29, 27
2, 395340, Note_on_c, 0, 58, 0
2, 395400, Note_on_c, 0, 41, 0
2, 395436, Control_c, 0, 64, 0
2, 395774, Control_c, 0, 64, 127
2, 395784, Note_on_c, 0, 57, 0
2, 395794, Note_on_c, 0, 48, 0
2, 396004, Note_on_c, 0, 29, 0
2, 396266, Note_on_c, 0, 41, 39
2, 396616, Note_on_c, 0, 43, 54
2, 396620, Control_c, 0, 64, 0
2, 396682, Note_on_c, 0, 41, 0
2, 396912, Control_c, 0, 64, 127
2, 396912, Note_on_c, 0, 45, 79
2, 396972, Note_on_c, 0, 43, 0
2, 396972, Control_c, 0, 64, 0
2, 397142, Control_c, 0, 64, 127
2, 397210, Note_on_c, 0, 46, 83
2, 397218, Control_c, 0, 64, 0
2, 397328, Note_on_c, 0, 45, 0
2, 397536, Note_on_c, 0, 48, 75
2, 397644, Note_on_c, 0, 46, 0
2, 397954, Note_on_c, 0, 50, 64
2, 397972, Note_on_c, 0, 34, 56
2, 398084, Note_on_c, 0, 48, 0
2, 398678, Control_c, 0, 64, 127
2, 398958, Note_on_c, 0, 48, 40
2, 398972, Note_on_c, 0, 34, 0
2, 398992, Note_on_c, 0, 36, 37
2, 399056, Note_on_c, 0, 36, 0
2, 399080, Note_on_c, 0, 46, 65
2, 399086, Note_on_c, 0, 50, 0
2, 399130, Note_on_c, 0, 38, 40
2, 399172, Note_on_c, 0, 48, 0
2, 399230, Control_c, 0, 64, 0
2, 399252, Note_on_c, 0, 39, 44
2, 399254, Note_on_c, 0, 38, 0
2, 399262, Note_on_c, 0, 45, 62
2, 399316, Note_on_c, 0, 46, 0
2, 399770, Control_c, 0, 64, 127
2, 399918, Note_on_c, 0, 45, 0
2, 399920, Note_on_c, 0, 39, 0
2, 400184, Control_c, 0, 64, 0
2, 400520, Note_on_c, 0, 48, 66
2, 400552, Control_c, 0, 64, 127
2, 400730, Note_on_c, 0, 51, 66
2, 400752, Control_c, 0, 64, 0
2, 400754, Note_on_c, 0, 36, 51
2, 400778, Note_on_c, 0, 48, 0
2, 401428, Control_c, 0, 64, 127
2, 401656, Note_on_c, 0, 36, 0
2, 401736, Note_on_c, 0, 50, 52
2, 401758, Note_on_c, 0, 38, 40
2, 401796, Note_on_c, 0, 51, 0
2, 401896, Note_on_c, 0, 50, 0
2, 401902, Note_on_c, 0, 39, 55
2, 401906, Note_on_c, 0, 38, 0
2, 401908, Note_on_c, 0, 48, 67
2, 402028, Control_c, 0, 64, 0
2, 402140, Note_on_c, 0, 46, 52
2, 402156, Note_on_c, 0, 39, 0
2, 402156, Note_on_c, 0, 38, 51
2, 402164, Note_on_c, 0, 53, 75
2, 402194, Note_on_c, 0, 48, 0
2, 402546, Note_on_c, 0, 58, 93
2, 402596, Control_c, 0, 64, 127
2, 402618, Note_on_c, 0, 53, 0
2, 402642, Control_c, 0, 64, 0
2, 402888, Control_c, 0, 64, 127
2, 402934, Note_on_c, 0, 57, 74
2, 403016, Note_on_c, 0, 58, 0
2, 403042, Control_c, 0, 64, 0
2, 403272, Control_c, 0, 64, 127
2, 403312, Note_on_c, 0, 56, 70
2, 403410, Control_c, 0, 64, 0
2, 403432, Note_on_c, 0, 57, 0
2, 403626, Control_c, 0, 64, 127
2, 403752, Note_on_c, 0, 54, 55
2, 403794, Control_c, 0, 64, 0
2, 403796, Note_on_c, 0, 39, 49
2, 403828, Note_on_c, 0, 38, 0
2, 403900, Note_on_c, 0, 56, 0
2, 404486, Control_c, 0, 64, 127
2, 404712, Note_on_c, 0, 55, 51
2, 404748, Control_c, 0, 64, 0
2, 404754, Note_on_c, 0, 54, 0
2, 405162, Control_c, 0, 64, 127
2, 405232, Note_on_c, 0, 46, 0
2, 405484, Note_on_c, 0, 49, 47
2, 405498, Note_on_c, 0, 39, 0
2, 405512, Note_on_c, 0, 40, 60
2, 405764, Note_on_c, 0, 55, 0
2, 405782, Note_on_c, 0, 57, 55
2, 405890, Note_on_c, 0, 55, 55
2, 405910, Note_on_c, 0, 57, 0
2, 406016, Note_on_c, 0, 55, 0
2, 406024, Note_on_c, 0, 54, 69
2, 406148, Note_on_c, 0, 54, 0
2, 406148, Note_on_c, 0, 55, 58
2, 406222, Control_c, 0, 64, 0
2, 406314, Note_on_c, 0, 57, 79
2, 406336, Note_on_c, 0, 55, 0
2, 406636, Control_c, 0, 64, 127
2, 406694, Note_on_c, 0, 58, 83
2, 406724, Note_on_c, 0, 57, 0
2, 406962, Note_on_c, 0, 58, 0
2, 406992, Note_on_c, 0, 49, 0
2, 407102, Note_on_c, 0, 50, 49
2, 407114, Note_on_c, 0, 58, 62
2, 407117, Note_on_c, 0, 41, 37
2, 407190, Control_c, 0, 64, 0
2, 407234, Note_on_c, 0, 40, 0
2, 407744, Control_c, 0, 64, 127
2, 408020, Note_on_c, 0, 53, 59
2, 408022, Control_c, 0, 64, 0
2, 408208, Note_on_c, 0, 58, 0
2, 408388, Control_c, 0, 64, 127
2, 408434, Note_on_c, 0, 41, 0
2, 408724, Note_on_c, 0, 50, 0
2, 408796, Note_on_c, 0, 41, 44
2, 408812, Note_on_c, 0, 53, 0
2, 409154, Note_on_c, 0, 50, 57
2, 409158, Note_on_c, 0, 53, 62
2, 409476, Note_on_c, 0, 53, 0
2, 409478, Note_on_c, 0, 51, 77
2, 409482, Note_on_c, 0, 50, 0
2, 409488, Note_on_c, 0, 55, 74
2, 409542, Control_c, 0, 64, 0
2, 409740, Control_c, 0, 64, 127
2, 409770, Note_on_c, 0, 51, 0
2, 409794, Note_on_c, 0, 55, 0
2, 409810, Note_on_c, 0, 50, 67
2, 409814, Note_on_c, 0, 53, 70
2, 409856, Note_on_c, 0, 41, 0
2, 409996, Note_on_c, 0, 50, 0
2, 410002, Note_on_c, 0, 53, 0
2, 410124, Control_c, 0, 64, 0
2, 410142, Note_on_c, 0, 53, 48
2, 410166, Note_on_c, 0, 29, 46
2, 410166, Note_on_c, 0, 50, 49
2, 410169, Note_on_c, 0, 41, 43
2, 410460, Note_on_c, 0, 50, 0
2, 410464, Note_on_c, 0, 53, 0
2, 410466, Note_on_c, 0, 51, 74
2, 410476, Note_on_c, 0, 48, 56
2, 410646, Control_c, 0, 64, 127
2, 410648, Note_on_c, 0, 51, 0
2, 410780, Note_on_c, 0, 41, 0
2, 410810, Note_on_c, 0, 46, 66
2, 410813, Note_on_c, 0, 50, 64
2, 410816, Control_c, 0, 64, 0
2, 410832, Note_on_c, 0, 48, 0
2, 411038, Note_on_c, 0, 46, 0
2, 411062, Control_c, 0, 64, 127
2, 411170, Control_c, 0, 64, 0
2, 411174, Note_on_c, 0, 50, 0
2, 411178, Note_on_c, 0, 48, 67
2, 411192, Note_on_c, 0, 45, 52
2, 411392, Note_on_c, 0, 45, 0
2, 411400, Control_c, 0, 64, 127
2, 411434, Note_on_c, 0, 48, 0
2, 411584, Control_c, 0, 64, 0
2, 411636, Note_on_c, 0, 39, 43
2, 411640, Note_on_c, 0, 48, 50
2, 411646, Note_on_c, 0, 34, 44
2, 411652, Note_on_c, 0, 45, 21
2, 411782, Note_on_c, 0, 29, 0
2, 412092, Control_c, 0, 64, 127
2, 412300, Note_on_c, 0, 45, 0
2, 412330, Note_on_c, 0, 39, 0
2, 412369, Control_c, 0, 64, 0
2, 412414, Note_on_c, 0, 46, 42
2, 412416, Note_on_c, 0, 38, 27
2, 412476, Note_on_c, 0, 48, 0
2, 412714, Note_on_c, 0, 34, 0
2, 412760, Note_on_c, 0, 38, 0
2, 412798, Control_c, 0, 64, 127
2, 412852, Note_on_c, 0, 46, 0
2, 413106, Control_c, 0, 64, 0
2, 413172, Note_on_c, 0, 46, 44
2, 413190, Note_on_c, 0, 38, 36
2, 413194, Note_on_c, 0, 34, 33
2, 413674, Control_c, 0, 64, 127
2, 413856, Note_on_c, 0, 38, 0
2, 413952, Note_on_c, 0, 34, 0
2, 413994, Note_on_c, 0, 46, 0
2, 415242, Control_c, 0, 64, 0
2, 416090, Note_on_c, 0, 72, 58
2, 416090, Note_on_c, 0, 53, 42
2, 416106, Note_on_c, 0, 69, 33
2, 416346, Note_on_c, 0, 53, 0
2, 416404, Note_on_c, 0, 65, 47
2, 416534, Note_on_c, 0, 65, 0
2, 416710, Note_on_c, 0, 65, 36
2, 416794, Note_on_c, 0, 65, 0
2, 417022, Note_on_c, 0, 65, 35
2, 417112, Note_on_c, 0, 65, 0
2, 417318, Note_on_c, 0, 65, 36
2, 417418, Note_on_c, 0, 65, 0
2, 417600, Note_on_c, 0, 69, 0
2, 417600, Note_on_c, 0, 70, 74
2, 417604, Note_on_c, 0, 74, 86
2, 417612, Note_on_c, 0, 72, 0
2, 417612, Note_on_c, 0, 65, 43
2, 417718, Note_on_c, 0, 65, 0
2, 417746, Note_on_c, 0, 70, 0
2, 417874, Note_on_c, 0, 72, 103
2, 417878, Note_on_c, 0, 75, 89
2, 417892, Note_on_c, 0, 74, 0
2, 417902, Note_on_c, 0, 65, 49
2, 417974, Note_on_c, 0, 65, 0
2, 418132, Note_on_c, 0, 72, 0
2, 418142, Note_on_c, 0, 77, 108
2, 418144, Note_on_c, 0, 74, 86
2, 418156, Note_on_c, 0, 65, 58
2, 418172, Note_on_c, 0, 75, 0
2, 418218, Note_on_c, 0, 65, 0
2, 418316, Note_on_c, 0, 74, 0
2, 418404, Note_on_c, 0, 65, 56
2, 418416, Note_on_c, 0, 77, 0
2, 418420, Note_on_c, 0, 79, 82
2, 418424, Note_on_c, 0, 75, 63
2, 418522, Note_on_c, 0, 65, 0
2, 418668, Note_on_c, 0, 75, 0
2, 418682, Note_on_c, 0, 79, 0
2, 418698, Note_on_c, 0, 65, 49
2, 418812, Note_on_c, 0, 65, 0
2, 418988, Note_on_c, 0, 74, 41
2, 418988, Note_on_c, 0, 77, 64
2, 418994, Note_on_c, 0, 65, 31
2, 419092, Note_on_c, 0, 65, 0
2, 419200, Note_on_c, 0, 74, 0
2, 419234, Note_on_c, 0, 77, 0
2, 419274, Note_on_c, 0, 65, 36
2, 419374, Note_on_c, 0, 65, 0
2, 419512, Note_on_c, 0, 73, 52
2, 419526, Note_on_c, 0, 76, 60
2, 419566, Note_on_c, 0, 65, 33
2, 419674, Note_on_c, 0, 65, 0
2, 419740, Note_on_c, 0, 73, 0
2, 419756, Note_on_c, 0, 76, 0
2, 419832, Note_on_c, 0, 65, 40
2, 419952, Note_on_c, 0, 65, 0
2, 420084, Note_on_c, 0, 75, 48
2, 420084, Note_on_c, 0, 72, 60
2, 420114, Note_on_c, 0, 65, 35
2, 420232, Note_on_c, 0, 65, 0
2, 420268, Note_on_c, 0, 72, 0
2, 420300, Note_on_c, 0, 75, 0
2, 420390, Note_on_c, 0, 65, 42
2, 420494, Note_on_c, 0, 65, 0
2, 420642, Note_on_c, 0, 65, 46
2, 420656, Note_on_c, 0, 71, 39
2, 420658, Note_on_c, 0, 74, 52
2, 420756, Note_on_c, 0, 65, 0
2, 420800, Note_on_c, 0, 71, 0
2, 420860, Note_on_c, 0, 74, 0
2, 420934, Note_on_c, 0, 65, 48
2, 421044, Note_on_c, 0, 65, 0
2, 421186, Note_on_c, 0, 70, 58
2, 421194, Note_on_c, 0, 73, 47
2, 421212, Note_on_c, 0, 65, 44
2, 421306, Note_on_c, 0, 65, 0
2, 421398, Note_on_c, 0, 73, 0
2, 421406, Note_on_c, 0, 70, 0
2, 421474, Note_on_c, 0, 65, 50
2, 421568, Note_on_c, 0, 65, 0
2, 421746, Note_on_c, 0, 72, 44
2, 421752, Note_on_c, 0, 65, 36
2, 421770, Note_on_c, 0, 69, 28
2, 421854, Note_on_c, 0, 65, 0
2, 422008, Note_on_c, 0, 65, 50
2, 422034, Note_on_c, 0, 72, 0
2, 422044, Note_on_c, 0, 69, 0
2, 422104, Note_on_c, 0, 65, 0
2, 422186, Control_c, 0, 64, 127
2, 422248, Control_c, 0, 64, 0
2, 422278, Note_on_c, 0, 65, 51
2, 422382, Note_on_c, 0, 65, 0
2, 422532, Note_on_c, 0, 65, 56
2, 422672, Note_on_c, 0, 65, 0
2, 422814, Note_on_c, 0, 60, 66
2, 422828, Note_on_c, 0, 69, 69
2, 422828, Note_on_c, 0, 41, 42
2, 423028, Note_on_c, 0, 41, 0
2, 423078, Note_on_c, 0, 53, 56
2, 423158, Note_on_c, 0, 53, 0
2, 423328, Note_on_c, 0, 53, 58
2, 423392, Note_on_c, 0, 53, 0
2, 423578, Note_on_c, 0, 53, 62
2, 423666, Note_on_c, 0, 53, 0
2, 423860, Note_on_c, 0, 53, 71
2, 423918, Note_on_c, 0, 53, 0
2, 423934, Note_on_c, 0, 60, 0
2, 424030, Control_c, 0, 64, 127
2, 424102, Note_on_c, 0, 70, 98
2, 424116, Note_on_c, 0, 62, 58
2, 424122, Note_on_c, 0, 53, 56
2, 424142, Note_on_c, 0, 69, 0
2, 424194, Note_on_c, 0, 53, 0
2, 424210, Note_on_c, 0, 62, 0
2, 424338, Control_c, 0, 64, 0
2, 424354, Note_on_c, 0, 63, 89
2, 424364, Note_on_c, 0, 72, 109
2, 424378, Note_on_c, 0, 53, 62
2, 424436, Note_on_c, 0, 53, 0
2, 424436, Note_on_c, 0, 70, 0
2, 424482, Note_on_c, 0, 63, 0
2, 424522, Control_c, 0, 64, 127
2, 424582, Control_c, 0, 64, 0
2, 424608, Note_on_c, 0, 74, 102
2, 424616, Note_on_c, 0, 53, 65
2, 424624, Note_on_c, 0, 65, 93
2, 424658, Note_on_c, 0, 72, 0
2, 424700, Note_on_c, 0, 53, 0
2, 424736, Note_on_c, 0, 65, 0
2, 424782, Control_c, 0, 64, 127
2, 424844, Control_c, 0, 64, 0
2, 424898, Note_on_c, 0, 75, 80
2, 424916, Note_on_c, 0, 74, 0
2, 424920, Note_on_c, 0, 53, 59
2, 424922, Note_on_c, 0, 67, 66
2, 424984, Note_on_c, 0, 53, 0
2, 425122, Control_c, 0, 64, 127
2, 425125, Note_on_c, 0, 67, 0
2, 425172, Note_on_c, 0, 53, 56
2, 425182, Note_on_c, 0, 75, 0
2, 425244, Note_on_c, 0, 53, 0
2, 425274, Control_c, 0, 64, 0
2, 425422, Note_on_c, 0, 74, 75
2, 425425, Note_on_c, 0, 65, 71
2, 425432, Note_on_c, 0, 53, 50
2, 425502, Note_on_c, 0, 53, 0
2, 425624, Note_on_c, 0, 65, 0
2, 425642, Note_on_c, 0, 74, 0
2, 425644, Control_c, 0, 64, 127
2, 425694, Note_on_c, 0, 53, 59
2, 425760, Note_on_c, 0, 53, 0
2, 425766, Control_c, 0, 64, 0
2, 425930, Note_on_c, 0, 73, 70
2, 425950, Note_on_c, 0, 64, 51
2, 425966, Note_on_c, 0, 53, 46
2, 426030, Note_on_c, 0, 53, 0
2, 426134, Control_c, 0, 64, 127
2, 426136, Note_on_c, 0, 64, 0
2, 426194, Note_on_c, 0, 73, 0
2, 426208, Note_on_c, 0, 53, 56
2, 426274, Note_on_c, 0, 53, 0
2, 426274, Control_c, 0, 64, 0
2, 426442, Note_on_c, 0, 63, 57
2, 426464, Note_on_c, 0, 53, 58
2, 426464, Note_on_c, 0, 72, 8
2, 426528, Note_on_c, 0, 53, 0
2, 426704, Note_on_c, 0, 72, 0
2, 426737, Note_on_c, 0, 53, 41
2, 426744, Note_on_c, 0, 63, 0
2, 426814, Note_on_c, 0, 53, 0
2, 427000, Note_on_c, 0, 62, 44
2, 427002, Note_on_c, 0, 71, 36
2, 427018, Note_on_c, 0, 53, 39
2, 427104, Note_on_c, 0, 53, 0
2, 427220, Note_on_c, 0, 71, 0
2, 427220, Note_on_c, 0, 62, 0
2, 427242, Control_c, 0, 64, 127
2, 427288, Control_c, 0, 64, 0
2, 427288, Note_on_c, 0, 53, 42
2, 427362, Note_on_c, 0, 53, 0
2, 427532, Note_on_c, 0, 70, 57
2, 427544, Note_on_c, 0, 61, 41
2, 427568, Note_on_c, 0, 53, 42
2, 427634, Note_on_c, 0, 53, 0
2, 427722, Note_on_c, 0, 70, 0
2, 427740, Note_on_c, 0, 61, 0
2, 427822, Note_on_c, 0, 53, 47
2, 427900, Note_on_c, 0, 53, 0
2, 428206, Note_on_c, 0, 69, 32
2, 428218, Note_on_c, 0, 60, 31
2, 428224, Note_on_c, 0, 53, 36
2, 428348, Control_c, 0, 64, 127
2, 428384, Note_on_c, 0, 53, 0
2, 428442, Note_on_c, 0, 60, 0
2, 428526, Note_on_c, 0, 69, 0
2, 429162, Control_c, 0, 64, 0
2, 429910, Note_on_c, 0, 74, 83
2, 429912, Note_on_c, 0, 58, 40
2, 429915, Note_on_c, 0, 65, 54
2, 430038, Control_c, 0, 64, 127
2, 430884, Note_on_c, 0, 58, 0
2, 430962, Note_on_c, 0, 72, 34
2, 431004, Note_on_c, 0, 60, 11
2, 431020, Note_on_c, 0, 74, 0
2, 431072, Note_on_c, 0, 70, 64
2, 431075, Note_on_c, 0, 60, 0
2, 431094, Note_on_c, 0, 62, 39
2, 431130, Note_on_c, 0, 72, 0
2, 431266, Note_on_c, 0, 62, 0
2, 431274, Note_on_c, 0, 63, 36
2, 431280, Note_on_c, 0, 69, 51
2, 431282, Control_c, 0, 64, 0
2, 431304, Note_on_c, 0, 70, 0
2, 431578, Note_on_c, 0, 65, 0
2, 431618, Note_on_c, 0, 63, 0
2, 431636, Control_c, 0, 64, 127
2, 431654, Note_on_c, 0, 69, 0
2, 431882, Control_c, 0, 64, 0
2, 432446, Note_on_c, 0, 81, 80
2, 432496, Control_c, 0, 64, 127
2, 432654, Note_on_c, 0, 87, 89
2, 432680, Control_c, 0, 64, 0
2, 432732, Note_on_c, 0, 81, 0
2, 433080, Control_c, 0, 64, 127
2, 433486, Note_on_c, 0, 84, 82
2, 433584, Note_on_c, 0, 87, 0
2, 433616, Note_on_c, 0, 81, 104
2, 433674, Note_on_c, 0, 84, 0
2, 433798, Note_on_c, 0, 70, 71
2, 433800, Note_on_c, 0, 89, 108
2, 433810, Note_on_c, 0, 62, 48
2, 433818, Control_c, 0, 64, 0
2, 433848, Note_on_c, 0, 81, 0
2, 434216, Control_c, 0, 64, 127
2, 434418, Note_on_c, 0, 86, 58
2, 434466, Note_on_c, 0, 89, 0
2, 434578, Note_on_c, 0, 86, 0
2, 434594, Note_on_c, 0, 82, 90
2, 434648, Control_c, 0, 64, 0
2, 434908, Control_c, 0, 64, 127
2, 435072, Note_on_c, 0, 82, 0
2, 435144, Note_on_c, 0, 62, 0
2, 435254, Note_on_c, 0, 63, 56
2, 435402, Note_on_c, 0, 81, 70
2, 435446, Note_on_c, 0, 81, 0
2, 435462, Note_on_c, 0, 82, 83
2, 435516, Note_on_c, 0, 81, 101
2, 435544, Note_on_c, 0, 82, 0
2, 435608, Note_on_c, 0, 79, 90
2, 435616, Note_on_c, 0, 81, 0
2, 435690, Note_on_c, 0, 81, 112
2, 435712, Note_on_c, 0, 79, 0
2, 435784, Control_c, 0, 64, 0
2, 435830, Note_on_c, 0, 84, 97
2, 435840, Note_on_c, 0, 81, 0
2, 436062, Control_c, 0, 64, 127
2, 436120, Note_on_c, 0, 82, 98
2, 436200, Note_on_c, 0, 84, 0
2, 436458, Note_on_c, 0, 81, 83
2, 436492, Note_on_c, 0, 63, 0
2, 436538, Control_c, 0, 64, 0
2, 436546, Note_on_c, 0, 67, 33
2, 436564, Note_on_c, 0, 82, 0
2, 436764, Note_on_c, 0, 79, 80
2, 436782, Control_c, 0, 64, 127
2, 436828, Note_on_c, 0, 81, 0
2, 436998, Control_c, 0, 64, 0
2, 437052, Note_on_c, 0, 77, 90
2, 437088, Note_on_c, 0, 79, 0
2, 437228, Control_c, 0, 64, 127
2, 437356, Note_on_c, 0, 75, 83
2, 437370, Note_on_c, 0, 70, 0
2, 437414, Note_on_c, 0, 77, 0
2, 437634, Note_on_c, 0, 67, 0
2, 437686, Note_on_c, 0, 74, 73
2, 437720, Note_on_c, 0, 70, 28
2, 437736, Control_c, 0, 64, 0
2, 437774, Note_on_c, 0, 65, 29
2, 437830, Note_on_c, 0, 75, 0
2, 438070, Note_on_c, 0, 77, 74
2, 438108, Note_on_c, 0, 74, 0
2, 438242, Control_c, 0, 64, 127
2, 438316, Note_on_c, 0, 77, 0
2, 438384, Note_on_c, 0, 70, 0
2, 438384, Note_on_c, 0, 65, 0
2, 438465, Note_on_c, 0, 77, 69
2, 438626, Control_c, 0, 64, 0
2, 439172, Note_on_c, 0, 58, 47
2, 439186, Note_on_c, 0, 53, 29
2, 439210, Control_c, 0, 64, 127
2, 439524, Note_on_c, 0, 76, 56
2, 439620, Note_on_c, 0, 77, 0
2, 439654, Note_on_c, 0, 53, 0
2, 439716, Note_on_c, 0, 58, 0
2, 439818, Note_on_c, 0, 75, 64
2, 439846, Note_on_c, 0, 76, 0
2, 440086, Control_c, 0, 64, 0
2, 440092, Note_on_c, 0, 74, 89
2, 440202, Note_on_c, 0, 75, 0
2, 440302, Control_c, 0, 64, 127
2, 440386, Note_on_c, 0, 77, 63
2, 440394, Control_c, 0, 64, 0
2, 440418, Note_on_c, 0, 74, 0
2, 440428, Note_on_c, 0, 57, 31
2, 440436, Note_on_c, 0, 53, 21
2, 440686, Control_c, 0, 64, 127
2, 440692, Note_on_c, 0, 75, 51
2, 440736, Note_on_c, 0, 77, 0
2, 440932, Control_c, 0, 64, 0
2, 440996, Note_on_c, 0, 75, 0
2, 441002, Note_on_c, 0, 57, 0
2, 441012, Note_on_c, 0, 74, 50
2, 441012, Note_on_c, 0, 63, 35
2, 441048, Note_on_c, 0, 69, 34
2, 441236, Note_on_c, 0, 53, 0
2, 441292, Note_on_c, 0, 74, 0
2, 441300, Control_c, 0, 64, 127
2, 441330, Note_on_c, 0, 72, 55
2, 441334, Note_on_c, 0, 63, 0
2, 441388, Note_on_c, 0, 69, 0
2, 441474, Note_on_c, 0, 72, 0
2, 441772, Note_on_c, 0, 72, 54
2, 441780, Note_on_c, 0, 63, 28
2, 441790, Note_on_c, 0, 58, 34
2, 441802, Note_on_c, 0, 69, 13
2, 441854, Control_c, 0, 64, 0
2, 442176, Control_c, 0, 64, 127
2, 442260, Note_on_c, 0, 63, 0
2, 442464, Note_on_c, 0, 70, 44
2, 442469, Note_on_c, 0, 69, 0
2, 442506, Note_on_c, 0, 62, 31
2, 442514, Control_c, 0, 64, 0
2, 442528, Note_on_c, 0, 72, 0
2, 442754, Note_on_c, 0, 62, 0
2, 442760, Control_c, 0, 64, 127
2, 442778, Note_on_c, 0, 58, 0
2, 442810, Note_on_c, 0, 70, 0
2, 443242, Note_on_c, 0, 70, 39
2, 443276, Note_on_c, 0, 58, 16
2, 443294, Note_on_c, 0, 62, 10
2, 444340, Note_on_c, 0, 62, 0
2, 444356, Note_on_c, 0, 58, 0
2, 444466, Control_c, 0, 64, 0
2, 444788, Control_c, 0, 64, 127
2, 445148, Note_on_c, 0, 71, 31
2, 445162, Note_on_c, 0, 70, 0
2, 445356, Control_c, 0, 64, 0
2, 445542, Control_c, 0, 64, 127
2, 445580, Note_on_c, 0, 71, 0
2, 446110, Note_on_c, 0, 53, 36
2, 446110, Control_c, 0, 64, 0
2, 446113, Note_on_c, 0, 72, 51
2, 446138, Note_on_c, 0, 69, 33
2, 446362, Note_on_c, 0, 53, 0
2, 446402, Control_c, 0, 64, 127
2, 446458, Note_on_c, 0, 65, 59
2, 446478, Control_c, 0, 64, 0
2, 446516, Note_on_c, 0, 65, 0
2, 446736, Note_on_c, 0, 65, 41
2, 446738, Control_c, 0, 64, 127
2, 446814, Note_on_c, 0, 65, 0
2, 446848, Control_c, 0, 64, 0
2, 447022, Note_on_c, 0, 65, 35
2, 447096, Note_on_c, 0, 65, 0
2, 447294, Note_on_c, 0, 65, 41
2, 447374, Note_on_c, 0, 65, 0
2, 447518, Note_on_c, 0, 69, 0
2, 447530, Note_on_c, 0, 72, 0
2, 447542, Note_on_c, 0, 70, 82
2, 447545, Note_on_c, 0, 65, 47
2, 447552, Note_on_c, 0, 74, 71
2, 447624, Note_on_c, 0, 70, 0
2, 447656, Note_on_c, 0, 65, 0
2, 447798, Note_on_c, 0, 75, 90
2, 447804, Note_on_c, 0, 72, 98
2, 447810, Note_on_c, 0, 74, 0
2, 447812, Note_on_c, 0, 65, 49
2, 447900, Note_on_c, 0, 65, 0
2, 448026, Note_on_c, 0, 72, 0
2, 448060, Note_on_c, 0, 74, 90
2, 448063, Note_on_c, 0, 77, 105
2, 448082, Note_on_c, 0, 65, 48
2, 448090, Note_on_c, 0, 75, 0
2, 448146, Note_on_c, 0, 65, 0
2, 448238, Note_on_c, 0, 74, 0
2, 448314, Note_on_c, 0, 79, 93
2, 448316, Note_on_c, 0, 75, 75
2, 448318, Note_on_c, 0, 77, 0
2, 448330, Note_on_c, 0, 65, 49
2, 448386, Note_on_c, 0, 75, 0
2, 448410, Note_on_c, 0, 65, 0
2, 448426, Note_on_c, 0, 79, 0
2, 448576, Note_on_c, 0, 75, 86
2, 448584, Note_on_c, 0, 79, 86
2, 448588, Note_on_c, 0, 65, 51
2, 448688, Note_on_c, 0, 65, 0
2, 448762, Note_on_c, 0, 75, 0
2, 448836, Note_on_c, 0, 79, 0
2, 448839, Note_on_c, 0, 74, 81
2, 448842, Note_on_c, 0, 65, 52
2, 448844, Note_on_c, 0, 77, 87
2, 448920, Note_on_c, 0, 74, 0
2, 448934, Note_on_c, 0, 65, 0
2, 448962, Note_on_c, 0, 77, 0
2, 449098, Note_on_c, 0, 77, 82
2, 449100, Note_on_c, 0, 65, 56
2, 449118, Note_on_c, 0, 74, 60
2, 449190, Note_on_c, 0, 65, 0
2, 449318, Note_on_c, 0, 74, 0
2, 449358, Note_on_c, 0, 77, 0
2, 449361, Note_on_c, 0, 73, 70
2, 449366, Note_on_c, 0, 65, 54
2, 449368, Note_on_c, 0, 76, 85
2, 449426, Note_on_c, 0, 73, 0
2, 449452, Note_on_c, 0, 65, 0
2, 449470, Note_on_c, 0, 76, 0
2, 449628, Note_on_c, 0, 73, 78
2, 449631, Note_on_c, 0, 65, 49
2, 449640, Note_on_c, 0, 76, 86
2, 449700, Note_on_c, 0, 73, 0
2, 449708, Note_on_c, 0, 65, 0
2, 449878, Note_on_c, 0, 75, 85
2, 449884, Note_on_c, 0, 76, 0
2, 449886, Note_on_c, 0, 65, 50
2, 449888, Note_on_c, 0, 72, 77
2, 449954, Note_on_c, 0, 75, 0
2, 449960, Note_on_c, 0, 72, 0
2, 449964, Note_on_c, 0, 65, 0
2, 450130, Note_on_c, 0, 75, 78
2, 450138, Note_on_c, 0, 72, 82
2, 450140, Note_on_c, 0, 65, 50
2, 450220, Note_on_c, 0, 65, 0
2, 450236, Note_on_c, 0, 72, 0
2, 450388, Note_on_c, 0, 75, 0
2, 450388, Note_on_c, 0, 71, 58
2, 450396, Note_on_c, 0, 65, 51
2, 450402, Note_on_c, 0, 74, 74
2, 450446, Note_on_c, 0, 74, 0
2, 450482, Note_on_c, 0, 71, 0
2, 450488, Note_on_c, 0, 65, 0
2, 450654, Note_on_c, 0, 74, 55
2, 450664, Note_on_c, 0, 71, 47
2, 450666, Note_on_c, 0, 65, 52
2, 450746, Note_on_c, 0, 65, 0
2, 450786, Note_on_c, 0, 71, 0
2, 450890, Note_on_c, 0, 74, 0
2, 450900, Note_on_c, 0, 70, 59
2, 450910, Note_on_c, 0, 73, 59
2, 450938, Note_on_c, 0, 65, 34
2, 451004, Note_on_c, 0, 70, 0
2, 451008, Note_on_c, 0, 65, 0
2, 451028, Note_on_c, 0, 73, 0
2, 451166, Note_on_c, 0, 73, 55
2, 451178, Note_on_c, 0, 70, 56
2, 451180, Note_on_c, 0, 65, 40
2, 451266, Note_on_c, 0, 65, 0
2, 451418, Note_on_c, 0, 73, 0
2, 451446, Note_on_c, 0, 70, 0
2, 451458, Note_on_c, 0, 65, 42
2, 451480, Note_on_c, 0, 72, 41
2, 451496, Note_on_c, 0, 69, 26
2, 451546, Note_on_c, 0, 65, 0
2, 451710, Note_on_c, 0, 65, 42
2, 451796, Note_on_c, 0, 72, 0
2, 451800, Note_on_c, 0, 69, 0
2, 451808, Note_on_c, 0, 65, 0
2, 451972, Note_on_c, 0, 65, 46
2, 452042, Note_on_c, 0, 65, 0
2, 452216, Note_on_c, 0, 65, 47
2, 452322, Note_on_c, 0, 65, 0
2, 452492, Note_on_c, 0, 69, 75
2, 452500, Note_on_c, 0, 60, 57
2, 452534, Note_on_c, 0, 41, 19
2, 452594, Control_c, 0, 64, 127
2, 452712, Note_on_c, 0, 41, 0
2, 452758, Note_on_c, 0, 53, 48
2, 452826, Note_on_c, 0, 53, 0
2, 453010, Note_on_c, 0, 53, 33
2, 453076, Note_on_c, 0, 53, 0
2, 453262, Note_on_c, 0, 53, 60
2, 453328, Note_on_c, 0, 53, 0
2, 453470, Control_c, 0, 64, 0
2, 453494, Note_on_c, 0, 60, 0
2, 453532, Note_on_c, 0, 53, 63
2, 453592, Note_on_c, 0, 53, 0
2, 453592, Control_c, 0, 64, 127
2, 453756, Note_on_c, 0, 70, 92
2, 453766, Note_on_c, 0, 62, 56
2, 453771, Note_on_c, 0, 69, 0
2, 453776, Note_on_c, 0, 53, 64
2, 453838, Note_on_c, 0, 53, 0
2, 453841, Note_on_c, 0, 62, 0
2, 453884, Control_c, 0, 64, 0
2, 454006, Note_on_c, 0, 72, 108
2, 454006, Note_on_c, 0, 63, 82
2, 454032, Note_on_c, 0, 53, 51
2, 454042, Note_on_c, 0, 70, 0
2, 454110, Note_on_c, 0, 53, 0
2, 454162, Note_on_c, 0, 63, 0
2, 454222, Control_c, 0, 64, 127
2, 454278, Note_on_c, 0, 74, 95
2, 454281, Note_on_c, 0, 65, 88
2, 454281, Note_on_c, 0, 53, 63
2, 454281, Control_c, 0, 64, 0
2, 454306, Note_on_c, 0, 72, 0
2, 454344, Note_on_c, 0, 53, 0
2, 454378, Note_on_c, 0, 65, 0
2, 454422, Control_c, 0, 64, 127
2, 454482, Control_c, 0, 64, 0
2, 454556, Note_on_c, 0, 75, 75
2, 454572, Note_on_c, 0, 74, 0
2, 454572, Note_on_c, 0, 53, 55
2, 454585, Note_on_c, 0, 67, 60
2, 454636, Note_on_c, 0, 53, 0
2, 454652, Control_c, 0, 64, 127
2, 454670, Note_on_c, 0, 67, 0
2, 454702, Note_on_c, 0, 75, 0
2, 454760, Control_c, 0, 64, 0
2, 454824, Note_on_c, 0, 53, 59
2, 454828, Note_on_c, 0, 75, 66
2, 454842, Note_on_c, 0, 67, 65
2, 454906, Note_on_c, 0, 53, 0
2, 454912, Control_c, 0, 64, 127
2, 454932, Note_on_c, 0, 67, 0
2, 455006, Control_c, 0, 64, 0
2, 455066, Note_on_c, 0, 75, 0
2, 455074, Note_on_c, 0, 65, 79
2, 455078, Note_on_c, 0, 74, 79
2, 455106, Note_on_c, 0, 53, 54
2, 455160, Control_c, 0, 64, 127
2, 455166, Note_on_c, 0, 53, 0
2, 455178, Note_on_c, 0, 74, 0
2, 455186, Note_on_c, 0, 65, 0
2, 455252, Control_c, 0, 64, 0
2, 455316, Note_on_c, 0, 74, 79
2, 455350, Note_on_c, 0, 53, 54
2, 455362, Note_on_c, 0, 65, 35
2, 455414, Note_on_c, 0, 53, 0
2, 455436, Control_c, 0, 64, 127
2, 455476, Note_on_c, 0, 65, 0
2, 455528, Control_c, 0, 64, 0
2, 455584, Note_on_c, 0, 73, 71
2, 455592, Note_on_c, 0, 74, 0
2, 455610, Note_on_c, 0, 53, 55
2, 455612, Note_on_c, 0, 64, 51
2, 455670, Note_on_c, 0, 53, 0
2, 455706, Note_on_c, 0, 64, 0
2, 455712, Control_c, 0, 64, 127
2, 455728, Note_on_c, 0, 73, 0
2, 455804, Control_c, 0, 64, 0
2, 455834, Note_on_c, 0, 73, 72
2, 455864, Note_on_c, 0, 53, 58
2, 455876, Note_on_c, 0, 64, 28
2, 455930, Note_on_c, 0, 53, 0
2, 455970, Note_on_c, 0, 64, 0
2, 456004, Control_c, 0, 64, 127
2, 456080, Control_c, 0, 64, 0
2, 456100, Note_on_c, 0, 73, 0
2, 456106, Note_on_c, 0, 63, 67
2, 456128, Note_on_c, 0, 72, 71
2, 456128, Note_on_c, 0, 53, 52
2, 456194, Note_on_c, 0, 53, 0
2, 456204, Note_on_c, 0, 63, 0
2, 456206, Note_on_c, 0, 72, 0
2, 456250, Control_c, 0, 64, 127
2, 456326, Control_c, 0, 64, 0
2, 456366, Note_on_c, 0, 72, 93
2, 456380, Note_on_c, 0, 63, 66
2, 456384, Note_on_c, 0, 53, 43
2, 456456, Note_on_c, 0, 53, 0
2, 456496, Control_c, 0, 64, 127
2, 456534, Note_on_c, 0, 63, 0
2, 456572, Control_c, 0, 64, 0
2, 456612, Note_on_c, 0, 72, 0
2, 456628, Note_on_c, 0, 62, 62
2, 456632, Note_on_c, 0, 71, 63
2, 456654, Note_on_c, 0, 53, 46
2, 456716, Note_on_c, 0, 53, 0
2, 456736, Note_on_c, 0, 62, 0
2, 456744, Note_on_c, 0, 71, 0
2, 456758, Control_c, 0, 64, 127
2, 456834, Control_c, 0, 64, 0
2, 456904, Note_on_c, 0, 53, 55
2, 456912, Note_on_c, 0, 62, 58
2, 456936, Note_on_c, 0, 71, 32
2, 456978, Note_on_c, 0, 53, 0
2, 456981, Note_on_c, 0, 62, 0
2, 457002, Control_c, 0, 64, 127
2, 457126, Control_c, 0, 64, 0
2, 457154, Note_on_c, 0, 71, 0
2, 457166, Note_on_c, 0, 70, 66
2, 457176, Note_on_c, 0, 61, 56
2, 457200, Note_on_c, 0, 53, 42
2, 457274, Note_on_c, 0, 53, 0
2, 457298, Note_on_c, 0, 61, 0
2, 457310, Control_c, 0, 64, 127
2, 457322, Note_on_c, 0, 70, 0
2, 457418, Control_c, 0, 64, 0
2, 457490, Note_on_c, 0, 53, 35
2, 457494, Note_on_c, 0, 70, 49
2, 457496, Note_on_c, 0, 61, 43
2, 457586, Note_on_c, 0, 53, 0
2, 457664, Control_c, 0, 64, 127
2, 457746, Note_on_c, 0, 61, 0
2, 457786, Control_c, 0, 64, 0
2, 457900, Note_on_c, 0, 70, 0
2, 457900, Note_on_c, 0, 69, 29
2, 457906, Note_on_c, 0, 60, 29
2, 457934, Note_on_c, 0, 53, 28
2, 458432, Control_c, 0, 64, 127
2, 458522, Note_on_c, 0, 53, 0
2, 458566, Note_on_c, 0, 69, 0
2, 458572, Note_on_c, 0, 60, 0
2, 458694, Control_c, 0, 64, 0
2, 459170, Control_c, 0, 64, 127
2, 459414, Note_on_c, 0, 62, 58
2, 459417, Note_on_c, 0, 53, 34
2, 459420, Note_on_c, 0, 46, 56
2, 460536, Note_on_c, 0, 60, 36
2, 460564, Note_on_c, 0, 46, 0
2, 460566, Note_on_c, 0, 48, 35
2, 460614, Note_on_c, 0, 62, 0
2, 460702, Note_on_c, 0, 58, 48
2, 460720, Note_on_c, 0, 50, 58
2, 460734, Note_on_c, 0, 48, 0
2, 460738, Note_on_c, 0, 60, 0
2, 460810, Note_on_c, 0, 50, 0
2, 460838, Note_on_c, 0, 58, 0
2, 460860, Control_c, 0, 64, 0
2, 460860, Note_on_c, 0, 51, 51
2, 460872, Note_on_c, 0, 57, 54
2, 461350, Control_c, 0, 64, 127
2, 461355, Note_on_c, 0, 57, 0
2, 461448, Note_on_c, 0, 51, 0
2, 461464, Note_on_c, 0, 53, 0
2, 461658, Control_c, 0, 64, 0
2, 461972, Note_on_c, 0, 69, 74
2, 461982, Control_c, 0, 64, 127
2, 462158, Note_on_c, 0, 75, 93
2, 462192, Note_on_c, 0, 69, 0
2, 462366, Control_c, 0, 64, 0
2, 462718, Control_c, 0, 64, 127
2, 463006, Note_on_c, 0, 72, 72
2, 463128, Note_on_c, 0, 75, 0
2, 463142, Note_on_c, 0, 69, 81
2, 463168, Note_on_c, 0, 72, 0
2, 463322, Note_on_c, 0, 58, 70
2, 463325, Note_on_c, 0, 50, 66
2, 463325, Note_on_c, 0, 77, 97
2, 463338, Note_on_c, 0, 69, 0
2, 463364, Control_c, 0, 64, 0
2, 463824, Control_c, 0, 64, 127
2, 463978, Control_c, 0, 64, 0
2, 463984, Note_on_c, 0, 74, 66
2, 464016, Note_on_c, 0, 77, 0
2, 464162, Note_on_c, 0, 70, 74
2, 464164, Note_on_c, 0, 74, 0
2, 464608, Control_c, 0, 64, 127
2, 464754, Note_on_c, 0, 51, 33
2, 464768, Note_on_c, 0, 50, 0
2, 464832, Note_on_c, 0, 70, 0
2, 464894, Note_on_c, 0, 69, 49
2, 464966, Note_on_c, 0, 69, 0
2, 464978, Control_c, 0, 64, 0
2, 464984, Note_on_c, 0, 70, 73
2, 465058, Note_on_c, 0, 69, 81
2, 465132, Note_on_c, 0, 70, 0
2, 465176, Note_on_c, 0, 69, 0
2, 465176, Note_on_c, 0, 67, 85
2, 465260, Note_on_c, 0, 69, 88
2, 465312, Note_on_c, 0, 67, 0
2, 465442, Note_on_c, 0, 72, 81
2, 465456, Note_on_c, 0, 69, 0
2, 465766, Note_on_c, 0, 70, 78
2, 465776, Control_c, 0, 64, 127
2, 465806, Control_c, 0, 64, 0
2, 465828, Note_on_c, 0, 72, 0
2, 465944, Control_c, 0, 64, 127
2, 466116, Note_on_c, 0, 69, 51
2, 466176, Control_c, 0, 64, 0
2, 466184, Note_on_c, 0, 55, 49
2, 466236, Note_on_c, 0, 70, 0
2, 466308, Note_on_c, 0, 51, 0
2, 466442, Note_on_c, 0, 67, 59
2, 466474, Note_on_c, 0, 69, 0
2, 466514, Control_c, 0, 64, 127
2, 466762, Note_on_c, 0, 65, 60
2, 466784, Note_on_c, 0, 67, 0
2, 466990, Control_c, 0, 64, 0
2, 467076, Note_on_c, 0, 63, 62
2, 467152, Note_on_c, 0, 65, 0
2, 467190, Control_c, 0, 64, 127
2, 467256, Note_on_c, 0, 58, 0
2, 467444, Note_on_c, 0, 55, 0
2, 467466, Note_on_c, 0, 58, 41
2, 467466, Note_on_c, 0, 62, 48
2, 467466, Control_c, 0, 64, 0
2, 467504, Note_on_c, 0, 53, 47
2, 467512, Note_on_c, 0, 63, 0
2, 467816, Note_on_c, 0, 65, 58
2, 467860, Note_on_c, 0, 62, 0
2, 467958, Control_c, 0, 64, 127
2, 468042, Note_on_c, 0, 65, 0
2, 468134, Note_on_c, 0, 58, 0
2, 468152, Note_on_c, 0, 53, 0
2, 468238, Note_on_c, 0, 65, 60
2, 469050, Note_on_c, 0, 58, 58
2, 469076, Note_on_c, 0, 50, 35
2, 469086, Note_on_c, 0, 41, 35
2, 469224, Note_on_c, 0, 65, 0
2, 469412, Note_on_c, 0, 65, 69
2, 469770, Note_on_c, 0, 67, 67
2, 469776, Note_on_c, 0, 65, 0
2, 470062, Note_on_c, 0, 65, 83
2, 470078, Note_on_c, 0, 67, 0
2, 470204, Note_on_c, 0, 65, 0
2, 470228, Note_on_c, 0, 58, 0
2, 470318, Note_on_c, 0, 50, 0
2, 470386, Note_on_c, 0, 65, 59
2, 470402, Note_on_c, 0, 57, 55
2, 470434, Note_on_c, 0, 48, 49
2, 470462, Control_c, 0, 64, 0
2, 470744, Note_on_c, 0, 63, 60
2, 470828, Note_on_c, 0, 65, 0
2, 471092, Control_c, 0, 64, 127
2, 471102, Note_on_c, 0, 62, 56
2, 471124, Control_c, 0, 64, 0
2, 471130, Note_on_c, 0, 63, 0
2, 471338, Control_c, 0, 64, 127
2, 471476, Control_c, 0, 64, 0
2, 471540, Note_on_c, 0, 62, 0
2, 471542, Note_on_c, 0, 63, 55
2, 471676, Control_c, 0, 64, 127
2, 471722, Note_on_c, 0, 48, 0
2, 471748, Note_on_c, 0, 41, 0
2, 471794, Note_on_c, 0, 63, 0
2, 471814, Note_on_c, 0, 57, 0
2, 472150, Note_on_c, 0, 63, 55
2, 472158, Note_on_c, 0, 42, 43
2, 472172, Note_on_c, 0, 57, 35
2, 472208, Note_on_c, 0, 48, 23
2, 472490, Control_c, 0, 64, 0
2, 472906, Control_c, 0, 64, 127
2, 473214, Note_on_c, 0, 48, 0
2, 473426, Note_on_c, 0, 42, 0
2, 473430, Note_on_c, 0, 57, 0
2, 474046, Note_on_c, 0, 62, 24
2, 474052, Note_on_c, 0, 58, 23
2, 474082, Note_on_c, 0, 43, 24
2, 474084, Note_on_c, 0, 46, 31
2, 474244, Note_on_c, 0, 63, 0
2, 474380, Control_c, 0, 64, 0
2, 474796, Control_c, 0, 64, 127
2, 474964, Note_on_c, 0, 46, 0
2, 475012, Note_on_c, 0, 62, 0
2, 475024, Note_on_c, 0, 43, 0
2, 475032, Note_on_c, 0, 58, 0
2, 475226, Control_c, 0, 64, 0
2, 475918, Control_c, 0, 64, 127
2, 476750, Note_on_c, 0, 34, 39
2, 476768, Note_on_c, 0, 50, 56
2, 476778, Note_on_c, 0, 41, 25
2, 477518, Note_on_c, 0, 34, 0
2, 477866, Note_on_c, 0, 50, 0
2, 477880, Note_on_c, 0, 48, 39
2, 477900, Note_on_c, 0, 36, 27
2, 477980, Note_on_c, 0, 36, 0
2, 478032, Note_on_c, 0, 46, 56
2, 478038, Note_on_c, 0, 38, 23
2, 478084, Note_on_c, 0, 48, 0
2, 478110, Note_on_c, 0, 38, 0
2, 478130, Control_c, 0, 64, 0
2, 478142, Note_on_c, 0, 46, 0
2, 478144, Note_on_c, 0, 39, 28
2, 478204, Note_on_c, 0, 45, 59
2, 478574, Control_c, 0, 64, 127
2, 478612, Note_on_c, 0, 45, 0
2, 478674, Note_on_c, 0, 41, 0
2, 478706, Note_on_c, 0, 39, 0
2, 478898, Control_c, 0, 64, 0
2, 479190, Control_c, 0, 64, 127
2, 479386, Note_on_c, 0, 57, 66
2, 479572, Note_on_c, 0, 63, 73
2, 479592, Note_on_c, 0, 57, 0
2, 479728, Control_c, 0, 64, 0
2, 480050, Control_c, 0, 64, 127
2, 480430, Note_on_c, 0, 60, 36
2, 480512, Note_on_c, 0, 60, 0
2, 480520, Note_on_c, 0, 63, 0
2, 480542, Note_on_c, 0, 57, 74
2, 480697, Note_on_c, 0, 57, 0
2, 480704, Note_on_c, 0, 50, 47
2, 480710, Note_on_c, 0, 53, 39
2, 480714, Note_on_c, 0, 65, 79
2, 480726, Control_c, 0, 64, 0
2, 481002, Control_c, 0, 64, 127
2, 481136, Note_on_c, 0, 62, 59
2, 481160, Note_on_c, 0, 65, 0
2, 481188, Control_c, 0, 64, 0
2, 481280, Note_on_c, 0, 58, 95
2, 481292, Note_on_c, 0, 62, 0
2, 481352, Note_on_c, 0, 50, 0
2, 481360, Note_on_c, 0, 53, 0
2, 481402, Control_c, 0, 64, 127
2, 481414, Note_on_c, 0, 58, 0
2, 481802, Control_c, 0, 64, 0
2, 481824, Note_on_c, 0, 77, 95
2, 481846, Note_on_c, 0, 65, 51
2, 481849, Note_on_c, 0, 62, 40
2, 482310, Note_on_c, 0, 74, 60
2, 482338, Note_on_c, 0, 77, 0
2, 482486, Note_on_c, 0, 74, 0
2, 482532, Note_on_c, 0, 65, 0
2, 482552, Note_on_c, 0, 71, 31
2, 482554, Note_on_c, 0, 62, 0
2, 482984, Note_on_c, 0, 71, 0
2, 484218, Note_on_c, 0, 51, 87
2, 484228, Note_on_c, 0, 43, 70
2, 484238, Note_on_c, 0, 36, 74
2, 484460, Control_c, 0, 64, 127
2, 485382, Note_on_c, 0, 50, 69
2, 485404, Note_on_c, 0, 38, 48
2, 485494, Note_on_c, 0, 39, 73
2, 485500, Note_on_c, 0, 36, 0
2, 485510, Note_on_c, 0, 48, 80
2, 485626, Note_on_c, 0, 38, 0
2, 485638, Note_on_c, 0, 41, 65
2, 485662, Note_on_c, 0, 47, 75
2, 485710, Note_on_c, 0, 39, 0
2, 485736, Control_c, 0, 64, 0
2, 485820, Note_on_c, 0, 48, 0
2, 485822, Note_on_c, 0, 50, 0
2, 485832, Note_on_c, 0, 51, 0
2, 486166, Control_c, 0, 64, 127
2, 486228, Note_on_c, 0, 47, 0
2, 486260, Note_on_c, 0, 43, 0
2, 486280, Note_on_c, 0, 41, 0
2, 486504, Control_c, 0, 64, 0
2, 486734, Note_on_c, 0, 59, 73
2, 486780, Control_c, 0, 64, 127
2, 486918, Note_on_c, 0, 65, 102
2, 486992, Note_on_c, 0, 59, 0
2, 487010, Control_c, 0, 64, 0
2, 487380, Control_c, 0, 64, 127
2, 487734, Note_on_c, 0, 62, 88
2, 487784, Note_on_c, 0, 65, 0
2, 487880, Note_on_c, 0, 59, 90
2, 487992, Note_on_c, 0, 62, 0
2, 488046, Note_on_c, 0, 51, 66
2, 488049, Note_on_c, 0, 67, 90
2, 488052, Note_on_c, 0, 55, 65
2, 488070, Note_on_c, 0, 59, 0
2, 488072, Control_c, 0, 64, 0
2, 488362, Control_c, 0, 64, 127
2, 488466, Note_on_c, 0, 63, 82
2, 488546, Note_on_c, 0, 67, 0
2, 488558, Note_on_c, 0, 55, 0
2, 488610, Note_on_c, 0, 51, 0
2, 488640, Note_on_c, 0, 60, 96
2, 488696, Note_on_c, 0, 63, 0
2, 488864, Note_on_c, 0, 60, 0
2, 489242, Note_on_c, 0, 79, 83
2, 489280, Note_on_c, 0, 67, 41
2, 489294, Note_on_c, 0, 64, 28
2, 489362, Control_c, 0, 64, 0
2, 489716, Control_c, 0, 64, 127
2, 489870, Note_on_c, 0, 76, 50
2, 489900, Note_on_c, 0, 79, 0
2, 489976, Control_c, 0, 64, 0
2, 490016, Note_on_c, 0, 76, 0
2, 490064, Note_on_c, 0, 73, 51
2, 490176, Note_on_c, 0, 64, 0
2, 490194, Note_on_c, 0, 67, 0
2, 490452, Control_c, 0, 64, 127
2, 490478, Note_on_c, 0, 73, 0
2, 490606, Control_c, 0, 64, 0
2, 491976, Note_on_c, 0, 53, 109
2, 491980, Note_on_c, 0, 45, 89
2, 491984, Note_on_c, 0, 38, 82
2, 492312, Control_c, 0, 64, 127
2, 493126, Note_on_c, 0, 52, 80
2, 493128, Note_on_c, 0, 40, 73
2, 493240, Note_on_c, 0, 38, 0
2, 493262, Note_on_c, 0, 50, 92
2, 493270, Note_on_c, 0, 41, 75
2, 493302, Note_on_c, 0, 53, 0
2, 493374, Note_on_c, 0, 40, 0
2, 493396, Note_on_c, 0, 52, 0
2, 493406, Note_on_c, 0, 49, 85
2, 493414, Note_on_c, 0, 43, 79
2, 493464, Control_c, 0, 64, 0
2, 493520, Note_on_c, 0, 41, 0
2, 493550, Note_on_c, 0, 50, 0
2, 493940, Control_c, 0, 64, 127
2, 494020, Note_on_c, 0, 49, 0
2, 494060, Note_on_c, 0, 45, 0
2, 494063, Note_on_c, 0, 43, 0
2, 494232, Control_c, 0, 64, 0
2, 494484, Note_on_c, 0, 61, 96
2, 494492, Control_c, 0, 64, 127
2, 494674, Note_on_c, 0, 67, 103
2, 494710, Note_on_c, 0, 61, 0
2, 494770, Control_c, 0, 64, 0
2, 495138, Control_c, 0, 64, 127
2, 495504, Note_on_c, 0, 64, 87
2, 495542, Note_on_c, 0, 67, 0
2, 495626, Note_on_c, 0, 61, 97
2, 495720, Note_on_c, 0, 64, 0
2, 495784, Note_on_c, 0, 69, 108
2, 495792, Note_on_c, 0, 57, 77
2, 495796, Note_on_c, 0, 53, 67
2, 495800, Control_c, 0, 64, 0
2, 495816, Note_on_c, 0, 61, 0
2, 496076, Control_c, 0, 64, 127
2, 496216, Note_on_c, 0, 65, 101
2, 496272, Note_on_c, 0, 69, 0
2, 496276, Control_c, 0, 64, 0
2, 496334, Note_on_c, 0, 65, 0
2, 496348, Note_on_c, 0, 62, 106
2, 496390, Note_on_c, 0, 57, 0
2, 496398, Note_on_c, 0, 53, 0
2, 496444, Control_c, 0, 64, 127
2, 496474, Note_on_c, 0, 62, 0
2, 496736, Control_c, 0, 64, 0
2, 496876, Note_on_c, 0, 81, 95
2, 496876, Note_on_c, 0, 69, 58
2, 496888, Note_on_c, 0, 65, 50
2, 497136, Control_c, 0, 64, 127
2, 497318, Note_on_c, 0, 77, 78
2, 497320, Control_c, 0, 64, 0
2, 497352, Note_on_c, 0, 81, 0
2, 497478, Note_on_c, 0, 77, 0
2, 497512, Note_on_c, 0, 74, 59
2, 497734, Control_c, 0, 64, 127
2, 497752, Note_on_c, 0, 65, 0
2, 497766, Note_on_c, 0, 69, 0
2, 497860, Note_on_c, 0, 74, 0
2, 498042, Control_c, 0, 64, 0
2, 498946, Note_on_c, 0, 72, 75
2, 498954, Note_on_c, 0, 62, 33
2, 498957, Note_on_c, 0, 54, 37
2, 499240, Control_c, 0, 64, 127
2, 499256, Note_on_c, 0, 62, 0
2, 499482, Note_on_c, 0, 69, 43
2, 499518, Note_on_c, 0, 72, 0
2, 499626, Control_c, 0, 64, 0
2, 499640, Note_on_c, 0, 69, 0
2, 499674, Note_on_c, 0, 62, 42
2, 499748, Note_on_c, 0, 54, 0
2, 499810, Control_c, 0, 64, 127
2, 499836, Note_on_c, 0, 62, 0
2, 500362, Control_c, 0, 64, 0
2, 500364, Note_on_c, 0, 84, 51
2, 500380, Note_on_c, 0, 74, 28
2, 500426, Note_on_c, 0, 66, 36
2, 500840, Control_c, 0, 64, 127
2, 500884, Note_on_c, 0, 74, 0
2, 501148, Note_on_c, 0, 81, 34
2, 501172, Note_on_c, 0, 84, 0
2, 501324, Note_on_c, 0, 81, 0
2, 501386, Note_on_c, 0, 74, 28
2, 501438, Control_c, 0, 64, 0
2, 501466, Note_on_c, 0, 66, 0
2, 501806, Note_on_c, 0, 74, 0
2, 503154, Note_on_c, 0, 74, 126
2, 503156, Note_on_c, 0, 55, 126
2, 503158, Note_on_c, 0, 43, 124
2, 503220, Control_c, 0, 64, 127
2, 503292, Note_on_c, 0, 82, 116
2, 503332, Note_on_c, 0, 74, 0
2, 503408, Note_on_c, 0, 81, 116
2, 503436, Note_on_c, 0, 82, 0
2, 503512, Note_on_c, 0, 82, 108
2, 503556, Note_on_c, 0, 81, 0
2, 503606, Note_on_c, 0, 74, 116
2, 503634, Note_on_c, 0, 82, 0
2, 503688, Note_on_c, 0, 43, 0
2, 503696, Note_on_c, 0, 74, 0
2, 503698, Note_on_c, 0, 82, 119
2, 503744, Note_on_c, 0, 55, 0
2, 503798, Note_on_c, 0, 81, 116
2, 503822, Note_on_c, 0, 82, 0
2, 503904, Note_on_c, 0, 82, 110
2, 503956, Note_on_c, 0, 81, 0
2, 503959, Control_c, 0, 64, 0
2, 503994, Note_on_c, 0, 74, 116
2, 504028, Note_on_c, 0, 82, 0
2, 504092, Note_on_c, 0, 82, 120
2, 504108, Note_on_c, 0, 74, 0
2, 504192, Note_on_c, 0, 79, 111
2, 504220, Note_on_c, 0, 82, 0
2, 504296, Note_on_c, 0, 82, 112
2, 504334, Note_on_c, 0, 79, 0
2, 504412, Note_on_c, 0, 74, 120
2, 504412, Note_on_c, 0, 43, 111
2, 504422, Note_on_c, 0, 82, 0
2, 504510, Note_on_c, 0, 55, 115
2, 504513, Note_on_c, 0, 82, 108
2, 504520, Note_on_c, 0, 43, 0
2, 504522, Note_on_c, 0, 74, 0
2, 504588, Note_on_c, 0, 55, 0
2, 504588, Control_c, 0, 64, 127
2, 504624, Note_on_c, 0, 54, 98
2, 504626, Note_on_c, 0, 79, 109
2, 504646, Note_on_c, 0, 82, 0
2, 504740, Note_on_c, 0, 55, 111
2, 504742, Note_on_c, 0, 82, 109
2, 504764, Note_on_c, 0, 79, 0
2, 504770, Note_on_c, 0, 54, 0
2, 504804, Control_c, 0, 64, 0
2, 504852, Note_on_c, 0, 55, 0
2, 504854, Note_on_c, 0, 74, 116
2, 504866, Note_on_c, 0, 45, 126
2, 504872, Note_on_c, 0, 82, 0
2, 504954, Note_on_c, 0, 82, 106
2, 504958, Note_on_c, 0, 57, 116
2, 504962, Note_on_c, 0, 74, 0
2, 504974, Note_on_c, 0, 45, 0
2, 505016, Note_on_c, 0, 57, 0
2, 505019, Control_c, 0, 64, 127
2, 505060, Note_on_c, 0, 55, 116
2, 505066, Note_on_c, 0, 77, 105
2, 505088, Note_on_c, 0, 82, 0
2, 505138, Note_on_c, 0, 57, 94
2, 505152, Note_on_c, 0, 82, 115
2, 505155, Note_on_c, 0, 55, 0
2, 505155, Control_c, 0, 64, 0
2, 505192, Note_on_c, 0, 77, 0
2, 505194, Note_on_c, 0, 57, 0
2, 505240, Note_on_c, 0, 46, 127
2, 505246, Note_on_c, 0, 74, 116
2, 505284, Note_on_c, 0, 82, 0
2, 505336, Note_on_c, 0, 58, 127
2, 505340, Note_on_c, 0, 82, 124
2, 505356, Note_on_c, 0, 74, 0
2, 505356, Note_on_c, 0, 46, 0
2, 505372, Control_c, 0, 64, 127
2, 505434, Note_on_c, 0, 57, 113
2, 505437, Note_on_c, 0, 58, 0
2, 505462, Note_on_c, 0, 77, 112
2, 505484, Note_on_c, 0, 82, 0
2, 505548, Note_on_c, 0, 57, 0
2, 505551, Note_on_c, 0, 82, 113
2, 505554, Note_on_c, 0, 58, 123
2, 505598, Note_on_c, 0, 77, 0
2, 505664, Note_on_c, 0, 58, 0
2, 505700, Note_on_c, 0, 72, 124
2, 505700, Note_on_c, 0, 60, 127
2, 505704, Note_on_c, 0, 82, 0
2, 505716, Note_on_c, 0, 48, 120
2, 505726, Control_c, 0, 64, 0
2, 505816, Note_on_c, 0, 82, 103
2, 505934, Note_on_c, 0, 77, 113
2, 505960, Note_on_c, 0, 72, 0
2, 505963, Note_on_c, 0, 82, 0
2, 506032, Note_on_c, 0, 82, 108
2, 506048, Control_c, 0, 64, 127
2, 506066, Note_on_c, 0, 77, 0
2, 506074, Note_on_c, 0, 48, 0
2, 506142, Note_on_c, 0, 60, 0
2, 506145, Note_on_c, 0, 72, 118
2, 506164, Note_on_c, 0, 82, 0
2, 506244, Note_on_c, 0, 72, 0
2, 506244, Note_on_c, 0, 82, 105
2, 506342, Note_on_c, 0, 77, 115
2, 506362, Note_on_c, 0, 82, 0
2, 506432, Control_c, 0, 64, 0
2, 506438, Note_on_c, 0, 82, 105
2, 506468, Note_on_c, 0, 77, 0
2, 506544, Note_on_c, 0, 72, 105
2, 506568, Note_on_c, 0, 82, 0
2, 506628, Note_on_c, 0, 82, 109
2, 506630, Note_on_c, 0, 72, 0
2, 506724, Control_c, 0, 64, 127
2, 506730, Note_on_c, 0, 76, 105
2, 506750, Note_on_c, 0, 82, 0
2, 506812, Note_on_c, 0, 82, 115
2, 506844, Note_on_c, 0, 76, 0
2, 506930, Note_on_c, 0, 72, 111
2, 506938, Note_on_c, 0, 36, 116
2, 506940, Note_on_c, 0, 82, 0
2, 507002, Note_on_c, 0, 36, 0
2, 507014, Note_on_c, 0, 48, 120
2, 507022, Note_on_c, 0, 82, 102
2, 507026, Note_on_c, 0, 72, 0
2, 507114, Note_on_c, 0, 48, 0
2, 507126, Note_on_c, 0, 76, 110
2, 507136, Note_on_c, 0, 47, 98
2, 507142, Note_on_c, 0, 82, 0
2, 507218, Note_on_c, 0, 82, 101
2, 507224, Note_on_c, 0, 76, 0
2, 507230, Note_on_c, 0, 48, 102
2, 507244, Note_on_c, 0, 47, 0
2, 507278, Control_c, 0, 64, 0
2, 507316, Note_on_c, 0, 48, 0
2, 507332, Note_on_c, 0, 72, 111
2, 507338, Note_on_c, 0, 38, 124
2, 507346, Note_on_c, 0, 82, 0
2, 507420, Note_on_c, 0, 38, 0
2, 507420, Note_on_c, 0, 82, 104
2, 507432, Note_on_c, 0, 50, 118
2, 507442, Note_on_c, 0, 72, 0
2, 507476, Control_c, 0, 64, 127
2, 507532, Note_on_c, 0, 50, 0
2, 507534, Note_on_c, 0, 77, 106
2, 507536, Note_on_c, 0, 48, 112
2, 507552, Note_on_c, 0, 82, 0
2, 507630, Note_on_c, 0, 50, 96
2, 507630, Note_on_c, 0, 82, 105
2, 507654, Note_on_c, 0, 77, 0
2, 507660, Note_on_c, 0, 48, 0
2, 507692, Control_c, 0, 64, 0
2, 507722, Note_on_c, 0, 50, 0
2, 507738, Note_on_c, 0, 40, 121
2, 507740, Note_on_c, 0, 72, 115
2, 507760, Note_on_c, 0, 82, 0
2, 507830, Note_on_c, 0, 82, 113
2, 507838, Note_on_c, 0, 72, 0
2, 507840, Note_on_c, 0, 40, 0
2, 507840, Note_on_c, 0, 52, 121
2, 507892, Control_c, 0, 64, 127
2, 507934, Note_on_c, 0, 52, 0
2, 507948, Note_on_c, 0, 50, 112
2, 507951, Note_on_c, 0, 79, 109
2, 507964, Note_on_c, 0, 82, 0
2, 508046, Note_on_c, 0, 52, 102
2, 508049, Note_on_c, 0, 50, 0
2, 508052, Note_on_c, 0, 82, 100
2, 508096, Note_on_c, 0, 79, 0
2, 508130, Note_on_c, 0, 52, 0
2, 508198, Note_on_c, 0, 72, 117
2, 508206, Note_on_c, 0, 53, 124
2, 508210, Note_on_c, 0, 41, 116
2, 508218, Note_on_c, 0, 82, 0
2, 508230, Control_c, 0, 64, 0
2, 508346, Note_on_c, 0, 80, 105
2, 508437, Note_on_c, 0, 72, 0
2, 508462, Note_on_c, 0, 79, 112
2, 508496, Note_on_c, 0, 80, 0
2, 508506, Control_c, 0, 64, 127
2, 508584, Note_on_c, 0, 80, 96
2, 508618, Note_on_c, 0, 79, 0
2, 508698, Note_on_c, 0, 72, 116
2, 508716, Note_on_c, 0, 80, 0
2, 508744, Note_on_c, 0, 41, 0
2, 508784, Note_on_c, 0, 53, 0
2, 508804, Note_on_c, 0, 72, 0
2, 508806, Note_on_c, 0, 80, 96
2, 508910, Note_on_c, 0, 79, 109
2, 508926, Note_on_c, 0, 80, 0
2, 509010, Note_on_c, 0, 80, 100
2, 509044, Control_c, 0, 64, 0
2, 509052, Note_on_c, 0, 79, 0
2, 509098, Note_on_c, 0, 72, 111
2, 509138, Note_on_c, 0, 80, 0
2, 509208, Note_on_c, 0, 80, 102
2, 509226, Note_on_c, 0, 72, 0
2, 509244, Control_c, 0, 64, 127
2, 509314, Note_on_c, 0, 77, 111
2, 509338, Note_on_c, 0, 80, 0
2, 509404, Note_on_c, 0, 80, 106
2, 509436, Note_on_c, 0, 77, 0
2, 509516, Note_on_c, 0, 72, 119
2, 509516, Note_on_c, 0, 41, 118
2, 509544, Note_on_c, 0, 80, 0
2, 509614, Note_on_c, 0, 53, 101
2, 509616, Note_on_c, 0, 41, 0
2, 509616, Note_on_c, 0, 80, 101
2, 509624, Note_on_c, 0, 72, 0
2, 509672, Note_on_c, 0, 53, 0
2, 509724, Note_on_c, 0, 77, 106
2, 509728, Note_on_c, 0, 52, 109
2, 509742, Note_on_c, 0, 80, 0
2, 509820, Note_on_c, 0, 53, 109
2, 509822, Note_on_c, 0, 80, 101
2, 509836, Note_on_c, 0, 52, 0
2, 509852, Note_on_c, 0, 77, 0
2, 509918, Note_on_c, 0, 53, 0
2, 509918, Control_c, 0, 64, 0
2, 509934, Note_on_c, 0, 72, 115
2, 509942, Note_on_c, 0, 43, 124
2, 509954, Note_on_c, 0, 80, 0
2, 510038, Note_on_c, 0, 80, 100
2, 510044, Note_on_c, 0, 55, 117
2, 510048, Note_on_c, 0, 43, 0
2, 510080, Note_on_c, 0, 72, 0
2, 510120, Control_c, 0, 64, 127
2, 510142, Note_on_c, 0, 55, 0
2, 510146, Note_on_c, 0, 53, 108
2, 510152, Note_on_c, 0, 75, 100
2, 510176, Note_on_c, 0, 80, 0
2, 510240, Note_on_c, 0, 80, 103
2, 510244, Note_on_c, 0, 55, 96
2, 510252, Note_on_c, 0, 53, 0
2, 510280, Note_on_c, 0, 75, 0
2, 510304, Note_on_c, 0, 55, 0
2, 510362, Note_on_c, 0, 72, 116
2, 510364, Note_on_c, 0, 44, 116
2, 510384, Note_on_c, 0, 80, 0
2, 510438, Note_on_c, 0, 44, 0
2, 510460, Note_on_c, 0, 56, 115
2, 510462, Note_on_c, 0, 80, 101
2, 510480, Note_on_c, 0, 72, 0
2, 510562, Note_on_c, 0, 56, 0
2, 510572, Note_on_c, 0, 55, 111
2, 510584, Note_on_c, 0, 75, 101
2, 510608, Note_on_c, 0, 80, 0
2, 510674, Note_on_c, 0, 55, 0
2, 510682, Note_on_c, 0, 56, 111
2, 510686, Note_on_c, 0, 80, 96
2, 510722, Note_on_c, 0, 75, 0
2, 510760, Note_on_c, 0, 56, 0
2, 510834, Note_on_c, 0, 70, 123
2, 510842, Note_on_c, 0, 58, 127
2, 510852, Note_on_c, 0, 46, 126
2, 510855, Note_on_c, 0, 80, 0
2, 510855, Control_c, 0, 64, 0
2, 510970, Note_on_c, 0, 80, 93
2, 511062, Note_on_c, 0, 70, 0
2, 511098, Note_on_c, 0, 75, 103
2, 511101, Control_c, 0, 64, 127
2, 511122, Note_on_c, 0, 80, 0
2, 511196, Note_on_c, 0, 80, 95
2, 511232, Note_on_c, 0, 75, 0
2, 511258, Note_on_c, 0, 58, 0
2, 511288, Note_on_c, 0, 46, 0
2, 511322, Note_on_c, 0, 70, 119
2, 511346, Note_on_c, 0, 80, 0
2, 511432, Note_on_c, 0, 80, 90
2, 511448, Note_on_c, 0, 70, 0
2, 511558, Note_on_c, 0, 75, 103
2, 511576, Note_on_c, 0, 80, 0
2, 511652, Note_on_c, 0, 80, 94
2, 511670, Note_on_c, 0, 75, 0
2, 511766, Note_on_c, 0, 70, 120
2, 511792, Note_on_c, 0, 80, 0
2, 511868, Note_on_c, 0, 80, 96
2, 511872, Control_c, 0, 64, 0
2, 511878, Note_on_c, 0, 70, 0
2, 511982, Note_on_c, 0, 74, 111
2, 512004, Note_on_c, 0, 80, 0
2, 512078, Note_on_c, 0, 80, 98
2, 512086, Control_c, 0, 64, 127
2, 512108, Note_on_c, 0, 74, 0
2, 512170, Note_on_c, 0, 34, 126
2, 512176, Note_on_c, 0, 70, 115
2, 512214, Note_on_c, 0, 80, 0
2, 512274, Note_on_c, 0, 34, 0
2, 512278, Note_on_c, 0, 80, 101
2, 512278, Note_on_c, 0, 46, 115
2, 512286, Note_on_c, 0, 70, 0
2, 512332, Note_on_c, 0, 46, 0
2, 512350, Note_on_c, 0, 44, 96
2, 512392, Note_on_c, 0, 74, 100
2, 512398, Note_on_c, 0, 44, 0
2, 512404, Note_on_c, 0, 80, 0
2, 512414, Note_on_c, 0, 45, 89
2, 512456, Note_on_c, 0, 45, 0
2, 512462, Note_on_c, 0, 46, 118
2, 512482, Note_on_c, 0, 80, 95
2, 512502, Note_on_c, 0, 74, 0
2, 512558, Note_on_c, 0, 46, 0
2, 512582, Note_on_c, 0, 70, 113
2, 512586, Note_on_c, 0, 36, 124
2, 512614, Note_on_c, 0, 80, 0
2, 512624, Control_c, 0, 64, 0
2, 512664, Note_on_c, 0, 36, 0
2, 512670, Note_on_c, 0, 48, 118
2, 512676, Note_on_c, 0, 80, 105
2, 512720, Note_on_c, 0, 70, 0
2, 512746, Control_c, 0, 64, 127
2, 512760, Note_on_c, 0, 46, 120
2, 512780, Note_on_c, 0, 75, 95
2, 512786, Note_on_c, 0, 48, 0
2, 512802, Note_on_c, 0, 80, 0
2, 512854, Note_on_c, 0, 48, 110
2, 512878, Note_on_c, 0, 80, 97
2, 512904, Note_on_c, 0, 46, 0
2, 512908, Note_on_c, 0, 75, 0
2, 512946, Control_c, 0, 64, 0
2, 512956, Note_on_c, 0, 48, 0
2, 512982, Note_on_c, 0, 38, 121
2, 512985, Note_on_c, 0, 70, 116
2, 513012, Note_on_c, 0, 80, 0
2, 513078, Note_on_c, 0, 50, 120
2, 513080, Note_on_c, 0, 38, 0
2, 513084, Note_on_c, 0, 80, 101
2, 513106, Note_on_c, 0, 70, 0
2, 513130, Control_c, 0, 64, 127
2, 513166, Note_on_c, 0, 50, 0
2, 513194, Note_on_c, 0, 48, 116
2, 513198, Note_on_c, 0, 77, 112
2, 513208, Note_on_c, 0, 80, 0
2, 513278, Note_on_c, 0, 50, 90
2, 513288, Note_on_c, 0, 48, 0
2, 513296, Note_on_c, 0, 80, 95
2, 513316, Note_on_c, 0, 50, 0
2, 513316, Note_on_c, 0, 77, 0
2, 513408, Note_on_c, 0, 70, 118
2, 513428, Note_on_c, 0, 51, 116
2, 513430, Note_on_c, 0, 39, 111
2, 513440, Note_on_c, 0, 80, 0
2, 513470, Control_c, 0, 64, 0
2, 513536, Note_on_c, 0, 78, 105
2, 513558, Note_on_c, 0, 70, 0
2, 513646, Note_on_c, 0, 78, 0
2, 513646, Note_on_c, 0, 77, 97
2, 513698, Control_c, 0, 64, 127
2, 513746, Note_on_c, 0, 78, 89
2, 513768, Note_on_c, 0, 77, 0
2, 513814, Note_on_c, 0, 78, 0
2, 513824, Note_on_c, 0, 70, 112
2, 513842, Note_on_c, 0, 51, 0
2, 513870, Note_on_c, 0, 39, 0
2, 513936, Note_on_c, 0, 70, 0
2, 513942, Note_on_c, 0, 78, 100
2, 514028, Note_on_c, 0, 77, 112
2, 514050, Note_on_c, 0, 78, 0
2, 514114, Control_c, 0, 64, 0
2, 514118, Note_on_c, 0, 78, 103
2, 514144, Note_on_c, 0, 77, 0
2, 514208, Note_on_c, 0, 70, 119
2, 514222, Note_on_c, 0, 78, 0
2, 514314, Note_on_c, 0, 70, 0
2, 514314, Note_on_c, 0, 78, 100
2, 514344, Control_c, 0, 64, 127
2, 514426, Note_on_c, 0, 75, 95
2, 514436, Note_on_c, 0, 78, 0
2, 514510, Note_on_c, 0, 78, 96
2, 514546, Note_on_c, 0, 75, 0
2, 514620, Note_on_c, 0, 78, 0
2, 514623, Note_on_c, 0, 70, 115
2, 514630, Note_on_c, 0, 39, 120
2, 514722, Note_on_c, 0, 78, 88
2, 514734, Note_on_c, 0, 70, 0
2, 514737, Note_on_c, 0, 51, 101
2, 514740, Note_on_c, 0, 39, 0
2, 514822, Note_on_c, 0, 50, 110
2, 514825, Note_on_c, 0, 51, 0
2, 514828, Note_on_c, 0, 75, 95
2, 514846, Note_on_c, 0, 78, 0
2, 514912, Note_on_c, 0, 51, 105
2, 514926, Note_on_c, 0, 78, 87
2, 514936, Note_on_c, 0, 50, 0
2, 514950, Note_on_c, 0, 75, 0
2, 515016, Note_on_c, 0, 51, 0
2, 515028, Note_on_c, 0, 70, 115
2, 515040, Note_on_c, 0, 41, 126
2, 515044, Note_on_c, 0, 78, 0
2, 515082, Control_c, 0, 64, 0
2, 515120, Note_on_c, 0, 41, 0
2, 515122, Note_on_c, 0, 53, 120
2, 515128, Note_on_c, 0, 78, 88
2, 515142, Note_on_c, 0, 70, 0
2, 515206, Control_c, 0, 64, 127
2, 515220, Note_on_c, 0, 51, 112
2, 515222, Note_on_c, 0, 53, 0
2, 515224, Note_on_c, 0, 73, 95
2, 515250, Note_on_c, 0, 78, 0
2, 515300, Note_on_c, 0, 53, 86
2, 515316, Note_on_c, 0, 78, 94
2, 515338, Note_on_c, 0, 73, 0
2, 515350, Note_on_c, 0, 51, 0
2, 515386, Note_on_c, 0, 53, 0
2, 515389, Control_c, 0, 64, 0
2, 515420, Note_on_c, 0, 70, 121
2, 515430, Note_on_c, 0, 42, 116
2, 515442, Note_on_c, 0, 78, 0
2, 515518, Note_on_c, 0, 78, 90
2, 515524, Note_on_c, 0, 42, 0
2, 515526, Note_on_c, 0, 70, 0
2, 515528, Note_on_c, 0, 54, 117
2, 515544, Control_c, 0, 64, 127
2, 515614, Note_on_c, 0, 54, 0
2, 515630, Note_on_c, 0, 53, 111
2, 515632, Note_on_c, 0, 73, 90
2, 515656, Note_on_c, 0, 78, 0
2, 515722, Note_on_c, 0, 78, 93
2, 515728, Note_on_c, 0, 54, 116
2, 515736, Note_on_c, 0, 53, 0
2, 515760, Note_on_c, 0, 73, 0
2, 515806, Note_on_c, 0, 54, 0
2, 515874, Note_on_c, 0, 78, 0
2, 515876, Note_on_c, 0, 68, 100
2, 515904, Note_on_c, 0, 56, 121
2, 515907, Note_on_c, 0, 44, 118
2, 515958, Control_c, 0, 64, 0
2, 516016, Note_on_c, 0, 78, 96
2, 516030, Note_on_c, 0, 68, 0
2, 516136, Note_on_c, 0, 73, 93
2, 516160, Note_on_c, 0, 78, 0
2, 516224, Note_on_c, 0, 78, 94
2, 516234, Control_c, 0, 64, 127
2, 516250, Note_on_c, 0, 73, 0
2, 516318, Note_on_c, 0, 56, 0
2, 516342, Note_on_c, 0, 68, 93
2, 516350, Note_on_c, 0, 78, 0
2, 516398, Note_on_c, 0, 44, 0
2, 516410, Note_on_c, 0, 68, 0
2, 516440, Note_on_c, 0, 78, 86
2, 516556, Note_on_c, 0, 73, 90
2, 516568, Note_on_c, 0, 78, 0
2, 516628, Note_on_c, 0, 73, 0
2, 516640, Note_on_c, 0, 78, 93
2, 516738, Note_on_c, 0, 68, 98
2, 516744, Note_on_c, 0, 78, 0
2, 516790, Note_on_c, 0, 68, 0
2, 516830, Note_on_c, 0, 78, 88
2, 516934, Note_on_c, 0, 72, 109
2, 516942, Note_on_c, 0, 78, 0
2, 517020, Note_on_c, 0, 78, 95
2, 517050, Control_c, 0, 64, 0
2, 517053, Note_on_c, 0, 72, 0
2, 517120, Note_on_c, 0, 32, 127
2, 517120, Note_on_c, 0, 68, 105
2, 517150, Note_on_c, 0, 78, 0
2, 517212, Note_on_c, 0, 32, 0
2, 517212, Note_on_c, 0, 44, 108
2, 517215, Note_on_c, 0, 78, 95
2, 517230, Note_on_c, 0, 68, 0
2, 517248, Control_c, 0, 64, 127
2, 517278, Note_on_c, 0, 44, 0
2, 517320, Note_on_c, 0, 43, 105
2, 517326, Note_on_c, 0, 72, 95
2, 517338, Note_on_c, 0, 78, 0
2, 517390, Note_on_c, 0, 72, 0
2, 517408, Note_on_c, 0, 44, 101
2, 517416, Note_on_c, 0, 78, 88
2, 517423, Note_on_c, 0, 43, 0
2, 517494, Control_c, 0, 64, 0
2, 517499, Note_on_c, 0, 44, 0
2, 517510, Note_on_c, 0, 68, 96
2, 517510, Note_on_c, 0, 34, 127
2, 517526, Note_on_c, 0, 78, 0
2, 517602, Note_on_c, 0, 78, 87
2, 517605, Note_on_c, 0, 46, 127
2, 517614, Note_on_c, 0, 68, 0
2, 517624, Note_on_c, 0, 34, 0
2, 517678, Control_c, 0, 64, 127
2, 517702, Note_on_c, 0, 46, 0
2, 517705, Note_on_c, 0, 44, 101
2, 517708, Note_on_c, 0, 78, 0
2, 517714, Note_on_c, 0, 73, 82
2, 517784, Note_on_c, 0, 46, 104
2, 517806, Note_on_c, 0, 78, 78
2, 517828, Note_on_c, 0, 73, 0
2, 517830, Note_on_c, 0, 44, 0
2, 517878, Control_c, 0, 64, 0
2, 517882, Note_on_c, 0, 46, 0
2, 517900, Note_on_c, 0, 36, 127
2, 517908, Note_on_c, 0, 68, 96
2, 517922, Note_on_c, 0, 78, 0
2, 517986, Note_on_c, 0, 48, 124
2, 518004, Note_on_c, 0, 78, 83
2, 518007, Note_on_c, 0, 36, 0
2, 518034, Note_on_c, 0, 68, 0
2, 518062, Control_c, 0, 64, 127
2, 518072, Note_on_c, 0, 46, 116
2, 518076, Note_on_c, 0, 48, 0
2, 518106, Note_on_c, 0, 78, 0
2, 518106, Note_on_c, 0, 75, 89
2, 518164, Note_on_c, 0, 48, 100
2, 518204, Note_on_c, 0, 46, 0
2, 518210, Note_on_c, 0, 78, 89
2, 518220, Note_on_c, 0, 48, 0
2, 518230, Note_on_c, 0, 75, 0
2, 518304, Note_on_c, 0, 68, 100
2, 518316, Note_on_c, 0, 49, 127
2, 518322, Note_on_c, 0, 37, 116
2, 518346, Note_on_c, 0, 78, 0
2, 518356, Control_c, 0, 64, 0
2, 518432, Note_on_c, 0, 77, 102
2, 518458, Note_on_c, 0, 68, 0
2, 518522, Note_on_c, 0, 75, 96
2, 518540, Note_on_c, 0, 77, 0
2, 518586, Note_on_c, 0, 37, 0
2, 518600, Control_c, 0, 64, 127
2, 518614, Note_on_c, 0, 77, 110
2, 518642, Note_on_c, 0, 49, 0
2, 518658, Note_on_c, 0, 75, 0
2, 518710, Note_on_c, 0, 68, 108
2, 518724, Note_on_c, 0, 77, 0
2, 518816, Control_c, 0, 64, 0
2, 518836, Note_on_c, 0, 77, 85
2, 518862, Note_on_c, 0, 68, 0
2, 518916, Note_on_c, 0, 49, 115
2, 518918, Note_on_c, 0, 73, 92
2, 518926, Note_on_c, 0, 77, 0
2, 518970, Note_on_c, 0, 51, 102
2, 519008, Note_on_c, 0, 77, 92
2, 519040, Note_on_c, 0, 53, 112
2, 519066, Note_on_c, 0, 73, 0
2, 519066, Note_on_c, 0, 49, 0
2, 519118, Note_on_c, 0, 51, 0
2, 519118, Note_on_c, 0, 70, 118
2, 519128, Note_on_c, 0, 77, 0
2, 519128, Note_on_c, 0, 55, 124
2, 519164, Note_on_c, 0, 53, 0
2, 519228, Note_on_c, 0, 75, 92
2, 519236, Note_on_c, 0, 70, 0
2, 519334, Note_on_c, 0, 73, 96
2, 519338, Control_c, 0, 64, 127
2, 519356, Note_on_c, 0, 75, 0
2, 519390, Note_on_c, 0, 55, 0
2, 519428, Note_on_c, 0, 75, 95
2, 519472, Note_on_c, 0, 73, 0
2, 519526, Note_on_c, 0, 70, 105
2, 519532, Note_on_c, 0, 75, 0
2, 519584, Control_c, 0, 64, 0
2, 519604, Note_on_c, 0, 70, 0
2, 519624, Note_on_c, 0, 75, 83
2, 519734, Note_on_c, 0, 51, 111
2, 519736, Note_on_c, 0, 73, 93
2, 519740, Note_on_c, 0, 75, 0
2, 519798, Note_on_c, 0, 53, 106
2, 519798, Control_c, 0, 64, 127
2, 519822, Note_on_c, 0, 75, 80
2, 519830, Control_c, 0, 64, 0
2, 519870, Note_on_c, 0, 55, 111
2, 519878, Note_on_c, 0, 73, 0
2, 519886, Note_on_c, 0, 51, 0
2, 519928, Note_on_c, 0, 53, 0
2, 519944, Note_on_c, 0, 75, 0
2, 519954, Note_on_c, 0, 57, 120
2, 519960, Note_on_c, 0, 65, 106
2, 520014, Note_on_c, 0, 55, 0
2, 520050, Note_on_c, 0, 75, 82
2, 520078, Note_on_c, 0, 65, 0
2, 520160, Note_on_c, 0, 72, 102
2, 520168, Control_c, 0, 64, 127
2, 520174, Note_on_c, 0, 75, 0
2, 520178, Note_on_c, 0, 57, 0
2, 520244, Note_on_c, 0, 75, 93
2, 520280, Note_on_c, 0, 72, 0
2, 520348, Note_on_c, 0, 75, 0
2, 520348, Note_on_c, 0, 65, 102
2, 520420, Note_on_c, 0, 75, 86
2, 520422, Note_on_c, 0, 65, 0
2, 520430, Control_c, 0, 64, 0
2, 520522, Note_on_c, 0, 53, 109
2, 520526, Note_on_c, 0, 75, 0
2, 520526, Note_on_c, 0, 72, 105
2, 520578, Note_on_c, 0, 55, 111
2, 520610, Note_on_c, 0, 75, 86
2, 520646, Note_on_c, 0, 53, 0
2, 520651, Note_on_c, 0, 72, 0
2, 520656, Note_on_c, 0, 57, 116
2, 520710, Note_on_c, 0, 55, 0
2, 520722, Note_on_c, 0, 65, 102
2, 520740, Note_on_c, 0, 75, 0
2, 520740, Note_on_c, 0, 58, 125
2, 520794, Note_on_c, 0, 57, 0
2, 520834, Note_on_c, 0, 73, 95
2, 520844, Note_on_c, 0, 65, 0
2, 520940, Note_on_c, 0, 72, 105
2, 520948, Note_on_c, 0, 73, 0
2, 520951, Note_on_c, 0, 58, 0
2, 520982, Control_c, 0, 64, 127
2, 521034, Note_on_c, 0, 73, 90
2, 521066, Note_on_c, 0, 72, 0
2, 521128, Note_on_c, 0, 65, 105
2, 521154, Note_on_c, 0, 73, 0
2, 521224, Note_on_c, 0, 73, 96
2, 521242, Note_on_c, 0, 65, 0
2, 521242, Control_c, 0, 64, 0
2, 521326, Note_on_c, 0, 46, 119
2, 521328, Note_on_c, 0, 70, 109
2, 521350, Note_on_c, 0, 73, 0
2, 521404, Note_on_c, 0, 48, 94
2, 521422, Note_on_c, 0, 73, 95
2, 521440, Note_on_c, 0, 70, 0
2, 521464, Note_on_c, 0, 49, 104
2, 521470, Note_on_c, 0, 46, 0
2, 521490, Note_on_c, 0, 48, 0
2, 521512, Note_on_c, 0, 66, 97
2, 521538, Note_on_c, 0, 51, 108
2, 521548, Note_on_c, 0, 73, 0
2, 521556, Note_on_c, 0, 49, 0
2, 521624, Note_on_c, 0, 71, 87
2, 521627, Note_on_c, 0, 66, 0
2, 521720, Control_c, 0, 64, 127
2, 521722, Note_on_c, 0, 71, 0
2, 521724, Note_on_c, 0, 70, 96
2, 521740, Note_on_c, 0, 51, 0
2, 521804, Note_on_c, 0, 71, 88
2, 521850, Note_on_c, 0, 70, 0
2, 521896, Note_on_c, 0, 66, 103
2, 521914, Note_on_c, 0, 71, 0
2, 521984, Note_on_c, 0, 66, 0
2, 521987, Note_on_c, 0, 71, 93
2, 521996, Control_c, 0, 64, 0
2, 522072, Note_on_c, 0, 47, 95
2, 522092, Note_on_c, 0, 70, 108
2, 522095, Note_on_c, 0, 71, 0
2, 522146, Note_on_c, 0, 49, 109
2, 522172, Note_on_c, 0, 71, 86
2, 522208, Note_on_c, 0, 47, 0
2, 522218, Note_on_c, 0, 51, 109
2, 522228, Note_on_c, 0, 70, 0
2, 522274, Note_on_c, 0, 71, 0
2, 522276, Note_on_c, 0, 49, 0
2, 522278, Note_on_c, 0, 61, 108
2, 522298, Note_on_c, 0, 53, 115
2, 522364, Note_on_c, 0, 51, 0
2, 522384, Note_on_c, 0, 71, 69
2, 522426, Note_on_c, 0, 61, 0
2, 522476, Note_on_c, 0, 68, 94
2, 522486, Note_on_c, 0, 71, 0
2, 522530, Note_on_c, 0, 53, 0
2, 522564, Note_on_c, 0, 71, 90
2, 522566, Control_c, 0, 64, 127
2, 522586, Note_on_c, 0, 68, 0
2, 522668, Note_on_c, 0, 61, 106
2, 522690, Note_on_c, 0, 71, 0
2, 522766, Note_on_c, 0, 71, 90
2, 522768, Note_on_c, 0, 61, 0
2, 522796, Control_c, 0, 64, 0
2, 522868, Note_on_c, 0, 49, 106
2, 522868, Note_on_c, 0, 68, 96
2, 522882, Note_on_c, 0, 71, 0
2, 522920, Note_on_c, 0, 51, 105
2, 522960, Note_on_c, 0, 71, 87
2, 522980, Note_on_c, 0, 68, 0
2, 522980, Note_on_c, 0, 49, 0
2, 522994, Note_on_c, 0, 53, 112
2, 523038, Note_on_c, 0, 51, 0
2, 523068, Note_on_c, 0, 61, 105
2, 523074, Note_on_c, 0, 54, 111
2, 523106, Note_on_c, 0, 71, 0
2, 523126, Note_on_c, 0, 53, 0
2, 523198, Note_on_c, 0, 70, 104
2, 523236, Note_on_c, 0, 61, 0
2, 523292, Note_on_c, 0, 68, 97
2, 523298, Note_on_c, 0, 54, 0
2, 523302, Control_c, 0, 64, 127
2, 523320, Note_on_c, 0, 70, 0
2, 523390, Note_on_c, 0, 70, 102
2, 523418, Note_on_c, 0, 68, 0
2, 523480, Note_on_c, 0, 61, 103
2, 523518, Note_on_c, 0, 70, 0
2, 523548, Control_c, 0, 64, 0
2, 523580, Note_on_c, 0, 70, 108
2, 523598, Note_on_c, 0, 61, 0
2, 523648, Note_on_c, 0, 42, 105
2, 523674, Note_on_c, 0, 66, 88
2, 523704, Note_on_c, 0, 70, 0
2, 523734, Note_on_c, 0, 44, 109
2, 523762, Note_on_c, 0, 70, 111
2, 523790, Note_on_c, 0, 66, 0
2, 523794, Note_on_c, 0, 46, 121
2, 523824, Note_on_c, 0, 42, 0
2, 523824, Control_c, 0, 64, 127
2, 523870, Note_on_c, 0, 44, 0
2, 523870, Note_on_c, 0, 48, 124
2, 523870, Control_c, 0, 64, 0
2, 523873, Note_on_c, 0, 63, 101
2, 523882, Note_on_c, 0, 70, 0
2, 523944, Note_on_c, 0, 46, 0
2, 523990, Note_on_c, 0, 68, 89
2, 524030, Note_on_c, 0, 63, 0
2, 524084, Note_on_c, 0, 66, 89
2, 524094, Note_on_c, 0, 68, 0
2, 524162, Control_c, 0, 64, 127
2, 524164, Note_on_c, 0, 48, 0
2, 524172, Note_on_c, 0, 66, 0
2, 524192, Note_on_c, 0, 68, 78
2, 524254, Note_on_c, 0, 68, 0
2, 524278, Note_on_c, 0, 63, 85
2, 524380, Note_on_c, 0, 68, 79
2, 524394, Control_c, 0, 64, 0
2, 524396, Note_on_c, 0, 63, 0
2, 524466, Note_on_c, 0, 44, 104
2, 524469, Note_on_c, 0, 68, 0
2, 524474, Note_on_c, 0, 66, 87
2, 524520, Note_on_c, 0, 46, 118
2, 524556, Note_on_c, 0, 68, 80
2, 524602, Note_on_c, 0, 48, 113
2, 524604, Note_on_c, 0, 66, 0
2, 524622, Note_on_c, 0, 44, 0
2, 524658, Note_on_c, 0, 58, 118
2, 524674, Note_on_c, 0, 68, 0
2, 524678, Note_on_c, 0, 50, 121
2, 524682, Note_on_c, 0, 46, 0
2, 524742, Note_on_c, 0, 48, 0
2, 524752, Note_on_c, 0, 68, 79
2, 524774, Note_on_c, 0, 58, 0
2, 524866, Note_on_c, 0, 68, 0
2, 524874, Note_on_c, 0, 65, 92
2, 524900, Control_c, 0, 64, 127
2, 524902, Note_on_c, 0, 50, 0
2, 524954, Note_on_c, 0, 68, 77
2, 524962, Note_on_c, 0, 65, 0
2, 525038, Note_on_c, 0, 58, 116
2, 525064, Note_on_c, 0, 68, 0
2, 525136, Note_on_c, 0, 68, 90
2, 525154, Note_on_c, 0, 58, 0
2, 525176, Control_c, 0, 64, 0
2, 525198, Note_on_c, 0, 46, 123
2, 525246, Note_on_c, 0, 65, 96
2, 525254, Note_on_c, 0, 68, 0
2, 525268, Note_on_c, 0, 48, 112
2, 525330, Note_on_c, 0, 68, 82
2, 525342, Note_on_c, 0, 46, 0
2, 525348, Note_on_c, 0, 50, 118
2, 525368, Note_on_c, 0, 65, 0
2, 525412, Note_on_c, 0, 48, 0
2, 525444, Note_on_c, 0, 51, 115
2, 525446, Note_on_c, 0, 68, 0
2, 525450, Note_on_c, 0, 58, 112
2, 525504, Note_on_c, 0, 50, 0
2, 525576, Note_on_c, 0, 68, 77
2, 525694, Note_on_c, 0, 68, 0
2, 525694, Note_on_c, 0, 65, 85
2, 525700, Control_c, 0, 64, 127
2, 525734, Note_on_c, 0, 58, 0
2, 525766, Note_on_c, 0, 68, 78
2, 525770, Note_on_c, 0, 65, 0
2, 525886, Note_on_c, 0, 68, 0
2, 525888, Note_on_c, 0, 58, 101
2, 525914, Control_c, 0, 64, 0
2, 525980, Note_on_c, 0, 68, 71
2, 526096, Note_on_c, 0, 68, 0
2, 526100, Control_c, 0, 64, 127
2, 526108, Note_on_c, 0, 65, 90
2, 526168, Note_on_c, 0, 58, 0
2, 526182, Note_on_c, 0, 68, 74
2, 526190, Note_on_c, 0, 65, 0
2, 526274, Note_on_c, 0, 39, 118
2, 526302, Note_on_c, 0, 68, 0
2, 526314, Note_on_c, 0, 60, 83
2, 526398, Note_on_c, 0, 66, 74
2, 526456, Note_on_c, 0, 60, 0
2, 526459, Note_on_c, 0, 66, 0
2, 526490, Note_on_c, 0, 63, 82
2, 526574, Note_on_c, 0, 63, 0
2, 526608, Note_on_c, 0, 66, 89
2, 526622, Control_c, 0, 64, 0
2, 526664, Note_on_c, 0, 66, 0
2, 526706, Note_on_c, 0, 60, 85
2, 526816, Note_on_c, 0, 66, 73
2, 526836, Control_c, 0, 64, 127
2, 526838, Note_on_c, 0, 60, 0
2, 526902, Note_on_c, 0, 66, 0
2, 526924, Note_on_c, 0, 63, 75
2, 527000, Note_on_c, 0, 63, 0
2, 527028, Note_on_c, 0, 66, 69
2, 527102, Note_on_c, 0, 66, 0
2, 527122, Note_on_c, 0, 41, 116
2, 527130, Note_on_c, 0, 56, 101
2, 527194, Note_on_c, 0, 51, 0
2, 527242, Note_on_c, 0, 39, 0
2, 527250, Note_on_c, 0, 65, 87
2, 527316, Note_on_c, 0, 65, 0
2, 527354, Note_on_c, 0, 61, 71
2, 527382, Note_on_c, 0, 56, 0
2, 527426, Note_on_c, 0, 61, 0
2, 527440, Note_on_c, 0, 65, 62
2, 527534, Note_on_c, 0, 56, 90
2, 527537, Note_on_c, 0, 65, 0
2, 527620, Control_c, 0, 64, 0
2, 527638, Note_on_c, 0, 65, 73
2, 527714, Note_on_c, 0, 56, 0
2, 527744, Note_on_c, 0, 61, 83
2, 527752, Note_on_c, 0, 65, 0
2, 527758, Control_c, 0, 64, 127
2, 527832, Note_on_c, 0, 65, 97
2, 527856, Note_on_c, 0, 61, 0
2, 527922, Note_on_c, 0, 65, 0
2, 527940, Note_on_c, 0, 42, 111
2, 527945, Note_on_c, 0, 56, 89
2, 528018, Note_on_c, 0, 41, 0
2, 528080, Note_on_c, 0, 65, 77
2, 528142, Control_c, 0, 64, 0
2, 528172, Note_on_c, 0, 65, 0
2, 528178, Note_on_c, 0, 58, 95
2, 528230, Note_on_c, 0, 56, 0
2, 528262, Note_on_c, 0, 65, 85
2, 528308, Note_on_c, 0, 58, 0
2, 528358, Control_c, 0, 64, 127
2, 528358, Note_on_c, 0, 56, 77
2, 528384, Note_on_c, 0, 65, 0
2, 528464, Note_on_c, 0, 65, 88
2, 528474, Note_on_c, 0, 56, 0
2, 528538, Note_on_c, 0, 65, 0
2, 528566, Note_on_c, 0, 58, 85
2, 528636, Note_on_c, 0, 65, 74
2, 528676, Note_on_c, 0, 58, 0
2, 528752, Note_on_c, 0, 54, 90
2, 528768, Note_on_c, 0, 30, 124
2, 528820, Note_on_c, 0, 65, 0
2, 528868, Note_on_c, 0, 63, 77
2, 528956, Note_on_c, 0, 63, 0
2, 528974, Note_on_c, 0, 58, 93
2, 529008, Note_on_c, 0, 54, 0
2, 529054, Note_on_c, 0, 58, 0
2, 529062, Note_on_c, 0, 63, 66
2, 529162, Note_on_c, 0, 54, 86
2, 529168, Note_on_c, 0, 63, 0
2, 529218, Control_c, 0, 64, 0
2, 529246, Note_on_c, 0, 63, 78
2, 529346, Note_on_c, 0, 63, 0
2, 529370, Note_on_c, 0, 58, 89
2, 529388, Control_c, 0, 64, 127
2, 529450, Note_on_c, 0, 63, 73
2, 529460, Note_on_c, 0, 54, 0
2, 529480, Note_on_c, 0, 42, 0
2, 529488, Note_on_c, 0, 58, 0
2, 529524, Note_on_c, 0, 30, 0
2, 529570, Note_on_c, 0, 31, 127
2, 529584, Note_on_c, 0, 53, 70
2, 529632, Note_on_c, 0, 63, 0
2, 529694, Note_on_c, 0, 61, 83
2, 529780, Note_on_c, 0, 53, 0
2, 529802, Note_on_c, 0, 58, 97
2, 529822, Note_on_c, 0, 61, 0
2, 529900, Note_on_c, 0, 61, 81
2, 529948, Note_on_c, 0, 58, 0
2, 530016, Control_c, 0, 64, 0
2, 530018, Note_on_c, 0, 53, 92
2, 530026, Note_on_c, 0, 61, 0
2, 530126, Note_on_c, 0, 61, 70
2, 530184, Note_on_c, 0, 53, 0
2, 530202, Control_c, 0, 64, 127
2, 530240, Note_on_c, 0, 58, 101
2, 530246, Note_on_c, 0, 61, 0
2, 530332, Note_on_c, 0, 61, 71
2, 530374, Note_on_c, 0, 58, 0
2, 530476, Note_on_c, 0, 61, 0
2, 530490, Note_on_c, 0, 32, 117
2, 530498, Note_on_c, 0, 53, 82
2, 530542, Note_on_c, 0, 34, 34
2, 530572, Note_on_c, 0, 31, 0
2, 530596, Note_on_c, 0, 34, 0
2, 530630, Control_c, 0, 64, 0
2, 530652, Note_on_c, 0, 61, 80
2, 530778, Note_on_c, 0, 56, 79
2, 530796, Note_on_c, 0, 61, 0
2, 530860, Note_on_c, 0, 53, 0
2, 530862, Control_c, 0, 64, 127
2, 530874, Note_on_c, 0, 61, 78
2, 530916, Note_on_c, 0, 56, 0
2, 531002, Note_on_c, 0, 61, 0
2, 531024, Note_on_c, 0, 53, 85
2, 531088, Note_on_c, 0, 53, 0
2, 531118, Note_on_c, 0, 61, 50
2, 531232, Note_on_c, 0, 61, 0
2, 531235, Note_on_c, 0, 56, 75
2, 531318, Note_on_c, 0, 61, 69
2, 531348, Note_on_c, 0, 56, 0
2, 531444, Note_on_c, 0, 61, 0
2, 531448, Note_on_c, 0, 51, 92
2, 531522, Control_c, 0, 64, 0
2, 531572, Note_on_c, 0, 60, 86
2, 531646, Note_on_c, 0, 60, 0
2, 531682, Note_on_c, 0, 56, 74
2, 531692, Control_c, 0, 64, 127
2, 531714, Note_on_c, 0, 51, 0
2, 531750, Note_on_c, 0, 56, 0
2, 531762, Note_on_c, 0, 60, 67
2, 531860, Note_on_c, 0, 60, 0
2, 531868, Note_on_c, 0, 51, 83
2, 531944, Note_on_c, 0, 51, 0
2, 531964, Note_on_c, 0, 60, 65
2, 532036, Note_on_c, 0, 60, 0
2, 532068, Note_on_c, 0, 56, 75
2, 532136, Note_on_c, 0, 56, 0
2, 532154, Note_on_c, 0, 60, 62
2, 532266, Note_on_c, 0, 49, 90
2, 532286, Note_on_c, 0, 60, 0
2, 532352, Control_c, 0, 64, 0
2, 532386, Note_on_c, 0, 58, 96
2, 532476, Note_on_c, 0, 58, 0
2, 532492, Note_on_c, 0, 53, 75
2, 532510, Note_on_c, 0, 49, 0
2, 532538, Control_c, 0, 64, 127
2, 532582, Note_on_c, 0, 53, 0
2, 532584, Note_on_c, 0, 58, 79
2, 532692, Note_on_c, 0, 49, 85
2, 532706, Note_on_c, 0, 58, 0
2, 532790, Note_on_c, 0, 58, 81
2, 532826, Note_on_c, 0, 49, 0
2, 532908, Note_on_c, 0, 58, 0
2, 532921, Note_on_c, 0, 53, 67
2, 532934, Note_on_c, 0, 32, 0
2, 532996, Note_on_c, 0, 53, 0
2, 532996, Note_on_c, 0, 58, 79
2, 533108, Note_on_c, 0, 58, 0
2, 533128, Note_on_c, 0, 49, 80
2, 533162, Note_on_c, 0, 32, 93
2, 533172, Note_on_c, 0, 30, 72
2, 533204, Note_on_c, 0, 31, 75
2, 533260, Note_on_c, 0, 58, 64
2, 533274, Note_on_c, 0, 30, 0
2, 533290, Note_on_c, 0, 31, 0
2, 533372, Note_on_c, 0, 58, 0
2, 533400, Note_on_c, 0, 53, 62
2, 533458, Note_on_c, 0, 49, 0
2, 533464, Note_on_c, 0, 58, 73
2, 533492, Note_on_c, 0, 53, 0
2, 533504, Control_c, 0, 64, 0
2, 533574, Note_on_c, 0, 49, 64
2, 533598, Note_on_c, 0, 58, 0
2, 533670, Note_on_c, 0, 58, 87
2, 533704, Control_c, 0, 64, 127
2, 533806, Note_on_c, 0, 58, 0
2, 533816, Note_on_c, 0, 53, 57
2, 533860, Note_on_c, 0, 49, 0
2, 533874, Note_on_c, 0, 58, 101
2, 533922, Note_on_c, 0, 53, 0
2, 533982, Control_c, 0, 64, 0
2, 534016, Note_on_c, 0, 48, 95
2, 534100, Note_on_c, 0, 58, 0
2, 534126, Note_on_c, 0, 56, 79
2, 534190, Note_on_c, 0, 48, 0
2, 534210, Control_c, 0, 64, 127
2, 534222, Note_on_c, 0, 51, 85
2, 534250, Note_on_c, 0, 56, 0
2, 534328, Note_on_c, 0, 56, 86
2, 534357, Note_on_c, 0, 51, 0
2, 534446, Note_on_c, 0, 56, 0
2, 534449, Note_on_c, 0, 48, 80
2, 534532, Note_on_c, 0, 56, 65
2, 534596, Note_on_c, 0, 48, 0
2, 534652, Note_on_c, 0, 56, 0
2, 534652, Note_on_c, 0, 51, 79
2, 534736, Note_on_c, 0, 56, 70
2, 534792, Note_on_c, 0, 51, 0
2, 534868, Note_on_c, 0, 46, 108
2, 534888, Control_c, 0, 64, 0
2, 534934, Note_on_c, 0, 56, 0
2, 535004, Note_on_c, 0, 55, 79
2, 535058, Note_on_c, 0, 46, 0
2, 535072, Control_c, 0, 64, 127
2, 535118, Note_on_c, 0, 49, 83
2, 535126, Note_on_c, 0, 55, 0
2, 535198, Note_on_c, 0, 49, 0
2, 535218, Note_on_c, 0, 55, 70
2, 535328, Note_on_c, 0, 46, 108
2, 535332, Note_on_c, 0, 55, 0
2, 535450, Note_on_c, 0, 46, 0
2, 535452, Note_on_c, 0, 32, 0
2, 535452, Note_on_c, 0, 55, 58
2, 535586, Note_on_c, 0, 49, 87
2, 535591, Note_on_c, 0, 55, 0
2, 535706, Note_on_c, 0, 55, 57
2, 535748, Note_on_c, 0, 49, 0
2, 535882, Note_on_c, 0, 55, 0
2, 535898, Note_on_c, 0, 48, 92
2, 535898, Note_on_c, 0, 32, 104
2, 536104, Control_c, 0, 64, 0
2, 536230, Note_on_c, 0, 56, 86
2, 536510, Note_on_c, 0, 51, 78
2, 536532, Control_c, 0, 64, 127
2, 536564, Note_on_c, 0, 48, 0
2, 536584, Note_on_c, 0, 56, 0
2, 536738, Note_on_c, 0, 48, 93
2, 536780, Note_on_c, 0, 51, 0
2, 536886, Note_on_c, 0, 48, 0
2, 536944, Note_on_c, 0, 44, 83
2, 537152, Note_on_c, 0, 44, 0
2, 537152, Note_on_c, 0, 51, 93
2, 537210, Note_on_c, 0, 32, 0
2, 537348, Note_on_c, 0, 51, 0
2, 537366, Note_on_c, 0, 48, 92
2, 537528, Note_on_c, 0, 48, 0
2, 537558, Note_on_c, 0, 44, 86
2, 537674, Note_on_c, 0, 44, 0
2, 537750, Note_on_c, 0, 39, 87
2, 537960, Note_on_c, 0, 48, 104
2, 538130, Control_c, 0, 64, 0
2, 538180, Note_on_c, 0, 44, 94
2, 538206, Note_on_c, 0, 39, 0
2, 538344, Control_c, 0, 64, 127
2, 538396, Note_on_c, 0, 39, 103
2, 538410, Note_on_c, 0, 48, 0
2, 538452, Note_on_c, 0, 44, 0
2, 538658, Note_on_c, 0, 36, 104
2, 538712, Control_c, 0, 64, 0
2, 538714, Note_on_c, 0, 39, 0
2, 538900, Note_on_c, 0, 44, 90
2, 538960, Control_c, 0, 64, 127
2, 539058, Note_on_c, 0, 36, 0
2, 539124, Note_on_c, 0, 39, 90
2, 539194, Note_on_c, 0, 44, 0
2, 539328, Note_on_c, 0, 48, 101
2, 539458, Note_on_c, 0, 39, 0
2, 539516, Note_on_c, 0, 48, 0
2, 539524, Note_on_c, 0, 44, 89
2, 539712, Note_on_c, 0, 44, 0
2, 539744, Note_on_c, 0, 51, 98
2, 539938, Note_on_c, 0, 51, 0
2, 539941, Note_on_c, 0, 48, 109
2, 540034, Control_c, 0, 64, 0
2, 540132, Note_on_c, 0, 56, 96
2, 540190, Note_on_c, 0, 48, 0
2, 540218, Control_c, 0, 64, 127
2, 540340, Note_on_c, 0, 51, 96
2, 540356, Control_c, 0, 64, 0
2, 540444, Note_on_c, 0, 56, 0
2, 540512, Control_c, 0, 64, 127
2, 540548, Note_on_c, 0, 60, 96
2, 540634, Note_on_c, 0, 51, 0
2, 540742, Control_c, 0, 64, 0
2, 540742, Note_on_c, 0, 56, 96
2, 540790, Note_on_c, 0, 60, 0
2, 540878, Control_c, 0, 64, 127
2, 540942, Note_on_c, 0, 63, 103
2, 540964, Note_on_c, 0, 56, 0
2, 541000, Note_on_c, 0, 63, 0
2, 541128, Note_on_c, 0, 60, 115
2, 541320, Note_on_c, 0, 68, 106
2, 541436, Note_on_c, 0, 60, 0
2, 541494, Control_c, 0, 64, 0
2, 541512, Note_on_c, 0, 63, 103
2, 541616, Control_c, 0, 64, 127
2, 541626, Note_on_c, 0, 68, 0
2, 541684, Note_on_c, 0, 63, 0
2, 541710, Note_on_c, 0, 72, 118
2, 541758, Note_on_c, 0, 72, 0
2, 541904, Note_on_c, 0, 68, 115
2, 542062, Control_c, 0, 64, 0
2, 542102, Note_on_c, 0, 75, 112
2, 542120, Note_on_c, 0, 68, 0
2, 542124, Control_c, 0, 64, 127
2, 542298, Note_on_c, 0, 72, 123
2, 542308, Control_c, 0, 64, 0
2, 542372, Note_on_c, 0, 75, 0
2, 542462, Control_c, 0, 64, 127
2, 542490, Note_on_c, 0, 80, 115
2, 542590, Note_on_c, 0, 72, 0
2, 542690, Note_on_c, 0, 75, 113
2, 542708, Control_c, 0, 64, 0
2, 542782, Note_on_c, 0, 80, 0
2, 542892, Note_on_c, 0, 75, 0
2, 542892, Control_c, 0, 64, 127
2, 542914, Note_on_c, 0, 84, 124
2, 542982, Note_on_c, 0, 84, 0
2, 543142, Note_on_c, 0, 80, 115
2, 543398, Note_on_c, 0, 87, 117
2, 543450, Note_on_c, 0, 80, 0
2, 543644, Note_on_c, 0, 87, 0
2, 543758, Note_on_c, 0, 61, 83
2, 543760, Note_on_c, 0, 88, 123
2, 543768, Note_on_c, 0, 58, 90
2, 543776, Note_on_c, 0, 55, 75
2, 544030, Control_c, 0, 64, 0
2, 544660, Control_c, 0, 64, 127
2, 545000, Note_on_c, 0, 88, 0
2, 545058, Note_on_c, 0, 61, 0
2, 545142, Note_on_c, 0, 58, 0
2, 545160, Note_on_c, 0, 82, 119
2, 545186, Note_on_c, 0, 55, 0
2, 545448, Note_on_c, 0, 85, 115
2, 545474, Control_c, 0, 64, 0
2, 545522, Note_on_c, 0, 82, 0
2, 545596, Control_c, 0, 64, 127
2, 545654, Note_on_c, 0, 85, 0
2, 545680, Note_on_c, 0, 79, 112
2, 545898, Note_on_c, 0, 82, 126
2, 545908, Note_on_c, 0, 79, 0
2, 545998, Note_on_c, 0, 82, 0
2, 546088, Note_on_c, 0, 76, 118
2, 546270, Note_on_c, 0, 76, 0
2, 546288, Note_on_c, 0, 79, 116
2, 546380, Note_on_c, 0, 79, 0
2, 546478, Note_on_c, 0, 73, 111
2, 546580, Control_c, 0, 64, 0
2, 546680, Note_on_c, 0, 76, 124
2, 546718, Control_c, 0, 64, 127
2, 546720, Note_on_c, 0, 73, 0
2, 546788, Note_on_c, 0, 76, 0
2, 546866, Note_on_c, 0, 70, 119
2, 546918, Control_c, 0, 64, 0
2, 547062, Note_on_c, 0, 73, 111
2, 547088, Control_c, 0, 64, 127
2, 547112, Note_on_c, 0, 70, 0
2, 547214, Note_on_c, 0, 73, 0
2, 547252, Note_on_c, 0, 67, 118
2, 547482, Note_on_c, 0, 70, 120
2, 547494, Note_on_c, 0, 67, 0
2, 547688, Note_on_c, 0, 70, 0
2, 547840, Control_c, 0, 64, 0
2, 547870, Note_on_c, 0, 73, 113
2, 547876, Note_on_c, 0, 64, 116
2, 547876, Note_on_c, 0, 55, 118
2, 547876, Note_on_c, 0, 70, 116
2, 547882, Note_on_c, 0, 43, 110
2, 548048, Note_on_c, 0, 55, 0
2, 548050, Note_on_c, 0, 43, 0
2, 548054, Control_c, 0, 64, 127
2, 548076, Note_on_c, 0, 64, 0
2, 548086, Note_on_c, 0, 73, 0
2, 548102, Note_on_c, 0, 70, 0
2, 548192, Control_c, 0, 64, 0
2, 548264, Note_on_c, 0, 73, 117
2, 548264, Note_on_c, 0, 55, 111
2, 548268, Note_on_c, 0, 70, 116
2, 548270, Note_on_c, 0, 43, 105
2, 548272, Note_on_c, 0, 64, 116
2, 548414, Note_on_c, 0, 43, 0
2, 548414, Note_on_c, 0, 55, 0
2, 548424, Control_c, 0, 64, 127
2, 548442, Note_on_c, 0, 64, 0
2, 548480, Note_on_c, 0, 73, 0
2, 548504, Note_on_c, 0, 70, 0
2, 548576, Control_c, 0, 64, 0
2, 548664, Note_on_c, 0, 73, 115
2, 548667, Note_on_c, 0, 70, 113
2, 548667, Note_on_c, 0, 65, 115
2, 548678, Note_on_c, 0, 53, 111
2, 548684, Note_on_c, 0, 41, 105
2, 548812, Note_on_c, 0, 53, 0
2, 548824, Control_c, 0, 64, 127
2, 548842, Note_on_c, 0, 41, 0
2, 548888, Note_on_c, 0, 70, 0
2, 548892, Note_on_c, 0, 65, 0
2, 548912, Note_on_c, 0, 73, 0
2, 549022, Control_c, 0, 64, 0
2, 549126, Note_on_c, 0, 67, 115
2, 549126, Note_on_c, 0, 70, 111
2, 549129, Note_on_c, 0, 72, 123
2, 549142, Note_on_c, 0, 52, 112
2, 549146, Note_on_c, 0, 40, 111
2, 549406, Control_c, 0, 64, 127
2, 549440, Note_on_c, 0, 40, 0
2, 549445, Note_on_c, 0, 52, 0
2, 549492, Note_on_c, 0, 67, 0
2, 549538, Note_on_c, 0, 72, 0
2, 549566, Note_on_c, 0, 70, 0
2, 549930, Control_c, 0, 64, 0
2, 550016, Note_on_c, 0, 48, 98
2, 550190, Control_c, 0, 64, 127
2, 550214, Note_on_c, 0, 55, 100
2, 550224, Note_on_c, 0, 48, 0
2, 550296, Note_on_c, 0, 55, 0
2, 550400, Note_on_c, 0, 52, 117
2, 550422, Control_c, 0, 64, 0
2, 550566, Note_on_c, 0, 52, 0
2, 550584, Note_on_c, 0, 58, 124
2, 550606, Control_c, 0, 64, 127
2, 550720, Note_on_c, 0, 58, 0
2, 550768, Note_on_c, 0, 55, 111
2, 550790, Control_c, 0, 64, 0
2, 550932, Note_on_c, 0, 55, 0
2, 550940, Note_on_c, 0, 61, 111
2, 551004, Control_c, 0, 64, 127
2, 551120, Note_on_c, 0, 58, 123
2, 551168, Note_on_c, 0, 61, 0
2, 551174, Control_c, 0, 64, 0
2, 551314, Note_on_c, 0, 64, 120
2, 551320, Note_on_c, 0, 58, 0
2, 551388, Control_c, 0, 64, 127
2, 551490, Note_on_c, 0, 61, 112
2, 551514, Note_on_c, 0, 64, 0
2, 551528, Control_c, 0, 64, 0
2, 551674, Note_on_c, 0, 67, 120
2, 551696, Control_c, 0, 64, 127
2, 551760, Note_on_c, 0, 61, 0
2, 551848, Note_on_c, 0, 64, 120
2, 551868, Note_on_c, 0, 67, 0
2, 551988, Control_c, 0, 64, 0
2, 552080, Note_on_c, 0, 70, 127
2, 552142, Note_on_c, 0, 64, 0
2, 552172, Control_c, 0, 64, 127
2, 552190, Note_on_c, 0, 70, 0
2, 552388, Control_c, 0, 64, 0
2, 552406, Note_on_c, 0, 58, 121
2, 552408, Note_on_c, 0, 73, 110
2, 552410, Note_on_c, 0, 76, 127
2, 552412, Note_on_c, 0, 46, 120
2, 552412, Note_on_c, 0, 67, 121
2, 552536, Note_on_c, 0, 58, 0
2, 552562, Note_on_c, 0, 46, 0
2, 552572, Control_c, 0, 64, 127
2, 552578, Note_on_c, 0, 73, 0
2, 552582, Note_on_c, 0, 67, 0
2, 552630, Note_on_c, 0, 76, 0
2, 552742, Control_c, 0, 64, 0
2, 552802, Note_on_c, 0, 77, 126
2, 552804, Note_on_c, 0, 68, 111
2, 552804, Note_on_c, 0, 56, 108
2, 552814, Note_on_c, 0, 44, 98
2, 552820, Note_on_c, 0, 72, 116
2, 552938, Note_on_c, 0, 56, 0
2, 552956, Control_c, 0, 64, 127
2, 552970, Note_on_c, 0, 44, 0
2, 552982, Note_on_c, 0, 72, 0
2, 552990, Note_on_c, 0, 77, 0
2, 552996, Note_on_c, 0, 68, 0
2, 553124, Control_c, 0, 64, 0
2, 553188, Note_on_c, 0, 79, 121
2, 553190, Note_on_c, 0, 70, 120
2, 553198, Note_on_c, 0, 76, 120
2, 553200, Note_on_c, 0, 55, 112
2, 553204, Note_on_c, 0, 43, 104
2, 553306, Note_on_c, 0, 55, 0
2, 553362, Note_on_c, 0, 43, 0
2, 553372, Control_c, 0, 64, 127
2, 553414, Note_on_c, 0, 76, 0
2, 553432, Note_on_c, 0, 70, 0
2, 553436, Note_on_c, 0, 79, 0
2, 553586, Control_c, 0, 64, 0
2, 553656, Note_on_c, 0, 80, 123
2, 553659, Note_on_c, 0, 72, 123
2, 553659, Note_on_c, 0, 53, 109
2, 553663, Note_on_c, 0, 41, 106
2, 553663, Note_on_c, 0, 77, 118
2, 553924, Control_c, 0, 64, 127
2, 553938, Note_on_c, 0, 53, 0
2, 554010, Note_on_c, 0, 41, 0
2, 554018, Note_on_c, 0, 80, 0
2, 554024, Note_on_c, 0, 77, 0
2, 554062, Note_on_c, 0, 72, 0
2, 554478, Control_c, 0, 64, 0
2, 554706, Note_on_c, 0, 56, 59
2, 554954, Control_c, 0, 64, 127
2, 554956, Note_on_c, 0, 65, 73
2, 554984, Note_on_c, 0, 56, 0
2, 555108, Note_on_c, 0, 65, 0
2, 555154, Control_c, 0, 64, 0
2, 555172, Note_on_c, 0, 60, 80
2, 555314, Note_on_c, 0, 60, 0
2, 555338, Control_c, 0, 64, 127
2, 555350, Note_on_c, 0, 68, 94
2, 555428, Note_on_c, 0, 68, 0
2, 555540, Note_on_c, 0, 65, 112
2, 555569, Control_c, 0, 64, 0
2, 555722, Note_on_c, 0, 72, 120
2, 555750, Note_on_c, 0, 65, 0
2, 555752, Control_c, 0, 64, 127
2, 555860, Control_c, 0, 64, 0
2, 555892, Note_on_c, 0, 72, 0
2, 555892, Note_on_c, 0, 68, 118
2, 556044, Control_c, 0, 64, 127
2, 556064, Note_on_c, 0, 68, 0
2, 556074, Note_on_c, 0, 77, 127
2, 556150, Note_on_c, 0, 77, 0
2, 556198, Control_c, 0, 64, 0
2, 556258, Note_on_c, 0, 72, 127
2, 556366, Control_c, 0, 64, 127
2, 556426, Note_on_c, 0, 80, 121
2, 556446, Note_on_c, 0, 72, 0
2, 556506, Control_c, 0, 64, 0
2, 556604, Note_on_c, 0, 77, 127
2, 556658, Note_on_c, 0, 80, 0
2, 556860, Note_on_c, 0, 84, 123
2, 556874, Note_on_c, 0, 77, 0
2, 556978, Note_on_c, 0, 84, 0
2, 556981, Control_c, 0, 64, 127
2, 557320, Note_on_c, 0, 72, 121
2, 557322, Note_on_c, 0, 53, 106
2, 557324, Note_on_c, 0, 68, 101
2, 557326, Note_on_c, 0, 65, 111
2, 557328, Note_on_c, 0, 41, 96
2, 557510, Note_on_c, 0, 65, 0
2, 557532, Note_on_c, 0, 53, 0
2, 557552, Note_on_c, 0, 72, 0
2, 557558, Note_on_c, 0, 41, 0
2, 557566, Note_on_c, 0, 68, 0
2, 557704, Control_c, 0, 64, 0
2, 557740, Note_on_c, 0, 72, 126
2, 557750, Note_on_c, 0, 65, 111
2, 557750, Note_on_c, 0, 68, 105
2, 557750, Note_on_c, 0, 53, 115
2, 557758, Note_on_c, 0, 41, 108
2, 557904, Control_c, 0, 64, 127
2, 557956, Note_on_c, 0, 53, 0
2, 557956, Note_on_c, 0, 65, 0
2, 557966, Note_on_c, 0, 72, 0
2, 557976, Note_on_c, 0, 41, 0
2, 558044, Note_on_c, 0, 68, 0
2, 558104, Control_c, 0, 64, 0
2, 558160, Note_on_c, 0, 72, 125
2, 558160, Note_on_c, 0, 51, 113
2, 558163, Note_on_c, 0, 67, 119
2, 558166, Note_on_c, 0, 39, 111
2, 558364, Control_c, 0, 64, 127
2, 558374, Note_on_c, 0, 51, 0
2, 558396, Note_on_c, 0, 39, 0
2, 558406, Note_on_c, 0, 67, 0
2, 558418, Note_on_c, 0, 72, 0
2, 558642, Control_c, 0, 64, 0
2, 558724, Note_on_c, 0, 50, 117
2, 558724, Note_on_c, 0, 72, 124
2, 558724, Note_on_c, 0, 66, 109
2, 558727, Note_on_c, 0, 38, 116
2, 558732, Note_on_c, 0, 69, 116
2, 559086, Control_c, 0, 64, 127
2, 559160, Note_on_c, 0, 38, 0
2, 559194, Note_on_c, 0, 66, 0
2, 559270, Note_on_c, 0, 50, 0
2, 559290, Note_on_c, 0, 69, 0
2, 559376, Note_on_c, 0, 72, 0
2, 559736, Note_on_c, 0, 69, 105
2, 559764, Control_c, 0, 64, 0
2, 559964, Note_on_c, 0, 69, 0
2, 559972, Note_on_c, 0, 72, 108
2, 560024, Control_c, 0, 64, 127
2, 560152, Note_on_c, 0, 72, 0
2, 560178, Control_c, 0, 64, 0
2, 560180, Note_on_c, 0, 66, 96
2, 560370, Note_on_c, 0, 66, 0
2, 560392, Control_c, 0, 64, 127
2, 560420, Note_on_c, 0, 69, 81
2, 560469, Control_c, 0, 64, 0
2, 560554, Note_on_c, 0, 69, 0
2, 560586, Note_on_c, 0, 63, 72
2, 560638, Control_c, 0, 64, 127
2, 560762, Control_c, 0, 64, 0
2, 560770, Note_on_c, 0, 63, 0
2, 560773, Note_on_c, 0, 66, 87
2, 560946, Control_c, 0, 64, 127
2, 560960, Note_on_c, 0, 60, 92
2, 560964, Note_on_c, 0, 66, 0
2, 561084, Control_c, 0, 64, 0
2, 561142, Note_on_c, 0, 63, 97
2, 561166, Note_on_c, 0, 60, 0
2, 561268, Control_c, 0, 64, 127
2, 561326, Note_on_c, 0, 57, 111
2, 561362, Note_on_c, 0, 63, 0
2, 561444, Note_on_c, 0, 57, 0
2, 561508, Note_on_c, 0, 60, 112
2, 561640, Note_on_c, 0, 60, 0
2, 561662, Note_on_c, 0, 54, 93
2, 561852, Control_c, 0, 64, 0
2, 561884, Note_on_c, 0, 54, 0
2, 561892, Note_on_c, 0, 57, 120
2, 562052, Control_c, 0, 64, 127
2, 562054, Note_on_c, 0, 57, 0
2, 562190, Control_c, 0, 64, 0
2, 562252, Note_on_c, 0, 78, 118
2, 562258, Note_on_c, 0, 75, 108
2, 562258, Note_on_c, 0, 69, 120
2, 562258, Note_on_c, 0, 60, 111
2, 562261, Note_on_c, 0, 48, 110
2, 562420, Control_c, 0, 64, 127
2, 562422, Note_on_c, 0, 60, 0
2, 562422, Note_on_c, 0, 69, 0
2, 562432, Note_on_c, 0, 48, 0
2, 562432, Note_on_c, 0, 75, 0
2, 562480, Note_on_c, 0, 78, 0
2, 562560, Control_c, 0, 64, 0
2, 562612, Note_on_c, 0, 79, 123
2, 562617, Note_on_c, 0, 70, 116
2, 562620, Note_on_c, 0, 58, 121
2, 562626, Note_on_c, 0, 74, 106
2, 562626, Note_on_c, 0, 46, 119
2, 562764, Note_on_c, 0, 58, 0
2, 562774, Control_c, 0, 64, 127
2, 562790, Note_on_c, 0, 46, 0
2, 562798, Note_on_c, 0, 74, 0
2, 562812, Note_on_c, 0, 70, 0
2, 562840, Note_on_c, 0, 79, 0
2, 562928, Control_c, 0, 64, 0
2, 562996, Note_on_c, 0, 81, 126
2, 563006, Note_on_c, 0, 72, 120
2, 563008, Note_on_c, 0, 57, 119
2, 563010, Note_on_c, 0, 78, 104
2, 563013, Note_on_c, 0, 45, 116
2, 563134, Note_on_c, 0, 57, 0
2, 563174, Control_c, 0, 64, 127
2, 563198, Note_on_c, 0, 78, 0
2, 563202, Note_on_c, 0, 45, 0
2, 563202, Note_on_c, 0, 72, 0
2, 563218, Note_on_c, 0, 81, 0
2, 563344, Control_c, 0, 64, 0
2, 563458, Note_on_c, 0, 82, 127
2, 563460, Note_on_c, 0, 74, 117
2, 563466, Note_on_c, 0, 79, 112
2, 563468, Note_on_c, 0, 43, 108
2, 563468, Note_on_c, 0, 55, 109
2, 563710, Note_on_c, 0, 55, 0
2, 563728, Control_c, 0, 64, 127
2, 563802, Note_on_c, 0, 43, 0
2, 563864, Note_on_c, 0, 79, 0
2, 563894, Note_on_c, 0, 82, 0
2, 563980, Note_on_c, 0, 74, 0
2, 564372, Control_c, 0, 64, 0
2, 564388, Note_on_c, 0, 62, 97
2, 564612, Note_on_c, 0, 62, 0
2, 564617, Control_c, 0, 64, 127
2, 564636, Note_on_c, 0, 70, 110
2, 564700, Note_on_c, 0, 70, 0
2, 564828, Note_on_c, 0, 67, 108
2, 564894, Control_c, 0, 64, 0
2, 565010, Note_on_c, 0, 74, 113
2, 565038, Note_on_c, 0, 67, 0
2, 565126, Control_c, 0, 64, 127
2, 565156, Note_on_c, 0, 74, 0
2, 565180, Note_on_c, 0, 70, 118
2, 565218, Control_c, 0, 64, 0
2, 565350, Note_on_c, 0, 70, 0
2, 565372, Note_on_c, 0, 79, 115
2, 565402, Control_c, 0, 64, 127
2, 565448, Control_c, 0, 64, 0
2, 565538, Note_on_c, 0, 79, 0
2, 565550, Note_on_c, 0, 74, 112
2, 565602, Control_c, 0, 64, 127
2, 565798, Note_on_c, 0, 82, 112
2, 565810, Note_on_c, 0, 74, 0
2, 565832, Control_c, 0, 64, 0
2, 566268, Note_on_c, 0, 58, 59
2, 566270, Note_on_c, 0, 62, 44
2, 566282, Note_on_c, 0, 55, 48
2, 566370, Control_c, 0, 64, 127
2, 566468, Note_on_c, 0, 62, 0
2, 566480, Note_on_c, 0, 55, 0
2, 566486, Note_on_c, 0, 82, 0
2, 566492, Note_on_c, 0, 58, 0
2, 566780, Note_on_c, 0, 62, 47
2, 566790, Note_on_c, 0, 58, 50
2, 566818, Note_on_c, 0, 55, 40
2, 566846, Control_c, 0, 64, 0
2, 567000, Note_on_c, 0, 67, 80
2, 567016, Control_c, 0, 64, 127
2, 567062, Control_c, 0, 64, 0
2, 567204, Note_on_c, 0, 74, 98
2, 567216, Note_on_c, 0, 67, 0
2, 567218, Note_on_c, 0, 58, 0
2, 567246, Control_c, 0, 64, 127
2, 567290, Note_on_c, 0, 62, 0
2, 567346, Note_on_c, 0, 74, 0
2, 567362, Note_on_c, 0, 55, 0
2, 567374, Note_on_c, 0, 70, 111
2, 567528, Note_on_c, 0, 70, 0
2, 567538, Control_c, 0, 64, 0
2, 567568, Note_on_c, 0, 79, 111
2, 567682, Note_on_c, 0, 79, 0
2, 567706, Control_c, 0, 64, 127
2, 567750, Note_on_c, 0, 74, 100
2, 567860, Control_c, 0, 64, 0
2, 567898, Note_on_c, 0, 74, 0
2, 567926, Note_on_c, 0, 82, 115
2, 568060, Control_c, 0, 64, 127
2, 568122, Control_c, 0, 64, 0
2, 568138, Note_on_c, 0, 79, 104
2, 568156, Note_on_c, 0, 82, 0
2, 568290, Control_c, 0, 64, 127
2, 568432, Note_on_c, 0, 86, 85
2, 568472, Note_on_c, 0, 79, 0
2, 568475, Control_c, 0, 64, 0
2, 568884, Note_on_c, 0, 65, 47
2, 568889, Control_c, 0, 64, 127
2, 568892, Note_on_c, 0, 59, 35
2, 568900, Note_on_c, 0, 55, 33
2, 569096, Note_on_c, 0, 55, 0
2, 569096, Note_on_c, 0, 59, 0
2, 569112, Note_on_c, 0, 65, 0
2, 569328, Note_on_c, 0, 86, 0
2, 569400, Note_on_c, 0, 65, 48
2, 569418, Note_on_c, 0, 59, 33
2, 569428, Note_on_c, 0, 55, 44
2, 569602, Note_on_c, 0, 86, 105
2, 569642, Control_c, 0, 64, 0
2, 569886, Note_on_c, 0, 89, 106
2, 569888, Control_c, 0, 64, 127
2, 569900, Note_on_c, 0, 86, 0
2, 569990, Note_on_c, 0, 65, 0
2, 570018, Note_on_c, 0, 59, 0
2, 570084, Note_on_c, 0, 89, 0
2, 570160, Note_on_c, 0, 83, 96
2, 570166, Note_on_c, 0, 55, 0
2, 570364, Control_c, 0, 64, 0
2, 570394, Note_on_c, 0, 86, 105
2, 570399, Note_on_c, 0, 83, 0
2, 570518, Control_c, 0, 64, 127
2, 570526, Note_on_c, 0, 86, 0
2, 570600, Note_on_c, 0, 80, 95
2, 570796, Control_c, 0, 64, 0
2, 570799, Note_on_c, 0, 80, 0
2, 570808, Note_on_c, 0, 83, 92
2, 570932, Note_on_c, 0, 83, 0
2, 570948, Control_c, 0, 64, 127
2, 571004, Note_on_c, 0, 77, 105
2, 571056, Control_c, 0, 64, 0
2, 571200, Note_on_c, 0, 77, 0
2, 571210, Control_c, 0, 64, 127
2, 571220, Note_on_c, 0, 80, 104
2, 571328, Note_on_c, 0, 80, 0
2, 571420, Note_on_c, 0, 74, 106
2, 571588, Note_on_c, 0, 74, 0
2, 571618, Note_on_c, 0, 77, 116
2, 571704, Note_on_c, 0, 77, 0
2, 571810, Note_on_c, 0, 71, 98
2, 571870, Control_c, 0, 64, 0
2, 571994, Control_c, 0, 64, 127
2, 572008, Note_on_c, 0, 74, 116
2, 572012, Note_on_c, 0, 71, 0
2, 572102, Note_on_c, 0, 74, 0
2, 572212, Note_on_c, 0, 68, 103
2, 572284, Control_c, 0, 64, 0
2, 572408, Control_c, 0, 64, 127
2, 572418, Note_on_c, 0, 71, 97
2, 572440, Note_on_c, 0, 68, 0
2, 572516, Control_c, 0, 64, 0
2, 572588, Note_on_c, 0, 71, 0
2, 572626, Note_on_c, 0, 65, 110
2, 572700, Control_c, 0, 64, 127
2, 572876, Note_on_c, 0, 65, 0
2, 572916, Control_c, 0, 64, 0
2, 572916, Note_on_c, 0, 68, 105
2, 573092, Note_on_c, 0, 68, 0
2, 573100, Control_c, 0, 64, 127
2, 573364, Note_on_c, 0, 56, 103
2, 573374, Note_on_c, 0, 48, 97
2, 573380, Note_on_c, 0, 36, 89
2, 573380, Note_on_c, 0, 50, 77
2, 573394, Note_on_c, 0, 53, 64
2, 573468, Control_c, 0, 64, 0
2, 573618, Note_on_c, 0, 48, 0
2, 573622, Control_c, 0, 64, 127
2, 573632, Note_on_c, 0, 50, 0
2, 573634, Note_on_c, 0, 36, 0
2, 573640, Note_on_c, 0, 53, 0
2, 573684, Note_on_c, 0, 56, 0
2, 573970, Note_on_c, 0, 56, 97
2, 573980, Note_on_c, 0, 50, 82
2, 573990, Note_on_c, 0, 47, 67
2, 573990, Note_on_c, 0, 53, 77
2, 574000, Note_on_c, 0, 35, 55
2, 574084, Control_c, 0, 64, 0
2, 575110, Note_on_c, 0, 55, 90
2, 575176, Note_on_c, 0, 56, 0
2, 575370, Note_on_c, 0, 47, 0
2, 575392, Note_on_c, 0, 53, 0
2, 575400, Note_on_c, 0, 50, 0
2, 575408, Note_on_c, 0, 35, 0
2, 575420, Control_c, 0, 64, 127
2, 575422, Note_on_c, 0, 55, 0
2, 575558, Control_c, 0, 64, 0
2, 575562, Note_on_c, 0, 44, 77
2, 575568, Note_on_c, 0, 60, 94
2, 575571, Note_on_c, 0, 32, 71
2, 575576, Note_on_c, 0, 50, 94
2, 575578, Note_on_c, 0, 53, 74
2, 575758, Control_c, 0, 64, 127
2, 575770, Note_on_c, 0, 44, 0
2, 575788, Note_on_c, 0, 50, 0
2, 575794, Note_on_c, 0, 32, 0
2, 575798, Note_on_c, 0, 53, 0
2, 575814, Note_on_c, 0, 60, 0
2, 575896, Control_c, 0, 64, 0
2, 575978, Note_on_c, 0, 60, 104
2, 575984, Note_on_c, 0, 50, 87
2, 575990, Note_on_c, 0, 53, 79
2, 575992, Note_on_c, 0, 44, 77
2, 576002, Note_on_c, 0, 32, 74
2, 576126, Control_c, 0, 64, 127
2, 576136, Note_on_c, 0, 44, 0
2, 576148, Note_on_c, 0, 32, 0
2, 576174, Note_on_c, 0, 50, 0
2, 576192, Note_on_c, 0, 60, 0
2, 576198, Note_on_c, 0, 53, 0
2, 576326, Control_c, 0, 64, 0
2, 576386, Note_on_c, 0, 60, 95
2, 576392, Note_on_c, 0, 53, 85
2, 576394, Note_on_c, 0, 50, 92
2, 576402, Note_on_c, 0, 44, 79
2, 576406, Note_on_c, 0, 32, 79
2, 576572, Control_c, 0, 64, 127
2, 576600, Note_on_c, 0, 50, 0
2, 576606, Note_on_c, 0, 60, 0
2, 576628, Note_on_c, 0, 32, 0
2, 576630, Note_on_c, 0, 53, 0
2, 576650, Note_on_c, 0, 44, 0
2, 576894, Note_on_c, 0, 60, 103
2, 576894, Note_on_c, 0, 50, 87
2, 576897, Note_on_c, 0, 53, 83
2, 576906, Note_on_c, 0, 31, 80
2, 576910, Control_c, 0, 64, 0
2, 576912, Note_on_c, 0, 43, 67
2, 578088, Note_on_c, 0, 59, 71
2, 578142, Note_on_c, 0, 60, 0
2, 578262, Note_on_c, 0, 31, 0
2, 578292, Note_on_c, 0, 50, 0
2, 578308, Note_on_c, 0, 43, 0
2, 578308, Control_c, 0, 64, 127
2, 578320, Note_on_c, 0, 53, 0
2, 578350, Note_on_c, 0, 59, 0
2, 578530, Note_on_c, 0, 36, 60
2, 578533, Note_on_c, 0, 63, 93
2, 578537, Note_on_c, 0, 48, 42
2, 578540, Control_c, 0, 64, 0
2, 578542, Note_on_c, 0, 54, 69
2, 578738, Control_c, 0, 64, 127
2, 578776, Note_on_c, 0, 63, 0
2, 578782, Note_on_c, 0, 36, 0
2, 578784, Note_on_c, 0, 54, 0
2, 578790, Note_on_c, 0, 48, 0
2, 578892, Control_c, 0, 64, 0
2, 578952, Note_on_c, 0, 54, 82
2, 578954, Note_on_c, 0, 63, 95
2, 578968, Note_on_c, 0, 48, 80
2, 578976, Note_on_c, 0, 36, 63
2, 579122, Control_c, 0, 64, 127
2, 579180, Note_on_c, 0, 48, 0
2, 579180, Note_on_c, 0, 54, 0
2, 579188, Note_on_c, 0, 36, 0
2, 579206, Note_on_c, 0, 63, 0
2, 579338, Control_c, 0, 64, 0
2, 579382, Note_on_c, 0, 63, 101
2, 579384, Note_on_c, 0, 54, 85
2, 579398, Note_on_c, 0, 36, 70
2, 579398, Note_on_c, 0, 48, 83
2, 579598, Control_c, 0, 64, 127
2, 579622, Note_on_c, 0, 48, 0
2, 579632, Note_on_c, 0, 36, 0
2, 579648, Note_on_c, 0, 54, 0
2, 579670, Note_on_c, 0, 63, 0
2, 579906, Note_on_c, 0, 54, 65
2, 579908, Note_on_c, 0, 63, 79
2, 579922, Control_c, 0, 64, 0
2, 579934, Note_on_c, 0, 36, 59
2, 579934, Note_on_c, 0, 48, 57
2, 580552, Control_c, 0, 64, 127
2, 580642, Note_on_c, 0, 48, 0
2, 580645, Note_on_c, 0, 36, 0
2, 580748, Note_on_c, 0, 54, 0
2, 580898, Note_on_c, 0, 55, 41
2, 580926, Note_on_c, 0, 62, 50
2, 580930, Note_on_c, 0, 47, 35
2, 580936, Control_c, 0, 64, 0
2, 580946, Note_on_c, 0, 35, 35
2, 580988, Note_on_c, 0, 63, 0
2, 581206, Note_on_c, 0, 35, 0
2, 581236, Note_on_c, 0, 47, 0
2, 581240, Note_on_c, 0, 55, 0
2, 581242, Control_c, 0, 64, 127
2, 581254, Note_on_c, 0, 62, 0
2, 581412, Control_c, 0, 64, 0
2, 581420, Note_on_c, 0, 67, 89
2, 581423, Note_on_c, 0, 51, 67
2, 581423, Note_on_c, 0, 55, 64
2, 581434, Note_on_c, 0, 39, 57
2, 581440, Note_on_c, 0, 60, 65
2, 581642, Note_on_c, 0, 51, 0
2, 581647, Note_on_c, 0, 55, 0
2, 581654, Note_on_c, 0, 60, 0
2, 581654, Note_on_c, 0, 39, 0
2, 581657, Control_c, 0, 64, 127
2, 581664, Note_on_c, 0, 67, 0
2, 581812, Control_c, 0, 64, 0
2, 581850, Note_on_c, 0, 67, 97
2, 581858, Note_on_c, 0, 51, 73
2, 581864, Note_on_c, 0, 60, 74
2, 581866, Note_on_c, 0, 55, 70
2, 581880, Note_on_c, 0, 39, 60
2, 582058, Control_c, 0, 64, 127
2, 582061, Note_on_c, 0, 51, 0
2, 582072, Note_on_c, 0, 39, 0
2, 582074, Note_on_c, 0, 55, 0
2, 582092, Note_on_c, 0, 67, 0
2, 582098, Note_on_c, 0, 60, 0
2, 582300, Note_on_c, 0, 67, 101
2, 582303, Note_on_c, 0, 55, 89
2, 582303, Control_c, 0, 64, 0
2, 582307, Note_on_c, 0, 51, 70
2, 582310, Note_on_c, 0, 60, 80
2, 582318, Note_on_c, 0, 39, 63
2, 582516, Note_on_c, 0, 51, 0
2, 582530, Note_on_c, 0, 39, 0
2, 582534, Control_c, 0, 64, 127
2, 582544, Note_on_c, 0, 55, 0
2, 582556, Note_on_c, 0, 67, 0
2, 582556, Note_on_c, 0, 60, 0
2, 582872, Control_c, 0, 64, 0
2, 582886, Note_on_c, 0, 67, 79
2, 582896, Note_on_c, 0, 60, 73
2, 582900, Note_on_c, 0, 55, 55
2, 582908, Note_on_c, 0, 39, 62
2, 582908, Note_on_c, 0, 51, 54
2, 583426, Control_c, 0, 64, 127
2, 583540, Note_on_c, 0, 60, 0
2, 583826, Note_on_c, 0, 51, 0
2, 583828, Note_on_c, 0, 39, 0
2, 584010, Note_on_c, 0, 65, 59
2, 584042, Note_on_c, 0, 59, 39
2, 584050, Note_on_c, 0, 50, 39
2, 584062, Note_on_c, 0, 38, 36
2, 584070, Control_c, 0, 64, 0
2, 584114, Note_on_c, 0, 67, 0
2, 584268, Note_on_c, 0, 55, 0
2, 584298, Note_on_c, 0, 50, 0
2, 584298, Note_on_c, 0, 59, 0
2, 584316, Control_c, 0, 64, 127
2, 584318, Note_on_c, 0, 38, 0
2, 584336, Note_on_c, 0, 65, 0
2, 584546, Note_on_c, 0, 63, 54
2, 584551, Note_on_c, 0, 68, 78
2, 584562, Control_c, 0, 64, 0
2, 584566, Note_on_c, 0, 65, 56
2, 584580, Note_on_c, 0, 36, 47
2, 584582, Note_on_c, 0, 48, 39
2, 584762, Control_c, 0, 64, 127
2, 584782, Note_on_c, 0, 48, 0
2, 584785, Note_on_c, 0, 63, 0
2, 584788, Note_on_c, 0, 65, 0
2, 584794, Note_on_c, 0, 36, 0
2, 584804, Note_on_c, 0, 68, 0
2, 584992, Control_c, 0, 64, 0
2, 585006, Note_on_c, 0, 63, 78
2, 585008, Note_on_c, 0, 68, 89
2, 585016, Note_on_c, 0, 36, 57
2, 585020, Note_on_c, 0, 48, 65
2, 585026, Note_on_c, 0, 65, 71
2, 585208, Control_c, 0, 64, 127
2, 585258, Note_on_c, 0, 65, 0
2, 585260, Note_on_c, 0, 63, 0
2, 585260, Note_on_c, 0, 48, 0
2, 585270, Note_on_c, 0, 36, 0
2, 585290, Note_on_c, 0, 68, 0
2, 585468, Control_c, 0, 64, 0
2, 585492, Note_on_c, 0, 63, 71
2, 585500, Note_on_c, 0, 68, 92
2, 585510, Note_on_c, 0, 48, 78
2, 585512, Note_on_c, 0, 36, 75
2, 585512, Note_on_c, 0, 65, 70
2, 585760, Note_on_c, 0, 48, 0
2, 585760, Control_c, 0, 64, 127
2, 585804, Note_on_c, 0, 65, 0
2, 585818, Note_on_c, 0, 36, 0
2, 585826, Note_on_c, 0, 63, 0
2, 585828, Note_on_c, 0, 68, 0
2, 586160, Control_c, 0, 64, 0
2, 586174, Note_on_c, 0, 68, 82
2, 586184, Note_on_c, 0, 65, 66
2, 586192, Note_on_c, 0, 62, 59
2, 586200, Note_on_c, 0, 47, 49
2, 586208, Note_on_c, 0, 35, 41
2, 587266, Control_c, 0, 64, 127
2, 587538, Note_on_c, 0, 67, 46
2, 587588, Control_c, 0, 64, 0
2, 587596, Note_on_c, 0, 68, 0
2, 587846, Note_on_c, 0, 62, 0
2, 587849, Control_c, 0, 64, 127
2, 587872, Note_on_c, 0, 65, 0
2, 587882, Note_on_c, 0, 67, 0
2, 588136, Note_on_c, 0, 74, 60
2, 588146, Note_on_c, 0, 71, 42
2, 588198, Note_on_c, 0, 35, 0
2, 588242, Note_on_c, 0, 47, 0
2, 588396, Note_on_c, 0, 71, 0
2, 588404, Note_on_c, 0, 74, 0
2, 588556, Control_c, 0, 64, 0
2, 588590, Note_on_c, 0, 74, 80
2, 588596, Note_on_c, 0, 71, 52
2, 588788, Control_c, 0, 64, 127
2, 588830, Note_on_c, 0, 71, 0
2, 588850, Note_on_c, 0, 74, 0
2, 589002, Control_c, 0, 64, 0
2, 589023, Note_on_c, 0, 71, 49
2, 589026, Note_on_c, 0, 74, 83
2, 589232, Control_c, 0, 64, 127
2, 589246, Note_on_c, 0, 71, 0
2, 589270, Note_on_c, 0, 74, 0
2, 589416, Control_c, 0, 64, 0
2, 589476, Note_on_c, 0, 77, 79
2, 589502, Note_on_c, 0, 74, 42
2, 589756, Control_c, 0, 64, 127
2, 589914, Note_on_c, 0, 56, 56
2, 589924, Control_c, 0, 64, 0
2, 590170, Control_c, 0, 64, 127
2, 590264, Note_on_c, 0, 74, 0
2, 590304, Note_on_c, 0, 77, 0
2, 590410, Note_on_c, 0, 55, 51
2, 590413, Note_on_c, 0, 56, 0
2, 590446, Control_c, 0, 64, 0
2, 590870, Note_on_c, 0, 83, 63
2, 590876, Note_on_c, 0, 74, 57
2, 591008, Note_on_c, 0, 55, 0
2, 591046, Control_c, 0, 64, 127
2, 591092, Note_on_c, 0, 74, 0
2, 591116, Note_on_c, 0, 83, 0
2, 591276, Control_c, 0, 64, 0
2, 591314, Note_on_c, 0, 83, 57
2, 591344, Note_on_c, 0, 74, 47
2, 591508, Control_c, 0, 64, 127
2, 591538, Note_on_c, 0, 74, 0
2, 591552, Note_on_c, 0, 83, 0
2, 591722, Control_c, 0, 64, 0
2, 591760, Note_on_c, 0, 83, 57
2, 591784, Note_on_c, 0, 74, 52
2, 591920, Note_on_c, 0, 74, 0
2, 591952, Control_c, 0, 64, 127
2, 592038, Note_on_c, 0, 83, 0
2, 592244, Control_c, 0, 64, 0
2, 592268, Note_on_c, 0, 86, 50
2, 592295, Note_on_c, 0, 77, 39
2, 592566, Control_c, 0, 64, 127
2, 592710, Note_on_c, 0, 68, 50
2, 592874, Control_c, 0, 64, 0
2, 593012, Control_c, 0, 64, 127
2, 593044, Note_on_c, 0, 77, 0
2, 593074, Note_on_c, 0, 86, 0
2, 593326, Note_on_c, 0, 67, 36
2, 593328, Note_on_c, 0, 68, 0
2, 593488, Control_c, 0, 64, 0
2, 593766, Control_c, 0, 64, 127
2, 593810, Note_on_c, 0, 86, 35
2, 593812, Control_c, 0, 64, 0
2, 593820, Note_on_c, 0, 83, 42
2, 593923, Note_on_c, 0, 83, 0
2, 593966, Control_c, 0, 64, 127
2, 593994, Note_on_c, 0, 86, 0
2, 594180, Control_c, 0, 64, 0
2, 594244, Note_on_c, 0, 67, 0
2, 594302, Note_on_c, 0, 86, 29
2, 594324, Note_on_c, 0, 83, 24
2, 594380, Control_c, 0, 64, 127
2, 594434, Note_on_c, 0, 83, 0
2, 594436, Note_on_c, 0, 86, 0
2, 594796, Control_c, 0, 64, 0
2, 594830, Note_on_c, 0, 86, 35
2, 594848, Note_on_c, 0, 83, 25
2, 594918, Control_c, 0, 64, 127
2, 594992, Note_on_c, 0, 83, 0
2, 595024, Note_on_c, 0, 86, 0
2, 595454, Note_on_c, 0, 89, 32
2, 595456, Control_c, 0, 64, 0
2, 595462, Note_on_c, 0, 86, 37
2, 595778, Control_c, 0, 64, 127
2, 596188, Note_on_c, 0, 80, 37
2, 596486, Control_c, 0, 64, 0
2, 596608, Control_c, 0, 64, 127
2, 597208, Note_on_c, 0, 79, 12
2, 597228, Note_on_c, 0, 80, 0
2, 597590, Control_c, 0, 64, 0
2, 597610, Note_on_c, 0, 86, 0
2, 597682, Note_on_c, 0, 89, 0
2, 597884, Control_c, 0, 64, 127
2, 599220, Control_c, 0, 64, 0
2, 599776, Note_on_c, 0, 79, 0
2, 602286, Note_on_c, 0, 60, 126
2, 602298, Note_on_c, 0, 48, 116
2, 602298, Note_on_c, 0, 36, 112
2, 602386, Control_c, 0, 64, 127
2, 603876, Control_c, 0, 64, 0
2, 604090, Control_c, 0, 64, 127
2, 604218, Note_on_c, 0, 48, 0
2, 604426, Note_on_c, 0, 36, 0
2, 605556, Note_on_c, 0, 63, 64
2, 605558, Note_on_c, 0, 51, 39
2, 605578, Note_on_c, 0, 39, 43
2, 605690, Note_on_c, 0, 60, 0
2, 605828, Control_c, 0, 64, 0
2, 606088, Control_c, 0, 64, 127
2, 606238, Note_on_c, 0, 51, 0
2, 606274, Note_on_c, 0, 39, 0
2, 606452, Note_on_c, 0, 66, 71
2, 606460, Note_on_c, 0, 54, 50
2, 606462, Note_on_c, 0, 42, 47
2, 606698, Note_on_c, 0, 63, 0
2, 606780, Control_c, 0, 64, 0
2, 607010, Control_c, 0, 64, 127
2, 607166, Note_on_c, 0, 42, 0
2, 607168, Note_on_c, 0, 54, 0
2, 607320, Note_on_c, 0, 67, 88
2, 607330, Note_on_c, 0, 55, 62
2, 607336, Note_on_c, 0, 43, 56
2, 607528, Note_on_c, 0, 66, 0
2, 607610, Control_c, 0, 64, 0
2, 607810, Control_c, 0, 64, 127
2, 607896, Note_on_c, 0, 55, 0
2, 608120, Note_on_c, 0, 68, 80
2, 608138, Note_on_c, 0, 43, 0
2, 608138, Note_on_c, 0, 56, 58
2, 608150, Note_on_c, 0, 44, 57
2, 608266, Note_on_c, 0, 67, 0
2, 608302, Control_c, 0, 64, 0
2, 608546, Control_c, 0, 64, 127
2, 608594, Note_on_c, 0, 56, 0
2, 608766, Note_on_c, 0, 44, 0
2, 608934, Note_on_c, 0, 60, 71
2, 608940, Note_on_c, 0, 36, 52
2, 608948, Note_on_c, 0, 48, 43
2, 609130, Note_on_c, 0, 68, 0
2, 609222, Control_c, 0, 64, 0
2, 609468, Control_c, 0, 64, 127
2, 609526, Note_on_c, 0, 48, 0
2, 609862, Note_on_c, 0, 59, 41
2, 609894, Note_on_c, 0, 47, 26
2, 609900, Control_c, 0, 64, 0
2, 609902, Note_on_c, 0, 36, 0
2, 609906, Note_on_c, 0, 35, 25
2, 610210, Note_on_c, 0, 60, 0
2, 610652, Control_c, 0, 64, 127
2, 610766, Note_on_c, 0, 35, 0
2, 610850, Note_on_c, 0, 59, 0
2, 610856, Note_on_c, 0, 47, 0
2, 611466, Control_c, 0, 64, 0
2, 611542, Note_on_c, 0, 75, 59
2, 611562, Note_on_c, 0, 66, 46
2, 611572, Note_on_c, 0, 72, 48
2, 611988, Control_c, 0, 64, 127
2, 612322, Note_on_c, 0, 71, 32
2, 612324, Note_on_c, 0, 72, 0
2, 612332, Note_on_c, 0, 74, 44
2, 612334, Note_on_c, 0, 67, 39
2, 612358, Note_on_c, 0, 75, 0
2, 612376, Note_on_c, 0, 66, 0
2, 612388, Control_c, 0, 64, 0
2, 612628, Note_on_c, 0, 67, 0
2, 612628, Note_on_c, 0, 71, 0
2, 612634, Control_c, 0, 64, 127
2, 612654, Note_on_c, 0, 74, 0
2, 613018, Control_c, 0, 64, 0
2, 613082, Note_on_c, 0, 78, 48
2, 613118, Note_on_c, 0, 68, 41
2, 613121, Note_on_c, 0, 72, 46
2, 613462, Control_c, 0, 64, 127
2, 613558, Note_on_c, 0, 72, 0
2, 613656, Note_on_c, 0, 68, 0
2, 613970, Note_on_c, 0, 79, 33
2, 613975, Note_on_c, 0, 78, 0
2, 613990, Note_on_c, 0, 71, 19
2, 614004, Note_on_c, 0, 67, 26
2, 614186, Control_c, 0, 64, 0
2, 614424, Note_on_c, 0, 67, 0
2, 614524, Control_c, 0, 64, 127
2, 614694, Note_on_c, 0, 71, 0
2, 614706, Note_on_c, 0, 79, 0
2, 614860, Control_c, 0, 64, 0
2, 616628, Note_on_c, 0, 56, 121
2, 616636, Note_on_c, 0, 32, 98
2, 616638, Note_on_c, 0, 44, 100
2, 616690, Control_c, 0, 64, 127
2, 618738, Note_on_c, 0, 32, 0
2, 618850, Note_on_c, 0, 44, 0
2, 619284, Note_on_c, 0, 59, 71
2, 619300, Note_on_c, 0, 47, 41
2, 619303, Note_on_c, 0, 35, 44
2, 619438, Note_on_c, 0, 56, 0
2, 619516, Control_c, 0, 64, 0
2, 619746, Control_c, 0, 64, 127
2, 619774, Note_on_c, 0, 35, 0
2, 619802, Note_on_c, 0, 47, 0
2, 619934, Note_on_c, 0, 59, 0
2, 620012, Note_on_c, 0, 60, 95
2, 620026, Note_on_c, 0, 36, 67
2, 620028, Note_on_c, 0, 48, 64
2, 620370, Note_on_c, 0, 61, 80
2, 620410, Note_on_c, 0, 60, 0
2, 620552, Note_on_c, 0, 60, 85
2, 620616, Note_on_c, 0, 61, 0
2, 620672, Note_on_c, 0, 59, 89
2, 620684, Note_on_c, 0, 60, 0
2, 620812, Note_on_c, 0, 60, 87
2, 620836, Note_on_c, 0, 59, 0
2, 620842, Control_c, 0, 64, 0
2, 620990, Note_on_c, 0, 48, 0
2, 621022, Control_c, 0, 64, 127
2, 621164, Note_on_c, 0, 61, 93
2, 621172, Note_on_c, 0, 49, 79
2, 621188, Note_on_c, 0, 37, 69
2, 621212, Note_on_c, 0, 36, 0
2, 621254, Note_on_c, 0, 60, 0
2, 621314, Control_c, 0, 64, 0
2, 621484, Control_c, 0, 64, 127
2, 621486, Note_on_c, 0, 49, 0
2, 621582, Note_on_c, 0, 63, 93
2, 621594, Note_on_c, 0, 39, 74
2, 621596, Note_on_c, 0, 51, 71
2, 621638, Note_on_c, 0, 37, 0
2, 621730, Control_c, 0, 64, 0
2, 621736, Note_on_c, 0, 61, 0
2, 622046, Note_on_c, 0, 51, 0
2, 622068, Control_c, 0, 64, 127
2, 622292, Note_on_c, 0, 39, 0
2, 622406, Note_on_c, 0, 56, 75
2, 622418, Note_on_c, 0, 32, 71
2, 622424, Note_on_c, 0, 44, 56
2, 622682, Control_c, 0, 64, 0
2, 622698, Note_on_c, 0, 63, 0
2, 623004, Control_c, 0, 64, 127
2, 623106, Note_on_c, 0, 44, 0
2, 623356, Note_on_c, 0, 55, 57
2, 623368, Note_on_c, 0, 31, 48
2, 623380, Note_on_c, 0, 43, 42
2, 623402, Note_on_c, 0, 32, 0
2, 623450, Control_c, 0, 64, 0
2, 623614, Note_on_c, 0, 56, 0
2, 624080, Control_c, 0, 64, 127
2, 624156, Note_on_c, 0, 31, 0
2, 624280, Note_on_c, 0, 43, 0
2, 624310, Note_on_c, 0, 55, 0
2, 624940, Control_c, 0, 64, 0
2, 625092, Note_on_c, 0, 68, 41
2, 625095, Note_on_c, 0, 71, 54
2, 625106, Note_on_c, 0, 62, 41
2, 625602, Control_c, 0, 64, 127
2, 625842, Note_on_c, 0, 62, 0
2, 625864, Note_on_c, 0, 70, 56
2, 625902, Note_on_c, 0, 67, 31
2, 625906, Note_on_c, 0, 63, 19
2, 625932, Note_on_c, 0, 71, 0
2, 625978, Note_on_c, 0, 68, 0
2, 626002, Control_c, 0, 64, 0
2, 626230, Note_on_c, 0, 67, 0
2, 626232, Control_c, 0, 64, 127
2, 626274, Note_on_c, 0, 70, 0
2, 626274, Note_on_c, 0, 63, 0
2, 626584, Control_c, 0, 64, 0
2, 626656, Note_on_c, 0, 74, 66
2, 626656, Note_on_c, 0, 68, 43
2, 626680, Note_on_c, 0, 71, 40
2, 627106, Control_c, 0, 64, 127
2, 627212, Note_on_c, 0, 68, 0
2, 627458, Note_on_c, 0, 71, 0
2, 627524, Note_on_c, 0, 74, 0
2, 627536, Note_on_c, 0, 75, 28
2, 627568, Note_on_c, 0, 67, 24
2, 627584, Note_on_c, 0, 70, 23
2, 627660, Control_c, 0, 64, 0
2, 627983, Note_on_c, 0, 67, 0
2, 628076, Control_c, 0, 64, 127
2, 628198, Note_on_c, 0, 70, 0
2, 628334, Note_on_c, 0, 75, 0
2, 628444, Control_c, 0, 64, 0
2, 629244, Control_c, 0, 64, 127
2, 630488, Note_on_c, 0, 61, 95
2, 630512, Note_on_c, 0, 41, 72
2, 630934, Note_on_c, 0, 49, 52
2, 631250, Note_on_c, 0, 49, 0
2, 631276, Note_on_c, 0, 44, 39
2, 631342, Note_on_c, 0, 41, 0
2, 631588, Note_on_c, 0, 44, 0
2, 631612, Note_on_c, 0, 49, 39
2, 631850, Note_on_c, 0, 49, 0
2, 631936, Note_on_c, 0, 41, 48
2, 631978, Control_c, 0, 64, 0
2, 632146, Control_c, 0, 64, 127
2, 632170, Note_on_c, 0, 61, 0
2, 632228, Note_on_c, 0, 49, 43
2, 632522, Note_on_c, 0, 49, 0
2, 632568, Note_on_c, 0, 85, 70
2, 632584, Note_on_c, 0, 44, 35
2, 632618, Note_on_c, 0, 41, 0
2, 632864, Note_on_c, 0, 44, 0
2, 632880, Note_on_c, 0, 49, 44
2, 633098, Note_on_c, 0, 49, 0
2, 633234, Note_on_c, 0, 80, 73
2, 633260, Note_on_c, 0, 41, 50
2, 633432, Note_on_c, 0, 85, 0
2, 633484, Control_c, 0, 64, 0
2, 633540, Note_on_c, 0, 49, 60
2, 633636, Control_c, 0, 64, 127
2, 633842, Note_on_c, 0, 49, 0
2, 633882, Note_on_c, 0, 77, 95
2, 633885, Note_on_c, 0, 44, 44
2, 633928, Note_on_c, 0, 41, 0
2, 633982, Note_on_c, 0, 80, 0
2, 634198, Note_on_c, 0, 49, 60
2, 634486, Note_on_c, 0, 49, 0
2, 634500, Note_on_c, 0, 73, 97
2, 634502, Note_on_c, 0, 44, 0
2, 634524, Note_on_c, 0, 41, 55
2, 634628, Note_on_c, 0, 77, 0
2, 634798, Note_on_c, 0, 49, 66
2, 635130, Note_on_c, 0, 49, 0
2, 635148, Note_on_c, 0, 68, 90
2, 635174, Note_on_c, 0, 44, 59
2, 635222, Note_on_c, 0, 73, 0
2, 635256, Note_on_c, 0, 41, 0
2, 635386, Note_on_c, 0, 68, 0
2, 635432, Note_on_c, 0, 44, 0
2, 635472, Note_on_c, 0, 49, 81
2, 635552, Note_on_c, 0, 49, 0
2, 635940, Note_on_c, 0, 63, 111
2, 635944, Note_on_c, 0, 57, 109
2, 635946, Note_on_c, 0, 60, 105
2, 635950, Note_on_c, 0, 42, 109
2, 636264, Control_c, 0, 64, 0
2, 636338, Note_on_c, 0, 48, 86
2, 636556, Control_c, 0, 64, 127
2, 636636, Note_on_c, 0, 48, 0
2, 636674, Note_on_c, 0, 45, 70
2, 636752, Note_on_c, 0, 42, 0
2, 636992, Note_on_c, 0, 45, 0
2, 636992, Note_on_c, 0, 48, 73
2, 637314, Note_on_c, 0, 42, 71
2, 637320, Note_on_c, 0, 48, 0
2, 637372, Control_c, 0, 64, 0
2, 637556, Control_c, 0, 64, 127
2, 637608, Note_on_c, 0, 57, 0
2, 637642, Note_on_c, 0, 60, 0
2, 637642, Note_on_c, 0, 48, 60
2, 637692, Note_on_c, 0, 63, 0
2, 637938, Note_on_c, 0, 48, 0
2, 638012, Note_on_c, 0, 84, 79
2, 638032, Note_on_c, 0, 42, 0
2, 638052, Note_on_c, 0, 45, 37
2, 638300, Note_on_c, 0, 45, 0
2, 638330, Note_on_c, 0, 48, 47
2, 638610, Note_on_c, 0, 48, 0
2, 638658, Note_on_c, 0, 81, 89
2, 638674, Note_on_c, 0, 42, 39
2, 638864, Note_on_c, 0, 84, 0
2, 638982, Note_on_c, 0, 48, 51
2, 639244, Note_on_c, 0, 48, 0
2, 639288, Note_on_c, 0, 78, 67
2, 639322, Note_on_c, 0, 45, 50
2, 639458, Note_on_c, 0, 81, 0
2, 639544, Note_on_c, 0, 42, 0
2, 639618, Note_on_c, 0, 48, 42
2, 639806, Note_on_c, 0, 48, 0
2, 639870, Note_on_c, 0, 45, 0
2, 639934, Note_on_c, 0, 75, 55
2, 639952, Note_on_c, 0, 42, 32
2, 640126, Note_on_c, 0, 78, 0
2, 640198, Control_c, 0, 64, 0
2, 640260, Note_on_c, 0, 48, 43
2, 640360, Control_c, 0, 64, 127
2, 640528, Note_on_c, 0, 48, 0
2, 640610, Note_on_c, 0, 72, 50
2, 640616, Note_on_c, 0, 45, 41
2, 640644, Control_c, 0, 64, 0
2, 640688, Note_on_c, 0, 75, 0
2, 640858, Control_c, 0, 64, 127
2, 640914, Note_on_c, 0, 45, 0
2, 640958, Note_on_c, 0, 48, 42
2, 641012, Note_on_c, 0, 72, 0
2, 641032, Note_on_c, 0, 42, 0
2, 641256, Note_on_c, 0, 48, 0
2, 641304, Note_on_c, 0, 43, 41
2, 641366, Control_c, 0, 64, 0
2, 641598, Note_on_c, 0, 63, 48
2, 641620, Note_on_c, 0, 60, 50
2, 641734, Control_c, 0, 64, 127
2, 641746, Note_on_c, 0, 63, 0
2, 641754, Note_on_c, 0, 60, 0
2, 641902, Note_on_c, 0, 60, 41
2, 641920, Note_on_c, 0, 63, 36
2, 642024, Note_on_c, 0, 63, 0
2, 642032, Note_on_c, 0, 60, 0
2, 642164, Control_c, 0, 64, 0
2, 642222, Note_on_c, 0, 63, 46
2, 642232, Note_on_c, 0, 60, 44
2, 642324, Note_on_c, 0, 43, 0
2, 642336, Note_on_c, 0, 60, 0
2, 642350, Control_c, 0, 64, 127
2, 642410, Note_on_c, 0, 63, 0
2, 642456, Control_c, 0, 64, 0
2, 642510, Note_on_c, 0, 44, 69
2, 642818, Note_on_c, 0, 60, 55
2, 642818, Note_on_c, 0, 63, 48
2, 642826, Control_c, 0, 64, 127
2, 642932, Note_on_c, 0, 60, 0
2, 642934, Note_on_c, 0, 63, 0
2, 643024, Control_c, 0, 64, 0
2, 643120, Note_on_c, 0, 60, 59
2, 643120, Note_on_c, 0, 63, 57
2, 643168, Note_on_c, 0, 44, 0
2, 643194, Control_c, 0, 64, 127
2, 643224, Note_on_c, 0, 60, 0
2, 643244, Note_on_c, 0, 63, 0
2, 643394, Control_c, 0, 64, 0
2, 643424, Note_on_c, 0, 60, 42
2, 643432, Note_on_c, 0, 63, 32
2, 643548, Control_c, 0, 64, 127
2, 643628, Note_on_c, 0, 60, 0
2, 643636, Note_on_c, 0, 63, 0
2, 643702, Control_c, 0, 64, 0
2, 643732, Note_on_c, 0, 41, 54
2, 644040, Note_on_c, 0, 62, 39
2, 644054, Note_on_c, 0, 60, 42
2, 644146, Control_c, 0, 64, 127
2, 644166, Note_on_c, 0, 62, 0
2, 644168, Note_on_c, 0, 60, 0
2, 644300, Control_c, 0, 64, 0
2, 644338, Note_on_c, 0, 60, 36
2, 644356, Note_on_c, 0, 62, 40
2, 644448, Note_on_c, 0, 62, 0
2, 644454, Control_c, 0, 64, 127
2, 644466, Note_on_c, 0, 60, 0
2, 644508, Note_on_c, 0, 41, 0
2, 644562, Control_c, 0, 64, 0
2, 644652, Note_on_c, 0, 60, 36
2, 644654, Note_on_c, 0, 62, 28
2, 644746, Control_c, 0, 64, 127
2, 644804, Note_on_c, 0, 62, 0
2, 644804, Note_on_c, 0, 60, 0
2, 644930, Control_c, 0, 64, 0
2, 644948, Note_on_c, 0, 43, 28
2, 645130, Control_c, 0, 64, 127
2, 645176, Control_c, 0, 64, 0
2, 645256, Note_on_c, 0, 62, 42
2, 645288, Note_on_c, 0, 59, 20
2, 645360, Control_c, 0, 64, 127
2, 645370, Note_on_c, 0, 62, 0
2, 645382, Note_on_c, 0, 59, 0
2, 645484, Control_c, 0, 64, 0
2, 645552, Note_on_c, 0, 59, 25
2, 645576, Note_on_c, 0, 62, 36
2, 645622, Control_c, 0, 64, 127
2, 645658, Note_on_c, 0, 62, 0
2, 645664, Note_on_c, 0, 59, 0
2, 645750, Note_on_c, 0, 43, 0
2, 645790, Control_c, 0, 64, 0
2, 645872, Note_on_c, 0, 62, 35
2, 645880, Note_on_c, 0, 59, 28
2, 645898, Control_c, 0, 64, 127
2, 645954, Note_on_c, 0, 59, 0
2, 646000, Note_on_c, 0, 62, 0
2, 646082, Control_c, 0, 64, 0
2, 646168, Note_on_c, 0, 36, 50
2, 646184, Note_on_c, 0, 60, 42
2, 646510, Note_on_c, 0, 67, 48
2, 646512, Control_c, 0, 64, 127
2, 646558, Note_on_c, 0, 60, 0
2, 646632, Note_on_c, 0, 67, 0
2, 646806, Note_on_c, 0, 67, 55
2, 646878, Note_on_c, 0, 67, 0
2, 647094, Note_on_c, 0, 67, 60
2, 647150, Note_on_c, 0, 36, 0
2, 647174, Note_on_c, 0, 67, 0
2, 647312, Control_c, 0, 64, 0
2, 647370, Note_on_c, 0, 67, 71
2, 647376, Note_on_c, 0, 65, 62
2, 647468, Note_on_c, 0, 65, 0
2, 647480, Control_c, 0, 64, 127
2, 647508, Note_on_c, 0, 67, 0
2, 647634, Control_c, 0, 64, 0
2, 647654, Note_on_c, 0, 67, 47
2, 647662, Note_on_c, 0, 43, 70
2, 647676, Note_on_c, 0, 65, 55
2, 647742, Note_on_c, 0, 65, 0
2, 647770, Note_on_c, 0, 67, 0
2, 647773, Control_c, 0, 64, 127
2, 647788, Note_on_c, 0, 45, 90
2, 647796, Note_on_c, 0, 43, 0
2, 647850, Control_c, 0, 64, 0
2, 647904, Note_on_c, 0, 47, 67
2, 647928, Note_on_c, 0, 67, 51
2, 647931, Note_on_c, 0, 45, 0
2, 647934, Note_on_c, 0, 65, 62
2, 647988, Control_c, 0, 64, 127
2, 647994, Note_on_c, 0, 65, 0
2, 648002, Note_on_c, 0, 67, 0
2, 648048, Note_on_c, 0, 47, 0
2, 648050, Note_on_c, 0, 48, 89
2, 648066, Control_c, 0, 64, 0
2, 648164, Note_on_c, 0, 48, 0
2, 648170, Note_on_c, 0, 67, 42
2, 648182, Note_on_c, 0, 65, 64
2, 648185, Note_on_c, 0, 50, 80
2, 648234, Control_c, 0, 64, 127
2, 648262, Note_on_c, 0, 65, 0
2, 648267, Note_on_c, 0, 67, 0
2, 648302, Note_on_c, 0, 50, 0
2, 648305, Note_on_c, 0, 47, 67
2, 648372, Control_c, 0, 64, 0
2, 648416, Note_on_c, 0, 47, 0
2, 648448, Note_on_c, 0, 63, 57
2, 648460, Note_on_c, 0, 67, 71
2, 648468, Note_on_c, 0, 48, 74
2, 648586, Note_on_c, 0, 67, 0
2, 648606, Note_on_c, 0, 63, 0
2, 648618, Control_c, 0, 64, 127
2, 648710, Control_c, 0, 64, 0
2, 648762, Note_on_c, 0, 63, 42
2, 648776, Note_on_c, 0, 67, 58
2, 648854, Note_on_c, 0, 63, 0
2, 648864, Control_c, 0, 64, 127
2, 648880, Note_on_c, 0, 67, 0
2, 648986, Control_c, 0, 64, 0
2, 649034, Note_on_c, 0, 67, 50
2, 649050, Note_on_c, 0, 63, 44
2, 649124, Control_c, 0, 64, 127
2, 649128, Note_on_c, 0, 63, 0
2, 649178, Note_on_c, 0, 67, 0
2, 649232, Control_c, 0, 64, 0
2, 649272, Note_on_c, 0, 48, 0
2, 649314, Note_on_c, 0, 67, 47
2, 649324, Note_on_c, 0, 63, 54
2, 649370, Control_c, 0, 64, 127
2, 649406, Note_on_c, 0, 63, 0
2, 649466, Note_on_c, 0, 67, 0
2, 649524, Control_c, 0, 64, 0
2, 649592, Note_on_c, 0, 67, 44
2, 649610, Note_on_c, 0, 65, 70
2, 649694, Control_c, 0, 64, 127
2, 649716, Note_on_c, 0, 65, 0
2, 649752, Note_on_c, 0, 67, 0
2, 649816, Control_c, 0, 64, 0
2, 649880, Note_on_c, 0, 67, 47
2, 649884, Note_on_c, 0, 43, 66
2, 649890, Note_on_c, 0, 65, 67
2, 649960, Note_on_c, 0, 65, 0
2, 649970, Control_c, 0, 64, 127
2, 649973, Note_on_c, 0, 67, 0
2, 650000, Note_on_c, 0, 45, 89
2, 650002, Note_on_c, 0, 43, 0
2, 650062, Control_c, 0, 64, 0
2, 650130, Note_on_c, 0, 67, 66
2, 650132, Note_on_c, 0, 47, 77
2, 650142, Note_on_c, 0, 65, 75
2, 650150, Note_on_c, 0, 45, 0
2, 650202, Note_on_c, 0, 65, 0
2, 650218, Note_on_c, 0, 67, 0
2, 650232, Control_c, 0, 64, 127
2, 650266, Note_on_c, 0, 47, 0
2, 650268, Note_on_c, 0, 48, 100
2, 650324, Control_c, 0, 64, 0
2, 650390, Note_on_c, 0, 48, 0
2, 650393, Note_on_c, 0, 65, 72
2, 650400, Note_on_c, 0, 67, 85
2, 650402, Note_on_c, 0, 50, 93
2, 650478, Control_c, 0, 64, 127
2, 650514, Note_on_c, 0, 65, 0
2, 650516, Note_on_c, 0, 67, 0
2, 650518, Note_on_c, 0, 50, 0
2, 650538, Note_on_c, 0, 47, 92
2, 650600, Control_c, 0, 64, 0
2, 650602, Note_on_c, 0, 47, 0
2, 650670, Note_on_c, 0, 63, 83
2, 650682, Note_on_c, 0, 67, 98
2, 650690, Note_on_c, 0, 48, 110
2, 650794, Note_on_c, 0, 48, 0
2, 650814, Control_c, 0, 64, 127
2, 650826, Note_on_c, 0, 63, 0
2, 650832, Note_on_c, 0, 67, 0
2, 650922, Control_c, 0, 64, 0
2, 650978, Note_on_c, 0, 43, 83
2, 650978, Note_on_c, 0, 67, 65
2, 650981, Note_on_c, 0, 65, 78
2, 651064, Note_on_c, 0, 65, 0
2, 651102, Note_on_c, 0, 45, 100
2, 651114, Note_on_c, 0, 67, 0
2, 651118, Note_on_c, 0, 43, 0
2, 651138, Control_c, 0, 64, 127
2, 651184, Control_c, 0, 64, 0
2, 651244, Note_on_c, 0, 67, 65
2, 651247, Note_on_c, 0, 47, 78
2, 651252, Note_on_c, 0, 65, 81
2, 651262, Note_on_c, 0, 45, 0
2, 651326, Note_on_c, 0, 65, 0
2, 651360, Note_on_c, 0, 67, 0
2, 651374, Note_on_c, 0, 48, 101
2, 651382, Note_on_c, 0, 47, 0
2, 651384, Control_c, 0, 64, 127
2, 651430, Control_c, 0, 64, 0
2, 651492, Note_on_c, 0, 48, 0
2, 651502, Note_on_c, 0, 50, 97
2, 651524, Note_on_c, 0, 65, 78
2, 651528, Note_on_c, 0, 67, 86
2, 651598, Control_c, 0, 64, 127
2, 651616, Note_on_c, 0, 50, 0
2, 651628, Note_on_c, 0, 65, 0
2, 651636, Note_on_c, 0, 47, 93
2, 651658, Note_on_c, 0, 67, 0
2, 651706, Control_c, 0, 64, 0
2, 651708, Note_on_c, 0, 47, 0
2, 651762, Note_on_c, 0, 67, 89
2, 651768, Note_on_c, 0, 63, 94
2, 651780, Note_on_c, 0, 48, 116
2, 651882, Note_on_c, 0, 48, 0
2, 651900, Note_on_c, 0, 63, 0
2, 651906, Control_c, 0, 64, 127
2, 651926, Note_on_c, 0, 67, 0
2, 651998, Control_c, 0, 64, 0
2, 652056, Note_on_c, 0, 67, 69
2, 652059, Note_on_c, 0, 43, 89
2, 652072, Note_on_c, 0, 65, 83
2, 652136, Note_on_c, 0, 65, 0
2, 652180, Note_on_c, 0, 67, 0
2, 652184, Note_on_c, 0, 45, 106
2, 652214, Control_c, 0, 64, 127
2, 652217, Note_on_c, 0, 43, 0
2, 652290, Control_c, 0, 64, 0
2, 652310, Note_on_c, 0, 67, 80
2, 652322, Note_on_c, 0, 47, 87
2, 652322, Note_on_c, 0, 65, 90
2, 652372, Note_on_c, 0, 45, 0
2, 652416, Note_on_c, 0, 65, 0
2, 652434, Note_on_c, 0, 67, 0
2, 652442, Note_on_c, 0, 48, 105
2, 652458, Control_c, 0, 64, 127
2, 652472, Note_on_c, 0, 47, 0
2, 652536, Control_c, 0, 64, 0
2, 652570, Note_on_c, 0, 67, 83
2, 652572, Note_on_c, 0, 48, 0
2, 652580, Note_on_c, 0, 50, 100
2, 652584, Note_on_c, 0, 65, 95
2, 652646, Note_on_c, 0, 65, 0
2, 652658, Control_c, 0, 64, 127
2, 652686, Note_on_c, 0, 50, 0
2, 652691, Note_on_c, 0, 67, 0
2, 652706, Note_on_c, 0, 47, 81
2, 652736, Control_c, 0, 64, 0
2, 652756, Note_on_c, 0, 47, 0
2, 652838, Note_on_c, 0, 63, 83
2, 652842, Note_on_c, 0, 67, 90
2, 652846, Note_on_c, 0, 48, 104
2, 652890, Note_on_c, 0, 48, 0
2, 652952, Note_on_c, 0, 63, 0
2, 652952, Control_c, 0, 64, 127
2, 652974, Note_on_c, 0, 67, 0
2, 653058, Control_c, 0, 64, 0
2, 653124, Note_on_c, 0, 72, 124
2, 653126, Note_on_c, 0, 58, 127
2, 653132, Note_on_c, 0, 64, 116
2, 653132, Note_on_c, 0, 46, 121
2, 653236, Note_on_c, 0, 58, 0
2, 653238, Note_on_c, 0, 46, 0
2, 653258, Control_c, 0, 64, 127
2, 653276, Note_on_c, 0, 64, 0
2, 653294, Note_on_c, 0, 72, 0
2, 653366, Control_c, 0, 64, 0
2, 653426, Note_on_c, 0, 65, 119
2, 653429, Note_on_c, 0, 56, 103
2, 653429, Note_on_c, 0, 72, 126
2, 653436, Note_on_c, 0, 44, 97
2, 653550, Note_on_c, 0, 56, 0
2, 653550, Control_c, 0, 64, 127
2, 653566, Note_on_c, 0, 44, 0
2, 653569, Note_on_c, 0, 65, 0
2, 653588, Note_on_c, 0, 72, 0
2, 653672, Control_c, 0, 64, 0
2, 653716, Note_on_c, 0, 72, 113
2, 653718, Note_on_c, 0, 64, 113
2, 653722, Note_on_c, 0, 67, 108
2, 653724, Note_on_c, 0, 55, 109
2, 653730, Note_on_c, 0, 43, 105
2, 653856, Note_on_c, 0, 55, 0
2, 653856, Control_c, 0, 64, 127
2, 653864, Note_on_c, 0, 43, 0
2, 653872, Note_on_c, 0, 64, 0
2, 653890, Note_on_c, 0, 72, 0
2, 653898, Note_on_c, 0, 67, 0
2, 653964, Control_c, 0, 64, 0
2, 654024, Note_on_c, 0, 72, 112
2, 654024, Note_on_c, 0, 68, 98
2, 654026, Note_on_c, 0, 65, 111
2, 654032, Note_on_c, 0, 53, 100
2, 654034, Note_on_c, 0, 41, 105
2, 654174, Note_on_c, 0, 65, 0
2, 654196, Note_on_c, 0, 53, 0
2, 654196, Control_c, 0, 64, 127
2, 654212, Note_on_c, 0, 72, 0
2, 654220, Note_on_c, 0, 68, 0
2, 654234, Note_on_c, 0, 41, 0
2, 654288, Control_c, 0, 64, 0
2, 654340, Note_on_c, 0, 70, 105
2, 654342, Note_on_c, 0, 67, 108
2, 654345, Note_on_c, 0, 72, 111
2, 654352, Note_on_c, 0, 52, 102
2, 654356, Note_on_c, 0, 40, 100
2, 654502, Control_c, 0, 64, 127
2, 654524, Note_on_c, 0, 72, 0
2, 654526, Note_on_c, 0, 40, 0
2, 654542, Note_on_c, 0, 67, 0
2, 654556, Note_on_c, 0, 52, 0
2, 654568, Note_on_c, 0, 70, 0
2, 654626, Control_c, 0, 64, 0
2, 654646, Note_on_c, 0, 68, 103
2, 654651, Note_on_c, 0, 72, 117
2, 654654, Note_on_c, 0, 65, 109
2, 654662, Note_on_c, 0, 53, 106
2, 654668, Note_on_c, 0, 41, 95
2, 654818, Note_on_c, 0, 65, 0
2, 654824, Note_on_c, 0, 53, 0
2, 654824, Control_c, 0, 64, 127
2, 654840, Note_on_c, 0, 72, 0
2, 654856, Note_on_c, 0, 41, 0
2, 654858, Note_on_c, 0, 68, 0
2, 654948, Control_c, 0, 64, 0
2, 654964, Note_on_c, 0, 72, 120
2, 654966, Note_on_c, 0, 52, 102
2, 654970, Note_on_c, 0, 40, 102
2, 654972, Note_on_c, 0, 67, 104
2, 654974, Note_on_c, 0, 70, 102
2, 655030, Note_on_c, 0, 67, 0
2, 655102, Note_on_c, 0, 52, 0
2, 655104, Note_on_c, 0, 40, 0
2, 655146, Note_on_c, 0, 72, 0
2, 655148, Control_c, 0, 64, 127
2, 655151, Note_on_c, 0, 70, 0
2, 655348, Control_c, 0, 64, 0
2, 655390, Note_on_c, 0, 72, 118
2, 655406, Note_on_c, 0, 65, 77
2, 655406, Note_on_c, 0, 68, 73
2, 655412, Note_on_c, 0, 53, 58
2, 655416, Note_on_c, 0, 41, 57
2, 655748, Control_c, 0, 64, 127
2, 655798, Note_on_c, 0, 41, 0
2, 655848, Note_on_c, 0, 53, 0
2, 655936, Note_on_c, 0, 68, 0
2, 655940, Note_on_c, 0, 65, 0
2, 656078, Note_on_c, 0, 70, 90
2, 656092, Note_on_c, 0, 67, 75
2, 656108, Note_on_c, 0, 53, 59
2, 656130, Control_c, 0, 64, 0
2, 656152, Note_on_c, 0, 67, 0
2, 656174, Note_on_c, 0, 72, 0
2, 656208, Control_c, 0, 64, 127
2, 656222, Note_on_c, 0, 68, 79
2, 656242, Note_on_c, 0, 65, 67
2, 656244, Note_on_c, 0, 70, 0
2, 656266, Note_on_c, 0, 68, 0
2, 656306, Note_on_c, 0, 65, 0
2, 656376, Note_on_c, 0, 67, 90
2, 656379, Note_on_c, 0, 63, 72
2, 656436, Note_on_c, 0, 63, 0
2, 656502, Note_on_c, 0, 67, 0
2, 656508, Note_on_c, 0, 65, 101
2, 656526, Note_on_c, 0, 62, 72
2, 656548, Note_on_c, 0, 65, 0
2, 656646, Note_on_c, 0, 53, 0
2, 656692, Note_on_c, 0, 62, 0
2, 656700, Note_on_c, 0, 63, 80
2, 656706, Note_on_c, 0, 60, 67
2, 656716, Control_c, 0, 64, 0
2, 656719, Note_on_c, 0, 55, 50
2, 657384, Note_on_c, 0, 55, 0
2, 657414, Note_on_c, 0, 60, 0
2, 657452, Note_on_c, 0, 43, 41
2, 657458, Note_on_c, 0, 62, 42
2, 657460, Note_on_c, 0, 63, 0
2, 657468, Note_on_c, 0, 59, 28
2, 657792, Note_on_c, 0, 59, 0
2, 657868, Control_c, 0, 64, 127
2, 657972, Note_on_c, 0, 62, 0
2, 658020, Note_on_c, 0, 43, 0
2, 658190, Control_c, 0, 64, 0
2, 658216, Note_on_c, 0, 60, 48
2, 658244, Note_on_c, 0, 48, 27
2, 658482, Control_c, 0, 64, 127
2, 658528, Control_c, 0, 64, 0
2, 658550, Note_on_c, 0, 60, 0
2, 658596, Note_on_c, 0, 67, 40
2, 658698, Control_c, 0, 64, 127
2, 658756, Note_on_c, 0, 67, 0
2, 658756, Note_on_c, 0, 48, 0
2, 658820, Control_c, 0, 64, 0
2, 658876, Note_on_c, 0, 67, 35
2, 658958, Control_c, 0, 64, 127
2, 659040, Note_on_c, 0, 67, 0
2, 659112, Control_c, 0, 64, 0
2, 659156, Note_on_c, 0, 67, 50
2, 659266, Control_c, 0, 64, 127
2, 659306, Note_on_c, 0, 67, 0
2, 659420, Control_c, 0, 64, 0
2, 659458, Note_on_c, 0, 67, 44
2, 659558, Control_c, 0, 64, 127
2, 659594, Note_on_c, 0, 67, 0
2, 659680, Control_c, 0, 64, 0
2, 659754, Note_on_c, 0, 67, 46
2, 659768, Note_on_c, 0, 66, 35
2, 659850, Control_c, 0, 64, 127
2, 659880, Note_on_c, 0, 66, 0
2, 659898, Note_on_c, 0, 67, 0
2, 659958, Control_c, 0, 64, 0
2, 660054, Note_on_c, 0, 67, 52
2, 660066, Note_on_c, 0, 66, 51
2, 660110, Control_c, 0, 64, 127
2, 660122, Note_on_c, 0, 67, 0
2, 660136, Note_on_c, 0, 66, 0
2, 660250, Control_c, 0, 64, 0
2, 660342, Control_c, 0, 64, 127
2, 660342, Note_on_c, 0, 67, 75
2, 660352, Note_on_c, 0, 66, 57
2, 660402, Note_on_c, 0, 67, 0
2, 660428, Note_on_c, 0, 66, 0
2, 660586, Control_c, 0, 64, 0
2, 660632, Note_on_c, 0, 66, 60
2, 660644, Note_on_c, 0, 67, 67
2, 660698, Note_on_c, 0, 67, 0
2, 660726, Control_c, 0, 64, 127
2, 660734, Note_on_c, 0, 66, 0
2, 660848, Control_c, 0, 64, 0
2, 660928, Note_on_c, 0, 67, 55
2, 660950, Note_on_c, 0, 65, 55
2, 661016, Control_c, 0, 64, 127
2, 661021, Note_on_c, 0, 65, 0
2, 661028, Note_on_c, 0, 67, 0
2, 661126, Control_c, 0, 64, 0
2, 661218, Note_on_c, 0, 67, 59
2, 661228, Note_on_c, 0, 65, 41
2, 661248, Control_c, 0, 64, 127
2, 661278, Note_on_c, 0, 67, 0
2, 661294, Note_on_c, 0, 65, 0
2, 661370, Control_c, 0, 64, 0
2, 661494, Note_on_c, 0, 65, 48
2, 661494, Note_on_c, 0, 67, 60
2, 661496, Control_c, 0, 64, 127
2, 661552, Note_on_c, 0, 67, 0
2, 661564, Note_on_c, 0, 65, 0
2, 661754, Control_c, 0, 64, 0
2, 661778, Note_on_c, 0, 65, 47
2, 661790, Note_on_c, 0, 67, 56
2, 661862, Note_on_c, 0, 67, 0
2, 661876, Note_on_c, 0, 65, 0
2, 661878, Control_c, 0, 64, 127
2, 662046, Note_on_c, 0, 79, 92
2, 662066, Note_on_c, 0, 67, 44
2, 662080, Note_on_c, 0, 65, 47
2, 662136, Note_on_c, 0, 67, 0
2, 662148, Note_on_c, 0, 65, 0
2, 662190, Note_on_c, 0, 79, 0
2, 662194, Note_on_c, 0, 81, 101
2, 662320, Note_on_c, 0, 83, 95
2, 662336, Note_on_c, 0, 67, 58
2, 662338, Note_on_c, 0, 81, 0
2, 662340, Note_on_c, 0, 65, 58
2, 662370, Control_c, 0, 64, 0
2, 662394, Note_on_c, 0, 67, 0
2, 662402, Note_on_c, 0, 65, 0
2, 662454, Note_on_c, 0, 84, 108
2, 662458, Note_on_c, 0, 83, 0
2, 662492, Control_c, 0, 64, 127
2, 662590, Note_on_c, 0, 67, 63
2, 662596, Note_on_c, 0, 65, 67
2, 662596, Note_on_c, 0, 86, 101
2, 662608, Note_on_c, 0, 84, 0
2, 662652, Note_on_c, 0, 67, 0
2, 662660, Note_on_c, 0, 65, 0
2, 662708, Note_on_c, 0, 83, 96
2, 662738, Note_on_c, 0, 86, 0
2, 662800, Control_c, 0, 64, 0
2, 662856, Note_on_c, 0, 83, 0
2, 662860, Note_on_c, 0, 63, 54
2, 662870, Note_on_c, 0, 84, 95
2, 662874, Note_on_c, 0, 67, 62
2, 662968, Control_c, 0, 64, 127
2, 662978, Note_on_c, 0, 67, 0
2, 662990, Note_on_c, 0, 63, 0
2, 663076, Control_c, 0, 64, 0
2, 663180, Note_on_c, 0, 63, 40
2, 663182, Note_on_c, 0, 67, 51
2, 663246, Control_c, 0, 64, 127
2, 663254, Note_on_c, 0, 67, 0
2, 663270, Note_on_c, 0, 63, 0
2, 663464, Note_on_c, 0, 63, 41
2, 663476, Note_on_c, 0, 67, 55
2, 663542, Note_on_c, 0, 63, 0
2, 663544, Note_on_c, 0, 67, 0
2, 663614, Control_c, 0, 64, 0
2, 663660, Control_c, 0, 64, 127
2, 663748, Note_on_c, 0, 67, 58
2, 663750, Note_on_c, 0, 63, 47
2, 663808, Note_on_c, 0, 67, 0
2, 663811, Note_on_c, 0, 63, 0
2, 663998, Control_c, 0, 64, 0
2, 664012, Note_on_c, 0, 84, 0
2, 664058, Note_on_c, 0, 65, 49
2, 664062, Note_on_c, 0, 67, 54
2, 664136, Note_on_c, 0, 67, 0
2, 664152, Control_c, 0, 64, 127
2, 664158, Note_on_c, 0, 65, 0
2, 664306, Control_c, 0, 64, 0
2, 664332, Note_on_c, 0, 79, 72
2, 664348, Note_on_c, 0, 67, 46
2, 664364, Note_on_c, 0, 65, 41
2, 664398, Control_c, 0, 64, 127
2, 664414, Note_on_c, 0, 67, 0
2, 664432, Note_on_c, 0, 65, 0
2, 664448, Note_on_c, 0, 79, 0
2, 664472, Note_on_c, 0, 81, 83
2, 664600, Note_on_c, 0, 67, 63
2, 664614, Note_on_c, 0, 83, 85
2, 664626, Note_on_c, 0, 81, 0
2, 664634, Note_on_c, 0, 65, 48
2, 664662, Note_on_c, 0, 67, 0
2, 664694, Note_on_c, 0, 65, 0
2, 664748, Note_on_c, 0, 83, 0
2, 664748, Note_on_c, 0, 84, 108
2, 664866, Note_on_c, 0, 67, 66
2, 664876, Note_on_c, 0, 65, 83
2, 664879, Note_on_c, 0, 86, 109
2, 664904, Note_on_c, 0, 84, 0
2, 664922, Note_on_c, 0, 67, 0
2, 664924, Note_on_c, 0, 65, 0
2, 665000, Note_on_c, 0, 83, 106
2, 665012, Control_c, 0, 64, 0
2, 665034, Note_on_c, 0, 86, 0
2, 665134, Note_on_c, 0, 63, 75
2, 665138, Note_on_c, 0, 67, 86
2, 665144, Note_on_c, 0, 84, 118
2, 665150, Note_on_c, 0, 83, 0
2, 665196, Control_c, 0, 64, 127
2, 665204, Note_on_c, 0, 67, 0
2, 665224, Note_on_c, 0, 63, 0
2, 665266, Note_on_c, 0, 84, 0
2, 665320, Control_c, 0, 64, 0
2, 665426, Note_on_c, 0, 79, 87
2, 665436, Note_on_c, 0, 67, 65
2, 665444, Note_on_c, 0, 65, 56
2, 665496, Note_on_c, 0, 67, 0
2, 665504, Control_c, 0, 64, 127
2, 665510, Note_on_c, 0, 65, 0
2, 665576, Note_on_c, 0, 79, 0
2, 665579, Note_on_c, 0, 81, 90
2, 665700, Note_on_c, 0, 83, 82
2, 665720, Note_on_c, 0, 67, 57
2, 665730, Note_on_c, 0, 65, 47
2, 665733, Note_on_c, 0, 81, 0
2, 665733, Control_c, 0, 64, 0
2, 665786, Note_on_c, 0, 67, 0
2, 665802, Note_on_c, 0, 65, 0
2, 665822, Note_on_c, 0, 84, 106
2, 665826, Control_c, 0, 64, 127
2, 665838, Note_on_c, 0, 83, 0
2, 665958, Note_on_c, 0, 86, 110
2, 665974, Note_on_c, 0, 67, 59
2, 665982, Note_on_c, 0, 84, 0
2, 665982, Note_on_c, 0, 65, 74
2, 666034, Note_on_c, 0, 67, 0
2, 666038, Note_on_c, 0, 65, 0
2, 666076, Note_on_c, 0, 83, 108
2, 666106, Note_on_c, 0, 86, 0
2, 666150, Control_c, 0, 64, 0
2, 666170, Note_on_c, 0, 83, 0
2, 666214, Note_on_c, 0, 84, 127
2, 666218, Note_on_c, 0, 67, 97
2, 666224, Note_on_c, 0, 63, 95
2, 666278, Note_on_c, 0, 67, 0
2, 666296, Note_on_c, 0, 63, 0
2, 666334, Control_c, 0, 64, 127
2, 666350, Note_on_c, 0, 84, 0
2, 666410, Control_c, 0, 64, 0
2, 666496, Note_on_c, 0, 79, 109
2, 666510, Note_on_c, 0, 67, 85
2, 666530, Note_on_c, 0, 65, 66
2, 666586, Note_on_c, 0, 65, 0
2, 666590, Note_on_c, 0, 67, 0
2, 666594, Control_c, 0, 64, 127
2, 666648, Note_on_c, 0, 81, 108
2, 666664, Note_on_c, 0, 79, 0
2, 666702, Control_c, 0, 64, 0
2, 666778, Note_on_c, 0, 67, 65
2, 666781, Note_on_c, 0, 83, 104
2, 666794, Control_c, 0, 64, 127
2, 666796, Note_on_c, 0, 65, 72
2, 666818, Note_on_c, 0, 81, 0
2, 666866, Note_on_c, 0, 65, 0
2, 666882, Note_on_c, 0, 67, 0
2, 666908, Note_on_c, 0, 84, 119
2, 666932, Control_c, 0, 64, 0
2, 666962, Note_on_c, 0, 83, 0
2, 667010, Control_c, 0, 64, 127
2, 667046, Note_on_c, 0, 86, 115
2, 667070, Note_on_c, 0, 84, 0
2, 667092, Note_on_c, 0, 67, 65
2, 667098, Note_on_c, 0, 65, 79
2, 667148, Note_on_c, 0, 67, 0
2, 667151, Note_on_c, 0, 65, 0
2, 667178, Note_on_c, 0, 83, 111
2, 667230, Note_on_c, 0, 86, 0
2, 667272, Control_c, 0, 64, 0
2, 667292, Note_on_c, 0, 83, 0
2, 667344, Note_on_c, 0, 84, 124
2, 667346, Note_on_c, 0, 67, 92
2, 667348, Note_on_c, 0, 63, 96
2, 667382, Note_on_c, 0, 67, 0
2, 667386, Note_on_c, 0, 63, 0
2, 667394, Control_c, 0, 64, 127
2, 667518, Note_on_c, 0, 84, 0
2, 667716, Note_on_c, 0, 48, 111
2, 667718, Note_on_c, 0, 82, 108
2, 667718, Control_c, 0, 64, 0
2, 667730, Note_on_c, 0, 84, 104
2, 667844, Note_on_c, 0, 50, 108
2, 667876, Note_on_c, 0, 84, 0
2, 667886, Control_c, 0, 64, 127
2, 667892, Note_on_c, 0, 82, 0
2, 667942, Note_on_c, 0, 48, 0
2, 667962, Control_c, 0, 64, 0
2, 667992, Note_on_c, 0, 52, 112
2, 667996, Note_on_c, 0, 82, 109
2, 667998, Note_on_c, 0, 84, 101
2, 668074, Note_on_c, 0, 50, 0
2, 668100, Control_c, 0, 64, 127
2, 668106, Note_on_c, 0, 82, 0
2, 668118, Note_on_c, 0, 84, 0
2, 668124, Note_on_c, 0, 53, 116
2, 668152, Note_on_c, 0, 52, 0
2, 668208, Control_c, 0, 64, 0
2, 668246, Note_on_c, 0, 82, 118
2, 668250, Note_on_c, 0, 55, 119
2, 668252, Note_on_c, 0, 84, 111
2, 668266, Note_on_c, 0, 53, 0
2, 668346, Control_c, 0, 64, 127
2, 668376, Note_on_c, 0, 55, 0
2, 668384, Note_on_c, 0, 84, 0
2, 668386, Note_on_c, 0, 52, 125
2, 668394, Note_on_c, 0, 82, 0
2, 668470, Control_c, 0, 64, 0
2, 668496, Note_on_c, 0, 52, 0
2, 668516, Note_on_c, 0, 80, 111
2, 668516, Note_on_c, 0, 84, 120
2, 668526, Note_on_c, 0, 53, 126
2, 668652, Note_on_c, 0, 53, 0
2, 668662, Note_on_c, 0, 84, 0
2, 668668, Control_c, 0, 64, 127
2, 668678, Note_on_c, 0, 80, 0
2, 668796, Note_on_c, 0, 48, 125
2, 668818, Note_on_c, 0, 82, 96
2, 668821, Note_on_c, 0, 84, 100
2, 668926, Note_on_c, 0, 50, 120
2, 668954, Note_on_c, 0, 84, 0
2, 668956, Note_on_c, 0, 82, 0
2, 668998, Note_on_c, 0, 48, 0
2, 669022, Control_c, 0, 64, 0
2, 669068, Note_on_c, 0, 84, 108
2, 669068, Note_on_c, 0, 52, 124
2, 669074, Note_on_c, 0, 82, 120
2, 669144, Note_on_c, 0, 50, 0
2, 669204, Note_on_c, 0, 53, 125
2, 669208, Note_on_c, 0, 82, 0
2, 669208, Control_c, 0, 64, 127
2, 669212, Note_on_c, 0, 84, 0
2, 669236, Note_on_c, 0, 52, 0
2, 669346, Note_on_c, 0, 55, 123
2, 669350, Note_on_c, 0, 82, 125
2, 669366, Note_on_c, 0, 53, 0
2, 669366, Note_on_c, 0, 84, 124
2, 669490, Note_on_c, 0, 82, 0
2, 669496, Note_on_c, 0, 84, 0
2, 669504, Note_on_c, 0, 52, 127
2, 669514, Control_c, 0, 64, 0
2, 669542, Note_on_c, 0, 55, 0
2, 669590, Control_c, 0, 64, 127
2, 669638, Control_c, 0, 64, 0
2, 669744, Note_on_c, 0, 84, 126
2, 669750, Note_on_c, 0, 80, 105
2, 669766, Note_on_c, 0, 53, 105
2, 669780, Note_on_c, 0, 52, 0
2, 670312, Control_c, 0, 64, 127
2, 670317, Note_on_c, 0, 53, 0
2, 670362, Note_on_c, 0, 80, 0
2, 670420, Note_on_c, 0, 82, 111
2, 670430, Note_on_c, 0, 79, 92
2, 670430, Note_on_c, 0, 53, 63
2, 670436, Control_c, 0, 64, 0
2, 670558, Note_on_c, 0, 80, 102
2, 670561, Note_on_c, 0, 79, 0
2, 670561, Note_on_c, 0, 84, 0
2, 670572, Note_on_c, 0, 77, 93
2, 670602, Note_on_c, 0, 80, 0
2, 670606, Note_on_c, 0, 82, 0
2, 670606, Control_c, 0, 64, 127
2, 670672, Note_on_c, 0, 77, 0
2, 670698, Note_on_c, 0, 75, 101
2, 670716, Note_on_c, 0, 79, 111
2, 670830, Note_on_c, 0, 75, 0
2, 670840, Note_on_c, 0, 77, 108
2, 670848, Note_on_c, 0, 74, 104
2, 670868, Note_on_c, 0, 79, 0
2, 670880, Note_on_c, 0, 77, 0
2, 671010, Note_on_c, 0, 75, 105
2, 671013, Note_on_c, 0, 72, 105
2, 671026, Note_on_c, 0, 74, 0
2, 671034, Note_on_c, 0, 53, 0
2, 671040, Note_on_c, 0, 55, 54
2, 671112, Control_c, 0, 64, 0
2, 671450, Control_c, 0, 64, 127
2, 671536, Note_on_c, 0, 55, 0
2, 671764, Note_on_c, 0, 71, 44
2, 671776, Note_on_c, 0, 74, 86
2, 671808, Note_on_c, 0, 55, 39
2, 671824, Note_on_c, 0, 72, 0
2, 671866, Control_c, 0, 64, 0
2, 671888, Note_on_c, 0, 75, 0
2, 672126, Control_c, 0, 64, 127
2, 672174, Note_on_c, 0, 55, 0
2, 672526, Note_on_c, 0, 72, 81
2, 672530, Note_on_c, 0, 56, 55
2, 672560, Note_on_c, 0, 71, 0
2, 672762, Note_on_c, 0, 74, 0
2, 672912, Note_on_c, 0, 59, 63
2, 673248, Note_on_c, 0, 60, 82
2, 673330, Note_on_c, 0, 59, 0
2, 673536, Note_on_c, 0, 62, 85
2, 673550, Note_on_c, 0, 60, 0
2, 673668, Note_on_c, 0, 72, 0
2, 673884, Note_on_c, 0, 63, 77
2, 673887, Note_on_c, 0, 72, 93
2, 673952, Note_on_c, 0, 62, 0
2, 674094, Control_c, 0, 64, 0
2, 674238, Note_on_c, 0, 64, 100
2, 674300, Note_on_c, 0, 63, 0
2, 674308, Control_c, 0, 64, 127
2, 674362, Note_on_c, 0, 72, 0
2, 674532, Note_on_c, 0, 72, 117
2, 674537, Note_on_c, 0, 65, 90
2, 674582, Note_on_c, 0, 64, 0
2, 674722, Control_c, 0, 64, 0
2, 674832, Note_on_c, 0, 66, 90
2, 674886, Note_on_c, 0, 65, 0
2, 674892, Control_c, 0, 64, 127
2, 675042, Note_on_c, 0, 72, 0
2, 675058, Note_on_c, 0, 56, 0
2, 675058, Note_on_c, 0, 66, 0
2, 675164, Note_on_c, 0, 72, 90
2, 675170, Note_on_c, 0, 67, 93
2, 675204, Note_on_c, 0, 55, 55
2, 675322, Control_c, 0, 64, 0
2, 675552, Control_c, 0, 64, 127
2, 675614, Note_on_c, 0, 72, 0
2, 675614, Note_on_c, 0, 74, 87
2, 675690, Note_on_c, 0, 72, 101
2, 675736, Note_on_c, 0, 74, 0
2, 675788, Note_on_c, 0, 71, 89
2, 675808, Note_on_c, 0, 72, 0
2, 675896, Note_on_c, 0, 72, 101
2, 675906, Control_c, 0, 64, 0
2, 675928, Note_on_c, 0, 71, 0
2, 676060, Control_c, 0, 64, 127
2, 676066, Note_on_c, 0, 67, 0
2, 676182, Note_on_c, 0, 74, 104
2, 676256, Note_on_c, 0, 72, 0
2, 676528, Note_on_c, 0, 75, 87
2, 676528, Note_on_c, 0, 43, 64
2, 676552, Control_c, 0, 64, 0
2, 676582, Note_on_c, 0, 55, 0
2, 676602, Note_on_c, 0, 74, 0
2, 676951, Control_c, 0, 64, 127
2, 677308, Note_on_c, 0, 65, 56
2, 677314, Note_on_c, 0, 71, 62
2, 677334, Control_c, 0, 64, 0
2, 677372, Note_on_c, 0, 75, 0
2, 677658, Control_c, 0, 64, 127
2, 678036, Note_on_c, 0, 65, 0
2, 678040, Note_on_c, 0, 43, 0
2, 678044, Note_on_c, 0, 72, 65
2, 678050, Note_on_c, 0, 44, 40
2, 678056, Note_on_c, 0, 63, 25
2, 678058, Control_c, 0, 64, 0
2, 678222, Note_on_c, 0, 71, 0
2, 678562, Note_on_c, 0, 47, 50
2, 678910, Note_on_c, 0, 48, 71
2, 678924, Note_on_c, 0, 47, 0
2, 679190, Note_on_c, 0, 48, 0
2, 679195, Note_on_c, 0, 50, 80
2, 679302, Control_c, 0, 64, 127
2, 679476, Note_on_c, 0, 72, 0
2, 679486, Note_on_c, 0, 51, 83
2, 679496, Note_on_c, 0, 50, 0
2, 679496, Note_on_c, 0, 60, 67
2, 679568, Note_on_c, 0, 63, 0
2, 679700, Control_c, 0, 64, 0
2, 679784, Note_on_c, 0, 52, 89
2, 679816, Note_on_c, 0, 51, 0
2, 679902, Control_c, 0, 64, 127
2, 679942, Note_on_c, 0, 60, 0
2, 680096, Note_on_c, 0, 60, 111
2, 680108, Note_on_c, 0, 53, 75
2, 680118, Note_on_c, 0, 52, 0
2, 680286, Control_c, 0, 64, 0
2, 680418, Note_on_c, 0, 54, 90
2, 680438, Control_c, 0, 64, 127
2, 680442, Note_on_c, 0, 53, 0
2, 680456, Note_on_c, 0, 60, 0
2, 680700, Note_on_c, 0, 54, 0
2, 680720, Note_on_c, 0, 44, 0
2, 680864, Note_on_c, 0, 60, 90
2, 680869, Note_on_c, 0, 55, 78
2, 680896, Note_on_c, 0, 43, 52
2, 680930, Control_c, 0, 64, 0
2, 681252, Control_c, 0, 64, 127
2, 681382, Note_on_c, 0, 60, 0
2, 681390, Note_on_c, 0, 62, 75
2, 681456, Note_on_c, 0, 60, 82
2, 681502, Note_on_c, 0, 62, 0
2, 681536, Note_on_c, 0, 60, 0
2, 681556, Note_on_c, 0, 59, 74
2, 681638, Control_c, 0, 64, 0
2, 681664, Note_on_c, 0, 60, 86
2, 681672, Note_on_c, 0, 59, 0
2, 681838, Control_c, 0, 64, 127
2, 681868, Note_on_c, 0, 55, 0
2, 682030, Note_on_c, 0, 62, 92
2, 682108, Note_on_c, 0, 60, 0
2, 682452, Control_c, 0, 64, 0
2, 682466, Note_on_c, 0, 63, 78
2, 682482, Note_on_c, 0, 31, 67
2, 682546, Note_on_c, 0, 62, 0
2, 682850, Note_on_c, 0, 43, 0
2, 683336, Note_on_c, 0, 53, 49
2, 683342, Note_on_c, 0, 59, 65
2, 683384, Note_on_c, 0, 63, 0
2, 684230, Note_on_c, 0, 60, 58
2, 684236, Note_on_c, 0, 51, 42
2, 684250, Note_on_c, 0, 36, 44
2, 684256, Note_on_c, 0, 53, 0
2, 684352, Note_on_c, 0, 31, 0
2, 684438, Note_on_c, 0, 59, 0
2, 685386, Control_c, 0, 64, 127
2, 685658, Note_on_c, 0, 60, 0
2, 685700, Note_on_c, 0, 36, 0
2, 685744, Note_on_c, 0, 51, 0
2, 686108, Control_c, 0, 64, 0
2, 686506, Note_on_c, 0, 51, 50
2, 686509, Note_on_c, 0, 43, 47
2, 686528, Note_on_c, 0, 48, 42
2, 686532, Note_on_c, 0, 31, 47
2, 686816, Control_c, 0, 64, 127
2, 686858, Note_on_c, 0, 43, 0
2, 687374, Note_on_c, 0, 50, 56
2, 687376, Note_on_c, 0, 47, 33
2, 687384, Note_on_c, 0, 41, 44
2, 687414, Control_c, 0, 64, 0
2, 687424, Note_on_c, 0, 48, 0
2, 687492, Note_on_c, 0, 51, 0
2, 687814, Control_c, 0, 64, 127
2, 687844, Note_on_c, 0, 41, 0
2, 687856, Note_on_c, 0, 31, 0
2, 687876, Note_on_c, 0, 47, 0
2, 688526, Note_on_c, 0, 48, 127
2, 688531, Note_on_c, 0, 39, 127
2, 688536, Note_on_c, 0, 36, 127
2, 688802, Note_on_c, 0, 50, 0
2, 688874, Control_c, 0, 64, 0
2, 689366, Control_c, 0, 64, 127
2, 689648, Note_on_c, 0, 48, 0
2, 689666, Note_on_c, 0, 50, 89
2, 689740, Note_on_c, 0, 50, 0
2, 689748, Note_on_c, 0, 51, 97
2, 689786, Note_on_c, 0, 51, 0
2, 689828, Note_on_c, 0, 53, 111
2, 689902, Note_on_c, 0, 55, 116
2, 689928, Note_on_c, 0, 53, 0
2, 689966, Note_on_c, 0, 57, 113
2, 690010, Note_on_c, 0, 55, 0
2, 690038, Note_on_c, 0, 59, 101
2, 690074, Note_on_c, 0, 57, 0
2, 690110, Note_on_c, 0, 60, 127
2, 690134, Control_c, 0, 64, 0
2, 690154, Note_on_c, 0, 59, 0
2, 690348, Control_c, 0, 64, 127
2, 690392, Note_on_c, 0, 39, 0
2, 690392, Note_on_c, 0, 62, 82
2, 690426, Note_on_c, 0, 60, 0
2, 690432, Note_on_c, 0, 36, 0
2, 690454, Note_on_c, 0, 63, 102
2, 690488, Note_on_c, 0, 63, 0
2, 690496, Note_on_c, 0, 62, 0
2, 690532, Note_on_c, 0, 65, 116
2, 690606, Note_on_c, 0, 67, 124
2, 690626, Note_on_c, 0, 65, 0
2, 690666, Note_on_c, 0, 69, 113
2, 690716, Note_on_c, 0, 67, 0
2, 690748, Note_on_c, 0, 71, 100
2, 690778, Note_on_c, 0, 69, 0
2, 690808, Note_on_c, 0, 71, 0
2, 690824, Note_on_c, 0, 72, 127
2, 690888, Control_c, 0, 64, 0
2, 691086, Control_c, 0, 64, 127
2, 691088, Note_on_c, 0, 74, 118
2, 691116, Note_on_c, 0, 72, 0
2, 691168, Note_on_c, 0, 75, 112
2, 691200, Note_on_c, 0, 74, 0
2, 691220, Note_on_c, 0, 75, 0
2, 691250, Note_on_c, 0, 77, 125
2, 691320, Note_on_c, 0, 79, 127
2, 691370, Note_on_c, 0, 77, 0
2, 691396, Note_on_c, 0, 81, 123
2, 691484, Note_on_c, 0, 83, 111
2, 691498, Note_on_c, 0, 79, 0
2, 691548, Note_on_c, 0, 60, 127
2, 691548, Note_on_c, 0, 48, 127
2, 691551, Note_on_c, 0, 84, 127
2, 691554, Note_on_c, 0, 51, 115
2, 691560, Note_on_c, 0, 55, 121
2, 691628, Note_on_c, 0, 81, 0
2, 691676, Note_on_c, 0, 83, 0
2, 691716, Control_c, 0, 64, 0
2, 692132, Control_c, 0, 64, 127
2, 692232, Note_on_c, 0, 60, 0
2, 692238, Note_on_c, 0, 48, 0
2, 692240, Note_on_c, 0, 55, 0
2, 692256, Note_on_c, 0, 51, 0
2, 692286, Note_on_c, 0, 84, 0
2, 693422, Control_c, 0, 64, 0
2, 695040, Control_c, 0, 64, 0
2, 698880, Control_c, 0, 64, 0
2, 698880, End_track
0, 0, End_of_file
