0, 0, Header, 1, 5, 384
1, 0, Start_track
1, 0, Title_t, "        "
1, 0, Sequencer_specific, 3, 0, 0, 65
1, 0, Time_signature, 6, 3, 12, 8
1, 0, Key_signature, 0, "major"
1, 0, Tempo, 1200000
1, 0, End_track
2, 0, Start_track
2, 0, Title_t, "Mozart"
2, 0, Control_c, 0, 0, 0
2, 0, Control_c, 0, 7, 110
2, 0, Control_c, 0, 10, 89
2, 0, Control_c, 0, 91, 67
2, 0, Control_c, 0, 93, 48
2, 0, Control_c, 0, 121, 0
2, 0, Control_c, 0, 32, 0
2, 1, Program_c, 0, 0
2, 192, Control_c, 0, 10, 83
2, 240, Control_c, 0, 91, 63
2, 288, Control_c, 0, 93, 40
2, 336, Program_c, 0, 0
2, 1152, Note_on_c, 0, 73, 72
2, 1436, Note_on_c, 0, 73, 0
2, 1440, Note_on_c, 0, 74, 72
2, 1532, Note_on_c, 0, 74, 0
2, 1536, Note_on_c, 0, 73, 72
2, 1724, Note_on_c, 0, 73, 0
2, 1728, Note_on_c, 0, 73, 72
2, 1916, Note_on_c, 0, 73, 0
2, 1920, Note_on_c, 0, 78, 72
2, 2108, Note_on_c, 0, 78, 0
2, 2112, Note_on_c, 0, 81, 72
2, 2300, Note_on_c, 0, 81, 0
2, 2304, Note_on_c, 0, 81, 78
2, 2492, Note_on_c, 0, 81, 0
2, 2496, Note_on_c, 0, 71, 78
2, 2684, Note_on_c, 0, 71, 0
2, 2688, Note_on_c, 0, 80, 78
2, 2876, Note_on_c, 0, 80, 0
2, 3072, Note_on_c, 0, 71, 78
2, 3452, Note_on_c, 0, 71, 0
2, 3456, Note_on_c, 0, 71, 85
2, 3548, Note_on_c, 0, 71, 0
2, 3552, Note_on_c, 0, 69, 85
2, 3644, Note_on_c, 0, 69, 0
2, 3648, Note_on_c, 0, 78, 85
2, 4028, Note_on_c, 0, 78, 0
2, 4032, Note_on_c, 0, 78, 85
2, 4220, Note_on_c, 0, 78, 0
2, 4224, Note_on_c, 0, 68, 85
2, 4412, Note_on_c, 0, 68, 0
2, 4416, Note_on_c, 0, 74, 85
2, 4604, Note_on_c, 0, 74, 0
2, 4608, Note_on_c, 0, 66, 85
2, 4988, Note_on_c, 0, 66, 0
2, 4992, Note_on_c, 0, 65, 85
2, 5036, Note_on_c, 0, 65, 0
2, 5040, Note_on_c, 0, 66, 85
2, 5084, Note_on_c, 0, 66, 0
2, 5088, Note_on_c, 0, 68, 85
2, 5132, Note_on_c, 0, 68, 0
2, 5136, Note_on_c, 0, 66, 85
2, 5180, Note_on_c, 0, 66, 0
2, 5184, Note_on_c, 0, 65, 85
2, 5372, Note_on_c, 0, 65, 0
2, 5760, Note_on_c, 0, 74, 85
2, 6044, Note_on_c, 0, 74, 0
2, 6048, Note_on_c, 0, 76, 85
2, 6140, Note_on_c, 0, 76, 0
2, 6144, Note_on_c, 0, 74, 85
2, 6332, Note_on_c, 0, 74, 0
2, 6336, Note_on_c, 0, 74, 85
2, 6380, Note_on_c, 0, 74, 0
2, 6384, Note_on_c, 0, 76, 85
2, 6428, Note_on_c, 0, 76, 0
2, 6432, Note_on_c, 0, 78, 85
2, 6624, Note_on_c, 0, 76, 85
2, 6716, Note_on_c, 0, 76, 0
2, 6716, Note_on_c, 0, 78, 0
2, 6720, Note_on_c, 0, 74, 85
2, 6908, Note_on_c, 0, 74, 0
2, 6912, Note_on_c, 0, 72, 85
2, 7484, Note_on_c, 0, 72, 0
2, 7488, Note_on_c, 0, 73, 85
2, 7676, Note_on_c, 0, 73, 0
2, 8064, Note_on_c, 0, 73, 85
2, 8156, Note_on_c, 0, 73, 0
2, 8160, Note_on_c, 0, 71, 85
2, 8252, Note_on_c, 0, 71, 0
2, 8256, Note_on_c, 0, 70, 85
2, 8348, Note_on_c, 0, 70, 0
2, 8352, Note_on_c, 0, 71, 85
2, 8444, Note_on_c, 0, 71, 0
2, 8448, Note_on_c, 0, 70, 85
2, 8540, Note_on_c, 0, 70, 0
2, 8544, Note_on_c, 0, 71, 85
2, 8636, Note_on_c, 0, 71, 0
2, 8640, Note_on_c, 0, 81, 85
2, 8732, Note_on_c, 0, 81, 0
2, 8736, Note_on_c, 0, 80, 85
2, 8828, Note_on_c, 0, 80, 0
2, 8832, Note_on_c, 0, 78, 85
2, 8924, Note_on_c, 0, 78, 0
2, 8928, Note_on_c, 0, 77, 85
2, 9020, Note_on_c, 0, 77, 0
2, 9024, Note_on_c, 0, 74, 85
2, 9116, Note_on_c, 0, 74, 0
2, 9120, Note_on_c, 0, 73, 85
2, 9212, Note_on_c, 0, 73, 0
2, 9216, Note_on_c, 0, 71, 85
2, 9596, Note_on_c, 0, 71, 0
2, 9600, Note_on_c, 0, 70, 85
2, 9788, Note_on_c, 0, 70, 0
2, 9792, Note_on_c, 0, 69, 85
2, 9980, Note_on_c, 0, 69, 0
2, 10368, Note_on_c, 0, 67, 85
2, 10652, Note_on_c, 0, 67, 0
2, 10656, Note_on_c, 0, 69, 85
2, 10748, Note_on_c, 0, 69, 0
2, 10752, Note_on_c, 0, 67, 85
2, 10940, Note_on_c, 0, 67, 0
2, 10944, Note_on_c, 0, 67, 85
2, 11324, Note_on_c, 0, 67, 0
2, 11328, Note_on_c, 0, 67, 85
2, 11516, Note_on_c, 0, 67, 0
2, 11520, Note_on_c, 0, 67, 85
2, 11708, Note_on_c, 0, 67, 0
2, 11712, Note_on_c, 0, 71, 85
2, 11900, Note_on_c, 0, 71, 0
2, 11904, Note_on_c, 0, 74, 85
2, 12092, Note_on_c, 0, 74, 0
2, 12096, Note_on_c, 0, 79, 85
2, 12284, Note_on_c, 0, 79, 0
2, 12288, Note_on_c, 0, 83, 85
2, 12476, Note_on_c, 0, 83, 0
2, 12480, Note_on_c, 0, 86, 85
2, 12668, Note_on_c, 0, 86, 0
2, 12672, Note_on_c, 0, 66, 85
2, 12956, Note_on_c, 0, 66, 0
2, 12960, Note_on_c, 0, 68, 85
2, 13052, Note_on_c, 0, 68, 0
2, 13056, Note_on_c, 0, 66, 85
2, 13244, Note_on_c, 0, 66, 0
2, 13248, Note_on_c, 0, 66, 85
2, 13248, Note_on_c, 0, 69, 85
2, 13628, Note_on_c, 0, 69, 0
2, 13628, Note_on_c, 0, 66, 0
2, 13632, Note_on_c, 0, 65, 85
2, 13632, Note_on_c, 0, 68, 85
2, 13820, Note_on_c, 0, 68, 0
2, 13820, Note_on_c, 0, 65, 0
2, 13824, Note_on_c, 0, 66, 85
2, 14204, Note_on_c, 0, 66, 0
2, 23376, Note_on_c, 0, 73, 72
2, 23420, Note_on_c, 0, 73, 0
2, 23424, Note_on_c, 0, 74, 72
2, 23468, Note_on_c, 0, 74, 0
2, 23472, Note_on_c, 0, 73, 72
2, 23516, Note_on_c, 0, 73, 0
2, 23520, Note_on_c, 0, 72, 72
2, 23564, Note_on_c, 0, 72, 0
2, 23568, Note_on_c, 0, 73, 72
2, 23612, Note_on_c, 0, 73, 0
2, 23616, Note_on_c, 0, 81, 72
2, 23900, Note_on_c, 0, 81, 0
2, 23904, Note_on_c, 0, 80, 72
2, 23996, Note_on_c, 0, 80, 0
2, 24000, Note_on_c, 0, 78, 72
2, 24188, Note_on_c, 0, 78, 0
2, 24192, Note_on_c, 0, 77, 78
2, 24380, Note_on_c, 0, 77, 0
2, 24384, Note_on_c, 0, 76, 78
2, 24572, Note_on_c, 0, 76, 0
2, 24576, Note_on_c, 0, 75, 78
2, 24764, Note_on_c, 0, 75, 0
2, 24768, Note_on_c, 0, 74, 78
2, 24956, Note_on_c, 0, 74, 0
2, 24960, Note_on_c, 0, 73, 78
2, 25148, Note_on_c, 0, 73, 0
2, 25152, Note_on_c, 0, 73, 78
2, 25340, Note_on_c, 0, 73, 0
2, 25344, Note_on_c, 0, 73, 85
2, 25532, Note_on_c, 0, 73, 0
2, 25680, Note_on_c, 0, 73, 85
2, 25724, Note_on_c, 0, 73, 0
2, 25728, Note_on_c, 0, 74, 85
2, 25772, Note_on_c, 0, 74, 0
2, 25776, Note_on_c, 0, 73, 85
2, 25820, Note_on_c, 0, 73, 0
2, 25824, Note_on_c, 0, 72, 85
2, 25868, Note_on_c, 0, 72, 0
2, 25872, Note_on_c, 0, 73, 85
2, 25916, Note_on_c, 0, 73, 0
2, 25920, Note_on_c, 0, 81, 85
2, 26204, Note_on_c, 0, 81, 0
2, 26208, Note_on_c, 0, 80, 85
2, 26300, Note_on_c, 0, 80, 0
2, 26304, Note_on_c, 0, 78, 85
2, 26492, Note_on_c, 0, 78, 0
2, 26496, Note_on_c, 0, 78, 85
2, 26588, Note_on_c, 0, 78, 0
2, 26592, Note_on_c, 0, 77, 85
2, 26684, Note_on_c, 0, 77, 0
2, 26688, Note_on_c, 0, 77, 85
2, 26780, Note_on_c, 0, 77, 0
2, 26784, Note_on_c, 0, 76, 85
2, 26876, Note_on_c, 0, 76, 0
2, 26880, Note_on_c, 0, 75, 85
2, 26972, Note_on_c, 0, 75, 0
2, 26976, Note_on_c, 0, 74, 85
2, 27068, Note_on_c, 0, 74, 0
2, 27072, Note_on_c, 0, 74, 85
2, 27164, Note_on_c, 0, 74, 0
2, 27168, Note_on_c, 0, 73, 85
2, 27260, Note_on_c, 0, 73, 0
2, 27264, Note_on_c, 0, 73, 85
2, 27356, Note_on_c, 0, 73, 0
2, 27360, Note_on_c, 0, 73, 85
2, 27452, Note_on_c, 0, 73, 0
2, 27456, Note_on_c, 0, 73, 85
2, 27548, Note_on_c, 0, 73, 0
2, 27552, Note_on_c, 0, 73, 85
2, 27644, Note_on_c, 0, 73, 0
2, 27648, Note_on_c, 0, 73, 85
2, 27836, Note_on_c, 0, 73, 0
2, 27984, Note_on_c, 0, 73, 85
2, 28028, Note_on_c, 0, 73, 0
2, 28032, Note_on_c, 0, 74, 85
2, 28076, Note_on_c, 0, 74, 0
2, 28080, Note_on_c, 0, 73, 85
2, 28124, Note_on_c, 0, 73, 0
2, 28128, Note_on_c, 0, 72, 85
2, 28172, Note_on_c, 0, 72, 0
2, 28176, Note_on_c, 0, 73, 85
2, 28220, Note_on_c, 0, 73, 0
2, 28224, Note_on_c, 0, 81, 85
2, 28508, Note_on_c, 0, 81, 0
2, 28512, Note_on_c, 0, 80, 85
2, 28604, Note_on_c, 0, 80, 0
2, 28608, Note_on_c, 0, 78, 85
2, 28796, Note_on_c, 0, 78, 0
2, 28800, Note_on_c, 0, 78, 85
2, 28892, Note_on_c, 0, 78, 0
2, 28896, Note_on_c, 0, 76, 85
2, 28988, Note_on_c, 0, 76, 0
2, 28992, Note_on_c, 0, 76, 85
2, 29180, Note_on_c, 0, 76, 0
2, 29184, Note_on_c, 0, 76, 85
2, 29372, Note_on_c, 0, 76, 0
2, 29376, Note_on_c, 0, 76, 85
2, 29564, Note_on_c, 0, 76, 0
2, 29568, Note_on_c, 0, 78, 85
2, 29756, Note_on_c, 0, 78, 0
2, 29760, Note_on_c, 0, 74, 85
2, 29948, Note_on_c, 0, 74, 0
2, 29952, Note_on_c, 0, 73, 85
2, 30140, Note_on_c, 0, 73, 0
2, 30336, Note_on_c, 0, 76, 85
2, 30524, Note_on_c, 0, 76, 0
2, 30528, Note_on_c, 0, 76, 85
2, 30812, Note_on_c, 0, 76, 0
2, 30816, Note_on_c, 0, 74, 85
2, 30908, Note_on_c, 0, 74, 0
2, 30912, Note_on_c, 0, 73, 85
2, 31100, Note_on_c, 0, 73, 0
2, 31104, Note_on_c, 0, 71, 85
2, 31292, Note_on_c, 0, 71, 0
2, 31296, Note_on_c, 0, 74, 85
2, 31484, Note_on_c, 0, 74, 0
2, 31488, Note_on_c, 0, 78, 85
2, 31676, Note_on_c, 0, 78, 0
2, 31680, Note_on_c, 0, 81, 85
2, 31868, Note_on_c, 0, 81, 0
2, 32064, Note_on_c, 0, 73, 85
2, 32252, Note_on_c, 0, 73, 0
2, 32256, Note_on_c, 0, 76, 85
2, 32540, Note_on_c, 0, 76, 0
2, 32544, Note_on_c, 0, 73, 85
2, 32636, Note_on_c, 0, 73, 0
2, 32640, Note_on_c, 0, 71, 85
2, 32828, Note_on_c, 0, 71, 0
2, 32928, Note_on_c, 0, 64, 85
2, 33020, Note_on_c, 0, 64, 0
2, 33024, Note_on_c, 0, 68, 85
2, 33104, Note_on_c, 0, 71, 85
2, 33116, Note_on_c, 0, 68, 0
2, 33196, Note_on_c, 0, 71, 0
2, 33216, Note_on_c, 0, 76, 85
2, 33308, Note_on_c, 0, 76, 0
2, 33312, Note_on_c, 0, 71, 85
2, 33404, Note_on_c, 0, 71, 0
2, 33408, Note_on_c, 0, 74, 85
2, 33596, Note_on_c, 0, 74, 0
2, 33600, Note_on_c, 0, 72, 85
2, 33788, Note_on_c, 0, 72, 0
2, 34080, Note_on_c, 0, 64, 85
2, 34172, Note_on_c, 0, 64, 0
2, 34176, Note_on_c, 0, 69, 85
2, 34268, Note_on_c, 0, 69, 0
2, 34272, Note_on_c, 0, 72, 85
2, 34364, Note_on_c, 0, 72, 0
2, 34368, Note_on_c, 0, 76, 85
2, 34460, Note_on_c, 0, 76, 0
2, 34464, Note_on_c, 0, 72, 85
2, 34556, Note_on_c, 0, 72, 0
2, 34560, Note_on_c, 0, 70, 85
2, 34748, Note_on_c, 0, 70, 0
2, 34752, Note_on_c, 0, 71, 85
2, 34940, Note_on_c, 0, 71, 0
2, 35328, Note_on_c, 0, 64, 85
2, 35516, Note_on_c, 0, 64, 0
2, 35520, Note_on_c, 0, 88, 85
2, 35708, Note_on_c, 0, 88, 0
2, 35712, Note_on_c, 0, 88, 85
2, 35904, Note_on_c, 0, 87, 85
2, 36092, Note_on_c, 0, 87, 0
2, 36092, Note_on_c, 0, 88, 0
2, 36576, Note_on_c, 0, 69, 85
2, 36668, Note_on_c, 0, 69, 0
2, 36672, Note_on_c, 0, 72, 85
2, 36764, Note_on_c, 0, 72, 0
2, 36768, Note_on_c, 0, 69, 85
2, 36860, Note_on_c, 0, 69, 0
2, 36864, Note_on_c, 0, 76, 85
2, 37244, Note_on_c, 0, 76, 0
2, 37728, Note_on_c, 0, 81, 85
2, 37820, Note_on_c, 0, 81, 0
2, 37824, Note_on_c, 0, 84, 85
2, 37916, Note_on_c, 0, 84, 0
2, 37920, Note_on_c, 0, 81, 85
2, 38012, Note_on_c, 0, 81, 0
2, 38016, Note_on_c, 0, 88, 85
2, 38396, Note_on_c, 0, 88, 0
2, 38880, Note_on_c, 0, 69, 85
2, 38972, Note_on_c, 0, 69, 0
2, 38976, Note_on_c, 0, 72, 85
2, 39068, Note_on_c, 0, 72, 0
2, 39072, Note_on_c, 0, 69, 85
2, 39164, Note_on_c, 0, 69, 0
2, 39168, Note_on_c, 0, 76, 85
2, 39356, Note_on_c, 0, 76, 0
2, 39360, Note_on_c, 0, 76, 85
2, 39548, Note_on_c, 0, 76, 0
2, 39552, Note_on_c, 0, 76, 85
2, 39740, Note_on_c, 0, 76, 0
2, 39744, Note_on_c, 0, 75, 85
2, 39836, Note_on_c, 0, 75, 0
2, 39840, Note_on_c, 0, 76, 85
2, 39932, Note_on_c, 0, 76, 0
2, 39936, Note_on_c, 0, 78, 85
2, 40028, Note_on_c, 0, 78, 0
2, 40032, Note_on_c, 0, 76, 85
2, 40124, Note_on_c, 0, 76, 0
2, 40128, Note_on_c, 0, 74, 85
2, 40220, Note_on_c, 0, 74, 0
2, 40224, Note_on_c, 0, 71, 85
2, 40316, Note_on_c, 0, 71, 0
2, 40320, Note_on_c, 0, 69, 85
2, 40700, Note_on_c, 0, 69, 0
2, 44448, Note_on_c, 0, 70, 87
2, 44540, Note_on_c, 0, 70, 0
2, 44544, Note_on_c, 0, 71, 87
2, 44636, Note_on_c, 0, 71, 0
2, 44640, Note_on_c, 0, 73, 87
2, 44732, Note_on_c, 0, 73, 0
2, 44736, Note_on_c, 0, 74, 87
2, 44828, Note_on_c, 0, 74, 0
2, 44832, Note_on_c, 0, 75, 87
2, 44924, Note_on_c, 0, 75, 0
2, 44928, Note_on_c, 0, 76, 90
2, 45500, Note_on_c, 0, 76, 0
2, 45504, Note_on_c, 0, 73, 85
2, 45884, Note_on_c, 0, 73, 0
2, 45888, Note_on_c, 0, 74, 85
2, 45932, Note_on_c, 0, 74, 0
2, 45936, Note_on_c, 0, 73, 85
2, 45980, Note_on_c, 0, 73, 0
2, 45984, Note_on_c, 0, 71, 85
2, 46028, Note_on_c, 0, 71, 0
2, 46032, Note_on_c, 0, 73, 85
2, 46076, Note_on_c, 0, 73, 0
2, 46080, Note_on_c, 0, 74, 85
2, 46080, Note_on_c, 0, 71, 85
2, 46268, Note_on_c, 0, 71, 0
2, 46268, Note_on_c, 0, 74, 0
2, 46272, Note_on_c, 0, 74, 85
2, 46272, Note_on_c, 0, 71, 85
2, 46460, Note_on_c, 0, 71, 0
2, 46460, Note_on_c, 0, 74, 0
2, 46464, Note_on_c, 0, 74, 85
2, 46464, Note_on_c, 0, 71, 85
2, 46652, Note_on_c, 0, 71, 0
2, 46652, Note_on_c, 0, 74, 0
2, 46656, Note_on_c, 0, 74, 85
2, 46656, Note_on_c, 0, 71, 85
2, 46844, Note_on_c, 0, 71, 0
2, 46844, Note_on_c, 0, 74, 0
2, 47424, Note_on_c, 0, 73, 85
2, 47612, Note_on_c, 0, 73, 0
2, 47616, Note_on_c, 0, 81, 85
2, 47804, Note_on_c, 0, 81, 0
2, 47904, Note_on_c, 0, 71, 85
2, 47996, Note_on_c, 0, 71, 0
2, 48000, Note_on_c, 0, 73, 85
2, 48092, Note_on_c, 0, 73, 0
2, 48096, Note_on_c, 0, 74, 85
2, 48188, Note_on_c, 0, 74, 0
2, 48192, Note_on_c, 0, 76, 85
2, 48284, Note_on_c, 0, 76, 0
2, 48288, Note_on_c, 0, 78, 85
2, 48380, Note_on_c, 0, 78, 0
2, 48384, Note_on_c, 0, 69, 85
2, 48764, Note_on_c, 0, 69, 0
2, 48768, Note_on_c, 0, 73, 85
2, 48860, Note_on_c, 0, 73, 0
2, 48864, Note_on_c, 0, 71, 85
2, 48956, Note_on_c, 0, 71, 0
2, 48960, Note_on_c, 0, 69, 85
2, 49340, Note_on_c, 0, 69, 0
2, 50160, Note_on_c, 0, 83, 72
2, 50204, Note_on_c, 0, 83, 0
2, 50208, Note_on_c, 0, 86, 72
2, 50252, Note_on_c, 0, 86, 0
2, 50256, Note_on_c, 0, 85, 72
2, 50300, Note_on_c, 0, 85, 0
2, 50304, Note_on_c, 0, 83, 72
2, 50348, Note_on_c, 0, 83, 0
2, 50352, Note_on_c, 0, 81, 72
2, 50396, Note_on_c, 0, 81, 0
2, 50400, Note_on_c, 0, 80, 72
2, 50444, Note_on_c, 0, 80, 0
2, 50448, Note_on_c, 0, 78, 72
2, 50492, Note_on_c, 0, 78, 0
2, 50496, Note_on_c, 0, 76, 72
2, 50540, Note_on_c, 0, 76, 0
2, 50544, Note_on_c, 0, 74, 72
2, 50588, Note_on_c, 0, 74, 0
2, 50592, Note_on_c, 0, 73, 72
2, 50636, Note_on_c, 0, 73, 0
2, 50640, Note_on_c, 0, 71, 72
2, 50684, Note_on_c, 0, 71, 0
2, 51312, Note_on_c, 0, 85, 85
2, 51356, Note_on_c, 0, 85, 0
2, 51360, Note_on_c, 0, 88, 85
2, 51404, Note_on_c, 0, 88, 0
2, 51408, Note_on_c, 0, 86, 85
2, 51452, Note_on_c, 0, 86, 0
2, 51456, Note_on_c, 0, 85, 85
2, 51500, Note_on_c, 0, 85, 0
2, 51504, Note_on_c, 0, 83, 85
2, 51548, Note_on_c, 0, 83, 0
2, 51552, Note_on_c, 0, 81, 85
2, 51596, Note_on_c, 0, 81, 0
2, 51600, Note_on_c, 0, 80, 85
2, 51644, Note_on_c, 0, 80, 0
2, 51648, Note_on_c, 0, 78, 85
2, 51692, Note_on_c, 0, 78, 0
2, 51696, Note_on_c, 0, 76, 85
2, 51740, Note_on_c, 0, 76, 0
2, 51744, Note_on_c, 0, 74, 85
2, 51788, Note_on_c, 0, 74, 0
2, 51792, Note_on_c, 0, 73, 85
2, 51836, Note_on_c, 0, 73, 0
2, 51840, Note_on_c, 0, 71, 85
2, 52028, Note_on_c, 0, 71, 0
2, 52032, Note_on_c, 0, 74, 85
2, 52220, Note_on_c, 0, 74, 0
2, 52224, Note_on_c, 0, 68, 85
2, 52412, Note_on_c, 0, 68, 0
2, 52416, Note_on_c, 0, 69, 85
2, 52508, Note_on_c, 0, 69, 0
2, 52512, Note_on_c, 0, 69, 85
2, 52604, Note_on_c, 0, 69, 0
2, 52608, Note_on_c, 0, 68, 85
2, 52700, Note_on_c, 0, 68, 0
2, 52704, Note_on_c, 0, 69, 85
2, 52796, Note_on_c, 0, 69, 0
2, 52800, Note_on_c, 0, 71, 85
2, 52892, Note_on_c, 0, 71, 0
2, 52896, Note_on_c, 0, 73, 85
2, 52988, Note_on_c, 0, 73, 0
2, 52992, Note_on_c, 0, 76, 85
2, 53084, Note_on_c, 0, 76, 0
2, 53088, Note_on_c, 0, 75, 85
2, 53180, Note_on_c, 0, 75, 0
2, 53184, Note_on_c, 0, 74, 85
2, 53372, Note_on_c, 0, 74, 0
2, 53376, Note_on_c, 0, 73, 85
2, 53564, Note_on_c, 0, 73, 0
2, 53568, Note_on_c, 0, 71, 85
2, 53756, Note_on_c, 0, 71, 0
2, 54144, Note_on_c, 0, 73, 85
2, 54144, Note_on_c, 0, 76, 85
2, 54164, Note_on_c, 0, 76, 0
2, 54168, Note_on_c, 0, 78, 85
2, 54188, Note_on_c, 0, 78, 0
2, 54192, Note_on_c, 0, 78, 85
2, 54212, Note_on_c, 0, 78, 0
2, 54216, Note_on_c, 0, 76, 85
2, 54236, Note_on_c, 0, 76, 0
2, 54240, Note_on_c, 0, 78, 85
2, 54260, Note_on_c, 0, 78, 0
2, 54264, Note_on_c, 0, 76, 85
2, 54284, Note_on_c, 0, 76, 0
2, 54288, Note_on_c, 0, 78, 85
2, 54308, Note_on_c, 0, 78, 0
2, 54312, Note_on_c, 0, 76, 85
2, 54332, Note_on_c, 0, 76, 0
2, 54336, Note_on_c, 0, 78, 85
2, 54356, Note_on_c, 0, 78, 0
2, 54360, Note_on_c, 0, 76, 85
2, 54380, Note_on_c, 0, 76, 0
2, 54384, Note_on_c, 0, 78, 85
2, 54404, Note_on_c, 0, 78, 0
2, 54408, Note_on_c, 0, 76, 85
2, 54428, Note_on_c, 0, 76, 0
2, 54432, Note_on_c, 0, 78, 85
2, 54452, Note_on_c, 0, 78, 0
2, 54456, Note_on_c, 0, 76, 85
2, 54476, Note_on_c, 0, 76, 0
2, 54480, Note_on_c, 0, 78, 85
2, 54500, Note_on_c, 0, 78, 0
2, 54504, Note_on_c, 0, 76, 85
2, 54524, Note_on_c, 0, 76, 0
2, 54524, Note_on_c, 0, 73, 0
2, 54528, Note_on_c, 0, 71, 85
2, 54528, Note_on_c, 0, 78, 85
2, 54620, Note_on_c, 0, 78, 0
2, 54624, Note_on_c, 0, 74, 85
2, 54716, Note_on_c, 0, 74, 0
2, 54716, Note_on_c, 0, 71, 0
2, 54720, Note_on_c, 0, 73, 85
2, 54720, Note_on_c, 0, 69, 85
2, 54908, Note_on_c, 0, 69, 0
2, 54908, Note_on_c, 0, 73, 0
2, 55296, Note_on_c, 0, 71, 85
2, 55676, Note_on_c, 0, 71, 0
2, 55680, Note_on_c, 0, 78, 85
2, 55868, Note_on_c, 0, 78, 0
2, 55872, Note_on_c, 0, 78, 85
2, 56156, Note_on_c, 0, 78, 0
2, 56160, Note_on_c, 0, 80, 85
2, 56204, Note_on_c, 0, 80, 0
2, 56208, Note_on_c, 0, 81, 85
2, 56252, Note_on_c, 0, 81, 0
2, 56256, Note_on_c, 0, 80, 85
2, 56348, Note_on_c, 0, 80, 0
2, 56352, Note_on_c, 0, 78, 85
2, 56444, Note_on_c, 0, 78, 0
2, 56448, Note_on_c, 0, 76, 85
2, 56636, Note_on_c, 0, 76, 0
2, 56640, Note_on_c, 0, 88, 85
2, 57020, Note_on_c, 0, 88, 0
2, 57024, Note_on_c, 0, 88, 85
2, 57116, Note_on_c, 0, 88, 0
2, 57120, Note_on_c, 0, 85, 85
2, 57212, Note_on_c, 0, 85, 0
2, 57216, Note_on_c, 0, 81, 85
2, 57308, Note_on_c, 0, 81, 0
2, 57312, Note_on_c, 0, 76, 85
2, 57404, Note_on_c, 0, 76, 0
2, 57408, Note_on_c, 0, 73, 85
2, 57500, Note_on_c, 0, 73, 0
2, 57504, Note_on_c, 0, 69, 85
2, 57596, Note_on_c, 0, 69, 0
2, 57600, Note_on_c, 0, 71, 85
2, 57620, Note_on_c, 0, 71, 0
2, 57624, Note_on_c, 0, 73, 85
2, 57644, Note_on_c, 0, 73, 0
2, 57648, Note_on_c, 0, 71, 85
2, 57668, Note_on_c, 0, 71, 0
2, 57672, Note_on_c, 0, 73, 85
2, 57692, Note_on_c, 0, 73, 0
2, 57696, Note_on_c, 0, 71, 85
2, 57716, Note_on_c, 0, 71, 0
2, 57720, Note_on_c, 0, 73, 85
2, 57740, Note_on_c, 0, 73, 0
2, 57744, Note_on_c, 0, 71, 85
2, 57764, Note_on_c, 0, 71, 0
2, 57768, Note_on_c, 0, 73, 85
2, 57788, Note_on_c, 0, 73, 0
2, 57792, Note_on_c, 0, 71, 85
2, 57812, Note_on_c, 0, 71, 0
2, 57816, Note_on_c, 0, 73, 85
2, 57836, Note_on_c, 0, 73, 0
2, 57840, Note_on_c, 0, 71, 85
2, 57860, Note_on_c, 0, 71, 0
2, 57864, Note_on_c, 0, 73, 85
2, 57884, Note_on_c, 0, 73, 0
2, 57888, Note_on_c, 0, 71, 85
2, 57908, Note_on_c, 0, 71, 0
2, 57912, Note_on_c, 0, 73, 85
2, 57932, Note_on_c, 0, 73, 0
2, 57936, Note_on_c, 0, 71, 85
2, 57956, Note_on_c, 0, 71, 0
2, 57960, Note_on_c, 0, 73, 85
2, 57980, Note_on_c, 0, 73, 0
2, 57984, Note_on_c, 0, 71, 85
2, 58004, Note_on_c, 0, 71, 0
2, 58008, Note_on_c, 0, 73, 85
2, 58028, Note_on_c, 0, 73, 0
2, 58032, Note_on_c, 0, 71, 85
2, 58052, Note_on_c, 0, 71, 0
2, 58056, Note_on_c, 0, 73, 85
2, 58076, Note_on_c, 0, 73, 0
2, 58080, Note_on_c, 0, 71, 85
2, 58100, Note_on_c, 0, 71, 0
2, 58104, Note_on_c, 0, 73, 85
2, 58124, Note_on_c, 0, 73, 0
2, 58128, Note_on_c, 0, 71, 85
2, 58148, Note_on_c, 0, 71, 0
2, 58152, Note_on_c, 0, 73, 85
2, 58172, Note_on_c, 0, 73, 0
2, 58176, Note_on_c, 0, 71, 85
2, 58196, Note_on_c, 0, 71, 0
2, 58200, Note_on_c, 0, 73, 85
2, 58220, Note_on_c, 0, 73, 0
2, 58224, Note_on_c, 0, 71, 85
2, 58244, Note_on_c, 0, 71, 0
2, 58248, Note_on_c, 0, 73, 85
2, 58268, Note_on_c, 0, 73, 0
2, 58272, Note_on_c, 0, 71, 85
2, 58292, Note_on_c, 0, 71, 0
2, 58296, Note_on_c, 0, 73, 85
2, 58316, Note_on_c, 0, 73, 0
2, 58320, Note_on_c, 0, 71, 85
2, 58340, Note_on_c, 0, 71, 0
2, 58344, Note_on_c, 0, 73, 85
2, 58364, Note_on_c, 0, 73, 0
2, 58368, Note_on_c, 0, 71, 85
2, 58388, Note_on_c, 0, 71, 0
2, 58392, Note_on_c, 0, 73, 85
2, 58412, Note_on_c, 0, 73, 0
2, 58416, Note_on_c, 0, 71, 85
2, 58436, Note_on_c, 0, 71, 0
2, 58440, Note_on_c, 0, 73, 85
2, 58460, Note_on_c, 0, 73, 0
2, 58464, Note_on_c, 0, 71, 85
2, 58484, Note_on_c, 0, 71, 0
2, 58488, Note_on_c, 0, 73, 85
2, 58508, Note_on_c, 0, 73, 0
2, 58512, Note_on_c, 0, 69, 85
2, 58532, Note_on_c, 0, 69, 0
2, 58536, Note_on_c, 0, 71, 85
2, 58556, Note_on_c, 0, 71, 0
2, 58560, Note_on_c, 0, 69, 85
2, 58652, Note_on_c, 0, 69, 0
2, 58656, Note_on_c, 0, 71, 85
2, 58748, Note_on_c, 0, 71, 0
2, 58752, Note_on_c, 0, 69, 85
2, 59132, Note_on_c, 0, 69, 0
2, 61056, Note_on_c, 0, 73, 72
2, 61340, Note_on_c, 0, 73, 0
2, 61344, Note_on_c, 0, 74, 72
2, 61436, Note_on_c, 0, 74, 0
2, 61440, Note_on_c, 0, 73, 72
2, 61628, Note_on_c, 0, 73, 0
2, 61632, Note_on_c, 0, 73, 72
2, 61820, Note_on_c, 0, 73, 0
2, 61824, Note_on_c, 0, 78, 72
2, 62012, Note_on_c, 0, 78, 0
2, 62016, Note_on_c, 0, 81, 72
2, 62204, Note_on_c, 0, 81, 0
2, 62208, Note_on_c, 0, 81, 78
2, 62396, Note_on_c, 0, 81, 0
2, 62400, Note_on_c, 0, 71, 78
2, 62588, Note_on_c, 0, 71, 0
2, 62592, Note_on_c, 0, 80, 78
2, 62780, Note_on_c, 0, 80, 0
2, 62976, Note_on_c, 0, 71, 78
2, 63356, Note_on_c, 0, 71, 0
2, 63360, Note_on_c, 0, 71, 85
2, 63452, Note_on_c, 0, 71, 0
2, 63456, Note_on_c, 0, 69, 85
2, 63548, Note_on_c, 0, 69, 0
2, 63552, Note_on_c, 0, 78, 85
2, 63932, Note_on_c, 0, 78, 0
2, 63936, Note_on_c, 0, 78, 85
2, 64124, Note_on_c, 0, 78, 0
2, 64128, Note_on_c, 0, 68, 85
2, 64316, Note_on_c, 0, 68, 0
2, 64320, Note_on_c, 0, 74, 85
2, 64508, Note_on_c, 0, 74, 0
2, 64512, Note_on_c, 0, 66, 85
2, 64892, Note_on_c, 0, 66, 0
2, 64896, Note_on_c, 0, 65, 85
2, 64940, Note_on_c, 0, 65, 0
2, 64944, Note_on_c, 0, 66, 85
2, 64988, Note_on_c, 0, 66, 0
2, 64992, Note_on_c, 0, 68, 85
2, 65036, Note_on_c, 0, 68, 0
2, 65040, Note_on_c, 0, 66, 85
2, 65084, Note_on_c, 0, 66, 0
2, 65088, Note_on_c, 0, 65, 85
2, 65276, Note_on_c, 0, 65, 0
2, 65664, Note_on_c, 0, 74, 85
2, 65948, Note_on_c, 0, 74, 0
2, 65952, Note_on_c, 0, 76, 85
2, 66044, Note_on_c, 0, 76, 0
2, 66048, Note_on_c, 0, 74, 85
2, 66236, Note_on_c, 0, 74, 0
2, 66240, Note_on_c, 0, 74, 85
2, 66272, Note_on_c, 0, 76, 85
2, 66308, Note_on_c, 0, 74, 0
2, 66336, Note_on_c, 0, 78, 85
2, 66340, Note_on_c, 0, 76, 0
2, 66528, Note_on_c, 0, 76, 85
2, 66620, Note_on_c, 0, 76, 0
2, 66620, Note_on_c, 0, 78, 0
2, 66624, Note_on_c, 0, 74, 85
2, 66812, Note_on_c, 0, 74, 0
2, 66816, Note_on_c, 0, 72, 85
2, 67388, Note_on_c, 0, 72, 0
2, 67392, Note_on_c, 0, 73, 85
2, 67580, Note_on_c, 0, 73, 0
2, 67968, Note_on_c, 0, 73, 85
2, 68060, Note_on_c, 0, 73, 0
2, 68064, Note_on_c, 0, 71, 85
2, 68156, Note_on_c, 0, 71, 0
2, 68160, Note_on_c, 0, 70, 85
2, 68252, Note_on_c, 0, 70, 0
2, 68256, Note_on_c, 0, 71, 85
2, 68348, Note_on_c, 0, 71, 0
2, 68352, Note_on_c, 0, 70, 85
2, 68444, Note_on_c, 0, 70, 0
2, 68448, Note_on_c, 0, 71, 85
2, 68540, Note_on_c, 0, 71, 0
2, 68544, Note_on_c, 0, 81, 85
2, 68636, Note_on_c, 0, 81, 0
2, 68640, Note_on_c, 0, 80, 85
2, 68732, Note_on_c, 0, 80, 0
2, 68736, Note_on_c, 0, 78, 85
2, 68828, Note_on_c, 0, 78, 0
2, 68832, Note_on_c, 0, 77, 85
2, 68924, Note_on_c, 0, 77, 0
2, 68928, Note_on_c, 0, 74, 85
2, 69020, Note_on_c, 0, 74, 0
2, 69024, Note_on_c, 0, 73, 85
2, 69116, Note_on_c, 0, 73, 0
2, 69120, Note_on_c, 0, 71, 85
2, 69500, Note_on_c, 0, 71, 0
2, 69504, Note_on_c, 0, 70, 85
2, 69692, Note_on_c, 0, 70, 0
2, 69696, Note_on_c, 0, 69, 85
2, 69884, Note_on_c, 0, 69, 0
2, 70272, Note_on_c, 0, 67, 72
2, 70556, Note_on_c, 0, 67, 0
2, 70560, Note_on_c, 0, 69, 72
2, 70652, Note_on_c, 0, 69, 0
2, 70656, Note_on_c, 0, 67, 72
2, 70844, Note_on_c, 0, 67, 0
2, 70848, Note_on_c, 0, 67, 72
2, 71228, Note_on_c, 0, 67, 0
2, 71232, Note_on_c, 0, 67, 72
2, 71420, Note_on_c, 0, 67, 0
2, 71424, Note_on_c, 0, 67, 78
2, 71612, Note_on_c, 0, 67, 0
2, 71616, Note_on_c, 0, 71, 78
2, 71804, Note_on_c, 0, 71, 0
2, 71808, Note_on_c, 0, 74, 78
2, 71996, Note_on_c, 0, 74, 0
2, 72000, Note_on_c, 0, 79, 78
2, 72188, Note_on_c, 0, 79, 0
2, 72192, Note_on_c, 0, 83, 78
2, 72380, Note_on_c, 0, 83, 0
2, 72384, Note_on_c, 0, 86, 78
2, 72572, Note_on_c, 0, 86, 0
2, 72576, Note_on_c, 0, 66, 85
2, 72860, Note_on_c, 0, 66, 0
2, 72864, Note_on_c, 0, 68, 85
2, 72956, Note_on_c, 0, 68, 0
2, 72960, Note_on_c, 0, 66, 85
2, 73148, Note_on_c, 0, 66, 0
2, 73152, Note_on_c, 0, 66, 85
2, 73152, Note_on_c, 0, 69, 85
2, 73532, Note_on_c, 0, 69, 0
2, 73532, Note_on_c, 0, 66, 0
2, 73536, Note_on_c, 0, 65, 85
2, 73536, Note_on_c, 0, 68, 85
2, 73724, Note_on_c, 0, 68, 0
2, 73724, Note_on_c, 0, 65, 0
2, 73728, Note_on_c, 0, 66, 72
2, 74876, Note_on_c, 0, 66, 0
2, 74880, Note_on_c, 0, 67, 85
2, 75164, Note_on_c, 0, 67, 0
2, 75168, Note_on_c, 0, 69, 85
2, 75260, Note_on_c, 0, 69, 0
2, 75264, Note_on_c, 0, 67, 85
2, 75452, Note_on_c, 0, 67, 0
2, 75456, Note_on_c, 0, 67, 85
2, 75644, Note_on_c, 0, 67, 0
2, 75648, Note_on_c, 0, 55, 85
2, 75836, Note_on_c, 0, 55, 0
2, 75840, Note_on_c, 0, 55, 85
2, 76028, Note_on_c, 0, 55, 0
2, 76032, Note_on_c, 0, 55, 80
2, 76604, Note_on_c, 0, 55, 0
2, 76608, Note_on_c, 0, 86, 80
2, 76988, Note_on_c, 0, 86, 0
2, 76992, Note_on_c, 0, 67, 80
2, 77180, Note_on_c, 0, 67, 0
2, 77184, Note_on_c, 0, 66, 85
2, 77468, Note_on_c, 0, 66, 0
2, 77472, Note_on_c, 0, 68, 85
2, 77564, Note_on_c, 0, 68, 0
2, 77568, Note_on_c, 0, 66, 85
2, 77756, Note_on_c, 0, 66, 0
2, 77760, Note_on_c, 0, 69, 85
2, 77760, Note_on_c, 0, 66, 85
2, 78140, Note_on_c, 0, 66, 0
2, 78140, Note_on_c, 0, 69, 0
2, 78144, Note_on_c, 0, 65, 85
2, 78144, Note_on_c, 0, 68, 85
2, 78332, Note_on_c, 0, 68, 0
2, 78332, Note_on_c, 0, 65, 0
2, 78336, Note_on_c, 0, 66, 85
2, 78716, Note_on_c, 0, 66, 0
2, 88128, Note_on_c, 0, 69, 72
2, 88172, Note_on_c, 0, 69, 0
2, 88176, Note_on_c, 0, 81, 72
2, 88704, Note_on_c, 0, 83, 85
2, 88732, Note_on_c, 0, 81, 0
2, 88796, Note_on_c, 0, 83, 0
2, 88800, Note_on_c, 0, 81, 85
2, 88892, Note_on_c, 0, 81, 0
2, 88896, Note_on_c, 0, 81, 85
2, 88988, Note_on_c, 0, 81, 0
2, 88992, Note_on_c, 0, 80, 85
2, 89084, Note_on_c, 0, 80, 0
2, 89088, Note_on_c, 0, 80, 85
2, 89180, Note_on_c, 0, 80, 0
2, 89184, Note_on_c, 0, 78, 85
2, 89276, Note_on_c, 0, 78, 0
2, 89280, Note_on_c, 0, 78, 85
2, 89372, Note_on_c, 0, 78, 0
2, 89376, Note_on_c, 0, 77, 85
2, 89468, Note_on_c, 0, 77, 0
2, 89472, Note_on_c, 0, 77, 85
2, 89564, Note_on_c, 0, 77, 0
2, 89568, Note_on_c, 0, 78, 85
2, 89660, Note_on_c, 0, 78, 0
2, 89664, Note_on_c, 0, 78, 85
2, 89756, Note_on_c, 0, 78, 0
2, 89760, Note_on_c, 0, 80, 85
2, 89852, Note_on_c, 0, 80, 0
2, 89856, Note_on_c, 0, 73, 85
2, 90428, Note_on_c, 0, 73, 0
2, 90432, Note_on_c, 0, 85, 85
2, 91004, Note_on_c, 0, 85, 0
2, 91008, Note_on_c, 0, 85, 85
2, 91100, Note_on_c, 0, 85, 0
2, 91104, Note_on_c, 0, 86, 85
2, 91148, Note_on_c, 0, 86, 0
2, 91152, Note_on_c, 0, 85, 85
2, 91196, Note_on_c, 0, 85, 0
2, 91200, Note_on_c, 0, 83, 85
2, 91388, Note_on_c, 0, 83, 0
2, 91392, Note_on_c, 0, 81, 85
2, 91580, Note_on_c, 0, 81, 0
2, 91584, Note_on_c, 0, 80, 85
2, 91676, Note_on_c, 0, 80, 0
2, 91680, Note_on_c, 0, 81, 85
2, 91702, Note_on_c, 0, 81, 0
2, 91704, Note_on_c, 0, 80, 85
2, 91726, Note_on_c, 0, 80, 0
2, 91728, Note_on_c, 0, 78, 85
2, 91750, Note_on_c, 0, 78, 0
2, 91752, Note_on_c, 0, 80, 85
2, 91774, Note_on_c, 0, 80, 0
2, 91776, Note_on_c, 0, 81, 85
2, 91964, Note_on_c, 0, 81, 0
2, 91968, Note_on_c, 0, 83, 85
2, 92156, Note_on_c, 0, 83, 0
2, 92160, Note_on_c, 0, 77, 85
2, 92540, Note_on_c, 0, 77, 0
2, 92544, Note_on_c, 0, 73, 85
2, 92732, Note_on_c, 0, 73, 0
2, 92736, Note_on_c, 0, 81, 85
2, 93308, Note_on_c, 0, 81, 0
2, 93312, Note_on_c, 0, 87, 85
2, 93884, Note_on_c, 0, 87, 0
2, 93888, Note_on_c, 0, 80, 85
2, 94268, Note_on_c, 0, 80, 0
2, 94464, Note_on_c, 0, 85, 85
2, 95036, Note_on_c, 0, 85, 0
2, 95040, Note_on_c, 0, 78, 85
2, 95420, Note_on_c, 0, 78, 0
2, 95616, Note_on_c, 0, 83, 85
2, 95900, Note_on_c, 0, 83, 0
2, 95904, Note_on_c, 0, 85, 85
2, 95948, Note_on_c, 0, 85, 0
2, 95952, Note_on_c, 0, 86, 85
2, 95996, Note_on_c, 0, 86, 0
2, 96000, Note_on_c, 0, 85, 85
2, 96044, Note_on_c, 0, 85, 0
2, 96048, Note_on_c, 0, 83, 85
2, 96092, Note_on_c, 0, 83, 0
2, 96096, Note_on_c, 0, 81, 85
2, 96140, Note_on_c, 0, 81, 0
2, 96144, Note_on_c, 0, 80, 85
2, 96188, Note_on_c, 0, 80, 0
2, 96192, Note_on_c, 0, 78, 85
2, 96284, Note_on_c, 0, 78, 0
2, 96288, Note_on_c, 0, 77, 85
2, 96380, Note_on_c, 0, 77, 0
2, 96384, Note_on_c, 0, 83, 85
2, 96572, Note_on_c, 0, 83, 0
2, 96576, Note_on_c, 0, 77, 85
2, 96764, Note_on_c, 0, 77, 0
2, 96768, Note_on_c, 0, 78, 85
2, 97148, Note_on_c, 0, 78, 0
2, 97920, Note_on_c, 0, 78, 85
2, 98492, Note_on_c, 0, 78, 0
2, 98496, Note_on_c, 0, 69, 85
2, 99068, Note_on_c, 0, 69, 0
2, 99072, Note_on_c, 0, 68, 85
2, 99644, Note_on_c, 0, 68, 0
2, 99648, Note_on_c, 0, 68, 85
2, 100028, Note_on_c, 0, 68, 0
2, 100032, Note_on_c, 0, 86, 85
2, 100220, Note_on_c, 0, 86, 0
2, 100224, Note_on_c, 0, 85, 85
2, 100796, Note_on_c, 0, 85, 0
2, 100800, Note_on_c, 0, 77, 85
2, 101372, Note_on_c, 0, 77, 0
2, 101376, Note_on_c, 0, 78, 85
2, 101756, Note_on_c, 0, 78, 0
2, 102528, Note_on_c, 0, 78, 85
2, 103100, Note_on_c, 0, 78, 0
2, 103104, Note_on_c, 0, 57, 85
2, 103676, Note_on_c, 0, 57, 0
2, 103680, Note_on_c, 0, 55, 85
2, 104252, Note_on_c, 0, 55, 0
2, 104256, Note_on_c, 0, 55, 85
2, 104636, Note_on_c, 0, 55, 0
2, 104640, Note_on_c, 0, 86, 85
2, 104828, Note_on_c, 0, 86, 0
2, 104832, Note_on_c, 0, 85, 85
2, 105404, Note_on_c, 0, 85, 0
2, 105408, Note_on_c, 0, 77, 85
2, 105980, Note_on_c, 0, 77, 0
2, 105984, Note_on_c, 0, 78, 85
2, 106364, Note_on_c, 0, 78, 0
2, 107808, Note_on_c, 0, 73, 78
2, 107900, Note_on_c, 0, 73, 0
2, 107904, Note_on_c, 0, 85, 78
2, 107996, Note_on_c, 0, 85, 0
2, 108000, Note_on_c, 0, 85, 78
2, 108092, Note_on_c, 0, 85, 0
2, 108096, Note_on_c, 0, 85, 78
2, 108188, Note_on_c, 0, 85, 0
2, 108192, Note_on_c, 0, 85, 78
2, 108284, Note_on_c, 0, 85, 0
2, 108288, Note_on_c, 0, 85, 85
2, 108572, Note_on_c, 0, 85, 0
2, 108576, Note_on_c, 0, 81, 85
2, 108668, Note_on_c, 0, 81, 0
2, 108672, Note_on_c, 0, 78, 85
2, 108860, Note_on_c, 0, 78, 0
2, 110112, Note_on_c, 0, 73, 85
2, 110204, Note_on_c, 0, 73, 0
2, 110208, Note_on_c, 0, 85, 85
2, 110300, Note_on_c, 0, 85, 0
2, 110304, Note_on_c, 0, 85, 85
2, 110396, Note_on_c, 0, 85, 0
2, 110400, Note_on_c, 0, 85, 85
2, 110492, Note_on_c, 0, 85, 0
2, 110496, Note_on_c, 0, 85, 85
2, 110588, Note_on_c, 0, 85, 0
2, 110592, Note_on_c, 0, 85, 78
2, 110876, Note_on_c, 0, 85, 0
2, 110880, Note_on_c, 0, 81, 78
2, 110972, Note_on_c, 0, 81, 0
2, 110976, Note_on_c, 0, 78, 78
2, 111164, Note_on_c, 0, 78, 0
2, 111840, Note_on_c, 0, 73, 72
2, 111932, Note_on_c, 0, 73, 0
2, 111936, Note_on_c, 0, 85, 72
2, 112028, Note_on_c, 0, 85, 0
2, 112032, Note_on_c, 0, 85, 72
2, 112124, Note_on_c, 0, 85, 0
2, 112128, Note_on_c, 0, 85, 72
2, 112220, Note_on_c, 0, 85, 0
2, 112224, Note_on_c, 0, 85, 72
2, 112316, Note_on_c, 0, 85, 0
2, 112320, Note_on_c, 0, 85, 72
2, 112412, Note_on_c, 0, 85, 0
2, 112416, Note_on_c, 0, 85, 72
2, 112508, Note_on_c, 0, 85, 0
2, 112512, Note_on_c, 0, 85, 72
2, 112604, Note_on_c, 0, 85, 0
2, 112608, Note_on_c, 0, 85, 72
2, 112700, Note_on_c, 0, 85, 0
2, 112704, Note_on_c, 0, 85, 72
2, 112796, Note_on_c, 0, 85, 0
2, 112800, Note_on_c, 0, 85, 72
2, 112892, Note_on_c, 0, 85, 0
2, 112896, Note_on_c, 0, 78, 61
2, 113084, Note_on_c, 0, 78, 0
2, 113280, Note_on_c, 0, 81, 61
2, 113280, Note_on_c, 0, 73, 61
2, 113468, Note_on_c, 0, 73, 0
2, 113468, Note_on_c, 0, 81, 0
2, 113472, Note_on_c, 0, 69, 61
2, 113472, Note_on_c, 0, 78, 61
2, 113660, Note_on_c, 0, 78, 0
2, 113660, Note_on_c, 0, 69, 0
2, 113856, Note_on_c, 0, 81, 61
2, 113856, Note_on_c, 0, 73, 61
2, 114044, Note_on_c, 0, 73, 0
2, 114044, Note_on_c, 0, 81, 0
2, 114048, Note_on_c, 0, 78, 61
2, 114048, Note_on_c, 0, 69, 61
2, 114236, Note_on_c, 0, 69, 0
2, 114236, Note_on_c, 0, 78, 0
2, 114236, End_track
3, 0, Start_track
3, 0, Title_t, "Piano Concerto #23"
3, 0, Control_c, 0, 0, 0
3, 0, Control_c, 0, 7, 110
3, 0, Control_c, 0, 10, 38
3, 0, Control_c, 0, 91, 70
3, 0, Control_c, 0, 93, 52
3, 0, Control_c, 0, 121, 0
3, 0, Control_c, 0, 32, 0
3, 1, Program_c, 0, 0
3, 192, Control_c, 0, 10, 83
3, 240, Control_c, 0, 91, 63
3, 288, Control_c, 0, 93, 40
3, 336, Program_c, 0, 0
3, 1152, Note_on_c, 0, 57, 67
3, 1152, Note_on_c, 0, 54, 67
3, 1532, Note_on_c, 0, 54, 0
3, 1532, Note_on_c, 0, 57, 0
3, 1536, Note_on_c, 0, 57, 67
3, 1536, Note_on_c, 0, 54, 67
3, 1724, Note_on_c, 0, 54, 0
3, 1724, Note_on_c, 0, 57, 0
3, 1728, Note_on_c, 0, 57, 67
3, 1728, Note_on_c, 0, 54, 67
3, 2108, Note_on_c, 0, 54, 0
3, 2108, Note_on_c, 0, 57, 0
3, 2112, Note_on_c, 0, 54, 67
3, 2112, Note_on_c, 0, 61, 67
3, 2300, Note_on_c, 0, 61, 0
3, 2300, Note_on_c, 0, 54, 0
3, 2304, Note_on_c, 0, 62, 73
3, 2304, Note_on_c, 0, 54, 73
3, 2588, Note_on_c, 0, 54, 0
3, 2588, Note_on_c, 0, 62, 0
3, 2880, Note_on_c, 0, 41, 73
3, 3068, Note_on_c, 0, 41, 0
3, 3264, Note_on_c, 0, 61, 73
3, 3264, Note_on_c, 0, 53, 73
3, 3452, Note_on_c, 0, 53, 0
3, 3452, Note_on_c, 0, 61, 0
3, 3456, Note_on_c, 0, 61, 80
3, 3456, Note_on_c, 0, 54, 80
3, 3836, Note_on_c, 0, 54, 0
3, 3836, Note_on_c, 0, 61, 0
3, 3840, Note_on_c, 0, 49, 80
3, 3840, Note_on_c, 0, 45, 80
3, 4028, Note_on_c, 0, 45, 0
3, 4028, Note_on_c, 0, 49, 0
3, 4032, Note_on_c, 0, 47, 80
3, 4032, Note_on_c, 0, 50, 80
3, 4412, Note_on_c, 0, 50, 0
3, 4416, Note_on_c, 0, 59, 80
3, 4604, Note_on_c, 0, 59, 0
3, 4604, Note_on_c, 0, 47, 0
3, 4608, Note_on_c, 0, 57, 80
3, 4608, Note_on_c, 0, 49, 80
3, 5180, Note_on_c, 0, 49, 0
3, 5180, Note_on_c, 0, 57, 0
3, 5184, Note_on_c, 0, 56, 80
3, 5184, Note_on_c, 0, 49, 80
3, 5372, Note_on_c, 0, 49, 0
3, 5372, Note_on_c, 0, 56, 0
3, 5760, Note_on_c, 0, 57, 80
3, 5760, Note_on_c, 0, 54, 80
3, 6140, Note_on_c, 0, 54, 0
3, 6140, Note_on_c, 0, 57, 0
3, 6144, Note_on_c, 0, 57, 80
3, 6144, Note_on_c, 0, 54, 80
3, 6332, Note_on_c, 0, 54, 0
3, 6332, Note_on_c, 0, 57, 0
3, 6336, Note_on_c, 0, 56, 80
3, 6336, Note_on_c, 0, 59, 80
3, 6716, Note_on_c, 0, 59, 0
3, 6716, Note_on_c, 0, 56, 0
3, 6720, Note_on_c, 0, 56, 80
3, 6720, Note_on_c, 0, 59, 80
3, 6908, Note_on_c, 0, 59, 0
3, 6908, Note_on_c, 0, 56, 0
3, 6912, Note_on_c, 0, 64, 80
3, 6912, Note_on_c, 0, 57, 80
3, 7292, Note_on_c, 0, 57, 0
3, 7292, Note_on_c, 0, 64, 0
3, 7296, Note_on_c, 0, 57, 80
3, 7296, Note_on_c, 0, 64, 80
3, 7484, Note_on_c, 0, 64, 0
3, 7484, Note_on_c, 0, 57, 0
3, 7488, Note_on_c, 0, 57, 80
3, 7488, Note_on_c, 0, 54, 80
3, 7868, Note_on_c, 0, 54, 0
3, 7868, Note_on_c, 0, 57, 0
3, 7872, Note_on_c, 0, 57, 80
3, 7872, Note_on_c, 0, 54, 80
3, 8060, Note_on_c, 0, 54, 0
3, 8060, Note_on_c, 0, 57, 0
3, 8064, Note_on_c, 0, 57, 80
3, 8064, Note_on_c, 0, 51, 80
3, 8444, Note_on_c, 0, 51, 0
3, 8444, Note_on_c, 0, 57, 0
3, 8448, Note_on_c, 0, 57, 80
3, 8448, Note_on_c, 0, 51, 80
3, 8636, Note_on_c, 0, 51, 0
3, 8636, Note_on_c, 0, 57, 0
3, 8640, Note_on_c, 0, 56, 80
3, 8640, Note_on_c, 0, 53, 80
3, 9020, Note_on_c, 0, 53, 0
3, 9020, Note_on_c, 0, 56, 0
3, 9024, Note_on_c, 0, 56, 80
3, 9024, Note_on_c, 0, 53, 80
3, 9212, Note_on_c, 0, 53, 0
3, 9212, Note_on_c, 0, 56, 0
3, 9216, Note_on_c, 0, 61, 80
3, 9216, Note_on_c, 0, 54, 80
3, 9596, Note_on_c, 0, 54, 0
3, 9596, Note_on_c, 0, 61, 0
3, 9600, Note_on_c, 0, 54, 80
3, 9600, Note_on_c, 0, 61, 80
3, 9788, Note_on_c, 0, 61, 0
3, 9788, Note_on_c, 0, 54, 0
3, 9792, Note_on_c, 0, 54, 80
3, 9792, Note_on_c, 0, 50, 80
3, 10172, Note_on_c, 0, 50, 0
3, 10172, Note_on_c, 0, 54, 0
3, 10176, Note_on_c, 0, 54, 80
3, 10176, Note_on_c, 0, 50, 80
3, 10364, Note_on_c, 0, 50, 0
3, 10364, Note_on_c, 0, 54, 0
3, 10368, Note_on_c, 0, 55, 80
3, 10368, Note_on_c, 0, 50, 80
3, 10368, Note_on_c, 0, 47, 80
3, 10748, Note_on_c, 0, 47, 0
3, 10748, Note_on_c, 0, 50, 0
3, 10748, Note_on_c, 0, 55, 0
3, 10752, Note_on_c, 0, 55, 80
3, 10752, Note_on_c, 0, 50, 80
3, 10752, Note_on_c, 0, 47, 80
3, 10940, Note_on_c, 0, 47, 0
3, 10940, Note_on_c, 0, 50, 0
3, 10940, Note_on_c, 0, 55, 0
3, 10944, Note_on_c, 0, 55, 80
3, 10944, Note_on_c, 0, 50, 80
3, 10944, Note_on_c, 0, 47, 80
3, 11324, Note_on_c, 0, 47, 0
3, 11324, Note_on_c, 0, 50, 0
3, 11324, Note_on_c, 0, 55, 0
3, 11328, Note_on_c, 0, 55, 80
3, 11328, Note_on_c, 0, 50, 80
3, 11328, Note_on_c, 0, 47, 80
3, 11516, Note_on_c, 0, 47, 0
3, 11516, Note_on_c, 0, 50, 0
3, 11516, Note_on_c, 0, 55, 0
3, 11520, Note_on_c, 0, 55, 80
3, 11520, Note_on_c, 0, 50, 80
3, 11520, Note_on_c, 0, 47, 80
3, 11900, Note_on_c, 0, 47, 0
3, 11900, Note_on_c, 0, 50, 0
3, 11900, Note_on_c, 0, 55, 0
3, 12672, Note_on_c, 0, 57, 80
3, 12672, Note_on_c, 0, 49, 80
3, 13052, Note_on_c, 0, 49, 0
3, 13052, Note_on_c, 0, 57, 0
3, 13056, Note_on_c, 0, 57, 80
3, 13056, Note_on_c, 0, 49, 80
3, 13244, Note_on_c, 0, 49, 0
3, 13244, Note_on_c, 0, 57, 0
3, 13248, Note_on_c, 0, 61, 80
3, 13248, Note_on_c, 0, 49, 80
3, 13628, Note_on_c, 0, 49, 0
3, 13628, Note_on_c, 0, 61, 0
3, 13632, Note_on_c, 0, 59, 80
3, 13632, Note_on_c, 0, 49, 80
3, 13820, Note_on_c, 0, 49, 0
3, 13820, Note_on_c, 0, 59, 0
3, 13824, Note_on_c, 0, 57, 80
3, 13824, Note_on_c, 0, 54, 80
3, 14204, Note_on_c, 0, 54, 0
3, 14204, Note_on_c, 0, 57, 0
3, 23040, Note_on_c, 0, 42, 67
3, 23228, Note_on_c, 0, 42, 0
3, 23232, Note_on_c, 0, 57, 67
3, 23232, Note_on_c, 0, 54, 67
3, 23420, Note_on_c, 0, 54, 0
3, 23420, Note_on_c, 0, 57, 0
3, 23616, Note_on_c, 0, 57, 67
3, 23616, Note_on_c, 0, 54, 67
3, 23996, Note_on_c, 0, 54, 0
3, 23996, Note_on_c, 0, 57, 0
3, 24000, Note_on_c, 0, 57, 67
3, 24000, Note_on_c, 0, 54, 67
3, 24188, Note_on_c, 0, 54, 0
3, 24188, Note_on_c, 0, 57, 0
3, 24192, Note_on_c, 0, 59, 73
3, 24192, Note_on_c, 0, 56, 73
3, 24572, Note_on_c, 0, 56, 0
3, 24572, Note_on_c, 0, 59, 0
3, 24576, Note_on_c, 0, 57, 73
3, 24576, Note_on_c, 0, 54, 73
3, 24764, Note_on_c, 0, 54, 0
3, 24764, Note_on_c, 0, 57, 0
3, 24768, Note_on_c, 0, 56, 73
3, 24768, Note_on_c, 0, 52, 73
3, 25148, Note_on_c, 0, 52, 0
3, 25148, Note_on_c, 0, 56, 0
3, 25152, Note_on_c, 0, 56, 73
3, 25152, Note_on_c, 0, 52, 73
3, 25340, Note_on_c, 0, 52, 0
3, 25340, Note_on_c, 0, 56, 0
3, 25344, Note_on_c, 0, 56, 80
3, 25344, Note_on_c, 0, 52, 80
3, 25724, Note_on_c, 0, 52, 0
3, 25724, Note_on_c, 0, 56, 0
3, 25728, Note_on_c, 0, 57, 80
3, 25728, Note_on_c, 0, 54, 80
3, 25916, Note_on_c, 0, 54, 0
3, 25916, Note_on_c, 0, 57, 0
3, 25920, Note_on_c, 0, 57, 80
3, 25920, Note_on_c, 0, 54, 80
3, 26300, Note_on_c, 0, 54, 0
3, 26300, Note_on_c, 0, 57, 0
3, 26304, Note_on_c, 0, 57, 80
3, 26304, Note_on_c, 0, 54, 80
3, 26492, Note_on_c, 0, 54, 0
3, 26492, Note_on_c, 0, 57, 0
3, 26496, Note_on_c, 0, 56, 80
3, 26496, Note_on_c, 0, 59, 80
3, 26876, Note_on_c, 0, 59, 0
3, 26876, Note_on_c, 0, 56, 0
3, 26880, Note_on_c, 0, 54, 80
3, 26880, Note_on_c, 0, 57, 80
3, 27068, Note_on_c, 0, 57, 0
3, 27068, Note_on_c, 0, 54, 0
3, 27072, Note_on_c, 0, 53, 80
3, 27072, Note_on_c, 0, 56, 80
3, 27452, Note_on_c, 0, 56, 0
3, 27452, Note_on_c, 0, 53, 0
3, 27456, Note_on_c, 0, 53, 80
3, 27456, Note_on_c, 0, 56, 80
3, 27644, Note_on_c, 0, 56, 0
3, 27644, Note_on_c, 0, 53, 0
3, 27648, Note_on_c, 0, 54, 80
3, 27648, Note_on_c, 0, 57, 80
3, 28028, Note_on_c, 0, 57, 0
3, 28028, Note_on_c, 0, 54, 0
3, 28032, Note_on_c, 0, 54, 80
3, 28032, Note_on_c, 0, 57, 80
3, 28220, Note_on_c, 0, 57, 0
3, 28220, Note_on_c, 0, 54, 0
3, 28224, Note_on_c, 0, 54, 80
3, 28224, Note_on_c, 0, 57, 80
3, 28604, Note_on_c, 0, 57, 0
3, 28604, Note_on_c, 0, 54, 0
3, 28608, Note_on_c, 0, 54, 80
3, 28608, Note_on_c, 0, 57, 80
3, 28796, Note_on_c, 0, 57, 0
3, 28796, Note_on_c, 0, 54, 0
3, 28800, Note_on_c, 0, 59, 80
3, 28800, Note_on_c, 0, 56, 80
3, 29180, Note_on_c, 0, 56, 0
3, 29180, Note_on_c, 0, 59, 0
3, 29184, Note_on_c, 0, 56, 80
3, 29184, Note_on_c, 0, 59, 80
3, 29372, Note_on_c, 0, 59, 0
3, 29372, Note_on_c, 0, 56, 0
3, 29376, Note_on_c, 0, 59, 80
3, 29376, Note_on_c, 0, 56, 80
3, 29756, Note_on_c, 0, 56, 0
3, 29756, Note_on_c, 0, 59, 0
3, 29760, Note_on_c, 0, 56, 80
3, 29760, Note_on_c, 0, 59, 80
3, 29948, Note_on_c, 0, 59, 0
3, 29948, Note_on_c, 0, 56, 0
3, 29952, Note_on_c, 0, 57, 80
3, 30332, Note_on_c, 0, 57, 0
3, 30336, Note_on_c, 0, 57, 80
3, 30524, Note_on_c, 0, 57, 0
3, 30528, Note_on_c, 0, 49, 80
3, 30528, Note_on_c, 0, 57, 80
3, 30908, Note_on_c, 0, 57, 0
3, 30908, Note_on_c, 0, 49, 0
3, 30912, Note_on_c, 0, 57, 80
3, 30912, Note_on_c, 0, 49, 80
3, 31100, Note_on_c, 0, 49, 0
3, 31100, Note_on_c, 0, 57, 0
3, 31104, Note_on_c, 0, 54, 80
3, 31104, Note_on_c, 0, 50, 80
3, 31484, Note_on_c, 0, 50, 0
3, 31484, Note_on_c, 0, 54, 0
3, 31488, Note_on_c, 0, 54, 80
3, 31488, Note_on_c, 0, 50, 80
3, 31676, Note_on_c, 0, 50, 0
3, 31676, Note_on_c, 0, 54, 0
3, 31680, Note_on_c, 0, 54, 80
3, 31680, Note_on_c, 0, 51, 80
3, 32060, Note_on_c, 0, 51, 0
3, 32060, Note_on_c, 0, 54, 0
3, 32064, Note_on_c, 0, 54, 80
3, 32064, Note_on_c, 0, 51, 80
3, 32252, Note_on_c, 0, 51, 0
3, 32252, Note_on_c, 0, 54, 0
3, 32256, Note_on_c, 0, 57, 80
3, 32256, Note_on_c, 0, 52, 80
3, 32636, Note_on_c, 0, 52, 0
3, 32636, Note_on_c, 0, 57, 0
3, 32640, Note_on_c, 0, 56, 80
3, 32640, Note_on_c, 0, 52, 80
3, 32828, Note_on_c, 0, 52, 0
3, 32828, Note_on_c, 0, 56, 0
3, 32832, Note_on_c, 0, 56, 80
3, 32832, Note_on_c, 0, 52, 80
3, 33212, Note_on_c, 0, 52, 0
3, 33212, Note_on_c, 0, 56, 0
3, 33216, Note_on_c, 0, 56, 80
3, 33216, Note_on_c, 0, 52, 80
3, 33404, Note_on_c, 0, 52, 0
3, 33404, Note_on_c, 0, 56, 0
3, 33408, Note_on_c, 0, 57, 80
3, 33408, Note_on_c, 0, 52, 80
3, 33788, Note_on_c, 0, 52, 0
3, 33788, Note_on_c, 0, 57, 0
3, 33792, Note_on_c, 0, 57, 80
3, 33792, Note_on_c, 0, 52, 80
3, 33980, Note_on_c, 0, 52, 0
3, 33980, Note_on_c, 0, 57, 0
3, 33984, Note_on_c, 0, 52, 80
3, 33984, Note_on_c, 0, 57, 80
3, 34364, Note_on_c, 0, 57, 0
3, 34364, Note_on_c, 0, 52, 0
3, 34368, Note_on_c, 0, 57, 80
3, 34368, Note_on_c, 0, 52, 80
3, 34556, Note_on_c, 0, 52, 0
3, 34556, Note_on_c, 0, 57, 0
3, 34560, Note_on_c, 0, 56, 80
3, 34560, Note_on_c, 0, 52, 80
3, 34940, Note_on_c, 0, 52, 0
3, 34940, Note_on_c, 0, 56, 0
3, 34944, Note_on_c, 0, 52, 80
3, 34944, Note_on_c, 0, 56, 80
3, 35132, Note_on_c, 0, 56, 0
3, 35132, Note_on_c, 0, 52, 0
3, 35136, Note_on_c, 0, 56, 80
3, 35136, Note_on_c, 0, 52, 80
3, 35516, Note_on_c, 0, 52, 0
3, 35516, Note_on_c, 0, 56, 0
3, 35520, Note_on_c, 0, 52, 80
3, 35520, Note_on_c, 0, 56, 80
3, 35708, Note_on_c, 0, 56, 0
3, 35708, Note_on_c, 0, 52, 0
3, 35712, Note_on_c, 0, 57, 80
3, 35712, Note_on_c, 0, 53, 80
3, 36092, Note_on_c, 0, 53, 0
3, 36092, Note_on_c, 0, 57, 0
3, 36096, Note_on_c, 0, 57, 80
3, 36096, Note_on_c, 0, 53, 80
3, 36284, Note_on_c, 0, 53, 0
3, 36284, Note_on_c, 0, 57, 0
3, 36288, Note_on_c, 0, 53, 80
3, 36288, Note_on_c, 0, 57, 80
3, 36668, Note_on_c, 0, 57, 0
3, 36668, Note_on_c, 0, 53, 0
3, 36672, Note_on_c, 0, 57, 80
3, 36672, Note_on_c, 0, 53, 80
3, 36860, Note_on_c, 0, 53, 0
3, 36860, Note_on_c, 0, 57, 0
3, 36864, Note_on_c, 0, 52, 80
3, 37052, Note_on_c, 0, 52, 0
3, 37056, Note_on_c, 0, 56, 80
3, 37244, Note_on_c, 0, 56, 0
3, 37248, Note_on_c, 0, 59, 80
3, 37436, Note_on_c, 0, 59, 0
3, 37440, Note_on_c, 0, 52, 80
3, 37628, Note_on_c, 0, 52, 0
3, 37632, Note_on_c, 0, 57, 80
3, 37820, Note_on_c, 0, 57, 0
3, 37824, Note_on_c, 0, 60, 80
3, 38012, Note_on_c, 0, 60, 0
3, 38016, Note_on_c, 0, 52, 80
3, 38204, Note_on_c, 0, 52, 0
3, 38208, Note_on_c, 0, 56, 80
3, 38396, Note_on_c, 0, 56, 0
3, 38400, Note_on_c, 0, 59, 80
3, 38588, Note_on_c, 0, 59, 0
3, 38592, Note_on_c, 0, 52, 80
3, 38780, Note_on_c, 0, 52, 0
3, 38784, Note_on_c, 0, 57, 80
3, 38972, Note_on_c, 0, 57, 0
3, 38976, Note_on_c, 0, 60, 80
3, 39164, Note_on_c, 0, 60, 0
3, 39168, Note_on_c, 0, 52, 80
3, 39548, Note_on_c, 0, 52, 0
3, 44928, Note_on_c, 0, 52, 73
3, 44988, Note_on_c, 0, 52, 0
3, 44992, Note_on_c, 0, 57, 73
3, 45052, Note_on_c, 0, 57, 0
3, 45056, Note_on_c, 0, 61, 73
3, 45116, Note_on_c, 0, 61, 0
3, 45120, Note_on_c, 0, 64, 73
3, 45180, Note_on_c, 0, 64, 0
3, 45184, Note_on_c, 0, 61, 73
3, 45244, Note_on_c, 0, 61, 0
3, 45248, Note_on_c, 0, 57, 73
3, 45308, Note_on_c, 0, 57, 0
3, 45312, Note_on_c, 0, 52, 73
3, 45372, Note_on_c, 0, 52, 0
3, 45376, Note_on_c, 0, 57, 73
3, 45436, Note_on_c, 0, 57, 0
3, 45440, Note_on_c, 0, 61, 73
3, 45500, Note_on_c, 0, 61, 0
3, 45504, Note_on_c, 0, 52, 80
3, 45564, Note_on_c, 0, 52, 0
3, 45568, Note_on_c, 0, 57, 80
3, 45628, Note_on_c, 0, 57, 0
3, 45632, Note_on_c, 0, 61, 80
3, 45692, Note_on_c, 0, 61, 0
3, 45696, Note_on_c, 0, 64, 80
3, 45756, Note_on_c, 0, 64, 0
3, 45760, Note_on_c, 0, 61, 80
3, 45820, Note_on_c, 0, 61, 0
3, 45824, Note_on_c, 0, 57, 80
3, 45884, Note_on_c, 0, 57, 0
3, 45888, Note_on_c, 0, 52, 80
3, 45948, Note_on_c, 0, 52, 0
3, 45952, Note_on_c, 0, 57, 80
3, 46012, Note_on_c, 0, 57, 0
3, 46016, Note_on_c, 0, 61, 80
3, 46076, Note_on_c, 0, 61, 0
3, 46080, Note_on_c, 0, 52, 80
3, 46140, Note_on_c, 0, 52, 0
3, 46144, Note_on_c, 0, 56, 80
3, 46204, Note_on_c, 0, 56, 0
3, 46208, Note_on_c, 0, 59, 80
3, 46268, Note_on_c, 0, 59, 0
3, 46272, Note_on_c, 0, 64, 80
3, 46332, Note_on_c, 0, 64, 0
3, 46336, Note_on_c, 0, 59, 80
3, 46396, Note_on_c, 0, 59, 0
3, 46400, Note_on_c, 0, 56, 80
3, 46460, Note_on_c, 0, 56, 0
3, 46464, Note_on_c, 0, 52, 80
3, 46524, Note_on_c, 0, 52, 0
3, 46528, Note_on_c, 0, 56, 80
3, 46588, Note_on_c, 0, 56, 0
3, 46592, Note_on_c, 0, 59, 80
3, 46652, Note_on_c, 0, 59, 0
3, 46656, Note_on_c, 0, 52, 80
3, 46716, Note_on_c, 0, 52, 0
3, 46720, Note_on_c, 0, 56, 80
3, 46780, Note_on_c, 0, 56, 0
3, 46784, Note_on_c, 0, 59, 80
3, 46844, Note_on_c, 0, 59, 0
3, 46848, Note_on_c, 0, 64, 80
3, 46908, Note_on_c, 0, 64, 0
3, 46912, Note_on_c, 0, 59, 80
3, 46972, Note_on_c, 0, 59, 0
3, 46976, Note_on_c, 0, 56, 80
3, 47036, Note_on_c, 0, 56, 0
3, 47040, Note_on_c, 0, 52, 80
3, 47100, Note_on_c, 0, 52, 0
3, 47104, Note_on_c, 0, 56, 80
3, 47164, Note_on_c, 0, 56, 0
3, 47168, Note_on_c, 0, 59, 80
3, 47228, Note_on_c, 0, 59, 0
3, 47232, Note_on_c, 0, 57, 80
3, 47232, Note_on_c, 0, 54, 80
3, 47612, Note_on_c, 0, 54, 0
3, 47612, Note_on_c, 0, 57, 0
3, 47808, Note_on_c, 0, 59, 80
3, 47808, Note_on_c, 0, 54, 80
3, 47808, Note_on_c, 0, 50, 80
3, 48188, Note_on_c, 0, 50, 0
3, 48188, Note_on_c, 0, 54, 0
3, 48188, Note_on_c, 0, 59, 0
3, 48384, Note_on_c, 0, 61, 80
3, 48384, Note_on_c, 0, 52, 80
3, 48764, Note_on_c, 0, 61, 0
3, 48768, Note_on_c, 0, 62, 80
3, 48956, Note_on_c, 0, 62, 0
3, 48956, Note_on_c, 0, 52, 0
3, 48960, Note_on_c, 0, 57, 80
3, 48960, Note_on_c, 0, 61, 80
3, 49340, Note_on_c, 0, 61, 0
3, 49340, Note_on_c, 0, 57, 0
3, 51648, Note_on_c, 0, 57, 80
3, 51648, Note_on_c, 0, 54, 80
3, 51836, Note_on_c, 0, 54, 0
3, 51836, Note_on_c, 0, 57, 0
3, 51840, Note_on_c, 0, 54, 80
3, 51840, Note_on_c, 0, 50, 80
3, 52220, Note_on_c, 0, 50, 0
3, 52220, Note_on_c, 0, 54, 0
3, 52224, Note_on_c, 0, 62, 80
3, 52224, Note_on_c, 0, 52, 80
3, 52412, Note_on_c, 0, 52, 0
3, 52412, Note_on_c, 0, 62, 0
3, 52416, Note_on_c, 0, 61, 80
3, 52416, Note_on_c, 0, 57, 80
3, 52796, Note_on_c, 0, 57, 0
3, 52796, Note_on_c, 0, 61, 0
3, 53184, Note_on_c, 0, 64, 80
3, 53184, Note_on_c, 0, 56, 80
3, 53372, Note_on_c, 0, 56, 0
3, 53376, Note_on_c, 0, 57, 80
3, 53564, Note_on_c, 0, 57, 0
3, 53564, Note_on_c, 0, 64, 0
3, 53568, Note_on_c, 0, 56, 80
3, 53568, Note_on_c, 0, 52, 80
3, 53756, Note_on_c, 0, 52, 0
3, 53756, Note_on_c, 0, 56, 0
3, 54144, Note_on_c, 0, 49, 80
3, 54144, Note_on_c, 0, 45, 80
3, 54332, Note_on_c, 0, 45, 0
3, 54332, Note_on_c, 0, 49, 0
3, 54336, Note_on_c, 0, 52, 80
3, 54336, Note_on_c, 0, 49, 80
3, 54524, Note_on_c, 0, 49, 0
3, 54524, Note_on_c, 0, 52, 0
3, 54528, Note_on_c, 0, 56, 80
3, 54528, Note_on_c, 0, 52, 80
3, 54716, Note_on_c, 0, 52, 0
3, 54716, Note_on_c, 0, 56, 0
3, 54720, Note_on_c, 0, 57, 80
3, 54720, Note_on_c, 0, 54, 80
3, 54908, Note_on_c, 0, 54, 0
3, 54908, Note_on_c, 0, 57, 0
3, 55296, Note_on_c, 0, 50, 80
3, 55676, Note_on_c, 0, 50, 0
3, 55872, Note_on_c, 0, 51, 80
3, 56252, Note_on_c, 0, 51, 0
3, 58752, Note_on_c, 0, 45, 80
3, 59132, Note_on_c, 0, 45, 0
3, 61056, Note_on_c, 0, 57, 67
3, 61056, Note_on_c, 0, 54, 67
3, 61436, Note_on_c, 0, 54, 0
3, 61436, Note_on_c, 0, 57, 0
3, 61440, Note_on_c, 0, 57, 67
3, 61440, Note_on_c, 0, 54, 67
3, 61628, Note_on_c, 0, 54, 0
3, 61628, Note_on_c, 0, 57, 0
3, 61632, Note_on_c, 0, 57, 67
3, 61632, Note_on_c, 0, 54, 67
3, 62012, Note_on_c, 0, 54, 0
3, 62012, Note_on_c, 0, 57, 0
3, 62016, Note_on_c, 0, 61, 67
3, 62016, Note_on_c, 0, 54, 67
3, 62204, Note_on_c, 0, 54, 0
3, 62204, Note_on_c, 0, 61, 0
3, 62208, Note_on_c, 0, 62, 73
3, 62208, Note_on_c, 0, 54, 73
3, 62780, Note_on_c, 0, 54, 0
3, 62780, Note_on_c, 0, 62, 0
3, 62784, Note_on_c, 0, 41, 73
3, 63164, Note_on_c, 0, 41, 0
3, 63168, Note_on_c, 0, 61, 73
3, 63168, Note_on_c, 0, 53, 73
3, 63356, Note_on_c, 0, 53, 0
3, 63356, Note_on_c, 0, 61, 0
3, 63360, Note_on_c, 0, 61, 80
3, 63360, Note_on_c, 0, 54, 80
3, 63548, Note_on_c, 0, 54, 0
3, 63548, Note_on_c, 0, 61, 0
3, 63744, Note_on_c, 0, 49, 80
3, 63744, Note_on_c, 0, 45, 80
3, 63932, Note_on_c, 0, 45, 0
3, 63932, Note_on_c, 0, 49, 0
3, 63936, Note_on_c, 0, 47, 80
3, 63936, Note_on_c, 0, 50, 80
3, 64316, Note_on_c, 0, 50, 0
3, 64320, Note_on_c, 0, 59, 80
3, 64508, Note_on_c, 0, 59, 0
3, 64508, Note_on_c, 0, 47, 0
3, 64512, Note_on_c, 0, 57, 80
3, 64512, Note_on_c, 0, 49, 80
3, 65084, Note_on_c, 0, 49, 0
3, 65084, Note_on_c, 0, 57, 0
3, 65088, Note_on_c, 0, 56, 80
3, 65088, Note_on_c, 0, 49, 80
3, 65276, Note_on_c, 0, 49, 0
3, 65276, Note_on_c, 0, 56, 0
3, 65664, Note_on_c, 0, 57, 80
3, 65664, Note_on_c, 0, 54, 80
3, 66044, Note_on_c, 0, 54, 0
3, 66044, Note_on_c, 0, 57, 0
3, 66048, Note_on_c, 0, 57, 80
3, 66048, Note_on_c, 0, 54, 80
3, 66236, Note_on_c, 0, 54, 0
3, 66236, Note_on_c, 0, 57, 0
3, 66240, Note_on_c, 0, 56, 80
3, 66240, Note_on_c, 0, 59, 80
3, 66620, Note_on_c, 0, 59, 0
3, 66620, Note_on_c, 0, 56, 0
3, 66624, Note_on_c, 0, 56, 80
3, 66624, Note_on_c, 0, 59, 80
3, 66812, Note_on_c, 0, 59, 0
3, 66812, Note_on_c, 0, 56, 0
3, 66816, Note_on_c, 0, 64, 80
3, 66816, Note_on_c, 0, 57, 80
3, 67196, Note_on_c, 0, 57, 0
3, 67196, Note_on_c, 0, 64, 0
3, 67200, Note_on_c, 0, 57, 80
3, 67200, Note_on_c, 0, 64, 80
3, 67388, Note_on_c, 0, 64, 0
3, 67388, Note_on_c, 0, 57, 0
3, 67392, Note_on_c, 0, 57, 80
3, 67392, Note_on_c, 0, 54, 80
3, 67772, Note_on_c, 0, 54, 0
3, 67772, Note_on_c, 0, 57, 0
3, 67776, Note_on_c, 0, 57, 80
3, 67776, Note_on_c, 0, 54, 80
3, 67964, Note_on_c, 0, 54, 0
3, 67964, Note_on_c, 0, 57, 0
3, 67968, Note_on_c, 0, 57, 80
3, 67968, Note_on_c, 0, 51, 80
3, 68348, Note_on_c, 0, 51, 0
3, 68348, Note_on_c, 0, 57, 0
3, 68352, Note_on_c, 0, 57, 80
3, 68352, Note_on_c, 0, 51, 80
3, 68540, Note_on_c, 0, 51, 0
3, 68540, Note_on_c, 0, 57, 0
3, 68544, Note_on_c, 0, 56, 80
3, 68544, Note_on_c, 0, 53, 80
3, 68924, Note_on_c, 0, 53, 0
3, 68924, Note_on_c, 0, 56, 0
3, 68928, Note_on_c, 0, 56, 80
3, 68928, Note_on_c, 0, 53, 80
3, 69116, Note_on_c, 0, 53, 0
3, 69116, Note_on_c, 0, 56, 0
3, 69120, Note_on_c, 0, 54, 80
3, 69120, Note_on_c, 0, 61, 80
3, 69500, Note_on_c, 0, 61, 0
3, 69500, Note_on_c, 0, 54, 0
3, 69504, Note_on_c, 0, 54, 80
3, 69504, Note_on_c, 0, 61, 80
3, 69692, Note_on_c, 0, 61, 0
3, 69692, Note_on_c, 0, 54, 0
3, 69696, Note_on_c, 0, 54, 80
3, 69696, Note_on_c, 0, 50, 80
3, 70076, Note_on_c, 0, 50, 0
3, 70076, Note_on_c, 0, 54, 0
3, 70080, Note_on_c, 0, 54, 80
3, 70080, Note_on_c, 0, 50, 80
3, 70268, Note_on_c, 0, 50, 0
3, 70268, Note_on_c, 0, 54, 0
3, 70272, Note_on_c, 0, 55, 67
3, 70272, Note_on_c, 0, 50, 67
3, 70272, Note_on_c, 0, 47, 67
3, 70652, Note_on_c, 0, 47, 0
3, 70652, Note_on_c, 0, 50, 0
3, 70652, Note_on_c, 0, 55, 0
3, 70656, Note_on_c, 0, 55, 67
3, 70656, Note_on_c, 0, 50, 67
3, 70656, Note_on_c, 0, 47, 67
3, 70844, Note_on_c, 0, 47, 0
3, 70844, Note_on_c, 0, 50, 0
3, 70844, Note_on_c, 0, 55, 0
3, 70848, Note_on_c, 0, 55, 67
3, 70848, Note_on_c, 0, 50, 67
3, 70848, Note_on_c, 0, 47, 67
3, 71228, Note_on_c, 0, 47, 0
3, 71228, Note_on_c, 0, 50, 0
3, 71228, Note_on_c, 0, 55, 0
3, 71232, Note_on_c, 0, 55, 67
3, 71232, Note_on_c, 0, 50, 67
3, 71232, Note_on_c, 0, 47, 67
3, 71420, Note_on_c, 0, 47, 0
3, 71420, Note_on_c, 0, 50, 0
3, 71420, Note_on_c, 0, 55, 0
3, 71424, Note_on_c, 0, 55, 67
3, 71424, Note_on_c, 0, 50, 67
3, 71424, Note_on_c, 0, 47, 67
3, 71804, Note_on_c, 0, 47, 0
3, 71804, Note_on_c, 0, 50, 0
3, 71804, Note_on_c, 0, 55, 0
3, 72576, Note_on_c, 0, 57, 80
3, 72576, Note_on_c, 0, 49, 80
3, 72956, Note_on_c, 0, 49, 0
3, 72956, Note_on_c, 0, 57, 0
3, 72960, Note_on_c, 0, 57, 80
3, 72960, Note_on_c, 0, 49, 80
3, 73148, Note_on_c, 0, 49, 0
3, 73148, Note_on_c, 0, 57, 0
3, 73152, Note_on_c, 0, 61, 80
3, 73152, Note_on_c, 0, 49, 80
3, 73532, Note_on_c, 0, 49, 0
3, 73532, Note_on_c, 0, 61, 0
3, 73536, Note_on_c, 0, 59, 80
3, 73536, Note_on_c, 0, 49, 80
3, 73724, Note_on_c, 0, 49, 0
3, 73724, Note_on_c, 0, 59, 0
3, 73728, Note_on_c, 0, 57, 67
3, 73728, Note_on_c, 0, 50, 67
3, 74876, Note_on_c, 0, 50, 0
3, 74876, Note_on_c, 0, 57, 0
3, 74880, Note_on_c, 0, 50, 80
3, 74880, Note_on_c, 0, 47, 80
3, 75260, Note_on_c, 0, 47, 0
3, 75260, Note_on_c, 0, 50, 0
3, 75264, Note_on_c, 0, 50, 80
3, 75264, Note_on_c, 0, 47, 80
3, 75452, Note_on_c, 0, 47, 0
3, 75452, Note_on_c, 0, 50, 0
3, 75456, Note_on_c, 0, 50, 80
3, 75456, Note_on_c, 0, 47, 80
3, 75836, Note_on_c, 0, 47, 0
3, 75836, Note_on_c, 0, 50, 0
3, 75840, Note_on_c, 0, 50, 80
3, 75840, Note_on_c, 0, 47, 80
3, 76028, Note_on_c, 0, 47, 0
3, 76028, Note_on_c, 0, 50, 0
3, 76032, Note_on_c, 0, 50, 80
3, 76032, Note_on_c, 0, 47, 80
3, 76412, Note_on_c, 0, 47, 0
3, 76412, Note_on_c, 0, 50, 0
3, 77184, Note_on_c, 0, 57, 80
3, 77184, Note_on_c, 0, 49, 80
3, 77564, Note_on_c, 0, 49, 0
3, 77564, Note_on_c, 0, 57, 0
3, 77568, Note_on_c, 0, 57, 80
3, 77568, Note_on_c, 0, 49, 80
3, 77756, Note_on_c, 0, 49, 0
3, 77756, Note_on_c, 0, 57, 0
3, 77760, Note_on_c, 0, 61, 80
3, 77760, Note_on_c, 0, 49, 80
3, 78140, Note_on_c, 0, 49, 0
3, 78140, Note_on_c, 0, 61, 0
3, 78144, Note_on_c, 0, 59, 80
3, 78144, Note_on_c, 0, 49, 80
3, 78332, Note_on_c, 0, 49, 0
3, 78332, Note_on_c, 0, 59, 0
3, 78336, Note_on_c, 0, 57, 80
3, 78336, Note_on_c, 0, 54, 80
3, 78716, Note_on_c, 0, 54, 0
3, 78716, Note_on_c, 0, 57, 0
3, 87552, Note_on_c, 0, 54, 67
3, 87644, Note_on_c, 0, 54, 0
3, 87648, Note_on_c, 0, 57, 67
3, 87740, Note_on_c, 0, 57, 0
3, 87744, Note_on_c, 0, 61, 67
3, 87836, Note_on_c, 0, 61, 0
3, 87840, Note_on_c, 0, 57, 67
3, 87932, Note_on_c, 0, 57, 0
3, 87936, Note_on_c, 0, 61, 67
3, 88028, Note_on_c, 0, 61, 0
3, 88032, Note_on_c, 0, 57, 67
3, 88124, Note_on_c, 0, 57, 0
3, 88128, Note_on_c, 0, 54, 67
3, 88220, Note_on_c, 0, 54, 0
3, 88224, Note_on_c, 0, 57, 67
3, 88316, Note_on_c, 0, 57, 0
3, 88320, Note_on_c, 0, 61, 67
3, 88412, Note_on_c, 0, 61, 0
3, 88416, Note_on_c, 0, 57, 67
3, 88508, Note_on_c, 0, 57, 0
3, 88512, Note_on_c, 0, 61, 67
3, 88604, Note_on_c, 0, 61, 0
3, 88608, Note_on_c, 0, 57, 67
3, 88700, Note_on_c, 0, 57, 0
3, 88704, Note_on_c, 0, 54, 80
3, 88796, Note_on_c, 0, 54, 0
3, 88800, Note_on_c, 0, 57, 80
3, 88892, Note_on_c, 0, 57, 0
3, 88896, Note_on_c, 0, 61, 80
3, 88988, Note_on_c, 0, 61, 0
3, 88992, Note_on_c, 0, 57, 80
3, 89084, Note_on_c, 0, 57, 0
3, 89088, Note_on_c, 0, 61, 80
3, 89180, Note_on_c, 0, 61, 0
3, 89184, Note_on_c, 0, 57, 80
3, 89276, Note_on_c, 0, 57, 0
3, 89280, Note_on_c, 0, 56, 80
3, 89372, Note_on_c, 0, 56, 0
3, 89376, Note_on_c, 0, 59, 80
3, 89468, Note_on_c, 0, 59, 0
3, 89472, Note_on_c, 0, 61, 80
3, 89564, Note_on_c, 0, 61, 0
3, 89568, Note_on_c, 0, 59, 80
3, 89660, Note_on_c, 0, 59, 0
3, 89664, Note_on_c, 0, 61, 80
3, 89756, Note_on_c, 0, 61, 0
3, 89760, Note_on_c, 0, 59, 80
3, 89852, Note_on_c, 0, 59, 0
3, 89856, Note_on_c, 0, 57, 80
3, 89948, Note_on_c, 0, 57, 0
3, 89952, Note_on_c, 0, 59, 80
3, 90044, Note_on_c, 0, 59, 0
3, 90048, Note_on_c, 0, 65, 80
3, 90140, Note_on_c, 0, 65, 0
3, 90144, Note_on_c, 0, 59, 80
3, 90236, Note_on_c, 0, 59, 0
3, 90240, Note_on_c, 0, 65, 80
3, 90332, Note_on_c, 0, 65, 0
3, 90336, Note_on_c, 0, 59, 80
3, 90428, Note_on_c, 0, 59, 0
3, 90432, Note_on_c, 0, 57, 80
3, 90524, Note_on_c, 0, 57, 0
3, 90528, Note_on_c, 0, 61, 80
3, 90620, Note_on_c, 0, 61, 0
3, 90624, Note_on_c, 0, 66, 80
3, 90716, Note_on_c, 0, 66, 0
3, 90720, Note_on_c, 0, 61, 80
3, 90812, Note_on_c, 0, 61, 0
3, 90816, Note_on_c, 0, 66, 80
3, 90908, Note_on_c, 0, 66, 0
3, 90912, Note_on_c, 0, 61, 80
3, 91004, Note_on_c, 0, 61, 0
3, 91008, Note_on_c, 0, 59, 80
3, 91100, Note_on_c, 0, 59, 0
3, 91104, Note_on_c, 0, 62, 80
3, 91196, Note_on_c, 0, 62, 0
3, 91200, Note_on_c, 0, 66, 80
3, 91292, Note_on_c, 0, 66, 0
3, 91296, Note_on_c, 0, 62, 80
3, 91388, Note_on_c, 0, 62, 0
3, 91392, Note_on_c, 0, 66, 80
3, 91484, Note_on_c, 0, 66, 0
3, 91488, Note_on_c, 0, 62, 80
3, 91580, Note_on_c, 0, 62, 0
3, 91584, Note_on_c, 0, 59, 80
3, 91676, Note_on_c, 0, 59, 0
3, 91680, Note_on_c, 0, 62, 80
3, 91772, Note_on_c, 0, 62, 0
3, 91776, Note_on_c, 0, 68, 80
3, 91868, Note_on_c, 0, 68, 0
3, 91872, Note_on_c, 0, 62, 80
3, 91964, Note_on_c, 0, 62, 0
3, 91968, Note_on_c, 0, 68, 80
3, 92060, Note_on_c, 0, 68, 0
3, 92064, Note_on_c, 0, 62, 80
3, 92156, Note_on_c, 0, 62, 0
3, 92256, Note_on_c, 0, 49, 80
3, 92348, Note_on_c, 0, 49, 0
3, 92352, Note_on_c, 0, 53, 80
3, 92444, Note_on_c, 0, 53, 0
3, 92448, Note_on_c, 0, 56, 80
3, 92540, Note_on_c, 0, 56, 0
3, 92544, Note_on_c, 0, 61, 80
3, 92636, Note_on_c, 0, 61, 0
3, 92640, Note_on_c, 0, 49, 80
3, 92732, Note_on_c, 0, 49, 0
3, 92736, Note_on_c, 0, 61, 80
3, 93116, Note_on_c, 0, 61, 0
3, 93408, Note_on_c, 0, 37, 80
3, 93500, Note_on_c, 0, 37, 0
3, 93504, Note_on_c, 0, 39, 80
3, 93596, Note_on_c, 0, 39, 0
3, 93600, Note_on_c, 0, 42, 80
3, 93692, Note_on_c, 0, 42, 0
3, 93696, Note_on_c, 0, 49, 80
3, 93788, Note_on_c, 0, 49, 0
3, 93792, Note_on_c, 0, 37, 80
3, 93884, Note_on_c, 0, 37, 0
3, 93888, Note_on_c, 0, 49, 80
3, 94268, Note_on_c, 0, 49, 0
3, 94560, Note_on_c, 0, 49, 80
3, 94652, Note_on_c, 0, 49, 0
3, 94656, Note_on_c, 0, 54, 80
3, 94748, Note_on_c, 0, 54, 0
3, 94752, Note_on_c, 0, 58, 80
3, 94844, Note_on_c, 0, 58, 0
3, 94848, Note_on_c, 0, 61, 80
3, 94940, Note_on_c, 0, 61, 0
3, 94944, Note_on_c, 0, 49, 80
3, 95036, Note_on_c, 0, 49, 0
3, 95040, Note_on_c, 0, 61, 80
3, 95420, Note_on_c, 0, 61, 0
3, 95712, Note_on_c, 0, 37, 80
3, 95804, Note_on_c, 0, 37, 0
3, 95808, Note_on_c, 0, 42, 80
3, 95900, Note_on_c, 0, 42, 0
3, 95904, Note_on_c, 0, 44, 80
3, 95996, Note_on_c, 0, 44, 0
3, 96000, Note_on_c, 0, 49, 80
3, 96092, Note_on_c, 0, 49, 0
3, 96096, Note_on_c, 0, 37, 80
3, 96188, Note_on_c, 0, 37, 0
3, 96192, Note_on_c, 0, 49, 80
3, 96572, Note_on_c, 0, 49, 0
3, 96768, Note_on_c, 0, 54, 80
3, 97148, Note_on_c, 0, 54, 0
3, 97920, Note_on_c, 0, 50, 80
3, 98300, Note_on_c, 0, 50, 0
3, 99072, Note_on_c, 0, 47, 80
3, 99452, Note_on_c, 0, 47, 0
3, 100224, Note_on_c, 0, 49, 80
3, 100604, Note_on_c, 0, 49, 0
3, 101376, Note_on_c, 0, 54, 80
3, 101756, Note_on_c, 0, 54, 0
3, 102528, Note_on_c, 0, 50, 80
3, 102908, Note_on_c, 0, 50, 0
3, 103680, Note_on_c, 0, 47, 80
3, 104060, Note_on_c, 0, 47, 0
3, 104832, Note_on_c, 0, 49, 80
3, 105212, Note_on_c, 0, 49, 0
3, 105984, Note_on_c, 0, 54, 80
3, 106364, Note_on_c, 0, 54, 0
3, 107712, Note_on_c, 0, 49, 73
3, 108092, Note_on_c, 0, 49, 0
3, 108288, Note_on_c, 0, 45, 80
3, 108668, Note_on_c, 0, 45, 0
3, 110016, Note_on_c, 0, 49, 80
3, 110396, Note_on_c, 0, 49, 0
3, 110592, Note_on_c, 0, 45, 73
3, 110972, Note_on_c, 0, 45, 0
3, 111168, Note_on_c, 0, 48, 67
3, 111740, Note_on_c, 0, 48, 0
3, 111744, Note_on_c, 0, 49, 67
3, 112124, Note_on_c, 0, 49, 0
3, 112320, Note_on_c, 0, 49, 67
3, 112700, Note_on_c, 0, 49, 0
3, 112896, Note_on_c, 0, 54, 56
3, 113084, Note_on_c, 0, 54, 0
3, 113472, Note_on_c, 0, 54, 56
3, 113660, Note_on_c, 0, 54, 0
3, 114048, Note_on_c, 0, 54, 56
3, 114236, Note_on_c, 0, 54, 0
3, 114236, End_track
4, 0, Start_track
4, 0, Title_t, "K488-b - Adagio"
4, 0, Control_c, 0, 0, 0
4, 0, Control_c, 0, 7, 110
4, 0, Control_c, 0, 10, 83
4, 0, Control_c, 0, 91, 67
4, 0, Control_c, 0, 93, 45
4, 0, Control_c, 0, 121, 0
4, 0, Control_c, 0, 32, 0
4, 1, Program_c, 0, 0
4, 192, Control_c, 0, 10, 43
4, 240, Control_c, 0, 91, 63
4, 288, Control_c, 0, 93, 40
4, 336, Program_c, 0, 0
4, 13920, Note_on_c, 0, 57, 63
4, 14012, Note_on_c, 0, 57, 0
4, 14016, Note_on_c, 0, 61, 63
4, 14108, Note_on_c, 0, 61, 0
4, 14112, Note_on_c, 0, 66, 63
4, 14204, Note_on_c, 0, 66, 0
4, 14208, Note_on_c, 0, 61, 63
4, 14300, Note_on_c, 0, 61, 0
4, 14304, Note_on_c, 0, 57, 63
4, 14396, Note_on_c, 0, 57, 0
4, 14400, Note_on_c, 0, 81, 72
4, 14400, Note_on_c, 0, 69, 72
4, 15164, Note_on_c, 0, 69, 0
4, 15164, Note_on_c, 0, 81, 0
4, 15168, Note_on_c, 0, 80, 78
4, 15168, Note_on_c, 0, 68, 78
4, 15356, Note_on_c, 0, 68, 0
4, 15356, Note_on_c, 0, 80, 0
4, 15360, Note_on_c, 0, 78, 78
4, 15360, Note_on_c, 0, 66, 78
4, 15548, Note_on_c, 0, 66, 0
4, 15548, Note_on_c, 0, 78, 0
4, 15552, Note_on_c, 0, 77, 78
4, 15552, Note_on_c, 0, 65, 78
4, 15740, Note_on_c, 0, 65, 0
4, 15740, Note_on_c, 0, 77, 0
4, 15744, Note_on_c, 0, 78, 78
4, 15744, Note_on_c, 0, 66, 78
4, 15932, Note_on_c, 0, 66, 0
4, 15932, Note_on_c, 0, 78, 0
4, 15936, Note_on_c, 0, 68, 78
4, 15936, Note_on_c, 0, 80, 78
4, 16124, Note_on_c, 0, 80, 0
4, 16124, Note_on_c, 0, 68, 0
4, 16128, Note_on_c, 0, 73, 78
4, 16224, Note_on_c, 0, 61, 78
4, 16316, Note_on_c, 0, 61, 0
4, 16320, Note_on_c, 0, 65, 78
4, 16412, Note_on_c, 0, 65, 0
4, 16416, Note_on_c, 0, 61, 78
4, 16508, Note_on_c, 0, 61, 0
4, 16512, Note_on_c, 0, 65, 78
4, 16604, Note_on_c, 0, 65, 0
4, 16608, Note_on_c, 0, 61, 78
4, 16700, Note_on_c, 0, 61, 0
4, 16700, Note_on_c, 0, 73, 0
4, 16704, Note_on_c, 0, 85, 78
4, 16704, Note_on_c, 0, 73, 78
4, 17468, Note_on_c, 0, 73, 0
4, 17468, Note_on_c, 0, 85, 0
4, 17472, Note_on_c, 0, 83, 78
4, 17472, Note_on_c, 0, 71, 78
4, 17660, Note_on_c, 0, 71, 0
4, 17660, Note_on_c, 0, 83, 0
4, 17664, Note_on_c, 0, 81, 78
4, 17664, Note_on_c, 0, 69, 78
4, 17852, Note_on_c, 0, 69, 0
4, 17852, Note_on_c, 0, 81, 0
4, 17856, Note_on_c, 0, 80, 78
4, 17856, Note_on_c, 0, 68, 78
4, 18044, Note_on_c, 0, 68, 0
4, 18044, Note_on_c, 0, 80, 0
4, 18048, Note_on_c, 0, 81, 78
4, 18048, Note_on_c, 0, 69, 78
4, 18236, Note_on_c, 0, 69, 0
4, 18236, Note_on_c, 0, 81, 0
4, 18240, Note_on_c, 0, 83, 78
4, 18240, Note_on_c, 0, 71, 78
4, 18428, Note_on_c, 0, 71, 0
4, 18428, Note_on_c, 0, 83, 0
4, 18432, Note_on_c, 0, 77, 86
4, 18432, Note_on_c, 0, 65, 86
4, 18716, Note_on_c, 0, 65, 0
4, 18716, Note_on_c, 0, 77, 0
4, 19008, Note_on_c, 0, 81, 86
4, 19008, Note_on_c, 0, 69, 86
4, 19772, Note_on_c, 0, 69, 0
4, 19772, Note_on_c, 0, 81, 0
4, 19776, Note_on_c, 0, 80, 83
4, 19776, Note_on_c, 0, 68, 83
4, 19964, Note_on_c, 0, 68, 0
4, 19964, Note_on_c, 0, 80, 0
4, 19968, Note_on_c, 0, 78, 83
4, 19968, Note_on_c, 0, 66, 83
4, 20156, Note_on_c, 0, 66, 0
4, 20156, Note_on_c, 0, 78, 0
4, 20160, Note_on_c, 0, 77, 83
4, 20160, Note_on_c, 0, 65, 83
4, 20348, Note_on_c, 0, 65, 0
4, 20348, Note_on_c, 0, 77, 0
4, 20352, Note_on_c, 0, 78, 78
4, 20352, Note_on_c, 0, 66, 78
4, 20540, Note_on_c, 0, 66, 0
4, 20540, Note_on_c, 0, 78, 0
4, 20544, Note_on_c, 0, 80, 78
4, 20544, Note_on_c, 0, 68, 78
4, 20732, Note_on_c, 0, 68, 0
4, 20732, Note_on_c, 0, 80, 0
4, 20736, Note_on_c, 0, 73, 78
4, 20736, Note_on_c, 0, 67, 78
4, 20736, Note_on_c, 0, 64, 78
4, 20924, Note_on_c, 0, 64, 0
4, 20924, Note_on_c, 0, 67, 0
4, 20928, Note_on_c, 0, 66, 78
4, 21116, Note_on_c, 0, 66, 0
4, 21120, Note_on_c, 0, 64, 78
4, 21308, Note_on_c, 0, 64, 0
4, 21308, Note_on_c, 0, 73, 0
4, 21312, Note_on_c, 0, 73, 78
4, 21408, Note_on_c, 0, 62, 78
4, 21500, Note_on_c, 0, 73, 0
4, 21504, Note_on_c, 0, 71, 78
4, 21504, Note_on_c, 0, 67, 78
4, 21596, Note_on_c, 0, 62, 0
4, 21600, Note_on_c, 0, 62, 78
4, 21788, Note_on_c, 0, 62, 0
4, 21792, Note_on_c, 0, 62, 78
4, 21884, Note_on_c, 0, 62, 0
4, 21884, Note_on_c, 0, 67, 0
4, 21884, Note_on_c, 0, 71, 0
4, 21888, Note_on_c, 0, 71, 78
4, 21984, Note_on_c, 0, 61, 78
4, 22076, Note_on_c, 0, 61, 0
4, 22076, Note_on_c, 0, 71, 0
4, 22080, Note_on_c, 0, 73, 78
4, 22080, Note_on_c, 0, 65, 78
4, 22172, Note_on_c, 0, 65, 0
4, 22176, Note_on_c, 0, 68, 78
4, 22268, Note_on_c, 0, 68, 0
4, 22268, Note_on_c, 0, 73, 0
4, 22272, Note_on_c, 0, 69, 78
4, 22272, Note_on_c, 0, 66, 78
4, 22364, Note_on_c, 0, 66, 0
4, 22368, Note_on_c, 0, 61, 78
4, 22460, Note_on_c, 0, 61, 0
4, 22460, Note_on_c, 0, 69, 0
4, 22464, Note_on_c, 0, 69, 78
4, 22560, Note_on_c, 0, 66, 78
4, 22652, Note_on_c, 0, 66, 0
4, 22652, Note_on_c, 0, 69, 0
4, 22656, Note_on_c, 0, 71, 78
4, 22656, Note_on_c, 0, 62, 78
4, 22748, Note_on_c, 0, 62, 0
4, 22752, Note_on_c, 0, 66, 78
4, 22844, Note_on_c, 0, 66, 0
4, 22844, Note_on_c, 0, 71, 0
4, 22848, Note_on_c, 0, 68, 78
4, 22848, Note_on_c, 0, 65, 78
4, 22940, Note_on_c, 0, 65, 0
4, 22944, Note_on_c, 0, 59, 78
4, 23036, Note_on_c, 0, 59, 0
4, 23036, Note_on_c, 0, 68, 0
4, 23040, Note_on_c, 0, 66, 78
4, 23040, Note_on_c, 0, 57, 78
4, 23420, Note_on_c, 0, 57, 0
4, 23420, Note_on_c, 0, 66, 0
4, 28800, Note_on_c, 0, 74, 63
4, 28800, Note_on_c, 0, 71, 63
4, 28800, Note_on_c, 0, 64, 63
4, 29948, Note_on_c, 0, 64, 0
4, 29948, Note_on_c, 0, 71, 0
4, 29948, Note_on_c, 0, 74, 0
4, 29952, Note_on_c, 0, 73, 72
4, 29952, Note_on_c, 0, 69, 72
4, 29952, Note_on_c, 0, 64, 72
4, 31100, Note_on_c, 0, 64, 0
4, 31100, Note_on_c, 0, 69, 0
4, 31100, Note_on_c, 0, 73, 0
4, 31104, Note_on_c, 0, 71, 78
4, 31104, Note_on_c, 0, 66, 78
4, 31104, Note_on_c, 0, 69, 78
4, 31676, Note_on_c, 0, 71, 0
4, 31680, Note_on_c, 0, 73, 78
4, 32252, Note_on_c, 0, 73, 0
4, 32252, Note_on_c, 0, 69, 0
4, 32252, Note_on_c, 0, 66, 0
4, 32256, Note_on_c, 0, 73, 78
4, 32256, Note_on_c, 0, 69, 78
4, 32636, Note_on_c, 0, 69, 0
4, 32636, Note_on_c, 0, 73, 0
4, 32640, Note_on_c, 0, 71, 78
4, 32640, Note_on_c, 0, 68, 78
4, 32828, Note_on_c, 0, 68, 0
4, 32828, Note_on_c, 0, 71, 0
4, 33408, Note_on_c, 0, 69, 78
4, 33408, Note_on_c, 0, 60, 78
4, 33596, Note_on_c, 0, 60, 0
4, 33596, Note_on_c, 0, 69, 0
4, 33600, Note_on_c, 0, 72, 78
4, 33600, Note_on_c, 0, 69, 78
4, 33788, Note_on_c, 0, 69, 0
4, 33788, Note_on_c, 0, 72, 0
4, 33792, Note_on_c, 0, 76, 78
4, 33792, Note_on_c, 0, 72, 78
4, 33980, Note_on_c, 0, 72, 0
4, 33980, Note_on_c, 0, 76, 0
4, 34560, Note_on_c, 0, 68, 78
4, 34560, Note_on_c, 0, 59, 78
4, 34748, Note_on_c, 0, 59, 0
4, 34748, Note_on_c, 0, 68, 0
4, 34752, Note_on_c, 0, 68, 78
4, 34752, Note_on_c, 0, 71, 78
4, 34940, Note_on_c, 0, 71, 0
4, 34940, Note_on_c, 0, 68, 0
4, 34944, Note_on_c, 0, 76, 78
4, 34944, Note_on_c, 0, 68, 78
4, 35132, Note_on_c, 0, 68, 0
4, 35132, Note_on_c, 0, 76, 0
4, 35712, Note_on_c, 0, 69, 88
4, 35712, Note_on_c, 0, 76, 88
4, 36092, Note_on_c, 0, 76, 0
4, 36096, Note_on_c, 0, 75, 88
4, 36284, Note_on_c, 0, 75, 0
4, 36284, Note_on_c, 0, 69, 0
4, 36288, Note_on_c, 0, 63, 66
4, 36288, Note_on_c, 0, 72, 66
4, 36668, Note_on_c, 0, 72, 0
4, 36672, Note_on_c, 0, 69, 66
4, 36860, Note_on_c, 0, 69, 0
4, 36860, Note_on_c, 0, 63, 0
4, 36864, Note_on_c, 0, 71, 78
4, 36864, Note_on_c, 0, 68, 78
4, 37436, Note_on_c, 0, 68, 0
4, 37436, Note_on_c, 0, 71, 0
4, 37440, Note_on_c, 0, 72, 78
4, 37440, Note_on_c, 0, 69, 78
4, 38012, Note_on_c, 0, 69, 0
4, 38012, Note_on_c, 0, 72, 0
4, 38016, Note_on_c, 0, 71, 78
4, 38016, Note_on_c, 0, 68, 78
4, 38204, Note_on_c, 0, 68, 0
4, 38204, Note_on_c, 0, 71, 0
4, 40320, Note_on_c, 0, 76, 63
4, 40320, Note_on_c, 0, 73, 63
4, 40892, Note_on_c, 0, 73, 0
4, 40892, Note_on_c, 0, 76, 0
4, 40896, Note_on_c, 0, 69, 63
4, 40896, Note_on_c, 0, 73, 63
4, 41276, Note_on_c, 0, 73, 0
4, 41276, Note_on_c, 0, 69, 0
4, 41280, Note_on_c, 0, 74, 63
4, 41280, Note_on_c, 0, 71, 63
4, 41324, Note_on_c, 0, 71, 0
4, 41324, Note_on_c, 0, 74, 0
4, 41328, Note_on_c, 0, 73, 63
4, 41328, Note_on_c, 0, 69, 63
4, 41372, Note_on_c, 0, 69, 0
4, 41372, Note_on_c, 0, 73, 0
4, 41376, Note_on_c, 0, 71, 63
4, 41376, Note_on_c, 0, 68, 63
4, 41420, Note_on_c, 0, 68, 0
4, 41420, Note_on_c, 0, 71, 0
4, 41424, Note_on_c, 0, 73, 63
4, 41424, Note_on_c, 0, 69, 63
4, 41468, Note_on_c, 0, 69, 0
4, 41468, Note_on_c, 0, 73, 0
4, 41472, Note_on_c, 0, 74, 78
4, 41472, Note_on_c, 0, 71, 78
4, 41660, Note_on_c, 0, 71, 0
4, 41660, Note_on_c, 0, 74, 0
4, 41664, Note_on_c, 0, 74, 78
4, 41664, Note_on_c, 0, 71, 78
4, 41852, Note_on_c, 0, 71, 0
4, 41852, Note_on_c, 0, 74, 0
4, 41856, Note_on_c, 0, 74, 78
4, 41856, Note_on_c, 0, 71, 78
4, 42044, Note_on_c, 0, 71, 0
4, 42044, Note_on_c, 0, 74, 0
4, 42048, Note_on_c, 0, 74, 78
4, 42048, Note_on_c, 0, 71, 78
4, 42236, Note_on_c, 0, 71, 0
4, 42236, Note_on_c, 0, 74, 0
4, 42720, Note_on_c, 0, 73, 78
4, 42812, Note_on_c, 0, 73, 0
4, 42816, Note_on_c, 0, 74, 78
4, 42908, Note_on_c, 0, 74, 0
4, 42912, Note_on_c, 0, 76, 78
4, 43004, Note_on_c, 0, 76, 0
4, 43008, Note_on_c, 0, 78, 78
4, 43100, Note_on_c, 0, 78, 0
4, 43104, Note_on_c, 0, 80, 78
4, 43196, Note_on_c, 0, 80, 0
4, 43200, Note_on_c, 0, 81, 78
4, 43292, Note_on_c, 0, 81, 0
4, 43296, Note_on_c, 0, 83, 78
4, 43388, Note_on_c, 0, 83, 0
4, 43392, Note_on_c, 0, 85, 78
4, 43484, Note_on_c, 0, 85, 0
4, 43488, Note_on_c, 0, 85, 78
4, 43488, Note_on_c, 0, 81, 78
4, 43580, Note_on_c, 0, 81, 0
4, 43580, Note_on_c, 0, 85, 0
4, 43584, Note_on_c, 0, 86, 78
4, 43584, Note_on_c, 0, 83, 78
4, 43676, Note_on_c, 0, 83, 0
4, 43676, Note_on_c, 0, 86, 0
4, 43680, Note_on_c, 0, 84, 78
4, 43680, Note_on_c, 0, 87, 78
4, 43772, Note_on_c, 0, 87, 0
4, 43772, Note_on_c, 0, 84, 0
4, 43776, Note_on_c, 0, 85, 78
4, 43776, Note_on_c, 0, 88, 78
4, 43868, Note_on_c, 0, 88, 0
4, 43868, Note_on_c, 0, 85, 0
4, 43872, Note_on_c, 0, 84, 78
4, 43872, Note_on_c, 0, 87, 78
4, 43964, Note_on_c, 0, 87, 0
4, 43964, Note_on_c, 0, 84, 0
4, 43968, Note_on_c, 0, 85, 78
4, 43968, Note_on_c, 0, 88, 78
4, 44060, Note_on_c, 0, 88, 0
4, 44060, Note_on_c, 0, 85, 0
4, 44064, Note_on_c, 0, 84, 78
4, 44064, Note_on_c, 0, 87, 78
4, 44156, Note_on_c, 0, 87, 0
4, 44156, Note_on_c, 0, 84, 0
4, 44160, Note_on_c, 0, 85, 78
4, 44160, Note_on_c, 0, 88, 78
4, 44252, Note_on_c, 0, 88, 0
4, 44252, Note_on_c, 0, 85, 0
4, 44256, Note_on_c, 0, 81, 78
4, 44256, Note_on_c, 0, 85, 78
4, 44348, Note_on_c, 0, 85, 0
4, 44348, Note_on_c, 0, 81, 0
4, 44352, Note_on_c, 0, 80, 78
4, 44352, Note_on_c, 0, 83, 78
4, 44444, Note_on_c, 0, 83, 0
4, 44444, Note_on_c, 0, 80, 0
4, 44928, Note_on_c, 0, 88, 63
4, 44928, Note_on_c, 0, 85, 63
4, 44928, Note_on_c, 0, 76, 63
4, 45500, Note_on_c, 0, 76, 0
4, 45500, Note_on_c, 0, 85, 0
4, 45500, Note_on_c, 0, 88, 0
4, 45504, Note_on_c, 0, 81, 78
4, 45504, Note_on_c, 0, 85, 78
4, 45504, Note_on_c, 0, 76, 78
4, 45884, Note_on_c, 0, 76, 0
4, 45884, Note_on_c, 0, 85, 0
4, 45884, Note_on_c, 0, 81, 0
4, 45888, Note_on_c, 0, 83, 78
4, 45888, Note_on_c, 0, 86, 78
4, 45932, Note_on_c, 0, 86, 0
4, 45932, Note_on_c, 0, 83, 0
4, 45936, Note_on_c, 0, 81, 78
4, 45936, Note_on_c, 0, 85, 78
4, 45980, Note_on_c, 0, 85, 0
4, 45980, Note_on_c, 0, 81, 0
4, 45984, Note_on_c, 0, 80, 78
4, 45984, Note_on_c, 0, 83, 78
4, 46028, Note_on_c, 0, 83, 0
4, 46028, Note_on_c, 0, 80, 0
4, 46032, Note_on_c, 0, 81, 78
4, 46032, Note_on_c, 0, 85, 78
4, 46076, Note_on_c, 0, 85, 0
4, 46076, Note_on_c, 0, 81, 0
4, 46080, Note_on_c, 0, 86, 78
4, 46080, Note_on_c, 0, 83, 78
4, 46080, Note_on_c, 0, 74, 78
4, 46268, Note_on_c, 0, 74, 0
4, 46268, Note_on_c, 0, 83, 0
4, 46268, Note_on_c, 0, 86, 0
4, 46272, Note_on_c, 0, 86, 78
4, 46272, Note_on_c, 0, 83, 78
4, 46272, Note_on_c, 0, 74, 78
4, 46460, Note_on_c, 0, 74, 0
4, 46460, Note_on_c, 0, 83, 0
4, 46460, Note_on_c, 0, 86, 0
4, 46464, Note_on_c, 0, 86, 78
4, 46464, Note_on_c, 0, 83, 78
4, 46464, Note_on_c, 0, 74, 78
4, 46652, Note_on_c, 0, 74, 0
4, 46652, Note_on_c, 0, 83, 0
4, 46652, Note_on_c, 0, 86, 0
4, 46656, Note_on_c, 0, 86, 78
4, 46656, Note_on_c, 0, 83, 78
4, 46656, Note_on_c, 0, 74, 78
4, 46844, Note_on_c, 0, 74, 0
4, 46844, Note_on_c, 0, 83, 0
4, 46844, Note_on_c, 0, 86, 0
4, 47040, Note_on_c, 0, 74, 63
4, 47040, Note_on_c, 0, 68, 63
4, 47228, Note_on_c, 0, 68, 0
4, 47228, Note_on_c, 0, 74, 0
4, 47232, Note_on_c, 0, 73, 78
4, 47232, Note_on_c, 0, 69, 78
4, 47420, Note_on_c, 0, 69, 0
4, 47420, Note_on_c, 0, 73, 0
4, 47808, Note_on_c, 0, 66, 78
4, 47808, Note_on_c, 0, 62, 78
4, 47808, Note_on_c, 0, 71, 78
4, 47996, Note_on_c, 0, 71, 0
4, 47996, Note_on_c, 0, 62, 0
4, 47996, Note_on_c, 0, 66, 0
4, 48576, Note_on_c, 0, 76, 78
4, 48576, Note_on_c, 0, 64, 78
4, 48764, Note_on_c, 0, 64, 0
4, 48764, Note_on_c, 0, 76, 0
4, 48768, Note_on_c, 0, 68, 78
4, 48768, Note_on_c, 0, 62, 78
4, 48956, Note_on_c, 0, 62, 0
4, 48956, Note_on_c, 0, 68, 0
4, 48960, Note_on_c, 0, 69, 78
4, 48960, Note_on_c, 0, 61, 78
4, 49148, Note_on_c, 0, 61, 0
4, 49148, Note_on_c, 0, 69, 0
4, 49152, Note_on_c, 0, 73, 78
4, 49340, Note_on_c, 0, 73, 0
4, 49344, Note_on_c, 0, 69, 78
4, 49532, Note_on_c, 0, 69, 0
4, 49536, Note_on_c, 0, 74, 78
4, 49536, Note_on_c, 0, 71, 78
4, 49916, Note_on_c, 0, 71, 0
4, 49916, Note_on_c, 0, 74, 0
4, 49920, Note_on_c, 0, 73, 78
4, 49920, Note_on_c, 0, 69, 78
4, 50108, Note_on_c, 0, 69, 0
4, 50108, Note_on_c, 0, 73, 0
4, 50112, Note_on_c, 0, 71, 78
4, 50112, Note_on_c, 0, 68, 78
4, 50300, Note_on_c, 0, 68, 0
4, 50300, Note_on_c, 0, 71, 0
4, 50688, Note_on_c, 0, 76, 78
4, 50688, Note_on_c, 0, 73, 78
4, 50688, Note_on_c, 0, 64, 78
4, 51068, Note_on_c, 0, 73, 0
4, 51068, Note_on_c, 0, 76, 0
4, 51072, Note_on_c, 0, 71, 78
4, 51072, Note_on_c, 0, 74, 78
4, 51260, Note_on_c, 0, 74, 0
4, 51260, Note_on_c, 0, 71, 0
4, 51260, Note_on_c, 0, 64, 0
4, 51264, Note_on_c, 0, 64, 78
4, 51264, Note_on_c, 0, 69, 78
4, 51264, Note_on_c, 0, 73, 78
4, 51452, Note_on_c, 0, 73, 0
4, 51452, Note_on_c, 0, 69, 0
4, 51452, Note_on_c, 0, 64, 0
4, 52032, Note_on_c, 0, 78, 78
4, 52032, Note_on_c, 0, 74, 78
4, 52124, Note_on_c, 0, 74, 0
4, 52124, Note_on_c, 0, 78, 0
4, 52128, Note_on_c, 0, 74, 78
4, 52128, Note_on_c, 0, 71, 78
4, 52220, Note_on_c, 0, 71, 0
4, 52220, Note_on_c, 0, 74, 0
4, 52224, Note_on_c, 0, 74, 78
4, 52224, Note_on_c, 0, 71, 78
4, 52316, Note_on_c, 0, 71, 0
4, 52316, Note_on_c, 0, 74, 0
4, 52320, Note_on_c, 0, 71, 78
4, 52320, Note_on_c, 0, 68, 78
4, 52412, Note_on_c, 0, 68, 0
4, 52412, Note_on_c, 0, 71, 0
4, 52416, Note_on_c, 0, 69, 78
4, 52416, Note_on_c, 0, 64, 78
4, 52604, Note_on_c, 0, 64, 0
4, 52604, Note_on_c, 0, 69, 0
4, 52992, Note_on_c, 0, 62, 78
4, 52992, Note_on_c, 0, 59, 78
4, 53372, Note_on_c, 0, 59, 0
4, 53372, Note_on_c, 0, 62, 0
4, 53376, Note_on_c, 0, 61, 78
4, 53376, Note_on_c, 0, 57, 78
4, 53564, Note_on_c, 0, 57, 0
4, 53564, Note_on_c, 0, 61, 0
4, 53568, Note_on_c, 0, 59, 78
4, 53568, Note_on_c, 0, 56, 78
4, 53628, Note_on_c, 0, 56, 0
4, 53628, Note_on_c, 0, 59, 0
4, 53632, Note_on_c, 0, 86, 78
4, 53692, Note_on_c, 0, 86, 0
4, 53696, Note_on_c, 0, 85, 78
4, 53756, Note_on_c, 0, 85, 0
4, 53760, Note_on_c, 0, 83, 78
4, 53820, Note_on_c, 0, 83, 0
4, 53824, Note_on_c, 0, 81, 78
4, 53884, Note_on_c, 0, 81, 0
4, 53888, Note_on_c, 0, 80, 78
4, 53948, Note_on_c, 0, 80, 0
4, 53952, Note_on_c, 0, 78, 78
4, 54012, Note_on_c, 0, 78, 0
4, 54016, Note_on_c, 0, 76, 78
4, 54076, Note_on_c, 0, 76, 0
4, 54080, Note_on_c, 0, 74, 78
4, 54140, Note_on_c, 0, 74, 0
4, 54144, Note_on_c, 0, 64, 78
4, 54144, Note_on_c, 0, 61, 78
4, 54524, Note_on_c, 0, 61, 0
4, 54524, Note_on_c, 0, 64, 0
4, 54528, Note_on_c, 0, 62, 78
4, 54528, Note_on_c, 0, 59, 78
4, 54716, Note_on_c, 0, 59, 0
4, 54716, Note_on_c, 0, 62, 0
4, 54720, Note_on_c, 0, 61, 78
4, 54720, Note_on_c, 0, 57, 78
4, 54780, Note_on_c, 0, 57, 0
4, 54780, Note_on_c, 0, 61, 0
4, 54784, Note_on_c, 0, 88, 78
4, 54844, Note_on_c, 0, 88, 0
4, 54848, Note_on_c, 0, 86, 78
4, 54908, Note_on_c, 0, 86, 0
4, 54912, Note_on_c, 0, 85, 78
4, 54972, Note_on_c, 0, 85, 0
4, 54976, Note_on_c, 0, 83, 78
4, 55036, Note_on_c, 0, 83, 0
4, 55040, Note_on_c, 0, 81, 78
4, 55100, Note_on_c, 0, 81, 0
4, 55104, Note_on_c, 0, 80, 78
4, 55164, Note_on_c, 0, 80, 0
4, 55168, Note_on_c, 0, 78, 78
4, 55228, Note_on_c, 0, 78, 0
4, 55232, Note_on_c, 0, 76, 78
4, 55292, Note_on_c, 0, 76, 0
4, 55392, Note_on_c, 0, 66, 78
4, 55392, Note_on_c, 0, 59, 78
4, 55484, Note_on_c, 0, 59, 0
4, 55484, Note_on_c, 0, 66, 0
4, 55488, Note_on_c, 0, 66, 78
4, 55488, Note_on_c, 0, 69, 78
4, 55580, Note_on_c, 0, 69, 0
4, 55580, Note_on_c, 0, 66, 0
4, 55584, Note_on_c, 0, 59, 78
4, 55676, Note_on_c, 0, 59, 0
4, 55680, Note_on_c, 0, 66, 78
4, 55680, Note_on_c, 0, 69, 78
4, 55772, Note_on_c, 0, 69, 0
4, 55772, Note_on_c, 0, 66, 0
4, 55776, Note_on_c, 0, 59, 78
4, 55868, Note_on_c, 0, 59, 0
4, 55968, Note_on_c, 0, 60, 78
4, 56060, Note_on_c, 0, 60, 0
4, 56064, Note_on_c, 0, 66, 78
4, 56064, Note_on_c, 0, 69, 78
4, 56156, Note_on_c, 0, 69, 0
4, 56156, Note_on_c, 0, 66, 0
4, 56160, Note_on_c, 0, 60, 78
4, 56252, Note_on_c, 0, 60, 0
4, 56256, Note_on_c, 0, 66, 78
4, 56256, Note_on_c, 0, 69, 78
4, 56348, Note_on_c, 0, 69, 0
4, 56348, Note_on_c, 0, 66, 0
4, 56352, Note_on_c, 0, 60, 78
4, 56444, Note_on_c, 0, 60, 0
4, 56448, Note_on_c, 0, 64, 78
4, 56448, Note_on_c, 0, 61, 78
4, 56636, Note_on_c, 0, 61, 0
4, 56636, Note_on_c, 0, 64, 0
4, 56640, Note_on_c, 0, 73, 78
4, 56640, Note_on_c, 0, 69, 78
4, 56640, Note_on_c, 0, 64, 78
4, 56828, Note_on_c, 0, 64, 0
4, 56828, Note_on_c, 0, 69, 0
4, 56828, Note_on_c, 0, 73, 0
4, 56832, Note_on_c, 0, 73, 78
4, 56832, Note_on_c, 0, 69, 78
4, 56832, Note_on_c, 0, 64, 78
4, 57020, Note_on_c, 0, 64, 0
4, 57020, Note_on_c, 0, 69, 0
4, 57020, Note_on_c, 0, 73, 0
4, 57024, Note_on_c, 0, 73, 78
4, 57024, Note_on_c, 0, 69, 78
4, 57024, Note_on_c, 0, 64, 78
4, 57212, Note_on_c, 0, 64, 0
4, 57212, Note_on_c, 0, 69, 0
4, 57212, Note_on_c, 0, 73, 0
4, 57216, Note_on_c, 0, 73, 78
4, 57216, Note_on_c, 0, 69, 78
4, 57216, Note_on_c, 0, 64, 78
4, 57404, Note_on_c, 0, 64, 0
4, 57404, Note_on_c, 0, 69, 0
4, 57404, Note_on_c, 0, 73, 0
4, 57408, Note_on_c, 0, 73, 78
4, 57408, Note_on_c, 0, 69, 78
4, 57408, Note_on_c, 0, 64, 78
4, 57596, Note_on_c, 0, 64, 0
4, 57596, Note_on_c, 0, 69, 0
4, 57596, Note_on_c, 0, 73, 0
4, 57600, Note_on_c, 0, 69, 78
4, 57600, Note_on_c, 0, 64, 78
4, 57600, Note_on_c, 0, 71, 78
4, 57788, Note_on_c, 0, 71, 0
4, 57788, Note_on_c, 0, 64, 0
4, 57788, Note_on_c, 0, 69, 0
4, 57792, Note_on_c, 0, 71, 78
4, 57792, Note_on_c, 0, 69, 78
4, 57792, Note_on_c, 0, 64, 78
4, 57980, Note_on_c, 0, 64, 0
4, 57980, Note_on_c, 0, 69, 0
4, 57980, Note_on_c, 0, 71, 0
4, 57984, Note_on_c, 0, 71, 78
4, 57984, Note_on_c, 0, 69, 78
4, 57984, Note_on_c, 0, 64, 78
4, 58172, Note_on_c, 0, 64, 0
4, 58172, Note_on_c, 0, 69, 0
4, 58172, Note_on_c, 0, 71, 0
4, 58176, Note_on_c, 0, 71, 78
4, 58176, Note_on_c, 0, 68, 78
4, 58176, Note_on_c, 0, 64, 78
4, 58176, Note_on_c, 0, 62, 78
4, 58364, Note_on_c, 0, 62, 0
4, 58364, Note_on_c, 0, 71, 0
4, 58364, Note_on_c, 0, 68, 0
4, 58364, Note_on_c, 0, 64, 0
4, 58368, Note_on_c, 0, 71, 78
4, 58368, Note_on_c, 0, 68, 78
4, 58368, Note_on_c, 0, 64, 78
4, 58368, Note_on_c, 0, 62, 78
4, 58556, Note_on_c, 0, 62, 0
4, 58556, Note_on_c, 0, 71, 0
4, 58556, Note_on_c, 0, 68, 0
4, 58556, Note_on_c, 0, 64, 0
4, 58560, Note_on_c, 0, 71, 78
4, 58560, Note_on_c, 0, 68, 78
4, 58560, Note_on_c, 0, 64, 78
4, 58560, Note_on_c, 0, 62, 78
4, 58748, Note_on_c, 0, 62, 0
4, 58748, Note_on_c, 0, 71, 0
4, 58748, Note_on_c, 0, 68, 0
4, 58748, Note_on_c, 0, 64, 0
4, 58752, Note_on_c, 0, 69, 78
4, 58752, Note_on_c, 0, 64, 78
4, 58752, Note_on_c, 0, 61, 78
4, 58940, Note_on_c, 0, 61, 0
4, 58940, Note_on_c, 0, 64, 0
4, 58940, Note_on_c, 0, 69, 0
4, 58944, Note_on_c, 0, 73, 78
4, 58944, Note_on_c, 0, 73, 78
4, 59132, Note_on_c, 0, 73, 0
4, 59136, Note_on_c, 0, 85, 78
4, 59136, Note_on_c, 0, 69, 88
4, 59136, Note_on_c, 0, 61, 88
4, 59136, Note_on_c, 0, 57, 88
4, 59324, Note_on_c, 0, 57, 0
4, 59324, Note_on_c, 0, 69, 0
4, 59324, Note_on_c, 0, 73, 0
4, 59324, Note_on_c, 0, 85, 0
4, 59324, Note_on_c, 0, 61, 0
4, 59328, Note_on_c, 0, 69, 88
4, 59328, Note_on_c, 0, 62, 88
4, 59328, Note_on_c, 0, 59, 88
4, 59516, Note_on_c, 0, 59, 0
4, 59516, Note_on_c, 0, 62, 0
4, 59516, Note_on_c, 0, 69, 0
4, 59520, Note_on_c, 0, 74, 78
4, 59520, Note_on_c, 0, 74, 78
4, 59520, Note_on_c, 0, 68, 88
4, 59712, Note_on_c, 0, 86, 78
4, 59712, Note_on_c, 0, 62, 88
4, 59712, Note_on_c, 0, 59, 88
4, 59900, Note_on_c, 0, 59, 0
4, 59900, Note_on_c, 0, 74, 0
4, 59900, Note_on_c, 0, 68, 0
4, 59900, Note_on_c, 0, 74, 0
4, 59900, Note_on_c, 0, 62, 0
4, 59900, Note_on_c, 0, 86, 0
4, 59904, Note_on_c, 0, 61, 88
4, 59904, Note_on_c, 0, 68, 88
4, 60000, Note_on_c, 0, 73, 78
4, 60092, Note_on_c, 0, 73, 0
4, 60092, Note_on_c, 0, 68, 0
4, 60096, Note_on_c, 0, 85, 78
4, 60096, Note_on_c, 0, 69, 88
4, 60096, Note_on_c, 0, 66, 88
4, 60284, Note_on_c, 0, 85, 0
4, 60284, Note_on_c, 0, 61, 0
4, 60288, Note_on_c, 0, 78, 78
4, 60288, Note_on_c, 0, 61, 88
4, 60476, Note_on_c, 0, 61, 0
4, 60476, Note_on_c, 0, 66, 0
4, 60476, Note_on_c, 0, 69, 0
4, 60476, Note_on_c, 0, 78, 0
4, 60480, Note_on_c, 0, 61, 88
4, 60480, Note_on_c, 0, 66, 88
4, 60480, Note_on_c, 0, 68, 88
4, 60576, Note_on_c, 0, 71, 78
4, 60668, Note_on_c, 0, 71, 0
4, 60668, Note_on_c, 0, 68, 0
4, 60668, Note_on_c, 0, 66, 0
4, 60672, Note_on_c, 0, 83, 78
4, 60672, Note_on_c, 0, 68, 88
4, 60672, Note_on_c, 0, 65, 88
4, 60860, Note_on_c, 0, 65, 0
4, 60860, Note_on_c, 0, 61, 0
4, 60860, Note_on_c, 0, 83, 0
4, 60860, Note_on_c, 0, 68, 0
4, 60864, Note_on_c, 0, 77, 78
4, 60864, Note_on_c, 0, 68, 88
4, 60864, Note_on_c, 0, 71, 88
4, 60864, Note_on_c, 0, 61, 88
4, 61052, Note_on_c, 0, 61, 0
4, 61052, Note_on_c, 0, 77, 0
4, 61052, Note_on_c, 0, 68, 0
4, 61052, Note_on_c, 0, 71, 0
4, 61056, Note_on_c, 0, 78, 78
4, 61056, Note_on_c, 0, 73, 78
4, 61056, Note_on_c, 0, 66, 88
4, 61056, Note_on_c, 0, 69, 88
4, 61436, Note_on_c, 0, 69, 0
4, 61436, Note_on_c, 0, 78, 0
4, 61436, Note_on_c, 0, 73, 0
4, 61436, Note_on_c, 0, 66, 0
4, 73728, Note_on_c, 0, 78, 63
4, 73728, Note_on_c, 0, 74, 63
4, 73728, Note_on_c, 0, 66, 63
4, 74876, Note_on_c, 0, 66, 0
4, 74876, Note_on_c, 0, 74, 0
4, 74876, Note_on_c, 0, 78, 0
4, 74880, Note_on_c, 0, 79, 72
4, 74880, Note_on_c, 0, 74, 72
4, 74880, Note_on_c, 0, 67, 72
4, 75068, Note_on_c, 0, 67, 0
4, 75068, Note_on_c, 0, 74, 0
4, 75068, Note_on_c, 0, 79, 0
4, 78432, Note_on_c, 0, 57, 63
4, 78524, Note_on_c, 0, 57, 0
4, 78528, Note_on_c, 0, 61, 63
4, 78620, Note_on_c, 0, 61, 0
4, 78624, Note_on_c, 0, 66, 63
4, 78716, Note_on_c, 0, 66, 0
4, 78720, Note_on_c, 0, 61, 63
4, 78812, Note_on_c, 0, 61, 0
4, 78816, Note_on_c, 0, 57, 63
4, 78908, Note_on_c, 0, 57, 0
4, 78912, Note_on_c, 0, 81, 78
4, 78912, Note_on_c, 0, 69, 78
4, 79676, Note_on_c, 0, 69, 0
4, 79676, Note_on_c, 0, 81, 0
4, 79680, Note_on_c, 0, 80, 78
4, 79680, Note_on_c, 0, 68, 78
4, 79868, Note_on_c, 0, 68, 0
4, 79868, Note_on_c, 0, 80, 0
4, 79872, Note_on_c, 0, 78, 78
4, 79872, Note_on_c, 0, 66, 78
4, 80060, Note_on_c, 0, 66, 0
4, 80060, Note_on_c, 0, 78, 0
4, 80064, Note_on_c, 0, 77, 78
4, 80064, Note_on_c, 0, 65, 78
4, 80252, Note_on_c, 0, 65, 0
4, 80252, Note_on_c, 0, 77, 0
4, 80256, Note_on_c, 0, 78, 78
4, 80256, Note_on_c, 0, 66, 78
4, 80444, Note_on_c, 0, 66, 0
4, 80444, Note_on_c, 0, 78, 0
4, 80448, Note_on_c, 0, 80, 78
4, 80448, Note_on_c, 0, 68, 78
4, 80636, Note_on_c, 0, 68, 0
4, 80636, Note_on_c, 0, 80, 0
4, 80640, Note_on_c, 0, 73, 78
4, 80736, Note_on_c, 0, 61, 78
4, 80828, Note_on_c, 0, 61, 0
4, 80832, Note_on_c, 0, 65, 78
4, 80924, Note_on_c, 0, 65, 0
4, 80928, Note_on_c, 0, 71, 78
4, 81020, Note_on_c, 0, 71, 0
4, 81024, Note_on_c, 0, 65, 78
4, 81116, Note_on_c, 0, 65, 0
4, 81120, Note_on_c, 0, 61, 78
4, 81212, Note_on_c, 0, 61, 0
4, 81212, Note_on_c, 0, 73, 0
4, 81216, Note_on_c, 0, 85, 78
4, 81216, Note_on_c, 0, 73, 78
4, 81980, Note_on_c, 0, 73, 0
4, 81980, Note_on_c, 0, 85, 0
4, 81984, Note_on_c, 0, 83, 78
4, 81984, Note_on_c, 0, 71, 78
4, 82172, Note_on_c, 0, 71, 0
4, 82172, Note_on_c, 0, 83, 0
4, 82176, Note_on_c, 0, 81, 78
4, 82176, Note_on_c, 0, 69, 78
4, 82364, Note_on_c, 0, 69, 0
4, 82364, Note_on_c, 0, 81, 0
4, 82368, Note_on_c, 0, 80, 78
4, 82368, Note_on_c, 0, 68, 78
4, 82368, Note_on_c, 0, 74, 78
4, 82556, Note_on_c, 0, 68, 0
4, 82556, Note_on_c, 0, 80, 0
4, 82560, Note_on_c, 0, 81, 78
4, 82560, Note_on_c, 0, 69, 78
4, 82748, Note_on_c, 0, 69, 0
4, 82748, Note_on_c, 0, 81, 0
4, 82752, Note_on_c, 0, 83, 78
4, 82752, Note_on_c, 0, 71, 78
4, 82940, Note_on_c, 0, 71, 0
4, 82940, Note_on_c, 0, 83, 0
4, 82944, Note_on_c, 0, 77, 78
4, 82944, Note_on_c, 0, 65, 78
4, 83132, Note_on_c, 0, 74, 0
4, 83136, Note_on_c, 0, 73, 78
4, 83324, Note_on_c, 0, 73, 0
4, 83328, Note_on_c, 0, 71, 78
4, 83516, Note_on_c, 0, 71, 0
4, 83516, Note_on_c, 0, 65, 0
4, 83516, Note_on_c, 0, 77, 0
4, 83520, Note_on_c, 0, 69, 78
4, 83520, Note_on_c, 0, 81, 78
4, 84096, Note_on_c, 0, 75, 78
4, 84284, Note_on_c, 0, 81, 0
4, 84284, Note_on_c, 0, 69, 0
4, 84288, Note_on_c, 0, 80, 78
4, 84288, Note_on_c, 0, 68, 78
4, 84476, Note_on_c, 0, 68, 0
4, 84476, Note_on_c, 0, 80, 0
4, 84480, Note_on_c, 0, 78, 78
4, 84480, Note_on_c, 0, 66, 78
4, 84668, Note_on_c, 0, 66, 0
4, 84668, Note_on_c, 0, 78, 0
4, 84668, Note_on_c, 0, 75, 0
4, 84672, Note_on_c, 0, 77, 78
4, 84672, Note_on_c, 0, 65, 78
4, 84672, Note_on_c, 0, 74, 78
4, 84860, Note_on_c, 0, 65, 0
4, 84860, Note_on_c, 0, 77, 0
4, 84864, Note_on_c, 0, 78, 78
4, 84864, Note_on_c, 0, 66, 78
4, 85052, Note_on_c, 0, 66, 0
4, 85052, Note_on_c, 0, 78, 0
4, 85056, Note_on_c, 0, 80, 78
4, 85056, Note_on_c, 0, 68, 78
4, 85244, Note_on_c, 0, 68, 0
4, 85244, Note_on_c, 0, 80, 0
4, 85244, Note_on_c, 0, 74, 0
4, 85248, Note_on_c, 0, 79, 78
4, 85248, Note_on_c, 0, 73, 78
4, 85248, Note_on_c, 0, 85, 78
4, 85436, Note_on_c, 0, 79, 0
4, 85440, Note_on_c, 0, 78, 78
4, 85628, Note_on_c, 0, 78, 0
4, 85632, Note_on_c, 0, 76, 78
4, 85820, Note_on_c, 0, 76, 0
4, 85820, Note_on_c, 0, 85, 0
4, 85820, Note_on_c, 0, 73, 0
4, 85824, Note_on_c, 0, 74, 78
4, 85824, Note_on_c, 0, 85, 78
4, 86012, Note_on_c, 0, 85, 0
4, 86016, Note_on_c, 0, 83, 78
4, 86396, Note_on_c, 0, 83, 0
4, 86396, Note_on_c, 0, 74, 0
4, 86400, Note_on_c, 0, 83, 78
4, 86400, Note_on_c, 0, 71, 78
4, 86588, Note_on_c, 0, 71, 0
4, 86588, Note_on_c, 0, 83, 0
4, 86592, Note_on_c, 0, 85, 78
4, 86592, Note_on_c, 0, 73, 78
4, 86780, Note_on_c, 0, 73, 0
4, 86780, Note_on_c, 0, 85, 0
4, 86784, Note_on_c, 0, 81, 78
4, 86784, Note_on_c, 0, 69, 78
4, 86972, Note_on_c, 0, 69, 0
4, 86972, Note_on_c, 0, 81, 0
4, 86976, Note_on_c, 0, 81, 78
4, 86976, Note_on_c, 0, 69, 78
4, 87164, Note_on_c, 0, 69, 0
4, 87164, Note_on_c, 0, 81, 0
4, 87168, Note_on_c, 0, 83, 78
4, 87168, Note_on_c, 0, 71, 78
4, 87356, Note_on_c, 0, 71, 0
4, 87356, Note_on_c, 0, 83, 0
4, 87360, Note_on_c, 0, 80, 78
4, 87360, Note_on_c, 0, 68, 78
4, 87548, Note_on_c, 0, 68, 0
4, 87548, Note_on_c, 0, 80, 0
4, 87552, Note_on_c, 0, 78, 78
4, 87552, Note_on_c, 0, 66, 78
4, 87932, Note_on_c, 0, 66, 0
4, 87932, Note_on_c, 0, 78, 0
4, 88704, Note_on_c, 0, 73, 63
4, 88704, Note_on_c, 0, 69, 63
4, 88704, Note_on_c, 0, 61, 63
4, 89276, Note_on_c, 0, 69, 0
4, 89276, Note_on_c, 0, 73, 0
4, 89280, Note_on_c, 0, 71, 72
4, 89280, Note_on_c, 0, 68, 72
4, 89280, Note_on_c, 0, 65, 72
4, 89852, Note_on_c, 0, 65, 0
4, 89852, Note_on_c, 0, 61, 0
4, 89852, Note_on_c, 0, 71, 0
4, 89852, Note_on_c, 0, 68, 0
4, 89856, Note_on_c, 0, 61, 78
4, 89856, Note_on_c, 0, 71, 78
4, 89856, Note_on_c, 0, 68, 78
4, 89856, Note_on_c, 0, 64, 78
4, 90044, Note_on_c, 0, 64, 0
4, 90044, Note_on_c, 0, 68, 0
4, 90044, Note_on_c, 0, 71, 0
4, 90048, Note_on_c, 0, 69, 78
4, 90048, Note_on_c, 0, 61, 78
4, 90236, Note_on_c, 0, 69, 0
4, 90236, Note_on_c, 0, 61, 0
4, 90240, Note_on_c, 0, 68, 78
4, 90240, Note_on_c, 0, 59, 78
4, 90428, Note_on_c, 0, 59, 0
4, 90428, Note_on_c, 0, 68, 0
4, 90432, Note_on_c, 0, 66, 78
4, 90432, Note_on_c, 0, 57, 78
4, 90620, Note_on_c, 0, 57, 0
4, 90620, Note_on_c, 0, 66, 0
4, 90624, Note_on_c, 0, 68, 78
4, 90624, Note_on_c, 0, 59, 78
4, 90812, Note_on_c, 0, 59, 0
4, 90812, Note_on_c, 0, 68, 0
4, 90816, Note_on_c, 0, 69, 78
4, 90816, Note_on_c, 0, 61, 78
4, 91004, Note_on_c, 0, 61, 0
4, 91004, Note_on_c, 0, 69, 0
4, 91004, Note_on_c, 0, 61, 0
4, 91008, Note_on_c, 0, 62, 78
4, 91008, Note_on_c, 0, 59, 78
4, 91580, Note_on_c, 0, 59, 0
4, 91580, Note_on_c, 0, 62, 0
4, 91584, Note_on_c, 0, 74, 78
4, 91584, Note_on_c, 0, 68, 78
4, 92156, Note_on_c, 0, 68, 0
4, 92156, Note_on_c, 0, 74, 0
4, 92160, Note_on_c, 0, 73, 78
4, 92160, Note_on_c, 0, 68, 78
4, 92160, Note_on_c, 0, 65, 78
4, 92160, Note_on_c, 0, 61, 78
4, 92540, Note_on_c, 0, 61, 0
4, 92540, Note_on_c, 0, 65, 0
4, 92540, Note_on_c, 0, 68, 0
4, 92732, Note_on_c, 0, 73, 0
4, 92736, Note_on_c, 0, 73, 78
4, 92736, Note_on_c, 0, 78, 78
4, 92736, Note_on_c, 0, 81, 78
4, 93308, Note_on_c, 0, 81, 0
4, 93308, Note_on_c, 0, 78, 0
4, 93308, Note_on_c, 0, 73, 0
4, 93312, Note_on_c, 0, 81, 78
4, 93312, Note_on_c, 0, 78, 78
4, 93312, Note_on_c, 0, 72, 78
4, 93884, Note_on_c, 0, 72, 0
4, 93884, Note_on_c, 0, 78, 0
4, 93884, Note_on_c, 0, 81, 0
4, 93888, Note_on_c, 0, 80, 78
4, 93888, Note_on_c, 0, 71, 78
4, 93888, Note_on_c, 0, 77, 78
4, 94268, Note_on_c, 0, 77, 0
4, 94272, Note_on_c, 0, 74, 78
4, 94460, Note_on_c, 0, 74, 0
4, 94460, Note_on_c, 0, 71, 0
4, 94460, Note_on_c, 0, 80, 0
4, 94464, Note_on_c, 0, 80, 78
4, 94464, Note_on_c, 0, 70, 78
4, 94464, Note_on_c, 0, 73, 78
4, 95036, Note_on_c, 0, 70, 0
4, 95036, Note_on_c, 0, 80, 0
4, 95040, Note_on_c, 0, 78, 78
4, 95040, Note_on_c, 0, 69, 78
4, 95228, Note_on_c, 0, 73, 0
4, 95612, Note_on_c, 0, 69, 0
4, 95612, Note_on_c, 0, 78, 0
4, 95616, Note_on_c, 0, 78, 78
4, 95616, Note_on_c, 0, 68, 78
4, 95616, Note_on_c, 0, 71, 78
4, 95804, Note_on_c, 0, 71, 0
4, 95808, Note_on_c, 0, 73, 78
4, 95996, Note_on_c, 0, 73, 0
4, 96000, Note_on_c, 0, 74, 78
4, 96188, Note_on_c, 0, 74, 0
4, 96188, Note_on_c, 0, 68, 0
4, 96188, Note_on_c, 0, 78, 0
4, 96192, Note_on_c, 0, 77, 78
4, 96192, Note_on_c, 0, 68, 78
4, 96192, Note_on_c, 0, 74, 78
4, 96380, Note_on_c, 0, 74, 0
4, 96384, Note_on_c, 0, 73, 78
4, 96572, Note_on_c, 0, 73, 0
4, 96576, Note_on_c, 0, 71, 78
4, 96764, Note_on_c, 0, 71, 0
4, 96764, Note_on_c, 0, 68, 0
4, 96764, Note_on_c, 0, 77, 0
4, 96864, Note_on_c, 0, 66, 78
4, 96956, Note_on_c, 0, 66, 0
4, 97056, Note_on_c, 0, 69, 78
4, 97148, Note_on_c, 0, 69, 0
4, 97248, Note_on_c, 0, 73, 78
4, 97340, Note_on_c, 0, 73, 0
4, 97440, Note_on_c, 0, 69, 78
4, 97532, Note_on_c, 0, 69, 0
4, 97632, Note_on_c, 0, 66, 78
4, 97724, Note_on_c, 0, 66, 0
4, 97824, Note_on_c, 0, 61, 78
4, 97916, Note_on_c, 0, 61, 0
4, 98016, Note_on_c, 0, 62, 78
4, 98108, Note_on_c, 0, 62, 0
4, 98208, Note_on_c, 0, 66, 78
4, 98300, Note_on_c, 0, 66, 0
4, 98400, Note_on_c, 0, 69, 78
4, 98492, Note_on_c, 0, 69, 0
4, 98592, Note_on_c, 0, 66, 78
4, 98684, Note_on_c, 0, 66, 0
4, 98784, Note_on_c, 0, 62, 78
4, 98876, Note_on_c, 0, 62, 0
4, 98976, Note_on_c, 0, 57, 78
4, 99068, Note_on_c, 0, 57, 0
4, 99168, Note_on_c, 0, 59, 78
4, 99260, Note_on_c, 0, 59, 0
4, 99360, Note_on_c, 0, 62, 78
4, 99452, Note_on_c, 0, 62, 0
4, 99552, Note_on_c, 0, 61, 78
4, 99644, Note_on_c, 0, 61, 0
4, 99744, Note_on_c, 0, 59, 78
4, 99836, Note_on_c, 0, 59, 0
4, 99936, Note_on_c, 0, 57, 78
4, 100028, Note_on_c, 0, 57, 0
4, 100128, Note_on_c, 0, 56, 78
4, 100220, Note_on_c, 0, 56, 0
4, 100320, Note_on_c, 0, 61, 78
4, 100412, Note_on_c, 0, 61, 0
4, 100512, Note_on_c, 0, 66, 78
4, 100604, Note_on_c, 0, 66, 0
4, 100704, Note_on_c, 0, 69, 78
4, 100796, Note_on_c, 0, 69, 0
4, 100896, Note_on_c, 0, 61, 78
4, 100988, Note_on_c, 0, 61, 0
4, 101088, Note_on_c, 0, 65, 78
4, 101180, Note_on_c, 0, 65, 0
4, 101280, Note_on_c, 0, 68, 78
4, 101372, Note_on_c, 0, 68, 0
4, 101376, Note_on_c, 0, 81, 63
4, 101376, Note_on_c, 0, 78, 63
4, 101376, Note_on_c, 0, 73, 63
4, 101376, Note_on_c, 0, 69, 63
4, 102524, Note_on_c, 0, 69, 0
4, 102524, Note_on_c, 0, 81, 0
4, 102524, Note_on_c, 0, 78, 0
4, 102524, Note_on_c, 0, 73, 0
4, 102528, Note_on_c, 0, 81, 78
4, 102528, Note_on_c, 0, 78, 78
4, 102528, Note_on_c, 0, 69, 78
4, 102528, Note_on_c, 0, 74, 78
4, 103676, Note_on_c, 0, 69, 0
4, 103676, Note_on_c, 0, 81, 0
4, 103676, Note_on_c, 0, 78, 0
4, 103680, Note_on_c, 0, 79, 78
4, 103680, Note_on_c, 0, 74, 78
4, 103680, Note_on_c, 0, 86, 78
4, 103682, Note_on_c, 0, 74, 0
4, 104252, Note_on_c, 0, 86, 0
4, 104256, Note_on_c, 0, 83, 78
4, 104828, Note_on_c, 0, 83, 0
4, 104828, Note_on_c, 0, 74, 0
4, 104828, Note_on_c, 0, 79, 0
4, 104832, Note_on_c, 0, 78, 78
4, 104832, Note_on_c, 0, 81, 78
4, 104832, Note_on_c, 0, 73, 78
4, 105404, Note_on_c, 0, 81, 0
4, 105404, Note_on_c, 0, 78, 0
4, 105408, Note_on_c, 0, 80, 78
4, 105408, Note_on_c, 0, 77, 78
4, 105980, Note_on_c, 0, 80, 0
4, 105980, Note_on_c, 0, 73, 0
4, 105984, Note_on_c, 0, 78, 78
4, 105984, Note_on_c, 0, 73, 78
4, 105984, Note_on_c, 0, 69, 78
4, 105986, Note_on_c, 0, 77, 0
4, 106172, Note_on_c, 0, 78, 0
4, 106172, Note_on_c, 0, 73, 0
4, 106172, Note_on_c, 0, 69, 0
4, 106560, Note_on_c, 0, 81, 78
4, 107132, Note_on_c, 0, 81, 0
4, 107136, Note_on_c, 0, 74, 78
4, 107136, Note_on_c, 0, 71, 78
4, 107136, Note_on_c, 0, 81, 78
4, 107324, Note_on_c, 0, 81, 0
4, 107328, Note_on_c, 0, 80, 78
4, 107516, Note_on_c, 0, 80, 0
4, 107520, Note_on_c, 0, 78, 78
4, 107708, Note_on_c, 0, 78, 0
4, 107708, Note_on_c, 0, 71, 0
4, 107708, Note_on_c, 0, 74, 0
4, 107712, Note_on_c, 0, 71, 78
4, 107712, Note_on_c, 0, 77, 78
4, 107900, Note_on_c, 0, 77, 0
4, 107904, Note_on_c, 0, 78, 78
4, 108092, Note_on_c, 0, 78, 0
4, 108096, Note_on_c, 0, 80, 78
4, 108284, Note_on_c, 0, 80, 0
4, 108284, Note_on_c, 0, 71, 0
4, 108288, Note_on_c, 0, 73, 78
4, 108668, Note_on_c, 0, 73, 0
4, 108864, Note_on_c, 0, 69, 78
4, 108864, Note_on_c, 0, 81, 78
4, 109628, Note_on_c, 0, 81, 0
4, 109628, Note_on_c, 0, 69, 0
4, 109632, Note_on_c, 0, 80, 78
4, 109632, Note_on_c, 0, 68, 78
4, 109820, Note_on_c, 0, 68, 0
4, 109820, Note_on_c, 0, 80, 0
4, 109824, Note_on_c, 0, 78, 78
4, 109824, Note_on_c, 0, 66, 78
4, 110012, Note_on_c, 0, 66, 0
4, 110012, Note_on_c, 0, 78, 0
4, 110016, Note_on_c, 0, 77, 78
4, 110016, Note_on_c, 0, 73, 78
4, 110016, Note_on_c, 0, 71, 78
4, 110016, Note_on_c, 0, 65, 78
4, 110204, Note_on_c, 0, 65, 0
4, 110204, Note_on_c, 0, 77, 0
4, 110204, Note_on_c, 0, 73, 0
4, 110204, Note_on_c, 0, 71, 0
4, 110208, Note_on_c, 0, 78, 78
4, 110208, Note_on_c, 0, 66, 78
4, 110396, Note_on_c, 0, 66, 0
4, 110396, Note_on_c, 0, 78, 0
4, 110400, Note_on_c, 0, 80, 78
4, 110400, Note_on_c, 0, 68, 78
4, 110588, Note_on_c, 0, 68, 0
4, 110588, Note_on_c, 0, 80, 0
4, 110592, Note_on_c, 0, 73, 72
4, 111164, Note_on_c, 0, 73, 0
4, 111168, Note_on_c, 0, 81, 63
4, 111168, Note_on_c, 0, 69, 63
4, 111936, Note_on_c, 0, 80, 63
4, 111936, Note_on_c, 0, 68, 63
4, 112124, Note_on_c, 0, 68, 0
4, 112124, Note_on_c, 0, 80, 0
4, 112128, Note_on_c, 0, 78, 63
4, 112128, Note_on_c, 0, 66, 63
4, 112316, Note_on_c, 0, 66, 0
4, 112316, Note_on_c, 0, 81, 0
4, 112316, Note_on_c, 0, 69, 0
4, 112316, Note_on_c, 0, 78, 0
4, 112320, Note_on_c, 0, 77, 63
4, 112320, Note_on_c, 0, 65, 63
4, 112508, Note_on_c, 0, 65, 0
4, 112508, Note_on_c, 0, 77, 0
4, 112512, Note_on_c, 0, 78, 63
4, 112512, Note_on_c, 0, 66, 63
4, 112700, Note_on_c, 0, 66, 0
4, 112700, Note_on_c, 0, 78, 0
4, 112704, Note_on_c, 0, 80, 63
4, 112704, Note_on_c, 0, 68, 63
4, 112892, Note_on_c, 0, 68, 0
4, 112892, Note_on_c, 0, 80, 0
4, 112896, Note_on_c, 0, 78, 53
4, 112896, Note_on_c, 0, 69, 53
4, 112896, Note_on_c, 0, 66, 53
4, 113084, Note_on_c, 0, 66, 0
4, 113084, Note_on_c, 0, 69, 0
4, 113084, Note_on_c, 0, 78, 0
4, 113088, Note_on_c, 0, 78, 53
4, 113088, Note_on_c, 0, 69, 53
4, 113088, Note_on_c, 0, 66, 53
4, 113276, Note_on_c, 0, 66, 0
4, 113276, Note_on_c, 0, 69, 0
4, 113276, Note_on_c, 0, 78, 0
4, 113472, Note_on_c, 0, 85, 53
4, 113472, Note_on_c, 0, 78, 53
4, 113472, Note_on_c, 0, 73, 53
4, 113660, Note_on_c, 0, 73, 0
4, 113660, Note_on_c, 0, 78, 0
4, 113660, Note_on_c, 0, 85, 0
4, 113664, Note_on_c, 0, 85, 53
4, 113664, Note_on_c, 0, 78, 53
4, 113664, Note_on_c, 0, 73, 53
4, 113852, Note_on_c, 0, 73, 0
4, 113852, Note_on_c, 0, 78, 0
4, 113852, Note_on_c, 0, 85, 0
4, 114048, Note_on_c, 0, 90, 53
4, 114048, Note_on_c, 0, 85, 53
4, 114048, Note_on_c, 0, 81, 53
4, 114048, Note_on_c, 0, 78, 53
4, 114236, Note_on_c, 0, 78, 0
4, 114236, Note_on_c, 0, 90, 0
4, 114236, Note_on_c, 0, 85, 0
4, 114236, Note_on_c, 0, 81, 0
4, 114240, Note_on_c, 0, 90, 53
4, 114240, Note_on_c, 0, 81, 53
4, 114240, Note_on_c, 0, 78, 53
4, 114240, Note_on_c, 0, 85, 53
4, 114428, Note_on_c, 0, 85, 0
4, 114428, Note_on_c, 0, 90, 0
4, 114428, Note_on_c, 0, 81, 0
4, 114428, Note_on_c, 0, 78, 0
4, 114428, End_track
5, 0, Start_track
5, 0, Title_t, "Piano"
5, 0, Control_c, 0, 0, 0
5, 0, Control_c, 0, 7, 110
5, 0, Control_c, 0, 10, 45
5, 0, Control_c, 0, 91, 67
5, 0, Control_c, 0, 93, 47
5, 0, Control_c, 0, 121, 0
5, 0, Control_c, 0, 32, 0
5, 1, Program_c, 0, 0
5, 192, Control_c, 0, 10, 43
5, 240, Control_c, 0, 91, 63
5, 288, Control_c, 0, 93, 40
5, 336, Program_c, 0, 0
5, 13824, Note_on_c, 0, 54, 63
5, 13824, Note_on_c, 0, 42, 63
5, 14012, Note_on_c, 0, 42, 0
5, 14012, Note_on_c, 0, 54, 0
5, 14400, Note_on_c, 0, 54, 72
5, 14400, Note_on_c, 0, 42, 72
5, 14492, Note_on_c, 0, 42, 0
5, 14492, Note_on_c, 0, 54, 0
5, 14496, Note_on_c, 0, 57, 78
5, 14588, Note_on_c, 0, 57, 0
5, 14592, Note_on_c, 0, 61, 78
5, 14684, Note_on_c, 0, 61, 0
5, 14688, Note_on_c, 0, 66, 78
5, 14780, Note_on_c, 0, 66, 0
5, 14784, Note_on_c, 0, 61, 78
5, 14876, Note_on_c, 0, 61, 0
5, 14880, Note_on_c, 0, 57, 78
5, 14972, Note_on_c, 0, 57, 0
5, 14976, Note_on_c, 0, 54, 78
5, 14976, Note_on_c, 0, 42, 78
5, 15068, Note_on_c, 0, 42, 0
5, 15068, Note_on_c, 0, 54, 0
5, 15072, Note_on_c, 0, 57, 78
5, 15164, Note_on_c, 0, 57, 0
5, 15168, Note_on_c, 0, 61, 78
5, 15260, Note_on_c, 0, 61, 0
5, 15264, Note_on_c, 0, 66, 78
5, 15356, Note_on_c, 0, 66, 0
5, 15360, Note_on_c, 0, 61, 78
5, 15452, Note_on_c, 0, 61, 0
5, 15456, Note_on_c, 0, 57, 78
5, 15548, Note_on_c, 0, 57, 0
5, 15552, Note_on_c, 0, 56, 78
5, 15552, Note_on_c, 0, 42, 78
5, 15644, Note_on_c, 0, 42, 0
5, 15644, Note_on_c, 0, 56, 0
5, 15648, Note_on_c, 0, 59, 78
5, 15740, Note_on_c, 0, 59, 0
5, 15744, Note_on_c, 0, 61, 78
5, 15836, Note_on_c, 0, 61, 0
5, 15840, Note_on_c, 0, 65, 78
5, 15932, Note_on_c, 0, 65, 0
5, 15936, Note_on_c, 0, 61, 78
5, 16028, Note_on_c, 0, 61, 0
5, 16032, Note_on_c, 0, 59, 78
5, 16124, Note_on_c, 0, 59, 0
5, 16128, Note_on_c, 0, 45, 78
5, 16128, Note_on_c, 0, 59, 78
5, 16316, Note_on_c, 0, 59, 0
5, 16320, Note_on_c, 0, 57, 78
5, 16508, Note_on_c, 0, 57, 0
5, 16512, Note_on_c, 0, 56, 78
5, 16700, Note_on_c, 0, 56, 0
5, 16700, Note_on_c, 0, 45, 0
5, 16704, Note_on_c, 0, 45, 78
5, 16704, Note_on_c, 0, 54, 78
5, 16796, Note_on_c, 0, 54, 0
5, 16796, Note_on_c, 0, 45, 0
5, 16800, Note_on_c, 0, 57, 78
5, 16892, Note_on_c, 0, 57, 0
5, 16896, Note_on_c, 0, 56, 78
5, 16988, Note_on_c, 0, 56, 0
5, 16992, Note_on_c, 0, 59, 78
5, 17084, Note_on_c, 0, 59, 0
5, 17088, Note_on_c, 0, 57, 78
5, 17180, Note_on_c, 0, 57, 0
5, 17184, Note_on_c, 0, 61, 78
5, 17276, Note_on_c, 0, 61, 0
5, 17280, Note_on_c, 0, 47, 78
5, 17372, Note_on_c, 0, 47, 0
5, 17376, Note_on_c, 0, 59, 78
5, 17468, Note_on_c, 0, 59, 0
5, 17472, Note_on_c, 0, 62, 78
5, 17564, Note_on_c, 0, 62, 0
5, 17568, Note_on_c, 0, 66, 78
5, 17660, Note_on_c, 0, 66, 0
5, 17664, Note_on_c, 0, 62, 78
5, 17756, Note_on_c, 0, 62, 0
5, 17760, Note_on_c, 0, 59, 78
5, 17852, Note_on_c, 0, 59, 0
5, 17856, Note_on_c, 0, 47, 78
5, 17948, Note_on_c, 0, 47, 0
5, 17952, Note_on_c, 0, 59, 78
5, 18044, Note_on_c, 0, 59, 0
5, 18048, Note_on_c, 0, 62, 78
5, 18140, Note_on_c, 0, 62, 0
5, 18144, Note_on_c, 0, 66, 78
5, 18236, Note_on_c, 0, 66, 0
5, 18240, Note_on_c, 0, 62, 78
5, 18332, Note_on_c, 0, 62, 0
5, 18336, Note_on_c, 0, 59, 78
5, 18428, Note_on_c, 0, 59, 0
5, 18432, Note_on_c, 0, 62, 85
5, 18432, Note_on_c, 0, 49, 85
5, 18524, Note_on_c, 0, 49, 0
5, 18524, Note_on_c, 0, 62, 0
5, 18528, Note_on_c, 0, 56, 85
5, 18620, Note_on_c, 0, 56, 0
5, 18624, Note_on_c, 0, 61, 85
5, 18716, Note_on_c, 0, 61, 0
5, 18720, Note_on_c, 0, 56, 85
5, 18812, Note_on_c, 0, 56, 0
5, 18816, Note_on_c, 0, 59, 85
5, 18908, Note_on_c, 0, 59, 0
5, 18912, Note_on_c, 0, 56, 85
5, 19004, Note_on_c, 0, 56, 0
5, 19008, Note_on_c, 0, 42, 85
5, 19100, Note_on_c, 0, 42, 0
5, 19104, Note_on_c, 0, 57, 85
5, 19196, Note_on_c, 0, 57, 0
5, 19200, Note_on_c, 0, 61, 85
5, 19292, Note_on_c, 0, 61, 0
5, 19296, Note_on_c, 0, 66, 85
5, 19388, Note_on_c, 0, 66, 0
5, 19392, Note_on_c, 0, 61, 85
5, 19484, Note_on_c, 0, 61, 0
5, 19488, Note_on_c, 0, 57, 85
5, 19580, Note_on_c, 0, 57, 0
5, 19584, Note_on_c, 0, 48, 82
5, 19676, Note_on_c, 0, 48, 0
5, 19680, Note_on_c, 0, 56, 82
5, 19772, Note_on_c, 0, 56, 0
5, 19776, Note_on_c, 0, 63, 82
5, 19868, Note_on_c, 0, 63, 0
5, 19872, Note_on_c, 0, 66, 82
5, 19964, Note_on_c, 0, 66, 0
5, 19968, Note_on_c, 0, 63, 82
5, 20060, Note_on_c, 0, 63, 0
5, 20064, Note_on_c, 0, 56, 82
5, 20156, Note_on_c, 0, 56, 0
5, 20160, Note_on_c, 0, 48, 78
5, 20252, Note_on_c, 0, 48, 0
5, 20256, Note_on_c, 0, 56, 78
5, 20348, Note_on_c, 0, 56, 0
5, 20352, Note_on_c, 0, 59, 78
5, 20444, Note_on_c, 0, 59, 0
5, 20448, Note_on_c, 0, 62, 78
5, 20540, Note_on_c, 0, 62, 0
5, 20544, Note_on_c, 0, 59, 78
5, 20636, Note_on_c, 0, 59, 0
5, 20640, Note_on_c, 0, 56, 78
5, 20732, Note_on_c, 0, 56, 0
5, 20736, Note_on_c, 0, 46, 78
5, 20828, Note_on_c, 0, 46, 0
5, 20832, Note_on_c, 0, 52, 78
5, 20924, Note_on_c, 0, 52, 0
5, 20928, Note_on_c, 0, 54, 78
5, 21020, Note_on_c, 0, 54, 0
5, 21024, Note_on_c, 0, 61, 78
5, 21116, Note_on_c, 0, 61, 0
5, 21120, Note_on_c, 0, 54, 78
5, 21212, Note_on_c, 0, 54, 0
5, 21216, Note_on_c, 0, 46, 78
5, 21308, Note_on_c, 0, 46, 0
5, 21312, Note_on_c, 0, 47, 78
5, 21500, Note_on_c, 0, 47, 0
5, 21504, Note_on_c, 0, 55, 78
5, 21692, Note_on_c, 0, 55, 0
5, 21696, Note_on_c, 0, 54, 78
5, 21884, Note_on_c, 0, 54, 0
5, 21888, Note_on_c, 0, 53, 78
5, 22076, Note_on_c, 0, 53, 0
5, 22080, Note_on_c, 0, 49, 78
5, 22268, Note_on_c, 0, 49, 0
5, 22272, Note_on_c, 0, 54, 78
5, 22460, Note_on_c, 0, 54, 0
5, 22464, Note_on_c, 0, 50, 78
5, 22652, Note_on_c, 0, 50, 0
5, 22656, Note_on_c, 0, 47, 78
5, 22844, Note_on_c, 0, 47, 0
5, 22848, Note_on_c, 0, 49, 78
5, 23036, Note_on_c, 0, 49, 0
5, 23040, Note_on_c, 0, 54, 78
5, 23420, Note_on_c, 0, 54, 0
5, 28800, Note_on_c, 0, 56, 63
5, 29948, Note_on_c, 0, 56, 0
5, 29952, Note_on_c, 0, 57, 78
5, 30524, Note_on_c, 0, 57, 0
5, 30528, Note_on_c, 0, 49, 78
5, 31100, Note_on_c, 0, 49, 0
5, 31104, Note_on_c, 0, 50, 78
5, 31676, Note_on_c, 0, 50, 0
5, 31680, Note_on_c, 0, 51, 78
5, 32252, Note_on_c, 0, 51, 0
5, 32256, Note_on_c, 0, 52, 78
5, 32256, Note_on_c, 0, 64, 78
5, 32540, Note_on_c, 0, 52, 0
5, 32832, Note_on_c, 0, 52, 78
5, 33116, Note_on_c, 0, 52, 0
5, 33404, Note_on_c, 0, 64, 0
5, 33408, Note_on_c, 0, 64, 78
5, 33408, Note_on_c, 0, 52, 78
5, 33980, Note_on_c, 0, 52, 0
5, 33984, Note_on_c, 0, 52, 78
5, 34556, Note_on_c, 0, 52, 0
5, 34556, Note_on_c, 0, 64, 0
5, 34560, Note_on_c, 0, 52, 78
5, 34560, Note_on_c, 0, 64, 78
5, 35132, Note_on_c, 0, 52, 0
5, 35136, Note_on_c, 0, 52, 78
5, 35708, Note_on_c, 0, 52, 0
5, 35708, Note_on_c, 0, 64, 0
5, 35712, Note_on_c, 0, 60, 86
5, 35712, Note_on_c, 0, 53, 86
5, 35900, Note_on_c, 0, 53, 0
5, 36284, Note_on_c, 0, 60, 0
5, 36288, Note_on_c, 0, 57, 63
5, 36288, Note_on_c, 0, 53, 63
5, 36476, Note_on_c, 0, 53, 0
5, 36860, Note_on_c, 0, 57, 0
5, 36864, Note_on_c, 0, 64, 78
5, 36864, Note_on_c, 0, 52, 78
5, 38012, Note_on_c, 0, 52, 0
5, 38012, Note_on_c, 0, 64, 0
5, 38016, Note_on_c, 0, 59, 78
5, 38016, Note_on_c, 0, 56, 78
5, 38016, Note_on_c, 0, 52, 78
5, 38588, Note_on_c, 0, 56, 0
5, 38588, Note_on_c, 0, 59, 0
5, 38592, Note_on_c, 0, 57, 78
5, 38592, Note_on_c, 0, 61, 78
5, 39164, Note_on_c, 0, 61, 0
5, 39164, Note_on_c, 0, 57, 0
5, 39164, Note_on_c, 0, 52, 0
5, 39168, Note_on_c, 0, 59, 78
5, 39168, Note_on_c, 0, 56, 78
5, 39168, Note_on_c, 0, 52, 78
5, 39548, Note_on_c, 0, 52, 0
5, 39548, Note_on_c, 0, 56, 0
5, 39548, Note_on_c, 0, 59, 0
5, 40320, Note_on_c, 0, 45, 63
5, 40320, Note_on_c, 0, 52, 63
5, 40380, Note_on_c, 0, 52, 0
5, 40380, Note_on_c, 0, 45, 0
5, 40384, Note_on_c, 0, 57, 63
5, 40444, Note_on_c, 0, 57, 0
5, 40448, Note_on_c, 0, 61, 63
5, 40508, Note_on_c, 0, 61, 0
5, 40512, Note_on_c, 0, 64, 63
5, 40572, Note_on_c, 0, 64, 0
5, 40576, Note_on_c, 0, 61, 63
5, 40636, Note_on_c, 0, 61, 0
5, 40640, Note_on_c, 0, 57, 63
5, 40700, Note_on_c, 0, 57, 0
5, 40704, Note_on_c, 0, 45, 63
5, 40764, Note_on_c, 0, 45, 0
5, 40768, Note_on_c, 0, 52, 63
5, 40828, Note_on_c, 0, 52, 0
5, 40832, Note_on_c, 0, 57, 63
5, 40892, Note_on_c, 0, 57, 0
5, 40896, Note_on_c, 0, 45, 63
5, 40896, Note_on_c, 0, 52, 63
5, 40956, Note_on_c, 0, 52, 0
5, 40956, Note_on_c, 0, 45, 0
5, 40960, Note_on_c, 0, 57, 63
5, 41020, Note_on_c, 0, 57, 0
5, 41024, Note_on_c, 0, 61, 63
5, 41084, Note_on_c, 0, 61, 0
5, 41088, Note_on_c, 0, 64, 63
5, 41148, Note_on_c, 0, 64, 0
5, 41152, Note_on_c, 0, 61, 63
5, 41212, Note_on_c, 0, 61, 0
5, 41216, Note_on_c, 0, 57, 63
5, 41276, Note_on_c, 0, 57, 0
5, 41280, Note_on_c, 0, 45, 63
5, 41340, Note_on_c, 0, 45, 0
5, 41344, Note_on_c, 0, 52, 63
5, 41404, Note_on_c, 0, 52, 0
5, 41408, Note_on_c, 0, 57, 63
5, 41468, Note_on_c, 0, 57, 0
5, 41472, Note_on_c, 0, 52, 78
5, 41472, Note_on_c, 0, 45, 78
5, 41532, Note_on_c, 0, 45, 0
5, 41532, Note_on_c, 0, 52, 0
5, 41536, Note_on_c, 0, 56, 78
5, 41596, Note_on_c, 0, 56, 0
5, 41600, Note_on_c, 0, 59, 78
5, 41660, Note_on_c, 0, 59, 0
5, 41664, Note_on_c, 0, 64, 78
5, 41724, Note_on_c, 0, 64, 0
5, 41728, Note_on_c, 0, 59, 78
5, 41788, Note_on_c, 0, 59, 0
5, 41792, Note_on_c, 0, 56, 78
5, 41852, Note_on_c, 0, 56, 0
5, 41856, Note_on_c, 0, 52, 78
5, 41916, Note_on_c, 0, 52, 0
5, 41920, Note_on_c, 0, 56, 78
5, 41980, Note_on_c, 0, 56, 0
5, 41984, Note_on_c, 0, 59, 78
5, 42044, Note_on_c, 0, 59, 0
5, 42048, Note_on_c, 0, 52, 78
5, 42048, Note_on_c, 0, 44, 78
5, 42108, Note_on_c, 0, 44, 0
5, 42108, Note_on_c, 0, 52, 0
5, 42112, Note_on_c, 0, 56, 78
5, 42172, Note_on_c, 0, 56, 0
5, 42176, Note_on_c, 0, 59, 78
5, 42236, Note_on_c, 0, 59, 0
5, 42240, Note_on_c, 0, 64, 78
5, 42300, Note_on_c, 0, 64, 0
5, 42304, Note_on_c, 0, 59, 78
5, 42364, Note_on_c, 0, 59, 0
5, 42368, Note_on_c, 0, 56, 78
5, 42428, Note_on_c, 0, 56, 0
5, 42432, Note_on_c, 0, 52, 78
5, 42492, Note_on_c, 0, 52, 0
5, 42496, Note_on_c, 0, 56, 78
5, 42556, Note_on_c, 0, 56, 0
5, 42560, Note_on_c, 0, 59, 78
5, 42620, Note_on_c, 0, 59, 0
5, 42624, Note_on_c, 0, 45, 78
5, 42716, Note_on_c, 0, 45, 0
5, 42720, Note_on_c, 0, 57, 78
5, 42812, Note_on_c, 0, 57, 0
5, 42816, Note_on_c, 0, 59, 78
5, 42908, Note_on_c, 0, 59, 0
5, 42912, Note_on_c, 0, 61, 78
5, 43004, Note_on_c, 0, 61, 0
5, 43008, Note_on_c, 0, 62, 78
5, 43100, Note_on_c, 0, 62, 0
5, 43104, Note_on_c, 0, 59, 78
5, 43196, Note_on_c, 0, 59, 0
5, 43200, Note_on_c, 0, 61, 78
5, 43292, Note_on_c, 0, 61, 0
5, 43296, Note_on_c, 0, 56, 78
5, 43388, Note_on_c, 0, 56, 0
5, 43392, Note_on_c, 0, 57, 78
5, 43484, Note_on_c, 0, 57, 0
5, 43488, Note_on_c, 0, 57, 78
5, 43488, Note_on_c, 0, 61, 78
5, 43580, Note_on_c, 0, 61, 0
5, 43580, Note_on_c, 0, 57, 0
5, 43584, Note_on_c, 0, 59, 78
5, 43584, Note_on_c, 0, 62, 78
5, 43676, Note_on_c, 0, 62, 0
5, 43676, Note_on_c, 0, 59, 0
5, 43680, Note_on_c, 0, 60, 78
5, 43680, Note_on_c, 0, 63, 78
5, 43772, Note_on_c, 0, 63, 0
5, 43772, Note_on_c, 0, 60, 0
5, 43776, Note_on_c, 0, 61, 78
5, 43776, Note_on_c, 0, 64, 78
5, 43776, Note_on_c, 0, 52, 78
5, 43868, Note_on_c, 0, 64, 0
5, 43868, Note_on_c, 0, 61, 0
5, 43872, Note_on_c, 0, 60, 78
5, 43872, Note_on_c, 0, 63, 78
5, 43964, Note_on_c, 0, 63, 0
5, 43964, Note_on_c, 0, 60, 0
5, 43964, Note_on_c, 0, 52, 0
5, 43968, Note_on_c, 0, 61, 78
5, 43968, Note_on_c, 0, 64, 78
5, 43968, Note_on_c, 0, 52, 78
5, 44060, Note_on_c, 0, 64, 0
5, 44060, Note_on_c, 0, 61, 0
5, 44064, Note_on_c, 0, 60, 78
5, 44064, Note_on_c, 0, 63, 78
5, 44156, Note_on_c, 0, 63, 0
5, 44156, Note_on_c, 0, 60, 0
5, 44156, Note_on_c, 0, 52, 0
5, 44160, Note_on_c, 0, 61, 78
5, 44160, Note_on_c, 0, 64, 78
5, 44160, Note_on_c, 0, 52, 78
5, 44252, Note_on_c, 0, 64, 0
5, 44252, Note_on_c, 0, 61, 0
5, 44256, Note_on_c, 0, 57, 78
5, 44256, Note_on_c, 0, 61, 78
5, 44348, Note_on_c, 0, 61, 0
5, 44348, Note_on_c, 0, 57, 0
5, 44348, Note_on_c, 0, 52, 0
5, 44352, Note_on_c, 0, 59, 78
5, 44352, Note_on_c, 0, 56, 78
5, 44352, Note_on_c, 0, 52, 78
5, 44444, Note_on_c, 0, 52, 0
5, 44444, Note_on_c, 0, 56, 0
5, 44444, Note_on_c, 0, 59, 0
5, 44928, Note_on_c, 0, 57, 63
5, 44928, Note_on_c, 0, 45, 63
5, 45308, Note_on_c, 0, 45, 0
5, 45308, Note_on_c, 0, 57, 0
5, 45312, Note_on_c, 0, 57, 63
5, 45312, Note_on_c, 0, 45, 63
5, 45500, Note_on_c, 0, 45, 0
5, 45500, Note_on_c, 0, 57, 0
5, 45504, Note_on_c, 0, 57, 63
5, 45504, Note_on_c, 0, 45, 63
5, 45884, Note_on_c, 0, 45, 0
5, 45884, Note_on_c, 0, 57, 0
5, 45888, Note_on_c, 0, 57, 63
5, 45888, Note_on_c, 0, 52, 63
5, 45888, Note_on_c, 0, 45, 63
5, 46076, Note_on_c, 0, 45, 0
5, 46076, Note_on_c, 0, 52, 0
5, 46076, Note_on_c, 0, 57, 0
5, 46080, Note_on_c, 0, 56, 78
5, 46080, Note_on_c, 0, 52, 78
5, 46080, Note_on_c, 0, 44, 78
5, 46268, Note_on_c, 0, 44, 0
5, 46268, Note_on_c, 0, 52, 0
5, 46268, Note_on_c, 0, 56, 0
5, 46272, Note_on_c, 0, 56, 78
5, 46272, Note_on_c, 0, 52, 78
5, 46272, Note_on_c, 0, 44, 78
5, 46460, Note_on_c, 0, 44, 0
5, 46460, Note_on_c, 0, 52, 0
5, 46460, Note_on_c, 0, 56, 0
5, 46464, Note_on_c, 0, 56, 78
5, 46464, Note_on_c, 0, 52, 78
5, 46464, Note_on_c, 0, 44, 78
5, 46652, Note_on_c, 0, 44, 0
5, 46652, Note_on_c, 0, 52, 0
5, 46652, Note_on_c, 0, 56, 0
5, 46656, Note_on_c, 0, 56, 78
5, 46656, Note_on_c, 0, 52, 78
5, 46656, Note_on_c, 0, 44, 78
5, 46844, Note_on_c, 0, 44, 0
5, 46844, Note_on_c, 0, 52, 0
5, 46844, Note_on_c, 0, 56, 0
5, 47040, Note_on_c, 0, 59, 63
5, 47040, Note_on_c, 0, 52, 63
5, 47228, Note_on_c, 0, 52, 0
5, 47228, Note_on_c, 0, 59, 0
5, 47232, Note_on_c, 0, 54, 78
5, 47232, Note_on_c, 0, 57, 78
5, 47420, Note_on_c, 0, 57, 0
5, 47420, Note_on_c, 0, 54, 0
5, 47808, Note_on_c, 0, 50, 78
5, 47996, Note_on_c, 0, 50, 0
5, 48384, Note_on_c, 0, 52, 78
5, 48576, Note_on_c, 0, 61, 78
5, 48764, Note_on_c, 0, 61, 0
5, 48768, Note_on_c, 0, 59, 78
5, 48956, Note_on_c, 0, 59, 0
5, 48956, Note_on_c, 0, 52, 0
5, 48960, Note_on_c, 0, 57, 78
5, 49148, Note_on_c, 0, 57, 0
5, 49152, Note_on_c, 0, 61, 78
5, 49152, Note_on_c, 0, 45, 78
5, 49340, Note_on_c, 0, 45, 0
5, 49340, Note_on_c, 0, 61, 0
5, 49344, Note_on_c, 0, 57, 78
5, 49532, Note_on_c, 0, 57, 0
5, 49536, Note_on_c, 0, 52, 78
5, 49536, Note_on_c, 0, 52, 78
5, 49724, Note_on_c, 0, 52, 0
5, 49728, Note_on_c, 0, 56, 78
5, 49916, Note_on_c, 0, 56, 0
5, 49920, Note_on_c, 0, 57, 78
5, 50108, Note_on_c, 0, 57, 0
5, 50108, Note_on_c, 0, 52, 0
5, 50112, Note_on_c, 0, 52, 78
5, 50684, Note_on_c, 0, 52, 0
5, 50688, Note_on_c, 0, 45, 78
5, 50876, Note_on_c, 0, 45, 0
5, 50880, Note_on_c, 0, 49, 78
5, 51068, Note_on_c, 0, 49, 0
5, 51072, Note_on_c, 0, 52, 78
5, 51072, Note_on_c, 0, 56, 78
5, 51260, Note_on_c, 0, 56, 0
5, 51260, Note_on_c, 0, 52, 0
5, 51264, Note_on_c, 0, 57, 78
5, 51452, Note_on_c, 0, 57, 0
5, 52032, Note_on_c, 0, 54, 78
5, 52032, Note_on_c, 0, 50, 78
5, 52220, Note_on_c, 0, 50, 0
5, 52220, Note_on_c, 0, 54, 0
5, 52224, Note_on_c, 0, 52, 78
5, 52412, Note_on_c, 0, 52, 0
5, 52416, Note_on_c, 0, 45, 78
5, 52604, Note_on_c, 0, 45, 0
5, 52992, Note_on_c, 0, 52, 78
5, 53184, Note_on_c, 0, 44, 78
5, 53372, Note_on_c, 0, 44, 0
5, 53376, Note_on_c, 0, 45, 78
5, 53564, Note_on_c, 0, 45, 0
5, 53564, Note_on_c, 0, 52, 0
5, 53568, Note_on_c, 0, 52, 78
5, 53568, Note_on_c, 0, 40, 78
5, 53628, Note_on_c, 0, 40, 0
5, 53628, Note_on_c, 0, 52, 0
5, 53632, Note_on_c, 0, 59, 78
5, 53692, Note_on_c, 0, 59, 0
5, 53696, Note_on_c, 0, 57, 78
5, 53756, Note_on_c, 0, 57, 0
5, 53760, Note_on_c, 0, 56, 78
5, 53820, Note_on_c, 0, 56, 0
5, 53824, Note_on_c, 0, 54, 78
5, 53884, Note_on_c, 0, 54, 0
5, 53888, Note_on_c, 0, 52, 78
5, 53948, Note_on_c, 0, 52, 0
5, 53952, Note_on_c, 0, 50, 78
5, 54012, Note_on_c, 0, 50, 0
5, 54016, Note_on_c, 0, 49, 78
5, 54076, Note_on_c, 0, 49, 0
5, 54080, Note_on_c, 0, 47, 78
5, 54140, Note_on_c, 0, 47, 0
5, 54144, Note_on_c, 0, 45, 78
5, 54144, Note_on_c, 0, 33, 78
5, 54332, Note_on_c, 0, 33, 0
5, 54332, Note_on_c, 0, 45, 0
5, 54336, Note_on_c, 0, 49, 78
5, 54336, Note_on_c, 0, 37, 78
5, 54524, Note_on_c, 0, 37, 0
5, 54524, Note_on_c, 0, 49, 0
5, 54528, Note_on_c, 0, 52, 78
5, 54528, Note_on_c, 0, 40, 78
5, 54716, Note_on_c, 0, 40, 0
5, 54716, Note_on_c, 0, 52, 0
5, 54720, Note_on_c, 0, 54, 78
5, 54720, Note_on_c, 0, 42, 78
5, 54780, Note_on_c, 0, 42, 0
5, 54780, Note_on_c, 0, 54, 0
5, 54784, Note_on_c, 0, 61, 78
5, 54844, Note_on_c, 0, 61, 0
5, 54848, Note_on_c, 0, 59, 78
5, 54908, Note_on_c, 0, 59, 0
5, 54912, Note_on_c, 0, 57, 78
5, 54972, Note_on_c, 0, 57, 0
5, 54976, Note_on_c, 0, 56, 78
5, 55036, Note_on_c, 0, 56, 0
5, 55040, Note_on_c, 0, 54, 78
5, 55100, Note_on_c, 0, 54, 0
5, 55104, Note_on_c, 0, 52, 78
5, 55164, Note_on_c, 0, 52, 0
5, 55168, Note_on_c, 0, 50, 78
5, 55228, Note_on_c, 0, 50, 0
5, 55232, Note_on_c, 0, 49, 78
5, 55292, Note_on_c, 0, 49, 0
5, 55296, Note_on_c, 0, 50, 78
5, 55296, Note_on_c, 0, 38, 78
5, 55868, Note_on_c, 0, 38, 0
5, 55868, Note_on_c, 0, 50, 0
5, 55872, Note_on_c, 0, 51, 78
5, 55872, Note_on_c, 0, 39, 78
5, 56444, Note_on_c, 0, 39, 0
5, 56444, Note_on_c, 0, 51, 0
5, 56448, Note_on_c, 0, 52, 78
5, 56448, Note_on_c, 0, 40, 78
5, 56828, Note_on_c, 0, 40, 0
5, 56828, Note_on_c, 0, 52, 0
5, 57024, Note_on_c, 0, 52, 78
5, 57024, Note_on_c, 0, 40, 78
5, 57404, Note_on_c, 0, 40, 0
5, 57404, Note_on_c, 0, 52, 0
5, 57600, Note_on_c, 0, 52, 78
5, 57600, Note_on_c, 0, 40, 78
5, 57980, Note_on_c, 0, 40, 0
5, 57980, Note_on_c, 0, 52, 0
5, 58176, Note_on_c, 0, 40, 78
5, 58176, Note_on_c, 0, 52, 78
5, 58556, Note_on_c, 0, 52, 0
5, 58556, Note_on_c, 0, 40, 0
5, 58752, Note_on_c, 0, 57, 78
5, 58752, Note_on_c, 0, 45, 78
5, 58940, Note_on_c, 0, 45, 0
5, 58940, Note_on_c, 0, 57, 0
5, 73728, Note_on_c, 0, 62, 63
5, 73728, Note_on_c, 0, 57, 63
5, 73728, Note_on_c, 0, 50, 63
5, 74876, Note_on_c, 0, 50, 0
5, 74876, Note_on_c, 0, 57, 0
5, 74876, Note_on_c, 0, 62, 0
5, 74880, Note_on_c, 0, 59, 72
5, 74880, Note_on_c, 0, 47, 72
5, 75068, Note_on_c, 0, 47, 0
5, 75068, Note_on_c, 0, 59, 0
5, 78336, Note_on_c, 0, 54, 63
5, 78336, Note_on_c, 0, 42, 63
5, 78524, Note_on_c, 0, 42, 0
5, 78524, Note_on_c, 0, 54, 0
5, 78912, Note_on_c, 0, 54, 72
5, 78912, Note_on_c, 0, 42, 72
5, 79004, Note_on_c, 0, 42, 0
5, 79004, Note_on_c, 0, 54, 0
5, 79008, Note_on_c, 0, 57, 78
5, 79100, Note_on_c, 0, 57, 0
5, 79104, Note_on_c, 0, 61, 78
5, 79196, Note_on_c, 0, 61, 0
5, 79200, Note_on_c, 0, 66, 78
5, 79292, Note_on_c, 0, 66, 0
5, 79296, Note_on_c, 0, 61, 78
5, 79388, Note_on_c, 0, 61, 0
5, 79392, Note_on_c, 0, 57, 78
5, 79484, Note_on_c, 0, 57, 0
5, 79488, Note_on_c, 0, 54, 78
5, 79488, Note_on_c, 0, 42, 78
5, 79580, Note_on_c, 0, 42, 0
5, 79580, Note_on_c, 0, 54, 0
5, 79584, Note_on_c, 0, 57, 78
5, 79676, Note_on_c, 0, 57, 0
5, 79680, Note_on_c, 0, 61, 78
5, 79772, Note_on_c, 0, 61, 0
5, 79776, Note_on_c, 0, 66, 78
5, 79868, Note_on_c, 0, 66, 0
5, 79872, Note_on_c, 0, 61, 78
5, 79964, Note_on_c, 0, 61, 0
5, 79968, Note_on_c, 0, 57, 78
5, 80060, Note_on_c, 0, 57, 0
5, 80064, Note_on_c, 0, 56, 78
5, 80064, Note_on_c, 0, 44, 78
5, 80156, Note_on_c, 0, 44, 0
5, 80156, Note_on_c, 0, 56, 0
5, 80160, Note_on_c, 0, 59, 78
5, 80252, Note_on_c, 0, 59, 0
5, 80256, Note_on_c, 0, 61, 78
5, 80348, Note_on_c, 0, 61, 0
5, 80352, Note_on_c, 0, 65, 78
5, 80444, Note_on_c, 0, 65, 0
5, 80448, Note_on_c, 0, 61, 78
5, 80540, Note_on_c, 0, 61, 0
5, 80544, Note_on_c, 0, 59, 78
5, 80636, Note_on_c, 0, 59, 0
5, 80640, Note_on_c, 0, 45, 78
5, 80640, Note_on_c, 0, 59, 78
5, 80828, Note_on_c, 0, 59, 0
5, 80832, Note_on_c, 0, 57, 78
5, 81020, Note_on_c, 0, 57, 0
5, 81024, Note_on_c, 0, 56, 78
5, 81212, Note_on_c, 0, 56, 0
5, 81212, Note_on_c, 0, 45, 0
5, 81216, Note_on_c, 0, 54, 78
5, 81216, Note_on_c, 0, 45, 78
5, 81308, Note_on_c, 0, 45, 0
5, 81308, Note_on_c, 0, 54, 0
5, 81312, Note_on_c, 0, 57, 78
5, 81404, Note_on_c, 0, 57, 0
5, 81408, Note_on_c, 0, 61, 78
5, 81500, Note_on_c, 0, 61, 0
5, 81504, Note_on_c, 0, 66, 78
5, 81596, Note_on_c, 0, 66, 0
5, 81600, Note_on_c, 0, 61, 78
5, 81692, Note_on_c, 0, 61, 0
5, 81696, Note_on_c, 0, 57, 78
5, 81788, Note_on_c, 0, 57, 0
5, 81792, Note_on_c, 0, 59, 78
5, 81792, Note_on_c, 0, 47, 78
5, 81884, Note_on_c, 0, 47, 0
5, 81884, Note_on_c, 0, 59, 0
5, 81888, Note_on_c, 0, 54, 78
5, 81980, Note_on_c, 0, 54, 0
5, 81984, Note_on_c, 0, 59, 78
5, 82076, Note_on_c, 0, 59, 0
5, 82080, Note_on_c, 0, 62, 78
5, 82172, Note_on_c, 0, 62, 0
5, 82176, Note_on_c, 0, 59, 78
5, 82268, Note_on_c, 0, 59, 0
5, 82272, Note_on_c, 0, 54, 78
5, 82364, Note_on_c, 0, 54, 0
5, 82368, Note_on_c, 0, 47, 78
5, 82460, Note_on_c, 0, 47, 0
5, 82464, Note_on_c, 0, 59, 78
5, 82556, Note_on_c, 0, 59, 0
5, 82560, Note_on_c, 0, 62, 78
5, 82652, Note_on_c, 0, 62, 0
5, 82656, Note_on_c, 0, 66, 78
5, 82748, Note_on_c, 0, 66, 0
5, 82752, Note_on_c, 0, 62, 78
5, 82844, Note_on_c, 0, 62, 0
5, 82848, Note_on_c, 0, 59, 78
5, 82940, Note_on_c, 0, 59, 0
5, 82944, Note_on_c, 0, 49, 78
5, 82944, Note_on_c, 0, 37, 78
5, 83036, Note_on_c, 0, 37, 0
5, 83036, Note_on_c, 0, 49, 0
5, 83040, Note_on_c, 0, 56, 78
5, 83132, Note_on_c, 0, 56, 0
5, 83136, Note_on_c, 0, 59, 78
5, 83228, Note_on_c, 0, 59, 0
5, 83232, Note_on_c, 0, 61, 78
5, 83324, Note_on_c, 0, 61, 0
5, 83328, Note_on_c, 0, 59, 78
5, 83420, Note_on_c, 0, 59, 0
5, 83424, Note_on_c, 0, 56, 78
5, 83516, Note_on_c, 0, 56, 0
5, 83520, Note_on_c, 0, 54, 78
5, 83520, Note_on_c, 0, 42, 78
5, 83612, Note_on_c, 0, 42, 0
5, 83612, Note_on_c, 0, 54, 0
5, 83616, Note_on_c, 0, 57, 78
5, 83708, Note_on_c, 0, 57, 0
5, 83712, Note_on_c, 0, 68, 78
5, 83804, Note_on_c, 0, 68, 0
5, 83808, Note_on_c, 0, 57, 78
5, 83900, Note_on_c, 0, 57, 0
5, 83904, Note_on_c, 0, 66, 78
5, 83996, Note_on_c, 0, 66, 0
5, 84000, Note_on_c, 0, 57, 78
5, 84092, Note_on_c, 0, 57, 0
5, 84096, Note_on_c, 0, 48, 78
5, 84188, Note_on_c, 0, 48, 0
5, 84192, Note_on_c, 0, 54, 78
5, 84284, Note_on_c, 0, 54, 0
5, 84288, Note_on_c, 0, 56, 78
5, 84380, Note_on_c, 0, 56, 0
5, 84384, Note_on_c, 0, 63, 78
5, 84476, Note_on_c, 0, 63, 0
5, 84480, Note_on_c, 0, 56, 78
5, 84572, Note_on_c, 0, 56, 0
5, 84576, Note_on_c, 0, 54, 78
5, 84668, Note_on_c, 0, 54, 0
5, 84672, Note_on_c, 0, 47, 78
5, 84764, Note_on_c, 0, 47, 0
5, 84768, Note_on_c, 0, 56, 78
5, 84860, Note_on_c, 0, 56, 0
5, 84864, Note_on_c, 0, 59, 78
5, 84956, Note_on_c, 0, 59, 0
5, 84960, Note_on_c, 0, 62, 78
5, 85052, Note_on_c, 0, 62, 0
5, 85056, Note_on_c, 0, 59, 78
5, 85148, Note_on_c, 0, 59, 0
5, 85152, Note_on_c, 0, 56, 78
5, 85244, Note_on_c, 0, 56, 0
5, 85248, Note_on_c, 0, 46, 78
5, 85340, Note_on_c, 0, 46, 0
5, 85344, Note_on_c, 0, 52, 78
5, 85436, Note_on_c, 0, 52, 0
5, 85440, Note_on_c, 0, 54, 78
5, 85532, Note_on_c, 0, 54, 0
5, 85536, Note_on_c, 0, 61, 78
5, 85628, Note_on_c, 0, 61, 0
5, 85632, Note_on_c, 0, 54, 78
5, 85724, Note_on_c, 0, 54, 0
5, 85728, Note_on_c, 0, 52, 78
5, 85820, Note_on_c, 0, 52, 0
5, 85824, Note_on_c, 0, 47, 78
5, 85916, Note_on_c, 0, 47, 0
5, 85920, Note_on_c, 0, 50, 78
5, 86012, Note_on_c, 0, 50, 0
5, 86016, Note_on_c, 0, 59, 78
5, 86016, Note_on_c, 0, 55, 78
5, 86108, Note_on_c, 0, 59, 0
5, 86112, Note_on_c, 0, 62, 78
5, 86204, Note_on_c, 0, 62, 0
5, 86204, Note_on_c, 0, 55, 0
5, 86208, Note_on_c, 0, 57, 78
5, 86208, Note_on_c, 0, 54, 78
5, 86300, Note_on_c, 0, 57, 0
5, 86304, Note_on_c, 0, 62, 78
5, 86396, Note_on_c, 0, 62, 0
5, 86396, Note_on_c, 0, 54, 0
5, 86400, Note_on_c, 0, 56, 78
5, 86400, Note_on_c, 0, 52, 78
5, 86492, Note_on_c, 0, 52, 0
5, 86496, Note_on_c, 0, 61, 78
5, 86588, Note_on_c, 0, 61, 0
5, 86592, Note_on_c, 0, 49, 78
5, 86684, Note_on_c, 0, 49, 0
5, 86688, Note_on_c, 0, 61, 78
5, 86780, Note_on_c, 0, 61, 0
5, 86780, Note_on_c, 0, 56, 0
5, 86784, Note_on_c, 0, 54, 78
5, 86784, Note_on_c, 0, 57, 78
5, 86876, Note_on_c, 0, 54, 0
5, 86880, Note_on_c, 0, 61, 78
5, 86972, Note_on_c, 0, 61, 0
5, 86972, Note_on_c, 0, 57, 0
5, 86976, Note_on_c, 0, 50, 78
5, 86976, Note_on_c, 0, 54, 78
5, 87068, Note_on_c, 0, 50, 0
5, 87072, Note_on_c, 0, 59, 78
5, 87164, Note_on_c, 0, 59, 0
5, 87164, Note_on_c, 0, 54, 0
5, 87168, Note_on_c, 0, 47, 78
5, 87168, Note_on_c, 0, 56, 78
5, 87260, Note_on_c, 0, 47, 0
5, 87264, Note_on_c, 0, 62, 78
5, 87356, Note_on_c, 0, 62, 0
5, 87356, Note_on_c, 0, 56, 0
5, 87360, Note_on_c, 0, 49, 78
5, 87360, Note_on_c, 0, 52, 78
5, 87452, Note_on_c, 0, 49, 0
5, 87456, Note_on_c, 0, 59, 78
5, 87548, Note_on_c, 0, 59, 0
5, 87548, Note_on_c, 0, 52, 0
5, 87552, Note_on_c, 0, 57, 78
5, 87552, Note_on_c, 0, 54, 78
5, 87552, Note_on_c, 0, 61, 78
5, 87932, Note_on_c, 0, 54, 0
5, 87932, Note_on_c, 0, 57, 0
5, 88128, Note_on_c, 0, 54, 78
5, 88316, Note_on_c, 0, 54, 0
5, 88700, Note_on_c, 0, 61, 0
5, 88704, Note_on_c, 0, 54, 63
5, 88892, Note_on_c, 0, 54, 0
5, 89280, Note_on_c, 0, 56, 72
5, 89468, Note_on_c, 0, 56, 0
5, 89856, Note_on_c, 0, 57, 78
5, 90044, Note_on_c, 0, 57, 0
5, 90432, Note_on_c, 0, 45, 78
5, 90620, Note_on_c, 0, 45, 0
5, 91008, Note_on_c, 0, 54, 78
5, 91008, Note_on_c, 0, 47, 78
5, 91196, Note_on_c, 0, 47, 0
5, 91580, Note_on_c, 0, 54, 0
5, 91584, Note_on_c, 0, 59, 78
5, 91584, Note_on_c, 0, 47, 78
5, 91772, Note_on_c, 0, 47, 0
5, 92156, Note_on_c, 0, 59, 0
5, 92160, Note_on_c, 0, 37, 78
5, 92160, Note_on_c, 0, 49, 78
5, 92732, Note_on_c, 0, 49, 0
5, 92732, Note_on_c, 0, 37, 0
5, 92736, Note_on_c, 0, 49, 78
5, 92736, Note_on_c, 0, 37, 78
5, 92828, Note_on_c, 0, 37, 0
5, 92828, Note_on_c, 0, 49, 0
5, 92832, Note_on_c, 0, 49, 78
5, 92924, Note_on_c, 0, 49, 0
5, 92928, Note_on_c, 0, 53, 78
5, 93020, Note_on_c, 0, 53, 0
5, 93024, Note_on_c, 0, 56, 78
5, 93116, Note_on_c, 0, 56, 0
5, 93120, Note_on_c, 0, 61, 78
5, 93212, Note_on_c, 0, 61, 0
5, 93216, Note_on_c, 0, 49, 78
5, 93308, Note_on_c, 0, 49, 0
5, 93312, Note_on_c, 0, 49, 78
5, 93884, Note_on_c, 0, 49, 0
5, 93984, Note_on_c, 0, 49, 78
5, 94076, Note_on_c, 0, 49, 0
5, 94080, Note_on_c, 0, 53, 78
5, 94172, Note_on_c, 0, 53, 0
5, 94176, Note_on_c, 0, 56, 78
5, 94268, Note_on_c, 0, 56, 0
5, 94272, Note_on_c, 0, 61, 78
5, 94364, Note_on_c, 0, 61, 0
5, 94368, Note_on_c, 0, 49, 78
5, 94460, Note_on_c, 0, 49, 0
5, 94464, Note_on_c, 0, 49, 78
5, 95036, Note_on_c, 0, 49, 0
5, 95136, Note_on_c, 0, 49, 78
5, 95228, Note_on_c, 0, 49, 0
5, 95232, Note_on_c, 0, 54, 78
5, 95324, Note_on_c, 0, 54, 0
5, 95328, Note_on_c, 0, 57, 78
5, 95420, Note_on_c, 0, 57, 0
5, 95424, Note_on_c, 0, 61, 78
5, 95516, Note_on_c, 0, 61, 0
5, 95520, Note_on_c, 0, 49, 78
5, 95612, Note_on_c, 0, 49, 0
5, 95616, Note_on_c, 0, 49, 78
5, 96188, Note_on_c, 0, 49, 0
5, 96288, Note_on_c, 0, 49, 78
5, 96380, Note_on_c, 0, 49, 0
5, 96384, Note_on_c, 0, 53, 78
5, 96476, Note_on_c, 0, 53, 0
5, 96480, Note_on_c, 0, 56, 78
5, 96572, Note_on_c, 0, 56, 0
5, 96576, Note_on_c, 0, 61, 78
5, 96668, Note_on_c, 0, 61, 0
5, 96672, Note_on_c, 0, 49, 78
5, 96764, Note_on_c, 0, 49, 0
5, 96768, Note_on_c, 0, 54, 78
5, 96956, Note_on_c, 0, 54, 0
5, 96960, Note_on_c, 0, 57, 78
5, 97148, Note_on_c, 0, 57, 0
5, 97152, Note_on_c, 0, 61, 78
5, 97340, Note_on_c, 0, 61, 0
5, 97344, Note_on_c, 0, 57, 78
5, 97532, Note_on_c, 0, 57, 0
5, 97536, Note_on_c, 0, 54, 78
5, 97724, Note_on_c, 0, 54, 0
5, 97728, Note_on_c, 0, 49, 78
5, 97916, Note_on_c, 0, 49, 0
5, 97920, Note_on_c, 0, 50, 78
5, 98108, Note_on_c, 0, 50, 0
5, 98112, Note_on_c, 0, 54, 78
5, 98300, Note_on_c, 0, 54, 0
5, 98304, Note_on_c, 0, 57, 78
5, 98492, Note_on_c, 0, 57, 0
5, 98496, Note_on_c, 0, 54, 78
5, 98684, Note_on_c, 0, 54, 0
5, 98688, Note_on_c, 0, 50, 78
5, 98876, Note_on_c, 0, 50, 0
5, 98880, Note_on_c, 0, 45, 78
5, 99068, Note_on_c, 0, 45, 0
5, 99072, Note_on_c, 0, 47, 78
5, 99260, Note_on_c, 0, 47, 0
5, 99264, Note_on_c, 0, 50, 78
5, 99452, Note_on_c, 0, 50, 0
5, 99456, Note_on_c, 0, 49, 78
5, 99644, Note_on_c, 0, 49, 0
5, 99648, Note_on_c, 0, 47, 78
5, 99836, Note_on_c, 0, 47, 0
5, 99840, Note_on_c, 0, 45, 78
5, 100028, Note_on_c, 0, 45, 0
5, 100032, Note_on_c, 0, 44, 78
5, 100220, Note_on_c, 0, 44, 0
5, 100224, Note_on_c, 0, 49, 78
5, 100412, Note_on_c, 0, 49, 0
5, 100416, Note_on_c, 0, 54, 78
5, 100604, Note_on_c, 0, 54, 0
5, 100608, Note_on_c, 0, 57, 78
5, 100796, Note_on_c, 0, 57, 0
5, 100800, Note_on_c, 0, 49, 78
5, 100988, Note_on_c, 0, 49, 0
5, 100992, Note_on_c, 0, 53, 78
5, 101180, Note_on_c, 0, 53, 0
5, 101184, Note_on_c, 0, 56, 78
5, 101372, Note_on_c, 0, 56, 0
5, 101376, Note_on_c, 0, 42, 63
5, 101468, Note_on_c, 0, 42, 0
5, 101472, Note_on_c, 0, 54, 63
5, 101564, Note_on_c, 0, 54, 0
5, 101568, Note_on_c, 0, 45, 63
5, 101660, Note_on_c, 0, 45, 0
5, 101664, Note_on_c, 0, 57, 63
5, 101756, Note_on_c, 0, 57, 0
5, 101760, Note_on_c, 0, 49, 63
5, 101852, Note_on_c, 0, 49, 0
5, 101856, Note_on_c, 0, 61, 63
5, 101948, Note_on_c, 0, 61, 0
5, 101952, Note_on_c, 0, 45, 72
5, 102044, Note_on_c, 0, 45, 0
5, 102048, Note_on_c, 0, 57, 72
5, 102140, Note_on_c, 0, 57, 0
5, 102144, Note_on_c, 0, 42, 72
5, 102236, Note_on_c, 0, 42, 0
5, 102240, Note_on_c, 0, 54, 72
5, 102332, Note_on_c, 0, 54, 0
5, 102336, Note_on_c, 0, 37, 72
5, 102428, Note_on_c, 0, 37, 0
5, 102432, Note_on_c, 0, 49, 72
5, 102524, Note_on_c, 0, 49, 0
5, 102528, Note_on_c, 0, 38, 78
5, 102620, Note_on_c, 0, 38, 0
5, 102624, Note_on_c, 0, 50, 78
5, 102716, Note_on_c, 0, 50, 0
5, 102720, Note_on_c, 0, 42, 78
5, 102812, Note_on_c, 0, 42, 0
5, 102816, Note_on_c, 0, 54, 78
5, 102908, Note_on_c, 0, 54, 0
5, 102912, Note_on_c, 0, 45, 78
5, 103004, Note_on_c, 0, 45, 0
5, 103008, Note_on_c, 0, 57, 78
5, 103100, Note_on_c, 0, 57, 0
5, 103104, Note_on_c, 0, 42, 78
5, 103196, Note_on_c, 0, 42, 0
5, 103200, Note_on_c, 0, 54, 78
5, 103292, Note_on_c, 0, 54, 0
5, 103296, Note_on_c, 0, 38, 78
5, 103388, Note_on_c, 0, 38, 0
5, 103392, Note_on_c, 0, 50, 78
5, 103484, Note_on_c, 0, 50, 0
5, 103488, Note_on_c, 0, 33, 78
5, 103580, Note_on_c, 0, 33, 0
5, 103584, Note_on_c, 0, 45, 78
5, 103676, Note_on_c, 0, 45, 0
5, 103680, Note_on_c, 0, 35, 78
5, 103772, Note_on_c, 0, 35, 0
5, 103776, Note_on_c, 0, 47, 78
5, 103868, Note_on_c, 0, 47, 0
5, 103872, Note_on_c, 0, 38, 78
5, 103964, Note_on_c, 0, 38, 0
5, 103968, Note_on_c, 0, 50, 78
5, 104060, Note_on_c, 0, 50, 0
5, 104064, Note_on_c, 0, 43, 78
5, 104156, Note_on_c, 0, 43, 0
5, 104160, Note_on_c, 0, 55, 78
5, 104252, Note_on_c, 0, 55, 0
5, 104256, Note_on_c, 0, 47, 78
5, 104348, Note_on_c, 0, 47, 0
5, 104352, Note_on_c, 0, 59, 78
5, 104444, Note_on_c, 0, 59, 0
5, 104448, Note_on_c, 0, 43, 78
5, 104540, Note_on_c, 0, 43, 0
5, 104544, Note_on_c, 0, 55, 78
5, 104636, Note_on_c, 0, 55, 0
5, 104640, Note_on_c, 0, 35, 78
5, 104732, Note_on_c, 0, 35, 0
5, 104736, Note_on_c, 0, 47, 78
5, 104828, Note_on_c, 0, 47, 0
5, 104832, Note_on_c, 0, 37, 78
5, 104924, Note_on_c, 0, 37, 0
5, 104928, Note_on_c, 0, 49, 78
5, 105020, Note_on_c, 0, 49, 0
5, 105024, Note_on_c, 0, 42, 78
5, 105116, Note_on_c, 0, 42, 0
5, 105120, Note_on_c, 0, 54, 78
5, 105212, Note_on_c, 0, 54, 0
5, 105216, Note_on_c, 0, 45, 78
5, 105308, Note_on_c, 0, 45, 0
5, 105312, Note_on_c, 0, 57, 78
5, 105404, Note_on_c, 0, 57, 0
5, 105408, Note_on_c, 0, 37, 78
5, 105500, Note_on_c, 0, 37, 0
5, 105504, Note_on_c, 0, 49, 78
5, 105596, Note_on_c, 0, 49, 0
5, 105600, Note_on_c, 0, 41, 78
5, 105692, Note_on_c, 0, 41, 0
5, 105696, Note_on_c, 0, 53, 78
5, 105788, Note_on_c, 0, 53, 0
5, 105792, Note_on_c, 0, 44, 78
5, 105884, Note_on_c, 0, 44, 0
5, 105888, Note_on_c, 0, 56, 78
5, 105980, Note_on_c, 0, 56, 0
5, 105984, Note_on_c, 0, 54, 78
5, 106076, Note_on_c, 0, 54, 0
5, 106080, Note_on_c, 0, 57, 78
5, 106172, Note_on_c, 0, 57, 0
5, 106176, Note_on_c, 0, 61, 78
5, 106268, Note_on_c, 0, 61, 0
5, 106272, Note_on_c, 0, 66, 78
5, 106364, Note_on_c, 0, 66, 0
5, 106368, Note_on_c, 0, 61, 78
5, 106460, Note_on_c, 0, 61, 0
5, 106464, Note_on_c, 0, 57, 78
5, 106556, Note_on_c, 0, 57, 0
5, 106560, Note_on_c, 0, 45, 78
5, 106656, Note_on_c, 0, 49, 78
5, 106748, Note_on_c, 0, 49, 0
5, 106752, Note_on_c, 0, 54, 78
5, 106844, Note_on_c, 0, 54, 0
5, 106848, Note_on_c, 0, 57, 78
5, 106940, Note_on_c, 0, 57, 0
5, 106944, Note_on_c, 0, 54, 78
5, 107036, Note_on_c, 0, 54, 0
5, 107040, Note_on_c, 0, 49, 78
5, 107132, Note_on_c, 0, 49, 0
5, 107132, Note_on_c, 0, 45, 0
5, 107136, Note_on_c, 0, 47, 78
5, 107232, Note_on_c, 0, 54, 78
5, 107324, Note_on_c, 0, 54, 0
5, 107328, Note_on_c, 0, 56, 78
5, 107420, Note_on_c, 0, 56, 0
5, 107424, Note_on_c, 0, 62, 78
5, 107516, Note_on_c, 0, 62, 0
5, 107520, Note_on_c, 0, 56, 78
5, 107612, Note_on_c, 0, 56, 0
5, 107616, Note_on_c, 0, 54, 78
5, 107708, Note_on_c, 0, 54, 0
5, 107708, Note_on_c, 0, 47, 0
5, 107712, Note_on_c, 0, 49, 78
5, 107808, Note_on_c, 0, 53, 78
5, 107900, Note_on_c, 0, 53, 0
5, 107904, Note_on_c, 0, 56, 78
5, 107996, Note_on_c, 0, 56, 0
5, 108000, Note_on_c, 0, 61, 78
5, 108092, Note_on_c, 0, 61, 0
5, 108096, Note_on_c, 0, 56, 78
5, 108188, Note_on_c, 0, 56, 0
5, 108192, Note_on_c, 0, 53, 78
5, 108284, Note_on_c, 0, 53, 0
5, 108284, Note_on_c, 0, 49, 0
5, 108288, Note_on_c, 0, 45, 78
5, 108384, Note_on_c, 0, 49, 78
5, 108476, Note_on_c, 0, 49, 0
5, 108480, Note_on_c, 0, 54, 78
5, 108572, Note_on_c, 0, 54, 0
5, 108576, Note_on_c, 0, 57, 78
5, 108668, Note_on_c, 0, 57, 0
5, 108672, Note_on_c, 0, 54, 78
5, 108764, Note_on_c, 0, 54, 0
5, 108768, Note_on_c, 0, 49, 78
5, 108860, Note_on_c, 0, 49, 0
5, 108860, Note_on_c, 0, 45, 0
5, 108864, Note_on_c, 0, 50, 78
5, 108960, Note_on_c, 0, 54, 78
5, 109052, Note_on_c, 0, 54, 0
5, 109056, Note_on_c, 0, 57, 78
5, 109148, Note_on_c, 0, 57, 0
5, 109152, Note_on_c, 0, 62, 78
5, 109244, Note_on_c, 0, 62, 0
5, 109248, Note_on_c, 0, 57, 78
5, 109340, Note_on_c, 0, 57, 0
5, 109344, Note_on_c, 0, 54, 78
5, 109436, Note_on_c, 0, 54, 0
5, 109436, Note_on_c, 0, 50, 0
5, 109440, Note_on_c, 0, 47, 78
5, 109536, Note_on_c, 0, 54, 78
5, 109628, Note_on_c, 0, 54, 0
5, 109632, Note_on_c, 0, 56, 78
5, 109724, Note_on_c, 0, 56, 0
5, 109728, Note_on_c, 0, 62, 78
5, 109820, Note_on_c, 0, 62, 0
5, 109824, Note_on_c, 0, 56, 78
5, 109916, Note_on_c, 0, 56, 0
5, 109920, Note_on_c, 0, 54, 78
5, 110012, Note_on_c, 0, 54, 0
5, 110012, Note_on_c, 0, 47, 0
5, 110016, Note_on_c, 0, 49, 78
5, 110112, Note_on_c, 0, 53, 78
5, 110204, Note_on_c, 0, 53, 0
5, 110208, Note_on_c, 0, 56, 78
5, 110300, Note_on_c, 0, 56, 0
5, 110304, Note_on_c, 0, 61, 78
5, 110396, Note_on_c, 0, 61, 0
5, 110400, Note_on_c, 0, 56, 78
5, 110492, Note_on_c, 0, 56, 0
5, 110496, Note_on_c, 0, 53, 78
5, 110588, Note_on_c, 0, 53, 0
5, 110588, Note_on_c, 0, 49, 0
5, 110592, Note_on_c, 0, 45, 72
5, 110688, Note_on_c, 0, 54, 72
5, 110780, Note_on_c, 0, 54, 0
5, 110784, Note_on_c, 0, 57, 72
5, 110876, Note_on_c, 0, 57, 0
5, 110880, Note_on_c, 0, 61, 72
5, 110972, Note_on_c, 0, 61, 0
5, 110976, Note_on_c, 0, 57, 72
5, 111068, Note_on_c, 0, 57, 0
5, 111072, Note_on_c, 0, 54, 72
5, 111164, Note_on_c, 0, 54, 0
5, 111164, Note_on_c, 0, 45, 0
5, 111168, Note_on_c, 0, 48, 63
5, 111264, Note_on_c, 0, 54, 63
5, 111356, Note_on_c, 0, 54, 0
5, 111360, Note_on_c, 0, 57, 63
5, 111452, Note_on_c, 0, 57, 0
5, 111456, Note_on_c, 0, 63, 63
5, 111548, Note_on_c, 0, 63, 0
5, 111552, Note_on_c, 0, 57, 63
5, 111644, Note_on_c, 0, 57, 0
5, 111648, Note_on_c, 0, 54, 63
5, 111740, Note_on_c, 0, 54, 0
5, 111740, Note_on_c, 0, 48, 0
5, 111744, Note_on_c, 0, 49, 63
5, 111840, Note_on_c, 0, 54, 63
5, 111932, Note_on_c, 0, 54, 0
5, 111936, Note_on_c, 0, 57, 63
5, 112028, Note_on_c, 0, 57, 0
5, 112028, Note_on_c, 0, 49, 0
5, 112032, Note_on_c, 0, 61, 63
5, 112124, Note_on_c, 0, 61, 0
5, 112128, Note_on_c, 0, 57, 63
5, 112220, Note_on_c, 0, 57, 0
5, 112224, Note_on_c, 0, 54, 63
5, 112316, Note_on_c, 0, 54, 0
5, 112320, Note_on_c, 0, 49, 63
5, 112416, Note_on_c, 0, 53, 63
5, 112508, Note_on_c, 0, 53, 0
5, 112512, Note_on_c, 0, 56, 63
5, 112604, Note_on_c, 0, 56, 0
5, 112604, Note_on_c, 0, 49, 0
5, 112608, Note_on_c, 0, 61, 63
5, 112700, Note_on_c, 0, 61, 0
5, 112704, Note_on_c, 0, 56, 63
5, 112796, Note_on_c, 0, 56, 0
5, 112800, Note_on_c, 0, 53, 63
5, 112892, Note_on_c, 0, 53, 0
5, 112896, Note_on_c, 0, 61, 53
5, 112896, Note_on_c, 0, 54, 53
5, 113084, Note_on_c, 0, 54, 0
5, 113084, Note_on_c, 0, 61, 0
5, 113088, Note_on_c, 0, 54, 53
5, 113088, Note_on_c, 0, 61, 53
5, 113276, Note_on_c, 0, 61, 0
5, 113276, Note_on_c, 0, 54, 0
5, 113472, Note_on_c, 0, 66, 53
5, 113472, Note_on_c, 0, 57, 53
5, 113472, Note_on_c, 0, 54, 53
5, 113660, Note_on_c, 0, 54, 0
5, 113660, Note_on_c, 0, 57, 0
5, 113660, Note_on_c, 0, 66, 0
5, 113664, Note_on_c, 0, 66, 53
5, 113664, Note_on_c, 0, 57, 53
5, 113664, Note_on_c, 0, 54, 53
5, 113852, Note_on_c, 0, 54, 0
5, 113852, Note_on_c, 0, 57, 0
5, 113852, Note_on_c, 0, 66, 0
5, 114048, Note_on_c, 0, 54, 53
5, 114048, Note_on_c, 0, 49, 53
5, 114048, Note_on_c, 0, 42, 53
5, 114236, Note_on_c, 0, 42, 0
5, 114236, Note_on_c, 0, 49, 0
5, 114236, Note_on_c, 0, 54, 0
5, 114240, Note_on_c, 0, 54, 53
5, 114240, Note_on_c, 0, 49, 53
5, 114240, Note_on_c, 0, 42, 53
5, 114428, Note_on_c, 0, 42, 0
5, 114428, Note_on_c, 0, 49, 0
5, 114428, Note_on_c, 0, 54, 0
5, 114428, End_track
0, 0, End_of_file
