0, 0, Header, 0, 1, 384
1, 0, Start_track
1, 0, Tempo, 512820
1, 0, Title_t, ""
1, 0, Note_on_c, 0, 72, 39
1, 21, Note_on_c, 0, 60, 16
1, 53, Control_c, 0, 64, 127
1, 180, Note_on_c, 0, 67, 18
1, 319, Note_off_c, 0, 67, 64
1, 343, Note_off_c, 0, 60, 64
1, 365, Note_on_c, 0, 64, 19
1, 459, Note_off_c, 0, 64, 64
1, 529, Note_on_c, 0, 67, 36
1, 638, Note_off_c, 0, 67, 64
1, 684, Note_on_c, 0, 76, 51
1, 718, Note_on_c, 0, 60, 19
1, 724, Control_c, 0, 64, 0
1, 738, Note_off_c, 0, 72, 64
1, 865, Note_on_c, 0, 67, 32
1, 997, Note_off_c, 0, 67, 64
1, 1008, Note_on_c, 0, 79, 74
1, 1045, Note_on_c, 0, 64, 29
1, 1055, Note_off_c, 0, 76, 64
1, 1184, Note_off_c, 0, 64, 64
1, 1198, Note_on_c, 0, 67, 39
1, 1334, Note_off_c, 0, 67, 64
1, 1354, Note_on_c, 0, 71, 58
1, 1370, Note_off_c, 0, 60, 64
1, 1370, Note_on_c, 0, 62, 27
1, 1381, Note_off_c, 0, 79, 64
1, 1548, Note_on_c, 0, 67, 31
1, 1682, Note_off_c, 0, 67, 64
1, 1712, Note_on_c, 0, 65, 31
1, 1788, Note_off_c, 0, 65, 64
1, 1888, Note_on_c, 0, 72, 26
1, 1888, Note_off_c, 0, 71, 64
1, 1891, Note_on_c, 0, 67, 29
1, 1939, Note_off_c, 0, 72, 64
1, 1950, Note_on_c, 0, 74, 44
1, 1997, Note_off_c, 0, 67, 64
1, 2020, Note_off_c, 0, 74, 64
1, 2030, Note_off_c, 0, 62, 64
1, 2044, Note_on_c, 0, 72, 31
1, 2064, Note_on_c, 0, 60, 18
1, 2217, Note_on_c, 0, 67, 32
1, 2323, Note_off_c, 0, 72, 64
1, 2342, Control_c, 0, 64, 127
1, 2350, Note_off_c, 0, 60, 64
1, 2390, Note_off_c, 0, 67, 64
1, 2395, Note_on_c, 0, 64, 33
1, 2462, Control_c, 0, 64, 0
1, 2562, Note_on_c, 0, 67, 38
1, 2565, Note_off_c, 0, 64, 64
1, 2727, Note_on_c, 0, 81, 63
1, 2727, Note_off_c, 0, 67, 64
1, 2762, Note_on_c, 0, 60, 18
1, 2897, Note_on_c, 0, 69, 23
1, 3059, Note_off_c, 0, 69, 64
1, 3069, Note_on_c, 0, 65, 31
1, 3223, Note_off_c, 0, 60, 64
1, 3244, Note_on_c, 0, 69, 31
1, 3275, Note_off_c, 0, 65, 64
1, 3426, Note_on_c, 0, 79, 68
1, 3446, Note_off_c, 0, 69, 64
1, 3465, Note_on_c, 0, 60, 22
1, 3512, Note_off_c, 0, 81, 64
1, 3607, Note_on_c, 0, 67, 32
1, 3727, Note_off_c, 0, 67, 64
1, 3747, Note_on_c, 0, 84, 71
1, 3771, Note_on_c, 0, 64, 35
1, 3777, Note_off_c, 0, 79, 64
1, 3933, Note_off_c, 0, 60, 64
1, 3938, Note_on_c, 0, 67, 42
1, 3956, Note_off_c, 0, 64, 64
1, 4070, Note_off_c, 0, 67, 64
1, 4081, Note_on_c, 0, 79, 81
1, 4103, Note_on_c, 0, 59, 31
1, 4119, Note_off_c, 0, 84, 64
1, 4247, Note_on_c, 0, 67, 30
1, 4306, Note_off_c, 0, 79, 64
1, 4350, Note_off_c, 0, 67, 64
1, 4350, Note_on_c, 0, 77, 44
1, 4375, Note_on_c, 0, 79, 59
1, 4385, Note_off_c, 0, 77, 64
1, 4385, Note_on_c, 0, 62, 30
1, 4437, Note_off_c, 0, 59, 64
1, 4440, Note_on_c, 0, 77, 57
1, 4448, Note_off_c, 0, 79, 64
1, 4520, Note_off_c, 0, 77, 64
1, 4526, Note_on_c, 0, 76, 50
1, 4559, Note_on_c, 0, 67, 25
1, 4565, Note_off_c, 0, 62, 64
1, 4570, Note_off_c, 0, 76, 64
1, 4582, Note_on_c, 0, 77, 54
1, 4660, Note_off_c, 0, 67, 64
1, 4690, Note_off_c, 0, 77, 64
1, 4697, Note_on_c, 0, 76, 32
1, 4715, Note_on_c, 0, 60, 23
1, 4889, Note_on_c, 0, 67, 30
1, 5011, Note_off_c, 0, 67, 64
1, 5020, Note_off_c, 0, 60, 64
1, 5055, Note_on_c, 0, 64, 34
1, 5095, Note_off_c, 0, 76, 64
1, 5178, Note_off_c, 0, 64, 64
1, 5215, Note_on_c, 0, 67, 30
1, 5395, Note_on_c, 0, 69, 37
1, 5404, Note_off_c, 0, 67, 64
1, 5420, Note_on_c, 0, 65, 20
1, 5577, Note_off_c, 0, 69, 64
1, 5594, Note_on_c, 0, 71, 50
1, 5640, Note_off_c, 0, 71, 64
1, 5665, Note_on_c, 0, 72, 47
1, 5704, Note_off_c, 0, 72, 64
1, 5704, Note_off_c, 0, 65, 64
1, 5736, Note_on_c, 0, 74, 58
1, 5775, Note_off_c, 0, 74, 64
1, 5813, Note_on_c, 0, 76, 51
1, 5861, Note_off_c, 0, 76, 64
1, 5877, Note_on_c, 0, 77, 53
1, 5950, Note_off_c, 0, 77, 64
1, 5956, Note_on_c, 0, 79, 66
1, 6022, Note_off_c, 0, 79, 64
1, 6028, Note_on_c, 0, 81, 64
1, 6105, Note_on_c, 0, 79, 65
1, 6120, Note_off_c, 0, 81, 64
1, 6179, Note_off_c, 0, 79, 64
1, 6189, Note_on_c, 0, 77, 51
1, 6243, Note_off_c, 0, 77, 64
1, 6268, Note_on_c, 0, 76, 48
1, 6314, Note_off_c, 0, 76, 64
1, 6343, Note_on_c, 0, 74, 53
1, 6349, Note_on_c, 0, 53, 49
1, 6359, Note_on_c, 0, 60, 31
1, 6387, Note_off_c, 0, 74, 64
1, 6412, Note_off_c, 0, 53, 64
1, 6423, Note_on_c, 0, 72, 42
1, 6434, Note_off_c, 0, 60, 64
1, 6493, Note_off_c, 0, 72, 64
1, 6498, Note_on_c, 0, 71, 52
1, 6552, Note_off_c, 0, 71, 64
1, 6588, Note_on_c, 0, 69, 34
1, 6649, Note_off_c, 0, 69, 64
1, 6682, Note_on_c, 0, 67, 48
1, 6690, Note_on_c, 0, 60, 32
1, 6697, Note_on_c, 0, 52, 32
1, 6836, Control_c, 0, 64, 127
1, 6850, Note_off_c, 0, 67, 64
1, 6855, Note_on_c, 0, 69, 43
1, 6867, Note_off_c, 0, 60, 64
1, 6872, Note_off_c, 0, 52, 64
1, 6908, Note_off_c, 0, 69, 64
1, 6928, Note_on_c, 0, 71, 59
1, 6933, Control_c, 0, 64, 0
1, 6969, Note_off_c, 0, 71, 64
1, 7002, Note_on_c, 0, 72, 60
1, 7048, Note_off_c, 0, 72, 64
1, 7081, Note_on_c, 0, 74, 65
1, 7133, Note_off_c, 0, 74, 64
1, 7154, Note_on_c, 0, 76, 48
1, 7228, Note_off_c, 0, 76, 64
1, 7237, Note_on_c, 0, 77, 60
1, 7314, Note_on_c, 0, 79, 78
1, 7329, Note_off_c, 0, 77, 64
1, 7390, Note_on_c, 0, 77, 59
1, 7427, Note_off_c, 0, 79, 64
1, 7476, Note_on_c, 0, 76, 50
1, 7482, Note_off_c, 0, 77, 64
1, 7535, Note_off_c, 0, 76, 64
1, 7557, Note_on_c, 0, 74, 58
1, 7596, Note_off_c, 0, 74, 64
1, 7621, Note_on_c, 0, 60, 42
1, 7626, Note_on_c, 0, 72, 51
1, 7630, Note_on_c, 0, 52, 54
1, 7666, Note_off_c, 0, 52, 64
1, 7669, Note_off_c, 0, 60, 64
1, 7688, Note_off_c, 0, 72, 64
1, 7699, Note_on_c, 0, 71, 59
1, 7760, Note_off_c, 0, 71, 64
1, 7772, Note_on_c, 0, 69, 45
1, 7841, Note_off_c, 0, 69, 64
1, 7858, Note_on_c, 0, 67, 53
1, 7913, Note_off_c, 0, 67, 64
1, 7959, Note_on_c, 0, 65, 47
1, 7962, Note_on_c, 0, 60, 36
1, 7962, Note_on_c, 0, 50, 26
1, 8142, Note_off_c, 0, 65, 64
1, 8142, Control_c, 0, 64, 127
1, 8153, Note_off_c, 0, 60, 64
1, 8153, Note_on_c, 0, 67, 46
1, 8158, Note_off_c, 0, 50, 64
1, 8204, Note_off_c, 0, 67, 64
1, 8225, Note_on_c, 0, 69, 46
1, 8262, Control_c, 0, 64, 0
1, 8270, Note_off_c, 0, 69, 64
1, 8304, Note_on_c, 0, 71, 63
1, 8345, Note_off_c, 0, 71, 64
1, 8385, Note_on_c, 0, 72, 46
1, 8432, Note_off_c, 0, 72, 64
1, 8446, Note_on_c, 0, 74, 57
1, 8504, Note_off_c, 0, 74, 64
1, 8537, Note_on_c, 0, 76, 53
1, 8596, Note_on_c, 0, 77, 74
1, 8605, Note_off_c, 0, 76, 64
1, 8683, Note_on_c, 0, 76, 54
1, 8697, Note_off_c, 0, 77, 64
1, 8771, Note_on_c, 0, 74, 63
1, 8780, Note_off_c, 0, 76, 64
1, 8831, Note_off_c, 0, 74, 64
1, 8847, Note_on_c, 0, 72, 55
1, 8899, Note_off_c, 0, 72, 64
1, 8925, Note_on_c, 0, 71, 61
1, 8925, Note_on_c, 0, 59, 31
1, 8925, Note_on_c, 0, 50, 34
1, 8977, Note_off_c, 0, 71, 64
1, 8981, Note_off_c, 0, 50, 64
1, 9006, Note_on_c, 0, 69, 40
1, 9023, Note_off_c, 0, 59, 64
1, 9073, Note_off_c, 0, 69, 64
1, 9086, Note_on_c, 0, 67, 40
1, 9143, Note_off_c, 0, 67, 64
1, 9157, Note_on_c, 0, 65, 50
1, 9201, Note_off_c, 0, 65, 64
1, 9259, Note_on_c, 0, 64, 61
1, 9265, Note_on_c, 0, 60, 34
1, 9281, Note_on_c, 0, 48, 18
1, 9413, Control_c, 0, 64, 127
1, 9434, Note_off_c, 0, 64, 64
1, 9441, Note_on_c, 0, 65, 44
1, 9487, Note_off_c, 0, 60, 64
1, 9493, Note_off_c, 0, 65, 64
1, 9507, Note_on_c, 0, 67, 55
1, 9521, Note_off_c, 0, 48, 64
1, 9552, Note_off_c, 0, 67, 64
1, 9580, Note_on_c, 0, 69, 51
1, 9593, Control_c, 0, 64, 0
1, 9630, Note_off_c, 0, 69, 64
1, 9663, Note_on_c, 0, 71, 59
1, 9721, Note_off_c, 0, 71, 64
1, 9730, Note_on_c, 0, 72, 51
1, 9811, Note_off_c, 0, 72, 64
1, 9819, Note_on_c, 0, 74, 58
1, 9897, Note_on_c, 0, 76, 56
1, 9909, Note_off_c, 0, 74, 64
1, 9972, Note_on_c, 0, 74, 53
1, 9994, Note_off_c, 0, 76, 64
1, 10058, Note_on_c, 0, 72, 47
1, 10067, Note_off_c, 0, 74, 64
1, 10117, Note_off_c, 0, 72, 64
1, 10150, Note_on_c, 0, 71, 36
1, 10196, Note_off_c, 0, 71, 64
1, 10215, Note_on_c, 0, 69, 39
1, 10225, Note_on_c, 0, 48, 26
1, 10234, Note_on_c, 0, 52, 27
1, 10279, Note_off_c, 0, 69, 64
1, 10298, Note_off_c, 0, 52, 64
1, 10303, Note_off_c, 0, 48, 64
1, 10303, Note_on_c, 0, 67, 37
1, 10377, Note_off_c, 0, 67, 64
1, 10385, Note_on_c, 0, 65, 31
1, 10432, Note_off_c, 0, 65, 64
1, 10457, Note_on_c, 0, 64, 35
1, 10512, Note_off_c, 0, 64, 64
1, 10563, Note_on_c, 0, 62, 36
1, 10563, Note_on_c, 0, 53, 65
1, 10582, Note_on_c, 0, 57, 33
1, 10732, Note_off_c, 0, 62, 64
1, 10771, Note_on_c, 0, 64, 45
1, 10822, Note_off_c, 0, 64, 64
1, 10838, Note_on_c, 0, 65, 54
1, 10880, Note_off_c, 0, 65, 64
1, 10914, Note_on_c, 0, 67, 59
1, 10969, Note_off_c, 0, 67, 64
1, 10995, Note_on_c, 0, 69, 56
1, 11070, Note_on_c, 0, 71, 63
1, 11090, Note_off_c, 0, 69, 64
1, 11142, Note_off_c, 0, 71, 64
1, 11142, Note_on_c, 0, 73, 62
1, 11235, Note_on_c, 0, 74, 78
1, 11248, Note_off_c, 0, 73, 64
1, 11312, Note_on_c, 0, 69, 62
1, 11327, Note_off_c, 0, 74, 64
1, 11382, Note_on_c, 0, 71, 79
1, 11395, Note_off_c, 0, 69, 64
1, 11457, Note_on_c, 0, 73, 78
1, 11477, Note_off_c, 0, 71, 64
1, 11541, Note_off_c, 0, 73, 64
1, 11541, Note_on_c, 0, 74, 88
1, 11586, Note_off_c, 0, 74, 64
1, 11621, Note_on_c, 0, 76, 74
1, 11692, Note_on_c, 0, 77, 82
1, 11697, Note_off_c, 0, 76, 64
1, 11700, Note_off_c, 0, 53, 64
1, 11731, Note_off_c, 0, 77, 64
1, 11764, Note_on_c, 0, 79, 81
1, 11813, Note_off_c, 0, 79, 64
1, 11833, Note_off_c, 0, 57, 64
1, 11853, Note_on_c, 0, 53, 88
1, 11858, Note_on_c, 0, 81, 79
1, 11947, Note_on_c, 0, 83, 89
1, 11959, Note_off_c, 0, 81, 64
1, 12028, Note_on_c, 0, 84, 74
1, 12040, Note_off_c, 0, 83, 64
1, 12106, Note_on_c, 0, 83, 76
1, 12140, Note_off_c, 0, 84, 64
1, 12195, Note_on_c, 0, 81, 60
1, 12201, Note_off_c, 0, 83, 64
1, 12240, Note_off_c, 0, 81, 64
1, 12276, Note_on_c, 0, 79, 66
1, 12320, Note_off_c, 0, 79, 64
1, 12331, Note_off_c, 0, 53, 64
1, 12359, Note_on_c, 0, 77, 63
1, 12359, Note_on_c, 0, 55, 55
1, 12430, Note_off_c, 0, 77, 64
1, 12441, Note_on_c, 0, 76, 56
1, 12487, Note_off_c, 0, 76, 64
1, 12515, Note_off_c, 0, 55, 64
1, 12518, Note_on_c, 0, 77, 62
1, 12527, Note_on_c, 0, 57, 50
1, 12602, Note_on_c, 0, 79, 85
1, 12625, Note_off_c, 0, 77, 64
1, 12682, Note_off_c, 0, 79, 64
1, 12682, Note_on_c, 0, 81, 70
1, 12750, Note_on_c, 0, 79, 65
1, 12783, Note_off_c, 0, 81, 64
1, 12841, Note_on_c, 0, 77, 72
1, 12848, Note_off_c, 0, 79, 64
1, 12922, Note_on_c, 0, 76, 63
1, 12933, Note_off_c, 0, 77, 64
1, 12967, Note_off_c, 0, 57, 64
1, 12976, Note_off_c, 0, 76, 64
1, 12989, Note_on_c, 0, 54, 55
1, 12998, Note_on_c, 0, 74, 64
1, 13028, Note_off_c, 0, 54, 64
1, 13045, Note_off_c, 0, 74, 64
1, 13068, Control_c, 0, 64, 127
1, 13072, Note_on_c, 0, 72, 66
1, 13115, Note_off_c, 0, 72, 64
1, 13115, Control_c, 0, 64, 0
1, 13148, Note_on_c, 0, 71, 83
1, 13153, Note_on_c, 0, 43, 58
1, 13240, Note_off_c, 0, 43, 64
1, 13240, Note_on_c, 0, 47, 55
1, 13292, Note_off_c, 0, 47, 64
1, 13306, Note_on_c, 0, 50, 59
1, 13306, Note_off_c, 0, 71, 64
1, 13315, Note_on_c, 0, 79, 77
1, 13359, Note_off_c, 0, 50, 64
1, 13359, Note_off_c, 0, 79, 64
1, 13369, Note_on_c, 0, 55, 63
1, 13424, Note_off_c, 0, 55, 64
1, 13469, Note_on_c, 0, 43, 69
1, 13474, Note_on_c, 0, 76, 73
1, 13510, Note_off_c, 0, 76, 64
1, 13547, Note_on_c, 0, 48, 62
1, 13557, Note_off_c, 0, 43, 64
1, 13633, Note_on_c, 0, 72, 73
1, 13641, Note_on_c, 0, 52, 78
1, 13646, Note_off_c, 0, 48, 64
1, 13672, Note_off_c, 0, 72, 64
1, 13716, Note_off_c, 0, 52, 64
1, 13722, Note_on_c, 0, 55, 56
1, 13780, Note_off_c, 0, 55, 64
1, 13802, Note_on_c, 0, 74, 87
1, 13809, Note_on_c, 0, 43, 73
1, 13884, Note_on_c, 0, 47, 65
1, 13903, Note_off_c, 0, 43, 64
1, 13961, Note_off_c, 0, 74, 64
1, 13961, Note_on_c, 0, 50, 76
1, 13969, Note_on_c, 0, 79, 91
1, 13983, Note_off_c, 0, 47, 64
1, 14025, Note_off_c, 0, 79, 64
1, 14057, Note_on_c, 0, 55, 47
1, 14068, Note_off_c, 0, 50, 64
1, 14109, Note_off_c, 0, 55, 64
1, 14137, Note_on_c, 0, 76, 78
1, 14143, Note_on_c, 0, 43, 78
1, 14179, Note_off_c, 0, 76, 64
1, 14206, Note_on_c, 0, 48, 73
1, 14221, Note_off_c, 0, 43, 64
1, 14295, Note_on_c, 0, 52, 79
1, 14295, Note_on_c, 0, 72, 78
1, 14312, Note_off_c, 0, 48, 64
1, 14368, Note_off_c, 0, 52, 64
1, 14373, Note_off_c, 0, 72, 64
1, 14376, Note_on_c, 0, 55, 73
1, 14443, Note_off_c, 0, 55, 64
1, 14469, Note_on_c, 0, 74, 92
1, 14474, Note_on_c, 0, 43, 91
1, 14502, Note_off_c, 0, 43, 64
1, 14543, Control_c, 0, 64, 127
1, 14566, Control_c, 0, 64, 0
1, 14580, Note_off_c, 0, 74, 64
1, 14817, Note_on_c, 0, 79, 91
1, 14817, Note_on_c, 0, 71, 81
1, 14822, Note_on_c, 0, 74, 76
1, 14830, Note_on_c, 0, 55, 73
1, 14866, Note_off_c, 0, 71, 64
1, 14890, Note_off_c, 0, 55, 64
1, 14890, Control_c, 0, 64, 127
1, 14908, Note_off_c, 0, 74, 64
1, 14919, Note_off_c, 0, 79, 64
1, 14973, Control_c, 0, 64, 0
1, 15198, Note_on_c, 0, 67, 80
1, 15202, Note_on_c, 0, 43, 55
1, 15240, Note_off_c, 0, 43, 64
1, 15249, Control_c, 0, 64, 127
1, 15270, Note_off_c, 0, 67, 64
1, 15561, Control_c, 0, 64, 0
1, 16045, Note_on_c, 0, 61, 46
1, 16135, Note_off_c, 0, 61, 64
1, 16153, Note_on_c, 0, 62, 39
1, 16210, Note_off_c, 0, 62, 64
1, 16223, Note_on_c, 0, 61, 26
1, 16310, Note_off_c, 0, 61, 64
1, 16323, Note_on_c, 0, 62, 29
1, 16379, Note_off_c, 0, 62, 64
1, 16382, Note_on_c, 0, 61, 35
1, 16474, Note_off_c, 0, 61, 64
1, 16477, Note_on_c, 0, 62, 32
1, 16530, Note_off_c, 0, 62, 64
1, 16547, Note_on_c, 0, 61, 41
1, 16628, Note_off_c, 0, 61, 64
1, 16639, Note_on_c, 0, 62, 41
1, 16694, Note_off_c, 0, 62, 64
1, 16728, Note_on_c, 0, 60, 58
1, 16784, Note_off_c, 0, 60, 64
1, 16814, Note_on_c, 0, 62, 47
1, 16859, Note_off_c, 0, 62, 64
1, 16892, Note_on_c, 0, 60, 41
1, 16948, Note_off_c, 0, 60, 64
1, 16973, Note_on_c, 0, 62, 43
1, 17020, Note_off_c, 0, 62, 64
1, 17054, Note_on_c, 0, 60, 33
1, 17109, Note_off_c, 0, 60, 64
1, 17135, Note_on_c, 0, 62, 44
1, 17181, Note_off_c, 0, 62, 64
1, 17226, Note_on_c, 0, 60, 23
1, 17285, Note_off_c, 0, 60, 64
1, 17321, Note_on_c, 0, 62, 41
1, 17372, Note_off_c, 0, 62, 64
1, 17413, Note_on_c, 0, 86, 60
1, 17427, Note_on_c, 0, 59, 28
1, 17477, Note_off_c, 0, 59, 64
1, 17516, Note_on_c, 0, 62, 34
1, 17567, Note_off_c, 0, 62, 64
1, 17586, Note_on_c, 0, 83, 85
1, 17608, Note_on_c, 0, 59, 27
1, 17635, Note_off_c, 0, 86, 64
1, 17656, Note_off_c, 0, 59, 64
1, 17694, Note_on_c, 0, 62, 33
1, 17742, Note_off_c, 0, 62, 64
1, 17756, Note_on_c, 0, 79, 79
1, 17778, Note_on_c, 0, 59, 29
1, 17778, Note_off_c, 0, 83, 64
1, 17825, Note_off_c, 0, 59, 64
1, 17865, Note_on_c, 0, 62, 31
1, 17914, Note_off_c, 0, 62, 64
1, 17935, Note_on_c, 0, 59, 33
1, 17982, Note_off_c, 0, 59, 64
1, 18018, Note_on_c, 0, 62, 26
1, 18073, Note_off_c, 0, 62, 64
1, 18117, Note_on_c, 0, 59, 31
1, 18163, Note_off_c, 0, 59, 64
1, 18202, Note_on_c, 0, 62, 36
1, 18249, Note_off_c, 0, 62, 64
1, 18283, Note_on_c, 0, 81, 45
1, 18286, Note_on_c, 0, 59, 30
1, 18291, Note_off_c, 0, 79, 64
1, 18326, Note_off_c, 0, 81, 64
1, 18333, Note_off_c, 0, 59, 64
1, 18351, Note_on_c, 0, 83, 65
1, 18371, Note_on_c, 0, 62, 33
1, 18413, Note_on_c, 0, 81, 43
1, 18418, Note_off_c, 0, 62, 64
1, 18418, Note_off_c, 0, 83, 64
1, 18433, Note_on_c, 0, 59, 32
1, 18485, Note_off_c, 0, 59, 64
1, 18514, Note_on_c, 0, 62, 26
1, 18570, Note_off_c, 0, 62, 64
1, 18575, Note_off_c, 0, 81, 64
1, 18589, Note_on_c, 0, 79, 60
1, 18620, Note_on_c, 0, 59, 10
1, 18634, Note_off_c, 0, 79, 64
1, 18659, Note_on_c, 0, 62, 30
1, 18662, Note_on_c, 0, 81, 48
1, 18672, Note_off_c, 0, 59, 64
1, 18700, Note_off_c, 0, 81, 64
1, 18712, Note_on_c, 0, 79, 66
1, 18717, Note_off_c, 0, 62, 64
1, 18755, Note_off_c, 0, 79, 64
1, 18755, Note_on_c, 0, 60, 33
1, 18766, Note_on_c, 0, 81, 42
1, 18805, Note_off_c, 0, 81, 64
1, 18822, Note_off_c, 0, 60, 64
1, 18826, Note_on_c, 0, 79, 30
1, 18850, Note_on_c, 0, 62, 32
1, 18859, Note_on_c, 0, 81, 63
1, 18876, Note_off_c, 0, 79, 64
1, 18903, Note_off_c, 0, 62, 64
1, 18915, Note_off_c, 0, 81, 64
1, 18925, Note_on_c, 0, 59, 36
1, 18934, Note_on_c, 0, 79, 29
1, 18971, Note_on_c, 0, 78, 60
1, 18981, Note_off_c, 0, 59, 64
1, 18990, Note_off_c, 0, 79, 64
1, 19007, Note_off_c, 0, 78, 64
1, 19021, Note_on_c, 0, 62, 24
1, 19057, Note_on_c, 0, 78, 52
1, 19076, Note_off_c, 0, 62, 64
1, 19102, Note_on_c, 0, 57, 36
1, 19157, Note_off_c, 0, 57, 64
1, 19176, Note_on_c, 0, 62, 34
1, 19230, Note_off_c, 0, 62, 64
1, 19254, Note_on_c, 0, 59, 37
1, 19301, Note_off_c, 0, 59, 64
1, 19310, Note_on_c, 0, 62, 38
1, 19377, Note_off_c, 0, 62, 64
1, 19410, Note_on_c, 0, 60, 52
1, 19478, Note_off_c, 0, 60, 64
1, 19505, Note_on_c, 0, 62, 45
1, 19553, Note_off_c, 0, 62, 64
1, 19580, Note_on_c, 0, 59, 49
1, 19627, Note_off_c, 0, 59, 64
1, 19667, Note_on_c, 0, 62, 41
1, 19719, Note_off_c, 0, 62, 64
1, 19725, Note_off_c, 0, 78, 64
1, 19744, Note_on_c, 0, 60, 52
1, 19812, Note_off_c, 0, 60, 64
1, 19826, Note_on_c, 0, 62, 44
1, 19884, Note_off_c, 0, 62, 64
1, 19923, Note_on_c, 0, 57, 32
1, 19979, Note_off_c, 0, 57, 64
1, 19999, Note_on_c, 0, 62, 33
1, 20060, Note_off_c, 0, 62, 64
1, 20095, Note_on_c, 0, 86, 54
1, 20115, Control_c, 0, 64, 127
1, 20123, Note_on_c, 0, 59, 21
1, 20174, Note_off_c, 0, 59, 64
1, 20202, Note_on_c, 0, 62, 36
1, 20251, Note_off_c, 0, 62, 64
1, 20271, Control_c, 0, 64, 0
1, 20294, Note_on_c, 0, 83, 69
1, 20319, Note_on_c, 0, 59, 17
1, 20333, Note_off_c, 0, 86, 64
1, 20374, Note_off_c, 0, 59, 64
1, 20388, Note_on_c, 0, 62, 42
1, 20438, Note_off_c, 0, 62, 64
1, 20458, Note_on_c, 0, 79, 68
1, 20464, Note_on_c, 0, 59, 37
1, 20474, Note_off_c, 0, 83, 64
1, 20474, Control_c, 0, 64, 127
1, 20514, Note_off_c, 0, 59, 64
1, 20570, Control_c, 0, 64, 0
1, 20570, Note_on_c, 0, 62, 31
1, 20622, Note_off_c, 0, 62, 64
1, 20644, Note_on_c, 0, 59, 48
1, 20687, Note_off_c, 0, 59, 64
1, 20714, Note_on_c, 0, 62, 29
1, 20783, Note_off_c, 0, 62, 64
1, 20800, Note_on_c, 0, 59, 49
1, 20847, Note_off_c, 0, 59, 64
1, 20876, Note_on_c, 0, 62, 39
1, 20937, Note_off_c, 0, 62, 64
1, 20962, Note_on_c, 0, 81, 75
1, 20965, Note_on_c, 0, 59, 50
1, 20981, Note_off_c, 0, 79, 64
1, 21010, Note_off_c, 0, 59, 64
1, 21017, Note_off_c, 0, 81, 64
1, 21029, Note_on_c, 0, 83, 88
1, 21042, Note_on_c, 0, 62, 44
1, 21091, Note_off_c, 0, 62, 64
1, 21112, Note_on_c, 0, 81, 79
1, 21126, Note_on_c, 0, 59, 40
1, 21131, Note_off_c, 0, 83, 64
1, 21173, Note_off_c, 0, 59, 64
1, 21202, Note_on_c, 0, 62, 44
1, 21248, Note_off_c, 0, 62, 64
1, 21265, Note_off_c, 0, 81, 64
1, 21274, Note_on_c, 0, 79, 81
1, 21274, Note_on_c, 0, 59, 46
1, 21322, Note_off_c, 0, 59, 64
1, 21330, Note_off_c, 0, 79, 64
1, 21355, Note_on_c, 0, 62, 44
1, 21374, Note_on_c, 0, 81, 56
1, 21399, Note_off_c, 0, 62, 64
1, 21411, Note_off_c, 0, 81, 64
1, 21418, Note_on_c, 0, 79, 66
1, 21435, Note_on_c, 0, 60, 46
1, 21457, Note_off_c, 0, 79, 64
1, 21463, Note_on_c, 0, 81, 59
1, 21500, Note_off_c, 0, 60, 64
1, 21511, Note_off_c, 0, 81, 64
1, 21511, Note_on_c, 0, 62, 45
1, 21514, Note_on_c, 0, 79, 58
1, 21555, Note_off_c, 0, 79, 64
1, 21566, Note_off_c, 0, 62, 64
1, 21574, Note_on_c, 0, 81, 59
1, 21609, Note_on_c, 0, 79, 61
1, 21612, Note_on_c, 0, 59, 39
1, 21631, Note_off_c, 0, 81, 64
1, 21661, Note_off_c, 0, 59, 64
1, 21689, Note_on_c, 0, 78, 58
1, 21689, Note_off_c, 0, 79, 64
1, 21694, Note_on_c, 0, 62, 45
1, 21725, Note_off_c, 0, 78, 64
1, 21747, Note_off_c, 0, 62, 64
1, 21769, Note_on_c, 0, 78, 66
1, 21784, Note_on_c, 0, 57, 43
1, 21837, Note_off_c, 0, 57, 64
1, 21876, Note_on_c, 0, 62, 39
1, 21923, Note_off_c, 0, 62, 64
1, 21940, Note_on_c, 0, 59, 54
1, 21985, Note_off_c, 0, 59, 64
1, 22010, Note_on_c, 0, 62, 34
1, 22081, Note_off_c, 0, 62, 64
1, 22102, Note_on_c, 0, 60, 60
1, 22185, Note_off_c, 0, 60, 64
1, 22193, Note_on_c, 0, 62, 52
1, 22244, Note_off_c, 0, 62, 64
1, 22271, Note_on_c, 0, 59, 46
1, 22319, Note_off_c, 0, 59, 64
1, 22357, Note_on_c, 0, 62, 32
1, 22411, Note_off_c, 0, 62, 64
1, 22435, Note_on_c, 0, 60, 45
1, 22491, Note_off_c, 0, 78, 64
1, 22495, Note_off_c, 0, 60, 64
1, 22511, Note_on_c, 0, 62, 35
1, 22575, Note_off_c, 0, 62, 64
1, 22619, Note_on_c, 0, 57, 19
1, 22675, Note_off_c, 0, 57, 64
1, 22689, Note_on_c, 0, 62, 44
1, 22733, Note_off_c, 0, 62, 64
1, 22789, Note_on_c, 0, 86, 61
1, 22879, Note_on_c, 0, 59, 37
1, 22929, Note_off_c, 0, 59, 64
1, 22943, Control_c, 0, 64, 127
1, 22965, Note_on_c, 0, 62, 30
1, 23015, Note_off_c, 0, 62, 64
1, 23032, Note_on_c, 0, 67, 50
1, 23087, Note_off_c, 0, 67, 64
1, 23120, Note_off_c, 0, 86, 64
1, 23140, Note_on_c, 0, 71, 66
1, 23216, Note_off_c, 0, 71, 64
1, 23219, Note_on_c, 0, 86, 62
1, 23304, Control_c, 0, 64, 0
1, 23308, Note_on_c, 0, 83, 84
1, 23313, Note_off_c, 0, 86, 64
1, 23389, Note_on_c, 0, 79, 74
1, 23411, Note_off_c, 0, 83, 64
1, 23486, Note_off_c, 0, 79, 64
1, 23492, Note_on_c, 0, 76, 66
1, 23564, Note_on_c, 0, 60, 54
1, 23655, Note_on_c, 0, 64, 61
1, 23664, Note_off_c, 0, 60, 64
1, 23711, Control_c, 0, 64, 127
1, 23722, Note_off_c, 0, 64, 64
1, 23745, Note_on_c, 0, 67, 50
1, 23798, Note_off_c, 0, 76, 64
1, 23804, Note_off_c, 0, 67, 64
1, 23826, Note_on_c, 0, 72, 61
1, 23906, Note_on_c, 0, 76, 70
1, 23931, Note_off_c, 0, 72, 64
1, 23939, Control_c, 0, 64, 0
1, 23988, Note_on_c, 0, 79, 85
1, 23991, Note_off_c, 0, 76, 64
1, 24074, Note_on_c, 0, 76, 62
1, 24085, Note_off_c, 0, 79, 64
1, 24182, Note_off_c, 0, 76, 64
1, 24188, Note_on_c, 0, 84, 78
1, 24258, Note_on_c, 0, 57, 44
1, 24357, Note_off_c, 0, 57, 64
1, 24357, Note_on_c, 0, 60, 50
1, 24382, Control_c, 0, 64, 127
1, 24431, Note_off_c, 0, 60, 64
1, 24455, Note_on_c, 0, 66, 34
1, 24495, Note_off_c, 0, 84, 64
1, 24528, Note_off_c, 0, 66, 64
1, 24559, Note_on_c, 0, 69, 37
1, 24641, Note_off_c, 0, 69, 64
1, 24644, Note_on_c, 0, 84, 64
1, 24670, Control_c, 0, 64, 0
1, 24709, Note_off_c, 0, 84, 64
1, 24737, Note_on_c, 0, 81, 47
1, 24825, Note_on_c, 0, 78, 50
1, 24835, Note_off_c, 0, 81, 64
1, 24910, Note_off_c, 0, 78, 64
1, 24934, Note_on_c, 0, 74, 56
1, 24998, Note_on_c, 0, 59, 35
1, 25080, Note_off_c, 0, 59, 64
1, 25091, Note_on_c, 0, 62, 48
1, 25126, Control_c, 0, 64, 127
1, 25152, Note_off_c, 0, 62, 64
1, 25176, Note_on_c, 0, 66, 39
1, 25227, Note_off_c, 0, 74, 64
1, 25240, Note_off_c, 0, 66, 64
1, 25271, Note_on_c, 0, 71, 58
1, 25349, Note_on_c, 0, 74, 71
1, 25400, Control_c, 0, 64, 0
1, 25431, Note_on_c, 0, 78, 70
1, 25436, Note_off_c, 0, 71, 64
1, 25441, Note_off_c, 0, 74, 64
1, 25514, Note_on_c, 0, 74, 59
1, 25519, Note_off_c, 0, 78, 64
1, 25626, Note_off_c, 0, 74, 64
1, 25626, Note_on_c, 0, 83, 97
1, 25690, Note_on_c, 0, 55, 45
1, 25778, Note_on_c, 0, 59, 57
1, 25778, Note_off_c, 0, 55, 64
1, 25832, Control_c, 0, 64, 127
1, 25867, Note_off_c, 0, 59, 64
1, 25879, Note_on_c, 0, 64, 52
1, 25918, Note_off_c, 0, 83, 64
1, 25948, Note_off_c, 0, 64, 64
1, 25977, Note_on_c, 0, 67, 58
1, 26076, Note_off_c, 0, 67, 64
1, 26076, Note_on_c, 0, 83, 95
1, 26132, Control_c, 0, 64, 0
1, 26158, Note_on_c, 0, 79, 79
1, 26168, Note_off_c, 0, 83, 64
1, 26254, Note_on_c, 0, 76, 63
1, 26260, Note_off_c, 0, 79, 64
1, 26344, Note_on_c, 0, 72, 60
1, 26358, Note_off_c, 0, 76, 64
1, 26430, Note_on_c, 0, 57, 48
1, 26511, Note_on_c, 0, 60, 58
1, 26522, Note_off_c, 0, 57, 64
1, 26575, Control_c, 0, 64, 127
1, 26578, Note_off_c, 0, 60, 64
1, 26603, Note_on_c, 0, 64, 55
1, 26626, Note_off_c, 0, 72, 64
1, 26651, Note_off_c, 0, 64, 64
1, 26684, Note_on_c, 0, 69, 50
1, 26771, Note_on_c, 0, 72, 63
1, 26821, Note_off_c, 0, 69, 64
1, 26832, Note_off_c, 0, 72, 64
1, 26853, Note_on_c, 0, 76, 65
1, 26887, Control_c, 0, 64, 0
1, 26941, Note_on_c, 0, 72, 68
1, 26946, Note_off_c, 0, 76, 64
1, 27049, Note_off_c, 0, 72, 64
1, 27065, Note_on_c, 0, 81, 57
1, 27127, Note_on_c, 0, 54, 37
1, 27197, Note_off_c, 0, 54, 64
1, 27222, Note_on_c, 0, 57, 28
1, 27271, Control_c, 0, 64, 127
1, 27285, Note_off_c, 0, 57, 64
1, 27311, Note_on_c, 0, 62, 36
1, 27339, Note_off_c, 0, 81, 64
1, 27369, Note_off_c, 0, 62, 64
1, 27414, Note_on_c, 0, 66, 34
1, 27512, Note_on_c, 0, 81, 48
1, 27561, Note_off_c, 0, 66, 64
1, 27584, Note_off_c, 0, 81, 64
1, 27592, Note_on_c, 0, 78, 43
1, 27592, Control_c, 0, 64, 0
1, 27661, Note_off_c, 0, 78, 64
1, 27695, Note_on_c, 0, 74, 38
1, 27753, Note_off_c, 0, 74, 64
1, 27792, Note_on_c, 0, 71, 55
1, 27874, Note_on_c, 0, 55, 40
1, 27959, Note_off_c, 0, 55, 64
1, 27962, Note_on_c, 0, 59, 28
1, 28021, Note_off_c, 0, 59, 64
1, 28030, Note_on_c, 0, 62, 42
1, 28082, Note_off_c, 0, 62, 64
1, 28133, Note_on_c, 0, 67, 49
1, 28151, Note_off_c, 0, 71, 64
1, 28205, Control_c, 0, 64, 127
1, 28244, Note_on_c, 0, 79, 65
1, 28269, Note_off_c, 0, 67, 64
1, 28308, Note_off_c, 0, 79, 64
1, 28341, Note_on_c, 0, 74, 57
1, 28406, Note_off_c, 0, 74, 64
1, 28430, Note_on_c, 0, 71, 43
1, 28458, Control_c, 0, 64, 0
1, 28481, Note_off_c, 0, 71, 64
1, 28491, Note_on_c, 0, 60, 45
1, 28491, Note_on_c, 0, 64, 44
1, 28491, Note_on_c, 0, 69, 51
1, 28531, Note_off_c, 0, 64, 64
1, 28534, Note_off_c, 0, 60, 64
1, 28667, Note_on_c, 0, 64, 51
1, 28667, Note_on_c, 0, 60, 46
1, 28711, Note_off_c, 0, 64, 64
1, 28718, Note_off_c, 0, 60, 64
1, 28843, Note_on_c, 0, 64, 47
1, 28856, Note_on_c, 0, 60, 42
1, 28887, Note_off_c, 0, 64, 64
1, 28904, Note_off_c, 0, 60, 64
1, 29029, Note_on_c, 0, 64, 29
1, 29035, Note_on_c, 0, 60, 27
1, 29044, Note_off_c, 0, 69, 64
1, 29079, Note_off_c, 0, 64, 64
1, 29088, Note_off_c, 0, 60, 64
1, 29179, Note_on_c, 0, 71, 49
1, 29185, Note_on_c, 0, 72, 54
1, 29193, Note_on_c, 0, 64, 60
1, 29197, Note_on_c, 0, 60, 43
1, 29222, Note_off_c, 0, 71, 64
1, 29236, Note_off_c, 0, 64, 64
1, 29242, Note_off_c, 0, 60, 64
1, 29253, Note_off_c, 0, 72, 64
1, 29369, Note_on_c, 0, 64, 50
1, 29369, Note_on_c, 0, 60, 53
1, 29411, Note_off_c, 0, 64, 64
1, 29417, Note_off_c, 0, 60, 64
1, 29519, Note_on_c, 0, 75, 52
1, 29533, Note_on_c, 0, 76, 78
1, 29537, Note_on_c, 0, 64, 54
1, 29556, Note_on_c, 0, 60, 40
1, 29567, Note_off_c, 0, 75, 64
1, 29576, Note_off_c, 0, 64, 64
1, 29608, Note_off_c, 0, 60, 64
1, 29615, Note_off_c, 0, 76, 64
1, 29707, Note_on_c, 0, 64, 51
1, 29712, Note_on_c, 0, 60, 25
1, 29749, Note_off_c, 0, 64, 64
1, 29765, Note_off_c, 0, 60, 64
1, 29863, Note_on_c, 0, 80, 67
1, 29881, Note_on_c, 0, 64, 50
1, 29885, Note_on_c, 0, 60, 47
1, 29885, Note_on_c, 0, 81, 82
1, 29910, Note_off_c, 0, 80, 64
1, 29921, Note_off_c, 0, 64, 64
1, 29930, Note_off_c, 0, 60, 64
1, 30051, Note_on_c, 0, 64, 52
1, 30061, Note_on_c, 0, 60, 51
1, 30094, Note_off_c, 0, 64, 64
1, 30105, Note_off_c, 0, 60, 64
1, 30228, Note_on_c, 0, 64, 42
1, 30238, Note_on_c, 0, 60, 37
1, 30269, Note_off_c, 0, 81, 64
1, 30269, Note_off_c, 0, 64, 64
1, 30289, Note_off_c, 0, 60, 64
1, 30384, Note_on_c, 0, 83, 84
1, 30402, Note_on_c, 0, 60, 33
1, 30405, Note_on_c, 0, 64, 49
1, 30422, Note_on_c, 0, 81, 60
1, 30430, Note_off_c, 0, 83, 64
1, 30448, Note_off_c, 0, 64, 64
1, 30453, Note_off_c, 0, 60, 64
1, 30456, Note_off_c, 0, 81, 64
1, 30464, Note_on_c, 0, 80, 66
1, 30519, Note_on_c, 0, 81, 49
1, 30548, Note_off_c, 0, 80, 64
1, 30568, Note_on_c, 0, 60, 41
1, 30573, Note_on_c, 0, 64, 50
1, 30576, Note_on_c, 0, 84, 93
1, 30606, Note_off_c, 0, 81, 64
1, 30611, Note_off_c, 0, 64, 64
1, 30617, Note_off_c, 0, 60, 64
1, 30740, Note_on_c, 0, 81, 76
1, 30745, Note_on_c, 0, 60, 57
1, 30745, Note_on_c, 0, 64, 50
1, 30757, Note_off_c, 0, 84, 64
1, 30774, Note_off_c, 0, 81, 64
1, 30787, Note_off_c, 0, 60, 64
1, 30787, Note_off_c, 0, 64, 64
1, 30916, Note_on_c, 0, 84, 92
1, 30919, Note_on_c, 0, 60, 56
1, 30919, Note_on_c, 0, 64, 56
1, 30962, Note_off_c, 0, 64, 64
1, 30973, Note_off_c, 0, 60, 64
1, 31090, Note_on_c, 0, 81, 79
1, 31094, Note_on_c, 0, 60, 67
1, 31107, Note_on_c, 0, 64, 49
1, 31116, Note_off_c, 0, 84, 64
1, 31130, Note_off_c, 0, 60, 64
1, 31144, Note_off_c, 0, 64, 64
1, 31199, Note_off_c, 0, 81, 64
1, 31264, Note_on_c, 0, 83, 108
1, 31267, Note_on_c, 0, 62, 60
1, 31314, Note_off_c, 0, 62, 64
1, 31331, Note_off_c, 0, 83, 64
1, 31369, Note_on_c, 0, 71, 42
1, 31419, Note_off_c, 0, 71, 64
1, 31433, Note_on_c, 0, 79, 89
1, 31445, Note_on_c, 0, 67, 44
1, 31484, Note_off_c, 0, 79, 64
1, 31500, Note_off_c, 0, 67, 64
1, 31544, Note_on_c, 0, 71, 48
1, 31600, Note_off_c, 0, 71, 64
1, 31623, Note_on_c, 0, 86, 90
1, 31646, Note_on_c, 0, 62, 37
1, 31670, Control_c, 0, 64, 127
1, 31693, Note_off_c, 0, 62, 64
1, 31732, Note_on_c, 0, 71, 49
1, 31781, Note_off_c, 0, 71, 64
1, 31820, Note_on_c, 0, 67, 30
1, 31873, Note_off_c, 0, 67, 64
1, 31923, Note_on_c, 0, 71, 32
1, 31980, Note_off_c, 0, 71, 64
1, 31996, Note_on_c, 0, 62, 39
1, 32043, Note_off_c, 0, 62, 64
1, 32075, Note_on_c, 0, 71, 31
1, 32133, Note_off_c, 0, 71, 64
1, 32174, Note_on_c, 0, 67, 29
1, 32228, Note_off_c, 0, 67, 64
1, 32247, Note_on_c, 0, 71, 48
1, 32300, Note_off_c, 0, 71, 64
1, 32331, Note_on_c, 0, 84, 63
1, 32350, Note_off_c, 0, 86, 64
1, 32355, Note_on_c, 0, 62, 25
1, 32414, Note_off_c, 0, 62, 64
1, 32422, Note_on_c, 0, 83, 76
1, 32433, Note_on_c, 0, 71, 44
1, 32433, Note_off_c, 0, 84, 64
1, 32478, Note_off_c, 0, 83, 64
1, 32483, Note_off_c, 0, 71, 64
1, 32501, Note_on_c, 0, 81, 55
1, 32514, Note_on_c, 0, 67, 29
1, 32543, Note_off_c, 0, 81, 64
1, 32568, Note_off_c, 0, 67, 64
1, 32568, Note_on_c, 0, 79, 69
1, 32575, Note_on_c, 0, 71, 39
1, 32592, Control_c, 0, 64, 0
1, 32609, Note_off_c, 0, 79, 64
1, 32628, Note_off_c, 0, 71, 64
1, 32643, Note_on_c, 0, 83, 97
1, 32670, Note_on_c, 0, 62, 38
1, 32674, Note_off_c, 0, 83, 64
1, 32710, Note_on_c, 0, 81, 45
1, 32740, Note_off_c, 0, 62, 64
1, 32740, Note_on_c, 0, 72, 42
1, 32754, Note_off_c, 0, 81, 64
1, 32754, Note_on_c, 0, 83, 80
1, 32784, Control_c, 0, 64, 127
1, 32788, Note_off_c, 0, 83, 64
1, 32802, Note_off_c, 0, 72, 64
1, 32809, Note_on_c, 0, 81, 50
1, 32843, Note_on_c, 0, 66, 22
1, 32848, Note_off_c, 0, 81, 64
1, 32851, Note_on_c, 0, 83, 75
1, 32894, Note_off_c, 0, 83, 64
1, 32915, Note_off_c, 0, 66, 64
1, 32919, Note_on_c, 0, 81, 24
1, 32932, Note_on_c, 0, 72, 32
1, 32958, Note_on_c, 0, 83, 85
1, 32968, Note_off_c, 0, 81, 64
1, 32983, Note_off_c, 0, 72, 64
1, 33008, Note_off_c, 0, 83, 64
1, 33027, Note_on_c, 0, 81, 51
1, 33027, Note_on_c, 0, 62, 25
1, 33082, Note_off_c, 0, 81, 64
1, 33086, Note_off_c, 0, 62, 64
1, 33100, Note_on_c, 0, 83, 80
1, 33103, Note_on_c, 0, 72, 37
1, 33135, Note_off_c, 0, 83, 64
1, 33152, Note_on_c, 0, 81, 49
1, 33152, Note_off_c, 0, 72, 64
1, 33169, Note_on_c, 0, 66, 32
1, 33199, Note_off_c, 0, 81, 64
1, 33219, Note_on_c, 0, 83, 79
1, 33224, Note_off_c, 0, 66, 64
1, 33255, Note_off_c, 0, 83, 64
1, 33263, Note_on_c, 0, 72, 29
1, 33299, Note_on_c, 0, 81, 52
1, 33313, Note_off_c, 0, 72, 64
1, 33334, Note_off_c, 0, 81, 64
1, 33345, Note_on_c, 0, 62, 52
1, 33350, Note_on_c, 0, 83, 85
1, 33381, Note_off_c, 0, 83, 64
1, 33384, Note_off_c, 0, 62, 64
1, 33416, Note_on_c, 0, 81, 39
1, 33426, Note_on_c, 0, 72, 46
1, 33458, Note_off_c, 0, 81, 64
1, 33469, Note_off_c, 0, 72, 64
1, 33469, Note_on_c, 0, 83, 88
1, 33490, Note_on_c, 0, 66, 44
1, 33500, Note_off_c, 0, 83, 64
1, 33536, Note_off_c, 0, 66, 64
1, 33543, Note_on_c, 0, 81, 46
1, 33584, Note_off_c, 0, 81, 64
1, 33589, Note_on_c, 0, 72, 25
1, 33598, Note_on_c, 0, 83, 83
1, 33634, Note_off_c, 0, 83, 64
1, 33642, Note_off_c, 0, 72, 64
1, 33662, Note_on_c, 0, 81, 39
1, 33662, Note_on_c, 0, 62, 51
1, 33703, Note_off_c, 0, 81, 64
1, 33703, Note_on_c, 0, 83, 89
1, 33709, Note_off_c, 0, 62, 64
1, 33746, Note_on_c, 0, 72, 40
1, 33757, Note_off_c, 0, 83, 64
1, 33770, Note_on_c, 0, 81, 36
1, 33801, Note_off_c, 0, 72, 64
1, 33815, Note_off_c, 0, 81, 64
1, 33815, Note_on_c, 0, 83, 102
1, 33843, Note_on_c, 0, 66, 36
1, 33880, Note_on_c, 0, 81, 52
1, 33902, Note_off_c, 0, 83, 64
1, 33915, Note_off_c, 0, 66, 64
1, 33926, Note_off_c, 0, 81, 64
1, 33935, Note_on_c, 0, 79, 71
1, 33939, Note_on_c, 0, 72, 35
1, 33957, Control_c, 0, 64, 0
1, 33974, Note_off_c, 0, 79, 64
1, 33993, Note_on_c, 0, 81, 69
1, 34016, Note_off_c, 0, 72, 64
1, 34061, Note_off_c, 0, 81, 64
1, 34071, Note_on_c, 0, 79, 95
1, 34074, Note_on_c, 0, 67, 43
1, 34077, Note_on_c, 0, 71, 50
1, 34261, Note_off_c, 0, 79, 64
1, 34269, Control_c, 0, 64, 127
1, 34294, Note_off_c, 0, 71, 64
1, 34318, Note_off_c, 0, 67, 64
1, 34423, Note_on_c, 0, 79, 89
1, 34450, Control_c, 0, 64, 0
1, 34462, Note_off_c, 0, 79, 64
1, 34501, Note_on_c, 0, 74, 79
1, 34550, Note_off_c, 0, 74, 64
1, 34596, Note_on_c, 0, 79, 76
1, 34665, Note_off_c, 0, 79, 64
1, 34668, Note_on_c, 0, 83, 87
1, 34759, Note_off_c, 0, 83, 64
1, 34759, Note_on_c, 0, 86, 80
1, 34837, Note_on_c, 0, 83, 90
1, 34868, Note_off_c, 0, 86, 64
1, 34918, Note_off_c, 0, 83, 64
1, 34935, Note_on_c, 0, 79, 80
1, 34983, Note_off_c, 0, 79, 64
1, 35014, Note_on_c, 0, 83, 81
1, 35105, Note_off_c, 0, 83, 64
1, 35105, Note_on_c, 0, 84, 69
1, 35105, Note_on_c, 0, 72, 54
1, 35128, Note_on_c, 0, 62, 35
1, 35131, Note_on_c, 0, 69, 22
1, 35163, Note_off_c, 0, 72, 64
1, 35178, Note_on_c, 0, 81, 71
1, 35183, Note_off_c, 0, 62, 64
1, 35192, Note_off_c, 0, 69, 64
1, 35195, Note_off_c, 0, 84, 64
1, 35220, Note_off_c, 0, 81, 64
1, 35269, Note_on_c, 0, 78, 61
1, 35330, Note_off_c, 0, 78, 64
1, 35361, Note_on_c, 0, 81, 57
1, 35403, Note_off_c, 0, 81, 64
1, 35470, Note_on_c, 0, 71, 32
1, 35470, Note_on_c, 0, 79, 48
1, 35489, Note_on_c, 0, 67, 19
1, 35539, Control_c, 0, 64, 127
1, 35560, Note_off_c, 0, 79, 64
1, 35563, Note_off_c, 0, 71, 64
1, 35570, Note_off_c, 0, 67, 64
1, 35798, Note_on_c, 0, 67, 53
1, 35840, Control_c, 0, 64, 0
1, 35844, Note_off_c, 0, 67, 64
1, 35874, Note_on_c, 0, 62, 61
1, 35921, Note_off_c, 0, 62, 64
1, 35960, Note_on_c, 0, 67, 59
1, 36005, Note_off_c, 0, 67, 64
1, 36038, Note_on_c, 0, 71, 61
1, 36105, Note_off_c, 0, 71, 64
1, 36122, Note_on_c, 0, 74, 63
1, 36208, Note_on_c, 0, 71, 45
1, 36208, Note_off_c, 0, 74, 64
1, 36259, Note_off_c, 0, 71, 64
1, 36280, Note_on_c, 0, 67, 39
1, 36333, Note_off_c, 0, 67, 64
1, 36350, Note_on_c, 0, 71, 52
1, 36453, Note_off_c, 0, 71, 64
1, 36461, Note_on_c, 0, 60, 41
1, 36461, Note_on_c, 0, 72, 46
1, 36470, Note_on_c, 0, 57, 31
1, 36470, Note_on_c, 0, 50, 40
1, 36515, Note_off_c, 0, 60, 64
1, 36526, Note_off_c, 0, 72, 64
1, 36526, Note_off_c, 0, 57, 64
1, 36526, Note_off_c, 0, 50, 64
1, 36540, Note_on_c, 0, 69, 40
1, 36590, Note_off_c, 0, 69, 64
1, 36607, Note_on_c, 0, 66, 42
1, 36676, Note_off_c, 0, 66, 64
1, 36702, Note_on_c, 0, 69, 39
1, 36768, Note_off_c, 0, 69, 64
1, 36812, Note_on_c, 0, 67, 60
1, 36819, Note_on_c, 0, 59, 34
1, 36829, Note_on_c, 0, 55, 33
1, 36879, Note_off_c, 0, 55, 64
1, 36886, Note_off_c, 0, 59, 64
1, 36904, Note_off_c, 0, 67, 64
1, 36904, Control_c, 0, 64, 127
1, 36943, Control_c, 0, 64, 0
1, 37191, Note_on_c, 0, 43, 30
1, 37194, Note_on_c, 0, 55, 34
1, 37198, Note_on_c, 0, 74, 42
1, 37198, Note_on_c, 0, 83, 60
1, 37253, Control_c, 0, 64, 127
1, 37270, Note_off_c, 0, 55, 64
1, 37284, Note_off_c, 0, 43, 64
1, 37284, Note_off_c, 0, 74, 64
1, 37291, Note_off_c, 0, 83, 64
1, 37314, Control_c, 0, 64, 0
1, 37607, Note_on_c, 0, 71, 28
1, 37610, Note_on_c, 0, 79, 24
1, 37621, Note_on_c, 0, 43, 25
1, 37626, Note_on_c, 0, 55, 19
1, 37637, Control_c, 0, 64, 127
1, 37691, Note_off_c, 0, 43, 64
1, 37709, Note_off_c, 0, 55, 64
1, 37765, Note_off_c, 0, 71, 64
1, 37812, Note_off_c, 0, 79, 64
1, 37960, Control_c, 0, 64, 0
1, 38517, Note_on_c, 0, 67, 62
1, 38524, Note_on_c, 0, 55, 43
1, 38529, Note_on_c, 0, 43, 39
1, 38560, Control_c, 0, 64, 127
1, 38604, Note_off_c, 0, 67, 64
1, 38615, Note_off_c, 0, 55, 64
1, 38619, Note_off_c, 0, 43, 64
1, 38872, Note_on_c, 0, 79, 63
1, 38921, Note_off_c, 0, 79, 64
1, 38947, Note_on_c, 0, 74, 51
1, 38999, Note_off_c, 0, 74, 64
1, 39036, Note_on_c, 0, 79, 75
1, 39080, Note_off_c, 0, 79, 64
1, 39106, Note_on_c, 0, 82, 59
1, 39124, Control_c, 0, 64, 0
1, 39192, Note_on_c, 0, 86, 82
1, 39202, Note_off_c, 0, 82, 64
1, 39264, Note_on_c, 0, 82, 56
1, 39300, Note_off_c, 0, 86, 64
1, 39354, Note_on_c, 0, 79, 71
1, 39367, Note_off_c, 0, 82, 64
1, 39428, Note_on_c, 0, 82, 55
1, 39454, Note_off_c, 0, 79, 64
1, 39537, Note_on_c, 0, 84, 73
1, 39537, Note_on_c, 0, 72, 42
1, 39556, Note_on_c, 0, 62, 27
1, 39556, Note_on_c, 0, 69, 23
1, 39567, Note_off_c, 0, 82, 64
1, 39626, Note_on_c, 0, 81, 51
1, 39626, Note_off_c, 0, 62, 64
1, 39635, Note_off_c, 0, 84, 64
1, 39646, Note_off_c, 0, 72, 64
1, 39657, Note_off_c, 0, 69, 64
1, 39679, Note_off_c, 0, 81, 64
1, 39690, Note_on_c, 0, 78, 68
1, 39763, Note_off_c, 0, 78, 64
1, 39782, Note_on_c, 0, 81, 71
1, 39841, Note_off_c, 0, 81, 64
1, 39883, Note_on_c, 0, 79, 79
1, 39888, Note_on_c, 0, 70, 29
1, 39908, Note_on_c, 0, 67, 30
1, 39971, Note_off_c, 0, 79, 64
1, 39971, Control_c, 0, 64, 127
1, 39986, Note_off_c, 0, 70, 64
1, 40002, Note_off_c, 0, 67, 64
1, 40219, Note_on_c, 0, 67, 60
1, 40267, Note_off_c, 0, 67, 64
1, 40273, Control_c, 0, 64, 0
1, 40298, Note_on_c, 0, 62, 61
1, 40359, Note_off_c, 0, 62, 64
1, 40384, Note_on_c, 0, 67, 63
1, 40437, Note_off_c, 0, 67, 64
1, 40457, Note_on_c, 0, 70, 54
1, 40542, Note_on_c, 0, 74, 60
1, 40556, Note_off_c, 0, 70, 64
1, 40612, Note_on_c, 0, 70, 50
1, 40637, Note_off_c, 0, 74, 64
1, 40701, Note_off_c, 0, 70, 64
1, 40704, Note_on_c, 0, 67, 59
1, 40752, Note_off_c, 0, 67, 64
1, 40760, Note_on_c, 0, 70, 49
1, 40860, Note_on_c, 0, 50, 30
1, 40868, Note_on_c, 0, 72, 55
1, 40868, Note_on_c, 0, 60, 20
1, 40885, Note_on_c, 0, 57, 20
1, 40905, Note_off_c, 0, 70, 64
1, 40916, Note_off_c, 0, 72, 64
1, 40942, Note_on_c, 0, 69, 33
1, 40947, Note_off_c, 0, 60, 64
1, 40947, Note_off_c, 0, 57, 64
1, 40991, Note_off_c, 0, 50, 64
1, 40996, Note_off_c, 0, 69, 64
1, 41010, Note_on_c, 0, 66, 41
1, 41064, Note_off_c, 0, 66, 64
1, 41078, Note_on_c, 0, 69, 33
1, 41152, Note_off_c, 0, 69, 64
1, 41208, Note_on_c, 0, 67, 51
1, 41290, Note_on_c, 0, 43, 42
1, 41362, Note_off_c, 0, 43, 64
1, 41365, Note_on_c, 0, 45, 54
1, 41434, Note_on_c, 0, 46, 62
1, 41459, Note_off_c, 0, 45, 64
1, 41526, Note_on_c, 0, 48, 62
1, 41540, Note_off_c, 0, 46, 64
1, 41590, Note_off_c, 0, 48, 64
1, 41598, Note_off_c, 0, 67, 64
1, 41607, Note_on_c, 0, 50, 67
1, 41688, Note_on_c, 0, 52, 83
1, 41705, Note_off_c, 0, 50, 64
1, 41776, Note_on_c, 0, 54, 78
1, 41783, Note_off_c, 0, 52, 64
1, 41860, Note_on_c, 0, 55, 73
1, 41868, Note_off_c, 0, 54, 64
1, 41950, Note_on_c, 0, 79, 81
1, 42041, Note_on_c, 0, 82, 66
1, 42055, Note_off_c, 0, 79, 64
1, 42100, Note_off_c, 0, 55, 64
1, 42117, Note_on_c, 0, 81, 79
1, 42172, Note_off_c, 0, 82, 64
1, 42206, Note_on_c, 0, 79, 86
1, 42225, Note_off_c, 0, 81, 64
1, 42292, Note_off_c, 0, 79, 64
1, 42300, Note_on_c, 0, 77, 75
1, 42384, Note_on_c, 0, 76, 67
1, 42400, Note_off_c, 0, 77, 64
1, 42467, Note_on_c, 0, 74, 72
1, 42485, Note_off_c, 0, 76, 64
1, 42566, Note_off_c, 0, 74, 64
1, 42566, Note_on_c, 0, 73, 56
1, 42648, Note_on_c, 0, 45, 51
1, 42726, Note_on_c, 0, 47, 69
1, 42755, Note_off_c, 0, 45, 64
1, 42800, Note_on_c, 0, 49, 72
1, 42821, Note_off_c, 0, 47, 64
1, 42883, Note_on_c, 0, 50, 74
1, 42905, Note_off_c, 0, 49, 64
1, 42944, Note_off_c, 0, 50, 64
1, 42958, Note_on_c, 0, 52, 84
1, 43014, Note_off_c, 0, 73, 64
1, 43039, Note_on_c, 0, 54, 84
1, 43048, Note_off_c, 0, 52, 64
1, 43119, Note_on_c, 0, 56, 66
1, 43145, Note_off_c, 0, 54, 64
1, 43201, Note_off_c, 0, 56, 64
1, 43215, Note_on_c, 0, 57, 68
1, 43306, Note_on_c, 0, 85, 76
1, 43393, Note_on_c, 0, 88, 81
1, 43406, Note_off_c, 0, 85, 64
1, 43417, Note_off_c, 0, 57, 64
1, 43426, Control_c, 0, 64, 127
1, 43478, Note_on_c, 0, 86, 82
1, 43485, Control_c, 0, 64, 0
1, 43531, Note_off_c, 0, 88, 64
1, 43551, Note_on_c, 0, 85, 78
1, 43601, Note_off_c, 0, 86, 64
1, 43640, Note_on_c, 0, 82, 75
1, 43699, Note_off_c, 0, 85, 64
1, 43718, Note_off_c, 0, 82, 64
1, 43718, Note_on_c, 0, 81, 66
1, 43797, Note_on_c, 0, 79, 83
1, 43810, Note_off_c, 0, 81, 64
1, 43871, Note_off_c, 0, 79, 64
1, 43903, Note_on_c, 0, 77, 75
1, 43903, Note_on_c, 0, 50, 45
1, 43910, Note_on_c, 0, 38, 45
1, 44036, Control_c, 0, 64, 127
1, 44047, Note_off_c, 0, 38, 64
1, 44086, Note_off_c, 0, 50, 64
1, 44130, Note_off_c, 0, 77, 64
1, 44253, Note_on_c, 0, 74, 70
1, 44289, Note_off_c, 0, 74, 64
1, 44318, Note_on_c, 0, 69, 54
1, 44325, Control_c, 0, 64, 0
1, 44384, Note_off_c, 0, 69, 64
1, 44404, Note_on_c, 0, 74, 81
1, 44487, Note_on_c, 0, 77, 74
1, 44509, Note_off_c, 0, 74, 64
1, 44569, Note_on_c, 0, 81, 81
1, 44572, Note_off_c, 0, 77, 64
1, 44646, Note_on_c, 0, 77, 60
1, 44679, Note_off_c, 0, 81, 64
1, 44732, Note_off_c, 0, 77, 64
1, 44732, Note_on_c, 0, 74, 78
1, 44813, Note_on_c, 0, 77, 61
1, 44818, Note_off_c, 0, 74, 64
1, 44903, Note_on_c, 0, 67, 56
1, 44913, Note_on_c, 0, 79, 83
1, 44916, Note_on_c, 0, 57, 36
1, 44922, Note_on_c, 0, 64, 40
1, 44928, Note_off_c, 0, 77, 64
1, 44972, Note_off_c, 0, 64, 64
1, 44984, Note_off_c, 0, 67, 64
1, 44984, Note_on_c, 0, 76, 65
1, 44995, Note_off_c, 0, 57, 64
1, 45003, Note_off_c, 0, 79, 64
1, 45047, Note_off_c, 0, 76, 64
1, 45069, Note_on_c, 0, 73, 62
1, 45154, Note_on_c, 0, 76, 72
1, 45172, Note_off_c, 0, 73, 64
1, 45248, Note_off_c, 0, 76, 64
1, 45256, Note_on_c, 0, 74, 79
1, 45262, Note_on_c, 0, 65, 34
1, 45262, Note_on_c, 0, 62, 33
1, 45331, Control_c, 0, 64, 127
1, 45348, Note_off_c, 0, 74, 64
1, 45351, Note_off_c, 0, 65, 64
1, 45371, Note_off_c, 0, 62, 64
1, 45548, Control_c, 0, 64, 0
1, 45588, Note_on_c, 0, 62, 54
1, 45649, Note_off_c, 0, 62, 64
1, 45663, Note_on_c, 0, 57, 48
1, 45727, Note_off_c, 0, 57, 64
1, 45752, Note_on_c, 0, 62, 41
1, 45800, Note_off_c, 0, 62, 64
1, 45827, Note_on_c, 0, 65, 47
1, 45895, Note_off_c, 0, 65, 64
1, 45905, Note_on_c, 0, 69, 45
1, 45977, Note_on_c, 0, 65, 39
1, 45981, Note_off_c, 0, 69, 64
1, 46047, Note_off_c, 0, 65, 64
1, 46058, Note_on_c, 0, 62, 58
1, 46109, Note_off_c, 0, 62, 64
1, 46129, Note_on_c, 0, 65, 38
1, 46218, Note_on_c, 0, 45, 23
1, 46218, Note_on_c, 0, 55, 28
1, 46228, Note_on_c, 0, 67, 50
1, 46232, Note_on_c, 0, 52, 29
1, 46242, Note_off_c, 0, 65, 64
1, 46286, Note_off_c, 0, 67, 64
1, 46295, Note_off_c, 0, 52, 64
1, 46306, Note_off_c, 0, 45, 64
1, 46315, Note_off_c, 0, 55, 64
1, 46315, Note_on_c, 0, 64, 32
1, 46362, Note_off_c, 0, 64, 64
1, 46362, Note_on_c, 0, 61, 55
1, 46426, Note_off_c, 0, 61, 64
1, 46445, Note_on_c, 0, 64, 35
1, 46512, Note_off_c, 0, 64, 64
1, 46554, Note_on_c, 0, 50, 42
1, 46554, Note_on_c, 0, 53, 62
1, 46647, Note_on_c, 0, 62, 42
1, 46697, Note_off_c, 0, 62, 64
1, 46727, Note_on_c, 0, 64, 55
1, 46774, Note_off_c, 0, 64, 64
1, 46794, Note_on_c, 0, 65, 61
1, 46817, Control_c, 0, 64, 127
1, 46847, Note_off_c, 0, 65, 64
1, 46866, Note_off_c, 0, 50, 64
1, 46872, Note_off_c, 0, 53, 64
1, 46883, Note_on_c, 0, 67, 72
1, 46930, Note_off_c, 0, 67, 64
1, 46938, Control_c, 0, 64, 0
1, 46959, Note_on_c, 0, 69, 66
1, 47037, Note_on_c, 0, 71, 79
1, 47067, Note_off_c, 0, 69, 64
1, 47114, Note_on_c, 0, 73, 67
1, 47136, Note_off_c, 0, 71, 64
1, 47218, Note_on_c, 0, 74, 80
1, 47240, Note_off_c, 0, 73, 64
1, 47314, Note_on_c, 0, 62, 62
1, 47384, Note_off_c, 0, 62, 64
1, 47395, Note_on_c, 0, 65, 46
1, 47480, Note_on_c, 0, 64, 61
1, 47484, Note_off_c, 0, 65, 64
1, 47558, Note_on_c, 0, 62, 66
1, 47573, Note_off_c, 0, 64, 64
1, 47607, Note_off_c, 0, 62, 64
1, 47647, Note_on_c, 0, 60, 59
1, 47711, Note_off_c, 0, 60, 64
1, 47724, Note_on_c, 0, 59, 65
1, 47724, Note_off_c, 0, 74, 64
1, 47807, Note_off_c, 0, 59, 64
1, 47807, Note_on_c, 0, 57, 51
1, 47894, Note_on_c, 0, 56, 53
1, 47897, Note_off_c, 0, 57, 64
1, 47991, Note_on_c, 0, 71, 64
1, 48039, Note_off_c, 0, 71, 64
1, 48078, Note_on_c, 0, 72, 51
1, 48136, Note_off_c, 0, 72, 64
1, 48143, Note_on_c, 0, 74, 77
1, 48173, Note_off_c, 0, 56, 64
1, 48195, Note_off_c, 0, 74, 64
1, 48228, Note_on_c, 0, 76, 67
1, 48315, Note_on_c, 0, 78, 79
1, 48349, Note_off_c, 0, 76, 64
1, 48406, Note_on_c, 0, 80, 81
1, 48434, Note_off_c, 0, 78, 64
1, 48484, Note_on_c, 0, 81, 75
1, 48521, Note_off_c, 0, 80, 64
1, 48585, Note_on_c, 0, 83, 103
1, 48608, Note_off_c, 0, 81, 64
1, 48675, Note_on_c, 0, 56, 65
1, 48755, Note_off_c, 0, 56, 64
1, 48767, Note_on_c, 0, 59, 57
1, 48852, Note_on_c, 0, 57, 57
1, 48860, Note_off_c, 0, 59, 64
1, 48928, Note_on_c, 0, 56, 65
1, 48947, Note_off_c, 0, 57, 64
1, 49019, Note_off_c, 0, 56, 64
1, 49036, Note_on_c, 0, 53, 85
1, 49078, Note_off_c, 0, 53, 64
1, 49087, Note_off_c, 0, 83, 64
1, 49117, Note_on_c, 0, 52, 74
1, 49189, Note_on_c, 0, 50, 74
1, 49189, Note_off_c, 0, 52, 64
1, 49290, Note_off_c, 0, 50, 64
1, 49290, Note_on_c, 0, 48, 59
1, 49384, Note_on_c, 0, 81, 67
1, 49474, Note_off_c, 0, 81, 64
1, 49483, Note_on_c, 0, 88, 82
1, 49576, Note_on_c, 0, 86, 80
1, 49610, Control_c, 0, 64, 127
1, 49621, Note_off_c, 0, 48, 64
1, 49624, Note_off_c, 0, 88, 64
1, 49654, Note_on_c, 0, 84, 81
1, 49682, Control_c, 0, 64, 0
1, 49694, Note_off_c, 0, 86, 64
1, 49735, Note_on_c, 0, 83, 100
1, 49775, Note_off_c, 0, 84, 64
1, 49822, Note_on_c, 0, 81, 72
1, 49838, Note_off_c, 0, 83, 64
1, 49903, Note_on_c, 0, 79, 80
1, 49925, Note_off_c, 0, 81, 64
1, 50001, Note_on_c, 0, 77, 71
1, 50023, Note_off_c, 0, 79, 64
1, 50098, Note_on_c, 0, 62, 57
1, 50184, Note_on_c, 0, 69, 55
1, 50184, Note_off_c, 0, 62, 64
1, 50251, Note_off_c, 0, 69, 64
1, 50273, Note_on_c, 0, 67, 56
1, 50360, Note_on_c, 0, 65, 59
1, 50363, Note_off_c, 0, 67, 64
1, 50377, Control_c, 0, 64, 127
1, 50399, Note_off_c, 0, 65, 64
1, 50446, Note_on_c, 0, 64, 57
1, 50493, Note_off_c, 0, 64, 64
1, 50521, Control_c, 0, 64, 0
1, 50521, Note_on_c, 0, 62, 65
1, 50560, Note_off_c, 0, 77, 64
1, 50604, Note_off_c, 0, 62, 64
1, 50604, Note_on_c, 0, 60, 63
1, 50702, Note_off_c, 0, 60, 64
1, 50716, Note_on_c, 0, 59, 47
1, 50789, Note_on_c, 0, 79, 63
1, 50852, Note_off_c, 0, 79, 64
1, 50894, Note_on_c, 0, 86, 62
1, 50962, Note_off_c, 0, 59, 64
1, 50980, Note_on_c, 0, 84, 68
1, 51006, Note_off_c, 0, 86, 64
1, 51072, Note_on_c, 0, 83, 72
1, 51089, Note_off_c, 0, 84, 64
1, 51139, Note_off_c, 0, 83, 64
1, 51146, Note_on_c, 0, 81, 59
1, 51215, Note_off_c, 0, 81, 64
1, 51234, Note_on_c, 0, 79, 62
1, 51324, Note_on_c, 0, 77, 49
1, 51335, Note_off_c, 0, 79, 64
1, 51371, Note_off_c, 0, 77, 64
1, 51421, Note_on_c, 0, 76, 34
1, 51507, Note_on_c, 0, 60, 37
1, 51593, Note_off_c, 0, 60, 64
1, 51596, Note_on_c, 0, 67, 44
1, 51660, Note_off_c, 0, 67, 64
1, 51660, Control_c, 0, 64, 127
1, 51685, Note_on_c, 0, 65, 41
1, 51741, Note_off_c, 0, 65, 64
1, 51772, Note_on_c, 0, 64, 49
1, 51813, Note_off_c, 0, 64, 64
1, 51853, Note_on_c, 0, 62, 52
1, 51905, Note_off_c, 0, 62, 64
1, 51911, Control_c, 0, 64, 0
1, 51939, Note_on_c, 0, 60, 55
1, 52014, Note_off_c, 0, 60, 64
1, 52014, Note_on_c, 0, 59, 47
1, 52028, Note_off_c, 0, 76, 64
1, 52121, Note_off_c, 0, 59, 64
1, 52134, Note_on_c, 0, 57, 34
1, 52231, Note_on_c, 0, 77, 44
1, 52284, Note_off_c, 0, 77, 64
1, 52321, Note_on_c, 0, 84, 64
1, 52360, Note_off_c, 0, 57, 64
1, 52413, Control_c, 0, 64, 127
1, 52413, Note_on_c, 0, 83, 76
1, 52429, Note_off_c, 0, 84, 64
1, 52490, Note_on_c, 0, 81, 54
1, 52494, Note_off_c, 0, 83, 64
1, 52522, Control_c, 0, 64, 0
1, 52577, Note_on_c, 0, 79, 70
1, 52585, Note_off_c, 0, 81, 64
1, 52664, Note_on_c, 0, 77, 54
1, 52667, Note_off_c, 0, 79, 64
1, 52756, Note_on_c, 0, 76, 40
1, 52774, Note_off_c, 0, 77, 64
1, 52836, Note_off_c, 0, 76, 64
1, 52861, Note_on_c, 0, 74, 43
1, 52973, Note_on_c, 0, 59, 16
1, 53031, Note_off_c, 0, 59, 64
1, 53045, Note_on_c, 0, 65, 39
1, 53106, Note_off_c, 0, 65, 64
1, 53137, Note_on_c, 0, 64, 41
1, 53190, Note_off_c, 0, 64, 64
1, 53206, Note_on_c, 0, 62, 47
1, 53242, Control_c, 0, 64, 127
1, 53248, Note_off_c, 0, 62, 64
1, 53298, Note_on_c, 0, 60, 42
1, 53352, Note_off_c, 0, 60, 64
1, 53383, Note_on_c, 0, 59, 45
1, 53423, Note_off_c, 0, 74, 64
1, 53457, Control_c, 0, 64, 0
1, 53460, Note_off_c, 0, 59, 64
1, 53468, Note_on_c, 0, 57, 35
1, 53569, Note_off_c, 0, 57, 64
1, 53577, Note_on_c, 0, 56, 39
1, 53695, Note_on_c, 0, 76, 34
1, 53759, Note_off_c, 0, 76, 64
1, 53780, Note_on_c, 0, 83, 67
1, 53844, Note_off_c, 0, 83, 64
1, 53858, Note_off_c, 0, 56, 64
1, 53864, Note_on_c, 0, 81, 51
1, 53926, Note_off_c, 0, 81, 64
1, 53942, Note_on_c, 0, 80, 56
1, 54029, Note_on_c, 0, 77, 54
1, 54067, Note_off_c, 0, 80, 64
1, 54104, Note_off_c, 0, 77, 64
1, 54125, Note_on_c, 0, 76, 38
1, 54215, Note_on_c, 0, 74, 36
1, 54232, Note_off_c, 0, 76, 64
1, 54276, Note_off_c, 0, 74, 64
1, 54326, Note_on_c, 0, 72, 35
1, 54402, Note_on_c, 0, 57, 28
1, 54468, Note_off_c, 0, 57, 64
1, 54500, Note_on_c, 0, 60, 41
1, 54582, Note_off_c, 0, 60, 64
1, 54594, Note_on_c, 0, 59, 45
1, 54594, Control_c, 0, 64, 127
1, 54666, Note_off_c, 0, 59, 64
1, 54681, Note_on_c, 0, 57, 46
1, 54730, Note_off_c, 0, 57, 64
1, 54773, Note_on_c, 0, 55, 59
1, 54827, Note_off_c, 0, 55, 64
1, 54862, Note_on_c, 0, 53, 77
1, 54911, Note_off_c, 0, 72, 64
1, 54922, Note_off_c, 0, 53, 64
1, 54953, Note_on_c, 0, 52, 52
1, 54990, Control_c, 0, 64, 0
1, 55043, Note_off_c, 0, 52, 64
1, 55071, Note_on_c, 0, 50, 61
1, 55195, Note_on_c, 0, 70, 41
1, 55270, Note_off_c, 0, 70, 64
1, 55291, Note_on_c, 0, 74, 55
1, 55351, Note_off_c, 0, 74, 64
1, 55374, Note_on_c, 0, 72, 52
1, 55452, Note_off_c, 0, 72, 64
1, 55452, Note_on_c, 0, 70, 54
1, 55544, Note_on_c, 0, 69, 54
1, 55580, Note_off_c, 0, 70, 64
1, 55633, Note_off_c, 0, 69, 64
1, 55636, Note_on_c, 0, 67, 57
1, 55731, Note_off_c, 0, 67, 64
1, 55731, Note_on_c, 0, 65, 52
1, 55812, Note_off_c, 0, 65, 64
1, 55836, Note_on_c, 0, 58, 21
1, 55836, Note_on_c, 0, 64, 55
1, 55844, Note_off_c, 0, 50, 64
1, 55858, Note_on_c, 0, 48, 26
1, 55872, Note_on_c, 0, 55, 32
1, 55942, Note_off_c, 0, 64, 64
1, 55942, Note_on_c, 0, 65, 47
1, 56046, Note_off_c, 0, 65, 64
1, 56051, Note_on_c, 0, 67, 56
1, 56145, Note_off_c, 0, 67, 64
1, 56154, Note_on_c, 0, 69, 44
1, 56248, Note_off_c, 0, 69, 64
1, 56248, Note_on_c, 0, 70, 43
1, 56348, Note_off_c, 0, 55, 64
1, 56352, Note_off_c, 0, 70, 64
1, 56360, Note_on_c, 0, 72, 42
1, 56360, Note_off_c, 0, 48, 64
1, 56369, Control_c, 0, 64, 127
1, 56415, Note_off_c, 0, 72, 64
1, 56430, Note_off_c, 0, 58, 64
1, 56454, Note_on_c, 0, 74, 47
1, 56507, Note_off_c, 0, 74, 64
1, 56550, Note_on_c, 0, 76, 44
1, 56728, Note_on_c, 0, 77, 61
1, 56739, Note_off_c, 0, 76, 64
1, 56764, Control_c, 0, 64, 0
1, 56775, Note_on_c, 0, 65, 14
1, 56986, Note_on_c, 0, 72, 28
1, 57148, Note_off_c, 0, 72, 64
1, 57148, Control_c, 0, 64, 127
1, 57173, Note_on_c, 0, 69, 23
1, 57246, Note_off_c, 0, 65, 64
1, 57358, Note_off_c, 0, 69, 64
1, 57358, Note_on_c, 0, 72, 32
1, 57444, Note_off_c, 0, 72, 64
1, 57524, Note_on_c, 0, 81, 55
1, 57561, Note_on_c, 0, 65, 27
1, 57586, Note_off_c, 0, 77, 64
1, 57603, Control_c, 0, 64, 0
1, 57733, Note_on_c, 0, 72, 29
1, 57822, Note_off_c, 0, 72, 64
1, 57844, Control_c, 0, 64, 127
1, 57900, Note_on_c, 0, 84, 79
1, 57918, Note_on_c, 0, 69, 11
1, 57928, Control_c, 0, 64, 0
1, 57953, Note_off_c, 0, 81, 64
1, 58081, Note_on_c, 0, 72, 33
1, 58143, Note_off_c, 0, 69, 64
1, 58179, Control_c, 0, 64, 127
1, 58196, Note_off_c, 0, 72, 64
1, 58212, Note_off_c, 0, 65, 64
1, 58263, Note_on_c, 0, 76, 51
1, 58296, Note_on_c, 0, 67, 10
1, 58310, Control_c, 0, 64, 0
1, 58366, Note_off_c, 0, 84, 64
1, 58455, Note_on_c, 0, 72, 30
1, 58571, Note_off_c, 0, 72, 64
1, 58625, Note_on_c, 0, 70, 25
1, 58694, Control_c, 0, 64, 127
1, 58829, Note_off_c, 0, 76, 64
1, 58829, Note_on_c, 0, 77, 33
1, 58836, Note_on_c, 0, 72, 19
1, 58876, Note_off_c, 0, 77, 64
1, 58886, Control_c, 0, 64, 0
1, 58911, Note_on_c, 0, 79, 41
1, 58920, Note_off_c, 0, 72, 64
1, 58967, Note_off_c, 0, 67, 64
1, 58978, Note_off_c, 0, 79, 64
1, 59010, Note_on_c, 0, 77, 39
1, 59017, Note_off_c, 0, 70, 64
1, 59017, Note_on_c, 0, 65, 16
1, 59185, Note_on_c, 0, 72, 30
1, 59326, Note_off_c, 0, 72, 64
1, 59380, Note_on_c, 0, 69, 21
1, 59400, Control_c, 0, 64, 127
1, 59477, Note_off_c, 0, 65, 64
1, 59477, Note_off_c, 0, 77, 64
1, 59561, Note_on_c, 0, 72, 33
1, 59589, Note_off_c, 0, 69, 64
1, 59731, Note_off_c, 0, 72, 64
1, 59756, Note_on_c, 0, 86, 63
1, 59784, Note_on_c, 0, 65, 23
1, 59881, Control_c, 0, 64, 0
1, 59948, Note_on_c, 0, 74, 34
1, 60098, Note_off_c, 0, 74, 64
1, 60123, Note_on_c, 0, 70, 30
1, 60132, Control_c, 0, 64, 127
1, 60235, Note_off_c, 0, 65, 64
1, 60319, Note_on_c, 0, 74, 44
1, 60344, Note_off_c, 0, 70, 64
1, 60452, Note_off_c, 0, 74, 64
1, 60492, Note_on_c, 0, 84, 73
1, 60527, Note_on_c, 0, 65, 24
1, 60570, Note_off_c, 0, 86, 64
1, 60600, Control_c, 0, 64, 0
1, 60681, Note_on_c, 0, 72, 32
1, 60804, Control_c, 0, 64, 127
1, 60811, Note_off_c, 0, 72, 64
1, 60861, Note_on_c, 0, 89, 69
1, 60861, Note_on_c, 0, 69, 26
1, 60895, Note_off_c, 0, 84, 64
1, 60935, Control_c, 0, 64, 0
1, 61057, Note_on_c, 0, 72, 33
1, 61084, Note_off_c, 0, 69, 64
1, 61140, Control_c, 0, 64, 127
1, 61180, Note_off_c, 0, 72, 64
1, 61190, Note_off_c, 0, 65, 64
1, 61232, Note_on_c, 0, 84, 78
1, 61263, Note_off_c, 0, 89, 64
1, 61263, Note_on_c, 0, 64, 25
1, 61403, Control_c, 0, 64, 0
1, 61432, Note_on_c, 0, 72, 29
1, 61510, Note_off_c, 0, 84, 64
1, 61545, Note_off_c, 0, 72, 64
1, 61570, Control_c, 0, 64, 127
1, 61575, Note_on_c, 0, 82, 50
1, 61605, Note_on_c, 0, 67, 24
1, 61619, Note_off_c, 0, 82, 64
1, 61647, Note_on_c, 0, 84, 48
1, 61683, Note_on_c, 0, 82, 35
1, 61686, Note_off_c, 0, 84, 64
1, 61736, Note_off_c, 0, 82, 64
1, 61744, Note_off_c, 0, 67, 64
1, 61744, Note_on_c, 0, 84, 56
1, 61772, Note_on_c, 0, 72, 26
1, 61797, Note_on_c, 0, 82, 44
1, 61806, Note_off_c, 0, 84, 64
1, 61850, Note_off_c, 0, 72, 64
1, 61868, Note_off_c, 0, 82, 64
1, 61909, Note_on_c, 0, 82, 24
1, 61918, Control_c, 0, 64, 0
1, 61939, Note_off_c, 0, 64, 64
1, 61959, Note_on_c, 0, 81, 27
1, 61965, Note_off_c, 0, 82, 64
1, 61985, Note_on_c, 0, 65, 19
1, 62135, Note_on_c, 0, 72, 29
1, 62194, Control_c, 0, 64, 127
1, 62208, Note_off_c, 0, 72, 64
1, 62297, Note_on_c, 0, 69, 24
1, 62383, Note_off_c, 0, 81, 64
1, 62396, Note_off_c, 0, 69, 64
1, 62430, Note_off_c, 0, 65, 64
1, 62481, Note_on_c, 0, 72, 35
1, 62617, Note_off_c, 0, 72, 64
1, 62625, Control_c, 0, 64, 0
1, 62658, Note_on_c, 0, 74, 56
1, 62667, Note_on_c, 0, 70, 26
1, 62795, Note_off_c, 0, 70, 64
1, 62853, Control_c, 0, 64, 127
1, 62887, Note_off_c, 0, 74, 64
1, 62898, Note_on_c, 0, 76, 41
1, 62943, Note_off_c, 0, 76, 64
1, 62962, Note_on_c, 0, 77, 56
1, 62995, Note_off_c, 0, 77, 64
1, 62995, Control_c, 0, 64, 0
1, 63037, Note_on_c, 0, 79, 67
1, 63090, Note_off_c, 0, 79, 64
1, 63110, Note_on_c, 0, 81, 59
1, 63165, Note_off_c, 0, 81, 64
1, 63174, Note_on_c, 0, 82, 54
1, 63263, Note_on_c, 0, 84, 65
1, 63280, Note_off_c, 0, 82, 64
1, 63347, Note_on_c, 0, 86, 69
1, 63360, Note_off_c, 0, 84, 64
1, 63425, Note_on_c, 0, 84, 51
1, 63466, Note_off_c, 0, 86, 64
1, 63503, Note_on_c, 0, 82, 58
1, 63525, Note_off_c, 0, 84, 64
1, 63597, Note_on_c, 0, 81, 54
1, 63603, Note_off_c, 0, 82, 64
1, 63645, Note_off_c, 0, 81, 64
1, 63672, Note_on_c, 0, 79, 65
1, 63672, Note_on_c, 0, 58, 22
1, 63675, Note_on_c, 0, 65, 26
1, 63723, Note_off_c, 0, 79, 64
1, 63733, Note_off_c, 0, 65, 64
1, 63737, Note_off_c, 0, 58, 64
1, 63759, Note_on_c, 0, 77, 49
1, 63821, Note_off_c, 0, 77, 64
1, 63829, Note_on_c, 0, 76, 37
1, 63890, Note_off_c, 0, 76, 64
1, 63907, Note_on_c, 0, 74, 51
1, 63959, Note_off_c, 0, 74, 64
1, 63999, Note_on_c, 0, 72, 50
1, 64013, Note_on_c, 0, 65, 24
1, 64018, Note_on_c, 0, 57, 31
1, 64147, Control_c, 0, 64, 127
1, 64171, Note_off_c, 0, 72, 64
1, 64183, Note_off_c, 0, 65, 64
1, 64191, Note_on_c, 0, 74, 45
1, 64210, Note_off_c, 0, 57, 64
1, 64241, Note_off_c, 0, 74, 64
1, 64269, Note_on_c, 0, 76, 47
1, 64291, Control_c, 0, 64, 0
1, 64310, Note_off_c, 0, 76, 64
1, 64346, Note_on_c, 0, 77, 57
1, 64389, Note_off_c, 0, 77, 64
1, 64425, Note_on_c, 0, 79, 68
1, 64498, Note_off_c, 0, 79, 64
1, 64506, Note_on_c, 0, 81, 51
1, 64569, Note_off_c, 0, 81, 64
1, 64589, Note_on_c, 0, 82, 48
1, 64678, Note_on_c, 0, 84, 61
1, 64682, Note_off_c, 0, 82, 64
1, 64761, Note_on_c, 0, 82, 39
1, 64776, Note_off_c, 0, 84, 64
1, 64849, Note_on_c, 0, 81, 42
1, 64870, Note_off_c, 0, 82, 64
1, 64904, Note_off_c, 0, 81, 64
1, 64934, Note_on_c, 0, 79, 48
1, 64981, Note_off_c, 0, 79, 64
1, 64998, Note_on_c, 0, 65, 36
1, 65012, Note_on_c, 0, 57, 28
1, 65012, Note_on_c, 0, 77, 41
1, 65051, Note_off_c, 0, 65, 64
1, 65071, Note_off_c, 0, 57, 64
1, 65079, Note_off_c, 0, 77, 64
1, 65096, Note_on_c, 0, 76, 37
1, 65151, Note_off_c, 0, 76, 64
1, 65169, Note_on_c, 0, 74, 51
1, 65215, Note_off_c, 0, 74, 64
1, 65246, Note_on_c, 0, 72, 44
1, 65347, Note_on_c, 0, 70, 48
1, 65353, Note_off_c, 0, 72, 64
1, 65366, Note_on_c, 0, 65, 25
1, 65385, Note_on_c, 0, 55, 24
1, 65527, Control_c, 0, 64, 127
1, 65531, Note_off_c, 0, 70, 64
1, 65536, Note_on_c, 0, 72, 47
1, 65553, Note_off_c, 0, 65, 64
1, 65566, Note_off_c, 0, 55, 64
1, 65586, Note_off_c, 0, 72, 64
1, 65620, Note_on_c, 0, 74, 64
1, 65620, Control_c, 0, 64, 0
1, 65665, Note_off_c, 0, 74, 64
1, 65692, Note_on_c, 0, 76, 61
1, 65742, Note_off_c, 0, 76, 64
1, 65770, Note_on_c, 0, 77, 67
1, 65815, Note_off_c, 0, 77, 64
1, 65848, Note_on_c, 0, 79, 67
1, 65906, Note_off_c, 0, 79, 64
1, 65921, Note_on_c, 0, 81, 69
1, 66002, Note_off_c, 0, 81, 64
1, 66013, Note_on_c, 0, 82, 56
1, 66093, Note_on_c, 0, 81, 50
1, 66121, Note_off_c, 0, 82, 64
1, 66155, Note_off_c, 0, 81, 64
1, 66176, Note_on_c, 0, 79, 64
1, 66219, Note_off_c, 0, 79, 64
1, 66260, Note_on_c, 0, 77, 56
1, 66338, Note_off_c, 0, 77, 64
1, 66341, Note_on_c, 0, 55, 33
1, 66341, Note_on_c, 0, 64, 31
1, 66351, Note_on_c, 0, 76, 52
1, 66397, Note_off_c, 0, 55, 64
1, 66397, Note_off_c, 0, 76, 64
1, 66416, Note_off_c, 0, 64, 64
1, 66420, Note_on_c, 0, 74, 53
1, 66456, Note_off_c, 0, 74, 64
1, 66492, Note_on_c, 0, 72, 48
1, 66548, Note_off_c, 0, 72, 64
1, 66580, Note_on_c, 0, 70, 34
1, 66664, Note_off_c, 0, 70, 64
1, 66672, Note_on_c, 0, 69, 45
1, 66687, Note_on_c, 0, 65, 28
1, 66706, Note_on_c, 0, 53, 40
1, 66842, Note_off_c, 0, 69, 64
1, 66848, Note_on_c, 0, 70, 39
1, 66881, Note_off_c, 0, 65, 64
1, 66881, Control_c, 0, 64, 127
1, 66888, Note_off_c, 0, 53, 64
1, 66916, Note_off_c, 0, 70, 64
1, 66929, Note_on_c, 0, 72, 57
1, 66968, Note_off_c, 0, 72, 64
1, 67010, Note_on_c, 0, 74, 58
1, 67024, Control_c, 0, 64, 0
1, 67048, Note_off_c, 0, 74, 64
1, 67088, Note_on_c, 0, 76, 47
1, 67147, Note_off_c, 0, 76, 64
1, 67158, Note_on_c, 0, 77, 49
1, 67239, Note_on_c, 0, 79, 65
1, 67252, Note_off_c, 0, 77, 64
1, 67321, Note_on_c, 0, 81, 60
1, 67321, Note_off_c, 0, 79, 64
1, 67399, Note_on_c, 0, 79, 60
1, 67427, Note_off_c, 0, 81, 64
1, 67484, Note_on_c, 0, 77, 62
1, 67500, Note_off_c, 0, 79, 64
1, 67545, Note_off_c, 0, 77, 64
1, 67564, Note_on_c, 0, 76, 52
1, 67612, Note_off_c, 0, 76, 64
1, 67642, Note_on_c, 0, 74, 55
1, 67701, Note_on_c, 0, 72, 62
1, 67720, Note_off_c, 0, 74, 64
1, 67764, Note_off_c, 0, 72, 64
1, 67789, Note_on_c, 0, 70, 58
1, 67860, Note_off_c, 0, 70, 64
1, 67865, Note_on_c, 0, 69, 52
1, 67941, Note_off_c, 0, 69, 64
1, 67965, Note_on_c, 0, 81, 87
1, 67969, Note_on_c, 0, 53, 94
1, 68102, Control_c, 0, 64, 127
1, 68129, Note_on_c, 0, 55, 67
1, 68135, Note_off_c, 0, 53, 64
1, 68202, Note_on_c, 0, 57, 59
1, 68221, Note_off_c, 0, 55, 64
1, 68221, Control_c, 0, 64, 0
1, 68274, Note_on_c, 0, 58, 59
1, 68274, Note_off_c, 0, 57, 64
1, 68296, Note_off_c, 0, 81, 64
1, 68353, Note_on_c, 0, 60, 70
1, 68361, Note_off_c, 0, 58, 64
1, 68431, Note_off_c, 0, 60, 64
1, 68431, Note_on_c, 0, 62, 75
1, 68520, Note_on_c, 0, 64, 69
1, 68525, Note_off_c, 0, 62, 64
1, 68565, Note_off_c, 0, 64, 64
1, 68590, Note_on_c, 0, 65, 67
1, 68653, Note_off_c, 0, 65, 64
1, 68691, Note_on_c, 0, 64, 58
1, 68746, Note_off_c, 0, 64, 64
1, 68756, Note_on_c, 0, 62, 57
1, 68793, Note_off_c, 0, 62, 64
1, 68835, Note_on_c, 0, 60, 58
1, 68898, Note_off_c, 0, 60, 64
1, 68920, Note_on_c, 0, 81, 65
1, 68920, Note_on_c, 0, 58, 55
1, 68927, Note_on_c, 0, 72, 42
1, 68982, Note_off_c, 0, 58, 64
1, 68993, Note_off_c, 0, 72, 64
1, 68998, Note_on_c, 0, 57, 48
1, 69043, Note_off_c, 0, 57, 64
1, 69052, Note_off_c, 0, 81, 64
1, 69068, Note_on_c, 0, 55, 69
1, 69115, Note_off_c, 0, 55, 64
1, 69158, Note_on_c, 0, 53, 61
1, 69211, Note_off_c, 0, 53, 64
1, 69236, Note_on_c, 0, 52, 88
1, 69250, Note_on_c, 0, 79, 81
1, 69263, Note_on_c, 0, 72, 49
1, 69447, Note_off_c, 0, 52, 64
1, 69467, Note_on_c, 0, 53, 84
1, 69505, Note_off_c, 0, 53, 64
1, 69517, Control_c, 0, 64, 127
1, 69539, Note_on_c, 0, 55, 69
1, 69603, Note_off_c, 0, 55, 64
1, 69629, Note_on_c, 0, 57, 58
1, 69714, Note_on_c, 0, 59, 63
1, 69724, Note_off_c, 0, 57, 64
1, 69732, Control_c, 0, 64, 0
1, 69753, Note_off_c, 0, 79, 64
1, 69768, Note_off_c, 0, 72, 64
1, 69790, Note_off_c, 0, 59, 64
1, 69790, Note_on_c, 0, 60, 71
1, 69835, Note_off_c, 0, 60, 64
1, 69866, Note_on_c, 0, 62, 63
1, 69907, Note_off_c, 0, 62, 64
1, 69941, Note_on_c, 0, 64, 79
1, 69990, Note_off_c, 0, 64, 64
1, 70033, Note_on_c, 0, 62, 64
1, 70090, Note_off_c, 0, 62, 64
1, 70099, Note_on_c, 0, 60, 65
1, 70182, Note_on_c, 0, 59, 70
1, 70189, Note_off_c, 0, 60, 64
1, 70224, Note_off_c, 0, 59, 64
1, 70275, Note_on_c, 0, 79, 77
1, 70275, Note_on_c, 0, 57, 64
1, 70275, Note_on_c, 0, 72, 55
1, 70358, Note_off_c, 0, 57, 64
1, 70358, Note_on_c, 0, 55, 77
1, 70377, Note_off_c, 0, 72, 64
1, 70439, Note_off_c, 0, 55, 64
1, 70439, Note_on_c, 0, 53, 88
1, 70453, Note_off_c, 0, 79, 64
1, 70526, Note_off_c, 0, 53, 64
1, 70534, Note_on_c, 0, 52, 68
1, 70593, Note_off_c, 0, 52, 64
1, 70617, Note_on_c, 0, 72, 64
1, 70617, Note_on_c, 0, 77, 79
1, 70617, Note_on_c, 0, 50, 72
1, 70798, Note_off_c, 0, 50, 64
1, 70798, Note_on_c, 0, 52, 70
1, 70871, Note_on_c, 0, 53, 90
1, 70888, Note_off_c, 0, 52, 64
1, 70940, Note_off_c, 0, 53, 64
1, 70946, Note_on_c, 0, 55, 70
1, 70955, Note_off_c, 0, 77, 64
1, 70988, Note_off_c, 0, 55, 64
1, 71007, Note_off_c, 0, 72, 64
1, 71016, Note_on_c, 0, 57, 65
1, 71086, Note_off_c, 0, 57, 64
1, 71094, Note_on_c, 0, 59, 68
1, 71163, Note_off_c, 0, 59, 64
1, 71171, Note_on_c, 0, 60, 69
1, 71245, Note_off_c, 0, 60, 64
1, 71245, Note_on_c, 0, 62, 70
1, 71334, Note_off_c, 0, 62, 64
1, 71334, Note_on_c, 0, 60, 51
1, 71417, Note_on_c, 0, 59, 59
1, 71423, Note_off_c, 0, 60, 64
1, 71459, Note_off_c, 0, 59, 64
1, 71494, Note_on_c, 0, 57, 65
1, 71551, Note_off_c, 0, 57, 64
1, 71593, Note_on_c, 0, 55, 71
1, 71593, Note_on_c, 0, 77, 45
1, 71596, Note_on_c, 0, 71, 44
1, 71667, Note_off_c, 0, 77, 64
1, 71682, Note_off_c, 0, 55, 64
1, 71682, Note_off_c, 0, 71, 64
1, 71689, Note_on_c, 0, 53, 70
1, 71760, Note_off_c, 0, 53, 64
1, 71770, Control_c, 0, 64, 127
1, 71770, Note_on_c, 0, 52, 51
1, 71818, Note_off_c, 0, 52, 64
1, 71845, Note_on_c, 0, 50, 62
1, 71882, Note_off_c, 0, 50, 64
1, 71938, Control_c, 0, 64, 0
1, 71952, Note_on_c, 0, 72, 50
1, 71952, Note_on_c, 0, 76, 53
1, 71960, Note_on_c, 0, 48, 67
1, 72149, Note_on_c, 0, 50, 64
1, 72161, Note_off_c, 0, 48, 64
1, 72203, Note_on_c, 0, 52, 81
1, 72210, Note_off_c, 0, 50, 64
1, 72274, Note_off_c, 0, 72, 64
1, 72297, Note_on_c, 0, 53, 86
1, 72297, Note_off_c, 0, 52, 64
1, 72330, Note_off_c, 0, 76, 64
1, 72355, Note_off_c, 0, 53, 64
1, 72366, Note_on_c, 0, 55, 72
1, 72437, Note_off_c, 0, 55, 64
1, 72445, Note_on_c, 0, 57, 65
1, 72529, Note_on_c, 0, 59, 70
1, 72543, Note_off_c, 0, 57, 64
1, 72603, Note_off_c, 0, 59, 64
1, 72603, Note_on_c, 0, 60, 70
1, 72687, Note_on_c, 0, 59, 59
1, 72703, Note_off_c, 0, 60, 64
1, 72768, Note_on_c, 0, 57, 68
1, 72782, Note_off_c, 0, 59, 64
1, 72825, Note_off_c, 0, 57, 64
1, 72860, Note_on_c, 0, 55, 60
1, 72913, Note_off_c, 0, 55, 64
1, 72938, Note_on_c, 0, 53, 85
1, 72958, Note_on_c, 0, 72, 50
1, 72969, Note_on_c, 0, 76, 40
1, 72983, Note_off_c, 0, 53, 64
1, 73024, Note_off_c, 0, 72, 64
1, 73033, Note_on_c, 0, 52, 41
1, 73088, Note_off_c, 0, 52, 64
1, 73108, Note_on_c, 0, 50, 63
1, 73153, Note_off_c, 0, 76, 64
1, 73164, Note_off_c, 0, 50, 64
1, 73181, Note_on_c, 0, 48, 51
1, 73266, Note_off_c, 0, 48, 64
1, 73272, Note_on_c, 0, 74, 63
1, 73286, Note_on_c, 0, 57, 40
1, 73297, Note_on_c, 0, 53, 70
1, 73337, Note_off_c, 0, 74, 64
1, 73367, Note_on_c, 0, 62, 54
1, 73415, Note_off_c, 0, 62, 64
1, 73453, Note_on_c, 0, 64, 57
1, 73512, Note_off_c, 0, 64, 64
1, 73523, Note_on_c, 0, 65, 60
1, 73575, Note_off_c, 0, 65, 64
1, 73612, Note_on_c, 0, 67, 60
1, 73659, Note_off_c, 0, 67, 64
1, 73688, Note_on_c, 0, 69, 57
1, 73757, Note_off_c, 0, 69, 64
1, 73771, Note_on_c, 0, 71, 58
1, 73829, Note_off_c, 0, 71, 64
1, 73858, Note_on_c, 0, 73, 50
1, 73936, Note_on_c, 0, 74, 80
1, 73961, Note_off_c, 0, 73, 64
1, 74019, Note_on_c, 0, 69, 64
1, 74033, Note_off_c, 0, 74, 64
1, 74092, Note_on_c, 0, 71, 72
1, 74117, Note_off_c, 0, 69, 64
1, 74166, Note_on_c, 0, 73, 68
1, 74177, Note_off_c, 0, 71, 64
1, 74247, Note_off_c, 0, 73, 64
1, 74247, Note_on_c, 0, 74, 84
1, 74319, Note_off_c, 0, 74, 64
1, 74323, Note_on_c, 0, 76, 81
1, 74401, Note_on_c, 0, 77, 87
1, 74425, Note_off_c, 0, 76, 64
1, 74447, Note_off_c, 0, 53, 64
1, 74479, Note_off_c, 0, 77, 64
1, 74486, Note_on_c, 0, 79, 88
1, 74498, Note_off_c, 0, 57, 64
1, 74571, Note_on_c, 0, 81, 89
1, 74574, Note_off_c, 0, 79, 64
1, 74574, Note_on_c, 0, 53, 92
1, 74660, Note_on_c, 0, 83, 100
1, 74698, Note_off_c, 0, 81, 64
1, 74738, Note_on_c, 0, 84, 88
1, 74746, Note_off_c, 0, 83, 64
1, 74827, Note_on_c, 0, 83, 91
1, 74865, Note_off_c, 0, 84, 64
1, 74915, Note_on_c, 0, 81, 75
1, 74932, Note_off_c, 0, 83, 64
1, 74994, Note_on_c, 0, 79, 75
1, 75010, Note_off_c, 0, 81, 64
1, 75024, Note_off_c, 0, 53, 64
1, 75047, Note_off_c, 0, 79, 64
1, 75069, Note_on_c, 0, 77, 66
1, 75091, Note_on_c, 0, 55, 64
1, 75147, Note_off_c, 0, 55, 64
1, 75150, Note_off_c, 0, 77, 64
1, 75150, Note_on_c, 0, 76, 66
1, 75189, Note_off_c, 0, 76, 64
1, 75238, Note_on_c, 0, 77, 71
1, 75244, Note_on_c, 0, 57, 76
1, 75323, Note_on_c, 0, 79, 85
1, 75372, Note_off_c, 0, 77, 64
1, 75409, Note_on_c, 0, 81, 84
1, 75433, Note_off_c, 0, 79, 64
1, 75493, Note_on_c, 0, 79, 72
1, 75546, Note_off_c, 0, 81, 64
1, 75579, Note_on_c, 0, 77, 73
1, 75603, Note_off_c, 0, 79, 64
1, 75663, Note_on_c, 0, 76, 61
1, 75671, Note_off_c, 0, 77, 64
1, 75687, Note_off_c, 0, 57, 64
1, 75716, Note_off_c, 0, 76, 64
1, 75743, Note_on_c, 0, 54, 70
1, 75752, Note_on_c, 0, 74, 61
1, 75782, Note_off_c, 0, 54, 64
1, 75802, Note_off_c, 0, 74, 64
1, 75824, Note_on_c, 0, 72, 66
1, 75865, Note_off_c, 0, 72, 64
1, 75893, Note_on_c, 0, 43, 71
1, 75907, Note_on_c, 0, 71, 80
1, 75988, Note_on_c, 0, 47, 66
1, 75999, Note_off_c, 0, 43, 64
1, 76033, Note_off_c, 0, 71, 64
1, 76071, Note_on_c, 0, 50, 70
1, 76071, Note_on_c, 0, 79, 84
1, 76071, Note_off_c, 0, 47, 64
1, 76113, Note_off_c, 0, 79, 64
1, 76117, Note_off_c, 0, 50, 64
1, 76152, Note_on_c, 0, 55, 56
1, 76213, Note_off_c, 0, 55, 64
1, 76236, Note_on_c, 0, 76, 59
1, 76247, Note_on_c, 0, 43, 60
1, 76273, Note_off_c, 0, 76, 64
1, 76298, Note_off_c, 0, 43, 64
1, 76317, Note_on_c, 0, 48, 62
1, 76401, Note_on_c, 0, 72, 69
1, 76412, Note_off_c, 0, 48, 64
1, 76412, Note_on_c, 0, 52, 74
1, 76445, Note_off_c, 0, 72, 64
1, 76475, Note_off_c, 0, 52, 64
1, 76490, Note_on_c, 0, 55, 63
1, 76548, Note_off_c, 0, 55, 64
1, 76573, Note_on_c, 0, 74, 91
1, 76578, Note_on_c, 0, 43, 73
1, 76651, Note_on_c, 0, 47, 68
1, 76674, Note_off_c, 0, 43, 64
1, 76727, Note_on_c, 0, 50, 75
1, 76744, Note_off_c, 0, 74, 64
1, 76744, Note_on_c, 0, 79, 91
1, 76748, Note_off_c, 0, 47, 64
1, 76798, Note_off_c, 0, 50, 64
1, 76798, Note_off_c, 0, 79, 64
1, 76798, Note_on_c, 0, 55, 62
1, 76874, Note_off_c, 0, 55, 64
1, 76900, Note_on_c, 0, 43, 70
1, 76908, Note_on_c, 0, 76, 76
1, 76970, Note_on_c, 0, 48, 67
1, 76977, Note_off_c, 0, 43, 64
1, 76980, Note_off_c, 0, 76, 64
1, 77058, Note_off_c, 0, 48, 64
1, 77063, Note_on_c, 0, 52, 71
1, 77069, Note_on_c, 0, 72, 79
1, 77120, Note_off_c, 0, 52, 64
1, 77138, Note_on_c, 0, 55, 68
1, 77155, Note_off_c, 0, 72, 64
1, 77180, Note_off_c, 0, 55, 64
1, 77247, Note_on_c, 0, 74, 95
1, 77247, Note_on_c, 0, 43, 84
1, 77276, Note_off_c, 0, 43, 64
1, 77319, Control_c, 0, 64, 127
1, 77347, Note_off_c, 0, 74, 64
1, 77378, Control_c, 0, 64, 0
1, 77584, Note_on_c, 0, 79, 94
1, 77592, Note_on_c, 0, 71, 71
1, 77596, Note_on_c, 0, 55, 55
1, 77596, Note_on_c, 0, 74, 57
1, 77637, Note_off_c, 0, 74, 64
1, 77637, Note_off_c, 0, 71, 64
1, 77660, Note_off_c, 0, 55, 64
1, 77679, Control_c, 0, 64, 127
1, 77691, Note_off_c, 0, 79, 64
1, 77762, Control_c, 0, 64, 0
1, 77952, Note_on_c, 0, 43, 65
1, 77957, Note_on_c, 0, 67, 69
1, 77988, Note_off_c, 0, 43, 64
1, 78025, Control_c, 0, 64, 127
1, 78058, Note_off_c, 0, 67, 64
1, 78253, Control_c, 0, 64, 0
1, 78804, Note_on_c, 0, 66, 23
1, 78886, Note_off_c, 0, 66, 64
1, 78886, Note_on_c, 0, 67, 34
1, 78960, Note_off_c, 0, 67, 64
1, 78966, Note_on_c, 0, 66, 29
1, 79046, Note_on_c, 0, 67, 34
1, 79060, Note_off_c, 0, 66, 64
1, 79111, Note_off_c, 0, 67, 64
1, 79123, Note_on_c, 0, 66, 38
1, 79200, Note_off_c, 0, 66, 64
1, 79200, Note_on_c, 0, 67, 28
1, 79262, Note_off_c, 0, 67, 64
1, 79270, Note_on_c, 0, 66, 37
1, 79359, Note_on_c, 0, 67, 43
1, 79362, Note_off_c, 0, 66, 64
1, 79429, Note_off_c, 0, 67, 64
1, 79462, Note_on_c, 0, 65, 30
1, 79523, Note_off_c, 0, 65, 64
1, 79546, Note_on_c, 0, 67, 34
1, 79607, Note_off_c, 0, 67, 64
1, 79634, Note_on_c, 0, 65, 27
1, 79693, Note_off_c, 0, 65, 64
1, 79715, Note_on_c, 0, 67, 37
1, 79776, Note_off_c, 0, 67, 64
1, 79818, Note_on_c, 0, 65, 35
1, 79868, Note_off_c, 0, 65, 64
1, 79905, Note_on_c, 0, 67, 41
1, 79955, Note_off_c, 0, 67, 64
1, 79999, Note_on_c, 0, 65, 18
1, 80053, Note_off_c, 0, 65, 64
1, 80088, Note_on_c, 0, 67, 37
1, 80166, Note_off_c, 0, 67, 64
1, 80194, Note_on_c, 0, 79, 70
1, 80217, Note_on_c, 0, 64, 36
1, 80267, Note_off_c, 0, 64, 64
1, 80325, Note_on_c, 0, 67, 36
1, 80386, Note_off_c, 0, 67, 64
1, 80400, Note_on_c, 0, 76, 58
1, 80414, Note_on_c, 0, 64, 36
1, 80443, Note_off_c, 0, 79, 64
1, 80459, Note_off_c, 0, 64, 64
1, 80512, Note_on_c, 0, 67, 35
1, 80567, Note_off_c, 0, 67, 64
1, 80581, Note_on_c, 0, 72, 61
1, 80601, Note_on_c, 0, 64, 36
1, 80601, Note_off_c, 0, 76, 64
1, 80644, Note_off_c, 0, 64, 64
1, 80685, Note_on_c, 0, 67, 36
1, 80738, Note_off_c, 0, 67, 64
1, 80783, Note_on_c, 0, 64, 19
1, 80836, Note_off_c, 0, 64, 64
1, 80857, Note_on_c, 0, 67, 33
1, 80910, Note_off_c, 0, 67, 64
1, 80938, Note_on_c, 0, 64, 24
1, 80991, Note_off_c, 0, 64, 64
1, 81045, Note_on_c, 0, 67, 22
1, 81109, Note_off_c, 0, 67, 64
1, 81131, Note_on_c, 0, 74, 39
1, 81131, Note_off_c, 0, 72, 64
1, 81134, Note_on_c, 0, 64, 33
1, 81170, Note_off_c, 0, 74, 64
1, 81180, Note_off_c, 0, 64, 64
1, 81189, Note_on_c, 0, 76, 44
1, 81208, Note_on_c, 0, 67, 17
1, 81251, Note_off_c, 0, 76, 64
1, 81269, Note_off_c, 0, 67, 64
1, 81273, Note_on_c, 0, 74, 38
1, 81303, Note_on_c, 0, 64, 21
1, 81353, Note_off_c, 0, 64, 64
1, 81378, Note_on_c, 0, 67, 20
1, 81412, Note_off_c, 0, 74, 64
1, 81434, Note_on_c, 0, 64, 40
1, 81434, Note_off_c, 0, 67, 64
1, 81434, Note_on_c, 0, 72, 46
1, 81479, Note_off_c, 0, 72, 64
1, 81484, Note_off_c, 0, 64, 64
1, 81495, Note_on_c, 0, 74, 50
1, 81503, Note_on_c, 0, 67, 36
1, 81540, Note_off_c, 0, 74, 64
1, 81549, Note_on_c, 0, 72, 36
1, 81563, Note_off_c, 0, 67, 64
1, 81593, Note_off_c, 0, 72, 64
1, 81605, Note_on_c, 0, 74, 49
1, 81612, Note_on_c, 0, 65, 22
1, 81644, Note_off_c, 0, 74, 64
1, 81654, Note_on_c, 0, 72, 39
1, 81668, Note_off_c, 0, 65, 64
1, 81683, Note_on_c, 0, 67, 41
1, 81694, Note_on_c, 0, 74, 64
1, 81704, Note_off_c, 0, 72, 64
1, 81740, Note_off_c, 0, 67, 64
1, 81746, Note_off_c, 0, 74, 64
1, 81758, Note_on_c, 0, 72, 31
1, 81765, Note_on_c, 0, 64, 43
1, 81813, Note_off_c, 0, 64, 64
1, 81827, Note_off_c, 0, 72, 64
1, 81844, Note_on_c, 0, 71, 42
1, 81860, Note_on_c, 0, 67, 27
1, 81897, Note_off_c, 0, 71, 64
1, 81921, Note_off_c, 0, 67, 64
1, 81933, Note_on_c, 0, 71, 22
1, 81939, Note_on_c, 0, 62, 45
1, 81989, Note_off_c, 0, 62, 64
1, 82019, Note_on_c, 0, 67, 29
1, 82083, Note_off_c, 0, 67, 64
1, 82103, Note_on_c, 0, 64, 43
1, 82148, Note_off_c, 0, 64, 64
1, 82176, Note_on_c, 0, 67, 29
1, 82234, Note_off_c, 0, 67, 64
1, 82268, Note_on_c, 0, 65, 31
1, 82323, Note_off_c, 0, 65, 64
1, 82354, Note_on_c, 0, 67, 30
1, 82417, Note_off_c, 0, 67, 64
1, 82437, Note_on_c, 0, 64, 44
1, 82485, Note_off_c, 0, 64, 64
1, 82529, Note_on_c, 0, 67, 29
1, 82582, Note_off_c, 0, 67, 64
1, 82615, Note_on_c, 0, 65, 30
1, 82618, Note_off_c, 0, 71, 64
1, 82671, Note_off_c, 0, 65, 64
1, 82701, Note_on_c, 0, 67, 25
1, 82765, Note_off_c, 0, 67, 64
1, 82802, Note_on_c, 0, 62, 27
1, 82858, Note_off_c, 0, 62, 64
1, 82880, Note_on_c, 0, 67, 27
1, 82942, Note_off_c, 0, 67, 64
1, 82960, Note_on_c, 0, 79, 56
1, 82981, Note_on_c, 0, 64, 24
1, 83031, Note_off_c, 0, 64, 64
1, 83081, Note_on_c, 0, 67, 35
1, 83131, Note_off_c, 0, 67, 64
1, 83158, Note_on_c, 0, 76, 37
1, 83178, Note_off_c, 0, 79, 64
1, 83178, Note_on_c, 0, 64, 38
1, 83220, Note_off_c, 0, 64, 64
1, 83250, Note_on_c, 0, 67, 38
1, 83304, Note_off_c, 0, 67, 64
1, 83332, Note_on_c, 0, 72, 50
1, 83362, Note_off_c, 0, 76, 64
1, 83368, Note_on_c, 0, 64, 9
1, 83410, Note_off_c, 0, 64, 64
1, 83432, Note_on_c, 0, 67, 39
1, 83485, Note_off_c, 0, 67, 64
1, 83490, Note_on_c, 0, 64, 39
1, 83543, Note_off_c, 0, 64, 64
1, 83579, Note_on_c, 0, 67, 22
1, 83638, Note_off_c, 0, 67, 64
1, 83679, Note_on_c, 0, 64, 37
1, 83722, Note_off_c, 0, 64, 64
1, 83755, Note_on_c, 0, 67, 30
1, 83811, Note_off_c, 0, 67, 64
1, 83847, Note_on_c, 0, 74, 53
1, 83857, Note_off_c, 0, 72, 64
1, 83863, Note_on_c, 0, 64, 26
1, 83892, Note_off_c, 0, 74, 64
1, 83914, Note_off_c, 0, 64, 64
1, 83914, Note_on_c, 0, 76, 54
1, 83938, Note_on_c, 0, 67, 42
1, 83988, Note_off_c, 0, 67, 64
1, 83992, Note_on_c, 0, 74, 69
1, 84003, Note_on_c, 0, 64, 37
1, 84028, Note_off_c, 0, 76, 64
1, 84052, Note_off_c, 0, 64, 64
1, 84101, Note_on_c, 0, 67, 25
1, 84142, Note_off_c, 0, 74, 64
1, 84156, Note_off_c, 0, 67, 64
1, 84162, Note_on_c, 0, 72, 50
1, 84172, Note_on_c, 0, 64, 47
1, 84200, Note_on_c, 0, 74, 70
1, 84200, Note_off_c, 0, 72, 64
1, 84215, Note_off_c, 0, 64, 64
1, 84228, Note_on_c, 0, 67, 32
1, 84245, Note_off_c, 0, 74, 64
1, 84259, Note_on_c, 0, 72, 45
1, 84293, Note_off_c, 0, 67, 64
1, 84303, Note_off_c, 0, 72, 64
1, 84329, Note_on_c, 0, 74, 36
1, 84335, Note_on_c, 0, 65, 30
1, 84356, Note_on_c, 0, 72, 59
1, 84388, Note_off_c, 0, 65, 64
1, 84399, Note_off_c, 0, 72, 64
1, 84428, Note_on_c, 0, 67, 37
1, 84443, Note_off_c, 0, 74, 64
1, 84460, Note_on_c, 0, 72, 48
1, 84482, Note_off_c, 0, 67, 64
1, 84504, Note_on_c, 0, 64, 44
1, 84551, Note_off_c, 0, 64, 64
1, 84562, Note_off_c, 0, 72, 64
1, 84579, Note_on_c, 0, 71, 41
1, 84579, Control_c, 0, 64, 127
1, 84615, Note_on_c, 0, 67, 28
1, 84624, Note_off_c, 0, 71, 64
1, 84665, Control_c, 0, 64, 0
1, 84676, Note_off_c, 0, 67, 64
1, 84685, Note_on_c, 0, 71, 60
1, 84693, Note_on_c, 0, 62, 46
1, 84741, Note_off_c, 0, 62, 64
1, 84768, Note_on_c, 0, 67, 20
1, 84841, Note_off_c, 0, 67, 64
1, 84860, Note_on_c, 0, 64, 46
1, 84903, Note_off_c, 0, 64, 64
1, 84931, Note_on_c, 0, 67, 37
1, 84997, Note_off_c, 0, 67, 64
1, 85031, Note_on_c, 0, 65, 48
1, 85094, Note_off_c, 0, 65, 64
1, 85122, Note_on_c, 0, 67, 47
1, 85173, Note_off_c, 0, 67, 64
1, 85203, Note_on_c, 0, 64, 44
1, 85257, Note_off_c, 0, 64, 64
1, 85262, Note_off_c, 0, 71, 64
1, 85296, Note_on_c, 0, 67, 37
1, 85351, Note_off_c, 0, 67, 64
1, 85367, Note_on_c, 0, 65, 46
1, 85424, Note_off_c, 0, 65, 64
1, 85463, Note_on_c, 0, 67, 32
1, 85521, Note_off_c, 0, 67, 64
1, 85546, Note_on_c, 0, 62, 36
1, 85602, Note_off_c, 0, 62, 64
1, 85638, Note_on_c, 0, 67, 36
1, 85690, Note_off_c, 0, 67, 64
1, 85760, Note_on_c, 0, 79, 66
1, 85841, Note_on_c, 0, 52, 55
1, 85900, Note_off_c, 0, 52, 64
1, 85931, Note_on_c, 0, 55, 45
1, 85992, Note_off_c, 0, 55, 64
1, 86008, Control_c, 0, 64, 127
1, 86016, Note_on_c, 0, 60, 42
1, 86080, Note_off_c, 0, 79, 64
1, 86106, Note_off_c, 0, 60, 64
1, 86123, Note_on_c, 0, 64, 56
1, 86175, Control_c, 0, 64, 0
1, 86214, Note_on_c, 0, 79, 63
1, 86301, Note_on_c, 0, 76, 59
1, 86306, Note_off_c, 0, 64, 64
1, 86318, Note_off_c, 0, 79, 64
1, 86385, Note_on_c, 0, 72, 62
1, 86429, Note_off_c, 0, 76, 64
1, 86480, Note_on_c, 0, 69, 55
1, 86499, Note_off_c, 0, 72, 64
1, 86557, Note_on_c, 0, 53, 73
1, 86632, Note_off_c, 0, 53, 64
1, 86632, Note_on_c, 0, 57, 48
1, 86725, Note_on_c, 0, 60, 57
1, 86728, Note_off_c, 0, 57, 64
1, 86799, Note_off_c, 0, 69, 64
1, 86824, Note_off_c, 0, 60, 64
1, 86835, Note_on_c, 0, 65, 54
1, 86920, Note_on_c, 0, 69, 49
1, 86978, Control_c, 0, 64, 127
1, 86981, Note_off_c, 0, 69, 64
1, 87009, Note_on_c, 0, 72, 72
1, 87016, Note_off_c, 0, 65, 64
1, 87062, Control_c, 0, 64, 0
1, 87094, Note_off_c, 0, 72, 64
1, 87094, Note_on_c, 0, 69, 64
1, 87201, Note_on_c, 0, 77, 79
1, 87223, Note_off_c, 0, 69, 64
1, 87282, Note_on_c, 0, 50, 48
1, 87362, Note_on_c, 0, 53, 79
1, 87365, Note_off_c, 0, 50, 64
1, 87440, Note_off_c, 0, 53, 64
1, 87452, Note_on_c, 0, 59, 48
1, 87530, Control_c, 0, 64, 127
1, 87555, Note_off_c, 0, 59, 64
1, 87555, Note_off_c, 0, 77, 64
1, 87555, Note_on_c, 0, 62, 60
1, 87635, Note_on_c, 0, 77, 57
1, 87674, Control_c, 0, 64, 0
1, 87730, Note_off_c, 0, 62, 64
1, 87735, Note_on_c, 0, 74, 69
1, 87744, Note_off_c, 0, 77, 64
1, 87819, Note_on_c, 0, 71, 74
1, 87831, Note_off_c, 0, 74, 64
1, 87922, Note_off_c, 0, 71, 64
1, 87925, Note_on_c, 0, 67, 72
1, 88001, Note_on_c, 0, 52, 62
1, 88058, Note_off_c, 0, 52, 64
1, 88084, Note_on_c, 0, 55, 54
1, 88117, Control_c, 0, 64, 127
1, 88139, Note_off_c, 0, 67, 64
1, 88142, Note_off_c, 0, 55, 64
1, 88168, Note_on_c, 0, 59, 55
1, 88257, Note_off_c, 0, 59, 64
1, 88267, Note_on_c, 0, 64, 68
1, 88345, Control_c, 0, 64, 0
1, 88351, Note_on_c, 0, 79, 76
1, 88377, Note_off_c, 0, 64, 64
1, 88430, Note_on_c, 0, 83, 101
1, 88430, Note_off_c, 0, 79, 64
1, 88519, Note_on_c, 0, 79, 82
1, 88530, Note_off_c, 0, 83, 64
1, 88625, Note_off_c, 0, 79, 64
1, 88625, Note_on_c, 0, 88, 84
1, 88711, Note_on_c, 0, 60, 50
1, 88778, Note_off_c, 0, 60, 64
1, 88792, Note_on_c, 0, 64, 55
1, 88800, Control_c, 0, 64, 127
1, 88847, Note_off_c, 0, 64, 64
1, 88872, Note_on_c, 0, 69, 46
1, 88878, Note_off_c, 0, 88, 64
1, 88976, Note_off_c, 0, 69, 64
1, 88981, Note_on_c, 0, 72, 63
1, 89054, Note_on_c, 0, 88, 72
1, 89075, Note_off_c, 0, 72, 64
1, 89123, Control_c, 0, 64, 0
1, 89143, Note_on_c, 0, 84, 87
1, 89161, Note_off_c, 0, 88, 64
1, 89234, Note_on_c, 0, 81, 77
1, 89260, Note_off_c, 0, 84, 64
1, 89326, Note_on_c, 0, 77, 74
1, 89348, Note_off_c, 0, 81, 64
1, 89404, Note_on_c, 0, 62, 59
1, 89471, Control_c, 0, 64, 127
1, 89480, Note_off_c, 0, 62, 64
1, 89480, Note_on_c, 0, 65, 57
1, 89565, Note_off_c, 0, 65, 64
1, 89568, Note_on_c, 0, 69, 48
1, 89610, Note_off_c, 0, 77, 64
1, 89635, Note_off_c, 0, 69, 64
1, 89664, Note_on_c, 0, 74, 68
1, 89758, Note_on_c, 0, 77, 74
1, 89794, Note_off_c, 0, 74, 64
1, 89794, Control_c, 0, 64, 0
1, 89817, Note_off_c, 0, 77, 64
1, 89834, Note_on_c, 0, 81, 81
1, 89923, Note_on_c, 0, 77, 85
1, 89939, Note_off_c, 0, 81, 64
1, 90034, Note_off_c, 0, 77, 64
1, 90047, Note_on_c, 0, 86, 74
1, 90128, Note_on_c, 0, 59, 38
1, 90221, Note_on_c, 0, 62, 39
1, 90226, Control_c, 0, 64, 127
1, 90240, Note_off_c, 0, 59, 64
1, 90278, Note_off_c, 0, 62, 64
1, 90313, Note_off_c, 0, 86, 64
1, 90313, Note_on_c, 0, 67, 40
1, 90382, Note_off_c, 0, 67, 64
1, 90413, Note_on_c, 0, 71, 60
1, 90482, Note_on_c, 0, 86, 66
1, 90508, Note_off_c, 0, 71, 64
1, 90561, Control_c, 0, 64, 0
1, 90577, Note_on_c, 0, 83, 81
1, 90589, Note_off_c, 0, 86, 64
1, 90660, Note_on_c, 0, 79, 72
1, 90682, Note_off_c, 0, 83, 64
1, 90769, Note_off_c, 0, 79, 64
1, 90769, Note_on_c, 0, 76, 47
1, 90844, Note_on_c, 0, 60, 45
1, 90925, Note_off_c, 0, 60, 64
1, 90931, Note_on_c, 0, 64, 34
1, 90995, Note_off_c, 0, 64, 64
1, 91014, Note_on_c, 0, 67, 34
1, 91078, Control_c, 0, 64, 127
1, 91090, Note_off_c, 0, 67, 64
1, 91120, Note_on_c, 0, 72, 34
1, 91165, Note_off_c, 0, 76, 64
1, 91223, Note_on_c, 0, 84, 54
1, 91271, Note_off_c, 0, 72, 64
1, 91307, Note_off_c, 0, 84, 64
1, 91324, Note_on_c, 0, 79, 53
1, 91365, Control_c, 0, 64, 0
1, 91401, Note_on_c, 0, 76, 36
1, 91426, Note_off_c, 0, 79, 64
1, 91497, Note_on_c, 0, 74, 55
1, 91504, Note_off_c, 0, 76, 64
1, 91685, Note_on_c, 0, 65, 32
1, 91688, Note_on_c, 0, 69, 25
1, 91738, Note_off_c, 0, 65, 64
1, 91747, Note_off_c, 0, 69, 64
1, 91872, Note_on_c, 0, 69, 29
1, 91880, Note_on_c, 0, 65, 28
1, 91926, Note_off_c, 0, 65, 64
1, 91926, Note_off_c, 0, 69, 64
1, 92048, Note_on_c, 0, 69, 25
1, 92078, Note_off_c, 0, 74, 64
1, 92109, Note_off_c, 0, 69, 64
1, 92203, Note_on_c, 0, 73, 45
1, 92215, Note_on_c, 0, 69, 26
1, 92231, Note_on_c, 0, 74, 55
1, 92246, Note_off_c, 0, 73, 64
1, 92246, Note_on_c, 0, 65, 21
1, 92276, Note_off_c, 0, 69, 64
1, 92299, Note_off_c, 0, 65, 64
1, 92408, Note_on_c, 0, 69, 34
1, 92418, Note_on_c, 0, 65, 19
1, 92430, Note_off_c, 0, 74, 64
1, 92469, Note_off_c, 0, 69, 64
1, 92472, Note_off_c, 0, 65, 64
1, 92571, Note_on_c, 0, 73, 46
1, 92586, Note_on_c, 0, 65, 29
1, 92589, Note_on_c, 0, 69, 44
1, 92593, Note_on_c, 0, 74, 78
1, 92621, Note_off_c, 0, 73, 64
1, 92638, Note_off_c, 0, 69, 64
1, 92642, Note_off_c, 0, 65, 64
1, 92714, Note_off_c, 0, 74, 64
1, 92763, Note_on_c, 0, 69, 41
1, 92775, Note_on_c, 0, 65, 41
1, 92812, Note_off_c, 0, 69, 64
1, 92817, Note_off_c, 0, 65, 64
1, 92951, Note_on_c, 0, 81, 63
1, 93129, Note_on_c, 0, 63, 48
1, 93132, Note_on_c, 0, 54, 52
1, 93148, Note_on_c, 0, 60, 40
1, 93184, Note_off_c, 0, 63, 64
1, 93193, Note_off_c, 0, 54, 64
1, 93193, Note_off_c, 0, 60, 64
1, 93310, Note_on_c, 0, 63, 55
1, 93320, Note_on_c, 0, 54, 46
1, 93320, Note_on_c, 0, 60, 30
1, 93355, Note_off_c, 0, 63, 64
1, 93366, Note_off_c, 0, 54, 64
1, 93366, Note_off_c, 0, 60, 64
1, 93488, Note_on_c, 0, 63, 42
1, 93505, Note_on_c, 0, 54, 35
1, 93508, Note_on_c, 0, 60, 37
1, 93511, Note_off_c, 0, 81, 64
1, 93533, Note_off_c, 0, 63, 64
1, 93558, Note_off_c, 0, 60, 64
1, 93558, Note_off_c, 0, 54, 64
1, 93635, Note_on_c, 0, 80, 56
1, 93653, Note_on_c, 0, 54, 48
1, 93660, Note_on_c, 0, 63, 52
1, 93660, Note_on_c, 0, 60, 29
1, 93666, Note_on_c, 0, 81, 84
1, 93705, Note_off_c, 0, 80, 64
1, 93705, Note_off_c, 0, 63, 64
1, 93714, Note_off_c, 0, 54, 64
1, 93717, Note_off_c, 0, 60, 64
1, 93809, Note_off_c, 0, 81, 64
1, 93834, Note_on_c, 0, 63, 49
1, 93834, Note_on_c, 0, 54, 57
1, 93847, Note_on_c, 0, 60, 54
1, 93881, Note_off_c, 0, 63, 64
1, 93881, Note_off_c, 0, 54, 64
1, 93889, Note_off_c, 0, 60, 64
1, 93981, Note_on_c, 0, 80, 61
1, 94000, Note_on_c, 0, 54, 71
1, 94000, Note_on_c, 0, 81, 95
1, 94000, Note_on_c, 0, 63, 62
1, 94018, Note_on_c, 0, 60, 58
1, 94043, Note_off_c, 0, 63, 64
1, 94046, Note_off_c, 0, 80, 64
1, 94046, Note_off_c, 0, 54, 64
1, 94059, Note_off_c, 0, 60, 64
1, 94092, Note_off_c, 0, 81, 64
1, 94174, Note_on_c, 0, 63, 69
1, 94179, Note_on_c, 0, 54, 73
1, 94188, Note_on_c, 0, 60, 55
1, 94212, Note_off_c, 0, 54, 64
1, 94215, Note_off_c, 0, 63, 64
1, 94227, Note_off_c, 0, 60, 64
1, 94352, Note_on_c, 0, 79, 93
1, 94365, Note_on_c, 0, 55, 72
1, 94466, Note_on_c, 0, 64, 45
1, 94474, Note_off_c, 0, 55, 64
1, 94524, Note_off_c, 0, 64, 64
1, 94563, Note_on_c, 0, 60, 48
1, 94569, Note_off_c, 0, 79, 64
1, 94569, Note_on_c, 0, 81, 76
1, 94627, Note_off_c, 0, 60, 64
1, 94627, Note_off_c, 0, 81, 64
1, 94644, Note_on_c, 0, 83, 104
1, 94652, Note_on_c, 0, 64, 55
1, 94694, Note_off_c, 0, 64, 64
1, 94697, Note_off_c, 0, 83, 64
1, 94727, Note_on_c, 0, 55, 63
1, 94731, Note_on_c, 0, 84, 89
1, 94770, Note_off_c, 0, 55, 64
1, 94805, Note_on_c, 0, 86, 87
1, 94814, Note_off_c, 0, 84, 64
1, 94819, Note_on_c, 0, 64, 39
1, 94862, Note_off_c, 0, 64, 64
1, 94879, Note_off_c, 0, 86, 64
1, 94883, Note_on_c, 0, 88, 82
1, 94883, Note_on_c, 0, 60, 50
1, 94940, Note_off_c, 0, 60, 64
1, 94962, Note_on_c, 0, 86, 75
1, 94976, Note_off_c, 0, 88, 64
1, 94979, Note_on_c, 0, 64, 37
1, 95026, Note_off_c, 0, 64, 64
1, 95040, Note_off_c, 0, 86, 64
1, 95040, Note_on_c, 0, 55, 51
1, 95051, Note_on_c, 0, 84, 82
1, 95089, Note_off_c, 0, 55, 64
1, 95115, Note_on_c, 0, 64, 39
1, 95123, Note_off_c, 0, 84, 64
1, 95134, Note_on_c, 0, 83, 98
1, 95163, Control_c, 0, 64, 127
1, 95167, Note_off_c, 0, 64, 64
1, 95207, Note_on_c, 0, 60, 41
1, 95221, Note_on_c, 0, 81, 59
1, 95221, Note_off_c, 0, 83, 64
1, 95266, Note_off_c, 0, 60, 64
1, 95290, Note_on_c, 0, 64, 41
1, 95290, Note_on_c, 0, 79, 62
1, 95294, Note_off_c, 0, 81, 64
1, 95335, Note_off_c, 0, 79, 64
1, 95335, Note_off_c, 0, 64, 64
1, 95355, Control_c, 0, 64, 0
1, 95363, Note_on_c, 0, 77, 68
1, 95368, Note_on_c, 0, 55, 63
1, 95416, Note_off_c, 0, 77, 64
1, 95416, Note_off_c, 0, 55, 64
1, 95446, Note_on_c, 0, 76, 58
1, 95466, Note_on_c, 0, 64, 32
1, 95510, Note_off_c, 0, 64, 64
1, 95524, Note_off_c, 0, 76, 64
1, 95528, Note_on_c, 0, 60, 50
1, 95532, Note_on_c, 0, 74, 66
1, 95535, Control_c, 0, 64, 127
1, 95572, Note_off_c, 0, 74, 64
1, 95581, Note_off_c, 0, 60, 64
1, 95599, Note_on_c, 0, 72, 58
1, 95614, Note_on_c, 0, 64, 39
1, 95631, Control_c, 0, 64, 0
1, 95639, Note_off_c, 0, 72, 64
1, 95660, Note_off_c, 0, 64, 64
1, 95664, Note_on_c, 0, 76, 64
1, 95684, Note_on_c, 0, 55, 57
1, 95698, Note_off_c, 0, 76, 64
1, 95733, Note_on_c, 0, 74, 49
1, 95742, Note_off_c, 0, 55, 64
1, 95756, Note_on_c, 0, 65, 44
1, 95772, Note_off_c, 0, 74, 64
1, 95772, Note_on_c, 0, 76, 46
1, 95812, Note_off_c, 0, 76, 64
1, 95817, Note_off_c, 0, 65, 64
1, 95836, Control_c, 0, 64, 127
1, 95836, Note_on_c, 0, 74, 42
1, 95847, Note_on_c, 0, 59, 39
1, 95878, Note_off_c, 0, 74, 64
1, 95878, Note_on_c, 0, 76, 48
1, 95900, Note_off_c, 0, 59, 64
1, 95918, Note_off_c, 0, 76, 64
1, 95940, Note_on_c, 0, 65, 34
1, 95943, Note_on_c, 0, 74, 45
1, 95984, Note_on_c, 0, 76, 49
1, 95984, Note_off_c, 0, 74, 64
1, 95992, Note_off_c, 0, 65, 64
1, 96020, Note_on_c, 0, 55, 55
1, 96028, Note_off_c, 0, 76, 64
1, 96046, Note_on_c, 0, 74, 47
1, 96064, Note_off_c, 0, 55, 64
1, 96096, Note_off_c, 0, 74, 64
1, 96101, Note_on_c, 0, 65, 41
1, 96106, Note_on_c, 0, 76, 47
1, 96145, Note_off_c, 0, 76, 64
1, 96154, Note_off_c, 0, 65, 64
1, 96157, Note_on_c, 0, 74, 57
1, 96174, Note_on_c, 0, 59, 49
1, 96210, Note_off_c, 0, 74, 64
1, 96216, Note_on_c, 0, 76, 48
1, 96220, Note_off_c, 0, 59, 64
1, 96254, Note_off_c, 0, 76, 64
1, 96271, Note_on_c, 0, 65, 38
1, 96277, Note_on_c, 0, 74, 58
1, 96318, Note_off_c, 0, 65, 64
1, 96326, Control_c, 0, 64, 0
1, 96326, Note_off_c, 0, 74, 64
1, 96338, Note_on_c, 0, 76, 51
1, 96338, Note_on_c, 0, 55, 69
1, 96376, Note_off_c, 0, 76, 64
1, 96391, Note_off_c, 0, 55, 64
1, 96391, Note_on_c, 0, 74, 74
1, 96424, Note_on_c, 0, 65, 39
1, 96443, Note_off_c, 0, 74, 64
1, 96454, Note_on_c, 0, 76, 55
1, 96469, Control_c, 0, 64, 127
1, 96472, Note_off_c, 0, 65, 64
1, 96488, Note_on_c, 0, 59, 49
1, 96493, Note_off_c, 0, 76, 64
1, 96508, Note_on_c, 0, 74, 66
1, 96532, Note_off_c, 0, 59, 64
1, 96550, Note_off_c, 0, 74, 64
1, 96571, Note_on_c, 0, 76, 50
1, 96571, Note_on_c, 0, 65, 32
1, 96608, Note_off_c, 0, 76, 64
1, 96620, Note_off_c, 0, 65, 64
1, 96620, Note_on_c, 0, 74, 66
1, 96644, Note_on_c, 0, 55, 68
1, 96650, Control_c, 0, 64, 0
1, 96669, Note_off_c, 0, 74, 64
1, 96669, Note_on_c, 0, 76, 54
1, 96691, Note_off_c, 0, 55, 64
1, 96717, Note_off_c, 0, 76, 64
1, 96731, Note_on_c, 0, 65, 44
1, 96731, Note_on_c, 0, 74, 55
1, 96758, Control_c, 0, 64, 127
1, 96770, Note_off_c, 0, 74, 64
1, 96775, Note_off_c, 0, 65, 64
1, 96775, Note_on_c, 0, 76, 64
1, 96817, Control_c, 0, 64, 0
1, 96820, Note_on_c, 0, 59, 46
1, 96831, Note_on_c, 0, 74, 59
1, 96864, Note_off_c, 0, 76, 64
1, 96864, Note_off_c, 0, 59, 64
1, 96897, Note_off_c, 0, 74, 64
1, 96897, Note_on_c, 0, 72, 62
1, 96907, Note_on_c, 0, 65, 41
1, 96931, Note_off_c, 0, 72, 64
1, 96948, Note_on_c, 0, 74, 85
1, 96956, Note_off_c, 0, 65, 64
1, 97009, Note_off_c, 0, 74, 64
1, 97015, Note_on_c, 0, 64, 45
1, 97028, Note_on_c, 0, 60, 31
1, 97043, Note_on_c, 0, 72, 77
1, 97190, Control_c, 0, 64, 127
1, 97207, Note_off_c, 0, 72, 64
1, 97266, Note_off_c, 0, 64, 64
1, 97329, Note_off_c, 0, 60, 64
1, 97415, Note_on_c, 0, 72, 56
1, 97453, Control_c, 0, 64, 0
1, 97461, Note_off_c, 0, 72, 64
1, 97496, Note_on_c, 0, 67, 66
1, 97553, Note_off_c, 0, 67, 64
1, 97575, Note_on_c, 0, 72, 70
1, 97652, Note_off_c, 0, 72, 64
1, 97663, Note_on_c, 0, 76, 67
1, 97747, Note_on_c, 0, 79, 85
1, 97769, Note_off_c, 0, 76, 64
1, 97828, Note_on_c, 0, 76, 57
1, 97848, Note_off_c, 0, 79, 64
1, 97914, Note_on_c, 0, 72, 66
1, 97917, Note_off_c, 0, 76, 64
1, 97967, Note_off_c, 0, 72, 64
1, 97998, Note_on_c, 0, 76, 57
1, 98090, Note_on_c, 0, 65, 45
1, 98098, Note_on_c, 0, 55, 47
1, 98102, Note_off_c, 0, 76, 64
1, 98102, Note_on_c, 0, 77, 54
1, 98105, Note_on_c, 0, 62, 37
1, 98135, Note_off_c, 0, 65, 64
1, 98149, Note_off_c, 0, 55, 64
1, 98155, Note_off_c, 0, 62, 64
1, 98166, Note_off_c, 0, 77, 64
1, 98180, Note_on_c, 0, 74, 49
1, 98238, Note_off_c, 0, 74, 64
1, 98266, Note_on_c, 0, 71, 52
1, 98316, Note_off_c, 0, 71, 64
1, 98361, Note_on_c, 0, 74, 55
1, 98402, Note_off_c, 0, 74, 64
1, 98460, Note_on_c, 0, 72, 51
1, 98471, Note_on_c, 0, 64, 27
1, 98477, Note_on_c, 0, 60, 21
1, 98544, Control_c, 0, 64, 127
1, 98544, Note_off_c, 0, 64, 64
1, 98553, Note_off_c, 0, 72, 64
1, 98599, Note_off_c, 0, 60, 64
1, 98795, Control_c, 0, 64, 0
1, 98817, Note_on_c, 0, 60, 39
1, 98868, Note_off_c, 0, 60, 64
1, 98879, Note_on_c, 0, 55, 54
1, 98939, Note_off_c, 0, 55, 64
1, 98973, Note_on_c, 0, 60, 30
1, 99035, Note_off_c, 0, 60, 64
1, 99065, Note_on_c, 0, 64, 57
1, 99138, Note_off_c, 0, 64, 64
1, 99148, Note_on_c, 0, 67, 61
1, 99230, Note_on_c, 0, 64, 51
1, 99235, Note_off_c, 0, 67, 64
1, 99277, Note_off_c, 0, 64, 64
1, 99307, Note_on_c, 0, 60, 55
1, 99354, Note_off_c, 0, 60, 64
1, 99386, Note_on_c, 0, 64, 53
1, 99474, Note_on_c, 0, 53, 65
1, 99477, Note_off_c, 0, 64, 64
1, 99477, Note_on_c, 0, 43, 41
1, 99486, Note_on_c, 0, 50, 39
1, 99491, Note_on_c, 0, 65, 45
1, 99521, Note_off_c, 0, 53, 64
1, 99542, Note_off_c, 0, 50, 64
1, 99542, Note_off_c, 0, 65, 64
1, 99552, Note_off_c, 0, 43, 64
1, 99561, Note_on_c, 0, 62, 50
1, 99611, Note_off_c, 0, 62, 64
1, 99644, Note_on_c, 0, 59, 45
1, 99700, Note_off_c, 0, 59, 64
1, 99723, Note_on_c, 0, 62, 62
1, 99779, Note_off_c, 0, 62, 64
1, 99825, Note_on_c, 0, 52, 47
1, 99829, Note_on_c, 0, 60, 75
1, 99836, Note_on_c, 0, 48, 31
1, 99895, Note_off_c, 0, 48, 64
1, 99907, Note_off_c, 0, 60, 64
1, 99910, Control_c, 0, 64, 127
1, 99915, Note_off_c, 0, 52, 64
1, 99957, Control_c, 0, 64, 0
1, 100191, Note_on_c, 0, 84, 98
1, 100194, Note_on_c, 0, 76, 78
1, 100198, Note_on_c, 0, 60, 66
1, 100198, Note_on_c, 0, 79, 83
1, 100204, Note_on_c, 0, 48, 52
1, 100232, Note_off_c, 0, 76, 64
1, 100236, Note_off_c, 0, 60, 64
1, 100236, Note_off_c, 0, 79, 64
1, 100251, Note_off_c, 0, 48, 64
1, 100263, Note_off_c, 0, 84, 64
1, 100280, Control_c, 0, 64, 127
1, 100425, Control_c, 0, 64, 0
1, 100672, Note_on_c, 0, 72, 81
1, 100680, Note_on_c, 0, 48, 53
1, 100683, Note_on_c, 0, 36, 53
1, 100761, Control_c, 0, 64, 127
1, 100831, Note_off_c, 0, 48, 64
1, 100843, Note_off_c, 0, 36, 64
1, 100884, Note_off_c, 0, 72, 64
1, 101155, Control_c, 0, 64, 0
1, 101837, Control_c, 0, 64, 0
1, 103335, Control_c, 0, 64, 0
1, 104833, End_track
0, 0, End_of_file
