0, 0, Header, 1, 2, 240
1, 0, Start_track
1, 0, Title_t, "Mozart\201@Piano Sonate A dur  K.331 \221æ\202P\212y\217Í"
1, 0, Text_t, "CVS Ver5.05 Created\012"
1, 0, Text_t, "\203\202\201[\203c\203@\203\213\203g\215ì\213È\012"
1, 0, Text_t, "(1756\201`1791)\012"
1, 0, Text_t, "Piano\201@Sonate  A dur\012"
1, 0, Text_t, "\221æ\202P\212y\217Í\012"
1, 0, Text_t, "\211\211\221t\201@\217¬\214I\201@\215\216\226¤\012"
1, 0, Text_t, "\201i\203\212\203A\203\213\203^\203C\203\200\230^\211¹\201j\012"
1, 0, Text_t, "<RESET>\012"
1, 0, Text_t, "<Master Volume>\012"
1, 0, System_exclusive, 10, 65, 16, 66, 18, 64, 0, 127, 0, 65, 247
1, 1, System_exclusive, 10, 65, 16, 66, 18, 64, 0, 4, 100, 88, 247
1, 2, System_exclusive, 10, 65, 16, 66, 18, 64, 1, 48, 3, 12, 247
1, 2, System_exclusive, 10, 65, 16, 66, 18, 64, 1, 51, 60, 80, 247
1, 2, System_exclusive, 10, 65, 16, 66, 18, 64, 1, 52, 60, 79, 247
1, 2, Time_signature, 4, 2, 24, 8
1, 2, Key_signature, 3, "major"
1, 2, Tempo, 500000
1, 2, End_track
2, 0, Start_track
2, 0, Title_t, "PIANO"
2, 96, Text_t, "<Master Reverve>"
2, 240, Control_c, 0, 0, 0
2, 240, Control_c, 0, 32, 1
2, 241, Program_c, 0, 0
2, 241, Control_c, 0, 7, 105
2, 241, Control_c, 0, 10, 64
2, 241, Control_c, 0, 91, 90
2, 486, Control_c, 0, 11, 127
2, 678, Control_c, 0, 1, 0
2, 678, Text_t, "<part reverve>"
2, 727, Control_c, 0, 99, 1
2, 728, Control_c, 0, 98, 32
2, 729, Control_c, 0, 6, 62
2, 730, Control_c, 0, 38, 0
2, 733, Control_c, 0, 99, 1
2, 734, Control_c, 0, 98, 33
2, 735, Control_c, 0, 6, 54
2, 736, Control_c, 0, 38, 0
2, 739, Control_c, 0, 99, 1
2, 740, Control_c, 0, 98, 99
2, 741, Control_c, 0, 6, 62
2, 742, Control_c, 0, 38, 0
2, 745, Control_c, 0, 99, 1
2, 746, Control_c, 0, 98, 100
2, 747, Control_c, 0, 6, 60
2, 748, Control_c, 0, 38, 0
2, 751, Control_c, 0, 99, 1
2, 752, Control_c, 0, 98, 102
2, 753, Control_c, 0, 6, 70
2, 754, Control_c, 0, 38, 0
2, 1596, Control_c, 0, 67, 0
2, 2806, Control_c, 0, 64, 63
2, 2831, Control_c, 0, 64, 127
2, 2863, Note_on_c, 0, 64, 49
2, 2867, Note_on_c, 0, 57, 47
2, 2868, Note_on_c, 0, 73, 80
2, 3116, Note_on_c, 0, 73, 0
2, 3151, Note_on_c, 0, 57, 0
2, 3226, Note_on_c, 0, 74, 78
2, 3236, Note_on_c, 0, 59, 46
2, 3270, Note_on_c, 0, 64, 0
2, 3351, Note_on_c, 0, 73, 91
2, 3353, Note_on_c, 0, 57, 48
2, 3354, Note_on_c, 0, 64, 48
2, 3355, Note_on_c, 0, 59, 0
2, 3366, Note_on_c, 0, 74, 0
2, 3399, Control_c, 0, 64, 63
2, 3468, Control_c, 0, 64, 127
2, 3529, Note_on_c, 0, 64, 0
2, 3570, Note_on_c, 0, 57, 0
2, 3597, Note_on_c, 0, 73, 0
2, 3601, Note_on_c, 0, 76, 77
2, 3611, Note_on_c, 0, 64, 47
2, 3615, Note_on_c, 0, 61, 64
2, 3644, Control_c, 0, 64, 63
2, 3654, Control_c, 0, 64, 0
2, 3726, Control_c, 0, 64, 63
2, 3737, Control_c, 0, 64, 127
2, 3887, Note_on_c, 0, 76, 0
2, 3893, Note_on_c, 0, 61, 0
2, 3901, Note_on_c, 0, 64, 0
2, 4072, Note_on_c, 0, 76, 80
2, 4076, Note_on_c, 0, 61, 69
2, 4084, Note_on_c, 0, 64, 50
2, 4122, Control_c, 0, 64, 63
2, 4144, Control_c, 0, 64, 0
2, 4166, Control_c, 0, 64, 63
2, 4190, Control_c, 0, 64, 127
2, 4259, Note_on_c, 0, 64, 0
2, 4279, Note_on_c, 0, 61, 0
2, 4299, Note_on_c, 0, 76, 0
2, 4319, Note_on_c, 0, 64, 57
2, 4320, Note_on_c, 0, 71, 88
2, 4332, Note_on_c, 0, 56, 62
2, 4388, Control_c, 0, 64, 63
2, 4403, Control_c, 0, 64, 0
2, 4468, Control_c, 0, 64, 63
2, 4480, Control_c, 0, 64, 127
2, 4554, Note_on_c, 0, 71, 0
2, 4574, Note_on_c, 0, 56, 0
2, 4664, Note_on_c, 0, 64, 0
2, 4679, Note_on_c, 0, 73, 86
2, 4680, Note_on_c, 0, 57, 41
2, 4794, Note_on_c, 0, 56, 64
2, 4796, Note_on_c, 0, 71, 82
2, 4798, Note_on_c, 0, 73, 0
2, 4802, Note_on_c, 0, 64, 35
2, 4814, Note_on_c, 0, 57, 0
2, 4833, Control_c, 0, 64, 63
2, 4846, Control_c, 0, 64, 0
2, 4895, Control_c, 0, 64, 63
2, 4911, Control_c, 0, 64, 127
2, 4975, Note_on_c, 0, 64, 0
2, 4979, Note_on_c, 0, 71, 0
2, 5019, Note_on_c, 0, 56, 0
2, 5046, Note_on_c, 0, 74, 76
2, 5054, Note_on_c, 0, 64, 39
2, 5061, Note_on_c, 0, 59, 52
2, 5105, Control_c, 0, 64, 63
2, 5117, Control_c, 0, 64, 0
2, 5183, Control_c, 0, 64, 63
2, 5195, Control_c, 0, 64, 127
2, 5296, Note_on_c, 0, 74, 0
2, 5339, Note_on_c, 0, 64, 0
2, 5346, Note_on_c, 0, 59, 0
2, 5517, Note_on_c, 0, 74, 69
2, 5525, Note_on_c, 0, 64, 44
2, 5528, Note_on_c, 0, 59, 55
2, 5553, Control_c, 0, 64, 63
2, 5566, Control_c, 0, 64, 0
2, 5612, Control_c, 0, 64, 63
2, 5627, Control_c, 0, 64, 127
2, 5705, Note_on_c, 0, 64, 0
2, 5737, Note_on_c, 0, 74, 0
2, 5765, Note_on_c, 0, 59, 0
2, 5778, Note_on_c, 0, 69, 74
2, 5781, Note_on_c, 0, 64, 47
2, 5791, Note_on_c, 0, 54, 60
2, 5858, Control_c, 0, 64, 63
2, 5873, Control_c, 0, 64, 0
2, 5944, Control_c, 0, 64, 63
2, 5956, Control_c, 0, 64, 127
2, 6087, Note_on_c, 0, 64, 0
2, 6101, Note_on_c, 0, 69, 0
2, 6107, Note_on_c, 0, 54, 0
2, 6275, Note_on_c, 0, 69, 86
2, 6280, Note_on_c, 0, 64, 59
2, 6282, Note_on_c, 0, 54, 75
2, 6354, Control_c, 0, 64, 63
2, 6377, Control_c, 0, 64, 0
2, 6399, Control_c, 0, 64, 63
2, 6420, Control_c, 0, 64, 127
2, 6486, Note_on_c, 0, 69, 0
2, 6491, Note_on_c, 0, 64, 0
2, 6535, Note_on_c, 0, 71, 90
2, 6536, Note_on_c, 0, 64, 59
2, 6537, Note_on_c, 0, 56, 85
2, 6551, Note_on_c, 0, 54, 0
2, 6634, Control_c, 0, 64, 63
2, 6646, Control_c, 0, 64, 0
2, 6710, Control_c, 0, 64, 63
2, 6718, Control_c, 0, 64, 127
2, 6837, Note_on_c, 0, 71, 0
2, 6882, Note_on_c, 0, 56, 0
2, 6884, Note_on_c, 0, 64, 0
2, 7020, Note_on_c, 0, 71, 95
2, 7024, Note_on_c, 0, 56, 88
2, 7027, Note_on_c, 0, 64, 75
2, 7084, Control_c, 0, 64, 63
2, 7098, Control_c, 0, 64, 0
2, 7123, Control_c, 0, 64, 63
2, 7139, Control_c, 0, 64, 127
2, 7218, Note_on_c, 0, 64, 0
2, 7261, Note_on_c, 0, 71, 0
2, 7263, Note_on_c, 0, 73, 101
2, 7272, Note_on_c, 0, 64, 57
2, 7275, Note_on_c, 0, 57, 62
2, 7289, Note_on_c, 0, 56, 0
2, 7375, Control_c, 0, 64, 63
2, 7387, Control_c, 0, 64, 0
2, 7461, Control_c, 0, 64, 63
2, 7468, Control_c, 0, 64, 127
2, 7534, Note_on_c, 0, 64, 0
2, 7561, Note_on_c, 0, 73, 0
2, 7604, Note_on_c, 0, 57, 0
2, 7763, Note_on_c, 0, 50, 62
2, 7764, Note_on_c, 0, 76, 83
2, 7766, Note_on_c, 0, 71, 76
2, 7833, Control_c, 0, 64, 63
2, 7845, Control_c, 0, 64, 0
2, 7889, Note_on_c, 0, 74, 98
2, 7902, Control_c, 0, 64, 63
2, 7912, Control_c, 0, 64, 127
2, 7923, Note_on_c, 0, 76, 0
2, 8029, Note_on_c, 0, 71, 0
2, 8036, Note_on_c, 0, 73, 96
2, 8043, Note_on_c, 0, 52, 57
2, 8044, Note_on_c, 0, 50, 0
2, 8047, Note_on_c, 0, 69, 47
2, 8055, Note_on_c, 0, 74, 0
2, 8116, Control_c, 0, 64, 63
2, 8133, Control_c, 0, 64, 0
2, 8254, Control_c, 0, 64, 63
2, 8258, Control_c, 0, 64, 127
2, 8322, Note_on_c, 0, 69, 0
2, 8346, Note_on_c, 0, 73, 0
2, 8613, Note_on_c, 0, 68, 40
2, 8615, Note_on_c, 0, 71, 54
2, 8664, Control_c, 0, 64, 63
2, 8676, Control_c, 0, 64, 0
2, 8734, Control_c, 0, 64, 63
2, 8742, Control_c, 0, 64, 127
2, 8757, Note_on_c, 0, 52, 0
2, 8771, Note_on_c, 0, 68, 0
2, 8772, Note_on_c, 0, 71, 0
2, 8930, Note_on_c, 0, 73, 91
2, 8933, Note_on_c, 0, 57, 51
2, 8934, Note_on_c, 0, 64, 63
2, 8970, Control_c, 0, 64, 63
2, 8989, Control_c, 0, 64, 0
2, 9071, Control_c, 0, 64, 63
2, 9080, Control_c, 0, 64, 127
2, 9174, Note_on_c, 0, 73, 0
2, 9243, Note_on_c, 0, 64, 0
2, 9246, Note_on_c, 0, 57, 0
2, 9304, Note_on_c, 0, 59, 67
2, 9305, Note_on_c, 0, 74, 89
2, 9441, Note_on_c, 0, 57, 56
2, 9447, Note_on_c, 0, 73, 96
2, 9449, Note_on_c, 0, 64, 61
2, 9478, Note_on_c, 0, 59, 0
2, 9479, Note_on_c, 0, 74, 0
2, 9489, Control_c, 0, 64, 63
2, 9499, Control_c, 0, 64, 0
2, 9556, Control_c, 0, 64, 63
2, 9563, Control_c, 0, 64, 127
2, 9623, Note_on_c, 0, 64, 0
2, 9664, Note_on_c, 0, 57, 0
2, 9672, Note_on_c, 0, 73, 0
2, 9700, Note_on_c, 0, 76, 84
2, 9701, Note_on_c, 0, 61, 84
2, 9702, Note_on_c, 0, 64, 62
2, 9771, Control_c, 0, 64, 63
2, 9780, Control_c, 0, 64, 0
2, 9849, Control_c, 0, 64, 63
2, 9857, Control_c, 0, 64, 127
2, 9995, Note_on_c, 0, 76, 0
2, 10006, Note_on_c, 0, 64, 0
2, 10011, Note_on_c, 0, 61, 0
2, 10208, Note_on_c, 0, 61, 74
2, 10208, Note_on_c, 0, 76, 79
2, 10215, Note_on_c, 0, 64, 53
2, 10246, Control_c, 0, 64, 63
2, 10257, Control_c, 0, 64, 0
2, 10311, Control_c, 0, 64, 63
2, 10321, Control_c, 0, 64, 127
2, 10389, Note_on_c, 0, 64, 0
2, 10405, Note_on_c, 0, 61, 0
2, 10413, Note_on_c, 0, 76, 0
2, 10474, Note_on_c, 0, 56, 68
2, 10476, Note_on_c, 0, 71, 89
2, 10478, Note_on_c, 0, 64, 46
2, 10539, Control_c, 0, 64, 63
2, 10553, Control_c, 0, 64, 0
2, 10616, Control_c, 0, 64, 63
2, 10625, Control_c, 0, 64, 127
2, 10703, Note_on_c, 0, 56, 0
2, 10726, Note_on_c, 0, 71, 0
2, 10848, Note_on_c, 0, 57, 48
2, 10851, Note_on_c, 0, 64, 0
2, 10855, Note_on_c, 0, 73, 87
2, 10981, Note_on_c, 0, 71, 77
2, 10985, Note_on_c, 0, 56, 45
2, 10992, Note_on_c, 0, 64, 23
2, 11012, Note_on_c, 0, 73, 0
2, 11017, Note_on_c, 0, 57, 0
2, 11029, Control_c, 0, 64, 63
2, 11039, Control_c, 0, 64, 0
2, 11102, Control_c, 0, 64, 63
2, 11110, Control_c, 0, 64, 127
2, 11168, Note_on_c, 0, 71, 0
2, 11170, Note_on_c, 0, 64, 0
2, 11211, Note_on_c, 0, 56, 0
2, 11248, Note_on_c, 0, 74, 76
2, 11259, Note_on_c, 0, 59, 57
2, 11262, Note_on_c, 0, 64, 29
2, 11337, Control_c, 0, 64, 63
2, 11347, Control_c, 0, 64, 0
2, 11412, Control_c, 0, 64, 63
2, 11420, Control_c, 0, 64, 127
2, 11521, Note_on_c, 0, 74, 0
2, 11577, Note_on_c, 0, 64, 0
2, 11583, Note_on_c, 0, 59, 0
2, 11748, Note_on_c, 0, 74, 84
2, 11756, Note_on_c, 0, 64, 55
2, 11759, Note_on_c, 0, 59, 59
2, 11777, Control_c, 0, 64, 63
2, 11792, Control_c, 0, 64, 0
2, 11853, Control_c, 0, 64, 63
2, 11862, Control_c, 0, 64, 127
2, 11926, Note_on_c, 0, 64, 0
2, 11969, Note_on_c, 0, 74, 0
2, 11977, Note_on_c, 0, 59, 0
2, 12014, Note_on_c, 0, 69, 79
2, 12023, Note_on_c, 0, 64, 52
2, 12026, Note_on_c, 0, 54, 71
2, 12080, Control_c, 0, 64, 63
2, 12096, Control_c, 0, 64, 0
2, 12168, Control_c, 0, 64, 63
2, 12175, Control_c, 0, 64, 127
2, 12325, Note_on_c, 0, 69, 0
2, 12342, Note_on_c, 0, 64, 0
2, 12359, Note_on_c, 0, 54, 0
2, 12503, Note_on_c, 0, 71, 93
2, 12507, Note_on_c, 0, 64, 65
2, 12507, Note_on_c, 0, 56, 77
2, 12581, Control_c, 0, 64, 63
2, 12590, Control_c, 0, 64, 0
2, 12640, Control_c, 0, 64, 63
2, 12647, Control_c, 0, 64, 127
2, 12700, Note_on_c, 0, 64, 0
2, 12727, Note_on_c, 0, 71, 0
2, 12764, Note_on_c, 0, 73, 111
2, 12768, Note_on_c, 0, 57, 73
2, 12772, Note_on_c, 0, 64, 68
2, 12787, Note_on_c, 0, 56, 0
2, 12878, Control_c, 0, 64, 63
2, 12888, Control_c, 0, 64, 0
2, 12951, Control_c, 0, 64, 63
2, 12956, Control_c, 0, 64, 127
2, 13077, Note_on_c, 0, 73, 0
2, 13081, Note_on_c, 0, 64, 0
2, 13285, Note_on_c, 0, 74, 102
2, 13291, Note_on_c, 0, 71, 85
2, 13295, Note_on_c, 0, 50, 65
2, 13296, Note_on_c, 0, 66, 83
2, 13339, Note_on_c, 0, 57, 0
2, 13358, Control_c, 0, 64, 63
2, 13367, Control_c, 0, 64, 0
2, 13409, Control_c, 0, 64, 63
2, 13417, Control_c, 0, 64, 127
2, 13457, Note_on_c, 0, 66, 0
2, 13473, Note_on_c, 0, 74, 0
2, 13483, Note_on_c, 0, 71, 0
2, 13525, Note_on_c, 0, 50, 0
2, 13596, Note_on_c, 0, 73, 83
2, 13614, Note_on_c, 0, 52, 49
2, 13621, Note_on_c, 0, 69, 38
2, 13632, Note_on_c, 0, 64, 14
2, 13684, Control_c, 0, 64, 63
2, 13699, Control_c, 0, 64, 0
2, 13837, Control_c, 0, 64, 63
2, 13839, Control_c, 0, 64, 127
2, 13881, Note_on_c, 0, 64, 0
2, 13907, Note_on_c, 0, 69, 0
2, 13914, Note_on_c, 0, 73, 0
2, 14008, Note_on_c, 0, 52, 0
2, 14169, Note_on_c, 0, 71, 63
2, 14174, Note_on_c, 0, 40, 45
2, 14176, Note_on_c, 0, 68, 57
2, 14180, Note_on_c, 0, 62, 23
2, 14183, Note_on_c, 0, 64, 49
2, 14208, Control_c, 0, 64, 63
2, 14223, Control_c, 0, 64, 0
2, 14259, Control_c, 0, 64, 63
2, 14269, Control_c, 0, 64, 127
2, 14300, Note_on_c, 0, 40, 0
2, 14319, Note_on_c, 0, 71, 0
2, 14324, Note_on_c, 0, 62, 0
2, 14327, Note_on_c, 0, 64, 0
2, 14338, Note_on_c, 0, 68, 0
2, 14535, Note_on_c, 0, 69, 63
2, 14541, Note_on_c, 0, 64, 45
2, 14544, Note_on_c, 0, 61, 20
2, 14548, Note_on_c, 0, 45, 30
2, 14612, Control_c, 0, 64, 63
2, 14639, Control_c, 0, 64, 0
2, 14728, Control_c, 0, 64, 63
2, 14738, Control_c, 0, 64, 127
2, 14913, Note_on_c, 0, 61, 0
2, 14919, Note_on_c, 0, 45, 0
2, 14940, Note_on_c, 0, 64, 0
2, 14990, Note_on_c, 0, 69, 0
2, 15281, Control_c, 0, 64, 63
2, 15312, Control_c, 0, 64, 0
2, 15595, Note_on_c, 0, 57, 37
2, 15601, Note_on_c, 0, 76, 67
2, 15634, Control_c, 0, 64, 63
2, 15639, Control_c, 0, 64, 127
2, 15821, Note_on_c, 0, 76, 0
2, 15862, Note_on_c, 0, 61, 66
2, 15874, Note_on_c, 0, 57, 0
2, 15961, Note_on_c, 0, 78, 86
2, 16068, Note_on_c, 0, 61, 0
2, 16068, Note_on_c, 0, 76, 93
2, 16077, Note_on_c, 0, 64, 62
2, 16088, Note_on_c, 0, 78, 0
2, 16150, Control_c, 0, 64, 63
2, 16168, Control_c, 0, 64, 0
2, 16209, Control_c, 0, 64, 63
2, 16219, Control_c, 0, 64, 127
2, 16307, Note_on_c, 0, 78, 99
2, 16309, Note_on_c, 0, 57, 59
2, 16328, Note_on_c, 0, 76, 0
2, 16333, Note_on_c, 0, 64, 0
2, 16403, Control_c, 0, 64, 63
2, 16409, Control_c, 0, 64, 0
2, 16478, Control_c, 0, 64, 63
2, 16485, Control_c, 0, 64, 127
2, 16550, Note_on_c, 0, 62, 89
2, 16601, Note_on_c, 0, 57, 0
2, 16626, Note_on_c, 0, 78, 0
2, 16774, Note_on_c, 0, 78, 108
2, 16780, Note_on_c, 0, 66, 75
2, 16792, Note_on_c, 0, 62, 0
2, 16850, Note_on_c, 0, 78, 0
2, 16927, Note_on_c, 0, 78, 88
2, 16962, Note_on_c, 0, 66, 0
2, 16966, Note_on_c, 0, 80, 93
2, 16976, Note_on_c, 0, 57, 33
2, 16982, Note_on_c, 0, 78, 0
2, 17001, Note_on_c, 0, 81, 96
2, 17027, Note_on_c, 0, 80, 0
2, 17071, Control_c, 0, 64, 63
2, 17081, Control_c, 0, 64, 0
2, 17142, Control_c, 0, 64, 63
2, 17149, Control_c, 0, 64, 127
2, 17230, Note_on_c, 0, 62, 69
2, 17241, Note_on_c, 0, 57, 0
2, 17319, Note_on_c, 0, 80, 92
2, 17323, Note_on_c, 0, 81, 0
2, 17436, Note_on_c, 0, 78, 86
2, 17449, Note_on_c, 0, 66, 49
2, 17454, Note_on_c, 0, 62, 0
2, 17467, Control_c, 0, 64, 63
2, 17470, Note_on_c, 0, 80, 0
2, 17483, Control_c, 0, 64, 0
2, 17527, Control_c, 0, 64, 63
2, 17538, Control_c, 0, 64, 127
2, 17579, Note_on_c, 0, 78, 0
2, 17648, Note_on_c, 0, 66, 0
2, 17663, Note_on_c, 0, 78, 84
2, 17667, Note_on_c, 0, 57, 48
2, 17707, Control_c, 0, 64, 63
2, 17719, Control_c, 0, 64, 0
2, 17771, Control_c, 0, 64, 63
2, 17781, Control_c, 0, 64, 127
2, 17884, Note_on_c, 0, 76, 69
2, 17885, Note_on_c, 0, 78, 0
2, 17887, Note_on_c, 0, 61, 69
2, 17895, Note_on_c, 0, 57, 0
2, 17903, Control_c, 0, 64, 63
2, 17917, Control_c, 0, 64, 0
2, 17933, Note_on_c, 0, 76, 0
2, 18110, Note_on_c, 0, 76, 75
2, 18114, Note_on_c, 0, 61, 0
2, 18136, Note_on_c, 0, 64, 26
2, 18160, Note_on_c, 0, 76, 0
2, 18340, Note_on_c, 0, 76, 101
2, 18347, Note_on_c, 0, 64, 0
2, 18354, Note_on_c, 0, 57, 59
2, 18354, Note_on_c, 0, 61, 83
2, 18356, Control_c, 0, 64, 127
2, 18545, Note_on_c, 0, 57, 0
2, 18559, Note_on_c, 0, 73, 93
2, 18572, Note_on_c, 0, 76, 0
2, 18577, Note_on_c, 0, 61, 0
2, 18592, Note_on_c, 0, 73, 0
2, 18598, Control_c, 0, 64, 63
2, 18605, Control_c, 0, 64, 0
2, 18775, Note_on_c, 0, 69, 65
2, 18827, Note_on_c, 0, 69, 0
2, 18989, Note_on_c, 0, 56, 88
2, 18989, Note_on_c, 0, 76, 99
2, 18990, Control_c, 0, 64, 63
2, 18991, Control_c, 0, 64, 127
2, 18993, Note_on_c, 0, 62, 87
2, 19224, Note_on_c, 0, 74, 88
2, 19229, Note_on_c, 0, 76, 0
2, 19234, Note_on_c, 0, 62, 0
2, 19248, Note_on_c, 0, 56, 0
2, 19265, Control_c, 0, 64, 63
2, 19266, Note_on_c, 0, 74, 0
2, 19284, Control_c, 0, 64, 0
2, 19433, Note_on_c, 0, 71, 73
2, 19491, Note_on_c, 0, 71, 0
2, 19636, Control_c, 0, 64, 63
2, 19641, Control_c, 0, 64, 127
2, 19651, Note_on_c, 0, 61, 99
2, 19653, Note_on_c, 0, 76, 106
2, 19654, Note_on_c, 0, 57, 73
2, 19899, Note_on_c, 0, 73, 93
2, 19907, Note_on_c, 0, 76, 0
2, 19914, Note_on_c, 0, 61, 0
2, 19920, Note_on_c, 0, 57, 0
2, 19976, Note_on_c, 0, 73, 0
2, 20127, Note_on_c, 0, 69, 87
2, 20130, Note_on_c, 0, 63, 87
2, 20132, Note_on_c, 0, 54, 86
2, 20163, Control_c, 0, 64, 63
2, 20171, Control_c, 0, 64, 0
2, 20229, Control_c, 0, 64, 63
2, 20236, Control_c, 0, 64, 127
2, 20289, Note_on_c, 0, 69, 0
2, 20340, Note_on_c, 0, 63, 0
2, 20396, Note_on_c, 0, 54, 0
2, 20423, Note_on_c, 0, 73, 97
2, 20429, Note_on_c, 0, 69, 72
2, 20434, Note_on_c, 0, 64, 60
2, 20435, Note_on_c, 0, 52, 51
2, 20485, Control_c, 0, 64, 63
2, 20499, Control_c, 0, 64, 0
2, 20700, Control_c, 0, 64, 63
2, 20706, Control_c, 0, 64, 127
2, 20879, Note_on_c, 0, 73, 0
2, 20900, Note_on_c, 0, 69, 0
2, 21009, Note_on_c, 0, 71, 53
2, 21013, Note_on_c, 0, 68, 56
2, 21035, Control_c, 0, 64, 63
2, 21052, Control_c, 0, 64, 0
2, 21102, Control_c, 0, 64, 63
2, 21113, Control_c, 0, 64, 127
2, 21134, Note_on_c, 0, 52, 0
2, 21159, Note_on_c, 0, 68, 0
2, 21172, Note_on_c, 0, 71, 0
2, 21183, Note_on_c, 0, 64, 0
2, 21347, Control_c, 0, 64, 63
2, 21361, Note_on_c, 0, 73, 78
2, 21376, Note_on_c, 0, 57, 24
2, 21386, Note_on_c, 0, 64, 19
2, 21388, Control_c, 0, 64, 0
2, 21482, Control_c, 0, 64, 63
2, 21493, Control_c, 0, 64, 127
2, 21595, Note_on_c, 0, 73, 0
2, 21650, Note_on_c, 0, 57, 0
2, 21735, Note_on_c, 0, 74, 64
2, 21744, Note_on_c, 0, 59, 49
2, 21790, Note_on_c, 0, 64, 0
2, 21859, Note_on_c, 0, 73, 83
2, 21866, Note_on_c, 0, 74, 0
2, 21873, Note_on_c, 0, 59, 0
2, 21877, Note_on_c, 0, 57, 26
2, 21882, Note_on_c, 0, 64, 19
2, 21887, Control_c, 0, 64, 63
2, 21900, Control_c, 0, 64, 0
2, 21968, Control_c, 0, 64, 63
2, 21975, Control_c, 0, 64, 127
2, 22029, Note_on_c, 0, 73, 0
2, 22039, Note_on_c, 0, 64, 0
2, 22080, Note_on_c, 0, 57, 0
2, 22117, Note_on_c, 0, 76, 73
2, 22121, Note_on_c, 0, 64, 31
2, 22130, Note_on_c, 0, 61, 54
2, 22178, Control_c, 0, 64, 63
2, 22193, Control_c, 0, 64, 0
2, 22270, Control_c, 0, 64, 63
2, 22280, Control_c, 0, 64, 127
2, 22375, Note_on_c, 0, 76, 0
2, 22407, Note_on_c, 0, 61, 0
2, 22407, Note_on_c, 0, 64, 0
2, 22605, Note_on_c, 0, 76, 70
2, 22608, Note_on_c, 0, 61, 62
2, 22615, Note_on_c, 0, 64, 46
2, 22631, Control_c, 0, 64, 63
2, 22643, Control_c, 0, 64, 0
2, 22694, Control_c, 0, 64, 63
2, 22704, Control_c, 0, 64, 127
2, 22785, Note_on_c, 0, 64, 0
2, 22789, Note_on_c, 0, 61, 0
2, 22804, Note_on_c, 0, 76, 0
2, 22867, Note_on_c, 0, 71, 75
2, 22870, Note_on_c, 0, 56, 70
2, 22874, Note_on_c, 0, 64, 40
2, 22921, Control_c, 0, 64, 63
2, 22935, Control_c, 0, 64, 0
2, 23005, Control_c, 0, 64, 63
2, 23014, Control_c, 0, 64, 127
2, 23108, Note_on_c, 0, 56, 0
2, 23111, Note_on_c, 0, 71, 0
2, 23248, Note_on_c, 0, 57, 47
2, 23252, Note_on_c, 0, 73, 72
2, 23296, Note_on_c, 0, 64, 0
2, 23370, Note_on_c, 0, 56, 62
2, 23376, Note_on_c, 0, 71, 72
2, 23385, Note_on_c, 0, 64, 21
2, 23396, Note_on_c, 0, 57, 0
2, 23403, Note_on_c, 0, 73, 0
2, 23417, Control_c, 0, 64, 63
2, 23429, Control_c, 0, 64, 0
2, 23489, Control_c, 0, 64, 63
2, 23499, Control_c, 0, 64, 127
2, 23542, Note_on_c, 0, 64, 0
2, 23583, Note_on_c, 0, 71, 0
2, 23598, Note_on_c, 0, 56, 0
2, 23625, Note_on_c, 0, 74, 82
2, 23636, Note_on_c, 0, 64, 31
2, 23638, Note_on_c, 0, 59, 54
2, 23663, Control_c, 0, 64, 63
2, 23676, Control_c, 0, 64, 0
2, 23744, Control_c, 0, 64, 63
2, 23754, Control_c, 0, 64, 127
2, 23883, Note_on_c, 0, 74, 0
2, 23900, Note_on_c, 0, 59, 0
2, 23908, Note_on_c, 0, 64, 0
2, 24114, Note_on_c, 0, 74, 69
2, 24124, Note_on_c, 0, 59, 37
2, 24124, Note_on_c, 0, 64, 24
2, 24142, Control_c, 0, 64, 63
2, 24156, Control_c, 0, 64, 0
2, 24206, Control_c, 0, 64, 63
2, 24216, Control_c, 0, 64, 127
2, 24300, Note_on_c, 0, 74, 0
2, 24301, Note_on_c, 0, 64, 0
2, 24314, Note_on_c, 0, 59, 0
2, 24372, Note_on_c, 0, 69, 70
2, 24382, Note_on_c, 0, 64, 43
2, 24384, Note_on_c, 0, 54, 68
2, 24433, Control_c, 0, 64, 63
2, 24447, Control_c, 0, 64, 0
2, 24508, Control_c, 0, 64, 63
2, 24518, Control_c, 0, 64, 127
2, 24705, Note_on_c, 0, 64, 0
2, 24719, Note_on_c, 0, 54, 0
2, 24719, Note_on_c, 0, 69, 0
2, 24854, Note_on_c, 0, 71, 88
2, 24857, Note_on_c, 0, 56, 77
2, 24860, Note_on_c, 0, 64, 53
2, 24930, Control_c, 0, 64, 63
2, 24948, Control_c, 0, 64, 0
2, 24986, Control_c, 0, 64, 63
2, 24995, Control_c, 0, 64, 127
2, 25058, Note_on_c, 0, 64, 0
2, 25087, Note_on_c, 0, 71, 0
2, 25121, Note_on_c, 0, 73, 101
2, 25123, Note_on_c, 0, 64, 67
2, 25124, Note_on_c, 0, 56, 0
2, 25127, Note_on_c, 0, 57, 65
2, 25229, Control_c, 0, 64, 63
2, 25240, Control_c, 0, 64, 0
2, 25306, Control_c, 0, 64, 63
2, 25313, Control_c, 0, 64, 127
2, 25402, Note_on_c, 0, 64, 0
2, 25443, Note_on_c, 0, 73, 0
2, 25494, Note_on_c, 0, 57, 0
2, 25684, Note_on_c, 0, 74, 98
2, 25689, Note_on_c, 0, 50, 89
2, 25690, Note_on_c, 0, 71, 89
2, 25693, Note_on_c, 0, 66, 85
2, 25728, Control_c, 0, 64, 63
2, 25736, Control_c, 0, 64, 0
2, 25793, Control_c, 0, 64, 63
2, 25797, Control_c, 0, 64, 127
2, 25873, Note_on_c, 0, 66, 0
2, 25896, Note_on_c, 0, 74, 0
2, 25902, Note_on_c, 0, 71, 0
2, 25938, Note_on_c, 0, 50, 0
2, 26009, Note_on_c, 0, 73, 77
2, 26018, Note_on_c, 0, 64, 50
2, 26019, Note_on_c, 0, 52, 54
2, 26021, Note_on_c, 0, 69, 68
2, 26085, Control_c, 0, 64, 63
2, 26096, Control_c, 0, 64, 0
2, 26240, Control_c, 0, 64, 63
2, 26242, Control_c, 0, 64, 127
2, 26327, Note_on_c, 0, 73, 0
2, 26334, Note_on_c, 0, 69, 0
2, 26335, Note_on_c, 0, 64, 0
2, 26405, Note_on_c, 0, 52, 0
2, 26547, Note_on_c, 0, 40, 60
2, 26556, Note_on_c, 0, 68, 68
2, 26556, Note_on_c, 0, 71, 76
2, 26562, Note_on_c, 0, 64, 51
2, 26598, Control_c, 0, 64, 63
2, 26610, Control_c, 0, 64, 0
2, 26658, Control_c, 0, 64, 63
2, 26666, Control_c, 0, 64, 127
2, 26708, Note_on_c, 0, 40, 0
2, 26733, Note_on_c, 0, 64, 0
2, 26734, Note_on_c, 0, 68, 0
2, 26753, Note_on_c, 0, 71, 0
2, 26879, Note_on_c, 0, 71, 68
2, 26880, Note_on_c, 0, 68, 63
2, 26887, Note_on_c, 0, 64, 42
2, 26891, Note_on_c, 0, 45, 41
2, 26938, Control_c, 0, 64, 63
2, 26955, Control_c, 0, 64, 0
2, 27104, Control_c, 0, 64, 63
2, 27108, Control_c, 0, 64, 127
2, 27236, Note_on_c, 0, 68, 0
2, 27262, Note_on_c, 0, 71, 0
2, 27529, Note_on_c, 0, 73, 58
2, 27538, Note_on_c, 0, 69, 38
2, 27570, Control_c, 0, 64, 63
2, 27581, Control_c, 0, 64, 0
2, 27625, Control_c, 0, 64, 63
2, 27634, Control_c, 0, 64, 127
2, 27647, Note_on_c, 0, 64, 0
2, 27657, Note_on_c, 0, 73, 0
2, 27660, Note_on_c, 0, 45, 0
2, 27664, Note_on_c, 0, 69, 0
2, 27833, Control_c, 0, 64, 63
2, 27841, Control_c, 0, 64, 0
2, 27914, Note_on_c, 0, 73, 110
2, 27915, Note_on_c, 0, 57, 102
2, 27918, Note_on_c, 0, 69, 90
2, 27918, Note_on_c, 0, 45, 99
2, 27921, Note_on_c, 0, 64, 88
2, 28171, Control_c, 0, 64, 63
2, 28172, Control_c, 0, 64, 127
2, 28232, Note_on_c, 0, 64, 0
2, 28261, Note_on_c, 0, 69, 0
2, 28276, Note_on_c, 0, 45, 0
2, 28300, Note_on_c, 0, 73, 0
2, 28313, Note_on_c, 0, 57, 0
2, 28440, Note_on_c, 0, 74, 107
2, 28442, Note_on_c, 0, 47, 96
2, 28442, Note_on_c, 0, 68, 104
2, 28442, Note_on_c, 0, 59, 101
2, 28446, Note_on_c, 0, 64, 90
2, 28471, Control_c, 0, 64, 63
2, 28476, Control_c, 0, 64, 0
2, 28509, Control_c, 0, 64, 63
2, 28517, Control_c, 0, 64, 127
2, 28569, Note_on_c, 0, 74, 0
2, 28571, Note_on_c, 0, 47, 0
2, 28579, Note_on_c, 0, 68, 0
2, 28602, Note_on_c, 0, 59, 0
2, 28602, Note_on_c, 0, 64, 0
2, 28710, Note_on_c, 0, 76, 109
2, 28714, Note_on_c, 0, 61, 113
2, 28716, Note_on_c, 0, 69, 94
2, 28718, Note_on_c, 0, 64, 95
2, 28722, Note_on_c, 0, 49, 101
2, 28778, Control_c, 0, 64, 63
2, 28785, Control_c, 0, 64, 0
2, 28927, Control_c, 0, 64, 63
2, 28928, Control_c, 0, 64, 127
2, 28992, Note_on_c, 0, 64, 0
2, 29018, Note_on_c, 0, 69, 0
2, 29034, Note_on_c, 0, 49, 0
2, 29038, Note_on_c, 0, 61, 0
2, 29044, Note_on_c, 0, 76, 0
2, 29217, Note_on_c, 0, 78, 108
2, 29223, Note_on_c, 0, 62, 99
2, 29227, Note_on_c, 0, 50, 92
2, 29260, Control_c, 0, 64, 63
2, 29270, Control_c, 0, 64, 0
2, 29309, Control_c, 0, 64, 63
2, 29318, Control_c, 0, 64, 127
2, 29386, Note_on_c, 0, 62, 0
2, 29394, Note_on_c, 0, 50, 0
2, 29394, Note_on_c, 0, 80, 96
2, 29416, Note_on_c, 0, 78, 0
2, 29445, Note_on_c, 0, 81, 99
2, 29454, Note_on_c, 0, 80, 0
2, 29497, Note_on_c, 0, 81, 0
2, 29529, Note_on_c, 0, 69, 87
2, 29535, Note_on_c, 0, 61, 86
2, 29559, Note_on_c, 0, 52, 60
2, 29590, Control_c, 0, 64, 63
2, 29602, Control_c, 0, 64, 0
2, 29838, Control_c, 0, 64, 63
2, 29841, Control_c, 0, 64, 127
2, 29986, Note_on_c, 0, 61, 0
2, 29995, Note_on_c, 0, 52, 0
2, 30044, Note_on_c, 0, 69, 0
2, 30153, Note_on_c, 0, 68, 68
2, 30154, Note_on_c, 0, 73, 81
2, 30161, Note_on_c, 0, 52, 43
2, 30168, Note_on_c, 0, 62, 43
2, 30202, Control_c, 0, 64, 63
2, 30210, Control_c, 0, 64, 0
2, 30275, Control_c, 0, 64, 63
2, 30282, Control_c, 0, 64, 127
2, 30316, Note_on_c, 0, 52, 0
2, 30323, Note_on_c, 0, 71, 74
2, 30330, Note_on_c, 0, 73, 0
2, 30459, Note_on_c, 0, 68, 0
2, 30529, Note_on_c, 0, 71, 0
2, 30538, Note_on_c, 0, 61, 47
2, 30541, Note_on_c, 0, 69, 52
2, 30551, Note_on_c, 0, 57, 38
2, 30570, Note_on_c, 0, 62, 0
2, 30598, Control_c, 0, 64, 63
2, 30615, Control_c, 0, 64, 0
2, 31343, Note_on_c, 0, 69, 0
2, 31348, Note_on_c, 0, 61, 0
2, 31353, Note_on_c, 0, 57, 0
2, 31706, Note_on_c, 0, 72, 63
2, 31792, Note_on_c, 0, 72, 0
2, 31799, Note_on_c, 0, 73, 68
2, 31839, Note_on_c, 0, 73, 0
2, 31892, Note_on_c, 0, 57, 46
2, 31895, Note_on_c, 0, 64, 33
2, 31975, Note_on_c, 0, 57, 0
2, 31975, Note_on_c, 0, 73, 86
2, 31987, Note_on_c, 0, 64, 0
2, 32040, Note_on_c, 0, 73, 0
2, 32060, Note_on_c, 0, 72, 73
2, 32123, Note_on_c, 0, 72, 0
2, 32136, Note_on_c, 0, 73, 85
2, 32208, Note_on_c, 0, 73, 0
2, 32222, Note_on_c, 0, 75, 75
2, 32290, Note_on_c, 0, 75, 0
2, 32301, Note_on_c, 0, 76, 58
2, 32361, Note_on_c, 0, 76, 0
2, 32386, Note_on_c, 0, 61, 66
2, 32390, Note_on_c, 0, 64, 45
2, 32472, Note_on_c, 0, 76, 92
2, 32474, Note_on_c, 0, 61, 0
2, 32494, Note_on_c, 0, 64, 0
2, 32552, Note_on_c, 0, 78, 91
2, 32562, Note_on_c, 0, 76, 0
2, 32630, Note_on_c, 0, 76, 83
2, 32634, Note_on_c, 0, 78, 0
2, 32676, Note_on_c, 0, 76, 0
2, 32717, Note_on_c, 0, 76, 76
2, 32798, Note_on_c, 0, 71, 62
2, 32800, Note_on_c, 0, 76, 0
2, 32857, Note_on_c, 0, 71, 0
2, 32894, Note_on_c, 0, 56, 62
2, 32898, Note_on_c, 0, 64, 32
2, 32976, Note_on_c, 0, 71, 91
2, 33030, Note_on_c, 0, 64, 0
2, 33044, Note_on_c, 0, 56, 0
2, 33057, Note_on_c, 0, 70, 92
2, 33067, Note_on_c, 0, 71, 0
2, 33137, Note_on_c, 0, 71, 84
2, 33140, Note_on_c, 0, 70, 0
2, 33202, Note_on_c, 0, 71, 0
2, 33218, Note_on_c, 0, 73, 89
2, 33284, Note_on_c, 0, 73, 0
2, 33300, Note_on_c, 0, 74, 68
2, 33361, Note_on_c, 0, 74, 0
2, 33394, Note_on_c, 0, 64, 41
2, 33395, Note_on_c, 0, 59, 56
2, 33470, Note_on_c, 0, 74, 93
2, 33504, Note_on_c, 0, 64, 0
2, 33514, Note_on_c, 0, 59, 0
2, 33553, Note_on_c, 0, 76, 77
2, 33557, Note_on_c, 0, 74, 0
2, 33629, Note_on_c, 0, 74, 90
2, 33632, Note_on_c, 0, 76, 0
2, 33675, Note_on_c, 0, 74, 0
2, 33715, Note_on_c, 0, 74, 80
2, 33794, Note_on_c, 0, 69, 55
2, 33795, Note_on_c, 0, 74, 0
2, 33857, Note_on_c, 0, 69, 0
2, 33886, Note_on_c, 0, 54, 85
2, 33887, Note_on_c, 0, 64, 68
2, 33971, Note_on_c, 0, 69, 90
2, 33981, Note_on_c, 0, 64, 0
2, 33989, Note_on_c, 0, 54, 0
2, 34055, Note_on_c, 0, 68, 99
2, 34066, Note_on_c, 0, 69, 0
2, 34132, Note_on_c, 0, 69, 81
2, 34138, Note_on_c, 0, 68, 0
2, 34209, Note_on_c, 0, 69, 0
2, 34230, Note_on_c, 0, 70, 85
2, 34299, Note_on_c, 0, 70, 0
2, 34301, Note_on_c, 0, 71, 69
2, 34349, Note_on_c, 0, 71, 0
2, 34388, Note_on_c, 0, 64, 75
2, 34389, Note_on_c, 0, 56, 87
2, 34469, Note_on_c, 0, 71, 94
2, 34498, Note_on_c, 0, 64, 0
2, 34519, Note_on_c, 0, 56, 0
2, 34549, Note_on_c, 0, 70, 101
2, 34553, Note_on_c, 0, 71, 0
2, 34628, Note_on_c, 0, 70, 0
2, 34628, Note_on_c, 0, 71, 93
2, 34692, Note_on_c, 0, 71, 0
2, 34708, Note_on_c, 0, 64, 80
2, 34709, Note_on_c, 0, 57, 76
2, 34711, Note_on_c, 0, 72, 98
2, 34788, Note_on_c, 0, 73, 103
2, 34794, Note_on_c, 0, 72, 0
2, 34874, Note_on_c, 0, 72, 104
2, 34885, Note_on_c, 0, 57, 0
2, 34897, Note_on_c, 0, 73, 0
2, 34937, Note_on_c, 0, 64, 0
2, 34943, Note_on_c, 0, 73, 102
2, 34962, Note_on_c, 0, 72, 0
2, 35025, Note_on_c, 0, 54, 92
2, 35026, Note_on_c, 0, 76, 90
2, 35027, Note_on_c, 0, 50, 84
2, 35043, Note_on_c, 0, 73, 0
2, 35071, Note_on_c, 0, 54, 0
2, 35079, Note_on_c, 0, 50, 0
2, 35102, Note_on_c, 0, 74, 95
2, 35110, Note_on_c, 0, 76, 0
2, 35187, Note_on_c, 0, 56, 102
2, 35192, Note_on_c, 0, 73, 105
2, 35193, Note_on_c, 0, 52, 88
2, 35199, Note_on_c, 0, 74, 0
2, 35266, Note_on_c, 0, 71, 88
2, 35276, Note_on_c, 0, 73, 0
2, 35357, Note_on_c, 0, 71, 0
2, 35357, Note_on_c, 0, 69, 84
2, 35427, Note_on_c, 0, 68, 104
2, 35432, Note_on_c, 0, 56, 0
2, 35433, Note_on_c, 0, 69, 0
2, 35455, Note_on_c, 0, 52, 0
2, 35507, Note_on_c, 0, 66, 104
2, 35519, Note_on_c, 0, 68, 0
2, 35567, Note_on_c, 0, 66, 0
2, 35589, Note_on_c, 0, 64, 75
2, 35634, Note_on_c, 0, 64, 0
2, 35669, Note_on_c, 0, 45, 104
2, 35672, Note_on_c, 0, 73, 120
2, 35674, Note_on_c, 0, 69, 106
2, 35675, Note_on_c, 0, 64, 107
2, 35683, Control_c, 0, 64, 127
2, 35735, Note_on_c, 0, 45, 0
2, 35737, Note_on_c, 0, 64, 0
2, 35751, Note_on_c, 0, 69, 0
2, 35762, Note_on_c, 0, 57, 70
2, 35769, Note_on_c, 0, 73, 0
2, 35808, Note_on_c, 0, 57, 0
2, 35856, Note_on_c, 0, 57, 68
2, 35883, Note_on_c, 0, 57, 0
2, 35919, Note_on_c, 0, 57, 70
2, 35959, Note_on_c, 0, 57, 0
2, 36007, Note_on_c, 0, 74, 99
2, 36008, Note_on_c, 0, 71, 95
2, 36013, Note_on_c, 0, 57, 89
2, 36026, Note_on_c, 0, 71, 0
2, 36045, Note_on_c, 0, 74, 0
2, 36052, Note_on_c, 0, 57, 0
2, 36078, Note_on_c, 0, 57, 88
2, 36146, Control_c, 0, 64, 63
2, 36149, Control_c, 0, 64, 0
2, 36165, Note_on_c, 0, 57, 0
2, 36168, Note_on_c, 0, 45, 113
2, 36168, Note_on_c, 0, 75, 120
2, 36171, Note_on_c, 0, 72, 109
2, 36203, Control_c, 0, 64, 63
2, 36206, Control_c, 0, 64, 127
2, 36223, Note_on_c, 0, 45, 0
2, 36250, Note_on_c, 0, 57, 71
2, 36260, Note_on_c, 0, 72, 0
2, 36286, Note_on_c, 0, 75, 0
2, 36301, Note_on_c, 0, 57, 0
2, 36333, Note_on_c, 0, 76, 101
2, 36334, Control_c, 0, 64, 63
2, 36336, Note_on_c, 0, 73, 106
2, 36339, Control_c, 0, 64, 0
2, 36348, Note_on_c, 0, 57, 89
2, 36360, Note_on_c, 0, 73, 0
2, 36367, Note_on_c, 0, 76, 0
2, 36380, Note_on_c, 0, 57, 0
2, 36412, Note_on_c, 0, 57, 77
2, 36453, Note_on_c, 0, 57, 0
2, 36488, Control_c, 0, 64, 63
2, 36489, Control_c, 0, 64, 127
2, 36496, Note_on_c, 0, 57, 88
2, 36535, Note_on_c, 0, 57, 0
2, 36565, Note_on_c, 0, 57, 76
2, 36572, Note_on_c, 0, 73, 102
2, 36577, Note_on_c, 0, 69, 69
2, 36581, Note_on_c, 0, 64, 65
2, 36604, Note_on_c, 0, 69, 0
2, 36604, Note_on_c, 0, 57, 0
2, 36611, Note_on_c, 0, 64, 0
2, 36617, Note_on_c, 0, 73, 0
2, 36642, Control_c, 0, 64, 63
2, 36643, Control_c, 0, 64, 0
2, 36652, Note_on_c, 0, 40, 103
2, 36653, Note_on_c, 0, 71, 101
2, 36655, Note_on_c, 0, 68, 105
2, 36655, Note_on_c, 0, 64, 96
2, 36675, Note_on_c, 0, 64, 0
2, 36681, Note_on_c, 0, 68, 0
2, 36685, Note_on_c, 0, 71, 0
2, 36690, Note_on_c, 0, 40, 0
2, 36723, Note_on_c, 0, 52, 86
2, 36757, Note_on_c, 0, 52, 0
2, 36820, Note_on_c, 0, 71, 101
2, 36821, Note_on_c, 0, 68, 102
2, 36823, Note_on_c, 0, 64, 82
2, 36827, Note_on_c, 0, 52, 91
2, 36842, Note_on_c, 0, 68, 0
2, 36843, Note_on_c, 0, 64, 0
2, 36854, Note_on_c, 0, 71, 0
2, 36855, Note_on_c, 0, 52, 0
2, 36891, Note_on_c, 0, 52, 71
2, 36927, Note_on_c, 0, 52, 0
2, 36974, Note_on_c, 0, 69, 108
2, 36976, Note_on_c, 0, 52, 97
2, 36991, Note_on_c, 0, 73, 83
2, 37004, Note_on_c, 0, 69, 0
2, 37009, Note_on_c, 0, 73, 0
2, 37020, Note_on_c, 0, 52, 0
2, 37047, Note_on_c, 0, 52, 89
2, 37115, Note_on_c, 0, 52, 0
2, 37133, Note_on_c, 0, 73, 118
2, 37136, Note_on_c, 0, 70, 95
2, 37136, Note_on_c, 0, 40, 107
2, 37137, Note_on_c, 0, 64, 106
2, 37158, Control_c, 0, 64, 127
2, 37163, Note_on_c, 0, 70, 0
2, 37179, Note_on_c, 0, 40, 0
2, 37186, Note_on_c, 0, 64, 0
2, 37197, Note_on_c, 0, 73, 0
2, 37213, Note_on_c, 0, 52, 67
2, 37261, Note_on_c, 0, 52, 0
2, 37310, Note_on_c, 0, 74, 105
2, 37312, Note_on_c, 0, 52, 94
2, 37312, Note_on_c, 0, 71, 102
2, 37327, Control_c, 0, 64, 63
2, 37329, Control_c, 0, 64, 0
2, 37345, Note_on_c, 0, 71, 0
2, 37348, Note_on_c, 0, 52, 0
2, 37351, Note_on_c, 0, 74, 0
2, 37382, Note_on_c, 0, 52, 73
2, 37429, Note_on_c, 0, 52, 0
2, 37470, Note_on_c, 0, 52, 88
2, 37510, Note_on_c, 0, 52, 0
2, 37542, Note_on_c, 0, 52, 77
2, 37546, Note_on_c, 0, 71, 95
2, 37548, Note_on_c, 0, 68, 87
2, 37566, Note_on_c, 0, 68, 0
2, 37584, Note_on_c, 0, 71, 0
2, 37584, Note_on_c, 0, 52, 0
2, 37625, Note_on_c, 0, 42, 93
2, 37629, Note_on_c, 0, 69, 104
2, 37634, Control_c, 0, 64, 127
2, 37656, Note_on_c, 0, 69, 0
2, 37659, Note_on_c, 0, 42, 0
2, 37697, Note_on_c, 0, 54, 74
2, 37712, Control_c, 0, 64, 63
2, 37716, Control_c, 0, 64, 0
2, 37736, Note_on_c, 0, 54, 0
2, 37802, Note_on_c, 0, 54, 99
2, 37806, Note_on_c, 0, 69, 101
2, 37835, Note_on_c, 0, 54, 0
2, 37838, Note_on_c, 0, 69, 0
2, 37866, Note_on_c, 0, 54, 93
2, 37918, Note_on_c, 0, 54, 0
2, 37955, Note_on_c, 0, 44, 97
2, 37956, Control_c, 0, 64, 63
2, 37957, Control_c, 0, 64, 127
2, 37973, Note_on_c, 0, 71, 108
2, 37988, Note_on_c, 0, 73, 106
2, 37993, Note_on_c, 0, 44, 0
2, 38003, Note_on_c, 0, 71, 0
2, 38007, Control_c, 0, 64, 63
2, 38012, Control_c, 0, 64, 0
2, 38019, Note_on_c, 0, 73, 0
2, 38032, Note_on_c, 0, 56, 93
2, 38037, Note_on_c, 0, 71, 89
2, 38061, Note_on_c, 0, 69, 75
2, 38074, Note_on_c, 0, 71, 0
2, 38081, Note_on_c, 0, 56, 0
2, 38100, Note_on_c, 0, 69, 0
2, 38107, Note_on_c, 0, 71, 60
2, 38118, Control_c, 0, 64, 127
2, 38121, Note_on_c, 0, 73, 114
2, 38122, Note_on_c, 0, 45, 81
2, 38129, Note_on_c, 0, 71, 0
2, 38144, Note_on_c, 0, 45, 0
2, 38155, Note_on_c, 0, 73, 0
2, 38179, Note_on_c, 0, 57, 75
2, 38219, Control_c, 0, 64, 63
2, 38223, Note_on_c, 0, 57, 0
2, 38226, Control_c, 0, 64, 0
2, 38277, Note_on_c, 0, 57, 89
2, 38279, Note_on_c, 0, 73, 105
2, 38317, Note_on_c, 0, 73, 0
2, 38317, Note_on_c, 0, 57, 0
2, 38348, Note_on_c, 0, 57, 74
2, 38384, Note_on_c, 0, 57, 0
2, 38432, Control_c, 0, 64, 127
2, 38442, Note_on_c, 0, 74, 106
2, 38445, Note_on_c, 0, 71, 97
2, 38448, Note_on_c, 0, 66, 102
2, 38448, Note_on_c, 0, 38, 104
2, 38482, Note_on_c, 0, 38, 0
2, 38483, Note_on_c, 0, 66, 0
2, 38486, Note_on_c, 0, 71, 0
2, 38499, Note_on_c, 0, 74, 0
2, 38518, Note_on_c, 0, 50, 91
2, 38566, Note_on_c, 0, 50, 0
2, 38573, Control_c, 0, 64, 63
2, 38575, Control_c, 0, 64, 0
2, 38610, Note_on_c, 0, 40, 103
2, 38612, Note_on_c, 0, 64, 92
2, 38612, Note_on_c, 0, 73, 106
2, 38613, Note_on_c, 0, 69, 91
2, 38626, Control_c, 0, 64, 63
2, 38629, Control_c, 0, 64, 127
2, 38633, Note_on_c, 0, 64, 0
2, 38640, Note_on_c, 0, 69, 0
2, 38645, Note_on_c, 0, 40, 0
2, 38647, Note_on_c, 0, 73, 0
2, 38680, Control_c, 0, 64, 63
2, 38685, Note_on_c, 0, 52, 56
2, 38686, Control_c, 0, 64, 0
2, 38722, Note_on_c, 0, 52, 0
2, 38789, Note_on_c, 0, 73, 85
2, 38790, Note_on_c, 0, 64, 70
2, 38791, Note_on_c, 0, 52, 82
2, 38813, Note_on_c, 0, 73, 0
2, 38816, Note_on_c, 0, 64, 0
2, 38817, Note_on_c, 0, 52, 0
2, 38864, Note_on_c, 0, 52, 73
2, 38925, Note_on_c, 0, 52, 0
2, 38945, Control_c, 0, 64, 63
2, 38946, Control_c, 0, 64, 127
2, 38952, Note_on_c, 0, 71, 98
2, 38953, Note_on_c, 0, 40, 90
2, 38955, Note_on_c, 0, 62, 89
2, 38958, Note_on_c, 0, 64, 75
2, 38960, Note_on_c, 0, 68, 81
2, 38982, Note_on_c, 0, 40, 0
2, 38984, Note_on_c, 0, 68, 0
2, 38985, Note_on_c, 0, 62, 0
2, 38988, Note_on_c, 0, 64, 0
2, 38998, Note_on_c, 0, 71, 0
2, 39027, Note_on_c, 0, 52, 79
2, 39032, Control_c, 0, 64, 63
2, 39038, Control_c, 0, 64, 0
2, 39054, Note_on_c, 0, 52, 0
2, 39133, Note_on_c, 0, 33, 81
2, 39136, Control_c, 0, 64, 63
2, 39137, Control_c, 0, 64, 127
2, 39143, Note_on_c, 0, 69, 88
2, 39144, Note_on_c, 0, 61, 94
2, 39145, Note_on_c, 0, 64, 78
2, 39167, Note_on_c, 0, 61, 0
2, 39168, Note_on_c, 0, 33, 0
2, 39170, Note_on_c, 0, 64, 0
2, 39193, Note_on_c, 0, 69, 0
2, 39345, Note_on_c, 0, 45, 61
2, 39382, Note_on_c, 0, 45, 0
2, 39538, Control_c, 0, 64, 63
2, 39545, Control_c, 0, 64, 0
2, 39716, Note_on_c, 0, 75, 79
2, 39727, Control_c, 0, 64, 63
2, 39742, Control_c, 0, 64, 127
2, 39788, Note_on_c, 0, 75, 0
2, 39804, Note_on_c, 0, 76, 48
2, 39872, Note_on_c, 0, 76, 0
2, 39893, Control_c, 0, 64, 63
2, 39895, Note_on_c, 0, 61, 57
2, 39905, Control_c, 0, 64, 0
2, 39907, Note_on_c, 0, 57, 44
2, 39991, Note_on_c, 0, 76, 70
2, 39998, Control_c, 0, 64, 63
2, 40008, Control_c, 0, 64, 127
2, 40052, Note_on_c, 0, 57, 0
2, 40075, Note_on_c, 0, 75, 100
2, 40086, Note_on_c, 0, 61, 0
2, 40092, Note_on_c, 0, 76, 0
2, 40097, Control_c, 0, 64, 63
2, 40118, Control_c, 0, 64, 0
2, 40151, Note_on_c, 0, 76, 101
2, 40163, Note_on_c, 0, 75, 0
2, 40234, Note_on_c, 0, 77, 105
2, 40255, Note_on_c, 0, 76, 0
2, 40307, Note_on_c, 0, 78, 110
2, 40335, Note_on_c, 0, 77, 0
2, 40388, Note_on_c, 0, 78, 0
2, 40397, Note_on_c, 0, 62, 81
2, 40400, Note_on_c, 0, 57, 62
2, 40482, Note_on_c, 0, 78, 109
2, 40535, Note_on_c, 0, 57, 0
2, 40542, Note_on_c, 0, 62, 0
2, 40559, Note_on_c, 0, 77, 103
2, 40583, Note_on_c, 0, 78, 0
2, 40632, Note_on_c, 0, 78, 117
2, 40662, Note_on_c, 0, 77, 0
2, 40707, Control_c, 0, 64, 63
2, 40711, Note_on_c, 0, 80, 110
2, 40714, Control_c, 0, 64, 127
2, 40716, Note_on_c, 0, 66, 97
2, 40720, Note_on_c, 0, 57, 81
2, 40739, Note_on_c, 0, 78, 0
2, 40791, Note_on_c, 0, 81, 105
2, 40825, Note_on_c, 0, 80, 0
2, 40836, Note_on_c, 0, 66, 0
2, 40840, Note_on_c, 0, 57, 0
2, 40867, Control_c, 0, 64, 63
2, 40876, Note_on_c, 0, 79, 101
2, 40881, Control_c, 0, 64, 0
2, 40883, Note_on_c, 0, 64, 75
2, 40884, Note_on_c, 0, 57, 52
2, 40890, Note_on_c, 0, 81, 0
2, 40957, Note_on_c, 0, 80, 102
2, 40969, Note_on_c, 0, 79, 0
2, 41005, Note_on_c, 0, 57, 0
2, 41033, Note_on_c, 0, 80, 0
2, 41039, Note_on_c, 0, 77, 76
2, 41045, Note_on_c, 0, 57, 65
2, 41051, Note_on_c, 0, 64, 0
2, 41053, Note_on_c, 0, 62, 56
2, 41110, Note_on_c, 0, 78, 77
2, 41123, Note_on_c, 0, 77, 0
2, 41147, Note_on_c, 0, 57, 0
2, 41160, Note_on_c, 0, 62, 0
2, 41202, Note_on_c, 0, 75, 93
2, 41205, Note_on_c, 0, 78, 0
2, 41279, Note_on_c, 0, 75, 0
2, 41287, Note_on_c, 0, 76, 66
2, 41351, Note_on_c, 0, 76, 0
2, 41375, Note_on_c, 0, 61, 76
2, 41377, Note_on_c, 0, 57, 49
2, 41467, Note_on_c, 0, 76, 73
2, 41521, Note_on_c, 0, 76, 0
2, 41542, Note_on_c, 0, 57, 0
2, 41544, Control_c, 0, 64, 63
2, 41545, Control_c, 0, 64, 127
2, 41552, Note_on_c, 0, 76, 87
2, 41567, Note_on_c, 0, 61, 0
2, 41609, Note_on_c, 0, 76, 0
2, 41635, Note_on_c, 0, 76, 105
2, 41693, Note_on_c, 0, 76, 0
2, 41742, Note_on_c, 0, 57, 89
2, 41742, Note_on_c, 0, 76, 105
2, 41743, Note_on_c, 0, 61, 105
2, 41758, Note_on_c, 0, 64, 41
2, 41782, Control_c, 0, 64, 63
2, 41785, Control_c, 0, 64, 0
2, 41826, Control_c, 0, 64, 63
2, 41830, Control_c, 0, 64, 127
2, 41859, Note_on_c, 0, 73, 99
2, 41914, Note_on_c, 0, 76, 0
2, 41947, Note_on_c, 0, 69, 76
2, 41958, Note_on_c, 0, 73, 0
2, 42010, Note_on_c, 0, 69, 0
2, 42020, Note_on_c, 0, 76, 93
2, 42042, Control_c, 0, 64, 63
2, 42046, Control_c, 0, 64, 0
2, 42073, Note_on_c, 0, 76, 0
2, 42102, Note_on_c, 0, 76, 96
2, 42145, Note_on_c, 0, 76, 0
2, 42157, Note_on_c, 0, 64, 0
2, 42167, Note_on_c, 0, 57, 0
2, 42180, Note_on_c, 0, 61, 0
2, 42186, Note_on_c, 0, 76, 86
2, 42236, Note_on_c, 0, 76, 0
2, 42267, Note_on_c, 0, 76, 101
2, 42268, Note_on_c, 0, 64, 89
2, 42270, Note_on_c, 0, 62, 89
2, 42272, Note_on_c, 0, 59, 86
2, 42295, Control_c, 0, 64, 63
2, 42296, Control_c, 0, 64, 127
2, 42359, Note_on_c, 0, 74, 95
2, 42370, Note_on_c, 0, 76, 0
2, 42425, Note_on_c, 0, 74, 0
2, 42448, Note_on_c, 0, 68, 81
2, 42507, Note_on_c, 0, 68, 0
2, 42526, Note_on_c, 0, 76, 88
2, 42573, Note_on_c, 0, 76, 0
2, 42600, Note_on_c, 0, 64, 0
2, 42602, Note_on_c, 0, 62, 0
2, 42613, Note_on_c, 0, 76, 89
2, 42619, Note_on_c, 0, 59, 0
2, 42660, Note_on_c, 0, 76, 0
2, 42690, Note_on_c, 0, 76, 102
2, 42745, Note_on_c, 0, 76, 0
2, 42776, Note_on_c, 0, 76, 101
2, 42780, Note_on_c, 0, 64, 97
2, 42783, Note_on_c, 0, 61, 102
2, 42795, Control_c, 0, 64, 63
2, 42800, Control_c, 0, 64, 0
2, 42856, Control_c, 0, 64, 63
2, 42861, Control_c, 0, 64, 127
2, 42873, Note_on_c, 0, 73, 106
2, 42910, Note_on_c, 0, 76, 0
2, 42949, Note_on_c, 0, 61, 0
2, 42958, Note_on_c, 0, 64, 0
2, 42961, Note_on_c, 0, 69, 90
2, 42993, Note_on_c, 0, 73, 0
2, 43020, Note_on_c, 0, 69, 0
2, 43028, Note_on_c, 0, 76, 104
2, 43134, Note_on_c, 0, 63, 85
2, 43142, Note_on_c, 0, 73, 100
2, 43150, Note_on_c, 0, 54, 80
2, 43152, Note_on_c, 0, 57, 60
2, 43161, Control_c, 0, 64, 63
2, 43170, Control_c, 0, 64, 0
2, 43179, Note_on_c, 0, 76, 0
2, 43230, Control_c, 0, 64, 63
2, 43231, Note_on_c, 0, 69, 95
2, 43238, Control_c, 0, 64, 127
2, 43246, Note_on_c, 0, 73, 0
2, 43295, Note_on_c, 0, 57, 0
2, 43310, Note_on_c, 0, 54, 0
2, 43315, Note_on_c, 0, 63, 0
2, 43329, Note_on_c, 0, 69, 0
2, 43385, Note_on_c, 0, 64, 70
2, 43385, Note_on_c, 0, 73, 110
2, 43387, Note_on_c, 0, 69, 82
2, 43401, Note_on_c, 0, 52, 24
2, 43459, Control_c, 0, 64, 63
2, 43475, Control_c, 0, 64, 0
2, 43626, Control_c, 0, 64, 63
2, 43630, Control_c, 0, 64, 127
2, 43849, Note_on_c, 0, 73, 0
2, 43874, Control_c, 0, 64, 63
2, 43878, Note_on_c, 0, 71, 57
2, 43879, Note_on_c, 0, 68, 45
2, 43885, Control_c, 0, 64, 0
2, 43894, Note_on_c, 0, 69, 0
2, 43947, Control_c, 0, 64, 63
2, 43955, Control_c, 0, 64, 127
2, 43996, Note_on_c, 0, 68, 0
2, 44015, Note_on_c, 0, 71, 0
2, 44027, Note_on_c, 0, 52, 0
2, 44072, Note_on_c, 0, 64, 0
2, 44124, Control_c, 0, 64, 63
2, 44129, Note_on_c, 0, 72, 78
2, 44135, Control_c, 0, 64, 0
2, 44212, Note_on_c, 0, 73, 82
2, 44218, Note_on_c, 0, 72, 0
2, 44256, Control_c, 0, 64, 63
2, 44264, Note_on_c, 0, 73, 0
2, 44280, Control_c, 0, 64, 127
2, 44302, Note_on_c, 0, 64, 52
2, 44304, Note_on_c, 0, 57, 50
2, 44353, Control_c, 0, 64, 63
2, 44381, Control_c, 0, 64, 0
2, 44388, Note_on_c, 0, 73, 85
2, 44468, Note_on_c, 0, 57, 0
2, 44472, Note_on_c, 0, 72, 85
2, 44474, Note_on_c, 0, 73, 0
2, 44478, Note_on_c, 0, 64, 0
2, 44520, Control_c, 0, 64, 63
2, 44547, Note_on_c, 0, 73, 102
2, 44561, Note_on_c, 0, 72, 0
2, 44605, Control_c, 0, 64, 0
2, 44628, Note_on_c, 0, 75, 92
2, 44640, Note_on_c, 0, 73, 0
2, 44716, Note_on_c, 0, 75, 0
2, 44716, Note_on_c, 0, 76, 64
2, 44791, Note_on_c, 0, 76, 0
2, 44808, Note_on_c, 0, 61, 63
2, 44809, Note_on_c, 0, 64, 51
2, 44894, Note_on_c, 0, 76, 79
2, 44968, Note_on_c, 0, 78, 87
2, 44977, Note_on_c, 0, 76, 0
2, 45003, Note_on_c, 0, 64, 0
2, 45006, Note_on_c, 0, 61, 0
2, 45049, Note_on_c, 0, 76, 82
2, 45054, Note_on_c, 0, 78, 0
2, 45102, Note_on_c, 0, 76, 0
2, 45136, Note_on_c, 0, 76, 78
2, 45222, Note_on_c, 0, 71, 68
2, 45232, Note_on_c, 0, 76, 0
2, 45292, Note_on_c, 0, 71, 0
2, 45312, Note_on_c, 0, 64, 52
2, 45313, Note_on_c, 0, 56, 71
2, 45389, Note_on_c, 0, 71, 95
2, 45468, Note_on_c, 0, 64, 0
2, 45474, Note_on_c, 0, 70, 95
2, 45485, Note_on_c, 0, 71, 0
2, 45490, Note_on_c, 0, 56, 0
2, 45551, Note_on_c, 0, 71, 85
2, 45559, Note_on_c, 0, 70, 0
2, 45629, Note_on_c, 0, 71, 0
2, 45643, Note_on_c, 0, 73, 84
2, 45730, Note_on_c, 0, 74, 75
2, 45737, Note_on_c, 0, 73, 0
2, 45788, Note_on_c, 0, 74, 0
2, 45824, Note_on_c, 0, 59, 55
2, 45828, Note_on_c, 0, 64, 43
2, 45897, Note_on_c, 0, 74, 95
2, 45978, Note_on_c, 0, 76, 80
2, 45995, Note_on_c, 0, 74, 0
2, 46024, Note_on_c, 0, 64, 0
2, 46040, Note_on_c, 0, 59, 0
2, 46066, Note_on_c, 0, 76, 0
2, 46069, Note_on_c, 0, 74, 81
2, 46108, Note_on_c, 0, 74, 0
2, 46143, Note_on_c, 0, 74, 74
2, 46227, Note_on_c, 0, 69, 65
2, 46230, Note_on_c, 0, 74, 0
2, 46278, Note_on_c, 0, 69, 0
2, 46305, Note_on_c, 0, 54, 74
2, 46309, Note_on_c, 0, 64, 53
2, 46349, Note_on_c, 0, 54, 0
2, 46354, Note_on_c, 0, 64, 0
2, 46388, Note_on_c, 0, 69, 70
2, 46460, Note_on_c, 0, 69, 0
2, 46461, Note_on_c, 0, 73, 85
2, 46468, Note_on_c, 0, 56, 80
2, 46476, Note_on_c, 0, 64, 55
2, 46545, Note_on_c, 0, 56, 0
2, 46545, Note_on_c, 0, 71, 81
2, 46559, Note_on_c, 0, 64, 0
2, 46565, Note_on_c, 0, 73, 0
2, 46628, Note_on_c, 0, 74, 79
2, 46632, Note_on_c, 0, 71, 0
2, 46705, Note_on_c, 0, 73, 100
2, 46727, Note_on_c, 0, 74, 0
2, 46749, Note_on_c, 0, 73, 0
2, 46784, Note_on_c, 0, 64, 88
2, 46784, Note_on_c, 0, 57, 90
2, 46820, Note_on_c, 0, 64, 0
2, 46823, Note_on_c, 0, 57, 0
2, 46859, Note_on_c, 0, 73, 103
2, 46940, Note_on_c, 0, 73, 0
2, 46947, Note_on_c, 0, 76, 82
2, 46951, Note_on_c, 0, 59, 83
2, 46964, Note_on_c, 0, 50, 56
2, 47031, Note_on_c, 0, 74, 99
2, 47051, Note_on_c, 0, 76, 0
2, 47075, Note_on_c, 0, 59, 0
2, 47098, Note_on_c, 0, 50, 0
2, 47117, Note_on_c, 0, 72, 107
2, 47121, Note_on_c, 0, 74, 0
2, 47191, Note_on_c, 0, 73, 108
2, 47207, Note_on_c, 0, 72, 0
2, 47235, Note_on_c, 0, 73, 0
2, 47275, Note_on_c, 0, 57, 102
2, 47279, Note_on_c, 0, 52, 93
2, 47311, Note_on_c, 0, 57, 0
2, 47318, Note_on_c, 0, 52, 0
2, 47351, Note_on_c, 0, 73, 110
2, 47423, Note_on_c, 0, 73, 0
2, 47439, Note_on_c, 0, 74, 104
2, 47440, Note_on_c, 0, 56, 113
2, 47445, Note_on_c, 0, 52, 97
2, 47471, Note_on_c, 0, 56, 0
2, 47483, Note_on_c, 0, 52, 0
2, 47509, Note_on_c, 0, 71, 85
2, 47515, Note_on_c, 0, 74, 0
2, 47576, Note_on_c, 0, 71, 0
2, 47606, Note_on_c, 0, 71, 94
2, 47607, Note_on_c, 0, 57, 95
2, 47618, Note_on_c, 0, 68, 96
2, 47633, Control_c, 0, 64, 127
2, 47791, Note_on_c, 0, 52, 103
2, 47847, Control_c, 0, 64, 63
2, 47852, Control_c, 0, 64, 0
2, 47862, Note_on_c, 0, 72, 104
2, 47874, Note_on_c, 0, 71, 0
2, 47909, Note_on_c, 0, 57, 0
2, 47937, Note_on_c, 0, 68, 0
2, 47956, Note_on_c, 0, 45, 105
2, 47959, Control_c, 0, 64, 63
2, 47959, Note_on_c, 0, 73, 109
2, 47960, Note_on_c, 0, 72, 0
2, 47960, Control_c, 0, 64, 127
2, 47961, Note_on_c, 0, 69, 89
2, 47970, Note_on_c, 0, 52, 0
2, 47989, Note_on_c, 0, 45, 0
2, 48009, Note_on_c, 0, 69, 0
2, 48017, Note_on_c, 0, 73, 0
2, 48052, Control_c, 0, 64, 63
2, 48056, Control_c, 0, 64, 0
2, 48134, Note_on_c, 0, 73, 119
2, 48134, Note_on_c, 0, 69, 108
2, 48135, Note_on_c, 0, 33, 122
2, 48138, Note_on_c, 0, 64, 106
2, 48150, Control_c, 0, 64, 127
2, 48162, Note_on_c, 0, 64, 0
2, 48165, Note_on_c, 0, 69, 0
2, 48176, Note_on_c, 0, 73, 0
2, 48195, Note_on_c, 0, 33, 0
2, 48216, Note_on_c, 0, 45, 84
2, 48264, Note_on_c, 0, 45, 0
2, 48310, Note_on_c, 0, 69, 102
2, 48315, Note_on_c, 0, 73, 110
2, 48317, Note_on_c, 0, 64, 89
2, 48317, Note_on_c, 0, 45, 99
2, 48340, Note_on_c, 0, 64, 0
2, 48345, Note_on_c, 0, 69, 0
2, 48357, Note_on_c, 0, 45, 0
2, 48358, Note_on_c, 0, 73, 0
2, 48386, Note_on_c, 0, 45, 91
2, 48461, Control_c, 0, 64, 63
2, 48464, Control_c, 0, 64, 0
2, 48472, Note_on_c, 0, 45, 0
2, 48484, Note_on_c, 0, 74, 121
2, 48485, Note_on_c, 0, 35, 118
2, 48485, Note_on_c, 0, 68, 124
2, 48486, Note_on_c, 0, 64, 118
2, 48507, Control_c, 0, 64, 63
2, 48511, Control_c, 0, 64, 127
2, 48517, Note_on_c, 0, 64, 0
2, 48525, Note_on_c, 0, 68, 0
2, 48527, Note_on_c, 0, 74, 0
2, 48533, Note_on_c, 0, 35, 0
2, 48563, Note_on_c, 0, 47, 93
2, 48606, Control_c, 0, 64, 63
2, 48609, Control_c, 0, 64, 0
2, 48619, Note_on_c, 0, 47, 0
2, 48650, Note_on_c, 0, 37, 115
2, 48659, Note_on_c, 0, 76, 118
2, 48660, Note_on_c, 0, 64, 113
2, 48661, Note_on_c, 0, 69, 111
2, 48678, Control_c, 0, 64, 63
2, 48679, Control_c, 0, 64, 127
2, 48695, Note_on_c, 0, 64, 0
2, 48704, Note_on_c, 0, 69, 0
2, 48716, Note_on_c, 0, 37, 0
2, 48719, Note_on_c, 0, 76, 0
2, 48731, Note_on_c, 0, 49, 87
2, 48779, Note_on_c, 0, 49, 0
2, 48836, Note_on_c, 0, 76, 122
2, 48840, Note_on_c, 0, 69, 113
2, 48846, Note_on_c, 0, 49, 104
2, 48859, Note_on_c, 0, 69, 0
2, 48874, Note_on_c, 0, 76, 0
2, 48882, Note_on_c, 0, 49, 0
2, 48908, Note_on_c, 0, 49, 95
2, 48968, Note_on_c, 0, 49, 0
2, 49006, Control_c, 0, 64, 63
2, 49010, Control_c, 0, 64, 0
2, 49024, Note_on_c, 0, 38, 96
2, 49025, Note_on_c, 0, 78, 119
2, 49031, Note_on_c, 0, 69, 102
2, 49058, Control_c, 0, 64, 63
2, 49062, Control_c, 0, 64, 127
2, 49071, Note_on_c, 0, 69, 0
2, 49073, Note_on_c, 0, 38, 0
2, 49149, Note_on_c, 0, 50, 70
2, 49152, Note_on_c, 0, 80, 98
2, 49166, Note_on_c, 0, 78, 0
2, 49189, Note_on_c, 0, 81, 89
2, 49195, Note_on_c, 0, 80, 0
2, 49208, Note_on_c, 0, 81, 0
2, 49210, Note_on_c, 0, 50, 0
2, 49298, Note_on_c, 0, 40, 79
2, 49317, Note_on_c, 0, 69, 94
2, 49324, Note_on_c, 0, 64, 81
2, 49329, Note_on_c, 0, 61, 94
2, 49354, Control_c, 0, 64, 63
2, 49361, Control_c, 0, 64, 0
2, 49411, Note_on_c, 0, 40, 0
2, 49412, Control_c, 0, 64, 63
2, 49419, Control_c, 0, 64, 127
2, 49426, Note_on_c, 0, 52, 66
2, 49435, Note_on_c, 0, 61, 0
2, 49446, Note_on_c, 0, 69, 0
2, 49454, Note_on_c, 0, 64, 0
2, 49465, Note_on_c, 0, 52, 0
2, 49521, Note_on_c, 0, 69, 106
2, 49522, Note_on_c, 0, 52, 68
2, 49523, Note_on_c, 0, 61, 105
2, 49524, Note_on_c, 0, 64, 92
2, 49559, Note_on_c, 0, 52, 0
2, 49565, Note_on_c, 0, 64, 0
2, 49570, Note_on_c, 0, 61, 0
2, 49584, Note_on_c, 0, 69, 0
2, 49604, Note_on_c, 0, 52, 96
2, 49707, Note_on_c, 0, 52, 0
2, 49709, Control_c, 0, 64, 63
2, 49710, Note_on_c, 0, 71, 103
2, 49711, Note_on_c, 0, 40, 70
2, 49713, Note_on_c, 0, 68, 93
2, 49715, Note_on_c, 0, 62, 89
2, 49716, Control_c, 0, 64, 0
2, 49717, Note_on_c, 0, 64, 81
2, 49775, Control_c, 0, 64, 63
2, 49781, Control_c, 0, 64, 127
2, 49798, Note_on_c, 0, 40, 0
2, 49804, Note_on_c, 0, 71, 0
2, 49807, Note_on_c, 0, 52, 88
2, 49811, Note_on_c, 0, 62, 0
2, 49818, Note_on_c, 0, 68, 0
2, 49819, Note_on_c, 0, 64, 0
2, 49845, Note_on_c, 0, 52, 0
2, 49957, Note_on_c, 0, 33, 75
2, 49964, Note_on_c, 0, 69, 86
2, 49967, Note_on_c, 0, 61, 77
2, 49973, Note_on_c, 0, 64, 68
2, 50023, Control_c, 0, 64, 63
2, 50038, Control_c, 0, 64, 0
2, 50251, Note_on_c, 0, 33, 0
2, 50260, Note_on_c, 0, 45, 37
2, 50329, Control_c, 0, 64, 63
2, 50334, Control_c, 0, 64, 127
2, 50495, Note_on_c, 0, 45, 0
2, 50534, Note_on_c, 0, 61, 0
2, 50549, Note_on_c, 0, 64, 0
2, 50554, Note_on_c, 0, 69, 0
2, 50609, Control_c, 0, 64, 63
2, 50626, Control_c, 0, 64, 0
2, 50861, Note_on_c, 0, 57, 56
2, 50862, Note_on_c, 0, 73, 98
2, 50878, Note_on_c, 0, 73, 0
2, 50912, Note_on_c, 0, 57, 0
2, 50920, Note_on_c, 0, 63, 66
2, 50977, Note_on_c, 0, 63, 0
2, 50979, Note_on_c, 0, 64, 54
2, 51039, Note_on_c, 0, 73, 109
2, 51049, Note_on_c, 0, 57, 48
2, 51055, Note_on_c, 0, 64, 0
2, 51059, Note_on_c, 0, 73, 0
2, 51095, Note_on_c, 0, 63, 65
2, 51097, Note_on_c, 0, 57, 0
2, 51150, Note_on_c, 0, 64, 54
2, 51153, Note_on_c, 0, 63, 0
2, 51198, Note_on_c, 0, 74, 105
2, 51205, Note_on_c, 0, 64, 0
2, 51212, Note_on_c, 0, 59, 65
2, 51232, Note_on_c, 0, 74, 0
2, 51233, Note_on_c, 0, 76, 86
2, 51261, Note_on_c, 0, 76, 0
2, 51262, Note_on_c, 0, 74, 96
2, 51268, Note_on_c, 0, 63, 63
2, 51270, Note_on_c, 0, 59, 0
2, 51299, Note_on_c, 0, 74, 0
2, 51303, Note_on_c, 0, 73, 90
2, 51305, Note_on_c, 0, 63, 0
2, 51308, Note_on_c, 0, 64, 47
2, 51332, Note_on_c, 0, 74, 79
2, 51341, Note_on_c, 0, 73, 0
2, 51374, Note_on_c, 0, 76, 91
2, 51381, Note_on_c, 0, 64, 0
2, 51391, Note_on_c, 0, 61, 75
2, 51397, Note_on_c, 0, 74, 0
2, 51457, Note_on_c, 0, 61, 0
2, 51460, Note_on_c, 0, 63, 59
2, 51504, Note_on_c, 0, 63, 0
2, 51508, Note_on_c, 0, 64, 49
2, 51558, Note_on_c, 0, 76, 0
2, 51560, Note_on_c, 0, 61, 99
2, 51568, Note_on_c, 0, 64, 0
2, 51610, Note_on_c, 0, 61, 0
2, 51622, Note_on_c, 0, 63, 77
2, 51658, Note_on_c, 0, 64, 68
2, 51663, Note_on_c, 0, 63, 0
2, 51717, Note_on_c, 0, 64, 0
2, 51733, Note_on_c, 0, 57, 73
2, 51740, Note_on_c, 0, 78, 95
2, 51775, Note_on_c, 0, 76, 93
2, 51776, Note_on_c, 0, 78, 0
2, 51790, Note_on_c, 0, 57, 0
2, 51797, Note_on_c, 0, 63, 67
2, 51814, Note_on_c, 0, 74, 83
2, 51821, Note_on_c, 0, 76, 0
2, 51845, Note_on_c, 0, 63, 0
2, 51852, Note_on_c, 0, 73, 92
2, 51856, Note_on_c, 0, 64, 36
2, 51859, Note_on_c, 0, 74, 0
2, 51895, Note_on_c, 0, 71, 90
2, 51896, Note_on_c, 0, 73, 0
2, 51904, Note_on_c, 0, 56, 81
2, 51918, Note_on_c, 0, 64, 0
2, 51923, Note_on_c, 0, 71, 0
2, 51966, Note_on_c, 0, 56, 0
2, 51972, Note_on_c, 0, 63, 66
2, 52024, Note_on_c, 0, 63, 0
2, 52030, Note_on_c, 0, 64, 41
2, 52080, Note_on_c, 0, 71, 96
2, 52086, Note_on_c, 0, 56, 69
2, 52098, Note_on_c, 0, 64, 0
2, 52101, Note_on_c, 0, 71, 0
2, 52135, Note_on_c, 0, 63, 56
2, 52139, Note_on_c, 0, 56, 0
2, 52186, Note_on_c, 0, 63, 0
2, 52191, Note_on_c, 0, 64, 42
2, 52249, Note_on_c, 0, 73, 112
2, 52256, Note_on_c, 0, 57, 58
2, 52258, Note_on_c, 0, 64, 0
2, 52283, Note_on_c, 0, 74, 90
2, 52285, Note_on_c, 0, 73, 0
2, 52302, Note_on_c, 0, 57, 0
2, 52305, Note_on_c, 0, 63, 70
2, 52318, Note_on_c, 0, 73, 95
2, 52324, Note_on_c, 0, 74, 0
2, 52354, Note_on_c, 0, 73, 0
2, 52359, Note_on_c, 0, 63, 0
2, 52359, Note_on_c, 0, 71, 76
2, 52364, Note_on_c, 0, 64, 35
2, 52382, Note_on_c, 0, 73, 78
2, 52396, Note_on_c, 0, 71, 0
2, 52426, Note_on_c, 0, 64, 0
2, 52435, Note_on_c, 0, 74, 82
2, 52436, Note_on_c, 0, 59, 53
2, 52445, Note_on_c, 0, 73, 0
2, 52496, Note_on_c, 0, 63, 59
2, 52507, Note_on_c, 0, 59, 0
2, 52553, Note_on_c, 0, 64, 48
2, 52559, Note_on_c, 0, 63, 0
2, 52605, Note_on_c, 0, 59, 79
2, 52617, Note_on_c, 0, 64, 0
2, 52639, Note_on_c, 0, 74, 0
2, 52669, Note_on_c, 0, 63, 76
2, 52673, Note_on_c, 0, 59, 0
2, 52719, Note_on_c, 0, 64, 64
2, 52722, Note_on_c, 0, 63, 0
2, 52778, Note_on_c, 0, 64, 0
2, 52784, Note_on_c, 0, 56, 92
2, 52794, Note_on_c, 0, 76, 95
2, 52824, Note_on_c, 0, 74, 94
2, 52843, Note_on_c, 0, 56, 0
2, 52845, Note_on_c, 0, 76, 0
2, 52847, Note_on_c, 0, 63, 68
2, 52863, Note_on_c, 0, 73, 93
2, 52872, Note_on_c, 0, 74, 0
2, 52899, Note_on_c, 0, 63, 0
2, 52900, Note_on_c, 0, 71, 91
2, 52901, Note_on_c, 0, 64, 51
2, 52922, Note_on_c, 0, 73, 0
2, 52950, Note_on_c, 0, 69, 84
2, 52953, Note_on_c, 0, 71, 0
2, 52965, Note_on_c, 0, 64, 0
2, 52969, Note_on_c, 0, 54, 77
2, 52978, Note_on_c, 0, 69, 0
2, 53020, Note_on_c, 0, 54, 0
2, 53028, Note_on_c, 0, 63, 80
2, 53076, Note_on_c, 0, 63, 0
2, 53083, Note_on_c, 0, 64, 44
2, 53132, Note_on_c, 0, 69, 93
2, 53139, Note_on_c, 0, 54, 66
2, 53145, Note_on_c, 0, 64, 0
2, 53150, Note_on_c, 0, 69, 0
2, 53192, Note_on_c, 0, 63, 69
2, 53196, Note_on_c, 0, 54, 0
2, 53245, Note_on_c, 0, 64, 46
2, 53250, Note_on_c, 0, 63, 0
2, 53303, Note_on_c, 0, 54, 69
2, 53308, Note_on_c, 0, 69, 92
2, 53312, Note_on_c, 0, 64, 0
2, 53332, Note_on_c, 0, 71, 84
2, 53343, Note_on_c, 0, 69, 0
2, 53354, Note_on_c, 0, 54, 0
2, 53355, Note_on_c, 0, 71, 0
2, 53359, Note_on_c, 0, 63, 72
2, 53368, Note_on_c, 0, 69, 92
2, 53412, Note_on_c, 0, 69, 0
2, 53412, Note_on_c, 0, 63, 0
2, 53412, Note_on_c, 0, 68, 95
2, 53422, Note_on_c, 0, 64, 36
2, 53437, Note_on_c, 0, 68, 0
2, 53442, Note_on_c, 0, 69, 78
2, 53468, Note_on_c, 0, 56, 66
2, 53478, Note_on_c, 0, 71, 95
2, 53489, Note_on_c, 0, 64, 0
2, 53499, Note_on_c, 0, 69, 0
2, 53511, Note_on_c, 0, 71, 0
2, 53540, Note_on_c, 0, 56, 0
2, 53541, Note_on_c, 0, 62, 29
2, 53596, Note_on_c, 0, 64, 49
2, 53613, Note_on_c, 0, 62, 0
2, 53648, Note_on_c, 0, 56, 77
2, 53654, Note_on_c, 0, 71, 95
2, 53671, Note_on_c, 0, 71, 0
2, 53674, Note_on_c, 0, 64, 0
2, 53712, Note_on_c, 0, 56, 0
2, 53714, Note_on_c, 0, 62, 38
2, 53771, Note_on_c, 0, 64, 51
2, 53774, Note_on_c, 0, 62, 0
2, 53815, Note_on_c, 0, 56, 80
2, 53824, Note_on_c, 0, 71, 103
2, 53835, Note_on_c, 0, 64, 0
2, 53847, Note_on_c, 0, 73, 100
2, 53857, Note_on_c, 0, 71, 0
2, 53869, Note_on_c, 0, 73, 0
2, 53870, Note_on_c, 0, 62, 59
2, 53874, Note_on_c, 0, 56, 0
2, 53886, Note_on_c, 0, 71, 90
2, 53919, Note_on_c, 0, 64, 60
2, 53922, Note_on_c, 0, 71, 0
2, 53922, Note_on_c, 0, 62, 0
2, 53923, Note_on_c, 0, 69, 77
2, 53952, Note_on_c, 0, 71, 65
2, 53961, Note_on_c, 0, 69, 0
2, 53988, Note_on_c, 0, 64, 0
2, 53988, Note_on_c, 0, 73, 103
2, 53996, Note_on_c, 0, 57, 63
2, 54000, Note_on_c, 0, 71, 0
2, 54019, Note_on_c, 0, 73, 0
2, 54057, Note_on_c, 0, 61, 78
2, 54059, Note_on_c, 0, 57, 0
2, 54113, Note_on_c, 0, 61, 0
2, 54120, Note_on_c, 0, 64, 46
2, 54161, Note_on_c, 0, 73, 112
2, 54169, Note_on_c, 0, 57, 61
2, 54172, Note_on_c, 0, 64, 0
2, 54193, Note_on_c, 0, 73, 0
2, 54216, Note_on_c, 0, 61, 85
2, 54242, Note_on_c, 0, 57, 0
2, 54260, Note_on_c, 0, 61, 0
2, 54265, Note_on_c, 0, 64, 81
2, 54304, Note_on_c, 0, 64, 0
2, 54322, Note_on_c, 0, 50, 107
2, 54322, Note_on_c, 0, 76, 108
2, 54323, Note_on_c, 0, 71, 111
2, 54332, Control_c, 0, 64, 127
2, 54360, Note_on_c, 0, 74, 94
2, 54373, Note_on_c, 0, 76, 0
2, 54386, Note_on_c, 0, 54, 82
2, 54388, Note_on_c, 0, 50, 0
2, 54413, Control_c, 0, 64, 63
2, 54419, Control_c, 0, 64, 0
2, 54429, Note_on_c, 0, 59, 67
2, 54432, Note_on_c, 0, 54, 0
2, 54490, Note_on_c, 0, 71, 0
2, 54500, Note_on_c, 0, 52, 82
2, 54502, Note_on_c, 0, 59, 0
2, 54503, Note_on_c, 0, 73, 110
2, 54509, Note_on_c, 0, 69, 87
2, 54530, Note_on_c, 0, 74, 0
2, 54534, Control_c, 0, 64, 63
2, 54535, Control_c, 0, 64, 127
2, 54566, Note_on_c, 0, 57, 49
2, 54570, Note_on_c, 0, 52, 0
2, 54614, Note_on_c, 0, 61, 90
2, 54621, Control_c, 0, 64, 63
2, 54624, Control_c, 0, 64, 0
2, 54638, Note_on_c, 0, 57, 0
2, 54671, Note_on_c, 0, 52, 73
2, 54674, Note_on_c, 0, 61, 0
2, 54729, Note_on_c, 0, 57, 71
2, 54748, Note_on_c, 0, 52, 0
2, 54789, Note_on_c, 0, 61, 88
2, 54802, Note_on_c, 0, 57, 0
2, 54806, Control_c, 0, 64, 63
2, 54808, Control_c, 0, 64, 127
2, 54835, Note_on_c, 0, 61, 0
2, 54855, Note_on_c, 0, 71, 93
2, 54856, Note_on_c, 0, 68, 102
2, 54858, Note_on_c, 0, 52, 86
2, 54870, Note_on_c, 0, 73, 0
2, 54875, Note_on_c, 0, 69, 0
2, 54891, Control_c, 0, 64, 63
2, 54892, Note_on_c, 0, 68, 0
2, 54894, Control_c, 0, 64, 0
2, 54895, Note_on_c, 0, 71, 0
2, 54917, Note_on_c, 0, 56, 80
2, 54928, Note_on_c, 0, 52, 0
2, 54958, Note_on_c, 0, 59, 83
2, 54961, Note_on_c, 0, 56, 0
2, 54999, Note_on_c, 0, 59, 0
2, 55033, Note_on_c, 0, 45, 117
2, 55036, Note_on_c, 0, 73, 124
2, 55038, Control_c, 0, 64, 127
2, 55065, Note_on_c, 0, 45, 0
2, 55086, Note_on_c, 0, 69, 70
2, 55097, Note_on_c, 0, 73, 0
2, 55143, Note_on_c, 0, 64, 62
2, 55151, Note_on_c, 0, 69, 0
2, 55194, Note_on_c, 0, 64, 0
2, 55197, Note_on_c, 0, 56, 110
2, 55210, Note_on_c, 0, 57, 101
2, 55212, Note_on_c, 0, 73, 118
2, 55228, Control_c, 0, 64, 63
2, 55230, Note_on_c, 0, 56, 0
2, 55230, Control_c, 0, 64, 0
2, 55245, Note_on_c, 0, 57, 0
2, 55257, Note_on_c, 0, 69, 89
2, 55277, Note_on_c, 0, 73, 0
2, 55316, Note_on_c, 0, 64, 73
2, 55323, Note_on_c, 0, 69, 0
2, 55364, Note_on_c, 0, 64, 0
2, 55385, Note_on_c, 0, 74, 113
2, 55436, Note_on_c, 0, 71, 101
2, 55459, Note_on_c, 0, 74, 0
2, 55486, Note_on_c, 0, 71, 0
2, 55504, Note_on_c, 0, 64, 86
2, 55536, Note_on_c, 0, 64, 0
2, 55549, Note_on_c, 0, 45, 122
2, 55560, Note_on_c, 0, 76, 122
2, 55561, Control_c, 0, 64, 63
2, 55561, Control_c, 0, 64, 127
2, 55580, Note_on_c, 0, 45, 0
2, 55608, Note_on_c, 0, 73, 113
2, 55624, Note_on_c, 0, 76, 0
2, 55659, Note_on_c, 0, 73, 0
2, 55671, Note_on_c, 0, 64, 92
2, 55709, Note_on_c, 0, 64, 0
2, 55715, Note_on_c, 0, 56, 87
2, 55731, Note_on_c, 0, 57, 97
2, 55731, Note_on_c, 0, 76, 117
2, 55734, Control_c, 0, 64, 63
2, 55739, Control_c, 0, 64, 0
2, 55760, Note_on_c, 0, 56, 0
2, 55776, Note_on_c, 0, 57, 0
2, 55776, Control_c, 0, 64, 63
2, 55782, Control_c, 0, 64, 127
2, 55785, Note_on_c, 0, 73, 111
2, 55791, Note_on_c, 0, 76, 0
2, 55838, Note_on_c, 0, 73, 0
2, 55856, Control_c, 0, 64, 63
2, 55865, Control_c, 0, 64, 0
2, 55900, Control_c, 0, 64, 63
2, 55906, Note_on_c, 0, 78, 108
2, 55910, Control_c, 0, 64, 127
2, 55946, Note_on_c, 0, 78, 0
2, 55961, Note_on_c, 0, 76, 89
2, 55970, Note_on_c, 0, 77, 39
2, 55991, Note_on_c, 0, 77, 0
2, 55999, Note_on_c, 0, 74, 102
2, 56012, Note_on_c, 0, 76, 0
2, 56037, Note_on_c, 0, 73, 108
2, 56039, Note_on_c, 0, 74, 0
2, 56055, Note_on_c, 0, 73, 0
2, 56071, Control_c, 0, 64, 63
2, 56075, Control_c, 0, 64, 0
2, 56084, Note_on_c, 0, 40, 122
2, 56095, Note_on_c, 0, 71, 108
2, 56107, Control_c, 0, 64, 63
2, 56113, Note_on_c, 0, 40, 0
2, 56116, Control_c, 0, 64, 127
2, 56139, Note_on_c, 0, 68, 110
2, 56144, Note_on_c, 0, 71, 0
2, 56187, Note_on_c, 0, 68, 0
2, 56201, Note_on_c, 0, 64, 81
2, 56243, Note_on_c, 0, 51, 77
2, 56245, Note_on_c, 0, 64, 0
2, 56257, Note_on_c, 0, 71, 105
2, 56262, Control_c, 0, 64, 63
2, 56262, Note_on_c, 0, 52, 111
2, 56264, Control_c, 0, 64, 0
2, 56287, Note_on_c, 0, 51, 0
2, 56299, Note_on_c, 0, 52, 0
2, 56305, Note_on_c, 0, 68, 108
2, 56311, Note_on_c, 0, 71, 0
2, 56356, Note_on_c, 0, 68, 0
2, 56370, Note_on_c, 0, 64, 76
2, 56409, Note_on_c, 0, 64, 0
2, 56424, Note_on_c, 0, 73, 112
2, 56469, Note_on_c, 0, 69, 93
2, 56477, Note_on_c, 0, 73, 0
2, 56526, Note_on_c, 0, 69, 0
2, 56529, Note_on_c, 0, 64, 78
2, 56569, Note_on_c, 0, 64, 0
2, 56584, Note_on_c, 0, 40, 122
2, 56584, Note_on_c, 0, 74, 116
2, 56591, Control_c, 0, 64, 63
2, 56591, Control_c, 0, 64, 127
2, 56614, Note_on_c, 0, 40, 0
2, 56638, Note_on_c, 0, 71, 95
2, 56652, Note_on_c, 0, 74, 0
2, 56688, Note_on_c, 0, 64, 84
2, 56702, Note_on_c, 0, 71, 0
2, 56734, Note_on_c, 0, 64, 0
2, 56748, Note_on_c, 0, 51, 105
2, 56751, Note_on_c, 0, 74, 108
2, 56757, Note_on_c, 0, 52, 107
2, 56762, Control_c, 0, 64, 63
2, 56764, Control_c, 0, 64, 0
2, 56781, Note_on_c, 0, 51, 0
2, 56795, Note_on_c, 0, 52, 0
2, 56799, Note_on_c, 0, 71, 94
2, 56816, Note_on_c, 0, 74, 0
2, 56846, Note_on_c, 0, 71, 0
2, 56854, Note_on_c, 0, 64, 81
2, 56887, Note_on_c, 0, 64, 0
2, 56927, Note_on_c, 0, 76, 108
2, 56949, Control_c, 0, 64, 127
2, 56968, Note_on_c, 0, 74, 96
2, 56981, Control_c, 0, 64, 63
2, 56985, Control_c, 0, 64, 0
2, 57006, Note_on_c, 0, 73, 95
2, 57011, Note_on_c, 0, 76, 0
2, 57019, Note_on_c, 0, 74, 0
2, 57034, Note_on_c, 0, 71, 102
2, 57050, Note_on_c, 0, 73, 0
2, 57060, Note_on_c, 0, 71, 0
2, 57092, Control_c, 0, 64, 127
2, 57093, Note_on_c, 0, 42, 119
2, 57105, Note_on_c, 0, 69, 112
2, 57129, Note_on_c, 0, 42, 0
2, 57157, Note_on_c, 0, 69, 0
2, 57162, Note_on_c, 0, 64, 93
2, 57218, Note_on_c, 0, 64, 0
2, 57219, Note_on_c, 0, 61, 97
2, 57249, Note_on_c, 0, 61, 0
2, 57261, Note_on_c, 0, 53, 97
2, 57265, Control_c, 0, 64, 63
2, 57266, Control_c, 0, 64, 0
2, 57269, Note_on_c, 0, 54, 121
2, 57272, Note_on_c, 0, 69, 94
2, 57286, Note_on_c, 0, 53, 0
2, 57305, Note_on_c, 0, 54, 0
2, 57319, Note_on_c, 0, 64, 68
2, 57332, Note_on_c, 0, 69, 0
2, 57374, Note_on_c, 0, 64, 0
2, 57377, Note_on_c, 0, 61, 96
2, 57407, Note_on_c, 0, 61, 0
2, 57436, Note_on_c, 0, 55, 93
2, 57436, Note_on_c, 0, 71, 101
2, 57450, Note_on_c, 0, 56, 114
2, 57469, Note_on_c, 0, 55, 0
2, 57487, Note_on_c, 0, 56, 0
2, 57487, Note_on_c, 0, 64, 98
2, 57501, Note_on_c, 0, 71, 0
2, 57544, Note_on_c, 0, 64, 0
2, 57547, Note_on_c, 0, 62, 79
2, 57599, Note_on_c, 0, 62, 0
2, 57604, Note_on_c, 0, 45, 114
2, 57605, Note_on_c, 0, 73, 106
2, 57622, Control_c, 0, 64, 127
2, 57633, Note_on_c, 0, 45, 0
2, 57654, Note_on_c, 0, 69, 72
2, 57691, Note_on_c, 0, 73, 0
2, 57713, Note_on_c, 0, 64, 73
2, 57760, Note_on_c, 0, 69, 0
2, 57764, Note_on_c, 0, 64, 0
2, 57771, Note_on_c, 0, 56, 101
2, 57773, Note_on_c, 0, 73, 105
2, 57774, Control_c, 0, 64, 63
2, 57775, Control_c, 0, 64, 0
2, 57780, Note_on_c, 0, 57, 93
2, 57796, Note_on_c, 0, 56, 0
2, 57808, Note_on_c, 0, 57, 0
2, 57811, Note_on_c, 0, 69, 63
2, 57851, Note_on_c, 0, 73, 0
2, 57871, Note_on_c, 0, 64, 81
2, 57904, Note_on_c, 0, 69, 0
2, 57923, Note_on_c, 0, 64, 0
2, 57938, Note_on_c, 0, 49, 109
2, 57940, Note_on_c, 0, 74, 105
2, 57958, Note_on_c, 0, 50, 95
2, 57967, Note_on_c, 0, 49, 0
2, 57978, Note_on_c, 0, 71, 83
2, 57982, Note_on_c, 0, 72, 82
2, 57993, Note_on_c, 0, 50, 0
2, 57994, Note_on_c, 0, 74, 0
2, 58000, Note_on_c, 0, 72, 0
2, 58037, Note_on_c, 0, 71, 0
2, 58040, Note_on_c, 0, 66, 91
2, 58102, Note_on_c, 0, 73, 110
2, 58110, Note_on_c, 0, 40, 121
2, 58112, Note_on_c, 0, 66, 0
2, 58124, Control_c, 0, 64, 127
2, 58139, Note_on_c, 0, 40, 0
2, 58157, Note_on_c, 0, 69, 76
2, 58185, Note_on_c, 0, 73, 0
2, 58220, Note_on_c, 0, 64, 81
2, 58256, Note_on_c, 0, 69, 0
2, 58268, Note_on_c, 0, 51, 94
2, 58271, Note_on_c, 0, 64, 0
2, 58275, Control_c, 0, 64, 63
2, 58278, Control_c, 0, 64, 0
2, 58280, Note_on_c, 0, 73, 108
2, 58282, Note_on_c, 0, 52, 98
2, 58305, Note_on_c, 0, 51, 0
2, 58317, Note_on_c, 0, 52, 0
2, 58322, Note_on_c, 0, 69, 79
2, 58334, Note_on_c, 0, 73, 0
2, 58388, Note_on_c, 0, 64, 72
2, 58394, Note_on_c, 0, 69, 0
2, 58434, Note_on_c, 0, 64, 0
2, 58443, Note_on_c, 0, 51, 93
2, 58453, Note_on_c, 0, 71, 102
2, 58455, Note_on_c, 0, 52, 105
2, 58465, Note_on_c, 0, 51, 0
2, 58489, Note_on_c, 0, 52, 0
2, 58503, Note_on_c, 0, 68, 94
2, 58526, Note_on_c, 0, 71, 0
2, 58552, Note_on_c, 0, 62, 81
2, 58556, Note_on_c, 0, 68, 0
2, 58599, Note_on_c, 0, 62, 0
2, 58617, Note_on_c, 0, 33, 118
2, 58622, Note_on_c, 0, 69, 112
2, 58639, Control_c, 0, 64, 127
2, 58655, Note_on_c, 0, 33, 0
2, 58676, Note_on_c, 0, 64, 97
2, 58687, Note_on_c, 0, 69, 0
2, 58725, Note_on_c, 0, 64, 0
2, 58733, Note_on_c, 0, 61, 104
2, 58776, Note_on_c, 0, 61, 0
2, 58790, Note_on_c, 0, 44, 77
2, 58807, Note_on_c, 0, 57, 93
2, 58810, Note_on_c, 0, 45, 103
2, 58849, Note_on_c, 0, 44, 0
2, 58853, Note_on_c, 0, 57, 0
2, 58963, Note_on_c, 0, 45, 0
2, 59007, Control_c, 0, 64, 63
2, 59015, Control_c, 0, 64, 0
2, 59201, Note_on_c, 0, 76, 102
2, 59209, Note_on_c, 0, 57, 67
2, 59228, Note_on_c, 0, 76, 0
2, 59260, Note_on_c, 0, 61, 84
2, 59273, Note_on_c, 0, 57, 0
2, 59309, Note_on_c, 0, 61, 0
2, 59313, Note_on_c, 0, 64, 58
2, 59382, Note_on_c, 0, 64, 0
2, 59386, Note_on_c, 0, 74, 87
2, 59391, Note_on_c, 0, 57, 41
2, 59408, Note_on_c, 0, 74, 0
2, 59446, Note_on_c, 0, 59, 68
2, 59447, Note_on_c, 0, 57, 0
2, 59481, Note_on_c, 0, 59, 0
2, 59486, Note_on_c, 0, 62, 67
2, 59554, Note_on_c, 0, 76, 99
2, 59558, Note_on_c, 0, 62, 0
2, 59562, Note_on_c, 0, 57, 67
2, 59577, Note_on_c, 0, 76, 0
2, 59623, Note_on_c, 0, 61, 85
2, 59627, Note_on_c, 0, 57, 0
2, 59678, Note_on_c, 0, 61, 0
2, 59679, Note_on_c, 0, 64, 58
2, 59740, Note_on_c, 0, 78, 102
2, 59746, Note_on_c, 0, 64, 0
2, 59747, Note_on_c, 0, 57, 65
2, 59760, Control_c, 0, 64, 63
2, 59765, Control_c, 0, 64, 127
2, 59795, Note_on_c, 0, 78, 0
2, 59800, Note_on_c, 0, 62, 77
2, 59802, Note_on_c, 0, 57, 0
2, 59864, Note_on_c, 0, 66, 66
2, 59867, Note_on_c, 0, 62, 0
2, 59909, Control_c, 0, 64, 63
2, 59914, Note_on_c, 0, 66, 0
2, 59917, Note_on_c, 0, 57, 71
2, 59919, Control_c, 0, 64, 0
2, 59978, Note_on_c, 0, 57, 0
2, 59983, Note_on_c, 0, 62, 60
2, 59991, Control_c, 0, 64, 63
2, 60025, Control_c, 0, 64, 127
2, 60034, Note_on_c, 0, 66, 65
2, 60047, Note_on_c, 0, 62, 0
2, 60092, Note_on_c, 0, 66, 0
2, 60095, Note_on_c, 0, 57, 62
2, 60107, Note_on_c, 0, 78, 96
2, 60121, Control_c, 0, 64, 63
2, 60127, Note_on_c, 0, 80, 97
2, 60131, Note_on_c, 0, 78, 0
2, 60133, Control_c, 0, 64, 0
2, 60141, Note_on_c, 0, 57, 0
2, 60149, Note_on_c, 0, 80, 0
2, 60164, Note_on_c, 0, 78, 64
2, 60167, Note_on_c, 0, 62, 26
2, 60191, Note_on_c, 0, 78, 0
2, 60192, Note_on_c, 0, 76, 90
2, 60192, Note_on_c, 0, 66, 54
2, 60200, Note_on_c, 0, 62, 0
2, 60220, Note_on_c, 0, 66, 0
2, 60220, Note_on_c, 0, 78, 69
2, 60234, Note_on_c, 0, 76, 0
2, 60254, Note_on_c, 0, 80, 94
2, 60265, Note_on_c, 0, 57, 51
2, 60269, Note_on_c, 0, 78, 0
2, 60271, Control_c, 0, 64, 63
2, 60280, Control_c, 0, 64, 127
2, 60291, Note_on_c, 0, 81, 89
2, 60306, Note_on_c, 0, 80, 0
2, 60316, Note_on_c, 0, 81, 0
2, 60336, Note_on_c, 0, 57, 0
2, 60340, Note_on_c, 0, 66, 81
2, 60388, Control_c, 0, 64, 63
2, 60395, Note_on_c, 0, 66, 0
2, 60398, Note_on_c, 0, 69, 70
2, 60401, Control_c, 0, 64, 0
2, 60443, Note_on_c, 0, 69, 0
2, 60451, Note_on_c, 0, 80, 102
2, 60457, Note_on_c, 0, 57, 85
2, 60482, Note_on_c, 0, 80, 0
2, 60520, Note_on_c, 0, 64, 76
2, 60521, Note_on_c, 0, 57, 0
2, 60574, Note_on_c, 0, 68, 81
2, 60579, Note_on_c, 0, 64, 0
2, 60625, Note_on_c, 0, 68, 0
2, 60627, Note_on_c, 0, 78, 103
2, 60636, Note_on_c, 0, 57, 70
2, 60654, Note_on_c, 0, 78, 0
2, 60701, Note_on_c, 0, 62, 69
2, 60712, Note_on_c, 0, 57, 0
2, 60753, Note_on_c, 0, 66, 74
2, 60767, Note_on_c, 0, 62, 0
2, 60794, Note_on_c, 0, 66, 0
2, 60806, Note_on_c, 0, 57, 63
2, 60809, Note_on_c, 0, 76, 88
2, 60876, Note_on_c, 0, 61, 85
2, 60878, Note_on_c, 0, 57, 0
2, 60911, Control_c, 0, 64, 63
2, 60923, Control_c, 0, 64, 127
2, 60929, Note_on_c, 0, 61, 0
2, 60932, Note_on_c, 0, 64, 60
2, 60976, Note_on_c, 0, 76, 0
2, 60989, Note_on_c, 0, 57, 70
2, 60996, Note_on_c, 0, 64, 0
2, 61020, Control_c, 0, 64, 63
2, 61034, Control_c, 0, 64, 0
2, 61050, Note_on_c, 0, 57, 0
2, 61050, Note_on_c, 0, 61, 72
2, 61099, Note_on_c, 0, 61, 0
2, 61105, Note_on_c, 0, 64, 55
2, 61115, Control_c, 0, 64, 63
2, 61130, Control_c, 0, 64, 127
2, 61160, Note_on_c, 0, 64, 0
2, 61168, Note_on_c, 0, 73, 99
2, 61173, Note_on_c, 0, 57, 44
2, 61195, Note_on_c, 0, 74, 85
2, 61198, Note_on_c, 0, 73, 0
2, 61233, Control_c, 0, 64, 63
2, 61234, Note_on_c, 0, 74, 0
2, 61234, Note_on_c, 0, 73, 74
2, 61237, Note_on_c, 0, 57, 0
2, 61239, Note_on_c, 0, 61, 66
2, 61245, Control_c, 0, 64, 0
2, 61262, Note_on_c, 0, 71, 78
2, 61264, Note_on_c, 0, 73, 0
2, 61290, Note_on_c, 0, 73, 92
2, 61292, Note_on_c, 0, 61, 0
2, 61302, Note_on_c, 0, 71, 0
2, 61306, Note_on_c, 0, 64, 41
2, 61324, Note_on_c, 0, 74, 93
2, 61334, Note_on_c, 0, 73, 0
2, 61336, Control_c, 0, 64, 63
2, 61344, Control_c, 0, 64, 127
2, 61370, Note_on_c, 0, 64, 0
2, 61370, Note_on_c, 0, 76, 91
2, 61375, Note_on_c, 0, 57, 55
2, 61392, Note_on_c, 0, 74, 0
2, 61426, Control_c, 0, 64, 63
2, 61433, Control_c, 0, 64, 0
2, 61466, Note_on_c, 0, 61, 75
2, 61478, Control_c, 0, 64, 63
2, 61482, Control_c, 0, 64, 127
2, 61501, Note_on_c, 0, 57, 0
2, 61530, Note_on_c, 0, 64, 48
2, 61539, Note_on_c, 0, 61, 0
2, 61585, Note_on_c, 0, 73, 96
2, 61592, Note_on_c, 0, 57, 48
2, 61601, Note_on_c, 0, 64, 0
2, 61612, Note_on_c, 0, 76, 0
2, 61630, Note_on_c, 0, 73, 0
2, 61658, Note_on_c, 0, 61, 68
2, 61662, Note_on_c, 0, 57, 0
2, 61716, Note_on_c, 0, 61, 0
2, 61719, Note_on_c, 0, 64, 53
2, 61742, Control_c, 0, 64, 63
2, 61746, Control_c, 0, 64, 0
2, 61766, Note_on_c, 0, 57, 90
2, 61772, Note_on_c, 0, 64, 0
2, 61827, Note_on_c, 0, 61, 90
2, 61837, Control_c, 0, 64, 63
2, 61838, Control_c, 0, 64, 127
2, 61864, Note_on_c, 0, 57, 0
2, 61877, Note_on_c, 0, 64, 59
2, 61878, Note_on_c, 0, 69, 99
2, 61928, Note_on_c, 0, 69, 0
2, 61932, Note_on_c, 0, 61, 0
2, 61938, Note_on_c, 0, 64, 0
2, 61940, Note_on_c, 0, 76, 108
2, 61943, Note_on_c, 0, 59, 79
2, 61947, Control_c, 0, 64, 63
2, 61951, Control_c, 0, 64, 0
2, 61985, Control_c, 0, 64, 63
2, 61991, Control_c, 0, 64, 127
2, 62014, Note_on_c, 0, 62, 59
2, 62062, Note_on_c, 0, 64, 43
2, 62067, Note_on_c, 0, 59, 0
2, 62096, Note_on_c, 0, 62, 0
2, 62135, Note_on_c, 0, 74, 85
2, 62138, Note_on_c, 0, 59, 59
2, 62139, Note_on_c, 0, 64, 0
2, 62163, Note_on_c, 0, 76, 0
2, 62202, Note_on_c, 0, 59, 0
2, 62205, Note_on_c, 0, 62, 41
2, 62253, Note_on_c, 0, 64, 39
2, 62268, Note_on_c, 0, 62, 0
2, 62286, Note_on_c, 0, 74, 0
2, 62304, Note_on_c, 0, 59, 70
2, 62304, Control_c, 0, 64, 63
2, 62306, Control_c, 0, 64, 0
2, 62314, Note_on_c, 0, 64, 0
2, 62362, Note_on_c, 0, 62, 68
2, 62381, Note_on_c, 0, 59, 0
2, 62415, Note_on_c, 0, 64, 60
2, 62422, Note_on_c, 0, 62, 0
2, 62423, Note_on_c, 0, 71, 95
2, 62476, Note_on_c, 0, 64, 0
2, 62479, Control_c, 0, 64, 127
2, 62480, Note_on_c, 0, 57, 78
2, 62482, Note_on_c, 0, 76, 113
2, 62493, Note_on_c, 0, 71, 0
2, 62551, Note_on_c, 0, 61, 80
2, 62557, Note_on_c, 0, 57, 0
2, 62613, Note_on_c, 0, 64, 61
2, 62619, Note_on_c, 0, 61, 0
2, 62665, Note_on_c, 0, 73, 115
2, 62665, Note_on_c, 0, 57, 73
2, 62668, Note_on_c, 0, 64, 0
2, 62688, Note_on_c, 0, 76, 0
2, 62726, Note_on_c, 0, 61, 78
2, 62752, Note_on_c, 0, 57, 0
2, 62771, Note_on_c, 0, 61, 0
2, 62782, Note_on_c, 0, 73, 0
2, 62784, Note_on_c, 0, 64, 73
2, 62835, Note_on_c, 0, 54, 85
2, 62844, Note_on_c, 0, 64, 0
2, 62847, Note_on_c, 0, 69, 108
2, 62856, Control_c, 0, 64, 63
2, 62861, Control_c, 0, 64, 0
2, 62898, Note_on_c, 0, 57, 70
2, 62918, Control_c, 0, 64, 63
2, 62920, Note_on_c, 0, 54, 0
2, 62922, Control_c, 0, 64, 127
2, 62965, Note_on_c, 0, 69, 0
2, 62966, Note_on_c, 0, 57, 0
2, 62966, Note_on_c, 0, 63, 96
2, 63036, Note_on_c, 0, 63, 0
2, 63072, Note_on_c, 0, 73, 118
2, 63075, Note_on_c, 0, 69, 99
2, 63085, Note_on_c, 0, 64, 73
2, 63094, Note_on_c, 0, 52, 57
2, 63141, Control_c, 0, 64, 63
2, 63150, Control_c, 0, 64, 0
2, 63284, Control_c, 0, 64, 63
2, 63285, Control_c, 0, 64, 127
2, 63419, Control_c, 0, 64, 63
2, 63424, Control_c, 0, 64, 0
2, 63507, Note_on_c, 0, 73, 0
2, 63513, Note_on_c, 0, 71, 71
2, 63514, Note_on_c, 0, 68, 76
2, 63526, Control_c, 0, 64, 63
2, 63531, Control_c, 0, 64, 127
2, 63532, Note_on_c, 0, 69, 0
2, 63560, Control_c, 0, 64, 63
2, 63563, Note_on_c, 0, 52, 0
2, 63569, Note_on_c, 0, 68, 0
2, 63569, Control_c, 0, 64, 0
2, 63573, Note_on_c, 0, 71, 0
2, 63616, Note_on_c, 0, 64, 0
2, 63707, Note_on_c, 0, 57, 70
2, 63710, Note_on_c, 0, 73, 99
2, 63730, Note_on_c, 0, 73, 0
2, 63760, Note_on_c, 0, 63, 67
2, 63767, Note_on_c, 0, 57, 0
2, 63815, Note_on_c, 0, 64, 55
2, 63820, Note_on_c, 0, 63, 0
2, 63894, Note_on_c, 0, 73, 102
2, 63904, Note_on_c, 0, 64, 0
2, 63905, Note_on_c, 0, 57, 43
2, 63910, Note_on_c, 0, 73, 0
2, 63950, Note_on_c, 0, 57, 0
2, 63950, Note_on_c, 0, 63, 66
2, 64009, Note_on_c, 0, 64, 40
2, 64015, Note_on_c, 0, 63, 0
2, 64037, Control_c, 0, 64, 63
2, 64064, Control_c, 0, 64, 127
2, 64072, Note_on_c, 0, 74, 101
2, 64073, Control_c, 0, 64, 63
2, 64075, Note_on_c, 0, 59, 68
2, 64078, Note_on_c, 0, 64, 0
2, 64087, Control_c, 0, 64, 0
2, 64105, Note_on_c, 0, 76, 73
2, 64106, Note_on_c, 0, 74, 0
2, 64123, Note_on_c, 0, 63, 79
2, 64133, Note_on_c, 0, 74, 91
2, 64134, Note_on_c, 0, 76, 0
2, 64139, Note_on_c, 0, 59, 0
2, 64171, Note_on_c, 0, 74, 0
2, 64172, Note_on_c, 0, 73, 88
2, 64178, Note_on_c, 0, 64, 42
2, 64180, Note_on_c, 0, 63, 0
2, 64204, Note_on_c, 0, 74, 73
2, 64214, Note_on_c, 0, 73, 0
2, 64250, Note_on_c, 0, 76, 83
2, 64261, Note_on_c, 0, 64, 0
2, 64261, Note_on_c, 0, 61, 73
2, 64268, Control_c, 0, 64, 63
2, 64279, Control_c, 0, 64, 127
2, 64284, Note_on_c, 0, 74, 0
2, 64329, Note_on_c, 0, 63, 68
2, 64334, Note_on_c, 0, 61, 0
2, 64379, Note_on_c, 0, 63, 0
2, 64380, Note_on_c, 0, 64, 45
2, 64423, Note_on_c, 0, 76, 0
2, 64424, Control_c, 0, 64, 63
2, 64439, Note_on_c, 0, 61, 87
2, 64440, Control_c, 0, 64, 0
2, 64452, Note_on_c, 0, 64, 0
2, 64488, Note_on_c, 0, 63, 84
2, 64495, Note_on_c, 0, 61, 0
2, 64538, Note_on_c, 0, 64, 65
2, 64541, Note_on_c, 0, 63, 0
2, 64607, Note_on_c, 0, 64, 0
2, 64609, Note_on_c, 0, 57, 72
2, 64615, Note_on_c, 0, 78, 85
2, 64648, Note_on_c, 0, 76, 99
2, 64654, Note_on_c, 0, 78, 0
2, 64671, Note_on_c, 0, 63, 72
2, 64674, Note_on_c, 0, 57, 0
2, 64690, Note_on_c, 0, 74, 68
2, 64694, Note_on_c, 0, 76, 0
2, 64726, Note_on_c, 0, 73, 97
2, 64727, Note_on_c, 0, 64, 43
2, 64729, Note_on_c, 0, 63, 0
2, 64745, Note_on_c, 0, 74, 0
2, 64773, Note_on_c, 0, 73, 0
2, 64774, Note_on_c, 0, 71, 94
2, 64779, Note_on_c, 0, 56, 85
2, 64795, Note_on_c, 0, 64, 0
2, 64805, Note_on_c, 0, 71, 0
2, 64845, Note_on_c, 0, 63, 74
2, 64846, Note_on_c, 0, 56, 0
2, 64903, Note_on_c, 0, 63, 0
2, 64905, Note_on_c, 0, 64, 40
2, 64963, Note_on_c, 0, 71, 96
2, 64964, Note_on_c, 0, 56, 70
2, 64981, Note_on_c, 0, 71, 0
2, 64983, Note_on_c, 0, 64, 0
2, 65018, Note_on_c, 0, 63, 61
2, 65031, Note_on_c, 0, 56, 0
2, 65075, Note_on_c, 0, 64, 44
2, 65079, Note_on_c, 0, 63, 0
2, 65133, Note_on_c, 0, 57, 67
2, 65134, Note_on_c, 0, 73, 104
2, 65143, Note_on_c, 0, 64, 0
2, 65168, Note_on_c, 0, 74, 85
2, 65169, Note_on_c, 0, 73, 0
2, 65185, Note_on_c, 0, 63, 72
2, 65192, Note_on_c, 0, 57, 0
2, 65204, Note_on_c, 0, 73, 72
2, 65206, Note_on_c, 0, 74, 0
2, 65236, Note_on_c, 0, 73, 0
2, 65237, Note_on_c, 0, 71, 73
2, 65244, Note_on_c, 0, 64, 43
2, 65246, Note_on_c, 0, 63, 0
2, 65267, Note_on_c, 0, 71, 0
2, 65267, Note_on_c, 0, 73, 85
2, 65309, Note_on_c, 0, 74, 87
2, 65317, Note_on_c, 0, 73, 0
2, 65319, Note_on_c, 0, 64, 0
2, 65320, Note_on_c, 0, 59, 61
2, 65381, Note_on_c, 0, 63, 69
2, 65397, Note_on_c, 0, 59, 0
2, 65443, Note_on_c, 0, 63, 0
2, 65445, Note_on_c, 0, 64, 36
2, 65489, Note_on_c, 0, 59, 65
2, 65494, Note_on_c, 0, 64, 0
2, 65514, Note_on_c, 0, 74, 0
2, 65545, Note_on_c, 0, 63, 76
2, 65558, Note_on_c, 0, 59, 0
2, 65595, Note_on_c, 0, 64, 63
2, 65607, Note_on_c, 0, 63, 0
2, 65666, Note_on_c, 0, 56, 87
2, 65668, Note_on_c, 0, 64, 0
2, 65673, Note_on_c, 0, 76, 89
2, 65699, Note_on_c, 0, 74, 91
2, 65716, Note_on_c, 0, 76, 0
2, 65728, Note_on_c, 0, 63, 74
2, 65731, Note_on_c, 0, 56, 0
2, 65749, Note_on_c, 0, 73, 87
2, 65751, Note_on_c, 0, 74, 0
2, 65781, Note_on_c, 0, 63, 0
2, 65785, Note_on_c, 0, 71, 91
2, 65785, Note_on_c, 0, 64, 53
2, 65811, Note_on_c, 0, 73, 0
2, 65835, Note_on_c, 0, 69, 90
2, 65837, Note_on_c, 0, 71, 0
2, 65849, Note_on_c, 0, 64, 0
2, 65852, Note_on_c, 0, 54, 82
2, 65867, Note_on_c, 0, 69, 0
2, 65904, Note_on_c, 0, 63, 87
2, 65906, Note_on_c, 0, 54, 0
2, 65959, Note_on_c, 0, 63, 0
2, 65963, Note_on_c, 0, 64, 49
2, 66014, Note_on_c, 0, 54, 80
2, 66019, Note_on_c, 0, 69, 92
2, 66022, Note_on_c, 0, 64, 0
2, 66037, Note_on_c, 0, 69, 0
2, 66073, Note_on_c, 0, 54, 0
2, 66075, Note_on_c, 0, 63, 80
2, 66132, Note_on_c, 0, 63, 0
2, 66132, Note_on_c, 0, 64, 59
2, 66175, Note_on_c, 0, 56, 78
2, 66185, Note_on_c, 0, 71, 111
2, 66193, Note_on_c, 0, 64, 0
2, 66209, Note_on_c, 0, 73, 101
2, 66216, Note_on_c, 0, 71, 0
2, 66238, Note_on_c, 0, 73, 0
2, 66239, Note_on_c, 0, 56, 0
2, 66241, Note_on_c, 0, 62, 55
2, 66251, Note_on_c, 0, 71, 89
2, 66285, Note_on_c, 0, 71, 0
2, 66286, Note_on_c, 0, 69, 79
2, 66286, Note_on_c, 0, 64, 64
2, 66292, Note_on_c, 0, 62, 0
2, 66323, Note_on_c, 0, 71, 75
2, 66329, Note_on_c, 0, 69, 0
2, 66351, Note_on_c, 0, 64, 0
2, 66352, Note_on_c, 0, 57, 76
2, 66357, Note_on_c, 0, 73, 112
2, 66368, Note_on_c, 0, 71, 0
2, 66385, Note_on_c, 0, 73, 0
2, 66407, Note_on_c, 0, 61, 86
2, 66420, Note_on_c, 0, 57, 0
2, 66467, Note_on_c, 0, 64, 60
2, 66468, Note_on_c, 0, 61, 0
2, 66525, Note_on_c, 0, 57, 66
2, 66525, Note_on_c, 0, 73, 115
2, 66531, Note_on_c, 0, 64, 0
2, 66555, Note_on_c, 0, 73, 0
2, 66569, Note_on_c, 0, 61, 85
2, 66599, Note_on_c, 0, 57, 0
2, 66618, Note_on_c, 0, 61, 0
2, 66624, Note_on_c, 0, 64, 77
2, 66649, Control_c, 0, 64, 63
2, 66669, Note_on_c, 0, 64, 0
2, 66688, Note_on_c, 0, 50, 106
2, 66689, Control_c, 0, 64, 0
2, 66696, Note_on_c, 0, 74, 106
2, 66711, Note_on_c, 0, 76, 103
2, 66727, Note_on_c, 0, 74, 0
2, 66743, Note_on_c, 0, 76, 0
2, 66748, Note_on_c, 0, 54, 80
2, 66754, Note_on_c, 0, 50, 0
2, 66760, Note_on_c, 0, 74, 89
2, 66795, Note_on_c, 0, 54, 0
2, 66795, Note_on_c, 0, 59, 58
2, 66797, Note_on_c, 0, 74, 0
2, 66799, Note_on_c, 0, 73, 98
2, 66827, Note_on_c, 0, 74, 81
2, 66836, Note_on_c, 0, 73, 0
2, 66866, Note_on_c, 0, 59, 0
2, 66873, Note_on_c, 0, 52, 89
2, 66875, Note_on_c, 0, 73, 105
2, 66882, Note_on_c, 0, 74, 0
2, 66903, Note_on_c, 0, 73, 0
2, 66922, Note_on_c, 0, 57, 71
2, 66939, Note_on_c, 0, 52, 0
2, 66984, Note_on_c, 0, 61, 89
2, 67003, Note_on_c, 0, 57, 0
2, 67040, Note_on_c, 0, 52, 75
2, 67041, Note_on_c, 0, 61, 0
2, 67048, Note_on_c, 0, 73, 115
2, 67077, Note_on_c, 0, 73, 0
2, 67095, Note_on_c, 0, 57, 61
2, 67107, Note_on_c, 0, 52, 0
2, 67139, Note_on_c, 0, 61, 99
2, 67151, Note_on_c, 0, 57, 0
2, 67190, Note_on_c, 0, 61, 0
2, 67205, Note_on_c, 0, 52, 95
2, 67218, Note_on_c, 0, 71, 114
2, 67242, Note_on_c, 0, 73, 104
2, 67252, Note_on_c, 0, 71, 0
2, 67266, Note_on_c, 0, 56, 85
2, 67273, Note_on_c, 0, 73, 0
2, 67274, Note_on_c, 0, 52, 0
2, 67280, Note_on_c, 0, 71, 86
2, 67312, Note_on_c, 0, 56, 0
2, 67315, Note_on_c, 0, 62, 72
2, 67320, Note_on_c, 0, 69, 91
2, 67324, Note_on_c, 0, 71, 0
2, 67350, Note_on_c, 0, 62, 0
2, 67359, Note_on_c, 0, 71, 65
2, 67366, Note_on_c, 0, 69, 0
2, 67382, Note_on_c, 0, 71, 0
2, 67400, Note_on_c, 0, 57, 101
2, 67401, Note_on_c, 0, 64, 101
2, 67404, Note_on_c, 0, 71, 107
2, 67404, Note_on_c, 0, 62, 102
2, 67414, Note_on_c, 0, 68, 96
2, 67591, Note_on_c, 0, 72, 106
2, 67601, Note_on_c, 0, 71, 0
2, 67706, Note_on_c, 0, 68, 0
2, 67764, Note_on_c, 0, 72, 0
2, 67773, Control_c, 0, 64, 127
2, 67776, Note_on_c, 0, 69, 73
2, 67779, Note_on_c, 0, 73, 97
2, 67782, Note_on_c, 0, 61, 90
2, 67798, Note_on_c, 0, 62, 0
2, 67820, Note_on_c, 0, 64, 0
2, 67822, Note_on_c, 0, 57, 0
2, 67823, Note_on_c, 0, 61, 0
2, 67824, Note_on_c, 0, 69, 0
2, 67827, Note_on_c, 0, 73, 0
2, 67855, Control_c, 0, 64, 63
2, 67859, Control_c, 0, 64, 0
2, 67966, Note_on_c, 0, 45, 125
2, 67969, Note_on_c, 0, 73, 120
2, 67975, Control_c, 0, 64, 127
2, 67999, Note_on_c, 0, 45, 0
2, 68008, Note_on_c, 0, 69, 78
2, 68021, Note_on_c, 0, 73, 0
2, 68052, Note_on_c, 0, 69, 0
2, 68071, Note_on_c, 0, 64, 73
2, 68111, Note_on_c, 0, 64, 0
2, 68141, Note_on_c, 0, 56, 108
2, 68147, Control_c, 0, 64, 63
2, 68149, Note_on_c, 0, 73, 117
2, 68150, Note_on_c, 0, 57, 101
2, 68152, Control_c, 0, 64, 0
2, 68176, Note_on_c, 0, 56, 0
2, 68185, Note_on_c, 0, 57, 0
2, 68198, Note_on_c, 0, 69, 85
2, 68205, Note_on_c, 0, 73, 0
2, 68243, Note_on_c, 0, 69, 0
2, 68257, Note_on_c, 0, 64, 66
2, 68298, Note_on_c, 0, 64, 0
2, 68319, Note_on_c, 0, 58, 92
2, 68324, Note_on_c, 0, 74, 108
2, 68325, Note_on_c, 0, 59, 107
2, 68344, Note_on_c, 0, 58, 0
2, 68365, Note_on_c, 0, 59, 0
2, 68379, Note_on_c, 0, 68, 92
2, 68389, Note_on_c, 0, 74, 0
2, 68416, Note_on_c, 0, 68, 0
2, 68432, Note_on_c, 0, 64, 91
2, 68473, Note_on_c, 0, 64, 0
2, 68493, Note_on_c, 0, 49, 119
2, 68500, Note_on_c, 0, 76, 115
2, 68506, Control_c, 0, 64, 127
2, 68528, Note_on_c, 0, 49, 0
2, 68553, Note_on_c, 0, 73, 102
2, 68571, Note_on_c, 0, 76, 0
2, 68602, Note_on_c, 0, 73, 0
2, 68610, Note_on_c, 0, 69, 79
2, 68652, Note_on_c, 0, 69, 0
2, 68675, Note_on_c, 0, 60, 102
2, 68676, Note_on_c, 0, 76, 111
2, 68681, Note_on_c, 0, 61, 119
2, 68684, Control_c, 0, 64, 63
2, 68687, Control_c, 0, 64, 0
2, 68694, Note_on_c, 0, 60, 0
2, 68714, Note_on_c, 0, 61, 0
2, 68723, Note_on_c, 0, 73, 108
2, 68736, Note_on_c, 0, 76, 0
2, 68769, Note_on_c, 0, 73, 0
2, 68787, Note_on_c, 0, 69, 78
2, 68833, Note_on_c, 0, 69, 0
2, 68851, Note_on_c, 0, 61, 92
2, 68855, Note_on_c, 0, 78, 114
2, 68857, Note_on_c, 0, 62, 121
2, 68887, Note_on_c, 0, 61, 0
2, 68897, Note_on_c, 0, 62, 0
2, 68913, Note_on_c, 0, 71, 81
2, 68920, Note_on_c, 0, 78, 0
2, 68967, Note_on_c, 0, 71, 0
2, 68970, Note_on_c, 0, 69, 73
2, 69009, Note_on_c, 0, 69, 0
2, 69036, Note_on_c, 0, 40, 118
2, 69042, Note_on_c, 0, 73, 118
2, 69043, Control_c, 0, 64, 127
2, 69065, Note_on_c, 0, 40, 0
2, 69080, Note_on_c, 0, 69, 79
2, 69109, Note_on_c, 0, 73, 0
2, 69144, Note_on_c, 0, 64, 65
2, 69160, Note_on_c, 0, 69, 0
2, 69197, Note_on_c, 0, 64, 0
2, 69210, Note_on_c, 0, 51, 96
2, 69220, Note_on_c, 0, 73, 113
2, 69222, Note_on_c, 0, 52, 111
2, 69224, Control_c, 0, 64, 63
2, 69227, Control_c, 0, 64, 0
2, 69245, Note_on_c, 0, 51, 0
2, 69255, Note_on_c, 0, 52, 0
2, 69270, Note_on_c, 0, 69, 87
2, 69283, Note_on_c, 0, 73, 0
2, 69324, Note_on_c, 0, 69, 0
2, 69334, Note_on_c, 0, 64, 63
2, 69384, Note_on_c, 0, 64, 0
2, 69401, Note_on_c, 0, 51, 106
2, 69406, Note_on_c, 0, 71, 111
2, 69408, Note_on_c, 0, 52, 111
2, 69430, Note_on_c, 0, 51, 0
2, 69443, Note_on_c, 0, 52, 0
2, 69458, Note_on_c, 0, 68, 103
2, 69477, Note_on_c, 0, 71, 0
2, 69515, Note_on_c, 0, 62, 81
2, 69516, Note_on_c, 0, 68, 0
2, 69568, Note_on_c, 0, 62, 0
2, 69593, Note_on_c, 0, 33, 116
2, 69597, Note_on_c, 0, 69, 117
2, 69612, Control_c, 0, 64, 127
2, 69630, Note_on_c, 0, 33, 0
2, 69650, Note_on_c, 0, 64, 96
2, 69662, Note_on_c, 0, 69, 0
2, 69699, Note_on_c, 0, 64, 0
2, 69714, Note_on_c, 0, 61, 105
2, 69766, Note_on_c, 0, 61, 0
2, 69788, Note_on_c, 0, 44, 66
2, 69812, Note_on_c, 0, 45, 109
2, 69813, Note_on_c, 0, 57, 93
2, 69848, Note_on_c, 0, 44, 0
2, 69859, Note_on_c, 0, 57, 0
2, 70103, Note_on_c, 0, 45, 0
2, 70167, Control_c, 0, 64, 63
2, 70201, Control_c, 0, 64, 0
2, 70810, Control_c, 0, 64, 63
2, 70915, Control_c, 0, 64, 127
2, 71103, Note_on_c, 0, 57, 23
2, 71117, Note_on_c, 0, 72, 39
2, 71313, Note_on_c, 0, 71, 42
2, 71322, Note_on_c, 0, 64, 34
2, 71346, Note_on_c, 0, 72, 0
2, 71475, Note_on_c, 0, 69, 62
2, 71494, Note_on_c, 0, 71, 0
2, 71502, Note_on_c, 0, 60, 22
2, 71508, Note_on_c, 0, 64, 0
2, 71610, Note_on_c, 0, 71, 76
2, 71617, Note_on_c, 0, 64, 43
2, 71632, Note_on_c, 0, 69, 0
2, 71633, Note_on_c, 0, 57, 0
2, 71744, Note_on_c, 0, 72, 84
2, 71763, Note_on_c, 0, 57, 48
2, 71777, Note_on_c, 0, 71, 0
2, 71793, Note_on_c, 0, 64, 0
2, 71803, Control_c, 0, 64, 63
2, 71819, Control_c, 0, 64, 0
2, 71878, Note_on_c, 0, 74, 91
2, 71884, Note_on_c, 0, 64, 47
2, 71885, Control_c, 0, 64, 63
2, 71898, Control_c, 0, 64, 127
2, 71918, Note_on_c, 0, 72, 0
2, 71956, Note_on_c, 0, 57, 0
2, 72011, Note_on_c, 0, 76, 82
2, 72022, Note_on_c, 0, 57, 43
2, 72025, Note_on_c, 0, 60, 0
2, 72042, Note_on_c, 0, 74, 0
2, 72061, Note_on_c, 0, 64, 0
2, 72080, Control_c, 0, 64, 63
2, 72100, Control_c, 0, 64, 0
2, 72158, Control_c, 0, 64, 63
2, 72158, Note_on_c, 0, 75, 86
2, 72159, Note_on_c, 0, 64, 33
2, 72173, Control_c, 0, 64, 127
2, 72203, Note_on_c, 0, 76, 0
2, 72298, Note_on_c, 0, 77, 70
2, 72321, Note_on_c, 0, 60, 19
2, 72328, Note_on_c, 0, 75, 0
2, 72336, Note_on_c, 0, 64, 0
2, 72349, Control_c, 0, 64, 63
2, 72351, Note_on_c, 0, 57, 0
2, 72365, Control_c, 0, 64, 0
2, 72437, Control_c, 0, 64, 63
2, 72445, Note_on_c, 0, 76, 77
2, 72449, Note_on_c, 0, 64, 38
2, 72450, Control_c, 0, 64, 127
2, 72454, Note_on_c, 0, 77, 0
2, 72580, Control_c, 0, 64, 63
2, 72583, Note_on_c, 0, 57, 41
2, 72588, Note_on_c, 0, 74, 68
2, 72607, Note_on_c, 0, 64, 0
2, 72607, Control_c, 0, 64, 0
2, 72616, Note_on_c, 0, 76, 0
2, 72627, Note_on_c, 0, 60, 0
2, 72657, Control_c, 0, 64, 63
2, 72679, Control_c, 0, 64, 127
2, 72717, Note_on_c, 0, 64, 23
2, 72727, Note_on_c, 0, 72, 67
2, 72741, Control_c, 0, 64, 63
2, 72755, Note_on_c, 0, 74, 0
2, 72772, Note_on_c, 0, 57, 0
2, 72827, Control_c, 0, 64, 127
2, 72888, Note_on_c, 0, 71, 57
2, 72907, Note_on_c, 0, 72, 0
2, 72907, Note_on_c, 0, 52, 30
2, 72925, Note_on_c, 0, 64, 0
2, 72931, Control_c, 0, 64, 63
2, 72947, Control_c, 0, 64, 0
2, 72988, Control_c, 0, 64, 63
2, 73013, Control_c, 0, 64, 127
2, 73042, Note_on_c, 0, 69, 72
2, 73050, Note_on_c, 0, 71, 0
2, 73054, Note_on_c, 0, 64, 33
2, 73175, Note_on_c, 0, 68, 79
2, 73185, Note_on_c, 0, 69, 0
2, 73190, Note_on_c, 0, 59, 59
2, 73219, Note_on_c, 0, 64, 0
2, 73296, Note_on_c, 0, 69, 87
2, 73300, Note_on_c, 0, 52, 0
2, 73303, Note_on_c, 0, 68, 0
2, 73306, Note_on_c, 0, 64, 47
2, 73424, Note_on_c, 0, 71, 81
2, 73425, Note_on_c, 0, 52, 60
2, 73432, Control_c, 0, 64, 63
2, 73449, Note_on_c, 0, 69, 0
2, 73453, Control_c, 0, 64, 0
2, 73458, Note_on_c, 0, 64, 0
2, 73504, Control_c, 0, 64, 63
2, 73524, Control_c, 0, 64, 127
2, 73552, Note_on_c, 0, 59, 0
2, 73555, Note_on_c, 0, 72, 97
2, 73562, Note_on_c, 0, 64, 52
2, 73585, Note_on_c, 0, 71, 0
2, 73615, Note_on_c, 0, 52, 0
2, 73687, Note_on_c, 0, 74, 89
2, 73690, Note_on_c, 0, 52, 64
2, 73705, Control_c, 0, 64, 63
2, 73721, Note_on_c, 0, 72, 0
2, 73721, Note_on_c, 0, 64, 0
2, 73727, Control_c, 0, 64, 0
2, 73777, Control_c, 0, 64, 63
2, 73799, Control_c, 0, 64, 127
2, 73819, Note_on_c, 0, 73, 92
2, 73821, Note_on_c, 0, 64, 50
2, 73838, Note_on_c, 0, 74, 0
2, 73890, Control_c, 0, 64, 63
2, 73907, Control_c, 0, 64, 0
2, 73955, Note_on_c, 0, 59, 54
2, 73958, Note_on_c, 0, 76, 73
2, 73963, Control_c, 0, 64, 63
2, 73984, Control_c, 0, 64, 127
2, 73985, Note_on_c, 0, 52, 0
2, 73986, Note_on_c, 0, 64, 0
2, 73988, Note_on_c, 0, 73, 0
2, 74081, Note_on_c, 0, 74, 69
2, 74087, Control_c, 0, 64, 63
2, 74090, Note_on_c, 0, 76, 0
2, 74096, Note_on_c, 0, 64, 33
2, 74117, Control_c, 0, 64, 0
2, 74140, Note_on_c, 0, 59, 0
2, 74163, Control_c, 0, 64, 63
2, 74189, Control_c, 0, 64, 127
2, 74216, Note_on_c, 0, 72, 71
2, 74218, Note_on_c, 0, 52, 40
2, 74238, Note_on_c, 0, 74, 0
2, 74266, Note_on_c, 0, 64, 0
2, 74303, Control_c, 0, 64, 63
2, 74335, Control_c, 0, 64, 0
2, 74346, Note_on_c, 0, 71, 57
2, 74349, Control_c, 0, 64, 63
2, 74363, Note_on_c, 0, 64, 30
2, 74380, Note_on_c, 0, 72, 0
2, 74388, Note_on_c, 0, 52, 0
2, 74388, Control_c, 0, 64, 127
2, 74510, Note_on_c, 0, 57, 38
2, 74514, Note_on_c, 0, 69, 50
2, 74520, Note_on_c, 0, 71, 0
2, 74540, Note_on_c, 0, 64, 0
2, 74554, Control_c, 0, 64, 63
2, 74572, Control_c, 0, 64, 0
2, 74607, Control_c, 0, 64, 63
2, 74633, Control_c, 0, 64, 127
2, 74668, Note_on_c, 0, 76, 58
2, 74673, Note_on_c, 0, 64, 36
2, 74707, Note_on_c, 0, 69, 0
2, 74801, Note_on_c, 0, 75, 83
2, 74807, Note_on_c, 0, 60, 44
2, 74810, Note_on_c, 0, 76, 0
2, 74813, Note_on_c, 0, 64, 0
2, 74880, Note_on_c, 0, 57, 0
2, 74914, Note_on_c, 0, 76, 88
2, 74922, Note_on_c, 0, 64, 49
2, 74930, Note_on_c, 0, 75, 0
2, 74960, Note_on_c, 0, 60, 0
2, 75039, Note_on_c, 0, 72, 87
2, 75048, Note_on_c, 0, 57, 55
2, 75063, Note_on_c, 0, 64, 0
2, 75071, Note_on_c, 0, 76, 0
2, 75086, Control_c, 0, 64, 63
2, 75102, Control_c, 0, 64, 0
2, 75140, Control_c, 0, 64, 63
2, 75160, Control_c, 0, 64, 127
2, 75167, Note_on_c, 0, 69, 87
2, 75171, Note_on_c, 0, 64, 62
2, 75185, Note_on_c, 0, 72, 0
2, 75193, Note_on_c, 0, 57, 0
2, 75288, Note_on_c, 0, 68, 97
2, 75310, Note_on_c, 0, 59, 68
2, 75320, Control_c, 0, 64, 63
2, 75321, Note_on_c, 0, 69, 0
2, 75332, Control_c, 0, 64, 0
2, 75339, Note_on_c, 0, 64, 0
2, 75378, Control_c, 0, 64, 63
2, 75387, Control_c, 0, 64, 127
2, 75395, Note_on_c, 0, 68, 0
2, 75436, Note_on_c, 0, 76, 101
2, 75438, Note_on_c, 0, 64, 64
2, 75568, Note_on_c, 0, 62, 71
2, 75572, Note_on_c, 0, 77, 101
2, 75601, Note_on_c, 0, 64, 0
2, 75602, Note_on_c, 0, 76, 0
2, 75637, Control_c, 0, 64, 63
2, 75655, Note_on_c, 0, 59, 0
2, 75662, Control_c, 0, 64, 0
2, 75695, Note_on_c, 0, 76, 95
2, 75696, Note_on_c, 0, 64, 62
2, 75721, Note_on_c, 0, 77, 0
2, 75827, Note_on_c, 0, 59, 66
2, 75828, Note_on_c, 0, 74, 99
2, 75859, Control_c, 0, 64, 63
2, 75870, Note_on_c, 0, 64, 0
2, 75870, Control_c, 0, 64, 127
2, 75881, Note_on_c, 0, 76, 0
2, 75936, Note_on_c, 0, 62, 0
2, 75948, Note_on_c, 0, 71, 90
2, 75959, Note_on_c, 0, 64, 49
2, 75976, Note_on_c, 0, 74, 0
2, 75992, Note_on_c, 0, 59, 0
2, 76040, Note_on_c, 0, 71, 0
2, 76077, Note_on_c, 0, 71, 93
2, 76091, Note_on_c, 0, 60, 63
2, 76105, Note_on_c, 0, 64, 0
2, 76120, Control_c, 0, 64, 63
2, 76158, Control_c, 0, 64, 0
2, 76204, Note_on_c, 0, 69, 89
2, 76206, Note_on_c, 0, 64, 55
2, 76234, Note_on_c, 0, 71, 0
2, 76328, Note_on_c, 0, 68, 101
2, 76334, Note_on_c, 0, 59, 58
2, 76343, Note_on_c, 0, 69, 0
2, 76356, Note_on_c, 0, 64, 0
2, 76372, Note_on_c, 0, 60, 0
2, 76458, Note_on_c, 0, 64, 51
2, 76460, Note_on_c, 0, 69, 89
2, 76468, Note_on_c, 0, 68, 0
2, 76529, Note_on_c, 0, 59, 0
2, 76593, Note_on_c, 0, 71, 81
2, 76595, Note_on_c, 0, 57, 54
2, 76630, Note_on_c, 0, 64, 0
2, 76643, Note_on_c, 0, 69, 0
2, 76717, Note_on_c, 0, 72, 91
2, 76732, Control_c, 0, 64, 63
2, 76736, Control_c, 0, 64, 127
2, 76747, Note_on_c, 0, 57, 0
2, 76749, Note_on_c, 0, 64, 34
2, 76750, Note_on_c, 0, 71, 0
2, 76850, Note_on_c, 0, 72, 0
2, 76877, Note_on_c, 0, 72, 95
2, 76883, Note_on_c, 0, 69, 60
2, 76883, Note_on_c, 0, 52, 53
2, 76892, Note_on_c, 0, 64, 0
2, 76906, Control_c, 0, 64, 63
2, 76913, Control_c, 0, 64, 0
2, 76982, Control_c, 0, 64, 63
2, 76988, Control_c, 0, 64, 127
2, 77049, Note_on_c, 0, 64, 32
2, 77066, Note_on_c, 0, 52, 0
2, 77174, Note_on_c, 0, 63, 62
2, 77192, Note_on_c, 0, 64, 0
2, 77313, Note_on_c, 0, 63, 0
2, 77321, Note_on_c, 0, 64, 49
2, 77327, Note_on_c, 0, 72, 0
2, 77347, Note_on_c, 0, 69, 0
2, 77484, Note_on_c, 0, 64, 0
2, 77490, Note_on_c, 0, 68, 53
2, 77490, Note_on_c, 0, 71, 44
2, 77491, Note_on_c, 0, 52, 47
2, 77500, Control_c, 0, 64, 63
2, 77515, Control_c, 0, 64, 0
2, 77561, Control_c, 0, 64, 63
2, 77571, Control_c, 0, 64, 127
2, 77617, Note_on_c, 0, 68, 0
2, 77630, Note_on_c, 0, 71, 0
2, 77632, Note_on_c, 0, 52, 0
2, 77649, Note_on_c, 0, 64, 40
2, 77823, Note_on_c, 0, 64, 0
2, 77849, Note_on_c, 0, 57, 36
2, 77853, Control_c, 0, 64, 63
2, 77859, Note_on_c, 0, 84, 59
2, 77866, Note_on_c, 0, 72, 34
2, 77867, Control_c, 0, 64, 0
2, 77901, Control_c, 0, 64, 63
2, 77914, Control_c, 0, 64, 127
2, 77957, Note_on_c, 0, 84, 0
2, 77959, Note_on_c, 0, 72, 0
2, 78023, Note_on_c, 0, 57, 0
2, 78025, Note_on_c, 0, 83, 82
2, 78031, Note_on_c, 0, 71, 56
2, 78036, Note_on_c, 0, 64, 31
2, 78097, Note_on_c, 0, 71, 0
2, 78097, Note_on_c, 0, 83, 0
2, 78162, Note_on_c, 0, 60, 55
2, 78165, Note_on_c, 0, 81, 95
2, 78169, Note_on_c, 0, 64, 0
2, 78170, Note_on_c, 0, 69, 76
2, 78214, Note_on_c, 0, 69, 0
2, 78241, Note_on_c, 0, 81, 0
2, 78289, Note_on_c, 0, 60, 0
2, 78295, Note_on_c, 0, 64, 48
2, 78298, Note_on_c, 0, 83, 97
2, 78299, Note_on_c, 0, 71, 88
2, 78348, Note_on_c, 0, 71, 0
2, 78376, Note_on_c, 0, 83, 0
2, 78418, Note_on_c, 0, 57, 71
2, 78423, Note_on_c, 0, 84, 104
2, 78425, Note_on_c, 0, 72, 89
2, 78434, Note_on_c, 0, 64, 0
2, 78463, Control_c, 0, 64, 63
2, 78490, Note_on_c, 0, 72, 0
2, 78497, Control_c, 0, 64, 127
2, 78510, Note_on_c, 0, 84, 0
2, 78545, Note_on_c, 0, 86, 107
2, 78547, Note_on_c, 0, 64, 64
2, 78548, Note_on_c, 0, 74, 86
2, 78555, Note_on_c, 0, 57, 0
2, 78612, Note_on_c, 0, 74, 0
2, 78625, Note_on_c, 0, 86, 0
2, 78663, Note_on_c, 0, 88, 107
2, 78664, Note_on_c, 0, 57, 73
2, 78671, Note_on_c, 0, 64, 0
2, 78671, Note_on_c, 0, 76, 70
2, 78679, Control_c, 0, 64, 63
2, 78715, Control_c, 0, 64, 127
2, 78737, Note_on_c, 0, 76, 0
2, 78740, Note_on_c, 0, 88, 0
2, 78789, Note_on_c, 0, 64, 46
2, 78790, Note_on_c, 0, 57, 0
2, 78798, Note_on_c, 0, 87, 110
2, 78801, Note_on_c, 0, 75, 100
2, 78842, Note_on_c, 0, 75, 0
2, 78848, Note_on_c, 0, 87, 0
2, 78927, Note_on_c, 0, 64, 0
2, 78932, Note_on_c, 0, 60, 61
2, 78933, Note_on_c, 0, 89, 96
2, 78942, Note_on_c, 0, 77, 57
2, 78994, Note_on_c, 0, 89, 0
2, 79002, Note_on_c, 0, 77, 0
2, 79047, Note_on_c, 0, 60, 0
2, 79048, Note_on_c, 0, 64, 50
2, 79067, Note_on_c, 0, 88, 88
2, 79068, Note_on_c, 0, 76, 77
2, 79084, Control_c, 0, 64, 63
2, 79104, Control_c, 0, 64, 0
2, 79121, Control_c, 0, 64, 63
2, 79136, Control_c, 0, 64, 127
2, 79149, Note_on_c, 0, 88, 0
2, 79161, Note_on_c, 0, 76, 0
2, 79183, Note_on_c, 0, 57, 38
2, 79200, Note_on_c, 0, 64, 0
2, 79208, Note_on_c, 0, 86, 89
2, 79214, Note_on_c, 0, 74, 49
2, 79265, Note_on_c, 0, 86, 0
2, 79278, Note_on_c, 0, 74, 0
2, 79316, Note_on_c, 0, 57, 0
2, 79331, Note_on_c, 0, 84, 84
2, 79331, Note_on_c, 0, 72, 84
2, 79347, Note_on_c, 0, 64, 17
2, 79407, Note_on_c, 0, 72, 0
2, 79407, Note_on_c, 0, 84, 0
2, 79480, Note_on_c, 0, 64, 0
2, 79488, Note_on_c, 0, 52, 48
2, 79492, Note_on_c, 0, 83, 81
2, 79505, Note_on_c, 0, 71, 25
2, 79517, Control_c, 0, 64, 63
2, 79532, Control_c, 0, 64, 0
2, 79562, Control_c, 0, 64, 63
2, 79574, Control_c, 0, 64, 127
2, 79585, Note_on_c, 0, 83, 0
2, 79602, Note_on_c, 0, 71, 0
2, 79637, Note_on_c, 0, 64, 46
2, 79642, Note_on_c, 0, 52, 0
2, 79652, Note_on_c, 0, 81, 81
2, 79655, Note_on_c, 0, 69, 47
2, 79698, Note_on_c, 0, 81, 0
2, 79703, Note_on_c, 0, 69, 0
2, 79779, Note_on_c, 0, 68, 92
2, 79780, Note_on_c, 0, 80, 91
2, 79781, Note_on_c, 0, 64, 0
2, 79788, Note_on_c, 0, 59, 35
2, 79821, Note_on_c, 0, 68, 0
2, 79845, Note_on_c, 0, 80, 0
2, 79892, Note_on_c, 0, 81, 97
2, 79899, Note_on_c, 0, 69, 62
2, 79901, Note_on_c, 0, 64, 52
2, 79911, Note_on_c, 0, 59, 0
2, 79940, Note_on_c, 0, 69, 0
2, 79960, Note_on_c, 0, 81, 0
2, 80017, Note_on_c, 0, 71, 79
2, 80018, Note_on_c, 0, 83, 98
2, 80018, Note_on_c, 0, 52, 62
2, 80026, Note_on_c, 0, 64, 0
2, 80056, Note_on_c, 0, 71, 0
2, 80078, Note_on_c, 0, 83, 0
2, 80127, Note_on_c, 0, 52, 0
2, 80138, Note_on_c, 0, 84, 105
2, 80140, Note_on_c, 0, 64, 78
2, 80140, Note_on_c, 0, 72, 94
2, 80178, Note_on_c, 0, 72, 0
2, 80194, Note_on_c, 0, 84, 0
2, 80257, Note_on_c, 0, 52, 71
2, 80257, Note_on_c, 0, 86, 114
2, 80261, Note_on_c, 0, 74, 85
2, 80268, Note_on_c, 0, 64, 0
2, 80273, Control_c, 0, 64, 63
2, 80286, Control_c, 0, 64, 0
2, 80310, Control_c, 0, 64, 63
2, 80323, Control_c, 0, 64, 127
2, 80336, Note_on_c, 0, 86, 0
2, 80341, Note_on_c, 0, 74, 0
2, 80385, Note_on_c, 0, 52, 0
2, 80385, Note_on_c, 0, 64, 51
2, 80388, Note_on_c, 0, 85, 110
2, 80390, Note_on_c, 0, 73, 102
2, 80429, Note_on_c, 0, 73, 0
2, 80443, Note_on_c, 0, 85, 0
2, 80520, Note_on_c, 0, 59, 66
2, 80521, Note_on_c, 0, 88, 87
2, 80526, Note_on_c, 0, 64, 0
2, 80529, Note_on_c, 0, 76, 64
2, 80588, Note_on_c, 0, 88, 0
2, 80592, Note_on_c, 0, 76, 0
2, 80640, Note_on_c, 0, 64, 55
2, 80645, Note_on_c, 0, 86, 92
2, 80649, Note_on_c, 0, 74, 68
2, 80650, Control_c, 0, 64, 63
2, 80666, Note_on_c, 0, 59, 0
2, 80686, Control_c, 0, 64, 127
2, 80724, Note_on_c, 0, 86, 0
2, 80735, Note_on_c, 0, 74, 0
2, 80772, Note_on_c, 0, 52, 41
2, 80783, Note_on_c, 0, 84, 94
2, 80789, Note_on_c, 0, 64, 0
2, 80794, Note_on_c, 0, 72, 38
2, 80835, Note_on_c, 0, 84, 0
2, 80848, Note_on_c, 0, 72, 0
2, 80871, Note_on_c, 0, 52, 0
2, 80903, Note_on_c, 0, 83, 88
2, 80909, Note_on_c, 0, 71, 53
2, 80910, Note_on_c, 0, 64, 30
2, 80965, Note_on_c, 0, 83, 0
2, 80986, Note_on_c, 0, 71, 0
2, 81050, Note_on_c, 0, 57, 49
2, 81053, Note_on_c, 0, 64, 0
2, 81055, Control_c, 0, 64, 63
2, 81062, Control_c, 0, 64, 0
2, 81063, Note_on_c, 0, 81, 82
2, 81063, Note_on_c, 0, 69, 66
2, 81084, Control_c, 0, 64, 63
2, 81095, Control_c, 0, 64, 127
2, 81122, Note_on_c, 0, 81, 0
2, 81125, Note_on_c, 0, 69, 0
2, 81194, Note_on_c, 0, 64, 38
2, 81195, Note_on_c, 0, 80, 89
2, 81198, Note_on_c, 0, 68, 80
2, 81218, Note_on_c, 0, 57, 0
2, 81228, Note_on_c, 0, 68, 0
2, 81263, Note_on_c, 0, 80, 0
2, 81310, Note_on_c, 0, 64, 0
2, 81312, Note_on_c, 0, 60, 88
2, 81315, Note_on_c, 0, 81, 102
2, 81315, Note_on_c, 0, 69, 102
2, 81359, Note_on_c, 0, 69, 0
2, 81359, Note_on_c, 0, 81, 0
2, 81429, Note_on_c, 0, 84, 105
2, 81431, Note_on_c, 0, 72, 86
2, 81439, Note_on_c, 0, 60, 0
2, 81440, Note_on_c, 0, 64, 62
2, 81486, Note_on_c, 0, 84, 0
2, 81489, Note_on_c, 0, 72, 0
2, 81554, Note_on_c, 0, 56, 103
2, 81561, Note_on_c, 0, 83, 102
2, 81563, Control_c, 0, 64, 63
2, 81563, Note_on_c, 0, 71, 97
2, 81590, Note_on_c, 0, 64, 0
2, 81593, Control_c, 0, 64, 127
2, 81610, Note_on_c, 0, 71, 0
2, 81622, Note_on_c, 0, 83, 0
2, 81680, Note_on_c, 0, 86, 108
2, 81682, Note_on_c, 0, 64, 83
2, 81685, Note_on_c, 0, 74, 81
2, 81728, Note_on_c, 0, 86, 0
2, 81733, Note_on_c, 0, 74, 0
2, 81743, Note_on_c, 0, 56, 0
2, 81808, Note_on_c, 0, 57, 92
2, 81812, Control_c, 0, 64, 63
2, 81812, Note_on_c, 0, 84, 106
2, 81817, Control_c, 0, 64, 0
2, 81824, Note_on_c, 0, 72, 48
2, 81837, Note_on_c, 0, 64, 0
2, 81839, Control_c, 0, 64, 63
2, 81846, Control_c, 0, 64, 127
2, 81874, Note_on_c, 0, 84, 0
2, 81878, Note_on_c, 0, 72, 0
2, 81931, Note_on_c, 0, 64, 70
2, 81938, Note_on_c, 0, 71, 97
2, 81939, Note_on_c, 0, 83, 87
2, 81955, Note_on_c, 0, 57, 0
2, 81955, Note_on_c, 0, 81, 45
2, 81965, Note_on_c, 0, 71, 0
2, 81971, Note_on_c, 0, 81, 0
2, 81985, Note_on_c, 0, 83, 0
2, 82061, Note_on_c, 0, 60, 106
2, 82064, Note_on_c, 0, 84, 102
2, 82066, Note_on_c, 0, 64, 0
2, 82068, Note_on_c, 0, 72, 72
2, 82091, Note_on_c, 0, 72, 0
2, 82119, Note_on_c, 0, 84, 0
2, 82186, Note_on_c, 0, 88, 102
2, 82189, Note_on_c, 0, 64, 91
2, 82193, Note_on_c, 0, 76, 54
2, 82213, Note_on_c, 0, 60, 0
2, 82245, Note_on_c, 0, 76, 0
2, 82247, Note_on_c, 0, 88, 0
2, 82315, Control_c, 0, 64, 63
2, 82318, Note_on_c, 0, 53, 97
2, 82320, Note_on_c, 0, 86, 108
2, 82322, Control_c, 0, 64, 0
2, 82325, Note_on_c, 0, 74, 85
2, 82338, Note_on_c, 0, 64, 0
2, 82345, Control_c, 0, 64, 63
2, 82353, Control_c, 0, 64, 127
2, 82374, Note_on_c, 0, 74, 0
2, 82401, Note_on_c, 0, 86, 0
2, 82454, Note_on_c, 0, 89, 106
2, 82456, Note_on_c, 0, 62, 82
2, 82457, Note_on_c, 0, 77, 90
2, 82467, Note_on_c, 0, 53, 0
2, 82515, Note_on_c, 0, 89, 0
2, 82517, Note_on_c, 0, 77, 0
2, 82600, Control_c, 0, 64, 63
2, 82603, Note_on_c, 0, 52, 76
2, 82604, Control_c, 0, 64, 0
2, 82607, Note_on_c, 0, 88, 102
2, 82613, Note_on_c, 0, 76, 68
2, 82633, Control_c, 0, 64, 63
2, 82634, Note_on_c, 0, 62, 0
2, 82639, Control_c, 0, 64, 127
2, 82684, Note_on_c, 0, 88, 0
2, 82694, Note_on_c, 0, 76, 0
2, 82750, Note_on_c, 0, 60, 60
2, 82752, Note_on_c, 0, 52, 0
2, 82752, Note_on_c, 0, 87, 93
2, 82754, Note_on_c, 0, 75, 85
2, 82808, Note_on_c, 0, 75, 0
2, 82811, Note_on_c, 0, 87, 0
2, 82873, Note_on_c, 0, 60, 0
2, 82891, Note_on_c, 0, 57, 53
2, 82892, Note_on_c, 0, 88, 89
2, 82896, Note_on_c, 0, 76, 76
2, 82927, Note_on_c, 0, 88, 0
2, 82941, Note_on_c, 0, 76, 0
2, 83023, Note_on_c, 0, 57, 0
2, 83047, Note_on_c, 0, 60, 41
2, 83055, Note_on_c, 0, 76, 81
2, 83055, Note_on_c, 0, 64, 81
2, 83118, Note_on_c, 0, 64, 0
2, 83118, Note_on_c, 0, 76, 0
2, 83170, Note_on_c, 0, 60, 0
2, 83181, Note_on_c, 0, 52, 66
2, 83207, Note_on_c, 0, 78, 82
2, 83212, Note_on_c, 0, 66, 61
2, 83242, Control_c, 0, 64, 63
2, 83251, Control_c, 0, 64, 0
2, 83282, Control_c, 0, 64, 63
2, 83294, Note_on_c, 0, 66, 0
2, 83295, Control_c, 0, 64, 127
2, 83311, Note_on_c, 0, 78, 0
2, 83355, Note_on_c, 0, 59, 65
2, 83356, Note_on_c, 0, 52, 0
2, 83364, Note_on_c, 0, 68, 83
2, 83364, Note_on_c, 0, 80, 90
2, 83418, Note_on_c, 0, 68, 0
2, 83429, Note_on_c, 0, 80, 0
2, 83439, Note_on_c, 0, 59, 0
2, 83530, Note_on_c, 0, 81, 76
2, 83531, Note_on_c, 0, 45, 55
2, 83534, Note_on_c, 0, 69, 54
2, 83593, Control_c, 0, 64, 63
2, 83612, Control_c, 0, 64, 0
2, 83662, Note_on_c, 0, 45, 0
2, 83686, Note_on_c, 0, 48, 49
2, 83717, Note_on_c, 0, 48, 0
2, 83845, Note_on_c, 0, 52, 49
2, 83881, Note_on_c, 0, 52, 0
2, 84013, Note_on_c, 0, 57, 44
2, 84082, Note_on_c, 0, 57, 0
2, 84228, Note_on_c, 0, 45, 24
2, 84350, Control_c, 0, 64, 63
2, 84355, Control_c, 0, 64, 127
2, 84426, Note_on_c, 0, 45, 0
2, 84456, Note_on_c, 0, 81, 0
2, 84458, Note_on_c, 0, 69, 0
2, 84602, Control_c, 0, 64, 63
2, 84671, Control_c, 0, 64, 0
2, 84753, Control_c, 0, 64, 63
2, 84787, Note_on_c, 0, 69, 62
2, 84789, Note_on_c, 0, 57, 34
2, 84798, Note_on_c, 0, 60, 46
2, 84815, Control_c, 0, 64, 127
2, 84974, Note_on_c, 0, 68, 78
2, 84992, Note_on_c, 0, 69, 0
2, 85111, Note_on_c, 0, 69, 103
2, 85118, Note_on_c, 0, 68, 0
2, 85259, Note_on_c, 0, 81, 104
2, 85265, Note_on_c, 0, 69, 0
2, 85396, Control_c, 0, 64, 63
2, 85397, Note_on_c, 0, 80, 100
2, 85409, Note_on_c, 0, 61, 81
2, 85426, Control_c, 0, 64, 0
2, 85427, Note_on_c, 0, 81, 0
2, 85453, Note_on_c, 0, 60, 0
2, 85477, Control_c, 0, 64, 63
2, 85495, Control_c, 0, 64, 127
2, 85531, Note_on_c, 0, 79, 102
2, 85569, Note_on_c, 0, 80, 0
2, 85602, Note_on_c, 0, 57, 0
2, 85626, Note_on_c, 0, 79, 0
2, 85671, Note_on_c, 0, 79, 93
2, 85675, Note_on_c, 0, 62, 49
2, 85691, Note_on_c, 0, 57, 34
2, 85715, Note_on_c, 0, 61, 0
2, 85773, Control_c, 0, 64, 63
2, 85805, Note_on_c, 0, 77, 81
2, 85815, Control_c, 0, 64, 0
2, 85825, Note_on_c, 0, 79, 0
2, 85934, Note_on_c, 0, 76, 72
2, 85981, Note_on_c, 0, 77, 0
2, 86052, Note_on_c, 0, 77, 81
2, 86079, Note_on_c, 0, 76, 0
2, 86147, Control_c, 0, 64, 63
2, 86169, Control_c, 0, 64, 127
2, 86177, Note_on_c, 0, 76, 91
2, 86229, Note_on_c, 0, 77, 0
2, 86306, Note_on_c, 0, 77, 107
2, 86310, Note_on_c, 0, 57, 0
2, 86337, Note_on_c, 0, 76, 0
2, 86453, Note_on_c, 0, 81, 83
2, 86454, Note_on_c, 0, 65, 65
2, 86457, Note_on_c, 0, 57, 48
2, 86493, Control_c, 0, 64, 63
2, 86497, Note_on_c, 0, 77, 0
2, 86507, Note_on_c, 0, 62, 0
2, 86513, Control_c, 0, 64, 0
2, 86579, Control_c, 0, 64, 63
2, 86584, Note_on_c, 0, 64, 76
2, 86585, Note_on_c, 0, 80, 101
2, 86595, Control_c, 0, 64, 127
2, 86612, Note_on_c, 0, 81, 0
2, 86627, Note_on_c, 0, 65, 0
2, 86707, Note_on_c, 0, 65, 73
2, 86710, Note_on_c, 0, 81, 96
2, 86719, Control_c, 0, 64, 63
2, 86745, Control_c, 0, 64, 0
2, 86752, Note_on_c, 0, 64, 0
2, 86752, Note_on_c, 0, 80, 0
2, 86835, Control_c, 0, 64, 63
2, 86836, Note_on_c, 0, 80, 101
2, 86843, Note_on_c, 0, 64, 83
2, 86852, Control_c, 0, 64, 127
2, 86864, Note_on_c, 0, 81, 0
2, 86882, Note_on_c, 0, 65, 0
2, 86949, Control_c, 0, 64, 63
2, 86960, Note_on_c, 0, 81, 87
2, 86972, Control_c, 0, 64, 0
2, 86973, Note_on_c, 0, 65, 82
2, 86990, Note_on_c, 0, 80, 0
2, 86992, Note_on_c, 0, 64, 0
2, 87073, Control_c, 0, 64, 63
2, 87086, Control_c, 0, 64, 127
2, 87099, Note_on_c, 0, 77, 86
2, 87103, Note_on_c, 0, 62, 76
2, 87123, Note_on_c, 0, 65, 0
2, 87127, Note_on_c, 0, 81, 0
2, 87162, Note_on_c, 0, 57, 0
2, 87193, Note_on_c, 0, 77, 0
2, 87193, Note_on_c, 0, 62, 0
2, 87228, Note_on_c, 0, 77, 92
2, 87232, Note_on_c, 0, 62, 49
2, 87233, Note_on_c, 0, 57, 46
2, 87293, Control_c, 0, 64, 63
2, 87343, Control_c, 0, 64, 0
2, 87358, Note_on_c, 0, 76, 83
2, 87367, Note_on_c, 0, 60, 45
2, 87381, Note_on_c, 0, 62, 0
2, 87384, Note_on_c, 0, 77, 0
2, 87487, Note_on_c, 0, 75, 68
2, 87495, Note_on_c, 0, 59, 46
2, 87527, Note_on_c, 0, 60, 0
2, 87528, Note_on_c, 0, 76, 0
2, 87582, Control_c, 0, 64, 63
2, 87621, Note_on_c, 0, 76, 65
2, 87629, Note_on_c, 0, 75, 0
2, 87633, Note_on_c, 0, 60, 48
2, 87640, Note_on_c, 0, 59, 0
2, 87753, Note_on_c, 0, 75, 72
2, 87766, Control_c, 0, 64, 0
2, 87774, Note_on_c, 0, 59, 37
2, 87791, Note_on_c, 0, 76, 0
2, 87814, Note_on_c, 0, 60, 0
2, 87856, Control_c, 0, 64, 63
2, 87878, Control_c, 0, 64, 127
2, 87895, Note_on_c, 0, 60, 42
2, 87897, Note_on_c, 0, 76, 65
2, 87900, Note_on_c, 0, 75, 0
2, 87918, Note_on_c, 0, 59, 0
2, 87949, Note_on_c, 0, 57, 0
2, 87991, Note_on_c, 0, 76, 0
2, 88012, Note_on_c, 0, 60, 0
2, 88072, Note_on_c, 0, 76, 77
2, 88077, Note_on_c, 0, 60, 68
2, 88086, Note_on_c, 0, 57, 41
2, 88100, Control_c, 0, 64, 63
2, 88125, Control_c, 0, 64, 0
2, 88211, Note_on_c, 0, 74, 77
2, 88221, Note_on_c, 0, 62, 76
2, 88232, Control_c, 0, 64, 63
2, 88242, Note_on_c, 0, 76, 0
2, 88244, Note_on_c, 0, 60, 0
2, 88265, Control_c, 0, 64, 127
2, 88347, Note_on_c, 0, 64, 62
2, 88349, Note_on_c, 0, 72, 84
2, 88382, Note_on_c, 0, 62, 0
2, 88386, Note_on_c, 0, 74, 0
2, 88388, Control_c, 0, 64, 63
2, 88421, Control_c, 0, 64, 0
2, 88478, Note_on_c, 0, 62, 55
2, 88480, Note_on_c, 0, 71, 77
2, 88498, Note_on_c, 0, 64, 0
2, 88501, Note_on_c, 0, 72, 0
2, 88596, Control_c, 0, 64, 63
2, 88612, Note_on_c, 0, 60, 49
2, 88613, Note_on_c, 0, 71, 0
2, 88621, Note_on_c, 0, 69, 70
2, 88635, Note_on_c, 0, 62, 0
2, 88650, Control_c, 0, 64, 127
2, 88676, Control_c, 0, 64, 63
2, 88703, Control_c, 0, 64, 0
2, 88745, Control_c, 0, 64, 63
2, 88763, Note_on_c, 0, 60, 0
2, 88769, Note_on_c, 0, 76, 75
2, 88778, Note_on_c, 0, 69, 0
2, 88779, Control_c, 0, 64, 127
2, 88780, Note_on_c, 0, 57, 0
2, 88919, Control_c, 0, 64, 63
2, 88931, Note_on_c, 0, 56, 65
2, 88933, Note_on_c, 0, 77, 81
2, 88940, Control_c, 0, 64, 0
2, 88941, Note_on_c, 0, 59, 34
2, 88951, Note_on_c, 0, 76, 0
2, 88991, Control_c, 0, 64, 63
2, 89012, Control_c, 0, 64, 127
2, 89051, Note_on_c, 0, 56, 0
2, 89070, Note_on_c, 0, 74, 81
2, 89073, Note_on_c, 0, 60, 76
2, 89081, Note_on_c, 0, 57, 49
2, 89088, Note_on_c, 0, 59, 0
2, 89100, Note_on_c, 0, 77, 0
2, 89183, Note_on_c, 0, 57, 0
2, 89196, Note_on_c, 0, 59, 89
2, 89204, Note_on_c, 0, 62, 83
2, 89208, Note_on_c, 0, 71, 89
2, 89222, Note_on_c, 0, 74, 0
2, 89224, Note_on_c, 0, 60, 0
2, 89278, Note_on_c, 0, 59, 0
2, 89331, Note_on_c, 0, 69, 91
2, 89332, Note_on_c, 0, 60, 87
2, 89338, Note_on_c, 0, 64, 76
2, 89345, Note_on_c, 0, 71, 0
2, 89356, Note_on_c, 0, 62, 0
2, 89377, Control_c, 0, 64, 63
2, 89406, Control_c, 0, 64, 0
2, 89481, Note_on_c, 0, 60, 0
2, 89484, Note_on_c, 0, 65, 86
2, 89485, Note_on_c, 0, 68, 90
2, 89490, Note_on_c, 0, 62, 68
2, 89506, Note_on_c, 0, 69, 0
2, 89526, Note_on_c, 0, 64, 0
2, 89630, Note_on_c, 0, 71, 84
2, 89648, Note_on_c, 0, 68, 0
2, 89672, Control_c, 0, 64, 63
2, 89682, Control_c, 0, 64, 127
2, 89750, Note_on_c, 0, 71, 0
2, 89791, Note_on_c, 0, 62, 0
2, 89796, Note_on_c, 0, 71, 85
2, 89798, Note_on_c, 0, 64, 59
2, 89803, Note_on_c, 0, 60, 61
2, 89805, Control_c, 0, 64, 63
2, 89806, Note_on_c, 0, 65, 0
2, 89836, Control_c, 0, 64, 0
2, 89909, Control_c, 0, 64, 63
2, 89922, Control_c, 0, 64, 127
2, 89947, Note_on_c, 0, 69, 68
2, 89956, Note_on_c, 0, 60, 0
2, 89957, Note_on_c, 0, 71, 0
2, 90006, Note_on_c, 0, 64, 0
2, 90067, Note_on_c, 0, 69, 0
2, 90099, Note_on_c, 0, 72, 99
2, 90101, Note_on_c, 0, 56, 90
2, 90102, Note_on_c, 0, 64, 81
2, 90142, Control_c, 0, 64, 63
2, 90159, Control_c, 0, 64, 0
2, 90226, Control_c, 0, 64, 63
2, 90237, Control_c, 0, 64, 127
2, 90246, Note_on_c, 0, 71, 94
2, 90294, Note_on_c, 0, 72, 0
2, 90325, Note_on_c, 0, 64, 0
2, 90358, Note_on_c, 0, 56, 0
2, 90383, Note_on_c, 0, 71, 0
2, 90420, Note_on_c, 0, 74, 94
2, 90421, Note_on_c, 0, 64, 91
2, 90425, Note_on_c, 0, 57, 76
2, 90477, Control_c, 0, 64, 63
2, 90491, Control_c, 0, 64, 0
2, 90560, Control_c, 0, 64, 63
2, 90568, Control_c, 0, 64, 127
2, 90606, Note_on_c, 0, 72, 101
2, 90620, Note_on_c, 0, 64, 0
2, 90638, Note_on_c, 0, 74, 0
2, 90647, Note_on_c, 0, 57, 0
2, 90697, Note_on_c, 0, 72, 0
2, 90806, Note_on_c, 0, 71, 86
2, 90847, Note_on_c, 0, 72, 81
2, 90860, Note_on_c, 0, 71, 0
2, 90867, Note_on_c, 0, 51, 54
2, 90894, Note_on_c, 0, 74, 89
2, 90906, Note_on_c, 0, 72, 0
2, 90955, Note_on_c, 0, 72, 96
2, 90957, Note_on_c, 0, 69, 67
2, 90972, Control_c, 0, 64, 63
2, 90979, Note_on_c, 0, 74, 0
2, 91002, Control_c, 0, 64, 0
2, 91385, Control_c, 0, 64, 63
2, 91393, Control_c, 0, 64, 127
2, 91491, Note_on_c, 0, 72, 0
2, 91514, Note_on_c, 0, 51, 0
2, 91518, Note_on_c, 0, 69, 0
2, 91836, Note_on_c, 0, 68, 46
2, 91841, Note_on_c, 0, 71, 35
2, 91844, Note_on_c, 0, 52, 42
2, 91881, Control_c, 0, 64, 63
2, 91898, Control_c, 0, 64, 0
2, 91973, Control_c, 0, 64, 63
2, 91987, Control_c, 0, 64, 127
2, 92067, Note_on_c, 0, 68, 0
2, 92069, Note_on_c, 0, 52, 0
2, 92090, Note_on_c, 0, 71, 0
2, 92366, Control_c, 0, 64, 63
2, 92445, Note_on_c, 0, 72, 46
2, 92453, Note_on_c, 0, 57, 27
2, 92518, Control_c, 0, 64, 0
2, 92590, Control_c, 0, 64, 63
2, 92633, Control_c, 0, 64, 127
2, 92644, Note_on_c, 0, 64, 30
2, 92650, Note_on_c, 0, 71, 57
2, 92674, Note_on_c, 0, 72, 0
2, 92786, Note_on_c, 0, 69, 62
2, 92787, Note_on_c, 0, 71, 0
2, 92797, Note_on_c, 0, 64, 0
2, 92805, Note_on_c, 0, 60, 23
2, 92847, Control_c, 0, 64, 63
2, 92921, Note_on_c, 0, 71, 69
2, 92923, Note_on_c, 0, 57, 0
2, 92923, Control_c, 0, 64, 0
2, 92926, Note_on_c, 0, 64, 40
2, 92937, Note_on_c, 0, 69, 0
2, 92963, Control_c, 0, 64, 63
2, 93037, Control_c, 0, 64, 0
2, 93055, Note_on_c, 0, 72, 76
2, 93059, Note_on_c, 0, 57, 41
2, 93078, Note_on_c, 0, 71, 0
2, 93082, Note_on_c, 0, 64, 0
2, 93093, Note_on_c, 0, 60, 0
2, 93188, Note_on_c, 0, 74, 85
2, 93191, Note_on_c, 0, 64, 42
2, 93206, Note_on_c, 0, 57, 0
2, 93226, Note_on_c, 0, 72, 0
2, 93308, Control_c, 0, 64, 63
2, 93312, Note_on_c, 0, 57, 46
2, 93325, Note_on_c, 0, 76, 73
2, 93344, Note_on_c, 0, 64, 0
2, 93354, Note_on_c, 0, 74, 0
2, 93364, Control_c, 0, 64, 127
2, 93448, Note_on_c, 0, 75, 85
2, 93455, Note_on_c, 0, 64, 36
2, 93467, Control_c, 0, 64, 63
2, 93474, Note_on_c, 0, 76, 0
2, 93504, Control_c, 0, 64, 0
2, 93578, Note_on_c, 0, 60, 48
2, 93580, Note_on_c, 0, 64, 0
2, 93582, Note_on_c, 0, 57, 0
2, 93592, Note_on_c, 0, 77, 71
2, 93616, Note_on_c, 0, 75, 0
2, 93712, Note_on_c, 0, 64, 36
2, 93716, Note_on_c, 0, 60, 0
2, 93719, Note_on_c, 0, 76, 66
2, 93734, Note_on_c, 0, 77, 0
2, 93829, Note_on_c, 0, 57, 46
2, 93848, Note_on_c, 0, 74, 60
2, 93853, Note_on_c, 0, 64, 0
2, 93887, Note_on_c, 0, 76, 0
2, 93968, Note_on_c, 0, 57, 0
2, 93971, Control_c, 0, 64, 63
2, 93976, Note_on_c, 0, 64, 24
2, 93978, Note_on_c, 0, 72, 64
2, 94005, Note_on_c, 0, 74, 0
2, 94116, Note_on_c, 0, 71, 66
2, 94125, Note_on_c, 0, 64, 0
2, 94127, Note_on_c, 0, 72, 0
2, 94155, Note_on_c, 0, 52, 10
2, 94171, Control_c, 0, 64, 0
2, 94221, Control_c, 0, 64, 63
2, 94245, Note_on_c, 0, 64, 27
2, 94245, Note_on_c, 0, 69, 76
2, 94255, Control_c, 0, 64, 127
2, 94261, Note_on_c, 0, 71, 0
2, 94369, Note_on_c, 0, 52, 0
2, 94383, Note_on_c, 0, 59, 62
2, 94388, Note_on_c, 0, 68, 75
2, 94401, Note_on_c, 0, 69, 0
2, 94421, Note_on_c, 0, 64, 0
2, 94442, Control_c, 0, 64, 63
2, 94503, Control_c, 0, 64, 0
2, 94509, Note_on_c, 0, 69, 76
2, 94516, Note_on_c, 0, 68, 0
2, 94519, Note_on_c, 0, 64, 56
2, 94560, Note_on_c, 0, 59, 0
2, 94619, Control_c, 0, 64, 63
2, 94635, Note_on_c, 0, 52, 55
2, 94641, Note_on_c, 0, 71, 73
2, 94667, Note_on_c, 0, 69, 0
2, 94674, Note_on_c, 0, 64, 0
2, 94761, Note_on_c, 0, 72, 89
2, 94768, Note_on_c, 0, 64, 50
2, 94775, Control_c, 0, 64, 127
2, 94786, Note_on_c, 0, 52, 0
2, 94792, Note_on_c, 0, 71, 0
2, 94796, Control_c, 0, 64, 63
2, 94892, Note_on_c, 0, 74, 70
2, 94893, Note_on_c, 0, 52, 53
2, 94916, Note_on_c, 0, 72, 0
2, 94918, Note_on_c, 0, 64, 0
2, 94924, Control_c, 0, 64, 0
2, 95016, Note_on_c, 0, 73, 86
2, 95022, Note_on_c, 0, 52, 0
2, 95022, Note_on_c, 0, 64, 44
2, 95023, Note_on_c, 0, 74, 0
2, 95135, Control_c, 0, 64, 63
2, 95148, Note_on_c, 0, 59, 51
2, 95150, Note_on_c, 0, 76, 64
2, 95157, Note_on_c, 0, 64, 0
2, 95164, Note_on_c, 0, 73, 0
2, 95277, Note_on_c, 0, 74, 65
2, 95279, Note_on_c, 0, 59, 0
2, 95281, Note_on_c, 0, 64, 36
2, 95289, Note_on_c, 0, 76, 0
2, 95398, Note_on_c, 0, 52, 38
2, 95411, Note_on_c, 0, 72, 65
2, 95426, Note_on_c, 0, 64, 0
2, 95432, Note_on_c, 0, 74, 0
2, 95517, Note_on_c, 0, 52, 0
2, 95525, Note_on_c, 0, 64, 38
2, 95543, Note_on_c, 0, 71, 50
2, 95566, Note_on_c, 0, 72, 0
2, 95678, Note_on_c, 0, 57, 33
2, 95686, Note_on_c, 0, 69, 45
2, 95691, Note_on_c, 0, 71, 0
2, 95716, Note_on_c, 0, 64, 0
2, 95764, Control_c, 0, 64, 127
2, 95826, Note_on_c, 0, 68, 72
2, 95833, Note_on_c, 0, 64, 36
2, 95846, Note_on_c, 0, 69, 0
2, 95956, Note_on_c, 0, 69, 69
2, 95960, Note_on_c, 0, 68, 0
2, 95962, Note_on_c, 0, 64, 0
2, 95969, Note_on_c, 0, 60, 53
2, 95994, Note_on_c, 0, 57, 0
2, 96050, Control_c, 0, 64, 63
2, 96067, Control_c, 0, 64, 0
2, 96086, Note_on_c, 0, 72, 76
2, 96090, Note_on_c, 0, 64, 57
2, 96099, Note_on_c, 0, 60, 0
2, 96116, Note_on_c, 0, 69, 0
2, 96203, Note_on_c, 0, 71, 84
2, 96212, Note_on_c, 0, 56, 77
2, 96242, Note_on_c, 0, 64, 0
2, 96251, Note_on_c, 0, 72, 0
2, 96336, Note_on_c, 0, 64, 64
2, 96338, Note_on_c, 0, 74, 85
2, 96358, Note_on_c, 0, 71, 0
2, 96360, Note_on_c, 0, 56, 0
2, 96463, Note_on_c, 0, 57, 66
2, 96463, Note_on_c, 0, 72, 93
2, 96484, Note_on_c, 0, 64, 0
2, 96491, Control_c, 0, 64, 63
2, 96499, Control_c, 0, 64, 127
2, 96509, Note_on_c, 0, 74, 0
2, 96585, Note_on_c, 0, 71, 91
2, 96586, Note_on_c, 0, 64, 55
2, 96597, Note_on_c, 0, 57, 0
2, 96643, Note_on_c, 0, 72, 0
2, 96716, Note_on_c, 0, 60, 85
2, 96719, Note_on_c, 0, 72, 98
2, 96731, Note_on_c, 0, 64, 0
2, 96748, Note_on_c, 0, 71, 0
2, 96780, Control_c, 0, 64, 63
2, 96805, Control_c, 0, 64, 0
2, 96831, Note_on_c, 0, 64, 76
2, 96833, Note_on_c, 0, 76, 97
2, 96848, Note_on_c, 0, 60, 0
2, 96869, Note_on_c, 0, 72, 0
2, 96939, Control_c, 0, 64, 63
2, 96949, Control_c, 0, 64, 127
2, 96955, Note_on_c, 0, 74, 89
2, 96959, Note_on_c, 0, 53, 87
2, 96974, Note_on_c, 0, 64, 0
2, 96991, Note_on_c, 0, 76, 0
2, 97085, Note_on_c, 0, 62, 83
2, 97089, Note_on_c, 0, 77, 93
2, 97105, Note_on_c, 0, 53, 0
2, 97117, Note_on_c, 0, 74, 0
2, 97180, Control_c, 0, 64, 63
2, 97197, Control_c, 0, 64, 0
2, 97219, Note_on_c, 0, 52, 85
2, 97231, Note_on_c, 0, 76, 102
2, 97242, Note_on_c, 0, 62, 0
2, 97263, Note_on_c, 0, 77, 0
2, 97325, Control_c, 0, 64, 63
2, 97332, Control_c, 0, 64, 127
2, 97353, Note_on_c, 0, 75, 105
2, 97357, Note_on_c, 0, 60, 69
2, 97377, Note_on_c, 0, 76, 0
2, 97389, Note_on_c, 0, 52, 0
2, 97485, Note_on_c, 0, 76, 88
2, 97491, Note_on_c, 0, 60, 0
2, 97493, Note_on_c, 0, 75, 0
2, 97493, Control_c, 0, 64, 63
2, 97501, Note_on_c, 0, 57, 54
2, 97508, Control_c, 0, 64, 0
2, 97576, Control_c, 0, 64, 63
2, 97584, Note_on_c, 0, 76, 0
2, 97587, Control_c, 0, 64, 127
2, 97617, Note_on_c, 0, 64, 78
2, 97631, Note_on_c, 0, 57, 0
2, 97638, Note_on_c, 0, 60, 54
2, 97737, Control_c, 0, 64, 63
2, 97750, Note_on_c, 0, 52, 67
2, 97752, Control_c, 0, 64, 0
2, 97759, Note_on_c, 0, 60, 0
2, 97760, Note_on_c, 0, 66, 94
2, 97781, Note_on_c, 0, 64, 0
2, 97882, Note_on_c, 0, 52, 0
2, 97889, Control_c, 0, 64, 63
2, 97893, Note_on_c, 0, 59, 76
2, 97896, Note_on_c, 0, 68, 98
2, 97897, Control_c, 0, 64, 127
2, 97914, Note_on_c, 0, 66, 0
2, 97967, Note_on_c, 0, 59, 0
2, 98032, Control_c, 0, 64, 63
2, 98036, Note_on_c, 0, 69, 85
2, 98039, Control_c, 0, 64, 0
2, 98042, Note_on_c, 0, 57, 76
2, 98047, Note_on_c, 0, 45, 73
2, 98049, Note_on_c, 0, 68, 0
2, 98150, Control_c, 0, 64, 63
2, 98153, Control_c, 0, 64, 127
2, 98173, Note_on_c, 0, 68, 102
2, 98199, Note_on_c, 0, 69, 0
2, 98312, Note_on_c, 0, 69, 92
2, 98313, Note_on_c, 0, 57, 0
2, 98319, Control_c, 0, 64, 63
2, 98322, Control_c, 0, 64, 0
2, 98332, Note_on_c, 0, 68, 0
2, 98340, Note_on_c, 0, 45, 0
2, 98359, Note_on_c, 0, 69, 0
2, 98454, Note_on_c, 0, 64, 88
2, 98495, Note_on_c, 0, 64, 0
2, 98606, Note_on_c, 0, 60, 97
2, 98646, Note_on_c, 0, 60, 0
2, 98777, Note_on_c, 0, 64, 86
2, 98832, Note_on_c, 0, 64, 0
2, 98977, Control_c, 0, 64, 127
2, 98981, Note_on_c, 0, 45, 71
2, 98987, Note_on_c, 0, 69, 89
2, 98987, Note_on_c, 0, 81, 105
2, 99023, Note_on_c, 0, 81, 0
2, 99028, Note_on_c, 0, 69, 0
2, 99128, Note_on_c, 0, 45, 0
2, 99156, Note_on_c, 0, 80, 102
2, 99157, Note_on_c, 0, 52, 74
2, 99157, Note_on_c, 0, 68, 99
2, 99195, Note_on_c, 0, 68, 0
2, 99198, Note_on_c, 0, 80, 0
2, 99295, Note_on_c, 0, 69, 101
2, 99295, Note_on_c, 0, 81, 108
2, 99298, Note_on_c, 0, 48, 96
2, 99310, Note_on_c, 0, 52, 0
2, 99317, Note_on_c, 0, 69, 0
2, 99335, Note_on_c, 0, 81, 0
2, 99433, Note_on_c, 0, 72, 101
2, 99433, Note_on_c, 0, 84, 108
2, 99435, Note_on_c, 0, 48, 0
2, 99445, Note_on_c, 0, 52, 72
2, 99479, Note_on_c, 0, 72, 0
2, 99487, Note_on_c, 0, 84, 0
2, 99575, Note_on_c, 0, 83, 111
2, 99575, Note_on_c, 0, 71, 112
2, 99576, Note_on_c, 0, 44, 110
2, 99579, Note_on_c, 0, 52, 0
2, 99589, Control_c, 0, 64, 63
2, 99596, Control_c, 0, 64, 0
2, 99623, Control_c, 0, 64, 63
2, 99632, Control_c, 0, 64, 127
2, 99649, Note_on_c, 0, 71, 0
2, 99672, Note_on_c, 0, 83, 0
2, 99726, Note_on_c, 0, 52, 84
2, 99727, Note_on_c, 0, 86, 111
2, 99728, Note_on_c, 0, 74, 101
2, 99776, Note_on_c, 0, 74, 0
2, 99780, Note_on_c, 0, 86, 0
2, 99789, Note_on_c, 0, 44, 0
2, 99871, Note_on_c, 0, 45, 96
2, 99874, Note_on_c, 0, 84, 107
2, 99879, Control_c, 0, 64, 63
2, 99880, Note_on_c, 0, 72, 70
2, 99882, Note_on_c, 0, 52, 0
2, 99885, Control_c, 0, 64, 0
2, 99893, Note_on_c, 0, 74, 46
2, 99915, Note_on_c, 0, 74, 0
2, 99917, Control_c, 0, 64, 63
2, 99923, Control_c, 0, 64, 127
2, 99945, Note_on_c, 0, 84, 0
2, 99949, Note_on_c, 0, 72, 0
2, 99997, Note_on_c, 0, 52, 82
2, 100006, Note_on_c, 0, 83, 99
2, 100008, Note_on_c, 0, 71, 81
2, 100017, Note_on_c, 0, 45, 0
2, 100040, Note_on_c, 0, 71, 0
2, 100061, Note_on_c, 0, 83, 0
2, 100145, Note_on_c, 0, 48, 108
2, 100154, Note_on_c, 0, 84, 99
2, 100156, Note_on_c, 0, 72, 76
2, 100165, Note_on_c, 0, 52, 0
2, 100180, Note_on_c, 0, 72, 0
2, 100185, Note_on_c, 0, 84, 0
2, 100278, Note_on_c, 0, 88, 111
2, 100282, Note_on_c, 0, 76, 81
2, 100287, Note_on_c, 0, 52, 84
2, 100306, Note_on_c, 0, 48, 0
2, 100373, Note_on_c, 0, 88, 0
2, 100384, Note_on_c, 0, 76, 0
2, 100424, Note_on_c, 0, 41, 97
2, 100437, Note_on_c, 0, 86, 113
2, 100439, Note_on_c, 0, 52, 0
2, 100440, Note_on_c, 0, 74, 103
2, 100440, Control_c, 0, 64, 63
2, 100446, Control_c, 0, 64, 0
2, 100481, Control_c, 0, 64, 63
2, 100489, Control_c, 0, 64, 127
2, 100511, Note_on_c, 0, 74, 0
2, 100538, Note_on_c, 0, 86, 0
2, 100595, Note_on_c, 0, 89, 116
2, 100597, Note_on_c, 0, 77, 106
2, 100608, Note_on_c, 0, 50, 87
2, 100614, Note_on_c, 0, 41, 0
2, 100624, Note_on_c, 0, 77, 0
2, 100644, Note_on_c, 0, 89, 0
2, 100776, Note_on_c, 0, 40, 91
2, 100778, Note_on_c, 0, 88, 106
2, 100779, Note_on_c, 0, 76, 92
2, 100782, Control_c, 0, 64, 63
2, 100787, Control_c, 0, 64, 0
2, 100793, Note_on_c, 0, 50, 0
2, 100828, Control_c, 0, 64, 63
2, 100833, Control_c, 0, 64, 127
2, 100870, Note_on_c, 0, 88, 0
2, 100871, Note_on_c, 0, 76, 0
2, 100929, Note_on_c, 0, 87, 102
2, 100931, Note_on_c, 0, 75, 97
2, 100932, Note_on_c, 0, 48, 78
2, 100936, Note_on_c, 0, 40, 0
2, 100973, Note_on_c, 0, 75, 0
2, 100989, Note_on_c, 0, 87, 0
2, 101074, Note_on_c, 0, 88, 97
2, 101079, Note_on_c, 0, 48, 0
2, 101081, Note_on_c, 0, 76, 82
2, 101083, Note_on_c, 0, 45, 59
2, 101103, Note_on_c, 0, 88, 0
2, 101113, Note_on_c, 0, 76, 0
2, 101233, Note_on_c, 0, 45, 0
2, 101234, Note_on_c, 0, 76, 93
2, 101245, Note_on_c, 0, 48, 56
2, 101245, Note_on_c, 0, 64, 43
2, 101280, Note_on_c, 0, 64, 0
2, 101296, Note_on_c, 0, 76, 0
2, 101391, Note_on_c, 0, 40, 65
2, 101393, Note_on_c, 0, 48, 0
2, 101394, Note_on_c, 0, 78, 90
2, 101403, Note_on_c, 0, 66, 61
2, 101407, Control_c, 0, 64, 63
2, 101416, Control_c, 0, 64, 0
2, 101457, Control_c, 0, 64, 63
2, 101466, Control_c, 0, 64, 127
2, 101497, Note_on_c, 0, 66, 0
2, 101510, Note_on_c, 0, 78, 0
2, 101568, Note_on_c, 0, 40, 0
2, 101568, Note_on_c, 0, 80, 95
2, 101569, Note_on_c, 0, 68, 85
2, 101585, Note_on_c, 0, 47, 47
2, 101630, Note_on_c, 0, 68, 0
2, 101640, Note_on_c, 0, 80, 0
2, 101706, Note_on_c, 0, 47, 0
2, 101765, Note_on_c, 0, 81, 66
2, 101767, Note_on_c, 0, 69, 53
2, 101794, Note_on_c, 0, 33, 66
2, 101815, Control_c, 0, 64, 63
2, 101829, Control_c, 0, 64, 0
2, 101945, Note_on_c, 0, 33, 0
2, 101949, Note_on_c, 0, 36, 61
2, 101987, Note_on_c, 0, 36, 0
2, 102154, Note_on_c, 0, 40, 57
2, 102185, Note_on_c, 0, 40, 0
2, 102367, Note_on_c, 0, 45, 54
2, 102419, Note_on_c, 0, 45, 0
2, 102670, Note_on_c, 0, 33, 44
2, 102734, Control_c, 0, 64, 63
2, 102749, Control_c, 0, 64, 127
2, 102922, Note_on_c, 0, 33, 0
2, 103186, Note_on_c, 0, 81, 0
2, 103233, Note_on_c, 0, 69, 0
2, 103516, Control_c, 0, 64, 63
2, 103559, Control_c, 0, 64, 0
2, 103660, Control_c, 0, 64, 63
2, 103709, Control_c, 0, 64, 127
2, 103766, Note_on_c, 0, 57, 28
2, 103766, Note_on_c, 0, 73, 61
2, 103769, Note_on_c, 0, 69, 31
2, 103776, Note_on_c, 0, 45, 37
2, 103821, Note_on_c, 0, 45, 0
2, 103831, Note_on_c, 0, 57, 0
2, 103913, Note_on_c, 0, 73, 0
2, 103930, Note_on_c, 0, 69, 0
2, 103976, Note_on_c, 0, 64, 50
2, 104099, Note_on_c, 0, 64, 0
2, 104112, Note_on_c, 0, 73, 78
2, 104116, Note_on_c, 0, 69, 57
2, 104123, Note_on_c, 0, 85, 66
2, 104127, Note_on_c, 0, 81, 47
2, 104230, Note_on_c, 0, 73, 0
2, 104244, Note_on_c, 0, 64, 45
2, 104275, Note_on_c, 0, 69, 0
2, 104311, Note_on_c, 0, 81, 0
2, 104334, Note_on_c, 0, 86, 91
2, 104341, Note_on_c, 0, 83, 68
2, 104344, Note_on_c, 0, 85, 0
2, 104346, Note_on_c, 0, 74, 84
2, 104350, Note_on_c, 0, 64, 0
2, 104351, Note_on_c, 0, 71, 65
2, 104434, Note_on_c, 0, 64, 71
2, 104437, Note_on_c, 0, 71, 0
2, 104442, Note_on_c, 0, 74, 0
2, 104525, Note_on_c, 0, 64, 0
2, 104532, Note_on_c, 0, 86, 0
2, 104538, Note_on_c, 0, 88, 87
2, 104538, Note_on_c, 0, 85, 81
2, 104538, Note_on_c, 0, 76, 89
2, 104539, Note_on_c, 0, 73, 93
2, 104545, Note_on_c, 0, 83, 0
2, 104605, Note_on_c, 0, 76, 0
2, 104612, Note_on_c, 0, 73, 0
2, 104632, Note_on_c, 0, 64, 53
2, 104708, Note_on_c, 0, 64, 0
2, 104714, Note_on_c, 0, 85, 0
2, 104735, Note_on_c, 0, 88, 0
2, 104741, Note_on_c, 0, 74, 76
2, 104742, Note_on_c, 0, 83, 76
2, 104743, Note_on_c, 0, 71, 60
2, 104744, Note_on_c, 0, 86, 53
2, 104799, Note_on_c, 0, 71, 0
2, 104826, Note_on_c, 0, 64, 49
2, 104833, Note_on_c, 0, 86, 0
2, 104878, Note_on_c, 0, 83, 0
2, 104908, Note_on_c, 0, 74, 0
2, 104938, Note_on_c, 0, 81, 78
2, 104942, Note_on_c, 0, 64, 0
2, 104945, Note_on_c, 0, 85, 62
2, 104946, Note_on_c, 0, 73, 78
2, 104954, Note_on_c, 0, 69, 52
2, 104962, Note_on_c, 0, 85, 0
2, 104967, Note_on_c, 0, 81, 0
2, 105021, Note_on_c, 0, 69, 0
2, 105041, Note_on_c, 0, 73, 0
2, 105048, Note_on_c, 0, 64, 34
2, 105132, Note_on_c, 0, 64, 0
2, 105153, Control_c, 0, 64, 63
2, 105154, Note_on_c, 0, 40, 89
2, 105161, Control_c, 0, 64, 0
2, 105163, Note_on_c, 0, 52, 61
2, 105165, Note_on_c, 0, 71, 71
2, 105165, Note_on_c, 0, 68, 72
2, 105188, Control_c, 0, 64, 63
2, 105193, Note_on_c, 0, 40, 0
2, 105195, Control_c, 0, 64, 127
2, 105219, Note_on_c, 0, 52, 0
2, 105262, Note_on_c, 0, 68, 0
2, 105267, Note_on_c, 0, 71, 0
2, 105274, Note_on_c, 0, 64, 48
2, 105369, Note_on_c, 0, 83, 89
2, 105374, Note_on_c, 0, 64, 0
2, 105376, Note_on_c, 0, 71, 72
2, 105377, Note_on_c, 0, 68, 70
2, 105379, Note_on_c, 0, 80, 85
2, 105467, Note_on_c, 0, 64, 70
2, 105476, Note_on_c, 0, 71, 0
2, 105479, Note_on_c, 0, 68, 0
2, 105522, Note_on_c, 0, 80, 0
2, 105547, Note_on_c, 0, 83, 0
2, 105567, Note_on_c, 0, 85, 95
2, 105571, Note_on_c, 0, 73, 97
2, 105575, Note_on_c, 0, 81, 85
2, 105576, Note_on_c, 0, 69, 81
2, 105587, Note_on_c, 0, 64, 0
2, 105658, Note_on_c, 0, 64, 73
2, 105710, Note_on_c, 0, 85, 0
2, 105716, Note_on_c, 0, 73, 0
2, 105744, Note_on_c, 0, 69, 0
2, 105748, Note_on_c, 0, 86, 94
2, 105752, Note_on_c, 0, 83, 87
2, 105763, Note_on_c, 0, 74, 94
2, 105764, Note_on_c, 0, 81, 0
2, 105764, Note_on_c, 0, 71, 79
2, 105781, Note_on_c, 0, 64, 0
2, 105842, Note_on_c, 0, 64, 71
2, 105873, Note_on_c, 0, 86, 0
2, 105874, Note_on_c, 0, 71, 0
2, 105917, Note_on_c, 0, 74, 0
2, 105926, Note_on_c, 0, 64, 0
2, 105944, Note_on_c, 0, 85, 72
2, 105949, Note_on_c, 0, 83, 0
2, 105950, Note_on_c, 0, 73, 92
2, 105954, Note_on_c, 0, 69, 62
2, 105960, Note_on_c, 0, 81, 59
2, 106021, Control_c, 0, 64, 63
2, 106035, Control_c, 0, 64, 127
2, 106043, Note_on_c, 0, 64, 52
2, 106056, Note_on_c, 0, 69, 0
2, 106065, Note_on_c, 0, 73, 0
2, 106087, Note_on_c, 0, 85, 0
2, 106093, Note_on_c, 0, 81, 0
2, 106149, Note_on_c, 0, 64, 0
2, 106150, Note_on_c, 0, 83, 57
2, 106151, Note_on_c, 0, 80, 80
2, 106152, Note_on_c, 0, 71, 74
2, 106155, Note_on_c, 0, 68, 68
2, 106175, Note_on_c, 0, 83, 0
2, 106188, Note_on_c, 0, 80, 0
2, 106218, Note_on_c, 0, 71, 0
2, 106234, Note_on_c, 0, 68, 0
2, 106243, Note_on_c, 0, 64, 59
2, 106323, Note_on_c, 0, 64, 0
2, 106344, Control_c, 0, 64, 63
2, 106350, Control_c, 0, 64, 0
2, 106355, Note_on_c, 0, 69, 82
2, 106358, Note_on_c, 0, 45, 81
2, 106365, Note_on_c, 0, 64, 61
2, 106365, Note_on_c, 0, 57, 79
2, 106373, Control_c, 0, 64, 63
2, 106380, Control_c, 0, 64, 127
2, 106388, Note_on_c, 0, 45, 0
2, 106401, Note_on_c, 0, 69, 0
2, 106405, Note_on_c, 0, 57, 0
2, 106436, Note_on_c, 0, 64, 0
2, 106462, Note_on_c, 0, 61, 67
2, 106537, Note_on_c, 0, 61, 0
2, 106555, Note_on_c, 0, 81, 95
2, 106560, Note_on_c, 0, 69, 68
2, 106587, Note_on_c, 0, 81, 0
2, 106591, Note_on_c, 0, 64, 33
2, 106629, Note_on_c, 0, 69, 0
2, 106645, Note_on_c, 0, 61, 73
2, 106671, Note_on_c, 0, 64, 0
2, 106725, Note_on_c, 0, 61, 0
2, 106750, Note_on_c, 0, 57, 71
2, 106753, Note_on_c, 0, 69, 70
2, 106757, Note_on_c, 0, 45, 64
2, 106763, Note_on_c, 0, 64, 58
2, 106775, Note_on_c, 0, 57, 0
2, 106785, Note_on_c, 0, 45, 0
2, 106811, Note_on_c, 0, 69, 0
2, 106830, Note_on_c, 0, 61, 75
2, 106834, Note_on_c, 0, 64, 0
2, 106886, Note_on_c, 0, 61, 0
2, 106887, Control_c, 0, 64, 63
2, 106892, Control_c, 0, 64, 0
2, 106930, Control_c, 0, 64, 63
2, 106931, Note_on_c, 0, 40, 75
2, 106937, Control_c, 0, 64, 127
2, 106944, Note_on_c, 0, 52, 73
2, 106950, Note_on_c, 0, 40, 0
2, 106950, Note_on_c, 0, 68, 76
2, 106950, Note_on_c, 0, 71, 77
2, 106970, Note_on_c, 0, 52, 0
2, 107020, Note_on_c, 0, 71, 0
2, 107027, Note_on_c, 0, 68, 0
2, 107042, Note_on_c, 0, 64, 43
2, 107127, Note_on_c, 0, 83, 95
2, 107130, Note_on_c, 0, 64, 0
2, 107142, Note_on_c, 0, 71, 79
2, 107147, Note_on_c, 0, 68, 75
2, 107150, Note_on_c, 0, 83, 0
2, 107216, Note_on_c, 0, 68, 0
2, 107222, Note_on_c, 0, 71, 0
2, 107231, Note_on_c, 0, 64, 51
2, 107317, Note_on_c, 0, 64, 0
2, 107327, Note_on_c, 0, 40, 70
2, 107332, Note_on_c, 0, 52, 68
2, 107335, Note_on_c, 0, 71, 70
2, 107338, Note_on_c, 0, 68, 77
2, 107347, Note_on_c, 0, 40, 0
2, 107363, Note_on_c, 0, 52, 0
2, 107386, Note_on_c, 0, 71, 0
2, 107396, Note_on_c, 0, 68, 0
2, 107419, Note_on_c, 0, 64, 40
2, 107501, Note_on_c, 0, 64, 0
2, 107523, Note_on_c, 0, 85, 85
2, 107535, Note_on_c, 0, 73, 90
2, 107540, Note_on_c, 0, 69, 60
2, 107583, Note_on_c, 0, 81, 28
2, 107600, Control_c, 0, 64, 63
2, 107624, Control_c, 0, 64, 0
2, 107625, Note_on_c, 0, 64, 64
2, 107639, Control_c, 0, 64, 63
2, 107654, Control_c, 0, 64, 127
2, 107694, Note_on_c, 0, 73, 0
2, 107700, Note_on_c, 0, 81, 0
2, 107707, Note_on_c, 0, 69, 0
2, 107713, Note_on_c, 0, 86, 92
2, 107722, Note_on_c, 0, 74, 96
2, 107723, Note_on_c, 0, 83, 76
2, 107726, Note_on_c, 0, 71, 81
2, 107736, Note_on_c, 0, 64, 0
2, 107737, Note_on_c, 0, 85, 0
2, 107810, Note_on_c, 0, 64, 64
2, 107841, Note_on_c, 0, 71, 0
2, 107878, Note_on_c, 0, 74, 0
2, 107885, Note_on_c, 0, 64, 0
2, 107902, Note_on_c, 0, 81, 82
2, 107904, Note_on_c, 0, 83, 0
2, 107910, Note_on_c, 0, 73, 98
2, 107911, Note_on_c, 0, 85, 92
2, 107918, Note_on_c, 0, 69, 72
2, 107940, Note_on_c, 0, 86, 0
2, 107958, Note_on_c, 0, 81, 0
2, 107988, Note_on_c, 0, 69, 0
2, 107999, Note_on_c, 0, 73, 0
2, 108000, Note_on_c, 0, 64, 57
2, 108069, Note_on_c, 0, 64, 0
2, 108086, Control_c, 0, 64, 63
2, 108089, Note_on_c, 0, 83, 83
2, 108099, Note_on_c, 0, 80, 85
2, 108100, Note_on_c, 0, 71, 88
2, 108101, Control_c, 0, 64, 0
2, 108105, Note_on_c, 0, 85, 0
2, 108106, Note_on_c, 0, 68, 81
2, 108109, Control_c, 0, 64, 63
2, 108128, Note_on_c, 0, 83, 0
2, 108128, Control_c, 0, 64, 127
2, 108145, Note_on_c, 0, 80, 0
2, 108166, Note_on_c, 0, 71, 0
2, 108182, Note_on_c, 0, 68, 0
2, 108185, Note_on_c, 0, 64, 50
2, 108212, Note_on_c, 0, 64, 0
2, 108304, Note_on_c, 0, 64, 47
2, 108305, Note_on_c, 0, 75, 83
2, 108327, Control_c, 0, 64, 63
2, 108334, Control_c, 0, 64, 0
2, 108400, Note_on_c, 0, 76, 60
2, 108409, Note_on_c, 0, 75, 0
2, 108415, Control_c, 0, 64, 63
2, 108422, Control_c, 0, 64, 127
2, 108501, Control_c, 0, 64, 63
2, 108506, Control_c, 0, 64, 0
2, 108523, Note_on_c, 0, 75, 75
2, 108526, Note_on_c, 0, 52, 34
2, 108541, Control_c, 0, 64, 63
2, 108542, Note_on_c, 0, 64, 0
2, 108544, Note_on_c, 0, 76, 0
2, 108547, Control_c, 0, 64, 127
2, 108618, Note_on_c, 0, 52, 0
2, 108638, Note_on_c, 0, 76, 72
2, 108650, Note_on_c, 0, 75, 0
2, 108684, Note_on_c, 0, 76, 0
2, 108782, Note_on_c, 0, 73, 84
2, 108785, Note_on_c, 0, 69, 57
2, 108789, Note_on_c, 0, 57, 43
2, 108793, Note_on_c, 0, 45, 49
2, 108795, Control_c, 0, 64, 63
2, 108798, Control_c, 0, 64, 0
2, 108830, Control_c, 0, 64, 63
2, 108835, Control_c, 0, 64, 127
2, 108860, Note_on_c, 0, 45, 0
2, 108871, Note_on_c, 0, 57, 0
2, 108903, Note_on_c, 0, 69, 0
2, 108912, Note_on_c, 0, 73, 0
2, 108916, Note_on_c, 0, 64, 52
2, 109039, Note_on_c, 0, 64, 0
2, 109041, Note_on_c, 0, 81, 69
2, 109045, Note_on_c, 0, 85, 72
2, 109048, Note_on_c, 0, 73, 89
2, 109053, Note_on_c, 0, 69, 68
2, 109146, Note_on_c, 0, 64, 69
2, 109156, Note_on_c, 0, 73, 0
2, 109204, Note_on_c, 0, 69, 0
2, 109208, Note_on_c, 0, 81, 0
2, 109242, Note_on_c, 0, 86, 97
2, 109247, Note_on_c, 0, 83, 85
2, 109248, Note_on_c, 0, 74, 92
2, 109251, Note_on_c, 0, 64, 0
2, 109253, Note_on_c, 0, 71, 80
2, 109265, Note_on_c, 0, 85, 0
2, 109330, Note_on_c, 0, 64, 70
2, 109340, Note_on_c, 0, 71, 0
2, 109349, Note_on_c, 0, 74, 0
2, 109405, Note_on_c, 0, 64, 0
2, 109425, Note_on_c, 0, 86, 0
2, 109428, Note_on_c, 0, 88, 87
2, 109433, Note_on_c, 0, 85, 79
2, 109434, Note_on_c, 0, 76, 89
2, 109438, Note_on_c, 0, 73, 94
2, 109441, Note_on_c, 0, 83, 0
2, 109515, Note_on_c, 0, 76, 0
2, 109530, Note_on_c, 0, 73, 0
2, 109530, Note_on_c, 0, 64, 52
2, 109599, Note_on_c, 0, 64, 0
2, 109610, Note_on_c, 0, 88, 0
2, 109613, Note_on_c, 0, 85, 0
2, 109623, Note_on_c, 0, 74, 81
2, 109626, Note_on_c, 0, 86, 62
2, 109628, Note_on_c, 0, 83, 44
2, 109628, Note_on_c, 0, 71, 77
2, 109679, Note_on_c, 0, 71, 0
2, 109711, Note_on_c, 0, 64, 48
2, 109725, Note_on_c, 0, 86, 0
2, 109758, Note_on_c, 0, 83, 0
2, 109774, Note_on_c, 0, 74, 0
2, 109817, Note_on_c, 0, 85, 62
2, 109822, Note_on_c, 0, 64, 0
2, 109823, Note_on_c, 0, 81, 55
2, 109827, Note_on_c, 0, 73, 81
2, 109833, Note_on_c, 0, 69, 48
2, 109836, Note_on_c, 0, 85, 0
2, 109849, Note_on_c, 0, 81, 0
2, 109900, Note_on_c, 0, 69, 0
2, 109907, Note_on_c, 0, 64, 54
2, 109954, Note_on_c, 0, 73, 0
2, 109983, Note_on_c, 0, 64, 0
2, 109989, Control_c, 0, 64, 63
2, 109995, Control_c, 0, 64, 0
2, 110009, Note_on_c, 0, 40, 89
2, 110016, Note_on_c, 0, 52, 75
2, 110020, Note_on_c, 0, 68, 77
2, 110021, Note_on_c, 0, 71, 75
2, 110030, Control_c, 0, 64, 63
2, 110034, Control_c, 0, 64, 127
2, 110037, Note_on_c, 0, 40, 0
2, 110048, Note_on_c, 0, 52, 0
2, 110095, Note_on_c, 0, 71, 0
2, 110096, Note_on_c, 0, 68, 0
2, 110111, Note_on_c, 0, 64, 43
2, 110175, Note_on_c, 0, 64, 0
2, 110207, Note_on_c, 0, 83, 84
2, 110211, Note_on_c, 0, 71, 76
2, 110214, Note_on_c, 0, 68, 74
2, 110216, Note_on_c, 0, 80, 68
2, 110246, Note_on_c, 0, 83, 0
2, 110252, Note_on_c, 0, 80, 0
2, 110296, Note_on_c, 0, 64, 66
2, 110300, Note_on_c, 0, 68, 0
2, 110304, Note_on_c, 0, 71, 0
2, 110378, Note_on_c, 0, 64, 0
2, 110391, Note_on_c, 0, 85, 79
2, 110395, Note_on_c, 0, 73, 105
2, 110395, Note_on_c, 0, 81, 70
2, 110401, Note_on_c, 0, 69, 80
2, 110476, Note_on_c, 0, 64, 81
2, 110496, Note_on_c, 0, 85, 0
2, 110518, Note_on_c, 0, 69, 0
2, 110543, Note_on_c, 0, 81, 0
2, 110566, Note_on_c, 0, 73, 0
2, 110568, Note_on_c, 0, 86, 80
2, 110576, Note_on_c, 0, 74, 94
2, 110579, Note_on_c, 0, 83, 38
2, 110581, Note_on_c, 0, 71, 88
2, 110585, Note_on_c, 0, 64, 0
2, 110645, Control_c, 0, 64, 63
2, 110651, Control_c, 0, 64, 0
2, 110661, Note_on_c, 0, 64, 68
2, 110680, Control_c, 0, 64, 63
2, 110688, Control_c, 0, 64, 127
2, 110735, Note_on_c, 0, 71, 0
2, 110752, Note_on_c, 0, 64, 0
2, 110762, Note_on_c, 0, 73, 93
2, 110764, Note_on_c, 0, 74, 0
2, 110765, Note_on_c, 0, 69, 62
2, 110773, Note_on_c, 0, 85, 75
2, 110776, Note_on_c, 0, 81, 65
2, 110780, Note_on_c, 0, 83, 0
2, 110790, Note_on_c, 0, 86, 0
2, 110843, Note_on_c, 0, 69, 0
2, 110847, Note_on_c, 0, 64, 61
2, 110882, Note_on_c, 0, 85, 0
2, 110892, Note_on_c, 0, 73, 0
2, 110915, Note_on_c, 0, 64, 0
2, 110917, Note_on_c, 0, 81, 0
2, 110955, Note_on_c, 0, 83, 71
2, 110958, Note_on_c, 0, 80, 83
2, 110966, Note_on_c, 0, 71, 57
2, 110968, Note_on_c, 0, 68, 68
2, 110975, Note_on_c, 0, 83, 0
2, 110989, Note_on_c, 0, 80, 0
2, 111011, Note_on_c, 0, 71, 0
2, 111038, Note_on_c, 0, 68, 0
2, 111059, Note_on_c, 0, 64, 19
2, 111122, Note_on_c, 0, 64, 0
2, 111133, Control_c, 0, 64, 63
2, 111139, Control_c, 0, 64, 0
2, 111148, Note_on_c, 0, 45, 89
2, 111151, Note_on_c, 0, 69, 74
2, 111161, Note_on_c, 0, 57, 35
2, 111162, Control_c, 0, 64, 63
2, 111165, Note_on_c, 0, 64, 49
2, 111169, Control_c, 0, 64, 127
2, 111178, Note_on_c, 0, 45, 0
2, 111193, Note_on_c, 0, 57, 0
2, 111196, Note_on_c, 0, 69, 0
2, 111243, Note_on_c, 0, 64, 0
2, 111251, Note_on_c, 0, 61, 90
2, 111322, Note_on_c, 0, 61, 0
2, 111344, Note_on_c, 0, 69, 81
2, 111346, Note_on_c, 0, 81, 90
2, 111350, Note_on_c, 0, 73, 103
2, 111359, Note_on_c, 0, 64, 73
2, 111387, Note_on_c, 0, 81, 0
2, 111388, Note_on_c, 0, 73, 0
2, 111422, Note_on_c, 0, 69, 0
2, 111426, Note_on_c, 0, 61, 84
2, 111436, Note_on_c, 0, 64, 0
2, 111462, Note_on_c, 0, 61, 0
2, 111523, Note_on_c, 0, 83, 85
2, 111526, Note_on_c, 0, 71, 93
2, 111527, Note_on_c, 0, 76, 86
2, 111529, Note_on_c, 0, 68, 93
2, 111576, Control_c, 0, 64, 63
2, 111583, Control_c, 0, 64, 0
2, 111605, Control_c, 0, 64, 63
2, 111614, Control_c, 0, 64, 127
2, 111625, Note_on_c, 0, 64, 68
2, 111631, Note_on_c, 0, 83, 0
2, 111633, Note_on_c, 0, 71, 0
2, 111667, Note_on_c, 0, 68, 0
2, 111711, Control_c, 0, 64, 63
2, 111718, Note_on_c, 0, 73, 96
2, 111722, Note_on_c, 0, 81, 85
2, 111724, Note_on_c, 0, 69, 86
2, 111725, Note_on_c, 0, 85, 93
2, 111727, Note_on_c, 0, 64, 0
2, 111729, Note_on_c, 0, 76, 0
2, 111739, Control_c, 0, 64, 127
2, 111740, Note_on_c, 0, 85, 0
2, 111756, Note_on_c, 0, 81, 0
2, 111802, Note_on_c, 0, 64, 69
2, 111831, Note_on_c, 0, 69, 0
2, 111842, Note_on_c, 0, 73, 0
2, 111866, Note_on_c, 0, 64, 0
2, 111909, Note_on_c, 0, 73, 105
2, 111913, Note_on_c, 0, 69, 89
2, 111915, Note_on_c, 0, 54, 91
2, 111920, Note_on_c, 0, 42, 98
2, 111923, Control_c, 0, 64, 63
2, 111930, Control_c, 0, 64, 0
2, 111957, Control_c, 0, 64, 63
2, 111966, Control_c, 0, 64, 127
2, 112000, Note_on_c, 0, 69, 0
2, 112010, Note_on_c, 0, 54, 0
2, 112011, Note_on_c, 0, 42, 0
2, 112012, Note_on_c, 0, 66, 75
2, 112016, Note_on_c, 0, 73, 0
2, 112055, Note_on_c, 0, 66, 0
2, 112109, Note_on_c, 0, 74, 81
2, 112117, Note_on_c, 0, 71, 83
2, 112128, Note_on_c, 0, 50, 93
2, 112134, Note_on_c, 0, 38, 77
2, 112149, Control_c, 0, 64, 63
2, 112155, Control_c, 0, 64, 0
2, 112184, Control_c, 0, 64, 63
2, 112192, Control_c, 0, 64, 127
2, 112198, Note_on_c, 0, 66, 74
2, 112201, Note_on_c, 0, 38, 0
2, 112238, Note_on_c, 0, 71, 0
2, 112245, Note_on_c, 0, 50, 0
2, 112288, Note_on_c, 0, 66, 0
2, 112290, Note_on_c, 0, 74, 0
2, 112296, Control_c, 0, 64, 63
2, 112300, Control_c, 0, 64, 0
2, 112316, Note_on_c, 0, 40, 93
2, 112325, Note_on_c, 0, 52, 81
2, 112327, Note_on_c, 0, 73, 94
2, 112328, Note_on_c, 0, 69, 73
2, 112345, Control_c, 0, 64, 63
2, 112347, Control_c, 0, 64, 127
2, 112348, Note_on_c, 0, 40, 0
2, 112365, Note_on_c, 0, 52, 0
2, 112417, Note_on_c, 0, 69, 0
2, 112421, Note_on_c, 0, 73, 0
2, 112425, Note_on_c, 0, 64, 47
2, 112500, Note_on_c, 0, 64, 0
2, 112541, Note_on_c, 0, 73, 92
2, 112545, Note_on_c, 0, 85, 90
2, 112548, Note_on_c, 0, 69, 75
2, 112550, Note_on_c, 0, 81, 70
2, 112585, Note_on_c, 0, 85, 0
2, 112623, Note_on_c, 0, 69, 0
2, 112624, Note_on_c, 0, 81, 0
2, 112626, Note_on_c, 0, 73, 0
2, 112641, Note_on_c, 0, 64, 51
2, 112718, Note_on_c, 0, 64, 0
2, 112752, Note_on_c, 0, 68, 85
2, 112753, Note_on_c, 0, 83, 73
2, 112755, Note_on_c, 0, 71, 81
2, 112758, Note_on_c, 0, 80, 77
2, 112776, Control_c, 0, 64, 63
2, 112783, Control_c, 0, 64, 0
2, 112808, Control_c, 0, 64, 63
2, 112818, Control_c, 0, 64, 127
2, 112854, Note_on_c, 0, 71, 0
2, 112857, Note_on_c, 0, 68, 0
2, 112867, Note_on_c, 0, 64, 55
2, 112888, Note_on_c, 0, 80, 0
2, 112941, Note_on_c, 0, 64, 0
2, 112942, Note_on_c, 0, 83, 0
2, 112967, Control_c, 0, 64, 63
2, 112972, Note_on_c, 0, 69, 67
2, 112979, Note_on_c, 0, 81, 73
2, 112979, Control_c, 0, 64, 0
2, 112996, Control_c, 0, 64, 63
2, 113010, Control_c, 0, 64, 127
2, 113018, Note_on_c, 0, 81, 0
2, 113092, Note_on_c, 0, 69, 0
2, 113098, Note_on_c, 0, 64, 63
2, 113129, Note_on_c, 0, 64, 0
2, 113219, Control_c, 0, 64, 63
2, 113224, Note_on_c, 0, 57, 56
2, 113224, Note_on_c, 0, 61, 68
2, 113227, Control_c, 0, 64, 0
2, 113259, Note_on_c, 0, 61, 0
2, 113260, Note_on_c, 0, 57, 0
2, 113350, Note_on_c, 0, 64, 64
2, 113396, Note_on_c, 0, 64, 0
2, 113543, Note_on_c, 0, 69, 41
2, 113544, Note_on_c, 0, 45, 33
2, 113591, Control_c, 0, 64, 63
2, 113596, Control_c, 0, 64, 127
2, 113665, Note_on_c, 0, 45, 0
2, 113684, Note_on_c, 0, 69, 0
2, 113950, Control_c, 0, 64, 63
2, 113982, Control_c, 0, 64, 0
2, 114054, Note_on_c, 0, 57, 32
2, 114061, Note_on_c, 0, 76, 70
2, 114088, Control_c, 0, 64, 63
2, 114111, Control_c, 0, 64, 127
2, 114231, Note_on_c, 0, 61, 45
2, 114288, Note_on_c, 0, 76, 0
2, 114296, Note_on_c, 0, 57, 0
2, 114326, Note_on_c, 0, 61, 0
2, 114342, Note_on_c, 0, 64, 42
2, 114434, Note_on_c, 0, 64, 0
2, 114458, Note_on_c, 0, 78, 87
2, 114460, Note_on_c, 0, 61, 57
2, 114504, Note_on_c, 0, 78, 0
2, 114510, Note_on_c, 0, 76, 76
2, 114521, Note_on_c, 0, 61, 0
2, 114553, Note_on_c, 0, 74, 73
2, 114554, Note_on_c, 0, 76, 0
2, 114554, Note_on_c, 0, 64, 40
2, 114582, Control_c, 0, 64, 63
2, 114594, Control_c, 0, 64, 0
2, 114599, Note_on_c, 0, 73, 97
2, 114601, Note_on_c, 0, 74, 0
2, 114609, Control_c, 0, 64, 63
2, 114629, Control_c, 0, 64, 127
2, 114644, Note_on_c, 0, 71, 86
2, 114648, Note_on_c, 0, 73, 0
2, 114657, Note_on_c, 0, 61, 64
2, 114670, Note_on_c, 0, 64, 0
2, 114688, Note_on_c, 0, 71, 0
2, 114690, Note_on_c, 0, 69, 84
2, 114737, Note_on_c, 0, 69, 0
2, 114744, Control_c, 0, 64, 63
2, 114754, Note_on_c, 0, 57, 57
2, 114756, Control_c, 0, 64, 0
2, 114758, Note_on_c, 0, 77, 96
2, 114764, Note_on_c, 0, 61, 0
2, 114831, Control_c, 0, 64, 63
2, 114839, Control_c, 0, 64, 127
2, 114853, Note_on_c, 0, 78, 96
2, 114859, Note_on_c, 0, 77, 0
2, 114876, Note_on_c, 0, 62, 62
2, 114878, Note_on_c, 0, 57, 0
2, 114894, Note_on_c, 0, 78, 0
2, 114923, Control_c, 0, 64, 63
2, 114942, Control_c, 0, 64, 0
2, 114967, Note_on_c, 0, 66, 56
2, 114974, Note_on_c, 0, 78, 77
2, 114996, Note_on_c, 0, 62, 0
2, 115002, Control_c, 0, 64, 63
2, 115018, Control_c, 0, 64, 127
2, 115063, Note_on_c, 0, 78, 0
2, 115075, Note_on_c, 0, 66, 0
2, 115077, Note_on_c, 0, 62, 55
2, 115127, Control_c, 0, 64, 63
2, 115150, Control_c, 0, 64, 0
2, 115181, Note_on_c, 0, 66, 55
2, 115192, Note_on_c, 0, 62, 0
2, 115279, Note_on_c, 0, 62, 79
2, 115284, Note_on_c, 0, 66, 0
2, 115372, Note_on_c, 0, 81, 104
2, 115377, Note_on_c, 0, 57, 57
2, 115408, Control_c, 0, 64, 63
2, 115412, Control_c, 0, 64, 127
2, 115413, Note_on_c, 0, 62, 0
2, 115475, Note_on_c, 0, 80, 108
2, 115487, Note_on_c, 0, 62, 77
2, 115515, Note_on_c, 0, 81, 0
2, 115554, Note_on_c, 0, 57, 0
2, 115583, Note_on_c, 0, 66, 77
2, 115586, Note_on_c, 0, 83, 94
2, 115615, Note_on_c, 0, 62, 0
2, 115623, Control_c, 0, 64, 63
2, 115630, Control_c, 0, 64, 0
2, 115634, Note_on_c, 0, 80, 0
2, 115684, Note_on_c, 0, 81, 102
2, 115689, Note_on_c, 0, 62, 60
2, 115696, Note_on_c, 0, 66, 0
2, 115714, Note_on_c, 0, 83, 0
2, 115725, Control_c, 0, 64, 63
2, 115735, Control_c, 0, 64, 127
2, 115790, Note_on_c, 0, 80, 97
2, 115792, Note_on_c, 0, 66, 69
2, 115799, Note_on_c, 0, 62, 0
2, 115818, Note_on_c, 0, 81, 0
2, 115881, Note_on_c, 0, 66, 0
2, 115887, Control_c, 0, 64, 63
2, 115888, Note_on_c, 0, 78, 94
2, 115896, Control_c, 0, 64, 0
2, 115898, Note_on_c, 0, 62, 58
2, 115904, Note_on_c, 0, 80, 0
2, 115987, Note_on_c, 0, 78, 0
2, 115988, Note_on_c, 0, 57, 54
2, 115992, Note_on_c, 0, 75, 85
2, 115997, Note_on_c, 0, 62, 0
2, 116011, Control_c, 0, 64, 63
2, 116014, Control_c, 0, 64, 127
2, 116095, Note_on_c, 0, 57, 0
2, 116098, Note_on_c, 0, 61, 73
2, 116100, Note_on_c, 0, 76, 76
2, 116118, Note_on_c, 0, 75, 0
2, 116142, Control_c, 0, 64, 63
2, 116147, Control_c, 0, 64, 0
2, 116158, Note_on_c, 0, 76, 0
2, 116207, Note_on_c, 0, 61, 0
2, 116211, Note_on_c, 0, 76, 70
2, 116220, Control_c, 0, 64, 63
2, 116222, Note_on_c, 0, 64, 36
2, 116225, Control_c, 0, 64, 127
2, 116255, Note_on_c, 0, 76, 0
2, 116311, Note_on_c, 0, 61, 71
2, 116317, Note_on_c, 0, 64, 0
2, 116357, Control_c, 0, 64, 63
2, 116360, Control_c, 0, 64, 0
2, 116402, Note_on_c, 0, 61, 0
2, 116416, Control_c, 0, 64, 63
2, 116419, Note_on_c, 0, 64, 48
2, 116419, Control_c, 0, 64, 127
2, 116508, Note_on_c, 0, 61, 75
2, 116509, Note_on_c, 0, 64, 0
2, 116530, Note_on_c, 0, 61, 0
2, 116609, Control_c, 0, 64, 63
2, 116610, Control_c, 0, 64, 0
2, 116638, Note_on_c, 0, 49, 100
2, 116641, Note_on_c, 0, 76, 121
2, 116643, Note_on_c, 0, 45, 93
2, 116657, Control_c, 0, 64, 127
2, 116673, Note_on_c, 0, 49, 0
2, 116677, Note_on_c, 0, 45, 0
2, 116684, Note_on_c, 0, 76, 0
2, 116847, Note_on_c, 0, 57, 69
2, 116850, Note_on_c, 0, 61, 85
2, 116866, Note_on_c, 0, 61, 0
2, 116877, Note_on_c, 0, 57, 0
2, 116978, Note_on_c, 0, 78, 104
2, 117024, Note_on_c, 0, 76, 102
2, 117028, Control_c, 0, 64, 63
2, 117030, Control_c, 0, 64, 0
2, 117050, Note_on_c, 0, 78, 0
2, 117070, Note_on_c, 0, 76, 0
2, 117073, Note_on_c, 0, 74, 80
2, 117108, Note_on_c, 0, 74, 0
2, 117115, Note_on_c, 0, 73, 105
2, 117160, Note_on_c, 0, 71, 78
2, 117164, Note_on_c, 0, 73, 0
2, 117198, Note_on_c, 0, 69, 87
2, 117207, Note_on_c, 0, 71, 0
2, 117236, Note_on_c, 0, 69, 0
2, 117249, Note_on_c, 0, 47, 105
2, 117252, Note_on_c, 0, 50, 102
2, 117256, Control_c, 0, 64, 127
2, 117260, Note_on_c, 0, 76, 118
2, 117270, Note_on_c, 0, 50, 0
2, 117283, Note_on_c, 0, 47, 0
2, 117352, Note_on_c, 0, 76, 0
2, 117363, Note_on_c, 0, 74, 111
2, 117469, Note_on_c, 0, 62, 85
2, 117469, Note_on_c, 0, 59, 80
2, 117478, Note_on_c, 0, 74, 0
2, 117585, Note_on_c, 0, 76, 92
2, 117593, Control_c, 0, 64, 63
2, 117598, Control_c, 0, 64, 0
2, 117628, Note_on_c, 0, 74, 96
2, 117653, Note_on_c, 0, 59, 0
2, 117654, Note_on_c, 0, 76, 0
2, 117671, Note_on_c, 0, 73, 95
2, 117681, Note_on_c, 0, 62, 0
2, 117692, Note_on_c, 0, 74, 0
2, 117715, Note_on_c, 0, 71, 95
2, 117727, Note_on_c, 0, 73, 0
2, 117761, Note_on_c, 0, 69, 81
2, 117763, Note_on_c, 0, 71, 0
2, 117819, Note_on_c, 0, 69, 0
2, 117819, Note_on_c, 0, 68, 103
2, 117859, Note_on_c, 0, 64, 64
2, 117866, Note_on_c, 0, 61, 70
2, 117873, Note_on_c, 0, 69, 80
2, 117875, Note_on_c, 0, 68, 0
2, 118109, Note_on_c, 0, 68, 104
2, 118114, Note_on_c, 0, 59, 63
2, 118115, Note_on_c, 0, 62, 76
2, 118122, Note_on_c, 0, 61, 0
2, 118138, Note_on_c, 0, 69, 0
2, 118159, Note_on_c, 0, 64, 0
2, 118361, Note_on_c, 0, 59, 0
2, 118367, Note_on_c, 0, 68, 0
2, 118369, Note_on_c, 0, 61, 77
2, 118372, Note_on_c, 0, 69, 76
2, 118375, Note_on_c, 0, 57, 44
2, 118379, Note_on_c, 0, 62, 0
2, 118464, Control_c, 0, 64, 63
2, 118465, Control_c, 0, 64, 127
2, 118504, Note_on_c, 0, 57, 0
2, 118507, Note_on_c, 0, 61, 0
2, 118527, Note_on_c, 0, 69, 0
2, 118680, Note_on_c, 0, 61, 60
2, 118688, Note_on_c, 0, 73, 100
2, 118689, Note_on_c, 0, 69, 75
2, 118690, Note_on_c, 0, 57, 48
2, 118703, Note_on_c, 0, 64, 40
2, 118705, Note_on_c, 0, 52, 39
2, 118798, Control_c, 0, 64, 63
2, 118818, Control_c, 0, 64, 0
2, 118939, Control_c, 0, 64, 63
2, 118943, Control_c, 0, 64, 127
2, 119038, Note_on_c, 0, 69, 0
2, 119053, Note_on_c, 0, 61, 0
2, 119055, Note_on_c, 0, 73, 0
2, 119068, Note_on_c, 0, 57, 0
2, 119331, Note_on_c, 0, 56, 44
2, 119336, Note_on_c, 0, 68, 40
2, 119336, Note_on_c, 0, 71, 56
2, 119342, Note_on_c, 0, 59, 23
2, 119387, Control_c, 0, 64, 63
2, 119399, Control_c, 0, 64, 0
2, 119449, Control_c, 0, 64, 63
2, 119459, Control_c, 0, 64, 127
2, 119464, Note_on_c, 0, 64, 0
2, 119499, Note_on_c, 0, 59, 0
2, 119507, Note_on_c, 0, 71, 0
2, 119512, Note_on_c, 0, 68, 0
2, 119517, Note_on_c, 0, 52, 0
2, 119518, Note_on_c, 0, 56, 0
2, 119714, Control_c, 0, 64, 63
2, 119736, Control_c, 0, 64, 0
2, 119782, Note_on_c, 0, 57, 60
2, 119788, Note_on_c, 0, 73, 74
2, 119793, Note_on_c, 0, 45, 50
2, 119797, Note_on_c, 0, 69, 47
2, 119800, Control_c, 0, 64, 63
2, 119817, Control_c, 0, 64, 127
2, 119861, Note_on_c, 0, 45, 0
2, 119881, Note_on_c, 0, 57, 0
2, 119962, Note_on_c, 0, 73, 0
2, 119962, Note_on_c, 0, 69, 0
2, 119967, Note_on_c, 0, 64, 43
2, 120100, Note_on_c, 0, 73, 83
2, 120102, Note_on_c, 0, 81, 50
2, 120106, Note_on_c, 0, 85, 63
2, 120108, Note_on_c, 0, 69, 59
2, 120126, Note_on_c, 0, 64, 0
2, 120211, Note_on_c, 0, 64, 62
2, 120234, Note_on_c, 0, 73, 0
2, 120293, Note_on_c, 0, 81, 0
2, 120302, Note_on_c, 0, 69, 0
2, 120315, Note_on_c, 0, 86, 84
2, 120317, Note_on_c, 0, 83, 70
2, 120318, Note_on_c, 0, 74, 88
2, 120321, Note_on_c, 0, 71, 71
2, 120337, Note_on_c, 0, 64, 0
2, 120338, Note_on_c, 0, 85, 0
2, 120401, Note_on_c, 0, 64, 72
2, 120408, Note_on_c, 0, 71, 0
2, 120439, Note_on_c, 0, 74, 0
2, 120499, Note_on_c, 0, 64, 0
2, 120501, Note_on_c, 0, 86, 0
2, 120508, Note_on_c, 0, 88, 69
2, 120510, Note_on_c, 0, 85, 71
2, 120513, Note_on_c, 0, 76, 84
2, 120514, Note_on_c, 0, 73, 86
2, 120524, Note_on_c, 0, 83, 0
2, 120542, Control_c, 0, 64, 63
2, 120585, Control_c, 0, 64, 127
2, 120615, Note_on_c, 0, 76, 0
2, 120619, Note_on_c, 0, 64, 48
2, 120639, Note_on_c, 0, 73, 0
2, 120719, Note_on_c, 0, 71, 73
2, 120724, Note_on_c, 0, 74, 62
2, 120727, Note_on_c, 0, 85, 0
2, 120729, Note_on_c, 0, 83, 43
2, 120730, Note_on_c, 0, 88, 0
2, 120736, Note_on_c, 0, 86, 59
2, 120739, Note_on_c, 0, 64, 0
2, 120761, Control_c, 0, 64, 63
2, 120788, Note_on_c, 0, 71, 0
2, 120796, Control_c, 0, 64, 127
2, 120812, Note_on_c, 0, 64, 51
2, 120920, Note_on_c, 0, 74, 0
2, 120922, Note_on_c, 0, 73, 85
2, 120925, Note_on_c, 0, 85, 75
2, 120930, Note_on_c, 0, 81, 38
2, 120934, Note_on_c, 0, 69, 43
2, 120938, Note_on_c, 0, 86, 0
2, 120943, Note_on_c, 0, 83, 0
2, 120956, Note_on_c, 0, 64, 0
2, 120957, Note_on_c, 0, 85, 0
2, 120957, Note_on_c, 0, 81, 0
2, 121011, Note_on_c, 0, 69, 0
2, 121020, Note_on_c, 0, 64, 45
2, 121061, Note_on_c, 0, 73, 0
2, 121099, Note_on_c, 0, 64, 0
2, 121113, Control_c, 0, 64, 63
2, 121118, Control_c, 0, 64, 0
2, 121137, Note_on_c, 0, 71, 76
2, 121139, Note_on_c, 0, 68, 78
2, 121142, Note_on_c, 0, 52, 70
2, 121144, Note_on_c, 0, 40, 37
2, 121147, Control_c, 0, 64, 63
2, 121155, Control_c, 0, 64, 127
2, 121168, Note_on_c, 0, 40, 0
2, 121183, Note_on_c, 0, 52, 0
2, 121225, Note_on_c, 0, 71, 0
2, 121230, Note_on_c, 0, 68, 0
2, 121239, Note_on_c, 0, 64, 38
2, 121335, Note_on_c, 0, 83, 73
2, 121338, Note_on_c, 0, 80, 85
2, 121342, Note_on_c, 0, 71, 77
2, 121343, Note_on_c, 0, 68, 72
2, 121367, Note_on_c, 0, 64, 0
2, 121403, Note_on_c, 0, 83, 0
2, 121408, Note_on_c, 0, 80, 0
2, 121436, Note_on_c, 0, 64, 73
2, 121440, Note_on_c, 0, 71, 0
2, 121444, Note_on_c, 0, 68, 0
2, 121530, Note_on_c, 0, 85, 93
2, 121537, Note_on_c, 0, 81, 67
2, 121540, Note_on_c, 0, 73, 93
2, 121548, Note_on_c, 0, 69, 71
2, 121555, Note_on_c, 0, 64, 0
2, 121618, Note_on_c, 0, 64, 81
2, 121675, Note_on_c, 0, 85, 0
2, 121691, Note_on_c, 0, 73, 0
2, 121723, Note_on_c, 0, 86, 77
2, 121727, Note_on_c, 0, 71, 77
2, 121728, Note_on_c, 0, 83, 61
2, 121730, Note_on_c, 0, 81, 0
2, 121731, Note_on_c, 0, 74, 80
2, 121739, Note_on_c, 0, 69, 0
2, 121752, Control_c, 0, 64, 63
2, 121759, Note_on_c, 0, 64, 0
2, 121761, Control_c, 0, 64, 0
2, 121801, Control_c, 0, 64, 63
2, 121810, Control_c, 0, 64, 127
2, 121818, Note_on_c, 0, 64, 59
2, 121864, Note_on_c, 0, 86, 0
2, 121866, Note_on_c, 0, 71, 0
2, 121897, Note_on_c, 0, 74, 0
2, 121922, Note_on_c, 0, 73, 91
2, 121925, Note_on_c, 0, 85, 65
2, 121931, Note_on_c, 0, 83, 0
2, 121933, Note_on_c, 0, 69, 46
2, 121942, Note_on_c, 0, 81, 57
2, 121949, Note_on_c, 0, 64, 0
2, 121954, Control_c, 0, 64, 63
2, 121970, Control_c, 0, 64, 127
2, 122018, Note_on_c, 0, 64, 59
2, 122028, Note_on_c, 0, 69, 0
2, 122039, Note_on_c, 0, 73, 0
2, 122041, Note_on_c, 0, 85, 0
2, 122057, Note_on_c, 0, 81, 0
2, 122112, Note_on_c, 0, 64, 0
2, 122126, Note_on_c, 0, 80, 77
2, 122128, Note_on_c, 0, 83, 38
2, 122129, Note_on_c, 0, 71, 77
2, 122131, Note_on_c, 0, 68, 68
2, 122149, Note_on_c, 0, 83, 0
2, 122163, Note_on_c, 0, 80, 0
2, 122194, Note_on_c, 0, 71, 0
2, 122207, Note_on_c, 0, 68, 0
2, 122218, Note_on_c, 0, 64, 59
2, 122307, Note_on_c, 0, 64, 0
2, 122309, Control_c, 0, 64, 63
2, 122314, Control_c, 0, 64, 0
2, 122340, Note_on_c, 0, 69, 75
2, 122344, Control_c, 0, 64, 63
2, 122346, Note_on_c, 0, 45, 75
2, 122347, Note_on_c, 0, 57, 86
2, 122354, Control_c, 0, 64, 127
2, 122361, Note_on_c, 0, 64, 46
2, 122378, Note_on_c, 0, 45, 0
2, 122390, Note_on_c, 0, 57, 0
2, 122391, Note_on_c, 0, 69, 0
2, 122437, Note_on_c, 0, 64, 0
2, 122468, Note_on_c, 0, 61, 63
2, 122534, Note_on_c, 0, 61, 0
2, 122567, Note_on_c, 0, 81, 79
2, 122567, Note_on_c, 0, 69, 74
2, 122570, Note_on_c, 0, 73, 96
2, 122586, Note_on_c, 0, 64, 39
2, 122591, Note_on_c, 0, 73, 0
2, 122610, Note_on_c, 0, 81, 0
2, 122635, Note_on_c, 0, 69, 0
2, 122646, Note_on_c, 0, 61, 81
2, 122659, Note_on_c, 0, 64, 0
2, 122695, Note_on_c, 0, 61, 0
2, 122741, Note_on_c, 0, 83, 88
2, 122745, Note_on_c, 0, 76, 88
2, 122754, Note_on_c, 0, 71, 92
2, 122757, Note_on_c, 0, 68, 90
2, 122800, Control_c, 0, 64, 63
2, 122809, Control_c, 0, 64, 0
2, 122823, Control_c, 0, 64, 63
2, 122837, Control_c, 0, 64, 127
2, 122850, Note_on_c, 0, 83, 0
2, 122850, Note_on_c, 0, 64, 78
2, 122863, Note_on_c, 0, 71, 0
2, 122890, Note_on_c, 0, 68, 0
2, 122948, Note_on_c, 0, 73, 98
2, 122948, Note_on_c, 0, 81, 88
2, 122950, Control_c, 0, 64, 63
2, 122950, Note_on_c, 0, 85, 98
2, 122953, Note_on_c, 0, 69, 64
2, 122960, Note_on_c, 0, 64, 0
2, 122964, Note_on_c, 0, 76, 0
2, 122969, Note_on_c, 0, 85, 0
2, 122973, Control_c, 0, 64, 127
2, 122992, Note_on_c, 0, 81, 0
2, 123025, Note_on_c, 0, 64, 84
2, 123062, Note_on_c, 0, 69, 0
2, 123085, Note_on_c, 0, 73, 0
2, 123105, Note_on_c, 0, 64, 0
2, 123139, Note_on_c, 0, 73, 102
2, 123141, Note_on_c, 0, 69, 89
2, 123142, Note_on_c, 0, 54, 91
2, 123149, Note_on_c, 0, 42, 96
2, 123161, Control_c, 0, 64, 63
2, 123168, Control_c, 0, 64, 0
2, 123191, Control_c, 0, 64, 63
2, 123201, Control_c, 0, 64, 127
2, 123217, Note_on_c, 0, 69, 0
2, 123223, Note_on_c, 0, 66, 88
2, 123233, Note_on_c, 0, 73, 0
2, 123235, Note_on_c, 0, 54, 0
2, 123239, Note_on_c, 0, 42, 0
2, 123285, Note_on_c, 0, 66, 0
2, 123333, Note_on_c, 0, 71, 85
2, 123334, Note_on_c, 0, 74, 79
2, 123350, Note_on_c, 0, 38, 90
2, 123353, Note_on_c, 0, 50, 86
2, 123363, Control_c, 0, 64, 63
2, 123372, Control_c, 0, 64, 0
2, 123394, Control_c, 0, 64, 63
2, 123404, Control_c, 0, 64, 127
2, 123417, Note_on_c, 0, 66, 79
2, 123440, Note_on_c, 0, 71, 0
2, 123446, Note_on_c, 0, 38, 0
2, 123484, Note_on_c, 0, 50, 0
2, 123500, Note_on_c, 0, 66, 0
2, 123511, Control_c, 0, 64, 63
2, 123514, Note_on_c, 0, 74, 0
2, 123515, Control_c, 0, 64, 0
2, 123533, Note_on_c, 0, 40, 95
2, 123538, Note_on_c, 0, 52, 96
2, 123539, Note_on_c, 0, 69, 77
2, 123540, Note_on_c, 0, 73, 94
2, 123559, Control_c, 0, 64, 63
2, 123561, Control_c, 0, 64, 127
2, 123565, Note_on_c, 0, 40, 0
2, 123579, Note_on_c, 0, 52, 0
2, 123628, Note_on_c, 0, 73, 0
2, 123630, Note_on_c, 0, 64, 54
2, 123639, Note_on_c, 0, 69, 0
2, 123704, Note_on_c, 0, 64, 0
2, 123748, Note_on_c, 0, 73, 93
2, 123750, Note_on_c, 0, 85, 97
2, 123756, Note_on_c, 0, 69, 75
2, 123767, Note_on_c, 0, 81, 61
2, 123830, Note_on_c, 0, 69, 0
2, 123839, Note_on_c, 0, 64, 57
2, 123842, Note_on_c, 0, 73, 0
2, 123919, Note_on_c, 0, 64, 0
2, 123941, Note_on_c, 0, 71, 95
2, 123941, Note_on_c, 0, 68, 93
2, 123942, Note_on_c, 0, 83, 84
2, 123949, Note_on_c, 0, 80, 86
2, 123973, Note_on_c, 0, 85, 0
2, 123973, Control_c, 0, 64, 63
2, 123980, Control_c, 0, 64, 0
2, 123983, Note_on_c, 0, 81, 0
2, 124006, Control_c, 0, 64, 63
2, 124017, Control_c, 0, 64, 127
2, 124040, Note_on_c, 0, 64, 76
2, 124096, Note_on_c, 0, 68, 0
2, 124099, Note_on_c, 0, 71, 0
2, 124113, Note_on_c, 0, 83, 0
2, 124115, Note_on_c, 0, 80, 0
2, 124141, Note_on_c, 0, 64, 0
2, 124151, Note_on_c, 0, 71, 93
2, 124153, Note_on_c, 0, 83, 77
2, 124154, Note_on_c, 0, 80, 76
2, 124155, Note_on_c, 0, 68, 87
2, 124175, Control_c, 0, 64, 63
2, 124191, Control_c, 0, 64, 0
2, 124211, Control_c, 0, 64, 63
2, 124227, Control_c, 0, 64, 127
2, 124251, Note_on_c, 0, 64, 71
2, 124311, Note_on_c, 0, 68, 0
2, 124362, Note_on_c, 0, 71, 0
2, 124367, Note_on_c, 0, 68, 84
2, 124370, Note_on_c, 0, 72, 90
2, 124373, Note_on_c, 0, 64, 0
2, 124373, Note_on_c, 0, 84, 70
2, 124373, Control_c, 0, 64, 63
2, 124390, Note_on_c, 0, 83, 0
2, 124421, Control_c, 0, 64, 127
2, 124475, Note_on_c, 0, 64, 57
2, 124502, Note_on_c, 0, 72, 0
2, 124512, Note_on_c, 0, 84, 0
2, 124516, Note_on_c, 0, 68, 0
2, 124611, Note_on_c, 0, 85, 86
2, 124613, Note_on_c, 0, 73, 88
2, 124622, Control_c, 0, 64, 63
2, 124623, Note_on_c, 0, 64, 0
2, 124623, Note_on_c, 0, 69, 51
2, 124624, Note_on_c, 0, 80, 0
2, 124629, Control_c, 0, 64, 0
2, 124644, Note_on_c, 0, 81, 37
2, 124653, Note_on_c, 0, 85, 0
2, 124670, Control_c, 0, 64, 63
2, 124677, Control_c, 0, 64, 127
2, 124694, Note_on_c, 0, 81, 0
2, 124732, Note_on_c, 0, 64, 57
2, 124778, Note_on_c, 0, 73, 0
2, 124780, Note_on_c, 0, 69, 0
2, 124862, Note_on_c, 0, 64, 0
2, 124873, Control_c, 0, 64, 63
2, 124876, Control_c, 0, 64, 0
2, 124888, Note_on_c, 0, 73, 104
2, 124892, Note_on_c, 0, 57, 90
2, 124893, Note_on_c, 0, 69, 83
2, 124894, Note_on_c, 0, 45, 81
2, 124925, Control_c, 0, 64, 63
2, 124926, Control_c, 0, 64, 127
2, 124937, Note_on_c, 0, 45, 0
2, 124962, Note_on_c, 0, 57, 0
2, 124998, Note_on_c, 0, 64, 69
2, 125031, Note_on_c, 0, 73, 0
2, 125033, Note_on_c, 0, 69, 0
2, 125119, Note_on_c, 0, 73, 100
2, 125124, Note_on_c, 0, 64, 0
2, 125124, Note_on_c, 0, 69, 75
2, 125130, Note_on_c, 0, 85, 98
2, 125130, Note_on_c, 0, 81, 86
2, 125211, Note_on_c, 0, 64, 84
2, 125232, Note_on_c, 0, 73, 0
2, 125257, Note_on_c, 0, 69, 0
2, 125277, Note_on_c, 0, 81, 0
2, 125297, Note_on_c, 0, 85, 0
2, 125316, Note_on_c, 0, 64, 0
2, 125324, Note_on_c, 0, 83, 96
2, 125325, Note_on_c, 0, 86, 109
2, 125328, Note_on_c, 0, 71, 89
2, 125333, Note_on_c, 0, 74, 97
2, 125420, Note_on_c, 0, 64, 81
2, 125447, Note_on_c, 0, 74, 0
2, 125452, Note_on_c, 0, 71, 0
2, 125498, Note_on_c, 0, 64, 0
2, 125512, Note_on_c, 0, 86, 0
2, 125532, Control_c, 0, 64, 63
2, 125535, Note_on_c, 0, 88, 102
2, 125536, Note_on_c, 0, 76, 96
2, 125541, Control_c, 0, 64, 0
2, 125542, Note_on_c, 0, 85, 81
2, 125549, Note_on_c, 0, 73, 94
2, 125564, Note_on_c, 0, 83, 0
2, 125569, Control_c, 0, 64, 63
2, 125574, Control_c, 0, 64, 127
2, 125581, Note_on_c, 0, 88, 0
2, 125608, Note_on_c, 0, 85, 0
2, 125651, Note_on_c, 0, 69, 62
2, 125679, Note_on_c, 0, 76, 0
2, 125686, Note_on_c, 0, 73, 0
2, 125770, Note_on_c, 0, 76, 101
2, 125775, Note_on_c, 0, 73, 100
2, 125776, Note_on_c, 0, 69, 0
2, 125783, Note_on_c, 0, 45, 58
2, 125787, Note_on_c, 0, 57, 29
2, 125802, Control_c, 0, 64, 63
2, 125806, Control_c, 0, 64, 0
2, 125832, Control_c, 0, 64, 63
2, 125839, Control_c, 0, 64, 127
2, 125882, Note_on_c, 0, 57, 0
2, 125895, Note_on_c, 0, 69, 62
2, 125902, Note_on_c, 0, 76, 0
2, 125910, Note_on_c, 0, 45, 0
2, 125928, Note_on_c, 0, 73, 0
2, 126030, Note_on_c, 0, 78, 100
2, 126034, Note_on_c, 0, 74, 83
2, 126039, Note_on_c, 0, 38, 70
2, 126042, Note_on_c, 0, 50, 58
2, 126052, Control_c, 0, 64, 63
2, 126056, Control_c, 0, 64, 0
2, 126058, Note_on_c, 0, 69, 0
2, 126089, Control_c, 0, 64, 63
2, 126094, Control_c, 0, 64, 127
2, 126144, Note_on_c, 0, 38, 0
2, 126167, Note_on_c, 0, 69, 60
2, 126174, Note_on_c, 0, 74, 0
2, 126182, Note_on_c, 0, 78, 0
2, 126193, Note_on_c, 0, 50, 0
2, 126218, Note_on_c, 0, 69, 0
2, 126307, Note_on_c, 0, 40, 75
2, 126308, Control_c, 0, 64, 63
2, 126312, Control_c, 0, 64, 0
2, 126316, Note_on_c, 0, 52, 51
2, 126320, Note_on_c, 0, 69, 60
2, 126320, Note_on_c, 0, 73, 85
2, 126349, Control_c, 0, 64, 63
2, 126352, Control_c, 0, 64, 127
2, 126363, Note_on_c, 0, 40, 0
2, 126380, Note_on_c, 0, 52, 0
2, 126432, Note_on_c, 0, 69, 0
2, 126443, Note_on_c, 0, 73, 0
2, 126443, Note_on_c, 0, 64, 68
2, 126564, Note_on_c, 0, 64, 0
2, 126586, Note_on_c, 0, 73, 81
2, 126587, Note_on_c, 0, 85, 62
2, 126595, Note_on_c, 0, 69, 61
2, 126612, Note_on_c, 0, 81, 31
2, 126694, Note_on_c, 0, 85, 0
2, 126697, Note_on_c, 0, 73, 0
2, 126708, Note_on_c, 0, 69, 0
2, 126718, Note_on_c, 0, 81, 0
2, 126725, Note_on_c, 0, 64, 38
2, 126805, Note_on_c, 0, 64, 0
2, 126842, Note_on_c, 0, 71, 65
2, 126846, Note_on_c, 0, 80, 62
2, 126846, Note_on_c, 0, 68, 57
2, 126851, Note_on_c, 0, 83, 32
2, 126873, Control_c, 0, 64, 63
2, 126881, Control_c, 0, 64, 0
2, 126903, Control_c, 0, 64, 63
2, 126915, Control_c, 0, 64, 127
2, 127006, Note_on_c, 0, 71, 0
2, 127009, Note_on_c, 0, 64, 40
2, 127024, Note_on_c, 0, 68, 0
2, 127029, Note_on_c, 0, 80, 0
2, 127046, Note_on_c, 0, 83, 0
2, 127116, Note_on_c, 0, 64, 0
2, 127152, Note_on_c, 0, 69, 50
2, 127158, Note_on_c, 0, 81, 56
2, 127166, Control_c, 0, 64, 63
2, 127177, Control_c, 0, 64, 0
2, 127198, Control_c, 0, 64, 63
2, 127211, Control_c, 0, 64, 127
2, 127218, Note_on_c, 0, 81, 0
2, 127316, Note_on_c, 0, 69, 0
2, 127331, Note_on_c, 0, 64, 50
2, 127409, Note_on_c, 0, 64, 0
2, 127500, Note_on_c, 0, 57, 44
2, 127515, Note_on_c, 0, 61, 59
2, 127529, Control_c, 0, 64, 63
2, 127551, Note_on_c, 0, 61, 0
2, 127555, Note_on_c, 0, 57, 0
2, 127558, Control_c, 0, 64, 0
2, 127712, Note_on_c, 0, 64, 40
2, 127765, Note_on_c, 0, 64, 0
2, 127900, Control_c, 0, 64, 63
2, 127993, Note_on_c, 0, 69, 50
2, 128010, Note_on_c, 0, 45, 42
2, 128048, Control_c, 0, 64, 127
2, 128285, Note_on_c, 0, 69, 0
2, 128346, Note_on_c, 0, 45, 0
2, 128606, Control_c, 0, 64, 63
2, 128966, Control_c, 0, 64, 127
2, 129170, Note_on_c, 0, 57, 25
2, 129177, Note_on_c, 0, 73, 59
2, 129399, Note_on_c, 0, 64, 22
2, 129555, Note_on_c, 0, 61, 45
2, 129592, Note_on_c, 0, 64, 0
2, 129595, Note_on_c, 0, 73, 0
2, 129709, Note_on_c, 0, 64, 26
2, 129733, Note_on_c, 0, 57, 0
2, 129812, Note_on_c, 0, 61, 0
2, 129872, Note_on_c, 0, 73, 85
2, 129873, Note_on_c, 0, 57, 34
2, 129929, Note_on_c, 0, 64, 0
2, 130035, Note_on_c, 0, 64, 42
2, 130042, Control_c, 0, 64, 63
2, 130055, Control_c, 0, 64, 0
2, 130161, Note_on_c, 0, 61, 70
2, 130164, Control_c, 0, 64, 63
2, 130169, Control_c, 0, 64, 127
2, 130200, Note_on_c, 0, 64, 0
2, 130292, Note_on_c, 0, 64, 78
2, 130304, Note_on_c, 0, 57, 0
2, 130340, Note_on_c, 0, 61, 0
2, 130425, Note_on_c, 0, 57, 62
2, 130449, Control_c, 0, 64, 63
2, 130472, Control_c, 0, 64, 0
2, 130483, Note_on_c, 0, 64, 0
2, 130496, Control_c, 0, 64, 63
2, 130513, Control_c, 0, 64, 127
2, 130579, Note_on_c, 0, 64, 52
2, 130689, Control_c, 0, 64, 63
2, 130696, Note_on_c, 0, 59, 66
2, 130701, Note_on_c, 0, 74, 81
2, 130703, Control_c, 0, 64, 0
2, 130716, Note_on_c, 0, 57, 0
2, 130721, Note_on_c, 0, 64, 0
2, 130733, Note_on_c, 0, 73, 0
2, 130742, Control_c, 0, 64, 63
2, 130751, Control_c, 0, 64, 127
2, 130823, Note_on_c, 0, 64, 57
2, 130947, Note_on_c, 0, 78, 84
2, 130947, Note_on_c, 0, 61, 68
2, 130962, Note_on_c, 0, 59, 0
2, 130967, Note_on_c, 0, 64, 0
2, 130973, Note_on_c, 0, 74, 0
2, 130998, Control_c, 0, 64, 63
2, 131009, Control_c, 0, 64, 0
2, 131067, Control_c, 0, 64, 63
2, 131074, Control_c, 0, 64, 127
2, 131100, Note_on_c, 0, 64, 29
2, 131148, Note_on_c, 0, 61, 0
2, 131230, Note_on_c, 0, 76, 71
2, 131231, Note_on_c, 0, 57, 33
2, 131243, Note_on_c, 0, 64, 0
2, 131247, Note_on_c, 0, 78, 0
2, 131295, Control_c, 0, 64, 63
2, 131317, Control_c, 0, 64, 0
2, 131349, Note_on_c, 0, 64, 36
2, 131437, Control_c, 0, 64, 63
2, 131444, Control_c, 0, 64, 127
2, 131468, Note_on_c, 0, 76, 0
2, 131474, Note_on_c, 0, 61, 67
2, 131498, Note_on_c, 0, 64, 0
2, 131534, Note_on_c, 0, 57, 0
2, 131610, Note_on_c, 0, 64, 53
2, 131616, Note_on_c, 0, 61, 0
2, 131664, Control_c, 0, 64, 63
2, 131693, Control_c, 0, 64, 0
2, 131724, Note_on_c, 0, 76, 91
2, 131728, Note_on_c, 0, 57, 41
2, 131742, Note_on_c, 0, 64, 0
2, 131778, Control_c, 0, 64, 63
2, 131794, Control_c, 0, 64, 127
2, 131848, Note_on_c, 0, 64, 59
2, 131883, Note_on_c, 0, 76, 0
2, 131972, Note_on_c, 0, 57, 0
2, 131973, Note_on_c, 0, 64, 0
2, 131978, Note_on_c, 0, 61, 51
2, 131979, Note_on_c, 0, 78, 75
2, 132099, Control_c, 0, 64, 63
2, 132107, Note_on_c, 0, 76, 73
2, 132112, Note_on_c, 0, 61, 0
2, 132116, Note_on_c, 0, 64, 30
2, 132140, Note_on_c, 0, 78, 0
2, 132222, Control_c, 0, 64, 127
2, 132233, Note_on_c, 0, 57, 39
2, 132235, Note_on_c, 0, 74, 68
2, 132240, Note_on_c, 0, 76, 0
2, 132282, Note_on_c, 0, 64, 0
2, 132353, Note_on_c, 0, 73, 86
2, 132361, Note_on_c, 0, 57, 0
2, 132372, Note_on_c, 0, 74, 0
2, 132379, Note_on_c, 0, 64, 26
2, 132448, Note_on_c, 0, 73, 0
2, 132454, Control_c, 0, 64, 63
2, 132495, Note_on_c, 0, 56, 58
2, 132496, Control_c, 0, 64, 0
2, 132501, Note_on_c, 0, 73, 78
2, 132509, Note_on_c, 0, 64, 0
2, 132585, Control_c, 0, 64, 63
2, 132613, Control_c, 0, 64, 127
2, 132640, Note_on_c, 0, 64, 46
2, 132730, Control_c, 0, 64, 63
2, 132776, Note_on_c, 0, 71, 72
2, 132778, Note_on_c, 0, 64, 0
2, 132780, Note_on_c, 0, 63, 48
2, 132800, Control_c, 0, 64, 0
2, 132819, Note_on_c, 0, 73, 0
2, 132825, Control_c, 0, 64, 63
2, 132863, Control_c, 0, 64, 127
2, 132913, Note_on_c, 0, 56, 0
2, 132921, Note_on_c, 0, 64, 24
2, 132964, Note_on_c, 0, 71, 0
2, 133014, Note_on_c, 0, 63, 0
2, 133038, Note_on_c, 0, 56, 47
2, 133054, Note_on_c, 0, 64, 0
2, 133054, Note_on_c, 0, 71, 71
2, 133183, Note_on_c, 0, 64, 27
2, 133219, Control_c, 0, 64, 63
2, 133257, Control_c, 0, 64, 0
2, 133277, Control_c, 0, 64, 63
2, 133306, Note_on_c, 0, 63, 48
2, 133307, Control_c, 0, 64, 127
2, 133329, Note_on_c, 0, 64, 0
2, 133430, Note_on_c, 0, 56, 0
2, 133448, Note_on_c, 0, 64, 33
2, 133464, Note_on_c, 0, 63, 0
2, 133571, Note_on_c, 0, 56, 42
2, 133574, Control_c, 0, 64, 63
2, 133618, Note_on_c, 0, 64, 0
2, 133636, Control_c, 0, 64, 127
2, 133707, Note_on_c, 0, 64, 24
2, 133804, Note_on_c, 0, 56, 0
2, 133819, Note_on_c, 0, 73, 86
2, 133821, Note_on_c, 0, 57, 52
2, 133854, Note_on_c, 0, 71, 0
2, 133861, Note_on_c, 0, 64, 0
2, 133876, Control_c, 0, 64, 63
2, 133938, Control_c, 0, 64, 127
2, 133956, Note_on_c, 0, 64, 58
2, 134089, Note_on_c, 0, 57, 0
2, 134089, Note_on_c, 0, 76, 81
2, 134091, Note_on_c, 0, 58, 58
2, 134136, Note_on_c, 0, 64, 0
2, 134136, Note_on_c, 0, 73, 0
2, 134154, Control_c, 0, 64, 63
2, 134178, Control_c, 0, 64, 0
2, 134227, Control_c, 0, 64, 63
2, 134242, Control_c, 0, 64, 127
2, 134242, Note_on_c, 0, 64, 22
2, 134366, Note_on_c, 0, 63, 60
2, 134400, Note_on_c, 0, 64, 0
2, 134459, Note_on_c, 0, 58, 0
2, 134491, Note_on_c, 0, 64, 39
2, 134536, Note_on_c, 0, 63, 0
2, 134618, Note_on_c, 0, 59, 45
2, 134625, Note_on_c, 0, 74, 59
2, 134644, Control_c, 0, 64, 63
2, 134649, Note_on_c, 0, 64, 0
2, 134659, Control_c, 0, 64, 0
2, 134690, Note_on_c, 0, 76, 0
2, 134722, Control_c, 0, 64, 63
2, 134736, Control_c, 0, 64, 127
2, 134751, Note_on_c, 0, 64, 26
2, 134839, Note_on_c, 0, 74, 0
2, 134869, Note_on_c, 0, 63, 63
2, 134878, Note_on_c, 0, 64, 0
2, 134918, Note_on_c, 0, 59, 0
2, 134940, Control_c, 0, 64, 63
2, 134956, Control_c, 0, 64, 0
2, 134980, Note_on_c, 0, 74, 81
2, 134982, Note_on_c, 0, 63, 0
2, 134984, Note_on_c, 0, 64, 57
2, 135084, Control_c, 0, 64, 63
2, 135096, Control_c, 0, 64, 127
2, 135107, Note_on_c, 0, 56, 45
2, 135117, Note_on_c, 0, 76, 78
2, 135130, Note_on_c, 0, 64, 0
2, 135152, Note_on_c, 0, 74, 0
2, 135231, Note_on_c, 0, 74, 86
2, 135240, Note_on_c, 0, 76, 0
2, 135242, Note_on_c, 0, 64, 42
2, 135246, Note_on_c, 0, 56, 0
2, 135286, Control_c, 0, 64, 63
2, 135297, Control_c, 0, 64, 0
2, 135353, Note_on_c, 0, 73, 97
2, 135360, Note_on_c, 0, 52, 61
2, 135362, Control_c, 0, 64, 63
2, 135373, Control_c, 0, 64, 127
2, 135397, Note_on_c, 0, 64, 0
2, 135400, Note_on_c, 0, 74, 0
2, 135466, Control_c, 0, 64, 63
2, 135470, Note_on_c, 0, 71, 89
2, 135478, Note_on_c, 0, 64, 56
2, 135486, Note_on_c, 0, 52, 0
2, 135491, Control_c, 0, 64, 0
2, 135501, Control_c, 0, 64, 63
2, 135508, Note_on_c, 0, 73, 0
2, 135521, Control_c, 0, 64, 127
2, 135573, Note_on_c, 0, 71, 0
2, 135604, Note_on_c, 0, 71, 80
2, 135612, Note_on_c, 0, 54, 78
2, 135626, Note_on_c, 0, 64, 0
2, 135669, Control_c, 0, 64, 63
2, 135692, Control_c, 0, 64, 0
2, 135708, Control_c, 0, 64, 63
2, 135725, Control_c, 0, 64, 127
2, 135738, Note_on_c, 0, 64, 51
2, 135788, Note_on_c, 0, 54, 0
2, 135852, Note_on_c, 0, 63, 75
2, 135866, Note_on_c, 0, 69, 81
2, 135867, Note_on_c, 0, 64, 0
2, 135873, Control_c, 0, 64, 63
2, 135880, Note_on_c, 0, 71, 0
2, 135904, Control_c, 0, 64, 0
2, 135948, Control_c, 0, 64, 63
2, 135975, Control_c, 0, 64, 127
2, 135986, Note_on_c, 0, 64, 48
2, 135998, Note_on_c, 0, 63, 0
2, 136108, Note_on_c, 0, 54, 51
2, 136125, Control_c, 0, 64, 63
2, 136143, Note_on_c, 0, 69, 0
2, 136157, Control_c, 0, 64, 0
2, 136158, Note_on_c, 0, 64, 0
2, 136253, Note_on_c, 0, 69, 52
2, 136368, Note_on_c, 0, 68, 79
2, 136393, Note_on_c, 0, 69, 0
2, 136481, Note_on_c, 0, 69, 81
2, 136493, Note_on_c, 0, 54, 0
2, 136498, Note_on_c, 0, 68, 0
2, 136593, Note_on_c, 0, 71, 92
2, 136621, Note_on_c, 0, 69, 0
2, 136703, Note_on_c, 0, 69, 88
2, 136710, Note_on_c, 0, 71, 0
2, 136820, Note_on_c, 0, 74, 85
2, 136854, Note_on_c, 0, 69, 0
2, 136938, Note_on_c, 0, 73, 100
2, 136981, Note_on_c, 0, 74, 0
2, 137061, Note_on_c, 0, 70, 99
2, 137065, Note_on_c, 0, 56, 77
2, 137098, Note_on_c, 0, 73, 0
2, 137187, Note_on_c, 0, 64, 55
2, 137220, Note_on_c, 0, 56, 0
2, 137311, Note_on_c, 0, 63, 60
2, 137318, Note_on_c, 0, 71, 71
2, 137351, Note_on_c, 0, 64, 0
2, 137355, Note_on_c, 0, 70, 0
2, 137446, Note_on_c, 0, 64, 33
2, 137452, Note_on_c, 0, 63, 0
2, 137557, Note_on_c, 0, 56, 57
2, 137608, Note_on_c, 0, 64, 0
2, 137610, Note_on_c, 0, 71, 0
2, 137645, Control_c, 0, 64, 63
2, 137665, Control_c, 0, 64, 127
2, 137681, Note_on_c, 0, 71, 68
2, 137803, Note_on_c, 0, 70, 83
2, 137819, Note_on_c, 0, 56, 0
2, 137829, Note_on_c, 0, 71, 0
2, 137908, Note_on_c, 0, 71, 89
2, 137927, Note_on_c, 0, 70, 0
2, 137993, Control_c, 0, 64, 63
2, 138023, Control_c, 0, 64, 0
2, 138023, Note_on_c, 0, 73, 102
2, 138056, Note_on_c, 0, 71, 0
2, 138143, Note_on_c, 0, 71, 93
2, 138188, Note_on_c, 0, 73, 0
2, 138259, Note_on_c, 0, 76, 81
2, 138309, Note_on_c, 0, 71, 0
2, 138378, Note_on_c, 0, 74, 79
2, 138456, Note_on_c, 0, 76, 0
2, 138477, Note_on_c, 0, 74, 0
2, 138498, Note_on_c, 0, 64, 47
2, 138500, Control_c, 0, 64, 63
2, 138502, Note_on_c, 0, 57, 44
2, 138504, Note_on_c, 0, 74, 93
2, 138522, Control_c, 0, 64, 127
2, 138611, Note_on_c, 0, 73, 99
2, 138645, Note_on_c, 0, 74, 0
2, 138732, Note_on_c, 0, 72, 104
2, 138768, Note_on_c, 0, 73, 0
2, 138810, Note_on_c, 0, 57, 0
2, 138835, Note_on_c, 0, 73, 111
2, 138865, Note_on_c, 0, 72, 0
2, 138868, Note_on_c, 0, 64, 0
2, 138939, Control_c, 0, 64, 63
2, 138959, Note_on_c, 0, 74, 98
2, 138960, Note_on_c, 0, 57, 83
2, 138962, Control_c, 0, 64, 0
2, 138964, Note_on_c, 0, 54, 82
2, 138994, Note_on_c, 0, 73, 0
2, 139037, Control_c, 0, 64, 63
2, 139057, Control_c, 0, 64, 127
2, 139076, Note_on_c, 0, 73, 115
2, 139106, Note_on_c, 0, 74, 0
2, 139189, Note_on_c, 0, 72, 108
2, 139229, Note_on_c, 0, 73, 0
2, 139293, Note_on_c, 0, 73, 117
2, 139326, Note_on_c, 0, 72, 0
2, 139361, Note_on_c, 0, 54, 0
2, 139423, Note_on_c, 0, 76, 93
2, 139429, Note_on_c, 0, 59, 102
2, 139430, Note_on_c, 0, 50, 96
2, 139449, Control_c, 0, 64, 63
2, 139459, Note_on_c, 0, 57, 0
2, 139467, Note_on_c, 0, 73, 0
2, 139489, Control_c, 0, 64, 0
2, 139559, Note_on_c, 0, 74, 95
2, 139585, Note_on_c, 0, 76, 0
2, 139614, Control_c, 0, 64, 63
2, 139625, Control_c, 0, 64, 127
2, 139674, Note_on_c, 0, 73, 102
2, 139707, Note_on_c, 0, 74, 0
2, 139785, Note_on_c, 0, 74, 101
2, 139816, Note_on_c, 0, 73, 0
2, 139868, Note_on_c, 0, 50, 0
2, 139904, Note_on_c, 0, 73, 99
2, 139908, Note_on_c, 0, 52, 81
2, 139909, Note_on_c, 0, 56, 85
2, 139920, Note_on_c, 0, 59, 0
2, 139934, Note_on_c, 0, 74, 0
2, 139956, Control_c, 0, 64, 63
2, 139981, Control_c, 0, 64, 0
2, 140031, Note_on_c, 0, 71, 80
2, 140041, Control_c, 0, 64, 63
2, 140044, Note_on_c, 0, 73, 0
2, 140058, Control_c, 0, 64, 127
2, 140150, Note_on_c, 0, 70, 93
2, 140172, Note_on_c, 0, 71, 0
2, 140250, Note_on_c, 0, 71, 90
2, 140256, Note_on_c, 0, 70, 0
2, 140304, Control_c, 0, 64, 63
2, 140330, Control_c, 0, 64, 0
2, 140363, Note_on_c, 0, 69, 61
2, 140367, Note_on_c, 0, 71, 0
2, 140403, Control_c, 0, 64, 63
2, 140418, Control_c, 0, 64, 127
2, 140473, Note_on_c, 0, 68, 84
2, 140490, Note_on_c, 0, 69, 0
2, 140593, Note_on_c, 0, 67, 73
2, 140615, Note_on_c, 0, 56, 0
2, 140617, Control_c, 0, 64, 63
2, 140620, Note_on_c, 0, 68, 0
2, 140621, Note_on_c, 0, 52, 0
2, 140674, Control_c, 0, 64, 0
2, 140696, Note_on_c, 0, 68, 83
2, 140705, Note_on_c, 0, 67, 0
2, 140820, Note_on_c, 0, 66, 93
2, 140840, Note_on_c, 0, 68, 0
2, 140933, Note_on_c, 0, 64, 80
2, 140942, Note_on_c, 0, 66, 0
2, 141051, Note_on_c, 0, 63, 94
2, 141080, Note_on_c, 0, 64, 0
2, 141185, Note_on_c, 0, 63, 0
2, 141186, Note_on_c, 0, 64, 96
2, 141338, Note_on_c, 0, 45, 101
2, 141357, Note_on_c, 0, 73, 108
2, 141360, Note_on_c, 0, 69, 89
2, 141395, Note_on_c, 0, 64, 0
2, 141477, Control_c, 0, 64, 63
2, 141478, Control_c, 0, 64, 127
2, 141528, Note_on_c, 0, 57, 55
2, 141577, Note_on_c, 0, 45, 0
2, 141593, Note_on_c, 0, 69, 0
2, 141607, Note_on_c, 0, 57, 0
2, 141616, Note_on_c, 0, 73, 0
2, 141671, Note_on_c, 0, 57, 38
2, 141674, Note_on_c, 0, 73, 106
2, 141679, Note_on_c, 0, 69, 90
2, 141724, Note_on_c, 0, 57, 0
2, 141801, Note_on_c, 0, 57, 65
2, 141831, Note_on_c, 0, 57, 0
2, 141847, Note_on_c, 0, 69, 0
2, 141903, Note_on_c, 0, 57, 65
2, 141944, Note_on_c, 0, 57, 0
2, 141962, Note_on_c, 0, 73, 0
2, 142022, Note_on_c, 0, 57, 70
2, 142057, Note_on_c, 0, 57, 0
2, 142137, Note_on_c, 0, 57, 51
2, 142138, Note_on_c, 0, 73, 89
2, 142142, Note_on_c, 0, 70, 85
2, 142185, Note_on_c, 0, 57, 0
2, 142185, Control_c, 0, 64, 63
2, 142231, Control_c, 0, 64, 127
2, 142251, Note_on_c, 0, 57, 71
2, 142324, Note_on_c, 0, 57, 0
2, 142331, Note_on_c, 0, 70, 0
2, 142342, Note_on_c, 0, 73, 0
2, 142355, Note_on_c, 0, 57, 67
2, 142359, Note_on_c, 0, 74, 96
2, 142366, Note_on_c, 0, 71, 73
2, 142396, Control_c, 0, 64, 63
2, 142407, Note_on_c, 0, 57, 0
2, 142450, Control_c, 0, 64, 127
2, 142465, Note_on_c, 0, 57, 84
2, 142472, Note_on_c, 0, 74, 0
2, 142535, Note_on_c, 0, 57, 0
2, 142565, Note_on_c, 0, 75, 108
2, 142566, Note_on_c, 0, 57, 73
2, 142571, Note_on_c, 0, 71, 0
2, 142577, Note_on_c, 0, 72, 78
2, 142618, Note_on_c, 0, 57, 0
2, 142624, Control_c, 0, 64, 63
2, 142677, Control_c, 0, 64, 127
2, 142686, Note_on_c, 0, 57, 81
2, 142712, Note_on_c, 0, 72, 0
2, 142735, Note_on_c, 0, 57, 0
2, 142771, Note_on_c, 0, 75, 0
2, 142800, Note_on_c, 0, 57, 46
2, 142805, Note_on_c, 0, 73, 78
2, 142807, Note_on_c, 0, 76, 79
2, 142860, Control_c, 0, 64, 63
2, 142870, Note_on_c, 0, 73, 0
2, 142899, Control_c, 0, 64, 0
2, 142913, Note_on_c, 0, 76, 0
2, 142934, Note_on_c, 0, 69, 59
2, 142993, Note_on_c, 0, 69, 0
2, 143039, Note_on_c, 0, 71, 70
2, 143061, Note_on_c, 0, 57, 0
2, 143084, Note_on_c, 0, 71, 0
2, 143140, Note_on_c, 0, 73, 95
2, 143181, Note_on_c, 0, 73, 0
2, 143253, Note_on_c, 0, 74, 84
2, 143296, Note_on_c, 0, 74, 0
2, 143347, Note_on_c, 0, 76, 94
2, 143394, Note_on_c, 0, 76, 0
2, 143462, Note_on_c, 0, 78, 102
2, 143504, Note_on_c, 0, 78, 0
2, 143575, Note_on_c, 0, 80, 105
2, 143633, Note_on_c, 0, 80, 0
2, 143709, Note_on_c, 0, 81, 87
2, 143852, Note_on_c, 0, 83, 79
2, 143888, Note_on_c, 0, 81, 0
2, 144033, Note_on_c, 0, 85, 68
2, 144072, Note_on_c, 0, 83, 0
2, 144225, Control_c, 0, 64, 63
2, 144231, Control_c, 0, 64, 127
2, 144272, Note_on_c, 0, 85, 0
2, 144508, Note_on_c, 0, 73, 94
2, 144516, Note_on_c, 0, 40, 99
2, 144520, Note_on_c, 0, 69, 50
2, 144535, Control_c, 0, 64, 63
2, 144541, Control_c, 0, 64, 0
2, 144638, Control_c, 0, 64, 63
2, 144642, Control_c, 0, 64, 127
2, 144679, Note_on_c, 0, 71, 90
2, 144681, Note_on_c, 0, 68, 88
2, 144683, Note_on_c, 0, 52, 68
2, 144702, Note_on_c, 0, 69, 0
2, 144706, Note_on_c, 0, 73, 0
2, 144770, Note_on_c, 0, 52, 0
2, 144777, Note_on_c, 0, 68, 0
2, 144788, Note_on_c, 0, 71, 0
2, 144820, Note_on_c, 0, 52, 71
2, 144826, Note_on_c, 0, 71, 72
2, 144830, Note_on_c, 0, 68, 71
2, 144862, Control_c, 0, 64, 63
2, 144874, Control_c, 0, 64, 0
2, 144890, Control_c, 0, 64, 63
2, 144899, Note_on_c, 0, 52, 0
2, 144905, Control_c, 0, 64, 127
2, 144943, Note_on_c, 0, 40, 0
2, 144943, Note_on_c, 0, 52, 58
2, 145040, Note_on_c, 0, 52, 0
2, 145060, Note_on_c, 0, 52, 29
2, 145094, Note_on_c, 0, 68, 0
2, 145110, Note_on_c, 0, 52, 0
2, 145119, Note_on_c, 0, 71, 0
2, 145173, Note_on_c, 0, 52, 60
2, 145213, Note_on_c, 0, 52, 0
2, 145283, Note_on_c, 0, 71, 78
2, 145284, Note_on_c, 0, 68, 74
2, 145306, Note_on_c, 0, 52, 62
2, 145319, Control_c, 0, 64, 63
2, 145348, Control_c, 0, 64, 127
2, 145351, Note_on_c, 0, 52, 0
2, 145396, Note_on_c, 0, 52, 79
2, 145444, Note_on_c, 0, 52, 0
2, 145479, Note_on_c, 0, 68, 0
2, 145479, Note_on_c, 0, 71, 0
2, 145506, Note_on_c, 0, 72, 99
2, 145509, Note_on_c, 0, 69, 74
2, 145519, Note_on_c, 0, 52, 65
2, 145540, Control_c, 0, 64, 63
2, 145568, Note_on_c, 0, 52, 0
2, 145588, Control_c, 0, 64, 127
2, 145613, Note_on_c, 0, 52, 90
2, 145667, Note_on_c, 0, 52, 0
2, 145679, Note_on_c, 0, 72, 0
2, 145723, Note_on_c, 0, 73, 108
2, 145728, Note_on_c, 0, 70, 99
2, 145741, Note_on_c, 0, 52, 73
2, 145749, Control_c, 0, 64, 63
2, 145765, Note_on_c, 0, 69, 0
2, 145794, Note_on_c, 0, 52, 0
2, 145801, Control_c, 0, 64, 127
2, 145824, Note_on_c, 0, 52, 87
2, 145875, Note_on_c, 0, 52, 0
2, 145923, Note_on_c, 0, 70, 0
2, 145940, Note_on_c, 0, 73, 0
2, 145959, Control_c, 0, 64, 63
2, 145966, Note_on_c, 0, 71, 57
2, 145967, Note_on_c, 0, 74, 79
2, 145971, Note_on_c, 0, 52, 51
2, 145980, Control_c, 0, 64, 0
2, 145999, Control_c, 0, 64, 63
2, 146019, Control_c, 0, 64, 127
2, 146043, Note_on_c, 0, 71, 0
2, 146092, Note_on_c, 0, 74, 0
2, 146116, Note_on_c, 0, 71, 77
2, 146168, Note_on_c, 0, 71, 0
2, 146189, Note_on_c, 0, 52, 0
2, 146192, Control_c, 0, 64, 63
2, 146227, Note_on_c, 0, 73, 93
2, 146243, Control_c, 0, 64, 0
2, 146268, Note_on_c, 0, 73, 0
2, 146336, Note_on_c, 0, 74, 85
2, 146378, Note_on_c, 0, 74, 0
2, 146427, Note_on_c, 0, 76, 89
2, 146469, Note_on_c, 0, 76, 0
2, 146533, Note_on_c, 0, 78, 102
2, 146581, Note_on_c, 0, 78, 0
2, 146642, Note_on_c, 0, 80, 108
2, 146694, Note_on_c, 0, 80, 0
2, 146751, Note_on_c, 0, 81, 102
2, 146795, Note_on_c, 0, 81, 0
2, 146886, Note_on_c, 0, 83, 93
2, 147020, Note_on_c, 0, 85, 91
2, 147056, Note_on_c, 0, 83, 0
2, 147220, Note_on_c, 0, 86, 62
2, 147233, Note_on_c, 0, 85, 0
2, 147399, Control_c, 0, 64, 63
2, 147403, Control_c, 0, 64, 127
2, 147458, Note_on_c, 0, 86, 0
2, 147746, Note_on_c, 0, 71, 62
2, 147769, Note_on_c, 0, 73, 75
2, 147775, Note_on_c, 0, 71, 0
2, 147817, Note_on_c, 0, 73, 0
2, 147817, Note_on_c, 0, 71, 57
2, 147821, Control_c, 0, 64, 63
2, 147835, Control_c, 0, 64, 0
2, 147917, Control_c, 0, 64, 63
2, 147935, Control_c, 0, 64, 127
2, 147972, Note_on_c, 0, 69, 59
2, 147985, Note_on_c, 0, 71, 0
2, 148066, Note_on_c, 0, 69, 0
2, 148114, Note_on_c, 0, 69, 46
2, 148193, Control_c, 0, 64, 63
2, 148261, Control_c, 0, 64, 127
2, 148388, Note_on_c, 0, 64, 40
2, 148393, Note_on_c, 0, 54, 59
2, 148456, Note_on_c, 0, 69, 0
2, 148522, Note_on_c, 0, 69, 79
2, 148534, Control_c, 0, 64, 63
2, 148554, Control_c, 0, 64, 0
2, 148597, Control_c, 0, 64, 63
2, 148615, Control_c, 0, 64, 127
2, 148661, Note_on_c, 0, 74, 78
2, 148722, Note_on_c, 0, 69, 0
2, 148723, Control_c, 0, 64, 63
2, 148762, Note_on_c, 0, 73, 98
2, 148781, Control_c, 0, 64, 127
2, 148782, Note_on_c, 0, 74, 0
2, 148824, Note_on_c, 0, 64, 0
2, 148877, Note_on_c, 0, 70, 99
2, 148881, Note_on_c, 0, 64, 75
2, 148885, Note_on_c, 0, 56, 83
2, 148908, Note_on_c, 0, 73, 0
2, 148913, Control_c, 0, 64, 63
2, 148925, Note_on_c, 0, 54, 0
2, 148934, Control_c, 0, 64, 0
2, 148990, Control_c, 0, 64, 63
2, 148992, Note_on_c, 0, 71, 93
2, 149002, Control_c, 0, 64, 127
2, 149014, Note_on_c, 0, 70, 0
2, 149111, Control_c, 0, 64, 63
2, 149114, Note_on_c, 0, 76, 94
2, 149126, Control_c, 0, 64, 0
2, 149150, Note_on_c, 0, 71, 0
2, 149161, Control_c, 0, 64, 63
2, 149171, Control_c, 0, 64, 127
2, 149222, Note_on_c, 0, 74, 102
2, 149256, Note_on_c, 0, 76, 0
2, 149290, Note_on_c, 0, 64, 0
2, 149303, Control_c, 0, 64, 63
2, 149310, Control_c, 0, 64, 0
2, 149350, Note_on_c, 0, 64, 72
2, 149351, Note_on_c, 0, 74, 0
2, 149352, Note_on_c, 0, 57, 73
2, 149353, Note_on_c, 0, 72, 98
2, 149385, Note_on_c, 0, 56, 0
2, 149397, Control_c, 0, 64, 63
2, 149401, Control_c, 0, 64, 127
2, 149482, Note_on_c, 0, 73, 105
2, 149487, Note_on_c, 0, 72, 0
2, 149505, Control_c, 0, 64, 63
2, 149507, Control_c, 0, 64, 0
2, 149567, Control_c, 0, 64, 63
2, 149569, Control_c, 0, 64, 127
2, 149608, Note_on_c, 0, 81, 86
2, 149617, Note_on_c, 0, 73, 0
2, 149690, Note_on_c, 0, 81, 0
2, 149718, Note_on_c, 0, 81, 91
2, 149790, Note_on_c, 0, 81, 0
2, 149814, Note_on_c, 0, 64, 0
2, 149827, Note_on_c, 0, 81, 101
2, 149875, Note_on_c, 0, 57, 0
2, 149896, Note_on_c, 0, 81, 0
2, 149929, Note_on_c, 0, 81, 104
2, 149934, Control_c, 0, 64, 63
2, 149938, Control_c, 0, 64, 0
2, 149966, Control_c, 0, 64, 63
2, 149973, Control_c, 0, 64, 127
2, 150014, Note_on_c, 0, 81, 0
2, 150042, Note_on_c, 0, 81, 90
2, 150113, Note_on_c, 0, 81, 0
2, 150156, Note_on_c, 0, 81, 114
2, 150229, Note_on_c, 0, 81, 0
2, 150298, Note_on_c, 0, 81, 93
2, 150299, Note_on_c, 0, 59, 87
2, 150310, Note_on_c, 0, 54, 74
2, 150313, Note_on_c, 0, 50, 65
2, 150410, Control_c, 0, 64, 63
2, 150417, Control_c, 0, 64, 0
2, 150433, Note_on_c, 0, 78, 96
2, 150453, Note_on_c, 0, 81, 0
2, 150499, Control_c, 0, 64, 63
2, 150505, Control_c, 0, 64, 127
2, 150555, Note_on_c, 0, 74, 102
2, 150581, Note_on_c, 0, 78, 0
2, 150642, Note_on_c, 0, 59, 0
2, 150650, Note_on_c, 0, 50, 0
2, 150661, Note_on_c, 0, 71, 97
2, 150666, Note_on_c, 0, 54, 0
2, 150696, Note_on_c, 0, 74, 0
2, 150796, Note_on_c, 0, 61, 88
2, 150799, Note_on_c, 0, 76, 92
2, 150800, Note_on_c, 0, 52, 64
2, 150802, Note_on_c, 0, 57, 70
2, 150822, Note_on_c, 0, 71, 0
2, 150826, Control_c, 0, 64, 63
2, 150834, Control_c, 0, 64, 0
2, 150908, Control_c, 0, 64, 63
2, 150913, Control_c, 0, 64, 127
2, 150953, Note_on_c, 0, 76, 0
2, 150960, Note_on_c, 0, 78, 81
2, 151002, Note_on_c, 0, 76, 75
2, 151006, Note_on_c, 0, 78, 0
2, 151034, Note_on_c, 0, 75, 93
2, 151039, Note_on_c, 0, 76, 0
2, 151067, Note_on_c, 0, 76, 95
2, 151075, Note_on_c, 0, 75, 0
2, 151096, Control_c, 0, 64, 63
2, 151111, Control_c, 0, 64, 0
2, 151214, Note_on_c, 0, 78, 88
2, 151229, Note_on_c, 0, 76, 0
2, 151408, Note_on_c, 0, 69, 68
2, 151413, Note_on_c, 0, 78, 0
2, 151740, Control_c, 0, 64, 63
2, 151746, Control_c, 0, 64, 127
2, 151805, Note_on_c, 0, 57, 0
2, 151813, Note_on_c, 0, 61, 0
2, 152035, Note_on_c, 0, 59, 56
2, 152037, Note_on_c, 0, 62, 55
2, 152075, Control_c, 0, 64, 63
2, 152091, Control_c, 0, 64, 0
2, 152136, Control_c, 0, 64, 63
2, 152151, Control_c, 0, 64, 127
2, 152279, Note_on_c, 0, 69, 0
2, 152358, Note_on_c, 0, 73, 80
2, 152362, Note_on_c, 0, 68, 60
2, 152464, Control_c, 0, 64, 63
2, 152508, Note_on_c, 0, 71, 82
2, 152510, Note_on_c, 0, 73, 0
2, 152517, Control_c, 0, 64, 127
2, 152591, Note_on_c, 0, 62, 0
2, 152634, Note_on_c, 0, 52, 0
2, 152636, Note_on_c, 0, 71, 0
2, 152649, Note_on_c, 0, 68, 0
2, 152699, Note_on_c, 0, 59, 0
2, 152709, Note_on_c, 0, 71, 76
2, 152711, Note_on_c, 0, 68, 43
2, 152712, Note_on_c, 0, 57, 32
2, 152719, Note_on_c, 0, 62, 30
2, 152723, Note_on_c, 0, 64, 42
2, 152814, Control_c, 0, 64, 63
2, 152837, Control_c, 0, 64, 0
2, 153016, Control_c, 0, 64, 63
2, 153025, Control_c, 0, 64, 127
2, 153210, Note_on_c, 0, 68, 0
2, 153309, Note_on_c, 0, 62, 0
2, 153362, Note_on_c, 0, 71, 0
2, 153388, Note_on_c, 0, 69, 52
2, 153392, Note_on_c, 0, 61, 41
2, 153435, Control_c, 0, 64, 63
2, 153455, Control_c, 0, 64, 0
2, 153476, Control_c, 0, 64, 63
2, 153500, Control_c, 0, 64, 127
2, 153564, Note_on_c, 0, 64, 0
2, 153589, Note_on_c, 0, 69, 0
2, 153598, Note_on_c, 0, 71, 69
2, 153632, Note_on_c, 0, 71, 0
2, 153636, Note_on_c, 0, 69, 59
2, 153674, Note_on_c, 0, 68, 82
2, 153692, Note_on_c, 0, 69, 0
2, 153736, Note_on_c, 0, 69, 68
2, 153738, Note_on_c, 0, 68, 0
2, 153778, Control_c, 0, 64, 63
2, 153792, Control_c, 0, 64, 0
2, 153866, Control_c, 0, 64, 63
2, 153870, Note_on_c, 0, 71, 94
2, 153879, Control_c, 0, 64, 127
2, 153884, Note_on_c, 0, 69, 0
2, 153989, Note_on_c, 0, 73, 100
2, 154011, Note_on_c, 0, 71, 0
2, 154103, Note_on_c, 0, 73, 0
2, 154123, Note_on_c, 0, 74, 82
2, 154159, Note_on_c, 0, 73, 95
2, 154165, Note_on_c, 0, 74, 0
2, 154179, Note_on_c, 0, 61, 0
2, 154185, Note_on_c, 0, 71, 86
2, 154191, Note_on_c, 0, 73, 0
2, 154193, Note_on_c, 0, 57, 0
2, 154215, Note_on_c, 0, 73, 104
2, 154237, Note_on_c, 0, 71, 0
2, 154249, Control_c, 0, 64, 63
2, 154293, Control_c, 0, 64, 0
2, 154341, Note_on_c, 0, 74, 97
2, 154355, Note_on_c, 0, 73, 0
2, 154487, Note_on_c, 0, 57, 62
2, 154502, Note_on_c, 0, 76, 99
2, 154511, Note_on_c, 0, 74, 0
2, 154625, Control_c, 0, 64, 63
2, 154635, Control_c, 0, 64, 127
2, 154662, Note_on_c, 0, 69, 54
2, 154769, Note_on_c, 0, 76, 0
2, 154789, Note_on_c, 0, 69, 0
2, 154793, Note_on_c, 0, 61, 90
2, 154851, Note_on_c, 0, 57, 0
2, 154910, Note_on_c, 0, 78, 90
2, 154911, Note_on_c, 0, 61, 0
2, 154921, Note_on_c, 0, 69, 46
2, 154956, Note_on_c, 0, 76, 96
2, 154981, Note_on_c, 0, 78, 0
2, 155021, Note_on_c, 0, 74, 94
2, 155026, Note_on_c, 0, 69, 0
2, 155027, Note_on_c, 0, 57, 67
2, 155036, Control_c, 0, 64, 63
2, 155040, Note_on_c, 0, 76, 0
2, 155043, Control_c, 0, 64, 0
2, 155076, Note_on_c, 0, 74, 0
2, 155099, Control_c, 0, 64, 63
2, 155108, Control_c, 0, 64, 127
2, 155150, Note_on_c, 0, 68, 61
2, 155229, Note_on_c, 0, 57, 0
2, 155263, Control_c, 0, 64, 63
2, 155271, Note_on_c, 0, 59, 59
2, 155275, Note_on_c, 0, 73, 89
2, 155275, Control_c, 0, 64, 0
2, 155286, Note_on_c, 0, 68, 0
2, 155315, Control_c, 0, 64, 63
2, 155319, Note_on_c, 0, 73, 0
2, 155328, Control_c, 0, 64, 127
2, 155392, Note_on_c, 0, 68, 68
2, 155403, Note_on_c, 0, 59, 0
2, 155500, Note_on_c, 0, 71, 89
2, 155511, Note_on_c, 0, 57, 47
2, 155550, Control_c, 0, 64, 63
2, 155559, Note_on_c, 0, 68, 0
2, 155559, Control_c, 0, 64, 0
2, 155583, Note_on_c, 0, 71, 0
2, 155619, Control_c, 0, 64, 63
2, 155628, Control_c, 0, 64, 127
2, 155632, Note_on_c, 0, 67, 59
2, 155736, Control_c, 0, 64, 63
2, 155742, Note_on_c, 0, 61, 78
2, 155745, Control_c, 0, 64, 0
2, 155749, Note_on_c, 0, 69, 70
2, 155768, Note_on_c, 0, 67, 0
2, 155784, Note_on_c, 0, 57, 0
2, 155800, Control_c, 0, 64, 63
2, 155801, Note_on_c, 0, 69, 0
2, 155812, Control_c, 0, 64, 127
2, 155866, Note_on_c, 0, 61, 0
2, 155870, Note_on_c, 0, 67, 55
2, 155973, Note_on_c, 0, 69, 95
2, 155973, Note_on_c, 0, 57, 67
2, 155977, Control_c, 0, 64, 63
2, 155983, Control_c, 0, 64, 0
2, 156027, Note_on_c, 0, 67, 0
2, 156079, Control_c, 0, 64, 63
2, 156081, Control_c, 0, 64, 127
2, 156113, Note_on_c, 0, 66, 68
2, 156235, Note_on_c, 0, 62, 86
2, 156240, Note_on_c, 0, 66, 0
2, 156274, Note_on_c, 0, 57, 0
2, 156297, Note_on_c, 0, 69, 0
2, 156345, Note_on_c, 0, 66, 77
2, 156351, Note_on_c, 0, 78, 108
2, 156354, Note_on_c, 0, 62, 0
2, 156452, Note_on_c, 0, 66, 0
2, 156459, Note_on_c, 0, 78, 0
2, 156480, Note_on_c, 0, 54, 85
2, 156492, Note_on_c, 0, 78, 86
2, 156553, Control_c, 0, 64, 63
2, 156558, Control_c, 0, 64, 0
2, 156589, Control_c, 0, 64, 63
2, 156597, Control_c, 0, 64, 127
2, 156612, Note_on_c, 0, 62, 81
2, 156698, Note_on_c, 0, 78, 0
2, 156714, Note_on_c, 0, 54, 0
2, 156725, Note_on_c, 0, 57, 68
2, 156747, Note_on_c, 0, 62, 0
2, 156832, Note_on_c, 0, 57, 0
2, 156841, Note_on_c, 0, 62, 93
2, 156910, Note_on_c, 0, 62, 0
2, 156975, Note_on_c, 0, 62, 114
2, 156979, Note_on_c, 0, 50, 72
2, 157087, Control_c, 0, 64, 63
2, 157091, Control_c, 0, 64, 0
2, 157113, Note_on_c, 0, 57, 76
2, 157146, Control_c, 0, 64, 63
2, 157152, Control_c, 0, 64, 127
2, 157239, Note_on_c, 0, 54, 89
2, 157269, Note_on_c, 0, 57, 0
2, 157286, Note_on_c, 0, 50, 0
2, 157355, Note_on_c, 0, 54, 0
2, 157357, Note_on_c, 0, 57, 74
2, 157484, Note_on_c, 0, 57, 0
2, 157499, Note_on_c, 0, 45, 89
2, 157512, Control_c, 0, 64, 63
2, 157516, Control_c, 0, 64, 0
2, 157572, Control_c, 0, 64, 63
2, 157577, Control_c, 0, 64, 127
2, 157604, Note_on_c, 0, 66, 82
2, 157624, Note_on_c, 0, 54, 70
2, 157629, Note_on_c, 0, 62, 0
2, 157684, Note_on_c, 0, 64, 70
2, 157689, Note_on_c, 0, 66, 0
2, 157756, Note_on_c, 0, 62, 87
2, 157760, Note_on_c, 0, 64, 0
2, 157798, Note_on_c, 0, 54, 0
2, 157811, Note_on_c, 0, 50, 51
2, 157813, Note_on_c, 0, 62, 0
2, 157814, Note_on_c, 0, 64, 81
2, 157875, Note_on_c, 0, 66, 92
2, 157881, Note_on_c, 0, 64, 0
2, 157920, Note_on_c, 0, 54, 78
2, 157925, Note_on_c, 0, 45, 0
2, 157934, Note_on_c, 0, 66, 0
2, 157944, Note_on_c, 0, 67, 82
2, 157988, Note_on_c, 0, 50, 0
2, 158001, Note_on_c, 0, 67, 0
2, 158002, Note_on_c, 0, 69, 92
2, 158029, Note_on_c, 0, 45, 70
2, 158038, Note_on_c, 0, 54, 0
2, 158057, Note_on_c, 0, 71, 95
2, 158067, Note_on_c, 0, 69, 0
2, 158114, Note_on_c, 0, 73, 101
2, 158123, Note_on_c, 0, 71, 0
2, 158137, Note_on_c, 0, 54, 77
2, 158156, Note_on_c, 0, 73, 0
2, 158165, Note_on_c, 0, 74, 85
2, 158220, Note_on_c, 0, 74, 0
2, 158221, Note_on_c, 0, 76, 90
2, 158272, Note_on_c, 0, 50, 69
2, 158273, Note_on_c, 0, 54, 0
2, 158276, Note_on_c, 0, 78, 98
2, 158283, Control_c, 0, 64, 63
2, 158288, Note_on_c, 0, 76, 0
2, 158294, Control_c, 0, 64, 0
2, 158341, Note_on_c, 0, 78, 0
2, 158350, Note_on_c, 0, 79, 82
2, 158354, Control_c, 0, 64, 63
2, 158361, Control_c, 0, 64, 127
2, 158409, Note_on_c, 0, 54, 70
2, 158424, Note_on_c, 0, 79, 0
2, 158431, Note_on_c, 0, 81, 79
2, 158452, Note_on_c, 0, 45, 0
2, 158467, Note_on_c, 0, 50, 0
2, 158532, Note_on_c, 0, 45, 55
2, 158534, Note_on_c, 0, 83, 70
2, 158535, Note_on_c, 0, 81, 0
2, 158551, Control_c, 0, 64, 63
2, 158556, Note_on_c, 0, 54, 0
2, 158568, Control_c, 0, 64, 0
2, 158618, Control_c, 0, 64, 63
2, 158628, Control_c, 0, 64, 127
2, 158686, Note_on_c, 0, 54, 45
2, 158687, Note_on_c, 0, 83, 0
2, 158697, Note_on_c, 0, 85, 95
2, 158864, Note_on_c, 0, 54, 0
2, 158875, Note_on_c, 0, 86, 90
2, 158888, Note_on_c, 0, 85, 0
2, 158892, Note_on_c, 0, 50, 32
2, 158907, Control_c, 0, 64, 63
2, 158918, Control_c, 0, 64, 0
2, 158981, Control_c, 0, 64, 63
2, 158989, Control_c, 0, 64, 127
2, 159057, Note_on_c, 0, 54, 44
2, 159086, Note_on_c, 0, 50, 0
2, 159094, Note_on_c, 0, 86, 0
2, 159119, Note_on_c, 0, 45, 0
2, 159142, Note_on_c, 0, 54, 0
2, 159157, Note_on_c, 0, 78, 60
2, 159268, Note_on_c, 0, 78, 0
2, 159287, Note_on_c, 0, 81, 75
2, 159292, Note_on_c, 0, 45, 40
2, 159296, Note_on_c, 0, 50, 43
2, 159361, Control_c, 0, 64, 63
2, 159380, Control_c, 0, 64, 0
2, 159463, Control_c, 0, 64, 63
2, 159473, Control_c, 0, 64, 127
2, 159791, Note_on_c, 0, 78, 75
2, 159827, Note_on_c, 0, 81, 0
2, 159969, Note_on_c, 0, 76, 66
2, 159974, Note_on_c, 0, 49, 47
2, 159982, Note_on_c, 0, 50, 0
2, 159986, Note_on_c, 0, 78, 0
2, 160005, Control_c, 0, 64, 63
2, 160023, Control_c, 0, 64, 0
2, 160152, Control_c, 0, 64, 63
2, 160160, Control_c, 0, 64, 127
2, 160198, Note_on_c, 0, 76, 0
2, 160272, Note_on_c, 0, 45, 0
2, 160287, Note_on_c, 0, 76, 46
2, 160311, Note_on_c, 0, 49, 0
2, 160389, Note_on_c, 0, 76, 0
2, 160558, Note_on_c, 0, 76, 51
2, 160588, Control_c, 0, 64, 63
2, 160602, Control_c, 0, 64, 0
2, 160732, Control_c, 0, 64, 63
2, 160738, Control_c, 0, 64, 127
2, 160782, Note_on_c, 0, 76, 0
2, 160877, Note_on_c, 0, 76, 53
2, 161040, Note_on_c, 0, 76, 0
2, 161292, Note_on_c, 0, 78, 71
2, 161308, Note_on_c, 0, 64, 35
2, 161309, Note_on_c, 0, 57, 25
2, 161310, Note_on_c, 0, 61, 59
2, 161434, Control_c, 0, 64, 63
2, 161457, Control_c, 0, 64, 0
2, 161465, Note_on_c, 0, 76, 69
2, 161492, Note_on_c, 0, 78, 0
2, 161522, Control_c, 0, 64, 63
2, 161536, Control_c, 0, 64, 127
2, 161595, Note_on_c, 0, 73, 66
2, 161615, Note_on_c, 0, 76, 0
2, 161693, Control_c, 0, 64, 63
2, 161726, Note_on_c, 0, 73, 0
2, 161727, Note_on_c, 0, 71, 57
2, 161799, Control_c, 0, 64, 127
2, 161866, Control_c, 0, 64, 63
2, 161879, Note_on_c, 0, 69, 49
2, 161886, Note_on_c, 0, 71, 0
2, 161930, Control_c, 0, 64, 0
2, 162023, Control_c, 0, 64, 63
2, 162074, Control_c, 0, 64, 127
2, 162103, Note_on_c, 0, 69, 0
2, 162193, Control_c, 0, 64, 63
2, 162206, Note_on_c, 0, 64, 0
2, 162214, Note_on_c, 0, 57, 0
2, 162215, Control_c, 0, 64, 0
2, 162217, Note_on_c, 0, 76, 43
2, 162228, Note_on_c, 0, 61, 0
2, 162255, Control_c, 0, 64, 63
2, 162272, Control_c, 0, 64, 127
2, 162410, Note_on_c, 0, 76, 0
2, 162492, Note_on_c, 0, 76, 83
2, 162680, Note_on_c, 0, 76, 0
2, 162762, Note_on_c, 0, 76, 93
2, 162893, Note_on_c, 0, 76, 0
2, 163059, Note_on_c, 0, 78, 96
2, 163066, Note_on_c, 0, 59, 65
2, 163067, Note_on_c, 0, 62, 66
2, 163068, Note_on_c, 0, 64, 53
2, 163118, Control_c, 0, 64, 63
2, 163133, Control_c, 0, 64, 0
2, 163201, Note_on_c, 0, 76, 93
2, 163225, Control_c, 0, 64, 63
2, 163230, Control_c, 0, 64, 127
2, 163237, Note_on_c, 0, 78, 0
2, 163343, Note_on_c, 0, 74, 80
2, 163356, Note_on_c, 0, 76, 0
2, 163438, Control_c, 0, 64, 63
2, 163453, Control_c, 0, 64, 0
2, 163477, Note_on_c, 0, 71, 68
2, 163499, Note_on_c, 0, 74, 0
2, 163650, Note_on_c, 0, 68, 78
2, 163688, Note_on_c, 0, 71, 0
2, 163807, Control_c, 0, 64, 63
2, 163810, Control_c, 0, 64, 127
2, 163854, Note_on_c, 0, 68, 0
2, 163947, Note_on_c, 0, 76, 76
2, 164080, Note_on_c, 0, 76, 0
2, 164151, Note_on_c, 0, 64, 0
2, 164164, Note_on_c, 0, 62, 0
2, 164176, Note_on_c, 0, 59, 0
2, 164230, Note_on_c, 0, 76, 105
2, 164412, Note_on_c, 0, 76, 0
2, 164494, Control_c, 0, 64, 63
2, 164507, Control_c, 0, 64, 0
2, 164508, Note_on_c, 0, 76, 114
2, 164536, Control_c, 0, 64, 63
2, 164545, Control_c, 0, 64, 127
2, 164647, Note_on_c, 0, 76, 0
2, 164835, Note_on_c, 0, 64, 94
2, 164838, Note_on_c, 0, 78, 99
2, 164839, Note_on_c, 0, 57, 76
2, 164841, Note_on_c, 0, 61, 88
2, 164938, Control_c, 0, 64, 63
2, 164947, Control_c, 0, 64, 0
2, 165000, Note_on_c, 0, 76, 101
2, 165022, Note_on_c, 0, 78, 0
2, 165061, Control_c, 0, 64, 63
2, 165064, Control_c, 0, 64, 127
2, 165131, Note_on_c, 0, 73, 106
2, 165166, Note_on_c, 0, 76, 0
2, 165227, Note_on_c, 0, 61, 0
2, 165249, Note_on_c, 0, 64, 0
2, 165251, Note_on_c, 0, 57, 0
2, 165251, Note_on_c, 0, 69, 98
2, 165280, Note_on_c, 0, 73, 0
2, 165373, Note_on_c, 0, 59, 88
2, 165375, Note_on_c, 0, 64, 89
2, 165377, Note_on_c, 0, 56, 92
2, 165381, Note_on_c, 0, 78, 105
2, 165392, Note_on_c, 0, 69, 0
2, 165431, Control_c, 0, 64, 63
2, 165439, Control_c, 0, 64, 0
2, 165507, Note_on_c, 0, 76, 102
2, 165508, Control_c, 0, 64, 63
2, 165518, Control_c, 0, 64, 127
2, 165538, Note_on_c, 0, 78, 0
2, 165623, Note_on_c, 0, 74, 102
2, 165671, Note_on_c, 0, 76, 0
2, 165698, Note_on_c, 0, 59, 0
2, 165720, Note_on_c, 0, 64, 0
2, 165746, Note_on_c, 0, 71, 108
2, 165769, Note_on_c, 0, 74, 0
2, 165792, Note_on_c, 0, 56, 0
2, 165875, Note_on_c, 0, 61, 91
2, 165877, Note_on_c, 0, 64, 84
2, 165882, Note_on_c, 0, 57, 72
2, 165884, Note_on_c, 0, 78, 104
2, 165917, Note_on_c, 0, 71, 0
2, 165918, Control_c, 0, 64, 63
2, 165927, Control_c, 0, 64, 0
2, 166016, Note_on_c, 0, 76, 93
2, 166049, Note_on_c, 0, 78, 0
2, 166052, Control_c, 0, 64, 63
2, 166061, Control_c, 0, 64, 127
2, 166153, Note_on_c, 0, 73, 103
2, 166168, Note_on_c, 0, 76, 0
2, 166194, Control_c, 0, 64, 63
2, 166202, Control_c, 0, 64, 0
2, 166242, Control_c, 0, 64, 63
2, 166251, Control_c, 0, 64, 127
2, 166283, Note_on_c, 0, 69, 96
2, 166312, Note_on_c, 0, 73, 0
2, 166320, Note_on_c, 0, 61, 0
2, 166339, Note_on_c, 0, 57, 0
2, 166345, Note_on_c, 0, 64, 0
2, 166477, Note_on_c, 0, 61, 74
2, 166488, Note_on_c, 0, 57, 55
2, 166493, Note_on_c, 0, 52, 63
2, 166494, Note_on_c, 0, 73, 108
2, 166523, Note_on_c, 0, 69, 0
2, 166608, Control_c, 0, 64, 63
2, 166625, Control_c, 0, 64, 0
2, 166761, Control_c, 0, 64, 63
2, 166768, Control_c, 0, 64, 127
2, 166903, Note_on_c, 0, 61, 0
2, 167050, Note_on_c, 0, 57, 0
2, 167064, Note_on_c, 0, 59, 40
2, 167064, Note_on_c, 0, 56, 68
2, 167077, Note_on_c, 0, 71, 74
2, 167095, Note_on_c, 0, 73, 0
2, 167105, Control_c, 0, 64, 63
2, 167118, Control_c, 0, 64, 0
2, 167179, Control_c, 0, 64, 63
2, 167189, Control_c, 0, 64, 127
2, 167219, Note_on_c, 0, 64, 77
2, 167221, Note_on_c, 0, 71, 0
2, 167416, Note_on_c, 0, 76, 61
2, 167443, Note_on_c, 0, 64, 0
2, 167528, Control_c, 0, 64, 63
2, 167539, Control_c, 0, 64, 0
2, 167565, Note_on_c, 0, 64, 69
2, 167596, Control_c, 0, 64, 63
2, 167607, Control_c, 0, 64, 127
2, 167648, Note_on_c, 0, 76, 0
2, 167696, Note_on_c, 0, 75, 88
2, 167735, Note_on_c, 0, 64, 0
2, 167775, Note_on_c, 0, 52, 0
2, 167824, Note_on_c, 0, 75, 0
2, 167826, Note_on_c, 0, 64, 76
2, 167859, Note_on_c, 0, 59, 0
2, 167877, Note_on_c, 0, 56, 0
2, 167962, Control_c, 0, 64, 63
2, 167963, Note_on_c, 0, 74, 81
2, 167976, Note_on_c, 0, 64, 0
2, 167989, Control_c, 0, 64, 0
2, 168087, Control_c, 0, 64, 63
2, 168111, Control_c, 0, 64, 127
2, 168112, Note_on_c, 0, 64, 43
2, 168152, Note_on_c, 0, 74, 0
2, 168313, Note_on_c, 0, 64, 0
2, 168321, Note_on_c, 0, 57, 24
2, 168328, Note_on_c, 0, 73, 73
2, 168367, Control_c, 0, 64, 63
2, 168394, Control_c, 0, 64, 0
2, 168470, Control_c, 0, 64, 63
2, 168484, Control_c, 0, 64, 127
2, 168513, Note_on_c, 0, 64, 32
2, 168662, Note_on_c, 0, 61, 41
2, 168666, Note_on_c, 0, 64, 0
2, 168671, Note_on_c, 0, 73, 0
2, 168791, Note_on_c, 0, 57, 0
2, 168805, Note_on_c, 0, 64, 31
2, 168863, Note_on_c, 0, 61, 0
2, 168946, Note_on_c, 0, 57, 20
2, 168948, Note_on_c, 0, 73, 76
2, 168963, Note_on_c, 0, 64, 0
2, 168998, Control_c, 0, 64, 63
2, 169018, Control_c, 0, 64, 0
2, 169078, Control_c, 0, 64, 63
2, 169089, Control_c, 0, 64, 127
2, 169097, Note_on_c, 0, 64, 32
2, 169219, Note_on_c, 0, 61, 56
2, 169225, Note_on_c, 0, 64, 0
2, 169290, Note_on_c, 0, 57, 0
2, 169342, Note_on_c, 0, 64, 43
2, 169353, Note_on_c, 0, 61, 0
2, 169462, Control_c, 0, 64, 63
2, 169465, Note_on_c, 0, 57, 55
2, 169506, Note_on_c, 0, 64, 0
2, 169507, Control_c, 0, 64, 127
2, 169551, Note_on_c, 0, 73, 0
2, 169593, Note_on_c, 0, 74, 73
2, 169613, Note_on_c, 0, 64, 39
2, 169628, Note_on_c, 0, 73, 81
2, 169637, Note_on_c, 0, 74, 0
2, 169657, Note_on_c, 0, 71, 78
2, 169662, Note_on_c, 0, 73, 0
2, 169670, Note_on_c, 0, 57, 0
2, 169699, Note_on_c, 0, 73, 93
2, 169709, Note_on_c, 0, 71, 0
2, 169715, Note_on_c, 0, 59, 70
2, 169733, Control_c, 0, 64, 63
2, 169743, Note_on_c, 0, 64, 0
2, 169754, Control_c, 0, 64, 0
2, 169805, Control_c, 0, 64, 63
2, 169815, Control_c, 0, 64, 127
2, 169837, Note_on_c, 0, 73, 0
2, 169838, Note_on_c, 0, 74, 88
2, 169849, Note_on_c, 0, 64, 70
2, 169984, Note_on_c, 0, 59, 0
2, 170010, Control_c, 0, 64, 63
2, 170020, Note_on_c, 0, 74, 0
2, 170020, Note_on_c, 0, 78, 75
2, 170027, Note_on_c, 0, 61, 59
2, 170028, Control_c, 0, 64, 0
2, 170065, Note_on_c, 0, 64, 0
2, 170111, Control_c, 0, 64, 63
2, 170119, Control_c, 0, 64, 127
2, 170189, Note_on_c, 0, 64, 44
2, 170276, Note_on_c, 0, 61, 0
2, 170284, Control_c, 0, 64, 63
2, 170290, Note_on_c, 0, 78, 0
2, 170295, Control_c, 0, 64, 0
2, 170307, Note_on_c, 0, 57, 39
2, 170311, Note_on_c, 0, 76, 55
2, 170320, Note_on_c, 0, 64, 0
2, 170369, Control_c, 0, 64, 63
2, 170375, Control_c, 0, 64, 127
2, 170434, Note_on_c, 0, 64, 27
2, 170442, Note_on_c, 0, 76, 0
2, 170477, Note_on_c, 0, 57, 0
2, 170580, Note_on_c, 0, 61, 49
2, 170584, Note_on_c, 0, 64, 0
2, 170591, Note_on_c, 0, 87, 71
2, 170717, Control_c, 0, 64, 63
2, 170727, Note_on_c, 0, 64, 36
2, 170730, Control_c, 0, 64, 127
2, 170834, Control_c, 0, 64, 63
2, 170843, Note_on_c, 0, 61, 0
2, 170853, Note_on_c, 0, 87, 0
2, 170860, Control_c, 0, 64, 127
2, 170872, Note_on_c, 0, 57, 50
2, 170889, Note_on_c, 0, 88, 50
2, 170910, Note_on_c, 0, 64, 0
2, 170966, Note_on_c, 0, 88, 0
2, 171026, Note_on_c, 0, 57, 0
2, 171028, Note_on_c, 0, 64, 36
2, 171114, Note_on_c, 0, 76, 46
2, 171165, Note_on_c, 0, 78, 82
2, 171169, Note_on_c, 0, 76, 0
2, 171184, Note_on_c, 0, 61, 49
2, 171193, Note_on_c, 0, 64, 0
2, 171307, Note_on_c, 0, 76, 93
2, 171312, Note_on_c, 0, 64, 30
2, 171321, Note_on_c, 0, 61, 0
2, 171331, Note_on_c, 0, 78, 0
2, 171431, Note_on_c, 0, 57, 54
2, 171433, Note_on_c, 0, 74, 93
2, 171448, Note_on_c, 0, 76, 0
2, 171455, Note_on_c, 0, 64, 0
2, 171553, Note_on_c, 0, 73, 99
2, 171555, Note_on_c, 0, 57, 0
2, 171575, Note_on_c, 0, 64, 30
2, 171583, Note_on_c, 0, 74, 0
2, 171648, Note_on_c, 0, 73, 0
2, 171686, Note_on_c, 0, 56, 70
2, 171688, Note_on_c, 0, 73, 88
2, 171708, Note_on_c, 0, 64, 0
2, 171715, Control_c, 0, 64, 63
2, 171732, Control_c, 0, 64, 0
2, 171796, Control_c, 0, 64, 63
2, 171805, Control_c, 0, 64, 127
2, 171809, Note_on_c, 0, 64, 54
2, 171934, Note_on_c, 0, 71, 89
2, 171943, Note_on_c, 0, 63, 63
2, 171948, Note_on_c, 0, 64, 0
2, 171978, Control_c, 0, 64, 63
2, 171981, Note_on_c, 0, 73, 0
2, 172012, Control_c, 0, 64, 127
2, 172065, Note_on_c, 0, 56, 0
2, 172072, Note_on_c, 0, 64, 40
2, 172199, Note_on_c, 0, 56, 80
2, 172208, Control_c, 0, 64, 63
2, 172221, Note_on_c, 0, 63, 0
2, 172223, Note_on_c, 0, 64, 0
2, 172226, Control_c, 0, 64, 0
2, 172270, Control_c, 0, 64, 63
2, 172282, Control_c, 0, 64, 127
2, 172320, Note_on_c, 0, 64, 66
2, 172406, Note_on_c, 0, 71, 0
2, 172445, Note_on_c, 0, 71, 102
2, 172448, Note_on_c, 0, 63, 72
2, 172479, Note_on_c, 0, 64, 0
2, 172553, Note_on_c, 0, 56, 0
2, 172562, Note_on_c, 0, 64, 74
2, 172613, Note_on_c, 0, 63, 0
2, 172635, Control_c, 0, 64, 63
2, 172653, Control_c, 0, 64, 0
2, 172684, Control_c, 0, 64, 63
2, 172684, Note_on_c, 0, 56, 95
2, 172696, Control_c, 0, 64, 127
2, 172716, Note_on_c, 0, 64, 0
2, 172795, Note_on_c, 0, 73, 79
2, 172799, Note_on_c, 0, 71, 0
2, 172810, Note_on_c, 0, 64, 59
2, 172822, Note_on_c, 0, 71, 62
2, 172835, Note_on_c, 0, 73, 0
2, 172865, Note_on_c, 0, 70, 96
2, 172883, Note_on_c, 0, 56, 0
2, 172885, Note_on_c, 0, 71, 0
2, 172906, Note_on_c, 0, 71, 103
2, 172917, Note_on_c, 0, 70, 0
2, 172920, Note_on_c, 0, 57, 54
2, 172929, Control_c, 0, 64, 63
2, 172943, Note_on_c, 0, 64, 0
2, 172944, Control_c, 0, 64, 0
2, 172992, Control_c, 0, 64, 63
2, 173002, Control_c, 0, 64, 127
2, 173042, Note_on_c, 0, 73, 111
2, 173049, Note_on_c, 0, 64, 54
2, 173073, Note_on_c, 0, 71, 0
2, 173181, Note_on_c, 0, 57, 0
2, 173181, Note_on_c, 0, 59, 62
2, 173188, Note_on_c, 0, 76, 93
2, 173207, Control_c, 0, 64, 63
2, 173215, Note_on_c, 0, 64, 0
2, 173216, Control_c, 0, 64, 0
2, 173237, Note_on_c, 0, 73, 0
2, 173285, Control_c, 0, 64, 63
2, 173290, Control_c, 0, 64, 127
2, 173316, Note_on_c, 0, 64, 73
2, 173414, Control_c, 0, 64, 63
2, 173424, Control_c, 0, 64, 0
2, 173465, Note_on_c, 0, 63, 51
2, 173466, Note_on_c, 0, 74, 68
2, 173490, Note_on_c, 0, 64, 0
2, 173490, Note_on_c, 0, 76, 0
2, 173522, Control_c, 0, 64, 63
2, 173526, Control_c, 0, 64, 127
2, 173600, Note_on_c, 0, 64, 32
2, 173603, Note_on_c, 0, 59, 0
2, 173605, Note_on_c, 0, 74, 0
2, 173612, Note_on_c, 0, 63, 0
2, 173772, Note_on_c, 0, 56, 41
2, 173777, Note_on_c, 0, 85, 68
2, 173809, Note_on_c, 0, 64, 0
2, 173826, Control_c, 0, 64, 63
2, 173845, Control_c, 0, 64, 0
2, 173889, Control_c, 0, 64, 63
2, 173899, Control_c, 0, 64, 127
2, 173918, Note_on_c, 0, 64, 31
2, 174031, Note_on_c, 0, 56, 0
2, 174058, Note_on_c, 0, 59, 36
2, 174061, Note_on_c, 0, 86, 70
2, 174069, Note_on_c, 0, 85, 0
2, 174088, Note_on_c, 0, 64, 0
2, 174113, Note_on_c, 0, 86, 0
2, 174195, Note_on_c, 0, 59, 0
2, 174214, Note_on_c, 0, 64, 22
2, 174276, Note_on_c, 0, 74, 70
2, 174355, Note_on_c, 0, 64, 0
2, 174362, Note_on_c, 0, 52, 23
2, 174364, Note_on_c, 0, 76, 57
2, 174367, Note_on_c, 0, 74, 0
2, 174371, Control_c, 0, 64, 63
2, 174388, Control_c, 0, 64, 0
2, 174441, Control_c, 0, 64, 63
2, 174451, Control_c, 0, 64, 127
2, 174508, Note_on_c, 0, 74, 79
2, 174509, Note_on_c, 0, 64, 34
2, 174525, Note_on_c, 0, 76, 0
2, 174634, Note_on_c, 0, 73, 96
2, 174646, Note_on_c, 0, 56, 53
2, 174655, Control_c, 0, 64, 63
2, 174660, Note_on_c, 0, 64, 0
2, 174679, Control_c, 0, 64, 0
2, 174684, Note_on_c, 0, 74, 0
2, 174701, Control_c, 0, 64, 63
2, 174720, Control_c, 0, 64, 127
2, 174747, Note_on_c, 0, 52, 0
2, 174754, Note_on_c, 0, 71, 96
2, 174767, Note_on_c, 0, 64, 54
2, 174785, Note_on_c, 0, 56, 0
2, 174796, Note_on_c, 0, 73, 0
2, 174854, Note_on_c, 0, 71, 0
2, 174880, Note_on_c, 0, 54, 74
2, 174883, Note_on_c, 0, 71, 84
2, 174904, Note_on_c, 0, 64, 0
2, 174928, Control_c, 0, 64, 63
2, 174945, Control_c, 0, 64, 0
2, 174979, Control_c, 0, 64, 63
2, 174995, Control_c, 0, 64, 127
2, 174997, Note_on_c, 0, 64, 64
2, 175120, Note_on_c, 0, 63, 80
2, 175124, Note_on_c, 0, 69, 84
2, 175141, Control_c, 0, 64, 63
2, 175143, Note_on_c, 0, 64, 0
2, 175152, Note_on_c, 0, 71, 0
2, 175155, Control_c, 0, 64, 0
2, 175184, Note_on_c, 0, 54, 0
2, 175203, Control_c, 0, 64, 63
2, 175215, Control_c, 0, 64, 127
2, 175251, Note_on_c, 0, 64, 40
2, 175275, Note_on_c, 0, 63, 0
2, 175365, Note_on_c, 0, 54, 86
2, 175370, Control_c, 0, 64, 63
2, 175389, Note_on_c, 0, 64, 0
2, 175394, Control_c, 0, 64, 0
2, 175414, Control_c, 0, 64, 63
2, 175431, Control_c, 0, 64, 127
2, 175457, Note_on_c, 0, 69, 0
2, 175483, Note_on_c, 0, 64, 60
2, 175487, Note_on_c, 0, 69, 99
2, 175573, Control_c, 0, 64, 63
2, 175590, Control_c, 0, 64, 0
2, 175611, Note_on_c, 0, 63, 83
2, 175613, Note_on_c, 0, 74, 104
2, 175627, Note_on_c, 0, 54, 0
2, 175635, Note_on_c, 0, 64, 0
2, 175637, Control_c, 0, 64, 63
2, 175640, Note_on_c, 0, 69, 0
2, 175649, Control_c, 0, 64, 127
2, 175729, Note_on_c, 0, 73, 113
2, 175732, Note_on_c, 0, 64, 64
2, 175759, Note_on_c, 0, 74, 0
2, 175781, Control_c, 0, 64, 63
2, 175785, Note_on_c, 0, 63, 0
2, 175803, Control_c, 0, 64, 0
2, 175840, Control_c, 0, 64, 63
2, 175843, Note_on_c, 0, 56, 85
2, 175845, Note_on_c, 0, 70, 108
2, 175854, Control_c, 0, 64, 127
2, 175874, Note_on_c, 0, 73, 0
2, 175880, Note_on_c, 0, 64, 0
2, 175953, Note_on_c, 0, 64, 71
2, 175955, Control_c, 0, 64, 63
2, 175963, Note_on_c, 0, 71, 104
2, 175969, Control_c, 0, 64, 0
2, 175988, Note_on_c, 0, 70, 0
2, 176076, Note_on_c, 0, 63, 81
2, 176082, Note_on_c, 0, 76, 97
2, 176104, Note_on_c, 0, 64, 0
2, 176114, Note_on_c, 0, 71, 0
2, 176194, Note_on_c, 0, 74, 106
2, 176196, Note_on_c, 0, 64, 73
2, 176209, Note_on_c, 0, 56, 0
2, 176211, Note_on_c, 0, 76, 0
2, 176219, Note_on_c, 0, 63, 0
2, 176346, Note_on_c, 0, 74, 0
2, 176347, Note_on_c, 0, 72, 102
2, 176351, Note_on_c, 0, 57, 68
2, 176395, Note_on_c, 0, 64, 0
2, 176475, Note_on_c, 0, 73, 112
2, 176488, Control_c, 0, 64, 63
2, 176489, Control_c, 0, 64, 127
2, 176500, Note_on_c, 0, 72, 0
2, 176601, Note_on_c, 0, 81, 101
2, 176602, Note_on_c, 0, 73, 0
2, 176687, Note_on_c, 0, 81, 0
2, 176715, Note_on_c, 0, 81, 107
2, 176765, Note_on_c, 0, 57, 0
2, 176795, Note_on_c, 0, 81, 0
2, 176831, Note_on_c, 0, 81, 112
2, 176909, Control_c, 0, 64, 63
2, 176912, Control_c, 0, 64, 0
2, 176914, Note_on_c, 0, 81, 0
2, 176944, Note_on_c, 0, 81, 105
2, 176987, Control_c, 0, 64, 63
2, 176988, Control_c, 0, 64, 127
2, 177036, Note_on_c, 0, 81, 0
2, 177064, Note_on_c, 0, 81, 101
2, 177155, Note_on_c, 0, 81, 0
2, 177189, Note_on_c, 0, 81, 109
2, 177246, Note_on_c, 0, 81, 0
2, 177344, Note_on_c, 0, 81, 102
2, 177346, Note_on_c, 0, 59, 93
2, 177356, Note_on_c, 0, 54, 79
2, 177360, Note_on_c, 0, 50, 75
2, 177411, Control_c, 0, 64, 63
2, 177413, Control_c, 0, 64, 0
2, 177485, Control_c, 0, 64, 63
2, 177488, Control_c, 0, 64, 127
2, 177498, Note_on_c, 0, 78, 96
2, 177513, Note_on_c, 0, 81, 0
2, 177612, Note_on_c, 0, 74, 98
2, 177637, Note_on_c, 0, 78, 0
2, 177688, Note_on_c, 0, 59, 0
2, 177710, Note_on_c, 0, 50, 0
2, 177722, Note_on_c, 0, 71, 101
2, 177730, Note_on_c, 0, 54, 0
2, 177741, Note_on_c, 0, 74, 0
2, 177854, Note_on_c, 0, 61, 87
2, 177857, Note_on_c, 0, 76, 99
2, 177859, Note_on_c, 0, 57, 64
2, 177865, Note_on_c, 0, 71, 0
2, 177866, Note_on_c, 0, 52, 64
2, 177891, Control_c, 0, 64, 63
2, 177894, Control_c, 0, 64, 0
2, 177950, Control_c, 0, 64, 63
2, 177956, Control_c, 0, 64, 127
2, 177985, Note_on_c, 0, 76, 0
2, 177991, Note_on_c, 0, 78, 86
2, 178030, Note_on_c, 0, 76, 76
2, 178035, Note_on_c, 0, 78, 0
2, 178056, Note_on_c, 0, 75, 94
2, 178065, Note_on_c, 0, 76, 0
2, 178089, Note_on_c, 0, 76, 93
2, 178100, Note_on_c, 0, 75, 0
2, 178146, Control_c, 0, 64, 63
2, 178154, Control_c, 0, 64, 0
2, 178234, Note_on_c, 0, 78, 94
2, 178254, Note_on_c, 0, 76, 0
2, 178422, Note_on_c, 0, 69, 84
2, 178428, Note_on_c, 0, 78, 0
2, 178734, Control_c, 0, 64, 63
2, 178736, Control_c, 0, 64, 127
2, 178812, Note_on_c, 0, 57, 0
2, 178845, Note_on_c, 0, 61, 0
2, 179030, Note_on_c, 0, 62, 52
2, 179032, Note_on_c, 0, 59, 55
2, 179063, Control_c, 0, 64, 63
2, 179073, Control_c, 0, 64, 0
2, 179130, Control_c, 0, 64, 63
2, 179141, Control_c, 0, 64, 127
2, 179291, Note_on_c, 0, 69, 0
2, 179348, Note_on_c, 0, 68, 64
2, 179350, Note_on_c, 0, 71, 81
2, 179425, Control_c, 0, 64, 63
2, 179435, Control_c, 0, 64, 0
2, 179479, Control_c, 0, 64, 63
2, 179489, Control_c, 0, 64, 127
2, 179547, Note_on_c, 0, 52, 0
2, 179566, Note_on_c, 0, 62, 0
2, 179577, Note_on_c, 0, 68, 0
2, 179580, Note_on_c, 0, 59, 0
2, 179583, Note_on_c, 0, 71, 0
2, 179722, Note_on_c, 0, 71, 81
2, 179725, Note_on_c, 0, 57, 34
2, 179726, Note_on_c, 0, 68, 67
2, 179728, Note_on_c, 0, 64, 54
2, 179733, Note_on_c, 0, 62, 44
2, 179821, Control_c, 0, 64, 63
2, 179836, Control_c, 0, 64, 0
2, 180405, Control_c, 0, 64, 63
2, 180411, Control_c, 0, 64, 127
2, 180790, Note_on_c, 0, 72, 52
2, 180807, Note_on_c, 0, 71, 0
2, 180812, Control_c, 0, 64, 63
2, 180866, Control_c, 0, 64, 127
2, 180954, Note_on_c, 0, 68, 0
2, 180978, Note_on_c, 0, 72, 0
2, 181037, Note_on_c, 0, 62, 0
2, 181201, Note_on_c, 0, 73, 56
2, 181211, Note_on_c, 0, 61, 42
2, 181216, Note_on_c, 0, 69, 39
2, 181273, Control_c, 0, 64, 63
2, 181288, Control_c, 0, 64, 0
2, 181334, Control_c, 0, 64, 63
2, 181349, Control_c, 0, 64, 127
2, 181620, Note_on_c, 0, 64, 0
2, 181657, Note_on_c, 0, 61, 0
2, 181693, Note_on_c, 0, 57, 0
2, 181693, Note_on_c, 0, 69, 0
2, 181761, Note_on_c, 0, 73, 0
2, 181928, Note_on_c, 0, 64, 87
2, 181947, Control_c, 0, 64, 63
2, 181960, Control_c, 0, 64, 0
2, 181974, Note_on_c, 0, 69, 82
2, 182046, Note_on_c, 0, 45, 56
2, 182058, Note_on_c, 0, 73, 110
2, 182244, Note_on_c, 0, 49, 75
2, 182302, Control_c, 0, 64, 63
2, 182304, Control_c, 0, 64, 127
2, 182331, Note_on_c, 0, 64, 0
2, 182373, Note_on_c, 0, 52, 80
2, 182415, Note_on_c, 0, 69, 0
2, 182486, Note_on_c, 0, 57, 87
2, 182508, Note_on_c, 0, 45, 0
2, 182529, Note_on_c, 0, 49, 0
2, 182544, Note_on_c, 0, 73, 0
2, 182561, Note_on_c, 0, 52, 0
2, 182602, Note_on_c, 0, 45, 91
2, 182652, Note_on_c, 0, 57, 0
2, 182707, Note_on_c, 0, 76, 101
2, 182748, Note_on_c, 0, 49, 70
2, 182767, Control_c, 0, 64, 63
2, 182788, Note_on_c, 0, 74, 101
2, 182813, Control_c, 0, 64, 127
2, 182815, Note_on_c, 0, 76, 0
2, 182871, Note_on_c, 0, 73, 103
2, 182877, Note_on_c, 0, 52, 78
2, 182902, Note_on_c, 0, 74, 0
2, 182949, Note_on_c, 0, 45, 0
2, 182953, Note_on_c, 0, 74, 97
2, 182960, Note_on_c, 0, 73, 0
2, 182973, Note_on_c, 0, 57, 68
2, 182983, Note_on_c, 0, 49, 0
2, 183010, Note_on_c, 0, 52, 0
2, 183033, Note_on_c, 0, 76, 101
2, 183054, Note_on_c, 0, 74, 0
2, 183062, Control_c, 0, 64, 63
2, 183073, Control_c, 0, 64, 0
2, 183100, Note_on_c, 0, 47, 87
2, 183104, Note_on_c, 0, 74, 98
2, 183119, Control_c, 0, 64, 63
2, 183121, Note_on_c, 0, 76, 0
2, 183127, Control_c, 0, 64, 127
2, 183143, Note_on_c, 0, 57, 0
2, 183181, Note_on_c, 0, 78, 99
2, 183188, Note_on_c, 0, 74, 0
2, 183217, Note_on_c, 0, 50, 86
2, 183230, Note_on_c, 0, 47, 0
2, 183260, Note_on_c, 0, 76, 103
2, 183264, Note_on_c, 0, 78, 0
2, 183297, Control_c, 0, 64, 63
2, 183322, Note_on_c, 0, 74, 98
2, 183325, Control_c, 0, 64, 0
2, 183326, Note_on_c, 0, 56, 101
2, 183336, Control_c, 0, 64, 63
2, 183344, Note_on_c, 0, 76, 0
2, 183358, Control_c, 0, 64, 127
2, 183401, Note_on_c, 0, 76, 102
2, 183415, Note_on_c, 0, 50, 0
2, 183427, Note_on_c, 0, 74, 0
2, 183438, Note_on_c, 0, 59, 73
2, 183454, Note_on_c, 0, 56, 0
2, 183475, Note_on_c, 0, 78, 108
2, 183487, Note_on_c, 0, 76, 0
2, 183504, Note_on_c, 0, 59, 0
2, 183545, Note_on_c, 0, 78, 0
2, 183555, Note_on_c, 0, 76, 107
2, 183557, Note_on_c, 0, 57, 72
2, 183562, Control_c, 0, 64, 63
2, 183562, Note_on_c, 0, 49, 80
2, 183571, Control_c, 0, 64, 0
2, 183629, Control_c, 0, 64, 63
2, 183637, Control_c, 0, 64, 127
2, 183645, Note_on_c, 0, 69, 83
2, 183650, Note_on_c, 0, 76, 0
2, 183701, Note_on_c, 0, 69, 0
2, 183711, Note_on_c, 0, 71, 89
2, 183754, Note_on_c, 0, 73, 94
2, 183761, Note_on_c, 0, 71, 0
2, 183805, Note_on_c, 0, 73, 0
2, 183810, Control_c, 0, 64, 63
2, 183811, Note_on_c, 0, 74, 85
2, 183822, Control_c, 0, 64, 0
2, 183866, Note_on_c, 0, 76, 93
2, 183867, Note_on_c, 0, 74, 0
2, 183919, Note_on_c, 0, 78, 110
2, 183932, Note_on_c, 0, 76, 0
2, 183936, Control_c, 0, 64, 63
2, 183943, Control_c, 0, 64, 127
2, 183975, Note_on_c, 0, 80, 100
2, 183980, Note_on_c, 0, 78, 0
2, 184023, Note_on_c, 0, 80, 0
2, 184030, Note_on_c, 0, 81, 85
2, 184075, Control_c, 0, 64, 63
2, 184079, Note_on_c, 0, 83, 87
2, 184080, Note_on_c, 0, 81, 0
2, 184081, Control_c, 0, 64, 0
2, 184132, Note_on_c, 0, 85, 99
2, 184143, Note_on_c, 0, 83, 0
2, 184193, Note_on_c, 0, 83, 88
2, 184194, Note_on_c, 0, 85, 0
2, 184236, Note_on_c, 0, 83, 0
2, 184241, Note_on_c, 0, 81, 84
2, 184291, Note_on_c, 0, 80, 103
2, 184292, Note_on_c, 0, 81, 0
2, 184338, Note_on_c, 0, 78, 103
2, 184351, Note_on_c, 0, 80, 0
2, 184356, Note_on_c, 0, 57, 0
2, 184375, Note_on_c, 0, 49, 0
2, 184384, Note_on_c, 0, 77, 92
2, 184389, Note_on_c, 0, 78, 0
2, 184422, Note_on_c, 0, 57, 83
2, 184430, Note_on_c, 0, 50, 72
2, 184440, Note_on_c, 0, 77, 0
2, 184440, Note_on_c, 0, 78, 104
2, 184491, Note_on_c, 0, 80, 104
2, 184505, Note_on_c, 0, 78, 0
2, 184543, Note_on_c, 0, 81, 94
2, 184549, Note_on_c, 0, 80, 0
2, 184593, Note_on_c, 0, 80, 97
2, 184607, Note_on_c, 0, 81, 0
2, 184643, Note_on_c, 0, 83, 88
2, 184651, Note_on_c, 0, 80, 0
2, 184699, Note_on_c, 0, 81, 92
2, 184717, Note_on_c, 0, 83, 0
2, 184752, Note_on_c, 0, 80, 98
2, 184758, Note_on_c, 0, 57, 0
2, 184765, Note_on_c, 0, 81, 0
2, 184803, Note_on_c, 0, 78, 103
2, 184829, Note_on_c, 0, 80, 0
2, 184831, Note_on_c, 0, 50, 0
2, 184893, Note_on_c, 0, 76, 102
2, 184897, Note_on_c, 0, 78, 0
2, 184898, Note_on_c, 0, 61, 79
2, 184911, Note_on_c, 0, 52, 69
2, 185059, Note_on_c, 0, 88, 82
2, 185114, Control_c, 0, 64, 63
2, 185115, Note_on_c, 0, 76, 0
2, 185131, Control_c, 0, 64, 127
2, 185191, Note_on_c, 0, 85, 104
2, 185217, Note_on_c, 0, 88, 0
2, 185310, Note_on_c, 0, 81, 104
2, 185325, Note_on_c, 0, 61, 0
2, 185328, Note_on_c, 0, 85, 0
2, 185331, Note_on_c, 0, 52, 0
2, 185423, Note_on_c, 0, 81, 0
2, 185443, Note_on_c, 0, 61, 88
2, 185446, Note_on_c, 0, 76, 82
2, 185448, Note_on_c, 0, 52, 75
2, 185464, Control_c, 0, 64, 63
2, 185478, Control_c, 0, 64, 0
2, 185535, Control_c, 0, 64, 63
2, 185547, Control_c, 0, 64, 127
2, 185599, Note_on_c, 0, 81, 90
2, 185607, Note_on_c, 0, 76, 0
2, 185740, Note_on_c, 0, 76, 86
2, 185751, Control_c, 0, 64, 63
2, 185755, Note_on_c, 0, 81, 0
2, 185767, Control_c, 0, 64, 0
2, 185814, Control_c, 0, 64, 63
2, 185827, Control_c, 0, 64, 127
2, 185876, Note_on_c, 0, 73, 96
2, 185883, Note_on_c, 0, 52, 0
2, 185887, Note_on_c, 0, 76, 0
2, 185917, Note_on_c, 0, 61, 0
2, 186031, Note_on_c, 0, 76, 75
2, 186035, Note_on_c, 0, 73, 0
2, 186039, Note_on_c, 0, 62, 51
2, 186039, Note_on_c, 0, 56, 62
2, 186042, Note_on_c, 0, 52, 43
2, 186050, Control_c, 0, 64, 63
2, 186069, Control_c, 0, 64, 0
2, 186212, Note_on_c, 0, 74, 76
2, 186219, Note_on_c, 0, 76, 0
2, 186385, Note_on_c, 0, 73, 76
2, 186394, Control_c, 0, 64, 63
2, 186409, Control_c, 0, 64, 127
2, 186412, Note_on_c, 0, 74, 0
2, 186461, Control_c, 0, 64, 63
2, 186472, Control_c, 0, 64, 0
2, 186566, Control_c, 0, 64, 63
2, 186583, Note_on_c, 0, 71, 67
2, 186585, Control_c, 0, 64, 127
2, 186624, Note_on_c, 0, 73, 0
2, 186666, Note_on_c, 0, 52, 0
2, 186676, Note_on_c, 0, 62, 0
2, 186713, Note_on_c, 0, 71, 0
2, 186716, Note_on_c, 0, 56, 0
2, 186859, Note_on_c, 0, 68, 62
2, 186862, Note_on_c, 0, 71, 71
2, 186867, Note_on_c, 0, 62, 37
2, 186868, Note_on_c, 0, 64, 44
2, 186868, Note_on_c, 0, 57, 40
2, 186937, Control_c, 0, 64, 63
2, 186972, Control_c, 0, 64, 0
2, 187391, Control_c, 0, 64, 63
2, 187447, Control_c, 0, 64, 127
2, 187463, Control_c, 0, 64, 63
2, 187526, Control_c, 0, 64, 0
2, 187726, Control_c, 0, 64, 63
2, 187741, Control_c, 0, 64, 127
2, 187944, Control_c, 0, 64, 63
2, 187968, Control_c, 0, 64, 0
2, 188005, Control_c, 0, 64, 63
2, 188027, Control_c, 0, 64, 127
2, 188349, Note_on_c, 0, 62, 0
2, 188407, Note_on_c, 0, 68, 0
2, 188518, Note_on_c, 0, 69, 40
2, 188522, Note_on_c, 0, 61, 25
2, 188535, Note_on_c, 0, 71, 0
2, 188614, Control_c, 0, 64, 63
2, 188693, Control_c, 0, 64, 0
2, 188827, Control_c, 0, 64, 63
2, 189746, Note_on_c, 0, 61, 0
2, 189751, Note_on_c, 0, 64, 0
2, 189768, Note_on_c, 0, 69, 0
2, 189815, Note_on_c, 0, 57, 0
2, 190114, Control_c, 0, 64, 0
2, 190367, Note_on_c, 0, 73, 99
2, 190367, Note_on_c, 0, 57, 69
2, 190388, Note_on_c, 0, 73, 0
2, 190483, Note_on_c, 0, 74, 90
2, 190486, Note_on_c, 0, 57, 0
2, 190499, Note_on_c, 0, 64, 57
2, 190507, Note_on_c, 0, 73, 74
2, 190512, Note_on_c, 0, 74, 0
2, 190529, Note_on_c, 0, 71, 85
2, 190530, Note_on_c, 0, 73, 0
2, 190562, Note_on_c, 0, 73, 99
2, 190563, Note_on_c, 0, 59, 62
2, 190571, Note_on_c, 0, 64, 0
2, 190572, Note_on_c, 0, 71, 0
2, 190593, Note_on_c, 0, 73, 0
2, 190669, Note_on_c, 0, 74, 93
2, 190673, Note_on_c, 0, 59, 0
2, 190681, Note_on_c, 0, 64, 45
2, 190699, Note_on_c, 0, 74, 0
2, 190776, Note_on_c, 0, 78, 110
2, 190780, Note_on_c, 0, 61, 78
2, 190787, Note_on_c, 0, 64, 0
2, 190869, Note_on_c, 0, 78, 0
2, 190876, Note_on_c, 0, 76, 99
2, 190881, Note_on_c, 0, 61, 0
2, 190899, Note_on_c, 0, 64, 24
2, 190914, Note_on_c, 0, 76, 0
2, 190979, Note_on_c, 0, 74, 93
2, 190985, Note_on_c, 0, 57, 65
2, 190987, Note_on_c, 0, 64, 0
2, 191011, Note_on_c, 0, 74, 0
2, 191055, Note_on_c, 0, 57, 0
2, 191079, Note_on_c, 0, 73, 98
2, 191091, Note_on_c, 0, 64, 49
2, 191101, Note_on_c, 0, 73, 0
2, 191180, Note_on_c, 0, 56, 68
2, 191180, Note_on_c, 0, 71, 89
2, 191190, Note_on_c, 0, 64, 0
2, 191206, Note_on_c, 0, 71, 0
2, 191265, Note_on_c, 0, 56, 0
2, 191284, Note_on_c, 0, 73, 93
2, 191295, Note_on_c, 0, 64, 46
2, 191307, Note_on_c, 0, 71, 89
2, 191313, Note_on_c, 0, 73, 0
2, 191345, Note_on_c, 0, 70, 98
2, 191348, Note_on_c, 0, 71, 0
2, 191366, Note_on_c, 0, 71, 101
2, 191372, Note_on_c, 0, 70, 0
2, 191383, Note_on_c, 0, 64, 0
2, 191387, Note_on_c, 0, 57, 52
2, 191401, Note_on_c, 0, 71, 0
2, 191474, Note_on_c, 0, 73, 109
2, 191476, Note_on_c, 0, 57, 0
2, 191483, Note_on_c, 0, 64, 50
2, 191509, Note_on_c, 0, 73, 0
2, 191581, Note_on_c, 0, 76, 97
2, 191584, Note_on_c, 0, 64, 0
2, 191584, Note_on_c, 0, 59, 64
2, 191673, Note_on_c, 0, 76, 0
2, 191678, Note_on_c, 0, 74, 91
2, 191679, Note_on_c, 0, 59, 0
2, 191693, Note_on_c, 0, 64, 32
2, 191708, Note_on_c, 0, 74, 0
2, 191758, Note_on_c, 0, 64, 0
2, 191780, Note_on_c, 0, 73, 104
2, 191788, Note_on_c, 0, 62, 64
2, 191815, Note_on_c, 0, 73, 0
2, 191872, Note_on_c, 0, 62, 0
2, 191882, Note_on_c, 0, 71, 88
2, 191904, Note_on_c, 0, 71, 0
2, 191904, Note_on_c, 0, 64, 18
2, 191981, Note_on_c, 0, 68, 103
2, 191984, Note_on_c, 0, 64, 0
2, 191986, Note_on_c, 0, 61, 72
2, 192075, Note_on_c, 0, 68, 0
2, 192082, Note_on_c, 0, 69, 93
2, 192086, Note_on_c, 0, 61, 0
2, 192095, Note_on_c, 0, 64, 34
2, 192110, Note_on_c, 0, 69, 0
2, 192187, Note_on_c, 0, 61, 77
2, 192188, Note_on_c, 0, 64, 0
2, 192282, Note_on_c, 0, 61, 0
2, 192295, Note_on_c, 0, 70, 98
2, 192303, Note_on_c, 0, 64, 51
2, 192311, Note_on_c, 0, 70, 0
2, 192390, Note_on_c, 0, 56, 80
2, 192402, Note_on_c, 0, 64, 0
2, 192472, Note_on_c, 0, 56, 0
2, 192487, Note_on_c, 0, 71, 95
2, 192496, Note_on_c, 0, 64, 51
2, 192517, Note_on_c, 0, 71, 0
2, 192582, Note_on_c, 0, 56, 75
2, 192588, Note_on_c, 0, 64, 0
2, 192654, Note_on_c, 0, 56, 0
2, 192678, Note_on_c, 0, 72, 89
2, 192688, Note_on_c, 0, 64, 37
2, 192704, Note_on_c, 0, 72, 0
2, 192774, Note_on_c, 0, 74, 99
2, 192776, Note_on_c, 0, 64, 0
2, 192782, Note_on_c, 0, 57, 58
2, 192786, Note_on_c, 0, 73, 106
2, 192812, Note_on_c, 0, 74, 0
2, 192819, Note_on_c, 0, 73, 0
2, 192844, Note_on_c, 0, 57, 0
2, 192874, Note_on_c, 0, 64, 32
2, 192874, Note_on_c, 0, 73, 102
2, 192897, Note_on_c, 0, 73, 0
2, 192966, Note_on_c, 0, 64, 0
2, 192966, Note_on_c, 0, 76, 102
2, 192977, Note_on_c, 0, 74, 97
2, 192978, Note_on_c, 0, 59, 71
2, 192997, Note_on_c, 0, 74, 0
2, 192998, Note_on_c, 0, 76, 0
2, 193046, Note_on_c, 0, 59, 0
2, 193066, Note_on_c, 0, 64, 56
2, 193071, Note_on_c, 0, 74, 103
2, 193106, Note_on_c, 0, 74, 0
2, 193154, Note_on_c, 0, 64, 0
2, 193170, Note_on_c, 0, 73, 117
2, 193174, Note_on_c, 0, 52, 72
2, 193176, Note_on_c, 0, 57, 64
2, 193194, Control_c, 0, 64, 127
2, 193379, Control_c, 0, 64, 63
2, 193380, Control_c, 0, 64, 0
2, 193384, Note_on_c, 0, 71, 86
2, 193387, Note_on_c, 0, 56, 84
2, 193415, Note_on_c, 0, 73, 0
2, 193416, Note_on_c, 0, 57, 0
2, 193429, Control_c, 0, 64, 63
2, 193431, Control_c, 0, 64, 127
2, 193437, Note_on_c, 0, 56, 0
2, 193438, Note_on_c, 0, 52, 0
2, 193441, Note_on_c, 0, 71, 0
2, 193535, Control_c, 0, 64, 63
2, 193537, Control_c, 0, 64, 0
2, 193579, Note_on_c, 0, 33, 108
2, 193590, Note_on_c, 0, 37, 109
2, 193596, Note_on_c, 0, 40, 102
2, 193606, Note_on_c, 0, 73, 124
2, 193611, Control_c, 0, 64, 127
2, 193619, Note_on_c, 0, 45, 125
2, 193621, Note_on_c, 0, 33, 0
2, 193636, Note_on_c, 0, 37, 0
2, 193637, Note_on_c, 0, 40, 0
2, 193640, Note_on_c, 0, 69, 80
2, 193652, Note_on_c, 0, 45, 0
2, 193658, Note_on_c, 0, 73, 0
2, 193695, Note_on_c, 0, 69, 0
2, 193696, Note_on_c, 0, 64, 88
2, 193742, Note_on_c, 0, 64, 0
2, 193757, Note_on_c, 0, 69, 75
2, 193792, Note_on_c, 0, 73, 99
2, 193804, Note_on_c, 0, 69, 0
2, 193821, Control_c, 0, 64, 63
2, 193824, Control_c, 0, 64, 0
2, 193839, Note_on_c, 0, 69, 102
2, 193846, Note_on_c, 0, 73, 0
2, 193878, Note_on_c, 0, 69, 0
2, 193905, Note_on_c, 0, 74, 96
2, 193928, Note_on_c, 0, 71, 96
2, 193941, Note_on_c, 0, 57, 60
2, 193950, Note_on_c, 0, 74, 0
2, 193971, Note_on_c, 0, 71, 0
2, 193974, Note_on_c, 0, 61, 79
2, 193998, Note_on_c, 0, 64, 96
2, 194002, Note_on_c, 0, 76, 113
2, 194003, Note_on_c, 0, 69, 126
2, 194004, Control_c, 0, 64, 127
2, 194033, Note_on_c, 0, 69, 0
2, 194036, Note_on_c, 0, 57, 0
2, 194037, Note_on_c, 0, 64, 0
2, 194040, Note_on_c, 0, 61, 0
2, 194051, Note_on_c, 0, 73, 109
2, 194065, Note_on_c, 0, 76, 0
2, 194091, Note_on_c, 0, 73, 0
2, 194109, Note_on_c, 0, 76, 73
2, 194151, Note_on_c, 0, 73, 101
2, 194152, Note_on_c, 0, 76, 0
2, 194191, Note_on_c, 0, 73, 0
2, 194201, Note_on_c, 0, 78, 108
2, 194217, Control_c, 0, 64, 63
2, 194221, Control_c, 0, 64, 0
2, 194242, Note_on_c, 0, 78, 0
2, 194255, Note_on_c, 0, 76, 94
2, 194299, Note_on_c, 0, 74, 103
2, 194310, Note_on_c, 0, 76, 0
2, 194339, Note_on_c, 0, 73, 105
2, 194343, Note_on_c, 0, 74, 0
2, 194352, Note_on_c, 0, 40, 84
2, 194365, Note_on_c, 0, 73, 0
2, 194375, Note_on_c, 0, 44, 82
2, 194390, Note_on_c, 0, 47, 104
2, 194398, Control_c, 0, 64, 127
2, 194402, Note_on_c, 0, 71, 116
2, 194403, Note_on_c, 0, 52, 121
2, 194405, Note_on_c, 0, 40, 0
2, 194422, Note_on_c, 0, 44, 0
2, 194427, Note_on_c, 0, 47, 0
2, 194434, Note_on_c, 0, 52, 0
2, 194443, Note_on_c, 0, 68, 110
2, 194453, Note_on_c, 0, 71, 0
2, 194483, Note_on_c, 0, 68, 0
2, 194504, Note_on_c, 0, 64, 70
2, 194537, Note_on_c, 0, 64, 0
2, 194546, Note_on_c, 0, 68, 90
2, 194584, Note_on_c, 0, 68, 0
2, 194587, Control_c, 0, 64, 63
2, 194588, Control_c, 0, 64, 0
2, 194593, Note_on_c, 0, 71, 97
2, 194637, Note_on_c, 0, 71, 0
2, 194646, Note_on_c, 0, 68, 94
2, 194692, Note_on_c, 0, 68, 0
2, 194695, Note_on_c, 0, 73, 106
2, 194741, Note_on_c, 0, 69, 94
2, 194743, Note_on_c, 0, 73, 0
2, 194754, Note_on_c, 0, 52, 82
2, 194773, Note_on_c, 0, 69, 0
2, 194777, Note_on_c, 0, 56, 85
2, 194790, Note_on_c, 0, 74, 105
2, 194793, Note_on_c, 0, 59, 102
2, 194805, Note_on_c, 0, 64, 116
2, 194808, Control_c, 0, 64, 127
2, 194810, Note_on_c, 0, 52, 0
2, 194829, Note_on_c, 0, 56, 0
2, 194834, Note_on_c, 0, 59, 0
2, 194840, Note_on_c, 0, 71, 104
2, 194844, Note_on_c, 0, 74, 0
2, 194844, Note_on_c, 0, 64, 0
2, 194885, Note_on_c, 0, 71, 0
2, 194894, Note_on_c, 0, 74, 94
2, 194940, Note_on_c, 0, 71, 85
2, 194942, Note_on_c, 0, 74, 0
2, 194976, Note_on_c, 0, 71, 0
2, 194992, Control_c, 0, 64, 63
2, 194996, Control_c, 0, 64, 0
2, 195003, Note_on_c, 0, 76, 80
2, 195041, Note_on_c, 0, 74, 91
2, 195053, Note_on_c, 0, 76, 0
2, 195086, Note_on_c, 0, 74, 0
2, 195099, Note_on_c, 0, 73, 81
2, 195137, Note_on_c, 0, 73, 0
2, 195146, Note_on_c, 0, 71, 77
2, 195180, Note_on_c, 0, 71, 0
2, 195190, Note_on_c, 0, 42, 94
2, 195200, Note_on_c, 0, 69, 73
2, 195218, Note_on_c, 0, 42, 0
2, 195235, Note_on_c, 0, 69, 0
2, 195251, Note_on_c, 0, 73, 98
2, 195295, Note_on_c, 0, 54, 93
2, 195298, Note_on_c, 0, 73, 0
2, 195301, Note_on_c, 0, 71, 81
2, 195328, Note_on_c, 0, 54, 0
2, 195341, Note_on_c, 0, 71, 0
2, 195350, Note_on_c, 0, 69, 72
2, 195384, Note_on_c, 0, 69, 0
2, 195389, Note_on_c, 0, 71, 90
2, 195391, Note_on_c, 0, 44, 102
2, 195432, Note_on_c, 0, 44, 0
2, 195437, Note_on_c, 0, 74, 96
2, 195438, Note_on_c, 0, 71, 0
2, 195485, Note_on_c, 0, 73, 109
2, 195490, Note_on_c, 0, 56, 94
2, 195491, Note_on_c, 0, 74, 0
2, 195525, Note_on_c, 0, 73, 0
2, 195529, Note_on_c, 0, 56, 0
2, 195533, Note_on_c, 0, 71, 94
2, 195571, Note_on_c, 0, 71, 0
2, 195589, Note_on_c, 0, 57, 81
2, 195590, Note_on_c, 0, 73, 110
2, 195622, Note_on_c, 0, 57, 0
2, 195624, Note_on_c, 0, 73, 0
2, 195636, Note_on_c, 0, 76, 102
2, 195680, Note_on_c, 0, 76, 0
2, 195687, Note_on_c, 0, 81, 93
2, 195694, Note_on_c, 0, 61, 95
2, 195727, Note_on_c, 0, 81, 0
2, 195729, Note_on_c, 0, 61, 0
2, 195730, Note_on_c, 0, 76, 93
2, 195764, Note_on_c, 0, 76, 0
2, 195777, Note_on_c, 0, 78, 104
2, 195785, Note_on_c, 0, 62, 91
2, 195818, Note_on_c, 0, 62, 0
2, 195826, Note_on_c, 0, 78, 0
2, 195828, Note_on_c, 0, 81, 86
2, 195862, Note_on_c, 0, 81, 0
2, 195871, Note_on_c, 0, 71, 95
2, 195883, Note_on_c, 0, 56, 96
2, 195907, Note_on_c, 0, 71, 0
2, 195908, Note_on_c, 0, 56, 0
2, 195922, Note_on_c, 0, 74, 90
2, 195967, Note_on_c, 0, 74, 0
2, 195977, Note_on_c, 0, 73, 97
2, 195982, Note_on_c, 0, 57, 86
2, 196014, Note_on_c, 0, 57, 0
2, 196020, Note_on_c, 0, 76, 88
2, 196022, Note_on_c, 0, 73, 0
2, 196067, Note_on_c, 0, 76, 0
2, 196074, Note_on_c, 0, 69, 78
2, 196085, Note_on_c, 0, 54, 94
2, 196108, Note_on_c, 0, 69, 0
2, 196112, Note_on_c, 0, 54, 0
2, 196119, Note_on_c, 0, 73, 102
2, 196172, Note_on_c, 0, 71, 89
2, 196173, Note_on_c, 0, 73, 0
2, 196189, Note_on_c, 0, 50, 94
2, 196212, Note_on_c, 0, 50, 0
2, 196212, Note_on_c, 0, 74, 92
2, 196219, Note_on_c, 0, 71, 0
2, 196270, Note_on_c, 0, 74, 0
2, 196271, Note_on_c, 0, 68, 94
2, 196286, Note_on_c, 0, 52, 83
2, 196313, Note_on_c, 0, 52, 0
2, 196316, Note_on_c, 0, 68, 0
2, 196316, Note_on_c, 0, 71, 89
2, 196363, Note_on_c, 0, 71, 0
2, 196366, Note_on_c, 0, 69, 99
2, 196372, Note_on_c, 0, 45, 111
2, 196400, Note_on_c, 0, 69, 0
2, 196402, Note_on_c, 0, 45, 0
2, 196428, Note_on_c, 0, 64, 57
2, 196467, Note_on_c, 0, 61, 102
2, 196474, Note_on_c, 0, 64, 0
2, 196528, Note_on_c, 0, 64, 88
2, 196532, Note_on_c, 0, 61, 0
2, 196538, Note_on_c, 0, 33, 79
2, 196559, Note_on_c, 0, 37, 101
2, 196567, Note_on_c, 0, 40, 113
2, 196574, Note_on_c, 0, 69, 117
2, 196576, Note_on_c, 0, 45, 122
2, 196588, Note_on_c, 0, 33, 0
2, 196588, Control_c, 0, 64, 127
2, 196593, Note_on_c, 0, 64, 0
2, 196601, Note_on_c, 0, 37, 0
2, 196602, Note_on_c, 0, 40, 0
2, 196610, Note_on_c, 0, 69, 0
2, 196613, Note_on_c, 0, 45, 0
2, 196710, Control_c, 0, 64, 63
2, 196711, Control_c, 0, 64, 0
2, 196827, Note_on_c, 0, 57, 104
2, 196832, Note_on_c, 0, 69, 105
2, 196838, Control_c, 0, 64, 63
2, 196839, Control_c, 0, 64, 127
2, 196879, Note_on_c, 0, 69, 0
2, 196880, Note_on_c, 0, 71, 108
2, 196929, Note_on_c, 0, 73, 111
2, 196937, Note_on_c, 0, 64, 78
2, 196939, Note_on_c, 0, 71, 0
2, 196972, Note_on_c, 0, 73, 0
2, 196974, Note_on_c, 0, 74, 102
2, 196978, Note_on_c, 0, 57, 0
2, 196993, Control_c, 0, 64, 63
2, 197000, Control_c, 0, 64, 0
2, 197027, Note_on_c, 0, 76, 98
2, 197028, Note_on_c, 0, 74, 0
2, 197039, Note_on_c, 0, 61, 93
2, 197052, Note_on_c, 0, 64, 0
2, 197073, Note_on_c, 0, 78, 106
2, 197093, Note_on_c, 0, 76, 0
2, 197136, Note_on_c, 0, 80, 100
2, 197142, Note_on_c, 0, 61, 0
2, 197144, Note_on_c, 0, 64, 65
2, 197158, Note_on_c, 0, 78, 0
2, 197179, Note_on_c, 0, 81, 90
2, 197201, Note_on_c, 0, 80, 0
2, 197224, Note_on_c, 0, 81, 0
2, 197230, Note_on_c, 0, 80, 99
2, 197231, Note_on_c, 0, 57, 67
2, 197242, Note_on_c, 0, 64, 0
2, 197283, Control_c, 0, 64, 63
2, 197283, Note_on_c, 0, 78, 103
2, 197284, Note_on_c, 0, 80, 0
2, 197292, Control_c, 0, 64, 127
2, 197332, Note_on_c, 0, 77, 90
2, 197335, Note_on_c, 0, 78, 0
2, 197342, Note_on_c, 0, 66, 88
2, 197383, Note_on_c, 0, 78, 112
2, 197384, Control_c, 0, 64, 63
2, 197390, Note_on_c, 0, 77, 0
2, 197391, Control_c, 0, 64, 0
2, 197431, Note_on_c, 0, 77, 103
2, 197435, Note_on_c, 0, 78, 0
2, 197435, Note_on_c, 0, 62, 76
2, 197440, Note_on_c, 0, 66, 0
2, 197470, Note_on_c, 0, 57, 0
2, 197480, Note_on_c, 0, 77, 0
2, 197481, Control_c, 0, 64, 63
2, 197483, Note_on_c, 0, 78, 108
2, 197487, Control_c, 0, 64, 127
2, 197528, Note_on_c, 0, 66, 81
2, 197532, Note_on_c, 0, 78, 0
2, 197532, Note_on_c, 0, 77, 101
2, 197538, Note_on_c, 0, 62, 0
2, 197577, Note_on_c, 0, 77, 0
2, 197577, Note_on_c, 0, 78, 108
2, 197603, Control_c, 0, 64, 63
2, 197610, Control_c, 0, 64, 0
2, 197629, Note_on_c, 0, 81, 104
2, 197631, Note_on_c, 0, 78, 0
2, 197631, Note_on_c, 0, 57, 66
2, 197639, Note_on_c, 0, 66, 0
2, 197664, Control_c, 0, 64, 63
2, 197671, Control_c, 0, 64, 127
2, 197674, Note_on_c, 0, 80, 108
2, 197687, Note_on_c, 0, 81, 0
2, 197721, Note_on_c, 0, 66, 77
2, 197727, Note_on_c, 0, 81, 101
2, 197735, Note_on_c, 0, 80, 0
2, 197751, Control_c, 0, 64, 63
2, 197758, Control_c, 0, 64, 0
2, 197777, Note_on_c, 0, 80, 103
2, 197793, Note_on_c, 0, 81, 0
2, 197811, Note_on_c, 0, 57, 0
2, 197822, Note_on_c, 0, 66, 0
2, 197825, Note_on_c, 0, 62, 72
2, 197828, Note_on_c, 0, 83, 92
2, 197835, Note_on_c, 0, 80, 0
2, 197879, Note_on_c, 0, 81, 97
2, 197899, Control_c, 0, 64, 63
2, 197900, Note_on_c, 0, 83, 0
2, 197909, Control_c, 0, 64, 127
2, 197916, Note_on_c, 0, 80, 95
2, 197931, Note_on_c, 0, 66, 74
2, 197939, Note_on_c, 0, 81, 0
2, 197940, Note_on_c, 0, 62, 0
2, 197966, Note_on_c, 0, 78, 102
2, 197984, Note_on_c, 0, 80, 0
2, 197998, Note_on_c, 0, 78, 0
2, 198007, Note_on_c, 0, 66, 0
2, 198016, Control_c, 0, 64, 63
2, 198020, Control_c, 0, 64, 0
2, 198023, Note_on_c, 0, 57, 85
2, 198026, Note_on_c, 0, 78, 102
2, 198067, Control_c, 0, 64, 63
2, 198069, Note_on_c, 0, 78, 0
2, 198070, Note_on_c, 0, 76, 89
2, 198073, Control_c, 0, 64, 127
2, 198115, Note_on_c, 0, 76, 0
2, 198115, Note_on_c, 0, 57, 0
2, 198115, Note_on_c, 0, 64, 58
2, 198124, Control_c, 0, 64, 63
2, 198126, Note_on_c, 0, 75, 103
2, 198127, Control_c, 0, 64, 0
2, 198171, Note_on_c, 0, 75, 0
2, 198173, Note_on_c, 0, 76, 90
2, 198196, Control_c, 0, 64, 63
2, 198197, Control_c, 0, 64, 127
2, 198213, Note_on_c, 0, 61, 88
2, 198214, Note_on_c, 0, 64, 0
2, 198218, Note_on_c, 0, 76, 0
2, 198218, Note_on_c, 0, 75, 104
2, 198259, Note_on_c, 0, 75, 0
2, 198264, Note_on_c, 0, 76, 89
2, 198276, Note_on_c, 0, 61, 0
2, 198295, Note_on_c, 0, 64, 81
2, 198308, Note_on_c, 0, 75, 102
2, 198310, Note_on_c, 0, 76, 0
2, 198317, Note_on_c, 0, 64, 0
2, 198350, Note_on_c, 0, 75, 0
2, 198366, Note_on_c, 0, 76, 95
2, 198390, Note_on_c, 0, 45, 47
2, 198391, Control_c, 0, 64, 63
2, 198394, Control_c, 0, 64, 0
2, 198403, Note_on_c, 0, 76, 0
2, 198408, Note_on_c, 0, 49, 96
2, 198418, Note_on_c, 0, 52, 107
2, 198430, Note_on_c, 0, 76, 98
2, 198441, Note_on_c, 0, 57, 98
2, 198446, Control_c, 0, 64, 63
2, 198447, Control_c, 0, 64, 127
2, 198485, Note_on_c, 0, 76, 0
2, 198486, Note_on_c, 0, 81, 111
2, 198530, Note_on_c, 0, 85, 101
2, 198537, Note_on_c, 0, 81, 0
2, 198556, Note_on_c, 0, 57, 0
2, 198566, Note_on_c, 0, 45, 0
2, 198590, Note_on_c, 0, 83, 68
2, 198592, Note_on_c, 0, 49, 0
2, 198594, Note_on_c, 0, 52, 0
2, 198596, Note_on_c, 0, 85, 0
2, 198630, Note_on_c, 0, 81, 103
2, 198648, Control_c, 0, 64, 63
2, 198649, Note_on_c, 0, 83, 0
2, 198653, Control_c, 0, 64, 0
2, 198671, Note_on_c, 0, 81, 0
2, 198680, Note_on_c, 0, 80, 104
2, 198720, Note_on_c, 0, 78, 112
2, 198738, Note_on_c, 0, 80, 0
2, 198758, Note_on_c, 0, 47, 78
2, 198773, Note_on_c, 0, 76, 103
2, 198795, Note_on_c, 0, 50, 85
2, 198800, Note_on_c, 0, 78, 0
2, 198820, Note_on_c, 0, 47, 0
2, 198825, Note_on_c, 0, 76, 0
2, 198825, Note_on_c, 0, 56, 118
2, 198825, Note_on_c, 0, 74, 104
2, 198826, Control_c, 0, 64, 127
2, 198834, Note_on_c, 0, 59, 116
2, 198850, Note_on_c, 0, 50, 0
2, 198858, Note_on_c, 0, 56, 0
2, 198869, Note_on_c, 0, 59, 0
2, 198872, Note_on_c, 0, 74, 0
2, 198880, Note_on_c, 0, 80, 110
2, 198923, Note_on_c, 0, 83, 87
2, 198939, Note_on_c, 0, 80, 0
2, 198979, Note_on_c, 0, 81, 99
2, 199008, Note_on_c, 0, 83, 0
2, 199021, Note_on_c, 0, 80, 105
2, 199024, Control_c, 0, 64, 63
2, 199028, Control_c, 0, 64, 0
2, 199045, Note_on_c, 0, 81, 0
2, 199068, Note_on_c, 0, 78, 110
2, 199095, Note_on_c, 0, 80, 0
2, 199117, Note_on_c, 0, 76, 64
2, 199119, Note_on_c, 0, 78, 0
2, 199154, Note_on_c, 0, 76, 0
2, 199159, Note_on_c, 0, 49, 76
2, 199177, Note_on_c, 0, 74, 88
2, 199199, Note_on_c, 0, 74, 0
2, 199200, Note_on_c, 0, 74, 69
2, 199204, Control_c, 0, 64, 127
2, 199208, Note_on_c, 0, 74, 0
2, 199208, Note_on_c, 0, 52, 89
2, 199217, Note_on_c, 0, 73, 110
2, 199218, Note_on_c, 0, 57, 85
2, 199231, Note_on_c, 0, 49, 0
2, 199240, Note_on_c, 0, 61, 118
2, 199258, Note_on_c, 0, 73, 0
2, 199261, Note_on_c, 0, 52, 0
2, 199267, Note_on_c, 0, 57, 0
2, 199270, Note_on_c, 0, 76, 96
2, 199280, Note_on_c, 0, 61, 0
2, 199284, Control_c, 0, 64, 63
2, 199287, Control_c, 0, 64, 0
2, 199311, Note_on_c, 0, 81, 99
2, 199314, Note_on_c, 0, 76, 0
2, 199374, Note_on_c, 0, 80, 96
2, 199377, Note_on_c, 0, 50, 76
2, 199391, Note_on_c, 0, 81, 0
2, 199399, Control_c, 0, 64, 63
2, 199399, Control_c, 0, 64, 127
2, 199408, Note_on_c, 0, 54, 100
2, 199415, Note_on_c, 0, 78, 109
2, 199419, Note_on_c, 0, 59, 104
2, 199421, Note_on_c, 0, 57, 99
2, 199425, Note_on_c, 0, 62, 125
2, 199431, Note_on_c, 0, 50, 0
2, 199435, Note_on_c, 0, 80, 0
2, 199437, Note_on_c, 0, 57, 0
2, 199449, Note_on_c, 0, 54, 0
2, 199452, Note_on_c, 0, 59, 0
2, 199454, Control_c, 0, 64, 63
2, 199457, Control_c, 0, 64, 0
2, 199462, Note_on_c, 0, 62, 0
2, 199467, Note_on_c, 0, 76, 93
2, 199473, Note_on_c, 0, 78, 0
2, 199511, Note_on_c, 0, 74, 89
2, 199515, Note_on_c, 0, 76, 0
2, 199554, Note_on_c, 0, 74, 0
2, 199559, Note_on_c, 0, 73, 109
2, 199563, Note_on_c, 0, 52, 70
2, 199594, Note_on_c, 0, 56, 93
2, 199602, Note_on_c, 0, 59, 108
2, 199611, Note_on_c, 0, 71, 107
2, 199615, Control_c, 0, 64, 127
2, 199616, Note_on_c, 0, 64, 122
2, 199619, Note_on_c, 0, 73, 0
2, 199628, Note_on_c, 0, 52, 0
2, 199647, Note_on_c, 0, 59, 0
2, 199647, Note_on_c, 0, 56, 0
2, 199653, Note_on_c, 0, 64, 0
2, 199659, Note_on_c, 0, 69, 98
2, 199660, Note_on_c, 0, 71, 0
2, 199714, Note_on_c, 0, 68, 105
2, 199724, Note_on_c, 0, 69, 0
2, 199745, Control_c, 0, 64, 63
2, 199750, Control_c, 0, 64, 0
2, 199757, Note_on_c, 0, 66, 106
2, 199767, Note_on_c, 0, 68, 0
2, 199808, Note_on_c, 0, 64, 96
2, 199814, Note_on_c, 0, 66, 0
2, 199842, Note_on_c, 0, 64, 0
2, 199852, Note_on_c, 0, 62, 89
2, 199901, Note_on_c, 0, 61, 93
2, 199915, Note_on_c, 0, 62, 0
2, 199950, Note_on_c, 0, 61, 0
2, 199959, Note_on_c, 0, 59, 75
2, 200016, Note_on_c, 0, 73, 104
2, 200017, Note_on_c, 0, 57, 71
2, 200020, Note_on_c, 0, 59, 0
2, 200039, Note_on_c, 0, 73, 0
2, 200131, Note_on_c, 0, 74, 89
2, 200148, Note_on_c, 0, 57, 0
2, 200149, Note_on_c, 0, 73, 92
2, 200154, Note_on_c, 0, 64, 33
2, 200159, Note_on_c, 0, 74, 0
2, 200179, Note_on_c, 0, 71, 87
2, 200182, Note_on_c, 0, 73, 0
2, 200206, Note_on_c, 0, 73, 106
2, 200218, Note_on_c, 0, 59, 54
2, 200221, Note_on_c, 0, 71, 0
2, 200224, Note_on_c, 0, 64, 0
2, 200241, Note_on_c, 0, 73, 0
2, 200317, Note_on_c, 0, 74, 102
2, 200319, Note_on_c, 0, 64, 64
2, 200324, Note_on_c, 0, 59, 0
2, 200350, Note_on_c, 0, 74, 0
2, 200419, Note_on_c, 0, 78, 111
2, 200420, Note_on_c, 0, 61, 77
2, 200424, Note_on_c, 0, 64, 0
2, 200513, Note_on_c, 0, 61, 0
2, 200522, Note_on_c, 0, 78, 0
2, 200526, Note_on_c, 0, 76, 89
2, 200529, Note_on_c, 0, 64, 41
2, 200558, Note_on_c, 0, 76, 0
2, 200626, Note_on_c, 0, 64, 0
2, 200630, Note_on_c, 0, 57, 64
2, 200631, Note_on_c, 0, 74, 97
2, 200665, Note_on_c, 0, 74, 0
2, 200700, Note_on_c, 0, 57, 0
2, 200727, Note_on_c, 0, 73, 98
2, 200729, Note_on_c, 0, 64, 47
2, 200752, Note_on_c, 0, 73, 0
2, 200829, Note_on_c, 0, 71, 89
2, 200831, Note_on_c, 0, 56, 72
2, 200837, Note_on_c, 0, 64, 0
2, 200855, Note_on_c, 0, 71, 0
2, 200912, Note_on_c, 0, 56, 0
2, 200935, Note_on_c, 0, 73, 92
2, 200944, Note_on_c, 0, 64, 43
2, 200961, Note_on_c, 0, 71, 73
2, 200968, Note_on_c, 0, 73, 0
2, 200997, Note_on_c, 0, 70, 103
2, 200998, Note_on_c, 0, 71, 0
2, 201014, Note_on_c, 0, 71, 83
2, 201023, Note_on_c, 0, 70, 0
2, 201023, Note_on_c, 0, 57, 58
2, 201027, Note_on_c, 0, 64, 0
2, 201048, Note_on_c, 0, 71, 0
2, 201117, Note_on_c, 0, 57, 0
2, 201127, Note_on_c, 0, 64, 46
2, 201128, Note_on_c, 0, 73, 105
2, 201158, Note_on_c, 0, 73, 0
2, 201230, Note_on_c, 0, 64, 0
2, 201230, Note_on_c, 0, 59, 65
2, 201231, Note_on_c, 0, 76, 99
2, 201317, Note_on_c, 0, 76, 0
2, 201322, Note_on_c, 0, 59, 0
2, 201331, Note_on_c, 0, 74, 87
2, 201338, Note_on_c, 0, 64, 50
2, 201357, Note_on_c, 0, 74, 0
2, 201434, Note_on_c, 0, 56, 70
2, 201439, Note_on_c, 0, 64, 0
2, 201439, Note_on_c, 0, 73, 93
2, 201470, Note_on_c, 0, 73, 0
2, 201510, Note_on_c, 0, 56, 0
2, 201532, Note_on_c, 0, 71, 93
2, 201542, Note_on_c, 0, 64, 41
2, 201558, Note_on_c, 0, 71, 0
2, 201634, Note_on_c, 0, 68, 108
2, 201635, Note_on_c, 0, 54, 70
2, 201644, Note_on_c, 0, 64, 0
2, 201732, Note_on_c, 0, 54, 0
2, 201738, Note_on_c, 0, 68, 0
2, 201740, Note_on_c, 0, 69, 83
2, 201744, Note_on_c, 0, 64, 46
2, 201762, Note_on_c, 0, 69, 0
2, 201842, Note_on_c, 0, 56, 72
2, 201858, Note_on_c, 0, 64, 0
2, 201928, Note_on_c, 0, 56, 0
2, 201936, Note_on_c, 0, 71, 90
2, 201947, Note_on_c, 0, 64, 36
2, 201960, Note_on_c, 0, 71, 0
2, 202037, Note_on_c, 0, 64, 0
2, 202043, Note_on_c, 0, 57, 65
2, 202127, Note_on_c, 0, 72, 90
2, 202139, Note_on_c, 0, 57, 0
2, 202151, Note_on_c, 0, 64, 58
2, 202158, Note_on_c, 0, 73, 96
2, 202163, Note_on_c, 0, 72, 0
2, 202177, Note_on_c, 0, 73, 0
2, 202211, Note_on_c, 0, 64, 0
2, 202236, Note_on_c, 0, 50, 97
2, 202337, Note_on_c, 0, 59, 74
2, 202338, Note_on_c, 0, 50, 0
2, 202339, Note_on_c, 0, 76, 89
2, 202378, Note_on_c, 0, 74, 85
2, 202394, Note_on_c, 0, 76, 0
2, 202396, Note_on_c, 0, 74, 0
2, 202424, Note_on_c, 0, 59, 0
2, 202447, Note_on_c, 0, 52, 76
2, 202542, Note_on_c, 0, 57, 59
2, 202548, Note_on_c, 0, 74, 91
2, 202552, Note_on_c, 0, 52, 0
2, 202580, Note_on_c, 0, 73, 91
2, 202592, Note_on_c, 0, 74, 0
2, 202600, Note_on_c, 0, 73, 0
2, 202629, Note_on_c, 0, 57, 0
2, 202639, Note_on_c, 0, 52, 70
2, 202734, Note_on_c, 0, 56, 93
2, 202740, Note_on_c, 0, 73, 93
2, 202750, Note_on_c, 0, 52, 0
2, 202776, Note_on_c, 0, 56, 0
2, 202779, Note_on_c, 0, 71, 89
2, 202802, Note_on_c, 0, 73, 0
2, 202817, Note_on_c, 0, 71, 0
2, 202839, Note_on_c, 0, 57, 86
2, 202839, Note_on_c, 0, 64, 84
2, 202842, Note_on_c, 0, 71, 98
2, 202843, Note_on_c, 0, 62, 84
2, 202845, Note_on_c, 0, 68, 92
2, 202867, Control_c, 0, 64, 63
2, 202868, Control_c, 0, 64, 127
2, 202945, Note_on_c, 0, 72, 101
2, 202966, Note_on_c, 0, 71, 0
2, 202981, Control_c, 0, 64, 63
2, 202984, Control_c, 0, 64, 0
2, 203001, Note_on_c, 0, 68, 0
2, 203047, Control_c, 0, 64, 63
2, 203049, Control_c, 0, 64, 127
2, 203052, Note_on_c, 0, 73, 96
2, 203055, Note_on_c, 0, 69, 64
2, 203057, Note_on_c, 0, 72, 0
2, 203058, Note_on_c, 0, 61, 84
2, 203080, Note_on_c, 0, 62, 0
2, 203092, Note_on_c, 0, 64, 0
2, 203101, Note_on_c, 0, 69, 0
2, 203105, Note_on_c, 0, 57, 0
2, 203107, Note_on_c, 0, 73, 0
2, 203110, Note_on_c, 0, 61, 0
2, 203204, Control_c, 0, 64, 63
2, 203208, Control_c, 0, 64, 0
2, 203255, Note_on_c, 0, 45, 114
2, 203256, Note_on_c, 0, 73, 127
2, 203262, Control_c, 0, 64, 63
2, 203266, Control_c, 0, 64, 127
2, 203298, Note_on_c, 0, 69, 93
2, 203305, Note_on_c, 0, 73, 0
2, 203308, Note_on_c, 0, 49, 99
2, 203327, Note_on_c, 0, 45, 0
2, 203345, Note_on_c, 0, 69, 0
2, 203358, Note_on_c, 0, 52, 92
2, 203359, Note_on_c, 0, 76, 93
2, 203369, Note_on_c, 0, 49, 0
2, 203391, Note_on_c, 0, 73, 110
2, 203397, Control_c, 0, 64, 63
2, 203401, Control_c, 0, 64, 0
2, 203405, Note_on_c, 0, 57, 82
2, 203408, Note_on_c, 0, 52, 0
2, 203410, Note_on_c, 0, 76, 0
2, 203422, Note_on_c, 0, 73, 0
2, 203448, Note_on_c, 0, 57, 0
2, 203450, Note_on_c, 0, 74, 118
2, 203452, Note_on_c, 0, 47, 111
2, 203454, Control_c, 0, 64, 63
2, 203460, Control_c, 0, 64, 127
2, 203490, Note_on_c, 0, 50, 94
2, 203495, Note_on_c, 0, 47, 0
2, 203497, Note_on_c, 0, 71, 94
2, 203504, Note_on_c, 0, 74, 0
2, 203535, Note_on_c, 0, 78, 103
2, 203538, Note_on_c, 0, 71, 0
2, 203552, Control_c, 0, 64, 63
2, 203553, Note_on_c, 0, 56, 100
2, 203557, Control_c, 0, 64, 0
2, 203564, Note_on_c, 0, 50, 0
2, 203586, Note_on_c, 0, 78, 0
2, 203588, Note_on_c, 0, 74, 106
2, 203593, Note_on_c, 0, 59, 64
2, 203596, Note_on_c, 0, 56, 0
2, 203629, Note_on_c, 0, 74, 0
2, 203631, Control_c, 0, 64, 63
2, 203635, Control_c, 0, 64, 127
2, 203638, Note_on_c, 0, 49, 105
2, 203644, Note_on_c, 0, 76, 109
2, 203646, Note_on_c, 0, 59, 0
2, 203673, Note_on_c, 0, 49, 0
2, 203680, Note_on_c, 0, 52, 81
2, 203689, Note_on_c, 0, 73, 113
2, 203695, Note_on_c, 0, 76, 0
2, 203722, Control_c, 0, 64, 63
2, 203726, Note_on_c, 0, 73, 0
2, 203728, Control_c, 0, 64, 0
2, 203735, Note_on_c, 0, 57, 68
2, 203747, Note_on_c, 0, 81, 105
2, 203755, Note_on_c, 0, 52, 0
2, 203784, Note_on_c, 0, 61, 92
2, 203790, Note_on_c, 0, 57, 0
2, 203792, Note_on_c, 0, 76, 91
2, 203803, Note_on_c, 0, 81, 0
2, 203805, Control_c, 0, 64, 63
2, 203808, Control_c, 0, 64, 127
2, 203813, Note_on_c, 0, 61, 0
2, 203826, Note_on_c, 0, 76, 0
2, 203837, Note_on_c, 0, 80, 115
2, 203838, Note_on_c, 0, 50, 108
2, 203873, Control_c, 0, 64, 63
2, 203876, Control_c, 0, 64, 0
2, 203879, Note_on_c, 0, 78, 112
2, 203890, Note_on_c, 0, 80, 0
2, 203891, Note_on_c, 0, 54, 95
2, 203899, Note_on_c, 0, 50, 0
2, 203931, Note_on_c, 0, 59, 95
2, 203933, Note_on_c, 0, 78, 0
2, 203936, Note_on_c, 0, 76, 89
2, 203939, Note_on_c, 0, 54, 0
2, 203973, Note_on_c, 0, 62, 78
2, 203975, Note_on_c, 0, 76, 0
2, 203978, Note_on_c, 0, 74, 87
2, 203980, Note_on_c, 0, 59, 0
2, 204006, Note_on_c, 0, 74, 0
2, 204011, Note_on_c, 0, 62, 0
2, 204015, Control_c, 0, 64, 127
2, 204024, Note_on_c, 0, 52, 112
2, 204033, Note_on_c, 0, 73, 115
2, 204064, Note_on_c, 0, 52, 0
2, 204068, Control_c, 0, 64, 63
2, 204071, Note_on_c, 0, 57, 81
2, 204072, Control_c, 0, 64, 0
2, 204077, Note_on_c, 0, 76, 104
2, 204083, Note_on_c, 0, 73, 0
2, 204128, Note_on_c, 0, 76, 0
2, 204128, Note_on_c, 0, 57, 0
2, 204130, Note_on_c, 0, 69, 87
2, 204132, Note_on_c, 0, 61, 96
2, 204167, Note_on_c, 0, 69, 0
2, 204170, Note_on_c, 0, 64, 76
2, 204173, Note_on_c, 0, 61, 0
2, 204182, Note_on_c, 0, 73, 103
2, 204209, Note_on_c, 0, 64, 0
2, 204224, Note_on_c, 0, 52, 107
2, 204228, Note_on_c, 0, 71, 103
2, 204232, Note_on_c, 0, 73, 0
2, 204267, Note_on_c, 0, 74, 105
2, 204271, Note_on_c, 0, 56, 95
2, 204276, Note_on_c, 0, 71, 0
2, 204278, Note_on_c, 0, 52, 0
2, 204312, Note_on_c, 0, 56, 0
2, 204324, Note_on_c, 0, 74, 0
2, 204329, Note_on_c, 0, 68, 108
2, 204361, Note_on_c, 0, 64, 61
2, 204371, Note_on_c, 0, 71, 99
2, 204374, Note_on_c, 0, 68, 0
2, 204407, Note_on_c, 0, 64, 0
2, 204409, Note_on_c, 0, 71, 0
2, 204420, Note_on_c, 0, 57, 108
2, 204423, Note_on_c, 0, 69, 107
2, 204424, Note_on_c, 0, 61, 119
2, 204433, Control_c, 0, 64, 63
2, 204435, Control_c, 0, 64, 127
2, 204464, Note_on_c, 0, 57, 0
2, 204467, Note_on_c, 0, 61, 0
2, 204469, Note_on_c, 0, 69, 0
2, 204482, Control_c, 0, 64, 63
2, 204485, Note_on_c, 0, 71, 99
2, 204488, Control_c, 0, 64, 0
2, 204525, Note_on_c, 0, 73, 105
2, 204529, Note_on_c, 0, 71, 0
2, 204533, Note_on_c, 0, 61, 93
2, 204538, Note_on_c, 0, 64, 70
2, 204555, Note_on_c, 0, 61, 0
2, 204561, Note_on_c, 0, 73, 0
2, 204566, Note_on_c, 0, 64, 0
2, 204579, Note_on_c, 0, 74, 81
2, 204614, Note_on_c, 0, 74, 0
2, 204630, Note_on_c, 0, 76, 89
2, 204635, Note_on_c, 0, 61, 90
2, 204656, Note_on_c, 0, 61, 0
2, 204672, Note_on_c, 0, 78, 105
2, 204688, Note_on_c, 0, 76, 0
2, 204730, Note_on_c, 0, 80, 87
2, 204741, Note_on_c, 0, 64, 73
2, 204745, Note_on_c, 0, 61, 80
2, 204754, Note_on_c, 0, 78, 0
2, 204769, Note_on_c, 0, 61, 0
2, 204779, Note_on_c, 0, 81, 74
2, 204789, Note_on_c, 0, 80, 0
2, 204798, Note_on_c, 0, 64, 0
2, 204804, Note_on_c, 0, 81, 0
2, 204809, Control_c, 0, 64, 63
2, 204814, Control_c, 0, 64, 127
2, 204825, Note_on_c, 0, 80, 104
2, 204827, Note_on_c, 0, 57, 94
2, 204875, Note_on_c, 0, 57, 0
2, 204878, Note_on_c, 0, 78, 110
2, 204880, Note_on_c, 0, 80, 0
2, 204895, Control_c, 0, 64, 63
2, 204903, Control_c, 0, 64, 0
2, 204924, Note_on_c, 0, 77, 76
2, 204925, Note_on_c, 0, 78, 0
2, 204926, Note_on_c, 0, 62, 73
2, 204929, Note_on_c, 0, 66, 83
2, 204953, Note_on_c, 0, 62, 0
2, 204959, Note_on_c, 0, 66, 0
2, 204969, Note_on_c, 0, 78, 104
2, 204973, Note_on_c, 0, 77, 0
2, 205019, Note_on_c, 0, 83, 94
2, 205021, Note_on_c, 0, 78, 0
2, 205025, Note_on_c, 0, 62, 89
2, 205026, Note_on_c, 0, 66, 81
2, 205059, Note_on_c, 0, 66, 0
2, 205068, Note_on_c, 0, 62, 0
2, 205073, Note_on_c, 0, 81, 104
2, 205106, Note_on_c, 0, 83, 0
2, 205119, Note_on_c, 0, 66, 77
2, 205119, Note_on_c, 0, 80, 102
2, 205133, Note_on_c, 0, 62, 53
2, 205146, Note_on_c, 0, 81, 0
2, 205160, Note_on_c, 0, 66, 0
2, 205161, Note_on_c, 0, 78, 109
2, 205172, Note_on_c, 0, 62, 0
2, 205184, Note_on_c, 0, 80, 0
2, 205195, Note_on_c, 0, 78, 0
2, 205206, Note_on_c, 0, 57, 89
2, 205221, Note_on_c, 0, 78, 105
2, 205224, Control_c, 0, 64, 63
2, 205227, Control_c, 0, 64, 127
2, 205256, Note_on_c, 0, 57, 0
2, 205266, Note_on_c, 0, 78, 0
2, 205269, Note_on_c, 0, 76, 90
2, 205285, Control_c, 0, 64, 63
2, 205290, Control_c, 0, 64, 0
2, 205302, Note_on_c, 0, 76, 0
2, 205310, Note_on_c, 0, 61, 83
2, 205312, Note_on_c, 0, 64, 73
2, 205319, Note_on_c, 0, 75, 100
2, 205338, Note_on_c, 0, 61, 0
2, 205346, Note_on_c, 0, 64, 0
2, 205359, Note_on_c, 0, 75, 0
2, 205366, Note_on_c, 0, 76, 93
2, 205403, Note_on_c, 0, 76, 0
2, 205421, Note_on_c, 0, 69, 69
2, 205421, Note_on_c, 0, 61, 87
2, 205422, Note_on_c, 0, 64, 74
2, 205444, Note_on_c, 0, 61, 0
2, 205451, Note_on_c, 0, 64, 0
2, 205456, Note_on_c, 0, 69, 0
2, 205467, Note_on_c, 0, 73, 101
2, 205509, Note_on_c, 0, 76, 96
2, 205513, Note_on_c, 0, 73, 0
2, 205523, Note_on_c, 0, 61, 98
2, 205526, Note_on_c, 0, 64, 70
2, 205558, Note_on_c, 0, 76, 0
2, 205561, Note_on_c, 0, 64, 0
2, 205562, Note_on_c, 0, 81, 107
2, 205563, Note_on_c, 0, 61, 0
2, 205610, Note_on_c, 0, 81, 0
2, 205613, Note_on_c, 0, 57, 93
2, 205616, Note_on_c, 0, 80, 117
2, 205619, Control_c, 0, 64, 63
2, 205619, Control_c, 0, 64, 127
2, 205657, Note_on_c, 0, 57, 0
2, 205667, Note_on_c, 0, 78, 112
2, 205686, Note_on_c, 0, 80, 0
2, 205708, Note_on_c, 0, 62, 89
2, 205714, Note_on_c, 0, 77, 91
2, 205719, Note_on_c, 0, 78, 0
2, 205721, Note_on_c, 0, 66, 70
2, 205739, Note_on_c, 0, 62, 0
2, 205739, Control_c, 0, 64, 63
2, 205741, Note_on_c, 0, 66, 0
2, 205743, Control_c, 0, 64, 0
2, 205763, Note_on_c, 0, 78, 113
2, 205765, Note_on_c, 0, 77, 0
2, 205807, Note_on_c, 0, 62, 87
2, 205809, Note_on_c, 0, 66, 80
2, 205814, Note_on_c, 0, 83, 98
2, 205819, Note_on_c, 0, 78, 0
2, 205835, Note_on_c, 0, 66, 0
2, 205837, Note_on_c, 0, 62, 0
2, 205867, Note_on_c, 0, 81, 108
2, 205901, Note_on_c, 0, 83, 0
2, 205903, Note_on_c, 0, 66, 93
2, 205911, Note_on_c, 0, 80, 106
2, 205917, Note_on_c, 0, 62, 64
2, 205937, Note_on_c, 0, 81, 0
2, 205942, Note_on_c, 0, 66, 0
2, 205953, Note_on_c, 0, 78, 113
2, 205965, Note_on_c, 0, 62, 0
2, 205989, Note_on_c, 0, 80, 0
2, 206009, Note_on_c, 0, 76, 114
2, 206010, Note_on_c, 0, 64, 103
2, 206012, Note_on_c, 0, 57, 95
2, 206013, Note_on_c, 0, 61, 102
2, 206017, Control_c, 0, 64, 127
2, 206029, Note_on_c, 0, 78, 0
2, 206033, Note_on_c, 0, 61, 0
2, 206034, Note_on_c, 0, 64, 0
2, 206040, Note_on_c, 0, 57, 0
2, 206041, Note_on_c, 0, 76, 0
2, 206207, Control_c, 0, 64, 63
2, 206209, Control_c, 0, 64, 0
2, 206241, Note_on_c, 0, 76, 121
2, 206275, Note_on_c, 0, 78, 103
2, 206282, Note_on_c, 0, 76, 0
2, 206308, Note_on_c, 0, 76, 97
2, 206332, Note_on_c, 0, 78, 0
2, 206351, Note_on_c, 0, 75, 104
2, 206359, Note_on_c, 0, 76, 0
2, 206386, Note_on_c, 0, 76, 95
2, 206398, Note_on_c, 0, 75, 0
2, 206478, Note_on_c, 0, 50, 109
2, 206479, Note_on_c, 0, 59, 109
2, 206488, Note_on_c, 0, 76, 0
2, 206500, Control_c, 0, 64, 127
2, 206511, Note_on_c, 0, 59, 0
2, 206511, Note_on_c, 0, 50, 0
2, 206681, Control_c, 0, 64, 63
2, 206683, Control_c, 0, 64, 0
2, 206693, Note_on_c, 0, 74, 106
2, 206724, Note_on_c, 0, 76, 92
2, 206731, Note_on_c, 0, 74, 0
2, 206755, Note_on_c, 0, 74, 102
2, 206777, Note_on_c, 0, 76, 0
2, 206802, Note_on_c, 0, 73, 93
2, 206811, Note_on_c, 0, 74, 0
2, 206841, Note_on_c, 0, 74, 92
2, 206846, Note_on_c, 0, 73, 0
2, 206935, Note_on_c, 0, 74, 0
2, 206940, Note_on_c, 0, 57, 104
2, 206944, Note_on_c, 0, 52, 107
2, 206956, Control_c, 0, 64, 127
2, 206975, Note_on_c, 0, 57, 0
2, 206977, Note_on_c, 0, 52, 0
2, 207152, Note_on_c, 0, 73, 119
2, 207153, Control_c, 0, 64, 63
2, 207155, Control_c, 0, 64, 0
2, 207198, Note_on_c, 0, 73, 0
2, 207204, Note_on_c, 0, 74, 96
2, 207232, Note_on_c, 0, 73, 89
2, 207251, Note_on_c, 0, 74, 0
2, 207279, Note_on_c, 0, 73, 0
2, 207283, Note_on_c, 0, 72, 87
2, 207322, Note_on_c, 0, 73, 99
2, 207342, Note_on_c, 0, 72, 0
2, 207374, Note_on_c, 0, 73, 0
2, 207386, Control_c, 0, 64, 127
2, 207388, Note_on_c, 0, 56, 115
2, 207389, Note_on_c, 0, 50, 106
2, 207420, Note_on_c, 0, 56, 0
2, 207424, Note_on_c, 0, 50, 0
2, 207590, Note_on_c, 0, 71, 111
2, 207600, Control_c, 0, 64, 63
2, 207601, Control_c, 0, 64, 0
2, 207626, Note_on_c, 0, 73, 102
2, 207632, Note_on_c, 0, 71, 0
2, 207658, Note_on_c, 0, 71, 86
2, 207679, Note_on_c, 0, 73, 0
2, 207704, Note_on_c, 0, 70, 98
2, 207710, Note_on_c, 0, 71, 0
2, 207750, Note_on_c, 0, 71, 64
2, 207761, Note_on_c, 0, 70, 0
2, 207811, Control_c, 0, 64, 63
2, 207811, Control_c, 0, 64, 127
2, 207834, Note_on_c, 0, 71, 0
2, 207846, Note_on_c, 0, 57, 97
2, 207851, Note_on_c, 0, 49, 112
2, 207924, Note_on_c, 0, 76, 106
2, 207967, Note_on_c, 0, 75, 98
2, 207970, Note_on_c, 0, 76, 0
2, 207998, Control_c, 0, 64, 63
2, 208003, Control_c, 0, 64, 0
2, 208009, Note_on_c, 0, 76, 104
2, 208022, Note_on_c, 0, 75, 0
2, 208062, Note_on_c, 0, 78, 104
2, 208064, Control_c, 0, 64, 63
2, 208071, Note_on_c, 0, 76, 0
2, 208072, Control_c, 0, 64, 127
2, 208100, Note_on_c, 0, 76, 97
2, 208126, Note_on_c, 0, 78, 0
2, 208130, Note_on_c, 0, 57, 0
2, 208140, Note_on_c, 0, 49, 0
2, 208159, Note_on_c, 0, 75, 110
2, 208172, Note_on_c, 0, 76, 0
2, 208200, Note_on_c, 0, 76, 98
2, 208227, Control_c, 0, 64, 63
2, 208229, Note_on_c, 0, 75, 0
2, 208234, Control_c, 0, 64, 0
2, 208263, Note_on_c, 0, 76, 0
2, 208275, Note_on_c, 0, 59, 111
2, 208278, Note_on_c, 0, 50, 109
2, 208333, Control_c, 0, 64, 63
2, 208333, Note_on_c, 0, 74, 113
2, 208340, Control_c, 0, 64, 127
2, 208380, Note_on_c, 0, 73, 104
2, 208381, Note_on_c, 0, 74, 0
2, 208429, Note_on_c, 0, 74, 99
2, 208433, Control_c, 0, 64, 63
2, 208435, Control_c, 0, 64, 0
2, 208436, Note_on_c, 0, 73, 0
2, 208475, Note_on_c, 0, 76, 104
2, 208484, Note_on_c, 0, 74, 0
2, 208508, Note_on_c, 0, 59, 0
2, 208518, Note_on_c, 0, 50, 0
2, 208525, Note_on_c, 0, 74, 96
2, 208542, Note_on_c, 0, 76, 0
2, 208579, Note_on_c, 0, 73, 100
2, 208581, Note_on_c, 0, 74, 0
2, 208617, Note_on_c, 0, 74, 97
2, 208632, Note_on_c, 0, 73, 0
2, 208658, Note_on_c, 0, 74, 0
2, 208677, Note_on_c, 0, 57, 105
2, 208678, Note_on_c, 0, 52, 114
2, 208705, Control_c, 0, 64, 63
2, 208707, Control_c, 0, 64, 127
2, 208732, Note_on_c, 0, 73, 114
2, 208779, Note_on_c, 0, 73, 0
2, 208783, Note_on_c, 0, 72, 90
2, 208797, Control_c, 0, 64, 63
2, 208801, Control_c, 0, 64, 0
2, 208833, Note_on_c, 0, 73, 113
2, 208846, Note_on_c, 0, 72, 0
2, 208885, Note_on_c, 0, 74, 89
2, 208886, Note_on_c, 0, 73, 0
2, 208891, Note_on_c, 0, 52, 0
2, 208894, Note_on_c, 0, 57, 0
2, 208920, Note_on_c, 0, 73, 89
2, 208942, Note_on_c, 0, 74, 0
2, 208976, Note_on_c, 0, 73, 0
2, 208977, Note_on_c, 0, 72, 96
2, 209028, Note_on_c, 0, 73, 101
2, 209036, Note_on_c, 0, 72, 0
2, 209059, Control_c, 0, 64, 63
2, 209059, Control_c, 0, 64, 127
2, 209066, Note_on_c, 0, 73, 0
2, 209072, Note_on_c, 0, 52, 105
2, 209072, Note_on_c, 0, 56, 117
2, 209126, Note_on_c, 0, 71, 102
2, 209133, Control_c, 0, 64, 63
2, 209136, Control_c, 0, 64, 0
2, 209168, Note_on_c, 0, 71, 0
2, 209170, Note_on_c, 0, 70, 97
2, 209217, Note_on_c, 0, 70, 0
2, 209219, Note_on_c, 0, 71, 63
2, 209260, Note_on_c, 0, 73, 102
2, 209264, Note_on_c, 0, 71, 0
2, 209264, Note_on_c, 0, 56, 0
2, 209271, Note_on_c, 0, 52, 0
2, 209306, Note_on_c, 0, 73, 0
2, 209311, Note_on_c, 0, 71, 87
2, 209354, Note_on_c, 0, 70, 96
2, 209358, Note_on_c, 0, 71, 0
2, 209393, Note_on_c, 0, 71, 87
2, 209402, Note_on_c, 0, 70, 0
2, 209435, Note_on_c, 0, 71, 0
2, 209449, Note_on_c, 0, 57, 95
2, 209449, Note_on_c, 0, 69, 94
2, 209475, Note_on_c, 0, 69, 0
2, 209557, Note_on_c, 0, 57, 0
2, 209564, Note_on_c, 0, 73, 112
2, 209605, Note_on_c, 0, 73, 0
2, 209609, Note_on_c, 0, 69, 74
2, 209640, Note_on_c, 0, 69, 0
2, 209655, Note_on_c, 0, 76, 90
2, 209708, Note_on_c, 0, 74, 93
2, 209716, Note_on_c, 0, 76, 0
2, 209752, Note_on_c, 0, 71, 97
2, 209756, Note_on_c, 0, 74, 0
2, 209806, Note_on_c, 0, 68, 105
2, 209807, Note_on_c, 0, 71, 0
2, 209846, Note_on_c, 0, 68, 0
2, 209850, Note_on_c, 0, 69, 105
2, 209884, Note_on_c, 0, 69, 0
2, 210068, Note_on_c, 0, 76, 114
2, 210068, Note_on_c, 0, 71, 111
2, 210070, Note_on_c, 0, 64, 127
2, 210071, Note_on_c, 0, 59, 123
2, 210071, Note_on_c, 0, 52, 122
2, 210071, Note_on_c, 0, 68, 117
2, 210074, Note_on_c, 0, 56, 112
2, 210080, Control_c, 0, 64, 127
2, 210099, Note_on_c, 0, 64, 0
2, 210100, Note_on_c, 0, 59, 0
2, 210101, Note_on_c, 0, 71, 0
2, 210101, Note_on_c, 0, 68, 0
2, 210103, Note_on_c, 0, 56, 0
2, 210108, Note_on_c, 0, 76, 0
2, 210117, Note_on_c, 0, 52, 0
2, 210131, Control_c, 0, 64, 63
2, 210136, Control_c, 0, 64, 0
2, 210286, Note_on_c, 0, 76, 112
2, 210288, Note_on_c, 0, 81, 113
2, 210289, Note_on_c, 0, 45, 104
2, 210291, Note_on_c, 0, 69, 107
2, 210291, Note_on_c, 0, 73, 114
2, 210291, Note_on_c, 0, 49, 120
2, 210291, Note_on_c, 0, 57, 125
2, 210291, Note_on_c, 0, 52, 122
2, 210301, Control_c, 0, 64, 127
2, 210322, Note_on_c, 0, 69, 0
2, 210327, Note_on_c, 0, 73, 0
2, 210328, Note_on_c, 0, 76, 0
2, 210332, Note_on_c, 0, 81, 0
2, 210334, Note_on_c, 0, 45, 0
2, 210339, Note_on_c, 0, 57, 0
2, 210342, Note_on_c, 0, 52, 0
2, 210342, Note_on_c, 0, 49, 0
2, 210422, Note_on_c, 0, 73, 117
2, 210469, Note_on_c, 0, 69, 97
2, 210471, Note_on_c, 0, 73, 0
2, 210507, Note_on_c, 0, 69, 0
2, 210511, Control_c, 0, 64, 63
2, 210516, Control_c, 0, 64, 0
2, 210518, Note_on_c, 0, 76, 109
2, 210571, Note_on_c, 0, 74, 102
2, 210589, Note_on_c, 0, 76, 0
2, 210612, Note_on_c, 0, 71, 98
2, 210624, Note_on_c, 0, 74, 0
2, 210669, Note_on_c, 0, 68, 111
2, 210673, Note_on_c, 0, 71, 0
2, 210707, Note_on_c, 0, 68, 0
2, 210717, Note_on_c, 0, 69, 114
2, 210753, Note_on_c, 0, 69, 0
2, 210946, Note_on_c, 0, 76, 116
2, 210947, Note_on_c, 0, 71, 114
2, 210949, Note_on_c, 0, 64, 127
2, 210949, Note_on_c, 0, 52, 122
2, 210950, Note_on_c, 0, 59, 122
2, 210951, Note_on_c, 0, 68, 119
2, 210952, Note_on_c, 0, 56, 115
2, 210985, Note_on_c, 0, 68, 0
2, 210989, Note_on_c, 0, 71, 0
2, 210994, Note_on_c, 0, 64, 0
2, 210998, Note_on_c, 0, 76, 0
2, 210999, Note_on_c, 0, 56, 0
2, 211000, Note_on_c, 0, 59, 0
2, 211007, Note_on_c, 0, 52, 0
2, 211218, Note_on_c, 0, 76, 106
2, 211218, Note_on_c, 0, 45, 112
2, 211219, Note_on_c, 0, 57, 123
2, 211219, Note_on_c, 0, 73, 112
2, 211219, Note_on_c, 0, 81, 109
2, 211220, Note_on_c, 0, 69, 107
2, 211221, Note_on_c, 0, 49, 120
2, 211221, Note_on_c, 0, 52, 122
2, 211240, Control_c, 0, 64, 127
2, 211276, Note_on_c, 0, 52, 0
2, 211276, Note_on_c, 0, 45, 0
2, 211279, Note_on_c, 0, 49, 0
2, 211280, Note_on_c, 0, 57, 0
2, 211421, Note_on_c, 0, 73, 0
2, 211422, Note_on_c, 0, 69, 0
2, 211426, Note_on_c, 0, 81, 0
2, 211428, Note_on_c, 0, 76, 0
2, 211681, Control_c, 0, 64, 63
2, 211686, Control_c, 0, 64, 0
2, 211686, End_track
0, 0, End_of_file
