0, 0, Header, 0, 1, 384
1, 0, Start_track
1, 0, Tempo, 512820
1, 0, Title_t, "Klaviersonate Nr. 11 KV 331 3. S"
1, 0, Program_c, 0, 0
1, 0, Control_c, 0, 7, 100
1, 3, Control_c, 0, 10, 64
1, 3, Control_c, 0, 91, 127
1, 3, Program_c, 0, 0
1, 6, Control_c, 0, 7, 100
1, 6, Control_c, 0, 10, 64
1, 6, Program_c, 0, 0
1, 748, Note_on_c, 0, 71, 66
1, 823, Note_on_c, 0, 71, 0
1, 823, Note_on_c, 0, 69, 64
1, 897, Note_on_c, 0, 69, 0
1, 897, Note_on_c, 0, 68, 64
1, 971, Note_on_c, 0, 68, 0
1, 971, Note_on_c, 0, 69, 64
1, 1056, Note_on_c, 0, 69, 0
1, 1056, Note_on_c, 0, 72, 71
1, 1056, Note_on_c, 0, 57, 57
1, 1108, Control_c, 0, 64, 127
1, 1130, Note_on_c, 0, 72, 0
1, 1130, Note_on_c, 0, 57, 0
1, 1205, Note_on_c, 0, 64, 52
1, 1205, Note_on_c, 0, 60, 43
1, 1211, Control_c, 0, 64, 0
1, 1279, Note_on_c, 0, 60, 0
1, 1279, Note_on_c, 0, 64, 0
1, 1364, Note_on_c, 0, 74, 66
1, 1364, Note_on_c, 0, 60, 43
1, 1364, Note_on_c, 0, 64, 52
1, 1425, Control_c, 0, 64, 127
1, 1438, Note_on_c, 0, 74, 0
1, 1438, Note_on_c, 0, 72, 63
1, 1438, Note_on_c, 0, 64, 0
1, 1441, Note_on_c, 0, 60, 0
1, 1513, Note_on_c, 0, 72, 0
1, 1513, Note_on_c, 0, 71, 63
1, 1513, Note_on_c, 0, 60, 42
1, 1516, Note_on_c, 0, 64, 51
1, 1588, Note_on_c, 0, 71, 0
1, 1588, Note_on_c, 0, 72, 63
1, 1588, Note_on_c, 0, 64, 0
1, 1591, Note_on_c, 0, 60, 0
1, 1673, Note_on_c, 0, 72, 0
1, 1673, Note_on_c, 0, 76, 72
1, 1673, Note_on_c, 0, 57, 57
1, 1676, Control_c, 0, 64, 0
1, 1719, Control_c, 0, 64, 127
1, 1748, Note_on_c, 0, 76, 0
1, 1748, Note_on_c, 0, 57, 0
1, 1822, Note_on_c, 0, 64, 52
1, 1822, Note_on_c, 0, 60, 43
1, 1828, Control_c, 0, 64, 0
1, 1896, Note_on_c, 0, 60, 0
1, 1896, Note_on_c, 0, 64, 0
1, 1979, Note_on_c, 0, 77, 66
1, 1979, Note_on_c, 0, 64, 52
1, 1979, Note_on_c, 0, 60, 43
1, 2021, Control_c, 0, 64, 127
1, 2053, Note_on_c, 0, 77, 0
1, 2053, Note_on_c, 0, 76, 63
1, 2053, Note_on_c, 0, 60, 0
1, 2056, Note_on_c, 0, 64, 0
1, 2128, Note_on_c, 0, 76, 0
1, 2128, Note_on_c, 0, 75, 63
1, 2128, Note_on_c, 0, 64, 52
1, 2131, Note_on_c, 0, 60, 43
1, 2202, Note_on_c, 0, 75, 0
1, 2202, Note_on_c, 0, 76, 63
1, 2202, Note_on_c, 0, 60, 0
1, 2205, Note_on_c, 0, 64, 0
1, 2280, Note_on_c, 0, 76, 0
1, 2280, Note_on_c, 0, 83, 70
1, 2280, Note_on_c, 0, 57, 57
1, 2283, Control_c, 0, 64, 0
1, 2337, Control_c, 0, 64, 127
1, 2355, Note_on_c, 0, 83, 0
1, 2355, Note_on_c, 0, 81, 64
1, 2355, Note_on_c, 0, 57, 0
1, 2429, Note_on_c, 0, 81, 0
1, 2429, Note_on_c, 0, 80, 64
1, 2429, Note_on_c, 0, 64, 50
1, 2432, Note_on_c, 0, 60, 42
1, 2503, Note_on_c, 0, 80, 0
1, 2503, Note_on_c, 0, 81, 64
1, 2503, Note_on_c, 0, 60, 0
1, 2506, Note_on_c, 0, 64, 0
1, 2578, Note_on_c, 0, 81, 0
1, 2578, Note_on_c, 0, 83, 69
1, 2578, Note_on_c, 0, 57, 57
1, 2581, Control_c, 0, 64, 0
1, 2614, Control_c, 0, 64, 127
1, 2654, Note_on_c, 0, 83, 0
1, 2654, Note_on_c, 0, 81, 64
1, 2654, Note_on_c, 0, 57, 0
1, 2729, Note_on_c, 0, 81, 0
1, 2729, Note_on_c, 0, 80, 64
1, 2729, Note_on_c, 0, 64, 52
1, 2732, Note_on_c, 0, 60, 43
1, 2805, Note_on_c, 0, 80, 0
1, 2805, Note_on_c, 0, 81, 64
1, 2805, Note_on_c, 0, 60, 0
1, 2808, Note_on_c, 0, 64, 0
1, 2891, Note_on_c, 0, 81, 0
1, 2891, Note_on_c, 0, 84, 72
1, 2891, Note_on_c, 0, 57, 57
1, 2894, Control_c, 0, 64, 0
1, 2922, Control_c, 0, 64, 127
1, 2967, Note_on_c, 0, 57, 0
1, 3044, Note_on_c, 0, 64, 50
1, 3044, Note_on_c, 0, 60, 42
1, 3051, Control_c, 0, 64, 0
1, 3124, Note_on_c, 0, 60, 0
1, 3124, Note_on_c, 0, 64, 0
1, 3211, Note_on_c, 0, 84, 0
1, 3211, Note_on_c, 0, 81, 68
1, 3211, Note_on_c, 0, 64, 50
1, 3214, Note_on_c, 0, 60, 42
1, 3285, Note_on_c, 0, 81, 0
1, 3285, Note_on_c, 0, 60, 0
1, 3285, Note_on_c, 0, 64, 0
1, 3359, Note_on_c, 0, 84, 65
1, 3359, Note_on_c, 0, 64, 50
1, 3359, Note_on_c, 0, 60, 42
1, 3440, Note_on_c, 0, 84, 0
1, 3440, Note_on_c, 0, 60, 0
1, 3440, Note_on_c, 0, 64, 0
1, 3494, Note_on_c, 0, 79, 63
1, 3511, Note_on_c, 0, 79, 0
1, 3511, Note_on_c, 0, 81, 63
1, 3528, Note_on_c, 0, 81, 0
1, 3528, Note_on_c, 0, 83, 80
1, 3528, Note_on_c, 0, 52, 65
1, 3603, Note_on_c, 0, 83, 0
1, 3603, Note_on_c, 0, 52, 0
1, 3679, Note_on_c, 0, 78, 54
1, 3679, Note_on_c, 0, 81, 64
1, 3679, Note_on_c, 0, 64, 53
1, 3682, Note_on_c, 0, 59, 44
1, 3755, Note_on_c, 0, 81, 0
1, 3755, Note_on_c, 0, 78, 0
1, 3755, Note_on_c, 0, 59, 0
1, 3758, Note_on_c, 0, 64, 0
1, 3831, Note_on_c, 0, 76, 58
1, 3831, Note_on_c, 0, 79, 69
1, 3831, Note_on_c, 0, 64, 53
1, 3834, Note_on_c, 0, 59, 44
1, 3906, Note_on_c, 0, 79, 0
1, 3906, Note_on_c, 0, 76, 0
1, 3906, Note_on_c, 0, 59, 0
1, 3909, Note_on_c, 0, 64, 0
1, 3980, Note_on_c, 0, 78, 54
1, 3980, Note_on_c, 0, 81, 64
1, 3980, Note_on_c, 0, 64, 53
1, 3983, Note_on_c, 0, 59, 44
1, 4060, Note_on_c, 0, 81, 0
1, 4060, Note_on_c, 0, 78, 0
1, 4060, Note_on_c, 0, 59, 0
1, 4063, Note_on_c, 0, 64, 0
1, 4114, Note_on_c, 0, 79, 65
1, 4130, Note_on_c, 0, 79, 0
1, 4130, Note_on_c, 0, 81, 65
1, 4147, Note_on_c, 0, 81, 0
1, 4147, Note_on_c, 0, 83, 82
1, 4147, Note_on_c, 0, 52, 66
1, 4223, Note_on_c, 0, 83, 0
1, 4223, Note_on_c, 0, 52, 0
1, 4299, Note_on_c, 0, 78, 56
1, 4299, Note_on_c, 0, 81, 66
1, 4299, Note_on_c, 0, 64, 52
1, 4302, Note_on_c, 0, 59, 43
1, 4375, Note_on_c, 0, 81, 0
1, 4375, Note_on_c, 0, 78, 0
1, 4375, Note_on_c, 0, 59, 0
1, 4378, Note_on_c, 0, 64, 0
1, 4451, Note_on_c, 0, 76, 58
1, 4451, Note_on_c, 0, 79, 69
1, 4451, Note_on_c, 0, 64, 52
1, 4454, Note_on_c, 0, 59, 43
1, 4525, Note_on_c, 0, 79, 0
1, 4525, Note_on_c, 0, 76, 0
1, 4525, Note_on_c, 0, 59, 0
1, 4528, Note_on_c, 0, 64, 0
1, 4600, Note_on_c, 0, 78, 55
1, 4600, Note_on_c, 0, 81, 65
1, 4600, Note_on_c, 0, 64, 52
1, 4603, Note_on_c, 0, 59, 43
1, 4680, Note_on_c, 0, 81, 0
1, 4680, Note_on_c, 0, 78, 0
1, 4680, Note_on_c, 0, 59, 0
1, 4683, Note_on_c, 0, 64, 0
1, 4732, Note_on_c, 0, 79, 64
1, 4749, Note_on_c, 0, 79, 0
1, 4749, Note_on_c, 0, 81, 64
1, 4765, Note_on_c, 0, 83, 79
1, 4765, Note_on_c, 0, 52, 67
1, 4784, Note_on_c, 0, 81, 0
1, 4841, Note_on_c, 0, 83, 0
1, 4841, Note_on_c, 0, 52, 0
1, 4916, Note_on_c, 0, 78, 57
1, 4916, Note_on_c, 0, 81, 68
1, 4916, Note_on_c, 0, 64, 52
1, 4919, Note_on_c, 0, 59, 43
1, 4991, Note_on_c, 0, 81, 0
1, 4991, Note_on_c, 0, 78, 0
1, 4991, Note_on_c, 0, 59, 0
1, 4994, Note_on_c, 0, 64, 0
1, 5067, Note_on_c, 0, 76, 58
1, 5067, Note_on_c, 0, 79, 69
1, 5067, Note_on_c, 0, 47, 52
1, 5149, Note_on_c, 0, 79, 0
1, 5149, Note_on_c, 0, 76, 0
1, 5149, Note_on_c, 0, 47, 0
1, 5231, Note_on_c, 0, 75, 56
1, 5231, Note_on_c, 0, 78, 66
1, 5231, Note_on_c, 0, 59, 52
1, 5318, Note_on_c, 0, 78, 0
1, 5318, Note_on_c, 0, 75, 0
1, 5318, Note_on_c, 0, 59, 0
1, 5405, Note_on_c, 0, 76, 69
1, 5405, Note_on_c, 0, 52, 57
1, 5747, Note_on_c, 0, 76, 0
1, 5747, Note_on_c, 0, 52, 0
1, 5770, Note_on_c, 0, 71, 66
1, 5844, Note_on_c, 0, 71, 0
1, 5844, Note_on_c, 0, 69, 64
1, 5919, Note_on_c, 0, 69, 0
1, 5919, Note_on_c, 0, 68, 64
1, 5993, Note_on_c, 0, 68, 0
1, 5993, Note_on_c, 0, 69, 64
1, 6078, Note_on_c, 0, 69, 0
1, 6078, Note_on_c, 0, 72, 71
1, 6078, Note_on_c, 0, 57, 57
1, 6130, Control_c, 0, 64, 127
1, 6152, Note_on_c, 0, 72, 0
1, 6152, Note_on_c, 0, 57, 0
1, 6226, Note_on_c, 0, 64, 52
1, 6226, Note_on_c, 0, 60, 43
1, 6233, Control_c, 0, 64, 0
1, 6301, Note_on_c, 0, 60, 0
1, 6301, Note_on_c, 0, 64, 0
1, 6385, Note_on_c, 0, 74, 66
1, 6385, Note_on_c, 0, 60, 43
1, 6385, Note_on_c, 0, 64, 52
1, 6447, Control_c, 0, 64, 127
1, 6460, Note_on_c, 0, 74, 0
1, 6460, Note_on_c, 0, 72, 63
1, 6460, Note_on_c, 0, 64, 0
1, 6463, Note_on_c, 0, 60, 0
1, 6535, Note_on_c, 0, 72, 0
1, 6535, Note_on_c, 0, 71, 63
1, 6535, Note_on_c, 0, 60, 42
1, 6538, Note_on_c, 0, 64, 51
1, 6610, Note_on_c, 0, 71, 0
1, 6610, Note_on_c, 0, 72, 63
1, 6610, Note_on_c, 0, 64, 0
1, 6613, Note_on_c, 0, 60, 0
1, 6695, Note_on_c, 0, 72, 0
1, 6695, Note_on_c, 0, 76, 72
1, 6695, Note_on_c, 0, 57, 57
1, 6698, Control_c, 0, 64, 0
1, 6741, Control_c, 0, 64, 127
1, 6769, Note_on_c, 0, 76, 0
1, 6769, Note_on_c, 0, 57, 0
1, 6844, Note_on_c, 0, 64, 52
1, 6844, Note_on_c, 0, 60, 43
1, 6850, Control_c, 0, 64, 0
1, 6918, Note_on_c, 0, 60, 0
1, 6918, Note_on_c, 0, 64, 0
1, 7001, Note_on_c, 0, 77, 66
1, 7001, Note_on_c, 0, 64, 52
1, 7001, Note_on_c, 0, 60, 43
1, 7043, Control_c, 0, 64, 127
1, 7075, Note_on_c, 0, 77, 0
1, 7075, Note_on_c, 0, 76, 63
1, 7075, Note_on_c, 0, 60, 0
1, 7078, Note_on_c, 0, 64, 0
1, 7150, Note_on_c, 0, 76, 0
1, 7150, Note_on_c, 0, 75, 63
1, 7150, Note_on_c, 0, 64, 52
1, 7153, Note_on_c, 0, 60, 43
1, 7224, Note_on_c, 0, 75, 0
1, 7224, Note_on_c, 0, 76, 63
1, 7224, Note_on_c, 0, 60, 0
1, 7227, Note_on_c, 0, 64, 0
1, 7302, Note_on_c, 0, 76, 0
1, 7302, Note_on_c, 0, 83, 70
1, 7302, Note_on_c, 0, 57, 57
1, 7305, Control_c, 0, 64, 0
1, 7358, Control_c, 0, 64, 127
1, 7376, Note_on_c, 0, 83, 0
1, 7376, Note_on_c, 0, 81, 64
1, 7376, Note_on_c, 0, 57, 0
1, 7451, Note_on_c, 0, 81, 0
1, 7451, Note_on_c, 0, 80, 64
1, 7451, Note_on_c, 0, 64, 50
1, 7454, Note_on_c, 0, 60, 42
1, 7525, Note_on_c, 0, 80, 0
1, 7525, Note_on_c, 0, 81, 64
1, 7525, Note_on_c, 0, 60, 0
1, 7528, Note_on_c, 0, 64, 0
1, 7599, Note_on_c, 0, 81, 0
1, 7599, Note_on_c, 0, 83, 69
1, 7599, Note_on_c, 0, 57, 57
1, 7602, Control_c, 0, 64, 0
1, 7635, Control_c, 0, 64, 127
1, 7675, Note_on_c, 0, 83, 0
1, 7675, Note_on_c, 0, 81, 64
1, 7675, Note_on_c, 0, 57, 0
1, 7751, Note_on_c, 0, 81, 0
1, 7751, Note_on_c, 0, 80, 64
1, 7751, Note_on_c, 0, 64, 52
1, 7754, Note_on_c, 0, 60, 43
1, 7827, Note_on_c, 0, 80, 0
1, 7827, Note_on_c, 0, 81, 64
1, 7827, Note_on_c, 0, 60, 0
1, 7830, Note_on_c, 0, 64, 0
1, 7913, Note_on_c, 0, 81, 0
1, 7913, Note_on_c, 0, 84, 72
1, 7913, Note_on_c, 0, 57, 57
1, 7916, Control_c, 0, 64, 0
1, 7944, Control_c, 0, 64, 127
1, 7989, Note_on_c, 0, 57, 0
1, 8066, Note_on_c, 0, 64, 50
1, 8066, Note_on_c, 0, 60, 42
1, 8072, Control_c, 0, 64, 0
1, 8145, Note_on_c, 0, 60, 0
1, 8145, Note_on_c, 0, 64, 0
1, 8232, Note_on_c, 0, 84, 0
1, 8232, Note_on_c, 0, 81, 68
1, 8232, Note_on_c, 0, 64, 50
1, 8235, Note_on_c, 0, 60, 42
1, 8307, Note_on_c, 0, 81, 0
1, 8307, Note_on_c, 0, 60, 0
1, 8307, Note_on_c, 0, 64, 0
1, 8381, Note_on_c, 0, 84, 65
1, 8381, Note_on_c, 0, 64, 50
1, 8381, Note_on_c, 0, 60, 42
1, 8461, Note_on_c, 0, 84, 0
1, 8461, Note_on_c, 0, 60, 0
1, 8461, Note_on_c, 0, 64, 0
1, 8516, Note_on_c, 0, 79, 63
1, 8533, Note_on_c, 0, 79, 0
1, 8533, Note_on_c, 0, 81, 63
1, 8549, Note_on_c, 0, 81, 0
1, 8549, Note_on_c, 0, 83, 80
1, 8549, Note_on_c, 0, 52, 65
1, 8625, Note_on_c, 0, 83, 0
1, 8625, Note_on_c, 0, 52, 0
1, 8701, Note_on_c, 0, 78, 54
1, 8701, Note_on_c, 0, 81, 64
1, 8701, Note_on_c, 0, 64, 53
1, 8704, Note_on_c, 0, 59, 44
1, 8777, Note_on_c, 0, 81, 0
1, 8777, Note_on_c, 0, 78, 0
1, 8777, Note_on_c, 0, 59, 0
1, 8780, Note_on_c, 0, 64, 0
1, 8853, Note_on_c, 0, 76, 58
1, 8853, Note_on_c, 0, 79, 69
1, 8853, Note_on_c, 0, 64, 53
1, 8856, Note_on_c, 0, 59, 44
1, 8927, Note_on_c, 0, 79, 0
1, 8927, Note_on_c, 0, 76, 0
1, 8927, Note_on_c, 0, 59, 0
1, 8930, Note_on_c, 0, 64, 0
1, 9002, Note_on_c, 0, 78, 54
1, 9002, Note_on_c, 0, 81, 64
1, 9002, Note_on_c, 0, 64, 53
1, 9005, Note_on_c, 0, 59, 44
1, 9082, Note_on_c, 0, 81, 0
1, 9082, Note_on_c, 0, 78, 0
1, 9082, Note_on_c, 0, 59, 0
1, 9085, Note_on_c, 0, 64, 0
1, 9135, Note_on_c, 0, 79, 65
1, 9152, Note_on_c, 0, 79, 0
1, 9152, Note_on_c, 0, 81, 65
1, 9169, Note_on_c, 0, 81, 0
1, 9169, Note_on_c, 0, 83, 82
1, 9169, Note_on_c, 0, 52, 66
1, 9245, Note_on_c, 0, 83, 0
1, 9245, Note_on_c, 0, 52, 0
1, 9321, Note_on_c, 0, 78, 56
1, 9321, Note_on_c, 0, 81, 66
1, 9321, Note_on_c, 0, 64, 52
1, 9324, Note_on_c, 0, 59, 43
1, 9397, Note_on_c, 0, 81, 0
1, 9397, Note_on_c, 0, 78, 0
1, 9397, Note_on_c, 0, 59, 0
1, 9400, Note_on_c, 0, 64, 0
1, 9473, Note_on_c, 0, 76, 58
1, 9473, Note_on_c, 0, 79, 69
1, 9473, Note_on_c, 0, 64, 52
1, 9476, Note_on_c, 0, 59, 43
1, 9547, Note_on_c, 0, 79, 0
1, 9547, Note_on_c, 0, 76, 0
1, 9547, Note_on_c, 0, 59, 0
1, 9550, Note_on_c, 0, 64, 0
1, 9621, Note_on_c, 0, 78, 55
1, 9621, Note_on_c, 0, 81, 65
1, 9621, Note_on_c, 0, 64, 52
1, 9624, Note_on_c, 0, 59, 43
1, 9702, Note_on_c, 0, 81, 0
1, 9702, Note_on_c, 0, 78, 0
1, 9702, Note_on_c, 0, 59, 0
1, 9705, Note_on_c, 0, 64, 0
1, 9754, Note_on_c, 0, 79, 64
1, 9770, Note_on_c, 0, 79, 0
1, 9770, Note_on_c, 0, 81, 64
1, 9787, Note_on_c, 0, 83, 79
1, 9787, Note_on_c, 0, 52, 67
1, 9806, Note_on_c, 0, 81, 0
1, 9862, Note_on_c, 0, 83, 0
1, 9862, Note_on_c, 0, 52, 0
1, 9937, Note_on_c, 0, 78, 57
1, 9937, Note_on_c, 0, 81, 68
1, 9937, Note_on_c, 0, 64, 52
1, 9940, Note_on_c, 0, 59, 43
1, 10012, Note_on_c, 0, 81, 0
1, 10012, Note_on_c, 0, 78, 0
1, 10012, Note_on_c, 0, 59, 0
1, 10015, Note_on_c, 0, 64, 0
1, 10086, Note_on_c, 0, 76, 58
1, 10086, Note_on_c, 0, 79, 69
1, 10086, Note_on_c, 0, 47, 52
1, 10168, Note_on_c, 0, 79, 0
1, 10168, Note_on_c, 0, 76, 0
1, 10168, Note_on_c, 0, 47, 0
1, 10249, Note_on_c, 0, 75, 56
1, 10249, Note_on_c, 0, 78, 66
1, 10249, Note_on_c, 0, 59, 52
1, 10341, Note_on_c, 0, 78, 0
1, 10341, Note_on_c, 0, 75, 0
1, 10341, Note_on_c, 0, 59, 0
1, 10433, Note_on_c, 0, 76, 69
1, 10433, Note_on_c, 0, 52, 57
1, 10757, Note_on_c, 0, 76, 0
1, 10757, Note_on_c, 0, 52, 0
1, 10779, Note_on_c, 0, 72, 56
1, 10779, Note_on_c, 0, 76, 56
1, 10860, Note_on_c, 0, 76, 0
1, 10860, Note_on_c, 0, 72, 0
1, 10942, Note_on_c, 0, 74, 56
1, 10942, Note_on_c, 0, 77, 56
1, 11021, Note_on_c, 0, 77, 0
1, 11021, Note_on_c, 0, 74, 0
1, 11101, Note_on_c, 0, 76, 66
1, 11101, Note_on_c, 0, 79, 66
1, 11101, Note_on_c, 0, 48, 59
1, 11179, Note_on_c, 0, 79, 0
1, 11179, Note_on_c, 0, 76, 0
1, 11179, Note_on_c, 0, 48, 0
1, 11257, Note_on_c, 0, 76, 57
1, 11257, Note_on_c, 0, 79, 57
1, 11257, Note_on_c, 0, 60, 53
1, 11335, Note_on_c, 0, 79, 0
1, 11335, Note_on_c, 0, 76, 0
1, 11335, Note_on_c, 0, 60, 0
1, 11413, Note_on_c, 0, 81, 64
1, 11413, Note_on_c, 0, 52, 59
1, 11490, Note_on_c, 0, 81, 0
1, 11490, Note_on_c, 0, 79, 57
1, 11490, Note_on_c, 0, 52, 0
1, 11512, Control_c, 0, 64, 127
1, 11567, Note_on_c, 0, 79, 0
1, 11567, Note_on_c, 0, 77, 57
1, 11567, Note_on_c, 0, 64, 57
1, 11648, Note_on_c, 0, 77, 0
1, 11648, Note_on_c, 0, 76, 57
1, 11648, Note_on_c, 0, 64, 0
1, 11732, Note_on_c, 0, 76, 0
1, 11732, Note_on_c, 0, 74, 65
1, 11732, Note_on_c, 0, 71, 65
1, 11735, Note_on_c, 0, 55, 60
1, 11735, Control_c, 0, 64, 0
1, 11818, Control_c, 0, 64, 127
1, 11894, Note_on_c, 0, 71, 0
1, 11894, Note_on_c, 0, 67, 59
1, 12057, Note_on_c, 0, 67, 0
1, 12057, Note_on_c, 0, 74, 0
1, 12057, Note_on_c, 0, 72, 56
1, 12060, Note_on_c, 0, 76, 56
1, 12060, Note_on_c, 0, 55, 0
1, 12060, Control_c, 0, 64, 0
1, 12138, Note_on_c, 0, 76, 0
1, 12138, Note_on_c, 0, 72, 0
1, 12219, Note_on_c, 0, 74, 56
1, 12219, Note_on_c, 0, 77, 56
1, 12299, Note_on_c, 0, 77, 0
1, 12299, Note_on_c, 0, 74, 0
1, 12379, Note_on_c, 0, 76, 66
1, 12379, Note_on_c, 0, 79, 66
1, 12379, Note_on_c, 0, 48, 59
1, 12457, Note_on_c, 0, 79, 0
1, 12457, Note_on_c, 0, 76, 0
1, 12457, Note_on_c, 0, 48, 0
1, 12535, Note_on_c, 0, 76, 57
1, 12535, Note_on_c, 0, 79, 57
1, 12535, Note_on_c, 0, 60, 53
1, 12613, Note_on_c, 0, 79, 0
1, 12613, Note_on_c, 0, 76, 0
1, 12613, Note_on_c, 0, 60, 0
1, 12691, Note_on_c, 0, 81, 64
1, 12691, Note_on_c, 0, 52, 59
1, 12768, Note_on_c, 0, 81, 0
1, 12768, Note_on_c, 0, 79, 57
1, 12768, Note_on_c, 0, 52, 0
1, 12790, Control_c, 0, 64, 127
1, 12845, Note_on_c, 0, 79, 0
1, 12845, Note_on_c, 0, 77, 57
1, 12845, Note_on_c, 0, 64, 57
1, 12925, Note_on_c, 0, 77, 0
1, 12925, Note_on_c, 0, 76, 57
1, 12925, Note_on_c, 0, 64, 0
1, 13010, Note_on_c, 0, 76, 0
1, 13010, Note_on_c, 0, 74, 65
1, 13010, Note_on_c, 0, 71, 65
1, 13013, Note_on_c, 0, 55, 60
1, 13013, Control_c, 0, 64, 0
1, 13095, Control_c, 0, 64, 127
1, 13334, Note_on_c, 0, 71, 0
1, 13334, Note_on_c, 0, 74, 0
1, 13334, Note_on_c, 0, 69, 56
1, 13337, Note_on_c, 0, 72, 56
1, 13337, Note_on_c, 0, 55, 0
1, 13337, Control_c, 0, 64, 0
1, 13419, Note_on_c, 0, 72, 0
1, 13419, Note_on_c, 0, 69, 0
1, 13504, Note_on_c, 0, 71, 56
1, 13504, Note_on_c, 0, 74, 56
1, 13584, Note_on_c, 0, 74, 0
1, 13584, Note_on_c, 0, 71, 0
1, 13664, Note_on_c, 0, 72, 66
1, 13664, Note_on_c, 0, 76, 66
1, 13664, Note_on_c, 0, 45, 59
1, 13742, Note_on_c, 0, 76, 0
1, 13742, Note_on_c, 0, 72, 0
1, 13742, Note_on_c, 0, 45, 0
1, 13820, Note_on_c, 0, 72, 57
1, 13820, Note_on_c, 0, 76, 57
1, 13820, Note_on_c, 0, 57, 53
1, 13898, Note_on_c, 0, 76, 0
1, 13898, Note_on_c, 0, 72, 0
1, 13898, Note_on_c, 0, 57, 0
1, 13976, Note_on_c, 0, 77, 64
1, 13976, Note_on_c, 0, 48, 59
1, 14053, Note_on_c, 0, 77, 0
1, 14053, Note_on_c, 0, 76, 57
1, 14053, Note_on_c, 0, 48, 0
1, 14075, Control_c, 0, 64, 127
1, 14130, Note_on_c, 0, 76, 0
1, 14130, Note_on_c, 0, 74, 57
1, 14130, Note_on_c, 0, 60, 57
1, 14210, Note_on_c, 0, 74, 0
1, 14210, Note_on_c, 0, 72, 57
1, 14210, Note_on_c, 0, 60, 0
1, 14295, Note_on_c, 0, 72, 0
1, 14295, Note_on_c, 0, 71, 65
1, 14295, Note_on_c, 0, 68, 65
1, 14298, Note_on_c, 0, 52, 60
1, 14298, Control_c, 0, 64, 0
1, 14380, Control_c, 0, 64, 127
1, 14456, Note_on_c, 0, 68, 0
1, 14456, Note_on_c, 0, 64, 59
1, 14618, Note_on_c, 0, 64, 0
1, 14618, Note_on_c, 0, 71, 0
1, 14618, Note_on_c, 0, 69, 56
1, 14621, Note_on_c, 0, 72, 56
1, 14621, Note_on_c, 0, 52, 0
1, 14621, Control_c, 0, 64, 0
1, 14699, Note_on_c, 0, 72, 0
1, 14699, Note_on_c, 0, 69, 0
1, 14781, Note_on_c, 0, 71, 56
1, 14781, Note_on_c, 0, 74, 56
1, 14860, Note_on_c, 0, 74, 0
1, 14860, Note_on_c, 0, 71, 0
1, 14940, Note_on_c, 0, 72, 66
1, 14940, Note_on_c, 0, 76, 66
1, 14940, Note_on_c, 0, 45, 59
1, 15018, Note_on_c, 0, 76, 0
1, 15018, Note_on_c, 0, 72, 0
1, 15018, Note_on_c, 0, 45, 0
1, 15096, Note_on_c, 0, 72, 57
1, 15096, Note_on_c, 0, 76, 57
1, 15096, Note_on_c, 0, 57, 53
1, 15174, Note_on_c, 0, 76, 0
1, 15174, Note_on_c, 0, 72, 0
1, 15174, Note_on_c, 0, 57, 0
1, 15252, Note_on_c, 0, 77, 64
1, 15252, Note_on_c, 0, 48, 59
1, 15329, Note_on_c, 0, 77, 0
1, 15329, Note_on_c, 0, 76, 57
1, 15329, Note_on_c, 0, 48, 0
1, 15351, Control_c, 0, 64, 127
1, 15406, Note_on_c, 0, 76, 0
1, 15406, Note_on_c, 0, 74, 57
1, 15406, Note_on_c, 0, 60, 57
1, 15487, Note_on_c, 0, 74, 0
1, 15487, Note_on_c, 0, 72, 57
1, 15487, Note_on_c, 0, 60, 0
1, 15571, Note_on_c, 0, 72, 0
1, 15571, Note_on_c, 0, 71, 65
1, 15571, Note_on_c, 0, 68, 65
1, 15574, Note_on_c, 0, 52, 60
1, 15574, Control_c, 0, 64, 0
1, 15657, Control_c, 0, 64, 127
1, 15894, Note_on_c, 0, 68, 0
1, 15894, Note_on_c, 0, 71, 0
1, 15894, Note_on_c, 0, 71, 56
1, 15897, Note_on_c, 0, 52, 0
1, 15897, Control_c, 0, 64, 0
1, 15969, Note_on_c, 0, 71, 0
1, 15969, Note_on_c, 0, 69, 56
1, 16043, Note_on_c, 0, 69, 0
1, 16043, Note_on_c, 0, 68, 56
1, 16117, Note_on_c, 0, 68, 0
1, 16117, Note_on_c, 0, 69, 56
1, 16202, Note_on_c, 0, 69, 0
1, 16202, Note_on_c, 0, 72, 59
1, 16202, Note_on_c, 0, 57, 53
1, 16254, Control_c, 0, 64, 127
1, 16276, Note_on_c, 0, 72, 0
1, 16276, Note_on_c, 0, 57, 0
1, 16351, Note_on_c, 0, 64, 47
1, 16351, Note_on_c, 0, 60, 47
1, 16357, Control_c, 0, 64, 0
1, 16425, Note_on_c, 0, 60, 0
1, 16425, Note_on_c, 0, 64, 0
1, 16510, Note_on_c, 0, 74, 62
1, 16510, Note_on_c, 0, 60, 47
1, 16510, Note_on_c, 0, 64, 47
1, 16571, Control_c, 0, 64, 127
1, 16584, Note_on_c, 0, 74, 0
1, 16584, Note_on_c, 0, 72, 57
1, 16584, Note_on_c, 0, 64, 0
1, 16587, Note_on_c, 0, 60, 0
1, 16659, Note_on_c, 0, 72, 0
1, 16659, Note_on_c, 0, 71, 57
1, 16659, Note_on_c, 0, 60, 47
1, 16662, Note_on_c, 0, 64, 47
1, 16734, Note_on_c, 0, 71, 0
1, 16734, Note_on_c, 0, 72, 57
1, 16734, Note_on_c, 0, 64, 0
1, 16737, Note_on_c, 0, 60, 0
1, 16819, Note_on_c, 0, 72, 0
1, 16819, Note_on_c, 0, 76, 66
1, 16819, Note_on_c, 0, 57, 54
1, 16822, Control_c, 0, 64, 0
1, 16865, Control_c, 0, 64, 127
1, 16894, Note_on_c, 0, 76, 0
1, 16894, Note_on_c, 0, 57, 0
1, 16968, Note_on_c, 0, 64, 48
1, 16968, Note_on_c, 0, 60, 48
1, 16974, Control_c, 0, 64, 0
1, 17042, Note_on_c, 0, 60, 0
1, 17042, Note_on_c, 0, 64, 0
1, 17125, Note_on_c, 0, 77, 63
1, 17125, Note_on_c, 0, 64, 48
1, 17125, Note_on_c, 0, 60, 48
1, 17167, Control_c, 0, 64, 127
1, 17199, Note_on_c, 0, 77, 0
1, 17199, Note_on_c, 0, 76, 58
1, 17199, Note_on_c, 0, 60, 0
1, 17202, Note_on_c, 0, 64, 0
1, 17274, Note_on_c, 0, 76, 0
1, 17274, Note_on_c, 0, 75, 58
1, 17274, Note_on_c, 0, 64, 48
1, 17277, Note_on_c, 0, 60, 48
1, 17348, Note_on_c, 0, 75, 0
1, 17348, Note_on_c, 0, 76, 58
1, 17348, Note_on_c, 0, 60, 0
1, 17351, Note_on_c, 0, 64, 0
1, 17426, Note_on_c, 0, 76, 0
1, 17426, Note_on_c, 0, 83, 70
1, 17426, Note_on_c, 0, 57, 56
1, 17429, Control_c, 0, 64, 0
1, 17483, Control_c, 0, 64, 127
1, 17501, Note_on_c, 0, 83, 0
1, 17501, Note_on_c, 0, 81, 63
1, 17501, Note_on_c, 0, 57, 0
1, 17576, Note_on_c, 0, 81, 0
1, 17576, Note_on_c, 0, 80, 63
1, 17576, Note_on_c, 0, 64, 49
1, 17579, Note_on_c, 0, 60, 49
1, 17651, Note_on_c, 0, 80, 0
1, 17651, Note_on_c, 0, 81, 63
1, 17651, Note_on_c, 0, 60, 0
1, 17654, Note_on_c, 0, 64, 0
1, 17726, Note_on_c, 0, 81, 0
1, 17726, Note_on_c, 0, 83, 71
1, 17726, Note_on_c, 0, 57, 57
1, 17729, Control_c, 0, 64, 0
1, 17762, Control_c, 0, 64, 127
1, 17803, Note_on_c, 0, 83, 0
1, 17803, Note_on_c, 0, 81, 64
1, 17803, Note_on_c, 0, 57, 0
1, 17881, Note_on_c, 0, 81, 0
1, 17881, Note_on_c, 0, 80, 64
1, 17881, Note_on_c, 0, 64, 52
1, 17884, Note_on_c, 0, 60, 43
1, 17958, Note_on_c, 0, 80, 0
1, 17958, Note_on_c, 0, 81, 64
1, 17958, Note_on_c, 0, 60, 0
1, 17961, Note_on_c, 0, 64, 0
1, 18054, Note_on_c, 0, 81, 0
1, 18054, Note_on_c, 0, 84, 76
1, 18054, Note_on_c, 0, 53, 57
1, 18057, Control_c, 0, 64, 0
1, 18085, Control_c, 0, 64, 127
1, 18130, Note_on_c, 0, 53, 0
1, 18207, Note_on_c, 0, 63, 51
1, 18207, Note_on_c, 0, 57, 51
1, 18213, Control_c, 0, 64, 0
1, 18287, Note_on_c, 0, 57, 0
1, 18287, Note_on_c, 0, 63, 0
1, 18374, Note_on_c, 0, 84, 0
1, 18374, Note_on_c, 0, 81, 62
1, 18374, Note_on_c, 0, 63, 43
1, 18377, Note_on_c, 0, 57, 43
1, 18451, Note_on_c, 0, 81, 0
1, 18451, Note_on_c, 0, 57, 0
1, 18451, Note_on_c, 0, 63, 0
1, 18527, Note_on_c, 0, 83, 62
1, 18527, Note_on_c, 0, 63, 39
1, 18527, Note_on_c, 0, 57, 39
1, 18608, Note_on_c, 0, 83, 0
1, 18608, Note_on_c, 0, 57, 0
1, 18608, Note_on_c, 0, 63, 0
1, 18688, Note_on_c, 0, 84, 70
1, 18688, Note_on_c, 0, 52, 46
1, 18764, Note_on_c, 0, 84, 0
1, 18764, Note_on_c, 0, 52, 0
1, 18840, Note_on_c, 0, 83, 62
1, 18840, Note_on_c, 0, 64, 42
1, 18840, Note_on_c, 0, 57, 42
1, 18916, Note_on_c, 0, 83, 0
1, 18916, Note_on_c, 0, 57, 0
1, 18916, Note_on_c, 0, 64, 0
1, 18991, Note_on_c, 0, 81, 62
1, 18991, Note_on_c, 0, 50, 42
1, 19066, Note_on_c, 0, 81, 0
1, 19066, Note_on_c, 0, 50, 0
1, 19140, Note_on_c, 0, 80, 62
1, 19140, Note_on_c, 0, 59, 42
1, 19140, Note_on_c, 0, 53, 42
1, 19220, Note_on_c, 0, 80, 0
1, 19220, Note_on_c, 0, 53, 0
1, 19220, Note_on_c, 0, 59, 0
1, 19301, Note_on_c, 0, 81, 71
1, 19301, Note_on_c, 0, 48, 47
1, 19377, Note_on_c, 0, 81, 0
1, 19377, Note_on_c, 0, 48, 0
1, 19452, Note_on_c, 0, 76, 64
1, 19452, Note_on_c, 0, 57, 39
1, 19452, Note_on_c, 0, 52, 39
1, 19528, Note_on_c, 0, 76, 0
1, 19528, Note_on_c, 0, 52, 0
1, 19528, Note_on_c, 0, 57, 0
1, 19604, Note_on_c, 0, 50, 41
1, 19604, Note_on_c, 0, 77, 64
1, 19679, Note_on_c, 0, 50, 0
1, 19679, Note_on_c, 0, 77, 0
1, 19753, Note_on_c, 0, 74, 64
1, 19753, Note_on_c, 0, 59, 41
1, 19753, Note_on_c, 0, 53, 41
1, 19834, Note_on_c, 0, 74, 0
1, 19834, Note_on_c, 0, 53, 0
1, 19834, Note_on_c, 0, 59, 0
1, 19915, Note_on_c, 0, 72, 74
1, 19915, Note_on_c, 0, 52, 48
1, 19915, Note_on_c, 0, 57, 48
1, 19966, Control_c, 0, 64, 127
1, 19992, Note_on_c, 0, 57, 0
1, 19992, Note_on_c, 0, 52, 0
1, 20069, Note_on_c, 0, 57, 41
1, 20069, Note_on_c, 0, 52, 41
1, 20145, Note_on_c, 0, 52, 0
1, 20145, Note_on_c, 0, 57, 0
1, 20219, Note_on_c, 0, 52, 41
1, 20222, Note_on_c, 0, 72, 0
1, 20222, Note_on_c, 0, 72, 64
1, 20222, Note_on_c, 0, 56, 41
1, 20230, Control_c, 0, 64, 0
1, 20260, Note_on_c, 0, 71, 57
1, 20263, Note_on_c, 0, 72, 0
1, 20284, Control_c, 0, 64, 127
1, 20300, Note_on_c, 0, 52, 0
1, 20300, Note_on_c, 0, 71, 0
1, 20300, Note_on_c, 0, 72, 57
1, 20304, Note_on_c, 0, 56, 0
1, 20342, Note_on_c, 0, 72, 0
1, 20342, Note_on_c, 0, 71, 57
1, 20382, Note_on_c, 0, 71, 0
1, 20385, Note_on_c, 0, 52, 41
1, 20385, Note_on_c, 0, 56, 41
1, 20390, Note_on_c, 0, 72, 57
1, 20425, Note_on_c, 0, 71, 57
1, 20432, Note_on_c, 0, 72, 0
1, 20460, Note_on_c, 0, 69, 64
1, 20468, Note_on_c, 0, 71, 0
1, 20471, Note_on_c, 0, 56, 0
1, 20471, Note_on_c, 0, 52, 0
1, 20508, Note_on_c, 0, 69, 0
1, 20508, Note_on_c, 0, 71, 57
1, 20566, Note_on_c, 0, 71, 0
1, 20578, Note_on_c, 0, 69, 65
1, 20578, Note_on_c, 0, 45, 46
1, 20578, Note_on_c, 0, 57, 46
1, 20581, Control_c, 0, 64, 0
1, 20909, Note_on_c, 0, 69, 0
1, 20909, Note_on_c, 0, 57, 0
1, 20931, Note_on_c, 0, 72, 56
1, 20931, Note_on_c, 0, 76, 56
1, 20931, Note_on_c, 0, 45, 0
1, 21013, Note_on_c, 0, 76, 0
1, 21013, Note_on_c, 0, 72, 0
1, 21094, Note_on_c, 0, 74, 56
1, 21094, Note_on_c, 0, 77, 56
1, 21174, Note_on_c, 0, 77, 0
1, 21174, Note_on_c, 0, 74, 0
1, 21254, Note_on_c, 0, 76, 66
1, 21254, Note_on_c, 0, 79, 66
1, 21254, Note_on_c, 0, 48, 59
1, 21332, Note_on_c, 0, 79, 0
1, 21332, Note_on_c, 0, 76, 0
1, 21332, Note_on_c, 0, 48, 0
1, 21410, Note_on_c, 0, 76, 57
1, 21410, Note_on_c, 0, 79, 57
1, 21410, Note_on_c, 0, 60, 53
1, 21488, Note_on_c, 0, 79, 0
1, 21488, Note_on_c, 0, 76, 0
1, 21488, Note_on_c, 0, 60, 0
1, 21566, Note_on_c, 0, 81, 64
1, 21566, Note_on_c, 0, 52, 59
1, 21642, Note_on_c, 0, 81, 0
1, 21642, Note_on_c, 0, 79, 57
1, 21642, Note_on_c, 0, 52, 0
1, 21665, Control_c, 0, 64, 127
1, 21719, Note_on_c, 0, 79, 0
1, 21719, Note_on_c, 0, 77, 57
1, 21719, Note_on_c, 0, 64, 57
1, 21800, Note_on_c, 0, 77, 0
1, 21800, Note_on_c, 0, 76, 57
1, 21800, Note_on_c, 0, 64, 0
1, 21885, Note_on_c, 0, 76, 0
1, 21885, Note_on_c, 0, 74, 65
1, 21885, Note_on_c, 0, 71, 65
1, 21888, Note_on_c, 0, 55, 60
1, 21888, Control_c, 0, 64, 0
1, 21970, Control_c, 0, 64, 127
1, 22046, Note_on_c, 0, 71, 0
1, 22046, Note_on_c, 0, 67, 59
1, 22209, Note_on_c, 0, 67, 0
1, 22209, Note_on_c, 0, 74, 0
1, 22209, Note_on_c, 0, 72, 56
1, 22212, Note_on_c, 0, 76, 56
1, 22212, Note_on_c, 0, 55, 0
1, 22212, Control_c, 0, 64, 0
1, 22290, Note_on_c, 0, 76, 0
1, 22290, Note_on_c, 0, 72, 0
1, 22372, Note_on_c, 0, 74, 56
1, 22372, Note_on_c, 0, 77, 56
1, 22451, Note_on_c, 0, 77, 0
1, 22451, Note_on_c, 0, 74, 0
1, 22531, Note_on_c, 0, 76, 66
1, 22531, Note_on_c, 0, 79, 66
1, 22531, Note_on_c, 0, 48, 59
1, 22609, Note_on_c, 0, 79, 0
1, 22609, Note_on_c, 0, 76, 0
1, 22609, Note_on_c, 0, 48, 0
1, 22687, Note_on_c, 0, 76, 57
1, 22687, Note_on_c, 0, 79, 57
1, 22687, Note_on_c, 0, 60, 53
1, 22765, Note_on_c, 0, 79, 0
1, 22765, Note_on_c, 0, 76, 0
1, 22765, Note_on_c, 0, 60, 0
1, 22843, Note_on_c, 0, 81, 64
1, 22843, Note_on_c, 0, 52, 59
1, 22920, Note_on_c, 0, 81, 0
1, 22920, Note_on_c, 0, 79, 57
1, 22920, Note_on_c, 0, 52, 0
1, 22943, Control_c, 0, 64, 127
1, 22997, Note_on_c, 0, 79, 0
1, 22997, Note_on_c, 0, 77, 57
1, 22997, Note_on_c, 0, 64, 57
1, 23078, Note_on_c, 0, 77, 0
1, 23078, Note_on_c, 0, 76, 57
1, 23078, Note_on_c, 0, 64, 0
1, 23162, Note_on_c, 0, 76, 0
1, 23162, Note_on_c, 0, 74, 65
1, 23162, Note_on_c, 0, 71, 65
1, 23165, Note_on_c, 0, 55, 60
1, 23165, Control_c, 0, 64, 0
1, 23248, Control_c, 0, 64, 127
1, 23487, Note_on_c, 0, 71, 0
1, 23487, Note_on_c, 0, 74, 0
1, 23487, Note_on_c, 0, 69, 56
1, 23490, Note_on_c, 0, 72, 56
1, 23490, Note_on_c, 0, 55, 0
1, 23490, Control_c, 0, 64, 0
1, 23572, Note_on_c, 0, 72, 0
1, 23572, Note_on_c, 0, 69, 0
1, 23657, Note_on_c, 0, 71, 56
1, 23657, Note_on_c, 0, 74, 56
1, 23737, Note_on_c, 0, 74, 0
1, 23737, Note_on_c, 0, 71, 0
1, 23816, Note_on_c, 0, 72, 66
1, 23816, Note_on_c, 0, 76, 66
1, 23816, Note_on_c, 0, 45, 59
1, 23894, Note_on_c, 0, 76, 0
1, 23894, Note_on_c, 0, 72, 0
1, 23894, Note_on_c, 0, 45, 0
1, 23972, Note_on_c, 0, 72, 57
1, 23972, Note_on_c, 0, 76, 57
1, 23972, Note_on_c, 0, 57, 53
1, 24050, Note_on_c, 0, 76, 0
1, 24050, Note_on_c, 0, 72, 0
1, 24050, Note_on_c, 0, 57, 0
1, 24128, Note_on_c, 0, 77, 64
1, 24128, Note_on_c, 0, 48, 59
1, 24205, Note_on_c, 0, 77, 0
1, 24205, Note_on_c, 0, 76, 57
1, 24205, Note_on_c, 0, 48, 0
1, 24228, Control_c, 0, 64, 127
1, 24282, Note_on_c, 0, 76, 0
1, 24282, Note_on_c, 0, 74, 57
1, 24282, Note_on_c, 0, 60, 57
1, 24363, Note_on_c, 0, 74, 0
1, 24363, Note_on_c, 0, 72, 57
1, 24363, Note_on_c, 0, 60, 0
1, 24447, Note_on_c, 0, 72, 0
1, 24447, Note_on_c, 0, 71, 65
1, 24447, Note_on_c, 0, 68, 65
1, 24450, Note_on_c, 0, 52, 60
1, 24450, Control_c, 0, 64, 0
1, 24533, Control_c, 0, 64, 127
1, 24609, Note_on_c, 0, 68, 0
1, 24609, Note_on_c, 0, 64, 59
1, 24770, Note_on_c, 0, 64, 0
1, 24770, Note_on_c, 0, 71, 0
1, 24770, Note_on_c, 0, 69, 56
1, 24773, Note_on_c, 0, 72, 56
1, 24773, Note_on_c, 0, 52, 0
1, 24773, Control_c, 0, 64, 0
1, 24852, Note_on_c, 0, 72, 0
1, 24852, Note_on_c, 0, 69, 0
1, 24933, Note_on_c, 0, 71, 56
1, 24933, Note_on_c, 0, 74, 56
1, 25013, Note_on_c, 0, 74, 0
1, 25013, Note_on_c, 0, 71, 0
1, 25093, Note_on_c, 0, 72, 66
1, 25093, Note_on_c, 0, 76, 66
1, 25093, Note_on_c, 0, 45, 59
1, 25171, Note_on_c, 0, 76, 0
1, 25171, Note_on_c, 0, 72, 0
1, 25171, Note_on_c, 0, 45, 0
1, 25249, Note_on_c, 0, 72, 57
1, 25249, Note_on_c, 0, 76, 57
1, 25249, Note_on_c, 0, 57, 53
1, 25327, Note_on_c, 0, 76, 0
1, 25327, Note_on_c, 0, 72, 0
1, 25327, Note_on_c, 0, 57, 0
1, 25405, Note_on_c, 0, 77, 64
1, 25405, Note_on_c, 0, 48, 59
1, 25481, Note_on_c, 0, 77, 0
1, 25481, Note_on_c, 0, 76, 57
1, 25481, Note_on_c, 0, 48, 0
1, 25504, Control_c, 0, 64, 127
1, 25558, Note_on_c, 0, 76, 0
1, 25558, Note_on_c, 0, 74, 57
1, 25558, Note_on_c, 0, 60, 57
1, 25639, Note_on_c, 0, 74, 0
1, 25639, Note_on_c, 0, 72, 57
1, 25639, Note_on_c, 0, 60, 0
1, 25724, Note_on_c, 0, 72, 0
1, 25724, Note_on_c, 0, 71, 65
1, 25724, Note_on_c, 0, 68, 65
1, 25727, Note_on_c, 0, 52, 60
1, 25727, Control_c, 0, 64, 0
1, 25809, Control_c, 0, 64, 127
1, 26047, Note_on_c, 0, 68, 0
1, 26047, Note_on_c, 0, 71, 0
1, 26047, Note_on_c, 0, 71, 56
1, 26050, Note_on_c, 0, 52, 0
1, 26050, Control_c, 0, 64, 0
1, 26121, Note_on_c, 0, 71, 0
1, 26121, Note_on_c, 0, 69, 56
1, 26196, Note_on_c, 0, 69, 0
1, 26196, Note_on_c, 0, 68, 56
1, 26270, Note_on_c, 0, 68, 0
1, 26270, Note_on_c, 0, 69, 56
1, 26354, Note_on_c, 0, 69, 0
1, 26354, Note_on_c, 0, 72, 59
1, 26354, Note_on_c, 0, 57, 53
1, 26406, Control_c, 0, 64, 127
1, 26429, Note_on_c, 0, 72, 0
1, 26429, Note_on_c, 0, 57, 0
1, 26503, Note_on_c, 0, 64, 47
1, 26503, Note_on_c, 0, 60, 47
1, 26509, Control_c, 0, 64, 0
1, 26578, Note_on_c, 0, 60, 0
1, 26578, Note_on_c, 0, 64, 0
1, 26662, Note_on_c, 0, 74, 62
1, 26662, Note_on_c, 0, 60, 47
1, 26662, Note_on_c, 0, 64, 47
1, 26724, Control_c, 0, 64, 127
1, 26737, Note_on_c, 0, 74, 0
1, 26737, Note_on_c, 0, 72, 57
1, 26737, Note_on_c, 0, 64, 0
1, 26740, Note_on_c, 0, 60, 0
1, 26812, Note_on_c, 0, 72, 0
1, 26812, Note_on_c, 0, 71, 57
1, 26812, Note_on_c, 0, 60, 47
1, 26815, Note_on_c, 0, 64, 47
1, 26887, Note_on_c, 0, 71, 0
1, 26887, Note_on_c, 0, 72, 57
1, 26887, Note_on_c, 0, 64, 0
1, 26890, Note_on_c, 0, 60, 0
1, 26972, Note_on_c, 0, 72, 0
1, 26972, Note_on_c, 0, 76, 66
1, 26972, Note_on_c, 0, 57, 54
1, 26975, Control_c, 0, 64, 0
1, 27018, Control_c, 0, 64, 127
1, 27046, Note_on_c, 0, 76, 0
1, 27046, Note_on_c, 0, 57, 0
1, 27120, Note_on_c, 0, 64, 48
1, 27120, Note_on_c, 0, 60, 48
1, 27127, Control_c, 0, 64, 0
1, 27195, Note_on_c, 0, 60, 0
1, 27195, Note_on_c, 0, 64, 0
1, 27277, Note_on_c, 0, 77, 63
1, 27277, Note_on_c, 0, 64, 48
1, 27277, Note_on_c, 0, 60, 48
1, 27320, Control_c, 0, 64, 127
1, 27352, Note_on_c, 0, 77, 0
1, 27352, Note_on_c, 0, 76, 58
1, 27352, Note_on_c, 0, 60, 0
1, 27355, Note_on_c, 0, 64, 0
1, 27426, Note_on_c, 0, 76, 0
1, 27426, Note_on_c, 0, 75, 58
1, 27426, Note_on_c, 0, 64, 48
1, 27429, Note_on_c, 0, 60, 48
1, 27501, Note_on_c, 0, 75, 0
1, 27501, Note_on_c, 0, 76, 58
1, 27501, Note_on_c, 0, 60, 0
1, 27504, Note_on_c, 0, 64, 0
1, 27579, Note_on_c, 0, 76, 0
1, 27579, Note_on_c, 0, 83, 70
1, 27579, Note_on_c, 0, 57, 56
1, 27582, Control_c, 0, 64, 0
1, 27635, Control_c, 0, 64, 127
1, 27653, Note_on_c, 0, 83, 0
1, 27653, Note_on_c, 0, 81, 63
1, 27653, Note_on_c, 0, 57, 0
1, 27728, Note_on_c, 0, 81, 0
1, 27728, Note_on_c, 0, 80, 63
1, 27728, Note_on_c, 0, 64, 49
1, 27731, Note_on_c, 0, 60, 49
1, 27803, Note_on_c, 0, 80, 0
1, 27803, Note_on_c, 0, 81, 63
1, 27803, Note_on_c, 0, 60, 0
1, 27806, Note_on_c, 0, 64, 0
1, 27878, Note_on_c, 0, 81, 0
1, 27878, Note_on_c, 0, 83, 71
1, 27878, Note_on_c, 0, 57, 57
1, 27881, Control_c, 0, 64, 0
1, 27915, Control_c, 0, 64, 127
1, 27956, Note_on_c, 0, 83, 0
1, 27956, Note_on_c, 0, 81, 64
1, 27956, Note_on_c, 0, 57, 0
1, 28033, Note_on_c, 0, 81, 0
1, 28033, Note_on_c, 0, 80, 64
1, 28033, Note_on_c, 0, 64, 52
1, 28036, Note_on_c, 0, 60, 43
1, 28110, Note_on_c, 0, 80, 0
1, 28110, Note_on_c, 0, 81, 64
1, 28110, Note_on_c, 0, 60, 0
1, 28113, Note_on_c, 0, 64, 0
1, 28206, Note_on_c, 0, 81, 0
1, 28206, Note_on_c, 0, 84, 76
1, 28206, Note_on_c, 0, 53, 57
1, 28209, Control_c, 0, 64, 0
1, 28238, Control_c, 0, 64, 127
1, 28283, Note_on_c, 0, 53, 0
1, 28359, Note_on_c, 0, 63, 51
1, 28359, Note_on_c, 0, 57, 51
1, 28366, Control_c, 0, 64, 0
1, 28439, Note_on_c, 0, 57, 0
1, 28439, Note_on_c, 0, 63, 0
1, 28526, Note_on_c, 0, 84, 0
1, 28526, Note_on_c, 0, 81, 62
1, 28526, Note_on_c, 0, 63, 43
1, 28529, Note_on_c, 0, 57, 43
1, 28603, Note_on_c, 0, 81, 0
1, 28603, Note_on_c, 0, 57, 0
1, 28603, Note_on_c, 0, 63, 0
1, 28680, Note_on_c, 0, 83, 62
1, 28680, Note_on_c, 0, 63, 39
1, 28680, Note_on_c, 0, 57, 39
1, 28760, Note_on_c, 0, 83, 0
1, 28760, Note_on_c, 0, 57, 0
1, 28760, Note_on_c, 0, 63, 0
1, 28840, Note_on_c, 0, 84, 70
1, 28840, Note_on_c, 0, 52, 46
1, 28916, Note_on_c, 0, 84, 0
1, 28916, Note_on_c, 0, 52, 0
1, 28992, Note_on_c, 0, 83, 62
1, 28992, Note_on_c, 0, 64, 42
1, 28992, Note_on_c, 0, 57, 42
1, 29068, Note_on_c, 0, 83, 0
1, 29068, Note_on_c, 0, 57, 0
1, 29068, Note_on_c, 0, 64, 0
1, 29144, Note_on_c, 0, 81, 62
1, 29144, Note_on_c, 0, 50, 42
1, 29218, Note_on_c, 0, 81, 0
1, 29218, Note_on_c, 0, 50, 0
1, 29293, Note_on_c, 0, 80, 62
1, 29293, Note_on_c, 0, 59, 42
1, 29293, Note_on_c, 0, 53, 42
1, 29373, Note_on_c, 0, 80, 0
1, 29373, Note_on_c, 0, 53, 0
1, 29373, Note_on_c, 0, 59, 0
1, 29453, Note_on_c, 0, 81, 71
1, 29453, Note_on_c, 0, 48, 47
1, 29529, Note_on_c, 0, 81, 0
1, 29529, Note_on_c, 0, 48, 0
1, 29605, Note_on_c, 0, 76, 64
1, 29605, Note_on_c, 0, 57, 39
1, 29605, Note_on_c, 0, 52, 39
1, 29681, Note_on_c, 0, 76, 0
1, 29681, Note_on_c, 0, 52, 0
1, 29681, Note_on_c, 0, 57, 0
1, 29757, Note_on_c, 0, 50, 41
1, 29757, Note_on_c, 0, 77, 64
1, 29831, Note_on_c, 0, 50, 0
1, 29831, Note_on_c, 0, 77, 0
1, 29905, Note_on_c, 0, 74, 64
1, 29905, Note_on_c, 0, 59, 41
1, 29905, Note_on_c, 0, 53, 41
1, 29986, Note_on_c, 0, 74, 0
1, 29986, Note_on_c, 0, 53, 0
1, 29986, Note_on_c, 0, 59, 0
1, 30067, Note_on_c, 0, 72, 74
1, 30067, Note_on_c, 0, 52, 48
1, 30067, Note_on_c, 0, 57, 48
1, 30118, Control_c, 0, 64, 127
1, 30144, Note_on_c, 0, 57, 0
1, 30144, Note_on_c, 0, 52, 0
1, 30221, Note_on_c, 0, 57, 41
1, 30221, Note_on_c, 0, 52, 41
1, 30298, Note_on_c, 0, 52, 0
1, 30298, Note_on_c, 0, 57, 0
1, 30371, Note_on_c, 0, 52, 41
1, 30375, Note_on_c, 0, 72, 0
1, 30375, Note_on_c, 0, 72, 64
1, 30375, Note_on_c, 0, 56, 41
1, 30382, Control_c, 0, 64, 0
1, 30413, Note_on_c, 0, 71, 57
1, 30416, Note_on_c, 0, 72, 0
1, 30437, Control_c, 0, 64, 127
1, 30452, Note_on_c, 0, 52, 0
1, 30452, Note_on_c, 0, 71, 0
1, 30452, Note_on_c, 0, 72, 57
1, 30456, Note_on_c, 0, 56, 0
1, 30494, Note_on_c, 0, 72, 0
1, 30494, Note_on_c, 0, 71, 57
1, 30535, Note_on_c, 0, 71, 0
1, 30538, Note_on_c, 0, 52, 41
1, 30538, Note_on_c, 0, 56, 41
1, 30543, Note_on_c, 0, 72, 57
1, 30577, Note_on_c, 0, 71, 57
1, 30585, Note_on_c, 0, 72, 0
1, 30613, Note_on_c, 0, 69, 64
1, 30620, Note_on_c, 0, 71, 0
1, 30623, Note_on_c, 0, 56, 0
1, 30623, Note_on_c, 0, 52, 0
1, 30661, Note_on_c, 0, 69, 0
1, 30661, Note_on_c, 0, 71, 57
1, 30719, Note_on_c, 0, 71, 0
1, 30730, Note_on_c, 0, 69, 65
1, 30730, Note_on_c, 0, 45, 46
1, 30730, Note_on_c, 0, 57, 46
1, 30733, Control_c, 0, 64, 0
1, 31062, Note_on_c, 0, 69, 0
1, 31062, Note_on_c, 0, 57, 0
1, 31084, Note_on_c, 0, 69, 73
1, 31084, Note_on_c, 0, 81, 84
1, 31084, Note_on_c, 0, 45, 0
1, 31163, Note_on_c, 0, 81, 0
1, 31163, Note_on_c, 0, 69, 0
1, 31242, Note_on_c, 0, 71, 73
1, 31242, Note_on_c, 0, 83, 84
1, 31323, Note_on_c, 0, 83, 0
1, 31323, Note_on_c, 0, 71, 0
1, 31323, Note_on_c, 0, 45, 64
1, 31350, Note_on_c, 0, 45, 0
1, 31350, Note_on_c, 0, 49, 64
1, 31377, Note_on_c, 0, 49, 0
1, 31377, Note_on_c, 0, 52, 64
1, 31404, Note_on_c, 0, 73, 78
1, 31404, Note_on_c, 0, 85, 90
1, 31404, Note_on_c, 0, 52, 0
1, 31407, Note_on_c, 0, 57, 73
1, 31407, Control_c, 0, 64, 127
1, 31480, Note_on_c, 0, 57, 0
1, 31556, Note_on_c, 0, 57, 69
1, 31563, Control_c, 0, 64, 0
1, 31636, Note_on_c, 0, 57, 0
1, 31715, Note_on_c, 0, 85, 0
1, 31715, Note_on_c, 0, 73, 0
1, 31715, Note_on_c, 0, 69, 73
1, 31718, Note_on_c, 0, 81, 84
1, 31718, Note_on_c, 0, 57, 69
1, 31792, Note_on_c, 0, 81, 0
1, 31792, Note_on_c, 0, 69, 0
1, 31792, Note_on_c, 0, 57, 0
1, 31870, Note_on_c, 0, 71, 73
1, 31870, Note_on_c, 0, 83, 84
1, 31870, Note_on_c, 0, 57, 69
1, 31949, Note_on_c, 0, 83, 0
1, 31949, Note_on_c, 0, 71, 0
1, 31949, Note_on_c, 0, 57, 0
1, 31952, Note_on_c, 0, 45, 60
1, 31975, Note_on_c, 0, 45, 0
1, 31975, Note_on_c, 0, 49, 60
1, 32001, Note_on_c, 0, 49, 0
1, 32001, Note_on_c, 0, 52, 60
1, 32028, Note_on_c, 0, 73, 79
1, 32028, Note_on_c, 0, 85, 91
1, 32028, Note_on_c, 0, 52, 0
1, 32031, Note_on_c, 0, 57, 72
1, 32031, Control_c, 0, 64, 127
1, 32104, Note_on_c, 0, 85, 0
1, 32104, Note_on_c, 0, 73, 0
1, 32104, Note_on_c, 0, 57, 0
1, 32181, Note_on_c, 0, 71, 72
1, 32181, Note_on_c, 0, 83, 82
1, 32181, Note_on_c, 0, 57, 64
1, 32187, Control_c, 0, 64, 0
1, 32258, Note_on_c, 0, 83, 0
1, 32258, Note_on_c, 0, 71, 0
1, 32258, Note_on_c, 0, 57, 0
1, 32334, Note_on_c, 0, 69, 77
1, 32334, Note_on_c, 0, 81, 89
1, 32334, Note_on_c, 0, 57, 65
1, 32411, Note_on_c, 0, 81, 0
1, 32411, Note_on_c, 0, 69, 0
1, 32411, Note_on_c, 0, 57, 0
1, 32488, Note_on_c, 0, 68, 73
1, 32488, Note_on_c, 0, 80, 84
1, 32488, Note_on_c, 0, 57, 67
1, 32572, Note_on_c, 0, 80, 0
1, 32572, Note_on_c, 0, 68, 0
1, 32572, Note_on_c, 0, 57, 0
1, 32575, Note_on_c, 0, 38, 63
1, 32600, Note_on_c, 0, 38, 0
1, 32600, Note_on_c, 0, 42, 63
1, 32628, Note_on_c, 0, 42, 0
1, 32628, Note_on_c, 0, 45, 63
1, 32656, Note_on_c, 0, 66, 80
1, 32656, Note_on_c, 0, 78, 92
1, 32656, Note_on_c, 0, 45, 0
1, 32659, Note_on_c, 0, 50, 73
1, 32659, Control_c, 0, 64, 127
1, 32733, Note_on_c, 0, 78, 0
1, 32733, Note_on_c, 0, 66, 0
1, 32733, Note_on_c, 0, 50, 0
1, 32810, Note_on_c, 0, 68, 69
1, 32810, Note_on_c, 0, 80, 78
1, 32810, Note_on_c, 0, 50, 69
1, 32819, Control_c, 0, 64, 0
1, 32888, Note_on_c, 0, 80, 0
1, 32888, Note_on_c, 0, 68, 0
1, 32888, Note_on_c, 0, 50, 0
1, 32891, Note_on_c, 0, 39, 63
1, 32915, Note_on_c, 0, 39, 0
1, 32915, Note_on_c, 0, 42, 63
1, 32941, Note_on_c, 0, 42, 0
1, 32941, Note_on_c, 0, 45, 63
1, 32967, Note_on_c, 0, 69, 75
1, 32967, Note_on_c, 0, 81, 86
1, 32967, Note_on_c, 0, 45, 0
1, 32970, Note_on_c, 0, 51, 73
1, 32991, Control_c, 0, 64, 127
1, 33044, Note_on_c, 0, 81, 0
1, 33044, Note_on_c, 0, 69, 0
1, 33044, Note_on_c, 0, 51, 0
1, 33121, Note_on_c, 0, 71, 70
1, 33121, Note_on_c, 0, 83, 80
1, 33121, Note_on_c, 0, 51, 71
1, 33129, Control_c, 0, 64, 0
1, 33205, Note_on_c, 0, 83, 0
1, 33205, Note_on_c, 0, 71, 0
1, 33205, Note_on_c, 0, 51, 0
1, 33208, Note_on_c, 0, 40, 63
1, 33233, Note_on_c, 0, 40, 0
1, 33233, Note_on_c, 0, 44, 63
1, 33261, Note_on_c, 0, 44, 0
1, 33261, Note_on_c, 0, 47, 63
1, 33288, Note_on_c, 0, 68, 78
1, 33288, Note_on_c, 0, 80, 90
1, 33288, Note_on_c, 0, 47, 0
1, 33291, Note_on_c, 0, 52, 73
1, 33291, Control_c, 0, 64, 127
1, 33448, Note_on_c, 0, 80, 0
1, 33448, Note_on_c, 0, 68, 0
1, 33448, Note_on_c, 0, 64, 73
1, 33451, Note_on_c, 0, 76, 84
1, 33451, Note_on_c, 0, 52, 0
1, 33451, Note_on_c, 0, 52, 73
1, 33523, Control_c, 0, 64, 0
1, 33533, Note_on_c, 0, 76, 0
1, 33533, Note_on_c, 0, 64, 0
1, 33533, Note_on_c, 0, 52, 0
1, 33618, Note_on_c, 0, 69, 73
1, 33618, Note_on_c, 0, 81, 84
1, 33696, Note_on_c, 0, 81, 0
1, 33696, Note_on_c, 0, 69, 0
1, 33774, Note_on_c, 0, 71, 73
1, 33774, Note_on_c, 0, 83, 84
1, 33853, Note_on_c, 0, 83, 0
1, 33853, Note_on_c, 0, 71, 0
1, 33853, Note_on_c, 0, 45, 64
1, 33879, Note_on_c, 0, 45, 0
1, 33879, Note_on_c, 0, 49, 64
1, 33905, Note_on_c, 0, 49, 0
1, 33905, Note_on_c, 0, 52, 64
1, 33931, Note_on_c, 0, 73, 78
1, 33931, Note_on_c, 0, 85, 90
1, 33931, Note_on_c, 0, 52, 0
1, 33934, Note_on_c, 0, 57, 73
1, 33934, Control_c, 0, 64, 127
1, 34007, Note_on_c, 0, 57, 0
1, 34084, Note_on_c, 0, 57, 69
1, 34090, Control_c, 0, 64, 0
1, 34162, Note_on_c, 0, 57, 0
1, 34241, Note_on_c, 0, 85, 0
1, 34241, Note_on_c, 0, 73, 0
1, 34241, Note_on_c, 0, 69, 73
1, 34244, Note_on_c, 0, 81, 84
1, 34244, Note_on_c, 0, 57, 69
1, 34317, Note_on_c, 0, 81, 0
1, 34317, Note_on_c, 0, 69, 0
1, 34317, Note_on_c, 0, 57, 0
1, 34394, Note_on_c, 0, 71, 73
1, 34394, Note_on_c, 0, 83, 84
1, 34394, Note_on_c, 0, 57, 69
1, 34473, Note_on_c, 0, 83, 0
1, 34473, Note_on_c, 0, 71, 0
1, 34473, Note_on_c, 0, 57, 0
1, 34476, Note_on_c, 0, 45, 60
1, 34499, Note_on_c, 0, 45, 0
1, 34499, Note_on_c, 0, 49, 60
1, 34526, Note_on_c, 0, 49, 0
1, 34526, Note_on_c, 0, 52, 60
1, 34552, Note_on_c, 0, 73, 79
1, 34552, Note_on_c, 0, 85, 91
1, 34552, Note_on_c, 0, 52, 0
1, 34555, Note_on_c, 0, 57, 72
1, 34555, Control_c, 0, 64, 127
1, 34629, Note_on_c, 0, 85, 0
1, 34629, Note_on_c, 0, 73, 0
1, 34629, Note_on_c, 0, 57, 0
1, 34706, Note_on_c, 0, 71, 72
1, 34706, Note_on_c, 0, 83, 82
1, 34706, Note_on_c, 0, 57, 64
1, 34712, Control_c, 0, 64, 0
1, 34783, Note_on_c, 0, 83, 0
1, 34783, Note_on_c, 0, 71, 0
1, 34783, Note_on_c, 0, 57, 0
1, 34861, Note_on_c, 0, 69, 77
1, 34861, Note_on_c, 0, 81, 89
1, 34861, Note_on_c, 0, 57, 65
1, 34939, Note_on_c, 0, 81, 0
1, 34939, Note_on_c, 0, 69, 0
1, 34939, Note_on_c, 0, 57, 0
1, 35017, Note_on_c, 0, 68, 73
1, 35017, Note_on_c, 0, 80, 84
1, 35017, Note_on_c, 0, 57, 67
1, 35098, Note_on_c, 0, 80, 0
1, 35098, Note_on_c, 0, 68, 0
1, 35098, Note_on_c, 0, 57, 0
1, 35101, Note_on_c, 0, 38, 63
1, 35125, Note_on_c, 0, 38, 0
1, 35125, Note_on_c, 0, 42, 63
1, 35152, Note_on_c, 0, 42, 0
1, 35152, Note_on_c, 0, 45, 63
1, 35180, Note_on_c, 0, 66, 80
1, 35180, Note_on_c, 0, 78, 92
1, 35180, Note_on_c, 0, 45, 0
1, 35183, Note_on_c, 0, 50, 73
1, 35183, Control_c, 0, 64, 127
1, 35257, Note_on_c, 0, 78, 0
1, 35257, Note_on_c, 0, 66, 0
1, 35257, Note_on_c, 0, 50, 0
1, 35334, Note_on_c, 0, 71, 69
1, 35334, Note_on_c, 0, 83, 78
1, 35334, Note_on_c, 0, 50, 69
1, 35344, Control_c, 0, 64, 0
1, 35416, Note_on_c, 0, 83, 0
1, 35416, Note_on_c, 0, 71, 0
1, 35416, Note_on_c, 0, 50, 0
1, 35419, Note_on_c, 0, 40, 63
1, 35443, Note_on_c, 0, 40, 0
1, 35443, Note_on_c, 0, 44, 63
1, 35470, Note_on_c, 0, 44, 0
1, 35470, Note_on_c, 0, 47, 63
1, 35497, Note_on_c, 0, 68, 75
1, 35497, Note_on_c, 0, 80, 86
1, 35497, Note_on_c, 0, 47, 0
1, 35500, Note_on_c, 0, 52, 73
1, 35523, Control_c, 0, 64, 127
1, 35582, Note_on_c, 0, 80, 0
1, 35582, Note_on_c, 0, 68, 0
1, 35582, Note_on_c, 0, 52, 0
1, 35666, Note_on_c, 0, 64, 70
1, 35666, Note_on_c, 0, 76, 80
1, 35666, Note_on_c, 0, 52, 71
1, 35675, Control_c, 0, 64, 0
1, 35753, Note_on_c, 0, 76, 0
1, 35753, Note_on_c, 0, 64, 0
1, 35753, Note_on_c, 0, 52, 0
1, 35840, Note_on_c, 0, 69, 78
1, 35840, Note_on_c, 0, 81, 90
1, 35840, Note_on_c, 0, 45, 73
1, 35843, Control_c, 0, 64, 127
1, 36084, Control_c, 0, 64, 0
1, 36157, Note_on_c, 0, 81, 0
1, 36157, Note_on_c, 0, 69, 0
1, 36157, Note_on_c, 0, 45, 0
1, 36178, Note_on_c, 0, 69, 73
1, 36178, Note_on_c, 0, 81, 84
1, 36257, Note_on_c, 0, 81, 0
1, 36257, Note_on_c, 0, 69, 0
1, 36336, Note_on_c, 0, 71, 73
1, 36336, Note_on_c, 0, 83, 84
1, 36417, Note_on_c, 0, 83, 0
1, 36417, Note_on_c, 0, 71, 0
1, 36417, Note_on_c, 0, 45, 64
1, 36444, Note_on_c, 0, 45, 0
1, 36444, Note_on_c, 0, 49, 64
1, 36471, Note_on_c, 0, 49, 0
1, 36471, Note_on_c, 0, 52, 64
1, 36498, Note_on_c, 0, 73, 78
1, 36498, Note_on_c, 0, 85, 90
1, 36498, Note_on_c, 0, 52, 0
1, 36501, Note_on_c, 0, 57, 73
1, 36501, Control_c, 0, 64, 127
1, 36574, Note_on_c, 0, 57, 0
1, 36651, Note_on_c, 0, 57, 69
1, 36657, Control_c, 0, 64, 0
1, 36730, Note_on_c, 0, 57, 0
1, 36809, Note_on_c, 0, 85, 0
1, 36809, Note_on_c, 0, 73, 0
1, 36809, Note_on_c, 0, 69, 73
1, 36812, Note_on_c, 0, 81, 84
1, 36812, Note_on_c, 0, 57, 69
1, 36886, Note_on_c, 0, 81, 0
1, 36886, Note_on_c, 0, 69, 0
1, 36886, Note_on_c, 0, 57, 0
1, 36964, Note_on_c, 0, 71, 73
1, 36964, Note_on_c, 0, 83, 84
1, 36964, Note_on_c, 0, 57, 69
1, 37044, Note_on_c, 0, 83, 0
1, 37044, Note_on_c, 0, 71, 0
1, 37044, Note_on_c, 0, 57, 0
1, 37047, Note_on_c, 0, 45, 60
1, 37070, Note_on_c, 0, 45, 0
1, 37070, Note_on_c, 0, 49, 60
1, 37097, Note_on_c, 0, 49, 0
1, 37097, Note_on_c, 0, 52, 60
1, 37123, Note_on_c, 0, 73, 79
1, 37123, Note_on_c, 0, 85, 91
1, 37123, Note_on_c, 0, 52, 0
1, 37126, Note_on_c, 0, 57, 72
1, 37126, Control_c, 0, 64, 127
1, 37200, Note_on_c, 0, 85, 0
1, 37200, Note_on_c, 0, 73, 0
1, 37200, Note_on_c, 0, 57, 0
1, 37276, Note_on_c, 0, 71, 72
1, 37276, Note_on_c, 0, 83, 82
1, 37276, Note_on_c, 0, 57, 64
1, 37283, Control_c, 0, 64, 0
1, 37355, Note_on_c, 0, 83, 0
1, 37355, Note_on_c, 0, 71, 0
1, 37355, Note_on_c, 0, 57, 0
1, 37433, Note_on_c, 0, 69, 77
1, 37433, Note_on_c, 0, 81, 89
1, 37433, Note_on_c, 0, 57, 65
1, 37510, Note_on_c, 0, 81, 0
1, 37510, Note_on_c, 0, 69, 0
1, 37510, Note_on_c, 0, 57, 0
1, 37587, Note_on_c, 0, 68, 73
1, 37587, Note_on_c, 0, 80, 84
1, 37587, Note_on_c, 0, 57, 67
1, 37667, Note_on_c, 0, 80, 0
1, 37667, Note_on_c, 0, 68, 0
1, 37667, Note_on_c, 0, 57, 0
1, 37670, Note_on_c, 0, 38, 63
1, 37694, Note_on_c, 0, 38, 0
1, 37694, Note_on_c, 0, 42, 63
1, 37721, Note_on_c, 0, 42, 0
1, 37721, Note_on_c, 0, 45, 63
1, 37747, Note_on_c, 0, 66, 80
1, 37747, Note_on_c, 0, 78, 92
1, 37747, Note_on_c, 0, 45, 0
1, 37750, Note_on_c, 0, 50, 73
1, 37750, Control_c, 0, 64, 127
1, 37824, Note_on_c, 0, 78, 0
1, 37824, Note_on_c, 0, 66, 0
1, 37824, Note_on_c, 0, 50, 0
1, 37901, Note_on_c, 0, 68, 69
1, 37901, Note_on_c, 0, 80, 78
1, 37901, Note_on_c, 0, 50, 69
1, 37911, Control_c, 0, 64, 0
1, 37982, Note_on_c, 0, 80, 0
1, 37982, Note_on_c, 0, 68, 0
1, 37982, Note_on_c, 0, 50, 0
1, 37985, Note_on_c, 0, 39, 63
1, 38009, Note_on_c, 0, 39, 0
1, 38009, Note_on_c, 0, 42, 63
1, 38036, Note_on_c, 0, 42, 0
1, 38036, Note_on_c, 0, 45, 63
1, 38063, Note_on_c, 0, 69, 75
1, 38063, Note_on_c, 0, 81, 86
1, 38063, Note_on_c, 0, 45, 0
1, 38066, Note_on_c, 0, 51, 73
1, 38087, Control_c, 0, 64, 127
1, 38141, Note_on_c, 0, 81, 0
1, 38141, Note_on_c, 0, 69, 0
1, 38141, Note_on_c, 0, 51, 0
1, 38219, Note_on_c, 0, 71, 70
1, 38219, Note_on_c, 0, 83, 80
1, 38219, Note_on_c, 0, 51, 71
1, 38227, Control_c, 0, 64, 0
1, 38301, Note_on_c, 0, 83, 0
1, 38301, Note_on_c, 0, 71, 0
1, 38301, Note_on_c, 0, 51, 0
1, 38304, Note_on_c, 0, 40, 63
1, 38328, Note_on_c, 0, 40, 0
1, 38328, Note_on_c, 0, 44, 63
1, 38356, Note_on_c, 0, 44, 0
1, 38356, Note_on_c, 0, 47, 63
1, 38383, Note_on_c, 0, 68, 78
1, 38383, Note_on_c, 0, 80, 90
1, 38383, Note_on_c, 0, 47, 0
1, 38386, Note_on_c, 0, 52, 73
1, 38386, Control_c, 0, 64, 127
1, 38542, Note_on_c, 0, 80, 0
1, 38542, Note_on_c, 0, 68, 0
1, 38542, Note_on_c, 0, 64, 73
1, 38545, Note_on_c, 0, 76, 84
1, 38545, Note_on_c, 0, 52, 0
1, 38545, Note_on_c, 0, 52, 73
1, 38615, Control_c, 0, 64, 0
1, 38625, Note_on_c, 0, 76, 0
1, 38625, Note_on_c, 0, 64, 0
1, 38625, Note_on_c, 0, 52, 0
1, 38707, Note_on_c, 0, 69, 73
1, 38707, Note_on_c, 0, 81, 84
1, 38787, Note_on_c, 0, 81, 0
1, 38787, Note_on_c, 0, 69, 0
1, 38867, Note_on_c, 0, 71, 73
1, 38867, Note_on_c, 0, 83, 84
1, 38945, Note_on_c, 0, 83, 0
1, 38945, Note_on_c, 0, 71, 0
1, 38945, Note_on_c, 0, 45, 64
1, 38971, Note_on_c, 0, 45, 0
1, 38971, Note_on_c, 0, 49, 64
1, 38998, Note_on_c, 0, 49, 0
1, 38998, Note_on_c, 0, 52, 64
1, 39024, Note_on_c, 0, 73, 78
1, 39024, Note_on_c, 0, 85, 90
1, 39024, Note_on_c, 0, 52, 0
1, 39027, Note_on_c, 0, 57, 73
1, 39027, Control_c, 0, 64, 127
1, 39100, Note_on_c, 0, 57, 0
1, 39177, Note_on_c, 0, 57, 69
1, 39183, Control_c, 0, 64, 0
1, 39255, Note_on_c, 0, 57, 0
1, 39334, Note_on_c, 0, 85, 0
1, 39334, Note_on_c, 0, 73, 0
1, 39334, Note_on_c, 0, 69, 73
1, 39337, Note_on_c, 0, 81, 84
1, 39337, Note_on_c, 0, 57, 69
1, 39410, Note_on_c, 0, 81, 0
1, 39410, Note_on_c, 0, 69, 0
1, 39410, Note_on_c, 0, 57, 0
1, 39486, Note_on_c, 0, 71, 73
1, 39486, Note_on_c, 0, 83, 84
1, 39486, Note_on_c, 0, 57, 69
1, 39567, Note_on_c, 0, 83, 0
1, 39567, Note_on_c, 0, 71, 0
1, 39567, Note_on_c, 0, 57, 0
1, 39570, Note_on_c, 0, 45, 60
1, 39594, Note_on_c, 0, 45, 0
1, 39594, Note_on_c, 0, 49, 60
1, 39621, Note_on_c, 0, 49, 0
1, 39621, Note_on_c, 0, 52, 60
1, 39648, Note_on_c, 0, 73, 79
1, 39648, Note_on_c, 0, 85, 91
1, 39648, Note_on_c, 0, 52, 0
1, 39651, Note_on_c, 0, 57, 72
1, 39651, Control_c, 0, 64, 127
1, 39725, Note_on_c, 0, 85, 0
1, 39725, Note_on_c, 0, 73, 0
1, 39725, Note_on_c, 0, 57, 0
1, 39802, Note_on_c, 0, 71, 72
1, 39802, Note_on_c, 0, 83, 82
1, 39802, Note_on_c, 0, 57, 64
1, 39808, Control_c, 0, 64, 0
1, 39879, Note_on_c, 0, 83, 0
1, 39879, Note_on_c, 0, 71, 0
1, 39879, Note_on_c, 0, 57, 0
1, 39957, Note_on_c, 0, 69, 77
1, 39957, Note_on_c, 0, 81, 89
1, 39957, Note_on_c, 0, 57, 65
1, 40035, Note_on_c, 0, 81, 0
1, 40035, Note_on_c, 0, 69, 0
1, 40035, Note_on_c, 0, 57, 0
1, 40113, Note_on_c, 0, 68, 73
1, 40113, Note_on_c, 0, 80, 84
1, 40113, Note_on_c, 0, 57, 67
1, 40194, Note_on_c, 0, 80, 0
1, 40194, Note_on_c, 0, 68, 0
1, 40194, Note_on_c, 0, 57, 0
1, 40197, Note_on_c, 0, 38, 63
1, 40221, Note_on_c, 0, 38, 0
1, 40221, Note_on_c, 0, 42, 63
1, 40249, Note_on_c, 0, 42, 0
1, 40249, Note_on_c, 0, 45, 63
1, 40276, Note_on_c, 0, 66, 80
1, 40276, Note_on_c, 0, 78, 92
1, 40276, Note_on_c, 0, 45, 0
1, 40279, Note_on_c, 0, 50, 73
1, 40279, Control_c, 0, 64, 127
1, 40353, Note_on_c, 0, 78, 0
1, 40353, Note_on_c, 0, 66, 0
1, 40353, Note_on_c, 0, 50, 0
1, 40431, Note_on_c, 0, 71, 69
1, 40431, Note_on_c, 0, 83, 78
1, 40431, Note_on_c, 0, 50, 69
1, 40440, Control_c, 0, 64, 0
1, 40516, Note_on_c, 0, 83, 0
1, 40516, Note_on_c, 0, 71, 0
1, 40516, Note_on_c, 0, 50, 0
1, 40519, Note_on_c, 0, 40, 63
1, 40544, Note_on_c, 0, 40, 0
1, 40544, Note_on_c, 0, 44, 63
1, 40572, Note_on_c, 0, 44, 0
1, 40572, Note_on_c, 0, 47, 63
1, 40601, Note_on_c, 0, 68, 75
1, 40601, Note_on_c, 0, 80, 86
1, 40601, Note_on_c, 0, 47, 0
1, 40604, Note_on_c, 0, 52, 73
1, 40627, Control_c, 0, 64, 127
1, 40685, Note_on_c, 0, 80, 0
1, 40685, Note_on_c, 0, 68, 0
1, 40685, Note_on_c, 0, 52, 0
1, 40770, Note_on_c, 0, 64, 70
1, 40770, Note_on_c, 0, 76, 80
1, 40770, Note_on_c, 0, 52, 71
1, 40778, Control_c, 0, 64, 0
1, 40857, Note_on_c, 0, 76, 0
1, 40857, Note_on_c, 0, 64, 0
1, 40857, Note_on_c, 0, 52, 0
1, 40944, Note_on_c, 0, 69, 78
1, 40944, Note_on_c, 0, 81, 90
1, 40944, Note_on_c, 0, 45, 73
1, 40947, Control_c, 0, 64, 127
1, 41187, Control_c, 0, 64, 0
1, 41261, Note_on_c, 0, 81, 0
1, 41261, Note_on_c, 0, 69, 0
1, 41261, Note_on_c, 0, 45, 0
1, 41282, Note_on_c, 0, 85, 60
1, 41363, Note_on_c, 0, 86, 52
1, 41370, Note_on_c, 0, 85, 0
1, 41438, Note_on_c, 0, 85, 52
1, 41446, Note_on_c, 0, 86, 0
1, 41517, Note_on_c, 0, 83, 52
1, 41525, Note_on_c, 0, 85, 0
1, 41598, Note_on_c, 0, 81, 58
1, 41598, Note_on_c, 0, 54, 50
1, 41606, Note_on_c, 0, 83, 0
1, 41678, Note_on_c, 0, 83, 50
1, 41678, Note_on_c, 0, 54, 0
1, 41686, Note_on_c, 0, 81, 0
1, 41758, Note_on_c, 0, 81, 50
1, 41758, Note_on_c, 0, 61, 37
1, 41758, Note_on_c, 0, 57, 31
1, 41766, Note_on_c, 0, 83, 0
1, 41836, Note_on_c, 0, 80, 50
1, 41836, Note_on_c, 0, 57, 0
1, 41836, Note_on_c, 0, 61, 0
1, 41844, Note_on_c, 0, 81, 0
1, 41913, Note_on_c, 0, 78, 56
1, 41913, Note_on_c, 0, 61, 37
1, 41913, Note_on_c, 0, 57, 31
1, 41921, Note_on_c, 0, 80, 0
1, 41992, Note_on_c, 0, 81, 50
1, 41992, Note_on_c, 0, 57, 0
1, 41992, Note_on_c, 0, 61, 0
1, 42000, Note_on_c, 0, 78, 0
1, 42072, Note_on_c, 0, 80, 46
1, 42072, Note_on_c, 0, 61, 37
1, 42072, Note_on_c, 0, 57, 31
1, 42080, Note_on_c, 0, 81, 0
1, 42151, Note_on_c, 0, 78, 46
1, 42151, Note_on_c, 0, 57, 0
1, 42151, Note_on_c, 0, 61, 0
1, 42159, Note_on_c, 0, 80, 0
1, 42231, Note_on_c, 0, 77, 58
1, 42231, Note_on_c, 0, 56, 50
1, 42239, Note_on_c, 0, 78, 0
1, 42309, Note_on_c, 0, 78, 47
1, 42309, Note_on_c, 0, 56, 0
1, 42317, Note_on_c, 0, 77, 0
1, 42387, Note_on_c, 0, 80, 49
1, 42387, Note_on_c, 0, 61, 36
1, 42387, Note_on_c, 0, 59, 30
1, 42395, Note_on_c, 0, 78, 0
1, 42465, Note_on_c, 0, 77, 46
1, 42465, Note_on_c, 0, 59, 0
1, 42465, Note_on_c, 0, 61, 0
1, 42473, Note_on_c, 0, 80, 0
1, 42544, Note_on_c, 0, 73, 56
1, 42544, Note_on_c, 0, 61, 36
1, 42544, Note_on_c, 0, 59, 30
1, 42552, Note_on_c, 0, 77, 0
1, 42623, Note_on_c, 0, 75, 47
1, 42623, Note_on_c, 0, 59, 0
1, 42623, Note_on_c, 0, 61, 0
1, 42630, Note_on_c, 0, 73, 0
1, 42701, Note_on_c, 0, 77, 50
1, 42701, Note_on_c, 0, 61, 36
1, 42701, Note_on_c, 0, 59, 30
1, 42709, Note_on_c, 0, 75, 0
1, 42780, Note_on_c, 0, 73, 47
1, 42780, Note_on_c, 0, 59, 0
1, 42780, Note_on_c, 0, 61, 0
1, 42788, Note_on_c, 0, 77, 0
1, 42859, Note_on_c, 0, 78, 56
1, 42859, Note_on_c, 0, 54, 50
1, 42867, Note_on_c, 0, 73, 0
1, 42938, Note_on_c, 0, 77, 47
1, 42938, Note_on_c, 0, 54, 0
1, 42946, Note_on_c, 0, 78, 0
1, 43017, Note_on_c, 0, 78, 51
1, 43017, Note_on_c, 0, 61, 36
1, 43017, Note_on_c, 0, 57, 30
1, 43025, Note_on_c, 0, 77, 0
1, 43096, Note_on_c, 0, 80, 48
1, 43096, Note_on_c, 0, 57, 0
1, 43096, Note_on_c, 0, 61, 0
1, 43104, Note_on_c, 0, 78, 0
1, 43175, Note_on_c, 0, 81, 58
1, 43175, Note_on_c, 0, 61, 37
1, 43175, Note_on_c, 0, 57, 31
1, 43182, Note_on_c, 0, 80, 0
1, 43253, Note_on_c, 0, 80, 54
1, 43253, Note_on_c, 0, 57, 0
1, 43253, Note_on_c, 0, 61, 0
1, 43261, Note_on_c, 0, 81, 0
1, 43332, Note_on_c, 0, 81, 56
1, 43332, Note_on_c, 0, 61, 38
1, 43332, Note_on_c, 0, 57, 32
1, 43340, Note_on_c, 0, 80, 0
1, 43411, Note_on_c, 0, 83, 59
1, 43411, Note_on_c, 0, 57, 0
1, 43411, Note_on_c, 0, 61, 0
1, 43419, Note_on_c, 0, 81, 0
1, 43490, Note_on_c, 0, 85, 68
1, 43490, Note_on_c, 0, 53, 55
1, 43498, Note_on_c, 0, 83, 0
1, 43568, Note_on_c, 0, 84, 62
1, 43568, Note_on_c, 0, 53, 0
1, 43576, Note_on_c, 0, 85, 0
1, 43646, Note_on_c, 0, 85, 66
1, 43646, Note_on_c, 0, 61, 38
1, 43646, Note_on_c, 0, 56, 31
1, 43654, Note_on_c, 0, 84, 0
1, 43722, Note_on_c, 0, 84, 59
1, 43722, Note_on_c, 0, 56, 0
1, 43722, Note_on_c, 0, 61, 0
1, 43730, Note_on_c, 0, 85, 0
1, 43799, Note_on_c, 0, 84, 0
1, 43799, Note_on_c, 0, 85, 61
1, 43799, Note_on_c, 0, 61, 38
1, 43802, Note_on_c, 0, 56, 31
1, 43877, Note_on_c, 0, 86, 55
1, 43877, Note_on_c, 0, 56, 0
1, 43877, Note_on_c, 0, 61, 0
1, 43884, Note_on_c, 0, 85, 0
1, 43955, Note_on_c, 0, 85, 55
1, 43955, Note_on_c, 0, 61, 38
1, 43955, Note_on_c, 0, 56, 31
1, 43963, Note_on_c, 0, 86, 0
1, 44034, Note_on_c, 0, 83, 55
1, 44034, Note_on_c, 0, 56, 0
1, 44034, Note_on_c, 0, 61, 0
1, 44043, Note_on_c, 0, 85, 0
1, 44119, Note_on_c, 0, 81, 58
1, 44119, Note_on_c, 0, 54, 50
1, 44127, Note_on_c, 0, 83, 0
1, 44198, Note_on_c, 0, 83, 47
1, 44198, Note_on_c, 0, 54, 0
1, 44206, Note_on_c, 0, 81, 0
1, 44277, Note_on_c, 0, 81, 53
1, 44277, Note_on_c, 0, 61, 36
1, 44277, Note_on_c, 0, 57, 30
1, 44284, Note_on_c, 0, 83, 0
1, 44354, Note_on_c, 0, 80, 47
1, 44354, Note_on_c, 0, 57, 0
1, 44354, Note_on_c, 0, 61, 0
1, 44362, Note_on_c, 0, 81, 0
1, 44431, Note_on_c, 0, 78, 54
1, 44431, Note_on_c, 0, 61, 36
1, 44431, Note_on_c, 0, 57, 30
1, 44439, Note_on_c, 0, 80, 0
1, 44509, Note_on_c, 0, 81, 47
1, 44509, Note_on_c, 0, 57, 0
1, 44509, Note_on_c, 0, 61, 0
1, 44517, Note_on_c, 0, 78, 0
1, 44587, Note_on_c, 0, 80, 50
1, 44587, Note_on_c, 0, 61, 36
1, 44587, Note_on_c, 0, 57, 30
1, 44595, Note_on_c, 0, 81, 0
1, 44667, Note_on_c, 0, 78, 46
1, 44667, Note_on_c, 0, 57, 0
1, 44667, Note_on_c, 0, 61, 0
1, 44675, Note_on_c, 0, 80, 0
1, 44747, Note_on_c, 0, 76, 56
1, 44747, Note_on_c, 0, 56, 50
1, 44755, Note_on_c, 0, 78, 0
1, 44826, Note_on_c, 0, 78, 47
1, 44826, Note_on_c, 0, 56, 0
1, 44834, Note_on_c, 0, 76, 0
1, 44906, Note_on_c, 0, 80, 50
1, 44906, Note_on_c, 0, 64, 36
1, 44906, Note_on_c, 0, 61, 30
1, 44914, Note_on_c, 0, 78, 0
1, 44984, Note_on_c, 0, 76, 47
1, 44984, Note_on_c, 0, 61, 0
1, 44984, Note_on_c, 0, 64, 0
1, 44992, Note_on_c, 0, 80, 0
1, 45062, Note_on_c, 0, 73, 54
1, 45062, Note_on_c, 0, 64, 36
1, 45062, Note_on_c, 0, 61, 30
1, 45070, Note_on_c, 0, 76, 0
1, 45141, Note_on_c, 0, 75, 47
1, 45141, Note_on_c, 0, 61, 0
1, 45141, Note_on_c, 0, 64, 0
1, 45148, Note_on_c, 0, 73, 0
1, 45219, Note_on_c, 0, 76, 53
1, 45219, Note_on_c, 0, 64, 36
1, 45219, Note_on_c, 0, 61, 30
1, 45227, Note_on_c, 0, 75, 0
1, 45299, Note_on_c, 0, 73, 47
1, 45299, Note_on_c, 0, 61, 0
1, 45299, Note_on_c, 0, 64, 0
1, 45307, Note_on_c, 0, 76, 0
1, 45380, Note_on_c, 0, 75, 53
1, 45380, Note_on_c, 0, 56, 50
1, 45387, Note_on_c, 0, 73, 0
1, 45458, Note_on_c, 0, 76, 47
1, 45458, Note_on_c, 0, 56, 0
1, 45466, Note_on_c, 0, 75, 0
1, 45537, Note_on_c, 0, 78, 51
1, 45537, Note_on_c, 0, 66, 37
1, 45537, Note_on_c, 0, 63, 31
1, 45545, Note_on_c, 0, 76, 0
1, 45615, Note_on_c, 0, 75, 47
1, 45615, Note_on_c, 0, 63, 0
1, 45615, Note_on_c, 0, 66, 0
1, 45623, Note_on_c, 0, 78, 0
1, 45694, Note_on_c, 0, 72, 50
1, 45694, Note_on_c, 0, 63, 31
1, 45694, Note_on_c, 0, 66, 37
1, 45702, Note_on_c, 0, 75, 0
1, 45773, Note_on_c, 0, 73, 47
1, 45773, Note_on_c, 0, 66, 0
1, 45773, Note_on_c, 0, 63, 0
1, 45781, Note_on_c, 0, 72, 0
1, 45853, Note_on_c, 0, 75, 50
1, 45853, Note_on_c, 0, 63, 31
1, 45853, Note_on_c, 0, 66, 37
1, 45861, Note_on_c, 0, 73, 0
1, 45934, Note_on_c, 0, 72, 46
1, 45934, Note_on_c, 0, 66, 0
1, 45934, Note_on_c, 0, 63, 0
1, 45943, Note_on_c, 0, 75, 0
1, 46022, Note_on_c, 0, 73, 52
1, 46022, Note_on_c, 0, 64, 50
1, 46022, Note_on_c, 0, 61, 42
1, 46030, Note_on_c, 0, 72, 0
1, 46327, Note_on_c, 0, 73, 0
1, 46327, Note_on_c, 0, 61, 0
1, 46327, Note_on_c, 0, 64, 0
1, 46349, Note_on_c, 0, 85, 60
1, 46432, Note_on_c, 0, 86, 52
1, 46440, Note_on_c, 0, 85, 0
1, 46508, Note_on_c, 0, 85, 52
1, 46516, Note_on_c, 0, 86, 0
1, 46586, Note_on_c, 0, 83, 52
1, 46594, Note_on_c, 0, 85, 0
1, 46668, Note_on_c, 0, 81, 58
1, 46668, Note_on_c, 0, 54, 50
1, 46676, Note_on_c, 0, 83, 0
1, 46748, Note_on_c, 0, 83, 50
1, 46748, Note_on_c, 0, 54, 0
1, 46757, Note_on_c, 0, 81, 0
1, 46829, Note_on_c, 0, 81, 50
1, 46829, Note_on_c, 0, 61, 37
1, 46829, Note_on_c, 0, 57, 31
1, 46837, Note_on_c, 0, 83, 0
1, 46908, Note_on_c, 0, 80, 50
1, 46908, Note_on_c, 0, 57, 0
1, 46908, Note_on_c, 0, 61, 0
1, 46916, Note_on_c, 0, 81, 0
1, 46987, Note_on_c, 0, 78, 56
1, 46987, Note_on_c, 0, 61, 37
1, 46987, Note_on_c, 0, 57, 31
1, 46995, Note_on_c, 0, 80, 0
1, 47067, Note_on_c, 0, 81, 50
1, 47067, Note_on_c, 0, 57, 0
1, 47067, Note_on_c, 0, 61, 0
1, 47074, Note_on_c, 0, 78, 0
1, 47146, Note_on_c, 0, 80, 46
1, 47146, Note_on_c, 0, 61, 37
1, 47146, Note_on_c, 0, 57, 31
1, 47154, Note_on_c, 0, 81, 0
1, 47225, Note_on_c, 0, 78, 46
1, 47225, Note_on_c, 0, 57, 0
1, 47225, Note_on_c, 0, 61, 0
1, 47233, Note_on_c, 0, 80, 0
1, 47305, Note_on_c, 0, 77, 58
1, 47305, Note_on_c, 0, 56, 50
1, 47313, Note_on_c, 0, 78, 0
1, 47386, Note_on_c, 0, 78, 47
1, 47386, Note_on_c, 0, 56, 0
1, 47394, Note_on_c, 0, 77, 0
1, 47467, Note_on_c, 0, 80, 49
1, 47467, Note_on_c, 0, 61, 36
1, 47467, Note_on_c, 0, 59, 30
1, 47474, Note_on_c, 0, 78, 0
1, 47545, Note_on_c, 0, 77, 46
1, 47545, Note_on_c, 0, 59, 0
1, 47545, Note_on_c, 0, 61, 0
1, 47553, Note_on_c, 0, 80, 0
1, 47624, Note_on_c, 0, 73, 56
1, 47624, Note_on_c, 0, 61, 36
1, 47624, Note_on_c, 0, 59, 30
1, 47632, Note_on_c, 0, 77, 0
1, 47702, Note_on_c, 0, 75, 47
1, 47702, Note_on_c, 0, 59, 0
1, 47702, Note_on_c, 0, 61, 0
1, 47710, Note_on_c, 0, 73, 0
1, 47781, Note_on_c, 0, 77, 50
1, 47781, Note_on_c, 0, 61, 36
1, 47781, Note_on_c, 0, 59, 30
1, 47789, Note_on_c, 0, 75, 0
1, 47860, Note_on_c, 0, 73, 47
1, 47860, Note_on_c, 0, 59, 0
1, 47860, Note_on_c, 0, 61, 0
1, 47868, Note_on_c, 0, 77, 0
1, 47939, Note_on_c, 0, 78, 56
1, 47939, Note_on_c, 0, 54, 50
1, 47947, Note_on_c, 0, 73, 0
1, 48018, Note_on_c, 0, 77, 47
1, 48018, Note_on_c, 0, 54, 0
1, 48026, Note_on_c, 0, 78, 0
1, 48097, Note_on_c, 0, 78, 51
1, 48097, Note_on_c, 0, 61, 36
1, 48097, Note_on_c, 0, 57, 30
1, 48105, Note_on_c, 0, 77, 0
1, 48176, Note_on_c, 0, 80, 48
1, 48176, Note_on_c, 0, 57, 0
1, 48176, Note_on_c, 0, 61, 0
1, 48184, Note_on_c, 0, 78, 0
1, 48254, Note_on_c, 0, 81, 58
1, 48254, Note_on_c, 0, 61, 37
1, 48254, Note_on_c, 0, 57, 31
1, 48262, Note_on_c, 0, 80, 0
1, 48333, Note_on_c, 0, 80, 54
1, 48333, Note_on_c, 0, 57, 0
1, 48333, Note_on_c, 0, 61, 0
1, 48341, Note_on_c, 0, 81, 0
1, 48411, Note_on_c, 0, 81, 56
1, 48411, Note_on_c, 0, 61, 38
1, 48411, Note_on_c, 0, 57, 32
1, 48419, Note_on_c, 0, 80, 0
1, 48490, Note_on_c, 0, 83, 59
1, 48490, Note_on_c, 0, 57, 0
1, 48490, Note_on_c, 0, 61, 0
1, 48498, Note_on_c, 0, 81, 0
1, 48570, Note_on_c, 0, 85, 68
1, 48570, Note_on_c, 0, 53, 55
1, 48578, Note_on_c, 0, 83, 0
1, 48649, Note_on_c, 0, 84, 62
1, 48649, Note_on_c, 0, 53, 0
1, 48657, Note_on_c, 0, 85, 0
1, 48729, Note_on_c, 0, 85, 66
1, 48729, Note_on_c, 0, 61, 38
1, 48729, Note_on_c, 0, 56, 31
1, 48737, Note_on_c, 0, 84, 0
1, 48806, Note_on_c, 0, 84, 59
1, 48806, Note_on_c, 0, 56, 0
1, 48806, Note_on_c, 0, 61, 0
1, 48814, Note_on_c, 0, 85, 0
1, 48884, Note_on_c, 0, 84, 0
1, 48884, Note_on_c, 0, 85, 64
1, 48884, Note_on_c, 0, 61, 38
1, 48887, Note_on_c, 0, 56, 31
1, 48961, Note_on_c, 0, 86, 57
1, 48961, Note_on_c, 0, 56, 0
1, 48961, Note_on_c, 0, 61, 0
1, 48969, Note_on_c, 0, 85, 0
1, 49039, Note_on_c, 0, 85, 57
1, 49039, Note_on_c, 0, 61, 38
1, 49039, Note_on_c, 0, 56, 31
1, 49047, Note_on_c, 0, 86, 0
1, 49118, Note_on_c, 0, 83, 57
1, 49118, Note_on_c, 0, 56, 0
1, 49118, Note_on_c, 0, 61, 0
1, 49126, Note_on_c, 0, 85, 0
1, 49198, Note_on_c, 0, 81, 60
1, 49198, Note_on_c, 0, 54, 50
1, 49206, Note_on_c, 0, 83, 0
1, 49277, Note_on_c, 0, 83, 51
1, 49277, Note_on_c, 0, 54, 0
1, 49284, Note_on_c, 0, 81, 0
1, 49355, Note_on_c, 0, 81, 55
1, 49355, Note_on_c, 0, 61, 36
1, 49355, Note_on_c, 0, 57, 30
1, 49363, Note_on_c, 0, 83, 0
1, 49433, Note_on_c, 0, 80, 47
1, 49433, Note_on_c, 0, 57, 0
1, 49433, Note_on_c, 0, 61, 0
1, 49440, Note_on_c, 0, 81, 0
1, 49510, Note_on_c, 0, 78, 54
1, 49510, Note_on_c, 0, 61, 36
1, 49510, Note_on_c, 0, 57, 30
1, 49518, Note_on_c, 0, 80, 0
1, 49588, Note_on_c, 0, 81, 47
1, 49588, Note_on_c, 0, 57, 0
1, 49588, Note_on_c, 0, 61, 0
1, 49595, Note_on_c, 0, 78, 0
1, 49665, Note_on_c, 0, 80, 50
1, 49665, Note_on_c, 0, 61, 36
1, 49665, Note_on_c, 0, 57, 30
1, 49673, Note_on_c, 0, 81, 0
1, 49745, Note_on_c, 0, 78, 46
1, 49745, Note_on_c, 0, 57, 0
1, 49745, Note_on_c, 0, 61, 0
1, 49753, Note_on_c, 0, 80, 0
1, 49824, Note_on_c, 0, 76, 53
1, 49824, Note_on_c, 0, 56, 50
1, 49832, Note_on_c, 0, 78, 0
1, 49903, Note_on_c, 0, 78, 47
1, 49903, Note_on_c, 0, 56, 0
1, 49911, Note_on_c, 0, 76, 0
1, 49982, Note_on_c, 0, 80, 50
1, 49982, Note_on_c, 0, 64, 36
1, 49982, Note_on_c, 0, 61, 30
1, 49990, Note_on_c, 0, 78, 0
1, 50059, Note_on_c, 0, 76, 47
1, 50059, Note_on_c, 0, 61, 0
1, 50059, Note_on_c, 0, 64, 0
1, 50067, Note_on_c, 0, 80, 0
1, 50136, Note_on_c, 0, 73, 54
1, 50136, Note_on_c, 0, 64, 36
1, 50136, Note_on_c, 0, 61, 30
1, 50144, Note_on_c, 0, 76, 0
1, 50214, Note_on_c, 0, 75, 47
1, 50214, Note_on_c, 0, 61, 0
1, 50214, Note_on_c, 0, 64, 0
1, 50222, Note_on_c, 0, 73, 0
1, 50292, Note_on_c, 0, 76, 53
1, 50292, Note_on_c, 0, 64, 36
1, 50292, Note_on_c, 0, 61, 30
1, 50300, Note_on_c, 0, 75, 0
1, 50373, Note_on_c, 0, 73, 47
1, 50373, Note_on_c, 0, 61, 0
1, 50373, Note_on_c, 0, 64, 0
1, 50381, Note_on_c, 0, 76, 0
1, 50453, Note_on_c, 0, 75, 53
1, 50453, Note_on_c, 0, 56, 50
1, 50461, Note_on_c, 0, 73, 0
1, 50533, Note_on_c, 0, 76, 47
1, 50533, Note_on_c, 0, 56, 0
1, 50541, Note_on_c, 0, 75, 0
1, 50613, Note_on_c, 0, 78, 51
1, 50613, Note_on_c, 0, 66, 37
1, 50613, Note_on_c, 0, 63, 31
1, 50621, Note_on_c, 0, 76, 0
1, 50692, Note_on_c, 0, 75, 47
1, 50692, Note_on_c, 0, 63, 0
1, 50692, Note_on_c, 0, 66, 0
1, 50700, Note_on_c, 0, 78, 0
1, 50770, Note_on_c, 0, 72, 50
1, 50770, Note_on_c, 0, 63, 31
1, 50770, Note_on_c, 0, 66, 37
1, 50778, Note_on_c, 0, 75, 0
1, 50850, Note_on_c, 0, 73, 47
1, 50850, Note_on_c, 0, 66, 0
1, 50850, Note_on_c, 0, 63, 0
1, 50858, Note_on_c, 0, 72, 0
1, 50930, Note_on_c, 0, 75, 50
1, 50930, Note_on_c, 0, 63, 31
1, 50930, Note_on_c, 0, 66, 37
1, 50938, Note_on_c, 0, 73, 0
1, 51011, Note_on_c, 0, 72, 46
1, 51011, Note_on_c, 0, 66, 0
1, 51011, Note_on_c, 0, 63, 0
1, 51020, Note_on_c, 0, 75, 0
1, 51099, Note_on_c, 0, 73, 52
1, 51099, Note_on_c, 0, 64, 50
1, 51099, Note_on_c, 0, 61, 42
1, 51107, Note_on_c, 0, 72, 0
1, 51404, Note_on_c, 0, 73, 0
1, 51404, Note_on_c, 0, 61, 0
1, 51404, Note_on_c, 0, 64, 0
1, 51424, Note_on_c, 0, 76, 69
1, 51502, Note_on_c, 0, 74, 59
1, 51510, Note_on_c, 0, 76, 0
1, 51580, Note_on_c, 0, 73, 59
1, 51588, Note_on_c, 0, 74, 0
1, 51659, Note_on_c, 0, 71, 59
1, 51667, Note_on_c, 0, 73, 0
1, 51740, Note_on_c, 0, 69, 66
1, 51740, Note_on_c, 0, 57, 57
1, 51748, Note_on_c, 0, 71, 0
1, 51820, Note_on_c, 0, 71, 57
1, 51820, Note_on_c, 0, 57, 0
1, 51828, Note_on_c, 0, 69, 0
1, 51901, Note_on_c, 0, 73, 57
1, 51901, Note_on_c, 0, 64, 43
1, 51901, Note_on_c, 0, 61, 36
1, 51909, Note_on_c, 0, 71, 0
1, 51980, Note_on_c, 0, 74, 57
1, 51980, Note_on_c, 0, 61, 0
1, 51980, Note_on_c, 0, 64, 0
1, 51988, Note_on_c, 0, 73, 0
1, 52059, Note_on_c, 0, 76, 64
1, 52059, Note_on_c, 0, 64, 43
1, 52059, Note_on_c, 0, 61, 36
1, 52067, Note_on_c, 0, 74, 0
1, 52138, Note_on_c, 0, 78, 57
1, 52138, Note_on_c, 0, 61, 0
1, 52138, Note_on_c, 0, 64, 0
1, 52146, Note_on_c, 0, 76, 0
1, 52217, Note_on_c, 0, 80, 56
1, 52217, Note_on_c, 0, 64, 43
1, 52217, Note_on_c, 0, 61, 36
1, 52225, Note_on_c, 0, 78, 0
1, 52297, Note_on_c, 0, 81, 56
1, 52297, Note_on_c, 0, 61, 0
1, 52297, Note_on_c, 0, 64, 0
1, 52305, Note_on_c, 0, 80, 0
1, 52373, Note_on_c, 0, 81, 0
1, 52376, Note_on_c, 0, 81, 66
1, 52376, Note_on_c, 0, 59, 57
1, 52453, Note_on_c, 0, 80, 60
1, 52453, Note_on_c, 0, 59, 0
1, 52461, Note_on_c, 0, 81, 0
1, 52530, Note_on_c, 0, 78, 60
1, 52530, Note_on_c, 0, 64, 42
1, 52530, Note_on_c, 0, 62, 35
1, 52538, Note_on_c, 0, 80, 0
1, 52609, Note_on_c, 0, 76, 57
1, 52609, Note_on_c, 0, 62, 0
1, 52609, Note_on_c, 0, 64, 0
1, 52617, Note_on_c, 0, 78, 0
1, 52684, Note_on_c, 0, 76, 0
1, 52687, Note_on_c, 0, 76, 64
1, 52687, Note_on_c, 0, 56, 57
1, 52766, Note_on_c, 0, 74, 59
1, 52766, Note_on_c, 0, 56, 0
1, 52774, Note_on_c, 0, 76, 0
1, 52844, Note_on_c, 0, 73, 59
1, 52844, Note_on_c, 0, 64, 42
1, 52844, Note_on_c, 0, 62, 35
1, 52852, Note_on_c, 0, 74, 0
1, 52923, Note_on_c, 0, 71, 59
1, 52923, Note_on_c, 0, 62, 0
1, 52923, Note_on_c, 0, 64, 0
1, 52931, Note_on_c, 0, 73, 0
1, 53003, Note_on_c, 0, 69, 64
1, 53003, Note_on_c, 0, 57, 57
1, 53010, Note_on_c, 0, 71, 0
1, 53079, Note_on_c, 0, 71, 54
1, 53079, Note_on_c, 0, 57, 0
1, 53087, Note_on_c, 0, 69, 0
1, 53155, Note_on_c, 0, 73, 57
1, 53155, Note_on_c, 0, 64, 41
1, 53155, Note_on_c, 0, 61, 35
1, 53163, Note_on_c, 0, 71, 0
1, 53234, Note_on_c, 0, 74, 54
1, 53234, Note_on_c, 0, 61, 0
1, 53234, Note_on_c, 0, 64, 0
1, 53242, Note_on_c, 0, 73, 0
1, 53312, Note_on_c, 0, 76, 64
1, 53312, Note_on_c, 0, 64, 41
1, 53312, Note_on_c, 0, 61, 35
1, 53320, Note_on_c, 0, 74, 0
1, 53391, Note_on_c, 0, 78, 58
1, 53391, Note_on_c, 0, 61, 0
1, 53391, Note_on_c, 0, 64, 0
1, 53399, Note_on_c, 0, 76, 0
1, 53470, Note_on_c, 0, 80, 60
1, 53470, Note_on_c, 0, 64, 41
1, 53470, Note_on_c, 0, 61, 35
1, 53478, Note_on_c, 0, 78, 0
1, 53555, Note_on_c, 0, 81, 63
1, 53555, Note_on_c, 0, 61, 0
1, 53555, Note_on_c, 0, 64, 0
1, 53565, Note_on_c, 0, 80, 0
1, 53647, Note_on_c, 0, 81, 0
1, 53647, Note_on_c, 0, 82, 75
1, 53647, Note_on_c, 0, 52, 57
1, 53818, Note_on_c, 0, 82, 0
1, 53818, Note_on_c, 0, 83, 69
1, 53818, Note_on_c, 0, 52, 0
1, 53821, Note_on_c, 0, 62, 39
1, 53821, Note_on_c, 0, 56, 33
1, 53896, Note_on_c, 0, 56, 0
1, 53896, Note_on_c, 0, 62, 0
1, 53903, Note_on_c, 0, 83, 0
1, 53974, Note_on_c, 0, 76, 69
1, 53974, Note_on_c, 0, 56, 33
1, 53974, Note_on_c, 0, 62, 39
1, 54055, Note_on_c, 0, 74, 59
1, 54055, Note_on_c, 0, 62, 0
1, 54055, Note_on_c, 0, 56, 0
1, 54062, Note_on_c, 0, 76, 0
1, 54132, Note_on_c, 0, 73, 59
1, 54132, Note_on_c, 0, 56, 33
1, 54132, Note_on_c, 0, 62, 39
1, 54140, Note_on_c, 0, 74, 0
1, 54210, Note_on_c, 0, 71, 59
1, 54210, Note_on_c, 0, 62, 0
1, 54210, Note_on_c, 0, 56, 0
1, 54218, Note_on_c, 0, 73, 0
1, 54292, Note_on_c, 0, 69, 66
1, 54292, Note_on_c, 0, 57, 57
1, 54300, Note_on_c, 0, 71, 0
1, 54372, Note_on_c, 0, 71, 57
1, 54372, Note_on_c, 0, 57, 0
1, 54380, Note_on_c, 0, 69, 0
1, 54452, Note_on_c, 0, 73, 57
1, 54452, Note_on_c, 0, 64, 43
1, 54452, Note_on_c, 0, 61, 36
1, 54460, Note_on_c, 0, 71, 0
1, 54531, Note_on_c, 0, 74, 57
1, 54531, Note_on_c, 0, 61, 0
1, 54531, Note_on_c, 0, 64, 0
1, 54539, Note_on_c, 0, 73, 0
1, 54610, Note_on_c, 0, 76, 64
1, 54610, Note_on_c, 0, 64, 43
1, 54610, Note_on_c, 0, 61, 36
1, 54618, Note_on_c, 0, 74, 0
1, 54689, Note_on_c, 0, 78, 57
1, 54689, Note_on_c, 0, 61, 0
1, 54689, Note_on_c, 0, 64, 0
1, 54697, Note_on_c, 0, 76, 0
1, 54768, Note_on_c, 0, 80, 56
1, 54768, Note_on_c, 0, 64, 43
1, 54768, Note_on_c, 0, 61, 36
1, 54776, Note_on_c, 0, 78, 0
1, 54848, Note_on_c, 0, 81, 56
1, 54848, Note_on_c, 0, 61, 0
1, 54848, Note_on_c, 0, 64, 0
1, 54856, Note_on_c, 0, 80, 0
1, 54924, Note_on_c, 0, 81, 0
1, 54928, Note_on_c, 0, 81, 66
1, 54928, Note_on_c, 0, 59, 57
1, 55005, Note_on_c, 0, 80, 57
1, 55005, Note_on_c, 0, 59, 0
1, 55012, Note_on_c, 0, 81, 0
1, 55082, Note_on_c, 0, 78, 60
1, 55082, Note_on_c, 0, 64, 42
1, 55082, Note_on_c, 0, 62, 35
1, 55089, Note_on_c, 0, 80, 0
1, 55160, Note_on_c, 0, 76, 57
1, 55160, Note_on_c, 0, 62, 0
1, 55160, Note_on_c, 0, 64, 0
1, 55168, Note_on_c, 0, 78, 0
1, 55235, Note_on_c, 0, 76, 0
1, 55239, Note_on_c, 0, 76, 64
1, 55239, Note_on_c, 0, 56, 57
1, 55317, Note_on_c, 0, 74, 59
1, 55317, Note_on_c, 0, 56, 0
1, 55325, Note_on_c, 0, 76, 0
1, 55396, Note_on_c, 0, 73, 59
1, 55396, Note_on_c, 0, 64, 42
1, 55396, Note_on_c, 0, 62, 35
1, 55404, Note_on_c, 0, 74, 0
1, 55475, Note_on_c, 0, 71, 59
1, 55475, Note_on_c, 0, 62, 0
1, 55475, Note_on_c, 0, 64, 0
1, 55483, Note_on_c, 0, 73, 0
1, 55554, Note_on_c, 0, 73, 64
1, 55554, Note_on_c, 0, 57, 57
1, 55562, Note_on_c, 0, 71, 0
1, 55630, Note_on_c, 0, 76, 54
1, 55630, Note_on_c, 0, 57, 0
1, 55638, Note_on_c, 0, 73, 0
1, 55707, Note_on_c, 0, 69, 57
1, 55707, Note_on_c, 0, 54, 46
1, 55715, Note_on_c, 0, 76, 0
1, 55785, Note_on_c, 0, 73, 54
1, 55785, Note_on_c, 0, 54, 0
1, 55793, Note_on_c, 0, 69, 0
1, 55864, Note_on_c, 0, 71, 64
1, 55864, Note_on_c, 0, 50, 46
1, 55872, Note_on_c, 0, 73, 0
1, 55941, Note_on_c, 0, 74, 58
1, 55941, Note_on_c, 0, 50, 0
1, 55949, Note_on_c, 0, 71, 0
1, 56018, Note_on_c, 0, 68, 60
1, 56018, Note_on_c, 0, 52, 46
1, 56026, Note_on_c, 0, 74, 0
1, 56100, Note_on_c, 0, 71, 55
1, 56100, Note_on_c, 0, 52, 0
1, 56108, Note_on_c, 0, 68, 0
1, 56182, Note_on_c, 0, 71, 0
1, 56182, Note_on_c, 0, 69, 66
1, 56182, Note_on_c, 0, 45, 57
1, 56347, Note_on_c, 0, 45, 0
1, 56347, Note_on_c, 0, 57, 44
1, 56425, Note_on_c, 0, 69, 0
1, 56425, Note_on_c, 0, 57, 0
1, 56504, Note_on_c, 0, 85, 60
1, 56588, Note_on_c, 0, 86, 52
1, 56595, Note_on_c, 0, 85, 0
1, 56664, Note_on_c, 0, 85, 52
1, 56672, Note_on_c, 0, 86, 0
1, 56743, Note_on_c, 0, 83, 52
1, 56751, Note_on_c, 0, 85, 0
1, 56824, Note_on_c, 0, 81, 58
1, 56824, Note_on_c, 0, 52, 50
1, 56832, Note_on_c, 0, 83, 0
1, 56904, Note_on_c, 0, 83, 50
1, 56904, Note_on_c, 0, 52, 0
1, 56912, Note_on_c, 0, 81, 0
1, 56984, Note_on_c, 0, 81, 50
1, 56984, Note_on_c, 0, 61, 42
1, 56984, Note_on_c, 0, 57, 35
1, 56992, Note_on_c, 0, 83, 0
1, 57063, Note_on_c, 0, 80, 50
1, 57063, Note_on_c, 0, 57, 0
1, 57063, Note_on_c, 0, 61, 0
1, 57071, Note_on_c, 0, 81, 0
1, 57142, Note_on_c, 0, 78, 56
1, 57142, Note_on_c, 0, 61, 42
1, 57142, Note_on_c, 0, 57, 35
1, 57150, Note_on_c, 0, 80, 0
1, 57221, Note_on_c, 0, 81, 50
1, 57221, Note_on_c, 0, 57, 0
1, 57221, Note_on_c, 0, 61, 0
1, 57229, Note_on_c, 0, 78, 0
1, 57300, Note_on_c, 0, 80, 46
1, 57300, Note_on_c, 0, 61, 42
1, 57300, Note_on_c, 0, 57, 35
1, 57308, Note_on_c, 0, 81, 0
1, 57380, Note_on_c, 0, 78, 46
1, 57380, Note_on_c, 0, 57, 0
1, 57380, Note_on_c, 0, 61, 0
1, 57388, Note_on_c, 0, 80, 0
1, 57459, Note_on_c, 0, 77, 58
1, 57459, Note_on_c, 0, 56, 50
1, 57467, Note_on_c, 0, 78, 0
1, 57539, Note_on_c, 0, 78, 47
1, 57539, Note_on_c, 0, 56, 0
1, 57546, Note_on_c, 0, 77, 0
1, 57618, Note_on_c, 0, 80, 49
1, 57618, Note_on_c, 0, 61, 41
1, 57618, Note_on_c, 0, 59, 34
1, 57625, Note_on_c, 0, 78, 0
1, 57696, Note_on_c, 0, 77, 46
1, 57696, Note_on_c, 0, 59, 0
1, 57696, Note_on_c, 0, 61, 0
1, 57704, Note_on_c, 0, 80, 0
1, 57775, Note_on_c, 0, 73, 56
1, 57775, Note_on_c, 0, 61, 41
1, 57775, Note_on_c, 0, 59, 34
1, 57783, Note_on_c, 0, 77, 0
1, 57853, Note_on_c, 0, 75, 47
1, 57853, Note_on_c, 0, 59, 0
1, 57853, Note_on_c, 0, 61, 0
1, 57861, Note_on_c, 0, 73, 0
1, 57932, Note_on_c, 0, 77, 50
1, 57932, Note_on_c, 0, 61, 41
1, 57932, Note_on_c, 0, 59, 34
1, 57940, Note_on_c, 0, 75, 0
1, 58011, Note_on_c, 0, 73, 47
1, 58011, Note_on_c, 0, 59, 0
1, 58011, Note_on_c, 0, 61, 0
1, 58019, Note_on_c, 0, 77, 0
1, 58090, Note_on_c, 0, 78, 56
1, 58090, Note_on_c, 0, 54, 50
1, 58098, Note_on_c, 0, 73, 0
1, 58171, Note_on_c, 0, 77, 47
1, 58171, Note_on_c, 0, 54, 0
1, 58179, Note_on_c, 0, 78, 0
1, 58252, Note_on_c, 0, 78, 50
1, 58252, Note_on_c, 0, 61, 40
1, 58252, Note_on_c, 0, 57, 34
1, 58259, Note_on_c, 0, 77, 0
1, 58330, Note_on_c, 0, 80, 47
1, 58330, Note_on_c, 0, 57, 0
1, 58330, Note_on_c, 0, 61, 0
1, 58338, Note_on_c, 0, 78, 0
1, 58409, Note_on_c, 0, 81, 56
1, 58409, Note_on_c, 0, 61, 40
1, 58409, Note_on_c, 0, 57, 34
1, 58417, Note_on_c, 0, 80, 0
1, 58487, Note_on_c, 0, 80, 51
1, 58487, Note_on_c, 0, 57, 0
1, 58487, Note_on_c, 0, 61, 0
1, 58495, Note_on_c, 0, 81, 0
1, 58566, Note_on_c, 0, 81, 53
1, 58566, Note_on_c, 0, 61, 40
1, 58566, Note_on_c, 0, 57, 34
1, 58574, Note_on_c, 0, 80, 0
1, 58645, Note_on_c, 0, 83, 55
1, 58645, Note_on_c, 0, 57, 0
1, 58645, Note_on_c, 0, 61, 0
1, 58653, Note_on_c, 0, 81, 0
1, 58724, Note_on_c, 0, 85, 62
1, 58724, Note_on_c, 0, 49, 50
1, 58732, Note_on_c, 0, 83, 0
1, 58801, Note_on_c, 0, 84, 57
1, 58801, Note_on_c, 0, 49, 0
1, 58809, Note_on_c, 0, 85, 0
1, 58878, Note_on_c, 0, 85, 60
1, 58878, Note_on_c, 0, 61, 49
1, 58878, Note_on_c, 0, 56, 41
1, 58886, Note_on_c, 0, 84, 0
1, 58956, Note_on_c, 0, 84, 54
1, 58956, Note_on_c, 0, 56, 0
1, 58956, Note_on_c, 0, 61, 0
1, 58964, Note_on_c, 0, 85, 0
1, 59034, Note_on_c, 0, 84, 0
1, 59034, Note_on_c, 0, 85, 62
1, 59034, Note_on_c, 0, 61, 48
1, 59037, Note_on_c, 0, 55, 40
1, 59112, Note_on_c, 0, 86, 56
1, 59112, Note_on_c, 0, 55, 0
1, 59112, Note_on_c, 0, 61, 0
1, 59120, Note_on_c, 0, 85, 0
1, 59190, Note_on_c, 0, 85, 65
1, 59190, Note_on_c, 0, 61, 48
1, 59190, Note_on_c, 0, 54, 40
1, 59198, Note_on_c, 0, 86, 0
1, 59270, Note_on_c, 0, 82, 60
1, 59270, Note_on_c, 0, 54, 0
1, 59270, Note_on_c, 0, 61, 0
1, 59277, Note_on_c, 0, 85, 0
1, 59349, Note_on_c, 0, 86, 69
1, 59349, Note_on_c, 0, 47, 59
1, 59357, Note_on_c, 0, 82, 0
1, 59429, Note_on_c, 0, 85, 63
1, 59429, Note_on_c, 0, 47, 0
1, 59437, Note_on_c, 0, 86, 0
1, 59510, Note_on_c, 0, 86, 69
1, 59510, Note_on_c, 0, 59, 53
1, 59510, Note_on_c, 0, 54, 45
1, 59517, Note_on_c, 0, 85, 0
1, 59588, Note_on_c, 0, 85, 64
1, 59588, Note_on_c, 0, 54, 0
1, 59588, Note_on_c, 0, 59, 0
1, 59595, Note_on_c, 0, 86, 0
1, 59666, Note_on_c, 0, 86, 68
1, 59666, Note_on_c, 0, 59, 56
1, 59666, Note_on_c, 0, 54, 47
1, 59673, Note_on_c, 0, 85, 0
1, 59744, Note_on_c, 0, 85, 66
1, 59744, Note_on_c, 0, 54, 0
1, 59744, Note_on_c, 0, 59, 0
1, 59751, Note_on_c, 0, 86, 0
1, 59822, Note_on_c, 0, 86, 72
1, 59822, Note_on_c, 0, 59, 54
1, 59822, Note_on_c, 0, 54, 45
1, 59830, Note_on_c, 0, 85, 0
1, 59901, Note_on_c, 0, 85, 68
1, 59901, Note_on_c, 0, 54, 0
1, 59901, Note_on_c, 0, 59, 0
1, 59909, Note_on_c, 0, 86, 0
1, 59981, Note_on_c, 0, 86, 70
1, 59981, Note_on_c, 0, 47, 65
1, 59989, Note_on_c, 0, 85, 0
1, 60061, Note_on_c, 0, 85, 69
1, 60061, Note_on_c, 0, 47, 0
1, 60069, Note_on_c, 0, 86, 0
1, 60140, Note_on_c, 0, 83, 67
1, 60140, Note_on_c, 0, 59, 54
1, 60140, Note_on_c, 0, 56, 45
1, 60148, Note_on_c, 0, 85, 0
1, 60218, Note_on_c, 0, 81, 66
1, 60218, Note_on_c, 0, 56, 0
1, 60218, Note_on_c, 0, 59, 0
1, 60226, Note_on_c, 0, 83, 0
1, 60296, Note_on_c, 0, 80, 64
1, 60296, Note_on_c, 0, 59, 60
1, 60296, Note_on_c, 0, 56, 51
1, 60304, Note_on_c, 0, 81, 0
1, 60374, Note_on_c, 0, 81, 61
1, 60374, Note_on_c, 0, 56, 0
1, 60374, Note_on_c, 0, 59, 0
1, 60382, Note_on_c, 0, 80, 0
1, 60452, Note_on_c, 0, 83, 64
1, 60452, Note_on_c, 0, 59, 54
1, 60452, Note_on_c, 0, 56, 45
1, 60460, Note_on_c, 0, 81, 0
1, 60532, Note_on_c, 0, 80, 61
1, 60532, Note_on_c, 0, 56, 0
1, 60532, Note_on_c, 0, 59, 0
1, 60541, Note_on_c, 0, 83, 0
1, 60613, Note_on_c, 0, 81, 57
1, 60613, Note_on_c, 0, 49, 58
1, 60621, Note_on_c, 0, 80, 0
1, 60691, Note_on_c, 0, 83, 49
1, 60691, Note_on_c, 0, 49, 0
1, 60699, Note_on_c, 0, 81, 0
1, 60769, Note_on_c, 0, 85, 55
1, 60769, Note_on_c, 0, 57, 47
1, 60769, Note_on_c, 0, 54, 39
1, 60777, Note_on_c, 0, 83, 0
1, 60847, Note_on_c, 0, 81, 50
1, 60847, Note_on_c, 0, 54, 0
1, 60847, Note_on_c, 0, 57, 0
1, 60855, Note_on_c, 0, 85, 0
1, 60926, Note_on_c, 0, 77, 53
1, 60926, Note_on_c, 0, 49, 55
1, 60934, Note_on_c, 0, 81, 0
1, 61005, Note_on_c, 0, 78, 47
1, 61005, Note_on_c, 0, 49, 0
1, 61013, Note_on_c, 0, 77, 0
1, 61085, Note_on_c, 0, 80, 54
1, 61085, Note_on_c, 0, 56, 41
1, 61085, Note_on_c, 0, 59, 49
1, 61093, Note_on_c, 0, 78, 0
1, 61166, Note_on_c, 0, 77, 47
1, 61166, Note_on_c, 0, 59, 0
1, 61166, Note_on_c, 0, 56, 0
1, 61176, Note_on_c, 0, 80, 0
1, 61262, Note_on_c, 0, 78, 54
1, 61262, Note_on_c, 0, 57, 46
1, 61262, Note_on_c, 0, 54, 39
1, 61270, Note_on_c, 0, 77, 0
1, 61568, Note_on_c, 0, 78, 0
1, 61568, Note_on_c, 0, 54, 0
1, 61568, Note_on_c, 0, 57, 0
1, 61588, Note_on_c, 0, 76, 69
1, 61666, Note_on_c, 0, 74, 59
1, 61674, Note_on_c, 0, 76, 0
1, 61744, Note_on_c, 0, 73, 59
1, 61752, Note_on_c, 0, 74, 0
1, 61822, Note_on_c, 0, 71, 59
1, 61831, Note_on_c, 0, 73, 0
1, 61904, Note_on_c, 0, 69, 66
1, 61904, Note_on_c, 0, 57, 57
1, 61912, Note_on_c, 0, 71, 0
1, 61984, Note_on_c, 0, 71, 57
1, 61984, Note_on_c, 0, 57, 0
1, 61992, Note_on_c, 0, 69, 0
1, 62064, Note_on_c, 0, 73, 57
1, 62064, Note_on_c, 0, 64, 43
1, 62064, Note_on_c, 0, 61, 36
1, 62072, Note_on_c, 0, 71, 0
1, 62143, Note_on_c, 0, 74, 57
1, 62143, Note_on_c, 0, 61, 0
1, 62143, Note_on_c, 0, 64, 0
1, 62151, Note_on_c, 0, 73, 0
1, 62223, Note_on_c, 0, 76, 64
1, 62223, Note_on_c, 0, 64, 43
1, 62223, Note_on_c, 0, 61, 36
1, 62231, Note_on_c, 0, 74, 0
1, 62303, Note_on_c, 0, 78, 57
1, 62303, Note_on_c, 0, 61, 0
1, 62303, Note_on_c, 0, 64, 0
1, 62311, Note_on_c, 0, 76, 0
1, 62383, Note_on_c, 0, 80, 56
1, 62383, Note_on_c, 0, 64, 43
1, 62383, Note_on_c, 0, 61, 36
1, 62391, Note_on_c, 0, 78, 0
1, 62464, Note_on_c, 0, 81, 56
1, 62464, Note_on_c, 0, 61, 0
1, 62464, Note_on_c, 0, 64, 0
1, 62473, Note_on_c, 0, 80, 0
1, 62542, Note_on_c, 0, 81, 0
1, 62546, Note_on_c, 0, 81, 66
1, 62546, Note_on_c, 0, 59, 57
1, 62624, Note_on_c, 0, 80, 60
1, 62624, Note_on_c, 0, 59, 0
1, 62632, Note_on_c, 0, 81, 0
1, 62702, Note_on_c, 0, 78, 60
1, 62702, Note_on_c, 0, 64, 42
1, 62702, Note_on_c, 0, 62, 35
1, 62710, Note_on_c, 0, 80, 0
1, 62780, Note_on_c, 0, 76, 57
1, 62780, Note_on_c, 0, 62, 0
1, 62780, Note_on_c, 0, 64, 0
1, 62788, Note_on_c, 0, 78, 0
1, 62856, Note_on_c, 0, 76, 0
1, 62859, Note_on_c, 0, 76, 64
1, 62859, Note_on_c, 0, 56, 57
1, 62937, Note_on_c, 0, 74, 59
1, 62937, Note_on_c, 0, 56, 0
1, 62945, Note_on_c, 0, 76, 0
1, 63016, Note_on_c, 0, 73, 59
1, 63016, Note_on_c, 0, 64, 42
1, 63016, Note_on_c, 0, 62, 35
1, 63024, Note_on_c, 0, 74, 0
1, 63095, Note_on_c, 0, 71, 59
1, 63095, Note_on_c, 0, 62, 0
1, 63095, Note_on_c, 0, 64, 0
1, 63103, Note_on_c, 0, 73, 0
1, 63174, Note_on_c, 0, 69, 64
1, 63174, Note_on_c, 0, 57, 57
1, 63182, Note_on_c, 0, 71, 0
1, 63251, Note_on_c, 0, 71, 54
1, 63251, Note_on_c, 0, 57, 0
1, 63258, Note_on_c, 0, 69, 0
1, 63327, Note_on_c, 0, 73, 57
1, 63327, Note_on_c, 0, 64, 41
1, 63327, Note_on_c, 0, 61, 35
1, 63335, Note_on_c, 0, 71, 0
1, 63405, Note_on_c, 0, 74, 54
1, 63405, Note_on_c, 0, 61, 0
1, 63405, Note_on_c, 0, 64, 0
1, 63413, Note_on_c, 0, 73, 0
1, 63484, Note_on_c, 0, 76, 64
1, 63484, Note_on_c, 0, 64, 41
1, 63484, Note_on_c, 0, 61, 35
1, 63492, Note_on_c, 0, 74, 0
1, 63563, Note_on_c, 0, 78, 58
1, 63563, Note_on_c, 0, 61, 0
1, 63563, Note_on_c, 0, 64, 0
1, 63570, Note_on_c, 0, 76, 0
1, 63641, Note_on_c, 0, 80, 60
1, 63641, Note_on_c, 0, 64, 41
1, 63641, Note_on_c, 0, 61, 35
1, 63650, Note_on_c, 0, 78, 0
1, 63727, Note_on_c, 0, 81, 63
1, 63727, Note_on_c, 0, 61, 0
1, 63727, Note_on_c, 0, 64, 0
1, 63736, Note_on_c, 0, 80, 0
1, 63822, Note_on_c, 0, 81, 0
1, 63822, Note_on_c, 0, 82, 75
1, 63822, Note_on_c, 0, 52, 57
1, 63998, Note_on_c, 0, 82, 0
1, 63998, Note_on_c, 0, 83, 69
1, 63998, Note_on_c, 0, 52, 0
1, 64001, Note_on_c, 0, 62, 39
1, 64001, Note_on_c, 0, 56, 33
1, 64076, Note_on_c, 0, 56, 0
1, 64076, Note_on_c, 0, 62, 0
1, 64083, Note_on_c, 0, 83, 0
1, 64154, Note_on_c, 0, 76, 69
1, 64154, Note_on_c, 0, 56, 33
1, 64154, Note_on_c, 0, 62, 39
1, 64232, Note_on_c, 0, 74, 59
1, 64232, Note_on_c, 0, 62, 0
1, 64232, Note_on_c, 0, 56, 0
1, 64239, Note_on_c, 0, 76, 0
1, 64310, Note_on_c, 0, 73, 59
1, 64310, Note_on_c, 0, 56, 33
1, 64310, Note_on_c, 0, 62, 39
1, 64317, Note_on_c, 0, 74, 0
1, 64388, Note_on_c, 0, 71, 59
1, 64388, Note_on_c, 0, 62, 0
1, 64388, Note_on_c, 0, 56, 0
1, 64396, Note_on_c, 0, 73, 0
1, 64469, Note_on_c, 0, 69, 66
1, 64469, Note_on_c, 0, 57, 57
1, 64478, Note_on_c, 0, 71, 0
1, 64550, Note_on_c, 0, 71, 57
1, 64550, Note_on_c, 0, 57, 0
1, 64558, Note_on_c, 0, 69, 0
1, 64630, Note_on_c, 0, 73, 57
1, 64630, Note_on_c, 0, 64, 43
1, 64630, Note_on_c, 0, 61, 36
1, 64638, Note_on_c, 0, 71, 0
1, 64709, Note_on_c, 0, 74, 57
1, 64709, Note_on_c, 0, 61, 0
1, 64709, Note_on_c, 0, 64, 0
1, 64717, Note_on_c, 0, 73, 0
1, 64788, Note_on_c, 0, 76, 64
1, 64788, Note_on_c, 0, 64, 43
1, 64788, Note_on_c, 0, 61, 36
1, 64796, Note_on_c, 0, 74, 0
1, 64868, Note_on_c, 0, 78, 57
1, 64868, Note_on_c, 0, 61, 0
1, 64868, Note_on_c, 0, 64, 0
1, 64876, Note_on_c, 0, 76, 0
1, 64949, Note_on_c, 0, 80, 56
1, 64949, Note_on_c, 0, 64, 43
1, 64949, Note_on_c, 0, 61, 36
1, 64957, Note_on_c, 0, 78, 0
1, 65028, Note_on_c, 0, 81, 56
1, 65028, Note_on_c, 0, 61, 0
1, 65028, Note_on_c, 0, 64, 0
1, 65036, Note_on_c, 0, 80, 0
1, 65105, Note_on_c, 0, 81, 0
1, 65108, Note_on_c, 0, 81, 66
1, 65108, Note_on_c, 0, 59, 57
1, 65186, Note_on_c, 0, 80, 57
1, 65186, Note_on_c, 0, 59, 0
1, 65194, Note_on_c, 0, 81, 0
1, 65264, Note_on_c, 0, 78, 60
1, 65264, Note_on_c, 0, 64, 42
1, 65264, Note_on_c, 0, 62, 35
1, 65272, Note_on_c, 0, 80, 0
1, 65342, Note_on_c, 0, 76, 57
1, 65342, Note_on_c, 0, 62, 0
1, 65342, Note_on_c, 0, 64, 0
1, 65350, Note_on_c, 0, 78, 0
1, 65418, Note_on_c, 0, 76, 0
1, 65421, Note_on_c, 0, 76, 64
1, 65421, Note_on_c, 0, 56, 57
1, 65500, Note_on_c, 0, 74, 59
1, 65500, Note_on_c, 0, 56, 0
1, 65507, Note_on_c, 0, 76, 0
1, 65578, Note_on_c, 0, 73, 59
1, 65578, Note_on_c, 0, 64, 42
1, 65578, Note_on_c, 0, 62, 35
1, 65586, Note_on_c, 0, 74, 0
1, 65657, Note_on_c, 0, 71, 59
1, 65657, Note_on_c, 0, 62, 0
1, 65657, Note_on_c, 0, 64, 0
1, 65665, Note_on_c, 0, 73, 0
1, 65736, Note_on_c, 0, 73, 64
1, 65736, Note_on_c, 0, 57, 57
1, 65744, Note_on_c, 0, 71, 0
1, 65813, Note_on_c, 0, 76, 54
1, 65813, Note_on_c, 0, 57, 0
1, 65820, Note_on_c, 0, 73, 0
1, 65889, Note_on_c, 0, 69, 57
1, 65889, Note_on_c, 0, 54, 46
1, 65897, Note_on_c, 0, 76, 0
1, 65968, Note_on_c, 0, 73, 54
1, 65968, Note_on_c, 0, 54, 0
1, 65976, Note_on_c, 0, 69, 0
1, 66046, Note_on_c, 0, 71, 64
1, 66046, Note_on_c, 0, 50, 46
1, 66054, Note_on_c, 0, 73, 0
1, 66123, Note_on_c, 0, 74, 58
1, 66123, Note_on_c, 0, 50, 0
1, 66131, Note_on_c, 0, 71, 0
1, 66200, Note_on_c, 0, 68, 60
1, 66200, Note_on_c, 0, 52, 46
1, 66208, Note_on_c, 0, 74, 0
1, 66282, Note_on_c, 0, 71, 55
1, 66282, Note_on_c, 0, 52, 0
1, 66290, Note_on_c, 0, 68, 0
1, 66364, Note_on_c, 0, 71, 0
1, 66364, Note_on_c, 0, 69, 66
1, 66364, Note_on_c, 0, 45, 57
1, 66529, Note_on_c, 0, 45, 0
1, 66529, Note_on_c, 0, 57, 44
1, 66610, Note_on_c, 0, 69, 0
1, 66610, Note_on_c, 0, 57, 0
1, 66692, Note_on_c, 0, 85, 60
1, 66777, Note_on_c, 0, 86, 52
1, 66785, Note_on_c, 0, 85, 0
1, 66853, Note_on_c, 0, 85, 52
1, 66861, Note_on_c, 0, 86, 0
1, 66932, Note_on_c, 0, 83, 52
1, 66940, Note_on_c, 0, 85, 0
1, 67013, Note_on_c, 0, 81, 58
1, 67013, Note_on_c, 0, 52, 50
1, 67021, Note_on_c, 0, 83, 0
1, 67093, Note_on_c, 0, 83, 50
1, 67093, Note_on_c, 0, 52, 0
1, 67101, Note_on_c, 0, 81, 0
1, 67172, Note_on_c, 0, 81, 50
1, 67172, Note_on_c, 0, 61, 42
1, 67172, Note_on_c, 0, 57, 35
1, 67180, Note_on_c, 0, 83, 0
1, 67252, Note_on_c, 0, 80, 50
1, 67252, Note_on_c, 0, 57, 0
1, 67252, Note_on_c, 0, 61, 0
1, 67259, Note_on_c, 0, 81, 0
1, 67331, Note_on_c, 0, 78, 56
1, 67331, Note_on_c, 0, 61, 42
1, 67331, Note_on_c, 0, 57, 35
1, 67339, Note_on_c, 0, 80, 0
1, 67410, Note_on_c, 0, 81, 50
1, 67410, Note_on_c, 0, 57, 0
1, 67410, Note_on_c, 0, 61, 0
1, 67418, Note_on_c, 0, 78, 0
1, 67489, Note_on_c, 0, 80, 46
1, 67489, Note_on_c, 0, 61, 42
1, 67489, Note_on_c, 0, 57, 35
1, 67497, Note_on_c, 0, 81, 0
1, 67568, Note_on_c, 0, 78, 46
1, 67568, Note_on_c, 0, 57, 0
1, 67568, Note_on_c, 0, 61, 0
1, 67576, Note_on_c, 0, 80, 0
1, 67648, Note_on_c, 0, 77, 58
1, 67648, Note_on_c, 0, 56, 50
1, 67656, Note_on_c, 0, 78, 0
1, 67727, Note_on_c, 0, 78, 47
1, 67727, Note_on_c, 0, 56, 0
1, 67735, Note_on_c, 0, 77, 0
1, 67806, Note_on_c, 0, 80, 49
1, 67806, Note_on_c, 0, 61, 41
1, 67806, Note_on_c, 0, 59, 34
1, 67814, Note_on_c, 0, 78, 0
1, 67885, Note_on_c, 0, 77, 46
1, 67885, Note_on_c, 0, 59, 0
1, 67885, Note_on_c, 0, 61, 0
1, 67893, Note_on_c, 0, 80, 0
1, 67963, Note_on_c, 0, 73, 56
1, 67963, Note_on_c, 0, 61, 41
1, 67963, Note_on_c, 0, 59, 34
1, 67971, Note_on_c, 0, 77, 0
1, 68042, Note_on_c, 0, 75, 47
1, 68042, Note_on_c, 0, 59, 0
1, 68042, Note_on_c, 0, 61, 0
1, 68050, Note_on_c, 0, 73, 0
1, 68121, Note_on_c, 0, 77, 50
1, 68121, Note_on_c, 0, 61, 41
1, 68121, Note_on_c, 0, 59, 34
1, 68128, Note_on_c, 0, 75, 0
1, 68200, Note_on_c, 0, 73, 47
1, 68200, Note_on_c, 0, 59, 0
1, 68200, Note_on_c, 0, 61, 0
1, 68208, Note_on_c, 0, 77, 0
1, 68279, Note_on_c, 0, 78, 56
1, 68279, Note_on_c, 0, 54, 50
1, 68287, Note_on_c, 0, 73, 0
1, 68360, Note_on_c, 0, 77, 47
1, 68360, Note_on_c, 0, 54, 0
1, 68368, Note_on_c, 0, 78, 0
1, 68440, Note_on_c, 0, 78, 50
1, 68440, Note_on_c, 0, 61, 40
1, 68440, Note_on_c, 0, 57, 34
1, 68448, Note_on_c, 0, 77, 0
1, 68519, Note_on_c, 0, 80, 47
1, 68519, Note_on_c, 0, 57, 0
1, 68519, Note_on_c, 0, 61, 0
1, 68527, Note_on_c, 0, 78, 0
1, 68597, Note_on_c, 0, 81, 56
1, 68597, Note_on_c, 0, 61, 40
1, 68597, Note_on_c, 0, 57, 34
1, 68605, Note_on_c, 0, 80, 0
1, 68676, Note_on_c, 0, 80, 51
1, 68676, Note_on_c, 0, 57, 0
1, 68676, Note_on_c, 0, 61, 0
1, 68684, Note_on_c, 0, 81, 0
1, 68755, Note_on_c, 0, 81, 53
1, 68755, Note_on_c, 0, 61, 40
1, 68755, Note_on_c, 0, 57, 34
1, 68762, Note_on_c, 0, 80, 0
1, 68834, Note_on_c, 0, 83, 55
1, 68834, Note_on_c, 0, 57, 0
1, 68834, Note_on_c, 0, 61, 0
1, 68842, Note_on_c, 0, 81, 0
1, 68913, Note_on_c, 0, 85, 62
1, 68913, Note_on_c, 0, 49, 50
1, 68921, Note_on_c, 0, 83, 0
1, 68991, Note_on_c, 0, 84, 57
1, 68991, Note_on_c, 0, 49, 0
1, 68999, Note_on_c, 0, 85, 0
1, 69069, Note_on_c, 0, 85, 60
1, 69069, Note_on_c, 0, 61, 49
1, 69069, Note_on_c, 0, 56, 41
1, 69077, Note_on_c, 0, 84, 0
1, 69147, Note_on_c, 0, 84, 54
1, 69147, Note_on_c, 0, 56, 0
1, 69147, Note_on_c, 0, 61, 0
1, 69155, Note_on_c, 0, 85, 0
1, 69225, Note_on_c, 0, 84, 0
1, 69225, Note_on_c, 0, 85, 62
1, 69225, Note_on_c, 0, 61, 48
1, 69228, Note_on_c, 0, 55, 40
1, 69303, Note_on_c, 0, 86, 56
1, 69303, Note_on_c, 0, 55, 0
1, 69303, Note_on_c, 0, 61, 0
1, 69311, Note_on_c, 0, 85, 0
1, 69381, Note_on_c, 0, 85, 65
1, 69381, Note_on_c, 0, 61, 48
1, 69381, Note_on_c, 0, 54, 40
1, 69389, Note_on_c, 0, 86, 0
1, 69460, Note_on_c, 0, 82, 60
1, 69460, Note_on_c, 0, 54, 0
1, 69460, Note_on_c, 0, 61, 0
1, 69468, Note_on_c, 0, 85, 0
1, 69540, Note_on_c, 0, 86, 69
1, 69540, Note_on_c, 0, 47, 59
1, 69548, Note_on_c, 0, 82, 0
1, 69620, Note_on_c, 0, 85, 63
1, 69620, Note_on_c, 0, 47, 0
1, 69628, Note_on_c, 0, 86, 0
1, 69700, Note_on_c, 0, 86, 69
1, 69700, Note_on_c, 0, 59, 53
1, 69700, Note_on_c, 0, 54, 45
1, 69708, Note_on_c, 0, 85, 0
1, 69779, Note_on_c, 0, 85, 64
1, 69779, Note_on_c, 0, 54, 0
1, 69779, Note_on_c, 0, 59, 0
1, 69787, Note_on_c, 0, 86, 0
1, 69858, Note_on_c, 0, 86, 68
1, 69858, Note_on_c, 0, 59, 56
1, 69858, Note_on_c, 0, 54, 47
1, 69865, Note_on_c, 0, 85, 0
1, 69936, Note_on_c, 0, 85, 66
1, 69936, Note_on_c, 0, 54, 0
1, 69936, Note_on_c, 0, 59, 0
1, 69944, Note_on_c, 0, 86, 0
1, 70015, Note_on_c, 0, 86, 72
1, 70015, Note_on_c, 0, 59, 54
1, 70015, Note_on_c, 0, 54, 45
1, 70023, Note_on_c, 0, 85, 0
1, 70094, Note_on_c, 0, 85, 68
1, 70094, Note_on_c, 0, 54, 0
1, 70094, Note_on_c, 0, 59, 0
1, 70102, Note_on_c, 0, 86, 0
1, 70174, Note_on_c, 0, 86, 70
1, 70174, Note_on_c, 0, 47, 65
1, 70182, Note_on_c, 0, 85, 0
1, 70254, Note_on_c, 0, 85, 69
1, 70254, Note_on_c, 0, 47, 0
1, 70262, Note_on_c, 0, 86, 0
1, 70333, Note_on_c, 0, 83, 67
1, 70333, Note_on_c, 0, 59, 54
1, 70333, Note_on_c, 0, 56, 45
1, 70341, Note_on_c, 0, 85, 0
1, 70411, Note_on_c, 0, 81, 66
1, 70411, Note_on_c, 0, 56, 0
1, 70411, Note_on_c, 0, 59, 0
1, 70419, Note_on_c, 0, 83, 0
1, 70489, Note_on_c, 0, 80, 64
1, 70489, Note_on_c, 0, 59, 60
1, 70489, Note_on_c, 0, 56, 51
1, 70497, Note_on_c, 0, 81, 0
1, 70567, Note_on_c, 0, 81, 61
1, 70567, Note_on_c, 0, 56, 0
1, 70567, Note_on_c, 0, 59, 0
1, 70575, Note_on_c, 0, 80, 0
1, 70645, Note_on_c, 0, 83, 64
1, 70645, Note_on_c, 0, 59, 54
1, 70645, Note_on_c, 0, 56, 45
1, 70653, Note_on_c, 0, 81, 0
1, 70726, Note_on_c, 0, 80, 61
1, 70726, Note_on_c, 0, 56, 0
1, 70726, Note_on_c, 0, 59, 0
1, 70734, Note_on_c, 0, 83, 0
1, 70806, Note_on_c, 0, 81, 57
1, 70806, Note_on_c, 0, 49, 58
1, 70814, Note_on_c, 0, 80, 0
1, 70884, Note_on_c, 0, 83, 49
1, 70884, Note_on_c, 0, 49, 0
1, 70892, Note_on_c, 0, 81, 0
1, 70962, Note_on_c, 0, 85, 55
1, 70962, Note_on_c, 0, 57, 47
1, 70962, Note_on_c, 0, 54, 39
1, 70970, Note_on_c, 0, 83, 0
1, 71040, Note_on_c, 0, 81, 50
1, 71040, Note_on_c, 0, 54, 0
1, 71040, Note_on_c, 0, 57, 0
1, 71048, Note_on_c, 0, 85, 0
1, 71119, Note_on_c, 0, 77, 53
1, 71119, Note_on_c, 0, 49, 55
1, 71127, Note_on_c, 0, 81, 0
1, 71198, Note_on_c, 0, 78, 47
1, 71198, Note_on_c, 0, 49, 0
1, 71206, Note_on_c, 0, 77, 0
1, 71278, Note_on_c, 0, 80, 54
1, 71278, Note_on_c, 0, 56, 41
1, 71278, Note_on_c, 0, 59, 49
1, 71286, Note_on_c, 0, 78, 0
1, 71359, Note_on_c, 0, 77, 47
1, 71359, Note_on_c, 0, 59, 0
1, 71359, Note_on_c, 0, 56, 0
1, 71369, Note_on_c, 0, 80, 0
1, 71455, Note_on_c, 0, 78, 54
1, 71455, Note_on_c, 0, 57, 46
1, 71455, Note_on_c, 0, 54, 39
1, 71465, Note_on_c, 0, 77, 0
1, 71804, Note_on_c, 0, 78, 0
1, 71804, Note_on_c, 0, 54, 0
1, 71804, Note_on_c, 0, 57, 0
1, 71827, Note_on_c, 0, 69, 73
1, 71827, Note_on_c, 0, 81, 84
1, 71907, Note_on_c, 0, 81, 0
1, 71907, Note_on_c, 0, 69, 0
1, 71987, Note_on_c, 0, 71, 73
1, 71987, Note_on_c, 0, 83, 84
1, 72068, Note_on_c, 0, 83, 0
1, 72068, Note_on_c, 0, 71, 0
1, 72068, Note_on_c, 0, 45, 64
1, 72095, Note_on_c, 0, 45, 0
1, 72095, Note_on_c, 0, 49, 64
1, 72122, Note_on_c, 0, 49, 0
1, 72122, Note_on_c, 0, 52, 64
1, 72149, Note_on_c, 0, 73, 78
1, 72149, Note_on_c, 0, 85, 90
1, 72149, Note_on_c, 0, 52, 0
1, 72152, Note_on_c, 0, 57, 73
1, 72152, Control_c, 0, 64, 127
1, 72225, Note_on_c, 0, 57, 0
1, 72302, Note_on_c, 0, 57, 69
1, 72308, Control_c, 0, 64, 0
1, 72381, Note_on_c, 0, 57, 0
1, 72460, Note_on_c, 0, 85, 0
1, 72460, Note_on_c, 0, 73, 0
1, 72460, Note_on_c, 0, 69, 73
1, 72463, Note_on_c, 0, 81, 84
1, 72463, Note_on_c, 0, 57, 69
1, 72537, Note_on_c, 0, 81, 0
1, 72537, Note_on_c, 0, 69, 0
1, 72537, Note_on_c, 0, 57, 0
1, 72615, Note_on_c, 0, 71, 73
1, 72615, Note_on_c, 0, 83, 84
1, 72615, Note_on_c, 0, 57, 69
1, 72694, Note_on_c, 0, 83, 0
1, 72694, Note_on_c, 0, 71, 0
1, 72694, Note_on_c, 0, 57, 0
1, 72697, Note_on_c, 0, 45, 60
1, 72720, Note_on_c, 0, 45, 0
1, 72720, Note_on_c, 0, 49, 60
1, 72747, Note_on_c, 0, 49, 0
1, 72747, Note_on_c, 0, 52, 60
1, 72773, Note_on_c, 0, 73, 79
1, 72773, Note_on_c, 0, 85, 91
1, 72773, Note_on_c, 0, 52, 0
1, 72776, Note_on_c, 0, 57, 72
1, 72776, Control_c, 0, 64, 127
1, 72849, Note_on_c, 0, 85, 0
1, 72849, Note_on_c, 0, 73, 0
1, 72849, Note_on_c, 0, 57, 0
1, 72926, Note_on_c, 0, 71, 72
1, 72926, Note_on_c, 0, 83, 82
1, 72926, Note_on_c, 0, 57, 64
1, 72932, Control_c, 0, 64, 0
1, 73003, Note_on_c, 0, 83, 0
1, 73003, Note_on_c, 0, 71, 0
1, 73003, Note_on_c, 0, 57, 0
1, 73080, Note_on_c, 0, 69, 77
1, 73080, Note_on_c, 0, 81, 89
1, 73080, Note_on_c, 0, 57, 65
1, 73157, Note_on_c, 0, 81, 0
1, 73157, Note_on_c, 0, 69, 0
1, 73157, Note_on_c, 0, 57, 0
1, 73233, Note_on_c, 0, 68, 73
1, 73233, Note_on_c, 0, 80, 84
1, 73233, Note_on_c, 0, 57, 67
1, 73317, Note_on_c, 0, 80, 0
1, 73317, Note_on_c, 0, 68, 0
1, 73317, Note_on_c, 0, 57, 0
1, 73320, Note_on_c, 0, 38, 63
1, 73345, Note_on_c, 0, 38, 0
1, 73345, Note_on_c, 0, 42, 63
1, 73373, Note_on_c, 0, 42, 0
1, 73373, Note_on_c, 0, 45, 63
1, 73401, Note_on_c, 0, 66, 80
1, 73401, Note_on_c, 0, 78, 92
1, 73401, Note_on_c, 0, 45, 0
1, 73404, Note_on_c, 0, 50, 73
1, 73404, Control_c, 0, 64, 127
1, 73478, Note_on_c, 0, 78, 0
1, 73478, Note_on_c, 0, 66, 0
1, 73478, Note_on_c, 0, 50, 0
1, 73555, Note_on_c, 0, 68, 69
1, 73555, Note_on_c, 0, 80, 78
1, 73555, Note_on_c, 0, 50, 69
1, 73564, Control_c, 0, 64, 0
1, 73634, Note_on_c, 0, 80, 0
1, 73634, Note_on_c, 0, 68, 0
1, 73634, Note_on_c, 0, 50, 0
1, 73637, Note_on_c, 0, 39, 63
1, 73660, Note_on_c, 0, 39, 0
1, 73660, Note_on_c, 0, 42, 63
1, 73686, Note_on_c, 0, 42, 0
1, 73686, Note_on_c, 0, 45, 63
1, 73712, Note_on_c, 0, 69, 75
1, 73712, Note_on_c, 0, 81, 86
1, 73712, Note_on_c, 0, 45, 0
1, 73715, Note_on_c, 0, 51, 73
1, 73737, Control_c, 0, 64, 127
1, 73792, Note_on_c, 0, 81, 0
1, 73792, Note_on_c, 0, 69, 0
1, 73792, Note_on_c, 0, 51, 0
1, 73871, Note_on_c, 0, 71, 70
1, 73871, Note_on_c, 0, 83, 80
1, 73871, Note_on_c, 0, 51, 71
1, 73880, Control_c, 0, 64, 0
1, 73955, Note_on_c, 0, 83, 0
1, 73955, Note_on_c, 0, 71, 0
1, 73955, Note_on_c, 0, 51, 0
1, 73958, Note_on_c, 0, 40, 63
1, 73983, Note_on_c, 0, 40, 0
1, 73983, Note_on_c, 0, 44, 63
1, 74011, Note_on_c, 0, 44, 0
1, 74011, Note_on_c, 0, 47, 63
1, 74039, Note_on_c, 0, 68, 78
1, 74039, Note_on_c, 0, 80, 90
1, 74039, Note_on_c, 0, 47, 0
1, 74042, Note_on_c, 0, 52, 73
1, 74042, Control_c, 0, 64, 127
1, 74198, Note_on_c, 0, 80, 0
1, 74198, Note_on_c, 0, 68, 0
1, 74198, Note_on_c, 0, 64, 73
1, 74201, Note_on_c, 0, 76, 84
1, 74201, Note_on_c, 0, 52, 0
1, 74201, Note_on_c, 0, 52, 73
1, 74273, Control_c, 0, 64, 0
1, 74283, Note_on_c, 0, 76, 0
1, 74283, Note_on_c, 0, 64, 0
1, 74283, Note_on_c, 0, 52, 0
1, 74369, Note_on_c, 0, 69, 73
1, 74369, Note_on_c, 0, 81, 84
1, 74448, Note_on_c, 0, 81, 0
1, 74448, Note_on_c, 0, 69, 0
1, 74528, Note_on_c, 0, 71, 73
1, 74528, Note_on_c, 0, 83, 84
1, 74606, Note_on_c, 0, 83, 0
1, 74606, Note_on_c, 0, 71, 0
1, 74606, Note_on_c, 0, 45, 64
1, 74633, Note_on_c, 0, 45, 0
1, 74633, Note_on_c, 0, 49, 64
1, 74659, Note_on_c, 0, 49, 0
1, 74659, Note_on_c, 0, 52, 64
1, 74685, Note_on_c, 0, 73, 78
1, 74685, Note_on_c, 0, 85, 90
1, 74685, Note_on_c, 0, 52, 0
1, 74688, Note_on_c, 0, 57, 73
1, 74688, Control_c, 0, 64, 127
1, 74761, Note_on_c, 0, 57, 0
1, 74838, Note_on_c, 0, 57, 69
1, 74844, Control_c, 0, 64, 0
1, 74916, Note_on_c, 0, 57, 0
1, 74995, Note_on_c, 0, 85, 0
1, 74995, Note_on_c, 0, 73, 0
1, 74995, Note_on_c, 0, 69, 73
1, 74998, Note_on_c, 0, 81, 84
1, 74998, Note_on_c, 0, 57, 69
1, 75071, Note_on_c, 0, 81, 0
1, 75071, Note_on_c, 0, 69, 0
1, 75071, Note_on_c, 0, 57, 0
1, 75148, Note_on_c, 0, 71, 73
1, 75148, Note_on_c, 0, 83, 84
1, 75148, Note_on_c, 0, 57, 69
1, 75227, Note_on_c, 0, 83, 0
1, 75227, Note_on_c, 0, 71, 0
1, 75227, Note_on_c, 0, 57, 0
1, 75230, Note_on_c, 0, 45, 60
1, 75253, Note_on_c, 0, 45, 0
1, 75253, Note_on_c, 0, 49, 60
1, 75279, Note_on_c, 0, 49, 0
1, 75279, Note_on_c, 0, 52, 60
1, 75306, Note_on_c, 0, 73, 79
1, 75306, Note_on_c, 0, 85, 91
1, 75306, Note_on_c, 0, 52, 0
1, 75309, Note_on_c, 0, 57, 72
1, 75309, Control_c, 0, 64, 127
1, 75383, Note_on_c, 0, 85, 0
1, 75383, Note_on_c, 0, 73, 0
1, 75383, Note_on_c, 0, 57, 0
1, 75460, Note_on_c, 0, 71, 72
1, 75460, Note_on_c, 0, 83, 82
1, 75460, Note_on_c, 0, 57, 64
1, 75466, Control_c, 0, 64, 0
1, 75537, Note_on_c, 0, 83, 0
1, 75537, Note_on_c, 0, 71, 0
1, 75537, Note_on_c, 0, 57, 0
1, 75615, Note_on_c, 0, 69, 77
1, 75615, Note_on_c, 0, 81, 89
1, 75615, Note_on_c, 0, 57, 65
1, 75693, Note_on_c, 0, 81, 0
1, 75693, Note_on_c, 0, 69, 0
1, 75693, Note_on_c, 0, 57, 0
1, 75771, Note_on_c, 0, 68, 73
1, 75771, Note_on_c, 0, 80, 84
1, 75771, Note_on_c, 0, 57, 67
1, 75852, Note_on_c, 0, 80, 0
1, 75852, Note_on_c, 0, 68, 0
1, 75852, Note_on_c, 0, 57, 0
1, 75855, Note_on_c, 0, 38, 63
1, 75879, Note_on_c, 0, 38, 0
1, 75879, Note_on_c, 0, 42, 63
1, 75906, Note_on_c, 0, 42, 0
1, 75906, Note_on_c, 0, 45, 63
1, 75933, Note_on_c, 0, 66, 80
1, 75933, Note_on_c, 0, 78, 92
1, 75933, Note_on_c, 0, 45, 0
1, 75936, Note_on_c, 0, 50, 73
1, 75936, Control_c, 0, 64, 127
1, 76011, Note_on_c, 0, 78, 0
1, 76011, Note_on_c, 0, 66, 0
1, 76011, Note_on_c, 0, 50, 0
1, 76088, Note_on_c, 0, 71, 69
1, 76088, Note_on_c, 0, 83, 78
1, 76088, Note_on_c, 0, 50, 69
1, 76098, Control_c, 0, 64, 0
1, 76170, Note_on_c, 0, 83, 0
1, 76170, Note_on_c, 0, 71, 0
1, 76170, Note_on_c, 0, 50, 0
1, 76173, Note_on_c, 0, 40, 63
1, 76197, Note_on_c, 0, 40, 0
1, 76197, Note_on_c, 0, 44, 63
1, 76224, Note_on_c, 0, 44, 0
1, 76224, Note_on_c, 0, 47, 63
1, 76251, Note_on_c, 0, 68, 75
1, 76251, Note_on_c, 0, 80, 86
1, 76251, Note_on_c, 0, 47, 0
1, 76254, Note_on_c, 0, 52, 73
1, 76277, Control_c, 0, 64, 127
1, 76336, Note_on_c, 0, 80, 0
1, 76336, Note_on_c, 0, 68, 0
1, 76336, Note_on_c, 0, 52, 0
1, 76420, Note_on_c, 0, 64, 70
1, 76420, Note_on_c, 0, 76, 80
1, 76420, Note_on_c, 0, 52, 71
1, 76429, Control_c, 0, 64, 0
1, 76507, Note_on_c, 0, 76, 0
1, 76507, Note_on_c, 0, 64, 0
1, 76507, Note_on_c, 0, 52, 0
1, 76594, Note_on_c, 0, 69, 78
1, 76594, Note_on_c, 0, 81, 90
1, 76594, Note_on_c, 0, 45, 73
1, 76597, Control_c, 0, 64, 127
1, 76838, Control_c, 0, 64, 0
1, 76911, Note_on_c, 0, 81, 0
1, 76911, Note_on_c, 0, 69, 0
1, 76911, Note_on_c, 0, 45, 0
1, 76932, Note_on_c, 0, 69, 73
1, 76932, Note_on_c, 0, 81, 84
1, 77011, Note_on_c, 0, 81, 0
1, 77011, Note_on_c, 0, 69, 0
1, 77089, Note_on_c, 0, 71, 73
1, 77089, Note_on_c, 0, 83, 84
1, 77170, Note_on_c, 0, 83, 0
1, 77170, Note_on_c, 0, 71, 0
1, 77170, Note_on_c, 0, 45, 64
1, 77197, Note_on_c, 0, 45, 0
1, 77197, Note_on_c, 0, 49, 64
1, 77224, Note_on_c, 0, 49, 0
1, 77224, Note_on_c, 0, 52, 64
1, 77251, Note_on_c, 0, 73, 78
1, 77251, Note_on_c, 0, 85, 90
1, 77251, Note_on_c, 0, 52, 0
1, 77254, Note_on_c, 0, 57, 73
1, 77254, Control_c, 0, 64, 127
1, 77327, Note_on_c, 0, 57, 0
1, 77403, Note_on_c, 0, 57, 69
1, 77410, Control_c, 0, 64, 0
1, 77483, Note_on_c, 0, 57, 0
1, 77562, Note_on_c, 0, 85, 0
1, 77562, Note_on_c, 0, 73, 0
1, 77562, Note_on_c, 0, 69, 73
1, 77565, Note_on_c, 0, 81, 84
1, 77565, Note_on_c, 0, 57, 69
1, 77639, Note_on_c, 0, 81, 0
1, 77639, Note_on_c, 0, 69, 0
1, 77639, Note_on_c, 0, 57, 0
1, 77717, Note_on_c, 0, 71, 73
1, 77717, Note_on_c, 0, 83, 84
1, 77717, Note_on_c, 0, 57, 69
1, 77796, Note_on_c, 0, 83, 0
1, 77796, Note_on_c, 0, 71, 0
1, 77796, Note_on_c, 0, 57, 0
1, 77799, Note_on_c, 0, 45, 60
1, 77823, Note_on_c, 0, 45, 0
1, 77823, Note_on_c, 0, 49, 60
1, 77849, Note_on_c, 0, 49, 0
1, 77849, Note_on_c, 0, 52, 60
1, 77876, Note_on_c, 0, 73, 79
1, 77876, Note_on_c, 0, 85, 91
1, 77876, Note_on_c, 0, 52, 0
1, 77879, Note_on_c, 0, 57, 72
1, 77879, Control_c, 0, 64, 127
1, 77952, Note_on_c, 0, 85, 0
1, 77952, Note_on_c, 0, 73, 0
1, 77952, Note_on_c, 0, 57, 0
1, 78029, Note_on_c, 0, 71, 72
1, 78029, Note_on_c, 0, 83, 82
1, 78029, Note_on_c, 0, 57, 64
1, 78035, Control_c, 0, 64, 0
1, 78107, Note_on_c, 0, 83, 0
1, 78107, Note_on_c, 0, 71, 0
1, 78107, Note_on_c, 0, 57, 0
1, 78186, Note_on_c, 0, 69, 77
1, 78186, Note_on_c, 0, 81, 89
1, 78186, Note_on_c, 0, 57, 65
1, 78263, Note_on_c, 0, 81, 0
1, 78263, Note_on_c, 0, 69, 0
1, 78263, Note_on_c, 0, 57, 0
1, 78340, Note_on_c, 0, 68, 73
1, 78340, Note_on_c, 0, 80, 84
1, 78340, Note_on_c, 0, 57, 67
1, 78420, Note_on_c, 0, 80, 0
1, 78420, Note_on_c, 0, 68, 0
1, 78420, Note_on_c, 0, 57, 0
1, 78423, Note_on_c, 0, 38, 63
1, 78447, Note_on_c, 0, 38, 0
1, 78447, Note_on_c, 0, 42, 63
1, 78473, Note_on_c, 0, 42, 0
1, 78473, Note_on_c, 0, 45, 63
1, 78500, Note_on_c, 0, 66, 80
1, 78500, Note_on_c, 0, 78, 92
1, 78500, Note_on_c, 0, 45, 0
1, 78503, Note_on_c, 0, 50, 73
1, 78503, Control_c, 0, 64, 127
1, 78577, Note_on_c, 0, 78, 0
1, 78577, Note_on_c, 0, 66, 0
1, 78577, Note_on_c, 0, 50, 0
1, 78654, Note_on_c, 0, 68, 69
1, 78654, Note_on_c, 0, 80, 78
1, 78654, Note_on_c, 0, 50, 69
1, 78663, Control_c, 0, 64, 0
1, 78735, Note_on_c, 0, 80, 0
1, 78735, Note_on_c, 0, 68, 0
1, 78735, Note_on_c, 0, 50, 0
1, 78738, Note_on_c, 0, 39, 63
1, 78762, Note_on_c, 0, 39, 0
1, 78762, Note_on_c, 0, 42, 63
1, 78789, Note_on_c, 0, 42, 0
1, 78789, Note_on_c, 0, 45, 63
1, 78816, Note_on_c, 0, 69, 75
1, 78816, Note_on_c, 0, 81, 86
1, 78816, Note_on_c, 0, 45, 0
1, 78819, Note_on_c, 0, 51, 73
1, 78841, Control_c, 0, 64, 127
1, 78896, Note_on_c, 0, 81, 0
1, 78896, Note_on_c, 0, 69, 0
1, 78896, Note_on_c, 0, 51, 0
1, 78977, Note_on_c, 0, 71, 70
1, 78977, Note_on_c, 0, 83, 80
1, 78977, Note_on_c, 0, 51, 71
1, 78986, Control_c, 0, 64, 0
1, 79061, Note_on_c, 0, 83, 0
1, 79061, Note_on_c, 0, 71, 0
1, 79061, Note_on_c, 0, 51, 0
1, 79064, Note_on_c, 0, 40, 63
1, 79089, Note_on_c, 0, 40, 0
1, 79089, Note_on_c, 0, 44, 63
1, 79117, Note_on_c, 0, 44, 0
1, 79117, Note_on_c, 0, 47, 63
1, 79145, Note_on_c, 0, 68, 78
1, 79145, Note_on_c, 0, 80, 90
1, 79145, Note_on_c, 0, 47, 0
1, 79148, Note_on_c, 0, 52, 73
1, 79148, Control_c, 0, 64, 127
1, 79304, Note_on_c, 0, 80, 0
1, 79304, Note_on_c, 0, 68, 0
1, 79304, Note_on_c, 0, 64, 73
1, 79307, Note_on_c, 0, 76, 84
1, 79307, Note_on_c, 0, 52, 0
1, 79307, Note_on_c, 0, 52, 73
1, 79379, Control_c, 0, 64, 0
1, 79389, Note_on_c, 0, 76, 0
1, 79389, Note_on_c, 0, 64, 0
1, 79389, Note_on_c, 0, 52, 0
1, 79474, Note_on_c, 0, 69, 73
1, 79474, Note_on_c, 0, 81, 84
1, 79552, Note_on_c, 0, 81, 0
1, 79552, Note_on_c, 0, 69, 0
1, 79630, Note_on_c, 0, 71, 73
1, 79630, Note_on_c, 0, 83, 84
1, 79709, Note_on_c, 0, 83, 0
1, 79709, Note_on_c, 0, 71, 0
1, 79709, Note_on_c, 0, 45, 64
1, 79735, Note_on_c, 0, 45, 0
1, 79735, Note_on_c, 0, 49, 64
1, 79761, Note_on_c, 0, 49, 0
1, 79761, Note_on_c, 0, 52, 64
1, 79787, Note_on_c, 0, 73, 78
1, 79787, Note_on_c, 0, 85, 90
1, 79787, Note_on_c, 0, 52, 0
1, 79790, Note_on_c, 0, 57, 73
1, 79790, Control_c, 0, 64, 127
1, 79864, Note_on_c, 0, 57, 0
1, 79940, Note_on_c, 0, 57, 69
1, 79947, Control_c, 0, 64, 0
1, 80019, Note_on_c, 0, 57, 0
1, 80097, Note_on_c, 0, 85, 0
1, 80097, Note_on_c, 0, 73, 0
1, 80097, Note_on_c, 0, 69, 73
1, 80100, Note_on_c, 0, 81, 84
1, 80100, Note_on_c, 0, 57, 69
1, 80174, Note_on_c, 0, 81, 0
1, 80174, Note_on_c, 0, 69, 0
1, 80174, Note_on_c, 0, 57, 0
1, 80250, Note_on_c, 0, 71, 73
1, 80250, Note_on_c, 0, 83, 84
1, 80250, Note_on_c, 0, 57, 69
1, 80331, Note_on_c, 0, 83, 0
1, 80331, Note_on_c, 0, 71, 0
1, 80331, Note_on_c, 0, 57, 0
1, 80334, Note_on_c, 0, 45, 60
1, 80358, Note_on_c, 0, 45, 0
1, 80358, Note_on_c, 0, 49, 60
1, 80385, Note_on_c, 0, 49, 0
1, 80385, Note_on_c, 0, 52, 60
1, 80412, Note_on_c, 0, 73, 79
1, 80412, Note_on_c, 0, 85, 91
1, 80412, Note_on_c, 0, 52, 0
1, 80415, Note_on_c, 0, 57, 72
1, 80415, Control_c, 0, 64, 127
1, 80489, Note_on_c, 0, 85, 0
1, 80489, Note_on_c, 0, 73, 0
1, 80489, Note_on_c, 0, 57, 0
1, 80566, Note_on_c, 0, 71, 72
1, 80566, Note_on_c, 0, 83, 82
1, 80566, Note_on_c, 0, 57, 64
1, 80572, Control_c, 0, 64, 0
1, 80643, Note_on_c, 0, 83, 0
1, 80643, Note_on_c, 0, 71, 0
1, 80643, Note_on_c, 0, 57, 0
1, 80721, Note_on_c, 0, 69, 77
1, 80721, Note_on_c, 0, 81, 89
1, 80721, Note_on_c, 0, 57, 65
1, 80799, Note_on_c, 0, 81, 0
1, 80799, Note_on_c, 0, 69, 0
1, 80799, Note_on_c, 0, 57, 0
1, 80877, Note_on_c, 0, 68, 73
1, 80877, Note_on_c, 0, 80, 84
1, 80877, Note_on_c, 0, 57, 67
1, 80958, Note_on_c, 0, 80, 0
1, 80958, Note_on_c, 0, 68, 0
1, 80958, Note_on_c, 0, 57, 0
1, 80961, Note_on_c, 0, 38, 63
1, 80985, Note_on_c, 0, 38, 0
1, 80985, Note_on_c, 0, 42, 63
1, 81012, Note_on_c, 0, 42, 0
1, 81012, Note_on_c, 0, 45, 63
1, 81039, Note_on_c, 0, 66, 80
1, 81039, Note_on_c, 0, 78, 92
1, 81039, Note_on_c, 0, 45, 0
1, 81042, Note_on_c, 0, 50, 73
1, 81042, Control_c, 0, 64, 127
1, 81117, Note_on_c, 0, 78, 0
1, 81117, Note_on_c, 0, 66, 0
1, 81117, Note_on_c, 0, 50, 0
1, 81194, Note_on_c, 0, 71, 69
1, 81194, Note_on_c, 0, 83, 78
1, 81194, Note_on_c, 0, 50, 69
1, 81204, Control_c, 0, 64, 0
1, 81279, Note_on_c, 0, 83, 0
1, 81279, Note_on_c, 0, 71, 0
1, 81279, Note_on_c, 0, 50, 0
1, 81282, Note_on_c, 0, 40, 63
1, 81308, Note_on_c, 0, 40, 0
1, 81308, Note_on_c, 0, 44, 63
1, 81336, Note_on_c, 0, 44, 0
1, 81336, Note_on_c, 0, 47, 63
1, 81364, Note_on_c, 0, 68, 75
1, 81364, Note_on_c, 0, 80, 86
1, 81364, Note_on_c, 0, 47, 0
1, 81367, Note_on_c, 0, 52, 73
1, 81391, Control_c, 0, 64, 127
1, 81449, Note_on_c, 0, 80, 0
1, 81449, Note_on_c, 0, 68, 0
1, 81449, Note_on_c, 0, 52, 0
1, 81533, Note_on_c, 0, 64, 70
1, 81533, Note_on_c, 0, 76, 80
1, 81533, Note_on_c, 0, 52, 71
1, 81542, Control_c, 0, 64, 0
1, 81620, Note_on_c, 0, 76, 0
1, 81620, Note_on_c, 0, 64, 0
1, 81620, Note_on_c, 0, 52, 0
1, 81708, Note_on_c, 0, 69, 78
1, 81708, Note_on_c, 0, 81, 90
1, 81708, Note_on_c, 0, 45, 73
1, 81711, Control_c, 0, 64, 127
1, 82028, Control_c, 0, 64, 0
1, 82125, Note_on_c, 0, 81, 0
1, 82125, Note_on_c, 0, 69, 0
1, 82125, Note_on_c, 0, 45, 0
1, 82152, Note_on_c, 0, 71, 66
1, 82227, Note_on_c, 0, 71, 0
1, 82227, Note_on_c, 0, 69, 64
1, 82301, Note_on_c, 0, 69, 0
1, 82301, Note_on_c, 0, 68, 64
1, 82376, Note_on_c, 0, 68, 0
1, 82376, Note_on_c, 0, 69, 64
1, 82460, Note_on_c, 0, 69, 0
1, 82460, Note_on_c, 0, 72, 71
1, 82460, Note_on_c, 0, 57, 57
1, 82512, Control_c, 0, 64, 127
1, 82534, Note_on_c, 0, 72, 0
1, 82534, Note_on_c, 0, 57, 0
1, 82609, Note_on_c, 0, 64, 52
1, 82609, Note_on_c, 0, 60, 43
1, 82615, Control_c, 0, 64, 0
1, 82683, Note_on_c, 0, 60, 0
1, 82683, Note_on_c, 0, 64, 0
1, 82768, Note_on_c, 0, 74, 66
1, 82768, Note_on_c, 0, 60, 43
1, 82768, Note_on_c, 0, 64, 52
1, 82829, Control_c, 0, 64, 127
1, 82842, Note_on_c, 0, 74, 0
1, 82842, Note_on_c, 0, 72, 63
1, 82842, Note_on_c, 0, 64, 0
1, 82845, Note_on_c, 0, 60, 0
1, 82917, Note_on_c, 0, 72, 0
1, 82917, Note_on_c, 0, 71, 63
1, 82917, Note_on_c, 0, 60, 42
1, 82920, Note_on_c, 0, 64, 51
1, 82992, Note_on_c, 0, 71, 0
1, 82992, Note_on_c, 0, 72, 63
1, 82992, Note_on_c, 0, 64, 0
1, 82995, Note_on_c, 0, 60, 0
1, 83077, Note_on_c, 0, 72, 0
1, 83077, Note_on_c, 0, 76, 72
1, 83077, Note_on_c, 0, 57, 57
1, 83080, Control_c, 0, 64, 0
1, 83123, Control_c, 0, 64, 127
1, 83152, Note_on_c, 0, 76, 0
1, 83152, Note_on_c, 0, 57, 0
1, 83226, Note_on_c, 0, 64, 52
1, 83226, Note_on_c, 0, 60, 43
1, 83232, Control_c, 0, 64, 0
1, 83300, Note_on_c, 0, 60, 0
1, 83300, Note_on_c, 0, 64, 0
1, 83383, Note_on_c, 0, 77, 66
1, 83383, Note_on_c, 0, 64, 52
1, 83383, Note_on_c, 0, 60, 43
1, 83425, Control_c, 0, 64, 127
1, 83457, Note_on_c, 0, 77, 0
1, 83457, Note_on_c, 0, 76, 63
1, 83457, Note_on_c, 0, 60, 0
1, 83460, Note_on_c, 0, 64, 0
1, 83532, Note_on_c, 0, 76, 0
1, 83532, Note_on_c, 0, 75, 63
1, 83532, Note_on_c, 0, 64, 52
1, 83535, Note_on_c, 0, 60, 43
1, 83606, Note_on_c, 0, 75, 0
1, 83606, Note_on_c, 0, 76, 63
1, 83606, Note_on_c, 0, 60, 0
1, 83609, Note_on_c, 0, 64, 0
1, 83684, Note_on_c, 0, 76, 0
1, 83684, Note_on_c, 0, 83, 70
1, 83684, Note_on_c, 0, 57, 57
1, 83687, Control_c, 0, 64, 0
1, 83741, Control_c, 0, 64, 127
1, 83759, Note_on_c, 0, 83, 0
1, 83759, Note_on_c, 0, 81, 64
1, 83759, Note_on_c, 0, 57, 0
1, 83833, Note_on_c, 0, 81, 0
1, 83833, Note_on_c, 0, 80, 64
1, 83833, Note_on_c, 0, 64, 50
1, 83836, Note_on_c, 0, 60, 42
1, 83907, Note_on_c, 0, 80, 0
1, 83907, Note_on_c, 0, 81, 64
1, 83907, Note_on_c, 0, 60, 0
1, 83910, Note_on_c, 0, 64, 0
1, 83982, Note_on_c, 0, 81, 0
1, 83982, Note_on_c, 0, 83, 69
1, 83982, Note_on_c, 0, 57, 57
1, 83985, Control_c, 0, 64, 0
1, 84018, Control_c, 0, 64, 127
1, 84058, Note_on_c, 0, 83, 0
1, 84058, Note_on_c, 0, 81, 64
1, 84058, Note_on_c, 0, 57, 0
1, 84134, Note_on_c, 0, 81, 0
1, 84134, Note_on_c, 0, 80, 64
1, 84134, Note_on_c, 0, 64, 52
1, 84137, Note_on_c, 0, 60, 43
1, 84209, Note_on_c, 0, 80, 0
1, 84209, Note_on_c, 0, 81, 64
1, 84209, Note_on_c, 0, 60, 0
1, 84212, Note_on_c, 0, 64, 0
1, 84295, Note_on_c, 0, 81, 0
1, 84295, Note_on_c, 0, 84, 72
1, 84295, Note_on_c, 0, 57, 57
1, 84298, Control_c, 0, 64, 0
1, 84326, Control_c, 0, 64, 127
1, 84372, Note_on_c, 0, 57, 0
1, 84448, Note_on_c, 0, 64, 50
1, 84448, Note_on_c, 0, 60, 42
1, 84455, Control_c, 0, 64, 0
1, 84528, Note_on_c, 0, 60, 0
1, 84528, Note_on_c, 0, 64, 0
1, 84615, Note_on_c, 0, 84, 0
1, 84615, Note_on_c, 0, 81, 68
1, 84615, Note_on_c, 0, 64, 50
1, 84618, Note_on_c, 0, 60, 42
1, 84689, Note_on_c, 0, 81, 0
1, 84689, Note_on_c, 0, 60, 0
1, 84689, Note_on_c, 0, 64, 0
1, 84763, Note_on_c, 0, 84, 65
1, 84763, Note_on_c, 0, 64, 50
1, 84763, Note_on_c, 0, 60, 42
1, 84844, Note_on_c, 0, 84, 0
1, 84844, Note_on_c, 0, 60, 0
1, 84844, Note_on_c, 0, 64, 0
1, 84898, Note_on_c, 0, 79, 63
1, 84915, Note_on_c, 0, 79, 0
1, 84915, Note_on_c, 0, 81, 63
1, 84932, Note_on_c, 0, 81, 0
1, 84932, Note_on_c, 0, 83, 80
1, 84932, Note_on_c, 0, 52, 65
1, 85008, Note_on_c, 0, 83, 0
1, 85008, Note_on_c, 0, 52, 0
1, 85083, Note_on_c, 0, 78, 54
1, 85083, Note_on_c, 0, 81, 64
1, 85083, Note_on_c, 0, 64, 53
1, 85086, Note_on_c, 0, 59, 44
1, 85159, Note_on_c, 0, 81, 0
1, 85159, Note_on_c, 0, 78, 0
1, 85159, Note_on_c, 0, 59, 0
1, 85162, Note_on_c, 0, 64, 0
1, 85235, Note_on_c, 0, 76, 58
1, 85235, Note_on_c, 0, 79, 69
1, 85235, Note_on_c, 0, 64, 53
1, 85238, Note_on_c, 0, 59, 44
1, 85310, Note_on_c, 0, 79, 0
1, 85310, Note_on_c, 0, 76, 0
1, 85310, Note_on_c, 0, 59, 0
1, 85313, Note_on_c, 0, 64, 0
1, 85384, Note_on_c, 0, 78, 54
1, 85384, Note_on_c, 0, 81, 64
1, 85384, Note_on_c, 0, 64, 53
1, 85387, Note_on_c, 0, 59, 44
1, 85464, Note_on_c, 0, 81, 0
1, 85464, Note_on_c, 0, 78, 0
1, 85464, Note_on_c, 0, 59, 0
1, 85467, Note_on_c, 0, 64, 0
1, 85518, Note_on_c, 0, 79, 65
1, 85534, Note_on_c, 0, 79, 0
1, 85534, Note_on_c, 0, 81, 65
1, 85551, Note_on_c, 0, 81, 0
1, 85551, Note_on_c, 0, 83, 82
1, 85551, Note_on_c, 0, 52, 66
1, 85627, Note_on_c, 0, 83, 0
1, 85627, Note_on_c, 0, 52, 0
1, 85703, Note_on_c, 0, 78, 56
1, 85703, Note_on_c, 0, 81, 66
1, 85703, Note_on_c, 0, 64, 52
1, 85706, Note_on_c, 0, 59, 43
1, 85779, Note_on_c, 0, 81, 0
1, 85779, Note_on_c, 0, 78, 0
1, 85779, Note_on_c, 0, 59, 0
1, 85782, Note_on_c, 0, 64, 0
1, 85855, Note_on_c, 0, 76, 58
1, 85855, Note_on_c, 0, 79, 69
1, 85855, Note_on_c, 0, 64, 52
1, 85858, Note_on_c, 0, 59, 43
1, 85929, Note_on_c, 0, 79, 0
1, 85929, Note_on_c, 0, 76, 0
1, 85929, Note_on_c, 0, 59, 0
1, 85932, Note_on_c, 0, 64, 0
1, 86004, Note_on_c, 0, 78, 55
1, 86004, Note_on_c, 0, 81, 65
1, 86004, Note_on_c, 0, 64, 52
1, 86007, Note_on_c, 0, 59, 43
1, 86084, Note_on_c, 0, 81, 0
1, 86084, Note_on_c, 0, 78, 0
1, 86084, Note_on_c, 0, 59, 0
1, 86087, Note_on_c, 0, 64, 0
1, 86136, Note_on_c, 0, 79, 64
1, 86153, Note_on_c, 0, 79, 0
1, 86153, Note_on_c, 0, 81, 64
1, 86169, Note_on_c, 0, 83, 79
1, 86169, Note_on_c, 0, 52, 67
1, 86188, Note_on_c, 0, 81, 0
1, 86245, Note_on_c, 0, 83, 0
1, 86245, Note_on_c, 0, 52, 0
1, 86320, Note_on_c, 0, 78, 57
1, 86320, Note_on_c, 0, 81, 68
1, 86320, Note_on_c, 0, 64, 52
1, 86323, Note_on_c, 0, 59, 43
1, 86395, Note_on_c, 0, 81, 0
1, 86395, Note_on_c, 0, 78, 0
1, 86395, Note_on_c, 0, 59, 0
1, 86398, Note_on_c, 0, 64, 0
1, 86471, Note_on_c, 0, 76, 58
1, 86471, Note_on_c, 0, 79, 69
1, 86471, Note_on_c, 0, 47, 52
1, 86553, Note_on_c, 0, 79, 0
1, 86553, Note_on_c, 0, 76, 0
1, 86553, Note_on_c, 0, 47, 0
1, 86635, Note_on_c, 0, 75, 56
1, 86635, Note_on_c, 0, 78, 66
1, 86635, Note_on_c, 0, 59, 52
1, 86722, Note_on_c, 0, 78, 0
1, 86722, Note_on_c, 0, 75, 0
1, 86722, Note_on_c, 0, 59, 0
1, 86809, Note_on_c, 0, 76, 69
1, 86809, Note_on_c, 0, 52, 57
1, 87151, Note_on_c, 0, 76, 0
1, 87151, Note_on_c, 0, 52, 0
1, 87174, Note_on_c, 0, 71, 66
1, 87249, Note_on_c, 0, 71, 0
1, 87249, Note_on_c, 0, 69, 64
1, 87323, Note_on_c, 0, 69, 0
1, 87323, Note_on_c, 0, 68, 64
1, 87397, Note_on_c, 0, 68, 0
1, 87397, Note_on_c, 0, 69, 64
1, 87482, Note_on_c, 0, 69, 0
1, 87482, Note_on_c, 0, 72, 71
1, 87482, Note_on_c, 0, 57, 57
1, 87534, Control_c, 0, 64, 127
1, 87556, Note_on_c, 0, 72, 0
1, 87556, Note_on_c, 0, 57, 0
1, 87630, Note_on_c, 0, 64, 52
1, 87630, Note_on_c, 0, 60, 43
1, 87637, Control_c, 0, 64, 0
1, 87705, Note_on_c, 0, 60, 0
1, 87705, Note_on_c, 0, 64, 0
1, 87789, Note_on_c, 0, 74, 66
1, 87789, Note_on_c, 0, 60, 43
1, 87789, Note_on_c, 0, 64, 52
1, 87851, Control_c, 0, 64, 127
1, 87864, Note_on_c, 0, 74, 0
1, 87864, Note_on_c, 0, 72, 63
1, 87864, Note_on_c, 0, 64, 0
1, 87867, Note_on_c, 0, 60, 0
1, 87939, Note_on_c, 0, 72, 0
1, 87939, Note_on_c, 0, 71, 63
1, 87939, Note_on_c, 0, 60, 42
1, 87942, Note_on_c, 0, 64, 51
1, 88014, Note_on_c, 0, 71, 0
1, 88014, Note_on_c, 0, 72, 63
1, 88014, Note_on_c, 0, 64, 0
1, 88017, Note_on_c, 0, 60, 0
1, 88099, Note_on_c, 0, 72, 0
1, 88099, Note_on_c, 0, 76, 72
1, 88099, Note_on_c, 0, 57, 57
1, 88102, Control_c, 0, 64, 0
1, 88145, Control_c, 0, 64, 127
1, 88173, Note_on_c, 0, 76, 0
1, 88173, Note_on_c, 0, 57, 0
1, 88248, Note_on_c, 0, 64, 52
1, 88248, Note_on_c, 0, 60, 43
1, 88254, Control_c, 0, 64, 0
1, 88322, Note_on_c, 0, 60, 0
1, 88322, Note_on_c, 0, 64, 0
1, 88405, Note_on_c, 0, 77, 66
1, 88405, Note_on_c, 0, 64, 52
1, 88405, Note_on_c, 0, 60, 43
1, 88447, Control_c, 0, 64, 127
1, 88479, Note_on_c, 0, 77, 0
1, 88479, Note_on_c, 0, 76, 63
1, 88479, Note_on_c, 0, 60, 0
1, 88482, Note_on_c, 0, 64, 0
1, 88554, Note_on_c, 0, 76, 0
1, 88554, Note_on_c, 0, 75, 63
1, 88554, Note_on_c, 0, 64, 52
1, 88557, Note_on_c, 0, 60, 43
1, 88628, Note_on_c, 0, 75, 0
1, 88628, Note_on_c, 0, 76, 63
1, 88628, Note_on_c, 0, 60, 0
1, 88631, Note_on_c, 0, 64, 0
1, 88706, Note_on_c, 0, 76, 0
1, 88706, Note_on_c, 0, 83, 70
1, 88706, Note_on_c, 0, 57, 57
1, 88709, Control_c, 0, 64, 0
1, 88762, Control_c, 0, 64, 127
1, 88780, Note_on_c, 0, 83, 0
1, 88780, Note_on_c, 0, 81, 64
1, 88780, Note_on_c, 0, 57, 0
1, 88855, Note_on_c, 0, 81, 0
1, 88855, Note_on_c, 0, 80, 64
1, 88855, Note_on_c, 0, 64, 50
1, 88858, Note_on_c, 0, 60, 42
1, 88929, Note_on_c, 0, 80, 0
1, 88929, Note_on_c, 0, 81, 64
1, 88929, Note_on_c, 0, 60, 0
1, 88932, Note_on_c, 0, 64, 0
1, 89003, Note_on_c, 0, 81, 0
1, 89003, Note_on_c, 0, 83, 69
1, 89003, Note_on_c, 0, 57, 57
1, 89006, Control_c, 0, 64, 0
1, 89040, Control_c, 0, 64, 127
1, 89079, Note_on_c, 0, 83, 0
1, 89079, Note_on_c, 0, 81, 64
1, 89079, Note_on_c, 0, 57, 0
1, 89155, Note_on_c, 0, 81, 0
1, 89155, Note_on_c, 0, 80, 64
1, 89155, Note_on_c, 0, 64, 52
1, 89158, Note_on_c, 0, 60, 43
1, 89231, Note_on_c, 0, 80, 0
1, 89231, Note_on_c, 0, 81, 64
1, 89231, Note_on_c, 0, 60, 0
1, 89234, Note_on_c, 0, 64, 0
1, 89317, Note_on_c, 0, 81, 0
1, 89317, Note_on_c, 0, 84, 72
1, 89317, Note_on_c, 0, 57, 57
1, 89320, Control_c, 0, 64, 0
1, 89348, Control_c, 0, 64, 127
1, 89393, Note_on_c, 0, 57, 0
1, 89470, Note_on_c, 0, 64, 50
1, 89470, Note_on_c, 0, 60, 42
1, 89476, Control_c, 0, 64, 0
1, 89549, Note_on_c, 0, 60, 0
1, 89549, Note_on_c, 0, 64, 0
1, 89636, Note_on_c, 0, 84, 0
1, 89636, Note_on_c, 0, 81, 68
1, 89636, Note_on_c, 0, 64, 50
1, 89639, Note_on_c, 0, 60, 42
1, 89711, Note_on_c, 0, 81, 0
1, 89711, Note_on_c, 0, 60, 0
1, 89711, Note_on_c, 0, 64, 0
1, 89785, Note_on_c, 0, 84, 65
1, 89785, Note_on_c, 0, 64, 50
1, 89785, Note_on_c, 0, 60, 42
1, 89865, Note_on_c, 0, 84, 0
1, 89865, Note_on_c, 0, 60, 0
1, 89865, Note_on_c, 0, 64, 0
1, 89920, Note_on_c, 0, 79, 63
1, 89937, Note_on_c, 0, 79, 0
1, 89937, Note_on_c, 0, 81, 63
1, 89953, Note_on_c, 0, 81, 0
1, 89953, Note_on_c, 0, 83, 80
1, 89953, Note_on_c, 0, 52, 65
1, 90029, Note_on_c, 0, 83, 0
1, 90029, Note_on_c, 0, 52, 0
1, 90105, Note_on_c, 0, 78, 54
1, 90105, Note_on_c, 0, 81, 64
1, 90105, Note_on_c, 0, 64, 53
1, 90108, Note_on_c, 0, 59, 44
1, 90181, Note_on_c, 0, 81, 0
1, 90181, Note_on_c, 0, 78, 0
1, 90181, Note_on_c, 0, 59, 0
1, 90184, Note_on_c, 0, 64, 0
1, 90257, Note_on_c, 0, 76, 58
1, 90257, Note_on_c, 0, 79, 69
1, 90257, Note_on_c, 0, 64, 53
1, 90260, Note_on_c, 0, 59, 44
1, 90331, Note_on_c, 0, 79, 0
1, 90331, Note_on_c, 0, 76, 0
1, 90331, Note_on_c, 0, 59, 0
1, 90334, Note_on_c, 0, 64, 0
1, 90406, Note_on_c, 0, 78, 54
1, 90406, Note_on_c, 0, 81, 64
1, 90406, Note_on_c, 0, 64, 53
1, 90409, Note_on_c, 0, 59, 44
1, 90486, Note_on_c, 0, 81, 0
1, 90486, Note_on_c, 0, 78, 0
1, 90486, Note_on_c, 0, 59, 0
1, 90489, Note_on_c, 0, 64, 0
1, 90539, Note_on_c, 0, 79, 65
1, 90556, Note_on_c, 0, 79, 0
1, 90556, Note_on_c, 0, 81, 65
1, 90573, Note_on_c, 0, 81, 0
1, 90573, Note_on_c, 0, 83, 82
1, 90573, Note_on_c, 0, 52, 66
1, 90649, Note_on_c, 0, 83, 0
1, 90649, Note_on_c, 0, 52, 0
1, 90725, Note_on_c, 0, 78, 56
1, 90725, Note_on_c, 0, 81, 66
1, 90725, Note_on_c, 0, 64, 52
1, 90728, Note_on_c, 0, 59, 43
1, 90801, Note_on_c, 0, 81, 0
1, 90801, Note_on_c, 0, 78, 0
1, 90801, Note_on_c, 0, 59, 0
1, 90804, Note_on_c, 0, 64, 0
1, 90877, Note_on_c, 0, 76, 58
1, 90877, Note_on_c, 0, 79, 69
1, 90877, Note_on_c, 0, 64, 52
1, 90880, Note_on_c, 0, 59, 43
1, 90951, Note_on_c, 0, 79, 0
1, 90951, Note_on_c, 0, 76, 0
1, 90951, Note_on_c, 0, 59, 0
1, 90954, Note_on_c, 0, 64, 0
1, 91025, Note_on_c, 0, 78, 55
1, 91025, Note_on_c, 0, 81, 65
1, 91025, Note_on_c, 0, 64, 52
1, 91028, Note_on_c, 0, 59, 43
1, 91106, Note_on_c, 0, 81, 0
1, 91106, Note_on_c, 0, 78, 0
1, 91106, Note_on_c, 0, 59, 0
1, 91109, Note_on_c, 0, 64, 0
1, 91158, Note_on_c, 0, 79, 64
1, 91174, Note_on_c, 0, 79, 0
1, 91174, Note_on_c, 0, 81, 64
1, 91191, Note_on_c, 0, 83, 79
1, 91191, Note_on_c, 0, 52, 67
1, 91210, Note_on_c, 0, 81, 0
1, 91266, Note_on_c, 0, 83, 0
1, 91266, Note_on_c, 0, 52, 0
1, 91341, Note_on_c, 0, 78, 57
1, 91341, Note_on_c, 0, 81, 68
1, 91341, Note_on_c, 0, 64, 52
1, 91344, Note_on_c, 0, 59, 43
1, 91416, Note_on_c, 0, 81, 0
1, 91416, Note_on_c, 0, 78, 0
1, 91416, Note_on_c, 0, 59, 0
1, 91419, Note_on_c, 0, 64, 0
1, 91490, Note_on_c, 0, 76, 58
1, 91490, Note_on_c, 0, 79, 69
1, 91490, Note_on_c, 0, 47, 52
1, 91572, Note_on_c, 0, 79, 0
1, 91572, Note_on_c, 0, 76, 0
1, 91572, Note_on_c, 0, 47, 0
1, 91653, Note_on_c, 0, 75, 56
1, 91653, Note_on_c, 0, 78, 66
1, 91653, Note_on_c, 0, 59, 52
1, 91745, Note_on_c, 0, 78, 0
1, 91745, Note_on_c, 0, 75, 0
1, 91745, Note_on_c, 0, 59, 0
1, 91837, Note_on_c, 0, 76, 69
1, 91837, Note_on_c, 0, 52, 57
1, 92161, Note_on_c, 0, 76, 0
1, 92161, Note_on_c, 0, 52, 0
1, 92183, Note_on_c, 0, 72, 56
1, 92183, Note_on_c, 0, 76, 56
1, 92264, Note_on_c, 0, 76, 0
1, 92264, Note_on_c, 0, 72, 0
1, 92346, Note_on_c, 0, 74, 56
1, 92346, Note_on_c, 0, 77, 56
1, 92425, Note_on_c, 0, 77, 0
1, 92425, Note_on_c, 0, 74, 0
1, 92505, Note_on_c, 0, 76, 66
1, 92505, Note_on_c, 0, 79, 66
1, 92505, Note_on_c, 0, 48, 59
1, 92583, Note_on_c, 0, 79, 0
1, 92583, Note_on_c, 0, 76, 0
1, 92583, Note_on_c, 0, 48, 0
1, 92661, Note_on_c, 0, 76, 57
1, 92661, Note_on_c, 0, 79, 57
1, 92661, Note_on_c, 0, 60, 53
1, 92739, Note_on_c, 0, 79, 0
1, 92739, Note_on_c, 0, 76, 0
1, 92739, Note_on_c, 0, 60, 0
1, 92817, Note_on_c, 0, 81, 64
1, 92817, Note_on_c, 0, 52, 59
1, 92894, Note_on_c, 0, 81, 0
1, 92894, Note_on_c, 0, 79, 57
1, 92894, Note_on_c, 0, 52, 0
1, 92916, Control_c, 0, 64, 127
1, 92971, Note_on_c, 0, 79, 0
1, 92971, Note_on_c, 0, 77, 57
1, 92971, Note_on_c, 0, 64, 57
1, 93052, Note_on_c, 0, 77, 0
1, 93052, Note_on_c, 0, 76, 57
1, 93052, Note_on_c, 0, 64, 0
1, 93136, Note_on_c, 0, 76, 0
1, 93136, Note_on_c, 0, 74, 65
1, 93136, Note_on_c, 0, 71, 65
1, 93139, Note_on_c, 0, 55, 60
1, 93139, Control_c, 0, 64, 0
1, 93222, Control_c, 0, 64, 127
1, 93298, Note_on_c, 0, 71, 0
1, 93298, Note_on_c, 0, 67, 59
1, 93461, Note_on_c, 0, 67, 0
1, 93461, Note_on_c, 0, 74, 0
1, 93461, Note_on_c, 0, 72, 56
1, 93464, Note_on_c, 0, 76, 56
1, 93464, Note_on_c, 0, 55, 0
1, 93464, Control_c, 0, 64, 0
1, 93542, Note_on_c, 0, 76, 0
1, 93542, Note_on_c, 0, 72, 0
1, 93623, Note_on_c, 0, 74, 56
1, 93623, Note_on_c, 0, 77, 56
1, 93703, Note_on_c, 0, 77, 0
1, 93703, Note_on_c, 0, 74, 0
1, 93783, Note_on_c, 0, 76, 66
1, 93783, Note_on_c, 0, 79, 66
1, 93783, Note_on_c, 0, 48, 59
1, 93861, Note_on_c, 0, 79, 0
1, 93861, Note_on_c, 0, 76, 0
1, 93861, Note_on_c, 0, 48, 0
1, 93939, Note_on_c, 0, 76, 57
1, 93939, Note_on_c, 0, 79, 57
1, 93939, Note_on_c, 0, 60, 53
1, 94017, Note_on_c, 0, 79, 0
1, 94017, Note_on_c, 0, 76, 0
1, 94017, Note_on_c, 0, 60, 0
1, 94095, Note_on_c, 0, 81, 64
1, 94095, Note_on_c, 0, 52, 59
1, 94172, Note_on_c, 0, 81, 0
1, 94172, Note_on_c, 0, 79, 57
1, 94172, Note_on_c, 0, 52, 0
1, 94194, Control_c, 0, 64, 127
1, 94249, Note_on_c, 0, 79, 0
1, 94249, Note_on_c, 0, 77, 57
1, 94249, Note_on_c, 0, 64, 57
1, 94329, Note_on_c, 0, 77, 0
1, 94329, Note_on_c, 0, 76, 57
1, 94329, Note_on_c, 0, 64, 0
1, 94414, Note_on_c, 0, 76, 0
1, 94414, Note_on_c, 0, 74, 65
1, 94414, Note_on_c, 0, 71, 65
1, 94417, Note_on_c, 0, 55, 60
1, 94417, Control_c, 0, 64, 0
1, 94499, Control_c, 0, 64, 127
1, 94738, Note_on_c, 0, 71, 0
1, 94738, Note_on_c, 0, 74, 0
1, 94738, Note_on_c, 0, 69, 56
1, 94741, Note_on_c, 0, 72, 56
1, 94741, Note_on_c, 0, 55, 0
1, 94741, Control_c, 0, 64, 0
1, 94823, Note_on_c, 0, 72, 0
1, 94823, Note_on_c, 0, 69, 0
1, 94908, Note_on_c, 0, 71, 56
1, 94908, Note_on_c, 0, 74, 56
1, 94988, Note_on_c, 0, 74, 0
1, 94988, Note_on_c, 0, 71, 0
1, 95068, Note_on_c, 0, 72, 66
1, 95068, Note_on_c, 0, 76, 66
1, 95068, Note_on_c, 0, 45, 59
1, 95146, Note_on_c, 0, 76, 0
1, 95146, Note_on_c, 0, 72, 0
1, 95146, Note_on_c, 0, 45, 0
1, 95224, Note_on_c, 0, 72, 57
1, 95224, Note_on_c, 0, 76, 57
1, 95224, Note_on_c, 0, 57, 53
1, 95302, Note_on_c, 0, 76, 0
1, 95302, Note_on_c, 0, 72, 0
1, 95302, Note_on_c, 0, 57, 0
1, 95380, Note_on_c, 0, 77, 64
1, 95380, Note_on_c, 0, 48, 59
1, 95457, Note_on_c, 0, 77, 0
1, 95457, Note_on_c, 0, 76, 57
1, 95457, Note_on_c, 0, 48, 0
1, 95479, Control_c, 0, 64, 127
1, 95534, Note_on_c, 0, 76, 0
1, 95534, Note_on_c, 0, 74, 57
1, 95534, Note_on_c, 0, 60, 57
1, 95614, Note_on_c, 0, 74, 0
1, 95614, Note_on_c, 0, 72, 57
1, 95614, Note_on_c, 0, 60, 0
1, 95699, Note_on_c, 0, 72, 0
1, 95699, Note_on_c, 0, 71, 65
1, 95699, Note_on_c, 0, 68, 65
1, 95702, Note_on_c, 0, 52, 60
1, 95702, Control_c, 0, 64, 0
1, 95784, Control_c, 0, 64, 127
1, 95860, Note_on_c, 0, 68, 0
1, 95860, Note_on_c, 0, 64, 59
1, 96022, Note_on_c, 0, 64, 0
1, 96022, Note_on_c, 0, 71, 0
1, 96022, Note_on_c, 0, 69, 56
1, 96025, Note_on_c, 0, 72, 56
1, 96025, Note_on_c, 0, 52, 0
1, 96025, Control_c, 0, 64, 0
1, 96103, Note_on_c, 0, 72, 0
1, 96103, Note_on_c, 0, 69, 0
1, 96185, Note_on_c, 0, 71, 56
1, 96185, Note_on_c, 0, 74, 56
1, 96264, Note_on_c, 0, 74, 0
1, 96264, Note_on_c, 0, 71, 0
1, 96344, Note_on_c, 0, 72, 66
1, 96344, Note_on_c, 0, 76, 66
1, 96344, Note_on_c, 0, 45, 59
1, 96422, Note_on_c, 0, 76, 0
1, 96422, Note_on_c, 0, 72, 0
1, 96422, Note_on_c, 0, 45, 0
1, 96500, Note_on_c, 0, 72, 57
1, 96500, Note_on_c, 0, 76, 57
1, 96500, Note_on_c, 0, 57, 53
1, 96578, Note_on_c, 0, 76, 0
1, 96578, Note_on_c, 0, 72, 0
1, 96578, Note_on_c, 0, 57, 0
1, 96656, Note_on_c, 0, 77, 64
1, 96656, Note_on_c, 0, 48, 59
1, 96733, Note_on_c, 0, 77, 0
1, 96733, Note_on_c, 0, 76, 57
1, 96733, Note_on_c, 0, 48, 0
1, 96755, Control_c, 0, 64, 127
1, 96810, Note_on_c, 0, 76, 0
1, 96810, Note_on_c, 0, 74, 57
1, 96810, Note_on_c, 0, 60, 57
1, 96891, Note_on_c, 0, 74, 0
1, 96891, Note_on_c, 0, 72, 57
1, 96891, Note_on_c, 0, 60, 0
1, 96975, Note_on_c, 0, 72, 0
1, 96975, Note_on_c, 0, 71, 65
1, 96975, Note_on_c, 0, 68, 65
1, 96978, Note_on_c, 0, 52, 60
1, 96978, Control_c, 0, 64, 0
1, 97061, Control_c, 0, 64, 127
1, 97298, Note_on_c, 0, 68, 0
1, 97298, Note_on_c, 0, 71, 0
1, 97298, Note_on_c, 0, 71, 56
1, 97301, Note_on_c, 0, 52, 0
1, 97301, Control_c, 0, 64, 0
1, 97373, Note_on_c, 0, 71, 0
1, 97373, Note_on_c, 0, 69, 56
1, 97447, Note_on_c, 0, 69, 0
1, 97447, Note_on_c, 0, 68, 56
1, 97522, Note_on_c, 0, 68, 0
1, 97522, Note_on_c, 0, 69, 56
1, 97606, Note_on_c, 0, 69, 0
1, 97606, Note_on_c, 0, 72, 59
1, 97606, Note_on_c, 0, 57, 53
1, 97658, Control_c, 0, 64, 127
1, 97680, Note_on_c, 0, 72, 0
1, 97680, Note_on_c, 0, 57, 0
1, 97755, Note_on_c, 0, 64, 47
1, 97755, Note_on_c, 0, 60, 47
1, 97761, Control_c, 0, 64, 0
1, 97829, Note_on_c, 0, 60, 0
1, 97829, Note_on_c, 0, 64, 0
1, 97914, Note_on_c, 0, 74, 62
1, 97914, Note_on_c, 0, 60, 47
1, 97914, Note_on_c, 0, 64, 47
1, 97975, Control_c, 0, 64, 127
1, 97988, Note_on_c, 0, 74, 0
1, 97988, Note_on_c, 0, 72, 57
1, 97988, Note_on_c, 0, 64, 0
1, 97991, Note_on_c, 0, 60, 0
1, 98063, Note_on_c, 0, 72, 0
1, 98063, Note_on_c, 0, 71, 57
1, 98063, Note_on_c, 0, 60, 47
1, 98066, Note_on_c, 0, 64, 47
1, 98138, Note_on_c, 0, 71, 0
1, 98138, Note_on_c, 0, 72, 57
1, 98138, Note_on_c, 0, 64, 0
1, 98141, Note_on_c, 0, 60, 0
1, 98223, Note_on_c, 0, 72, 0
1, 98223, Note_on_c, 0, 76, 66
1, 98223, Note_on_c, 0, 57, 54
1, 98226, Control_c, 0, 64, 0
1, 98269, Control_c, 0, 64, 127
1, 98298, Note_on_c, 0, 76, 0
1, 98298, Note_on_c, 0, 57, 0
1, 98372, Note_on_c, 0, 64, 48
1, 98372, Note_on_c, 0, 60, 48
1, 98378, Control_c, 0, 64, 0
1, 98446, Note_on_c, 0, 60, 0
1, 98446, Note_on_c, 0, 64, 0
1, 98529, Note_on_c, 0, 77, 63
1, 98529, Note_on_c, 0, 64, 48
1, 98529, Note_on_c, 0, 60, 48
1, 98571, Control_c, 0, 64, 127
1, 98603, Note_on_c, 0, 77, 0
1, 98603, Note_on_c, 0, 76, 58
1, 98603, Note_on_c, 0, 60, 0
1, 98606, Note_on_c, 0, 64, 0
1, 98678, Note_on_c, 0, 76, 0
1, 98678, Note_on_c, 0, 75, 58
1, 98678, Note_on_c, 0, 64, 48
1, 98681, Note_on_c, 0, 60, 48
1, 98752, Note_on_c, 0, 75, 0
1, 98752, Note_on_c, 0, 76, 58
1, 98752, Note_on_c, 0, 60, 0
1, 98755, Note_on_c, 0, 64, 0
1, 98830, Note_on_c, 0, 76, 0
1, 98830, Note_on_c, 0, 83, 70
1, 98830, Note_on_c, 0, 57, 56
1, 98833, Control_c, 0, 64, 0
1, 98887, Control_c, 0, 64, 127
1, 98905, Note_on_c, 0, 83, 0
1, 98905, Note_on_c, 0, 81, 63
1, 98905, Note_on_c, 0, 57, 0
1, 98980, Note_on_c, 0, 81, 0
1, 98980, Note_on_c, 0, 80, 63
1, 98980, Note_on_c, 0, 64, 49
1, 98983, Note_on_c, 0, 60, 49
1, 99055, Note_on_c, 0, 80, 0
1, 99055, Note_on_c, 0, 81, 63
1, 99055, Note_on_c, 0, 60, 0
1, 99058, Note_on_c, 0, 64, 0
1, 99130, Note_on_c, 0, 81, 0
1, 99130, Note_on_c, 0, 83, 71
1, 99130, Note_on_c, 0, 57, 57
1, 99133, Control_c, 0, 64, 0
1, 99166, Control_c, 0, 64, 127
1, 99207, Note_on_c, 0, 83, 0
1, 99207, Note_on_c, 0, 81, 64
1, 99207, Note_on_c, 0, 57, 0
1, 99285, Note_on_c, 0, 81, 0
1, 99285, Note_on_c, 0, 80, 64
1, 99285, Note_on_c, 0, 64, 52
1, 99288, Note_on_c, 0, 60, 43
1, 99362, Note_on_c, 0, 80, 0
1, 99362, Note_on_c, 0, 81, 64
1, 99362, Note_on_c, 0, 60, 0
1, 99365, Note_on_c, 0, 64, 0
1, 99458, Note_on_c, 0, 81, 0
1, 99458, Note_on_c, 0, 84, 76
1, 99458, Note_on_c, 0, 53, 57
1, 99461, Control_c, 0, 64, 0
1, 99489, Control_c, 0, 64, 127
1, 99534, Note_on_c, 0, 53, 0
1, 99611, Note_on_c, 0, 63, 51
1, 99611, Note_on_c, 0, 57, 51
1, 99618, Control_c, 0, 64, 0
1, 99691, Note_on_c, 0, 57, 0
1, 99691, Note_on_c, 0, 63, 0
1, 99778, Note_on_c, 0, 84, 0
1, 99778, Note_on_c, 0, 81, 62
1, 99778, Note_on_c, 0, 63, 43
1, 99781, Note_on_c, 0, 57, 43
1, 99855, Note_on_c, 0, 81, 0
1, 99855, Note_on_c, 0, 57, 0
1, 99855, Note_on_c, 0, 63, 0
1, 99931, Note_on_c, 0, 83, 62
1, 99931, Note_on_c, 0, 63, 39
1, 99931, Note_on_c, 0, 57, 39
1, 100012, Note_on_c, 0, 83, 0
1, 100012, Note_on_c, 0, 57, 0
1, 100012, Note_on_c, 0, 63, 0
1, 100092, Note_on_c, 0, 84, 70
1, 100092, Note_on_c, 0, 52, 46
1, 100168, Note_on_c, 0, 84, 0
1, 100168, Note_on_c, 0, 52, 0
1, 100244, Note_on_c, 0, 83, 62
1, 100244, Note_on_c, 0, 64, 42
1, 100244, Note_on_c, 0, 57, 42
1, 100320, Note_on_c, 0, 83, 0
1, 100320, Note_on_c, 0, 57, 0
1, 100320, Note_on_c, 0, 64, 0
1, 100396, Note_on_c, 0, 81, 62
1, 100396, Note_on_c, 0, 50, 42
1, 100472, Note_on_c, 0, 81, 0
1, 100472, Note_on_c, 0, 50, 0
1, 100549, Note_on_c, 0, 80, 62
1, 100549, Note_on_c, 0, 59, 42
1, 100549, Note_on_c, 0, 53, 42
1, 100630, Note_on_c, 0, 80, 0
1, 100630, Note_on_c, 0, 53, 0
1, 100630, Note_on_c, 0, 59, 0
1, 100710, Note_on_c, 0, 81, 71
1, 100710, Note_on_c, 0, 48, 47
1, 100786, Note_on_c, 0, 81, 0
1, 100786, Note_on_c, 0, 48, 0
1, 100862, Note_on_c, 0, 76, 64
1, 100862, Note_on_c, 0, 57, 39
1, 100862, Note_on_c, 0, 52, 39
1, 100938, Note_on_c, 0, 76, 0
1, 100938, Note_on_c, 0, 52, 0
1, 100938, Note_on_c, 0, 57, 0
1, 101013, Note_on_c, 0, 50, 41
1, 101013, Note_on_c, 0, 77, 64
1, 101091, Note_on_c, 0, 50, 0
1, 101091, Note_on_c, 0, 77, 0
1, 101168, Note_on_c, 0, 74, 64
1, 101168, Note_on_c, 0, 59, 41
1, 101168, Note_on_c, 0, 53, 41
1, 101249, Note_on_c, 0, 74, 0
1, 101249, Note_on_c, 0, 53, 0
1, 101249, Note_on_c, 0, 59, 0
1, 101330, Note_on_c, 0, 72, 74
1, 101330, Note_on_c, 0, 52, 48
1, 101330, Note_on_c, 0, 57, 48
1, 101381, Control_c, 0, 64, 127
1, 101407, Note_on_c, 0, 57, 0
1, 101407, Note_on_c, 0, 52, 0
1, 101484, Note_on_c, 0, 57, 41
1, 101484, Note_on_c, 0, 52, 41
1, 101561, Note_on_c, 0, 52, 0
1, 101561, Note_on_c, 0, 57, 0
1, 101634, Note_on_c, 0, 52, 41
1, 101638, Note_on_c, 0, 72, 0
1, 101638, Note_on_c, 0, 72, 64
1, 101638, Note_on_c, 0, 56, 41
1, 101645, Control_c, 0, 64, 0
1, 101676, Note_on_c, 0, 71, 57
1, 101676, Note_on_c, 0, 72, 0
1, 101699, Control_c, 0, 64, 127
1, 101715, Note_on_c, 0, 52, 0
1, 101715, Note_on_c, 0, 71, 0
1, 101715, Note_on_c, 0, 72, 57
1, 101719, Note_on_c, 0, 56, 0
1, 101757, Note_on_c, 0, 72, 0
1, 101757, Note_on_c, 0, 71, 57
1, 101798, Note_on_c, 0, 71, 0
1, 101798, Note_on_c, 0, 52, 41
1, 101798, Note_on_c, 0, 56, 41
1, 101805, Note_on_c, 0, 72, 57
1, 101840, Note_on_c, 0, 71, 57
1, 101848, Note_on_c, 0, 72, 0
1, 101875, Note_on_c, 0, 69, 64
1, 101883, Note_on_c, 0, 71, 0
1, 101886, Note_on_c, 0, 56, 0
1, 101886, Note_on_c, 0, 52, 0
1, 101924, Note_on_c, 0, 69, 0
1, 101924, Note_on_c, 0, 71, 57
1, 101981, Note_on_c, 0, 71, 0
1, 101993, Note_on_c, 0, 69, 65
1, 101993, Note_on_c, 0, 45, 46
1, 101993, Note_on_c, 0, 57, 46
1, 101996, Control_c, 0, 64, 0
1, 102325, Note_on_c, 0, 69, 0
1, 102325, Note_on_c, 0, 57, 0
1, 102347, Note_on_c, 0, 72, 56
1, 102347, Note_on_c, 0, 76, 56
1, 102347, Note_on_c, 0, 45, 0
1, 102428, Note_on_c, 0, 76, 0
1, 102428, Note_on_c, 0, 72, 0
1, 102510, Note_on_c, 0, 74, 56
1, 102510, Note_on_c, 0, 77, 56
1, 102589, Note_on_c, 0, 77, 0
1, 102589, Note_on_c, 0, 74, 0
1, 102669, Note_on_c, 0, 76, 66
1, 102669, Note_on_c, 0, 79, 66
1, 102669, Note_on_c, 0, 48, 59
1, 102747, Note_on_c, 0, 79, 0
1, 102747, Note_on_c, 0, 76, 0
1, 102747, Note_on_c, 0, 48, 0
1, 102825, Note_on_c, 0, 76, 57
1, 102825, Note_on_c, 0, 79, 57
1, 102825, Note_on_c, 0, 60, 53
1, 102903, Note_on_c, 0, 79, 0
1, 102903, Note_on_c, 0, 76, 0
1, 102903, Note_on_c, 0, 60, 0
1, 102981, Note_on_c, 0, 81, 64
1, 102981, Note_on_c, 0, 52, 59
1, 103058, Note_on_c, 0, 81, 0
1, 103058, Note_on_c, 0, 79, 57
1, 103058, Note_on_c, 0, 52, 0
1, 103080, Control_c, 0, 64, 127
1, 103135, Note_on_c, 0, 79, 0
1, 103135, Note_on_c, 0, 77, 57
1, 103135, Note_on_c, 0, 64, 57
1, 103215, Note_on_c, 0, 77, 0
1, 103215, Note_on_c, 0, 76, 57
1, 103215, Note_on_c, 0, 64, 0
1, 103300, Note_on_c, 0, 76, 0
1, 103300, Note_on_c, 0, 74, 65
1, 103300, Note_on_c, 0, 71, 65
1, 103303, Note_on_c, 0, 55, 60
1, 103303, Control_c, 0, 64, 0
1, 103385, Control_c, 0, 64, 127
1, 103461, Note_on_c, 0, 71, 0
1, 103461, Note_on_c, 0, 67, 59
1, 103624, Note_on_c, 0, 67, 0
1, 103624, Note_on_c, 0, 74, 0
1, 103624, Note_on_c, 0, 72, 56
1, 103627, Note_on_c, 0, 76, 56
1, 103627, Note_on_c, 0, 55, 0
1, 103627, Control_c, 0, 64, 0
1, 103706, Note_on_c, 0, 76, 0
1, 103706, Note_on_c, 0, 72, 0
1, 103787, Note_on_c, 0, 74, 56
1, 103787, Note_on_c, 0, 77, 56
1, 103867, Note_on_c, 0, 77, 0
1, 103867, Note_on_c, 0, 74, 0
1, 103946, Note_on_c, 0, 76, 66
1, 103946, Note_on_c, 0, 79, 66
1, 103946, Note_on_c, 0, 48, 59
1, 104024, Note_on_c, 0, 79, 0
1, 104024, Note_on_c, 0, 76, 0
1, 104024, Note_on_c, 0, 48, 0
1, 104102, Note_on_c, 0, 76, 57
1, 104102, Note_on_c, 0, 79, 57
1, 104102, Note_on_c, 0, 60, 53
1, 104180, Note_on_c, 0, 79, 0
1, 104180, Note_on_c, 0, 76, 0
1, 104180, Note_on_c, 0, 60, 0
1, 104258, Note_on_c, 0, 81, 64
1, 104258, Note_on_c, 0, 52, 59
1, 104335, Note_on_c, 0, 81, 0
1, 104335, Note_on_c, 0, 79, 57
1, 104335, Note_on_c, 0, 52, 0
1, 104358, Control_c, 0, 64, 127
1, 104412, Note_on_c, 0, 79, 0
1, 104412, Note_on_c, 0, 77, 57
1, 104412, Note_on_c, 0, 64, 57
1, 104493, Note_on_c, 0, 77, 0
1, 104493, Note_on_c, 0, 76, 57
1, 104493, Note_on_c, 0, 64, 0
1, 104577, Note_on_c, 0, 76, 0
1, 104577, Note_on_c, 0, 74, 65
1, 104577, Note_on_c, 0, 71, 65
1, 104580, Note_on_c, 0, 55, 60
1, 104580, Control_c, 0, 64, 0
1, 104663, Control_c, 0, 64, 127
1, 104902, Note_on_c, 0, 71, 0
1, 104902, Note_on_c, 0, 74, 0
1, 104902, Note_on_c, 0, 69, 56
1, 104905, Note_on_c, 0, 72, 56
1, 104905, Note_on_c, 0, 55, 0
1, 104905, Control_c, 0, 64, 0
1, 104987, Note_on_c, 0, 72, 0
1, 104987, Note_on_c, 0, 69, 0
1, 105072, Note_on_c, 0, 71, 56
1, 105072, Note_on_c, 0, 74, 56
1, 105152, Note_on_c, 0, 74, 0
1, 105152, Note_on_c, 0, 71, 0
1, 105232, Note_on_c, 0, 72, 66
1, 105232, Note_on_c, 0, 76, 66
1, 105232, Note_on_c, 0, 45, 59
1, 105310, Note_on_c, 0, 76, 0
1, 105310, Note_on_c, 0, 72, 0
1, 105310, Note_on_c, 0, 45, 0
1, 105388, Note_on_c, 0, 72, 57
1, 105388, Note_on_c, 0, 76, 57
1, 105388, Note_on_c, 0, 57, 53
1, 105466, Note_on_c, 0, 76, 0
1, 105466, Note_on_c, 0, 72, 0
1, 105466, Note_on_c, 0, 57, 0
1, 105544, Note_on_c, 0, 77, 64
1, 105544, Note_on_c, 0, 48, 59
1, 105620, Note_on_c, 0, 77, 0
1, 105620, Note_on_c, 0, 76, 57
1, 105620, Note_on_c, 0, 48, 0
1, 105643, Control_c, 0, 64, 127
1, 105697, Note_on_c, 0, 76, 0
1, 105697, Note_on_c, 0, 74, 57
1, 105697, Note_on_c, 0, 60, 57
1, 105778, Note_on_c, 0, 74, 0
1, 105778, Note_on_c, 0, 72, 57
1, 105778, Note_on_c, 0, 60, 0
1, 105863, Note_on_c, 0, 72, 0
1, 105863, Note_on_c, 0, 71, 65
1, 105863, Note_on_c, 0, 68, 65
1, 105866, Note_on_c, 0, 52, 60
1, 105866, Control_c, 0, 64, 0
1, 105948, Control_c, 0, 64, 127
1, 106024, Note_on_c, 0, 68, 0
1, 106024, Note_on_c, 0, 64, 59
1, 106186, Note_on_c, 0, 64, 0
1, 106186, Note_on_c, 0, 71, 0
1, 106186, Note_on_c, 0, 69, 56
1, 106189, Note_on_c, 0, 72, 56
1, 106189, Note_on_c, 0, 52, 0
1, 106189, Control_c, 0, 64, 0
1, 106267, Note_on_c, 0, 72, 0
1, 106267, Note_on_c, 0, 69, 0
1, 106349, Note_on_c, 0, 71, 56
1, 106349, Note_on_c, 0, 74, 56
1, 106428, Note_on_c, 0, 74, 0
1, 106428, Note_on_c, 0, 71, 0
1, 106508, Note_on_c, 0, 72, 66
1, 106508, Note_on_c, 0, 76, 66
1, 106508, Note_on_c, 0, 45, 59
1, 106586, Note_on_c, 0, 76, 0
1, 106586, Note_on_c, 0, 72, 0
1, 106586, Note_on_c, 0, 45, 0
1, 106664, Note_on_c, 0, 72, 57
1, 106664, Note_on_c, 0, 76, 57
1, 106664, Note_on_c, 0, 57, 53
1, 106742, Note_on_c, 0, 76, 0
1, 106742, Note_on_c, 0, 72, 0
1, 106742, Note_on_c, 0, 57, 0
1, 106820, Note_on_c, 0, 77, 64
1, 106820, Note_on_c, 0, 48, 59
1, 106897, Note_on_c, 0, 77, 0
1, 106897, Note_on_c, 0, 76, 57
1, 106897, Note_on_c, 0, 48, 0
1, 106919, Control_c, 0, 64, 127
1, 106974, Note_on_c, 0, 76, 0
1, 106974, Note_on_c, 0, 74, 57
1, 106974, Note_on_c, 0, 60, 57
1, 107054, Note_on_c, 0, 74, 0
1, 107054, Note_on_c, 0, 72, 57
1, 107054, Note_on_c, 0, 60, 0
1, 107139, Note_on_c, 0, 72, 0
1, 107139, Note_on_c, 0, 71, 65
1, 107139, Note_on_c, 0, 68, 65
1, 107142, Note_on_c, 0, 52, 60
1, 107142, Control_c, 0, 64, 0
1, 107224, Control_c, 0, 64, 127
1, 107462, Note_on_c, 0, 68, 0
1, 107462, Note_on_c, 0, 71, 0
1, 107462, Note_on_c, 0, 71, 56
1, 107465, Note_on_c, 0, 52, 0
1, 107465, Control_c, 0, 64, 0
1, 107536, Note_on_c, 0, 71, 0
1, 107536, Note_on_c, 0, 69, 56
1, 107611, Note_on_c, 0, 69, 0
1, 107611, Note_on_c, 0, 68, 56
1, 107685, Note_on_c, 0, 68, 0
1, 107685, Note_on_c, 0, 69, 56
1, 107770, Note_on_c, 0, 69, 0
1, 107770, Note_on_c, 0, 72, 59
1, 107770, Note_on_c, 0, 57, 53
1, 107822, Control_c, 0, 64, 127
1, 107844, Note_on_c, 0, 72, 0
1, 107844, Note_on_c, 0, 57, 0
1, 107918, Note_on_c, 0, 64, 47
1, 107918, Note_on_c, 0, 60, 47
1, 107925, Control_c, 0, 64, 0
1, 107993, Note_on_c, 0, 60, 0
1, 107993, Note_on_c, 0, 64, 0
1, 108077, Note_on_c, 0, 74, 62
1, 108077, Note_on_c, 0, 60, 47
1, 108077, Note_on_c, 0, 64, 47
1, 108139, Control_c, 0, 64, 127
1, 108152, Note_on_c, 0, 74, 0
1, 108152, Note_on_c, 0, 72, 57
1, 108152, Note_on_c, 0, 64, 0
1, 108155, Note_on_c, 0, 60, 0
1, 108227, Note_on_c, 0, 72, 0
1, 108227, Note_on_c, 0, 71, 57
1, 108227, Note_on_c, 0, 60, 47
1, 108230, Note_on_c, 0, 64, 47
1, 108302, Note_on_c, 0, 71, 0
1, 108302, Note_on_c, 0, 72, 57
1, 108302, Note_on_c, 0, 64, 0
1, 108305, Note_on_c, 0, 60, 0
1, 108387, Note_on_c, 0, 72, 0
1, 108387, Note_on_c, 0, 76, 66
1, 108387, Note_on_c, 0, 57, 54
1, 108390, Control_c, 0, 64, 0
1, 108433, Control_c, 0, 64, 127
1, 108461, Note_on_c, 0, 76, 0
1, 108461, Note_on_c, 0, 57, 0
1, 108536, Note_on_c, 0, 64, 48
1, 108536, Note_on_c, 0, 60, 48
1, 108542, Control_c, 0, 64, 0
1, 108610, Note_on_c, 0, 60, 0
1, 108610, Note_on_c, 0, 64, 0
1, 108693, Note_on_c, 0, 77, 63
1, 108693, Note_on_c, 0, 64, 48
1, 108693, Note_on_c, 0, 60, 48
1, 108735, Control_c, 0, 64, 127
1, 108767, Note_on_c, 0, 77, 0
1, 108767, Note_on_c, 0, 76, 58
1, 108767, Note_on_c, 0, 60, 0
1, 108770, Note_on_c, 0, 64, 0
1, 108842, Note_on_c, 0, 76, 0
1, 108842, Note_on_c, 0, 75, 58
1, 108842, Note_on_c, 0, 64, 48
1, 108845, Note_on_c, 0, 60, 48
1, 108916, Note_on_c, 0, 75, 0
1, 108916, Note_on_c, 0, 76, 58
1, 108916, Note_on_c, 0, 60, 0
1, 108919, Note_on_c, 0, 64, 0
1, 108994, Note_on_c, 0, 76, 0
1, 108994, Note_on_c, 0, 83, 70
1, 108994, Note_on_c, 0, 57, 56
1, 108997, Control_c, 0, 64, 0
1, 109051, Control_c, 0, 64, 127
1, 109069, Note_on_c, 0, 83, 0
1, 109069, Note_on_c, 0, 81, 63
1, 109069, Note_on_c, 0, 57, 0
1, 109144, Note_on_c, 0, 81, 0
1, 109144, Note_on_c, 0, 80, 63
1, 109144, Note_on_c, 0, 64, 49
1, 109147, Note_on_c, 0, 60, 49
1, 109219, Note_on_c, 0, 80, 0
1, 109219, Note_on_c, 0, 81, 63
1, 109219, Note_on_c, 0, 60, 0
1, 109222, Note_on_c, 0, 64, 0
1, 109293, Note_on_c, 0, 81, 0
1, 109293, Note_on_c, 0, 83, 71
1, 109293, Note_on_c, 0, 57, 57
1, 109296, Control_c, 0, 64, 0
1, 109330, Control_c, 0, 64, 127
1, 109371, Note_on_c, 0, 83, 0
1, 109371, Note_on_c, 0, 81, 64
1, 109371, Note_on_c, 0, 57, 0
1, 109448, Note_on_c, 0, 81, 0
1, 109448, Note_on_c, 0, 80, 64
1, 109448, Note_on_c, 0, 64, 52
1, 109451, Note_on_c, 0, 60, 43
1, 109526, Note_on_c, 0, 80, 0
1, 109526, Note_on_c, 0, 81, 64
1, 109526, Note_on_c, 0, 60, 0
1, 109529, Note_on_c, 0, 64, 0
1, 109622, Note_on_c, 0, 81, 0
1, 109622, Note_on_c, 0, 84, 76
1, 109622, Note_on_c, 0, 57, 57
1, 109625, Control_c, 0, 64, 0
1, 109653, Control_c, 0, 64, 127
1, 109698, Note_on_c, 0, 57, 0
1, 109775, Note_on_c, 0, 63, 51
1, 109775, Note_on_c, 0, 57, 51
1, 109781, Control_c, 0, 64, 0
1, 109854, Note_on_c, 0, 57, 0
1, 109854, Note_on_c, 0, 63, 0
1, 109941, Note_on_c, 0, 84, 0
1, 109941, Note_on_c, 0, 81, 62
1, 109941, Note_on_c, 0, 63, 43
1, 109944, Note_on_c, 0, 57, 43
1, 110018, Note_on_c, 0, 81, 0
1, 110018, Note_on_c, 0, 57, 0
1, 110018, Note_on_c, 0, 63, 0
1, 110095, Note_on_c, 0, 83, 62
1, 110095, Note_on_c, 0, 63, 39
1, 110095, Note_on_c, 0, 57, 39
1, 110175, Note_on_c, 0, 83, 0
1, 110175, Note_on_c, 0, 57, 0
1, 110175, Note_on_c, 0, 63, 0
1, 110256, Note_on_c, 0, 84, 70
1, 110256, Note_on_c, 0, 52, 46
1, 110332, Note_on_c, 0, 84, 0
1, 110332, Note_on_c, 0, 52, 0
1, 110407, Note_on_c, 0, 83, 62
1, 110407, Note_on_c, 0, 64, 42
1, 110407, Note_on_c, 0, 57, 42
1, 110483, Note_on_c, 0, 83, 0
1, 110483, Note_on_c, 0, 57, 0
1, 110483, Note_on_c, 0, 64, 0
1, 110559, Note_on_c, 0, 81, 62
1, 110559, Note_on_c, 0, 50, 42
1, 110637, Note_on_c, 0, 81, 0
1, 110637, Note_on_c, 0, 50, 0
1, 110714, Note_on_c, 0, 80, 62
1, 110714, Note_on_c, 0, 59, 42
1, 110714, Note_on_c, 0, 53, 42
1, 110794, Note_on_c, 0, 80, 0
1, 110794, Note_on_c, 0, 53, 0
1, 110794, Note_on_c, 0, 59, 0
1, 110875, Note_on_c, 0, 81, 71
1, 110875, Note_on_c, 0, 48, 47
1, 110951, Note_on_c, 0, 81, 0
1, 110951, Note_on_c, 0, 48, 0
1, 111026, Note_on_c, 0, 76, 64
1, 111026, Note_on_c, 0, 57, 39
1, 111026, Note_on_c, 0, 52, 39
1, 111102, Note_on_c, 0, 76, 0
1, 111102, Note_on_c, 0, 52, 0
1, 111102, Note_on_c, 0, 57, 0
1, 111178, Note_on_c, 0, 50, 41
1, 111178, Note_on_c, 0, 77, 64
1, 111256, Note_on_c, 0, 50, 0
1, 111256, Note_on_c, 0, 77, 0
1, 111334, Note_on_c, 0, 74, 64
1, 111334, Note_on_c, 0, 59, 41
1, 111334, Note_on_c, 0, 53, 41
1, 111415, Note_on_c, 0, 74, 0
1, 111415, Note_on_c, 0, 53, 0
1, 111415, Note_on_c, 0, 59, 0
1, 111496, Note_on_c, 0, 72, 74
1, 111496, Note_on_c, 0, 52, 48
1, 111496, Note_on_c, 0, 57, 48
1, 111547, Control_c, 0, 64, 127
1, 111573, Note_on_c, 0, 57, 0
1, 111573, Note_on_c, 0, 52, 0
1, 111650, Note_on_c, 0, 57, 41
1, 111650, Note_on_c, 0, 52, 41
1, 111727, Note_on_c, 0, 52, 0
1, 111727, Note_on_c, 0, 57, 0
1, 111800, Note_on_c, 0, 52, 41
1, 111804, Note_on_c, 0, 72, 0
1, 111804, Note_on_c, 0, 72, 64
1, 111804, Note_on_c, 0, 56, 41
1, 111811, Control_c, 0, 64, 0
1, 111842, Note_on_c, 0, 71, 57
1, 111842, Note_on_c, 0, 72, 0
1, 111865, Control_c, 0, 64, 127
1, 111881, Note_on_c, 0, 52, 0
1, 111881, Note_on_c, 0, 71, 0
1, 111881, Note_on_c, 0, 72, 57
1, 111885, Note_on_c, 0, 56, 0
1, 111923, Note_on_c, 0, 72, 0
1, 111923, Note_on_c, 0, 71, 57
1, 111964, Note_on_c, 0, 71, 0
1, 111964, Note_on_c, 0, 52, 41
1, 111964, Note_on_c, 0, 56, 41
1, 111971, Note_on_c, 0, 72, 57
1, 112006, Note_on_c, 0, 71, 57
1, 112013, Note_on_c, 0, 72, 0
1, 112041, Note_on_c, 0, 69, 64
1, 112049, Note_on_c, 0, 71, 0
1, 112052, Note_on_c, 0, 56, 0
1, 112052, Note_on_c, 0, 52, 0
1, 112090, Note_on_c, 0, 69, 0
1, 112090, Note_on_c, 0, 71, 57
1, 112147, Note_on_c, 0, 71, 0
1, 112159, Note_on_c, 0, 69, 65
1, 112159, Note_on_c, 0, 45, 46
1, 112159, Note_on_c, 0, 57, 46
1, 112162, Control_c, 0, 64, 0
1, 112490, Note_on_c, 0, 69, 0
1, 112490, Note_on_c, 0, 57, 0
1, 112513, Note_on_c, 0, 69, 82
1, 112513, Note_on_c, 0, 45, 0
1, 112540, Control_c, 0, 64, 127
1, 112590, Note_on_c, 0, 69, 0
1, 112590, Note_on_c, 0, 81, 79
1, 112667, Note_on_c, 0, 81, 0
1, 112667, Note_on_c, 0, 71, 83
1, 112748, Note_on_c, 0, 71, 0
1, 112748, Note_on_c, 0, 83, 80
1, 112748, Note_on_c, 0, 45, 64
1, 112775, Note_on_c, 0, 45, 0
1, 112775, Note_on_c, 0, 49, 70
1, 112802, Note_on_c, 0, 49, 0
1, 112802, Note_on_c, 0, 52, 76
1, 112829, Note_on_c, 0, 83, 0
1, 112829, Note_on_c, 0, 73, 89
1, 112829, Note_on_c, 0, 52, 0
1, 112832, Note_on_c, 0, 57, 87
1, 112832, Control_c, 0, 64, 0
1, 112858, Control_c, 0, 64, 127
1, 112906, Note_on_c, 0, 73, 0
1, 112906, Note_on_c, 0, 85, 84
1, 112906, Note_on_c, 0, 57, 0
1, 112982, Note_on_c, 0, 85, 0
1, 112982, Note_on_c, 0, 57, 69
1, 113061, Note_on_c, 0, 57, 0
1, 113140, Note_on_c, 0, 69, 85
1, 113140, Note_on_c, 0, 57, 69
1, 113218, Note_on_c, 0, 69, 0
1, 113218, Note_on_c, 0, 81, 73
1, 113218, Note_on_c, 0, 57, 0
1, 113295, Note_on_c, 0, 81, 0
1, 113295, Note_on_c, 0, 71, 84
1, 113295, Note_on_c, 0, 57, 69
1, 113374, Note_on_c, 0, 71, 0
1, 113374, Note_on_c, 0, 83, 72
1, 113374, Note_on_c, 0, 57, 0
1, 113377, Note_on_c, 0, 45, 65
1, 113401, Note_on_c, 0, 45, 0
1, 113401, Note_on_c, 0, 49, 69
1, 113427, Note_on_c, 0, 49, 0
1, 113427, Note_on_c, 0, 52, 73
1, 113453, Note_on_c, 0, 83, 0
1, 113453, Note_on_c, 0, 73, 90
1, 113453, Note_on_c, 0, 52, 0
1, 113456, Note_on_c, 0, 57, 85
1, 113456, Control_c, 0, 64, 0
1, 113489, Control_c, 0, 64, 127
1, 113530, Note_on_c, 0, 73, 0
1, 113530, Note_on_c, 0, 85, 75
1, 113530, Note_on_c, 0, 57, 0
1, 113606, Note_on_c, 0, 85, 0
1, 113606, Note_on_c, 0, 71, 84
1, 113606, Note_on_c, 0, 57, 64
1, 113683, Note_on_c, 0, 71, 0
1, 113683, Note_on_c, 0, 83, 73
1, 113683, Note_on_c, 0, 57, 0
1, 113760, Note_on_c, 0, 83, 0
1, 113760, Note_on_c, 0, 69, 87
1, 113760, Note_on_c, 0, 57, 65
1, 113837, Note_on_c, 0, 69, 0
1, 113837, Note_on_c, 0, 81, 74
1, 113837, Note_on_c, 0, 57, 0
1, 113914, Note_on_c, 0, 81, 0
1, 113914, Note_on_c, 0, 68, 83
1, 113914, Note_on_c, 0, 57, 67
1, 113998, Note_on_c, 0, 68, 0
1, 113998, Note_on_c, 0, 80, 76
1, 113998, Note_on_c, 0, 57, 0
1, 114001, Note_on_c, 0, 38, 66
1, 114026, Note_on_c, 0, 38, 0
1, 114026, Note_on_c, 0, 42, 71
1, 114053, Note_on_c, 0, 42, 0
1, 114053, Note_on_c, 0, 45, 77
1, 114081, Note_on_c, 0, 80, 0
1, 114081, Note_on_c, 0, 66, 88
1, 114081, Note_on_c, 0, 45, 0
1, 114084, Note_on_c, 0, 50, 85
1, 114084, Control_c, 0, 64, 0
1, 114107, Control_c, 0, 64, 127
1, 114158, Note_on_c, 0, 66, 0
1, 114158, Note_on_c, 0, 78, 75
1, 114158, Note_on_c, 0, 50, 0
1, 114235, Note_on_c, 0, 78, 0
1, 114235, Note_on_c, 0, 68, 83
1, 114235, Note_on_c, 0, 50, 69
1, 114314, Note_on_c, 0, 68, 0
1, 114314, Note_on_c, 0, 80, 69
1, 114314, Note_on_c, 0, 50, 0
1, 114317, Note_on_c, 0, 39, 68
1, 114340, Note_on_c, 0, 39, 0
1, 114340, Note_on_c, 0, 42, 72
1, 114366, Note_on_c, 0, 42, 0
1, 114366, Note_on_c, 0, 45, 75
1, 114392, Note_on_c, 0, 80, 0
1, 114392, Note_on_c, 0, 69, 79
1, 114392, Note_on_c, 0, 45, 0
1, 114395, Note_on_c, 0, 51, 85
1, 114395, Control_c, 0, 64, 0
1, 114417, Control_c, 0, 64, 127
1, 114473, Note_on_c, 0, 69, 0
1, 114473, Note_on_c, 0, 81, 71
1, 114473, Note_on_c, 0, 51, 0
1, 114554, Note_on_c, 0, 81, 0
1, 114554, Note_on_c, 0, 71, 81
1, 114554, Note_on_c, 0, 51, 71
1, 114638, Note_on_c, 0, 71, 0
1, 114638, Note_on_c, 0, 83, 73
1, 114638, Note_on_c, 0, 51, 0
1, 114641, Note_on_c, 0, 40, 64
1, 114666, Note_on_c, 0, 40, 0
1, 114666, Note_on_c, 0, 44, 69
1, 114694, Note_on_c, 0, 44, 0
1, 114694, Note_on_c, 0, 47, 74
1, 114722, Note_on_c, 0, 83, 0
1, 114722, Note_on_c, 0, 68, 86
1, 114722, Note_on_c, 0, 47, 0
1, 114725, Note_on_c, 0, 52, 85
1, 114725, Control_c, 0, 64, 0
1, 114761, Control_c, 0, 64, 127
1, 114801, Note_on_c, 0, 68, 0
1, 114801, Note_on_c, 0, 80, 73
1, 114881, Note_on_c, 0, 80, 0
1, 114881, Note_on_c, 0, 64, 81
1, 114881, Note_on_c, 0, 52, 0
1, 114884, Note_on_c, 0, 52, 73
1, 114966, Note_on_c, 0, 64, 0
1, 114966, Note_on_c, 0, 76, 72
1, 114966, Note_on_c, 0, 52, 0
1, 115051, Note_on_c, 0, 76, 0
1, 115051, Note_on_c, 0, 69, 83
1, 115064, Control_c, 0, 64, 0
1, 115093, Control_c, 0, 64, 127
1, 115126, Note_on_c, 0, 69, 0
1, 115126, Note_on_c, 0, 81, 73
1, 115200, Note_on_c, 0, 81, 0
1, 115200, Note_on_c, 0, 71, 82
1, 115278, Note_on_c, 0, 71, 0
1, 115278, Note_on_c, 0, 83, 73
1, 115278, Note_on_c, 0, 45, 67
1, 115305, Note_on_c, 0, 45, 0
1, 115305, Note_on_c, 0, 49, 71
1, 115331, Note_on_c, 0, 49, 0
1, 115331, Note_on_c, 0, 52, 76
1, 115357, Note_on_c, 0, 83, 0
1, 115357, Note_on_c, 0, 73, 89
1, 115357, Note_on_c, 0, 52, 0
1, 115360, Note_on_c, 0, 57, 84
1, 115360, Control_c, 0, 64, 0
1, 115410, Control_c, 0, 64, 127
1, 115433, Note_on_c, 0, 73, 0
1, 115433, Note_on_c, 0, 85, 77
1, 115433, Note_on_c, 0, 57, 0
1, 115510, Note_on_c, 0, 85, 0
1, 115510, Note_on_c, 0, 57, 69
1, 115588, Note_on_c, 0, 57, 0
1, 115667, Note_on_c, 0, 69, 85
1, 115667, Note_on_c, 0, 57, 69
1, 115743, Note_on_c, 0, 69, 0
1, 115743, Note_on_c, 0, 81, 76
1, 115743, Note_on_c, 0, 57, 0
1, 115820, Note_on_c, 0, 81, 0
1, 115820, Note_on_c, 0, 71, 84
1, 115820, Note_on_c, 0, 57, 69
1, 115899, Note_on_c, 0, 71, 0
1, 115899, Note_on_c, 0, 83, 77
1, 115899, Note_on_c, 0, 57, 0
1, 115902, Note_on_c, 0, 45, 61
1, 115925, Note_on_c, 0, 45, 0
1, 115925, Note_on_c, 0, 49, 66
1, 115952, Note_on_c, 0, 49, 0
1, 115952, Note_on_c, 0, 52, 72
1, 115978, Note_on_c, 0, 83, 0
1, 115978, Note_on_c, 0, 73, 92
1, 115978, Note_on_c, 0, 52, 0
1, 115981, Note_on_c, 0, 57, 87
1, 115981, Control_c, 0, 64, 0
1, 116009, Control_c, 0, 64, 127
1, 116055, Note_on_c, 0, 73, 0
1, 116055, Note_on_c, 0, 85, 77
1, 116055, Note_on_c, 0, 57, 0
1, 116132, Note_on_c, 0, 85, 0
1, 116132, Note_on_c, 0, 71, 84
1, 116132, Note_on_c, 0, 57, 64
1, 116209, Note_on_c, 0, 71, 0
1, 116209, Note_on_c, 0, 83, 75
1, 116209, Note_on_c, 0, 57, 0
1, 116287, Note_on_c, 0, 83, 0
1, 116287, Note_on_c, 0, 69, 88
1, 116287, Note_on_c, 0, 57, 65
1, 116365, Note_on_c, 0, 69, 0
1, 116365, Note_on_c, 0, 81, 77
1, 116365, Note_on_c, 0, 57, 0
1, 116443, Note_on_c, 0, 81, 0
1, 116443, Note_on_c, 0, 68, 84
1, 116443, Note_on_c, 0, 57, 67
1, 116524, Note_on_c, 0, 68, 0
1, 116524, Note_on_c, 0, 80, 75
1, 116524, Note_on_c, 0, 57, 0
1, 116527, Note_on_c, 0, 38, 68
1, 116551, Note_on_c, 0, 38, 0
1, 116551, Note_on_c, 0, 42, 72
1, 116578, Note_on_c, 0, 42, 0
1, 116578, Note_on_c, 0, 45, 76
1, 116605, Note_on_c, 0, 80, 0
1, 116605, Note_on_c, 0, 66, 91
1, 116605, Note_on_c, 0, 45, 0
1, 116608, Note_on_c, 0, 50, 83
1, 116611, Control_c, 0, 64, 0
1, 116653, Control_c, 0, 64, 127
1, 116683, Note_on_c, 0, 66, 0
1, 116683, Note_on_c, 0, 78, 79
1, 116683, Note_on_c, 0, 50, 0
1, 116760, Note_on_c, 0, 78, 0
1, 116760, Note_on_c, 0, 71, 82
1, 116760, Note_on_c, 0, 50, 69
1, 116842, Note_on_c, 0, 71, 0
1, 116842, Note_on_c, 0, 83, 72
1, 116842, Note_on_c, 0, 50, 0
1, 116845, Note_on_c, 0, 40, 67
1, 116869, Note_on_c, 0, 40, 0
1, 116869, Note_on_c, 0, 44, 72
1, 116896, Note_on_c, 0, 44, 0
1, 116896, Note_on_c, 0, 47, 78
1, 116923, Note_on_c, 0, 83, 0
1, 116923, Note_on_c, 0, 68, 86
1, 116923, Note_on_c, 0, 47, 0
1, 116926, Note_on_c, 0, 52, 82
1, 116929, Control_c, 0, 64, 0
1, 116949, Control_c, 0, 64, 127
1, 117008, Note_on_c, 0, 68, 0
1, 117008, Note_on_c, 0, 80, 75
1, 117008, Note_on_c, 0, 52, 0
1, 117092, Note_on_c, 0, 80, 0
1, 117092, Note_on_c, 0, 64, 80
1, 117092, Note_on_c, 0, 52, 71
1, 117179, Note_on_c, 0, 64, 0
1, 117179, Note_on_c, 0, 76, 74
1, 117179, Note_on_c, 0, 52, 0
1, 117266, Note_on_c, 0, 76, 0
1, 117266, Note_on_c, 0, 69, 78
1, 117266, Note_on_c, 0, 81, 90
1, 117269, Note_on_c, 0, 45, 84
1, 117273, Control_c, 0, 64, 0
1, 117342, Control_c, 0, 64, 127
1, 117510, Control_c, 0, 64, 0
1, 117583, Note_on_c, 0, 81, 0
1, 117583, Note_on_c, 0, 69, 0
1, 117583, Note_on_c, 0, 45, 0
1, 117604, Note_on_c, 0, 69, 82
1, 117631, Control_c, 0, 64, 127
1, 117680, Note_on_c, 0, 69, 0
1, 117680, Note_on_c, 0, 81, 79
1, 117756, Note_on_c, 0, 81, 0
1, 117756, Note_on_c, 0, 71, 83
1, 117837, Note_on_c, 0, 71, 0
1, 117837, Note_on_c, 0, 83, 80
1, 117837, Note_on_c, 0, 45, 64
1, 117864, Note_on_c, 0, 45, 0
1, 117864, Note_on_c, 0, 49, 70
1, 117890, Note_on_c, 0, 49, 0
1, 117890, Note_on_c, 0, 52, 76
1, 117917, Note_on_c, 0, 83, 0
1, 117917, Note_on_c, 0, 73, 89
1, 117917, Note_on_c, 0, 52, 0
1, 117920, Note_on_c, 0, 57, 87
1, 117923, Control_c, 0, 64, 0
1, 117947, Control_c, 0, 64, 127
1, 117994, Note_on_c, 0, 73, 0
1, 117994, Note_on_c, 0, 85, 84
1, 117994, Note_on_c, 0, 57, 0
1, 118070, Note_on_c, 0, 85, 0
1, 118070, Note_on_c, 0, 57, 69
1, 118149, Note_on_c, 0, 57, 0
1, 118228, Note_on_c, 0, 69, 85
1, 118228, Note_on_c, 0, 57, 69
1, 118306, Note_on_c, 0, 69, 0
1, 118306, Note_on_c, 0, 81, 73
1, 118306, Note_on_c, 0, 57, 0
1, 118383, Note_on_c, 0, 81, 0
1, 118383, Note_on_c, 0, 71, 84
1, 118383, Note_on_c, 0, 57, 69
1, 118462, Note_on_c, 0, 71, 0
1, 118462, Note_on_c, 0, 83, 72
1, 118462, Note_on_c, 0, 57, 0
1, 118465, Note_on_c, 0, 45, 65
1, 118489, Note_on_c, 0, 45, 0
1, 118489, Note_on_c, 0, 49, 69
1, 118515, Note_on_c, 0, 49, 0
1, 118515, Note_on_c, 0, 52, 73
1, 118542, Note_on_c, 0, 83, 0
1, 118542, Note_on_c, 0, 73, 90
1, 118542, Note_on_c, 0, 52, 0
1, 118545, Note_on_c, 0, 57, 85
1, 118545, Control_c, 0, 64, 0
1, 118577, Control_c, 0, 64, 127
1, 118618, Note_on_c, 0, 73, 0
1, 118618, Note_on_c, 0, 85, 75
1, 118618, Note_on_c, 0, 57, 0
1, 118694, Note_on_c, 0, 85, 0
1, 118694, Note_on_c, 0, 71, 84
1, 118694, Note_on_c, 0, 57, 64
1, 118771, Note_on_c, 0, 71, 0
1, 118771, Note_on_c, 0, 83, 73
1, 118771, Note_on_c, 0, 57, 0
1, 118848, Note_on_c, 0, 83, 0
1, 118848, Note_on_c, 0, 69, 87
1, 118848, Note_on_c, 0, 57, 65
1, 118925, Note_on_c, 0, 69, 0
1, 118925, Note_on_c, 0, 81, 74
1, 118925, Note_on_c, 0, 57, 0
1, 119002, Note_on_c, 0, 81, 0
1, 119002, Note_on_c, 0, 68, 83
1, 119002, Note_on_c, 0, 57, 67
1, 119086, Note_on_c, 0, 68, 0
1, 119086, Note_on_c, 0, 80, 76
1, 119086, Note_on_c, 0, 57, 0
1, 119089, Note_on_c, 0, 38, 66
1, 119114, Note_on_c, 0, 38, 0
1, 119114, Note_on_c, 0, 42, 71
1, 119142, Note_on_c, 0, 42, 0
1, 119142, Note_on_c, 0, 45, 77
1, 119170, Note_on_c, 0, 80, 0
1, 119170, Note_on_c, 0, 66, 88
1, 119170, Note_on_c, 0, 45, 0
1, 119173, Note_on_c, 0, 50, 85
1, 119173, Control_c, 0, 64, 0
1, 119195, Control_c, 0, 64, 127
1, 119247, Note_on_c, 0, 66, 0
1, 119247, Note_on_c, 0, 78, 75
1, 119247, Note_on_c, 0, 50, 0
1, 119324, Note_on_c, 0, 78, 0
1, 119324, Note_on_c, 0, 68, 83
1, 119324, Note_on_c, 0, 50, 69
1, 119402, Note_on_c, 0, 68, 0
1, 119402, Note_on_c, 0, 80, 69
1, 119402, Note_on_c, 0, 50, 0
1, 119405, Note_on_c, 0, 39, 68
1, 119428, Note_on_c, 0, 39, 0
1, 119428, Note_on_c, 0, 42, 72
1, 119455, Note_on_c, 0, 42, 0
1, 119455, Note_on_c, 0, 45, 75
1, 119481, Note_on_c, 0, 80, 0
1, 119481, Note_on_c, 0, 69, 79
1, 119481, Note_on_c, 0, 45, 0
1, 119484, Note_on_c, 0, 51, 85
1, 119484, Control_c, 0, 64, 0
1, 119506, Control_c, 0, 64, 127
1, 119562, Note_on_c, 0, 69, 0
1, 119562, Note_on_c, 0, 81, 71
1, 119562, Note_on_c, 0, 51, 0
1, 119642, Note_on_c, 0, 81, 0
1, 119642, Note_on_c, 0, 71, 81
1, 119642, Note_on_c, 0, 51, 71
1, 119726, Note_on_c, 0, 71, 0
1, 119726, Note_on_c, 0, 83, 73
1, 119726, Note_on_c, 0, 51, 0
1, 119729, Note_on_c, 0, 40, 64
1, 119754, Note_on_c, 0, 40, 0
1, 119754, Note_on_c, 0, 44, 69
1, 119782, Note_on_c, 0, 44, 0
1, 119782, Note_on_c, 0, 47, 74
1, 119810, Note_on_c, 0, 83, 0
1, 119810, Note_on_c, 0, 68, 86
1, 119810, Note_on_c, 0, 47, 0
1, 119813, Note_on_c, 0, 52, 85
1, 119813, Control_c, 0, 64, 0
1, 119850, Control_c, 0, 64, 127
1, 119890, Note_on_c, 0, 68, 0
1, 119890, Note_on_c, 0, 80, 73
1, 119969, Note_on_c, 0, 80, 0
1, 119969, Note_on_c, 0, 64, 81
1, 119969, Note_on_c, 0, 52, 0
1, 119972, Note_on_c, 0, 52, 73
1, 120052, Note_on_c, 0, 64, 0
1, 120052, Note_on_c, 0, 76, 72
1, 120052, Note_on_c, 0, 52, 0
1, 120134, Note_on_c, 0, 76, 0
1, 120134, Note_on_c, 0, 69, 83
1, 120147, Control_c, 0, 64, 0
1, 120176, Control_c, 0, 64, 127
1, 120209, Note_on_c, 0, 69, 0
1, 120209, Note_on_c, 0, 81, 73
1, 120283, Note_on_c, 0, 81, 0
1, 120283, Note_on_c, 0, 71, 82
1, 120362, Note_on_c, 0, 71, 0
1, 120362, Note_on_c, 0, 83, 73
1, 120362, Note_on_c, 0, 45, 67
1, 120388, Note_on_c, 0, 45, 0
1, 120388, Note_on_c, 0, 49, 71
1, 120414, Note_on_c, 0, 49, 0
1, 120414, Note_on_c, 0, 52, 76
1, 120440, Note_on_c, 0, 83, 0
1, 120440, Note_on_c, 0, 73, 89
1, 120440, Note_on_c, 0, 52, 0
1, 120443, Note_on_c, 0, 57, 84
1, 120443, Control_c, 0, 64, 0
1, 120494, Control_c, 0, 64, 127
1, 120517, Note_on_c, 0, 73, 0
1, 120517, Note_on_c, 0, 85, 77
1, 120517, Note_on_c, 0, 57, 0
1, 120593, Note_on_c, 0, 85, 0
1, 120593, Note_on_c, 0, 57, 69
1, 120672, Note_on_c, 0, 57, 0
1, 120750, Note_on_c, 0, 69, 85
1, 120750, Note_on_c, 0, 57, 69
1, 120827, Note_on_c, 0, 69, 0
1, 120827, Note_on_c, 0, 81, 76
1, 120827, Note_on_c, 0, 57, 0
1, 120903, Note_on_c, 0, 81, 0
1, 120903, Note_on_c, 0, 71, 84
1, 120903, Note_on_c, 0, 57, 69
1, 120982, Note_on_c, 0, 71, 0
1, 120982, Note_on_c, 0, 83, 77
1, 120982, Note_on_c, 0, 57, 0
1, 120985, Note_on_c, 0, 45, 61
1, 121008, Note_on_c, 0, 45, 0
1, 121008, Note_on_c, 0, 49, 66
1, 121035, Note_on_c, 0, 49, 0
1, 121035, Note_on_c, 0, 52, 72
1, 121061, Note_on_c, 0, 83, 0
1, 121061, Note_on_c, 0, 73, 92
1, 121061, Note_on_c, 0, 52, 0
1, 121064, Note_on_c, 0, 57, 87
1, 121064, Control_c, 0, 64, 0
1, 121093, Control_c, 0, 64, 127
1, 121138, Note_on_c, 0, 73, 0
1, 121138, Note_on_c, 0, 85, 77
1, 121138, Note_on_c, 0, 57, 0
1, 121215, Note_on_c, 0, 85, 0
1, 121215, Note_on_c, 0, 71, 84
1, 121215, Note_on_c, 0, 57, 64
1, 121293, Note_on_c, 0, 71, 0
1, 121293, Note_on_c, 0, 83, 75
1, 121293, Note_on_c, 0, 57, 0
1, 121370, Note_on_c, 0, 83, 0
1, 121370, Note_on_c, 0, 69, 88
1, 121370, Note_on_c, 0, 57, 65
1, 121448, Note_on_c, 0, 69, 0
1, 121448, Note_on_c, 0, 81, 77
1, 121448, Note_on_c, 0, 57, 0
1, 121526, Note_on_c, 0, 81, 0
1, 121526, Note_on_c, 0, 68, 84
1, 121526, Note_on_c, 0, 57, 67
1, 121607, Note_on_c, 0, 68, 0
1, 121607, Note_on_c, 0, 80, 75
1, 121607, Note_on_c, 0, 57, 0
1, 121610, Note_on_c, 0, 38, 68
1, 121635, Note_on_c, 0, 38, 0
1, 121635, Note_on_c, 0, 42, 72
1, 121662, Note_on_c, 0, 42, 0
1, 121662, Note_on_c, 0, 45, 76
1, 121689, Note_on_c, 0, 80, 0
1, 121689, Note_on_c, 0, 66, 91
1, 121689, Note_on_c, 0, 45, 0
1, 121692, Note_on_c, 0, 50, 83
1, 121695, Control_c, 0, 64, 0
1, 121737, Control_c, 0, 64, 127
1, 121766, Note_on_c, 0, 66, 0
1, 121766, Note_on_c, 0, 78, 79
1, 121766, Note_on_c, 0, 50, 0
1, 121844, Note_on_c, 0, 78, 0
1, 121844, Note_on_c, 0, 71, 82
1, 121844, Note_on_c, 0, 50, 69
1, 121925, Note_on_c, 0, 71, 0
1, 121925, Note_on_c, 0, 83, 72
1, 121925, Note_on_c, 0, 50, 0
1, 121928, Note_on_c, 0, 40, 67
1, 121952, Note_on_c, 0, 40, 0
1, 121952, Note_on_c, 0, 44, 72
1, 121979, Note_on_c, 0, 44, 0
1, 121979, Note_on_c, 0, 47, 78
1, 122007, Note_on_c, 0, 83, 0
1, 122007, Note_on_c, 0, 68, 86
1, 122007, Note_on_c, 0, 47, 0
1, 122010, Note_on_c, 0, 52, 82
1, 122010, Control_c, 0, 64, 0
1, 122033, Control_c, 0, 64, 127
1, 122091, Note_on_c, 0, 68, 0
1, 122091, Note_on_c, 0, 80, 75
1, 122091, Note_on_c, 0, 52, 0
1, 122175, Note_on_c, 0, 80, 0
1, 122175, Note_on_c, 0, 64, 80
1, 122175, Note_on_c, 0, 52, 71
1, 122262, Note_on_c, 0, 64, 0
1, 122262, Note_on_c, 0, 76, 74
1, 122262, Note_on_c, 0, 52, 0
1, 122265, Note_on_c, 0, 45, 61
1, 122289, Note_on_c, 0, 45, 0
1, 122289, Note_on_c, 0, 49, 66
1, 122315, Note_on_c, 0, 49, 0
1, 122315, Note_on_c, 0, 52, 72
1, 122342, Note_on_c, 0, 76, 0
1, 122342, Note_on_c, 0, 69, 78
1, 122342, Note_on_c, 0, 81, 90
1, 122345, Note_on_c, 0, 52, 0
1, 122345, Note_on_c, 0, 57, 87
1, 122348, Control_c, 0, 64, 0
1, 122411, Control_c, 0, 64, 127
1, 122419, Note_on_c, 0, 57, 0
1, 122495, Note_on_c, 0, 57, 64
1, 122573, Note_on_c, 0, 57, 0
1, 122650, Note_on_c, 0, 81, 0
1, 122650, Note_on_c, 0, 69, 0
1, 122650, Note_on_c, 0, 85, 90
1, 122653, Note_on_c, 0, 73, 78
1, 122653, Note_on_c, 0, 57, 65
1, 122728, Note_on_c, 0, 57, 0
1, 122806, Note_on_c, 0, 57, 64
1, 122888, Note_on_c, 0, 85, 0
1, 122888, Note_on_c, 0, 85, 90
1, 122888, Note_on_c, 0, 57, 0
1, 122891, Note_on_c, 0, 45, 61
1, 122904, Control_c, 0, 64, 0
1, 122914, Note_on_c, 0, 45, 0
1, 122914, Note_on_c, 0, 49, 66
1, 122940, Note_on_c, 0, 49, 0
1, 122940, Note_on_c, 0, 52, 72
1, 122947, Note_on_c, 0, 85, 0
1, 122947, Note_on_c, 0, 73, 74
1, 122954, Note_on_c, 0, 76, 77
1, 122960, Note_on_c, 0, 81, 80
1, 122967, Note_on_c, 0, 73, 0
1, 122967, Note_on_c, 0, 85, 90
1, 122967, Note_on_c, 0, 52, 0
1, 122970, Note_on_c, 0, 57, 87
1, 122970, Control_c, 0, 64, 127
1, 123044, Note_on_c, 0, 57, 0
1, 123121, Note_on_c, 0, 57, 68
1, 123198, Note_on_c, 0, 57, 0
1, 123276, Note_on_c, 0, 73, 0
1, 123276, Note_on_c, 0, 81, 0
1, 123276, Note_on_c, 0, 76, 0
1, 123279, Note_on_c, 0, 57, 68
1, 123354, Note_on_c, 0, 57, 0
1, 123432, Note_on_c, 0, 57, 68
1, 123513, Note_on_c, 0, 57, 0
1, 123513, Note_on_c, 0, 45, 61
1, 123529, Control_c, 0, 64, 0
1, 123539, Note_on_c, 0, 45, 0
1, 123539, Note_on_c, 0, 49, 66
1, 123566, Note_on_c, 0, 49, 0
1, 123566, Note_on_c, 0, 52, 72
1, 123572, Note_on_c, 0, 73, 74
1, 123579, Note_on_c, 0, 76, 77
1, 123586, Note_on_c, 0, 81, 80
1, 123592, Note_on_c, 0, 85, 0
1, 123592, Note_on_c, 0, 85, 90
1, 123592, Note_on_c, 0, 52, 0
1, 123595, Note_on_c, 0, 57, 87
1, 123606, Control_c, 0, 64, 127
1, 123669, Note_on_c, 0, 57, 0
1, 123746, Note_on_c, 0, 57, 68
1, 123823, Note_on_c, 0, 57, 0
1, 123901, Note_on_c, 0, 73, 0
1, 123901, Note_on_c, 0, 81, 0
1, 123901, Note_on_c, 0, 76, 0
1, 123904, Note_on_c, 0, 57, 68
1, 123979, Note_on_c, 0, 57, 0
1, 124057, Note_on_c, 0, 57, 68
1, 124138, Note_on_c, 0, 57, 0
1, 124138, Note_on_c, 0, 45, 61
1, 124138, Control_c, 0, 64, 0
1, 124165, Note_on_c, 0, 45, 0
1, 124165, Note_on_c, 0, 49, 66
1, 124191, Note_on_c, 0, 49, 0
1, 124191, Note_on_c, 0, 52, 72
1, 124217, Note_on_c, 0, 85, 0
1, 124217, Note_on_c, 0, 86, 90
1, 124217, Note_on_c, 0, 52, 0
1, 124220, Note_on_c, 0, 57, 87
1, 124220, Control_c, 0, 64, 127
1, 124294, Note_on_c, 0, 86, 0
1, 124294, Note_on_c, 0, 85, 87
1, 124294, Note_on_c, 0, 57, 0
1, 124371, Note_on_c, 0, 85, 0
1, 124371, Note_on_c, 0, 83, 86
1, 124371, Note_on_c, 0, 57, 67
1, 124410, Note_on_c, 0, 83, 0
1, 124449, Note_on_c, 0, 85, 86
1, 124449, Note_on_c, 0, 57, 0
1, 124487, Note_on_c, 0, 85, 0
1, 124526, Note_on_c, 0, 86, 90
1, 124526, Note_on_c, 0, 57, 67
1, 124604, Note_on_c, 0, 86, 0
1, 124604, Note_on_c, 0, 85, 84
1, 124604, Note_on_c, 0, 57, 0
1, 124682, Note_on_c, 0, 85, 0
1, 124682, Note_on_c, 0, 83, 84
1, 124682, Note_on_c, 0, 57, 67
1, 124723, Note_on_c, 0, 83, 0
1, 124764, Note_on_c, 0, 85, 85
1, 124764, Note_on_c, 0, 57, 0
1, 124764, Note_on_c, 0, 38, 61
1, 124793, Note_on_c, 0, 38, 0
1, 124793, Note_on_c, 0, 42, 66
1, 124807, Note_on_c, 0, 85, 0
1, 124807, Control_c, 0, 64, 0
1, 124822, Note_on_c, 0, 42, 0
1, 124822, Note_on_c, 0, 45, 72
1, 124851, Note_on_c, 0, 78, 80
1, 124851, Note_on_c, 0, 81, 80
1, 124851, Note_on_c, 0, 86, 90
1, 124854, Note_on_c, 0, 45, 0
1, 124854, Note_on_c, 0, 50, 87
1, 124854, Control_c, 0, 64, 127
1, 124928, Note_on_c, 0, 50, 0
1, 125005, Note_on_c, 0, 50, 67
1, 125082, Note_on_c, 0, 50, 0
1, 125159, Note_on_c, 0, 50, 67
1, 125237, Note_on_c, 0, 50, 0
1, 125311, Note_on_c, 0, 50, 67
1, 125392, Note_on_c, 0, 50, 0
1, 125397, Note_on_c, 0, 45, 61
1, 125413, Control_c, 0, 64, 0
1, 125423, Note_on_c, 0, 45, 0
1, 125423, Note_on_c, 0, 49, 66
1, 125450, Note_on_c, 0, 49, 0
1, 125450, Note_on_c, 0, 52, 72
1, 125456, Note_on_c, 0, 86, 76
1, 125476, Note_on_c, 0, 86, 0
1, 125476, Note_on_c, 0, 78, 0
1, 125476, Note_on_c, 0, 81, 0
1, 125479, Note_on_c, 0, 86, 0
1, 125479, Note_on_c, 0, 76, 76
1, 125479, Note_on_c, 0, 81, 76
1, 125482, Note_on_c, 0, 85, 90
1, 125482, Note_on_c, 0, 52, 0
1, 125482, Note_on_c, 0, 57, 87
1, 125485, Control_c, 0, 64, 127
1, 125515, Note_on_c, 0, 85, 0
1, 125515, Note_on_c, 0, 81, 0
1, 125515, Note_on_c, 0, 76, 0
1, 125518, Note_on_c, 0, 57, 0
1, 125527, Control_c, 0, 64, 0
1, 125614, Note_on_c, 0, 86, 76
1, 125634, Note_on_c, 0, 86, 0
1, 125634, Note_on_c, 0, 76, 72
1, 125634, Note_on_c, 0, 81, 72
1, 125637, Note_on_c, 0, 85, 85
1, 125637, Note_on_c, 0, 57, 67
1, 125673, Note_on_c, 0, 85, 0
1, 125673, Note_on_c, 0, 81, 0
1, 125673, Note_on_c, 0, 76, 0
1, 125676, Note_on_c, 0, 57, 0
1, 125770, Note_on_c, 0, 86, 76
1, 125789, Note_on_c, 0, 86, 0
1, 125789, Note_on_c, 0, 76, 72
1, 125789, Note_on_c, 0, 81, 72
1, 125792, Note_on_c, 0, 85, 85
1, 125792, Note_on_c, 0, 57, 67
1, 125828, Note_on_c, 0, 85, 0
1, 125828, Note_on_c, 0, 81, 0
1, 125828, Note_on_c, 0, 76, 0
1, 125831, Note_on_c, 0, 57, 0
1, 125926, Note_on_c, 0, 86, 76
1, 125945, Note_on_c, 0, 86, 0
1, 125945, Note_on_c, 0, 76, 72
1, 125945, Note_on_c, 0, 81, 72
1, 125948, Note_on_c, 0, 85, 85
1, 125948, Note_on_c, 0, 57, 67
1, 125986, Note_on_c, 0, 85, 0
1, 125986, Note_on_c, 0, 81, 0
1, 125986, Note_on_c, 0, 76, 0
1, 125989, Note_on_c, 0, 57, 0
1, 126026, Note_on_c, 0, 40, 61
1, 126053, Note_on_c, 0, 40, 0
1, 126053, Note_on_c, 0, 44, 66
1, 126068, Control_c, 0, 64, 127
1, 126079, Note_on_c, 0, 44, 0
1, 126079, Note_on_c, 0, 47, 72
1, 126106, Note_on_c, 0, 76, 80
1, 126106, Note_on_c, 0, 80, 80
1, 126106, Note_on_c, 0, 83, 90
1, 126109, Note_on_c, 0, 47, 0
1, 126109, Note_on_c, 0, 52, 87
1, 126182, Note_on_c, 0, 52, 0
1, 126259, Note_on_c, 0, 52, 66
1, 126337, Note_on_c, 0, 52, 0
1, 126414, Note_on_c, 0, 52, 66
1, 126492, Note_on_c, 0, 52, 0
1, 126570, Note_on_c, 0, 52, 66
1, 126653, Note_on_c, 0, 83, 0
1, 126653, Note_on_c, 0, 88, 103
1, 126653, Note_on_c, 0, 52, 0
1, 126656, Note_on_c, 0, 45, 61
1, 126676, Control_c, 0, 64, 0
1, 126692, Note_on_c, 0, 45, 0
1, 126692, Note_on_c, 0, 49, 66
1, 126731, Note_on_c, 0, 49, 0
1, 126731, Note_on_c, 0, 52, 72
1, 126741, Note_on_c, 0, 88, 0
1, 126741, Note_on_c, 0, 73, 74
1, 126750, Note_on_c, 0, 76, 77
1, 126760, Note_on_c, 0, 81, 80
1, 126770, Note_on_c, 0, 80, 0
1, 126770, Note_on_c, 0, 76, 0
1, 126770, Note_on_c, 0, 85, 90
1, 126773, Note_on_c, 0, 52, 0
1, 126773, Note_on_c, 0, 57, 87
1, 126773, Control_c, 0, 64, 127
1, 126847, Note_on_c, 0, 57, 0
1, 126924, Note_on_c, 0, 57, 68
1, 127001, Note_on_c, 0, 57, 0
1, 127079, Note_on_c, 0, 76, 0
1, 127079, Note_on_c, 0, 81, 0
1, 127079, Note_on_c, 0, 73, 0
1, 127082, Note_on_c, 0, 57, 68
1, 127157, Note_on_c, 0, 57, 0
1, 127235, Note_on_c, 0, 57, 68
1, 127316, Note_on_c, 0, 57, 0
1, 127316, Note_on_c, 0, 45, 61
1, 127332, Control_c, 0, 64, 0
1, 127342, Note_on_c, 0, 45, 0
1, 127342, Note_on_c, 0, 49, 66
1, 127369, Note_on_c, 0, 49, 0
1, 127369, Note_on_c, 0, 52, 72
1, 127375, Note_on_c, 0, 73, 74
1, 127382, Note_on_c, 0, 76, 77
1, 127389, Note_on_c, 0, 81, 80
1, 127395, Note_on_c, 0, 85, 0
1, 127395, Note_on_c, 0, 85, 90
1, 127395, Note_on_c, 0, 52, 0
1, 127398, Note_on_c, 0, 57, 87
1, 127409, Control_c, 0, 64, 127
1, 127472, Note_on_c, 0, 57, 0
1, 127549, Note_on_c, 0, 57, 66
1, 127627, Note_on_c, 0, 57, 0
1, 127704, Note_on_c, 0, 73, 0
1, 127704, Note_on_c, 0, 81, 0
1, 127704, Note_on_c, 0, 76, 0
1, 127707, Note_on_c, 0, 57, 66
1, 127782, Note_on_c, 0, 57, 0
1, 127860, Note_on_c, 0, 57, 66
1, 127941, Note_on_c, 0, 57, 0
1, 127941, Note_on_c, 0, 45, 61
1, 127941, Control_c, 0, 64, 0
1, 127968, Note_on_c, 0, 45, 0
1, 127968, Note_on_c, 0, 49, 66
1, 127994, Note_on_c, 0, 49, 0
1, 127994, Note_on_c, 0, 52, 72
1, 128020, Note_on_c, 0, 85, 0
1, 128020, Note_on_c, 0, 86, 90
1, 128020, Note_on_c, 0, 52, 0
1, 128023, Note_on_c, 0, 57, 87
1, 128023, Control_c, 0, 64, 127
1, 128097, Note_on_c, 0, 86, 0
1, 128097, Note_on_c, 0, 85, 87
1, 128097, Note_on_c, 0, 57, 0
1, 128174, Note_on_c, 0, 85, 0
1, 128174, Note_on_c, 0, 83, 86
1, 128174, Note_on_c, 0, 57, 66
1, 128213, Note_on_c, 0, 83, 0
1, 128252, Note_on_c, 0, 85, 86
1, 128252, Note_on_c, 0, 57, 0
1, 128291, Note_on_c, 0, 85, 0
1, 128329, Note_on_c, 0, 86, 90
1, 128329, Note_on_c, 0, 57, 66
1, 128407, Note_on_c, 0, 86, 0
1, 128407, Note_on_c, 0, 85, 84
1, 128407, Note_on_c, 0, 57, 0
1, 128485, Note_on_c, 0, 85, 0
1, 128485, Note_on_c, 0, 83, 84
1, 128485, Note_on_c, 0, 57, 66
1, 128526, Note_on_c, 0, 83, 0
1, 128567, Note_on_c, 0, 85, 85
1, 128567, Note_on_c, 0, 57, 0
1, 128567, Note_on_c, 0, 38, 61
1, 128572, Control_c, 0, 64, 0
1, 128596, Note_on_c, 0, 38, 0
1, 128596, Note_on_c, 0, 42, 66
1, 128610, Note_on_c, 0, 85, 0
1, 128625, Note_on_c, 0, 42, 0
1, 128625, Note_on_c, 0, 45, 72
1, 128654, Note_on_c, 0, 78, 80
1, 128654, Note_on_c, 0, 81, 80
1, 128654, Note_on_c, 0, 86, 90
1, 128657, Note_on_c, 0, 45, 0
1, 128657, Note_on_c, 0, 50, 87
1, 128681, Control_c, 0, 64, 127
1, 128731, Note_on_c, 0, 50, 0
1, 128808, Note_on_c, 0, 50, 66
1, 128885, Note_on_c, 0, 50, 0
1, 128963, Note_on_c, 0, 50, 66
1, 129041, Note_on_c, 0, 50, 0
1, 129114, Note_on_c, 0, 50, 66
1, 129195, Note_on_c, 0, 50, 0
1, 129200, Note_on_c, 0, 45, 61
1, 129216, Control_c, 0, 64, 0
1, 129226, Note_on_c, 0, 45, 0
1, 129226, Note_on_c, 0, 49, 66
1, 129253, Note_on_c, 0, 49, 0
1, 129253, Note_on_c, 0, 52, 72
1, 129259, Note_on_c, 0, 86, 76
1, 129279, Note_on_c, 0, 86, 0
1, 129279, Note_on_c, 0, 78, 0
1, 129279, Note_on_c, 0, 81, 0
1, 129282, Note_on_c, 0, 86, 0
1, 129282, Note_on_c, 0, 76, 76
1, 129282, Note_on_c, 0, 81, 76
1, 129285, Note_on_c, 0, 85, 90
1, 129285, Note_on_c, 0, 52, 0
1, 129285, Note_on_c, 0, 57, 87
1, 129309, Control_c, 0, 64, 127
1, 129358, Note_on_c, 0, 57, 0
1, 129437, Note_on_c, 0, 57, 66
1, 129515, Note_on_c, 0, 57, 0
1, 129592, Note_on_c, 0, 57, 66
1, 129670, Note_on_c, 0, 57, 0
1, 129748, Note_on_c, 0, 57, 66
1, 129830, Note_on_c, 0, 57, 0
1, 129830, Note_on_c, 0, 40, 61
1, 129830, Control_c, 0, 64, 0
1, 129856, Note_on_c, 0, 40, 0
1, 129856, Note_on_c, 0, 44, 66
1, 129882, Note_on_c, 0, 44, 0
1, 129882, Note_on_c, 0, 47, 72
1, 129889, Note_on_c, 0, 85, 76
1, 129909, Note_on_c, 0, 85, 0
1, 129909, Note_on_c, 0, 76, 0
1, 129909, Note_on_c, 0, 81, 0
1, 129912, Note_on_c, 0, 85, 0
1, 129912, Note_on_c, 0, 76, 76
1, 129912, Note_on_c, 0, 80, 76
1, 129915, Note_on_c, 0, 83, 90
1, 129915, Note_on_c, 0, 47, 0
1, 129915, Note_on_c, 0, 52, 87
1, 129929, Control_c, 0, 64, 127
1, 129947, Note_on_c, 0, 83, 0
1, 129947, Note_on_c, 0, 80, 0
1, 129947, Note_on_c, 0, 76, 0
1, 129950, Note_on_c, 0, 52, 0
1, 130043, Note_on_c, 0, 85, 76
1, 130062, Note_on_c, 0, 85, 0
1, 130062, Note_on_c, 0, 76, 72
1, 130062, Note_on_c, 0, 80, 72
1, 130065, Note_on_c, 0, 83, 85
1, 130065, Note_on_c, 0, 52, 66
1, 130101, Note_on_c, 0, 83, 0
1, 130101, Note_on_c, 0, 80, 0
1, 130101, Note_on_c, 0, 76, 0
1, 130104, Note_on_c, 0, 52, 0
1, 130198, Note_on_c, 0, 85, 76
1, 130217, Note_on_c, 0, 85, 0
1, 130217, Note_on_c, 0, 76, 72
1, 130217, Note_on_c, 0, 80, 72
1, 130220, Note_on_c, 0, 83, 85
1, 130220, Note_on_c, 0, 52, 65
1, 130256, Note_on_c, 0, 83, 0
1, 130256, Note_on_c, 0, 80, 0
1, 130256, Note_on_c, 0, 76, 0
1, 130259, Note_on_c, 0, 52, 0
1, 130354, Note_on_c, 0, 85, 76
1, 130373, Note_on_c, 0, 85, 0
1, 130373, Note_on_c, 0, 76, 72
1, 130373, Note_on_c, 0, 80, 72
1, 130376, Note_on_c, 0, 83, 85
1, 130376, Note_on_c, 0, 52, 65
1, 130414, Note_on_c, 0, 83, 0
1, 130414, Note_on_c, 0, 80, 0
1, 130414, Note_on_c, 0, 76, 0
1, 130417, Note_on_c, 0, 52, 0
1, 130466, Control_c, 0, 64, 0
1, 130536, Note_on_c, 0, 81, 90
1, 130536, Note_on_c, 0, 57, 64
1, 130536, Control_c, 0, 64, 127
1, 130618, Note_on_c, 0, 57, 0
1, 130618, Note_on_c, 0, 64, 54
1, 130699, Note_on_c, 0, 64, 0
1, 130699, Note_on_c, 0, 61, 54
1, 130780, Note_on_c, 0, 61, 0
1, 130780, Note_on_c, 0, 64, 54
1, 130821, Note_on_c, 0, 81, 0
1, 130821, Note_on_c, 0, 76, 55
1, 130841, Note_on_c, 0, 76, 0
1, 130841, Note_on_c, 0, 81, 60
1, 130862, Note_on_c, 0, 81, 0
1, 130862, Note_on_c, 0, 85, 67
1, 130862, Note_on_c, 0, 64, 0
1, 130865, Note_on_c, 0, 57, 40
1, 130940, Note_on_c, 0, 57, 0
1, 130940, Note_on_c, 0, 64, 31
1, 131018, Note_on_c, 0, 64, 0
1, 131018, Note_on_c, 0, 61, 31
1, 131099, Note_on_c, 0, 85, 0
1, 131099, Note_on_c, 0, 85, 63
1, 131099, Note_on_c, 0, 61, 0
1, 131102, Note_on_c, 0, 64, 31
1, 131118, Control_c, 0, 64, 0
1, 131139, Note_on_c, 0, 85, 0
1, 131139, Note_on_c, 0, 76, 55
1, 131158, Note_on_c, 0, 76, 0
1, 131158, Note_on_c, 0, 81, 60
1, 131178, Note_on_c, 0, 81, 0
1, 131178, Note_on_c, 0, 85, 70
1, 131178, Note_on_c, 0, 64, 0
1, 131181, Note_on_c, 0, 57, 40
1, 131181, Control_c, 0, 64, 127
1, 131255, Note_on_c, 0, 57, 0
1, 131255, Note_on_c, 0, 64, 31
1, 131332, Note_on_c, 0, 64, 0
1, 131332, Note_on_c, 0, 61, 31
1, 131410, Note_on_c, 0, 61, 0
1, 131410, Note_on_c, 0, 64, 31
1, 131487, Note_on_c, 0, 64, 0
1, 131487, Note_on_c, 0, 57, 40
1, 131565, Note_on_c, 0, 57, 0
1, 131565, Note_on_c, 0, 64, 31
1, 131643, Note_on_c, 0, 64, 0
1, 131643, Note_on_c, 0, 61, 31
1, 131724, Note_on_c, 0, 61, 0
1, 131724, Note_on_c, 0, 64, 31
1, 131743, Control_c, 0, 64, 0
1, 131764, Note_on_c, 0, 85, 0
1, 131764, Note_on_c, 0, 76, 55
1, 131784, Note_on_c, 0, 76, 0
1, 131784, Note_on_c, 0, 81, 60
1, 131804, Note_on_c, 0, 81, 0
1, 131804, Note_on_c, 0, 85, 69
1, 131804, Note_on_c, 0, 64, 0
1, 131807, Note_on_c, 0, 57, 40
1, 131807, Control_c, 0, 64, 127
1, 131880, Note_on_c, 0, 57, 0
1, 131880, Note_on_c, 0, 64, 31
1, 131957, Note_on_c, 0, 64, 0
1, 131957, Note_on_c, 0, 61, 31
1, 132035, Note_on_c, 0, 61, 0
1, 132035, Note_on_c, 0, 64, 31
1, 132112, Note_on_c, 0, 64, 0
1, 132112, Note_on_c, 0, 57, 40
1, 132190, Note_on_c, 0, 57, 0
1, 132190, Note_on_c, 0, 64, 31
1, 132268, Note_on_c, 0, 64, 0
1, 132268, Note_on_c, 0, 61, 31
1, 132350, Note_on_c, 0, 61, 0
1, 132350, Note_on_c, 0, 64, 31
1, 132429, Note_on_c, 0, 85, 0
1, 132429, Note_on_c, 0, 86, 69
1, 132429, Note_on_c, 0, 64, 0
1, 132432, Note_on_c, 0, 57, 40
1, 132432, Control_c, 0, 64, 0
1, 132463, Control_c, 0, 64, 127
1, 132506, Note_on_c, 0, 86, 0
1, 132506, Note_on_c, 0, 85, 60
1, 132506, Note_on_c, 0, 57, 0
1, 132509, Note_on_c, 0, 64, 31
1, 132583, Note_on_c, 0, 85, 0
1, 132583, Note_on_c, 0, 83, 60
1, 132583, Note_on_c, 0, 64, 0
1, 132586, Note_on_c, 0, 61, 31
1, 132621, Note_on_c, 0, 83, 0
1, 132660, Note_on_c, 0, 85, 60
1, 132660, Note_on_c, 0, 61, 0
1, 132660, Note_on_c, 0, 64, 31
1, 132699, Note_on_c, 0, 85, 0
1, 132738, Note_on_c, 0, 86, 68
1, 132738, Note_on_c, 0, 64, 0
1, 132738, Note_on_c, 0, 57, 40
1, 132816, Note_on_c, 0, 86, 0
1, 132816, Note_on_c, 0, 85, 61
1, 132816, Note_on_c, 0, 57, 0
1, 132819, Note_on_c, 0, 64, 31
1, 132894, Note_on_c, 0, 85, 0
1, 132894, Note_on_c, 0, 83, 61
1, 132894, Note_on_c, 0, 64, 0
1, 132897, Note_on_c, 0, 61, 31
1, 132934, Note_on_c, 0, 83, 0
1, 132975, Note_on_c, 0, 85, 61
1, 132975, Note_on_c, 0, 61, 0
1, 132975, Note_on_c, 0, 64, 31
1, 133019, Note_on_c, 0, 85, 0
1, 133062, Note_on_c, 0, 86, 67
1, 133062, Note_on_c, 0, 64, 0
1, 133062, Note_on_c, 0, 57, 40
1, 133068, Control_c, 0, 64, 0
1, 133139, Note_on_c, 0, 57, 0
1, 133139, Note_on_c, 0, 66, 31
1, 133148, Control_c, 0, 64, 127
1, 133216, Note_on_c, 0, 66, 0
1, 133216, Note_on_c, 0, 62, 31
1, 133293, Note_on_c, 0, 62, 0
1, 133293, Note_on_c, 0, 66, 31
1, 133371, Note_on_c, 0, 66, 0
1, 133371, Note_on_c, 0, 57, 40
1, 133449, Note_on_c, 0, 57, 0
1, 133449, Note_on_c, 0, 66, 31
1, 133527, Note_on_c, 0, 66, 0
1, 133527, Note_on_c, 0, 62, 31
1, 133608, Note_on_c, 0, 62, 0
1, 133608, Note_on_c, 0, 66, 31
1, 133668, Note_on_c, 0, 86, 59
1, 133687, Note_on_c, 0, 86, 0
1, 133687, Note_on_c, 0, 86, 0
1, 133687, Note_on_c, 0, 85, 71
1, 133690, Note_on_c, 0, 66, 0
1, 133690, Note_on_c, 0, 57, 40
1, 133715, Control_c, 0, 64, 0
1, 133727, Note_on_c, 0, 85, 0
1, 133755, Control_c, 0, 64, 127
1, 133766, Note_on_c, 0, 57, 0
1, 133766, Note_on_c, 0, 64, 31
1, 133826, Note_on_c, 0, 86, 56
1, 133846, Note_on_c, 0, 86, 0
1, 133846, Note_on_c, 0, 85, 64
1, 133846, Note_on_c, 0, 64, 0
1, 133849, Note_on_c, 0, 61, 31
1, 133884, Note_on_c, 0, 85, 0
1, 133923, Note_on_c, 0, 61, 0
1, 133923, Note_on_c, 0, 64, 31
1, 133981, Note_on_c, 0, 86, 57
1, 134000, Note_on_c, 0, 86, 0
1, 134000, Note_on_c, 0, 85, 65
1, 134000, Note_on_c, 0, 64, 0
1, 134003, Note_on_c, 0, 57, 40
1, 134039, Note_on_c, 0, 85, 0
1, 134078, Note_on_c, 0, 57, 0
1, 134078, Note_on_c, 0, 64, 31
1, 134137, Note_on_c, 0, 86, 59
1, 134156, Note_on_c, 0, 86, 0
1, 134156, Note_on_c, 0, 85, 66
1, 134156, Note_on_c, 0, 64, 0
1, 134159, Note_on_c, 0, 61, 31
1, 134197, Note_on_c, 0, 85, 0
1, 134238, Note_on_c, 0, 61, 0
1, 134238, Note_on_c, 0, 64, 31
1, 134317, Note_on_c, 0, 83, 67
1, 134317, Note_on_c, 0, 64, 0
1, 134317, Note_on_c, 0, 52, 40
1, 134320, Control_c, 0, 64, 0
1, 134348, Control_c, 0, 64, 127
1, 134394, Note_on_c, 0, 52, 0
1, 134394, Note_on_c, 0, 64, 31
1, 134471, Note_on_c, 0, 64, 0
1, 134471, Note_on_c, 0, 59, 31
1, 134548, Note_on_c, 0, 59, 0
1, 134548, Note_on_c, 0, 64, 31
1, 134626, Note_on_c, 0, 64, 0
1, 134626, Note_on_c, 0, 52, 40
1, 134704, Note_on_c, 0, 52, 0
1, 134704, Note_on_c, 0, 64, 31
1, 134782, Note_on_c, 0, 64, 0
1, 134782, Note_on_c, 0, 59, 31
1, 134863, Note_on_c, 0, 83, 0
1, 134863, Note_on_c, 0, 88, 94
1, 134863, Note_on_c, 0, 59, 0
1, 134866, Note_on_c, 0, 64, 31
1, 134917, Note_on_c, 0, 64, 0
1, 134917, Note_on_c, 0, 45, 61
1, 134934, Note_on_c, 0, 45, 0
1, 134934, Note_on_c, 0, 49, 61
1, 134943, Note_on_c, 0, 88, 0
1, 134943, Note_on_c, 0, 73, 74
1, 134952, Note_on_c, 0, 76, 77
1, 134952, Note_on_c, 0, 49, 0
1, 134952, Note_on_c, 0, 52, 61
1, 134961, Note_on_c, 0, 81, 80
1, 134970, Note_on_c, 0, 85, 90
1, 134970, Note_on_c, 0, 52, 0
1, 134970, Note_on_c, 0, 57, 87
1, 134970, Control_c, 0, 64, 0
1, 135006, Control_c, 0, 64, 127
1, 135047, Note_on_c, 0, 57, 0
1, 135124, Note_on_c, 0, 57, 67
1, 135201, Note_on_c, 0, 57, 0
1, 135279, Note_on_c, 0, 81, 0
1, 135279, Note_on_c, 0, 73, 0
1, 135279, Note_on_c, 0, 76, 0
1, 135282, Note_on_c, 0, 57, 67
1, 135357, Note_on_c, 0, 57, 0
1, 135435, Note_on_c, 0, 57, 64
1, 135516, Note_on_c, 0, 57, 0
1, 135516, Note_on_c, 0, 45, 61
1, 135532, Control_c, 0, 64, 0
1, 135543, Note_on_c, 0, 45, 0
1, 135543, Note_on_c, 0, 49, 66
1, 135569, Note_on_c, 0, 49, 0
1, 135569, Note_on_c, 0, 52, 72
1, 135576, Note_on_c, 0, 73, 74
1, 135582, Note_on_c, 0, 76, 77
1, 135589, Note_on_c, 0, 81, 80
1, 135595, Note_on_c, 0, 85, 0
1, 135595, Note_on_c, 0, 85, 90
1, 135595, Note_on_c, 0, 52, 0
1, 135598, Note_on_c, 0, 57, 87
1, 135609, Control_c, 0, 64, 127
1, 135672, Note_on_c, 0, 57, 0
1, 135749, Note_on_c, 0, 57, 66
1, 135827, Note_on_c, 0, 57, 0
1, 135904, Note_on_c, 0, 73, 0
1, 135904, Note_on_c, 0, 81, 0
1, 135904, Note_on_c, 0, 76, 0
1, 135907, Note_on_c, 0, 57, 66
1, 135982, Note_on_c, 0, 57, 0
1, 136060, Note_on_c, 0, 57, 66
1, 136142, Note_on_c, 0, 57, 0
1, 136142, Note_on_c, 0, 45, 61
1, 136142, Control_c, 0, 64, 0
1, 136168, Note_on_c, 0, 45, 0
1, 136168, Note_on_c, 0, 49, 66
1, 136194, Note_on_c, 0, 49, 0
1, 136194, Note_on_c, 0, 52, 72
1, 136221, Note_on_c, 0, 85, 0
1, 136221, Note_on_c, 0, 86, 90
1, 136221, Note_on_c, 0, 52, 0
1, 136224, Note_on_c, 0, 57, 87
1, 136224, Control_c, 0, 64, 127
1, 136298, Note_on_c, 0, 86, 0
1, 136298, Note_on_c, 0, 85, 87
1, 136298, Note_on_c, 0, 57, 0
1, 136374, Note_on_c, 0, 85, 0
1, 136374, Note_on_c, 0, 83, 86
1, 136374, Note_on_c, 0, 57, 67
1, 136413, Note_on_c, 0, 83, 0
1, 136452, Note_on_c, 0, 85, 86
1, 136452, Note_on_c, 0, 57, 0
1, 136491, Note_on_c, 0, 85, 0
1, 136529, Note_on_c, 0, 86, 90
1, 136529, Note_on_c, 0, 57, 67
1, 136607, Note_on_c, 0, 86, 0
1, 136607, Note_on_c, 0, 85, 84
1, 136607, Note_on_c, 0, 57, 0
1, 136685, Note_on_c, 0, 85, 0
1, 136685, Note_on_c, 0, 83, 84
1, 136685, Note_on_c, 0, 57, 67
1, 136726, Note_on_c, 0, 83, 0
1, 136767, Note_on_c, 0, 85, 85
1, 136767, Note_on_c, 0, 57, 0
1, 136767, Note_on_c, 0, 38, 61
1, 136796, Note_on_c, 0, 38, 0
1, 136796, Note_on_c, 0, 42, 66
1, 136810, Note_on_c, 0, 85, 0
1, 136810, Control_c, 0, 64, 0
1, 136825, Note_on_c, 0, 42, 0
1, 136825, Note_on_c, 0, 45, 72
1, 136854, Note_on_c, 0, 78, 80
1, 136854, Note_on_c, 0, 81, 80
1, 136854, Note_on_c, 0, 86, 90
1, 136857, Note_on_c, 0, 45, 0
1, 136857, Note_on_c, 0, 50, 87
1, 136881, Control_c, 0, 64, 127
1, 136931, Note_on_c, 0, 50, 0
1, 137008, Note_on_c, 0, 50, 68
1, 137085, Note_on_c, 0, 50, 0
1, 137163, Note_on_c, 0, 50, 68
1, 137241, Note_on_c, 0, 50, 0
1, 137314, Note_on_c, 0, 50, 68
1, 137395, Note_on_c, 0, 50, 0
1, 137400, Note_on_c, 0, 45, 61
1, 137416, Control_c, 0, 64, 0
1, 137426, Note_on_c, 0, 45, 0
1, 137426, Note_on_c, 0, 49, 66
1, 137453, Note_on_c, 0, 49, 0
1, 137453, Note_on_c, 0, 52, 72
1, 137459, Note_on_c, 0, 86, 76
1, 137479, Note_on_c, 0, 86, 0
1, 137479, Note_on_c, 0, 78, 0
1, 137479, Note_on_c, 0, 81, 0
1, 137482, Note_on_c, 0, 86, 0
1, 137482, Note_on_c, 0, 76, 76
1, 137482, Note_on_c, 0, 81, 76
1, 137485, Note_on_c, 0, 85, 90
1, 137485, Note_on_c, 0, 52, 0
1, 137485, Note_on_c, 0, 57, 87
1, 137509, Control_c, 0, 64, 127
1, 137558, Note_on_c, 0, 57, 0
1, 137637, Note_on_c, 0, 57, 67
1, 137715, Note_on_c, 0, 57, 0
1, 137792, Note_on_c, 0, 57, 67
1, 137870, Note_on_c, 0, 57, 0
1, 137948, Note_on_c, 0, 57, 67
1, 138030, Note_on_c, 0, 57, 0
1, 138030, Note_on_c, 0, 40, 61
1, 138030, Control_c, 0, 64, 0
1, 138056, Note_on_c, 0, 40, 0
1, 138056, Note_on_c, 0, 44, 66
1, 138082, Note_on_c, 0, 44, 0
1, 138082, Note_on_c, 0, 47, 72
1, 138089, Note_on_c, 0, 85, 76
1, 138109, Note_on_c, 0, 85, 0
1, 138109, Note_on_c, 0, 76, 0
1, 138109, Note_on_c, 0, 81, 0
1, 138112, Note_on_c, 0, 85, 0
1, 138112, Note_on_c, 0, 76, 76
1, 138112, Note_on_c, 0, 80, 76
1, 138115, Note_on_c, 0, 83, 90
1, 138115, Note_on_c, 0, 47, 0
1, 138115, Note_on_c, 0, 52, 87
1, 138129, Control_c, 0, 64, 127
1, 138147, Note_on_c, 0, 83, 0
1, 138147, Note_on_c, 0, 80, 0
1, 138147, Note_on_c, 0, 76, 0
1, 138150, Note_on_c, 0, 52, 0
1, 138243, Note_on_c, 0, 85, 76
1, 138263, Note_on_c, 0, 85, 0
1, 138263, Note_on_c, 0, 76, 72
1, 138263, Note_on_c, 0, 80, 72
1, 138266, Note_on_c, 0, 83, 85
1, 138266, Note_on_c, 0, 52, 67
1, 138301, Note_on_c, 0, 83, 0
1, 138301, Note_on_c, 0, 80, 0
1, 138301, Note_on_c, 0, 76, 0
1, 138304, Note_on_c, 0, 52, 0
1, 138398, Note_on_c, 0, 85, 76
1, 138418, Note_on_c, 0, 85, 0
1, 138418, Note_on_c, 0, 76, 72
1, 138418, Note_on_c, 0, 80, 72
1, 138421, Note_on_c, 0, 83, 85
1, 138421, Note_on_c, 0, 52, 67
1, 138457, Note_on_c, 0, 83, 0
1, 138457, Note_on_c, 0, 80, 0
1, 138457, Note_on_c, 0, 76, 0
1, 138460, Note_on_c, 0, 52, 0
1, 138554, Note_on_c, 0, 85, 76
1, 138574, Note_on_c, 0, 85, 0
1, 138574, Note_on_c, 0, 76, 72
1, 138574, Note_on_c, 0, 80, 72
1, 138577, Note_on_c, 0, 83, 85
1, 138577, Note_on_c, 0, 52, 67
1, 138614, Note_on_c, 0, 83, 0
1, 138614, Note_on_c, 0, 80, 0
1, 138614, Note_on_c, 0, 76, 0
1, 138617, Note_on_c, 0, 52, 0
1, 138655, Note_on_c, 0, 45, 61
1, 138666, Control_c, 0, 64, 0
1, 138681, Note_on_c, 0, 45, 0
1, 138681, Note_on_c, 0, 49, 66
1, 138708, Note_on_c, 0, 49, 0
1, 138708, Note_on_c, 0, 52, 72
1, 138734, Note_on_c, 0, 69, 90
1, 138734, Note_on_c, 0, 73, 90
1, 138734, Note_on_c, 0, 76, 90
1, 138737, Note_on_c, 0, 81, 90
1, 138737, Note_on_c, 0, 52, 0
1, 138737, Note_on_c, 0, 57, 87
1, 138740, Control_c, 0, 64, 127
1, 138813, Note_on_c, 0, 57, 0
1, 138892, Note_on_c, 0, 57, 67
1, 138971, Note_on_c, 0, 57, 0
1, 139050, Note_on_c, 0, 57, 67
1, 139130, Note_on_c, 0, 57, 0
1, 139209, Note_on_c, 0, 81, 0
1, 139209, Note_on_c, 0, 69, 0
1, 139209, Note_on_c, 0, 73, 0
1, 139212, Note_on_c, 0, 76, 0
1, 139212, Note_on_c, 0, 73, 73
1, 139212, Note_on_c, 0, 85, 87
1, 139215, Note_on_c, 0, 57, 67
1, 139252, Note_on_c, 0, 85, 0
1, 139252, Note_on_c, 0, 73, 0
1, 139295, Note_on_c, 0, 57, 0
1, 139295, Note_on_c, 0, 45, 61
1, 139324, Note_on_c, 0, 45, 0
1, 139324, Note_on_c, 0, 49, 66
1, 139353, Note_on_c, 0, 49, 0
1, 139353, Note_on_c, 0, 52, 72
1, 139381, Note_on_c, 0, 69, 90
1, 139381, Note_on_c, 0, 81, 90
1, 139381, Note_on_c, 0, 52, 0
1, 139384, Note_on_c, 0, 57, 87
1, 139461, Note_on_c, 0, 57, 0
1, 139540, Note_on_c, 0, 57, 66
1, 139619, Note_on_c, 0, 57, 0
1, 139698, Note_on_c, 0, 57, 66
1, 139777, Note_on_c, 0, 57, 0
1, 139856, Note_on_c, 0, 81, 0
1, 139856, Note_on_c, 0, 69, 0
1, 139856, Note_on_c, 0, 73, 73
1, 139859, Note_on_c, 0, 85, 87
1, 139859, Note_on_c, 0, 57, 66
1, 139900, Note_on_c, 0, 85, 0
1, 139900, Note_on_c, 0, 73, 0
1, 139944, Note_on_c, 0, 57, 0
1, 139944, Note_on_c, 0, 45, 61
1, 139973, Note_on_c, 0, 45, 0
1, 139973, Note_on_c, 0, 49, 66
1, 140002, Note_on_c, 0, 49, 0
1, 140002, Note_on_c, 0, 52, 72
1, 140032, Note_on_c, 0, 69, 90
1, 140032, Note_on_c, 0, 81, 90
1, 140032, Note_on_c, 0, 52, 0
1, 140035, Note_on_c, 0, 57, 87
1, 140111, Note_on_c, 0, 57, 0
1, 140190, Note_on_c, 0, 57, 67
1, 140269, Note_on_c, 0, 57, 0
1, 140348, Note_on_c, 0, 57, 67
1, 140427, Note_on_c, 0, 57, 0
1, 140506, Note_on_c, 0, 81, 0
1, 140506, Note_on_c, 0, 69, 0
1, 140506, Note_on_c, 0, 73, 73
1, 140509, Note_on_c, 0, 85, 87
1, 140509, Note_on_c, 0, 57, 67
1, 140549, Note_on_c, 0, 85, 0
1, 140549, Note_on_c, 0, 73, 0
1, 140592, Note_on_c, 0, 57, 0
1, 140592, Note_on_c, 0, 45, 61
1, 140620, Note_on_c, 0, 45, 0
1, 140620, Note_on_c, 0, 49, 66
1, 140649, Note_on_c, 0, 49, 0
1, 140649, Note_on_c, 0, 52, 72
1, 140678, Note_on_c, 0, 69, 82
1, 140678, Note_on_c, 0, 81, 97
1, 140678, Note_on_c, 0, 52, 0
1, 140681, Note_on_c, 0, 57, 95
1, 140757, Note_on_c, 0, 81, 0
1, 140757, Note_on_c, 0, 69, 0
1, 140757, Note_on_c, 0, 57, 0
1, 140837, Note_on_c, 0, 73, 78
1, 140837, Note_on_c, 0, 85, 92
1, 140837, Note_on_c, 0, 57, 70
1, 140915, Note_on_c, 0, 85, 0
1, 140915, Note_on_c, 0, 73, 0
1, 140915, Note_on_c, 0, 57, 0
1, 140918, Note_on_c, 0, 45, 67
1, 140941, Note_on_c, 0, 45, 0
1, 140941, Note_on_c, 0, 49, 72
1, 140967, Note_on_c, 0, 49, 0
1, 140967, Note_on_c, 0, 52, 79
1, 140993, Note_on_c, 0, 69, 83
1, 140993, Note_on_c, 0, 81, 99
1, 140993, Note_on_c, 0, 52, 0
1, 140996, Note_on_c, 0, 57, 95
1, 141071, Note_on_c, 0, 81, 0
1, 141071, Note_on_c, 0, 69, 0
1, 141071, Note_on_c, 0, 57, 0
1, 141149, Note_on_c, 0, 73, 79
1, 141149, Note_on_c, 0, 85, 93
1, 141149, Note_on_c, 0, 57, 70
1, 141233, Note_on_c, 0, 85, 0
1, 141233, Note_on_c, 0, 73, 0
1, 141233, Note_on_c, 0, 57, 0
1, 141317, Note_on_c, 0, 69, 90
1, 141317, Note_on_c, 0, 81, 108
1, 141317, Note_on_c, 0, 45, 88
1, 141322, Control_c, 0, 64, 0
1, 141526, Control_c, 0, 64, 127
1, 141660, Note_on_c, 0, 81, 0
1, 141660, Note_on_c, 0, 69, 0
1, 141660, Note_on_c, 0, 69, 82
1, 141663, Note_on_c, 0, 73, 82
1, 141663, Note_on_c, 0, 76, 82
1, 141663, Note_on_c, 0, 81, 97
1, 141666, Note_on_c, 0, 45, 0
1, 141666, Note_on_c, 0, 57, 88
1, 142034, Note_on_c, 0, 81, 0
1, 142034, Note_on_c, 0, 69, 0
1, 142034, Note_on_c, 0, 73, 0
1, 142037, Note_on_c, 0, 76, 0
1, 142037, Note_on_c, 0, 69, 86
1, 142037, Note_on_c, 0, 73, 86
1, 142040, Note_on_c, 0, 76, 86
1, 142040, Note_on_c, 0, 81, 103
1, 142040, Note_on_c, 0, 57, 0
1, 142043, Note_on_c, 0, 45, 74
1, 142043, Note_on_c, 0, 49, 74
1, 142043, Note_on_c, 0, 52, 74
1, 142046, Note_on_c, 0, 57, 88
1, 142408, Note_on_c, 0, 81, 0
1, 142408, Note_on_c, 0, 69, 0
1, 142408, Note_on_c, 0, 73, 0
1, 142411, Note_on_c, 0, 76, 0
1, 142411, Note_on_c, 0, 57, 0
1, 142411, Note_on_c, 0, 45, 0
1, 142414, Note_on_c, 0, 49, 0
1, 142414, Note_on_c, 0, 52, 0
1, 142783, Control_c, 0, 64, 0
1, 144281, End_track
0, 0, End_of_file
