0, 0, Header, 0, 1, 384
1, 0, Start_track
1, 0, Tempo, 512820
1, 0, Title_t, "Klaviersonate Nr. 12 KV 331 1. S"
1, 0, Program_c, 0, 0
1, 0, Control_c, 0, 7, 100
1, 3, Control_c, 0, 10, 64
1, 3, Control_c, 0, 91, 127
1, 748, Note_on_c, 0, 71, 50
1, 748, Program_c, 0, 0
1, 748, Control_c, 0, 7, 100
1, 751, Control_c, 0, 10, 64
1, 751, Note_on_c, 0, 55, 39
1, 751, Note_on_c, 0, 62, 39
1, 754, Program_c, 0, 0
1, 1128, Note_on_c, 0, 71, 0
1, 1128, Note_on_c, 0, 74, 42
1, 1242, Note_on_c, 0, 74, 0
1, 1242, Note_on_c, 0, 72, 50
1, 1612, Note_on_c, 0, 72, 0
1, 1612, Note_on_c, 0, 71, 47
1, 1735, Note_on_c, 0, 71, 0
1, 1735, Note_on_c, 0, 69, 50
1, 1735, Note_on_c, 0, 55, 0
1, 1738, Note_on_c, 0, 54, 32
1, 2227, Note_on_c, 0, 69, 0
1, 2227, Note_on_c, 0, 71, 46
1, 2227, Note_on_c, 0, 54, 0
1, 2230, Note_on_c, 0, 55, 32
1, 2739, Note_on_c, 0, 71, 0
1, 2739, Note_on_c, 0, 72, 50
1, 2739, Note_on_c, 0, 55, 0
1, 2742, Note_on_c, 0, 62, 0
1, 2742, Note_on_c, 0, 57, 38
1, 2742, Note_on_c, 0, 62, 38
1, 3232, Note_on_c, 0, 72, 0
1, 3232, Note_on_c, 0, 74, 46
1, 3232, Note_on_c, 0, 57, 0
1, 3235, Note_on_c, 0, 54, 33
1, 3724, Note_on_c, 0, 74, 0
1, 3724, Note_on_c, 0, 72, 47
1, 3724, Note_on_c, 0, 54, 0
1, 3727, Note_on_c, 0, 55, 39
1, 3966, Note_on_c, 0, 72, 0
1, 3966, Note_on_c, 0, 71, 49
1, 4217, Note_on_c, 0, 71, 0
1, 4217, Note_on_c, 0, 69, 51
1, 4457, Note_on_c, 0, 69, 0
1, 4457, Note_on_c, 0, 67, 53
1, 4738, Note_on_c, 0, 67, 0
1, 4738, Note_on_c, 0, 67, 65
1, 4738, Note_on_c, 0, 72, 65
1, 4741, Note_on_c, 0, 55, 0
1, 4741, Note_on_c, 0, 62, 0
1, 4741, Note_on_c, 0, 52, 49
1, 4744, Note_on_c, 0, 64, 49
1, 5003, Note_on_c, 0, 72, 0
1, 5003, Note_on_c, 0, 67, 0
1, 5003, Note_on_c, 0, 64, 0
1, 5006, Note_on_c, 0, 52, 0
1, 5268, Note_on_c, 0, 71, 61
1, 5268, Note_on_c, 0, 67, 61
1, 5268, Note_on_c, 0, 50, 44
1, 5271, Note_on_c, 0, 62, 44
1, 5533, Note_on_c, 0, 67, 0
1, 5533, Note_on_c, 0, 71, 0
1, 5533, Note_on_c, 0, 62, 0
1, 5536, Note_on_c, 0, 50, 0
1, 5798, Note_on_c, 0, 76, 67
1, 5798, Note_on_c, 0, 67, 67
1, 5798, Note_on_c, 0, 60, 51
1, 5801, Note_on_c, 0, 48, 51
1, 6063, Note_on_c, 0, 67, 0
1, 6063, Note_on_c, 0, 76, 0
1, 6063, Note_on_c, 0, 48, 0
1, 6066, Note_on_c, 0, 60, 0
1, 6593, Note_on_c, 0, 74, 47
1, 6593, Note_on_c, 0, 67, 47
1, 6593, Note_on_c, 0, 59, 37
1, 6837, Note_on_c, 0, 67, 0
1, 6837, Note_on_c, 0, 74, 0
1, 6837, Note_on_c, 0, 72, 50
1, 6840, Note_on_c, 0, 59, 0
1, 6840, Note_on_c, 0, 54, 40
1, 6905, Control_c, 0, 64, 127
1, 7077, Note_on_c, 0, 72, 0
1, 7077, Note_on_c, 0, 69, 42
1, 7330, Note_on_c, 0, 69, 0
1, 7330, Note_on_c, 0, 71, 50
1, 7330, Note_on_c, 0, 54, 0
1, 7333, Note_on_c, 0, 55, 35
1, 7351, Control_c, 0, 64, 0
1, 7452, Control_c, 0, 64, 127
1, 7574, Note_on_c, 0, 71, 0
1, 7574, Note_on_c, 0, 67, 42
1, 7855, Note_on_c, 0, 67, 0
1, 7855, Note_on_c, 0, 67, 50
1, 7855, Note_on_c, 0, 71, 50
1, 7858, Note_on_c, 0, 55, 0
1, 7858, Note_on_c, 0, 50, 39
1, 7880, Control_c, 0, 64, 0
1, 8385, Note_on_c, 0, 71, 0
1, 8385, Note_on_c, 0, 67, 0
1, 8385, Note_on_c, 0, 66, 44
1, 8388, Note_on_c, 0, 69, 44
1, 8915, Note_on_c, 0, 69, 0
1, 8915, Note_on_c, 0, 66, 0
1, 8915, Control_c, 0, 91, 127
1, 8918, Note_on_c, 0, 71, 50
1, 8918, Note_on_c, 0, 50, 0
1, 8918, Note_on_c, 0, 55, 39
1, 8921, Note_on_c, 0, 62, 39
1, 9288, Note_on_c, 0, 71, 0
1, 9288, Note_on_c, 0, 74, 42
1, 9403, Note_on_c, 0, 74, 0
1, 9403, Note_on_c, 0, 72, 48
1, 9769, Note_on_c, 0, 72, 0
1, 9769, Note_on_c, 0, 71, 47
1, 9892, Note_on_c, 0, 71, 0
1, 9892, Note_on_c, 0, 69, 50
1, 9892, Note_on_c, 0, 55, 0
1, 9895, Note_on_c, 0, 54, 32
1, 10380, Note_on_c, 0, 69, 0
1, 10380, Note_on_c, 0, 71, 46
1, 10380, Note_on_c, 0, 54, 0
1, 10383, Note_on_c, 0, 55, 32
1, 10889, Note_on_c, 0, 71, 0
1, 10889, Note_on_c, 0, 72, 50
1, 10889, Note_on_c, 0, 55, 0
1, 10892, Note_on_c, 0, 62, 0
1, 10892, Note_on_c, 0, 62, 38
1, 10892, Note_on_c, 0, 57, 38
1, 11382, Note_on_c, 0, 72, 0
1, 11382, Note_on_c, 0, 76, 46
1, 11382, Note_on_c, 0, 57, 0
1, 11385, Note_on_c, 0, 54, 33
1, 11628, Note_on_c, 0, 76, 0
1, 11628, Note_on_c, 0, 74, 49
1, 11875, Note_on_c, 0, 74, 0
1, 11875, Note_on_c, 0, 72, 47
1, 11875, Note_on_c, 0, 54, 0
1, 11878, Note_on_c, 0, 55, 39
1, 12117, Note_on_c, 0, 72, 0
1, 12117, Note_on_c, 0, 71, 49
1, 12370, Note_on_c, 0, 71, 0
1, 12370, Note_on_c, 0, 69, 51
1, 12616, Note_on_c, 0, 69, 0
1, 12616, Note_on_c, 0, 67, 53
1, 12897, Note_on_c, 0, 67, 0
1, 12897, Note_on_c, 0, 67, 65
1, 12897, Note_on_c, 0, 72, 65
1, 12900, Note_on_c, 0, 55, 0
1, 12900, Note_on_c, 0, 62, 0
1, 12900, Note_on_c, 0, 52, 49
1, 12903, Note_on_c, 0, 64, 49
1, 13162, Note_on_c, 0, 72, 0
1, 13162, Note_on_c, 0, 67, 0
1, 13162, Note_on_c, 0, 64, 0
1, 13165, Note_on_c, 0, 52, 0
1, 13427, Note_on_c, 0, 71, 61
1, 13427, Note_on_c, 0, 67, 61
1, 13427, Note_on_c, 0, 62, 44
1, 13430, Note_on_c, 0, 50, 44
1, 13692, Note_on_c, 0, 67, 0
1, 13692, Note_on_c, 0, 71, 0
1, 13692, Note_on_c, 0, 50, 0
1, 13695, Note_on_c, 0, 62, 0
1, 13957, Note_on_c, 0, 76, 67
1, 13957, Note_on_c, 0, 67, 67
1, 13957, Note_on_c, 0, 48, 51
1, 13960, Note_on_c, 0, 60, 51
1, 14215, Note_on_c, 0, 76, 0
1, 14215, Note_on_c, 0, 78, 62
1, 14472, Note_on_c, 0, 78, 0
1, 14472, Note_on_c, 0, 79, 65
1, 14472, Note_on_c, 0, 60, 0
1, 14475, Note_on_c, 0, 48, 0
1, 14730, Note_on_c, 0, 79, 0
1, 14730, Note_on_c, 0, 67, 0
1, 14730, Note_on_c, 0, 72, 47
1, 14733, Note_on_c, 0, 60, 37
1, 14733, Note_on_c, 0, 64, 37
1, 14952, Note_on_c, 0, 72, 0
1, 14952, Note_on_c, 0, 64, 0
1, 14952, Note_on_c, 0, 60, 0
1, 15026, Note_on_c, 0, 71, 50
1, 15026, Note_on_c, 0, 67, 40
1, 15026, Note_on_c, 0, 62, 40
1, 15561, Note_on_c, 0, 71, 0
1, 15561, Note_on_c, 0, 69, 47
1, 15561, Note_on_c, 0, 67, 0
1, 15564, Note_on_c, 0, 66, 35
1, 15605, Control_c, 0, 64, 127
1, 15619, Note_on_c, 0, 69, 0
1, 15619, Note_on_c, 0, 71, 47
1, 15679, Note_on_c, 0, 71, 0
1, 15679, Note_on_c, 0, 69, 47
1, 15737, Note_on_c, 0, 69, 0
1, 15737, Note_on_c, 0, 71, 47
1, 15795, Note_on_c, 0, 71, 0
1, 15795, Note_on_c, 0, 69, 45
1, 15857, Note_on_c, 0, 69, 0
1, 15857, Note_on_c, 0, 71, 45
1, 15921, Note_on_c, 0, 71, 0
1, 15921, Note_on_c, 0, 69, 45
1, 15989, Note_on_c, 0, 69, 0
1, 15989, Note_on_c, 0, 67, 45
1, 16069, Note_on_c, 0, 67, 0
1, 16069, Note_on_c, 0, 69, 50
1, 16158, Note_on_c, 0, 69, 0
1, 16158, Note_on_c, 0, 67, 45
1, 16158, Note_on_c, 0, 66, 0
1, 16161, Note_on_c, 0, 62, 0
1, 16161, Note_on_c, 0, 55, 39
1, 16173, Control_c, 0, 64, 0
1, 16232, Control_c, 0, 64, 127
1, 16418, Note_on_c, 0, 59, 28
1, 16673, Note_on_c, 0, 59, 0
1, 16673, Note_on_c, 0, 62, 32
1, 16920, Note_on_c, 0, 62, 0
1, 16920, Note_on_c, 0, 59, 27
1, 17180, Note_on_c, 0, 67, 0
1, 17180, Note_on_c, 0, 71, 45
1, 17180, Note_on_c, 0, 59, 0
1, 17183, Note_on_c, 0, 55, 0
1, 17183, Note_on_c, 0, 48, 39
1, 17183, Control_c, 0, 64, 0
1, 17415, Control_c, 0, 64, 127
1, 17429, Note_on_c, 0, 52, 27
1, 17676, Note_on_c, 0, 71, 0
1, 17676, Note_on_c, 0, 69, 45
1, 17676, Note_on_c, 0, 52, 0
1, 17679, Note_on_c, 0, 57, 32
1, 17922, Note_on_c, 0, 57, 0
1, 17922, Note_on_c, 0, 52, 28
1, 18175, Note_on_c, 0, 69, 0
1, 18175, Note_on_c, 0, 67, 45
1, 18175, Note_on_c, 0, 52, 0
1, 18178, Note_on_c, 0, 48, 0
1, 18178, Note_on_c, 0, 50, 39
1, 18200, Control_c, 0, 64, 0
1, 18346, Control_c, 0, 64, 127
1, 18419, Note_on_c, 0, 67, 0
1, 18419, Note_on_c, 0, 66, 41
1, 18419, Note_on_c, 0, 60, 29
1, 18664, Note_on_c, 0, 66, 0
1, 18664, Note_on_c, 0, 66, 45
1, 18664, Note_on_c, 0, 60, 0
1, 18667, Note_on_c, 0, 57, 32
1, 18908, Note_on_c, 0, 66, 0
1, 18908, Note_on_c, 0, 62, 41
1, 18908, Note_on_c, 0, 57, 0
1, 18911, Note_on_c, 0, 60, 29
1, 19170, Note_on_c, 0, 62, 0
1, 19170, Note_on_c, 0, 71, 51
1, 19170, Note_on_c, 0, 60, 0
1, 19173, Note_on_c, 0, 50, 0
1, 19173, Note_on_c, 0, 55, 39
1, 19173, Control_c, 0, 64, 0
1, 19266, Control_c, 0, 64, 127
1, 19415, Note_on_c, 0, 59, 29
1, 19659, Note_on_c, 0, 59, 0
1, 19659, Note_on_c, 0, 62, 32
1, 19903, Note_on_c, 0, 62, 0
1, 19903, Note_on_c, 0, 59, 29
1, 20158, Note_on_c, 0, 71, 0
1, 20158, Note_on_c, 0, 67, 45
1, 20158, Note_on_c, 0, 59, 0
1, 20161, Note_on_c, 0, 55, 0
1, 20161, Note_on_c, 0, 52, 39
1, 20189, Control_c, 0, 64, 0
1, 20287, Control_c, 0, 64, 127
1, 20403, Note_on_c, 0, 55, 29
1, 20647, Note_on_c, 0, 67, 0
1, 20647, Note_on_c, 0, 67, 44
1, 20647, Note_on_c, 0, 55, 0
1, 20650, Note_on_c, 0, 59, 32
1, 20700, Note_on_c, 0, 67, 0
1, 20700, Note_on_c, 0, 69, 40
1, 20755, Note_on_c, 0, 69, 0
1, 20755, Note_on_c, 0, 67, 44
1, 20808, Note_on_c, 0, 67, 0
1, 20808, Note_on_c, 0, 69, 39
1, 20861, Note_on_c, 0, 69, 0
1, 20861, Note_on_c, 0, 67, 45
1, 20891, Note_on_c, 0, 59, 0
1, 20891, Note_on_c, 0, 55, 30
1, 20915, Note_on_c, 0, 67, 0
1, 20915, Note_on_c, 0, 69, 41
1, 20968, Note_on_c, 0, 69, 0
1, 20968, Note_on_c, 0, 67, 45
1, 21026, Note_on_c, 0, 67, 0
1, 21026, Note_on_c, 0, 66, 48
1, 21095, Note_on_c, 0, 66, 0
1, 21095, Note_on_c, 0, 67, 42
1, 21171, Note_on_c, 0, 67, 0
1, 21171, Note_on_c, 0, 71, 45
1, 21171, Note_on_c, 0, 55, 0
1, 21174, Note_on_c, 0, 52, 0
1, 21174, Note_on_c, 0, 48, 39
1, 21181, Control_c, 0, 64, 0
1, 21270, Control_c, 0, 64, 127
1, 21417, Note_on_c, 0, 71, 0
1, 21417, Note_on_c, 0, 69, 45
1, 21417, Note_on_c, 0, 52, 29
1, 21664, Note_on_c, 0, 69, 0
1, 21664, Note_on_c, 0, 69, 45
1, 21664, Note_on_c, 0, 52, 0
1, 21667, Note_on_c, 0, 57, 32
1, 21910, Note_on_c, 0, 57, 0
1, 21910, Note_on_c, 0, 52, 29
1, 22163, Note_on_c, 0, 69, 0
1, 22163, Note_on_c, 0, 67, 45
1, 22163, Note_on_c, 0, 52, 0
1, 22166, Note_on_c, 0, 48, 0
1, 22166, Note_on_c, 0, 50, 39
1, 22183, Control_c, 0, 64, 0
1, 22277, Control_c, 0, 64, 127
1, 22407, Note_on_c, 0, 67, 0
1, 22407, Note_on_c, 0, 66, 41
1, 22407, Note_on_c, 0, 60, 30
1, 22652, Note_on_c, 0, 66, 0
1, 22652, Note_on_c, 0, 66, 45
1, 22652, Note_on_c, 0, 60, 0
1, 22655, Note_on_c, 0, 57, 32
1, 22896, Note_on_c, 0, 66, 0
1, 22896, Note_on_c, 0, 62, 41
1, 22896, Note_on_c, 0, 57, 0
1, 22899, Note_on_c, 0, 60, 29
1, 23188, Note_on_c, 0, 62, 0
1, 23188, Note_on_c, 0, 71, 47
1, 23188, Control_c, 0, 91, 127
1, 23191, Note_on_c, 0, 60, 0
1, 23191, Note_on_c, 0, 50, 0
1, 23191, Note_on_c, 0, 55, 39
1, 23194, Note_on_c, 0, 62, 39
1, 23194, Control_c, 0, 64, 0
1, 23568, Note_on_c, 0, 71, 0
1, 23568, Note_on_c, 0, 74, 42
1, 23682, Note_on_c, 0, 74, 0
1, 23682, Note_on_c, 0, 72, 50
1, 24052, Note_on_c, 0, 72, 0
1, 24052, Note_on_c, 0, 71, 47
1, 24175, Note_on_c, 0, 71, 0
1, 24175, Note_on_c, 0, 69, 50
1, 24175, Note_on_c, 0, 55, 0
1, 24178, Note_on_c, 0, 54, 32
1, 24668, Note_on_c, 0, 69, 0
1, 24668, Note_on_c, 0, 71, 46
1, 24668, Note_on_c, 0, 54, 0
1, 24671, Note_on_c, 0, 55, 32
1, 25179, Note_on_c, 0, 71, 0
1, 25179, Note_on_c, 0, 72, 50
1, 25179, Note_on_c, 0, 55, 0
1, 25182, Note_on_c, 0, 62, 0
1, 25182, Note_on_c, 0, 62, 38
1, 25182, Note_on_c, 0, 57, 38
1, 25672, Note_on_c, 0, 72, 0
1, 25672, Note_on_c, 0, 74, 46
1, 25672, Note_on_c, 0, 57, 0
1, 25675, Note_on_c, 0, 54, 33
1, 26164, Note_on_c, 0, 74, 0
1, 26164, Note_on_c, 0, 72, 47
1, 26164, Note_on_c, 0, 54, 0
1, 26167, Note_on_c, 0, 55, 39
1, 26404, Note_on_c, 0, 72, 0
1, 26404, Note_on_c, 0, 71, 49
1, 26657, Note_on_c, 0, 71, 0
1, 26657, Note_on_c, 0, 69, 51
1, 26902, Note_on_c, 0, 69, 0
1, 26902, Note_on_c, 0, 67, 53
1, 27183, Note_on_c, 0, 67, 0
1, 27183, Note_on_c, 0, 67, 65
1, 27183, Note_on_c, 0, 72, 65
1, 27186, Note_on_c, 0, 55, 0
1, 27186, Note_on_c, 0, 62, 0
1, 27186, Note_on_c, 0, 64, 49
1, 27189, Note_on_c, 0, 52, 49
1, 27448, Note_on_c, 0, 72, 0
1, 27448, Note_on_c, 0, 67, 0
1, 27448, Note_on_c, 0, 52, 0
1, 27451, Note_on_c, 0, 64, 0
1, 27712, Note_on_c, 0, 71, 61
1, 27712, Note_on_c, 0, 67, 61
1, 27712, Note_on_c, 0, 50, 44
1, 27715, Note_on_c, 0, 62, 44
1, 27977, Note_on_c, 0, 67, 0
1, 27977, Note_on_c, 0, 71, 0
1, 27977, Note_on_c, 0, 62, 0
1, 27980, Note_on_c, 0, 50, 0
1, 28242, Note_on_c, 0, 76, 67
1, 28242, Note_on_c, 0, 67, 67
1, 28242, Note_on_c, 0, 60, 51
1, 28245, Note_on_c, 0, 48, 51
1, 28507, Note_on_c, 0, 67, 0
1, 28507, Note_on_c, 0, 76, 0
1, 28507, Note_on_c, 0, 48, 0
1, 28510, Note_on_c, 0, 60, 0
1, 29037, Note_on_c, 0, 67, 47
1, 29037, Note_on_c, 0, 74, 47
1, 29037, Note_on_c, 0, 59, 37
1, 29282, Note_on_c, 0, 74, 0
1, 29282, Note_on_c, 0, 67, 0
1, 29282, Note_on_c, 0, 72, 50
1, 29285, Note_on_c, 0, 59, 0
1, 29285, Note_on_c, 0, 54, 40
1, 29350, Control_c, 0, 64, 127
1, 29522, Note_on_c, 0, 72, 0
1, 29522, Note_on_c, 0, 69, 42
1, 29775, Note_on_c, 0, 69, 0
1, 29775, Note_on_c, 0, 71, 50
1, 29775, Note_on_c, 0, 54, 0
1, 29778, Note_on_c, 0, 55, 35
1, 29795, Control_c, 0, 64, 0
1, 29897, Control_c, 0, 64, 127
1, 30019, Note_on_c, 0, 71, 0
1, 30019, Note_on_c, 0, 67, 42
1, 30300, Note_on_c, 0, 67, 0
1, 30300, Note_on_c, 0, 71, 50
1, 30300, Note_on_c, 0, 67, 50
1, 30303, Note_on_c, 0, 55, 0
1, 30303, Note_on_c, 0, 50, 39
1, 30324, Control_c, 0, 64, 0
1, 30830, Note_on_c, 0, 67, 0
1, 30830, Note_on_c, 0, 71, 0
1, 30830, Note_on_c, 0, 66, 44
1, 30833, Note_on_c, 0, 69, 44
1, 31360, Note_on_c, 0, 69, 0
1, 31360, Note_on_c, 0, 66, 0
1, 31360, Control_c, 0, 91, 127
1, 31363, Note_on_c, 0, 71, 50
1, 31363, Note_on_c, 0, 50, 0
1, 31363, Note_on_c, 0, 62, 39
1, 31366, Note_on_c, 0, 55, 39
1, 31732, Note_on_c, 0, 71, 0
1, 31732, Note_on_c, 0, 74, 42
1, 31848, Note_on_c, 0, 74, 0
1, 31848, Note_on_c, 0, 72, 48
1, 32214, Note_on_c, 0, 72, 0
1, 32214, Note_on_c, 0, 71, 47
1, 32336, Note_on_c, 0, 71, 0
1, 32336, Note_on_c, 0, 69, 50
1, 32336, Note_on_c, 0, 55, 0
1, 32339, Note_on_c, 0, 54, 32
1, 32824, Note_on_c, 0, 69, 0
1, 32824, Note_on_c, 0, 71, 46
1, 32824, Note_on_c, 0, 54, 0
1, 32827, Note_on_c, 0, 55, 32
1, 33334, Note_on_c, 0, 71, 0
1, 33334, Note_on_c, 0, 72, 50
1, 33334, Note_on_c, 0, 55, 0
1, 33337, Note_on_c, 0, 62, 0
1, 33337, Note_on_c, 0, 57, 38
1, 33337, Note_on_c, 0, 62, 38
1, 33826, Note_on_c, 0, 72, 0
1, 33826, Note_on_c, 0, 76, 46
1, 33826, Note_on_c, 0, 57, 0
1, 33829, Note_on_c, 0, 54, 33
1, 34073, Note_on_c, 0, 76, 0
1, 34073, Note_on_c, 0, 74, 49
1, 34319, Note_on_c, 0, 74, 0
1, 34319, Note_on_c, 0, 72, 47
1, 34319, Note_on_c, 0, 54, 0
1, 34322, Note_on_c, 0, 55, 39
1, 34561, Note_on_c, 0, 72, 0
1, 34561, Note_on_c, 0, 71, 49
1, 34814, Note_on_c, 0, 71, 0
1, 34814, Note_on_c, 0, 69, 51
1, 35061, Note_on_c, 0, 69, 0
1, 35061, Note_on_c, 0, 67, 53
1, 35342, Note_on_c, 0, 67, 0
1, 35342, Note_on_c, 0, 67, 65
1, 35342, Note_on_c, 0, 72, 65
1, 35345, Note_on_c, 0, 55, 0
1, 35345, Note_on_c, 0, 62, 0
1, 35345, Note_on_c, 0, 64, 49
1, 35348, Note_on_c, 0, 52, 49
1, 35606, Note_on_c, 0, 72, 0
1, 35606, Note_on_c, 0, 67, 0
1, 35606, Note_on_c, 0, 52, 0
1, 35609, Note_on_c, 0, 64, 0
1, 35871, Note_on_c, 0, 67, 61
1, 35871, Note_on_c, 0, 71, 61
1, 35871, Note_on_c, 0, 62, 44
1, 35874, Note_on_c, 0, 50, 44
1, 36136, Note_on_c, 0, 71, 0
1, 36136, Note_on_c, 0, 67, 0
1, 36136, Note_on_c, 0, 50, 0
1, 36139, Note_on_c, 0, 62, 0
1, 36401, Note_on_c, 0, 76, 67
1, 36401, Note_on_c, 0, 67, 67
1, 36401, Note_on_c, 0, 48, 51
1, 36404, Note_on_c, 0, 60, 51
1, 36659, Note_on_c, 0, 76, 0
1, 36659, Note_on_c, 0, 78, 62
1, 36917, Note_on_c, 0, 78, 0
1, 36917, Note_on_c, 0, 79, 65
1, 36917, Note_on_c, 0, 60, 0
1, 36920, Note_on_c, 0, 48, 0
1, 37174, Note_on_c, 0, 79, 0
1, 37174, Note_on_c, 0, 67, 0
1, 37174, Note_on_c, 0, 72, 47
1, 37177, Note_on_c, 0, 64, 37
1, 37177, Note_on_c, 0, 60, 37
1, 37396, Note_on_c, 0, 72, 0
1, 37396, Note_on_c, 0, 60, 0
1, 37396, Note_on_c, 0, 64, 0
1, 37470, Note_on_c, 0, 71, 50
1, 37470, Note_on_c, 0, 62, 40
1, 37470, Note_on_c, 0, 67, 40
1, 38005, Note_on_c, 0, 71, 0
1, 38005, Note_on_c, 0, 69, 47
1, 38005, Note_on_c, 0, 67, 0
1, 38008, Note_on_c, 0, 66, 35
1, 38050, Control_c, 0, 64, 127
1, 38063, Note_on_c, 0, 69, 0
1, 38063, Note_on_c, 0, 71, 47
1, 38123, Note_on_c, 0, 71, 0
1, 38123, Note_on_c, 0, 69, 47
1, 38181, Note_on_c, 0, 69, 0
1, 38181, Note_on_c, 0, 71, 47
1, 38239, Note_on_c, 0, 71, 0
1, 38239, Note_on_c, 0, 69, 45
1, 38302, Note_on_c, 0, 69, 0
1, 38302, Note_on_c, 0, 71, 45
1, 38365, Note_on_c, 0, 71, 0
1, 38365, Note_on_c, 0, 69, 45
1, 38433, Note_on_c, 0, 69, 0
1, 38433, Note_on_c, 0, 67, 45
1, 38513, Note_on_c, 0, 67, 0
1, 38513, Note_on_c, 0, 69, 52
1, 38602, Note_on_c, 0, 69, 0
1, 38602, Note_on_c, 0, 67, 45
1, 38602, Note_on_c, 0, 66, 0
1, 38605, Note_on_c, 0, 62, 0
1, 38605, Note_on_c, 0, 55, 39
1, 38618, Control_c, 0, 64, 0
1, 38676, Control_c, 0, 64, 127
1, 38862, Note_on_c, 0, 59, 28
1, 39118, Note_on_c, 0, 59, 0
1, 39118, Note_on_c, 0, 62, 32
1, 39364, Note_on_c, 0, 62, 0
1, 39364, Note_on_c, 0, 59, 27
1, 39624, Note_on_c, 0, 67, 0
1, 39624, Note_on_c, 0, 71, 45
1, 39624, Note_on_c, 0, 59, 0
1, 39627, Note_on_c, 0, 55, 0
1, 39627, Note_on_c, 0, 48, 39
1, 39627, Control_c, 0, 64, 0
1, 39859, Control_c, 0, 64, 127
1, 39874, Note_on_c, 0, 52, 27
1, 40120, Note_on_c, 0, 71, 0
1, 40120, Note_on_c, 0, 69, 45
1, 40120, Note_on_c, 0, 52, 0
1, 40123, Note_on_c, 0, 57, 32
1, 40367, Note_on_c, 0, 57, 0
1, 40367, Note_on_c, 0, 52, 28
1, 40620, Note_on_c, 0, 69, 0
1, 40620, Note_on_c, 0, 67, 45
1, 40620, Note_on_c, 0, 52, 0
1, 40623, Note_on_c, 0, 48, 0
1, 40623, Note_on_c, 0, 50, 39
1, 40644, Control_c, 0, 64, 0
1, 40791, Control_c, 0, 64, 127
1, 40864, Note_on_c, 0, 67, 0
1, 40864, Note_on_c, 0, 66, 41
1, 40864, Note_on_c, 0, 60, 29
1, 41108, Note_on_c, 0, 66, 0
1, 41108, Note_on_c, 0, 66, 45
1, 41108, Note_on_c, 0, 60, 0
1, 41111, Note_on_c, 0, 57, 32
1, 41352, Note_on_c, 0, 66, 0
1, 41352, Note_on_c, 0, 62, 41
1, 41352, Note_on_c, 0, 57, 0
1, 41355, Note_on_c, 0, 60, 29
1, 41615, Note_on_c, 0, 62, 0
1, 41615, Note_on_c, 0, 71, 51
1, 41615, Note_on_c, 0, 60, 0
1, 41618, Note_on_c, 0, 50, 0
1, 41618, Note_on_c, 0, 55, 39
1, 41618, Control_c, 0, 64, 0
1, 41710, Control_c, 0, 64, 127
1, 41859, Note_on_c, 0, 59, 29
1, 42103, Note_on_c, 0, 59, 0
1, 42103, Note_on_c, 0, 62, 32
1, 42347, Note_on_c, 0, 62, 0
1, 42347, Note_on_c, 0, 59, 29
1, 42603, Note_on_c, 0, 71, 0
1, 42603, Note_on_c, 0, 67, 45
1, 42603, Note_on_c, 0, 59, 0
1, 42606, Note_on_c, 0, 55, 0
1, 42606, Note_on_c, 0, 52, 39
1, 42633, Control_c, 0, 64, 0
1, 42731, Control_c, 0, 64, 127
1, 42847, Note_on_c, 0, 55, 29
1, 43091, Note_on_c, 0, 67, 0
1, 43091, Note_on_c, 0, 67, 44
1, 43091, Note_on_c, 0, 55, 0
1, 43094, Note_on_c, 0, 59, 32
1, 43144, Note_on_c, 0, 67, 0
1, 43144, Note_on_c, 0, 69, 40
1, 43199, Note_on_c, 0, 69, 0
1, 43199, Note_on_c, 0, 67, 44
1, 43252, Note_on_c, 0, 67, 0
1, 43252, Note_on_c, 0, 69, 39
1, 43305, Note_on_c, 0, 69, 0
1, 43305, Note_on_c, 0, 67, 45
1, 43336, Note_on_c, 0, 59, 0
1, 43336, Note_on_c, 0, 55, 30
1, 43360, Note_on_c, 0, 67, 0
1, 43360, Note_on_c, 0, 69, 41
1, 43413, Note_on_c, 0, 69, 0
1, 43413, Note_on_c, 0, 67, 45
1, 43471, Note_on_c, 0, 67, 0
1, 43471, Note_on_c, 0, 66, 49
1, 43539, Note_on_c, 0, 66, 0
1, 43539, Note_on_c, 0, 67, 44
1, 43615, Note_on_c, 0, 67, 0
1, 43615, Note_on_c, 0, 71, 49
1, 43615, Note_on_c, 0, 55, 0
1, 43618, Note_on_c, 0, 52, 0
1, 43618, Note_on_c, 0, 48, 39
1, 43626, Control_c, 0, 64, 0
1, 43714, Control_c, 0, 64, 127
1, 43862, Note_on_c, 0, 71, 0
1, 43862, Note_on_c, 0, 69, 45
1, 43862, Note_on_c, 0, 52, 29
1, 44108, Note_on_c, 0, 69, 0
1, 44108, Note_on_c, 0, 69, 45
1, 44108, Note_on_c, 0, 52, 0
1, 44111, Note_on_c, 0, 57, 32
1, 44355, Note_on_c, 0, 57, 0
1, 44355, Note_on_c, 0, 52, 29
1, 44608, Note_on_c, 0, 69, 0
1, 44608, Note_on_c, 0, 67, 45
1, 44608, Note_on_c, 0, 52, 0
1, 44611, Note_on_c, 0, 48, 0
1, 44611, Note_on_c, 0, 50, 39
1, 44628, Control_c, 0, 64, 0
1, 44722, Control_c, 0, 64, 127
1, 44852, Note_on_c, 0, 67, 0
1, 44852, Note_on_c, 0, 66, 41
1, 44852, Note_on_c, 0, 60, 30
1, 45096, Note_on_c, 0, 66, 0
1, 45096, Note_on_c, 0, 66, 45
1, 45096, Note_on_c, 0, 60, 0
1, 45099, Note_on_c, 0, 57, 32
1, 45340, Note_on_c, 0, 66, 0
1, 45340, Note_on_c, 0, 62, 41
1, 45340, Note_on_c, 0, 57, 0
1, 45343, Note_on_c, 0, 60, 29
1, 45603, Note_on_c, 0, 62, 0
1, 45603, Note_on_c, 0, 67, 45
1, 45603, Note_on_c, 0, 60, 0
1, 45606, Note_on_c, 0, 50, 0
1, 45606, Note_on_c, 0, 59, 39
1, 45606, Note_on_c, 0, 55, 33
1, 45609, Control_c, 0, 64, 0
1, 46588, Note_on_c, 0, 67, 0
1, 46588, Note_on_c, 0, 63, 47
1, 46588, Note_on_c, 0, 55, 0
1, 46591, Note_on_c, 0, 59, 0
1, 46591, Note_on_c, 0, 57, 38
1, 46591, Note_on_c, 0, 54, 32
1, 46594, Note_on_c, 0, 47, 32
1, 47081, Note_on_c, 0, 63, 0
1, 47081, Note_on_c, 0, 63, 47
1, 47081, Note_on_c, 0, 47, 0
1, 47084, Note_on_c, 0, 54, 0
1, 47084, Note_on_c, 0, 57, 0
1, 47084, Note_on_c, 0, 47, 32
1, 47087, Note_on_c, 0, 57, 38
1, 47087, Note_on_c, 0, 54, 32
1, 47584, Note_on_c, 0, 63, 0
1, 47584, Note_on_c, 0, 64, 49
1, 47584, Note_on_c, 0, 54, 0
1, 47587, Note_on_c, 0, 57, 0
1, 47587, Note_on_c, 0, 47, 0
1, 47587, Note_on_c, 0, 55, 41
1, 47590, Note_on_c, 0, 52, 34
1, 47830, Note_on_c, 0, 64, 0
1, 47830, Note_on_c, 0, 66, 44
1, 48076, Note_on_c, 0, 66, 0
1, 48076, Note_on_c, 0, 67, 49
1, 48319, Note_on_c, 0, 67, 0
1, 48319, Note_on_c, 0, 64, 43
1, 48571, Note_on_c, 0, 64, 0
1, 48571, Note_on_c, 0, 62, 49
1, 48571, Note_on_c, 0, 52, 0
1, 48574, Note_on_c, 0, 55, 0
1, 48574, Note_on_c, 0, 55, 37
1, 48574, Note_on_c, 0, 45, 31
1, 48577, Note_on_c, 0, 52, 31
1, 48815, Note_on_c, 0, 62, 0
1, 48815, Note_on_c, 0, 61, 45
1, 49059, Note_on_c, 0, 61, 0
1, 49059, Note_on_c, 0, 61, 50
1, 49059, Note_on_c, 0, 52, 0
1, 49062, Note_on_c, 0, 45, 0
1, 49062, Note_on_c, 0, 55, 0
1, 49062, Note_on_c, 0, 55, 42
1, 49065, Note_on_c, 0, 52, 35
1, 49065, Note_on_c, 0, 45, 35
1, 49303, Note_on_c, 0, 61, 0
1, 49303, Note_on_c, 0, 57, 46
1, 49559, Note_on_c, 0, 57, 0
1, 49559, Note_on_c, 0, 69, 61
1, 49559, Note_on_c, 0, 45, 0
1, 49562, Note_on_c, 0, 52, 0
1, 49562, Note_on_c, 0, 55, 0
1, 49562, Note_on_c, 0, 50, 37
1, 49565, Note_on_c, 0, 54, 44
1, 50536, Note_on_c, 0, 69, 0
1, 50536, Note_on_c, 0, 74, 69
1, 50536, Note_on_c, 0, 68, 58
1, 50539, Note_on_c, 0, 62, 58
1, 50539, Note_on_c, 0, 54, 0
1, 50539, Note_on_c, 0, 50, 0
1, 50542, Note_on_c, 0, 47, 51
1, 50542, Note_on_c, 0, 59, 61
1, 50698, Control_c, 0, 64, 127
1, 51024, Note_on_c, 0, 62, 0
1, 51024, Note_on_c, 0, 68, 0
1, 51024, Note_on_c, 0, 74, 0
1, 51027, Note_on_c, 0, 68, 56
1, 51027, Note_on_c, 0, 74, 66
1, 51027, Note_on_c, 0, 62, 56
1, 51030, Note_on_c, 0, 59, 0
1, 51030, Note_on_c, 0, 47, 0
1, 51030, Note_on_c, 0, 47, 48
1, 51033, Note_on_c, 0, 59, 57
1, 51513, Note_on_c, 0, 62, 0
1, 51513, Note_on_c, 0, 74, 0
1, 51513, Note_on_c, 0, 68, 0
1, 51516, Note_on_c, 0, 68, 59
1, 51516, Note_on_c, 0, 74, 70
1, 51516, Note_on_c, 0, 62, 59
1, 51519, Note_on_c, 0, 59, 0
1, 51519, Note_on_c, 0, 47, 0
1, 51519, Note_on_c, 0, 47, 51
1, 51522, Note_on_c, 0, 59, 61
1, 52301, Control_c, 0, 64, 0
1, 52423, Note_on_c, 0, 62, 0
1, 52423, Note_on_c, 0, 74, 0
1, 52423, Note_on_c, 0, 68, 0
1, 52426, Note_on_c, 0, 59, 0
1, 52426, Note_on_c, 0, 47, 0
1, 52525, Note_on_c, 0, 73, 40
1, 52525, Note_on_c, 0, 81, 48
1, 52525, Note_on_c, 0, 64, 37
1, 52528, Note_on_c, 0, 57, 31
1, 52915, Note_on_c, 0, 81, 0
1, 52915, Note_on_c, 0, 73, 0
1, 52915, Note_on_c, 0, 57, 0
1, 52918, Note_on_c, 0, 64, 0
1, 53013, Note_on_c, 0, 81, 45
1, 53013, Note_on_c, 0, 73, 38
1, 53013, Note_on_c, 0, 64, 35
1, 53016, Note_on_c, 0, 57, 29
1, 53404, Note_on_c, 0, 73, 0
1, 53404, Note_on_c, 0, 81, 0
1, 53404, Note_on_c, 0, 57, 0
1, 53407, Note_on_c, 0, 64, 0
1, 53502, Note_on_c, 0, 81, 48
1, 53502, Note_on_c, 0, 73, 40
1, 53502, Note_on_c, 0, 57, 31
1, 53505, Note_on_c, 0, 64, 37
1, 54478, Note_on_c, 0, 73, 0
1, 54478, Note_on_c, 0, 81, 0
1, 54478, Note_on_c, 0, 64, 0
1, 54481, Note_on_c, 0, 57, 0
1, 54967, Note_on_c, 0, 78, 48
1, 54979, Control_c, 0, 64, 127
1, 55025, Note_on_c, 0, 78, 0
1, 55025, Note_on_c, 0, 79, 44
1, 55083, Note_on_c, 0, 79, 0
1, 55083, Note_on_c, 0, 78, 48
1, 55141, Note_on_c, 0, 78, 0
1, 55141, Note_on_c, 0, 76, 44
1, 55199, Note_on_c, 0, 76, 0
1, 55199, Note_on_c, 0, 78, 50
1, 55315, Note_on_c, 0, 78, 0
1, 55315, Note_on_c, 0, 79, 45
1, 55440, Note_on_c, 0, 79, 0
1, 55440, Note_on_c, 0, 81, 54
1, 55440, Note_on_c, 0, 62, 34
1, 55477, Control_c, 0, 64, 0
1, 55558, Control_c, 0, 64, 127
1, 55685, Note_on_c, 0, 62, 0
1, 55685, Note_on_c, 0, 66, 29
1, 55929, Note_on_c, 0, 81, 0
1, 55929, Note_on_c, 0, 81, 48
1, 55929, Note_on_c, 0, 66, 0
1, 55932, Note_on_c, 0, 69, 29
1, 56173, Note_on_c, 0, 69, 0
1, 56173, Note_on_c, 0, 66, 29
1, 56417, Note_on_c, 0, 66, 0
1, 56417, Note_on_c, 0, 62, 34
1, 56434, Control_c, 0, 64, 0
1, 56460, Control_c, 0, 64, 127
1, 56662, Note_on_c, 0, 81, 0
1, 56662, Note_on_c, 0, 81, 48
1, 56662, Note_on_c, 0, 62, 0
1, 56665, Note_on_c, 0, 66, 30
1, 56902, Note_on_c, 0, 81, 0
1, 56902, Note_on_c, 0, 81, 50
1, 56902, Note_on_c, 0, 66, 0
1, 56905, Note_on_c, 0, 69, 30
1, 56961, Note_on_c, 0, 81, 0
1, 56961, Note_on_c, 0, 83, 44
1, 57020, Note_on_c, 0, 83, 0
1, 57020, Note_on_c, 0, 81, 46
1, 57079, Note_on_c, 0, 81, 0
1, 57079, Note_on_c, 0, 80, 46
1, 57138, Note_on_c, 0, 80, 0
1, 57138, Note_on_c, 0, 81, 53
1, 57138, Note_on_c, 0, 69, 0
1, 57141, Note_on_c, 0, 66, 30
1, 57265, Note_on_c, 0, 81, 0
1, 57265, Note_on_c, 0, 83, 43
1, 57393, Note_on_c, 0, 83, 0
1, 57393, Note_on_c, 0, 81, 53
1, 57393, Note_on_c, 0, 66, 0
1, 57396, Note_on_c, 0, 62, 34
1, 57428, Control_c, 0, 64, 0
1, 57501, Control_c, 0, 64, 127
1, 57637, Note_on_c, 0, 81, 0
1, 57637, Note_on_c, 0, 79, 48
1, 57637, Note_on_c, 0, 62, 0
1, 57640, Note_on_c, 0, 64, 31
1, 57882, Note_on_c, 0, 79, 0
1, 57882, Note_on_c, 0, 79, 48
1, 57882, Note_on_c, 0, 64, 0
1, 57885, Note_on_c, 0, 71, 31
1, 58126, Note_on_c, 0, 71, 0
1, 58126, Note_on_c, 0, 64, 31
1, 58370, Note_on_c, 0, 64, 0
1, 58370, Note_on_c, 0, 62, 34
1, 58370, Control_c, 0, 64, 0
1, 58614, Note_on_c, 0, 79, 0
1, 58614, Note_on_c, 0, 79, 45
1, 58614, Note_on_c, 0, 62, 0
1, 58617, Note_on_c, 0, 64, 30
1, 58736, Note_on_c, 0, 79, 0
1, 58858, Note_on_c, 0, 78, 49
1, 58858, Note_on_c, 0, 64, 0
1, 58858, Note_on_c, 0, 71, 30
1, 58981, Note_on_c, 0, 78, 0
1, 59103, Note_on_c, 0, 76, 45
1, 59103, Note_on_c, 0, 71, 0
1, 59103, Note_on_c, 0, 64, 30
1, 59234, Note_on_c, 0, 76, 0
1, 59365, Note_on_c, 0, 76, 51
1, 59365, Note_on_c, 0, 64, 0
1, 59365, Note_on_c, 0, 61, 34
1, 59385, Control_c, 0, 64, 127
1, 59609, Note_on_c, 0, 76, 0
1, 59609, Note_on_c, 0, 81, 46
1, 59609, Note_on_c, 0, 61, 0
1, 59612, Note_on_c, 0, 64, 31
1, 59854, Note_on_c, 0, 81, 0
1, 59854, Note_on_c, 0, 81, 46
1, 59854, Note_on_c, 0, 64, 0
1, 59857, Note_on_c, 0, 69, 31
1, 60098, Note_on_c, 0, 69, 0
1, 60098, Note_on_c, 0, 64, 31
1, 60342, Note_on_c, 0, 64, 0
1, 60342, Note_on_c, 0, 59, 34
1, 60364, Control_c, 0, 64, 0
1, 60447, Control_c, 0, 64, 127
1, 60600, Note_on_c, 0, 81, 0
1, 60600, Note_on_c, 0, 83, 48
1, 60600, Note_on_c, 0, 59, 0
1, 60603, Note_on_c, 0, 62, 31
1, 60721, Note_on_c, 0, 83, 0
1, 60721, Note_on_c, 0, 81, 44
1, 60842, Note_on_c, 0, 81, 0
1, 60842, Note_on_c, 0, 81, 48
1, 60842, Note_on_c, 0, 62, 0
1, 60845, Note_on_c, 0, 67, 31
1, 60963, Note_on_c, 0, 81, 0
1, 60963, Note_on_c, 0, 79, 44
1, 61084, Note_on_c, 0, 79, 0
1, 61084, Note_on_c, 0, 78, 44
1, 61084, Note_on_c, 0, 67, 0
1, 61087, Note_on_c, 0, 62, 28
1, 61205, Note_on_c, 0, 78, 0
1, 61205, Note_on_c, 0, 79, 44
1, 61351, Note_on_c, 0, 79, 0
1, 61351, Note_on_c, 0, 79, 49
1, 61351, Note_on_c, 0, 62, 0
1, 61354, Note_on_c, 0, 58, 31
1, 61354, Control_c, 0, 64, 0
1, 61456, Control_c, 0, 64, 127
1, 61602, Note_on_c, 0, 79, 0
1, 61602, Note_on_c, 0, 78, 45
1, 61602, Note_on_c, 0, 58, 0
1, 61605, Note_on_c, 0, 61, 32
1, 61844, Note_on_c, 0, 78, 0
1, 61844, Note_on_c, 0, 78, 48
1, 61844, Note_on_c, 0, 61, 0
1, 61847, Note_on_c, 0, 64, 32
1, 62086, Note_on_c, 0, 64, 0
1, 62086, Note_on_c, 0, 58, 32
1, 62328, Note_on_c, 0, 58, 0
1, 62328, Note_on_c, 0, 59, 34
1, 62367, Control_c, 0, 64, 0
1, 62465, Control_c, 0, 64, 127
1, 62472, Note_on_c, 0, 78, 0
1, 62472, Note_on_c, 0, 78, 44
1, 62530, Note_on_c, 0, 78, 0
1, 62530, Note_on_c, 0, 79, 44
1, 62588, Note_on_c, 0, 79, 0
1, 62588, Note_on_c, 0, 81, 48
1, 62588, Note_on_c, 0, 59, 0
1, 62591, Note_on_c, 0, 66, 32
1, 62710, Note_on_c, 0, 81, 0
1, 62806, Control_c, 0, 64, 0
1, 62832, Note_on_c, 0, 79, 46
1, 62832, Note_on_c, 0, 66, 0
1, 62832, Note_on_c, 0, 57, 32
1, 62954, Note_on_c, 0, 79, 0
1, 63076, Note_on_c, 0, 78, 46
1, 63076, Note_on_c, 0, 57, 0
1, 63076, Note_on_c, 0, 62, 32
1, 63207, Note_on_c, 0, 78, 0
1, 63339, Note_on_c, 0, 78, 51
1, 63339, Note_on_c, 0, 62, 0
1, 63339, Note_on_c, 0, 56, 34
1, 63353, Control_c, 0, 64, 127
1, 63583, Note_on_c, 0, 78, 0
1, 63583, Note_on_c, 0, 76, 46
1, 63583, Note_on_c, 0, 56, 0
1, 63586, Note_on_c, 0, 59, 27
1, 63827, Note_on_c, 0, 76, 0
1, 63827, Note_on_c, 0, 76, 46
1, 63827, Note_on_c, 0, 59, 0
1, 63830, Note_on_c, 0, 62, 31
1, 63949, Note_on_c, 0, 76, 0
1, 64071, Note_on_c, 0, 76, 48
1, 64071, Note_on_c, 0, 62, 0
1, 64071, Note_on_c, 0, 59, 28
1, 64194, Note_on_c, 0, 76, 0
1, 64316, Note_on_c, 0, 76, 48
1, 64316, Note_on_c, 0, 59, 0
1, 64316, Note_on_c, 0, 56, 34
1, 64336, Control_c, 0, 64, 0
1, 64444, Control_c, 0, 64, 127
1, 64560, Note_on_c, 0, 56, 0
1, 64560, Note_on_c, 0, 59, 29
1, 64804, Note_on_c, 0, 76, 0
1, 64804, Note_on_c, 0, 76, 48
1, 64804, Note_on_c, 0, 59, 0
1, 64807, Note_on_c, 0, 62, 32
1, 65048, Note_on_c, 0, 80, 48
1, 65048, Note_on_c, 0, 62, 0
1, 65048, Note_on_c, 0, 59, 29
1, 65133, Note_on_c, 0, 80, 0
1, 65133, Note_on_c, 0, 81, 48
1, 65176, Note_on_c, 0, 76, 0
1, 65224, Note_on_c, 0, 81, 0
1, 65224, Note_on_c, 0, 83, 48
1, 65319, Note_on_c, 0, 83, 0
1, 65319, Note_on_c, 0, 81, 53
1, 65319, Note_on_c, 0, 59, 0
1, 65322, Note_on_c, 0, 55, 34
1, 65322, Control_c, 0, 64, 0
1, 65399, Control_c, 0, 64, 127
1, 65564, Note_on_c, 0, 55, 0
1, 65564, Note_on_c, 0, 61, 26
1, 65808, Note_on_c, 0, 61, 0
1, 65808, Note_on_c, 0, 64, 29
1, 66052, Note_on_c, 0, 64, 0
1, 66052, Note_on_c, 0, 55, 25
1, 66307, Note_on_c, 0, 55, 0
1, 66307, Note_on_c, 0, 54, 34
1, 66330, Control_c, 0, 64, 0
1, 66401, Control_c, 0, 64, 127
1, 66552, Note_on_c, 0, 81, 0
1, 66552, Note_on_c, 0, 83, 52
1, 66552, Note_on_c, 0, 54, 0
1, 66555, Note_on_c, 0, 62, 26
1, 66674, Note_on_c, 0, 83, 0
1, 66674, Note_on_c, 0, 81, 48
1, 66796, Note_on_c, 0, 81, 0
1, 66796, Note_on_c, 0, 79, 51
1, 66796, Note_on_c, 0, 62, 0
1, 66799, Note_on_c, 0, 59, 29
1, 67040, Note_on_c, 0, 79, 0
1, 67040, Note_on_c, 0, 78, 48
1, 67040, Note_on_c, 0, 59, 0
1, 67043, Note_on_c, 0, 57, 26
1, 67293, Note_on_c, 0, 78, 0
1, 67293, Note_on_c, 0, 78, 53
1, 67293, Note_on_c, 0, 57, 0
1, 67296, Note_on_c, 0, 59, 33
1, 67296, Note_on_c, 0, 55, 33
1, 67296, Control_c, 0, 64, 0
1, 67537, Note_on_c, 0, 78, 0
1, 67537, Note_on_c, 0, 76, 45
1, 67781, Note_on_c, 0, 76, 0
1, 67781, Note_on_c, 0, 75, 50
1, 68026, Note_on_c, 0, 75, 0
1, 68026, Note_on_c, 0, 76, 45
1, 68270, Note_on_c, 0, 76, 0
1, 68270, Note_on_c, 0, 78, 48
1, 68514, Note_on_c, 0, 78, 0
1, 68514, Note_on_c, 0, 79, 44
1, 68758, Note_on_c, 0, 79, 0
1, 68758, Note_on_c, 0, 71, 42
1, 68758, Note_on_c, 0, 55, 0
1, 68761, Note_on_c, 0, 59, 0
1, 68761, Note_on_c, 0, 64, 32
1, 68761, Note_on_c, 0, 56, 32
1, 69003, Note_on_c, 0, 71, 0
1, 69003, Note_on_c, 0, 76, 42
1, 69247, Note_on_c, 0, 76, 0
1, 69247, Note_on_c, 0, 74, 48
1, 69247, Note_on_c, 0, 56, 0
1, 69250, Note_on_c, 0, 64, 0
1, 69250, Note_on_c, 0, 64, 35
1, 69250, Note_on_c, 0, 57, 35
1, 69491, Note_on_c, 0, 74, 0
1, 69491, Note_on_c, 0, 73, 45
1, 69735, Note_on_c, 0, 73, 0
1, 69735, Note_on_c, 0, 71, 41
1, 69980, Note_on_c, 0, 71, 0
1, 69980, Note_on_c, 0, 69, 41
1, 70224, Note_on_c, 0, 69, 0
1, 70224, Note_on_c, 0, 71, 42
1, 70224, Note_on_c, 0, 57, 0
1, 70227, Note_on_c, 0, 64, 0
1, 70468, Note_on_c, 0, 71, 0
1, 70468, Note_on_c, 0, 73, 44
1, 70712, Note_on_c, 0, 73, 0
1, 70712, Note_on_c, 0, 74, 47
1, 70956, Note_on_c, 0, 74, 0
1, 70956, Note_on_c, 0, 76, 49
1, 71201, Note_on_c, 0, 76, 0
1, 71201, Note_on_c, 0, 78, 50
1, 71201, Note_on_c, 0, 74, 36
1, 71207, Control_c, 0, 64, 127
1, 71454, Note_on_c, 0, 74, 0
1, 71454, Note_on_c, 0, 69, 29
1, 71580, Note_on_c, 0, 78, 0
1, 71580, Note_on_c, 0, 81, 42
1, 71694, Note_on_c, 0, 81, 0
1, 71694, Note_on_c, 0, 79, 50
1, 71694, Note_on_c, 0, 69, 0
1, 71697, Note_on_c, 0, 74, 33
1, 71715, Control_c, 0, 64, 0
1, 71752, Control_c, 0, 64, 127
1, 71941, Note_on_c, 0, 74, 0
1, 71941, Note_on_c, 0, 69, 29
1, 72064, Note_on_c, 0, 79, 0
1, 72064, Note_on_c, 0, 78, 47
1, 72187, Note_on_c, 0, 78, 0
1, 72187, Note_on_c, 0, 76, 50
1, 72187, Note_on_c, 0, 69, 0
1, 72190, Note_on_c, 0, 73, 36
1, 72212, Control_c, 0, 64, 0
1, 72286, Control_c, 0, 64, 127
1, 72433, Note_on_c, 0, 73, 0
1, 72433, Note_on_c, 0, 69, 28
1, 72680, Note_on_c, 0, 76, 0
1, 72680, Note_on_c, 0, 78, 46
1, 72680, Note_on_c, 0, 69, 0
1, 72683, Note_on_c, 0, 74, 32
1, 72686, Control_c, 0, 64, 0
1, 72752, Control_c, 0, 64, 127
1, 72926, Note_on_c, 0, 74, 0
1, 72926, Note_on_c, 0, 69, 28
1, 73191, Note_on_c, 0, 78, 0
1, 73191, Note_on_c, 0, 79, 50
1, 73191, Note_on_c, 0, 69, 0
1, 73194, Note_on_c, 0, 76, 36
1, 73220, Control_c, 0, 64, 0
1, 73355, Control_c, 0, 64, 127
1, 73438, Note_on_c, 0, 76, 0
1, 73438, Note_on_c, 0, 69, 28
1, 73684, Note_on_c, 0, 79, 0
1, 73684, Note_on_c, 0, 81, 46
1, 73684, Note_on_c, 0, 69, 0
1, 73687, Note_on_c, 0, 73, 31
1, 73696, Control_c, 0, 64, 0
1, 73776, Control_c, 0, 64, 127
1, 73930, Note_on_c, 0, 73, 0
1, 73930, Note_on_c, 0, 69, 28
1, 74177, Note_on_c, 0, 81, 0
1, 74177, Note_on_c, 0, 79, 47
1, 74177, Note_on_c, 0, 69, 0
1, 74180, Note_on_c, 0, 74, 36
1, 74211, Control_c, 0, 64, 0
1, 74375, Control_c, 0, 64, 127
1, 74422, Note_on_c, 0, 74, 0
1, 74422, Note_on_c, 0, 69, 29
1, 74669, Note_on_c, 0, 79, 0
1, 74669, Note_on_c, 0, 78, 51
1, 74669, Note_on_c, 0, 69, 0
1, 74672, Note_on_c, 0, 74, 33
1, 74683, Control_c, 0, 64, 0
1, 74821, Control_c, 0, 64, 127
1, 74915, Note_on_c, 0, 74, 0
1, 74915, Note_on_c, 0, 69, 29
1, 75196, Note_on_c, 0, 78, 0
1, 75196, Note_on_c, 0, 81, 45
1, 75196, Note_on_c, 0, 69, 0
1, 75199, Note_on_c, 0, 62, 38
1, 75199, Note_on_c, 0, 66, 45
1, 75199, Control_c, 0, 64, 0
1, 75259, Note_on_c, 0, 81, 0
1, 75259, Note_on_c, 0, 83, 40
1, 75282, Control_c, 0, 64, 127
1, 75322, Note_on_c, 0, 83, 0
1, 75322, Note_on_c, 0, 81, 45
1, 75386, Note_on_c, 0, 81, 0
1, 75386, Note_on_c, 0, 83, 41
1, 75449, Note_on_c, 0, 83, 0
1, 75449, Note_on_c, 0, 81, 45
1, 75512, Note_on_c, 0, 81, 0
1, 75512, Note_on_c, 0, 83, 40
1, 75576, Note_on_c, 0, 83, 0
1, 75576, Note_on_c, 0, 81, 45
1, 75633, Note_on_c, 0, 81, 0
1, 75633, Note_on_c, 0, 83, 39
1, 75690, Note_on_c, 0, 83, 0
1, 75690, Note_on_c, 0, 81, 45
1, 75690, Note_on_c, 0, 66, 0
1, 75693, Note_on_c, 0, 62, 0
1, 75693, Note_on_c, 0, 64, 38
1, 75693, Note_on_c, 0, 67, 45
1, 75698, Control_c, 0, 64, 0
1, 75751, Note_on_c, 0, 81, 0
1, 75751, Note_on_c, 0, 83, 40
1, 75751, Control_c, 0, 64, 127
1, 75811, Note_on_c, 0, 83, 0
1, 75811, Note_on_c, 0, 81, 45
1, 75871, Note_on_c, 0, 81, 0
1, 75871, Note_on_c, 0, 83, 40
1, 75932, Note_on_c, 0, 83, 0
1, 75932, Note_on_c, 0, 81, 45
1, 75993, Note_on_c, 0, 81, 0
1, 75993, Note_on_c, 0, 83, 40
1, 76054, Note_on_c, 0, 83, 0
1, 76054, Note_on_c, 0, 81, 45
1, 76054, Note_on_c, 0, 67, 0
1, 76057, Note_on_c, 0, 64, 0
1, 76057, Note_on_c, 0, 62, 35
1, 76057, Note_on_c, 0, 66, 42
1, 76115, Note_on_c, 0, 81, 0
1, 76115, Note_on_c, 0, 83, 41
1, 76175, Note_on_c, 0, 83, 0
1, 76175, Note_on_c, 0, 81, 45
1, 76175, Note_on_c, 0, 66, 0
1, 76178, Note_on_c, 0, 62, 0
1, 76178, Note_on_c, 0, 61, 38
1, 76178, Note_on_c, 0, 64, 45
1, 76194, Control_c, 0, 64, 0
1, 76237, Note_on_c, 0, 81, 0
1, 76237, Note_on_c, 0, 83, 40
1, 76265, Control_c, 0, 64, 127
1, 76298, Note_on_c, 0, 83, 0
1, 76298, Note_on_c, 0, 81, 45
1, 76360, Note_on_c, 0, 81, 0
1, 76360, Note_on_c, 0, 83, 40
1, 76420, Note_on_c, 0, 83, 0
1, 76420, Note_on_c, 0, 81, 45
1, 76479, Note_on_c, 0, 81, 0
1, 76479, Note_on_c, 0, 83, 41
1, 76539, Note_on_c, 0, 83, 0
1, 76539, Note_on_c, 0, 81, 45
1, 76599, Note_on_c, 0, 81, 0
1, 76599, Note_on_c, 0, 83, 40
1, 76660, Note_on_c, 0, 83, 0
1, 76660, Note_on_c, 0, 81, 45
1, 76660, Note_on_c, 0, 64, 0
1, 76663, Note_on_c, 0, 61, 0
1, 76663, Note_on_c, 0, 62, 34
1, 76663, Note_on_c, 0, 66, 41
1, 76688, Control_c, 0, 64, 0
1, 76721, Note_on_c, 0, 81, 0
1, 76721, Note_on_c, 0, 83, 40
1, 76767, Control_c, 0, 64, 127
1, 76781, Note_on_c, 0, 83, 0
1, 76781, Note_on_c, 0, 81, 45
1, 76842, Note_on_c, 0, 81, 0
1, 76842, Note_on_c, 0, 83, 41
1, 76902, Note_on_c, 0, 83, 0
1, 76902, Note_on_c, 0, 81, 45
1, 76963, Note_on_c, 0, 81, 0
1, 76963, Note_on_c, 0, 83, 40
1, 77025, Note_on_c, 0, 83, 0
1, 77025, Note_on_c, 0, 81, 45
1, 77088, Note_on_c, 0, 81, 0
1, 77088, Note_on_c, 0, 83, 41
1, 77150, Note_on_c, 0, 83, 0
1, 77150, Note_on_c, 0, 81, 45
1, 77150, Note_on_c, 0, 66, 0
1, 77153, Note_on_c, 0, 62, 0
1, 77153, Note_on_c, 0, 64, 38
1, 77153, Note_on_c, 0, 67, 45
1, 77173, Control_c, 0, 64, 0
1, 77212, Note_on_c, 0, 81, 0
1, 77212, Note_on_c, 0, 83, 42
1, 77249, Control_c, 0, 64, 127
1, 77273, Note_on_c, 0, 83, 0
1, 77273, Note_on_c, 0, 81, 45
1, 77333, Note_on_c, 0, 81, 0
1, 77333, Note_on_c, 0, 83, 41
1, 77394, Note_on_c, 0, 83, 0
1, 77394, Note_on_c, 0, 81, 44
1, 77456, Note_on_c, 0, 81, 0
1, 77456, Note_on_c, 0, 83, 38
1, 77518, Note_on_c, 0, 83, 0
1, 77518, Note_on_c, 0, 81, 44
1, 77580, Note_on_c, 0, 81, 0
1, 77580, Note_on_c, 0, 83, 39
1, 77640, Note_on_c, 0, 83, 0
1, 77640, Note_on_c, 0, 81, 43
1, 77640, Note_on_c, 0, 67, 0
1, 77643, Note_on_c, 0, 64, 0
1, 77643, Note_on_c, 0, 66, 34
1, 77643, Note_on_c, 0, 69, 41
1, 77664, Control_c, 0, 64, 0
1, 77701, Note_on_c, 0, 81, 0
1, 77701, Note_on_c, 0, 83, 38
1, 77722, Control_c, 0, 64, 127
1, 77764, Note_on_c, 0, 83, 0
1, 77764, Note_on_c, 0, 81, 42
1, 77825, Note_on_c, 0, 81, 0
1, 77825, Note_on_c, 0, 83, 38
1, 77886, Note_on_c, 0, 83, 0
1, 77886, Note_on_c, 0, 81, 42
1, 77946, Note_on_c, 0, 81, 0
1, 77946, Note_on_c, 0, 83, 39
1, 78007, Note_on_c, 0, 83, 0
1, 78007, Note_on_c, 0, 81, 43
1, 78068, Note_on_c, 0, 81, 0
1, 78068, Note_on_c, 0, 83, 39
1, 78129, Note_on_c, 0, 83, 0
1, 78129, Note_on_c, 0, 81, 43
1, 78129, Note_on_c, 0, 69, 0
1, 78132, Note_on_c, 0, 66, 0
1, 78132, Note_on_c, 0, 64, 35
1, 78132, Note_on_c, 0, 67, 42
1, 78151, Control_c, 0, 64, 0
1, 78189, Note_on_c, 0, 81, 0
1, 78189, Note_on_c, 0, 83, 38
1, 78216, Control_c, 0, 64, 127
1, 78251, Note_on_c, 0, 83, 0
1, 78251, Note_on_c, 0, 81, 43
1, 78313, Note_on_c, 0, 81, 0
1, 78313, Note_on_c, 0, 83, 38
1, 78376, Note_on_c, 0, 83, 0
1, 78376, Note_on_c, 0, 81, 43
1, 78437, Note_on_c, 0, 81, 0
1, 78437, Note_on_c, 0, 83, 38
1, 78498, Note_on_c, 0, 83, 0
1, 78498, Note_on_c, 0, 81, 43
1, 78559, Note_on_c, 0, 81, 0
1, 78559, Note_on_c, 0, 83, 39
1, 78620, Note_on_c, 0, 83, 0
1, 78620, Note_on_c, 0, 81, 43
1, 78620, Note_on_c, 0, 67, 0
1, 78623, Note_on_c, 0, 64, 0
1, 78623, Note_on_c, 0, 62, 38
1, 78623, Note_on_c, 0, 66, 45
1, 78642, Control_c, 0, 64, 0
1, 78702, Note_on_c, 0, 81, 0
1, 78702, Note_on_c, 0, 83, 45
1, 78743, Control_c, 0, 64, 127
1, 78784, Note_on_c, 0, 83, 0
1, 78784, Note_on_c, 0, 81, 52
1, 78866, Note_on_c, 0, 81, 0
1, 78866, Note_on_c, 0, 80, 58
1, 78995, Note_on_c, 0, 80, 0
1, 78995, Note_on_c, 0, 81, 54
1, 79087, Control_c, 0, 64, 0
1, 79124, Note_on_c, 0, 81, 0
1, 79124, Note_on_c, 0, 86, 66
1, 79124, Note_on_c, 0, 74, 56
1, 79127, Note_on_c, 0, 66, 0
1, 79127, Note_on_c, 0, 62, 0
1, 79127, Note_on_c, 0, 66, 59
1, 79130, Note_on_c, 0, 69, 59
1, 79625, Note_on_c, 0, 74, 0
1, 79625, Note_on_c, 0, 86, 0
1, 79625, Note_on_c, 0, 85, 60
1, 79628, Note_on_c, 0, 73, 50
1, 79628, Note_on_c, 0, 69, 0
1, 79628, Note_on_c, 0, 66, 0
1, 79631, Note_on_c, 0, 64, 42
1, 79631, Note_on_c, 0, 67, 42
1, 79631, Note_on_c, 0, 70, 51
1, 80114, Note_on_c, 0, 73, 0
1, 80114, Note_on_c, 0, 85, 0
1, 80114, Note_on_c, 0, 71, 53
1, 80117, Note_on_c, 0, 83, 62
1, 80117, Note_on_c, 0, 70, 0
1, 80117, Note_on_c, 0, 67, 0
1, 80120, Note_on_c, 0, 64, 0
1, 80120, Note_on_c, 0, 62, 44
1, 80120, Note_on_c, 0, 66, 53
1, 80615, Note_on_c, 0, 83, 0
1, 80615, Note_on_c, 0, 71, 0
1, 80615, Note_on_c, 0, 66, 0
1, 80618, Note_on_c, 0, 62, 0
1, 80866, Note_on_c, 0, 78, 40
1, 81117, Note_on_c, 0, 78, 0
1, 81117, Note_on_c, 0, 71, 38
1, 81117, Note_on_c, 0, 83, 45
1, 81120, Note_on_c, 0, 62, 29
1, 81120, Note_on_c, 0, 66, 35
1, 81623, Note_on_c, 0, 83, 0
1, 81623, Note_on_c, 0, 71, 0
1, 81623, Note_on_c, 0, 69, 34
1, 81626, Note_on_c, 0, 81, 40
1, 81626, Note_on_c, 0, 66, 0
1, 81626, Note_on_c, 0, 62, 0
1, 81629, Note_on_c, 0, 60, 29
1, 81629, Note_on_c, 0, 62, 29
1, 81629, Note_on_c, 0, 66, 35
1, 82129, Note_on_c, 0, 81, 0
1, 82129, Note_on_c, 0, 69, 0
1, 82129, Note_on_c, 0, 67, 37
1, 82132, Note_on_c, 0, 79, 44
1, 82132, Note_on_c, 0, 66, 0
1, 82132, Note_on_c, 0, 62, 0
1, 82135, Note_on_c, 0, 60, 0
1, 82135, Note_on_c, 0, 59, 29
1, 82135, Note_on_c, 0, 62, 35
1, 82635, Note_on_c, 0, 79, 0
1, 82635, Note_on_c, 0, 67, 0
1, 82635, Note_on_c, 0, 62, 0
1, 82638, Note_on_c, 0, 59, 0
1, 82888, Note_on_c, 0, 74, 60
1, 83141, Note_on_c, 0, 74, 0
1, 83141, Note_on_c, 0, 79, 66
1, 83141, Note_on_c, 0, 67, 56
1, 83144, Note_on_c, 0, 59, 59
1, 83144, Note_on_c, 0, 62, 59
1, 83643, Note_on_c, 0, 67, 0
1, 83643, Note_on_c, 0, 79, 0
1, 83643, Note_on_c, 0, 78, 60
1, 83646, Note_on_c, 0, 66, 50
1, 83646, Note_on_c, 0, 62, 0
1, 83646, Note_on_c, 0, 59, 0
1, 83649, Note_on_c, 0, 63, 51
1, 83649, Note_on_c, 0, 57, 42
1, 83649, Note_on_c, 0, 60, 42
1, 84131, Note_on_c, 0, 66, 0
1, 84131, Note_on_c, 0, 78, 0
1, 84131, Note_on_c, 0, 76, 62
1, 84134, Note_on_c, 0, 60, 0
1, 84134, Note_on_c, 0, 57, 0
1, 84134, Note_on_c, 0, 63, 0
1, 84137, Note_on_c, 0, 55, 44
1, 84137, Note_on_c, 0, 59, 44
1, 84137, Note_on_c, 0, 64, 53
1, 84382, Note_on_c, 0, 76, 0
1, 84382, Note_on_c, 0, 83, 56
1, 84633, Note_on_c, 0, 83, 0
1, 84633, Note_on_c, 0, 81, 50
1, 84754, Note_on_c, 0, 81, 0
1, 84754, Note_on_c, 0, 79, 46
1, 84875, Note_on_c, 0, 79, 0
1, 84875, Note_on_c, 0, 78, 50
1, 84996, Note_on_c, 0, 78, 0
1, 84996, Note_on_c, 0, 76, 46
1, 85131, Note_on_c, 0, 76, 0
1, 85131, Note_on_c, 0, 74, 50
1, 85131, Note_on_c, 0, 64, 0
1, 85134, Note_on_c, 0, 59, 0
1, 85134, Note_on_c, 0, 55, 0
1, 85134, Note_on_c, 0, 66, 40
1, 85137, Note_on_c, 0, 57, 40
1, 85632, Note_on_c, 0, 74, 0
1, 85632, Note_on_c, 0, 76, 45
1, 85632, Note_on_c, 0, 66, 0
1, 85635, Note_on_c, 0, 61, 38
1, 86134, Note_on_c, 0, 76, 0
1, 86134, Note_on_c, 0, 77, 53
1, 86134, Note_on_c, 0, 61, 0
1, 86137, Note_on_c, 0, 57, 0
1, 86137, Note_on_c, 0, 61, 40
1, 86137, Note_on_c, 0, 50, 40
1, 86649, Note_on_c, 0, 77, 0
1, 86649, Note_on_c, 0, 78, 49
1, 86649, Note_on_c, 0, 61, 0
1, 86652, Note_on_c, 0, 62, 38
1, 87151, Note_on_c, 0, 78, 0
1, 87151, Note_on_c, 0, 86, 66
1, 87151, Note_on_c, 0, 62, 0
1, 87154, Note_on_c, 0, 50, 0
1, 87154, Note_on_c, 0, 66, 53
1, 87154, Note_on_c, 0, 69, 53
1, 87652, Note_on_c, 0, 86, 0
1, 87652, Note_on_c, 0, 85, 60
1, 87652, Note_on_c, 0, 69, 0
1, 87655, Note_on_c, 0, 66, 0
1, 87655, Note_on_c, 0, 64, 37
1, 87655, Note_on_c, 0, 67, 37
1, 87658, Note_on_c, 0, 70, 45
1, 87658, Control_c, 0, 64, 127
1, 87713, Note_on_c, 0, 85, 0
1, 87713, Note_on_c, 0, 86, 54
1, 87775, Note_on_c, 0, 86, 0
1, 87775, Note_on_c, 0, 85, 60
1, 87836, Note_on_c, 0, 85, 0
1, 87836, Note_on_c, 0, 86, 55
1, 87897, Note_on_c, 0, 86, 0
1, 87897, Note_on_c, 0, 85, 60
1, 87958, Note_on_c, 0, 85, 0
1, 87958, Note_on_c, 0, 86, 55
1, 88019, Note_on_c, 0, 86, 0
1, 88019, Note_on_c, 0, 85, 60
1, 88080, Note_on_c, 0, 85, 0
1, 88080, Note_on_c, 0, 86, 55
1, 88141, Note_on_c, 0, 86, 0
1, 88141, Note_on_c, 0, 83, 62
1, 88141, Note_on_c, 0, 70, 0
1, 88144, Note_on_c, 0, 67, 0
1, 88144, Note_on_c, 0, 64, 0
1, 88144, Note_on_c, 0, 71, 47
1, 88147, Note_on_c, 0, 62, 39
1, 88147, Note_on_c, 0, 66, 47
1, 88147, Control_c, 0, 64, 0
1, 88642, Note_on_c, 0, 83, 0
1, 88642, Note_on_c, 0, 66, 0
1, 88642, Note_on_c, 0, 62, 0
1, 88645, Note_on_c, 0, 71, 0
1, 88893, Note_on_c, 0, 78, 40
1, 89144, Note_on_c, 0, 78, 0
1, 89144, Note_on_c, 0, 83, 45
1, 89144, Note_on_c, 0, 62, 29
1, 89147, Note_on_c, 0, 66, 35
1, 89650, Note_on_c, 0, 83, 0
1, 89650, Note_on_c, 0, 81, 48
1, 89650, Note_on_c, 0, 66, 0
1, 89653, Note_on_c, 0, 62, 0
1, 89653, Note_on_c, 0, 60, 29
1, 89653, Note_on_c, 0, 62, 29
1, 89656, Note_on_c, 0, 66, 35
1, 89656, Control_c, 0, 64, 127
1, 89713, Note_on_c, 0, 81, 0
1, 89713, Note_on_c, 0, 83, 42
1, 89777, Note_on_c, 0, 83, 0
1, 89777, Note_on_c, 0, 81, 50
1, 89840, Note_on_c, 0, 81, 0
1, 89840, Note_on_c, 0, 83, 44
1, 89903, Note_on_c, 0, 83, 0
1, 89903, Note_on_c, 0, 81, 49
1, 89966, Note_on_c, 0, 81, 0
1, 89966, Note_on_c, 0, 83, 42
1, 90030, Note_on_c, 0, 83, 0
1, 90030, Note_on_c, 0, 81, 50
1, 90093, Note_on_c, 0, 81, 0
1, 90093, Note_on_c, 0, 83, 47
1, 90156, Note_on_c, 0, 83, 0
1, 90156, Note_on_c, 0, 79, 44
1, 90156, Note_on_c, 0, 66, 0
1, 90159, Note_on_c, 0, 62, 0
1, 90159, Note_on_c, 0, 60, 0
1, 90159, Note_on_c, 0, 67, 35
1, 90162, Note_on_c, 0, 59, 29
1, 90162, Note_on_c, 0, 62, 35
1, 90175, Control_c, 0, 64, 0
1, 90662, Note_on_c, 0, 79, 0
1, 90662, Note_on_c, 0, 62, 0
1, 90662, Note_on_c, 0, 59, 0
1, 90665, Note_on_c, 0, 67, 0
1, 90915, Note_on_c, 0, 74, 60
1, 91168, Note_on_c, 0, 74, 0
1, 91168, Note_on_c, 0, 79, 66
1, 91168, Note_on_c, 0, 59, 59
1, 91171, Note_on_c, 0, 62, 59
1, 91670, Note_on_c, 0, 79, 0
1, 91670, Note_on_c, 0, 62, 0
1, 91670, Note_on_c, 0, 59, 0
1, 91673, Note_on_c, 0, 63, 51
1, 91673, Note_on_c, 0, 57, 42
1, 91673, Note_on_c, 0, 60, 42
1, 91676, Note_on_c, 0, 78, 57
1, 91737, Note_on_c, 0, 78, 0
1, 91737, Note_on_c, 0, 79, 54
1, 91798, Note_on_c, 0, 79, 0
1, 91798, Note_on_c, 0, 78, 59
1, 91859, Note_on_c, 0, 78, 0
1, 91859, Note_on_c, 0, 79, 54
1, 91920, Note_on_c, 0, 79, 0
1, 91920, Note_on_c, 0, 78, 57
1, 91981, Note_on_c, 0, 78, 0
1, 91981, Note_on_c, 0, 79, 52
1, 92042, Note_on_c, 0, 79, 0
1, 92042, Note_on_c, 0, 78, 56
1, 92103, Note_on_c, 0, 78, 0
1, 92103, Note_on_c, 0, 79, 52
1, 92158, Note_on_c, 0, 76, 62
1, 92158, Note_on_c, 0, 60, 0
1, 92158, Note_on_c, 0, 57, 0
1, 92161, Note_on_c, 0, 63, 0
1, 92161, Note_on_c, 0, 55, 44
1, 92161, Note_on_c, 0, 59, 44
1, 92164, Note_on_c, 0, 64, 53
1, 92164, Note_on_c, 0, 79, 0
1, 92409, Note_on_c, 0, 76, 0
1, 92409, Note_on_c, 0, 83, 58
1, 92660, Note_on_c, 0, 83, 0
1, 92660, Note_on_c, 0, 81, 55
1, 92781, Note_on_c, 0, 81, 0
1, 92781, Note_on_c, 0, 79, 47
1, 92902, Note_on_c, 0, 79, 0
1, 92902, Note_on_c, 0, 78, 50
1, 93023, Note_on_c, 0, 78, 0
1, 93023, Note_on_c, 0, 76, 46
1, 93158, Note_on_c, 0, 76, 0
1, 93158, Note_on_c, 0, 74, 47
1, 93158, Note_on_c, 0, 64, 0
1, 93161, Note_on_c, 0, 59, 0
1, 93161, Note_on_c, 0, 55, 0
1, 93161, Note_on_c, 0, 62, 34
1, 93164, Note_on_c, 0, 66, 40
1, 93164, Note_on_c, 0, 57, 34
1, 93283, Note_on_c, 0, 74, 0
1, 93409, Note_on_c, 0, 78, 47
1, 93534, Note_on_c, 0, 78, 0
1, 93659, Note_on_c, 0, 81, 53
1, 93659, Note_on_c, 0, 57, 0
1, 93659, Note_on_c, 0, 66, 0
1, 93662, Note_on_c, 0, 62, 0
1, 94161, Note_on_c, 0, 62, 28
1, 94161, Note_on_c, 0, 66, 33
1, 94161, Note_on_c, 0, 57, 28
1, 94421, Note_on_c, 0, 81, 0
1, 94421, Note_on_c, 0, 80, 46
1, 94676, Note_on_c, 0, 80, 0
1, 94676, Note_on_c, 0, 79, 46
1, 94676, Note_on_c, 0, 57, 0
1, 94679, Note_on_c, 0, 66, 0
1, 94679, Note_on_c, 0, 62, 0
1, 94927, Note_on_c, 0, 79, 0
1, 94927, Note_on_c, 0, 78, 44
1, 95178, Note_on_c, 0, 78, 0
1, 95178, Note_on_c, 0, 83, 53
1, 95178, Note_on_c, 0, 57, 28
1, 95181, Note_on_c, 0, 62, 28
1, 95181, Note_on_c, 0, 64, 34
1, 95181, Control_c, 0, 64, 127
1, 95339, Note_on_c, 0, 83, 0
1, 95339, Note_on_c, 0, 79, 48
1, 95501, Note_on_c, 0, 79, 0
1, 95501, Note_on_c, 0, 76, 47
1, 95667, Note_on_c, 0, 76, 0
1, 95667, Note_on_c, 0, 76, 50
1, 95667, Note_on_c, 0, 64, 0
1, 95670, Note_on_c, 0, 62, 0
1, 95670, Note_on_c, 0, 57, 0
1, 95696, Control_c, 0, 64, 0
1, 95729, Note_on_c, 0, 76, 0
1, 95729, Note_on_c, 0, 78, 45
1, 95765, Control_c, 0, 64, 127
1, 95793, Note_on_c, 0, 78, 0
1, 95793, Note_on_c, 0, 76, 50
1, 95858, Note_on_c, 0, 76, 0
1, 95858, Note_on_c, 0, 78, 45
1, 95921, Note_on_c, 0, 78, 0
1, 95921, Note_on_c, 0, 76, 50
1, 95984, Note_on_c, 0, 76, 0
1, 95984, Note_on_c, 0, 78, 45
1, 96047, Note_on_c, 0, 78, 0
1, 96047, Note_on_c, 0, 76, 50
1, 96109, Note_on_c, 0, 76, 0
1, 96109, Note_on_c, 0, 78, 45
1, 96170, Note_on_c, 0, 78, 0
1, 96170, Note_on_c, 0, 76, 50
1, 96170, Note_on_c, 0, 61, 28
1, 96173, Note_on_c, 0, 57, 28
1, 96173, Note_on_c, 0, 67, 34
1, 96231, Note_on_c, 0, 76, 0
1, 96231, Note_on_c, 0, 78, 45
1, 96292, Note_on_c, 0, 78, 0
1, 96292, Note_on_c, 0, 76, 50
1, 96352, Note_on_c, 0, 76, 0
1, 96352, Note_on_c, 0, 78, 44
1, 96412, Note_on_c, 0, 78, 0
1, 96412, Note_on_c, 0, 76, 50
1, 96473, Note_on_c, 0, 76, 0
1, 96473, Note_on_c, 0, 78, 45
1, 96534, Note_on_c, 0, 78, 0
1, 96534, Note_on_c, 0, 76, 50
1, 96596, Note_on_c, 0, 76, 0
1, 96596, Note_on_c, 0, 78, 45
1, 96657, Note_on_c, 0, 78, 0
1, 96657, Note_on_c, 0, 76, 50
1, 96657, Note_on_c, 0, 67, 0
1, 96660, Note_on_c, 0, 57, 0
1, 96660, Note_on_c, 0, 61, 0
1, 96740, Note_on_c, 0, 76, 0
1, 96740, Note_on_c, 0, 78, 45
1, 96822, Note_on_c, 0, 78, 0
1, 96822, Note_on_c, 0, 76, 55
1, 96906, Note_on_c, 0, 76, 0
1, 96906, Note_on_c, 0, 74, 62
1, 97033, Note_on_c, 0, 74, 0
1, 97033, Note_on_c, 0, 76, 59
1, 97163, Note_on_c, 0, 76, 0
1, 97163, Note_on_c, 0, 74, 65
1, 97163, Note_on_c, 0, 62, 28
1, 97166, Note_on_c, 0, 66, 34
1, 97166, Control_c, 0, 64, 0
1, 97412, Note_on_c, 0, 74, 0
1, 97412, Note_on_c, 0, 73, 53
1, 97660, Note_on_c, 0, 73, 0
1, 97660, Note_on_c, 0, 74, 59
1, 97909, Note_on_c, 0, 74, 0
1, 97909, Note_on_c, 0, 76, 54
1, 98158, Note_on_c, 0, 76, 0
1, 98158, Note_on_c, 0, 74, 53
1, 98158, Note_on_c, 0, 66, 0
1, 98161, Note_on_c, 0, 62, 0
1, 98406, Note_on_c, 0, 74, 0
1, 98406, Note_on_c, 0, 72, 51
1, 98655, Note_on_c, 0, 72, 0
1, 98655, Note_on_c, 0, 71, 48
1, 98903, Note_on_c, 0, 71, 0
1, 98903, Note_on_c, 0, 70, 45
1, 99152, Note_on_c, 0, 70, 0
1, 99152, Control_c, 0, 91, 127
1, 99152, Note_on_c, 0, 71, 50
1, 99155, Note_on_c, 0, 55, 39
1, 99155, Note_on_c, 0, 62, 39
1, 99531, Note_on_c, 0, 71, 0
1, 99531, Note_on_c, 0, 74, 42
1, 99645, Note_on_c, 0, 74, 0
1, 99645, Note_on_c, 0, 72, 50
1, 99645, Note_on_c, 0, 55, 0
1, 99648, Note_on_c, 0, 57, 35
1, 100015, Note_on_c, 0, 72, 0
1, 100015, Note_on_c, 0, 71, 47
1, 100015, Note_on_c, 0, 57, 0
1, 100018, Note_on_c, 0, 55, 30
1, 100138, Note_on_c, 0, 71, 0
1, 100138, Note_on_c, 0, 69, 50
1, 100138, Note_on_c, 0, 55, 0
1, 100141, Note_on_c, 0, 54, 32
1, 100631, Note_on_c, 0, 69, 0
1, 100631, Note_on_c, 0, 71, 46
1, 100631, Note_on_c, 0, 54, 0
1, 100634, Note_on_c, 0, 55, 32
1, 101142, Note_on_c, 0, 71, 0
1, 101142, Note_on_c, 0, 72, 50
1, 101142, Note_on_c, 0, 55, 0
1, 101145, Note_on_c, 0, 62, 0
1, 101145, Note_on_c, 0, 57, 38
1, 101145, Note_on_c, 0, 62, 38
1, 101389, Note_on_c, 0, 72, 0
1, 101389, Note_on_c, 0, 74, 44
1, 101452, Note_on_c, 0, 74, 0
1, 101452, Note_on_c, 0, 72, 40
1, 101515, Note_on_c, 0, 72, 0
1, 101515, Note_on_c, 0, 71, 44
1, 101578, Note_on_c, 0, 71, 0
1, 101578, Note_on_c, 0, 72, 40
1, 101642, Note_on_c, 0, 72, 0
1, 101642, Note_on_c, 0, 76, 46
1, 101642, Note_on_c, 0, 57, 0
1, 101645, Note_on_c, 0, 60, 40
1, 101886, Note_on_c, 0, 76, 0
1, 101886, Note_on_c, 0, 74, 47
1, 101886, Note_on_c, 0, 60, 0
1, 101889, Note_on_c, 0, 59, 36
1, 102137, Note_on_c, 0, 74, 0
1, 102137, Note_on_c, 0, 72, 47
1, 102137, Note_on_c, 0, 59, 0
1, 102140, Note_on_c, 0, 57, 47
1, 102629, Note_on_c, 0, 72, 0
1, 102629, Note_on_c, 0, 71, 51
1, 102629, Note_on_c, 0, 57, 0
1, 102632, Note_on_c, 0, 55, 51
1, 103156, Note_on_c, 0, 71, 0
1, 103156, Note_on_c, 0, 67, 65
1, 103156, Note_on_c, 0, 72, 65
1, 103159, Note_on_c, 0, 55, 0
1, 103159, Note_on_c, 0, 62, 0
1, 103159, Note_on_c, 0, 52, 49
1, 103162, Note_on_c, 0, 64, 49
1, 103421, Note_on_c, 0, 72, 0
1, 103421, Note_on_c, 0, 67, 0
1, 103421, Note_on_c, 0, 64, 0
1, 103424, Note_on_c, 0, 52, 0
1, 103686, Note_on_c, 0, 71, 61
1, 103686, Note_on_c, 0, 67, 61
1, 103686, Note_on_c, 0, 50, 44
1, 103689, Note_on_c, 0, 62, 44
1, 103951, Note_on_c, 0, 67, 0
1, 103951, Note_on_c, 0, 71, 0
1, 103951, Note_on_c, 0, 62, 0
1, 103954, Note_on_c, 0, 50, 0
1, 104216, Note_on_c, 0, 76, 67
1, 104216, Note_on_c, 0, 67, 67
1, 104216, Note_on_c, 0, 60, 51
1, 104219, Note_on_c, 0, 48, 51
1, 104481, Note_on_c, 0, 67, 0
1, 104481, Note_on_c, 0, 76, 0
1, 104481, Note_on_c, 0, 48, 0
1, 104484, Note_on_c, 0, 60, 0
1, 105011, Note_on_c, 0, 74, 47
1, 105011, Note_on_c, 0, 67, 47
1, 105011, Note_on_c, 0, 59, 37
1, 105255, Note_on_c, 0, 67, 0
1, 105255, Note_on_c, 0, 74, 0
1, 105255, Note_on_c, 0, 72, 50
1, 105258, Note_on_c, 0, 59, 0
1, 105258, Note_on_c, 0, 54, 40
1, 105323, Control_c, 0, 64, 127
1, 105495, Note_on_c, 0, 72, 0
1, 105495, Note_on_c, 0, 69, 42
1, 105748, Note_on_c, 0, 69, 0
1, 105748, Note_on_c, 0, 71, 50
1, 105748, Note_on_c, 0, 54, 0
1, 105751, Note_on_c, 0, 55, 35
1, 105768, Control_c, 0, 64, 0
1, 105870, Control_c, 0, 64, 127
1, 105992, Note_on_c, 0, 71, 0
1, 105992, Note_on_c, 0, 67, 42
1, 106273, Note_on_c, 0, 67, 0
1, 106273, Note_on_c, 0, 67, 50
1, 106273, Note_on_c, 0, 71, 50
1, 106276, Note_on_c, 0, 55, 0
1, 106276, Note_on_c, 0, 50, 39
1, 106289, Note_on_c, 0, 55, 40
1, 106297, Control_c, 0, 64, 0
1, 106803, Note_on_c, 0, 71, 0
1, 106803, Note_on_c, 0, 67, 0
1, 106803, Note_on_c, 0, 66, 44
1, 106806, Note_on_c, 0, 69, 44
1, 106806, Note_on_c, 0, 54, 35
1, 106819, Note_on_c, 0, 55, 0
1, 107333, Note_on_c, 0, 69, 0
1, 107333, Note_on_c, 0, 66, 0
1, 107333, Control_c, 0, 91, 127
1, 107336, Note_on_c, 0, 71, 50
1, 107336, Note_on_c, 0, 54, 0
1, 107336, Note_on_c, 0, 50, 0
1, 107339, Note_on_c, 0, 62, 39
1, 107339, Note_on_c, 0, 55, 39
1, 107582, Note_on_c, 0, 71, 0
1, 107582, Note_on_c, 0, 72, 44
1, 107644, Note_on_c, 0, 72, 0
1, 107644, Note_on_c, 0, 71, 40
1, 107706, Note_on_c, 0, 71, 0
1, 107706, Note_on_c, 0, 69, 44
1, 107763, Note_on_c, 0, 69, 0
1, 107763, Note_on_c, 0, 71, 40
1, 107821, Note_on_c, 0, 71, 0
1, 107821, Note_on_c, 0, 72, 48
1, 107821, Note_on_c, 0, 55, 0
1, 107824, Note_on_c, 0, 57, 35
1, 108187, Note_on_c, 0, 72, 0
1, 108187, Note_on_c, 0, 71, 47
1, 108187, Note_on_c, 0, 57, 0
1, 108190, Note_on_c, 0, 55, 30
1, 108309, Note_on_c, 0, 71, 0
1, 108309, Note_on_c, 0, 69, 50
1, 108309, Note_on_c, 0, 55, 0
1, 108312, Note_on_c, 0, 54, 32
1, 108798, Note_on_c, 0, 69, 0
1, 108798, Note_on_c, 0, 71, 46
1, 108798, Note_on_c, 0, 54, 0
1, 108801, Note_on_c, 0, 56, 32
1, 109307, Note_on_c, 0, 71, 0
1, 109307, Note_on_c, 0, 72, 50
1, 109307, Note_on_c, 0, 56, 0
1, 109310, Note_on_c, 0, 62, 0
1, 109310, Note_on_c, 0, 62, 38
1, 109310, Note_on_c, 0, 57, 38
1, 109553, Note_on_c, 0, 72, 0
1, 109553, Note_on_c, 0, 73, 50
1, 109800, Note_on_c, 0, 73, 0
1, 109800, Note_on_c, 0, 76, 46
1, 109800, Note_on_c, 0, 57, 0
1, 109803, Note_on_c, 0, 54, 33
1, 110046, Note_on_c, 0, 76, 0
1, 110046, Note_on_c, 0, 74, 49
1, 110293, Note_on_c, 0, 74, 0
1, 110293, Note_on_c, 0, 72, 47
1, 110293, Note_on_c, 0, 54, 0
1, 110296, Note_on_c, 0, 55, 39
1, 110661, Note_on_c, 0, 72, 0
1, 110661, Note_on_c, 0, 74, 47
1, 110724, Note_on_c, 0, 74, 0
1, 110724, Note_on_c, 0, 72, 47
1, 110788, Note_on_c, 0, 72, 0
1, 110788, Note_on_c, 0, 71, 51
1, 111315, Note_on_c, 0, 71, 0
1, 111315, Note_on_c, 0, 67, 65
1, 111315, Note_on_c, 0, 72, 65
1, 111318, Note_on_c, 0, 55, 0
1, 111318, Note_on_c, 0, 62, 0
1, 111318, Note_on_c, 0, 52, 49
1, 111321, Note_on_c, 0, 64, 49
1, 111580, Note_on_c, 0, 72, 0
1, 111580, Note_on_c, 0, 67, 0
1, 111580, Note_on_c, 0, 64, 0
1, 111583, Note_on_c, 0, 52, 0
1, 111845, Note_on_c, 0, 71, 61
1, 111845, Note_on_c, 0, 67, 61
1, 111845, Note_on_c, 0, 50, 44
1, 111848, Note_on_c, 0, 62, 44
1, 112110, Note_on_c, 0, 67, 0
1, 112110, Note_on_c, 0, 71, 0
1, 112110, Note_on_c, 0, 62, 0
1, 112113, Note_on_c, 0, 50, 0
1, 112375, Note_on_c, 0, 67, 67
1, 112375, Note_on_c, 0, 76, 67
1, 112375, Note_on_c, 0, 60, 51
1, 112378, Note_on_c, 0, 48, 51
1, 112632, Note_on_c, 0, 76, 0
1, 112632, Note_on_c, 0, 78, 62
1, 112890, Note_on_c, 0, 78, 0
1, 112890, Note_on_c, 0, 79, 65
1, 112890, Note_on_c, 0, 48, 0
1, 112893, Note_on_c, 0, 60, 0
1, 113148, Note_on_c, 0, 79, 0
1, 113148, Note_on_c, 0, 67, 0
1, 113148, Note_on_c, 0, 72, 47
1, 113151, Note_on_c, 0, 64, 37
1, 113151, Note_on_c, 0, 60, 37
1, 113443, Note_on_c, 0, 72, 0
1, 113443, Note_on_c, 0, 71, 50
1, 113443, Note_on_c, 0, 60, 0
1, 113446, Note_on_c, 0, 64, 0
1, 113446, Note_on_c, 0, 62, 40
1, 113446, Note_on_c, 0, 67, 40
1, 113978, Note_on_c, 0, 71, 0
1, 113978, Note_on_c, 0, 69, 47
1, 113978, Note_on_c, 0, 67, 0
1, 113981, Note_on_c, 0, 66, 35
1, 114023, Control_c, 0, 64, 127
1, 114036, Note_on_c, 0, 69, 0
1, 114036, Note_on_c, 0, 71, 47
1, 114097, Note_on_c, 0, 71, 0
1, 114097, Note_on_c, 0, 69, 47
1, 114155, Note_on_c, 0, 69, 0
1, 114155, Note_on_c, 0, 71, 47
1, 114213, Note_on_c, 0, 71, 0
1, 114213, Note_on_c, 0, 69, 45
1, 114275, Note_on_c, 0, 69, 0
1, 114275, Note_on_c, 0, 71, 45
1, 114339, Note_on_c, 0, 71, 0
1, 114339, Note_on_c, 0, 69, 45
1, 114406, Note_on_c, 0, 69, 0
1, 114406, Note_on_c, 0, 67, 45
1, 114486, Note_on_c, 0, 67, 0
1, 114486, Note_on_c, 0, 69, 45
1, 114576, Note_on_c, 0, 69, 0
1, 114576, Note_on_c, 0, 67, 45
1, 114576, Note_on_c, 0, 66, 0
1, 114579, Note_on_c, 0, 62, 0
1, 114579, Note_on_c, 0, 55, 39
1, 114591, Control_c, 0, 64, 0
1, 114649, Control_c, 0, 64, 127
1, 114836, Note_on_c, 0, 59, 28
1, 115091, Note_on_c, 0, 59, 0
1, 115091, Note_on_c, 0, 62, 32
1, 115338, Note_on_c, 0, 62, 0
1, 115338, Note_on_c, 0, 59, 27
1, 115598, Note_on_c, 0, 67, 0
1, 115598, Note_on_c, 0, 71, 45
1, 115598, Note_on_c, 0, 59, 0
1, 115601, Note_on_c, 0, 55, 0
1, 115601, Note_on_c, 0, 48, 39
1, 115601, Control_c, 0, 64, 0
1, 115833, Control_c, 0, 64, 127
1, 115847, Note_on_c, 0, 52, 27
1, 116094, Note_on_c, 0, 71, 0
1, 116094, Note_on_c, 0, 69, 45
1, 116094, Note_on_c, 0, 52, 0
1, 116097, Note_on_c, 0, 57, 32
1, 116340, Note_on_c, 0, 57, 0
1, 116340, Note_on_c, 0, 52, 28
1, 116593, Note_on_c, 0, 69, 0
1, 116593, Note_on_c, 0, 67, 45
1, 116593, Note_on_c, 0, 52, 0
1, 116596, Note_on_c, 0, 48, 0
1, 116596, Note_on_c, 0, 50, 39
1, 116617, Control_c, 0, 64, 0
1, 116764, Control_c, 0, 64, 127
1, 116837, Note_on_c, 0, 67, 0
1, 116837, Note_on_c, 0, 66, 41
1, 116837, Note_on_c, 0, 60, 29
1, 117082, Note_on_c, 0, 66, 0
1, 117082, Note_on_c, 0, 66, 45
1, 117082, Note_on_c, 0, 60, 0
1, 117085, Note_on_c, 0, 57, 32
1, 117326, Note_on_c, 0, 66, 0
1, 117326, Note_on_c, 0, 62, 41
1, 117326, Note_on_c, 0, 57, 0
1, 117329, Note_on_c, 0, 60, 29
1, 117588, Note_on_c, 0, 62, 0
1, 117588, Note_on_c, 0, 71, 51
1, 117588, Note_on_c, 0, 60, 0
1, 117591, Note_on_c, 0, 50, 0
1, 117591, Note_on_c, 0, 55, 39
1, 117591, Control_c, 0, 64, 0
1, 117684, Control_c, 0, 64, 127
1, 117832, Note_on_c, 0, 59, 29
1, 118077, Note_on_c, 0, 59, 0
1, 118077, Note_on_c, 0, 62, 32
1, 118321, Note_on_c, 0, 62, 0
1, 118321, Note_on_c, 0, 59, 29
1, 118576, Note_on_c, 0, 71, 0
1, 118576, Note_on_c, 0, 67, 45
1, 118576, Note_on_c, 0, 59, 0
1, 118579, Note_on_c, 0, 55, 0
1, 118579, Note_on_c, 0, 52, 39
1, 118607, Control_c, 0, 64, 0
1, 118704, Control_c, 0, 64, 127
1, 118820, Note_on_c, 0, 55, 29
1, 119065, Note_on_c, 0, 55, 0
1, 119065, Note_on_c, 0, 59, 32
1, 119309, Note_on_c, 0, 67, 0
1, 119309, Note_on_c, 0, 69, 40
1, 119309, Note_on_c, 0, 59, 0
1, 119312, Note_on_c, 0, 55, 30
1, 119370, Note_on_c, 0, 69, 0
1, 119370, Note_on_c, 0, 67, 35
1, 119431, Note_on_c, 0, 67, 0
1, 119431, Note_on_c, 0, 66, 40
1, 119501, Note_on_c, 0, 66, 0
1, 119501, Note_on_c, 0, 67, 36
1, 119570, Note_on_c, 0, 67, 0
1, 119570, Note_on_c, 0, 71, 45
1, 119570, Note_on_c, 0, 55, 0
1, 119573, Note_on_c, 0, 52, 0
1, 119573, Note_on_c, 0, 48, 39
1, 119580, Control_c, 0, 64, 0
1, 119669, Control_c, 0, 64, 127
1, 119816, Note_on_c, 0, 71, 0
1, 119816, Note_on_c, 0, 69, 45
1, 119816, Note_on_c, 0, 52, 29
1, 120063, Note_on_c, 0, 69, 0
1, 120063, Note_on_c, 0, 69, 45
1, 120063, Note_on_c, 0, 52, 0
1, 120066, Note_on_c, 0, 57, 32
1, 120309, Note_on_c, 0, 57, 0
1, 120309, Note_on_c, 0, 52, 29
1, 120562, Note_on_c, 0, 69, 0
1, 120562, Note_on_c, 0, 67, 45
1, 120562, Note_on_c, 0, 52, 0
1, 120565, Note_on_c, 0, 48, 0
1, 120565, Note_on_c, 0, 50, 39
1, 120583, Control_c, 0, 64, 0
1, 120676, Control_c, 0, 64, 127
1, 120806, Note_on_c, 0, 67, 0
1, 120806, Note_on_c, 0, 66, 41
1, 120806, Note_on_c, 0, 60, 30
1, 121051, Note_on_c, 0, 66, 0
1, 121051, Note_on_c, 0, 66, 45
1, 121051, Note_on_c, 0, 60, 0
1, 121054, Note_on_c, 0, 57, 32
1, 121295, Note_on_c, 0, 66, 0
1, 121295, Note_on_c, 0, 62, 43
1, 121295, Note_on_c, 0, 57, 0
1, 121298, Note_on_c, 0, 60, 29
1, 121587, Note_on_c, 0, 62, 0
1, 121587, Note_on_c, 0, 67, 54
1, 121587, Note_on_c, 0, 60, 0
1, 121590, Note_on_c, 0, 50, 0
1, 121590, Note_on_c, 0, 59, 38
1, 121590, Note_on_c, 0, 55, 38
1, 121590, Control_c, 0, 64, 0
1, 122564, Note_on_c, 0, 67, 0
1, 122564, Note_on_c, 0, 79, 69
1, 122564, Note_on_c, 0, 73, 58
1, 122567, Note_on_c, 0, 67, 58
1, 122567, Note_on_c, 0, 55, 0
1, 122567, Note_on_c, 0, 59, 0
1, 122570, Note_on_c, 0, 51, 51
1, 122570, Note_on_c, 0, 63, 61
1, 122727, Control_c, 0, 64, 127
1, 123053, Note_on_c, 0, 67, 0
1, 123053, Note_on_c, 0, 73, 0
1, 123053, Note_on_c, 0, 79, 0
1, 123056, Note_on_c, 0, 73, 56
1, 123056, Note_on_c, 0, 79, 66
1, 123056, Note_on_c, 0, 67, 56
1, 123059, Note_on_c, 0, 63, 0
1, 123059, Note_on_c, 0, 51, 0
1, 123059, Note_on_c, 0, 51, 48
1, 123062, Note_on_c, 0, 63, 57
1, 123541, Note_on_c, 0, 67, 0
1, 123541, Note_on_c, 0, 79, 0
1, 123541, Note_on_c, 0, 73, 0
1, 123544, Note_on_c, 0, 73, 59
1, 123544, Note_on_c, 0, 79, 70
1, 123544, Note_on_c, 0, 67, 59
1, 123547, Note_on_c, 0, 63, 0
1, 123547, Note_on_c, 0, 51, 0
1, 123547, Note_on_c, 0, 51, 51
1, 123550, Note_on_c, 0, 63, 61
1, 124330, Control_c, 0, 64, 0
1, 124452, Note_on_c, 0, 67, 0
1, 124452, Note_on_c, 0, 79, 0
1, 124452, Note_on_c, 0, 73, 0
1, 124455, Note_on_c, 0, 63, 0
1, 124455, Note_on_c, 0, 51, 0
1, 124553, Note_on_c, 0, 78, 40
1, 124553, Note_on_c, 0, 86, 48
1, 124553, Note_on_c, 0, 69, 37
1, 124556, Note_on_c, 0, 62, 31
1, 124944, Note_on_c, 0, 86, 0
1, 124944, Note_on_c, 0, 78, 0
1, 124944, Note_on_c, 0, 62, 0
1, 124947, Note_on_c, 0, 69, 0
1, 125042, Note_on_c, 0, 86, 45
1, 125042, Note_on_c, 0, 78, 38
1, 125042, Note_on_c, 0, 69, 35
1, 125045, Note_on_c, 0, 62, 29
1, 125433, Note_on_c, 0, 78, 0
1, 125433, Note_on_c, 0, 86, 0
1, 125433, Note_on_c, 0, 62, 0
1, 125436, Note_on_c, 0, 69, 0
1, 125530, Note_on_c, 0, 86, 48
1, 125530, Note_on_c, 0, 78, 40
1, 125530, Note_on_c, 0, 62, 31
1, 125533, Note_on_c, 0, 69, 37
1, 126507, Note_on_c, 0, 78, 0
1, 126507, Note_on_c, 0, 86, 0
1, 126507, Note_on_c, 0, 69, 0
1, 126510, Note_on_c, 0, 62, 0
1, 126996, Note_on_c, 0, 71, 48
1, 127007, Control_c, 0, 64, 127
1, 127054, Note_on_c, 0, 71, 0
1, 127054, Note_on_c, 0, 72, 44
1, 127112, Note_on_c, 0, 72, 0
1, 127112, Note_on_c, 0, 71, 48
1, 127170, Note_on_c, 0, 71, 0
1, 127170, Note_on_c, 0, 69, 44
1, 127228, Note_on_c, 0, 69, 0
1, 127228, Note_on_c, 0, 71, 50
1, 127344, Note_on_c, 0, 71, 0
1, 127344, Note_on_c, 0, 72, 45
1, 127469, Note_on_c, 0, 72, 0
1, 127469, Note_on_c, 0, 74, 54
1, 127469, Note_on_c, 0, 55, 34
1, 127506, Control_c, 0, 64, 0
1, 127587, Control_c, 0, 64, 127
1, 127713, Note_on_c, 0, 55, 0
1, 127713, Note_on_c, 0, 59, 29
1, 127958, Note_on_c, 0, 74, 0
1, 127958, Note_on_c, 0, 74, 48
1, 127958, Note_on_c, 0, 59, 0
1, 127961, Note_on_c, 0, 62, 29
1, 128202, Note_on_c, 0, 62, 0
1, 128202, Note_on_c, 0, 59, 29
1, 128446, Note_on_c, 0, 59, 0
1, 128446, Note_on_c, 0, 55, 34
1, 128462, Control_c, 0, 64, 0
1, 128489, Control_c, 0, 64, 127
1, 128690, Note_on_c, 0, 74, 0
1, 128690, Note_on_c, 0, 74, 48
1, 128690, Note_on_c, 0, 55, 0
1, 128693, Note_on_c, 0, 59, 30
1, 128930, Note_on_c, 0, 74, 0
1, 128930, Note_on_c, 0, 74, 50
1, 128930, Note_on_c, 0, 59, 0
1, 128933, Note_on_c, 0, 62, 30
1, 128990, Note_on_c, 0, 74, 0
1, 128990, Note_on_c, 0, 76, 44
1, 129049, Note_on_c, 0, 76, 0
1, 129049, Note_on_c, 0, 74, 46
1, 129108, Note_on_c, 0, 74, 0
1, 129108, Note_on_c, 0, 73, 46
1, 129167, Note_on_c, 0, 73, 0
1, 129167, Note_on_c, 0, 74, 53
1, 129167, Note_on_c, 0, 62, 0
1, 129170, Note_on_c, 0, 59, 30
1, 129294, Note_on_c, 0, 74, 0
1, 129294, Note_on_c, 0, 76, 43
1, 129422, Note_on_c, 0, 76, 0
1, 129422, Note_on_c, 0, 74, 53
1, 129422, Note_on_c, 0, 59, 0
1, 129425, Note_on_c, 0, 55, 34
1, 129456, Control_c, 0, 64, 0
1, 129530, Control_c, 0, 64, 127
1, 129666, Note_on_c, 0, 74, 0
1, 129666, Note_on_c, 0, 72, 48
1, 129666, Note_on_c, 0, 55, 0
1, 129669, Note_on_c, 0, 57, 31
1, 129910, Note_on_c, 0, 72, 0
1, 129910, Note_on_c, 0, 72, 48
1, 129910, Note_on_c, 0, 57, 0
1, 129913, Note_on_c, 0, 64, 31
1, 130155, Note_on_c, 0, 64, 0
1, 130155, Note_on_c, 0, 57, 31
1, 130399, Note_on_c, 0, 57, 0
1, 130399, Note_on_c, 0, 55, 34
1, 130399, Control_c, 0, 64, 0
1, 130643, Note_on_c, 0, 72, 0
1, 130643, Note_on_c, 0, 72, 45
1, 130643, Note_on_c, 0, 55, 0
1, 130646, Note_on_c, 0, 57, 30
1, 130765, Note_on_c, 0, 72, 0
1, 130887, Note_on_c, 0, 71, 49
1, 130887, Note_on_c, 0, 57, 0
1, 130887, Note_on_c, 0, 64, 30
1, 131009, Note_on_c, 0, 71, 0
1, 131131, Note_on_c, 0, 69, 45
1, 131131, Note_on_c, 0, 64, 0
1, 131131, Note_on_c, 0, 57, 30
1, 131263, Note_on_c, 0, 69, 0
1, 131394, Note_on_c, 0, 69, 51
1, 131394, Note_on_c, 0, 57, 0
1, 131394, Note_on_c, 0, 54, 34
1, 131414, Control_c, 0, 64, 127
1, 131638, Note_on_c, 0, 69, 0
1, 131638, Note_on_c, 0, 74, 46
1, 131638, Note_on_c, 0, 54, 0
1, 131641, Note_on_c, 0, 57, 31
1, 131882, Note_on_c, 0, 74, 0
1, 131882, Note_on_c, 0, 74, 46
1, 131882, Note_on_c, 0, 57, 0
1, 131885, Note_on_c, 0, 62, 31
1, 132127, Note_on_c, 0, 62, 0
1, 132127, Note_on_c, 0, 57, 31
1, 132371, Note_on_c, 0, 57, 0
1, 132371, Note_on_c, 0, 52, 34
1, 132392, Control_c, 0, 64, 0
1, 132476, Control_c, 0, 64, 127
1, 132629, Note_on_c, 0, 74, 0
1, 132629, Note_on_c, 0, 76, 48
1, 132629, Note_on_c, 0, 52, 0
1, 132632, Note_on_c, 0, 55, 31
1, 132750, Note_on_c, 0, 76, 0
1, 132750, Note_on_c, 0, 74, 44
1, 132871, Note_on_c, 0, 74, 0
1, 132871, Note_on_c, 0, 74, 48
1, 132871, Note_on_c, 0, 55, 0
1, 132874, Note_on_c, 0, 60, 31
1, 132992, Note_on_c, 0, 74, 0
1, 132992, Note_on_c, 0, 72, 44
1, 133113, Note_on_c, 0, 72, 0
1, 133113, Note_on_c, 0, 71, 44
1, 133113, Note_on_c, 0, 60, 0
1, 133116, Note_on_c, 0, 55, 28
1, 133234, Note_on_c, 0, 71, 0
1, 133234, Note_on_c, 0, 72, 44
1, 133380, Note_on_c, 0, 72, 0
1, 133380, Note_on_c, 0, 72, 49
1, 133380, Note_on_c, 0, 55, 0
1, 133383, Note_on_c, 0, 51, 31
1, 133383, Control_c, 0, 64, 0
1, 133485, Control_c, 0, 64, 127
1, 133631, Note_on_c, 0, 72, 0
1, 133631, Note_on_c, 0, 71, 45
1, 133631, Note_on_c, 0, 51, 0
1, 133634, Note_on_c, 0, 54, 32
1, 133873, Note_on_c, 0, 71, 0
1, 133873, Note_on_c, 0, 71, 48
1, 133873, Note_on_c, 0, 54, 0
1, 133876, Note_on_c, 0, 57, 32
1, 134115, Note_on_c, 0, 57, 0
1, 134115, Note_on_c, 0, 51, 32
1, 134357, Note_on_c, 0, 51, 0
1, 134357, Note_on_c, 0, 52, 34
1, 134395, Control_c, 0, 64, 0
1, 134493, Control_c, 0, 64, 127
1, 134501, Note_on_c, 0, 71, 0
1, 134501, Note_on_c, 0, 71, 44
1, 134559, Note_on_c, 0, 71, 0
1, 134559, Note_on_c, 0, 72, 44
1, 134617, Note_on_c, 0, 72, 0
1, 134617, Note_on_c, 0, 74, 48
1, 134617, Note_on_c, 0, 52, 0
1, 134620, Note_on_c, 0, 59, 32
1, 134739, Note_on_c, 0, 74, 0
1, 134834, Control_c, 0, 64, 0
1, 134861, Note_on_c, 0, 72, 46
1, 134861, Note_on_c, 0, 59, 0
1, 134861, Note_on_c, 0, 50, 32
1, 134983, Note_on_c, 0, 72, 0
1, 135105, Note_on_c, 0, 71, 46
1, 135105, Note_on_c, 0, 50, 0
1, 135105, Note_on_c, 0, 55, 32
1, 135236, Note_on_c, 0, 71, 0
1, 135368, Note_on_c, 0, 71, 51
1, 135368, Note_on_c, 0, 55, 0
1, 135368, Note_on_c, 0, 49, 34
1, 135382, Control_c, 0, 64, 127
1, 135612, Note_on_c, 0, 71, 0
1, 135612, Note_on_c, 0, 69, 46
1, 135612, Note_on_c, 0, 49, 0
1, 135615, Note_on_c, 0, 52, 27
1, 135856, Note_on_c, 0, 69, 0
1, 135856, Note_on_c, 0, 69, 46
1, 135856, Note_on_c, 0, 52, 0
1, 135859, Note_on_c, 0, 55, 31
1, 135978, Note_on_c, 0, 69, 0
1, 136100, Note_on_c, 0, 69, 48
1, 136100, Note_on_c, 0, 55, 0
1, 136100, Note_on_c, 0, 52, 28
1, 136222, Note_on_c, 0, 69, 0
1, 136344, Note_on_c, 0, 69, 48
1, 136344, Note_on_c, 0, 52, 0
1, 136344, Note_on_c, 0, 49, 34
1, 136365, Control_c, 0, 64, 0
1, 136473, Control_c, 0, 64, 127
1, 136589, Note_on_c, 0, 49, 0
1, 136589, Note_on_c, 0, 52, 29
1, 136833, Note_on_c, 0, 69, 0
1, 136833, Note_on_c, 0, 69, 48
1, 136833, Note_on_c, 0, 52, 0
1, 136836, Note_on_c, 0, 55, 32
1, 137077, Note_on_c, 0, 73, 48
1, 137077, Note_on_c, 0, 55, 0
1, 137077, Note_on_c, 0, 52, 29
1, 137162, Note_on_c, 0, 73, 0
1, 137162, Note_on_c, 0, 74, 48
1, 137205, Note_on_c, 0, 69, 0
1, 137253, Note_on_c, 0, 74, 0
1, 137253, Note_on_c, 0, 76, 48
1, 137348, Note_on_c, 0, 76, 0
1, 137348, Note_on_c, 0, 74, 53
1, 137348, Note_on_c, 0, 52, 0
1, 137351, Note_on_c, 0, 48, 34
1, 137351, Control_c, 0, 64, 0
1, 137427, Control_c, 0, 64, 127
1, 137592, Note_on_c, 0, 48, 0
1, 137592, Note_on_c, 0, 54, 26
1, 137837, Note_on_c, 0, 54, 0
1, 137837, Note_on_c, 0, 57, 29
1, 138081, Note_on_c, 0, 57, 0
1, 138081, Note_on_c, 0, 48, 25
1, 138336, Note_on_c, 0, 48, 0
1, 138336, Note_on_c, 0, 47, 34
1, 138358, Control_c, 0, 64, 0
1, 138430, Control_c, 0, 64, 127
1, 138580, Note_on_c, 0, 74, 0
1, 138580, Note_on_c, 0, 76, 52
1, 138580, Note_on_c, 0, 47, 0
1, 138583, Note_on_c, 0, 55, 26
1, 138702, Note_on_c, 0, 76, 0
1, 138702, Note_on_c, 0, 74, 48
1, 138825, Note_on_c, 0, 74, 0
1, 138825, Note_on_c, 0, 72, 51
1, 138825, Note_on_c, 0, 55, 0
1, 138828, Note_on_c, 0, 52, 29
1, 139069, Note_on_c, 0, 72, 0
1, 139069, Note_on_c, 0, 71, 48
1, 139069, Note_on_c, 0, 52, 0
1, 139072, Note_on_c, 0, 50, 26
1, 139322, Note_on_c, 0, 71, 0
1, 139322, Note_on_c, 0, 71, 53
1, 139322, Note_on_c, 0, 50, 0
1, 139325, Note_on_c, 0, 52, 33
1, 139325, Note_on_c, 0, 48, 33
1, 139325, Control_c, 0, 64, 0
1, 139566, Note_on_c, 0, 71, 0
1, 139566, Note_on_c, 0, 69, 45
1, 139810, Note_on_c, 0, 69, 0
1, 139810, Note_on_c, 0, 68, 50
1, 140054, Note_on_c, 0, 68, 0
1, 140054, Note_on_c, 0, 69, 45
1, 140299, Note_on_c, 0, 69, 0
1, 140299, Note_on_c, 0, 71, 48
1, 140543, Note_on_c, 0, 71, 0
1, 140543, Note_on_c, 0, 72, 44
1, 140787, Note_on_c, 0, 72, 0
1, 140787, Note_on_c, 0, 64, 42
1, 140787, Note_on_c, 0, 48, 0
1, 140790, Note_on_c, 0, 52, 0
1, 140790, Note_on_c, 0, 57, 32
1, 140790, Note_on_c, 0, 49, 32
1, 141031, Note_on_c, 0, 64, 0
1, 141031, Note_on_c, 0, 69, 42
1, 141276, Note_on_c, 0, 69, 0
1, 141276, Note_on_c, 0, 67, 48
1, 141276, Note_on_c, 0, 49, 0
1, 141279, Note_on_c, 0, 57, 0
1, 141279, Note_on_c, 0, 57, 35
1, 141279, Note_on_c, 0, 50, 35
1, 141520, Note_on_c, 0, 67, 0
1, 141520, Note_on_c, 0, 66, 45
1, 141764, Note_on_c, 0, 66, 0
1, 141764, Note_on_c, 0, 64, 41
1, 142008, Note_on_c, 0, 64, 0
1, 142008, Note_on_c, 0, 62, 41
1, 142253, Note_on_c, 0, 62, 0
1, 142253, Note_on_c, 0, 64, 42
1, 142253, Note_on_c, 0, 50, 0
1, 142256, Note_on_c, 0, 57, 0
1, 142497, Note_on_c, 0, 64, 0
1, 142497, Note_on_c, 0, 66, 44
1, 142741, Note_on_c, 0, 66, 0
1, 142741, Note_on_c, 0, 67, 47
1, 142985, Note_on_c, 0, 67, 0
1, 142985, Note_on_c, 0, 69, 49
1, 143229, Note_on_c, 0, 69, 0
1, 143229, Note_on_c, 0, 71, 50
1, 143229, Note_on_c, 0, 67, 36
1, 143236, Control_c, 0, 64, 127
1, 143482, Note_on_c, 0, 67, 0
1, 143482, Note_on_c, 0, 62, 29
1, 143609, Note_on_c, 0, 71, 0
1, 143609, Note_on_c, 0, 74, 42
1, 143723, Note_on_c, 0, 74, 0
1, 143723, Note_on_c, 0, 72, 50
1, 143723, Note_on_c, 0, 62, 0
1, 143726, Note_on_c, 0, 67, 33
1, 143744, Control_c, 0, 64, 0
1, 143781, Control_c, 0, 64, 127
1, 143970, Note_on_c, 0, 67, 0
1, 143970, Note_on_c, 0, 62, 29
1, 144093, Note_on_c, 0, 72, 0
1, 144093, Note_on_c, 0, 71, 47
1, 144216, Note_on_c, 0, 71, 0
1, 144216, Note_on_c, 0, 69, 50
1, 144216, Note_on_c, 0, 62, 0
1, 144219, Note_on_c, 0, 66, 36
1, 144241, Control_c, 0, 64, 0
1, 144314, Control_c, 0, 64, 127
1, 144462, Note_on_c, 0, 66, 0
1, 144462, Note_on_c, 0, 62, 28
1, 144709, Note_on_c, 0, 69, 0
1, 144709, Note_on_c, 0, 71, 46
1, 144709, Note_on_c, 0, 62, 0
1, 144712, Note_on_c, 0, 67, 32
1, 144715, Control_c, 0, 64, 0
1, 144780, Control_c, 0, 64, 127
1, 144955, Note_on_c, 0, 67, 0
1, 144955, Note_on_c, 0, 62, 28
1, 145220, Note_on_c, 0, 71, 0
1, 145220, Note_on_c, 0, 72, 50
1, 145220, Note_on_c, 0, 62, 0
1, 145223, Note_on_c, 0, 69, 36
1, 145249, Control_c, 0, 64, 0
1, 145384, Control_c, 0, 64, 127
1, 145466, Note_on_c, 0, 69, 0
1, 145466, Note_on_c, 0, 62, 28
1, 145713, Note_on_c, 0, 72, 0
1, 145713, Note_on_c, 0, 74, 46
1, 145713, Note_on_c, 0, 62, 0
1, 145716, Note_on_c, 0, 66, 31
1, 145725, Control_c, 0, 64, 0
1, 145805, Control_c, 0, 64, 127
1, 145959, Note_on_c, 0, 66, 0
1, 145959, Note_on_c, 0, 62, 28
1, 146205, Note_on_c, 0, 74, 0
1, 146205, Note_on_c, 0, 72, 47
1, 146205, Note_on_c, 0, 62, 0
1, 146208, Note_on_c, 0, 67, 36
1, 146240, Control_c, 0, 64, 0
1, 146404, Control_c, 0, 64, 127
1, 146451, Note_on_c, 0, 67, 0
1, 146451, Note_on_c, 0, 62, 29
1, 146698, Note_on_c, 0, 72, 0
1, 146698, Note_on_c, 0, 71, 51
1, 146698, Note_on_c, 0, 62, 0
1, 146701, Note_on_c, 0, 67, 33
1, 146712, Control_c, 0, 64, 0
1, 146849, Control_c, 0, 64, 127
1, 146944, Note_on_c, 0, 67, 0
1, 146944, Note_on_c, 0, 62, 29
1, 147225, Note_on_c, 0, 71, 0
1, 147225, Note_on_c, 0, 86, 45
1, 147225, Note_on_c, 0, 62, 0
1, 147228, Note_on_c, 0, 55, 38
1, 147228, Note_on_c, 0, 59, 45
1, 147228, Control_c, 0, 64, 0
1, 147288, Note_on_c, 0, 86, 0
1, 147288, Note_on_c, 0, 88, 40
1, 147311, Control_c, 0, 64, 127
1, 147351, Note_on_c, 0, 88, 0
1, 147351, Note_on_c, 0, 86, 45
1, 147415, Note_on_c, 0, 86, 0
1, 147415, Note_on_c, 0, 88, 41
1, 147478, Note_on_c, 0, 88, 0
1, 147478, Note_on_c, 0, 86, 45
1, 147541, Note_on_c, 0, 86, 0
1, 147541, Note_on_c, 0, 88, 40
1, 147604, Note_on_c, 0, 88, 0
1, 147604, Note_on_c, 0, 86, 45
1, 147604, Note_on_c, 0, 59, 0
1, 147607, Note_on_c, 0, 55, 0
1, 147607, Note_on_c, 0, 62, 37
1, 147661, Note_on_c, 0, 86, 0
1, 147661, Note_on_c, 0, 88, 39
1, 147719, Note_on_c, 0, 88, 0
1, 147719, Note_on_c, 0, 86, 45
1, 147719, Note_on_c, 0, 62, 0
1, 147722, Note_on_c, 0, 57, 38
1, 147722, Note_on_c, 0, 60, 45
1, 147727, Control_c, 0, 64, 0
1, 147780, Note_on_c, 0, 86, 0
1, 147780, Note_on_c, 0, 88, 40
1, 147780, Control_c, 0, 64, 127
1, 147840, Note_on_c, 0, 88, 0
1, 147840, Note_on_c, 0, 86, 45
1, 147900, Note_on_c, 0, 86, 0
1, 147900, Note_on_c, 0, 88, 40
1, 147961, Note_on_c, 0, 88, 0
1, 147961, Note_on_c, 0, 86, 45
1, 148022, Note_on_c, 0, 86, 0
1, 148022, Note_on_c, 0, 88, 40
1, 148083, Note_on_c, 0, 88, 0
1, 148083, Note_on_c, 0, 86, 45
1, 148083, Note_on_c, 0, 60, 0
1, 148086, Note_on_c, 0, 57, 0
1, 148086, Note_on_c, 0, 55, 35
1, 148086, Note_on_c, 0, 59, 42
1, 148144, Note_on_c, 0, 86, 0
1, 148144, Note_on_c, 0, 88, 41
1, 148204, Note_on_c, 0, 88, 0
1, 148204, Note_on_c, 0, 86, 45
1, 148204, Note_on_c, 0, 59, 0
1, 148207, Note_on_c, 0, 55, 0
1, 148207, Note_on_c, 0, 54, 38
1, 148207, Note_on_c, 0, 57, 45
1, 148222, Control_c, 0, 64, 0
1, 148266, Note_on_c, 0, 86, 0
1, 148266, Note_on_c, 0, 88, 40
1, 148294, Control_c, 0, 64, 127
1, 148327, Note_on_c, 0, 88, 0
1, 148327, Note_on_c, 0, 86, 45
1, 148389, Note_on_c, 0, 86, 0
1, 148389, Note_on_c, 0, 88, 40
1, 148448, Note_on_c, 0, 88, 0
1, 148448, Note_on_c, 0, 86, 45
1, 148508, Note_on_c, 0, 86, 0
1, 148508, Note_on_c, 0, 88, 41
1, 148568, Note_on_c, 0, 88, 0
1, 148568, Note_on_c, 0, 86, 45
1, 148628, Note_on_c, 0, 86, 0
1, 148628, Note_on_c, 0, 88, 40
1, 148689, Note_on_c, 0, 88, 0
1, 148689, Note_on_c, 0, 86, 45
1, 148689, Note_on_c, 0, 57, 0
1, 148692, Note_on_c, 0, 54, 0
1, 148692, Note_on_c, 0, 55, 34
1, 148692, Note_on_c, 0, 59, 41
1, 148717, Control_c, 0, 64, 0
1, 148749, Note_on_c, 0, 86, 0
1, 148749, Note_on_c, 0, 88, 40
1, 148796, Control_c, 0, 64, 127
1, 148810, Note_on_c, 0, 88, 0
1, 148810, Note_on_c, 0, 86, 45
1, 148870, Note_on_c, 0, 86, 0
1, 148870, Note_on_c, 0, 88, 41
1, 148931, Note_on_c, 0, 88, 0
1, 148931, Note_on_c, 0, 86, 45
1, 148992, Note_on_c, 0, 86, 0
1, 148992, Note_on_c, 0, 88, 40
1, 149054, Note_on_c, 0, 88, 0
1, 149054, Note_on_c, 0, 86, 45
1, 149117, Note_on_c, 0, 86, 0
1, 149117, Note_on_c, 0, 88, 41
1, 149179, Note_on_c, 0, 88, 0
1, 149179, Note_on_c, 0, 86, 45
1, 149179, Note_on_c, 0, 59, 0
1, 149182, Note_on_c, 0, 55, 0
1, 149182, Note_on_c, 0, 57, 38
1, 149182, Note_on_c, 0, 60, 45
1, 149202, Control_c, 0, 64, 0
1, 149241, Note_on_c, 0, 86, 0
1, 149241, Note_on_c, 0, 88, 42
1, 149278, Control_c, 0, 64, 127
1, 149302, Note_on_c, 0, 88, 0
1, 149302, Note_on_c, 0, 86, 45
1, 149362, Note_on_c, 0, 86, 0
1, 149362, Note_on_c, 0, 88, 41
1, 149423, Note_on_c, 0, 88, 0
1, 149423, Note_on_c, 0, 86, 44
1, 149485, Note_on_c, 0, 86, 0
1, 149485, Note_on_c, 0, 88, 38
1, 149547, Note_on_c, 0, 88, 0
1, 149547, Note_on_c, 0, 86, 44
1, 149608, Note_on_c, 0, 86, 0
1, 149608, Note_on_c, 0, 88, 39
1, 149669, Note_on_c, 0, 88, 0
1, 149669, Note_on_c, 0, 86, 43
1, 149669, Note_on_c, 0, 60, 0
1, 149672, Note_on_c, 0, 57, 0
1, 149672, Note_on_c, 0, 59, 34
1, 149672, Note_on_c, 0, 62, 41
1, 149693, Control_c, 0, 64, 0
1, 149730, Note_on_c, 0, 86, 0
1, 149730, Note_on_c, 0, 88, 38
1, 149751, Control_c, 0, 64, 127
1, 149792, Note_on_c, 0, 88, 0
1, 149792, Note_on_c, 0, 86, 42
1, 149854, Note_on_c, 0, 86, 0
1, 149854, Note_on_c, 0, 88, 38
1, 149915, Note_on_c, 0, 88, 0
1, 149915, Note_on_c, 0, 86, 42
1, 149975, Note_on_c, 0, 86, 0
1, 149975, Note_on_c, 0, 88, 39
1, 150036, Note_on_c, 0, 88, 0
1, 150036, Note_on_c, 0, 86, 43
1, 150096, Note_on_c, 0, 86, 0
1, 150096, Note_on_c, 0, 88, 39
1, 150157, Note_on_c, 0, 88, 0
1, 150157, Note_on_c, 0, 86, 43
1, 150157, Note_on_c, 0, 62, 0
1, 150160, Note_on_c, 0, 59, 0
1, 150160, Note_on_c, 0, 57, 35
1, 150160, Note_on_c, 0, 60, 42
1, 150180, Control_c, 0, 64, 0
1, 150218, Note_on_c, 0, 86, 0
1, 150218, Note_on_c, 0, 88, 38
1, 150245, Control_c, 0, 64, 127
1, 150280, Note_on_c, 0, 88, 0
1, 150280, Note_on_c, 0, 86, 43
1, 150342, Note_on_c, 0, 86, 0
1, 150342, Note_on_c, 0, 88, 38
1, 150405, Note_on_c, 0, 88, 0
1, 150405, Note_on_c, 0, 86, 43
1, 150466, Note_on_c, 0, 86, 0
1, 150466, Note_on_c, 0, 88, 38
1, 150527, Note_on_c, 0, 88, 0
1, 150527, Note_on_c, 0, 86, 43
1, 150587, Note_on_c, 0, 86, 0
1, 150587, Note_on_c, 0, 88, 39
1, 150648, Note_on_c, 0, 88, 0
1, 150648, Note_on_c, 0, 86, 43
1, 150648, Note_on_c, 0, 60, 0
1, 150651, Note_on_c, 0, 57, 0
1, 150651, Note_on_c, 0, 55, 38
1, 150651, Note_on_c, 0, 59, 45
1, 150671, Control_c, 0, 64, 0
1, 150731, Note_on_c, 0, 86, 0
1, 150731, Note_on_c, 0, 88, 45
1, 150772, Control_c, 0, 64, 127
1, 150813, Note_on_c, 0, 88, 0
1, 150813, Note_on_c, 0, 86, 52
1, 150895, Note_on_c, 0, 86, 0
1, 150895, Note_on_c, 0, 85, 58
1, 151024, Note_on_c, 0, 85, 0
1, 151024, Note_on_c, 0, 86, 54
1, 151116, Control_c, 0, 64, 0
1, 151152, Note_on_c, 0, 86, 0
1, 151152, Note_on_c, 0, 79, 66
1, 151152, Note_on_c, 0, 67, 56
1, 151155, Note_on_c, 0, 59, 0
1, 151155, Note_on_c, 0, 55, 0
1, 151155, Note_on_c, 0, 59, 59
1, 151158, Note_on_c, 0, 62, 59
1, 151654, Note_on_c, 0, 67, 0
1, 151654, Note_on_c, 0, 79, 0
1, 151654, Note_on_c, 0, 78, 60
1, 151657, Note_on_c, 0, 66, 50
1, 151657, Note_on_c, 0, 62, 0
1, 151657, Note_on_c, 0, 59, 0
1, 151660, Note_on_c, 0, 57, 42
1, 151660, Note_on_c, 0, 60, 42
1, 151660, Note_on_c, 0, 63, 51
1, 152142, Note_on_c, 0, 66, 0
1, 152142, Note_on_c, 0, 78, 0
1, 152142, Note_on_c, 0, 64, 53
1, 152145, Note_on_c, 0, 76, 62
1, 152145, Note_on_c, 0, 63, 0
1, 152145, Note_on_c, 0, 60, 0
1, 152148, Note_on_c, 0, 57, 0
1, 152148, Note_on_c, 0, 55, 44
1, 152148, Note_on_c, 0, 59, 53
1, 152644, Note_on_c, 0, 76, 0
1, 152644, Note_on_c, 0, 64, 0
1, 152644, Note_on_c, 0, 59, 0
1, 152647, Note_on_c, 0, 55, 0
1, 152895, Note_on_c, 0, 71, 40
1, 153146, Note_on_c, 0, 71, 0
1, 153146, Note_on_c, 0, 64, 38
1, 153146, Note_on_c, 0, 76, 45
1, 153149, Note_on_c, 0, 55, 29
1, 153149, Note_on_c, 0, 59, 35
1, 153652, Note_on_c, 0, 76, 0
1, 153652, Note_on_c, 0, 64, 0
1, 153652, Note_on_c, 0, 62, 34
1, 153655, Note_on_c, 0, 74, 40
1, 153655, Note_on_c, 0, 59, 0
1, 153655, Note_on_c, 0, 55, 0
1, 153658, Note_on_c, 0, 53, 29
1, 153658, Note_on_c, 0, 55, 29
1, 153658, Note_on_c, 0, 59, 35
1, 154158, Note_on_c, 0, 74, 0
1, 154158, Note_on_c, 0, 62, 0
1, 154158, Note_on_c, 0, 60, 37
1, 154161, Note_on_c, 0, 72, 44
1, 154161, Note_on_c, 0, 59, 0
1, 154161, Note_on_c, 0, 55, 0
1, 154164, Note_on_c, 0, 53, 0
1, 154164, Note_on_c, 0, 52, 29
1, 154164, Note_on_c, 0, 55, 35
1, 154664, Note_on_c, 0, 72, 0
1, 154664, Note_on_c, 0, 60, 0
1, 154664, Note_on_c, 0, 55, 0
1, 154667, Note_on_c, 0, 52, 0
1, 154917, Note_on_c, 0, 67, 60
1, 155170, Note_on_c, 0, 67, 0
1, 155170, Note_on_c, 0, 72, 66
1, 155170, Note_on_c, 0, 60, 56
1, 155173, Note_on_c, 0, 52, 59
1, 155173, Note_on_c, 0, 55, 59
1, 155671, Note_on_c, 0, 60, 0
1, 155671, Note_on_c, 0, 72, 0
1, 155671, Note_on_c, 0, 59, 50
1, 155674, Note_on_c, 0, 71, 60
1, 155674, Note_on_c, 0, 55, 0
1, 155674, Note_on_c, 0, 52, 0
1, 155677, Note_on_c, 0, 50, 42
1, 155677, Note_on_c, 0, 53, 42
1, 155677, Note_on_c, 0, 56, 51
1, 156160, Note_on_c, 0, 71, 0
1, 156160, Note_on_c, 0, 59, 0
1, 156160, Note_on_c, 0, 69, 62
1, 156163, Note_on_c, 0, 56, 0
1, 156163, Note_on_c, 0, 53, 0
1, 156163, Note_on_c, 0, 50, 0
1, 156166, Note_on_c, 0, 48, 44
1, 156166, Note_on_c, 0, 52, 44
1, 156166, Note_on_c, 0, 57, 53
1, 156411, Note_on_c, 0, 69, 0
1, 156411, Note_on_c, 0, 76, 56
1, 156661, Note_on_c, 0, 76, 0
1, 156661, Note_on_c, 0, 74, 50
1, 156782, Note_on_c, 0, 74, 0
1, 156782, Note_on_c, 0, 72, 46
1, 156903, Note_on_c, 0, 72, 0
1, 156903, Note_on_c, 0, 71, 50
1, 157025, Note_on_c, 0, 71, 0
1, 157025, Note_on_c, 0, 69, 46
1, 157160, Note_on_c, 0, 69, 0
1, 157160, Note_on_c, 0, 67, 50
1, 157160, Note_on_c, 0, 57, 0
1, 157163, Note_on_c, 0, 52, 0
1, 157163, Note_on_c, 0, 48, 0
1, 157163, Note_on_c, 0, 59, 40
1, 157166, Note_on_c, 0, 50, 40
1, 157661, Note_on_c, 0, 67, 0
1, 157661, Note_on_c, 0, 69, 45
1, 157661, Note_on_c, 0, 59, 0
1, 157664, Note_on_c, 0, 54, 38
1, 158163, Note_on_c, 0, 69, 0
1, 158163, Note_on_c, 0, 70, 53
1, 158163, Note_on_c, 0, 54, 0
1, 158166, Note_on_c, 0, 50, 0
1, 158166, Note_on_c, 0, 54, 40
1, 158166, Note_on_c, 0, 43, 40
1, 158678, Note_on_c, 0, 70, 0
1, 158678, Note_on_c, 0, 71, 49
1, 158678, Note_on_c, 0, 54, 0
1, 158681, Note_on_c, 0, 55, 38
1, 159180, Note_on_c, 0, 71, 0
1, 159180, Note_on_c, 0, 79, 66
1, 159180, Note_on_c, 0, 55, 0
1, 159183, Note_on_c, 0, 43, 0
1, 159183, Note_on_c, 0, 59, 53
1, 159183, Note_on_c, 0, 62, 53
1, 159681, Note_on_c, 0, 79, 0
1, 159681, Note_on_c, 0, 78, 60
1, 159681, Note_on_c, 0, 62, 0
1, 159684, Note_on_c, 0, 59, 0
1, 159684, Note_on_c, 0, 57, 37
1, 159684, Note_on_c, 0, 60, 37
1, 159687, Note_on_c, 0, 63, 45
1, 159687, Control_c, 0, 64, 127
1, 159742, Note_on_c, 0, 78, 0
1, 159742, Note_on_c, 0, 79, 54
1, 159803, Note_on_c, 0, 79, 0
1, 159803, Note_on_c, 0, 78, 60
1, 159864, Note_on_c, 0, 78, 0
1, 159864, Note_on_c, 0, 79, 55
1, 159925, Note_on_c, 0, 79, 0
1, 159925, Note_on_c, 0, 78, 60
1, 159986, Note_on_c, 0, 78, 0
1, 159986, Note_on_c, 0, 79, 55
1, 160048, Note_on_c, 0, 79, 0
1, 160048, Note_on_c, 0, 78, 60
1, 160109, Note_on_c, 0, 78, 0
1, 160109, Note_on_c, 0, 79, 55
1, 160170, Note_on_c, 0, 79, 0
1, 160170, Note_on_c, 0, 76, 62
1, 160170, Note_on_c, 0, 63, 0
1, 160173, Note_on_c, 0, 60, 0
1, 160173, Note_on_c, 0, 57, 0
1, 160173, Note_on_c, 0, 64, 47
1, 160176, Note_on_c, 0, 55, 39
1, 160176, Note_on_c, 0, 59, 47
1, 160176, Control_c, 0, 64, 0
1, 160671, Note_on_c, 0, 76, 0
1, 160671, Note_on_c, 0, 59, 0
1, 160671, Note_on_c, 0, 55, 0
1, 160674, Note_on_c, 0, 64, 0
1, 160922, Note_on_c, 0, 83, 40
1, 161173, Note_on_c, 0, 83, 0
1, 161173, Note_on_c, 0, 88, 45
1, 161173, Note_on_c, 0, 67, 29
1, 161176, Note_on_c, 0, 71, 35
1, 161679, Note_on_c, 0, 88, 0
1, 161679, Note_on_c, 0, 86, 48
1, 161679, Note_on_c, 0, 71, 0
1, 161682, Note_on_c, 0, 67, 0
1, 161682, Note_on_c, 0, 65, 29
1, 161682, Note_on_c, 0, 67, 29
1, 161685, Note_on_c, 0, 71, 35
1, 161685, Control_c, 0, 64, 127
1, 161742, Note_on_c, 0, 86, 0
1, 161742, Note_on_c, 0, 88, 42
1, 161805, Note_on_c, 0, 88, 0
1, 161805, Note_on_c, 0, 86, 50
1, 161869, Note_on_c, 0, 86, 0
1, 161869, Note_on_c, 0, 88, 44
1, 161932, Note_on_c, 0, 88, 0
1, 161932, Note_on_c, 0, 86, 49
1, 161995, Note_on_c, 0, 86, 0
1, 161995, Note_on_c, 0, 88, 42
1, 162058, Note_on_c, 0, 88, 0
1, 162058, Note_on_c, 0, 86, 50
1, 162122, Note_on_c, 0, 86, 0
1, 162122, Note_on_c, 0, 88, 47
1, 162185, Note_on_c, 0, 88, 0
1, 162185, Note_on_c, 0, 84, 44
1, 162185, Note_on_c, 0, 71, 0
1, 162188, Note_on_c, 0, 67, 0
1, 162188, Note_on_c, 0, 65, 0
1, 162188, Note_on_c, 0, 72, 35
1, 162191, Note_on_c, 0, 64, 29
1, 162191, Note_on_c, 0, 67, 35
1, 162204, Control_c, 0, 64, 0
1, 162691, Note_on_c, 0, 84, 0
1, 162691, Note_on_c, 0, 67, 0
1, 162691, Note_on_c, 0, 64, 0
1, 162694, Note_on_c, 0, 72, 0
1, 162944, Note_on_c, 0, 79, 60
1, 163197, Note_on_c, 0, 79, 0
1, 163197, Note_on_c, 0, 84, 66
1, 163197, Note_on_c, 0, 64, 59
1, 163200, Note_on_c, 0, 67, 59
1, 163699, Note_on_c, 0, 84, 0
1, 163699, Note_on_c, 0, 67, 0
1, 163699, Note_on_c, 0, 64, 0
1, 163702, Note_on_c, 0, 62, 42
1, 163702, Note_on_c, 0, 65, 42
1, 163702, Note_on_c, 0, 68, 51
1, 163705, Note_on_c, 0, 83, 57
1, 163766, Note_on_c, 0, 83, 0
1, 163766, Note_on_c, 0, 84, 54
1, 163827, Note_on_c, 0, 84, 0
1, 163827, Note_on_c, 0, 83, 59
1, 163888, Note_on_c, 0, 83, 0
1, 163888, Note_on_c, 0, 84, 54
1, 163949, Note_on_c, 0, 84, 0
1, 163949, Note_on_c, 0, 83, 57
1, 164010, Note_on_c, 0, 83, 0
1, 164010, Note_on_c, 0, 84, 52
1, 164071, Note_on_c, 0, 84, 0
1, 164071, Note_on_c, 0, 83, 56
1, 164132, Note_on_c, 0, 83, 0
1, 164132, Note_on_c, 0, 84, 52
1, 164187, Note_on_c, 0, 81, 62
1, 164187, Note_on_c, 0, 68, 0
1, 164187, Note_on_c, 0, 65, 0
1, 164190, Note_on_c, 0, 62, 0
1, 164190, Note_on_c, 0, 60, 44
1, 164190, Note_on_c, 0, 64, 44
1, 164193, Note_on_c, 0, 69, 53
1, 164193, Note_on_c, 0, 84, 0
1, 164438, Note_on_c, 0, 81, 0
1, 164438, Note_on_c, 0, 88, 58
1, 164689, Note_on_c, 0, 88, 0
1, 164689, Note_on_c, 0, 86, 55
1, 164810, Note_on_c, 0, 86, 0
1, 164810, Note_on_c, 0, 84, 47
1, 164931, Note_on_c, 0, 84, 0
1, 164931, Note_on_c, 0, 83, 50
1, 165052, Note_on_c, 0, 83, 0
1, 165052, Note_on_c, 0, 81, 46
1, 165187, Note_on_c, 0, 81, 0
1, 165187, Note_on_c, 0, 79, 47
1, 165187, Note_on_c, 0, 69, 0
1, 165190, Note_on_c, 0, 64, 0
1, 165190, Note_on_c, 0, 60, 0
1, 165190, Note_on_c, 0, 67, 34
1, 165193, Note_on_c, 0, 71, 40
1, 165193, Note_on_c, 0, 62, 34
1, 165312, Note_on_c, 0, 79, 0
1, 165437, Note_on_c, 0, 81, 47
1, 165563, Note_on_c, 0, 81, 0
1, 165688, Note_on_c, 0, 82, 47
1, 165688, Note_on_c, 0, 62, 0
1, 165688, Note_on_c, 0, 71, 0
1, 165691, Note_on_c, 0, 67, 0
1, 165814, Note_on_c, 0, 82, 0
1, 165939, Note_on_c, 0, 83, 47
1, 166064, Note_on_c, 0, 83, 0
1, 166190, Note_on_c, 0, 84, 49
1, 166190, Note_on_c, 0, 67, 32
1, 166190, Note_on_c, 0, 71, 37
1, 166193, Note_on_c, 0, 62, 32
1, 166320, Note_on_c, 0, 84, 0
1, 166450, Note_on_c, 0, 85, 52
1, 166580, Note_on_c, 0, 85, 0
1, 166705, Note_on_c, 0, 86, 55
1, 166705, Note_on_c, 0, 62, 0
1, 166705, Note_on_c, 0, 71, 0
1, 166708, Note_on_c, 0, 67, 0
1, 166831, Note_on_c, 0, 86, 0
1, 166956, Note_on_c, 0, 87, 58
1, 167207, Note_on_c, 0, 62, 32
1, 167207, Note_on_c, 0, 67, 32
1, 167207, Note_on_c, 0, 72, 37
1, 167332, Note_on_c, 0, 87, 0
1, 167332, Note_on_c, 0, 88, 57
1, 167458, Note_on_c, 0, 88, 0
1, 167458, Note_on_c, 0, 87, 65
1, 167583, Note_on_c, 0, 87, 0
1, 167583, Note_on_c, 0, 88, 57
1, 167708, Note_on_c, 0, 88, 0
1, 167708, Note_on_c, 0, 86, 64
1, 167708, Note_on_c, 0, 72, 0
1, 167711, Note_on_c, 0, 67, 0
1, 167711, Note_on_c, 0, 62, 0
1, 167834, Note_on_c, 0, 86, 0
1, 167834, Note_on_c, 0, 84, 61
1, 167959, Note_on_c, 0, 84, 0
1, 167959, Note_on_c, 0, 83, 59
1, 168085, Note_on_c, 0, 83, 0
1, 168085, Note_on_c, 0, 81, 57
1, 168210, Note_on_c, 0, 81, 0
1, 168210, Note_on_c, 0, 81, 50
1, 168210, Note_on_c, 0, 66, 28
1, 168213, Note_on_c, 0, 62, 28
1, 168213, Note_on_c, 0, 72, 34
1, 168271, Note_on_c, 0, 81, 0
1, 168271, Note_on_c, 0, 83, 45
1, 168331, Note_on_c, 0, 83, 0
1, 168331, Note_on_c, 0, 81, 50
1, 168391, Note_on_c, 0, 81, 0
1, 168391, Note_on_c, 0, 83, 44
1, 168452, Note_on_c, 0, 83, 0
1, 168452, Note_on_c, 0, 81, 50
1, 168513, Note_on_c, 0, 81, 0
1, 168513, Note_on_c, 0, 83, 45
1, 168574, Note_on_c, 0, 83, 0
1, 168574, Note_on_c, 0, 81, 50
1, 168635, Note_on_c, 0, 81, 0
1, 168635, Note_on_c, 0, 83, 45
1, 168697, Note_on_c, 0, 83, 0
1, 168697, Note_on_c, 0, 81, 50
1, 168697, Note_on_c, 0, 72, 0
1, 168700, Note_on_c, 0, 62, 0
1, 168700, Note_on_c, 0, 66, 0
1, 168779, Note_on_c, 0, 81, 0
1, 168779, Note_on_c, 0, 83, 45
1, 168861, Note_on_c, 0, 83, 0
1, 168861, Note_on_c, 0, 81, 55
1, 168945, Note_on_c, 0, 81, 0
1, 168945, Note_on_c, 0, 79, 62
1, 169073, Note_on_c, 0, 79, 0
1, 169073, Note_on_c, 0, 81, 59
1, 169203, Note_on_c, 0, 81, 0
1, 169203, Note_on_c, 0, 79, 65
1, 169203, Note_on_c, 0, 67, 28
1, 169206, Note_on_c, 0, 71, 34
1, 169206, Control_c, 0, 64, 0
1, 169286, Note_on_c, 0, 79, 0
1, 169327, Note_on_c, 0, 79, 61
1, 169451, Note_on_c, 0, 79, 0
1, 169451, Note_on_c, 0, 78, 58
1, 169576, Note_on_c, 0, 78, 0
1, 169576, Note_on_c, 0, 79, 53
1, 169700, Note_on_c, 0, 79, 0
1, 169700, Note_on_c, 0, 81, 59
1, 169824, Note_on_c, 0, 81, 0
1, 169824, Note_on_c, 0, 79, 59
1, 169948, Note_on_c, 0, 79, 0
1, 169948, Note_on_c, 0, 78, 56
1, 170073, Note_on_c, 0, 78, 0
1, 170073, Note_on_c, 0, 76, 54
1, 170197, Note_on_c, 0, 76, 0
1, 170197, Note_on_c, 0, 74, 57
1, 170197, Note_on_c, 0, 71, 0
1, 170200, Note_on_c, 0, 67, 0
1, 170280, Note_on_c, 0, 74, 0
1, 170321, Note_on_c, 0, 76, 53
1, 170445, Note_on_c, 0, 76, 0
1, 170445, Note_on_c, 0, 75, 51
1, 170568, Note_on_c, 0, 75, 0
1, 170568, Note_on_c, 0, 76, 48
1, 170692, Note_on_c, 0, 76, 0
1, 170692, Note_on_c, 0, 78, 53
1, 170818, Note_on_c, 0, 78, 0
1, 170818, Note_on_c, 0, 76, 48
1, 170944, Note_on_c, 0, 76, 0
1, 170944, Note_on_c, 0, 74, 49
1, 171071, Note_on_c, 0, 74, 0
1, 171071, Note_on_c, 0, 72, 45
1, 171199, Note_on_c, 0, 72, 0
1, 171199, Note_on_c, 0, 71, 48
1, 171199, Control_c, 0, 91, 127
1, 171202, Note_on_c, 0, 62, 32
1, 171202, Note_on_c, 0, 55, 39
1, 171447, Note_on_c, 0, 71, 0
1, 171447, Note_on_c, 0, 72, 44
1, 171497, Note_on_c, 0, 72, 0
1, 171497, Note_on_c, 0, 71, 40
1, 171546, Note_on_c, 0, 71, 0
1, 171546, Note_on_c, 0, 69, 44
1, 171594, Note_on_c, 0, 69, 0
1, 171594, Note_on_c, 0, 71, 40
1, 171640, Note_on_c, 0, 71, 0
1, 171640, Note_on_c, 0, 74, 44
1, 171686, Note_on_c, 0, 74, 0
1, 171686, Note_on_c, 0, 72, 48
1, 171686, Note_on_c, 0, 55, 0
1, 171689, Note_on_c, 0, 57, 35
1, 172053, Note_on_c, 0, 72, 0
1, 172053, Note_on_c, 0, 71, 47
1, 172053, Note_on_c, 0, 57, 0
1, 172056, Note_on_c, 0, 55, 30
1, 172175, Note_on_c, 0, 55, 0
1, 172175, Note_on_c, 0, 62, 0
1, 172175, Note_on_c, 0, 62, 32
1, 172178, Note_on_c, 0, 54, 36
1, 172415, Note_on_c, 0, 71, 0
1, 172415, Note_on_c, 0, 69, 50
1, 172659, Note_on_c, 0, 54, 0
1, 172659, Note_on_c, 0, 55, 32
1, 172897, Note_on_c, 0, 69, 0
1, 172897, Note_on_c, 0, 71, 46
1, 173157, Note_on_c, 0, 55, 0
1, 173157, Note_on_c, 0, 62, 0
1, 173157, Note_on_c, 0, 62, 38
1, 173160, Note_on_c, 0, 57, 40
1, 173399, Note_on_c, 0, 71, 0
1, 173399, Note_on_c, 0, 72, 50
1, 173646, Note_on_c, 0, 57, 0
1, 173646, Note_on_c, 0, 54, 33
1, 173769, Note_on_c, 0, 72, 0
1, 173769, Note_on_c, 0, 76, 45
1, 173892, Note_on_c, 0, 76, 0
1, 173892, Note_on_c, 0, 74, 48
1, 174138, Note_on_c, 0, 74, 0
1, 174138, Note_on_c, 0, 72, 47
1, 174138, Note_on_c, 0, 54, 0
1, 174141, Note_on_c, 0, 62, 0
1, 174141, Note_on_c, 0, 62, 38
1, 174141, Note_on_c, 0, 55, 39
1, 174634, Note_on_c, 0, 72, 0
1, 174634, Note_on_c, 0, 71, 51
1, 175161, Note_on_c, 0, 71, 0
1, 175161, Note_on_c, 0, 67, 65
1, 175161, Note_on_c, 0, 72, 65
1, 175164, Note_on_c, 0, 55, 0
1, 175164, Note_on_c, 0, 62, 0
1, 175164, Note_on_c, 0, 52, 49
1, 175167, Note_on_c, 0, 64, 49
1, 175426, Note_on_c, 0, 72, 0
1, 175426, Note_on_c, 0, 67, 0
1, 175426, Note_on_c, 0, 64, 0
1, 175429, Note_on_c, 0, 52, 0
1, 175691, Note_on_c, 0, 71, 61
1, 175691, Note_on_c, 0, 67, 61
1, 175691, Note_on_c, 0, 50, 44
1, 175694, Note_on_c, 0, 62, 44
1, 175956, Note_on_c, 0, 67, 0
1, 175956, Note_on_c, 0, 71, 0
1, 175956, Note_on_c, 0, 62, 0
1, 175959, Note_on_c, 0, 50, 0
1, 176221, Note_on_c, 0, 76, 67
1, 176221, Note_on_c, 0, 67, 67
1, 176221, Note_on_c, 0, 60, 51
1, 176224, Note_on_c, 0, 48, 51
1, 176472, Note_on_c, 0, 67, 0
1, 176472, Note_on_c, 0, 76, 0
1, 176472, Note_on_c, 0, 48, 0
1, 176475, Note_on_c, 0, 60, 0
1, 176973, Note_on_c, 0, 74, 47
1, 176973, Note_on_c, 0, 59, 37
1, 177226, Note_on_c, 0, 74, 0
1, 177226, Note_on_c, 0, 74, 50
1, 177226, Note_on_c, 0, 59, 0
1, 177229, Note_on_c, 0, 62, 38
1, 177229, Note_on_c, 0, 54, 40
1, 177346, Note_on_c, 0, 74, 0
1, 177346, Note_on_c, 0, 72, 44
1, 177466, Note_on_c, 0, 72, 0
1, 177466, Note_on_c, 0, 71, 44
1, 177593, Note_on_c, 0, 71, 0
1, 177593, Note_on_c, 0, 69, 44
1, 177719, Note_on_c, 0, 69, 0
1, 177719, Note_on_c, 0, 72, 50
1, 177719, Note_on_c, 0, 54, 0
1, 177722, Note_on_c, 0, 55, 35
1, 177841, Note_on_c, 0, 72, 0
1, 177841, Note_on_c, 0, 71, 45
1, 177963, Note_on_c, 0, 71, 0
1, 177963, Note_on_c, 0, 69, 45
1, 178098, Note_on_c, 0, 69, 0
1, 178098, Note_on_c, 0, 67, 45
1, 178270, Note_on_c, 0, 67, 0
1, 178270, Note_on_c, 0, 67, 50
1, 178270, Note_on_c, 0, 71, 50
1, 178273, Note_on_c, 0, 55, 0
1, 178273, Note_on_c, 0, 62, 0
1, 178273, Note_on_c, 0, 62, 38
1, 178276, Note_on_c, 0, 50, 39
1, 178800, Note_on_c, 0, 71, 0
1, 178800, Note_on_c, 0, 67, 0
1, 178800, Note_on_c, 0, 66, 44
1, 178803, Note_on_c, 0, 69, 44
1, 179330, Note_on_c, 0, 69, 0
1, 179330, Note_on_c, 0, 66, 0
1, 179330, Note_on_c, 0, 70, 50
1, 179333, Control_c, 0, 91, 127
1, 179333, Note_on_c, 0, 50, 0
1, 179333, Note_on_c, 0, 62, 0
1, 179336, Note_on_c, 0, 62, 39
1, 179336, Note_on_c, 0, 55, 39
1, 179578, Note_on_c, 0, 70, 0
1, 179578, Note_on_c, 0, 71, 50
1, 179760, Note_on_c, 0, 71, 0
1, 179760, Note_on_c, 0, 74, 51
1, 179817, Note_on_c, 0, 74, 0
1, 179817, Note_on_c, 0, 72, 51
1, 179817, Note_on_c, 0, 55, 0
1, 179820, Note_on_c, 0, 57, 35
1, 180062, Note_on_c, 0, 72, 0
1, 180062, Note_on_c, 0, 71, 44
1, 180062, Note_on_c, 0, 57, 0
1, 180065, Note_on_c, 0, 55, 30
1, 180306, Note_on_c, 0, 71, 0
1, 180306, Note_on_c, 0, 68, 51
1, 180306, Note_on_c, 0, 55, 0
1, 180309, Note_on_c, 0, 62, 0
1, 180309, Note_on_c, 0, 62, 30
1, 180309, Note_on_c, 0, 54, 36
1, 180550, Note_on_c, 0, 68, 0
1, 180550, Note_on_c, 0, 69, 47
1, 180794, Note_on_c, 0, 69, 0
1, 180794, Note_on_c, 0, 54, 0
1, 180794, Note_on_c, 0, 62, 0
1, 180797, Note_on_c, 0, 62, 30
1, 180797, Note_on_c, 0, 55, 32
1, 181039, Note_on_c, 0, 72, 49
1, 181171, Note_on_c, 0, 72, 0
1, 181171, Note_on_c, 0, 71, 46
1, 181304, Note_on_c, 0, 71, 0
1, 181304, Note_on_c, 0, 55, 0
1, 181304, Note_on_c, 0, 62, 0
1, 181307, Note_on_c, 0, 62, 38
1, 181307, Note_on_c, 0, 57, 40
1, 181550, Note_on_c, 0, 74, 50
1, 181673, Note_on_c, 0, 74, 0
1, 181673, Note_on_c, 0, 72, 45
1, 181796, Note_on_c, 0, 72, 0
1, 181796, Note_on_c, 0, 57, 0
1, 181796, Note_on_c, 0, 62, 0
1, 181799, Note_on_c, 0, 62, 30
1, 181799, Note_on_c, 0, 54, 33
1, 182043, Note_on_c, 0, 76, 46
1, 182166, Note_on_c, 0, 76, 0
1, 182166, Note_on_c, 0, 74, 49
1, 182289, Note_on_c, 0, 74, 0
1, 182289, Note_on_c, 0, 72, 53
1, 182289, Note_on_c, 0, 54, 0
1, 182292, Note_on_c, 0, 62, 0
1, 182292, Note_on_c, 0, 62, 38
1, 182292, Note_on_c, 0, 55, 39
1, 182658, Note_on_c, 0, 72, 0
1, 182658, Note_on_c, 0, 74, 47
1, 182721, Note_on_c, 0, 74, 0
1, 182721, Note_on_c, 0, 72, 47
1, 182784, Note_on_c, 0, 72, 0
1, 182784, Note_on_c, 0, 71, 56
1, 183311, Note_on_c, 0, 71, 0
1, 183311, Note_on_c, 0, 72, 65
1, 183311, Note_on_c, 0, 67, 65
1, 183314, Note_on_c, 0, 55, 0
1, 183314, Note_on_c, 0, 62, 0
1, 183314, Note_on_c, 0, 52, 49
1, 183317, Note_on_c, 0, 64, 49
1, 183576, Note_on_c, 0, 67, 0
1, 183576, Note_on_c, 0, 72, 0
1, 183576, Note_on_c, 0, 64, 0
1, 183579, Note_on_c, 0, 52, 0
1, 183841, Note_on_c, 0, 67, 61
1, 183841, Note_on_c, 0, 71, 61
1, 183841, Note_on_c, 0, 50, 44
1, 183844, Note_on_c, 0, 62, 44
1, 184106, Note_on_c, 0, 71, 0
1, 184106, Note_on_c, 0, 67, 0
1, 184106, Note_on_c, 0, 62, 0
1, 184109, Note_on_c, 0, 50, 0
1, 184371, Note_on_c, 0, 76, 67
1, 184371, Note_on_c, 0, 60, 51
1, 184371, Note_on_c, 0, 48, 51
1, 184493, Note_on_c, 0, 76, 0
1, 184493, Note_on_c, 0, 78, 54
1, 184534, Note_on_c, 0, 78, 0
1, 184534, Note_on_c, 0, 76, 54
1, 184575, Note_on_c, 0, 76, 0
1, 184575, Note_on_c, 0, 74, 54
1, 184616, Note_on_c, 0, 74, 0
1, 184616, Note_on_c, 0, 76, 63
1, 184744, Note_on_c, 0, 76, 0
1, 184744, Note_on_c, 0, 78, 60
1, 184873, Note_on_c, 0, 78, 0
1, 184873, Note_on_c, 0, 79, 65
1, 184873, Note_on_c, 0, 48, 0
1, 184876, Note_on_c, 0, 60, 0
1, 185131, Note_on_c, 0, 79, 0
1, 185131, Note_on_c, 0, 72, 47
1, 185131, Note_on_c, 0, 64, 37
1, 185134, Note_on_c, 0, 60, 37
1, 185427, Note_on_c, 0, 72, 0
1, 185427, Note_on_c, 0, 71, 50
1, 185427, Note_on_c, 0, 60, 0
1, 185430, Note_on_c, 0, 64, 0
1, 185430, Note_on_c, 0, 62, 40
1, 185430, Note_on_c, 0, 67, 40
1, 185962, Note_on_c, 0, 71, 0
1, 185962, Note_on_c, 0, 69, 47
1, 185962, Note_on_c, 0, 67, 0
1, 185965, Note_on_c, 0, 66, 35
1, 186006, Control_c, 0, 64, 127
1, 186020, Note_on_c, 0, 69, 0
1, 186020, Note_on_c, 0, 71, 47
1, 186080, Note_on_c, 0, 71, 0
1, 186080, Note_on_c, 0, 69, 47
1, 186138, Note_on_c, 0, 69, 0
1, 186138, Note_on_c, 0, 71, 47
1, 186196, Note_on_c, 0, 71, 0
1, 186196, Note_on_c, 0, 69, 45
1, 186258, Note_on_c, 0, 69, 0
1, 186258, Note_on_c, 0, 71, 45
1, 186322, Note_on_c, 0, 71, 0
1, 186322, Note_on_c, 0, 69, 45
1, 186389, Note_on_c, 0, 69, 0
1, 186389, Note_on_c, 0, 67, 45
1, 186470, Note_on_c, 0, 67, 0
1, 186470, Note_on_c, 0, 69, 45
1, 186559, Note_on_c, 0, 69, 0
1, 186559, Note_on_c, 0, 67, 45
1, 186559, Note_on_c, 0, 66, 0
1, 186562, Note_on_c, 0, 62, 0
1, 186562, Note_on_c, 0, 55, 39
1, 186574, Control_c, 0, 64, 0
1, 186633, Control_c, 0, 64, 127
1, 186819, Note_on_c, 0, 59, 28
1, 187074, Note_on_c, 0, 59, 0
1, 187074, Note_on_c, 0, 62, 32
1, 187321, Note_on_c, 0, 62, 0
1, 187321, Note_on_c, 0, 59, 27
1, 187581, Note_on_c, 0, 67, 0
1, 187581, Note_on_c, 0, 71, 45
1, 187581, Note_on_c, 0, 59, 0
1, 187584, Note_on_c, 0, 55, 0
1, 187584, Note_on_c, 0, 48, 39
1, 187584, Control_c, 0, 64, 0
1, 187816, Control_c, 0, 64, 127
1, 187830, Note_on_c, 0, 52, 27
1, 188077, Note_on_c, 0, 71, 0
1, 188077, Note_on_c, 0, 69, 45
1, 188077, Note_on_c, 0, 52, 0
1, 188080, Note_on_c, 0, 57, 32
1, 188323, Note_on_c, 0, 57, 0
1, 188323, Note_on_c, 0, 52, 28
1, 188576, Note_on_c, 0, 69, 0
1, 188576, Note_on_c, 0, 67, 45
1, 188576, Note_on_c, 0, 52, 0
1, 188579, Note_on_c, 0, 48, 0
1, 188579, Note_on_c, 0, 50, 39
1, 188601, Control_c, 0, 64, 0
1, 188747, Control_c, 0, 64, 127
1, 188820, Note_on_c, 0, 67, 0
1, 188820, Note_on_c, 0, 66, 41
1, 188820, Note_on_c, 0, 60, 29
1, 189065, Note_on_c, 0, 66, 0
1, 189065, Note_on_c, 0, 66, 45
1, 189065, Note_on_c, 0, 60, 0
1, 189068, Note_on_c, 0, 57, 32
1, 189309, Note_on_c, 0, 66, 0
1, 189309, Note_on_c, 0, 62, 41
1, 189309, Note_on_c, 0, 57, 0
1, 189312, Note_on_c, 0, 60, 29
1, 189571, Note_on_c, 0, 62, 0
1, 189571, Note_on_c, 0, 71, 51
1, 189571, Note_on_c, 0, 60, 0
1, 189574, Note_on_c, 0, 50, 0
1, 189574, Note_on_c, 0, 55, 39
1, 189574, Control_c, 0, 64, 0
1, 189667, Control_c, 0, 64, 127
1, 189816, Note_on_c, 0, 59, 29
1, 190060, Note_on_c, 0, 59, 0
1, 190060, Note_on_c, 0, 62, 32
1, 190304, Note_on_c, 0, 62, 0
1, 190304, Note_on_c, 0, 59, 29
1, 190559, Note_on_c, 0, 71, 0
1, 190559, Note_on_c, 0, 67, 45
1, 190559, Note_on_c, 0, 59, 0
1, 190562, Note_on_c, 0, 55, 0
1, 190562, Note_on_c, 0, 52, 39
1, 190590, Control_c, 0, 64, 0
1, 190688, Control_c, 0, 64, 127
1, 190804, Note_on_c, 0, 55, 29
1, 191048, Note_on_c, 0, 55, 0
1, 191048, Note_on_c, 0, 59, 32
1, 191292, Note_on_c, 0, 67, 0
1, 191292, Note_on_c, 0, 69, 40
1, 191292, Note_on_c, 0, 59, 0
1, 191295, Note_on_c, 0, 55, 30
1, 191353, Note_on_c, 0, 69, 0
1, 191353, Note_on_c, 0, 67, 35
1, 191414, Note_on_c, 0, 67, 0
1, 191414, Note_on_c, 0, 66, 40
1, 191484, Note_on_c, 0, 66, 0
1, 191484, Note_on_c, 0, 67, 36
1, 191553, Note_on_c, 0, 67, 0
1, 191553, Note_on_c, 0, 71, 45
1, 191553, Note_on_c, 0, 55, 0
1, 191556, Note_on_c, 0, 52, 0
1, 191556, Note_on_c, 0, 48, 39
1, 191563, Control_c, 0, 64, 0
1, 191652, Control_c, 0, 64, 127
1, 191800, Note_on_c, 0, 71, 0
1, 191800, Note_on_c, 0, 69, 45
1, 191800, Note_on_c, 0, 52, 29
1, 192046, Note_on_c, 0, 69, 0
1, 192046, Note_on_c, 0, 69, 45
1, 192046, Note_on_c, 0, 52, 0
1, 192049, Note_on_c, 0, 57, 32
1, 192292, Note_on_c, 0, 57, 0
1, 192292, Note_on_c, 0, 52, 29
1, 192545, Note_on_c, 0, 69, 0
1, 192545, Note_on_c, 0, 67, 45
1, 192545, Note_on_c, 0, 52, 0
1, 192548, Note_on_c, 0, 48, 0
1, 192548, Note_on_c, 0, 50, 39
1, 192566, Control_c, 0, 64, 0
1, 192659, Control_c, 0, 64, 127
1, 192790, Note_on_c, 0, 67, 0
1, 192790, Note_on_c, 0, 66, 41
1, 192790, Note_on_c, 0, 60, 30
1, 193034, Note_on_c, 0, 66, 0
1, 193034, Note_on_c, 0, 66, 45
1, 193034, Note_on_c, 0, 60, 0
1, 193037, Note_on_c, 0, 57, 32
1, 193278, Note_on_c, 0, 66, 0
1, 193278, Note_on_c, 0, 62, 43
1, 193278, Note_on_c, 0, 57, 0
1, 193281, Note_on_c, 0, 60, 29
1, 193545, Note_on_c, 0, 62, 0
1, 193545, Note_on_c, 0, 67, 54
1, 193545, Note_on_c, 0, 60, 0
1, 193548, Note_on_c, 0, 50, 0
1, 193548, Note_on_c, 0, 43, 45
1, 193548, Control_c, 0, 64, 0
1, 193790, Note_on_c, 0, 55, 37
1, 193790, Control_c, 0, 64, 127
1, 194034, Note_on_c, 0, 55, 0
1, 194034, Note_on_c, 0, 59, 37
1, 194278, Note_on_c, 0, 59, 0
1, 194278, Note_on_c, 0, 62, 37
1, 194536, Note_on_c, 0, 67, 0
1, 194536, Note_on_c, 0, 67, 47
1, 194536, Note_on_c, 0, 79, 56
1, 194539, Note_on_c, 0, 62, 0
1, 194539, Note_on_c, 0, 43, 0
1, 194539, Note_on_c, 0, 40, 49
1, 194560, Control_c, 0, 64, 0
1, 194780, Note_on_c, 0, 52, 39
1, 194794, Control_c, 0, 64, 127
1, 195024, Note_on_c, 0, 52, 0
1, 195024, Note_on_c, 0, 55, 39
1, 195269, Note_on_c, 0, 55, 0
1, 195269, Note_on_c, 0, 59, 39
1, 195531, Note_on_c, 0, 79, 0
1, 195531, Note_on_c, 0, 67, 0
1, 195531, Note_on_c, 0, 71, 45
1, 195534, Note_on_c, 0, 83, 54
1, 195534, Note_on_c, 0, 59, 0
1, 195534, Note_on_c, 0, 40, 0
1, 195537, Note_on_c, 0, 36, 48
1, 195541, Control_c, 0, 64, 0
1, 195741, Control_c, 0, 64, 127
1, 195769, Note_on_c, 0, 83, 0
1, 195769, Note_on_c, 0, 71, 0
1, 195769, Note_on_c, 0, 69, 41
1, 195772, Note_on_c, 0, 81, 49
1, 195772, Note_on_c, 0, 48, 38
1, 196013, Note_on_c, 0, 48, 0
1, 196013, Note_on_c, 0, 52, 38
1, 196257, Note_on_c, 0, 52, 0
1, 196257, Note_on_c, 0, 57, 38
1, 196502, Note_on_c, 0, 81, 0
1, 196502, Note_on_c, 0, 69, 0
1, 196502, Note_on_c, 0, 67, 48
1, 196505, Note_on_c, 0, 79, 57
1, 196505, Note_on_c, 0, 57, 0
1, 196505, Note_on_c, 0, 36, 0
1, 196508, Note_on_c, 0, 38, 50
1, 196518, Control_c, 0, 64, 0
1, 196673, Control_c, 0, 64, 127
1, 196746, Note_on_c, 0, 79, 0
1, 196746, Note_on_c, 0, 67, 0
1, 196746, Note_on_c, 0, 66, 45
1, 196749, Note_on_c, 0, 78, 54
1, 196749, Note_on_c, 0, 50, 42
1, 196990, Note_on_c, 0, 78, 0
1, 196990, Note_on_c, 0, 66, 0
1, 196990, Note_on_c, 0, 66, 48
1, 196993, Note_on_c, 0, 78, 57
1, 196993, Note_on_c, 0, 50, 0
1, 196993, Note_on_c, 0, 57, 42
1, 197234, Note_on_c, 0, 78, 0
1, 197234, Note_on_c, 0, 66, 0
1, 197234, Note_on_c, 0, 74, 58
1, 197237, Note_on_c, 0, 62, 49
1, 197237, Note_on_c, 0, 57, 0
1, 197237, Note_on_c, 0, 60, 42
1, 197497, Note_on_c, 0, 62, 0
1, 197497, Note_on_c, 0, 74, 0
1, 197497, Note_on_c, 0, 86, 68
1, 197500, Note_on_c, 0, 74, 57
1, 197500, Note_on_c, 0, 60, 0
1, 197500, Note_on_c, 0, 38, 0
1, 197503, Note_on_c, 0, 35, 56
1, 197507, Control_c, 0, 64, 0
1, 197639, Control_c, 0, 64, 127
1, 197741, Note_on_c, 0, 47, 42
1, 197985, Note_on_c, 0, 47, 0
1, 197985, Note_on_c, 0, 50, 46
1, 198230, Note_on_c, 0, 50, 0
1, 198230, Note_on_c, 0, 55, 42
1, 198474, Note_on_c, 0, 74, 0
1, 198474, Note_on_c, 0, 86, 0
1, 198474, Note_on_c, 0, 67, 50
1, 198477, Note_on_c, 0, 79, 59
1, 198477, Note_on_c, 0, 55, 0
1, 198477, Note_on_c, 0, 35, 0
1, 198480, Note_on_c, 0, 40, 52
1, 198496, Control_c, 0, 64, 0
1, 198675, Control_c, 0, 64, 127
1, 198718, Note_on_c, 0, 52, 41
1, 198962, Note_on_c, 0, 79, 0
1, 198962, Note_on_c, 0, 67, 0
1, 198962, Note_on_c, 0, 67, 50
1, 198965, Note_on_c, 0, 79, 59
1, 198965, Note_on_c, 0, 52, 0
1, 198965, Note_on_c, 0, 55, 41
1, 199206, Note_on_c, 0, 55, 0
1, 199206, Note_on_c, 0, 59, 41
1, 199451, Note_on_c, 0, 79, 0
1, 199451, Note_on_c, 0, 67, 0
1, 199451, Note_on_c, 0, 71, 53
1, 199454, Note_on_c, 0, 83, 63
1, 199454, Note_on_c, 0, 59, 0
1, 199454, Note_on_c, 0, 40, 0
1, 199457, Note_on_c, 0, 36, 48
1, 199465, Control_c, 0, 64, 0
1, 199603, Control_c, 0, 64, 127
1, 199689, Note_on_c, 0, 83, 0
1, 199689, Note_on_c, 0, 71, 0
1, 199689, Note_on_c, 0, 69, 44
1, 199692, Note_on_c, 0, 81, 52
1, 199692, Note_on_c, 0, 48, 38
1, 199933, Note_on_c, 0, 81, 0
1, 199933, Note_on_c, 0, 69, 0
1, 199933, Note_on_c, 0, 69, 44
1, 199936, Note_on_c, 0, 81, 52
1, 199936, Note_on_c, 0, 48, 0
1, 199936, Note_on_c, 0, 52, 38
1, 200055, Note_on_c, 0, 81, 0
1, 200055, Note_on_c, 0, 69, 0
1, 200177, Note_on_c, 0, 69, 44
1, 200177, Note_on_c, 0, 81, 52
1, 200177, Note_on_c, 0, 52, 0
1, 200180, Note_on_c, 0, 57, 38
1, 200305, Note_on_c, 0, 81, 0
1, 200305, Note_on_c, 0, 69, 0
1, 200432, Note_on_c, 0, 67, 48
1, 200432, Note_on_c, 0, 79, 57
1, 200432, Note_on_c, 0, 57, 0
1, 200435, Note_on_c, 0, 36, 0
1, 200435, Note_on_c, 0, 38, 50
1, 200447, Control_c, 0, 64, 0
1, 200603, Control_c, 0, 64, 127
1, 200677, Note_on_c, 0, 79, 0
1, 200677, Note_on_c, 0, 67, 0
1, 200677, Note_on_c, 0, 66, 45
1, 200680, Note_on_c, 0, 78, 54
1, 200680, Note_on_c, 0, 50, 38
1, 200921, Note_on_c, 0, 78, 0
1, 200921, Note_on_c, 0, 66, 0
1, 200921, Note_on_c, 0, 66, 48
1, 200924, Note_on_c, 0, 78, 57
1, 200924, Note_on_c, 0, 50, 0
1, 200924, Note_on_c, 0, 57, 42
1, 201165, Note_on_c, 0, 78, 0
1, 201165, Note_on_c, 0, 66, 0
1, 201165, Note_on_c, 0, 74, 60
1, 201168, Note_on_c, 0, 62, 51
1, 201168, Note_on_c, 0, 57, 0
1, 201168, Note_on_c, 0, 60, 37
1, 201425, Note_on_c, 0, 62, 0
1, 201425, Note_on_c, 0, 74, 0
1, 201425, Note_on_c, 0, 79, 68
1, 201428, Note_on_c, 0, 67, 57
1, 201428, Note_on_c, 0, 60, 0
1, 201428, Note_on_c, 0, 38, 0
1, 201431, Note_on_c, 0, 55, 52
1, 201431, Control_c, 0, 64, 0
1, 201604, Control_c, 0, 64, 127
1, 201669, Note_on_c, 0, 55, 0
1, 201669, Note_on_c, 0, 62, 34
1, 201669, Note_on_c, 0, 59, 28
1, 201914, Note_on_c, 0, 59, 0
1, 201914, Note_on_c, 0, 62, 0
1, 201914, Note_on_c, 0, 62, 34
1, 201917, Note_on_c, 0, 59, 28
1, 202158, Note_on_c, 0, 59, 0
1, 202158, Note_on_c, 0, 62, 0
1, 202158, Note_on_c, 0, 62, 34
1, 202161, Note_on_c, 0, 59, 28
1, 202416, Note_on_c, 0, 67, 0
1, 202416, Note_on_c, 0, 79, 0
1, 202416, Note_on_c, 0, 83, 54
1, 202419, Note_on_c, 0, 59, 0
1, 202419, Note_on_c, 0, 62, 0
1, 202419, Note_on_c, 0, 50, 36
1, 202428, Control_c, 0, 64, 0
1, 202544, Control_c, 0, 64, 127
1, 202660, Note_on_c, 0, 83, 0
1, 202660, Note_on_c, 0, 81, 48
1, 202660, Note_on_c, 0, 50, 0
1, 202663, Note_on_c, 0, 62, 30
1, 202663, Note_on_c, 0, 60, 25
1, 202904, Note_on_c, 0, 81, 0
1, 202904, Note_on_c, 0, 81, 48
1, 202904, Note_on_c, 0, 60, 0
1, 202907, Note_on_c, 0, 62, 0
1, 202907, Note_on_c, 0, 62, 30
1, 202907, Note_on_c, 0, 60, 25
1, 203148, Note_on_c, 0, 81, 0
1, 203148, Note_on_c, 0, 78, 48
1, 203148, Note_on_c, 0, 60, 0
1, 203151, Note_on_c, 0, 62, 0
1, 203151, Note_on_c, 0, 62, 30
1, 203151, Note_on_c, 0, 60, 25
1, 203408, Note_on_c, 0, 78, 0
1, 203408, Note_on_c, 0, 79, 50
1, 203408, Note_on_c, 0, 60, 0
1, 203411, Note_on_c, 0, 62, 0
1, 203411, Note_on_c, 0, 55, 37
1, 203425, Control_c, 0, 64, 0
1, 203549, Control_c, 0, 64, 127
1, 203653, Note_on_c, 0, 79, 0
1, 203653, Note_on_c, 0, 83, 52
1, 203653, Note_on_c, 0, 55, 0
1, 203656, Note_on_c, 0, 62, 29
1, 203656, Note_on_c, 0, 59, 24
1, 203897, Note_on_c, 0, 83, 0
1, 203897, Note_on_c, 0, 86, 58
1, 203897, Note_on_c, 0, 59, 0
1, 203900, Note_on_c, 0, 62, 0
1, 203900, Note_on_c, 0, 62, 29
1, 203900, Note_on_c, 0, 59, 24
1, 204141, Note_on_c, 0, 59, 0
1, 204141, Note_on_c, 0, 62, 0
1, 204141, Note_on_c, 0, 62, 29
1, 204144, Note_on_c, 0, 59, 24
1, 204403, Note_on_c, 0, 86, 0
1, 204403, Note_on_c, 0, 83, 54
1, 204403, Note_on_c, 0, 59, 0
1, 204406, Note_on_c, 0, 62, 0
1, 204406, Note_on_c, 0, 50, 36
1, 204428, Control_c, 0, 64, 0
1, 204544, Control_c, 0, 64, 127
1, 204648, Note_on_c, 0, 83, 0
1, 204648, Note_on_c, 0, 81, 48
1, 204648, Note_on_c, 0, 50, 0
1, 204651, Note_on_c, 0, 62, 30
1, 204651, Note_on_c, 0, 60, 25
1, 204892, Note_on_c, 0, 81, 0
1, 204892, Note_on_c, 0, 81, 48
1, 204892, Note_on_c, 0, 60, 0
1, 204895, Note_on_c, 0, 62, 0
1, 204895, Note_on_c, 0, 62, 30
1, 204895, Note_on_c, 0, 60, 25
1, 205136, Note_on_c, 0, 81, 0
1, 205136, Note_on_c, 0, 78, 48
1, 205136, Note_on_c, 0, 60, 0
1, 205139, Note_on_c, 0, 62, 0
1, 205139, Note_on_c, 0, 62, 30
1, 205139, Note_on_c, 0, 60, 25
1, 205406, Note_on_c, 0, 78, 0
1, 205406, Note_on_c, 0, 67, 38
1, 205406, Note_on_c, 0, 79, 45
1, 205409, Note_on_c, 0, 60, 0
1, 205409, Note_on_c, 0, 62, 0
1, 205409, Note_on_c, 0, 62, 33
1, 205412, Note_on_c, 0, 59, 28
1, 205412, Note_on_c, 0, 55, 28
1, 205419, Control_c, 0, 64, 0
1, 205555, Control_c, 0, 64, 127
1, 205662, Note_on_c, 0, 79, 0
1, 205662, Note_on_c, 0, 67, 0
1, 205662, Note_on_c, 0, 71, 39
1, 205665, Note_on_c, 0, 83, 47
1, 205917, Note_on_c, 0, 83, 0
1, 205917, Note_on_c, 0, 71, 0
1, 205917, Note_on_c, 0, 74, 42
1, 205920, Note_on_c, 0, 86, 50
1, 205920, Note_on_c, 0, 55, 0
1, 205920, Note_on_c, 0, 59, 0
1, 205923, Note_on_c, 0, 62, 0
1, 205923, Note_on_c, 0, 50, 28
1, 205923, Note_on_c, 0, 54, 28
1, 205926, Note_on_c, 0, 60, 34
1, 205953, Control_c, 0, 64, 0
1, 206045, Note_on_c, 0, 86, 0
1, 206045, Note_on_c, 0, 74, 0
1, 206172, Note_on_c, 0, 74, 39
1, 206172, Note_on_c, 0, 86, 47
1, 206313, Note_on_c, 0, 86, 0
1, 206313, Note_on_c, 0, 74, 0
1, 206453, Note_on_c, 0, 67, 32
1, 206453, Note_on_c, 0, 79, 38
1, 206453, Note_on_c, 0, 60, 0
1, 206456, Note_on_c, 0, 54, 0
1, 206456, Note_on_c, 0, 50, 0
1, 206456, Note_on_c, 0, 59, 29
1, 206459, Note_on_c, 0, 55, 24
1, 206670, Control_c, 0, 64, 127
1, 206716, Note_on_c, 0, 79, 0
1, 206716, Note_on_c, 0, 67, 0
1, 206716, Note_on_c, 0, 71, 28
1, 206719, Note_on_c, 0, 83, 34
1, 206978, Note_on_c, 0, 83, 0
1, 206978, Note_on_c, 0, 71, 0
1, 206978, Note_on_c, 0, 74, 32
1, 206981, Note_on_c, 0, 86, 38
1, 206981, Note_on_c, 0, 55, 0
1, 206981, Note_on_c, 0, 59, 0
1, 206984, Note_on_c, 0, 50, 24
1, 206984, Note_on_c, 0, 54, 24
1, 206984, Note_on_c, 0, 60, 29
1, 206989, Control_c, 0, 64, 0
1, 207109, Note_on_c, 0, 86, 0
1, 207109, Note_on_c, 0, 74, 0
1, 207241, Note_on_c, 0, 74, 27
1, 207241, Note_on_c, 0, 86, 32
1, 207400, Note_on_c, 0, 86, 0
1, 207400, Note_on_c, 0, 74, 0
1, 207560, Note_on_c, 0, 74, 32
1, 207560, Note_on_c, 0, 86, 38
1, 207560, Note_on_c, 0, 60, 0
1, 207563, Note_on_c, 0, 54, 0
1, 207563, Note_on_c, 0, 50, 0
1, 207563, Note_on_c, 0, 55, 23
1, 207566, Note_on_c, 0, 59, 28
1, 207919, Control_c, 0, 64, 127
1, 208672, Note_on_c, 0, 86, 0
1, 208672, Note_on_c, 0, 74, 0
1, 208672, Note_on_c, 0, 67, 26
1, 208675, Note_on_c, 0, 79, 31
1, 209228, Note_on_c, 0, 79, 0
1, 209228, Note_on_c, 0, 67, 0
1, 209228, Note_on_c, 0, 59, 0
1, 209231, Note_on_c, 0, 55, 0
1, 210144, Control_c, 0, 64, 0
1, 211642, End_track
0, 0, End_of_file
