0, 0, Header, 0, 1, 384
1, 0, Start_track
1, 0, Tempo, 512820
1, 0, Title_t, "Klaviersonate Nr. 12 KV 331 3. S"
1, 0, Program_c, 0, 0
1, 0, Control_c, 0, 7, 100
1, 3, Control_c, 0, 10, 64
1, 3, Control_c, 0, 91, 127
1, 3, Program_c, 0, 0
1, 6, Control_c, 0, 7, 100
1, 6, Control_c, 0, 10, 64
1, 6, Program_c, 0, 0
1, 748, Note_on_c, 0, 69, 42
1, 753, Control_c, 0, 64, 127
1, 823, Note_on_c, 0, 69, 0
1, 823, Note_on_c, 0, 81, 47
1, 1124, Note_on_c, 0, 81, 0
1, 1124, Note_on_c, 0, 78, 44
1, 1197, Control_c, 0, 64, 0
1, 1238, Note_on_c, 0, 78, 0
1, 1238, Note_on_c, 0, 76, 44
1, 1275, Note_on_c, 0, 76, 0
1, 1275, Note_on_c, 0, 74, 49
1, 1275, Note_on_c, 0, 62, 27
1, 1278, Note_on_c, 0, 66, 33
1, 1332, Note_on_c, 0, 74, 0
1, 1426, Note_on_c, 0, 73, 44
1, 1483, Note_on_c, 0, 73, 0
1, 1577, Note_on_c, 0, 74, 44
1, 1635, Note_on_c, 0, 74, 0
1, 1694, Note_on_c, 0, 76, 43
1, 1733, Note_on_c, 0, 76, 0
1, 1733, Note_on_c, 0, 74, 47
1, 1733, Note_on_c, 0, 66, 0
1, 1736, Note_on_c, 0, 62, 0
1, 1736, Note_on_c, 0, 59, 27
1, 1736, Note_on_c, 0, 68, 33
1, 1789, Note_on_c, 0, 74, 0
1, 1884, Note_on_c, 0, 73, 43
1, 1940, Note_on_c, 0, 73, 0
1, 2034, Note_on_c, 0, 74, 42
1, 2095, Note_on_c, 0, 74, 0
1, 2197, Note_on_c, 0, 78, 49
1, 2197, Note_on_c, 0, 74, 41
1, 2197, Note_on_c, 0, 68, 0
1, 2200, Note_on_c, 0, 59, 0
1, 2200, Note_on_c, 0, 57, 27
1, 2200, Note_on_c, 0, 69, 33
1, 2264, Control_c, 0, 64, 127
1, 2513, Note_on_c, 0, 74, 0
1, 2513, Note_on_c, 0, 78, 0
1, 2513, Note_on_c, 0, 76, 41
1, 2516, Note_on_c, 0, 73, 35
1, 2520, Control_c, 0, 64, 0
1, 2611, Note_on_c, 0, 73, 0
1, 2611, Note_on_c, 0, 76, 0
1, 2611, Note_on_c, 0, 67, 42
1, 2659, Control_c, 0, 64, 127
1, 2686, Note_on_c, 0, 67, 0
1, 2686, Note_on_c, 0, 79, 47
1, 2686, Note_on_c, 0, 69, 0
1, 2689, Note_on_c, 0, 57, 0
1, 2987, Note_on_c, 0, 79, 0
1, 2987, Note_on_c, 0, 76, 44
1, 2998, Control_c, 0, 64, 0
1, 3100, Note_on_c, 0, 76, 0
1, 3100, Note_on_c, 0, 74, 44
1, 3138, Note_on_c, 0, 74, 0
1, 3138, Note_on_c, 0, 73, 49
1, 3138, Note_on_c, 0, 64, 33
1, 3141, Note_on_c, 0, 57, 27
1, 3195, Note_on_c, 0, 73, 0
1, 3289, Note_on_c, 0, 71, 44
1, 3345, Note_on_c, 0, 71, 0
1, 3440, Note_on_c, 0, 73, 44
1, 3498, Note_on_c, 0, 73, 0
1, 3596, Note_on_c, 0, 69, 47
1, 3596, Note_on_c, 0, 57, 0
1, 3596, Note_on_c, 0, 64, 0
1, 3599, Note_on_c, 0, 61, 27
1, 3599, Note_on_c, 0, 64, 33
1, 3652, Note_on_c, 0, 69, 0
1, 3746, Note_on_c, 0, 76, 43
1, 3803, Note_on_c, 0, 76, 0
1, 3897, Note_on_c, 0, 81, 42
1, 3958, Note_on_c, 0, 81, 0
1, 4059, Note_on_c, 0, 79, 49
1, 4059, Note_on_c, 0, 76, 41
1, 4059, Note_on_c, 0, 64, 0
1, 4062, Note_on_c, 0, 61, 0
1, 4062, Note_on_c, 0, 62, 27
1, 4062, Note_on_c, 0, 69, 33
1, 4127, Control_c, 0, 64, 127
1, 4376, Note_on_c, 0, 76, 0
1, 4376, Note_on_c, 0, 79, 0
1, 4376, Note_on_c, 0, 78, 41
1, 4379, Note_on_c, 0, 74, 35
1, 4382, Control_c, 0, 64, 0
1, 4494, Note_on_c, 0, 74, 0
1, 4494, Note_on_c, 0, 78, 0
1, 4494, Note_on_c, 0, 74, 48
1, 4534, Note_on_c, 0, 74, 0
1, 4534, Note_on_c, 0, 78, 52
1, 4534, Note_on_c, 0, 69, 0
1, 4537, Note_on_c, 0, 62, 0
1, 4537, Note_on_c, 0, 50, 51
1, 4686, Note_on_c, 0, 50, 0
1, 4686, Note_on_c, 0, 62, 45
1, 4762, Note_on_c, 0, 62, 0
1, 4838, Note_on_c, 0, 78, 0
1, 4838, Note_on_c, 0, 79, 48
1, 4838, Note_on_c, 0, 64, 48
1, 4915, Note_on_c, 0, 64, 0
1, 4993, Note_on_c, 0, 79, 0
1, 4993, Note_on_c, 0, 83, 59
1, 4993, Note_on_c, 0, 66, 52
1, 5068, Note_on_c, 0, 83, 0
1, 5068, Note_on_c, 0, 81, 57
1, 5144, Note_on_c, 0, 81, 0
1, 5144, Note_on_c, 0, 79, 55
1, 5144, Note_on_c, 0, 66, 0
1, 5220, Note_on_c, 0, 79, 0
1, 5220, Note_on_c, 0, 78, 53
1, 5296, Note_on_c, 0, 78, 0
1, 5296, Note_on_c, 0, 76, 51
1, 5378, Note_on_c, 0, 76, 0
1, 5378, Note_on_c, 0, 74, 47
1, 5417, Note_on_c, 0, 74, 0
1, 5417, Note_on_c, 0, 74, 46
1, 5456, Note_on_c, 0, 74, 0
1, 5456, Note_on_c, 0, 78, 58
1, 5456, Note_on_c, 0, 50, 50
1, 5607, Note_on_c, 0, 50, 0
1, 5607, Note_on_c, 0, 62, 44
1, 5683, Note_on_c, 0, 62, 0
1, 5758, Note_on_c, 0, 78, 0
1, 5758, Note_on_c, 0, 79, 49
1, 5758, Note_on_c, 0, 64, 48
1, 5836, Note_on_c, 0, 64, 0
1, 5914, Note_on_c, 0, 79, 0
1, 5914, Note_on_c, 0, 83, 59
1, 5914, Note_on_c, 0, 66, 53
1, 5990, Note_on_c, 0, 83, 0
1, 5990, Note_on_c, 0, 81, 57
1, 6066, Note_on_c, 0, 81, 0
1, 6066, Note_on_c, 0, 79, 55
1, 6066, Note_on_c, 0, 66, 0
1, 6141, Note_on_c, 0, 79, 0
1, 6141, Note_on_c, 0, 78, 53
1, 6217, Note_on_c, 0, 78, 0
1, 6217, Note_on_c, 0, 76, 51
1, 6301, Note_on_c, 0, 76, 0
1, 6301, Note_on_c, 0, 74, 51
1, 6333, Note_on_c, 0, 74, 0
1, 6340, Note_on_c, 0, 74, 46
1, 6379, Note_on_c, 0, 74, 0
1, 6379, Note_on_c, 0, 83, 58
1, 6379, Note_on_c, 0, 55, 50
1, 6530, Note_on_c, 0, 55, 0
1, 6530, Note_on_c, 0, 67, 44
1, 6606, Note_on_c, 0, 67, 0
1, 6682, Note_on_c, 0, 83, 0
1, 6682, Note_on_c, 0, 85, 49
1, 6682, Note_on_c, 0, 64, 48
1, 6759, Note_on_c, 0, 64, 0
1, 6837, Note_on_c, 0, 85, 0
1, 6837, Note_on_c, 0, 86, 59
1, 6837, Note_on_c, 0, 54, 45
1, 6840, Note_on_c, 0, 66, 53
1, 6912, Note_on_c, 0, 86, 0
1, 6912, Note_on_c, 0, 85, 57
1, 6988, Note_on_c, 0, 85, 0
1, 6988, Note_on_c, 0, 83, 55
1, 6988, Note_on_c, 0, 66, 0
1, 6991, Note_on_c, 0, 54, 0
1, 7063, Note_on_c, 0, 83, 0
1, 7063, Note_on_c, 0, 81, 53
1, 7139, Note_on_c, 0, 81, 0
1, 7139, Note_on_c, 0, 79, 51
1, 7216, Note_on_c, 0, 79, 0
1, 7216, Note_on_c, 0, 78, 51
1, 7293, Note_on_c, 0, 78, 0
1, 7293, Note_on_c, 0, 83, 59
1, 7293, Note_on_c, 0, 67, 53
1, 7296, Note_on_c, 0, 55, 45
1, 7369, Note_on_c, 0, 83, 0
1, 7369, Note_on_c, 0, 81, 58
1, 7444, Note_on_c, 0, 81, 0
1, 7444, Note_on_c, 0, 79, 56
1, 7444, Note_on_c, 0, 55, 0
1, 7447, Note_on_c, 0, 67, 0
1, 7520, Note_on_c, 0, 79, 0
1, 7520, Note_on_c, 0, 78, 55
1, 7596, Note_on_c, 0, 78, 0
1, 7596, Note_on_c, 0, 76, 58
1, 7674, Note_on_c, 0, 76, 0
1, 7674, Note_on_c, 0, 74, 62
1, 7766, Note_on_c, 0, 74, 0
1, 7766, Note_on_c, 0, 73, 50
1, 7766, Note_on_c, 0, 76, 50
1, 7769, Note_on_c, 0, 81, 59
1, 7769, Note_on_c, 0, 69, 53
1, 7769, Note_on_c, 0, 57, 45
1, 7922, Note_on_c, 0, 81, 0
1, 7922, Note_on_c, 0, 76, 0
1, 7922, Note_on_c, 0, 73, 0
1, 7925, Note_on_c, 0, 57, 0
1, 7925, Note_on_c, 0, 69, 0
1, 8156, Note_on_c, 0, 69, 45
1, 8160, Control_c, 0, 64, 127
1, 8231, Note_on_c, 0, 69, 0
1, 8231, Note_on_c, 0, 81, 47
1, 8532, Note_on_c, 0, 81, 0
1, 8532, Note_on_c, 0, 78, 44
1, 8605, Control_c, 0, 64, 0
1, 8645, Note_on_c, 0, 78, 0
1, 8645, Note_on_c, 0, 76, 44
1, 8683, Note_on_c, 0, 76, 0
1, 8683, Note_on_c, 0, 74, 49
1, 8683, Note_on_c, 0, 66, 33
1, 8686, Note_on_c, 0, 62, 27
1, 8740, Note_on_c, 0, 74, 0
1, 8834, Note_on_c, 0, 73, 44
1, 8890, Note_on_c, 0, 73, 0
1, 8985, Note_on_c, 0, 74, 44
1, 9043, Note_on_c, 0, 74, 0
1, 9102, Note_on_c, 0, 76, 43
1, 9141, Note_on_c, 0, 76, 0
1, 9141, Note_on_c, 0, 74, 47
1, 9141, Note_on_c, 0, 62, 0
1, 9144, Note_on_c, 0, 66, 0
1, 9144, Note_on_c, 0, 59, 27
1, 9144, Note_on_c, 0, 68, 33
1, 9197, Note_on_c, 0, 74, 0
1, 9291, Note_on_c, 0, 73, 43
1, 9348, Note_on_c, 0, 73, 0
1, 9442, Note_on_c, 0, 74, 42
1, 9503, Note_on_c, 0, 74, 0
1, 9604, Note_on_c, 0, 78, 49
1, 9604, Note_on_c, 0, 74, 41
1, 9604, Note_on_c, 0, 68, 0
1, 9607, Note_on_c, 0, 59, 0
1, 9607, Note_on_c, 0, 69, 33
1, 9607, Note_on_c, 0, 57, 27
1, 9672, Control_c, 0, 64, 127
1, 9921, Note_on_c, 0, 74, 0
1, 9921, Note_on_c, 0, 78, 0
1, 9921, Note_on_c, 0, 76, 41
1, 9924, Note_on_c, 0, 73, 35
1, 9927, Control_c, 0, 64, 0
1, 10019, Note_on_c, 0, 73, 0
1, 10019, Note_on_c, 0, 76, 0
1, 10019, Note_on_c, 0, 67, 42
1, 10067, Control_c, 0, 64, 127
1, 10094, Note_on_c, 0, 67, 0
1, 10094, Note_on_c, 0, 79, 47
1, 10094, Note_on_c, 0, 57, 0
1, 10097, Note_on_c, 0, 69, 0
1, 10395, Note_on_c, 0, 79, 0
1, 10395, Note_on_c, 0, 76, 44
1, 10406, Control_c, 0, 64, 0
1, 10508, Note_on_c, 0, 76, 0
1, 10508, Note_on_c, 0, 74, 44
1, 10546, Note_on_c, 0, 74, 0
1, 10546, Note_on_c, 0, 73, 49
1, 10546, Note_on_c, 0, 64, 33
1, 10549, Note_on_c, 0, 57, 27
1, 10602, Note_on_c, 0, 73, 0
1, 10697, Note_on_c, 0, 71, 44
1, 10753, Note_on_c, 0, 71, 0
1, 10847, Note_on_c, 0, 73, 44
1, 10906, Note_on_c, 0, 73, 0
1, 11003, Note_on_c, 0, 69, 47
1, 11003, Note_on_c, 0, 57, 0
1, 11003, Note_on_c, 0, 64, 0
1, 11006, Note_on_c, 0, 64, 33
1, 11006, Note_on_c, 0, 61, 27
1, 11060, Note_on_c, 0, 69, 0
1, 11154, Note_on_c, 0, 76, 43
1, 11211, Note_on_c, 0, 76, 0
1, 11305, Note_on_c, 0, 81, 42
1, 11366, Note_on_c, 0, 81, 0
1, 11467, Note_on_c, 0, 76, 41
1, 11467, Note_on_c, 0, 79, 49
1, 11467, Note_on_c, 0, 61, 0
1, 11470, Note_on_c, 0, 64, 0
1, 11470, Note_on_c, 0, 62, 27
1, 11470, Note_on_c, 0, 69, 33
1, 11534, Control_c, 0, 64, 127
1, 11784, Note_on_c, 0, 79, 0
1, 11784, Note_on_c, 0, 76, 0
1, 11784, Note_on_c, 0, 74, 35
1, 11787, Note_on_c, 0, 78, 41
1, 11790, Control_c, 0, 64, 0
1, 11902, Note_on_c, 0, 78, 0
1, 11902, Note_on_c, 0, 74, 0
1, 11902, Note_on_c, 0, 74, 48
1, 11942, Note_on_c, 0, 74, 0
1, 11942, Note_on_c, 0, 78, 52
1, 11942, Note_on_c, 0, 69, 0
1, 11945, Note_on_c, 0, 62, 0
1, 11945, Note_on_c, 0, 50, 51
1, 12094, Note_on_c, 0, 50, 0
1, 12094, Note_on_c, 0, 62, 45
1, 12170, Note_on_c, 0, 62, 0
1, 12245, Note_on_c, 0, 78, 0
1, 12245, Note_on_c, 0, 79, 48
1, 12245, Note_on_c, 0, 64, 48
1, 12323, Note_on_c, 0, 64, 0
1, 12400, Note_on_c, 0, 79, 0
1, 12400, Note_on_c, 0, 83, 59
1, 12400, Note_on_c, 0, 66, 52
1, 12476, Note_on_c, 0, 83, 0
1, 12476, Note_on_c, 0, 81, 57
1, 12552, Note_on_c, 0, 81, 0
1, 12552, Note_on_c, 0, 79, 55
1, 12552, Note_on_c, 0, 66, 0
1, 12628, Note_on_c, 0, 79, 0
1, 12628, Note_on_c, 0, 78, 53
1, 12704, Note_on_c, 0, 78, 0
1, 12704, Note_on_c, 0, 76, 51
1, 12786, Note_on_c, 0, 76, 0
1, 12786, Note_on_c, 0, 74, 47
1, 12825, Note_on_c, 0, 74, 0
1, 12825, Note_on_c, 0, 74, 46
1, 12864, Note_on_c, 0, 74, 0
1, 12864, Note_on_c, 0, 83, 58
1, 12864, Note_on_c, 0, 43, 50
1, 13015, Note_on_c, 0, 43, 0
1, 13015, Note_on_c, 0, 55, 44
1, 13091, Note_on_c, 0, 55, 0
1, 13166, Note_on_c, 0, 83, 0
1, 13166, Note_on_c, 0, 85, 49
1, 13166, Note_on_c, 0, 59, 48
1, 13244, Note_on_c, 0, 59, 0
1, 13321, Note_on_c, 0, 85, 0
1, 13321, Note_on_c, 0, 88, 59
1, 13321, Note_on_c, 0, 59, 53
1, 13397, Note_on_c, 0, 88, 0
1, 13397, Note_on_c, 0, 86, 57
1, 13473, Note_on_c, 0, 86, 0
1, 13473, Note_on_c, 0, 85, 55
1, 13473, Note_on_c, 0, 59, 0
1, 13548, Note_on_c, 0, 85, 0
1, 13548, Note_on_c, 0, 83, 53
1, 13624, Note_on_c, 0, 83, 0
1, 13624, Note_on_c, 0, 81, 51
1, 13701, Note_on_c, 0, 81, 0
1, 13701, Note_on_c, 0, 79, 51
1, 13778, Note_on_c, 0, 79, 0
1, 13778, Note_on_c, 0, 85, 59
1, 13778, Note_on_c, 0, 64, 53
1, 13781, Note_on_c, 0, 59, 45
1, 13784, Note_on_c, 0, 55, 45
1, 13853, Note_on_c, 0, 85, 0
1, 13853, Note_on_c, 0, 83, 58
1, 13853, Note_on_c, 0, 59, 0
1, 13856, Note_on_c, 0, 64, 0
1, 13860, Note_on_c, 0, 55, 0
1, 13929, Note_on_c, 0, 83, 0
1, 13929, Note_on_c, 0, 81, 56
1, 14005, Note_on_c, 0, 81, 0
1, 14005, Note_on_c, 0, 79, 55
1, 14080, Note_on_c, 0, 79, 0
1, 14080, Note_on_c, 0, 78, 54
1, 14159, Note_on_c, 0, 78, 0
1, 14159, Note_on_c, 0, 76, 52
1, 14250, Note_on_c, 0, 76, 0
1, 14250, Note_on_c, 0, 83, 63
1, 14250, Note_on_c, 0, 62, 45
1, 14253, Note_on_c, 0, 57, 45
1, 14256, Note_on_c, 0, 66, 53
1, 14325, Note_on_c, 0, 83, 0
1, 14325, Note_on_c, 0, 81, 61
1, 14325, Note_on_c, 0, 57, 0
1, 14328, Note_on_c, 0, 62, 0
1, 14332, Note_on_c, 0, 66, 0
1, 14401, Note_on_c, 0, 81, 0
1, 14401, Note_on_c, 0, 79, 59
1, 14477, Note_on_c, 0, 79, 0
1, 14477, Note_on_c, 0, 78, 57
1, 14552, Note_on_c, 0, 78, 0
1, 14552, Note_on_c, 0, 76, 56
1, 14629, Note_on_c, 0, 76, 0
1, 14629, Note_on_c, 0, 74, 54
1, 14706, Note_on_c, 0, 74, 0
1, 14706, Note_on_c, 0, 81, 59
1, 14706, Note_on_c, 0, 64, 45
1, 14709, Note_on_c, 0, 57, 45
1, 14712, Note_on_c, 0, 67, 53
1, 14782, Note_on_c, 0, 81, 0
1, 14782, Note_on_c, 0, 79, 61
1, 14782, Note_on_c, 0, 57, 0
1, 14785, Note_on_c, 0, 64, 0
1, 14788, Note_on_c, 0, 67, 0
1, 14857, Note_on_c, 0, 79, 0
1, 14857, Note_on_c, 0, 78, 60
1, 14933, Note_on_c, 0, 78, 0
1, 14933, Note_on_c, 0, 76, 59
1, 15009, Note_on_c, 0, 76, 0
1, 15009, Note_on_c, 0, 74, 58
1, 15087, Note_on_c, 0, 74, 0
1, 15087, Note_on_c, 0, 73, 61
1, 15178, Note_on_c, 0, 73, 0
1, 15178, Note_on_c, 0, 74, 63
1, 15178, Note_on_c, 0, 66, 53
1, 15181, Note_on_c, 0, 62, 45
1, 15256, Note_on_c, 0, 74, 0
1, 15256, Note_on_c, 0, 62, 0
1, 15256, Note_on_c, 0, 66, 0
1, 15491, Note_on_c, 0, 62, 66
1, 15491, Note_on_c, 0, 38, 45
1, 15509, Control_c, 0, 64, 127
1, 15566, Note_on_c, 0, 62, 0
1, 15566, Note_on_c, 0, 66, 66
1, 15566, Note_on_c, 0, 38, 0
1, 15569, Note_on_c, 0, 42, 45
1, 15644, Note_on_c, 0, 66, 0
1, 15644, Note_on_c, 0, 69, 73
1, 15644, Note_on_c, 0, 42, 0
1, 15647, Note_on_c, 0, 45, 52
1, 15676, Control_c, 0, 64, 0
1, 15721, Note_on_c, 0, 69, 0
1, 15721, Note_on_c, 0, 45, 0
1, 15951, Note_on_c, 0, 66, 70
1, 15951, Note_on_c, 0, 42, 48
1, 15990, Control_c, 0, 64, 127
1, 16026, Note_on_c, 0, 66, 0
1, 16026, Note_on_c, 0, 69, 70
1, 16026, Note_on_c, 0, 42, 0
1, 16029, Note_on_c, 0, 45, 48
1, 16105, Note_on_c, 0, 69, 0
1, 16105, Note_on_c, 0, 74, 75
1, 16105, Note_on_c, 0, 45, 0
1, 16108, Note_on_c, 0, 50, 57
1, 16114, Control_c, 0, 64, 0
1, 16182, Note_on_c, 0, 74, 0
1, 16182, Note_on_c, 0, 50, 0
1, 16412, Note_on_c, 0, 69, 69
1, 16412, Note_on_c, 0, 45, 51
1, 16429, Control_c, 0, 64, 127
1, 16487, Note_on_c, 0, 69, 0
1, 16487, Note_on_c, 0, 74, 69
1, 16487, Note_on_c, 0, 45, 0
1, 16490, Note_on_c, 0, 50, 51
1, 16566, Note_on_c, 0, 74, 0
1, 16566, Note_on_c, 0, 78, 81
1, 16566, Note_on_c, 0, 50, 0
1, 16569, Note_on_c, 0, 54, 57
1, 16593, Control_c, 0, 64, 0
1, 16642, Note_on_c, 0, 78, 0
1, 16642, Note_on_c, 0, 54, 0
1, 16872, Note_on_c, 0, 74, 70
1, 16872, Note_on_c, 0, 50, 48
1, 16894, Control_c, 0, 64, 127
1, 16948, Note_on_c, 0, 74, 0
1, 16948, Note_on_c, 0, 78, 70
1, 16948, Note_on_c, 0, 50, 0
1, 16951, Note_on_c, 0, 54, 48
1, 17027, Note_on_c, 0, 78, 0
1, 17027, Note_on_c, 0, 81, 82
1, 17027, Note_on_c, 0, 54, 0
1, 17030, Note_on_c, 0, 57, 57
1, 17063, Control_c, 0, 64, 0
1, 17104, Note_on_c, 0, 81, 0
1, 17104, Note_on_c, 0, 57, 0
1, 17947, Note_on_c, 0, 81, 45
1, 17947, Note_on_c, 0, 57, 29
1, 17947, Note_on_c, 0, 66, 35
1, 17950, Note_on_c, 0, 62, 29
1, 18331, Note_on_c, 0, 81, 0
1, 18331, Note_on_c, 0, 83, 42
1, 18410, Note_on_c, 0, 83, 0
1, 18410, Note_on_c, 0, 74, 47
1, 18410, Note_on_c, 0, 62, 0
1, 18413, Note_on_c, 0, 66, 0
1, 18413, Note_on_c, 0, 64, 27
1, 18413, Note_on_c, 0, 67, 32
1, 18716, Note_on_c, 0, 74, 0
1, 18734, Note_on_c, 0, 73, 47
1, 18870, Note_on_c, 0, 74, 55
1, 18870, Note_on_c, 0, 67, 0
1, 18870, Note_on_c, 0, 64, 0
1, 18873, Note_on_c, 0, 62, 29
1, 18873, Note_on_c, 0, 66, 35
1, 18888, Note_on_c, 0, 73, 0
1, 18985, Note_on_c, 0, 74, 0
1, 19023, Note_on_c, 0, 86, 54
1, 19023, Note_on_c, 0, 66, 0
1, 19023, Note_on_c, 0, 62, 0
1, 19026, Note_on_c, 0, 57, 0
1, 19098, Note_on_c, 0, 86, 0
1, 19173, Note_on_c, 0, 85, 52
1, 19248, Note_on_c, 0, 85, 0
1, 19323, Note_on_c, 0, 83, 50
1, 19398, Note_on_c, 0, 83, 0
1, 19473, Note_on_c, 0, 81, 49
1, 19549, Note_on_c, 0, 81, 0
1, 19624, Note_on_c, 0, 80, 47
1, 19701, Note_on_c, 0, 80, 0
1, 19779, Note_on_c, 0, 81, 45
1, 19779, Note_on_c, 0, 57, 29
1, 19779, Note_on_c, 0, 62, 29
1, 19782, Note_on_c, 0, 66, 35
1, 19973, Note_on_c, 0, 81, 0
1, 19973, Note_on_c, 0, 83, 35
1, 20011, Note_on_c, 0, 83, 0
1, 20011, Note_on_c, 0, 81, 35
1, 20049, Note_on_c, 0, 81, 0
1, 20049, Note_on_c, 0, 80, 35
1, 20087, Note_on_c, 0, 80, 0
1, 20087, Note_on_c, 0, 81, 45
1, 20163, Note_on_c, 0, 81, 0
1, 20163, Note_on_c, 0, 83, 42
1, 20244, Note_on_c, 0, 83, 0
1, 20244, Note_on_c, 0, 74, 47
1, 20244, Note_on_c, 0, 66, 0
1, 20247, Note_on_c, 0, 62, 0
1, 20247, Note_on_c, 0, 67, 32
1, 20247, Note_on_c, 0, 64, 27
1, 20550, Note_on_c, 0, 74, 0
1, 20568, Note_on_c, 0, 73, 47
1, 20704, Note_on_c, 0, 74, 55
1, 20704, Note_on_c, 0, 64, 0
1, 20704, Note_on_c, 0, 67, 0
1, 20707, Note_on_c, 0, 62, 29
1, 20707, Note_on_c, 0, 66, 35
1, 20722, Note_on_c, 0, 73, 0
1, 20818, Note_on_c, 0, 74, 0
1, 20857, Note_on_c, 0, 86, 54
1, 20857, Note_on_c, 0, 66, 0
1, 20857, Note_on_c, 0, 62, 0
1, 20860, Note_on_c, 0, 57, 0
1, 20932, Note_on_c, 0, 86, 0
1, 21007, Note_on_c, 0, 85, 52
1, 21082, Note_on_c, 0, 85, 0
1, 21157, Note_on_c, 0, 83, 50
1, 21232, Note_on_c, 0, 83, 0
1, 21307, Note_on_c, 0, 81, 49
1, 21383, Note_on_c, 0, 81, 0
1, 21458, Note_on_c, 0, 80, 47
1, 21535, Note_on_c, 0, 80, 0
1, 21613, Note_on_c, 0, 81, 45
1, 21613, Note_on_c, 0, 57, 29
1, 21613, Note_on_c, 0, 62, 29
1, 21616, Note_on_c, 0, 66, 35
1, 21807, Note_on_c, 0, 81, 0
1, 21807, Note_on_c, 0, 83, 35
1, 21845, Note_on_c, 0, 83, 0
1, 21845, Note_on_c, 0, 81, 35
1, 21883, Note_on_c, 0, 81, 0
1, 21883, Note_on_c, 0, 80, 35
1, 21921, Note_on_c, 0, 80, 0
1, 21921, Note_on_c, 0, 81, 45
1, 21997, Note_on_c, 0, 81, 0
1, 21997, Note_on_c, 0, 83, 42
1, 22078, Note_on_c, 0, 83, 0
1, 22078, Note_on_c, 0, 74, 47
1, 22078, Note_on_c, 0, 66, 0
1, 22081, Note_on_c, 0, 62, 0
1, 22081, Note_on_c, 0, 67, 32
1, 22081, Note_on_c, 0, 64, 27
1, 22384, Note_on_c, 0, 74, 0
1, 22403, Note_on_c, 0, 73, 47
1, 22542, Note_on_c, 0, 74, 52
1, 22542, Note_on_c, 0, 64, 0
1, 22542, Note_on_c, 0, 67, 0
1, 22545, Note_on_c, 0, 57, 0
1, 22545, Note_on_c, 0, 62, 24
1, 22545, Note_on_c, 0, 66, 32
1, 22560, Note_on_c, 0, 73, 0
1, 22695, Note_on_c, 0, 74, 0
1, 22695, Note_on_c, 0, 66, 0
1, 22695, Note_on_c, 0, 62, 0
1, 22999, Note_on_c, 0, 62, 35
1, 22999, Note_on_c, 0, 54, 29
1, 22999, Note_on_c, 0, 59, 29
1, 23002, Note_on_c, 0, 47, 35
1, 23041, Control_c, 0, 64, 127
1, 23456, Note_on_c, 0, 59, 0
1, 23456, Note_on_c, 0, 54, 0
1, 23456, Note_on_c, 0, 62, 0
1, 23459, Note_on_c, 0, 59, 32
1, 23459, Note_on_c, 0, 64, 38
1, 23459, Note_on_c, 0, 62, 32
1, 23462, Note_on_c, 0, 47, 0
1, 23462, Note_on_c, 0, 43, 37
1, 23462, Control_c, 0, 64, 0
1, 23548, Control_c, 0, 64, 127
1, 23909, Note_on_c, 0, 62, 0
1, 23909, Note_on_c, 0, 64, 0
1, 23909, Note_on_c, 0, 59, 0
1, 23912, Note_on_c, 0, 64, 33
1, 23912, Note_on_c, 0, 69, 39
1, 23912, Note_on_c, 0, 61, 33
1, 23915, Note_on_c, 0, 43, 0
1, 23915, Note_on_c, 0, 45, 39
1, 23915, Control_c, 0, 64, 0
1, 24119, Control_c, 0, 64, 127
1, 24367, Note_on_c, 0, 61, 0
1, 24367, Note_on_c, 0, 69, 0
1, 24367, Note_on_c, 0, 64, 0
1, 24370, Note_on_c, 0, 57, 29
1, 24370, Note_on_c, 0, 62, 29
1, 24370, Note_on_c, 0, 66, 35
1, 24373, Note_on_c, 0, 45, 0
1, 24373, Note_on_c, 0, 38, 35
1, 24379, Control_c, 0, 64, 0
1, 24520, Note_on_c, 0, 66, 0
1, 24520, Note_on_c, 0, 62, 0
1, 24520, Note_on_c, 0, 57, 0
1, 24523, Note_on_c, 0, 38, 0
1, 24976, Note_on_c, 0, 62, 61
1, 24976, Note_on_c, 0, 38, 44
1, 24976, Note_on_c, 0, 50, 44
1, 25033, Note_on_c, 0, 62, 0
1, 25033, Note_on_c, 0, 50, 0
1, 25033, Note_on_c, 0, 38, 0
1, 25127, Note_on_c, 0, 62, 62
1, 25127, Note_on_c, 0, 38, 44
1, 25127, Note_on_c, 0, 50, 44
1, 25186, Note_on_c, 0, 62, 0
1, 25186, Note_on_c, 0, 50, 0
1, 25186, Note_on_c, 0, 38, 0
1, 25205, Note_on_c, 0, 64, 40
1, 25231, Note_on_c, 0, 64, 0
1, 25231, Note_on_c, 0, 62, 40
1, 25257, Note_on_c, 0, 62, 0
1, 25257, Note_on_c, 0, 61, 40
1, 25283, Note_on_c, 0, 62, 69
1, 25283, Note_on_c, 0, 61, 0
1, 25283, Note_on_c, 0, 50, 52
1, 25286, Note_on_c, 0, 38, 52
1, 25588, Note_on_c, 0, 62, 0
1, 25588, Note_on_c, 0, 62, 60
1, 25588, Note_on_c, 0, 38, 0
1, 25591, Note_on_c, 0, 50, 0
1, 25591, Note_on_c, 0, 50, 44
1, 25591, Note_on_c, 0, 38, 44
1, 25646, Note_on_c, 0, 62, 0
1, 25646, Note_on_c, 0, 38, 0
1, 25646, Note_on_c, 0, 50, 0
1, 25665, Note_on_c, 0, 64, 40
1, 25690, Note_on_c, 0, 64, 0
1, 25690, Note_on_c, 0, 62, 40
1, 25716, Note_on_c, 0, 62, 0
1, 25716, Note_on_c, 0, 61, 40
1, 25741, Note_on_c, 0, 62, 64
1, 25741, Note_on_c, 0, 61, 0
1, 25741, Note_on_c, 0, 50, 44
1, 25744, Note_on_c, 0, 38, 44
1, 26047, Note_on_c, 0, 62, 0
1, 26047, Note_on_c, 0, 62, 59
1, 26047, Note_on_c, 0, 38, 0
1, 26050, Note_on_c, 0, 50, 0
1, 26050, Note_on_c, 0, 38, 44
1, 26050, Note_on_c, 0, 50, 44
1, 26106, Note_on_c, 0, 62, 0
1, 26106, Note_on_c, 0, 50, 0
1, 26106, Note_on_c, 0, 38, 0
1, 26203, Note_on_c, 0, 61, 66
1, 26203, Note_on_c, 0, 49, 52
1, 26203, Note_on_c, 0, 37, 52
1, 26509, Note_on_c, 0, 61, 0
1, 26509, Note_on_c, 0, 37, 0
1, 26509, Note_on_c, 0, 49, 0
1, 26585, Note_on_c, 0, 76, 54
1, 26662, Note_on_c, 0, 76, 0
1, 26662, Note_on_c, 0, 81, 63
1, 27120, Note_on_c, 0, 61, 25
1, 27120, Note_on_c, 0, 69, 30
1, 27178, Note_on_c, 0, 69, 0
1, 27178, Note_on_c, 0, 61, 0
1, 27273, Note_on_c, 0, 81, 0
1, 27273, Note_on_c, 0, 85, 45
1, 27273, Note_on_c, 0, 69, 30
1, 27276, Note_on_c, 0, 61, 25
1, 27330, Note_on_c, 0, 85, 0
1, 27330, Note_on_c, 0, 61, 0
1, 27330, Note_on_c, 0, 69, 0
1, 27424, Note_on_c, 0, 83, 43
1, 27424, Note_on_c, 0, 61, 25
1, 27424, Note_on_c, 0, 69, 30
1, 27480, Note_on_c, 0, 83, 0
1, 27480, Note_on_c, 0, 69, 0
1, 27480, Note_on_c, 0, 61, 0
1, 27575, Note_on_c, 0, 81, 41
1, 27575, Note_on_c, 0, 61, 25
1, 27575, Note_on_c, 0, 69, 30
1, 27631, Note_on_c, 0, 81, 0
1, 27631, Note_on_c, 0, 69, 0
1, 27631, Note_on_c, 0, 61, 0
1, 27725, Note_on_c, 0, 80, 39
1, 27725, Note_on_c, 0, 69, 30
1, 27725, Note_on_c, 0, 61, 25
1, 27783, Note_on_c, 0, 80, 0
1, 27783, Note_on_c, 0, 61, 0
1, 27783, Note_on_c, 0, 69, 0
1, 27879, Note_on_c, 0, 78, 37
1, 27879, Note_on_c, 0, 69, 30
1, 27879, Note_on_c, 0, 61, 25
1, 27941, Note_on_c, 0, 78, 0
1, 27941, Note_on_c, 0, 61, 0
1, 27941, Note_on_c, 0, 69, 0
1, 28045, Note_on_c, 0, 76, 35
1, 28045, Note_on_c, 0, 69, 35
1, 28045, Note_on_c, 0, 59, 29
1, 28505, Note_on_c, 0, 76, 0
1, 28505, Note_on_c, 0, 74, 35
1, 28667, Note_on_c, 0, 74, 0
1, 28667, Note_on_c, 0, 59, 61
1, 28667, Note_on_c, 0, 59, 0
1, 28670, Note_on_c, 0, 69, 0
1, 28670, Note_on_c, 0, 47, 44
1, 28670, Note_on_c, 0, 35, 44
1, 28724, Note_on_c, 0, 59, 0
1, 28724, Note_on_c, 0, 35, 0
1, 28724, Note_on_c, 0, 47, 0
1, 28818, Note_on_c, 0, 59, 62
1, 28818, Note_on_c, 0, 47, 44
1, 28818, Note_on_c, 0, 35, 44
1, 28876, Note_on_c, 0, 59, 0
1, 28876, Note_on_c, 0, 35, 0
1, 28876, Note_on_c, 0, 47, 0
1, 28896, Note_on_c, 0, 61, 40
1, 28922, Note_on_c, 0, 61, 0
1, 28922, Note_on_c, 0, 59, 40
1, 28948, Note_on_c, 0, 59, 0
1, 28948, Note_on_c, 0, 58, 40
1, 28974, Note_on_c, 0, 59, 69
1, 28974, Note_on_c, 0, 58, 0
1, 28974, Note_on_c, 0, 35, 52
1, 28977, Note_on_c, 0, 47, 52
1, 29279, Note_on_c, 0, 59, 0
1, 29279, Note_on_c, 0, 59, 60
1, 29279, Note_on_c, 0, 47, 0
1, 29282, Note_on_c, 0, 35, 0
1, 29282, Note_on_c, 0, 35, 44
1, 29282, Note_on_c, 0, 47, 44
1, 29337, Note_on_c, 0, 59, 0
1, 29337, Note_on_c, 0, 47, 0
1, 29337, Note_on_c, 0, 35, 0
1, 29356, Note_on_c, 0, 59, 40
1, 29381, Note_on_c, 0, 59, 0
1, 29381, Note_on_c, 0, 57, 40
1, 29407, Note_on_c, 0, 57, 0
1, 29407, Note_on_c, 0, 56, 40
1, 29432, Note_on_c, 0, 57, 64
1, 29432, Note_on_c, 0, 56, 0
1, 29432, Note_on_c, 0, 33, 44
1, 29435, Note_on_c, 0, 45, 44
1, 29738, Note_on_c, 0, 57, 0
1, 29738, Note_on_c, 0, 57, 59
1, 29738, Note_on_c, 0, 45, 0
1, 29741, Note_on_c, 0, 33, 0
1, 29741, Note_on_c, 0, 33, 44
1, 29741, Note_on_c, 0, 45, 44
1, 29796, Note_on_c, 0, 57, 0
1, 29796, Note_on_c, 0, 45, 0
1, 29796, Note_on_c, 0, 33, 0
1, 29894, Note_on_c, 0, 56, 66
1, 29894, Note_on_c, 0, 44, 52
1, 29894, Note_on_c, 0, 32, 52
1, 30047, Note_on_c, 0, 56, 0
1, 30047, Note_on_c, 0, 32, 0
1, 30047, Note_on_c, 0, 44, 0
1, 30276, Note_on_c, 0, 76, 54
1, 30353, Note_on_c, 0, 76, 0
1, 30353, Note_on_c, 0, 86, 63
1, 30811, Note_on_c, 0, 56, 40
1, 30811, Control_c, 0, 64, 127
1, 30888, Note_on_c, 0, 86, 0
1, 30888, Note_on_c, 0, 85, 53
1, 30964, Note_on_c, 0, 85, 0
1, 30964, Note_on_c, 0, 83, 53
1, 30964, Note_on_c, 0, 59, 30
1, 30972, Control_c, 0, 64, 0
1, 31022, Control_c, 0, 64, 127
1, 31041, Note_on_c, 0, 83, 0
1, 31041, Note_on_c, 0, 81, 52
1, 31117, Note_on_c, 0, 81, 0
1, 31117, Note_on_c, 0, 80, 51
1, 31117, Note_on_c, 0, 59, 0
1, 31120, Note_on_c, 0, 64, 26
1, 31123, Control_c, 0, 64, 0
1, 31146, Control_c, 0, 64, 127
1, 31193, Note_on_c, 0, 80, 0
1, 31193, Note_on_c, 0, 78, 51
1, 31271, Note_on_c, 0, 78, 0
1, 31271, Note_on_c, 0, 76, 54
1, 31271, Note_on_c, 0, 64, 0
1, 31274, Note_on_c, 0, 56, 0
1, 31274, Note_on_c, 0, 56, 40
1, 31274, Control_c, 0, 64, 0
1, 31333, Control_c, 0, 64, 127
1, 31348, Note_on_c, 0, 76, 0
1, 31348, Note_on_c, 0, 78, 49
1, 31424, Note_on_c, 0, 78, 0
1, 31424, Note_on_c, 0, 76, 50
1, 31424, Note_on_c, 0, 59, 30
1, 31431, Control_c, 0, 64, 0
1, 31478, Control_c, 0, 64, 127
1, 31501, Note_on_c, 0, 76, 0
1, 31501, Note_on_c, 0, 74, 49
1, 31577, Note_on_c, 0, 74, 0
1, 31577, Note_on_c, 0, 73, 48
1, 31577, Note_on_c, 0, 59, 0
1, 31580, Note_on_c, 0, 64, 27
1, 31583, Control_c, 0, 64, 0
1, 31620, Control_c, 0, 64, 127
1, 31653, Note_on_c, 0, 73, 0
1, 31653, Note_on_c, 0, 71, 47
1, 31734, Note_on_c, 0, 71, 0
1, 31734, Note_on_c, 0, 73, 47
1, 31734, Note_on_c, 0, 64, 0
1, 31737, Note_on_c, 0, 56, 0
1, 31737, Note_on_c, 0, 57, 40
1, 31737, Control_c, 0, 64, 0
1, 31770, Control_c, 0, 64, 127
1, 31810, Note_on_c, 0, 73, 0
1, 31810, Note_on_c, 0, 76, 47
1, 31886, Note_on_c, 0, 76, 0
1, 31886, Note_on_c, 0, 78, 48
1, 31886, Note_on_c, 0, 61, 33
1, 31893, Control_c, 0, 64, 0
1, 31955, Control_c, 0, 64, 127
1, 31963, Note_on_c, 0, 78, 0
1, 31963, Note_on_c, 0, 80, 50
1, 32039, Note_on_c, 0, 80, 0
1, 32039, Note_on_c, 0, 81, 52
1, 32039, Note_on_c, 0, 61, 0
1, 32042, Note_on_c, 0, 64, 36
1, 32042, Control_c, 0, 64, 0
1, 32083, Control_c, 0, 64, 127
1, 32116, Note_on_c, 0, 81, 0
1, 32116, Note_on_c, 0, 83, 53
1, 32194, Note_on_c, 0, 83, 0
1, 32194, Note_on_c, 0, 85, 55
1, 32194, Note_on_c, 0, 64, 0
1, 32197, Note_on_c, 0, 57, 0
1, 32197, Note_on_c, 0, 57, 40
1, 32201, Control_c, 0, 64, 0
1, 32237, Control_c, 0, 64, 127
1, 32270, Note_on_c, 0, 85, 0
1, 32270, Note_on_c, 0, 86, 57
1, 32347, Note_on_c, 0, 86, 0
1, 32347, Note_on_c, 0, 88, 61
1, 32347, Note_on_c, 0, 61, 33
1, 32354, Control_c, 0, 64, 0
1, 32394, Control_c, 0, 64, 127
1, 32423, Note_on_c, 0, 88, 0
1, 32423, Note_on_c, 0, 85, 57
1, 32500, Note_on_c, 0, 85, 0
1, 32500, Note_on_c, 0, 83, 57
1, 32500, Note_on_c, 0, 61, 0
1, 32503, Note_on_c, 0, 64, 33
1, 32507, Control_c, 0, 64, 0
1, 32557, Control_c, 0, 64, 127
1, 32576, Note_on_c, 0, 83, 0
1, 32576, Note_on_c, 0, 81, 53
1, 32656, Note_on_c, 0, 81, 0
1, 32656, Note_on_c, 0, 86, 62
1, 32656, Note_on_c, 0, 64, 0
1, 32659, Note_on_c, 0, 57, 0
1, 32659, Note_on_c, 0, 56, 40
1, 32663, Control_c, 0, 64, 0
1, 32707, Control_c, 0, 64, 127
1, 32732, Note_on_c, 0, 86, 0
1, 32732, Note_on_c, 0, 85, 60
1, 32808, Note_on_c, 0, 85, 0
1, 32808, Note_on_c, 0, 83, 58
1, 32808, Note_on_c, 0, 59, 34
1, 32813, Control_c, 0, 64, 0
1, 32863, Control_c, 0, 64, 127
1, 32885, Note_on_c, 0, 83, 0
1, 32885, Note_on_c, 0, 81, 57
1, 32961, Note_on_c, 0, 81, 0
1, 32961, Note_on_c, 0, 80, 55
1, 32961, Note_on_c, 0, 59, 0
1, 32964, Note_on_c, 0, 64, 31
1, 32972, Control_c, 0, 64, 0
1, 33012, Control_c, 0, 64, 127
1, 33038, Note_on_c, 0, 80, 0
1, 33038, Note_on_c, 0, 78, 53
1, 33117, Note_on_c, 0, 78, 0
1, 33117, Note_on_c, 0, 76, 59
1, 33117, Note_on_c, 0, 64, 0
1, 33120, Note_on_c, 0, 56, 0
1, 33120, Note_on_c, 0, 56, 40
1, 33120, Control_c, 0, 64, 0
1, 33157, Control_c, 0, 64, 127
1, 33193, Note_on_c, 0, 76, 0
1, 33193, Note_on_c, 0, 78, 58
1, 33270, Note_on_c, 0, 78, 0
1, 33270, Note_on_c, 0, 76, 56
1, 33270, Note_on_c, 0, 59, 33
1, 33279, Control_c, 0, 64, 0
1, 33313, Control_c, 0, 64, 127
1, 33346, Note_on_c, 0, 76, 0
1, 33346, Note_on_c, 0, 74, 55
1, 33423, Note_on_c, 0, 74, 0
1, 33423, Note_on_c, 0, 73, 53
1, 33423, Note_on_c, 0, 59, 0
1, 33426, Note_on_c, 0, 64, 28
1, 33431, Control_c, 0, 64, 0
1, 33459, Control_c, 0, 64, 127
1, 33499, Note_on_c, 0, 73, 0
1, 33499, Note_on_c, 0, 71, 52
1, 33579, Note_on_c, 0, 71, 0
1, 33579, Note_on_c, 0, 73, 48
1, 33579, Note_on_c, 0, 64, 0
1, 33582, Note_on_c, 0, 56, 0
1, 33582, Note_on_c, 0, 57, 40
1, 33582, Control_c, 0, 64, 0
1, 33611, Control_c, 0, 64, 127
1, 33655, Note_on_c, 0, 73, 0
1, 33655, Note_on_c, 0, 76, 50
1, 33732, Note_on_c, 0, 76, 0
1, 33732, Note_on_c, 0, 78, 51
1, 33732, Note_on_c, 0, 61, 34
1, 33738, Control_c, 0, 64, 0
1, 33783, Control_c, 0, 64, 127
1, 33808, Note_on_c, 0, 78, 0
1, 33808, Note_on_c, 0, 80, 52
1, 33885, Note_on_c, 0, 80, 0
1, 33885, Note_on_c, 0, 81, 54
1, 33885, Note_on_c, 0, 61, 0
1, 33888, Note_on_c, 0, 64, 37
1, 33888, Control_c, 0, 64, 0
1, 33932, Control_c, 0, 64, 127
1, 33961, Note_on_c, 0, 81, 0
1, 33961, Note_on_c, 0, 83, 55
1, 34039, Note_on_c, 0, 83, 0
1, 34039, Note_on_c, 0, 85, 56
1, 34039, Note_on_c, 0, 64, 0
1, 34042, Note_on_c, 0, 57, 0
1, 34042, Note_on_c, 0, 57, 40
1, 34045, Control_c, 0, 64, 0
1, 34079, Control_c, 0, 64, 127
1, 34115, Note_on_c, 0, 85, 0
1, 34115, Note_on_c, 0, 86, 58
1, 34192, Note_on_c, 0, 86, 0
1, 34192, Note_on_c, 0, 88, 60
1, 34192, Note_on_c, 0, 61, 34
1, 34198, Control_c, 0, 64, 0
1, 34233, Control_c, 0, 64, 127
1, 34268, Note_on_c, 0, 88, 0
1, 34268, Note_on_c, 0, 85, 52
1, 34345, Note_on_c, 0, 85, 0
1, 34345, Note_on_c, 0, 83, 51
1, 34345, Note_on_c, 0, 61, 0
1, 34348, Note_on_c, 0, 64, 34
1, 34348, Control_c, 0, 64, 0
1, 34399, Control_c, 0, 64, 127
1, 34421, Note_on_c, 0, 83, 0
1, 34421, Note_on_c, 0, 81, 51
1, 34501, Note_on_c, 0, 81, 0
1, 34501, Note_on_c, 0, 86, 63
1, 34501, Note_on_c, 0, 64, 0
1, 34504, Note_on_c, 0, 57, 0
1, 34504, Note_on_c, 0, 56, 40
1, 34504, Control_c, 0, 64, 0
1, 34567, Control_c, 0, 64, 127
1, 34578, Note_on_c, 0, 86, 0
1, 34578, Note_on_c, 0, 85, 61
1, 34654, Note_on_c, 0, 85, 0
1, 34654, Note_on_c, 0, 83, 59
1, 34654, Note_on_c, 0, 59, 33
1, 34659, Control_c, 0, 64, 0
1, 34690, Control_c, 0, 64, 127
1, 34731, Note_on_c, 0, 83, 0
1, 34731, Note_on_c, 0, 81, 58
1, 34807, Note_on_c, 0, 81, 0
1, 34807, Note_on_c, 0, 80, 56
1, 34807, Note_on_c, 0, 59, 0
1, 34810, Note_on_c, 0, 64, 30
1, 34815, Control_c, 0, 64, 0
1, 34839, Control_c, 0, 64, 127
1, 34883, Note_on_c, 0, 80, 0
1, 34883, Note_on_c, 0, 78, 54
1, 34963, Note_on_c, 0, 78, 0
1, 34963, Note_on_c, 0, 76, 60
1, 34963, Note_on_c, 0, 64, 0
1, 34966, Note_on_c, 0, 56, 0
1, 34966, Note_on_c, 0, 56, 40
1, 34971, Control_c, 0, 64, 0
1, 35029, Control_c, 0, 64, 127
1, 35039, Note_on_c, 0, 76, 0
1, 35039, Note_on_c, 0, 78, 58
1, 35116, Note_on_c, 0, 78, 0
1, 35116, Note_on_c, 0, 76, 56
1, 35116, Note_on_c, 0, 59, 34
1, 35123, Control_c, 0, 64, 0
1, 35177, Control_c, 0, 64, 127
1, 35192, Note_on_c, 0, 76, 0
1, 35192, Note_on_c, 0, 74, 55
1, 35268, Note_on_c, 0, 74, 0
1, 35268, Note_on_c, 0, 73, 54
1, 35268, Note_on_c, 0, 59, 0
1, 35271, Note_on_c, 0, 64, 32
1, 35274, Control_c, 0, 64, 0
1, 35304, Control_c, 0, 64, 127
1, 35344, Note_on_c, 0, 73, 0
1, 35344, Note_on_c, 0, 71, 52
1, 35424, Note_on_c, 0, 71, 0
1, 35424, Note_on_c, 0, 73, 56
1, 35424, Note_on_c, 0, 64, 0
1, 35427, Note_on_c, 0, 56, 0
1, 35427, Note_on_c, 0, 57, 46
1, 35427, Control_c, 0, 64, 0
1, 35464, Control_c, 0, 64, 127
1, 35500, Note_on_c, 0, 73, 0
1, 35500, Note_on_c, 0, 76, 50
1, 35577, Note_on_c, 0, 76, 0
1, 35577, Note_on_c, 0, 78, 52
1, 35584, Control_c, 0, 64, 0
1, 35617, Control_c, 0, 64, 127
1, 35653, Note_on_c, 0, 78, 0
1, 35653, Note_on_c, 0, 80, 53
1, 35730, Note_on_c, 0, 80, 0
1, 35730, Note_on_c, 0, 81, 55
1, 35730, Note_on_c, 0, 57, 0
1, 35735, Control_c, 0, 64, 0
1, 35770, Control_c, 0, 64, 127
1, 35806, Note_on_c, 0, 81, 0
1, 35806, Note_on_c, 0, 83, 57
1, 35886, Note_on_c, 0, 83, 0
1, 35886, Note_on_c, 0, 85, 62
1, 35886, Note_on_c, 0, 49, 42
1, 35889, Note_on_c, 0, 57, 42
1, 35894, Control_c, 0, 64, 0
1, 35951, Control_c, 0, 64, 127
1, 35962, Note_on_c, 0, 85, 0
1, 35962, Note_on_c, 0, 83, 57
1, 36038, Note_on_c, 0, 83, 0
1, 36038, Note_on_c, 0, 81, 56
1, 36044, Control_c, 0, 64, 0
1, 36081, Control_c, 0, 64, 127
1, 36114, Note_on_c, 0, 81, 0
1, 36114, Note_on_c, 0, 80, 54
1, 36191, Note_on_c, 0, 80, 0
1, 36191, Note_on_c, 0, 78, 53
1, 36191, Note_on_c, 0, 57, 0
1, 36194, Note_on_c, 0, 49, 0
1, 36200, Control_c, 0, 64, 0
1, 36245, Control_c, 0, 64, 127
1, 36267, Note_on_c, 0, 78, 0
1, 36267, Note_on_c, 0, 76, 52
1, 36346, Note_on_c, 0, 76, 0
1, 36346, Note_on_c, 0, 78, 60
1, 36346, Note_on_c, 0, 57, 46
1, 36349, Note_on_c, 0, 50, 46
1, 36349, Control_c, 0, 64, 0
1, 36390, Control_c, 0, 64, 127
1, 36423, Note_on_c, 0, 78, 0
1, 36423, Note_on_c, 0, 76, 59
1, 36499, Note_on_c, 0, 76, 0
1, 36499, Note_on_c, 0, 74, 57
1, 36505, Control_c, 0, 64, 0
1, 36539, Control_c, 0, 64, 127
1, 36575, Note_on_c, 0, 74, 0
1, 36575, Note_on_c, 0, 73, 56
1, 36651, Note_on_c, 0, 73, 0
1, 36651, Note_on_c, 0, 71, 55
1, 36651, Note_on_c, 0, 50, 0
1, 36654, Note_on_c, 0, 57, 0
1, 36658, Control_c, 0, 64, 0
1, 36691, Control_c, 0, 64, 127
1, 36727, Note_on_c, 0, 71, 0
1, 36727, Note_on_c, 0, 69, 53
1, 36807, Note_on_c, 0, 69, 0
1, 36807, Note_on_c, 0, 74, 52
1, 36807, Note_on_c, 0, 62, 45
1, 36815, Control_c, 0, 64, 0
1, 36858, Control_c, 0, 64, 127
1, 36884, Note_on_c, 0, 74, 0
1, 36884, Note_on_c, 0, 73, 54
1, 36884, Note_on_c, 0, 62, 0
1, 36887, Note_on_c, 0, 61, 42
1, 36960, Note_on_c, 0, 73, 0
1, 36960, Note_on_c, 0, 71, 57
1, 36960, Note_on_c, 0, 61, 0
1, 36963, Note_on_c, 0, 59, 43
1, 36967, Control_c, 0, 64, 0
1, 37000, Control_c, 0, 64, 127
1, 37036, Note_on_c, 0, 71, 0
1, 37036, Note_on_c, 0, 69, 60
1, 37036, Note_on_c, 0, 59, 0
1, 37039, Note_on_c, 0, 57, 46
1, 37111, Note_on_c, 0, 69, 0
1, 37111, Note_on_c, 0, 68, 64
1, 37111, Note_on_c, 0, 57, 0
1, 37114, Note_on_c, 0, 56, 48
1, 37187, Note_on_c, 0, 68, 0
1, 37187, Note_on_c, 0, 66, 67
1, 37187, Note_on_c, 0, 56, 0
1, 37190, Note_on_c, 0, 54, 51
1, 37265, Note_on_c, 0, 66, 0
1, 37265, Note_on_c, 0, 64, 70
1, 37265, Note_on_c, 0, 54, 0
1, 37268, Note_on_c, 0, 52, 54
1, 37268, Control_c, 0, 64, 0
1, 37328, Note_on_c, 0, 64, 0
1, 37328, Note_on_c, 0, 52, 0
1, 37432, Note_on_c, 0, 68, 52
1, 37432, Note_on_c, 0, 76, 62
1, 37432, Note_on_c, 0, 71, 52
1, 37435, Note_on_c, 0, 52, 50
1, 37490, Note_on_c, 0, 71, 0
1, 37490, Note_on_c, 0, 76, 0
1, 37490, Note_on_c, 0, 68, 0
1, 37493, Note_on_c, 0, 52, 0
1, 37586, Note_on_c, 0, 71, 52
1, 37586, Note_on_c, 0, 68, 52
1, 37586, Note_on_c, 0, 76, 62
1, 37589, Note_on_c, 0, 52, 50
1, 37646, Note_on_c, 0, 76, 0
1, 37646, Note_on_c, 0, 68, 0
1, 37646, Note_on_c, 0, 71, 0
1, 37649, Note_on_c, 0, 52, 0
1, 37746, Note_on_c, 0, 71, 56
1, 37746, Note_on_c, 0, 76, 67
1, 37746, Note_on_c, 0, 68, 56
1, 37749, Note_on_c, 0, 52, 54
1, 37804, Note_on_c, 0, 68, 0
1, 37804, Note_on_c, 0, 76, 0
1, 37804, Note_on_c, 0, 71, 0
1, 37807, Note_on_c, 0, 52, 0
1, 38215, Note_on_c, 0, 73, 50
1, 38215, Note_on_c, 0, 64, 42
1, 38699, Note_on_c, 0, 64, 0
1, 38699, Note_on_c, 0, 73, 0
1, 38699, Note_on_c, 0, 62, 39
1, 38702, Note_on_c, 0, 71, 47
1, 38860, Note_on_c, 0, 71, 0
1, 38860, Note_on_c, 0, 73, 44
1, 39020, Note_on_c, 0, 73, 0
1, 39020, Note_on_c, 0, 71, 44
1, 39185, Note_on_c, 0, 71, 0
1, 39185, Note_on_c, 0, 62, 0
1, 39185, Note_on_c, 0, 61, 42
1, 39188, Note_on_c, 0, 69, 50
1, 39188, Note_on_c, 0, 57, 41
1, 39669, Note_on_c, 0, 57, 0
1, 39669, Note_on_c, 0, 56, 46
1, 39830, Note_on_c, 0, 56, 0
1, 39830, Note_on_c, 0, 57, 44
1, 39990, Note_on_c, 0, 57, 0
1, 39990, Note_on_c, 0, 56, 44
1, 40154, Note_on_c, 0, 56, 0
1, 40154, Note_on_c, 0, 54, 51
1, 40476, Note_on_c, 0, 69, 0
1, 40476, Note_on_c, 0, 61, 0
1, 40476, Note_on_c, 0, 73, 50
1, 40635, Note_on_c, 0, 73, 0
1, 40635, Note_on_c, 0, 69, 42
1, 40635, Note_on_c, 0, 74, 50
1, 40958, Note_on_c, 0, 74, 0
1, 40958, Note_on_c, 0, 78, 54
1, 40958, Note_on_c, 0, 54, 0
1, 40961, Note_on_c, 0, 50, 36
1, 41121, Note_on_c, 0, 78, 0
1, 41121, Note_on_c, 0, 69, 0
1, 41121, Note_on_c, 0, 68, 45
1, 41124, Note_on_c, 0, 76, 53
1, 41124, Note_on_c, 0, 50, 0
1, 41124, Note_on_c, 0, 52, 41
1, 41282, Note_on_c, 0, 68, 0
1, 41282, Note_on_c, 0, 69, 50
1, 41282, Note_on_c, 0, 52, 0
1, 41285, Note_on_c, 0, 54, 37
1, 41443, Note_on_c, 0, 69, 0
1, 41443, Note_on_c, 0, 76, 0
1, 41443, Note_on_c, 0, 71, 42
1, 41446, Note_on_c, 0, 74, 50
1, 41446, Note_on_c, 0, 54, 0
1, 41446, Note_on_c, 0, 56, 37
1, 41605, Note_on_c, 0, 74, 0
1, 41605, Note_on_c, 0, 71, 0
1, 41605, Note_on_c, 0, 69, 45
1, 41608, Note_on_c, 0, 73, 54
1, 41608, Note_on_c, 0, 56, 0
1, 41608, Note_on_c, 0, 57, 42
1, 41766, Note_on_c, 0, 57, 0
1, 41766, Note_on_c, 0, 59, 38
1, 41928, Note_on_c, 0, 73, 0
1, 41928, Note_on_c, 0, 69, 0
1, 41928, Note_on_c, 0, 59, 0
1, 41931, Note_on_c, 0, 61, 38
1, 42096, Note_on_c, 0, 71, 50
1, 42096, Note_on_c, 0, 61, 0
1, 42096, Note_on_c, 0, 62, 42
1, 42099, Note_on_c, 0, 66, 35
1, 42099, Note_on_c, 0, 69, 35
1, 42579, Note_on_c, 0, 62, 0
1, 42579, Note_on_c, 0, 63, 42
1, 42740, Note_on_c, 0, 71, 0
1, 42740, Note_on_c, 0, 73, 44
1, 42900, Note_on_c, 0, 73, 0
1, 42900, Note_on_c, 0, 71, 44
1, 43066, Note_on_c, 0, 71, 0
1, 43066, Note_on_c, 0, 71, 50
1, 43066, Note_on_c, 0, 63, 0
1, 43069, Note_on_c, 0, 69, 0
1, 43069, Note_on_c, 0, 66, 0
1, 43069, Note_on_c, 0, 64, 42
1, 43072, Note_on_c, 0, 68, 35
1, 43549, Note_on_c, 0, 68, 0
1, 43549, Note_on_c, 0, 64, 0
1, 43549, Note_on_c, 0, 64, 35
1, 43552, Note_on_c, 0, 62, 42
1, 43552, Note_on_c, 0, 68, 35
1, 43710, Note_on_c, 0, 71, 0
1, 43710, Note_on_c, 0, 73, 45
1, 43870, Note_on_c, 0, 73, 0
1, 43870, Note_on_c, 0, 74, 46
1, 44038, Note_on_c, 0, 74, 0
1, 44038, Note_on_c, 0, 76, 52
1, 44038, Note_on_c, 0, 68, 0
1, 44041, Note_on_c, 0, 62, 0
1, 44041, Note_on_c, 0, 64, 0
1, 44041, Note_on_c, 0, 64, 29
1, 44044, Note_on_c, 0, 69, 35
1, 44044, Note_on_c, 0, 61, 29
1, 44204, Note_on_c, 0, 76, 0
1, 44204, Note_on_c, 0, 81, 49
1, 44204, Note_on_c, 0, 61, 0
1, 44207, Note_on_c, 0, 69, 0
1, 44207, Note_on_c, 0, 64, 0
1, 44325, Note_on_c, 0, 81, 0
1, 44366, Note_on_c, 0, 80, 48
1, 44489, Note_on_c, 0, 80, 0
1, 44530, Note_on_c, 0, 78, 49
1, 44530, Note_on_c, 0, 62, 35
1, 44652, Note_on_c, 0, 78, 0
1, 44692, Note_on_c, 0, 76, 48
1, 44814, Note_on_c, 0, 76, 0
1, 44855, Note_on_c, 0, 74, 46
1, 44855, Note_on_c, 0, 62, 0
1, 44855, Note_on_c, 0, 57, 31
1, 44858, Note_on_c, 0, 54, 26
1, 44985, Note_on_c, 0, 74, 0
1, 45029, Note_on_c, 0, 73, 45
1, 45029, Note_on_c, 0, 54, 0
1, 45029, Note_on_c, 0, 57, 0
1, 45032, Note_on_c, 0, 57, 36
1, 45032, Note_on_c, 0, 52, 30
1, 45368, Note_on_c, 0, 73, 0
1, 45368, Note_on_c, 0, 74, 42
1, 45457, Note_on_c, 0, 74, 0
1, 45457, Note_on_c, 0, 73, 43
1, 45548, Note_on_c, 0, 73, 0
1, 45548, Note_on_c, 0, 71, 37
1, 45548, Note_on_c, 0, 57, 0
1, 45551, Note_on_c, 0, 56, 32
1, 45724, Note_on_c, 0, 71, 0
1, 45724, Note_on_c, 0, 56, 0
1, 45724, Note_on_c, 0, 52, 0
1, 46076, Note_on_c, 0, 64, 42
1, 46076, Note_on_c, 0, 73, 50
1, 46560, Note_on_c, 0, 73, 0
1, 46560, Note_on_c, 0, 64, 0
1, 46560, Note_on_c, 0, 71, 47
1, 46563, Note_on_c, 0, 62, 39
1, 46721, Note_on_c, 0, 71, 0
1, 46721, Note_on_c, 0, 73, 44
1, 46881, Note_on_c, 0, 73, 0
1, 46881, Note_on_c, 0, 71, 44
1, 47046, Note_on_c, 0, 71, 0
1, 47046, Note_on_c, 0, 62, 0
1, 47046, Note_on_c, 0, 69, 50
1, 47049, Note_on_c, 0, 61, 42
1, 47049, Note_on_c, 0, 54, 41
1, 47530, Note_on_c, 0, 61, 0
1, 47530, Note_on_c, 0, 67, 42
1, 47530, Note_on_c, 0, 61, 42
1, 47533, Note_on_c, 0, 54, 0
1, 47533, Note_on_c, 0, 52, 46
1, 47691, Note_on_c, 0, 52, 0
1, 47691, Note_on_c, 0, 54, 44
1, 47851, Note_on_c, 0, 54, 0
1, 47851, Note_on_c, 0, 52, 44
1, 48015, Note_on_c, 0, 61, 0
1, 48015, Note_on_c, 0, 67, 0
1, 48015, Note_on_c, 0, 66, 42
1, 48018, Note_on_c, 0, 62, 42
1, 48018, Note_on_c, 0, 52, 0
1, 48018, Note_on_c, 0, 50, 51
1, 48337, Note_on_c, 0, 62, 0
1, 48337, Note_on_c, 0, 66, 0
1, 48337, Note_on_c, 0, 69, 0
1, 48340, Note_on_c, 0, 64, 50
1, 48340, Note_on_c, 0, 70, 50
1, 48340, Note_on_c, 0, 50, 0
1, 48343, Note_on_c, 0, 49, 36
1, 48496, Note_on_c, 0, 70, 0
1, 48496, Note_on_c, 0, 64, 0
1, 48496, Note_on_c, 0, 62, 42
1, 48499, Note_on_c, 0, 66, 42
1, 48499, Note_on_c, 0, 71, 50
1, 48499, Note_on_c, 0, 49, 0
1, 48502, Note_on_c, 0, 47, 51
1, 48819, Note_on_c, 0, 71, 0
1, 48819, Note_on_c, 0, 66, 0
1, 48819, Note_on_c, 0, 62, 0
1, 48822, Note_on_c, 0, 78, 54
1, 48822, Note_on_c, 0, 73, 54
1, 48822, Note_on_c, 0, 47, 0
1, 48825, Note_on_c, 0, 45, 36
1, 48982, Note_on_c, 0, 73, 0
1, 48982, Note_on_c, 0, 78, 0
1, 48982, Note_on_c, 0, 76, 53
1, 48985, Note_on_c, 0, 71, 45
1, 48985, Note_on_c, 0, 45, 0
1, 48985, Note_on_c, 0, 44, 41
1, 49304, Note_on_c, 0, 71, 0
1, 49304, Note_on_c, 0, 76, 0
1, 49304, Note_on_c, 0, 74, 50
1, 49307, Note_on_c, 0, 68, 42
1, 49307, Note_on_c, 0, 44, 0
1, 49307, Note_on_c, 0, 40, 37
1, 49466, Note_on_c, 0, 68, 0
1, 49466, Note_on_c, 0, 74, 0
1, 49466, Note_on_c, 0, 73, 54
1, 49469, Note_on_c, 0, 69, 45
1, 49469, Note_on_c, 0, 40, 0
1, 49469, Note_on_c, 0, 45, 42
1, 49627, Note_on_c, 0, 45, 0
1, 49627, Note_on_c, 0, 47, 38
1, 49789, Note_on_c, 0, 69, 0
1, 49789, Note_on_c, 0, 73, 0
1, 49789, Note_on_c, 0, 47, 0
1, 49792, Note_on_c, 0, 49, 38
1, 49952, Note_on_c, 0, 71, 50
1, 49952, Note_on_c, 0, 49, 0
1, 49952, Note_on_c, 0, 57, 35
1, 49955, Note_on_c, 0, 50, 42
1, 49955, Note_on_c, 0, 54, 35
1, 50113, Note_on_c, 0, 71, 0
1, 50113, Note_on_c, 0, 83, 55
1, 50194, Note_on_c, 0, 83, 0
1, 50275, Note_on_c, 0, 83, 55
1, 50355, Note_on_c, 0, 83, 0
1, 50436, Note_on_c, 0, 83, 59
1, 50436, Note_on_c, 0, 50, 0
1, 50436, Note_on_c, 0, 51, 42
1, 50516, Note_on_c, 0, 83, 0
1, 50597, Note_on_c, 0, 83, 53
1, 50677, Note_on_c, 0, 83, 0
1, 50757, Note_on_c, 0, 83, 53
1, 50840, Note_on_c, 0, 83, 0
1, 50922, Note_on_c, 0, 83, 60
1, 50922, Note_on_c, 0, 51, 0
1, 50922, Note_on_c, 0, 54, 0
1, 50925, Note_on_c, 0, 57, 0
1, 50925, Note_on_c, 0, 56, 35
1, 50925, Note_on_c, 0, 52, 42
1, 50928, Note_on_c, 0, 50, 42
1, 51084, Note_on_c, 0, 83, 0
1, 51084, Note_on_c, 0, 76, 53
1, 51164, Note_on_c, 0, 76, 0
1, 51245, Note_on_c, 0, 88, 53
1, 51325, Note_on_c, 0, 88, 0
1, 51406, Note_on_c, 0, 88, 62
1, 51406, Note_on_c, 0, 50, 0
1, 51406, Note_on_c, 0, 52, 0
1, 51409, Note_on_c, 0, 56, 0
1, 51409, Note_on_c, 0, 55, 35
1, 51409, Note_on_c, 0, 49, 42
1, 51412, Note_on_c, 0, 52, 35
1, 51486, Note_on_c, 0, 88, 0
1, 51567, Note_on_c, 0, 81, 56
1, 51647, Note_on_c, 0, 81, 0
1, 51727, Note_on_c, 0, 81, 56
1, 51810, Note_on_c, 0, 81, 0
1, 51892, Note_on_c, 0, 81, 57
1, 51892, Note_on_c, 0, 52, 0
1, 51892, Note_on_c, 0, 49, 0
1, 51895, Note_on_c, 0, 55, 0
1, 51895, Note_on_c, 0, 50, 35
1, 51895, Note_on_c, 0, 54, 42
1, 51975, Note_on_c, 0, 81, 0
1, 51975, Note_on_c, 0, 54, 0
1, 51975, Note_on_c, 0, 50, 0
1, 52058, Note_on_c, 0, 74, 45
1, 52058, Note_on_c, 0, 78, 53
1, 52139, Note_on_c, 0, 78, 0
1, 52139, Note_on_c, 0, 74, 0
1, 52220, Note_on_c, 0, 76, 54
1, 52220, Note_on_c, 0, 73, 45
1, 52302, Note_on_c, 0, 73, 0
1, 52302, Note_on_c, 0, 76, 0
1, 52385, Note_on_c, 0, 71, 47
1, 52385, Note_on_c, 0, 74, 56
1, 52385, Note_on_c, 0, 52, 47
1, 52465, Note_on_c, 0, 74, 0
1, 52465, Note_on_c, 0, 71, 0
1, 52465, Note_on_c, 0, 52, 0
1, 52545, Note_on_c, 0, 69, 49
1, 52545, Note_on_c, 0, 73, 58
1, 52626, Note_on_c, 0, 73, 0
1, 52626, Note_on_c, 0, 69, 0
1, 52707, Note_on_c, 0, 71, 59
1, 52707, Note_on_c, 0, 68, 50
1, 52794, Note_on_c, 0, 68, 0
1, 52794, Note_on_c, 0, 71, 0
1, 52882, Note_on_c, 0, 69, 65
1, 52882, Note_on_c, 0, 57, 60
1, 52917, Control_c, 0, 64, 127
1, 52958, Note_on_c, 0, 57, 0
1, 52958, Note_on_c, 0, 64, 44
1, 53035, Note_on_c, 0, 64, 0
1, 53035, Note_on_c, 0, 61, 44
1, 53112, Note_on_c, 0, 61, 0
1, 53112, Note_on_c, 0, 64, 44
1, 53188, Note_on_c, 0, 64, 0
1, 53188, Note_on_c, 0, 61, 44
1, 53265, Note_on_c, 0, 61, 0
1, 53265, Note_on_c, 0, 64, 44
1, 53344, Note_on_c, 0, 69, 0
1, 53344, Note_on_c, 0, 85, 65
1, 53344, Note_on_c, 0, 64, 0
1, 53347, Note_on_c, 0, 57, 55
1, 53347, Control_c, 0, 64, 0
1, 53412, Control_c, 0, 64, 127
1, 53421, Note_on_c, 0, 57, 0
1, 53421, Note_on_c, 0, 64, 48
1, 53498, Note_on_c, 0, 64, 0
1, 53498, Note_on_c, 0, 61, 45
1, 53574, Note_on_c, 0, 61, 0
1, 53574, Note_on_c, 0, 64, 43
1, 53651, Note_on_c, 0, 64, 0
1, 53651, Note_on_c, 0, 61, 43
1, 53728, Note_on_c, 0, 61, 0
1, 53728, Note_on_c, 0, 64, 43
1, 53810, Note_on_c, 0, 85, 0
1, 53810, Note_on_c, 0, 86, 67
1, 53810, Note_on_c, 0, 64, 0
1, 53813, Note_on_c, 0, 59, 60
1, 53823, Control_c, 0, 64, 0
1, 53872, Control_c, 0, 64, 127
1, 53887, Note_on_c, 0, 86, 0
1, 53887, Note_on_c, 0, 85, 65
1, 53887, Note_on_c, 0, 59, 0
1, 53890, Note_on_c, 0, 64, 44
1, 53964, Note_on_c, 0, 85, 0
1, 53964, Note_on_c, 0, 83, 64
1, 53964, Note_on_c, 0, 64, 0
1, 53967, Note_on_c, 0, 62, 44
1, 54040, Note_on_c, 0, 83, 0
1, 54040, Note_on_c, 0, 81, 63
1, 54040, Note_on_c, 0, 62, 0
1, 54043, Note_on_c, 0, 64, 44
1, 54117, Note_on_c, 0, 81, 0
1, 54117, Note_on_c, 0, 80, 61
1, 54117, Note_on_c, 0, 64, 0
1, 54120, Note_on_c, 0, 62, 44
1, 54194, Note_on_c, 0, 80, 0
1, 54194, Note_on_c, 0, 62, 0
1, 54194, Note_on_c, 0, 64, 44
1, 54197, Control_c, 0, 64, 0
1, 54273, Note_on_c, 0, 83, 65
1, 54273, Note_on_c, 0, 64, 0
1, 54273, Note_on_c, 0, 56, 55
1, 54284, Control_c, 0, 64, 127
1, 54350, Note_on_c, 0, 83, 0
1, 54350, Note_on_c, 0, 81, 64
1, 54350, Note_on_c, 0, 56, 0
1, 54353, Note_on_c, 0, 64, 42
1, 54427, Note_on_c, 0, 81, 0
1, 54427, Note_on_c, 0, 80, 62
1, 54427, Note_on_c, 0, 64, 0
1, 54430, Note_on_c, 0, 59, 42
1, 54504, Note_on_c, 0, 80, 0
1, 54504, Note_on_c, 0, 78, 61
1, 54504, Note_on_c, 0, 59, 0
1, 54507, Note_on_c, 0, 64, 42
1, 54580, Note_on_c, 0, 78, 0
1, 54580, Note_on_c, 0, 76, 60
1, 54580, Note_on_c, 0, 64, 0
1, 54583, Note_on_c, 0, 59, 42
1, 54657, Note_on_c, 0, 76, 0
1, 54657, Note_on_c, 0, 74, 58
1, 54657, Note_on_c, 0, 59, 0
1, 54660, Note_on_c, 0, 64, 42
1, 54739, Note_on_c, 0, 74, 0
1, 54739, Note_on_c, 0, 73, 61
1, 54739, Note_on_c, 0, 64, 0
1, 54742, Note_on_c, 0, 57, 51
1, 54742, Control_c, 0, 64, 0
1, 54815, Note_on_c, 0, 73, 0
1, 54815, Note_on_c, 0, 57, 0
1, 54815, Note_on_c, 0, 64, 39
1, 54892, Note_on_c, 0, 76, 49
1, 54892, Note_on_c, 0, 64, 0
1, 54892, Note_on_c, 0, 61, 39
1, 54970, Note_on_c, 0, 76, 0
1, 54970, Note_on_c, 0, 61, 0
1, 54970, Note_on_c, 0, 64, 39
1, 55047, Note_on_c, 0, 81, 52
1, 55047, Note_on_c, 0, 64, 0
1, 55047, Note_on_c, 0, 61, 39
1, 55125, Note_on_c, 0, 81, 0
1, 55125, Note_on_c, 0, 61, 0
1, 55125, Note_on_c, 0, 64, 39
1, 55203, Note_on_c, 0, 85, 55
1, 55203, Note_on_c, 0, 64, 0
1, 55203, Note_on_c, 0, 57, 50
1, 55281, Note_on_c, 0, 85, 0
1, 55281, Note_on_c, 0, 57, 0
1, 55281, Note_on_c, 0, 64, 40
1, 55358, Note_on_c, 0, 88, 58
1, 55358, Note_on_c, 0, 64, 0
1, 55358, Note_on_c, 0, 61, 40
1, 55436, Note_on_c, 0, 88, 0
1, 55436, Note_on_c, 0, 61, 0
1, 55436, Note_on_c, 0, 64, 40
1, 55514, Note_on_c, 0, 64, 0
1, 55514, Note_on_c, 0, 61, 40
1, 55591, Note_on_c, 0, 61, 0
1, 55591, Note_on_c, 0, 64, 40
1, 55669, Note_on_c, 0, 86, 67
1, 55669, Note_on_c, 0, 64, 0
1, 55669, Note_on_c, 0, 59, 60
1, 55682, Control_c, 0, 64, 0
1, 55731, Control_c, 0, 64, 127
1, 55746, Note_on_c, 0, 86, 0
1, 55746, Note_on_c, 0, 85, 65
1, 55746, Note_on_c, 0, 59, 0
1, 55749, Note_on_c, 0, 64, 44
1, 55823, Note_on_c, 0, 85, 0
1, 55823, Note_on_c, 0, 83, 64
1, 55823, Note_on_c, 0, 64, 0
1, 55826, Note_on_c, 0, 62, 44
1, 55899, Note_on_c, 0, 83, 0
1, 55899, Note_on_c, 0, 81, 63
1, 55899, Note_on_c, 0, 62, 0
1, 55902, Note_on_c, 0, 64, 44
1, 55976, Note_on_c, 0, 81, 0
1, 55976, Note_on_c, 0, 80, 61
1, 55976, Note_on_c, 0, 64, 0
1, 55979, Note_on_c, 0, 62, 44
1, 56053, Note_on_c, 0, 80, 0
1, 56053, Note_on_c, 0, 62, 0
1, 56053, Note_on_c, 0, 64, 44
1, 56056, Control_c, 0, 64, 0
1, 56132, Note_on_c, 0, 83, 65
1, 56132, Note_on_c, 0, 64, 0
1, 56132, Note_on_c, 0, 56, 55
1, 56143, Control_c, 0, 64, 127
1, 56209, Note_on_c, 0, 83, 0
1, 56209, Note_on_c, 0, 81, 64
1, 56209, Note_on_c, 0, 56, 0
1, 56212, Note_on_c, 0, 64, 42
1, 56286, Note_on_c, 0, 81, 0
1, 56286, Note_on_c, 0, 80, 62
1, 56286, Note_on_c, 0, 64, 0
1, 56289, Note_on_c, 0, 59, 42
1, 56362, Note_on_c, 0, 80, 0
1, 56362, Note_on_c, 0, 78, 61
1, 56362, Note_on_c, 0, 59, 0
1, 56365, Note_on_c, 0, 64, 42
1, 56439, Note_on_c, 0, 78, 0
1, 56439, Note_on_c, 0, 76, 60
1, 56439, Note_on_c, 0, 64, 0
1, 56442, Note_on_c, 0, 59, 42
1, 56516, Note_on_c, 0, 76, 0
1, 56516, Note_on_c, 0, 74, 58
1, 56516, Note_on_c, 0, 59, 0
1, 56519, Note_on_c, 0, 64, 42
1, 56597, Note_on_c, 0, 74, 0
1, 56597, Note_on_c, 0, 73, 61
1, 56597, Note_on_c, 0, 64, 0
1, 56600, Note_on_c, 0, 57, 51
1, 56600, Control_c, 0, 64, 0
1, 56674, Note_on_c, 0, 73, 0
1, 56674, Note_on_c, 0, 57, 0
1, 56674, Note_on_c, 0, 64, 39
1, 56751, Note_on_c, 0, 76, 49
1, 56751, Note_on_c, 0, 64, 0
1, 56751, Note_on_c, 0, 61, 39
1, 56829, Note_on_c, 0, 76, 0
1, 56829, Note_on_c, 0, 61, 0
1, 56829, Note_on_c, 0, 64, 39
1, 56906, Note_on_c, 0, 81, 52
1, 56906, Note_on_c, 0, 64, 0
1, 56906, Note_on_c, 0, 61, 39
1, 56984, Note_on_c, 0, 81, 0
1, 56984, Note_on_c, 0, 61, 0
1, 56984, Note_on_c, 0, 64, 39
1, 57062, Note_on_c, 0, 85, 55
1, 57062, Note_on_c, 0, 64, 0
1, 57062, Note_on_c, 0, 57, 50
1, 57139, Note_on_c, 0, 85, 0
1, 57139, Note_on_c, 0, 57, 0
1, 57139, Note_on_c, 0, 64, 40
1, 57217, Note_on_c, 0, 88, 58
1, 57217, Note_on_c, 0, 64, 0
1, 57217, Note_on_c, 0, 61, 40
1, 57295, Note_on_c, 0, 88, 0
1, 57295, Note_on_c, 0, 61, 0
1, 57295, Note_on_c, 0, 64, 40
1, 57373, Note_on_c, 0, 64, 0
1, 57373, Note_on_c, 0, 61, 40
1, 57450, Note_on_c, 0, 61, 0
1, 57450, Note_on_c, 0, 64, 40
1, 57528, Note_on_c, 0, 64, 0
1, 57528, Note_on_c, 0, 62, 45
1, 57609, Note_on_c, 0, 62, 0
1, 57690, Note_on_c, 0, 77, 45
1, 57847, Note_on_c, 0, 77, 0
1, 57847, Note_on_c, 0, 78, 45
1, 58004, Note_on_c, 0, 78, 0
1, 58004, Note_on_c, 0, 62, 34
1, 58004, Note_on_c, 0, 69, 40
1, 58085, Note_on_c, 0, 69, 0
1, 58085, Note_on_c, 0, 62, 0
1, 58166, Note_on_c, 0, 81, 45
1, 58322, Note_on_c, 0, 81, 0
1, 58322, Note_on_c, 0, 78, 45
1, 58479, Note_on_c, 0, 78, 0
1, 58479, Note_on_c, 0, 69, 40
1, 58479, Note_on_c, 0, 61, 34
1, 58559, Note_on_c, 0, 61, 0
1, 58559, Note_on_c, 0, 69, 0
1, 58640, Note_on_c, 0, 75, 45
1, 58797, Note_on_c, 0, 75, 0
1, 58797, Note_on_c, 0, 76, 45
1, 58954, Note_on_c, 0, 76, 0
1, 58954, Note_on_c, 0, 69, 40
1, 58954, Note_on_c, 0, 62, 34
1, 59035, Note_on_c, 0, 62, 0
1, 59035, Note_on_c, 0, 69, 0
1, 59115, Note_on_c, 0, 78, 45
1, 59273, Note_on_c, 0, 78, 0
1, 59273, Note_on_c, 0, 74, 45
1, 59430, Note_on_c, 0, 74, 0
1, 59430, Note_on_c, 0, 69, 40
1, 59430, Note_on_c, 0, 64, 34
1, 59510, Note_on_c, 0, 64, 0
1, 59510, Note_on_c, 0, 69, 0
1, 59591, Note_on_c, 0, 72, 45
1, 59748, Note_on_c, 0, 72, 0
1, 59748, Note_on_c, 0, 73, 45
1, 59906, Note_on_c, 0, 73, 0
1, 59906, Note_on_c, 0, 68, 40
1, 59906, Note_on_c, 0, 64, 34
1, 59987, Note_on_c, 0, 64, 0
1, 59987, Note_on_c, 0, 68, 0
1, 60068, Note_on_c, 0, 74, 45
1, 60226, Note_on_c, 0, 74, 0
1, 60226, Note_on_c, 0, 71, 45
1, 60385, Note_on_c, 0, 71, 0
1, 60385, Note_on_c, 0, 69, 65
1, 60385, Note_on_c, 0, 57, 60
1, 60420, Control_c, 0, 64, 127
1, 60461, Note_on_c, 0, 57, 0
1, 60461, Note_on_c, 0, 64, 44
1, 60538, Note_on_c, 0, 64, 0
1, 60538, Note_on_c, 0, 61, 44
1, 60615, Note_on_c, 0, 61, 0
1, 60615, Note_on_c, 0, 64, 44
1, 60691, Note_on_c, 0, 64, 0
1, 60691, Note_on_c, 0, 61, 44
1, 60768, Note_on_c, 0, 61, 0
1, 60768, Note_on_c, 0, 64, 44
1, 60847, Note_on_c, 0, 69, 0
1, 60847, Note_on_c, 0, 85, 65
1, 60847, Note_on_c, 0, 64, 0
1, 60850, Note_on_c, 0, 57, 55
1, 60850, Control_c, 0, 64, 0
1, 60915, Control_c, 0, 64, 127
1, 60924, Note_on_c, 0, 57, 0
1, 60924, Note_on_c, 0, 64, 48
1, 61001, Note_on_c, 0, 64, 0
1, 61001, Note_on_c, 0, 61, 45
1, 61077, Note_on_c, 0, 61, 0
1, 61077, Note_on_c, 0, 64, 43
1, 61154, Note_on_c, 0, 64, 0
1, 61154, Note_on_c, 0, 61, 43
1, 61231, Note_on_c, 0, 61, 0
1, 61231, Note_on_c, 0, 64, 43
1, 61313, Note_on_c, 0, 85, 0
1, 61313, Note_on_c, 0, 86, 67
1, 61313, Note_on_c, 0, 64, 0
1, 61316, Note_on_c, 0, 59, 60
1, 61326, Control_c, 0, 64, 0
1, 61375, Control_c, 0, 64, 127
1, 61390, Note_on_c, 0, 86, 0
1, 61390, Note_on_c, 0, 85, 65
1, 61390, Note_on_c, 0, 59, 0
1, 61393, Note_on_c, 0, 64, 44
1, 61467, Note_on_c, 0, 85, 0
1, 61467, Note_on_c, 0, 83, 64
1, 61467, Note_on_c, 0, 64, 0
1, 61470, Note_on_c, 0, 62, 44
1, 61543, Note_on_c, 0, 83, 0
1, 61543, Note_on_c, 0, 81, 63
1, 61543, Note_on_c, 0, 62, 0
1, 61546, Note_on_c, 0, 64, 44
1, 61605, Control_c, 0, 64, 0
1, 61620, Note_on_c, 0, 81, 0
1, 61620, Note_on_c, 0, 80, 61
1, 61620, Note_on_c, 0, 64, 0
1, 61623, Note_on_c, 0, 62, 44
1, 61697, Note_on_c, 0, 80, 0
1, 61697, Note_on_c, 0, 62, 0
1, 61697, Note_on_c, 0, 64, 44
1, 61776, Note_on_c, 0, 83, 65
1, 61776, Note_on_c, 0, 64, 0
1, 61776, Note_on_c, 0, 56, 55
1, 61787, Control_c, 0, 64, 127
1, 61853, Note_on_c, 0, 83, 0
1, 61853, Note_on_c, 0, 81, 64
1, 61853, Note_on_c, 0, 56, 0
1, 61856, Note_on_c, 0, 64, 42
1, 61930, Note_on_c, 0, 81, 0
1, 61930, Note_on_c, 0, 80, 62
1, 61930, Note_on_c, 0, 64, 0
1, 61933, Note_on_c, 0, 59, 42
1, 62006, Note_on_c, 0, 80, 0
1, 62006, Note_on_c, 0, 78, 61
1, 62006, Note_on_c, 0, 59, 0
1, 62009, Note_on_c, 0, 64, 42
1, 62083, Note_on_c, 0, 78, 0
1, 62083, Note_on_c, 0, 76, 60
1, 62083, Note_on_c, 0, 64, 0
1, 62086, Note_on_c, 0, 59, 42
1, 62160, Note_on_c, 0, 76, 0
1, 62160, Note_on_c, 0, 74, 58
1, 62160, Note_on_c, 0, 59, 0
1, 62163, Note_on_c, 0, 64, 42
1, 62242, Note_on_c, 0, 74, 0
1, 62242, Note_on_c, 0, 73, 61
1, 62242, Note_on_c, 0, 64, 0
1, 62245, Note_on_c, 0, 57, 51
1, 62245, Control_c, 0, 64, 0
1, 62318, Note_on_c, 0, 73, 0
1, 62318, Note_on_c, 0, 57, 0
1, 62318, Note_on_c, 0, 64, 39
1, 62395, Note_on_c, 0, 76, 49
1, 62395, Note_on_c, 0, 64, 0
1, 62395, Note_on_c, 0, 61, 39
1, 62473, Note_on_c, 0, 76, 0
1, 62473, Note_on_c, 0, 61, 0
1, 62473, Note_on_c, 0, 64, 39
1, 62550, Note_on_c, 0, 81, 52
1, 62550, Note_on_c, 0, 64, 0
1, 62550, Note_on_c, 0, 61, 39
1, 62628, Note_on_c, 0, 81, 0
1, 62628, Note_on_c, 0, 61, 0
1, 62628, Note_on_c, 0, 64, 39
1, 62706, Note_on_c, 0, 85, 55
1, 62706, Note_on_c, 0, 64, 0
1, 62706, Note_on_c, 0, 57, 50
1, 62783, Note_on_c, 0, 85, 0
1, 62783, Note_on_c, 0, 57, 0
1, 62783, Note_on_c, 0, 64, 40
1, 62861, Note_on_c, 0, 88, 58
1, 62861, Note_on_c, 0, 64, 0
1, 62861, Note_on_c, 0, 61, 40
1, 62939, Note_on_c, 0, 88, 0
1, 62939, Note_on_c, 0, 61, 0
1, 62939, Note_on_c, 0, 64, 40
1, 63017, Note_on_c, 0, 64, 0
1, 63017, Note_on_c, 0, 61, 40
1, 63094, Note_on_c, 0, 61, 0
1, 63094, Note_on_c, 0, 64, 40
1, 63172, Note_on_c, 0, 86, 67
1, 63172, Note_on_c, 0, 64, 0
1, 63172, Note_on_c, 0, 59, 60
1, 63185, Control_c, 0, 64, 0
1, 63234, Control_c, 0, 64, 127
1, 63249, Note_on_c, 0, 86, 0
1, 63249, Note_on_c, 0, 85, 65
1, 63249, Note_on_c, 0, 59, 0
1, 63252, Note_on_c, 0, 64, 44
1, 63325, Note_on_c, 0, 85, 0
1, 63325, Note_on_c, 0, 83, 64
1, 63325, Note_on_c, 0, 64, 0
1, 63328, Note_on_c, 0, 62, 44
1, 63402, Note_on_c, 0, 83, 0
1, 63402, Note_on_c, 0, 81, 63
1, 63402, Note_on_c, 0, 62, 0
1, 63405, Note_on_c, 0, 64, 44
1, 63464, Control_c, 0, 64, 0
1, 63479, Note_on_c, 0, 81, 0
1, 63479, Note_on_c, 0, 80, 61
1, 63479, Note_on_c, 0, 64, 0
1, 63482, Note_on_c, 0, 62, 44
1, 63555, Note_on_c, 0, 80, 0
1, 63555, Note_on_c, 0, 62, 0
1, 63555, Note_on_c, 0, 64, 44
1, 63635, Note_on_c, 0, 83, 65
1, 63635, Note_on_c, 0, 64, 0
1, 63635, Note_on_c, 0, 56, 55
1, 63646, Control_c, 0, 64, 127
1, 63712, Note_on_c, 0, 83, 0
1, 63712, Note_on_c, 0, 81, 64
1, 63712, Note_on_c, 0, 56, 0
1, 63715, Note_on_c, 0, 64, 42
1, 63789, Note_on_c, 0, 81, 0
1, 63789, Note_on_c, 0, 80, 62
1, 63789, Note_on_c, 0, 64, 0
1, 63792, Note_on_c, 0, 59, 42
1, 63865, Note_on_c, 0, 80, 0
1, 63865, Note_on_c, 0, 78, 61
1, 63865, Note_on_c, 0, 59, 0
1, 63868, Note_on_c, 0, 64, 42
1, 63942, Note_on_c, 0, 78, 0
1, 63942, Note_on_c, 0, 76, 60
1, 63942, Note_on_c, 0, 64, 0
1, 63945, Note_on_c, 0, 59, 42
1, 64019, Note_on_c, 0, 76, 0
1, 64019, Note_on_c, 0, 74, 58
1, 64019, Note_on_c, 0, 59, 0
1, 64022, Note_on_c, 0, 64, 42
1, 64100, Note_on_c, 0, 74, 0
1, 64100, Note_on_c, 0, 73, 61
1, 64100, Note_on_c, 0, 64, 0
1, 64103, Note_on_c, 0, 57, 51
1, 64103, Control_c, 0, 64, 0
1, 64177, Note_on_c, 0, 73, 0
1, 64177, Note_on_c, 0, 57, 0
1, 64177, Note_on_c, 0, 64, 39
1, 64254, Note_on_c, 0, 76, 49
1, 64254, Note_on_c, 0, 64, 0
1, 64254, Note_on_c, 0, 61, 39
1, 64332, Note_on_c, 0, 76, 0
1, 64332, Note_on_c, 0, 61, 0
1, 64332, Note_on_c, 0, 64, 39
1, 64409, Note_on_c, 0, 81, 52
1, 64409, Note_on_c, 0, 64, 0
1, 64409, Note_on_c, 0, 61, 39
1, 64487, Note_on_c, 0, 81, 0
1, 64487, Note_on_c, 0, 61, 0
1, 64487, Note_on_c, 0, 64, 39
1, 64565, Note_on_c, 0, 85, 55
1, 64565, Note_on_c, 0, 64, 0
1, 64565, Note_on_c, 0, 57, 50
1, 64642, Note_on_c, 0, 85, 0
1, 64642, Note_on_c, 0, 57, 0
1, 64642, Note_on_c, 0, 64, 40
1, 64720, Note_on_c, 0, 88, 58
1, 64720, Note_on_c, 0, 64, 0
1, 64720, Note_on_c, 0, 61, 40
1, 64798, Note_on_c, 0, 88, 0
1, 64798, Note_on_c, 0, 61, 0
1, 64798, Note_on_c, 0, 64, 40
1, 64876, Note_on_c, 0, 64, 0
1, 64876, Note_on_c, 0, 61, 40
1, 64953, Note_on_c, 0, 61, 0
1, 64953, Note_on_c, 0, 64, 40
1, 65031, Note_on_c, 0, 64, 0
1, 65031, Note_on_c, 0, 62, 45
1, 65112, Note_on_c, 0, 62, 0
1, 65193, Note_on_c, 0, 77, 45
1, 65351, Note_on_c, 0, 77, 0
1, 65351, Note_on_c, 0, 78, 43
1, 65509, Note_on_c, 0, 78, 0
1, 65509, Note_on_c, 0, 62, 34
1, 65509, Note_on_c, 0, 69, 40
1, 65589, Note_on_c, 0, 69, 0
1, 65589, Note_on_c, 0, 62, 0
1, 65670, Note_on_c, 0, 81, 45
1, 65827, Note_on_c, 0, 81, 0
1, 65827, Note_on_c, 0, 78, 41
1, 65984, Note_on_c, 0, 78, 0
1, 65984, Note_on_c, 0, 61, 34
1, 65984, Note_on_c, 0, 69, 40
1, 66065, Note_on_c, 0, 69, 0
1, 66065, Note_on_c, 0, 61, 0
1, 66146, Note_on_c, 0, 75, 45
1, 66303, Note_on_c, 0, 75, 0
1, 66303, Note_on_c, 0, 76, 44
1, 66459, Note_on_c, 0, 76, 0
1, 66459, Note_on_c, 0, 69, 40
1, 66459, Note_on_c, 0, 62, 34
1, 66540, Note_on_c, 0, 62, 0
1, 66540, Note_on_c, 0, 69, 0
1, 66621, Note_on_c, 0, 78, 45
1, 66778, Note_on_c, 0, 78, 0
1, 66778, Note_on_c, 0, 74, 43
1, 66935, Note_on_c, 0, 74, 0
1, 66935, Note_on_c, 0, 69, 40
1, 66935, Note_on_c, 0, 64, 34
1, 67016, Note_on_c, 0, 64, 0
1, 67016, Note_on_c, 0, 69, 0
1, 67097, Note_on_c, 0, 72, 45
1, 67254, Note_on_c, 0, 72, 0
1, 67254, Note_on_c, 0, 73, 43
1, 67411, Note_on_c, 0, 73, 0
1, 67411, Note_on_c, 0, 68, 40
1, 67411, Note_on_c, 0, 64, 34
1, 67492, Note_on_c, 0, 64, 0
1, 67492, Note_on_c, 0, 68, 0
1, 67573, Note_on_c, 0, 74, 45
1, 67731, Note_on_c, 0, 74, 0
1, 67731, Note_on_c, 0, 71, 43
1, 67889, Note_on_c, 0, 71, 0
1, 67889, Note_on_c, 0, 50, 55
1, 67889, Note_on_c, 0, 57, 63
1, 67969, Note_on_c, 0, 57, 0
1, 67969, Note_on_c, 0, 50, 0
1, 68050, Note_on_c, 0, 77, 69
1, 68050, Note_on_c, 0, 65, 58
1, 68128, Note_on_c, 0, 65, 0
1, 68128, Note_on_c, 0, 77, 0
1, 68206, Note_on_c, 0, 66, 56
1, 68206, Note_on_c, 0, 78, 67
1, 68284, Note_on_c, 0, 78, 0
1, 68284, Note_on_c, 0, 66, 0
1, 68362, Note_on_c, 0, 57, 57
1, 68362, Note_on_c, 0, 50, 48
1, 68442, Note_on_c, 0, 50, 0
1, 68442, Note_on_c, 0, 57, 0
1, 68522, Note_on_c, 0, 81, 69
1, 68522, Note_on_c, 0, 69, 58
1, 68600, Note_on_c, 0, 69, 0
1, 68600, Note_on_c, 0, 81, 0
1, 68677, Note_on_c, 0, 66, 56
1, 68677, Note_on_c, 0, 78, 67
1, 68755, Note_on_c, 0, 78, 0
1, 68755, Note_on_c, 0, 66, 0
1, 68832, Note_on_c, 0, 49, 48
1, 68832, Note_on_c, 0, 57, 57
1, 68912, Note_on_c, 0, 57, 0
1, 68912, Note_on_c, 0, 49, 0
1, 68992, Note_on_c, 0, 75, 69
1, 68992, Note_on_c, 0, 63, 58
1, 69070, Note_on_c, 0, 63, 0
1, 69070, Note_on_c, 0, 75, 0
1, 69148, Note_on_c, 0, 64, 56
1, 69148, Note_on_c, 0, 76, 67
1, 69226, Note_on_c, 0, 76, 0
1, 69226, Note_on_c, 0, 64, 0
1, 69304, Note_on_c, 0, 50, 48
1, 69304, Note_on_c, 0, 57, 57
1, 69384, Note_on_c, 0, 57, 0
1, 69384, Note_on_c, 0, 50, 0
1, 69464, Note_on_c, 0, 66, 58
1, 69464, Note_on_c, 0, 78, 69
1, 69542, Note_on_c, 0, 78, 0
1, 69542, Note_on_c, 0, 66, 0
1, 69620, Note_on_c, 0, 62, 56
1, 69620, Note_on_c, 0, 74, 67
1, 69698, Note_on_c, 0, 74, 0
1, 69698, Note_on_c, 0, 62, 0
1, 69776, Note_on_c, 0, 57, 57
1, 69776, Note_on_c, 0, 52, 48
1, 69855, Note_on_c, 0, 52, 0
1, 69855, Note_on_c, 0, 57, 0
1, 69935, Note_on_c, 0, 72, 69
1, 69935, Note_on_c, 0, 60, 58
1, 70013, Note_on_c, 0, 60, 0
1, 70013, Note_on_c, 0, 72, 0
1, 70090, Note_on_c, 0, 73, 67
1, 70090, Note_on_c, 0, 61, 56
1, 70168, Note_on_c, 0, 61, 0
1, 70168, Note_on_c, 0, 73, 0
1, 70245, Note_on_c, 0, 52, 48
1, 70245, Note_on_c, 0, 56, 57
1, 70324, Note_on_c, 0, 56, 0
1, 70324, Note_on_c, 0, 52, 0
1, 70403, Note_on_c, 0, 62, 58
1, 70403, Note_on_c, 0, 74, 69
1, 70481, Note_on_c, 0, 74, 0
1, 70481, Note_on_c, 0, 62, 0
1, 70559, Note_on_c, 0, 71, 67
1, 70559, Note_on_c, 0, 59, 56
1, 70636, Note_on_c, 0, 59, 0
1, 70636, Note_on_c, 0, 71, 0
1, 70714, Note_on_c, 0, 69, 72
1, 70714, Note_on_c, 0, 61, 72
1, 70714, Note_on_c, 0, 45, 67
1, 70728, Control_c, 0, 64, 127
1, 70791, Note_on_c, 0, 45, 0
1, 70791, Note_on_c, 0, 57, 44
1, 70867, Note_on_c, 0, 61, 0
1, 70867, Note_on_c, 0, 69, 0
1, 70867, Note_on_c, 0, 57, 0
1, 70870, Note_on_c, 0, 56, 48
1, 70944, Note_on_c, 0, 56, 0
1, 70944, Note_on_c, 0, 57, 44
1, 71021, Note_on_c, 0, 57, 0
1, 71021, Note_on_c, 0, 56, 48
1, 71028, Control_c, 0, 64, 0
1, 71064, Control_c, 0, 64, 127
1, 71097, Note_on_c, 0, 56, 0
1, 71097, Note_on_c, 0, 57, 44
1, 71177, Note_on_c, 0, 73, 62
1, 71177, Note_on_c, 0, 81, 73
1, 71177, Note_on_c, 0, 57, 0
1, 71180, Note_on_c, 0, 42, 62
1, 71195, Control_c, 0, 64, 0
1, 71231, Control_c, 0, 64, 127
1, 71254, Note_on_c, 0, 42, 0
1, 71254, Note_on_c, 0, 54, 43
1, 71330, Note_on_c, 0, 54, 0
1, 71330, Note_on_c, 0, 53, 47
1, 71407, Note_on_c, 0, 53, 0
1, 71407, Note_on_c, 0, 54, 43
1, 71484, Note_on_c, 0, 54, 0
1, 71484, Note_on_c, 0, 53, 47
1, 71487, Control_c, 0, 64, 0
1, 71527, Control_c, 0, 64, 127
1, 71560, Note_on_c, 0, 53, 0
1, 71560, Note_on_c, 0, 54, 43
1, 71643, Note_on_c, 0, 81, 0
1, 71643, Note_on_c, 0, 73, 0
1, 71643, Note_on_c, 0, 74, 63
1, 71646, Note_on_c, 0, 83, 75
1, 71646, Note_on_c, 0, 54, 0
1, 71646, Note_on_c, 0, 38, 67
1, 71655, Control_c, 0, 64, 0
1, 71680, Control_c, 0, 64, 127
1, 71719, Note_on_c, 0, 38, 0
1, 71719, Note_on_c, 0, 50, 46
1, 71796, Note_on_c, 0, 50, 0
1, 71796, Note_on_c, 0, 49, 50
1, 71873, Note_on_c, 0, 49, 0
1, 71873, Note_on_c, 0, 50, 46
1, 71949, Note_on_c, 0, 83, 0
1, 71949, Note_on_c, 0, 74, 0
1, 71949, Note_on_c, 0, 78, 60
1, 71952, Note_on_c, 0, 86, 71
1, 71952, Note_on_c, 0, 50, 0
1, 71952, Note_on_c, 0, 49, 51
1, 71952, Control_c, 0, 64, 0
1, 71963, Control_c, 0, 64, 127
1, 72026, Note_on_c, 0, 49, 0
1, 72026, Note_on_c, 0, 50, 46
1, 72066, Note_on_c, 0, 86, 0
1, 72066, Note_on_c, 0, 78, 0
1, 72066, Note_on_c, 0, 71, 65
1, 72105, Note_on_c, 0, 71, 0
1, 72105, Note_on_c, 0, 81, 76
1, 72105, Note_on_c, 0, 50, 0
1, 72108, Note_on_c, 0, 40, 55
1, 72108, Control_c, 0, 64, 0
1, 72120, Control_c, 0, 64, 127
1, 72182, Note_on_c, 0, 40, 0
1, 72182, Note_on_c, 0, 52, 46
1, 72259, Note_on_c, 0, 52, 0
1, 72259, Note_on_c, 0, 51, 49
1, 72336, Note_on_c, 0, 51, 0
1, 72336, Note_on_c, 0, 52, 46
1, 72413, Note_on_c, 0, 81, 0
1, 72413, Note_on_c, 0, 80, 69
1, 72413, Note_on_c, 0, 52, 0
1, 72416, Note_on_c, 0, 51, 50
1, 72421, Control_c, 0, 64, 0
1, 72432, Control_c, 0, 64, 127
1, 72439, Note_on_c, 0, 80, 0
1, 72439, Note_on_c, 0, 81, 62
1, 72465, Note_on_c, 0, 81, 0
1, 72465, Note_on_c, 0, 80, 63
1, 72491, Note_on_c, 0, 80, 0
1, 72491, Note_on_c, 0, 78, 70
1, 72491, Note_on_c, 0, 51, 0
1, 72494, Note_on_c, 0, 52, 46
1, 72530, Note_on_c, 0, 78, 0
1, 72530, Note_on_c, 0, 80, 64
1, 72569, Note_on_c, 0, 80, 0
1, 72569, Note_on_c, 0, 81, 72
1, 72569, Note_on_c, 0, 52, 0
1, 72572, Note_on_c, 0, 45, 67
1, 72572, Control_c, 0, 64, 0
1, 72645, Note_on_c, 0, 45, 0
1, 72645, Note_on_c, 0, 57, 44
1, 72649, Control_c, 0, 64, 127
1, 72722, Note_on_c, 0, 81, 0
1, 72722, Note_on_c, 0, 57, 0
1, 72722, Note_on_c, 0, 56, 48
1, 72799, Note_on_c, 0, 56, 0
1, 72799, Note_on_c, 0, 57, 44
1, 72875, Note_on_c, 0, 57, 0
1, 72875, Note_on_c, 0, 56, 48
1, 72882, Control_c, 0, 64, 0
1, 72919, Control_c, 0, 64, 127
1, 72952, Note_on_c, 0, 56, 0
1, 72952, Note_on_c, 0, 57, 44
1, 73031, Note_on_c, 0, 73, 62
1, 73031, Note_on_c, 0, 81, 73
1, 73031, Note_on_c, 0, 57, 0
1, 73034, Note_on_c, 0, 42, 62
1, 73049, Control_c, 0, 64, 0
1, 73086, Control_c, 0, 64, 127
1, 73108, Note_on_c, 0, 81, 0
1, 73108, Note_on_c, 0, 73, 0
1, 73108, Note_on_c, 0, 42, 0
1, 73111, Note_on_c, 0, 54, 43
1, 73185, Note_on_c, 0, 73, 62
1, 73185, Note_on_c, 0, 81, 73
1, 73185, Note_on_c, 0, 54, 0
1, 73188, Note_on_c, 0, 53, 47
1, 73261, Note_on_c, 0, 81, 0
1, 73261, Note_on_c, 0, 73, 0
1, 73261, Note_on_c, 0, 53, 0
1, 73264, Note_on_c, 0, 54, 43
1, 73338, Note_on_c, 0, 73, 62
1, 73338, Note_on_c, 0, 81, 73
1, 73338, Note_on_c, 0, 54, 0
1, 73341, Note_on_c, 0, 53, 47
1, 73341, Control_c, 0, 64, 0
1, 73382, Control_c, 0, 64, 127
1, 73415, Note_on_c, 0, 81, 0
1, 73415, Note_on_c, 0, 73, 0
1, 73415, Note_on_c, 0, 53, 0
1, 73418, Note_on_c, 0, 54, 43
1, 73497, Note_on_c, 0, 74, 63
1, 73497, Note_on_c, 0, 83, 75
1, 73497, Note_on_c, 0, 54, 0
1, 73500, Note_on_c, 0, 38, 67
1, 73509, Control_c, 0, 64, 0
1, 73534, Control_c, 0, 64, 127
1, 73574, Note_on_c, 0, 38, 0
1, 73574, Note_on_c, 0, 50, 46
1, 73651, Note_on_c, 0, 50, 0
1, 73651, Note_on_c, 0, 49, 50
1, 73727, Note_on_c, 0, 49, 0
1, 73727, Note_on_c, 0, 50, 46
1, 73804, Note_on_c, 0, 83, 0
1, 73804, Note_on_c, 0, 74, 0
1, 73804, Note_on_c, 0, 78, 60
1, 73807, Note_on_c, 0, 86, 71
1, 73807, Note_on_c, 0, 50, 0
1, 73807, Note_on_c, 0, 49, 51
1, 73807, Control_c, 0, 64, 0
1, 73817, Control_c, 0, 64, 127
1, 73881, Note_on_c, 0, 49, 0
1, 73881, Note_on_c, 0, 50, 46
1, 73920, Note_on_c, 0, 86, 0
1, 73920, Note_on_c, 0, 78, 0
1, 73920, Note_on_c, 0, 71, 65
1, 73959, Note_on_c, 0, 71, 0
1, 73959, Note_on_c, 0, 81, 76
1, 73959, Note_on_c, 0, 50, 0
1, 73962, Note_on_c, 0, 40, 55
1, 73965, Control_c, 0, 64, 0
1, 73975, Control_c, 0, 64, 127
1, 74036, Note_on_c, 0, 40, 0
1, 74036, Note_on_c, 0, 52, 46
1, 74113, Note_on_c, 0, 52, 0
1, 74113, Note_on_c, 0, 51, 49
1, 74190, Note_on_c, 0, 51, 0
1, 74190, Note_on_c, 0, 52, 46
1, 74267, Note_on_c, 0, 81, 0
1, 74267, Note_on_c, 0, 80, 69
1, 74267, Note_on_c, 0, 52, 0
1, 74270, Note_on_c, 0, 51, 50
1, 74276, Control_c, 0, 64, 0
1, 74286, Control_c, 0, 64, 127
1, 74293, Note_on_c, 0, 80, 0
1, 74293, Note_on_c, 0, 81, 62
1, 74319, Note_on_c, 0, 81, 0
1, 74319, Note_on_c, 0, 80, 63
1, 74345, Note_on_c, 0, 80, 0
1, 74345, Note_on_c, 0, 78, 70
1, 74345, Note_on_c, 0, 51, 0
1, 74348, Note_on_c, 0, 52, 46
1, 74384, Note_on_c, 0, 78, 0
1, 74384, Note_on_c, 0, 80, 64
1, 74423, Note_on_c, 0, 80, 0
1, 74423, Note_on_c, 0, 81, 72
1, 74423, Note_on_c, 0, 52, 0
1, 74426, Note_on_c, 0, 45, 67
1, 74426, Control_c, 0, 64, 0
1, 74500, Note_on_c, 0, 81, 0
1, 74500, Note_on_c, 0, 45, 0
1, 74577, Note_on_c, 0, 73, 45
1, 74730, Note_on_c, 0, 73, 0
1, 74730, Note_on_c, 0, 74, 39
1, 74883, Note_on_c, 0, 74, 0
1, 74883, Note_on_c, 0, 76, 45
1, 75037, Note_on_c, 0, 76, 0
1, 75037, Note_on_c, 0, 78, 41
1, 75190, Note_on_c, 0, 78, 0
1, 75190, Note_on_c, 0, 80, 42
1, 75190, Note_on_c, 0, 62, 38
1, 75193, Note_on_c, 0, 59, 32
1, 75193, Note_on_c, 0, 52, 32
1, 75347, Note_on_c, 0, 80, 0
1, 75347, Note_on_c, 0, 81, 47
1, 75347, Note_on_c, 0, 52, 0
1, 75350, Note_on_c, 0, 59, 0
1, 75350, Note_on_c, 0, 62, 0
1, 75350, Note_on_c, 0, 57, 32
1, 75353, Note_on_c, 0, 61, 38
1, 75424, Note_on_c, 0, 61, 0
1, 75424, Note_on_c, 0, 57, 0
1, 75500, Note_on_c, 0, 81, 0
1, 75500, Note_on_c, 0, 73, 40
1, 75654, Note_on_c, 0, 73, 0
1, 75654, Note_on_c, 0, 74, 37
1, 75807, Note_on_c, 0, 74, 0
1, 75807, Note_on_c, 0, 76, 45
1, 75960, Note_on_c, 0, 76, 0
1, 75960, Note_on_c, 0, 78, 42
1, 76114, Note_on_c, 0, 78, 0
1, 76114, Note_on_c, 0, 80, 44
1, 76114, Note_on_c, 0, 62, 38
1, 76117, Note_on_c, 0, 52, 32
1, 76117, Note_on_c, 0, 59, 32
1, 76271, Note_on_c, 0, 80, 0
1, 76271, Note_on_c, 0, 81, 45
1, 76271, Note_on_c, 0, 59, 0
1, 76274, Note_on_c, 0, 52, 0
1, 76274, Note_on_c, 0, 62, 0
1, 76274, Note_on_c, 0, 57, 32
1, 76277, Note_on_c, 0, 61, 38
1, 76347, Note_on_c, 0, 61, 0
1, 76347, Note_on_c, 0, 57, 0
1, 76424, Note_on_c, 0, 81, 0
1, 76424, Note_on_c, 0, 49, 39
1, 76577, Note_on_c, 0, 49, 0
1, 76577, Note_on_c, 0, 50, 40
1, 76731, Note_on_c, 0, 50, 0
1, 76731, Note_on_c, 0, 52, 42
1, 76884, Note_on_c, 0, 52, 0
1, 76884, Note_on_c, 0, 54, 39
1, 77037, Note_on_c, 0, 71, 38
1, 77037, Note_on_c, 0, 64, 38
1, 77037, Note_on_c, 0, 74, 45
1, 77040, Note_on_c, 0, 54, 0
1, 77040, Note_on_c, 0, 56, 43
1, 77195, Note_on_c, 0, 74, 0
1, 77195, Note_on_c, 0, 64, 0
1, 77195, Note_on_c, 0, 71, 0
1, 77198, Note_on_c, 0, 73, 45
1, 77198, Note_on_c, 0, 64, 38
1, 77198, Note_on_c, 0, 69, 38
1, 77201, Note_on_c, 0, 56, 0
1, 77201, Note_on_c, 0, 57, 46
1, 77271, Note_on_c, 0, 69, 0
1, 77271, Note_on_c, 0, 64, 0
1, 77271, Note_on_c, 0, 73, 0
1, 77348, Note_on_c, 0, 57, 0
1, 77348, Note_on_c, 0, 49, 41
1, 77501, Note_on_c, 0, 49, 0
1, 77501, Note_on_c, 0, 50, 41
1, 77655, Note_on_c, 0, 50, 0
1, 77655, Note_on_c, 0, 52, 45
1, 77808, Note_on_c, 0, 52, 0
1, 77808, Note_on_c, 0, 54, 41
1, 77961, Note_on_c, 0, 74, 45
1, 77961, Note_on_c, 0, 71, 38
1, 77961, Note_on_c, 0, 64, 38
1, 77964, Note_on_c, 0, 54, 0
1, 77964, Note_on_c, 0, 56, 45
1, 78040, Note_on_c, 0, 64, 0
1, 78040, Note_on_c, 0, 71, 0
1, 78040, Note_on_c, 0, 74, 0
1, 78118, Note_on_c, 0, 56, 0
1, 78118, Note_on_c, 0, 57, 40
1, 78197, Note_on_c, 0, 57, 0
1, 78275, Note_on_c, 0, 72, 43
1, 78430, Note_on_c, 0, 72, 0
1, 78430, Note_on_c, 0, 73, 40
1, 78585, Note_on_c, 0, 73, 0
1, 78585, Note_on_c, 0, 57, 35
1, 78585, Note_on_c, 0, 59, 41
1, 78664, Note_on_c, 0, 59, 0
1, 78664, Note_on_c, 0, 57, 0
1, 78743, Note_on_c, 0, 73, 46
1, 78898, Note_on_c, 0, 73, 0
1, 78898, Note_on_c, 0, 74, 45
1, 79053, Note_on_c, 0, 74, 0
1, 79053, Note_on_c, 0, 57, 41
1, 79053, Note_on_c, 0, 61, 49
1, 79132, Note_on_c, 0, 61, 0
1, 79132, Note_on_c, 0, 57, 0
1, 79212, Note_on_c, 0, 75, 65
1, 79368, Note_on_c, 0, 75, 0
1, 79368, Note_on_c, 0, 76, 61
1, 79524, Note_on_c, 0, 76, 0
1, 79524, Note_on_c, 0, 62, 53
1, 79524, Note_on_c, 0, 57, 44
1, 79604, Note_on_c, 0, 57, 0
1, 79604, Note_on_c, 0, 62, 0
1, 79685, Note_on_c, 0, 77, 74
1, 79843, Note_on_c, 0, 77, 0
1, 79843, Note_on_c, 0, 78, 70
1, 80001, Note_on_c, 0, 78, 0
1, 80001, Note_on_c, 0, 57, 50
1, 80001, Note_on_c, 0, 64, 60
1, 80088, Note_on_c, 0, 64, 0
1, 80088, Note_on_c, 0, 57, 0
1, 80175, Note_on_c, 0, 78, 77
1, 80378, Note_on_c, 0, 78, 0
1, 80378, Note_on_c, 0, 79, 75
1, 80558, Note_on_c, 0, 79, 0
1, 81547, Note_on_c, 0, 69, 42
1, 81551, Control_c, 0, 64, 127
1, 81621, Note_on_c, 0, 69, 0
1, 81621, Note_on_c, 0, 81, 47
1, 81923, Note_on_c, 0, 81, 0
1, 81923, Note_on_c, 0, 78, 44
1, 81996, Control_c, 0, 64, 0
1, 82036, Note_on_c, 0, 78, 0
1, 82036, Note_on_c, 0, 76, 44
1, 82073, Note_on_c, 0, 76, 0
1, 82073, Note_on_c, 0, 74, 49
1, 82073, Note_on_c, 0, 66, 33
1, 82076, Note_on_c, 0, 62, 27
1, 82130, Note_on_c, 0, 74, 0
1, 82224, Note_on_c, 0, 73, 44
1, 82281, Note_on_c, 0, 73, 0
1, 82375, Note_on_c, 0, 74, 44
1, 82434, Note_on_c, 0, 74, 0
1, 82492, Note_on_c, 0, 76, 43
1, 82531, Note_on_c, 0, 76, 0
1, 82531, Note_on_c, 0, 74, 47
1, 82531, Note_on_c, 0, 62, 0
1, 82534, Note_on_c, 0, 66, 0
1, 82534, Note_on_c, 0, 59, 27
1, 82534, Note_on_c, 0, 68, 33
1, 82588, Note_on_c, 0, 74, 0
1, 82682, Note_on_c, 0, 73, 43
1, 82738, Note_on_c, 0, 73, 0
1, 82833, Note_on_c, 0, 74, 42
1, 82893, Note_on_c, 0, 74, 0
1, 82995, Note_on_c, 0, 74, 41
1, 82995, Note_on_c, 0, 78, 49
1, 82995, Note_on_c, 0, 68, 0
1, 82998, Note_on_c, 0, 59, 0
1, 82998, Note_on_c, 0, 69, 33
1, 82998, Note_on_c, 0, 57, 27
1, 83062, Control_c, 0, 64, 127
1, 83311, Note_on_c, 0, 78, 0
1, 83311, Note_on_c, 0, 74, 0
1, 83311, Note_on_c, 0, 73, 35
1, 83314, Note_on_c, 0, 76, 41
1, 83318, Control_c, 0, 64, 0
1, 83409, Note_on_c, 0, 76, 0
1, 83409, Note_on_c, 0, 73, 0
1, 83409, Note_on_c, 0, 67, 42
1, 83457, Control_c, 0, 64, 127
1, 83484, Note_on_c, 0, 67, 0
1, 83484, Note_on_c, 0, 79, 47
1, 83484, Note_on_c, 0, 57, 0
1, 83487, Note_on_c, 0, 69, 0
1, 83785, Note_on_c, 0, 79, 0
1, 83785, Note_on_c, 0, 76, 44
1, 83796, Control_c, 0, 64, 0
1, 83899, Note_on_c, 0, 76, 0
1, 83899, Note_on_c, 0, 74, 44
1, 83936, Note_on_c, 0, 74, 0
1, 83936, Note_on_c, 0, 73, 49
1, 83936, Note_on_c, 0, 64, 33
1, 83939, Note_on_c, 0, 57, 27
1, 83993, Note_on_c, 0, 73, 0
1, 84087, Note_on_c, 0, 71, 44
1, 84144, Note_on_c, 0, 71, 0
1, 84238, Note_on_c, 0, 73, 44
1, 84296, Note_on_c, 0, 73, 0
1, 84394, Note_on_c, 0, 69, 47
1, 84394, Note_on_c, 0, 57, 0
1, 84394, Note_on_c, 0, 64, 0
1, 84397, Note_on_c, 0, 64, 33
1, 84397, Note_on_c, 0, 61, 27
1, 84450, Note_on_c, 0, 69, 0
1, 84545, Note_on_c, 0, 76, 43
1, 84601, Note_on_c, 0, 76, 0
1, 84695, Note_on_c, 0, 81, 42
1, 84756, Note_on_c, 0, 81, 0
1, 84858, Note_on_c, 0, 76, 41
1, 84858, Note_on_c, 0, 79, 49
1, 84858, Note_on_c, 0, 61, 0
1, 84861, Note_on_c, 0, 64, 0
1, 84861, Note_on_c, 0, 69, 33
1, 84861, Note_on_c, 0, 62, 27
1, 84925, Control_c, 0, 64, 127
1, 85174, Note_on_c, 0, 79, 0
1, 85174, Note_on_c, 0, 76, 0
1, 85174, Note_on_c, 0, 74, 35
1, 85177, Note_on_c, 0, 78, 41
1, 85180, Control_c, 0, 64, 0
1, 85293, Note_on_c, 0, 78, 0
1, 85293, Note_on_c, 0, 74, 0
1, 85293, Note_on_c, 0, 74, 48
1, 85332, Note_on_c, 0, 74, 0
1, 85332, Note_on_c, 0, 78, 52
1, 85332, Note_on_c, 0, 62, 0
1, 85335, Note_on_c, 0, 69, 0
1, 85335, Note_on_c, 0, 50, 51
1, 85484, Note_on_c, 0, 50, 0
1, 85484, Note_on_c, 0, 62, 45
1, 85560, Note_on_c, 0, 62, 0
1, 85636, Note_on_c, 0, 78, 0
1, 85636, Note_on_c, 0, 79, 48
1, 85636, Note_on_c, 0, 64, 48
1, 85713, Note_on_c, 0, 64, 0
1, 85791, Note_on_c, 0, 79, 0
1, 85791, Note_on_c, 0, 83, 59
1, 85791, Note_on_c, 0, 66, 52
1, 85867, Note_on_c, 0, 83, 0
1, 85867, Note_on_c, 0, 81, 57
1, 85943, Note_on_c, 0, 81, 0
1, 85943, Note_on_c, 0, 79, 55
1, 85943, Note_on_c, 0, 66, 0
1, 86018, Note_on_c, 0, 79, 0
1, 86018, Note_on_c, 0, 78, 53
1, 86094, Note_on_c, 0, 78, 0
1, 86094, Note_on_c, 0, 76, 51
1, 86176, Note_on_c, 0, 76, 0
1, 86176, Note_on_c, 0, 74, 47
1, 86215, Note_on_c, 0, 74, 0
1, 86215, Note_on_c, 0, 74, 46
1, 86254, Note_on_c, 0, 74, 0
1, 86254, Note_on_c, 0, 78, 58
1, 86254, Note_on_c, 0, 50, 50
1, 86405, Note_on_c, 0, 50, 0
1, 86405, Note_on_c, 0, 62, 44
1, 86481, Note_on_c, 0, 62, 0
1, 86557, Note_on_c, 0, 78, 0
1, 86557, Note_on_c, 0, 79, 49
1, 86557, Note_on_c, 0, 64, 48
1, 86635, Note_on_c, 0, 64, 0
1, 86713, Note_on_c, 0, 79, 0
1, 86713, Note_on_c, 0, 83, 59
1, 86713, Note_on_c, 0, 66, 53
1, 86788, Note_on_c, 0, 83, 0
1, 86788, Note_on_c, 0, 81, 57
1, 86864, Note_on_c, 0, 81, 0
1, 86864, Note_on_c, 0, 79, 55
1, 86864, Note_on_c, 0, 66, 0
1, 86940, Note_on_c, 0, 79, 0
1, 86940, Note_on_c, 0, 78, 53
1, 87015, Note_on_c, 0, 78, 0
1, 87015, Note_on_c, 0, 76, 51
1, 87099, Note_on_c, 0, 76, 0
1, 87099, Note_on_c, 0, 74, 51
1, 87131, Note_on_c, 0, 74, 0
1, 87138, Note_on_c, 0, 74, 46
1, 87177, Note_on_c, 0, 74, 0
1, 87177, Note_on_c, 0, 83, 58
1, 87177, Note_on_c, 0, 55, 50
1, 87329, Note_on_c, 0, 55, 0
1, 87329, Note_on_c, 0, 67, 44
1, 87404, Note_on_c, 0, 67, 0
1, 87480, Note_on_c, 0, 83, 0
1, 87480, Note_on_c, 0, 85, 49
1, 87480, Note_on_c, 0, 64, 48
1, 87557, Note_on_c, 0, 64, 0
1, 87635, Note_on_c, 0, 85, 0
1, 87635, Note_on_c, 0, 86, 59
1, 87635, Note_on_c, 0, 66, 53
1, 87638, Note_on_c, 0, 54, 45
1, 87710, Note_on_c, 0, 86, 0
1, 87710, Note_on_c, 0, 85, 57
1, 87786, Note_on_c, 0, 85, 0
1, 87786, Note_on_c, 0, 83, 55
1, 87786, Note_on_c, 0, 54, 0
1, 87789, Note_on_c, 0, 66, 0
1, 87862, Note_on_c, 0, 83, 0
1, 87862, Note_on_c, 0, 81, 53
1, 87937, Note_on_c, 0, 81, 0
1, 87937, Note_on_c, 0, 79, 51
1, 88014, Note_on_c, 0, 79, 0
1, 88014, Note_on_c, 0, 78, 51
1, 88091, Note_on_c, 0, 78, 0
1, 88091, Note_on_c, 0, 83, 59
1, 88091, Note_on_c, 0, 67, 53
1, 88094, Note_on_c, 0, 55, 45
1, 88167, Note_on_c, 0, 83, 0
1, 88167, Note_on_c, 0, 81, 58
1, 88242, Note_on_c, 0, 81, 0
1, 88242, Note_on_c, 0, 79, 56
1, 88242, Note_on_c, 0, 55, 0
1, 88245, Note_on_c, 0, 67, 0
1, 88318, Note_on_c, 0, 79, 0
1, 88318, Note_on_c, 0, 78, 55
1, 88394, Note_on_c, 0, 78, 0
1, 88394, Note_on_c, 0, 76, 58
1, 88473, Note_on_c, 0, 76, 0
1, 88473, Note_on_c, 0, 74, 62
1, 88564, Note_on_c, 0, 74, 0
1, 88564, Note_on_c, 0, 76, 50
1, 88564, Note_on_c, 0, 81, 59
1, 88567, Note_on_c, 0, 73, 50
1, 88567, Note_on_c, 0, 69, 53
1, 88567, Note_on_c, 0, 57, 45
1, 88720, Note_on_c, 0, 73, 0
1, 88720, Note_on_c, 0, 81, 0
1, 88720, Note_on_c, 0, 76, 0
1, 88723, Note_on_c, 0, 57, 0
1, 88723, Note_on_c, 0, 69, 0
1, 88954, Note_on_c, 0, 69, 42
1, 88959, Control_c, 0, 64, 127
1, 89029, Note_on_c, 0, 69, 0
1, 89029, Note_on_c, 0, 81, 47
1, 89331, Note_on_c, 0, 81, 0
1, 89331, Note_on_c, 0, 78, 44
1, 89403, Control_c, 0, 64, 0
1, 89444, Note_on_c, 0, 78, 0
1, 89444, Note_on_c, 0, 76, 44
1, 89481, Note_on_c, 0, 76, 0
1, 89481, Note_on_c, 0, 74, 49
1, 89481, Note_on_c, 0, 66, 33
1, 89484, Note_on_c, 0, 62, 27
1, 89538, Note_on_c, 0, 74, 0
1, 89632, Note_on_c, 0, 73, 44
1, 89689, Note_on_c, 0, 73, 0
1, 89783, Note_on_c, 0, 74, 44
1, 89841, Note_on_c, 0, 74, 0
1, 89900, Note_on_c, 0, 76, 43
1, 89939, Note_on_c, 0, 76, 0
1, 89939, Note_on_c, 0, 74, 47
1, 89939, Note_on_c, 0, 62, 0
1, 89942, Note_on_c, 0, 66, 0
1, 89942, Note_on_c, 0, 59, 27
1, 89942, Note_on_c, 0, 68, 33
1, 89995, Note_on_c, 0, 74, 0
1, 90090, Note_on_c, 0, 73, 43
1, 90146, Note_on_c, 0, 73, 0
1, 90240, Note_on_c, 0, 74, 42
1, 90301, Note_on_c, 0, 74, 0
1, 90403, Note_on_c, 0, 78, 49
1, 90403, Note_on_c, 0, 74, 41
1, 90403, Note_on_c, 0, 68, 0
1, 90406, Note_on_c, 0, 59, 0
1, 90406, Note_on_c, 0, 69, 33
1, 90406, Note_on_c, 0, 57, 27
1, 90470, Control_c, 0, 64, 127
1, 90719, Note_on_c, 0, 74, 0
1, 90719, Note_on_c, 0, 78, 0
1, 90719, Note_on_c, 0, 73, 35
1, 90722, Note_on_c, 0, 76, 41
1, 90726, Control_c, 0, 64, 0
1, 90817, Note_on_c, 0, 76, 0
1, 90817, Note_on_c, 0, 73, 0
1, 90817, Note_on_c, 0, 67, 42
1, 90865, Control_c, 0, 64, 127
1, 90892, Note_on_c, 0, 67, 0
1, 90892, Note_on_c, 0, 79, 47
1, 90892, Note_on_c, 0, 57, 0
1, 90895, Note_on_c, 0, 69, 0
1, 91193, Note_on_c, 0, 79, 0
1, 91193, Note_on_c, 0, 76, 44
1, 91204, Control_c, 0, 64, 0
1, 91306, Note_on_c, 0, 76, 0
1, 91306, Note_on_c, 0, 74, 44
1, 91344, Note_on_c, 0, 74, 0
1, 91344, Note_on_c, 0, 73, 49
1, 91344, Note_on_c, 0, 64, 33
1, 91347, Note_on_c, 0, 57, 27
1, 91401, Note_on_c, 0, 73, 0
1, 91495, Note_on_c, 0, 71, 44
1, 91551, Note_on_c, 0, 71, 0
1, 91646, Note_on_c, 0, 73, 44
1, 91704, Note_on_c, 0, 73, 0
1, 91802, Note_on_c, 0, 69, 47
1, 91802, Note_on_c, 0, 57, 0
1, 91802, Note_on_c, 0, 64, 0
1, 91805, Note_on_c, 0, 61, 27
1, 91805, Note_on_c, 0, 64, 33
1, 91858, Note_on_c, 0, 69, 0
1, 91952, Note_on_c, 0, 76, 43
1, 92009, Note_on_c, 0, 76, 0
1, 92103, Note_on_c, 0, 81, 42
1, 92164, Note_on_c, 0, 81, 0
1, 92265, Note_on_c, 0, 76, 41
1, 92265, Note_on_c, 0, 79, 49
1, 92265, Note_on_c, 0, 64, 0
1, 92268, Note_on_c, 0, 61, 0
1, 92268, Note_on_c, 0, 62, 27
1, 92268, Note_on_c, 0, 69, 33
1, 92333, Control_c, 0, 64, 127
1, 92582, Note_on_c, 0, 79, 0
1, 92582, Note_on_c, 0, 76, 0
1, 92582, Note_on_c, 0, 74, 35
1, 92585, Note_on_c, 0, 78, 41
1, 92588, Control_c, 0, 64, 0
1, 92700, Note_on_c, 0, 78, 0
1, 92700, Note_on_c, 0, 74, 0
1, 92700, Note_on_c, 0, 74, 48
1, 92740, Note_on_c, 0, 74, 0
1, 92740, Note_on_c, 0, 78, 52
1, 92740, Note_on_c, 0, 69, 0
1, 92743, Note_on_c, 0, 62, 0
1, 92743, Note_on_c, 0, 50, 51
1, 92892, Note_on_c, 0, 50, 0
1, 92892, Note_on_c, 0, 62, 45
1, 92968, Note_on_c, 0, 62, 0
1, 93044, Note_on_c, 0, 78, 0
1, 93044, Note_on_c, 0, 79, 48
1, 93044, Note_on_c, 0, 64, 48
1, 93121, Note_on_c, 0, 64, 0
1, 93199, Note_on_c, 0, 79, 0
1, 93199, Note_on_c, 0, 83, 59
1, 93199, Note_on_c, 0, 66, 52
1, 93274, Note_on_c, 0, 83, 0
1, 93274, Note_on_c, 0, 81, 57
1, 93350, Note_on_c, 0, 81, 0
1, 93350, Note_on_c, 0, 79, 55
1, 93350, Note_on_c, 0, 66, 0
1, 93426, Note_on_c, 0, 79, 0
1, 93426, Note_on_c, 0, 78, 53
1, 93502, Note_on_c, 0, 78, 0
1, 93502, Note_on_c, 0, 76, 51
1, 93584, Note_on_c, 0, 76, 0
1, 93584, Note_on_c, 0, 74, 47
1, 93623, Note_on_c, 0, 74, 0
1, 93629, Note_on_c, 0, 74, 46
1, 93662, Note_on_c, 0, 43, 50
1, 93668, Note_on_c, 0, 74, 0
1, 93668, Note_on_c, 0, 83, 58
1, 93813, Note_on_c, 0, 43, 0
1, 93813, Note_on_c, 0, 55, 44
1, 93889, Note_on_c, 0, 55, 0
1, 93965, Note_on_c, 0, 85, 49
1, 93965, Note_on_c, 0, 59, 48
1, 93971, Note_on_c, 0, 83, 0
1, 94042, Note_on_c, 0, 59, 0
1, 94119, Note_on_c, 0, 85, 0
1, 94119, Note_on_c, 0, 88, 59
1, 94119, Note_on_c, 0, 59, 53
1, 94195, Note_on_c, 0, 88, 0
1, 94195, Note_on_c, 0, 86, 57
1, 94271, Note_on_c, 0, 86, 0
1, 94271, Note_on_c, 0, 85, 55
1, 94271, Note_on_c, 0, 59, 0
1, 94346, Note_on_c, 0, 85, 0
1, 94346, Note_on_c, 0, 83, 53
1, 94422, Note_on_c, 0, 83, 0
1, 94422, Note_on_c, 0, 81, 51
1, 94499, Note_on_c, 0, 81, 0
1, 94499, Note_on_c, 0, 79, 51
1, 94576, Note_on_c, 0, 79, 0
1, 94576, Note_on_c, 0, 85, 59
1, 94576, Note_on_c, 0, 59, 45
1, 94579, Note_on_c, 0, 64, 53
1, 94582, Note_on_c, 0, 55, 45
1, 94652, Note_on_c, 0, 85, 0
1, 94652, Note_on_c, 0, 83, 58
1, 94652, Note_on_c, 0, 64, 0
1, 94655, Note_on_c, 0, 59, 0
1, 94658, Note_on_c, 0, 55, 0
1, 94727, Note_on_c, 0, 83, 0
1, 94727, Note_on_c, 0, 81, 56
1, 94803, Note_on_c, 0, 81, 0
1, 94803, Note_on_c, 0, 79, 55
1, 94879, Note_on_c, 0, 79, 0
1, 94879, Note_on_c, 0, 78, 54
1, 94957, Note_on_c, 0, 78, 0
1, 94957, Note_on_c, 0, 76, 52
1, 95048, Note_on_c, 0, 76, 0
1, 95048, Note_on_c, 0, 83, 63
1, 95048, Note_on_c, 0, 57, 45
1, 95051, Note_on_c, 0, 62, 45
1, 95054, Note_on_c, 0, 66, 53
1, 95124, Note_on_c, 0, 83, 0
1, 95124, Note_on_c, 0, 81, 61
1, 95124, Note_on_c, 0, 62, 0
1, 95127, Note_on_c, 0, 57, 0
1, 95130, Note_on_c, 0, 66, 0
1, 95199, Note_on_c, 0, 81, 0
1, 95199, Note_on_c, 0, 79, 59
1, 95275, Note_on_c, 0, 79, 0
1, 95275, Note_on_c, 0, 78, 57
1, 95350, Note_on_c, 0, 78, 0
1, 95350, Note_on_c, 0, 76, 56
1, 95427, Note_on_c, 0, 76, 0
1, 95427, Note_on_c, 0, 74, 54
1, 95504, Note_on_c, 0, 74, 0
1, 95504, Note_on_c, 0, 81, 59
1, 95504, Note_on_c, 0, 64, 45
1, 95507, Note_on_c, 0, 57, 45
1, 95511, Note_on_c, 0, 67, 53
1, 95580, Note_on_c, 0, 81, 0
1, 95580, Note_on_c, 0, 79, 61
1, 95580, Note_on_c, 0, 57, 0
1, 95583, Note_on_c, 0, 64, 0
1, 95586, Note_on_c, 0, 67, 0
1, 95656, Note_on_c, 0, 79, 0
1, 95656, Note_on_c, 0, 78, 60
1, 95731, Note_on_c, 0, 78, 0
1, 95731, Note_on_c, 0, 76, 59
1, 95807, Note_on_c, 0, 76, 0
1, 95807, Note_on_c, 0, 74, 58
1, 95885, Note_on_c, 0, 74, 0
1, 95885, Note_on_c, 0, 73, 61
1, 95976, Note_on_c, 0, 73, 0
1, 95976, Note_on_c, 0, 74, 63
1, 95976, Note_on_c, 0, 66, 53
1, 95979, Note_on_c, 0, 62, 45
1, 96054, Note_on_c, 0, 74, 0
1, 96054, Note_on_c, 0, 62, 0
1, 96054, Note_on_c, 0, 66, 0
1, 96289, Note_on_c, 0, 66, 66
1, 96289, Note_on_c, 0, 42, 45
1, 96307, Control_c, 0, 64, 127
1, 96364, Note_on_c, 0, 66, 0
1, 96364, Note_on_c, 0, 69, 66
1, 96364, Note_on_c, 0, 42, 0
1, 96367, Note_on_c, 0, 45, 45
1, 96443, Note_on_c, 0, 69, 0
1, 96443, Note_on_c, 0, 74, 73
1, 96443, Note_on_c, 0, 45, 0
1, 96446, Note_on_c, 0, 50, 52
1, 96474, Control_c, 0, 64, 0
1, 96519, Note_on_c, 0, 74, 0
1, 96519, Note_on_c, 0, 50, 0
1, 96749, Note_on_c, 0, 69, 70
1, 96749, Note_on_c, 0, 45, 48
1, 96788, Control_c, 0, 64, 127
1, 96824, Note_on_c, 0, 69, 0
1, 96824, Note_on_c, 0, 74, 70
1, 96824, Note_on_c, 0, 45, 0
1, 96827, Note_on_c, 0, 50, 48
1, 96903, Note_on_c, 0, 74, 0
1, 96903, Note_on_c, 0, 78, 75
1, 96903, Note_on_c, 0, 50, 0
1, 96906, Note_on_c, 0, 54, 57
1, 96912, Control_c, 0, 64, 0
1, 96980, Note_on_c, 0, 78, 0
1, 96980, Note_on_c, 0, 54, 0
1, 97210, Note_on_c, 0, 74, 69
1, 97210, Note_on_c, 0, 50, 51
1, 97227, Control_c, 0, 64, 127
1, 97285, Note_on_c, 0, 74, 0
1, 97285, Note_on_c, 0, 78, 69
1, 97285, Note_on_c, 0, 50, 0
1, 97288, Note_on_c, 0, 54, 51
1, 97364, Note_on_c, 0, 78, 0
1, 97364, Note_on_c, 0, 81, 81
1, 97364, Note_on_c, 0, 54, 0
1, 97367, Note_on_c, 0, 57, 57
1, 97391, Control_c, 0, 64, 0
1, 97441, Note_on_c, 0, 81, 0
1, 97441, Note_on_c, 0, 57, 0
1, 97677, Note_on_c, 0, 78, 56
1, 97677, Note_on_c, 0, 54, 44
1, 97702, Control_c, 0, 64, 127
1, 97763, Note_on_c, 0, 78, 0
1, 97763, Note_on_c, 0, 81, 56
1, 97763, Note_on_c, 0, 54, 0
1, 97766, Note_on_c, 0, 57, 44
1, 97860, Note_on_c, 0, 81, 0
1, 97860, Note_on_c, 0, 84, 65
1, 97860, Note_on_c, 0, 57, 0
1, 97863, Note_on_c, 0, 60, 53
1, 97896, Control_c, 0, 64, 0
1, 97937, Note_on_c, 0, 84, 0
1, 97937, Note_on_c, 0, 60, 0
1, 98780, Note_on_c, 0, 74, 45
1, 98780, Note_on_c, 0, 59, 35
1, 98780, Note_on_c, 0, 50, 29
1, 98783, Note_on_c, 0, 55, 29
1, 99166, Note_on_c, 0, 74, 0
1, 99166, Note_on_c, 0, 76, 42
1, 99248, Note_on_c, 0, 76, 0
1, 99248, Note_on_c, 0, 67, 47
1, 99248, Note_on_c, 0, 55, 0
1, 99251, Note_on_c, 0, 59, 0
1, 99251, Note_on_c, 0, 57, 27
1, 99251, Note_on_c, 0, 60, 32
1, 99558, Note_on_c, 0, 67, 0
1, 99576, Note_on_c, 0, 66, 47
1, 99711, Note_on_c, 0, 67, 55
1, 99711, Note_on_c, 0, 60, 0
1, 99711, Note_on_c, 0, 57, 0
1, 99714, Note_on_c, 0, 55, 29
1, 99714, Note_on_c, 0, 59, 35
1, 99729, Note_on_c, 0, 66, 0
1, 99826, Note_on_c, 0, 67, 0
1, 99864, Note_on_c, 0, 79, 54
1, 99864, Note_on_c, 0, 59, 0
1, 99864, Note_on_c, 0, 55, 0
1, 99867, Note_on_c, 0, 50, 0
1, 99939, Note_on_c, 0, 79, 0
1, 100014, Note_on_c, 0, 78, 52
1, 100089, Note_on_c, 0, 78, 0
1, 100164, Note_on_c, 0, 76, 50
1, 100239, Note_on_c, 0, 76, 0
1, 100315, Note_on_c, 0, 74, 49
1, 100390, Note_on_c, 0, 74, 0
1, 100465, Note_on_c, 0, 73, 47
1, 100542, Note_on_c, 0, 73, 0
1, 100620, Note_on_c, 0, 74, 45
1, 100620, Note_on_c, 0, 59, 35
1, 100620, Note_on_c, 0, 55, 29
1, 100623, Note_on_c, 0, 50, 29
1, 100815, Note_on_c, 0, 74, 0
1, 100815, Note_on_c, 0, 76, 35
1, 100853, Note_on_c, 0, 76, 0
1, 100853, Note_on_c, 0, 74, 35
1, 100891, Note_on_c, 0, 74, 0
1, 100891, Note_on_c, 0, 73, 35
1, 100929, Note_on_c, 0, 73, 0
1, 100929, Note_on_c, 0, 74, 45
1, 101005, Note_on_c, 0, 74, 0
1, 101005, Note_on_c, 0, 76, 42
1, 101086, Note_on_c, 0, 76, 0
1, 101086, Note_on_c, 0, 67, 47
1, 101086, Note_on_c, 0, 55, 0
1, 101089, Note_on_c, 0, 59, 0
1, 101089, Note_on_c, 0, 57, 27
1, 101089, Note_on_c, 0, 60, 32
1, 101395, Note_on_c, 0, 67, 0
1, 101413, Note_on_c, 0, 66, 47
1, 101549, Note_on_c, 0, 67, 55
1, 101549, Note_on_c, 0, 60, 0
1, 101549, Note_on_c, 0, 57, 0
1, 101552, Note_on_c, 0, 55, 29
1, 101552, Note_on_c, 0, 59, 35
1, 101566, Note_on_c, 0, 66, 0
1, 101659, Note_on_c, 0, 67, 0
1, 101696, Note_on_c, 0, 79, 54
1, 101696, Note_on_c, 0, 59, 0
1, 101696, Note_on_c, 0, 55, 0
1, 101699, Note_on_c, 0, 50, 0
1, 101771, Note_on_c, 0, 79, 0
1, 101847, Note_on_c, 0, 78, 52
1, 101922, Note_on_c, 0, 78, 0
1, 101997, Note_on_c, 0, 76, 50
1, 102072, Note_on_c, 0, 76, 0
1, 102147, Note_on_c, 0, 74, 49
1, 102222, Note_on_c, 0, 74, 0
1, 102297, Note_on_c, 0, 73, 47
1, 102375, Note_on_c, 0, 73, 0
1, 102452, Note_on_c, 0, 74, 45
1, 102452, Note_on_c, 0, 50, 29
1, 102452, Note_on_c, 0, 59, 35
1, 102455, Note_on_c, 0, 55, 29
1, 102649, Note_on_c, 0, 74, 0
1, 102649, Note_on_c, 0, 76, 35
1, 102687, Note_on_c, 0, 76, 0
1, 102687, Note_on_c, 0, 74, 35
1, 102725, Note_on_c, 0, 74, 0
1, 102725, Note_on_c, 0, 73, 35
1, 102763, Note_on_c, 0, 73, 0
1, 102763, Note_on_c, 0, 74, 45
1, 102839, Note_on_c, 0, 74, 0
1, 102839, Note_on_c, 0, 76, 42
1, 102920, Note_on_c, 0, 76, 0
1, 102920, Note_on_c, 0, 67, 47
1, 102920, Note_on_c, 0, 55, 0
1, 102923, Note_on_c, 0, 59, 0
1, 102923, Note_on_c, 0, 60, 32
1, 102923, Note_on_c, 0, 57, 27
1, 103226, Note_on_c, 0, 67, 0
1, 103226, Note_on_c, 0, 66, 47
1, 103384, Note_on_c, 0, 66, 0
1, 103384, Note_on_c, 0, 67, 52
1, 103384, Note_on_c, 0, 57, 0
1, 103387, Note_on_c, 0, 60, 0
1, 103387, Note_on_c, 0, 50, 0
1, 103387, Note_on_c, 0, 55, 24
1, 103390, Note_on_c, 0, 59, 32
1, 103537, Note_on_c, 0, 67, 0
1, 103537, Note_on_c, 0, 59, 0
1, 103537, Note_on_c, 0, 55, 0
1, 103841, Note_on_c, 0, 64, 29
1, 103841, Note_on_c, 0, 59, 29
1, 103841, Note_on_c, 0, 67, 35
1, 103844, Note_on_c, 0, 52, 35
1, 103886, Control_c, 0, 64, 127
1, 104331, Note_on_c, 0, 67, 0
1, 104331, Note_on_c, 0, 59, 0
1, 104331, Note_on_c, 0, 64, 0
1, 104334, Note_on_c, 0, 64, 32
1, 104334, Note_on_c, 0, 69, 38
1, 104334, Note_on_c, 0, 67, 32
1, 104337, Note_on_c, 0, 52, 0
1, 104337, Note_on_c, 0, 48, 37
1, 104337, Control_c, 0, 64, 0
1, 104426, Control_c, 0, 64, 127
1, 104799, Note_on_c, 0, 67, 0
1, 104799, Note_on_c, 0, 69, 0
1, 104799, Note_on_c, 0, 64, 0
1, 104802, Note_on_c, 0, 66, 33
1, 104802, Note_on_c, 0, 69, 33
1, 104802, Note_on_c, 0, 74, 39
1, 104805, Note_on_c, 0, 48, 0
1, 104805, Note_on_c, 0, 50, 39
1, 104808, Control_c, 0, 64, 0
1, 105025, Control_c, 0, 64, 127
1, 105288, Note_on_c, 0, 74, 0
1, 105288, Note_on_c, 0, 69, 0
1, 105288, Note_on_c, 0, 66, 0
1, 105291, Note_on_c, 0, 62, 29
1, 105291, Note_on_c, 0, 71, 35
1, 105291, Note_on_c, 0, 67, 29
1, 105294, Note_on_c, 0, 50, 0
1, 105294, Note_on_c, 0, 43, 35
1, 105301, Control_c, 0, 64, 0
1, 105460, Note_on_c, 0, 67, 0
1, 105460, Note_on_c, 0, 71, 0
1, 105460, Note_on_c, 0, 62, 0
1, 105463, Note_on_c, 0, 43, 0
1, 105804, Note_on_c, 0, 64, 52
1, 105804, Note_on_c, 0, 55, 43
1, 105804, Note_on_c, 0, 60, 43
1, 105807, Note_on_c, 0, 36, 43
1, 105807, Note_on_c, 0, 48, 52
1, 105850, Control_c, 0, 64, 127
1, 106305, Note_on_c, 0, 60, 0
1, 106305, Note_on_c, 0, 55, 0
1, 106305, Note_on_c, 0, 64, 0
1, 106308, Note_on_c, 0, 66, 57
1, 106308, Note_on_c, 0, 60, 48
1, 106308, Note_on_c, 0, 64, 48
1, 106311, Note_on_c, 0, 48, 0
1, 106311, Note_on_c, 0, 36, 0
1, 106311, Note_on_c, 0, 33, 46
1, 106314, Note_on_c, 0, 45, 55
1, 106314, Control_c, 0, 64, 0
1, 106404, Control_c, 0, 64, 127
1, 106794, Note_on_c, 0, 64, 0
1, 106794, Note_on_c, 0, 60, 0
1, 106794, Note_on_c, 0, 66, 0
1, 106797, Note_on_c, 0, 66, 49
1, 106797, Note_on_c, 0, 63, 49
1, 106797, Note_on_c, 0, 71, 58
1, 106800, Note_on_c, 0, 45, 0
1, 106800, Note_on_c, 0, 33, 0
1, 106800, Note_on_c, 0, 47, 58
1, 106803, Note_on_c, 0, 35, 49
1, 106803, Control_c, 0, 64, 0
1, 107021, Control_c, 0, 64, 127
1, 107290, Note_on_c, 0, 71, 0
1, 107290, Note_on_c, 0, 63, 0
1, 107290, Note_on_c, 0, 66, 0
1, 107293, Note_on_c, 0, 64, 43
1, 107293, Note_on_c, 0, 67, 52
1, 107293, Note_on_c, 0, 59, 43
1, 107296, Note_on_c, 0, 35, 0
1, 107296, Note_on_c, 0, 47, 0
1, 107296, Note_on_c, 0, 40, 52
1, 107303, Control_c, 0, 64, 0
1, 107463, Note_on_c, 0, 59, 0
1, 107463, Note_on_c, 0, 67, 0
1, 107463, Note_on_c, 0, 64, 0
1, 107466, Note_on_c, 0, 40, 0
1, 107809, Note_on_c, 0, 59, 29
1, 107809, Note_on_c, 0, 54, 29
1, 107809, Note_on_c, 0, 62, 35
1, 107812, Note_on_c, 0, 47, 35
1, 107855, Control_c, 0, 64, 127
1, 108312, Note_on_c, 0, 62, 0
1, 108312, Note_on_c, 0, 54, 0
1, 108312, Note_on_c, 0, 59, 0
1, 108315, Note_on_c, 0, 64, 38
1, 108315, Note_on_c, 0, 59, 32
1, 108315, Note_on_c, 0, 62, 32
1, 108318, Note_on_c, 0, 47, 0
1, 108318, Note_on_c, 0, 43, 37
1, 108318, Control_c, 0, 64, 0
1, 108410, Control_c, 0, 64, 127
1, 108798, Note_on_c, 0, 62, 0
1, 108798, Note_on_c, 0, 59, 0
1, 108798, Note_on_c, 0, 64, 0
1, 108801, Note_on_c, 0, 61, 33
1, 108801, Note_on_c, 0, 64, 33
1, 108801, Note_on_c, 0, 69, 39
1, 108804, Note_on_c, 0, 43, 0
1, 108804, Note_on_c, 0, 45, 39
1, 108807, Control_c, 0, 64, 0
1, 109025, Control_c, 0, 64, 127
1, 109291, Note_on_c, 0, 69, 0
1, 109291, Note_on_c, 0, 64, 0
1, 109291, Note_on_c, 0, 61, 0
1, 109294, Note_on_c, 0, 66, 35
1, 109294, Note_on_c, 0, 57, 29
1, 109294, Note_on_c, 0, 62, 29
1, 109297, Note_on_c, 0, 45, 0
1, 109297, Note_on_c, 0, 38, 35
1, 109304, Control_c, 0, 64, 0
1, 109464, Note_on_c, 0, 62, 0
1, 109464, Note_on_c, 0, 57, 0
1, 109464, Note_on_c, 0, 66, 0
1, 109467, Note_on_c, 0, 38, 0
1, 109809, Note_on_c, 0, 73, 52
1, 109809, Note_on_c, 0, 64, 43
1, 109809, Note_on_c, 0, 67, 43
1, 109812, Note_on_c, 0, 58, 52
1, 109812, Note_on_c, 0, 46, 43
1, 109856, Control_c, 0, 64, 127
1, 110314, Note_on_c, 0, 67, 0
1, 110314, Note_on_c, 0, 64, 0
1, 110314, Note_on_c, 0, 73, 0
1, 110317, Note_on_c, 0, 62, 48
1, 110317, Note_on_c, 0, 74, 57
1, 110317, Note_on_c, 0, 66, 48
1, 110320, Note_on_c, 0, 46, 0
1, 110320, Note_on_c, 0, 58, 0
1, 110320, Note_on_c, 0, 47, 46
1, 110323, Note_on_c, 0, 59, 55
1, 110323, Control_c, 0, 64, 0
1, 110415, Control_c, 0, 64, 127
1, 110812, Note_on_c, 0, 66, 0
1, 110812, Note_on_c, 0, 74, 0
1, 110812, Note_on_c, 0, 62, 0
1, 110815, Note_on_c, 0, 77, 60
1, 110815, Note_on_c, 0, 71, 51
1, 110815, Note_on_c, 0, 59, 0
1, 110818, Note_on_c, 0, 47, 0
1, 110818, Note_on_c, 0, 55, 58
1, 110818, Note_on_c, 0, 43, 49
1, 110818, Control_c, 0, 64, 0
1, 111047, Control_c, 0, 64, 127
1, 111320, Note_on_c, 0, 71, 0
1, 111320, Note_on_c, 0, 77, 0
1, 111320, Note_on_c, 0, 70, 45
1, 111323, Note_on_c, 0, 78, 54
1, 111323, Note_on_c, 0, 73, 45
1, 111323, Note_on_c, 0, 43, 0
1, 111326, Note_on_c, 0, 55, 0
1, 111326, Note_on_c, 0, 54, 52
1, 111326, Note_on_c, 0, 42, 48
1, 111332, Control_c, 0, 64, 0
1, 111401, Note_on_c, 0, 42, 0
1, 111401, Note_on_c, 0, 54, 0
1, 111482, Note_on_c, 0, 73, 0
1, 111482, Note_on_c, 0, 78, 0
1, 111482, Note_on_c, 0, 70, 0
1, 111485, Note_on_c, 0, 55, 52
1, 111562, Note_on_c, 0, 55, 0
1, 111643, Note_on_c, 0, 54, 52
1, 111724, Note_on_c, 0, 54, 0
1, 111804, Note_on_c, 0, 52, 52
1, 111885, Note_on_c, 0, 52, 0
1, 111966, Note_on_c, 0, 50, 52
1, 112046, Note_on_c, 0, 50, 0
1, 112127, Note_on_c, 0, 49, 52
1, 112210, Note_on_c, 0, 49, 0
1, 112292, Note_on_c, 0, 47, 52
1, 112454, Note_on_c, 0, 78, 52
1, 112454, Note_on_c, 0, 47, 0
1, 112535, Note_on_c, 0, 78, 0
1, 112616, Note_on_c, 0, 78, 48
1, 112696, Note_on_c, 0, 78, 0
1, 112779, Note_on_c, 0, 79, 44
1, 112779, Note_on_c, 0, 71, 40
1, 112784, Control_c, 0, 64, 127
1, 112820, Note_on_c, 0, 79, 0
1, 112820, Note_on_c, 0, 81, 44
1, 112860, Note_on_c, 0, 81, 0
1, 112860, Note_on_c, 0, 79, 53
1, 112860, Note_on_c, 0, 71, 0
1, 112863, Note_on_c, 0, 74, 30
1, 112936, Control_c, 0, 64, 0
1, 112941, Note_on_c, 0, 79, 0
1, 112941, Note_on_c, 0, 78, 49
1, 112941, Note_on_c, 0, 74, 0
1, 112944, Note_on_c, 0, 71, 33
1, 113021, Note_on_c, 0, 78, 0
1, 113021, Note_on_c, 0, 71, 0
1, 113021, Note_on_c, 0, 74, 30
1, 113102, Note_on_c, 0, 78, 46
1, 113102, Note_on_c, 0, 74, 0
1, 113102, Note_on_c, 0, 71, 33
1, 113183, Note_on_c, 0, 78, 0
1, 113183, Note_on_c, 0, 71, 0
1, 113183, Note_on_c, 0, 74, 30
1, 113266, Note_on_c, 0, 79, 48
1, 113266, Note_on_c, 0, 74, 0
1, 113266, Note_on_c, 0, 70, 40
1, 113269, Control_c, 0, 64, 127
1, 113307, Note_on_c, 0, 79, 0
1, 113307, Note_on_c, 0, 81, 48
1, 113348, Note_on_c, 0, 81, 0
1, 113348, Note_on_c, 0, 79, 52
1, 113348, Note_on_c, 0, 70, 0
1, 113351, Note_on_c, 0, 73, 30
1, 113419, Control_c, 0, 64, 0
1, 113428, Note_on_c, 0, 79, 0
1, 113428, Note_on_c, 0, 78, 52
1, 113428, Note_on_c, 0, 73, 0
1, 113431, Note_on_c, 0, 70, 33
1, 113509, Note_on_c, 0, 78, 0
1, 113509, Note_on_c, 0, 70, 0
1, 113509, Note_on_c, 0, 73, 30
1, 113589, Note_on_c, 0, 78, 48
1, 113589, Note_on_c, 0, 73, 0
1, 113589, Note_on_c, 0, 70, 33
1, 113670, Note_on_c, 0, 78, 0
1, 113670, Note_on_c, 0, 70, 0
1, 113670, Note_on_c, 0, 73, 31
1, 113753, Note_on_c, 0, 78, 52
1, 113753, Note_on_c, 0, 73, 0
1, 113753, Note_on_c, 0, 69, 40
1, 113758, Control_c, 0, 64, 127
1, 113834, Note_on_c, 0, 69, 0
1, 113834, Note_on_c, 0, 73, 29
1, 113915, Note_on_c, 0, 73, 0
1, 113915, Note_on_c, 0, 69, 32
1, 113995, Note_on_c, 0, 69, 0
1, 113995, Note_on_c, 0, 73, 30
1, 114078, Note_on_c, 0, 78, 0
1, 114078, Note_on_c, 0, 79, 46
1, 114078, Note_on_c, 0, 73, 0
1, 114081, Note_on_c, 0, 69, 32
1, 114081, Control_c, 0, 64, 0
1, 114157, Note_on_c, 0, 79, 0
1, 114157, Note_on_c, 0, 81, 49
1, 114157, Note_on_c, 0, 69, 0
1, 114160, Note_on_c, 0, 73, 30
1, 114241, Note_on_c, 0, 81, 0
1, 114241, Note_on_c, 0, 83, 52
1, 114241, Note_on_c, 0, 73, 0
1, 114244, Note_on_c, 0, 68, 40
1, 114265, Control_c, 0, 64, 127
1, 114323, Note_on_c, 0, 68, 0
1, 114323, Note_on_c, 0, 71, 31
1, 114404, Note_on_c, 0, 83, 0
1, 114404, Note_on_c, 0, 76, 48
1, 114404, Note_on_c, 0, 71, 0
1, 114407, Note_on_c, 0, 68, 33
1, 114410, Control_c, 0, 64, 0
1, 114484, Note_on_c, 0, 76, 0
1, 114484, Note_on_c, 0, 68, 0
1, 114484, Note_on_c, 0, 71, 29
1, 114565, Note_on_c, 0, 76, 48
1, 114565, Note_on_c, 0, 71, 0
1, 114565, Note_on_c, 0, 68, 33
1, 114646, Note_on_c, 0, 76, 0
1, 114646, Note_on_c, 0, 68, 0
1, 114646, Note_on_c, 0, 71, 31
1, 114729, Note_on_c, 0, 78, 48
1, 114729, Note_on_c, 0, 71, 0
1, 114729, Note_on_c, 0, 67, 40
1, 114729, Control_c, 0, 64, 127
1, 114769, Note_on_c, 0, 78, 0
1, 114769, Note_on_c, 0, 79, 48
1, 114810, Note_on_c, 0, 79, 0
1, 114810, Note_on_c, 0, 78, 52
1, 114810, Note_on_c, 0, 67, 0
1, 114813, Note_on_c, 0, 71, 31
1, 114890, Note_on_c, 0, 78, 0
1, 114890, Note_on_c, 0, 76, 52
1, 114890, Note_on_c, 0, 71, 0
1, 114893, Note_on_c, 0, 67, 34
1, 114905, Control_c, 0, 64, 0
1, 114971, Note_on_c, 0, 76, 0
1, 114971, Note_on_c, 0, 67, 0
1, 114971, Note_on_c, 0, 71, 31
1, 115052, Note_on_c, 0, 76, 48
1, 115052, Note_on_c, 0, 71, 0
1, 115052, Note_on_c, 0, 67, 34
1, 115133, Note_on_c, 0, 76, 0
1, 115133, Note_on_c, 0, 67, 0
1, 115133, Note_on_c, 0, 71, 30
1, 115216, Note_on_c, 0, 76, 48
1, 115216, Note_on_c, 0, 71, 0
1, 115216, Note_on_c, 0, 66, 45
1, 115232, Control_c, 0, 64, 127
1, 115256, Note_on_c, 0, 76, 0
1, 115256, Note_on_c, 0, 78, 48
1, 115296, Note_on_c, 0, 78, 0
1, 115296, Note_on_c, 0, 76, 56
1, 115296, Note_on_c, 0, 66, 0
1, 115299, Note_on_c, 0, 71, 32
1, 115377, Note_on_c, 0, 76, 0
1, 115377, Note_on_c, 0, 74, 48
1, 115377, Note_on_c, 0, 71, 0
1, 115380, Note_on_c, 0, 66, 35
1, 115380, Control_c, 0, 64, 0
1, 115458, Note_on_c, 0, 74, 0
1, 115458, Note_on_c, 0, 66, 0
1, 115458, Note_on_c, 0, 71, 32
1, 115538, Note_on_c, 0, 74, 52
1, 115538, Note_on_c, 0, 71, 0
1, 115538, Note_on_c, 0, 66, 35
1, 115619, Note_on_c, 0, 74, 0
1, 115619, Note_on_c, 0, 66, 0
1, 115619, Note_on_c, 0, 71, 33
1, 115703, Note_on_c, 0, 74, 52
1, 115703, Note_on_c, 0, 71, 0
1, 115703, Note_on_c, 0, 66, 46
1, 115731, Control_c, 0, 64, 127
1, 115783, Note_on_c, 0, 66, 0
1, 115783, Note_on_c, 0, 69, 33
1, 115864, Note_on_c, 0, 69, 0
1, 115864, Note_on_c, 0, 66, 35
1, 115945, Note_on_c, 0, 66, 0
1, 115945, Note_on_c, 0, 69, 33
1, 116027, Note_on_c, 0, 74, 0
1, 116027, Note_on_c, 0, 76, 47
1, 116027, Note_on_c, 0, 69, 0
1, 116030, Note_on_c, 0, 66, 35
1, 116053, Control_c, 0, 64, 0
1, 116106, Note_on_c, 0, 76, 0
1, 116106, Note_on_c, 0, 78, 50
1, 116106, Note_on_c, 0, 66, 0
1, 116109, Note_on_c, 0, 69, 32
1, 116190, Note_on_c, 0, 78, 0
1, 116190, Note_on_c, 0, 79, 53
1, 116190, Note_on_c, 0, 69, 0
1, 116193, Note_on_c, 0, 64, 40
1, 116193, Control_c, 0, 64, 127
1, 116273, Note_on_c, 0, 64, 0
1, 116273, Note_on_c, 0, 67, 33
1, 116354, Note_on_c, 0, 79, 0
1, 116354, Note_on_c, 0, 72, 50
1, 116354, Note_on_c, 0, 67, 0
1, 116357, Note_on_c, 0, 64, 35
1, 116360, Control_c, 0, 64, 0
1, 116435, Note_on_c, 0, 72, 0
1, 116435, Note_on_c, 0, 64, 0
1, 116435, Note_on_c, 0, 67, 33
1, 116516, Note_on_c, 0, 72, 50
1, 116516, Note_on_c, 0, 67, 0
1, 116516, Note_on_c, 0, 64, 35
1, 116597, Note_on_c, 0, 72, 0
1, 116597, Note_on_c, 0, 64, 0
1, 116597, Note_on_c, 0, 67, 33
1, 116681, Note_on_c, 0, 74, 53
1, 116681, Note_on_c, 0, 67, 0
1, 116681, Note_on_c, 0, 64, 40
1, 116689, Control_c, 0, 64, 127
1, 116708, Note_on_c, 0, 74, 0
1, 116708, Note_on_c, 0, 72, 43
1, 116735, Note_on_c, 0, 72, 0
1, 116735, Note_on_c, 0, 71, 43
1, 116762, Note_on_c, 0, 71, 0
1, 116762, Note_on_c, 0, 72, 49
1, 116762, Note_on_c, 0, 64, 0
1, 116765, Note_on_c, 0, 67, 32
1, 116772, Control_c, 0, 64, 0
1, 116810, Control_c, 0, 64, 127
1, 116843, Note_on_c, 0, 67, 0
1, 116843, Note_on_c, 0, 64, 35
1, 116924, Note_on_c, 0, 64, 0
1, 116924, Note_on_c, 0, 67, 32
1, 117005, Note_on_c, 0, 72, 0
1, 117005, Note_on_c, 0, 79, 53
1, 117005, Note_on_c, 0, 67, 0
1, 117008, Note_on_c, 0, 64, 35
1, 117086, Note_on_c, 0, 64, 0
1, 117086, Note_on_c, 0, 67, 33
1, 117171, Note_on_c, 0, 79, 0
1, 117171, Note_on_c, 0, 78, 53
1, 117171, Note_on_c, 0, 67, 0
1, 117174, Note_on_c, 0, 62, 40
1, 117178, Control_c, 0, 64, 0
1, 117201, Control_c, 0, 64, 127
1, 117254, Note_on_c, 0, 62, 0
1, 117254, Note_on_c, 0, 66, 33
1, 117335, Note_on_c, 0, 78, 0
1, 117335, Note_on_c, 0, 71, 50
1, 117335, Note_on_c, 0, 66, 0
1, 117338, Note_on_c, 0, 62, 35
1, 117343, Control_c, 0, 64, 0
1, 117416, Note_on_c, 0, 71, 0
1, 117416, Note_on_c, 0, 62, 0
1, 117416, Note_on_c, 0, 66, 33
1, 117497, Note_on_c, 0, 71, 50
1, 117497, Note_on_c, 0, 66, 0
1, 117497, Note_on_c, 0, 62, 35
1, 117578, Note_on_c, 0, 71, 0
1, 117578, Note_on_c, 0, 62, 0
1, 117578, Note_on_c, 0, 66, 33
1, 117664, Note_on_c, 0, 73, 49
1, 117664, Note_on_c, 0, 66, 0
1, 117664, Note_on_c, 0, 62, 35
1, 117668, Control_c, 0, 64, 127
1, 117691, Note_on_c, 0, 73, 0
1, 117691, Note_on_c, 0, 71, 34
1, 117718, Note_on_c, 0, 71, 0
1, 117718, Note_on_c, 0, 70, 34
1, 117745, Note_on_c, 0, 70, 0
1, 117745, Note_on_c, 0, 71, 40
1, 117745, Note_on_c, 0, 62, 0
1, 117748, Note_on_c, 0, 66, 29
1, 117754, Control_c, 0, 64, 0
1, 117798, Control_c, 0, 64, 127
1, 117827, Note_on_c, 0, 66, 0
1, 117827, Note_on_c, 0, 62, 29
1, 117908, Note_on_c, 0, 62, 0
1, 117908, Note_on_c, 0, 66, 27
1, 117989, Note_on_c, 0, 71, 0
1, 117989, Note_on_c, 0, 78, 46
1, 117989, Note_on_c, 0, 66, 0
1, 117992, Note_on_c, 0, 62, 29
1, 118071, Note_on_c, 0, 62, 0
1, 118071, Note_on_c, 0, 66, 28
1, 118155, Note_on_c, 0, 78, 0
1, 118155, Note_on_c, 0, 78, 50
1, 118155, Note_on_c, 0, 66, 0
1, 118158, Note_on_c, 0, 58, 39
1, 118158, Control_c, 0, 64, 0
1, 118194, Control_c, 0, 64, 127
1, 118236, Note_on_c, 0, 58, 0
1, 118236, Note_on_c, 0, 66, 30
1, 118318, Note_on_c, 0, 78, 0
1, 118318, Note_on_c, 0, 76, 46
1, 118318, Note_on_c, 0, 66, 0
1, 118321, Note_on_c, 0, 58, 35
1, 118325, Control_c, 0, 64, 0
1, 118356, Control_c, 0, 64, 127
1, 118399, Note_on_c, 0, 58, 0
1, 118399, Note_on_c, 0, 66, 29
1, 118480, Note_on_c, 0, 76, 0
1, 118480, Note_on_c, 0, 73, 46
1, 118480, Note_on_c, 0, 66, 0
1, 118483, Note_on_c, 0, 58, 36
1, 118487, Control_c, 0, 64, 0
1, 118561, Note_on_c, 0, 73, 0
1, 118561, Note_on_c, 0, 58, 0
1, 118561, Note_on_c, 0, 66, 33
1, 118645, Note_on_c, 0, 76, 53
1, 118645, Note_on_c, 0, 66, 0
1, 118645, Note_on_c, 0, 59, 40
1, 118660, Control_c, 0, 64, 127
1, 118726, Note_on_c, 0, 59, 0
1, 118726, Note_on_c, 0, 66, 33
1, 118807, Note_on_c, 0, 76, 0
1, 118807, Note_on_c, 0, 74, 47
1, 118807, Note_on_c, 0, 66, 0
1, 118810, Note_on_c, 0, 59, 35
1, 118814, Control_c, 0, 64, 0
1, 118849, Control_c, 0, 64, 127
1, 118888, Note_on_c, 0, 59, 0
1, 118888, Note_on_c, 0, 66, 33
1, 118969, Note_on_c, 0, 74, 0
1, 118969, Note_on_c, 0, 71, 46
1, 118969, Note_on_c, 0, 66, 0
1, 118972, Note_on_c, 0, 59, 35
1, 118972, Control_c, 0, 64, 0
1, 119050, Note_on_c, 0, 71, 0
1, 119050, Note_on_c, 0, 59, 0
1, 119050, Note_on_c, 0, 66, 33
1, 119134, Note_on_c, 0, 70, 53
1, 119134, Note_on_c, 0, 66, 0
1, 119134, Note_on_c, 0, 54, 33
1, 119217, Note_on_c, 0, 71, 48
1, 119225, Note_on_c, 0, 70, 0
1, 119300, Note_on_c, 0, 73, 54
1, 119300, Note_on_c, 0, 54, 0
1, 119308, Note_on_c, 0, 71, 0
1, 119383, Note_on_c, 0, 74, 50
1, 119391, Note_on_c, 0, 73, 0
1, 119466, Note_on_c, 0, 73, 54
1, 119474, Note_on_c, 0, 74, 0
1, 119549, Note_on_c, 0, 74, 47
1, 119558, Note_on_c, 0, 73, 0
1, 119636, Note_on_c, 0, 73, 52
1, 119636, Note_on_c, 0, 54, 44
1, 119644, Note_on_c, 0, 74, 0
1, 119719, Note_on_c, 0, 55, 46
1, 119727, Note_on_c, 0, 54, 0
1, 119802, Note_on_c, 0, 73, 0
1, 119802, Note_on_c, 0, 54, 47
1, 119811, Note_on_c, 0, 55, 0
1, 119886, Note_on_c, 0, 52, 49
1, 119894, Note_on_c, 0, 54, 0
1, 119969, Note_on_c, 0, 50, 51
1, 119977, Note_on_c, 0, 52, 0
1, 120052, Note_on_c, 0, 49, 52
1, 120060, Note_on_c, 0, 50, 0
1, 120135, Note_on_c, 0, 74, 56
1, 120135, Note_on_c, 0, 47, 58
1, 120144, Note_on_c, 0, 49, 0
1, 120160, Control_c, 0, 64, 127
1, 120219, Note_on_c, 0, 74, 0
1, 120219, Note_on_c, 0, 83, 48
1, 120302, Note_on_c, 0, 83, 0
1, 120302, Note_on_c, 0, 74, 48
1, 120302, Note_on_c, 0, 47, 0
1, 120305, Note_on_c, 0, 66, 52
1, 120309, Control_c, 0, 64, 0
1, 120383, Note_on_c, 0, 74, 0
1, 120383, Note_on_c, 0, 83, 48
1, 120383, Note_on_c, 0, 66, 0
1, 120464, Note_on_c, 0, 83, 0
1, 120464, Note_on_c, 0, 74, 56
1, 120464, Note_on_c, 0, 66, 48
1, 120544, Note_on_c, 0, 74, 0
1, 120544, Note_on_c, 0, 83, 47
1, 120544, Note_on_c, 0, 66, 0
1, 120627, Note_on_c, 0, 83, 0
1, 120627, Note_on_c, 0, 74, 47
1, 120627, Note_on_c, 0, 67, 44
1, 120630, Control_c, 0, 64, 127
1, 120668, Note_on_c, 0, 67, 0
1, 120668, Note_on_c, 0, 69, 44
1, 120708, Note_on_c, 0, 74, 0
1, 120708, Note_on_c, 0, 83, 46
1, 120708, Note_on_c, 0, 69, 0
1, 120711, Note_on_c, 0, 67, 53
1, 120781, Control_c, 0, 64, 0
1, 120789, Note_on_c, 0, 83, 0
1, 120789, Note_on_c, 0, 74, 56
1, 120789, Note_on_c, 0, 67, 0
1, 120792, Note_on_c, 0, 66, 49
1, 120870, Note_on_c, 0, 74, 0
1, 120870, Note_on_c, 0, 83, 47
1, 120870, Note_on_c, 0, 66, 0
1, 120950, Note_on_c, 0, 83, 0
1, 120950, Note_on_c, 0, 74, 47
1, 120950, Note_on_c, 0, 66, 46
1, 121031, Note_on_c, 0, 74, 0
1, 121031, Note_on_c, 0, 83, 47
1, 121031, Note_on_c, 0, 66, 0
1, 121115, Note_on_c, 0, 83, 0
1, 121115, Note_on_c, 0, 73, 56
1, 121115, Note_on_c, 0, 67, 48
1, 121118, Control_c, 0, 64, 127
1, 121156, Note_on_c, 0, 67, 0
1, 121156, Note_on_c, 0, 69, 48
1, 121198, Note_on_c, 0, 73, 0
1, 121198, Note_on_c, 0, 83, 48
1, 121198, Note_on_c, 0, 69, 0
1, 121201, Note_on_c, 0, 67, 52
1, 121281, Note_on_c, 0, 83, 0
1, 121281, Note_on_c, 0, 73, 48
1, 121281, Note_on_c, 0, 67, 0
1, 121284, Note_on_c, 0, 66, 52
1, 121295, Control_c, 0, 64, 0
1, 121362, Note_on_c, 0, 73, 0
1, 121362, Note_on_c, 0, 83, 48
1, 121362, Note_on_c, 0, 66, 0
1, 121443, Note_on_c, 0, 83, 0
1, 121443, Note_on_c, 0, 73, 56
1, 121443, Note_on_c, 0, 66, 48
1, 121523, Note_on_c, 0, 73, 0
1, 121523, Note_on_c, 0, 83, 47
1, 121523, Note_on_c, 0, 66, 0
1, 121606, Note_on_c, 0, 83, 0
1, 121606, Note_on_c, 0, 73, 47
1, 121606, Note_on_c, 0, 66, 52
1, 121637, Control_c, 0, 64, 127
1, 121687, Note_on_c, 0, 73, 0
1, 121687, Note_on_c, 0, 81, 46
1, 121768, Note_on_c, 0, 81, 0
1, 121768, Note_on_c, 0, 73, 56
1, 121848, Note_on_c, 0, 73, 0
1, 121848, Note_on_c, 0, 81, 47
1, 121929, Note_on_c, 0, 81, 0
1, 121929, Note_on_c, 0, 73, 47
1, 121929, Note_on_c, 0, 66, 0
1, 121932, Note_on_c, 0, 67, 46
1, 121948, Control_c, 0, 64, 0
1, 122009, Note_on_c, 0, 73, 0
1, 122009, Note_on_c, 0, 81, 47
1, 122009, Note_on_c, 0, 67, 0
1, 122012, Note_on_c, 0, 69, 49
1, 122093, Note_on_c, 0, 81, 0
1, 122093, Note_on_c, 0, 75, 56
1, 122093, Note_on_c, 0, 69, 0
1, 122096, Note_on_c, 0, 71, 52
1, 122096, Control_c, 0, 64, 127
1, 122176, Note_on_c, 0, 75, 0
1, 122176, Note_on_c, 0, 81, 48
1, 122245, Control_c, 0, 64, 0
1, 122259, Note_on_c, 0, 81, 0
1, 122259, Note_on_c, 0, 76, 48
1, 122259, Note_on_c, 0, 71, 0
1, 122262, Note_on_c, 0, 64, 48
1, 122340, Note_on_c, 0, 76, 0
1, 122340, Note_on_c, 0, 79, 48
1, 122340, Note_on_c, 0, 64, 0
1, 122421, Note_on_c, 0, 79, 0
1, 122421, Note_on_c, 0, 76, 56
1, 122421, Note_on_c, 0, 64, 48
1, 122502, Note_on_c, 0, 76, 0
1, 122502, Note_on_c, 0, 79, 47
1, 122502, Note_on_c, 0, 64, 0
1, 122575, Control_c, 0, 64, 127
1, 122585, Note_on_c, 0, 79, 0
1, 122585, Note_on_c, 0, 71, 47
1, 122585, Note_on_c, 0, 66, 48
1, 122625, Note_on_c, 0, 66, 0
1, 122625, Note_on_c, 0, 67, 48
1, 122666, Note_on_c, 0, 71, 0
1, 122666, Note_on_c, 0, 79, 46
1, 122666, Note_on_c, 0, 67, 0
1, 122669, Note_on_c, 0, 66, 52
1, 122682, Control_c, 0, 64, 0
1, 122747, Note_on_c, 0, 79, 0
1, 122747, Note_on_c, 0, 71, 56
1, 122747, Note_on_c, 0, 66, 0
1, 122750, Note_on_c, 0, 64, 52
1, 122827, Note_on_c, 0, 71, 0
1, 122827, Note_on_c, 0, 79, 47
1, 122827, Note_on_c, 0, 64, 0
1, 122908, Note_on_c, 0, 79, 0
1, 122908, Note_on_c, 0, 73, 47
1, 122908, Note_on_c, 0, 64, 48
1, 122989, Note_on_c, 0, 73, 0
1, 122989, Note_on_c, 0, 79, 47
1, 122989, Note_on_c, 0, 64, 0
1, 123072, Note_on_c, 0, 79, 0
1, 123072, Note_on_c, 0, 69, 56
1, 123072, Note_on_c, 0, 64, 48
1, 123075, Control_c, 0, 64, 127
1, 123114, Note_on_c, 0, 64, 0
1, 123114, Note_on_c, 0, 66, 48
1, 123155, Note_on_c, 0, 69, 0
1, 123155, Note_on_c, 0, 79, 48
1, 123155, Note_on_c, 0, 66, 0
1, 123158, Note_on_c, 0, 64, 56
1, 123167, Control_c, 0, 64, 0
1, 123239, Note_on_c, 0, 79, 0
1, 123239, Note_on_c, 0, 69, 48
1, 123239, Note_on_c, 0, 64, 0
1, 123242, Note_on_c, 0, 62, 48
1, 123320, Note_on_c, 0, 69, 0
1, 123320, Note_on_c, 0, 79, 48
1, 123320, Note_on_c, 0, 62, 0
1, 123400, Note_on_c, 0, 79, 0
1, 123400, Note_on_c, 0, 69, 56
1, 123400, Note_on_c, 0, 62, 52
1, 123481, Note_on_c, 0, 69, 0
1, 123481, Note_on_c, 0, 79, 47
1, 123481, Note_on_c, 0, 62, 0
1, 123564, Note_on_c, 0, 79, 0
1, 123564, Note_on_c, 0, 69, 47
1, 123564, Note_on_c, 0, 62, 52
1, 123592, Control_c, 0, 64, 127
1, 123645, Note_on_c, 0, 69, 0
1, 123645, Note_on_c, 0, 78, 46
1, 123726, Note_on_c, 0, 78, 0
1, 123726, Note_on_c, 0, 69, 56
1, 123806, Note_on_c, 0, 69, 0
1, 123806, Note_on_c, 0, 78, 47
1, 123887, Note_on_c, 0, 78, 0
1, 123887, Note_on_c, 0, 69, 47
1, 123887, Note_on_c, 0, 62, 0
1, 123890, Note_on_c, 0, 64, 47
1, 123903, Control_c, 0, 64, 0
1, 123968, Note_on_c, 0, 69, 0
1, 123968, Note_on_c, 0, 78, 47
1, 123968, Note_on_c, 0, 64, 0
1, 123971, Note_on_c, 0, 66, 50
1, 124051, Note_on_c, 0, 78, 0
1, 124051, Note_on_c, 0, 71, 56
1, 124051, Note_on_c, 0, 66, 0
1, 124054, Note_on_c, 0, 67, 53
1, 124054, Control_c, 0, 64, 127
1, 124135, Note_on_c, 0, 71, 0
1, 124135, Note_on_c, 0, 78, 48
1, 124210, Control_c, 0, 64, 0
1, 124218, Note_on_c, 0, 78, 0
1, 124218, Note_on_c, 0, 71, 48
1, 124218, Note_on_c, 0, 67, 0
1, 124221, Note_on_c, 0, 55, 50
1, 124299, Note_on_c, 0, 71, 0
1, 124299, Note_on_c, 0, 76, 48
1, 124299, Note_on_c, 0, 55, 0
1, 124380, Note_on_c, 0, 76, 0
1, 124380, Note_on_c, 0, 71, 56
1, 124380, Note_on_c, 0, 55, 50
1, 124460, Note_on_c, 0, 71, 0
1, 124460, Note_on_c, 0, 75, 47
1, 124460, Note_on_c, 0, 55, 0
1, 124543, Note_on_c, 0, 75, 0
1, 124543, Note_on_c, 0, 76, 47
1, 124543, Note_on_c, 0, 55, 49
1, 124546, Control_c, 0, 64, 127
1, 124624, Note_on_c, 0, 76, 0
1, 124624, Note_on_c, 0, 83, 46
1, 124705, Note_on_c, 0, 83, 0
1, 124705, Note_on_c, 0, 76, 56
1, 124786, Note_on_c, 0, 76, 0
1, 124786, Note_on_c, 0, 81, 47
1, 124855, Control_c, 0, 64, 0
1, 124866, Note_on_c, 0, 81, 0
1, 124866, Note_on_c, 0, 76, 47
1, 124866, Note_on_c, 0, 55, 0
1, 124869, Note_on_c, 0, 57, 47
1, 124947, Note_on_c, 0, 76, 0
1, 124947, Note_on_c, 0, 80, 47
1, 124947, Note_on_c, 0, 57, 0
1, 124950, Note_on_c, 0, 59, 50
1, 125031, Note_on_c, 0, 80, 0
1, 125031, Note_on_c, 0, 76, 56
1, 125031, Note_on_c, 0, 59, 0
1, 125034, Note_on_c, 0, 61, 53
1, 125034, Control_c, 0, 64, 127
1, 125114, Note_on_c, 0, 76, 0
1, 125114, Note_on_c, 0, 81, 48
1, 125197, Note_on_c, 0, 81, 0
1, 125197, Note_on_c, 0, 74, 48
1, 125197, Note_on_c, 0, 61, 0
1, 125200, Note_on_c, 0, 54, 47
1, 125204, Control_c, 0, 64, 0
1, 125278, Note_on_c, 0, 74, 0
1, 125278, Note_on_c, 0, 81, 48
1, 125278, Note_on_c, 0, 54, 0
1, 125359, Note_on_c, 0, 81, 0
1, 125359, Note_on_c, 0, 73, 56
1, 125359, Note_on_c, 0, 54, 47
1, 125439, Note_on_c, 0, 73, 0
1, 125439, Note_on_c, 0, 81, 47
1, 125439, Note_on_c, 0, 54, 0
1, 125522, Note_on_c, 0, 81, 0
1, 125522, Note_on_c, 0, 79, 47
1, 125522, Note_on_c, 0, 54, 49
1, 125549, Control_c, 0, 64, 127
1, 125603, Note_on_c, 0, 79, 0
1, 125603, Note_on_c, 0, 82, 46
1, 125684, Note_on_c, 0, 82, 0
1, 125684, Note_on_c, 0, 78, 56
1, 125765, Note_on_c, 0, 78, 0
1, 125765, Note_on_c, 0, 83, 47
1, 125807, Control_c, 0, 64, 0
1, 125845, Note_on_c, 0, 83, 0
1, 125845, Note_on_c, 0, 76, 47
1, 125845, Note_on_c, 0, 54, 0
1, 125848, Note_on_c, 0, 56, 47
1, 125926, Note_on_c, 0, 76, 0
1, 125926, Note_on_c, 0, 85, 47
1, 125926, Note_on_c, 0, 56, 0
1, 125929, Note_on_c, 0, 58, 50
1, 126009, Note_on_c, 0, 85, 0
1, 126009, Note_on_c, 0, 74, 56
1, 126009, Note_on_c, 0, 58, 0
1, 126012, Note_on_c, 0, 59, 58
1, 126012, Control_c, 0, 64, 127
1, 126089, Note_on_c, 0, 74, 0
1, 126089, Note_on_c, 0, 85, 48
1, 126168, Note_on_c, 0, 85, 0
1, 126168, Note_on_c, 0, 74, 48
1, 126168, Note_on_c, 0, 59, 0
1, 126171, Note_on_c, 0, 54, 49
1, 126249, Note_on_c, 0, 74, 0
1, 126249, Note_on_c, 0, 85, 48
1, 126328, Note_on_c, 0, 85, 0
1, 126328, Note_on_c, 0, 74, 56
1, 126328, Note_on_c, 0, 54, 0
1, 126331, Note_on_c, 0, 55, 49
1, 126356, Control_c, 0, 64, 0
1, 126407, Note_on_c, 0, 74, 0
1, 126407, Note_on_c, 0, 83, 47
1, 126407, Note_on_c, 0, 55, 0
1, 126488, Note_on_c, 0, 83, 0
1, 126488, Note_on_c, 0, 73, 47
1, 126488, Note_on_c, 0, 52, 53
1, 126568, Note_on_c, 0, 73, 0
1, 126568, Note_on_c, 0, 83, 46
1, 126568, Note_on_c, 0, 52, 0
1, 126647, Note_on_c, 0, 83, 0
1, 126647, Note_on_c, 0, 73, 56
1, 126647, Note_on_c, 0, 49, 49
1, 126726, Note_on_c, 0, 73, 0
1, 126726, Note_on_c, 0, 83, 47
1, 126726, Note_on_c, 0, 49, 0
1, 126805, Note_on_c, 0, 83, 0
1, 126805, Note_on_c, 0, 73, 47
1, 126805, Note_on_c, 0, 66, 49
1, 126884, Note_on_c, 0, 73, 0
1, 126884, Note_on_c, 0, 81, 47
1, 126884, Note_on_c, 0, 66, 0
1, 126965, Note_on_c, 0, 81, 0
1, 126965, Note_on_c, 0, 71, 56
1, 126965, Note_on_c, 0, 63, 53
1, 126968, Control_c, 0, 64, 127
1, 127049, Note_on_c, 0, 71, 0
1, 127049, Note_on_c, 0, 81, 48
1, 127132, Note_on_c, 0, 81, 0
1, 127132, Note_on_c, 0, 71, 48
1, 127132, Note_on_c, 0, 63, 0
1, 127135, Note_on_c, 0, 59, 49
1, 127212, Note_on_c, 0, 71, 0
1, 127212, Note_on_c, 0, 81, 48
1, 127292, Note_on_c, 0, 81, 0
1, 127292, Note_on_c, 0, 71, 56
1, 127292, Note_on_c, 0, 59, 0
1, 127295, Note_on_c, 0, 64, 49
1, 127302, Control_c, 0, 64, 0
1, 127373, Note_on_c, 0, 71, 0
1, 127373, Note_on_c, 0, 79, 47
1, 127373, Note_on_c, 0, 64, 0
1, 127456, Note_on_c, 0, 79, 0
1, 127456, Note_on_c, 0, 69, 47
1, 127456, Note_on_c, 0, 61, 53
1, 127535, Note_on_c, 0, 69, 0
1, 127535, Note_on_c, 0, 79, 46
1, 127535, Note_on_c, 0, 61, 0
1, 127614, Note_on_c, 0, 79, 0
1, 127614, Note_on_c, 0, 69, 56
1, 127614, Note_on_c, 0, 57, 49
1, 127693, Note_on_c, 0, 69, 0
1, 127693, Note_on_c, 0, 79, 47
1, 127693, Note_on_c, 0, 57, 0
1, 127773, Note_on_c, 0, 79, 0
1, 127773, Note_on_c, 0, 69, 47
1, 127773, Note_on_c, 0, 50, 49
1, 127852, Note_on_c, 0, 69, 0
1, 127852, Note_on_c, 0, 78, 47
1, 127852, Note_on_c, 0, 50, 0
1, 127934, Note_on_c, 0, 78, 0
1, 127934, Note_on_c, 0, 67, 56
1, 127934, Note_on_c, 0, 47, 54
1, 127937, Control_c, 0, 64, 127
1, 128016, Note_on_c, 0, 67, 0
1, 128016, Note_on_c, 0, 78, 48
1, 128098, Note_on_c, 0, 78, 0
1, 128098, Note_on_c, 0, 67, 48
1, 128098, Note_on_c, 0, 47, 0
1, 128101, Note_on_c, 0, 43, 50
1, 128131, Control_c, 0, 64, 0
1, 128177, Note_on_c, 0, 67, 0
1, 128177, Note_on_c, 0, 78, 48
1, 128177, Note_on_c, 0, 43, 0
1, 128258, Note_on_c, 0, 78, 0
1, 128258, Note_on_c, 0, 67, 56
1, 128258, Note_on_c, 0, 49, 50
1, 128337, Note_on_c, 0, 67, 0
1, 128337, Note_on_c, 0, 78, 47
1, 128337, Note_on_c, 0, 49, 0
1, 128418, Note_on_c, 0, 78, 0
1, 128418, Note_on_c, 0, 66, 47
1, 128418, Note_on_c, 0, 46, 53
1, 128497, Note_on_c, 0, 66, 0
1, 128497, Note_on_c, 0, 76, 46
1, 128497, Note_on_c, 0, 46, 0
1, 128576, Note_on_c, 0, 76, 0
1, 128576, Note_on_c, 0, 66, 56
1, 128576, Note_on_c, 0, 42, 49
1, 128655, Note_on_c, 0, 66, 0
1, 128655, Note_on_c, 0, 76, 47
1, 128655, Note_on_c, 0, 42, 0
1, 128734, Note_on_c, 0, 76, 0
1, 128734, Note_on_c, 0, 66, 47
1, 128734, Note_on_c, 0, 59, 49
1, 128814, Note_on_c, 0, 66, 0
1, 128814, Note_on_c, 0, 74, 47
1, 128814, Note_on_c, 0, 59, 0
1, 128895, Note_on_c, 0, 74, 0
1, 128895, Note_on_c, 0, 64, 56
1, 128895, Note_on_c, 0, 56, 53
1, 128918, Control_c, 0, 64, 127
1, 128977, Note_on_c, 0, 64, 0
1, 128977, Note_on_c, 0, 74, 48
1, 129059, Note_on_c, 0, 74, 0
1, 129059, Note_on_c, 0, 64, 48
1, 129059, Note_on_c, 0, 56, 0
1, 129062, Note_on_c, 0, 52, 49
1, 129074, Control_c, 0, 64, 0
1, 129138, Note_on_c, 0, 64, 0
1, 129138, Note_on_c, 0, 74, 48
1, 129138, Note_on_c, 0, 52, 0
1, 129217, Note_on_c, 0, 74, 0
1, 129217, Note_on_c, 0, 64, 56
1, 129217, Note_on_c, 0, 57, 49
1, 129297, Note_on_c, 0, 64, 0
1, 129297, Note_on_c, 0, 72, 47
1, 129297, Note_on_c, 0, 57, 0
1, 129378, Note_on_c, 0, 72, 0
1, 129378, Note_on_c, 0, 62, 47
1, 129378, Note_on_c, 0, 54, 53
1, 129396, Control_c, 0, 64, 127
1, 129457, Note_on_c, 0, 62, 0
1, 129457, Note_on_c, 0, 72, 46
1, 129535, Note_on_c, 0, 72, 0
1, 129535, Note_on_c, 0, 62, 56
1, 129535, Note_on_c, 0, 54, 0
1, 129538, Note_on_c, 0, 50, 50
1, 129547, Control_c, 0, 64, 0
1, 129614, Note_on_c, 0, 62, 0
1, 129614, Note_on_c, 0, 72, 47
1, 129614, Note_on_c, 0, 50, 0
1, 129693, Note_on_c, 0, 72, 0
1, 129693, Note_on_c, 0, 62, 47
1, 129693, Note_on_c, 0, 55, 50
1, 129772, Note_on_c, 0, 62, 0
1, 129772, Note_on_c, 0, 71, 47
1, 129772, Note_on_c, 0, 55, 0
1, 129855, Note_on_c, 0, 71, 0
1, 129855, Note_on_c, 0, 64, 53
1, 129855, Note_on_c, 0, 36, 59
1, 129858, Note_on_c, 0, 48, 59
1, 129939, Note_on_c, 0, 64, 0
1, 129939, Note_on_c, 0, 71, 44
1, 130022, Note_on_c, 0, 71, 0
1, 130022, Note_on_c, 0, 69, 45
1, 130104, Note_on_c, 0, 69, 0
1, 130104, Note_on_c, 0, 68, 45
1, 130186, Note_on_c, 0, 68, 0
1, 130186, Note_on_c, 0, 69, 46
1, 130267, Note_on_c, 0, 69, 0
1, 130267, Note_on_c, 0, 71, 47
1, 130349, Note_on_c, 0, 71, 0
1, 130349, Note_on_c, 0, 72, 49
1, 130430, Note_on_c, 0, 72, 0
1, 130430, Note_on_c, 0, 74, 51
1, 130512, Note_on_c, 0, 74, 0
1, 130512, Note_on_c, 0, 76, 51
1, 130594, Note_on_c, 0, 76, 0
1, 130594, Note_on_c, 0, 72, 50
1, 130676, Note_on_c, 0, 72, 0
1, 130676, Note_on_c, 0, 71, 49
1, 130759, Note_on_c, 0, 71, 0
1, 130759, Note_on_c, 0, 69, 48
1, 130842, Note_on_c, 0, 69, 0
1, 130842, Note_on_c, 0, 59, 55
1, 130842, Note_on_c, 0, 67, 55
1, 130845, Note_on_c, 0, 48, 0
1, 130845, Note_on_c, 0, 36, 0
1, 131015, Note_on_c, 0, 50, 47
1, 131103, Note_on_c, 0, 50, 0
1, 131192, Note_on_c, 0, 50, 47
1, 131283, Note_on_c, 0, 50, 0
1, 131374, Note_on_c, 0, 67, 0
1, 131374, Note_on_c, 0, 59, 0
1, 131374, Note_on_c, 0, 66, 47
1, 131377, Note_on_c, 0, 57, 47
1, 131377, Note_on_c, 0, 50, 53
1, 131461, Note_on_c, 0, 50, 0
1, 131461, Note_on_c, 0, 52, 47
1, 131548, Note_on_c, 0, 57, 0
1, 131548, Note_on_c, 0, 66, 0
1, 131548, Note_on_c, 0, 52, 0
1, 131551, Note_on_c, 0, 50, 53
1, 131635, Note_on_c, 0, 50, 0
1, 131635, Note_on_c, 0, 48, 51
1, 131721, Note_on_c, 0, 48, 0
1, 131721, Note_on_c, 0, 47, 50
1, 131808, Note_on_c, 0, 47, 0
1, 131808, Note_on_c, 0, 45, 48
1, 131895, Note_on_c, 0, 45, 0
1, 131895, Note_on_c, 0, 43, 47
1, 132080, Note_on_c, 0, 74, 48
1, 132080, Note_on_c, 0, 43, 0
1, 132171, Note_on_c, 0, 74, 0
1, 132262, Note_on_c, 0, 74, 49
1, 132351, Note_on_c, 0, 74, 0
1, 132441, Note_on_c, 0, 74, 51
1, 132531, Note_on_c, 0, 74, 0
1, 132621, Note_on_c, 0, 74, 52
1, 132710, Note_on_c, 0, 74, 0
1, 132800, Note_on_c, 0, 74, 54
1, 132898, Note_on_c, 0, 74, 0
1, 132997, Note_on_c, 0, 74, 56
1, 133178, Note_on_c, 0, 60, 25
1, 133178, Note_on_c, 0, 57, 25
1, 133178, Note_on_c, 0, 62, 30
1, 133270, Note_on_c, 0, 62, 0
1, 133270, Note_on_c, 0, 57, 0
1, 133270, Note_on_c, 0, 60, 0
1, 133362, Note_on_c, 0, 57, 25
1, 133362, Note_on_c, 0, 62, 30
1, 133362, Note_on_c, 0, 60, 25
1, 133454, Note_on_c, 0, 60, 0
1, 133454, Note_on_c, 0, 62, 0
1, 133454, Note_on_c, 0, 57, 0
1, 133549, Note_on_c, 0, 74, 0
1, 133549, Note_on_c, 0, 66, 52
1, 133549, Note_on_c, 0, 57, 28
1, 133552, Note_on_c, 0, 60, 28
1, 133552, Note_on_c, 0, 62, 34
1, 133640, Note_on_c, 0, 62, 0
1, 133640, Note_on_c, 0, 60, 0
1, 133640, Note_on_c, 0, 57, 0
1, 133731, Note_on_c, 0, 66, 0
1, 133731, Note_on_c, 0, 57, 25
1, 133731, Note_on_c, 0, 60, 25
1, 133734, Note_on_c, 0, 62, 30
1, 133821, Note_on_c, 0, 62, 0
1, 133821, Note_on_c, 0, 60, 0
1, 133821, Note_on_c, 0, 57, 0
1, 133914, Note_on_c, 0, 62, 29
1, 133914, Note_on_c, 0, 57, 25
1, 133914, Note_on_c, 0, 60, 25
1, 134005, Note_on_c, 0, 60, 0
1, 134005, Note_on_c, 0, 57, 0
1, 134005, Note_on_c, 0, 62, 0
1, 134095, Note_on_c, 0, 59, 34
1, 134095, Note_on_c, 0, 62, 41
1, 134274, Note_on_c, 0, 67, 50
1, 134274, Note_on_c, 0, 62, 0
1, 134274, Note_on_c, 0, 59, 0
1, 134363, Note_on_c, 0, 67, 0
1, 134452, Note_on_c, 0, 71, 51
1, 134539, Note_on_c, 0, 71, 0
1, 134626, Note_on_c, 0, 74, 53
1, 134713, Note_on_c, 0, 74, 0
1, 134800, Note_on_c, 0, 79, 54
1, 134889, Note_on_c, 0, 79, 0
1, 134979, Note_on_c, 0, 83, 56
1, 135071, Note_on_c, 0, 83, 0
1, 135163, Note_on_c, 0, 86, 57
1, 135341, Note_on_c, 0, 62, 33
1, 135341, Note_on_c, 0, 54, 28
1, 135341, Note_on_c, 0, 57, 28
1, 135433, Note_on_c, 0, 57, 0
1, 135433, Note_on_c, 0, 54, 0
1, 135433, Note_on_c, 0, 62, 0
1, 135525, Note_on_c, 0, 54, 27
1, 135525, Note_on_c, 0, 57, 27
1, 135525, Note_on_c, 0, 62, 32
1, 135617, Note_on_c, 0, 62, 0
1, 135617, Note_on_c, 0, 57, 0
1, 135617, Note_on_c, 0, 54, 0
1, 135709, Note_on_c, 0, 86, 0
1, 135709, Note_on_c, 0, 84, 55
1, 135709, Note_on_c, 0, 57, 30
1, 135712, Note_on_c, 0, 62, 36
1, 135712, Note_on_c, 0, 54, 30
1, 135800, Note_on_c, 0, 54, 0
1, 135800, Note_on_c, 0, 62, 0
1, 135800, Note_on_c, 0, 57, 0
1, 135891, Note_on_c, 0, 84, 0
1, 135891, Note_on_c, 0, 57, 26
1, 135891, Note_on_c, 0, 62, 31
1, 135894, Note_on_c, 0, 54, 26
1, 135981, Note_on_c, 0, 54, 0
1, 135981, Note_on_c, 0, 62, 0
1, 135981, Note_on_c, 0, 57, 0
1, 136072, Note_on_c, 0, 62, 31
1, 136072, Note_on_c, 0, 57, 25
1, 136072, Note_on_c, 0, 54, 25
1, 136162, Note_on_c, 0, 54, 0
1, 136162, Note_on_c, 0, 57, 0
1, 136162, Note_on_c, 0, 62, 0
1, 136253, Note_on_c, 0, 62, 42
1, 136253, Note_on_c, 0, 55, 35
1, 136343, Note_on_c, 0, 55, 0
1, 136343, Note_on_c, 0, 62, 0
1, 136434, Note_on_c, 0, 83, 52
1, 136521, Note_on_c, 0, 83, 0
1, 136521, Note_on_c, 0, 84, 54
1, 136608, Note_on_c, 0, 84, 0
1, 136608, Note_on_c, 0, 86, 55
1, 136695, Note_on_c, 0, 86, 0
1, 136695, Note_on_c, 0, 83, 51
1, 136788, Note_on_c, 0, 83, 0
1, 136788, Note_on_c, 0, 79, 55
1, 136788, Note_on_c, 0, 59, 35
1, 136791, Note_on_c, 0, 62, 42
1, 136875, Note_on_c, 0, 79, 0
1, 136875, Note_on_c, 0, 62, 0
1, 136875, Note_on_c, 0, 59, 0
1, 136963, Note_on_c, 0, 79, 53
1, 137050, Note_on_c, 0, 79, 0
1, 137050, Note_on_c, 0, 81, 55
1, 137137, Note_on_c, 0, 81, 0
1, 137137, Note_on_c, 0, 83, 58
1, 137224, Note_on_c, 0, 83, 0
1, 137224, Note_on_c, 0, 79, 52
1, 137317, Note_on_c, 0, 79, 0
1, 137317, Note_on_c, 0, 76, 55
1, 137317, Note_on_c, 0, 67, 42
1, 137320, Note_on_c, 0, 60, 35
1, 137403, Note_on_c, 0, 76, 0
1, 137403, Note_on_c, 0, 60, 0
1, 137403, Note_on_c, 0, 67, 0
1, 137490, Note_on_c, 0, 76, 51
1, 137577, Note_on_c, 0, 76, 0
1, 137577, Note_on_c, 0, 78, 54
1, 137664, Note_on_c, 0, 78, 0
1, 137664, Note_on_c, 0, 79, 56
1, 137750, Note_on_c, 0, 79, 0
1, 137750, Note_on_c, 0, 76, 51
1, 137837, Note_on_c, 0, 76, 0
1, 137837, Note_on_c, 0, 73, 55
1, 137837, Note_on_c, 0, 67, 42
1, 137840, Note_on_c, 0, 64, 35
1, 137923, Note_on_c, 0, 73, 0
1, 137923, Note_on_c, 0, 64, 0
1, 137923, Note_on_c, 0, 67, 0
1, 138009, Note_on_c, 0, 73, 51
1, 138095, Note_on_c, 0, 73, 0
1, 138095, Note_on_c, 0, 74, 53
1, 138181, Note_on_c, 0, 74, 0
1, 138181, Note_on_c, 0, 76, 56
1, 138267, Note_on_c, 0, 76, 0
1, 138267, Note_on_c, 0, 73, 52
1, 138359, Note_on_c, 0, 73, 0
1, 138359, Note_on_c, 0, 74, 54
1, 138359, Note_on_c, 0, 62, 38
1, 138532, Note_on_c, 0, 74, 0
1, 138532, Note_on_c, 0, 76, 56
1, 138532, Note_on_c, 0, 62, 0
1, 138535, Note_on_c, 0, 61, 40
1, 138709, Note_on_c, 0, 76, 0
1, 138709, Note_on_c, 0, 78, 58
1, 138709, Note_on_c, 0, 61, 0
1, 138712, Note_on_c, 0, 60, 42
1, 138890, Note_on_c, 0, 78, 0
1, 138890, Note_on_c, 0, 79, 61
1, 138890, Note_on_c, 0, 60, 0
1, 138893, Note_on_c, 0, 59, 44
1, 139071, Note_on_c, 0, 79, 0
1, 139071, Note_on_c, 0, 76, 58
1, 139071, Note_on_c, 0, 59, 0
1, 139074, Note_on_c, 0, 60, 43
1, 139162, Note_on_c, 0, 76, 0
1, 139252, Note_on_c, 0, 72, 54
1, 139252, Note_on_c, 0, 60, 0
1, 139252, Note_on_c, 0, 64, 39
1, 139347, Note_on_c, 0, 72, 0
1, 139443, Note_on_c, 0, 67, 55
1, 139443, Note_on_c, 0, 71, 55
1, 139443, Note_on_c, 0, 64, 0
1, 139628, Note_on_c, 0, 62, 41
1, 139721, Note_on_c, 0, 62, 0
1, 139814, Note_on_c, 0, 62, 41
1, 139907, Note_on_c, 0, 62, 0
1, 140000, Note_on_c, 0, 71, 0
1, 140000, Note_on_c, 0, 67, 0
1, 140000, Note_on_c, 0, 66, 50
1, 140003, Note_on_c, 0, 69, 50
1, 140003, Note_on_c, 0, 62, 38
1, 140092, Note_on_c, 0, 62, 0
1, 140092, Note_on_c, 0, 64, 40
1, 140185, Note_on_c, 0, 69, 0
1, 140185, Note_on_c, 0, 66, 0
1, 140185, Note_on_c, 0, 64, 0
1, 140188, Note_on_c, 0, 62, 42
1, 140278, Note_on_c, 0, 62, 0
1, 140278, Note_on_c, 0, 60, 44
1, 140371, Note_on_c, 0, 60, 0
1, 140371, Note_on_c, 0, 59, 42
1, 140464, Note_on_c, 0, 59, 0
1, 140464, Note_on_c, 0, 57, 40
1, 140556, Note_on_c, 0, 57, 0
1, 140556, Note_on_c, 0, 55, 47
1, 140735, Note_on_c, 0, 74, 48
1, 140735, Note_on_c, 0, 55, 0
1, 140828, Note_on_c, 0, 74, 0
1, 140920, Note_on_c, 0, 74, 49
1, 141013, Note_on_c, 0, 74, 0
1, 141106, Note_on_c, 0, 76, 51
1, 141152, Note_on_c, 0, 76, 0
1, 141152, Note_on_c, 0, 78, 51
1, 141199, Note_on_c, 0, 78, 0
1, 141199, Note_on_c, 0, 76, 51
1, 141292, Note_on_c, 0, 76, 0
1, 141292, Note_on_c, 0, 74, 52
1, 141385, Note_on_c, 0, 74, 0
1, 141477, Note_on_c, 0, 74, 54
1, 141568, Note_on_c, 0, 74, 0
1, 141659, Note_on_c, 0, 74, 56
1, 141841, Note_on_c, 0, 60, 25
1, 141841, Note_on_c, 0, 57, 25
1, 141841, Note_on_c, 0, 62, 30
1, 141934, Note_on_c, 0, 62, 0
1, 141934, Note_on_c, 0, 57, 0
1, 141934, Note_on_c, 0, 60, 0
1, 142026, Note_on_c, 0, 62, 30
1, 142026, Note_on_c, 0, 60, 25
1, 142026, Note_on_c, 0, 57, 25
1, 142118, Note_on_c, 0, 57, 0
1, 142118, Note_on_c, 0, 60, 0
1, 142118, Note_on_c, 0, 62, 0
1, 142211, Note_on_c, 0, 74, 0
1, 142211, Note_on_c, 0, 66, 52
1, 142211, Note_on_c, 0, 60, 28
1, 142214, Note_on_c, 0, 57, 28
1, 142214, Note_on_c, 0, 62, 34
1, 142303, Note_on_c, 0, 62, 0
1, 142303, Note_on_c, 0, 57, 0
1, 142303, Note_on_c, 0, 60, 0
1, 142396, Note_on_c, 0, 66, 0
1, 142396, Note_on_c, 0, 62, 30
1, 142396, Note_on_c, 0, 60, 25
1, 142399, Note_on_c, 0, 57, 25
1, 142488, Note_on_c, 0, 57, 0
1, 142488, Note_on_c, 0, 60, 0
1, 142488, Note_on_c, 0, 62, 0
1, 142581, Note_on_c, 0, 62, 29
1, 142581, Note_on_c, 0, 60, 25
1, 142581, Note_on_c, 0, 57, 25
1, 142672, Note_on_c, 0, 57, 0
1, 142672, Note_on_c, 0, 60, 0
1, 142672, Note_on_c, 0, 62, 0
1, 142763, Note_on_c, 0, 59, 34
1, 142763, Note_on_c, 0, 62, 41
1, 142763, Control_c, 0, 64, 127
1, 142851, Note_on_c, 0, 67, 50
1, 142939, Note_on_c, 0, 67, 0
1, 142939, Note_on_c, 0, 71, 52
1, 142939, Note_on_c, 0, 62, 0
1, 142942, Note_on_c, 0, 59, 0
1, 143027, Note_on_c, 0, 71, 0
1, 143027, Note_on_c, 0, 67, 52
1, 143115, Note_on_c, 0, 67, 0
1, 143115, Note_on_c, 0, 74, 53
1, 143200, Note_on_c, 0, 74, 0
1, 143200, Note_on_c, 0, 71, 54
1, 143285, Note_on_c, 0, 71, 0
1, 143285, Note_on_c, 0, 79, 55
1, 143370, Note_on_c, 0, 79, 0
1, 143370, Note_on_c, 0, 74, 56
1, 143455, Note_on_c, 0, 74, 0
1, 143455, Note_on_c, 0, 83, 57
1, 143542, Note_on_c, 0, 83, 0
1, 143542, Note_on_c, 0, 79, 58
1, 143629, Note_on_c, 0, 79, 0
1, 143629, Note_on_c, 0, 86, 59
1, 143719, Note_on_c, 0, 86, 0
1, 143719, Note_on_c, 0, 83, 60
1, 143809, Note_on_c, 0, 83, 0
1, 143809, Note_on_c, 0, 86, 66
1, 143809, Control_c, 0, 64, 0
1, 143996, Note_on_c, 0, 54, 28
1, 143996, Note_on_c, 0, 57, 28
1, 143996, Note_on_c, 0, 62, 33
1, 144089, Note_on_c, 0, 62, 0
1, 144089, Note_on_c, 0, 57, 0
1, 144089, Note_on_c, 0, 54, 0
1, 144182, Note_on_c, 0, 54, 27
1, 144182, Note_on_c, 0, 57, 27
1, 144182, Note_on_c, 0, 62, 32
1, 144275, Note_on_c, 0, 86, 0
1, 144275, Note_on_c, 0, 85, 57
1, 144275, Note_on_c, 0, 62, 0
1, 144278, Note_on_c, 0, 57, 0
1, 144278, Note_on_c, 0, 54, 0
1, 144369, Note_on_c, 0, 85, 0
1, 144369, Note_on_c, 0, 84, 64
1, 144369, Note_on_c, 0, 62, 36
1, 144372, Note_on_c, 0, 57, 30
1, 144372, Note_on_c, 0, 54, 30
1, 144461, Note_on_c, 0, 54, 0
1, 144461, Note_on_c, 0, 57, 0
1, 144461, Note_on_c, 0, 62, 0
1, 144554, Note_on_c, 0, 84, 0
1, 144554, Note_on_c, 0, 62, 31
1, 144554, Note_on_c, 0, 57, 26
1, 144557, Note_on_c, 0, 54, 26
1, 144647, Note_on_c, 0, 54, 0
1, 144647, Note_on_c, 0, 57, 0
1, 144647, Note_on_c, 0, 62, 0
1, 144740, Note_on_c, 0, 62, 31
1, 144740, Note_on_c, 0, 54, 25
1, 144740, Note_on_c, 0, 57, 25
1, 144833, Note_on_c, 0, 57, 0
1, 144833, Note_on_c, 0, 54, 0
1, 144833, Note_on_c, 0, 62, 0
1, 144925, Note_on_c, 0, 55, 35
1, 144925, Note_on_c, 0, 62, 42
1, 145018, Note_on_c, 0, 62, 0
1, 145018, Note_on_c, 0, 55, 0
1, 145111, Note_on_c, 0, 83, 52
1, 145197, Note_on_c, 0, 83, 0
1, 145197, Note_on_c, 0, 84, 54
1, 145283, Note_on_c, 0, 84, 0
1, 145283, Note_on_c, 0, 86, 55
1, 145369, Note_on_c, 0, 86, 0
1, 145369, Note_on_c, 0, 83, 51
1, 145460, Note_on_c, 0, 83, 0
1, 145460, Note_on_c, 0, 79, 55
1, 145460, Note_on_c, 0, 59, 35
1, 145463, Note_on_c, 0, 62, 42
1, 145547, Note_on_c, 0, 79, 0
1, 145547, Note_on_c, 0, 62, 0
1, 145547, Note_on_c, 0, 59, 0
1, 145633, Note_on_c, 0, 79, 53
1, 145720, Note_on_c, 0, 79, 0
1, 145720, Note_on_c, 0, 81, 55
1, 145807, Note_on_c, 0, 81, 0
1, 145807, Note_on_c, 0, 83, 58
1, 145894, Note_on_c, 0, 83, 0
1, 145894, Note_on_c, 0, 79, 52
1, 145985, Note_on_c, 0, 79, 0
1, 145985, Note_on_c, 0, 76, 55
1, 145985, Note_on_c, 0, 60, 35
1, 145988, Note_on_c, 0, 67, 42
1, 146072, Note_on_c, 0, 76, 0
1, 146072, Note_on_c, 0, 67, 0
1, 146072, Note_on_c, 0, 60, 0
1, 146159, Note_on_c, 0, 76, 51
1, 146246, Note_on_c, 0, 76, 0
1, 146246, Note_on_c, 0, 78, 54
1, 146333, Note_on_c, 0, 78, 0
1, 146333, Note_on_c, 0, 79, 56
1, 146420, Note_on_c, 0, 79, 0
1, 146420, Note_on_c, 0, 76, 51
1, 146511, Note_on_c, 0, 76, 0
1, 146511, Note_on_c, 0, 73, 55
1, 146511, Note_on_c, 0, 64, 35
1, 146514, Note_on_c, 0, 67, 42
1, 146597, Note_on_c, 0, 73, 0
1, 146597, Note_on_c, 0, 67, 0
1, 146597, Note_on_c, 0, 64, 0
1, 146682, Note_on_c, 0, 73, 51
1, 146768, Note_on_c, 0, 73, 0
1, 146768, Note_on_c, 0, 74, 53
1, 146854, Note_on_c, 0, 74, 0
1, 146854, Note_on_c, 0, 76, 56
1, 146940, Note_on_c, 0, 76, 0
1, 146940, Note_on_c, 0, 73, 52
1, 147029, Note_on_c, 0, 73, 0
1, 147029, Note_on_c, 0, 74, 54
1, 147029, Note_on_c, 0, 50, 38
1, 147032, Note_on_c, 0, 62, 38
1, 147204, Note_on_c, 0, 74, 0
1, 147204, Note_on_c, 0, 73, 56
1, 147384, Note_on_c, 0, 73, 0
1, 147384, Note_on_c, 0, 72, 58
1, 147568, Note_on_c, 0, 72, 0
1, 147568, Note_on_c, 0, 71, 61
1, 147751, Note_on_c, 0, 71, 0
1, 147751, Note_on_c, 0, 72, 58
1, 147935, Note_on_c, 0, 72, 0
1, 147935, Note_on_c, 0, 69, 55
1, 147964, Note_on_c, 0, 69, 0
1, 147964, Note_on_c, 0, 71, 50
1, 147977, Control_c, 0, 64, 127
1, 147994, Note_on_c, 0, 71, 0
1, 147994, Note_on_c, 0, 69, 51
1, 148024, Note_on_c, 0, 69, 0
1, 148024, Note_on_c, 0, 67, 54
1, 148069, Note_on_c, 0, 67, 0
1, 148069, Note_on_c, 0, 69, 49
1, 148114, Note_on_c, 0, 69, 0
1, 148114, Note_on_c, 0, 67, 55
1, 148114, Note_on_c, 0, 62, 0
1, 148117, Note_on_c, 0, 50, 0
1, 148117, Note_on_c, 0, 55, 46
1, 148117, Control_c, 0, 64, 0
1, 148198, Note_on_c, 0, 67, 0
1, 148198, Note_on_c, 0, 55, 0
1, 148452, Note_on_c, 0, 59, 66
1, 148452, Note_on_c, 0, 47, 45
1, 148469, Control_c, 0, 64, 127
1, 148527, Note_on_c, 0, 59, 0
1, 148527, Note_on_c, 0, 62, 66
1, 148527, Note_on_c, 0, 47, 0
1, 148530, Note_on_c, 0, 50, 45
1, 148605, Note_on_c, 0, 62, 0
1, 148605, Note_on_c, 0, 67, 73
1, 148605, Note_on_c, 0, 50, 0
1, 148608, Note_on_c, 0, 55, 52
1, 148637, Control_c, 0, 64, 0
1, 148682, Note_on_c, 0, 67, 0
1, 148682, Note_on_c, 0, 55, 0
1, 148912, Note_on_c, 0, 62, 70
1, 148912, Note_on_c, 0, 50, 48
1, 148951, Control_c, 0, 64, 127
1, 148987, Note_on_c, 0, 62, 0
1, 148987, Note_on_c, 0, 67, 70
1, 148987, Note_on_c, 0, 50, 0
1, 148990, Note_on_c, 0, 55, 48
1, 149066, Note_on_c, 0, 67, 0
1, 149066, Note_on_c, 0, 71, 75
1, 149066, Note_on_c, 0, 55, 0
1, 149069, Note_on_c, 0, 59, 57
1, 149075, Control_c, 0, 64, 0
1, 149142, Note_on_c, 0, 71, 0
1, 149142, Note_on_c, 0, 59, 0
1, 149372, Note_on_c, 0, 67, 69
1, 149372, Note_on_c, 0, 55, 51
1, 149390, Control_c, 0, 64, 127
1, 149447, Note_on_c, 0, 67, 0
1, 149447, Note_on_c, 0, 71, 69
1, 149447, Note_on_c, 0, 55, 0
1, 149450, Note_on_c, 0, 59, 51
1, 149527, Note_on_c, 0, 71, 0
1, 149527, Note_on_c, 0, 74, 81
1, 149527, Note_on_c, 0, 59, 0
1, 149530, Note_on_c, 0, 62, 57
1, 149553, Control_c, 0, 64, 0
1, 149603, Note_on_c, 0, 74, 0
1, 149603, Note_on_c, 0, 62, 0
1, 149833, Note_on_c, 0, 71, 70
1, 149833, Note_on_c, 0, 59, 48
1, 149855, Control_c, 0, 64, 127
1, 149909, Note_on_c, 0, 71, 0
1, 149909, Note_on_c, 0, 74, 70
1, 149909, Note_on_c, 0, 59, 0
1, 149912, Note_on_c, 0, 62, 48
1, 149988, Note_on_c, 0, 74, 0
1, 149988, Note_on_c, 0, 79, 82
1, 149988, Note_on_c, 0, 62, 0
1, 149991, Note_on_c, 0, 67, 57
1, 150024, Control_c, 0, 64, 0
1, 150065, Note_on_c, 0, 79, 0
1, 150065, Note_on_c, 0, 67, 0
1, 150908, Note_on_c, 0, 83, 45
1, 151291, Note_on_c, 0, 83, 0
1, 151291, Note_on_c, 0, 84, 42
1, 151371, Note_on_c, 0, 84, 0
1, 151371, Note_on_c, 0, 76, 47
1, 151371, Note_on_c, 0, 66, 27
1, 151374, Note_on_c, 0, 69, 32
1, 151374, Note_on_c, 0, 59, 29
1, 151677, Note_on_c, 0, 76, 0
1, 151677, Note_on_c, 0, 75, 47
1, 151831, Note_on_c, 0, 75, 0
1, 151831, Note_on_c, 0, 76, 55
1, 151831, Note_on_c, 0, 59, 0
1, 151834, Note_on_c, 0, 69, 0
1, 151834, Note_on_c, 0, 66, 0
1, 151834, Note_on_c, 0, 67, 35
1, 151837, Note_on_c, 0, 64, 29
1, 151945, Note_on_c, 0, 76, 0
1, 151983, Note_on_c, 0, 88, 54
1, 151983, Note_on_c, 0, 64, 0
1, 151983, Note_on_c, 0, 67, 0
1, 152059, Note_on_c, 0, 88, 0
1, 152134, Note_on_c, 0, 86, 52
1, 152209, Note_on_c, 0, 86, 0
1, 152284, Note_on_c, 0, 84, 50
1, 152359, Note_on_c, 0, 84, 0
1, 152434, Note_on_c, 0, 83, 49
1, 152509, Note_on_c, 0, 83, 0
1, 152585, Note_on_c, 0, 82, 47
1, 152662, Note_on_c, 0, 82, 0
1, 152739, Note_on_c, 0, 83, 45
1, 152934, Note_on_c, 0, 83, 0
1, 152934, Note_on_c, 0, 84, 35
1, 152972, Note_on_c, 0, 84, 0
1, 152972, Note_on_c, 0, 83, 35
1, 153010, Note_on_c, 0, 83, 0
1, 153010, Note_on_c, 0, 82, 35
1, 153048, Note_on_c, 0, 82, 0
1, 153048, Note_on_c, 0, 83, 45
1, 153124, Note_on_c, 0, 83, 0
1, 153124, Note_on_c, 0, 84, 42
1, 153204, Note_on_c, 0, 84, 0
1, 153204, Note_on_c, 0, 76, 47
1, 153204, Note_on_c, 0, 69, 32
1, 153207, Note_on_c, 0, 66, 27
1, 153207, Note_on_c, 0, 59, 29
1, 153511, Note_on_c, 0, 76, 0
1, 153529, Note_on_c, 0, 75, 47
1, 153665, Note_on_c, 0, 76, 55
1, 153665, Note_on_c, 0, 59, 0
1, 153665, Note_on_c, 0, 66, 0
1, 153668, Note_on_c, 0, 69, 0
1, 153668, Note_on_c, 0, 64, 29
1, 153668, Note_on_c, 0, 67, 35
1, 153683, Note_on_c, 0, 75, 0
1, 153779, Note_on_c, 0, 76, 0
1, 153817, Note_on_c, 0, 88, 54
1, 153817, Note_on_c, 0, 67, 0
1, 153817, Note_on_c, 0, 64, 0
1, 153893, Note_on_c, 0, 88, 0
1, 153968, Note_on_c, 0, 86, 52
1, 154043, Note_on_c, 0, 86, 0
1, 154118, Note_on_c, 0, 84, 50
1, 154193, Note_on_c, 0, 84, 0
1, 154268, Note_on_c, 0, 83, 49
1, 154343, Note_on_c, 0, 83, 0
1, 154418, Note_on_c, 0, 82, 47
1, 154496, Note_on_c, 0, 82, 0
1, 154573, Note_on_c, 0, 81, 45
1, 154767, Note_on_c, 0, 81, 0
1, 154767, Note_on_c, 0, 83, 35
1, 154806, Note_on_c, 0, 83, 0
1, 154806, Note_on_c, 0, 81, 35
1, 154844, Note_on_c, 0, 81, 0
1, 154844, Note_on_c, 0, 80, 35
1, 154882, Note_on_c, 0, 80, 0
1, 154882, Note_on_c, 0, 81, 45
1, 154958, Note_on_c, 0, 81, 0
1, 154958, Note_on_c, 0, 83, 42
1, 155038, Note_on_c, 0, 83, 0
1, 155038, Note_on_c, 0, 74, 47
1, 155038, Note_on_c, 0, 57, 29
1, 155041, Note_on_c, 0, 64, 27
1, 155041, Note_on_c, 0, 67, 32
1, 155345, Note_on_c, 0, 74, 0
1, 155364, Note_on_c, 0, 73, 47
1, 155503, Note_on_c, 0, 74, 55
1, 155503, Note_on_c, 0, 67, 0
1, 155503, Note_on_c, 0, 64, 0
1, 155506, Note_on_c, 0, 57, 0
1, 155506, Note_on_c, 0, 66, 35
1, 155506, Note_on_c, 0, 62, 29
1, 155521, Note_on_c, 0, 73, 0
1, 155618, Note_on_c, 0, 74, 0
1, 155656, Note_on_c, 0, 86, 54
1, 155656, Note_on_c, 0, 62, 0
1, 155656, Note_on_c, 0, 66, 0
1, 155731, Note_on_c, 0, 86, 0
1, 155806, Note_on_c, 0, 85, 52
1, 155881, Note_on_c, 0, 85, 0
1, 155956, Note_on_c, 0, 83, 50
1, 156031, Note_on_c, 0, 83, 0
1, 156106, Note_on_c, 0, 81, 49
1, 156182, Note_on_c, 0, 81, 0
1, 156257, Note_on_c, 0, 80, 47
1, 156334, Note_on_c, 0, 80, 0
1, 156412, Note_on_c, 0, 81, 45
1, 156606, Note_on_c, 0, 81, 0
1, 156606, Note_on_c, 0, 83, 35
1, 156644, Note_on_c, 0, 83, 0
1, 156644, Note_on_c, 0, 81, 35
1, 156682, Note_on_c, 0, 81, 0
1, 156682, Note_on_c, 0, 80, 35
1, 156720, Note_on_c, 0, 80, 0
1, 156720, Note_on_c, 0, 81, 45
1, 156796, Note_on_c, 0, 81, 0
1, 156796, Note_on_c, 0, 83, 42
1, 156877, Note_on_c, 0, 83, 0
1, 156877, Note_on_c, 0, 74, 47
1, 156877, Note_on_c, 0, 64, 27
1, 156880, Note_on_c, 0, 57, 29
1, 156880, Note_on_c, 0, 67, 32
1, 157183, Note_on_c, 0, 74, 0
1, 157201, Note_on_c, 0, 73, 47
1, 157337, Note_on_c, 0, 74, 55
1, 157337, Note_on_c, 0, 67, 0
1, 157337, Note_on_c, 0, 57, 0
1, 157340, Note_on_c, 0, 64, 0
1, 157340, Note_on_c, 0, 62, 29
1, 157340, Note_on_c, 0, 66, 35
1, 157355, Note_on_c, 0, 73, 0
1, 157451, Note_on_c, 0, 74, 0
1, 157489, Note_on_c, 0, 78, 54
1, 157489, Note_on_c, 0, 66, 0
1, 157489, Note_on_c, 0, 62, 0
1, 157565, Note_on_c, 0, 78, 0
1, 157640, Note_on_c, 0, 76, 52
1, 157715, Note_on_c, 0, 76, 0
1, 157790, Note_on_c, 0, 74, 50
1, 157865, Note_on_c, 0, 74, 0
1, 157940, Note_on_c, 0, 73, 49
1, 158015, Note_on_c, 0, 73, 0
1, 158091, Note_on_c, 0, 71, 47
1, 158168, Note_on_c, 0, 71, 0
1, 158246, Note_on_c, 0, 76, 45
1, 158440, Note_on_c, 0, 76, 0
1, 158440, Note_on_c, 0, 78, 35
1, 158478, Note_on_c, 0, 78, 0
1, 158478, Note_on_c, 0, 76, 35
1, 158516, Note_on_c, 0, 76, 0
1, 158516, Note_on_c, 0, 75, 35
1, 158554, Note_on_c, 0, 75, 0
1, 158554, Note_on_c, 0, 76, 45
1, 158630, Note_on_c, 0, 76, 0
1, 158630, Note_on_c, 0, 78, 42
1, 158711, Note_on_c, 0, 78, 0
1, 158711, Note_on_c, 0, 69, 47
1, 158711, Note_on_c, 0, 59, 27
1, 158714, Note_on_c, 0, 52, 29
1, 158714, Note_on_c, 0, 62, 32
1, 159017, Note_on_c, 0, 69, 0
1, 159017, Note_on_c, 0, 68, 47
1, 159175, Note_on_c, 0, 68, 0
1, 159175, Note_on_c, 0, 69, 55
1, 159175, Note_on_c, 0, 62, 0
1, 159178, Note_on_c, 0, 52, 0
1, 159178, Note_on_c, 0, 59, 0
1, 159178, Note_on_c, 0, 57, 29
1, 159181, Note_on_c, 0, 61, 35
1, 159290, Note_on_c, 0, 69, 0
1, 159328, Note_on_c, 0, 81, 54
1, 159328, Note_on_c, 0, 61, 0
1, 159328, Note_on_c, 0, 57, 0
1, 159403, Note_on_c, 0, 81, 0
1, 159478, Note_on_c, 0, 80, 52
1, 159553, Note_on_c, 0, 80, 0
1, 159628, Note_on_c, 0, 78, 50
1, 159703, Note_on_c, 0, 78, 0
1, 159779, Note_on_c, 0, 76, 49
1, 159854, Note_on_c, 0, 76, 0
1, 159929, Note_on_c, 0, 75, 47
1, 160006, Note_on_c, 0, 75, 0
1, 160084, Note_on_c, 0, 76, 45
1, 160278, Note_on_c, 0, 76, 0
1, 160278, Note_on_c, 0, 78, 35
1, 160316, Note_on_c, 0, 78, 0
1, 160316, Note_on_c, 0, 76, 35
1, 160354, Note_on_c, 0, 76, 0
1, 160354, Note_on_c, 0, 75, 35
1, 160392, Note_on_c, 0, 75, 0
1, 160392, Note_on_c, 0, 76, 45
1, 160468, Note_on_c, 0, 76, 0
1, 160468, Note_on_c, 0, 78, 42
1, 160549, Note_on_c, 0, 78, 0
1, 160549, Note_on_c, 0, 69, 47
1, 160549, Note_on_c, 0, 62, 32
1, 160552, Note_on_c, 0, 52, 29
1, 160552, Note_on_c, 0, 59, 27
1, 160855, Note_on_c, 0, 69, 0
1, 160855, Note_on_c, 0, 68, 47
1, 161014, Note_on_c, 0, 68, 0
1, 161014, Note_on_c, 0, 69, 36
1, 161014, Note_on_c, 0, 59, 0
1, 161017, Note_on_c, 0, 52, 0
1, 161017, Note_on_c, 0, 62, 0
1, 161017, Note_on_c, 0, 57, 30
1, 161020, Note_on_c, 0, 45, 25
1, 161064, Control_c, 0, 64, 127
1, 161093, Note_on_c, 0, 69, 0
1, 161093, Note_on_c, 0, 64, 28
1, 161172, Note_on_c, 0, 64, 0
1, 161172, Note_on_c, 0, 61, 28
1, 161172, Note_on_c, 0, 45, 0
1, 161175, Note_on_c, 0, 57, 0
1, 161175, Note_on_c, 0, 45, 20
1, 161175, Note_on_c, 0, 57, 24
1, 161249, Note_on_c, 0, 61, 0
1, 161249, Note_on_c, 0, 64, 28
1, 161326, Note_on_c, 0, 64, 0
1, 161326, Note_on_c, 0, 69, 28
1, 161326, Note_on_c, 0, 57, 0
1, 161329, Note_on_c, 0, 45, 0
1, 161329, Note_on_c, 0, 45, 20
1, 161329, Note_on_c, 0, 57, 24
1, 161403, Note_on_c, 0, 69, 0
1, 161403, Note_on_c, 0, 64, 28
1, 161481, Note_on_c, 0, 64, 0
1, 161481, Note_on_c, 0, 69, 36
1, 161481, Note_on_c, 0, 57, 0
1, 161484, Note_on_c, 0, 45, 0
1, 161484, Note_on_c, 0, 45, 25
1, 161484, Note_on_c, 0, 57, 30
1, 161492, Control_c, 0, 64, 0
1, 161553, Control_c, 0, 64, 127
1, 161558, Note_on_c, 0, 69, 0
1, 161558, Note_on_c, 0, 64, 27
1, 161635, Note_on_c, 0, 64, 0
1, 161635, Note_on_c, 0, 61, 27
1, 161635, Note_on_c, 0, 57, 0
1, 161638, Note_on_c, 0, 45, 0
1, 161638, Note_on_c, 0, 57, 23
1, 161638, Note_on_c, 0, 45, 19
1, 161712, Note_on_c, 0, 61, 0
1, 161712, Note_on_c, 0, 64, 27
1, 161789, Note_on_c, 0, 64, 0
1, 161789, Note_on_c, 0, 69, 28
1, 161789, Note_on_c, 0, 45, 0
1, 161792, Note_on_c, 0, 57, 0
1, 161792, Note_on_c, 0, 57, 23
1, 161792, Note_on_c, 0, 45, 19
1, 161869, Note_on_c, 0, 69, 0
1, 161869, Note_on_c, 0, 64, 28
1, 161949, Note_on_c, 0, 64, 0
1, 161949, Note_on_c, 0, 71, 38
1, 161949, Note_on_c, 0, 45, 0
1, 161952, Note_on_c, 0, 57, 0
1, 161952, Note_on_c, 0, 56, 32
1, 161952, Note_on_c, 0, 45, 27
1, 161952, Control_c, 0, 64, 0
1, 162005, Control_c, 0, 64, 127
1, 162028, Note_on_c, 0, 71, 0
1, 162028, Note_on_c, 0, 64, 30
1, 162108, Note_on_c, 0, 64, 0
1, 162108, Note_on_c, 0, 62, 31
1, 162108, Note_on_c, 0, 45, 0
1, 162111, Note_on_c, 0, 56, 0
1, 162111, Note_on_c, 0, 56, 27
1, 162111, Note_on_c, 0, 45, 23
1, 162186, Note_on_c, 0, 62, 0
1, 162186, Note_on_c, 0, 64, 32
1, 162264, Note_on_c, 0, 64, 0
1, 162264, Note_on_c, 0, 71, 33
1, 162264, Note_on_c, 0, 45, 0
1, 162267, Note_on_c, 0, 56, 0
1, 162267, Note_on_c, 0, 45, 23
1, 162267, Note_on_c, 0, 56, 28
1, 162341, Note_on_c, 0, 71, 0
1, 162341, Note_on_c, 0, 64, 35
1, 162419, Note_on_c, 0, 64, 0
1, 162419, Note_on_c, 0, 71, 46
1, 162419, Note_on_c, 0, 56, 0
1, 162422, Note_on_c, 0, 45, 0
1, 162422, Note_on_c, 0, 56, 38
1, 162422, Note_on_c, 0, 45, 32
1, 162428, Control_c, 0, 64, 0
1, 162473, Control_c, 0, 64, 127
1, 162497, Note_on_c, 0, 71, 0
1, 162497, Note_on_c, 0, 64, 35
1, 162575, Note_on_c, 0, 64, 0
1, 162575, Note_on_c, 0, 62, 36
1, 162575, Note_on_c, 0, 45, 0
1, 162578, Note_on_c, 0, 56, 0
1, 162578, Note_on_c, 0, 45, 24
1, 162578, Note_on_c, 0, 56, 30
1, 162652, Note_on_c, 0, 62, 0
1, 162652, Note_on_c, 0, 64, 36
1, 162730, Note_on_c, 0, 64, 0
1, 162730, Note_on_c, 0, 71, 38
1, 162730, Note_on_c, 0, 56, 0
1, 162733, Note_on_c, 0, 45, 0
1, 162733, Note_on_c, 0, 56, 32
1, 162733, Note_on_c, 0, 45, 27
1, 162810, Note_on_c, 0, 71, 0
1, 162810, Note_on_c, 0, 64, 39
1, 162889, Note_on_c, 0, 64, 0
1, 162889, Note_on_c, 0, 73, 52
1, 162889, Note_on_c, 0, 45, 0
1, 162892, Note_on_c, 0, 56, 0
1, 162892, Note_on_c, 0, 55, 44
1, 162892, Note_on_c, 0, 45, 37
1, 162892, Control_c, 0, 64, 0
1, 162953, Control_c, 0, 64, 127
1, 162967, Note_on_c, 0, 73, 0
1, 162967, Note_on_c, 0, 67, 41
1, 163044, Note_on_c, 0, 67, 0
1, 163044, Note_on_c, 0, 64, 42
1, 163044, Note_on_c, 0, 45, 0
1, 163047, Note_on_c, 0, 55, 0
1, 163047, Note_on_c, 0, 45, 30
1, 163047, Note_on_c, 0, 55, 36
1, 163121, Note_on_c, 0, 64, 0
1, 163121, Note_on_c, 0, 67, 44
1, 163198, Note_on_c, 0, 67, 0
1, 163198, Note_on_c, 0, 73, 45
1, 163198, Note_on_c, 0, 55, 0
1, 163201, Note_on_c, 0, 45, 0
1, 163201, Note_on_c, 0, 45, 32
1, 163201, Note_on_c, 0, 55, 38
1, 163279, Note_on_c, 0, 73, 0
1, 163279, Note_on_c, 0, 64, 45
1, 163360, Note_on_c, 0, 64, 0
1, 163360, Note_on_c, 0, 74, 60
1, 163360, Note_on_c, 0, 55, 0
1, 163363, Note_on_c, 0, 45, 0
1, 163363, Note_on_c, 0, 45, 42
1, 163363, Note_on_c, 0, 54, 50
1, 163369, Control_c, 0, 64, 0
1, 163439, Note_on_c, 0, 74, 0
1, 163439, Note_on_c, 0, 69, 49
1, 163443, Control_c, 0, 64, 127
1, 163517, Note_on_c, 0, 69, 0
1, 163517, Note_on_c, 0, 66, 50
1, 163517, Note_on_c, 0, 54, 0
1, 163520, Note_on_c, 0, 45, 0
1, 163520, Note_on_c, 0, 45, 33
1, 163520, Note_on_c, 0, 54, 40
1, 163595, Note_on_c, 0, 66, 0
1, 163595, Note_on_c, 0, 69, 51
1, 163673, Note_on_c, 0, 69, 0
1, 163673, Note_on_c, 0, 74, 53
1, 163673, Note_on_c, 0, 54, 0
1, 163676, Note_on_c, 0, 45, 0
1, 163676, Note_on_c, 0, 54, 42
1, 163676, Note_on_c, 0, 45, 35
1, 163756, Note_on_c, 0, 74, 0
1, 163756, Note_on_c, 0, 69, 54
1, 163839, Note_on_c, 0, 69, 0
1, 163839, Note_on_c, 0, 76, 69
1, 163839, Note_on_c, 0, 45, 0
1, 163842, Note_on_c, 0, 54, 0
1, 163842, Note_on_c, 0, 52, 57
1, 163842, Note_on_c, 0, 45, 48
1, 163848, Control_c, 0, 64, 0
1, 163918, Note_on_c, 0, 76, 0
1, 163918, Note_on_c, 0, 73, 58
1, 163932, Control_c, 0, 64, 127
1, 163997, Note_on_c, 0, 73, 0
1, 163997, Note_on_c, 0, 69, 59
1, 163997, Note_on_c, 0, 45, 0
1, 164000, Note_on_c, 0, 52, 0
1, 164000, Note_on_c, 0, 45, 42
1, 164000, Note_on_c, 0, 52, 50
1, 164076, Note_on_c, 0, 69, 0
1, 164076, Note_on_c, 0, 73, 61
1, 164155, Note_on_c, 0, 73, 0
1, 164155, Note_on_c, 0, 76, 63
1, 164155, Note_on_c, 0, 52, 0
1, 164158, Note_on_c, 0, 45, 0
1, 164158, Note_on_c, 0, 45, 45
1, 164158, Note_on_c, 0, 52, 54
1, 164238, Note_on_c, 0, 76, 0
1, 164238, Note_on_c, 0, 73, 65
1, 164321, Note_on_c, 0, 73, 0
1, 164321, Note_on_c, 0, 78, 77
1, 164321, Note_on_c, 0, 52, 0
1, 164324, Note_on_c, 0, 45, 0
1, 164324, Note_on_c, 0, 50, 64
1, 164324, Note_on_c, 0, 45, 53
1, 164330, Control_c, 0, 64, 0
1, 164382, Control_c, 0, 64, 127
1, 164401, Note_on_c, 0, 78, 0
1, 164401, Note_on_c, 0, 74, 66
1, 164481, Note_on_c, 0, 74, 0
1, 164481, Note_on_c, 0, 69, 68
1, 164481, Note_on_c, 0, 45, 0
1, 164484, Note_on_c, 0, 50, 0
1, 164484, Note_on_c, 0, 50, 56
1, 164484, Note_on_c, 0, 45, 47
1, 164561, Note_on_c, 0, 69, 0
1, 164561, Note_on_c, 0, 74, 70
1, 164641, Note_on_c, 0, 74, 0
1, 164641, Note_on_c, 0, 78, 72
1, 164641, Note_on_c, 0, 45, 0
1, 164644, Note_on_c, 0, 50, 0
1, 164644, Note_on_c, 0, 50, 59
1, 164644, Note_on_c, 0, 45, 49
1, 164724, Note_on_c, 0, 78, 0
1, 164724, Note_on_c, 0, 74, 73
1, 164840, Note_on_c, 0, 74, 0
1, 164840, Note_on_c, 0, 79, 75
1, 164840, Note_on_c, 0, 76, 63
1, 164843, Note_on_c, 0, 69, 63
1, 164843, Note_on_c, 0, 73, 63
1, 164843, Note_on_c, 0, 45, 0
1, 164846, Note_on_c, 0, 50, 0
1, 164846, Note_on_c, 0, 57, 58
1, 164846, Note_on_c, 0, 52, 49
1, 164849, Note_on_c, 0, 49, 49
1, 164849, Note_on_c, 0, 45, 49
1, 164849, Control_c, 0, 64, 0
1, 165030, Control_c, 0, 64, 127
1, 166167, Control_c, 0, 64, 0
1, 166547, Note_on_c, 0, 73, 0
1, 166547, Note_on_c, 0, 79, 0
1, 166547, Note_on_c, 0, 76, 0
1, 166550, Note_on_c, 0, 69, 0
1, 166550, Note_on_c, 0, 79, 74
1, 166550, Note_on_c, 0, 45, 0
1, 166553, Note_on_c, 0, 57, 0
1, 166553, Note_on_c, 0, 52, 0
1, 166553, Note_on_c, 0, 49, 0
1, 166556, Control_c, 0, 64, 127
1, 166923, Note_on_c, 0, 79, 0
1, 166923, Note_on_c, 0, 76, 69
1, 167049, Note_on_c, 0, 76, 0
1, 167049, Note_on_c, 0, 85, 76
1, 167425, Note_on_c, 0, 85, 0
1, 167425, Note_on_c, 0, 79, 69
1, 167551, Note_on_c, 0, 79, 0
1, 167551, Note_on_c, 0, 88, 77
1, 167670, Control_c, 0, 64, 0
1, 167747, Control_c, 0, 64, 127
1, 168304, Note_on_c, 0, 88, 0
1, 168304, Note_on_c, 0, 86, 64
1, 168555, Note_on_c, 0, 86, 0
1, 168555, Note_on_c, 0, 85, 66
1, 168572, Control_c, 0, 64, 0
1, 168806, Note_on_c, 0, 83, 63
1, 168818, Note_on_c, 0, 85, 0
1, 169057, Note_on_c, 0, 81, 63
1, 169069, Note_on_c, 0, 83, 0
1, 169308, Note_on_c, 0, 80, 60
1, 169320, Note_on_c, 0, 81, 0
1, 169559, Note_on_c, 0, 81, 57
1, 169571, Note_on_c, 0, 80, 0
1, 169681, Note_on_c, 0, 82, 53
1, 169693, Note_on_c, 0, 81, 0
1, 169802, Note_on_c, 0, 83, 53
1, 169814, Note_on_c, 0, 82, 0
1, 169921, Note_on_c, 0, 81, 54
1, 169933, Note_on_c, 0, 83, 0
1, 170038, Note_on_c, 0, 79, 54
1, 170049, Note_on_c, 0, 81, 0
1, 170152, Note_on_c, 0, 78, 57
1, 170164, Note_on_c, 0, 79, 0
1, 170265, Note_on_c, 0, 81, 60
1, 170276, Note_on_c, 0, 78, 0
1, 170376, Note_on_c, 0, 79, 57
1, 170387, Note_on_c, 0, 81, 0
1, 170484, Note_on_c, 0, 83, 60
1, 170495, Note_on_c, 0, 79, 0
1, 170589, Note_on_c, 0, 81, 57
1, 170600, Note_on_c, 0, 83, 0
1, 170692, Note_on_c, 0, 79, 58
1, 170702, Note_on_c, 0, 81, 0
1, 170791, Note_on_c, 0, 78, 58
1, 170801, Note_on_c, 0, 79, 0
1, 170888, Note_on_c, 0, 76, 62
1, 170897, Note_on_c, 0, 78, 0
1, 170981, Note_on_c, 0, 78, 58
1, 170990, Note_on_c, 0, 76, 0
1, 171073, Note_on_c, 0, 79, 58
1, 171082, Note_on_c, 0, 78, 0
1, 171163, Note_on_c, 0, 78, 59
1, 171172, Note_on_c, 0, 79, 0
1, 171252, Note_on_c, 0, 81, 64
1, 171261, Note_on_c, 0, 78, 0
1, 171340, Note_on_c, 0, 79, 61
1, 171348, Note_on_c, 0, 81, 0
1, 171427, Note_on_c, 0, 78, 63
1, 171435, Note_on_c, 0, 79, 0
1, 171513, Note_on_c, 0, 76, 60
1, 171522, Note_on_c, 0, 78, 0
1, 171599, Note_on_c, 0, 74, 63
1, 171608, Note_on_c, 0, 76, 0
1, 171685, Note_on_c, 0, 73, 62
1, 171693, Note_on_c, 0, 74, 0
1, 171770, Note_on_c, 0, 71, 62
1, 171778, Note_on_c, 0, 73, 0
1, 171855, Note_on_c, 0, 69, 63
1, 171863, Note_on_c, 0, 71, 0
1, 171943, Note_on_c, 0, 67, 62
1, 171954, Note_on_c, 0, 69, 0
1, 171979, Control_c, 0, 64, 127
1, 172001, Note_on_c, 0, 67, 0
1, 172001, Note_on_c, 0, 69, 53
1, 172059, Note_on_c, 0, 69, 0
1, 172059, Note_on_c, 0, 67, 62
1, 172116, Note_on_c, 0, 67, 0
1, 172116, Note_on_c, 0, 69, 53
1, 172173, Note_on_c, 0, 69, 0
1, 172173, Note_on_c, 0, 67, 63
1, 172229, Note_on_c, 0, 67, 0
1, 172229, Note_on_c, 0, 69, 53
1, 172285, Note_on_c, 0, 69, 0
1, 172285, Note_on_c, 0, 67, 61
1, 172340, Note_on_c, 0, 67, 0
1, 172340, Note_on_c, 0, 69, 53
1, 172395, Note_on_c, 0, 69, 0
1, 172395, Note_on_c, 0, 67, 62
1, 172450, Note_on_c, 0, 67, 0
1, 172450, Note_on_c, 0, 69, 53
1, 172504, Note_on_c, 0, 69, 0
1, 172504, Note_on_c, 0, 67, 65
1, 172557, Note_on_c, 0, 67, 0
1, 172557, Note_on_c, 0, 69, 57
1, 172611, Note_on_c, 0, 69, 0
1, 172611, Note_on_c, 0, 67, 68
1, 172664, Note_on_c, 0, 67, 0
1, 172664, Note_on_c, 0, 69, 60
1, 172717, Note_on_c, 0, 69, 0
1, 172717, Note_on_c, 0, 67, 66
1, 172770, Note_on_c, 0, 67, 0
1, 172770, Note_on_c, 0, 69, 57
1, 172824, Note_on_c, 0, 69, 0
1, 172824, Note_on_c, 0, 67, 66
1, 172896, Note_on_c, 0, 67, 0
1, 172896, Note_on_c, 0, 69, 60
1, 172969, Note_on_c, 0, 69, 0
1, 172969, Note_on_c, 0, 67, 68
1, 173042, Note_on_c, 0, 67, 0
1, 173042, Note_on_c, 0, 66, 59
1, 173152, Note_on_c, 0, 66, 0
1, 173152, Note_on_c, 0, 67, 63
1, 173264, Note_on_c, 0, 67, 0
1, 173264, Note_on_c, 0, 68, 64
1, 173270, Control_c, 0, 64, 0
1, 173319, Control_c, 0, 64, 127
1, 173329, Note_on_c, 0, 68, 0
1, 173329, Note_on_c, 0, 69, 64
1, 173394, Note_on_c, 0, 69, 0
1, 173394, Note_on_c, 0, 70, 63
1, 173460, Note_on_c, 0, 70, 0
1, 173460, Note_on_c, 0, 71, 62
1, 173525, Note_on_c, 0, 71, 0
1, 173525, Note_on_c, 0, 72, 61
1, 173592, Note_on_c, 0, 72, 0
1, 173592, Note_on_c, 0, 73, 60
1, 173658, Note_on_c, 0, 73, 0
1, 173658, Note_on_c, 0, 74, 59
1, 173725, Note_on_c, 0, 74, 0
1, 173725, Note_on_c, 0, 75, 58
1, 173793, Note_on_c, 0, 75, 0
1, 173793, Note_on_c, 0, 76, 57
1, 173861, Note_on_c, 0, 76, 0
1, 173861, Note_on_c, 0, 77, 56
1, 173929, Note_on_c, 0, 77, 0
1, 173929, Note_on_c, 0, 78, 55
1, 173998, Note_on_c, 0, 78, 0
1, 173998, Note_on_c, 0, 79, 54
1, 174067, Note_on_c, 0, 79, 0
1, 174067, Note_on_c, 0, 80, 53
1, 174160, Note_on_c, 0, 80, 0
1, 174160, Note_on_c, 0, 81, 53
1, 174253, Note_on_c, 0, 81, 0
1, 174253, Note_on_c, 0, 82, 52
1, 174346, Note_on_c, 0, 82, 0
1, 174346, Note_on_c, 0, 83, 50
1, 174368, Control_c, 0, 64, 0
1, 174727, Note_on_c, 0, 83, 0
1, 175643, Note_on_c, 0, 81, 56
1, 175924, Note_on_c, 0, 81, 0
1, 175924, Note_on_c, 0, 79, 51
1, 176509, Note_on_c, 0, 79, 0
1, 177116, Note_on_c, 0, 78, 53
1, 177371, Note_on_c, 0, 78, 0
1, 177371, Note_on_c, 0, 76, 47
1, 177934, Note_on_c, 0, 76, 0
1, 178550, Note_on_c, 0, 78, 53
1, 178885, Note_on_c, 0, 78, 0
1, 178885, Note_on_c, 0, 79, 43
1, 178964, Note_on_c, 0, 79, 0
1, 178964, Note_on_c, 0, 78, 43
1, 179043, Note_on_c, 0, 78, 0
1, 179043, Note_on_c, 0, 76, 43
1, 179122, Note_on_c, 0, 76, 0
1, 179122, Note_on_c, 0, 78, 43
1, 179201, Note_on_c, 0, 78, 0
1, 179201, Note_on_c, 0, 81, 55
1, 179711, Note_on_c, 0, 81, 0
1, 179711, Note_on_c, 0, 79, 50
1, 179905, Note_on_c, 0, 79, 0
1, 179905, Note_on_c, 0, 79, 54
1, 180256, Note_on_c, 0, 79, 0
1, 180256, Note_on_c, 0, 81, 41
1, 180344, Note_on_c, 0, 81, 0
1, 180344, Note_on_c, 0, 79, 41
1, 180431, Note_on_c, 0, 79, 0
1, 180431, Note_on_c, 0, 78, 41
1, 180519, Note_on_c, 0, 78, 0
1, 180519, Note_on_c, 0, 79, 41
1, 180607, Note_on_c, 0, 79, 0
1, 180607, Note_on_c, 0, 80, 53
1, 181309, Note_on_c, 0, 80, 0
1, 181309, Note_on_c, 0, 83, 50
1, 182207, Note_on_c, 0, 83, 0
1, 182207, Note_on_c, 0, 81, 41
1, 183390, Note_on_c, 0, 81, 0
1, 183390, Note_on_c, 0, 69, 40
1, 183394, Control_c, 0, 64, 127
1, 183464, Note_on_c, 0, 69, 0
1, 183464, Note_on_c, 0, 81, 45
1, 183766, Note_on_c, 0, 81, 0
1, 183766, Note_on_c, 0, 78, 42
1, 183839, Control_c, 0, 64, 0
1, 183879, Note_on_c, 0, 78, 0
1, 183879, Note_on_c, 0, 76, 42
1, 183917, Note_on_c, 0, 76, 0
1, 183917, Note_on_c, 0, 74, 46
1, 183917, Note_on_c, 0, 62, 26
1, 183920, Note_on_c, 0, 66, 31
1, 183973, Note_on_c, 0, 74, 0
1, 184068, Note_on_c, 0, 73, 42
1, 184124, Note_on_c, 0, 73, 0
1, 184218, Note_on_c, 0, 74, 42
1, 184277, Note_on_c, 0, 74, 0
1, 184335, Note_on_c, 0, 76, 41
1, 184374, Note_on_c, 0, 76, 0
1, 184374, Note_on_c, 0, 74, 45
1, 184374, Note_on_c, 0, 66, 0
1, 184377, Note_on_c, 0, 62, 0
1, 184377, Note_on_c, 0, 68, 31
1, 184377, Note_on_c, 0, 59, 26
1, 184431, Note_on_c, 0, 74, 0
1, 184525, Note_on_c, 0, 73, 41
1, 184582, Note_on_c, 0, 73, 0
1, 184676, Note_on_c, 0, 74, 40
1, 184737, Note_on_c, 0, 74, 0
1, 184838, Note_on_c, 0, 74, 39
1, 184838, Note_on_c, 0, 78, 46
1, 184838, Note_on_c, 0, 59, 0
1, 184841, Note_on_c, 0, 68, 0
1, 184841, Note_on_c, 0, 69, 31
1, 184841, Note_on_c, 0, 57, 26
1, 184905, Control_c, 0, 64, 127
1, 185154, Note_on_c, 0, 78, 0
1, 185154, Note_on_c, 0, 74, 0
1, 185154, Note_on_c, 0, 73, 33
1, 185157, Note_on_c, 0, 76, 39
1, 185161, Control_c, 0, 64, 0
1, 185253, Note_on_c, 0, 76, 0
1, 185253, Note_on_c, 0, 73, 0
1, 185253, Note_on_c, 0, 67, 40
1, 185300, Control_c, 0, 64, 127
1, 185327, Note_on_c, 0, 67, 0
1, 185327, Note_on_c, 0, 79, 45
1, 185327, Note_on_c, 0, 57, 0
1, 185330, Note_on_c, 0, 69, 0
1, 185629, Note_on_c, 0, 79, 0
1, 185629, Note_on_c, 0, 76, 42
1, 185639, Control_c, 0, 64, 0
1, 185742, Note_on_c, 0, 76, 0
1, 185742, Note_on_c, 0, 74, 42
1, 185780, Note_on_c, 0, 74, 0
1, 185780, Note_on_c, 0, 73, 46
1, 185780, Note_on_c, 0, 64, 31
1, 185783, Note_on_c, 0, 57, 26
1, 185836, Note_on_c, 0, 73, 0
1, 185930, Note_on_c, 0, 71, 42
1, 185987, Note_on_c, 0, 71, 0
1, 186081, Note_on_c, 0, 73, 42
1, 186140, Note_on_c, 0, 73, 0
1, 186237, Note_on_c, 0, 69, 45
1, 186237, Note_on_c, 0, 57, 0
1, 186237, Note_on_c, 0, 64, 0
1, 186240, Note_on_c, 0, 61, 26
1, 186240, Note_on_c, 0, 64, 31
1, 186294, Note_on_c, 0, 69, 0
1, 186388, Note_on_c, 0, 76, 41
1, 186444, Note_on_c, 0, 76, 0
1, 186539, Note_on_c, 0, 81, 40
1, 186599, Note_on_c, 0, 81, 0
1, 186701, Note_on_c, 0, 79, 46
1, 186701, Note_on_c, 0, 76, 39
1, 186701, Note_on_c, 0, 64, 0
1, 186704, Note_on_c, 0, 61, 0
1, 186704, Note_on_c, 0, 62, 26
1, 186704, Note_on_c, 0, 69, 31
1, 186768, Control_c, 0, 64, 127
1, 187017, Note_on_c, 0, 76, 0
1, 187017, Note_on_c, 0, 79, 0
1, 187017, Note_on_c, 0, 74, 33
1, 187020, Note_on_c, 0, 78, 39
1, 187023, Control_c, 0, 64, 0
1, 187136, Note_on_c, 0, 78, 0
1, 187136, Note_on_c, 0, 74, 0
1, 187136, Note_on_c, 0, 74, 48
1, 187175, Note_on_c, 0, 74, 0
1, 187175, Note_on_c, 0, 78, 52
1, 187175, Note_on_c, 0, 69, 0
1, 187178, Note_on_c, 0, 62, 0
1, 187178, Note_on_c, 0, 50, 51
1, 187327, Note_on_c, 0, 50, 0
1, 187327, Note_on_c, 0, 62, 45
1, 187403, Note_on_c, 0, 62, 0
1, 187479, Note_on_c, 0, 78, 0
1, 187479, Note_on_c, 0, 79, 48
1, 187479, Note_on_c, 0, 64, 48
1, 187557, Note_on_c, 0, 64, 0
1, 187634, Note_on_c, 0, 79, 0
1, 187634, Note_on_c, 0, 83, 59
1, 187634, Note_on_c, 0, 66, 52
1, 187710, Note_on_c, 0, 83, 0
1, 187710, Note_on_c, 0, 81, 57
1, 187786, Note_on_c, 0, 81, 0
1, 187786, Note_on_c, 0, 79, 55
1, 187786, Note_on_c, 0, 66, 0
1, 187862, Note_on_c, 0, 79, 0
1, 187862, Note_on_c, 0, 78, 53
1, 187938, Note_on_c, 0, 78, 0
1, 187938, Note_on_c, 0, 76, 51
1, 188020, Note_on_c, 0, 76, 0
1, 188020, Note_on_c, 0, 74, 47
1, 188058, Note_on_c, 0, 74, 0
1, 188058, Note_on_c, 0, 74, 46
1, 188097, Note_on_c, 0, 74, 0
1, 188097, Note_on_c, 0, 78, 58
1, 188097, Note_on_c, 0, 50, 50
1, 188249, Note_on_c, 0, 50, 0
1, 188249, Note_on_c, 0, 62, 44
1, 188324, Note_on_c, 0, 62, 0
1, 188400, Note_on_c, 0, 78, 0
1, 188400, Note_on_c, 0, 79, 49
1, 188400, Note_on_c, 0, 64, 48
1, 188478, Note_on_c, 0, 64, 0
1, 188556, Note_on_c, 0, 79, 0
1, 188556, Note_on_c, 0, 83, 59
1, 188556, Note_on_c, 0, 66, 53
1, 188632, Note_on_c, 0, 83, 0
1, 188632, Note_on_c, 0, 81, 57
1, 188707, Note_on_c, 0, 81, 0
1, 188707, Note_on_c, 0, 79, 55
1, 188707, Note_on_c, 0, 66, 0
1, 188783, Note_on_c, 0, 79, 0
1, 188783, Note_on_c, 0, 78, 53
1, 188858, Note_on_c, 0, 78, 0
1, 188858, Note_on_c, 0, 76, 51
1, 188942, Note_on_c, 0, 76, 0
1, 188942, Note_on_c, 0, 74, 51
1, 188975, Note_on_c, 0, 74, 0
1, 188981, Note_on_c, 0, 74, 46
1, 189021, Note_on_c, 0, 74, 0
1, 189021, Note_on_c, 0, 83, 58
1, 189021, Note_on_c, 0, 55, 50
1, 189172, Note_on_c, 0, 55, 0
1, 189172, Note_on_c, 0, 67, 44
1, 189247, Note_on_c, 0, 67, 0
1, 189323, Note_on_c, 0, 83, 0
1, 189323, Note_on_c, 0, 85, 49
1, 189323, Note_on_c, 0, 64, 48
1, 189401, Note_on_c, 0, 64, 0
1, 189478, Note_on_c, 0, 85, 0
1, 189478, Note_on_c, 0, 86, 59
1, 189478, Note_on_c, 0, 54, 45
1, 189481, Note_on_c, 0, 66, 53
1, 189554, Note_on_c, 0, 86, 0
1, 189554, Note_on_c, 0, 85, 57
1, 189629, Note_on_c, 0, 85, 0
1, 189629, Note_on_c, 0, 83, 55
1, 189629, Note_on_c, 0, 66, 0
1, 189632, Note_on_c, 0, 54, 0
1, 189705, Note_on_c, 0, 83, 0
1, 189705, Note_on_c, 0, 81, 53
1, 189781, Note_on_c, 0, 81, 0
1, 189781, Note_on_c, 0, 79, 51
1, 189858, Note_on_c, 0, 79, 0
1, 189858, Note_on_c, 0, 78, 51
1, 189934, Note_on_c, 0, 78, 0
1, 189934, Note_on_c, 0, 83, 59
1, 189934, Note_on_c, 0, 67, 53
1, 189937, Note_on_c, 0, 55, 45
1, 190010, Note_on_c, 0, 83, 0
1, 190010, Note_on_c, 0, 81, 58
1, 190086, Note_on_c, 0, 81, 0
1, 190086, Note_on_c, 0, 79, 56
1, 190086, Note_on_c, 0, 55, 0
1, 190089, Note_on_c, 0, 67, 0
1, 190161, Note_on_c, 0, 79, 0
1, 190161, Note_on_c, 0, 78, 55
1, 190237, Note_on_c, 0, 78, 0
1, 190237, Note_on_c, 0, 76, 58
1, 190316, Note_on_c, 0, 76, 0
1, 190316, Note_on_c, 0, 74, 62
1, 190408, Note_on_c, 0, 74, 0
1, 190408, Note_on_c, 0, 81, 59
1, 190408, Note_on_c, 0, 76, 50
1, 190411, Note_on_c, 0, 73, 50
1, 190411, Note_on_c, 0, 57, 45
1, 190411, Note_on_c, 0, 69, 53
1, 190564, Note_on_c, 0, 73, 0
1, 190564, Note_on_c, 0, 76, 0
1, 190564, Note_on_c, 0, 81, 0
1, 190567, Note_on_c, 0, 69, 0
1, 190567, Note_on_c, 0, 57, 0
1, 190798, Note_on_c, 0, 57, 40
1, 190802, Control_c, 0, 64, 127
1, 190872, Note_on_c, 0, 57, 0
1, 190872, Note_on_c, 0, 69, 45
1, 191174, Note_on_c, 0, 69, 0
1, 191174, Note_on_c, 0, 66, 42
1, 191247, Control_c, 0, 64, 0
1, 191287, Note_on_c, 0, 66, 0
1, 191287, Note_on_c, 0, 64, 42
1, 191325, Note_on_c, 0, 64, 0
1, 191325, Note_on_c, 0, 62, 46
1, 191325, Note_on_c, 0, 50, 26
1, 191328, Note_on_c, 0, 54, 31
1, 191381, Note_on_c, 0, 62, 0
1, 191475, Note_on_c, 0, 61, 42
1, 191532, Note_on_c, 0, 61, 0
1, 191626, Note_on_c, 0, 62, 42
1, 191685, Note_on_c, 0, 62, 0
1, 191743, Note_on_c, 0, 64, 41
1, 191782, Note_on_c, 0, 64, 0
1, 191782, Note_on_c, 0, 62, 45
1, 191782, Note_on_c, 0, 54, 0
1, 191785, Note_on_c, 0, 50, 0
1, 191785, Note_on_c, 0, 56, 31
1, 191785, Note_on_c, 0, 47, 26
1, 191839, Note_on_c, 0, 62, 0
1, 191933, Note_on_c, 0, 61, 41
1, 191989, Note_on_c, 0, 61, 0
1, 192084, Note_on_c, 0, 62, 40
1, 192144, Note_on_c, 0, 62, 0
1, 192246, Note_on_c, 0, 62, 39
1, 192246, Note_on_c, 0, 66, 46
1, 192246, Note_on_c, 0, 47, 0
1, 192249, Note_on_c, 0, 56, 0
1, 192249, Note_on_c, 0, 45, 26
1, 192249, Note_on_c, 0, 57, 31
1, 192313, Control_c, 0, 64, 127
1, 192562, Note_on_c, 0, 66, 0
1, 192562, Note_on_c, 0, 62, 0
1, 192562, Note_on_c, 0, 61, 33
1, 192565, Note_on_c, 0, 64, 39
1, 192569, Control_c, 0, 64, 0
1, 192660, Note_on_c, 0, 64, 0
1, 192660, Note_on_c, 0, 61, 0
1, 192660, Note_on_c, 0, 55, 40
1, 192708, Control_c, 0, 64, 127
1, 192735, Note_on_c, 0, 55, 0
1, 192735, Note_on_c, 0, 67, 45
1, 192735, Note_on_c, 0, 57, 0
1, 192738, Note_on_c, 0, 45, 0
1, 193037, Note_on_c, 0, 67, 0
1, 193037, Note_on_c, 0, 64, 42
1, 193047, Control_c, 0, 64, 0
1, 193150, Note_on_c, 0, 64, 0
1, 193150, Note_on_c, 0, 62, 42
1, 193187, Note_on_c, 0, 62, 0
1, 193187, Note_on_c, 0, 61, 46
1, 193187, Note_on_c, 0, 52, 31
1, 193190, Note_on_c, 0, 45, 26
1, 193244, Note_on_c, 0, 61, 0
1, 193338, Note_on_c, 0, 59, 42
1, 193395, Note_on_c, 0, 59, 0
1, 193489, Note_on_c, 0, 61, 42
1, 193547, Note_on_c, 0, 61, 0
1, 193645, Note_on_c, 0, 57, 45
1, 193645, Note_on_c, 0, 45, 0
1, 193645, Note_on_c, 0, 52, 0
1, 193648, Note_on_c, 0, 52, 31
1, 193648, Note_on_c, 0, 49, 26
1, 193701, Note_on_c, 0, 57, 0
1, 193796, Note_on_c, 0, 64, 41
1, 193852, Note_on_c, 0, 64, 0
1, 193946, Note_on_c, 0, 69, 40
1, 194007, Note_on_c, 0, 69, 0
1, 194109, Note_on_c, 0, 67, 46
1, 194109, Note_on_c, 0, 64, 39
1, 194109, Note_on_c, 0, 49, 0
1, 194112, Note_on_c, 0, 52, 0
1, 194112, Note_on_c, 0, 57, 31
1, 194112, Note_on_c, 0, 50, 26
1, 194176, Control_c, 0, 64, 127
1, 194425, Note_on_c, 0, 64, 0
1, 194425, Note_on_c, 0, 67, 0
1, 194425, Note_on_c, 0, 62, 33
1, 194428, Note_on_c, 0, 66, 39
1, 194431, Control_c, 0, 64, 0
1, 194544, Note_on_c, 0, 66, 0
1, 194544, Note_on_c, 0, 62, 0
1, 194544, Note_on_c, 0, 74, 48
1, 194583, Note_on_c, 0, 74, 0
1, 194583, Note_on_c, 0, 78, 52
1, 194583, Note_on_c, 0, 50, 0
1, 194586, Note_on_c, 0, 57, 0
1, 194586, Note_on_c, 0, 50, 51
1, 194735, Note_on_c, 0, 50, 0
1, 194735, Note_on_c, 0, 62, 45
1, 194811, Note_on_c, 0, 62, 0
1, 194887, Note_on_c, 0, 78, 0
1, 194887, Note_on_c, 0, 79, 48
1, 194887, Note_on_c, 0, 64, 48
1, 194964, Note_on_c, 0, 64, 0
1, 195042, Note_on_c, 0, 79, 0
1, 195042, Note_on_c, 0, 83, 59
1, 195042, Note_on_c, 0, 66, 52
1, 195118, Note_on_c, 0, 83, 0
1, 195118, Note_on_c, 0, 81, 57
1, 195194, Note_on_c, 0, 81, 0
1, 195194, Note_on_c, 0, 79, 55
1, 195194, Note_on_c, 0, 66, 0
1, 195270, Note_on_c, 0, 79, 0
1, 195270, Note_on_c, 0, 78, 53
1, 195345, Note_on_c, 0, 78, 0
1, 195345, Note_on_c, 0, 76, 51
1, 195427, Note_on_c, 0, 76, 0
1, 195427, Note_on_c, 0, 74, 47
1, 195466, Note_on_c, 0, 74, 0
1, 195466, Note_on_c, 0, 79, 46
1, 195505, Note_on_c, 0, 79, 0
1, 195505, Note_on_c, 0, 83, 58
1, 195505, Note_on_c, 0, 43, 50
1, 195657, Note_on_c, 0, 43, 0
1, 195657, Note_on_c, 0, 55, 44
1, 195732, Note_on_c, 0, 55, 0
1, 195808, Note_on_c, 0, 83, 0
1, 195808, Note_on_c, 0, 85, 49
1, 195808, Note_on_c, 0, 57, 48
1, 195885, Note_on_c, 0, 57, 0
1, 195963, Note_on_c, 0, 85, 0
1, 195963, Note_on_c, 0, 88, 59
1, 195963, Note_on_c, 0, 59, 53
1, 196038, Note_on_c, 0, 88, 0
1, 196038, Note_on_c, 0, 86, 57
1, 196114, Note_on_c, 0, 86, 0
1, 196114, Note_on_c, 0, 85, 55
1, 196114, Note_on_c, 0, 59, 0
1, 196190, Note_on_c, 0, 85, 0
1, 196190, Note_on_c, 0, 83, 53
1, 196265, Note_on_c, 0, 83, 0
1, 196265, Note_on_c, 0, 81, 51
1, 196342, Note_on_c, 0, 81, 0
1, 196342, Note_on_c, 0, 79, 51
1, 196419, Note_on_c, 0, 79, 0
1, 196419, Note_on_c, 0, 85, 59
1, 196419, Note_on_c, 0, 64, 53
1, 196422, Note_on_c, 0, 59, 45
1, 196426, Note_on_c, 0, 55, 45
1, 196495, Note_on_c, 0, 85, 0
1, 196495, Note_on_c, 0, 83, 58
1, 196495, Note_on_c, 0, 59, 0
1, 196498, Note_on_c, 0, 64, 0
1, 196501, Note_on_c, 0, 55, 0
1, 196571, Note_on_c, 0, 83, 0
1, 196571, Note_on_c, 0, 81, 56
1, 196646, Note_on_c, 0, 81, 0
1, 196646, Note_on_c, 0, 79, 55
1, 196722, Note_on_c, 0, 79, 0
1, 196722, Note_on_c, 0, 78, 54
1, 196800, Note_on_c, 0, 78, 0
1, 196800, Note_on_c, 0, 76, 52
1, 196891, Note_on_c, 0, 76, 0
1, 196891, Note_on_c, 0, 83, 63
1, 196891, Note_on_c, 0, 66, 53
1, 196894, Note_on_c, 0, 62, 45
1, 196894, Note_on_c, 0, 57, 45
1, 196967, Note_on_c, 0, 83, 0
1, 196967, Note_on_c, 0, 81, 61
1, 196967, Note_on_c, 0, 57, 0
1, 196970, Note_on_c, 0, 62, 0
1, 196970, Note_on_c, 0, 66, 0
1, 197042, Note_on_c, 0, 81, 0
1, 197042, Note_on_c, 0, 79, 59
1, 197118, Note_on_c, 0, 79, 0
1, 197118, Note_on_c, 0, 78, 57
1, 197194, Note_on_c, 0, 78, 0
1, 197194, Note_on_c, 0, 76, 56
1, 197271, Note_on_c, 0, 76, 0
1, 197271, Note_on_c, 0, 74, 54
1, 197347, Note_on_c, 0, 74, 0
1, 197347, Note_on_c, 0, 81, 59
1, 197347, Note_on_c, 0, 67, 53
1, 197350, Note_on_c, 0, 64, 45
1, 197350, Note_on_c, 0, 57, 45
1, 197423, Note_on_c, 0, 81, 0
1, 197423, Note_on_c, 0, 79, 61
1, 197423, Note_on_c, 0, 57, 0
1, 197426, Note_on_c, 0, 64, 0
1, 197426, Note_on_c, 0, 67, 0
1, 197499, Note_on_c, 0, 79, 0
1, 197499, Note_on_c, 0, 78, 60
1, 197575, Note_on_c, 0, 78, 0
1, 197575, Note_on_c, 0, 76, 59
1, 197650, Note_on_c, 0, 76, 0
1, 197650, Note_on_c, 0, 74, 58
1, 197729, Note_on_c, 0, 74, 0
1, 197729, Note_on_c, 0, 73, 61
1, 197819, Note_on_c, 0, 73, 0
1, 197819, Note_on_c, 0, 74, 63
1, 197819, Note_on_c, 0, 66, 53
1, 197822, Note_on_c, 0, 62, 45
1, 197898, Note_on_c, 0, 74, 0
1, 197898, Note_on_c, 0, 62, 0
1, 197898, Note_on_c, 0, 66, 0
1, 198446, Note_on_c, 0, 62, 61
1, 198446, Note_on_c, 0, 38, 44
1, 198446, Note_on_c, 0, 50, 44
1, 198502, Note_on_c, 0, 62, 0
1, 198502, Note_on_c, 0, 50, 0
1, 198502, Note_on_c, 0, 38, 0
1, 198596, Note_on_c, 0, 62, 62
1, 198596, Note_on_c, 0, 50, 44
1, 198596, Note_on_c, 0, 38, 44
1, 198655, Note_on_c, 0, 62, 0
1, 198655, Note_on_c, 0, 38, 0
1, 198655, Note_on_c, 0, 50, 0
1, 198674, Note_on_c, 0, 64, 40
1, 198700, Note_on_c, 0, 64, 0
1, 198700, Note_on_c, 0, 62, 40
1, 198726, Note_on_c, 0, 62, 0
1, 198726, Note_on_c, 0, 61, 40
1, 198752, Note_on_c, 0, 62, 69
1, 198752, Note_on_c, 0, 61, 0
1, 198752, Note_on_c, 0, 50, 52
1, 198755, Note_on_c, 0, 38, 52
1, 199057, Note_on_c, 0, 62, 0
1, 199057, Note_on_c, 0, 62, 60
1, 199057, Note_on_c, 0, 38, 0
1, 199060, Note_on_c, 0, 50, 0
1, 199060, Note_on_c, 0, 38, 44
1, 199060, Note_on_c, 0, 50, 44
1, 199115, Note_on_c, 0, 62, 0
1, 199115, Note_on_c, 0, 50, 0
1, 199115, Note_on_c, 0, 38, 0
1, 199134, Note_on_c, 0, 64, 40
1, 199159, Note_on_c, 0, 64, 0
1, 199159, Note_on_c, 0, 62, 40
1, 199185, Note_on_c, 0, 62, 0
1, 199185, Note_on_c, 0, 61, 40
1, 199210, Note_on_c, 0, 62, 64
1, 199210, Note_on_c, 0, 61, 0
1, 199210, Note_on_c, 0, 38, 44
1, 199213, Note_on_c, 0, 50, 44
1, 199516, Note_on_c, 0, 62, 0
1, 199516, Note_on_c, 0, 62, 59
1, 199516, Note_on_c, 0, 50, 0
1, 199519, Note_on_c, 0, 38, 0
1, 199519, Note_on_c, 0, 50, 44
1, 199519, Note_on_c, 0, 38, 44
1, 199575, Note_on_c, 0, 62, 0
1, 199575, Note_on_c, 0, 38, 0
1, 199575, Note_on_c, 0, 50, 0
1, 199673, Note_on_c, 0, 60, 66
1, 199673, Note_on_c, 0, 36, 52
1, 199673, Note_on_c, 0, 48, 52
1, 199978, Note_on_c, 0, 60, 0
1, 199978, Note_on_c, 0, 48, 0
1, 199978, Note_on_c, 0, 36, 0
1, 200055, Note_on_c, 0, 69, 54
1, 200131, Note_on_c, 0, 69, 0
1, 200131, Note_on_c, 0, 81, 63
1, 200589, Note_on_c, 0, 74, 30
1, 200589, Note_on_c, 0, 72, 25
1, 200647, Note_on_c, 0, 72, 0
1, 200647, Note_on_c, 0, 74, 0
1, 200742, Note_on_c, 0, 81, 0
1, 200742, Note_on_c, 0, 84, 45
1, 200742, Note_on_c, 0, 74, 30
1, 200745, Note_on_c, 0, 72, 25
1, 200799, Note_on_c, 0, 84, 0
1, 200799, Note_on_c, 0, 72, 0
1, 200799, Note_on_c, 0, 74, 0
1, 200893, Note_on_c, 0, 83, 43
1, 200893, Note_on_c, 0, 72, 25
1, 200893, Note_on_c, 0, 74, 30
1, 200950, Note_on_c, 0, 83, 0
1, 200950, Note_on_c, 0, 74, 0
1, 200950, Note_on_c, 0, 72, 0
1, 201044, Note_on_c, 0, 81, 41
1, 201044, Note_on_c, 0, 72, 25
1, 201044, Note_on_c, 0, 74, 30
1, 201100, Note_on_c, 0, 81, 0
1, 201100, Note_on_c, 0, 74, 0
1, 201100, Note_on_c, 0, 72, 0
1, 201195, Note_on_c, 0, 79, 39
1, 201195, Note_on_c, 0, 72, 25
1, 201195, Note_on_c, 0, 74, 30
1, 201252, Note_on_c, 0, 79, 0
1, 201252, Note_on_c, 0, 74, 0
1, 201252, Note_on_c, 0, 72, 0
1, 201348, Note_on_c, 0, 78, 37
1, 201348, Note_on_c, 0, 74, 30
1, 201348, Note_on_c, 0, 72, 25
1, 201410, Note_on_c, 0, 78, 0
1, 201410, Note_on_c, 0, 72, 0
1, 201410, Note_on_c, 0, 74, 0
1, 201514, Note_on_c, 0, 81, 35
1, 201514, Note_on_c, 0, 74, 35
1, 201514, Note_on_c, 0, 71, 29
1, 201974, Note_on_c, 0, 81, 0
1, 201974, Note_on_c, 0, 79, 35
1, 202137, Note_on_c, 0, 79, 0
1, 202137, Note_on_c, 0, 59, 61
1, 202137, Note_on_c, 0, 71, 0
1, 202140, Note_on_c, 0, 74, 0
1, 202140, Note_on_c, 0, 35, 44
1, 202140, Note_on_c, 0, 47, 44
1, 202193, Note_on_c, 0, 59, 0
1, 202193, Note_on_c, 0, 47, 0
1, 202193, Note_on_c, 0, 35, 0
1, 202287, Note_on_c, 0, 59, 62
1, 202287, Note_on_c, 0, 35, 44
1, 202287, Note_on_c, 0, 47, 44
1, 202346, Note_on_c, 0, 59, 0
1, 202346, Note_on_c, 0, 47, 0
1, 202346, Note_on_c, 0, 35, 0
1, 202365, Note_on_c, 0, 59, 40
1, 202391, Note_on_c, 0, 59, 0
1, 202391, Note_on_c, 0, 57, 40
1, 202417, Note_on_c, 0, 57, 0
1, 202417, Note_on_c, 0, 56, 40
1, 202443, Note_on_c, 0, 56, 0
1, 202443, Note_on_c, 0, 57, 69
1, 202443, Note_on_c, 0, 33, 52
1, 202446, Note_on_c, 0, 45, 52
1, 202748, Note_on_c, 0, 57, 0
1, 202748, Note_on_c, 0, 57, 60
1, 202748, Note_on_c, 0, 45, 0
1, 202751, Note_on_c, 0, 33, 0
1, 202751, Note_on_c, 0, 45, 44
1, 202751, Note_on_c, 0, 33, 44
1, 202806, Note_on_c, 0, 57, 0
1, 202806, Note_on_c, 0, 33, 0
1, 202806, Note_on_c, 0, 45, 0
1, 202825, Note_on_c, 0, 57, 40
1, 202850, Note_on_c, 0, 57, 0
1, 202850, Note_on_c, 0, 55, 40
1, 202876, Note_on_c, 0, 55, 0
1, 202876, Note_on_c, 0, 54, 40
1, 202901, Note_on_c, 0, 54, 0
1, 202901, Note_on_c, 0, 55, 64
1, 202901, Note_on_c, 0, 31, 44
1, 202904, Note_on_c, 0, 43, 44
1, 203207, Note_on_c, 0, 55, 0
1, 203207, Note_on_c, 0, 55, 59
1, 203207, Note_on_c, 0, 43, 0
1, 203210, Note_on_c, 0, 31, 0
1, 203210, Note_on_c, 0, 31, 44
1, 203210, Note_on_c, 0, 43, 44
1, 203266, Note_on_c, 0, 55, 0
1, 203266, Note_on_c, 0, 43, 0
1, 203266, Note_on_c, 0, 31, 0
1, 203363, Note_on_c, 0, 54, 66
1, 203363, Note_on_c, 0, 42, 52
1, 203363, Note_on_c, 0, 30, 52
1, 203669, Note_on_c, 0, 54, 0
1, 203669, Note_on_c, 0, 30, 0
1, 203669, Note_on_c, 0, 42, 0
1, 203746, Note_on_c, 0, 74, 54
1, 203822, Note_on_c, 0, 74, 0
1, 203822, Note_on_c, 0, 84, 63
1, 204280, Note_on_c, 0, 54, 40
1, 204280, Control_c, 0, 64, 127
1, 204357, Note_on_c, 0, 84, 0
1, 204357, Note_on_c, 0, 83, 53
1, 204433, Note_on_c, 0, 83, 0
1, 204433, Note_on_c, 0, 81, 53
1, 204433, Note_on_c, 0, 57, 30
1, 204442, Control_c, 0, 64, 0
1, 204491, Control_c, 0, 64, 127
1, 204510, Note_on_c, 0, 81, 0
1, 204510, Note_on_c, 0, 79, 52
1, 204586, Note_on_c, 0, 79, 0
1, 204586, Note_on_c, 0, 78, 51
1, 204586, Note_on_c, 0, 57, 0
1, 204589, Note_on_c, 0, 62, 26
1, 204592, Control_c, 0, 64, 0
1, 204615, Control_c, 0, 64, 127
1, 204662, Note_on_c, 0, 78, 0
1, 204662, Note_on_c, 0, 76, 51
1, 204740, Note_on_c, 0, 76, 0
1, 204740, Note_on_c, 0, 74, 54
1, 204740, Note_on_c, 0, 62, 0
1, 204743, Note_on_c, 0, 54, 0
1, 204743, Note_on_c, 0, 54, 40
1, 204743, Control_c, 0, 64, 0
1, 204802, Control_c, 0, 64, 127
1, 204817, Note_on_c, 0, 74, 0
1, 204817, Note_on_c, 0, 76, 49
1, 204893, Note_on_c, 0, 76, 0
1, 204893, Note_on_c, 0, 74, 50
1, 204893, Note_on_c, 0, 57, 30
1, 204900, Control_c, 0, 64, 0
1, 204947, Control_c, 0, 64, 127
1, 204970, Note_on_c, 0, 74, 0
1, 204970, Note_on_c, 0, 72, 49
1, 205046, Note_on_c, 0, 72, 0
1, 205046, Note_on_c, 0, 71, 48
1, 205046, Note_on_c, 0, 57, 0
1, 205049, Note_on_c, 0, 62, 27
1, 205052, Control_c, 0, 64, 0
1, 205089, Control_c, 0, 64, 127
1, 205123, Note_on_c, 0, 71, 0
1, 205123, Note_on_c, 0, 69, 47
1, 205203, Note_on_c, 0, 69, 0
1, 205203, Note_on_c, 0, 71, 47
1, 205203, Note_on_c, 0, 62, 0
1, 205206, Note_on_c, 0, 54, 0
1, 205206, Note_on_c, 0, 55, 40
1, 205206, Control_c, 0, 64, 0
1, 205239, Control_c, 0, 64, 127
1, 205280, Note_on_c, 0, 71, 0
1, 205280, Note_on_c, 0, 74, 47
1, 205356, Note_on_c, 0, 74, 0
1, 205356, Note_on_c, 0, 76, 48
1, 205356, Note_on_c, 0, 59, 33
1, 205363, Control_c, 0, 64, 0
1, 205425, Control_c, 0, 64, 127
1, 205433, Note_on_c, 0, 76, 0
1, 205433, Note_on_c, 0, 78, 50
1, 205509, Note_on_c, 0, 78, 0
1, 205509, Note_on_c, 0, 79, 52
1, 205509, Note_on_c, 0, 59, 0
1, 205512, Note_on_c, 0, 62, 36
1, 205512, Control_c, 0, 64, 0
1, 205553, Control_c, 0, 64, 127
1, 205586, Note_on_c, 0, 79, 0
1, 205586, Note_on_c, 0, 81, 53
1, 205664, Note_on_c, 0, 81, 0
1, 205664, Note_on_c, 0, 83, 55
1, 205664, Note_on_c, 0, 62, 0
1, 205667, Note_on_c, 0, 55, 0
1, 205667, Note_on_c, 0, 55, 40
1, 205671, Control_c, 0, 64, 0
1, 205708, Control_c, 0, 64, 127
1, 205741, Note_on_c, 0, 83, 0
1, 205741, Note_on_c, 0, 84, 57
1, 205817, Note_on_c, 0, 84, 0
1, 205817, Note_on_c, 0, 86, 61
1, 205817, Note_on_c, 0, 59, 33
1, 205825, Control_c, 0, 64, 0
1, 205864, Control_c, 0, 64, 127
1, 205894, Note_on_c, 0, 86, 0
1, 205894, Note_on_c, 0, 83, 57
1, 205971, Note_on_c, 0, 83, 0
1, 205971, Note_on_c, 0, 81, 57
1, 205971, Note_on_c, 0, 59, 0
1, 205974, Note_on_c, 0, 62, 33
1, 205978, Control_c, 0, 64, 0
1, 206029, Control_c, 0, 64, 127
1, 206047, Note_on_c, 0, 81, 0
1, 206047, Note_on_c, 0, 79, 53
1, 206127, Note_on_c, 0, 79, 0
1, 206127, Note_on_c, 0, 84, 62
1, 206127, Note_on_c, 0, 62, 0
1, 206130, Note_on_c, 0, 55, 0
1, 206130, Note_on_c, 0, 54, 40
1, 206134, Control_c, 0, 64, 0
1, 206178, Control_c, 0, 64, 127
1, 206203, Note_on_c, 0, 84, 0
1, 206203, Note_on_c, 0, 83, 60
1, 206280, Note_on_c, 0, 83, 0
1, 206280, Note_on_c, 0, 81, 58
1, 206280, Note_on_c, 0, 57, 34
1, 206284, Control_c, 0, 64, 0
1, 206334, Control_c, 0, 64, 127
1, 206356, Note_on_c, 0, 81, 0
1, 206356, Note_on_c, 0, 79, 57
1, 206433, Note_on_c, 0, 79, 0
1, 206433, Note_on_c, 0, 78, 55
1, 206433, Note_on_c, 0, 57, 0
1, 206436, Note_on_c, 0, 62, 31
1, 206444, Control_c, 0, 64, 0
1, 206484, Control_c, 0, 64, 127
1, 206510, Note_on_c, 0, 78, 0
1, 206510, Note_on_c, 0, 76, 53
1, 206589, Note_on_c, 0, 76, 0
1, 206589, Note_on_c, 0, 74, 59
1, 206589, Note_on_c, 0, 62, 0
1, 206592, Note_on_c, 0, 54, 0
1, 206592, Note_on_c, 0, 54, 40
1, 206592, Control_c, 0, 64, 0
1, 206629, Control_c, 0, 64, 127
1, 206665, Note_on_c, 0, 74, 0
1, 206665, Note_on_c, 0, 76, 58
1, 206742, Note_on_c, 0, 76, 0
1, 206742, Note_on_c, 0, 74, 56
1, 206742, Note_on_c, 0, 57, 33
1, 206751, Control_c, 0, 64, 0
1, 206785, Control_c, 0, 64, 127
1, 206819, Note_on_c, 0, 74, 0
1, 206819, Note_on_c, 0, 72, 55
1, 206895, Note_on_c, 0, 72, 0
1, 206895, Note_on_c, 0, 71, 53
1, 206895, Note_on_c, 0, 57, 0
1, 206898, Note_on_c, 0, 62, 28
1, 206903, Control_c, 0, 64, 0
1, 206932, Control_c, 0, 64, 127
1, 206972, Note_on_c, 0, 71, 0
1, 206972, Note_on_c, 0, 69, 52
1, 207052, Note_on_c, 0, 69, 0
1, 207052, Note_on_c, 0, 71, 48
1, 207052, Note_on_c, 0, 62, 0
1, 207055, Note_on_c, 0, 54, 0
1, 207055, Note_on_c, 0, 55, 40
1, 207055, Control_c, 0, 64, 0
1, 207084, Control_c, 0, 64, 127
1, 207129, Note_on_c, 0, 71, 0
1, 207129, Note_on_c, 0, 74, 50
1, 207205, Note_on_c, 0, 74, 0
1, 207205, Note_on_c, 0, 76, 51
1, 207205, Note_on_c, 0, 59, 34
1, 207211, Control_c, 0, 64, 0
1, 207256, Control_c, 0, 64, 127
1, 207281, Note_on_c, 0, 76, 0
1, 207281, Note_on_c, 0, 78, 52
1, 207357, Note_on_c, 0, 78, 0
1, 207357, Note_on_c, 0, 79, 54
1, 207357, Note_on_c, 0, 59, 0
1, 207360, Note_on_c, 0, 62, 37
1, 207360, Control_c, 0, 64, 0
1, 207404, Control_c, 0, 64, 127
1, 207433, Note_on_c, 0, 79, 0
1, 207433, Note_on_c, 0, 81, 55
1, 207511, Note_on_c, 0, 81, 0
1, 207511, Note_on_c, 0, 83, 56
1, 207511, Note_on_c, 0, 62, 0
1, 207514, Note_on_c, 0, 55, 0
1, 207514, Note_on_c, 0, 55, 40
1, 207518, Control_c, 0, 64, 0
1, 207552, Control_c, 0, 64, 127
1, 207588, Note_on_c, 0, 83, 0
1, 207588, Note_on_c, 0, 84, 58
1, 207664, Note_on_c, 0, 84, 0
1, 207664, Note_on_c, 0, 86, 60
1, 207664, Note_on_c, 0, 59, 34
1, 207671, Control_c, 0, 64, 0
1, 207705, Control_c, 0, 64, 127
1, 207741, Note_on_c, 0, 86, 0
1, 207741, Note_on_c, 0, 83, 52
1, 207817, Note_on_c, 0, 83, 0
1, 207817, Note_on_c, 0, 81, 51
1, 207817, Note_on_c, 0, 59, 0
1, 207820, Note_on_c, 0, 62, 34
1, 207820, Control_c, 0, 64, 0
1, 207873, Control_c, 0, 64, 127
1, 207897, Note_on_c, 0, 81, 0
1, 207897, Note_on_c, 0, 79, 47
1, 207986, Note_on_c, 0, 79, 0
1, 207986, Note_on_c, 0, 81, 53
1, 207986, Note_on_c, 0, 62, 0
1, 207989, Note_on_c, 0, 55, 0
1, 207989, Note_on_c, 0, 51, 40
1, 207989, Control_c, 0, 64, 0
1, 208055, Control_c, 0, 64, 127
1, 208066, Note_on_c, 0, 81, 0
1, 208066, Note_on_c, 0, 79, 51
1, 208143, Note_on_c, 0, 79, 0
1, 208143, Note_on_c, 0, 78, 51
1, 208143, Note_on_c, 0, 54, 33
1, 208147, Control_c, 0, 64, 0
1, 208179, Control_c, 0, 64, 127
1, 208219, Note_on_c, 0, 78, 0
1, 208219, Note_on_c, 0, 76, 50
1, 208295, Note_on_c, 0, 76, 0
1, 208295, Note_on_c, 0, 75, 49
1, 208295, Note_on_c, 0, 54, 0
1, 208298, Note_on_c, 0, 59, 30
1, 208304, Control_c, 0, 64, 0
1, 208328, Control_c, 0, 64, 127
1, 208372, Note_on_c, 0, 75, 0
1, 208372, Note_on_c, 0, 72, 48
1, 208452, Note_on_c, 0, 72, 0
1, 208452, Note_on_c, 0, 71, 52
1, 208452, Note_on_c, 0, 59, 0
1, 208455, Note_on_c, 0, 51, 0
1, 208455, Note_on_c, 0, 51, 40
1, 208460, Control_c, 0, 64, 0
1, 208518, Control_c, 0, 64, 127
1, 208529, Note_on_c, 0, 71, 0
1, 208529, Note_on_c, 0, 72, 52
1, 208606, Note_on_c, 0, 72, 0
1, 208606, Note_on_c, 0, 71, 51
1, 208606, Note_on_c, 0, 54, 34
1, 208613, Control_c, 0, 64, 0
1, 208667, Control_c, 0, 64, 127
1, 208682, Note_on_c, 0, 71, 0
1, 208682, Note_on_c, 0, 69, 51
1, 208758, Note_on_c, 0, 69, 0
1, 208758, Note_on_c, 0, 67, 50
1, 208758, Note_on_c, 0, 54, 0
1, 208761, Note_on_c, 0, 59, 32
1, 208764, Control_c, 0, 64, 0
1, 208794, Control_c, 0, 64, 127
1, 208834, Note_on_c, 0, 67, 0
1, 208834, Note_on_c, 0, 66, 50
1, 208914, Note_on_c, 0, 66, 0
1, 208914, Note_on_c, 0, 67, 56
1, 208914, Note_on_c, 0, 59, 0
1, 208917, Note_on_c, 0, 51, 0
1, 208917, Note_on_c, 0, 52, 40
1, 208917, Control_c, 0, 64, 0
1, 208954, Control_c, 0, 64, 127
1, 208991, Note_on_c, 0, 67, 0
1, 208991, Note_on_c, 0, 71, 50
1, 209067, Note_on_c, 0, 71, 0
1, 209067, Note_on_c, 0, 73, 52
1, 209067, Note_on_c, 0, 55, 33
1, 209075, Control_c, 0, 64, 0
1, 209107, Control_c, 0, 64, 127
1, 209143, Note_on_c, 0, 73, 0
1, 209143, Note_on_c, 0, 75, 53
1, 209220, Note_on_c, 0, 75, 0
1, 209220, Note_on_c, 0, 76, 55
1, 209220, Note_on_c, 0, 55, 0
1, 209223, Note_on_c, 0, 59, 30
1, 209223, Control_c, 0, 64, 0
1, 209260, Control_c, 0, 64, 127
1, 209296, Note_on_c, 0, 76, 0
1, 209296, Note_on_c, 0, 78, 57
1, 209376, Note_on_c, 0, 78, 0
1, 209376, Note_on_c, 0, 79, 62
1, 209376, Note_on_c, 0, 59, 0
1, 209379, Note_on_c, 0, 52, 0
1, 209379, Note_on_c, 0, 52, 40
1, 209383, Control_c, 0, 64, 0
1, 209441, Control_c, 0, 64, 127
1, 209452, Note_on_c, 0, 79, 0
1, 209452, Note_on_c, 0, 81, 57
1, 209528, Note_on_c, 0, 81, 0
1, 209528, Note_on_c, 0, 83, 56
1, 209528, Note_on_c, 0, 55, 34
1, 209534, Control_c, 0, 64, 0
1, 209571, Control_c, 0, 64, 127
1, 209605, Note_on_c, 0, 83, 0
1, 209605, Note_on_c, 0, 81, 54
1, 209681, Note_on_c, 0, 81, 0
1, 209681, Note_on_c, 0, 79, 53
1, 209681, Note_on_c, 0, 55, 0
1, 209684, Note_on_c, 0, 59, 32
1, 209690, Control_c, 0, 64, 0
1, 209735, Control_c, 0, 64, 127
1, 209757, Note_on_c, 0, 79, 0
1, 209757, Note_on_c, 0, 78, 52
1, 209836, Note_on_c, 0, 78, 0
1, 209836, Note_on_c, 0, 79, 63
1, 209836, Note_on_c, 0, 59, 0
1, 209839, Note_on_c, 0, 52, 0
1, 209839, Note_on_c, 0, 49, 40
1, 209839, Control_c, 0, 64, 0
1, 209902, Control_c, 0, 64, 127
1, 209913, Note_on_c, 0, 79, 0
1, 209913, Note_on_c, 0, 78, 61
1, 209989, Note_on_c, 0, 78, 0
1, 209989, Note_on_c, 0, 76, 59
1, 209989, Note_on_c, 0, 52, 33
1, 209994, Control_c, 0, 64, 0
1, 210025, Control_c, 0, 64, 127
1, 210065, Note_on_c, 0, 76, 0
1, 210065, Note_on_c, 0, 74, 58
1, 210141, Note_on_c, 0, 74, 0
1, 210141, Note_on_c, 0, 73, 56
1, 210141, Note_on_c, 0, 52, 0
1, 210144, Note_on_c, 0, 57, 30
1, 210150, Control_c, 0, 64, 0
1, 210174, Control_c, 0, 64, 127
1, 210218, Note_on_c, 0, 73, 0
1, 210218, Note_on_c, 0, 71, 54
1, 210298, Note_on_c, 0, 71, 0
1, 210298, Note_on_c, 0, 69, 60
1, 210298, Note_on_c, 0, 57, 0
1, 210301, Note_on_c, 0, 49, 0
1, 210301, Note_on_c, 0, 49, 40
1, 210305, Control_c, 0, 64, 0
1, 210363, Control_c, 0, 64, 127
1, 210374, Note_on_c, 0, 69, 0
1, 210374, Note_on_c, 0, 71, 58
1, 210451, Note_on_c, 0, 71, 0
1, 210451, Note_on_c, 0, 69, 56
1, 210451, Note_on_c, 0, 52, 34
1, 210458, Control_c, 0, 64, 0
1, 210512, Control_c, 0, 64, 127
1, 210526, Note_on_c, 0, 69, 0
1, 210526, Note_on_c, 0, 67, 55
1, 210603, Note_on_c, 0, 67, 0
1, 210603, Note_on_c, 0, 66, 54
1, 210603, Note_on_c, 0, 52, 0
1, 210606, Note_on_c, 0, 57, 32
1, 210609, Control_c, 0, 64, 0
1, 210639, Control_c, 0, 64, 127
1, 210679, Note_on_c, 0, 66, 0
1, 210679, Note_on_c, 0, 64, 52
1, 210758, Note_on_c, 0, 64, 0
1, 210758, Note_on_c, 0, 66, 56
1, 210758, Note_on_c, 0, 57, 0
1, 210761, Note_on_c, 0, 49, 0
1, 210761, Note_on_c, 0, 50, 40
1, 210761, Control_c, 0, 64, 0
1, 210799, Control_c, 0, 64, 127
1, 210836, Note_on_c, 0, 66, 0
1, 210836, Note_on_c, 0, 69, 50
1, 210912, Note_on_c, 0, 69, 0
1, 210912, Note_on_c, 0, 71, 52
1, 210912, Note_on_c, 0, 54, 33
1, 210920, Control_c, 0, 64, 0
1, 210952, Control_c, 0, 64, 127
1, 210989, Note_on_c, 0, 71, 0
1, 210989, Note_on_c, 0, 73, 53
1, 211065, Note_on_c, 0, 73, 0
1, 211065, Note_on_c, 0, 74, 55
1, 211065, Note_on_c, 0, 54, 0
1, 211068, Note_on_c, 0, 57, 30
1, 211068, Control_c, 0, 64, 0
1, 211106, Control_c, 0, 64, 127
1, 211142, Note_on_c, 0, 74, 0
1, 211142, Note_on_c, 0, 76, 57
1, 211222, Note_on_c, 0, 76, 0
1, 211222, Note_on_c, 0, 78, 62
1, 211222, Note_on_c, 0, 57, 0
1, 211225, Note_on_c, 0, 50, 0
1, 211225, Note_on_c, 0, 50, 40
1, 211230, Control_c, 0, 64, 0
1, 211288, Control_c, 0, 64, 127
1, 211299, Note_on_c, 0, 78, 0
1, 211299, Note_on_c, 0, 79, 57
1, 211376, Note_on_c, 0, 79, 0
1, 211376, Note_on_c, 0, 81, 56
1, 211376, Note_on_c, 0, 54, 34
1, 211382, Control_c, 0, 64, 0
1, 211420, Control_c, 0, 64, 127
1, 211453, Note_on_c, 0, 81, 0
1, 211453, Note_on_c, 0, 83, 54
1, 211529, Note_on_c, 0, 83, 0
1, 211529, Note_on_c, 0, 85, 53
1, 211529, Note_on_c, 0, 54, 0
1, 211532, Note_on_c, 0, 57, 32
1, 211539, Control_c, 0, 64, 0
1, 211583, Control_c, 0, 64, 127
1, 211606, Note_on_c, 0, 85, 0
1, 211606, Note_on_c, 0, 86, 52
1, 211685, Note_on_c, 0, 86, 0
1, 211685, Note_on_c, 0, 83, 60
1, 211685, Note_on_c, 0, 57, 0
1, 211688, Note_on_c, 0, 50, 0
1, 211688, Note_on_c, 0, 55, 46
1, 211688, Control_c, 0, 64, 0
1, 211730, Control_c, 0, 64, 127
1, 211765, Note_on_c, 0, 83, 0
1, 211765, Note_on_c, 0, 81, 59
1, 211845, Note_on_c, 0, 81, 0
1, 211845, Note_on_c, 0, 79, 57
1, 211851, Control_c, 0, 64, 0
1, 211886, Control_c, 0, 64, 127
1, 211924, Note_on_c, 0, 79, 0
1, 211924, Note_on_c, 0, 78, 56
1, 212004, Note_on_c, 0, 78, 0
1, 212004, Note_on_c, 0, 76, 55
1, 212004, Note_on_c, 0, 55, 0
1, 212011, Control_c, 0, 64, 0
1, 212046, Control_c, 0, 64, 127
1, 212084, Note_on_c, 0, 76, 0
1, 212084, Note_on_c, 0, 74, 53
1, 212163, Note_on_c, 0, 74, 0
1, 212163, Note_on_c, 0, 79, 52
1, 212163, Note_on_c, 0, 67, 45
1, 212171, Control_c, 0, 64, 0
1, 212215, Control_c, 0, 64, 127
1, 212240, Note_on_c, 0, 79, 0
1, 212240, Note_on_c, 0, 78, 54
1, 212240, Note_on_c, 0, 67, 0
1, 212243, Note_on_c, 0, 66, 42
1, 212317, Note_on_c, 0, 78, 0
1, 212317, Note_on_c, 0, 76, 57
1, 212317, Note_on_c, 0, 66, 0
1, 212320, Note_on_c, 0, 64, 43
1, 212323, Control_c, 0, 64, 0
1, 212357, Control_c, 0, 64, 127
1, 212392, Note_on_c, 0, 76, 0
1, 212392, Note_on_c, 0, 74, 60
1, 212392, Note_on_c, 0, 64, 0
1, 212395, Note_on_c, 0, 62, 46
1, 212467, Note_on_c, 0, 74, 0
1, 212467, Note_on_c, 0, 73, 64
1, 212467, Note_on_c, 0, 62, 0
1, 212470, Note_on_c, 0, 61, 48
1, 212543, Note_on_c, 0, 73, 0
1, 212543, Note_on_c, 0, 71, 67
1, 212543, Note_on_c, 0, 61, 0
1, 212546, Note_on_c, 0, 59, 51
1, 212621, Note_on_c, 0, 71, 0
1, 212621, Note_on_c, 0, 69, 70
1, 212621, Note_on_c, 0, 59, 0
1, 212624, Note_on_c, 0, 57, 54
1, 212624, Control_c, 0, 64, 0
1, 212684, Note_on_c, 0, 69, 0
1, 212684, Note_on_c, 0, 57, 0
1, 212788, Note_on_c, 0, 76, 52
1, 212788, Note_on_c, 0, 73, 52
1, 212788, Note_on_c, 0, 81, 62
1, 212791, Note_on_c, 0, 45, 42
1, 212791, Note_on_c, 0, 57, 50
1, 212846, Note_on_c, 0, 81, 0
1, 212846, Note_on_c, 0, 73, 0
1, 212846, Note_on_c, 0, 76, 0
1, 212849, Note_on_c, 0, 57, 0
1, 212849, Note_on_c, 0, 45, 0
1, 212943, Note_on_c, 0, 73, 52
1, 212943, Note_on_c, 0, 76, 52
1, 212943, Note_on_c, 0, 81, 62
1, 212946, Note_on_c, 0, 45, 42
1, 212946, Note_on_c, 0, 57, 50
1, 213003, Note_on_c, 0, 81, 0
1, 213003, Note_on_c, 0, 76, 0
1, 213003, Note_on_c, 0, 73, 0
1, 213006, Note_on_c, 0, 57, 0
1, 213006, Note_on_c, 0, 45, 0
1, 213102, Note_on_c, 0, 76, 56
1, 213102, Note_on_c, 0, 81, 67
1, 213102, Note_on_c, 0, 73, 56
1, 213105, Note_on_c, 0, 45, 45
1, 213105, Note_on_c, 0, 57, 54
1, 213161, Note_on_c, 0, 73, 0
1, 213161, Note_on_c, 0, 81, 0
1, 213161, Note_on_c, 0, 76, 0
1, 213164, Note_on_c, 0, 57, 0
1, 213164, Note_on_c, 0, 45, 0
1, 213572, Note_on_c, 0, 69, 42
1, 213572, Note_on_c, 0, 78, 50
1, 214055, Note_on_c, 0, 78, 0
1, 214055, Note_on_c, 0, 69, 0
1, 214055, Note_on_c, 0, 67, 39
1, 214058, Note_on_c, 0, 76, 47
1, 214216, Note_on_c, 0, 76, 0
1, 214216, Note_on_c, 0, 78, 44
1, 214376, Note_on_c, 0, 78, 0
1, 214376, Note_on_c, 0, 76, 44
1, 214542, Note_on_c, 0, 76, 0
1, 214542, Note_on_c, 0, 67, 0
1, 214542, Note_on_c, 0, 66, 42
1, 214545, Note_on_c, 0, 74, 50
1, 214545, Note_on_c, 0, 62, 41
1, 215025, Note_on_c, 0, 62, 0
1, 215025, Note_on_c, 0, 61, 46
1, 215186, Note_on_c, 0, 61, 0
1, 215186, Note_on_c, 0, 62, 44
1, 215346, Note_on_c, 0, 62, 0
1, 215346, Note_on_c, 0, 61, 44
1, 215510, Note_on_c, 0, 61, 0
1, 215510, Note_on_c, 0, 59, 51
1, 215832, Note_on_c, 0, 74, 0
1, 215832, Note_on_c, 0, 66, 0
1, 215832, Note_on_c, 0, 78, 50
1, 215992, Note_on_c, 0, 78, 0
1, 215992, Note_on_c, 0, 79, 50
1, 215992, Note_on_c, 0, 74, 42
1, 216314, Note_on_c, 0, 79, 0
1, 216314, Note_on_c, 0, 83, 54
1, 216314, Note_on_c, 0, 59, 0
1, 216317, Note_on_c, 0, 55, 36
1, 216478, Note_on_c, 0, 83, 0
1, 216478, Note_on_c, 0, 74, 0
1, 216478, Note_on_c, 0, 73, 45
1, 216481, Note_on_c, 0, 81, 53
1, 216481, Note_on_c, 0, 55, 0
1, 216481, Note_on_c, 0, 57, 41
1, 216638, Note_on_c, 0, 73, 0
1, 216638, Note_on_c, 0, 74, 50
1, 216638, Note_on_c, 0, 57, 0
1, 216641, Note_on_c, 0, 59, 37
1, 216799, Note_on_c, 0, 74, 0
1, 216799, Note_on_c, 0, 81, 0
1, 216799, Note_on_c, 0, 79, 50
1, 216802, Note_on_c, 0, 76, 42
1, 216802, Note_on_c, 0, 59, 0
1, 216802, Note_on_c, 0, 61, 37
1, 216962, Note_on_c, 0, 76, 0
1, 216962, Note_on_c, 0, 79, 0
1, 216962, Note_on_c, 0, 78, 54
1, 216965, Note_on_c, 0, 74, 45
1, 216965, Note_on_c, 0, 61, 0
1, 216965, Note_on_c, 0, 62, 42
1, 217123, Note_on_c, 0, 62, 0
1, 217123, Note_on_c, 0, 64, 38
1, 217284, Note_on_c, 0, 74, 0
1, 217284, Note_on_c, 0, 78, 0
1, 217284, Note_on_c, 0, 64, 0
1, 217287, Note_on_c, 0, 66, 38
1, 217452, Note_on_c, 0, 76, 50
1, 217452, Note_on_c, 0, 66, 0
1, 217452, Note_on_c, 0, 67, 42
1, 217455, Note_on_c, 0, 71, 35
1, 217455, Note_on_c, 0, 74, 35
1, 217935, Note_on_c, 0, 67, 0
1, 217935, Note_on_c, 0, 68, 42
1, 218096, Note_on_c, 0, 76, 0
1, 218096, Note_on_c, 0, 78, 44
1, 218256, Note_on_c, 0, 78, 0
1, 218256, Note_on_c, 0, 76, 44
1, 218422, Note_on_c, 0, 76, 0
1, 218422, Note_on_c, 0, 76, 50
1, 218422, Note_on_c, 0, 68, 0
1, 218425, Note_on_c, 0, 74, 0
1, 218425, Note_on_c, 0, 71, 0
1, 218425, Note_on_c, 0, 73, 35
1, 218428, Note_on_c, 0, 69, 42
1, 218905, Note_on_c, 0, 69, 0
1, 218905, Note_on_c, 0, 73, 0
1, 218905, Note_on_c, 0, 69, 35
1, 218908, Note_on_c, 0, 73, 35
1, 218908, Note_on_c, 0, 67, 42
1, 219066, Note_on_c, 0, 76, 0
1, 219066, Note_on_c, 0, 78, 45
1, 219226, Note_on_c, 0, 78, 0
1, 219226, Note_on_c, 0, 79, 46
1, 219394, Note_on_c, 0, 79, 0
1, 219394, Note_on_c, 0, 81, 52
1, 219394, Note_on_c, 0, 67, 0
1, 219397, Note_on_c, 0, 73, 0
1, 219397, Note_on_c, 0, 69, 0
1, 219397, Note_on_c, 0, 74, 35
1, 219400, Note_on_c, 0, 69, 29
1, 219400, Note_on_c, 0, 66, 29
1, 219560, Note_on_c, 0, 81, 0
1, 219560, Note_on_c, 0, 86, 49
1, 219560, Note_on_c, 0, 66, 0
1, 219563, Note_on_c, 0, 69, 0
1, 219563, Note_on_c, 0, 74, 0
1, 219682, Note_on_c, 0, 86, 0
1, 219722, Note_on_c, 0, 85, 48
1, 219845, Note_on_c, 0, 85, 0
1, 219887, Note_on_c, 0, 83, 49
1, 219887, Note_on_c, 0, 67, 35
1, 220008, Note_on_c, 0, 83, 0
1, 220049, Note_on_c, 0, 81, 48
1, 220170, Note_on_c, 0, 81, 0
1, 220211, Note_on_c, 0, 79, 46
1, 220211, Note_on_c, 0, 67, 0
1, 220211, Note_on_c, 0, 62, 31
1, 220214, Note_on_c, 0, 59, 26
1, 220342, Note_on_c, 0, 79, 0
1, 220385, Note_on_c, 0, 78, 45
1, 220385, Note_on_c, 0, 59, 0
1, 220385, Note_on_c, 0, 62, 0
1, 220388, Note_on_c, 0, 62, 36
1, 220388, Note_on_c, 0, 57, 30
1, 220725, Note_on_c, 0, 78, 0
1, 220725, Note_on_c, 0, 79, 42
1, 220813, Note_on_c, 0, 79, 0
1, 220813, Note_on_c, 0, 78, 43
1, 220905, Note_on_c, 0, 78, 0
1, 220905, Note_on_c, 0, 76, 37
1, 220905, Note_on_c, 0, 62, 0
1, 220908, Note_on_c, 0, 61, 32
1, 221081, Note_on_c, 0, 76, 0
1, 221081, Note_on_c, 0, 61, 0
1, 221081, Note_on_c, 0, 57, 0
1, 221433, Note_on_c, 0, 69, 42
1, 221433, Note_on_c, 0, 78, 50
1, 221916, Note_on_c, 0, 78, 0
1, 221916, Note_on_c, 0, 69, 0
1, 221916, Note_on_c, 0, 76, 47
1, 221919, Note_on_c, 0, 67, 39
1, 222077, Note_on_c, 0, 76, 0
1, 222077, Note_on_c, 0, 78, 44
1, 222237, Note_on_c, 0, 78, 0
1, 222237, Note_on_c, 0, 76, 44
1, 222403, Note_on_c, 0, 76, 0
1, 222403, Note_on_c, 0, 67, 0
1, 222403, Note_on_c, 0, 66, 42
1, 222406, Note_on_c, 0, 74, 50
1, 222406, Note_on_c, 0, 59, 41
1, 222886, Note_on_c, 0, 66, 0
1, 222886, Note_on_c, 0, 66, 42
1, 222886, Note_on_c, 0, 72, 42
1, 222889, Note_on_c, 0, 59, 0
1, 222889, Note_on_c, 0, 57, 46
1, 223047, Note_on_c, 0, 57, 0
1, 223047, Note_on_c, 0, 59, 44
1, 223207, Note_on_c, 0, 59, 0
1, 223207, Note_on_c, 0, 57, 44
1, 223371, Note_on_c, 0, 72, 0
1, 223371, Note_on_c, 0, 66, 0
1, 223371, Note_on_c, 0, 71, 42
1, 223374, Note_on_c, 0, 67, 42
1, 223374, Note_on_c, 0, 57, 0
1, 223374, Note_on_c, 0, 55, 51
1, 223693, Note_on_c, 0, 67, 0
1, 223693, Note_on_c, 0, 71, 0
1, 223693, Note_on_c, 0, 74, 0
1, 223696, Note_on_c, 0, 75, 50
1, 223696, Note_on_c, 0, 69, 50
1, 223696, Note_on_c, 0, 71, 50
1, 223699, Note_on_c, 0, 55, 0
1, 223699, Note_on_c, 0, 54, 36
1, 223853, Note_on_c, 0, 71, 0
1, 223853, Note_on_c, 0, 69, 0
1, 223853, Note_on_c, 0, 75, 0
1, 223856, Note_on_c, 0, 76, 50
1, 223856, Note_on_c, 0, 67, 42
1, 223856, Note_on_c, 0, 71, 42
1, 223859, Note_on_c, 0, 54, 0
1, 223859, Note_on_c, 0, 52, 51
1, 224175, Note_on_c, 0, 71, 0
1, 224175, Note_on_c, 0, 67, 0
1, 224175, Note_on_c, 0, 76, 0
1, 224178, Note_on_c, 0, 78, 54
1, 224178, Note_on_c, 0, 83, 54
1, 224178, Note_on_c, 0, 52, 0
1, 224181, Note_on_c, 0, 50, 36
1, 224339, Note_on_c, 0, 83, 0
1, 224339, Note_on_c, 0, 78, 0
1, 224339, Note_on_c, 0, 76, 45
1, 224342, Note_on_c, 0, 81, 53
1, 224342, Note_on_c, 0, 50, 0
1, 224342, Note_on_c, 0, 49, 41
1, 224660, Note_on_c, 0, 81, 0
1, 224660, Note_on_c, 0, 76, 0
1, 224660, Note_on_c, 0, 73, 42
1, 224663, Note_on_c, 0, 79, 50
1, 224663, Note_on_c, 0, 49, 0
1, 224663, Note_on_c, 0, 45, 37
1, 224823, Note_on_c, 0, 79, 0
1, 224823, Note_on_c, 0, 73, 0
1, 224823, Note_on_c, 0, 78, 54
1, 224826, Note_on_c, 0, 74, 45
1, 224826, Note_on_c, 0, 45, 0
1, 224826, Note_on_c, 0, 50, 42
1, 224984, Note_on_c, 0, 50, 0
1, 224984, Note_on_c, 0, 52, 38
1, 225145, Note_on_c, 0, 74, 0
1, 225145, Note_on_c, 0, 78, 0
1, 225145, Note_on_c, 0, 52, 0
1, 225148, Note_on_c, 0, 54, 38
1, 225309, Note_on_c, 0, 76, 50
1, 225309, Note_on_c, 0, 54, 0
1, 225309, Note_on_c, 0, 59, 35
1, 225312, Note_on_c, 0, 55, 42
1, 225312, Note_on_c, 0, 62, 35
1, 225473, Note_on_c, 0, 76, 0
1, 225473, Note_on_c, 0, 88, 55
1, 225553, Note_on_c, 0, 88, 0
1, 225634, Note_on_c, 0, 88, 55
1, 225714, Note_on_c, 0, 88, 0
1, 225795, Note_on_c, 0, 88, 59
1, 225795, Note_on_c, 0, 55, 0
1, 225795, Note_on_c, 0, 56, 42
1, 225875, Note_on_c, 0, 88, 0
1, 225956, Note_on_c, 0, 88, 53
1, 226036, Note_on_c, 0, 88, 0
1, 226116, Note_on_c, 0, 88, 53
1, 226199, Note_on_c, 0, 88, 0
1, 226281, Note_on_c, 0, 88, 60
1, 226281, Note_on_c, 0, 56, 0
1, 226281, Note_on_c, 0, 62, 0
1, 226284, Note_on_c, 0, 59, 0
1, 226284, Note_on_c, 0, 61, 35
1, 226284, Note_on_c, 0, 55, 42
1, 226287, Note_on_c, 0, 57, 42
1, 226443, Note_on_c, 0, 88, 0
1, 226443, Note_on_c, 0, 81, 53
1, 226523, Note_on_c, 0, 81, 0
1, 226604, Note_on_c, 0, 81, 53
1, 226684, Note_on_c, 0, 81, 0
1, 226765, Note_on_c, 0, 81, 62
1, 226765, Note_on_c, 0, 57, 0
1, 226765, Note_on_c, 0, 55, 0
1, 226768, Note_on_c, 0, 61, 0
1, 226768, Note_on_c, 0, 60, 35
1, 226768, Note_on_c, 0, 57, 35
1, 226771, Note_on_c, 0, 54, 42
1, 226845, Note_on_c, 0, 81, 0
1, 226926, Note_on_c, 0, 86, 56
1, 227006, Note_on_c, 0, 86, 0
1, 227086, Note_on_c, 0, 86, 56
1, 227169, Note_on_c, 0, 86, 0
1, 227251, Note_on_c, 0, 86, 57
1, 227251, Note_on_c, 0, 54, 0
1, 227251, Note_on_c, 0, 57, 0
1, 227254, Note_on_c, 0, 60, 0
1, 227254, Note_on_c, 0, 59, 42
1, 227254, Note_on_c, 0, 55, 35
1, 227334, Note_on_c, 0, 86, 0
1, 227334, Note_on_c, 0, 55, 0
1, 227334, Note_on_c, 0, 59, 0
1, 227417, Note_on_c, 0, 83, 53
1, 227417, Note_on_c, 0, 79, 45
1, 227498, Note_on_c, 0, 79, 0
1, 227498, Note_on_c, 0, 83, 0
1, 227579, Note_on_c, 0, 78, 45
1, 227579, Note_on_c, 0, 81, 54
1, 227662, Note_on_c, 0, 81, 0
1, 227662, Note_on_c, 0, 78, 0
1, 227744, Note_on_c, 0, 76, 47
1, 227744, Note_on_c, 0, 79, 56
1, 227744, Note_on_c, 0, 57, 47
1, 227824, Note_on_c, 0, 79, 0
1, 227824, Note_on_c, 0, 76, 0
1, 227824, Note_on_c, 0, 57, 0
1, 227904, Note_on_c, 0, 74, 49
1, 227904, Note_on_c, 0, 78, 58
1, 227985, Note_on_c, 0, 78, 0
1, 227985, Note_on_c, 0, 74, 0
1, 228066, Note_on_c, 0, 73, 50
1, 228066, Note_on_c, 0, 76, 59
1, 228154, Note_on_c, 0, 76, 0
1, 228154, Note_on_c, 0, 73, 0
1, 228241, Note_on_c, 0, 74, 65
1, 228241, Note_on_c, 0, 50, 60
1, 228276, Control_c, 0, 64, 127
1, 228317, Note_on_c, 0, 50, 0
1, 228317, Note_on_c, 0, 57, 44
1, 228394, Note_on_c, 0, 57, 0
1, 228394, Note_on_c, 0, 54, 44
1, 228471, Note_on_c, 0, 54, 0
1, 228471, Note_on_c, 0, 57, 44
1, 228547, Note_on_c, 0, 57, 0
1, 228547, Note_on_c, 0, 54, 44
1, 228624, Note_on_c, 0, 54, 0
1, 228624, Note_on_c, 0, 57, 44
1, 228703, Note_on_c, 0, 74, 0
1, 228703, Note_on_c, 0, 78, 65
1, 228703, Note_on_c, 0, 57, 0
1, 228706, Note_on_c, 0, 50, 55
1, 228706, Control_c, 0, 64, 0
1, 228771, Control_c, 0, 64, 127
1, 228780, Note_on_c, 0, 50, 0
1, 228780, Note_on_c, 0, 57, 48
1, 228857, Note_on_c, 0, 57, 0
1, 228857, Note_on_c, 0, 54, 45
1, 228933, Note_on_c, 0, 54, 0
1, 228933, Note_on_c, 0, 57, 43
1, 229010, Note_on_c, 0, 57, 0
1, 229010, Note_on_c, 0, 54, 43
1, 229087, Note_on_c, 0, 54, 0
1, 229087, Note_on_c, 0, 57, 43
1, 229169, Note_on_c, 0, 78, 0
1, 229169, Note_on_c, 0, 79, 67
1, 229169, Note_on_c, 0, 57, 0
1, 229172, Note_on_c, 0, 52, 60
1, 229182, Control_c, 0, 64, 0
1, 229231, Control_c, 0, 64, 127
1, 229246, Note_on_c, 0, 79, 0
1, 229246, Note_on_c, 0, 78, 65
1, 229246, Note_on_c, 0, 52, 0
1, 229249, Note_on_c, 0, 57, 44
1, 229323, Note_on_c, 0, 78, 0
1, 229323, Note_on_c, 0, 76, 64
1, 229323, Note_on_c, 0, 57, 0
1, 229326, Note_on_c, 0, 55, 44
1, 229399, Note_on_c, 0, 76, 0
1, 229399, Note_on_c, 0, 74, 63
1, 229399, Note_on_c, 0, 55, 0
1, 229402, Note_on_c, 0, 57, 44
1, 229476, Note_on_c, 0, 74, 0
1, 229476, Note_on_c, 0, 73, 61
1, 229476, Note_on_c, 0, 57, 0
1, 229479, Note_on_c, 0, 55, 44
1, 229553, Note_on_c, 0, 73, 0
1, 229553, Note_on_c, 0, 55, 0
1, 229553, Note_on_c, 0, 57, 44
1, 229556, Control_c, 0, 64, 0
1, 229633, Note_on_c, 0, 76, 65
1, 229633, Note_on_c, 0, 57, 0
1, 229633, Note_on_c, 0, 49, 55
1, 229643, Control_c, 0, 64, 127
1, 229709, Note_on_c, 0, 76, 0
1, 229709, Note_on_c, 0, 74, 64
1, 229709, Note_on_c, 0, 49, 0
1, 229712, Note_on_c, 0, 57, 42
1, 229786, Note_on_c, 0, 74, 0
1, 229786, Note_on_c, 0, 73, 62
1, 229786, Note_on_c, 0, 57, 0
1, 229789, Note_on_c, 0, 52, 42
1, 229863, Note_on_c, 0, 73, 0
1, 229863, Note_on_c, 0, 71, 61
1, 229863, Note_on_c, 0, 52, 0
1, 229866, Note_on_c, 0, 57, 42
1, 229939, Note_on_c, 0, 71, 0
1, 229939, Note_on_c, 0, 69, 60
1, 229939, Note_on_c, 0, 57, 0
1, 229942, Note_on_c, 0, 52, 42
1, 230016, Note_on_c, 0, 69, 0
1, 230016, Note_on_c, 0, 67, 58
1, 230016, Note_on_c, 0, 52, 0
1, 230019, Note_on_c, 0, 57, 42
1, 230098, Note_on_c, 0, 67, 0
1, 230098, Note_on_c, 0, 66, 61
1, 230098, Note_on_c, 0, 57, 0
1, 230101, Note_on_c, 0, 50, 51
1, 230101, Control_c, 0, 64, 0
1, 230174, Note_on_c, 0, 66, 0
1, 230174, Note_on_c, 0, 50, 0
1, 230174, Note_on_c, 0, 57, 39
1, 230251, Note_on_c, 0, 69, 49
1, 230251, Note_on_c, 0, 57, 0
1, 230251, Note_on_c, 0, 54, 39
1, 230329, Note_on_c, 0, 69, 0
1, 230329, Note_on_c, 0, 54, 0
1, 230329, Note_on_c, 0, 57, 39
1, 230406, Note_on_c, 0, 74, 52
1, 230406, Note_on_c, 0, 57, 0
1, 230406, Note_on_c, 0, 54, 39
1, 230484, Note_on_c, 0, 74, 0
1, 230484, Note_on_c, 0, 54, 0
1, 230484, Note_on_c, 0, 57, 39
1, 230562, Note_on_c, 0, 78, 55
1, 230562, Note_on_c, 0, 57, 0
1, 230562, Note_on_c, 0, 50, 50
1, 230640, Note_on_c, 0, 78, 0
1, 230640, Note_on_c, 0, 50, 0
1, 230640, Note_on_c, 0, 57, 40
1, 230717, Note_on_c, 0, 81, 58
1, 230717, Note_on_c, 0, 57, 0
1, 230717, Note_on_c, 0, 54, 40
1, 230795, Note_on_c, 0, 81, 0
1, 230795, Note_on_c, 0, 54, 0
1, 230795, Note_on_c, 0, 57, 40
1, 230873, Note_on_c, 0, 57, 0
1, 230873, Note_on_c, 0, 54, 40
1, 230950, Note_on_c, 0, 54, 0
1, 230950, Note_on_c, 0, 57, 40
1, 231028, Note_on_c, 0, 79, 67
1, 231028, Note_on_c, 0, 57, 0
1, 231028, Note_on_c, 0, 52, 60
1, 231041, Control_c, 0, 64, 0
1, 231090, Control_c, 0, 64, 127
1, 231105, Note_on_c, 0, 79, 0
1, 231105, Note_on_c, 0, 78, 65
1, 231105, Note_on_c, 0, 52, 0
1, 231108, Note_on_c, 0, 57, 44
1, 231182, Note_on_c, 0, 78, 0
1, 231182, Note_on_c, 0, 76, 64
1, 231182, Note_on_c, 0, 57, 0
1, 231185, Note_on_c, 0, 55, 44
1, 231258, Note_on_c, 0, 76, 0
1, 231258, Note_on_c, 0, 74, 63
1, 231258, Note_on_c, 0, 55, 0
1, 231261, Note_on_c, 0, 57, 44
1, 231335, Note_on_c, 0, 74, 0
1, 231335, Note_on_c, 0, 73, 61
1, 231335, Note_on_c, 0, 57, 0
1, 231338, Note_on_c, 0, 55, 44
1, 231412, Note_on_c, 0, 73, 0
1, 231412, Note_on_c, 0, 55, 0
1, 231412, Note_on_c, 0, 57, 44
1, 231415, Control_c, 0, 64, 0
1, 231492, Note_on_c, 0, 76, 65
1, 231492, Note_on_c, 0, 57, 0
1, 231492, Note_on_c, 0, 49, 55
1, 231502, Control_c, 0, 64, 127
1, 231568, Note_on_c, 0, 76, 0
1, 231568, Note_on_c, 0, 74, 64
1, 231568, Note_on_c, 0, 49, 0
1, 231571, Note_on_c, 0, 57, 42
1, 231645, Note_on_c, 0, 74, 0
1, 231645, Note_on_c, 0, 73, 62
1, 231645, Note_on_c, 0, 57, 0
1, 231648, Note_on_c, 0, 52, 42
1, 231722, Note_on_c, 0, 73, 0
1, 231722, Note_on_c, 0, 71, 61
1, 231722, Note_on_c, 0, 52, 0
1, 231725, Note_on_c, 0, 57, 42
1, 231798, Note_on_c, 0, 71, 0
1, 231798, Note_on_c, 0, 69, 60
1, 231798, Note_on_c, 0, 57, 0
1, 231801, Note_on_c, 0, 52, 42
1, 231875, Note_on_c, 0, 69, 0
1, 231875, Note_on_c, 0, 67, 58
1, 231875, Note_on_c, 0, 52, 0
1, 231878, Note_on_c, 0, 57, 42
1, 231957, Note_on_c, 0, 67, 0
1, 231957, Note_on_c, 0, 66, 61
1, 231957, Note_on_c, 0, 57, 0
1, 231960, Note_on_c, 0, 50, 51
1, 231960, Control_c, 0, 64, 0
1, 232033, Note_on_c, 0, 66, 0
1, 232033, Note_on_c, 0, 50, 0
1, 232033, Note_on_c, 0, 57, 39
1, 232110, Note_on_c, 0, 69, 49
1, 232110, Note_on_c, 0, 57, 0
1, 232110, Note_on_c, 0, 54, 39
1, 232188, Note_on_c, 0, 69, 0
1, 232188, Note_on_c, 0, 54, 0
1, 232188, Note_on_c, 0, 57, 39
1, 232265, Note_on_c, 0, 74, 52
1, 232265, Note_on_c, 0, 57, 0
1, 232265, Note_on_c, 0, 54, 39
1, 232343, Note_on_c, 0, 74, 0
1, 232343, Note_on_c, 0, 54, 0
1, 232343, Note_on_c, 0, 57, 39
1, 232421, Note_on_c, 0, 78, 55
1, 232421, Note_on_c, 0, 57, 0
1, 232421, Note_on_c, 0, 50, 50
1, 232499, Note_on_c, 0, 78, 0
1, 232499, Note_on_c, 0, 50, 0
1, 232499, Note_on_c, 0, 57, 40
1, 232576, Note_on_c, 0, 81, 58
1, 232576, Note_on_c, 0, 57, 0
1, 232576, Note_on_c, 0, 54, 40
1, 232654, Note_on_c, 0, 81, 0
1, 232654, Note_on_c, 0, 54, 0
1, 232654, Note_on_c, 0, 57, 40
1, 232732, Note_on_c, 0, 57, 0
1, 232732, Note_on_c, 0, 54, 40
1, 232809, Note_on_c, 0, 54, 0
1, 232809, Note_on_c, 0, 57, 40
1, 232887, Note_on_c, 0, 57, 0
1, 232887, Note_on_c, 0, 55, 45
1, 232967, Note_on_c, 0, 55, 0
1, 233047, Note_on_c, 0, 82, 45
1, 233204, Note_on_c, 0, 82, 0
1, 233204, Note_on_c, 0, 83, 45
1, 233360, Note_on_c, 0, 83, 0
1, 233360, Note_on_c, 0, 67, 34
1, 233360, Note_on_c, 0, 74, 40
1, 233440, Note_on_c, 0, 74, 0
1, 233440, Note_on_c, 0, 67, 0
1, 233521, Note_on_c, 0, 86, 45
1, 233677, Note_on_c, 0, 86, 0
1, 233677, Note_on_c, 0, 83, 45
1, 233833, Note_on_c, 0, 83, 0
1, 233833, Note_on_c, 0, 66, 34
1, 233833, Note_on_c, 0, 74, 40
1, 233913, Note_on_c, 0, 74, 0
1, 233913, Note_on_c, 0, 66, 0
1, 233994, Note_on_c, 0, 80, 45
1, 234150, Note_on_c, 0, 80, 0
1, 234150, Note_on_c, 0, 81, 45
1, 234307, Note_on_c, 0, 81, 0
1, 234307, Note_on_c, 0, 74, 40
1, 234307, Note_on_c, 0, 67, 34
1, 234387, Note_on_c, 0, 67, 0
1, 234387, Note_on_c, 0, 74, 0
1, 234467, Note_on_c, 0, 83, 45
1, 234624, Note_on_c, 0, 83, 0
1, 234624, Note_on_c, 0, 79, 45
1, 234781, Note_on_c, 0, 79, 0
1, 234781, Note_on_c, 0, 69, 34
1, 234781, Note_on_c, 0, 74, 40
1, 234862, Note_on_c, 0, 74, 0
1, 234862, Note_on_c, 0, 69, 0
1, 234942, Note_on_c, 0, 77, 45
1, 235098, Note_on_c, 0, 77, 0
1, 235098, Note_on_c, 0, 78, 45
1, 235255, Note_on_c, 0, 78, 0
1, 235255, Note_on_c, 0, 69, 34
1, 235255, Note_on_c, 0, 73, 40
1, 235335, Note_on_c, 0, 73, 0
1, 235335, Note_on_c, 0, 69, 0
1, 235415, Note_on_c, 0, 79, 45
1, 235572, Note_on_c, 0, 79, 0
1, 235572, Note_on_c, 0, 76, 45
1, 235730, Note_on_c, 0, 76, 0
1, 235730, Note_on_c, 0, 74, 65
1, 235730, Note_on_c, 0, 50, 60
1, 235766, Control_c, 0, 64, 127
1, 235807, Note_on_c, 0, 50, 0
1, 235807, Note_on_c, 0, 57, 44
1, 235883, Note_on_c, 0, 57, 0
1, 235883, Note_on_c, 0, 54, 44
1, 235960, Note_on_c, 0, 54, 0
1, 235960, Note_on_c, 0, 57, 44
1, 236037, Note_on_c, 0, 57, 0
1, 236037, Note_on_c, 0, 54, 44
1, 236113, Note_on_c, 0, 54, 0
1, 236113, Note_on_c, 0, 57, 44
1, 236193, Note_on_c, 0, 74, 0
1, 236193, Note_on_c, 0, 78, 65
1, 236193, Note_on_c, 0, 57, 0
1, 236196, Note_on_c, 0, 50, 55
1, 236196, Control_c, 0, 64, 0
1, 236261, Control_c, 0, 64, 127
1, 236269, Note_on_c, 0, 50, 0
1, 236269, Note_on_c, 0, 57, 48
1, 236346, Note_on_c, 0, 57, 0
1, 236346, Note_on_c, 0, 54, 45
1, 236423, Note_on_c, 0, 54, 0
1, 236423, Note_on_c, 0, 57, 43
1, 236499, Note_on_c, 0, 57, 0
1, 236499, Note_on_c, 0, 54, 43
1, 236576, Note_on_c, 0, 54, 0
1, 236576, Note_on_c, 0, 57, 43
1, 236659, Note_on_c, 0, 78, 0
1, 236659, Note_on_c, 0, 79, 67
1, 236659, Note_on_c, 0, 57, 0
1, 236662, Note_on_c, 0, 52, 60
1, 236672, Control_c, 0, 64, 0
1, 236721, Control_c, 0, 64, 127
1, 236735, Note_on_c, 0, 79, 0
1, 236735, Note_on_c, 0, 78, 65
1, 236735, Note_on_c, 0, 52, 0
1, 236738, Note_on_c, 0, 57, 44
1, 236812, Note_on_c, 0, 78, 0
1, 236812, Note_on_c, 0, 76, 64
1, 236812, Note_on_c, 0, 57, 0
1, 236815, Note_on_c, 0, 55, 44
1, 236889, Note_on_c, 0, 76, 0
1, 236889, Note_on_c, 0, 74, 63
1, 236889, Note_on_c, 0, 55, 0
1, 236892, Note_on_c, 0, 57, 44
1, 236951, Control_c, 0, 64, 0
1, 236965, Note_on_c, 0, 74, 0
1, 236965, Note_on_c, 0, 73, 61
1, 236965, Note_on_c, 0, 57, 0
1, 236968, Note_on_c, 0, 55, 44
1, 237042, Note_on_c, 0, 73, 0
1, 237042, Note_on_c, 0, 55, 0
1, 237042, Note_on_c, 0, 57, 44
1, 237122, Note_on_c, 0, 76, 65
1, 237122, Note_on_c, 0, 57, 0
1, 237122, Note_on_c, 0, 49, 55
1, 237133, Control_c, 0, 64, 127
1, 237199, Note_on_c, 0, 76, 0
1, 237199, Note_on_c, 0, 74, 64
1, 237199, Note_on_c, 0, 49, 0
1, 237202, Note_on_c, 0, 57, 42
1, 237275, Note_on_c, 0, 74, 0
1, 237275, Note_on_c, 0, 73, 62
1, 237275, Note_on_c, 0, 57, 0
1, 237278, Note_on_c, 0, 52, 42
1, 237352, Note_on_c, 0, 73, 0
1, 237352, Note_on_c, 0, 71, 61
1, 237352, Note_on_c, 0, 52, 0
1, 237355, Note_on_c, 0, 57, 42
1, 237429, Note_on_c, 0, 71, 0
1, 237429, Note_on_c, 0, 69, 60
1, 237429, Note_on_c, 0, 57, 0
1, 237432, Note_on_c, 0, 52, 42
1, 237505, Note_on_c, 0, 69, 0
1, 237505, Note_on_c, 0, 67, 58
1, 237505, Note_on_c, 0, 52, 0
1, 237508, Note_on_c, 0, 57, 42
1, 237587, Note_on_c, 0, 67, 0
1, 237587, Note_on_c, 0, 66, 61
1, 237587, Note_on_c, 0, 57, 0
1, 237590, Note_on_c, 0, 50, 51
1, 237590, Control_c, 0, 64, 0
1, 237664, Note_on_c, 0, 66, 0
1, 237664, Note_on_c, 0, 50, 0
1, 237664, Note_on_c, 0, 57, 39
1, 237740, Note_on_c, 0, 69, 49
1, 237740, Note_on_c, 0, 57, 0
1, 237740, Note_on_c, 0, 54, 39
1, 237818, Note_on_c, 0, 69, 0
1, 237818, Note_on_c, 0, 54, 0
1, 237818, Note_on_c, 0, 57, 39
1, 237896, Note_on_c, 0, 74, 52
1, 237896, Note_on_c, 0, 57, 0
1, 237896, Note_on_c, 0, 54, 39
1, 237974, Note_on_c, 0, 74, 0
1, 237974, Note_on_c, 0, 54, 0
1, 237974, Note_on_c, 0, 57, 39
1, 238051, Note_on_c, 0, 78, 55
1, 238051, Note_on_c, 0, 57, 0
1, 238051, Note_on_c, 0, 50, 50
1, 238129, Note_on_c, 0, 78, 0
1, 238129, Note_on_c, 0, 50, 0
1, 238129, Note_on_c, 0, 57, 40
1, 238207, Note_on_c, 0, 81, 58
1, 238207, Note_on_c, 0, 57, 0
1, 238207, Note_on_c, 0, 54, 40
1, 238284, Note_on_c, 0, 81, 0
1, 238284, Note_on_c, 0, 54, 0
1, 238284, Note_on_c, 0, 57, 40
1, 238362, Note_on_c, 0, 57, 0
1, 238362, Note_on_c, 0, 54, 40
1, 238440, Note_on_c, 0, 54, 0
1, 238440, Note_on_c, 0, 57, 40
1, 238518, Note_on_c, 0, 79, 67
1, 238518, Note_on_c, 0, 57, 0
1, 238518, Note_on_c, 0, 52, 60
1, 238530, Control_c, 0, 64, 0
1, 238580, Control_c, 0, 64, 127
1, 238594, Note_on_c, 0, 79, 0
1, 238594, Note_on_c, 0, 78, 65
1, 238594, Note_on_c, 0, 52, 0
1, 238597, Note_on_c, 0, 57, 44
1, 238671, Note_on_c, 0, 78, 0
1, 238671, Note_on_c, 0, 76, 64
1, 238671, Note_on_c, 0, 57, 0
1, 238674, Note_on_c, 0, 55, 44
1, 238748, Note_on_c, 0, 76, 0
1, 238748, Note_on_c, 0, 74, 63
1, 238748, Note_on_c, 0, 55, 0
1, 238751, Note_on_c, 0, 57, 44
1, 238810, Control_c, 0, 64, 0
1, 238824, Note_on_c, 0, 74, 0
1, 238824, Note_on_c, 0, 73, 61
1, 238824, Note_on_c, 0, 57, 0
1, 238827, Note_on_c, 0, 55, 44
1, 238901, Note_on_c, 0, 73, 0
1, 238901, Note_on_c, 0, 55, 0
1, 238901, Note_on_c, 0, 57, 44
1, 238981, Note_on_c, 0, 76, 65
1, 238981, Note_on_c, 0, 57, 0
1, 238981, Note_on_c, 0, 49, 55
1, 238992, Control_c, 0, 64, 127
1, 239058, Note_on_c, 0, 76, 0
1, 239058, Note_on_c, 0, 74, 64
1, 239058, Note_on_c, 0, 49, 0
1, 239061, Note_on_c, 0, 57, 42
1, 239134, Note_on_c, 0, 74, 0
1, 239134, Note_on_c, 0, 73, 62
1, 239134, Note_on_c, 0, 57, 0
1, 239137, Note_on_c, 0, 52, 42
1, 239211, Note_on_c, 0, 73, 0
1, 239211, Note_on_c, 0, 71, 61
1, 239211, Note_on_c, 0, 52, 0
1, 239214, Note_on_c, 0, 57, 42
1, 239288, Note_on_c, 0, 71, 0
1, 239288, Note_on_c, 0, 69, 60
1, 239288, Note_on_c, 0, 57, 0
1, 239291, Note_on_c, 0, 52, 42
1, 239364, Note_on_c, 0, 69, 0
1, 239364, Note_on_c, 0, 67, 58
1, 239364, Note_on_c, 0, 52, 0
1, 239367, Note_on_c, 0, 57, 42
1, 239446, Note_on_c, 0, 67, 0
1, 239446, Note_on_c, 0, 66, 61
1, 239446, Note_on_c, 0, 57, 0
1, 239449, Note_on_c, 0, 50, 51
1, 239449, Control_c, 0, 64, 0
1, 239523, Note_on_c, 0, 66, 0
1, 239523, Note_on_c, 0, 50, 0
1, 239523, Note_on_c, 0, 57, 39
1, 239599, Note_on_c, 0, 69, 49
1, 239599, Note_on_c, 0, 57, 0
1, 239599, Note_on_c, 0, 54, 39
1, 239677, Note_on_c, 0, 69, 0
1, 239677, Note_on_c, 0, 54, 0
1, 239677, Note_on_c, 0, 57, 39
1, 239755, Note_on_c, 0, 74, 52
1, 239755, Note_on_c, 0, 57, 0
1, 239755, Note_on_c, 0, 54, 39
1, 239833, Note_on_c, 0, 74, 0
1, 239833, Note_on_c, 0, 54, 0
1, 239833, Note_on_c, 0, 57, 39
1, 239910, Note_on_c, 0, 78, 55
1, 239910, Note_on_c, 0, 57, 0
1, 239910, Note_on_c, 0, 50, 50
1, 239988, Note_on_c, 0, 78, 0
1, 239988, Note_on_c, 0, 50, 0
1, 239988, Note_on_c, 0, 57, 40
1, 240066, Note_on_c, 0, 81, 58
1, 240066, Note_on_c, 0, 57, 0
1, 240066, Note_on_c, 0, 54, 40
1, 240143, Note_on_c, 0, 81, 0
1, 240143, Note_on_c, 0, 54, 0
1, 240143, Note_on_c, 0, 57, 40
1, 240221, Note_on_c, 0, 57, 0
1, 240221, Note_on_c, 0, 54, 40
1, 240299, Note_on_c, 0, 54, 0
1, 240299, Note_on_c, 0, 57, 40
1, 240377, Note_on_c, 0, 57, 0
1, 240377, Note_on_c, 0, 55, 45
1, 240458, Note_on_c, 0, 55, 0
1, 240539, Note_on_c, 0, 82, 45
1, 240695, Note_on_c, 0, 82, 0
1, 240695, Note_on_c, 0, 83, 43
1, 240851, Note_on_c, 0, 83, 0
1, 240851, Note_on_c, 0, 74, 40
1, 240851, Note_on_c, 0, 67, 34
1, 240931, Note_on_c, 0, 67, 0
1, 240931, Note_on_c, 0, 74, 0
1, 241011, Note_on_c, 0, 86, 45
1, 241167, Note_on_c, 0, 86, 0
1, 241167, Note_on_c, 0, 83, 41
1, 241323, Note_on_c, 0, 83, 0
1, 241323, Note_on_c, 0, 74, 40
1, 241323, Note_on_c, 0, 66, 34
1, 241404, Note_on_c, 0, 66, 0
1, 241404, Note_on_c, 0, 74, 0
1, 241484, Note_on_c, 0, 80, 45
1, 241640, Note_on_c, 0, 80, 0
1, 241640, Note_on_c, 0, 81, 44
1, 241796, Note_on_c, 0, 81, 0
1, 241796, Note_on_c, 0, 74, 40
1, 241796, Note_on_c, 0, 67, 34
1, 241876, Note_on_c, 0, 67, 0
1, 241876, Note_on_c, 0, 74, 0
1, 241956, Note_on_c, 0, 83, 45
1, 242112, Note_on_c, 0, 83, 0
1, 242112, Note_on_c, 0, 79, 43
1, 242268, Note_on_c, 0, 79, 0
1, 242268, Note_on_c, 0, 74, 40
1, 242268, Note_on_c, 0, 69, 34
1, 242348, Note_on_c, 0, 69, 0
1, 242348, Note_on_c, 0, 74, 0
1, 242429, Note_on_c, 0, 77, 45
1, 242586, Note_on_c, 0, 77, 0
1, 242586, Note_on_c, 0, 78, 43
1, 242743, Note_on_c, 0, 78, 0
1, 242743, Note_on_c, 0, 73, 40
1, 242743, Note_on_c, 0, 69, 34
1, 242824, Note_on_c, 0, 69, 0
1, 242824, Note_on_c, 0, 73, 0
1, 242904, Note_on_c, 0, 79, 45
1, 243062, Note_on_c, 0, 79, 0
1, 243062, Note_on_c, 0, 76, 43
1, 243224, Note_on_c, 0, 76, 0
1, 243224, Note_on_c, 0, 55, 55
1, 243224, Note_on_c, 0, 62, 63
1, 243306, Note_on_c, 0, 62, 0
1, 243306, Note_on_c, 0, 55, 0
1, 243388, Note_on_c, 0, 70, 58
1, 243388, Note_on_c, 0, 82, 69
1, 243466, Note_on_c, 0, 82, 0
1, 243466, Note_on_c, 0, 70, 0
1, 243544, Note_on_c, 0, 83, 67
1, 243544, Note_on_c, 0, 71, 56
1, 243621, Note_on_c, 0, 71, 0
1, 243621, Note_on_c, 0, 83, 0
1, 243699, Note_on_c, 0, 62, 57
1, 243699, Note_on_c, 0, 55, 48
1, 243780, Note_on_c, 0, 55, 0
1, 243780, Note_on_c, 0, 62, 0
1, 243861, Note_on_c, 0, 74, 58
1, 243861, Note_on_c, 0, 86, 69
1, 243938, Note_on_c, 0, 86, 0
1, 243938, Note_on_c, 0, 74, 0
1, 244016, Note_on_c, 0, 71, 56
1, 244016, Note_on_c, 0, 83, 67
1, 244093, Note_on_c, 0, 83, 0
1, 244093, Note_on_c, 0, 71, 0
1, 244171, Note_on_c, 0, 62, 57
1, 244171, Note_on_c, 0, 54, 48
1, 244251, Note_on_c, 0, 54, 0
1, 244251, Note_on_c, 0, 62, 0
1, 244332, Note_on_c, 0, 68, 58
1, 244332, Note_on_c, 0, 80, 69
1, 244410, Note_on_c, 0, 80, 0
1, 244410, Note_on_c, 0, 68, 0
1, 244488, Note_on_c, 0, 69, 56
1, 244488, Note_on_c, 0, 81, 67
1, 244567, Note_on_c, 0, 81, 0
1, 244567, Note_on_c, 0, 69, 0
1, 244645, Note_on_c, 0, 55, 48
1, 244645, Note_on_c, 0, 62, 57
1, 244726, Note_on_c, 0, 62, 0
1, 244726, Note_on_c, 0, 55, 0
1, 244807, Note_on_c, 0, 71, 58
1, 244807, Note_on_c, 0, 83, 69
1, 244886, Note_on_c, 0, 83, 0
1, 244886, Note_on_c, 0, 71, 0
1, 244964, Note_on_c, 0, 79, 67
1, 244964, Note_on_c, 0, 67, 56
1, 245043, Note_on_c, 0, 67, 0
1, 245043, Note_on_c, 0, 79, 0
1, 245121, Note_on_c, 0, 62, 57
1, 245121, Note_on_c, 0, 57, 48
1, 245202, Note_on_c, 0, 57, 0
1, 245202, Note_on_c, 0, 62, 0
1, 245283, Note_on_c, 0, 77, 69
1, 245283, Note_on_c, 0, 65, 58
1, 245361, Note_on_c, 0, 65, 0
1, 245361, Note_on_c, 0, 77, 0
1, 245439, Note_on_c, 0, 78, 67
1, 245439, Note_on_c, 0, 66, 56
1, 245517, Note_on_c, 0, 66, 0
1, 245517, Note_on_c, 0, 78, 0
1, 245594, Note_on_c, 0, 57, 48
1, 245594, Note_on_c, 0, 61, 57
1, 245674, Note_on_c, 0, 61, 0
1, 245674, Note_on_c, 0, 57, 0
1, 245754, Note_on_c, 0, 67, 58
1, 245754, Note_on_c, 0, 79, 69
1, 245832, Note_on_c, 0, 79, 0
1, 245832, Note_on_c, 0, 67, 0
1, 245910, Note_on_c, 0, 64, 56
1, 245910, Note_on_c, 0, 76, 67
1, 245987, Note_on_c, 0, 76, 0
1, 245987, Note_on_c, 0, 64, 0
1, 246065, Note_on_c, 0, 74, 72
1, 246065, Note_on_c, 0, 66, 72
1, 246065, Note_on_c, 0, 50, 67
1, 246079, Control_c, 0, 64, 127
1, 246142, Note_on_c, 0, 50, 0
1, 246142, Note_on_c, 0, 62, 44
1, 246218, Note_on_c, 0, 66, 0
1, 246218, Note_on_c, 0, 74, 0
1, 246218, Note_on_c, 0, 62, 0
1, 246221, Note_on_c, 0, 61, 48
1, 246295, Note_on_c, 0, 61, 0
1, 246295, Note_on_c, 0, 62, 44
1, 246372, Note_on_c, 0, 62, 0
1, 246372, Note_on_c, 0, 61, 48
1, 246448, Note_on_c, 0, 61, 0
1, 246448, Note_on_c, 0, 62, 44
1, 246528, Note_on_c, 0, 74, 73
1, 246528, Note_on_c, 0, 66, 62
1, 246528, Note_on_c, 0, 62, 0
1, 246531, Note_on_c, 0, 47, 62
1, 246546, Control_c, 0, 64, 0
1, 246582, Control_c, 0, 64, 127
1, 246604, Note_on_c, 0, 47, 0
1, 246604, Note_on_c, 0, 59, 43
1, 246681, Note_on_c, 0, 59, 0
1, 246681, Note_on_c, 0, 58, 47
1, 246758, Note_on_c, 0, 58, 0
1, 246758, Note_on_c, 0, 59, 43
1, 246835, Note_on_c, 0, 59, 0
1, 246835, Note_on_c, 0, 58, 47
1, 246911, Note_on_c, 0, 58, 0
1, 246911, Note_on_c, 0, 59, 43
1, 246994, Note_on_c, 0, 66, 0
1, 246994, Note_on_c, 0, 74, 0
1, 246994, Note_on_c, 0, 67, 63
1, 246997, Note_on_c, 0, 76, 75
1, 246997, Note_on_c, 0, 59, 0
1, 246997, Note_on_c, 0, 43, 67
1, 247006, Control_c, 0, 64, 0
1, 247031, Control_c, 0, 64, 127
1, 247070, Note_on_c, 0, 43, 0
1, 247070, Note_on_c, 0, 55, 46
1, 247147, Note_on_c, 0, 55, 0
1, 247147, Note_on_c, 0, 54, 50
1, 247224, Note_on_c, 0, 54, 0
1, 247224, Note_on_c, 0, 55, 46
1, 247300, Note_on_c, 0, 76, 0
1, 247300, Note_on_c, 0, 67, 0
1, 247300, Note_on_c, 0, 71, 60
1, 247303, Note_on_c, 0, 79, 71
1, 247303, Note_on_c, 0, 55, 0
1, 247303, Note_on_c, 0, 54, 51
1, 247303, Control_c, 0, 64, 0
1, 247314, Control_c, 0, 64, 127
1, 247377, Note_on_c, 0, 54, 0
1, 247377, Note_on_c, 0, 55, 46
1, 247417, Note_on_c, 0, 79, 0
1, 247417, Note_on_c, 0, 71, 0
1, 247417, Note_on_c, 0, 64, 65
1, 247426, Control_c, 0, 64, 0
1, 247447, Control_c, 0, 64, 127
1, 247456, Note_on_c, 0, 64, 0
1, 247456, Note_on_c, 0, 74, 76
1, 247456, Note_on_c, 0, 55, 0
1, 247459, Note_on_c, 0, 45, 55
1, 247533, Note_on_c, 0, 45, 0
1, 247533, Note_on_c, 0, 57, 46
1, 247610, Note_on_c, 0, 57, 0
1, 247610, Note_on_c, 0, 56, 49
1, 247687, Note_on_c, 0, 56, 0
1, 247687, Note_on_c, 0, 57, 46
1, 247764, Note_on_c, 0, 74, 0
1, 247764, Note_on_c, 0, 73, 69
1, 247764, Note_on_c, 0, 57, 0
1, 247767, Note_on_c, 0, 56, 50
1, 247772, Control_c, 0, 64, 0
1, 247783, Control_c, 0, 64, 127
1, 247790, Note_on_c, 0, 73, 0
1, 247790, Note_on_c, 0, 74, 62
1, 247816, Note_on_c, 0, 74, 0
1, 247816, Note_on_c, 0, 73, 63
1, 247842, Note_on_c, 0, 73, 0
1, 247842, Note_on_c, 0, 71, 70
1, 247842, Note_on_c, 0, 56, 0
1, 247845, Note_on_c, 0, 57, 46
1, 247881, Note_on_c, 0, 71, 0
1, 247881, Note_on_c, 0, 73, 64
1, 247920, Note_on_c, 0, 73, 0
1, 247920, Note_on_c, 0, 74, 72
1, 247920, Note_on_c, 0, 57, 0
1, 247923, Note_on_c, 0, 50, 67
1, 247923, Control_c, 0, 64, 0
1, 247996, Note_on_c, 0, 50, 0
1, 247996, Note_on_c, 0, 62, 44
1, 248000, Control_c, 0, 64, 127
1, 248073, Note_on_c, 0, 74, 0
1, 248073, Note_on_c, 0, 62, 0
1, 248073, Note_on_c, 0, 61, 48
1, 248150, Note_on_c, 0, 61, 0
1, 248150, Note_on_c, 0, 62, 44
1, 248226, Note_on_c, 0, 62, 0
1, 248226, Note_on_c, 0, 61, 48
1, 248303, Note_on_c, 0, 61, 0
1, 248303, Note_on_c, 0, 62, 44
1, 248382, Note_on_c, 0, 74, 73
1, 248382, Note_on_c, 0, 66, 62
1, 248382, Note_on_c, 0, 62, 0
1, 248385, Note_on_c, 0, 47, 62
1, 248400, Control_c, 0, 64, 0
1, 248437, Control_c, 0, 64, 127
1, 248459, Note_on_c, 0, 66, 0
1, 248459, Note_on_c, 0, 74, 0
1, 248459, Note_on_c, 0, 47, 0
1, 248462, Note_on_c, 0, 59, 43
1, 248536, Note_on_c, 0, 74, 73
1, 248536, Note_on_c, 0, 66, 62
1, 248536, Note_on_c, 0, 59, 0
1, 248539, Note_on_c, 0, 58, 47
1, 248612, Note_on_c, 0, 66, 0
1, 248612, Note_on_c, 0, 74, 0
1, 248612, Note_on_c, 0, 58, 0
1, 248615, Note_on_c, 0, 59, 43
1, 248689, Note_on_c, 0, 66, 62
1, 248689, Note_on_c, 0, 74, 73
1, 248689, Note_on_c, 0, 59, 0
1, 248692, Note_on_c, 0, 58, 47
1, 248766, Note_on_c, 0, 74, 0
1, 248766, Note_on_c, 0, 66, 0
1, 248766, Note_on_c, 0, 58, 0
1, 248769, Note_on_c, 0, 59, 43
1, 248848, Note_on_c, 0, 76, 75
1, 248848, Note_on_c, 0, 67, 63
1, 248848, Note_on_c, 0, 59, 0
1, 248851, Note_on_c, 0, 43, 67
1, 248860, Control_c, 0, 64, 0
1, 248885, Control_c, 0, 64, 127
1, 248925, Note_on_c, 0, 43, 0
1, 248925, Note_on_c, 0, 55, 46
1, 249002, Note_on_c, 0, 55, 0
1, 249002, Note_on_c, 0, 54, 50
1, 249078, Note_on_c, 0, 54, 0
1, 249078, Note_on_c, 0, 55, 46
1, 249155, Note_on_c, 0, 67, 0
1, 249155, Note_on_c, 0, 76, 0
1, 249155, Note_on_c, 0, 79, 71
1, 249158, Note_on_c, 0, 71, 60
1, 249158, Note_on_c, 0, 55, 0
1, 249158, Note_on_c, 0, 54, 51
1, 249158, Control_c, 0, 64, 0
1, 249168, Control_c, 0, 64, 127
1, 249232, Note_on_c, 0, 54, 0
1, 249232, Note_on_c, 0, 55, 46
1, 249271, Note_on_c, 0, 71, 0
1, 249271, Note_on_c, 0, 79, 0
1, 249271, Note_on_c, 0, 64, 65
1, 249277, Control_c, 0, 64, 0
1, 249304, Control_c, 0, 64, 127
1, 249310, Note_on_c, 0, 64, 0
1, 249310, Note_on_c, 0, 74, 76
1, 249310, Note_on_c, 0, 55, 0
1, 249313, Note_on_c, 0, 45, 55
1, 249387, Note_on_c, 0, 45, 0
1, 249387, Note_on_c, 0, 57, 46
1, 249464, Note_on_c, 0, 57, 0
1, 249464, Note_on_c, 0, 56, 49
1, 249541, Note_on_c, 0, 56, 0
1, 249541, Note_on_c, 0, 57, 46
1, 249618, Note_on_c, 0, 74, 0
1, 249618, Note_on_c, 0, 73, 69
1, 249618, Note_on_c, 0, 57, 0
1, 249621, Note_on_c, 0, 56, 50
1, 249627, Control_c, 0, 64, 0
1, 249638, Control_c, 0, 64, 127
1, 249645, Note_on_c, 0, 73, 0
1, 249645, Note_on_c, 0, 74, 62
1, 249671, Note_on_c, 0, 74, 0
1, 249671, Note_on_c, 0, 73, 63
1, 249698, Note_on_c, 0, 73, 0
1, 249698, Note_on_c, 0, 71, 70
1, 249698, Note_on_c, 0, 56, 0
1, 249701, Note_on_c, 0, 57, 46
1, 249738, Note_on_c, 0, 71, 0
1, 249738, Note_on_c, 0, 73, 64
1, 249778, Note_on_c, 0, 73, 0
1, 249778, Note_on_c, 0, 74, 72
1, 249778, Note_on_c, 0, 57, 0
1, 249781, Control_c, 0, 64, 0
1, 249940, Note_on_c, 0, 74, 0
1, 249940, Note_on_c, 0, 66, 45
1, 249966, Control_c, 0, 64, 127
1, 250097, Note_on_c, 0, 66, 0
1, 250097, Note_on_c, 0, 69, 39
1, 250253, Note_on_c, 0, 69, 0
1, 250253, Note_on_c, 0, 71, 45
1, 250258, Control_c, 0, 64, 0
1, 250323, Control_c, 0, 64, 127
1, 250410, Note_on_c, 0, 71, 0
1, 250410, Note_on_c, 0, 73, 41
1, 250567, Note_on_c, 0, 73, 0
1, 250567, Note_on_c, 0, 74, 42
1, 250728, Note_on_c, 0, 74, 0
1, 250728, Note_on_c, 0, 76, 47
1, 250728, Note_on_c, 0, 61, 38
1, 250731, Note_on_c, 0, 57, 32
1, 250731, Control_c, 0, 64, 0
1, 250890, Note_on_c, 0, 76, 0
1, 250890, Note_on_c, 0, 69, 40
1, 250890, Note_on_c, 0, 57, 0
1, 250893, Note_on_c, 0, 61, 0
1, 250925, Control_c, 0, 64, 127
1, 251047, Note_on_c, 0, 69, 0
1, 251047, Note_on_c, 0, 71, 37
1, 251204, Note_on_c, 0, 71, 0
1, 251204, Note_on_c, 0, 73, 46
1, 251218, Control_c, 0, 64, 0
1, 251335, Control_c, 0, 64, 127
1, 251362, Note_on_c, 0, 73, 0
1, 251362, Note_on_c, 0, 74, 44
1, 251520, Note_on_c, 0, 74, 0
1, 251520, Note_on_c, 0, 76, 47
1, 251683, Note_on_c, 0, 76, 0
1, 251683, Note_on_c, 0, 78, 49
1, 251683, Note_on_c, 0, 62, 41
1, 251686, Note_on_c, 0, 50, 34
1, 251686, Control_c, 0, 64, 0
1, 251850, Note_on_c, 0, 78, 0
1, 251850, Note_on_c, 0, 66, 37
1, 251850, Note_on_c, 0, 69, 44
1, 251853, Note_on_c, 0, 50, 0
1, 251853, Note_on_c, 0, 62, 0
1, 251912, Control_c, 0, 64, 127
1, 252009, Note_on_c, 0, 69, 0
1, 252009, Note_on_c, 0, 66, 0
1, 252009, Note_on_c, 0, 73, 41
1, 252012, Note_on_c, 0, 69, 34
1, 252169, Note_on_c, 0, 69, 0
1, 252169, Note_on_c, 0, 73, 0
1, 252169, Note_on_c, 0, 74, 52
1, 252172, Note_on_c, 0, 71, 44
1, 252177, Control_c, 0, 64, 0
1, 252328, Note_on_c, 0, 71, 0
1, 252328, Note_on_c, 0, 74, 0
1, 252328, Note_on_c, 0, 76, 50
1, 252331, Note_on_c, 0, 73, 42
1, 252331, Control_c, 0, 64, 127
1, 252487, Note_on_c, 0, 73, 0
1, 252487, Note_on_c, 0, 76, 0
1, 252487, Note_on_c, 0, 78, 54
1, 252490, Note_on_c, 0, 74, 45
1, 252650, Note_on_c, 0, 74, 0
1, 252650, Note_on_c, 0, 78, 0
1, 252650, Note_on_c, 0, 76, 48
1, 252653, Note_on_c, 0, 79, 57
1, 252653, Note_on_c, 0, 57, 41
1, 252653, Note_on_c, 0, 64, 48
1, 252656, Note_on_c, 0, 61, 41
1, 252656, Control_c, 0, 64, 0
1, 252818, Note_on_c, 0, 79, 0
1, 252818, Note_on_c, 0, 76, 0
1, 252818, Note_on_c, 0, 69, 45
1, 252821, Note_on_c, 0, 73, 52
1, 252821, Note_on_c, 0, 61, 0
1, 252821, Note_on_c, 0, 64, 0
1, 252824, Note_on_c, 0, 57, 0
1, 252880, Control_c, 0, 64, 127
1, 252978, Note_on_c, 0, 73, 0
1, 252978, Note_on_c, 0, 69, 0
1, 252978, Note_on_c, 0, 74, 50
1, 252981, Note_on_c, 0, 71, 42
1, 253140, Note_on_c, 0, 71, 0
1, 253140, Note_on_c, 0, 74, 0
1, 253140, Note_on_c, 0, 76, 62
1, 253143, Note_on_c, 0, 73, 53
1, 253153, Control_c, 0, 64, 0
1, 253284, Control_c, 0, 64, 127
1, 253303, Note_on_c, 0, 73, 0
1, 253303, Note_on_c, 0, 76, 0
1, 253303, Note_on_c, 0, 78, 59
1, 253306, Note_on_c, 0, 74, 50
1, 253473, Note_on_c, 0, 74, 0
1, 253473, Note_on_c, 0, 78, 0
1, 253473, Note_on_c, 0, 79, 65
1, 253476, Note_on_c, 0, 76, 54
1, 253657, Note_on_c, 0, 76, 0
1, 253657, Note_on_c, 0, 79, 0
1, 253657, Note_on_c, 0, 78, 58
1, 253660, Note_on_c, 0, 81, 69
1, 253660, Note_on_c, 0, 66, 58
1, 253660, Note_on_c, 0, 62, 48
1, 253663, Control_c, 0, 64, 0
1, 253893, Note_on_c, 0, 81, 0
1, 253893, Note_on_c, 0, 78, 0
1, 253893, Note_on_c, 0, 62, 0
1, 253896, Note_on_c, 0, 66, 0
1, 254248, Note_on_c, 0, 69, 45
1, 254252, Control_c, 0, 64, 127
1, 254322, Note_on_c, 0, 69, 0
1, 254322, Note_on_c, 0, 81, 50
1, 254624, Note_on_c, 0, 81, 0
1, 254624, Note_on_c, 0, 78, 47
1, 254697, Control_c, 0, 64, 0
1, 254737, Note_on_c, 0, 78, 0
1, 254737, Note_on_c, 0, 76, 47
1, 254775, Note_on_c, 0, 76, 0
1, 254775, Note_on_c, 0, 74, 52
1, 254775, Note_on_c, 0, 62, 29
1, 254778, Note_on_c, 0, 66, 35
1, 254831, Note_on_c, 0, 74, 0
1, 254926, Note_on_c, 0, 73, 47
1, 254982, Note_on_c, 0, 73, 0
1, 255076, Note_on_c, 0, 74, 47
1, 255135, Note_on_c, 0, 74, 0
1, 255193, Note_on_c, 0, 76, 46
1, 255232, Note_on_c, 0, 76, 0
1, 255232, Note_on_c, 0, 74, 50
1, 255232, Note_on_c, 0, 66, 0
1, 255235, Note_on_c, 0, 62, 0
1, 255235, Note_on_c, 0, 68, 35
1, 255235, Note_on_c, 0, 59, 29
1, 255289, Note_on_c, 0, 74, 0
1, 255383, Note_on_c, 0, 73, 46
1, 255440, Note_on_c, 0, 73, 0
1, 255534, Note_on_c, 0, 74, 45
1, 255595, Note_on_c, 0, 74, 0
1, 255696, Note_on_c, 0, 78, 52
1, 255696, Note_on_c, 0, 74, 44
1, 255696, Note_on_c, 0, 59, 0
1, 255699, Note_on_c, 0, 68, 0
1, 255699, Note_on_c, 0, 69, 35
1, 255699, Note_on_c, 0, 57, 29
1, 255763, Control_c, 0, 64, 127
1, 256013, Note_on_c, 0, 74, 0
1, 256013, Note_on_c, 0, 78, 0
1, 256013, Note_on_c, 0, 73, 37
1, 256016, Note_on_c, 0, 76, 44
1, 256019, Control_c, 0, 64, 0
1, 256111, Note_on_c, 0, 76, 0
1, 256111, Note_on_c, 0, 73, 0
1, 256111, Note_on_c, 0, 67, 45
1, 256159, Control_c, 0, 64, 127
1, 256185, Note_on_c, 0, 67, 0
1, 256185, Note_on_c, 0, 79, 50
1, 256185, Note_on_c, 0, 57, 0
1, 256188, Note_on_c, 0, 69, 0
1, 256487, Note_on_c, 0, 79, 0
1, 256487, Note_on_c, 0, 76, 47
1, 256498, Control_c, 0, 64, 0
1, 256600, Note_on_c, 0, 76, 0
1, 256600, Note_on_c, 0, 74, 47
1, 256638, Note_on_c, 0, 74, 0
1, 256638, Note_on_c, 0, 73, 52
1, 256638, Note_on_c, 0, 64, 35
1, 256641, Note_on_c, 0, 57, 29
1, 256694, Note_on_c, 0, 73, 0
1, 256788, Note_on_c, 0, 71, 47
1, 256845, Note_on_c, 0, 71, 0
1, 256939, Note_on_c, 0, 73, 47
1, 256998, Note_on_c, 0, 73, 0
1, 257095, Note_on_c, 0, 69, 50
1, 257095, Note_on_c, 0, 57, 0
1, 257095, Note_on_c, 0, 64, 0
1, 257098, Note_on_c, 0, 61, 29
1, 257098, Note_on_c, 0, 64, 35
1, 257152, Note_on_c, 0, 69, 0
1, 257246, Note_on_c, 0, 76, 46
1, 257302, Note_on_c, 0, 76, 0
1, 257397, Note_on_c, 0, 81, 45
1, 257458, Note_on_c, 0, 81, 0
1, 257559, Note_on_c, 0, 79, 52
1, 257559, Note_on_c, 0, 76, 44
1, 257559, Note_on_c, 0, 64, 0
1, 257562, Note_on_c, 0, 61, 0
1, 257562, Note_on_c, 0, 62, 29
1, 257562, Note_on_c, 0, 69, 35
1, 257626, Control_c, 0, 64, 127
1, 257875, Note_on_c, 0, 76, 0
1, 257875, Note_on_c, 0, 79, 0
1, 257875, Note_on_c, 0, 74, 37
1, 257878, Note_on_c, 0, 78, 44
1, 257881, Control_c, 0, 64, 0
1, 257994, Note_on_c, 0, 78, 0
1, 257994, Note_on_c, 0, 74, 0
1, 257994, Note_on_c, 0, 74, 48
1, 258034, Note_on_c, 0, 74, 0
1, 258034, Note_on_c, 0, 78, 52
1, 258034, Note_on_c, 0, 69, 0
1, 258037, Note_on_c, 0, 62, 0
1, 258037, Note_on_c, 0, 50, 51
1, 258185, Note_on_c, 0, 50, 0
1, 258185, Note_on_c, 0, 62, 45
1, 258261, Note_on_c, 0, 62, 0
1, 258337, Note_on_c, 0, 78, 0
1, 258337, Note_on_c, 0, 79, 48
1, 258337, Note_on_c, 0, 64, 48
1, 258415, Note_on_c, 0, 64, 0
1, 258492, Note_on_c, 0, 79, 0
1, 258492, Note_on_c, 0, 83, 59
1, 258492, Note_on_c, 0, 66, 52
1, 258568, Note_on_c, 0, 83, 0
1, 258568, Note_on_c, 0, 81, 57
1, 258644, Note_on_c, 0, 81, 0
1, 258644, Note_on_c, 0, 79, 55
1, 258644, Note_on_c, 0, 66, 0
1, 258720, Note_on_c, 0, 79, 0
1, 258720, Note_on_c, 0, 78, 53
1, 258796, Note_on_c, 0, 78, 0
1, 258796, Note_on_c, 0, 76, 51
1, 258878, Note_on_c, 0, 76, 0
1, 258878, Note_on_c, 0, 74, 47
1, 258917, Note_on_c, 0, 74, 0
1, 258917, Note_on_c, 0, 79, 46
1, 258955, Note_on_c, 0, 79, 0
1, 258955, Note_on_c, 0, 83, 58
1, 258955, Note_on_c, 0, 55, 50
1, 259107, Note_on_c, 0, 55, 0
1, 259107, Note_on_c, 0, 67, 44
1, 259182, Note_on_c, 0, 67, 0
1, 259258, Note_on_c, 0, 83, 0
1, 259258, Note_on_c, 0, 85, 49
1, 259258, Note_on_c, 0, 69, 48
1, 259335, Note_on_c, 0, 69, 0
1, 259413, Note_on_c, 0, 85, 0
1, 259413, Note_on_c, 0, 88, 59
1, 259413, Note_on_c, 0, 71, 53
1, 259489, Note_on_c, 0, 88, 0
1, 259489, Note_on_c, 0, 86, 57
1, 259564, Note_on_c, 0, 86, 0
1, 259564, Note_on_c, 0, 85, 55
1, 259564, Note_on_c, 0, 71, 0
1, 259640, Note_on_c, 0, 85, 0
1, 259640, Note_on_c, 0, 83, 53
1, 259715, Note_on_c, 0, 83, 0
1, 259715, Note_on_c, 0, 81, 51
1, 259792, Note_on_c, 0, 81, 0
1, 259792, Note_on_c, 0, 79, 51
1, 259869, Note_on_c, 0, 79, 0
1, 259869, Note_on_c, 0, 85, 59
1, 259869, Note_on_c, 0, 59, 45
1, 259872, Note_on_c, 0, 64, 53
1, 259872, Note_on_c, 0, 55, 45
1, 259945, Note_on_c, 0, 85, 0
1, 259945, Note_on_c, 0, 83, 58
1, 260021, Note_on_c, 0, 83, 0
1, 260021, Note_on_c, 0, 81, 56
1, 260021, Note_on_c, 0, 55, 0
1, 260024, Note_on_c, 0, 64, 0
1, 260024, Note_on_c, 0, 59, 0
1, 260096, Note_on_c, 0, 81, 0
1, 260096, Note_on_c, 0, 79, 55
1, 260172, Note_on_c, 0, 79, 0
1, 260172, Note_on_c, 0, 78, 58
1, 260251, Note_on_c, 0, 78, 0
1, 260251, Note_on_c, 0, 76, 62
1, 260342, Note_on_c, 0, 76, 0
1, 260342, Note_on_c, 0, 83, 63
1, 260342, Note_on_c, 0, 62, 45
1, 260345, Note_on_c, 0, 57, 45
1, 260349, Note_on_c, 0, 66, 53
1, 260418, Note_on_c, 0, 83, 0
1, 260418, Note_on_c, 0, 81, 61
1, 260418, Note_on_c, 0, 57, 0
1, 260421, Note_on_c, 0, 62, 0
1, 260425, Note_on_c, 0, 66, 0
1, 260494, Note_on_c, 0, 81, 0
1, 260494, Note_on_c, 0, 79, 59
1, 260569, Note_on_c, 0, 79, 0
1, 260569, Note_on_c, 0, 78, 57
1, 260645, Note_on_c, 0, 78, 0
1, 260645, Note_on_c, 0, 76, 56
1, 260722, Note_on_c, 0, 76, 0
1, 260722, Note_on_c, 0, 74, 54
1, 260799, Note_on_c, 0, 74, 0
1, 260799, Note_on_c, 0, 81, 59
1, 260799, Note_on_c, 0, 64, 45
1, 260802, Note_on_c, 0, 57, 45
1, 260805, Note_on_c, 0, 67, 53
1, 260875, Note_on_c, 0, 81, 0
1, 260875, Note_on_c, 0, 79, 61
1, 260875, Note_on_c, 0, 57, 0
1, 260878, Note_on_c, 0, 64, 0
1, 260881, Note_on_c, 0, 67, 0
1, 260950, Note_on_c, 0, 79, 0
1, 260950, Note_on_c, 0, 78, 60
1, 261026, Note_on_c, 0, 78, 0
1, 261026, Note_on_c, 0, 76, 59
1, 261102, Note_on_c, 0, 76, 0
1, 261102, Note_on_c, 0, 74, 58
1, 261180, Note_on_c, 0, 74, 0
1, 261180, Note_on_c, 0, 73, 61
1, 261271, Note_on_c, 0, 73, 0
1, 261271, Note_on_c, 0, 74, 63
1, 261271, Note_on_c, 0, 66, 53
1, 261274, Note_on_c, 0, 62, 45
1, 261349, Note_on_c, 0, 74, 0
1, 261349, Note_on_c, 0, 62, 0
1, 261349, Note_on_c, 0, 66, 0
1, 261584, Note_on_c, 0, 62, 66
1, 261584, Note_on_c, 0, 38, 45
1, 261601, Control_c, 0, 64, 127
1, 261659, Note_on_c, 0, 62, 0
1, 261659, Note_on_c, 0, 66, 66
1, 261659, Note_on_c, 0, 38, 0
1, 261662, Note_on_c, 0, 42, 45
1, 261737, Note_on_c, 0, 66, 0
1, 261737, Note_on_c, 0, 69, 73
1, 261737, Note_on_c, 0, 42, 0
1, 261740, Note_on_c, 0, 45, 52
1, 261769, Control_c, 0, 64, 0
1, 261814, Note_on_c, 0, 69, 0
1, 261814, Note_on_c, 0, 45, 0
1, 262044, Note_on_c, 0, 66, 70
1, 262044, Note_on_c, 0, 42, 48
1, 262083, Control_c, 0, 64, 127
1, 262119, Note_on_c, 0, 66, 0
1, 262119, Note_on_c, 0, 69, 70
1, 262119, Note_on_c, 0, 42, 0
1, 262122, Note_on_c, 0, 45, 48
1, 262198, Note_on_c, 0, 69, 0
1, 262198, Note_on_c, 0, 74, 75
1, 262198, Note_on_c, 0, 45, 0
1, 262201, Note_on_c, 0, 50, 57
1, 262207, Control_c, 0, 64, 0
1, 262274, Note_on_c, 0, 74, 0
1, 262274, Note_on_c, 0, 50, 0
1, 262504, Note_on_c, 0, 69, 69
1, 262504, Note_on_c, 0, 45, 51
1, 262522, Control_c, 0, 64, 127
1, 262580, Note_on_c, 0, 69, 0
1, 262580, Note_on_c, 0, 74, 69
1, 262580, Note_on_c, 0, 45, 0
1, 262583, Note_on_c, 0, 50, 51
1, 262659, Note_on_c, 0, 74, 0
1, 262659, Note_on_c, 0, 78, 81
1, 262659, Note_on_c, 0, 50, 0
1, 262662, Note_on_c, 0, 54, 57
1, 262685, Control_c, 0, 64, 0
1, 262735, Note_on_c, 0, 78, 0
1, 262735, Note_on_c, 0, 54, 0
1, 262965, Note_on_c, 0, 74, 70
1, 262965, Note_on_c, 0, 50, 48
1, 262987, Control_c, 0, 64, 127
1, 263041, Note_on_c, 0, 74, 0
1, 263041, Note_on_c, 0, 78, 70
1, 263041, Note_on_c, 0, 50, 0
1, 263044, Note_on_c, 0, 54, 48
1, 263120, Note_on_c, 0, 78, 0
1, 263120, Note_on_c, 0, 81, 82
1, 263120, Note_on_c, 0, 54, 0
1, 263123, Note_on_c, 0, 57, 57
1, 263156, Control_c, 0, 64, 0
1, 263197, Note_on_c, 0, 81, 0
1, 263197, Note_on_c, 0, 57, 0
1, 264040, Note_on_c, 0, 81, 45
1, 264040, Note_on_c, 0, 57, 29
1, 264040, Note_on_c, 0, 66, 35
1, 264043, Note_on_c, 0, 62, 29
1, 264424, Note_on_c, 0, 81, 0
1, 264424, Note_on_c, 0, 83, 42
1, 264503, Note_on_c, 0, 83, 0
1, 264503, Note_on_c, 0, 74, 47
1, 264503, Note_on_c, 0, 62, 0
1, 264506, Note_on_c, 0, 66, 0
1, 264506, Note_on_c, 0, 64, 27
1, 264506, Note_on_c, 0, 67, 32
1, 264809, Note_on_c, 0, 74, 0
1, 264827, Note_on_c, 0, 73, 47
1, 264963, Note_on_c, 0, 74, 55
1, 264963, Note_on_c, 0, 67, 0
1, 264963, Note_on_c, 0, 64, 0
1, 264966, Note_on_c, 0, 62, 29
1, 264966, Note_on_c, 0, 66, 35
1, 264981, Note_on_c, 0, 73, 0
1, 265077, Note_on_c, 0, 74, 0
1, 265116, Note_on_c, 0, 86, 54
1, 265116, Note_on_c, 0, 66, 0
1, 265116, Note_on_c, 0, 62, 0
1, 265119, Note_on_c, 0, 57, 0
1, 265191, Note_on_c, 0, 86, 0
1, 265266, Note_on_c, 0, 85, 52
1, 265341, Note_on_c, 0, 85, 0
1, 265416, Note_on_c, 0, 83, 50
1, 265491, Note_on_c, 0, 83, 0
1, 265566, Note_on_c, 0, 81, 49
1, 265642, Note_on_c, 0, 81, 0
1, 265717, Note_on_c, 0, 80, 47
1, 265794, Note_on_c, 0, 80, 0
1, 265872, Note_on_c, 0, 81, 45
1, 265872, Note_on_c, 0, 57, 29
1, 265872, Note_on_c, 0, 62, 29
1, 265875, Note_on_c, 0, 66, 35
1, 266066, Note_on_c, 0, 81, 0
1, 266066, Note_on_c, 0, 83, 35
1, 266104, Note_on_c, 0, 83, 0
1, 266104, Note_on_c, 0, 81, 35
1, 266142, Note_on_c, 0, 81, 0
1, 266142, Note_on_c, 0, 80, 35
1, 266180, Note_on_c, 0, 80, 0
1, 266180, Note_on_c, 0, 81, 45
1, 266256, Note_on_c, 0, 81, 0
1, 266256, Note_on_c, 0, 83, 42
1, 266337, Note_on_c, 0, 83, 0
1, 266337, Note_on_c, 0, 74, 47
1, 266337, Note_on_c, 0, 66, 0
1, 266340, Note_on_c, 0, 62, 0
1, 266340, Note_on_c, 0, 67, 32
1, 266340, Note_on_c, 0, 64, 27
1, 266643, Note_on_c, 0, 74, 0
1, 266661, Note_on_c, 0, 73, 47
1, 266797, Note_on_c, 0, 74, 55
1, 266797, Note_on_c, 0, 64, 0
1, 266797, Note_on_c, 0, 67, 0
1, 266800, Note_on_c, 0, 62, 29
1, 266800, Note_on_c, 0, 66, 35
1, 266815, Note_on_c, 0, 73, 0
1, 266911, Note_on_c, 0, 74, 0
1, 266949, Note_on_c, 0, 86, 54
1, 266949, Note_on_c, 0, 66, 0
1, 266949, Note_on_c, 0, 62, 0
1, 266952, Note_on_c, 0, 57, 0
1, 267025, Note_on_c, 0, 86, 0
1, 267100, Note_on_c, 0, 85, 52
1, 267175, Note_on_c, 0, 85, 0
1, 267250, Note_on_c, 0, 83, 50
1, 267325, Note_on_c, 0, 83, 0
1, 267400, Note_on_c, 0, 81, 49
1, 267475, Note_on_c, 0, 81, 0
1, 267551, Note_on_c, 0, 80, 47
1, 267628, Note_on_c, 0, 80, 0
1, 267705, Note_on_c, 0, 81, 45
1, 267705, Note_on_c, 0, 57, 29
1, 267705, Note_on_c, 0, 62, 29
1, 267708, Note_on_c, 0, 66, 35
1, 267900, Note_on_c, 0, 81, 0
1, 267900, Note_on_c, 0, 83, 35
1, 267938, Note_on_c, 0, 83, 0
1, 267938, Note_on_c, 0, 81, 35
1, 267976, Note_on_c, 0, 81, 0
1, 267976, Note_on_c, 0, 80, 35
1, 268014, Note_on_c, 0, 80, 0
1, 268014, Note_on_c, 0, 81, 45
1, 268090, Note_on_c, 0, 81, 0
1, 268090, Note_on_c, 0, 83, 42
1, 268170, Note_on_c, 0, 83, 0
1, 268170, Note_on_c, 0, 74, 47
1, 268170, Note_on_c, 0, 66, 0
1, 268173, Note_on_c, 0, 62, 0
1, 268173, Note_on_c, 0, 67, 32
1, 268173, Note_on_c, 0, 64, 27
1, 268477, Note_on_c, 0, 74, 0
1, 268496, Note_on_c, 0, 73, 47
1, 268635, Note_on_c, 0, 74, 52
1, 268635, Note_on_c, 0, 64, 0
1, 268635, Note_on_c, 0, 67, 0
1, 268638, Note_on_c, 0, 57, 0
1, 268638, Note_on_c, 0, 62, 24
1, 268638, Note_on_c, 0, 66, 32
1, 268653, Note_on_c, 0, 73, 0
1, 268788, Note_on_c, 0, 74, 0
1, 268788, Note_on_c, 0, 66, 0
1, 268788, Note_on_c, 0, 62, 0
1, 269092, Note_on_c, 0, 59, 29
1, 269092, Note_on_c, 0, 62, 35
1, 269092, Note_on_c, 0, 54, 29
1, 269095, Note_on_c, 0, 47, 35
1, 269136, Control_c, 0, 64, 127
1, 269564, Note_on_c, 0, 54, 0
1, 269564, Note_on_c, 0, 62, 0
1, 269564, Note_on_c, 0, 59, 0
1, 269567, Note_on_c, 0, 59, 32
1, 269567, Note_on_c, 0, 64, 38
1, 269567, Note_on_c, 0, 62, 32
1, 269570, Note_on_c, 0, 47, 0
1, 269570, Note_on_c, 0, 43, 37
1, 269570, Control_c, 0, 64, 0
1, 269656, Control_c, 0, 64, 127
1, 270020, Note_on_c, 0, 62, 0
1, 270020, Note_on_c, 0, 64, 0
1, 270020, Note_on_c, 0, 59, 0
1, 270023, Note_on_c, 0, 69, 39
1, 270023, Note_on_c, 0, 64, 33
1, 270023, Note_on_c, 0, 61, 33
1, 270026, Note_on_c, 0, 43, 0
1, 270026, Note_on_c, 0, 45, 39
1, 270026, Control_c, 0, 64, 0
1, 270234, Control_c, 0, 64, 127
1, 270488, Note_on_c, 0, 61, 0
1, 270488, Note_on_c, 0, 64, 0
1, 270488, Note_on_c, 0, 69, 0
1, 270491, Note_on_c, 0, 66, 35
1, 270491, Note_on_c, 0, 57, 29
1, 270491, Note_on_c, 0, 62, 29
1, 270494, Note_on_c, 0, 45, 0
1, 270494, Note_on_c, 0, 38, 35
1, 270500, Control_c, 0, 64, 0
1, 270644, Note_on_c, 0, 62, 0
1, 270644, Note_on_c, 0, 57, 0
1, 270644, Note_on_c, 0, 66, 0
1, 270647, Note_on_c, 0, 38, 0
1, 270954, Note_on_c, 0, 83, 48
1, 270954, Note_on_c, 0, 78, 40
1, 270954, Note_on_c, 0, 47, 46
1, 270957, Note_on_c, 0, 59, 55
1, 270968, Control_c, 0, 64, 127
1, 271033, Note_on_c, 0, 78, 0
1, 271033, Note_on_c, 0, 83, 0
1, 271033, Note_on_c, 0, 86, 43
1, 271036, Note_on_c, 0, 59, 0
1, 271036, Note_on_c, 0, 47, 0
1, 271046, Control_c, 0, 64, 0
1, 271112, Note_on_c, 0, 86, 0
1, 271112, Note_on_c, 0, 83, 48
1, 271112, Note_on_c, 0, 78, 40
1, 271115, Note_on_c, 0, 47, 41
1, 271115, Note_on_c, 0, 59, 49
1, 271153, Control_c, 0, 64, 127
1, 271190, Note_on_c, 0, 78, 0
1, 271190, Note_on_c, 0, 83, 0
1, 271190, Note_on_c, 0, 86, 43
1, 271193, Note_on_c, 0, 59, 0
1, 271193, Note_on_c, 0, 47, 0
1, 271217, Control_c, 0, 64, 0
1, 271267, Note_on_c, 0, 86, 0
1, 271267, Note_on_c, 0, 78, 41
1, 271267, Note_on_c, 0, 83, 49
1, 271270, Note_on_c, 0, 47, 42
1, 271270, Note_on_c, 0, 59, 50
1, 271285, Control_c, 0, 64, 127
1, 271344, Note_on_c, 0, 83, 0
1, 271344, Note_on_c, 0, 78, 0
1, 271344, Note_on_c, 0, 86, 45
1, 271347, Note_on_c, 0, 59, 0
1, 271347, Note_on_c, 0, 47, 0
1, 271353, Control_c, 0, 64, 0
1, 271421, Note_on_c, 0, 86, 0
1, 271421, Note_on_c, 0, 83, 54
1, 271421, Note_on_c, 0, 76, 46
1, 271424, Note_on_c, 0, 43, 54
1, 271424, Note_on_c, 0, 55, 65
1, 271424, Control_c, 0, 64, 127
1, 271497, Note_on_c, 0, 76, 0
1, 271497, Note_on_c, 0, 83, 0
1, 271497, Note_on_c, 0, 86, 49
1, 271500, Note_on_c, 0, 55, 0
1, 271500, Note_on_c, 0, 43, 0
1, 271506, Control_c, 0, 64, 0
1, 271573, Note_on_c, 0, 86, 0
1, 271573, Note_on_c, 0, 76, 47
1, 271573, Note_on_c, 0, 83, 57
1, 271576, Note_on_c, 0, 43, 48
1, 271576, Note_on_c, 0, 55, 58
1, 271595, Control_c, 0, 64, 127
1, 271649, Note_on_c, 0, 83, 0
1, 271649, Note_on_c, 0, 76, 0
1, 271649, Note_on_c, 0, 86, 52
1, 271652, Note_on_c, 0, 55, 0
1, 271652, Note_on_c, 0, 43, 0
1, 271685, Control_c, 0, 64, 0
1, 271726, Note_on_c, 0, 86, 0
1, 271726, Note_on_c, 0, 83, 59
1, 271726, Note_on_c, 0, 76, 49
1, 271729, Note_on_c, 0, 43, 50
1, 271729, Note_on_c, 0, 55, 60
1, 271779, Control_c, 0, 64, 127
1, 271802, Note_on_c, 0, 76, 0
1, 271802, Note_on_c, 0, 83, 0
1, 271802, Note_on_c, 0, 86, 54
1, 271805, Note_on_c, 0, 55, 0
1, 271805, Note_on_c, 0, 43, 0
1, 271831, Control_c, 0, 64, 0
1, 271878, Note_on_c, 0, 86, 0
1, 271878, Note_on_c, 0, 79, 62
1, 271878, Note_on_c, 0, 76, 52
1, 271881, Note_on_c, 0, 45, 61
1, 271881, Note_on_c, 0, 57, 73
1, 271918, Control_c, 0, 64, 127
1, 271954, Note_on_c, 0, 76, 0
1, 271954, Note_on_c, 0, 79, 0
1, 271954, Note_on_c, 0, 85, 57
1, 271957, Note_on_c, 0, 57, 0
1, 271957, Note_on_c, 0, 45, 0
1, 271987, Control_c, 0, 64, 0
1, 272030, Note_on_c, 0, 85, 0
1, 272030, Note_on_c, 0, 76, 55
1, 272030, Note_on_c, 0, 79, 65
1, 272033, Note_on_c, 0, 45, 56
1, 272033, Note_on_c, 0, 57, 66
1, 272088, Control_c, 0, 64, 127
1, 272106, Note_on_c, 0, 79, 0
1, 272106, Note_on_c, 0, 76, 0
1, 272106, Note_on_c, 0, 85, 59
1, 272109, Note_on_c, 0, 57, 0
1, 272109, Note_on_c, 0, 45, 0
1, 272144, Control_c, 0, 64, 0
1, 272183, Note_on_c, 0, 85, 0
1, 272183, Note_on_c, 0, 76, 57
1, 272183, Note_on_c, 0, 79, 67
1, 272186, Note_on_c, 0, 45, 57
1, 272186, Note_on_c, 0, 57, 68
1, 272206, Control_c, 0, 64, 127
1, 272263, Note_on_c, 0, 79, 0
1, 272263, Note_on_c, 0, 76, 0
1, 272263, Note_on_c, 0, 85, 62
1, 272266, Note_on_c, 0, 57, 0
1, 272266, Note_on_c, 0, 45, 0
1, 272282, Control_c, 0, 64, 0
1, 272343, Note_on_c, 0, 85, 0
1, 272343, Note_on_c, 0, 86, 80
1, 272343, Note_on_c, 0, 81, 67
1, 272346, Note_on_c, 0, 78, 67
1, 272346, Note_on_c, 0, 74, 67
1, 272346, Note_on_c, 0, 38, 71
1, 272349, Note_on_c, 0, 50, 85
1, 272349, Control_c, 0, 64, 127
1, 272425, Note_on_c, 0, 74, 0
1, 272425, Note_on_c, 0, 86, 0
1, 272425, Note_on_c, 0, 81, 0
1, 272428, Note_on_c, 0, 78, 0
1, 272428, Note_on_c, 0, 50, 0
1, 272428, Note_on_c, 0, 38, 0
1, 272488, Control_c, 0, 64, 0
1, 272835, Note_on_c, 0, 78, 66
1, 272835, Note_on_c, 0, 74, 66
1, 272835, Note_on_c, 0, 69, 66
1, 272838, Note_on_c, 0, 81, 78
1, 272838, Note_on_c, 0, 38, 66
1, 272838, Note_on_c, 0, 45, 66
1, 272841, Note_on_c, 0, 42, 66
1, 272841, Note_on_c, 0, 50, 78
1, 272874, Control_c, 0, 64, 127
1, 272918, Note_on_c, 0, 81, 0
1, 272918, Note_on_c, 0, 78, 0
1, 272918, Note_on_c, 0, 74, 0
1, 272921, Note_on_c, 0, 69, 0
1, 272921, Note_on_c, 0, 50, 0
1, 272921, Note_on_c, 0, 38, 0
1, 272924, Note_on_c, 0, 45, 0
1, 272924, Note_on_c, 0, 42, 0
1, 273006, Control_c, 0, 64, 0
1, 273334, Note_on_c, 0, 78, 78
1, 273334, Note_on_c, 0, 74, 66
1, 273334, Note_on_c, 0, 69, 66
1, 273337, Note_on_c, 0, 38, 66
1, 273337, Note_on_c, 0, 42, 66
1, 273337, Note_on_c, 0, 45, 66
1, 273340, Note_on_c, 0, 50, 78
1, 273354, Control_c, 0, 64, 127
1, 273417, Note_on_c, 0, 69, 0
1, 273417, Note_on_c, 0, 74, 0
1, 273417, Note_on_c, 0, 78, 0
1, 273420, Note_on_c, 0, 50, 0
1, 273420, Note_on_c, 0, 38, 0
1, 273420, Note_on_c, 0, 42, 0
1, 273423, Note_on_c, 0, 45, 0
1, 273559, Control_c, 0, 64, 0
1, 275057, End_track
0, 0, End_of_file
