0, 0, Header, 0, 1, 480
1, 0, Start_track
1, 0, Title_t, "Haydn: Klaviersonate Hob. XVI:9, 2. Satz"
1, 0, Title_t, "Menuet"
1, 0, Copyright_t, "Copyright © 2011 by Bernd Krueger"
1, 0, Text_t, "Bernd Krueger"
1, 0, Text_t, "Erstellt: 8.11.2011\012"
1, 0, Text_t, "Dauer: 2:50 Minuten\012"
1, 0, Time_signature, 3, 2, 24, 8
1, 0, Key_signature, -1, "major"
1, 0, Tempo, 480692
1, 0, Marker_t, "Teil 1"
1, 0, Program_c, 0, 0
1, 0, Note_on_c, 0, 77, 62
1, 0, Program_c, 0, 0
1, 0, Note_on_c, 0, 41, 33
1, 0, Note_on_c, 0, 53, 39
1, 0, Program_c, 0, 0
1, 60, Note_on_c, 0, 77, 0
1, 60, Note_on_c, 0, 79, 48
1, 120, Note_on_c, 0, 79, 0
1, 120, Note_on_c, 0, 77, 56
1, 180, Note_on_c, 0, 77, 0
1, 180, Note_on_c, 0, 76, 48
1, 240, Note_on_c, 0, 76, 0
1, 240, Note_on_c, 0, 77, 61
1, 480, Note_on_c, 0, 53, 0
1, 480, Note_on_c, 0, 41, 0
1, 480, Note_on_c, 0, 57, 34
1, 480, Note_on_c, 0, 45, 28
1, 960, Tempo, 470404
1, 960, Note_on_c, 0, 45, 0
1, 960, Note_on_c, 0, 57, 0
1, 960, Note_on_c, 0, 77, 0
1, 960, Note_on_c, 0, 82, 55
1, 960, Note_on_c, 0, 60, 34
1, 960, Note_on_c, 0, 48, 28
1, 1120, Note_on_c, 0, 82, 0
1, 1120, Note_on_c, 0, 79, 46
1, 1280, Note_on_c, 0, 79, 0
1, 1280, Note_on_c, 0, 76, 45
1, 1440, Tempo, 480692
1, 1440, Note_on_c, 0, 76, 0
1, 1440, Note_on_c, 0, 48, 0
1, 1440, Note_on_c, 0, 60, 0
1, 1440, Note_on_c, 0, 77, 50
1, 1440, Note_on_c, 0, 53, 34
1, 1440, Note_on_c, 0, 65, 41
1, 1680, Note_on_c, 0, 77, 0
1, 1680, Note_on_c, 0, 81, 43
1, 1920, Tempo, 482470
1, 1920, Note_on_c, 0, 81, 0
1, 1920, Note_on_c, 0, 65, 0
1, 1920, Note_on_c, 0, 53, 0
1, 1920, Note_on_c, 0, 72, 50
1, 2400, Tempo, 504583
1, 2400, Note_on_c, 0, 72, 0
1, 2400, Note_on_c, 0, 70, 46
1, 2400, Note_on_c, 0, 67, 34
1, 2419, Tempo, 502681
1, 2439, Tempo, 500751
1, 2446, Control_c, 0, 64, 127
1, 2458, Tempo, 497018
1, 2460, Note_on_c, 0, 70, 0
1, 2460, Note_on_c, 0, 72, 41
1, 2477, Tempo, 495131
1, 2496, Tempo, 493299
1, 2515, Tempo, 489636
1, 2520, Note_on_c, 0, 72, 0
1, 2520, Note_on_c, 0, 70, 46
1, 2535, Tempo, 487805
1, 2554, Tempo, 486027
1, 2573, Tempo, 480692
1, 2580, Note_on_c, 0, 70, 0
1, 2580, Note_on_c, 0, 72, 41
1, 2611, Tempo, 482470
1, 2640, Note_on_c, 0, 72, 0
1, 2640, Note_on_c, 0, 70, 46
1, 2650, Tempo, 484222
1, 2669, Tempo, 486027
1, 2707, Tempo, 487805
1, 2720, Note_on_c, 0, 70, 0
1, 2720, Note_on_c, 0, 72, 43
1, 2727, Tempo, 489636
1, 2765, Tempo, 491441
1, 2784, Tempo, 493299
1, 2800, Note_on_c, 0, 72, 0
1, 2800, Note_on_c, 0, 70, 43
1, 2823, Tempo, 495131
1, 2842, Tempo, 497018
1, 2880, Tempo, 482470
1, 2880, Note_on_c, 0, 70, 0
1, 2880, Note_on_c, 0, 67, 0
1, 2880, Note_on_c, 0, 69, 50
1, 2880, Note_on_c, 0, 65, 41
1, 2886, Control_c, 0, 64, 0
1, 3120, Note_on_c, 0, 69, 0
1, 3120, Note_on_c, 0, 72, 43
1, 3360, Tempo, 472106
1, 3360, Note_on_c, 0, 72, 0
1, 3360, Note_on_c, 0, 65, 0
1, 3360, Note_on_c, 0, 77, 50
1, 3520, Note_on_c, 0, 77, 0
1, 3520, Note_on_c, 0, 76, 41
1, 3680, Note_on_c, 0, 76, 0
1, 3680, Note_on_c, 0, 74, 41
1, 3840, Note_on_c, 0, 74, 0
1, 3840, Note_on_c, 0, 72, 47
1, 4000, Note_on_c, 0, 72, 0
1, 4000, Note_on_c, 0, 70, 40
1, 4160, Note_on_c, 0, 70, 0
1, 4160, Note_on_c, 0, 69, 40
1, 4320, Tempo, 487805
1, 4320, Note_on_c, 0, 69, 0
1, 4320, Note_on_c, 0, 67, 50
1, 4320, Note_on_c, 0, 64, 41
1, 4800, Note_on_c, 0, 64, 0
1, 4800, Note_on_c, 0, 60, 34
1, 5040, Tempo, 467071
1, 5040, Note_on_c, 0, 67, 0
1, 5040, Note_on_c, 0, 69, 43
1, 5160, Note_on_c, 0, 69, 0
1, 5160, Note_on_c, 0, 70, 38
1, 5280, Tempo, 480692
1, 5280, Note_on_c, 0, 70, 0
1, 5280, Note_on_c, 0, 60, 0
1, 5280, Note_on_c, 0, 69, 47
1, 5280, Note_on_c, 0, 65, 41
1, 5520, Tempo, 524659
1, 5760, Tempo, 480692
1, 5760, Note_on_c, 0, 65, 0
1, 5760, Note_on_c, 0, 69, 0
1, 5760, Note_on_c, 0, 77, 64
1, 5760, Note_on_c, 0, 53, 39
1, 5820, Note_on_c, 0, 77, 0
1, 5820, Note_on_c, 0, 79, 51
1, 5880, Note_on_c, 0, 79, 0
1, 5880, Note_on_c, 0, 77, 56
1, 5940, Note_on_c, 0, 77, 0
1, 5940, Note_on_c, 0, 76, 50
1, 6000, Note_on_c, 0, 76, 0
1, 6000, Note_on_c, 0, 77, 57
1, 6240, Note_on_c, 0, 53, 0
1, 6240, Note_on_c, 0, 57, 34
1, 6720, Tempo, 472106
1, 6720, Note_on_c, 0, 57, 0
1, 6720, Note_on_c, 0, 77, 0
1, 6720, Note_on_c, 0, 82, 50
1, 6720, Note_on_c, 0, 60, 34
1, 6880, Note_on_c, 0, 82, 0
1, 6880, Note_on_c, 0, 79, 46
1, 7040, Note_on_c, 0, 79, 0
1, 7040, Note_on_c, 0, 76, 45
1, 7200, Tempo, 482470
1, 7200, Note_on_c, 0, 76, 0
1, 7200, Note_on_c, 0, 60, 0
1, 7200, Note_on_c, 0, 77, 50
1, 7200, Note_on_c, 0, 53, 34
1, 7200, Note_on_c, 0, 65, 41
1, 7440, Note_on_c, 0, 77, 0
1, 7440, Note_on_c, 0, 81, 43
1, 7680, Tempo, 497018
1, 7680, Note_on_c, 0, 81, 0
1, 7680, Note_on_c, 0, 65, 0
1, 7680, Note_on_c, 0, 53, 0
1, 7680, Note_on_c, 0, 72, 50
1, 8160, Tempo, 480692
1, 8160, Note_on_c, 0, 72, 0
1, 8160, Note_on_c, 0, 81, 50
1, 8160, Note_on_c, 0, 65, 34
1, 8320, Note_on_c, 0, 81, 0
1, 8320, Note_on_c, 0, 83, 46
1, 8480, Tempo, 516440
1, 8480, Note_on_c, 0, 83, 0
1, 8480, Note_on_c, 0, 84, 46
1, 8630, Note_on_c, 0, 84, 0
1, 8640, Tempo, 478965
1, 8640, Note_on_c, 0, 65, 0
1, 8640, Note_on_c, 0, 84, 54
1, 8640, Note_on_c, 0, 64, 41
1, 8800, Note_on_c, 0, 84, 0
1, 8800, Note_on_c, 0, 83, 48
1, 8960, Note_on_c, 0, 83, 0
1, 8960, Note_on_c, 0, 81, 48
1, 9120, Tempo, 486027
1, 9120, Note_on_c, 0, 81, 0
1, 9120, Note_on_c, 0, 79, 53
1, 9600, Tempo, 478965
1, 9600, Note_on_c, 0, 79, 0
1, 9600, Note_on_c, 0, 64, 0
1, 9600, Note_on_c, 0, 81, 50
1, 9600, Note_on_c, 0, 65, 35
1, 9760, Note_on_c, 0, 81, 0
1, 9760, Note_on_c, 0, 83, 47
1, 9920, Tempo, 516440
1, 9920, Note_on_c, 0, 83, 0
1, 9920, Note_on_c, 0, 84, 47
1, 10070, Note_on_c, 0, 84, 0
1, 10080, Tempo, 477213
1, 10080, Note_on_c, 0, 65, 0
1, 10080, Note_on_c, 0, 84, 53
1, 10080, Note_on_c, 0, 64, 41
1, 10240, Note_on_c, 0, 84, 0
1, 10240, Note_on_c, 0, 83, 46
1, 10400, Note_on_c, 0, 83, 0
1, 10400, Note_on_c, 0, 81, 46
1, 10560, Note_on_c, 0, 81, 0
1, 10560, Note_on_c, 0, 79, 50
1, 10720, Note_on_c, 0, 79, 0
1, 10720, Note_on_c, 0, 77, 44
1, 10880, Note_on_c, 0, 77, 0
1, 10880, Note_on_c, 0, 76, 44
1, 11040, Note_on_c, 0, 76, 0
1, 11040, Note_on_c, 0, 64, 0
1, 11040, Note_on_c, 0, 77, 48
1, 11040, Note_on_c, 0, 59, 38
1, 11040, Note_on_c, 0, 47, 32
1, 11200, Note_on_c, 0, 77, 0
1, 11200, Note_on_c, 0, 76, 45
1, 11360, Tempo, 512426
1, 11360, Note_on_c, 0, 76, 0
1, 11360, Note_on_c, 0, 74, 45
1, 11520, Tempo, 478965
1, 11520, Note_on_c, 0, 74, 0
1, 11520, Note_on_c, 0, 47, 0
1, 11520, Note_on_c, 0, 59, 0
1, 11520, Note_on_c, 0, 76, 50
1, 11520, Note_on_c, 0, 48, 34
1, 11520, Note_on_c, 0, 60, 41
1, 11680, Note_on_c, 0, 76, 0
1, 11680, Note_on_c, 0, 77, 46
1, 11840, Note_on_c, 0, 77, 0
1, 11840, Note_on_c, 0, 79, 46
1, 12000, Tempo, 482470
1, 12000, Note_on_c, 0, 79, 0
1, 12000, Note_on_c, 0, 60, 0
1, 12000, Note_on_c, 0, 48, 0
1, 12000, Note_on_c, 0, 72, 50
1, 12000, Note_on_c, 0, 64, 41
1, 12000, Note_on_c, 0, 55, 34
1, 12480, Tempo, 495131
1, 12480, Note_on_c, 0, 55, 0
1, 12480, Note_on_c, 0, 64, 0
1, 12480, Note_on_c, 0, 72, 0
1, 12480, Note_on_c, 0, 71, 46
1, 12480, Note_on_c, 0, 55, 28
1, 12480, Note_on_c, 0, 62, 34
1, 12540, Note_on_c, 0, 71, 0
1, 12540, Note_on_c, 0, 72, 41
1, 12555, Control_c, 0, 64, 127
1, 12595, Tempo, 493299
1, 12600, Note_on_c, 0, 72, 0
1, 12600, Note_on_c, 0, 71, 46
1, 12660, Note_on_c, 0, 71, 0
1, 12660, Note_on_c, 0, 72, 41
1, 12691, Tempo, 491441
1, 12720, Note_on_c, 0, 72, 0
1, 12720, Note_on_c, 0, 71, 46
1, 12730, Tempo, 493299
1, 12768, Tempo, 495131
1, 12800, Note_on_c, 0, 71, 0
1, 12800, Note_on_c, 0, 72, 43
1, 12807, Tempo, 497018
1, 12845, Tempo, 498878
1, 12880, Note_on_c, 0, 72, 0
1, 12880, Note_on_c, 0, 71, 43
1, 12883, Tempo, 500751
1, 12922, Tempo, 502681
1, 12941, Tempo, 504583
1, 12960, Tempo, 497018
1, 12960, Note_on_c, 0, 71, 0
1, 12960, Note_on_c, 0, 62, 0
1, 12960, Note_on_c, 0, 55, 0
1, 12960, Note_on_c, 0, 72, 50
1, 12960, Note_on_c, 0, 60, 41
1, 13003, Control_c, 0, 64, 0
1, 13440, Tempo, 520517
1, 13440, Note_on_c, 0, 60, 0
1, 13440, Note_on_c, 0, 55, 38
1, 13560, Note_on_c, 0, 55, 0
1, 13920, Note_on_c, 0, 72, 0
1, 13920, Note_on_c, 0, 48, 39
1, 14400, Tempo, 480692
1, 14400, Marker_t, "Teil 1 Wiederholung"
1, 14400, Note_on_c, 0, 48, 0
1, 14400, Note_on_c, 0, 77, 64
1, 14400, Note_on_c, 0, 41, 33
1, 14400, Note_on_c, 0, 53, 39
1, 14460, Note_on_c, 0, 77, 0
1, 14460, Note_on_c, 0, 79, 51
1, 14520, Note_on_c, 0, 79, 0
1, 14520, Note_on_c, 0, 77, 56
1, 14580, Note_on_c, 0, 77, 0
1, 14580, Note_on_c, 0, 76, 51
1, 14640, Note_on_c, 0, 76, 0
1, 14640, Note_on_c, 0, 77, 62
1, 14880, Note_on_c, 0, 53, 0
1, 14880, Note_on_c, 0, 41, 0
1, 14880, Note_on_c, 0, 57, 34
1, 14880, Note_on_c, 0, 45, 28
1, 15360, Tempo, 470404
1, 15360, Note_on_c, 0, 45, 0
1, 15360, Note_on_c, 0, 57, 0
1, 15360, Note_on_c, 0, 77, 0
1, 15360, Note_on_c, 0, 82, 50
1, 15360, Note_on_c, 0, 60, 34
1, 15360, Note_on_c, 0, 48, 28
1, 15520, Note_on_c, 0, 82, 0
1, 15520, Note_on_c, 0, 79, 46
1, 15680, Note_on_c, 0, 79, 0
1, 15680, Note_on_c, 0, 76, 45
1, 15840, Tempo, 480692
1, 15840, Note_on_c, 0, 76, 0
1, 15840, Note_on_c, 0, 48, 0
1, 15840, Note_on_c, 0, 60, 0
1, 15840, Note_on_c, 0, 77, 50
1, 15840, Note_on_c, 0, 53, 34
1, 15840, Note_on_c, 0, 65, 41
1, 16080, Note_on_c, 0, 77, 0
1, 16080, Note_on_c, 0, 81, 43
1, 16320, Tempo, 482470
1, 16320, Note_on_c, 0, 81, 0
1, 16320, Note_on_c, 0, 65, 0
1, 16320, Note_on_c, 0, 53, 0
1, 16320, Note_on_c, 0, 72, 50
1, 16800, Tempo, 504583
1, 16800, Note_on_c, 0, 72, 0
1, 16800, Note_on_c, 0, 70, 46
1, 16800, Note_on_c, 0, 67, 34
1, 16819, Tempo, 502681
1, 16839, Tempo, 500751
1, 16846, Control_c, 0, 64, 127
1, 16858, Tempo, 497018
1, 16860, Note_on_c, 0, 70, 0
1, 16860, Note_on_c, 0, 72, 41
1, 16877, Tempo, 495131
1, 16896, Tempo, 493299
1, 16915, Tempo, 489636
1, 16920, Note_on_c, 0, 72, 0
1, 16920, Note_on_c, 0, 70, 46
1, 16935, Tempo, 487805
1, 16954, Tempo, 486027
1, 16973, Tempo, 480692
1, 16980, Note_on_c, 0, 70, 0
1, 16980, Note_on_c, 0, 72, 41
1, 17011, Tempo, 482470
1, 17040, Note_on_c, 0, 72, 0
1, 17040, Note_on_c, 0, 70, 46
1, 17050, Tempo, 484222
1, 17069, Tempo, 486027
1, 17107, Tempo, 487805
1, 17120, Note_on_c, 0, 70, 0
1, 17120, Note_on_c, 0, 72, 43
1, 17127, Tempo, 489636
1, 17165, Tempo, 491441
1, 17184, Tempo, 493299
1, 17200, Note_on_c, 0, 72, 0
1, 17200, Note_on_c, 0, 70, 43
1, 17223, Tempo, 495131
1, 17242, Tempo, 497018
1, 17280, Tempo, 482470
1, 17280, Note_on_c, 0, 70, 0
1, 17280, Note_on_c, 0, 67, 0
1, 17280, Note_on_c, 0, 69, 50
1, 17280, Note_on_c, 0, 65, 41
1, 17286, Control_c, 0, 64, 0
1, 17520, Note_on_c, 0, 69, 0
1, 17520, Note_on_c, 0, 72, 43
1, 17760, Tempo, 472106
1, 17760, Note_on_c, 0, 72, 0
1, 17760, Note_on_c, 0, 65, 0
1, 17760, Note_on_c, 0, 77, 50
1, 17920, Note_on_c, 0, 77, 0
1, 17920, Note_on_c, 0, 76, 41
1, 18080, Note_on_c, 0, 76, 0
1, 18080, Note_on_c, 0, 74, 41
1, 18240, Note_on_c, 0, 74, 0
1, 18240, Note_on_c, 0, 72, 47
1, 18400, Note_on_c, 0, 72, 0
1, 18400, Note_on_c, 0, 70, 40
1, 18560, Note_on_c, 0, 70, 0
1, 18560, Note_on_c, 0, 69, 40
1, 18720, Tempo, 487805
1, 18720, Note_on_c, 0, 69, 0
1, 18720, Note_on_c, 0, 67, 50
1, 18720, Note_on_c, 0, 64, 41
1, 19200, Note_on_c, 0, 64, 0
1, 19200, Note_on_c, 0, 60, 34
1, 19440, Tempo, 460405
1, 19440, Note_on_c, 0, 67, 0
1, 19440, Note_on_c, 0, 69, 43
1, 19560, Note_on_c, 0, 69, 0
1, 19560, Note_on_c, 0, 70, 38
1, 19680, Tempo, 480692
1, 19680, Note_on_c, 0, 70, 0
1, 19680, Note_on_c, 0, 60, 0
1, 19680, Note_on_c, 0, 69, 47
1, 19680, Note_on_c, 0, 65, 41
1, 19920, Tempo, 524659
1, 20160, Tempo, 480692
1, 20160, Note_on_c, 0, 65, 0
1, 20160, Note_on_c, 0, 69, 0
1, 20160, Note_on_c, 0, 77, 64
1, 20160, Note_on_c, 0, 53, 39
1, 20220, Note_on_c, 0, 77, 0
1, 20220, Note_on_c, 0, 79, 51
1, 20280, Note_on_c, 0, 79, 0
1, 20280, Note_on_c, 0, 77, 56
1, 20340, Note_on_c, 0, 77, 0
1, 20340, Note_on_c, 0, 76, 54
1, 20400, Note_on_c, 0, 76, 0
1, 20400, Note_on_c, 0, 77, 65
1, 20640, Note_on_c, 0, 53, 0
1, 20640, Note_on_c, 0, 57, 34
1, 21120, Tempo, 472106
1, 21120, Note_on_c, 0, 57, 0
1, 21120, Note_on_c, 0, 77, 0
1, 21120, Note_on_c, 0, 82, 58
1, 21120, Note_on_c, 0, 60, 34
1, 21280, Note_on_c, 0, 82, 0
1, 21280, Note_on_c, 0, 79, 46
1, 21440, Note_on_c, 0, 79, 0
1, 21440, Note_on_c, 0, 76, 45
1, 21600, Tempo, 482470
1, 21600, Note_on_c, 0, 76, 0
1, 21600, Note_on_c, 0, 60, 0
1, 21600, Note_on_c, 0, 77, 50
1, 21600, Note_on_c, 0, 53, 34
1, 21600, Note_on_c, 0, 65, 41
1, 21840, Note_on_c, 0, 77, 0
1, 21840, Note_on_c, 0, 81, 43
1, 22080, Tempo, 497018
1, 22080, Note_on_c, 0, 81, 0
1, 22080, Note_on_c, 0, 65, 0
1, 22080, Note_on_c, 0, 53, 0
1, 22080, Note_on_c, 0, 72, 50
1, 22560, Tempo, 480692
1, 22560, Note_on_c, 0, 72, 0
1, 22560, Note_on_c, 0, 81, 50
1, 22560, Note_on_c, 0, 65, 34
1, 22720, Note_on_c, 0, 81, 0
1, 22720, Note_on_c, 0, 83, 46
1, 22880, Tempo, 516440
1, 22880, Note_on_c, 0, 83, 0
1, 22880, Note_on_c, 0, 84, 46
1, 23030, Note_on_c, 0, 84, 0
1, 23040, Tempo, 465766
1, 23040, Note_on_c, 0, 65, 0
1, 23040, Note_on_c, 0, 84, 54
1, 23040, Note_on_c, 0, 64, 41
1, 23200, Note_on_c, 0, 84, 0
1, 23200, Note_on_c, 0, 83, 48
1, 23280, Tempo, 476872
1, 23360, Note_on_c, 0, 83, 0
1, 23360, Note_on_c, 0, 81, 48
1, 23520, Tempo, 486027
1, 23520, Note_on_c, 0, 81, 0
1, 23520, Note_on_c, 0, 79, 53
1, 24000, Tempo, 478965
1, 24000, Note_on_c, 0, 79, 0
1, 24000, Note_on_c, 0, 64, 0
1, 24000, Note_on_c, 0, 81, 50
1, 24000, Note_on_c, 0, 65, 35
1, 24160, Note_on_c, 0, 81, 0
1, 24160, Note_on_c, 0, 83, 47
1, 24320, Tempo, 516440
1, 24320, Note_on_c, 0, 83, 0
1, 24320, Note_on_c, 0, 84, 47
1, 24470, Note_on_c, 0, 84, 0
1, 24480, Tempo, 469410
1, 24480, Note_on_c, 0, 65, 0
1, 24480, Note_on_c, 0, 84, 53
1, 24480, Note_on_c, 0, 64, 41
1, 24640, Note_on_c, 0, 84, 0
1, 24640, Note_on_c, 0, 83, 46
1, 24720, Tempo, 476872
1, 24800, Note_on_c, 0, 83, 0
1, 24800, Note_on_c, 0, 81, 46
1, 24960, Note_on_c, 0, 81, 0
1, 24960, Note_on_c, 0, 79, 50
1, 25120, Note_on_c, 0, 79, 0
1, 25120, Note_on_c, 0, 77, 44
1, 25280, Note_on_c, 0, 77, 0
1, 25280, Note_on_c, 0, 76, 44
1, 25440, Note_on_c, 0, 76, 0
1, 25440, Note_on_c, 0, 64, 0
1, 25440, Note_on_c, 0, 77, 48
1, 25440, Note_on_c, 0, 59, 38
1, 25440, Note_on_c, 0, 47, 32
1, 25600, Note_on_c, 0, 77, 0
1, 25600, Note_on_c, 0, 76, 45
1, 25760, Tempo, 512426
1, 25760, Note_on_c, 0, 76, 0
1, 25760, Note_on_c, 0, 74, 45
1, 25920, Tempo, 478965
1, 25920, Note_on_c, 0, 74, 0
1, 25920, Note_on_c, 0, 47, 0
1, 25920, Note_on_c, 0, 59, 0
1, 25920, Note_on_c, 0, 76, 50
1, 25920, Note_on_c, 0, 48, 34
1, 25920, Note_on_c, 0, 60, 41
1, 26080, Note_on_c, 0, 76, 0
1, 26080, Note_on_c, 0, 77, 46
1, 26240, Note_on_c, 0, 77, 0
1, 26240, Note_on_c, 0, 79, 46
1, 26400, Tempo, 482470
1, 26400, Note_on_c, 0, 79, 0
1, 26400, Note_on_c, 0, 60, 0
1, 26400, Note_on_c, 0, 48, 0
1, 26400, Note_on_c, 0, 72, 50
1, 26400, Note_on_c, 0, 64, 41
1, 26400, Note_on_c, 0, 55, 34
1, 26880, Tempo, 495131
1, 26880, Note_on_c, 0, 55, 0
1, 26880, Note_on_c, 0, 64, 0
1, 26880, Note_on_c, 0, 72, 0
1, 26880, Note_on_c, 0, 71, 46
1, 26880, Note_on_c, 0, 55, 28
1, 26880, Note_on_c, 0, 62, 34
1, 26940, Note_on_c, 0, 71, 0
1, 26940, Note_on_c, 0, 72, 41
1, 26955, Control_c, 0, 64, 127
1, 26995, Tempo, 493299
1, 27000, Note_on_c, 0, 72, 0
1, 27000, Note_on_c, 0, 71, 46
1, 27060, Note_on_c, 0, 71, 0
1, 27060, Note_on_c, 0, 72, 41
1, 27091, Tempo, 491441
1, 27120, Note_on_c, 0, 72, 0
1, 27120, Note_on_c, 0, 71, 46
1, 27130, Tempo, 493299
1, 27168, Tempo, 495131
1, 27200, Note_on_c, 0, 71, 0
1, 27200, Note_on_c, 0, 72, 43
1, 27207, Tempo, 497018
1, 27245, Tempo, 498878
1, 27280, Note_on_c, 0, 72, 0
1, 27280, Note_on_c, 0, 71, 43
1, 27283, Tempo, 500751
1, 27322, Tempo, 502681
1, 27341, Tempo, 504583
1, 27360, Tempo, 497018
1, 27360, Note_on_c, 0, 71, 0
1, 27360, Note_on_c, 0, 62, 0
1, 27360, Note_on_c, 0, 55, 0
1, 27360, Note_on_c, 0, 72, 50
1, 27360, Note_on_c, 0, 60, 41
1, 27403, Control_c, 0, 64, 0
1, 27840, Tempo, 520517
1, 27840, Note_on_c, 0, 60, 0
1, 27840, Note_on_c, 0, 55, 38
1, 27960, Note_on_c, 0, 55, 0
1, 28320, Tempo, 538987
1, 28320, Note_on_c, 0, 72, 0
1, 28320, Note_on_c, 0, 48, 39
1, 28800, Tempo, 480692
1, 28800, Marker_t, "Teil 2"
1, 28800, Note_on_c, 0, 48, 0
1, 28800, Note_on_c, 0, 72, 50
1, 28800, Note_on_c, 0, 60, 33
1, 29280, Note_on_c, 0, 67, 34
1, 29760, Tempo, 470404
1, 29760, Note_on_c, 0, 67, 0
1, 29760, Note_on_c, 0, 72, 0
1, 29760, Note_on_c, 0, 79, 50
1, 29760, Note_on_c, 0, 70, 34
1, 29920, Note_on_c, 0, 79, 0
1, 29920, Note_on_c, 0, 76, 46
1, 30080, Note_on_c, 0, 76, 0
1, 30080, Note_on_c, 0, 72, 45
1, 30237, Tempo, 473111
1, 30240, Note_on_c, 0, 72, 0
1, 30240, Note_on_c, 0, 70, 0
1, 30240, Note_on_c, 0, 81, 50
1, 30240, Note_on_c, 0, 69, 46
1, 30333, Tempo, 474984
1, 30400, Note_on_c, 0, 81, 0
1, 30400, Note_on_c, 0, 77, 45
1, 30409, Tempo, 476872
1, 30486, Tempo, 478774
1, 30560, Note_on_c, 0, 77, 0
1, 30560, Note_on_c, 0, 72, 45
1, 30582, Tempo, 480692
1, 30659, Tempo, 482625
1, 30720, Note_on_c, 0, 72, 0
1, 30720, Note_on_c, 0, 69, 0
1, 30720, Note_on_c, 0, 82, 55
1, 30720, Note_on_c, 0, 64, 41
1, 30736, Tempo, 476872
1, 30880, Note_on_c, 0, 82, 0
1, 30880, Note_on_c, 0, 81, 48
1, 30889, Tempo, 478774
1, 31040, Note_on_c, 0, 81, 0
1, 31040, Note_on_c, 0, 79, 48
1, 31043, Tempo, 480692
1, 31177, Tempo, 482625
1, 31200, Note_on_c, 0, 79, 0
1, 31200, Note_on_c, 0, 64, 0
1, 31200, Note_on_c, 0, 60, 0
1, 31200, Note_on_c, 0, 81, 54
1, 31200, Note_on_c, 0, 65, 47
1, 31216, Tempo, 474984
1, 31293, Tempo, 476872
1, 31369, Tempo, 478774
1, 31446, Tempo, 480692
1, 31523, Tempo, 482625
1, 31600, Tempo, 484574
1, 31677, Tempo, 486539
1, 31680, Tempo, 482470
1, 31680, Note_on_c, 0, 65, 0
1, 31680, Note_on_c, 0, 81, 0
1, 31680, Note_on_c, 0, 79, 53
1, 31680, Note_on_c, 0, 58, 46
1, 31840, Tempo, 480692
1, 31840, Note_on_c, 0, 79, 0
1, 31840, Note_on_c, 0, 82, 50
1, 32000, Note_on_c, 0, 82, 0
1, 32000, Note_on_c, 0, 81, 47
1, 32160, Tempo, 504583
1, 32160, Note_on_c, 0, 81, 0
1, 32160, Note_on_c, 0, 79, 51
1, 32320, Tempo, 480692
1, 32320, Note_on_c, 0, 79, 0
1, 32320, Note_on_c, 0, 86, 55
1, 32480, Note_on_c, 0, 86, 0
1, 32480, Note_on_c, 0, 84, 49
1, 32640, Note_on_c, 0, 84, 0
1, 32640, Note_on_c, 0, 58, 0
1, 32640, Note_on_c, 0, 82, 54
1, 32640, Note_on_c, 0, 59, 42
1, 32800, Note_on_c, 0, 82, 0
1, 32800, Note_on_c, 0, 81, 50
1, 32960, Tempo, 518493
1, 32960, Note_on_c, 0, 81, 0
1, 32960, Note_on_c, 0, 79, 45
1, 33120, Tempo, 498878
1, 33120, Note_on_c, 0, 79, 0
1, 33120, Note_on_c, 0, 59, 0
1, 33120, Note_on_c, 0, 77, 50
1, 33120, Note_on_c, 0, 60, 46
1, 33360, Note_on_c, 0, 77, 0
1, 33360, Note_on_c, 0, 76, 43
1, 33600, Tempo, 508475
1, 33600, Note_on_c, 0, 60, 0
1, 33600, Note_on_c, 0, 55, 40
1, 33720, Note_on_c, 0, 55, 0
1, 34080, Tempo, 514447
1, 34080, Note_on_c, 0, 76, 0
1, 34080, Note_on_c, 0, 48, 35
1, 34560, Tempo, 500751
1, 34560, Note_on_c, 0, 48, 0
1, 34560, Note_on_c, 0, 60, 40
1, 34720, Tempo, 478965
1, 34800, Tempo, 478965
1, 34800, Note_on_c, 0, 72, 45
1, 35040, Tempo, 482470
1, 35040, Note_on_c, 0, 60, 0
1, 35040, Note_on_c, 0, 68, 37
1, 35280, Tempo, 475511
1, 35280, Note_on_c, 0, 72, 0
1, 35280, Note_on_c, 0, 80, 53
1, 35520, Tempo, 484222
1, 35520, Note_on_c, 0, 68, 0
1, 35520, Note_on_c, 0, 65, 33
1, 35760, Tempo, 487805
1, 35760, Note_on_c, 0, 80, 0
1, 35760, Note_on_c, 0, 72, 48
1, 36000, Tempo, 494560
1, 36000, Note_on_c, 0, 65, 0
1, 36000, Note_on_c, 0, 67, 41
1, 36240, Tempo, 480692
1, 36240, Note_on_c, 0, 72, 0
1, 36240, Note_on_c, 0, 70, 40
1, 36480, Tempo, 482470
1, 36480, Note_on_c, 0, 70, 0
1, 36480, Note_on_c, 0, 67, 0
1, 36480, Note_on_c, 0, 79, 49
1, 36480, Note_on_c, 0, 64, 33
1, 36720, Tempo, 475511
1, 36720, Note_on_c, 0, 79, 0
1, 36720, Note_on_c, 0, 70, 40
1, 36960, Tempo, 486027
1, 36960, Note_on_c, 0, 64, 0
1, 36960, Note_on_c, 0, 65, 33
1, 37200, Tempo, 484222
1, 37200, Note_on_c, 0, 70, 0
1, 37200, Note_on_c, 0, 68, 40
1, 37440, Tempo, 487805
1, 37440, Note_on_c, 0, 65, 0
1, 37440, Note_on_c, 0, 58, 42
1, 37600, Tempo, 480692
1, 37680, Note_on_c, 0, 68, 0
1, 37680, Note_on_c, 0, 67, 43
1, 37920, Tempo, 504583
1, 37920, Note_on_c, 0, 67, 0
1, 37920, Note_on_c, 0, 73, 50
1, 38080, Tempo, 480692
1, 38160, Note_on_c, 0, 73, 0
1, 38160, Note_on_c, 0, 70, 46
1, 38400, Note_on_c, 0, 70, 0
1, 38400, Note_on_c, 0, 58, 0
1, 38400, Note_on_c, 0, 67, 47
1, 38400, Note_on_c, 0, 59, 41
1, 38640, Note_on_c, 0, 67, 0
1, 38640, Note_on_c, 0, 65, 43
1, 38720, Tempo, 518493
1, 38880, Tempo, 498878
1, 38880, Note_on_c, 0, 65, 0
1, 38880, Note_on_c, 0, 59, 0
1, 38880, Note_on_c, 0, 65, 47
1, 38880, Note_on_c, 0, 60, 43
1, 39120, Note_on_c, 0, 65, 0
1, 39120, Note_on_c, 0, 64, 39
1, 39360, Tempo, 508475
1, 39360, Note_on_c, 0, 60, 0
1, 39360, Note_on_c, 0, 55, 34
1, 39480, Note_on_c, 0, 55, 0
1, 39840, Tempo, 524659
1, 39840, Note_on_c, 0, 64, 0
1, 39840, Note_on_c, 0, 48, 37
1, 40320, Tempo, 480692
1, 40320, Note_on_c, 0, 48, 0
1, 40320, Note_on_c, 0, 77, 64
1, 40320, Note_on_c, 0, 41, 33
1, 40320, Note_on_c, 0, 53, 39
1, 40380, Note_on_c, 0, 77, 0
1, 40380, Note_on_c, 0, 79, 51
1, 40440, Note_on_c, 0, 79, 0
1, 40440, Note_on_c, 0, 77, 56
1, 40500, Note_on_c, 0, 77, 0
1, 40500, Note_on_c, 0, 76, 51
1, 40560, Note_on_c, 0, 76, 0
1, 40560, Note_on_c, 0, 77, 64
1, 40800, Note_on_c, 0, 53, 0
1, 40800, Note_on_c, 0, 41, 0
1, 40800, Note_on_c, 0, 57, 34
1, 40800, Note_on_c, 0, 45, 28
1, 41280, Tempo, 470404
1, 41280, Note_on_c, 0, 45, 0
1, 41280, Note_on_c, 0, 57, 0
1, 41280, Note_on_c, 0, 77, 0
1, 41280, Note_on_c, 0, 82, 55
1, 41280, Note_on_c, 0, 60, 34
1, 41280, Note_on_c, 0, 48, 28
1, 41440, Note_on_c, 0, 82, 0
1, 41440, Note_on_c, 0, 79, 46
1, 41600, Note_on_c, 0, 79, 0
1, 41600, Note_on_c, 0, 76, 45
1, 41760, Tempo, 480692
1, 41760, Note_on_c, 0, 76, 0
1, 41760, Note_on_c, 0, 48, 0
1, 41760, Note_on_c, 0, 60, 0
1, 41760, Note_on_c, 0, 77, 50
1, 41760, Note_on_c, 0, 53, 34
1, 41760, Note_on_c, 0, 65, 41
1, 42000, Note_on_c, 0, 77, 0
1, 42000, Note_on_c, 0, 81, 43
1, 42240, Tempo, 482470
1, 42240, Note_on_c, 0, 81, 0
1, 42240, Note_on_c, 0, 65, 0
1, 42240, Note_on_c, 0, 53, 0
1, 42240, Note_on_c, 0, 72, 50
1, 42720, Tempo, 504583
1, 42720, Note_on_c, 0, 72, 0
1, 42720, Note_on_c, 0, 70, 46
1, 42720, Note_on_c, 0, 67, 34
1, 42739, Tempo, 502681
1, 42759, Tempo, 500751
1, 42766, Control_c, 0, 64, 127
1, 42778, Tempo, 497018
1, 42780, Note_on_c, 0, 70, 0
1, 42780, Note_on_c, 0, 72, 41
1, 42797, Tempo, 495131
1, 42816, Tempo, 493299
1, 42835, Tempo, 489636
1, 42840, Note_on_c, 0, 72, 0
1, 42840, Note_on_c, 0, 70, 46
1, 42855, Tempo, 487805
1, 42874, Tempo, 486027
1, 42893, Tempo, 480692
1, 42900, Note_on_c, 0, 70, 0
1, 42900, Note_on_c, 0, 72, 41
1, 42931, Tempo, 482470
1, 42960, Note_on_c, 0, 72, 0
1, 42960, Note_on_c, 0, 70, 46
1, 42970, Tempo, 484222
1, 42989, Tempo, 486027
1, 43027, Tempo, 487805
1, 43040, Note_on_c, 0, 70, 0
1, 43040, Note_on_c, 0, 72, 43
1, 43047, Tempo, 489636
1, 43085, Tempo, 491441
1, 43104, Tempo, 493299
1, 43120, Note_on_c, 0, 72, 0
1, 43120, Note_on_c, 0, 70, 43
1, 43143, Tempo, 495131
1, 43162, Tempo, 497018
1, 43200, Tempo, 482470
1, 43200, Note_on_c, 0, 70, 0
1, 43200, Note_on_c, 0, 67, 0
1, 43200, Note_on_c, 0, 69, 50
1, 43200, Note_on_c, 0, 65, 41
1, 43206, Control_c, 0, 64, 0
1, 43440, Note_on_c, 0, 69, 0
1, 43440, Note_on_c, 0, 72, 43
1, 43680, Tempo, 472106
1, 43680, Note_on_c, 0, 72, 0
1, 43680, Note_on_c, 0, 65, 0
1, 43680, Note_on_c, 0, 77, 50
1, 43840, Note_on_c, 0, 77, 0
1, 43840, Note_on_c, 0, 76, 41
1, 44000, Note_on_c, 0, 76, 0
1, 44000, Note_on_c, 0, 74, 41
1, 44160, Note_on_c, 0, 74, 0
1, 44160, Note_on_c, 0, 72, 47
1, 44320, Note_on_c, 0, 72, 0
1, 44320, Note_on_c, 0, 70, 40
1, 44480, Note_on_c, 0, 70, 0
1, 44480, Note_on_c, 0, 69, 40
1, 44640, Tempo, 487805
1, 44640, Note_on_c, 0, 69, 0
1, 44640, Note_on_c, 0, 67, 50
1, 44640, Note_on_c, 0, 64, 41
1, 45120, Note_on_c, 0, 64, 0
1, 45120, Note_on_c, 0, 60, 34
1, 45360, Tempo, 467071
1, 45360, Note_on_c, 0, 67, 0
1, 45360, Note_on_c, 0, 69, 43
1, 45480, Note_on_c, 0, 69, 0
1, 45480, Note_on_c, 0, 70, 38
1, 45600, Tempo, 480692
1, 45600, Note_on_c, 0, 70, 0
1, 45600, Note_on_c, 0, 60, 0
1, 45600, Note_on_c, 0, 69, 47
1, 45600, Note_on_c, 0, 65, 41
1, 45840, Tempo, 524659
1, 46080, Tempo, 480692
1, 46080, Note_on_c, 0, 65, 0
1, 46080, Note_on_c, 0, 69, 0
1, 46080, Note_on_c, 0, 77, 64
1, 46080, Note_on_c, 0, 41, 33
1, 46080, Note_on_c, 0, 53, 39
1, 46140, Note_on_c, 0, 77, 0
1, 46140, Note_on_c, 0, 79, 51
1, 46200, Note_on_c, 0, 79, 0
1, 46200, Note_on_c, 0, 77, 56
1, 46260, Note_on_c, 0, 77, 0
1, 46260, Note_on_c, 0, 76, 54
1, 46320, Note_on_c, 0, 76, 0
1, 46320, Note_on_c, 0, 77, 63
1, 46560, Note_on_c, 0, 53, 0
1, 46560, Note_on_c, 0, 41, 0
1, 46560, Note_on_c, 0, 45, 28
1, 46560, Note_on_c, 0, 57, 34
1, 47040, Tempo, 467581
1, 47040, Note_on_c, 0, 57, 0
1, 47040, Note_on_c, 0, 45, 0
1, 47040, Note_on_c, 0, 77, 0
1, 47040, Note_on_c, 0, 82, 55
1, 47040, Note_on_c, 0, 48, 28
1, 47040, Note_on_c, 0, 60, 34
1, 47200, Note_on_c, 0, 82, 0
1, 47200, Note_on_c, 0, 79, 46
1, 47360, Note_on_c, 0, 79, 0
1, 47360, Note_on_c, 0, 76, 45
1, 47400, Tempo, 486539
1, 47520, Tempo, 482470
1, 47520, Note_on_c, 0, 76, 0
1, 47520, Note_on_c, 0, 60, 0
1, 47520, Note_on_c, 0, 48, 0
1, 47520, Note_on_c, 0, 77, 50
1, 47520, Note_on_c, 0, 53, 34
1, 47520, Note_on_c, 0, 65, 41
1, 47760, Note_on_c, 0, 77, 0
1, 47760, Note_on_c, 0, 81, 43
1, 48000, Tempo, 497018
1, 48000, Note_on_c, 0, 81, 0
1, 48000, Note_on_c, 0, 65, 0
1, 48000, Note_on_c, 0, 53, 0
1, 48000, Note_on_c, 0, 72, 50
1, 48480, Tempo, 480692
1, 48480, Note_on_c, 0, 72, 0
1, 48480, Note_on_c, 0, 74, 50
1, 48480, Note_on_c, 0, 46, 28
1, 48480, Note_on_c, 0, 58, 34
1, 48640, Note_on_c, 0, 74, 0
1, 48640, Note_on_c, 0, 76, 46
1, 48800, Tempo, 516440
1, 48800, Note_on_c, 0, 76, 0
1, 48800, Note_on_c, 0, 77, 46
1, 48950, Note_on_c, 0, 77, 0
1, 48960, Tempo, 478965
1, 48960, Note_on_c, 0, 58, 0
1, 48960, Note_on_c, 0, 46, 0
1, 48960, Note_on_c, 0, 77, 54
1, 48960, Note_on_c, 0, 57, 41
1, 48960, Note_on_c, 0, 45, 34
1, 49120, Note_on_c, 0, 77, 0
1, 49120, Note_on_c, 0, 76, 48
1, 49280, Note_on_c, 0, 76, 0
1, 49280, Note_on_c, 0, 74, 48
1, 49440, Tempo, 486027
1, 49440, Note_on_c, 0, 74, 0
1, 49440, Note_on_c, 0, 45, 0
1, 49440, Note_on_c, 0, 57, 0
1, 49440, Note_on_c, 0, 72, 51
1, 49440, Note_on_c, 0, 65, 27
1, 49440, Note_on_c, 0, 53, 22
1, 49920, Tempo, 478965
1, 49920, Note_on_c, 0, 53, 0
1, 49920, Note_on_c, 0, 65, 0
1, 49920, Note_on_c, 0, 72, 0
1, 49920, Note_on_c, 0, 74, 50
1, 49920, Note_on_c, 0, 58, 35
1, 49920, Note_on_c, 0, 46, 29
1, 50080, Note_on_c, 0, 74, 0
1, 50080, Note_on_c, 0, 76, 47
1, 50240, Tempo, 516440
1, 50240, Note_on_c, 0, 76, 0
1, 50240, Note_on_c, 0, 77, 47
1, 50390, Note_on_c, 0, 77, 0
1, 50400, Tempo, 477213
1, 50400, Note_on_c, 0, 46, 0
1, 50400, Note_on_c, 0, 58, 0
1, 50400, Note_on_c, 0, 77, 53
1, 50400, Note_on_c, 0, 45, 34
1, 50400, Note_on_c, 0, 57, 41
1, 50560, Note_on_c, 0, 77, 0
1, 50560, Note_on_c, 0, 76, 46
1, 50720, Tempo, 557984
1, 50720, Note_on_c, 0, 76, 0
1, 50720, Note_on_c, 0, 74, 43
1, 50880, Tempo, 477213
1, 50880, Note_on_c, 0, 74, 0
1, 50880, Note_on_c, 0, 57, 0
1, 50880, Note_on_c, 0, 45, 0
1, 50880, Note_on_c, 0, 72, 57
1, 50880, Note_on_c, 0, 53, 23
1, 50880, Note_on_c, 0, 65, 28
1, 51040, Note_on_c, 0, 72, 0
1, 51040, Note_on_c, 0, 77, 49
1, 51200, Tempo, 491441
1, 51200, Note_on_c, 0, 77, 0
1, 51200, Note_on_c, 0, 81, 53
1, 51360, Tempo, 477213
1, 51360, Note_on_c, 0, 81, 0
1, 51360, Note_on_c, 0, 65, 0
1, 51360, Note_on_c, 0, 53, 0
1, 51360, Note_on_c, 0, 72, 57
1, 51360, Note_on_c, 0, 52, 30
1, 51360, Note_on_c, 0, 64, 36
1, 51520, Note_on_c, 0, 72, 0
1, 51520, Note_on_c, 0, 79, 49
1, 51680, Tempo, 512426
1, 51680, Note_on_c, 0, 79, 0
1, 51680, Note_on_c, 0, 82, 55
1, 51840, Tempo, 478965
1, 51840, Note_on_c, 0, 82, 0
1, 51840, Note_on_c, 0, 64, 0
1, 51840, Note_on_c, 0, 52, 0
1, 51840, Note_on_c, 0, 81, 57
1, 51840, Note_on_c, 0, 53, 28
1, 51840, Note_on_c, 0, 65, 41
1, 52000, Note_on_c, 0, 81, 0
1, 52000, Note_on_c, 0, 82, 46
1, 52160, Note_on_c, 0, 82, 0
1, 52160, Note_on_c, 0, 84, 46
1, 52320, Tempo, 482470
1, 52320, Note_on_c, 0, 84, 0
1, 52320, Note_on_c, 0, 65, 0
1, 52320, Note_on_c, 0, 53, 0
1, 52320, Note_on_c, 0, 77, 50
1, 52320, Note_on_c, 0, 57, 41
1, 52320, Note_on_c, 0, 48, 34
1, 52800, Tempo, 495131
1, 52800, Note_on_c, 0, 48, 0
1, 52800, Note_on_c, 0, 57, 0
1, 52800, Note_on_c, 0, 77, 0
1, 52800, Note_on_c, 0, 76, 46
1, 52800, Note_on_c, 0, 48, 28
1, 52800, Note_on_c, 0, 55, 34
1, 52860, Note_on_c, 0, 76, 0
1, 52860, Note_on_c, 0, 77, 41
1, 52875, Control_c, 0, 64, 127
1, 52915, Tempo, 493299
1, 52920, Note_on_c, 0, 77, 0
1, 52920, Note_on_c, 0, 76, 46
1, 52980, Note_on_c, 0, 76, 0
1, 52980, Note_on_c, 0, 77, 41
1, 53011, Tempo, 491441
1, 53040, Note_on_c, 0, 77, 0
1, 53040, Note_on_c, 0, 76, 46
1, 53050, Tempo, 493299
1, 53088, Tempo, 495131
1, 53120, Note_on_c, 0, 76, 0
1, 53120, Note_on_c, 0, 77, 43
1, 53127, Tempo, 497018
1, 53165, Tempo, 498878
1, 53200, Note_on_c, 0, 77, 0
1, 53200, Note_on_c, 0, 76, 43
1, 53203, Tempo, 500751
1, 53242, Tempo, 502681
1, 53261, Tempo, 504583
1, 53280, Tempo, 497018
1, 53280, Note_on_c, 0, 76, 0
1, 53280, Note_on_c, 0, 55, 0
1, 53280, Note_on_c, 0, 48, 0
1, 53280, Note_on_c, 0, 77, 50
1, 53280, Note_on_c, 0, 53, 41
1, 53323, Control_c, 0, 64, 0
1, 53760, Tempo, 520517
1, 53760, Note_on_c, 0, 53, 0
1, 53760, Note_on_c, 0, 48, 38
1, 53880, Note_on_c, 0, 48, 0
1, 54240, Note_on_c, 0, 77, 0
1, 54240, Note_on_c, 0, 41, 39
1, 54720, Tempo, 480692
1, 54720, Marker_t, "Teil 2 Wiederholung"
1, 54720, Note_on_c, 0, 41, 0
1, 54720, Note_on_c, 0, 72, 50
1, 54720, Note_on_c, 0, 60, 33
1, 55200, Note_on_c, 0, 67, 34
1, 55680, Tempo, 470404
1, 55680, Note_on_c, 0, 67, 0
1, 55680, Note_on_c, 0, 72, 0
1, 55680, Note_on_c, 0, 79, 50
1, 55680, Note_on_c, 0, 70, 34
1, 55840, Note_on_c, 0, 79, 0
1, 55840, Note_on_c, 0, 76, 46
1, 56000, Note_on_c, 0, 76, 0
1, 56000, Note_on_c, 0, 72, 45
1, 56138, Tempo, 471254
1, 56160, Note_on_c, 0, 72, 0
1, 56160, Note_on_c, 0, 70, 0
1, 56160, Note_on_c, 0, 81, 50
1, 56160, Note_on_c, 0, 69, 46
1, 56215, Tempo, 473111
1, 56292, Tempo, 474984
1, 56320, Note_on_c, 0, 81, 0
1, 56320, Note_on_c, 0, 77, 45
1, 56369, Tempo, 476872
1, 56426, Tempo, 478774
1, 56480, Note_on_c, 0, 77, 0
1, 56480, Note_on_c, 0, 72, 45
1, 56503, Tempo, 480692
1, 56580, Tempo, 482625
1, 56637, Tempo, 474984
1, 56640, Note_on_c, 0, 72, 0
1, 56640, Note_on_c, 0, 69, 0
1, 56640, Note_on_c, 0, 82, 55
1, 56640, Note_on_c, 0, 64, 41
1, 56714, Tempo, 476872
1, 56791, Tempo, 478774
1, 56800, Note_on_c, 0, 82, 0
1, 56800, Note_on_c, 0, 81, 48
1, 56868, Tempo, 480692
1, 56945, Tempo, 482625
1, 56960, Note_on_c, 0, 81, 0
1, 56960, Note_on_c, 0, 79, 48
1, 57021, Tempo, 484574
1, 57098, Tempo, 486539
1, 57120, Note_on_c, 0, 79, 0
1, 57120, Note_on_c, 0, 64, 0
1, 57120, Note_on_c, 0, 60, 0
1, 57120, Note_on_c, 0, 81, 54
1, 57120, Note_on_c, 0, 65, 47
1, 57137, Tempo, 473111
1, 57194, Tempo, 474984
1, 57233, Tempo, 476872
1, 57271, Tempo, 478774
1, 57309, Tempo, 480692
1, 57348, Tempo, 482625
1, 57405, Tempo, 484574
1, 57444, Tempo, 486539
1, 57482, Tempo, 488520
1, 57521, Tempo, 490517
1, 57559, Tempo, 492530
1, 57600, Tempo, 482470
1, 57600, Note_on_c, 0, 65, 0
1, 57600, Note_on_c, 0, 81, 0
1, 57600, Note_on_c, 0, 79, 53
1, 57600, Note_on_c, 0, 58, 46
1, 57760, Tempo, 480692
1, 57760, Note_on_c, 0, 79, 0
1, 57760, Note_on_c, 0, 82, 50
1, 57920, Note_on_c, 0, 82, 0
1, 57920, Note_on_c, 0, 81, 47
1, 58080, Tempo, 504583
1, 58080, Note_on_c, 0, 81, 0
1, 58080, Note_on_c, 0, 79, 51
1, 58240, Tempo, 480692
1, 58240, Note_on_c, 0, 79, 0
1, 58240, Note_on_c, 0, 86, 54
1, 58400, Note_on_c, 0, 86, 0
1, 58400, Note_on_c, 0, 84, 49
1, 58560, Note_on_c, 0, 84, 0
1, 58560, Note_on_c, 0, 58, 0
1, 58560, Note_on_c, 0, 82, 54
1, 58560, Note_on_c, 0, 59, 42
1, 58720, Note_on_c, 0, 82, 0
1, 58720, Note_on_c, 0, 81, 50
1, 58880, Tempo, 518493
1, 58880, Note_on_c, 0, 81, 0
1, 58880, Note_on_c, 0, 79, 45
1, 58920, Tempo, 531821
1, 59040, Tempo, 498878
1, 59040, Note_on_c, 0, 79, 0
1, 59040, Note_on_c, 0, 59, 0
1, 59040, Note_on_c, 0, 77, 50
1, 59040, Note_on_c, 0, 60, 46
1, 59280, Note_on_c, 0, 77, 0
1, 59280, Note_on_c, 0, 76, 43
1, 59520, Tempo, 508475
1, 59520, Note_on_c, 0, 60, 0
1, 59520, Note_on_c, 0, 55, 37
1, 59640, Note_on_c, 0, 55, 0
1, 60000, Tempo, 514447
1, 60000, Note_on_c, 0, 76, 0
1, 60000, Note_on_c, 0, 48, 32
1, 60480, Tempo, 527148
1, 60480, Note_on_c, 0, 48, 0
1, 60480, Note_on_c, 0, 60, 40
1, 60640, Tempo, 478965
1, 60720, Tempo, 478965
1, 60720, Note_on_c, 0, 72, 45
1, 60960, Tempo, 482470
1, 60960, Note_on_c, 0, 60, 0
1, 60960, Note_on_c, 0, 68, 37
1, 61200, Tempo, 475511
1, 61200, Note_on_c, 0, 72, 0
1, 61200, Note_on_c, 0, 80, 53
1, 61440, Tempo, 484222
1, 61440, Note_on_c, 0, 68, 0
1, 61440, Note_on_c, 0, 65, 33
1, 61680, Tempo, 487805
1, 61680, Note_on_c, 0, 80, 0
1, 61680, Note_on_c, 0, 72, 48
1, 61920, Tempo, 504965
1, 61920, Note_on_c, 0, 65, 0
1, 61920, Note_on_c, 0, 67, 41
1, 62040, Tempo, 480692
1, 62160, Tempo, 480692
1, 62160, Note_on_c, 0, 72, 0
1, 62160, Note_on_c, 0, 70, 40
1, 62400, Tempo, 482470
1, 62400, Note_on_c, 0, 70, 0
1, 62400, Note_on_c, 0, 67, 0
1, 62400, Note_on_c, 0, 79, 49
1, 62400, Note_on_c, 0, 64, 33
1, 62640, Tempo, 475511
1, 62640, Note_on_c, 0, 79, 0
1, 62640, Note_on_c, 0, 70, 40
1, 62880, Tempo, 486027
1, 62880, Note_on_c, 0, 64, 0
1, 62880, Note_on_c, 0, 65, 33
1, 63120, Tempo, 484222
1, 63120, Note_on_c, 0, 70, 0
1, 63120, Note_on_c, 0, 68, 40
1, 63360, Tempo, 487805
1, 63360, Note_on_c, 0, 65, 0
1, 63360, Note_on_c, 0, 58, 42
1, 63520, Tempo, 480692
1, 63600, Note_on_c, 0, 68, 0
1, 63600, Note_on_c, 0, 67, 43
1, 63840, Tempo, 504583
1, 63840, Note_on_c, 0, 67, 0
1, 63840, Note_on_c, 0, 73, 50
1, 64000, Tempo, 480692
1, 64080, Note_on_c, 0, 73, 0
1, 64080, Note_on_c, 0, 70, 46
1, 64320, Note_on_c, 0, 70, 0
1, 64320, Note_on_c, 0, 58, 0
1, 64320, Note_on_c, 0, 67, 47
1, 64320, Note_on_c, 0, 59, 41
1, 64560, Note_on_c, 0, 67, 0
1, 64560, Note_on_c, 0, 65, 43
1, 64640, Tempo, 518493
1, 64800, Tempo, 498878
1, 64800, Note_on_c, 0, 65, 0
1, 64800, Note_on_c, 0, 59, 0
1, 64800, Note_on_c, 0, 65, 47
1, 64800, Note_on_c, 0, 60, 43
1, 65040, Note_on_c, 0, 65, 0
1, 65040, Note_on_c, 0, 64, 39
1, 65280, Tempo, 508475
1, 65280, Note_on_c, 0, 60, 0
1, 65280, Note_on_c, 0, 55, 34
1, 65400, Note_on_c, 0, 55, 0
1, 65760, Tempo, 524659
1, 65760, Note_on_c, 0, 64, 0
1, 65760, Note_on_c, 0, 48, 37
1, 66240, Tempo, 473111
1, 66240, Note_on_c, 0, 48, 0
1, 66240, Note_on_c, 0, 77, 65
1, 66240, Note_on_c, 0, 41, 33
1, 66240, Note_on_c, 0, 53, 39
1, 66300, Note_on_c, 0, 77, 0
1, 66300, Note_on_c, 0, 79, 51
1, 66360, Note_on_c, 0, 79, 0
1, 66360, Note_on_c, 0, 77, 56
1, 66420, Note_on_c, 0, 77, 0
1, 66420, Note_on_c, 0, 76, 53
1, 66480, Tempo, 478774
1, 66480, Note_on_c, 0, 76, 0
1, 66480, Note_on_c, 0, 77, 64
1, 66720, Note_on_c, 0, 53, 0
1, 66720, Note_on_c, 0, 41, 0
1, 66720, Note_on_c, 0, 57, 34
1, 66720, Note_on_c, 0, 45, 28
1, 67200, Tempo, 470404
1, 67200, Note_on_c, 0, 45, 0
1, 67200, Note_on_c, 0, 57, 0
1, 67200, Note_on_c, 0, 77, 0
1, 67200, Note_on_c, 0, 82, 55
1, 67200, Note_on_c, 0, 60, 34
1, 67200, Note_on_c, 0, 48, 28
1, 67360, Note_on_c, 0, 82, 0
1, 67360, Note_on_c, 0, 79, 46
1, 67520, Note_on_c, 0, 79, 0
1, 67520, Note_on_c, 0, 76, 45
1, 67680, Tempo, 480692
1, 67680, Note_on_c, 0, 76, 0
1, 67680, Note_on_c, 0, 48, 0
1, 67680, Note_on_c, 0, 60, 0
1, 67680, Note_on_c, 0, 77, 50
1, 67680, Note_on_c, 0, 53, 34
1, 67680, Note_on_c, 0, 65, 41
1, 67920, Note_on_c, 0, 77, 0
1, 67920, Note_on_c, 0, 81, 43
1, 68160, Tempo, 482470
1, 68160, Note_on_c, 0, 81, 0
1, 68160, Note_on_c, 0, 65, 0
1, 68160, Note_on_c, 0, 53, 0
1, 68160, Note_on_c, 0, 72, 50
1, 68640, Tempo, 504583
1, 68640, Note_on_c, 0, 72, 0
1, 68640, Note_on_c, 0, 70, 46
1, 68640, Note_on_c, 0, 67, 34
1, 68659, Tempo, 502681
1, 68679, Tempo, 500751
1, 68686, Control_c, 0, 64, 127
1, 68698, Tempo, 497018
1, 68700, Note_on_c, 0, 70, 0
1, 68700, Note_on_c, 0, 72, 41
1, 68717, Tempo, 495131
1, 68736, Tempo, 493299
1, 68755, Tempo, 489636
1, 68760, Note_on_c, 0, 72, 0
1, 68760, Note_on_c, 0, 70, 46
1, 68775, Tempo, 487805
1, 68794, Tempo, 486027
1, 68813, Tempo, 480692
1, 68820, Note_on_c, 0, 70, 0
1, 68820, Note_on_c, 0, 72, 41
1, 68851, Tempo, 482470
1, 68880, Note_on_c, 0, 72, 0
1, 68880, Note_on_c, 0, 70, 46
1, 68890, Tempo, 484222
1, 68909, Tempo, 486027
1, 68947, Tempo, 487805
1, 68960, Note_on_c, 0, 70, 0
1, 68960, Note_on_c, 0, 72, 43
1, 68967, Tempo, 489636
1, 69005, Tempo, 491441
1, 69024, Tempo, 493299
1, 69040, Note_on_c, 0, 72, 0
1, 69040, Note_on_c, 0, 70, 43
1, 69063, Tempo, 495131
1, 69082, Tempo, 497018
1, 69120, Tempo, 482470
1, 69120, Note_on_c, 0, 70, 0
1, 69120, Note_on_c, 0, 67, 0
1, 69120, Note_on_c, 0, 69, 50
1, 69120, Note_on_c, 0, 65, 41
1, 69126, Control_c, 0, 64, 0
1, 69360, Note_on_c, 0, 69, 0
1, 69360, Note_on_c, 0, 72, 43
1, 69600, Tempo, 472106
1, 69600, Note_on_c, 0, 72, 0
1, 69600, Note_on_c, 0, 65, 0
1, 69600, Note_on_c, 0, 77, 50
1, 69760, Note_on_c, 0, 77, 0
1, 69760, Note_on_c, 0, 76, 41
1, 69920, Note_on_c, 0, 76, 0
1, 69920, Note_on_c, 0, 74, 41
1, 70080, Note_on_c, 0, 74, 0
1, 70080, Note_on_c, 0, 72, 47
1, 70240, Note_on_c, 0, 72, 0
1, 70240, Note_on_c, 0, 70, 40
1, 70400, Note_on_c, 0, 70, 0
1, 70400, Note_on_c, 0, 69, 40
1, 70560, Tempo, 487805
1, 70560, Note_on_c, 0, 69, 0
1, 70560, Note_on_c, 0, 67, 50
1, 70560, Note_on_c, 0, 64, 41
1, 70800, Tempo, 486539
1, 71040, Note_on_c, 0, 64, 0
1, 71040, Note_on_c, 0, 60, 34
1, 71280, Tempo, 467071
1, 71280, Note_on_c, 0, 67, 0
1, 71280, Note_on_c, 0, 69, 43
1, 71400, Note_on_c, 0, 69, 0
1, 71400, Note_on_c, 0, 70, 38
1, 71520, Tempo, 480692
1, 71520, Note_on_c, 0, 70, 0
1, 71520, Note_on_c, 0, 60, 0
1, 71520, Note_on_c, 0, 69, 47
1, 71520, Note_on_c, 0, 65, 41
1, 71760, Tempo, 524659
1, 72000, Tempo, 473111
1, 72000, Note_on_c, 0, 65, 0
1, 72000, Note_on_c, 0, 69, 0
1, 72000, Note_on_c, 0, 77, 66
1, 72000, Note_on_c, 0, 41, 33
1, 72000, Note_on_c, 0, 53, 39
1, 72060, Note_on_c, 0, 77, 0
1, 72060, Note_on_c, 0, 79, 51
1, 72120, Note_on_c, 0, 79, 0
1, 72120, Note_on_c, 0, 77, 56
1, 72180, Note_on_c, 0, 77, 0
1, 72180, Note_on_c, 0, 76, 54
1, 72240, Tempo, 478774
1, 72240, Note_on_c, 0, 76, 0
1, 72240, Note_on_c, 0, 77, 66
1, 72480, Note_on_c, 0, 53, 0
1, 72480, Note_on_c, 0, 41, 0
1, 72480, Note_on_c, 0, 45, 28
1, 72480, Note_on_c, 0, 57, 34
1, 72960, Tempo, 472106
1, 72960, Note_on_c, 0, 57, 0
1, 72960, Note_on_c, 0, 45, 0
1, 72960, Note_on_c, 0, 77, 0
1, 72960, Note_on_c, 0, 82, 55
1, 72960, Note_on_c, 0, 48, 28
1, 72960, Note_on_c, 0, 60, 34
1, 73120, Note_on_c, 0, 82, 0
1, 73120, Note_on_c, 0, 79, 46
1, 73280, Note_on_c, 0, 79, 0
1, 73280, Note_on_c, 0, 76, 45
1, 73440, Tempo, 482470
1, 73440, Note_on_c, 0, 76, 0
1, 73440, Note_on_c, 0, 60, 0
1, 73440, Note_on_c, 0, 48, 0
1, 73440, Note_on_c, 0, 77, 50
1, 73440, Note_on_c, 0, 53, 34
1, 73440, Note_on_c, 0, 65, 41
1, 73680, Note_on_c, 0, 77, 0
1, 73680, Note_on_c, 0, 81, 43
1, 73920, Tempo, 497018
1, 73920, Note_on_c, 0, 81, 0
1, 73920, Note_on_c, 0, 65, 0
1, 73920, Note_on_c, 0, 53, 0
1, 73920, Note_on_c, 0, 72, 50
1, 74400, Tempo, 480692
1, 74400, Note_on_c, 0, 72, 0
1, 74400, Note_on_c, 0, 74, 50
1, 74400, Note_on_c, 0, 46, 28
1, 74400, Note_on_c, 0, 58, 34
1, 74560, Note_on_c, 0, 74, 0
1, 74560, Note_on_c, 0, 76, 46
1, 74720, Tempo, 516440
1, 74720, Note_on_c, 0, 76, 0
1, 74720, Note_on_c, 0, 77, 46
1, 74870, Note_on_c, 0, 77, 0
1, 74880, Tempo, 478965
1, 74880, Note_on_c, 0, 58, 0
1, 74880, Note_on_c, 0, 46, 0
1, 74880, Note_on_c, 0, 77, 54
1, 74880, Note_on_c, 0, 57, 41
1, 74880, Note_on_c, 0, 45, 34
1, 75040, Note_on_c, 0, 77, 0
1, 75040, Note_on_c, 0, 76, 48
1, 75200, Note_on_c, 0, 76, 0
1, 75200, Note_on_c, 0, 74, 48
1, 75360, Tempo, 486027
1, 75360, Note_on_c, 0, 74, 0
1, 75360, Note_on_c, 0, 45, 0
1, 75360, Note_on_c, 0, 57, 0
1, 75360, Note_on_c, 0, 72, 51
1, 75360, Note_on_c, 0, 65, 27
1, 75360, Note_on_c, 0, 53, 22
1, 75840, Tempo, 478965
1, 75840, Note_on_c, 0, 53, 0
1, 75840, Note_on_c, 0, 65, 0
1, 75840, Note_on_c, 0, 72, 0
1, 75840, Note_on_c, 0, 74, 50
1, 75840, Note_on_c, 0, 58, 35
1, 75840, Note_on_c, 0, 46, 29
1, 76000, Note_on_c, 0, 74, 0
1, 76000, Note_on_c, 0, 76, 47
1, 76160, Tempo, 516440
1, 76160, Note_on_c, 0, 76, 0
1, 76160, Note_on_c, 0, 77, 47
1, 76310, Note_on_c, 0, 77, 0
1, 76320, Tempo, 477213
1, 76320, Note_on_c, 0, 46, 0
1, 76320, Note_on_c, 0, 58, 0
1, 76320, Note_on_c, 0, 77, 53
1, 76320, Note_on_c, 0, 45, 34
1, 76320, Note_on_c, 0, 57, 41
1, 76480, Note_on_c, 0, 77, 0
1, 76480, Note_on_c, 0, 76, 46
1, 76640, Tempo, 557984
1, 76640, Note_on_c, 0, 76, 0
1, 76640, Note_on_c, 0, 74, 43
1, 76800, Tempo, 477213
1, 76800, Note_on_c, 0, 74, 0
1, 76800, Note_on_c, 0, 57, 0
1, 76800, Note_on_c, 0, 45, 0
1, 76800, Note_on_c, 0, 72, 53
1, 76800, Note_on_c, 0, 53, 23
1, 76800, Note_on_c, 0, 65, 28
1, 76960, Note_on_c, 0, 72, 0
1, 76960, Note_on_c, 0, 77, 47
1, 77120, Tempo, 491441
1, 77120, Note_on_c, 0, 77, 0
1, 77120, Note_on_c, 0, 81, 50
1, 77280, Tempo, 474984
1, 77280, Note_on_c, 0, 81, 0
1, 77280, Note_on_c, 0, 65, 0
1, 77280, Note_on_c, 0, 53, 0
1, 77280, Note_on_c, 0, 72, 56
1, 77280, Note_on_c, 0, 52, 30
1, 77280, Note_on_c, 0, 64, 36
1, 77440, Note_on_c, 0, 72, 0
1, 77440, Note_on_c, 0, 79, 49
1, 77600, Tempo, 512426
1, 77600, Note_on_c, 0, 79, 0
1, 77600, Note_on_c, 0, 82, 53
1, 77760, Tempo, 478965
1, 77760, Note_on_c, 0, 82, 0
1, 77760, Note_on_c, 0, 64, 0
1, 77760, Note_on_c, 0, 52, 0
1, 77760, Note_on_c, 0, 81, 61
1, 77760, Note_on_c, 0, 53, 28
1, 77760, Note_on_c, 0, 65, 41
1, 77920, Note_on_c, 0, 81, 0
1, 77920, Note_on_c, 0, 82, 46
1, 78080, Note_on_c, 0, 82, 0
1, 78080, Note_on_c, 0, 84, 46
1, 78240, Tempo, 482470
1, 78240, Note_on_c, 0, 84, 0
1, 78240, Note_on_c, 0, 65, 0
1, 78240, Note_on_c, 0, 53, 0
1, 78240, Note_on_c, 0, 77, 50
1, 78240, Note_on_c, 0, 57, 41
1, 78240, Note_on_c, 0, 48, 34
1, 78720, Tempo, 495131
1, 78720, Note_on_c, 0, 48, 0
1, 78720, Note_on_c, 0, 57, 0
1, 78720, Note_on_c, 0, 77, 0
1, 78720, Note_on_c, 0, 76, 46
1, 78720, Note_on_c, 0, 48, 28
1, 78720, Note_on_c, 0, 55, 34
1, 78780, Note_on_c, 0, 76, 0
1, 78780, Note_on_c, 0, 77, 41
1, 78795, Control_c, 0, 64, 127
1, 78835, Tempo, 493299
1, 78840, Note_on_c, 0, 77, 0
1, 78840, Note_on_c, 0, 76, 46
1, 78900, Note_on_c, 0, 76, 0
1, 78900, Note_on_c, 0, 77, 41
1, 78931, Tempo, 491441
1, 78960, Note_on_c, 0, 77, 0
1, 78960, Note_on_c, 0, 76, 46
1, 78970, Tempo, 493299
1, 79008, Tempo, 495131
1, 79040, Note_on_c, 0, 76, 0
1, 79040, Note_on_c, 0, 77, 43
1, 79047, Tempo, 497018
1, 79085, Tempo, 498878
1, 79120, Note_on_c, 0, 77, 0
1, 79120, Note_on_c, 0, 76, 43
1, 79123, Tempo, 500751
1, 79162, Tempo, 502681
1, 79181, Tempo, 504583
1, 79200, Tempo, 497018
1, 79200, Note_on_c, 0, 76, 0
1, 79200, Note_on_c, 0, 55, 0
1, 79200, Note_on_c, 0, 48, 0
1, 79200, Note_on_c, 0, 77, 55
1, 79200, Note_on_c, 0, 53, 41
1, 79243, Control_c, 0, 64, 0
1, 79680, Tempo, 520517
1, 79680, Note_on_c, 0, 53, 0
1, 79680, Note_on_c, 0, 48, 38
1, 79800, Note_on_c, 0, 48, 0
1, 80160, Tempo, 572410
1, 80160, Note_on_c, 0, 77, 0
1, 80160, Note_on_c, 0, 41, 39
1, 80640, Key_signature, -2, "major"
1, 80640, Tempo, 505178
1, 80640, Marker_t, "Trio Teil 1"
1, 80640, Note_on_c, 0, 41, 0
1, 80640, Note_on_c, 0, 34, 39
1, 80640, Note_on_c, 0, 46, 46
1, 81120, Tempo, 478965
1, 81120, Note_on_c, 0, 74, 42
1, 81120, Note_on_c, 0, 77, 50
1, 81600, Tempo, 470404
1, 81600, Note_on_c, 0, 77, 0
1, 81600, Note_on_c, 0, 34, 0
1, 81600, Note_on_c, 0, 46, 0
1, 81600, Note_on_c, 0, 74, 0
1, 81600, Note_on_c, 0, 82, 50
1, 81600, Note_on_c, 0, 63, 34
1, 81760, Note_on_c, 0, 82, 0
1, 81760, Note_on_c, 0, 81, 46
1, 81920, Note_on_c, 0, 81, 0
1, 81920, Note_on_c, 0, 79, 45
1, 82080, Tempo, 480692
1, 82080, Note_on_c, 0, 79, 0
1, 82080, Note_on_c, 0, 63, 0
1, 82080, Note_on_c, 0, 77, 50
1, 82080, Note_on_c, 0, 62, 46
1, 82560, Tempo, 482470
1, 82560, Note_on_c, 0, 62, 0
1, 82560, Note_on_c, 0, 77, 0
1, 82560, Note_on_c, 0, 74, 55
1, 82560, Note_on_c, 0, 58, 41
1, 82563, Tempo, 473111
1, 82621, Tempo, 474984
1, 82678, Tempo, 476872
1, 82720, Note_on_c, 0, 74, 0
1, 82720, Note_on_c, 0, 75, 48
1, 82736, Tempo, 478774
1, 82793, Tempo, 480692
1, 82851, Tempo, 482625
1, 82880, Note_on_c, 0, 75, 0
1, 82880, Note_on_c, 0, 77, 48
1, 82909, Tempo, 484574
1, 82966, Tempo, 486539
1, 83024, Tempo, 488520
1, 83040, Note_on_c, 0, 77, 0
1, 83040, Note_on_c, 0, 58, 0
1, 83040, Note_on_c, 0, 75, 55
1, 83040, Note_on_c, 0, 60, 47
1, 83062, Tempo, 473111
1, 83139, Tempo, 474984
1, 83200, Note_on_c, 0, 75, 0
1, 83200, Note_on_c, 0, 77, 48
1, 83216, Tempo, 476872
1, 83293, Tempo, 478774
1, 83360, Note_on_c, 0, 77, 0
1, 83360, Note_on_c, 0, 79, 48
1, 83369, Tempo, 480692
1, 83446, Tempo, 482625
1, 83504, Tempo, 484574
1, 83520, Tempo, 482470
1, 83520, Note_on_c, 0, 79, 0
1, 83520, Note_on_c, 0, 60, 0
1, 83520, Note_on_c, 0, 77, 53
1, 83520, Note_on_c, 0, 62, 46
1, 83680, Tempo, 480692
1, 84000, Tempo, 484770
1, 84000, Note_on_c, 0, 62, 0
1, 84000, Note_on_c, 0, 77, 0
1, 84000, Note_on_c, 0, 70, 44
1, 84160, Tempo, 480692
1, 84240, Note_on_c, 0, 70, 0
1, 84480, Note_on_c, 0, 70, 45
1, 84720, Note_on_c, 0, 70, 0
1, 84800, Tempo, 518493
1, 84960, Tempo, 482470
1, 84960, Note_on_c, 0, 69, 46
1, 84960, Note_on_c, 0, 53, 33
1, 84960, Note_on_c, 0, 63, 39
1, 85120, Note_on_c, 0, 69, 0
1, 85120, Note_on_c, 0, 70, 40
1, 85280, Note_on_c, 0, 70, 0
1, 85280, Note_on_c, 0, 72, 40
1, 85440, Tempo, 482470
1, 85440, Note_on_c, 0, 72, 0
1, 85440, Note_on_c, 0, 63, 0
1, 85440, Note_on_c, 0, 53, 0
1, 85440, Note_on_c, 0, 70, 45
1, 85440, Note_on_c, 0, 58, 33
1, 85440, Note_on_c, 0, 62, 39
1, 85600, Tempo, 480692
1, 85920, Note_on_c, 0, 62, 0
1, 85920, Note_on_c, 0, 58, 0
1, 85920, Note_on_c, 0, 70, 0
1, 86400, Tempo, 482820
1, 86400, Note_on_c, 0, 72, 45
1, 86400, Note_on_c, 0, 53, 38
1, 86460, Note_on_c, 0, 72, 0
1, 86460, Note_on_c, 0, 70, 40
1, 86520, Note_on_c, 0, 70, 0
1, 86520, Note_on_c, 0, 72, 46
1, 86560, Note_on_c, 0, 53, 0
1, 86560, Note_on_c, 0, 57, 28
1, 86720, Note_on_c, 0, 57, 0
1, 86720, Note_on_c, 0, 60, 26
1, 86880, Tempo, 477061
1, 86880, Note_on_c, 0, 60, 0
1, 86880, Note_on_c, 0, 72, 0
1, 86880, Note_on_c, 0, 81, 46
1, 86880, Note_on_c, 0, 53, 29
1, 87040, Note_on_c, 0, 53, 0
1, 87040, Note_on_c, 0, 57, 27
1, 87200, Note_on_c, 0, 57, 0
1, 87200, Note_on_c, 0, 60, 27
1, 87360, Tempo, 486736
1, 87360, Note_on_c, 0, 60, 0
1, 87360, Note_on_c, 0, 81, 0
1, 87360, Note_on_c, 0, 69, 38
1, 87360, Note_on_c, 0, 53, 33
1, 87520, Note_on_c, 0, 53, 0
1, 87520, Note_on_c, 0, 57, 27
1, 87680, Note_on_c, 0, 57, 0
1, 87680, Note_on_c, 0, 60, 27
1, 87840, Tempo, 482820
1, 87840, Note_on_c, 0, 60, 0
1, 87840, Note_on_c, 0, 69, 0
1, 87840, Note_on_c, 0, 70, 45
1, 87840, Note_on_c, 0, 52, 38
1, 87900, Note_on_c, 0, 70, 0
1, 87900, Note_on_c, 0, 69, 40
1, 87960, Note_on_c, 0, 69, 0
1, 87960, Note_on_c, 0, 70, 46
1, 88000, Note_on_c, 0, 52, 0
1, 88000, Note_on_c, 0, 55, 28
1, 88160, Note_on_c, 0, 55, 0
1, 88160, Note_on_c, 0, 60, 26
1, 88320, Tempo, 477061
1, 88320, Note_on_c, 0, 60, 0
1, 88320, Note_on_c, 0, 70, 0
1, 88320, Note_on_c, 0, 79, 46
1, 88320, Note_on_c, 0, 52, 29
1, 88480, Note_on_c, 0, 52, 0
1, 88480, Note_on_c, 0, 55, 27
1, 88640, Note_on_c, 0, 55, 0
1, 88640, Note_on_c, 0, 60, 27
1, 88800, Tempo, 486736
1, 88800, Note_on_c, 0, 60, 0
1, 88800, Note_on_c, 0, 79, 0
1, 88800, Note_on_c, 0, 70, 38
1, 88800, Note_on_c, 0, 52, 33
1, 88960, Note_on_c, 0, 52, 0
1, 88960, Note_on_c, 0, 55, 27
1, 89120, Note_on_c, 0, 55, 0
1, 89120, Note_on_c, 0, 60, 27
1, 89280, Tempo, 478965
1, 89280, Note_on_c, 0, 60, 0
1, 89280, Note_on_c, 0, 70, 0
1, 89280, Note_on_c, 0, 69, 51
1, 89280, Note_on_c, 0, 53, 36
1, 89440, Note_on_c, 0, 69, 0
1, 89440, Note_on_c, 0, 70, 41
1, 89600, Note_on_c, 0, 70, 0
1, 89600, Note_on_c, 0, 72, 41
1, 89760, Tempo, 482470
1, 89760, Note_on_c, 0, 72, 0
1, 89760, Note_on_c, 0, 53, 0
1, 89760, Note_on_c, 0, 65, 45
1, 89760, Note_on_c, 0, 57, 36
1, 89760, Note_on_c, 0, 48, 30
1, 90240, Tempo, 495131
1, 90240, Note_on_c, 0, 48, 0
1, 90240, Note_on_c, 0, 57, 0
1, 90240, Note_on_c, 0, 65, 0
1, 90240, Note_on_c, 0, 64, 41
1, 90240, Note_on_c, 0, 48, 25
1, 90240, Note_on_c, 0, 55, 30
1, 90300, Note_on_c, 0, 64, 0
1, 90300, Note_on_c, 0, 65, 36
1, 90315, Control_c, 0, 64, 127
1, 90355, Tempo, 493299
1, 90360, Note_on_c, 0, 65, 0
1, 90360, Note_on_c, 0, 64, 41
1, 90420, Note_on_c, 0, 64, 0
1, 90420, Note_on_c, 0, 65, 36
1, 90451, Tempo, 491441
1, 90480, Note_on_c, 0, 65, 0
1, 90480, Note_on_c, 0, 64, 41
1, 90490, Tempo, 493299
1, 90528, Tempo, 495131
1, 90560, Note_on_c, 0, 64, 0
1, 90560, Note_on_c, 0, 65, 38
1, 90567, Tempo, 497018
1, 90605, Tempo, 498878
1, 90640, Note_on_c, 0, 65, 0
1, 90640, Note_on_c, 0, 64, 38
1, 90643, Tempo, 500751
1, 90682, Tempo, 502681
1, 90701, Tempo, 504583
1, 90720, Tempo, 497018
1, 90720, Note_on_c, 0, 64, 0
1, 90720, Note_on_c, 0, 55, 0
1, 90720, Note_on_c, 0, 48, 0
1, 90720, Note_on_c, 0, 65, 49
1, 90720, Note_on_c, 0, 53, 36
1, 90743, Control_c, 0, 64, 0
1, 91200, Tempo, 520517
1, 91200, Note_on_c, 0, 53, 0
1, 91200, Note_on_c, 0, 48, 34
1, 91320, Note_on_c, 0, 48, 0
1, 91680, Tempo, 518269
1, 91680, Note_on_c, 0, 65, 0
1, 91680, Note_on_c, 0, 41, 35
1, 92160, Tempo, 505178
1, 92160, Marker_t, "Trio Teil 1 Wiederholung"
1, 92160, Note_on_c, 0, 41, 0
1, 92160, Note_on_c, 0, 34, 39
1, 92160, Note_on_c, 0, 46, 46
1, 92640, Tempo, 478965
1, 92640, Note_on_c, 0, 74, 42
1, 92640, Note_on_c, 0, 77, 50
1, 93120, Tempo, 470404
1, 93120, Note_on_c, 0, 77, 0
1, 93120, Note_on_c, 0, 34, 0
1, 93120, Note_on_c, 0, 46, 0
1, 93120, Note_on_c, 0, 74, 0
1, 93120, Note_on_c, 0, 82, 50
1, 93120, Note_on_c, 0, 63, 34
1, 93280, Note_on_c, 0, 82, 0
1, 93280, Note_on_c, 0, 81, 46
1, 93440, Note_on_c, 0, 81, 0
1, 93440, Note_on_c, 0, 79, 45
1, 93600, Tempo, 473111
1, 93600, Note_on_c, 0, 79, 0
1, 93600, Note_on_c, 0, 63, 0
1, 93600, Note_on_c, 0, 77, 50
1, 93600, Note_on_c, 0, 62, 46
1, 94080, Tempo, 482470
1, 94080, Note_on_c, 0, 62, 0
1, 94080, Note_on_c, 0, 77, 0
1, 94080, Note_on_c, 0, 74, 55
1, 94080, Note_on_c, 0, 58, 41
1, 94084, Tempo, 473111
1, 94141, Tempo, 474984
1, 94199, Tempo, 476872
1, 94240, Note_on_c, 0, 74, 0
1, 94240, Note_on_c, 0, 75, 48
1, 94257, Tempo, 478774
1, 94314, Tempo, 480692
1, 94372, Tempo, 482625
1, 94400, Note_on_c, 0, 75, 0
1, 94400, Note_on_c, 0, 77, 48
1, 94429, Tempo, 484574
1, 94487, Tempo, 486539
1, 94525, Tempo, 488520
1, 94545, Tempo, 476872
1, 94560, Note_on_c, 0, 77, 0
1, 94560, Note_on_c, 0, 58, 0
1, 94560, Note_on_c, 0, 75, 55
1, 94560, Note_on_c, 0, 60, 47
1, 94621, Tempo, 478774
1, 94698, Tempo, 480692
1, 94720, Note_on_c, 0, 75, 0
1, 94720, Note_on_c, 0, 77, 48
1, 94775, Tempo, 482625
1, 94852, Tempo, 484574
1, 94880, Note_on_c, 0, 77, 0
1, 94880, Note_on_c, 0, 79, 48
1, 94929, Tempo, 486539
1, 95005, Tempo, 488520
1, 95040, Tempo, 482470
1, 95040, Note_on_c, 0, 79, 0
1, 95040, Note_on_c, 0, 60, 0
1, 95040, Note_on_c, 0, 77, 53
1, 95040, Note_on_c, 0, 62, 46
1, 95200, Tempo, 480692
1, 95520, Tempo, 482820
1, 95520, Note_on_c, 0, 62, 0
1, 95520, Note_on_c, 0, 77, 0
1, 95520, Note_on_c, 0, 70, 44
1, 95680, Tempo, 480692
1, 95760, Note_on_c, 0, 70, 0
1, 96000, Note_on_c, 0, 70, 45
1, 96240, Note_on_c, 0, 70, 0
1, 96320, Tempo, 518493
1, 96480, Tempo, 482470
1, 96480, Note_on_c, 0, 69, 46
1, 96480, Note_on_c, 0, 53, 33
1, 96480, Note_on_c, 0, 63, 39
1, 96640, Note_on_c, 0, 69, 0
1, 96640, Note_on_c, 0, 70, 40
1, 96800, Note_on_c, 0, 70, 0
1, 96800, Note_on_c, 0, 72, 40
1, 96960, Tempo, 482470
1, 96960, Note_on_c, 0, 72, 0
1, 96960, Note_on_c, 0, 63, 0
1, 96960, Note_on_c, 0, 53, 0
1, 96960, Note_on_c, 0, 70, 45
1, 96960, Note_on_c, 0, 58, 33
1, 96960, Note_on_c, 0, 62, 39
1, 97120, Tempo, 480692
1, 97440, Note_on_c, 0, 62, 0
1, 97440, Note_on_c, 0, 58, 0
1, 97440, Note_on_c, 0, 70, 0
1, 97920, Tempo, 473111
1, 97920, Note_on_c, 0, 72, 45
1, 97920, Note_on_c, 0, 53, 38
1, 97980, Note_on_c, 0, 72, 0
1, 97980, Note_on_c, 0, 70, 40
1, 98040, Note_on_c, 0, 70, 0
1, 98040, Note_on_c, 0, 72, 46
1, 98080, Note_on_c, 0, 53, 0
1, 98080, Note_on_c, 0, 57, 28
1, 98160, Tempo, 482625
1, 98240, Note_on_c, 0, 57, 0
1, 98240, Note_on_c, 0, 60, 26
1, 98400, Tempo, 477061
1, 98400, Note_on_c, 0, 60, 0
1, 98400, Note_on_c, 0, 72, 0
1, 98400, Note_on_c, 0, 81, 46
1, 98400, Note_on_c, 0, 53, 29
1, 98560, Note_on_c, 0, 53, 0
1, 98560, Note_on_c, 0, 57, 27
1, 98720, Note_on_c, 0, 57, 0
1, 98720, Note_on_c, 0, 60, 27
1, 98880, Tempo, 486736
1, 98880, Note_on_c, 0, 60, 0
1, 98880, Note_on_c, 0, 81, 0
1, 98880, Note_on_c, 0, 69, 38
1, 98880, Note_on_c, 0, 53, 33
1, 99040, Note_on_c, 0, 53, 0
1, 99040, Note_on_c, 0, 57, 27
1, 99200, Note_on_c, 0, 57, 0
1, 99200, Note_on_c, 0, 60, 27
1, 99360, Tempo, 476872
1, 99360, Note_on_c, 0, 60, 0
1, 99360, Note_on_c, 0, 69, 0
1, 99360, Note_on_c, 0, 70, 45
1, 99360, Note_on_c, 0, 52, 38
1, 99420, Note_on_c, 0, 70, 0
1, 99420, Note_on_c, 0, 69, 40
1, 99480, Note_on_c, 0, 69, 0
1, 99480, Note_on_c, 0, 70, 46
1, 99520, Note_on_c, 0, 52, 0
1, 99520, Note_on_c, 0, 55, 28
1, 99600, Tempo, 480692
1, 99680, Note_on_c, 0, 55, 0
1, 99680, Note_on_c, 0, 60, 26
1, 99840, Tempo, 477061
1, 99840, Note_on_c, 0, 60, 0
1, 99840, Note_on_c, 0, 70, 0
1, 99840, Note_on_c, 0, 79, 46
1, 99840, Note_on_c, 0, 52, 29
1, 100000, Note_on_c, 0, 52, 0
1, 100000, Note_on_c, 0, 55, 27
1, 100160, Note_on_c, 0, 55, 0
1, 100160, Note_on_c, 0, 60, 27
1, 100320, Tempo, 486736
1, 100320, Note_on_c, 0, 60, 0
1, 100320, Note_on_c, 0, 79, 0
1, 100320, Note_on_c, 0, 70, 38
1, 100320, Note_on_c, 0, 52, 33
1, 100480, Note_on_c, 0, 52, 0
1, 100480, Note_on_c, 0, 55, 27
1, 100640, Note_on_c, 0, 55, 0
1, 100640, Note_on_c, 0, 60, 27
1, 100800, Tempo, 478965
1, 100800, Note_on_c, 0, 60, 0
1, 100800, Note_on_c, 0, 70, 0
1, 100800, Note_on_c, 0, 69, 51
1, 100800, Note_on_c, 0, 53, 36
1, 100960, Note_on_c, 0, 69, 0
1, 100960, Note_on_c, 0, 70, 41
1, 101120, Note_on_c, 0, 70, 0
1, 101120, Note_on_c, 0, 72, 41
1, 101280, Tempo, 482470
1, 101280, Note_on_c, 0, 72, 0
1, 101280, Note_on_c, 0, 53, 0
1, 101280, Note_on_c, 0, 65, 45
1, 101280, Note_on_c, 0, 57, 36
1, 101280, Note_on_c, 0, 48, 30
1, 101760, Tempo, 495131
1, 101760, Note_on_c, 0, 48, 0
1, 101760, Note_on_c, 0, 57, 0
1, 101760, Note_on_c, 0, 65, 0
1, 101760, Note_on_c, 0, 64, 41
1, 101760, Note_on_c, 0, 48, 25
1, 101760, Note_on_c, 0, 55, 30
1, 101820, Note_on_c, 0, 64, 0
1, 101820, Note_on_c, 0, 65, 36
1, 101835, Control_c, 0, 64, 127
1, 101875, Tempo, 493299
1, 101880, Note_on_c, 0, 65, 0
1, 101880, Note_on_c, 0, 64, 41
1, 101940, Note_on_c, 0, 64, 0
1, 101940, Note_on_c, 0, 65, 36
1, 101971, Tempo, 491441
1, 102000, Note_on_c, 0, 65, 0
1, 102000, Note_on_c, 0, 64, 41
1, 102010, Tempo, 493299
1, 102048, Tempo, 495131
1, 102080, Note_on_c, 0, 64, 0
1, 102080, Note_on_c, 0, 65, 38
1, 102087, Tempo, 497018
1, 102125, Tempo, 498878
1, 102160, Note_on_c, 0, 65, 0
1, 102160, Note_on_c, 0, 64, 38
1, 102163, Tempo, 500751
1, 102202, Tempo, 502681
1, 102221, Tempo, 504583
1, 102240, Tempo, 497018
1, 102240, Note_on_c, 0, 64, 0
1, 102240, Note_on_c, 0, 55, 0
1, 102240, Note_on_c, 0, 48, 0
1, 102240, Note_on_c, 0, 65, 49
1, 102240, Note_on_c, 0, 53, 36
1, 102283, Control_c, 0, 64, 0
1, 102720, Tempo, 520517
1, 102720, Note_on_c, 0, 53, 0
1, 102720, Note_on_c, 0, 48, 34
1, 102840, Note_on_c, 0, 48, 0
1, 103200, Tempo, 529474
1, 103200, Note_on_c, 0, 65, 0
1, 103200, Note_on_c, 0, 41, 35
1, 103680, Tempo, 470404
1, 103680, Marker_t, "Trio Teil 2"
1, 103680, Note_on_c, 0, 41, 0
1, 103680, Note_on_c, 0, 77, 50
1, 103680, Note_on_c, 0, 50, 42
1, 103840, Note_on_c, 0, 77, 0
1, 103840, Note_on_c, 0, 75, 46
1, 104000, Note_on_c, 0, 75, 0
1, 104000, Note_on_c, 0, 74, 40
1, 104160, Tempo, 471439
1, 104160, Note_on_c, 0, 74, 0
1, 104160, Note_on_c, 0, 50, 0
1, 104160, Note_on_c, 0, 77, 50
1, 104160, Note_on_c, 0, 58, 37
1, 104320, Note_on_c, 0, 77, 0
1, 104320, Note_on_c, 0, 75, 45
1, 104480, Note_on_c, 0, 75, 0
1, 104480, Note_on_c, 0, 74, 41
1, 104640, Tempo, 482470
1, 104640, Note_on_c, 0, 74, 0
1, 104640, Note_on_c, 0, 58, 0
1, 104640, Note_on_c, 0, 72, 51
1, 104640, Note_on_c, 0, 50, 38
1, 104800, Note_on_c, 0, 72, 0
1, 104800, Note_on_c, 0, 70, 46
1, 104960, Note_on_c, 0, 70, 0
1, 104960, Note_on_c, 0, 68, 41
1, 105120, Note_on_c, 0, 68, 0
1, 105120, Note_on_c, 0, 50, 0
1, 105120, Note_on_c, 0, 67, 54
1, 105120, Note_on_c, 0, 51, 47
1, 105600, Tempo, 474984
1, 105600, Note_on_c, 0, 51, 0
1, 105600, Note_on_c, 0, 67, 0
1, 105600, Note_on_c, 0, 72, 50
1, 105600, Note_on_c, 0, 55, 37
1, 105720, Tempo, 473111
1, 105760, Note_on_c, 0, 72, 0
1, 105760, Note_on_c, 0, 71, 45
1, 105920, Note_on_c, 0, 71, 0
1, 105920, Note_on_c, 0, 72, 41
1, 106080, Tempo, 482470
1, 106080, Note_on_c, 0, 72, 0
1, 106080, Note_on_c, 0, 55, 0
1, 106080, Note_on_c, 0, 75, 53
1, 106080, Note_on_c, 0, 60, 38
1, 106240, Note_on_c, 0, 75, 0
1, 106240, Note_on_c, 0, 74, 47
1, 106400, Note_on_c, 0, 74, 0
1, 106400, Note_on_c, 0, 75, 47
1, 106560, Tempo, 470404
1, 106560, Note_on_c, 0, 75, 0
1, 106560, Note_on_c, 0, 60, 0
1, 106560, Note_on_c, 0, 79, 50
1, 106560, Note_on_c, 0, 51, 42
1, 106720, Note_on_c, 0, 79, 0
1, 106720, Note_on_c, 0, 77, 46
1, 106880, Note_on_c, 0, 77, 0
1, 106880, Note_on_c, 0, 75, 40
1, 107040, Tempo, 473298
1, 107040, Note_on_c, 0, 75, 0
1, 107040, Note_on_c, 0, 51, 0
1, 107040, Note_on_c, 0, 79, 50
1, 107040, Note_on_c, 0, 60, 37
1, 107200, Note_on_c, 0, 79, 0
1, 107200, Note_on_c, 0, 77, 45
1, 107360, Note_on_c, 0, 77, 0
1, 107360, Note_on_c, 0, 75, 41
1, 107520, Tempo, 482470
1, 107520, Note_on_c, 0, 75, 0
1, 107520, Note_on_c, 0, 60, 0
1, 107520, Note_on_c, 0, 74, 51
1, 107520, Note_on_c, 0, 52, 38
1, 107680, Note_on_c, 0, 74, 0
1, 107680, Note_on_c, 0, 72, 46
1, 107840, Note_on_c, 0, 72, 0
1, 107840, Note_on_c, 0, 70, 41
1, 107990, Note_on_c, 0, 70, 0
1, 108000, Tempo, 498878
1, 108000, Note_on_c, 0, 52, 0
1, 108000, Note_on_c, 0, 70, 50
1, 108000, Note_on_c, 0, 53, 42
1, 108240, Note_on_c, 0, 70, 0
1, 108240, Note_on_c, 0, 69, 43
1, 108480, Tempo, 508475
1, 108480, Note_on_c, 0, 53, 0
1, 108480, Note_on_c, 0, 48, 37
1, 108600, Note_on_c, 0, 48, 0
1, 108960, Tempo, 514447
1, 108960, Note_on_c, 0, 69, 0
1, 108960, Note_on_c, 0, 41, 33
1, 109440, Tempo, 482820
1, 109440, Note_on_c, 0, 41, 0
1, 109440, Note_on_c, 0, 77, 47
1, 109440, Note_on_c, 0, 58, 38
1, 109500, Note_on_c, 0, 77, 0
1, 109500, Note_on_c, 0, 75, 42
1, 109560, Note_on_c, 0, 75, 0
1, 109560, Note_on_c, 0, 77, 48
1, 109600, Note_on_c, 0, 58, 0
1, 109600, Note_on_c, 0, 62, 28
1, 109760, Note_on_c, 0, 62, 0
1, 109760, Note_on_c, 0, 65, 26
1, 109920, Tempo, 477061
1, 109920, Note_on_c, 0, 65, 0
1, 109920, Note_on_c, 0, 77, 0
1, 109920, Note_on_c, 0, 86, 48
1, 109920, Note_on_c, 0, 58, 40
1, 110080, Note_on_c, 0, 58, 0
1, 110080, Note_on_c, 0, 62, 27
1, 110240, Note_on_c, 0, 62, 0
1, 110240, Note_on_c, 0, 65, 27
1, 110400, Tempo, 486736
1, 110400, Note_on_c, 0, 65, 0
1, 110400, Note_on_c, 0, 86, 0
1, 110400, Note_on_c, 0, 74, 39
1, 110400, Note_on_c, 0, 58, 33
1, 110560, Note_on_c, 0, 58, 0
1, 110560, Note_on_c, 0, 62, 27
1, 110720, Note_on_c, 0, 62, 0
1, 110720, Note_on_c, 0, 65, 27
1, 110880, Tempo, 482820
1, 110880, Note_on_c, 0, 65, 0
1, 110880, Note_on_c, 0, 74, 0
1, 110880, Note_on_c, 0, 75, 47
1, 110880, Note_on_c, 0, 57, 38
1, 110940, Note_on_c, 0, 75, 0
1, 110940, Note_on_c, 0, 74, 42
1, 111000, Note_on_c, 0, 74, 0
1, 111000, Note_on_c, 0, 75, 48
1, 111040, Note_on_c, 0, 57, 0
1, 111040, Note_on_c, 0, 60, 28
1, 111200, Note_on_c, 0, 60, 0
1, 111200, Note_on_c, 0, 65, 26
1, 111360, Tempo, 477061
1, 111360, Note_on_c, 0, 65, 0
1, 111360, Note_on_c, 0, 75, 0
1, 111360, Note_on_c, 0, 84, 48
1, 111360, Note_on_c, 0, 57, 36
1, 111520, Note_on_c, 0, 57, 0
1, 111520, Note_on_c, 0, 60, 27
1, 111680, Note_on_c, 0, 60, 0
1, 111680, Note_on_c, 0, 65, 27
1, 111840, Tempo, 486736
1, 111840, Note_on_c, 0, 65, 0
1, 111840, Note_on_c, 0, 84, 0
1, 111840, Note_on_c, 0, 75, 39
1, 111840, Note_on_c, 0, 57, 33
1, 112000, Note_on_c, 0, 57, 0
1, 112000, Note_on_c, 0, 60, 27
1, 112160, Note_on_c, 0, 60, 0
1, 112160, Note_on_c, 0, 65, 27
1, 112320, Tempo, 478965
1, 112320, Note_on_c, 0, 65, 0
1, 112320, Note_on_c, 0, 75, 0
1, 112320, Note_on_c, 0, 74, 51
1, 112320, Note_on_c, 0, 58, 36
1, 112480, Note_on_c, 0, 74, 0
1, 112480, Note_on_c, 0, 75, 41
1, 112640, Note_on_c, 0, 75, 0
1, 112640, Note_on_c, 0, 77, 41
1, 112800, Tempo, 482470
1, 112800, Note_on_c, 0, 77, 0
1, 112800, Note_on_c, 0, 58, 0
1, 112800, Note_on_c, 0, 70, 45
1, 112800, Note_on_c, 0, 62, 36
1, 112800, Note_on_c, 0, 53, 30
1, 113280, Tempo, 495131
1, 113280, Note_on_c, 0, 53, 0
1, 113280, Note_on_c, 0, 62, 0
1, 113280, Note_on_c, 0, 70, 0
1, 113280, Note_on_c, 0, 69, 41
1, 113280, Note_on_c, 0, 53, 25
1, 113280, Note_on_c, 0, 60, 30
1, 113340, Note_on_c, 0, 69, 0
1, 113340, Note_on_c, 0, 70, 36
1, 113355, Control_c, 0, 64, 127
1, 113395, Tempo, 493299
1, 113400, Note_on_c, 0, 70, 0
1, 113400, Note_on_c, 0, 69, 41
1, 113460, Note_on_c, 0, 69, 0
1, 113460, Note_on_c, 0, 70, 36
1, 113491, Tempo, 491441
1, 113520, Note_on_c, 0, 70, 0
1, 113520, Note_on_c, 0, 69, 41
1, 113530, Tempo, 493299
1, 113568, Tempo, 495131
1, 113600, Note_on_c, 0, 69, 0
1, 113600, Note_on_c, 0, 70, 38
1, 113607, Tempo, 497018
1, 113645, Tempo, 498878
1, 113680, Note_on_c, 0, 70, 0
1, 113680, Note_on_c, 0, 69, 38
1, 113683, Tempo, 500751
1, 113722, Tempo, 502681
1, 113741, Tempo, 504583
1, 113760, Tempo, 497018
1, 113760, Note_on_c, 0, 69, 0
1, 113760, Note_on_c, 0, 60, 0
1, 113760, Note_on_c, 0, 53, 0
1, 113760, Note_on_c, 0, 70, 49
1, 113760, Note_on_c, 0, 58, 36
1, 113803, Control_c, 0, 64, 0
1, 114240, Tempo, 520517
1, 114240, Note_on_c, 0, 58, 0
1, 114240, Note_on_c, 0, 53, 34
1, 114360, Note_on_c, 0, 53, 0
1, 114720, Tempo, 520517
1, 114720, Note_on_c, 0, 70, 0
1, 114720, Note_on_c, 0, 46, 35
1, 115200, Tempo, 470404
1, 115200, Marker_t, "Trio Teil 2 Wiederholung"
1, 115200, Note_on_c, 0, 46, 0
1, 115200, Note_on_c, 0, 77, 50
1, 115200, Note_on_c, 0, 50, 42
1, 115360, Note_on_c, 0, 77, 0
1, 115360, Note_on_c, 0, 75, 46
1, 115520, Note_on_c, 0, 75, 0
1, 115520, Note_on_c, 0, 74, 40
1, 115680, Tempo, 475172
1, 115680, Note_on_c, 0, 74, 0
1, 115680, Note_on_c, 0, 50, 0
1, 115680, Note_on_c, 0, 77, 50
1, 115680, Note_on_c, 0, 58, 37
1, 115840, Note_on_c, 0, 77, 0
1, 115840, Note_on_c, 0, 75, 45
1, 116000, Note_on_c, 0, 75, 0
1, 116000, Note_on_c, 0, 74, 41
1, 116160, Tempo, 482470
1, 116160, Note_on_c, 0, 74, 0
1, 116160, Note_on_c, 0, 58, 0
1, 116160, Note_on_c, 0, 72, 51
1, 116160, Note_on_c, 0, 50, 38
1, 116320, Note_on_c, 0, 72, 0
1, 116320, Note_on_c, 0, 70, 46
1, 116480, Note_on_c, 0, 70, 0
1, 116480, Note_on_c, 0, 68, 41
1, 116640, Note_on_c, 0, 68, 0
1, 116640, Note_on_c, 0, 50, 0
1, 116640, Note_on_c, 0, 67, 54
1, 116640, Note_on_c, 0, 51, 47
1, 117120, Tempo, 473111
1, 117120, Note_on_c, 0, 51, 0
1, 117120, Note_on_c, 0, 67, 0
1, 117120, Note_on_c, 0, 72, 50
1, 117120, Note_on_c, 0, 55, 37
1, 117280, Note_on_c, 0, 72, 0
1, 117280, Note_on_c, 0, 71, 45
1, 117440, Note_on_c, 0, 71, 0
1, 117440, Note_on_c, 0, 72, 41
1, 117600, Tempo, 478774
1, 117600, Note_on_c, 0, 72, 0
1, 117600, Note_on_c, 0, 55, 0
1, 117600, Note_on_c, 0, 75, 53
1, 117600, Note_on_c, 0, 60, 38
1, 117760, Note_on_c, 0, 75, 0
1, 117760, Note_on_c, 0, 74, 47
1, 117920, Note_on_c, 0, 74, 0
1, 117920, Note_on_c, 0, 75, 47
1, 118080, Tempo, 470404
1, 118080, Note_on_c, 0, 75, 0
1, 118080, Note_on_c, 0, 60, 0
1, 118080, Note_on_c, 0, 79, 50
1, 118080, Note_on_c, 0, 51, 42
1, 118240, Note_on_c, 0, 79, 0
1, 118240, Note_on_c, 0, 77, 46
1, 118400, Note_on_c, 0, 77, 0
1, 118400, Note_on_c, 0, 75, 40
1, 118560, Tempo, 471439
1, 118560, Note_on_c, 0, 75, 0
1, 118560, Note_on_c, 0, 51, 0
1, 118560, Note_on_c, 0, 79, 50
1, 118560, Note_on_c, 0, 60, 37
1, 118720, Note_on_c, 0, 79, 0
1, 118720, Note_on_c, 0, 77, 45
1, 118880, Note_on_c, 0, 77, 0
1, 118880, Note_on_c, 0, 75, 41
1, 119040, Tempo, 482470
1, 119040, Note_on_c, 0, 75, 0
1, 119040, Note_on_c, 0, 60, 0
1, 119040, Note_on_c, 0, 74, 51
1, 119040, Note_on_c, 0, 52, 38
1, 119200, Note_on_c, 0, 74, 0
1, 119200, Note_on_c, 0, 72, 46
1, 119360, Note_on_c, 0, 72, 0
1, 119360, Note_on_c, 0, 70, 41
1, 119510, Note_on_c, 0, 70, 0
1, 119520, Tempo, 498878
1, 119520, Note_on_c, 0, 52, 0
1, 119520, Note_on_c, 0, 70, 50
1, 119520, Note_on_c, 0, 53, 42
1, 119760, Note_on_c, 0, 70, 0
1, 119760, Note_on_c, 0, 69, 43
1, 120000, Tempo, 508475
1, 120000, Note_on_c, 0, 53, 0
1, 120000, Note_on_c, 0, 48, 37
1, 120120, Note_on_c, 0, 48, 0
1, 120480, Tempo, 514447
1, 120480, Note_on_c, 0, 69, 0
1, 120480, Note_on_c, 0, 41, 33
1, 120960, Tempo, 478774
1, 120960, Note_on_c, 0, 41, 0
1, 120960, Note_on_c, 0, 77, 47
1, 120960, Note_on_c, 0, 58, 38
1, 121020, Note_on_c, 0, 77, 0
1, 121020, Note_on_c, 0, 75, 42
1, 121080, Tempo, 473111
1, 121080, Note_on_c, 0, 75, 0
1, 121080, Note_on_c, 0, 77, 48
1, 121120, Note_on_c, 0, 58, 0
1, 121120, Note_on_c, 0, 62, 28
1, 121200, Tempo, 482625
1, 121280, Note_on_c, 0, 62, 0
1, 121280, Note_on_c, 0, 65, 26
1, 121440, Tempo, 477061
1, 121440, Note_on_c, 0, 65, 0
1, 121440, Note_on_c, 0, 77, 0
1, 121440, Note_on_c, 0, 86, 48
1, 121440, Note_on_c, 0, 58, 40
1, 121600, Note_on_c, 0, 58, 0
1, 121600, Note_on_c, 0, 62, 27
1, 121760, Note_on_c, 0, 62, 0
1, 121760, Note_on_c, 0, 65, 27
1, 121920, Tempo, 486736
1, 121920, Note_on_c, 0, 65, 0
1, 121920, Note_on_c, 0, 86, 0
1, 121920, Note_on_c, 0, 74, 39
1, 121920, Note_on_c, 0, 58, 33
1, 122080, Note_on_c, 0, 58, 0
1, 122080, Note_on_c, 0, 62, 27
1, 122240, Note_on_c, 0, 62, 0
1, 122240, Note_on_c, 0, 65, 27
1, 122400, Tempo, 473111
1, 122400, Note_on_c, 0, 65, 0
1, 122400, Note_on_c, 0, 74, 0
1, 122400, Note_on_c, 0, 75, 47
1, 122400, Note_on_c, 0, 57, 38
1, 122460, Note_on_c, 0, 75, 0
1, 122460, Note_on_c, 0, 74, 42
1, 122520, Note_on_c, 0, 74, 0
1, 122520, Note_on_c, 0, 75, 48
1, 122560, Note_on_c, 0, 57, 0
1, 122560, Note_on_c, 0, 60, 28
1, 122640, Tempo, 480692
1, 122720, Note_on_c, 0, 60, 0
1, 122720, Note_on_c, 0, 65, 26
1, 122880, Tempo, 477061
1, 122880, Note_on_c, 0, 65, 0
1, 122880, Note_on_c, 0, 75, 0
1, 122880, Note_on_c, 0, 84, 48
1, 122880, Note_on_c, 0, 57, 36
1, 123040, Note_on_c, 0, 57, 0
1, 123040, Note_on_c, 0, 60, 27
1, 123200, Note_on_c, 0, 60, 0
1, 123200, Note_on_c, 0, 65, 27
1, 123360, Tempo, 486736
1, 123360, Note_on_c, 0, 65, 0
1, 123360, Note_on_c, 0, 84, 0
1, 123360, Note_on_c, 0, 75, 39
1, 123360, Note_on_c, 0, 57, 33
1, 123520, Note_on_c, 0, 57, 0
1, 123520, Note_on_c, 0, 60, 27
1, 123680, Note_on_c, 0, 60, 0
1, 123680, Note_on_c, 0, 65, 27
1, 123840, Tempo, 478965
1, 123840, Note_on_c, 0, 65, 0
1, 123840, Note_on_c, 0, 75, 0
1, 123840, Note_on_c, 0, 74, 51
1, 123840, Note_on_c, 0, 58, 36
1, 124000, Note_on_c, 0, 74, 0
1, 124000, Note_on_c, 0, 75, 41
1, 124160, Note_on_c, 0, 75, 0
1, 124160, Note_on_c, 0, 77, 41
1, 124320, Tempo, 482470
1, 124320, Note_on_c, 0, 77, 0
1, 124320, Note_on_c, 0, 58, 0
1, 124320, Note_on_c, 0, 70, 45
1, 124320, Note_on_c, 0, 62, 36
1, 124320, Note_on_c, 0, 53, 30
1, 124800, Tempo, 495131
1, 124800, Note_on_c, 0, 53, 0
1, 124800, Note_on_c, 0, 62, 0
1, 124800, Note_on_c, 0, 70, 0
1, 124800, Note_on_c, 0, 69, 41
1, 124800, Note_on_c, 0, 53, 25
1, 124800, Note_on_c, 0, 60, 30
1, 124860, Note_on_c, 0, 69, 0
1, 124860, Note_on_c, 0, 70, 36
1, 124875, Control_c, 0, 64, 127
1, 124915, Tempo, 493299
1, 124920, Note_on_c, 0, 70, 0
1, 124920, Note_on_c, 0, 69, 41
1, 124980, Note_on_c, 0, 69, 0
1, 124980, Note_on_c, 0, 70, 36
1, 125011, Tempo, 491441
1, 125040, Note_on_c, 0, 70, 0
1, 125040, Note_on_c, 0, 69, 41
1, 125050, Tempo, 493299
1, 125088, Tempo, 495131
1, 125120, Note_on_c, 0, 69, 0
1, 125120, Note_on_c, 0, 70, 38
1, 125127, Tempo, 497018
1, 125165, Tempo, 498878
1, 125200, Note_on_c, 0, 70, 0
1, 125200, Note_on_c, 0, 69, 38
1, 125203, Tempo, 500751
1, 125242, Tempo, 502681
1, 125261, Tempo, 504583
1, 125280, Tempo, 497018
1, 125280, Note_on_c, 0, 69, 0
1, 125280, Note_on_c, 0, 60, 0
1, 125280, Note_on_c, 0, 53, 0
1, 125280, Note_on_c, 0, 70, 49
1, 125280, Note_on_c, 0, 58, 36
1, 125323, Control_c, 0, 64, 0
1, 125760, Tempo, 520517
1, 125760, Note_on_c, 0, 58, 0
1, 125760, Note_on_c, 0, 53, 34
1, 125880, Note_on_c, 0, 53, 0
1, 126240, Tempo, 586396
1, 126240, Note_on_c, 0, 70, 0
1, 126240, Note_on_c, 0, 46, 35
1, 126720, Key_signature, -1, "major"
1, 126720, Tempo, 473111
1, 126720, Marker_t, "Teil 1 Da Capo"
1, 126720, Note_on_c, 0, 46, 0
1, 126720, Note_on_c, 0, 77, 64
1, 126720, Note_on_c, 0, 41, 33
1, 126720, Note_on_c, 0, 53, 39
1, 126780, Note_on_c, 0, 77, 0
1, 126780, Note_on_c, 0, 79, 51
1, 126840, Note_on_c, 0, 79, 0
1, 126840, Note_on_c, 0, 77, 56
1, 126900, Note_on_c, 0, 77, 0
1, 126900, Note_on_c, 0, 76, 51
1, 126960, Tempo, 478774
1, 126960, Note_on_c, 0, 76, 0
1, 126960, Note_on_c, 0, 77, 62
1, 127200, Note_on_c, 0, 53, 0
1, 127200, Note_on_c, 0, 41, 0
1, 127200, Note_on_c, 0, 57, 34
1, 127200, Note_on_c, 0, 45, 28
1, 127680, Tempo, 470404
1, 127680, Note_on_c, 0, 45, 0
1, 127680, Note_on_c, 0, 57, 0
1, 127680, Note_on_c, 0, 77, 0
1, 127680, Note_on_c, 0, 82, 50
1, 127680, Note_on_c, 0, 60, 34
1, 127680, Note_on_c, 0, 48, 28
1, 127840, Note_on_c, 0, 82, 0
1, 127840, Note_on_c, 0, 79, 46
1, 128000, Note_on_c, 0, 79, 0
1, 128000, Note_on_c, 0, 76, 45
1, 128160, Tempo, 480692
1, 128160, Note_on_c, 0, 76, 0
1, 128160, Note_on_c, 0, 48, 0
1, 128160, Note_on_c, 0, 60, 0
1, 128160, Note_on_c, 0, 77, 50
1, 128160, Note_on_c, 0, 53, 34
1, 128160, Note_on_c, 0, 65, 41
1, 128400, Note_on_c, 0, 77, 0
1, 128400, Note_on_c, 0, 81, 43
1, 128640, Tempo, 482470
1, 128640, Note_on_c, 0, 81, 0
1, 128640, Note_on_c, 0, 65, 0
1, 128640, Note_on_c, 0, 53, 0
1, 128640, Note_on_c, 0, 72, 50
1, 129120, Tempo, 504583
1, 129120, Note_on_c, 0, 72, 0
1, 129120, Note_on_c, 0, 70, 46
1, 129120, Note_on_c, 0, 67, 34
1, 129139, Tempo, 502681
1, 129159, Tempo, 500751
1, 129166, Control_c, 0, 64, 127
1, 129178, Tempo, 497018
1, 129180, Note_on_c, 0, 70, 0
1, 129180, Note_on_c, 0, 72, 41
1, 129197, Tempo, 495131
1, 129216, Tempo, 493299
1, 129235, Tempo, 489636
1, 129240, Note_on_c, 0, 72, 0
1, 129240, Note_on_c, 0, 70, 46
1, 129255, Tempo, 487805
1, 129274, Tempo, 486027
1, 129293, Tempo, 480692
1, 129300, Note_on_c, 0, 70, 0
1, 129300, Note_on_c, 0, 72, 41
1, 129331, Tempo, 482470
1, 129360, Note_on_c, 0, 72, 0
1, 129360, Note_on_c, 0, 70, 46
1, 129370, Tempo, 484222
1, 129389, Tempo, 486027
1, 129427, Tempo, 487805
1, 129440, Note_on_c, 0, 70, 0
1, 129440, Note_on_c, 0, 72, 43
1, 129447, Tempo, 489636
1, 129485, Tempo, 491441
1, 129504, Tempo, 493299
1, 129520, Note_on_c, 0, 72, 0
1, 129520, Note_on_c, 0, 70, 43
1, 129543, Tempo, 495131
1, 129562, Tempo, 497018
1, 129600, Tempo, 482470
1, 129600, Note_on_c, 0, 70, 0
1, 129600, Note_on_c, 0, 67, 0
1, 129600, Note_on_c, 0, 69, 50
1, 129600, Note_on_c, 0, 65, 41
1, 129606, Control_c, 0, 64, 0
1, 129840, Note_on_c, 0, 69, 0
1, 129840, Note_on_c, 0, 72, 43
1, 130080, Tempo, 472106
1, 130080, Note_on_c, 0, 72, 0
1, 130080, Note_on_c, 0, 65, 0
1, 130080, Note_on_c, 0, 77, 50
1, 130240, Note_on_c, 0, 77, 0
1, 130240, Note_on_c, 0, 76, 41
1, 130400, Note_on_c, 0, 76, 0
1, 130400, Note_on_c, 0, 74, 41
1, 130560, Tempo, 467581
1, 130560, Note_on_c, 0, 74, 0
1, 130560, Note_on_c, 0, 72, 47
1, 130720, Note_on_c, 0, 72, 0
1, 130720, Note_on_c, 0, 70, 40
1, 130880, Note_on_c, 0, 70, 0
1, 130880, Note_on_c, 0, 69, 40
1, 131040, Tempo, 487805
1, 131040, Note_on_c, 0, 69, 0
1, 131040, Note_on_c, 0, 67, 50
1, 131040, Note_on_c, 0, 64, 41
1, 131520, Note_on_c, 0, 64, 0
1, 131520, Note_on_c, 0, 60, 34
1, 131760, Tempo, 467071
1, 131760, Note_on_c, 0, 67, 0
1, 131760, Note_on_c, 0, 69, 43
1, 131880, Note_on_c, 0, 69, 0
1, 131880, Note_on_c, 0, 70, 38
1, 132000, Tempo, 480692
1, 132000, Note_on_c, 0, 70, 0
1, 132000, Note_on_c, 0, 60, 0
1, 132000, Note_on_c, 0, 69, 47
1, 132000, Note_on_c, 0, 65, 41
1, 132240, Tempo, 524659
1, 132480, Tempo, 474984
1, 132480, Note_on_c, 0, 65, 0
1, 132480, Note_on_c, 0, 69, 0
1, 132480, Note_on_c, 0, 77, 64
1, 132480, Note_on_c, 0, 53, 39
1, 132540, Note_on_c, 0, 77, 0
1, 132540, Note_on_c, 0, 79, 51
1, 132600, Note_on_c, 0, 79, 0
1, 132600, Note_on_c, 0, 77, 56
1, 132660, Note_on_c, 0, 77, 0
1, 132660, Note_on_c, 0, 76, 54
1, 132720, Tempo, 478774
1, 132720, Note_on_c, 0, 76, 0
1, 132720, Note_on_c, 0, 77, 65
1, 132960, Note_on_c, 0, 53, 0
1, 132960, Note_on_c, 0, 57, 34
1, 133440, Tempo, 472106
1, 133440, Note_on_c, 0, 57, 0
1, 133440, Note_on_c, 0, 77, 0
1, 133440, Note_on_c, 0, 82, 58
1, 133440, Note_on_c, 0, 60, 34
1, 133600, Note_on_c, 0, 82, 0
1, 133600, Note_on_c, 0, 79, 46
1, 133760, Note_on_c, 0, 79, 0
1, 133760, Note_on_c, 0, 76, 45
1, 133920, Tempo, 482470
1, 133920, Note_on_c, 0, 76, 0
1, 133920, Note_on_c, 0, 60, 0
1, 133920, Note_on_c, 0, 77, 50
1, 133920, Note_on_c, 0, 53, 34
1, 133920, Note_on_c, 0, 65, 41
1, 134160, Note_on_c, 0, 77, 0
1, 134160, Note_on_c, 0, 81, 43
1, 134400, Tempo, 497018
1, 134400, Note_on_c, 0, 81, 0
1, 134400, Note_on_c, 0, 65, 0
1, 134400, Note_on_c, 0, 53, 0
1, 134400, Note_on_c, 0, 72, 50
1, 134880, Tempo, 480692
1, 134880, Note_on_c, 0, 72, 0
1, 134880, Note_on_c, 0, 81, 50
1, 134880, Note_on_c, 0, 65, 34
1, 135040, Note_on_c, 0, 81, 0
1, 135040, Note_on_c, 0, 83, 46
1, 135200, Tempo, 516440
1, 135200, Note_on_c, 0, 83, 0
1, 135200, Note_on_c, 0, 84, 46
1, 135350, Note_on_c, 0, 84, 0
1, 135360, Tempo, 473111
1, 135360, Note_on_c, 0, 65, 0
1, 135360, Note_on_c, 0, 84, 54
1, 135360, Note_on_c, 0, 64, 41
1, 135520, Note_on_c, 0, 84, 0
1, 135520, Note_on_c, 0, 83, 48
1, 135600, Tempo, 478774
1, 135680, Note_on_c, 0, 83, 0
1, 135680, Note_on_c, 0, 81, 48
1, 135840, Tempo, 486027
1, 135840, Note_on_c, 0, 81, 0
1, 135840, Note_on_c, 0, 79, 53
1, 136320, Tempo, 478965
1, 136320, Note_on_c, 0, 79, 0
1, 136320, Note_on_c, 0, 64, 0
1, 136320, Note_on_c, 0, 81, 50
1, 136320, Note_on_c, 0, 65, 35
1, 136480, Note_on_c, 0, 81, 0
1, 136480, Note_on_c, 0, 83, 47
1, 136640, Tempo, 516440
1, 136640, Note_on_c, 0, 83, 0
1, 136640, Note_on_c, 0, 84, 47
1, 136790, Note_on_c, 0, 84, 0
1, 136800, Tempo, 471254
1, 136800, Note_on_c, 0, 65, 0
1, 136800, Note_on_c, 0, 84, 53
1, 136800, Note_on_c, 0, 64, 41
1, 136960, Note_on_c, 0, 84, 0
1, 136960, Note_on_c, 0, 83, 46
1, 137040, Tempo, 476872
1, 137120, Note_on_c, 0, 83, 0
1, 137120, Note_on_c, 0, 81, 46
1, 137280, Note_on_c, 0, 81, 0
1, 137280, Note_on_c, 0, 79, 50
1, 137440, Note_on_c, 0, 79, 0
1, 137440, Note_on_c, 0, 77, 44
1, 137600, Note_on_c, 0, 77, 0
1, 137600, Note_on_c, 0, 76, 44
1, 137760, Note_on_c, 0, 76, 0
1, 137760, Note_on_c, 0, 64, 0
1, 137760, Note_on_c, 0, 77, 48
1, 137760, Note_on_c, 0, 59, 38
1, 137760, Note_on_c, 0, 47, 32
1, 137920, Note_on_c, 0, 77, 0
1, 137920, Note_on_c, 0, 76, 45
1, 138080, Tempo, 512426
1, 138080, Note_on_c, 0, 76, 0
1, 138080, Note_on_c, 0, 74, 45
1, 138240, Tempo, 478965
1, 138240, Note_on_c, 0, 74, 0
1, 138240, Note_on_c, 0, 47, 0
1, 138240, Note_on_c, 0, 59, 0
1, 138240, Note_on_c, 0, 76, 50
1, 138240, Note_on_c, 0, 48, 34
1, 138240, Note_on_c, 0, 60, 41
1, 138400, Note_on_c, 0, 76, 0
1, 138400, Note_on_c, 0, 77, 46
1, 138560, Note_on_c, 0, 77, 0
1, 138560, Note_on_c, 0, 79, 46
1, 138720, Tempo, 482470
1, 138720, Note_on_c, 0, 79, 0
1, 138720, Note_on_c, 0, 60, 0
1, 138720, Note_on_c, 0, 48, 0
1, 138720, Note_on_c, 0, 72, 50
1, 138720, Note_on_c, 0, 64, 41
1, 138720, Note_on_c, 0, 55, 34
1, 139200, Tempo, 495131
1, 139200, Note_on_c, 0, 55, 0
1, 139200, Note_on_c, 0, 64, 0
1, 139200, Note_on_c, 0, 72, 0
1, 139200, Note_on_c, 0, 71, 46
1, 139200, Note_on_c, 0, 55, 28
1, 139200, Note_on_c, 0, 62, 34
1, 139260, Note_on_c, 0, 71, 0
1, 139260, Note_on_c, 0, 72, 41
1, 139275, Control_c, 0, 64, 127
1, 139315, Tempo, 493299
1, 139320, Note_on_c, 0, 72, 0
1, 139320, Note_on_c, 0, 71, 46
1, 139380, Note_on_c, 0, 71, 0
1, 139380, Note_on_c, 0, 72, 41
1, 139411, Tempo, 491441
1, 139440, Note_on_c, 0, 72, 0
1, 139440, Note_on_c, 0, 71, 46
1, 139450, Tempo, 493299
1, 139488, Tempo, 495131
1, 139520, Note_on_c, 0, 71, 0
1, 139520, Note_on_c, 0, 72, 43
1, 139527, Tempo, 497018
1, 139565, Tempo, 498878
1, 139600, Note_on_c, 0, 72, 0
1, 139600, Note_on_c, 0, 71, 43
1, 139603, Tempo, 500751
1, 139642, Tempo, 502681
1, 139661, Tempo, 504583
1, 139680, Tempo, 497018
1, 139680, Note_on_c, 0, 71, 0
1, 139680, Note_on_c, 0, 62, 0
1, 139680, Note_on_c, 0, 55, 0
1, 139680, Note_on_c, 0, 72, 50
1, 139680, Note_on_c, 0, 60, 41
1, 139723, Control_c, 0, 64, 0
1, 140160, Tempo, 520517
1, 140160, Note_on_c, 0, 60, 0
1, 140160, Note_on_c, 0, 55, 38
1, 140280, Note_on_c, 0, 55, 0
1, 140640, Tempo, 538987
1, 140640, Note_on_c, 0, 72, 0
1, 140640, Note_on_c, 0, 48, 39
1, 141120, Tempo, 480692
1, 141120, Marker_t, "Teil 2 Da Capo"
1, 141120, Note_on_c, 0, 48, 0
1, 141120, Note_on_c, 0, 72, 50
1, 141120, Note_on_c, 0, 60, 33
1, 141600, Note_on_c, 0, 67, 34
1, 142080, Tempo, 470404
1, 142080, Note_on_c, 0, 67, 0
1, 142080, Note_on_c, 0, 72, 0
1, 142080, Note_on_c, 0, 79, 50
1, 142080, Note_on_c, 0, 70, 34
1, 142240, Note_on_c, 0, 79, 0
1, 142240, Note_on_c, 0, 76, 46
1, 142400, Note_on_c, 0, 76, 0
1, 142400, Note_on_c, 0, 72, 45
1, 142498, Tempo, 467581
1, 142555, Tempo, 469410
1, 142560, Note_on_c, 0, 72, 0
1, 142560, Note_on_c, 0, 70, 0
1, 142560, Note_on_c, 0, 81, 50
1, 142560, Note_on_c, 0, 69, 46
1, 142613, Tempo, 471254
1, 142651, Tempo, 473111
1, 142709, Tempo, 474984
1, 142720, Note_on_c, 0, 81, 0
1, 142720, Note_on_c, 0, 77, 45
1, 142747, Tempo, 476872
1, 142805, Tempo, 478774
1, 142863, Tempo, 480692
1, 142880, Note_on_c, 0, 77, 0
1, 142880, Note_on_c, 0, 72, 45
1, 142901, Tempo, 482625
1, 142959, Tempo, 484574
1, 142997, Tempo, 486539
1, 143040, Tempo, 482470
1, 143040, Note_on_c, 0, 72, 0
1, 143040, Note_on_c, 0, 69, 0
1, 143040, Note_on_c, 0, 82, 55
1, 143040, Note_on_c, 0, 64, 41
1, 143093, Tempo, 473111
1, 143151, Tempo, 474984
1, 143189, Tempo, 476872
1, 143200, Note_on_c, 0, 82, 0
1, 143200, Note_on_c, 0, 81, 48
1, 143227, Tempo, 478774
1, 143285, Tempo, 480692
1, 143323, Tempo, 482625
1, 143360, Note_on_c, 0, 81, 0
1, 143360, Note_on_c, 0, 79, 48
1, 143362, Tempo, 484574
1, 143419, Tempo, 486539
1, 143458, Tempo, 488520
1, 143496, Tempo, 490517
1, 143515, Tempo, 478774
1, 143520, Note_on_c, 0, 79, 0
1, 143520, Note_on_c, 0, 64, 0
1, 143520, Note_on_c, 0, 60, 0
1, 143520, Note_on_c, 0, 81, 54
1, 143520, Note_on_c, 0, 65, 47
1, 144000, Tempo, 482470
1, 144000, Note_on_c, 0, 65, 0
1, 144000, Note_on_c, 0, 81, 0
1, 144000, Note_on_c, 0, 79, 53
1, 144000, Note_on_c, 0, 58, 46
1, 144160, Tempo, 480692
1, 144160, Note_on_c, 0, 79, 0
1, 144160, Note_on_c, 0, 82, 50
1, 144320, Note_on_c, 0, 82, 0
1, 144320, Note_on_c, 0, 81, 47
1, 144480, Tempo, 504583
1, 144480, Note_on_c, 0, 81, 0
1, 144480, Note_on_c, 0, 79, 51
1, 144640, Tempo, 480692
1, 144640, Note_on_c, 0, 79, 0
1, 144640, Note_on_c, 0, 86, 55
1, 144800, Note_on_c, 0, 86, 0
1, 144800, Note_on_c, 0, 84, 49
1, 144960, Note_on_c, 0, 84, 0
1, 144960, Note_on_c, 0, 58, 0
1, 144960, Note_on_c, 0, 82, 54
1, 144960, Note_on_c, 0, 59, 42
1, 145120, Note_on_c, 0, 82, 0
1, 145120, Note_on_c, 0, 81, 50
1, 145280, Tempo, 518493
1, 145280, Note_on_c, 0, 81, 0
1, 145280, Note_on_c, 0, 79, 45
1, 145440, Tempo, 484574
1, 145440, Note_on_c, 0, 79, 0
1, 145440, Note_on_c, 0, 59, 0
1, 145440, Note_on_c, 0, 77, 50
1, 145440, Note_on_c, 0, 60, 46
1, 145680, Tempo, 500751
1, 145680, Note_on_c, 0, 77, 0
1, 145680, Note_on_c, 0, 76, 43
1, 145920, Tempo, 508475
1, 145920, Note_on_c, 0, 60, 0
1, 145920, Note_on_c, 0, 55, 41
1, 146040, Note_on_c, 0, 55, 0
1, 146400, Tempo, 514447
1, 146400, Note_on_c, 0, 76, 0
1, 146400, Note_on_c, 0, 48, 35
1, 146880, Tempo, 509251
1, 146880, Note_on_c, 0, 48, 0
1, 146880, Note_on_c, 0, 60, 40
1, 147040, Tempo, 478965
1, 147120, Tempo, 478965
1, 147120, Note_on_c, 0, 72, 45
1, 147360, Tempo, 482470
1, 147360, Note_on_c, 0, 60, 0
1, 147360, Note_on_c, 0, 68, 37
1, 147600, Tempo, 475511
1, 147600, Note_on_c, 0, 72, 0
1, 147600, Note_on_c, 0, 80, 53
1, 147840, Tempo, 484222
1, 147840, Note_on_c, 0, 68, 0
1, 147840, Note_on_c, 0, 65, 33
1, 148080, Tempo, 487805
1, 148080, Note_on_c, 0, 80, 0
1, 148080, Note_on_c, 0, 72, 48
1, 148320, Tempo, 494560
1, 148320, Note_on_c, 0, 65, 0
1, 148320, Note_on_c, 0, 67, 41
1, 148560, Tempo, 480692
1, 148560, Note_on_c, 0, 72, 0
1, 148560, Note_on_c, 0, 70, 40
1, 148800, Tempo, 482470
1, 148800, Note_on_c, 0, 70, 0
1, 148800, Note_on_c, 0, 67, 0
1, 148800, Note_on_c, 0, 79, 49
1, 148800, Note_on_c, 0, 64, 33
1, 149040, Tempo, 475511
1, 149040, Note_on_c, 0, 79, 0
1, 149040, Note_on_c, 0, 70, 40
1, 149280, Tempo, 486027
1, 149280, Note_on_c, 0, 64, 0
1, 149280, Note_on_c, 0, 65, 33
1, 149520, Tempo, 484222
1, 149520, Note_on_c, 0, 70, 0
1, 149520, Note_on_c, 0, 68, 40
1, 149760, Tempo, 487805
1, 149760, Note_on_c, 0, 65, 0
1, 149760, Note_on_c, 0, 58, 42
1, 149920, Tempo, 480692
1, 150000, Note_on_c, 0, 68, 0
1, 150000, Note_on_c, 0, 67, 43
1, 150240, Tempo, 504583
1, 150240, Note_on_c, 0, 67, 0
1, 150240, Note_on_c, 0, 73, 50
1, 150400, Tempo, 480692
1, 150480, Note_on_c, 0, 73, 0
1, 150480, Note_on_c, 0, 70, 46
1, 150720, Note_on_c, 0, 70, 0
1, 150720, Note_on_c, 0, 58, 0
1, 150720, Note_on_c, 0, 67, 47
1, 150720, Note_on_c, 0, 59, 41
1, 150960, Note_on_c, 0, 67, 0
1, 150960, Note_on_c, 0, 65, 43
1, 151040, Tempo, 518493
1, 151200, Tempo, 498878
1, 151200, Note_on_c, 0, 65, 0
1, 151200, Note_on_c, 0, 59, 0
1, 151200, Note_on_c, 0, 65, 47
1, 151200, Note_on_c, 0, 60, 43
1, 151440, Note_on_c, 0, 65, 0
1, 151440, Note_on_c, 0, 64, 39
1, 151680, Tempo, 508475
1, 151680, Note_on_c, 0, 60, 0
1, 151680, Note_on_c, 0, 55, 34
1, 151800, Note_on_c, 0, 55, 0
1, 152160, Tempo, 524659
1, 152160, Note_on_c, 0, 64, 0
1, 152160, Note_on_c, 0, 48, 37
1, 152640, Tempo, 469410
1, 152640, Note_on_c, 0, 48, 0
1, 152640, Note_on_c, 0, 77, 65
1, 152640, Note_on_c, 0, 41, 33
1, 152640, Note_on_c, 0, 53, 39
1, 152700, Note_on_c, 0, 77, 0
1, 152700, Note_on_c, 0, 79, 51
1, 152760, Note_on_c, 0, 79, 0
1, 152760, Note_on_c, 0, 77, 56
1, 152820, Note_on_c, 0, 77, 0
1, 152820, Note_on_c, 0, 76, 53
1, 152880, Tempo, 480692
1, 152880, Note_on_c, 0, 76, 0
1, 152880, Note_on_c, 0, 77, 64
1, 153120, Note_on_c, 0, 53, 0
1, 153120, Note_on_c, 0, 41, 0
1, 153120, Note_on_c, 0, 57, 34
1, 153120, Note_on_c, 0, 45, 28
1, 153600, Tempo, 470404
1, 153600, Note_on_c, 0, 45, 0
1, 153600, Note_on_c, 0, 57, 0
1, 153600, Note_on_c, 0, 77, 0
1, 153600, Note_on_c, 0, 82, 55
1, 153600, Note_on_c, 0, 60, 34
1, 153600, Note_on_c, 0, 48, 28
1, 153760, Note_on_c, 0, 82, 0
1, 153760, Note_on_c, 0, 79, 46
1, 153920, Note_on_c, 0, 79, 0
1, 153920, Note_on_c, 0, 76, 45
1, 154080, Tempo, 480692
1, 154080, Note_on_c, 0, 76, 0
1, 154080, Note_on_c, 0, 48, 0
1, 154080, Note_on_c, 0, 60, 0
1, 154080, Note_on_c, 0, 77, 50
1, 154080, Note_on_c, 0, 53, 34
1, 154080, Note_on_c, 0, 65, 41
1, 154320, Note_on_c, 0, 77, 0
1, 154320, Note_on_c, 0, 81, 43
1, 154560, Tempo, 482470
1, 154560, Note_on_c, 0, 81, 0
1, 154560, Note_on_c, 0, 65, 0
1, 154560, Note_on_c, 0, 53, 0
1, 154560, Note_on_c, 0, 72, 50
1, 155040, Tempo, 504583
1, 155040, Note_on_c, 0, 72, 0
1, 155040, Note_on_c, 0, 70, 46
1, 155040, Note_on_c, 0, 67, 34
1, 155059, Tempo, 502681
1, 155079, Tempo, 500751
1, 155086, Control_c, 0, 64, 127
1, 155098, Tempo, 497018
1, 155100, Note_on_c, 0, 70, 0
1, 155100, Note_on_c, 0, 72, 41
1, 155117, Tempo, 495131
1, 155136, Tempo, 493299
1, 155155, Tempo, 489636
1, 155160, Note_on_c, 0, 72, 0
1, 155160, Note_on_c, 0, 70, 46
1, 155175, Tempo, 487805
1, 155194, Tempo, 486027
1, 155213, Tempo, 480692
1, 155220, Note_on_c, 0, 70, 0
1, 155220, Note_on_c, 0, 72, 41
1, 155251, Tempo, 482470
1, 155280, Note_on_c, 0, 72, 0
1, 155280, Note_on_c, 0, 70, 46
1, 155290, Tempo, 484222
1, 155309, Tempo, 486027
1, 155347, Tempo, 487805
1, 155360, Note_on_c, 0, 70, 0
1, 155360, Note_on_c, 0, 72, 43
1, 155367, Tempo, 489636
1, 155405, Tempo, 491441
1, 155424, Tempo, 493299
1, 155440, Note_on_c, 0, 72, 0
1, 155440, Note_on_c, 0, 70, 43
1, 155463, Tempo, 495131
1, 155482, Tempo, 497018
1, 155520, Tempo, 482470
1, 155520, Note_on_c, 0, 70, 0
1, 155520, Note_on_c, 0, 67, 0
1, 155520, Note_on_c, 0, 69, 50
1, 155520, Note_on_c, 0, 65, 41
1, 155526, Control_c, 0, 64, 0
1, 155760, Note_on_c, 0, 69, 0
1, 155760, Note_on_c, 0, 72, 43
1, 156000, Tempo, 472106
1, 156000, Note_on_c, 0, 72, 0
1, 156000, Note_on_c, 0, 65, 0
1, 156000, Note_on_c, 0, 77, 50
1, 156160, Note_on_c, 0, 77, 0
1, 156160, Note_on_c, 0, 76, 41
1, 156320, Note_on_c, 0, 76, 0
1, 156320, Note_on_c, 0, 74, 41
1, 156480, Note_on_c, 0, 74, 0
1, 156480, Note_on_c, 0, 72, 47
1, 156640, Note_on_c, 0, 72, 0
1, 156640, Note_on_c, 0, 70, 40
1, 156800, Note_on_c, 0, 70, 0
1, 156800, Note_on_c, 0, 69, 40
1, 156960, Tempo, 487805
1, 156960, Note_on_c, 0, 69, 0
1, 156960, Note_on_c, 0, 67, 50
1, 156960, Note_on_c, 0, 64, 41
1, 157440, Note_on_c, 0, 64, 0
1, 157440, Note_on_c, 0, 60, 34
1, 157680, Tempo, 467071
1, 157680, Note_on_c, 0, 67, 0
1, 157680, Note_on_c, 0, 69, 43
1, 157800, Note_on_c, 0, 69, 0
1, 157800, Note_on_c, 0, 70, 38
1, 157920, Tempo, 480692
1, 157920, Note_on_c, 0, 70, 0
1, 157920, Note_on_c, 0, 60, 0
1, 157920, Note_on_c, 0, 69, 47
1, 157920, Note_on_c, 0, 65, 41
1, 158160, Tempo, 524659
1, 158400, Tempo, 473111
1, 158400, Note_on_c, 0, 65, 0
1, 158400, Note_on_c, 0, 69, 0
1, 158400, Note_on_c, 0, 77, 66
1, 158400, Note_on_c, 0, 41, 33
1, 158400, Note_on_c, 0, 53, 39
1, 158460, Note_on_c, 0, 77, 0
1, 158460, Note_on_c, 0, 79, 51
1, 158520, Note_on_c, 0, 79, 0
1, 158520, Note_on_c, 0, 77, 56
1, 158580, Note_on_c, 0, 77, 0
1, 158580, Note_on_c, 0, 76, 54
1, 158640, Tempo, 478774
1, 158640, Note_on_c, 0, 76, 0
1, 158640, Note_on_c, 0, 77, 66
1, 158880, Note_on_c, 0, 53, 0
1, 158880, Note_on_c, 0, 41, 0
1, 158880, Note_on_c, 0, 45, 28
1, 158880, Note_on_c, 0, 57, 34
1, 159360, Tempo, 472106
1, 159360, Note_on_c, 0, 57, 0
1, 159360, Note_on_c, 0, 45, 0
1, 159360, Note_on_c, 0, 77, 0
1, 159360, Note_on_c, 0, 82, 55
1, 159360, Note_on_c, 0, 48, 28
1, 159360, Note_on_c, 0, 60, 34
1, 159520, Note_on_c, 0, 82, 0
1, 159520, Note_on_c, 0, 79, 46
1, 159680, Note_on_c, 0, 79, 0
1, 159680, Note_on_c, 0, 76, 45
1, 159840, Tempo, 482470
1, 159840, Note_on_c, 0, 76, 0
1, 159840, Note_on_c, 0, 60, 0
1, 159840, Note_on_c, 0, 48, 0
1, 159840, Note_on_c, 0, 77, 50
1, 159840, Note_on_c, 0, 53, 34
1, 159840, Note_on_c, 0, 65, 41
1, 160080, Note_on_c, 0, 77, 0
1, 160080, Note_on_c, 0, 81, 43
1, 160320, Tempo, 497018
1, 160320, Note_on_c, 0, 81, 0
1, 160320, Note_on_c, 0, 65, 0
1, 160320, Note_on_c, 0, 53, 0
1, 160320, Note_on_c, 0, 72, 50
1, 160800, Tempo, 480692
1, 160800, Note_on_c, 0, 72, 0
1, 160800, Note_on_c, 0, 74, 50
1, 160800, Note_on_c, 0, 46, 28
1, 160800, Note_on_c, 0, 58, 34
1, 160960, Note_on_c, 0, 74, 0
1, 160960, Note_on_c, 0, 76, 46
1, 161120, Tempo, 516440
1, 161120, Note_on_c, 0, 76, 0
1, 161120, Note_on_c, 0, 77, 46
1, 161270, Note_on_c, 0, 77, 0
1, 161280, Tempo, 478965
1, 161280, Note_on_c, 0, 58, 0
1, 161280, Note_on_c, 0, 46, 0
1, 161280, Note_on_c, 0, 77, 54
1, 161280, Note_on_c, 0, 57, 41
1, 161280, Note_on_c, 0, 45, 34
1, 161440, Note_on_c, 0, 77, 0
1, 161440, Note_on_c, 0, 76, 48
1, 161600, Note_on_c, 0, 76, 0
1, 161600, Note_on_c, 0, 74, 48
1, 161760, Tempo, 486027
1, 161760, Note_on_c, 0, 74, 0
1, 161760, Note_on_c, 0, 45, 0
1, 161760, Note_on_c, 0, 57, 0
1, 161760, Note_on_c, 0, 72, 51
1, 161760, Note_on_c, 0, 65, 27
1, 161760, Note_on_c, 0, 53, 22
1, 162240, Tempo, 478965
1, 162240, Note_on_c, 0, 53, 0
1, 162240, Note_on_c, 0, 65, 0
1, 162240, Note_on_c, 0, 72, 0
1, 162240, Note_on_c, 0, 74, 50
1, 162240, Note_on_c, 0, 58, 35
1, 162240, Note_on_c, 0, 46, 29
1, 162400, Note_on_c, 0, 74, 0
1, 162400, Note_on_c, 0, 76, 47
1, 162560, Tempo, 516440
1, 162560, Note_on_c, 0, 76, 0
1, 162560, Note_on_c, 0, 77, 47
1, 162710, Note_on_c, 0, 77, 0
1, 162720, Tempo, 477213
1, 162720, Note_on_c, 0, 46, 0
1, 162720, Note_on_c, 0, 58, 0
1, 162720, Note_on_c, 0, 77, 53
1, 162720, Note_on_c, 0, 45, 34
1, 162720, Note_on_c, 0, 57, 41
1, 162880, Note_on_c, 0, 77, 0
1, 162880, Note_on_c, 0, 76, 46
1, 163040, Tempo, 557984
1, 163040, Note_on_c, 0, 76, 0
1, 163040, Note_on_c, 0, 74, 43
1, 163200, Tempo, 471254
1, 163200, Note_on_c, 0, 74, 0
1, 163200, Note_on_c, 0, 57, 0
1, 163200, Note_on_c, 0, 45, 0
1, 163200, Note_on_c, 0, 72, 53
1, 163200, Note_on_c, 0, 53, 23
1, 163200, Note_on_c, 0, 65, 28
1, 163360, Note_on_c, 0, 72, 0
1, 163360, Note_on_c, 0, 77, 47
1, 163520, Tempo, 491441
1, 163520, Note_on_c, 0, 77, 0
1, 163520, Note_on_c, 0, 81, 50
1, 163680, Tempo, 469410
1, 163680, Note_on_c, 0, 81, 0
1, 163680, Note_on_c, 0, 65, 0
1, 163680, Note_on_c, 0, 53, 0
1, 163680, Note_on_c, 0, 72, 56
1, 163680, Note_on_c, 0, 52, 30
1, 163680, Note_on_c, 0, 64, 36
1, 163840, Note_on_c, 0, 72, 0
1, 163840, Note_on_c, 0, 79, 49
1, 164000, Tempo, 512426
1, 164000, Note_on_c, 0, 79, 0
1, 164000, Note_on_c, 0, 82, 53
1, 164040, Tempo, 520291
1, 164160, Tempo, 471254
1, 164160, Note_on_c, 0, 82, 0
1, 164160, Note_on_c, 0, 64, 0
1, 164160, Note_on_c, 0, 52, 0
1, 164160, Note_on_c, 0, 81, 61
1, 164160, Note_on_c, 0, 53, 28
1, 164160, Note_on_c, 0, 65, 41
1, 164280, Tempo, 478774
1, 164320, Note_on_c, 0, 81, 0
1, 164320, Note_on_c, 0, 82, 46
1, 164480, Note_on_c, 0, 82, 0
1, 164480, Note_on_c, 0, 84, 46
1, 164640, Tempo, 482470
1, 164640, Note_on_c, 0, 84, 0
1, 164640, Note_on_c, 0, 65, 0
1, 164640, Note_on_c, 0, 53, 0
1, 164640, Note_on_c, 0, 77, 50
1, 164640, Note_on_c, 0, 57, 41
1, 164640, Note_on_c, 0, 48, 34
1, 165120, Tempo, 495131
1, 165120, Note_on_c, 0, 48, 0
1, 165120, Note_on_c, 0, 57, 0
1, 165120, Note_on_c, 0, 77, 0
1, 165120, Note_on_c, 0, 76, 46
1, 165120, Note_on_c, 0, 48, 28
1, 165120, Note_on_c, 0, 55, 34
1, 165180, Note_on_c, 0, 76, 0
1, 165180, Note_on_c, 0, 77, 41
1, 165195, Control_c, 0, 64, 127
1, 165235, Tempo, 493299
1, 165240, Note_on_c, 0, 77, 0
1, 165240, Note_on_c, 0, 76, 46
1, 165300, Note_on_c, 0, 76, 0
1, 165300, Note_on_c, 0, 77, 41
1, 165331, Tempo, 491441
1, 165360, Note_on_c, 0, 77, 0
1, 165360, Note_on_c, 0, 76, 46
1, 165370, Tempo, 493299
1, 165408, Tempo, 495131
1, 165440, Note_on_c, 0, 76, 0
1, 165440, Note_on_c, 0, 77, 43
1, 165447, Tempo, 497018
1, 165485, Tempo, 498878
1, 165520, Note_on_c, 0, 77, 0
1, 165520, Note_on_c, 0, 76, 43
1, 165523, Tempo, 500751
1, 165562, Tempo, 502681
1, 165581, Tempo, 504583
1, 165600, Tempo, 511422
1, 165600, Note_on_c, 0, 76, 0
1, 165600, Note_on_c, 0, 55, 0
1, 165600, Note_on_c, 0, 48, 0
1, 165600, Note_on_c, 0, 77, 55
1, 165600, Note_on_c, 0, 53, 41
1, 165643, Control_c, 0, 64, 0
1, 166080, Tempo, 577923
1, 166080, Note_on_c, 0, 53, 0
1, 166080, Note_on_c, 0, 48, 38
1, 166200, Note_on_c, 0, 48, 0
1, 166560, Tempo, 589275
1, 166560, Note_on_c, 0, 77, 0
1, 166560, Note_on_c, 0, 41, 39
1, 167040, Note_on_c, 0, 41, 0
1, 167040, End_track
0, 0, End_of_file
