0, 0, Header, 1, 2, 120
1, 0, Start_track
1, 0, Time_signature, 4, 2, 24, 8
1, 0, Key_signature, 4, "major"
1, 0, Tempo, 500000
1, 0, End_track
2, 0, Start_track
2, 0, MIDI_port, 0
2, 0, Title_t, "  "
2, 0, Control_c, 0, 64, 127
2, 0, Note_on_c, 0, 44, 92
2, 0, Note_on_c, 0, 56, 85
2, 1, Note_on_c, 0, 80, 100
2, 2, Note_on_c, 0, 68, 90
2, 6, Note_on_c, 0, 44, 0
2, 9, Note_on_c, 0, 56, 0
2, 25, Note_on_c, 0, 78, 68
2, 27, Note_on_c, 0, 68, 0
2, 38, Note_on_c, 0, 76, 88
2, 39, Note_on_c, 0, 80, 0
2, 51, Note_on_c, 0, 78, 0
2, 61, Note_on_c, 0, 76, 0
2, 64, Note_on_c, 0, 75, 79
2, 73, Note_on_c, 0, 75, 0
2, 93, Note_on_c, 0, 37, 100
2, 94, Note_on_c, 0, 85, 100
2, 94, Note_on_c, 0, 73, 101
2, 94, Note_on_c, 0, 49, 96
2, 100, Note_on_c, 0, 85, 0
2, 100, Note_on_c, 0, 37, 0
2, 102, Note_on_c, 0, 49, 0
2, 112, Note_on_c, 0, 73, 0
2, 123, Note_on_c, 0, 75, 89
2, 126, Control_c, 0, 64, 0
2, 145, Note_on_c, 0, 72, 95
2, 147, Note_on_c, 0, 75, 0
2, 159, Note_on_c, 0, 72, 0
2, 162, Note_on_c, 0, 73, 85
2, 185, Note_on_c, 0, 75, 79
2, 187, Note_on_c, 0, 69, 85
2, 188, Note_on_c, 0, 66, 59
2, 193, Note_on_c, 0, 73, 0
2, 196, Note_on_c, 0, 69, 0
2, 200, Note_on_c, 0, 66, 0
2, 205, Note_on_c, 0, 76, 91
2, 213, Note_on_c, 0, 75, 0
2, 216, Note_on_c, 0, 76, 0
2, 224, Note_on_c, 0, 73, 74
2, 237, Note_on_c, 0, 73, 0
2, 250, Note_on_c, 0, 75, 77
2, 263, Note_on_c, 0, 75, 0
2, 276, Note_on_c, 0, 76, 91
2, 280, Note_on_c, 0, 64, 37
2, 280, Note_on_c, 0, 68, 68
2, 289, Note_on_c, 0, 76, 0
2, 292, Note_on_c, 0, 68, 0
2, 294, Note_on_c, 0, 64, 0
2, 298, Note_on_c, 0, 78, 80
2, 308, Note_on_c, 0, 78, 0
2, 316, Note_on_c, 0, 75, 70
2, 338, Note_on_c, 0, 75, 0
2, 348, Note_on_c, 0, 76, 58
2, 362, Note_on_c, 0, 78, 83
2, 363, Note_on_c, 0, 76, 0
2, 366, Note_on_c, 0, 66, 66
2, 367, Note_on_c, 0, 63, 60
2, 377, Note_on_c, 0, 66, 0
2, 378, Note_on_c, 0, 63, 0
2, 390, Note_on_c, 0, 80, 73
2, 391, Note_on_c, 0, 78, 0
2, 400, Note_on_c, 0, 80, 0
2, 410, Note_on_c, 0, 76, 77
2, 422, Note_on_c, 0, 76, 0
2, 430, Note_on_c, 0, 78, 74
2, 447, Note_on_c, 0, 78, 0
2, 452, Note_on_c, 0, 80, 86
2, 461, Note_on_c, 0, 64, 69
2, 462, Note_on_c, 0, 61, 62
2, 472, Note_on_c, 0, 64, 0
2, 474, Note_on_c, 0, 61, 0
2, 477, Note_on_c, 0, 80, 0
2, 477, Note_on_c, 0, 81, 85
2, 486, Note_on_c, 0, 81, 0
2, 496, Note_on_c, 0, 80, 90
2, 516, Note_on_c, 0, 80, 0
2, 522, Note_on_c, 0, 85, 68
2, 534, Note_on_c, 0, 85, 0
2, 545, Note_on_c, 0, 78, 73
2, 547, Note_on_c, 0, 66, 69
2, 550, Note_on_c, 0, 57, 57
2, 551, Note_on_c, 0, 61, 47
2, 556, Note_on_c, 0, 78, 0
2, 559, Note_on_c, 0, 66, 0
2, 562, Note_on_c, 0, 57, 0
2, 563, Note_on_c, 0, 61, 0
2, 564, Note_on_c, 0, 80, 84
2, 576, Note_on_c, 0, 80, 0
2, 593, Note_on_c, 0, 78, 78
2, 603, Note_on_c, 0, 78, 0
2, 615, Note_on_c, 0, 85, 77
2, 625, Note_on_c, 0, 85, 0
2, 637, Note_on_c, 0, 76, 80
2, 638, Note_on_c, 0, 64, 80
2, 639, Note_on_c, 0, 56, 70
2, 643, Note_on_c, 0, 61, 44
2, 646, Note_on_c, 0, 76, 0
2, 647, Note_on_c, 0, 64, 0
2, 649, Note_on_c, 0, 56, 0
2, 657, Note_on_c, 0, 61, 0
2, 661, Note_on_c, 0, 78, 70
2, 682, Note_on_c, 0, 76, 62
2, 688, Note_on_c, 0, 78, 0
2, 692, Note_on_c, 0, 76, 0
2, 705, Note_on_c, 0, 85, 73
2, 715, Note_on_c, 0, 85, 0
2, 724, Note_on_c, 0, 75, 70
2, 724, Note_on_c, 0, 63, 81
2, 725, Note_on_c, 0, 54, 58
2, 725, Note_on_c, 0, 61, 58
2, 735, Note_on_c, 0, 63, 0
2, 736, Note_on_c, 0, 75, 0
2, 736, Note_on_c, 0, 61, 0
2, 737, Note_on_c, 0, 54, 0
2, 747, Note_on_c, 0, 76, 72
2, 766, Note_on_c, 0, 76, 0
2, 769, Note_on_c, 0, 75, 65
2, 784, Note_on_c, 0, 75, 0
2, 785, Note_on_c, 0, 49, 68
2, 786, Note_on_c, 0, 85, 69
2, 798, Note_on_c, 0, 85, 0
2, 798, Note_on_c, 0, 49, 0
2, 805, Note_on_c, 0, 56, 41
2, 810, Note_on_c, 0, 73, 89
2, 816, Note_on_c, 0, 64, 88
2, 820, Note_on_c, 0, 56, 0
2, 823, Note_on_c, 0, 64, 0
2, 825, Note_on_c, 0, 73, 0
2, 834, Note_on_c, 0, 80, 88
2, 856, Note_on_c, 0, 88, 83
2, 861, Note_on_c, 0, 44, 80
2, 862, Note_on_c, 0, 80, 0
2, 869, Note_on_c, 0, 44, 0
2, 870, Note_on_c, 0, 88, 0
2, 879, Note_on_c, 0, 81, 75
2, 885, Note_on_c, 0, 54, 64
2, 892, Note_on_c, 0, 81, 0
2, 894, Note_on_c, 0, 60, 91
2, 895, Note_on_c, 0, 72, 98
2, 911, Note_on_c, 0, 60, 0
2, 917, Note_on_c, 0, 72, 0
2, 917, Note_on_c, 0, 78, 81
2, 918, Note_on_c, 0, 54, 0
2, 930, Note_on_c, 0, 78, 0
2, 943, Note_on_c, 0, 87, 59
2, 954, Note_on_c, 0, 87, 0
2, 955, Note_on_c, 0, 80, 84
2, 975, Note_on_c, 0, 80, 0
2, 977, Note_on_c, 0, 61, 95
2, 979, Note_on_c, 0, 49, 77
2, 981, Note_on_c, 0, 68, 97
2, 981, Note_on_c, 0, 52, 81
2, 984, Note_on_c, 0, 78, 34
2, 991, Note_on_c, 0, 52, 0
2, 991, Note_on_c, 0, 68, 0
2, 995, Note_on_c, 0, 61, 0
2, 995, Note_on_c, 0, 76, 81
2, 997, Note_on_c, 0, 49, 0
2, 997, Note_on_c, 0, 78, 0
2, 1018, Note_on_c, 0, 76, 0
2, 1023, Note_on_c, 0, 85, 85
2, 1040, Note_on_c, 0, 85, 0
2, 1041, Note_on_c, 0, 78, 92
2, 1063, Note_on_c, 0, 68, 92
2, 1067, Note_on_c, 0, 56, 93
2, 1070, Note_on_c, 0, 44, 89
2, 1081, Note_on_c, 0, 78, 0
2, 1081, Note_on_c, 0, 75, 86
2, 1084, Note_on_c, 0, 56, 0
2, 1086, Note_on_c, 0, 68, 0
2, 1094, Note_on_c, 0, 44, 0
2, 1100, Note_on_c, 0, 75, 0
2, 1105, Note_on_c, 0, 84, 107
2, 1129, Note_on_c, 0, 76, 95
2, 1133, Note_on_c, 0, 84, 0
2, 1138, Note_on_c, 0, 76, 0
2, 1154, Note_on_c, 0, 49, 111
2, 1155, Note_on_c, 0, 37, 105
2, 1155, Note_on_c, 0, 85, 113
2, 1156, Note_on_c, 0, 73, 106
2, 1162, Note_on_c, 0, 37, 0
2, 1173, Note_on_c, 0, 49, 0
2, 1177, Note_on_c, 0, 73, 0
2, 1180, Note_on_c, 0, 85, 0
2, 1183, Control_c, 0, 64, 127
2, 1209, Note_on_c, 0, 57, 100
2, 1210, Note_on_c, 0, 69, 74
2, 1211, Note_on_c, 0, 45, 105
2, 1217, Note_on_c, 0, 57, 0
2, 1218, Note_on_c, 0, 45, 0
2, 1219, Note_on_c, 0, 69, 0
2, 1222, Note_on_c, 0, 81, 110
2, 1233, Control_c, 0, 64, 0
2, 1245, Note_on_c, 0, 81, 0
2, 1249, Note_on_c, 0, 56, 97
2, 1249, Note_on_c, 0, 44, 95
2, 1249, Note_on_c, 0, 68, 100
2, 1258, Note_on_c, 0, 44, 0
2, 1261, Note_on_c, 0, 56, 0
2, 1266, Note_on_c, 0, 80, 102
2, 1273, Note_on_c, 0, 68, 0
2, 1289, Note_on_c, 0, 80, 0
2, 1293, Note_on_c, 0, 55, 107
2, 1293, Note_on_c, 0, 67, 103
2, 1293, Note_on_c, 0, 43, 105
2, 1300, Note_on_c, 0, 43, 0
2, 1303, Note_on_c, 0, 55, 0
2, 1310, Note_on_c, 0, 79, 105
2, 1312, Note_on_c, 0, 67, 0
2, 1330, Note_on_c, 0, 79, 0
2, 1333, Note_on_c, 0, 68, 100
2, 1338, Note_on_c, 0, 56, 98
2, 1340, Note_on_c, 0, 44, 95
2, 1345, Note_on_c, 0, 56, 0
2, 1347, Note_on_c, 0, 44, 0
2, 1352, Note_on_c, 0, 80, 105
2, 1354, Note_on_c, 0, 68, 0
2, 1359, Note_on_c, 0, 80, 0
2, 1378, Note_on_c, 0, 37, 101
2, 1379, Note_on_c, 0, 49, 100
2, 1384, Note_on_c, 0, 37, 0
2, 1387, Note_on_c, 0, 49, 0
2, 1387, Note_on_c, 0, 61, 92
2, 1392, Note_on_c, 0, 73, 88
2, 1411, Note_on_c, 0, 73, 0
2, 1411, Note_on_c, 0, 61, 0
2, 1429, Note_on_c, 0, 63, 106
2, 1430, Note_on_c, 0, 39, 97
2, 1430, Note_on_c, 0, 75, 106
2, 1430, Note_on_c, 0, 51, 102
2, 1431, Note_on_c, 0, 70, 106
2, 1432, Note_on_c, 0, 67, 95
2, 1433, Note_on_c, 0, 61, 92
2, 1439, Note_on_c, 0, 39, 0
2, 1447, Control_c, 0, 64, 127
2, 1448, Note_on_c, 0, 51, 0
2, 1456, Note_on_c, 0, 75, 0
2, 1459, Note_on_c, 0, 67, 0
2, 1459, Note_on_c, 0, 49, 85
2, 1468, Note_on_c, 0, 70, 0
2, 1470, Note_on_c, 0, 49, 0
2, 1471, Note_on_c, 0, 63, 0
2, 1475, Note_on_c, 0, 61, 0
2, 1485, Note_on_c, 0, 47, 74
2, 1503, Note_on_c, 0, 46, 105
2, 1509, Note_on_c, 0, 47, 0
2, 1524, Control_c, 0, 64, 0
2, 1528, Note_on_c, 0, 63, 61
2, 1528, Note_on_c, 0, 59, 81
2, 1528, Note_on_c, 0, 71, 81
2, 1530, Note_on_c, 0, 44, 90
2, 1531, Note_on_c, 0, 68, 70
2, 1533, Note_on_c, 0, 46, 0
2, 1539, Note_on_c, 0, 71, 0
2, 1543, Note_on_c, 0, 68, 0
2, 1544, Note_on_c, 0, 63, 0
2, 1546, Note_on_c, 0, 46, 105
2, 1553, Note_on_c, 0, 44, 0
2, 1553, Note_on_c, 0, 59, 0
2, 1572, Note_on_c, 0, 46, 0
2, 1574, Note_on_c, 0, 43, 92
2, 1599, Note_on_c, 0, 44, 84
2, 1604, Note_on_c, 0, 43, 0
2, 1615, Note_on_c, 0, 46, 102
2, 1620, Note_on_c, 0, 44, 0
2, 1621, Note_on_c, 0, 61, 74
2, 1623, Note_on_c, 0, 63, 66
2, 1625, Note_on_c, 0, 67, 72
2, 1635, Note_on_c, 0, 63, 0
2, 1636, Note_on_c, 0, 67, 0
2, 1638, Note_on_c, 0, 61, 0
2, 1640, Note_on_c, 0, 46, 0
2, 1645, Note_on_c, 0, 47, 70
2, 1658, Note_on_c, 0, 47, 0
2, 1665, Note_on_c, 0, 44, 76
2, 1692, Note_on_c, 0, 46, 94
2, 1695, Note_on_c, 0, 44, 0
2, 1708, Note_on_c, 0, 46, 0
2, 1717, Note_on_c, 0, 47, 42
2, 1717, Note_on_c, 0, 63, 72
2, 1719, Note_on_c, 0, 68, 72
2, 1720, Note_on_c, 0, 59, 60
2, 1728, Note_on_c, 0, 47, 0
2, 1729, Note_on_c, 0, 63, 0
2, 1731, Note_on_c, 0, 59, 0
2, 1733, Note_on_c, 0, 68, 0
2, 1737, Note_on_c, 0, 49, 76
2, 1752, Note_on_c, 0, 49, 0
2, 1759, Note_on_c, 0, 46, 95
2, 1785, Note_on_c, 0, 47, 77
2, 1792, Note_on_c, 0, 46, 0
2, 1806, Note_on_c, 0, 49, 87
2, 1809, Note_on_c, 0, 61, 81
2, 1810, Note_on_c, 0, 47, 0
2, 1810, Note_on_c, 0, 68, 78
2, 1813, Note_on_c, 0, 64, 78
2, 1817, Note_on_c, 0, 49, 0
2, 1823, Note_on_c, 0, 61, 0
2, 1823, Note_on_c, 0, 68, 0
2, 1823, Note_on_c, 0, 64, 0
2, 1831, Note_on_c, 0, 51, 79
2, 1842, Note_on_c, 0, 51, 0
2, 1852, Note_on_c, 0, 47, 60
2, 1873, Note_on_c, 0, 49, 79
2, 1884, Note_on_c, 0, 47, 0
2, 1898, Note_on_c, 0, 51, 88
2, 1902, Note_on_c, 0, 68, 84
2, 1902, Note_on_c, 0, 63, 81
2, 1904, Note_on_c, 0, 59, 70
2, 1905, Note_on_c, 0, 49, 0
2, 1914, Note_on_c, 0, 59, 0
2, 1916, Note_on_c, 0, 63, 0
2, 1920, Note_on_c, 0, 68, 0
2, 1923, Note_on_c, 0, 52, 94
2, 1924, Note_on_c, 0, 51, 0
2, 1933, Note_on_c, 0, 52, 0
2, 1944, Note_on_c, 0, 51, 64
2, 1964, Note_on_c, 0, 51, 0
2, 1972, Note_on_c, 0, 56, 79
2, 1984, Note_on_c, 0, 56, 0
2, 1996, Note_on_c, 0, 68, 78
2, 1996, Note_on_c, 0, 61, 75
2, 1996, Note_on_c, 0, 49, 84
2, 2001, Note_on_c, 0, 64, 55
2, 2009, Note_on_c, 0, 49, 0
2, 2010, Note_on_c, 0, 61, 0
2, 2011, Note_on_c, 0, 64, 0
2, 2019, Note_on_c, 0, 68, 0
2, 2020, Note_on_c, 0, 51, 83
2, 2040, Note_on_c, 0, 51, 0
2, 2047, Note_on_c, 0, 49, 78
2, 2059, Note_on_c, 0, 49, 0
2, 2067, Note_on_c, 0, 56, 79
2, 2080, Note_on_c, 0, 56, 0
2, 2089, Note_on_c, 0, 47, 61
2, 2092, Note_on_c, 0, 63, 73
2, 2094, Note_on_c, 0, 68, 75
2, 2101, Note_on_c, 0, 47, 0
2, 2104, Note_on_c, 0, 63, 0
2, 2106, Note_on_c, 0, 68, 0
2, 2109, Note_on_c, 0, 49, 79
2, 2138, Note_on_c, 0, 49, 0
2, 2139, Note_on_c, 0, 47, 69
2, 2151, Note_on_c, 0, 47, 0
2, 2159, Note_on_c, 0, 56, 75
2, 2177, Note_on_c, 0, 56, 0
2, 2182, Note_on_c, 0, 70, 91
2, 2182, Note_on_c, 0, 46, 94
2, 2184, Note_on_c, 0, 63, 70
2, 2184, Note_on_c, 0, 61, 64
2, 2196, Note_on_c, 0, 70, 0
2, 2198, Note_on_c, 0, 46, 0
2, 2199, Note_on_c, 0, 61, 0
2, 2200, Note_on_c, 0, 63, 0
2, 2208, Note_on_c, 0, 47, 68
2, 2226, Note_on_c, 0, 46, 95
2, 2231, Note_on_c, 0, 47, 0
2, 2247, Note_on_c, 0, 46, 0
2, 2248, Note_on_c, 0, 55, 81
2, 2262, Note_on_c, 0, 55, 0
2, 2271, Note_on_c, 0, 71, 90
2, 2272, Note_on_c, 0, 63, 70
2, 2272, Note_on_c, 0, 44, 80
2, 2274, Note_on_c, 0, 68, 75
2, 2275, Note_on_c, 0, 59, 49
2, 2281, Note_on_c, 0, 63, 0
2, 2284, Note_on_c, 0, 68, 0
2, 2284, Note_on_c, 0, 52, 73
2, 2286, Note_on_c, 0, 71, 0
2, 2286, Note_on_c, 0, 59, 0
2, 2288, Note_on_c, 0, 44, 0
2, 2297, Note_on_c, 0, 52, 0
2, 2310, Note_on_c, 0, 59, 53
2, 2332, Note_on_c, 0, 51, 72
2, 2334, Note_on_c, 0, 59, 0
2, 2359, Note_on_c, 0, 51, 0
2, 2361, Note_on_c, 0, 43, 85
2, 2368, Note_on_c, 0, 87, 98
2, 2370, Note_on_c, 0, 75, 86
2, 2370, Note_on_c, 0, 82, 87
2, 2378, Note_on_c, 0, 43, 0
2, 2386, Note_on_c, 0, 52, 65
2, 2393, Control_c, 0, 64, 127
2, 2398, Note_on_c, 0, 75, 0
2, 2406, Note_on_c, 0, 82, 0
2, 2410, Note_on_c, 0, 52, 0
2, 2415, Note_on_c, 0, 58, 86
2, 2431, Note_on_c, 0, 51, 78
2, 2432, Note_on_c, 0, 58, 0
2, 2448, Note_on_c, 0, 51, 0
2, 2457, Note_on_c, 0, 80, 70
2, 2458, Note_on_c, 0, 44, 84
2, 2460, Note_on_c, 0, 83, 84
2, 2462, Control_c, 0, 64, 0
2, 2466, Note_on_c, 0, 87, 0
2, 2470, Note_on_c, 0, 80, 0
2, 2476, Note_on_c, 0, 83, 0
2, 2484, Note_on_c, 0, 44, 0
2, 2485, Note_on_c, 0, 52, 89
2, 2503, Note_on_c, 0, 52, 0
2, 2505, Note_on_c, 0, 59, 78
2, 2518, Note_on_c, 0, 59, 0
2, 2526, Note_on_c, 0, 51, 87
2, 2553, Note_on_c, 0, 51, 0
2, 2553, Note_on_c, 0, 75, 102
2, 2556, Note_on_c, 0, 43, 59
2, 2556, Note_on_c, 0, 63, 78
2, 2557, Note_on_c, 0, 70, 85
2, 2569, Note_on_c, 0, 63, 0
2, 2571, Note_on_c, 0, 43, 0
2, 2572, Note_on_c, 0, 70, 0
2, 2577, Control_c, 0, 64, 127
2, 2584, Note_on_c, 0, 52, 74
2, 2604, Note_on_c, 0, 58, 78
2, 2608, Note_on_c, 0, 52, 0
2, 2618, Note_on_c, 0, 58, 0
2, 2625, Note_on_c, 0, 51, 76
2, 2635, Note_on_c, 0, 51, 0
2, 2635, Note_on_c, 0, 75, 0
2, 2638, Control_c, 0, 64, 0
2, 2646, Note_on_c, 0, 44, 87
2, 2646, Note_on_c, 0, 68, 75
2, 2647, Note_on_c, 0, 56, 84
2, 2650, Note_on_c, 0, 71, 75
2, 2653, Note_on_c, 0, 44, 0
2, 2658, Note_on_c, 0, 68, 0
2, 2659, Note_on_c, 0, 56, 0
2, 2659, Note_on_c, 0, 71, 0
2, 2692, Note_on_c, 0, 61, 94
2, 2695, Note_on_c, 0, 64, 84
2, 2715, Note_on_c, 0, 67, 75
2, 2726, Note_on_c, 0, 64, 0
2, 2731, Control_c, 0, 64, 127
2, 2735, Note_on_c, 0, 61, 0
2, 2742, Note_on_c, 0, 63, 81
2, 2742, Note_on_c, 0, 59, 80
2, 2746, Note_on_c, 0, 67, 0
2, 2754, Note_on_c, 0, 59, 0
2, 2764, Note_on_c, 0, 68, 84
2, 2768, Note_on_c, 0, 63, 0
2, 2769, Control_c, 0, 64, 0
2, 2775, Note_on_c, 0, 68, 0
2, 2789, Note_on_c, 0, 64, 106
2, 2790, Note_on_c, 0, 67, 90
2, 2806, Note_on_c, 0, 70, 95
2, 2808, Note_on_c, 0, 67, 0
2, 2828, Note_on_c, 0, 64, 0
2, 2832, Note_on_c, 0, 66, 90
2, 2835, Note_on_c, 0, 63, 90
2, 2836, Note_on_c, 0, 70, 0
2, 2842, Control_c, 0, 64, 127
2, 2854, Note_on_c, 0, 71, 83
2, 2856, Note_on_c, 0, 63, 0
2, 2856, Note_on_c, 0, 66, 0
2, 2864, Note_on_c, 0, 71, 0
2, 2869, Control_c, 0, 64, 0
2, 2879, Note_on_c, 0, 66, 83
2, 2880, Note_on_c, 0, 69, 98
2, 2902, Note_on_c, 0, 72, 87
2, 2907, Note_on_c, 0, 69, 0
2, 2912, Note_on_c, 0, 66, 0
2, 2923, Note_on_c, 0, 64, 94
2, 2925, Note_on_c, 0, 68, 95
2, 2930, Note_on_c, 0, 72, 0
2, 2931, Note_on_c, 0, 64, 0
2, 2934, Control_c, 0, 64, 127
2, 2946, Note_on_c, 0, 73, 87
2, 2952, Note_on_c, 0, 68, 0
2, 2955, Note_on_c, 0, 73, 0
2, 2958, Control_c, 0, 64, 0
2, 2967, Note_on_c, 0, 66, 95
2, 2968, Note_on_c, 0, 72, 97
2, 2969, Note_on_c, 0, 56, 95
2, 2973, Note_on_c, 0, 63, 80
2, 2989, Note_on_c, 0, 72, 0
2, 2990, Note_on_c, 0, 75, 85
2, 2991, Note_on_c, 0, 66, 0
2, 2998, Note_on_c, 0, 63, 0
2, 3004, Note_on_c, 0, 56, 0
2, 3005, Note_on_c, 0, 75, 0
2, 3009, Note_on_c, 0, 73, 93
2, 3013, Note_on_c, 0, 61, 92
2, 3013, Note_on_c, 0, 64, 101
2, 3025, Note_on_c, 0, 61, 0
2, 3027, Note_on_c, 0, 64, 0
2, 3035, Note_on_c, 0, 75, 87
2, 3036, Note_on_c, 0, 73, 0
2, 3053, Note_on_c, 0, 75, 0
2, 3057, Note_on_c, 0, 72, 88
2, 3072, Note_on_c, 0, 72, 0
2, 3078, Note_on_c, 0, 73, 79
2, 3102, Note_on_c, 0, 75, 77
2, 3103, Note_on_c, 0, 73, 0
2, 3108, Note_on_c, 0, 69, 81
2, 3108, Note_on_c, 0, 66, 53
2, 3117, Note_on_c, 0, 69, 0
2, 3122, Note_on_c, 0, 66, 0
2, 3124, Note_on_c, 0, 76, 90
2, 3129, Note_on_c, 0, 75, 0
2, 3136, Note_on_c, 0, 76, 0
2, 3148, Note_on_c, 0, 73, 80
2, 3162, Note_on_c, 0, 73, 0
2, 3172, Note_on_c, 0, 75, 72
2, 3190, Note_on_c, 0, 75, 0
2, 3199, Note_on_c, 0, 76, 92
2, 3201, Note_on_c, 0, 68, 65
2, 3202, Note_on_c, 0, 64, 47
2, 3213, Note_on_c, 0, 68, 0
2, 3215, Note_on_c, 0, 64, 0
2, 3225, Note_on_c, 0, 78, 80
2, 3227, Note_on_c, 0, 76, 0
2, 3237, Note_on_c, 0, 78, 0
2, 3244, Note_on_c, 0, 75, 68
2, 3263, Note_on_c, 0, 75, 0
2, 3270, Note_on_c, 0, 76, 67
2, 3289, Note_on_c, 0, 66, 67
2, 3291, Note_on_c, 0, 63, 44
2, 3294, Note_on_c, 0, 78, 79
2, 3295, Note_on_c, 0, 76, 0
2, 3304, Note_on_c, 0, 66, 0
2, 3307, Note_on_c, 0, 63, 0
2, 3315, Note_on_c, 0, 80, 78
2, 3318, Note_on_c, 0, 78, 0
2, 3326, Note_on_c, 0, 80, 0
2, 3336, Note_on_c, 0, 76, 74
2, 3347, Note_on_c, 0, 76, 0
2, 3355, Note_on_c, 0, 78, 81
2, 3381, Note_on_c, 0, 80, 75
2, 3382, Note_on_c, 0, 78, 0
2, 3386, Note_on_c, 0, 61, 51
2, 3386, Note_on_c, 0, 64, 66
2, 3398, Note_on_c, 0, 64, 0
2, 3398, Note_on_c, 0, 61, 0
2, 3402, Note_on_c, 0, 81, 80
2, 3403, Note_on_c, 0, 80, 0
2, 3412, Note_on_c, 0, 81, 0
2, 3423, Note_on_c, 0, 80, 84
2, 3442, Note_on_c, 0, 80, 0
2, 3449, Note_on_c, 0, 85, 73
2, 3461, Note_on_c, 0, 85, 0
2, 3472, Note_on_c, 0, 78, 79
2, 3473, Note_on_c, 0, 66, 61
2, 3474, Note_on_c, 0, 57, 59
2, 3476, Note_on_c, 0, 61, 37
2, 3483, Note_on_c, 0, 78, 0
2, 3485, Note_on_c, 0, 57, 0
2, 3488, Note_on_c, 0, 66, 0
2, 3492, Note_on_c, 0, 61, 0
2, 3492, Note_on_c, 0, 80, 83
2, 3505, Note_on_c, 0, 80, 0
2, 3517, Note_on_c, 0, 78, 83
2, 3529, Note_on_c, 0, 78, 0
2, 3537, Note_on_c, 0, 85, 83
2, 3548, Note_on_c, 0, 85, 0
2, 3562, Note_on_c, 0, 76, 80
2, 3564, Note_on_c, 0, 64, 74
2, 3565, Note_on_c, 0, 56, 59
2, 3565, Note_on_c, 0, 61, 47
2, 3572, Note_on_c, 0, 76, 0
2, 3574, Note_on_c, 0, 64, 0
2, 3578, Note_on_c, 0, 56, 0
2, 3579, Note_on_c, 0, 61, 0
2, 3584, Note_on_c, 0, 78, 68
2, 3604, Note_on_c, 0, 78, 0
2, 3604, Note_on_c, 0, 76, 62
2, 3616, Note_on_c, 0, 76, 0
2, 3629, Note_on_c, 0, 85, 75
2, 3640, Note_on_c, 0, 85, 0
2, 3651, Note_on_c, 0, 75, 78
2, 3652, Note_on_c, 0, 63, 73
2, 3655, Note_on_c, 0, 61, 65
2, 3658, Note_on_c, 0, 54, 54
2, 3663, Note_on_c, 0, 63, 0
2, 3663, Note_on_c, 0, 75, 0
2, 3665, Note_on_c, 0, 61, 0
2, 3670, Note_on_c, 0, 54, 0
2, 3671, Note_on_c, 0, 76, 87
2, 3693, Note_on_c, 0, 76, 0
2, 3696, Note_on_c, 0, 75, 70
2, 3707, Note_on_c, 0, 75, 0
2, 3715, Note_on_c, 0, 85, 73
2, 3719, Note_on_c, 0, 49, 50
2, 3727, Note_on_c, 0, 85, 0
2, 3732, Note_on_c, 0, 49, 0
2, 3732, Note_on_c, 0, 56, 65
2, 3739, Note_on_c, 0, 73, 94
2, 3744, Note_on_c, 0, 64, 83
2, 3753, Note_on_c, 0, 64, 0
2, 3754, Note_on_c, 0, 73, 0
2, 3762, Note_on_c, 0, 56, 0
2, 3763, Note_on_c, 0, 80, 86
2, 3783, Note_on_c, 0, 88, 85
2, 3785, Note_on_c, 0, 80, 0
2, 3795, Note_on_c, 0, 44, 78
2, 3801, Note_on_c, 0, 88, 0
2, 3804, Note_on_c, 0, 44, 0
2, 3807, Note_on_c, 0, 81, 81
2, 3815, Note_on_c, 0, 54, 67
2, 3822, Note_on_c, 0, 81, 0
2, 3824, Note_on_c, 0, 72, 103
2, 3825, Note_on_c, 0, 60, 97
2, 3841, Note_on_c, 0, 60, 0
2, 3842, Note_on_c, 0, 78, 84
2, 3843, Note_on_c, 0, 72, 0
2, 3848, Note_on_c, 0, 54, 0
2, 3858, Note_on_c, 0, 78, 0
2, 3862, Note_on_c, 0, 87, 95
2, 3875, Note_on_c, 0, 87, 0
2, 3877, Note_on_c, 0, 45, 95
2, 3885, Note_on_c, 0, 80, 89
2, 3886, Note_on_c, 0, 45, 0
2, 3891, Note_on_c, 0, 52, 76
2, 3898, Note_on_c, 0, 80, 0
2, 3909, Note_on_c, 0, 69, 95
2, 3909, Note_on_c, 0, 61, 105
2, 3914, Note_on_c, 0, 52, 0
2, 3918, Note_on_c, 0, 61, 0
2, 3919, Note_on_c, 0, 69, 0
2, 3923, Note_on_c, 0, 75, 80
2, 3947, Note_on_c, 0, 75, 0
2, 3947, Note_on_c, 0, 85, 102
2, 3969, Note_on_c, 0, 85, 0
2, 3969, Note_on_c, 0, 76, 88
2, 3980, Note_on_c, 0, 76, 0
2, 3990, Note_on_c, 0, 62, 96
2, 3991, Note_on_c, 0, 65, 116
2, 3991, Note_on_c, 0, 53, 98
2, 3993, Note_on_c, 0, 59, 84
2, 3993, Note_on_c, 0, 68, 97
2, 4018, Note_on_c, 0, 68, 0
2, 4023, Note_on_c, 0, 73, 46
2, 4033, Control_c, 0, 64, 127
2, 4036, Note_on_c, 0, 73, 0
2, 4039, Note_on_c, 0, 53, 0
2, 4052, Note_on_c, 0, 83, 67
2, 4054, Note_on_c, 0, 65, 0
2, 4058, Note_on_c, 0, 62, 0
2, 4065, Note_on_c, 0, 74, 105
2, 4067, Note_on_c, 0, 83, 0
2, 4068, Note_on_c, 0, 59, 0
2, 4082, Note_on_c, 0, 74, 0
2, 4086, Note_on_c, 0, 66, 110
2, 4087, Control_c, 0, 64, 0
2, 4088, Note_on_c, 0, 69, 105
2, 4090, Note_on_c, 0, 57, 84
2, 4092, Note_on_c, 0, 61, 83
2, 4092, Note_on_c, 0, 54, 75
2, 4101, Note_on_c, 0, 57, 0
2, 4102, Note_on_c, 0, 61, 0
2, 4103, Note_on_c, 0, 54, 0
2, 4112, Note_on_c, 0, 73, 97
2, 4114, Note_on_c, 0, 66, 0
2, 4116, Note_on_c, 0, 69, 0
2, 4127, Note_on_c, 0, 81, 77
2, 4133, Note_on_c, 0, 62, 105
2, 4135, Note_on_c, 0, 50, 109
2, 4141, Control_c, 0, 64, 127
2, 4143, Note_on_c, 0, 50, 0
2, 4144, Note_on_c, 0, 73, 0
2, 4145, Note_on_c, 0, 62, 0
2, 4148, Note_on_c, 0, 78, 90
2, 4155, Note_on_c, 0, 81, 0
2, 4158, Note_on_c, 0, 78, 0
2, 4174, Note_on_c, 0, 61, 104
2, 4174, Note_on_c, 0, 81, 98
2, 4176, Note_on_c, 0, 49, 100
2, 4182, Note_on_c, 0, 61, 0
2, 4184, Note_on_c, 0, 49, 0
2, 4200, Note_on_c, 0, 85, 100
2, 4207, Note_on_c, 0, 81, 0
2, 4217, Note_on_c, 0, 57, 96
2, 4219, Note_on_c, 0, 45, 91
2, 4221, Note_on_c, 0, 85, 0
2, 4224, Note_on_c, 0, 93, 81
2, 4226, Note_on_c, 0, 45, 0
2, 4226, Note_on_c, 0, 57, 0
2, 4241, Note_on_c, 0, 90, 90
2, 4255, Note_on_c, 0, 93, 0
2, 4258, Note_on_c, 0, 54, 103
2, 4259, Note_on_c, 0, 85, 95
2, 4261, Note_on_c, 0, 42, 92
2, 4266, Note_on_c, 0, 54, 0
2, 4268, Note_on_c, 0, 42, 0
2, 4273, Note_on_c, 0, 90, 0
2, 4276, Note_on_c, 0, 81, 101
2, 4283, Note_on_c, 0, 85, 0
2, 4285, Note_on_c, 0, 81, 0
2, 4299, Note_on_c, 0, 49, 97
2, 4302, Note_on_c, 0, 37, 95
2, 4305, Note_on_c, 0, 78, 87
2, 4310, Note_on_c, 0, 37, 0
2, 4314, Note_on_c, 0, 49, 0
2, 4327, Note_on_c, 0, 73, 90
2, 4337, Note_on_c, 0, 78, 0
2, 4348, Note_on_c, 0, 73, 0
2, 4348, Note_on_c, 0, 38, 105
2, 4348, Control_c, 0, 64, 0
2, 4349, Note_on_c, 0, 50, 104
2, 4351, Note_on_c, 0, 69, 96
2, 4359, Note_on_c, 0, 69, 0
2, 4375, Note_on_c, 0, 66, 88
2, 4399, Note_on_c, 0, 62, 78
2, 4410, Note_on_c, 0, 66, 0
2, 4412, Note_on_c, 0, 50, 0
2, 4416, Note_on_c, 0, 57, 89
2, 4417, Control_c, 0, 64, 127
2, 4426, Note_on_c, 0, 57, 0
2, 4426, Note_on_c, 0, 62, 0
2, 4440, Note_on_c, 0, 38, 0
2, 4447, Note_on_c, 0, 41, 78
2, 4448, Note_on_c, 0, 68, 97
2, 4450, Note_on_c, 0, 59, 74
2, 4451, Note_on_c, 0, 62, 44
2, 4464, Control_c, 0, 64, 0
2, 4472, Note_on_c, 0, 42, 73
2, 4476, Note_on_c, 0, 41, 0
2, 4491, Note_on_c, 0, 40, 80
2, 4499, Note_on_c, 0, 42, 0
2, 4518, Note_on_c, 0, 41, 74
2, 4524, Note_on_c, 0, 40, 0
2, 4541, Note_on_c, 0, 42, 76
2, 4543, Note_on_c, 0, 41, 0
2, 4547, Note_on_c, 0, 66, 81
2, 4552, Control_c, 0, 64, 127
2, 4553, Note_on_c, 0, 42, 0
2, 4563, Note_on_c, 0, 44, 71
2, 4571, Control_c, 0, 64, 0
2, 4582, Note_on_c, 0, 68, 0
2, 4583, Note_on_c, 0, 44, 0
2, 4585, Note_on_c, 0, 41, 59
2, 4612, Note_on_c, 0, 42, 68
2, 4628, Note_on_c, 0, 41, 0
2, 4644, Control_c, 0, 64, 127
2, 4645, Note_on_c, 0, 44, 54
2, 4648, Note_on_c, 0, 65, 75
2, 4651, Note_on_c, 0, 42, 0
2, 4652, Control_c, 0, 64, 0
2, 4664, Note_on_c, 0, 66, 0
2, 4666, Note_on_c, 0, 44, 0
2, 4668, Note_on_c, 0, 45, 75
2, 4682, Note_on_c, 0, 62, 0
2, 4686, Note_on_c, 0, 45, 0
2, 4693, Note_on_c, 0, 42, 51
2, 4700, Note_on_c, 0, 59, 0
2, 4702, Control_c, 0, 64, 127
2, 4712, Note_on_c, 0, 44, 71
2, 4727, Note_on_c, 0, 42, 0
2, 4740, Note_on_c, 0, 66, 73
2, 4743, Note_on_c, 0, 44, 0
2, 4743, Note_on_c, 0, 45, 75
2, 4745, Note_on_c, 0, 57, 61
2, 4746, Note_on_c, 0, 62, 59
2, 4752, Note_on_c, 0, 65, 0
2, 4756, Control_c, 0, 64, 0
2, 4768, Note_on_c, 0, 47, 56
2, 4769, Note_on_c, 0, 45, 0
2, 4779, Note_on_c, 0, 47, 0
2, 4785, Note_on_c, 0, 45, 94
2, 4786, Control_c, 0, 64, 127
2, 4788, Note_on_c, 0, 62, 0
2, 4790, Note_on_c, 0, 57, 0
2, 4810, Note_on_c, 0, 45, 0
2, 4816, Note_on_c, 0, 47, 68
2, 4834, Note_on_c, 0, 41, 78
2, 4835, Note_on_c, 0, 68, 83
2, 4837, Note_on_c, 0, 59, 52
2, 4838, Note_on_c, 0, 47, 0
2, 4839, Note_on_c, 0, 62, 65
2, 4853, Note_on_c, 0, 66, 0
2, 4860, Control_c, 0, 64, 0
2, 4860, Note_on_c, 0, 42, 79
2, 4863, Note_on_c, 0, 41, 0
2, 4881, Note_on_c, 0, 40, 88
2, 4890, Note_on_c, 0, 42, 0
2, 4912, Note_on_c, 0, 41, 78
2, 4917, Note_on_c, 0, 40, 0
2, 4929, Control_c, 0, 64, 127
2, 4930, Note_on_c, 0, 41, 0
2, 4930, Note_on_c, 0, 66, 81
2, 4931, Note_on_c, 0, 42, 72
2, 4947, Note_on_c, 0, 42, 0
2, 4956, Note_on_c, 0, 44, 67
2, 4968, Note_on_c, 0, 44, 0
2, 4970, Note_on_c, 0, 68, 0
2, 4977, Note_on_c, 0, 41, 76
2, 5002, Note_on_c, 0, 42, 73
2, 5014, Note_on_c, 0, 41, 0
2, 5023, Note_on_c, 0, 65, 89
2, 5028, Note_on_c, 0, 44, 83
2, 5038, Note_on_c, 0, 66, 0
2, 5039, Note_on_c, 0, 42, 0
2, 5052, Note_on_c, 0, 44, 0
2, 5055, Note_on_c, 0, 45, 84
2, 5059, Control_c, 0, 64, 0
2, 5073, Note_on_c, 0, 45, 0
2, 5074, Note_on_c, 0, 42, 63
2, 5083, Note_on_c, 0, 59, 0
2, 5089, Note_on_c, 0, 44, 88
2, 5105, Control_c, 0, 64, 127
2, 5106, Note_on_c, 0, 62, 0
2, 5107, Note_on_c, 0, 42, 0
2, 5112, Note_on_c, 0, 45, 87
2, 5119, Note_on_c, 0, 61, 89
2, 5122, Note_on_c, 0, 66, 90
2, 5123, Note_on_c, 0, 44, 0
2, 5129, Note_on_c, 0, 65, 0
2, 5131, Note_on_c, 0, 61, 0
2, 5138, Note_on_c, 0, 47, 66
2, 5139, Note_on_c, 0, 45, 0
2, 5148, Note_on_c, 0, 66, 0
2, 5150, Note_on_c, 0, 47, 0
2, 5161, Note_on_c, 0, 45, 84
2, 5185, Note_on_c, 0, 45, 0
2, 5190, Note_on_c, 0, 47, 72
2, 5203, Note_on_c, 0, 47, 0
2, 5211, Note_on_c, 0, 48, 87
2, 5211, Note_on_c, 0, 75, 91
2, 5211, Note_on_c, 0, 66, 70
2, 5211, Note_on_c, 0, 69, 81
2, 5232, Control_c, 0, 64, 0
2, 5234, Note_on_c, 0, 48, 0
2, 5234, Note_on_c, 0, 49, 88
2, 5257, Note_on_c, 0, 47, 81
2, 5264, Note_on_c, 0, 49, 0
2, 5289, Note_on_c, 0, 48, 81
2, 5290, Control_c, 0, 64, 127
2, 5295, Note_on_c, 0, 47, 0
2, 5304, Note_on_c, 0, 49, 63
2, 5307, Note_on_c, 0, 73, 91
2, 5311, Note_on_c, 0, 48, 0
2, 5327, Note_on_c, 0, 49, 0
2, 5331, Note_on_c, 0, 51, 88
2, 5332, Note_on_c, 0, 75, 0
2, 5344, Note_on_c, 0, 51, 0
2, 5351, Note_on_c, 0, 48, 87
2, 5374, Note_on_c, 0, 49, 88
2, 5387, Note_on_c, 0, 48, 0
2, 5394, Control_c, 0, 64, 0
2, 5395, Note_on_c, 0, 72, 105
2, 5398, Note_on_c, 0, 51, 94
2, 5407, Note_on_c, 0, 73, 0
2, 5410, Note_on_c, 0, 49, 0
2, 5413, Note_on_c, 0, 69, 0
2, 5423, Note_on_c, 0, 51, 0
2, 5423, Note_on_c, 0, 52, 93
2, 5442, Note_on_c, 0, 49, 77
2, 5443, Control_c, 0, 64, 127
2, 5450, Note_on_c, 0, 52, 0
2, 5453, Note_on_c, 0, 72, 0
2, 5454, Note_on_c, 0, 66, 0
2, 5463, Note_on_c, 0, 51, 83
2, 5479, Note_on_c, 0, 49, 0
2, 5484, Note_on_c, 0, 73, 97
2, 5485, Note_on_c, 0, 52, 94
2, 5486, Note_on_c, 0, 68, 78
2, 5490, Note_on_c, 0, 51, 0
2, 5490, Control_c, 0, 64, 0
2, 5490, Note_on_c, 0, 64, 73
2, 5499, Note_on_c, 0, 52, 0
2, 5509, Note_on_c, 0, 54, 87
2, 5526, Note_on_c, 0, 51, 94
2, 5527, Note_on_c, 0, 54, 0
2, 5530, Note_on_c, 0, 64, 0
2, 5539, Control_c, 0, 64, 127
2, 5553, Note_on_c, 0, 52, 95
2, 5566, Control_c, 0, 64, 0
2, 5574, Note_on_c, 0, 51, 0
2, 5575, Note_on_c, 0, 63, 81
2, 5575, Note_on_c, 0, 54, 96
2, 5575, Note_on_c, 0, 69, 94
2, 5577, Note_on_c, 0, 68, 0
2, 5582, Note_on_c, 0, 52, 0
2, 5602, Note_on_c, 0, 56, 86
2, 5603, Note_on_c, 0, 54, 0
2, 5615, Note_on_c, 0, 56, 0
2, 5620, Control_c, 0, 64, 127
2, 5625, Note_on_c, 0, 52, 78
2, 5640, Note_on_c, 0, 54, 88
2, 5643, Control_c, 0, 64, 0
2, 5649, Note_on_c, 0, 52, 0
2, 5661, Note_on_c, 0, 56, 75
2, 5665, Note_on_c, 0, 72, 86
2, 5669, Note_on_c, 0, 68, 55
2, 5671, Note_on_c, 0, 54, 0
2, 5679, Note_on_c, 0, 73, 0
2, 5679, Note_on_c, 0, 69, 0
2, 5683, Note_on_c, 0, 56, 0
2, 5689, Note_on_c, 0, 57, 83
2, 5697, Control_c, 0, 64, 127
2, 5699, Note_on_c, 0, 68, 0
2, 5701, Note_on_c, 0, 57, 0
2, 5717, Note_on_c, 0, 56, 68
2, 5728, Note_on_c, 0, 56, 0
2, 5728, Note_on_c, 0, 63, 0
2, 5728, Control_c, 0, 64, 0
2, 5734, Note_on_c, 0, 54, 86
2, 5744, Note_on_c, 0, 54, 0
2, 5758, Note_on_c, 0, 72, 0
2, 5758, Note_on_c, 0, 73, 83
2, 5760, Note_on_c, 0, 52, 85
2, 5763, Note_on_c, 0, 68, 56
2, 5764, Note_on_c, 0, 64, 53
2, 5772, Note_on_c, 0, 52, 0
2, 5774, Note_on_c, 0, 64, 0
2, 5778, Note_on_c, 0, 68, 0
2, 5781, Control_c, 0, 64, 127
2, 5786, Note_on_c, 0, 51, 69
2, 5795, Note_on_c, 0, 73, 0
2, 5799, Note_on_c, 0, 51, 0
2, 5802, Note_on_c, 0, 49, 82
2, 5812, Note_on_c, 0, 49, 0
2, 5831, Note_on_c, 0, 47, 58
2, 5832, Control_c, 0, 64, 0
2, 5850, Note_on_c, 0, 47, 0
2, 5855, Note_on_c, 0, 85, 94
2, 5858, Note_on_c, 0, 73, 66
2, 5859, Note_on_c, 0, 45, 57
2, 5871, Note_on_c, 0, 45, 0
2, 5873, Note_on_c, 0, 44, 74
2, 5877, Control_c, 0, 64, 127
2, 5890, Note_on_c, 0, 85, 0
2, 5894, Note_on_c, 0, 73, 0
2, 5896, Note_on_c, 0, 42, 58
2, 5898, Note_on_c, 0, 44, 0
2, 5907, Note_on_c, 0, 42, 0
2, 5925, Note_on_c, 0, 40, 70
2, 5935, Note_on_c, 0, 40, 0
2, 5943, Note_on_c, 0, 67, 84
2, 5948, Note_on_c, 0, 39, 88
2, 5954, Control_c, 0, 64, 0
2, 5959, Note_on_c, 0, 67, 0
2, 5964, Note_on_c, 0, 68, 84
2, 5971, Note_on_c, 0, 39, 0
2, 5978, Note_on_c, 0, 68, 0
2, 5991, Note_on_c, 0, 65, 76
2, 6003, Note_on_c, 0, 65, 0
2, 6013, Note_on_c, 0, 67, 77
2, 6030, Note_on_c, 0, 67, 0
2, 6032, Note_on_c, 0, 68, 85
2, 6034, Note_on_c, 0, 63, 67
2, 6038, Note_on_c, 0, 59, 32
2, 6048, Note_on_c, 0, 63, 0
2, 6052, Note_on_c, 0, 59, 0
2, 6057, Note_on_c, 0, 70, 90
2, 6062, Note_on_c, 0, 68, 0
2, 6069, Note_on_c, 0, 70, 0
2, 6079, Note_on_c, 0, 67, 76
2, 6090, Note_on_c, 0, 67, 0
2, 6099, Note_on_c, 0, 68, 75
2, 6116, Note_on_c, 0, 68, 0
2, 6123, Note_on_c, 0, 70, 83
2, 6124, Note_on_c, 0, 61, 66
2, 6124, Note_on_c, 0, 58, 69
2, 6135, Note_on_c, 0, 61, 0
2, 6137, Note_on_c, 0, 58, 0
2, 6147, Note_on_c, 0, 71, 70
2, 6153, Note_on_c, 0, 70, 0
2, 6156, Note_on_c, 0, 71, 0
2, 6167, Note_on_c, 0, 68, 80
2, 6179, Note_on_c, 0, 68, 0
2, 6190, Note_on_c, 0, 70, 84
2, 6208, Note_on_c, 0, 70, 0
2, 6218, Note_on_c, 0, 71, 65
2, 6220, Note_on_c, 0, 59, 60
2, 6222, Note_on_c, 0, 56, 48
2, 6230, Note_on_c, 0, 59, 0
2, 6230, Note_on_c, 0, 71, 0
2, 6235, Note_on_c, 0, 56, 0
2, 6241, Note_on_c, 0, 73, 71
2, 6252, Note_on_c, 0, 73, 0
2, 6259, Note_on_c, 0, 70, 55
2, 6277, Note_on_c, 0, 70, 0
2, 6283, Note_on_c, 0, 71, 58
2, 6295, Note_on_c, 0, 71, 0
2, 6306, Note_on_c, 0, 73, 67
2, 6310, Note_on_c, 0, 58, 71
2, 6313, Note_on_c, 0, 55, 55
2, 6315, Note_on_c, 0, 51, 49
2, 6324, Note_on_c, 0, 73, 0
2, 6325, Note_on_c, 0, 58, 0
2, 6325, Note_on_c, 0, 55, 0
2, 6328, Note_on_c, 0, 75, 64
2, 6329, Note_on_c, 0, 51, 0
2, 6339, Note_on_c, 0, 75, 0
2, 6349, Note_on_c, 0, 73, 77
2, 6359, Note_on_c, 0, 73, 0
2, 6378, Note_on_c, 0, 82, 65
2, 6392, Note_on_c, 0, 82, 0
2, 6399, Note_on_c, 0, 71, 70
2, 6403, Note_on_c, 0, 59, 63
2, 6405, Note_on_c, 0, 51, 59
2, 6406, Note_on_c, 0, 56, 61
2, 6408, Note_on_c, 0, 71, 0
2, 6413, Note_on_c, 0, 59, 0
2, 6417, Note_on_c, 0, 56, 0
2, 6418, Note_on_c, 0, 51, 0
2, 6426, Note_on_c, 0, 73, 59
2, 6443, Note_on_c, 0, 73, 0
2, 6451, Note_on_c, 0, 71, 37
2, 6463, Note_on_c, 0, 71, 0
2, 6477, Note_on_c, 0, 80, 43
2, 6491, Note_on_c, 0, 80, 0
2, 6491, Note_on_c, 0, 70, 82
2, 6495, Note_on_c, 0, 61, 54
2, 6496, Note_on_c, 0, 51, 53
2, 6497, Note_on_c, 0, 58, 57
2, 6504, Note_on_c, 0, 70, 0
2, 6507, Note_on_c, 0, 61, 0
2, 6509, Note_on_c, 0, 71, 53
2, 6511, Note_on_c, 0, 51, 0
2, 6513, Note_on_c, 0, 58, 0
2, 6522, Note_on_c, 0, 71, 0
2, 6535, Note_on_c, 0, 70, 72
2, 6550, Note_on_c, 0, 70, 0
2, 6559, Note_on_c, 0, 79, 63
2, 6569, Note_on_c, 0, 79, 0
2, 6580, Note_on_c, 0, 68, 83
2, 6584, Note_on_c, 0, 64, 96
2, 6591, Note_on_c, 0, 52, 74
2, 6592, Note_on_c, 0, 68, 0
2, 6602, Note_on_c, 0, 70, 82
2, 6609, Note_on_c, 0, 64, 0
2, 6619, Control_c, 0, 64, 127
2, 6624, Note_on_c, 0, 70, 0
2, 6626, Note_on_c, 0, 68, 55
2, 6627, Note_on_c, 0, 52, 0
2, 6639, Note_on_c, 0, 68, 0
2, 6641, Note_on_c, 0, 80, 79
2, 6650, Note_on_c, 0, 80, 0
2, 6665, Control_c, 0, 64, 0
2, 6678, Note_on_c, 0, 43, 77
2, 6678, Note_on_c, 0, 73, 87
2, 6678, Note_on_c, 0, 70, 82
2, 6679, Note_on_c, 0, 64, 79
2, 6690, Note_on_c, 0, 70, 0
2, 6691, Note_on_c, 0, 64, 0
2, 6691, Note_on_c, 0, 73, 0
2, 6693, Note_on_c, 0, 43, 0
2, 6702, Note_on_c, 0, 44, 76
2, 6714, Note_on_c, 0, 44, 0
2, 6732, Note_on_c, 0, 41, 67
2, 6756, Note_on_c, 0, 43, 66
2, 6757, Note_on_c, 0, 41, 0
2, 6768, Note_on_c, 0, 43, 0
2, 6773, Note_on_c, 0, 44, 71
2, 6778, Note_on_c, 0, 63, 52
2, 6780, Note_on_c, 0, 71, 49
2, 6781, Note_on_c, 0, 68, 56
2, 6786, Note_on_c, 0, 44, 0
2, 6790, Note_on_c, 0, 71, 0
2, 6791, Note_on_c, 0, 63, 0
2, 6793, Note_on_c, 0, 68, 0
2, 6799, Note_on_c, 0, 46, 61
2, 6816, Note_on_c, 0, 46, 0
2, 6820, Note_on_c, 0, 43, 72
2, 6843, Note_on_c, 0, 44, 74
2, 6850, Note_on_c, 0, 43, 0
2, 6867, Note_on_c, 0, 46, 78
2, 6867, Note_on_c, 0, 70, 83
2, 6868, Note_on_c, 0, 61, 62
2, 6869, Note_on_c, 0, 44, 0
2, 6874, Note_on_c, 0, 67, 49
2, 6879, Note_on_c, 0, 46, 0
2, 6880, Note_on_c, 0, 70, 0
2, 6884, Note_on_c, 0, 61, 0
2, 6886, Note_on_c, 0, 67, 0
2, 6886, Note_on_c, 0, 47, 66
2, 6897, Note_on_c, 0, 47, 0
2, 6909, Note_on_c, 0, 44, 71
2, 6931, Note_on_c, 0, 46, 87
2, 6936, Note_on_c, 0, 44, 0
2, 6953, Note_on_c, 0, 46, 0
2, 6958, Note_on_c, 0, 47, 67
2, 6958, Note_on_c, 0, 68, 79
2, 6960, Note_on_c, 0, 59, 69
2, 6960, Note_on_c, 0, 63, 71
2, 6967, Note_on_c, 0, 47, 0
2, 6970, Note_on_c, 0, 59, 0
2, 6971, Note_on_c, 0, 63, 0
2, 6973, Note_on_c, 0, 68, 0
2, 6980, Note_on_c, 0, 49, 76
2, 6990, Note_on_c, 0, 49, 0
2, 7000, Note_on_c, 0, 46, 97
2, 7026, Note_on_c, 0, 47, 62
2, 7032, Note_on_c, 0, 46, 0
2, 7046, Note_on_c, 0, 47, 0
2, 7047, Note_on_c, 0, 49, 77
2, 7050, Note_on_c, 0, 58, 74
2, 7054, Note_on_c, 0, 67, 66
2, 7054, Note_on_c, 0, 64, 55
2, 7058, Note_on_c, 0, 49, 0
2, 7063, Note_on_c, 0, 58, 0
2, 7065, Note_on_c, 0, 67, 0
2, 7065, Note_on_c, 0, 64, 0
2, 7068, Note_on_c, 0, 51, 80
2, 7080, Note_on_c, 0, 51, 0
2, 7099, Note_on_c, 0, 49, 65
2, 7111, Note_on_c, 0, 49, 0
2, 7126, Note_on_c, 0, 58, 53
2, 7140, Note_on_c, 0, 68, 77
2, 7143, Note_on_c, 0, 58, 0
2, 7143, Note_on_c, 0, 59, 61
2, 7145, Note_on_c, 0, 63, 53
2, 7147, Note_on_c, 0, 47, 65
2, 7155, Note_on_c, 0, 59, 0
2, 7157, Note_on_c, 0, 68, 0
2, 7157, Note_on_c, 0, 47, 0
2, 7160, Note_on_c, 0, 63, 0
2, 7165, Note_on_c, 0, 49, 69
2, 7191, Note_on_c, 0, 47, 55
2, 7192, Note_on_c, 0, 49, 0
2, 7207, Note_on_c, 0, 47, 0
2, 7218, Note_on_c, 0, 56, 73
2, 7230, Note_on_c, 0, 56, 0
2, 7231, Note_on_c, 0, 46, 85
2, 7236, Note_on_c, 0, 70, 75
2, 7238, Note_on_c, 0, 61, 57
2, 7240, Note_on_c, 0, 63, 57
2, 7247, Note_on_c, 0, 46, 0
2, 7250, Note_on_c, 0, 61, 0
2, 7251, Note_on_c, 0, 70, 0
2, 7251, Note_on_c, 0, 47, 69
2, 7253, Note_on_c, 0, 63, 0
2, 7273, Note_on_c, 0, 46, 88
2, 7278, Note_on_c, 0, 47, 0
2, 7300, Note_on_c, 0, 55, 81
2, 7303, Note_on_c, 0, 46, 0
2, 7312, Note_on_c, 0, 55, 0
2, 7333, Note_on_c, 0, 45, 67
2, 7342, Note_on_c, 0, 87, 100
2, 7342, Note_on_c, 0, 75, 95
2, 7350, Note_on_c, 0, 87, 0
2, 7353, Note_on_c, 0, 75, 0
2, 7357, Note_on_c, 0, 45, 0
2, 7357, Note_on_c, 0, 46, 95
2, 7360, Control_c, 0, 64, 127
2, 7382, Note_on_c, 0, 45, 54
2, 7384, Note_on_c, 0, 46, 0
2, 7396, Note_on_c, 0, 45, 0
2, 7402, Note_on_c, 0, 54, 53
2, 7416, Note_on_c, 0, 54, 0
2, 7441, Note_on_c, 0, 53, 94
2, 7442, Note_on_c, 0, 41, 95
2, 7446, Note_on_c, 0, 69, 90
2, 7452, Note_on_c, 0, 41, 0
2, 7452, Note_on_c, 0, 53, 0
2, 7453, Control_c, 0, 64, 0
2, 7462, Note_on_c, 0, 69, 0
2, 7468, Note_on_c, 0, 70, 90
2, 7480, Note_on_c, 0, 70, 0
2, 7486, Note_on_c, 0, 68, 81
2, 7506, Note_on_c, 0, 68, 0
2, 7510, Note_on_c, 0, 69, 61
2, 7536, Note_on_c, 0, 70, 74
2, 7537, Note_on_c, 0, 65, 84
2, 7538, Note_on_c, 0, 69, 0
2, 7539, Note_on_c, 0, 61, 70
2, 7547, Note_on_c, 0, 65, 0
2, 7549, Note_on_c, 0, 61, 0
2, 7554, Note_on_c, 0, 72, 75
2, 7560, Note_on_c, 0, 70, 0
2, 7566, Note_on_c, 0, 72, 0
2, 7582, Note_on_c, 0, 69, 66
2, 7595, Note_on_c, 0, 69, 0
2, 7599, Note_on_c, 0, 70, 84
2, 7618, Note_on_c, 0, 70, 0
2, 7624, Note_on_c, 0, 72, 92
2, 7632, Note_on_c, 0, 63, 69
2, 7633, Note_on_c, 0, 60, 59
2, 7642, Note_on_c, 0, 63, 0
2, 7645, Note_on_c, 0, 60, 0
2, 7651, Note_on_c, 0, 73, 87
2, 7655, Note_on_c, 0, 72, 0
2, 7662, Note_on_c, 0, 73, 0
2, 7673, Note_on_c, 0, 70, 81
2, 7697, Note_on_c, 0, 70, 0
2, 7697, Note_on_c, 0, 72, 70
2, 7715, Note_on_c, 0, 72, 0
2, 7715, Note_on_c, 0, 73, 89
2, 7720, Note_on_c, 0, 61, 80
2, 7724, Note_on_c, 0, 58, 52
2, 7731, Note_on_c, 0, 61, 0
2, 7740, Note_on_c, 0, 75, 81
2, 7741, Note_on_c, 0, 58, 0
2, 7744, Note_on_c, 0, 73, 0
2, 7752, Note_on_c, 0, 75, 0
2, 7762, Note_on_c, 0, 72, 85
2, 7777, Note_on_c, 0, 72, 0
2, 7779, Note_on_c, 0, 73, 87
2, 7796, Note_on_c, 0, 73, 0
2, 7803, Note_on_c, 0, 75, 79
2, 7812, Note_on_c, 0, 60, 82
2, 7813, Note_on_c, 0, 53, 76
2, 7814, Note_on_c, 0, 57, 58
2, 7822, Note_on_c, 0, 60, 0
2, 7824, Note_on_c, 0, 77, 75
2, 7825, Note_on_c, 0, 53, 0
2, 7826, Note_on_c, 0, 57, 0
2, 7828, Note_on_c, 0, 75, 0
2, 7834, Note_on_c, 0, 77, 0
2, 7845, Note_on_c, 0, 75, 89
2, 7854, Note_on_c, 0, 75, 0
2, 7869, Note_on_c, 0, 84, 93
2, 7876, Note_on_c, 0, 84, 0
2, 7895, Note_on_c, 0, 73, 87
2, 7898, Note_on_c, 0, 61, 73
2, 7900, Note_on_c, 0, 53, 69
2, 7901, Note_on_c, 0, 58, 74
2, 7905, Note_on_c, 0, 73, 0
2, 7909, Note_on_c, 0, 61, 0
2, 7912, Note_on_c, 0, 53, 0
2, 7913, Note_on_c, 0, 58, 0
2, 7922, Note_on_c, 0, 75, 73
2, 7934, Note_on_c, 0, 75, 0
2, 7941, Note_on_c, 0, 73, 90
2, 7950, Note_on_c, 0, 73, 0
2, 7966, Note_on_c, 0, 82, 96
2, 7976, Note_on_c, 0, 82, 0
2, 7987, Note_on_c, 0, 63, 76
2, 7989, Note_on_c, 0, 53, 69
2, 7990, Note_on_c, 0, 72, 81
2, 7993, Note_on_c, 0, 60, 59
2, 7997, Note_on_c, 0, 63, 0
2, 7999, Note_on_c, 0, 53, 0
2, 7999, Note_on_c, 0, 72, 0
2, 8004, Note_on_c, 0, 60, 0
2, 8010, Note_on_c, 0, 73, 84
2, 8027, Note_on_c, 0, 72, 64
2, 8028, Note_on_c, 0, 73, 0
2, 8039, Note_on_c, 0, 72, 0
2, 8049, Note_on_c, 0, 81, 101
2, 8056, Note_on_c, 0, 81, 0
2, 8078, Note_on_c, 0, 70, 103
2, 8079, Note_on_c, 0, 66, 108
2, 8083, Note_on_c, 0, 54, 90
2, 8092, Note_on_c, 0, 54, 0
2, 8096, Note_on_c, 0, 70, 0
2, 8100, Note_on_c, 0, 66, 0
2, 8102, Control_c, 0, 64, 127
2, 8108, Note_on_c, 0, 72, 83
2, 8119, Note_on_c, 0, 72, 0
2, 8127, Note_on_c, 0, 70, 100
2, 8142, Note_on_c, 0, 70, 0
2, 8149, Note_on_c, 0, 82, 107
2, 8157, Note_on_c, 0, 82, 0
2, 8179, Control_c, 0, 64, 0
2, 8192, Note_on_c, 0, 66, 97
2, 8194, Note_on_c, 0, 75, 90
2, 8195, Note_on_c, 0, 72, 89
2, 8195, Note_on_c, 0, 45, 89
2, 8202, Note_on_c, 0, 66, 0
2, 8204, Note_on_c, 0, 72, 0
2, 8208, Note_on_c, 0, 75, 0
2, 8214, Note_on_c, 0, 45, 0
2, 8218, Note_on_c, 0, 46, 96
2, 8231, Note_on_c, 0, 46, 0
2, 8243, Note_on_c, 0, 44, 84
2, 8267, Note_on_c, 0, 45, 95
2, 8275, Note_on_c, 0, 44, 0
2, 8288, Note_on_c, 0, 45, 0
2, 8290, Note_on_c, 0, 46, 92
2, 8291, Note_on_c, 0, 73, 78
2, 8293, Note_on_c, 0, 65, 80
2, 8295, Note_on_c, 0, 70, 65
2, 8304, Note_on_c, 0, 73, 0
2, 8305, Note_on_c, 0, 46, 0
2, 8305, Note_on_c, 0, 65, 0
2, 8310, Note_on_c, 0, 70, 0
2, 8319, Note_on_c, 0, 48, 73
2, 8329, Note_on_c, 0, 48, 0
2, 8341, Note_on_c, 0, 45, 78
2, 8359, Note_on_c, 0, 45, 0
2, 8361, Note_on_c, 0, 46, 91
2, 8380, Note_on_c, 0, 46, 0
2, 8386, Note_on_c, 0, 48, 70
2, 8389, Note_on_c, 0, 72, 70
2, 8389, Note_on_c, 0, 63, 41
2, 8395, Note_on_c, 0, 69, 24
2, 8397, Note_on_c, 0, 48, 0
2, 8400, Note_on_c, 0, 72, 0
2, 8408, Note_on_c, 0, 63, 0
2, 8409, Note_on_c, 0, 69, 0
2, 8409, Note_on_c, 0, 49, 62
2, 8421, Note_on_c, 0, 49, 0
2, 8428, Note_on_c, 0, 46, 88
2, 8454, Note_on_c, 0, 48, 74
2, 8461, Note_on_c, 0, 46, 0
2, 8468, Note_on_c, 0, 48, 0
2, 8475, Note_on_c, 0, 49, 77
2, 8476, Note_on_c, 0, 70, 76
2, 8476, Note_on_c, 0, 61, 65
2, 8479, Note_on_c, 0, 65, 65
2, 8488, Note_on_c, 0, 49, 0
2, 8491, Note_on_c, 0, 70, 0
2, 8491, Note_on_c, 0, 65, 0
2, 8492, Note_on_c, 0, 61, 0
2, 8496, Note_on_c, 0, 51, 76
2, 8507, Note_on_c, 0, 51, 0
2, 8523, Note_on_c, 0, 48, 68
2, 8541, Note_on_c, 0, 49, 86
2, 8547, Note_on_c, 0, 48, 0
2, 8566, Note_on_c, 0, 59, 69
2, 8568, Note_on_c, 0, 49, 0
2, 8569, Note_on_c, 0, 68, 67
2, 8570, Note_on_c, 0, 65, 69
2, 8571, Note_on_c, 0, 50, 83
2, 8578, Note_on_c, 0, 59, 0
2, 8583, Note_on_c, 0, 65, 0
2, 8585, Note_on_c, 0, 68, 0
2, 8588, Note_on_c, 0, 50, 0
2, 8594, Note_on_c, 0, 51, 83
2, 8607, Note_on_c, 0, 51, 0
2, 8613, Note_on_c, 0, 49, 87
2, 8644, Note_on_c, 0, 50, 85
2, 8649, Note_on_c, 0, 49, 0
2, 8658, Note_on_c, 0, 58, 83
2, 8658, Note_on_c, 0, 66, 74
2, 8659, Note_on_c, 0, 50, 0
2, 8659, Note_on_c, 0, 63, 67
2, 8660, Note_on_c, 0, 51, 85
2, 8671, Note_on_c, 0, 63, 0
2, 8671, Note_on_c, 0, 66, 0
2, 8676, Note_on_c, 0, 58, 0
2, 8683, Note_on_c, 0, 53, 70
2, 8686, Note_on_c, 0, 51, 0
2, 8698, Note_on_c, 0, 53, 0
2, 8700, Note_on_c, 0, 50, 76
2, 8719, Note_on_c, 0, 51, 84
2, 8727, Note_on_c, 0, 50, 0
2, 8745, Note_on_c, 0, 51, 0
2, 8748, Note_on_c, 0, 53, 82
2, 8750, Note_on_c, 0, 65, 79
2, 8750, Note_on_c, 0, 58, 78
2, 8751, Note_on_c, 0, 61, 72
2, 8760, Note_on_c, 0, 53, 0
2, 8763, Note_on_c, 0, 65, 0
2, 8763, Note_on_c, 0, 61, 0
2, 8766, Note_on_c, 0, 58, 0
2, 8773, Note_on_c, 0, 54, 63
2, 8786, Note_on_c, 0, 54, 0
2, 8793, Note_on_c, 0, 52, 84
2, 8822, Note_on_c, 0, 53, 76
2, 8823, Note_on_c, 0, 52, 0
2, 8838, Note_on_c, 0, 53, 0
2, 8842, Note_on_c, 0, 54, 76
2, 8845, Note_on_c, 0, 58, 63
2, 8847, Note_on_c, 0, 64, 71
2, 8848, Note_on_c, 0, 60, 49
2, 8856, Note_on_c, 0, 54, 0
2, 8858, Note_on_c, 0, 64, 0
2, 8861, Note_on_c, 0, 60, 0
2, 8863, Note_on_c, 0, 58, 0
2, 8866, Note_on_c, 0, 56, 62
2, 8881, Note_on_c, 0, 56, 0
2, 8882, Note_on_c, 0, 53, 51
2, 8899, Note_on_c, 0, 54, 49
2, 8903, Note_on_c, 0, 53, 0
2, 8928, Note_on_c, 0, 54, 0
2, 8938, Note_on_c, 0, 57, 69
2, 8938, Note_on_c, 0, 60, 58
2, 8940, Note_on_c, 0, 65, 61
2, 8946, Note_on_c, 0, 53, 63
2, 8950, Note_on_c, 0, 57, 0
2, 8953, Note_on_c, 0, 65, 0
2, 8958, Note_on_c, 0, 53, 0
2, 8958, Note_on_c, 0, 66, 61
2, 8962, Note_on_c, 0, 60, 0
2, 8975, Note_on_c, 0, 66, 0
2, 8983, Note_on_c, 0, 64, 72
2, 8998, Note_on_c, 0, 64, 0
2, 9009, Note_on_c, 0, 65, 58
2, 9026, Note_on_c, 0, 61, 71
2, 9028, Note_on_c, 0, 65, 0
2, 9028, Note_on_c, 0, 52, 81
2, 9028, Note_on_c, 0, 58, 85
2, 9030, Note_on_c, 0, 66, 67
2, 9038, Note_on_c, 0, 52, 0
2, 9040, Note_on_c, 0, 58, 0
2, 9043, Note_on_c, 0, 66, 0
2, 9053, Note_on_c, 0, 61, 0
2, 9057, Note_on_c, 0, 68, 77
2, 9067, Note_on_c, 0, 65, 83
2, 9087, Note_on_c, 0, 68, 0
2, 9096, Note_on_c, 0, 66, 75
2, 9098, Note_on_c, 0, 65, 0
2, 9122, Note_on_c, 0, 51, 85
2, 9123, Note_on_c, 0, 58, 101
2, 9125, Note_on_c, 0, 61, 87
2, 9130, Note_on_c, 0, 67, 57
2, 9131, Note_on_c, 0, 66, 0
2, 9132, Note_on_c, 0, 51, 0
2, 9137, Note_on_c, 0, 58, 0
2, 9142, Note_on_c, 0, 67, 0
2, 9144, Note_on_c, 0, 68, 93
2, 9152, Note_on_c, 0, 61, 0
2, 9157, Note_on_c, 0, 68, 0
2, 9157, Note_on_c, 0, 66, 72
2, 9181, Note_on_c, 0, 67, 69
2, 9182, Note_on_c, 0, 66, 0
2, 9191, Note_on_c, 0, 67, 0
2, 9211, Note_on_c, 0, 56, 96
2, 9213, Note_on_c, 0, 44, 92
2, 9213, Note_on_c, 0, 80, 106
2, 9214, Note_on_c, 0, 68, 112
2, 9219, Note_on_c, 0, 80, 0
2, 9221, Note_on_c, 0, 44, 0
2, 9223, Note_on_c, 0, 56, 0
2, 9224, Control_c, 0, 64, 127
2, 9235, Note_on_c, 0, 68, 0
2, 9250, Note_on_c, 0, 70, 97
2, 9262, Note_on_c, 0, 70, 0
2, 9273, Note_on_c, 0, 67, 88
2, 9291, Note_on_c, 0, 68, 71
2, 9299, Note_on_c, 0, 67, 0
2, 9309, Control_c, 0, 64, 0
2, 9316, Note_on_c, 0, 56, 85
2, 9316, Note_on_c, 0, 63, 89
2, 9317, Note_on_c, 0, 60, 73
2, 9322, Note_on_c, 0, 68, 0
2, 9328, Note_on_c, 0, 60, 0
2, 9329, Note_on_c, 0, 56, 0
2, 9329, Note_on_c, 0, 70, 74
2, 9339, Note_on_c, 0, 63, 0
2, 9348, Note_on_c, 0, 70, 0
2, 9352, Note_on_c, 0, 67, 81
2, 9374, Note_on_c, 0, 67, 0
2, 9376, Note_on_c, 0, 68, 84
2, 9401, Note_on_c, 0, 69, 72
2, 9402, Note_on_c, 0, 64, 80
2, 9403, Note_on_c, 0, 61, 65
2, 9406, Note_on_c, 0, 55, 59
2, 9415, Note_on_c, 0, 61, 0
2, 9418, Note_on_c, 0, 55, 0
2, 9419, Note_on_c, 0, 68, 0
2, 9422, Note_on_c, 0, 69, 0
2, 9423, Note_on_c, 0, 70, 94
2, 9428, Note_on_c, 0, 64, 0
2, 9442, Note_on_c, 0, 68, 78
2, 9451, Note_on_c, 0, 70, 0
2, 9468, Note_on_c, 0, 69, 79
2, 9478, Note_on_c, 0, 68, 0
2, 9489, Note_on_c, 0, 70, 81
2, 9492, Note_on_c, 0, 61, 80
2, 9493, Note_on_c, 0, 69, 0
2, 9494, Note_on_c, 0, 54, 74
2, 9494, Note_on_c, 0, 64, 85
2, 9502, Note_on_c, 0, 61, 0
2, 9504, Note_on_c, 0, 54, 0
2, 9509, Note_on_c, 0, 71, 78
2, 9515, Note_on_c, 0, 70, 0
2, 9516, Note_on_c, 0, 64, 0
2, 9531, Note_on_c, 0, 69, 94
2, 9535, Note_on_c, 0, 71, 0
2, 9551, Note_on_c, 0, 70, 97
2, 9559, Note_on_c, 0, 69, 0
2, 9560, Note_on_c, 0, 70, 0
2, 9588, Note_on_c, 0, 59, 97
2, 9588, Note_on_c, 0, 83, 106
2, 9588, Note_on_c, 0, 71, 109
2, 9588, Note_on_c, 0, 47, 93
2, 9592, Note_on_c, 0, 83, 0
2, 9594, Note_on_c, 0, 47, 0
2, 9595, Note_on_c, 0, 59, 0
2, 9600, Control_c, 0, 64, 127
2, 9613, Note_on_c, 0, 71, 0
2, 9628, Note_on_c, 0, 72, 58
2, 9642, Note_on_c, 0, 70, 94
2, 9650, Note_on_c, 0, 72, 0
2, 9668, Note_on_c, 0, 71, 69
2, 9676, Note_on_c, 0, 70, 0
2, 9697, Note_on_c, 0, 63, 81
2, 9700, Note_on_c, 0, 66, 88
2, 9701, Note_on_c, 0, 59, 63
2, 9704, Control_c, 0, 64, 0
2, 9706, Note_on_c, 0, 71, 0
2, 9729, Note_on_c, 0, 72, 71
2, 9744, Note_on_c, 0, 66, 0
2, 9748, Note_on_c, 0, 70, 82
2, 9751, Note_on_c, 0, 72, 0
2, 9754, Control_c, 0, 64, 127
2, 9756, Note_on_c, 0, 59, 0
2, 9763, Note_on_c, 0, 63, 0
2, 9773, Note_on_c, 0, 71, 65
2, 9777, Control_c, 0, 64, 0
2, 9785, Note_on_c, 0, 70, 0
2, 9795, Note_on_c, 0, 64, 64
2, 9797, Note_on_c, 0, 67, 74
2, 9799, Note_on_c, 0, 72, 56
2, 9801, Note_on_c, 0, 71, 0
2, 9801, Note_on_c, 0, 59, 55
2, 9812, Note_on_c, 0, 72, 0
2, 9814, Note_on_c, 0, 73, 75
2, 9815, Note_on_c, 0, 59, 0
2, 9827, Note_on_c, 0, 67, 0
2, 9827, Control_c, 0, 64, 127
2, 9829, Note_on_c, 0, 64, 0
2, 9844, Note_on_c, 0, 71, 64
2, 9849, Note_on_c, 0, 73, 0
2, 9868, Note_on_c, 0, 72, 67
2, 9869, Note_on_c, 0, 71, 0
2, 9885, Control_c, 0, 64, 0
2, 9888, Note_on_c, 0, 72, 0
2, 9890, Note_on_c, 0, 65, 76
2, 9890, Note_on_c, 0, 73, 85
2, 9891, Note_on_c, 0, 59, 59
2, 9893, Note_on_c, 0, 68, 83
2, 9910, Note_on_c, 0, 74, 75
2, 9913, Note_on_c, 0, 73, 0
2, 9920, Note_on_c, 0, 68, 0
2, 9928, Note_on_c, 0, 59, 0
2, 9930, Note_on_c, 0, 65, 0
2, 9931, Control_c, 0, 64, 127
2, 9931, Note_on_c, 0, 72, 85
2, 9934, Note_on_c, 0, 74, 0
2, 9954, Note_on_c, 0, 73, 79
2, 9959, Note_on_c, 0, 72, 0
2, 9969, Control_c, 0, 64, 0
2, 9974, Note_on_c, 0, 74, 89
2, 9983, Note_on_c, 0, 66, 79
2, 9985, Note_on_c, 0, 59, 58
2, 9988, Note_on_c, 0, 69, 83
2, 9991, Note_on_c, 0, 73, 0
2, 10001, Note_on_c, 0, 74, 0
2, 10004, Note_on_c, 0, 75, 82
2, 10013, Note_on_c, 0, 59, 0
2, 10017, Note_on_c, 0, 66, 0
2, 10018, Note_on_c, 0, 69, 0
2, 10023, Control_c, 0, 64, 127
2, 10028, Note_on_c, 0, 73, 84
2, 10031, Note_on_c, 0, 75, 0
2, 10052, Note_on_c, 0, 74, 78
2, 10057, Control_c, 0, 64, 0
2, 10059, Note_on_c, 0, 73, 0
2, 10075, Note_on_c, 0, 67, 84
2, 10075, Note_on_c, 0, 70, 97
2, 10075, Note_on_c, 0, 75, 88
2, 10077, Note_on_c, 0, 59, 62
2, 10084, Note_on_c, 0, 74, 0
2, 10100, Note_on_c, 0, 76, 97
2, 10103, Note_on_c, 0, 70, 0
2, 10104, Note_on_c, 0, 75, 0
2, 10107, Control_c, 0, 64, 127
2, 10110, Note_on_c, 0, 59, 0
2, 10122, Note_on_c, 0, 74, 92
2, 10123, Note_on_c, 0, 67, 0
2, 10126, Note_on_c, 0, 76, 0
2, 10142, Note_on_c, 0, 75, 84
2, 10154, Note_on_c, 0, 74, 0
2, 10158, Control_c, 0, 64, 0
2, 10167, Note_on_c, 0, 68, 88
2, 10169, Note_on_c, 0, 76, 100
2, 10170, Note_on_c, 0, 59, 66
2, 10174, Note_on_c, 0, 71, 72
2, 10183, Note_on_c, 0, 75, 0
2, 10192, Note_on_c, 0, 76, 0
2, 10192, Note_on_c, 0, 77, 92
2, 10201, Note_on_c, 0, 71, 0
2, 10204, Control_c, 0, 64, 127
2, 10209, Note_on_c, 0, 59, 0
2, 10213, Note_on_c, 0, 75, 81
2, 10215, Note_on_c, 0, 68, 0
2, 10217, Note_on_c, 0, 77, 0
2, 10237, Note_on_c, 0, 76, 95
2, 10246, Control_c, 0, 64, 0
2, 10252, Note_on_c, 0, 75, 0
2, 10257, Note_on_c, 0, 69, 95
2, 10259, Note_on_c, 0, 59, 67
2, 10263, Note_on_c, 0, 72, 92
2, 10263, Note_on_c, 0, 77, 94
2, 10278, Note_on_c, 0, 76, 0
2, 10290, Note_on_c, 0, 78, 90
2, 10292, Control_c, 0, 64, 127
2, 10293, Note_on_c, 0, 72, 0
2, 10294, Note_on_c, 0, 77, 0
2, 10300, Note_on_c, 0, 69, 0
2, 10302, Note_on_c, 0, 59, 0
2, 10306, Note_on_c, 0, 75, 83
2, 10320, Note_on_c, 0, 78, 0
2, 10326, Note_on_c, 0, 76, 95
2, 10338, Control_c, 0, 64, 0
2, 10340, Note_on_c, 0, 75, 0
2, 10344, Note_on_c, 0, 73, 85
2, 10345, Note_on_c, 0, 78, 76
2, 10346, Note_on_c, 0, 70, 112
2, 10350, Note_on_c, 0, 59, 76
2, 10366, Note_on_c, 0, 76, 0
2, 10368, Note_on_c, 0, 79, 99
2, 10371, Note_on_c, 0, 73, 0
2, 10378, Note_on_c, 0, 78, 0
2, 10383, Note_on_c, 0, 59, 0
2, 10384, Control_c, 0, 64, 127
2, 10389, Note_on_c, 0, 70, 0
2, 10392, Note_on_c, 0, 78, 97
2, 10413, Note_on_c, 0, 79, 0
2, 10414, Note_on_c, 0, 76, 98
2, 10431, Note_on_c, 0, 78, 0
2, 10435, Note_on_c, 0, 75, 97
2, 10437, Note_on_c, 0, 71, 102
2, 10439, Note_on_c, 0, 76, 0
2, 10440, Note_on_c, 0, 59, 94
2, 10458, Note_on_c, 0, 76, 99
2, 10468, Control_c, 0, 64, 0
2, 10471, Note_on_c, 0, 75, 0
2, 10481, Note_on_c, 0, 74, 94
2, 10486, Note_on_c, 0, 76, 0
2, 10488, Control_c, 0, 64, 127
2, 10501, Note_on_c, 0, 75, 92
2, 10503, Note_on_c, 0, 74, 0
2, 10505, Note_on_c, 0, 71, 0
2, 10506, Note_on_c, 0, 59, 0
2, 10513, Note_on_c, 0, 75, 0
2, 10531, Note_on_c, 0, 76, 109
2, 10532, Note_on_c, 0, 67, 93
2, 10533, Note_on_c, 0, 71, 78
2, 10552, Note_on_c, 0, 66, 86
2, 10555, Note_on_c, 0, 78, 95
2, 10559, Note_on_c, 0, 71, 0
2, 10559, Note_on_c, 0, 76, 0
2, 10560, Note_on_c, 0, 67, 0
2, 10572, Note_on_c, 0, 75, 89
2, 10574, Note_on_c, 0, 66, 0
2, 10577, Note_on_c, 0, 67, 101
2, 10581, Note_on_c, 0, 78, 0
2, 10592, Note_on_c, 0, 67, 0
2, 10598, Note_on_c, 0, 76, 67
2, 10600, Note_on_c, 0, 75, 0
2, 10605, Note_on_c, 0, 59, 62
2, 10608, Note_on_c, 0, 76, 0
2, 10617, Note_on_c, 0, 59, 0
2, 10621, Note_on_c, 0, 60, 84
2, 10625, Note_on_c, 0, 76, 105
2, 10626, Note_on_c, 0, 81, 115
2, 10630, Control_c, 0, 64, 0
2, 10650, Note_on_c, 0, 83, 86
2, 10655, Note_on_c, 0, 81, 0
2, 10662, Note_on_c, 0, 80, 88
2, 10663, Note_on_c, 0, 60, 0
2, 10664, Note_on_c, 0, 76, 0
2, 10676, Control_c, 0, 64, 127
2, 10681, Note_on_c, 0, 83, 0
2, 10685, Note_on_c, 0, 81, 75
2, 10690, Note_on_c, 0, 80, 0
2, 10694, Note_on_c, 0, 81, 0
2, 10712, Note_on_c, 0, 66, 73
2, 10720, Note_on_c, 0, 69, 95
2, 10721, Note_on_c, 0, 74, 101
2, 10732, Note_on_c, 0, 65, 85
2, 10737, Note_on_c, 0, 66, 0
2, 10742, Note_on_c, 0, 69, 0
2, 10742, Note_on_c, 0, 65, 0
2, 10745, Note_on_c, 0, 76, 97
2, 10752, Note_on_c, 0, 66, 88
2, 10753, Note_on_c, 0, 74, 0
2, 10761, Note_on_c, 0, 73, 79
2, 10764, Note_on_c, 0, 66, 0
2, 10773, Note_on_c, 0, 76, 0
2, 10782, Note_on_c, 0, 57, 84
2, 10783, Note_on_c, 0, 74, 78
2, 10790, Note_on_c, 0, 73, 0
2, 10791, Note_on_c, 0, 74, 0
2, 10797, Note_on_c, 0, 57, 0
2, 10810, Control_c, 0, 64, 0
2, 10814, Note_on_c, 0, 74, 77
2, 10814, Note_on_c, 0, 59, 88
2, 10816, Note_on_c, 0, 79, 83
2, 10837, Note_on_c, 0, 81, 87
2, 10841, Note_on_c, 0, 74, 0
2, 10855, Note_on_c, 0, 78, 75
2, 10856, Note_on_c, 0, 79, 0
2, 10861, Control_c, 0, 64, 127
2, 10867, Note_on_c, 0, 59, 0
2, 10869, Note_on_c, 0, 81, 0
2, 10874, Note_on_c, 0, 79, 92
2, 10879, Note_on_c, 0, 78, 0
2, 10881, Note_on_c, 0, 79, 0
2, 10909, Note_on_c, 0, 72, 106
2, 10909, Note_on_c, 0, 64, 67
2, 10912, Note_on_c, 0, 67, 85
2, 10920, Note_on_c, 0, 64, 0
2, 10920, Note_on_c, 0, 63, 88
2, 10928, Note_on_c, 0, 67, 0
2, 10932, Note_on_c, 0, 74, 95
2, 10938, Note_on_c, 0, 63, 0
2, 10939, Note_on_c, 0, 72, 0
2, 10945, Note_on_c, 0, 64, 71
2, 10951, Note_on_c, 0, 71, 69
2, 10958, Note_on_c, 0, 74, 0
2, 10963, Note_on_c, 0, 64, 0
2, 10969, Note_on_c, 0, 55, 98
2, 10970, Note_on_c, 0, 72, 92
2, 10978, Note_on_c, 0, 71, 0
2, 10979, Note_on_c, 0, 72, 0
2, 10980, Control_c, 0, 64, 0
2, 10992, Note_on_c, 0, 55, 0
2, 10999, Note_on_c, 0, 57, 82
2, 11004, Note_on_c, 0, 78, 102
2, 11006, Note_on_c, 0, 72, 69
2, 11030, Note_on_c, 0, 79, 91
2, 11037, Note_on_c, 0, 72, 0
2, 11042, Note_on_c, 0, 77, 92
2, 11043, Note_on_c, 0, 78, 0
2, 11044, Note_on_c, 0, 57, 0
2, 11049, Control_c, 0, 64, 127
2, 11060, Note_on_c, 0, 79, 0
2, 11062, Note_on_c, 0, 78, 80
2, 11067, Note_on_c, 0, 77, 0
2, 11071, Note_on_c, 0, 78, 0
2, 11098, Note_on_c, 0, 63, 75
2, 11101, Note_on_c, 0, 66, 99
2, 11106, Note_on_c, 0, 71, 81
2, 11106, Note_on_c, 0, 70, 55
2, 11113, Note_on_c, 0, 66, 0
2, 11115, Note_on_c, 0, 63, 0
2, 11119, Note_on_c, 0, 70, 0
2, 11119, Note_on_c, 0, 62, 57
2, 11128, Note_on_c, 0, 72, 97
2, 11130, Note_on_c, 0, 62, 0
2, 11132, Note_on_c, 0, 71, 0
2, 11133, Note_on_c, 0, 63, 78
2, 11142, Note_on_c, 0, 70, 58
2, 11150, Note_on_c, 0, 63, 0
2, 11154, Note_on_c, 0, 72, 0
2, 11160, Note_on_c, 0, 54, 78
2, 11164, Control_c, 0, 64, 0
2, 11166, Note_on_c, 0, 71, 77
2, 11170, Note_on_c, 0, 54, 0
2, 11173, Note_on_c, 0, 71, 0
2, 11173, Note_on_c, 0, 70, 0
2, 11193, Note_on_c, 0, 55, 103
2, 11193, Note_on_c, 0, 71, 73
2, 11196, Note_on_c, 0, 76, 106
2, 11209, Note_on_c, 0, 71, 0
2, 11214, Note_on_c, 0, 55, 0
2, 11215, Note_on_c, 0, 57, 91
2, 11216, Note_on_c, 0, 72, 92
2, 11235, Note_on_c, 0, 57, 0
2, 11241, Note_on_c, 0, 72, 0
2, 11241, Note_on_c, 0, 54, 81
2, 11243, Note_on_c, 0, 69, 83
2, 11254, Note_on_c, 0, 54, 0
2, 11256, Note_on_c, 0, 69, 0
2, 11263, Note_on_c, 0, 76, 0
2, 11266, Note_on_c, 0, 71, 69
2, 11267, Note_on_c, 0, 55, 76
2, 11276, Note_on_c, 0, 71, 0
2, 11277, Note_on_c, 0, 55, 0
2, 11286, Note_on_c, 0, 54, 83
2, 11292, Note_on_c, 0, 74, 87
2, 11295, Note_on_c, 0, 69, 72
2, 11301, Note_on_c, 0, 54, 0
2, 11308, Note_on_c, 0, 69, 0
2, 11313, Note_on_c, 0, 55, 48
2, 11315, Note_on_c, 0, 71, 65
2, 11325, Note_on_c, 0, 52, 72
2, 11326, Note_on_c, 0, 71, 0
2, 11326, Note_on_c, 0, 55, 0
2, 11335, Note_on_c, 0, 52, 0
2, 11336, Note_on_c, 0, 74, 0
2, 11337, Control_c, 0, 64, 127
2, 11338, Note_on_c, 0, 67, 72
2, 11348, Note_on_c, 0, 67, 0
2, 11353, Note_on_c, 0, 54, 73
2, 11360, Note_on_c, 0, 69, 74
2, 11364, Control_c, 0, 64, 0
2, 11367, Note_on_c, 0, 54, 0
2, 11375, Note_on_c, 0, 69, 0
2, 11379, Note_on_c, 0, 52, 80
2, 11384, Note_on_c, 0, 72, 92
2, 11390, Note_on_c, 0, 67, 72
2, 11395, Note_on_c, 0, 52, 0
2, 11402, Note_on_c, 0, 67, 0
2, 11405, Note_on_c, 0, 54, 65
2, 11406, Note_on_c, 0, 69, 62
2, 11414, Control_c, 0, 64, 127
2, 11417, Note_on_c, 0, 54, 0
2, 11418, Note_on_c, 0, 69, 0
2, 11422, Note_on_c, 0, 66, 76
2, 11431, Note_on_c, 0, 66, 0
2, 11431, Note_on_c, 0, 50, 63
2, 11433, Note_on_c, 0, 72, 0
2, 11442, Note_on_c, 0, 50, 0
2, 11450, Note_on_c, 0, 52, 81
2, 11454, Note_on_c, 0, 67, 79
2, 11461, Note_on_c, 0, 52, 0
2, 11464, Control_c, 0, 64, 0
2, 11466, Note_on_c, 0, 67, 0
2, 11473, Note_on_c, 0, 50, 71
2, 11477, Note_on_c, 0, 66, 79
2, 11478, Note_on_c, 0, 71, 77
2, 11496, Note_on_c, 0, 50, 0
2, 11499, Note_on_c, 0, 52, 84
2, 11504, Note_on_c, 0, 66, 0
2, 11505, Note_on_c, 0, 67, 63
2, 11508, Note_on_c, 0, 52, 0
2, 11514, Control_c, 0, 64, 127
2, 11516, Note_on_c, 0, 67, 0
2, 11518, Note_on_c, 0, 48, 87
2, 11525, Note_on_c, 0, 64, 83
2, 11527, Note_on_c, 0, 48, 0
2, 11532, Note_on_c, 0, 71, 0
2, 11538, Note_on_c, 0, 64, 0
2, 11544, Note_on_c, 0, 50, 87
2, 11546, Note_on_c, 0, 66, 65
2, 11553, Note_on_c, 0, 50, 0
2, 11559, Note_on_c, 0, 66, 0
2, 11560, Control_c, 0, 64, 0
2, 11566, Note_on_c, 0, 48, 91
2, 11568, Note_on_c, 0, 69, 91
2, 11572, Note_on_c, 0, 64, 68
2, 11589, Note_on_c, 0, 64, 0
2, 11589, Note_on_c, 0, 66, 85
2, 11590, Note_on_c, 0, 48, 0
2, 11590, Note_on_c, 0, 50, 87
2, 11599, Note_on_c, 0, 50, 0
2, 11605, Note_on_c, 0, 69, 0
2, 11610, Control_c, 0, 64, 127
2, 11611, Note_on_c, 0, 47, 72
2, 11612, Note_on_c, 0, 62, 68
2, 11614, Note_on_c, 0, 66, 0
2, 11620, Note_on_c, 0, 47, 0
2, 11623, Note_on_c, 0, 62, 0
2, 11631, Note_on_c, 0, 64, 91
2, 11634, Note_on_c, 0, 48, 94
2, 11643, Note_on_c, 0, 64, 0
2, 11646, Note_on_c, 0, 48, 0
2, 11652, Control_c, 0, 64, 0
2, 11656, Note_on_c, 0, 47, 84
2, 11658, Note_on_c, 0, 67, 97
2, 11660, Note_on_c, 0, 62, 79
2, 11679, Note_on_c, 0, 64, 92
2, 11680, Note_on_c, 0, 47, 0
2, 11680, Note_on_c, 0, 48, 96
2, 11681, Note_on_c, 0, 62, 0
2, 11692, Note_on_c, 0, 48, 0
2, 11694, Note_on_c, 0, 67, 0
2, 11694, Note_on_c, 0, 64, 0
2, 11694, Control_c, 0, 64, 127
2, 11700, Note_on_c, 0, 60, 76
2, 11703, Note_on_c, 0, 45, 91
2, 11713, Note_on_c, 0, 45, 0
2, 11713, Note_on_c, 0, 60, 0
2, 11720, Note_on_c, 0, 62, 90
2, 11726, Note_on_c, 0, 47, 81
2, 11736, Note_on_c, 0, 62, 0
2, 11738, Note_on_c, 0, 47, 0
2, 11744, Control_c, 0, 64, 0
2, 11749, Note_on_c, 0, 66, 100
2, 11750, Note_on_c, 0, 45, 97
2, 11751, Note_on_c, 0, 60, 79
2, 11772, Note_on_c, 0, 62, 71
2, 11773, Note_on_c, 0, 47, 81
2, 11778, Note_on_c, 0, 45, 0
2, 11779, Note_on_c, 0, 60, 0
2, 11782, Control_c, 0, 64, 127
2, 11784, Note_on_c, 0, 62, 0
2, 11786, Note_on_c, 0, 47, 0
2, 11787, Note_on_c, 0, 59, 75
2, 11789, Note_on_c, 0, 66, 0
2, 11796, Note_on_c, 0, 59, 0
2, 11797, Note_on_c, 0, 43, 91
2, 11810, Note_on_c, 0, 43, 0
2, 11816, Note_on_c, 0, 60, 92
2, 11819, Note_on_c, 0, 45, 101
2, 11827, Note_on_c, 0, 60, 0
2, 11839, Note_on_c, 0, 59, 80
2, 11840, Control_c, 0, 64, 0
2, 11841, Note_on_c, 0, 45, 0
2, 11841, Note_on_c, 0, 64, 98
2, 11843, Note_on_c, 0, 43, 97
2, 11857, Note_on_c, 0, 60, 92
2, 11861, Note_on_c, 0, 59, 0
2, 11863, Note_on_c, 0, 45, 97
2, 11870, Note_on_c, 0, 43, 0
2, 11871, Note_on_c, 0, 64, 0
2, 11878, Note_on_c, 0, 57, 89
2, 11879, Control_c, 0, 64, 127
2, 11881, Note_on_c, 0, 45, 0
2, 11883, Note_on_c, 0, 42, 91
2, 11884, Note_on_c, 0, 60, 0
2, 11898, Note_on_c, 0, 57, 0
2, 11902, Note_on_c, 0, 42, 0
2, 11902, Note_on_c, 0, 59, 84
2, 11907, Note_on_c, 0, 43, 99
2, 11911, Note_on_c, 0, 59, 0
2, 11919, Note_on_c, 0, 43, 0
2, 11929, Control_c, 0, 64, 0
2, 11935, Note_on_c, 0, 68, 113
2, 11937, Note_on_c, 0, 59, 76
2, 11937, Note_on_c, 0, 56, 110
2, 11937, Note_on_c, 0, 41, 123
2, 11938, Note_on_c, 0, 62, 100
2, 11963, Note_on_c, 0, 41, 0
2, 11972, Note_on_c, 0, 56, 0
2, 11975, Control_c, 0, 64, 127
2, 11978, Note_on_c, 0, 59, 0
2, 11983, Note_on_c, 0, 62, 0
2, 11994, Note_on_c, 0, 68, 0
2, 12048, Control_c, 0, 64, 0
2, 12057, Note_on_c, 0, 59, 61
2, 12057, Note_on_c, 0, 68, 58
2, 12058, Note_on_c, 0, 71, 61
2, 12059, Note_on_c, 0, 49, 75
2, 12066, Note_on_c, 0, 59, 0
2, 12070, Note_on_c, 0, 49, 0
2, 12083, Note_on_c, 0, 50, 59
2, 12095, Note_on_c, 0, 50, 0
2, 12106, Note_on_c, 0, 48, 83
2, 12119, Note_on_c, 0, 48, 0
2, 12124, Control_c, 0, 64, 127
2, 12132, Note_on_c, 0, 49, 79
2, 12147, Note_on_c, 0, 49, 0
2, 12158, Note_on_c, 0, 49, 57
2, 12164, Note_on_c, 0, 71, 0
2, 12166, Note_on_c, 0, 68, 0
2, 12168, Note_on_c, 0, 49, 0
2, 12181, Note_on_c, 0, 50, 85
2, 12190, Note_on_c, 0, 50, 0
2, 12202, Note_on_c, 0, 48, 83
2, 12217, Note_on_c, 0, 48, 0
2, 12221, Note_on_c, 0, 49, 83
2, 12230, Note_on_c, 0, 49, 0
2, 12243, Note_on_c, 0, 49, 97
2, 12249, Note_on_c, 0, 80, 98
2, 12250, Note_on_c, 0, 68, 83
2, 12251, Note_on_c, 0, 71, 72
2, 12252, Note_on_c, 0, 49, 0
2, 12271, Note_on_c, 0, 50, 80
2, 12280, Note_on_c, 0, 50, 0
2, 12291, Note_on_c, 0, 48, 91
2, 12294, Control_c, 0, 64, 0
2, 12304, Note_on_c, 0, 48, 0
2, 12312, Note_on_c, 0, 49, 92
2, 12319, Note_on_c, 0, 49, 0
2, 12329, Note_on_c, 0, 68, 0
2, 12331, Note_on_c, 0, 49, 96
2, 12335, Note_on_c, 0, 71, 0
2, 12340, Control_c, 0, 64, 127
2, 12351, Note_on_c, 0, 49, 0
2, 12355, Note_on_c, 0, 80, 0
2, 12366, Note_on_c, 0, 50, 87
2, 12374, Note_on_c, 0, 50, 0
2, 12381, Note_on_c, 0, 48, 92
2, 12400, Note_on_c, 0, 49, 92
2, 12406, Note_on_c, 0, 48, 0
2, 12408, Note_on_c, 0, 49, 0
2, 12420, Note_on_c, 0, 49, 98
2, 12424, Note_on_c, 0, 71, 106
2, 12425, Note_on_c, 0, 83, 106
2, 12427, Note_on_c, 0, 80, 90
2, 12430, Note_on_c, 0, 71, 0
2, 12435, Note_on_c, 0, 80, 0
2, 12439, Note_on_c, 0, 49, 0
2, 12450, Note_on_c, 0, 83, 0
2, 12450, Note_on_c, 0, 50, 97
2, 12460, Note_on_c, 0, 50, 0
2, 12470, Note_on_c, 0, 48, 77
2, 12488, Note_on_c, 0, 49, 95
2, 12494, Note_on_c, 0, 48, 0
2, 12507, Note_on_c, 0, 49, 0
2, 12513, Note_on_c, 0, 49, 60
2, 12514, Note_on_c, 0, 92, 112
2, 12516, Note_on_c, 0, 80, 106
2, 12516, Control_c, 0, 64, 0
2, 12518, Note_on_c, 0, 83, 92
2, 12538, Note_on_c, 0, 49, 0
2, 12541, Note_on_c, 0, 50, 97
2, 12552, Note_on_c, 0, 50, 0
2, 12564, Note_on_c, 0, 48, 96
2, 12574, Control_c, 0, 64, 127
2, 12588, Note_on_c, 0, 49, 97
2, 12591, Note_on_c, 0, 48, 0
2, 12597, Note_on_c, 0, 83, 0
2, 12601, Note_on_c, 0, 49, 0
2, 12604, Note_on_c, 0, 80, 0
2, 12606, Note_on_c, 0, 49, 66
2, 12616, Note_on_c, 0, 92, 0
2, 12631, Note_on_c, 0, 49, 0
2, 12633, Note_on_c, 0, 50, 91
2, 12642, Note_on_c, 0, 50, 0
2, 12650, Note_on_c, 0, 90, 100
2, 12651, Note_on_c, 0, 78, 104
2, 12651, Note_on_c, 0, 48, 95
2, 12653, Note_on_c, 0, 83, 85
2, 12663, Note_on_c, 0, 49, 85
2, 12674, Note_on_c, 0, 48, 0
2, 12676, Note_on_c, 0, 78, 0
2, 12681, Note_on_c, 0, 49, 0
2, 12682, Control_c, 0, 64, 0
2, 12683, Note_on_c, 0, 83, 0
2, 12684, Note_on_c, 0, 90, 0
2, 12697, Note_on_c, 0, 89, 117
2, 12697, Note_on_c, 0, 50, 119
2, 12697, Note_on_c, 0, 77, 119
2, 12700, Note_on_c, 0, 83, 91
2, 12711, Note_on_c, 0, 50, 0
2, 12735, Control_c, 0, 64, 127
2, 12739, Note_on_c, 0, 77, 0
2, 12742, Note_on_c, 0, 83, 0
2, 12813, Note_on_c, 0, 83, 97
2, 12813, Note_on_c, 0, 80, 107
2, 12827, Note_on_c, 0, 89, 0
2, 12838, Note_on_c, 0, 85, 88
2, 12839, Note_on_c, 0, 74, 81
2, 12840, Note_on_c, 0, 80, 0
2, 12841, Note_on_c, 0, 83, 0
2, 12857, Note_on_c, 0, 71, 75
2, 12861, Note_on_c, 0, 74, 0
2, 12861, Note_on_c, 0, 83, 76
2, 12874, Note_on_c, 0, 85, 0
2, 12875, Note_on_c, 0, 71, 0
2, 12884, Note_on_c, 0, 65, 94
2, 12886, Note_on_c, 0, 83, 0
2, 12891, Note_on_c, 0, 92, 85
2, 12901, Note_on_c, 0, 92, 0
2, 12914, Note_on_c, 0, 80, 95
2, 12914, Note_on_c, 0, 77, 109
2, 12925, Note_on_c, 0, 80, 0
2, 12929, Note_on_c, 0, 65, 0
2, 12933, Note_on_c, 0, 82, 71
2, 12935, Note_on_c, 0, 77, 0
2, 12939, Note_on_c, 0, 71, 64
2, 12947, Note_on_c, 0, 68, 83
2, 12951, Note_on_c, 0, 71, 0
2, 12958, Note_on_c, 0, 80, 77
2, 12962, Note_on_c, 0, 82, 0
2, 12965, Note_on_c, 0, 68, 0
2, 12979, Note_on_c, 0, 80, 0
2, 12979, Note_on_c, 0, 62, 85
2, 12982, Note_on_c, 0, 89, 91
2, 12991, Note_on_c, 0, 89, 0
2, 12999, Note_on_c, 0, 62, 0
2, 13006, Note_on_c, 0, 74, 102
2, 13006, Note_on_c, 0, 77, 101
2, 13021, Note_on_c, 0, 68, 80
2, 13027, Note_on_c, 0, 74, 0
2, 13028, Note_on_c, 0, 77, 0
2, 13032, Note_on_c, 0, 78, 54
2, 13042, Note_on_c, 0, 65, 57
2, 13044, Note_on_c, 0, 78, 0
2, 13049, Note_on_c, 0, 77, 88
2, 13056, Note_on_c, 0, 65, 0
2, 13057, Note_on_c, 0, 68, 0
2, 13062, Note_on_c, 0, 77, 0
2, 13066, Note_on_c, 0, 59, 79
2, 13067, Note_on_c, 0, 86, 87
2, 13079, Note_on_c, 0, 86, 0
2, 13083, Note_on_c, 0, 59, 0
2, 13095, Note_on_c, 0, 71, 90
2, 13095, Note_on_c, 0, 74, 103
2, 13116, Note_on_c, 0, 65, 83
2, 13117, Note_on_c, 0, 74, 0
2, 13120, Note_on_c, 0, 76, 83
2, 13123, Note_on_c, 0, 71, 0
2, 13137, Note_on_c, 0, 62, 63
2, 13138, Note_on_c, 0, 74, 87
2, 13144, Note_on_c, 0, 65, 0
2, 13150, Note_on_c, 0, 76, 0
2, 13151, Note_on_c, 0, 62, 0
2, 13159, Note_on_c, 0, 56, 74
2, 13161, Note_on_c, 0, 74, 0
2, 13161, Note_on_c, 0, 83, 82
2, 13168, Note_on_c, 0, 56, 0
2, 13169, Note_on_c, 0, 83, 0
2, 13179, Note_on_c, 0, 68, 97
2, 13185, Note_on_c, 0, 71, 88
2, 13201, Note_on_c, 0, 62, 56
2, 13203, Note_on_c, 0, 71, 0
2, 13203, Note_on_c, 0, 68, 0
2, 13205, Note_on_c, 0, 73, 91
2, 13212, Note_on_c, 0, 59, 62
2, 13223, Note_on_c, 0, 62, 0
2, 13226, Note_on_c, 0, 71, 72
2, 13232, Note_on_c, 0, 73, 0
2, 13237, Note_on_c, 0, 53, 89
2, 13238, Note_on_c, 0, 59, 0
2, 13243, Note_on_c, 0, 71, 0
2, 13245, Note_on_c, 0, 80, 89
2, 13254, Note_on_c, 0, 80, 0
2, 13255, Note_on_c, 0, 53, 0
2, 13266, Note_on_c, 0, 65, 104
2, 13269, Note_on_c, 0, 68, 100
2, 13285, Note_on_c, 0, 59, 55
2, 13289, Note_on_c, 0, 70, 92
2, 13291, Note_on_c, 0, 65, 0
2, 13293, Note_on_c, 0, 68, 0
2, 13297, Note_on_c, 0, 56, 83
2, 13310, Note_on_c, 0, 59, 0
2, 13310, Note_on_c, 0, 68, 83
2, 13322, Note_on_c, 0, 56, 0
2, 13325, Note_on_c, 0, 70, 0
2, 13329, Note_on_c, 0, 50, 23
2, 13333, Note_on_c, 0, 68, 0
2, 13334, Note_on_c, 0, 77, 74
2, 13342, Note_on_c, 0, 50, 0
2, 13343, Note_on_c, 0, 77, 0
2, 13351, Note_on_c, 0, 62, 97
2, 13356, Note_on_c, 0, 65, 105
2, 13371, Note_on_c, 0, 66, 85
2, 13372, Note_on_c, 0, 62, 0
2, 13373, Note_on_c, 0, 56, 84
2, 13377, Note_on_c, 0, 65, 0
2, 13391, Note_on_c, 0, 53, 71
2, 13398, Note_on_c, 0, 65, 84
2, 13408, Note_on_c, 0, 56, 0
2, 13409, Note_on_c, 0, 66, 0
2, 13411, Note_on_c, 0, 47, 79
2, 13413, Note_on_c, 0, 53, 0
2, 13420, Note_on_c, 0, 47, 0
2, 13421, Note_on_c, 0, 74, 88
2, 13426, Note_on_c, 0, 65, 0
2, 13433, Note_on_c, 0, 74, 0
2, 13444, Note_on_c, 0, 43, 112
2, 13446, Note_on_c, 0, 73, 104
2, 13446, Note_on_c, 0, 70, 108
2, 13447, Note_on_c, 0, 64, 111
2, 13460, Note_on_c, 0, 43, 0
2, 13479, Note_on_c, 0, 64, 0
2, 13491, Note_on_c, 0, 70, 0
2, 13504, Note_on_c, 0, 73, 0
2, 13507, Control_c, 0, 64, 0
2, 13545, Note_on_c, 0, 73, 84
2, 13546, Note_on_c, 0, 61, 90
2, 13546, Note_on_c, 0, 51, 90
2, 13549, Note_on_c, 0, 70, 73
2, 13562, Note_on_c, 0, 51, 0
2, 13572, Note_on_c, 0, 52, 76
2, 13582, Note_on_c, 0, 52, 0
2, 13596, Note_on_c, 0, 50, 83
2, 13608, Control_c, 0, 64, 127
2, 13616, Note_on_c, 0, 50, 0
2, 13620, Note_on_c, 0, 51, 88
2, 13628, Note_on_c, 0, 51, 0
2, 13644, Note_on_c, 0, 61, 0
2, 13644, Note_on_c, 0, 51, 76
2, 13661, Note_on_c, 0, 70, 0
2, 13668, Note_on_c, 0, 51, 0
2, 13671, Note_on_c, 0, 73, 0
2, 13675, Note_on_c, 0, 52, 91
2, 13684, Note_on_c, 0, 52, 0
2, 13697, Note_on_c, 0, 50, 84
2, 13716, Note_on_c, 0, 51, 90
2, 13719, Note_on_c, 0, 50, 0
2, 13731, Note_on_c, 0, 51, 0
2, 13737, Note_on_c, 0, 82, 116
2, 13738, Note_on_c, 0, 70, 111
2, 13741, Note_on_c, 0, 73, 90
2, 13742, Note_on_c, 0, 51, 90
2, 13754, Note_on_c, 0, 51, 0
2, 13761, Control_c, 0, 64, 0
2, 13771, Note_on_c, 0, 52, 92
2, 13782, Note_on_c, 0, 52, 0
2, 13790, Note_on_c, 0, 50, 90
2, 13810, Note_on_c, 0, 51, 96
2, 13816, Note_on_c, 0, 50, 0
2, 13817, Note_on_c, 0, 51, 0
2, 13819, Control_c, 0, 64, 127
2, 13824, Note_on_c, 0, 70, 0
2, 13828, Note_on_c, 0, 51, 92
2, 13833, Note_on_c, 0, 73, 0
2, 13849, Note_on_c, 0, 82, 0
2, 13853, Note_on_c, 0, 51, 0
2, 13863, Note_on_c, 0, 52, 100
2, 13874, Note_on_c, 0, 52, 0
2, 13882, Note_on_c, 0, 50, 93
2, 13902, Note_on_c, 0, 51, 92
2, 13906, Note_on_c, 0, 50, 0
2, 13917, Note_on_c, 0, 73, 119
2, 13917, Note_on_c, 0, 85, 113
2, 13919, Note_on_c, 0, 82, 108
2, 13921, Note_on_c, 0, 51, 0
2, 13925, Note_on_c, 0, 51, 54
2, 13938, Note_on_c, 0, 73, 0
2, 13945, Note_on_c, 0, 82, 0
2, 13947, Note_on_c, 0, 51, 0
2, 13952, Note_on_c, 0, 85, 0
2, 13956, Note_on_c, 0, 52, 87
2, 13971, Note_on_c, 0, 50, 12
2, 13981, Note_on_c, 0, 52, 0
2, 13998, Note_on_c, 0, 51, 95
2, 14005, Note_on_c, 0, 50, 0
2, 14021, Note_on_c, 0, 51, 0
2, 14029, Note_on_c, 0, 51, 89
2, 14031, Note_on_c, 0, 94, 122
2, 14032, Note_on_c, 0, 82, 121
2, 14033, Note_on_c, 0, 85, 106
2, 14056, Note_on_c, 0, 51, 0
2, 14059, Note_on_c, 0, 52, 97
2, 14071, Note_on_c, 0, 52, 0
2, 14086, Note_on_c, 0, 50, 92
2, 14121, Note_on_c, 0, 85, 0
2, 14127, Note_on_c, 0, 51, 98
2, 14129, Note_on_c, 0, 50, 0
2, 14133, Note_on_c, 0, 82, 0
2, 14139, Note_on_c, 0, 94, 0
2, 14148, Note_on_c, 0, 51, 0
2, 14161, Note_on_c, 0, 52, 84
2, 14168, Note_on_c, 0, 92, 104
2, 14169, Note_on_c, 0, 80, 106
2, 14170, Note_on_c, 0, 52, 0
2, 14170, Note_on_c, 0, 85, 97
2, 14178, Note_on_c, 0, 50, 95
2, 14193, Note_on_c, 0, 51, 88
2, 14196, Note_on_c, 0, 80, 0
2, 14199, Note_on_c, 0, 85, 0
2, 14203, Note_on_c, 0, 50, 0
2, 14204, Note_on_c, 0, 92, 0
2, 14205, Note_on_c, 0, 51, 0
2, 14211, Control_c, 0, 64, 0
2, 14222, Note_on_c, 0, 85, 89
2, 14222, Note_on_c, 0, 91, 113
2, 14222, Note_on_c, 0, 79, 117
2, 14223, Note_on_c, 0, 52, 114
2, 14254, Note_on_c, 0, 52, 0
2, 14262, Note_on_c, 0, 79, 0
2, 14265, Control_c, 0, 64, 127
2, 14280, Note_on_c, 0, 85, 0
2, 14292, Note_on_c, 0, 91, 0
2, 14320, Note_on_c, 0, 79, 110
2, 14322, Note_on_c, 0, 85, 111
2, 14341, Note_on_c, 0, 73, 78
2, 14343, Note_on_c, 0, 85, 0
2, 14345, Note_on_c, 0, 87, 92
2, 14349, Note_on_c, 0, 79, 0
2, 14367, Note_on_c, 0, 70, 54
2, 14368, Note_on_c, 0, 85, 77
2, 14379, Note_on_c, 0, 87, 0
2, 14379, Note_on_c, 0, 73, 0
2, 14385, Note_on_c, 0, 70, 0
2, 14391, Note_on_c, 0, 85, 0
2, 14391, Note_on_c, 0, 94, 97
2, 14392, Note_on_c, 0, 64, 41
2, 14402, Note_on_c, 0, 94, 0
2, 14406, Note_on_c, 0, 64, 0
2, 14416, Note_on_c, 0, 82, 109
2, 14419, Note_on_c, 0, 76, 102
2, 14440, Note_on_c, 0, 70, 98
2, 14441, Note_on_c, 0, 82, 0
2, 14442, Note_on_c, 0, 84, 80
2, 14444, Note_on_c, 0, 76, 0
2, 14452, Note_on_c, 0, 67, 60
2, 14456, Note_on_c, 0, 82, 96
2, 14467, Note_on_c, 0, 67, 0
2, 14471, Note_on_c, 0, 84, 0
2, 14474, Note_on_c, 0, 70, 0
2, 14476, Note_on_c, 0, 61, 88
2, 14478, Note_on_c, 0, 82, 0
2, 14481, Note_on_c, 0, 91, 90
2, 14488, Note_on_c, 0, 61, 0
2, 14491, Note_on_c, 0, 91, 0
2, 14502, Note_on_c, 0, 73, 102
2, 14506, Note_on_c, 0, 79, 98
2, 14519, Note_on_c, 0, 79, 0
2, 14527, Note_on_c, 0, 80, 84
2, 14529, Note_on_c, 0, 73, 0
2, 14532, Note_on_c, 0, 67, 67
2, 14533, Note_on_c, 0, 64, 78
2, 14546, Note_on_c, 0, 79, 85
2, 14553, Note_on_c, 0, 67, 0
2, 14555, Note_on_c, 0, 80, 0
2, 14560, Note_on_c, 0, 64, 0
2, 14561, Note_on_c, 0, 58, 100
2, 14567, Note_on_c, 0, 79, 0
2, 14568, Note_on_c, 0, 88, 89
2, 14577, Note_on_c, 0, 88, 0
2, 14583, Note_on_c, 0, 58, 0
2, 14587, Note_on_c, 0, 70, 106
2, 14591, Note_on_c, 0, 76, 101
2, 14604, Note_on_c, 0, 76, 0
2, 14608, Note_on_c, 0, 70, 0
2, 14611, Note_on_c, 0, 64, 56
2, 14614, Note_on_c, 0, 78, 69
2, 14622, Note_on_c, 0, 61, 73
2, 14628, Note_on_c, 0, 64, 0
2, 14634, Note_on_c, 0, 76, 63
2, 14637, Note_on_c, 0, 61, 0
2, 14638, Note_on_c, 0, 78, 0
2, 14647, Note_on_c, 0, 76, 0
2, 14649, Note_on_c, 0, 85, 90
2, 14649, Note_on_c, 0, 55, 78
2, 14659, Note_on_c, 0, 85, 0
2, 14660, Note_on_c, 0, 55, 0
2, 14674, Note_on_c, 0, 73, 92
2, 14678, Note_on_c, 0, 67, 94
2, 14694, Note_on_c, 0, 73, 0
2, 14695, Note_on_c, 0, 61, 87
2, 14696, Note_on_c, 0, 67, 0
2, 14697, Note_on_c, 0, 75, 77
2, 14715, Note_on_c, 0, 73, 67
2, 14719, Note_on_c, 0, 75, 0
2, 14723, Note_on_c, 0, 61, 0
2, 14737, Note_on_c, 0, 82, 85
2, 14741, Note_on_c, 0, 73, 0
2, 14747, Note_on_c, 0, 82, 0
2, 14761, Note_on_c, 0, 64, 85
2, 14763, Note_on_c, 0, 70, 87
2, 14770, Note_on_c, 0, 64, 0
2, 14776, Note_on_c, 0, 70, 0
2, 14783, Note_on_c, 0, 58, 80
2, 14793, Note_on_c, 0, 72, 43
2, 14795, Note_on_c, 0, 58, 0
2, 14803, Note_on_c, 0, 70, 70
2, 14803, Note_on_c, 0, 55, 27
2, 14806, Note_on_c, 0, 72, 0
2, 14817, Note_on_c, 0, 49, 70
2, 14819, Note_on_c, 0, 55, 0
2, 14821, Note_on_c, 0, 79, 81
2, 14828, Note_on_c, 0, 79, 0
2, 14829, Note_on_c, 0, 49, 0
2, 14829, Note_on_c, 0, 70, 0
2, 14845, Note_on_c, 0, 61, 81
2, 14854, Note_on_c, 0, 67, 83
2, 14868, Note_on_c, 0, 67, 0
2, 14869, Note_on_c, 0, 61, 0
2, 14875, Note_on_c, 0, 68, 53
2, 14879, Note_on_c, 0, 52, 39
2, 14891, Note_on_c, 0, 68, 0
2, 14891, Note_on_c, 0, 67, 73
2, 14894, Note_on_c, 0, 52, 0
2, 14895, Note_on_c, 0, 46, 88
2, 14906, Note_on_c, 0, 46, 0
2, 14913, Note_on_c, 0, 67, 0
2, 14914, Note_on_c, 0, 76, 83
2, 14929, Control_c, 0, 64, 0
2, 14931, Note_on_c, 0, 47, 59
2, 14935, Note_on_c, 0, 76, 0
2, 14941, Note_on_c, 0, 63, 89
2, 14950, Note_on_c, 0, 63, 0
2, 14953, Note_on_c, 0, 51, 76
2, 14958, Note_on_c, 0, 47, 0
2, 14967, Note_on_c, 0, 75, 68
2, 14968, Note_on_c, 0, 51, 0
2, 14974, Note_on_c, 0, 55, 55
2, 14982, Note_on_c, 0, 75, 0
2, 14983, Note_on_c, 0, 76, 87
2, 14992, Note_on_c, 0, 55, 0
2, 15004, Note_on_c, 0, 75, 58
2, 15007, Note_on_c, 0, 58, 36
2, 15015, Note_on_c, 0, 76, 0
2, 15023, Note_on_c, 0, 73, 79
2, 15028, Note_on_c, 0, 58, 0
2, 15032, Note_on_c, 0, 75, 0
2, 15035, Note_on_c, 0, 59, 42
2, 15038, Note_on_c, 0, 73, 0
2, 15043, Note_on_c, 0, 71, 73
2, 15060, Note_on_c, 0, 59, 0
2, 15060, Note_on_c, 0, 61, 81
2, 15068, Note_on_c, 0, 71, 0
2, 15072, Note_on_c, 0, 70, 73
2, 15084, Note_on_c, 0, 63, 68
2, 15085, Note_on_c, 0, 61, 0
2, 15087, Note_on_c, 0, 68, 76
2, 15094, Note_on_c, 0, 63, 0
2, 15099, Note_on_c, 0, 70, 0
2, 15106, Note_on_c, 0, 64, 95
2, 15114, Note_on_c, 0, 67, 88
2, 15115, Note_on_c, 0, 68, 0
2, 15130, Note_on_c, 0, 67, 0
2, 15131, Note_on_c, 0, 58, 85
2, 15133, Note_on_c, 0, 68, 72
2, 15142, Note_on_c, 0, 64, 0
2, 15153, Note_on_c, 0, 67, 70
2, 15162, Note_on_c, 0, 55, 41
2, 15165, Note_on_c, 0, 58, 0
2, 15166, Note_on_c, 0, 68, 0
2, 15170, Note_on_c, 0, 67, 0
2, 15177, Note_on_c, 0, 76, 63
2, 15177, Note_on_c, 0, 49, 70
2, 15178, Note_on_c, 0, 55, 0
2, 15187, Note_on_c, 0, 76, 0
2, 15190, Note_on_c, 0, 49, 0
2, 15198, Note_on_c, 0, 61, 76
2, 15204, Note_on_c, 0, 64, 25
2, 15216, Note_on_c, 0, 61, 0
2, 15217, Note_on_c, 0, 64, 0
2, 15218, Note_on_c, 0, 66, 76
2, 15223, Note_on_c, 0, 55, 44
2, 15235, Note_on_c, 0, 66, 0
2, 15237, Note_on_c, 0, 64, 63
2, 15238, Note_on_c, 0, 55, 0
2, 15238, Note_on_c, 0, 52, 18
2, 15249, Note_on_c, 0, 46, 88
2, 15252, Note_on_c, 0, 52, 0
2, 15255, Note_on_c, 0, 64, 0
2, 15259, Note_on_c, 0, 73, 56
2, 15261, Note_on_c, 0, 46, 0
2, 15271, Note_on_c, 0, 73, 0
2, 15283, Note_on_c, 0, 63, 76
2, 15284, Note_on_c, 0, 47, 60
2, 15293, Note_on_c, 0, 63, 0
2, 15302, Note_on_c, 0, 51, 72
2, 15306, Note_on_c, 0, 75, 65
2, 15310, Note_on_c, 0, 47, 0
2, 15318, Note_on_c, 0, 75, 0
2, 15319, Note_on_c, 0, 51, 0
2, 15324, Note_on_c, 0, 55, 55
2, 15326, Note_on_c, 0, 76, 88
2, 15339, Note_on_c, 0, 55, 0
2, 15346, Note_on_c, 0, 56, 78
2, 15348, Note_on_c, 0, 75, 53
2, 15359, Note_on_c, 0, 76, 0
2, 15366, Note_on_c, 0, 73, 77
2, 15369, Note_on_c, 0, 58, 78
2, 15375, Note_on_c, 0, 75, 0
2, 15377, Note_on_c, 0, 56, 0
2, 15379, Note_on_c, 0, 73, 0
2, 15384, Note_on_c, 0, 59, 75
2, 15386, Note_on_c, 0, 71, 73
2, 15387, Note_on_c, 0, 58, 0
2, 15394, Note_on_c, 0, 59, 0
2, 15408, Note_on_c, 0, 61, 81
2, 15412, Note_on_c, 0, 70, 80
2, 15413, Note_on_c, 0, 71, 0
2, 15428, Note_on_c, 0, 68, 75
2, 15429, Note_on_c, 0, 63, 79
2, 15433, Note_on_c, 0, 61, 0
2, 15438, Note_on_c, 0, 70, 0
2, 15438, Note_on_c, 0, 63, 0
2, 15452, Note_on_c, 0, 69, 94
2, 15453, Note_on_c, 0, 68, 0
2, 15453, Note_on_c, 0, 66, 107
2, 15471, Note_on_c, 0, 69, 0
2, 15475, Note_on_c, 0, 70, 87
2, 15479, Note_on_c, 0, 60, 88
2, 15489, Note_on_c, 0, 66, 0
2, 15495, Note_on_c, 0, 69, 67
2, 15504, Note_on_c, 0, 70, 0
2, 15505, Note_on_c, 0, 57, 45
2, 15506, Note_on_c, 0, 60, 0
2, 15510, Note_on_c, 0, 69, 0
2, 15516, Note_on_c, 0, 78, 82
2, 15518, Note_on_c, 0, 57, 0
2, 15523, Note_on_c, 0, 51, 81
2, 15525, Note_on_c, 0, 78, 0
2, 15534, Note_on_c, 0, 51, 0
2, 15537, Note_on_c, 0, 63, 90
2, 15539, Note_on_c, 0, 66, 85
2, 15552, Note_on_c, 0, 63, 0
2, 15560, Note_on_c, 0, 66, 0
2, 15561, Note_on_c, 0, 68, 86
2, 15564, Note_on_c, 0, 57, 54
2, 15571, Note_on_c, 0, 54, 72
2, 15576, Note_on_c, 0, 57, 0
2, 15579, Note_on_c, 0, 66, 67
2, 15595, Note_on_c, 0, 68, 0
2, 15596, Note_on_c, 0, 48, 88
2, 15598, Note_on_c, 0, 54, 0
2, 15602, Note_on_c, 0, 75, 75
2, 15613, Note_on_c, 0, 66, 0
2, 15619, Note_on_c, 0, 49, 92
2, 15625, Note_on_c, 0, 48, 0
2, 15627, Note_on_c, 0, 65, 96
2, 15629, Note_on_c, 0, 75, 0
2, 15636, Note_on_c, 0, 65, 0
2, 15643, Note_on_c, 0, 53, 69
2, 15649, Note_on_c, 0, 77, 90
2, 15653, Note_on_c, 0, 49, 0
2, 15655, Note_on_c, 0, 53, 0
2, 15660, Note_on_c, 0, 57, 95
2, 15667, Note_on_c, 0, 77, 0
2, 15672, Note_on_c, 0, 57, 0
2, 15673, Note_on_c, 0, 78, 90
2, 15694, Note_on_c, 0, 58, 80
2, 15697, Note_on_c, 0, 77, 92
2, 15705, Note_on_c, 0, 78, 0
2, 15706, Note_on_c, 0, 58, 0
2, 15711, Note_on_c, 0, 60, 91
2, 15717, Note_on_c, 0, 75, 87
2, 15723, Note_on_c, 0, 60, 0
2, 15729, Note_on_c, 0, 77, 0
2, 15736, Note_on_c, 0, 61, 83
2, 15738, Note_on_c, 0, 73, 88
2, 15751, Note_on_c, 0, 75, 0
2, 15757, Note_on_c, 0, 72, 83
2, 15758, Note_on_c, 0, 63, 73
2, 15765, Note_on_c, 0, 73, 0
2, 15772, Note_on_c, 0, 72, 0
2, 15773, Note_on_c, 0, 61, 0
2, 15776, Note_on_c, 0, 63, 0
2, 15776, Note_on_c, 0, 65, 89
2, 15777, Note_on_c, 0, 70, 97
2, 15786, Note_on_c, 0, 65, 0
2, 15798, Note_on_c, 0, 70, 0
2, 15804, Note_on_c, 0, 68, 105
2, 15805, Note_on_c, 0, 71, 88
2, 15825, Note_on_c, 0, 62, 66
2, 15826, Note_on_c, 0, 68, 0
2, 15828, Control_c, 0, 64, 127
2, 15828, Note_on_c, 0, 73, 92
2, 15829, Note_on_c, 0, 71, 0
2, 15835, Note_on_c, 0, 62, 0
2, 15849, Note_on_c, 0, 59, 70
2, 15850, Note_on_c, 0, 71, 62
2, 15859, Note_on_c, 0, 73, 0
2, 15865, Note_on_c, 0, 59, 0
2, 15868, Note_on_c, 0, 71, 0
2, 15874, Note_on_c, 0, 53, 32
2, 15875, Note_on_c, 0, 80, 62
2, 15887, Note_on_c, 0, 80, 0
2, 15889, Note_on_c, 0, 53, 0
2, 15891, Note_on_c, 0, 68, 98
2, 15894, Note_on_c, 0, 65, 94
2, 15909, Control_c, 0, 64, 0
2, 15913, Note_on_c, 0, 70, 100
2, 15914, Note_on_c, 0, 68, 0
2, 15916, Note_on_c, 0, 65, 0
2, 15917, Note_on_c, 0, 59, 58
2, 15927, Note_on_c, 0, 59, 0
2, 15934, Note_on_c, 0, 68, 86
2, 15937, Note_on_c, 0, 56, 37
2, 15945, Note_on_c, 0, 70, 0
2, 15948, Note_on_c, 0, 50, 100
2, 15951, Control_c, 0, 64, 127
2, 15953, Note_on_c, 0, 56, 0
2, 15956, Note_on_c, 0, 68, 0
2, 15960, Note_on_c, 0, 50, 0
2, 15961, Note_on_c, 0, 77, 91
2, 15968, Note_on_c, 0, 77, 0
2, 15974, Control_c, 0, 64, 0
2, 15987, Note_on_c, 0, 72, 112
2, 15988, Note_on_c, 0, 69, 113
2, 15999, Note_on_c, 0, 63, 68
2, 16006, Note_on_c, 0, 73, 90
2, 16011, Note_on_c, 0, 72, 0
2, 16020, Note_on_c, 0, 69, 0
2, 16024, Note_on_c, 0, 60, 62
2, 16024, Control_c, 0, 64, 127
2, 16030, Note_on_c, 0, 72, 75
2, 16036, Note_on_c, 0, 73, 0
2, 16041, Note_on_c, 0, 63, 0
2, 16045, Note_on_c, 0, 60, 0
2, 16046, Note_on_c, 0, 72, 0
2, 16048, Note_on_c, 0, 54, 83
2, 16049, Note_on_c, 0, 81, 78
2, 16058, Note_on_c, 0, 81, 0
2, 16062, Note_on_c, 0, 54, 0
2, 16072, Note_on_c, 0, 66, 100
2, 16074, Control_c, 0, 64, 0
2, 16075, Note_on_c, 0, 69, 101
2, 16095, Note_on_c, 0, 70, 93
2, 16097, Note_on_c, 0, 69, 0
2, 16097, Note_on_c, 0, 66, 0
2, 16098, Note_on_c, 0, 60, 34
2, 16108, Note_on_c, 0, 57, 63
2, 16113, Note_on_c, 0, 60, 0
2, 16113, Control_c, 0, 64, 127
2, 16118, Note_on_c, 0, 69, 85
2, 16119, Note_on_c, 0, 57, 0
2, 16122, Note_on_c, 0, 51, 92
2, 16127, Note_on_c, 0, 70, 0
2, 16132, Note_on_c, 0, 51, 0
2, 16133, Note_on_c, 0, 69, 0
2, 16135, Note_on_c, 0, 78, 81
2, 16140, Control_c, 0, 64, 0
2, 16145, Note_on_c, 0, 78, 0
2, 16161, Note_on_c, 0, 73, 111
2, 16161, Note_on_c, 0, 70, 116
2, 16182, Note_on_c, 0, 70, 0
2, 16183, Note_on_c, 0, 75, 96
2, 16186, Control_c, 0, 64, 127
2, 16189, Note_on_c, 0, 73, 0
2, 16195, Note_on_c, 0, 64, 25
2, 16197, Note_on_c, 0, 61, 70
2, 16207, Note_on_c, 0, 73, 72
2, 16208, Note_on_c, 0, 64, 0
2, 16213, Note_on_c, 0, 61, 0
2, 16216, Note_on_c, 0, 55, 97
2, 16217, Note_on_c, 0, 75, 0
2, 16225, Note_on_c, 0, 82, 89
2, 16228, Note_on_c, 0, 55, 0
2, 16230, Note_on_c, 0, 73, 0
2, 16235, Note_on_c, 0, 82, 0
2, 16248, Note_on_c, 0, 67, 102
2, 16248, Note_on_c, 0, 70, 104
2, 16268, Note_on_c, 0, 72, 103
2, 16269, Note_on_c, 0, 61, 84
2, 16274, Note_on_c, 0, 70, 0
2, 16275, Note_on_c, 0, 67, 0
2, 16282, Note_on_c, 0, 61, 0
2, 16293, Note_on_c, 0, 70, 87
2, 16299, Note_on_c, 0, 52, 94
2, 16301, Note_on_c, 0, 72, 0
2, 16308, Note_on_c, 0, 52, 0
2, 16319, Note_on_c, 0, 79, 93
2, 16321, Note_on_c, 0, 70, 0
2, 16329, Note_on_c, 0, 79, 0
2, 16354, Control_c, 0, 64, 0
2, 16367, Note_on_c, 0, 69, 121
2, 16368, Note_on_c, 0, 72, 122
2, 16369, Note_on_c, 0, 66, 102
2, 16369, Note_on_c, 0, 56, 103
2, 16371, Note_on_c, 0, 63, 92
2, 16405, Note_on_c, 0, 75, 46
2, 16422, Note_on_c, 0, 78, 94
2, 16423, Note_on_c, 0, 72, 0
2, 16424, Control_c, 0, 64, 127
2, 16427, Note_on_c, 0, 69, 0
2, 16436, Note_on_c, 0, 75, 0
2, 16456, Note_on_c, 0, 78, 0
2, 16456, Note_on_c, 0, 81, 95
2, 16479, Note_on_c, 0, 81, 0
2, 16482, Note_on_c, 0, 68, 106
2, 16485, Control_c, 0, 64, 0
2, 16488, Note_on_c, 0, 84, 114
2, 16510, Note_on_c, 0, 87, 106
2, 16522, Note_on_c, 0, 84, 0
2, 16527, Control_c, 0, 64, 127
2, 16533, Note_on_c, 0, 68, 0
2, 16536, Note_on_c, 0, 90, 99
2, 16537, Note_on_c, 0, 63, 0
2, 16537, Note_on_c, 0, 56, 0
2, 16537, Note_on_c, 0, 66, 0
2, 16555, Note_on_c, 0, 87, 0
2, 16557, Note_on_c, 0, 93, 101
2, 16580, Note_on_c, 0, 90, 0
2, 16582, Note_on_c, 0, 96, 109
2, 16594, Note_on_c, 0, 93, 0
2, 16600, Note_on_c, 0, 87, 105
2, 16618, Note_on_c, 0, 96, 0
2, 16622, Note_on_c, 0, 88, 101
2, 16633, Note_on_c, 0, 87, 0
2, 16645, Note_on_c, 0, 92, 102
2, 16649, Note_on_c, 0, 88, 0
2, 16672, Note_on_c, 0, 90, 98
2, 16687, Note_on_c, 0, 92, 0
2, 16689, Control_c, 0, 64, 0
2, 16689, Note_on_c, 0, 84, 108
2, 16695, Note_on_c, 0, 72, 85
2, 16696, Note_on_c, 0, 90, 0
2, 16712, Note_on_c, 0, 84, 0
2, 16712, Note_on_c, 0, 73, 81
2, 16713, Note_on_c, 0, 72, 0
2, 16714, Note_on_c, 0, 85, 100
2, 16726, Note_on_c, 0, 73, 0
2, 16737, Note_on_c, 0, 76, 91
2, 16737, Note_on_c, 0, 88, 92
2, 16743, Note_on_c, 0, 85, 0
2, 16754, Control_c, 0, 64, 127
2, 16758, Note_on_c, 0, 75, 79
2, 16761, Note_on_c, 0, 87, 97
2, 16762, Note_on_c, 0, 76, 0
2, 16765, Note_on_c, 0, 88, 0
2, 16767, Note_on_c, 0, 75, 0
2, 16770, Note_on_c, 0, 87, 0
2, 16779, Note_on_c, 0, 66, 82
2, 16780, Note_on_c, 0, 78, 92
2, 16796, Note_on_c, 0, 68, 66
2, 16804, Note_on_c, 0, 78, 0
2, 16804, Note_on_c, 0, 80, 91
2, 16812, Note_on_c, 0, 66, 0
2, 16818, Note_on_c, 0, 71, 46
2, 16822, Note_on_c, 0, 83, 77
2, 16829, Note_on_c, 0, 68, 0
2, 16831, Note_on_c, 0, 80, 0
2, 16837, Note_on_c, 0, 69, 48
2, 16840, Note_on_c, 0, 81, 94
2, 16849, Note_on_c, 0, 81, 0
2, 16851, Note_on_c, 0, 69, 0
2, 16852, Note_on_c, 0, 71, 0
2, 16853, Note_on_c, 0, 83, 0
2, 16861, Note_on_c, 0, 60, 92
2, 16861, Note_on_c, 0, 72, 101
2, 16879, Note_on_c, 0, 61, 85
2, 16881, Note_on_c, 0, 73, 84
2, 16884, Note_on_c, 0, 60, 0
2, 16885, Note_on_c, 0, 72, 0
2, 16894, Note_on_c, 0, 61, 0
2, 16901, Note_on_c, 0, 64, 95
2, 16903, Note_on_c, 0, 76, 95
2, 16911, Note_on_c, 0, 73, 0
2, 16923, Note_on_c, 0, 63, 94
2, 16925, Note_on_c, 0, 64, 0
2, 16929, Note_on_c, 0, 75, 97
2, 16933, Note_on_c, 0, 76, 0
2, 16936, Note_on_c, 0, 63, 0
2, 16948, Note_on_c, 0, 75, 0
2, 16950, Note_on_c, 0, 66, 98
2, 16950, Note_on_c, 0, 54, 91
2, 16970, Note_on_c, 0, 56, 81
2, 16975, Note_on_c, 0, 66, 0
2, 16975, Note_on_c, 0, 68, 97
2, 16978, Note_on_c, 0, 54, 0
2, 16990, Note_on_c, 0, 59, 70
2, 16992, Note_on_c, 0, 71, 74
2, 17002, Note_on_c, 0, 59, 0
2, 17006, Note_on_c, 0, 56, 0
2, 17007, Note_on_c, 0, 68, 0
2, 17010, Note_on_c, 0, 57, 92
2, 17011, Note_on_c, 0, 69, 99
2, 17023, Control_c, 0, 64, 0
2, 17029, Note_on_c, 0, 71, 0
2, 17034, Note_on_c, 0, 54, 99
2, 17038, Note_on_c, 0, 66, 95
2, 17041, Note_on_c, 0, 69, 0
2, 17044, Note_on_c, 0, 57, 0
2, 17053, Note_on_c, 0, 50, 83
2, 17054, Note_on_c, 0, 66, 0
2, 17055, Note_on_c, 0, 62, 76
2, 17065, Control_c, 0, 64, 127
2, 17067, Note_on_c, 0, 62, 0
2, 17071, Note_on_c, 0, 54, 0
2, 17080, Note_on_c, 0, 50, 0
2, 17082, Note_on_c, 0, 61, 85
2, 17082, Note_on_c, 0, 49, 88
2, 17090, Note_on_c, 0, 49, 0
2, 17092, Note_on_c, 0, 61, 0
2, 17120, Note_on_c, 0, 68, 100
2, 17121, Note_on_c, 0, 56, 109
2, 17122, Note_on_c, 0, 36, 117
2, 17122, Note_on_c, 0, 63, 90
2, 17122, Note_on_c, 0, 48, 118
2, 17124, Note_on_c, 0, 66, 100
2, 17134, Control_c, 0, 64, 0
2, 17154, Note_on_c, 0, 56, 0
2, 17161, Note_on_c, 0, 48, 0
2, 17165, Note_on_c, 0, 63, 0
2, 17169, Control_c, 0, 64, 127
2, 17172, Note_on_c, 0, 36, 0
2, 17172, Note_on_c, 0, 66, 0
2, 17180, Note_on_c, 0, 68, 0
2, 17188, Note_on_c, 0, 63, 75
2, 17208, Note_on_c, 0, 64, 91
2, 17210, Note_on_c, 0, 63, 0
2, 17228, Note_on_c, 0, 65, 91
2, 17230, Control_c, 0, 64, 0
2, 17238, Note_on_c, 0, 64, 0
2, 17248, Note_on_c, 0, 66, 87
2, 17253, Note_on_c, 0, 65, 0
2, 17256, Note_on_c, 0, 66, 0
2, 17269, Note_on_c, 0, 65, 96
2, 17279, Note_on_c, 0, 65, 0
2, 17286, Note_on_c, 0, 66, 63
2, 17304, Note_on_c, 0, 67, 91
2, 17317, Note_on_c, 0, 66, 0
2, 17328, Note_on_c, 0, 68, 89
2, 17332, Note_on_c, 0, 67, 0
2, 17338, Note_on_c, 0, 66, 71
2, 17340, Note_on_c, 0, 68, 0
2, 17362, Note_on_c, 0, 67, 86
2, 17374, Note_on_c, 0, 66, 0
2, 17379, Note_on_c, 0, 68, 84
2, 17394, Note_on_c, 0, 67, 0
2, 17397, Note_on_c, 0, 69, 91
2, 17401, Note_on_c, 0, 44, 92
2, 17408, Note_on_c, 0, 68, 0
2, 17416, Note_on_c, 0, 63, 79
2, 17418, Note_on_c, 0, 51, 91
2, 17427, Note_on_c, 0, 69, 0
2, 17431, Note_on_c, 0, 44, 0
2, 17433, Note_on_c, 0, 54, 90
2, 17437, Note_on_c, 0, 64, 98
2, 17449, Control_c, 0, 64, 127
2, 17450, Note_on_c, 0, 63, 0
2, 17455, Note_on_c, 0, 60, 105
2, 17457, Note_on_c, 0, 65, 90
2, 17464, Note_on_c, 0, 51, 0
2, 17469, Note_on_c, 0, 54, 0
2, 17473, Note_on_c, 0, 64, 0
2, 17475, Note_on_c, 0, 66, 80
2, 17477, Note_on_c, 0, 60, 0
2, 17488, Note_on_c, 0, 65, 0
2, 17494, Note_on_c, 0, 66, 0
2, 17500, Note_on_c, 0, 64, 75
2, 17511, Control_c, 0, 64, 0
2, 17517, Note_on_c, 0, 65, 78
2, 17524, Note_on_c, 0, 64, 0
2, 17536, Note_on_c, 0, 66, 79
2, 17548, Note_on_c, 0, 65, 0
2, 17563, Note_on_c, 0, 67, 87
2, 17575, Note_on_c, 0, 66, 0
2, 17581, Note_on_c, 0, 67, 0
2, 17583, Note_on_c, 0, 65, 69
2, 17606, Note_on_c, 0, 66, 71
2, 17610, Note_on_c, 0, 65, 0
2, 17629, Note_on_c, 0, 67, 83
2, 17638, Note_on_c, 0, 66, 0
2, 17654, Note_on_c, 0, 67, 0
2, 17656, Note_on_c, 0, 68, 73
2, 17668, Note_on_c, 0, 68, 0
2, 17668, Note_on_c, 0, 66, 57
2, 17695, Note_on_c, 0, 66, 0
2, 17696, Note_on_c, 0, 67, 67
2, 17709, Note_on_c, 0, 67, 0
2, 17713, Note_on_c, 0, 68, 81
2, 17737, Note_on_c, 0, 69, 83
2, 17740, Note_on_c, 0, 68, 0
2, 17754, Note_on_c, 0, 63, 88
2, 17756, Note_on_c, 0, 44, 90
2, 17758, Note_on_c, 0, 69, 0
2, 17764, Note_on_c, 0, 63, 0
2, 17765, Note_on_c, 0, 51, 88
2, 17776, Note_on_c, 0, 64, 84
2, 17781, Note_on_c, 0, 44, 0
2, 17782, Note_on_c, 0, 54, 87
2, 17797, Note_on_c, 0, 65, 88
2, 17803, Control_c, 0, 64, 127
2, 17803, Note_on_c, 0, 60, 107
2, 17808, Note_on_c, 0, 51, 0
2, 17812, Note_on_c, 0, 64, 0
2, 17818, Note_on_c, 0, 54, 0
2, 17818, Note_on_c, 0, 66, 86
2, 17830, Note_on_c, 0, 65, 0
2, 17831, Note_on_c, 0, 60, 0
2, 17838, Note_on_c, 0, 66, 0
2, 17843, Note_on_c, 0, 64, 80
2, 17860, Control_c, 0, 64, 0
2, 17865, Note_on_c, 0, 65, 87
2, 17867, Note_on_c, 0, 64, 0
2, 17884, Note_on_c, 0, 66, 76
2, 17893, Note_on_c, 0, 65, 0
2, 17909, Note_on_c, 0, 67, 88
2, 17921, Note_on_c, 0, 66, 0
2, 17923, Note_on_c, 0, 67, 0
2, 17931, Note_on_c, 0, 65, 84
2, 17946, Note_on_c, 0, 65, 0
2, 17949, Note_on_c, 0, 66, 72
2, 17971, Note_on_c, 0, 67, 89
2, 17977, Note_on_c, 0, 66, 0
2, 17995, Note_on_c, 0, 68, 90
2, 17999, Note_on_c, 0, 67, 0
2, 18009, Note_on_c, 0, 66, 76
2, 18010, Note_on_c, 0, 68, 0
2, 18036, Note_on_c, 0, 67, 78
2, 18037, Note_on_c, 0, 66, 0
2, 18049, Note_on_c, 0, 67, 0
2, 18057, Note_on_c, 0, 68, 77
2, 18076, Note_on_c, 0, 69, 80
2, 18083, Note_on_c, 0, 68, 0
2, 18088, Note_on_c, 0, 69, 0
2, 18097, Note_on_c, 0, 67, 54
2, 18110, Note_on_c, 0, 67, 0
2, 18117, Note_on_c, 0, 68, 68
2, 18138, Note_on_c, 0, 69, 81
2, 18142, Note_on_c, 0, 68, 0
2, 18154, Note_on_c, 0, 69, 0
2, 18163, Note_on_c, 0, 70, 79
2, 18172, Note_on_c, 0, 68, 58
2, 18175, Note_on_c, 0, 70, 0
2, 18192, Note_on_c, 0, 68, 0
2, 18198, Note_on_c, 0, 69, 67
2, 18212, Note_on_c, 0, 69, 0
2, 18220, Note_on_c, 0, 70, 76
2, 18241, Note_on_c, 0, 71, 68
2, 18248, Note_on_c, 0, 70, 0
2, 18252, Note_on_c, 0, 71, 0
2, 18262, Note_on_c, 0, 69, 62
2, 18274, Note_on_c, 0, 69, 0
2, 18286, Note_on_c, 0, 70, 77
2, 18304, Note_on_c, 0, 70, 0
2, 18306, Note_on_c, 0, 71, 70
2, 18328, Note_on_c, 0, 71, 0
2, 18331, Note_on_c, 0, 72, 52
2, 18345, Note_on_c, 0, 72, 0
2, 18348, Note_on_c, 0, 70, 77
2, 18375, Note_on_c, 0, 70, 0
2, 18379, Note_on_c, 0, 71, 30
2, 18391, Note_on_c, 0, 71, 0
2, 18394, Note_on_c, 0, 72, 76
2, 18396, Note_on_c, 0, 44, 87
2, 18416, Note_on_c, 0, 44, 0
2, 18416, Note_on_c, 0, 73, 78
2, 18420, Note_on_c, 0, 42, 80
2, 18423, Note_on_c, 0, 72, 0
2, 18426, Control_c, 0, 64, 127
2, 18429, Note_on_c, 0, 73, 0
2, 18440, Note_on_c, 0, 71, 62
2, 18440, Note_on_c, 0, 40, 78
2, 18457, Note_on_c, 0, 71, 0
2, 18459, Note_on_c, 0, 42, 0
2, 18460, Control_c, 0, 64, 0
2, 18463, Note_on_c, 0, 39, 81
2, 18464, Note_on_c, 0, 72, 60
2, 18465, Note_on_c, 0, 40, 0
2, 18471, Note_on_c, 0, 39, 0
2, 18483, Note_on_c, 0, 72, 0
2, 18483, Note_on_c, 0, 73, 72
2, 18489, Note_on_c, 0, 37, 103
2, 18495, Note_on_c, 0, 37, 0
2, 18508, Note_on_c, 0, 75, 75
2, 18516, Note_on_c, 0, 73, 0
2, 18526, Note_on_c, 0, 75, 0
2, 18534, Note_on_c, 0, 72, 80
2, 18547, Note_on_c, 0, 72, 0
2, 18556, Note_on_c, 0, 73, 66
2, 18581, Note_on_c, 0, 75, 76
2, 18586, Note_on_c, 0, 66, 71
2, 18587, Note_on_c, 0, 73, 0
2, 18588, Note_on_c, 0, 69, 72
2, 18597, Note_on_c, 0, 66, 0
2, 18598, Note_on_c, 0, 69, 0
2, 18613, Note_on_c, 0, 76, 63
2, 18618, Note_on_c, 0, 75, 0
2, 18624, Note_on_c, 0, 76, 0
2, 18628, Note_on_c, 0, 73, 73
2, 18643, Note_on_c, 0, 73, 0
2, 18656, Note_on_c, 0, 75, 60
2, 18676, Note_on_c, 0, 68, 65
2, 18677, Note_on_c, 0, 75, 0
2, 18679, Note_on_c, 0, 64, 51
2, 18679, Note_on_c, 0, 76, 72
2, 18687, Note_on_c, 0, 68, 0
2, 18690, Note_on_c, 0, 64, 0
2, 18695, Note_on_c, 0, 76, 0
2, 18702, Note_on_c, 0, 78, 75
2, 18713, Note_on_c, 0, 78, 0
2, 18720, Note_on_c, 0, 75, 61
2, 18744, Note_on_c, 0, 75, 0
2, 18749, Note_on_c, 0, 76, 50
2, 18767, Note_on_c, 0, 76, 0
2, 18768, Note_on_c, 0, 78, 75
2, 18769, Note_on_c, 0, 66, 75
2, 18774, Note_on_c, 0, 63, 64
2, 18779, Note_on_c, 0, 66, 0
2, 18784, Note_on_c, 0, 63, 0
2, 18795, Note_on_c, 0, 80, 72
2, 18798, Note_on_c, 0, 78, 0
2, 18806, Note_on_c, 0, 80, 0
2, 18818, Note_on_c, 0, 76, 67
2, 18833, Note_on_c, 0, 76, 0
2, 18838, Note_on_c, 0, 78, 69
2, 18861, Note_on_c, 0, 64, 71
2, 18862, Note_on_c, 0, 61, 65
2, 18865, Note_on_c, 0, 80, 65
2, 18866, Note_on_c, 0, 78, 0
2, 18871, Note_on_c, 0, 64, 0
2, 18873, Note_on_c, 0, 61, 0
2, 18889, Note_on_c, 0, 81, 48
2, 18892, Note_on_c, 0, 80, 0
2, 18903, Note_on_c, 0, 81, 0
2, 18908, Note_on_c, 0, 80, 84
2, 18920, Note_on_c, 0, 80, 0
2, 18931, Note_on_c, 0, 85, 66
2, 18944, Note_on_c, 0, 85, 0
2, 18956, Note_on_c, 0, 66, 75
2, 18958, Note_on_c, 0, 78, 71
2, 18959, Note_on_c, 0, 57, 59
2, 18963, Note_on_c, 0, 61, 54
2, 18969, Note_on_c, 0, 66, 0
2, 18970, Note_on_c, 0, 78, 0
2, 18970, Note_on_c, 0, 57, 0
2, 18974, Note_on_c, 0, 61, 0
2, 18984, Note_on_c, 0, 80, 72
2, 18997, Note_on_c, 0, 80, 0
2, 19006, Note_on_c, 0, 78, 75
2, 19019, Note_on_c, 0, 78, 0
2, 19031, Note_on_c, 0, 85, 59
2, 19043, Note_on_c, 0, 85, 0
2, 19051, Note_on_c, 0, 64, 83
2, 19053, Note_on_c, 0, 76, 69
2, 19056, Note_on_c, 0, 61, 45
2, 19056, Note_on_c, 0, 56, 47
2, 19059, Note_on_c, 0, 64, 0
2, 19063, Note_on_c, 0, 76, 0
2, 19069, Note_on_c, 0, 61, 0
2, 19069, Note_on_c, 0, 56, 0
2, 19071, Note_on_c, 0, 78, 63
2, 19090, Note_on_c, 0, 76, 49
2, 19092, Note_on_c, 0, 78, 0
2, 19106, Note_on_c, 0, 76, 0
2, 19121, Note_on_c, 0, 85, 64
2, 19133, Note_on_c, 0, 85, 0
2, 19140, Note_on_c, 0, 63, 84
2, 19143, Note_on_c, 0, 54, 75
2, 19143, Note_on_c, 0, 75, 61
2, 19149, Note_on_c, 0, 63, 0
2, 19153, Note_on_c, 0, 54, 0
2, 19155, Note_on_c, 0, 75, 0
2, 19163, Note_on_c, 0, 76, 69
2, 19185, Note_on_c, 0, 76, 0
2, 19189, Note_on_c, 0, 75, 56
2, 19202, Note_on_c, 0, 75, 0
2, 19209, Note_on_c, 0, 49, 76
2, 19209, Note_on_c, 0, 85, 63
2, 19220, Note_on_c, 0, 49, 0
2, 19222, Note_on_c, 0, 85, 0
2, 19223, Note_on_c, 0, 56, 69
2, 19234, Note_on_c, 0, 73, 90
2, 19235, Note_on_c, 0, 64, 94
2, 19244, Note_on_c, 0, 64, 0
2, 19249, Note_on_c, 0, 73, 0
2, 19250, Note_on_c, 0, 56, 0
2, 19257, Note_on_c, 0, 80, 88
2, 19283, Note_on_c, 0, 80, 0
2, 19283, Note_on_c, 0, 88, 82
2, 19293, Note_on_c, 0, 44, 77
2, 19298, Note_on_c, 0, 88, 0
2, 19304, Note_on_c, 0, 81, 87
2, 19306, Note_on_c, 0, 44, 0
2, 19322, Note_on_c, 0, 54, 42
2, 19322, Note_on_c, 0, 72, 100
2, 19323, Note_on_c, 0, 60, 99
2, 19325, Note_on_c, 0, 81, 0
2, 19341, Note_on_c, 0, 78, 81
2, 19342, Note_on_c, 0, 72, 0
2, 19344, Note_on_c, 0, 54, 0
2, 19348, Note_on_c, 0, 60, 0
2, 19356, Note_on_c, 0, 78, 0
2, 19365, Note_on_c, 0, 87, 89
2, 19375, Note_on_c, 0, 87, 0
2, 19383, Note_on_c, 0, 80, 90
2, 19406, Note_on_c, 0, 61, 100
2, 19408, Note_on_c, 0, 49, 79
2, 19410, Note_on_c, 0, 52, 83
2, 19410, Note_on_c, 0, 68, 97
2, 19413, Note_on_c, 0, 80, 0
2, 19420, Note_on_c, 0, 52, 0
2, 19420, Note_on_c, 0, 76, 81
2, 19421, Note_on_c, 0, 61, 0
2, 19422, Note_on_c, 0, 49, 0
2, 19424, Note_on_c, 0, 68, 0
2, 19440, Note_on_c, 0, 76, 0
2, 19450, Note_on_c, 0, 85, 100
2, 19472, Note_on_c, 0, 78, 87
2, 19476, Note_on_c, 0, 85, 0
2, 19495, Note_on_c, 0, 56, 112
2, 19497, Note_on_c, 0, 44, 102
2, 19498, Note_on_c, 0, 68, 101
2, 19506, Note_on_c, 0, 75, 82
2, 19518, Note_on_c, 0, 68, 0
2, 19518, Note_on_c, 0, 78, 0
2, 19527, Note_on_c, 0, 75, 0
2, 19532, Control_c, 0, 64, 127
2, 19537, Note_on_c, 0, 56, 0
2, 19539, Note_on_c, 0, 84, 99
2, 19556, Note_on_c, 0, 75, 81
2, 19557, Note_on_c, 0, 44, 0
2, 19558, Note_on_c, 0, 84, 0
2, 19565, Note_on_c, 0, 75, 0
2, 19590, Note_on_c, 0, 37, 111
2, 19590, Note_on_c, 0, 49, 117
2, 19591, Note_on_c, 0, 85, 115
2, 19591, Note_on_c, 0, 73, 111
2, 19603, Note_on_c, 0, 37, 0
2, 19610, Note_on_c, 0, 85, 0
2, 19612, Control_c, 0, 64, 0
2, 19613, Note_on_c, 0, 49, 0
2, 19616, Note_on_c, 0, 73, 0
2, 19637, Note_on_c, 0, 69, 100
2, 19642, Note_on_c, 0, 57, 107
2, 19642, Note_on_c, 0, 45, 108
2, 19648, Note_on_c, 0, 45, 0
2, 19650, Note_on_c, 0, 57, 0
2, 19656, Note_on_c, 0, 69, 0
2, 19656, Note_on_c, 0, 81, 100
2, 19677, Note_on_c, 0, 81, 0
2, 19678, Note_on_c, 0, 68, 106
2, 19681, Note_on_c, 0, 56, 96
2, 19684, Note_on_c, 0, 44, 90
2, 19693, Note_on_c, 0, 44, 0
2, 19694, Note_on_c, 0, 56, 0
2, 19700, Note_on_c, 0, 68, 0
2, 19702, Note_on_c, 0, 80, 95
2, 19723, Note_on_c, 0, 80, 0
2, 19725, Note_on_c, 0, 67, 95
2, 19725, Note_on_c, 0, 55, 101
2, 19728, Note_on_c, 0, 43, 84
2, 19732, Note_on_c, 0, 55, 0
2, 19736, Note_on_c, 0, 43, 0
2, 19743, Note_on_c, 0, 67, 0
2, 19744, Note_on_c, 0, 79, 84
2, 19753, Note_on_c, 0, 79, 0
2, 19765, Note_on_c, 0, 68, 90
2, 19767, Note_on_c, 0, 56, 95
2, 19770, Note_on_c, 0, 44, 91
2, 19775, Note_on_c, 0, 56, 0
2, 19777, Note_on_c, 0, 44, 0
2, 19781, Note_on_c, 0, 80, 98
2, 19789, Note_on_c, 0, 80, 0
2, 19795, Note_on_c, 0, 68, 0
2, 19814, Note_on_c, 0, 37, 88
2, 19815, Note_on_c, 0, 49, 87
2, 19816, Note_on_c, 0, 61, 97
2, 19821, Note_on_c, 0, 37, 0
2, 19824, Note_on_c, 0, 49, 0
2, 19826, Note_on_c, 0, 73, 92
2, 19840, Note_on_c, 0, 61, 0
2, 19841, Note_on_c, 0, 73, 0
2, 19860, Note_on_c, 0, 63, 111
2, 19861, Note_on_c, 0, 75, 107
2, 19863, Note_on_c, 0, 61, 101
2, 19863, Note_on_c, 0, 51, 101
2, 19863, Note_on_c, 0, 70, 103
2, 19863, Note_on_c, 0, 67, 96
2, 19864, Note_on_c, 0, 39, 93
2, 19870, Control_c, 0, 64, 127
2, 19873, Note_on_c, 0, 39, 0
2, 19879, Note_on_c, 0, 51, 0
2, 19887, Note_on_c, 0, 75, 0
2, 19887, Note_on_c, 0, 63, 0
2, 19890, Note_on_c, 0, 67, 0
2, 19893, Note_on_c, 0, 49, 87
2, 19900, Note_on_c, 0, 70, 0
2, 19903, Note_on_c, 0, 61, 0
2, 19904, Note_on_c, 0, 49, 0
2, 19921, Note_on_c, 0, 47, 66
2, 19938, Note_on_c, 0, 46, 103
2, 19943, Note_on_c, 0, 47, 0
2, 19960, Note_on_c, 0, 59, 90
2, 19960, Note_on_c, 0, 71, 86
2, 19962, Note_on_c, 0, 63, 79
2, 19965, Note_on_c, 0, 68, 71
2, 19966, Note_on_c, 0, 46, 0
2, 19966, Note_on_c, 0, 44, 88
2, 19966, Control_c, 0, 64, 0
2, 19970, Note_on_c, 0, 71, 0
2, 19975, Note_on_c, 0, 68, 0
2, 19976, Note_on_c, 0, 63, 0
2, 19982, Note_on_c, 0, 59, 0
2, 19986, Note_on_c, 0, 46, 85
2, 19999, Note_on_c, 0, 44, 0
2, 20008, Note_on_c, 0, 43, 86
2, 20013, Note_on_c, 0, 46, 0
2, 20035, Note_on_c, 0, 44, 88
2, 20042, Note_on_c, 0, 43, 0
2, 20055, Note_on_c, 0, 46, 94
2, 20055, Note_on_c, 0, 61, 75
2, 20059, Note_on_c, 0, 67, 74
2, 20059, Note_on_c, 0, 63, 64
2, 20063, Note_on_c, 0, 44, 0
2, 20068, Note_on_c, 0, 61, 0
2, 20071, Note_on_c, 0, 63, 0
2, 20071, Note_on_c, 0, 67, 0
2, 20080, Note_on_c, 0, 47, 79
2, 20083, Note_on_c, 0, 46, 0
2, 20093, Note_on_c, 0, 47, 0
2, 20101, Note_on_c, 0, 44, 88
2, 20122, Note_on_c, 0, 46, 88
2, 20137, Note_on_c, 0, 44, 0
2, 20146, Note_on_c, 0, 47, 79
2, 20150, Note_on_c, 0, 46, 0
2, 20151, Note_on_c, 0, 63, 67
2, 20152, Note_on_c, 0, 68, 71
2, 20154, Note_on_c, 0, 59, 63
2, 20158, Note_on_c, 0, 47, 0
2, 20164, Note_on_c, 0, 59, 0
2, 20164, Note_on_c, 0, 68, 0
2, 20166, Note_on_c, 0, 63, 0
2, 20174, Note_on_c, 0, 49, 74
2, 20187, Note_on_c, 0, 49, 0
2, 20191, Note_on_c, 0, 46, 95
2, 20219, Note_on_c, 0, 47, 75
2, 20228, Note_on_c, 0, 46, 0
2, 20241, Note_on_c, 0, 49, 81
2, 20241, Note_on_c, 0, 61, 80
2, 20244, Note_on_c, 0, 68, 70
2, 20246, Note_on_c, 0, 64, 71
2, 20247, Note_on_c, 0, 47, 0
2, 20253, Note_on_c, 0, 61, 0
2, 20255, Note_on_c, 0, 49, 0
2, 20257, Note_on_c, 0, 64, 0
2, 20257, Note_on_c, 0, 68, 0
2, 20263, Note_on_c, 0, 51, 77
2, 20276, Note_on_c, 0, 51, 0
2, 20287, Note_on_c, 0, 47, 81
2, 20313, Note_on_c, 0, 49, 72
2, 20317, Note_on_c, 0, 47, 0
2, 20332, Note_on_c, 0, 51, 83
2, 20334, Note_on_c, 0, 68, 77
2, 20335, Note_on_c, 0, 63, 74
2, 20336, Note_on_c, 0, 59, 65
2, 20343, Note_on_c, 0, 49, 0
2, 20346, Note_on_c, 0, 59, 0
2, 20346, Note_on_c, 0, 68, 0
2, 20349, Note_on_c, 0, 63, 0
2, 20356, Note_on_c, 0, 51, 0
2, 20358, Note_on_c, 0, 52, 76
2, 20367, Note_on_c, 0, 52, 0
2, 20379, Note_on_c, 0, 51, 73
2, 20396, Note_on_c, 0, 51, 0
2, 20407, Note_on_c, 0, 56, 77
2, 20420, Note_on_c, 0, 56, 0
2, 20428, Note_on_c, 0, 61, 62
2, 20429, Note_on_c, 0, 68, 67
2, 20431, Note_on_c, 0, 49, 75
2, 20431, Note_on_c, 0, 64, 61
2, 20441, Note_on_c, 0, 64, 0
2, 20442, Note_on_c, 0, 61, 0
2, 20442, Note_on_c, 0, 68, 0
2, 20448, Note_on_c, 0, 49, 0
2, 20449, Note_on_c, 0, 51, 79
2, 20477, Note_on_c, 0, 51, 0
2, 20479, Note_on_c, 0, 49, 62
2, 20494, Note_on_c, 0, 49, 0
2, 20502, Note_on_c, 0, 56, 71
2, 20515, Note_on_c, 0, 56, 0
2, 20522, Note_on_c, 0, 47, 63
2, 20523, Note_on_c, 0, 63, 71
2, 20523, Note_on_c, 0, 68, 72
2, 20532, Note_on_c, 0, 47, 0
2, 20535, Note_on_c, 0, 49, 68
2, 20536, Note_on_c, 0, 68, 0
2, 20536, Note_on_c, 0, 63, 0
2, 20573, Note_on_c, 0, 47, 58
2, 20574, Note_on_c, 0, 49, 0
2, 20587, Note_on_c, 0, 47, 0
2, 20595, Note_on_c, 0, 56, 77
2, 20608, Note_on_c, 0, 56, 0
2, 20616, Note_on_c, 0, 61, 65
2, 20617, Note_on_c, 0, 70, 70
2, 20617, Note_on_c, 0, 63, 69
2, 20619, Note_on_c, 0, 46, 92
2, 20631, Note_on_c, 0, 61, 0
2, 20632, Note_on_c, 0, 70, 0
2, 20634, Note_on_c, 0, 46, 0
2, 20638, Note_on_c, 0, 63, 0
2, 20638, Note_on_c, 0, 47, 43
2, 20661, Note_on_c, 0, 46, 85
2, 20665, Note_on_c, 0, 47, 0
2, 20684, Note_on_c, 0, 55, 72
2, 20689, Note_on_c, 0, 46, 0
2, 20699, Note_on_c, 0, 55, 0
2, 20706, Note_on_c, 0, 44, 77
2, 20710, Note_on_c, 0, 71, 75
2, 20712, Note_on_c, 0, 59, 58
2, 20712, Note_on_c, 0, 63, 65
2, 20714, Note_on_c, 0, 68, 68
2, 20721, Note_on_c, 0, 71, 0
2, 20722, Note_on_c, 0, 59, 0
2, 20723, Note_on_c, 0, 63, 0
2, 20724, Note_on_c, 0, 68, 0
2, 20731, Note_on_c, 0, 52, 67
2, 20733, Note_on_c, 0, 44, 0
2, 20750, Note_on_c, 0, 52, 0
2, 20754, Note_on_c, 0, 59, 46
2, 20767, Note_on_c, 0, 59, 0
2, 20778, Note_on_c, 0, 51, 54
2, 20796, Note_on_c, 0, 51, 0
2, 20803, Note_on_c, 0, 75, 83
2, 20805, Note_on_c, 0, 43, 69
2, 20805, Note_on_c, 0, 87, 86
2, 20806, Note_on_c, 0, 82, 79
2, 20819, Control_c, 0, 64, 127
2, 20821, Note_on_c, 0, 43, 0
2, 20822, Note_on_c, 0, 82, 0
2, 20833, Note_on_c, 0, 52, 62
2, 20847, Note_on_c, 0, 52, 0
2, 20857, Note_on_c, 0, 75, 0
2, 20863, Note_on_c, 0, 58, 59
2, 20877, Note_on_c, 0, 51, 65
2, 20878, Note_on_c, 0, 58, 0
2, 20890, Note_on_c, 0, 51, 0
2, 20902, Note_on_c, 0, 44, 62
2, 20904, Control_c, 0, 64, 0
2, 20905, Note_on_c, 0, 87, 0
2, 20905, Note_on_c, 0, 80, 54
2, 20905, Note_on_c, 0, 83, 75
2, 20914, Note_on_c, 0, 83, 0
2, 20916, Note_on_c, 0, 44, 0
2, 20917, Note_on_c, 0, 80, 0
2, 20926, Note_on_c, 0, 52, 69
2, 20945, Note_on_c, 0, 52, 0
2, 20946, Note_on_c, 0, 59, 62
2, 20956, Note_on_c, 0, 59, 0
2, 20969, Note_on_c, 0, 51, 62
2, 20984, Note_on_c, 0, 51, 0
2, 20992, Note_on_c, 0, 43, 71
2, 21001, Note_on_c, 0, 75, 76
2, 21003, Note_on_c, 0, 63, 53
2, 21008, Note_on_c, 0, 70, 35
2, 21016, Note_on_c, 0, 43, 0
2, 21018, Note_on_c, 0, 52, 70
2, 21022, Control_c, 0, 64, 127
2, 21032, Note_on_c, 0, 70, 0
2, 21034, Note_on_c, 0, 52, 0
2, 21040, Note_on_c, 0, 63, 0
2, 21046, Note_on_c, 0, 58, 83
2, 21061, Note_on_c, 0, 58, 0
2, 21064, Note_on_c, 0, 51, 55
2, 21078, Note_on_c, 0, 51, 0
2, 21082, Note_on_c, 0, 75, 0
2, 21087, Control_c, 0, 64, 0
2, 21087, Note_on_c, 0, 44, 89
2, 21088, Note_on_c, 0, 71, 74
2, 21089, Note_on_c, 0, 56, 86
2, 21090, Note_on_c, 0, 68, 59
2, 21095, Note_on_c, 0, 44, 0
2, 21096, Note_on_c, 0, 71, 0
2, 21099, Note_on_c, 0, 56, 0
2, 21102, Note_on_c, 0, 68, 0
2, 21136, Note_on_c, 0, 64, 88
2, 21138, Note_on_c, 0, 61, 91
2, 21157, Note_on_c, 0, 67, 73
2, 21161, Note_on_c, 0, 64, 0
2, 21173, Note_on_c, 0, 61, 0
2, 21180, Control_c, 0, 64, 127
2, 21183, Note_on_c, 0, 59, 76
2, 21187, Note_on_c, 0, 63, 84
2, 21193, Note_on_c, 0, 67, 0
2, 21205, Note_on_c, 0, 59, 0
2, 21212, Note_on_c, 0, 68, 82
2, 21216, Note_on_c, 0, 63, 0
2, 21219, Control_c, 0, 64, 0
2, 21222, Note_on_c, 0, 68, 0
2, 21235, Note_on_c, 0, 64, 108
2, 21237, Note_on_c, 0, 67, 89
2, 21255, Note_on_c, 0, 67, 0
2, 21256, Note_on_c, 0, 70, 91
2, 21274, Note_on_c, 0, 64, 0
2, 21279, Note_on_c, 0, 63, 88
2, 21280, Note_on_c, 0, 66, 90
2, 21288, Note_on_c, 0, 70, 0
2, 21288, Control_c, 0, 64, 127
2, 21297, Note_on_c, 0, 63, 0
2, 21301, Note_on_c, 0, 71, 68
2, 21303, Control_c, 0, 64, 0
2, 21309, Note_on_c, 0, 66, 0
2, 21311, Note_on_c, 0, 71, 0
2, 21325, Note_on_c, 0, 66, 92
2, 21326, Note_on_c, 0, 69, 100
2, 21349, Note_on_c, 0, 72, 82
2, 21350, Note_on_c, 0, 69, 0
2, 21361, Note_on_c, 0, 66, 0
2, 21369, Control_c, 0, 64, 127
2, 21370, Note_on_c, 0, 68, 90
2, 21374, Note_on_c, 0, 64, 95
2, 21379, Note_on_c, 0, 72, 0
2, 21382, Note_on_c, 0, 64, 0
2, 21388, Control_c, 0, 64, 0
2, 21393, Note_on_c, 0, 73, 84
2, 21398, Note_on_c, 0, 68, 0
2, 21402, Note_on_c, 0, 73, 0
2, 21418, Note_on_c, 0, 66, 84
2, 21420, Note_on_c, 0, 72, 87
2, 21421, Note_on_c, 0, 56, 82
2, 21425, Note_on_c, 0, 63, 64
2, 21428, Note_on_c, 0, 66, 0
2, 21430, Note_on_c, 0, 72, 0
2, 21433, Note_on_c, 0, 56, 0
2, 21438, Note_on_c, 0, 63, 0
2, 21440, Note_on_c, 0, 75, 75
2, 21453, Note_on_c, 0, 75, 0
2, 21461, Note_on_c, 0, 73, 86
2, 21468, Note_on_c, 0, 64, 96
2, 21469, Note_on_c, 0, 61, 78
2, 21475, Note_on_c, 0, 64, 0
2, 21478, Note_on_c, 0, 61, 0
2, 21489, Note_on_c, 0, 73, 0
2, 21490, Note_on_c, 0, 75, 76
2, 21504, Note_on_c, 0, 75, 0
2, 21516, Note_on_c, 0, 72, 72
2, 21530, Note_on_c, 0, 72, 0
2, 21541, Note_on_c, 0, 73, 54
2, 21563, Note_on_c, 0, 73, 0
2, 21563, Note_on_c, 0, 75, 75
2, 21564, Note_on_c, 0, 69, 83
2, 21567, Note_on_c, 0, 66, 68
2, 21573, Note_on_c, 0, 69, 0
2, 21579, Note_on_c, 0, 66, 0
2, 21588, Note_on_c, 0, 76, 82
2, 21594, Note_on_c, 0, 75, 0
2, 21598, Note_on_c, 0, 76, 0
2, 21612, Note_on_c, 0, 73, 71
2, 21625, Note_on_c, 0, 73, 0
2, 21630, Note_on_c, 0, 75, 79
2, 21655, Note_on_c, 0, 64, 62
2, 21655, Note_on_c, 0, 68, 60
2, 21661, Note_on_c, 0, 76, 87
2, 21666, Note_on_c, 0, 64, 0
2, 21667, Note_on_c, 0, 75, 0
2, 21672, Note_on_c, 0, 68, 0
2, 21683, Note_on_c, 0, 76, 0
2, 21686, Note_on_c, 0, 78, 75
2, 21701, Note_on_c, 0, 78, 0
2, 21708, Note_on_c, 0, 75, 59
2, 21726, Note_on_c, 0, 76, 85
2, 21732, Note_on_c, 0, 75, 0
2, 21742, Note_on_c, 0, 78, 68
2, 21750, Note_on_c, 0, 76, 0
2, 21753, Note_on_c, 0, 66, 79
2, 21756, Note_on_c, 0, 63, 62
2, 21763, Note_on_c, 0, 66, 0
2, 21767, Note_on_c, 0, 63, 0
2, 21769, Note_on_c, 0, 80, 72
2, 21773, Note_on_c, 0, 78, 0
2, 21780, Note_on_c, 0, 80, 0
2, 21793, Note_on_c, 0, 76, 67
2, 21808, Note_on_c, 0, 76, 0
2, 21811, Note_on_c, 0, 78, 76
2, 21829, Note_on_c, 0, 78, 0
2, 21838, Note_on_c, 0, 80, 75
2, 21846, Note_on_c, 0, 64, 76
2, 21846, Note_on_c, 0, 61, 67
2, 21857, Note_on_c, 0, 61, 0
2, 21857, Note_on_c, 0, 64, 0
2, 21862, Note_on_c, 0, 81, 76
2, 21868, Note_on_c, 0, 80, 0
2, 21871, Note_on_c, 0, 81, 0
2, 21885, Note_on_c, 0, 80, 82
2, 21898, Note_on_c, 0, 80, 0
2, 21907, Note_on_c, 0, 85, 71
2, 21921, Note_on_c, 0, 85, 0
2, 21933, Note_on_c, 0, 66, 79
2, 21935, Note_on_c, 0, 78, 75
2, 21939, Note_on_c, 0, 57, 52
2, 21944, Note_on_c, 0, 61, 47
2, 21945, Note_on_c, 0, 78, 0
2, 21946, Note_on_c, 0, 66, 0
2, 21951, Note_on_c, 0, 57, 0
2, 21956, Note_on_c, 0, 61, 0
2, 21957, Note_on_c, 0, 80, 81
2, 21970, Note_on_c, 0, 80, 0
2, 21983, Note_on_c, 0, 78, 79
2, 21995, Note_on_c, 0, 78, 0
2, 22007, Note_on_c, 0, 85, 70
2, 22018, Note_on_c, 0, 85, 0
2, 22027, Note_on_c, 0, 64, 78
2, 22027, Note_on_c, 0, 56, 69
2, 22031, Note_on_c, 0, 76, 72
2, 22032, Note_on_c, 0, 61, 38
2, 22037, Note_on_c, 0, 64, 0
2, 22039, Note_on_c, 0, 56, 0
2, 22040, Note_on_c, 0, 76, 0
2, 22047, Note_on_c, 0, 61, 0
2, 22051, Note_on_c, 0, 78, 65
2, 22067, Note_on_c, 0, 78, 0
2, 22067, Note_on_c, 0, 76, 64
2, 22086, Note_on_c, 0, 76, 0
2, 22096, Note_on_c, 0, 85, 73
2, 22107, Note_on_c, 0, 85, 0
2, 22113, Note_on_c, 0, 75, 81
2, 22114, Note_on_c, 0, 63, 78
2, 22117, Note_on_c, 0, 61, 60
2, 22120, Note_on_c, 0, 54, 53
2, 22125, Note_on_c, 0, 63, 0
2, 22126, Note_on_c, 0, 75, 0
2, 22128, Note_on_c, 0, 61, 0
2, 22132, Note_on_c, 0, 54, 0
2, 22137, Note_on_c, 0, 76, 70
2, 22162, Note_on_c, 0, 75, 59
2, 22164, Note_on_c, 0, 76, 0
2, 22174, Note_on_c, 0, 75, 0
2, 22179, Note_on_c, 0, 49, 64
2, 22179, Note_on_c, 0, 85, 66
2, 22191, Note_on_c, 0, 85, 0
2, 22191, Note_on_c, 0, 49, 0
2, 22192, Note_on_c, 0, 56, 70
2, 22204, Note_on_c, 0, 73, 92
2, 22212, Note_on_c, 0, 64, 78
2, 22219, Note_on_c, 0, 73, 0
2, 22222, Note_on_c, 0, 64, 0
2, 22230, Note_on_c, 0, 80, 78
2, 22238, Note_on_c, 0, 56, 0
2, 22252, Note_on_c, 0, 88, 79
2, 22259, Note_on_c, 0, 80, 0
2, 22260, Note_on_c, 0, 44, 83
2, 22262, Note_on_c, 0, 88, 0
2, 22269, Note_on_c, 0, 44, 0
2, 22270, Note_on_c, 0, 81, 83
2, 22279, Note_on_c, 0, 54, 76
2, 22288, Note_on_c, 0, 72, 100
2, 22289, Note_on_c, 0, 81, 0
2, 22292, Note_on_c, 0, 60, 97
2, 22304, Note_on_c, 0, 72, 0
2, 22306, Note_on_c, 0, 78, 80
2, 22314, Note_on_c, 0, 54, 0
2, 22317, Note_on_c, 0, 60, 0
2, 22328, Note_on_c, 0, 78, 0
2, 22329, Note_on_c, 0, 87, 97
2, 22345, Note_on_c, 0, 87, 0
2, 22347, Note_on_c, 0, 45, 103
2, 22349, Note_on_c, 0, 80, 93
2, 22355, Note_on_c, 0, 52, 65
2, 22363, Note_on_c, 0, 45, 0
2, 22375, Note_on_c, 0, 69, 100
2, 22375, Note_on_c, 0, 61, 116
2, 22376, Note_on_c, 0, 80, 0
2, 22379, Note_on_c, 0, 52, 0
2, 22384, Note_on_c, 0, 69, 0
2, 22385, Note_on_c, 0, 75, 81
2, 22396, Note_on_c, 0, 61, 0
2, 22409, Note_on_c, 0, 75, 0
2, 22411, Note_on_c, 0, 85, 103
2, 22433, Note_on_c, 0, 85, 0
2, 22433, Note_on_c, 0, 76, 92
2, 22445, Note_on_c, 0, 76, 0
2, 22457, Note_on_c, 0, 65, 119
2, 22458, Note_on_c, 0, 59, 86
2, 22458, Note_on_c, 0, 62, 101
2, 22459, Note_on_c, 0, 53, 100
2, 22463, Note_on_c, 0, 68, 100
2, 22479, Control_c, 0, 64, 127
2, 22486, Note_on_c, 0, 73, 91
2, 22490, Note_on_c, 0, 68, 0
2, 22503, Note_on_c, 0, 73, 0
2, 22512, Note_on_c, 0, 83, 93
2, 22513, Note_on_c, 0, 53, 0
2, 22525, Note_on_c, 0, 62, 0
2, 22525, Note_on_c, 0, 65, 0
2, 22535, Note_on_c, 0, 74, 96
2, 22537, Note_on_c, 0, 59, 0
2, 22540, Note_on_c, 0, 83, 0
2, 22555, Control_c, 0, 64, 0
2, 22559, Note_on_c, 0, 66, 114
2, 22560, Note_on_c, 0, 69, 105
2, 22561, Note_on_c, 0, 57, 97
2, 22563, Note_on_c, 0, 61, 92
2, 22568, Note_on_c, 0, 74, 0
2, 22570, Note_on_c, 0, 54, 67
2, 22588, Note_on_c, 0, 57, 0
2, 22590, Note_on_c, 0, 61, 0
2, 22590, Note_on_c, 0, 73, 97
2, 22591, Note_on_c, 0, 66, 0
2, 22596, Note_on_c, 0, 54, 0
2, 22596, Note_on_c, 0, 69, 0
2, 22602, Control_c, 0, 64, 127
2, 22606, Note_on_c, 0, 81, 75
2, 22617, Note_on_c, 0, 62, 108
2, 22618, Note_on_c, 0, 50, 110
2, 22624, Note_on_c, 0, 73, 0
2, 22627, Note_on_c, 0, 50, 0
2, 22630, Note_on_c, 0, 78, 88
2, 22638, Note_on_c, 0, 62, 0
2, 22640, Note_on_c, 0, 78, 0
2, 22640, Note_on_c, 0, 81, 0
2, 22661, Note_on_c, 0, 81, 95
2, 22663, Note_on_c, 0, 61, 109
2, 22665, Note_on_c, 0, 49, 105
2, 22676, Note_on_c, 0, 49, 0
2, 22678, Note_on_c, 0, 61, 0
2, 22688, Note_on_c, 0, 85, 95
2, 22695, Note_on_c, 0, 81, 0
2, 22707, Note_on_c, 0, 93, 100
2, 22708, Note_on_c, 0, 45, 112
2, 22709, Note_on_c, 0, 57, 105
2, 22715, Note_on_c, 0, 85, 0
2, 22718, Note_on_c, 0, 45, 0
2, 22719, Note_on_c, 0, 57, 0
2, 22729, Note_on_c, 0, 90, 90
2, 22750, Note_on_c, 0, 85, 94
2, 22752, Note_on_c, 0, 93, 0
2, 22752, Note_on_c, 0, 54, 98
2, 22753, Note_on_c, 0, 42, 92
2, 22759, Note_on_c, 0, 54, 0
2, 22760, Note_on_c, 0, 42, 0
2, 22763, Note_on_c, 0, 90, 0
2, 22765, Note_on_c, 0, 81, 103
2, 22774, Note_on_c, 0, 85, 0
2, 22775, Note_on_c, 0, 81, 0
2, 22792, Note_on_c, 0, 49, 100
2, 22794, Note_on_c, 0, 37, 103
2, 22794, Note_on_c, 0, 78, 92
2, 22805, Note_on_c, 0, 37, 0
2, 22813, Note_on_c, 0, 73, 90
2, 22815, Note_on_c, 0, 49, 0
2, 22830, Note_on_c, 0, 78, 0
2, 22839, Note_on_c, 0, 69, 92
2, 22843, Note_on_c, 0, 73, 0
2, 22845, Note_on_c, 0, 38, 114
2, 22845, Note_on_c, 0, 50, 111
2, 22849, Note_on_c, 0, 69, 0
2, 22869, Note_on_c, 0, 66, 86
2, 22893, Control_c, 0, 64, 0
2, 22896, Note_on_c, 0, 62, 85
2, 22903, Note_on_c, 0, 66, 0
2, 22918, Note_on_c, 0, 57, 87
2, 22937, Note_on_c, 0, 62, 0
2, 22940, Note_on_c, 0, 57, 0
2, 22945, Note_on_c, 0, 50, 0
2, 22948, Control_c, 0, 64, 127
2, 22960, Note_on_c, 0, 68, 102
2, 22963, Note_on_c, 0, 62, 54
2, 22964, Note_on_c, 0, 41, 73
2, 22966, Note_on_c, 0, 59, 70
2, 22971, Note_on_c, 0, 38, 0
2, 22994, Note_on_c, 0, 42, 68
2, 22999, Note_on_c, 0, 41, 0
2, 23005, Control_c, 0, 64, 0
2, 23012, Note_on_c, 0, 40, 84
2, 23024, Note_on_c, 0, 42, 0
2, 23045, Note_on_c, 0, 41, 67
2, 23054, Note_on_c, 0, 40, 0
2, 23055, Control_c, 0, 64, 127
2, 23065, Note_on_c, 0, 66, 84
2, 23065, Note_on_c, 0, 42, 68
2, 23072, Note_on_c, 0, 41, 0
2, 23082, Note_on_c, 0, 42, 0
2, 23089, Note_on_c, 0, 44, 63
2, 23104, Note_on_c, 0, 68, 0
2, 23106, Note_on_c, 0, 44, 0
2, 23109, Control_c, 0, 64, 0
2, 23115, Note_on_c, 0, 41, 61
2, 23135, Note_on_c, 0, 42, 55
2, 23148, Note_on_c, 0, 41, 0
2, 23158, Note_on_c, 0, 44, 73
2, 23163, Note_on_c, 0, 65, 78
2, 23168, Note_on_c, 0, 42, 0
2, 23175, Note_on_c, 0, 66, 0
2, 23187, Note_on_c, 0, 44, 0
2, 23190, Note_on_c, 0, 45, 63
2, 23201, Note_on_c, 0, 62, 0
2, 23203, Note_on_c, 0, 45, 0
2, 23203, Note_on_c, 0, 42, 52
2, 23217, Control_c, 0, 64, 127
2, 23220, Note_on_c, 0, 59, 0
2, 23228, Note_on_c, 0, 44, 59
2, 23243, Note_on_c, 0, 42, 0
2, 23251, Note_on_c, 0, 45, 63
2, 23258, Note_on_c, 0, 66, 64
2, 23259, Note_on_c, 0, 44, 0
2, 23259, Control_c, 0, 64, 0
2, 23263, Note_on_c, 0, 62, 48
2, 23264, Note_on_c, 0, 57, 42
2, 23266, Note_on_c, 0, 65, 0
2, 23272, Note_on_c, 0, 45, 0
2, 23281, Note_on_c, 0, 47, 44
2, 23293, Note_on_c, 0, 47, 0
2, 23301, Control_c, 0, 64, 127
2, 23302, Note_on_c, 0, 45, 55
2, 23304, Note_on_c, 0, 62, 0
2, 23307, Note_on_c, 0, 57, 0
2, 23317, Note_on_c, 0, 45, 0
2, 23331, Note_on_c, 0, 47, 41
2, 23351, Note_on_c, 0, 47, 0
2, 23353, Note_on_c, 0, 68, 69
2, 23359, Note_on_c, 0, 59, 37
2, 23360, Note_on_c, 0, 41, 43
2, 23362, Note_on_c, 0, 62, 51
2, 23368, Note_on_c, 0, 66, 0
2, 23374, Control_c, 0, 64, 0
2, 23375, Note_on_c, 0, 41, 0
2, 23378, Note_on_c, 0, 42, 54
2, 23400, Note_on_c, 0, 42, 0
2, 23403, Note_on_c, 0, 40, 63
2, 23428, Note_on_c, 0, 41, 67
2, 23430, Note_on_c, 0, 40, 0
2, 23431, Control_c, 0, 64, 127
2, 23446, Note_on_c, 0, 41, 0
2, 23449, Note_on_c, 0, 42, 66
2, 23458, Note_on_c, 0, 66, 66
2, 23465, Note_on_c, 0, 42, 0
2, 23473, Note_on_c, 0, 44, 54
2, 23474, Control_c, 0, 64, 0
2, 23482, Note_on_c, 0, 68, 0
2, 23489, Note_on_c, 0, 44, 0
2, 23495, Note_on_c, 0, 41, 39
2, 23516, Note_on_c, 0, 41, 0
2, 23517, Note_on_c, 0, 42, 65
2, 23520, Control_c, 0, 64, 127
2, 23541, Note_on_c, 0, 44, 69
2, 23547, Note_on_c, 0, 42, 0
2, 23547, Control_c, 0, 64, 0
2, 23551, Note_on_c, 0, 65, 69
2, 23559, Note_on_c, 0, 66, 0
2, 23564, Note_on_c, 0, 44, 0
2, 23567, Note_on_c, 0, 45, 73
2, 23582, Note_on_c, 0, 45, 0
2, 23587, Note_on_c, 0, 59, 0
2, 23589, Note_on_c, 0, 42, 51
2, 23605, Note_on_c, 0, 44, 62
2, 23608, Control_c, 0, 64, 127
2, 23611, Note_on_c, 0, 62, 0
2, 23626, Note_on_c, 0, 42, 0
2, 23633, Note_on_c, 0, 45, 75
2, 23635, Note_on_c, 0, 44, 0
2, 23642, Note_on_c, 0, 61, 62
2, 23643, Note_on_c, 0, 66, 68
2, 23648, Note_on_c, 0, 45, 0
2, 23648, Note_on_c, 0, 65, 0
2, 23654, Note_on_c, 0, 61, 0
2, 23659, Note_on_c, 0, 66, 0
2, 23661, Note_on_c, 0, 47, 47
2, 23673, Note_on_c, 0, 47, 0
2, 23685, Note_on_c, 0, 45, 69
2, 23695, Note_on_c, 0, 45, 0
2, 23705, Note_on_c, 0, 47, 61
2, 23720, Note_on_c, 0, 47, 0
2, 23734, Note_on_c, 0, 75, 71
2, 23734, Note_on_c, 0, 48, 67
2, 23734, Note_on_c, 0, 66, 62
2, 23742, Note_on_c, 0, 69, 47
2, 23746, Control_c, 0, 64, 0
2, 23751, Note_on_c, 0, 48, 0
2, 23756, Note_on_c, 0, 49, 78
2, 23778, Note_on_c, 0, 49, 0
2, 23781, Note_on_c, 0, 47, 70
2, 23804, Control_c, 0, 64, 127
2, 23809, Note_on_c, 0, 48, 74
2, 23814, Note_on_c, 0, 47, 0
2, 23829, Note_on_c, 0, 49, 79
2, 23830, Note_on_c, 0, 48, 0
2, 23832, Note_on_c, 0, 73, 77
2, 23846, Note_on_c, 0, 49, 0
2, 23853, Note_on_c, 0, 51, 73
2, 23854, Note_on_c, 0, 75, 0
2, 23866, Note_on_c, 0, 51, 0
2, 23872, Note_on_c, 0, 48, 75
2, 23892, Note_on_c, 0, 49, 81
2, 23911, Note_on_c, 0, 48, 0
2, 23916, Control_c, 0, 64, 0
2, 23919, Note_on_c, 0, 72, 96
2, 23920, Note_on_c, 0, 51, 83
2, 23925, Note_on_c, 0, 73, 0
2, 23933, Note_on_c, 0, 49, 0
2, 23941, Note_on_c, 0, 69, 0
2, 23944, Note_on_c, 0, 52, 83
2, 23946, Note_on_c, 0, 51, 0
2, 23957, Note_on_c, 0, 52, 0
2, 23965, Control_c, 0, 64, 127
2, 23967, Note_on_c, 0, 49, 75
2, 23969, Note_on_c, 0, 66, 0
2, 23985, Note_on_c, 0, 51, 78
2, 23998, Note_on_c, 0, 72, 0
2, 24004, Note_on_c, 0, 49, 0
2, 24004, Control_c, 0, 64, 0
2, 24009, Note_on_c, 0, 52, 85
2, 24011, Note_on_c, 0, 73, 90
2, 24013, Note_on_c, 0, 51, 0
2, 24014, Note_on_c, 0, 69, 73
2, 24014, Note_on_c, 0, 64, 71
2, 24025, Note_on_c, 0, 52, 0
2, 24032, Note_on_c, 0, 64, 0
2, 24033, Note_on_c, 0, 54, 72
2, 24041, Note_on_c, 0, 69, 0
2, 24049, Note_on_c, 0, 54, 0
2, 24050, Control_c, 0, 64, 127
2, 24055, Note_on_c, 0, 52, 81
2, 24073, Note_on_c, 0, 52, 0
2, 24085, Note_on_c, 0, 54, 71
2, 24094, Note_on_c, 0, 54, 0
2, 24102, Note_on_c, 0, 75, 84
2, 24104, Note_on_c, 0, 66, 67
2, 24108, Note_on_c, 0, 69, 70
2, 24111, Note_on_c, 0, 48, 91
2, 24113, Note_on_c, 0, 73, 0
2, 24135, Note_on_c, 0, 49, 85
2, 24142, Note_on_c, 0, 48, 0
2, 24157, Note_on_c, 0, 47, 69
2, 24162, Control_c, 0, 64, 0
2, 24165, Note_on_c, 0, 49, 0
2, 24181, Note_on_c, 0, 48, 92
2, 24189, Note_on_c, 0, 47, 0
2, 24199, Note_on_c, 0, 73, 90
2, 24202, Note_on_c, 0, 49, 89
2, 24205, Note_on_c, 0, 48, 0
2, 24217, Note_on_c, 0, 49, 0
2, 24219, Control_c, 0, 64, 127
2, 24221, Note_on_c, 0, 75, 0
2, 24225, Note_on_c, 0, 51, 89
2, 24240, Note_on_c, 0, 51, 0
2, 24249, Note_on_c, 0, 48, 79
2, 24267, Note_on_c, 0, 49, 81
2, 24270, Note_on_c, 0, 69, 0
2, 24280, Control_c, 0, 64, 0
2, 24284, Note_on_c, 0, 48, 0
2, 24290, Note_on_c, 0, 72, 97
2, 24293, Note_on_c, 0, 73, 0
2, 24294, Note_on_c, 0, 51, 90
2, 24308, Note_on_c, 0, 49, 0
2, 24317, Note_on_c, 0, 72, 0
2, 24318, Note_on_c, 0, 52, 88
2, 24321, Note_on_c, 0, 51, 0
2, 24323, Control_c, 0, 64, 127
2, 24331, Note_on_c, 0, 52, 0
2, 24331, Note_on_c, 0, 66, 0
2, 24336, Note_on_c, 0, 49, 52
2, 24353, Note_on_c, 0, 51, 78
2, 24375, Note_on_c, 0, 49, 0
2, 24381, Control_c, 0, 64, 0
2, 24381, Note_on_c, 0, 73, 90
2, 24382, Note_on_c, 0, 61, 80
2, 24383, Note_on_c, 0, 71, 76
2, 24384, Note_on_c, 0, 51, 0
2, 24385, Note_on_c, 0, 53, 75
2, 24386, Note_on_c, 0, 68, 66
2, 24398, Note_on_c, 0, 53, 0
2, 24412, Note_on_c, 0, 54, 69
2, 24418, Note_on_c, 0, 61, 0
2, 24421, Note_on_c, 0, 73, 0
2, 24422, Note_on_c, 0, 54, 0
2, 24427, Control_c, 0, 64, 127
2, 24429, Note_on_c, 0, 68, 0
2, 24429, Note_on_c, 0, 52, 91
2, 24443, Note_on_c, 0, 71, 0
2, 24458, Note_on_c, 0, 53, 85
2, 24463, Note_on_c, 0, 52, 0
2, 24469, Control_c, 0, 64, 0
2, 24474, Note_on_c, 0, 73, 90
2, 24474, Note_on_c, 0, 61, 78
2, 24476, Note_on_c, 0, 69, 80
2, 24478, Note_on_c, 0, 54, 76
2, 24479, Note_on_c, 0, 66, 61
2, 24481, Note_on_c, 0, 53, 0
2, 24500, Note_on_c, 0, 54, 0
2, 24501, Note_on_c, 0, 61, 0
2, 24501, Note_on_c, 0, 56, 75
2, 24502, Note_on_c, 0, 69, 0
2, 24511, Control_c, 0, 64, 127
2, 24512, Note_on_c, 0, 66, 0
2, 24516, Note_on_c, 0, 56, 0
2, 24523, Note_on_c, 0, 53, 63
2, 24530, Note_on_c, 0, 73, 0
2, 24536, Note_on_c, 0, 54, 88
2, 24556, Note_on_c, 0, 53, 0
2, 24563, Note_on_c, 0, 73, 95
2, 24565, Note_on_c, 0, 71, 83
2, 24567, Note_on_c, 0, 56, 82
2, 24567, Note_on_c, 0, 65, 83
2, 24569, Control_c, 0, 64, 0
2, 24574, Note_on_c, 0, 54, 0
2, 24582, Note_on_c, 0, 57, 87
2, 24589, Note_on_c, 0, 56, 0
2, 24603, Note_on_c, 0, 65, 0
2, 24605, Note_on_c, 0, 73, 0
2, 24609, Note_on_c, 0, 54, 83
2, 24611, Control_c, 0, 64, 127
2, 24613, Note_on_c, 0, 57, 0
2, 24625, Note_on_c, 0, 56, 89
2, 24647, Note_on_c, 0, 71, 0
2, 24652, Note_on_c, 0, 57, 92
2, 24655, Note_on_c, 0, 73, 99
2, 24657, Control_c, 0, 64, 0
2, 24657, Note_on_c, 0, 66, 88
2, 24658, Note_on_c, 0, 54, 0
2, 24659, Note_on_c, 0, 69, 87
2, 24668, Note_on_c, 0, 56, 0
2, 24680, Note_on_c, 0, 59, 73
2, 24682, Note_on_c, 0, 57, 0
2, 24691, Note_on_c, 0, 66, 0
2, 24697, Note_on_c, 0, 69, 0
2, 24699, Control_c, 0, 64, 127
2, 24701, Note_on_c, 0, 59, 0
2, 24701, Note_on_c, 0, 56, 70
2, 24715, Note_on_c, 0, 57, 72
2, 24728, Note_on_c, 0, 56, 0
2, 24731, Note_on_c, 0, 73, 0
2, 24738, Control_c, 0, 64, 0
2, 24739, Note_on_c, 0, 57, 0
2, 24742, Note_on_c, 0, 60, 95
2, 24743, Note_on_c, 0, 75, 97
2, 24744, Note_on_c, 0, 66, 90
2, 24745, Note_on_c, 0, 69, 85
2, 24769, Note_on_c, 0, 61, 98
2, 24774, Note_on_c, 0, 60, 0
2, 24778, Note_on_c, 0, 69, 0
2, 24780, Control_c, 0, 64, 127
2, 24782, Note_on_c, 0, 66, 0
2, 24792, Note_on_c, 0, 59, 89
2, 24795, Note_on_c, 0, 75, 0
2, 24795, Note_on_c, 0, 61, 0
2, 24817, Note_on_c, 0, 60, 88
2, 24822, Control_c, 0, 64, 0
2, 24831, Note_on_c, 0, 76, 111
2, 24831, Note_on_c, 0, 68, 88
2, 24832, Note_on_c, 0, 64, 100
2, 24834, Note_on_c, 0, 59, 0
2, 24840, Note_on_c, 0, 61, 93
2, 24847, Note_on_c, 0, 60, 0
2, 24856, Note_on_c, 0, 64, 0
2, 24859, Note_on_c, 0, 68, 0
2, 24859, Note_on_c, 0, 63, 93
2, 24861, Control_c, 0, 64, 127
2, 24867, Note_on_c, 0, 61, 0
2, 24873, Note_on_c, 0, 76, 0
2, 24877, Note_on_c, 0, 63, 0
2, 24881, Note_on_c, 0, 60, 86
2, 24896, Note_on_c, 0, 61, 86
2, 24917, Note_on_c, 0, 78, 106
2, 24919, Note_on_c, 0, 60, 0
2, 24920, Note_on_c, 0, 68, 97
2, 24921, Note_on_c, 0, 72, 99
2, 24921, Note_on_c, 0, 63, 92
2, 24937, Note_on_c, 0, 61, 0
2, 24943, Note_on_c, 0, 64, 92
2, 24949, Note_on_c, 0, 63, 0
2, 24953, Note_on_c, 0, 68, 0
2, 24954, Note_on_c, 0, 72, 0
2, 24964, Note_on_c, 0, 64, 0
2, 24964, Note_on_c, 0, 61, 70
2, 24985, Note_on_c, 0, 63, 84
2, 24991, Control_c, 0, 64, 0
2, 24996, Note_on_c, 0, 78, 0
2, 25005, Note_on_c, 0, 80, 109
2, 25008, Note_on_c, 0, 64, 105
2, 25008, Note_on_c, 0, 68, 103
2, 25010, Note_on_c, 0, 73, 86
2, 25014, Note_on_c, 0, 61, 0
2, 25018, Note_on_c, 0, 63, 0
2, 25031, Note_on_c, 0, 64, 0
2, 25032, Note_on_c, 0, 66, 90
2, 25035, Note_on_c, 0, 68, 0
2, 25040, Note_on_c, 0, 73, 0
2, 25041, Control_c, 0, 64, 127
2, 25046, Note_on_c, 0, 66, 0
2, 25054, Note_on_c, 0, 63, 95
2, 25059, Note_on_c, 0, 80, 0
2, 25075, Note_on_c, 0, 64, 77
2, 25096, Note_on_c, 0, 73, 95
2, 25096, Note_on_c, 0, 81, 111
2, 25096, Note_on_c, 0, 66, 97
2, 25098, Note_on_c, 0, 75, 84
2, 25101, Note_on_c, 0, 63, 0
2, 25105, Note_on_c, 0, 64, 0
2, 25120, Note_on_c, 0, 68, 95
2, 25124, Note_on_c, 0, 66, 0
2, 25128, Note_on_c, 0, 75, 0
2, 25136, Note_on_c, 0, 73, 0
2, 25140, Note_on_c, 0, 68, 0
2, 25146, Note_on_c, 0, 64, 92
2, 25162, Note_on_c, 0, 66, 86
2, 25171, Note_on_c, 0, 81, 0
2, 25183, Control_c, 0, 64, 0
2, 25186, Note_on_c, 0, 68, 97
2, 25190, Note_on_c, 0, 80, 109
2, 25191, Note_on_c, 0, 73, 100
2, 25192, Note_on_c, 0, 64, 0
2, 25192, Note_on_c, 0, 76, 107
2, 25204, Note_on_c, 0, 66, 0
2, 25213, Note_on_c, 0, 69, 104
2, 25217, Note_on_c, 0, 68, 0
2, 25237, Note_on_c, 0, 68, 82
2, 25244, Note_on_c, 0, 69, 0
2, 25245, Control_c, 0, 64, 127
2, 25262, Note_on_c, 0, 66, 90
2, 25267, Note_on_c, 0, 76, 0
2, 25269, Note_on_c, 0, 68, 0
2, 25270, Note_on_c, 0, 73, 0
2, 25272, Note_on_c, 0, 66, 0
2, 25286, Note_on_c, 0, 80, 0
2, 25290, Note_on_c, 0, 64, 87
2, 25299, Note_on_c, 0, 64, 0
2, 25314, Note_on_c, 0, 63, 90
2, 25332, Note_on_c, 0, 61, 84
2, 25333, Note_on_c, 0, 63, 0
2, 25342, Note_on_c, 0, 61, 0
2, 25360, Note_on_c, 0, 59, 83
2, 25372, Note_on_c, 0, 59, 0
2, 25383, Note_on_c, 0, 85, 97
2, 25383, Note_on_c, 0, 73, 88
2, 25386, Note_on_c, 0, 80, 76
2, 25386, Note_on_c, 0, 76, 81
2, 25387, Note_on_c, 0, 57, 87
2, 25396, Note_on_c, 0, 76, 0
2, 25396, Note_on_c, 0, 73, 0
2, 25403, Note_on_c, 0, 80, 0
2, 25409, Note_on_c, 0, 56, 83
2, 25412, Note_on_c, 0, 57, 0
2, 25417, Note_on_c, 0, 85, 0
2, 25426, Note_on_c, 0, 54, 84
2, 25433, Note_on_c, 0, 56, 0
2, 25439, Note_on_c, 0, 54, 0
2, 25453, Note_on_c, 0, 52, 102
2, 25474, Note_on_c, 0, 76, 119
2, 25474, Note_on_c, 0, 88, 109
2, 25476, Note_on_c, 0, 51, 103
2, 25476, Note_on_c, 0, 85, 100
2, 25476, Note_on_c, 0, 80, 96
2, 25482, Note_on_c, 0, 52, 0
2, 25488, Note_on_c, 0, 80, 0
2, 25493, Note_on_c, 0, 76, 0
2, 25501, Note_on_c, 0, 85, 0
2, 25501, Note_on_c, 0, 49, 78
2, 25504, Note_on_c, 0, 88, 0
2, 25506, Note_on_c, 0, 51, 0
2, 25512, Note_on_c, 0, 49, 0
2, 25527, Note_on_c, 0, 47, 91
2, 25549, Note_on_c, 0, 45, 111
2, 25560, Note_on_c, 0, 47, 0
2, 25564, Note_on_c, 0, 80, 115
2, 25564, Note_on_c, 0, 92, 111
2, 25566, Note_on_c, 0, 88, 110
2, 25566, Note_on_c, 0, 85, 103
2, 25570, Note_on_c, 0, 44, 93
2, 25587, Note_on_c, 0, 45, 0
2, 25589, Note_on_c, 0, 42, 84
2, 25592, Note_on_c, 0, 80, 0
2, 25597, Note_on_c, 0, 88, 0
2, 25598, Note_on_c, 0, 42, 0
2, 25599, Note_on_c, 0, 44, 0
2, 25600, Note_on_c, 0, 85, 0
2, 25605, Note_on_c, 0, 92, 0
2, 25617, Note_on_c, 0, 40, 108
2, 25641, Note_on_c, 0, 38, 94
2, 25644, Note_on_c, 0, 40, 0
2, 25654, Note_on_c, 0, 97, 113
2, 25655, Note_on_c, 0, 37, 90
2, 25655, Note_on_c, 0, 88, 107
2, 25656, Note_on_c, 0, 85, 102
2, 25659, Note_on_c, 0, 92, 100
2, 25662, Note_on_c, 0, 38, 0
2, 25675, Note_on_c, 0, 37, 0
2, 25685, Note_on_c, 0, 97, 0
2, 25687, Note_on_c, 0, 35, 84
2, 25690, Note_on_c, 0, 88, 0
2, 25690, Note_on_c, 0, 92, 0
2, 25705, Note_on_c, 0, 85, 0
2, 25706, Note_on_c, 0, 33, 111
2, 25712, Note_on_c, 0, 35, 0
2, 25723, Note_on_c, 0, 32, 89
2, 25735, Note_on_c, 0, 33, 0
2, 25741, Control_c, 0, 64, 0
2, 25747, Note_on_c, 0, 32, 0
2, 25753, Note_on_c, 0, 93, 122
2, 25754, Note_on_c, 0, 81, 120
2, 25754, Note_on_c, 0, 85, 105
2, 25755, Note_on_c, 0, 87, 99
2, 25756, Note_on_c, 0, 42, 119
2, 25756, Note_on_c, 0, 30, 101
2, 25763, Note_on_c, 0, 87, 0
2, 25773, Note_on_c, 0, 30, 0
2, 25774, Note_on_c, 0, 93, 0
2, 25775, Note_on_c, 0, 42, 0
2, 25775, Note_on_c, 0, 85, 0
2, 25775, Control_c, 0, 64, 127
2, 25779, Note_on_c, 0, 81, 0
2, 25864, Control_c, 0, 64, 0
2, 25864, Note_on_c, 0, 60, 119
2, 25864, Note_on_c, 0, 72, 119
2, 25865, Note_on_c, 0, 66, 104
2, 25866, Note_on_c, 0, 32, 110
2, 25866, Note_on_c, 0, 44, 114
2, 25866, Note_on_c, 0, 68, 101
2, 25899, Note_on_c, 0, 44, 0
2, 25903, Note_on_c, 0, 32, 0
2, 25906, Control_c, 0, 64, 127
2, 25909, Note_on_c, 0, 72, 0
2, 25915, Note_on_c, 0, 60, 0
2, 25926, Note_on_c, 0, 66, 0
2, 25937, Note_on_c, 0, 68, 0
2, 25990, Control_c, 0, 64, 0
2, 25996, Note_on_c, 0, 73, 116
2, 25998, Note_on_c, 0, 61, 115
2, 25998, Note_on_c, 0, 68, 105
2, 25999, Note_on_c, 0, 25, 117
2, 25999, Note_on_c, 0, 64, 110
2, 25999, Note_on_c, 0, 37, 126
2, 26020, Note_on_c, 0, 25, 0
2, 26021, Note_on_c, 0, 37, 0
2, 26033, Note_on_c, 0, 61, 0
2, 26040, Note_on_c, 0, 64, 0
2, 26040, Control_c, 0, 64, 127
2, 26053, Note_on_c, 0, 68, 0
2, 26059, Note_on_c, 0, 73, 0
2, 26119, Note_on_c, 0, 56, 121
2, 26121, Note_on_c, 0, 80, 101
2, 26121, Note_on_c, 0, 44, 111
2, 26134, Note_on_c, 0, 56, 0
2, 26139, Note_on_c, 0, 44, 0
2, 26144, Note_on_c, 0, 81, 94
2, 26148, Note_on_c, 0, 80, 0
2, 26172, Note_on_c, 0, 80, 71
2, 26174, Note_on_c, 0, 37, 100
2, 26186, Note_on_c, 0, 81, 0
2, 26192, Note_on_c, 0, 37, 0
2, 26195, Note_on_c, 0, 80, 0
2, 26202, Note_on_c, 0, 88, 91
2, 26217, Control_c, 0, 64, 0
2, 26228, Note_on_c, 0, 58, 124
2, 26229, Note_on_c, 0, 46, 123
2, 26232, Note_on_c, 0, 79, 103
2, 26235, Note_on_c, 0, 88, 0
2, 26250, Note_on_c, 0, 46, 0
2, 26253, Note_on_c, 0, 58, 0
2, 26254, Note_on_c, 0, 80, 91
2, 26255, Note_on_c, 0, 79, 0
2, 26259, Control_c, 0, 64, 127
2, 26280, Note_on_c, 0, 79, 81
2, 26284, Note_on_c, 0, 37, 70
2, 26293, Note_on_c, 0, 80, 0
2, 26296, Note_on_c, 0, 37, 0
2, 26300, Note_on_c, 0, 79, 0
2, 26304, Note_on_c, 0, 88, 96
2, 26328, Control_c, 0, 64, 0
2, 26329, Note_on_c, 0, 57, 119
2, 26330, Note_on_c, 0, 45, 118
2, 26332, Note_on_c, 0, 78, 103
2, 26334, Note_on_c, 0, 88, 0
2, 26351, Note_on_c, 0, 57, 0
2, 26351, Note_on_c, 0, 45, 0
2, 26355, Note_on_c, 0, 78, 0
2, 26356, Note_on_c, 0, 80, 86
2, 26363, Control_c, 0, 64, 127
2, 26382, Note_on_c, 0, 78, 68
2, 26386, Note_on_c, 0, 37, 100
2, 26403, Note_on_c, 0, 80, 0
2, 26404, Note_on_c, 0, 37, 0
2, 26406, Note_on_c, 0, 87, 58
2, 26415, Note_on_c, 0, 78, 0
2, 26425, Control_c, 0, 64, 0
2, 26427, Note_on_c, 0, 87, 0
2, 26430, Note_on_c, 0, 77, 104
2, 26433, Note_on_c, 0, 56, 115
2, 26434, Note_on_c, 0, 44, 109
2, 26452, Note_on_c, 0, 77, 0
2, 26455, Note_on_c, 0, 56, 0
2, 26455, Note_on_c, 0, 78, 62
2, 26462, Note_on_c, 0, 44, 0
2, 26463, Control_c, 0, 64, 127
2, 26470, Note_on_c, 0, 79, 32
2, 26476, Note_on_c, 0, 77, 78
2, 26479, Note_on_c, 0, 78, 0
2, 26485, Note_on_c, 0, 79, 0
2, 26485, Note_on_c, 0, 37, 98
2, 26496, Note_on_c, 0, 37, 0
2, 26500, Note_on_c, 0, 86, 94
2, 26501, Note_on_c, 0, 77, 0
2, 26521, Control_c, 0, 64, 0
2, 26526, Note_on_c, 0, 86, 0
2, 26527, Note_on_c, 0, 55, 113
2, 26527, Note_on_c, 0, 76, 103
2, 26530, Note_on_c, 0, 44, 106
2, 26543, Note_on_c, 0, 55, 0
2, 26546, Note_on_c, 0, 78, 91
2, 26549, Note_on_c, 0, 76, 0
2, 26559, Note_on_c, 0, 44, 0
2, 26559, Control_c, 0, 64, 127
2, 26571, Note_on_c, 0, 76, 84
2, 26583, Note_on_c, 0, 37, 92
2, 26584, Note_on_c, 0, 78, 0
2, 26592, Note_on_c, 0, 37, 0
2, 26593, Note_on_c, 0, 76, 0
2, 26596, Note_on_c, 0, 85, 91
2, 26613, Control_c, 0, 64, 0
2, 26620, Note_on_c, 0, 75, 99
2, 26620, Note_on_c, 0, 54, 110
2, 26623, Note_on_c, 0, 85, 0
2, 26625, Note_on_c, 0, 44, 98
2, 26641, Note_on_c, 0, 75, 0
2, 26641, Note_on_c, 0, 76, 89
2, 26649, Note_on_c, 0, 54, 0
2, 26651, Control_c, 0, 64, 127
2, 26662, Note_on_c, 0, 44, 0
2, 26665, Note_on_c, 0, 75, 68
2, 26675, Note_on_c, 0, 76, 0
2, 26676, Note_on_c, 0, 37, 93
2, 26689, Note_on_c, 0, 75, 0
2, 26691, Note_on_c, 0, 85, 90
2, 26700, Note_on_c, 0, 37, 0
2, 26711, Note_on_c, 0, 75, 84
2, 26716, Note_on_c, 0, 51, 106
2, 26719, Note_on_c, 0, 44, 98
2, 26722, Note_on_c, 0, 85, 0
2, 26732, Note_on_c, 0, 75, 0
2, 26733, Note_on_c, 0, 76, 90
2, 26740, Note_on_c, 0, 51, 0
2, 26752, Note_on_c, 0, 44, 0
2, 26755, Note_on_c, 0, 75, 71
2, 26763, Note_on_c, 0, 76, 0
2, 26764, Note_on_c, 0, 37, 97
2, 26779, Note_on_c, 0, 75, 0
2, 26782, Note_on_c, 0, 84, 84
2, 26787, Note_on_c, 0, 37, 0
2, 26797, Note_on_c, 0, 84, 0
2, 26803, Note_on_c, 0, 73, 97
2, 26805, Control_c, 0, 64, 0
2, 26807, Note_on_c, 0, 52, 110
2, 26809, Note_on_c, 0, 44, 100
2, 26824, Note_on_c, 0, 75, 81
2, 26826, Note_on_c, 0, 73, 0
2, 26828, Note_on_c, 0, 52, 0
2, 26841, Note_on_c, 0, 44, 0
2, 26843, Control_c, 0, 64, 127
2, 26848, Note_on_c, 0, 73, 83
2, 26853, Note_on_c, 0, 37, 98
2, 26855, Note_on_c, 0, 75, 0
2, 26865, Note_on_c, 0, 37, 0
2, 26871, Note_on_c, 0, 85, 96
2, 26872, Note_on_c, 0, 73, 0
2, 26888, Note_on_c, 0, 85, 0
2, 26889, Control_c, 0, 64, 0
2, 26895, Note_on_c, 0, 80, 100
2, 26895, Note_on_c, 0, 56, 106
2, 26899, Note_on_c, 0, 44, 92
2, 26912, Note_on_c, 0, 44, 0
2, 26917, Note_on_c, 0, 56, 0
2, 26917, Note_on_c, 0, 80, 0
2, 26917, Note_on_c, 0, 81, 93
2, 26920, Control_c, 0, 64, 127
2, 26940, Note_on_c, 0, 80, 81
2, 26942, Note_on_c, 0, 37, 99
2, 26950, Note_on_c, 0, 81, 0
2, 26963, Note_on_c, 0, 37, 0
2, 26967, Note_on_c, 0, 80, 0
2, 26968, Note_on_c, 0, 88, 94
2, 26993, Control_c, 0, 64, 0
2, 26996, Note_on_c, 0, 58, 124
2, 26997, Note_on_c, 0, 46, 122
2, 26997, Note_on_c, 0, 79, 108
2, 26999, Note_on_c, 0, 88, 0
2, 27021, Note_on_c, 0, 80, 97
2, 27023, Note_on_c, 0, 79, 0
2, 27026, Note_on_c, 0, 58, 0
2, 27027, Note_on_c, 0, 46, 0
2, 27031, Control_c, 0, 64, 127
2, 27048, Note_on_c, 0, 79, 88
2, 27055, Note_on_c, 0, 37, 102
2, 27063, Note_on_c, 0, 80, 0
2, 27069, Note_on_c, 0, 79, 0
2, 27072, Note_on_c, 0, 88, 103
2, 27080, Note_on_c, 0, 37, 0
2, 27097, Control_c, 0, 64, 0
2, 27100, Note_on_c, 0, 78, 106
2, 27102, Note_on_c, 0, 88, 0
2, 27105, Note_on_c, 0, 57, 113
2, 27105, Note_on_c, 0, 45, 114
2, 27123, Note_on_c, 0, 80, 90
2, 27124, Note_on_c, 0, 57, 0
2, 27127, Note_on_c, 0, 78, 0
2, 27133, Note_on_c, 0, 45, 0
2, 27135, Control_c, 0, 64, 127
2, 27147, Note_on_c, 0, 78, 82
2, 27158, Note_on_c, 0, 37, 104
2, 27160, Note_on_c, 0, 80, 0
2, 27174, Note_on_c, 0, 87, 42
2, 27176, Note_on_c, 0, 78, 0
2, 27182, Note_on_c, 0, 37, 0
2, 27193, Control_c, 0, 64, 0
2, 27194, Note_on_c, 0, 87, 0
2, 27199, Note_on_c, 0, 77, 105
2, 27201, Note_on_c, 0, 56, 108
2, 27205, Note_on_c, 0, 44, 98
2, 27222, Note_on_c, 0, 77, 0
2, 27222, Note_on_c, 0, 78, 91
2, 27224, Note_on_c, 0, 56, 0
2, 27228, Control_c, 0, 64, 127
2, 27229, Note_on_c, 0, 44, 0
2, 27246, Note_on_c, 0, 77, 84
2, 27251, Note_on_c, 0, 37, 98
2, 27260, Note_on_c, 0, 78, 0
2, 27265, Note_on_c, 0, 37, 0
2, 27268, Note_on_c, 0, 77, 0
2, 27270, Note_on_c, 0, 86, 96
2, 27289, Control_c, 0, 64, 0
2, 27293, Note_on_c, 0, 55, 110
2, 27294, Note_on_c, 0, 86, 0
2, 27295, Note_on_c, 0, 76, 103
2, 27296, Note_on_c, 0, 44, 101
2, 27312, Note_on_c, 0, 78, 84
2, 27317, Note_on_c, 0, 76, 0
2, 27317, Note_on_c, 0, 55, 0
2, 27321, Note_on_c, 0, 44, 0
2, 27324, Control_c, 0, 64, 127
2, 27334, Note_on_c, 0, 76, 94
2, 27343, Note_on_c, 0, 37, 98
2, 27349, Note_on_c, 0, 78, 0
2, 27353, Note_on_c, 0, 76, 0
2, 27354, Note_on_c, 0, 85, 96
2, 27362, Note_on_c, 0, 37, 0
2, 27378, Note_on_c, 0, 85, 0
2, 27381, Note_on_c, 0, 75, 99
2, 27382, Note_on_c, 0, 54, 104
2, 27385, Control_c, 0, 64, 0
2, 27388, Note_on_c, 0, 44, 88
2, 27402, Note_on_c, 0, 76, 74
2, 27405, Note_on_c, 0, 75, 0
2, 27409, Note_on_c, 0, 54, 0
2, 27414, Note_on_c, 0, 44, 0
2, 27423, Control_c, 0, 64, 127
2, 27424, Note_on_c, 0, 75, 86
2, 27432, Note_on_c, 0, 37, 98
2, 27436, Note_on_c, 0, 76, 0
2, 27445, Note_on_c, 0, 85, 98
2, 27449, Note_on_c, 0, 75, 0
2, 27460, Note_on_c, 0, 37, 0
2, 27467, Note_on_c, 0, 75, 88
2, 27473, Note_on_c, 0, 51, 105
2, 27474, Control_c, 0, 64, 0
2, 27475, Note_on_c, 0, 85, 0
2, 27477, Note_on_c, 0, 44, 93
2, 27486, Note_on_c, 0, 76, 80
2, 27488, Note_on_c, 0, 75, 0
2, 27500, Note_on_c, 0, 51, 0
2, 27504, Control_c, 0, 64, 127
2, 27508, Note_on_c, 0, 75, 78
2, 27514, Note_on_c, 0, 44, 0
2, 27516, Note_on_c, 0, 37, 92
2, 27523, Note_on_c, 0, 76, 0
2, 27533, Note_on_c, 0, 84, 91
2, 27537, Note_on_c, 0, 75, 0
2, 27543, Control_c, 0, 64, 0
2, 27544, Note_on_c, 0, 37, 0
2, 27551, Note_on_c, 0, 37, 69
2, 27555, Note_on_c, 0, 73, 100
2, 27558, Note_on_c, 0, 84, 0
2, 27561, Note_on_c, 0, 44, 81
2, 27570, Note_on_c, 0, 37, 0
2, 27576, Note_on_c, 0, 52, 112
2, 27577, Note_on_c, 0, 75, 82
2, 27583, Note_on_c, 0, 73, 0
2, 27584, Note_on_c, 0, 52, 0
2, 27585, Control_c, 0, 64, 127
2, 27587, Note_on_c, 0, 44, 0
2, 27598, Note_on_c, 0, 73, 90
2, 27616, Note_on_c, 0, 75, 0
2, 27620, Note_on_c, 0, 73, 0
2, 27623, Note_on_c, 0, 85, 92
2, 27634, Note_on_c, 0, 85, 0
2, 27653, Note_on_c, 0, 80, 105
2, 27655, Note_on_c, 0, 68, 100
2, 27671, Note_on_c, 0, 68, 0
2, 27674, Note_on_c, 0, 80, 0
2, 27676, Note_on_c, 0, 81, 90
2, 27679, Note_on_c, 0, 67, 97
2, 27690, Note_on_c, 0, 67, 0
2, 27697, Note_on_c, 0, 80, 76
2, 27700, Note_on_c, 0, 68, 90
2, 27706, Note_on_c, 0, 81, 0
2, 27718, Note_on_c, 0, 80, 0
2, 27719, Note_on_c, 0, 68, 0
2, 27726, Note_on_c, 0, 88, 92
2, 27727, Control_c, 0, 64, 0
2, 27727, Note_on_c, 0, 56, 94
2, 27746, Note_on_c, 0, 79, 100
2, 27747, Note_on_c, 0, 67, 98
2, 27753, Note_on_c, 0, 88, 0
2, 27757, Note_on_c, 0, 56, 0
2, 27760, Note_on_c, 0, 67, 0
2, 27760, Note_on_c, 0, 80, 86
2, 27761, Note_on_c, 0, 66, 82
2, 27767, Note_on_c, 0, 79, 0
2, 27773, Control_c, 0, 64, 127
2, 27783, Note_on_c, 0, 67, 80
2, 27786, Note_on_c, 0, 79, 73
2, 27796, Note_on_c, 0, 66, 0
2, 27800, Note_on_c, 0, 80, 0
2, 27801, Note_on_c, 0, 67, 0
2, 27806, Note_on_c, 0, 79, 0
2, 27808, Note_on_c, 0, 88, 90
2, 27808, Note_on_c, 0, 56, 87
2, 27811, Control_c, 0, 64, 0
2, 27823, Note_on_c, 0, 88, 0
2, 27825, Note_on_c, 0, 56, 0
2, 27827, Note_on_c, 0, 66, 87
2, 27832, Note_on_c, 0, 78, 91
2, 27843, Note_on_c, 0, 66, 0
2, 27853, Note_on_c, 0, 78, 0
2, 27853, Note_on_c, 0, 65, 85
2, 27854, Note_on_c, 0, 80, 76
2, 27858, Control_c, 0, 64, 127
2, 27870, Note_on_c, 0, 78, 78
2, 27873, Note_on_c, 0, 66, 85
2, 27874, Note_on_c, 0, 65, 0
2, 27883, Note_on_c, 0, 80, 0
2, 27898, Note_on_c, 0, 66, 0
2, 27899, Note_on_c, 0, 87, 79
2, 27901, Note_on_c, 0, 78, 0
2, 27901, Note_on_c, 0, 56, 85
2, 27907, Control_c, 0, 64, 0
2, 27919, Note_on_c, 0, 65, 94
2, 27921, Note_on_c, 0, 77, 103
2, 27924, Note_on_c, 0, 87, 0
2, 27929, Note_on_c, 0, 56, 0
2, 27935, Note_on_c, 0, 65, 0
2, 27937, Note_on_c, 0, 64, 91
2, 27938, Note_on_c, 0, 78, 83
2, 27939, Note_on_c, 0, 77, 0
2, 27946, Control_c, 0, 64, 127
2, 27961, Note_on_c, 0, 65, 87
2, 27962, Note_on_c, 0, 77, 78
2, 27967, Note_on_c, 0, 64, 0
2, 27974, Note_on_c, 0, 78, 0
2, 27975, Note_on_c, 0, 77, 0
2, 27979, Note_on_c, 0, 65, 0
2, 27984, Note_on_c, 0, 86, 89
2, 27985, Note_on_c, 0, 56, 90
2, 27992, Control_c, 0, 64, 0
2, 27994, Note_on_c, 0, 86, 0
2, 28005, Note_on_c, 0, 64, 100
2, 28005, Note_on_c, 0, 76, 97
2, 28018, Note_on_c, 0, 56, 0
2, 28019, Note_on_c, 0, 64, 0
2, 28020, Note_on_c, 0, 76, 0
2, 28023, Note_on_c, 0, 77, 63
2, 28024, Note_on_c, 0, 63, 76
2, 28027, Control_c, 0, 64, 127
2, 28044, Note_on_c, 0, 76, 74
2, 28045, Note_on_c, 0, 64, 79
2, 28051, Note_on_c, 0, 77, 0
2, 28054, Note_on_c, 0, 64, 0
2, 28055, Note_on_c, 0, 63, 0
2, 28061, Note_on_c, 0, 76, 0
2, 28064, Note_on_c, 0, 56, 84
2, 28068, Note_on_c, 0, 85, 93
2, 28073, Control_c, 0, 64, 0
2, 28086, Note_on_c, 0, 63, 86
2, 28089, Note_on_c, 0, 75, 92
2, 28092, Note_on_c, 0, 85, 0
2, 28095, Note_on_c, 0, 56, 0
2, 28103, Note_on_c, 0, 63, 0
2, 28107, Note_on_c, 0, 76, 73
2, 28109, Note_on_c, 0, 62, 72
2, 28111, Note_on_c, 0, 75, 0
2, 28115, Control_c, 0, 64, 127
2, 28126, Note_on_c, 0, 63, 69
2, 28126, Note_on_c, 0, 75, 82
2, 28136, Note_on_c, 0, 62, 0
2, 28138, Note_on_c, 0, 76, 0
2, 28148, Note_on_c, 0, 63, 0
2, 28152, Note_on_c, 0, 75, 0
2, 28152, Note_on_c, 0, 56, 86
2, 28155, Note_on_c, 0, 84, 87
2, 28161, Control_c, 0, 64, 0
2, 28168, Note_on_c, 0, 84, 0
2, 28173, Note_on_c, 0, 62, 94
2, 28174, Note_on_c, 0, 74, 100
2, 28185, Note_on_c, 0, 62, 0
2, 28189, Note_on_c, 0, 56, 0
2, 28191, Note_on_c, 0, 75, 80
2, 28192, Note_on_c, 0, 61, 75
2, 28198, Note_on_c, 0, 74, 0
2, 28200, Control_c, 0, 64, 127
2, 28214, Note_on_c, 0, 74, 85
2, 28215, Note_on_c, 0, 62, 77
2, 28225, Note_on_c, 0, 61, 0
2, 28226, Note_on_c, 0, 62, 0
2, 28228, Note_on_c, 0, 75, 0
2, 28231, Note_on_c, 0, 74, 0
2, 28234, Note_on_c, 0, 56, 75
2, 28237, Note_on_c, 0, 83, 72
2, 28244, Note_on_c, 0, 83, 0
2, 28246, Control_c, 0, 64, 0
2, 28255, Note_on_c, 0, 61, 86
2, 28256, Note_on_c, 0, 73, 102
2, 28264, Note_on_c, 0, 56, 0
2, 28273, Note_on_c, 0, 60, 81
2, 28274, Note_on_c, 0, 61, 0
2, 28277, Note_on_c, 0, 73, 0
2, 28278, Note_on_c, 0, 74, 78
2, 28284, Control_c, 0, 64, 127
2, 28297, Note_on_c, 0, 61, 81
2, 28300, Note_on_c, 0, 60, 0
2, 28304, Note_on_c, 0, 73, 75
2, 28309, Note_on_c, 0, 74, 0
2, 28310, Note_on_c, 0, 61, 0
2, 28330, Note_on_c, 0, 82, 89
2, 28331, Note_on_c, 0, 73, 0
2, 28331, Note_on_c, 0, 44, 101
2, 28341, Note_on_c, 0, 44, 0
2, 28354, Note_on_c, 0, 60, 100
2, 28356, Note_on_c, 0, 72, 102
2, 28363, Note_on_c, 0, 82, 0
2, 28372, Note_on_c, 0, 72, 0
2, 28372, Note_on_c, 0, 60, 0
2, 28381, Note_on_c, 0, 73, 78
2, 28382, Note_on_c, 0, 59, 78
2, 28391, Note_on_c, 0, 60, 77
2, 28394, Note_on_c, 0, 59, 0
2, 28402, Note_on_c, 0, 72, 81
2, 28404, Note_on_c, 0, 60, 0
2, 28411, Note_on_c, 0, 73, 0
2, 28414, Note_on_c, 0, 72, 0
2, 28422, Note_on_c, 0, 44, 105
2, 28426, Note_on_c, 0, 81, 91
2, 28438, Note_on_c, 0, 81, 0
2, 28438, Control_c, 0, 64, 0
2, 28444, Note_on_c, 0, 59, 93
2, 28447, Note_on_c, 0, 44, 0
2, 28452, Note_on_c, 0, 71, 82
2, 28465, Note_on_c, 0, 58, 98
2, 28467, Note_on_c, 0, 72, 75
2, 28468, Note_on_c, 0, 59, 0
2, 28468, Control_c, 0, 64, 127
2, 28471, Note_on_c, 0, 71, 0
2, 28485, Note_on_c, 0, 59, 80
2, 28491, Note_on_c, 0, 71, 56
2, 28492, Note_on_c, 0, 58, 0
2, 28495, Note_on_c, 0, 59, 0
2, 28501, Note_on_c, 0, 72, 0
2, 28503, Note_on_c, 0, 71, 0
2, 28512, Note_on_c, 0, 44, 100
2, 28513, Note_on_c, 0, 80, 91
2, 28520, Note_on_c, 0, 44, 0
2, 28533, Note_on_c, 0, 58, 106
2, 28534, Note_on_c, 0, 70, 108
2, 28537, Note_on_c, 0, 80, 0
2, 28551, Note_on_c, 0, 71, 50
2, 28557, Note_on_c, 0, 70, 0
2, 28561, Note_on_c, 0, 57, 86
2, 28574, Note_on_c, 0, 57, 0
2, 28574, Note_on_c, 0, 70, 82
2, 28590, Note_on_c, 0, 71, 0
2, 28590, Note_on_c, 0, 58, 0
2, 28600, Note_on_c, 0, 79, 96
2, 28602, Note_on_c, 0, 70, 0
2, 28602, Note_on_c, 0, 44, 100
2, 28614, Note_on_c, 0, 44, 0
2, 28618, Note_on_c, 0, 79, 0
2, 28620, Note_on_c, 0, 57, 97
2, 28624, Note_on_c, 0, 69, 97
2, 28640, Note_on_c, 0, 70, 93
2, 28642, Note_on_c, 0, 56, 79
2, 28644, Note_on_c, 0, 57, 0
2, 28648, Note_on_c, 0, 69, 0
2, 28660, Note_on_c, 0, 57, 89
2, 28666, Note_on_c, 0, 69, 79
2, 28669, Note_on_c, 0, 56, 0
2, 28672, Note_on_c, 0, 57, 0
2, 28675, Note_on_c, 0, 70, 0
2, 28677, Note_on_c, 0, 69, 0
2, 28686, Note_on_c, 0, 78, 94
2, 28690, Note_on_c, 0, 44, 99
2, 28700, Note_on_c, 0, 44, 0
2, 28708, Note_on_c, 0, 56, 99
2, 28709, Note_on_c, 0, 68, 97
2, 28711, Note_on_c, 0, 78, 0
2, 28726, Note_on_c, 0, 69, 73
2, 28730, Note_on_c, 0, 68, 0
2, 28732, Note_on_c, 0, 56, 0
2, 28740, Note_on_c, 0, 55, 73
2, 28748, Note_on_c, 0, 56, 89
2, 28748, Note_on_c, 0, 68, 83
2, 28752, Note_on_c, 0, 55, 0
2, 28764, Note_on_c, 0, 69, 0
2, 28773, Note_on_c, 0, 56, 0
2, 28773, Note_on_c, 0, 77, 91
2, 28776, Note_on_c, 0, 68, 0
2, 28778, Note_on_c, 0, 44, 103
2, 28797, Note_on_c, 0, 67, 104
2, 28798, Note_on_c, 0, 77, 0
2, 28798, Note_on_c, 0, 55, 92
2, 28803, Control_c, 0, 64, 0
2, 28809, Note_on_c, 0, 44, 0
2, 28813, Note_on_c, 0, 68, 95
2, 28815, Note_on_c, 0, 54, 86
2, 28817, Note_on_c, 0, 67, 0
2, 28820, Note_on_c, 0, 55, 0
2, 28830, Control_c, 0, 64, 127
2, 28838, Note_on_c, 0, 55, 84
2, 28839, Note_on_c, 0, 67, 71
2, 28852, Note_on_c, 0, 54, 0
2, 28855, Note_on_c, 0, 68, 0
2, 28859, Note_on_c, 0, 55, 0
2, 28862, Note_on_c, 0, 67, 0
2, 28863, Note_on_c, 0, 44, 86
2, 28863, Note_on_c, 0, 76, 99
2, 28878, Note_on_c, 0, 76, 0
2, 28883, Note_on_c, 0, 54, 61
2, 28884, Note_on_c, 0, 66, 101
2, 28890, Note_on_c, 0, 44, 0
2, 28902, Note_on_c, 0, 53, 69
2, 28905, Note_on_c, 0, 66, 0
2, 28905, Note_on_c, 0, 68, 86
2, 28907, Note_on_c, 0, 54, 0
2, 28919, Note_on_c, 0, 54, 84
2, 28920, Note_on_c, 0, 53, 0
2, 28923, Note_on_c, 0, 66, 86
2, 28937, Note_on_c, 0, 68, 0
2, 28937, Note_on_c, 0, 44, 75
2, 28940, Note_on_c, 0, 54, 0
2, 28945, Note_on_c, 0, 44, 0
2, 28948, Control_c, 0, 64, 0
2, 28952, Note_on_c, 0, 75, 76
2, 28955, Note_on_c, 0, 37, 103
2, 28959, Note_on_c, 0, 66, 0
2, 28979, Note_on_c, 0, 37, 0
2, 28982, Note_on_c, 0, 75, 0
2, 28992, Note_on_c, 0, 73, 108
2, 28994, Note_on_c, 0, 44, 108
2, 28995, Note_on_c, 0, 64, 95
2, 28997, Note_on_c, 0, 52, 102
2, 28999, Note_on_c, 0, 73, 0
2, 28999, Control_c, 0, 64, 127
2, 29002, Note_on_c, 0, 64, 0
2, 29005, Note_on_c, 0, 52, 0
2, 29006, Note_on_c, 0, 44, 0
2, 29053, Note_on_c, 0, 56, 84
2, 29082, Note_on_c, 0, 56, 0
2, 29082, Note_on_c, 0, 64, 64
2, 29092, Note_on_c, 0, 64, 0
2, 29097, Note_on_c, 0, 61, 95
2, 29107, Note_on_c, 0, 61, 0
2, 29121, Note_on_c, 0, 61, 89
2, 29142, Note_on_c, 0, 61, 0
2, 29149, Note_on_c, 0, 68, 90
2, 29164, Note_on_c, 0, 68, 0
2, 29173, Note_on_c, 0, 76, 73
2, 29183, Note_on_c, 0, 76, 0
2, 29188, Note_on_c, 0, 73, 97
2, 29195, Note_on_c, 0, 73, 0
2, 29211, Note_on_c, 0, 73, 71
2, 29221, Note_on_c, 0, 73, 0
2, 29226, Note_on_c, 0, 75, 16
2, 29238, Note_on_c, 0, 75, 0
2, 29238, Note_on_c, 0, 80, 86
2, 29248, Note_on_c, 0, 80, 0
2, 29257, Note_on_c, 0, 88, 92
2, 29277, Note_on_c, 0, 88, 0
2, 29277, Note_on_c, 0, 85, 95
2, 29284, Note_on_c, 0, 85, 0
2, 29296, Note_on_c, 0, 85, 98
2, 29307, Note_on_c, 0, 49, 86
2, 29321, Note_on_c, 0, 92, 97
2, 29325, Note_on_c, 0, 85, 0
2, 29334, Note_on_c, 0, 56, 83
2, 29341, Note_on_c, 0, 97, 102
2, 29349, Note_on_c, 0, 92, 0
2, 29350, Note_on_c, 0, 49, 0
2, 29365, Note_on_c, 0, 100, 105
2, 29366, Note_on_c, 0, 56, 0
2, 29367, Note_on_c, 0, 64, 113
2, 29383, Note_on_c, 0, 97, 0
2, 29385, Note_on_c, 0, 92, 101
2, 29386, Note_on_c, 0, 64, 0
2, 29390, Note_on_c, 0, 100, 0
2, 29410, Note_on_c, 0, 92, 0
2, 29410, Note_on_c, 0, 85, 105
2, 29422, Note_on_c, 0, 85, 0
2, 29436, Note_on_c, 0, 85, 97
2, 29463, Note_on_c, 0, 85, 0
2, 29463, Note_on_c, 0, 88, 80
2, 29483, Note_on_c, 0, 80, 98
2, 29485, Note_on_c, 0, 88, 0
2, 29497, Note_on_c, 0, 80, 0
2, 29506, Note_on_c, 0, 73, 105
2, 29518, Note_on_c, 0, 73, 0
2, 29529, Note_on_c, 0, 73, 97
2, 29555, Note_on_c, 0, 76, 91
2, 29575, Note_on_c, 0, 68, 95
2, 29577, Note_on_c, 0, 76, 0
2, 29580, Note_on_c, 0, 73, 0
2, 29599, Note_on_c, 0, 61, 100
2, 29604, Note_on_c, 0, 68, 0
2, 29614, Note_on_c, 0, 61, 0
2, 29628, Note_on_c, 0, 61, 98
2, 29652, Note_on_c, 0, 64, 90
2, 29675, Note_on_c, 0, 64, 0
2, 29678, Note_on_c, 0, 56, 91
2, 29686, Note_on_c, 0, 61, 0
2, 29700, Note_on_c, 0, 49, 102
2, 29704, Note_on_c, 0, 56, 0
2, 29718, Note_on_c, 0, 49, 0
2, 29731, Note_on_c, 0, 49, 101
2, 29757, Note_on_c, 0, 49, 0
2, 29757, Note_on_c, 0, 37, 118
2, 29782, Control_c, 0, 64, 0
2, 29859, Control_c, 0, 64, 127
2, 29868, Note_on_c, 0, 37, 0
2, 29944, Note_on_c, 0, 49, 94
2, 29959, Note_on_c, 0, 56, 36
2, 29973, Note_on_c, 0, 49, 0
2, 29980, Note_on_c, 0, 85, 111
2, 29981, Note_on_c, 0, 73, 109
2, 29982, Note_on_c, 0, 80, 99
2, 29983, Note_on_c, 0, 76, 109
2, 29985, Note_on_c, 0, 64, 113
2, 29993, Note_on_c, 0, 56, 0
2, 30001, Note_on_c, 0, 64, 0
2, 30012, Note_on_c, 0, 73, 0
2, 30028, Note_on_c, 0, 76, 0
2, 30035, Note_on_c, 0, 85, 0
2, 30049, Note_on_c, 0, 80, 0
2, 30223, Note_on_c, 0, 49, 108
2, 30223, Note_on_c, 0, 37, 114
2, 30223, Note_on_c, 0, 25, 112
2, 30223, Note_on_c, 0, 61, 106
2, 30244, Note_on_c, 0, 25, 0
2, 30245, Note_on_c, 0, 37, 0
2, 30257, Note_on_c, 0, 49, 0
2, 30257, Note_on_c, 0, 61, 0
2, 30264, Note_on_c, 0, 37, 97
2, 30265, Note_on_c, 0, 25, 101
2, 30267, Note_on_c, 0, 49, 107
2, 30268, Note_on_c, 0, 61, 111
2, 30796, Control_c, 0, 64, 0
2, 30804, Note_on_c, 0, 49, 0
2, 30811, Note_on_c, 0, 37, 0
2, 30811, Note_on_c, 0, 25, 0
2, 30817, Note_on_c, 0, 61, 0
2, 30817, End_track
0, 0, End_of_file
