0, 0, Header, 1, 2, 120
1, 0, Start_track
1, 0, Time_signature, 4, 2, 24, 8
1, 0, Key_signature, -6, "major"
1, 0, Tempo, 500000
1, 0, End_track
2, 0, Start_track
2, 0, MIDI_port, 0
2, 0, Title_t, "  "
2, 0, Control_c, 0, 64, 127
2, 0, Note_on_c, 0, 66, 55
2, 142, Note_on_c, 0, 66, 0
2, 161, Note_on_c, 0, 66, 62
2, 170, Note_on_c, 0, 58, 41
2, 172, Note_on_c, 0, 51, 31
2, 255, Note_on_c, 0, 59, 36
2, 265, Note_on_c, 0, 58, 0
2, 311, Note_on_c, 0, 59, 0
2, 318, Note_on_c, 0, 57, 36
2, 372, Note_on_c, 0, 59, 36
2, 373, Note_on_c, 0, 57, 0
2, 423, Note_on_c, 0, 58, 56
2, 430, Note_on_c, 0, 59, 0
2, 463, Control_c, 0, 64, 0
2, 473, Note_on_c, 0, 54, 55
2, 478, Note_on_c, 0, 58, 0
2, 526, Note_on_c, 0, 58, 54
2, 546, Note_on_c, 0, 54, 0
2, 588, Note_on_c, 0, 59, 38
2, 601, Note_on_c, 0, 58, 0
2, 625, Control_c, 0, 64, 127
2, 649, Note_on_c, 0, 57, 32
2, 652, Note_on_c, 0, 59, 0
2, 690, Control_c, 0, 64, 0
2, 714, Note_on_c, 0, 59, 42
2, 719, Note_on_c, 0, 57, 0
2, 759, Control_c, 0, 64, 127
2, 779, Note_on_c, 0, 65, 68
2, 789, Note_on_c, 0, 59, 0
2, 799, Note_on_c, 0, 58, 48
2, 818, Note_on_c, 0, 66, 0
2, 835, Note_on_c, 0, 51, 0
2, 846, Note_on_c, 0, 63, 76
2, 865, Note_on_c, 0, 58, 0
2, 890, Note_on_c, 0, 65, 0
2, 895, Note_on_c, 0, 53, 51
2, 934, Note_on_c, 0, 70, 91
2, 935, Note_on_c, 0, 59, 38
2, 948, Control_c, 0, 64, 0
2, 1017, Note_on_c, 0, 61, 43
2, 1028, Note_on_c, 0, 59, 0
2, 1078, Control_c, 0, 64, 127
2, 1081, Note_on_c, 0, 58, 56
2, 1084, Note_on_c, 0, 61, 0
2, 1098, Control_c, 0, 64, 0
2, 1140, Note_on_c, 0, 61, 41
2, 1146, Note_on_c, 0, 58, 0
2, 1199, Note_on_c, 0, 59, 35
2, 1200, Note_on_c, 0, 61, 0
2, 1253, Note_on_c, 0, 59, 0
2, 1254, Note_on_c, 0, 56, 48
2, 1320, Note_on_c, 0, 68, 64
2, 1329, Note_on_c, 0, 59, 39
2, 1330, Note_on_c, 0, 56, 0
2, 1343, Note_on_c, 0, 70, 0
2, 1394, Note_on_c, 0, 61, 40
2, 1401, Note_on_c, 0, 59, 0
2, 1413, Control_c, 0, 64, 127
2, 1452, Note_on_c, 0, 61, 0
2, 1452, Note_on_c, 0, 58, 50
2, 1495, Note_on_c, 0, 58, 0
2, 1506, Note_on_c, 0, 61, 40
2, 1550, Note_on_c, 0, 61, 0
2, 1560, Note_on_c, 0, 63, 0
2, 1569, Note_on_c, 0, 59, 49
2, 1604, Note_on_c, 0, 53, 0
2, 1625, Note_on_c, 0, 65, 83
2, 1627, Note_on_c, 0, 59, 0
2, 1633, Note_on_c, 0, 56, 31
2, 1669, Note_on_c, 0, 68, 0
2, 1710, Note_on_c, 0, 50, 56
2, 1720, Note_on_c, 0, 71, 87
2, 1751, Control_c, 0, 64, 0
2, 1769, Note_on_c, 0, 56, 0
2, 1791, Note_on_c, 0, 58, 59
2, 1831, Control_c, 0, 64, 127
2, 1849, Note_on_c, 0, 58, 0
2, 1857, Note_on_c, 0, 55, 47
2, 1915, Note_on_c, 0, 58, 53
2, 1918, Note_on_c, 0, 55, 0
2, 1932, Control_c, 0, 64, 0
2, 1974, Note_on_c, 0, 56, 51
2, 1978, Note_on_c, 0, 58, 0
2, 1996, Control_c, 0, 64, 127
2, 2004, Control_c, 0, 64, 0
2, 2031, Note_on_c, 0, 56, 0
2, 2037, Note_on_c, 0, 53, 41
2, 2094, Note_on_c, 0, 53, 0
2, 2094, Note_on_c, 0, 56, 40
2, 2153, Note_on_c, 0, 56, 0
2, 2154, Note_on_c, 0, 58, 42
2, 2196, Control_c, 0, 64, 127
2, 2208, Control_c, 0, 64, 0
2, 2218, Note_on_c, 0, 58, 0
2, 2229, Note_on_c, 0, 55, 32
2, 2296, Control_c, 0, 64, 127
2, 2301, Note_on_c, 0, 55, 0
2, 2301, Note_on_c, 0, 58, 44
2, 2343, Control_c, 0, 64, 0
2, 2369, Note_on_c, 0, 70, 56
2, 2377, Note_on_c, 0, 56, 34
2, 2378, Note_on_c, 0, 58, 0
2, 2379, Note_on_c, 0, 65, 0
2, 2389, Note_on_c, 0, 71, 0
2, 2415, Control_c, 0, 64, 127
2, 2440, Note_on_c, 0, 50, 0
2, 2447, Note_on_c, 0, 70, 0
2, 2450, Note_on_c, 0, 65, 62
2, 2538, Note_on_c, 0, 56, 0
2, 2545, Note_on_c, 0, 70, 54
2, 2551, Note_on_c, 0, 49, 35
2, 2555, Note_on_c, 0, 64, 38
2, 2556, Note_on_c, 0, 55, 21
2, 2557, Control_c, 0, 64, 0
2, 2566, Note_on_c, 0, 65, 0
2, 2634, Note_on_c, 0, 55, 0
2, 2634, Note_on_c, 0, 56, 38
2, 2677, Control_c, 0, 64, 127
2, 2700, Note_on_c, 0, 56, 0
2, 2703, Note_on_c, 0, 54, 31
2, 2761, Note_on_c, 0, 56, 39
2, 2763, Note_on_c, 0, 54, 0
2, 2809, Note_on_c, 0, 56, 0
2, 2823, Note_on_c, 0, 55, 36
2, 2857, Control_c, 0, 64, 0
2, 2883, Note_on_c, 0, 55, 0
2, 2886, Note_on_c, 0, 52, 38
2, 2907, Control_c, 0, 64, 127
2, 2941, Note_on_c, 0, 52, 0
2, 2953, Note_on_c, 0, 55, 38
2, 3009, Note_on_c, 0, 55, 0
2, 3009, Note_on_c, 0, 56, 38
2, 3066, Note_on_c, 0, 54, 37
2, 3067, Note_on_c, 0, 56, 0
2, 3096, Control_c, 0, 64, 0
2, 3127, Note_on_c, 0, 56, 47
2, 3133, Note_on_c, 0, 54, 0
2, 3142, Control_c, 0, 64, 127
2, 3203, Control_c, 0, 64, 0
2, 3214, Note_on_c, 0, 56, 0
2, 3214, Note_on_c, 0, 55, 37
2, 3253, Control_c, 0, 64, 127
2, 3280, Note_on_c, 0, 63, 66
2, 3287, Note_on_c, 0, 64, 0
2, 3319, Note_on_c, 0, 70, 0
2, 3349, Note_on_c, 0, 49, 0
2, 3363, Note_on_c, 0, 47, 37
2, 3388, Note_on_c, 0, 75, 91
2, 3398, Note_on_c, 0, 55, 0
2, 3453, Note_on_c, 0, 56, 50
2, 3510, Note_on_c, 0, 56, 0
2, 3515, Note_on_c, 0, 54, 44
2, 3569, Note_on_c, 0, 54, 0
2, 3573, Note_on_c, 0, 56, 50
2, 3627, Note_on_c, 0, 56, 0
2, 3631, Note_on_c, 0, 55, 55
2, 3684, Note_on_c, 0, 55, 0
2, 3687, Note_on_c, 0, 51, 47
2, 3753, Note_on_c, 0, 51, 0
2, 3754, Note_on_c, 0, 56, 48
2, 3775, Control_c, 0, 64, 0
2, 3829, Control_c, 0, 64, 127
2, 3831, Note_on_c, 0, 58, 63
2, 3836, Note_on_c, 0, 56, 0
2, 3897, Note_on_c, 0, 58, 0
2, 3903, Note_on_c, 0, 73, 73
2, 3913, Note_on_c, 0, 55, 27
2, 3932, Note_on_c, 0, 75, 0
2, 3963, Note_on_c, 0, 71, 67
2, 3967, Note_on_c, 0, 55, 0
2, 3969, Note_on_c, 0, 58, 54
2, 3987, Note_on_c, 0, 73, 0
2, 3997, Note_on_c, 0, 63, 0
2, 4015, Note_on_c, 0, 58, 0
2, 4016, Note_on_c, 0, 68, 77
2, 4023, Note_on_c, 0, 56, 49
2, 4032, Note_on_c, 0, 71, 0
2, 4062, Note_on_c, 0, 47, 0
2, 4070, Note_on_c, 0, 63, 79
2, 4071, Note_on_c, 0, 68, 0
2, 4131, Note_on_c, 0, 46, 62
2, 4135, Note_on_c, 0, 66, 81
2, 4135, Note_on_c, 0, 62, 60
2, 4140, Note_on_c, 0, 63, 0
2, 4144, Control_c, 0, 64, 0
2, 4151, Note_on_c, 0, 62, 0
2, 4175, Note_on_c, 0, 62, 12
2, 4183, Note_on_c, 0, 56, 0
2, 4197, Note_on_c, 0, 58, 69
2, 4237, Control_c, 0, 64, 127
2, 4243, Note_on_c, 0, 58, 0
2, 4252, Note_on_c, 0, 55, 54
2, 4300, Note_on_c, 0, 55, 0
2, 4308, Note_on_c, 0, 58, 55
2, 4345, Note_on_c, 0, 58, 0
2, 4374, Note_on_c, 0, 56, 40
2, 4413, Note_on_c, 0, 56, 0
2, 4439, Note_on_c, 0, 62, 0
2, 4447, Note_on_c, 0, 65, 53
2, 4453, Note_on_c, 0, 46, 0
2, 4455, Note_on_c, 0, 53, 39
2, 4468, Note_on_c, 0, 66, 0
2, 4495, Note_on_c, 0, 53, 0
2, 4509, Note_on_c, 0, 63, 57
2, 4512, Note_on_c, 0, 47, 48
2, 4518, Note_on_c, 0, 54, 26
2, 4528, Note_on_c, 0, 65, 0
2, 4529, Control_c, 0, 64, 0
2, 4561, Note_on_c, 0, 54, 0
2, 4572, Note_on_c, 0, 56, 46
2, 4613, Control_c, 0, 64, 127
2, 4622, Note_on_c, 0, 56, 0
2, 4630, Note_on_c, 0, 53, 39
2, 4678, Note_on_c, 0, 53, 0
2, 4682, Note_on_c, 0, 56, 45
2, 4714, Note_on_c, 0, 63, 0
2, 4722, Note_on_c, 0, 56, 0
2, 4746, Note_on_c, 0, 54, 29
2, 4754, Note_on_c, 0, 47, 0
2, 4771, Note_on_c, 0, 54, 0
2, 4808, Note_on_c, 0, 51, 47
2, 4837, Note_on_c, 0, 51, 0
2, 4883, Note_on_c, 0, 64, 91
2, 4885, Note_on_c, 0, 56, 55
2, 4887, Note_on_c, 0, 44, 53
2, 4890, Note_on_c, 0, 59, 41
2, 4897, Control_c, 0, 64, 0
2, 4950, Note_on_c, 0, 58, 67
2, 4952, Note_on_c, 0, 56, 0
2, 4982, Control_c, 0, 64, 127
2, 5006, Note_on_c, 0, 58, 0
2, 5013, Note_on_c, 0, 55, 47
2, 5033, Note_on_c, 0, 55, 0
2, 5067, Note_on_c, 0, 58, 55
2, 5096, Note_on_c, 0, 59, 0
2, 5117, Note_on_c, 0, 58, 0
2, 5128, Note_on_c, 0, 56, 52
2, 5132, Note_on_c, 0, 64, 0
2, 5134, Note_on_c, 0, 44, 0
2, 5198, Note_on_c, 0, 56, 0
2, 5203, Note_on_c, 0, 52, 40
2, 5224, Note_on_c, 0, 52, 0
2, 5281, Note_on_c, 0, 63, 50
2, 5283, Note_on_c, 0, 45, 49
2, 5284, Note_on_c, 0, 60, 43
2, 5286, Control_c, 0, 64, 0
2, 5286, Note_on_c, 0, 54, 37
2, 5352, Note_on_c, 0, 54, 0
2, 5355, Control_c, 0, 64, 127
2, 5363, Note_on_c, 0, 56, 44
2, 5417, Note_on_c, 0, 56, 0
2, 5427, Note_on_c, 0, 53, 46
2, 5449, Note_on_c, 0, 53, 0
2, 5480, Note_on_c, 0, 56, 52
2, 5487, Note_on_c, 0, 60, 0
2, 5535, Note_on_c, 0, 54, 46
2, 5538, Note_on_c, 0, 56, 0
2, 5560, Note_on_c, 0, 45, 0
2, 5588, Note_on_c, 0, 54, 0
2, 5592, Note_on_c, 0, 60, 62
2, 5594, Note_on_c, 0, 63, 0
2, 5655, Note_on_c, 0, 46, 48
2, 5677, Note_on_c, 0, 53, 18
2, 5681, Control_c, 0, 64, 0
2, 5683, Note_on_c, 0, 63, 60
2, 5685, Note_on_c, 0, 58, 50
2, 5686, Note_on_c, 0, 60, 0
2, 5762, Control_c, 0, 64, 127
2, 5777, Note_on_c, 0, 53, 0
2, 5787, Note_on_c, 0, 54, 32
2, 5793, Note_on_c, 0, 62, 41
2, 5805, Note_on_c, 0, 63, 0
2, 5853, Note_on_c, 0, 54, 0
2, 5866, Note_on_c, 0, 52, 36
2, 5919, Control_c, 0, 64, 0
2, 5926, Note_on_c, 0, 54, 28
2, 5927, Note_on_c, 0, 52, 0
2, 5989, Note_on_c, 0, 54, 0
2, 5992, Control_c, 0, 64, 127
2, 5993, Note_on_c, 0, 53, 31
2, 6027, Control_c, 0, 64, 0
2, 6063, Note_on_c, 0, 56, 34
2, 6068, Note_on_c, 0, 53, 0
2, 6077, Control_c, 0, 64, 127
2, 6109, Note_on_c, 0, 58, 0
2, 6142, Note_on_c, 0, 63, 56
2, 6144, Note_on_c, 0, 56, 0
2, 6144, Note_on_c, 0, 59, 41
2, 6148, Note_on_c, 0, 54, 28
2, 6161, Note_on_c, 0, 62, 0
2, 6214, Note_on_c, 0, 57, 43
2, 6215, Note_on_c, 0, 54, 0
2, 6232, Note_on_c, 0, 59, 0
2, 6262, Note_on_c, 0, 57, 0
2, 6270, Note_on_c, 0, 64, 82
2, 6274, Note_on_c, 0, 60, 65
2, 6275, Note_on_c, 0, 55, 52
2, 6292, Note_on_c, 0, 63, 0
2, 6328, Note_on_c, 0, 58, 71
2, 6336, Note_on_c, 0, 55, 0
2, 6378, Note_on_c, 0, 58, 0
2, 6378, Note_on_c, 0, 65, 94
2, 6379, Note_on_c, 0, 61, 70
2, 6382, Note_on_c, 0, 60, 0
2, 6382, Note_on_c, 0, 56, 61
2, 6394, Note_on_c, 0, 64, 0
2, 6429, Note_on_c, 0, 46, 0
2, 6439, Note_on_c, 0, 61, 0
2, 6441, Note_on_c, 0, 62, 62
2, 6441, Note_on_c, 0, 59, 65
2, 6445, Note_on_c, 0, 56, 0
2, 6498, Note_on_c, 0, 59, 0
2, 6511, Note_on_c, 0, 51, 67
2, 6519, Note_on_c, 0, 58, 61
2, 6522, Note_on_c, 0, 63, 55
2, 6522, Note_on_c, 0, 66, 79
2, 6523, Note_on_c, 0, 62, 0
2, 6534, Control_c, 0, 64, 0
2, 6552, Note_on_c, 0, 65, 0
2, 6603, Note_on_c, 0, 59, 38
2, 6606, Note_on_c, 0, 58, 0
2, 6664, Note_on_c, 0, 57, 34
2, 6673, Note_on_c, 0, 59, 0
2, 6684, Control_c, 0, 64, 127
2, 6723, Note_on_c, 0, 59, 41
2, 6727, Note_on_c, 0, 57, 0
2, 6784, Note_on_c, 0, 59, 0
2, 6784, Note_on_c, 0, 58, 53
2, 6843, Note_on_c, 0, 54, 48
2, 6844, Note_on_c, 0, 58, 0
2, 6906, Note_on_c, 0, 58, 52
2, 6923, Note_on_c, 0, 54, 0
2, 6941, Control_c, 0, 64, 0
2, 6974, Note_on_c, 0, 59, 40
2, 6985, Note_on_c, 0, 58, 0
2, 6995, Control_c, 0, 64, 127
2, 7034, Note_on_c, 0, 59, 0
2, 7038, Note_on_c, 0, 57, 39
2, 7092, Note_on_c, 0, 57, 0
2, 7102, Note_on_c, 0, 59, 38
2, 7155, Note_on_c, 0, 65, 66
2, 7161, Note_on_c, 0, 59, 0
2, 7170, Note_on_c, 0, 58, 57
2, 7173, Note_on_c, 0, 63, 0
2, 7186, Note_on_c, 0, 66, 0
2, 7195, Note_on_c, 0, 51, 0
2, 7216, Note_on_c, 0, 63, 71
2, 7237, Note_on_c, 0, 58, 0
2, 7256, Note_on_c, 0, 65, 0
2, 7274, Note_on_c, 0, 53, 43
2, 7287, Note_on_c, 0, 59, 38
2, 7310, Note_on_c, 0, 70, 82
2, 7333, Control_c, 0, 64, 0
2, 7393, Note_on_c, 0, 61, 39
2, 7402, Note_on_c, 0, 59, 0
2, 7459, Note_on_c, 0, 61, 0
2, 7461, Note_on_c, 0, 58, 55
2, 7476, Control_c, 0, 64, 127
2, 7517, Note_on_c, 0, 58, 0
2, 7521, Note_on_c, 0, 61, 50
2, 7576, Note_on_c, 0, 61, 0
2, 7578, Note_on_c, 0, 59, 49
2, 7630, Note_on_c, 0, 59, 0
2, 7635, Note_on_c, 0, 56, 52
2, 7692, Note_on_c, 0, 68, 71
2, 7699, Note_on_c, 0, 59, 44
2, 7702, Note_on_c, 0, 56, 0
2, 7736, Note_on_c, 0, 70, 0
2, 7740, Control_c, 0, 64, 0
2, 7753, Note_on_c, 0, 61, 46
2, 7765, Note_on_c, 0, 59, 0
2, 7810, Control_c, 0, 64, 127
2, 7815, Note_on_c, 0, 61, 0
2, 7815, Note_on_c, 0, 58, 64
2, 7866, Note_on_c, 0, 58, 0
2, 7869, Note_on_c, 0, 61, 64
2, 7915, Note_on_c, 0, 61, 0
2, 7926, Note_on_c, 0, 59, 54
2, 7972, Note_on_c, 0, 53, 0
2, 7983, Note_on_c, 0, 59, 0
2, 7986, Note_on_c, 0, 65, 87
2, 7990, Note_on_c, 0, 56, 53
2, 7991, Note_on_c, 0, 63, 0
2, 8069, Note_on_c, 0, 50, 77
2, 8077, Note_on_c, 0, 71, 84
2, 8083, Note_on_c, 0, 68, 0
2, 8101, Note_on_c, 0, 56, 0
2, 8106, Control_c, 0, 64, 0
2, 8146, Note_on_c, 0, 58, 62
2, 8206, Note_on_c, 0, 58, 0
2, 8209, Control_c, 0, 64, 127
2, 8212, Note_on_c, 0, 55, 49
2, 8271, Note_on_c, 0, 58, 51
2, 8272, Note_on_c, 0, 55, 0
2, 8286, Control_c, 0, 64, 0
2, 8329, Note_on_c, 0, 56, 51
2, 8334, Note_on_c, 0, 58, 0
2, 8340, Control_c, 0, 64, 127
2, 8374, Control_c, 0, 64, 0
2, 8385, Note_on_c, 0, 56, 0
2, 8390, Note_on_c, 0, 53, 51
2, 8405, Control_c, 0, 64, 127
2, 8413, Control_c, 0, 64, 0
2, 8446, Note_on_c, 0, 53, 0
2, 8446, Note_on_c, 0, 56, 48
2, 8506, Note_on_c, 0, 56, 0
2, 8506, Note_on_c, 0, 58, 46
2, 8509, Control_c, 0, 64, 127
2, 8536, Control_c, 0, 64, 0
2, 8569, Note_on_c, 0, 58, 0
2, 8570, Control_c, 0, 64, 127
2, 8584, Note_on_c, 0, 55, 21
2, 8586, Control_c, 0, 64, 0
2, 8647, Note_on_c, 0, 55, 0
2, 8649, Note_on_c, 0, 58, 37
2, 8689, Control_c, 0, 64, 127
2, 8728, Note_on_c, 0, 70, 50
2, 8731, Note_on_c, 0, 58, 0
2, 8736, Control_c, 0, 64, 0
2, 8737, Note_on_c, 0, 56, 34
2, 8742, Note_on_c, 0, 65, 0
2, 8752, Note_on_c, 0, 71, 0
2, 8778, Control_c, 0, 64, 127
2, 8784, Note_on_c, 0, 50, 0
2, 8805, Note_on_c, 0, 65, 59
2, 8806, Note_on_c, 0, 70, 0
2, 8845, Note_on_c, 0, 56, 0
2, 8900, Note_on_c, 0, 70, 53
2, 8904, Note_on_c, 0, 49, 36
2, 8910, Note_on_c, 0, 55, 28
2, 8910, Note_on_c, 0, 64, 37
2, 8914, Note_on_c, 0, 65, 0
2, 8924, Control_c, 0, 64, 0
2, 8985, Note_on_c, 0, 55, 0
2, 8988, Note_on_c, 0, 56, 29
2, 9012, Control_c, 0, 64, 127
2, 9051, Note_on_c, 0, 56, 0
2, 9057, Note_on_c, 0, 54, 26
2, 9114, Note_on_c, 0, 56, 38
2, 9115, Note_on_c, 0, 54, 0
2, 9169, Note_on_c, 0, 56, 0
2, 9177, Note_on_c, 0, 55, 33
2, 9231, Note_on_c, 0, 55, 0
2, 9234, Note_on_c, 0, 52, 43
2, 9290, Note_on_c, 0, 52, 0
2, 9302, Note_on_c, 0, 55, 41
2, 9331, Control_c, 0, 64, 0
2, 9364, Note_on_c, 0, 56, 39
2, 9367, Note_on_c, 0, 55, 0
2, 9381, Control_c, 0, 64, 127
2, 9423, Note_on_c, 0, 56, 0
2, 9423, Note_on_c, 0, 54, 33
2, 9487, Note_on_c, 0, 54, 0
2, 9495, Note_on_c, 0, 56, 30
2, 9527, Control_c, 0, 64, 0
2, 9581, Control_c, 0, 64, 127
2, 9584, Note_on_c, 0, 56, 0
2, 9588, Note_on_c, 0, 55, 27
2, 9638, Note_on_c, 0, 63, 53
2, 9640, Note_on_c, 0, 64, 0
2, 9670, Note_on_c, 0, 49, 0
2, 9684, Note_on_c, 0, 70, 0
2, 9707, Note_on_c, 0, 47, 43
2, 9737, Note_on_c, 0, 75, 94
2, 9750, Note_on_c, 0, 55, 0
2, 9799, Note_on_c, 0, 56, 52
2, 9859, Note_on_c, 0, 56, 0
2, 9861, Note_on_c, 0, 54, 43
2, 9910, Note_on_c, 0, 54, 0
2, 9914, Note_on_c, 0, 56, 47
2, 9959, Note_on_c, 0, 56, 0
2, 9971, Note_on_c, 0, 55, 48
2, 10028, Note_on_c, 0, 55, 0
2, 10028, Note_on_c, 0, 51, 48
2, 10106, Note_on_c, 0, 51, 0
2, 10107, Note_on_c, 0, 56, 58
2, 10119, Control_c, 0, 64, 0
2, 10176, Control_c, 0, 64, 127
2, 10183, Note_on_c, 0, 58, 64
2, 10190, Note_on_c, 0, 56, 0
2, 10240, Note_on_c, 0, 58, 0
2, 10245, Note_on_c, 0, 73, 77
2, 10251, Note_on_c, 0, 55, 45
2, 10273, Note_on_c, 0, 75, 0
2, 10307, Note_on_c, 0, 71, 73
2, 10310, Note_on_c, 0, 58, 57
2, 10316, Note_on_c, 0, 55, 0
2, 10329, Note_on_c, 0, 73, 0
2, 10347, Note_on_c, 0, 63, 0
2, 10363, Note_on_c, 0, 68, 78
2, 10367, Note_on_c, 0, 58, 0
2, 10373, Note_on_c, 0, 56, 52
2, 10381, Note_on_c, 0, 71, 0
2, 10418, Note_on_c, 0, 63, 86
2, 10421, Note_on_c, 0, 68, 0
2, 10431, Note_on_c, 0, 47, 0
2, 10486, Note_on_c, 0, 66, 80
2, 10488, Note_on_c, 0, 62, 56
2, 10491, Note_on_c, 0, 46, 63
2, 10492, Note_on_c, 0, 63, 0
2, 10503, Control_c, 0, 64, 0
2, 10521, Note_on_c, 0, 56, 0
2, 10552, Note_on_c, 0, 58, 63
2, 10603, Note_on_c, 0, 58, 0
2, 10611, Note_on_c, 0, 55, 46
2, 10670, Note_on_c, 0, 58, 47
2, 10676, Note_on_c, 0, 55, 0
2, 10747, Note_on_c, 0, 56, 43
2, 10748, Note_on_c, 0, 58, 0
2, 10760, Control_c, 0, 64, 127
2, 10804, Note_on_c, 0, 56, 0
2, 10820, Note_on_c, 0, 65, 52
2, 10828, Note_on_c, 0, 46, 0
2, 10829, Note_on_c, 0, 53, 38
2, 10862, Note_on_c, 0, 53, 0
2, 10870, Note_on_c, 0, 66, 0
2, 10882, Note_on_c, 0, 47, 50
2, 10883, Control_c, 0, 64, 0
2, 10884, Note_on_c, 0, 63, 50
2, 10896, Note_on_c, 0, 54, 20
2, 10924, Note_on_c, 0, 65, 0
2, 10938, Note_on_c, 0, 62, 0
2, 10945, Note_on_c, 0, 54, 0
2, 10950, Note_on_c, 0, 56, 44
2, 11001, Note_on_c, 0, 56, 0
2, 11004, Note_on_c, 0, 53, 50
2, 11029, Control_c, 0, 64, 127
2, 11062, Note_on_c, 0, 56, 41
2, 11068, Note_on_c, 0, 53, 0
2, 11113, Note_on_c, 0, 56, 0
2, 11124, Note_on_c, 0, 54, 38
2, 11128, Note_on_c, 0, 63, 0
2, 11140, Note_on_c, 0, 47, 0
2, 11178, Note_on_c, 0, 54, 0
2, 11184, Note_on_c, 0, 51, 39
2, 11208, Note_on_c, 0, 51, 0
2, 11250, Note_on_c, 0, 56, 70
2, 11250, Note_on_c, 0, 64, 89
2, 11251, Note_on_c, 0, 44, 52
2, 11252, Note_on_c, 0, 59, 44
2, 11263, Control_c, 0, 64, 0
2, 11317, Note_on_c, 0, 56, 0
2, 11318, Note_on_c, 0, 58, 64
2, 11367, Note_on_c, 0, 58, 0
2, 11377, Note_on_c, 0, 55, 47
2, 11383, Control_c, 0, 64, 127
2, 11409, Note_on_c, 0, 55, 0
2, 11437, Note_on_c, 0, 58, 51
2, 11459, Note_on_c, 0, 59, 0
2, 11505, Note_on_c, 0, 56, 47
2, 11513, Note_on_c, 0, 58, 0
2, 11542, Note_on_c, 0, 56, 0
2, 11547, Note_on_c, 0, 44, 0
2, 11571, Note_on_c, 0, 52, 41
2, 11658, Note_on_c, 0, 52, 0
2, 11659, Note_on_c, 0, 62, 73
2, 11661, Note_on_c, 0, 56, 41
2, 11664, Note_on_c, 0, 46, 55
2, 11671, Control_c, 0, 64, 0
2, 11671, Note_on_c, 0, 53, 36
2, 11715, Note_on_c, 0, 64, 0
2, 11743, Note_on_c, 0, 53, 0
2, 11750, Note_on_c, 0, 54, 39
2, 11816, Note_on_c, 0, 54, 0
2, 11821, Note_on_c, 0, 52, 35
2, 11884, Note_on_c, 0, 52, 0
2, 11887, Note_on_c, 0, 54, 34
2, 11952, Note_on_c, 0, 54, 0
2, 11962, Note_on_c, 0, 53, 35
2, 11978, Control_c, 0, 64, 127
2, 11979, Note_on_c, 0, 46, 0
2, 12052, Note_on_c, 0, 53, 0
2, 12057, Note_on_c, 0, 63, 46
2, 12059, Note_on_c, 0, 46, 54
2, 12064, Note_on_c, 0, 62, 0
2, 12108, Note_on_c, 0, 56, 0
2, 12125, Note_on_c, 0, 63, 0
2, 12174, Note_on_c, 0, 63, 44
2, 12177, Note_on_c, 0, 54, 31
2, 12178, Note_on_c, 0, 39, 43
2, 12250, Note_on_c, 0, 46, 0
2, 12262, Note_on_c, 0, 47, 45
2, 12330, Note_on_c, 0, 47, 0
2, 12330, Note_on_c, 0, 45, 66
2, 12393, Note_on_c, 0, 47, 58
2, 12395, Note_on_c, 0, 45, 0
2, 12449, Note_on_c, 0, 46, 83
2, 12457, Note_on_c, 0, 47, 0
2, 12506, Note_on_c, 0, 42, 70
2, 12510, Note_on_c, 0, 39, 0
2, 12521, Note_on_c, 0, 46, 0
2, 12567, Note_on_c, 0, 39, 76
2, 12577, Note_on_c, 0, 42, 0
2, 12625, Note_on_c, 0, 41, 72
2, 12639, Note_on_c, 0, 39, 0
2, 12688, Note_on_c, 0, 38, 75
2, 12693, Control_c, 0, 64, 0
2, 12703, Note_on_c, 0, 41, 0
2, 12743, Control_c, 0, 64, 127
2, 12748, Note_on_c, 0, 41, 63
2, 12797, Note_on_c, 0, 38, 0
2, 12820, Note_on_c, 0, 39, 65
2, 12842, Note_on_c, 0, 41, 0
2, 12889, Control_c, 0, 64, 0
2, 12904, Note_on_c, 0, 35, 59
2, 12924, Note_on_c, 0, 39, 0
2, 12942, Control_c, 0, 64, 127
2, 12943, Note_on_c, 0, 54, 0
2, 12957, Note_on_c, 0, 63, 0
2, 13012, Note_on_c, 0, 58, 65
2, 13013, Note_on_c, 0, 65, 74
2, 13014, Note_on_c, 0, 34, 59
2, 13015, Note_on_c, 0, 63, 57
2, 13015, Note_on_c, 0, 46, 57
2, 13039, Note_on_c, 0, 35, 0
2, 13062, Control_c, 0, 64, 0
2, 13094, Note_on_c, 0, 58, 0
2, 13097, Note_on_c, 0, 59, 46
2, 13151, Note_on_c, 0, 59, 0
2, 13152, Note_on_c, 0, 57, 59
2, 13181, Control_c, 0, 64, 127
2, 13207, Note_on_c, 0, 57, 0
2, 13212, Note_on_c, 0, 59, 45
2, 13254, Note_on_c, 0, 59, 0
2, 13263, Note_on_c, 0, 58, 74
2, 13281, Note_on_c, 0, 63, 0
2, 13286, Note_on_c, 0, 65, 0
2, 13297, Note_on_c, 0, 46, 0
2, 13317, Note_on_c, 0, 53, 78
2, 13325, Note_on_c, 0, 58, 0
2, 13351, Note_on_c, 0, 53, 0
2, 13373, Note_on_c, 0, 65, 95
2, 13374, Note_on_c, 0, 58, 69
2, 13378, Note_on_c, 0, 62, 56
2, 13380, Note_on_c, 0, 46, 75
2, 13404, Control_c, 0, 64, 0
2, 13434, Note_on_c, 0, 58, 0
2, 13434, Note_on_c, 0, 59, 62
2, 13446, Control_c, 0, 64, 127
2, 13470, Note_on_c, 0, 59, 0
2, 13473, Control_c, 0, 64, 0
2, 13486, Note_on_c, 0, 57, 74
2, 13511, Control_c, 0, 64, 127
2, 13515, Note_on_c, 0, 57, 0
2, 13521, Note_on_c, 0, 62, 0
2, 13528, Note_on_c, 0, 65, 0
2, 13539, Note_on_c, 0, 34, 0
2, 13540, Note_on_c, 0, 59, 60
2, 13549, Note_on_c, 0, 59, 0
2, 13602, Note_on_c, 0, 67, 101
2, 13602, Note_on_c, 0, 58, 83
2, 13605, Note_on_c, 0, 61, 58
2, 13621, Note_on_c, 0, 61, 0
2, 13636, Note_on_c, 0, 58, 0
2, 13637, Note_on_c, 0, 67, 0
2, 13659, Note_on_c, 0, 53, 71
2, 13719, Note_on_c, 0, 53, 0
2, 13719, Note_on_c, 0, 46, 0
2, 13734, Note_on_c, 0, 41, 54
2, 13737, Note_on_c, 0, 68, 85
2, 13739, Note_on_c, 0, 67, 67
2, 13745, Note_on_c, 0, 60, 51
2, 13745, Note_on_c, 0, 56, 43
2, 13747, Note_on_c, 0, 66, 31
2, 13753, Control_c, 0, 64, 0
2, 13808, Note_on_c, 0, 55, 68
2, 13869, Note_on_c, 0, 52, 68
2, 13871, Note_on_c, 0, 55, 0
2, 13876, Control_c, 0, 64, 127
2, 13918, Note_on_c, 0, 41, 0
2, 13929, Note_on_c, 0, 52, 0
2, 13930, Note_on_c, 0, 55, 75
2, 13940, Note_on_c, 0, 60, 0
2, 13948, Note_on_c, 0, 67, 0
2, 13979, Note_on_c, 0, 53, 79
2, 13980, Note_on_c, 0, 56, 0
2, 13980, Note_on_c, 0, 55, 0
2, 13999, Note_on_c, 0, 66, 0
2, 14002, Note_on_c, 0, 68, 0
2, 14029, Note_on_c, 0, 48, 95
2, 14037, Note_on_c, 0, 53, 0
2, 14085, Note_on_c, 0, 68, 85
2, 14085, Note_on_c, 0, 56, 69
2, 14087, Note_on_c, 0, 48, 0
2, 14088, Note_on_c, 0, 47, 73
2, 14090, Note_on_c, 0, 65, 72
2, 14091, Note_on_c, 0, 62, 51
2, 14138, Note_on_c, 0, 48, 82
2, 14143, Note_on_c, 0, 47, 0
2, 14192, Note_on_c, 0, 46, 96
2, 14196, Note_on_c, 0, 48, 0
2, 14238, Note_on_c, 0, 62, 0
2, 14250, Note_on_c, 0, 48, 89
2, 14258, Note_on_c, 0, 46, 0
2, 14302, Control_c, 0, 64, 0
2, 14305, Note_on_c, 0, 47, 77
2, 14311, Note_on_c, 0, 48, 0
2, 14356, Control_c, 0, 64, 127
2, 14371, Note_on_c, 0, 35, 75
2, 14386, Note_on_c, 0, 65, 0
2, 14416, Note_on_c, 0, 47, 0
2, 14416, Note_on_c, 0, 56, 0
2, 14424, Note_on_c, 0, 68, 0
2, 14457, Note_on_c, 0, 67, 100
2, 14457, Note_on_c, 0, 36, 84
2, 14460, Note_on_c, 0, 62, 71
2, 14460, Note_on_c, 0, 65, 80
2, 14469, Note_on_c, 0, 35, 0
2, 14491, Control_c, 0, 64, 0
2, 14533, Note_on_c, 0, 63, 63
2, 14541, Note_on_c, 0, 62, 0
2, 14588, Note_on_c, 0, 61, 67
2, 14593, Note_on_c, 0, 63, 0
2, 14644, Note_on_c, 0, 63, 73
2, 14652, Control_c, 0, 64, 127
2, 14666, Note_on_c, 0, 61, 0
2, 14696, Note_on_c, 0, 62, 80
2, 14710, Note_on_c, 0, 65, 0
2, 14714, Note_on_c, 0, 63, 0
2, 14724, Note_on_c, 0, 62, 0
2, 14739, Note_on_c, 0, 67, 0
2, 14748, Note_on_c, 0, 55, 74
2, 14792, Note_on_c, 0, 55, 0
2, 14806, Note_on_c, 0, 67, 99
2, 14807, Note_on_c, 0, 64, 87
2, 14807, Note_on_c, 0, 48, 94
2, 14808, Note_on_c, 0, 60, 72
2, 14852, Control_c, 0, 64, 0
2, 14863, Note_on_c, 0, 62, 74
2, 14883, Note_on_c, 0, 60, 0
2, 14916, Note_on_c, 0, 59, 81
2, 14920, Note_on_c, 0, 62, 0
2, 14926, Note_on_c, 0, 36, 0
2, 14929, Control_c, 0, 64, 127
2, 14968, Note_on_c, 0, 62, 95
2, 14976, Note_on_c, 0, 59, 0
2, 14979, Note_on_c, 0, 67, 0
2, 14984, Note_on_c, 0, 64, 0
2, 14990, Note_on_c, 0, 62, 0
2, 15021, Note_on_c, 0, 69, 109
2, 15023, Note_on_c, 0, 63, 90
2, 15028, Note_on_c, 0, 60, 68
2, 15059, Note_on_c, 0, 60, 0
2, 15062, Note_on_c, 0, 69, 0
2, 15068, Note_on_c, 0, 63, 0
2, 15073, Note_on_c, 0, 55, 93
2, 15085, Note_on_c, 0, 48, 0
2, 15120, Note_on_c, 0, 43, 90
2, 15127, Note_on_c, 0, 55, 0
2, 15130, Note_on_c, 0, 69, 89
2, 15133, Note_on_c, 0, 62, 62
2, 15133, Note_on_c, 0, 70, 109
2, 15136, Note_on_c, 0, 58, 70
2, 15156, Control_c, 0, 64, 0
2, 15183, Note_on_c, 0, 57, 88
2, 15239, Note_on_c, 0, 54, 81
2, 15246, Note_on_c, 0, 57, 0
2, 15274, Note_on_c, 0, 43, 0
2, 15274, Control_c, 0, 64, 127
2, 15295, Note_on_c, 0, 57, 87
2, 15302, Note_on_c, 0, 54, 0
2, 15329, Note_on_c, 0, 62, 0
2, 15330, Note_on_c, 0, 69, 0
2, 15349, Note_on_c, 0, 55, 97
2, 15355, Note_on_c, 0, 57, 0
2, 15361, Note_on_c, 0, 58, 0
2, 15379, Note_on_c, 0, 70, 0
2, 15397, Note_on_c, 0, 50, 97
2, 15409, Note_on_c, 0, 55, 0
2, 15450, Note_on_c, 0, 70, 106
2, 15452, Note_on_c, 0, 49, 80
2, 15453, Note_on_c, 0, 50, 0
2, 15453, Note_on_c, 0, 58, 81
2, 15456, Note_on_c, 0, 67, 75
2, 15458, Note_on_c, 0, 64, 58
2, 15498, Note_on_c, 0, 49, 0
2, 15503, Note_on_c, 0, 50, 92
2, 15556, Note_on_c, 0, 48, 94
2, 15563, Note_on_c, 0, 50, 0
2, 15608, Note_on_c, 0, 50, 92
2, 15619, Note_on_c, 0, 48, 0
2, 15670, Note_on_c, 0, 49, 86
2, 15681, Note_on_c, 0, 50, 0
2, 15685, Control_c, 0, 64, 0
2, 15721, Note_on_c, 0, 67, 0
2, 15736, Note_on_c, 0, 43, 90
2, 15739, Control_c, 0, 64, 127
2, 15746, Note_on_c, 0, 49, 0
2, 15759, Note_on_c, 0, 64, 0
2, 15769, Note_on_c, 0, 58, 0
2, 15811, Note_on_c, 0, 70, 0
2, 15822, Note_on_c, 0, 43, 0
2, 15829, Note_on_c, 0, 71, 80
2, 15834, Note_on_c, 0, 44, 54
2, 15835, Note_on_c, 0, 64, 56
2, 15838, Note_on_c, 0, 59, 29
2, 15859, Control_c, 0, 64, 0
2, 15913, Note_on_c, 0, 66, 55
2, 15919, Note_on_c, 0, 64, 0
2, 15988, Note_on_c, 0, 66, 0
2, 15988, Note_on_c, 0, 63, 51
2, 16063, Note_on_c, 0, 66, 42
2, 16071, Note_on_c, 0, 63, 0
2, 16090, Note_on_c, 0, 59, 0
2, 16123, Control_c, 0, 64, 127
2, 16127, Note_on_c, 0, 66, 0
2, 16130, Note_on_c, 0, 64, 41
2, 16152, Note_on_c, 0, 64, 0
2, 16181, Note_on_c, 0, 71, 0
2, 16191, Note_on_c, 0, 59, 23
2, 16243, Note_on_c, 0, 44, 0
2, 16249, Note_on_c, 0, 69, 68
2, 16252, Note_on_c, 0, 49, 28
2, 16256, Note_on_c, 0, 37, 29
2, 16261, Note_on_c, 0, 64, 29
2, 16292, Note_on_c, 0, 64, 0
2, 16324, Note_on_c, 0, 66, 43
2, 16330, Note_on_c, 0, 59, 0
2, 16376, Note_on_c, 0, 66, 0
2, 16380, Note_on_c, 0, 63, 42
2, 16385, Control_c, 0, 64, 0
2, 16434, Note_on_c, 0, 66, 52
2, 16435, Control_c, 0, 64, 127
2, 16444, Note_on_c, 0, 63, 0
2, 16481, Control_c, 0, 64, 0
2, 16487, Note_on_c, 0, 68, 71
2, 16488, Note_on_c, 0, 66, 0
2, 16491, Note_on_c, 0, 64, 51
2, 16507, Note_on_c, 0, 69, 0
2, 16519, Note_on_c, 0, 64, 0
2, 16519, Control_c, 0, 64, 127
2, 16521, Note_on_c, 0, 49, 0
2, 16539, Note_on_c, 0, 68, 0
2, 16554, Note_on_c, 0, 59, 31
2, 16558, Note_on_c, 0, 37, 0
2, 16594, Note_on_c, 0, 59, 0
2, 16618, Note_on_c, 0, 68, 69
2, 16623, Note_on_c, 0, 64, 44
2, 16623, Note_on_c, 0, 61, 32
2, 16630, Note_on_c, 0, 30, 16
2, 16631, Note_on_c, 0, 42, 23
2, 16693, Note_on_c, 0, 61, 0
2, 16696, Note_on_c, 0, 63, 33
2, 16753, Note_on_c, 0, 63, 0
2, 16760, Note_on_c, 0, 60, 39
2, 16773, Control_c, 0, 64, 0
2, 16812, Control_c, 0, 64, 127
2, 16821, Note_on_c, 0, 63, 43
2, 16825, Note_on_c, 0, 60, 0
2, 16837, Note_on_c, 0, 64, 0
2, 16845, Note_on_c, 0, 63, 0
2, 16872, Note_on_c, 0, 68, 0
2, 16876, Note_on_c, 0, 61, 39
2, 16905, Note_on_c, 0, 42, 0
2, 16915, Note_on_c, 0, 30, 0
2, 16918, Note_on_c, 0, 61, 0
2, 16926, Note_on_c, 0, 57, 38
2, 16951, Note_on_c, 0, 57, 0
2, 16980, Note_on_c, 0, 66, 52
2, 16984, Note_on_c, 0, 44, 21
2, 16988, Note_on_c, 0, 61, 31
2, 16989, Note_on_c, 0, 32, 29
2, 16994, Note_on_c, 0, 64, 23
2, 17044, Note_on_c, 0, 63, 35
2, 17050, Note_on_c, 0, 61, 0
2, 17068, Note_on_c, 0, 64, 0
2, 17088, Control_c, 0, 64, 0
2, 17095, Note_on_c, 0, 63, 0
2, 17100, Note_on_c, 0, 60, 37
2, 17107, Note_on_c, 0, 64, 10
2, 17130, Control_c, 0, 64, 127
2, 17154, Note_on_c, 0, 63, 31
2, 17160, Note_on_c, 0, 60, 0
2, 17162, Note_on_c, 0, 64, 0
2, 17167, Note_on_c, 0, 44, 0
2, 17173, Note_on_c, 0, 32, 0
2, 17184, Note_on_c, 0, 63, 0
2, 17206, Note_on_c, 0, 61, 41
2, 17208, Note_on_c, 0, 66, 0
2, 17210, Note_on_c, 0, 33, 53
2, 17217, Note_on_c, 0, 45, 28
2, 17224, Note_on_c, 0, 61, 0
2, 17264, Note_on_c, 0, 54, 57
2, 17276, Note_on_c, 0, 54, 0
2, 17279, Note_on_c, 0, 33, 0
2, 17286, Note_on_c, 0, 45, 0
2, 17352, Note_on_c, 0, 69, 87
2, 17355, Note_on_c, 0, 64, 52
2, 17356, Note_on_c, 0, 61, 52
2, 17359, Note_on_c, 0, 47, 30
2, 17360, Note_on_c, 0, 35, 25
2, 17361, Control_c, 0, 64, 0
2, 17428, Note_on_c, 0, 63, 38
2, 17449, Note_on_c, 0, 61, 0
2, 17479, Note_on_c, 0, 63, 0
2, 17484, Note_on_c, 0, 60, 50
2, 17499, Control_c, 0, 64, 127
2, 17510, Note_on_c, 0, 60, 0
2, 17533, Note_on_c, 0, 69, 0
2, 17537, Note_on_c, 0, 63, 43
2, 17541, Note_on_c, 0, 64, 0
2, 17582, Note_on_c, 0, 47, 0
2, 17583, Note_on_c, 0, 63, 0
2, 17586, Note_on_c, 0, 61, 52
2, 17600, Note_on_c, 0, 61, 0
2, 17634, Note_on_c, 0, 54, 63
2, 17647, Note_on_c, 0, 54, 0
2, 17692, Note_on_c, 0, 68, 80
2, 17695, Control_c, 0, 64, 0
2, 17697, Note_on_c, 0, 63, 46
2, 17700, Note_on_c, 0, 59, 43
2, 17704, Note_on_c, 0, 47, 34
2, 17757, Note_on_c, 0, 59, 0
2, 17757, Note_on_c, 0, 61, 46
2, 17783, Note_on_c, 0, 63, 0
2, 17803, Control_c, 0, 64, 127
2, 17811, Note_on_c, 0, 57, 20
2, 17813, Note_on_c, 0, 61, 0
2, 17835, Note_on_c, 0, 47, 0
2, 17851, Note_on_c, 0, 57, 0
2, 17856, Note_on_c, 0, 61, 53
2, 17858, Note_on_c, 0, 68, 0
2, 17899, Note_on_c, 0, 35, 0
2, 17910, Note_on_c, 0, 61, 0
2, 17916, Note_on_c, 0, 47, 33
2, 17922, Note_on_c, 0, 66, 75
2, 17930, Note_on_c, 0, 59, 19
2, 17932, Note_on_c, 0, 47, 0
2, 17934, Note_on_c, 0, 63, 19
2, 17947, Note_on_c, 0, 59, 0
2, 17956, Note_on_c, 0, 63, 0
2, 17980, Note_on_c, 0, 66, 0
2, 17982, Note_on_c, 0, 54, 39
2, 18015, Note_on_c, 0, 54, 0
2, 18027, Note_on_c, 0, 40, 25
2, 18033, Note_on_c, 0, 47, 34
2, 18048, Note_on_c, 0, 66, 65
2, 18049, Control_c, 0, 64, 0
2, 18053, Note_on_c, 0, 63, 45
2, 18058, Note_on_c, 0, 59, 34
2, 18127, Note_on_c, 0, 59, 0
2, 18132, Note_on_c, 0, 61, 33
2, 18137, Control_c, 0, 64, 127
2, 18164, Note_on_c, 0, 61, 0
2, 18176, Note_on_c, 0, 63, 0
2, 18191, Note_on_c, 0, 57, 25
2, 18215, Note_on_c, 0, 57, 0
2, 18238, Note_on_c, 0, 66, 0
2, 18251, Note_on_c, 0, 61, 42
2, 18267, Note_on_c, 0, 61, 0
2, 18308, Note_on_c, 0, 68, 42
2, 18314, Note_on_c, 0, 64, 36
2, 18317, Note_on_c, 0, 59, 16
2, 18332, Note_on_c, 0, 64, 0
2, 18335, Note_on_c, 0, 59, 0
2, 18366, Note_on_c, 0, 56, 50
2, 18370, Note_on_c, 0, 68, 0
2, 18384, Note_on_c, 0, 56, 0
2, 18426, Note_on_c, 0, 68, 51
2, 18429, Note_on_c, 0, 64, 31
2, 18430, Note_on_c, 0, 59, 36
2, 18446, Note_on_c, 0, 59, 0
2, 18493, Note_on_c, 0, 61, 29
2, 18542, Note_on_c, 0, 61, 0
2, 18544, Note_on_c, 0, 57, 36
2, 18602, Note_on_c, 0, 61, 34
2, 18605, Note_on_c, 0, 57, 0
2, 18660, Control_c, 0, 64, 0
2, 18664, Note_on_c, 0, 59, 34
2, 18683, Note_on_c, 0, 61, 0
2, 18702, Control_c, 0, 64, 127
2, 18716, Note_on_c, 0, 47, 0
2, 18716, Note_on_c, 0, 40, 0
2, 18720, Note_on_c, 0, 56, 46
2, 18723, Note_on_c, 0, 59, 0
2, 18724, Note_on_c, 0, 68, 0
2, 18736, Note_on_c, 0, 64, 0
2, 18764, Note_on_c, 0, 56, 0
2, 18804, Note_on_c, 0, 68, 79
2, 18810, Note_on_c, 0, 48, 37
2, 18811, Note_on_c, 0, 63, 47
2, 18811, Note_on_c, 0, 36, 42
2, 18814, Note_on_c, 0, 66, 45
2, 18879, Note_on_c, 0, 64, 51
2, 18883, Note_on_c, 0, 63, 0
2, 18923, Note_on_c, 0, 64, 0
2, 18927, Note_on_c, 0, 62, 54
2, 18981, Note_on_c, 0, 64, 72
2, 18984, Note_on_c, 0, 62, 0
2, 19033, Note_on_c, 0, 63, 61
2, 19037, Note_on_c, 0, 64, 0
2, 19045, Note_on_c, 0, 66, 0
2, 19065, Note_on_c, 0, 48, 0
2, 19067, Note_on_c, 0, 68, 0
2, 19072, Note_on_c, 0, 63, 0
2, 19083, Note_on_c, 0, 56, 79
2, 19088, Note_on_c, 0, 36, 0
2, 19114, Note_on_c, 0, 56, 0
2, 19139, Note_on_c, 0, 68, 90
2, 19140, Note_on_c, 0, 61, 65
2, 19144, Note_on_c, 0, 49, 64
2, 19144, Note_on_c, 0, 64, 73
2, 19146, Note_on_c, 0, 37, 57
2, 19198, Note_on_c, 0, 63, 68
2, 19207, Note_on_c, 0, 61, 0
2, 19249, Note_on_c, 0, 60, 73
2, 19255, Note_on_c, 0, 63, 0
2, 19282, Note_on_c, 0, 64, 0
2, 19302, Note_on_c, 0, 63, 69
2, 19313, Note_on_c, 0, 60, 0
2, 19317, Note_on_c, 0, 68, 0
2, 19341, Note_on_c, 0, 63, 0
2, 19353, Note_on_c, 0, 68, 96
2, 19357, Note_on_c, 0, 61, 66
2, 19359, Note_on_c, 0, 64, 72
2, 19370, Note_on_c, 0, 64, 0
2, 19372, Note_on_c, 0, 61, 0
2, 19402, Note_on_c, 0, 56, 76
2, 19408, Note_on_c, 0, 68, 0
2, 19411, Note_on_c, 0, 56, 0
2, 19427, Note_on_c, 0, 49, 0
2, 19452, Note_on_c, 0, 37, 0
2, 19485, Note_on_c, 0, 73, 97
2, 19492, Note_on_c, 0, 63, 60
2, 19492, Note_on_c, 0, 68, 43
2, 19495, Note_on_c, 0, 44, 58
2, 19500, Note_on_c, 0, 32, 40
2, 19529, Note_on_c, 0, 63, 0
2, 19563, Note_on_c, 0, 64, 61
2, 19601, Control_c, 0, 64, 0
2, 19624, Note_on_c, 0, 64, 0
2, 19629, Note_on_c, 0, 62, 49
2, 19643, Note_on_c, 0, 32, 0
2, 19651, Control_c, 0, 64, 127
2, 19674, Note_on_c, 0, 62, 0
2, 19687, Note_on_c, 0, 64, 58
2, 19706, Note_on_c, 0, 64, 0
2, 19737, Note_on_c, 0, 63, 60
2, 19767, Note_on_c, 0, 63, 0
2, 19768, Note_on_c, 0, 68, 0
2, 19787, Note_on_c, 0, 73, 0
2, 19788, Note_on_c, 0, 56, 48
2, 19845, Note_on_c, 0, 72, 80
2, 19846, Note_on_c, 0, 68, 51
2, 19848, Note_on_c, 0, 63, 50
2, 19870, Control_c, 0, 64, 0
2, 19894, Note_on_c, 0, 63, 0
2, 19905, Note_on_c, 0, 64, 55
2, 19931, Control_c, 0, 64, 127
2, 19951, Note_on_c, 0, 72, 0
2, 19952, Note_on_c, 0, 68, 0
2, 19953, Note_on_c, 0, 64, 0
2, 19964, Note_on_c, 0, 62, 45
2, 20013, Note_on_c, 0, 62, 0
2, 20020, Note_on_c, 0, 64, 34
2, 20029, Note_on_c, 0, 56, 0
2, 20065, Note_on_c, 0, 64, 0
2, 20077, Note_on_c, 0, 63, 40
2, 20095, Note_on_c, 0, 63, 0
2, 20123, Note_on_c, 0, 44, 0
2, 20135, Note_on_c, 0, 56, 55
2, 20206, Note_on_c, 0, 56, 0
2, 20209, Note_on_c, 0, 68, 72
2, 20217, Note_on_c, 0, 36, 31
2, 20217, Note_on_c, 0, 48, 42
2, 20221, Note_on_c, 0, 63, 29
2, 20221, Note_on_c, 0, 66, 42
2, 20254, Control_c, 0, 64, 0
2, 20281, Note_on_c, 0, 64, 58
2, 20289, Note_on_c, 0, 63, 0
2, 20311, Control_c, 0, 64, 127
2, 20327, Note_on_c, 0, 62, 55
2, 20328, Note_on_c, 0, 64, 0
2, 20376, Note_on_c, 0, 62, 0
2, 20378, Note_on_c, 0, 64, 48
2, 20405, Note_on_c, 0, 66, 0
2, 20425, Note_on_c, 0, 64, 0
2, 20429, Note_on_c, 0, 63, 53
2, 20453, Note_on_c, 0, 68, 0
2, 20455, Note_on_c, 0, 48, 0
2, 20469, Note_on_c, 0, 63, 0
2, 20480, Note_on_c, 0, 56, 69
2, 20485, Note_on_c, 0, 36, 0
2, 20513, Note_on_c, 0, 56, 0
2, 20534, Note_on_c, 0, 68, 81
2, 20537, Note_on_c, 0, 49, 44
2, 20537, Note_on_c, 0, 61, 56
2, 20538, Note_on_c, 0, 37, 46
2, 20541, Note_on_c, 0, 64, 62
2, 20593, Note_on_c, 0, 63, 66
2, 20607, Note_on_c, 0, 61, 0
2, 20631, Control_c, 0, 64, 0
2, 20641, Note_on_c, 0, 60, 77
2, 20650, Note_on_c, 0, 63, 0
2, 20673, Control_c, 0, 64, 127
2, 20692, Note_on_c, 0, 64, 0
2, 20692, Note_on_c, 0, 63, 78
2, 20705, Note_on_c, 0, 68, 0
2, 20712, Note_on_c, 0, 60, 0
2, 20731, Note_on_c, 0, 63, 0
2, 20750, Note_on_c, 0, 68, 97
2, 20752, Note_on_c, 0, 64, 84
2, 20752, Note_on_c, 0, 61, 69
2, 20776, Control_c, 0, 64, 0
2, 20795, Note_on_c, 0, 64, 0
2, 20803, Control_c, 0, 64, 127
2, 20805, Note_on_c, 0, 49, 0
2, 20806, Note_on_c, 0, 56, 79
2, 20808, Note_on_c, 0, 61, 0
2, 20814, Note_on_c, 0, 68, 0
2, 20816, Note_on_c, 0, 37, 0
2, 20817, Note_on_c, 0, 56, 0
2, 20886, Note_on_c, 0, 76, 110
2, 20889, Note_on_c, 0, 72, 89
2, 20889, Note_on_c, 0, 44, 59
2, 20889, Note_on_c, 0, 68, 75
2, 20891, Note_on_c, 0, 32, 52
2, 20943, Note_on_c, 0, 68, 0
2, 20961, Note_on_c, 0, 69, 68
2, 21006, Note_on_c, 0, 69, 0
2, 21018, Note_on_c, 0, 67, 54
2, 21064, Control_c, 0, 64, 0
2, 21072, Note_on_c, 0, 69, 59
2, 21087, Note_on_c, 0, 67, 0
2, 21099, Control_c, 0, 64, 127
2, 21106, Note_on_c, 0, 76, 0
2, 21115, Note_on_c, 0, 72, 0
2, 21123, Note_on_c, 0, 68, 66
2, 21127, Note_on_c, 0, 69, 0
2, 21145, Note_on_c, 0, 68, 0
2, 21171, Note_on_c, 0, 63, 56
2, 21204, Note_on_c, 0, 63, 0
2, 21230, Note_on_c, 0, 75, 71
2, 21237, Note_on_c, 0, 68, 52
2, 21240, Note_on_c, 0, 72, 55
2, 21296, Note_on_c, 0, 68, 0
2, 21303, Note_on_c, 0, 69, 56
2, 21349, Note_on_c, 0, 69, 0
2, 21355, Note_on_c, 0, 67, 61
2, 21411, Note_on_c, 0, 67, 0
2, 21414, Note_on_c, 0, 69, 58
2, 21414, Control_c, 0, 64, 0
2, 21464, Control_c, 0, 64, 127
2, 21471, Note_on_c, 0, 72, 0
2, 21475, Note_on_c, 0, 68, 45
2, 21478, Note_on_c, 0, 69, 0
2, 21483, Note_on_c, 0, 75, 0
2, 21511, Note_on_c, 0, 68, 0
2, 21515, Note_on_c, 0, 32, 0
2, 21527, Note_on_c, 0, 44, 0
2, 21541, Note_on_c, 0, 63, 29
2, 21567, Note_on_c, 0, 63, 0
2, 21626, Note_on_c, 0, 68, 61
2, 21633, Note_on_c, 0, 63, 37
2, 21636, Note_on_c, 0, 66, 36
2, 21639, Note_on_c, 0, 36, 36
2, 21640, Note_on_c, 0, 48, 14
2, 21660, Control_c, 0, 64, 0
2, 21700, Note_on_c, 0, 63, 0
2, 21705, Note_on_c, 0, 64, 44
2, 21758, Note_on_c, 0, 62, 37
2, 21759, Note_on_c, 0, 64, 0
2, 21779, Control_c, 0, 64, 127
2, 21813, Note_on_c, 0, 62, 0
2, 21820, Note_on_c, 0, 64, 42
2, 21834, Note_on_c, 0, 66, 0
2, 21846, Note_on_c, 0, 64, 0
2, 21871, Note_on_c, 0, 63, 42
2, 21890, Note_on_c, 0, 68, 0
2, 21892, Note_on_c, 0, 36, 0
2, 21893, Note_on_c, 0, 63, 0
2, 21895, Note_on_c, 0, 48, 0
2, 21927, Note_on_c, 0, 56, 57
2, 21941, Note_on_c, 0, 56, 0
2, 22008, Note_on_c, 0, 68, 59
2, 22008, Note_on_c, 0, 65, 58
2, 22008, Note_on_c, 0, 71, 76
2, 22014, Note_on_c, 0, 51, 48
2, 22015, Note_on_c, 0, 39, 50
2, 22075, Note_on_c, 0, 66, 61
2, 22081, Note_on_c, 0, 65, 0
2, 22083, Control_c, 0, 64, 0
2, 22132, Note_on_c, 0, 64, 62
2, 22134, Note_on_c, 0, 66, 0
2, 22157, Note_on_c, 0, 68, 0
2, 22185, Note_on_c, 0, 66, 62
2, 22186, Control_c, 0, 64, 127
2, 22200, Note_on_c, 0, 71, 0
2, 22213, Note_on_c, 0, 66, 0
2, 22215, Note_on_c, 0, 64, 0
2, 22239, Note_on_c, 0, 65, 70
2, 22241, Note_on_c, 0, 71, 78
2, 22243, Note_on_c, 0, 68, 52
2, 22254, Note_on_c, 0, 65, 0
2, 22275, Note_on_c, 0, 68, 0
2, 22280, Note_on_c, 0, 71, 0
2, 22289, Note_on_c, 0, 59, 58
2, 22307, Note_on_c, 0, 59, 0
2, 22307, Note_on_c, 0, 51, 0
2, 22311, Note_on_c, 0, 39, 0
2, 22344, Note_on_c, 0, 71, 79
2, 22347, Note_on_c, 0, 68, 62
2, 22347, Note_on_c, 0, 50, 62
2, 22348, Note_on_c, 0, 65, 63
2, 22349, Note_on_c, 0, 38, 62
2, 22369, Note_on_c, 0, 65, 0
2, 22378, Control_c, 0, 64, 0
2, 22401, Note_on_c, 0, 66, 62
2, 22459, Note_on_c, 0, 66, 0
2, 22459, Note_on_c, 0, 64, 65
2, 22486, Control_c, 0, 64, 127
2, 22501, Note_on_c, 0, 68, 0
2, 22503, Note_on_c, 0, 64, 0
2, 22512, Note_on_c, 0, 66, 62
2, 22519, Note_on_c, 0, 71, 0
2, 22551, Note_on_c, 0, 66, 0
2, 22564, Note_on_c, 0, 38, 0
2, 22565, Note_on_c, 0, 70, 95
2, 22569, Note_on_c, 0, 65, 63
2, 22570, Note_on_c, 0, 68, 61
2, 22582, Note_on_c, 0, 65, 0
2, 22588, Note_on_c, 0, 68, 0
2, 22594, Note_on_c, 0, 50, 0
2, 22614, Note_on_c, 0, 58, 78
2, 22624, Note_on_c, 0, 70, 0
2, 22631, Note_on_c, 0, 58, 0
2, 22685, Note_on_c, 0, 73, 86
2, 22688, Note_on_c, 0, 70, 78
2, 22690, Note_on_c, 0, 67, 66
2, 22690, Note_on_c, 0, 41, 79
2, 22692, Note_on_c, 0, 53, 66
2, 22728, Control_c, 0, 64, 0
2, 22752, Note_on_c, 0, 67, 0
2, 22752, Note_on_c, 0, 68, 67
2, 22803, Note_on_c, 0, 66, 57
2, 22813, Note_on_c, 0, 68, 0
2, 22819, Note_on_c, 0, 70, 0
2, 22824, Control_c, 0, 64, 127
2, 22856, Note_on_c, 0, 68, 75
2, 22865, Note_on_c, 0, 73, 0
2, 22887, Note_on_c, 0, 66, 0
2, 22898, Note_on_c, 0, 68, 0
2, 22904, Note_on_c, 0, 73, 90
2, 22909, Note_on_c, 0, 67, 71
2, 22912, Note_on_c, 0, 70, 65
2, 22923, Note_on_c, 0, 67, 0
2, 22935, Note_on_c, 0, 70, 0
2, 22959, Note_on_c, 0, 61, 73
2, 22964, Note_on_c, 0, 73, 0
2, 22972, Note_on_c, 0, 41, 0
2, 22973, Note_on_c, 0, 53, 0
2, 22987, Note_on_c, 0, 61, 0
2, 23007, Note_on_c, 0, 73, 95
2, 23008, Note_on_c, 0, 70, 88
2, 23011, Note_on_c, 0, 40, 87
2, 23011, Note_on_c, 0, 52, 78
2, 23013, Note_on_c, 0, 67, 78
2, 23055, Control_c, 0, 64, 0
2, 23070, Note_on_c, 0, 68, 73
2, 23080, Note_on_c, 0, 67, 0
2, 23113, Note_on_c, 0, 70, 0
2, 23117, Note_on_c, 0, 66, 75
2, 23118, Note_on_c, 0, 68, 0
2, 23124, Control_c, 0, 64, 127
2, 23164, Note_on_c, 0, 68, 82
2, 23165, Note_on_c, 0, 66, 0
2, 23178, Note_on_c, 0, 73, 0
2, 23212, Note_on_c, 0, 68, 0
2, 23212, Note_on_c, 0, 72, 100
2, 23214, Note_on_c, 0, 70, 89
2, 23214, Note_on_c, 0, 67, 81
2, 23215, Note_on_c, 0, 52, 0
2, 23227, Note_on_c, 0, 40, 0
2, 23231, Note_on_c, 0, 67, 0
2, 23244, Note_on_c, 0, 72, 0
2, 23254, Note_on_c, 0, 70, 0
2, 23258, Note_on_c, 0, 60, 82
2, 23267, Note_on_c, 0, 60, 0
2, 23323, Note_on_c, 0, 75, 97
2, 23324, Note_on_c, 0, 72, 91
2, 23326, Note_on_c, 0, 43, 86
2, 23327, Note_on_c, 0, 55, 87
2, 23327, Note_on_c, 0, 69, 89
2, 23384, Note_on_c, 0, 70, 85
2, 23394, Note_on_c, 0, 69, 0
2, 23437, Note_on_c, 0, 68, 88
2, 23442, Note_on_c, 0, 70, 0
2, 23446, Control_c, 0, 64, 0
2, 23486, Note_on_c, 0, 72, 0
2, 23489, Control_c, 0, 64, 127
2, 23489, Note_on_c, 0, 70, 100
2, 23496, Note_on_c, 0, 55, 0
2, 23496, Note_on_c, 0, 68, 0
2, 23499, Note_on_c, 0, 43, 0
2, 23501, Note_on_c, 0, 75, 0
2, 23526, Note_on_c, 0, 70, 0
2, 23530, Note_on_c, 0, 75, 93
2, 23532, Note_on_c, 0, 42, 82
2, 23533, Note_on_c, 0, 72, 96
2, 23533, Note_on_c, 0, 54, 82
2, 23537, Note_on_c, 0, 69, 72
2, 23550, Control_c, 0, 64, 0
2, 23566, Note_on_c, 0, 69, 0
2, 23580, Note_on_c, 0, 72, 0
2, 23583, Note_on_c, 0, 63, 75
2, 23589, Control_c, 0, 64, 127
2, 23598, Note_on_c, 0, 75, 0
2, 23611, Note_on_c, 0, 63, 0
2, 23615, Note_on_c, 0, 54, 0
2, 23632, Note_on_c, 0, 42, 0
2, 23661, Note_on_c, 0, 78, 103
2, 23664, Note_on_c, 0, 51, 84
2, 23664, Note_on_c, 0, 39, 85
2, 23664, Note_on_c, 0, 72, 91
2, 23665, Note_on_c, 0, 69, 80
2, 23692, Control_c, 0, 64, 0
2, 23740, Note_on_c, 0, 69, 0
2, 23749, Note_on_c, 0, 70, 70
2, 23802, Note_on_c, 0, 70, 0
2, 23806, Note_on_c, 0, 68, 61
2, 23819, Control_c, 0, 64, 127
2, 23835, Note_on_c, 0, 39, 0
2, 23841, Note_on_c, 0, 51, 0
2, 23848, Note_on_c, 0, 68, 0
2, 23862, Note_on_c, 0, 70, 55
2, 23894, Note_on_c, 0, 70, 0
2, 23910, Note_on_c, 0, 78, 0
2, 23913, Note_on_c, 0, 72, 0
2, 23919, Note_on_c, 0, 69, 65
2, 23935, Note_on_c, 0, 69, 0
2, 23965, Note_on_c, 0, 66, 52
2, 23993, Note_on_c, 0, 66, 0
2, 24046, Note_on_c, 0, 77, 94
2, 24050, Note_on_c, 0, 72, 42
2, 24051, Note_on_c, 0, 69, 33
2, 24069, Note_on_c, 0, 69, 0
2, 24133, Note_on_c, 0, 70, 55
2, 24177, Note_on_c, 0, 70, 0
2, 24189, Note_on_c, 0, 68, 41
2, 24191, Note_on_c, 0, 72, 0
2, 24221, Note_on_c, 0, 68, 0
2, 24268, Note_on_c, 0, 70, 23
2, 24282, Note_on_c, 0, 70, 0
2, 24300, Note_on_c, 0, 77, 0
2, 24320, Note_on_c, 0, 69, 37
2, 24347, Note_on_c, 0, 69, 0
2, 24378, Note_on_c, 0, 66, 29
2, 24416, Note_on_c, 0, 66, 0
2, 24463, Note_on_c, 0, 70, 61
2, 24468, Note_on_c, 0, 65, 32
2, 24469, Note_on_c, 0, 68, 36
2, 24478, Note_on_c, 0, 38, 29
2, 24479, Note_on_c, 0, 50, 21
2, 24492, Control_c, 0, 64, 0
2, 24533, Note_on_c, 0, 65, 0
2, 24537, Note_on_c, 0, 66, 26
2, 24598, Note_on_c, 0, 66, 0
2, 24600, Note_on_c, 0, 64, 29
2, 24658, Note_on_c, 0, 64, 0
2, 24658, Note_on_c, 0, 66, 32
2, 24703, Control_c, 0, 64, 127
2, 24704, Note_on_c, 0, 66, 0
2, 24722, Note_on_c, 0, 68, 0
2, 24729, Note_on_c, 0, 70, 0
2, 24729, Note_on_c, 0, 65, 32
2, 24761, Note_on_c, 0, 50, 0
2, 24770, Note_on_c, 0, 65, 0
2, 24773, Note_on_c, 0, 38, 0
2, 24790, Note_on_c, 0, 58, 49
2, 24828, Note_on_c, 0, 58, 0
2, 24864, Note_on_c, 0, 70, 66
2, 24867, Note_on_c, 0, 49, 27
2, 24871, Note_on_c, 0, 37, 33
2, 24871, Note_on_c, 0, 68, 46
2, 24876, Note_on_c, 0, 64, 30
2, 24883, Control_c, 0, 64, 0
2, 24936, Note_on_c, 0, 64, 0
2, 24940, Note_on_c, 0, 66, 28
2, 24974, Note_on_c, 0, 66, 0
2, 24986, Note_on_c, 0, 63, 35
2, 25033, Note_on_c, 0, 63, 0
2, 25033, Control_c, 0, 64, 127
2, 25036, Note_on_c, 0, 68, 0
2, 25042, Note_on_c, 0, 66, 44
2, 25048, Note_on_c, 0, 70, 0
2, 25059, Note_on_c, 0, 66, 0
2, 25101, Note_on_c, 0, 70, 66
2, 25104, Note_on_c, 0, 64, 31
2, 25106, Control_c, 0, 64, 0
2, 25107, Note_on_c, 0, 67, 11
2, 25130, Note_on_c, 0, 64, 0
2, 25149, Control_c, 0, 64, 127
2, 25152, Note_on_c, 0, 67, 0
2, 25158, Note_on_c, 0, 58, 52
2, 25159, Note_on_c, 0, 37, 0
2, 25160, Note_on_c, 0, 49, 0
2, 25164, Note_on_c, 0, 70, 0
2, 25174, Note_on_c, 0, 58, 0
2, 25234, Note_on_c, 0, 70, 69
2, 25242, Note_on_c, 0, 64, 46
2, 25242, Note_on_c, 0, 67, 38
2, 25246, Note_on_c, 0, 36, 19
2, 25248, Note_on_c, 0, 48, 33
2, 25259, Note_on_c, 0, 64, 0
2, 25317, Note_on_c, 0, 65, 23
2, 25367, Note_on_c, 0, 65, 0
2, 25371, Note_on_c, 0, 62, 34
2, 25413, Note_on_c, 0, 62, 0
2, 25429, Note_on_c, 0, 67, 0
2, 25429, Note_on_c, 0, 65, 40
2, 25454, Note_on_c, 0, 65, 0
2, 25480, Note_on_c, 0, 64, 44
2, 25498, Note_on_c, 0, 64, 0
2, 25522, Note_on_c, 0, 70, 0
2, 25528, Note_on_c, 0, 58, 38
2, 25550, Note_on_c, 0, 58, 0
2, 25586, Note_on_c, 0, 63, 44
2, 25587, Note_on_c, 0, 66, 41
2, 25588, Note_on_c, 0, 69, 54
2, 25653, Note_on_c, 0, 65, 49
2, 25656, Note_on_c, 0, 63, 0
2, 25701, Note_on_c, 0, 65, 0
2, 25706, Note_on_c, 0, 62, 38
2, 25729, Control_c, 0, 64, 0
2, 25767, Note_on_c, 0, 65, 37
2, 25772, Note_on_c, 0, 62, 0
2, 25813, Control_c, 0, 64, 127
2, 25824, Note_on_c, 0, 65, 0
2, 25827, Note_on_c, 0, 69, 0
2, 25828, Note_on_c, 0, 63, 29
2, 25837, Note_on_c, 0, 66, 0
2, 25853, Note_on_c, 0, 63, 0
2, 25881, Note_on_c, 0, 48, 0
2, 25883, Note_on_c, 0, 36, 0
2, 25906, Note_on_c, 0, 57, 10
2, 25929, Note_on_c, 0, 57, 0
2, 25989, Note_on_c, 0, 63, 37
2, 25989, Note_on_c, 0, 66, 34
2, 25989, Note_on_c, 0, 69, 61
2, 25995, Note_on_c, 0, 47, 18
2, 25996, Note_on_c, 0, 35, 23
2, 26009, Control_c, 0, 64, 0
2, 26067, Note_on_c, 0, 63, 0
2, 26068, Note_on_c, 0, 65, 46
2, 26118, Note_on_c, 0, 65, 0
2, 26121, Note_on_c, 0, 62, 41
2, 26175, Note_on_c, 0, 62, 0
2, 26179, Note_on_c, 0, 65, 46
2, 26209, Control_c, 0, 64, 127
2, 26224, Note_on_c, 0, 65, 0
2, 26232, Note_on_c, 0, 63, 46
2, 26235, Note_on_c, 0, 66, 0
2, 26243, Note_on_c, 0, 69, 0
2, 26254, Note_on_c, 0, 63, 0
2, 26287, Note_on_c, 0, 57, 42
2, 26301, Note_on_c, 0, 57, 0
2, 26340, Note_on_c, 0, 68, 68
2, 26346, Note_on_c, 0, 62, 36
2, 26348, Note_on_c, 0, 65, 40
2, 26389, Control_c, 0, 64, 0
2, 26399, Note_on_c, 0, 62, 0
2, 26406, Note_on_c, 0, 63, 34
2, 26431, Note_on_c, 0, 63, 0
2, 26453, Note_on_c, 0, 61, 35
2, 26494, Note_on_c, 0, 65, 0
2, 26497, Control_c, 0, 64, 127
2, 26504, Note_on_c, 0, 61, 0
2, 26515, Note_on_c, 0, 63, 24
2, 26521, Note_on_c, 0, 68, 0
2, 26538, Note_on_c, 0, 63, 0
2, 26580, Note_on_c, 0, 68, 43
2, 26586, Control_c, 0, 64, 0
2, 26586, Note_on_c, 0, 62, 24
2, 26588, Note_on_c, 0, 65, 41
2, 26625, Note_on_c, 0, 47, 0
2, 26626, Note_on_c, 0, 65, 0
2, 26628, Control_c, 0, 64, 127
2, 26644, Note_on_c, 0, 68, 0
2, 26645, Note_on_c, 0, 35, 0
2, 26646, Note_on_c, 0, 56, 44
2, 26651, Note_on_c, 0, 62, 0
2, 26664, Note_on_c, 0, 56, 0
2, 26730, Note_on_c, 0, 68, 57
2, 26736, Note_on_c, 0, 61, 33
2, 26738, Note_on_c, 0, 46, 41
2, 26740, Note_on_c, 0, 34, 36
2, 26742, Note_on_c, 0, 64, 43
2, 26806, Note_on_c, 0, 61, 0
2, 26806, Note_on_c, 0, 63, 35
2, 26854, Note_on_c, 0, 63, 0
2, 26860, Note_on_c, 0, 60, 38
2, 26910, Note_on_c, 0, 60, 0
2, 26916, Note_on_c, 0, 63, 38
2, 26920, Note_on_c, 0, 64, 0
2, 26941, Note_on_c, 0, 63, 0
2, 26969, Note_on_c, 0, 61, 44
2, 26979, Note_on_c, 0, 68, 0
2, 26993, Note_on_c, 0, 61, 0
2, 27017, Note_on_c, 0, 56, 42
2, 27030, Note_on_c, 0, 56, 0
2, 27076, Note_on_c, 0, 61, 38
2, 27078, Note_on_c, 0, 67, 50
2, 27079, Note_on_c, 0, 64, 30
2, 27129, Note_on_c, 0, 63, 48
2, 27136, Note_on_c, 0, 61, 0
2, 27178, Note_on_c, 0, 63, 0
2, 27185, Note_on_c, 0, 60, 40
2, 27216, Control_c, 0, 64, 0
2, 27240, Note_on_c, 0, 63, 45
2, 27245, Note_on_c, 0, 60, 0
2, 27270, Control_c, 0, 64, 127
2, 27295, Note_on_c, 0, 63, 0
2, 27300, Note_on_c, 0, 61, 48
2, 27312, Note_on_c, 0, 64, 0
2, 27320, Note_on_c, 0, 67, 0
2, 27324, Note_on_c, 0, 61, 0
2, 27344, Note_on_c, 0, 46, 0
2, 27346, Note_on_c, 0, 34, 0
2, 27361, Note_on_c, 0, 55, 42
2, 27376, Note_on_c, 0, 55, 0
2, 27429, Note_on_c, 0, 67, 85
2, 27431, Note_on_c, 0, 61, 50
2, 27432, Note_on_c, 0, 64, 65
2, 27434, Note_on_c, 0, 45, 51
2, 27436, Note_on_c, 0, 33, 52
2, 27469, Control_c, 0, 64, 0
2, 27495, Note_on_c, 0, 63, 46
2, 27500, Note_on_c, 0, 61, 0
2, 27543, Note_on_c, 0, 63, 0
2, 27547, Note_on_c, 0, 60, 51
2, 27565, Control_c, 0, 64, 127
2, 27600, Note_on_c, 0, 63, 43
2, 27610, Note_on_c, 0, 60, 0
2, 27640, Note_on_c, 0, 64, 0
2, 27664, Note_on_c, 0, 63, 0
2, 27665, Note_on_c, 0, 61, 37
2, 27715, Note_on_c, 0, 67, 0
2, 27725, Note_on_c, 0, 61, 0
2, 27729, Note_on_c, 0, 55, 43
2, 27749, Note_on_c, 0, 55, 0
2, 27814, Note_on_c, 0, 67, 87
2, 27817, Note_on_c, 0, 64, 60
2, 27820, Note_on_c, 0, 60, 51
2, 27841, Note_on_c, 0, 60, 0
2, 27892, Note_on_c, 0, 62, 53
2, 27951, Note_on_c, 0, 62, 0
2, 27952, Note_on_c, 0, 59, 44
2, 27975, Note_on_c, 0, 64, 0
2, 28007, Note_on_c, 0, 59, 0
2, 28008, Note_on_c, 0, 62, 50
2, 28010, Note_on_c, 0, 67, 0
2, 28027, Note_on_c, 0, 62, 0
2, 28060, Note_on_c, 0, 67, 89
2, 28062, Note_on_c, 0, 64, 65
2, 28066, Note_on_c, 0, 60, 51
2, 28087, Note_on_c, 0, 60, 0
2, 28117, Note_on_c, 0, 64, 0
2, 28124, Note_on_c, 0, 67, 0
2, 28128, Note_on_c, 0, 55, 62
2, 28145, Note_on_c, 0, 55, 0
2, 28212, Note_on_c, 0, 67, 91
2, 28215, Note_on_c, 0, 63, 62
2, 28218, Note_on_c, 0, 59, 48
2, 28303, Note_on_c, 0, 60, 43
2, 28307, Note_on_c, 0, 59, 0
2, 28370, Note_on_c, 0, 60, 0
2, 28371, Note_on_c, 0, 58, 53
2, 28432, Note_on_c, 0, 58, 0
2, 28435, Note_on_c, 0, 60, 51
2, 28437, Control_c, 0, 64, 0
2, 28472, Control_c, 0, 64, 127
2, 28474, Note_on_c, 0, 60, 0
2, 28482, Note_on_c, 0, 67, 0
2, 28494, Note_on_c, 0, 63, 0
2, 28500, Note_on_c, 0, 59, 35
2, 28516, Note_on_c, 0, 59, 0
2, 28554, Note_on_c, 0, 54, 45
2, 28577, Note_on_c, 0, 54, 0
2, 28610, Note_on_c, 0, 66, 61
2, 28621, Note_on_c, 0, 59, 32
2, 28623, Note_on_c, 0, 63, 34
2, 28684, Note_on_c, 0, 59, 0
2, 28692, Note_on_c, 0, 60, 40
2, 28745, Note_on_c, 0, 58, 55
2, 28746, Note_on_c, 0, 60, 0
2, 28814, Note_on_c, 0, 60, 44
2, 28820, Note_on_c, 0, 58, 0
2, 28847, Note_on_c, 0, 63, 0
2, 28852, Control_c, 0, 64, 0
2, 28864, Note_on_c, 0, 60, 0
2, 28872, Note_on_c, 0, 59, 41
2, 28879, Control_c, 0, 64, 127
2, 28886, Note_on_c, 0, 59, 0
2, 28909, Note_on_c, 0, 33, 0
2, 28911, Note_on_c, 0, 45, 0
2, 28923, Note_on_c, 0, 66, 0
2, 28932, Note_on_c, 0, 54, 32
2, 28954, Note_on_c, 0, 54, 0
2, 29013, Note_on_c, 0, 66, 67
2, 29020, Note_on_c, 0, 58, 47
2, 29024, Note_on_c, 0, 62, 41
2, 29025, Note_on_c, 0, 34, 40
2, 29026, Note_on_c, 0, 46, 37
2, 29070, Note_on_c, 0, 58, 0
2, 29092, Note_on_c, 0, 59, 30
2, 29118, Control_c, 0, 64, 0
2, 29139, Note_on_c, 0, 59, 0
2, 29156, Control_c, 0, 64, 127
2, 29160, Note_on_c, 0, 57, 19
2, 29168, Note_on_c, 0, 62, 0
2, 29173, Note_on_c, 0, 66, 0
2, 29191, Note_on_c, 0, 57, 0
2, 29215, Note_on_c, 0, 59, 27
2, 29256, Note_on_c, 0, 59, 0
2, 29271, Note_on_c, 0, 58, 46
2, 29302, Note_on_c, 0, 58, 0
2, 29328, Note_on_c, 0, 53, 31
2, 29346, Note_on_c, 0, 53, 0
2, 29385, Note_on_c, 0, 65, 54
2, 29387, Note_on_c, 0, 58, 45
2, 29395, Note_on_c, 0, 62, 12
2, 29428, Note_on_c, 0, 58, 0
2, 29448, Control_c, 0, 64, 0
2, 29449, Note_on_c, 0, 59, 40
2, 29482, Control_c, 0, 64, 127
2, 29494, Note_on_c, 0, 59, 0
2, 29512, Note_on_c, 0, 57, 37
2, 29516, Note_on_c, 0, 65, 0
2, 29522, Note_on_c, 0, 62, 0
2, 29550, Note_on_c, 0, 57, 0
2, 29573, Note_on_c, 0, 59, 34
2, 29601, Note_on_c, 0, 59, 0
2, 29629, Note_on_c, 0, 65, 52
2, 29630, Note_on_c, 0, 58, 56
2, 29633, Note_on_c, 0, 62, 19
2, 29662, Note_on_c, 0, 65, 0
2, 29664, Note_on_c, 0, 62, 0
2, 29675, Note_on_c, 0, 58, 0
2, 29686, Note_on_c, 0, 53, 51
2, 29702, Note_on_c, 0, 53, 0
2, 29755, Note_on_c, 0, 60, 41
2, 29757, Note_on_c, 0, 57, 36
2, 29758, Note_on_c, 0, 65, 51
2, 29763, Control_c, 0, 64, 0
2, 29813, Control_c, 0, 64, 127
2, 29815, Note_on_c, 0, 57, 0
2, 29826, Note_on_c, 0, 58, 48
2, 29874, Note_on_c, 0, 58, 0
2, 29878, Note_on_c, 0, 56, 39
2, 29901, Control_c, 0, 64, 0
2, 29929, Note_on_c, 0, 56, 0
2, 29935, Control_c, 0, 64, 127
2, 29943, Note_on_c, 0, 58, 40
2, 29962, Note_on_c, 0, 65, 0
2, 29985, Note_on_c, 0, 58, 0
2, 29998, Note_on_c, 0, 60, 0
2, 30008, Note_on_c, 0, 57, 33
2, 30039, Note_on_c, 0, 57, 0
2, 30059, Note_on_c, 0, 53, 32
2, 30080, Note_on_c, 0, 53, 0
2, 30131, Note_on_c, 0, 65, 49
2, 30134, Note_on_c, 0, 58, 39
2, 30135, Note_on_c, 0, 62, 25
2, 30188, Note_on_c, 0, 58, 0
2, 30208, Note_on_c, 0, 59, 36
2, 30256, Note_on_c, 0, 59, 0
2, 30277, Note_on_c, 0, 57, 19
2, 30297, Control_c, 0, 64, 0
2, 30335, Control_c, 0, 64, 127
2, 30346, Note_on_c, 0, 57, 0
2, 30360, Note_on_c, 0, 59, 20
2, 30403, Note_on_c, 0, 62, 0
2, 30411, Note_on_c, 0, 65, 0
2, 30424, Note_on_c, 0, 59, 0
2, 30446, Note_on_c, 0, 58, 39
2, 30483, Note_on_c, 0, 46, 0
2, 30487, Note_on_c, 0, 34, 0
2, 30531, Note_on_c, 0, 58, 0
2, 30543, Note_on_c, 0, 53, 36
2, 30562, Note_on_c, 0, 53, 0
2, 30660, Note_on_c, 0, 51, 33
2, 30687, Note_on_c, 0, 58, 34
2, 30693, Note_on_c, 0, 66, 64
2, 30779, Note_on_c, 0, 58, 0
2, 30787, Note_on_c, 0, 59, 33
2, 30856, Note_on_c, 0, 59, 0
2, 30861, Note_on_c, 0, 57, 38
2, 30865, Control_c, 0, 64, 0
2, 30912, Control_c, 0, 64, 127
2, 30925, Note_on_c, 0, 57, 0
2, 30932, Note_on_c, 0, 59, 28
2, 30985, Note_on_c, 0, 59, 0
2, 30993, Note_on_c, 0, 58, 46
2, 31004, Control_c, 0, 64, 0
2, 31023, Control_c, 0, 64, 127
2, 31045, Note_on_c, 0, 54, 44
2, 31048, Note_on_c, 0, 58, 0
2, 31102, Note_on_c, 0, 58, 49
2, 31106, Note_on_c, 0, 54, 0
2, 31161, Note_on_c, 0, 58, 0
2, 31161, Note_on_c, 0, 59, 44
2, 31165, Control_c, 0, 64, 0
2, 31177, Control_c, 0, 64, 127
2, 31217, Note_on_c, 0, 59, 0
2, 31222, Note_on_c, 0, 57, 39
2, 31279, Note_on_c, 0, 57, 0
2, 31284, Control_c, 0, 64, 0
2, 31285, Note_on_c, 0, 59, 37
2, 31315, Control_c, 0, 64, 127
2, 31336, Note_on_c, 0, 59, 0
2, 31352, Note_on_c, 0, 65, 59
2, 31377, Note_on_c, 0, 51, 0
2, 31380, Note_on_c, 0, 58, 35
2, 31389, Note_on_c, 0, 66, 0
2, 31422, Note_on_c, 0, 63, 62
2, 31431, Note_on_c, 0, 58, 0
2, 31475, Note_on_c, 0, 65, 0
2, 31492, Note_on_c, 0, 53, 34
2, 31519, Note_on_c, 0, 59, 21
2, 31530, Note_on_c, 0, 70, 69
2, 31561, Control_c, 0, 64, 0
2, 31603, Note_on_c, 0, 59, 0
2, 31609, Note_on_c, 0, 61, 29
2, 31642, Control_c, 0, 64, 127
2, 31667, Note_on_c, 0, 61, 0
2, 31678, Note_on_c, 0, 58, 38
2, 31735, Note_on_c, 0, 58, 0
2, 31740, Note_on_c, 0, 61, 33
2, 31798, Note_on_c, 0, 61, 0
2, 31800, Note_on_c, 0, 59, 38
2, 31854, Note_on_c, 0, 59, 0
2, 31859, Note_on_c, 0, 56, 39
2, 31917, Note_on_c, 0, 68, 56
2, 31924, Note_on_c, 0, 56, 0
2, 31926, Note_on_c, 0, 59, 34
2, 31952, Note_on_c, 0, 70, 0
2, 31960, Control_c, 0, 64, 0
2, 31984, Note_on_c, 0, 61, 38
2, 31991, Note_on_c, 0, 59, 0
2, 32002, Control_c, 0, 64, 127
2, 32042, Note_on_c, 0, 61, 0
2, 32049, Note_on_c, 0, 58, 49
2, 32100, Note_on_c, 0, 58, 0
2, 32109, Note_on_c, 0, 61, 52
2, 32163, Note_on_c, 0, 61, 0
2, 32173, Note_on_c, 0, 59, 47
2, 32236, Note_on_c, 0, 59, 0
2, 32242, Note_on_c, 0, 65, 74
2, 32247, Note_on_c, 0, 56, 36
2, 32251, Note_on_c, 0, 53, 0
2, 32254, Note_on_c, 0, 63, 0
2, 32338, Note_on_c, 0, 50, 67
2, 32338, Note_on_c, 0, 71, 76
2, 32342, Note_on_c, 0, 56, 0
2, 32344, Note_on_c, 0, 68, 0
2, 32419, Note_on_c, 0, 58, 51
2, 32445, Control_c, 0, 64, 0
2, 32470, Note_on_c, 0, 58, 0
2, 32484, Note_on_c, 0, 55, 40
2, 32514, Control_c, 0, 64, 127
2, 32542, Note_on_c, 0, 55, 0
2, 32542, Note_on_c, 0, 58, 50
2, 32571, Control_c, 0, 64, 0
2, 32602, Note_on_c, 0, 58, 0
2, 32604, Note_on_c, 0, 56, 46
2, 32606, Control_c, 0, 64, 127
2, 32657, Note_on_c, 0, 56, 0
2, 32666, Note_on_c, 0, 53, 41
2, 32719, Note_on_c, 0, 53, 0
2, 32729, Note_on_c, 0, 56, 36
2, 32748, Control_c, 0, 64, 0
2, 32787, Note_on_c, 0, 56, 0
2, 32787, Note_on_c, 0, 58, 41
2, 32849, Note_on_c, 0, 58, 0
2, 32859, Control_c, 0, 64, 127
2, 32863, Note_on_c, 0, 55, 30
2, 32875, Control_c, 0, 64, 0
2, 32913, Control_c, 0, 64, 127
2, 32929, Control_c, 0, 64, 0
2, 32937, Note_on_c, 0, 55, 0
2, 32937, Note_on_c, 0, 58, 34
2, 32967, Control_c, 0, 64, 127
2, 33006, Control_c, 0, 64, 0
2, 33014, Note_on_c, 0, 58, 0
2, 33015, Note_on_c, 0, 70, 38
2, 33027, Note_on_c, 0, 56, 29
2, 33041, Note_on_c, 0, 65, 0
2, 33042, Note_on_c, 0, 71, 0
2, 33071, Control_c, 0, 64, 127
2, 33104, Note_on_c, 0, 50, 0
2, 33106, Note_on_c, 0, 70, 0
2, 33106, Note_on_c, 0, 65, 43
2, 33144, Note_on_c, 0, 56, 0
2, 33199, Note_on_c, 0, 70, 55
2, 33208, Note_on_c, 0, 49, 42
2, 33213, Note_on_c, 0, 64, 36
2, 33213, Note_on_c, 0, 55, 23
2, 33224, Note_on_c, 0, 65, 0
2, 33291, Note_on_c, 0, 55, 0
2, 33291, Note_on_c, 0, 56, 36
2, 33328, Control_c, 0, 64, 0
2, 33361, Note_on_c, 0, 56, 0
2, 33367, Note_on_c, 0, 54, 30
2, 33374, Control_c, 0, 64, 127
2, 33397, Control_c, 0, 64, 0
2, 33426, Note_on_c, 0, 54, 0
2, 33428, Note_on_c, 0, 56, 40
2, 33439, Control_c, 0, 64, 127
2, 33455, Control_c, 0, 64, 0
2, 33481, Note_on_c, 0, 56, 0
2, 33489, Note_on_c, 0, 55, 35
2, 33493, Control_c, 0, 64, 127
2, 33542, Note_on_c, 0, 55, 0
2, 33544, Note_on_c, 0, 52, 38
2, 33595, Note_on_c, 0, 52, 0
2, 33610, Note_on_c, 0, 55, 39
2, 33620, Control_c, 0, 64, 0
2, 33658, Control_c, 0, 64, 127
2, 33669, Note_on_c, 0, 55, 0
2, 33669, Note_on_c, 0, 56, 36
2, 33682, Control_c, 0, 64, 0
2, 33720, Control_c, 0, 64, 127
2, 33732, Note_on_c, 0, 54, 31
2, 33733, Note_on_c, 0, 56, 0
2, 33743, Control_c, 0, 64, 0
2, 33778, Control_c, 0, 64, 127
2, 33793, Control_c, 0, 64, 0
2, 33803, Note_on_c, 0, 56, 39
2, 33804, Note_on_c, 0, 54, 0
2, 33824, Control_c, 0, 64, 127
2, 33847, Control_c, 0, 64, 0
2, 33885, Control_c, 0, 64, 127
2, 33888, Note_on_c, 0, 56, 0
2, 33890, Note_on_c, 0, 55, 33
2, 33924, Control_c, 0, 64, 0
2, 33946, Note_on_c, 0, 63, 61
2, 33951, Control_c, 0, 64, 127
2, 33954, Note_on_c, 0, 64, 0
2, 34004, Note_on_c, 0, 70, 0
2, 34016, Note_on_c, 0, 55, 0
2, 34025, Note_on_c, 0, 47, 40
2, 34038, Note_on_c, 0, 49, 0
2, 34051, Note_on_c, 0, 75, 85
2, 34113, Note_on_c, 0, 56, 44
2, 34173, Note_on_c, 0, 56, 0
2, 34178, Note_on_c, 0, 54, 27
2, 34223, Note_on_c, 0, 54, 0
2, 34236, Note_on_c, 0, 56, 40
2, 34281, Note_on_c, 0, 56, 0
2, 34294, Note_on_c, 0, 55, 39
2, 34349, Note_on_c, 0, 55, 0
2, 34354, Note_on_c, 0, 51, 40
2, 34423, Note_on_c, 0, 51, 0
2, 34436, Note_on_c, 0, 56, 28
2, 34458, Control_c, 0, 64, 0
2, 34507, Control_c, 0, 64, 127
2, 34509, Note_on_c, 0, 58, 50
2, 34518, Note_on_c, 0, 56, 0
2, 34569, Note_on_c, 0, 58, 0
2, 34578, Note_on_c, 0, 73, 59
2, 34591, Note_on_c, 0, 55, 25
2, 34604, Note_on_c, 0, 75, 0
2, 34647, Note_on_c, 0, 71, 57
2, 34648, Note_on_c, 0, 55, 0
2, 34648, Note_on_c, 0, 58, 47
2, 34669, Note_on_c, 0, 73, 0
2, 34697, Note_on_c, 0, 58, 0
2, 34702, Note_on_c, 0, 63, 0
2, 34706, Note_on_c, 0, 68, 69
2, 34713, Note_on_c, 0, 56, 41
2, 34722, Note_on_c, 0, 71, 0
2, 34754, Note_on_c, 0, 47, 0
2, 34764, Note_on_c, 0, 68, 0
2, 34765, Note_on_c, 0, 63, 66
2, 34828, Note_on_c, 0, 66, 72
2, 34830, Note_on_c, 0, 62, 44
2, 34835, Note_on_c, 0, 63, 0
2, 34835, Note_on_c, 0, 46, 53
2, 34849, Note_on_c, 0, 56, 0
2, 34888, Control_c, 0, 64, 0
2, 34891, Note_on_c, 0, 58, 63
2, 34946, Note_on_c, 0, 58, 0
2, 34952, Note_on_c, 0, 55, 42
2, 35011, Note_on_c, 0, 58, 46
2, 35016, Note_on_c, 0, 55, 0
2, 35083, Note_on_c, 0, 58, 0
2, 35088, Control_c, 0, 64, 127
2, 35089, Note_on_c, 0, 56, 44
2, 35129, Note_on_c, 0, 56, 0
2, 35137, Note_on_c, 0, 46, 0
2, 35160, Note_on_c, 0, 65, 57
2, 35170, Note_on_c, 0, 53, 35
2, 35184, Note_on_c, 0, 66, 0
2, 35191, Note_on_c, 0, 53, 0
2, 35221, Note_on_c, 0, 63, 59
2, 35224, Note_on_c, 0, 47, 43
2, 35233, Note_on_c, 0, 54, 29
2, 35238, Control_c, 0, 64, 0
2, 35240, Note_on_c, 0, 65, 0
2, 35244, Note_on_c, 0, 62, 0
2, 35272, Note_on_c, 0, 54, 0
2, 35289, Note_on_c, 0, 56, 45
2, 35337, Note_on_c, 0, 56, 0
2, 35341, Note_on_c, 0, 53, 48
2, 35361, Control_c, 0, 64, 127
2, 35399, Note_on_c, 0, 56, 46
2, 35401, Note_on_c, 0, 53, 0
2, 35442, Note_on_c, 0, 56, 0
2, 35458, Note_on_c, 0, 63, 0
2, 35458, Note_on_c, 0, 54, 46
2, 35479, Note_on_c, 0, 54, 0
2, 35487, Note_on_c, 0, 47, 0
2, 35518, Note_on_c, 0, 51, 55
2, 35532, Note_on_c, 0, 51, 0
2, 35581, Note_on_c, 0, 64, 88
2, 35581, Note_on_c, 0, 56, 56
2, 35583, Note_on_c, 0, 59, 44
2, 35586, Note_on_c, 0, 44, 58
2, 35595, Control_c, 0, 64, 0
2, 35638, Note_on_c, 0, 56, 0
2, 35641, Note_on_c, 0, 58, 63
2, 35695, Note_on_c, 0, 58, 0
2, 35704, Note_on_c, 0, 55, 43
2, 35744, Note_on_c, 0, 55, 0
2, 35757, Control_c, 0, 64, 127
2, 35764, Note_on_c, 0, 58, 58
2, 35786, Note_on_c, 0, 59, 0
2, 35833, Note_on_c, 0, 56, 53
2, 35839, Note_on_c, 0, 58, 0
2, 35844, Note_on_c, 0, 44, 0
2, 35901, Note_on_c, 0, 56, 0
2, 35901, Note_on_c, 0, 52, 46
2, 35963, Note_on_c, 0, 52, 0
2, 35973, Note_on_c, 0, 62, 75
2, 35977, Note_on_c, 0, 58, 56
2, 35977, Note_on_c, 0, 46, 62
2, 35980, Note_on_c, 0, 53, 41
2, 36018, Control_c, 0, 64, 0
2, 36028, Note_on_c, 0, 64, 0
2, 36044, Note_on_c, 0, 53, 0
2, 36047, Note_on_c, 0, 54, 52
2, 36105, Note_on_c, 0, 52, 54
2, 36106, Note_on_c, 0, 54, 0
2, 36158, Note_on_c, 0, 62, 0
2, 36158, Note_on_c, 0, 52, 0
2, 36159, Note_on_c, 0, 54, 56
2, 36160, Control_c, 0, 64, 127
2, 36184, Note_on_c, 0, 58, 0
2, 36214, Note_on_c, 0, 54, 0
2, 36219, Note_on_c, 0, 53, 57
2, 36224, Note_on_c, 0, 46, 0
2, 36266, Note_on_c, 0, 46, 79
2, 36274, Note_on_c, 0, 53, 0
2, 36292, Note_on_c, 0, 63, 75
2, 36319, Note_on_c, 0, 63, 0
2, 36355, Note_on_c, 0, 64, 90
2, 36356, Note_on_c, 0, 56, 53
2, 36357, Note_on_c, 0, 59, 53
2, 36364, Note_on_c, 0, 44, 60
2, 36365, Note_on_c, 0, 46, 0
2, 36367, Control_c, 0, 64, 0
2, 36417, Note_on_c, 0, 58, 64
2, 36422, Note_on_c, 0, 56, 0
2, 36468, Note_on_c, 0, 58, 0
2, 36475, Note_on_c, 0, 55, 44
2, 36513, Control_c, 0, 64, 127
2, 36516, Note_on_c, 0, 55, 0
2, 36532, Note_on_c, 0, 58, 63
2, 36595, Note_on_c, 0, 58, 0
2, 36600, Note_on_c, 0, 56, 55
2, 36625, Note_on_c, 0, 59, 0
2, 36640, Note_on_c, 0, 44, 0
2, 36659, Note_on_c, 0, 52, 64
2, 36669, Note_on_c, 0, 56, 0
2, 36734, Note_on_c, 0, 52, 0
2, 36741, Note_on_c, 0, 62, 76
2, 36741, Note_on_c, 0, 46, 69
2, 36744, Note_on_c, 0, 58, 54
2, 36745, Note_on_c, 0, 53, 49
2, 36790, Control_c, 0, 64, 0
2, 36805, Note_on_c, 0, 64, 0
2, 36815, Note_on_c, 0, 53, 0
2, 36817, Note_on_c, 0, 54, 51
2, 36880, Note_on_c, 0, 52, 65
2, 36885, Note_on_c, 0, 54, 0
2, 36905, Control_c, 0, 64, 127
2, 36937, Note_on_c, 0, 54, 67
2, 36939, Note_on_c, 0, 52, 0
2, 36964, Note_on_c, 0, 62, 0
2, 36977, Note_on_c, 0, 58, 0
2, 36993, Note_on_c, 0, 54, 0
2, 36999, Note_on_c, 0, 53, 68
2, 37002, Note_on_c, 0, 46, 0
2, 37054, Note_on_c, 0, 46, 88
2, 37056, Note_on_c, 0, 53, 0
2, 37074, Note_on_c, 0, 63, 82
2, 37123, Note_on_c, 0, 63, 0
2, 37145, Note_on_c, 0, 64, 91
2, 37149, Note_on_c, 0, 59, 53
2, 37154, Note_on_c, 0, 46, 0
2, 37155, Note_on_c, 0, 44, 56
2, 37159, Note_on_c, 0, 56, 49
2, 37182, Control_c, 0, 64, 0
2, 37208, Note_on_c, 0, 58, 78
2, 37241, Note_on_c, 0, 56, 0
2, 37263, Control_c, 0, 64, 127
2, 37268, Note_on_c, 0, 55, 75
2, 37273, Note_on_c, 0, 58, 0
2, 37321, Note_on_c, 0, 55, 0
2, 37328, Note_on_c, 0, 58, 79
2, 37348, Note_on_c, 0, 59, 0
2, 37390, Note_on_c, 0, 58, 0
2, 37393, Note_on_c, 0, 56, 78
2, 37428, Note_on_c, 0, 44, 0
2, 37438, Note_on_c, 0, 56, 0
2, 37447, Note_on_c, 0, 64, 0
2, 37459, Note_on_c, 0, 52, 74
2, 37541, Note_on_c, 0, 73, 92
2, 37545, Note_on_c, 0, 61, 47
2, 37546, Note_on_c, 0, 52, 0
2, 37546, Note_on_c, 0, 45, 75
2, 37548, Note_on_c, 0, 57, 50
2, 37549, Note_on_c, 0, 64, 57
2, 37585, Control_c, 0, 64, 0
2, 37631, Note_on_c, 0, 52, 53
2, 37637, Note_on_c, 0, 61, 0
2, 37639, Control_c, 0, 64, 127
2, 37641, Note_on_c, 0, 57, 0
2, 37642, Note_on_c, 0, 64, 0
2, 37653, Note_on_c, 0, 45, 0
2, 37698, Note_on_c, 0, 52, 0
2, 37698, Note_on_c, 0, 68, 95
2, 37702, Note_on_c, 0, 47, 66
2, 37702, Note_on_c, 0, 59, 51
2, 37704, Note_on_c, 0, 64, 54
2, 37732, Note_on_c, 0, 73, 0
2, 37765, Note_on_c, 0, 59, 0
2, 37766, Note_on_c, 0, 64, 0
2, 37768, Note_on_c, 0, 52, 51
2, 37770, Note_on_c, 0, 47, 0
2, 37823, Note_on_c, 0, 52, 0
2, 37824, Note_on_c, 0, 69, 97
2, 37824, Note_on_c, 0, 61, 57
2, 37827, Note_on_c, 0, 64, 57
2, 37827, Note_on_c, 0, 49, 61
2, 37839, Control_c, 0, 64, 0
2, 37842, Note_on_c, 0, 68, 0
2, 37876, Note_on_c, 0, 61, 0
2, 37888, Control_c, 0, 64, 127
2, 37891, Note_on_c, 0, 52, 50
2, 37920, Note_on_c, 0, 49, 0
2, 37938, Note_on_c, 0, 52, 0
2, 37947, Note_on_c, 0, 68, 86
2, 37949, Note_on_c, 0, 59, 42
2, 37951, Note_on_c, 0, 44, 53
2, 37960, Note_on_c, 0, 69, 0
2, 37968, Note_on_c, 0, 64, 0
2, 38017, Note_on_c, 0, 66, 86
2, 38027, Note_on_c, 0, 52, 47
2, 38040, Note_on_c, 0, 68, 0
2, 38086, Note_on_c, 0, 52, 0
2, 38087, Note_on_c, 0, 51, 58
2, 38094, Note_on_c, 0, 64, 86
2, 38122, Note_on_c, 0, 66, 0
2, 38146, Control_c, 0, 64, 0
2, 38157, Note_on_c, 0, 52, 67
2, 38160, Note_on_c, 0, 51, 0
2, 38223, Note_on_c, 0, 52, 0
2, 38224, Note_on_c, 0, 54, 59
2, 38288, Control_c, 0, 64, 127
2, 38302, Note_on_c, 0, 56, 65
2, 38311, Note_on_c, 0, 54, 0
2, 38316, Note_on_c, 0, 59, 0
2, 38393, Note_on_c, 0, 59, 62
2, 38394, Note_on_c, 0, 63, 67
2, 38397, Note_on_c, 0, 46, 57
2, 38422, Control_c, 0, 64, 0
2, 38423, Note_on_c, 0, 56, 0
2, 38431, Note_on_c, 0, 64, 0
2, 38438, Note_on_c, 0, 44, 0
2, 38497, Note_on_c, 0, 58, 67
2, 38512, Note_on_c, 0, 59, 0
2, 38581, Note_on_c, 0, 57, 56
2, 38592, Note_on_c, 0, 58, 0
2, 38652, Note_on_c, 0, 58, 64
2, 38656, Note_on_c, 0, 57, 0
2, 38748, Note_on_c, 0, 62, 44
2, 38751, Note_on_c, 0, 53, 34
2, 38764, Note_on_c, 0, 63, 0
2, 38859, Note_on_c, 0, 54, 31
2, 38883, Note_on_c, 0, 53, 0
2, 38911, Control_c, 0, 64, 127
2, 39011, Note_on_c, 0, 63, 38
2, 39017, Note_on_c, 0, 39, 35
2, 39022, Control_c, 0, 64, 0
2, 39043, Note_on_c, 0, 62, 0
2, 39061, Note_on_c, 0, 46, 0
2, 39136, Note_on_c, 0, 47, 36
2, 39216, Note_on_c, 0, 47, 0
2, 39217, Note_on_c, 0, 58, 0
2, 39219, Note_on_c, 0, 46, 59
2, 39234, Control_c, 0, 64, 127
2, 39261, Note_on_c, 0, 54, 0
2, 39288, Note_on_c, 0, 46, 0
2, 39289, Note_on_c, 0, 50, 54
2, 39339, Note_on_c, 0, 50, 0
2, 39352, Note_on_c, 0, 51, 49
2, 39409, Note_on_c, 0, 51, 0
2, 39417, Note_on_c, 0, 53, 39
2, 39445, Control_c, 0, 64, 0
2, 39477, Note_on_c, 0, 54, 46
2, 39493, Note_on_c, 0, 53, 0
2, 39498, Control_c, 0, 64, 127
2, 39540, Note_on_c, 0, 47, 33
2, 39560, Control_c, 0, 64, 0
2, 39574, Note_on_c, 0, 54, 0
2, 39586, Control_c, 0, 64, 127
2, 39593, Note_on_c, 0, 47, 0
2, 39595, Note_on_c, 0, 46, 60
2, 39659, Note_on_c, 0, 50, 48
2, 39668, Note_on_c, 0, 46, 0
2, 39671, Control_c, 0, 64, 0
2, 39705, Control_c, 0, 64, 127
2, 39715, Note_on_c, 0, 51, 44
2, 39718, Note_on_c, 0, 50, 0
2, 39770, Note_on_c, 0, 51, 0
2, 39775, Note_on_c, 0, 53, 39
2, 39793, Control_c, 0, 64, 0
2, 39835, Note_on_c, 0, 53, 0
2, 39840, Control_c, 0, 64, 127
2, 39841, Note_on_c, 0, 54, 36
2, 39902, Note_on_c, 0, 47, 26
2, 39920, Note_on_c, 0, 54, 0
2, 39956, Note_on_c, 0, 47, 0
2, 39961, Note_on_c, 0, 46, 42
2, 40005, Control_c, 0, 64, 0
2, 40024, Note_on_c, 0, 50, 38
2, 40028, Control_c, 0, 64, 127
2, 40033, Note_on_c, 0, 46, 0
2, 40077, Note_on_c, 0, 50, 0
2, 40081, Note_on_c, 0, 51, 34
2, 40130, Note_on_c, 0, 51, 0
2, 40146, Note_on_c, 0, 53, 31
2, 40216, Note_on_c, 0, 53, 0
2, 40225, Note_on_c, 0, 54, 27
2, 40263, Control_c, 0, 64, 0
2, 40297, Control_c, 0, 64, 127
2, 40304, Note_on_c, 0, 47, 21
2, 40370, Note_on_c, 0, 54, 0
2, 40371, Note_on_c, 0, 47, 0
2, 40378, Note_on_c, 0, 46, 51
2, 40462, Note_on_c, 0, 50, 35
2, 40515, Note_on_c, 0, 50, 0
2, 40557, Note_on_c, 0, 51, 33
2, 40578, Control_c, 0, 64, 0
2, 40605, Control_c, 0, 64, 127
2, 40627, Note_on_c, 0, 51, 0
2, 40699, Note_on_c, 0, 53, 26
2, 40773, Control_c, 0, 64, 0
2, 40824, Control_c, 0, 64, 127
2, 40997, Note_on_c, 0, 53, 0
2, 41106, Note_on_c, 0, 55, 25
2, 41215, Control_c, 0, 64, 0
2, 41250, Control_c, 0, 64, 127
2, 41307, Control_c, 0, 64, 0
2, 41503, Control_c, 0, 64, 127
2, 41540, Note_on_c, 0, 46, 0
2, 41575, Note_on_c, 0, 55, 0
2, 41578, Note_on_c, 0, 63, 0
2, 41580, Note_on_c, 0, 39, 0
2, 42084, Control_c, 0, 64, 0
2, 42084, End_track
0, 0, End_of_file
