0, 0, Header, 1, 2, 480
1, 0, Start_track
1, 0, Time_signature, 4, 2, 24, 8
1, 0, Key_signature, 0, "major"
1, 0, Tempo, 500000
1, 0, End_track
2, 0, Start_track
2, 0, MIDI_port, 0
2, 0, Control_c, 0, 64, 127
2, 232, Note_on_c, 0, 67, 54
2, 302, Note_on_c, 0, 67, 0
2, 672, Note_on_c, 0, 67, 64
2, 676, Note_on_c, 0, 64, 52
2, 685, Note_on_c, 0, 48, 27
2, 693, Note_on_c, 0, 36, 33
2, 717, Note_on_c, 0, 67, 0
2, 722, Note_on_c, 0, 64, 0
2, 808, Note_on_c, 0, 36, 0
2, 808, Note_on_c, 0, 72, 80
2, 811, Note_on_c, 0, 64, 72
2, 836, Note_on_c, 0, 48, 0
2, 864, Note_on_c, 0, 64, 0
2, 868, Note_on_c, 0, 72, 0
2, 948, Note_on_c, 0, 68, 79
2, 957, Note_on_c, 0, 65, 68
2, 1000, Note_on_c, 0, 65, 0
2, 1003, Note_on_c, 0, 68, 0
2, 1070, Note_on_c, 0, 65, 83
2, 1072, Note_on_c, 0, 74, 95
2, 1101, Note_on_c, 0, 74, 0
2, 1116, Note_on_c, 0, 65, 0
2, 1216, Note_on_c, 0, 56, 86
2, 1221, Note_on_c, 0, 65, 72
2, 1223, Note_on_c, 0, 62, 59
2, 1269, Note_on_c, 0, 65, 0
2, 1273, Note_on_c, 0, 62, 0
2, 1320, Control_c, 0, 64, 0
2, 1339, Note_on_c, 0, 62, 85
2, 1363, Note_on_c, 0, 71, 44
2, 1380, Note_on_c, 0, 62, 0
2, 1406, Note_on_c, 0, 71, 0
2, 1488, Note_on_c, 0, 62, 59
2, 1493, Note_on_c, 0, 59, 72
2, 1521, Note_on_c, 0, 55, 75
2, 1532, Note_on_c, 0, 59, 0
2, 1560, Note_on_c, 0, 62, 0
2, 1562, Note_on_c, 0, 56, 0
2, 1638, Note_on_c, 0, 67, 83
2, 1639, Note_on_c, 0, 59, 42
2, 1682, Note_on_c, 0, 59, 0
2, 1688, Note_on_c, 0, 67, 0
2, 1771, Note_on_c, 0, 63, 73
2, 1776, Note_on_c, 0, 60, 67
2, 1781, Note_on_c, 0, 54, 58
2, 1795, Note_on_c, 0, 55, 0
2, 1820, Note_on_c, 0, 60, 0
2, 1821, Note_on_c, 0, 63, 0
2, 1900, Note_on_c, 0, 69, 67
2, 1901, Note_on_c, 0, 60, 81
2, 1943, Note_on_c, 0, 69, 0
2, 1968, Note_on_c, 0, 60, 0
2, 2004, Note_on_c, 0, 54, 0
2, 2052, Note_on_c, 0, 68, 59
2, 2056, Note_on_c, 0, 62, 72
2, 2061, Note_on_c, 0, 53, 75
2, 2073, Control_c, 0, 64, 127
2, 2097, Note_on_c, 0, 62, 0
2, 2102, Note_on_c, 0, 53, 0
2, 2107, Note_on_c, 0, 68, 0
2, 2184, Note_on_c, 0, 62, 46
2, 2188, Note_on_c, 0, 71, 65
2, 2229, Note_on_c, 0, 62, 0
2, 2232, Note_on_c, 0, 71, 0
2, 2318, Control_c, 0, 64, 0
2, 2340, Note_on_c, 0, 36, 73
2, 2340, Note_on_c, 0, 67, 76
2, 2349, Note_on_c, 0, 64, 49
2, 2383, Note_on_c, 0, 67, 0
2, 2397, Note_on_c, 0, 64, 0
2, 2452, Note_on_c, 0, 36, 0
2, 2457, Control_c, 0, 64, 127
2, 2462, Note_on_c, 0, 72, 67
2, 2471, Note_on_c, 0, 64, 25
2, 2512, Note_on_c, 0, 72, 0
2, 2526, Note_on_c, 0, 64, 0
2, 2583, Note_on_c, 0, 68, 75
2, 2589, Note_on_c, 0, 65, 50
2, 2601, Note_on_c, 0, 48, 81
2, 2635, Note_on_c, 0, 68, 0
2, 2644, Note_on_c, 0, 65, 0
2, 2702, Note_on_c, 0, 74, 90
2, 2707, Note_on_c, 0, 65, 89
2, 2736, Note_on_c, 0, 74, 0
2, 2745, Note_on_c, 0, 65, 0
2, 2852, Note_on_c, 0, 65, 16
2, 2856, Note_on_c, 0, 56, 91
2, 2858, Note_on_c, 0, 62, 75
2, 2892, Note_on_c, 0, 48, 0
2, 2899, Note_on_c, 0, 62, 0
2, 2922, Note_on_c, 0, 65, 0
2, 2973, Note_on_c, 0, 62, 72
2, 2985, Note_on_c, 0, 71, 65
2, 3019, Note_on_c, 0, 71, 0
2, 3028, Note_on_c, 0, 62, 0
2, 3117, Note_on_c, 0, 62, 59
2, 3124, Note_on_c, 0, 55, 89
2, 3125, Note_on_c, 0, 59, 26
2, 3132, Control_c, 0, 64, 0
2, 3160, Note_on_c, 0, 56, 0
2, 3172, Note_on_c, 0, 62, 0
2, 3185, Note_on_c, 0, 59, 0
2, 3259, Note_on_c, 0, 59, 45
2, 3261, Note_on_c, 0, 67, 74
2, 3309, Note_on_c, 0, 59, 0
2, 3312, Note_on_c, 0, 67, 0
2, 3391, Note_on_c, 0, 54, 77
2, 3391, Note_on_c, 0, 60, 63
2, 3393, Note_on_c, 0, 63, 72
2, 3422, Note_on_c, 0, 55, 0
2, 3436, Note_on_c, 0, 60, 0
2, 3441, Note_on_c, 0, 63, 0
2, 3507, Note_on_c, 0, 69, 80
2, 3509, Note_on_c, 0, 60, 87
2, 3548, Note_on_c, 0, 69, 0
2, 3576, Note_on_c, 0, 60, 0
2, 3643, Note_on_c, 0, 62, 66
2, 3645, Note_on_c, 0, 68, 65
2, 3645, Note_on_c, 0, 53, 88
2, 3655, Note_on_c, 0, 54, 0
2, 3688, Note_on_c, 0, 62, 0
2, 3729, Note_on_c, 0, 68, 0
2, 3752, Note_on_c, 0, 71, 70
2, 3753, Note_on_c, 0, 62, 81
2, 3801, Note_on_c, 0, 62, 0
2, 3810, Note_on_c, 0, 71, 0
2, 3825, Control_c, 0, 64, 127
2, 3885, Control_c, 0, 64, 0
2, 3890, Note_on_c, 0, 52, 98
2, 3892, Note_on_c, 0, 53, 0
2, 3895, Note_on_c, 0, 64, 63
2, 3897, Note_on_c, 0, 67, 73
2, 3938, Note_on_c, 0, 64, 0
2, 3955, Note_on_c, 0, 67, 0
2, 3999, Note_on_c, 0, 72, 81
2, 4000, Note_on_c, 0, 64, 94
2, 4032, Note_on_c, 0, 64, 0
2, 4040, Note_on_c, 0, 72, 0
2, 4056, Control_c, 0, 64, 127
2, 4130, Note_on_c, 0, 65, 81
2, 4132, Control_c, 0, 64, 0
2, 4135, Note_on_c, 0, 71, 66
2, 4144, Note_on_c, 0, 50, 88
2, 4166, Note_on_c, 0, 52, 0
2, 4168, Note_on_c, 0, 65, 0
2, 4183, Note_on_c, 0, 71, 0
2, 4233, Note_on_c, 0, 65, 89
2, 4238, Note_on_c, 0, 74, 92
2, 4276, Note_on_c, 0, 74, 0
2, 4276, Note_on_c, 0, 65, 0
2, 4300, Control_c, 0, 64, 127
2, 4377, Control_c, 0, 64, 0
2, 4384, Note_on_c, 0, 70, 91
2, 4387, Note_on_c, 0, 49, 83
2, 4390, Note_on_c, 0, 67, 68
2, 4406, Note_on_c, 0, 50, 0
2, 4433, Note_on_c, 0, 67, 0
2, 4478, Note_on_c, 0, 70, 0
2, 4508, Note_on_c, 0, 67, 94
2, 4516, Note_on_c, 0, 76, 83
2, 4548, Note_on_c, 0, 67, 0
2, 4550, Note_on_c, 0, 76, 0
2, 4562, Control_c, 0, 64, 127
2, 4622, Control_c, 0, 64, 0
2, 4629, Note_on_c, 0, 76, 76
2, 4636, Note_on_c, 0, 70, 94
2, 4641, Note_on_c, 0, 61, 81
2, 4692, Note_on_c, 0, 70, 0
2, 4704, Note_on_c, 0, 76, 0
2, 4744, Note_on_c, 0, 70, 99
2, 4756, Note_on_c, 0, 79, 89
2, 4778, Control_c, 0, 64, 127
2, 4783, Note_on_c, 0, 70, 0
2, 4790, Note_on_c, 0, 79, 0
2, 4792, Note_on_c, 0, 49, 0
2, 4800, Note_on_c, 0, 61, 0
2, 4869, Control_c, 0, 64, 0
2, 4886, Note_on_c, 0, 62, 83
2, 4886, Note_on_c, 0, 50, 74
2, 4891, Note_on_c, 0, 74, 89
2, 4895, Note_on_c, 0, 69, 79
2, 4933, Note_on_c, 0, 69, 0
2, 4944, Note_on_c, 0, 74, 0
2, 4996, Note_on_c, 0, 69, 93
2, 4999, Note_on_c, 0, 62, 0
2, 5001, Note_on_c, 0, 77, 89
2, 5008, Control_c, 0, 64, 127
2, 5035, Note_on_c, 0, 77, 0
2, 5037, Note_on_c, 0, 69, 0
2, 5114, Control_c, 0, 64, 0
2, 5138, Note_on_c, 0, 69, 71
2, 5143, Note_on_c, 0, 67, 74
2, 5148, Note_on_c, 0, 61, 78
2, 5152, Note_on_c, 0, 50, 0
2, 5157, Note_on_c, 0, 52, 74
2, 5181, Note_on_c, 0, 67, 0
2, 5186, Note_on_c, 0, 69, 0
2, 5256, Note_on_c, 0, 52, 0
2, 5258, Note_on_c, 0, 61, 0
2, 5258, Note_on_c, 0, 67, 65
2, 5268, Note_on_c, 0, 76, 73
2, 5284, Control_c, 0, 64, 127
2, 5306, Note_on_c, 0, 67, 0
2, 5308, Note_on_c, 0, 76, 0
2, 5385, Note_on_c, 0, 52, 78
2, 5388, Note_on_c, 0, 61, 78
2, 5392, Control_c, 0, 64, 0
2, 5392, Note_on_c, 0, 67, 80
2, 5394, Note_on_c, 0, 69, 46
2, 5432, Note_on_c, 0, 67, 0
2, 5449, Note_on_c, 0, 69, 0
2, 5503, Note_on_c, 0, 67, 72
2, 5507, Note_on_c, 0, 76, 87
2, 5541, Note_on_c, 0, 76, 0
2, 5546, Note_on_c, 0, 67, 0
2, 5560, Control_c, 0, 64, 127
2, 5587, Note_on_c, 0, 61, 0
2, 5628, Note_on_c, 0, 52, 0
2, 5640, Note_on_c, 0, 53, 73
2, 5640, Note_on_c, 0, 62, 77
2, 5647, Note_on_c, 0, 65, 46
2, 5652, Note_on_c, 0, 69, 54
2, 5654, Control_c, 0, 64, 0
2, 5700, Note_on_c, 0, 69, 0
2, 5714, Note_on_c, 0, 65, 0
2, 5750, Note_on_c, 0, 62, 0
2, 5755, Note_on_c, 0, 74, 78
2, 5769, Note_on_c, 0, 65, 66
2, 5791, Note_on_c, 0, 74, 0
2, 5808, Control_c, 0, 64, 127
2, 5815, Note_on_c, 0, 65, 0
2, 5880, Note_on_c, 0, 54, 57
2, 5884, Control_c, 0, 64, 0
2, 5887, Note_on_c, 0, 69, 76
2, 5892, Note_on_c, 0, 63, 78
2, 5925, Note_on_c, 0, 53, 0
2, 5930, Note_on_c, 0, 69, 0
2, 5935, Note_on_c, 0, 63, 0
2, 5989, Note_on_c, 0, 72, 72
2, 5990, Note_on_c, 0, 63, 72
2, 6032, Note_on_c, 0, 72, 0
2, 6033, Note_on_c, 0, 63, 0
2, 6038, Control_c, 0, 64, 127
2, 6067, Control_c, 0, 64, 0
2, 6122, Note_on_c, 0, 64, 85
2, 6132, Note_on_c, 0, 67, 64
2, 6139, Note_on_c, 0, 55, 71
2, 6151, Note_on_c, 0, 54, 0
2, 6163, Note_on_c, 0, 64, 0
2, 6184, Note_on_c, 0, 67, 0
2, 6252, Note_on_c, 0, 64, 71
2, 6252, Note_on_c, 0, 72, 85
2, 6268, Control_c, 0, 64, 127
2, 6297, Note_on_c, 0, 64, 0
2, 6314, Control_c, 0, 64, 0
2, 6321, Note_on_c, 0, 72, 0
2, 6362, Note_on_c, 0, 55, 0
2, 6391, Note_on_c, 0, 66, 54
2, 6396, Note_on_c, 0, 63, 67
2, 6412, Note_on_c, 0, 43, 61
2, 6442, Note_on_c, 0, 63, 0
2, 6468, Control_c, 0, 64, 127
2, 6475, Note_on_c, 0, 66, 0
2, 6518, Note_on_c, 0, 72, 46
2, 6527, Note_on_c, 0, 63, 59
2, 6572, Note_on_c, 0, 63, 0
2, 6583, Note_on_c, 0, 72, 0
2, 6636, Control_c, 0, 64, 0
2, 6659, Note_on_c, 0, 65, 45
2, 6660, Note_on_c, 0, 62, 75
2, 6669, Note_on_c, 0, 55, 73
2, 6703, Note_on_c, 0, 62, 0
2, 6710, Note_on_c, 0, 55, 0
2, 6714, Note_on_c, 0, 65, 0
2, 6770, Note_on_c, 0, 43, 0
2, 6787, Note_on_c, 0, 62, 47
2, 6787, Note_on_c, 0, 71, 48
2, 6789, Control_c, 0, 64, 127
2, 6832, Note_on_c, 0, 71, 0
2, 6837, Note_on_c, 0, 62, 0
2, 6866, Note_on_c, 0, 36, 72
2, 6928, Control_c, 0, 64, 0
2, 6943, Note_on_c, 0, 67, 68
2, 6945, Note_on_c, 0, 64, 47
2, 6976, Note_on_c, 0, 36, 0
2, 6984, Note_on_c, 0, 48, 67
2, 6988, Note_on_c, 0, 67, 0
2, 6991, Note_on_c, 0, 64, 0
2, 7063, Note_on_c, 0, 72, 68
2, 7066, Note_on_c, 0, 64, 65
2, 7082, Control_c, 0, 64, 127
2, 7106, Note_on_c, 0, 64, 0
2, 7111, Note_on_c, 0, 48, 0
2, 7113, Note_on_c, 0, 72, 0
2, 7216, Note_on_c, 0, 68, 70
2, 7224, Note_on_c, 0, 65, 62
2, 7262, Note_on_c, 0, 68, 0
2, 7272, Note_on_c, 0, 65, 0
2, 7310, Note_on_c, 0, 56, 81
2, 7336, Note_on_c, 0, 74, 82
2, 7341, Note_on_c, 0, 65, 82
2, 7372, Note_on_c, 0, 74, 0
2, 7384, Note_on_c, 0, 65, 0
2, 7476, Note_on_c, 0, 65, 15
2, 7478, Note_on_c, 0, 62, 83
2, 7512, Control_c, 0, 64, 0
2, 7521, Note_on_c, 0, 62, 0
2, 7529, Note_on_c, 0, 65, 0
2, 7586, Note_on_c, 0, 62, 79
2, 7612, Note_on_c, 0, 71, 42
2, 7636, Note_on_c, 0, 62, 0
2, 7651, Control_c, 0, 64, 127
2, 7658, Note_on_c, 0, 71, 0
2, 7730, Note_on_c, 0, 59, 72
2, 7730, Note_on_c, 0, 55, 80
2, 7732, Note_on_c, 0, 62, 46
2, 7742, Control_c, 0, 64, 0
2, 7752, Note_on_c, 0, 56, 0
2, 7766, Note_on_c, 0, 59, 0
2, 7788, Note_on_c, 0, 62, 0
2, 7856, Note_on_c, 0, 59, 67
2, 7860, Note_on_c, 0, 67, 76
2, 7896, Control_c, 0, 64, 127
2, 7902, Note_on_c, 0, 59, 0
2, 7905, Note_on_c, 0, 67, 0
2, 7958, Control_c, 0, 64, 0
2, 7989, Note_on_c, 0, 63, 55
2, 7989, Note_on_c, 0, 54, 82
2, 7992, Note_on_c, 0, 60, 63
2, 7994, Note_on_c, 0, 55, 0
2, 8037, Note_on_c, 0, 60, 0
2, 8040, Note_on_c, 0, 63, 0
2, 8097, Note_on_c, 0, 60, 83
2, 8102, Note_on_c, 0, 69, 80
2, 8128, Control_c, 0, 64, 127
2, 8140, Note_on_c, 0, 60, 0
2, 8145, Note_on_c, 0, 69, 0
2, 8157, Note_on_c, 0, 54, 0
2, 8205, Control_c, 0, 64, 0
2, 8239, Note_on_c, 0, 53, 86
2, 8244, Note_on_c, 0, 68, 62
2, 8252, Note_on_c, 0, 62, 17
2, 8277, Note_on_c, 0, 53, 0
2, 8300, Note_on_c, 0, 62, 0
2, 8311, Note_on_c, 0, 68, 0
2, 8328, Control_c, 0, 64, 127
2, 8342, Note_on_c, 0, 71, 71
2, 8352, Note_on_c, 0, 62, 59
2, 8378, Note_on_c, 0, 71, 0
2, 8395, Note_on_c, 0, 62, 0
2, 8464, Control_c, 0, 64, 0
2, 8464, Note_on_c, 0, 36, 86
2, 8479, Note_on_c, 0, 64, 75
2, 8479, Note_on_c, 0, 67, 79
2, 8508, Note_on_c, 0, 36, 0
2, 8515, Note_on_c, 0, 64, 0
2, 8532, Note_on_c, 0, 67, 0
2, 8577, Note_on_c, 0, 64, 87
2, 8589, Note_on_c, 0, 72, 82
2, 8604, Control_c, 0, 64, 127
2, 8623, Note_on_c, 0, 64, 0
2, 8637, Note_on_c, 0, 72, 0
2, 8695, Note_on_c, 0, 68, 75
2, 8702, Note_on_c, 0, 65, 79
2, 8704, Note_on_c, 0, 48, 89
2, 8712, Control_c, 0, 64, 0
2, 8740, Note_on_c, 0, 65, 0
2, 8743, Note_on_c, 0, 68, 0
2, 8808, Note_on_c, 0, 74, 94
2, 8808, Note_on_c, 0, 65, 91
2, 8839, Note_on_c, 0, 74, 0
2, 8860, Note_on_c, 0, 65, 0
2, 8868, Control_c, 0, 64, 127
2, 8942, Control_c, 0, 64, 0
2, 8952, Note_on_c, 0, 56, 90
2, 8961, Note_on_c, 0, 62, 74
2, 8962, Note_on_c, 0, 65, 30
2, 9002, Note_on_c, 0, 62, 0
2, 9022, Note_on_c, 0, 65, 0
2, 9057, Note_on_c, 0, 62, 92
2, 9061, Note_on_c, 0, 71, 76
2, 9081, Control_c, 0, 64, 127
2, 9095, Note_on_c, 0, 71, 0
2, 9115, Note_on_c, 0, 62, 0
2, 9172, Control_c, 0, 64, 0
2, 9201, Note_on_c, 0, 55, 88
2, 9204, Note_on_c, 0, 56, 0
2, 9211, Note_on_c, 0, 62, 63
2, 9218, Note_on_c, 0, 59, 75
2, 9256, Note_on_c, 0, 59, 0
2, 9276, Note_on_c, 0, 62, 0
2, 9312, Control_c, 0, 64, 127
2, 9335, Note_on_c, 0, 59, 86
2, 9336, Note_on_c, 0, 67, 89
2, 9373, Note_on_c, 0, 59, 0
2, 9381, Note_on_c, 0, 67, 0
2, 9388, Control_c, 0, 64, 0
2, 9456, Note_on_c, 0, 63, 69
2, 9458, Note_on_c, 0, 54, 83
2, 9463, Note_on_c, 0, 60, 72
2, 9470, Note_on_c, 0, 55, 0
2, 9504, Note_on_c, 0, 60, 0
2, 9504, Note_on_c, 0, 63, 0
2, 9525, Control_c, 0, 64, 127
2, 9559, Note_on_c, 0, 60, 92
2, 9571, Note_on_c, 0, 69, 79
2, 9597, Note_on_c, 0, 60, 0
2, 9602, Control_c, 0, 64, 0
2, 9612, Note_on_c, 0, 69, 0
2, 9693, Note_on_c, 0, 54, 0
2, 9693, Note_on_c, 0, 62, 59
2, 9696, Note_on_c, 0, 68, 68
2, 9700, Note_on_c, 0, 53, 86
2, 9724, Control_c, 0, 64, 127
2, 9744, Note_on_c, 0, 62, 0
2, 9751, Note_on_c, 0, 68, 0
2, 9787, Note_on_c, 0, 48, 0
2, 9806, Note_on_c, 0, 71, 66
2, 9808, Note_on_c, 0, 62, 92
2, 9832, Control_c, 0, 64, 0
2, 9847, Note_on_c, 0, 62, 0
2, 9847, Note_on_c, 0, 71, 0
2, 9924, Note_on_c, 0, 52, 97
2, 9933, Note_on_c, 0, 64, 81
2, 9938, Note_on_c, 0, 53, 0
2, 9938, Note_on_c, 0, 67, 70
2, 9957, Control_c, 0, 64, 127
2, 9967, Note_on_c, 0, 64, 0
2, 9981, Note_on_c, 0, 67, 0
2, 10034, Control_c, 0, 64, 0
2, 10039, Note_on_c, 0, 64, 81
2, 10070, Note_on_c, 0, 64, 0
2, 10080, Note_on_c, 0, 72, 33
2, 10137, Note_on_c, 0, 72, 0
2, 10154, Note_on_c, 0, 52, 0
2, 10185, Note_on_c, 0, 48, 76
2, 10188, Control_c, 0, 64, 127
2, 10200, Note_on_c, 0, 70, 94
2, 10200, Note_on_c, 0, 67, 60
2, 10216, Control_c, 0, 64, 0
2, 10250, Note_on_c, 0, 67, 0
2, 10260, Note_on_c, 0, 70, 0
2, 10308, Note_on_c, 0, 76, 84
2, 10310, Note_on_c, 0, 67, 72
2, 10346, Note_on_c, 0, 76, 0
2, 10351, Note_on_c, 0, 67, 0
2, 10356, Control_c, 0, 64, 127
2, 10401, Control_c, 0, 64, 0
2, 10418, Note_on_c, 0, 67, 86
2, 10427, Note_on_c, 0, 71, 56
2, 10444, Note_on_c, 0, 48, 0
2, 10452, Note_on_c, 0, 47, 57
2, 10464, Note_on_c, 0, 67, 0
2, 10465, Note_on_c, 0, 71, 0
2, 10548, Note_on_c, 0, 67, 78
2, 10552, Note_on_c, 0, 76, 81
2, 10586, Control_c, 0, 64, 127
2, 10591, Note_on_c, 0, 67, 0
2, 10593, Note_on_c, 0, 76, 0
2, 10617, Control_c, 0, 64, 0
2, 10692, Note_on_c, 0, 67, 63
2, 10694, Note_on_c, 0, 47, 0
2, 10697, Note_on_c, 0, 73, 65
2, 10699, Note_on_c, 0, 46, 81
2, 10737, Note_on_c, 0, 67, 0
2, 10771, Control_c, 0, 64, 127
2, 10772, Note_on_c, 0, 73, 0
2, 10814, Note_on_c, 0, 67, 72
2, 10821, Note_on_c, 0, 76, 56
2, 10855, Note_on_c, 0, 67, 0
2, 10872, Note_on_c, 0, 76, 0
2, 10939, Note_on_c, 0, 46, 0
2, 10953, Note_on_c, 0, 76, 69
2, 10956, Control_c, 0, 64, 0
2, 10963, Note_on_c, 0, 47, 53
2, 10963, Note_on_c, 0, 71, 67
2, 10999, Note_on_c, 0, 71, 0
2, 11037, Note_on_c, 0, 76, 0
2, 11073, Note_on_c, 0, 79, 95
2, 11073, Note_on_c, 0, 71, 70
2, 11107, Note_on_c, 0, 79, 0
2, 11109, Control_c, 0, 64, 127
2, 11119, Note_on_c, 0, 71, 0
2, 11186, Control_c, 0, 64, 0
2, 11224, Note_on_c, 0, 59, 61
2, 11232, Note_on_c, 0, 69, 75
2, 11241, Note_on_c, 0, 71, 36
2, 11258, Note_on_c, 0, 47, 0
2, 11270, Note_on_c, 0, 69, 0
2, 11287, Note_on_c, 0, 71, 0
2, 11337, Note_on_c, 0, 69, 84
2, 11342, Note_on_c, 0, 78, 80
2, 11371, Control_c, 0, 64, 127
2, 11380, Note_on_c, 0, 69, 0
2, 11383, Note_on_c, 0, 78, 0
2, 11488, Note_on_c, 0, 59, 0
2, 11515, Note_on_c, 0, 67, 40
2, 11515, Note_on_c, 0, 71, 40
2, 11517, Note_on_c, 0, 52, 63
2, 11524, Control_c, 0, 64, 0
2, 11560, Note_on_c, 0, 71, 0
2, 11560, Note_on_c, 0, 67, 0
2, 11623, Note_on_c, 0, 67, 79
2, 11623, Note_on_c, 0, 76, 83
2, 11659, Note_on_c, 0, 67, 0
2, 11661, Note_on_c, 0, 76, 0
2, 11692, Control_c, 0, 64, 127
2, 11762, Note_on_c, 0, 76, 80
2, 11769, Control_c, 0, 64, 0
2, 11774, Note_on_c, 0, 71, 73
2, 11805, Note_on_c, 0, 71, 0
2, 11820, Note_on_c, 0, 76, 0
2, 11877, Note_on_c, 0, 71, 69
2, 11884, Note_on_c, 0, 79, 83
2, 11892, Control_c, 0, 64, 127
2, 11916, Note_on_c, 0, 71, 0
2, 11918, Note_on_c, 0, 79, 0
2, 11968, Control_c, 0, 64, 0
2, 12009, Note_on_c, 0, 79, 69
2, 12028, Note_on_c, 0, 76, 74
2, 12040, Note_on_c, 0, 52, 0
2, 12045, Control_c, 0, 64, 127
2, 12069, Note_on_c, 0, 76, 0
2, 12072, Note_on_c, 0, 79, 0
2, 12129, Note_on_c, 0, 83, 95
2, 12129, Note_on_c, 0, 76, 95
2, 12160, Note_on_c, 0, 76, 0
2, 12160, Note_on_c, 0, 83, 0
2, 12170, Control_c, 0, 64, 0
2, 12256, Note_on_c, 0, 64, 85
2, 12261, Note_on_c, 0, 83, 78
2, 12264, Note_on_c, 0, 79, 88
2, 12292, Control_c, 0, 64, 127
2, 12300, Note_on_c, 0, 79, 0
2, 12321, Note_on_c, 0, 83, 0
2, 12338, Control_c, 0, 64, 0
2, 12376, Note_on_c, 0, 79, 80
2, 12391, Note_on_c, 0, 88, 79
2, 12422, Note_on_c, 0, 79, 0
2, 12427, Note_on_c, 0, 88, 0
2, 12537, Note_on_c, 0, 77, 78
2, 12544, Note_on_c, 0, 81, 67
2, 12554, Note_on_c, 0, 65, 70
2, 12571, Note_on_c, 0, 64, 0
2, 12578, Note_on_c, 0, 77, 0
2, 12595, Note_on_c, 0, 81, 0
2, 12657, Note_on_c, 0, 86, 75
2, 12657, Note_on_c, 0, 77, 75
2, 12703, Note_on_c, 0, 77, 0
2, 12703, Note_on_c, 0, 86, 0
2, 12808, Note_on_c, 0, 77, 59
2, 12818, Note_on_c, 0, 65, 0
2, 12818, Note_on_c, 0, 79, 68
2, 12828, Note_on_c, 0, 67, 60
2, 12866, Note_on_c, 0, 77, 0
2, 12868, Note_on_c, 0, 79, 0
2, 12940, Note_on_c, 0, 83, 62
2, 12945, Note_on_c, 0, 77, 76
2, 12981, Note_on_c, 0, 83, 0
2, 12986, Note_on_c, 0, 77, 0
2, 13075, Control_c, 0, 64, 127
2, 13082, Note_on_c, 0, 67, 0
2, 13101, Note_on_c, 0, 60, 65
2, 13111, Note_on_c, 0, 79, 51
2, 13111, Note_on_c, 0, 76, 51
2, 13123, Control_c, 0, 64, 0
2, 13164, Note_on_c, 0, 76, 0
2, 13164, Note_on_c, 0, 79, 0
2, 13233, Note_on_c, 0, 84, 44
2, 13243, Note_on_c, 0, 76, 44
2, 13260, Control_c, 0, 64, 127
2, 13288, Note_on_c, 0, 84, 0
2, 13298, Note_on_c, 0, 76, 0
2, 13322, Control_c, 0, 64, 0
2, 13375, Note_on_c, 0, 80, 54
2, 13387, Note_on_c, 0, 77, 43
2, 13406, Note_on_c, 0, 60, 0
2, 13411, Note_on_c, 0, 68, 69
2, 13425, Note_on_c, 0, 80, 0
2, 13452, Note_on_c, 0, 77, 0
2, 13461, Control_c, 0, 64, 127
2, 13488, Note_on_c, 0, 86, 83
2, 13500, Note_on_c, 0, 77, 33
2, 13521, Note_on_c, 0, 86, 0
2, 13555, Note_on_c, 0, 77, 0
2, 13634, Note_on_c, 0, 77, 61
2, 13639, Note_on_c, 0, 74, 86
2, 13660, Control_c, 0, 64, 0
2, 13680, Note_on_c, 0, 74, 0
2, 13694, Note_on_c, 0, 77, 0
2, 13752, Note_on_c, 0, 74, 88
2, 13756, Note_on_c, 0, 83, 69
2, 13790, Note_on_c, 0, 83, 0
2, 13795, Note_on_c, 0, 74, 0
2, 13797, Control_c, 0, 64, 127
2, 13874, Control_c, 0, 64, 0
2, 13905, Note_on_c, 0, 67, 78
2, 13910, Note_on_c, 0, 71, 65
2, 13912, Note_on_c, 0, 68, 0
2, 13912, Note_on_c, 0, 74, 47
2, 13946, Note_on_c, 0, 71, 0
2, 13960, Note_on_c, 0, 74, 0
2, 14028, Control_c, 0, 64, 127
2, 14035, Note_on_c, 0, 71, 73
2, 14037, Note_on_c, 0, 79, 61
2, 14071, Note_on_c, 0, 71, 0
2, 14076, Control_c, 0, 64, 0
2, 14083, Note_on_c, 0, 79, 0
2, 14140, Note_on_c, 0, 67, 0
2, 14152, Note_on_c, 0, 66, 66
2, 14155, Note_on_c, 0, 75, 61
2, 14164, Note_on_c, 0, 72, 57
2, 14203, Note_on_c, 0, 75, 0
2, 14220, Note_on_c, 0, 72, 0
2, 14229, Control_c, 0, 64, 127
2, 14287, Note_on_c, 0, 81, 62
2, 14289, Note_on_c, 0, 72, 54
2, 14320, Control_c, 0, 64, 0
2, 14330, Note_on_c, 0, 81, 0
2, 14342, Note_on_c, 0, 72, 0
2, 14352, Note_on_c, 0, 66, 0
2, 14416, Note_on_c, 0, 80, 70
2, 14419, Note_on_c, 0, 74, 63
2, 14419, Note_on_c, 0, 65, 73
2, 14443, Control_c, 0, 64, 127
2, 14460, Note_on_c, 0, 65, 0
2, 14462, Note_on_c, 0, 74, 0
2, 14472, Note_on_c, 0, 80, 0
2, 14532, Note_on_c, 0, 74, 79
2, 14548, Note_on_c, 0, 83, 55
2, 14572, Note_on_c, 0, 74, 0
2, 14592, Note_on_c, 0, 83, 0
2, 14644, Control_c, 0, 64, 0
2, 14671, Note_on_c, 0, 76, 64
2, 14673, Note_on_c, 0, 48, 74
2, 14673, Note_on_c, 0, 79, 68
2, 14714, Note_on_c, 0, 76, 0
2, 14719, Note_on_c, 0, 79, 0
2, 14724, Note_on_c, 0, 48, 0
2, 14750, Control_c, 0, 64, 127
2, 14781, Note_on_c, 0, 76, 90
2, 14784, Note_on_c, 0, 84, 81
2, 14817, Note_on_c, 0, 76, 0
2, 14824, Note_on_c, 0, 84, 0
2, 14889, Control_c, 0, 64, 0
2, 14914, Note_on_c, 0, 80, 76
2, 14916, Note_on_c, 0, 60, 70
2, 14917, Note_on_c, 0, 77, 51
2, 14962, Note_on_c, 0, 80, 0
2, 14972, Note_on_c, 0, 77, 0
2, 15012, Control_c, 0, 64, 127
2, 15026, Note_on_c, 0, 86, 87
2, 15033, Note_on_c, 0, 77, 46
2, 15060, Note_on_c, 0, 86, 0
2, 15086, Note_on_c, 0, 77, 0
2, 15120, Control_c, 0, 64, 0
2, 15144, Note_on_c, 0, 68, 90
2, 15168, Note_on_c, 0, 77, 80
2, 15172, Note_on_c, 0, 74, 36
2, 15211, Note_on_c, 0, 77, 0
2, 15212, Note_on_c, 0, 74, 0
2, 15259, Control_c, 0, 64, 127
2, 15268, Note_on_c, 0, 74, 36
2, 15268, Note_on_c, 0, 83, 73
2, 15300, Note_on_c, 0, 83, 0
2, 15308, Note_on_c, 0, 74, 0
2, 15355, Note_on_c, 0, 60, 0
2, 15367, Control_c, 0, 64, 0
2, 15405, Note_on_c, 0, 67, 86
2, 15408, Note_on_c, 0, 74, 68
2, 15412, Note_on_c, 0, 68, 0
2, 15415, Note_on_c, 0, 71, 69
2, 15453, Note_on_c, 0, 71, 0
2, 15472, Note_on_c, 0, 74, 0
2, 15489, Control_c, 0, 64, 127
2, 15520, Note_on_c, 0, 71, 78
2, 15537, Note_on_c, 0, 79, 78
2, 15559, Note_on_c, 0, 71, 0
2, 15578, Note_on_c, 0, 79, 0
2, 15580, Control_c, 0, 64, 0
2, 15660, Note_on_c, 0, 67, 0
2, 15662, Note_on_c, 0, 75, 67
2, 15664, Note_on_c, 0, 66, 73
2, 15672, Note_on_c, 0, 72, 72
2, 15712, Note_on_c, 0, 75, 0
2, 15715, Note_on_c, 0, 72, 0
2, 15720, Control_c, 0, 64, 127
2, 15780, Note_on_c, 0, 81, 81
2, 15780, Note_on_c, 0, 72, 87
2, 15796, Control_c, 0, 64, 0
2, 15818, Note_on_c, 0, 72, 0
2, 15820, Note_on_c, 0, 81, 0
2, 15904, Note_on_c, 0, 66, 0
2, 15912, Note_on_c, 0, 80, 60
2, 15914, Note_on_c, 0, 74, 63
2, 15916, Note_on_c, 0, 65, 83
2, 15919, Control_c, 0, 64, 127
2, 15957, Note_on_c, 0, 74, 0
2, 15964, Note_on_c, 0, 80, 0
2, 16012, Control_c, 0, 64, 0
2, 16015, Note_on_c, 0, 83, 73
2, 16024, Note_on_c, 0, 74, 75
2, 16053, Note_on_c, 0, 83, 0
2, 16065, Note_on_c, 0, 74, 0
2, 16118, Control_c, 0, 64, 127
2, 16156, Note_on_c, 0, 64, 87
2, 16159, Note_on_c, 0, 79, 81
2, 16161, Note_on_c, 0, 65, 0
2, 16161, Note_on_c, 0, 76, 46
2, 16212, Note_on_c, 0, 79, 0
2, 16221, Note_on_c, 0, 76, 0
2, 16226, Control_c, 0, 64, 0
2, 16276, Note_on_c, 0, 84, 90
2, 16284, Note_on_c, 0, 76, 54
2, 16310, Note_on_c, 0, 84, 0
2, 16329, Note_on_c, 0, 76, 0
2, 16334, Control_c, 0, 64, 127
2, 16413, Note_on_c, 0, 62, 83
2, 16428, Note_on_c, 0, 83, 65
2, 16430, Note_on_c, 0, 77, 63
2, 16435, Note_on_c, 0, 64, 0
2, 16442, Control_c, 0, 64, 0
2, 16478, Note_on_c, 0, 77, 0
2, 16480, Note_on_c, 0, 83, 0
2, 16551, Note_on_c, 0, 86, 89
2, 16557, Note_on_c, 0, 77, 54
2, 16564, Control_c, 0, 64, 127
2, 16585, Note_on_c, 0, 86, 0
2, 16612, Note_on_c, 0, 77, 0
2, 16656, Control_c, 0, 64, 0
2, 16668, Note_on_c, 0, 61, 76
2, 16672, Note_on_c, 0, 62, 0
2, 16682, Note_on_c, 0, 82, 63
2, 16682, Note_on_c, 0, 79, 63
2, 16728, Note_on_c, 0, 79, 0
2, 16728, Note_on_c, 0, 82, 0
2, 16804, Note_on_c, 0, 79, 63
2, 16808, Note_on_c, 0, 88, 23
2, 16809, Control_c, 0, 64, 127
2, 16848, Note_on_c, 0, 79, 0
2, 16856, Note_on_c, 0, 88, 0
2, 16903, Control_c, 0, 64, 0
2, 16932, Note_on_c, 0, 73, 83
2, 16941, Note_on_c, 0, 82, 85
2, 16945, Note_on_c, 0, 88, 69
2, 16988, Note_on_c, 0, 88, 0
2, 16992, Note_on_c, 0, 82, 0
2, 17044, Note_on_c, 0, 82, 99
2, 17061, Note_on_c, 0, 91, 89
2, 17071, Control_c, 0, 64, 127
2, 17083, Note_on_c, 0, 82, 0
2, 17095, Note_on_c, 0, 91, 0
2, 17095, Note_on_c, 0, 61, 0
2, 17102, Note_on_c, 0, 73, 0
2, 17196, Note_on_c, 0, 74, 88
2, 17200, Note_on_c, 0, 62, 73
2, 17220, Note_on_c, 0, 86, 79
2, 17224, Note_on_c, 0, 81, 63
2, 17256, Control_c, 0, 64, 0
2, 17269, Note_on_c, 0, 81, 0
2, 17284, Note_on_c, 0, 86, 0
2, 17301, Control_c, 0, 64, 127
2, 17316, Note_on_c, 0, 74, 0
2, 17316, Note_on_c, 0, 81, 97
2, 17316, Note_on_c, 0, 89, 97
2, 17347, Note_on_c, 0, 89, 0
2, 17347, Note_on_c, 0, 81, 0
2, 17380, Note_on_c, 0, 62, 0
2, 17440, Control_c, 0, 64, 0
2, 17452, Note_on_c, 0, 73, 88
2, 17457, Note_on_c, 0, 81, 48
2, 17457, Note_on_c, 0, 79, 90
2, 17467, Note_on_c, 0, 64, 78
2, 17493, Note_on_c, 0, 79, 0
2, 17508, Note_on_c, 0, 81, 0
2, 17563, Note_on_c, 0, 73, 0
2, 17565, Note_on_c, 0, 79, 84
2, 17568, Note_on_c, 0, 64, 0
2, 17580, Control_c, 0, 64, 127
2, 17582, Note_on_c, 0, 88, 92
2, 17616, Note_on_c, 0, 88, 0
2, 17616, Note_on_c, 0, 79, 0
2, 17690, Note_on_c, 0, 64, 57
2, 17702, Control_c, 0, 64, 0
2, 17704, Note_on_c, 0, 79, 79
2, 17707, Note_on_c, 0, 73, 84
2, 17708, Note_on_c, 0, 81, 65
2, 17743, Note_on_c, 0, 79, 0
2, 17749, Note_on_c, 0, 81, 0
2, 17815, Note_on_c, 0, 79, 93
2, 17832, Note_on_c, 0, 88, 94
2, 17841, Control_c, 0, 64, 127
2, 17853, Note_on_c, 0, 73, 0
2, 17860, Note_on_c, 0, 79, 0
2, 17865, Note_on_c, 0, 64, 0
2, 17865, Note_on_c, 0, 88, 0
2, 17947, Note_on_c, 0, 74, 87
2, 17964, Note_on_c, 0, 65, 72
2, 17970, Note_on_c, 0, 81, 58
2, 17978, Control_c, 0, 64, 0
2, 17983, Note_on_c, 0, 77, 68
2, 18016, Note_on_c, 0, 81, 0
2, 18026, Note_on_c, 0, 77, 0
2, 18055, Note_on_c, 0, 74, 0
2, 18074, Note_on_c, 0, 86, 89
2, 18086, Control_c, 0, 64, 127
2, 18093, Note_on_c, 0, 77, 79
2, 18105, Note_on_c, 0, 86, 0
2, 18132, Note_on_c, 0, 77, 0
2, 18194, Note_on_c, 0, 66, 71
2, 18201, Note_on_c, 0, 65, 0
2, 18204, Note_on_c, 0, 81, 84
2, 18216, Note_on_c, 0, 75, 80
2, 18225, Control_c, 0, 64, 0
2, 18261, Note_on_c, 0, 75, 0
2, 18271, Note_on_c, 0, 81, 0
2, 18324, Note_on_c, 0, 75, 64
2, 18324, Note_on_c, 0, 84, 86
2, 18348, Control_c, 0, 64, 127
2, 18357, Note_on_c, 0, 84, 0
2, 18369, Note_on_c, 0, 75, 0
2, 18424, Control_c, 0, 64, 0
2, 18456, Note_on_c, 0, 66, 0
2, 18465, Note_on_c, 0, 79, 75
2, 18468, Note_on_c, 0, 76, 78
2, 18484, Note_on_c, 0, 67, 67
2, 18511, Note_on_c, 0, 76, 0
2, 18554, Note_on_c, 0, 79, 0
2, 18588, Note_on_c, 0, 76, 83
2, 18592, Note_on_c, 0, 84, 80
2, 18595, Control_c, 0, 64, 127
2, 18643, Note_on_c, 0, 76, 0
2, 18669, Note_on_c, 0, 67, 0
2, 18686, Control_c, 0, 64, 0
2, 18691, Note_on_c, 0, 84, 0
2, 18722, Note_on_c, 0, 75, 68
2, 18724, Note_on_c, 0, 78, 66
2, 18734, Note_on_c, 0, 55, 57
2, 18770, Note_on_c, 0, 75, 0
2, 18820, Note_on_c, 0, 78, 0
2, 18840, Control_c, 0, 64, 127
2, 18842, Note_on_c, 0, 75, 58
2, 18871, Note_on_c, 0, 84, 39
2, 18890, Note_on_c, 0, 75, 0
2, 18928, Note_on_c, 0, 84, 0
2, 18931, Control_c, 0, 64, 0
2, 18984, Note_on_c, 0, 67, 69
2, 18996, Note_on_c, 0, 74, 80
2, 19008, Note_on_c, 0, 77, 72
2, 19024, Control_c, 0, 64, 127
2, 19027, Note_on_c, 0, 67, 0
2, 19036, Note_on_c, 0, 74, 0
2, 19056, Note_on_c, 0, 77, 0
2, 19063, Note_on_c, 0, 55, 0
2, 19123, Note_on_c, 0, 83, 68
2, 19125, Note_on_c, 0, 74, 65
2, 19166, Note_on_c, 0, 83, 0
2, 19171, Note_on_c, 0, 74, 0
2, 19192, Note_on_c, 0, 48, 54
2, 19255, Control_c, 0, 64, 0
2, 19281, Note_on_c, 0, 79, 78
2, 19293, Note_on_c, 0, 76, 59
2, 19300, Note_on_c, 0, 60, 79
2, 19305, Note_on_c, 0, 48, 0
2, 19334, Note_on_c, 0, 79, 0
2, 19341, Note_on_c, 0, 76, 0
2, 19406, Note_on_c, 0, 84, 69
2, 19408, Control_c, 0, 64, 127
2, 19423, Note_on_c, 0, 76, 63
2, 19452, Note_on_c, 0, 84, 0
2, 19471, Note_on_c, 0, 76, 0
2, 19576, Note_on_c, 0, 80, 62
2, 19576, Note_on_c, 0, 77, 55
2, 19620, Note_on_c, 0, 80, 0
2, 19624, Note_on_c, 0, 77, 0
2, 19639, Note_on_c, 0, 68, 90
2, 19704, Note_on_c, 0, 86, 82
2, 19706, Note_on_c, 0, 77, 69
2, 19737, Note_on_c, 0, 86, 0
2, 19771, Note_on_c, 0, 77, 0
2, 19874, Note_on_c, 0, 74, 80
2, 19878, Note_on_c, 0, 77, 41
2, 19912, Note_on_c, 0, 74, 0
2, 19915, Control_c, 0, 64, 0
2, 19933, Note_on_c, 0, 77, 0
2, 19994, Note_on_c, 0, 74, 80
2, 19999, Note_on_c, 0, 83, 81
2, 20028, Note_on_c, 0, 83, 0
2, 20042, Note_on_c, 0, 74, 0
2, 20068, Control_c, 0, 64, 127
2, 20136, Note_on_c, 0, 67, 81
2, 20152, Note_on_c, 0, 74, 64
2, 20162, Note_on_c, 0, 68, 0
2, 20164, Note_on_c, 0, 71, 50
2, 20191, Control_c, 0, 64, 0
2, 20205, Note_on_c, 0, 74, 0
2, 20208, Note_on_c, 0, 71, 0
2, 20272, Note_on_c, 0, 79, 82
2, 20282, Note_on_c, 0, 71, 61
2, 20313, Note_on_c, 0, 79, 0
2, 20316, Control_c, 0, 64, 127
2, 20320, Note_on_c, 0, 71, 0
2, 20407, Note_on_c, 0, 67, 0
2, 20421, Control_c, 0, 64, 0
2, 20424, Note_on_c, 0, 75, 67
2, 20431, Note_on_c, 0, 66, 66
2, 20431, Note_on_c, 0, 72, 74
2, 20472, Note_on_c, 0, 72, 0
2, 20472, Note_on_c, 0, 75, 0
2, 20531, Note_on_c, 0, 72, 88
2, 20538, Note_on_c, 0, 81, 59
2, 20546, Control_c, 0, 64, 127
2, 20577, Note_on_c, 0, 72, 0
2, 20581, Note_on_c, 0, 81, 0
2, 20618, Note_on_c, 0, 66, 0
2, 20637, Control_c, 0, 64, 0
2, 20673, Note_on_c, 0, 60, 0
2, 20690, Note_on_c, 0, 80, 67
2, 20695, Note_on_c, 0, 74, 67
2, 20702, Note_on_c, 0, 65, 73
2, 20743, Note_on_c, 0, 65, 0
2, 20745, Control_c, 0, 64, 127
2, 20750, Note_on_c, 0, 80, 0
2, 20755, Note_on_c, 0, 74, 0
2, 20800, Note_on_c, 0, 74, 66
2, 20805, Note_on_c, 0, 83, 61
2, 20839, Note_on_c, 0, 74, 0
2, 20848, Note_on_c, 0, 83, 0
2, 20899, Control_c, 0, 64, 0
2, 20928, Note_on_c, 0, 48, 89
2, 20930, Note_on_c, 0, 79, 81
2, 20940, Note_on_c, 0, 76, 73
2, 20968, Note_on_c, 0, 48, 0
2, 20976, Note_on_c, 0, 79, 0
2, 20978, Note_on_c, 0, 76, 0
2, 21021, Control_c, 0, 64, 127
2, 21038, Note_on_c, 0, 76, 95
2, 21057, Note_on_c, 0, 84, 87
2, 21086, Note_on_c, 0, 76, 0
2, 21093, Note_on_c, 0, 84, 0
2, 21177, Note_on_c, 0, 80, 76
2, 21187, Note_on_c, 0, 60, 91
2, 21189, Control_c, 0, 64, 0
2, 21189, Note_on_c, 0, 77, 72
2, 21230, Note_on_c, 0, 77, 0
2, 21230, Note_on_c, 0, 80, 0
2, 21288, Note_on_c, 0, 77, 94
2, 21290, Note_on_c, 0, 86, 87
2, 21314, Control_c, 0, 64, 127
2, 21324, Note_on_c, 0, 86, 0
2, 21328, Note_on_c, 0, 77, 0
2, 21439, Note_on_c, 0, 77, 74
2, 21444, Note_on_c, 0, 68, 97
2, 21444, Note_on_c, 0, 74, 87
2, 21451, Control_c, 0, 64, 0
2, 21482, Note_on_c, 0, 74, 0
2, 21504, Note_on_c, 0, 77, 0
2, 21542, Note_on_c, 0, 74, 100
2, 21549, Note_on_c, 0, 83, 85
2, 21576, Control_c, 0, 64, 127
2, 21578, Note_on_c, 0, 83, 0
2, 21592, Note_on_c, 0, 74, 0
2, 21708, Note_on_c, 0, 67, 94
2, 21710, Note_on_c, 0, 74, 66
2, 21712, Control_c, 0, 64, 0
2, 21715, Note_on_c, 0, 68, 0
2, 21715, Note_on_c, 0, 71, 64
2, 21751, Note_on_c, 0, 71, 0
2, 21768, Note_on_c, 0, 74, 0
2, 21823, Note_on_c, 0, 79, 79
2, 21829, Note_on_c, 0, 71, 82
2, 21835, Control_c, 0, 64, 127
2, 21860, Note_on_c, 0, 71, 0
2, 21866, Note_on_c, 0, 79, 0
2, 21948, Note_on_c, 0, 75, 79
2, 21952, Note_on_c, 0, 72, 88
2, 21962, Note_on_c, 0, 66, 88
2, 21964, Note_on_c, 0, 67, 0
2, 21974, Control_c, 0, 64, 0
2, 21988, Note_on_c, 0, 72, 0
2, 21996, Note_on_c, 0, 75, 0
2, 22062, Note_on_c, 0, 72, 83
2, 22065, Note_on_c, 0, 81, 82
2, 22096, Control_c, 0, 64, 127
2, 22105, Note_on_c, 0, 81, 0
2, 22112, Note_on_c, 0, 72, 0
2, 22185, Note_on_c, 0, 66, 0
2, 22200, Note_on_c, 0, 74, 59
2, 22204, Note_on_c, 0, 80, 35
2, 22212, Note_on_c, 0, 65, 88
2, 22243, Note_on_c, 0, 60, 0
2, 22245, Note_on_c, 0, 74, 0
2, 22250, Control_c, 0, 64, 0
2, 22266, Note_on_c, 0, 80, 0
2, 22308, Note_on_c, 0, 74, 90
2, 22308, Note_on_c, 0, 83, 72
2, 22339, Note_on_c, 0, 74, 0
2, 22344, Note_on_c, 0, 83, 0
2, 22358, Control_c, 0, 64, 127
2, 22413, Note_on_c, 0, 65, 0
2, 22449, Note_on_c, 0, 76, 66
2, 22454, Note_on_c, 0, 79, 68
2, 22456, Note_on_c, 0, 64, 94
2, 22492, Note_on_c, 0, 76, 0
2, 22497, Control_c, 0, 64, 0
2, 22500, Note_on_c, 0, 79, 0
2, 22552, Note_on_c, 0, 84, 88
2, 22562, Note_on_c, 0, 76, 78
2, 22584, Note_on_c, 0, 84, 0
2, 22588, Control_c, 0, 64, 127
2, 22603, Note_on_c, 0, 76, 0
2, 22663, Note_on_c, 0, 64, 0
2, 22682, Control_c, 0, 64, 0
2, 22692, Note_on_c, 0, 82, 100
2, 22699, Note_on_c, 0, 79, 41
2, 22699, Note_on_c, 0, 60, 81
2, 22732, Note_on_c, 0, 82, 0
2, 22761, Note_on_c, 0, 79, 0
2, 22821, Note_on_c, 0, 88, 91
2, 22827, Note_on_c, 0, 79, 66
2, 22836, Control_c, 0, 64, 127
2, 22857, Note_on_c, 0, 88, 0
2, 22865, Note_on_c, 0, 79, 0
2, 22896, Control_c, 0, 64, 0
2, 22968, Note_on_c, 0, 79, 62
2, 22972, Note_on_c, 0, 83, 62
2, 22975, Note_on_c, 0, 59, 60
2, 22984, Note_on_c, 0, 60, 0
2, 23007, Note_on_c, 0, 79, 0
2, 23011, Note_on_c, 0, 83, 0
2, 23078, Note_on_c, 0, 88, 79
2, 23080, Control_c, 0, 64, 127
2, 23097, Note_on_c, 0, 79, 41
2, 23114, Note_on_c, 0, 88, 0
2, 23157, Note_on_c, 0, 79, 0
2, 23174, Control_c, 0, 64, 0
2, 23203, Note_on_c, 0, 59, 0
2, 23212, Note_on_c, 0, 85, 70
2, 23222, Note_on_c, 0, 58, 83
2, 23224, Note_on_c, 0, 79, 84
2, 23263, Note_on_c, 0, 79, 0
2, 23275, Note_on_c, 0, 85, 0
2, 23343, Note_on_c, 0, 79, 87
2, 23344, Note_on_c, 0, 88, 46
2, 23356, Control_c, 0, 64, 127
2, 23381, Note_on_c, 0, 79, 0
2, 23402, Note_on_c, 0, 88, 0
2, 23448, Note_on_c, 0, 58, 0
2, 23450, Control_c, 0, 64, 0
2, 23469, Note_on_c, 0, 88, 92
2, 23476, Note_on_c, 0, 83, 72
2, 23488, Note_on_c, 0, 59, 65
2, 23510, Note_on_c, 0, 83, 0
2, 23534, Note_on_c, 0, 88, 0
2, 23587, Control_c, 0, 64, 127
2, 23599, Note_on_c, 0, 83, 68
2, 23604, Note_on_c, 0, 91, 87
2, 23637, Note_on_c, 0, 91, 0
2, 23637, Note_on_c, 0, 59, 0
2, 23640, Note_on_c, 0, 83, 0
2, 23695, Control_c, 0, 64, 0
2, 23743, Note_on_c, 0, 47, 58
2, 23745, Note_on_c, 0, 81, 83
2, 23750, Note_on_c, 0, 83, 83
2, 23781, Note_on_c, 0, 81, 0
2, 23786, Note_on_c, 0, 83, 0
2, 23798, Note_on_c, 0, 47, 0
2, 23803, Control_c, 0, 64, 127
2, 23868, Note_on_c, 0, 81, 60
2, 23880, Note_on_c, 0, 90, 76
2, 23920, Note_on_c, 0, 90, 0
2, 23923, Note_on_c, 0, 81, 0
2, 23988, Control_c, 0, 64, 0
2, 24033, Note_on_c, 0, 40, 79
2, 24048, Note_on_c, 0, 79, 68
2, 24050, Note_on_c, 0, 83, 62
2, 24088, Note_on_c, 0, 79, 0
2, 24093, Note_on_c, 0, 83, 0
2, 24141, Control_c, 0, 64, 127
2, 24144, Note_on_c, 0, 40, 0
2, 24172, Note_on_c, 0, 79, 52
2, 24175, Note_on_c, 0, 88, 70
2, 24216, Note_on_c, 0, 88, 0
2, 24225, Note_on_c, 0, 79, 0
2, 24309, Note_on_c, 0, 83, 57
2, 24310, Note_on_c, 0, 79, 73
2, 24334, Note_on_c, 0, 55, 81
2, 24352, Note_on_c, 0, 83, 0
2, 24353, Note_on_c, 0, 79, 0
2, 24357, Control_c, 0, 64, 0
2, 24427, Note_on_c, 0, 79, 65
2, 24444, Note_on_c, 0, 88, 62
2, 24472, Note_on_c, 0, 79, 0
2, 24480, Control_c, 0, 64, 127
2, 24489, Note_on_c, 0, 88, 0
2, 24556, Control_c, 0, 64, 0
2, 24585, Note_on_c, 0, 55, 0
2, 24628, Note_on_c, 0, 83, 62
2, 24636, Note_on_c, 0, 79, 79
2, 24648, Control_c, 0, 64, 127
2, 24650, Note_on_c, 0, 52, 85
2, 24676, Note_on_c, 0, 79, 0
2, 24684, Note_on_c, 0, 83, 0
2, 24748, Note_on_c, 0, 79, 73
2, 24765, Note_on_c, 0, 88, 66
2, 24801, Note_on_c, 0, 79, 0
2, 24808, Note_on_c, 0, 88, 0
2, 24890, Note_on_c, 0, 52, 0
2, 24892, Note_on_c, 0, 67, 81
2, 24914, Note_on_c, 0, 83, 46
2, 24916, Note_on_c, 0, 79, 42
2, 24940, Control_c, 0, 64, 0
2, 24972, Note_on_c, 0, 79, 0
2, 24972, Note_on_c, 0, 83, 0
2, 25041, Note_on_c, 0, 88, 58
2, 25060, Note_on_c, 0, 79, 53
2, 25080, Control_c, 0, 64, 127
2, 25104, Note_on_c, 0, 88, 0
2, 25108, Note_on_c, 0, 79, 0
2, 25171, Control_c, 0, 64, 0
2, 25207, Note_on_c, 0, 79, 45
2, 25215, Note_on_c, 0, 83, 44
2, 25262, Note_on_c, 0, 79, 0
2, 25263, Note_on_c, 0, 83, 0
2, 25356, Control_c, 0, 64, 127
2, 25360, Note_on_c, 0, 79, 58
2, 25365, Note_on_c, 0, 88, 73
2, 25413, Note_on_c, 0, 88, 0
2, 25440, Note_on_c, 0, 79, 0
2, 25502, Note_on_c, 0, 67, 0
2, 25524, Control_c, 0, 64, 0
2, 25562, Note_on_c, 0, 82, 74
2, 25572, Note_on_c, 0, 79, 54
2, 25593, Note_on_c, 0, 62, 34
2, 25622, Note_on_c, 0, 79, 0
2, 25629, Note_on_c, 0, 82, 0
2, 25677, Control_c, 0, 64, 127
2, 25687, Note_on_c, 0, 62, 0
2, 25764, Note_on_c, 0, 79, 58
2, 25776, Note_on_c, 0, 88, 56
2, 25816, Note_on_c, 0, 79, 0
2, 25824, Note_on_c, 0, 88, 0
2, 25970, Control_c, 0, 64, 0
2, 25978, Note_on_c, 0, 81, 68
2, 25980, Note_on_c, 0, 79, 34
2, 25987, Note_on_c, 0, 45, 56
2, 26022, Note_on_c, 0, 81, 0
2, 26044, Note_on_c, 0, 79, 0
2, 26092, Control_c, 0, 64, 127
2, 26100, Note_on_c, 0, 45, 0
2, 26108, Note_on_c, 0, 79, 41
2, 26112, Note_on_c, 0, 88, 78
2, 26148, Note_on_c, 0, 88, 0
2, 26159, Note_on_c, 0, 79, 0
2, 26246, Control_c, 0, 64, 0
2, 26248, Note_on_c, 0, 61, 69
2, 26258, Note_on_c, 0, 79, 54
2, 26263, Note_on_c, 0, 81, 69
2, 26304, Note_on_c, 0, 81, 0
2, 26304, Note_on_c, 0, 79, 0
2, 26304, Note_on_c, 0, 61, 0
2, 26340, Control_c, 0, 64, 127
2, 26366, Note_on_c, 0, 79, 90
2, 26376, Note_on_c, 0, 88, 84
2, 26378, Note_on_c, 0, 52, 69
2, 26412, Note_on_c, 0, 79, 0
2, 26414, Note_on_c, 0, 88, 0
2, 26416, Control_c, 0, 64, 0
2, 26433, Note_on_c, 0, 52, 0
2, 26505, Note_on_c, 0, 45, 84
2, 26529, Note_on_c, 0, 79, 41
2, 26536, Note_on_c, 0, 81, 58
2, 26553, Control_c, 0, 64, 127
2, 26582, Note_on_c, 0, 81, 0
2, 26589, Note_on_c, 0, 79, 0
2, 26599, Note_on_c, 0, 45, 0
2, 26628, Note_on_c, 0, 88, 91
2, 26632, Note_on_c, 0, 79, 45
2, 26664, Note_on_c, 0, 88, 0
2, 26680, Note_on_c, 0, 79, 0
2, 26724, Control_c, 0, 64, 0
2, 26767, Note_on_c, 0, 79, 67
2, 26774, Note_on_c, 0, 81, 76
2, 26788, Note_on_c, 0, 33, 35
2, 26812, Note_on_c, 0, 79, 0
2, 26815, Note_on_c, 0, 81, 0
2, 26851, Note_on_c, 0, 33, 0
2, 26860, Control_c, 0, 64, 127
2, 26880, Note_on_c, 0, 79, 85
2, 26889, Note_on_c, 0, 88, 94
2, 26928, Note_on_c, 0, 88, 0
2, 26937, Note_on_c, 0, 79, 0
2, 26985, Control_c, 0, 64, 0
2, 27021, Note_on_c, 0, 61, 77
2, 27031, Note_on_c, 0, 79, 71
2, 27037, Note_on_c, 0, 81, 66
2, 27067, Note_on_c, 0, 61, 0
2, 27069, Note_on_c, 0, 79, 0
2, 27080, Note_on_c, 0, 81, 0
2, 27122, Control_c, 0, 64, 127
2, 27129, Note_on_c, 0, 79, 92
2, 27146, Note_on_c, 0, 52, 72
2, 27151, Note_on_c, 0, 89, 74
2, 27184, Control_c, 0, 64, 0
2, 27187, Note_on_c, 0, 79, 0
2, 27192, Note_on_c, 0, 89, 0
2, 27204, Note_on_c, 0, 52, 0
2, 27280, Note_on_c, 0, 45, 87
2, 27288, Note_on_c, 0, 81, 81
2, 27300, Note_on_c, 0, 79, 36
2, 27319, Note_on_c, 0, 45, 0
2, 27326, Note_on_c, 0, 81, 0
2, 27338, Control_c, 0, 64, 127
2, 27362, Note_on_c, 0, 79, 0
2, 27412, Note_on_c, 0, 88, 92
2, 27422, Note_on_c, 0, 79, 65
2, 27448, Note_on_c, 0, 88, 0
2, 27460, Control_c, 0, 64, 0
2, 27465, Note_on_c, 0, 79, 0
2, 27542, Note_on_c, 0, 38, 89
2, 27549, Note_on_c, 0, 79, 64
2, 27555, Note_on_c, 0, 81, 78
2, 27576, Note_on_c, 0, 38, 0
2, 27590, Note_on_c, 0, 79, 0
2, 27594, Note_on_c, 0, 81, 0
2, 27660, Control_c, 0, 64, 127
2, 27660, Note_on_c, 0, 79, 88
2, 27669, Note_on_c, 0, 88, 93
2, 27700, Note_on_c, 0, 88, 0
2, 27705, Note_on_c, 0, 79, 0
2, 27825, Note_on_c, 0, 76, 74
2, 27828, Note_on_c, 0, 81, 73
2, 27840, Note_on_c, 0, 67, 60
2, 27866, Note_on_c, 0, 76, 0
2, 27868, Note_on_c, 0, 81, 0
2, 27888, Note_on_c, 0, 67, 0
2, 27907, Control_c, 0, 64, 0
2, 27909, Note_on_c, 0, 85, 91
2, 27921, Note_on_c, 0, 57, 87
2, 27948, Note_on_c, 0, 85, 0
2, 27952, Note_on_c, 0, 76, 55
2, 27955, Note_on_c, 0, 57, 0
2, 27984, Control_c, 0, 64, 127
2, 28000, Note_on_c, 0, 76, 0
2, 28015, Control_c, 0, 64, 0
2, 28046, Note_on_c, 0, 50, 91
2, 28046, Note_on_c, 0, 81, 76
2, 28056, Note_on_c, 0, 77, 89
2, 28087, Note_on_c, 0, 81, 0
2, 28092, Note_on_c, 0, 77, 0
2, 28167, Note_on_c, 0, 77, 91
2, 28168, Note_on_c, 0, 86, 88
2, 28195, Note_on_c, 0, 50, 0
2, 28197, Control_c, 0, 64, 127
2, 28207, Note_on_c, 0, 86, 0
2, 28215, Note_on_c, 0, 77, 0
2, 28322, Note_on_c, 0, 65, 88
2, 28324, Note_on_c, 0, 77, 61
2, 28324, Note_on_c, 0, 81, 78
2, 28370, Note_on_c, 0, 77, 0
2, 28394, Note_on_c, 0, 81, 0
2, 28430, Control_c, 0, 64, 0
2, 28456, Note_on_c, 0, 77, 76
2, 28461, Note_on_c, 0, 86, 77
2, 28500, Note_on_c, 0, 77, 0
2, 28504, Note_on_c, 0, 86, 0
2, 28584, Control_c, 0, 64, 127
2, 28612, Control_c, 0, 64, 0
2, 28629, Note_on_c, 0, 81, 67
2, 28632, Note_on_c, 0, 77, 59
2, 28684, Note_on_c, 0, 77, 0
2, 28699, Note_on_c, 0, 81, 0
2, 28768, Note_on_c, 0, 77, 72
2, 28783, Control_c, 0, 64, 127
2, 28785, Note_on_c, 0, 86, 57
2, 28824, Note_on_c, 0, 77, 0
2, 28833, Note_on_c, 0, 86, 0
2, 28884, Note_on_c, 0, 65, 0
2, 28920, Control_c, 0, 64, 0
2, 28958, Note_on_c, 0, 80, 69
2, 28966, Note_on_c, 0, 77, 62
2, 28968, Note_on_c, 0, 60, 52
2, 29013, Control_c, 0, 64, 127
2, 29017, Note_on_c, 0, 77, 0
2, 29025, Note_on_c, 0, 60, 0
2, 29042, Note_on_c, 0, 80, 0
2, 29140, Note_on_c, 0, 77, 72
2, 29157, Note_on_c, 0, 86, 70
2, 29188, Note_on_c, 0, 77, 0
2, 29198, Note_on_c, 0, 86, 0
2, 29289, Control_c, 0, 64, 0
2, 29316, Note_on_c, 0, 43, 49
2, 29320, Note_on_c, 0, 79, 79
2, 29325, Note_on_c, 0, 77, 63
2, 29361, Note_on_c, 0, 79, 0
2, 29371, Note_on_c, 0, 77, 0
2, 29397, Control_c, 0, 64, 127
2, 29436, Note_on_c, 0, 77, 89
2, 29448, Note_on_c, 0, 86, 81
2, 29452, Note_on_c, 0, 43, 0
2, 29479, Note_on_c, 0, 77, 0
2, 29486, Note_on_c, 0, 86, 0
2, 29568, Note_on_c, 0, 59, 62
2, 29582, Control_c, 0, 64, 0
2, 29592, Note_on_c, 0, 77, 65
2, 29599, Note_on_c, 0, 79, 67
2, 29635, Note_on_c, 0, 77, 0
2, 29640, Note_on_c, 0, 79, 0
2, 29654, Note_on_c, 0, 59, 0
2, 29673, Control_c, 0, 64, 127
2, 29695, Note_on_c, 0, 50, 70
2, 29697, Note_on_c, 0, 86, 94
2, 29700, Note_on_c, 0, 77, 89
2, 29731, Note_on_c, 0, 86, 0
2, 29736, Note_on_c, 0, 77, 0
2, 29752, Note_on_c, 0, 50, 0
2, 29812, Control_c, 0, 64, 0
2, 29822, Note_on_c, 0, 43, 70
2, 29834, Note_on_c, 0, 77, 67
2, 29837, Note_on_c, 0, 79, 73
2, 29877, Note_on_c, 0, 77, 0
2, 29878, Note_on_c, 0, 79, 0
2, 29920, Control_c, 0, 64, 127
2, 29942, Note_on_c, 0, 77, 94
2, 29952, Note_on_c, 0, 86, 94
2, 29954, Note_on_c, 0, 43, 0
2, 29992, Note_on_c, 0, 86, 0
2, 29997, Note_on_c, 0, 77, 0
2, 30074, Control_c, 0, 64, 0
2, 30129, Note_on_c, 0, 79, 89
2, 30136, Note_on_c, 0, 77, 67
2, 30136, Note_on_c, 0, 31, 57
2, 30168, Note_on_c, 0, 79, 0
2, 30177, Note_on_c, 0, 77, 0
2, 30184, Note_on_c, 0, 31, 0
2, 30228, Control_c, 0, 64, 127
2, 30250, Note_on_c, 0, 77, 91
2, 30252, Note_on_c, 0, 86, 87
2, 30290, Note_on_c, 0, 86, 0
2, 30296, Note_on_c, 0, 77, 0
2, 30379, Note_on_c, 0, 59, 79
2, 30381, Control_c, 0, 64, 0
2, 30391, Note_on_c, 0, 79, 92
2, 30398, Note_on_c, 0, 77, 68
2, 30427, Note_on_c, 0, 79, 0
2, 30429, Note_on_c, 0, 59, 0
2, 30441, Note_on_c, 0, 77, 0
2, 30489, Control_c, 0, 64, 127
2, 30504, Note_on_c, 0, 50, 90
2, 30506, Note_on_c, 0, 88, 88
2, 30511, Note_on_c, 0, 77, 92
2, 30540, Note_on_c, 0, 88, 0
2, 30559, Note_on_c, 0, 77, 0
2, 30580, Control_c, 0, 64, 0
2, 30609, Note_on_c, 0, 50, 0
2, 30616, Note_on_c, 0, 43, 91
2, 30645, Note_on_c, 0, 77, 78
2, 30645, Note_on_c, 0, 79, 85
2, 30684, Note_on_c, 0, 77, 0
2, 30688, Note_on_c, 0, 79, 0
2, 30703, Control_c, 0, 64, 127
2, 30710, Note_on_c, 0, 43, 0
2, 30746, Note_on_c, 0, 77, 92
2, 30760, Note_on_c, 0, 86, 92
2, 30794, Note_on_c, 0, 77, 0
2, 30804, Note_on_c, 0, 86, 0
2, 30842, Control_c, 0, 64, 0
2, 30888, Note_on_c, 0, 36, 90
2, 30907, Note_on_c, 0, 79, 89
2, 30909, Note_on_c, 0, 77, 80
2, 30931, Note_on_c, 0, 36, 0
2, 30945, Note_on_c, 0, 77, 0
2, 30950, Note_on_c, 0, 79, 0
2, 31010, Control_c, 0, 64, 127
2, 31020, Note_on_c, 0, 86, 91
2, 31020, Note_on_c, 0, 77, 77
2, 31051, Note_on_c, 0, 86, 0
2, 31063, Note_on_c, 0, 77, 0
2, 31144, Note_on_c, 0, 67, 89
2, 31164, Control_c, 0, 64, 0
2, 31176, Note_on_c, 0, 79, 66
2, 31185, Note_on_c, 0, 74, 26
2, 31190, Note_on_c, 0, 67, 0
2, 31240, Note_on_c, 0, 74, 0
2, 31240, Note_on_c, 0, 79, 0
2, 31257, Control_c, 0, 64, 127
2, 31262, Note_on_c, 0, 55, 92
2, 31264, Note_on_c, 0, 83, 81
2, 31296, Note_on_c, 0, 74, 47
2, 31298, Note_on_c, 0, 83, 0
2, 31300, Note_on_c, 0, 55, 0
2, 31348, Note_on_c, 0, 74, 0
2, 31380, Control_c, 0, 64, 0
2, 31399, Note_on_c, 0, 48, 96
2, 31411, Note_on_c, 0, 79, 87
2, 31430, Note_on_c, 0, 76, 51
2, 31478, Note_on_c, 0, 79, 0
2, 31483, Note_on_c, 0, 76, 0
2, 31526, Note_on_c, 0, 84, 85
2, 31533, Control_c, 0, 64, 127
2, 31540, Note_on_c, 0, 76, 54
2, 31564, Note_on_c, 0, 84, 0
2, 31576, Note_on_c, 0, 48, 0
2, 31584, Note_on_c, 0, 76, 0
2, 31701, Control_c, 0, 64, 0
2, 31704, Note_on_c, 0, 79, 36
2, 31707, Note_on_c, 0, 76, 51
2, 31711, Note_on_c, 0, 64, 46
2, 31755, Note_on_c, 0, 76, 0
2, 31764, Note_on_c, 0, 79, 0
2, 31826, Note_on_c, 0, 76, 64
2, 31838, Note_on_c, 0, 84, 68
2, 31872, Control_c, 0, 64, 127
2, 31884, Note_on_c, 0, 84, 0
2, 31886, Note_on_c, 0, 76, 0
2, 31963, Control_c, 0, 64, 0
2, 31987, Note_on_c, 0, 76, 61
2, 31991, Note_on_c, 0, 79, 62
2, 32035, Note_on_c, 0, 76, 0
2, 32080, Note_on_c, 0, 79, 0
2, 32124, Note_on_c, 0, 84, 68
2, 32126, Note_on_c, 0, 76, 62
2, 32133, Control_c, 0, 64, 127
2, 32162, Note_on_c, 0, 84, 0
2, 32172, Note_on_c, 0, 76, 0
2, 32229, Note_on_c, 0, 64, 0
2, 32256, Control_c, 0, 64, 0
2, 32308, Note_on_c, 0, 79, 70
2, 32309, Note_on_c, 0, 74, 63
2, 32318, Note_on_c, 0, 57, 44
2, 32354, Note_on_c, 0, 74, 0
2, 32366, Note_on_c, 0, 57, 0
2, 32378, Control_c, 0, 64, 127
2, 32402, Note_on_c, 0, 79, 0
2, 32462, Note_on_c, 0, 74, 54
2, 32469, Note_on_c, 0, 83, 41
2, 32512, Note_on_c, 0, 83, 0
2, 32524, Note_on_c, 0, 74, 0
2, 32625, Control_c, 0, 64, 0
2, 32654, Note_on_c, 0, 38, 68
2, 32656, Note_on_c, 0, 74, 80
2, 32671, Note_on_c, 0, 72, 65
2, 32702, Note_on_c, 0, 74, 0
2, 32719, Note_on_c, 0, 72, 0
2, 32762, Note_on_c, 0, 38, 0
2, 32779, Control_c, 0, 64, 127
2, 32791, Note_on_c, 0, 72, 84
2, 32820, Note_on_c, 0, 81, 63
2, 32841, Note_on_c, 0, 72, 0
2, 32863, Note_on_c, 0, 81, 0
2, 32944, Note_on_c, 0, 66, 81
2, 32949, Note_on_c, 0, 74, 83
2, 32956, Note_on_c, 0, 72, 59
2, 32964, Control_c, 0, 64, 0
2, 32992, Note_on_c, 0, 74, 0
2, 32997, Note_on_c, 0, 66, 0
2, 33002, Note_on_c, 0, 72, 0
2, 33024, Control_c, 0, 64, 127
2, 33060, Note_on_c, 0, 72, 98
2, 33081, Note_on_c, 0, 81, 84
2, 33103, Note_on_c, 0, 57, 61
2, 33105, Note_on_c, 0, 72, 0
2, 33117, Note_on_c, 0, 81, 0
2, 33163, Note_on_c, 0, 57, 0
2, 33194, Control_c, 0, 64, 0
2, 33208, Note_on_c, 0, 72, 76
2, 33211, Note_on_c, 0, 50, 83
2, 33220, Note_on_c, 0, 74, 66
2, 33249, Note_on_c, 0, 72, 0
2, 33264, Note_on_c, 0, 74, 0
2, 33316, Control_c, 0, 64, 127
2, 33319, Note_on_c, 0, 72, 81
2, 33321, Note_on_c, 0, 50, 0
2, 33328, Note_on_c, 0, 81, 85
2, 33364, Note_on_c, 0, 81, 0
2, 33369, Note_on_c, 0, 72, 0
2, 33453, Control_c, 0, 64, 0
2, 33463, Note_on_c, 0, 72, 75
2, 33465, Note_on_c, 0, 74, 75
2, 33472, Note_on_c, 0, 38, 95
2, 33499, Note_on_c, 0, 38, 0
2, 33504, Note_on_c, 0, 74, 0
2, 33506, Note_on_c, 0, 72, 0
2, 33578, Note_on_c, 0, 72, 91
2, 33583, Note_on_c, 0, 81, 89
2, 33592, Control_c, 0, 64, 127
2, 33619, Note_on_c, 0, 81, 0
2, 33629, Note_on_c, 0, 72, 0
2, 33717, Note_on_c, 0, 66, 87
2, 33720, Note_on_c, 0, 72, 73
2, 33729, Note_on_c, 0, 74, 75
2, 33732, Control_c, 0, 64, 0
2, 33763, Note_on_c, 0, 72, 0
2, 33765, Note_on_c, 0, 74, 0
2, 33784, Note_on_c, 0, 66, 0
2, 33823, Control_c, 0, 64, 127
2, 33854, Note_on_c, 0, 83, 83
2, 33857, Note_on_c, 0, 72, 79
2, 33859, Note_on_c, 0, 57, 85
2, 33888, Note_on_c, 0, 83, 0
2, 33912, Note_on_c, 0, 72, 0
2, 33967, Note_on_c, 0, 57, 0
2, 33976, Control_c, 0, 64, 0
2, 33988, Note_on_c, 0, 50, 86
2, 34015, Note_on_c, 0, 72, 66
2, 34015, Note_on_c, 0, 74, 74
2, 34044, Note_on_c, 0, 50, 0
2, 34056, Note_on_c, 0, 74, 0
2, 34060, Note_on_c, 0, 72, 0
2, 34070, Control_c, 0, 64, 127
2, 34132, Note_on_c, 0, 81, 88
2, 34133, Note_on_c, 0, 72, 90
2, 34168, Note_on_c, 0, 81, 0
2, 34184, Note_on_c, 0, 72, 0
2, 34296, Note_on_c, 0, 43, 88
2, 34298, Note_on_c, 0, 74, 74
2, 34298, Note_on_c, 0, 71, 60
2, 34341, Note_on_c, 0, 71, 0
2, 34346, Control_c, 0, 64, 0
2, 34365, Note_on_c, 0, 74, 0
2, 34408, Note_on_c, 0, 71, 75
2, 34415, Note_on_c, 0, 75, 80
2, 34466, Note_on_c, 0, 75, 0
2, 34466, Note_on_c, 0, 71, 0
2, 34531, Control_c, 0, 64, 127
2, 34560, Note_on_c, 0, 71, 68
2, 34562, Note_on_c, 0, 74, 70
2, 34608, Note_on_c, 0, 74, 0
2, 34615, Note_on_c, 0, 71, 0
2, 34694, Note_on_c, 0, 76, 81
2, 34696, Note_on_c, 0, 71, 74
2, 34723, Note_on_c, 0, 50, 65
2, 34730, Note_on_c, 0, 71, 0
2, 34742, Note_on_c, 0, 76, 0
2, 34771, Note_on_c, 0, 43, 0
2, 34778, Note_on_c, 0, 50, 0
2, 34836, Note_on_c, 0, 71, 46
2, 34838, Note_on_c, 0, 74, 83
2, 34843, Note_on_c, 0, 55, 74
2, 34891, Note_on_c, 0, 74, 0
2, 34891, Note_on_c, 0, 71, 0
2, 34946, Note_on_c, 0, 55, 0
2, 34958, Note_on_c, 0, 57, 92
2, 34962, Note_on_c, 0, 71, 47
2, 34963, Note_on_c, 0, 77, 84
2, 35006, Note_on_c, 0, 77, 0
2, 35007, Note_on_c, 0, 71, 0
2, 35095, Note_on_c, 0, 59, 90
2, 35095, Note_on_c, 0, 74, 72
2, 35100, Control_c, 0, 64, 0
2, 35104, Note_on_c, 0, 71, 50
2, 35119, Note_on_c, 0, 57, 0
2, 35148, Note_on_c, 0, 71, 0
2, 35155, Note_on_c, 0, 74, 0
2, 35217, Note_on_c, 0, 78, 79
2, 35220, Note_on_c, 0, 71, 70
2, 35263, Note_on_c, 0, 71, 0
2, 35268, Control_c, 0, 64, 127
2, 35284, Note_on_c, 0, 78, 0
2, 35354, Note_on_c, 0, 71, 62
2, 35357, Note_on_c, 0, 74, 64
2, 35376, Control_c, 0, 64, 0
2, 35402, Note_on_c, 0, 71, 0
2, 35417, Note_on_c, 0, 74, 0
2, 35448, Note_on_c, 0, 59, 0
2, 35472, Note_on_c, 0, 57, 73
2, 35486, Note_on_c, 0, 79, 72
2, 35491, Note_on_c, 0, 71, 44
2, 35522, Note_on_c, 0, 57, 0
2, 35534, Note_on_c, 0, 79, 0
2, 35534, Control_c, 0, 64, 127
2, 35539, Note_on_c, 0, 71, 0
2, 35613, Note_on_c, 0, 55, 70
2, 35637, Control_c, 0, 64, 0
2, 35652, Note_on_c, 0, 74, 53
2, 35659, Note_on_c, 0, 55, 0
2, 35659, Note_on_c, 0, 71, 7
2, 35700, Note_on_c, 0, 71, 0
2, 35704, Note_on_c, 0, 74, 0
2, 35736, Note_on_c, 0, 50, 55
2, 35745, Control_c, 0, 64, 127
2, 35748, Note_on_c, 0, 71, 74
2, 35748, Note_on_c, 0, 80, 74
2, 35786, Note_on_c, 0, 50, 0
2, 35810, Note_on_c, 0, 71, 0
2, 35822, Note_on_c, 0, 80, 0
2, 35899, Control_c, 0, 64, 0
2, 35966, Note_on_c, 0, 74, 61
2, 35973, Note_on_c, 0, 72, 75
2, 35978, Note_on_c, 0, 38, 42
2, 36009, Note_on_c, 0, 74, 0
2, 36014, Note_on_c, 0, 72, 0
2, 36062, Note_on_c, 0, 38, 0
2, 36081, Control_c, 0, 64, 127
2, 36086, Note_on_c, 0, 81, 24
2, 36102, Note_on_c, 0, 72, 67
2, 36144, Note_on_c, 0, 81, 0
2, 36164, Note_on_c, 0, 72, 0
2, 36235, Control_c, 0, 64, 0
2, 36240, Note_on_c, 0, 74, 80
2, 36244, Note_on_c, 0, 72, 46
2, 36247, Note_on_c, 0, 66, 85
2, 36280, Note_on_c, 0, 74, 0
2, 36299, Note_on_c, 0, 72, 0
2, 36302, Note_on_c, 0, 66, 0
2, 36328, Control_c, 0, 64, 127
2, 36362, Note_on_c, 0, 81, 83
2, 36364, Note_on_c, 0, 72, 73
2, 36384, Note_on_c, 0, 57, 77
2, 36398, Note_on_c, 0, 81, 0
2, 36408, Note_on_c, 0, 72, 0
2, 36436, Control_c, 0, 64, 0
2, 36460, Note_on_c, 0, 57, 0
2, 36482, Note_on_c, 0, 72, 80
2, 36484, Note_on_c, 0, 74, 87
2, 36494, Note_on_c, 0, 50, 85
2, 36525, Note_on_c, 0, 74, 0
2, 36528, Note_on_c, 0, 72, 0
2, 36573, Control_c, 0, 64, 127
2, 36602, Note_on_c, 0, 72, 88
2, 36619, Note_on_c, 0, 81, 88
2, 36626, Note_on_c, 0, 50, 0
2, 36648, Note_on_c, 0, 72, 0
2, 36652, Note_on_c, 0, 81, 0
2, 36698, Control_c, 0, 64, 0
2, 36751, Note_on_c, 0, 38, 98
2, 36756, Note_on_c, 0, 74, 86
2, 36758, Note_on_c, 0, 72, 73
2, 36777, Note_on_c, 0, 38, 0
2, 36799, Note_on_c, 0, 74, 0
2, 36801, Note_on_c, 0, 72, 0
2, 36852, Control_c, 0, 64, 127
2, 36864, Note_on_c, 0, 72, 89
2, 36871, Note_on_c, 0, 81, 94
2, 36904, Note_on_c, 0, 81, 0
2, 36907, Note_on_c, 0, 72, 0
2, 36974, Control_c, 0, 64, 0
2, 36993, Note_on_c, 0, 66, 77
2, 37003, Note_on_c, 0, 74, 89
2, 37008, Note_on_c, 0, 72, 69
2, 37039, Note_on_c, 0, 74, 0
2, 37041, Note_on_c, 0, 66, 0
2, 37051, Note_on_c, 0, 72, 0
2, 37065, Control_c, 0, 64, 127
2, 37111, Note_on_c, 0, 72, 99
2, 37123, Note_on_c, 0, 83, 88
2, 37142, Note_on_c, 0, 57, 65
2, 37152, Note_on_c, 0, 83, 0
2, 37168, Note_on_c, 0, 72, 0
2, 37173, Control_c, 0, 64, 0
2, 37185, Note_on_c, 0, 57, 0
2, 37238, Note_on_c, 0, 50, 83
2, 37250, Note_on_c, 0, 72, 92
2, 37264, Note_on_c, 0, 74, 78
2, 37276, Note_on_c, 0, 50, 0
2, 37288, Note_on_c, 0, 72, 0
2, 37300, Note_on_c, 0, 74, 0
2, 37303, Control_c, 0, 64, 127
2, 37360, Note_on_c, 0, 72, 88
2, 37363, Note_on_c, 0, 81, 100
2, 37394, Note_on_c, 0, 81, 0
2, 37408, Note_on_c, 0, 72, 0
2, 37435, Control_c, 0, 64, 0
2, 37478, Note_on_c, 0, 67, 98
2, 37483, Note_on_c, 0, 55, 84
2, 37495, Note_on_c, 0, 71, 75
2, 37500, Note_on_c, 0, 59, 77
2, 37502, Note_on_c, 0, 74, 81
2, 37528, Note_on_c, 0, 71, 0
2, 37555, Note_on_c, 0, 55, 0
2, 37557, Note_on_c, 0, 74, 0
2, 37557, Control_c, 0, 64, 127
2, 37569, Note_on_c, 0, 67, 0
2, 37576, Note_on_c, 0, 59, 0
2, 37600, Note_on_c, 0, 71, 79
2, 37603, Control_c, 0, 64, 0
2, 37603, Note_on_c, 0, 79, 97
2, 37651, Note_on_c, 0, 79, 0
2, 37651, Note_on_c, 0, 53, 99
2, 37653, Note_on_c, 0, 71, 0
2, 37694, Note_on_c, 0, 53, 0
2, 37749, Note_on_c, 0, 75, 81
2, 37754, Note_on_c, 0, 72, 87
2, 37788, Control_c, 0, 64, 127
2, 37802, Note_on_c, 0, 72, 0
2, 37821, Note_on_c, 0, 68, 100
2, 37838, Note_on_c, 0, 60, 75
2, 37855, Note_on_c, 0, 63, 64
2, 37869, Note_on_c, 0, 75, 0
2, 37869, Note_on_c, 0, 80, 95
2, 37872, Note_on_c, 0, 72, 98
2, 37920, Note_on_c, 0, 68, 0
2, 37920, Note_on_c, 0, 63, 0
2, 37932, Note_on_c, 0, 72, 0
2, 37944, Note_on_c, 0, 80, 0
2, 37963, Note_on_c, 0, 60, 0
2, 38049, Note_on_c, 0, 68, 86
2, 38071, Note_on_c, 0, 72, 65
2, 38088, Note_on_c, 0, 68, 0
2, 38116, Note_on_c, 0, 72, 0
2, 38150, Note_on_c, 0, 68, 89
2, 38174, Note_on_c, 0, 77, 85
2, 38210, Note_on_c, 0, 77, 0
2, 38220, Note_on_c, 0, 68, 0
2, 38323, Note_on_c, 0, 68, 78
2, 38330, Note_on_c, 0, 65, 78
2, 38371, Note_on_c, 0, 65, 0
2, 38400, Note_on_c, 0, 68, 0
2, 38433, Note_on_c, 0, 65, 90
2, 38445, Note_on_c, 0, 74, 99
2, 38464, Control_c, 0, 64, 0
2, 38476, Note_on_c, 0, 65, 0
2, 38479, Note_on_c, 0, 74, 0
2, 38584, Note_on_c, 0, 68, 83
2, 38587, Note_on_c, 0, 53, 95
2, 38589, Note_on_c, 0, 65, 51
2, 38592, Note_on_c, 0, 41, 96
2, 38644, Note_on_c, 0, 68, 0
2, 38647, Note_on_c, 0, 65, 0
2, 38664, Control_c, 0, 64, 127
2, 38690, Note_on_c, 0, 53, 0
2, 38704, Note_on_c, 0, 74, 75
2, 38709, Note_on_c, 0, 41, 0
2, 38724, Note_on_c, 0, 65, 60
2, 38764, Note_on_c, 0, 74, 0
2, 38786, Control_c, 0, 64, 0
2, 38791, Note_on_c, 0, 65, 0
2, 38805, Note_on_c, 0, 63, 87
2, 38817, Note_on_c, 0, 69, 71
2, 38817, Note_on_c, 0, 54, 101
2, 38822, Note_on_c, 0, 42, 88
2, 38875, Note_on_c, 0, 69, 0
2, 38875, Note_on_c, 0, 63, 0
2, 38880, Control_c, 0, 64, 127
2, 38920, Note_on_c, 0, 54, 0
2, 38923, Note_on_c, 0, 42, 0
2, 38945, Note_on_c, 0, 63, 87
2, 38950, Note_on_c, 0, 72, 71
2, 39002, Control_c, 0, 64, 0
2, 39008, Note_on_c, 0, 72, 0
2, 39015, Note_on_c, 0, 63, 0
2, 39040, Note_on_c, 0, 55, 103
2, 39040, Note_on_c, 0, 43, 97
2, 39096, Note_on_c, 0, 43, 0
2, 39101, Note_on_c, 0, 67, 56
2, 39103, Note_on_c, 0, 65, 44
2, 39103, Note_on_c, 0, 62, 20
2, 39110, Note_on_c, 0, 55, 0
2, 39141, Control_c, 0, 64, 127
2, 39165, Note_on_c, 0, 65, 0
2, 39180, Note_on_c, 0, 67, 0
2, 39182, Note_on_c, 0, 71, 50
2, 39187, Control_c, 0, 64, 0
2, 39194, Note_on_c, 0, 41, 98
2, 39223, Note_on_c, 0, 41, 0
2, 39223, Note_on_c, 0, 71, 0
2, 39242, Note_on_c, 0, 62, 0
2, 39306, Note_on_c, 0, 63, 88
2, 39315, Note_on_c, 0, 60, 80
2, 39316, Note_on_c, 0, 56, 101
2, 39318, Note_on_c, 0, 51, 81
2, 39319, Note_on_c, 0, 48, 79
2, 39356, Note_on_c, 0, 60, 0
2, 39372, Control_c, 0, 64, 127
2, 39415, Note_on_c, 0, 68, 90
2, 39415, Note_on_c, 0, 60, 84
2, 39424, Note_on_c, 0, 63, 0
2, 39432, Note_on_c, 0, 56, 0
2, 39453, Note_on_c, 0, 68, 0
2, 39462, Note_on_c, 0, 51, 0
2, 39487, Note_on_c, 0, 48, 0
2, 39501, Note_on_c, 0, 60, 0
2, 39566, Note_on_c, 0, 56, 82
2, 39580, Note_on_c, 0, 60, 60
2, 39614, Note_on_c, 0, 56, 0
2, 39648, Note_on_c, 0, 60, 0
2, 39674, Note_on_c, 0, 56, 79
2, 39686, Note_on_c, 0, 65, 80
2, 39712, Note_on_c, 0, 56, 0
2, 39724, Note_on_c, 0, 65, 0
2, 39835, Note_on_c, 0, 53, 78
2, 39837, Note_on_c, 0, 56, 53
2, 39878, Note_on_c, 0, 53, 0
2, 39912, Note_on_c, 0, 56, 0
2, 39943, Note_on_c, 0, 53, 74
2, 39943, Note_on_c, 0, 62, 90
2, 39981, Note_on_c, 0, 53, 0
2, 40046, Note_on_c, 0, 62, 0
2, 40087, Note_on_c, 0, 41, 94
2, 40087, Note_on_c, 0, 29, 92
2, 40092, Note_on_c, 0, 53, 42
2, 40096, Note_on_c, 0, 56, 80
2, 40108, Control_c, 0, 64, 0
2, 40144, Note_on_c, 0, 53, 0
2, 40178, Note_on_c, 0, 56, 0
2, 40212, Note_on_c, 0, 53, 85
2, 40262, Control_c, 0, 64, 127
2, 40274, Note_on_c, 0, 41, 0
2, 40291, Note_on_c, 0, 53, 0
2, 40298, Note_on_c, 0, 29, 0
2, 40370, Note_on_c, 0, 51, 89
2, 40374, Note_on_c, 0, 57, 72
2, 40387, Note_on_c, 0, 42, 97
2, 40399, Note_on_c, 0, 30, 92
2, 40425, Note_on_c, 0, 57, 0
2, 40432, Control_c, 0, 64, 0
2, 40440, Note_on_c, 0, 51, 0
2, 40519, Note_on_c, 0, 51, 87
2, 40524, Note_on_c, 0, 60, 90
2, 40567, Note_on_c, 0, 60, 0
2, 40586, Control_c, 0, 64, 127
2, 40593, Note_on_c, 0, 51, 0
2, 40668, Note_on_c, 0, 30, 0
2, 40677, Note_on_c, 0, 42, 0
2, 40718, Note_on_c, 0, 50, 88
2, 40720, Note_on_c, 0, 55, 59
2, 40764, Note_on_c, 0, 50, 0
2, 40766, Note_on_c, 0, 43, 100
2, 40766, Note_on_c, 0, 31, 101
2, 40783, Note_on_c, 0, 55, 0
2, 40900, Note_on_c, 0, 50, 73
2, 40905, Note_on_c, 0, 59, 51
2, 40939, Note_on_c, 0, 50, 0
2, 40946, Note_on_c, 0, 59, 0
2, 40953, Control_c, 0, 64, 0
2, 41044, Note_on_c, 0, 53, 86
2, 41049, Note_on_c, 0, 57, 81
2, 41083, Note_on_c, 0, 53, 0
2, 41104, Note_on_c, 0, 57, 0
2, 41167, Note_on_c, 0, 53, 69
2, 41174, Note_on_c, 0, 62, 84
2, 41210, Note_on_c, 0, 62, 0
2, 41236, Note_on_c, 0, 53, 0
2, 41320, Note_on_c, 0, 55, 73
2, 41323, Note_on_c, 0, 52, 66
2, 41354, Control_c, 0, 64, 127
2, 41366, Note_on_c, 0, 52, 0
2, 41380, Note_on_c, 0, 55, 0
2, 41428, Note_on_c, 0, 52, 89
2, 41450, Note_on_c, 0, 60, 59
2, 41462, Control_c, 0, 64, 0
2, 41467, Note_on_c, 0, 52, 0
2, 41500, Note_on_c, 0, 60, 0
2, 41568, Control_c, 0, 64, 127
2, 41575, Note_on_c, 0, 59, 73
2, 41580, Note_on_c, 0, 55, 73
2, 41630, Control_c, 0, 64, 0
2, 41635, Note_on_c, 0, 59, 0
2, 41640, Note_on_c, 0, 55, 0
2, 41685, Note_on_c, 0, 55, 42
2, 41690, Note_on_c, 0, 64, 93
2, 41726, Note_on_c, 0, 64, 0
2, 41728, Note_on_c, 0, 55, 0
2, 41769, Control_c, 0, 64, 127
2, 41824, Note_on_c, 0, 57, 71
2, 41832, Note_on_c, 0, 53, 72
2, 41846, Control_c, 0, 64, 0
2, 41877, Note_on_c, 0, 53, 0
2, 41887, Note_on_c, 0, 57, 0
2, 41935, Note_on_c, 0, 53, 85
2, 41942, Note_on_c, 0, 62, 73
2, 41968, Control_c, 0, 64, 127
2, 41976, Note_on_c, 0, 53, 0
2, 41990, Note_on_c, 0, 62, 0
2, 42031, Control_c, 0, 64, 0
2, 42060, Note_on_c, 0, 57, 72
2, 42064, Note_on_c, 0, 60, 45
2, 42103, Note_on_c, 0, 57, 0
2, 42128, Note_on_c, 0, 60, 0
2, 42168, Note_on_c, 0, 57, 89
2, 42182, Note_on_c, 0, 65, 89
2, 42184, Control_c, 0, 64, 127
2, 42220, Note_on_c, 0, 57, 0
2, 42223, Note_on_c, 0, 65, 0
2, 42230, Control_c, 0, 64, 0
2, 42312, Note_on_c, 0, 59, 72
2, 42324, Note_on_c, 0, 55, 69
2, 42367, Note_on_c, 0, 55, 0
2, 42369, Control_c, 0, 64, 127
2, 42403, Note_on_c, 0, 59, 0
2, 42424, Note_on_c, 0, 55, 96
2, 42444, Note_on_c, 0, 64, 77
2, 42446, Control_c, 0, 64, 0
2, 42472, Note_on_c, 0, 55, 0
2, 42482, Note_on_c, 0, 64, 0
2, 42554, Note_on_c, 0, 62, 89
2, 42555, Note_on_c, 0, 59, 43
2, 42568, Control_c, 0, 64, 127
2, 42603, Note_on_c, 0, 59, 0
2, 42628, Control_c, 0, 64, 0
2, 42643, Note_on_c, 0, 62, 0
2, 42664, Note_on_c, 0, 67, 105
2, 42671, Note_on_c, 0, 59, 46
2, 42700, Note_on_c, 0, 67, 0
2, 42717, Note_on_c, 0, 59, 0
2, 42768, Control_c, 0, 64, 127
2, 42801, Note_on_c, 0, 60, 88
2, 42807, Note_on_c, 0, 57, 81
2, 42830, Control_c, 0, 64, 0
2, 42848, Note_on_c, 0, 57, 0
2, 42897, Note_on_c, 0, 60, 0
2, 42919, Note_on_c, 0, 65, 87
2, 42919, Note_on_c, 0, 57, 76
2, 42962, Note_on_c, 0, 57, 0
2, 42964, Note_on_c, 0, 65, 0
2, 42967, Control_c, 0, 64, 127
2, 43044, Control_c, 0, 64, 0
2, 43056, Note_on_c, 0, 60, 67
2, 43065, Note_on_c, 0, 64, 38
2, 43101, Note_on_c, 0, 60, 0
2, 43118, Note_on_c, 0, 64, 0
2, 43144, Note_on_c, 0, 69, 105
2, 43152, Note_on_c, 0, 60, 98
2, 43183, Note_on_c, 0, 69, 0
2, 43183, Control_c, 0, 64, 127
2, 43192, Note_on_c, 0, 60, 0
2, 43243, Control_c, 0, 64, 0
2, 43284, Note_on_c, 0, 62, 83
2, 43286, Note_on_c, 0, 59, 78
2, 43322, Note_on_c, 0, 59, 0
2, 43377, Note_on_c, 0, 62, 0
2, 43382, Control_c, 0, 64, 127
2, 43401, Note_on_c, 0, 59, 68
2, 43408, Note_on_c, 0, 67, 92
2, 43440, Note_on_c, 0, 59, 0
2, 43452, Note_on_c, 0, 67, 0
2, 43459, Control_c, 0, 64, 0
2, 43531, Note_on_c, 0, 62, 82
2, 43536, Note_on_c, 0, 65, 75
2, 43572, Note_on_c, 0, 62, 0
2, 43598, Note_on_c, 0, 65, 0
2, 43598, Control_c, 0, 64, 127
2, 43641, Note_on_c, 0, 71, 87
2, 43646, Note_on_c, 0, 62, 56
2, 43658, Control_c, 0, 64, 0
2, 43672, Note_on_c, 0, 71, 0
2, 43699, Note_on_c, 0, 62, 0
2, 43778, Note_on_c, 0, 60, 88
2, 43783, Control_c, 0, 64, 127
2, 43783, Note_on_c, 0, 64, 94
2, 43819, Note_on_c, 0, 60, 0
2, 43828, Control_c, 0, 64, 0
2, 43836, Note_on_c, 0, 64, 0
2, 43900, Note_on_c, 0, 69, 91
2, 43905, Note_on_c, 0, 60, 23
2, 43936, Note_on_c, 0, 69, 0
2, 43960, Note_on_c, 0, 60, 0
2, 43965, Control_c, 0, 64, 127
2, 44028, Control_c, 0, 64, 0
2, 44028, Note_on_c, 0, 65, 75
2, 44030, Note_on_c, 0, 62, 71
2, 44073, Note_on_c, 0, 62, 0
2, 44085, Note_on_c, 0, 65, 0
2, 44134, Note_on_c, 0, 62, 94
2, 44136, Note_on_c, 0, 71, 76
2, 44167, Control_c, 0, 64, 127
2, 44180, Note_on_c, 0, 62, 0
2, 44188, Note_on_c, 0, 71, 0
2, 44244, Control_c, 0, 64, 0
2, 44270, Note_on_c, 0, 64, 78
2, 44272, Note_on_c, 0, 67, 78
2, 44308, Note_on_c, 0, 64, 0
2, 44335, Control_c, 0, 64, 127
2, 44340, Note_on_c, 0, 67, 0
2, 44378, Note_on_c, 0, 64, 88
2, 44380, Note_on_c, 0, 72, 100
2, 44424, Note_on_c, 0, 64, 0
2, 44428, Control_c, 0, 64, 0
2, 44445, Note_on_c, 0, 72, 0
2, 44511, Note_on_c, 0, 65, 97
2, 44515, Note_on_c, 0, 69, 82
2, 44554, Note_on_c, 0, 65, 0
2, 44565, Control_c, 0, 64, 127
2, 44572, Note_on_c, 0, 69, 0
2, 44623, Note_on_c, 0, 65, 84
2, 44623, Note_on_c, 0, 74, 98
2, 44628, Control_c, 0, 64, 0
2, 44664, Note_on_c, 0, 74, 0
2, 44664, Note_on_c, 0, 65, 0
2, 44750, Control_c, 0, 64, 127
2, 44750, Note_on_c, 0, 71, 73
2, 44752, Note_on_c, 0, 67, 82
2, 44793, Note_on_c, 0, 67, 0
2, 44834, Note_on_c, 0, 71, 0
2, 44841, Control_c, 0, 64, 0
2, 44858, Note_on_c, 0, 67, 103
2, 44868, Note_on_c, 0, 76, 91
2, 44902, Note_on_c, 0, 67, 0
2, 44908, Note_on_c, 0, 76, 0
2, 44966, Control_c, 0, 64, 127
2, 44988, Note_on_c, 0, 69, 90
2, 44990, Note_on_c, 0, 72, 89
2, 45031, Note_on_c, 0, 69, 0
2, 45043, Control_c, 0, 64, 0
2, 45055, Note_on_c, 0, 72, 0
2, 45110, Note_on_c, 0, 77, 94
2, 45117, Note_on_c, 0, 69, 57
2, 45151, Note_on_c, 0, 77, 0
2, 45160, Note_on_c, 0, 69, 0
2, 45165, Control_c, 0, 64, 127
2, 45228, Control_c, 0, 64, 0
2, 45242, Note_on_c, 0, 31, 0
2, 45244, Note_on_c, 0, 74, 84
2, 45250, Note_on_c, 0, 72, 20
2, 45292, Note_on_c, 0, 43, 0
2, 45295, Note_on_c, 0, 72, 0
2, 45302, Note_on_c, 0, 74, 0
2, 45333, Control_c, 0, 64, 127
2, 45367, Note_on_c, 0, 79, 90
2, 45372, Note_on_c, 0, 71, 48
2, 45405, Note_on_c, 0, 79, 0
2, 45412, Note_on_c, 0, 71, 0
2, 45508, Note_on_c, 0, 74, 81
2, 45516, Note_on_c, 0, 72, 69
2, 45523, Note_on_c, 0, 66, 92
2, 45561, Note_on_c, 0, 72, 0
2, 45561, Note_on_c, 0, 74, 0
2, 45628, Note_on_c, 0, 72, 84
2, 45632, Note_on_c, 0, 81, 77
2, 45672, Note_on_c, 0, 81, 0
2, 45679, Note_on_c, 0, 72, 0
2, 45688, Control_c, 0, 64, 0
2, 45801, Note_on_c, 0, 74, 76
2, 45813, Note_on_c, 0, 72, 41
2, 45871, Note_on_c, 0, 72, 0
2, 45885, Note_on_c, 0, 74, 0
2, 45888, Control_c, 0, 64, 127
2, 45946, Note_on_c, 0, 81, 88
2, 45948, Note_on_c, 0, 72, 80
2, 45990, Note_on_c, 0, 81, 0
2, 45998, Note_on_c, 0, 72, 0
2, 46108, Note_on_c, 0, 74, 72
2, 46113, Note_on_c, 0, 72, 47
2, 46161, Note_on_c, 0, 74, 0
2, 46168, Note_on_c, 0, 72, 0
2, 46238, Note_on_c, 0, 72, 85
2, 46250, Note_on_c, 0, 81, 80
2, 46291, Note_on_c, 0, 81, 0
2, 46293, Note_on_c, 0, 72, 0
2, 46396, Note_on_c, 0, 72, 72
2, 46401, Note_on_c, 0, 74, 78
2, 46408, Note_on_c, 0, 64, 103
2, 46440, Note_on_c, 0, 66, 0
2, 46444, Note_on_c, 0, 72, 0
2, 46447, Note_on_c, 0, 74, 0
2, 46513, Note_on_c, 0, 81, 74
2, 46519, Note_on_c, 0, 72, 84
2, 46549, Note_on_c, 0, 81, 0
2, 46572, Note_on_c, 0, 72, 0
2, 46624, Control_c, 0, 64, 0
2, 46660, Note_on_c, 0, 72, 85
2, 46665, Note_on_c, 0, 74, 76
2, 46668, Note_on_c, 0, 66, 103
2, 46706, Note_on_c, 0, 74, 0
2, 46706, Note_on_c, 0, 72, 0
2, 46723, Note_on_c, 0, 64, 0
2, 46732, Control_c, 0, 64, 127
2, 46790, Note_on_c, 0, 72, 75
2, 46797, Note_on_c, 0, 81, 84
2, 46809, Control_c, 0, 64, 0
2, 46833, Note_on_c, 0, 81, 0
2, 46848, Note_on_c, 0, 72, 0
2, 46929, Note_on_c, 0, 67, 104
2, 46939, Note_on_c, 0, 74, 71
2, 46941, Note_on_c, 0, 71, 62
2, 46984, Note_on_c, 0, 71, 0
2, 46996, Note_on_c, 0, 66, 0
2, 47032, Note_on_c, 0, 74, 0
2, 47049, Note_on_c, 0, 71, 79
2, 47061, Note_on_c, 0, 79, 87
2, 47100, Note_on_c, 0, 71, 0
2, 47102, Note_on_c, 0, 79, 0
2, 47133, Control_c, 0, 64, 127
2, 47193, Control_c, 0, 64, 0
2, 47196, Note_on_c, 0, 74, 80
2, 47200, Note_on_c, 0, 71, 57
2, 47248, Note_on_c, 0, 71, 0
2, 47272, Note_on_c, 0, 74, 0
2, 47316, Note_on_c, 0, 71, 79
2, 47330, Note_on_c, 0, 79, 75
2, 47347, Control_c, 0, 64, 127
2, 47364, Note_on_c, 0, 71, 0
2, 47371, Note_on_c, 0, 79, 0
2, 47424, Control_c, 0, 64, 0
2, 47469, Note_on_c, 0, 71, 45
2, 47471, Note_on_c, 0, 74, 52
2, 47522, Note_on_c, 0, 71, 0
2, 47536, Note_on_c, 0, 74, 0
2, 47563, Control_c, 0, 64, 127
2, 47608, Note_on_c, 0, 79, 73
2, 47608, Note_on_c, 0, 71, 52
2, 47652, Note_on_c, 0, 71, 0
2, 47654, Control_c, 0, 64, 0
2, 47665, Note_on_c, 0, 79, 0
2, 47731, Note_on_c, 0, 70, 64
2, 47737, Note_on_c, 0, 74, 70
2, 47762, Control_c, 0, 64, 127
2, 47788, Note_on_c, 0, 70, 0
2, 47795, Note_on_c, 0, 74, 0
2, 47853, Control_c, 0, 64, 0
2, 47863, Note_on_c, 0, 70, 73
2, 47865, Note_on_c, 0, 79, 67
2, 47915, Note_on_c, 0, 79, 0
2, 47920, Note_on_c, 0, 70, 0
2, 47961, Control_c, 0, 64, 127
2, 48026, Note_on_c, 0, 70, 57
2, 48028, Note_on_c, 0, 74, 67
2, 48050, Note_on_c, 0, 62, 81
2, 48069, Control_c, 0, 64, 0
2, 48088, Note_on_c, 0, 70, 0
2, 48102, Note_on_c, 0, 74, 0
2, 48148, Note_on_c, 0, 67, 0
2, 48164, Note_on_c, 0, 70, 69
2, 48170, Note_on_c, 0, 79, 87
2, 48192, Control_c, 0, 64, 127
2, 48208, Note_on_c, 0, 79, 0
2, 48257, Note_on_c, 0, 70, 0
2, 48323, Note_on_c, 0, 72, 84
2, 48324, Note_on_c, 0, 70, 76
2, 48348, Note_on_c, 0, 64, 95
2, 48359, Note_on_c, 0, 72, 0
2, 48372, Note_on_c, 0, 70, 0
2, 48384, Note_on_c, 0, 62, 0
2, 48472, Note_on_c, 0, 70, 37
2, 48472, Note_on_c, 0, 79, 88
2, 48532, Note_on_c, 0, 70, 0
2, 48542, Note_on_c, 0, 79, 0
2, 48674, Note_on_c, 0, 65, 95
2, 48700, Control_c, 0, 64, 0
2, 48727, Note_on_c, 0, 64, 0
2, 48796, Note_on_c, 0, 77, 81
2, 48799, Note_on_c, 0, 69, 49
2, 48839, Note_on_c, 0, 77, 0
2, 48852, Note_on_c, 0, 69, 0
2, 48926, Note_on_c, 0, 69, 76
2, 48931, Note_on_c, 0, 72, 91
2, 48974, Note_on_c, 0, 69, 0
2, 48981, Note_on_c, 0, 72, 0
2, 49050, Note_on_c, 0, 77, 60
2, 49053, Control_c, 0, 64, 127
2, 49053, Note_on_c, 0, 69, 77
2, 49084, Control_c, 0, 64, 0
2, 49096, Note_on_c, 0, 69, 0
2, 49101, Note_on_c, 0, 77, 0
2, 49190, Note_on_c, 0, 69, 55
2, 49197, Note_on_c, 0, 72, 64
2, 49221, Control_c, 0, 64, 127
2, 49243, Note_on_c, 0, 69, 0
2, 49255, Note_on_c, 0, 72, 0
2, 49298, Control_c, 0, 64, 0
2, 49312, Note_on_c, 0, 69, 86
2, 49327, Note_on_c, 0, 77, 69
2, 49353, Note_on_c, 0, 69, 0
2, 49370, Note_on_c, 0, 77, 0
2, 49437, Control_c, 0, 64, 127
2, 49454, Note_on_c, 0, 69, 53
2, 49461, Note_on_c, 0, 72, 79
2, 49504, Note_on_c, 0, 69, 0
2, 49512, Note_on_c, 0, 72, 0
2, 49514, Control_c, 0, 64, 0
2, 49574, Note_on_c, 0, 69, 89
2, 49586, Note_on_c, 0, 77, 80
2, 49615, Note_on_c, 0, 69, 0
2, 49627, Note_on_c, 0, 77, 0
2, 49636, Control_c, 0, 64, 127
2, 49706, Note_on_c, 0, 69, 63
2, 49714, Note_on_c, 0, 72, 77
2, 49744, Control_c, 0, 64, 0
2, 49756, Note_on_c, 0, 69, 0
2, 49759, Note_on_c, 0, 60, 88
2, 49762, Note_on_c, 0, 72, 0
2, 49831, Note_on_c, 0, 69, 86
2, 49836, Note_on_c, 0, 77, 87
2, 49867, Control_c, 0, 64, 127
2, 49874, Note_on_c, 0, 77, 0
2, 49874, Note_on_c, 0, 69, 0
2, 49891, Note_on_c, 0, 65, 0
2, 49987, Note_on_c, 0, 69, 29
2, 49987, Note_on_c, 0, 71, 65
2, 49989, Note_on_c, 0, 62, 87
2, 49992, Control_c, 0, 64, 0
2, 50025, Note_on_c, 0, 71, 0
2, 50028, Note_on_c, 0, 60, 0
2, 50047, Note_on_c, 0, 69, 0
2, 50102, Note_on_c, 0, 77, 88
2, 50104, Note_on_c, 0, 69, 52
2, 50114, Control_c, 0, 64, 127
2, 50138, Note_on_c, 0, 77, 0
2, 50157, Note_on_c, 0, 69, 0
2, 50222, Control_c, 0, 64, 0
2, 50236, Note_on_c, 0, 62, 0
2, 50241, Note_on_c, 0, 68, 75
2, 50242, Note_on_c, 0, 71, 37
2, 50246, Note_on_c, 0, 64, 92
2, 50291, Note_on_c, 0, 68, 0
2, 50294, Note_on_c, 0, 71, 0
2, 50337, Note_on_c, 0, 68, 80
2, 50344, Control_c, 0, 64, 127
2, 50349, Note_on_c, 0, 76, 75
2, 50380, Note_on_c, 0, 68, 0
2, 50390, Note_on_c, 0, 76, 0
2, 50452, Control_c, 0, 64, 0
2, 50491, Note_on_c, 0, 67, 75
2, 50493, Note_on_c, 0, 71, 52
2, 50496, Note_on_c, 0, 59, 80
2, 50503, Note_on_c, 0, 64, 0
2, 50532, Note_on_c, 0, 67, 0
2, 50556, Note_on_c, 0, 71, 0
2, 50606, Control_c, 0, 64, 127
2, 50610, Note_on_c, 0, 76, 91
2, 50611, Note_on_c, 0, 67, 76
2, 50646, Note_on_c, 0, 76, 0
2, 50656, Note_on_c, 0, 67, 0
2, 50728, Control_c, 0, 64, 0
2, 50750, Note_on_c, 0, 61, 82
2, 50755, Note_on_c, 0, 67, 57
2, 50760, Note_on_c, 0, 69, 78
2, 50798, Note_on_c, 0, 59, 0
2, 50803, Note_on_c, 0, 69, 0
2, 50803, Note_on_c, 0, 67, 0
2, 50851, Control_c, 0, 64, 127
2, 50872, Note_on_c, 0, 67, 86
2, 50877, Note_on_c, 0, 76, 97
2, 50911, Note_on_c, 0, 76, 0
2, 50920, Note_on_c, 0, 67, 0
2, 50959, Control_c, 0, 64, 0
2, 51009, Note_on_c, 0, 66, 83
2, 51012, Note_on_c, 0, 69, 80
2, 51016, Note_on_c, 0, 61, 0
2, 51019, Note_on_c, 0, 62, 87
2, 51021, Control_c, 0, 64, 127
2, 51050, Note_on_c, 0, 66, 0
2, 51062, Note_on_c, 0, 69, 0
2, 51112, Note_on_c, 0, 66, 75
2, 51118, Note_on_c, 0, 74, 86
2, 51127, Control_c, 0, 64, 0
2, 51149, Note_on_c, 0, 74, 0
2, 51168, Note_on_c, 0, 66, 0
2, 51237, Control_c, 0, 64, 127
2, 51271, Note_on_c, 0, 62, 0
2, 51273, Note_on_c, 0, 69, 68
2, 51276, Note_on_c, 0, 57, 81
2, 51278, Note_on_c, 0, 65, 69
2, 51324, Note_on_c, 0, 65, 0
2, 51328, Control_c, 0, 64, 0
2, 51345, Note_on_c, 0, 69, 0
2, 51369, Note_on_c, 0, 74, 92
2, 51381, Note_on_c, 0, 65, 90
2, 51422, Note_on_c, 0, 74, 0
2, 51427, Note_on_c, 0, 65, 0
2, 51434, Control_c, 0, 64, 127
2, 51516, Note_on_c, 0, 65, 70
2, 51525, Note_on_c, 0, 67, 86
2, 51532, Note_on_c, 0, 59, 78
2, 51542, Control_c, 0, 64, 0
2, 51552, Note_on_c, 0, 57, 0
2, 51564, Note_on_c, 0, 65, 0
2, 51571, Note_on_c, 0, 67, 0
2, 51626, Note_on_c, 0, 65, 89
2, 51631, Note_on_c, 0, 74, 96
2, 51662, Note_on_c, 0, 74, 0
2, 51672, Control_c, 0, 64, 127
2, 51681, Note_on_c, 0, 65, 0
2, 51758, Control_c, 0, 64, 0
2, 51763, Note_on_c, 0, 59, 0
2, 51768, Note_on_c, 0, 60, 94
2, 51782, Note_on_c, 0, 64, 67
2, 51787, Note_on_c, 0, 67, 59
2, 51823, Note_on_c, 0, 64, 0
2, 51835, Note_on_c, 0, 67, 0
2, 51885, Note_on_c, 0, 72, 92
2, 51885, Note_on_c, 0, 64, 90
2, 51926, Control_c, 0, 64, 127
2, 51933, Note_on_c, 0, 72, 0
2, 51955, Note_on_c, 0, 64, 0
2, 51974, Control_c, 0, 64, 0
2, 52000, Note_on_c, 0, 56, 81
2, 52003, Note_on_c, 0, 63, 78
2, 52017, Note_on_c, 0, 68, 60
2, 52065, Note_on_c, 0, 63, 0
2, 52065, Note_on_c, 0, 60, 0
2, 52068, Note_on_c, 0, 68, 0
2, 52132, Note_on_c, 0, 63, 82
2, 52137, Note_on_c, 0, 72, 82
2, 52156, Control_c, 0, 64, 127
2, 52176, Note_on_c, 0, 63, 0
2, 52181, Note_on_c, 0, 72, 0
2, 52188, Control_c, 0, 64, 0
2, 52245, Note_on_c, 0, 69, 67
2, 52248, Note_on_c, 0, 63, 67
2, 52257, Note_on_c, 0, 54, 81
2, 52293, Note_on_c, 0, 69, 0
2, 52296, Note_on_c, 0, 56, 0
2, 52356, Note_on_c, 0, 63, 0
2, 52380, Note_on_c, 0, 72, 84
2, 52381, Note_on_c, 0, 63, 23
2, 52389, Control_c, 0, 64, 127
2, 52418, Control_c, 0, 64, 0
2, 52430, Note_on_c, 0, 72, 0
2, 52438, Note_on_c, 0, 63, 0
2, 52526, Note_on_c, 0, 54, 0
2, 52533, Note_on_c, 0, 55, 80
2, 52538, Note_on_c, 0, 64, 62
2, 52545, Note_on_c, 0, 67, 56
2, 52584, Note_on_c, 0, 64, 0
2, 52622, Note_on_c, 0, 67, 0
2, 52648, Note_on_c, 0, 72, 77
2, 52658, Note_on_c, 0, 64, 31
2, 52704, Note_on_c, 0, 72, 0
2, 52716, Note_on_c, 0, 64, 0
2, 52790, Note_on_c, 0, 55, 0
2, 52795, Note_on_c, 0, 43, 74
2, 52812, Note_on_c, 0, 66, 49
2, 52827, Note_on_c, 0, 63, 38
2, 52884, Note_on_c, 0, 63, 0
2, 52939, Note_on_c, 0, 66, 0
2, 52941, Control_c, 0, 64, 127
2, 52962, Note_on_c, 0, 63, 38
2, 52972, Note_on_c, 0, 72, 38
2, 52987, Control_c, 0, 64, 0
2, 53019, Note_on_c, 0, 63, 0
2, 53029, Note_on_c, 0, 72, 0
2, 53078, Note_on_c, 0, 55, 70
2, 53083, Note_on_c, 0, 65, 65
2, 53083, Note_on_c, 0, 62, 58
2, 53119, Note_on_c, 0, 55, 0
2, 53126, Control_c, 0, 64, 127
2, 53131, Note_on_c, 0, 62, 0
2, 53138, Note_on_c, 0, 65, 0
2, 53174, Note_on_c, 0, 43, 0
2, 53197, Note_on_c, 0, 71, 51
2, 53200, Note_on_c, 0, 62, 70
2, 53250, Note_on_c, 0, 71, 0
2, 53258, Note_on_c, 0, 62, 0
2, 53270, Note_on_c, 0, 36, 78
2, 53325, Control_c, 0, 64, 0
2, 53370, Note_on_c, 0, 67, 75
2, 53380, Note_on_c, 0, 36, 0
2, 53382, Note_on_c, 0, 64, 32
2, 53395, Note_on_c, 0, 48, 88
2, 53430, Note_on_c, 0, 67, 0
2, 53445, Note_on_c, 0, 64, 0
2, 53496, Control_c, 0, 64, 127
2, 53515, Note_on_c, 0, 72, 69
2, 53515, Note_on_c, 0, 64, 49
2, 53572, Note_on_c, 0, 64, 0
2, 53584, Note_on_c, 0, 72, 0
2, 53676, Note_on_c, 0, 65, 59
2, 53676, Note_on_c, 0, 68, 63
2, 53726, Note_on_c, 0, 65, 0
2, 53731, Note_on_c, 0, 56, 95
2, 53733, Note_on_c, 0, 68, 0
2, 53800, Note_on_c, 0, 65, 70
2, 53817, Note_on_c, 0, 74, 69
2, 53856, Note_on_c, 0, 74, 0
2, 53870, Note_on_c, 0, 65, 0
2, 53940, Control_c, 0, 64, 0
2, 53956, Note_on_c, 0, 65, 67
2, 53964, Note_on_c, 0, 62, 75
2, 54012, Note_on_c, 0, 62, 0
2, 54033, Note_on_c, 0, 65, 0
2, 54062, Control_c, 0, 64, 127
2, 54076, Note_on_c, 0, 62, 88
2, 54086, Note_on_c, 0, 71, 67
2, 54120, Note_on_c, 0, 71, 0
2, 54122, Note_on_c, 0, 62, 0
2, 54156, Control_c, 0, 64, 0
2, 54213, Note_on_c, 0, 62, 66
2, 54213, Note_on_c, 0, 55, 88
2, 54230, Note_on_c, 0, 59, 54
2, 54261, Note_on_c, 0, 56, 0
2, 54264, Note_on_c, 0, 62, 0
2, 54271, Note_on_c, 0, 59, 0
2, 54324, Control_c, 0, 64, 127
2, 54340, Note_on_c, 0, 59, 68
2, 54343, Note_on_c, 0, 67, 75
2, 54372, Control_c, 0, 64, 0
2, 54381, Note_on_c, 0, 59, 0
2, 54391, Note_on_c, 0, 67, 0
2, 54448, Note_on_c, 0, 48, 0
2, 54480, Note_on_c, 0, 63, 72
2, 54489, Note_on_c, 0, 54, 69
2, 54499, Note_on_c, 0, 60, 57
2, 54501, Note_on_c, 0, 55, 0
2, 54528, Note_on_c, 0, 63, 0
2, 54549, Note_on_c, 0, 60, 0
2, 54614, Note_on_c, 0, 60, 66
2, 54619, Note_on_c, 0, 69, 68
2, 54657, Note_on_c, 0, 60, 0
2, 54669, Note_on_c, 0, 69, 0
2, 54679, Control_c, 0, 64, 127
2, 54705, Note_on_c, 0, 54, 0
2, 54744, Note_on_c, 0, 53, 83
2, 54744, Note_on_c, 0, 68, 70
2, 54746, Note_on_c, 0, 62, 63
2, 54784, Note_on_c, 0, 53, 0
2, 54792, Note_on_c, 0, 62, 0
2, 54816, Note_on_c, 0, 68, 0
2, 54856, Note_on_c, 0, 62, 79
2, 54866, Note_on_c, 0, 71, 65
2, 54909, Note_on_c, 0, 62, 0
2, 54914, Note_on_c, 0, 71, 0
2, 54955, Control_c, 0, 64, 0
2, 54988, Note_on_c, 0, 36, 84
2, 55000, Note_on_c, 0, 67, 77
2, 55005, Note_on_c, 0, 64, 64
2, 55046, Note_on_c, 0, 64, 0
2, 55051, Note_on_c, 0, 67, 0
2, 55077, Note_on_c, 0, 36, 0
2, 55094, Control_c, 0, 64, 127
2, 55106, Note_on_c, 0, 64, 94
2, 55111, Note_on_c, 0, 72, 89
2, 55159, Note_on_c, 0, 64, 0
2, 55161, Note_on_c, 0, 72, 0
2, 55231, Control_c, 0, 64, 0
2, 55236, Note_on_c, 0, 48, 92
2, 55238, Note_on_c, 0, 68, 73
2, 55248, Note_on_c, 0, 65, 64
2, 55291, Note_on_c, 0, 68, 0
2, 55296, Note_on_c, 0, 65, 0
2, 55353, Control_c, 0, 64, 127
2, 55356, Note_on_c, 0, 65, 87
2, 55356, Note_on_c, 0, 74, 89
2, 55389, Note_on_c, 0, 74, 0
2, 55411, Note_on_c, 0, 65, 0
2, 55430, Control_c, 0, 64, 0
2, 55488, Note_on_c, 0, 65, 79
2, 55492, Note_on_c, 0, 56, 92
2, 55492, Note_on_c, 0, 62, 80
2, 55536, Note_on_c, 0, 62, 0
2, 55572, Note_on_c, 0, 65, 0
2, 55617, Note_on_c, 0, 62, 66
2, 55620, Note_on_c, 0, 71, 76
2, 55651, Note_on_c, 0, 71, 0
2, 55668, Note_on_c, 0, 62, 0
2, 55737, Control_c, 0, 64, 127
2, 55761, Note_on_c, 0, 62, 57
2, 55761, Note_on_c, 0, 55, 86
2, 55771, Note_on_c, 0, 59, 44
2, 55776, Note_on_c, 0, 56, 0
2, 55785, Control_c, 0, 64, 0
2, 55817, Note_on_c, 0, 59, 0
2, 55836, Note_on_c, 0, 62, 0
2, 55898, Note_on_c, 0, 59, 69
2, 55917, Note_on_c, 0, 67, 64
2, 55936, Note_on_c, 0, 59, 0
2, 55939, Control_c, 0, 64, 127
2, 55975, Note_on_c, 0, 67, 0
2, 55999, Control_c, 0, 64, 0
2, 56030, Note_on_c, 0, 54, 78
2, 56035, Note_on_c, 0, 60, 58
2, 56035, Note_on_c, 0, 63, 71
2, 56052, Note_on_c, 0, 55, 0
2, 56080, Note_on_c, 0, 63, 0
2, 56083, Note_on_c, 0, 60, 0
2, 56124, Control_c, 0, 64, 127
2, 56145, Note_on_c, 0, 60, 86
2, 56146, Note_on_c, 0, 69, 77
2, 56192, Note_on_c, 0, 69, 0
2, 56208, Note_on_c, 0, 60, 0
2, 56229, Control_c, 0, 64, 0
2, 56284, Note_on_c, 0, 68, 73
2, 56284, Note_on_c, 0, 53, 88
2, 56289, Note_on_c, 0, 62, 72
2, 56294, Note_on_c, 0, 54, 0
2, 56332, Note_on_c, 0, 62, 0
2, 56344, Note_on_c, 0, 68, 0
2, 56361, Control_c, 0, 64, 127
2, 56388, Note_on_c, 0, 62, 88
2, 56397, Note_on_c, 0, 71, 75
2, 56438, Note_on_c, 0, 71, 0
2, 56440, Note_on_c, 0, 62, 0
2, 56476, Control_c, 0, 64, 0
2, 56520, Note_on_c, 0, 48, 0
2, 56536, Note_on_c, 0, 52, 99
2, 56539, Note_on_c, 0, 67, 82
2, 56539, Note_on_c, 0, 64, 76
2, 56572, Note_on_c, 0, 53, 0
2, 56580, Note_on_c, 0, 64, 0
2, 56601, Note_on_c, 0, 67, 0
2, 56630, Control_c, 0, 64, 127
2, 56654, Note_on_c, 0, 72, 95
2, 56666, Note_on_c, 0, 64, 98
2, 56695, Note_on_c, 0, 72, 0
2, 56707, Control_c, 0, 64, 0
2, 56712, Note_on_c, 0, 64, 0
2, 56769, Note_on_c, 0, 50, 96
2, 56784, Note_on_c, 0, 71, 70
2, 56786, Note_on_c, 0, 65, 87
2, 56803, Note_on_c, 0, 52, 0
2, 56824, Note_on_c, 0, 65, 0
2, 56846, Control_c, 0, 64, 127
2, 56848, Note_on_c, 0, 71, 0
2, 56889, Note_on_c, 0, 65, 91
2, 56904, Note_on_c, 0, 74, 90
2, 56940, Note_on_c, 0, 74, 0
2, 56940, Note_on_c, 0, 65, 0
2, 56968, Control_c, 0, 64, 0
2, 57026, Note_on_c, 0, 49, 88
2, 57031, Note_on_c, 0, 70, 91
2, 57040, Note_on_c, 0, 50, 0
2, 57040, Note_on_c, 0, 67, 69
2, 57084, Note_on_c, 0, 67, 0
2, 57098, Note_on_c, 0, 70, 0
2, 57105, Control_c, 0, 64, 127
2, 57164, Note_on_c, 0, 76, 50
2, 57164, Note_on_c, 0, 67, 92
2, 57200, Note_on_c, 0, 67, 0
2, 57219, Note_on_c, 0, 76, 0
2, 57230, Control_c, 0, 64, 0
2, 57278, Note_on_c, 0, 76, 52
2, 57280, Note_on_c, 0, 70, 86
2, 57297, Note_on_c, 0, 61, 81
2, 57328, Note_on_c, 0, 70, 0
2, 57333, Note_on_c, 0, 76, 0
2, 57372, Note_on_c, 0, 79, 88
2, 57372, Note_on_c, 0, 70, 106
2, 57405, Note_on_c, 0, 79, 0
2, 57412, Control_c, 0, 64, 127
2, 57415, Note_on_c, 0, 70, 0
2, 57465, Note_on_c, 0, 49, 0
2, 57472, Note_on_c, 0, 61, 0
2, 57520, Control_c, 0, 64, 0
2, 57542, Note_on_c, 0, 50, 81
2, 57542, Note_on_c, 0, 62, 80
2, 57547, Note_on_c, 0, 69, 82
2, 57549, Note_on_c, 0, 74, 77
2, 57585, Note_on_c, 0, 69, 0
2, 57607, Note_on_c, 0, 74, 0
2, 57650, Note_on_c, 0, 77, 97
2, 57656, Note_on_c, 0, 69, 71
2, 57660, Control_c, 0, 64, 127
2, 57662, Note_on_c, 0, 62, 0
2, 57681, Note_on_c, 0, 77, 0
2, 57702, Note_on_c, 0, 69, 0
2, 57768, Control_c, 0, 64, 0
2, 57770, Note_on_c, 0, 50, 0
2, 57796, Note_on_c, 0, 67, 80
2, 57796, Note_on_c, 0, 61, 79
2, 57801, Note_on_c, 0, 69, 78
2, 57808, Note_on_c, 0, 52, 73
2, 57834, Note_on_c, 0, 67, 0
2, 57868, Note_on_c, 0, 69, 0
2, 57904, Control_c, 0, 64, 127
2, 57914, Note_on_c, 0, 61, 0
2, 57914, Note_on_c, 0, 67, 76
2, 57928, Note_on_c, 0, 76, 83
2, 57931, Note_on_c, 0, 52, 0
2, 57955, Note_on_c, 0, 67, 0
2, 57962, Note_on_c, 0, 76, 0
2, 58032, Note_on_c, 0, 52, 69
2, 58044, Control_c, 0, 64, 0
2, 58044, Note_on_c, 0, 69, 71
2, 58044, Note_on_c, 0, 67, 66
2, 58046, Note_on_c, 0, 61, 76
2, 58085, Note_on_c, 0, 69, 0
2, 58089, Note_on_c, 0, 67, 0
2, 58173, Note_on_c, 0, 67, 72
2, 58183, Control_c, 0, 64, 127
2, 58183, Note_on_c, 0, 76, 84
2, 58219, Note_on_c, 0, 76, 0
2, 58219, Note_on_c, 0, 67, 0
2, 58243, Note_on_c, 0, 61, 0
2, 58288, Note_on_c, 0, 52, 0
2, 58300, Note_on_c, 0, 62, 82
2, 58305, Control_c, 0, 64, 0
2, 58312, Note_on_c, 0, 65, 64
2, 58312, Note_on_c, 0, 53, 70
2, 58315, Note_on_c, 0, 69, 62
2, 58360, Note_on_c, 0, 65, 0
2, 58368, Note_on_c, 0, 69, 0
2, 58423, Note_on_c, 0, 62, 0
2, 58423, Note_on_c, 0, 65, 91
2, 58425, Note_on_c, 0, 74, 95
2, 58456, Note_on_c, 0, 74, 0
2, 58459, Control_c, 0, 64, 127
2, 58497, Note_on_c, 0, 65, 0
2, 58548, Note_on_c, 0, 54, 77
2, 58560, Note_on_c, 0, 63, 88
2, 58562, Note_on_c, 0, 69, 75
2, 58567, Control_c, 0, 64, 0
2, 58620, Note_on_c, 0, 53, 0
2, 58622, Note_on_c, 0, 69, 0
2, 58634, Note_on_c, 0, 63, 0
2, 58680, Note_on_c, 0, 72, 94
2, 58687, Note_on_c, 0, 63, 58
2, 58704, Control_c, 0, 64, 127
2, 58718, Note_on_c, 0, 72, 0
2, 58732, Note_on_c, 0, 63, 0
2, 58780, Control_c, 0, 64, 0
2, 58816, Note_on_c, 0, 64, 70
2, 58818, Note_on_c, 0, 67, 66
2, 58833, Note_on_c, 0, 55, 81
2, 58860, Note_on_c, 0, 54, 0
2, 58869, Note_on_c, 0, 64, 0
2, 58923, Note_on_c, 0, 67, 0
2, 58934, Control_c, 0, 64, 127
2, 58940, Note_on_c, 0, 72, 91
2, 58946, Note_on_c, 0, 64, 86
2, 58992, Note_on_c, 0, 64, 0
2, 58995, Note_on_c, 0, 72, 0
2, 59011, Control_c, 0, 64, 0
2, 59064, Note_on_c, 0, 55, 0
2, 59070, Note_on_c, 0, 66, 52
2, 59073, Note_on_c, 0, 63, 75
2, 59080, Note_on_c, 0, 43, 81
2, 59116, Note_on_c, 0, 63, 0
2, 59142, Note_on_c, 0, 66, 0
2, 59150, Control_c, 0, 64, 127
2, 59191, Note_on_c, 0, 63, 58
2, 59205, Note_on_c, 0, 72, 57
2, 59248, Note_on_c, 0, 63, 0
2, 59260, Note_on_c, 0, 72, 0
2, 59318, Control_c, 0, 64, 0
2, 59376, Note_on_c, 0, 55, 75
2, 59380, Note_on_c, 0, 62, 44
2, 59383, Note_on_c, 0, 65, 66
2, 59426, Note_on_c, 0, 55, 0
2, 59436, Note_on_c, 0, 65, 0
2, 59443, Note_on_c, 0, 62, 0
2, 59443, Control_c, 0, 64, 127
2, 59493, Note_on_c, 0, 43, 0
2, 59500, Note_on_c, 0, 71, 53
2, 59509, Note_on_c, 0, 62, 26
2, 59546, Note_on_c, 0, 71, 0
2, 59566, Note_on_c, 0, 62, 0
2, 59620, Note_on_c, 0, 36, 79
2, 59632, Note_on_c, 0, 67, 74
2, 59638, Note_on_c, 0, 64, 41
2, 59656, Control_c, 0, 64, 0
2, 59688, Note_on_c, 0, 67, 0
2, 59691, Note_on_c, 0, 64, 0
2, 59762, Note_on_c, 0, 72, 77
2, 59769, Note_on_c, 0, 64, 60
2, 59776, Note_on_c, 0, 36, 0
2, 59781, Control_c, 0, 64, 127
2, 59817, Note_on_c, 0, 64, 0
2, 59820, Note_on_c, 0, 72, 0
2, 59906, Note_on_c, 0, 68, 67
2, 59908, Note_on_c, 0, 65, 64
2, 59908, Note_on_c, 0, 48, 98
2, 59959, Note_on_c, 0, 65, 0
2, 59973, Note_on_c, 0, 68, 0
2, 60026, Note_on_c, 0, 65, 87
2, 60040, Note_on_c, 0, 74, 81
2, 60076, Note_on_c, 0, 74, 0
2, 60088, Note_on_c, 0, 65, 0
2, 60182, Note_on_c, 0, 65, 80
2, 60187, Note_on_c, 0, 62, 84
2, 60192, Note_on_c, 0, 56, 97
2, 60225, Control_c, 0, 64, 0
2, 60237, Note_on_c, 0, 62, 0
2, 60280, Note_on_c, 0, 65, 0
2, 60333, Note_on_c, 0, 71, 62
2, 60338, Note_on_c, 0, 62, 35
2, 60348, Control_c, 0, 64, 127
2, 60369, Note_on_c, 0, 71, 0
2, 60408, Note_on_c, 0, 62, 0
2, 60458, Note_on_c, 0, 55, 92
2, 60470, Note_on_c, 0, 56, 0
2, 60470, Note_on_c, 0, 59, 56
2, 60472, Control_c, 0, 64, 0
2, 60472, Note_on_c, 0, 62, 57
2, 60513, Note_on_c, 0, 59, 0
2, 60520, Note_on_c, 0, 62, 0
2, 60578, Note_on_c, 0, 59, 75
2, 60592, Note_on_c, 0, 67, 83
2, 60609, Control_c, 0, 64, 127
2, 60638, Note_on_c, 0, 67, 0
2, 60648, Note_on_c, 0, 59, 0
2, 60703, Control_c, 0, 64, 0
2, 60705, Note_on_c, 0, 55, 0
2, 60724, Note_on_c, 0, 54, 70
2, 60736, Note_on_c, 0, 60, 71
2, 60739, Note_on_c, 0, 63, 62
2, 60784, Note_on_c, 0, 60, 0
2, 60792, Note_on_c, 0, 63, 0
2, 60849, Note_on_c, 0, 60, 79
2, 60850, Note_on_c, 0, 69, 65
2, 60856, Control_c, 0, 64, 127
2, 60897, Note_on_c, 0, 60, 0
2, 60905, Note_on_c, 0, 69, 0
2, 60912, Note_on_c, 0, 54, 0
2, 60979, Control_c, 0, 64, 0
2, 60993, Note_on_c, 0, 68, 72
2, 61005, Note_on_c, 0, 53, 75
2, 61010, Note_on_c, 0, 48, 0
2, 61024, Note_on_c, 0, 62, 30
2, 61056, Note_on_c, 0, 53, 0
2, 61058, Note_on_c, 0, 68, 0
2, 61087, Control_c, 0, 64, 127
2, 61089, Note_on_c, 0, 62, 0
2, 61120, Note_on_c, 0, 62, 36
2, 61140, Note_on_c, 0, 71, 25
2, 61166, Note_on_c, 0, 62, 0
2, 61204, Note_on_c, 0, 71, 0
2, 61240, Control_c, 0, 64, 0
2, 61248, Note_on_c, 0, 36, 83
2, 61255, Note_on_c, 0, 64, 68
2, 61255, Note_on_c, 0, 67, 77
2, 61296, Note_on_c, 0, 64, 0
2, 61305, Note_on_c, 0, 67, 0
2, 61336, Note_on_c, 0, 36, 0
2, 61363, Control_c, 0, 64, 127
2, 61368, Note_on_c, 0, 64, 80
2, 61369, Note_on_c, 0, 72, 74
2, 61418, Note_on_c, 0, 64, 0
2, 61420, Note_on_c, 0, 72, 0
2, 61485, Control_c, 0, 64, 0
2, 61497, Note_on_c, 0, 48, 89
2, 61508, Note_on_c, 0, 68, 78
2, 61516, Note_on_c, 0, 65, 61
2, 61563, Note_on_c, 0, 68, 0
2, 61567, Note_on_c, 0, 65, 0
2, 61624, Control_c, 0, 64, 127
2, 61624, Note_on_c, 0, 74, 94
2, 61629, Note_on_c, 0, 65, 88
2, 61656, Note_on_c, 0, 74, 0
2, 61680, Note_on_c, 0, 65, 0
2, 61747, Control_c, 0, 64, 0
2, 61773, Note_on_c, 0, 56, 99
2, 61780, Note_on_c, 0, 62, 79
2, 61785, Note_on_c, 0, 65, 37
2, 61831, Note_on_c, 0, 62, 0
2, 61855, Note_on_c, 0, 65, 0
2, 61886, Control_c, 0, 64, 127
2, 61900, Note_on_c, 0, 62, 76
2, 61902, Note_on_c, 0, 71, 46
2, 61946, Note_on_c, 0, 71, 0
2, 61956, Note_on_c, 0, 62, 0
2, 62008, Control_c, 0, 64, 0
2, 62037, Note_on_c, 0, 55, 88
2, 62049, Note_on_c, 0, 62, 65
2, 62056, Note_on_c, 0, 59, 69
2, 62059, Note_on_c, 0, 56, 0
2, 62095, Note_on_c, 0, 59, 0
2, 62112, Note_on_c, 0, 62, 0
2, 62148, Control_c, 0, 64, 127
2, 62167, Note_on_c, 0, 59, 66
2, 62188, Note_on_c, 0, 67, 83
2, 62215, Note_on_c, 0, 59, 0
2, 62234, Note_on_c, 0, 67, 0
2, 62256, Control_c, 0, 64, 0
2, 62301, Note_on_c, 0, 63, 76
2, 62303, Note_on_c, 0, 60, 46
2, 62304, Note_on_c, 0, 54, 79
2, 62323, Note_on_c, 0, 55, 0
2, 62354, Note_on_c, 0, 63, 0
2, 62368, Note_on_c, 0, 60, 0
2, 62392, Control_c, 0, 64, 127
2, 62428, Note_on_c, 0, 60, 41
2, 62433, Note_on_c, 0, 69, 75
2, 62476, Note_on_c, 0, 69, 0
2, 62479, Note_on_c, 0, 60, 0
2, 62532, Control_c, 0, 64, 0
2, 62546, Note_on_c, 0, 54, 0
2, 62548, Note_on_c, 0, 53, 80
2, 62553, Note_on_c, 0, 62, 70
2, 62556, Note_on_c, 0, 68, 72
2, 62596, Note_on_c, 0, 62, 0
2, 62625, Note_on_c, 0, 68, 0
2, 62654, Control_c, 0, 64, 127
2, 62664, Note_on_c, 0, 62, 70
2, 62673, Note_on_c, 0, 71, 65
2, 62712, Note_on_c, 0, 62, 0
2, 62719, Note_on_c, 0, 71, 0
2, 62755, Note_on_c, 0, 53, 0
2, 62776, Control_c, 0, 64, 0
2, 62800, Note_on_c, 0, 67, 85
2, 62802, Note_on_c, 0, 64, 52
2, 62803, Note_on_c, 0, 52, 97
2, 62815, Note_on_c, 0, 48, 0
2, 62839, Note_on_c, 0, 52, 0
2, 62848, Note_on_c, 0, 67, 0
2, 62850, Note_on_c, 0, 64, 0
2, 62899, Control_c, 0, 64, 127
2, 62923, Note_on_c, 0, 72, 95
2, 62937, Note_on_c, 0, 64, 70
2, 62961, Note_on_c, 0, 72, 0
2, 62976, Note_on_c, 0, 64, 0
2, 63007, Control_c, 0, 64, 0
2, 63050, Note_on_c, 0, 61, 96
2, 63057, Note_on_c, 0, 49, 75
2, 63060, Note_on_c, 0, 57, 87
2, 63064, Note_on_c, 0, 69, 84
2, 63067, Note_on_c, 0, 67, 84
2, 63103, Note_on_c, 0, 69, 0
2, 63105, Note_on_c, 0, 67, 0
2, 63177, Control_c, 0, 64, 127
2, 63178, Note_on_c, 0, 76, 75
2, 63182, Note_on_c, 0, 67, 87
2, 63217, Note_on_c, 0, 76, 0
2, 63228, Note_on_c, 0, 67, 0
2, 63244, Note_on_c, 0, 49, 0
2, 63249, Note_on_c, 0, 61, 0
2, 63345, Note_on_c, 0, 62, 95
2, 63348, Note_on_c, 0, 65, 68
2, 63352, Note_on_c, 0, 69, 74
2, 63360, Note_on_c, 0, 50, 88
2, 63372, Note_on_c, 0, 57, 0
2, 63391, Control_c, 0, 64, 0
2, 63393, Note_on_c, 0, 69, 0
2, 63396, Note_on_c, 0, 65, 0
2, 63429, Note_on_c, 0, 50, 0
2, 63439, Control_c, 0, 64, 127
2, 63456, Note_on_c, 0, 65, 98
2, 63458, Note_on_c, 0, 62, 0
2, 63462, Note_on_c, 0, 74, 95
2, 63493, Note_on_c, 0, 74, 0
2, 63496, Note_on_c, 0, 65, 0
2, 63576, Control_c, 0, 64, 0
2, 63595, Note_on_c, 0, 64, 108
2, 63595, Note_on_c, 0, 70, 95
2, 63595, Note_on_c, 0, 60, 91
2, 63596, Note_on_c, 0, 72, 28
2, 63602, Note_on_c, 0, 52, 95
2, 63638, Note_on_c, 0, 70, 0
2, 63648, Note_on_c, 0, 72, 0
2, 63700, Note_on_c, 0, 79, 94
2, 63705, Note_on_c, 0, 70, 83
2, 63729, Control_c, 0, 64, 127
2, 63736, Note_on_c, 0, 79, 0
2, 63748, Note_on_c, 0, 70, 0
2, 63751, Note_on_c, 0, 52, 0
2, 63777, Note_on_c, 0, 64, 0
2, 63864, Note_on_c, 0, 65, 108
2, 63871, Note_on_c, 0, 53, 94
2, 63881, Note_on_c, 0, 72, 33
2, 63883, Note_on_c, 0, 69, 79
2, 63921, Note_on_c, 0, 69, 0
2, 63938, Note_on_c, 0, 72, 0
2, 63943, Note_on_c, 0, 60, 0
2, 63960, Note_on_c, 0, 53, 0
2, 63976, Note_on_c, 0, 65, 0
2, 63976, Note_on_c, 0, 69, 102
2, 63981, Note_on_c, 0, 77, 98
2, 64005, Note_on_c, 0, 69, 0
2, 64015, Note_on_c, 0, 77, 0
2, 64053, Control_c, 0, 64, 0
2, 64104, Note_on_c, 0, 66, 104
2, 64113, Note_on_c, 0, 62, 84
2, 64116, Note_on_c, 0, 54, 81
2, 64118, Note_on_c, 0, 74, 102
2, 64125, Note_on_c, 0, 72, 98
2, 64159, Note_on_c, 0, 72, 0
2, 64159, Note_on_c, 0, 74, 0
2, 64207, Control_c, 0, 64, 127
2, 64233, Note_on_c, 0, 81, 102
2, 64236, Note_on_c, 0, 72, 74
2, 64264, Note_on_c, 0, 81, 0
2, 64269, Note_on_c, 0, 54, 0
2, 64281, Note_on_c, 0, 66, 0
2, 64284, Note_on_c, 0, 72, 0
2, 64368, Note_on_c, 0, 71, 85
2, 64370, Note_on_c, 0, 74, 75
2, 64370, Note_on_c, 0, 67, 107
2, 64384, Note_on_c, 0, 55, 90
2, 64392, Control_c, 0, 64, 0
2, 64404, Note_on_c, 0, 71, 0
2, 64415, Note_on_c, 0, 74, 0
2, 64437, Note_on_c, 0, 55, 0
2, 64473, Note_on_c, 0, 62, 0
2, 64483, Control_c, 0, 64, 127
2, 64485, Note_on_c, 0, 71, 79
2, 64490, Note_on_c, 0, 79, 98
2, 64502, Note_on_c, 0, 67, 0
2, 64521, Note_on_c, 0, 79, 0
2, 64533, Note_on_c, 0, 71, 0
2, 64591, Control_c, 0, 64, 0
2, 64612, Note_on_c, 0, 68, 109
2, 64627, Note_on_c, 0, 56, 91
2, 64629, Note_on_c, 0, 76, 106
2, 64632, Note_on_c, 0, 64, 85
2, 64636, Note_on_c, 0, 74, 90
2, 64670, Note_on_c, 0, 74, 0
2, 64701, Note_on_c, 0, 76, 0
2, 64742, Note_on_c, 0, 74, 93
2, 64744, Control_c, 0, 64, 127
2, 64747, Note_on_c, 0, 83, 92
2, 64776, Note_on_c, 0, 83, 0
2, 64783, Note_on_c, 0, 74, 0
2, 64812, Note_on_c, 0, 68, 0
2, 64812, Note_on_c, 0, 56, 0
2, 64878, Note_on_c, 0, 76, 86
2, 64886, Note_on_c, 0, 72, 105
2, 64886, Note_on_c, 0, 69, 109
2, 64900, Note_on_c, 0, 57, 94
2, 64912, Control_c, 0, 64, 0
2, 64948, Note_on_c, 0, 72, 0
2, 64974, Note_on_c, 0, 76, 0
2, 64994, Note_on_c, 0, 64, 0
2, 64999, Note_on_c, 0, 57, 0
2, 65004, Note_on_c, 0, 81, 103
2, 65011, Note_on_c, 0, 72, 105
2, 65016, Note_on_c, 0, 69, 0
2, 65020, Control_c, 0, 64, 127
2, 65037, Note_on_c, 0, 81, 0
2, 65040, Note_on_c, 0, 72, 0
2, 65128, Control_c, 0, 64, 0
2, 65133, Note_on_c, 0, 71, 101
2, 65145, Note_on_c, 0, 79, 106
2, 65145, Note_on_c, 0, 67, 99
2, 65145, Note_on_c, 0, 59, 87
2, 65152, Note_on_c, 0, 77, 100
2, 65186, Note_on_c, 0, 77, 0
2, 65241, Note_on_c, 0, 79, 0
2, 65268, Note_on_c, 0, 77, 95
2, 65272, Note_on_c, 0, 86, 106
2, 65282, Control_c, 0, 64, 127
2, 65311, Note_on_c, 0, 86, 0
2, 65313, Note_on_c, 0, 77, 0
2, 65320, Note_on_c, 0, 59, 0
2, 65340, Note_on_c, 0, 71, 0
2, 65421, Note_on_c, 0, 72, 115
2, 65426, Note_on_c, 0, 76, 103
2, 65431, Note_on_c, 0, 60, 96
2, 65433, Note_on_c, 0, 79, 91
2, 65436, Control_c, 0, 64, 0
2, 65472, Note_on_c, 0, 76, 0
2, 65520, Note_on_c, 0, 79, 0
2, 65553, Note_on_c, 0, 76, 101
2, 65553, Note_on_c, 0, 84, 106
2, 65563, Note_on_c, 0, 60, 0
2, 65575, Control_c, 0, 64, 127
2, 65580, Note_on_c, 0, 67, 0
2, 65594, Note_on_c, 0, 72, 0
2, 65608, Note_on_c, 0, 76, 0
2, 65656, Note_on_c, 0, 84, 0
2, 65700, Note_on_c, 0, 73, 107
2, 65709, Note_on_c, 0, 61, 90
2, 65709, Note_on_c, 0, 81, 106
2, 65716, Note_on_c, 0, 79, 100
2, 65721, Note_on_c, 0, 69, 90
2, 65743, Control_c, 0, 64, 0
2, 65757, Note_on_c, 0, 79, 0
2, 65793, Note_on_c, 0, 81, 0
2, 65860, Note_on_c, 0, 88, 108
2, 65860, Note_on_c, 0, 79, 97
2, 65865, Control_c, 0, 64, 127
2, 65906, Note_on_c, 0, 69, 0
2, 65942, Note_on_c, 0, 79, 0
2, 65942, Note_on_c, 0, 73, 0
2, 65947, Note_on_c, 0, 61, 0
2, 65959, Note_on_c, 0, 88, 0
2, 66038, Note_on_c, 0, 73, 103
2, 66040, Note_on_c, 0, 81, 105
2, 66043, Note_on_c, 0, 79, 87
2, 66055, Note_on_c, 0, 62, 97
2, 66062, Note_on_c, 0, 69, 94
2, 66124, Note_on_c, 0, 79, 0
2, 66134, Note_on_c, 0, 81, 0
2, 66213, Note_on_c, 0, 79, 88
2, 66216, Note_on_c, 0, 88, 100
2, 66276, Note_on_c, 0, 88, 0
2, 66280, Control_c, 0, 64, 0
2, 66283, Note_on_c, 0, 79, 0
2, 66357, Note_on_c, 0, 79, 95
2, 66364, Note_on_c, 0, 81, 102
2, 66451, Control_c, 0, 64, 127
2, 66456, Note_on_c, 0, 81, 0
2, 66456, Note_on_c, 0, 79, 0
2, 66523, Note_on_c, 0, 79, 96
2, 66525, Note_on_c, 0, 88, 94
2, 66561, Note_on_c, 0, 88, 0
2, 66564, Note_on_c, 0, 79, 0
2, 66667, Note_on_c, 0, 79, 80
2, 66669, Note_on_c, 0, 81, 94
2, 66715, Note_on_c, 0, 79, 0
2, 66724, Note_on_c, 0, 81, 0
2, 66792, Note_on_c, 0, 79, 89
2, 66801, Note_on_c, 0, 88, 94
2, 66832, Note_on_c, 0, 88, 0
2, 66837, Note_on_c, 0, 79, 0
2, 66868, Note_on_c, 0, 73, 0
2, 66943, Note_on_c, 0, 81, 85
2, 66943, Note_on_c, 0, 79, 71
2, 66952, Note_on_c, 0, 74, 99
2, 66991, Note_on_c, 0, 79, 0
2, 67003, Control_c, 0, 64, 0
2, 67005, Note_on_c, 0, 81, 0
2, 67092, Note_on_c, 0, 79, 71
2, 67096, Note_on_c, 0, 88, 89
2, 67130, Note_on_c, 0, 88, 0
2, 67154, Note_on_c, 0, 79, 0
2, 67173, Control_c, 0, 64, 127
2, 67260, Note_on_c, 0, 77, 75
2, 67262, Note_on_c, 0, 81, 72
2, 67272, Note_on_c, 0, 74, 0
2, 67300, Note_on_c, 0, 77, 0
2, 67324, Note_on_c, 0, 81, 0
2, 67363, Note_on_c, 0, 69, 0
2, 67399, Note_on_c, 0, 77, 56
2, 67408, Note_on_c, 0, 86, 78
2, 67442, Note_on_c, 0, 62, 0
2, 67449, Note_on_c, 0, 86, 0
2, 67454, Note_on_c, 0, 77, 0
2, 67584, Note_on_c, 0, 81, 73
2, 67591, Note_on_c, 0, 77, 47
2, 67641, Note_on_c, 0, 77, 0
2, 67663, Note_on_c, 0, 81, 0
2, 67708, Note_on_c, 0, 77, 88
2, 67728, Note_on_c, 0, 84, 74
2, 67768, Note_on_c, 0, 84, 0
2, 67778, Note_on_c, 0, 77, 0
2, 67888, Note_on_c, 0, 81, 81
2, 67888, Note_on_c, 0, 77, 79
2, 67898, Note_on_c, 0, 43, 72
2, 67910, Control_c, 0, 64, 0
2, 67944, Note_on_c, 0, 77, 0
2, 67963, Note_on_c, 0, 81, 0
2, 67975, Note_on_c, 0, 43, 0
2, 68018, Control_c, 0, 64, 127
2, 68020, Note_on_c, 0, 77, 88
2, 68023, Note_on_c, 0, 83, 62
2, 68066, Note_on_c, 0, 83, 0
2, 68073, Note_on_c, 0, 77, 0
2, 68160, Note_on_c, 0, 77, 82
2, 68162, Note_on_c, 0, 55, 87
2, 68174, Note_on_c, 0, 81, 82
2, 68215, Note_on_c, 0, 77, 0
2, 68217, Note_on_c, 0, 81, 0
2, 68265, Note_on_c, 0, 55, 0
2, 68296, Note_on_c, 0, 77, 88
2, 68301, Note_on_c, 0, 83, 59
2, 68342, Note_on_c, 0, 77, 0
2, 68346, Note_on_c, 0, 83, 0
2, 68452, Note_on_c, 0, 65, 75
2, 68454, Note_on_c, 0, 62, 70
2, 68464, Note_on_c, 0, 81, 75
2, 68469, Note_on_c, 0, 77, 57
2, 68512, Note_on_c, 0, 62, 0
2, 68517, Note_on_c, 0, 77, 0
2, 68524, Note_on_c, 0, 81, 0
2, 68563, Note_on_c, 0, 65, 0
2, 68582, Note_on_c, 0, 83, 37
2, 68589, Note_on_c, 0, 77, 75
2, 68635, Note_on_c, 0, 83, 0
2, 68644, Note_on_c, 0, 77, 0
2, 68784, Note_on_c, 0, 71, 68
2, 68786, Note_on_c, 0, 81, 65
2, 68796, Note_on_c, 0, 77, 49
2, 68834, Note_on_c, 0, 71, 0
2, 68839, Note_on_c, 0, 81, 0
2, 68851, Note_on_c, 0, 77, 0
2, 68932, Note_on_c, 0, 77, 69
2, 68947, Note_on_c, 0, 83, 46
2, 68983, Note_on_c, 0, 77, 0
2, 69004, Note_on_c, 0, 83, 0
2, 69115, Note_on_c, 0, 79, 67
2, 69122, Note_on_c, 0, 76, 49
2, 69175, Note_on_c, 0, 76, 0
2, 69182, Note_on_c, 0, 79, 0
2, 69254, Note_on_c, 0, 76, 68
2, 69266, Note_on_c, 0, 83, 52
2, 69307, Note_on_c, 0, 76, 0
2, 69314, Note_on_c, 0, 83, 0
2, 69453, Note_on_c, 0, 74, 45
2, 69453, Note_on_c, 0, 77, 52
2, 69504, Note_on_c, 0, 77, 0
2, 69504, Note_on_c, 0, 74, 0
2, 69590, Note_on_c, 0, 74, 59
2, 69592, Note_on_c, 0, 83, 35
2, 69638, Note_on_c, 0, 74, 0
2, 69643, Note_on_c, 0, 83, 0
2, 69751, Note_on_c, 0, 60, 77
2, 69760, Note_on_c, 0, 76, 45
2, 69765, Note_on_c, 0, 79, 45
2, 69811, Note_on_c, 0, 76, 0
2, 69816, Note_on_c, 0, 79, 0
2, 69866, Note_on_c, 0, 76, 43
2, 69876, Note_on_c, 0, 84, 61
2, 69912, Note_on_c, 0, 76, 0
2, 69926, Note_on_c, 0, 84, 0
2, 69969, Control_c, 0, 64, 0
2, 70021, Note_on_c, 0, 72, 76
2, 70022, Note_on_c, 0, 69, 60
2, 70029, Note_on_c, 0, 77, 41
2, 70033, Note_on_c, 0, 81, 41
2, 70094, Note_on_c, 0, 77, 0
2, 70098, Note_on_c, 0, 81, 0
2, 70125, Note_on_c, 0, 77, 18
2, 70135, Note_on_c, 0, 86, 86
2, 70140, Control_c, 0, 64, 127
2, 70167, Note_on_c, 0, 72, 0
2, 70173, Note_on_c, 0, 77, 0
2, 70173, Note_on_c, 0, 86, 0
2, 70236, Note_on_c, 0, 69, 0
2, 70267, Note_on_c, 0, 67, 68
2, 70276, Note_on_c, 0, 71, 60
2, 70291, Note_on_c, 0, 79, 49
2, 70303, Note_on_c, 0, 83, 41
2, 70344, Note_on_c, 0, 79, 0
2, 70348, Note_on_c, 0, 83, 0
2, 70401, Note_on_c, 0, 88, 77
2, 70403, Note_on_c, 0, 79, 77
2, 70442, Note_on_c, 0, 88, 0
2, 70444, Note_on_c, 0, 67, 0
2, 70444, Note_on_c, 0, 79, 0
2, 70456, Note_on_c, 0, 71, 0
2, 70538, Control_c, 0, 64, 0
2, 70545, Note_on_c, 0, 81, 65
2, 70545, Note_on_c, 0, 69, 69
2, 70548, Note_on_c, 0, 84, 65
2, 70560, Note_on_c, 0, 65, 61
2, 70588, Note_on_c, 0, 81, 0
2, 70596, Note_on_c, 0, 84, 0
2, 70651, Note_on_c, 0, 81, 89
2, 70663, Note_on_c, 0, 89, 81
2, 70692, Control_c, 0, 64, 127
2, 70694, Note_on_c, 0, 81, 0
2, 70699, Note_on_c, 0, 89, 0
2, 70716, Note_on_c, 0, 69, 0
2, 70764, Note_on_c, 0, 65, 0
2, 70816, Note_on_c, 0, 71, 56
2, 70819, Note_on_c, 0, 67, 70
2, 70824, Note_on_c, 0, 79, 48
2, 70824, Note_on_c, 0, 83, 48
2, 70860, Note_on_c, 0, 60, 0
2, 70881, Note_on_c, 0, 79, 0
2, 70881, Note_on_c, 0, 83, 0
2, 70920, Note_on_c, 0, 71, 0
2, 70927, Note_on_c, 0, 67, 0
2, 70932, Note_on_c, 0, 88, 60
2, 70939, Note_on_c, 0, 79, 46
2, 70977, Note_on_c, 0, 88, 0
2, 70992, Note_on_c, 0, 79, 0
2, 71052, Note_on_c, 0, 72, 81
2, 71061, Note_on_c, 0, 69, 71
2, 71068, Note_on_c, 0, 60, 15
2, 71085, Note_on_c, 0, 81, 61
2, 71085, Note_on_c, 0, 77, 56
2, 71112, Note_on_c, 0, 69, 0
2, 71124, Note_on_c, 0, 72, 0
2, 71136, Note_on_c, 0, 77, 0
2, 71138, Note_on_c, 0, 81, 0
2, 71191, Note_on_c, 0, 86, 80
2, 71193, Note_on_c, 0, 77, 24
2, 71224, Note_on_c, 0, 86, 0
2, 71241, Note_on_c, 0, 77, 0
2, 71292, Control_c, 0, 64, 0
2, 71318, Note_on_c, 0, 74, 99
2, 71328, Note_on_c, 0, 71, 76
2, 71340, Note_on_c, 0, 79, 71
2, 71352, Note_on_c, 0, 77, 56
2, 71390, Note_on_c, 0, 79, 0
2, 71397, Note_on_c, 0, 77, 0
2, 71424, Note_on_c, 0, 71, 0
2, 71440, Note_on_c, 0, 60, 0
2, 71445, Control_c, 0, 64, 127
2, 71455, Note_on_c, 0, 86, 88
2, 71462, Note_on_c, 0, 77, 85
2, 71491, Note_on_c, 0, 86, 0
2, 71503, Note_on_c, 0, 77, 0
2, 71522, Note_on_c, 0, 74, 0
2, 71594, Note_on_c, 0, 77, 64
2, 71601, Note_on_c, 0, 60, 62
2, 71606, Note_on_c, 0, 79, 81
2, 71642, Note_on_c, 0, 77, 0
2, 71644, Note_on_c, 0, 79, 0
2, 71709, Note_on_c, 0, 77, 90
2, 71719, Note_on_c, 0, 86, 85
2, 71748, Note_on_c, 0, 77, 0
2, 71757, Note_on_c, 0, 86, 0
2, 71841, Note_on_c, 0, 72, 83
2, 71856, Note_on_c, 0, 69, 72
2, 71860, Note_on_c, 0, 77, 58
2, 71860, Note_on_c, 0, 81, 65
2, 71906, Note_on_c, 0, 77, 0
2, 71908, Note_on_c, 0, 69, 0
2, 71916, Note_on_c, 0, 81, 0
2, 71940, Note_on_c, 0, 72, 0
2, 71966, Note_on_c, 0, 86, 89
2, 71966, Note_on_c, 0, 77, 97
2, 72007, Note_on_c, 0, 77, 0
2, 72009, Note_on_c, 0, 86, 0
2, 72060, Control_c, 0, 64, 0
2, 72108, Note_on_c, 0, 74, 101
2, 72112, Note_on_c, 0, 77, 76
2, 72116, Note_on_c, 0, 79, 82
2, 72120, Note_on_c, 0, 71, 75
2, 72160, Note_on_c, 0, 79, 0
2, 72165, Note_on_c, 0, 77, 0
2, 72204, Note_on_c, 0, 60, 0
2, 72213, Note_on_c, 0, 71, 0
2, 72228, Control_c, 0, 64, 127
2, 72235, Note_on_c, 0, 86, 92
2, 72237, Note_on_c, 0, 77, 87
2, 72264, Note_on_c, 0, 74, 0
2, 72276, Note_on_c, 0, 86, 0
2, 72288, Note_on_c, 0, 77, 0
2, 72364, Note_on_c, 0, 77, 88
2, 72369, Note_on_c, 0, 79, 90
2, 72374, Note_on_c, 0, 60, 74
2, 72405, Note_on_c, 0, 77, 0
2, 72408, Note_on_c, 0, 79, 0
2, 72494, Note_on_c, 0, 88, 99
2, 72501, Note_on_c, 0, 77, 45
2, 72525, Note_on_c, 0, 88, 0
2, 72558, Note_on_c, 0, 77, 0
2, 72566, Note_on_c, 0, 60, 0
2, 72626, Note_on_c, 0, 71, 62
2, 72633, Note_on_c, 0, 79, 80
2, 72633, Note_on_c, 0, 67, 62
2, 72638, Note_on_c, 0, 77, 41
2, 72670, Note_on_c, 0, 77, 0
2, 72672, Note_on_c, 0, 79, 0
2, 72744, Note_on_c, 0, 67, 0
2, 72744, Note_on_c, 0, 86, 95
2, 72746, Note_on_c, 0, 77, 95
2, 72775, Note_on_c, 0, 86, 0
2, 72775, Note_on_c, 0, 71, 0
2, 72777, Note_on_c, 0, 77, 0
2, 72873, Note_on_c, 0, 60, 89
2, 72876, Control_c, 0, 64, 0
2, 72878, Note_on_c, 0, 76, 85
2, 72884, Note_on_c, 0, 79, 76
2, 72916, Note_on_c, 0, 76, 0
2, 72932, Note_on_c, 0, 79, 0
2, 72988, Note_on_c, 0, 76, 79
2, 72993, Note_on_c, 0, 84, 89
2, 73029, Note_on_c, 0, 84, 0
2, 73032, Note_on_c, 0, 76, 0
2, 73089, Control_c, 0, 64, 127
2, 73135, Note_on_c, 0, 72, 76
2, 73140, Note_on_c, 0, 69, 53
2, 73140, Note_on_c, 0, 81, 67
2, 73142, Note_on_c, 0, 77, 59
2, 73183, Note_on_c, 0, 81, 0
2, 73192, Note_on_c, 0, 77, 0
2, 73207, Note_on_c, 0, 69, 0
2, 73210, Note_on_c, 0, 72, 0
2, 73248, Note_on_c, 0, 86, 83
2, 73256, Note_on_c, 0, 77, 29
2, 73286, Note_on_c, 0, 86, 0
2, 73308, Note_on_c, 0, 77, 0
2, 73320, Control_c, 0, 64, 0
2, 73382, Note_on_c, 0, 67, 58
2, 73387, Note_on_c, 0, 71, 44
2, 73399, Note_on_c, 0, 83, 46
2, 73405, Note_on_c, 0, 79, 14
2, 73436, Note_on_c, 0, 79, 0
2, 73447, Note_on_c, 0, 83, 0
2, 73473, Control_c, 0, 64, 127
2, 73497, Note_on_c, 0, 88, 80
2, 73503, Note_on_c, 0, 79, 80
2, 73504, Control_c, 0, 64, 0
2, 73536, Note_on_c, 0, 67, 0
2, 73540, Note_on_c, 0, 88, 0
2, 73546, Note_on_c, 0, 79, 0
2, 73560, Note_on_c, 0, 71, 0
2, 73648, Note_on_c, 0, 81, 60
2, 73651, Note_on_c, 0, 69, 50
2, 73653, Note_on_c, 0, 84, 55
2, 73672, Note_on_c, 0, 65, 37
2, 73689, Control_c, 0, 64, 127
2, 73692, Note_on_c, 0, 81, 0
2, 73706, Note_on_c, 0, 84, 0
2, 73720, Control_c, 0, 64, 0
2, 73756, Note_on_c, 0, 89, 81
2, 73758, Note_on_c, 0, 81, 51
2, 73792, Note_on_c, 0, 89, 0
2, 73810, Note_on_c, 0, 81, 0
2, 73831, Note_on_c, 0, 69, 0
2, 73843, Control_c, 0, 64, 127
2, 73898, Note_on_c, 0, 65, 0
2, 73914, Note_on_c, 0, 83, 45
2, 73917, Note_on_c, 0, 79, 61
2, 73917, Note_on_c, 0, 71, 44
2, 73936, Note_on_c, 0, 67, 52
2, 73951, Control_c, 0, 64, 0
2, 73965, Note_on_c, 0, 79, 0
2, 73967, Note_on_c, 0, 83, 0
2, 74018, Note_on_c, 0, 79, 86
2, 74032, Note_on_c, 0, 88, 63
2, 74056, Note_on_c, 0, 71, 0
2, 74059, Control_c, 0, 64, 127
2, 74061, Note_on_c, 0, 79, 0
2, 74078, Note_on_c, 0, 88, 0
2, 74092, Note_on_c, 0, 67, 0
2, 74164, Control_c, 0, 64, 0
2, 74181, Note_on_c, 0, 77, 60
2, 74181, Note_on_c, 0, 81, 57
2, 74191, Note_on_c, 0, 72, 69
2, 74200, Note_on_c, 0, 69, 65
2, 74227, Control_c, 0, 64, 127
2, 74229, Note_on_c, 0, 77, 0
2, 74234, Note_on_c, 0, 81, 0
2, 74248, Note_on_c, 0, 69, 0
2, 74251, Note_on_c, 0, 72, 0
2, 74296, Note_on_c, 0, 77, 84
2, 74308, Note_on_c, 0, 86, 58
2, 74335, Note_on_c, 0, 77, 0
2, 74354, Note_on_c, 0, 86, 0
2, 74380, Control_c, 0, 64, 0
2, 74428, Note_on_c, 0, 77, 59
2, 74430, Note_on_c, 0, 79, 67
2, 74433, Note_on_c, 0, 74, 89
2, 74440, Note_on_c, 0, 71, 69
2, 74471, Note_on_c, 0, 79, 0
2, 74476, Note_on_c, 0, 77, 0
2, 74553, Note_on_c, 0, 71, 0
2, 74563, Note_on_c, 0, 86, 88
2, 74565, Control_c, 0, 64, 127
2, 74568, Note_on_c, 0, 77, 60
2, 74587, Note_on_c, 0, 60, 0
2, 74596, Note_on_c, 0, 86, 0
2, 74599, Note_on_c, 0, 74, 0
2, 74613, Note_on_c, 0, 77, 0
2, 74690, Note_on_c, 0, 77, 73
2, 74697, Note_on_c, 0, 79, 64
2, 74709, Note_on_c, 0, 60, 47
2, 74738, Note_on_c, 0, 77, 0
2, 74740, Note_on_c, 0, 79, 0
2, 74808, Note_on_c, 0, 86, 94
2, 74810, Note_on_c, 0, 77, 84
2, 74841, Note_on_c, 0, 86, 0
2, 74853, Note_on_c, 0, 77, 0
2, 74936, Note_on_c, 0, 81, 36
2, 74940, Note_on_c, 0, 77, 76
2, 74944, Note_on_c, 0, 72, 86
2, 74949, Control_c, 0, 64, 0
2, 74952, Note_on_c, 0, 69, 73
2, 74983, Note_on_c, 0, 77, 0
2, 74996, Note_on_c, 0, 81, 0
2, 75019, Note_on_c, 0, 69, 0
2, 75048, Note_on_c, 0, 72, 0
2, 75057, Note_on_c, 0, 86, 95
2, 75067, Note_on_c, 0, 77, 65
2, 75086, Control_c, 0, 64, 127
2, 75093, Note_on_c, 0, 86, 0
2, 75120, Note_on_c, 0, 77, 0
2, 75180, Control_c, 0, 64, 0
2, 75192, Note_on_c, 0, 74, 98
2, 75201, Note_on_c, 0, 79, 85
2, 75202, Note_on_c, 0, 77, 49
2, 75204, Note_on_c, 0, 71, 70
2, 75242, Note_on_c, 0, 79, 0
2, 75250, Note_on_c, 0, 77, 0
2, 75300, Note_on_c, 0, 71, 0
2, 75300, Note_on_c, 0, 60, 0
2, 75314, Note_on_c, 0, 86, 95
2, 75316, Control_c, 0, 64, 127
2, 75319, Note_on_c, 0, 77, 87
2, 75324, Note_on_c, 0, 74, 0
2, 75348, Note_on_c, 0, 86, 0
2, 75360, Note_on_c, 0, 77, 0
2, 75447, Note_on_c, 0, 77, 84
2, 75451, Note_on_c, 0, 60, 63
2, 75453, Note_on_c, 0, 79, 78
2, 75483, Note_on_c, 0, 77, 0
2, 75489, Note_on_c, 0, 79, 0
2, 75561, Note_on_c, 0, 88, 99
2, 75564, Note_on_c, 0, 77, 68
2, 75570, Note_on_c, 0, 79, 31
2, 75590, Note_on_c, 0, 88, 0
2, 75614, Note_on_c, 0, 77, 0
2, 75628, Note_on_c, 0, 79, 0
2, 75680, Note_on_c, 0, 77, 101
2, 75682, Note_on_c, 0, 79, 63
2, 75686, Note_on_c, 0, 71, 66
2, 75698, Note_on_c, 0, 67, 67
2, 75712, Note_on_c, 0, 60, 0
2, 75719, Note_on_c, 0, 77, 0
2, 75725, Note_on_c, 0, 79, 0
2, 75770, Note_on_c, 0, 67, 0
2, 75796, Note_on_c, 0, 77, 98
2, 75799, Note_on_c, 0, 71, 0
2, 75804, Note_on_c, 0, 86, 101
2, 75835, Note_on_c, 0, 86, 0
2, 75840, Note_on_c, 0, 77, 0
2, 75871, Control_c, 0, 64, 0
2, 75936, Note_on_c, 0, 72, 97
2, 75941, Note_on_c, 0, 76, 63
2, 75950, Note_on_c, 0, 60, 72
2, 75989, Note_on_c, 0, 76, 0
2, 76010, Control_c, 0, 64, 127
2, 76036, Note_on_c, 0, 72, 0
2, 76056, Note_on_c, 0, 84, 93
2, 76058, Note_on_c, 0, 60, 0
2, 76066, Note_on_c, 0, 76, 80
2, 76092, Note_on_c, 0, 84, 0
2, 76105, Note_on_c, 0, 76, 0
2, 76164, Control_c, 0, 64, 0
2, 76209, Note_on_c, 0, 66, 91
2, 76219, Note_on_c, 0, 54, 80
2, 76219, Note_on_c, 0, 75, 66
2, 76220, Note_on_c, 0, 81, 101
2, 76259, Note_on_c, 0, 81, 0
2, 76267, Note_on_c, 0, 75, 0
2, 76300, Control_c, 0, 64, 127
2, 76315, Note_on_c, 0, 75, 88
2, 76322, Note_on_c, 0, 84, 87
2, 76351, Note_on_c, 0, 75, 0
2, 76356, Note_on_c, 0, 84, 0
2, 76358, Note_on_c, 0, 66, 0
2, 76370, Note_on_c, 0, 54, 0
2, 76454, Control_c, 0, 64, 0
2, 76462, Note_on_c, 0, 79, 71
2, 76464, Note_on_c, 0, 67, 99
2, 76466, Note_on_c, 0, 74, 91
2, 76476, Note_on_c, 0, 55, 84
2, 76500, Note_on_c, 0, 74, 0
2, 76514, Note_on_c, 0, 79, 0
2, 76555, Note_on_c, 0, 67, 0
2, 76560, Note_on_c, 0, 55, 0
2, 76562, Control_c, 0, 64, 127
2, 76584, Note_on_c, 0, 83, 79
2, 76591, Note_on_c, 0, 74, 63
2, 76615, Note_on_c, 0, 83, 0
2, 76634, Note_on_c, 0, 74, 0
2, 76701, Control_c, 0, 64, 0
2, 76702, Note_on_c, 0, 74, 42
2, 76706, Note_on_c, 0, 63, 84
2, 76706, Note_on_c, 0, 79, 91
2, 76711, Note_on_c, 0, 51, 90
2, 76754, Note_on_c, 0, 79, 0
2, 76762, Note_on_c, 0, 74, 0
2, 76816, Note_on_c, 0, 63, 0
2, 76819, Note_on_c, 0, 73, 93
2, 76824, Control_c, 0, 64, 127
2, 76826, Note_on_c, 0, 82, 87
2, 76833, Note_on_c, 0, 51, 0
2, 76855, Note_on_c, 0, 73, 0
2, 76867, Note_on_c, 0, 82, 0
2, 76963, Control_c, 0, 64, 0
2, 76972, Note_on_c, 0, 68, 94
2, 76975, Note_on_c, 0, 72, 39
2, 76984, Note_on_c, 0, 56, 81
2, 77035, Note_on_c, 0, 68, 0
2, 77038, Note_on_c, 0, 72, 0
2, 77068, Control_c, 0, 64, 127
2, 77078, Note_on_c, 0, 80, 80
2, 77088, Note_on_c, 0, 56, 0
2, 77095, Note_on_c, 0, 72, 51
2, 77119, Note_on_c, 0, 80, 0
2, 77143, Note_on_c, 0, 72, 0
2, 77198, Note_on_c, 0, 70, 97
2, 77200, Note_on_c, 0, 76, 75
2, 77215, Note_on_c, 0, 61, 87
2, 77224, Control_c, 0, 64, 0
2, 77224, Note_on_c, 0, 49, 85
2, 77254, Note_on_c, 0, 70, 0
2, 77255, Note_on_c, 0, 76, 0
2, 77311, Note_on_c, 0, 79, 97
2, 77319, Note_on_c, 0, 70, 97
2, 77330, Note_on_c, 0, 61, 0
2, 77342, Note_on_c, 0, 79, 0
2, 77344, Note_on_c, 0, 49, 0
2, 77347, Control_c, 0, 64, 127
2, 77350, Note_on_c, 0, 70, 0
2, 77469, Control_c, 0, 64, 0
2, 77476, Note_on_c, 0, 62, 91
2, 77486, Note_on_c, 0, 69, 91
2, 77488, Note_on_c, 0, 74, 71
2, 77493, Note_on_c, 0, 50, 83
2, 77520, Note_on_c, 0, 69, 0
2, 77532, Note_on_c, 0, 74, 0
2, 77577, Note_on_c, 0, 62, 0
2, 77577, Control_c, 0, 64, 127
2, 77587, Note_on_c, 0, 69, 71
2, 77589, Note_on_c, 0, 78, 72
2, 77618, Note_on_c, 0, 50, 0
2, 77632, Note_on_c, 0, 78, 0
2, 77635, Note_on_c, 0, 69, 0
2, 77706, Note_on_c, 0, 74, 79
2, 77712, Note_on_c, 0, 68, 90
2, 77721, Control_c, 0, 64, 0
2, 77721, Note_on_c, 0, 59, 81
2, 77724, Note_on_c, 0, 47, 84
2, 77750, Note_on_c, 0, 74, 0
2, 77767, Note_on_c, 0, 68, 0
2, 77820, Note_on_c, 0, 47, 0
2, 77822, Note_on_c, 0, 59, 0
2, 77824, Note_on_c, 0, 77, 94
2, 77829, Note_on_c, 0, 68, 84
2, 77839, Control_c, 0, 64, 127
2, 77856, Note_on_c, 0, 77, 0
2, 77868, Note_on_c, 0, 68, 0
2, 77971, Note_on_c, 0, 67, 86
2, 77975, Note_on_c, 0, 72, 78
2, 77976, Control_c, 0, 64, 0
2, 77976, Note_on_c, 0, 60, 96
2, 77983, Note_on_c, 0, 48, 92
2, 78012, Note_on_c, 0, 67, 0
2, 78042, Note_on_c, 0, 72, 0
2, 78069, Control_c, 0, 64, 127
2, 78074, Note_on_c, 0, 76, 97
2, 78076, Note_on_c, 0, 60, 0
2, 78081, Note_on_c, 0, 67, 77
2, 78098, Note_on_c, 0, 48, 0
2, 78108, Note_on_c, 0, 76, 0
2, 78129, Note_on_c, 0, 67, 0
2, 78192, Control_c, 0, 64, 0
2, 78201, Note_on_c, 0, 56, 92
2, 78204, Note_on_c, 0, 72, 94
2, 78208, Note_on_c, 0, 68, 88
2, 78213, Note_on_c, 0, 44, 82
2, 78252, Note_on_c, 0, 68, 0
2, 78259, Note_on_c, 0, 72, 0
2, 78312, Note_on_c, 0, 68, 93
2, 78314, Note_on_c, 0, 56, 0
2, 78331, Control_c, 0, 64, 127
2, 78331, Note_on_c, 0, 75, 73
2, 78367, Note_on_c, 0, 44, 0
2, 78369, Note_on_c, 0, 68, 0
2, 78374, Note_on_c, 0, 75, 0
2, 78436, Control_c, 0, 64, 0
2, 78444, Note_on_c, 0, 72, 81
2, 78451, Note_on_c, 0, 54, 81
2, 78453, Note_on_c, 0, 69, 78
2, 78456, Note_on_c, 0, 42, 81
2, 78499, Note_on_c, 0, 69, 0
2, 78544, Note_on_c, 0, 72, 0
2, 78561, Control_c, 0, 64, 127
2, 78564, Note_on_c, 0, 69, 91
2, 78566, Note_on_c, 0, 74, 73
2, 78583, Note_on_c, 0, 54, 0
2, 78588, Note_on_c, 0, 42, 0
2, 78597, Note_on_c, 0, 69, 0
2, 78607, Note_on_c, 0, 74, 0
2, 78684, Control_c, 0, 64, 0
2, 78705, Note_on_c, 0, 65, 93
2, 78708, Note_on_c, 0, 55, 91
2, 78712, Note_on_c, 0, 67, 67
2, 78712, Note_on_c, 0, 43, 89
2, 78746, Note_on_c, 0, 65, 0
2, 78758, Note_on_c, 0, 67, 0
2, 78806, Note_on_c, 0, 55, 0
2, 78806, Control_c, 0, 64, 127
2, 78811, Note_on_c, 0, 65, 95
2, 78828, Note_on_c, 0, 71, 78
2, 78864, Note_on_c, 0, 43, 0
2, 78866, Note_on_c, 0, 71, 0
2, 78878, Note_on_c, 0, 65, 0
2, 78960, Control_c, 0, 64, 0
2, 78976, Note_on_c, 0, 48, 103
2, 78979, Note_on_c, 0, 36, 101
2, 78981, Note_on_c, 0, 67, 88
2, 78981, Note_on_c, 0, 64, 84
2, 79020, Note_on_c, 0, 64, 0
2, 79044, Note_on_c, 0, 67, 0
2, 79089, Note_on_c, 0, 64, 89
2, 79094, Note_on_c, 0, 36, 0
2, 79095, Note_on_c, 0, 72, 85
2, 79113, Control_c, 0, 64, 127
2, 79116, Note_on_c, 0, 48, 0
2, 79133, Note_on_c, 0, 72, 0
2, 79159, Note_on_c, 0, 64, 0
2, 79221, Control_c, 0, 64, 0
2, 79255, Note_on_c, 0, 54, 100
2, 79257, Note_on_c, 0, 69, 74
2, 79262, Note_on_c, 0, 42, 89
2, 79264, Note_on_c, 0, 63, 70
2, 79312, Note_on_c, 0, 63, 0
2, 79358, Note_on_c, 0, 69, 0
2, 79368, Note_on_c, 0, 63, 91
2, 79375, Control_c, 0, 64, 127
2, 79377, Note_on_c, 0, 72, 93
2, 79404, Note_on_c, 0, 63, 0
2, 79413, Note_on_c, 0, 72, 0
2, 79435, Note_on_c, 0, 54, 0
2, 79444, Note_on_c, 0, 42, 0
2, 79528, Control_c, 0, 64, 0
2, 79528, Note_on_c, 0, 55, 101
2, 79533, Note_on_c, 0, 67, 80
2, 79536, Note_on_c, 0, 43, 91
2, 79538, Note_on_c, 0, 62, 79
2, 79579, Note_on_c, 0, 62, 0
2, 79593, Note_on_c, 0, 67, 0
2, 79636, Control_c, 0, 64, 127
2, 79656, Note_on_c, 0, 71, 68
2, 79658, Note_on_c, 0, 62, 73
2, 79677, Note_on_c, 0, 55, 0
2, 79689, Note_on_c, 0, 71, 0
2, 79718, Note_on_c, 0, 43, 0
2, 79725, Note_on_c, 0, 62, 0
2, 79776, Control_c, 0, 64, 0
2, 79783, Note_on_c, 0, 67, 81
2, 79785, Note_on_c, 0, 51, 97
2, 79785, Note_on_c, 0, 61, 80
2, 79792, Note_on_c, 0, 39, 92
2, 79838, Note_on_c, 0, 61, 0
2, 79838, Note_on_c, 0, 67, 0
2, 79891, Note_on_c, 0, 70, 89
2, 79898, Note_on_c, 0, 61, 79
2, 79905, Note_on_c, 0, 39, 0
2, 79912, Control_c, 0, 64, 127
2, 79915, Note_on_c, 0, 51, 0
2, 79932, Note_on_c, 0, 70, 0
2, 79934, Note_on_c, 0, 61, 0
2, 80020, Control_c, 0, 64, 0
2, 80040, Note_on_c, 0, 63, 68
2, 80040, Note_on_c, 0, 56, 92
2, 80043, Note_on_c, 0, 60, 86
2, 80049, Note_on_c, 0, 44, 82
2, 80081, Note_on_c, 0, 60, 0
2, 80119, Note_on_c, 0, 63, 0
2, 80131, Note_on_c, 0, 56, 0
2, 80136, Note_on_c, 0, 60, 70
2, 80143, Control_c, 0, 64, 127
2, 80148, Note_on_c, 0, 68, 70
2, 80179, Note_on_c, 0, 44, 0
2, 80186, Note_on_c, 0, 60, 0
2, 80191, Note_on_c, 0, 68, 0
2, 80256, Note_on_c, 0, 58, 98
2, 80263, Note_on_c, 0, 49, 99
2, 80265, Control_c, 0, 64, 0
2, 80277, Note_on_c, 0, 37, 83
2, 80277, Note_on_c, 0, 64, 72
2, 80323, Note_on_c, 0, 58, 0
2, 80356, Note_on_c, 0, 64, 0
2, 80366, Note_on_c, 0, 58, 80
2, 80380, Note_on_c, 0, 67, 85
2, 80388, Note_on_c, 0, 49, 0
2, 80390, Control_c, 0, 64, 127
2, 80407, Note_on_c, 0, 37, 0
2, 80416, Note_on_c, 0, 58, 0
2, 80416, Note_on_c, 0, 67, 0
2, 80496, Control_c, 0, 64, 0
2, 80520, Note_on_c, 0, 57, 90
2, 80524, Note_on_c, 0, 50, 98
2, 80527, Note_on_c, 0, 62, 75
2, 80532, Note_on_c, 0, 38, 92
2, 80556, Note_on_c, 0, 57, 0
2, 80577, Note_on_c, 0, 62, 0
2, 80613, Note_on_c, 0, 50, 0
2, 80618, Note_on_c, 0, 57, 97
2, 80620, Control_c, 0, 64, 127
2, 80637, Note_on_c, 0, 66, 84
2, 80656, Note_on_c, 0, 38, 0
2, 80673, Note_on_c, 0, 66, 0
2, 80707, Note_on_c, 0, 57, 0
2, 80743, Control_c, 0, 64, 0
2, 80745, Note_on_c, 0, 47, 89
2, 80748, Note_on_c, 0, 35, 91
2, 80752, Note_on_c, 0, 62, 72
2, 80755, Note_on_c, 0, 56, 88
2, 80812, Note_on_c, 0, 56, 0
2, 80827, Note_on_c, 0, 62, 0
2, 80834, Note_on_c, 0, 47, 0
2, 80848, Note_on_c, 0, 35, 0
2, 80851, Control_c, 0, 64, 127
2, 80865, Note_on_c, 0, 65, 89
2, 80865, Note_on_c, 0, 56, 77
2, 80901, Note_on_c, 0, 56, 0
2, 80901, Note_on_c, 0, 65, 0
2, 80988, Control_c, 0, 64, 0
2, 80990, Note_on_c, 0, 48, 103
2, 80995, Note_on_c, 0, 36, 96
2, 81008, Note_on_c, 0, 55, 81
2, 81056, Note_on_c, 0, 55, 0
2, 81081, Note_on_c, 0, 48, 0
2, 81096, Control_c, 0, 64, 127
2, 81096, Note_on_c, 0, 64, 100
2, 81127, Note_on_c, 0, 36, 0
2, 81146, Note_on_c, 0, 64, 0
2, 81148, Note_on_c, 0, 55, 60
2, 81192, Note_on_c, 0, 55, 0
2, 81218, Control_c, 0, 64, 0
2, 81220, Note_on_c, 0, 44, 98
2, 81230, Note_on_c, 0, 32, 92
2, 81235, Note_on_c, 0, 60, 84
2, 81249, Note_on_c, 0, 56, 72
2, 81283, Note_on_c, 0, 60, 0
2, 81302, Note_on_c, 0, 56, 0
2, 81326, Control_c, 0, 64, 127
2, 81333, Note_on_c, 0, 44, 0
2, 81350, Note_on_c, 0, 56, 92
2, 81364, Note_on_c, 0, 63, 86
2, 81393, Note_on_c, 0, 56, 0
2, 81393, Note_on_c, 0, 32, 0
2, 81410, Note_on_c, 0, 63, 0
2, 81448, Control_c, 0, 64, 0
2, 81465, Note_on_c, 0, 42, 86
2, 81468, Note_on_c, 0, 60, 73
2, 81474, Note_on_c, 0, 57, 75
2, 81475, Note_on_c, 0, 30, 86
2, 81530, Note_on_c, 0, 57, 0
2, 81540, Note_on_c, 0, 60, 0
2, 81573, Control_c, 0, 64, 127
2, 81607, Note_on_c, 0, 30, 0
2, 81608, Note_on_c, 0, 62, 73
2, 81609, Note_on_c, 0, 57, 75
2, 81612, Note_on_c, 0, 42, 0
2, 81665, Note_on_c, 0, 57, 0
2, 81680, Note_on_c, 0, 62, 0
2, 81696, Control_c, 0, 64, 0
2, 81700, Note_on_c, 0, 43, 95
2, 81703, Note_on_c, 0, 31, 101
2, 81712, Note_on_c, 0, 55, 94
2, 81719, Note_on_c, 0, 53, 77
2, 81795, Note_on_c, 0, 53, 0
2, 81815, Note_on_c, 0, 55, 0
2, 81818, Control_c, 0, 64, 127
2, 81828, Note_on_c, 0, 59, 75
2, 81830, Note_on_c, 0, 43, 0
2, 81834, Note_on_c, 0, 53, 77
2, 81842, Note_on_c, 0, 31, 0
2, 81861, Note_on_c, 0, 59, 0
2, 81880, Note_on_c, 0, 53, 0
2, 81926, Control_c, 0, 64, 0
2, 81962, Note_on_c, 0, 55, 89
2, 81962, Note_on_c, 0, 43, 87
2, 81962, Note_on_c, 0, 36, 94
2, 81967, Note_on_c, 0, 52, 84
2, 82010, Note_on_c, 0, 52, 0
2, 82065, Note_on_c, 0, 55, 0
2, 82072, Note_on_c, 0, 52, 75
2, 82089, Note_on_c, 0, 60, 68
2, 82108, Note_on_c, 0, 52, 0
2, 82140, Note_on_c, 0, 60, 0
2, 82195, Note_on_c, 0, 53, 84
2, 82197, Note_on_c, 0, 57, 75
2, 82233, Control_c, 0, 64, 127
2, 82238, Note_on_c, 0, 53, 0
2, 82243, Note_on_c, 0, 57, 0
2, 82317, Note_on_c, 0, 62, 92
2, 82323, Note_on_c, 0, 53, 92
2, 82365, Note_on_c, 0, 62, 0
2, 82390, Note_on_c, 0, 53, 0
2, 82418, Control_c, 0, 64, 0
2, 82441, Note_on_c, 0, 59, 70
2, 82444, Note_on_c, 0, 55, 50
2, 82495, Control_c, 0, 64, 127
2, 82496, Note_on_c, 0, 59, 0
2, 82505, Note_on_c, 0, 55, 0
2, 82545, Note_on_c, 0, 64, 104
2, 82554, Note_on_c, 0, 55, 50
2, 82584, Note_on_c, 0, 64, 0
2, 82615, Note_on_c, 0, 55, 0
2, 82634, Control_c, 0, 64, 0
2, 82680, Note_on_c, 0, 57, 92
2, 82683, Note_on_c, 0, 60, 55
2, 82706, Note_on_c, 0, 43, 0
2, 82711, Note_on_c, 0, 36, 0
2, 82735, Note_on_c, 0, 57, 0
2, 82748, Note_on_c, 0, 60, 0
2, 82771, Control_c, 0, 64, 127
2, 82778, Note_on_c, 0, 65, 108
2, 82783, Note_on_c, 0, 57, 73
2, 82812, Note_on_c, 0, 65, 0
2, 82833, Note_on_c, 0, 57, 0
2, 82848, Control_c, 0, 64, 0
2, 82924, Note_on_c, 0, 53, 88
2, 82925, Note_on_c, 0, 57, 37
2, 82956, Control_c, 0, 64, 127
2, 82972, Note_on_c, 0, 53, 0
2, 82980, Note_on_c, 0, 57, 0
2, 83025, Note_on_c, 0, 53, 72
2, 83025, Note_on_c, 0, 62, 84
2, 83047, Control_c, 0, 64, 0
2, 83066, Note_on_c, 0, 53, 0
2, 83078, Note_on_c, 0, 62, 0
2, 83143, Note_on_c, 0, 43, 95
2, 83148, Note_on_c, 0, 31, 99
2, 83162, Note_on_c, 0, 55, 80
2, 83167, Note_on_c, 0, 59, 65
2, 83200, Control_c, 0, 64, 127
2, 83205, Note_on_c, 0, 55, 0
2, 83224, Note_on_c, 0, 59, 0
2, 83236, Note_on_c, 0, 43, 0
2, 83253, Note_on_c, 0, 31, 0
2, 83263, Note_on_c, 0, 64, 97
2, 83270, Note_on_c, 0, 55, 90
2, 83292, Note_on_c, 0, 64, 0
2, 83316, Note_on_c, 0, 55, 0
2, 83385, Note_on_c, 0, 36, 110
2, 83385, Note_on_c, 0, 43, 105
2, 83395, Note_on_c, 0, 55, 73
2, 83400, Note_on_c, 0, 52, 37
2, 83456, Note_on_c, 0, 52, 0
2, 83503, Note_on_c, 0, 55, 0
2, 83511, Note_on_c, 0, 52, 37
2, 83512, Note_on_c, 0, 60, 94
2, 83553, Note_on_c, 0, 60, 0
2, 83556, Control_c, 0, 64, 0
2, 83567, Note_on_c, 0, 52, 0
2, 83634, Note_on_c, 0, 53, 30
2, 83635, Note_on_c, 0, 57, 72
2, 83694, Note_on_c, 0, 53, 0
2, 83697, Note_on_c, 0, 57, 0
2, 83712, Control_c, 0, 64, 127
2, 83748, Note_on_c, 0, 62, 97
2, 83755, Note_on_c, 0, 53, 71
2, 83786, Note_on_c, 0, 62, 0
2, 83793, Note_on_c, 0, 53, 0
2, 83817, Control_c, 0, 64, 0
2, 83882, Note_on_c, 0, 55, 74
2, 83883, Note_on_c, 0, 59, 21
2, 83908, Control_c, 0, 64, 127
2, 83925, Note_on_c, 0, 55, 0
2, 83943, Note_on_c, 0, 59, 0
2, 83978, Note_on_c, 0, 55, 103
2, 83990, Note_on_c, 0, 64, 95
2, 84021, Note_on_c, 0, 55, 0
2, 84031, Control_c, 0, 64, 0
2, 84038, Note_on_c, 0, 64, 0
2, 84096, Note_on_c, 0, 43, 0
2, 84104, Note_on_c, 0, 60, 48
2, 84112, Note_on_c, 0, 57, 76
2, 84122, Note_on_c, 0, 36, 0
2, 84153, Note_on_c, 0, 57, 0
2, 84153, Control_c, 0, 64, 127
2, 84164, Note_on_c, 0, 60, 0
2, 84208, Note_on_c, 0, 57, 97
2, 84211, Note_on_c, 0, 65, 103
2, 84244, Note_on_c, 0, 65, 0
2, 84247, Control_c, 0, 64, 0
2, 84268, Note_on_c, 0, 57, 0
2, 84340, Note_on_c, 0, 57, 90
2, 84345, Note_on_c, 0, 53, 90
2, 84369, Control_c, 0, 64, 127
2, 84393, Note_on_c, 0, 53, 0
2, 84444, Note_on_c, 0, 62, 94
2, 84453, Note_on_c, 0, 57, 0
2, 84453, Note_on_c, 0, 53, 88
2, 84477, Control_c, 0, 64, 0
2, 84492, Note_on_c, 0, 53, 0
2, 84492, Note_on_c, 0, 62, 0
2, 84578, Note_on_c, 0, 43, 98
2, 84583, Note_on_c, 0, 31, 98
2, 84588, Note_on_c, 0, 59, 67
2, 84588, Note_on_c, 0, 55, 73
2, 84624, Note_on_c, 0, 31, 0
2, 84628, Note_on_c, 0, 43, 0
2, 84631, Note_on_c, 0, 55, 0
2, 84692, Note_on_c, 0, 64, 103
2, 84693, Note_on_c, 0, 59, 0
2, 84693, Note_on_c, 0, 55, 79
2, 84723, Note_on_c, 0, 64, 0
2, 84736, Note_on_c, 0, 55, 0
2, 84784, Control_c, 0, 64, 127
2, 84808, Note_on_c, 0, 36, 106
2, 84808, Note_on_c, 0, 55, 83
2, 84813, Note_on_c, 0, 43, 95
2, 84818, Note_on_c, 0, 52, 97
2, 84830, Control_c, 0, 64, 0
2, 84854, Note_on_c, 0, 52, 0
2, 84866, Note_on_c, 0, 43, 0
2, 84885, Note_on_c, 0, 36, 0
2, 84907, Note_on_c, 0, 55, 0
2, 84919, Note_on_c, 0, 60, 91
2, 84919, Note_on_c, 0, 52, 82
2, 84960, Note_on_c, 0, 60, 0
2, 84967, Note_on_c, 0, 52, 0
2, 84969, Control_c, 0, 64, 127
2, 85029, Control_c, 0, 64, 0
2, 85048, Note_on_c, 0, 43, 85
2, 85050, Note_on_c, 0, 55, 37
2, 85051, Note_on_c, 0, 53, 70
2, 85053, Note_on_c, 0, 35, 80
2, 85096, Note_on_c, 0, 35, 0
2, 85096, Note_on_c, 0, 53, 0
2, 85096, Note_on_c, 0, 43, 0
2, 85115, Note_on_c, 0, 55, 0
2, 85149, Note_on_c, 0, 62, 92
2, 85154, Note_on_c, 0, 53, 89
2, 85185, Control_c, 0, 64, 127
2, 85188, Note_on_c, 0, 62, 0
2, 85204, Note_on_c, 0, 53, 0
2, 85231, Control_c, 0, 64, 0
2, 85284, Note_on_c, 0, 52, 87
2, 85288, Note_on_c, 0, 55, 69
2, 85288, Note_on_c, 0, 36, 89
2, 85293, Note_on_c, 0, 43, 75
2, 85322, Note_on_c, 0, 52, 0
2, 85324, Note_on_c, 0, 36, 0
2, 85336, Note_on_c, 0, 43, 0
2, 85344, Note_on_c, 0, 55, 0
2, 85387, Note_on_c, 0, 52, 96
2, 85392, Note_on_c, 0, 60, 89
2, 85435, Note_on_c, 0, 60, 0
2, 85444, Note_on_c, 0, 52, 0
2, 85512, Note_on_c, 0, 43, 90
2, 85516, Note_on_c, 0, 35, 86
2, 85521, Note_on_c, 0, 53, 83
2, 85531, Note_on_c, 0, 55, 72
2, 85564, Note_on_c, 0, 53, 0
2, 85569, Control_c, 0, 64, 127
2, 85572, Note_on_c, 0, 55, 0
2, 85572, Note_on_c, 0, 35, 0
2, 85591, Note_on_c, 0, 43, 0
2, 85598, Control_c, 0, 64, 0
2, 85622, Note_on_c, 0, 53, 90
2, 85629, Note_on_c, 0, 62, 92
2, 85665, Note_on_c, 0, 62, 0
2, 85672, Note_on_c, 0, 53, 0
2, 85752, Control_c, 0, 64, 127
2, 85754, Note_on_c, 0, 43, 81
2, 85761, Note_on_c, 0, 36, 89
2, 85766, Note_on_c, 0, 55, 24
2, 85771, Note_on_c, 0, 52, 70
2, 85783, Control_c, 0, 64, 0
2, 85804, Note_on_c, 0, 36, 0
2, 85807, Note_on_c, 0, 43, 0
2, 85812, Note_on_c, 0, 52, 0
2, 85831, Note_on_c, 0, 55, 0
2, 85869, Note_on_c, 0, 60, 89
2, 85876, Note_on_c, 0, 52, 81
2, 85910, Note_on_c, 0, 60, 0
2, 85915, Note_on_c, 0, 52, 0
2, 85922, Control_c, 0, 64, 127
2, 85982, Control_c, 0, 64, 0
2, 85999, Note_on_c, 0, 53, 65
2, 86001, Note_on_c, 0, 55, 24
2, 86006, Note_on_c, 0, 35, 67
2, 86011, Note_on_c, 0, 43, 64
2, 86042, Note_on_c, 0, 35, 0
2, 86047, Note_on_c, 0, 53, 0
2, 86054, Note_on_c, 0, 43, 0
2, 86058, Note_on_c, 0, 55, 0
2, 86095, Note_on_c, 0, 62, 93
2, 86101, Note_on_c, 0, 53, 71
2, 86121, Control_c, 0, 64, 127
2, 86128, Note_on_c, 0, 62, 0
2, 86152, Control_c, 0, 64, 0
2, 86154, Note_on_c, 0, 53, 0
2, 86222, Note_on_c, 0, 43, 92
2, 86224, Note_on_c, 0, 36, 101
2, 86236, Note_on_c, 0, 52, 81
2, 86241, Note_on_c, 0, 55, 78
2, 86280, Note_on_c, 0, 52, 0
2, 86306, Control_c, 0, 64, 127
2, 86313, Note_on_c, 0, 36, 0
2, 86318, Note_on_c, 0, 43, 0
2, 86332, Note_on_c, 0, 60, 92
2, 86347, Note_on_c, 0, 55, 0
2, 86349, Note_on_c, 0, 52, 84
2, 86352, Control_c, 0, 64, 0
2, 86388, Note_on_c, 0, 52, 0
2, 86404, Note_on_c, 0, 60, 0
2, 86462, Note_on_c, 0, 53, 76
2, 86469, Note_on_c, 0, 55, 59
2, 86474, Note_on_c, 0, 35, 74
2, 86476, Note_on_c, 0, 43, 84
2, 86505, Control_c, 0, 64, 127
2, 86510, Note_on_c, 0, 53, 0
2, 86512, Note_on_c, 0, 35, 0
2, 86520, Note_on_c, 0, 43, 0
2, 86532, Note_on_c, 0, 55, 0
2, 86568, Control_c, 0, 64, 0
2, 86568, Note_on_c, 0, 62, 94
2, 86570, Note_on_c, 0, 53, 88
2, 86608, Note_on_c, 0, 62, 0
2, 86628, Note_on_c, 0, 53, 0
2, 86685, Note_on_c, 0, 43, 86
2, 86692, Note_on_c, 0, 36, 97
2, 86704, Control_c, 0, 64, 127
2, 86709, Note_on_c, 0, 52, 85
2, 86714, Note_on_c, 0, 55, 58
2, 86731, Note_on_c, 0, 36, 0
2, 86743, Note_on_c, 0, 43, 0
2, 86752, Note_on_c, 0, 52, 0
2, 86752, Control_c, 0, 64, 0
2, 86808, Note_on_c, 0, 60, 94
2, 86827, Note_on_c, 0, 55, 0
2, 86841, Note_on_c, 0, 52, 59
2, 86846, Note_on_c, 0, 60, 0
2, 86887, Note_on_c, 0, 52, 0
2, 86889, Control_c, 0, 64, 127
2, 86925, Note_on_c, 0, 43, 86
2, 86928, Note_on_c, 0, 53, 91
2, 86928, Note_on_c, 0, 35, 80
2, 86930, Note_on_c, 0, 55, 74
2, 86952, Control_c, 0, 64, 0
2, 86966, Note_on_c, 0, 35, 0
2, 86973, Note_on_c, 0, 43, 0
2, 86973, Note_on_c, 0, 53, 0
2, 87026, Note_on_c, 0, 55, 0
2, 87043, Note_on_c, 0, 62, 96
2, 87045, Note_on_c, 0, 53, 89
2, 87081, Note_on_c, 0, 62, 0
2, 87091, Note_on_c, 0, 53, 0
2, 87105, Control_c, 0, 64, 127
2, 87151, Control_c, 0, 64, 0
2, 87153, Note_on_c, 0, 43, 84
2, 87156, Note_on_c, 0, 36, 97
2, 87172, Note_on_c, 0, 55, 69
2, 87172, Note_on_c, 0, 52, 91
2, 87194, Note_on_c, 0, 36, 0
2, 87201, Note_on_c, 0, 43, 0
2, 87213, Note_on_c, 0, 52, 0
2, 87266, Note_on_c, 0, 60, 96
2, 87267, Note_on_c, 0, 52, 77
2, 87275, Note_on_c, 0, 55, 0
2, 87290, Control_c, 0, 64, 127
2, 87306, Note_on_c, 0, 52, 0
2, 87307, Note_on_c, 0, 60, 0
2, 87336, Control_c, 0, 64, 0
2, 87381, Note_on_c, 0, 43, 79
2, 87381, Note_on_c, 0, 35, 82
2, 87393, Note_on_c, 0, 53, 74
2, 87393, Note_on_c, 0, 55, 74
2, 87417, Note_on_c, 0, 35, 0
2, 87422, Note_on_c, 0, 43, 0
2, 87453, Note_on_c, 0, 53, 0
2, 87453, Note_on_c, 0, 55, 0
2, 87489, Control_c, 0, 64, 127
2, 87499, Note_on_c, 0, 53, 91
2, 87503, Note_on_c, 0, 62, 91
2, 87533, Note_on_c, 0, 53, 0
2, 87537, Note_on_c, 0, 62, 0
2, 87622, Note_on_c, 0, 52, 98
2, 87626, Note_on_c, 0, 60, 85
2, 87628, Note_on_c, 0, 36, 101
2, 87633, Note_on_c, 0, 43, 95
2, 87701, Note_on_c, 0, 52, 0
2, 87712, Note_on_c, 0, 60, 0
2, 87839, Note_on_c, 0, 60, 81
2, 87842, Control_c, 0, 64, 0
2, 87847, Note_on_c, 0, 52, 97
2, 87885, Note_on_c, 0, 52, 0
2, 87894, Note_on_c, 0, 60, 0
2, 87967, Note_on_c, 0, 52, 77
2, 88003, Note_on_c, 0, 52, 0
2, 88027, Control_c, 0, 64, 127
2, 88072, Note_on_c, 0, 55, 82
2, 88089, Note_on_c, 0, 64, 87
2, 88104, Control_c, 0, 64, 0
2, 88111, Note_on_c, 0, 55, 0
2, 88135, Note_on_c, 0, 64, 0
2, 88183, Note_on_c, 0, 55, 83
2, 88243, Control_c, 0, 64, 127
2, 88260, Note_on_c, 0, 55, 0
2, 88312, Note_on_c, 0, 60, 83
2, 88317, Note_on_c, 0, 67, 87
2, 88320, Control_c, 0, 64, 0
2, 88353, Note_on_c, 0, 60, 0
2, 88368, Note_on_c, 0, 67, 0
2, 88408, Note_on_c, 0, 60, 91
2, 88425, Note_on_c, 0, 36, 0
2, 88428, Control_c, 0, 64, 127
2, 88461, Note_on_c, 0, 60, 0
2, 88471, Note_on_c, 0, 43, 0
2, 88533, Note_on_c, 0, 64, 78
2, 88550, Note_on_c, 0, 72, 72
2, 88567, Note_on_c, 0, 64, 0
2, 88605, Note_on_c, 0, 72, 0
2, 88651, Note_on_c, 0, 64, 79
2, 88701, Note_on_c, 0, 64, 0
2, 88771, Note_on_c, 0, 67, 72
2, 88778, Note_on_c, 0, 76, 91
2, 88812, Note_on_c, 0, 67, 0
2, 88826, Control_c, 0, 64, 0
2, 88862, Note_on_c, 0, 76, 0
2, 88872, Note_on_c, 0, 67, 100
2, 88886, Note_on_c, 0, 48, 86
2, 88936, Note_on_c, 0, 67, 0
2, 88946, Note_on_c, 0, 55, 66
2, 88996, Control_c, 0, 64, 127
2, 88999, Note_on_c, 0, 72, 88
2, 88999, Note_on_c, 0, 79, 97
2, 89016, Note_on_c, 0, 64, 97
2, 89035, Note_on_c, 0, 72, 0
2, 89042, Note_on_c, 0, 48, 0
2, 89047, Note_on_c, 0, 79, 0
2, 89107, Note_on_c, 0, 72, 92
2, 89143, Note_on_c, 0, 72, 0
2, 89186, Note_on_c, 0, 55, 0
2, 89193, Note_on_c, 0, 64, 0
2, 89229, Note_on_c, 0, 84, 98
2, 89230, Note_on_c, 0, 76, 46
2, 89290, Note_on_c, 0, 76, 0
2, 89316, Note_on_c, 0, 84, 0
2, 89361, Note_on_c, 0, 76, 84
2, 89397, Note_on_c, 0, 76, 0
2, 89474, Note_on_c, 0, 88, 62
2, 89476, Note_on_c, 0, 79, 55
2, 89527, Note_on_c, 0, 79, 0
2, 89536, Note_on_c, 0, 88, 0
2, 89599, Note_on_c, 0, 79, 59
2, 89644, Note_on_c, 0, 79, 0
2, 89697, Note_on_c, 0, 91, 96
2, 89709, Note_on_c, 0, 84, 56
2, 89743, Note_on_c, 0, 91, 0
2, 89755, Note_on_c, 0, 84, 0
2, 89834, Note_on_c, 0, 84, 56
2, 89880, Note_on_c, 0, 84, 0
2, 89916, Note_on_c, 0, 96, 104
2, 89931, Note_on_c, 0, 88, 104
2, 89961, Note_on_c, 0, 96, 0
2, 89976, Note_on_c, 0, 88, 0
2, 90033, Note_on_c, 0, 88, 87
2, 90067, Note_on_c, 0, 88, 0
2, 90129, Note_on_c, 0, 100, 106
2, 90143, Note_on_c, 0, 91, 22
2, 90172, Note_on_c, 0, 100, 0
2, 90193, Note_on_c, 0, 91, 0
2, 90420, Note_on_c, 0, 91, 43
2, 90436, Note_on_c, 0, 100, 86
2, 90465, Note_on_c, 0, 60, 64
2, 90472, Note_on_c, 0, 100, 0
2, 90484, Note_on_c, 0, 67, 82
2, 90511, Note_on_c, 0, 60, 0
2, 90530, Note_on_c, 0, 67, 0
2, 90559, Note_on_c, 0, 84, 116
2, 90571, Note_on_c, 0, 76, 108
2, 90600, Note_on_c, 0, 76, 0
2, 90828, Note_on_c, 0, 91, 0
2, 90967, Note_on_c, 0, 84, 0
2, 91358, Note_on_c, 0, 72, 108
2, 91360, Note_on_c, 0, 88, 112
2, 91363, Note_on_c, 0, 79, 101
2, 91363, Note_on_c, 0, 84, 105
2, 91364, Note_on_c, 0, 67, 89
2, 91365, Note_on_c, 0, 76, 108
2, 91365, Note_on_c, 0, 60, 98
2, 91512, Note_on_c, 0, 60, 0
2, 91524, Note_on_c, 0, 67, 0
2, 91548, Note_on_c, 0, 72, 0
2, 91586, Note_on_c, 0, 88, 0
2, 91668, Note_on_c, 0, 76, 0
2, 91692, Note_on_c, 0, 84, 0
2, 91723, Note_on_c, 0, 79, 0
2, 92366, Note_on_c, 0, 60, 117
2, 92367, Note_on_c, 0, 36, 74
2, 92371, Note_on_c, 0, 48, 81
2, 94658, Note_on_c, 0, 48, 0
2, 94724, Note_on_c, 0, 36, 0
2, 94732, Note_on_c, 0, 60, 0
2, 94804, Control_c, 0, 64, 0
2, 94804, End_track
0, 0, End_of_file
