0, 0, Header, 1, 2, 480
1, 0, Start_track
1, 0, Time_signature, 4, 2, 24, 8
1, 0, Key_signature, 0, "major"
1, 0, Tempo, 500000
1, 0, End_track
2, 0, Start_track
2, 0, MIDI_port, 0
2, 0, Control_c, 0, 64, 127
2, 895, Note_on_c, 0, 55, 81
2, 895, Note_on_c, 0, 67, 96
2, 897, Note_on_c, 0, 63, 69
2, 904, Note_on_c, 0, 60, 76
2, 909, Note_on_c, 0, 48, 64
2, 919, Note_on_c, 0, 36, 62
2, 1188, Control_c, 0, 64, 0
2, 1634, Control_c, 0, 64, 127
2, 1888, Note_on_c, 0, 60, 0
2, 1953, Note_on_c, 0, 55, 0
2, 2042, Note_on_c, 0, 48, 0
2, 2059, Note_on_c, 0, 67, 0
2, 2124, Note_on_c, 0, 36, 0
2, 2131, Note_on_c, 0, 63, 0
2, 2371, Note_on_c, 0, 68, 97
2, 2373, Note_on_c, 0, 56, 86
2, 2388, Note_on_c, 0, 63, 82
2, 2392, Note_on_c, 0, 41, 68
2, 2392, Note_on_c, 0, 60, 87
2, 2395, Note_on_c, 0, 29, 75
2, 2618, Control_c, 0, 64, 0
2, 3064, Control_c, 0, 64, 127
2, 3208, Note_on_c, 0, 60, 0
2, 3379, Note_on_c, 0, 63, 0
2, 3460, Note_on_c, 0, 56, 0
2, 3571, Note_on_c, 0, 29, 0
2, 3602, Note_on_c, 0, 41, 0
2, 3657, Note_on_c, 0, 68, 0
2, 3768, Note_on_c, 0, 67, 101
2, 3770, Note_on_c, 0, 55, 77
2, 3777, Note_on_c, 0, 63, 73
2, 3780, Note_on_c, 0, 43, 72
2, 3782, Note_on_c, 0, 59, 64
2, 3789, Note_on_c, 0, 31, 75
2, 3924, Control_c, 0, 64, 0
2, 4461, Control_c, 0, 64, 127
2, 4845, Note_on_c, 0, 67, 0
2, 4862, Note_on_c, 0, 59, 0
2, 4936, Note_on_c, 0, 63, 0
2, 4939, Note_on_c, 0, 31, 0
2, 4977, Note_on_c, 0, 55, 0
2, 5016, Note_on_c, 0, 65, 88
2, 5018, Note_on_c, 0, 62, 81
2, 5040, Note_on_c, 0, 43, 0
2, 5061, Note_on_c, 0, 62, 0
2, 5097, Note_on_c, 0, 65, 0
2, 5356, Note_on_c, 0, 63, 79
2, 5364, Note_on_c, 0, 51, 72
2, 5371, Note_on_c, 0, 48, 59
2, 5373, Note_on_c, 0, 60, 64
2, 5376, Note_on_c, 0, 55, 65
2, 5385, Note_on_c, 0, 36, 48
2, 5407, Note_on_c, 0, 43, 39
2, 5553, Control_c, 0, 64, 0
2, 6076, Control_c, 0, 64, 127
2, 6285, Note_on_c, 0, 60, 0
2, 6511, Note_on_c, 0, 55, 0
2, 6607, Note_on_c, 0, 48, 0
2, 6612, Note_on_c, 0, 43, 0
2, 6626, Note_on_c, 0, 51, 0
2, 6631, Note_on_c, 0, 63, 0
2, 6676, Note_on_c, 0, 36, 0
2, 7041, Note_on_c, 0, 63, 90
2, 7046, Note_on_c, 0, 51, 80
2, 7051, Note_on_c, 0, 44, 72
2, 7053, Note_on_c, 0, 56, 75
2, 7056, Note_on_c, 0, 60, 86
2, 7063, Note_on_c, 0, 32, 69
2, 7214, Control_c, 0, 64, 0
2, 7720, Control_c, 0, 64, 127
2, 7936, Note_on_c, 0, 56, 0
2, 7941, Note_on_c, 0, 44, 0
2, 7970, Note_on_c, 0, 60, 0
2, 7987, Note_on_c, 0, 51, 0
2, 8061, Note_on_c, 0, 63, 0
2, 8284, Note_on_c, 0, 32, 0
2, 8419, Note_on_c, 0, 65, 100
2, 8421, Note_on_c, 0, 53, 79
2, 8421, Note_on_c, 0, 56, 76
2, 8428, Note_on_c, 0, 61, 80
2, 8438, Note_on_c, 0, 37, 78
2, 8443, Note_on_c, 0, 25, 87
2, 8596, Control_c, 0, 64, 0
2, 9043, Control_c, 0, 64, 127
2, 9124, Note_on_c, 0, 53, 0
2, 9264, Note_on_c, 0, 65, 0
2, 9388, Note_on_c, 0, 37, 0
2, 9410, Note_on_c, 0, 61, 0
2, 9508, Note_on_c, 0, 56, 0
2, 9748, Note_on_c, 0, 25, 0
2, 9842, Note_on_c, 0, 63, 85
2, 9849, Note_on_c, 0, 51, 50
2, 9856, Note_on_c, 0, 49, 81
2, 9856, Note_on_c, 0, 39, 69
2, 9859, Note_on_c, 0, 60, 76
2, 9868, Note_on_c, 0, 27, 61
2, 9878, Note_on_c, 0, 55, 63
2, 10010, Control_c, 0, 64, 0
2, 10488, Control_c, 0, 64, 127
2, 10778, Note_on_c, 0, 63, 0
2, 10795, Note_on_c, 0, 55, 0
2, 10833, Note_on_c, 0, 27, 0
2, 10946, Note_on_c, 0, 60, 0
2, 10948, Note_on_c, 0, 51, 0
2, 11097, Note_on_c, 0, 61, 72
2, 11109, Note_on_c, 0, 58, 63
2, 11193, Note_on_c, 0, 58, 0
2, 11193, Note_on_c, 0, 49, 0
2, 11268, Note_on_c, 0, 61, 0
2, 11464, Note_on_c, 0, 51, 59
2, 11467, Note_on_c, 0, 48, 55
2, 11474, Note_on_c, 0, 56, 56
2, 11476, Note_on_c, 0, 44, 38
2, 11479, Note_on_c, 0, 60, 74
2, 11481, Note_on_c, 0, 32, 43
2, 11520, Note_on_c, 0, 39, 0
2, 11640, Control_c, 0, 64, 0
2, 12177, Control_c, 0, 64, 127
2, 12693, Note_on_c, 0, 48, 0
2, 12720, Note_on_c, 0, 51, 0
2, 12780, Note_on_c, 0, 56, 0
2, 12794, Note_on_c, 0, 60, 0
2, 12873, Note_on_c, 0, 44, 0
2, 12945, Note_on_c, 0, 32, 0
2, 13113, Note_on_c, 0, 62, 95
2, 13116, Note_on_c, 0, 53, 75
2, 13120, Note_on_c, 0, 50, 88
2, 13123, Note_on_c, 0, 59, 76
2, 13130, Note_on_c, 0, 43, 74
2, 13132, Note_on_c, 0, 31, 75
2, 13360, Control_c, 0, 64, 0
2, 13776, Control_c, 0, 64, 127
2, 13956, Note_on_c, 0, 53, 0
2, 13994, Note_on_c, 0, 43, 0
2, 14090, Note_on_c, 0, 59, 0
2, 14114, Note_on_c, 0, 50, 0
2, 14124, Note_on_c, 0, 62, 0
2, 14157, Note_on_c, 0, 31, 0
2, 14320, Note_on_c, 0, 64, 102
2, 14325, Note_on_c, 0, 60, 80
2, 14328, Note_on_c, 0, 24, 92
2, 14330, Note_on_c, 0, 52, 87
2, 14330, Note_on_c, 0, 55, 73
2, 14332, Note_on_c, 0, 36, 83
2, 14335, Note_on_c, 0, 58, 85
2, 14575, Control_c, 0, 64, 0
2, 15184, Note_on_c, 0, 52, 0
2, 15189, Control_c, 0, 64, 127
2, 15235, Note_on_c, 0, 55, 0
2, 15242, Note_on_c, 0, 24, 0
2, 15292, Note_on_c, 0, 58, 0
2, 15316, Note_on_c, 0, 60, 0
2, 15338, Note_on_c, 0, 36, 0
2, 15355, Note_on_c, 0, 64, 0
2, 15628, Note_on_c, 0, 67, 108
2, 15633, Note_on_c, 0, 56, 88
2, 15640, Note_on_c, 0, 60, 89
2, 15640, Note_on_c, 0, 29, 85
2, 15643, Note_on_c, 0, 41, 77
2, 15880, Control_c, 0, 64, 0
2, 16327, Control_c, 0, 64, 127
2, 16543, Note_on_c, 0, 60, 0
2, 16600, Note_on_c, 0, 29, 0
2, 16756, Note_on_c, 0, 56, 0
2, 16795, Note_on_c, 0, 41, 0
2, 16920, Note_on_c, 0, 65, 88
2, 16992, Note_on_c, 0, 67, 0
2, 17227, Note_on_c, 0, 63, 84
2, 17236, Note_on_c, 0, 55, 64
2, 17246, Note_on_c, 0, 36, 58
2, 17248, Note_on_c, 0, 48, 54
2, 17251, Note_on_c, 0, 60, 63
2, 17260, Note_on_c, 0, 65, 0
2, 17325, Control_c, 0, 64, 0
2, 17863, Control_c, 0, 64, 127
2, 18146, Note_on_c, 0, 60, 0
2, 18295, Note_on_c, 0, 55, 0
2, 18415, Note_on_c, 0, 36, 0
2, 18468, Note_on_c, 0, 48, 0
2, 18530, Note_on_c, 0, 63, 0
2, 18626, Note_on_c, 0, 62, 97
2, 18626, Note_on_c, 0, 54, 83
2, 18636, Note_on_c, 0, 60, 88
2, 18636, Note_on_c, 0, 50, 82
2, 18640, Note_on_c, 0, 38, 79
2, 18648, Note_on_c, 0, 45, 78
2, 18816, Control_c, 0, 64, 0
2, 19200, Control_c, 0, 64, 127
2, 19437, Note_on_c, 0, 50, 0
2, 19497, Note_on_c, 0, 60, 0
2, 19584, Note_on_c, 0, 45, 0
2, 19586, Note_on_c, 0, 54, 0
2, 19636, Note_on_c, 0, 38, 0
2, 19730, Note_on_c, 0, 62, 0
2, 19888, Note_on_c, 0, 67, 106
2, 19896, Note_on_c, 0, 55, 88
2, 19898, Note_on_c, 0, 62, 84
2, 19898, Note_on_c, 0, 59, 81
2, 19905, Note_on_c, 0, 31, 89
2, 19908, Note_on_c, 0, 43, 84
2, 20044, Control_c, 0, 64, 0
2, 20445, Control_c, 0, 64, 127
2, 20556, Note_on_c, 0, 55, 0
2, 20596, Note_on_c, 0, 43, 0
2, 20649, Note_on_c, 0, 59, 0
2, 20719, Note_on_c, 0, 31, 0
2, 20748, Note_on_c, 0, 62, 0
2, 20865, Note_on_c, 0, 67, 0
2, 21189, Note_on_c, 0, 71, 86
2, 21196, Note_on_c, 0, 66, 74
2, 21206, Note_on_c, 0, 38, 65
2, 21206, Note_on_c, 0, 60, 65
2, 21206, Note_on_c, 0, 62, 61
2, 21211, Note_on_c, 0, 26, 62
2, 21384, Control_c, 0, 64, 0
2, 21952, Control_c, 0, 64, 127
2, 22156, Note_on_c, 0, 71, 0
2, 22334, Note_on_c, 0, 26, 0
2, 22416, Note_on_c, 0, 62, 0
2, 22461, Note_on_c, 0, 60, 0
2, 22538, Note_on_c, 0, 69, 70
2, 22584, Note_on_c, 0, 38, 0
2, 22632, Note_on_c, 0, 66, 0
2, 22915, Note_on_c, 0, 67, 49
2, 22917, Note_on_c, 0, 62, 41
2, 22932, Note_on_c, 0, 59, 37
2, 22934, Note_on_c, 0, 43, 32
2, 22934, Note_on_c, 0, 31, 39
2, 22996, Control_c, 0, 64, 0
2, 23114, Note_on_c, 0, 69, 0
2, 23781, Control_c, 0, 64, 127
2, 23877, Note_on_c, 0, 59, 0
2, 23892, Note_on_c, 0, 31, 0
2, 23928, Note_on_c, 0, 62, 0
2, 24004, Note_on_c, 0, 43, 0
2, 24031, Note_on_c, 0, 67, 0
2, 24940, Note_on_c, 0, 75, 46
2, 24960, Note_on_c, 0, 63, 26
2, 24973, Note_on_c, 0, 48, 29
2, 24973, Note_on_c, 0, 36, 31
2, 24979, Note_on_c, 0, 67, 41
2, 25024, Control_c, 0, 64, 0
2, 25454, Control_c, 0, 64, 127
2, 25616, Note_on_c, 0, 36, 0
2, 25665, Note_on_c, 0, 63, 0
2, 25703, Note_on_c, 0, 48, 0
2, 25761, Note_on_c, 0, 67, 0
2, 25927, Note_on_c, 0, 75, 0
2, 26205, Note_on_c, 0, 75, 62
2, 26220, Note_on_c, 0, 68, 46
2, 26239, Note_on_c, 0, 60, 45
2, 26244, Note_on_c, 0, 63, 28
2, 26258, Note_on_c, 0, 48, 48
2, 26515, Control_c, 0, 64, 0
2, 26870, Control_c, 0, 64, 127
2, 27026, Note_on_c, 0, 63, 0
2, 27048, Note_on_c, 0, 68, 0
2, 27064, Note_on_c, 0, 75, 0
2, 27170, Note_on_c, 0, 48, 0
2, 27204, Note_on_c, 0, 60, 0
2, 27412, Note_on_c, 0, 68, 66
2, 27417, Note_on_c, 0, 74, 68
2, 27424, Note_on_c, 0, 62, 35
2, 27451, Note_on_c, 0, 59, 36
2, 27456, Note_on_c, 0, 47, 43
2, 27638, Control_c, 0, 64, 0
2, 28176, Control_c, 0, 64, 127
2, 28336, Note_on_c, 0, 59, 0
2, 28372, Note_on_c, 0, 68, 0
2, 28380, Note_on_c, 0, 74, 0
2, 28392, Note_on_c, 0, 66, 53
2, 28413, Note_on_c, 0, 62, 0
2, 28524, Note_on_c, 0, 66, 0
2, 28704, Note_on_c, 0, 74, 63
2, 28723, Note_on_c, 0, 67, 49
2, 28725, Note_on_c, 0, 58, 52
2, 28730, Note_on_c, 0, 47, 0
2, 28732, Note_on_c, 0, 46, 56
2, 28735, Note_on_c, 0, 62, 37
2, 28836, Control_c, 0, 64, 0
2, 29481, Control_c, 0, 64, 127
2, 29738, Note_on_c, 0, 62, 0
2, 29769, Note_on_c, 0, 67, 0
2, 29836, Note_on_c, 0, 74, 0
2, 29901, Note_on_c, 0, 58, 0
2, 30110, Note_on_c, 0, 72, 86
2, 30136, Note_on_c, 0, 60, 44
2, 30144, Note_on_c, 0, 46, 0
2, 30148, Note_on_c, 0, 67, 53
2, 30158, Note_on_c, 0, 57, 40
2, 30170, Note_on_c, 0, 45, 32
2, 30388, Control_c, 0, 64, 0
2, 30787, Control_c, 0, 64, 127
2, 31032, Note_on_c, 0, 67, 0
2, 31123, Note_on_c, 0, 60, 0
2, 31130, Note_on_c, 0, 57, 0
2, 31375, Note_on_c, 0, 74, 81
2, 31384, Note_on_c, 0, 45, 0
2, 31384, Note_on_c, 0, 66, 48
2, 31396, Note_on_c, 0, 56, 38
2, 31396, Note_on_c, 0, 44, 29
2, 31406, Note_on_c, 0, 60, 50
2, 31408, Note_on_c, 0, 62, 45
2, 31507, Note_on_c, 0, 72, 0
2, 31665, Control_c, 0, 64, 0
2, 32078, Control_c, 0, 64, 127
2, 32112, Note_on_c, 0, 60, 0
2, 32133, Note_on_c, 0, 62, 0
2, 32244, Note_on_c, 0, 74, 0
2, 32299, Note_on_c, 0, 66, 0
2, 32409, Note_on_c, 0, 56, 0
2, 32724, Note_on_c, 0, 71, 59
2, 32733, Note_on_c, 0, 44, 0
2, 32748, Note_on_c, 0, 67, 46
2, 32752, Note_on_c, 0, 62, 21
2, 32784, Note_on_c, 0, 43, 21
2, 32791, Note_on_c, 0, 55, 17
2, 32971, Control_c, 0, 64, 0
2, 33278, Control_c, 0, 64, 127
2, 33494, Note_on_c, 0, 71, 0
2, 33530, Note_on_c, 0, 67, 0
2, 33638, Note_on_c, 0, 62, 0
2, 33799, Note_on_c, 0, 69, 52
2, 33804, Note_on_c, 0, 60, 39
2, 33832, Note_on_c, 0, 55, 0
2, 33892, Note_on_c, 0, 60, 0
2, 34053, Note_on_c, 0, 43, 0
2, 34161, Note_on_c, 0, 67, 45
2, 34166, Note_on_c, 0, 59, 26
2, 34173, Note_on_c, 0, 62, 31
2, 34180, Note_on_c, 0, 53, 24
2, 34212, Note_on_c, 0, 41, 30
2, 34226, Note_on_c, 0, 69, 0
2, 34384, Control_c, 0, 64, 0
2, 34845, Control_c, 0, 64, 127
2, 34888, Note_on_c, 0, 59, 0
2, 34927, Note_on_c, 0, 53, 0
2, 34972, Note_on_c, 0, 62, 0
2, 34980, Note_on_c, 0, 41, 0
2, 34980, Note_on_c, 0, 67, 0
2, 35817, Note_on_c, 0, 72, 72
2, 35827, Note_on_c, 0, 67, 49
2, 35834, Note_on_c, 0, 51, 33
2, 35839, Note_on_c, 0, 60, 34
2, 35844, Note_on_c, 0, 39, 28
2, 36228, Control_c, 0, 64, 0
2, 36506, Control_c, 0, 64, 127
2, 36552, Note_on_c, 0, 60, 0
2, 36712, Note_on_c, 0, 72, 0
2, 36732, Note_on_c, 0, 67, 0
2, 36873, Note_on_c, 0, 51, 0
2, 36888, Note_on_c, 0, 39, 0
2, 37108, Note_on_c, 0, 68, 66
2, 37128, Note_on_c, 0, 60, 49
2, 37128, Note_on_c, 0, 53, 46
2, 37130, Note_on_c, 0, 56, 43
2, 37137, Note_on_c, 0, 41, 42
2, 37459, Control_c, 0, 64, 0
2, 37826, Control_c, 0, 64, 127
2, 37936, Note_on_c, 0, 53, 0
2, 37960, Note_on_c, 0, 60, 0
2, 37982, Note_on_c, 0, 56, 0
2, 38059, Note_on_c, 0, 41, 0
2, 38320, Note_on_c, 0, 68, 0
2, 38412, Note_on_c, 0, 67, 70
2, 38436, Note_on_c, 0, 62, 41
2, 38440, Note_on_c, 0, 47, 30
2, 38440, Note_on_c, 0, 55, 40
2, 38450, Note_on_c, 0, 35, 32
2, 38688, Control_c, 0, 64, 0
2, 39117, Control_c, 0, 64, 127
2, 39417, Note_on_c, 0, 67, 0
2, 39600, Note_on_c, 0, 65, 60
2, 39693, Note_on_c, 0, 55, 0
2, 39703, Note_on_c, 0, 47, 0
2, 39708, Note_on_c, 0, 35, 0
2, 39751, Note_on_c, 0, 62, 0
2, 39806, Note_on_c, 0, 65, 0
2, 39960, Note_on_c, 0, 63, 49
2, 39984, Note_on_c, 0, 36, 39
2, 39986, Note_on_c, 0, 48, 36
2, 39988, Note_on_c, 0, 60, 46
2, 39998, Note_on_c, 0, 55, 36
2, 40101, Control_c, 0, 64, 0
2, 40701, Control_c, 0, 64, 127
2, 40740, Note_on_c, 0, 55, 0
2, 40802, Note_on_c, 0, 60, 0
2, 40807, Note_on_c, 0, 48, 0
2, 41071, Note_on_c, 0, 63, 0
2, 41167, Note_on_c, 0, 36, 0
2, 41522, Note_on_c, 0, 63, 50
2, 41532, Note_on_c, 0, 56, 43
2, 41539, Note_on_c, 0, 32, 42
2, 41541, Note_on_c, 0, 44, 30
2, 41541, Note_on_c, 0, 51, 40
2, 41546, Note_on_c, 0, 60, 50
2, 42007, Control_c, 0, 64, 0
2, 42237, Control_c, 0, 64, 127
2, 42314, Note_on_c, 0, 44, 0
2, 42352, Note_on_c, 0, 51, 0
2, 42398, Note_on_c, 0, 56, 0
2, 42403, Note_on_c, 0, 60, 0
2, 42564, Note_on_c, 0, 63, 0
2, 42688, Note_on_c, 0, 32, 0
2, 42866, Note_on_c, 0, 65, 52
2, 42873, Note_on_c, 0, 61, 44
2, 42878, Note_on_c, 0, 56, 50
2, 42888, Note_on_c, 0, 53, 38
2, 42907, Note_on_c, 0, 37, 44
2, 42909, Note_on_c, 0, 25, 53
2, 43312, Control_c, 0, 64, 0
2, 43636, Control_c, 0, 64, 127
2, 43677, Note_on_c, 0, 53, 0
2, 43876, Note_on_c, 0, 37, 0
2, 43881, Note_on_c, 0, 25, 0
2, 43970, Note_on_c, 0, 65, 0
2, 43977, Note_on_c, 0, 56, 0
2, 44246, Note_on_c, 0, 63, 65
2, 44280, Note_on_c, 0, 59, 42
2, 44287, Note_on_c, 0, 53, 29
2, 44287, Note_on_c, 0, 43, 42
2, 44289, Note_on_c, 0, 31, 54
2, 44292, Note_on_c, 0, 61, 0
2, 44292, Note_on_c, 0, 55, 37
2, 44620, Control_c, 0, 64, 0
2, 45127, Control_c, 0, 64, 127
2, 45444, Note_on_c, 0, 43, 0
2, 45489, Note_on_c, 0, 55, 0
2, 45523, Note_on_c, 0, 53, 0
2, 45537, Note_on_c, 0, 63, 0
2, 45612, Note_on_c, 0, 59, 0
2, 45760, Note_on_c, 0, 62, 51
2, 46140, Note_on_c, 0, 31, 0
2, 46344, Note_on_c, 0, 60, 43
2, 46351, Note_on_c, 0, 51, 30
2, 46370, Note_on_c, 0, 62, 0
2, 46380, Note_on_c, 0, 55, 36
2, 46392, Note_on_c, 0, 36, 31
2, 46406, Note_on_c, 0, 24, 31
2, 46509, Control_c, 0, 64, 0
2, 47095, Control_c, 0, 64, 127
2, 47234, Note_on_c, 0, 51, 0
2, 47268, Note_on_c, 0, 55, 0
2, 47313, Note_on_c, 0, 60, 0
2, 47361, Note_on_c, 0, 24, 0
2, 47469, Note_on_c, 0, 36, 0
2, 48830, Note_on_c, 0, 75, 36
2, 48876, Note_on_c, 0, 67, 23
2, 48876, Note_on_c, 0, 63, 10
2, 48888, Note_on_c, 0, 48, 20
2, 48895, Note_on_c, 0, 36, 22
2, 49077, Control_c, 0, 64, 0
2, 49368, Control_c, 0, 64, 127
2, 49483, Note_on_c, 0, 36, 0
2, 49497, Note_on_c, 0, 67, 0
2, 49500, Note_on_c, 0, 63, 0
2, 49574, Note_on_c, 0, 48, 0
2, 49720, Note_on_c, 0, 75, 0
2, 50181, Note_on_c, 0, 75, 42
2, 50208, Note_on_c, 0, 68, 36
2, 50227, Note_on_c, 0, 63, 20
2, 50234, Note_on_c, 0, 60, 19
2, 50263, Note_on_c, 0, 48, 13
2, 50628, Control_c, 0, 64, 0
2, 50844, Control_c, 0, 64, 127
2, 50990, Note_on_c, 0, 63, 0
2, 51007, Note_on_c, 0, 68, 0
2, 51045, Note_on_c, 0, 75, 0
2, 51088, Note_on_c, 0, 48, 0
2, 51112, Note_on_c, 0, 60, 0
2, 51504, Note_on_c, 0, 74, 37
2, 51511, Note_on_c, 0, 68, 36
2, 51537, Note_on_c, 0, 62, 18
2, 51549, Note_on_c, 0, 59, 25
2, 51552, Note_on_c, 0, 47, 23
2, 51888, Control_c, 0, 64, 0
2, 52149, Control_c, 0, 64, 127
2, 52317, Note_on_c, 0, 68, 0
2, 52360, Note_on_c, 0, 59, 0
2, 52639, Note_on_c, 0, 66, 40
2, 52658, Note_on_c, 0, 47, 0
2, 52684, Note_on_c, 0, 62, 0
2, 52687, Note_on_c, 0, 74, 0
2, 52752, Note_on_c, 0, 66, 0
2, 52996, Note_on_c, 0, 74, 41
2, 53006, Note_on_c, 0, 58, 35
2, 53011, Note_on_c, 0, 46, 35
2, 53016, Note_on_c, 0, 62, 23
2, 53023, Note_on_c, 0, 67, 37
2, 53426, Control_c, 0, 64, 0
2, 53748, Control_c, 0, 64, 127
2, 53774, Note_on_c, 0, 62, 0
2, 53868, Note_on_c, 0, 67, 0
2, 53887, Note_on_c, 0, 58, 0
2, 53911, Note_on_c, 0, 46, 0
2, 53995, Note_on_c, 0, 74, 0
2, 54580, Note_on_c, 0, 72, 51
2, 54607, Note_on_c, 0, 60, 26
2, 54612, Note_on_c, 0, 67, 40
2, 54628, Note_on_c, 0, 57, 30
2, 54631, Note_on_c, 0, 45, 35
2, 55116, Control_c, 0, 64, 0
2, 55346, Control_c, 0, 64, 127
2, 55444, Note_on_c, 0, 57, 0
2, 55476, Note_on_c, 0, 67, 0
2, 55562, Note_on_c, 0, 45, 0
2, 55572, Note_on_c, 0, 60, 0
2, 55965, Note_on_c, 0, 66, 26
2, 55970, Note_on_c, 0, 74, 54
2, 55977, Note_on_c, 0, 56, 35
2, 55994, Note_on_c, 0, 62, 36
2, 55994, Note_on_c, 0, 60, 38
2, 55996, Note_on_c, 0, 44, 26
2, 56107, Note_on_c, 0, 72, 0
2, 56222, Control_c, 0, 64, 0
2, 56592, Control_c, 0, 64, 127
2, 56714, Note_on_c, 0, 60, 0
2, 56738, Note_on_c, 0, 62, 0
2, 56805, Note_on_c, 0, 74, 0
2, 56856, Note_on_c, 0, 56, 0
2, 57000, Note_on_c, 0, 44, 0
2, 57031, Note_on_c, 0, 66, 0
2, 57369, Note_on_c, 0, 71, 45
2, 57398, Note_on_c, 0, 62, 25
2, 57408, Note_on_c, 0, 43, 27
2, 57410, Note_on_c, 0, 67, 26
2, 57412, Note_on_c, 0, 55, 21
2, 57667, Control_c, 0, 64, 0
2, 58036, Control_c, 0, 64, 127
2, 58116, Note_on_c, 0, 62, 0
2, 58123, Note_on_c, 0, 71, 0
2, 58159, Note_on_c, 0, 67, 0
2, 58509, Note_on_c, 0, 43, 0
2, 58552, Note_on_c, 0, 55, 0
2, 58560, Note_on_c, 0, 69, 36
2, 58569, Note_on_c, 0, 60, 29
2, 58704, Note_on_c, 0, 60, 0
2, 58944, Note_on_c, 0, 67, 47
2, 58965, Note_on_c, 0, 59, 24
2, 58972, Note_on_c, 0, 62, 18
2, 58975, Note_on_c, 0, 53, 22
2, 58982, Note_on_c, 0, 41, 20
2, 59061, Note_on_c, 0, 69, 0
2, 59328, Control_c, 0, 64, 0
2, 59635, Control_c, 0, 64, 127
2, 59666, Note_on_c, 0, 67, 0
2, 59671, Note_on_c, 0, 59, 0
2, 59692, Note_on_c, 0, 53, 0
2, 59733, Note_on_c, 0, 41, 0
2, 59772, Note_on_c, 0, 62, 0
2, 60571, Note_on_c, 0, 72, 77
2, 60576, Note_on_c, 0, 60, 48
2, 60583, Note_on_c, 0, 51, 38
2, 60595, Note_on_c, 0, 67, 47
2, 60600, Note_on_c, 0, 39, 33
2, 61125, Control_c, 0, 64, 0
2, 61370, Control_c, 0, 64, 127
2, 61461, Note_on_c, 0, 60, 0
2, 61531, Note_on_c, 0, 72, 0
2, 61620, Note_on_c, 0, 67, 0
2, 61682, Note_on_c, 0, 39, 0
2, 61692, Note_on_c, 0, 51, 0
2, 62136, Note_on_c, 0, 68, 64
2, 62155, Note_on_c, 0, 56, 48
2, 62157, Note_on_c, 0, 60, 47
2, 62157, Note_on_c, 0, 53, 40
2, 62162, Note_on_c, 0, 41, 41
2, 62738, Control_c, 0, 64, 0
2, 63093, Control_c, 0, 64, 127
2, 63158, Note_on_c, 0, 53, 0
2, 63237, Note_on_c, 0, 60, 0
2, 63259, Note_on_c, 0, 56, 0
2, 63336, Note_on_c, 0, 68, 0
2, 63336, Note_on_c, 0, 41, 0
2, 63556, Note_on_c, 0, 67, 80
2, 63566, Note_on_c, 0, 55, 51
2, 63576, Note_on_c, 0, 62, 55
2, 63595, Note_on_c, 0, 47, 24
2, 63597, Note_on_c, 0, 35, 29
2, 64075, Control_c, 0, 64, 0
2, 64382, Control_c, 0, 64, 127
2, 64425, Note_on_c, 0, 55, 0
2, 64430, Note_on_c, 0, 67, 0
2, 64692, Note_on_c, 0, 62, 0
2, 64915, Note_on_c, 0, 65, 69
2, 65047, Note_on_c, 0, 35, 0
2, 65126, Note_on_c, 0, 47, 0
2, 65364, Note_on_c, 0, 63, 70
2, 65383, Note_on_c, 0, 36, 50
2, 65390, Note_on_c, 0, 60, 53
2, 65390, Note_on_c, 0, 55, 44
2, 65395, Note_on_c, 0, 48, 45
2, 65409, Note_on_c, 0, 65, 0
2, 65875, Control_c, 0, 64, 0
2, 66165, Control_c, 0, 64, 127
2, 66208, Note_on_c, 0, 48, 0
2, 66240, Note_on_c, 0, 55, 0
2, 66314, Note_on_c, 0, 60, 0
2, 66331, Note_on_c, 0, 63, 0
2, 66352, Note_on_c, 0, 36, 0
2, 67041, Note_on_c, 0, 56, 66
2, 67044, Note_on_c, 0, 51, 65
2, 67044, Note_on_c, 0, 63, 79
2, 67056, Note_on_c, 0, 44, 60
2, 67065, Note_on_c, 0, 32, 62
2, 67065, Note_on_c, 0, 60, 72
2, 67502, Control_c, 0, 64, 0
2, 67764, Control_c, 0, 64, 127
2, 67896, Note_on_c, 0, 56, 0
2, 67944, Note_on_c, 0, 51, 0
2, 67987, Note_on_c, 0, 44, 0
2, 68352, Note_on_c, 0, 60, 0
2, 68392, Note_on_c, 0, 63, 0
2, 68544, Note_on_c, 0, 32, 0
2, 68697, Note_on_c, 0, 53, 80
2, 68697, Note_on_c, 0, 61, 70
2, 68697, Note_on_c, 0, 56, 76
2, 68697, Note_on_c, 0, 65, 89
2, 68702, Note_on_c, 0, 37, 69
2, 68709, Note_on_c, 0, 25, 75
2, 69072, Control_c, 0, 64, 0
2, 69362, Control_c, 0, 64, 127
2, 69765, Note_on_c, 0, 25, 0
2, 69770, Note_on_c, 0, 53, 0
2, 69866, Note_on_c, 0, 65, 0
2, 69897, Note_on_c, 0, 56, 0
2, 69909, Note_on_c, 0, 37, 0
2, 69931, Note_on_c, 0, 61, 0
2, 70324, Note_on_c, 0, 63, 88
2, 70339, Note_on_c, 0, 53, 83
2, 70339, Note_on_c, 0, 55, 72
2, 70341, Note_on_c, 0, 59, 78
2, 70346, Note_on_c, 0, 43, 76
2, 70348, Note_on_c, 0, 31, 83
2, 70960, Control_c, 0, 64, 0
2, 71683, Control_c, 0, 64, 127
2, 72100, Note_on_c, 0, 63, 0
2, 72168, Note_on_c, 0, 62, 78
2, 72295, Note_on_c, 0, 43, 0
2, 72312, Note_on_c, 0, 55, 0
2, 72328, Note_on_c, 0, 53, 0
2, 72364, Note_on_c, 0, 59, 0
2, 72700, Note_on_c, 0, 31, 0
2, 72715, Note_on_c, 0, 51, 78
2, 72717, Note_on_c, 0, 60, 87
2, 72727, Note_on_c, 0, 55, 76
2, 72732, Note_on_c, 0, 36, 89
2, 72732, Note_on_c, 0, 24, 89
2, 72945, Note_on_c, 0, 62, 0
2, 73219, Control_c, 0, 64, 0
2, 73912, Control_c, 0, 64, 127
2, 74145, Note_on_c, 0, 51, 0
2, 74157, Note_on_c, 0, 24, 0
2, 74198, Note_on_c, 0, 55, 0
2, 74210, Note_on_c, 0, 36, 0
2, 74270, Note_on_c, 0, 60, 0
2, 75069, Note_on_c, 0, 72, 82
2, 75072, Note_on_c, 0, 60, 70
2, 75076, Note_on_c, 0, 63, 68
2, 75084, Note_on_c, 0, 67, 74
2, 75088, Note_on_c, 0, 48, 72
2, 75098, Note_on_c, 0, 55, 58
2, 81211, Note_on_c, 0, 67, 0
2, 81223, Note_on_c, 0, 60, 0
2, 81232, Note_on_c, 0, 72, 0
2, 81240, Note_on_c, 0, 55, 0
2, 81259, Note_on_c, 0, 63, 0
2, 81352, Note_on_c, 0, 48, 0
2, 81825, Control_c, 0, 64, 0
2, 81825, End_track
0, 0, End_of_file
