0, 0, Header, 1, 2, 120
1, 0, Start_track
1, 0, Time_signature, 4, 2, 24, 8
1, 0, Key_signature, 0, "major"
1, 0, Tempo, 500000
1, 0, End_track
2, 0, Start_track
2, 0, MIDI_port, 0
2, 0, Title_t, "  "
2, 0, Note_on_c, 0, 34, 74
2, 3, Note_on_c, 0, 46, 79
2, 16, Control_c, 0, 64, 127
2, 49, Note_on_c, 0, 46, 0
2, 51, Note_on_c, 0, 34, 0
2, 61, Note_on_c, 0, 33, 90
2, 63, Note_on_c, 0, 45, 93
2, 105, Note_on_c, 0, 45, 0
2, 107, Note_on_c, 0, 33, 0
2, 175, Note_on_c, 0, 31, 87
2, 178, Note_on_c, 0, 43, 61
2, 189, Note_on_c, 0, 43, 0
2, 189, Note_on_c, 0, 31, 0
2, 206, Note_on_c, 0, 31, 94
2, 206, Note_on_c, 0, 43, 80
2, 224, Control_c, 0, 64, 0
2, 268, Note_on_c, 0, 63, 73
2, 268, Note_on_c, 0, 57, 69
2, 273, Note_on_c, 0, 60, 62
2, 289, Note_on_c, 0, 60, 0
2, 304, Control_c, 0, 64, 127
2, 318, Note_on_c, 0, 51, 70
2, 324, Note_on_c, 0, 57, 0
2, 332, Note_on_c, 0, 51, 0
2, 338, Note_on_c, 0, 63, 0
2, 351, Note_on_c, 0, 43, 0
2, 355, Note_on_c, 0, 31, 0
2, 361, Note_on_c, 0, 62, 75
2, 363, Note_on_c, 0, 50, 63
2, 364, Note_on_c, 0, 60, 67
2, 367, Note_on_c, 0, 57, 49
2, 405, Note_on_c, 0, 42, 81
2, 405, Note_on_c, 0, 30, 86
2, 415, Note_on_c, 0, 30, 0
2, 416, Note_on_c, 0, 42, 0
2, 432, Note_on_c, 0, 50, 0
2, 442, Note_on_c, 0, 57, 0
2, 445, Note_on_c, 0, 45, 99
2, 445, Note_on_c, 0, 33, 94
2, 452, Note_on_c, 0, 60, 0
2, 454, Note_on_c, 0, 62, 0
2, 460, Note_on_c, 0, 45, 0
2, 464, Note_on_c, 0, 33, 0
2, 486, Note_on_c, 0, 33, 85
2, 488, Note_on_c, 0, 45, 87
2, 501, Control_c, 0, 64, 0
2, 532, Note_on_c, 0, 66, 90
2, 534, Note_on_c, 0, 63, 79
2, 535, Note_on_c, 0, 60, 83
2, 576, Note_on_c, 0, 54, 69
2, 584, Note_on_c, 0, 63, 0
2, 585, Control_c, 0, 64, 127
2, 593, Note_on_c, 0, 54, 0
2, 600, Note_on_c, 0, 66, 0
2, 601, Note_on_c, 0, 60, 0
2, 612, Note_on_c, 0, 33, 0
2, 615, Note_on_c, 0, 67, 100
2, 615, Note_on_c, 0, 63, 73
2, 617, Note_on_c, 0, 45, 0
2, 618, Note_on_c, 0, 55, 85
2, 652, Note_on_c, 0, 46, 101
2, 654, Note_on_c, 0, 34, 99
2, 662, Note_on_c, 0, 46, 0
2, 664, Note_on_c, 0, 34, 0
2, 688, Note_on_c, 0, 31, 108
2, 689, Note_on_c, 0, 43, 100
2, 697, Note_on_c, 0, 31, 0
2, 700, Note_on_c, 0, 63, 0
2, 700, Note_on_c, 0, 43, 0
2, 712, Note_on_c, 0, 67, 0
2, 730, Note_on_c, 0, 55, 0
2, 730, Note_on_c, 0, 46, 110
2, 732, Note_on_c, 0, 34, 103
2, 735, Control_c, 0, 64, 0
2, 766, Note_on_c, 0, 63, 86
2, 766, Note_on_c, 0, 67, 100
2, 769, Note_on_c, 0, 60, 88
2, 806, Note_on_c, 0, 55, 88
2, 810, Note_on_c, 0, 67, 0
2, 811, Control_c, 0, 64, 127
2, 820, Note_on_c, 0, 60, 0
2, 821, Note_on_c, 0, 55, 0
2, 823, Note_on_c, 0, 63, 0
2, 841, Note_on_c, 0, 63, 71
2, 841, Note_on_c, 0, 60, 70
2, 843, Note_on_c, 0, 66, 95
2, 845, Note_on_c, 0, 54, 86
2, 850, Note_on_c, 0, 46, 0
2, 853, Note_on_c, 0, 34, 0
2, 879, Note_on_c, 0, 45, 106
2, 879, Note_on_c, 0, 33, 103
2, 884, Note_on_c, 0, 54, 0
2, 886, Note_on_c, 0, 33, 0
2, 890, Note_on_c, 0, 45, 0
2, 900, Note_on_c, 0, 60, 0
2, 911, Note_on_c, 0, 63, 0
2, 918, Note_on_c, 0, 36, 100
2, 918, Note_on_c, 0, 48, 105
2, 922, Note_on_c, 0, 66, 0
2, 933, Note_on_c, 0, 48, 0
2, 940, Note_on_c, 0, 36, 0
2, 955, Note_on_c, 0, 48, 101
2, 955, Note_on_c, 0, 36, 105
2, 969, Control_c, 0, 64, 0
2, 991, Note_on_c, 0, 66, 93
2, 991, Note_on_c, 0, 63, 95
2, 992, Note_on_c, 0, 69, 103
2, 1024, Note_on_c, 0, 57, 100
2, 1028, Note_on_c, 0, 69, 0
2, 1035, Control_c, 0, 64, 127
2, 1048, Note_on_c, 0, 57, 0
2, 1053, Note_on_c, 0, 66, 0
2, 1066, Note_on_c, 0, 70, 110
2, 1066, Note_on_c, 0, 67, 88
2, 1067, Note_on_c, 0, 58, 111
2, 1068, Note_on_c, 0, 36, 0
2, 1070, Note_on_c, 0, 63, 0
2, 1072, Note_on_c, 0, 48, 0
2, 1088, Control_c, 0, 64, 0
2, 1099, Note_on_c, 0, 50, 106
2, 1099, Note_on_c, 0, 38, 106
2, 1104, Note_on_c, 0, 58, 0
2, 1110, Note_on_c, 0, 50, 0
2, 1115, Note_on_c, 0, 38, 0
2, 1119, Control_c, 0, 64, 127
2, 1122, Note_on_c, 0, 67, 0
2, 1134, Note_on_c, 0, 70, 0
2, 1138, Note_on_c, 0, 46, 119
2, 1140, Note_on_c, 0, 34, 106
2, 1147, Note_on_c, 0, 34, 0
2, 1148, Note_on_c, 0, 46, 0
2, 1191, Note_on_c, 0, 61, 117
2, 1192, Note_on_c, 0, 49, 107
2, 1196, Control_c, 0, 64, 0
2, 1222, Note_on_c, 0, 75, 94
2, 1223, Note_on_c, 0, 79, 114
2, 1224, Note_on_c, 0, 70, 106
2, 1263, Note_on_c, 0, 79, 0
2, 1266, Note_on_c, 0, 67, 91
2, 1273, Control_c, 0, 64, 127
2, 1274, Note_on_c, 0, 75, 0
2, 1280, Note_on_c, 0, 70, 0
2, 1287, Note_on_c, 0, 67, 0
2, 1314, Note_on_c, 0, 49, 0
2, 1314, Note_on_c, 0, 61, 0
2, 1314, Note_on_c, 0, 78, 99
2, 1315, Note_on_c, 0, 69, 97
2, 1318, Note_on_c, 0, 74, 90
2, 1318, Note_on_c, 0, 66, 76
2, 1341, Note_on_c, 0, 62, 94
2, 1341, Note_on_c, 0, 50, 98
2, 1347, Note_on_c, 0, 66, 0
2, 1349, Note_on_c, 0, 62, 0
2, 1353, Note_on_c, 0, 50, 0
2, 1357, Note_on_c, 0, 69, 0
2, 1365, Note_on_c, 0, 74, 0
2, 1377, Note_on_c, 0, 78, 0
2, 1383, Note_on_c, 0, 57, 98
2, 1383, Note_on_c, 0, 45, 106
2, 1391, Note_on_c, 0, 45, 0
2, 1392, Note_on_c, 0, 57, 0
2, 1411, Control_c, 0, 64, 0
2, 1418, Note_on_c, 0, 59, 105
2, 1419, Note_on_c, 0, 47, 100
2, 1449, Note_on_c, 0, 73, 97
2, 1449, Note_on_c, 0, 68, 103
2, 1449, Note_on_c, 0, 77, 113
2, 1482, Note_on_c, 0, 77, 0
2, 1487, Note_on_c, 0, 65, 96
2, 1495, Control_c, 0, 64, 127
2, 1498, Note_on_c, 0, 73, 0
2, 1506, Note_on_c, 0, 68, 0
2, 1509, Note_on_c, 0, 65, 0
2, 1527, Note_on_c, 0, 76, 110
2, 1528, Note_on_c, 0, 47, 0
2, 1528, Note_on_c, 0, 72, 92
2, 1528, Note_on_c, 0, 67, 97
2, 1530, Note_on_c, 0, 59, 0
2, 1531, Note_on_c, 0, 64, 91
2, 1545, Control_c, 0, 64, 0
2, 1560, Note_on_c, 0, 48, 105
2, 1561, Note_on_c, 0, 60, 103
2, 1570, Note_on_c, 0, 60, 0
2, 1575, Note_on_c, 0, 67, 0
2, 1577, Note_on_c, 0, 48, 0
2, 1580, Note_on_c, 0, 64, 0
2, 1588, Control_c, 0, 64, 127
2, 1591, Note_on_c, 0, 72, 0
2, 1599, Note_on_c, 0, 43, 109
2, 1600, Note_on_c, 0, 55, 107
2, 1606, Note_on_c, 0, 43, 0
2, 1607, Note_on_c, 0, 76, 0
2, 1608, Note_on_c, 0, 55, 0
2, 1640, Note_on_c, 0, 59, 102
2, 1641, Note_on_c, 0, 47, 91
2, 1642, Control_c, 0, 64, 0
2, 1674, Note_on_c, 0, 73, 92
2, 1674, Note_on_c, 0, 68, 99
2, 1674, Note_on_c, 0, 77, 108
2, 1707, Note_on_c, 0, 77, 0
2, 1714, Control_c, 0, 64, 127
2, 1715, Note_on_c, 0, 65, 94
2, 1725, Note_on_c, 0, 73, 0
2, 1734, Note_on_c, 0, 68, 0
2, 1739, Note_on_c, 0, 65, 0
2, 1758, Note_on_c, 0, 76, 105
2, 1759, Note_on_c, 0, 67, 83
2, 1760, Note_on_c, 0, 72, 81
2, 1761, Control_c, 0, 64, 0
2, 1761, Note_on_c, 0, 64, 87
2, 1769, Note_on_c, 0, 47, 0
2, 1772, Note_on_c, 0, 59, 0
2, 1800, Note_on_c, 0, 60, 94
2, 1800, Note_on_c, 0, 48, 97
2, 1803, Control_c, 0, 64, 127
2, 1808, Note_on_c, 0, 60, 0
2, 1809, Note_on_c, 0, 48, 0
2, 1815, Note_on_c, 0, 67, 0
2, 1824, Note_on_c, 0, 64, 0
2, 1827, Note_on_c, 0, 76, 0
2, 1836, Note_on_c, 0, 43, 103
2, 1837, Note_on_c, 0, 55, 103
2, 1847, Note_on_c, 0, 72, 0
2, 1848, Note_on_c, 0, 55, 0
2, 1854, Note_on_c, 0, 43, 0
2, 1873, Note_on_c, 0, 55, 95
2, 1875, Note_on_c, 0, 43, 95
2, 1888, Note_on_c, 0, 43, 0
2, 1891, Note_on_c, 0, 55, 0
2, 1906, Control_c, 0, 64, 0
2, 1907, Note_on_c, 0, 63, 105
2, 1907, Note_on_c, 0, 75, 98
2, 1907, Note_on_c, 0, 72, 101
2, 1908, Note_on_c, 0, 69, 98
2, 1910, Note_on_c, 0, 54, 106
2, 1911, Note_on_c, 0, 42, 98
2, 1939, Note_on_c, 0, 42, 0
2, 1941, Note_on_c, 0, 54, 0
2, 1947, Note_on_c, 0, 55, 112
2, 1949, Note_on_c, 0, 43, 102
2, 1951, Note_on_c, 0, 63, 0
2, 1956, Control_c, 0, 64, 127
2, 1972, Note_on_c, 0, 55, 0
2, 1972, Note_on_c, 0, 43, 0
2, 1982, Note_on_c, 0, 72, 0
2, 1988, Note_on_c, 0, 75, 0
2, 1998, Note_on_c, 0, 69, 0
2, 2000, Note_on_c, 0, 58, 118
2, 2001, Note_on_c, 0, 46, 113
2, 2007, Control_c, 0, 64, 0
2, 2044, Note_on_c, 0, 58, 0
2, 2049, Note_on_c, 0, 45, 105
2, 2050, Note_on_c, 0, 57, 98
2, 2053, Note_on_c, 0, 46, 0
2, 2053, Control_c, 0, 64, 127
2, 2086, Note_on_c, 0, 57, 0
2, 2086, Note_on_c, 0, 45, 0
2, 2095, Control_c, 0, 64, 0
2, 2127, Note_on_c, 0, 43, 103
2, 2128, Note_on_c, 0, 55, 87
2, 2134, Note_on_c, 0, 43, 0
2, 2137, Note_on_c, 0, 55, 0
2, 2152, Control_c, 0, 64, 127
2, 2154, Note_on_c, 0, 55, 95
2, 2155, Note_on_c, 0, 43, 88
2, 2203, Note_on_c, 0, 75, 86
2, 2208, Note_on_c, 0, 69, 84
2, 2208, Note_on_c, 0, 72, 87
2, 2229, Control_c, 0, 64, 0
2, 2250, Note_on_c, 0, 63, 82
2, 2254, Note_on_c, 0, 72, 0
2, 2273, Note_on_c, 0, 69, 0
2, 2273, Note_on_c, 0, 75, 0
2, 2275, Control_c, 0, 64, 127
2, 2280, Note_on_c, 0, 63, 0
2, 2305, Note_on_c, 0, 62, 81
2, 2306, Note_on_c, 0, 43, 0
2, 2309, Note_on_c, 0, 55, 0
2, 2310, Note_on_c, 0, 69, 34
2, 2310, Note_on_c, 0, 74, 76
2, 2313, Note_on_c, 0, 72, 62
2, 2342, Note_on_c, 0, 54, 84
2, 2344, Note_on_c, 0, 42, 83
2, 2352, Note_on_c, 0, 42, 0
2, 2354, Note_on_c, 0, 54, 0
2, 2368, Note_on_c, 0, 62, 0
2, 2377, Note_on_c, 0, 57, 101
2, 2379, Note_on_c, 0, 69, 0
2, 2380, Note_on_c, 0, 45, 89
2, 2386, Note_on_c, 0, 74, 0
2, 2391, Note_on_c, 0, 72, 0
2, 2392, Note_on_c, 0, 45, 0
2, 2401, Note_on_c, 0, 57, 0
2, 2418, Note_on_c, 0, 57, 103
2, 2418, Note_on_c, 0, 45, 102
2, 2437, Control_c, 0, 64, 0
2, 2459, Note_on_c, 0, 78, 93
2, 2460, Note_on_c, 0, 75, 86
2, 2461, Note_on_c, 0, 72, 98
2, 2497, Note_on_c, 0, 66, 86
2, 2510, Control_c, 0, 64, 127
2, 2515, Note_on_c, 0, 75, 0
2, 2520, Note_on_c, 0, 66, 0
2, 2526, Note_on_c, 0, 78, 0
2, 2539, Note_on_c, 0, 57, 0
2, 2541, Note_on_c, 0, 72, 0
2, 2542, Note_on_c, 0, 45, 0
2, 2542, Note_on_c, 0, 79, 102
2, 2545, Note_on_c, 0, 75, 65
2, 2545, Note_on_c, 0, 67, 89
2, 2580, Note_on_c, 0, 58, 108
2, 2583, Note_on_c, 0, 46, 105
2, 2594, Note_on_c, 0, 58, 0
2, 2595, Note_on_c, 0, 46, 0
2, 2613, Note_on_c, 0, 43, 110
2, 2614, Note_on_c, 0, 55, 111
2, 2634, Note_on_c, 0, 75, 0
2, 2637, Note_on_c, 0, 43, 0
2, 2638, Note_on_c, 0, 55, 0
2, 2656, Note_on_c, 0, 58, 117
2, 2656, Note_on_c, 0, 46, 113
2, 2657, Note_on_c, 0, 79, 0
2, 2659, Note_on_c, 0, 67, 0
2, 2675, Control_c, 0, 64, 0
2, 2698, Note_on_c, 0, 79, 110
2, 2698, Note_on_c, 0, 75, 97
2, 2698, Note_on_c, 0, 72, 101
2, 2733, Note_on_c, 0, 67, 99
2, 2740, Control_c, 0, 64, 127
2, 2745, Note_on_c, 0, 79, 0
2, 2752, Note_on_c, 0, 67, 0
2, 2773, Note_on_c, 0, 78, 101
2, 2775, Note_on_c, 0, 66, 102
2, 2777, Note_on_c, 0, 58, 0
2, 2785, Note_on_c, 0, 46, 0
2, 2809, Note_on_c, 0, 45, 105
2, 2809, Note_on_c, 0, 57, 97
2, 2815, Note_on_c, 0, 72, 0
2, 2816, Note_on_c, 0, 45, 0
2, 2818, Note_on_c, 0, 66, 0
2, 2823, Note_on_c, 0, 57, 0
2, 2837, Note_on_c, 0, 75, 0
2, 2847, Note_on_c, 0, 78, 0
2, 2847, Note_on_c, 0, 60, 113
2, 2849, Note_on_c, 0, 48, 110
2, 2858, Note_on_c, 0, 48, 0
2, 2869, Note_on_c, 0, 60, 0
2, 2871, Control_c, 0, 64, 0
2, 2884, Note_on_c, 0, 60, 111
2, 2884, Note_on_c, 0, 48, 108
2, 2917, Note_on_c, 0, 75, 106
2, 2918, Note_on_c, 0, 81, 113
2, 2919, Note_on_c, 0, 78, 98
2, 2952, Control_c, 0, 64, 127
2, 2954, Note_on_c, 0, 69, 107
2, 2966, Note_on_c, 0, 81, 0
2, 2976, Note_on_c, 0, 69, 0
2, 2981, Note_on_c, 0, 75, 0
2, 2989, Note_on_c, 0, 78, 0
2, 2993, Note_on_c, 0, 82, 113
2, 2995, Note_on_c, 0, 79, 103
2, 2995, Note_on_c, 0, 70, 115
2, 3009, Note_on_c, 0, 48, 0
2, 3009, Control_c, 0, 64, 0
2, 3011, Note_on_c, 0, 60, 0
2, 3034, Note_on_c, 0, 62, 110
2, 3034, Note_on_c, 0, 50, 110
2, 3049, Note_on_c, 0, 50, 0
2, 3053, Note_on_c, 0, 62, 0
2, 3055, Control_c, 0, 64, 127
2, 3075, Note_on_c, 0, 58, 121
2, 3076, Note_on_c, 0, 46, 116
2, 3084, Note_on_c, 0, 46, 0
2, 3096, Note_on_c, 0, 58, 0
2, 3132, Control_c, 0, 64, 0
2, 3144, Note_on_c, 0, 67, 119
2, 3144, Note_on_c, 0, 55, 119
2, 3146, Note_on_c, 0, 79, 0
2, 3168, Note_on_c, 0, 82, 0
2, 3171, Control_c, 0, 64, 127
2, 3175, Note_on_c, 0, 70, 0
2, 3178, Note_on_c, 0, 67, 0
2, 3180, Note_on_c, 0, 55, 0
2, 3204, Note_on_c, 0, 63, 106
2, 3204, Note_on_c, 0, 82, 106
2, 3206, Note_on_c, 0, 79, 102
2, 3207, Note_on_c, 0, 51, 105
2, 3232, Note_on_c, 0, 51, 0
2, 3232, Note_on_c, 0, 63, 0
2, 3247, Note_on_c, 0, 70, 105
2, 3249, Note_on_c, 0, 62, 106
2, 3249, Note_on_c, 0, 50, 110
2, 3268, Note_on_c, 0, 62, 0
2, 3270, Note_on_c, 0, 50, 0
2, 3272, Note_on_c, 0, 82, 0
2, 3273, Note_on_c, 0, 79, 0
2, 3281, Note_on_c, 0, 70, 0
2, 3295, Note_on_c, 0, 62, 105
2, 3296, Note_on_c, 0, 50, 101
2, 3309, Control_c, 0, 64, 0
2, 3334, Note_on_c, 0, 81, 105
2, 3336, Note_on_c, 0, 79, 96
2, 3337, Note_on_c, 0, 76, 98
2, 3341, Note_on_c, 0, 62, 0
2, 3344, Note_on_c, 0, 50, 0
2, 3351, Control_c, 0, 64, 127
2, 3364, Note_on_c, 0, 61, 112
2, 3367, Note_on_c, 0, 49, 103
2, 3369, Note_on_c, 0, 76, 0
2, 3372, Note_on_c, 0, 69, 100
2, 3375, Note_on_c, 0, 79, 0
2, 3376, Note_on_c, 0, 49, 0
2, 3386, Note_on_c, 0, 61, 0
2, 3388, Note_on_c, 0, 81, 0
2, 3405, Note_on_c, 0, 65, 118
2, 3406, Note_on_c, 0, 53, 114
2, 3411, Note_on_c, 0, 69, 0
2, 3418, Note_on_c, 0, 53, 0
2, 3427, Note_on_c, 0, 65, 0
2, 3443, Note_on_c, 0, 80, 97
2, 3445, Note_on_c, 0, 61, 111
2, 3446, Note_on_c, 0, 77, 98
2, 3446, Note_on_c, 0, 49, 110
2, 3455, Note_on_c, 0, 49, 0
2, 3469, Note_on_c, 0, 61, 0
2, 3479, Note_on_c, 0, 68, 98
2, 3481, Note_on_c, 0, 60, 113
2, 3483, Note_on_c, 0, 48, 115
2, 3497, Note_on_c, 0, 48, 0
2, 3499, Note_on_c, 0, 60, 0
2, 3522, Note_on_c, 0, 60, 98
2, 3523, Note_on_c, 0, 48, 115
2, 3528, Note_on_c, 0, 77, 0
2, 3528, Control_c, 0, 64, 0
2, 3541, Note_on_c, 0, 68, 0
2, 3548, Note_on_c, 0, 80, 0
2, 3562, Note_on_c, 0, 79, 103
2, 3565, Note_on_c, 0, 77, 85
2, 3568, Note_on_c, 0, 74, 88
2, 3570, Control_c, 0, 64, 127
2, 3572, Note_on_c, 0, 60, 0
2, 3575, Note_on_c, 0, 48, 0
2, 3597, Note_on_c, 0, 59, 103
2, 3597, Note_on_c, 0, 47, 103
2, 3598, Note_on_c, 0, 74, 0
2, 3603, Note_on_c, 0, 67, 102
2, 3604, Note_on_c, 0, 47, 0
2, 3610, Note_on_c, 0, 77, 0
2, 3613, Note_on_c, 0, 79, 0
2, 3614, Note_on_c, 0, 59, 0
2, 3635, Note_on_c, 0, 67, 0
2, 3643, Control_c, 0, 64, 0
2, 3645, Note_on_c, 0, 63, 110
2, 3648, Note_on_c, 0, 51, 108
2, 3672, Note_on_c, 0, 51, 0
2, 3675, Note_on_c, 0, 63, 0
2, 3678, Control_c, 0, 64, 127
2, 3696, Note_on_c, 0, 75, 86
2, 3697, Note_on_c, 0, 72, 91
2, 3698, Note_on_c, 0, 67, 87
2, 3700, Note_on_c, 0, 60, 106
2, 3702, Note_on_c, 0, 48, 87
2, 3711, Note_on_c, 0, 60, 0
2, 3717, Note_on_c, 0, 48, 0
2, 3743, Note_on_c, 0, 58, 111
2, 3744, Note_on_c, 0, 46, 115
2, 3744, Note_on_c, 0, 63, 86
2, 3752, Note_on_c, 0, 72, 0
2, 3758, Note_on_c, 0, 67, 0
2, 3764, Note_on_c, 0, 75, 0
2, 3771, Note_on_c, 0, 58, 0
2, 3774, Note_on_c, 0, 46, 0
2, 3787, Note_on_c, 0, 63, 0
2, 3788, Note_on_c, 0, 45, 117
2, 3788, Note_on_c, 0, 57, 108
2, 3793, Control_c, 0, 64, 0
2, 3806, Note_on_c, 0, 57, 0
2, 3812, Note_on_c, 0, 45, 0
2, 3826, Note_on_c, 0, 75, 89
2, 3827, Note_on_c, 0, 66, 84
2, 3828, Control_c, 0, 64, 127
2, 3828, Note_on_c, 0, 48, 110
2, 3829, Note_on_c, 0, 60, 107
2, 3829, Note_on_c, 0, 72, 81
2, 3838, Note_on_c, 0, 60, 0
2, 3841, Note_on_c, 0, 72, 0
2, 3844, Note_on_c, 0, 48, 0
2, 3863, Note_on_c, 0, 63, 88
2, 3865, Note_on_c, 0, 75, 0
2, 3865, Note_on_c, 0, 56, 97
2, 3865, Note_on_c, 0, 44, 103
2, 3867, Note_on_c, 0, 66, 0
2, 3887, Note_on_c, 0, 44, 0
2, 3888, Note_on_c, 0, 63, 0
2, 3890, Note_on_c, 0, 56, 0
2, 3900, Note_on_c, 0, 75, 95
2, 3901, Note_on_c, 0, 63, 103
2, 3901, Note_on_c, 0, 55, 109
2, 3901, Control_c, 0, 64, 0
2, 3901, Note_on_c, 0, 43, 108
2, 3903, Note_on_c, 0, 72, 86
2, 3904, Note_on_c, 0, 67, 89
2, 3913, Note_on_c, 0, 67, 0
2, 3915, Note_on_c, 0, 72, 0
2, 3919, Note_on_c, 0, 63, 0
2, 3919, Note_on_c, 0, 75, 0
2, 3919, Note_on_c, 0, 43, 0
2, 3922, Note_on_c, 0, 55, 0
2, 3931, Control_c, 0, 64, 127
2, 3937, Note_on_c, 0, 75, 87
2, 3937, Note_on_c, 0, 54, 103
2, 3938, Note_on_c, 0, 63, 70
2, 3939, Note_on_c, 0, 42, 100
2, 3939, Note_on_c, 0, 72, 92
2, 3941, Note_on_c, 0, 68, 88
2, 3960, Note_on_c, 0, 54, 0
2, 3964, Note_on_c, 0, 42, 0
2, 3971, Note_on_c, 0, 68, 0
2, 3971, Note_on_c, 0, 41, 106
2, 3971, Note_on_c, 0, 53, 108
2, 3974, Note_on_c, 0, 63, 0
2, 3990, Note_on_c, 0, 41, 0
2, 3990, Note_on_c, 0, 53, 0
2, 3992, Note_on_c, 0, 72, 0
2, 4006, Note_on_c, 0, 75, 0
2, 4008, Note_on_c, 0, 52, 113
2, 4009, Note_on_c, 0, 40, 113
2, 4030, Note_on_c, 0, 52, 0
2, 4031, Note_on_c, 0, 40, 0
2, 4042, Note_on_c, 0, 51, 111
2, 4044, Note_on_c, 0, 39, 103
2, 4063, Note_on_c, 0, 51, 0
2, 4071, Note_on_c, 0, 39, 0
2, 4078, Note_on_c, 0, 50, 113
2, 4080, Note_on_c, 0, 38, 112
2, 4096, Note_on_c, 0, 50, 0
2, 4101, Note_on_c, 0, 38, 0
2, 4101, Control_c, 0, 64, 0
2, 4123, Note_on_c, 0, 49, 122
2, 4124, Note_on_c, 0, 37, 111
2, 4154, Note_on_c, 0, 37, 0
2, 4158, Note_on_c, 0, 49, 0
2, 4162, Control_c, 0, 64, 127
2, 4188, Note_on_c, 0, 73, 100
2, 4188, Note_on_c, 0, 68, 104
2, 4188, Note_on_c, 0, 77, 114
2, 4195, Note_on_c, 0, 49, 98
2, 4197, Note_on_c, 0, 61, 89
2, 4203, Note_on_c, 0, 49, 0
2, 4206, Note_on_c, 0, 61, 0
2, 4240, Note_on_c, 0, 61, 94
2, 4242, Note_on_c, 0, 65, 100
2, 4242, Note_on_c, 0, 49, 95
2, 4246, Note_on_c, 0, 77, 0
2, 4246, Note_on_c, 0, 68, 0
2, 4251, Note_on_c, 0, 49, 0
2, 4260, Note_on_c, 0, 65, 0
2, 4260, Note_on_c, 0, 73, 0
2, 4261, Note_on_c, 0, 61, 0
2, 4280, Note_on_c, 0, 61, 98
2, 4283, Note_on_c, 0, 49, 92
2, 4293, Note_on_c, 0, 49, 0
2, 4301, Note_on_c, 0, 61, 0
2, 4316, Note_on_c, 0, 70, 102
2, 4317, Note_on_c, 0, 79, 108
2, 4317, Note_on_c, 0, 61, 95
2, 4318, Note_on_c, 0, 75, 81
2, 4320, Note_on_c, 0, 49, 88
2, 4339, Note_on_c, 0, 49, 0
2, 4341, Note_on_c, 0, 61, 0
2, 4353, Note_on_c, 0, 67, 95
2, 4354, Note_on_c, 0, 79, 0
2, 4357, Note_on_c, 0, 61, 97
2, 4358, Note_on_c, 0, 49, 94
2, 4367, Note_on_c, 0, 70, 0
2, 4378, Note_on_c, 0, 61, 0
2, 4380, Note_on_c, 0, 67, 0
2, 4380, Note_on_c, 0, 75, 0
2, 4381, Note_on_c, 0, 49, 0
2, 4381, Control_c, 0, 64, 0
2, 4392, Note_on_c, 0, 60, 113
2, 4392, Note_on_c, 0, 48, 117
2, 4409, Note_on_c, 0, 60, 0
2, 4412, Note_on_c, 0, 48, 0
2, 4423, Control_c, 0, 64, 127
2, 4425, Note_on_c, 0, 80, 104
2, 4427, Note_on_c, 0, 58, 106
2, 4428, Note_on_c, 0, 72, 91
2, 4428, Note_on_c, 0, 75, 87
2, 4429, Note_on_c, 0, 46, 112
2, 4441, Note_on_c, 0, 46, 0
2, 4449, Note_on_c, 0, 58, 0
2, 4461, Note_on_c, 0, 68, 83
2, 4465, Note_on_c, 0, 80, 0
2, 4465, Note_on_c, 0, 72, 0
2, 4467, Note_on_c, 0, 75, 0
2, 4467, Note_on_c, 0, 56, 96
2, 4469, Note_on_c, 0, 44, 95
2, 4482, Note_on_c, 0, 44, 0
2, 4487, Note_on_c, 0, 56, 0
2, 4492, Note_on_c, 0, 68, 0
2, 4497, Note_on_c, 0, 55, 108
2, 4498, Note_on_c, 0, 43, 106
2, 4513, Note_on_c, 0, 43, 0
2, 4518, Note_on_c, 0, 55, 0
2, 4533, Note_on_c, 0, 53, 108
2, 4534, Note_on_c, 0, 75, 88
2, 4534, Note_on_c, 0, 68, 74
2, 4535, Note_on_c, 0, 41, 107
2, 4540, Note_on_c, 0, 72, 83
2, 4543, Note_on_c, 0, 41, 0
2, 4552, Note_on_c, 0, 53, 0
2, 4565, Note_on_c, 0, 63, 93
2, 4566, Note_on_c, 0, 51, 110
2, 4569, Note_on_c, 0, 39, 101
2, 4572, Note_on_c, 0, 68, 0
2, 4578, Note_on_c, 0, 39, 0
2, 4581, Note_on_c, 0, 72, 0
2, 4587, Note_on_c, 0, 51, 0
2, 4588, Note_on_c, 0, 75, 0
2, 4590, Note_on_c, 0, 63, 0
2, 4592, Control_c, 0, 64, 0
2, 4612, Note_on_c, 0, 49, 123
2, 4613, Note_on_c, 0, 37, 113
2, 4634, Note_on_c, 0, 49, 0
2, 4638, Note_on_c, 0, 37, 0
2, 4646, Control_c, 0, 64, 127
2, 4666, Note_on_c, 0, 73, 90
2, 4666, Note_on_c, 0, 68, 98
2, 4667, Note_on_c, 0, 77, 110
2, 4669, Note_on_c, 0, 61, 96
2, 4671, Note_on_c, 0, 49, 90
2, 4680, Note_on_c, 0, 61, 0
2, 4681, Note_on_c, 0, 49, 0
2, 4708, Note_on_c, 0, 61, 86
2, 4711, Note_on_c, 0, 65, 97
2, 4712, Note_on_c, 0, 49, 78
2, 4714, Note_on_c, 0, 68, 0
2, 4722, Note_on_c, 0, 77, 0
2, 4722, Note_on_c, 0, 49, 0
2, 4725, Note_on_c, 0, 65, 0
2, 4731, Note_on_c, 0, 61, 0
2, 4731, Note_on_c, 0, 73, 0
2, 4749, Note_on_c, 0, 61, 90
2, 4752, Note_on_c, 0, 49, 79
2, 4761, Note_on_c, 0, 49, 0
2, 4769, Note_on_c, 0, 61, 0
2, 4782, Note_on_c, 0, 49, 65
2, 4782, Note_on_c, 0, 70, 101
2, 4783, Note_on_c, 0, 79, 104
2, 4783, Note_on_c, 0, 61, 100
2, 4785, Note_on_c, 0, 75, 81
2, 4802, Note_on_c, 0, 61, 0
2, 4802, Note_on_c, 0, 49, 0
2, 4820, Note_on_c, 0, 67, 85
2, 4821, Note_on_c, 0, 61, 92
2, 4822, Note_on_c, 0, 49, 86
2, 4827, Note_on_c, 0, 79, 0
2, 4830, Note_on_c, 0, 70, 0
2, 4844, Note_on_c, 0, 61, 0
2, 4844, Note_on_c, 0, 67, 0
2, 4844, Note_on_c, 0, 49, 0
2, 4845, Note_on_c, 0, 75, 0
2, 4846, Control_c, 0, 64, 0
2, 4857, Note_on_c, 0, 48, 114
2, 4857, Note_on_c, 0, 60, 108
2, 4876, Note_on_c, 0, 60, 0
2, 4879, Note_on_c, 0, 48, 0
2, 4888, Control_c, 0, 64, 127
2, 4889, Note_on_c, 0, 80, 100
2, 4891, Note_on_c, 0, 72, 91
2, 4891, Note_on_c, 0, 75, 84
2, 4892, Note_on_c, 0, 58, 106
2, 4892, Note_on_c, 0, 46, 111
2, 4900, Note_on_c, 0, 46, 0
2, 4901, Note_on_c, 0, 58, 0
2, 4922, Note_on_c, 0, 68, 91
2, 4924, Note_on_c, 0, 56, 104
2, 4927, Note_on_c, 0, 44, 88
2, 4932, Note_on_c, 0, 72, 0
2, 4937, Note_on_c, 0, 75, 0
2, 4943, Note_on_c, 0, 80, 0
2, 4946, Note_on_c, 0, 44, 0
2, 4948, Note_on_c, 0, 56, 0
2, 4950, Note_on_c, 0, 68, 0
2, 4960, Note_on_c, 0, 55, 108
2, 4960, Note_on_c, 0, 43, 111
2, 4983, Note_on_c, 0, 55, 0
2, 4984, Note_on_c, 0, 43, 0
2, 4994, Note_on_c, 0, 79, 104
2, 4995, Note_on_c, 0, 75, 86
2, 4995, Note_on_c, 0, 72, 100
2, 5000, Note_on_c, 0, 53, 106
2, 5002, Note_on_c, 0, 41, 107
2, 5010, Note_on_c, 0, 41, 0
2, 5013, Note_on_c, 0, 53, 0
2, 5027, Note_on_c, 0, 67, 94
2, 5034, Note_on_c, 0, 51, 105
2, 5036, Note_on_c, 0, 39, 100
2, 5037, Note_on_c, 0, 79, 0
2, 5042, Note_on_c, 0, 72, 0
2, 5044, Note_on_c, 0, 75, 0
2, 5051, Note_on_c, 0, 39, 0
2, 5058, Note_on_c, 0, 51, 0
2, 5065, Control_c, 0, 64, 0
2, 5081, Note_on_c, 0, 38, 119
2, 5082, Note_on_c, 0, 67, 0
2, 5082, Note_on_c, 0, 50, 120
2, 5111, Note_on_c, 0, 38, 0
2, 5118, Note_on_c, 0, 50, 0
2, 5122, Control_c, 0, 64, 127
2, 5138, Note_on_c, 0, 68, 93
2, 5139, Note_on_c, 0, 77, 108
2, 5140, Note_on_c, 0, 74, 83
2, 5146, Note_on_c, 0, 60, 96
2, 5148, Note_on_c, 0, 48, 88
2, 5155, Note_on_c, 0, 60, 0
2, 5157, Note_on_c, 0, 48, 0
2, 5184, Note_on_c, 0, 65, 94
2, 5189, Note_on_c, 0, 48, 78
2, 5189, Note_on_c, 0, 60, 84
2, 5190, Note_on_c, 0, 74, 0
2, 5192, Note_on_c, 0, 68, 0
2, 5199, Note_on_c, 0, 48, 0
2, 5200, Note_on_c, 0, 77, 0
2, 5201, Note_on_c, 0, 60, 0
2, 5209, Note_on_c, 0, 65, 0
2, 5227, Note_on_c, 0, 60, 84
2, 5229, Note_on_c, 0, 48, 95
2, 5248, Note_on_c, 0, 48, 0
2, 5248, Note_on_c, 0, 60, 0
2, 5264, Note_on_c, 0, 60, 94
2, 5265, Note_on_c, 0, 48, 103
2, 5265, Note_on_c, 0, 78, 100
2, 5265, Note_on_c, 0, 69, 97
2, 5265, Note_on_c, 0, 74, 90
2, 5284, Note_on_c, 0, 60, 0
2, 5288, Note_on_c, 0, 74, 0
2, 5289, Note_on_c, 0, 48, 0
2, 5301, Note_on_c, 0, 66, 90
2, 5303, Note_on_c, 0, 60, 88
2, 5304, Note_on_c, 0, 69, 0
2, 5304, Note_on_c, 0, 48, 108
2, 5317, Note_on_c, 0, 78, 0
2, 5321, Note_on_c, 0, 48, 0
2, 5324, Note_on_c, 0, 60, 0
2, 5326, Note_on_c, 0, 66, 0
2, 5341, Note_on_c, 0, 58, 114
2, 5341, Note_on_c, 0, 46, 114
2, 5345, Control_c, 0, 64, 0
2, 5362, Note_on_c, 0, 58, 0
2, 5376, Note_on_c, 0, 57, 106
2, 5376, Note_on_c, 0, 45, 108
2, 5377, Note_on_c, 0, 46, 0
2, 5379, Note_on_c, 0, 70, 98
2, 5380, Note_on_c, 0, 79, 103
2, 5384, Note_on_c, 0, 74, 89
2, 5388, Control_c, 0, 64, 127
2, 5398, Note_on_c, 0, 45, 0
2, 5398, Note_on_c, 0, 57, 0
2, 5403, Note_on_c, 0, 74, 0
2, 5406, Note_on_c, 0, 79, 0
2, 5412, Note_on_c, 0, 67, 97
2, 5415, Note_on_c, 0, 43, 105
2, 5415, Note_on_c, 0, 55, 100
2, 5418, Note_on_c, 0, 70, 0
2, 5422, Note_on_c, 0, 55, 0
2, 5424, Note_on_c, 0, 43, 0
2, 5438, Note_on_c, 0, 67, 0
2, 5449, Note_on_c, 0, 51, 103
2, 5451, Note_on_c, 0, 39, 102
2, 5463, Note_on_c, 0, 39, 0
2, 5466, Note_on_c, 0, 51, 0
2, 5479, Note_on_c, 0, 72, 89
2, 5480, Note_on_c, 0, 69, 83
2, 5483, Note_on_c, 0, 67, 74
2, 5484, Note_on_c, 0, 50, 107
2, 5485, Note_on_c, 0, 38, 105
2, 5497, Note_on_c, 0, 38, 0
2, 5502, Note_on_c, 0, 50, 0
2, 5508, Note_on_c, 0, 67, 0
2, 5508, Note_on_c, 0, 69, 0
2, 5511, Note_on_c, 0, 60, 86
2, 5522, Note_on_c, 0, 48, 110
2, 5523, Note_on_c, 0, 36, 108
2, 5537, Note_on_c, 0, 48, 0
2, 5538, Note_on_c, 0, 36, 0
2, 5538, Note_on_c, 0, 60, 0
2, 5545, Control_c, 0, 64, 0
2, 5547, Note_on_c, 0, 72, 0
2, 5558, Note_on_c, 0, 46, 119
2, 5559, Note_on_c, 0, 34, 119
2, 5592, Note_on_c, 0, 70, 102
2, 5593, Note_on_c, 0, 74, 101
2, 5594, Note_on_c, 0, 67, 88
2, 5623, Note_on_c, 0, 74, 0
2, 5626, Control_c, 0, 64, 127
2, 5626, Note_on_c, 0, 62, 96
2, 5628, Note_on_c, 0, 67, 0
2, 5630, Note_on_c, 0, 34, 0
2, 5632, Note_on_c, 0, 70, 0
2, 5633, Note_on_c, 0, 46, 0
2, 5641, Note_on_c, 0, 62, 0
2, 5666, Note_on_c, 0, 51, 109
2, 5667, Note_on_c, 0, 39, 101
2, 5668, Control_c, 0, 64, 0
2, 5696, Note_on_c, 0, 63, 86
2, 5698, Note_on_c, 0, 67, 101
2, 5699, Note_on_c, 0, 58, 97
2, 5718, Note_on_c, 0, 51, 0
2, 5722, Control_c, 0, 64, 127
2, 5726, Note_on_c, 0, 67, 0
2, 5729, Note_on_c, 0, 39, 0
2, 5734, Note_on_c, 0, 55, 95
2, 5756, Note_on_c, 0, 58, 0
2, 5757, Note_on_c, 0, 55, 0
2, 5759, Note_on_c, 0, 63, 0
2, 5779, Note_on_c, 0, 33, 104
2, 5781, Note_on_c, 0, 45, 108
2, 5787, Control_c, 0, 64, 0
2, 5815, Note_on_c, 0, 63, 86
2, 5818, Note_on_c, 0, 72, 100
2, 5819, Note_on_c, 0, 67, 84
2, 5831, Note_on_c, 0, 33, 0
2, 5841, Note_on_c, 0, 45, 0
2, 5845, Control_c, 0, 64, 127
2, 5849, Note_on_c, 0, 72, 0
2, 5851, Note_on_c, 0, 60, 93
2, 5860, Note_on_c, 0, 63, 0
2, 5876, Note_on_c, 0, 60, 0
2, 5882, Note_on_c, 0, 50, 104
2, 5883, Note_on_c, 0, 38, 99
2, 5891, Control_c, 0, 64, 0
2, 5892, Note_on_c, 0, 67, 0
2, 5915, Note_on_c, 0, 70, 98
2, 5917, Note_on_c, 0, 66, 82
2, 5937, Control_c, 0, 64, 127
2, 5956, Note_on_c, 0, 60, 87
2, 5956, Note_on_c, 0, 69, 92
2, 5962, Note_on_c, 0, 50, 0
2, 5965, Note_on_c, 0, 38, 0
2, 5967, Note_on_c, 0, 70, 0
2, 5971, Note_on_c, 0, 66, 0
2, 5977, Note_on_c, 0, 60, 0
2, 5986, Note_on_c, 0, 69, 0
2, 5994, Control_c, 0, 64, 0
2, 6018, Note_on_c, 0, 49, 100
2, 6019, Note_on_c, 0, 37, 90
2, 6042, Note_on_c, 0, 49, 0
2, 6044, Note_on_c, 0, 37, 0
2, 6048, Control_c, 0, 64, 127
2, 6078, Note_on_c, 0, 68, 59
2, 6079, Note_on_c, 0, 77, 85
2, 6081, Note_on_c, 0, 73, 54
2, 6081, Note_on_c, 0, 61, 84
2, 6081, Note_on_c, 0, 49, 84
2, 6091, Note_on_c, 0, 49, 0
2, 6091, Note_on_c, 0, 61, 0
2, 6101, Note_on_c, 0, 68, 0
2, 6115, Note_on_c, 0, 73, 0
2, 6117, Note_on_c, 0, 77, 0
2, 6118, Note_on_c, 0, 61, 57
2, 6118, Note_on_c, 0, 65, 75
2, 6121, Note_on_c, 0, 49, 40
2, 6130, Note_on_c, 0, 65, 0
2, 6131, Note_on_c, 0, 61, 0
2, 6137, Note_on_c, 0, 49, 0
2, 6153, Note_on_c, 0, 61, 79
2, 6153, Note_on_c, 0, 49, 80
2, 6174, Note_on_c, 0, 49, 0
2, 6174, Note_on_c, 0, 61, 0
2, 6186, Note_on_c, 0, 70, 98
2, 6187, Note_on_c, 0, 79, 102
2, 6189, Note_on_c, 0, 75, 79
2, 6192, Note_on_c, 0, 61, 85
2, 6192, Note_on_c, 0, 49, 85
2, 6214, Note_on_c, 0, 49, 0
2, 6214, Note_on_c, 0, 61, 0
2, 6218, Note_on_c, 0, 79, 0
2, 6219, Note_on_c, 0, 67, 92
2, 6228, Note_on_c, 0, 70, 0
2, 6229, Note_on_c, 0, 61, 97
2, 6229, Note_on_c, 0, 49, 96
2, 6244, Note_on_c, 0, 67, 0
2, 6244, Note_on_c, 0, 75, 0
2, 6249, Note_on_c, 0, 49, 0
2, 6255, Note_on_c, 0, 61, 0
2, 6259, Control_c, 0, 64, 0
2, 6265, Note_on_c, 0, 48, 111
2, 6265, Note_on_c, 0, 60, 107
2, 6283, Note_on_c, 0, 60, 0
2, 6283, Note_on_c, 0, 48, 0
2, 6294, Control_c, 0, 64, 127
2, 6295, Note_on_c, 0, 80, 97
2, 6298, Note_on_c, 0, 72, 89
2, 6298, Note_on_c, 0, 75, 75
2, 6300, Note_on_c, 0, 58, 113
2, 6302, Note_on_c, 0, 46, 111
2, 6311, Note_on_c, 0, 46, 0
2, 6323, Note_on_c, 0, 58, 0
2, 6334, Note_on_c, 0, 68, 87
2, 6335, Note_on_c, 0, 72, 0
2, 6336, Note_on_c, 0, 80, 0
2, 6338, Note_on_c, 0, 56, 98
2, 6339, Note_on_c, 0, 75, 0
2, 6342, Note_on_c, 0, 44, 93
2, 6351, Note_on_c, 0, 44, 0
2, 6361, Note_on_c, 0, 56, 0
2, 6362, Note_on_c, 0, 68, 0
2, 6371, Note_on_c, 0, 55, 106
2, 6372, Note_on_c, 0, 43, 105
2, 6381, Note_on_c, 0, 55, 0
2, 6382, Note_on_c, 0, 43, 0
2, 6406, Note_on_c, 0, 68, 78
2, 6406, Note_on_c, 0, 75, 90
2, 6409, Note_on_c, 0, 72, 92
2, 6409, Note_on_c, 0, 53, 101
2, 6410, Note_on_c, 0, 41, 101
2, 6417, Note_on_c, 0, 41, 0
2, 6420, Note_on_c, 0, 53, 0
2, 6422, Note_on_c, 0, 72, 0
2, 6434, Note_on_c, 0, 68, 0
2, 6435, Note_on_c, 0, 63, 95
2, 6442, Note_on_c, 0, 51, 103
2, 6444, Note_on_c, 0, 39, 93
2, 6451, Note_on_c, 0, 39, 0
2, 6451, Note_on_c, 0, 51, 0
2, 6453, Note_on_c, 0, 63, 0
2, 6455, Note_on_c, 0, 75, 0
2, 6456, Control_c, 0, 64, 0
2, 6472, Note_on_c, 0, 49, 114
2, 6475, Note_on_c, 0, 37, 102
2, 6482, Note_on_c, 0, 37, 0
2, 6488, Note_on_c, 0, 49, 0
2, 6502, Control_c, 0, 64, 127
2, 6508, Note_on_c, 0, 68, 99
2, 6510, Note_on_c, 0, 73, 92
2, 6511, Note_on_c, 0, 77, 109
2, 6516, Note_on_c, 0, 61, 105
2, 6516, Note_on_c, 0, 49, 81
2, 6525, Note_on_c, 0, 61, 0
2, 6526, Note_on_c, 0, 49, 0
2, 6541, Note_on_c, 0, 68, 0
2, 6543, Note_on_c, 0, 65, 97
2, 6545, Note_on_c, 0, 61, 82
2, 6546, Note_on_c, 0, 49, 75
2, 6552, Note_on_c, 0, 73, 0
2, 6555, Note_on_c, 0, 77, 0
2, 6558, Note_on_c, 0, 49, 0
2, 6561, Note_on_c, 0, 61, 0
2, 6570, Note_on_c, 0, 65, 0
2, 6576, Note_on_c, 0, 61, 100
2, 6577, Note_on_c, 0, 49, 82
2, 6592, Note_on_c, 0, 49, 0
2, 6598, Note_on_c, 0, 61, 0
2, 6613, Note_on_c, 0, 61, 102
2, 6613, Note_on_c, 0, 79, 115
2, 6615, Note_on_c, 0, 70, 105
2, 6615, Note_on_c, 0, 49, 87
2, 6616, Note_on_c, 0, 75, 88
2, 6625, Note_on_c, 0, 49, 0
2, 6634, Note_on_c, 0, 61, 0
2, 6648, Note_on_c, 0, 61, 106
2, 6648, Note_on_c, 0, 49, 80
2, 6649, Note_on_c, 0, 75, 0
2, 6649, Note_on_c, 0, 67, 95
2, 6660, Note_on_c, 0, 70, 0
2, 6667, Note_on_c, 0, 61, 0
2, 6670, Note_on_c, 0, 49, 0
2, 6673, Note_on_c, 0, 67, 0
2, 6674, Note_on_c, 0, 79, 0
2, 6689, Note_on_c, 0, 48, 118
2, 6689, Note_on_c, 0, 60, 113
2, 6712, Note_on_c, 0, 60, 0
2, 6717, Note_on_c, 0, 48, 0
2, 6734, Note_on_c, 0, 80, 109
2, 6735, Note_on_c, 0, 58, 115
2, 6737, Note_on_c, 0, 72, 98
2, 6737, Note_on_c, 0, 75, 92
2, 6738, Note_on_c, 0, 46, 106
2, 6747, Note_on_c, 0, 46, 0
2, 6750, Note_on_c, 0, 58, 0
2, 6773, Note_on_c, 0, 68, 97
2, 6774, Note_on_c, 0, 56, 101
2, 6774, Control_c, 0, 64, 0
2, 6776, Note_on_c, 0, 44, 100
2, 6786, Note_on_c, 0, 44, 0
2, 6796, Note_on_c, 0, 56, 0
2, 6800, Note_on_c, 0, 72, 0
2, 6807, Note_on_c, 0, 55, 112
2, 6808, Note_on_c, 0, 43, 110
2, 6809, Control_c, 0, 64, 127
2, 6812, Note_on_c, 0, 75, 0
2, 6824, Note_on_c, 0, 55, 0
2, 6825, Note_on_c, 0, 43, 0
2, 6829, Note_on_c, 0, 68, 0
2, 6835, Note_on_c, 0, 80, 0
2, 6847, Note_on_c, 0, 53, 106
2, 6848, Note_on_c, 0, 79, 107
2, 6848, Note_on_c, 0, 41, 109
2, 6850, Note_on_c, 0, 75, 79
2, 6850, Note_on_c, 0, 72, 96
2, 6856, Note_on_c, 0, 41, 0
2, 6865, Note_on_c, 0, 53, 0
2, 6883, Note_on_c, 0, 51, 109
2, 6884, Note_on_c, 0, 67, 90
2, 6885, Note_on_c, 0, 39, 104
2, 6889, Note_on_c, 0, 79, 0
2, 6894, Note_on_c, 0, 75, 0
2, 6894, Note_on_c, 0, 72, 0
2, 6901, Note_on_c, 0, 39, 0
2, 6908, Note_on_c, 0, 51, 0
2, 6913, Control_c, 0, 64, 0
2, 6920, Note_on_c, 0, 50, 117
2, 6921, Note_on_c, 0, 38, 117
2, 6932, Note_on_c, 0, 67, 0
2, 6936, Note_on_c, 0, 38, 0
2, 6944, Note_on_c, 0, 50, 0
2, 6951, Control_c, 0, 64, 127
2, 6962, Note_on_c, 0, 68, 102
2, 6963, Note_on_c, 0, 77, 111
2, 6965, Note_on_c, 0, 74, 86
2, 6971, Note_on_c, 0, 60, 97
2, 6973, Note_on_c, 0, 48, 95
2, 6980, Note_on_c, 0, 48, 0
2, 6980, Note_on_c, 0, 60, 0
2, 7005, Note_on_c, 0, 48, 67
2, 7006, Note_on_c, 0, 60, 81
2, 7008, Note_on_c, 0, 65, 97
2, 7017, Note_on_c, 0, 68, 0
2, 7025, Note_on_c, 0, 48, 0
2, 7027, Note_on_c, 0, 60, 0
2, 7028, Note_on_c, 0, 74, 0
2, 7042, Note_on_c, 0, 77, 0
2, 7043, Note_on_c, 0, 65, 0
2, 7048, Note_on_c, 0, 60, 101
2, 7050, Note_on_c, 0, 48, 100
2, 7069, Note_on_c, 0, 48, 0
2, 7069, Note_on_c, 0, 60, 0
2, 7086, Note_on_c, 0, 78, 106
2, 7088, Note_on_c, 0, 74, 97
2, 7089, Note_on_c, 0, 69, 101
2, 7092, Note_on_c, 0, 60, 87
2, 7093, Note_on_c, 0, 48, 89
2, 7102, Note_on_c, 0, 48, 0
2, 7105, Note_on_c, 0, 60, 0
2, 7120, Note_on_c, 0, 69, 0
2, 7120, Note_on_c, 0, 74, 0
2, 7125, Note_on_c, 0, 66, 98
2, 7125, Note_on_c, 0, 60, 90
2, 7126, Note_on_c, 0, 48, 89
2, 7135, Note_on_c, 0, 48, 0
2, 7143, Note_on_c, 0, 60, 0
2, 7150, Note_on_c, 0, 66, 0
2, 7161, Note_on_c, 0, 78, 0
2, 7161, Note_on_c, 0, 58, 116
2, 7162, Note_on_c, 0, 46, 115
2, 7170, Control_c, 0, 64, 0
2, 7187, Note_on_c, 0, 58, 0
2, 7191, Note_on_c, 0, 57, 110
2, 7192, Note_on_c, 0, 79, 111
2, 7192, Note_on_c, 0, 70, 95
2, 7193, Note_on_c, 0, 45, 113
2, 7195, Note_on_c, 0, 74, 88
2, 7202, Note_on_c, 0, 46, 0
2, 7204, Control_c, 0, 64, 127
2, 7210, Note_on_c, 0, 57, 0
2, 7215, Note_on_c, 0, 45, 0
2, 7227, Note_on_c, 0, 79, 0
2, 7228, Note_on_c, 0, 74, 0
2, 7228, Note_on_c, 0, 43, 108
2, 7229, Note_on_c, 0, 55, 106
2, 7232, Note_on_c, 0, 67, 98
2, 7239, Note_on_c, 0, 70, 0
2, 7243, Note_on_c, 0, 55, 0
2, 7244, Note_on_c, 0, 43, 0
2, 7257, Note_on_c, 0, 67, 0
2, 7264, Note_on_c, 0, 51, 104
2, 7266, Note_on_c, 0, 39, 101
2, 7274, Note_on_c, 0, 39, 0
2, 7279, Note_on_c, 0, 51, 0
2, 7296, Note_on_c, 0, 50, 111
2, 7297, Note_on_c, 0, 72, 101
2, 7299, Note_on_c, 0, 38, 107
2, 7299, Note_on_c, 0, 69, 92
2, 7299, Note_on_c, 0, 67, 84
2, 7308, Note_on_c, 0, 38, 0
2, 7314, Note_on_c, 0, 50, 0
2, 7326, Note_on_c, 0, 69, 0
2, 7329, Note_on_c, 0, 67, 0
2, 7329, Note_on_c, 0, 60, 103
2, 7335, Note_on_c, 0, 48, 107
2, 7335, Note_on_c, 0, 36, 107
2, 7343, Note_on_c, 0, 36, 0
2, 7352, Note_on_c, 0, 48, 0
2, 7354, Note_on_c, 0, 60, 0
2, 7371, Note_on_c, 0, 46, 125
2, 7372, Note_on_c, 0, 72, 0
2, 7372, Note_on_c, 0, 34, 118
2, 7374, Control_c, 0, 64, 0
2, 7404, Note_on_c, 0, 70, 106
2, 7406, Note_on_c, 0, 74, 105
2, 7407, Note_on_c, 0, 67, 88
2, 7431, Control_c, 0, 64, 127
2, 7434, Note_on_c, 0, 74, 0
2, 7434, Note_on_c, 0, 46, 0
2, 7436, Note_on_c, 0, 62, 100
2, 7437, Note_on_c, 0, 34, 0
2, 7440, Note_on_c, 0, 67, 0
2, 7444, Note_on_c, 0, 70, 0
2, 7455, Note_on_c, 0, 62, 0
2, 7486, Note_on_c, 0, 51, 110
2, 7486, Note_on_c, 0, 39, 103
2, 7512, Note_on_c, 0, 63, 87
2, 7513, Note_on_c, 0, 67, 104
2, 7514, Note_on_c, 0, 58, 98
2, 7528, Note_on_c, 0, 51, 0
2, 7533, Note_on_c, 0, 39, 0
2, 7542, Note_on_c, 0, 67, 0
2, 7544, Note_on_c, 0, 55, 98
2, 7554, Note_on_c, 0, 63, 0
2, 7559, Note_on_c, 0, 58, 0
2, 7563, Note_on_c, 0, 55, 0
2, 7585, Control_c, 0, 64, 0
2, 7586, Note_on_c, 0, 33, 114
2, 7586, Note_on_c, 0, 45, 117
2, 7614, Note_on_c, 0, 63, 91
2, 7614, Note_on_c, 0, 72, 108
2, 7617, Note_on_c, 0, 67, 92
2, 7625, Note_on_c, 0, 33, 0
2, 7635, Note_on_c, 0, 45, 0
2, 7635, Control_c, 0, 64, 127
2, 7651, Note_on_c, 0, 60, 100
2, 7656, Note_on_c, 0, 72, 0
2, 7666, Note_on_c, 0, 63, 0
2, 7680, Note_on_c, 0, 67, 0
2, 7684, Note_on_c, 0, 60, 0
2, 7684, Note_on_c, 0, 38, 104
2, 7684, Note_on_c, 0, 50, 111
2, 7689, Control_c, 0, 64, 0
2, 7710, Note_on_c, 0, 66, 103
2, 7711, Note_on_c, 0, 70, 108
2, 7727, Note_on_c, 0, 50, 0
2, 7731, Control_c, 0, 64, 127
2, 7739, Note_on_c, 0, 38, 0
2, 7740, Note_on_c, 0, 60, 97
2, 7741, Note_on_c, 0, 69, 102
2, 7751, Note_on_c, 0, 66, 0
2, 7765, Note_on_c, 0, 70, 0
2, 7768, Note_on_c, 0, 60, 0
2, 7776, Note_on_c, 0, 46, 123
2, 7777, Note_on_c, 0, 34, 114
2, 7778, Note_on_c, 0, 69, 0
2, 7781, Control_c, 0, 64, 0
2, 7804, Note_on_c, 0, 74, 114
2, 7805, Note_on_c, 0, 67, 89
2, 7808, Note_on_c, 0, 70, 98
2, 7827, Control_c, 0, 64, 127
2, 7831, Note_on_c, 0, 34, 0
2, 7831, Note_on_c, 0, 46, 0
2, 7833, Note_on_c, 0, 62, 100
2, 7835, Note_on_c, 0, 67, 0
2, 7838, Note_on_c, 0, 74, 0
2, 7843, Note_on_c, 0, 70, 0
2, 7854, Note_on_c, 0, 62, 0
2, 7872, Note_on_c, 0, 51, 114
2, 7873, Note_on_c, 0, 39, 105
2, 7885, Control_c, 0, 64, 0
2, 7895, Note_on_c, 0, 58, 106
2, 7897, Note_on_c, 0, 67, 108
2, 7897, Note_on_c, 0, 63, 85
2, 7909, Note_on_c, 0, 51, 0
2, 7915, Control_c, 0, 64, 127
2, 7917, Note_on_c, 0, 39, 0
2, 7928, Note_on_c, 0, 55, 107
2, 7937, Note_on_c, 0, 58, 0
2, 7941, Note_on_c, 0, 67, 0
2, 7945, Note_on_c, 0, 63, 0
2, 7951, Note_on_c, 0, 55, 0
2, 7968, Note_on_c, 0, 45, 119
2, 7969, Note_on_c, 0, 33, 108
2, 7981, Control_c, 0, 64, 0
2, 7999, Note_on_c, 0, 63, 92
2, 7999, Note_on_c, 0, 72, 112
2, 8001, Note_on_c, 0, 67, 95
2, 8022, Note_on_c, 0, 67, 0
2, 8027, Control_c, 0, 64, 127
2, 8032, Note_on_c, 0, 72, 0
2, 8040, Note_on_c, 0, 33, 0
2, 8040, Note_on_c, 0, 60, 94
2, 8040, Note_on_c, 0, 66, 97
2, 8041, Note_on_c, 0, 45, 0
2, 8050, Note_on_c, 0, 63, 0
2, 8067, Note_on_c, 0, 60, 0
2, 8070, Note_on_c, 0, 66, 0
2, 8073, Note_on_c, 0, 46, 124
2, 8074, Note_on_c, 0, 34, 117
2, 8092, Control_c, 0, 64, 0
2, 8112, Note_on_c, 0, 46, 0
2, 8113, Note_on_c, 0, 58, 105
2, 8114, Note_on_c, 0, 45, 106
2, 8114, Note_on_c, 0, 63, 74
2, 8115, Note_on_c, 0, 33, 105
2, 8115, Note_on_c, 0, 67, 105
2, 8134, Control_c, 0, 64, 127
2, 8136, Note_on_c, 0, 34, 0
2, 8142, Note_on_c, 0, 45, 0
2, 8145, Note_on_c, 0, 33, 0
2, 8146, Note_on_c, 0, 67, 0
2, 8153, Note_on_c, 0, 55, 95
2, 8162, Note_on_c, 0, 63, 0
2, 8171, Note_on_c, 0, 58, 0
2, 8184, Note_on_c, 0, 55, 0
2, 8212, Note_on_c, 0, 43, 115
2, 8213, Note_on_c, 0, 31, 116
2, 8231, Note_on_c, 0, 43, 0
2, 8234, Note_on_c, 0, 31, 0
2, 8244, Note_on_c, 0, 43, 115
2, 8245, Note_on_c, 0, 31, 115
2, 8291, Note_on_c, 0, 63, 94
2, 8292, Control_c, 0, 64, 0
2, 8293, Note_on_c, 0, 60, 89
2, 8293, Note_on_c, 0, 57, 88
2, 8329, Note_on_c, 0, 60, 0
2, 8329, Note_on_c, 0, 51, 101
2, 8339, Note_on_c, 0, 57, 0
2, 8346, Control_c, 0, 64, 127
2, 8353, Note_on_c, 0, 31, 0
2, 8355, Note_on_c, 0, 43, 0
2, 8355, Note_on_c, 0, 63, 0
2, 8356, Note_on_c, 0, 51, 0
2, 8370, Note_on_c, 0, 62, 98
2, 8371, Note_on_c, 0, 50, 95
2, 8371, Note_on_c, 0, 57, 42
2, 8373, Note_on_c, 0, 60, 88
2, 8380, Note_on_c, 0, 52, 49
2, 8392, Note_on_c, 0, 52, 0
2, 8400, Note_on_c, 0, 42, 101
2, 8401, Note_on_c, 0, 30, 96
2, 8407, Note_on_c, 0, 50, 0
2, 8408, Note_on_c, 0, 57, 0
2, 8409, Note_on_c, 0, 30, 0
2, 8418, Note_on_c, 0, 42, 0
2, 8418, Note_on_c, 0, 60, 0
2, 8430, Note_on_c, 0, 62, 0
2, 8436, Note_on_c, 0, 45, 113
2, 8437, Note_on_c, 0, 33, 110
2, 8460, Note_on_c, 0, 45, 0
2, 8461, Note_on_c, 0, 33, 0
2, 8473, Note_on_c, 0, 45, 122
2, 8473, Note_on_c, 0, 33, 121
2, 8503, Control_c, 0, 64, 0
2, 8505, Note_on_c, 0, 66, 102
2, 8505, Note_on_c, 0, 60, 100
2, 8506, Note_on_c, 0, 63, 94
2, 8539, Note_on_c, 0, 54, 95
2, 8558, Note_on_c, 0, 33, 0
2, 8561, Control_c, 0, 64, 127
2, 8562, Note_on_c, 0, 45, 0
2, 8563, Note_on_c, 0, 63, 0
2, 8564, Note_on_c, 0, 66, 0
2, 8565, Note_on_c, 0, 54, 0
2, 8567, Note_on_c, 0, 60, 0
2, 8578, Note_on_c, 0, 63, 97
2, 8578, Note_on_c, 0, 67, 111
2, 8581, Note_on_c, 0, 55, 103
2, 8610, Note_on_c, 0, 46, 113
2, 8611, Note_on_c, 0, 34, 106
2, 8621, Note_on_c, 0, 34, 0
2, 8621, Note_on_c, 0, 46, 0
2, 8635, Note_on_c, 0, 55, 0
2, 8641, Note_on_c, 0, 63, 0
2, 8644, Note_on_c, 0, 43, 112
2, 8645, Note_on_c, 0, 31, 115
2, 8658, Note_on_c, 0, 67, 0
2, 8662, Note_on_c, 0, 43, 0
2, 8664, Note_on_c, 0, 31, 0
2, 8683, Note_on_c, 0, 33, 117
2, 8683, Note_on_c, 0, 45, 123
2, 8695, Control_c, 0, 64, 0
2, 8715, Note_on_c, 0, 66, 104
2, 8716, Note_on_c, 0, 60, 104
2, 8717, Note_on_c, 0, 63, 95
2, 8747, Note_on_c, 0, 54, 95
2, 8757, Control_c, 0, 64, 127
2, 8765, Note_on_c, 0, 60, 0
2, 8765, Note_on_c, 0, 33, 0
2, 8766, Note_on_c, 0, 45, 0
2, 8766, Note_on_c, 0, 54, 0
2, 8771, Note_on_c, 0, 63, 0
2, 8772, Note_on_c, 0, 66, 0
2, 8785, Note_on_c, 0, 63, 90
2, 8786, Note_on_c, 0, 67, 115
2, 8788, Note_on_c, 0, 55, 111
2, 8810, Note_on_c, 0, 55, 0
2, 8812, Note_on_c, 0, 46, 115
2, 8813, Note_on_c, 0, 34, 106
2, 8822, Note_on_c, 0, 63, 0
2, 8827, Note_on_c, 0, 46, 0
2, 8834, Note_on_c, 0, 67, 0
2, 8841, Note_on_c, 0, 34, 0
2, 8848, Note_on_c, 0, 31, 114
2, 8848, Note_on_c, 0, 43, 111
2, 8865, Note_on_c, 0, 31, 0
2, 8872, Note_on_c, 0, 43, 0
2, 8893, Note_on_c, 0, 33, 119
2, 8893, Note_on_c, 0, 45, 125
2, 8922, Control_c, 0, 64, 0
2, 8936, Note_on_c, 0, 78, 111
2, 8937, Note_on_c, 0, 75, 103
2, 8938, Note_on_c, 0, 72, 118
2, 8974, Note_on_c, 0, 75, 0
2, 8975, Note_on_c, 0, 66, 96
2, 8983, Control_c, 0, 64, 127
2, 8998, Note_on_c, 0, 72, 0
2, 9000, Note_on_c, 0, 78, 0
2, 9001, Note_on_c, 0, 66, 0
2, 9007, Note_on_c, 0, 45, 0
2, 9012, Note_on_c, 0, 79, 113
2, 9013, Note_on_c, 0, 33, 0
2, 9013, Note_on_c, 0, 75, 96
2, 9013, Note_on_c, 0, 67, 113
2, 9046, Note_on_c, 0, 46, 121
2, 9046, Note_on_c, 0, 34, 106
2, 9065, Note_on_c, 0, 67, 0
2, 9076, Note_on_c, 0, 46, 0
2, 9077, Note_on_c, 0, 75, 0
2, 9081, Note_on_c, 0, 79, 0
2, 9086, Note_on_c, 0, 34, 0
2, 9090, Note_on_c, 0, 43, 115
2, 9091, Note_on_c, 0, 31, 119
2, 9106, Control_c, 0, 64, 0
2, 9145, Control_c, 0, 64, 127
2, 9148, Note_on_c, 0, 43, 0
2, 9159, Note_on_c, 0, 31, 0
2, 9189, Note_on_c, 0, 82, 116
2, 9189, Note_on_c, 0, 87, 81
2, 9190, Note_on_c, 0, 91, 118
2, 9190, Note_on_c, 0, 79, 118
2, 9191, Note_on_c, 0, 37, 118
2, 9193, Note_on_c, 0, 25, 117
2, 9300, Note_on_c, 0, 37, 0
2, 9301, Note_on_c, 0, 79, 0
2, 9307, Note_on_c, 0, 25, 0
2, 9319, Note_on_c, 0, 82, 0
2, 9335, Note_on_c, 0, 87, 0
2, 9339, Note_on_c, 0, 91, 0
2, 9379, Control_c, 0, 64, 0
2, 9599, Note_on_c, 0, 74, 117
2, 9600, Note_on_c, 0, 62, 115
2, 9600, Note_on_c, 0, 70, 112
2, 9601, Note_on_c, 0, 67, 111
2, 9603, Note_on_c, 0, 26, 117
2, 9603, Note_on_c, 0, 38, 115
2, 9671, Control_c, 0, 64, 127
2, 9682, Note_on_c, 0, 26, 0
2, 9686, Note_on_c, 0, 62, 0
2, 9695, Note_on_c, 0, 74, 0
2, 9697, Note_on_c, 0, 67, 0
2, 9699, Note_on_c, 0, 70, 0
2, 9700, Note_on_c, 0, 38, 0
2, 9835, Note_on_c, 0, 66, 108
2, 9835, Note_on_c, 0, 54, 111
2, 9837, Note_on_c, 0, 60, 109
2, 9837, Note_on_c, 0, 50, 110
2, 9837, Note_on_c, 0, 38, 100
2, 9837, Note_on_c, 0, 62, 102
2, 9839, Note_on_c, 0, 45, 107
2, 9864, Control_c, 0, 64, 0
2, 9948, Control_c, 0, 64, 127
2, 10057, Note_on_c, 0, 60, 0
2, 10060, Note_on_c, 0, 50, 0
2, 10070, Note_on_c, 0, 45, 0
2, 10084, Note_on_c, 0, 38, 0
2, 10087, Note_on_c, 0, 62, 0
2, 10130, Note_on_c, 0, 54, 0
2, 10155, Note_on_c, 0, 31, 121
2, 10159, Control_c, 0, 64, 0
2, 10180, Note_on_c, 0, 55, 103
2, 10193, Note_on_c, 0, 66, 0
2, 10197, Note_on_c, 0, 58, 105
2, 10200, Note_on_c, 0, 31, 0
2, 10201, Control_c, 0, 64, 127
2, 10224, Note_on_c, 0, 62, 91
2, 10241, Note_on_c, 0, 67, 117
2, 10244, Note_on_c, 0, 50, 98
2, 10245, Note_on_c, 0, 43, 99
2, 10624, Control_c, 0, 64, 0
2, 10647, Control_c, 0, 64, 127
2, 10755, Control_c, 0, 64, 0
2, 10762, Control_c, 0, 64, 127
2, 11174, Note_on_c, 0, 55, 0
2, 11175, Note_on_c, 0, 62, 0
2, 11178, Control_c, 0, 64, 0
2, 11181, Note_on_c, 0, 58, 0
2, 11191, Note_on_c, 0, 67, 0
2, 11197, Note_on_c, 0, 50, 0
2, 11209, Note_on_c, 0, 43, 0
2, 11209, End_track
0, 0, End_of_file
