0, 0, Header, 1, 2, 480
1, 0, Start_track
1, 0, Time_signature, 4, 2, 24, 8
1, 0, Key_signature, 0, "major"
1, 0, Tempo, 500000
1, 0, End_track
2, 0, Start_track
2, 0, MIDI_port, 0
2, 97, Control_c, 0, 64, 0
2, 490, Note_on_c, 0, 38, 103
2, 547, Control_c, 0, 64, 127
2, 756, Note_on_c, 0, 45, 99
2, 785, Note_on_c, 0, 38, 0
2, 917, Note_on_c, 0, 53, 84
2, 970, Note_on_c, 0, 53, 0
2, 1042, Note_on_c, 0, 45, 0
2, 1049, Note_on_c, 0, 38, 91
2, 1104, Note_on_c, 0, 38, 0
2, 1222, Note_on_c, 0, 57, 92
2, 1334, Note_on_c, 0, 57, 0
2, 1502, Note_on_c, 0, 38, 98
2, 1625, Note_on_c, 0, 45, 92
2, 1630, Note_on_c, 0, 38, 0
2, 1730, Note_on_c, 0, 53, 84
2, 1747, Note_on_c, 0, 45, 0
2, 1769, Note_on_c, 0, 53, 0
2, 1853, Note_on_c, 0, 38, 87
2, 1937, Note_on_c, 0, 38, 0
2, 2030, Note_on_c, 0, 57, 95
2, 2189, Note_on_c, 0, 57, 0
2, 2352, Note_on_c, 0, 38, 91
2, 2489, Note_on_c, 0, 38, 0
2, 2494, Note_on_c, 0, 45, 98
2, 2614, Note_on_c, 0, 53, 89
2, 2662, Note_on_c, 0, 53, 0
2, 2698, Note_on_c, 0, 45, 0
2, 2731, Note_on_c, 0, 38, 98
2, 2767, Note_on_c, 0, 38, 0
2, 2899, Note_on_c, 0, 57, 101
2, 2995, Note_on_c, 0, 57, 0
2, 3192, Note_on_c, 0, 38, 95
2, 3322, Note_on_c, 0, 45, 98
2, 3326, Note_on_c, 0, 38, 0
2, 3444, Note_on_c, 0, 53, 84
2, 3480, Note_on_c, 0, 53, 0
2, 3487, Note_on_c, 0, 45, 0
2, 3554, Note_on_c, 0, 38, 96
2, 3631, Note_on_c, 0, 38, 0
2, 3742, Note_on_c, 0, 57, 96
2, 3842, Note_on_c, 0, 57, 0
2, 4150, Note_on_c, 0, 69, 114
2, 4190, Note_on_c, 0, 38, 61
2, 4250, Note_on_c, 0, 38, 0
2, 4397, Note_on_c, 0, 45, 67
2, 4447, Note_on_c, 0, 45, 0
2, 4529, Note_on_c, 0, 53, 63
2, 4582, Note_on_c, 0, 53, 0
2, 4690, Note_on_c, 0, 38, 76
2, 4831, Note_on_c, 0, 38, 0
2, 4937, Note_on_c, 0, 65, 108
2, 4973, Note_on_c, 0, 57, 64
2, 5040, Note_on_c, 0, 57, 0
2, 5230, Note_on_c, 0, 62, 101
2, 5244, Note_on_c, 0, 38, 63
2, 5263, Note_on_c, 0, 69, 0
2, 5328, Note_on_c, 0, 38, 0
2, 5393, Note_on_c, 0, 45, 60
2, 5414, Note_on_c, 0, 65, 0
2, 5448, Note_on_c, 0, 45, 0
2, 5501, Note_on_c, 0, 53, 42
2, 5568, Note_on_c, 0, 53, 0
2, 5628, Note_on_c, 0, 38, 73
2, 5669, Note_on_c, 0, 38, 0
2, 5808, Note_on_c, 0, 57, 76
2, 5930, Note_on_c, 0, 57, 0
2, 6122, Note_on_c, 0, 38, 73
2, 6185, Note_on_c, 0, 38, 0
2, 6257, Note_on_c, 0, 45, 63
2, 6302, Note_on_c, 0, 45, 0
2, 6353, Note_on_c, 0, 53, 77
2, 6401, Note_on_c, 0, 53, 0
2, 6490, Note_on_c, 0, 38, 85
2, 6533, Note_on_c, 0, 38, 0
2, 6660, Note_on_c, 0, 57, 85
2, 6754, Note_on_c, 0, 57, 0
2, 6910, Note_on_c, 0, 65, 106
2, 6924, Note_on_c, 0, 38, 66
2, 6986, Note_on_c, 0, 38, 0
2, 6989, Note_on_c, 0, 62, 0
2, 7063, Note_on_c, 0, 45, 74
2, 7111, Note_on_c, 0, 45, 0
2, 7154, Note_on_c, 0, 53, 74
2, 7186, Note_on_c, 0, 69, 110
2, 7198, Note_on_c, 0, 53, 0
2, 7267, Note_on_c, 0, 65, 0
2, 7298, Note_on_c, 0, 38, 80
2, 7339, Note_on_c, 0, 38, 0
2, 7466, Note_on_c, 0, 57, 84
2, 7565, Note_on_c, 0, 57, 0
2, 7632, Note_on_c, 0, 74, 109
2, 7687, Note_on_c, 0, 69, 0
2, 7790, Note_on_c, 0, 38, 67
2, 7822, Note_on_c, 0, 72, 111
2, 7831, Control_c, 0, 64, 0
2, 7951, Note_on_c, 0, 74, 0
2, 7982, Note_on_c, 0, 45, 67
2, 7994, Note_on_c, 0, 38, 0
2, 8016, Control_c, 0, 64, 127
2, 8045, Note_on_c, 0, 45, 0
2, 8110, Note_on_c, 0, 53, 73
2, 8153, Note_on_c, 0, 53, 0
2, 8280, Note_on_c, 0, 38, 71
2, 8338, Note_on_c, 0, 38, 0
2, 8496, Note_on_c, 0, 57, 81
2, 8599, Note_on_c, 0, 57, 0
2, 8791, Note_on_c, 0, 38, 70
2, 8842, Note_on_c, 0, 38, 0
2, 8926, Note_on_c, 0, 45, 72
2, 8974, Note_on_c, 0, 45, 0
2, 9041, Note_on_c, 0, 53, 72
2, 9089, Note_on_c, 0, 53, 0
2, 9146, Note_on_c, 0, 38, 74
2, 9185, Note_on_c, 0, 38, 0
2, 9317, Note_on_c, 0, 57, 80
2, 9391, Note_on_c, 0, 57, 0
2, 9612, Note_on_c, 0, 70, 93
2, 9706, Note_on_c, 0, 72, 0
2, 9787, Note_on_c, 0, 38, 51
2, 9816, Note_on_c, 0, 69, 91
2, 9857, Note_on_c, 0, 70, 0
2, 9859, Note_on_c, 0, 38, 0
2, 9926, Note_on_c, 0, 45, 48
2, 9982, Note_on_c, 0, 45, 0
2, 10022, Note_on_c, 0, 53, 59
2, 10073, Note_on_c, 0, 53, 0
2, 10169, Note_on_c, 0, 38, 83
2, 10205, Note_on_c, 0, 38, 0
2, 10349, Note_on_c, 0, 57, 72
2, 10459, Note_on_c, 0, 57, 0
2, 10673, Note_on_c, 0, 38, 51
2, 10706, Control_c, 0, 64, 0
2, 10805, Note_on_c, 0, 45, 68
2, 10853, Note_on_c, 0, 38, 0
2, 10874, Control_c, 0, 64, 127
2, 10918, Note_on_c, 0, 45, 0
2, 10944, Note_on_c, 0, 53, 68
2, 10999, Note_on_c, 0, 53, 0
2, 11112, Note_on_c, 0, 38, 74
2, 11158, Note_on_c, 0, 38, 0
2, 11256, Note_on_c, 0, 69, 0
2, 11335, Note_on_c, 0, 57, 69
2, 11453, Note_on_c, 0, 57, 0
2, 11556, Note_on_c, 0, 69, 114
2, 11645, Note_on_c, 0, 69, 0
2, 11705, Note_on_c, 0, 69, 113
2, 11729, Note_on_c, 0, 38, 55
2, 11820, Note_on_c, 0, 38, 0
2, 11861, Note_on_c, 0, 45, 59
2, 11904, Note_on_c, 0, 45, 0
2, 11947, Note_on_c, 0, 53, 73
2, 11990, Note_on_c, 0, 53, 0
2, 12077, Note_on_c, 0, 38, 85
2, 12108, Note_on_c, 0, 38, 0
2, 12214, Note_on_c, 0, 57, 83
2, 12336, Note_on_c, 0, 57, 0
2, 12355, Note_on_c, 0, 65, 105
2, 12391, Note_on_c, 0, 69, 0
2, 12509, Note_on_c, 0, 62, 101
2, 12511, Note_on_c, 0, 65, 0
2, 12612, Note_on_c, 0, 62, 0
2, 12619, Note_on_c, 0, 64, 103
2, 12691, Note_on_c, 0, 65, 103
2, 12725, Note_on_c, 0, 64, 0
2, 12763, Note_on_c, 0, 38, 45
2, 12780, Control_c, 0, 64, 0
2, 12780, Note_on_c, 0, 64, 115
2, 12835, Note_on_c, 0, 65, 0
2, 12970, Note_on_c, 0, 45, 64
2, 12979, Control_c, 0, 64, 127
2, 12998, Note_on_c, 0, 38, 0
2, 13042, Note_on_c, 0, 45, 0
2, 13104, Note_on_c, 0, 53, 64
2, 13154, Note_on_c, 0, 53, 0
2, 13217, Note_on_c, 0, 62, 92
2, 13265, Note_on_c, 0, 38, 41
2, 13320, Note_on_c, 0, 38, 0
2, 13358, Note_on_c, 0, 64, 0
2, 13416, Note_on_c, 0, 57, 77
2, 13476, Note_on_c, 0, 57, 0
2, 13661, Note_on_c, 0, 38, 88
2, 13687, Control_c, 0, 64, 0
2, 13795, Note_on_c, 0, 38, 0
2, 13795, Note_on_c, 0, 45, 88
2, 13855, Control_c, 0, 64, 127
2, 13860, Note_on_c, 0, 45, 0
2, 13901, Note_on_c, 0, 62, 0
2, 13903, Note_on_c, 0, 53, 70
2, 13951, Note_on_c, 0, 53, 0
2, 14028, Note_on_c, 0, 38, 82
2, 14064, Note_on_c, 0, 38, 0
2, 14143, Note_on_c, 0, 65, 100
2, 14189, Note_on_c, 0, 57, 83
2, 14239, Note_on_c, 0, 57, 0
2, 14419, Note_on_c, 0, 69, 113
2, 14443, Note_on_c, 0, 38, 69
2, 14484, Note_on_c, 0, 65, 0
2, 14563, Control_c, 0, 64, 0
2, 14587, Note_on_c, 0, 45, 73
2, 14604, Note_on_c, 0, 38, 0
2, 14662, Note_on_c, 0, 45, 0
2, 14674, Note_on_c, 0, 74, 112
2, 14678, Note_on_c, 0, 53, 86
2, 14686, Control_c, 0, 64, 127
2, 14717, Note_on_c, 0, 53, 0
2, 14731, Note_on_c, 0, 69, 0
2, 14827, Note_on_c, 0, 38, 81
2, 14873, Note_on_c, 0, 38, 0
2, 15012, Note_on_c, 0, 57, 87
2, 15084, Note_on_c, 0, 57, 0
2, 15185, Note_on_c, 0, 77, 111
2, 15235, Note_on_c, 0, 74, 0
2, 15367, Note_on_c, 0, 76, 114
2, 15391, Control_c, 0, 64, 0
2, 15396, Note_on_c, 0, 38, 51
2, 15475, Note_on_c, 0, 77, 0
2, 15535, Note_on_c, 0, 45, 81
2, 15545, Note_on_c, 0, 38, 0
2, 15593, Control_c, 0, 64, 127
2, 15605, Note_on_c, 0, 45, 0
2, 15634, Note_on_c, 0, 53, 68
2, 15679, Note_on_c, 0, 53, 0
2, 15773, Note_on_c, 0, 38, 67
2, 15811, Note_on_c, 0, 38, 0
2, 15926, Note_on_c, 0, 57, 74
2, 15982, Note_on_c, 0, 57, 0
2, 16222, Note_on_c, 0, 38, 76
2, 16267, Note_on_c, 0, 38, 0
2, 16361, Note_on_c, 0, 45, 81
2, 16450, Note_on_c, 0, 45, 0
2, 16474, Note_on_c, 0, 53, 60
2, 16526, Note_on_c, 0, 53, 0
2, 16594, Note_on_c, 0, 38, 72
2, 16637, Note_on_c, 0, 38, 0
2, 16778, Note_on_c, 0, 57, 79
2, 16872, Note_on_c, 0, 57, 0
2, 16973, Note_on_c, 0, 74, 97
2, 17098, Note_on_c, 0, 76, 0
2, 17136, Note_on_c, 0, 38, 66
2, 17141, Note_on_c, 0, 69, 100
2, 17196, Note_on_c, 0, 74, 0
2, 17206, Control_c, 0, 64, 0
2, 17302, Note_on_c, 0, 45, 75
2, 17311, Note_on_c, 0, 38, 0
2, 17359, Control_c, 0, 64, 127
2, 17364, Note_on_c, 0, 45, 0
2, 17405, Note_on_c, 0, 53, 82
2, 17448, Note_on_c, 0, 53, 0
2, 17470, Note_on_c, 0, 69, 0
2, 17542, Note_on_c, 0, 38, 87
2, 17582, Note_on_c, 0, 38, 0
2, 17688, Note_on_c, 0, 69, 90
2, 17722, Note_on_c, 0, 57, 79
2, 17724, Note_on_c, 0, 69, 0
2, 17762, Note_on_c, 0, 57, 0
2, 17770, Note_on_c, 0, 71, 76
2, 17803, Note_on_c, 0, 71, 0
2, 17830, Note_on_c, 0, 72, 92
2, 17875, Note_on_c, 0, 72, 0
2, 17892, Note_on_c, 0, 71, 70
2, 17947, Note_on_c, 0, 71, 0
2, 17954, Note_on_c, 0, 72, 98
2, 17995, Note_on_c, 0, 38, 87
2, 18005, Control_c, 0, 64, 0
2, 18022, Note_on_c, 0, 72, 0
2, 18022, Note_on_c, 0, 71, 88
2, 18091, Note_on_c, 0, 72, 109
2, 18120, Note_on_c, 0, 71, 0
2, 18154, Note_on_c, 0, 43, 79
2, 18168, Note_on_c, 0, 38, 0
2, 18175, Control_c, 0, 64, 127
2, 18178, Note_on_c, 0, 71, 83
2, 18187, Note_on_c, 0, 72, 0
2, 18226, Note_on_c, 0, 71, 0
2, 18245, Note_on_c, 0, 72, 111
2, 18271, Note_on_c, 0, 43, 0
2, 18276, Note_on_c, 0, 53, 55
2, 18283, Note_on_c, 0, 72, 0
2, 18317, Note_on_c, 0, 71, 83
2, 18331, Note_on_c, 0, 53, 0
2, 18379, Note_on_c, 0, 71, 0
2, 18389, Note_on_c, 0, 38, 95
2, 18391, Note_on_c, 0, 72, 96
2, 18432, Note_on_c, 0, 72, 0
2, 18432, Note_on_c, 0, 38, 0
2, 18458, Note_on_c, 0, 71, 78
2, 18499, Note_on_c, 0, 71, 0
2, 18499, Note_on_c, 0, 72, 100
2, 18574, Note_on_c, 0, 71, 78
2, 18581, Note_on_c, 0, 55, 91
2, 18600, Note_on_c, 0, 72, 0
2, 18650, Note_on_c, 0, 72, 90
2, 18655, Note_on_c, 0, 71, 0
2, 18684, Note_on_c, 0, 55, 0
2, 18720, Note_on_c, 0, 71, 97
2, 18770, Note_on_c, 0, 72, 0
2, 18811, Note_on_c, 0, 69, 105
2, 18828, Note_on_c, 0, 71, 0
2, 18907, Note_on_c, 0, 71, 90
2, 18955, Note_on_c, 0, 36, 94
2, 18967, Note_on_c, 0, 69, 0
2, 19003, Control_c, 0, 64, 0
2, 19075, Note_on_c, 0, 72, 111
2, 19114, Note_on_c, 0, 71, 0
2, 19198, Note_on_c, 0, 36, 0
2, 19210, Note_on_c, 0, 45, 84
2, 19250, Control_c, 0, 64, 127
2, 19272, Note_on_c, 0, 45, 0
2, 19339, Note_on_c, 0, 53, 75
2, 19380, Note_on_c, 0, 53, 0
2, 19481, Note_on_c, 0, 36, 95
2, 19529, Note_on_c, 0, 36, 0
2, 19706, Note_on_c, 0, 57, 83
2, 19805, Note_on_c, 0, 57, 0
2, 20110, Note_on_c, 0, 70, 108
2, 20129, Note_on_c, 0, 36, 63
2, 20232, Note_on_c, 0, 72, 0
2, 20237, Note_on_c, 0, 36, 0
2, 20261, Note_on_c, 0, 45, 72
2, 20323, Note_on_c, 0, 45, 0
2, 20402, Note_on_c, 0, 53, 44
2, 20470, Note_on_c, 0, 53, 0
2, 20518, Note_on_c, 0, 36, 94
2, 20554, Note_on_c, 0, 36, 0
2, 20633, Note_on_c, 0, 69, 107
2, 20690, Note_on_c, 0, 57, 87
2, 20714, Note_on_c, 0, 70, 0
2, 20734, Note_on_c, 0, 57, 0
2, 20940, Note_on_c, 0, 67, 106
2, 20952, Note_on_c, 0, 36, 96
2, 20964, Note_on_c, 0, 69, 0
2, 20971, Control_c, 0, 64, 0
2, 21106, Note_on_c, 0, 69, 97
2, 21113, Note_on_c, 0, 43, 69
2, 21115, Note_on_c, 0, 67, 0
2, 21132, Note_on_c, 0, 36, 0
2, 21151, Note_on_c, 0, 69, 0
2, 21170, Control_c, 0, 64, 127
2, 21192, Note_on_c, 0, 67, 91
2, 21211, Note_on_c, 0, 43, 0
2, 21259, Note_on_c, 0, 53, 83
2, 21264, Note_on_c, 0, 67, 0
2, 21281, Note_on_c, 0, 69, 87
2, 21305, Note_on_c, 0, 53, 0
2, 21317, Note_on_c, 0, 69, 0
2, 21338, Note_on_c, 0, 67, 97
2, 21408, Note_on_c, 0, 67, 0
2, 21410, Note_on_c, 0, 69, 81
2, 21415, Note_on_c, 0, 36, 94
2, 21446, Note_on_c, 0, 36, 0
2, 21466, Note_on_c, 0, 69, 0
2, 21482, Note_on_c, 0, 67, 95
2, 21528, Note_on_c, 0, 67, 0
2, 21538, Note_on_c, 0, 69, 94
2, 21610, Note_on_c, 0, 55, 84
2, 21617, Note_on_c, 0, 67, 92
2, 21643, Note_on_c, 0, 69, 0
2, 21655, Note_on_c, 0, 55, 0
2, 21701, Note_on_c, 0, 65, 96
2, 21703, Note_on_c, 0, 67, 0
2, 21775, Note_on_c, 0, 67, 100
2, 21823, Note_on_c, 0, 65, 0
2, 21878, Control_c, 0, 64, 0
2, 21881, Note_on_c, 0, 36, 86
2, 21886, Note_on_c, 0, 69, 108
2, 21936, Note_on_c, 0, 67, 0
2, 22022, Note_on_c, 0, 43, 71
2, 22030, Note_on_c, 0, 36, 0
2, 22078, Control_c, 0, 64, 127
2, 22133, Note_on_c, 0, 43, 0
2, 22140, Note_on_c, 0, 69, 0
2, 22145, Note_on_c, 0, 53, 84
2, 22193, Note_on_c, 0, 53, 0
2, 22310, Note_on_c, 0, 36, 38
2, 22370, Note_on_c, 0, 36, 0
2, 22438, Note_on_c, 0, 55, 89
2, 22574, Note_on_c, 0, 55, 0
2, 22642, Note_on_c, 0, 65, 107
2, 22817, Note_on_c, 0, 36, 60
2, 22846, Control_c, 0, 64, 0
2, 22846, Note_on_c, 0, 60, 105
2, 22872, Note_on_c, 0, 65, 0
2, 22987, Note_on_c, 0, 36, 0
2, 23016, Note_on_c, 0, 46, 83
2, 23062, Control_c, 0, 64, 127
2, 23122, Note_on_c, 0, 46, 0
2, 23150, Note_on_c, 0, 53, 64
2, 23198, Note_on_c, 0, 53, 0
2, 23275, Note_on_c, 0, 36, 86
2, 23314, Note_on_c, 0, 36, 0
2, 23438, Note_on_c, 0, 55, 84
2, 23486, Note_on_c, 0, 55, 0
2, 23743, Note_on_c, 0, 36, 84
2, 23818, Note_on_c, 0, 36, 0
2, 23868, Note_on_c, 0, 46, 88
2, 23969, Note_on_c, 0, 46, 0
2, 23995, Note_on_c, 0, 53, 44
2, 24062, Note_on_c, 0, 53, 0
2, 24120, Note_on_c, 0, 36, 72
2, 24156, Note_on_c, 0, 36, 0
2, 24262, Note_on_c, 0, 55, 90
2, 24338, Note_on_c, 0, 55, 0
2, 24516, Note_on_c, 0, 60, 0
2, 24665, Note_on_c, 0, 36, 71
2, 24674, Control_c, 0, 64, 0
2, 24703, Note_on_c, 0, 60, 75
2, 24773, Note_on_c, 0, 36, 0
2, 24778, Note_on_c, 0, 60, 0
2, 24821, Note_on_c, 0, 46, 69
2, 24823, Note_on_c, 0, 62, 61
2, 24845, Control_c, 0, 64, 127
2, 24881, Note_on_c, 0, 60, 67
2, 24886, Note_on_c, 0, 62, 0
2, 24938, Note_on_c, 0, 46, 0
2, 24943, Note_on_c, 0, 52, 57
2, 24955, Note_on_c, 0, 60, 0
2, 24972, Note_on_c, 0, 59, 73
2, 24989, Note_on_c, 0, 52, 0
2, 25010, Note_on_c, 0, 59, 0
2, 25046, Note_on_c, 0, 60, 75
2, 25085, Note_on_c, 0, 36, 78
2, 25116, Note_on_c, 0, 60, 0
2, 25121, Note_on_c, 0, 36, 0
2, 25138, Note_on_c, 0, 62, 86
2, 25195, Note_on_c, 0, 62, 0
2, 25207, Note_on_c, 0, 64, 80
2, 25241, Note_on_c, 0, 64, 0
2, 25248, Note_on_c, 0, 55, 85
2, 25274, Note_on_c, 0, 65, 100
2, 25315, Note_on_c, 0, 55, 0
2, 25334, Note_on_c, 0, 65, 0
2, 25351, Note_on_c, 0, 67, 100
2, 25404, Note_on_c, 0, 69, 98
2, 25447, Note_on_c, 0, 67, 0
2, 25466, Note_on_c, 0, 70, 103
2, 25486, Note_on_c, 0, 69, 0
2, 25498, Note_on_c, 0, 70, 0
2, 25536, Note_on_c, 0, 72, 97
2, 25570, Note_on_c, 0, 36, 89
2, 25603, Note_on_c, 0, 74, 89
2, 25620, Note_on_c, 0, 72, 0
2, 25622, Note_on_c, 0, 36, 0
2, 25661, Note_on_c, 0, 76, 98
2, 25678, Note_on_c, 0, 74, 0
2, 25690, Note_on_c, 0, 76, 0
2, 25694, Note_on_c, 0, 46, 88
2, 25730, Note_on_c, 0, 77, 111
2, 25783, Note_on_c, 0, 77, 0
2, 25798, Note_on_c, 0, 79, 105
2, 25805, Note_on_c, 0, 52, 84
2, 25836, Note_on_c, 0, 46, 0
2, 25843, Note_on_c, 0, 81, 100
2, 25855, Note_on_c, 0, 52, 0
2, 25894, Note_on_c, 0, 79, 0
2, 25898, Note_on_c, 0, 82, 108
2, 25922, Note_on_c, 0, 81, 0
2, 25927, Note_on_c, 0, 82, 0
2, 25956, Note_on_c, 0, 36, 94
2, 25970, Note_on_c, 0, 84, 102
2, 26004, Note_on_c, 0, 36, 0
2, 26042, Note_on_c, 0, 86, 105
2, 26066, Note_on_c, 0, 84, 0
2, 26098, Note_on_c, 0, 88, 93
2, 26129, Note_on_c, 0, 88, 0
2, 26136, Note_on_c, 0, 86, 0
2, 26148, Note_on_c, 0, 55, 95
2, 26170, Note_on_c, 0, 89, 108
2, 26234, Note_on_c, 0, 91, 106
2, 26242, Note_on_c, 0, 55, 0
2, 26266, Note_on_c, 0, 89, 0
2, 26268, Note_on_c, 0, 93, 101
2, 26316, Note_on_c, 0, 91, 0
2, 26326, Note_on_c, 0, 94, 101
2, 26352, Note_on_c, 0, 93, 0
2, 26357, Note_on_c, 0, 94, 0
2, 26400, Note_on_c, 0, 96, 108
2, 26458, Note_on_c, 0, 98, 105
2, 26482, Note_on_c, 0, 96, 0
2, 26503, Control_c, 0, 64, 0
2, 26520, Note_on_c, 0, 100, 100
2, 26544, Note_on_c, 0, 98, 0
2, 26546, Note_on_c, 0, 41, 110
2, 26575, Note_on_c, 0, 101, 117
2, 26647, Note_on_c, 0, 100, 0
2, 26746, Note_on_c, 0, 48, 91
2, 26762, Note_on_c, 0, 41, 0
2, 26765, Control_c, 0, 64, 127
2, 26786, Note_on_c, 0, 48, 0
2, 26844, Note_on_c, 0, 57, 86
2, 26880, Note_on_c, 0, 57, 0
2, 26966, Note_on_c, 0, 41, 93
2, 27019, Note_on_c, 0, 41, 0
2, 27144, Note_on_c, 0, 60, 89
2, 27274, Note_on_c, 0, 60, 0
2, 27475, Note_on_c, 0, 41, 68
2, 27612, Note_on_c, 0, 48, 83
2, 27638, Note_on_c, 0, 41, 0
2, 27672, Note_on_c, 0, 101, 0
2, 27677, Note_on_c, 0, 48, 0
2, 27746, Note_on_c, 0, 57, 85
2, 27782, Note_on_c, 0, 57, 0
2, 27871, Note_on_c, 0, 41, 90
2, 27907, Note_on_c, 0, 41, 0
2, 28018, Note_on_c, 0, 60, 89
2, 28118, Note_on_c, 0, 60, 0
2, 28394, Control_c, 0, 64, 0
2, 28406, Note_on_c, 0, 71, 105
2, 28416, Note_on_c, 0, 41, 77
2, 28514, Note_on_c, 0, 72, 101
2, 28519, Note_on_c, 0, 41, 0
2, 28524, Note_on_c, 0, 71, 0
2, 28550, Note_on_c, 0, 51, 64
2, 28560, Note_on_c, 0, 72, 0
2, 28579, Control_c, 0, 64, 127
2, 28601, Note_on_c, 0, 71, 81
2, 28651, Note_on_c, 0, 57, 68
2, 28654, Note_on_c, 0, 71, 0
2, 28670, Note_on_c, 0, 51, 0
2, 28678, Note_on_c, 0, 72, 99
2, 28694, Note_on_c, 0, 57, 0
2, 28721, Note_on_c, 0, 72, 0
2, 28740, Note_on_c, 0, 71, 79
2, 28778, Note_on_c, 0, 41, 86
2, 28812, Note_on_c, 0, 71, 0
2, 28819, Note_on_c, 0, 72, 99
2, 28843, Note_on_c, 0, 41, 0
2, 28877, Note_on_c, 0, 72, 0
2, 28886, Note_on_c, 0, 71, 77
2, 28922, Note_on_c, 0, 71, 0
2, 28942, Note_on_c, 0, 59, 81
2, 28944, Note_on_c, 0, 72, 108
2, 29004, Note_on_c, 0, 71, 68
2, 29018, Note_on_c, 0, 72, 0
2, 29071, Note_on_c, 0, 59, 0
2, 29081, Note_on_c, 0, 72, 111
2, 29095, Note_on_c, 0, 71, 0
2, 29155, Note_on_c, 0, 71, 96
2, 29213, Note_on_c, 0, 72, 0
2, 29222, Note_on_c, 0, 69, 105
2, 29242, Note_on_c, 0, 71, 0
2, 29302, Note_on_c, 0, 71, 103
2, 29328, Note_on_c, 0, 41, 66
2, 29333, Note_on_c, 0, 69, 0
2, 29362, Control_c, 0, 64, 0
2, 29369, Note_on_c, 0, 72, 108
2, 29429, Note_on_c, 0, 71, 0
2, 29508, Note_on_c, 0, 47, 70
2, 29534, Note_on_c, 0, 41, 0
2, 29561, Control_c, 0, 64, 127
2, 29573, Note_on_c, 0, 47, 0
2, 29611, Note_on_c, 0, 57, 93
2, 29654, Note_on_c, 0, 57, 0
2, 29738, Note_on_c, 0, 41, 98
2, 29842, Note_on_c, 0, 41, 0
2, 29890, Note_on_c, 0, 72, 0
2, 29914, Note_on_c, 0, 59, 81
2, 30022, Note_on_c, 0, 59, 0
2, 30084, Note_on_c, 0, 69, 106
2, 30192, Control_c, 0, 64, 0
2, 30214, Note_on_c, 0, 40, 89
2, 30214, Note_on_c, 0, 64, 108
2, 30264, Note_on_c, 0, 69, 0
2, 30355, Note_on_c, 0, 40, 0
2, 30358, Note_on_c, 0, 48, 90
2, 30408, Control_c, 0, 64, 127
2, 30446, Note_on_c, 0, 64, 0
2, 30449, Note_on_c, 0, 48, 0
2, 30485, Note_on_c, 0, 57, 76
2, 30526, Note_on_c, 0, 57, 0
2, 30617, Note_on_c, 0, 40, 94
2, 30653, Note_on_c, 0, 40, 0
2, 30775, Note_on_c, 0, 89, 118
2, 30826, Note_on_c, 0, 60, 87
2, 30874, Note_on_c, 0, 60, 0
2, 31094, Note_on_c, 0, 40, 93
2, 31212, Note_on_c, 0, 88, 102
2, 31241, Note_on_c, 0, 89, 0
2, 31289, Note_on_c, 0, 48, 81
2, 31294, Note_on_c, 0, 84, 100
2, 31296, Note_on_c, 0, 40, 0
2, 31356, Note_on_c, 0, 88, 0
2, 31397, Note_on_c, 0, 81, 100
2, 31421, Note_on_c, 0, 48, 0
2, 31445, Note_on_c, 0, 84, 0
2, 31466, Note_on_c, 0, 57, 81
2, 31495, Note_on_c, 0, 77, 96
2, 31500, Note_on_c, 0, 81, 0
2, 31507, Note_on_c, 0, 57, 0
2, 31529, Note_on_c, 0, 77, 0
2, 31582, Note_on_c, 0, 76, 106
2, 31620, Note_on_c, 0, 40, 98
2, 31654, Note_on_c, 0, 72, 97
2, 31663, Note_on_c, 0, 40, 0
2, 31675, Note_on_c, 0, 76, 0
2, 31728, Note_on_c, 0, 69, 106
2, 31747, Note_on_c, 0, 72, 0
2, 31766, Note_on_c, 0, 69, 0
2, 31807, Note_on_c, 0, 59, 85
2, 31810, Note_on_c, 0, 65, 81
2, 31848, Note_on_c, 0, 65, 0
2, 31860, Note_on_c, 0, 59, 0
2, 31884, Note_on_c, 0, 64, 98
2, 31939, Note_on_c, 0, 60, 92
2, 31973, Note_on_c, 0, 64, 0
2, 32014, Note_on_c, 0, 57, 105
2, 32030, Note_on_c, 0, 60, 0
2, 32098, Note_on_c, 0, 57, 0
2, 32100, Note_on_c, 0, 53, 98
2, 32160, Control_c, 0, 64, 0
2, 32182, Note_on_c, 0, 52, 114
2, 32194, Note_on_c, 0, 40, 68
2, 32201, Note_on_c, 0, 38, 55
2, 32239, Note_on_c, 0, 53, 0
2, 32244, Note_on_c, 0, 38, 0
2, 32314, Note_on_c, 0, 40, 0
2, 32405, Control_c, 0, 64, 127
2, 32405, Note_on_c, 0, 50, 81
2, 32455, Note_on_c, 0, 50, 0
2, 32491, Note_on_c, 0, 56, 87
2, 32542, Note_on_c, 0, 56, 0
2, 32621, Note_on_c, 0, 40, 105
2, 32647, Note_on_c, 0, 40, 0
2, 32784, Note_on_c, 0, 59, 91
2, 32875, Note_on_c, 0, 59, 0
2, 33007, Note_on_c, 0, 52, 0
2, 33084, Note_on_c, 0, 52, 95
2, 33110, Note_on_c, 0, 40, 79
2, 33149, Note_on_c, 0, 53, 94
2, 33156, Note_on_c, 0, 52, 0
2, 33161, Note_on_c, 0, 40, 0
2, 33233, Note_on_c, 0, 52, 99
2, 33245, Note_on_c, 0, 53, 0
2, 33283, Note_on_c, 0, 52, 0
2, 33293, Note_on_c, 0, 51, 80
2, 33348, Note_on_c, 0, 51, 0
2, 33365, Note_on_c, 0, 52, 92
2, 33478, Note_on_c, 0, 52, 0
2, 33478, Note_on_c, 0, 54, 83
2, 33577, Note_on_c, 0, 56, 85
2, 33586, Note_on_c, 0, 54, 0
2, 33632, Note_on_c, 0, 56, 0
2, 33657, Note_on_c, 0, 57, 88
2, 33662, Note_on_c, 0, 40, 96
2, 33701, Note_on_c, 0, 40, 0
2, 33712, Note_on_c, 0, 57, 0
2, 33721, Note_on_c, 0, 59, 73
2, 33769, Note_on_c, 0, 59, 0
2, 33787, Note_on_c, 0, 60, 98
2, 33820, Note_on_c, 0, 60, 0
2, 33840, Note_on_c, 0, 64, 86
2, 33881, Note_on_c, 0, 50, 75
2, 33905, Note_on_c, 0, 64, 0
2, 33925, Note_on_c, 0, 66, 101
2, 33931, Note_on_c, 0, 50, 0
2, 33998, Note_on_c, 0, 68, 42
2, 34026, Note_on_c, 0, 66, 0
2, 34046, Note_on_c, 0, 69, 77
2, 34059, Note_on_c, 0, 56, 93
2, 34066, Note_on_c, 0, 68, 0
2, 34085, Note_on_c, 0, 69, 0
2, 34090, Note_on_c, 0, 56, 0
2, 34099, Note_on_c, 0, 71, 75
2, 34171, Note_on_c, 0, 72, 101
2, 34195, Note_on_c, 0, 71, 0
2, 34229, Note_on_c, 0, 74, 90
2, 34258, Note_on_c, 0, 72, 0
2, 34260, Note_on_c, 0, 74, 0
2, 34279, Note_on_c, 0, 40, 93
2, 34310, Note_on_c, 0, 76, 102
2, 34335, Note_on_c, 0, 40, 0
2, 34354, Note_on_c, 0, 76, 0
2, 34385, Note_on_c, 0, 78, 92
2, 34472, Note_on_c, 0, 80, 71
2, 34474, Note_on_c, 0, 78, 0
2, 34515, Note_on_c, 0, 80, 0
2, 34534, Note_on_c, 0, 81, 22
2, 34559, Note_on_c, 0, 59, 93
2, 34642, Note_on_c, 0, 83, 89
2, 34648, Note_on_c, 0, 59, 0
2, 34651, Note_on_c, 0, 81, 0
2, 34697, Note_on_c, 0, 84, 101
2, 34724, Note_on_c, 0, 84, 0
2, 34735, Note_on_c, 0, 83, 0
2, 34778, Note_on_c, 0, 86, 95
2, 34846, Note_on_c, 0, 88, 92
2, 34891, Note_on_c, 0, 86, 0
2, 34894, Note_on_c, 0, 90, 95
2, 34946, Note_on_c, 0, 88, 0
2, 34975, Note_on_c, 0, 92, 92
2, 35016, Note_on_c, 0, 33, 94
2, 35026, Note_on_c, 0, 90, 0
2, 35033, Note_on_c, 0, 92, 0
2, 35083, Note_on_c, 0, 93, 121
2, 35203, Control_c, 0, 64, 0
2, 35321, Note_on_c, 0, 40, 72
2, 35352, Note_on_c, 0, 33, 0
2, 35417, Control_c, 0, 64, 127
2, 35434, Note_on_c, 0, 48, 88
2, 35438, Note_on_c, 0, 40, 0
2, 35482, Note_on_c, 0, 48, 0
2, 35570, Note_on_c, 0, 33, 99
2, 35638, Note_on_c, 0, 33, 0
2, 35772, Note_on_c, 0, 52, 94
2, 35880, Note_on_c, 0, 52, 0
2, 36084, Note_on_c, 0, 33, 79
2, 36199, Note_on_c, 0, 33, 0
2, 36199, Note_on_c, 0, 40, 77
2, 36206, Note_on_c, 0, 93, 0
2, 36254, Note_on_c, 0, 40, 0
2, 36314, Note_on_c, 0, 48, 80
2, 36350, Note_on_c, 0, 48, 0
2, 36432, Note_on_c, 0, 33, 95
2, 36492, Note_on_c, 0, 33, 0
2, 36622, Note_on_c, 0, 52, 89
2, 36746, Note_on_c, 0, 52, 0
2, 36929, Note_on_c, 0, 33, 92
2, 37063, Note_on_c, 0, 33, 0
2, 37090, Note_on_c, 0, 40, 82
2, 37135, Note_on_c, 0, 40, 0
2, 37200, Note_on_c, 0, 48, 76
2, 37236, Note_on_c, 0, 48, 0
2, 37320, Note_on_c, 0, 33, 81
2, 37354, Note_on_c, 0, 33, 0
2, 37483, Note_on_c, 0, 52, 82
2, 37615, Note_on_c, 0, 52, 0
2, 37788, Note_on_c, 0, 33, 80
2, 37898, Note_on_c, 0, 33, 0
2, 37937, Note_on_c, 0, 40, 65
2, 37985, Note_on_c, 0, 40, 0
2, 38038, Note_on_c, 0, 48, 38
2, 38100, Note_on_c, 0, 48, 0
2, 38150, Note_on_c, 0, 33, 78
2, 38189, Note_on_c, 0, 33, 0
2, 38328, Note_on_c, 0, 52, 76
2, 38458, Note_on_c, 0, 52, 0
2, 38645, Note_on_c, 0, 64, 113
2, 38714, Note_on_c, 0, 33, 46
2, 38753, Control_c, 0, 64, 0
2, 38873, Note_on_c, 0, 33, 0
2, 38880, Note_on_c, 0, 40, 51
2, 38938, Control_c, 0, 64, 127
2, 38940, Note_on_c, 0, 40, 0
2, 39000, Note_on_c, 0, 48, 31
2, 39058, Note_on_c, 0, 48, 0
2, 39132, Note_on_c, 0, 33, 71
2, 39199, Note_on_c, 0, 33, 0
2, 39348, Note_on_c, 0, 60, 109
2, 39367, Note_on_c, 0, 52, 66
2, 39408, Note_on_c, 0, 52, 0
2, 39614, Note_on_c, 0, 33, 50
2, 39617, Note_on_c, 0, 57, 106
2, 39662, Note_on_c, 0, 64, 0
2, 39720, Control_c, 0, 64, 0
2, 39766, Note_on_c, 0, 60, 0
2, 39778, Note_on_c, 0, 33, 0
2, 39787, Note_on_c, 0, 40, 55
2, 39845, Note_on_c, 0, 40, 0
2, 39874, Control_c, 0, 64, 127
2, 39878, Note_on_c, 0, 48, 59
2, 39926, Note_on_c, 0, 48, 0
2, 40003, Note_on_c, 0, 33, 75
2, 40037, Note_on_c, 0, 33, 0
2, 40171, Note_on_c, 0, 52, 71
2, 40308, Note_on_c, 0, 52, 0
2, 40452, Note_on_c, 0, 33, 86
2, 40526, Note_on_c, 0, 33, 0
2, 40601, Note_on_c, 0, 40, 65
2, 40642, Note_on_c, 0, 40, 0
2, 40675, Note_on_c, 0, 48, 78
2, 40718, Note_on_c, 0, 48, 0
2, 40805, Note_on_c, 0, 33, 85
2, 40838, Note_on_c, 0, 33, 0
2, 40963, Note_on_c, 0, 52, 84
2, 41026, Note_on_c, 0, 52, 0
2, 41189, Note_on_c, 0, 60, 108
2, 41222, Note_on_c, 0, 33, 70
2, 41242, Note_on_c, 0, 57, 0
2, 41309, Note_on_c, 0, 33, 0
2, 41366, Note_on_c, 0, 40, 54
2, 41407, Note_on_c, 0, 40, 0
2, 41434, Note_on_c, 0, 48, 61
2, 41438, Note_on_c, 0, 64, 111
2, 41482, Note_on_c, 0, 48, 0
2, 41520, Note_on_c, 0, 60, 0
2, 41566, Note_on_c, 0, 33, 77
2, 41609, Note_on_c, 0, 33, 0
2, 41724, Note_on_c, 0, 52, 89
2, 41767, Note_on_c, 0, 52, 0
2, 41844, Note_on_c, 0, 69, 105
2, 41894, Note_on_c, 0, 64, 0
2, 42002, Note_on_c, 0, 33, 63
2, 42019, Note_on_c, 0, 67, 112
2, 42026, Control_c, 0, 64, 0
2, 42146, Note_on_c, 0, 69, 0
2, 42149, Note_on_c, 0, 33, 0
2, 42163, Note_on_c, 0, 40, 64
2, 42211, Note_on_c, 0, 40, 0
2, 42211, Control_c, 0, 64, 127
2, 42266, Note_on_c, 0, 48, 71
2, 42307, Note_on_c, 0, 48, 0
2, 42413, Note_on_c, 0, 33, 74
2, 42451, Note_on_c, 0, 33, 0
2, 42602, Note_on_c, 0, 52, 73
2, 42725, Note_on_c, 0, 52, 0
2, 42931, Note_on_c, 0, 33, 52
2, 43044, Note_on_c, 0, 33, 0
2, 43082, Note_on_c, 0, 40, 59
2, 43123, Note_on_c, 0, 40, 0
2, 43178, Note_on_c, 0, 48, 62
2, 43222, Note_on_c, 0, 48, 0
2, 43301, Note_on_c, 0, 33, 83
2, 43342, Note_on_c, 0, 33, 0
2, 43476, Note_on_c, 0, 52, 83
2, 43596, Note_on_c, 0, 52, 0
2, 43742, Note_on_c, 0, 65, 91
2, 43814, Note_on_c, 0, 67, 0
2, 43872, Note_on_c, 0, 33, 56
2, 43903, Note_on_c, 0, 64, 103
2, 43939, Note_on_c, 0, 65, 0
2, 44023, Control_c, 0, 64, 0
2, 44064, Note_on_c, 0, 40, 56
2, 44134, Note_on_c, 0, 33, 0
2, 44177, Control_c, 0, 64, 127
2, 44184, Note_on_c, 0, 40, 0
2, 44210, Note_on_c, 0, 48, 79
2, 44256, Note_on_c, 0, 48, 0
2, 44364, Note_on_c, 0, 33, 79
2, 44417, Note_on_c, 0, 33, 0
2, 44582, Note_on_c, 0, 52, 74
2, 44662, Note_on_c, 0, 52, 0
2, 44849, Note_on_c, 0, 33, 73
2, 44974, Note_on_c, 0, 33, 0
2, 44986, Note_on_c, 0, 40, 79
2, 45050, Note_on_c, 0, 40, 0
2, 45098, Note_on_c, 0, 48, 53
2, 45151, Note_on_c, 0, 48, 0
2, 45194, Note_on_c, 0, 64, 0
2, 45209, Note_on_c, 0, 33, 83
2, 45259, Note_on_c, 0, 33, 0
2, 45379, Note_on_c, 0, 52, 89
2, 45480, Note_on_c, 0, 52, 0
2, 45538, Note_on_c, 0, 64, 110
2, 45569, Note_on_c, 0, 64, 0
2, 45658, Note_on_c, 0, 64, 100
2, 45682, Note_on_c, 0, 33, 62
2, 45768, Note_on_c, 0, 33, 0
2, 45814, Note_on_c, 0, 40, 63
2, 45854, Note_on_c, 0, 40, 0
2, 45890, Note_on_c, 0, 48, 88
2, 45931, Note_on_c, 0, 48, 0
2, 46030, Note_on_c, 0, 33, 95
2, 46099, Note_on_c, 0, 33, 0
2, 46217, Note_on_c, 0, 52, 89
2, 46318, Note_on_c, 0, 60, 102
2, 46337, Note_on_c, 0, 64, 0
2, 46351, Note_on_c, 0, 52, 0
2, 46433, Note_on_c, 0, 60, 0
2, 46438, Note_on_c, 0, 57, 102
2, 46522, Note_on_c, 0, 59, 90
2, 46546, Note_on_c, 0, 57, 0
2, 46586, Note_on_c, 0, 60, 98
2, 46625, Note_on_c, 0, 59, 0
2, 46646, Note_on_c, 0, 33, 50
2, 46668, Note_on_c, 0, 59, 94
2, 46697, Control_c, 0, 64, 0
2, 46728, Note_on_c, 0, 60, 0
2, 46836, Control_c, 0, 64, 127
2, 46836, Note_on_c, 0, 40, 64
2, 46848, Note_on_c, 0, 33, 0
2, 46906, Note_on_c, 0, 40, 0
2, 46942, Note_on_c, 0, 48, 65
2, 46987, Note_on_c, 0, 48, 0
2, 47009, Note_on_c, 0, 57, 99
2, 47069, Note_on_c, 0, 33, 74
2, 47107, Note_on_c, 0, 33, 0
2, 47227, Note_on_c, 0, 52, 80
2, 47256, Note_on_c, 0, 59, 0
2, 47333, Note_on_c, 0, 52, 0
2, 47520, Note_on_c, 0, 33, 80
2, 47578, Note_on_c, 0, 57, 0
2, 47640, Note_on_c, 0, 33, 0
2, 47657, Note_on_c, 0, 40, 70
2, 47750, Note_on_c, 0, 48, 85
2, 47765, Note_on_c, 0, 40, 0
2, 47794, Note_on_c, 0, 48, 0
2, 47875, Note_on_c, 0, 33, 95
2, 47930, Note_on_c, 0, 33, 0
2, 47971, Note_on_c, 0, 60, 105
2, 48038, Note_on_c, 0, 52, 88
2, 48082, Note_on_c, 0, 52, 0
2, 48218, Note_on_c, 0, 64, 110
2, 48278, Note_on_c, 0, 33, 21
2, 48300, Note_on_c, 0, 60, 0
2, 48379, Note_on_c, 0, 33, 0
2, 48389, Note_on_c, 0, 40, 71
2, 48432, Note_on_c, 0, 40, 0
2, 48466, Note_on_c, 0, 69, 109
2, 48487, Note_on_c, 0, 48, 80
2, 48533, Note_on_c, 0, 48, 0
2, 48538, Note_on_c, 0, 64, 0
2, 48626, Note_on_c, 0, 33, 88
2, 48667, Note_on_c, 0, 33, 0
2, 48806, Note_on_c, 0, 52, 85
2, 48910, Note_on_c, 0, 52, 0
2, 48960, Note_on_c, 0, 72, 111
2, 49018, Note_on_c, 0, 69, 0
2, 49164, Note_on_c, 0, 71, 100
2, 49207, Note_on_c, 0, 33, 47
2, 49274, Note_on_c, 0, 72, 0
2, 49356, Control_c, 0, 64, 0
2, 49356, Note_on_c, 0, 40, 55
2, 49399, Note_on_c, 0, 33, 0
2, 49478, Control_c, 0, 64, 127
2, 49490, Note_on_c, 0, 48, 62
2, 49519, Note_on_c, 0, 40, 0
2, 49538, Note_on_c, 0, 48, 0
2, 49639, Note_on_c, 0, 33, 59
2, 49682, Note_on_c, 0, 33, 0
2, 49819, Note_on_c, 0, 52, 66
2, 49870, Note_on_c, 0, 52, 0
2, 50059, Note_on_c, 0, 33, 65
2, 50167, Note_on_c, 0, 33, 0
2, 50189, Note_on_c, 0, 40, 68
2, 50244, Note_on_c, 0, 40, 0
2, 50278, Note_on_c, 0, 48, 59
2, 50323, Note_on_c, 0, 48, 0
2, 50405, Note_on_c, 0, 33, 79
2, 50443, Note_on_c, 0, 33, 0
2, 50566, Note_on_c, 0, 52, 78
2, 50678, Note_on_c, 0, 52, 0
2, 50710, Note_on_c, 0, 69, 101
2, 50873, Note_on_c, 0, 33, 70
2, 50880, Note_on_c, 0, 64, 103
2, 50906, Note_on_c, 0, 71, 0
2, 50966, Note_on_c, 0, 69, 0
2, 51007, Note_on_c, 0, 33, 0
2, 51038, Note_on_c, 0, 40, 69
2, 51118, Note_on_c, 0, 48, 83
2, 51161, Note_on_c, 0, 48, 0
2, 51257, Note_on_c, 0, 33, 85
2, 51286, Note_on_c, 0, 40, 0
2, 51298, Note_on_c, 0, 33, 0
2, 51334, Note_on_c, 0, 64, 0
2, 51403, Note_on_c, 0, 64, 98
2, 51425, Note_on_c, 0, 52, 80
2, 51480, Note_on_c, 0, 52, 0
2, 51494, Note_on_c, 0, 66, 90
2, 51497, Note_on_c, 0, 64, 0
2, 51552, Note_on_c, 0, 67, 94
2, 51574, Note_on_c, 0, 66, 0
2, 51598, Note_on_c, 0, 67, 0
2, 51631, Note_on_c, 0, 66, 100
2, 51662, Note_on_c, 0, 33, 97
2, 51691, Control_c, 0, 64, 0
2, 51703, Note_on_c, 0, 67, 102
2, 51744, Note_on_c, 0, 66, 0
2, 51770, Note_on_c, 0, 67, 0
2, 51790, Note_on_c, 0, 66, 90
2, 51809, Note_on_c, 0, 38, 85
2, 51838, Note_on_c, 0, 33, 0
2, 51847, Control_c, 0, 64, 127
2, 51850, Note_on_c, 0, 67, 98
2, 51857, Note_on_c, 0, 66, 0
2, 51902, Note_on_c, 0, 67, 0
2, 51919, Note_on_c, 0, 48, 96
2, 51922, Note_on_c, 0, 66, 96
2, 51970, Note_on_c, 0, 48, 0
2, 51989, Note_on_c, 0, 67, 94
2, 52025, Note_on_c, 0, 66, 0
2, 52049, Note_on_c, 0, 67, 0
2, 52073, Note_on_c, 0, 33, 89
2, 52075, Note_on_c, 0, 66, 83
2, 52118, Note_on_c, 0, 66, 0
2, 52118, Note_on_c, 0, 67, 101
2, 52138, Note_on_c, 0, 33, 0
2, 52140, Note_on_c, 0, 38, 0
2, 52198, Note_on_c, 0, 66, 70
2, 52219, Note_on_c, 0, 67, 0
2, 52255, Note_on_c, 0, 50, 90
2, 52272, Note_on_c, 0, 66, 0
2, 52272, Note_on_c, 0, 67, 99
2, 52342, Note_on_c, 0, 66, 90
2, 52373, Note_on_c, 0, 50, 0
2, 52390, Note_on_c, 0, 67, 0
2, 52440, Note_on_c, 0, 64, 100
2, 52457, Note_on_c, 0, 66, 0
2, 52526, Note_on_c, 0, 66, 93
2, 52589, Note_on_c, 0, 64, 0
2, 52632, Note_on_c, 0, 31, 106
2, 52706, Note_on_c, 0, 67, 111
2, 52723, Control_c, 0, 64, 0
2, 52766, Note_on_c, 0, 66, 0
2, 52884, Note_on_c, 0, 31, 0
2, 52903, Note_on_c, 0, 40, 68
2, 52922, Control_c, 0, 64, 127
2, 52946, Note_on_c, 0, 40, 0
2, 53009, Note_on_c, 0, 48, 79
2, 53050, Note_on_c, 0, 48, 0
2, 53150, Note_on_c, 0, 31, 97
2, 53189, Note_on_c, 0, 31, 0
2, 53350, Note_on_c, 0, 52, 87
2, 53446, Note_on_c, 0, 52, 0
2, 53681, Note_on_c, 0, 31, 76
2, 53686, Note_on_c, 0, 65, 111
2, 53753, Note_on_c, 0, 31, 0
2, 53827, Note_on_c, 0, 40, 71
2, 53875, Note_on_c, 0, 40, 0
2, 53926, Note_on_c, 0, 48, 77
2, 53945, Note_on_c, 0, 67, 0
2, 53962, Note_on_c, 0, 48, 0
2, 54070, Note_on_c, 0, 31, 91
2, 54113, Note_on_c, 0, 31, 0
2, 54218, Note_on_c, 0, 64, 111
2, 54252, Note_on_c, 0, 52, 84
2, 54288, Note_on_c, 0, 52, 0
2, 54305, Note_on_c, 0, 65, 0
2, 54502, Note_on_c, 0, 62, 105
2, 54504, Note_on_c, 0, 31, 85
2, 54535, Control_c, 0, 64, 0
2, 54562, Note_on_c, 0, 64, 0
2, 54658, Note_on_c, 0, 31, 0
2, 54689, Control_c, 0, 64, 127
2, 54691, Note_on_c, 0, 38, 70
2, 54718, Note_on_c, 0, 64, 100
2, 54727, Note_on_c, 0, 62, 0
2, 54778, Note_on_c, 0, 64, 0
2, 54782, Note_on_c, 0, 38, 0
2, 54802, Note_on_c, 0, 48, 85
2, 54811, Note_on_c, 0, 62, 76
2, 54845, Note_on_c, 0, 48, 0
2, 54893, Note_on_c, 0, 64, 95
2, 54905, Note_on_c, 0, 62, 0
2, 54946, Note_on_c, 0, 64, 0
2, 54967, Note_on_c, 0, 31, 92
2, 54972, Note_on_c, 0, 62, 93
2, 55006, Note_on_c, 0, 31, 0
2, 55013, Note_on_c, 0, 62, 0
2, 55037, Note_on_c, 0, 64, 97
2, 55109, Note_on_c, 0, 62, 76
2, 55114, Note_on_c, 0, 64, 0
2, 55166, Note_on_c, 0, 50, 80
2, 55178, Note_on_c, 0, 62, 0
2, 55183, Note_on_c, 0, 64, 108
2, 55246, Note_on_c, 0, 62, 100
2, 55265, Note_on_c, 0, 50, 0
2, 55308, Note_on_c, 0, 64, 0
2, 55342, Note_on_c, 0, 60, 102
2, 55361, Note_on_c, 0, 62, 0
2, 55416, Note_on_c, 0, 62, 107
2, 55466, Note_on_c, 0, 60, 0
2, 55512, Note_on_c, 0, 31, 48
2, 55517, Note_on_c, 0, 33, 51
2, 55519, Note_on_c, 0, 64, 114
2, 55550, Control_c, 0, 64, 0
2, 55560, Note_on_c, 0, 33, 0
2, 55574, Note_on_c, 0, 62, 0
2, 55694, Note_on_c, 0, 38, 78
2, 55711, Note_on_c, 0, 31, 0
2, 55733, Note_on_c, 0, 38, 0
2, 55735, Control_c, 0, 64, 127
2, 55822, Note_on_c, 0, 48, 50
2, 55826, Note_on_c, 0, 64, 0
2, 55879, Note_on_c, 0, 48, 0
2, 55918, Note_on_c, 0, 31, 92
2, 55949, Note_on_c, 0, 31, 0
2, 56078, Note_on_c, 0, 50, 90
2, 56165, Note_on_c, 0, 50, 0
2, 56258, Note_on_c, 0, 60, 111
2, 56438, Note_on_c, 0, 55, 117
2, 56441, Control_c, 0, 64, 0
2, 56446, Note_on_c, 0, 31, 79
2, 56453, Note_on_c, 0, 60, 0
2, 56585, Note_on_c, 0, 31, 0
2, 56594, Control_c, 0, 64, 127
2, 56611, Note_on_c, 0, 55, 0
2, 56614, Note_on_c, 0, 38, 47
2, 56662, Note_on_c, 0, 38, 0
2, 56710, Note_on_c, 0, 48, 71
2, 56753, Note_on_c, 0, 48, 0
2, 56856, Note_on_c, 0, 31, 83
2, 56892, Note_on_c, 0, 31, 0
2, 57024, Note_on_c, 0, 50, 83
2, 57115, Note_on_c, 0, 50, 0
2, 57410, Note_on_c, 0, 31, 91
2, 57542, Note_on_c, 0, 38, 84
2, 57545, Note_on_c, 0, 31, 0
2, 57581, Note_on_c, 0, 38, 0
2, 57667, Note_on_c, 0, 48, 74
2, 57708, Note_on_c, 0, 48, 0
2, 57799, Note_on_c, 0, 31, 101
2, 57828, Note_on_c, 0, 31, 0
2, 57962, Note_on_c, 0, 50, 98
2, 58078, Note_on_c, 0, 50, 0
2, 58361, Note_on_c, 0, 31, 100
2, 58421, Note_on_c, 0, 55, 107
2, 58440, Control_c, 0, 64, 0
2, 58519, Note_on_c, 0, 31, 0
2, 58548, Note_on_c, 0, 57, 100
2, 58565, Note_on_c, 0, 55, 0
2, 58574, Note_on_c, 0, 41, 70
2, 58608, Control_c, 0, 64, 127
2, 58627, Note_on_c, 0, 55, 103
2, 58639, Note_on_c, 0, 57, 0
2, 58682, Note_on_c, 0, 47, 57
2, 58690, Note_on_c, 0, 55, 0
2, 58694, Note_on_c, 0, 54, 95
2, 58706, Note_on_c, 0, 41, 0
2, 58721, Note_on_c, 0, 47, 0
2, 58750, Note_on_c, 0, 54, 0
2, 58774, Note_on_c, 0, 55, 89
2, 58798, Note_on_c, 0, 31, 96
2, 58853, Note_on_c, 0, 31, 0
2, 58855, Note_on_c, 0, 57, 95
2, 58877, Note_on_c, 0, 55, 0
2, 58922, Note_on_c, 0, 59, 62
2, 58951, Note_on_c, 0, 57, 0
2, 58961, Note_on_c, 0, 59, 0
2, 58970, Note_on_c, 0, 50, 100
2, 58985, Note_on_c, 0, 60, 103
2, 59050, Note_on_c, 0, 60, 0
2, 59062, Note_on_c, 0, 62, 98
2, 59126, Note_on_c, 0, 50, 0
2, 59126, Note_on_c, 0, 64, 83
2, 59162, Note_on_c, 0, 64, 0
2, 59167, Note_on_c, 0, 62, 0
2, 59194, Note_on_c, 0, 65, 104
2, 59263, Note_on_c, 0, 65, 0
2, 59263, Note_on_c, 0, 67, 105
2, 59314, Note_on_c, 0, 69, 100
2, 59364, Note_on_c, 0, 67, 0
2, 59381, Note_on_c, 0, 71, 81
2, 59398, Note_on_c, 0, 69, 0
2, 59410, Note_on_c, 0, 71, 0
2, 59412, Note_on_c, 0, 31, 103
2, 59448, Note_on_c, 0, 72, 106
2, 59491, Note_on_c, 0, 31, 0
2, 59520, Note_on_c, 0, 74, 108
2, 59530, Note_on_c, 0, 41, 74
2, 59539, Note_on_c, 0, 72, 0
2, 59575, Note_on_c, 0, 76, 103
2, 59594, Note_on_c, 0, 74, 0
2, 59602, Note_on_c, 0, 76, 0
2, 59635, Note_on_c, 0, 47, 81
2, 59650, Note_on_c, 0, 77, 111
2, 59655, Note_on_c, 0, 41, 0
2, 59712, Note_on_c, 0, 77, 0
2, 59719, Note_on_c, 0, 79, 107
2, 59736, Note_on_c, 0, 47, 0
2, 59779, Note_on_c, 0, 81, 104
2, 59806, Note_on_c, 0, 31, 96
2, 59830, Note_on_c, 0, 79, 0
2, 59844, Note_on_c, 0, 83, 76
2, 59854, Note_on_c, 0, 81, 0
2, 59856, Note_on_c, 0, 31, 0
2, 59875, Note_on_c, 0, 83, 0
2, 59904, Note_on_c, 0, 84, 106
2, 59969, Note_on_c, 0, 50, 99
2, 59986, Note_on_c, 0, 86, 105
2, 60005, Note_on_c, 0, 84, 0
2, 60031, Note_on_c, 0, 88, 99
2, 60062, Note_on_c, 0, 88, 0
2, 60062, Note_on_c, 0, 50, 0
2, 60074, Note_on_c, 0, 86, 0
2, 60115, Note_on_c, 0, 89, 108
2, 60192, Note_on_c, 0, 91, 104
2, 60240, Note_on_c, 0, 93, 108
2, 60252, Note_on_c, 0, 89, 0
2, 60326, Note_on_c, 0, 91, 0
2, 60341, Note_on_c, 0, 95, 95
2, 60382, Note_on_c, 0, 36, 103
2, 60391, Control_c, 0, 64, 0
2, 60394, Note_on_c, 0, 96, 119
2, 60415, Note_on_c, 0, 93, 0
2, 60485, Note_on_c, 0, 95, 0
2, 60653, Control_c, 0, 64, 127
2, 60653, Note_on_c, 0, 43, 65
2, 60677, Note_on_c, 0, 36, 0
2, 60727, Note_on_c, 0, 43, 0
2, 60746, Note_on_c, 0, 52, 83
2, 60785, Note_on_c, 0, 52, 0
2, 60878, Note_on_c, 0, 36, 81
2, 60914, Note_on_c, 0, 36, 0
2, 61054, Note_on_c, 0, 55, 87
2, 61159, Note_on_c, 0, 55, 0
2, 61373, Note_on_c, 0, 36, 85
2, 61433, Note_on_c, 0, 96, 0
2, 61519, Note_on_c, 0, 43, 81
2, 61522, Note_on_c, 0, 36, 0
2, 61589, Note_on_c, 0, 43, 0
2, 61632, Note_on_c, 0, 52, 90
2, 61670, Note_on_c, 0, 52, 0
2, 61757, Note_on_c, 0, 36, 92
2, 61793, Note_on_c, 0, 36, 0
2, 61896, Note_on_c, 0, 55, 95
2, 62004, Note_on_c, 0, 55, 0
2, 62210, Note_on_c, 0, 66, 111
2, 62230, Note_on_c, 0, 36, 71
2, 62234, Control_c, 0, 64, 0
2, 62374, Note_on_c, 0, 67, 98
2, 62386, Note_on_c, 0, 42, 64
2, 62400, Note_on_c, 0, 36, 0
2, 62402, Note_on_c, 0, 66, 0
2, 62405, Control_c, 0, 64, 127
2, 62412, Note_on_c, 0, 67, 0
2, 62436, Note_on_c, 0, 42, 0
2, 62462, Note_on_c, 0, 66, 88
2, 62489, Note_on_c, 0, 52, 80
2, 62527, Note_on_c, 0, 52, 0
2, 62534, Note_on_c, 0, 67, 91
2, 62539, Note_on_c, 0, 66, 0
2, 62573, Note_on_c, 0, 67, 0
2, 62604, Note_on_c, 0, 66, 90
2, 62623, Note_on_c, 0, 36, 84
2, 62657, Note_on_c, 0, 67, 92
2, 62664, Note_on_c, 0, 36, 0
2, 62681, Note_on_c, 0, 66, 0
2, 62748, Note_on_c, 0, 66, 84
2, 62750, Note_on_c, 0, 67, 0
2, 62808, Note_on_c, 0, 66, 0
2, 62815, Note_on_c, 0, 67, 103
2, 62825, Note_on_c, 0, 54, 84
2, 62892, Note_on_c, 0, 66, 90
2, 62930, Note_on_c, 0, 54, 0
2, 62954, Note_on_c, 0, 67, 0
2, 62978, Note_on_c, 0, 64, 108
2, 63007, Note_on_c, 0, 66, 0
2, 63058, Note_on_c, 0, 66, 103
2, 63120, Note_on_c, 0, 64, 0
2, 63156, Control_c, 0, 64, 0
2, 63158, Note_on_c, 0, 36, 80
2, 63158, Note_on_c, 0, 67, 115
2, 63262, Note_on_c, 0, 66, 0
2, 63317, Note_on_c, 0, 42, 67
2, 63326, Note_on_c, 0, 36, 0
2, 63358, Control_c, 0, 64, 127
2, 63367, Note_on_c, 0, 42, 0
2, 63413, Note_on_c, 0, 52, 84
2, 63451, Note_on_c, 0, 52, 0
2, 63470, Note_on_c, 0, 67, 0
2, 63540, Note_on_c, 0, 36, 90
2, 63569, Note_on_c, 0, 36, 0
2, 63677, Note_on_c, 0, 54, 84
2, 63782, Note_on_c, 0, 54, 0
2, 63845, Note_on_c, 0, 64, 111
2, 63974, Note_on_c, 0, 59, 106
2, 63979, Note_on_c, 0, 35, 79
2, 63986, Control_c, 0, 64, 0
2, 64013, Note_on_c, 0, 64, 0
2, 64138, Note_on_c, 0, 35, 0
2, 64142, Note_on_c, 0, 43, 69
2, 64186, Control_c, 0, 64, 127
2, 64205, Note_on_c, 0, 59, 0
2, 64241, Note_on_c, 0, 52, 82
2, 64277, Note_on_c, 0, 52, 0
2, 64349, Note_on_c, 0, 43, 0
2, 64385, Note_on_c, 0, 35, 73
2, 64418, Note_on_c, 0, 35, 0
2, 64505, Note_on_c, 0, 84, 117
2, 64615, Note_on_c, 0, 55, 74
2, 64654, Note_on_c, 0, 55, 0
2, 64891, Note_on_c, 0, 35, 76
2, 64982, Note_on_c, 0, 83, 90
2, 65028, Note_on_c, 0, 84, 0
2, 65047, Note_on_c, 0, 35, 0
2, 65066, Note_on_c, 0, 79, 88
2, 65074, Note_on_c, 0, 43, 71
2, 65093, Note_on_c, 0, 83, 0
2, 65177, Note_on_c, 0, 76, 102
2, 65189, Note_on_c, 0, 79, 0
2, 65249, Note_on_c, 0, 52, 71
2, 65261, Note_on_c, 0, 43, 0
2, 65263, Note_on_c, 0, 76, 0
2, 65278, Note_on_c, 0, 72, 104
2, 65290, Note_on_c, 0, 52, 0
2, 65309, Note_on_c, 0, 72, 0
2, 65364, Note_on_c, 0, 71, 90
2, 65402, Note_on_c, 0, 35, 72
2, 65441, Note_on_c, 0, 35, 0
2, 65441, Note_on_c, 0, 67, 92
2, 65448, Note_on_c, 0, 71, 0
2, 65527, Note_on_c, 0, 64, 88
2, 65534, Note_on_c, 0, 67, 0
2, 65558, Note_on_c, 0, 64, 0
2, 65587, Note_on_c, 0, 60, 95
2, 65594, Note_on_c, 0, 55, 74
2, 65623, Note_on_c, 0, 60, 0
2, 65638, Note_on_c, 0, 55, 0
2, 65662, Note_on_c, 0, 59, 88
2, 65712, Note_on_c, 0, 55, 75
2, 65750, Note_on_c, 0, 59, 0
2, 65789, Note_on_c, 0, 52, 109
2, 65806, Note_on_c, 0, 55, 0
2, 65863, Note_on_c, 0, 52, 0
2, 65878, Note_on_c, 0, 48, 100
2, 65894, Note_on_c, 0, 35, 81
2, 65938, Control_c, 0, 64, 0
2, 65952, Note_on_c, 0, 48, 0
2, 65954, Note_on_c, 0, 47, 113
2, 66031, Note_on_c, 0, 35, 0
2, 66130, Note_on_c, 0, 45, 88
2, 66170, Control_c, 0, 64, 127
2, 66187, Note_on_c, 0, 45, 0
2, 66238, Note_on_c, 0, 51, 75
2, 66281, Note_on_c, 0, 51, 0
2, 66348, Note_on_c, 0, 35, 83
2, 66377, Note_on_c, 0, 35, 0
2, 66521, Note_on_c, 0, 54, 95
2, 66614, Note_on_c, 0, 54, 0
2, 66852, Note_on_c, 0, 35, 96
2, 66886, Note_on_c, 0, 47, 0
2, 66936, Note_on_c, 0, 48, 103
2, 66953, Note_on_c, 0, 35, 0
2, 67020, Note_on_c, 0, 48, 0
2, 67025, Note_on_c, 0, 51, 95
2, 67042, Note_on_c, 0, 45, 64
2, 67097, Note_on_c, 0, 54, 88
2, 67118, Note_on_c, 0, 51, 0
2, 67133, Note_on_c, 0, 54, 0
2, 67152, Note_on_c, 0, 45, 0
2, 67178, Note_on_c, 0, 51, 86
2, 67183, Note_on_c, 0, 57, 100
2, 67258, Note_on_c, 0, 51, 0
2, 67260, Note_on_c, 0, 60, 106
2, 67282, Note_on_c, 0, 57, 0
2, 67325, Note_on_c, 0, 63, 93
2, 67349, Note_on_c, 0, 35, 87
2, 67351, Note_on_c, 0, 60, 0
2, 67382, Note_on_c, 0, 66, 90
2, 67385, Note_on_c, 0, 35, 0
2, 67414, Note_on_c, 0, 66, 0
2, 67414, Note_on_c, 0, 63, 0
2, 67469, Note_on_c, 0, 69, 101
2, 67534, Note_on_c, 0, 72, 108
2, 67543, Note_on_c, 0, 54, 93
2, 67558, Note_on_c, 0, 69, 0
2, 67596, Note_on_c, 0, 75, 90
2, 67637, Note_on_c, 0, 72, 0
2, 67646, Note_on_c, 0, 78, 92
2, 67654, Note_on_c, 0, 54, 0
2, 67682, Note_on_c, 0, 75, 0
2, 67694, Note_on_c, 0, 78, 0
2, 67740, Note_on_c, 0, 81, 104
2, 67802, Note_on_c, 0, 81, 0
2, 67817, Note_on_c, 0, 84, 102
2, 67879, Note_on_c, 0, 87, 95
2, 67908, Note_on_c, 0, 84, 0
2, 67939, Note_on_c, 0, 90, 90
2, 67963, Note_on_c, 0, 87, 0
2, 67968, Note_on_c, 0, 90, 0
2, 68028, Note_on_c, 0, 93, 104
2, 68105, Note_on_c, 0, 96, 106
2, 68119, Note_on_c, 0, 93, 0
2, 68186, Note_on_c, 0, 99, 94
2, 68203, Note_on_c, 0, 96, 0
2, 68203, Note_on_c, 0, 40, 98
2, 68244, Control_c, 0, 64, 0
2, 68290, Note_on_c, 0, 100, 118
2, 68352, Note_on_c, 0, 99, 0
2, 68462, Note_on_c, 0, 47, 64
2, 68465, Note_on_c, 0, 40, 0
2, 68489, Control_c, 0, 64, 127
2, 68515, Note_on_c, 0, 47, 0
2, 68551, Note_on_c, 0, 100, 0
2, 68563, Note_on_c, 0, 55, 71
2, 68602, Note_on_c, 0, 55, 0
2, 68702, Note_on_c, 0, 40, 50
2, 68748, Note_on_c, 0, 40, 0
2, 68873, Note_on_c, 0, 59, 76
2, 68978, Note_on_c, 0, 59, 0
2, 69187, Note_on_c, 0, 67, 116
2, 69214, Note_on_c, 0, 40, 70
2, 69324, Note_on_c, 0, 40, 0
2, 69374, Note_on_c, 0, 47, 48
2, 69451, Note_on_c, 0, 47, 0
2, 69509, Note_on_c, 0, 55, 48
2, 69525, Note_on_c, 0, 55, 0
2, 69610, Note_on_c, 0, 40, 78
2, 69643, Note_on_c, 0, 40, 0
2, 69770, Note_on_c, 0, 59, 79
2, 69864, Note_on_c, 0, 59, 0
2, 70049, Note_on_c, 0, 39, 95
2, 70058, Control_c, 0, 64, 0
2, 70212, Note_on_c, 0, 47, 72
2, 70255, Note_on_c, 0, 39, 0
2, 70258, Control_c, 0, 64, 127
2, 70260, Note_on_c, 0, 47, 0
2, 70332, Note_on_c, 0, 55, 80
2, 70363, Note_on_c, 0, 67, 0
2, 70366, Note_on_c, 0, 55, 0
2, 70474, Note_on_c, 0, 39, 76
2, 70526, Note_on_c, 0, 39, 0
2, 70622, Note_on_c, 0, 67, 112
2, 70723, Note_on_c, 0, 59, 60
2, 70771, Note_on_c, 0, 59, 0
2, 70836, Note_on_c, 0, 67, 0
2, 70915, Note_on_c, 0, 67, 94
2, 70963, Note_on_c, 0, 70, 106
2, 70980, Note_on_c, 0, 38, 79
2, 70990, Note_on_c, 0, 67, 0
2, 70994, Control_c, 0, 64, 0
2, 71028, Note_on_c, 0, 68, 104
2, 71098, Note_on_c, 0, 70, 0
2, 71225, Control_c, 0, 64, 127
2, 71237, Note_on_c, 0, 38, 0
2, 71239, Note_on_c, 0, 47, 63
2, 71414, Note_on_c, 0, 53, 54
2, 71467, Note_on_c, 0, 53, 0
2, 71513, Note_on_c, 0, 47, 0
2, 71599, Note_on_c, 0, 38, 70
2, 71695, Note_on_c, 0, 38, 0
2, 71719, Note_on_c, 0, 68, 0
2, 71803, Note_on_c, 0, 55, 78
2, 71942, Note_on_c, 0, 55, 0
2, 72012, Note_on_c, 0, 67, 100
2, 72070, Note_on_c, 0, 67, 0
2, 72154, Note_on_c, 0, 67, 98
2, 72175, Note_on_c, 0, 36, 67
2, 72209, Control_c, 0, 64, 0
2, 72394, Note_on_c, 0, 43, 64
2, 72439, Note_on_c, 0, 36, 0
2, 72456, Control_c, 0, 64, 127
2, 72521, Note_on_c, 0, 43, 0
2, 72526, Note_on_c, 0, 51, 62
2, 72595, Note_on_c, 0, 51, 0
2, 72677, Note_on_c, 0, 36, 73
2, 72720, Note_on_c, 0, 36, 0
2, 72850, Note_on_c, 0, 63, 90
2, 72890, Note_on_c, 0, 55, 59
2, 72938, Note_on_c, 0, 55, 0
2, 73116, Note_on_c, 0, 60, 97
2, 73150, Note_on_c, 0, 67, 0
2, 73166, Note_on_c, 0, 36, 54
2, 73214, Note_on_c, 0, 63, 0
2, 73277, Note_on_c, 0, 36, 0
2, 73294, Note_on_c, 0, 43, 54
2, 73373, Note_on_c, 0, 43, 0
2, 73380, Note_on_c, 0, 51, 70
2, 73440, Note_on_c, 0, 51, 0
2, 73517, Note_on_c, 0, 36, 62
2, 73558, Note_on_c, 0, 36, 0
2, 73675, Note_on_c, 0, 55, 75
2, 73783, Note_on_c, 0, 55, 0
2, 73963, Note_on_c, 0, 36, 69
2, 74100, Note_on_c, 0, 43, 70
2, 74112, Note_on_c, 0, 36, 0
2, 74177, Note_on_c, 0, 43, 0
2, 74213, Note_on_c, 0, 51, 70
2, 74270, Note_on_c, 0, 51, 0
2, 74357, Note_on_c, 0, 36, 47
2, 74407, Note_on_c, 0, 36, 0
2, 74491, Note_on_c, 0, 55, 73
2, 74558, Note_on_c, 0, 55, 0
2, 74734, Note_on_c, 0, 63, 96
2, 74796, Note_on_c, 0, 36, 51
2, 74854, Control_c, 0, 64, 0
2, 74868, Note_on_c, 0, 60, 0
2, 74959, Note_on_c, 0, 36, 0
2, 74971, Note_on_c, 0, 43, 37
2, 75007, Control_c, 0, 64, 127
2, 75043, Note_on_c, 0, 43, 0
2, 75058, Note_on_c, 0, 67, 100
2, 75079, Note_on_c, 0, 51, 48
2, 75137, Note_on_c, 0, 51, 0
2, 75170, Note_on_c, 0, 63, 0
2, 75228, Note_on_c, 0, 36, 36
2, 75290, Note_on_c, 0, 36, 0
2, 75401, Note_on_c, 0, 55, 63
2, 75458, Note_on_c, 0, 55, 0
2, 75571, Note_on_c, 0, 72, 97
2, 75626, Note_on_c, 0, 67, 0
2, 75854, Note_on_c, 0, 70, 91
2, 75886, Note_on_c, 0, 36, 46
2, 75974, Control_c, 0, 64, 0
2, 76037, Note_on_c, 0, 72, 0
2, 76159, Note_on_c, 0, 44, 41
2, 76200, Note_on_c, 0, 36, 0
2, 76205, Control_c, 0, 64, 127
2, 76327, Note_on_c, 0, 51, 54
2, 76334, Note_on_c, 0, 44, 0
2, 76392, Note_on_c, 0, 51, 0
2, 76493, Note_on_c, 0, 36, 50
2, 76565, Note_on_c, 0, 36, 0
2, 76766, Note_on_c, 0, 68, 72
2, 76766, Note_on_c, 0, 56, 52
2, 76894, Note_on_c, 0, 56, 0
2, 77110, Note_on_c, 0, 63, 73
2, 77117, Note_on_c, 0, 36, 47
2, 77134, Note_on_c, 0, 70, 0
2, 77256, Note_on_c, 0, 36, 0
2, 77287, Note_on_c, 0, 44, 54
2, 77333, Note_on_c, 0, 68, 0
2, 77352, Note_on_c, 0, 44, 0
2, 77388, Note_on_c, 0, 51, 59
2, 77441, Note_on_c, 0, 51, 0
2, 77515, Note_on_c, 0, 36, 45
2, 77568, Note_on_c, 0, 36, 0
2, 77654, Note_on_c, 0, 56, 73
2, 77779, Note_on_c, 0, 56, 0
2, 77916, Note_on_c, 0, 36, 84
2, 78050, Note_on_c, 0, 36, 0
2, 78058, Note_on_c, 0, 44, 71
2, 78106, Note_on_c, 0, 44, 0
2, 78151, Note_on_c, 0, 68, 102
2, 78192, Note_on_c, 0, 63, 0
2, 78204, Note_on_c, 0, 54, 69
2, 78276, Note_on_c, 0, 54, 0
2, 78401, Note_on_c, 0, 36, 79
2, 78451, Note_on_c, 0, 36, 0
2, 78598, Note_on_c, 0, 56, 81
2, 78648, Note_on_c, 0, 68, 0
2, 78720, Note_on_c, 0, 56, 0
2, 78763, Note_on_c, 0, 68, 105
2, 78886, Note_on_c, 0, 68, 0
2, 78955, Note_on_c, 0, 68, 96
2, 78982, Note_on_c, 0, 36, 62
2, 79049, Note_on_c, 0, 36, 0
2, 79121, Note_on_c, 0, 44, 54
2, 79142, Note_on_c, 0, 65, 96
2, 79166, Note_on_c, 0, 44, 0
2, 79260, Note_on_c, 0, 54, 44
2, 79294, Note_on_c, 0, 66, 88
2, 79325, Note_on_c, 0, 54, 0
2, 79325, Note_on_c, 0, 65, 0
2, 79411, Note_on_c, 0, 36, 66
2, 79421, Note_on_c, 0, 63, 84
2, 79435, Note_on_c, 0, 66, 0
2, 79452, Note_on_c, 0, 36, 0
2, 79550, Note_on_c, 0, 63, 0
2, 79555, Note_on_c, 0, 56, 90
2, 79560, Note_on_c, 0, 66, 69
2, 79613, Note_on_c, 0, 56, 0
2, 79675, Note_on_c, 0, 68, 0
2, 79675, Note_on_c, 0, 56, 97
2, 79790, Note_on_c, 0, 68, 95
2, 79795, Note_on_c, 0, 66, 0
2, 79817, Control_c, 0, 64, 0
2, 79822, Note_on_c, 0, 37, 75
2, 79824, Note_on_c, 0, 56, 0
2, 79982, Note_on_c, 0, 44, 59
2, 80009, Note_on_c, 0, 37, 0
2, 80033, Note_on_c, 0, 44, 0
2, 80047, Control_c, 0, 64, 127
2, 80090, Note_on_c, 0, 53, 75
2, 80136, Note_on_c, 0, 53, 0
2, 80244, Note_on_c, 0, 37, 84
2, 80297, Note_on_c, 0, 37, 0
2, 80395, Note_on_c, 0, 65, 100
2, 80443, Note_on_c, 0, 56, 69
2, 80501, Note_on_c, 0, 56, 0
2, 80659, Note_on_c, 0, 61, 100
2, 80683, Note_on_c, 0, 37, 56
2, 80705, Note_on_c, 0, 68, 0
2, 80765, Note_on_c, 0, 65, 0
2, 80798, Note_on_c, 0, 44, 64
2, 80808, Note_on_c, 0, 37, 0
2, 80842, Note_on_c, 0, 44, 0
2, 80904, Note_on_c, 0, 53, 76
2, 80942, Note_on_c, 0, 53, 0
2, 81046, Note_on_c, 0, 37, 82
2, 81091, Note_on_c, 0, 37, 0
2, 81238, Note_on_c, 0, 56, 82
2, 81341, Note_on_c, 0, 56, 0
2, 81506, Note_on_c, 0, 37, 75
2, 81607, Note_on_c, 0, 37, 0
2, 81624, Note_on_c, 0, 44, 70
2, 81672, Note_on_c, 0, 44, 0
2, 81722, Note_on_c, 0, 61, 0
2, 81727, Note_on_c, 0, 53, 82
2, 81766, Note_on_c, 0, 53, 0
2, 81857, Note_on_c, 0, 37, 89
2, 81898, Note_on_c, 0, 37, 0
2, 81996, Note_on_c, 0, 65, 108
2, 82015, Note_on_c, 0, 56, 85
2, 82099, Note_on_c, 0, 56, 0
2, 82265, Note_on_c, 0, 68, 106
2, 82279, Note_on_c, 0, 37, 60
2, 82337, Note_on_c, 0, 65, 0
2, 82349, Note_on_c, 0, 37, 0
2, 82385, Note_on_c, 0, 44, 67
2, 82435, Note_on_c, 0, 44, 0
2, 82498, Note_on_c, 0, 53, 79
2, 82507, Note_on_c, 0, 73, 100
2, 82543, Note_on_c, 0, 53, 0
2, 82567, Note_on_c, 0, 68, 0
2, 82651, Note_on_c, 0, 37, 84
2, 82694, Note_on_c, 0, 37, 0
2, 82826, Note_on_c, 0, 56, 84
2, 82922, Note_on_c, 0, 56, 0
2, 82994, Note_on_c, 0, 77, 108
2, 83033, Note_on_c, 0, 73, 0
2, 83158, Note_on_c, 0, 75, 101
2, 83182, Control_c, 0, 64, 0
2, 83189, Note_on_c, 0, 37, 59
2, 83230, Note_on_c, 0, 77, 0
2, 83316, Note_on_c, 0, 44, 62
2, 83335, Note_on_c, 0, 37, 0
2, 83364, Note_on_c, 0, 44, 0
2, 83366, Control_c, 0, 64, 127
2, 83450, Note_on_c, 0, 53, 70
2, 83503, Note_on_c, 0, 53, 0
2, 83654, Note_on_c, 0, 37, 72
2, 83710, Note_on_c, 0, 37, 0
2, 83822, Note_on_c, 0, 73, 88
2, 83885, Note_on_c, 0, 56, 62
2, 83947, Note_on_c, 0, 56, 0
2, 84084, Note_on_c, 0, 75, 0
2, 84113, Note_on_c, 0, 68, 89
2, 84130, Note_on_c, 0, 37, 72
2, 84173, Note_on_c, 0, 37, 0
2, 84206, Note_on_c, 0, 73, 0
2, 84252, Note_on_c, 0, 44, 49
2, 84298, Note_on_c, 0, 44, 0
2, 84348, Note_on_c, 0, 53, 65
2, 84391, Note_on_c, 0, 53, 0
2, 84494, Note_on_c, 0, 37, 78
2, 84533, Note_on_c, 0, 37, 0
2, 84677, Note_on_c, 0, 56, 69
2, 84787, Note_on_c, 0, 56, 0
2, 84946, Note_on_c, 0, 37, 73
2, 85066, Note_on_c, 0, 37, 0
2, 85070, Note_on_c, 0, 44, 78
2, 85121, Note_on_c, 0, 44, 0
2, 85212, Note_on_c, 0, 53, 72
2, 85250, Note_on_c, 0, 68, 0
2, 85255, Note_on_c, 0, 53, 0
2, 85344, Note_on_c, 0, 37, 72
2, 85382, Note_on_c, 0, 37, 0
2, 85498, Note_on_c, 0, 65, 95
2, 85534, Note_on_c, 0, 56, 65
2, 85586, Note_on_c, 0, 56, 0
2, 85831, Note_on_c, 0, 68, 83
2, 85855, Control_c, 0, 64, 0
2, 85865, Note_on_c, 0, 37, 28
2, 85886, Note_on_c, 0, 65, 0
2, 86009, Note_on_c, 0, 37, 0
2, 86018, Note_on_c, 0, 44, 37
2, 86026, Control_c, 0, 64, 127
2, 86071, Note_on_c, 0, 44, 0
2, 86131, Note_on_c, 0, 53, 45
2, 86184, Note_on_c, 0, 73, 61
2, 86189, Note_on_c, 0, 53, 0
2, 86242, Note_on_c, 0, 68, 0
2, 86330, Note_on_c, 0, 37, 55
2, 86388, Note_on_c, 0, 37, 0
2, 86568, Note_on_c, 0, 56, 50
2, 86647, Note_on_c, 0, 56, 0
2, 86818, Note_on_c, 0, 77, 65
2, 86839, Note_on_c, 0, 73, 0
2, 87014, Note_on_c, 0, 37, 45
2, 87022, Note_on_c, 0, 75, 61
2, 87038, Control_c, 0, 64, 0
2, 87053, Note_on_c, 0, 77, 0
2, 87211, Note_on_c, 0, 37, 0
2, 87211, Note_on_c, 0, 45, 59
2, 87240, Control_c, 0, 64, 127
2, 87259, Note_on_c, 0, 45, 0
2, 87398, Note_on_c, 0, 53, 45
2, 87451, Note_on_c, 0, 53, 0
2, 87545, Note_on_c, 0, 37, 50
2, 87605, Note_on_c, 0, 37, 0
2, 87792, Note_on_c, 0, 73, 53
2, 87953, Note_on_c, 0, 75, 0
2, 88133, Note_on_c, 0, 37, 50
2, 88138, Note_on_c, 0, 69, 47
2, 88210, Note_on_c, 0, 73, 0
2, 88258, Note_on_c, 0, 37, 0
2, 88284, Note_on_c, 0, 45, 44
2, 88337, Note_on_c, 0, 45, 0
2, 88378, Note_on_c, 0, 53, 60
2, 88423, Note_on_c, 0, 53, 0
2, 88538, Note_on_c, 0, 37, 65
2, 88579, Note_on_c, 0, 37, 0
2, 88738, Note_on_c, 0, 57, 50
2, 88820, Note_on_c, 0, 57, 0
2, 89028, Note_on_c, 0, 37, 58
2, 89038, Control_c, 0, 64, 0
2, 89182, Note_on_c, 0, 37, 0
2, 89182, Note_on_c, 0, 45, 65
2, 89206, Control_c, 0, 64, 127
2, 89213, Note_on_c, 0, 69, 0
2, 89225, Note_on_c, 0, 45, 0
2, 89287, Note_on_c, 0, 69, 83
2, 89292, Note_on_c, 0, 53, 57
2, 89340, Note_on_c, 0, 53, 0
2, 89448, Note_on_c, 0, 37, 72
2, 89491, Note_on_c, 0, 37, 0
2, 89510, Note_on_c, 0, 69, 0
2, 89580, Note_on_c, 0, 69, 94
2, 89652, Note_on_c, 0, 57, 62
2, 89722, Note_on_c, 0, 57, 0
2, 89784, Note_on_c, 0, 69, 0
2, 89854, Note_on_c, 0, 69, 100
2, 89878, Note_on_c, 0, 37, 67
2, 89957, Note_on_c, 0, 37, 0
2, 90026, Note_on_c, 0, 45, 48
2, 90079, Note_on_c, 0, 45, 0
2, 90103, Note_on_c, 0, 53, 77
2, 90144, Note_on_c, 0, 65, 100
2, 90151, Note_on_c, 0, 53, 0
2, 90206, Note_on_c, 0, 69, 0
2, 90269, Note_on_c, 0, 37, 78
2, 90317, Note_on_c, 0, 37, 0
2, 90478, Note_on_c, 0, 57, 71
2, 90578, Note_on_c, 0, 57, 0
2, 90679, Note_on_c, 0, 67, 89
2, 90696, Note_on_c, 0, 65, 0
2, 90763, Note_on_c, 0, 67, 0
2, 90857, Note_on_c, 0, 69, 94
2, 90878, Note_on_c, 0, 37, 65
2, 90881, Control_c, 0, 64, 0
2, 90998, Note_on_c, 0, 37, 0
2, 91018, Note_on_c, 0, 45, 57
2, 91051, Control_c, 0, 64, 127
2, 91061, Note_on_c, 0, 45, 0
2, 91111, Note_on_c, 0, 53, 65
2, 91154, Note_on_c, 0, 53, 0
2, 91255, Note_on_c, 0, 37, 68
2, 91296, Note_on_c, 0, 37, 0
2, 91438, Note_on_c, 0, 57, 63
2, 91493, Note_on_c, 0, 57, 0
2, 91752, Note_on_c, 0, 37, 46
2, 91870, Note_on_c, 0, 37, 0
2, 91894, Note_on_c, 0, 45, 59
2, 91937, Note_on_c, 0, 45, 0
2, 91997, Note_on_c, 0, 53, 67
2, 92040, Note_on_c, 0, 53, 0
2, 92141, Note_on_c, 0, 37, 84
2, 92182, Note_on_c, 0, 37, 0
2, 92311, Note_on_c, 0, 57, 83
2, 92412, Note_on_c, 0, 57, 0
2, 92563, Note_on_c, 0, 37, 90
2, 92674, Note_on_c, 0, 69, 0
2, 92678, Note_on_c, 0, 45, 93
2, 92698, Note_on_c, 0, 37, 0
2, 92791, Note_on_c, 0, 53, 72
2, 92810, Note_on_c, 0, 45, 0
2, 92820, Note_on_c, 0, 81, 107
2, 92834, Note_on_c, 0, 69, 91
2, 92837, Note_on_c, 0, 53, 0
2, 92921, Note_on_c, 0, 37, 81
2, 92945, Note_on_c, 0, 69, 0
2, 92957, Note_on_c, 0, 37, 0
2, 92978, Note_on_c, 0, 81, 0
2, 93050, Note_on_c, 0, 81, 108
2, 93055, Note_on_c, 0, 69, 98
2, 93082, Note_on_c, 0, 57, 83
2, 93118, Note_on_c, 0, 57, 0
2, 93194, Note_on_c, 0, 69, 0
2, 93230, Note_on_c, 0, 81, 0
2, 93310, Note_on_c, 0, 37, 79
2, 93312, Note_on_c, 0, 81, 110
2, 93314, Note_on_c, 0, 69, 108
2, 93384, Note_on_c, 0, 69, 0
2, 93420, Note_on_c, 0, 81, 0
2, 93430, Note_on_c, 0, 37, 0
2, 93439, Note_on_c, 0, 45, 76
2, 93542, Note_on_c, 0, 84, 108
2, 93550, Note_on_c, 0, 72, 97
2, 93552, Note_on_c, 0, 53, 81
2, 93564, Note_on_c, 0, 84, 0
2, 93583, Note_on_c, 0, 72, 0
2, 93595, Note_on_c, 0, 53, 0
2, 93646, Note_on_c, 0, 70, 117
2, 93650, Note_on_c, 0, 82, 117
2, 93708, Note_on_c, 0, 45, 0
2, 93725, Note_on_c, 0, 37, 75
2, 93818, Note_on_c, 0, 37, 0
2, 93953, Note_on_c, 0, 57, 98
2, 94070, Note_on_c, 0, 57, 0
2, 94152, Note_on_c, 0, 70, 0
2, 94169, Note_on_c, 0, 82, 0
2, 94301, Note_on_c, 0, 81, 117
2, 94306, Note_on_c, 0, 69, 110
2, 94390, Note_on_c, 0, 69, 0
2, 94404, Note_on_c, 0, 81, 0
2, 94526, Note_on_c, 0, 81, 111
2, 94526, Note_on_c, 0, 69, 110
2, 94536, Note_on_c, 0, 38, 110
2, 94586, Control_c, 0, 64, 0
2, 94735, Note_on_c, 0, 45, 84
2, 94742, Note_on_c, 0, 38, 0
2, 94817, Control_c, 0, 64, 127
2, 94824, Note_on_c, 0, 53, 87
2, 94855, Note_on_c, 0, 81, 0
2, 94877, Note_on_c, 0, 53, 0
2, 94910, Note_on_c, 0, 69, 0
2, 94939, Note_on_c, 0, 45, 0
2, 94958, Note_on_c, 0, 38, 91
2, 94997, Note_on_c, 0, 38, 0
2, 95059, Note_on_c, 0, 77, 109
2, 95059, Note_on_c, 0, 65, 103
2, 95105, Note_on_c, 0, 57, 92
2, 95131, Note_on_c, 0, 77, 0
2, 95146, Note_on_c, 0, 57, 0
2, 95162, Note_on_c, 0, 65, 0
2, 95302, Note_on_c, 0, 74, 114
2, 95306, Note_on_c, 0, 62, 108
2, 95333, Note_on_c, 0, 38, 83
2, 95467, Note_on_c, 0, 45, 88
2, 95474, Note_on_c, 0, 38, 0
2, 95477, Control_c, 0, 64, 0
2, 95558, Note_on_c, 0, 53, 89
2, 95630, Note_on_c, 0, 53, 0
2, 95630, Control_c, 0, 64, 127
2, 95683, Note_on_c, 0, 45, 0
2, 95719, Note_on_c, 0, 38, 84
2, 95755, Note_on_c, 0, 38, 0
2, 95873, Note_on_c, 0, 57, 90
2, 95959, Note_on_c, 0, 57, 0
2, 96065, Note_on_c, 0, 62, 0
2, 96149, Note_on_c, 0, 74, 0
2, 96149, Note_on_c, 0, 38, 85
2, 96264, Note_on_c, 0, 38, 0
2, 96274, Note_on_c, 0, 45, 83
2, 96370, Note_on_c, 0, 53, 69
2, 96413, Note_on_c, 0, 53, 0
2, 96485, Note_on_c, 0, 45, 0
2, 96494, Note_on_c, 0, 38, 74
2, 96533, Note_on_c, 0, 38, 0
2, 96569, Note_on_c, 0, 77, 111
2, 96569, Note_on_c, 0, 65, 108
2, 96614, Note_on_c, 0, 65, 0
2, 96638, Note_on_c, 0, 57, 78
2, 96648, Note_on_c, 0, 77, 0
2, 96677, Note_on_c, 0, 57, 0
2, 96864, Note_on_c, 0, 81, 115
2, 96864, Note_on_c, 0, 69, 107
2, 96871, Note_on_c, 0, 38, 83
2, 96950, Note_on_c, 0, 69, 0
2, 96974, Note_on_c, 0, 38, 0
2, 96986, Note_on_c, 0, 45, 87
2, 96991, Note_on_c, 0, 81, 0
2, 97073, Note_on_c, 0, 53, 90
2, 97090, Note_on_c, 0, 86, 108
2, 97099, Note_on_c, 0, 74, 95
2, 97118, Note_on_c, 0, 53, 0
2, 97140, Note_on_c, 0, 74, 0
2, 97214, Note_on_c, 0, 38, 88
2, 97217, Note_on_c, 0, 86, 0
2, 97217, Note_on_c, 0, 45, 0
2, 97253, Note_on_c, 0, 38, 0
2, 97366, Note_on_c, 0, 57, 100
2, 97457, Note_on_c, 0, 57, 0
2, 97483, Note_on_c, 0, 89, 116
2, 97490, Note_on_c, 0, 77, 105
2, 97538, Note_on_c, 0, 77, 0
2, 97567, Note_on_c, 0, 89, 0
2, 97618, Note_on_c, 0, 34, 101
2, 97620, Note_on_c, 0, 88, 114
2, 97622, Note_on_c, 0, 76, 114
2, 97627, Control_c, 0, 64, 0
2, 97754, Note_on_c, 0, 34, 0
2, 97754, Note_on_c, 0, 43, 70
2, 97843, Control_c, 0, 64, 127
2, 97843, Note_on_c, 0, 50, 80
2, 97884, Note_on_c, 0, 50, 0
2, 97942, Note_on_c, 0, 88, 0
2, 97949, Note_on_c, 0, 76, 0
2, 97956, Note_on_c, 0, 43, 0
2, 97968, Note_on_c, 0, 34, 103
2, 98006, Note_on_c, 0, 34, 0
2, 98081, Note_on_c, 0, 86, 108
2, 98086, Note_on_c, 0, 74, 111
2, 98110, Note_on_c, 0, 86, 0
2, 98126, Note_on_c, 0, 52, 85
2, 98160, Note_on_c, 0, 74, 0
2, 98162, Note_on_c, 0, 52, 0
2, 98357, Note_on_c, 0, 79, 116
2, 98359, Note_on_c, 0, 67, 110
2, 98374, Note_on_c, 0, 34, 95
2, 98448, Note_on_c, 0, 67, 0
2, 98470, Note_on_c, 0, 79, 0
2, 98494, Note_on_c, 0, 34, 0
2, 98513, Note_on_c, 0, 43, 68
2, 98582, Note_on_c, 0, 86, 118
2, 98590, Note_on_c, 0, 74, 113
2, 98599, Note_on_c, 0, 50, 87
2, 98645, Note_on_c, 0, 50, 0
2, 98736, Note_on_c, 0, 43, 0
2, 98738, Note_on_c, 0, 34, 101
2, 98741, Note_on_c, 0, 74, 0
2, 98774, Note_on_c, 0, 34, 0
2, 98789, Note_on_c, 0, 86, 0
2, 98866, Note_on_c, 0, 52, 98
2, 98918, Note_on_c, 0, 52, 0
2, 98940, Note_on_c, 0, 89, 113
2, 98947, Note_on_c, 0, 77, 109
2, 98995, Note_on_c, 0, 77, 0
2, 99038, Note_on_c, 0, 89, 0
2, 99120, Note_on_c, 0, 34, 101
2, 99125, Note_on_c, 0, 88, 115
2, 99132, Note_on_c, 0, 76, 115
2, 99149, Control_c, 0, 64, 0
2, 99252, Note_on_c, 0, 44, 75
2, 99257, Note_on_c, 0, 34, 0
2, 99319, Control_c, 0, 64, 127
2, 99365, Note_on_c, 0, 50, 80
2, 99394, Note_on_c, 0, 44, 0
2, 99406, Note_on_c, 0, 50, 0
2, 99461, Note_on_c, 0, 88, 0
2, 99504, Note_on_c, 0, 76, 0
2, 99504, Note_on_c, 0, 34, 101
2, 99569, Note_on_c, 0, 34, 0
2, 99679, Note_on_c, 0, 86, 116
2, 99686, Note_on_c, 0, 74, 112
2, 99739, Note_on_c, 0, 53, 55
2, 99761, Note_on_c, 0, 74, 0
2, 99775, Note_on_c, 0, 86, 0
2, 99787, Note_on_c, 0, 53, 0
2, 99989, Note_on_c, 0, 68, 110
2, 99991, Note_on_c, 0, 80, 111
2, 99996, Note_on_c, 0, 34, 96
2, 100030, Note_on_c, 0, 68, 0
2, 100039, Note_on_c, 0, 80, 0
2, 100111, Note_on_c, 0, 44, 78
2, 100118, Note_on_c, 0, 34, 0
2, 100238, Note_on_c, 0, 50, 84
2, 100250, Note_on_c, 0, 86, 115
2, 100253, Note_on_c, 0, 74, 110
2, 100274, Note_on_c, 0, 50, 0
2, 100332, Note_on_c, 0, 44, 0
2, 100382, Note_on_c, 0, 74, 0
2, 100382, Note_on_c, 0, 34, 97
2, 100418, Note_on_c, 0, 34, 0
2, 100435, Note_on_c, 0, 86, 0
2, 100514, Note_on_c, 0, 89, 119
2, 100522, Note_on_c, 0, 77, 108
2, 100526, Note_on_c, 0, 53, 96
2, 100548, Note_on_c, 0, 77, 0
2, 100567, Note_on_c, 0, 53, 0
2, 100582, Note_on_c, 0, 89, 0
2, 100891, Note_on_c, 0, 98, 113
2, 100891, Note_on_c, 0, 101, 121
2, 100894, Note_on_c, 0, 34, 97
2, 100985, Note_on_c, 0, 98, 0
2, 101030, Note_on_c, 0, 34, 0
2, 101059, Note_on_c, 0, 100, 102
2, 101066, Note_on_c, 0, 97, 82
2, 101086, Note_on_c, 0, 44, 61
2, 101102, Note_on_c, 0, 97, 0
2, 101117, Note_on_c, 0, 101, 0
2, 101167, Note_on_c, 0, 96, 99
2, 101174, Note_on_c, 0, 99, 98
2, 101206, Note_on_c, 0, 100, 0
2, 101210, Note_on_c, 0, 50, 80
2, 101251, Note_on_c, 0, 50, 0
2, 101290, Note_on_c, 0, 98, 108
2, 101297, Note_on_c, 0, 44, 0
2, 101297, Note_on_c, 0, 95, 88
2, 101299, Note_on_c, 0, 96, 0
2, 101321, Note_on_c, 0, 99, 0
2, 101364, Note_on_c, 0, 34, 91
2, 101366, Note_on_c, 0, 95, 0
2, 101395, Note_on_c, 0, 97, 101
2, 101398, Note_on_c, 0, 94, 105
2, 101400, Note_on_c, 0, 34, 0
2, 101426, Note_on_c, 0, 98, 0
2, 101470, Note_on_c, 0, 97, 0
2, 101494, Note_on_c, 0, 96, 88
2, 101494, Note_on_c, 0, 93, 102
2, 101503, Note_on_c, 0, 94, 0
2, 101520, Note_on_c, 0, 53, 78
2, 101544, Note_on_c, 0, 93, 0
2, 101561, Note_on_c, 0, 53, 0
2, 101594, Note_on_c, 0, 95, 83
2, 101597, Note_on_c, 0, 92, 83
2, 101640, Note_on_c, 0, 92, 0
2, 101678, Note_on_c, 0, 96, 0
2, 101683, Note_on_c, 0, 94, 109
2, 101683, Note_on_c, 0, 91, 91
2, 101714, Note_on_c, 0, 95, 0
2, 101731, Note_on_c, 0, 91, 0
2, 101753, Note_on_c, 0, 94, 0
2, 101786, Note_on_c, 0, 93, 98
2, 101794, Note_on_c, 0, 90, 73
2, 101846, Note_on_c, 0, 90, 0
2, 101854, Note_on_c, 0, 34, 82
2, 101870, Note_on_c, 0, 89, 80
2, 101875, Note_on_c, 0, 92, 98
2, 101914, Note_on_c, 0, 93, 0
2, 101926, Note_on_c, 0, 34, 0
2, 101974, Note_on_c, 0, 88, 98
2, 101976, Note_on_c, 0, 89, 0
2, 101983, Note_on_c, 0, 91, 102
2, 101993, Note_on_c, 0, 92, 0
2, 101993, Note_on_c, 0, 44, 61
2, 102012, Note_on_c, 0, 88, 0
2, 102055, Note_on_c, 0, 87, 95
2, 102062, Note_on_c, 0, 50, 72
2, 102062, Note_on_c, 0, 90, 91
2, 102070, Note_on_c, 0, 44, 0
2, 102079, Note_on_c, 0, 91, 0
2, 102101, Note_on_c, 0, 50, 0
2, 102142, Note_on_c, 0, 86, 100
2, 102144, Note_on_c, 0, 90, 0
2, 102149, Note_on_c, 0, 87, 0
2, 102149, Note_on_c, 0, 89, 91
2, 102192, Note_on_c, 0, 86, 0
2, 102192, Note_on_c, 0, 34, 95
2, 102226, Note_on_c, 0, 34, 0
2, 102226, Note_on_c, 0, 85, 96
2, 102228, Note_on_c, 0, 88, 99
2, 102259, Note_on_c, 0, 89, 0
2, 102281, Note_on_c, 0, 85, 0
2, 102305, Note_on_c, 0, 84, 95
2, 102326, Note_on_c, 0, 87, 97
2, 102341, Note_on_c, 0, 88, 0
2, 102346, Note_on_c, 0, 53, 81
2, 102384, Note_on_c, 0, 53, 0
2, 102408, Note_on_c, 0, 87, 0
2, 102413, Note_on_c, 0, 84, 0
2, 102413, Note_on_c, 0, 83, 84
2, 102432, Note_on_c, 0, 86, 95
2, 102449, Note_on_c, 0, 83, 0
2, 102497, Note_on_c, 0, 82, 101
2, 102506, Note_on_c, 0, 85, 92
2, 102516, Note_on_c, 0, 86, 0
2, 102593, Note_on_c, 0, 81, 97
2, 102605, Note_on_c, 0, 82, 0
2, 102605, Note_on_c, 0, 84, 97
2, 102607, Note_on_c, 0, 85, 0
2, 102629, Note_on_c, 0, 81, 0
2, 102677, Note_on_c, 0, 80, 89
2, 102689, Note_on_c, 0, 83, 82
2, 102689, Note_on_c, 0, 34, 86
2, 102718, Note_on_c, 0, 84, 0
2, 102744, Note_on_c, 0, 34, 0
2, 102756, Note_on_c, 0, 82, 108
2, 102758, Note_on_c, 0, 79, 94
2, 102778, Note_on_c, 0, 80, 0
2, 102780, Note_on_c, 0, 83, 0
2, 102804, Note_on_c, 0, 79, 0
2, 102811, Note_on_c, 0, 82, 0
2, 102821, Note_on_c, 0, 44, 57
2, 102871, Note_on_c, 0, 78, 82
2, 102876, Note_on_c, 0, 81, 94
2, 102907, Note_on_c, 0, 50, 73
2, 102912, Note_on_c, 0, 78, 0
2, 102934, Note_on_c, 0, 77, 77
2, 102948, Note_on_c, 0, 50, 0
2, 102960, Note_on_c, 0, 80, 98
2, 102991, Note_on_c, 0, 81, 0
2, 103010, Note_on_c, 0, 44, 0
2, 103042, Note_on_c, 0, 34, 96
2, 103046, Note_on_c, 0, 77, 0
2, 103046, Note_on_c, 0, 76, 98
2, 103051, Note_on_c, 0, 80, 0
2, 103068, Note_on_c, 0, 79, 84
2, 103080, Note_on_c, 0, 34, 0
2, 103087, Note_on_c, 0, 76, 0
2, 103123, Note_on_c, 0, 75, 84
2, 103133, Note_on_c, 0, 79, 0
2, 103133, Note_on_c, 0, 78, 90
2, 103207, Note_on_c, 0, 53, 93
2, 103217, Note_on_c, 0, 74, 96
2, 103229, Note_on_c, 0, 75, 0
2, 103238, Note_on_c, 0, 77, 89
2, 103258, Note_on_c, 0, 78, 0
2, 103265, Note_on_c, 0, 74, 0
2, 103265, Note_on_c, 0, 53, 0
2, 103298, Note_on_c, 0, 76, 98
2, 103303, Note_on_c, 0, 73, 84
2, 103351, Note_on_c, 0, 77, 0
2, 103387, Note_on_c, 0, 72, 98
2, 103399, Note_on_c, 0, 75, 95
2, 103418, Note_on_c, 0, 73, 0
2, 103421, Note_on_c, 0, 76, 0
2, 103486, Note_on_c, 0, 72, 0
2, 103495, Note_on_c, 0, 71, 87
2, 103495, Note_on_c, 0, 34, 91
2, 103507, Note_on_c, 0, 74, 97
2, 103517, Note_on_c, 0, 75, 0
2, 103534, Note_on_c, 0, 71, 0
2, 103572, Note_on_c, 0, 70, 101
2, 103574, Note_on_c, 0, 73, 92
2, 103586, Note_on_c, 0, 34, 0
2, 103601, Note_on_c, 0, 74, 0
2, 103642, Note_on_c, 0, 44, 48
2, 103678, Note_on_c, 0, 69, 95
2, 103685, Note_on_c, 0, 70, 0
2, 103685, Note_on_c, 0, 72, 98
2, 103702, Note_on_c, 0, 50, 81
2, 103706, Note_on_c, 0, 73, 0
2, 103738, Note_on_c, 0, 50, 0
2, 103740, Note_on_c, 0, 69, 0
2, 103762, Note_on_c, 0, 68, 91
2, 103762, Note_on_c, 0, 71, 84
2, 103817, Note_on_c, 0, 72, 0
2, 103824, Note_on_c, 0, 44, 0
2, 103853, Note_on_c, 0, 70, 103
2, 103862, Note_on_c, 0, 34, 90
2, 103867, Note_on_c, 0, 67, 88
2, 103879, Note_on_c, 0, 68, 0
2, 103886, Note_on_c, 0, 71, 0
2, 103906, Note_on_c, 0, 34, 0
2, 103915, Note_on_c, 0, 67, 0
2, 103920, Note_on_c, 0, 70, 0
2, 103956, Note_on_c, 0, 69, 94
2, 103970, Note_on_c, 0, 66, 88
2, 103985, Note_on_c, 0, 71, 34
2, 104035, Note_on_c, 0, 71, 0
2, 104064, Note_on_c, 0, 53, 94
2, 104069, Note_on_c, 0, 68, 101
2, 104074, Note_on_c, 0, 65, 101
2, 104093, Note_on_c, 0, 66, 0
2, 104098, Note_on_c, 0, 69, 0
2, 104148, Note_on_c, 0, 68, 0
2, 104150, Note_on_c, 0, 65, 0
2, 104165, Note_on_c, 0, 53, 0
2, 104201, Note_on_c, 0, 64, 110
2, 104201, Note_on_c, 0, 68, 103
2, 104287, Note_on_c, 0, 64, 0
2, 104290, Note_on_c, 0, 68, 0
2, 104335, Note_on_c, 0, 68, 107
2, 104335, Note_on_c, 0, 62, 98
2, 104410, Note_on_c, 0, 62, 0
2, 104414, Note_on_c, 0, 68, 0
2, 104486, Note_on_c, 0, 33, 111
2, 104546, Note_on_c, 0, 57, 117
2, 104590, Control_c, 0, 64, 0
2, 104755, Note_on_c, 0, 41, 76
2, 104772, Note_on_c, 0, 33, 0
2, 104820, Control_c, 0, 64, 127
2, 104858, Note_on_c, 0, 41, 0
2, 104894, Note_on_c, 0, 50, 68
2, 104938, Note_on_c, 0, 50, 0
2, 105046, Note_on_c, 0, 33, 93
2, 105094, Note_on_c, 0, 33, 0
2, 105254, Note_on_c, 0, 53, 89
2, 105259, Note_on_c, 0, 57, 0
2, 105348, Note_on_c, 0, 53, 0
2, 105432, Note_on_c, 0, 69, 117
2, 105540, Note_on_c, 0, 69, 0
2, 105600, Note_on_c, 0, 33, 77
2, 105624, Note_on_c, 0, 69, 110
2, 105727, Note_on_c, 0, 33, 0
2, 105746, Note_on_c, 0, 41, 70
2, 105823, Note_on_c, 0, 41, 0
2, 105876, Note_on_c, 0, 50, 58
2, 105926, Note_on_c, 0, 50, 0
2, 106020, Note_on_c, 0, 33, 49
2, 106066, Note_on_c, 0, 33, 0
2, 106181, Note_on_c, 0, 53, 86
2, 106274, Note_on_c, 0, 53, 0
2, 106426, Note_on_c, 0, 33, 106
2, 106546, Note_on_c, 0, 33, 0
2, 106558, Note_on_c, 0, 41, 83
2, 106642, Note_on_c, 0, 41, 0
2, 106675, Note_on_c, 0, 50, 88
2, 106682, Note_on_c, 0, 67, 114
2, 106718, Note_on_c, 0, 50, 0
2, 106831, Note_on_c, 0, 33, 95
2, 106870, Note_on_c, 0, 33, 0
2, 106913, Note_on_c, 0, 69, 0
2, 107006, Note_on_c, 0, 53, 97
2, 107095, Note_on_c, 0, 53, 0
2, 107100, Note_on_c, 0, 65, 113
2, 107177, Note_on_c, 0, 67, 0
2, 107273, Note_on_c, 0, 64, 115
2, 107304, Note_on_c, 0, 33, 80
2, 107333, Note_on_c, 0, 65, 0
2, 107434, Note_on_c, 0, 33, 0
2, 107443, Note_on_c, 0, 65, 108
2, 107470, Note_on_c, 0, 41, 66
2, 107484, Note_on_c, 0, 64, 0
2, 107573, Note_on_c, 0, 41, 0
2, 107575, Note_on_c, 0, 64, 98
2, 107609, Note_on_c, 0, 50, 89
2, 107657, Note_on_c, 0, 50, 0
2, 107657, Note_on_c, 0, 65, 0
2, 107700, Note_on_c, 0, 62, 108
2, 107729, Note_on_c, 0, 64, 0
2, 107767, Note_on_c, 0, 33, 97
2, 107801, Note_on_c, 0, 33, 0
2, 107810, Note_on_c, 0, 64, 101
2, 107880, Note_on_c, 0, 62, 0
2, 107926, Note_on_c, 0, 65, 106
2, 107938, Note_on_c, 0, 53, 89
2, 107986, Note_on_c, 0, 53, 0
2, 107988, Note_on_c, 0, 64, 0
2, 108043, Note_on_c, 0, 62, 105
2, 108089, Note_on_c, 0, 65, 0
2, 108146, Note_on_c, 0, 33, 95
2, 108149, Note_on_c, 0, 69, 117
2, 108154, Note_on_c, 0, 57, 98
2, 108156, Control_c, 0, 64, 0
2, 108204, Note_on_c, 0, 62, 0
2, 108295, Note_on_c, 0, 33, 0
2, 108305, Note_on_c, 0, 41, 76
2, 108341, Control_c, 0, 64, 127
2, 108377, Note_on_c, 0, 57, 0
2, 108420, Note_on_c, 0, 50, 89
2, 108430, Note_on_c, 0, 41, 0
2, 108437, Note_on_c, 0, 69, 0
2, 108463, Note_on_c, 0, 50, 0
2, 108562, Note_on_c, 0, 33, 103
2, 108605, Note_on_c, 0, 33, 0
2, 108713, Note_on_c, 0, 81, 121
2, 108715, Note_on_c, 0, 69, 117
2, 108746, Note_on_c, 0, 69, 0
2, 108751, Note_on_c, 0, 53, 94
2, 108799, Note_on_c, 0, 53, 0
2, 108804, Note_on_c, 0, 81, 0
2, 109051, Note_on_c, 0, 93, 119
2, 109061, Note_on_c, 0, 81, 117
2, 109082, Note_on_c, 0, 33, 87
2, 109121, Note_on_c, 0, 93, 0
2, 109133, Note_on_c, 0, 81, 0
2, 109145, Note_on_c, 0, 33, 0
2, 109195, Note_on_c, 0, 41, 52
2, 109301, Note_on_c, 0, 50, 74
2, 109344, Note_on_c, 0, 50, 0
2, 109409, Note_on_c, 0, 41, 0
2, 109445, Note_on_c, 0, 33, 94
2, 109478, Note_on_c, 0, 33, 0
2, 109615, Note_on_c, 0, 53, 97
2, 109704, Note_on_c, 0, 53, 0
2, 109946, Note_on_c, 0, 33, 110
2, 110122, Note_on_c, 0, 33, 0
2, 110124, Note_on_c, 0, 41, 63
2, 110263, Note_on_c, 0, 50, 76
2, 110266, Note_on_c, 0, 41, 0
2, 110268, Note_on_c, 0, 91, 117
2, 110270, Note_on_c, 0, 79, 114
2, 110338, Note_on_c, 0, 50, 0
2, 110455, Note_on_c, 0, 33, 44
2, 110479, Note_on_c, 0, 79, 0
2, 110484, Note_on_c, 0, 91, 0
2, 110513, Note_on_c, 0, 33, 0
2, 110597, Note_on_c, 0, 53, 95
2, 110690, Note_on_c, 0, 89, 119
2, 110693, Note_on_c, 0, 77, 114
2, 110700, Note_on_c, 0, 53, 0
2, 110842, Note_on_c, 0, 77, 0
2, 110849, Note_on_c, 0, 89, 0
2, 110906, Note_on_c, 0, 33, 100
2, 110983, Note_on_c, 0, 88, 118
2, 110988, Note_on_c, 0, 76, 118
2, 111062, Note_on_c, 0, 76, 0
2, 111103, Note_on_c, 0, 88, 0
2, 111149, Note_on_c, 0, 33, 0
2, 111175, Note_on_c, 0, 89, 116
2, 111180, Note_on_c, 0, 77, 110
2, 111180, Note_on_c, 0, 41, 69
2, 111264, Note_on_c, 0, 77, 0
2, 111276, Note_on_c, 0, 89, 0
2, 111331, Note_on_c, 0, 41, 0
2, 111331, Note_on_c, 0, 88, 116
2, 111336, Note_on_c, 0, 50, 92
2, 111338, Note_on_c, 0, 76, 112
2, 111384, Note_on_c, 0, 88, 0
2, 111391, Note_on_c, 0, 76, 0
2, 111391, Note_on_c, 0, 50, 0
2, 111410, Note_on_c, 0, 41, 30
2, 111466, Note_on_c, 0, 86, 111
2, 111470, Note_on_c, 0, 74, 110
2, 111514, Note_on_c, 0, 74, 0
2, 111518, Note_on_c, 0, 86, 0
2, 111547, Note_on_c, 0, 33, 93
2, 111619, Note_on_c, 0, 88, 87
2, 111629, Note_on_c, 0, 76, 67
2, 111655, Note_on_c, 0, 88, 0
2, 111667, Note_on_c, 0, 41, 0
2, 111672, Note_on_c, 0, 76, 0
2, 111674, Note_on_c, 0, 33, 0
2, 111737, Note_on_c, 0, 89, 119
2, 111742, Note_on_c, 0, 77, 112
2, 111842, Note_on_c, 0, 53, 84
2, 111886, Note_on_c, 0, 77, 0
2, 111900, Note_on_c, 0, 89, 0
2, 111917, Note_on_c, 0, 53, 0
2, 112042, Note_on_c, 0, 86, 101
2, 112049, Note_on_c, 0, 74, 94
2, 112070, Note_on_c, 0, 86, 0
2, 112080, Note_on_c, 0, 74, 0
2, 112171, Note_on_c, 0, 33, 109
2, 112260, Note_on_c, 0, 94, 119
2, 112262, Note_on_c, 0, 82, 115
2, 112272, Control_c, 0, 64, 0
2, 112378, Note_on_c, 0, 33, 0
2, 112416, Note_on_c, 0, 94, 0
2, 112430, Note_on_c, 0, 43, 72
2, 112440, Control_c, 0, 64, 127
2, 112447, Note_on_c, 0, 82, 0
2, 112570, Note_on_c, 0, 50, 73
2, 112601, Note_on_c, 0, 88, 110
2, 112606, Note_on_c, 0, 76, 103
2, 112620, Note_on_c, 0, 50, 0
2, 112677, Note_on_c, 0, 43, 0
2, 112730, Note_on_c, 0, 33, 79
2, 112735, Note_on_c, 0, 76, 0
2, 112774, Note_on_c, 0, 33, 0
2, 112783, Note_on_c, 0, 88, 0
2, 112862, Note_on_c, 0, 89, 115
2, 112872, Note_on_c, 0, 77, 106
2, 112903, Note_on_c, 0, 52, 98
2, 112908, Note_on_c, 0, 77, 0
2, 112937, Note_on_c, 0, 52, 0
2, 112939, Note_on_c, 0, 89, 0
2, 113138, Note_on_c, 0, 93, 110
2, 113138, Note_on_c, 0, 33, 90
2, 113143, Note_on_c, 0, 81, 107
2, 113237, Note_on_c, 0, 33, 0
2, 113280, Note_on_c, 0, 81, 0
2, 113292, Note_on_c, 0, 43, 76
2, 113294, Note_on_c, 0, 93, 0
2, 113407, Note_on_c, 0, 50, 81
2, 113417, Note_on_c, 0, 79, 101
2, 113419, Note_on_c, 0, 91, 113
2, 113450, Note_on_c, 0, 50, 0
2, 113484, Note_on_c, 0, 79, 0
2, 113489, Note_on_c, 0, 43, 0
2, 113503, Note_on_c, 0, 91, 0
2, 113568, Note_on_c, 0, 33, 81
2, 113618, Note_on_c, 0, 33, 0
2, 113676, Note_on_c, 0, 70, 111
2, 113686, Note_on_c, 0, 82, 108
2, 113714, Note_on_c, 0, 70, 0
2, 113717, Note_on_c, 0, 82, 0
2, 113748, Note_on_c, 0, 52, 93
2, 113789, Note_on_c, 0, 52, 0
2, 113801, Note_on_c, 0, 82, 35
2, 113885, Note_on_c, 0, 82, 0
2, 113921, Note_on_c, 0, 86, 113
2, 113928, Note_on_c, 0, 74, 103
2, 113942, Note_on_c, 0, 33, 98
2, 114007, Note_on_c, 0, 86, 0
2, 114010, Note_on_c, 0, 74, 0
2, 114024, Note_on_c, 0, 33, 0
2, 114082, Note_on_c, 0, 43, 69
2, 114156, Note_on_c, 0, 79, 111
2, 114156, Note_on_c, 0, 50, 85
2, 114161, Note_on_c, 0, 67, 105
2, 114194, Note_on_c, 0, 50, 0
2, 114204, Note_on_c, 0, 67, 0
2, 114238, Note_on_c, 0, 79, 0
2, 114266, Note_on_c, 0, 43, 0
2, 114305, Note_on_c, 0, 33, 66
2, 114338, Note_on_c, 0, 35, 24
2, 114348, Note_on_c, 0, 33, 0
2, 114379, Note_on_c, 0, 81, 114
2, 114386, Note_on_c, 0, 69, 106
2, 114396, Note_on_c, 0, 35, 0
2, 114434, Note_on_c, 0, 69, 0
2, 114458, Note_on_c, 0, 52, 85
2, 114485, Note_on_c, 0, 81, 0
2, 114494, Note_on_c, 0, 52, 0
2, 114514, Note_on_c, 0, 43, 2
2, 114564, Note_on_c, 0, 43, 0
2, 114614, Note_on_c, 0, 84, 117
2, 114626, Note_on_c, 0, 72, 98
2, 114634, Note_on_c, 0, 33, 94
2, 114646, Note_on_c, 0, 84, 0
2, 114660, Note_on_c, 0, 72, 0
2, 114670, Note_on_c, 0, 33, 0
2, 114778, Note_on_c, 0, 43, 68
2, 114914, Note_on_c, 0, 70, 109
2, 114914, Note_on_c, 0, 82, 112
2, 114917, Note_on_c, 0, 50, 85
2, 114953, Note_on_c, 0, 82, 0
2, 114958, Note_on_c, 0, 50, 0
2, 114986, Note_on_c, 0, 43, 0
2, 115015, Note_on_c, 0, 70, 0
2, 115075, Note_on_c, 0, 33, 83
2, 115121, Note_on_c, 0, 33, 0
2, 115193, Note_on_c, 0, 43, 47
2, 115246, Note_on_c, 0, 52, 98
2, 115286, Note_on_c, 0, 52, 0
2, 115313, Note_on_c, 0, 76, 108
2, 115315, Note_on_c, 0, 64, 97
2, 115344, Note_on_c, 0, 64, 0
2, 115344, Note_on_c, 0, 76, 0
2, 115378, Note_on_c, 0, 43, 0
2, 115435, Note_on_c, 0, 79, 112
2, 115442, Note_on_c, 0, 33, 91
2, 115445, Note_on_c, 0, 67, 94
2, 115459, Note_on_c, 0, 79, 0
2, 115483, Note_on_c, 0, 67, 0
2, 115514, Note_on_c, 0, 33, 0
2, 115565, Note_on_c, 0, 43, 59
2, 115637, Note_on_c, 0, 50, 88
2, 115666, Note_on_c, 0, 58, 109
2, 115668, Note_on_c, 0, 70, 99
2, 115670, Note_on_c, 0, 50, 0
2, 115699, Note_on_c, 0, 58, 0
2, 115716, Note_on_c, 0, 70, 0
2, 115750, Note_on_c, 0, 43, 0
2, 115783, Note_on_c, 0, 33, 55
2, 115834, Note_on_c, 0, 33, 0
2, 115855, Note_on_c, 0, 43, 43
2, 115891, Note_on_c, 0, 72, 117
2, 115896, Note_on_c, 0, 60, 103
2, 115915, Note_on_c, 0, 52, 87
2, 115930, Note_on_c, 0, 60, 0
2, 115951, Note_on_c, 0, 52, 0
2, 115990, Note_on_c, 0, 72, 0
2, 116040, Note_on_c, 0, 43, 0
2, 116090, Note_on_c, 0, 33, 87
2, 116119, Note_on_c, 0, 76, 117
2, 116126, Note_on_c, 0, 64, 105
2, 116165, Note_on_c, 0, 64, 0
2, 116191, Note_on_c, 0, 33, 0
2, 116218, Note_on_c, 0, 76, 0
2, 116239, Note_on_c, 0, 43, 67
2, 116311, Note_on_c, 0, 50, 89
2, 116342, Note_on_c, 0, 74, 108
2, 116347, Note_on_c, 0, 62, 97
2, 116350, Note_on_c, 0, 50, 0
2, 116369, Note_on_c, 0, 74, 0
2, 116390, Note_on_c, 0, 62, 0
2, 116426, Note_on_c, 0, 43, 0
2, 116465, Note_on_c, 0, 33, 64
2, 116498, Note_on_c, 0, 35, 26
2, 116513, Note_on_c, 0, 33, 0
2, 116561, Note_on_c, 0, 35, 0
2, 116566, Note_on_c, 0, 67, 110
2, 116580, Note_on_c, 0, 55, 97
2, 116614, Note_on_c, 0, 55, 0
2, 116626, Note_on_c, 0, 52, 89
2, 116647, Note_on_c, 0, 67, 0
2, 116662, Note_on_c, 0, 52, 0
2, 116810, Note_on_c, 0, 70, 113
2, 116810, Note_on_c, 0, 58, 113
2, 116822, Note_on_c, 0, 33, 98
2, 116837, Control_c, 0, 64, 0
2, 116926, Note_on_c, 0, 33, 0
2, 116954, Note_on_c, 0, 43, 70
2, 117005, Control_c, 0, 64, 127
2, 117036, Note_on_c, 0, 50, 86
2, 117067, Note_on_c, 0, 43, 0
2, 117070, Note_on_c, 0, 50, 0
2, 117166, Note_on_c, 0, 70, 0
2, 117166, Note_on_c, 0, 33, 99
2, 117206, Note_on_c, 0, 33, 0
2, 117223, Note_on_c, 0, 58, 0
2, 117314, Note_on_c, 0, 52, 103
2, 117391, Note_on_c, 0, 52, 0
2, 117590, Note_on_c, 0, 61, 106
2, 117593, Note_on_c, 0, 49, 104
2, 117610, Note_on_c, 0, 33, 95
2, 117619, Control_c, 0, 64, 0
2, 117734, Note_on_c, 0, 33, 0
2, 117734, Note_on_c, 0, 43, 96
2, 117790, Control_c, 0, 64, 127
2, 117826, Note_on_c, 0, 43, 0
2, 117847, Note_on_c, 0, 45, 98
2, 117878, Note_on_c, 0, 45, 0
2, 117917, Note_on_c, 0, 49, 0
2, 117999, Note_on_c, 0, 33, 86
2, 118068, Note_on_c, 0, 33, 0
2, 118166, Note_on_c, 0, 52, 105
2, 118238, Note_on_c, 0, 52, 0
2, 118493, Note_on_c, 0, 61, 0
2, 118570, Note_on_c, 0, 62, 109
2, 118579, Note_on_c, 0, 50, 106
2, 118589, Note_on_c, 0, 38, 88
2, 118620, Control_c, 0, 64, 0
2, 118738, Note_on_c, 0, 45, 105
2, 118867, Note_on_c, 0, 53, 98
2, 118896, Control_c, 0, 64, 127
2, 118903, Note_on_c, 0, 38, 0
2, 118937, Note_on_c, 0, 45, 0
2, 118946, Note_on_c, 0, 50, 0
2, 118982, Note_on_c, 0, 38, 85
2, 119088, Note_on_c, 0, 53, 0
2, 119119, Note_on_c, 0, 57, 95
2, 119153, Note_on_c, 0, 38, 0
2, 119326, Note_on_c, 0, 57, 0
2, 119376, Note_on_c, 0, 62, 0
2, 119383, Note_on_c, 0, 38, 98
2, 119506, Note_on_c, 0, 45, 94
2, 119508, Note_on_c, 0, 38, 0
2, 119582, Note_on_c, 0, 53, 79
2, 119630, Note_on_c, 0, 53, 0
2, 119705, Note_on_c, 0, 45, 0
2, 119722, Note_on_c, 0, 38, 86
2, 119753, Note_on_c, 0, 38, 0
2, 119861, Note_on_c, 0, 57, 103
2, 119942, Note_on_c, 0, 57, 0
2, 120336, Note_on_c, 0, 38, 111
2, 120336, Note_on_c, 0, 89, 117
2, 120338, Note_on_c, 0, 101, 119
2, 120502, Note_on_c, 0, 44, 76
2, 120526, Control_c, 0, 64, 0
2, 120562, Note_on_c, 0, 38, 0
2, 120617, Note_on_c, 0, 53, 96
2, 120646, Note_on_c, 0, 44, 0
2, 120660, Note_on_c, 0, 53, 0
2, 120662, Control_c, 0, 64, 127
2, 120744, Note_on_c, 0, 38, 96
2, 120782, Note_on_c, 0, 38, 0
2, 120900, Note_on_c, 0, 89, 0
2, 120914, Note_on_c, 0, 56, 97
2, 120984, Note_on_c, 0, 100, 95
2, 121003, Note_on_c, 0, 56, 0
2, 121044, Note_on_c, 0, 101, 0
2, 121051, Note_on_c, 0, 98, 99
2, 121109, Note_on_c, 0, 100, 0
2, 121135, Note_on_c, 0, 95, 88
2, 121195, Note_on_c, 0, 98, 0
2, 121210, Note_on_c, 0, 91, 106
2, 121229, Note_on_c, 0, 95, 0
2, 121238, Note_on_c, 0, 91, 0
2, 121278, Note_on_c, 0, 89, 84
2, 121294, Note_on_c, 0, 38, 75
2, 121325, Note_on_c, 0, 88, 99
2, 121391, Note_on_c, 0, 89, 0
2, 121406, Note_on_c, 0, 86, 94
2, 121433, Note_on_c, 0, 44, 63
2, 121454, Note_on_c, 0, 38, 0
2, 121476, Note_on_c, 0, 83, 89
2, 121488, Note_on_c, 0, 88, 0
2, 121522, Note_on_c, 0, 86, 0
2, 121534, Note_on_c, 0, 44, 0
2, 121536, Note_on_c, 0, 79, 102
2, 121541, Note_on_c, 0, 53, 86
2, 121558, Note_on_c, 0, 83, 0
2, 121565, Note_on_c, 0, 79, 0
2, 121579, Note_on_c, 0, 53, 0
2, 121580, Note_on_c, 0, 77, 106
2, 121654, Note_on_c, 0, 76, 96
2, 121666, Note_on_c, 0, 38, 105
2, 121702, Note_on_c, 0, 77, 0
2, 121704, Note_on_c, 0, 74, 100
2, 121711, Note_on_c, 0, 38, 0
2, 121750, Note_on_c, 0, 71, 95
2, 121776, Note_on_c, 0, 76, 0
2, 121790, Note_on_c, 0, 74, 0
2, 121838, Note_on_c, 0, 71, 0
2, 121842, Note_on_c, 0, 67, 106
2, 121874, Note_on_c, 0, 56, 92
2, 121878, Note_on_c, 0, 67, 0
2, 121895, Note_on_c, 0, 65, 95
2, 121922, Note_on_c, 0, 64, 97
2, 121946, Note_on_c, 0, 65, 0
2, 121968, Note_on_c, 0, 56, 0
2, 121999, Note_on_c, 0, 62, 102
2, 122035, Note_on_c, 0, 64, 0
2, 122037, Note_on_c, 0, 62, 0
2, 122059, Note_on_c, 0, 59, 103
2, 122093, Note_on_c, 0, 59, 0
2, 122123, Note_on_c, 0, 55, 100
2, 122191, Note_on_c, 0, 53, 89
2, 122238, Note_on_c, 0, 55, 0
2, 122258, Note_on_c, 0, 52, 95
2, 122275, Note_on_c, 0, 53, 0
2, 122296, Note_on_c, 0, 50, 90
2, 122304, Note_on_c, 0, 38, 108
2, 122354, Control_c, 0, 64, 0
2, 122381, Note_on_c, 0, 52, 0
2, 122537, Note_on_c, 0, 45, 73
2, 122544, Note_on_c, 0, 38, 0
2, 122578, Note_on_c, 0, 45, 0
2, 122599, Control_c, 0, 64, 127
2, 122647, Note_on_c, 0, 53, 75
2, 122688, Note_on_c, 0, 53, 0
2, 122765, Note_on_c, 0, 38, 87
2, 122771, Note_on_c, 0, 50, 0
2, 122798, Note_on_c, 0, 38, 0
2, 122916, Note_on_c, 0, 57, 88
2, 122983, Note_on_c, 0, 57, 0
2, 123156, Note_on_c, 0, 38, 88
2, 123286, Note_on_c, 0, 38, 0
2, 123286, Note_on_c, 0, 45, 81
2, 123350, Note_on_c, 0, 45, 0
2, 123367, Note_on_c, 0, 53, 72
2, 123413, Note_on_c, 0, 53, 0
2, 123504, Note_on_c, 0, 38, 75
2, 123538, Note_on_c, 0, 38, 0
2, 123622, Note_on_c, 0, 57, 95
2, 123662, Note_on_c, 0, 57, 0
2, 123852, Note_on_c, 0, 71, 106
2, 123852, Note_on_c, 0, 65, 108
2, 123859, Control_c, 0, 64, 0
2, 123859, Note_on_c, 0, 59, 97
2, 123871, Note_on_c, 0, 38, 96
2, 123989, Note_on_c, 0, 44, 83
2, 124010, Note_on_c, 0, 38, 0
2, 124058, Control_c, 0, 64, 127
2, 124085, Note_on_c, 0, 44, 0
2, 124090, Note_on_c, 0, 53, 81
2, 124094, Note_on_c, 0, 59, 0
2, 124128, Note_on_c, 0, 53, 0
2, 124205, Note_on_c, 0, 38, 97
2, 124236, Note_on_c, 0, 38, 0
2, 124267, Note_on_c, 0, 71, 0
2, 124361, Note_on_c, 0, 56, 69
2, 124464, Note_on_c, 0, 56, 0
2, 124637, Note_on_c, 0, 70, 113
2, 124644, Note_on_c, 0, 58, 109
2, 124654, Note_on_c, 0, 38, 69
2, 124766, Control_c, 0, 64, 0
2, 124771, Note_on_c, 0, 44, 58
2, 124778, Note_on_c, 0, 38, 0
2, 124838, Note_on_c, 0, 44, 0
2, 124872, Note_on_c, 0, 53, 82
2, 124889, Control_c, 0, 64, 127
2, 124925, Note_on_c, 0, 53, 0
2, 124937, Note_on_c, 0, 58, 0
2, 125021, Note_on_c, 0, 38, 86
2, 125057, Note_on_c, 0, 38, 0
2, 125114, Note_on_c, 0, 65, 0
2, 125196, Note_on_c, 0, 56, 88
2, 125316, Note_on_c, 0, 56, 0
2, 125434, Note_on_c, 0, 70, 0
2, 125582, Note_on_c, 0, 69, 100
2, 125585, Note_on_c, 0, 57, 89
2, 125592, Note_on_c, 0, 65, 86
2, 125609, Note_on_c, 0, 38, 61
2, 125628, Control_c, 0, 64, 0
2, 125760, Note_on_c, 0, 45, 80
2, 125784, Note_on_c, 0, 38, 0
2, 125810, Note_on_c, 0, 45, 0
2, 125842, Control_c, 0, 64, 127
2, 125870, Note_on_c, 0, 53, 73
2, 125873, Note_on_c, 0, 57, 0
2, 125911, Note_on_c, 0, 53, 0
2, 126002, Note_on_c, 0, 38, 67
2, 126043, Note_on_c, 0, 38, 0
2, 126118, Note_on_c, 0, 57, 83
2, 126218, Note_on_c, 0, 57, 0
2, 126442, Note_on_c, 0, 38, 75
2, 126497, Note_on_c, 0, 65, 0
2, 126581, Note_on_c, 0, 38, 0
2, 126583, Note_on_c, 0, 45, 79
2, 126667, Note_on_c, 0, 45, 0
2, 126686, Note_on_c, 0, 53, 80
2, 126725, Note_on_c, 0, 53, 0
2, 126739, Note_on_c, 0, 69, 0
2, 126811, Note_on_c, 0, 38, 88
2, 126859, Note_on_c, 0, 38, 0
2, 126960, Note_on_c, 0, 57, 92
2, 126998, Note_on_c, 0, 57, 0
2, 127358, Note_on_c, 0, 101, 121
2, 127363, Note_on_c, 0, 89, 121
2, 127366, Note_on_c, 0, 38, 105
2, 127457, Control_c, 0, 64, 0
2, 127522, Note_on_c, 0, 44, 73
2, 127558, Note_on_c, 0, 38, 0
2, 127622, Note_on_c, 0, 44, 0
2, 127625, Control_c, 0, 64, 127
2, 127625, Note_on_c, 0, 53, 87
2, 127663, Note_on_c, 0, 53, 0
2, 127742, Note_on_c, 0, 38, 106
2, 127747, Note_on_c, 0, 89, 0
2, 127812, Note_on_c, 0, 38, 0
2, 127910, Note_on_c, 0, 56, 103
2, 128011, Note_on_c, 0, 100, 98
2, 128028, Note_on_c, 0, 56, 0
2, 128045, Note_on_c, 0, 101, 0
2, 128074, Note_on_c, 0, 98, 97
2, 128131, Note_on_c, 0, 100, 0
2, 128160, Note_on_c, 0, 95, 91
2, 128215, Note_on_c, 0, 98, 0
2, 128246, Note_on_c, 0, 91, 106
2, 128263, Note_on_c, 0, 95, 0
2, 128280, Note_on_c, 0, 91, 0
2, 128350, Note_on_c, 0, 89, 103
2, 128376, Note_on_c, 0, 38, 78
2, 128419, Note_on_c, 0, 88, 81
2, 128470, Note_on_c, 0, 86, 100
2, 128486, Note_on_c, 0, 89, 0
2, 128494, Note_on_c, 0, 44, 77
2, 128506, Note_on_c, 0, 38, 0
2, 128544, Note_on_c, 0, 83, 93
2, 128556, Note_on_c, 0, 88, 0
2, 128580, Note_on_c, 0, 44, 0
2, 128594, Note_on_c, 0, 86, 0
2, 128604, Note_on_c, 0, 53, 92
2, 128609, Note_on_c, 0, 79, 103
2, 128621, Note_on_c, 0, 83, 0
2, 128638, Note_on_c, 0, 79, 0
2, 128654, Note_on_c, 0, 53, 0
2, 128693, Note_on_c, 0, 77, 111
2, 128731, Note_on_c, 0, 38, 103
2, 128760, Note_on_c, 0, 74, 75
2, 128760, Note_on_c, 0, 76, 75
2, 128786, Note_on_c, 0, 38, 0
2, 128820, Note_on_c, 0, 77, 0
2, 128839, Note_on_c, 0, 71, 91
2, 128858, Note_on_c, 0, 76, 0
2, 128882, Note_on_c, 0, 74, 0
2, 128899, Note_on_c, 0, 67, 103
2, 128916, Note_on_c, 0, 71, 0
2, 128928, Note_on_c, 0, 67, 0
2, 128928, Note_on_c, 0, 56, 88
2, 128993, Note_on_c, 0, 65, 95
2, 129000, Note_on_c, 0, 67, 66
2, 129017, Note_on_c, 0, 64, 97
2, 129026, Note_on_c, 0, 56, 0
2, 129043, Note_on_c, 0, 67, 0
2, 129055, Note_on_c, 0, 62, 89
2, 129101, Note_on_c, 0, 65, 0
2, 129106, Note_on_c, 0, 64, 0
2, 129115, Note_on_c, 0, 59, 78
2, 129122, Note_on_c, 0, 60, 69
2, 129139, Note_on_c, 0, 62, 0
2, 129154, Note_on_c, 0, 59, 0
2, 129168, Note_on_c, 0, 60, 0
2, 129178, Note_on_c, 0, 55, 79
2, 129182, Note_on_c, 0, 57, 56
2, 129216, Note_on_c, 0, 55, 0
2, 129230, Note_on_c, 0, 57, 0
2, 129230, Note_on_c, 0, 53, 103
2, 129276, Note_on_c, 0, 52, 91
2, 129322, Note_on_c, 0, 53, 0
2, 129355, Note_on_c, 0, 50, 114
2, 129377, Control_c, 0, 64, 0
2, 129379, Note_on_c, 0, 38, 109
2, 129427, Note_on_c, 0, 52, 0
2, 129552, Note_on_c, 0, 38, 0
2, 129554, Note_on_c, 0, 45, 84
2, 129602, Note_on_c, 0, 45, 0
2, 129638, Control_c, 0, 64, 127
2, 129653, Note_on_c, 0, 53, 89
2, 129698, Note_on_c, 0, 53, 0
2, 129794, Note_on_c, 0, 38, 85
2, 129826, Note_on_c, 0, 38, 0
2, 129946, Note_on_c, 0, 57, 91
2, 130039, Note_on_c, 0, 57, 0
2, 130198, Note_on_c, 0, 38, 80
2, 130260, Note_on_c, 0, 50, 0
2, 130320, Note_on_c, 0, 45, 83
2, 130325, Note_on_c, 0, 38, 0
2, 130399, Note_on_c, 0, 53, 83
2, 130447, Note_on_c, 0, 53, 0
2, 130536, Note_on_c, 0, 38, 83
2, 130543, Note_on_c, 0, 45, 0
2, 130574, Note_on_c, 0, 38, 0
2, 130675, Note_on_c, 0, 57, 100
2, 130778, Note_on_c, 0, 57, 0
2, 131042, Note_on_c, 0, 65, 101
2, 131042, Note_on_c, 0, 71, 99
2, 131047, Note_on_c, 0, 59, 100
2, 131069, Note_on_c, 0, 38, 88
2, 131206, Control_c, 0, 64, 0
2, 131306, Note_on_c, 0, 44, 68
2, 131321, Note_on_c, 0, 71, 0
2, 131326, Note_on_c, 0, 59, 0
2, 131328, Note_on_c, 0, 65, 0
2, 131352, Note_on_c, 0, 38, 0
2, 131359, Control_c, 0, 64, 127
2, 131383, Note_on_c, 0, 71, 97
2, 131388, Note_on_c, 0, 65, 108
2, 131390, Note_on_c, 0, 59, 92
2, 131441, Note_on_c, 0, 44, 0
2, 131467, Note_on_c, 0, 53, 41
2, 131498, Note_on_c, 0, 59, 0
2, 131515, Note_on_c, 0, 71, 0
2, 131515, Note_on_c, 0, 65, 0
2, 131570, Note_on_c, 0, 53, 0
2, 131592, Note_on_c, 0, 71, 86
2, 131594, Note_on_c, 0, 65, 91
2, 131602, Note_on_c, 0, 59, 74
2, 131652, Note_on_c, 0, 38, 88
2, 131693, Note_on_c, 0, 59, 0
2, 131693, Note_on_c, 0, 71, 0
2, 131707, Note_on_c, 0, 65, 0
2, 131722, Note_on_c, 0, 38, 0
2, 131779, Note_on_c, 0, 65, 97
2, 131782, Note_on_c, 0, 71, 84
2, 131784, Note_on_c, 0, 59, 83
2, 131858, Note_on_c, 0, 59, 0
2, 131870, Note_on_c, 0, 65, 0
2, 131873, Note_on_c, 0, 71, 0
2, 131885, Note_on_c, 0, 56, 82
2, 131938, Note_on_c, 0, 65, 100
2, 131940, Note_on_c, 0, 71, 92
2, 131940, Note_on_c, 0, 59, 78
2, 131988, Note_on_c, 0, 56, 0
2, 132022, Note_on_c, 0, 71, 0
2, 132024, Note_on_c, 0, 65, 0
2, 132024, Note_on_c, 0, 59, 0
2, 132094, Note_on_c, 0, 71, 99
2, 132098, Note_on_c, 0, 59, 90
2, 132101, Note_on_c, 0, 65, 94
2, 132108, Note_on_c, 0, 38, 93
2, 132170, Note_on_c, 0, 71, 0
2, 132199, Note_on_c, 0, 59, 0
2, 132230, Note_on_c, 0, 65, 0
2, 132252, Note_on_c, 0, 44, 78
2, 132257, Note_on_c, 0, 38, 0
2, 132290, Note_on_c, 0, 70, 104
2, 132293, Note_on_c, 0, 65, 106
2, 132295, Note_on_c, 0, 58, 111
2, 132350, Note_on_c, 0, 44, 0
2, 132362, Note_on_c, 0, 70, 0
2, 132370, Note_on_c, 0, 53, 86
2, 132384, Note_on_c, 0, 58, 0
2, 132394, Note_on_c, 0, 65, 0
2, 132449, Note_on_c, 0, 53, 0
2, 132449, Note_on_c, 0, 58, 101
2, 132451, Note_on_c, 0, 70, 98
2, 132458, Note_on_c, 0, 65, 107
2, 132506, Note_on_c, 0, 38, 105
2, 132538, Note_on_c, 0, 58, 0
2, 132542, Note_on_c, 0, 70, 0
2, 132547, Note_on_c, 0, 65, 0
2, 132564, Note_on_c, 0, 38, 0
2, 132612, Note_on_c, 0, 58, 96
2, 132617, Note_on_c, 0, 70, 94
2, 132622, Note_on_c, 0, 65, 100
2, 132686, Note_on_c, 0, 70, 0
2, 132696, Note_on_c, 0, 58, 0
2, 132703, Note_on_c, 0, 56, 97
2, 132722, Note_on_c, 0, 65, 0
2, 132797, Note_on_c, 0, 56, 0
2, 132804, Note_on_c, 0, 65, 88
2, 132809, Note_on_c, 0, 58, 98
2, 132811, Note_on_c, 0, 70, 104
2, 132890, Note_on_c, 0, 38, 100
2, 132919, Note_on_c, 0, 65, 0
2, 132922, Note_on_c, 0, 58, 0
2, 132950, Note_on_c, 0, 70, 0
2, 132991, Note_on_c, 0, 45, 100
2, 133013, Note_on_c, 0, 57, 97
2, 133066, Control_c, 0, 64, 0
2, 133102, Note_on_c, 0, 65, 83
2, 133176, Note_on_c, 0, 38, 0
2, 133222, Note_on_c, 0, 69, 115
2, 133231, Note_on_c, 0, 53, 108
2, 133234, Note_on_c, 0, 45, 0
2, 133296, Control_c, 0, 64, 127
2, 133308, Note_on_c, 0, 53, 0
2, 133354, Note_on_c, 0, 57, 0
2, 133404, Note_on_c, 0, 65, 0
2, 133474, Note_on_c, 0, 69, 0
2, 134026, Note_on_c, 0, 98, 115
2, 134030, Note_on_c, 0, 86, 110
2, 134038, Note_on_c, 0, 69, 98
2, 134040, Note_on_c, 0, 77, 106
2, 134040, Note_on_c, 0, 74, 100
2, 134042, Note_on_c, 0, 65, 93
2, 134083, Note_on_c, 0, 74, 0
2, 134167, Note_on_c, 0, 77, 0
2, 134227, Note_on_c, 0, 65, 0
2, 134287, Note_on_c, 0, 69, 0
2, 134885, Note_on_c, 0, 98, 0
2, 134947, Note_on_c, 0, 94, 110
2, 135010, Note_on_c, 0, 86, 0
2, 135077, Note_on_c, 0, 93, 99
2, 135127, Note_on_c, 0, 94, 0
2, 135168, Note_on_c, 0, 89, 101
2, 135233, Note_on_c, 0, 93, 0
2, 135250, Note_on_c, 0, 86, 108
2, 135278, Note_on_c, 0, 89, 0
2, 135281, Note_on_c, 0, 86, 0
2, 135312, Note_on_c, 0, 82, 100
2, 135398, Note_on_c, 0, 81, 93
2, 135434, Note_on_c, 0, 82, 0
2, 135466, Note_on_c, 0, 77, 93
2, 135530, Note_on_c, 0, 74, 89
2, 135535, Note_on_c, 0, 81, 0
2, 135588, Note_on_c, 0, 74, 0
2, 135593, Note_on_c, 0, 77, 0
2, 135595, Note_on_c, 0, 70, 103
2, 135634, Note_on_c, 0, 69, 94
2, 135710, Note_on_c, 0, 65, 100
2, 135734, Note_on_c, 0, 70, 0
2, 135780, Note_on_c, 0, 69, 0
2, 135790, Note_on_c, 0, 62, 100
2, 135821, Note_on_c, 0, 65, 0
2, 135823, Note_on_c, 0, 62, 0
2, 135857, Note_on_c, 0, 58, 105
2, 135922, Note_on_c, 0, 57, 98
2, 135982, Note_on_c, 0, 53, 87
2, 135989, Note_on_c, 0, 58, 0
2, 136022, Note_on_c, 0, 50, 98
2, 136068, Note_on_c, 0, 57, 0
2, 136116, Note_on_c, 0, 53, 0
2, 136118, Note_on_c, 0, 46, 97
2, 136138, Note_on_c, 0, 50, 0
2, 136162, Note_on_c, 0, 45, 92
2, 136236, Note_on_c, 0, 41, 98
2, 136260, Note_on_c, 0, 46, 0
2, 136298, Note_on_c, 0, 44, 39
2, 136322, Note_on_c, 0, 38, 100
2, 136332, Note_on_c, 0, 45, 0
2, 136380, Note_on_c, 0, 34, 97
2, 136392, Note_on_c, 0, 41, 0
2, 136409, Note_on_c, 0, 38, 0
2, 136435, Note_on_c, 0, 33, 99
2, 136500, Note_on_c, 0, 34, 0
2, 136507, Note_on_c, 0, 44, 0
2, 136510, Note_on_c, 0, 29, 93
2, 136577, Note_on_c, 0, 33, 0
2, 136613, Note_on_c, 0, 26, 115
2, 136663, Note_on_c, 0, 29, 0
2, 136738, Control_c, 0, 64, 0
2, 137045, Control_c, 0, 64, 127
2, 137374, Note_on_c, 0, 26, 0
2, 138014, Note_on_c, 0, 26, 123
2, 138799, Note_on_c, 0, 26, 0
2, 140136, Note_on_c, 0, 26, 119
2, 141139, Note_on_c, 0, 26, 0
2, 143362, Control_c, 0, 64, 0
2, 143362, End_track
0, 0, End_of_file
