0, 0, Header, 0, 1, 480
1, 0, Start_track
1, 0, SMPTE_offset, 96, 0, 0, 0, 0
1, 0, Time_signature, 4, 2, 24, 8
1, 0, Key_signature, 0, "major"
1, 0, Tempo, 500000
1, 0, Control_c, 0, 64, 127
1, 0, Note_on_c, 0, 59, 38
1, 694, Note_off_c, 0, 59, 64
1, 1224, Note_on_c, 0, 64, 48
1, 1224, Note_on_c, 0, 56, 21
1, 1252, Note_on_c, 0, 40, 34
1, 1416, Control_c, 0, 64, 0
1, 1770, Control_c, 0, 64, 127
1, 2046, Note_on_c, 0, 47, 19
1, 2054, Note_on_c, 0, 59, 26
1, 2102, Note_off_c, 0, 56, 64
1, 2560, Note_on_c, 0, 63, 46
1, 2572, Note_on_c, 0, 56, 25
1, 2618, Note_off_c, 0, 47, 64
1, 2634, Note_off_c, 0, 64, 64
1, 2652, Note_off_c, 0, 59, 64
1, 3034, Note_on_c, 0, 64, 63
1, 3039, Note_on_c, 0, 59, 34
1, 3042, Note_on_c, 0, 47, 25
1, 3080, Note_off_c, 0, 56, 64
1, 3086, Note_off_c, 0, 63, 64
1, 3442, Note_off_c, 0, 59, 64
1, 3494, Note_off_c, 0, 47, 64
1, 3516, Note_on_c, 0, 66, 52
1, 3522, Note_on_c, 0, 63, 29
1, 3534, Note_on_c, 0, 57, 31
1, 3540, Note_off_c, 0, 40, 64
1, 3568, Note_on_c, 0, 35, 33
1, 3614, Control_c, 0, 64, 0
1, 3618, Note_off_c, 0, 64, 64
1, 3968, Control_c, 0, 64, 127
1, 4016, Note_off_c, 0, 57, 64
1, 4040, Note_on_c, 0, 59, 26
1, 4050, Note_on_c, 0, 47, 16
1, 4304, Note_off_c, 0, 59, 64
1, 4544, Note_on_c, 0, 57, 21
1, 4598, Note_off_c, 0, 47, 64
1, 5000, Note_off_c, 0, 57, 64
1, 5064, Note_on_c, 0, 59, 20
1, 5082, Note_on_c, 0, 47, 14
1, 5258, Note_off_c, 0, 35, 64
1, 5512, Note_off_c, 0, 47, 64
1, 5552, Note_off_c, 0, 59, 64
1, 5616, Note_on_c, 0, 57, 23
1, 5654, Note_on_c, 0, 35, 20
1, 5870, Note_off_c, 0, 57, 64
1, 5926, Note_off_c, 0, 66, 64
1, 5932, Note_off_c, 0, 63, 64
1, 6274, Note_on_c, 0, 68, 60
1, 6290, Note_on_c, 0, 59, 21
1, 6292, Note_on_c, 0, 47, 17
1, 6520, Note_off_c, 0, 59, 64
1, 6562, Note_off_c, 0, 68, 64
1, 6784, Note_on_c, 0, 68, 61
1, 6810, Note_on_c, 0, 63, 41
1, 6820, Note_on_c, 0, 57, 17
1, 6912, Note_off_c, 0, 47, 64
1, 7114, Note_off_c, 0, 57, 64
1, 7260, Note_on_c, 0, 66, 60
1, 7282, Note_on_c, 0, 59, 33
1, 7302, Note_on_c, 0, 47, 24
1, 7342, Note_off_c, 0, 68, 64
1, 7494, Note_off_c, 0, 59, 64
1, 7532, Note_off_c, 0, 63, 64
1, 7628, Note_off_c, 0, 66, 64
1, 7712, Note_off_c, 0, 47, 64
1, 7848, Note_on_c, 0, 68, 54
1, 7852, Note_on_c, 0, 56, 37
1, 7854, Note_on_c, 0, 64, 27
1, 7862, Note_on_c, 0, 40, 36
1, 7930, Note_off_c, 0, 35, 64
1, 7992, Control_c, 0, 64, 0
1, 8362, Control_c, 0, 64, 127
1, 8464, Note_off_c, 0, 56, 64
1, 8548, Note_on_c, 0, 47, 22
1, 8554, Note_on_c, 0, 59, 33
1, 8870, Note_off_c, 0, 59, 64
1, 9030, Note_on_c, 0, 56, 26
1, 9052, Note_off_c, 0, 47, 64
1, 9346, Note_off_c, 0, 56, 64
1, 9464, Note_off_c, 0, 40, 64
1, 9494, Note_on_c, 0, 59, 31
1, 9500, Note_on_c, 0, 47, 13
1, 9802, Note_off_c, 0, 59, 64
1, 9866, Note_off_c, 0, 47, 64
1, 9936, Note_on_c, 0, 56, 26
1, 9972, Note_on_c, 0, 40, 38
1, 10118, Note_off_c, 0, 56, 64
1, 10152, Note_off_c, 0, 64, 64
1, 10336, Note_off_c, 0, 68, 64
1, 10576, Note_on_c, 0, 69, 54
1, 10612, Note_on_c, 0, 47, 23
1, 10630, Note_on_c, 0, 64, 19
1, 10776, Note_off_c, 0, 64, 64
1, 10838, Note_off_c, 0, 69, 64
1, 11036, Note_on_c, 0, 69, 69
1, 11094, Note_on_c, 0, 59, 23
1, 11188, Note_off_c, 0, 47, 64
1, 11374, Note_off_c, 0, 59, 64
1, 11486, Note_on_c, 0, 68, 78
1, 11528, Note_off_c, 0, 69, 64
1, 11528, Note_on_c, 0, 64, 38
1, 11540, Note_on_c, 0, 47, 23
1, 11682, Note_off_c, 0, 64, 64
1, 11842, Note_off_c, 0, 47, 64
1, 11846, Note_off_c, 0, 68, 64
1, 12060, Note_on_c, 0, 73, 74
1, 12092, Note_on_c, 0, 63, 39
1, 12100, Note_on_c, 0, 35, 26
1, 12108, Note_off_c, 0, 40, 64
1, 12188, Control_c, 0, 64, 0
1, 12542, Control_c, 0, 64, 127
1, 12642, Note_off_c, 0, 63, 64
1, 12678, Note_on_c, 0, 69, 20
1, 12688, Note_on_c, 0, 47, 18
1, 12896, Note_off_c, 0, 69, 64
1, 13000, Note_off_c, 0, 73, 64
1, 13190, Note_off_c, 0, 47, 64
1, 13248, Note_on_c, 0, 59, 23
1, 13352, Note_off_c, 0, 59, 64
1, 13698, Note_on_c, 0, 71, 73
1, 13734, Note_on_c, 0, 63, 29
1, 13742, Note_on_c, 0, 47, 24
1, 13984, Note_off_c, 0, 71, 64
1, 14168, Note_on_c, 0, 69, 58
1, 14210, Note_on_c, 0, 59, 22
1, 14212, Note_on_c, 0, 40, 40
1, 14244, Note_off_c, 0, 63, 64
1, 14250, Note_off_c, 0, 47, 64
1, 14410, Note_off_c, 0, 35, 64
1, 14478, Control_c, 0, 64, 0
1, 14646, Note_on_c, 0, 68, 54
1, 14670, Note_on_c, 0, 64, 38
1, 14676, Note_on_c, 0, 47, 29
1, 14692, Note_off_c, 0, 59, 64
1, 14706, Note_off_c, 0, 69, 64
1, 14872, Note_off_c, 0, 64, 64
1, 14875, Control_c, 0, 64, 127
1, 15120, Note_on_c, 0, 63, 54
1, 15132, Note_on_c, 0, 56, 30
1, 15142, Note_off_c, 0, 68, 64
1, 15328, Note_off_c, 0, 47, 64
1, 15470, Note_off_c, 0, 56, 64
1, 15540, Note_on_c, 0, 64, 61
1, 15554, Note_on_c, 0, 59, 33
1, 15582, Note_on_c, 0, 47, 26
1, 15622, Note_off_c, 0, 63, 64
1, 15858, Note_off_c, 0, 59, 64
1, 15886, Note_off_c, 0, 47, 64
1, 15984, Note_on_c, 0, 66, 39
1, 15984, Note_on_c, 0, 61, 32
1, 15998, Note_on_c, 0, 57, 29
1, 16006, Note_on_c, 0, 35, 29
1, 16046, Note_off_c, 0, 40, 64
1, 16046, Note_off_c, 0, 64, 64
1, 16060, Control_c, 0, 64, 0
1, 16368, Control_c, 0, 64, 127
1, 16414, Note_off_c, 0, 57, 64
1, 16442, Note_on_c, 0, 63, 38
1, 16450, Note_on_c, 0, 47, 21
1, 16464, Note_off_c, 0, 61, 64
1, 16467, Note_on_c, 0, 59, 26
1, 16506, Control_c, 0, 64, 0
1, 16752, Control_c, 0, 64, 127
1, 16866, Note_off_c, 0, 63, 64
1, 16876, Note_on_c, 0, 61, 33
1, 16896, Note_on_c, 0, 57, 24
1, 16908, Note_off_c, 0, 59, 64
1, 16972, Note_off_c, 0, 47, 64
1, 17226, Note_off_c, 0, 57, 64
1, 17348, Note_on_c, 0, 63, 25
1, 17351, Control_c, 0, 64, 0
1, 17351, Note_on_c, 0, 47, 21
1, 17356, Note_off_c, 0, 61, 64
1, 17364, Note_on_c, 0, 59, 21
1, 17552, Note_off_c, 0, 35, 64
1, 17566, Control_c, 0, 64, 127
1, 17706, Note_off_c, 0, 59, 64
1, 17764, Note_off_c, 0, 47, 64
1, 17870, Note_off_c, 0, 63, 64
1, 17892, Note_on_c, 0, 61, 24
1, 17902, Note_on_c, 0, 57, 19
1, 17932, Note_on_c, 0, 35, 23
1, 18138, Note_off_c, 0, 57, 64
1, 18178, Note_off_c, 0, 61, 64
1, 18240, Note_off_c, 0, 66, 64
1, 18552, Note_on_c, 0, 68, 51
1, 18580, Note_on_c, 0, 47, 19
1, 18584, Note_on_c, 0, 63, 33
1, 18590, Note_on_c, 0, 59, 8
1, 18826, Note_off_c, 0, 59, 64
1, 18850, Note_off_c, 0, 68, 64
1, 18854, Note_off_c, 0, 63, 64
1, 19070, Note_on_c, 0, 68, 61
1, 19104, Note_on_c, 0, 57, 21
1, 19106, Note_on_c, 0, 61, 28
1, 19134, Control_c, 0, 64, 0
1, 19256, Note_off_c, 0, 47, 64
1, 19318, Control_c, 0, 64, 127
1, 19354, Note_off_c, 0, 57, 64
1, 19514, Note_off_c, 0, 61, 64
1, 19558, Note_on_c, 0, 66, 44
1, 19590, Note_on_c, 0, 59, 20
1, 19602, Note_on_c, 0, 63, 24
1, 19610, Control_c, 0, 64, 0
1, 19630, Note_on_c, 0, 47, 17
1, 19640, Note_off_c, 0, 68, 64
1, 19840, Control_c, 0, 64, 127
1, 19876, Note_off_c, 0, 59, 64
1, 19918, Note_off_c, 0, 63, 64
1, 19926, Note_off_c, 0, 47, 64
1, 20228, Note_off_c, 0, 35, 64
1, 20240, Note_on_c, 0, 56, 20
1, 20249, Note_on_c, 0, 64, 42
1, 20256, Note_on_c, 0, 40, 18
1, 20378, Control_c, 0, 64, 0
1, 20446, Note_off_c, 0, 66, 64
1, 20732, Control_c, 0, 64, 127
1, 20748, Note_off_c, 0, 56, 64
1, 20920, Note_on_c, 0, 59, 14
1, 20923, Note_on_c, 0, 47, 11
1, 21118, Note_off_c, 0, 40, 64
1, 21142, Note_off_c, 0, 59, 64
1, 21390, Note_on_c, 0, 56, 22
1, 21406, Note_off_c, 0, 47, 64
1, 21618, Note_off_c, 0, 56, 64
1, 21878, Note_on_c, 0, 47, 19
1, 21880, Note_on_c, 0, 59, 15
1, 22009, Note_off_c, 0, 64, 64
1, 22084, Note_off_c, 0, 59, 64
1, 22614, Note_on_c, 0, 68, 32
1, 22642, Note_on_c, 0, 62, 16
1, 22646, Note_off_c, 0, 47, 64
1, 22656, Note_on_c, 0, 40, 32
1, 23122, Note_off_c, 0, 62, 64
1, 23136, Note_on_c, 0, 69, 47
1, 23180, Note_on_c, 0, 64, 31
1, 23182, Note_on_c, 0, 52, 31
1, 23184, Note_off_c, 0, 68, 64
1, 23368, Note_off_c, 0, 64, 64
1, 23554, Note_on_c, 0, 66, 57
1, 23594, Note_on_c, 0, 62, 32
1, 23628, Note_off_c, 0, 69, 64
1, 23704, Note_off_c, 0, 52, 64
1, 23774, Note_off_c, 0, 62, 64
1, 23934, Note_on_c, 0, 68, 69
1, 23978, Note_on_c, 0, 52, 38
1, 23988, Note_on_c, 0, 64, 26
1, 24014, Note_off_c, 0, 66, 64
1, 24056, Note_off_c, 0, 64, 64
1, 24332, Note_on_c, 0, 69, 63
1, 24346, Note_on_c, 0, 61, 38
1, 24364, Note_on_c, 0, 45, 34
1, 24368, Note_off_c, 0, 52, 64
1, 24384, Note_off_c, 0, 68, 64
1, 24480, Control_c, 0, 64, 0
1, 24560, Note_off_c, 0, 40, 64
1, 24694, Control_c, 0, 64, 127
1, 24760, Note_on_c, 0, 71, 78
1, 24766, Note_off_c, 0, 61, 64
1, 24806, Note_on_c, 0, 52, 44
1, 24808, Note_on_c, 0, 64, 24
1, 24832, Note_off_c, 0, 69, 64
1, 24962, Note_off_c, 0, 64, 64
1, 25148, Note_on_c, 0, 68, 78
1, 25180, Note_on_c, 0, 61, 27
1, 25198, Note_off_c, 0, 71, 64
1, 25232, Note_off_c, 0, 52, 64
1, 25388, Note_off_c, 0, 61, 64
1, 25538, Note_on_c, 0, 69, 73
1, 25564, Note_on_c, 0, 64, 48
1, 25567, Note_on_c, 0, 52, 45
1, 25580, Note_off_c, 0, 45, 64
1, 25610, Note_off_c, 0, 68, 64
1, 25806, Note_off_c, 0, 52, 64
1, 25822, Note_off_c, 0, 64, 64
1, 26008, Note_on_c, 0, 73, 66
1, 26034, Note_on_c, 0, 61, 38
1, 26056, Note_on_c, 0, 45, 37
1, 26078, Control_c, 0, 64, 0
1, 26102, Note_off_c, 0, 69, 64
1, 26416, Control_c, 0, 64, 127
1, 26482, Note_off_c, 0, 61, 64
1, 26598, Note_on_c, 0, 54, 31
1, 26608, Note_on_c, 0, 64, 42
1, 26820, Note_off_c, 0, 64, 64
1, 26844, Note_off_c, 0, 73, 64
1, 27044, Note_on_c, 0, 66, 62
1, 27070, Note_on_c, 0, 61, 38
1, 27168, Note_off_c, 0, 54, 64
1, 27496, Note_on_c, 0, 64, 41
1, 27496, Note_on_c, 0, 54, 29
1, 27508, Note_off_c, 0, 61, 64
1, 27732, Note_off_c, 0, 64, 64
1, 27876, Note_off_c, 0, 54, 64
1, 27892, Note_on_c, 0, 47, 34
1, 27895, Note_on_c, 0, 59, 40
1, 27962, Note_off_c, 0, 45, 64
1, 27968, Control_c, 0, 64, 0
1, 28276, Control_c, 0, 64, 127
1, 28279, Note_on_c, 0, 64, 51
1, 28286, Note_off_c, 0, 59, 64
1, 28290, Note_on_c, 0, 54, 34
1, 28606, Note_on_c, 0, 70, 49
1, 28616, Note_off_c, 0, 64, 64
1, 28636, Note_off_c, 0, 66, 64
1, 28644, Note_on_c, 0, 68, 67
1, 28668, Note_on_c, 0, 59, 49
1, 28680, Note_off_c, 0, 70, 64
1, 28922, Note_off_c, 0, 54, 64
1, 29068, Note_off_c, 0, 59, 64
1, 29070, Note_on_c, 0, 66, 65
1, 29098, Note_on_c, 0, 54, 40
1, 29118, Note_on_c, 0, 64, 39
1, 29156, Note_off_c, 0, 68, 64
1, 29430, Note_off_c, 0, 64, 64
1, 29462, Note_on_c, 0, 49, 43
1, 29474, Note_on_c, 0, 58, 33
1, 29506, Note_off_c, 0, 54, 64
1, 29520, Control_c, 0, 64, 0
1, 29580, Note_off_c, 0, 47, 64
1, 29842, Control_c, 0, 64, 127
1, 29940, Note_on_c, 0, 54, 29
1, 29954, Note_on_c, 0, 64, 44
1, 30062, Note_off_c, 0, 58, 64
1, 30264, Note_off_c, 0, 64, 64
1, 30310, Note_on_c, 0, 70, 44
1, 30382, Note_on_c, 0, 68, 61
1, 30402, Note_on_c, 0, 58, 28
1, 30422, Note_off_c, 0, 70, 64
1, 30446, Note_off_c, 0, 66, 64
1, 30558, Note_off_c, 0, 54, 64
1, 30762, Note_off_c, 0, 58, 64
1, 30806, Note_on_c, 0, 66, 69
1, 30836, Note_on_c, 0, 54, 38
1, 30846, Note_on_c, 0, 64, 46
1, 30856, Note_off_c, 0, 68, 64
1, 30914, Note_off_c, 0, 64, 64
1, 31152, Note_off_c, 0, 54, 64
1, 31430, Note_on_c, 0, 71, 67
1, 31444, Note_off_c, 0, 49, 64
1, 31444, Note_on_c, 0, 63, 41
1, 31444, Note_on_c, 0, 57, 33
1, 31454, Control_c, 0, 64, 0
1, 31484, Note_on_c, 0, 47, 28
1, 31540, Note_off_c, 0, 66, 64
1, 31808, Control_c, 0, 64, 127
1, 31822, Note_off_c, 0, 57, 64
1, 32076, Note_on_c, 0, 59, 38
1, 32086, Note_on_c, 0, 54, 24
1, 32250, Note_off_c, 0, 59, 64
1, 32406, Note_off_c, 0, 54, 64
1, 32572, Note_on_c, 0, 57, 27
1, 32792, Note_off_c, 0, 57, 64
1, 33124, Note_on_c, 0, 59, 24
1, 33134, Note_on_c, 0, 54, 14
1, 33226, Note_off_c, 0, 71, 64
1, 33274, Note_off_c, 0, 63, 64
1, 33328, Note_off_c, 0, 54, 64
1, 33346, Note_off_c, 0, 47, 64
1, 33426, Note_off_c, 0, 59, 64
1, 33902, Note_on_c, 0, 68, 24
1, 33912, Note_on_c, 0, 56, 24
1, 33912, Note_on_c, 0, 64, 43
1, 33918, Note_on_c, 0, 40, 30
1, 34068, Control_c, 0, 64, 0
1, 34360, Control_c, 0, 64, 127
1, 34572, Note_off_c, 0, 56, 64
1, 34712, Note_on_c, 0, 59, 28
1, 34726, Note_on_c, 0, 47, 20
1, 34970, Note_off_c, 0, 59, 64
1, 35224, Note_on_c, 0, 63, 62
1, 35234, Note_off_c, 0, 64, 64
1, 35244, Note_on_c, 0, 56, 15
1, 35266, Note_off_c, 0, 47, 64
1, 35302, Note_off_c, 0, 68, 64
1, 35572, Note_off_c, 0, 56, 64
1, 35684, Note_on_c, 0, 64, 73
1, 35706, Note_on_c, 0, 59, 35
1, 35712, Note_on_c, 0, 47, 26
1, 35742, Note_off_c, 0, 63, 64
1, 35822, Note_off_c, 0, 40, 64
1, 35880, Note_off_c, 0, 59, 64
1, 36038, Note_off_c, 0, 47, 64
1, 36132, Note_on_c, 0, 66, 52
1, 36146, Note_on_c, 0, 63, 41
1, 36149, Note_on_c, 0, 57, 37
1, 36174, Note_on_c, 0, 35, 36
1, 36184, Note_off_c, 0, 64, 64
1, 36187, Control_c, 0, 64, 0
1, 36588, Control_c, 0, 64, 127
1, 36600, Note_off_c, 0, 57, 64
1, 36600, Note_on_c, 0, 59, 34
1, 36624, Note_on_c, 0, 47, 24
1, 36986, Note_off_c, 0, 59, 64
1, 37008, Note_off_c, 0, 47, 64
1, 37050, Note_on_c, 0, 57, 22
1, 37440, Note_off_c, 0, 57, 64
1, 37490, Note_off_c, 0, 35, 64
1, 37518, Note_on_c, 0, 47, 27
1, 37524, Note_on_c, 0, 59, 28
1, 37956, Note_off_c, 0, 59, 64
1, 38018, Note_off_c, 0, 47, 64
1, 38112, Note_on_c, 0, 57, 20
1, 38115, Note_on_c, 0, 35, 18
1, 38320, Note_off_c, 0, 57, 64
1, 38418, Note_off_c, 0, 63, 64
1, 38426, Note_off_c, 0, 66, 64
1, 38676, Note_on_c, 0, 68, 61
1, 38722, Note_on_c, 0, 47, 19
1, 38730, Note_on_c, 0, 59, 14
1, 38944, Note_off_c, 0, 59, 64
1, 38972, Note_off_c, 0, 68, 64
1, 39190, Note_on_c, 0, 68, 57
1, 39218, Note_on_c, 0, 57, 20
1, 39226, Note_on_c, 0, 63, 31
1, 39316, Note_off_c, 0, 47, 64
1, 39426, Note_off_c, 0, 57, 64
1, 39670, Note_on_c, 0, 66, 41
1, 39700, Note_on_c, 0, 59, 27
1, 39730, Note_on_c, 0, 47, 20
1, 39733, Note_off_c, 0, 68, 64
1, 39894, Note_off_c, 0, 59, 64
1, 39900, Note_off_c, 0, 63, 64
1, 40202, Note_off_c, 0, 47, 64
1, 40290, Note_off_c, 0, 66, 64
1, 40298, Note_on_c, 0, 68, 38
1, 40306, Note_on_c, 0, 56, 17
1, 40342, Note_on_c, 0, 64, 23
1, 40342, Note_on_c, 0, 40, 27
1, 40366, Note_off_c, 0, 35, 64
1, 40412, Control_c, 0, 64, 0
1, 40736, Control_c, 0, 64, 127
1, 40824, Note_off_c, 0, 56, 64
1, 40890, Note_off_c, 0, 40, 64
1, 40960, Note_on_c, 0, 47, 15
1, 40960, Note_on_c, 0, 59, 26
1, 41190, Note_off_c, 0, 59, 64
1, 41366, Note_off_c, 0, 47, 64
1, 41406, Note_on_c, 0, 56, 24
1, 41656, Note_off_c, 0, 56, 64
1, 41840, Note_on_c, 0, 59, 27
1, 41848, Note_on_c, 0, 47, 21
1, 42030, Note_off_c, 0, 59, 64
1, 42232, Note_off_c, 0, 47, 64
1, 42292, Note_on_c, 0, 56, 31
1, 42314, Note_on_c, 0, 40, 27
1, 42382, Note_off_c, 0, 64, 64
1, 42392, Note_off_c, 0, 56, 64
1, 42470, Note_off_c, 0, 68, 64
1, 42732, Note_on_c, 0, 69, 47
1, 42750, Note_on_c, 0, 47, 30
1, 42764, Note_on_c, 0, 64, 29
1, 42938, Note_off_c, 0, 64, 64
1, 42974, Note_off_c, 0, 69, 64
1, 43172, Note_on_c, 0, 69, 75
1, 43206, Note_on_c, 0, 59, 38
1, 43220, Note_off_c, 0, 47, 64
1, 43470, Note_off_c, 0, 59, 64
1, 43598, Note_on_c, 0, 68, 79
1, 43634, Note_on_c, 0, 64, 34
1, 43636, Note_on_c, 0, 47, 29
1, 43638, Note_off_c, 0, 69, 64
1, 43696, Note_off_c, 0, 40, 64
1, 43778, Note_off_c, 0, 64, 64
1, 43868, Note_off_c, 0, 47, 64
1, 43940, Note_off_c, 0, 68, 64
1, 44128, Note_on_c, 0, 73, 71
1, 44188, Note_on_c, 0, 63, 28
1, 44196, Note_on_c, 0, 35, 35
1, 44224, Control_c, 0, 64, 0
1, 44624, Control_c, 0, 64, 127
1, 44694, Note_off_c, 0, 63, 64
1, 44756, Note_on_c, 0, 69, 23
1, 44782, Note_on_c, 0, 47, 23
1, 44832, Note_off_c, 0, 73, 64
1, 44919, Note_off_c, 0, 69, 64
1, 45052, Note_off_c, 0, 47, 64
1, 45268, Note_on_c, 0, 59, 25
1, 45370, Note_off_c, 0, 59, 64
1, 45698, Note_on_c, 0, 71, 68
1, 45716, Note_on_c, 0, 63, 31
1, 45740, Note_on_c, 0, 47, 19
1, 45950, Note_off_c, 0, 71, 64
1, 46190, Note_on_c, 0, 69, 41
1, 46206, Note_off_c, 0, 47, 64
1, 46226, Note_on_c, 0, 59, 18
1, 46230, Note_on_c, 0, 40, 33
1, 46260, Note_off_c, 0, 63, 64
1, 46350, Note_off_c, 0, 35, 64
1, 46452, Control_c, 0, 64, 0
1, 46674, Note_on_c, 0, 68, 44
1, 46704, Note_on_c, 0, 47, 24
1, 46712, Note_on_c, 0, 64, 27
1, 46720, Note_off_c, 0, 69, 64
1, 46758, Note_off_c, 0, 59, 64
1, 46890, Note_off_c, 0, 64, 64
1, 46912, Control_c, 0, 64, 127
1, 46932, Note_off_c, 0, 68, 64
1, 47086, Note_on_c, 0, 63, 50
1, 47086, Note_on_c, 0, 56, 39
1, 47168, Note_off_c, 0, 47, 64
1, 47266, Note_off_c, 0, 56, 64
1, 47502, Note_on_c, 0, 64, 62
1, 47526, Note_off_c, 0, 63, 64
1, 47534, Note_on_c, 0, 59, 30
1, 47542, Note_on_c, 0, 47, 23
1, 47702, Note_off_c, 0, 59, 64
1, 47746, Note_off_c, 0, 47, 64
1, 47784, Note_off_c, 0, 40, 64
1, 47810, Note_off_c, 0, 64, 64
1, 47988, Note_on_c, 0, 66, 42
1, 48008, Note_on_c, 0, 57, 25
1, 48014, Note_on_c, 0, 61, 28
1, 48014, Note_on_c, 0, 35, 30
1, 48096, Control_c, 0, 64, 0
1, 48410, Note_off_c, 0, 57, 64
1, 48444, Note_on_c, 0, 63, 30
1, 48454, Note_off_c, 0, 61, 64
1, 48468, Note_on_c, 0, 59, 27
1, 48506, Note_on_c, 0, 47, 21
1, 48634, Control_c, 0, 64, 127
1, 48788, Note_off_c, 0, 47, 64
1, 48791, Note_off_c, 0, 59, 64
1, 48820, Note_off_c, 0, 63, 64
1, 48854, Note_on_c, 0, 61, 28
1, 48864, Note_on_c, 0, 57, 20
1, 49156, Note_off_c, 0, 57, 64
1, 49294, Note_off_c, 0, 61, 64
1, 49300, Note_on_c, 0, 63, 22
1, 49320, Note_on_c, 0, 59, 12
1, 49328, Note_on_c, 0, 47, 13
1, 49414, Note_off_c, 0, 35, 64
1, 49514, Note_off_c, 0, 59, 64
1, 49648, Note_off_c, 0, 47, 64
1, 49760, Note_off_c, 0, 63, 64
1, 49774, Note_on_c, 0, 61, 23
1, 49788, Note_on_c, 0, 57, 19
1, 49806, Note_on_c, 0, 35, 27
1, 49986, Note_off_c, 0, 57, 64
1, 50070, Note_off_c, 0, 61, 64
1, 50122, Note_off_c, 0, 66, 64
1, 50416, Note_on_c, 0, 68, 41
1, 50446, Note_on_c, 0, 47, 20
1, 50464, Note_on_c, 0, 63, 10
1, 50468, Note_on_c, 0, 59, 3
1, 50570, Control_c, 0, 64, 0
1, 50720, Note_off_c, 0, 59, 64
1, 50728, Note_off_c, 0, 68, 64
1, 50738, Control_c, 0, 64, 127
1, 50972, Note_on_c, 0, 68, 40
1, 50994, Note_off_c, 0, 47, 64
1, 50994, Note_on_c, 0, 61, 30
1, 51008, Note_off_c, 0, 63, 64
1, 51014, Note_on_c, 0, 57, 11
1, 51224, Note_off_c, 0, 57, 64
1, 51312, Note_off_c, 0, 61, 64
1, 51514, Note_on_c, 0, 66, 33
1, 51532, Note_off_c, 0, 68, 64
1, 51538, Control_c, 0, 64, 0
1, 51540, Note_on_c, 0, 63, 23
1, 51544, Note_on_c, 0, 47, 18
1, 51548, Note_on_c, 0, 59, 22
1, 51752, Control_c, 0, 64, 127
1, 51770, Note_off_c, 0, 63, 64
1, 51780, Note_off_c, 0, 59, 64
1, 51830, Note_off_c, 0, 47, 64
1, 52044, Note_off_c, 0, 35, 64
1, 52106, Note_on_c, 0, 64, 38
1, 52108, Note_on_c, 0, 56, 11
1, 52134, Note_on_c, 0, 40, 23
1, 52198, Control_c, 0, 64, 0
1, 52244, Note_off_c, 0, 66, 64
1, 52598, Control_c, 0, 64, 127
1, 52648, Note_off_c, 0, 56, 64
1, 52764, Note_on_c, 0, 47, 20
1, 52767, Note_on_c, 0, 59, 13
1, 52806, Note_off_c, 0, 40, 64
1, 52952, Note_off_c, 0, 59, 64
1, 53000, Note_off_c, 0, 47, 64
1, 53254, Note_on_c, 0, 56, 19
1, 53450, Note_off_c, 0, 56, 64
1, 53650, Note_off_c, 0, 64, 64
1, 53680, Note_on_c, 0, 59, 22
1, 53710, Note_on_c, 0, 47, 17
1, 53786, Note_off_c, 0, 59, 64
1, 53818, Note_off_c, 0, 47, 64
1, 54350, Note_on_c, 0, 71, 51
1, 54382, Note_on_c, 0, 62, 14
1, 54388, Note_on_c, 0, 40, 31
1, 54390, Note_on_c, 0, 66, 8
1, 54624, Note_off_c, 0, 62, 64
1, 54696, Note_off_c, 0, 66, 64
1, 54868, Note_on_c, 0, 73, 57
1, 54896, Note_on_c, 0, 64, 33
1, 54896, Note_on_c, 0, 68, 30
1, 54899, Note_on_c, 0, 52, 35
1, 54904, Note_off_c, 0, 71, 64
1, 55044, Note_off_c, 0, 64, 64
1, 55086, Note_off_c, 0, 73, 64
1, 55108, Note_off_c, 0, 68, 64
1, 55286, Note_on_c, 0, 73, 68
1, 55312, Note_on_c, 0, 62, 39
1, 55328, Note_on_c, 0, 66, 22
1, 55336, Note_off_c, 0, 52, 64
1, 55484, Note_off_c, 0, 66, 64
1, 55530, Note_off_c, 0, 62, 64
1, 55556, Note_off_c, 0, 73, 64
1, 55676, Note_on_c, 0, 71, 82
1, 55696, Note_on_c, 0, 68, 33
1, 55708, Note_on_c, 0, 64, 39
1, 55724, Note_on_c, 0, 52, 31
1, 55786, Note_off_c, 0, 64, 64
1, 55796, Note_off_c, 0, 68, 64
1, 56024, Note_off_c, 0, 52, 64
1, 56082, Note_on_c, 0, 69, 58
1, 56082, Note_on_c, 0, 61, 44
1, 56106, Note_on_c, 0, 45, 29
1, 56128, Note_off_c, 0, 71, 64
1, 56178, Control_c, 0, 64, 0
1, 56268, Note_off_c, 0, 40, 64
1, 56454, Control_c, 0, 64, 127
1, 56474, Note_off_c, 0, 61, 64
1, 56528, Note_on_c, 0, 71, 64
1, 56562, Note_on_c, 0, 64, 35
1, 56568, Note_on_c, 0, 52, 36
1, 56586, Note_off_c, 0, 69, 64
1, 56906, Note_off_c, 0, 52, 64
1, 56908, Note_on_c, 0, 68, 61
1, 56914, Note_off_c, 0, 64, 64
1, 56936, Note_on_c, 0, 61, 32
1, 56942, Note_off_c, 0, 71, 64
1, 57054, Note_off_c, 0, 61, 64
1, 57222, Note_off_c, 0, 45, 64
1, 57262, Note_off_c, 0, 68, 64
1, 57294, Note_on_c, 0, 69, 46
1, 57306, Note_on_c, 0, 52, 49
1, 57309, Note_on_c, 0, 64, 38
1, 57358, Note_off_c, 0, 52, 64
1, 57364, Note_off_c, 0, 64, 64
1, 57394, Note_off_c, 0, 69, 64
1, 57756, Note_on_c, 0, 75, 51
1, 57776, Note_on_c, 0, 44, 56
1, 57782, Note_on_c, 0, 66, 14
1, 57786, Note_on_c, 0, 72, 28
1, 57822, Control_c, 0, 64, 0
1, 58068, Control_c, 0, 64, 127
1, 58096, Note_off_c, 0, 66, 64
1, 58248, Note_on_c, 0, 76, 65
1, 58258, Note_on_c, 0, 68, 35
1, 58272, Note_off_c, 0, 72, 64
1, 58290, Note_off_c, 0, 75, 64
1, 58306, Note_on_c, 0, 56, 33
1, 58480, Note_off_c, 0, 76, 64
1, 58480, Note_off_c, 0, 68, 64
1, 58632, Note_on_c, 0, 76, 72
1, 58640, Note_on_c, 0, 66, 51
1, 58664, Note_on_c, 0, 70, 32
1, 58742, Note_off_c, 0, 56, 64
1, 58745, Note_off_c, 0, 70, 64
1, 58842, Note_off_c, 0, 66, 64
1, 59016, Note_on_c, 0, 75, 76
1, 59030, Note_on_c, 0, 68, 42
1, 59032, Note_on_c, 0, 56, 50
1, 59038, Note_on_c, 0, 72, 57
1, 59040, Note_off_c, 0, 76, 64
1, 59102, Note_off_c, 0, 72, 64
1, 59220, Note_off_c, 0, 68, 64
1, 59254, Note_off_c, 0, 75, 64
1, 59378, Note_on_c, 0, 73, 72
1, 59390, Note_on_c, 0, 49, 59
1, 59402, Note_on_c, 0, 64, 52
1, 59408, Note_off_c, 0, 56, 64
1, 59528, Control_c, 0, 64, 0
1, 59654, Note_off_c, 0, 44, 64
1, 59766, Note_on_c, 0, 75, 72
1, 59778, Note_on_c, 0, 68, 49
1, 59826, Note_off_c, 0, 73, 64
1, 59828, Note_on_c, 0, 56, 34
1, 59834, Control_c, 0, 64, 127
1, 59962, Note_off_c, 0, 64, 64
1, 60088, Note_off_c, 0, 75, 64
1, 60142, Note_on_c, 0, 72, 73
1, 60150, Note_off_c, 0, 56, 64
1, 60153, Note_on_c, 0, 64, 49
1, 60194, Note_off_c, 0, 68, 64
1, 60408, Note_off_c, 0, 49, 64
1, 60410, Note_off_c, 0, 64, 64
1, 60438, Note_off_c, 0, 72, 64
1, 60538, Note_on_c, 0, 73, 70
1, 60546, Note_on_c, 0, 68, 50
1, 60558, Note_on_c, 0, 56, 34
1, 60666, Note_off_c, 0, 68, 64
1, 60678, Note_off_c, 0, 56, 64
1, 60730, Note_off_c, 0, 73, 64
1, 61002, Control_c, 0, 64, 0
1, 61010, Note_on_c, 0, 76, 71
1, 61020, Note_on_c, 0, 58, 29
1, 61026, Note_on_c, 0, 64, 50
1, 61030, Note_on_c, 0, 49, 30
1, 61032, Note_on_c, 0, 70, 32
1, 61036, Note_on_c, 0, 52, 44
1, 61042, Note_on_c, 0, 54, 34
1, 61234, Control_c, 0, 64, 127
1, 61242, Note_off_c, 0, 58, 64
1, 61242, Note_off_c, 0, 64, 64
1, 61250, Note_off_c, 0, 49, 64
1, 61252, Note_off_c, 0, 52, 64
1, 61272, Note_off_c, 0, 54, 64
1, 61286, Note_off_c, 0, 76, 64
1, 61324, Note_off_c, 0, 70, 64
1, 61446, Note_on_c, 0, 78, 79
1, 61446, Note_on_c, 0, 70, 41
1, 61454, Note_on_c, 0, 66, 52
1, 61460, Note_on_c, 0, 54, 31
1, 61462, Note_on_c, 0, 49, 42
1, 61463, Note_on_c, 0, 52, 51
1, 61466, Note_on_c, 0, 58, 38
1, 61532, Note_off_c, 0, 52, 64
1, 61548, Note_off_c, 0, 54, 64
1, 61602, Note_off_c, 0, 58, 64
1, 61620, Note_off_c, 0, 49, 64
1, 61636, Note_off_c, 0, 78, 64
1, 61642, Note_off_c, 0, 70, 64
1, 61656, Note_off_c, 0, 66, 64
1, 61822, Note_on_c, 0, 75, 86
1, 61834, Note_on_c, 0, 63, 75
1, 61837, Note_on_c, 0, 70, 46
1, 61837, Note_on_c, 0, 58, 46
1, 61844, Note_on_c, 0, 49, 54
1, 61850, Note_on_c, 0, 54, 56
1, 61853, Note_on_c, 0, 52, 60
1, 61932, Note_off_c, 0, 52, 64
1, 61974, Note_off_c, 0, 54, 64
1, 61982, Note_off_c, 0, 58, 64
1, 61992, Note_off_c, 0, 49, 64
1, 62006, Note_off_c, 0, 63, 64
1, 62020, Note_off_c, 0, 70, 64
1, 62048, Note_off_c, 0, 75, 64
1, 62184, Note_on_c, 0, 76, 94
1, 62194, Note_on_c, 0, 58, 55
1, 62194, Note_on_c, 0, 64, 89
1, 62194, Note_on_c, 0, 70, 62
1, 62194, Note_on_c, 0, 49, 59
1, 62214, Note_on_c, 0, 54, 53
1, 62220, Note_on_c, 0, 52, 55
1, 62284, Note_off_c, 0, 52, 64
1, 62338, Note_off_c, 0, 64, 64
1, 62348, Note_off_c, 0, 58, 64
1, 62348, Note_off_c, 0, 54, 64
1, 62392, Note_off_c, 0, 76, 64
1, 62406, Note_off_c, 0, 49, 64
1, 62430, Note_off_c, 0, 70, 64
1, 62538, Note_on_c, 0, 78, 98
1, 62550, Note_on_c, 0, 66, 73
1, 62554, Note_on_c, 0, 58, 50
1, 62554, Note_on_c, 0, 48, 63
1, 62556, Note_on_c, 0, 70, 59
1, 62558, Note_on_c, 0, 54, 55
1, 62558, Note_on_c, 0, 52, 64
1, 62570, Control_c, 0, 64, 0
1, 62740, Note_off_c, 0, 58, 64
1, 62764, Note_off_c, 0, 52, 64
1, 62778, Note_off_c, 0, 66, 64
1, 62780, Note_off_c, 0, 70, 64
1, 62782, Note_off_c, 0, 54, 64
1, 62790, Note_off_c, 0, 48, 64
1, 62800, Control_c, 0, 64, 127
1, 62834, Note_off_c, 0, 78, 64
1, 62924, Note_on_c, 0, 80, 100
1, 62936, Note_on_c, 0, 70, 68
1, 62940, Note_on_c, 0, 68, 78
1, 62940, Note_on_c, 0, 58, 46
1, 62946, Note_on_c, 0, 48, 58
1, 62958, Note_on_c, 0, 52, 54
1, 62958, Note_on_c, 0, 54, 47
1, 63028, Note_off_c, 0, 52, 64
1, 63046, Note_off_c, 0, 54, 64
1, 63050, Note_off_c, 0, 58, 64
1, 63094, Note_off_c, 0, 70, 64
1, 63108, Note_off_c, 0, 80, 64
1, 63142, Note_off_c, 0, 48, 64
1, 63168, Note_off_c, 0, 68, 64
1, 63310, Note_on_c, 0, 76, 98
1, 63316, Note_on_c, 0, 58, 50
1, 63320, Note_on_c, 0, 64, 87
1, 63328, Note_on_c, 0, 48, 57
1, 63331, Note_on_c, 0, 70, 43
1, 63338, Note_on_c, 0, 52, 50
1, 63344, Note_on_c, 0, 54, 42
1, 63414, Control_c, 0, 64, 0
1, 63548, Note_off_c, 0, 52, 64
1, 63554, Note_off_c, 0, 48, 64
1, 63556, Note_off_c, 0, 58, 64
1, 63560, Note_off_c, 0, 64, 64
1, 63562, Note_off_c, 0, 76, 64
1, 63568, Note_off_c, 0, 54, 64
1, 63584, Control_c, 0, 64, 127
1, 63626, Note_off_c, 0, 70, 64
1, 63736, Note_on_c, 0, 78, 100
1, 63752, Note_on_c, 0, 58, 52
1, 63755, Note_on_c, 0, 66, 66
1, 63755, Note_on_c, 0, 48, 62
1, 63760, Note_on_c, 0, 54, 43
1, 63766, Note_on_c, 0, 52, 48
1, 63774, Note_on_c, 0, 70, 44
1, 63824, Note_off_c, 0, 52, 64
1, 63840, Note_off_c, 0, 54, 64
1, 63866, Note_off_c, 0, 58, 64
1, 63880, Note_off_c, 0, 70, 64
1, 63896, Note_off_c, 0, 48, 64
1, 63904, Note_off_c, 0, 66, 64
1, 64054, Note_off_c, 0, 78, 64
1, 64338, Note_on_c, 0, 59, 67
1, 64340, Note_on_c, 0, 80, 96
1, 64346, Note_on_c, 0, 76, 55
1, 64348, Note_on_c, 0, 68, 70
1, 64348, Note_on_c, 0, 56, 50
1, 64354, Note_on_c, 0, 47, 54
1, 64362, Note_on_c, 0, 52, 61
1, 64368, Control_c, 0, 64, 0
1, 64844, Control_c, 0, 64, 127
1, 64886, Note_off_c, 0, 68, 64
1, 64932, Note_on_c, 0, 71, 54
1, 65380, Note_off_c, 0, 71, 64
1, 65406, Note_on_c, 0, 68, 36
1, 65688, Note_off_c, 0, 68, 64
1, 65846, Note_on_c, 0, 71, 41
1, 66094, Note_off_c, 0, 71, 64
1, 66292, Note_on_c, 0, 68, 34
1, 66348, Note_off_c, 0, 80, 64
1, 66872, Note_on_c, 0, 78, 70
1, 66886, Note_off_c, 0, 68, 64
1, 66902, Note_off_c, 0, 76, 64
1, 66932, Note_on_c, 0, 71, 20
1, 67328, Note_on_c, 0, 76, 72
1, 67344, Note_on_c, 0, 68, 30
1, 67364, Note_off_c, 0, 71, 64
1, 67444, Note_off_c, 0, 78, 64
1, 67596, Note_off_c, 0, 68, 64
1, 67722, Note_on_c, 0, 73, 73
1, 67756, Note_on_c, 0, 71, 47
1, 67759, Note_off_c, 0, 76, 64
1, 67838, Note_off_c, 0, 71, 64
1, 67894, Note_off_c, 0, 56, 64
1, 68130, Note_off_c, 0, 59, 64
1, 68154, Note_off_c, 0, 52, 64
1, 68196, Note_on_c, 0, 75, 64
1, 68232, Note_on_c, 0, 54, 34
1, 68240, Control_c, 0, 64, 0
1, 68242, Note_on_c, 0, 63, 24
1, 68364, Note_off_c, 0, 73, 64
1, 68596, Note_off_c, 0, 47, 64
1, 68608, Control_c, 0, 64, 127
1, 68654, Note_off_c, 0, 63, 64
1, 68754, Note_on_c, 0, 59, 23
1, 68756, Note_on_c, 0, 66, 23
1, 68940, Note_off_c, 0, 59, 64
1, 69148, Note_off_c, 0, 66, 64
1, 69210, Note_on_c, 0, 63, 20
1, 69238, Note_off_c, 0, 54, 64
1, 69260, Note_on_c, 0, 47, 15
1, 69452, Note_off_c, 0, 63, 64
1, 69642, Note_on_c, 0, 66, 17
1, 69674, Note_on_c, 0, 59, 18
1, 69762, Note_off_c, 0, 59, 64
1, 69810, Note_off_c, 0, 66, 64
1, 69818, Note_off_c, 0, 75, 64
1, 69872, Note_off_c, 0, 47, 64
1, 70228, Note_on_c, 0, 76, 41
1, 70252, Note_on_c, 0, 49, 28
1, 70258, Note_on_c, 0, 64, 31
1, 70314, Control_c, 0, 64, 0
1, 70590, Control_c, 0, 64, 127
1, 70702, Note_off_c, 0, 64, 64
1, 70724, Note_on_c, 0, 75, 55
1, 70732, Note_on_c, 0, 68, 26
1, 70764, Note_on_c, 0, 56, 20
1, 70792, Note_off_c, 0, 76, 64
1, 70976, Note_off_c, 0, 75, 64
1, 70990, Note_off_c, 0, 56, 64
1, 71010, Note_off_c, 0, 68, 64
1, 71144, Note_on_c, 0, 73, 56
1, 71182, Note_on_c, 0, 44, 27
1, 71204, Note_on_c, 0, 64, 31
1, 71470, Note_off_c, 0, 64, 64
1, 71566, Note_on_c, 0, 68, 62
1, 71574, Note_off_c, 0, 73, 64
1, 71624, Note_on_c, 0, 56, 23
1, 71760, Note_off_c, 0, 49, 64
1, 71930, Note_off_c, 0, 56, 64
1, 72040, Note_on_c, 0, 71, 62
1, 72050, Control_c, 0, 64, 0
1, 72060, Note_on_c, 0, 59, 31
1, 72076, Note_off_c, 0, 68, 64
1, 72090, Note_on_c, 0, 51, 25
1, 72464, Control_c, 0, 64, 127
1, 72532, Note_off_c, 0, 59, 64
1, 72544, Note_on_c, 0, 63, 26
1, 72556, Note_off_c, 0, 44, 64
1, 72578, Note_on_c, 0, 56, 15
1, 72754, Note_off_c, 0, 63, 64
1, 72808, Note_off_c, 0, 56, 64
1, 72986, Note_on_c, 0, 59, 23
1, 72992, Note_on_c, 0, 44, 23
1, 73078, Note_off_c, 0, 51, 64
1, 73258, Note_off_c, 0, 59, 64
1, 73426, Note_on_c, 0, 63, 31
1, 73464, Note_on_c, 0, 56, 9
1, 73478, Note_off_c, 0, 71, 64
1, 73550, Note_off_c, 0, 56, 64
1, 73584, Note_off_c, 0, 63, 64
1, 73590, Note_off_c, 0, 44, 64
1, 74088, Note_on_c, 0, 73, 36
1, 74118, Note_on_c, 0, 61, 14
1, 74140, Note_on_c, 0, 45, 18
1, 74154, Control_c, 0, 64, 0
1, 74462, Control_c, 0, 64, 127
1, 74526, Note_off_c, 0, 73, 64
1, 74640, Note_off_c, 0, 61, 64
1, 74756, Note_on_c, 0, 71, 32
1, 74796, Note_on_c, 0, 52, 15
1, 74816, Note_on_c, 0, 64, 10
1, 74918, Note_off_c, 0, 64, 64
1, 74960, Note_off_c, 0, 52, 64
1, 75258, Note_on_c, 0, 61, 17
1, 75260, Note_on_c, 0, 69, 27
1, 75306, Note_on_c, 0, 40, 29
1, 75320, Note_off_c, 0, 71, 64
1, 75540, Note_off_c, 0, 69, 64
1, 75664, Note_off_c, 0, 61, 64
1, 75728, Note_on_c, 0, 64, 40
1, 75752, Note_on_c, 0, 52, 24
1, 75920, Note_off_c, 0, 64, 64
1, 76010, Note_off_c, 0, 52, 64
1, 76130, Note_off_c, 0, 45, 64
1, 76386, Note_on_c, 0, 68, 43
1, 76396, Note_on_c, 0, 56, 25
1, 76422, Note_on_c, 0, 47, 23
1, 76430, Control_c, 0, 64, 0
1, 77010, Note_off_c, 0, 56, 64
1, 77040, Note_on_c, 0, 59, 25
1, 77046, Note_on_c, 0, 52, 24
1, 77058, Control_c, 0, 64, 127
1, 77110, Note_off_c, 0, 40, 64
1, 77196, Note_off_c, 0, 52, 64
1, 77258, Note_off_c, 0, 59, 64
1, 77508, Note_off_c, 0, 47, 64
1, 77514, Note_on_c, 0, 56, 17
1, 77522, Note_on_c, 0, 40, 32
1, 77718, Note_off_c, 0, 56, 64
1, 77870, Note_off_c, 0, 40, 64
1, 77954, Note_on_c, 0, 59, 23
1, 77960, Note_on_c, 0, 52, 21
1, 78064, Note_off_c, 0, 59, 64
1, 78066, Note_off_c, 0, 52, 64
1, 78342, Note_on_c, 0, 56, 18
1, 78374, Note_on_c, 0, 47, 10
1, 78542, Note_off_c, 0, 47, 64
1, 78580, Note_off_c, 0, 56, 64
1, 78808, Note_on_c, 0, 59, 10
1, 78808, Note_on_c, 0, 52, 9
1, 78910, Note_off_c, 0, 59, 64
1, 78980, Note_off_c, 0, 52, 64
1, 79204, Note_on_c, 0, 56, 7
1, 79244, Note_on_c, 0, 40, 20
1, 79434, Note_off_c, 0, 56, 64
1, 79444, Note_off_c, 0, 40, 64
1, 79746, Note_on_c, 0, 59, 17
1, 79778, Note_on_c, 0, 47, 12
1, 79958, Note_off_c, 0, 59, 64
1, 79968, Note_off_c, 0, 47, 64
1, 80136, Note_on_c, 0, 47, 2
1, 80526, Note_on_c, 0, 56, 10
1, 80546, Note_on_c, 0, 52, 12
1, 80666, Note_on_c, 0, 40, 2
1, 80702, Note_off_c, 0, 68, 64
1, 81296, Note_on_c, 0, 68, 17
1, 81654, Note_off_c, 0, 68, 64
1, 81730, Note_on_c, 0, 66, 3
1, 81952, Note_off_c, 0, 66, 64
1, 82292, Note_on_c, 0, 64, 19
1, 83296, Note_off_c, 0, 56, 64
1, 83428, Note_off_c, 0, 64, 64
1, 83862, Note_off_c, 0, 52, 64
1, 83958, Note_off_c, 0, 47, 64
1, 83966, Note_off_c, 0, 40, 64
1, 84124, Note_on_c, 0, 68, 24
1, 84124, Note_on_c, 0, 76, 34
1, 84280, Control_c, 0, 64, 0
1, 84512, Note_on_c, 0, 75, 41
1, 84517, Note_off_c, 0, 68, 64
1, 84530, Note_off_c, 0, 76, 64
1, 84532, Note_on_c, 0, 66, 20
1, 84572, Control_c, 0, 64, 127
1, 84728, Note_off_c, 0, 66, 64
1, 84812, Note_on_c, 0, 68, 34
1, 84814, Note_off_c, 0, 75, 64
1, 84818, Note_on_c, 0, 76, 34
1, 85100, Note_off_c, 0, 68, 64
1, 85116, Note_on_c, 0, 71, 53
1, 85120, Note_off_c, 0, 76, 64
1, 85130, Note_on_c, 0, 63, 28
1, 85292, Note_off_c, 0, 63, 64
1, 85382, Note_off_c, 0, 71, 64
1, 85400, Note_on_c, 0, 75, 47
1, 85402, Control_c, 0, 64, 0
1, 85426, Note_on_c, 0, 42, 24
1, 85432, Note_on_c, 0, 66, 24
1, 85568, Note_off_c, 0, 42, 64
1, 85572, Control_c, 0, 64, 127
1, 85706, Note_on_c, 0, 73, 52
1, 85711, Note_off_c, 0, 66, 64
1, 85716, Note_on_c, 0, 64, 42
1, 85726, Note_on_c, 0, 58, 22
1, 85738, Note_off_c, 0, 75, 64
1, 85804, Note_off_c, 0, 58, 64
1, 85952, Note_off_c, 0, 64, 64
1, 85976, Note_on_c, 0, 75, 62
1, 85990, Note_off_c, 0, 73, 64
1, 85996, Note_on_c, 0, 66, 30
1, 86018, Note_on_c, 0, 42, 28
1, 86032, Control_c, 0, 64, 0
1, 86170, Control_c, 0, 64, 127
1, 86178, Note_off_c, 0, 42, 64
1, 86218, Note_off_c, 0, 75, 64
1, 86244, Note_on_c, 0, 68, 57
1, 86248, Note_on_c, 0, 63, 52
1, 86284, Note_on_c, 0, 59, 33
1, 86316, Note_off_c, 0, 66, 64
1, 86338, Note_off_c, 0, 59, 64
1, 86350, Note_off_c, 0, 63, 64
1, 86484, Note_on_c, 0, 71, 71
1, 86506, Note_on_c, 0, 64, 52
1, 86509, Control_c, 0, 64, 0
1, 86520, Note_off_c, 0, 68, 64
1, 86536, Note_on_c, 0, 42, 47
1, 86644, Note_off_c, 0, 42, 64
1, 86662, Control_c, 0, 64, 127
1, 86756, Note_on_c, 0, 70, 60
1, 86782, Note_on_c, 0, 61, 55
1, 86800, Note_off_c, 0, 71, 64
1, 86858, Note_off_c, 0, 64, 64
1, 86868, Note_off_c, 0, 61, 64
1, 87010, Note_on_c, 0, 73, 58
1, 87012, Note_on_c, 0, 68, 57
1, 87048, Note_on_c, 0, 59, 33
1, 87051, Note_off_c, 0, 70, 64
1, 87128, Note_off_c, 0, 59, 64
1, 87220, Note_off_c, 0, 68, 64
1, 87234, Note_off_c, 0, 73, 64
1, 87254, Note_on_c, 0, 66, 64
1, 87280, Note_on_c, 0, 58, 31
1, 87386, Note_off_c, 0, 58, 64
1, 87434, Note_off_c, 0, 66, 64
1, 87470, Note_on_c, 0, 70, 44
1, 87502, Note_on_c, 0, 68, 53
1, 87508, Control_c, 0, 64, 0
1, 87520, Note_on_c, 0, 64, 59
1, 87536, Note_on_c, 0, 47, 25
1, 87628, Note_off_c, 0, 70, 64
1, 87738, Note_off_c, 0, 47, 64
1, 87752, Control_c, 0, 64, 127
1, 87782, Note_on_c, 0, 63, 42
1, 87794, Note_on_c, 0, 66, 47
1, 87802, Note_off_c, 0, 64, 64
1, 87804, Note_on_c, 0, 54, 37
1, 87812, Note_off_c, 0, 68, 64
1, 87936, Note_off_c, 0, 63, 64
1, 88034, Note_off_c, 0, 54, 64
1, 88076, Note_on_c, 0, 70, 42
1, 88134, Note_off_c, 0, 66, 64
1, 88136, Control_c, 0, 64, 0
1, 88139, Note_on_c, 0, 68, 36
1, 88148, Note_on_c, 0, 64, 39
1, 88158, Note_on_c, 0, 59, 31
1, 88202, Note_off_c, 0, 70, 64
1, 88534, Note_off_c, 0, 64, 64
1, 88544, Note_off_c, 0, 68, 64
1, 88558, Note_on_c, 0, 66, 33
1, 88562, Note_on_c, 0, 63, 31
1, 88634, Note_off_c, 0, 59, 64
1, 88752, Control_c, 0, 64, 127
1, 88786, Note_off_c, 0, 63, 64
1, 88824, Note_off_c, 0, 66, 64
1, 89030, Note_on_c, 0, 76, 44
1, 89042, Note_on_c, 0, 68, 28
1, 89106, Control_c, 0, 64, 0
1, 89336, Control_c, 0, 64, 127
1, 89372, Note_off_c, 0, 68, 64
1, 89382, Note_on_c, 0, 75, 59
1, 89386, Note_on_c, 0, 66, 22
1, 89422, Note_off_c, 0, 76, 64
1, 89606, Note_off_c, 0, 66, 64
1, 89664, Note_on_c, 0, 68, 46
1, 89672, Note_off_c, 0, 75, 64
1, 89676, Note_on_c, 0, 76, 61
1, 89688, Control_c, 0, 64, 0
1, 89828, Control_c, 0, 64, 127
1, 89914, Note_off_c, 0, 76, 64
1, 89938, Note_on_c, 0, 63, 49
1, 89938, Note_on_c, 0, 71, 67
1, 89990, Note_off_c, 0, 68, 64
1, 90020, Note_off_c, 0, 63, 64
1, 90178, Note_off_c, 0, 71, 64
1, 90194, Note_on_c, 0, 75, 61
1, 90194, Control_c, 0, 64, 0
1, 90216, Note_on_c, 0, 66, 31
1, 90222, Note_on_c, 0, 42, 33
1, 90358, Note_off_c, 0, 42, 64
1, 90366, Control_c, 0, 64, 127
1, 90390, Note_off_c, 0, 66, 64
1, 90462, Note_on_c, 0, 73, 64
1, 90472, Note_on_c, 0, 64, 49
1, 90480, Note_on_c, 0, 58, 27
1, 90482, Note_off_c, 0, 75, 64
1, 90554, Note_off_c, 0, 58, 64
1, 90630, Note_off_c, 0, 64, 64
1, 90718, Note_on_c, 0, 75, 69
1, 90720, Control_c, 0, 64, 0
1, 90738, Note_off_c, 0, 73, 64
1, 90741, Note_on_c, 0, 66, 38
1, 90762, Note_on_c, 0, 42, 41
1, 90844, Note_off_c, 0, 42, 64
1, 90880, Note_off_c, 0, 75, 64
1, 90888, Control_c, 0, 64, 127
1, 90970, Note_on_c, 0, 68, 63
1, 90976, Note_on_c, 0, 63, 47
1, 90992, Note_on_c, 0, 59, 36
1, 91050, Note_off_c, 0, 59, 64
1, 91056, Note_off_c, 0, 66, 64
1, 91080, Note_off_c, 0, 63, 64
1, 91194, Control_c, 0, 64, 0
1, 91212, Note_on_c, 0, 71, 64
1, 91224, Note_on_c, 0, 64, 56
1, 91230, Note_on_c, 0, 42, 44
1, 91240, Note_off_c, 0, 68, 64
1, 91294, Note_off_c, 0, 42, 64
1, 91364, Control_c, 0, 64, 127
1, 91440, Note_off_c, 0, 64, 64
1, 91450, Note_on_c, 0, 70, 53
1, 91470, Note_off_c, 0, 71, 64
1, 91484, Note_on_c, 0, 61, 45
1, 91560, Note_off_c, 0, 61, 64
1, 91694, Note_off_c, 0, 70, 64
1, 91710, Note_on_c, 0, 68, 48
1, 91713, Note_on_c, 0, 73, 42
1, 91732, Control_c, 0, 64, 0
1, 91734, Note_on_c, 0, 59, 38
1, 91874, Note_off_c, 0, 59, 64
1, 91902, Control_c, 0, 64, 127
1, 91932, Note_off_c, 0, 73, 64
1, 91986, Note_off_c, 0, 68, 64
1, 92004, Note_on_c, 0, 66, 41
1, 92014, Note_on_c, 0, 58, 27
1, 92120, Note_off_c, 0, 58, 64
1, 92138, Note_off_c, 0, 66, 64
1, 92248, Note_on_c, 0, 70, 35
1, 92270, Control_c, 0, 64, 0
1, 92288, Note_on_c, 0, 68, 34
1, 92294, Note_on_c, 0, 64, 50
1, 92298, Note_on_c, 0, 47, 23
1, 92368, Note_off_c, 0, 70, 64
1, 92516, Control_c, 0, 64, 127
1, 92526, Note_off_c, 0, 47, 64
1, 92528, Note_off_c, 0, 64, 64
1, 92588, Note_off_c, 0, 68, 64
1, 92591, Note_on_c, 0, 63, 41
1, 92591, Control_c, 0, 64, 0
1, 92591, Note_on_c, 0, 66, 34
1, 92600, Note_on_c, 0, 54, 34
1, 92778, Control_c, 0, 64, 127
1, 92780, Note_off_c, 0, 63, 64
1, 92806, Note_off_c, 0, 66, 64
1, 92822, Note_off_c, 0, 54, 64
1, 92844, Note_on_c, 0, 70, 32
1, 92906, Note_on_c, 0, 68, 31
1, 92922, Note_off_c, 0, 70, 64
1, 92936, Note_on_c, 0, 64, 25
1, 92952, Note_on_c, 0, 59, 26
1, 92962, Control_c, 0, 64, 0
1, 93342, Note_off_c, 0, 68, 64
1, 93345, Note_off_c, 0, 64, 64
1, 93380, Note_off_c, 0, 59, 64
1, 93382, Note_on_c, 0, 63, 24
1, 93386, Note_on_c, 0, 66, 24
1, 93392, Control_c, 0, 64, 127
1, 93496, Note_off_c, 0, 63, 64
1, 93558, Note_off_c, 0, 66, 64
1, 93760, Control_c, 0, 64, 0
1, 93812, Note_on_c, 0, 78, 57
1, 93826, Note_on_c, 0, 69, 29
1, 93992, Control_c, 0, 64, 127
1, 94010, Note_off_c, 0, 69, 64
1, 94042, Note_off_c, 0, 78, 64
1, 94172, Note_on_c, 0, 68, 42
1, 94175, Note_on_c, 0, 76, 53
1, 94330, Control_c, 0, 64, 0
1, 94444, Note_off_c, 0, 68, 64
1, 94448, Note_on_c, 0, 78, 61
1, 94452, Control_c, 0, 64, 127
1, 94454, Note_off_c, 0, 76, 64
1, 94468, Note_on_c, 0, 69, 40
1, 94544, Note_off_c, 0, 69, 64
1, 94704, Note_off_c, 0, 78, 64
1, 94718, Note_on_c, 0, 73, 60
1, 94736, Note_on_c, 0, 64, 44
1, 94792, Note_off_c, 0, 64, 64
1, 94954, Note_off_c, 0, 73, 64
1, 94959, Control_c, 0, 64, 0
1, 94976, Note_on_c, 0, 76, 60
1, 94986, Note_on_c, 0, 68, 46
1, 95000, Note_on_c, 0, 44, 36
1, 95062, Note_off_c, 0, 68, 64
1, 95070, Note_off_c, 0, 44, 64
1, 95128, Control_c, 0, 64, 127
1, 95220, Note_on_c, 0, 75, 68
1, 95225, Note_on_c, 0, 66, 37
1, 95246, Note_off_c, 0, 76, 64
1, 95260, Note_on_c, 0, 60, 12
1, 95312, Note_off_c, 0, 60, 64
1, 95315, Note_off_c, 0, 66, 64
1, 95448, Note_on_c, 0, 76, 74
1, 95456, Note_on_c, 0, 68, 47
1, 95458, Control_c, 0, 64, 0
1, 95466, Note_off_c, 0, 75, 64
1, 95468, Note_on_c, 0, 44, 56
1, 95534, Note_off_c, 0, 44, 64
1, 95590, Note_off_c, 0, 68, 64
1, 95606, Note_off_c, 0, 76, 64
1, 95620, Control_c, 0, 64, 127
1, 95680, Note_on_c, 0, 70, 65
1, 95686, Note_on_c, 0, 64, 47
1, 95690, Note_on_c, 0, 61, 46
1, 95746, Note_off_c, 0, 64, 64
1, 95749, Note_off_c, 0, 61, 64
1, 95896, Control_c, 0, 64, 0
1, 95924, Note_on_c, 0, 73, 64
1, 95934, Note_on_c, 0, 66, 52
1, 95956, Note_off_c, 0, 70, 64
1, 95958, Note_on_c, 0, 44, 61
1, 96052, Note_off_c, 0, 44, 64
1, 96096, Control_c, 0, 64, 127
1, 96164, Note_on_c, 0, 72, 67
1, 96184, Note_off_c, 0, 73, 64
1, 96208, Note_on_c, 0, 63, 50
1, 96246, Note_off_c, 0, 66, 64
1, 96322, Note_off_c, 0, 63, 64
1, 96408, Note_on_c, 0, 75, 68
1, 96422, Note_off_c, 0, 72, 64
1, 96422, Note_on_c, 0, 69, 51
1, 96444, Note_on_c, 0, 61, 44
1, 96506, Note_off_c, 0, 69, 64
1, 96514, Note_off_c, 0, 61, 64
1, 96634, Note_off_c, 0, 75, 64
1, 96640, Note_on_c, 0, 68, 68
1, 96664, Note_on_c, 0, 60, 49
1, 96742, Note_off_c, 0, 60, 64
1, 96748, Note_off_c, 0, 68, 64
1, 96830, Note_on_c, 0, 71, 69
1, 96850, Control_c, 0, 64, 0
1, 96872, Note_on_c, 0, 66, 52
1, 96878, Note_on_c, 0, 69, 57
1, 96886, Note_on_c, 0, 49, 39
1, 96968, Note_off_c, 0, 71, 64
1, 97030, Note_off_c, 0, 49, 64
1, 97080, Control_c, 0, 64, 127
1, 97143, Note_on_c, 0, 68, 62
1, 97150, Note_on_c, 0, 64, 62
1, 97156, Note_on_c, 0, 56, 32
1, 97162, Note_off_c, 0, 69, 64
1, 97192, Note_off_c, 0, 66, 64
1, 97262, Note_off_c, 0, 64, 64
1, 97278, Note_off_c, 0, 68, 64
1, 97278, Note_off_c, 0, 56, 64
1, 97412, Note_on_c, 0, 71, 64
1, 97476, Note_on_c, 0, 61, 24
1, 97479, Note_on_c, 0, 66, 37
1, 97488, Note_off_c, 0, 71, 64
1, 97488, Note_on_c, 0, 69, 44
1, 97510, Control_c, 0, 64, 0
1, 97786, Control_c, 0, 64, 127
1, 97804, Note_off_c, 0, 69, 64
1, 97816, Note_on_c, 0, 68, 47
1, 97820, Note_off_c, 0, 61, 64
1, 97822, Note_on_c, 0, 64, 38
1, 97824, Note_off_c, 0, 66, 64
1, 97882, Note_off_c, 0, 64, 64
1, 97946, Note_off_c, 0, 68, 64
1, 98094, Control_c, 0, 64, 0
1, 98106, Note_on_c, 0, 78, 72
1, 98128, Note_on_c, 0, 69, 38
1, 98248, Control_c, 0, 64, 127
1, 98260, Note_off_c, 0, 69, 64
1, 98324, Note_off_c, 0, 78, 64
1, 98400, Note_on_c, 0, 68, 58
1, 98408, Note_on_c, 0, 76, 62
1, 98456, Note_off_c, 0, 68, 64
1, 98644, Note_on_c, 0, 78, 72
1, 98658, Note_on_c, 0, 69, 48
1, 98668, Note_off_c, 0, 76, 64
1, 98728, Note_off_c, 0, 69, 64
1, 98764, Note_off_c, 0, 78, 64
1, 98878, Note_on_c, 0, 73, 71
1, 98890, Note_on_c, 0, 64, 67
1, 98938, Note_off_c, 0, 64, 64
1, 99062, Note_off_c, 0, 73, 64
1, 99108, Control_c, 0, 64, 0
1, 99122, Note_on_c, 0, 68, 52
1, 99125, Note_on_c, 0, 76, 68
1, 99125, Note_on_c, 0, 44, 50
1, 99192, Note_off_c, 0, 68, 64
1, 99194, Note_off_c, 0, 44, 64
1, 99292, Control_c, 0, 64, 127
1, 99348, Note_on_c, 0, 75, 69
1, 99358, Note_on_c, 0, 66, 44
1, 99368, Note_on_c, 0, 60, 39
1, 99374, Note_off_c, 0, 76, 64
1, 99426, Note_off_c, 0, 60, 64
1, 99432, Note_off_c, 0, 66, 64
1, 99576, Note_on_c, 0, 76, 71
1, 99580, Note_on_c, 0, 68, 50
1, 99594, Note_off_c, 0, 75, 64
1, 99598, Note_on_c, 0, 44, 54
1, 99650, Note_off_c, 0, 44, 64
1, 99724, Note_off_c, 0, 76, 64
1, 99798, Note_off_c, 0, 68, 64
1, 99800, Note_on_c, 0, 70, 69
1, 99806, Note_on_c, 0, 61, 54
1, 99814, Note_on_c, 0, 64, 51
1, 99860, Note_off_c, 0, 61, 64
1, 99866, Note_off_c, 0, 64, 64
1, 100014, Control_c, 0, 64, 0
1, 100044, Note_on_c, 0, 73, 64
1, 100052, Note_on_c, 0, 66, 55
1, 100056, Note_on_c, 0, 44, 68
1, 100090, Note_off_c, 0, 70, 64
1, 100132, Note_off_c, 0, 44, 64
1, 100214, Control_c, 0, 64, 127
1, 100294, Note_on_c, 0, 72, 73
1, 100304, Note_on_c, 0, 63, 62
1, 100314, Note_off_c, 0, 73, 64
1, 100342, Note_off_c, 0, 66, 64
1, 100378, Note_off_c, 0, 63, 64
1, 100504, Note_off_c, 0, 72, 64
1, 100528, Note_on_c, 0, 75, 67
1, 100544, Note_on_c, 0, 69, 50
1, 100558, Note_on_c, 0, 61, 54
1, 100612, Note_off_c, 0, 61, 64
1, 100620, Note_off_c, 0, 69, 64
1, 100698, Note_off_c, 0, 75, 64
1, 100754, Note_on_c, 0, 68, 65
1, 100772, Note_on_c, 0, 60, 61
1, 100824, Note_off_c, 0, 60, 64
1, 100868, Note_off_c, 0, 68, 64
1, 100948, Note_on_c, 0, 71, 66
1, 100996, Note_on_c, 0, 69, 62
1, 100996, Control_c, 0, 64, 0
1, 101004, Note_on_c, 0, 66, 46
1, 101012, Note_on_c, 0, 49, 54
1, 101086, Note_off_c, 0, 71, 64
1, 101102, Note_off_c, 0, 49, 64
1, 101229, Control_c, 0, 64, 127
1, 101282, Note_on_c, 0, 68, 62
1, 101284, Note_on_c, 0, 64, 59
1, 101302, Note_off_c, 0, 69, 64
1, 101302, Note_on_c, 0, 56, 43
1, 101326, Note_off_c, 0, 66, 64
1, 101360, Note_off_c, 0, 56, 64
1, 101520, Note_off_c, 0, 64, 64
1, 101524, Note_on_c, 0, 71, 66
1, 101536, Note_off_c, 0, 68, 64
1, 101548, Note_on_c, 0, 69, 63
1, 101551, Note_on_c, 0, 66, 44
1, 101556, Note_on_c, 0, 61, 54
1, 101674, Note_off_c, 0, 71, 64
1, 101702, Note_off_c, 0, 61, 64
1, 101734, Note_off_c, 0, 66, 64
1, 101770, Note_on_c, 0, 68, 70
1, 101778, Note_on_c, 0, 64, 66
1, 101784, Note_on_c, 0, 49, 64
1, 101788, Note_off_c, 0, 69, 64
1, 101872, Note_off_c, 0, 49, 64
1, 101920, Note_off_c, 0, 68, 64
1, 101920, Note_off_c, 0, 64, 64
1, 101934, Control_c, 0, 64, 0
1, 101962, Note_on_c, 0, 71, 78
1, 101984, Note_on_c, 0, 69, 82
1, 102000, Note_on_c, 0, 66, 51
1, 102014, Note_on_c, 0, 47, 63
1, 102098, Note_off_c, 0, 71, 64
1, 102126, Note_off_c, 0, 47, 64
1, 102150, Control_c, 0, 64, 127
1, 102220, Note_off_c, 0, 66, 64
1, 102228, Note_on_c, 0, 68, 78
1, 102232, Note_on_c, 0, 64, 75
1, 102264, Note_on_c, 0, 62, 51
1, 102270, Note_off_c, 0, 69, 64
1, 102314, Note_off_c, 0, 62, 64
1, 102444, Note_off_c, 0, 68, 64
1, 102482, Note_on_c, 0, 69, 73
1, 102482, Note_on_c, 0, 66, 64
1, 102502, Note_on_c, 0, 52, 71
1, 102512, Note_off_c, 0, 64, 64
1, 102548, Note_off_c, 0, 52, 64
1, 102574, Note_off_c, 0, 66, 64
1, 102600, Note_off_c, 0, 69, 64
1, 102756, Note_on_c, 0, 68, 67
1, 102756, Note_on_c, 0, 71, 89
1, 102778, Note_on_c, 0, 47, 43
1, 102832, Note_off_c, 0, 47, 64
1, 102882, Note_off_c, 0, 71, 64
1, 102906, Note_off_c, 0, 68, 64
1, 103138, Note_on_c, 0, 69, 64
1, 103138, Note_on_c, 0, 73, 78
1, 103148, Control_c, 0, 64, 0
1, 103150, Note_on_c, 0, 45, 54
1, 103440, Control_c, 0, 64, 127
1, 103448, Note_on_c, 0, 61, 62
1, 103451, Note_on_c, 0, 64, 65
1, 103462, Note_off_c, 0, 45, 64
1, 103464, Note_on_c, 0, 52, 65
1, 103508, Note_off_c, 0, 52, 64
1, 103554, Note_off_c, 0, 73, 64
1, 103582, Note_off_c, 0, 64, 64
1, 103588, Note_off_c, 0, 61, 64
1, 103650, Note_off_c, 0, 69, 64
1, 103712, Note_on_c, 0, 66, 62
1, 103716, Note_on_c, 0, 62, 75
1, 103736, Note_on_c, 0, 52, 67
1, 103788, Note_off_c, 0, 52, 64
1, 103958, Note_on_c, 0, 73, 68
1, 103958, Note_on_c, 0, 69, 60
1, 103964, Note_on_c, 0, 40, 84
1, 104006, Note_off_c, 0, 40, 64
1, 104030, Note_off_c, 0, 66, 64
1, 104082, Note_off_c, 0, 73, 64
1, 104128, Note_off_c, 0, 69, 64
1, 104136, Note_off_c, 0, 62, 64
1, 104204, Note_on_c, 0, 71, 84
1, 104208, Note_on_c, 0, 68, 58
1, 104232, Note_on_c, 0, 47, 56
1, 104316, Control_c, 0, 64, 0
1, 104440, Note_on_c, 0, 66, 59
1, 104446, Note_on_c, 0, 62, 58
1, 104446, Note_on_c, 0, 52, 69
1, 104510, Note_off_c, 0, 52, 64
1, 104528, Note_off_c, 0, 68, 64
1, 104532, Control_c, 0, 64, 127
1, 104534, Note_off_c, 0, 47, 64
1, 104570, Note_off_c, 0, 62, 64
1, 104578, Note_off_c, 0, 66, 64
1, 104674, Note_off_c, 0, 71, 64
1, 104692, Note_on_c, 0, 64, 70
1, 104696, Note_on_c, 0, 62, 44
1, 104794, Note_off_c, 0, 64, 64
1, 104866, Note_off_c, 0, 62, 64
1, 104950, Note_on_c, 0, 71, 70
1, 104960, Note_on_c, 0, 68, 41
1, 104962, Note_on_c, 0, 40, 67
1, 105018, Note_off_c, 0, 40, 64
1, 105082, Note_off_c, 0, 71, 64
1, 105112, Note_off_c, 0, 68, 64
1, 105302, Note_on_c, 0, 69, 37
1, 105305, Note_on_c, 0, 72, 44
1, 105305, Note_on_c, 0, 45, 39
1, 105346, Control_c, 0, 64, 0
1, 105670, Note_on_c, 0, 64, 47
1, 105674, Note_on_c, 0, 60, 32
1, 105676, Note_on_c, 0, 52, 43
1, 105730, Control_c, 0, 64, 127
1, 105752, Note_off_c, 0, 45, 64
1, 105756, Note_off_c, 0, 52, 64
1, 105784, Note_off_c, 0, 60, 64
1, 105786, Note_off_c, 0, 64, 64
1, 105868, Note_off_c, 0, 69, 64
1, 105892, Note_off_c, 0, 72, 64
1, 106002, Note_on_c, 0, 62, 43
1, 106006, Note_on_c, 0, 65, 37
1, 106006, Note_on_c, 0, 52, 41
1, 106072, Note_off_c, 0, 52, 64
1, 106184, Note_off_c, 0, 65, 64
1, 106280, Note_on_c, 0, 72, 41
1, 106284, Note_on_c, 0, 69, 41
1, 106289, Note_on_c, 0, 40, 48
1, 106342, Note_off_c, 0, 40, 64
1, 106344, Note_off_c, 0, 72, 64
1, 106384, Note_off_c, 0, 69, 64
1, 106410, Note_off_c, 0, 62, 64
1, 106522, Note_on_c, 0, 71, 55
1, 106525, Note_on_c, 0, 68, 39
1, 106534, Note_on_c, 0, 47, 33
1, 106728, Control_c, 0, 64, 0
1, 106780, Note_on_c, 0, 65, 48
1, 106780, Note_on_c, 0, 62, 46
1, 106790, Note_on_c, 0, 52, 41
1, 106850, Note_off_c, 0, 52, 64
1, 106858, Note_off_c, 0, 65, 64
1, 106870, Note_off_c, 0, 62, 64
1, 106898, Control_c, 0, 64, 127
1, 106926, Note_off_c, 0, 47, 64
1, 106967, Note_off_c, 0, 68, 64
1, 106972, Note_off_c, 0, 71, 64
1, 107028, Note_on_c, 0, 64, 44
1, 107032, Note_on_c, 0, 52, 60
1, 107036, Note_on_c, 0, 62, 50
1, 107090, Note_off_c, 0, 64, 64
1, 107090, Note_off_c, 0, 52, 64
1, 107126, Note_off_c, 0, 62, 64
1, 107264, Note_on_c, 0, 71, 85
1, 107270, Note_on_c, 0, 68, 62
1, 107274, Note_on_c, 0, 40, 71
1, 107314, Note_off_c, 0, 68, 64
1, 107314, Note_off_c, 0, 40, 64
1, 107317, Note_off_c, 0, 71, 64
1, 107604, Control_c, 0, 64, 0
1, 107628, Note_on_c, 0, 73, 84
1, 107630, Note_on_c, 0, 55, 72
1, 107630, Note_on_c, 0, 61, 68
1, 107633, Note_on_c, 0, 64, 66
1, 107634, Note_on_c, 0, 71, 74
1, 107634, Note_on_c, 0, 43, 63
1, 107812, Note_off_c, 0, 55, 64
1, 107814, Note_off_c, 0, 71, 64
1, 107816, Note_off_c, 0, 61, 64
1, 107818, Note_off_c, 0, 43, 64
1, 107822, Note_off_c, 0, 64, 64
1, 107836, Control_c, 0, 64, 127
1, 107852, Note_off_c, 0, 73, 64
1, 107950, Note_on_c, 0, 76, 73
1, 107962, Note_on_c, 0, 73, 35
1, 107962, Note_on_c, 0, 59, 50
1, 107966, Note_on_c, 0, 55, 38
1, 108030, Note_off_c, 0, 59, 64
1, 108050, Note_off_c, 0, 55, 64
1, 108122, Note_off_c, 0, 73, 64
1, 108164, Note_off_c, 0, 76, 64
1, 108235, Note_on_c, 0, 71, 63
1, 108236, Note_on_c, 0, 67, 58
1, 108238, Note_on_c, 0, 61, 49
1, 108242, Note_on_c, 0, 64, 38
1, 108292, Note_off_c, 0, 67, 64
1, 108294, Note_off_c, 0, 61, 64
1, 108296, Note_off_c, 0, 64, 64
1, 108298, Note_off_c, 0, 71, 64
1, 108486, Note_on_c, 0, 73, 66
1, 108486, Note_on_c, 0, 67, 62
1, 108486, Note_on_c, 0, 71, 78
1, 108488, Note_on_c, 0, 64, 26
1, 108556, Note_off_c, 0, 64, 64
1, 108606, Note_off_c, 0, 67, 64
1, 108658, Note_off_c, 0, 71, 64
1, 108668, Note_off_c, 0, 73, 64
1, 108734, Note_on_c, 0, 61, 55
1, 108736, Note_on_c, 0, 79, 91
1, 108740, Note_on_c, 0, 76, 67
1, 108784, Note_off_c, 0, 76, 64
1, 108787, Note_off_c, 0, 61, 64
1, 108844, Note_off_c, 0, 79, 64
1, 108998, Note_on_c, 0, 83, 100
1, 109004, Note_on_c, 0, 79, 63
1, 109006, Note_on_c, 0, 61, 48
1, 109014, Note_on_c, 0, 64, 29
1, 109084, Note_off_c, 0, 64, 64
1, 109107, Note_off_c, 0, 83, 64
1, 109140, Note_off_c, 0, 61, 64
1, 109156, Note_off_c, 0, 79, 64
1, 109226, Note_on_c, 0, 76, 63
1, 109228, Note_on_c, 0, 73, 68
1, 109233, Note_on_c, 0, 67, 29
1, 109234, Note_on_c, 0, 71, 51
1, 109286, Note_off_c, 0, 71, 64
1, 109288, Note_off_c, 0, 73, 64
1, 109294, Note_off_c, 0, 76, 64
1, 109307, Note_off_c, 0, 67, 64
1, 109456, Note_on_c, 0, 73, 75
1, 109458, Note_on_c, 0, 71, 33
1, 109460, Note_on_c, 0, 79, 91
1, 109460, Note_on_c, 0, 76, 71
1, 109536, Note_off_c, 0, 71, 64
1, 109562, Note_off_c, 0, 73, 64
1, 109612, Note_off_c, 0, 76, 64
1, 109640, Note_off_c, 0, 79, 64
1, 109684, Note_on_c, 0, 67, 54
1, 109688, Note_on_c, 0, 85, 88
1, 109688, Note_on_c, 0, 83, 102
1, 109688, Note_on_c, 0, 64, 57
1, 109728, Note_off_c, 0, 83, 64
1, 109732, Note_off_c, 0, 64, 64
1, 109735, Note_off_c, 0, 67, 64
1, 109814, Note_off_c, 0, 85, 64
1, 109910, Note_on_c, 0, 67, 66
1, 109914, Note_on_c, 0, 88, 98
1, 109914, Note_on_c, 0, 71, 63
1, 109920, Note_on_c, 0, 85, 78
1, 109974, Note_off_c, 0, 71, 64
1, 110068, Note_off_c, 0, 67, 64
1, 110144, Note_off_c, 0, 88, 64
1, 110146, Note_on_c, 0, 83, 109
1, 110148, Note_on_c, 0, 79, 90
1, 110154, Note_on_c, 0, 73, 55
1, 110154, Note_on_c, 0, 76, 39
1, 110184, Note_off_c, 0, 85, 64
1, 110192, Note_off_c, 0, 79, 64
1, 110199, Note_off_c, 0, 73, 64
1, 110208, Note_off_c, 0, 76, 64
1, 110234, Note_off_c, 0, 83, 64
1, 110372, Note_on_c, 0, 85, 93
1, 110378, Note_on_c, 0, 83, 104
1, 110384, Note_on_c, 0, 79, 77
1, 110384, Note_on_c, 0, 76, 18
1, 110462, Note_off_c, 0, 79, 64
1, 110474, Note_off_c, 0, 76, 64
1, 110568, Note_off_c, 0, 83, 64
1, 110580, Note_off_c, 0, 85, 64
1, 110645, Note_on_c, 0, 73, 57
1, 110646, Note_on_c, 0, 91, 88
1, 110646, Note_on_c, 0, 88, 74
1, 110649, Note_on_c, 0, 71, 39
1, 110682, Note_off_c, 0, 88, 64
1, 110685, Note_off_c, 0, 73, 64
1, 110719, Note_off_c, 0, 71, 64
1, 110748, Note_off_c, 0, 91, 64
1, 111070, Note_on_c, 0, 79, 91
1, 111078, Note_on_c, 0, 70, 54
1, 111084, Note_on_c, 0, 64, 34
1, 111084, Note_on_c, 0, 61, 28
1, 111086, Note_on_c, 0, 54, 24
1, 111124, Control_c, 0, 64, 0
1, 111250, Note_off_c, 0, 54, 64
1, 111263, Note_off_c, 0, 61, 64
1, 111278, Note_off_c, 0, 64, 64
1, 111304, Note_off_c, 0, 70, 64
1, 111308, Control_c, 0, 64, 127
1, 111311, Note_off_c, 0, 79, 64
1, 111418, Note_on_c, 0, 78, 86
1, 111438, Note_on_c, 0, 54, 50
1, 111440, Note_on_c, 0, 64, 33
1, 111441, Note_on_c, 0, 70, 50
1, 111444, Note_on_c, 0, 61, 33
1, 111498, Note_off_c, 0, 54, 64
1, 111501, Note_off_c, 0, 70, 64
1, 111504, Note_off_c, 0, 64, 64
1, 111512, Note_off_c, 0, 61, 64
1, 111596, Note_off_c, 0, 78, 64
1, 111698, Note_on_c, 0, 76, 81
1, 111702, Note_on_c, 0, 70, 59
1, 111702, Note_on_c, 0, 64, 54
1, 111705, Note_on_c, 0, 54, 52
1, 111705, Note_on_c, 0, 61, 55
1, 111748, Note_off_c, 0, 64, 64
1, 111756, Note_off_c, 0, 54, 64
1, 111765, Note_off_c, 0, 61, 64
1, 111798, Note_off_c, 0, 76, 64
1, 111852, Note_off_c, 0, 70, 64
1, 112084, Note_on_c, 0, 75, 79
1, 112092, Note_on_c, 0, 71, 80
1, 112094, Note_on_c, 0, 59, 65
1, 112244, Control_c, 0, 64, 0
1, 112418, Note_on_c, 0, 66, 50
1, 112422, Note_on_c, 0, 63, 55
1, 112426, Note_on_c, 0, 54, 52
1, 112472, Note_off_c, 0, 59, 64
1, 112476, Control_c, 0, 64, 127
1, 112502, Note_off_c, 0, 54, 64
1, 112584, Note_off_c, 0, 66, 64
1, 112594, Note_off_c, 0, 63, 64
1, 112600, Note_off_c, 0, 75, 64
1, 112662, Note_off_c, 0, 71, 64
1, 112684, Note_on_c, 0, 68, 65
1, 112698, Note_on_c, 0, 54, 62
1, 112704, Note_on_c, 0, 64, 67
1, 112830, Note_off_c, 0, 54, 64
1, 112930, Note_on_c, 0, 75, 75
1, 112930, Note_on_c, 0, 42, 60
1, 112930, Note_on_c, 0, 71, 77
1, 112978, Note_off_c, 0, 42, 64
1, 113036, Note_off_c, 0, 75, 64
1, 113042, Note_off_c, 0, 68, 64
1, 113062, Note_off_c, 0, 71, 64
1, 113166, Note_on_c, 0, 73, 81
1, 113170, Note_on_c, 0, 70, 70
1, 113188, Note_on_c, 0, 49, 70
1, 113238, Note_off_c, 0, 64, 64
1, 113382, Control_c, 0, 64, 0
1, 113398, Note_on_c, 0, 54, 59
1, 113408, Note_on_c, 0, 68, 66
1, 113408, Note_on_c, 0, 64, 72
1, 113516, Note_off_c, 0, 54, 64
1, 113522, Note_off_c, 0, 64, 64
1, 113574, Note_off_c, 0, 68, 64
1, 113594, Control_c, 0, 64, 127
1, 113660, Note_on_c, 0, 54, 60
1, 113662, Note_off_c, 0, 49, 64
1, 113664, Note_on_c, 0, 64, 67
1, 113666, Note_on_c, 0, 66, 62
1, 113676, Note_off_c, 0, 70, 64
1, 113698, Note_off_c, 0, 73, 64
1, 113740, Note_off_c, 0, 54, 64
1, 113860, Note_off_c, 0, 66, 64
1, 113906, Note_on_c, 0, 70, 49
1, 113908, Note_on_c, 0, 73, 70
1, 113910, Note_on_c, 0, 42, 48
1, 113958, Note_off_c, 0, 42, 64
1, 114004, Note_off_c, 0, 70, 64
1, 114098, Note_off_c, 0, 73, 64
1, 114124, Note_off_c, 0, 64, 64
1, 114226, Control_c, 0, 64, 0
1, 114230, Note_on_c, 0, 74, 59
1, 114231, Note_on_c, 0, 71, 56
1, 114236, Note_on_c, 0, 47, 42
1, 114534, Control_c, 0, 64, 127
1, 114596, Note_on_c, 0, 54, 41
1, 114598, Note_on_c, 0, 66, 33
1, 114601, Note_on_c, 0, 62, 38
1, 114704, Note_off_c, 0, 54, 64
1, 114722, Note_off_c, 0, 62, 64
1, 114790, Note_off_c, 0, 66, 64
1, 114848, Note_off_c, 0, 71, 64
1, 114871, Note_off_c, 0, 74, 64
1, 114881, Note_off_c, 0, 47, 64
1, 114920, Note_on_c, 0, 54, 40
1, 114926, Note_on_c, 0, 67, 38
1, 114928, Note_on_c, 0, 64, 35
1, 114992, Note_off_c, 0, 54, 64
1, 115048, Note_off_c, 0, 67, 64
1, 115094, Note_off_c, 0, 64, 64
1, 115198, Note_on_c, 0, 42, 26
1, 115208, Note_on_c, 0, 71, 52
1, 115210, Note_on_c, 0, 74, 46
1, 115262, Note_off_c, 0, 74, 64
1, 115284, Note_off_c, 0, 71, 64
1, 115464, Note_on_c, 0, 73, 41
1, 115466, Note_on_c, 0, 70, 44
1, 115474, Note_on_c, 0, 49, 37
1, 115506, Note_off_c, 0, 42, 64
1, 115694, Note_on_c, 0, 54, 49
1, 115697, Note_on_c, 0, 64, 47
1, 115702, Control_c, 0, 64, 0
1, 115702, Note_on_c, 0, 67, 48
1, 115770, Note_off_c, 0, 54, 64
1, 115784, Note_off_c, 0, 67, 64
1, 115796, Note_off_c, 0, 64, 64
1, 115870, Control_c, 0, 64, 127
1, 115916, Note_on_c, 0, 66, 48
1, 115926, Note_on_c, 0, 54, 61
1, 115930, Note_on_c, 0, 64, 59
1, 115968, Note_off_c, 0, 73, 64
1, 116004, Note_off_c, 0, 49, 64
1, 116024, Note_off_c, 0, 70, 64
1, 116068, Note_off_c, 0, 54, 64
1, 116100, Note_off_c, 0, 66, 64
1, 116136, Note_on_c, 0, 42, 70
1, 116137, Note_on_c, 0, 70, 62
1, 116139, Note_on_c, 0, 73, 74
1, 116174, Note_off_c, 0, 42, 64
1, 116188, Note_off_c, 0, 64, 64
1, 116230, Note_off_c, 0, 70, 64
1, 116271, Note_off_c, 0, 73, 64
1, 116408, Control_c, 0, 64, 0
1, 116422, Note_on_c, 0, 57, 75
1, 116422, Note_on_c, 0, 75, 75
1, 116422, Note_on_c, 0, 63, 68
1, 116425, Note_on_c, 0, 73, 68
1, 116426, Note_on_c, 0, 45, 71
1, 116428, Note_on_c, 0, 66, 52
1, 116538, Note_off_c, 0, 63, 64
1, 116542, Note_off_c, 0, 45, 64
1, 116562, Note_off_c, 0, 66, 64
1, 116570, Note_off_c, 0, 57, 64
1, 116608, Control_c, 0, 64, 127
1, 116626, Note_off_c, 0, 73, 64
1, 116628, Note_off_c, 0, 75, 64
1, 116714, Note_on_c, 0, 75, 49
1, 116717, Note_on_c, 0, 78, 74
1, 116726, Note_on_c, 0, 61, 60
1, 116726, Note_on_c, 0, 57, 52
1, 116794, Note_off_c, 0, 57, 64
1, 116838, Note_off_c, 0, 61, 64
1, 116920, Note_off_c, 0, 78, 64
1, 116930, Note_off_c, 0, 75, 64
1, 116962, Note_on_c, 0, 63, 32
1, 116966, Note_on_c, 0, 66, 44
1, 116966, Note_on_c, 0, 69, 46
1, 116970, Note_on_c, 0, 73, 63
1, 117022, Note_off_c, 0, 63, 64
1, 117022, Note_off_c, 0, 69, 64
1, 117026, Note_off_c, 0, 66, 64
1, 117068, Note_off_c, 0, 73, 64
1, 117198, Note_on_c, 0, 75, 67
1, 117200, Note_on_c, 0, 66, 41
1, 117201, Note_on_c, 0, 73, 58
1, 117204, Note_on_c, 0, 69, 47
1, 117276, Note_off_c, 0, 66, 64
1, 117292, Note_off_c, 0, 69, 64
1, 117340, Note_off_c, 0, 73, 64
1, 117384, Note_off_c, 0, 75, 64
1, 117428, Note_on_c, 0, 78, 74
1, 117430, Note_on_c, 0, 81, 79
1, 117434, Note_on_c, 0, 63, 66
1, 117438, Note_on_c, 0, 61, 55
1, 117482, Note_off_c, 0, 63, 64
1, 117492, Note_off_c, 0, 61, 64
1, 117542, Note_off_c, 0, 81, 64
1, 117554, Note_off_c, 0, 78, 64
1, 117654, Note_on_c, 0, 85, 90
1, 117658, Note_on_c, 0, 81, 74
1, 117658, Note_on_c, 0, 66, 55
1, 117658, Note_on_c, 0, 63, 55
1, 117764, Note_off_c, 0, 66, 64
1, 117823, Note_off_c, 0, 63, 64
1, 117864, Note_on_c, 0, 78, 84
1, 117867, Note_on_c, 0, 75, 76
1, 117870, Note_on_c, 0, 73, 47
1, 117874, Note_on_c, 0, 69, 47
1, 117880, Note_off_c, 0, 81, 64
1, 117918, Note_off_c, 0, 85, 64
1, 117930, Note_off_c, 0, 73, 64
1, 117930, Note_off_c, 0, 69, 64
1, 117954, Note_off_c, 0, 75, 64
1, 117968, Note_off_c, 0, 78, 64
1, 118078, Note_on_c, 0, 78, 76
1, 118078, Note_on_c, 0, 81, 89
1, 118082, Note_on_c, 0, 73, 50
1, 118084, Note_on_c, 0, 75, 78
1, 118144, Note_off_c, 0, 73, 64
1, 118214, Note_off_c, 0, 75, 64
1, 118262, Note_off_c, 0, 78, 64
1, 118270, Note_off_c, 0, 81, 64
1, 118298, Note_on_c, 0, 85, 87
1, 118299, Note_on_c, 0, 87, 84
1, 118302, Note_on_c, 0, 69, 50
1, 118304, Note_on_c, 0, 66, 60
1, 118358, Note_off_c, 0, 69, 64
1, 118358, Note_off_c, 0, 66, 64
1, 118396, Note_off_c, 0, 85, 64
1, 118409, Note_off_c, 0, 87, 64
1, 118510, Note_on_c, 0, 90, 92
1, 118512, Note_on_c, 0, 87, 69
1, 118520, Note_on_c, 0, 69, 57
1, 118522, Note_on_c, 0, 73, 69
1, 118572, Note_off_c, 0, 69, 64
1, 118638, Note_off_c, 0, 73, 64
1, 118692, Note_off_c, 0, 87, 64
1, 118722, Note_on_c, 0, 85, 86
1, 118730, Note_on_c, 0, 81, 79
1, 118732, Note_on_c, 0, 78, 68
1, 118736, Note_on_c, 0, 75, 69
1, 118740, Note_off_c, 0, 90, 64
1, 118776, Note_off_c, 0, 75, 64
1, 118784, Note_off_c, 0, 78, 64
1, 118786, Note_off_c, 0, 81, 64
1, 118852, Note_off_c, 0, 85, 64
1, 118942, Note_on_c, 0, 85, 82
1, 118944, Note_on_c, 0, 87, 92
1, 118946, Note_on_c, 0, 81, 87
1, 118949, Note_on_c, 0, 78, 76
1, 119004, Note_off_c, 0, 81, 64
1, 119020, Note_off_c, 0, 78, 64
1, 119130, Note_off_c, 0, 85, 64
1, 119162, Note_off_c, 0, 87, 64
1, 119206, Note_on_c, 0, 93, 97
1, 119206, Note_on_c, 0, 90, 76
1, 119210, Note_on_c, 0, 75, 64
1, 119210, Note_on_c, 0, 73, 36
1, 119250, Note_off_c, 0, 75, 64
1, 119272, Note_off_c, 0, 73, 64
1, 119276, Note_off_c, 0, 90, 64
1, 119288, Note_off_c, 0, 93, 64
1, 119570, Note_on_c, 0, 81, 99
1, 119578, Note_on_c, 0, 66, 66
1, 119578, Note_on_c, 0, 56, 54
1, 119580, Note_on_c, 0, 72, 84
1, 119580, Note_on_c, 0, 63, 47
1, 119620, Control_c, 0, 64, 0
1, 119748, Note_off_c, 0, 56, 64
1, 119754, Note_off_c, 0, 63, 64
1, 119768, Note_off_c, 0, 66, 64
1, 119788, Note_off_c, 0, 72, 64
1, 119807, Control_c, 0, 64, 127
1, 119816, Note_off_c, 0, 81, 64
1, 119928, Note_on_c, 0, 80, 92
1, 119940, Note_on_c, 0, 72, 67
1, 119942, Note_on_c, 0, 63, 61
1, 119943, Note_on_c, 0, 66, 65
1, 119950, Note_on_c, 0, 56, 58
1, 120014, Note_off_c, 0, 63, 64
1, 120014, Note_off_c, 0, 56, 64
1, 120040, Note_off_c, 0, 66, 64
1, 120062, Note_off_c, 0, 72, 64
1, 120126, Note_off_c, 0, 80, 64
1, 120210, Note_on_c, 0, 72, 72
1, 120210, Note_on_c, 0, 78, 92
1, 120222, Note_on_c, 0, 66, 62
1, 120224, Note_on_c, 0, 63, 63
1, 120228, Note_on_c, 0, 56, 50
1, 120298, Note_off_c, 0, 56, 64
1, 120326, Note_off_c, 0, 72, 64
1, 120356, Note_off_c, 0, 63, 64
1, 120358, Note_off_c, 0, 66, 64
1, 120372, Note_off_c, 0, 78, 64
1, 120464, Note_on_c, 0, 71, 95
1, 120466, Note_on_c, 0, 62, 60
1, 120467, Note_on_c, 0, 65, 78
1, 120468, Note_on_c, 0, 56, 69
1, 120470, Note_on_c, 0, 77, 86
1, 120509, Note_off_c, 0, 65, 64
1, 120510, Note_off_c, 0, 62, 64
1, 120554, Note_off_c, 0, 56, 64
1, 120558, Note_off_c, 0, 71, 64
1, 120558, Note_off_c, 0, 77, 64
1, 120692, Note_on_c, 0, 74, 87
1, 120692, Note_on_c, 0, 68, 74
1, 120710, Note_on_c, 0, 59, 69
1, 120716, Note_on_c, 0, 53, 89
1, 120726, Control_c, 0, 64, 0
1, 120770, Note_off_c, 0, 53, 64
1, 120824, Note_off_c, 0, 68, 64
1, 120880, Note_on_c, 0, 67, 71
1, 120884, Note_off_c, 0, 74, 64
1, 120884, Note_on_c, 0, 73, 72
1, 120884, Note_on_c, 0, 58, 61
1, 120886, Note_off_c, 0, 59, 64
1, 120888, Note_on_c, 0, 52, 68
1, 120926, Control_c, 0, 64, 127
1, 120936, Note_off_c, 0, 52, 64
1, 120942, Note_off_c, 0, 67, 64
1, 120958, Note_off_c, 0, 58, 64
1, 120998, Note_off_c, 0, 73, 64
1, 121066, Note_on_c, 0, 78, 85
1, 121068, Note_on_c, 0, 72, 84
1, 121078, Note_on_c, 0, 57, 64
1, 121082, Note_on_c, 0, 51, 75
1, 121210, Note_off_c, 0, 78, 64
1, 121213, Note_off_c, 0, 72, 64
1, 121213, Note_off_c, 0, 57, 64
1, 121217, Control_c, 0, 64, 0
1, 121242, Note_off_c, 0, 51, 64
1, 121245, Note_on_c, 0, 71, 86
1, 121250, Note_on_c, 0, 77, 83
1, 121250, Note_on_c, 0, 56, 74
1, 121253, Note_on_c, 0, 50, 68
1, 121288, Note_off_c, 0, 71, 64
1, 121322, Note_off_c, 0, 77, 64
1, 121325, Note_off_c, 0, 50, 64
1, 121325, Control_c, 0, 64, 127
1, 121354, Note_off_c, 0, 56, 64
1, 121414, Note_on_c, 0, 82, 88
1, 121422, Note_on_c, 0, 76, 85
1, 121422, Note_on_c, 0, 55, 77
1, 121425, Note_on_c, 0, 49, 75
1, 121498, Note_off_c, 0, 76, 64
1, 121518, Note_off_c, 0, 82, 64
1, 121540, Note_off_c, 0, 55, 64
1, 121568, Note_on_c, 0, 81, 84
1, 121572, Note_off_c, 0, 49, 64
1, 121572, Note_on_c, 0, 75, 83
1, 121586, Note_on_c, 0, 54, 81
1, 121590, Note_on_c, 0, 48, 34
1, 121636, Note_off_c, 0, 75, 64
1, 121644, Note_off_c, 0, 48, 64
1, 121650, Note_off_c, 0, 81, 64
1, 121692, Note_off_c, 0, 54, 64
1, 121762, Note_on_c, 0, 53, 101
1, 121764, Note_on_c, 0, 47, 73
1, 121770, Note_on_c, 0, 86, 98
1, 121770, Note_on_c, 0, 80, 90
1, 121834, Note_off_c, 0, 53, 64
1, 121878, Note_off_c, 0, 47, 64
1, 121910, Control_c, 0, 64, 0
1, 121916, Note_off_c, 0, 80, 64
1, 121962, Note_on_c, 0, 46, 82
1, 121962, Note_on_c, 0, 52, 88
1, 121962, Note_on_c, 0, 79, 92
1, 121965, Note_on_c, 0, 85, 90
1, 122006, Note_off_c, 0, 86, 64
1, 122044, Note_off_c, 0, 85, 64
1, 122056, Note_off_c, 0, 46, 64
1, 122060, Note_off_c, 0, 52, 64
1, 122062, Control_c, 0, 64, 127
1, 122064, Note_off_c, 0, 79, 64
1, 122196, Note_on_c, 0, 73, 89
1, 122202, Note_on_c, 0, 67, 86
1, 122204, Note_on_c, 0, 58, 74
1, 122212, Note_on_c, 0, 52, 86
1, 122254, Note_off_c, 0, 52, 64
1, 122257, Note_off_c, 0, 67, 64
1, 122274, Note_off_c, 0, 58, 64
1, 122340, Note_off_c, 0, 73, 64
1, 122374, Note_on_c, 0, 72, 69
1, 122376, Note_on_c, 0, 66, 69
1, 122376, Note_on_c, 0, 57, 79
1, 122382, Note_on_c, 0, 51, 84
1, 122422, Note_off_c, 0, 66, 64
1, 122434, Note_off_c, 0, 72, 64
1, 122500, Note_off_c, 0, 57, 64
1, 122522, Note_off_c, 0, 51, 64
1, 122524, Control_c, 0, 64, 0
1, 122536, Note_on_c, 0, 77, 96
1, 122542, Note_on_c, 0, 56, 81
1, 122542, Note_on_c, 0, 71, 89
1, 122548, Note_on_c, 0, 50, 79
1, 122630, Note_off_c, 0, 50, 64
1, 122638, Note_off_c, 0, 77, 64
1, 122646, Note_off_c, 0, 56, 64
1, 122678, Note_off_c, 0, 71, 64
1, 122690, Note_on_c, 0, 70, 81
1, 122696, Note_on_c, 0, 76, 75
1, 122700, Note_on_c, 0, 55, 84
1, 122704, Note_on_c, 0, 49, 79
1, 122707, Control_c, 0, 64, 127
1, 122740, Note_off_c, 0, 76, 64
1, 122750, Note_off_c, 0, 70, 64
1, 122816, Note_off_c, 0, 55, 64
1, 122844, Note_off_c, 0, 49, 64
1, 122846, Note_on_c, 0, 81, 98
1, 122848, Note_on_c, 0, 54, 83
1, 122850, Note_on_c, 0, 75, 81
1, 122854, Note_on_c, 0, 48, 45
1, 122918, Note_off_c, 0, 75, 64
1, 122918, Note_off_c, 0, 48, 64
1, 122942, Note_off_c, 0, 81, 64
1, 122952, Note_off_c, 0, 54, 64
1, 123004, Note_on_c, 0, 80, 90
1, 123004, Note_on_c, 0, 53, 98
1, 123007, Note_on_c, 0, 74, 86
1, 123010, Note_on_c, 0, 47, 69
1, 123058, Note_off_c, 0, 74, 64
1, 123068, Note_off_c, 0, 53, 64
1, 123084, Note_off_c, 0, 80, 64
1, 123090, Note_off_c, 0, 47, 64
1, 123162, Note_on_c, 0, 85, 92
1, 123164, Note_on_c, 0, 79, 98
1, 123172, Note_on_c, 0, 52, 101
1, 123175, Note_on_c, 0, 46, 79
1, 123260, Note_off_c, 0, 52, 64
1, 123262, Control_c, 0, 64, 0
1, 123268, Note_off_c, 0, 85, 64
1, 123294, Note_off_c, 0, 46, 64
1, 123302, Note_off_c, 0, 79, 64
1, 123316, Note_on_c, 0, 78, 91
1, 123320, Note_on_c, 0, 84, 96
1, 123328, Note_on_c, 0, 45, 85
1, 123329, Note_on_c, 0, 51, 90
1, 123372, Note_off_c, 0, 84, 64
1, 123382, Note_off_c, 0, 45, 64
1, 123400, Note_off_c, 0, 78, 64
1, 123421, Note_off_c, 0, 51, 64
1, 123430, Control_c, 0, 64, 127
1, 123520, Note_on_c, 0, 66, 86
1, 123520, Note_on_c, 0, 57, 78
1, 123520, Note_on_c, 0, 72, 87
1, 123523, Note_on_c, 0, 51, 61
1, 123554, Control_c, 0, 64, 0
1, 123632, Note_off_c, 0, 57, 64
1, 123646, Note_off_c, 0, 72, 64
1, 123648, Note_off_c, 0, 66, 64
1, 123664, Note_on_c, 0, 50, 79
1, 123666, Note_on_c, 0, 56, 76
1, 123668, Note_on_c, 0, 65, 67
1, 123670, Note_on_c, 0, 71, 80
1, 123682, Note_off_c, 0, 51, 64
1, 123712, Note_off_c, 0, 65, 64
1, 123718, Note_off_c, 0, 71, 64
1, 123738, Control_c, 0, 64, 127
1, 123752, Note_off_c, 0, 50, 64
1, 123758, Note_off_c, 0, 56, 64
1, 123806, Note_on_c, 0, 49, 78
1, 123808, Note_on_c, 0, 55, 80
1, 123818, Note_on_c, 0, 70, 74
1, 123818, Note_on_c, 0, 76, 80
1, 123928, Note_off_c, 0, 55, 64
1, 123928, Note_off_c, 0, 70, 64
1, 123928, Note_off_c, 0, 76, 64
1, 123952, Note_off_c, 0, 49, 64
1, 123962, Note_on_c, 0, 69, 66
1, 123962, Note_on_c, 0, 54, 78
1, 123965, Note_on_c, 0, 75, 81
1, 123968, Note_on_c, 0, 48, 63
1, 124018, Note_off_c, 0, 69, 64
1, 124021, Note_off_c, 0, 54, 64
1, 124048, Note_off_c, 0, 48, 64
1, 124072, Note_off_c, 0, 75, 64
1, 124122, Note_on_c, 0, 47, 38
1, 124124, Note_on_c, 0, 53, 95
1, 124127, Note_on_c, 0, 74, 92
1, 124130, Note_on_c, 0, 80, 90
1, 124172, Note_off_c, 0, 53, 64
1, 124184, Note_off_c, 0, 47, 64
1, 124236, Note_off_c, 0, 74, 64
1, 124242, Note_off_c, 0, 80, 64
1, 124272, Note_on_c, 0, 73, 79
1, 124276, Note_on_c, 0, 46, 81
1, 124284, Note_on_c, 0, 52, 91
1, 124288, Note_on_c, 0, 79, 88
1, 124330, Note_off_c, 0, 73, 64
1, 124330, Note_off_c, 0, 79, 64
1, 124380, Note_off_c, 0, 52, 64
1, 124400, Note_off_c, 0, 46, 64
1, 124424, Note_on_c, 0, 51, 83
1, 124430, Note_on_c, 0, 45, 73
1, 124444, Note_on_c, 0, 78, 96
1, 124450, Note_on_c, 0, 84, 83
1, 124516, Note_off_c, 0, 51, 64
1, 124522, Control_c, 0, 64, 0
1, 124542, Note_off_c, 0, 45, 64
1, 124548, Note_off_c, 0, 78, 64
1, 124568, Note_on_c, 0, 50, 98
1, 124568, Note_on_c, 0, 44, 90
1, 124578, Note_off_c, 0, 84, 64
1, 124578, Note_on_c, 0, 83, 110
1, 124578, Note_on_c, 0, 77, 86
1, 124640, Note_off_c, 0, 77, 64
1, 124660, Note_off_c, 0, 50, 64
1, 124660, Control_c, 0, 64, 127
1, 124670, Note_off_c, 0, 83, 64
1, 124712, Note_on_c, 0, 49, 78
1, 124724, Note_on_c, 0, 43, 81
1, 124730, Note_on_c, 0, 88, 97
1, 124730, Note_on_c, 0, 82, 94
1, 124770, Note_off_c, 0, 44, 64
1, 124812, Note_off_c, 0, 43, 64
1, 124818, Note_off_c, 0, 49, 64
1, 124832, Note_off_c, 0, 82, 64
1, 124858, Note_on_c, 0, 48, 87
1, 124866, Note_off_c, 0, 88, 64
1, 124866, Note_on_c, 0, 81, 93
1, 124866, Note_on_c, 0, 41, 44
1, 124872, Note_on_c, 0, 87, 89
1, 124926, Note_off_c, 0, 41, 64
1, 124940, Note_off_c, 0, 48, 64
1, 124940, Note_off_c, 0, 81, 64
1, 124968, Note_off_c, 0, 87, 64
1, 125010, Note_on_c, 0, 47, 80
1, 125020, Note_on_c, 0, 41, 68
1, 125028, Note_on_c, 0, 92, 94
1, 125028, Note_on_c, 0, 86, 100
1, 125114, Note_off_c, 0, 41, 64
1, 125118, Note_off_c, 0, 86, 64
1, 125130, Note_off_c, 0, 92, 64
1, 125160, Note_on_c, 0, 46, 82
1, 125163, Note_on_c, 0, 85, 86
1, 125167, Note_on_c, 0, 40, 90
1, 125172, Note_on_c, 0, 91, 88
1, 125202, Note_off_c, 0, 40, 64
1, 125222, Note_off_c, 0, 85, 64
1, 125222, Note_off_c, 0, 91, 64
1, 125226, Note_off_c, 0, 47, 64
1, 125240, Note_off_c, 0, 46, 64
1, 125300, Note_on_c, 0, 45, 92
1, 125304, Note_on_c, 0, 39, 81
1, 125324, Note_on_c, 0, 90, 91
1, 125326, Note_on_c, 0, 96, 98
1, 125342, Note_off_c, 0, 39, 64
1, 125408, Note_off_c, 0, 45, 64
1, 125418, Note_off_c, 0, 96, 64
1, 125438, Note_off_c, 0, 90, 64
1, 125458, Note_on_c, 0, 44, 89
1, 125460, Note_on_c, 0, 38, 60
1, 125468, Note_on_c, 0, 89, 89
1, 125472, Note_on_c, 0, 95, 95
1, 125496, Note_off_c, 0, 44, 64
1, 125516, Note_off_c, 0, 38, 64
1, 125516, Note_on_c, 0, 43, 31
1, 125536, Note_off_c, 0, 89, 64
1, 125554, Note_off_c, 0, 95, 64
1, 125586, Note_off_c, 0, 43, 64
1, 125618, Note_on_c, 0, 43, 77
1, 125618, Note_on_c, 0, 37, 90
1, 125634, Note_on_c, 0, 100, 106
1, 125634, Note_on_c, 0, 94, 97
1, 125750, Note_off_c, 0, 43, 64
1, 125788, Note_off_c, 0, 94, 64
1, 125814, Note_off_c, 0, 37, 64
1, 125842, Control_c, 0, 64, 0
1, 125862, Note_on_c, 0, 95, 95
1, 125864, Note_on_c, 0, 42, 98
1, 125866, Note_on_c, 0, 35, 113
1, 125866, Note_on_c, 0, 99, 100
1, 125912, Note_off_c, 0, 100, 64
1, 125986, Note_off_c, 0, 99, 64
1, 125989, Note_off_c, 0, 95, 64
1, 126026, Note_off_c, 0, 35, 64
1, 126058, Control_c, 0, 64, 127
1, 126064, Note_off_c, 0, 42, 64
1, 126186, Note_on_c, 0, 95, 94
1, 126188, Note_on_c, 0, 87, 88
1, 126308, Note_off_c, 0, 95, 64
1, 126344, Note_off_c, 0, 87, 64
1, 126372, Note_on_c, 0, 90, 85
1, 126374, Note_on_c, 0, 81, 95
1, 126456, Note_off_c, 0, 81, 64
1, 126498, Note_off_c, 0, 90, 64
1, 126560, Note_on_c, 0, 83, 113
1, 126562, Note_on_c, 0, 75, 82
1, 126666, Note_off_c, 0, 83, 64
1, 126704, Note_off_c, 0, 75, 64
1, 126760, Note_on_c, 0, 69, 79
1, 126763, Note_on_c, 0, 78, 78
1, 126823, Note_off_c, 0, 78, 64
1, 126880, Note_off_c, 0, 69, 64
1, 126940, Note_on_c, 0, 71, 61
1, 126946, Note_on_c, 0, 63, 88
1, 126986, Note_off_c, 0, 71, 64
1, 127030, Note_off_c, 0, 63, 64
1, 127108, Note_on_c, 0, 66, 84
1, 127111, Note_on_c, 0, 57, 87
1, 127152, Note_off_c, 0, 57, 64
1, 127228, Note_off_c, 0, 66, 64
1, 127286, Note_on_c, 0, 51, 96
1, 127286, Note_on_c, 0, 59, 95
1, 127342, Note_off_c, 0, 59, 64
1, 127390, Note_off_c, 0, 51, 64
1, 127438, Note_on_c, 0, 54, 103
1, 127441, Note_on_c, 0, 45, 94
1, 127522, Note_off_c, 0, 54, 64
1, 127533, Note_off_c, 0, 45, 64
1, 127672, Control_c, 0, 64, 0
1, 127672, Note_on_c, 0, 69, 83
1, 127672, Note_on_c, 0, 66, 72
1, 127672, Note_on_c, 0, 48, 92
1, 127675, Note_on_c, 0, 57, 90
1, 127675, Note_on_c, 0, 64, 84
1, 127676, Note_on_c, 0, 36, 98
1, 127740, Note_off_c, 0, 48, 64
1, 127740, Note_off_c, 0, 36, 64
1, 127774, Note_off_c, 0, 57, 64
1, 127799, Note_off_c, 0, 64, 64
1, 127812, Note_off_c, 0, 66, 64
1, 127814, Note_off_c, 0, 69, 64
1, 127824, Control_c, 0, 64, 127
1, 127872, Note_on_c, 0, 71, 102
1, 127872, Note_on_c, 0, 47, 87
1, 127875, Note_on_c, 0, 64, 81
1, 127875, Note_on_c, 0, 66, 64
1, 127878, Note_on_c, 0, 59, 93
1, 127880, Note_on_c, 0, 35, 100
1, 127954, Note_off_c, 0, 47, 64
1, 127976, Note_off_c, 0, 35, 64
1, 127978, Note_off_c, 0, 59, 64
1, 127980, Note_off_c, 0, 71, 64
1, 128004, Note_off_c, 0, 64, 64
1, 128014, Note_off_c, 0, 66, 64
1, 128052, Note_on_c, 0, 45, 91
1, 128055, Note_on_c, 0, 33, 99
1, 128055, Note_on_c, 0, 72, 97
1, 128056, Note_on_c, 0, 66, 81
1, 128058, Note_on_c, 0, 64, 91
1, 128059, Note_on_c, 0, 60, 88
1, 128110, Note_off_c, 0, 33, 64
1, 128132, Note_off_c, 0, 45, 64
1, 128149, Note_off_c, 0, 72, 64
1, 128154, Note_off_c, 0, 66, 64
1, 128157, Note_off_c, 0, 60, 64
1, 128168, Note_off_c, 0, 64, 64
1, 128234, Note_on_c, 0, 64, 97
1, 128237, Note_on_c, 0, 66, 66
1, 128237, Note_on_c, 0, 71, 106
1, 128237, Note_on_c, 0, 59, 109
1, 128237, Note_on_c, 0, 47, 100
1, 128242, Note_on_c, 0, 35, 107
1, 128316, Note_off_c, 0, 59, 64
1, 128316, Note_off_c, 0, 35, 64
1, 128318, Note_off_c, 0, 71, 64
1, 128338, Note_off_c, 0, 47, 64
1, 128346, Control_c, 0, 64, 0
1, 128356, Note_off_c, 0, 64, 64
1, 128356, Note_off_c, 0, 66, 64
1, 128402, Note_on_c, 0, 48, 99
1, 128403, Note_on_c, 0, 69, 87
1, 128406, Note_on_c, 0, 66, 81
1, 128407, Note_on_c, 0, 64, 97
1, 128408, Note_on_c, 0, 36, 101
1, 128410, Note_on_c, 0, 57, 97
1, 128496, Note_off_c, 0, 69, 64
1, 128498, Note_off_c, 0, 57, 64
1, 128508, Note_off_c, 0, 48, 64
1, 128510, Note_off_c, 0, 36, 64
1, 128515, Note_off_c, 0, 64, 64
1, 128516, Control_c, 0, 64, 127
1, 128534, Note_off_c, 0, 66, 64
1, 128574, Note_on_c, 0, 71, 105
1, 128574, Note_on_c, 0, 66, 84
1, 128575, Note_on_c, 0, 64, 94
1, 128577, Note_on_c, 0, 47, 97
1, 128577, Control_c, 0, 64, 0
1, 128578, Note_on_c, 0, 59, 90
1, 128580, Note_on_c, 0, 35, 106
1, 128656, Note_off_c, 0, 35, 64
1, 128665, Note_off_c, 0, 59, 64
1, 128668, Note_off_c, 0, 71, 64
1, 128668, Note_off_c, 0, 47, 64
1, 128674, Note_off_c, 0, 66, 64
1, 128679, Note_off_c, 0, 64, 64
1, 128684, Control_c, 0, 64, 127
1, 128736, Note_on_c, 0, 45, 91
1, 128739, Note_on_c, 0, 60, 94
1, 128739, Note_on_c, 0, 33, 101
1, 128740, Note_on_c, 0, 64, 96
1, 128741, Note_on_c, 0, 72, 102
1, 128742, Note_on_c, 0, 66, 75
1, 128834, Note_off_c, 0, 45, 64
1, 128840, Control_c, 0, 64, 0
1, 128858, Note_off_c, 0, 33, 64
1, 128865, Note_off_c, 0, 72, 64
1, 128866, Note_off_c, 0, 60, 64
1, 128900, Note_off_c, 0, 64, 64
1, 128912, Note_off_c, 0, 66, 64
1, 128950, Note_on_c, 0, 47, 110
1, 128952, Note_on_c, 0, 71, 110
1, 128952, Note_on_c, 0, 35, 113
1, 128956, Note_on_c, 0, 59, 113
1, 128956, Note_on_c, 0, 63, 99
1, 128956, Note_on_c, 0, 66, 95
1, 129080, Note_off_c, 0, 59, 64
1, 129104, Note_off_c, 0, 63, 64
1, 129138, Note_off_c, 0, 66, 64
1, 129144, Note_off_c, 0, 71, 64
1, 129144, Control_c, 0, 64, 127
1, 129176, Note_off_c, 0, 35, 64
1, 129214, Note_off_c, 0, 47, 64
1, 129404, Note_on_c, 0, 99, 99
1, 129414, Note_on_c, 0, 93, 85
1, 129458, Note_off_c, 0, 93, 64
1, 129558, Note_off_c, 0, 99, 64
1, 129654, Note_on_c, 0, 87, 89
1, 129658, Note_on_c, 0, 95, 94
1, 129752, Note_off_c, 0, 87, 64
1, 129772, Note_off_c, 0, 95, 64
1, 129850, Note_on_c, 0, 87, 68
1, 129852, Note_on_c, 0, 78, 78
1, 129906, Note_off_c, 0, 87, 64
1, 129978, Note_off_c, 0, 78, 64
1, 130052, Note_on_c, 0, 81, 91
1, 130052, Note_on_c, 0, 71, 89
1, 130082, Note_off_c, 0, 81, 64
1, 130100, Note_off_c, 0, 71, 64
1, 130246, Note_on_c, 0, 75, 81
1, 130246, Note_on_c, 0, 69, 75
1, 130324, Note_off_c, 0, 75, 64
1, 130370, Note_off_c, 0, 69, 64
1, 130408, Note_on_c, 0, 63, 88
1, 130411, Note_on_c, 0, 71, 93
1, 130456, Note_off_c, 0, 63, 64
1, 130520, Note_off_c, 0, 71, 64
1, 130570, Note_on_c, 0, 63, 78
1, 130570, Note_on_c, 0, 54, 95
1, 130614, Note_off_c, 0, 63, 64
1, 130676, Note_off_c, 0, 54, 64
1, 130742, Note_on_c, 0, 57, 97
1, 130742, Note_on_c, 0, 47, 98
1, 130778, Note_off_c, 0, 57, 64
1, 130786, Note_off_c, 0, 47, 64
1, 130924, Note_on_c, 0, 66, 73
1, 130924, Note_on_c, 0, 69, 84
1, 130924, Note_on_c, 0, 57, 93
1, 130926, Note_on_c, 0, 64, 80
1, 130929, Note_on_c, 0, 36, 95
1, 130934, Note_on_c, 0, 48, 94
1, 130934, Note_on_c, 0, 38, 43
1, 130967, Note_off_c, 0, 36, 64
1, 130974, Note_off_c, 0, 48, 64
1, 131000, Note_off_c, 0, 38, 64
1, 131012, Note_off_c, 0, 57, 64
1, 131024, Note_off_c, 0, 69, 64
1, 131034, Note_off_c, 0, 64, 64
1, 131036, Control_c, 0, 64, 0
1, 131060, Note_off_c, 0, 66, 64
1, 131100, Note_on_c, 0, 66, 84
1, 131102, Note_on_c, 0, 64, 93
1, 131102, Note_on_c, 0, 71, 106
1, 131102, Note_on_c, 0, 59, 93
1, 131105, Note_on_c, 0, 47, 97
1, 131108, Note_on_c, 0, 35, 107
1, 131196, Note_off_c, 0, 59, 64
1, 131206, Note_off_c, 0, 47, 64
1, 131206, Control_c, 0, 64, 127
1, 131214, Note_off_c, 0, 35, 64
1, 131232, Note_off_c, 0, 66, 64
1, 131232, Note_off_c, 0, 71, 64
1, 131244, Note_off_c, 0, 64, 64
1, 131288, Note_on_c, 0, 45, 95
1, 131292, Note_on_c, 0, 33, 101
1, 131293, Note_on_c, 0, 72, 98
1, 131294, Note_on_c, 0, 66, 75
1, 131300, Note_on_c, 0, 60, 95
1, 131302, Note_on_c, 0, 64, 96
1, 131386, Note_off_c, 0, 33, 64
1, 131390, Note_off_c, 0, 45, 64
1, 131395, Note_off_c, 0, 72, 64
1, 131398, Note_off_c, 0, 60, 64
1, 131442, Note_off_c, 0, 64, 64
1, 131450, Note_off_c, 0, 66, 64
1, 131496, Control_c, 0, 64, 0
1, 131498, Note_on_c, 0, 47, 101
1, 131501, Note_on_c, 0, 59, 97
1, 131503, Note_on_c, 0, 69, 45
1, 131504, Note_on_c, 0, 71, 89
1, 131504, Note_on_c, 0, 66, 81
1, 131506, Note_on_c, 0, 35, 108
1, 131506, Note_on_c, 0, 64, 92
1, 131571, Note_off_c, 0, 69, 64
1, 131578, Note_off_c, 0, 47, 64
1, 131604, Note_off_c, 0, 59, 64
1, 131610, Note_off_c, 0, 35, 64
1, 131620, Control_c, 0, 64, 127
1, 131624, Note_off_c, 0, 71, 64
1, 131644, Note_off_c, 0, 64, 64
1, 131656, Note_off_c, 0, 66, 64
1, 131700, Note_on_c, 0, 69, 54
1, 131704, Note_on_c, 0, 48, 96
1, 131704, Note_on_c, 0, 57, 92
1, 131704, Note_on_c, 0, 66, 78
1, 131707, Note_on_c, 0, 64, 91
1, 131707, Note_on_c, 0, 36, 100
1, 131796, Note_off_c, 0, 48, 64
1, 131796, Note_off_c, 0, 36, 64
1, 131804, Note_off_c, 0, 57, 64
1, 131832, Note_off_c, 0, 69, 64
1, 131840, Note_off_c, 0, 64, 64
1, 131864, Note_off_c, 0, 66, 64
1, 131918, Note_on_c, 0, 66, 78
1, 131918, Note_on_c, 0, 47, 97
1, 131918, Note_on_c, 0, 35, 100
1, 131921, Note_on_c, 0, 71, 106
1, 131923, Note_on_c, 0, 64, 70
1, 131924, Note_on_c, 0, 59, 95
1, 131958, Note_off_c, 0, 59, 64
1, 131971, Note_off_c, 0, 64, 64
1, 132014, Note_off_c, 0, 47, 64
1, 132014, Note_off_c, 0, 71, 64
1, 132022, Note_off_c, 0, 66, 64
1, 132050, Note_off_c, 0, 35, 64
1, 132158, Control_c, 0, 64, 0
1, 132214, Note_on_c, 0, 45, 95
1, 132216, Note_on_c, 0, 78, 97
1, 132218, Note_on_c, 0, 33, 98
1, 132218, Note_on_c, 0, 76, 92
1, 132218, Note_on_c, 0, 66, 97
1, 132220, Note_on_c, 0, 72, 94
1, 132380, Note_off_c, 0, 33, 64
1, 132404, Note_off_c, 0, 66, 64
1, 132418, Control_c, 0, 64, 127
1, 132420, Note_off_c, 0, 45, 64
1, 132440, Note_off_c, 0, 78, 64
1, 132444, Note_off_c, 0, 76, 64
1, 132450, Note_off_c, 0, 72, 64
1, 132558, Control_c, 0, 64, 0
1, 132614, Note_on_c, 0, 78, 99
1, 132617, Note_on_c, 0, 75, 90
1, 132618, Note_on_c, 0, 45, 28
1, 132620, Note_on_c, 0, 71, 101
1, 132620, Note_on_c, 0, 66, 97
1, 132620, Note_on_c, 0, 47, 87
1, 132622, Note_on_c, 0, 35, 99
1, 132756, Note_off_c, 0, 45, 64
1, 132822, Note_off_c, 0, 35, 64
1, 132880, Control_c, 0, 64, 127
1, 132883, Note_off_c, 0, 66, 64
1, 132894, Note_off_c, 0, 47, 64
1, 132932, Note_off_c, 0, 71, 64
1, 132992, Note_off_c, 0, 75, 64
1, 133014, Note_off_c, 0, 78, 64
1, 133276, Note_on_c, 0, 86, 87
1, 133280, Note_on_c, 0, 71, 87
1, 133280, Note_on_c, 0, 62, 70
1, 133282, Note_on_c, 0, 95, 104
1, 133326, Control_c, 0, 64, 0
1, 133461, Note_off_c, 0, 62, 64
1, 133462, Note_off_c, 0, 95, 64
1, 133478, Control_c, 0, 64, 127
1, 133558, Note_on_c, 0, 89, 79
1, 133560, Note_on_c, 0, 80, 83
1, 133560, Note_on_c, 0, 68, 65
1, 133562, Note_on_c, 0, 77, 72
1, 133586, Note_off_c, 0, 86, 64
1, 133602, Note_off_c, 0, 89, 64
1, 133608, Note_off_c, 0, 71, 64
1, 133608, Note_off_c, 0, 77, 64
1, 133616, Note_off_c, 0, 68, 64
1, 133656, Note_off_c, 0, 80, 64
1, 133788, Note_on_c, 0, 65, 76
1, 133792, Note_on_c, 0, 86, 91
1, 133792, Note_on_c, 0, 74, 83
1, 133795, Note_on_c, 0, 77, 87
1, 133832, Note_off_c, 0, 74, 64
1, 133841, Note_off_c, 0, 77, 64
1, 133844, Note_off_c, 0, 65, 64
1, 133934, Note_off_c, 0, 86, 64
1, 133994, Note_on_c, 0, 83, 75
1, 133995, Note_on_c, 0, 92, 90
1, 134002, Note_on_c, 0, 59, 76
1, 134006, Note_on_c, 0, 68, 53
1, 134042, Note_off_c, 0, 59, 64
1, 134060, Note_off_c, 0, 68, 64
1, 134080, Note_off_c, 0, 92, 64
1, 134098, Note_off_c, 0, 83, 64
1, 134140, Control_c, 0, 64, 0
1, 134178, Note_on_c, 0, 69, 64
1, 134184, Note_on_c, 0, 93, 95
1, 134190, Note_on_c, 0, 84, 95
1, 134194, Note_on_c, 0, 60, 56
1, 134248, Note_off_c, 0, 93, 64
1, 134248, Note_off_c, 0, 60, 64
1, 134324, Control_c, 0, 64, 127
1, 134326, Note_off_c, 0, 69, 64
1, 134352, Note_off_c, 0, 84, 64
1, 134364, Note_on_c, 0, 78, 80
1, 134366, Note_on_c, 0, 87, 65
1, 134366, Note_on_c, 0, 66, 55
1, 134369, Note_on_c, 0, 75, 57
1, 134406, Note_off_c, 0, 87, 64
1, 134416, Note_off_c, 0, 75, 64
1, 134418, Note_off_c, 0, 66, 64
1, 134428, Note_off_c, 0, 78, 64
1, 134538, Note_on_c, 0, 84, 80
1, 134540, Note_on_c, 0, 75, 81
1, 134542, Note_on_c, 0, 72, 64
1, 134543, Note_on_c, 0, 63, 76
1, 134584, Note_off_c, 0, 72, 64
1, 134591, Note_off_c, 0, 63, 64
1, 134612, Note_off_c, 0, 75, 64
1, 134624, Note_off_c, 0, 84, 64
1, 134702, Note_on_c, 0, 90, 93
1, 134706, Note_on_c, 0, 57, 65
1, 134710, Note_on_c, 0, 66, 52
1, 134712, Note_on_c, 0, 81, 62
1, 134754, Note_off_c, 0, 57, 64
1, 134754, Note_off_c, 0, 81, 64
1, 134760, Note_off_c, 0, 66, 64
1, 134790, Note_off_c, 0, 90, 64
1, 134830, Control_c, 0, 64, 0
1, 134870, Note_on_c, 0, 93, 99
1, 134872, Note_on_c, 0, 69, 68
1, 134873, Note_on_c, 0, 84, 96
1, 134875, Note_on_c, 0, 60, 65
1, 134910, Note_off_c, 0, 93, 64
1, 134925, Note_off_c, 0, 60, 64
1, 134986, Control_c, 0, 64, 127
1, 135016, Note_off_c, 0, 69, 64
1, 135028, Note_off_c, 0, 84, 64
1, 135060, Note_on_c, 0, 87, 59
1, 135064, Note_on_c, 0, 78, 73
1, 135066, Note_on_c, 0, 75, 64
1, 135070, Note_on_c, 0, 66, 56
1, 135112, Note_off_c, 0, 75, 64
1, 135126, Note_off_c, 0, 66, 64
1, 135144, Note_off_c, 0, 87, 64
1, 135152, Note_off_c, 0, 78, 64
1, 135228, Note_on_c, 0, 65, 55
1, 135230, Note_on_c, 0, 86, 81
1, 135234, Note_on_c, 0, 77, 83
1, 135234, Note_on_c, 0, 74, 76
1, 135269, Note_off_c, 0, 77, 64
1, 135276, Note_off_c, 0, 74, 64
1, 135288, Note_off_c, 0, 65, 64
1, 135292, Note_off_c, 0, 86, 64
1, 135378, Note_on_c, 0, 68, 62
1, 135381, Note_on_c, 0, 92, 86
1, 135382, Note_on_c, 0, 86, 23
1, 135384, Note_on_c, 0, 59, 27
1, 135384, Note_on_c, 0, 83, 83
1, 135424, Note_off_c, 0, 83, 64
1, 135440, Note_off_c, 0, 68, 64
1, 135448, Note_off_c, 0, 86, 64
1, 135452, Note_off_c, 0, 59, 64
1, 135468, Note_off_c, 0, 92, 64
1, 135548, Note_on_c, 0, 58, 60
1, 135550, Note_on_c, 0, 91, 96
1, 135550, Note_on_c, 0, 82, 88
1, 135550, Note_on_c, 0, 67, 47
1, 135554, Control_c, 0, 64, 0
1, 135628, Note_off_c, 0, 58, 64
1, 135646, Note_off_c, 0, 91, 64
1, 135674, Note_off_c, 0, 67, 64
1, 135676, Control_c, 0, 64, 127
1, 135706, Note_off_c, 0, 82, 64
1, 135720, Note_on_c, 0, 85, 72
1, 135722, Note_on_c, 0, 64, 59
1, 135730, Note_on_c, 0, 76, 61
1, 135731, Note_on_c, 0, 73, 66
1, 135766, Note_off_c, 0, 64, 64
1, 135776, Note_off_c, 0, 76, 64
1, 135782, Note_off_c, 0, 85, 64
1, 135791, Note_off_c, 0, 73, 64
1, 135874, Note_on_c, 0, 75, 80
1, 135874, Note_on_c, 0, 84, 71
1, 135878, Note_on_c, 0, 63, 79
1, 135883, Note_on_c, 0, 72, 74
1, 135927, Note_off_c, 0, 72, 64
1, 135934, Note_off_c, 0, 63, 64
1, 135959, Note_off_c, 0, 84, 64
1, 135980, Note_off_c, 0, 75, 64
1, 136026, Note_on_c, 0, 66, 68
1, 136030, Note_on_c, 0, 90, 88
1, 136030, Note_on_c, 0, 57, 81
1, 136032, Note_on_c, 0, 81, 17
1, 136070, Note_off_c, 0, 66, 64
1, 136070, Note_off_c, 0, 57, 64
1, 136092, Note_off_c, 0, 90, 64
1, 136092, Note_off_c, 0, 81, 64
1, 136168, Control_c, 0, 64, 0
1, 136206, Note_on_c, 0, 69, 77
1, 136212, Note_on_c, 0, 93, 93
1, 136212, Note_on_c, 0, 84, 99
1, 136215, Note_on_c, 0, 60, 67
1, 136264, Note_off_c, 0, 60, 64
1, 136270, Note_off_c, 0, 93, 64
1, 136336, Control_c, 0, 64, 127
1, 136338, Note_off_c, 0, 69, 64
1, 136378, Note_off_c, 0, 84, 64
1, 136386, Note_on_c, 0, 87, 68
1, 136392, Note_on_c, 0, 78, 84
1, 136396, Note_on_c, 0, 66, 52
1, 136396, Note_on_c, 0, 75, 62
1, 136424, Note_off_c, 0, 87, 64
1, 136440, Note_off_c, 0, 75, 64
1, 136443, Note_off_c, 0, 66, 64
1, 136458, Note_off_c, 0, 78, 64
1, 136568, Note_on_c, 0, 63, 69
1, 136569, Note_on_c, 0, 75, 75
1, 136570, Note_on_c, 0, 84, 74
1, 136570, Note_on_c, 0, 72, 56
1, 136614, Note_off_c, 0, 63, 64
1, 136620, Note_off_c, 0, 72, 64
1, 136624, Note_off_c, 0, 84, 64
1, 136637, Note_off_c, 0, 75, 64
1, 136724, Note_on_c, 0, 90, 85
1, 136728, Note_on_c, 0, 81, 57
1, 136729, Note_on_c, 0, 57, 80
1, 136732, Note_on_c, 0, 66, 64
1, 136772, Note_off_c, 0, 81, 64
1, 136779, Note_off_c, 0, 57, 64
1, 136781, Note_off_c, 0, 66, 64
1, 136786, Note_off_c, 0, 90, 64
1, 136874, Control_c, 0, 64, 0
1, 136904, Note_on_c, 0, 92, 92
1, 136907, Note_on_c, 0, 83, 108
1, 136912, Note_on_c, 0, 68, 79
1, 136916, Note_on_c, 0, 59, 64
1, 136960, Note_off_c, 0, 59, 64
1, 137014, Control_c, 0, 64, 127
1, 137059, Note_off_c, 0, 92, 64
1, 137072, Note_off_c, 0, 83, 64
1, 137096, Note_on_c, 0, 86, 73
1, 137100, Note_on_c, 0, 65, 36
1, 137104, Note_on_c, 0, 74, 75
1, 137104, Note_on_c, 0, 77, 62
1, 137122, Note_off_c, 0, 68, 64
1, 137136, Note_off_c, 0, 86, 64
1, 137139, Note_off_c, 0, 74, 64
1, 137148, Note_off_c, 0, 77, 64
1, 137162, Note_off_c, 0, 65, 64
1, 137288, Note_on_c, 0, 71, 76
1, 137288, Note_on_c, 0, 62, 55
1, 137288, Note_on_c, 0, 83, 62
1, 137291, Note_on_c, 0, 74, 76
1, 137332, Note_off_c, 0, 71, 64
1, 137332, Note_off_c, 0, 74, 64
1, 137340, Note_off_c, 0, 83, 64
1, 137360, Note_off_c, 0, 62, 64
1, 137450, Note_on_c, 0, 56, 76
1, 137454, Note_on_c, 0, 80, 75
1, 137454, Note_on_c, 0, 89, 95
1, 137457, Note_on_c, 0, 65, 47
1, 137490, Note_off_c, 0, 80, 64
1, 137496, Note_off_c, 0, 56, 64
1, 137506, Note_off_c, 0, 65, 64
1, 137508, Note_off_c, 0, 89, 64
1, 137596, Control_c, 0, 64, 0
1, 137604, Note_on_c, 0, 92, 98
1, 137608, Note_on_c, 0, 83, 106
1, 137610, Note_on_c, 0, 68, 81
1, 137616, Note_on_c, 0, 59, 29
1, 137684, Note_off_c, 0, 59, 64
1, 137692, Note_off_c, 0, 92, 64
1, 137745, Note_off_c, 0, 83, 64
1, 137752, Control_c, 0, 64, 127
1, 137770, Note_on_c, 0, 77, 78
1, 137774, Note_on_c, 0, 86, 43
1, 137776, Note_on_c, 0, 74, 70
1, 137778, Note_on_c, 0, 65, 47
1, 137806, Note_off_c, 0, 68, 64
1, 137814, Note_off_c, 0, 74, 64
1, 137829, Note_off_c, 0, 86, 64
1, 137830, Note_off_c, 0, 65, 64
1, 137834, Note_off_c, 0, 77, 64
1, 137928, Note_on_c, 0, 85, 56
1, 137932, Note_on_c, 0, 76, 72
1, 137934, Note_on_c, 0, 73, 64
1, 137936, Note_on_c, 0, 64, 65
1, 137976, Note_off_c, 0, 76, 64
1, 137984, Note_off_c, 0, 64, 64
1, 137988, Note_off_c, 0, 73, 64
1, 138030, Note_off_c, 0, 85, 64
1, 138076, Note_on_c, 0, 82, 84
1, 138078, Note_on_c, 0, 67, 72
1, 138080, Note_on_c, 0, 91, 80
1, 138082, Note_on_c, 0, 58, 66
1, 138119, Note_off_c, 0, 91, 64
1, 138126, Note_off_c, 0, 67, 64
1, 138126, Note_on_c, 0, 89, 24
1, 138129, Note_off_c, 0, 58, 64
1, 138190, Note_off_c, 0, 82, 64
1, 138192, Note_off_c, 0, 89, 64
1, 138232, Note_on_c, 0, 81, 86
1, 138232, Note_on_c, 0, 90, 87
1, 138246, Note_on_c, 0, 57, 68
1, 138250, Note_on_c, 0, 66, 79
1, 138258, Control_c, 0, 64, 0
1, 138290, Note_off_c, 0, 57, 64
1, 138320, Note_off_c, 0, 90, 64
1, 138396, Note_on_c, 0, 84, 76
1, 138398, Note_on_c, 0, 63, 63
1, 138398, Note_on_c, 0, 72, 67
1, 138402, Note_on_c, 0, 75, 85
1, 138412, Control_c, 0, 64, 127
1, 138416, Note_off_c, 0, 81, 64
1, 138438, Note_off_c, 0, 84, 64
1, 138440, Note_off_c, 0, 66, 64
1, 138444, Note_off_c, 0, 63, 64
1, 138444, Note_off_c, 0, 72, 64
1, 138504, Note_off_c, 0, 75, 64
1, 138561, Note_on_c, 0, 83, 100
1, 138562, Note_on_c, 0, 71, 89
1, 138564, Note_on_c, 0, 74, 86
1, 138566, Note_on_c, 0, 62, 75
1, 138598, Note_off_c, 0, 74, 64
1, 138607, Note_off_c, 0, 83, 64
1, 138608, Note_off_c, 0, 71, 64
1, 138616, Note_off_c, 0, 62, 64
1, 138702, Note_on_c, 0, 89, 96
1, 138704, Note_on_c, 0, 56, 81
1, 138705, Note_on_c, 0, 65, 75
1, 138705, Note_on_c, 0, 80, 100
1, 138748, Note_off_c, 0, 56, 64
1, 138751, Note_off_c, 0, 80, 64
1, 138752, Note_off_c, 0, 89, 64
1, 138755, Note_off_c, 0, 65, 64
1, 138856, Control_c, 0, 64, 0
1, 138882, Note_on_c, 0, 92, 94
1, 138882, Note_on_c, 0, 68, 86
1, 138892, Note_on_c, 0, 83, 107
1, 138894, Note_on_c, 0, 59, 68
1, 138936, Note_off_c, 0, 59, 64
1, 139002, Note_off_c, 0, 92, 64
1, 139024, Note_off_c, 0, 83, 64
1, 139026, Control_c, 0, 64, 127
1, 139035, Note_on_c, 0, 65, 46
1, 139038, Note_off_c, 0, 68, 64
1, 139048, Note_on_c, 0, 86, 24
1, 139052, Note_on_c, 0, 74, 85
1, 139052, Note_on_c, 0, 77, 71
1, 139088, Note_off_c, 0, 74, 64
1, 139101, Note_off_c, 0, 65, 64
1, 139106, Note_off_c, 0, 77, 64
1, 139114, Note_off_c, 0, 86, 64
1, 139226, Note_on_c, 0, 62, 46
1, 139228, Note_on_c, 0, 71, 80
1, 139228, Note_on_c, 0, 74, 73
1, 139232, Note_on_c, 0, 83, 53
1, 139268, Note_off_c, 0, 74, 64
1, 139270, Note_off_c, 0, 71, 64
1, 139290, Note_off_c, 0, 83, 64
1, 139292, Note_off_c, 0, 62, 64
1, 139382, Note_on_c, 0, 56, 79
1, 139386, Note_on_c, 0, 89, 89
1, 139390, Note_on_c, 0, 65, 46
1, 139392, Note_on_c, 0, 80, 44
1, 139440, Note_off_c, 0, 89, 64
1, 139450, Note_off_c, 0, 56, 64
1, 139456, Note_off_c, 0, 65, 64
1, 139456, Note_off_c, 0, 80, 64
1, 139534, Control_c, 0, 64, 0
1, 139558, Note_on_c, 0, 81, 78
1, 139564, Note_on_c, 0, 90, 83
1, 139568, Note_on_c, 0, 66, 77
1, 139590, Note_on_c, 0, 57, 46
1, 139650, Note_off_c, 0, 57, 64
1, 139664, Note_off_c, 0, 90, 64
1, 139704, Control_c, 0, 64, 127
1, 139732, Note_on_c, 0, 75, 79
1, 139735, Note_on_c, 0, 84, 72
1, 139740, Note_off_c, 0, 81, 64
1, 139742, Note_on_c, 0, 63, 65
1, 139742, Note_on_c, 0, 72, 67
1, 139774, Note_off_c, 0, 66, 64
1, 139774, Note_off_c, 0, 84, 64
1, 139788, Note_off_c, 0, 72, 64
1, 139791, Note_off_c, 0, 63, 64
1, 139830, Note_off_c, 0, 75, 64
1, 139932, Note_on_c, 0, 81, 83
1, 139935, Note_on_c, 0, 72, 76
1, 139937, Note_on_c, 0, 69, 46
1, 139939, Note_on_c, 0, 60, 63
1, 139976, Note_off_c, 0, 72, 64
1, 139995, Note_off_c, 0, 60, 64
1, 139997, Note_off_c, 0, 69, 64
1, 140034, Note_off_c, 0, 81, 64
1, 140092, Note_on_c, 0, 54, 85
1, 140102, Note_on_c, 0, 87, 84
1, 140104, Note_on_c, 0, 63, 72
1, 140106, Note_on_c, 0, 78, 55
1, 140128, Note_off_c, 0, 54, 64
1, 140142, Note_off_c, 0, 63, 64
1, 140154, Note_off_c, 0, 78, 64
1, 140198, Note_off_c, 0, 87, 64
1, 140256, Control_c, 0, 64, 0
1, 140270, Note_on_c, 0, 90, 89
1, 140272, Note_on_c, 0, 66, 76
1, 140278, Note_on_c, 0, 81, 88
1, 140280, Note_on_c, 0, 57, 63
1, 140328, Note_off_c, 0, 57, 64
1, 140378, Control_c, 0, 64, 127
1, 140380, Note_off_c, 0, 90, 64
1, 140402, Note_off_c, 0, 81, 64
1, 140432, Note_on_c, 0, 63, 63
1, 140434, Note_on_c, 0, 72, 69
1, 140434, Note_on_c, 0, 75, 83
1, 140436, Note_on_c, 0, 84, 78
1, 140450, Note_off_c, 0, 66, 64
1, 140478, Note_off_c, 0, 84, 64
1, 140482, Note_off_c, 0, 72, 64
1, 140484, Note_off_c, 0, 63, 64
1, 140544, Note_off_c, 0, 75, 64
1, 140594, Note_on_c, 0, 83, 110
1, 140594, Note_on_c, 0, 71, 80
1, 140596, Note_on_c, 0, 74, 77
1, 140598, Note_on_c, 0, 62, 66
1, 140634, Note_off_c, 0, 74, 64
1, 140648, Note_off_c, 0, 71, 64
1, 140666, Note_off_c, 0, 62, 64
1, 140670, Note_off_c, 0, 83, 64
1, 140748, Note_on_c, 0, 56, 78
1, 140748, Note_on_c, 0, 89, 101
1, 140751, Note_on_c, 0, 80, 81
1, 140758, Note_on_c, 0, 65, 54
1, 140790, Note_off_c, 0, 80, 64
1, 140792, Note_off_c, 0, 89, 64
1, 140802, Note_off_c, 0, 56, 64
1, 140802, Note_off_c, 0, 65, 64
1, 140854, Control_c, 0, 64, 0
1, 140892, Note_on_c, 0, 88, 91
1, 140898, Note_on_c, 0, 64, 88
1, 140898, Note_on_c, 0, 79, 96
1, 140900, Note_on_c, 0, 55, 82
1, 140932, Note_off_c, 0, 88, 64
1, 140938, Note_off_c, 0, 55, 64
1, 140946, Note_on_c, 0, 82, 13
1, 141006, Note_off_c, 0, 82, 64
1, 141020, Control_c, 0, 64, 127
1, 141022, Note_off_c, 0, 64, 64
1, 141048, Note_on_c, 0, 61, 58
1, 141056, Note_on_c, 0, 73, 90
1, 141057, Note_on_c, 0, 70, 64
1, 141060, Note_on_c, 0, 82, 69
1, 141068, Note_off_c, 0, 79, 64
1, 141104, Note_off_c, 0, 61, 64
1, 141129, Note_off_c, 0, 70, 64
1, 141130, Note_off_c, 0, 82, 64
1, 141162, Note_off_c, 0, 73, 64
1, 141206, Note_on_c, 0, 69, 69
1, 141210, Note_on_c, 0, 60, 84
1, 141218, Note_on_c, 0, 72, 83
1, 141218, Note_on_c, 0, 81, 81
1, 141252, Note_off_c, 0, 69, 64
1, 141258, Note_off_c, 0, 72, 64
1, 141288, Note_off_c, 0, 60, 64
1, 141298, Note_off_c, 0, 81, 64
1, 141360, Note_on_c, 0, 54, 92
1, 141360, Note_on_c, 0, 87, 82
1, 141360, Note_on_c, 0, 78, 74
1, 141364, Note_on_c, 0, 63, 83
1, 141484, Control_c, 0, 64, 0
1, 141529, Note_off_c, 0, 78, 64
1, 141530, Note_off_c, 0, 87, 64
1, 141530, Note_on_c, 0, 86, 93
1, 141532, Note_on_c, 0, 53, 100
1, 141534, Note_off_c, 0, 54, 64
1, 141538, Note_on_c, 0, 77, 83
1, 141540, Note_on_c, 0, 62, 91
1, 141542, Note_off_c, 0, 63, 64
1, 141576, Note_off_c, 0, 53, 64
1, 141638, Control_c, 0, 64, 127
1, 141642, Note_off_c, 0, 86, 64
1, 141678, Note_off_c, 0, 77, 64
1, 141700, Note_off_c, 0, 62, 64
1, 141710, Note_on_c, 0, 68, 72
1, 141714, Note_on_c, 0, 59, 59
1, 141714, Note_on_c, 0, 80, 79
1, 141716, Note_on_c, 0, 71, 89
1, 141760, Note_off_c, 0, 68, 64
1, 141760, Note_off_c, 0, 59, 64
1, 141776, Note_off_c, 0, 71, 64
1, 141834, Note_off_c, 0, 80, 64
1, 141900, Control_c, 0, 64, 0
1, 141900, Note_on_c, 0, 79, 84
1, 141906, Note_on_c, 0, 70, 70
1, 141907, Note_on_c, 0, 67, 81
1, 141908, Note_on_c, 0, 58, 67
1, 142050, Note_off_c, 0, 58, 64
1, 142052, Control_c, 0, 64, 127
1, 142090, Note_off_c, 0, 79, 64
1, 142093, Note_on_c, 0, 85, 86
1, 142097, Note_off_c, 0, 67, 64
1, 142104, Note_on_c, 0, 76, 66
1, 142110, Note_off_c, 0, 70, 64
1, 142112, Note_on_c, 0, 61, 73
1, 142115, Note_on_c, 0, 52, 84
1, 142154, Note_off_c, 0, 52, 64
1, 142206, Note_off_c, 0, 85, 64
1, 142256, Note_off_c, 0, 76, 64
1, 142259, Note_off_c, 0, 61, 64
1, 142322, Note_on_c, 0, 79, 87
1, 142323, Note_on_c, 0, 58, 59
1, 142323, Note_on_c, 0, 67, 67
1, 142325, Note_on_c, 0, 70, 68
1, 142365, Note_off_c, 0, 70, 64
1, 142373, Note_off_c, 0, 67, 64
1, 142500, Note_off_c, 0, 58, 64
1, 142506, Note_on_c, 0, 85, 83
1, 142510, Note_off_c, 0, 79, 64
1, 142514, Note_on_c, 0, 61, 66
1, 142520, Note_on_c, 0, 52, 69
1, 142520, Note_on_c, 0, 76, 62
1, 142562, Note_off_c, 0, 52, 64
1, 142622, Note_off_c, 0, 85, 64
1, 142644, Note_off_c, 0, 76, 64
1, 142656, Note_off_c, 0, 61, 64
1, 142690, Note_on_c, 0, 79, 81
1, 142692, Note_on_c, 0, 67, 75
1, 142694, Note_on_c, 0, 70, 71
1, 142695, Note_on_c, 0, 58, 60
1, 142736, Note_off_c, 0, 70, 64
1, 142744, Note_off_c, 0, 67, 64
1, 142851, Note_off_c, 0, 79, 64
1, 142854, Note_on_c, 0, 60, 70
1, 142854, Note_on_c, 0, 84, 84
1, 142860, Note_off_c, 0, 58, 64
1, 142872, Note_on_c, 0, 76, 67
1, 142880, Note_on_c, 0, 52, 54
1, 142932, Note_off_c, 0, 52, 64
1, 142970, Note_off_c, 0, 84, 64
1, 142982, Note_off_c, 0, 60, 64
1, 143032, Note_on_c, 0, 58, 55
1, 143032, Note_on_c, 0, 70, 76
1, 143035, Note_on_c, 0, 66, 76
1, 143035, Note_on_c, 0, 78, 89
1, 143040, Note_off_c, 0, 76, 64
1, 143052, Control_c, 0, 64, 0
1, 143160, Control_c, 0, 64, 127
1, 143180, Note_off_c, 0, 66, 64
1, 143193, Note_off_c, 0, 70, 64
1, 143194, Note_off_c, 0, 58, 64
1, 143216, Note_on_c, 0, 84, 87
1, 143230, Note_on_c, 0, 60, 70
1, 143232, Note_on_c, 0, 52, 56
1, 143232, Note_on_c, 0, 76, 54
1, 143242, Note_off_c, 0, 78, 64
1, 143282, Note_off_c, 0, 52, 64
1, 143288, Note_off_c, 0, 84, 64
1, 143340, Note_off_c, 0, 76, 64
1, 143364, Note_off_c, 0, 60, 64
1, 143394, Note_on_c, 0, 78, 75
1, 143396, Note_on_c, 0, 70, 80
1, 143400, Note_on_c, 0, 66, 66
1, 143402, Note_on_c, 0, 58, 48
1, 143436, Control_c, 0, 64, 0
1, 143552, Note_off_c, 0, 58, 64
1, 143558, Control_c, 0, 64, 127
1, 143573, Note_off_c, 0, 66, 64
1, 143596, Note_off_c, 0, 70, 64
1, 143610, Note_on_c, 0, 84, 84
1, 143614, Note_on_c, 0, 76, 72
1, 143614, Note_on_c, 0, 60, 55
1, 143616, Note_on_c, 0, 52, 76
1, 143658, Note_off_c, 0, 52, 64
1, 143662, Note_off_c, 0, 78, 64
1, 143706, Note_off_c, 0, 84, 64
1, 143754, Note_off_c, 0, 76, 64
1, 143754, Note_off_c, 0, 60, 64
1, 143804, Note_on_c, 0, 78, 81
1, 143806, Note_on_c, 0, 66, 67
1, 143809, Note_on_c, 0, 69, 66
1, 143814, Note_on_c, 0, 57, 49
1, 144009, Note_off_c, 0, 69, 64
1, 144022, Note_on_c, 0, 76, 64
1, 144025, Note_on_c, 0, 84, 87
1, 144025, Note_on_c, 0, 52, 71
1, 144032, Note_on_c, 0, 60, 66
1, 144034, Control_c, 0, 64, 0
1, 144040, Note_off_c, 0, 57, 64
1, 144044, Note_off_c, 0, 66, 64
1, 144091, Note_off_c, 0, 78, 64
1, 144134, Note_off_c, 0, 84, 64
1, 144172, Control_c, 0, 64, 127
1, 144268, Note_off_c, 0, 52, 64
1, 144285, Note_on_c, 0, 66, 77
1, 144285, Note_on_c, 0, 78, 84
1, 144287, Note_on_c, 0, 69, 70
1, 144289, Note_on_c, 0, 57, 57
1, 144292, Note_off_c, 0, 60, 64
1, 144309, Note_off_c, 0, 76, 64
1, 144339, Note_off_c, 0, 66, 64
1, 144343, Note_off_c, 0, 57, 64
1, 144505, Note_off_c, 0, 69, 64
1, 144745, Note_on_c, 0, 83, 111
1, 144745, Note_on_c, 0, 75, 72
1, 144749, Note_on_c, 0, 59, 64
1, 144751, Note_on_c, 0, 47, 61
1, 144805, Control_c, 0, 64, 0
1, 144841, Note_off_c, 0, 78, 64
1, 145067, Control_c, 0, 64, 127
1, 145069, Note_off_c, 0, 59, 64
1, 145111, Note_off_c, 0, 47, 64
1, 145137, Note_off_c, 0, 83, 64
1, 145143, Note_off_c, 0, 75, 64
1, 145993, Note_on_c, 0, 71, 70
1, 146003, Note_on_c, 0, 62, 39
1, 146003, Note_on_c, 0, 52, 63
1, 146141, Control_c, 0, 64, 0
1, 146409, Note_on_c, 0, 68, 69
1, 146429, Note_on_c, 0, 64, 47
1, 146465, Note_off_c, 0, 62, 64
1, 146465, Control_c, 0, 64, 127
1, 146475, Note_off_c, 0, 71, 64
1, 146511, Note_off_c, 0, 64, 64
1, 146743, Note_on_c, 0, 61, 60
1, 146745, Note_on_c, 0, 71, 80
1, 146757, Note_on_c, 0, 45, 41
1, 146769, Note_off_c, 0, 52, 64
1, 146773, Control_c, 0, 64, 0
1, 146789, Note_off_c, 0, 68, 64
1, 147033, Control_c, 0, 64, 127
1, 147049, Note_off_c, 0, 61, 64
1, 147057, Note_on_c, 0, 69, 63
1, 147069, Note_on_c, 0, 64, 34
1, 147081, Note_off_c, 0, 45, 64
1, 147084, Note_off_c, 0, 71, 64
1, 147129, Note_off_c, 0, 64, 64
1, 147179, Note_off_c, 0, 69, 64
1, 147381, Note_on_c, 0, 66, 51
1, 147393, Note_on_c, 0, 48, 44
1, 147396, Note_on_c, 0, 57, 36
1, 147417, Control_c, 0, 64, 0
1, 147689, Note_off_c, 0, 57, 64
1, 147705, Note_on_c, 0, 64, 44
1, 147817, Control_c, 0, 64, 127
1, 148011, Note_on_c, 0, 57, 28
1, 148019, Note_off_c, 0, 48, 64
1, 148031, Note_on_c, 0, 47, 32
1, 148073, Note_off_c, 0, 64, 64
1, 148123, Control_c, 0, 64, 0
1, 148385, Control_c, 0, 64, 127
1, 148417, Note_on_c, 0, 63, 36
1, 148420, Note_off_c, 0, 57, 64
1, 148523, Note_off_c, 0, 66, 64
1, 148567, Note_off_c, 0, 47, 64
1, 148701, Note_off_c, 0, 63, 64
1, 148741, Note_on_c, 0, 71, 66
1, 148759, Note_on_c, 0, 62, 42
1, 148765, Note_on_c, 0, 52, 40
1, 148847, Control_c, 0, 64, 0
1, 149031, Control_c, 0, 64, 127
1, 149043, Note_off_c, 0, 52, 64
1, 149048, Note_on_c, 0, 68, 61
1, 149051, Note_on_c, 0, 54, 52
1, 149071, Note_off_c, 0, 71, 64
1, 149075, Note_off_c, 0, 62, 64
1, 149085, Note_on_c, 0, 64, 38
1, 149143, Note_off_c, 0, 64, 64
1, 149195, Note_off_c, 0, 54, 64
1, 149223, Note_on_c, 0, 52, 65
1, 149291, Note_off_c, 0, 68, 64
1, 149329, Note_on_c, 0, 71, 68
1, 149341, Note_on_c, 0, 61, 39
1, 149353, Note_off_c, 0, 52, 64
1, 149353, Control_c, 0, 64, 0
1, 149381, Note_on_c, 0, 45, 43
1, 149561, Note_off_c, 0, 61, 64
1, 149583, Control_c, 0, 64, 127
1, 149621, Note_on_c, 0, 69, 55
1, 149641, Note_off_c, 0, 71, 64
1, 149641, Note_on_c, 0, 64, 38
1, 149687, Note_off_c, 0, 45, 64
1, 149701, Note_off_c, 0, 64, 64
1, 149711, Note_off_c, 0, 69, 64
1, 149925, Note_on_c, 0, 66, 53
1, 149935, Note_on_c, 0, 57, 40
1, 149939, Note_on_c, 0, 48, 36
1, 150015, Control_c, 0, 64, 0
1, 150239, Note_off_c, 0, 57, 64
1, 150249, Note_on_c, 0, 64, 39
1, 150259, Control_c, 0, 64, 127
1, 150511, Note_off_c, 0, 48, 64
1, 150567, Control_c, 0, 64, 0
1, 150581, Note_on_c, 0, 57, 29
1, 150584, Note_on_c, 0, 47, 36
1, 150651, Note_off_c, 0, 64, 64
1, 150951, Note_on_c, 0, 63, 38
1, 150967, Control_c, 0, 64, 127
1, 151037, Note_off_c, 0, 57, 64
1, 151153, Note_off_c, 0, 66, 64
1, 151297, Note_on_c, 0, 68, 55
1, 151307, Note_off_c, 0, 63, 64
1, 151329, Note_on_c, 0, 57, 31
1, 151361, Note_on_c, 0, 35, 38
1, 151569, Note_off_c, 0, 57, 64
1, 151609, Note_off_c, 0, 68, 64
1, 151669, Note_on_c, 0, 66, 60
1, 151689, Note_on_c, 0, 59, 47
1, 151767, Note_off_c, 0, 59, 64
1, 151803, Note_off_c, 0, 47, 64
1, 151821, Note_off_c, 0, 66, 64
1, 151979, Note_on_c, 0, 66, 62
1, 151989, Note_on_c, 0, 56, 39
1, 152003, Note_on_c, 0, 40, 44
1, 152087, Note_off_c, 0, 35, 64
1, 152181, Control_c, 0, 64, 0
1, 152283, Note_on_c, 0, 64, 74
1, 152317, Note_on_c, 0, 59, 32
1, 152357, Note_off_c, 0, 66, 64
1, 152411, Control_c, 0, 64, 127
1, 152433, Note_off_c, 0, 59, 64
1, 152485, Note_off_c, 0, 56, 64
1, 152563, Note_off_c, 0, 64, 64
1, 152577, Note_on_c, 0, 61, 70
1, 152605, Note_on_c, 0, 55, 39
1, 152608, Note_on_c, 0, 47, 35
1, 152611, Control_c, 0, 64, 0
1, 152637, Note_off_c, 0, 40, 64
1, 152869, Note_on_c, 0, 59, 36
1, 152873, Control_c, 0, 64, 127
1, 152895, Note_off_c, 0, 55, 64
1, 152977, Note_off_c, 0, 59, 64
1, 153191, Note_on_c, 0, 64, 45
1, 153194, Note_on_c, 0, 54, 32
1, 153257, Note_off_c, 0, 61, 64
1, 153287, Control_c, 0, 64, 0
1, 153501, Control_c, 0, 64, 127
1, 153607, Note_on_c, 0, 63, 38
1, 153609, Note_off_c, 0, 64, 64
1, 153629, Note_on_c, 0, 59, 22
1, 153659, Note_off_c, 0, 54, 64
1, 153707, Note_off_c, 0, 59, 64
1, 153719, Note_off_c, 0, 63, 64
1, 153991, Note_on_c, 0, 68, 46
1, 154023, Note_on_c, 0, 57, 31
1, 154067, Note_on_c, 0, 35, 15
1, 154285, Note_off_c, 0, 35, 64
1, 154285, Note_on_c, 0, 37, 39
1, 154325, Note_on_c, 0, 66, 40
1, 154328, Note_off_c, 0, 57, 64
1, 154331, Note_off_c, 0, 68, 64
1, 154415, Note_on_c, 0, 59, 5
1, 154427, Note_off_c, 0, 66, 64
1, 154471, Note_off_c, 0, 37, 64
1, 154485, Note_on_c, 0, 35, 51
1, 154551, Note_off_c, 0, 59, 64
1, 154643, Note_off_c, 0, 35, 64
1, 154655, Note_on_c, 0, 66, 40
1, 154665, Note_on_c, 0, 56, 38
1, 154685, Control_c, 0, 64, 0
1, 154691, Note_off_c, 0, 47, 64
1, 154697, Note_on_c, 0, 40, 48
1, 154995, Note_on_c, 0, 64, 49
1, 155013, Note_on_c, 0, 59, 31
1, 155023, Control_c, 0, 64, 127
1, 155033, Note_off_c, 0, 40, 64
1, 155063, Note_off_c, 0, 66, 64
1, 155125, Note_off_c, 0, 56, 64
1, 155141, Note_off_c, 0, 59, 64
1, 155149, Note_off_c, 0, 64, 64
1, 155293, Note_on_c, 0, 61, 56
1, 155311, Note_on_c, 0, 47, 37
1, 155313, Note_on_c, 0, 55, 39
1, 155423, Control_c, 0, 64, 0
1, 155607, Note_on_c, 0, 59, 37
1, 155621, Note_off_c, 0, 55, 64
1, 155621, Control_c, 0, 64, 127
1, 155735, Note_off_c, 0, 59, 64
1, 155891, Note_on_c, 0, 54, 32
1, 155891, Note_on_c, 0, 64, 48
1, 155957, Note_off_c, 0, 61, 64
1, 156053, Control_c, 0, 64, 0
1, 156253, Control_c, 0, 64, 127
1, 156273, Note_on_c, 0, 63, 47
1, 156299, Note_on_c, 0, 59, 23
1, 156323, Note_off_c, 0, 64, 64
1, 156417, Note_off_c, 0, 54, 64
1, 156423, Note_off_c, 0, 59, 64
1, 156559, Note_on_c, 0, 55, 45
1, 156577, Note_on_c, 0, 40, 40
1, 156731, Note_off_c, 0, 40, 64
1, 156757, Note_on_c, 0, 42, 36
1, 156839, Note_on_c, 0, 61, 56
1, 156883, Note_on_c, 0, 59, 25
1, 156891, Note_off_c, 0, 63, 64
1, 156911, Note_off_c, 0, 55, 64
1, 156943, Note_off_c, 0, 42, 64
1, 156947, Note_on_c, 0, 40, 37
1, 157023, Note_off_c, 0, 40, 64
1, 157053, Note_off_c, 0, 47, 64
1, 157077, Note_off_c, 0, 59, 64
1, 157153, Note_on_c, 0, 54, 33
1, 157157, Note_on_c, 0, 64, 48
1, 157159, Note_on_c, 0, 35, 48
1, 157189, Control_c, 0, 64, 0
1, 157225, Note_off_c, 0, 61, 64
1, 157415, Note_off_c, 0, 35, 64
1, 157420, Control_c, 0, 64, 127
1, 157469, Note_on_c, 0, 63, 44
1, 157523, Note_off_c, 0, 64, 64
1, 157523, Note_on_c, 0, 59, 15
1, 157607, Note_off_c, 0, 54, 64
1, 157765, Note_on_c, 0, 55, 47
1, 157777, Note_on_c, 0, 47, 30
1, 157787, Note_off_c, 0, 59, 64
1, 158031, Note_on_c, 0, 61, 55
1, 158049, Note_off_c, 0, 55, 64
1, 158059, Note_off_c, 0, 63, 64
1, 158085, Note_on_c, 0, 59, 16
1, 158187, Note_off_c, 0, 59, 64
1, 158335, Note_on_c, 0, 54, 33
1, 158345, Note_on_c, 0, 64, 46
1, 158403, Note_off_c, 0, 61, 64
1, 158481, Control_c, 0, 64, 0
1, 158619, Control_c, 0, 64, 127
1, 158651, Note_on_c, 0, 63, 36
1, 158677, Note_on_c, 0, 59, 17
1, 158689, Note_off_c, 0, 64, 64
1, 158775, Note_off_c, 0, 54, 64
1, 158791, Note_off_c, 0, 59, 64
1, 158917, Note_on_c, 0, 55, 43
1, 158957, Control_c, 0, 64, 0
1, 158979, Note_on_c, 0, 40, 25
1, 159093, Note_off_c, 0, 40, 64
1, 159111, Note_off_c, 0, 47, 64
1, 159139, Note_on_c, 0, 42, 25
1, 159141, Control_c, 0, 64, 127
1, 159187, Note_on_c, 0, 61, 43
1, 159213, Note_on_c, 0, 59, 22
1, 159225, Note_off_c, 0, 63, 64
1, 159281, Note_off_c, 0, 55, 64
1, 159335, Note_off_c, 0, 59, 64
1, 159353, Note_off_c, 0, 42, 64
1, 159359, Note_on_c, 0, 40, 45
1, 159429, Note_off_c, 0, 40, 64
1, 159543, Note_on_c, 0, 54, 32
1, 159555, Control_c, 0, 64, 0
1, 159561, Note_on_c, 0, 64, 41
1, 159595, Note_on_c, 0, 47, 38
1, 159655, Note_off_c, 0, 61, 64
1, 159909, Control_c, 0, 64, 127
1, 159963, Note_on_c, 0, 63, 35
1, 159975, Note_off_c, 0, 64, 64
1, 159985, Note_on_c, 0, 59, 19
1, 160101, Note_off_c, 0, 54, 64
1, 160191, Note_off_c, 0, 59, 64
1, 160267, Note_on_c, 0, 55, 46
1, 160629, Note_on_c, 0, 61, 48
1, 160647, Note_on_c, 0, 59, 30
1, 160707, Note_off_c, 0, 63, 64
1, 161061, Control_c, 0, 64, 0
1, 161071, Note_on_c, 0, 54, 29
1, 161089, Note_off_c, 0, 59, 64
1, 161094, Note_on_c, 0, 64, 41
1, 161141, Note_off_c, 0, 55, 64
1, 161167, Note_off_c, 0, 61, 64
1, 161277, Note_off_c, 0, 47, 64
1, 161431, Control_c, 0, 64, 127
1, 161495, Note_on_c, 0, 63, 40
1, 161511, Note_off_c, 0, 64, 64
1, 161515, Note_on_c, 0, 59, 22
1, 161551, Note_off_c, 0, 54, 64
1, 161849, Note_on_c, 0, 54, 34
1, 161853, Note_off_c, 0, 59, 64
1, 161869, Note_on_c, 0, 64, 43
1, 161873, Note_off_c, 0, 63, 64
1, 162155, Note_off_c, 0, 54, 64
1, 162183, Note_off_c, 0, 64, 64
1, 162186, Note_on_c, 0, 63, 48
1, 162195, Note_on_c, 0, 59, 43
1, 162491, Note_on_c, 0, 54, 35
1, 162497, Note_on_c, 0, 64, 47
1, 162505, Note_off_c, 0, 63, 64
1, 162513, Note_off_c, 0, 59, 64
1, 162521, Control_c, 0, 64, 0
1, 162691, Control_c, 0, 64, 127
1, 162801, Note_off_c, 0, 64, 64
1, 162811, Note_on_c, 0, 63, 38
1, 162819, Note_on_c, 0, 61, 33
1, 162821, Note_off_c, 0, 54, 64
1, 163149, Note_on_c, 0, 54, 35
1, 163151, Control_c, 0, 64, 0
1, 163165, Note_off_c, 0, 63, 64
1, 163175, Note_on_c, 0, 42, 34
1, 163175, Note_on_c, 0, 64, 35
1, 163183, Note_off_c, 0, 61, 64
1, 163427, Control_c, 0, 64, 127
1, 163479, Note_off_c, 0, 42, 64
1, 163491, Note_on_c, 0, 44, 38
1, 163583, Note_off_c, 0, 54, 64
1, 163615, Note_on_c, 0, 63, 39
1, 163627, Note_off_c, 0, 64, 64
1, 163627, Control_c, 0, 64, 0
1, 163633, Note_on_c, 0, 61, 29
1, 163741, Note_on_c, 0, 42, 36
1, 163777, Note_off_c, 0, 44, 64
1, 163795, Control_c, 0, 64, 127
1, 164019, Note_off_c, 0, 61, 64
1, 164025, Note_off_c, 0, 42, 64
1, 164029, Note_off_c, 0, 63, 64
1, 164035, Note_on_c, 0, 54, 29
1, 164057, Control_c, 0, 64, 0
1, 164059, Note_on_c, 0, 64, 31
1, 164111, Note_on_c, 0, 35, 40
1, 164471, Note_on_c, 0, 63, 35
1, 164489, Note_off_c, 0, 54, 64
1, 164489, Note_off_c, 0, 64, 64
1, 164497, Note_on_c, 0, 57, 20
1, 164519, Control_c, 0, 64, 127
1, 164663, Note_off_c, 0, 57, 64
1, 164881, Note_on_c, 0, 64, 38
1, 164884, Note_on_c, 0, 54, 31
1, 164891, Note_off_c, 0, 63, 64
1, 164987, Note_off_c, 0, 54, 64
1, 165303, Note_on_c, 0, 63, 38
1, 165309, Note_off_c, 0, 64, 64
1, 165337, Note_on_c, 0, 57, 17
1, 165379, Control_c, 0, 64, 0
1, 165533, Control_c, 0, 64, 127
1, 165551, Note_off_c, 0, 57, 64
1, 165801, Note_on_c, 0, 64, 26
1, 165803, Note_on_c, 0, 54, 24
1, 165815, Note_off_c, 0, 63, 64
1, 165825, Control_c, 0, 64, 0
1, 166055, Control_c, 0, 64, 127
1, 166249, Note_off_c, 0, 54, 64
1, 166347, Note_on_c, 0, 63, 28
1, 166367, Note_off_c, 0, 64, 64
1, 166377, Control_c, 0, 64, 0
1, 166387, Note_on_c, 0, 59, 12
1, 166625, Control_c, 0, 64, 127
1, 166917, Note_off_c, 0, 59, 64
1, 166939, Note_off_c, 0, 63, 64
1, 166947, Note_on_c, 0, 61, 23
1, 166953, Note_on_c, 0, 54, 20
1, 167039, Control_c, 0, 64, 0
1, 167223, Control_c, 0, 64, 127
1, 167343, Note_off_c, 0, 35, 64
1, 167805, Note_on_c, 0, 63, 27
1, 167813, Note_off_c, 0, 61, 64
1, 167841, Note_on_c, 0, 59, 9
1, 167921, Note_off_c, 0, 54, 64
1, 168175, Control_c, 0, 64, 0
1, 168345, Control_c, 0, 64, 127
1, 168447, Note_off_c, 0, 59, 64
1, 168895, Note_on_c, 0, 64, 34
1, 168919, Note_on_c, 0, 56, 15
1, 168927, Note_on_c, 0, 40, 22
1, 168999, Note_off_c, 0, 63, 64
1, 169373, Control_c, 0, 64, 0
1, 169619, Control_c, 0, 64, 127
1, 169893, Note_on_c, 0, 47, 9
1, 169923, Note_on_c, 0, 59, 7
1, 169955, Note_off_c, 0, 56, 64
1, 170197, Note_off_c, 0, 59, 64
1, 170491, Note_on_c, 0, 63, 32
1, 170513, Note_on_c, 0, 56, 12
1, 170553, Note_off_c, 0, 64, 64
1, 170593, Note_off_c, 0, 47, 64
1, 170795, Note_off_c, 0, 56, 64
1, 171051, Note_on_c, 0, 64, 45
1, 171075, Note_on_c, 0, 47, 11
1, 171101, Note_on_c, 0, 59, 15
1, 171127, Note_off_c, 0, 63, 64
1, 171173, Control_c, 0, 64, 0
1, 171295, Control_c, 0, 64, 127
1, 171321, Note_off_c, 0, 59, 64
1, 171349, Note_off_c, 0, 47, 64
1, 171545, Note_on_c, 0, 66, 29
1, 171573, Note_off_c, 0, 64, 64
1, 171573, Note_on_c, 0, 35, 29
1, 171589, Note_on_c, 0, 57, 21
1, 171591, Note_off_c, 0, 40, 64
1, 171591, Note_on_c, 0, 63, 17
1, 171663, Control_c, 0, 64, 0
1, 171925, Control_c, 0, 64, 127
1, 172063, Note_off_c, 0, 57, 64
1, 172195, Note_on_c, 0, 47, 19
1, 172209, Note_on_c, 0, 59, 17
1, 172277, Control_c, 0, 64, 0
1, 172401, Control_c, 0, 64, 127
1, 172577, Note_off_c, 0, 59, 64
1, 172607, Note_off_c, 0, 47, 64
1, 172727, Note_on_c, 0, 57, 10
1, 173045, Note_off_c, 0, 57, 64
1, 173231, Note_on_c, 0, 59, 25
1, 173237, Note_on_c, 0, 47, 12
1, 173355, Note_off_c, 0, 35, 64
1, 173485, Note_off_c, 0, 59, 64
1, 173565, Note_off_c, 0, 47, 64
1, 173741, Note_on_c, 0, 57, 21
1, 173773, Note_on_c, 0, 35, 26
1, 173909, Note_off_c, 0, 57, 64
1, 174033, Note_off_c, 0, 66, 64
1, 174039, Note_off_c, 0, 63, 64
1, 174253, Note_on_c, 0, 68, 49
1, 174307, Note_on_c, 0, 47, 17
1, 174311, Note_on_c, 0, 59, 15
1, 174429, Note_off_c, 0, 59, 64
1, 174547, Note_off_c, 0, 68, 64
1, 174819, Note_on_c, 0, 68, 48
1, 174875, Note_on_c, 0, 57, 15
1, 174878, Note_on_c, 0, 63, 29
1, 174977, Note_off_c, 0, 47, 64
1, 175123, Note_off_c, 0, 57, 64
1, 175405, Note_on_c, 0, 66, 43
1, 175455, Note_on_c, 0, 47, 19
1, 175467, Note_on_c, 0, 59, 19
1, 175471, Note_off_c, 0, 68, 64
1, 175499, Note_off_c, 0, 63, 64
1, 175609, Note_off_c, 0, 59, 64
1, 175789, Note_off_c, 0, 66, 64
1, 175901, Note_off_c, 0, 47, 64
1, 176147, Note_on_c, 0, 68, 31
1, 176173, Note_on_c, 0, 40, 30
1, 176179, Note_on_c, 0, 56, 8
1, 176219, Note_on_c, 0, 64, 18
1, 176257, Note_off_c, 0, 35, 64
1, 176303, Control_c, 0, 64, 0
1, 176773, Note_off_c, 0, 56, 64
1, 176795, Control_c, 0, 64, 127
1, 176829, Note_on_c, 0, 59, 22
1, 176843, Note_on_c, 0, 47, 18
1, 177023, Note_off_c, 0, 59, 64
1, 177307, Note_on_c, 0, 56, 17
1, 177351, Note_off_c, 0, 47, 64
1, 177563, Note_off_c, 0, 56, 64
1, 177779, Note_on_c, 0, 47, 16
1, 177797, Note_on_c, 0, 59, 18
1, 177829, Note_off_c, 0, 40, 64
1, 177975, Note_off_c, 0, 59, 64
1, 178097, Note_off_c, 0, 47, 64
1, 178311, Note_on_c, 0, 56, 15
1, 178323, Note_on_c, 0, 40, 26
1, 178489, Note_off_c, 0, 56, 64
1, 178555, Note_off_c, 0, 64, 64
1, 178683, Note_off_c, 0, 68, 64
1, 179005, Note_on_c, 0, 69, 46
1, 179049, Note_on_c, 0, 47, 22
1, 179091, Note_on_c, 0, 64, 10
1, 179219, Note_off_c, 0, 64, 64
1, 179257, Note_off_c, 0, 69, 64
1, 179523, Note_on_c, 0, 69, 66
1, 179569, Note_on_c, 0, 59, 37
1, 179591, Note_off_c, 0, 47, 64
1, 179845, Note_off_c, 0, 59, 64
1, 179987, Note_on_c, 0, 68, 76
1, 180017, Note_on_c, 0, 47, 23
1, 180027, Note_off_c, 0, 69, 64
1, 180043, Note_on_c, 0, 64, 23
1, 180225, Note_off_c, 0, 64, 64
1, 180257, Note_off_c, 0, 40, 64
1, 180259, Note_off_c, 0, 47, 64
1, 180365, Note_off_c, 0, 68, 64
1, 180627, Note_on_c, 0, 73, 64
1, 180679, Note_on_c, 0, 63, 21
1, 180695, Note_on_c, 0, 35, 23
1, 180775, Control_c, 0, 64, 0
1, 181251, Note_on_c, 0, 47, 21
1, 181265, Note_on_c, 0, 69, 10
1, 181337, Note_off_c, 0, 63, 64
1, 181343, Control_c, 0, 64, 127
1, 181465, Note_off_c, 0, 73, 64
1, 181485, Note_off_c, 0, 69, 64
1, 181529, Note_off_c, 0, 47, 64
1, 181815, Note_on_c, 0, 59, 20
1, 181933, Note_off_c, 0, 59, 64
1, 182335, Note_on_c, 0, 71, 60
1, 182361, Note_on_c, 0, 63, 20
1, 182385, Note_on_c, 0, 47, 17
1, 182585, Note_off_c, 0, 71, 64
1, 182687, Note_off_c, 0, 47, 64
1, 182939, Note_on_c, 0, 69, 34
1, 182975, Note_on_c, 0, 40, 27
1, 183011, Note_off_c, 0, 63, 64
1, 183014, Note_on_c, 0, 59, 4
1, 183095, Control_c, 0, 64, 0
1, 183123, Note_off_c, 0, 35, 64
1, 183309, Control_c, 0, 64, 127
1, 183363, Note_off_c, 0, 59, 64
1, 183481, Note_off_c, 0, 69, 64
1, 183483, Note_on_c, 0, 68, 33
1, 183521, Note_on_c, 0, 47, 20
1, 183549, Note_on_c, 0, 64, 15
1, 183627, Note_off_c, 0, 64, 64
1, 183721, Note_off_c, 0, 68, 64
1, 183939, Note_on_c, 0, 63, 49
1, 183955, Note_on_c, 0, 56, 21
1, 184005, Note_off_c, 0, 47, 64
1, 184167, Note_off_c, 0, 56, 64
1, 184225, Note_off_c, 0, 63, 64
1, 184407, Note_on_c, 0, 64, 49
1, 184429, Note_on_c, 0, 47, 17
1, 184453, Note_on_c, 0, 59, 19
1, 184563, Note_off_c, 0, 59, 64
1, 184657, Note_off_c, 0, 40, 64
1, 184667, Note_off_c, 0, 47, 64
1, 184675, Note_off_c, 0, 64, 64
1, 184897, Note_on_c, 0, 66, 33
1, 184927, Note_on_c, 0, 57, 24
1, 184947, Note_on_c, 0, 61, 21
1, 184951, Note_on_c, 0, 35, 24
1, 185001, Control_c, 0, 64, 0
1, 185325, Note_off_c, 0, 57, 64
1, 185365, Note_on_c, 0, 63, 35
1, 185391, Note_off_c, 0, 61, 64
1, 185397, Note_on_c, 0, 59, 24
1, 185419, Note_on_c, 0, 47, 20
1, 185721, Control_c, 0, 64, 127
1, 185773, Note_off_c, 0, 59, 64
1, 185809, Note_off_c, 0, 63, 64
1, 185821, Note_on_c, 0, 61, 26
1, 185841, Note_on_c, 0, 57, 17
1, 185891, Control_c, 0, 64, 0
1, 186017, Note_off_c, 0, 47, 64
1, 186045, Control_c, 0, 64, 127
1, 186194, Note_off_c, 0, 57, 64
1, 186279, Note_off_c, 0, 61, 64
1, 186315, Note_on_c, 0, 47, 18
1, 186323, Note_on_c, 0, 59, 13
1, 186327, Note_on_c, 0, 63, 13
1, 186353, Control_c, 0, 64, 0
1, 186491, Note_off_c, 0, 35, 64
1, 186521, Control_c, 0, 64, 127
1, 186695, Note_off_c, 0, 47, 64
1, 186741, Note_off_c, 0, 63, 64
1, 186749, Note_off_c, 0, 59, 64
1, 186843, Note_on_c, 0, 61, 9
1, 186857, Note_on_c, 0, 57, 8
1, 186887, Note_on_c, 0, 35, 23
1, 187031, Note_off_c, 0, 57, 64
1, 187227, Note_off_c, 0, 61, 64
1, 187230, Note_off_c, 0, 66, 64
1, 187521, Note_on_c, 0, 68, 31
1, 187559, Note_on_c, 0, 47, 14
1, 187575, Note_on_c, 0, 59, 4
1, 187583, Note_on_c, 0, 63, 13
1, 187805, Note_off_c, 0, 68, 64
1, 187831, Note_off_c, 0, 59, 64
1, 187853, Note_off_c, 0, 63, 64
1, 188107, Note_off_c, 0, 47, 64
1, 188109, Note_on_c, 0, 68, 26
1, 188141, Note_on_c, 0, 61, 24
1, 188157, Note_on_c, 0, 57, 17
1, 188415, Note_off_c, 0, 57, 64
1, 188491, Note_off_c, 0, 61, 64
1, 188699, Note_off_c, 0, 68, 64
1, 188701, Note_on_c, 0, 66, 24
1, 188749, Note_on_c, 0, 47, 14
1, 188751, Note_on_c, 0, 59, 11
1, 188759, Note_on_c, 0, 63, 9
1, 188765, Control_c, 0, 64, 0
1, 188949, Control_c, 0, 64, 127
1, 189033, Note_off_c, 0, 59, 64
1, 189043, Note_off_c, 0, 63, 64
1, 189045, Note_off_c, 0, 47, 64
1, 189175, Note_off_c, 0, 35, 64
1, 189451, Note_on_c, 0, 56, 13
1, 189477, Note_on_c, 0, 64, 31
1, 189513, Note_on_c, 0, 40, 19
1, 189667, Note_off_c, 0, 66, 64
1, 189779, Control_c, 0, 64, 0
1, 189933, Control_c, 0, 64, 127
1, 189995, Control_c, 0, 64, 0
1, 190109, Note_on_c, 0, 47, 19
1, 190119, Note_on_c, 0, 59, 23
1, 190167, Note_off_c, 0, 56, 64
1, 190285, Control_c, 0, 64, 127
1, 190329, Note_off_c, 0, 40, 64
1, 190345, Note_off_c, 0, 59, 64
1, 190523, Note_off_c, 0, 47, 64
1, 190619, Note_on_c, 0, 56, 21
1, 190785, Note_off_c, 0, 56, 64
1, 191035, Note_off_c, 0, 64, 64
1, 191075, Note_on_c, 0, 59, 30
1, 191107, Note_on_c, 0, 47, 15
1, 191149, Note_off_c, 0, 59, 64
1, 191211, Note_off_c, 0, 47, 64
1, 191757, Note_on_c, 0, 71, 50
1, 191783, Note_on_c, 0, 62, 14
1, 191791, Note_on_c, 0, 66, 13
1, 191813, Note_on_c, 0, 40, 23
1, 192095, Note_off_c, 0, 62, 64
1, 192333, Note_off_c, 0, 66, 64
1, 192343, Note_on_c, 0, 73, 54
1, 192379, Note_on_c, 0, 64, 29
1, 192381, Note_on_c, 0, 68, 21
1, 192391, Note_on_c, 0, 52, 32
1, 192394, Note_off_c, 0, 71, 64
1, 192467, Control_c, 0, 64, 0
1, 192487, Note_off_c, 0, 68, 64
1, 192563, Note_on_c, 0, 68, 7
1, 192579, Note_off_c, 0, 64, 64
1, 192595, Control_c, 0, 64, 127
1, 192619, Note_off_c, 0, 73, 64
1, 192639, Note_off_c, 0, 68, 64
1, 192799, Note_on_c, 0, 73, 62
1, 192827, Note_on_c, 0, 62, 32
1, 192849, Note_on_c, 0, 66, 15
1, 192855, Note_off_c, 0, 52, 64
1, 192937, Note_off_c, 0, 62, 64
1, 193069, Note_off_c, 0, 73, 64
1, 193217, Note_on_c, 0, 71, 74
1, 193220, Note_on_c, 0, 68, 34
1, 193243, Note_on_c, 0, 64, 32
1, 193251, Note_off_c, 0, 66, 64
1, 193261, Note_on_c, 0, 52, 37
1, 193311, Control_c, 0, 64, 0
1, 193413, Note_off_c, 0, 64, 64
1, 193441, Control_c, 0, 64, 127
1, 193541, Note_off_c, 0, 68, 64
1, 193621, Note_off_c, 0, 52, 64
1, 193653, Note_on_c, 0, 69, 56
1, 193667, Note_on_c, 0, 61, 30
1, 193677, Note_on_c, 0, 45, 27
1, 193701, Note_off_c, 0, 71, 64
1, 193789, Control_c, 0, 64, 0
1, 193795, Note_off_c, 0, 40, 64
1, 193973, Control_c, 0, 64, 127
1, 194061, Note_off_c, 0, 61, 64
1, 194113, Note_on_c, 0, 71, 52
1, 194151, Note_on_c, 0, 64, 17
1, 194157, Note_on_c, 0, 52, 26
1, 194163, Note_off_c, 0, 69, 64
1, 194203, Control_c, 0, 64, 0
1, 194341, Control_c, 0, 64, 127
1, 194531, Note_off_c, 0, 64, 64
1, 194563, Note_on_c, 0, 68, 41
1, 194591, Note_off_c, 0, 71, 64
1, 194591, Note_on_c, 0, 61, 9
1, 194813, Note_off_c, 0, 52, 64
1, 194891, Note_off_c, 0, 61, 64
1, 194969, Note_off_c, 0, 45, 64
1, 195085, Note_off_c, 0, 68, 64
1, 195101, Note_on_c, 0, 69, 29
1, 195117, Note_on_c, 0, 64, 24
1, 195129, Note_on_c, 0, 52, 32
1, 195183, Note_off_c, 0, 64, 64
1, 195221, Note_off_c, 0, 52, 64
1, 195269, Note_off_c, 0, 69, 64
1, 195555, Note_on_c, 0, 75, 48
1, 195575, Note_on_c, 0, 44, 41
1, 195595, Note_on_c, 0, 72, 16
1, 195599, Note_on_c, 0, 66, 8
1, 195633, Control_c, 0, 64, 0
1, 195847, Control_c, 0, 64, 127
1, 195875, Note_off_c, 0, 66, 64
1, 196017, Note_on_c, 0, 76, 59
1, 196019, Note_on_c, 0, 68, 37
1, 196037, Note_on_c, 0, 56, 32
1, 196063, Note_off_c, 0, 75, 64
1, 196063, Note_off_c, 0, 72, 64
1, 196209, Note_off_c, 0, 68, 64
1, 196251, Note_off_c, 0, 76, 64
1, 196409, Note_on_c, 0, 76, 63
1, 196437, Note_on_c, 0, 66, 30
1, 196445, Note_on_c, 0, 70, 28
1, 196547, Note_off_c, 0, 70, 64
1, 196613, Note_off_c, 0, 56, 64
1, 196669, Note_off_c, 0, 66, 64
1, 196827, Note_on_c, 0, 75, 69
1, 196845, Note_off_c, 0, 76, 64
1, 196845, Note_on_c, 0, 68, 35
1, 196847, Note_on_c, 0, 56, 43
1, 196873, Note_on_c, 0, 72, 25
1, 196973, Note_off_c, 0, 72, 64
1, 197085, Note_off_c, 0, 68, 64
1, 197115, Note_off_c, 0, 75, 64
1, 197249, Note_on_c, 0, 73, 69
1, 197275, Note_on_c, 0, 49, 43
1, 197277, Note_on_c, 0, 64, 44
1, 197293, Note_off_c, 0, 56, 64
1, 197579, Note_off_c, 0, 44, 64
1, 197679, Note_on_c, 0, 75, 68
1, 197685, Note_on_c, 0, 68, 46
1, 197721, Note_on_c, 0, 56, 31
1, 197737, Control_c, 0, 64, 0
1, 197745, Note_off_c, 0, 73, 64
1, 197917, Note_off_c, 0, 64, 64
1, 197937, Control_c, 0, 64, 127
1, 198055, Note_off_c, 0, 75, 64
1, 198089, Note_on_c, 0, 72, 71
1, 198125, Note_off_c, 0, 56, 64
1, 198141, Note_on_c, 0, 64, 19
1, 198165, Note_off_c, 0, 68, 64
1, 198321, Note_off_c, 0, 64, 64
1, 198461, Note_off_c, 0, 49, 64
1, 198479, Note_off_c, 0, 72, 64
1, 198551, Note_on_c, 0, 73, 62
1, 198565, Note_on_c, 0, 68, 41
1, 198575, Note_on_c, 0, 56, 43
1, 198685, Note_off_c, 0, 68, 64
1, 198715, Note_off_c, 0, 56, 64
1, 198805, Note_off_c, 0, 73, 64
1, 199135, Note_on_c, 0, 76, 57
1, 199143, Note_on_c, 0, 58, 34
1, 199151, Note_on_c, 0, 70, 25
1, 199151, Control_c, 0, 64, 0
1, 199151, Note_on_c, 0, 49, 38
1, 199161, Note_on_c, 0, 64, 26
1, 199163, Note_on_c, 0, 54, 38
1, 199167, Note_on_c, 0, 52, 50
1, 199393, Note_off_c, 0, 64, 64
1, 199397, Control_c, 0, 64, 127
1, 199407, Note_off_c, 0, 58, 64
1, 199415, Note_off_c, 0, 52, 64
1, 199425, Note_off_c, 0, 49, 64
1, 199437, Note_off_c, 0, 54, 64
1, 199443, Note_off_c, 0, 76, 64
1, 199487, Note_off_c, 0, 70, 64
1, 199623, Note_on_c, 0, 78, 76
1, 199643, Note_on_c, 0, 66, 38
1, 199646, Note_on_c, 0, 70, 35
1, 199651, Note_on_c, 0, 49, 34
1, 199653, Note_on_c, 0, 58, 34
1, 199654, Note_on_c, 0, 54, 33
1, 199661, Note_on_c, 0, 52, 38
1, 199761, Note_off_c, 0, 52, 64
1, 199847, Note_off_c, 0, 49, 64
1, 199853, Note_off_c, 0, 58, 64
1, 199857, Note_off_c, 0, 54, 64
1, 199885, Note_off_c, 0, 78, 64
1, 199911, Note_off_c, 0, 66, 64
1, 199925, Note_off_c, 0, 70, 64
1, 200055, Note_on_c, 0, 75, 81
1, 200067, Note_on_c, 0, 58, 46
1, 200071, Note_on_c, 0, 63, 67
1, 200073, Note_on_c, 0, 49, 53
1, 200083, Note_on_c, 0, 70, 38
1, 200091, Note_on_c, 0, 52, 56
1, 200099, Note_on_c, 0, 54, 54
1, 200165, Note_off_c, 0, 70, 64
1, 200225, Note_off_c, 0, 63, 64
1, 200247, Note_off_c, 0, 58, 64
1, 200275, Note_off_c, 0, 52, 64
1, 200281, Note_off_c, 0, 49, 64
1, 200281, Note_off_c, 0, 54, 64
1, 200343, Note_off_c, 0, 75, 64
1, 200469, Note_on_c, 0, 76, 92
1, 200471, Note_on_c, 0, 58, 51
1, 200479, Note_on_c, 0, 49, 64
1, 200481, Note_on_c, 0, 70, 58
1, 200482, Note_on_c, 0, 54, 53
1, 200487, Note_on_c, 0, 64, 75
1, 200489, Note_on_c, 0, 52, 60
1, 200573, Note_off_c, 0, 52, 64
1, 200633, Note_off_c, 0, 54, 64
1, 200643, Note_off_c, 0, 64, 64
1, 200651, Note_off_c, 0, 58, 64
1, 200719, Note_off_c, 0, 76, 64
1, 200757, Note_off_c, 0, 70, 64
1, 200765, Note_off_c, 0, 49, 64
1, 200881, Note_on_c, 0, 78, 94
1, 200889, Note_on_c, 0, 66, 69
1, 200899, Note_on_c, 0, 70, 54
1, 200901, Note_on_c, 0, 58, 51
1, 200903, Note_on_c, 0, 48, 65
1, 200907, Note_on_c, 0, 54, 52
1, 200917, Note_on_c, 0, 52, 61
1, 200949, Control_c, 0, 64, 0
1, 201147, Note_off_c, 0, 58, 64
1, 201173, Note_off_c, 0, 52, 64
1, 201187, Note_off_c, 0, 70, 64
1, 201195, Note_off_c, 0, 66, 64
1, 201195, Control_c, 0, 64, 127
1, 201197, Note_off_c, 0, 48, 64
1, 201197, Note_off_c, 0, 54, 64
1, 201251, Note_off_c, 0, 78, 64
1, 201337, Note_on_c, 0, 80, 97
1, 201349, Note_on_c, 0, 58, 59
1, 201349, Note_on_c, 0, 48, 67
1, 201349, Note_on_c, 0, 68, 62
1, 201352, Note_on_c, 0, 70, 64
1, 201371, Note_on_c, 0, 54, 57
1, 201377, Note_on_c, 0, 52, 52
1, 201533, Note_off_c, 0, 70, 64
1, 201539, Note_off_c, 0, 52, 64
1, 201541, Note_off_c, 0, 58, 64
1, 201571, Note_off_c, 0, 80, 64
1, 201601, Note_off_c, 0, 54, 64
1, 201631, Note_off_c, 0, 68, 64
1, 201645, Note_off_c, 0, 48, 64
1, 201765, Note_on_c, 0, 76, 89
1, 201770, Note_on_c, 0, 58, 44
1, 201774, Note_on_c, 0, 48, 41
1, 201781, Note_on_c, 0, 52, 40
1, 201783, Note_on_c, 0, 54, 35
1, 201784, Note_on_c, 0, 64, 55
1, 201784, Note_on_c, 0, 70, 44
1, 201855, Control_c, 0, 64, 0
1, 201999, Note_off_c, 0, 52, 64
1, 202006, Note_off_c, 0, 64, 64
1, 202007, Note_off_c, 0, 58, 64
1, 202021, Note_off_c, 0, 54, 64
1, 202025, Control_c, 0, 64, 127
1, 202044, Note_off_c, 0, 48, 64
1, 202051, Note_off_c, 0, 76, 64
1, 202088, Note_off_c, 0, 70, 64
1, 202225, Note_on_c, 0, 78, 97
1, 202241, Note_on_c, 0, 48, 31
1, 202243, Note_on_c, 0, 58, 37
1, 202251, Note_on_c, 0, 66, 53
1, 202251, Note_on_c, 0, 70, 43
1, 202253, Note_on_c, 0, 54, 41
1, 202259, Note_on_c, 0, 52, 51
1, 202343, Note_off_c, 0, 54, 64
1, 202373, Note_off_c, 0, 52, 64
1, 202453, Note_off_c, 0, 66, 64
1, 202493, Note_off_c, 0, 70, 64
1, 202533, Note_off_c, 0, 48, 64
1, 202547, Note_off_c, 0, 58, 64
1, 202575, Note_off_c, 0, 78, 64
1, 202923, Note_on_c, 0, 80, 90
1, 202943, Note_on_c, 0, 68, 51
1, 202953, Note_on_c, 0, 59, 40
1, 202957, Note_on_c, 0, 47, 38
1, 202960, Note_on_c, 0, 52, 47
1, 202963, Note_on_c, 0, 56, 35
1, 202965, Note_on_c, 0, 76, 32
1, 203023, Control_c, 0, 64, 0
1, 203607, Control_c, 0, 64, 127
1, 203681, Note_on_c, 0, 71, 39
1, 203695, Note_off_c, 0, 68, 64
1, 203947, Note_off_c, 0, 71, 64
1, 204205, Note_on_c, 0, 68, 22
1, 204543, Note_off_c, 0, 68, 64
1, 204729, Note_on_c, 0, 71, 29
1, 204925, Note_off_c, 0, 71, 64
1, 205269, Note_on_c, 0, 68, 15
1, 205613, Note_off_c, 0, 80, 64
1, 205965, Note_on_c, 0, 78, 44
1, 206023, Note_off_c, 0, 68, 64
1, 206031, Note_on_c, 0, 71, 17
1, 206041, Note_off_c, 0, 76, 64
1, 206341, Note_off_c, 0, 71, 64
1, 206561, Note_on_c, 0, 76, 48
1, 206591, Note_on_c, 0, 68, 16
1, 206665, Note_off_c, 0, 78, 64
1, 206889, Note_off_c, 0, 76, 64
1, 207051, Note_on_c, 0, 73, 41
1, 207063, Note_off_c, 0, 68, 64
1, 207099, Note_on_c, 0, 71, 28
1, 207263, Note_off_c, 0, 71, 64
1, 207281, Note_off_c, 0, 56, 64
1, 207355, Note_off_c, 0, 52, 64
1, 207393, Note_off_c, 0, 59, 64
1, 207721, Note_on_c, 0, 75, 36
1, 207765, Note_on_c, 0, 54, 25
1, 207765, Note_on_c, 0, 63, 21
1, 207817, Control_c, 0, 64, 0
1, 207849, Note_off_c, 0, 73, 64
1, 208147, Note_off_c, 0, 47, 64
1, 208171, Control_c, 0, 64, 127
1, 208331, Note_off_c, 0, 63, 64
1, 208405, Note_on_c, 0, 66, 4
1, 208415, Note_on_c, 0, 59, 18
1, 208549, Note_off_c, 0, 59, 64
1, 208725, Note_off_c, 0, 66, 64
1, 208837, Note_off_c, 0, 54, 64
1, 208917, Note_on_c, 0, 63, 15
1, 208957, Note_on_c, 0, 47, 12
1, 209253, Note_off_c, 0, 63, 64
1, 209373, Note_off_c, 0, 47, 64
1, 209389, Note_on_c, 0, 66, 7
1, 209437, Note_on_c, 0, 59, 9
1, 209531, Note_off_c, 0, 66, 64
1, 209541, Note_off_c, 0, 59, 64
1, 209735, Note_off_c, 0, 75, 64
1, 209959, Note_on_c, 0, 76, 40
1, 209979, Note_on_c, 0, 64, 22
1, 209995, Note_on_c, 0, 49, 19
1, 210199, Control_c, 0, 64, 0
1, 210413, Control_c, 0, 64, 127
1, 210433, Note_off_c, 0, 64, 64
1, 210493, Note_on_c, 0, 75, 45
1, 210509, Note_on_c, 0, 68, 11
1, 210521, Note_on_c, 0, 56, 19
1, 210557, Note_off_c, 0, 76, 64
1, 210737, Note_off_c, 0, 56, 64
1, 210740, Note_off_c, 0, 75, 64
1, 210781, Note_off_c, 0, 68, 64
1, 210969, Note_on_c, 0, 73, 43
1, 211011, Note_on_c, 0, 44, 21
1, 211019, Note_on_c, 0, 64, 16
1, 211315, Note_off_c, 0, 64, 64
1, 211397, Note_off_c, 0, 73, 64
1, 211445, Note_on_c, 0, 68, 41
1, 211491, Note_on_c, 0, 56, 21
1, 211671, Note_off_c, 0, 68, 64
1, 211753, Note_off_c, 0, 56, 64
1, 212063, Note_on_c, 0, 71, 48
1, 212098, Note_on_c, 0, 59, 22
1, 212123, Note_on_c, 0, 51, 22
1, 212125, Note_off_c, 0, 49, 64
1, 212135, Control_c, 0, 64, 0
1, 212473, Control_c, 0, 64, 127
1, 212571, Note_off_c, 0, 59, 64
1, 212593, Note_off_c, 0, 44, 64
1, 212657, Note_on_c, 0, 63, 28
1, 212695, Note_on_c, 0, 56, 13
1, 212853, Note_off_c, 0, 63, 64
1, 212877, Note_off_c, 0, 56, 64
1, 213135, Note_on_c, 0, 44, 19
1, 213138, Note_on_c, 0, 59, 15
1, 213211, Note_off_c, 0, 51, 64
1, 213365, Note_off_c, 0, 59, 64
1, 213595, Note_off_c, 0, 71, 64
1, 213600, Note_on_c, 0, 63, 23
1, 213647, Note_on_c, 0, 56, 11
1, 213751, Note_off_c, 0, 56, 64
1, 213779, Note_off_c, 0, 63, 64
1, 213877, Note_off_c, 0, 44, 64
1, 214361, Note_on_c, 0, 73, 28
1, 214381, Note_on_c, 0, 61, 15
1, 214383, Note_on_c, 0, 45, 12
1, 214455, Control_c, 0, 64, 0
1, 214777, Control_c, 0, 64, 127
1, 214823, Note_off_c, 0, 73, 64
1, 214941, Note_off_c, 0, 61, 64
1, 215103, Note_on_c, 0, 71, 41
1, 215137, Note_on_c, 0, 52, 19
1, 215317, Note_off_c, 0, 52, 64
1, 215663, Note_on_c, 0, 69, 27
1, 215677, Note_off_c, 0, 71, 64
1, 215703, Note_on_c, 0, 61, 7
1, 215729, Note_on_c, 0, 40, 21
1, 215853, Control_c, 0, 64, 0
1, 216007, Control_c, 0, 64, 127
1, 216079, Note_off_c, 0, 69, 64
1, 216189, Note_on_c, 0, 64, 33
1, 216195, Note_off_c, 0, 61, 64
1, 216251, Note_on_c, 0, 52, 17
1, 216445, Note_off_c, 0, 45, 64
1, 216445, Note_off_c, 0, 52, 64
1, 216577, Note_off_c, 0, 64, 64
1, 216945, Note_on_c, 0, 68, 25
1, 217003, Note_on_c, 0, 56, 17
1, 217006, Note_on_c, 0, 47, 18
1, 217067, Control_c, 0, 64, 0
1, 217383, Note_off_c, 0, 40, 64
1, 217451, Control_c, 0, 64, 127
1, 217669, Note_off_c, 0, 56, 64
1, 217717, Note_on_c, 0, 59, 10
1, 217743, Note_on_c, 0, 52, 16
1, 217877, Note_off_c, 0, 52, 64
1, 217945, Note_off_c, 0, 59, 64
1, 218255, Note_on_c, 0, 56, 16
1, 218271, Note_on_c, 0, 40, 23
1, 218547, Note_off_c, 0, 56, 64
1, 218755, Note_on_c, 0, 59, 28
1, 218789, Note_on_c, 0, 52, 20
1, 218855, Note_off_c, 0, 47, 64
1, 218925, Note_off_c, 0, 59, 64
1, 218947, Note_off_c, 0, 52, 64
1, 219257, Note_on_c, 0, 57, 25
1, 219283, Note_on_c, 0, 48, 21
1, 219417, Control_c, 0, 64, 0
1, 219603, Control_c, 0, 64, 127
1, 219661, Note_off_c, 0, 40, 64
1, 219727, Note_on_c, 0, 66, 33
1, 219751, Note_on_c, 0, 60, 22
1, 219781, Note_off_c, 0, 68, 64
1, 219784, Note_on_c, 0, 52, 15
1, 219961, Note_off_c, 0, 57, 64
1, 220001, Note_off_c, 0, 52, 64
1, 220359, Note_on_c, 0, 64, 41
1, 220403, Note_on_c, 0, 40, 19
1, 220403, Note_on_c, 0, 57, 11
1, 220419, Note_off_c, 0, 60, 64
1, 220523, Control_c, 0, 64, 0
1, 220583, Note_off_c, 0, 66, 64
1, 220709, Control_c, 0, 64, 127
1, 220877, Note_on_c, 0, 60, 47
1, 220933, Note_on_c, 0, 52, 12
1, 220957, Note_off_c, 0, 64, 64
1, 221099, Note_off_c, 0, 57, 64
1, 221245, Note_off_c, 0, 48, 64
1, 221291, Note_off_c, 0, 60, 64
1, 221457, Note_off_c, 0, 52, 64
1, 221537, Note_on_c, 0, 68, 38
1, 221579, Note_on_c, 0, 56, 16
1, 221613, Note_on_c, 0, 47, 21
1, 221769, Control_c, 0, 64, 0
1, 222091, Control_c, 0, 64, 127
1, 222183, Note_off_c, 0, 56, 64
1, 222199, Note_off_c, 0, 40, 64
1, 222211, Note_on_c, 0, 59, 20
1, 222243, Note_on_c, 0, 52, 16
1, 222461, Note_off_c, 0, 59, 64
1, 222491, Note_off_c, 0, 52, 64
1, 222705, Note_on_c, 0, 56, 19
1, 222749, Note_on_c, 0, 40, 21
1, 222939, Note_off_c, 0, 56, 64
1, 223193, Note_on_c, 0, 59, 24
1, 223205, Note_on_c, 0, 52, 20
1, 223361, Note_off_c, 0, 47, 64
1, 223437, Note_off_c, 0, 52, 64
1, 223457, Note_off_c, 0, 59, 64
1, 223705, Control_c, 0, 64, 0
1, 223705, Note_on_c, 0, 57, 23
1, 223735, Note_on_c, 0, 48, 27
1, 224151, Control_c, 0, 64, 127
1, 224291, Note_off_c, 0, 40, 64
1, 224401, Note_on_c, 0, 66, 32
1, 224441, Note_on_c, 0, 60, 21
1, 224443, Note_off_c, 0, 68, 64
1, 224481, Note_on_c, 0, 52, 13
1, 224625, Note_off_c, 0, 57, 64
1, 224685, Note_off_c, 0, 52, 64
1, 224979, Note_on_c, 0, 64, 35
1, 225005, Note_on_c, 0, 57, 10
1, 225011, Note_off_c, 0, 60, 64
1, 225011, Note_on_c, 0, 40, 16
1, 225165, Control_c, 0, 64, 0
1, 225175, Note_off_c, 0, 66, 64
1, 225333, Control_c, 0, 64, 127
1, 225489, Note_on_c, 0, 60, 38
1, 225539, Note_off_c, 0, 64, 64
1, 225545, Note_on_c, 0, 52, 8
1, 225671, Control_c, 0, 64, 0
1, 225841, Control_c, 0, 64, 127
1, 225881, Note_off_c, 0, 57, 64
1, 225987, Note_off_c, 0, 60, 64
1, 225991, Note_off_c, 0, 48, 64
1, 226337, Note_off_c, 0, 52, 64
1, 226363, Note_on_c, 0, 68, 30
1, 226401, Note_on_c, 0, 56, 15
1, 226453, Note_on_c, 0, 47, 15
1, 226639, Control_c, 0, 64, 0
1, 226931, Control_c, 0, 64, 127
1, 227009, Note_off_c, 0, 56, 64
1, 227043, Note_off_c, 0, 40, 64
1, 227075, Note_on_c, 0, 59, 19
1, 227101, Note_on_c, 0, 52, 16
1, 227283, Note_off_c, 0, 52, 64
1, 227295, Note_off_c, 0, 59, 64
1, 227557, Note_off_c, 0, 47, 64
1, 227601, Note_on_c, 0, 56, 12
1, 227637, Note_on_c, 0, 40, 9
1, 227881, Note_off_c, 0, 56, 64
1, 228075, Note_on_c, 0, 52, 14
1, 228091, Note_on_c, 0, 59, 11
1, 228235, Note_off_c, 0, 59, 64
1, 228371, Note_off_c, 0, 52, 64
1, 228479, Note_off_c, 0, 40, 64
1, 228485, Note_on_c, 0, 56, 10
1, 228521, Note_on_c, 0, 47, 14
1, 228787, Note_off_c, 0, 56, 64
1, 228923, Note_off_c, 0, 47, 64
1, 228943, Note_on_c, 0, 52, 11
1, 228981, Note_on_c, 0, 59, 6
1, 229107, Note_off_c, 0, 59, 64
1, 229181, Note_off_c, 0, 52, 64
1, 229323, Note_on_c, 0, 56, 8
1, 229375, Note_on_c, 0, 40, 25
1, 229523, Note_off_c, 0, 40, 64
1, 229569, Note_off_c, 0, 56, 64
1, 229785, Note_on_c, 0, 59, 25
1, 229815, Note_on_c, 0, 52, 21
1, 229967, Note_off_c, 0, 59, 64
1, 230005, Note_off_c, 0, 52, 64
1, 230225, Note_on_c, 0, 56, 13
1, 230249, Note_on_c, 0, 47, 14
1, 230401, Note_off_c, 0, 47, 64
1, 230425, Note_off_c, 0, 56, 64
1, 230695, Note_on_c, 0, 52, 13
1, 230701, Note_on_c, 0, 59, 9
1, 230821, Note_off_c, 0, 59, 64
1, 230849, Note_off_c, 0, 52, 64
1, 231107, Note_on_c, 0, 56, 6
1, 231157, Note_on_c, 0, 40, 9
1, 231325, Note_off_c, 0, 56, 64
1, 231333, Note_off_c, 0, 40, 64
1, 231605, Note_on_c, 0, 59, 13
1, 231633, Note_on_c, 0, 52, 12
1, 231799, Note_off_c, 0, 59, 64
1, 231807, Note_off_c, 0, 52, 64
1, 232163, Note_on_c, 0, 56, 10
1, 232197, Note_on_c, 0, 47, 7
1, 232389, Note_off_c, 0, 47, 64
1, 232455, Note_off_c, 0, 68, 64
1, 232535, Note_off_c, 0, 56, 64
1, 232905, Note_on_c, 0, 66, 15
1, 232969, Note_on_c, 0, 59, 12
1, 232972, Note_on_c, 0, 52, 9
1, 233079, Note_off_c, 0, 59, 64
1, 233257, Note_off_c, 0, 52, 64
1, 233447, Note_off_c, 0, 66, 64
1, 233729, Note_on_c, 0, 56, 7
1, 233729, Note_on_c, 0, 64, 24
1, 233917, Note_on_c, 0, 47, 2
1, 234124, Note_off_c, 0, 47, 64
1, 234149, Note_off_c, 0, 56, 64
1, 234155, Note_off_c, 0, 64, 64
1, 234825, Note_on_c, 0, 59, 16
1, 235339, Note_off_c, 0, 59, 64
1, 235741, Note_on_c, 0, 47, 2
1, 237235, Note_on_c, 0, 56, 7
1, 237243, Note_on_c, 0, 40, 10
1, 237257, Note_on_c, 0, 64, 21
1, 243499, Note_off_c, 0, 47, 64
1, 243545, Note_off_c, 0, 64, 64
1, 243585, Note_off_c, 0, 56, 64
1, 244041, Note_off_c, 0, 40, 64
1, 245760, Control_c, 0, 64, 0
1, 245760, End_track
0, 0, End_of_file
