0, 0, Header, 0, 1, 480
1, 0, Start_track
1, 0, SMPTE_offset, 96, 0, 0, 0, 0
1, 0, Time_signature, 4, 2, 24, 8
1, 0, Key_signature, 0, "major"
1, 0, Tempo, 500000
1, 0, Note_on_c, 0, 65, 48
1, 18, Note_on_c, 0, 41, 38
1, 56, Note_off_c, 0, 65, 64
1, 72, Control_c, 0, 64, 127
1, 74, Note_off_c, 0, 41, 64
1, 366, Note_on_c, 0, 65, 46
1, 408, Note_on_c, 0, 63, 41
1, 420, Note_off_c, 0, 65, 64
1, 442, Note_on_c, 0, 53, 48
1, 442, Note_on_c, 0, 67, 66
1, 466, Note_on_c, 0, 60, 25
1, 518, Control_c, 0, 64, 0
1, 534, Note_off_c, 0, 53, 64
1, 584, Note_off_c, 0, 60, 64
1, 628, Note_off_c, 0, 63, 64
1, 688, Control_c, 0, 64, 127
1, 802, Note_on_c, 0, 69, 68
1, 830, Note_on_c, 0, 63, 43
1, 852, Note_on_c, 0, 53, 50
1, 855, Note_on_c, 0, 60, 23
1, 874, Note_off_c, 0, 67, 64
1, 882, Note_off_c, 0, 63, 64
1, 904, Note_off_c, 0, 53, 64
1, 926, Note_off_c, 0, 60, 64
1, 1086, Control_c, 0, 64, 0
1, 1150, Note_on_c, 0, 70, 72
1, 1164, Note_on_c, 0, 46, 49
1, 1214, Note_off_c, 0, 69, 64
1, 1226, Note_off_c, 0, 46, 64
1, 1254, Note_off_c, 0, 70, 64
1, 1272, Control_c, 0, 64, 127
1, 1424, Control_c, 0, 64, 0
1, 1446, Note_on_c, 0, 72, 73
1, 1512, Note_on_c, 0, 58, 36
1, 1514, Note_on_c, 0, 62, 44
1, 1514, Note_on_c, 0, 74, 82
1, 1542, Note_on_c, 0, 53, 48
1, 1545, Note_off_c, 0, 72, 64
1, 1570, Note_off_c, 0, 62, 64
1, 1618, Note_off_c, 0, 58, 64
1, 1618, Note_off_c, 0, 53, 64
1, 1640, Control_c, 0, 64, 127
1, 1908, Note_on_c, 0, 75, 83
1, 1926, Note_on_c, 0, 46, 48
1, 1940, Note_off_c, 0, 74, 64
1, 1948, Control_c, 0, 64, 0
1, 2056, Control_c, 0, 64, 127
1, 2098, Note_on_c, 0, 77, 97
1, 2126, Note_off_c, 0, 75, 64
1, 2174, Note_off_c, 0, 46, 64
1, 2178, Control_c, 0, 64, 0
1, 2224, Note_off_c, 0, 77, 64
1, 2244, Note_on_c, 0, 39, 62
1, 2246, Note_on_c, 0, 79, 106
1, 2254, Note_on_c, 0, 51, 62
1, 2284, Note_off_c, 0, 39, 64
1, 2306, Note_off_c, 0, 51, 64
1, 2348, Control_c, 0, 64, 127
1, 2368, Note_off_c, 0, 79, 64
1, 2530, Note_on_c, 0, 81, 90
1, 2560, Note_on_c, 0, 55, 56
1, 2570, Note_off_c, 0, 81, 64
1, 2612, Note_on_c, 0, 58, 43
1, 2648, Note_on_c, 0, 63, 58
1, 2662, Note_on_c, 0, 82, 85
1, 2692, Note_on_c, 0, 67, 59
1, 2736, Note_off_c, 0, 82, 64
1, 2740, Note_on_c, 0, 84, 82
1, 2778, Note_off_c, 0, 84, 64
1, 2810, Note_on_c, 0, 82, 69
1, 2854, Control_c, 0, 64, 0
1, 2862, Note_off_c, 0, 82, 64
1, 2884, Note_on_c, 0, 84, 72
1, 2940, Note_off_c, 0, 84, 64
1, 2940, Note_on_c, 0, 82, 61
1, 2992, Control_c, 0, 64, 127
1, 3004, Note_off_c, 0, 82, 64
1, 3006, Note_on_c, 0, 84, 88
1, 3008, Note_off_c, 0, 67, 64
1, 3084, Note_off_c, 0, 55, 64
1, 3092, Note_on_c, 0, 82, 73
1, 3118, Note_off_c, 0, 63, 64
1, 3162, Note_off_c, 0, 84, 64
1, 3166, Note_off_c, 0, 58, 64
1, 3192, Note_on_c, 0, 81, 89
1, 3262, Note_off_c, 0, 82, 64
1, 3348, Note_on_c, 0, 79, 95
1, 3364, Note_off_c, 0, 81, 64
1, 3514, Note_on_c, 0, 77, 83
1, 3514, Control_c, 0, 64, 0
1, 3530, Note_off_c, 0, 79, 64
1, 3570, Note_on_c, 0, 46, 31
1, 3636, Note_off_c, 0, 77, 64
1, 3650, Note_on_c, 0, 82, 73
1, 3776, Note_off_c, 0, 82, 64
1, 3792, Control_c, 0, 64, 127
1, 3804, Note_off_c, 0, 46, 64
1, 4028, Note_on_c, 0, 82, 62
1, 4138, Note_on_c, 0, 58, 17
1, 4152, Note_on_c, 0, 62, 27
1, 4158, Note_on_c, 0, 74, 65
1, 4160, Control_c, 0, 64, 0
1, 4166, Note_on_c, 0, 53, 39
1, 4168, Note_off_c, 0, 82, 64
1, 4284, Note_off_c, 0, 53, 64
1, 4359, Control_c, 0, 64, 127
1, 4362, Note_off_c, 0, 62, 64
1, 4394, Note_off_c, 0, 58, 64
1, 4590, Control_c, 0, 64, 0
1, 4614, Note_on_c, 0, 62, 32
1, 4624, Note_on_c, 0, 53, 55
1, 4632, Note_on_c, 0, 58, 20
1, 4708, Note_off_c, 0, 62, 64
1, 4711, Note_off_c, 0, 53, 64
1, 4726, Note_off_c, 0, 58, 64
1, 4728, Control_c, 0, 64, 127
1, 4912, Control_c, 0, 64, 0
1, 4932, Note_on_c, 0, 75, 54
1, 4946, Note_off_c, 0, 74, 64
1, 4978, Note_on_c, 0, 79, 80
1, 4994, Note_off_c, 0, 75, 64
1, 4994, Note_on_c, 0, 41, 39
1, 5052, Note_off_c, 0, 41, 64
1, 5078, Note_off_c, 0, 79, 64
1, 5096, Control_c, 0, 64, 127
1, 5276, Note_on_c, 0, 79, 82
1, 5356, Note_on_c, 0, 63, 38
1, 5360, Note_on_c, 0, 69, 68
1, 5362, Note_on_c, 0, 53, 44
1, 5364, Note_off_c, 0, 79, 64
1, 5432, Note_on_c, 0, 60, 6
1, 5446, Note_off_c, 0, 53, 64
1, 5458, Note_off_c, 0, 63, 64
1, 5508, Note_off_c, 0, 60, 64
1, 5666, Control_c, 0, 64, 0
1, 5762, Note_on_c, 0, 53, 62
1, 5762, Note_on_c, 0, 63, 35
1, 5780, Note_on_c, 0, 60, 45
1, 5834, Control_c, 0, 64, 127
1, 5852, Note_off_c, 0, 63, 64
1, 5858, Note_off_c, 0, 60, 64
1, 5864, Note_off_c, 0, 53, 64
1, 6034, Control_c, 0, 64, 0
1, 6052, Note_on_c, 0, 70, 61
1, 6062, Note_off_c, 0, 69, 64
1, 6086, Note_on_c, 0, 46, 40
1, 6114, Note_on_c, 0, 74, 67
1, 6118, Note_off_c, 0, 70, 64
1, 6180, Note_off_c, 0, 74, 64
1, 6218, Control_c, 0, 64, 127
1, 6226, Note_off_c, 0, 46, 64
1, 6388, Control_c, 0, 64, 0
1, 6402, Note_on_c, 0, 74, 69
1, 6462, Note_off_c, 0, 74, 64
1, 6480, Note_on_c, 0, 62, 33
1, 6484, Note_on_c, 0, 58, 15
1, 6492, Note_on_c, 0, 53, 34
1, 6500, Note_on_c, 0, 64, 69
1, 6612, Note_off_c, 0, 62, 64
1, 6634, Control_c, 0, 64, 127
1, 6654, Note_off_c, 0, 53, 64
1, 6670, Note_off_c, 0, 58, 64
1, 6834, Control_c, 0, 64, 0
1, 6928, Note_on_c, 0, 58, 27
1, 6934, Note_on_c, 0, 62, 30
1, 6938, Note_on_c, 0, 53, 51
1, 7004, Note_off_c, 0, 62, 64
1, 7018, Control_c, 0, 64, 127
1, 7028, Note_off_c, 0, 53, 64
1, 7044, Note_off_c, 0, 58, 64
1, 7310, Note_off_c, 0, 64, 64
1, 7312, Control_c, 0, 64, 0
1, 7312, Note_on_c, 0, 65, 62
1, 7352, Note_on_c, 0, 41, 43
1, 7410, Note_off_c, 0, 41, 64
1, 7414, Note_off_c, 0, 65, 64
1, 7448, Control_c, 0, 64, 127
1, 7594, Note_on_c, 0, 69, 56
1, 7648, Control_c, 0, 64, 0
1, 7674, Note_on_c, 0, 72, 78
1, 7676, Note_on_c, 0, 63, 50
1, 7686, Note_on_c, 0, 53, 55
1, 7722, Note_off_c, 0, 69, 64
1, 7750, Note_off_c, 0, 53, 64
1, 7804, Note_off_c, 0, 63, 64
1, 7816, Control_c, 0, 64, 127
1, 7910, Note_off_c, 0, 72, 64
1, 7918, Note_on_c, 0, 75, 71
1, 7970, Control_c, 0, 64, 0
1, 8002, Note_on_c, 0, 63, 36
1, 8008, Note_on_c, 0, 79, 89
1, 8014, Note_on_c, 0, 53, 50
1, 8032, Note_on_c, 0, 57, 26
1, 8040, Note_off_c, 0, 75, 64
1, 8090, Note_off_c, 0, 63, 64
1, 8093, Note_off_c, 0, 57, 64
1, 8104, Note_off_c, 0, 53, 64
1, 8140, Control_c, 0, 64, 127
1, 8236, Note_on_c, 0, 77, 68
1, 8272, Note_off_c, 0, 79, 64
1, 8274, Note_off_c, 0, 77, 64
1, 8324, Note_on_c, 0, 77, 84
1, 8354, Control_c, 0, 64, 0
1, 8428, Note_off_c, 0, 77, 64
1, 8428, Note_on_c, 0, 46, 20
1, 8472, Note_on_c, 0, 86, 59
1, 8612, Note_off_c, 0, 46, 64
1, 8616, Control_c, 0, 64, 127
1, 8674, Note_off_c, 0, 86, 64
1, 8790, Note_on_c, 0, 84, 27
1, 8850, Note_on_c, 0, 82, 47
1, 8858, Note_off_c, 0, 84, 64
1, 8902, Note_off_c, 0, 82, 64
1, 8912, Note_on_c, 0, 84, 43
1, 8936, Note_on_c, 0, 58, 7
1, 8956, Note_on_c, 0, 62, 17
1, 8960, Note_on_c, 0, 82, 57
1, 8970, Control_c, 0, 64, 0
1, 8973, Note_off_c, 0, 84, 64
1, 9000, Note_on_c, 0, 53, 18
1, 9102, Note_off_c, 0, 53, 64
1, 9122, Control_c, 0, 64, 127
1, 9128, Note_off_c, 0, 62, 64
1, 9152, Note_off_c, 0, 58, 64
1, 9164, Note_on_c, 0, 79, 70
1, 9196, Note_off_c, 0, 82, 64
1, 9324, Note_off_c, 0, 79, 64
1, 9338, Control_c, 0, 64, 0
1, 9340, Note_on_c, 0, 77, 71
1, 9356, Note_on_c, 0, 62, 36
1, 9368, Note_on_c, 0, 58, 18
1, 9374, Note_on_c, 0, 53, 48
1, 9446, Note_off_c, 0, 62, 64
1, 9458, Note_off_c, 0, 53, 64
1, 9468, Note_off_c, 0, 58, 64
1, 9506, Control_c, 0, 64, 127
1, 9644, Control_c, 0, 64, 0
1, 9646, Note_off_c, 0, 77, 64
1, 9646, Note_on_c, 0, 79, 61
1, 9680, Note_on_c, 0, 46, 40
1, 9700, Note_on_c, 0, 82, 72
1, 9704, Note_off_c, 0, 79, 64
1, 9762, Note_off_c, 0, 82, 64
1, 9772, Note_off_c, 0, 46, 64
1, 9814, Control_c, 0, 64, 127
1, 9990, Note_on_c, 0, 82, 60
1, 10042, Note_off_c, 0, 82, 64
1, 10073, Note_on_c, 0, 63, 30
1, 10080, Note_on_c, 0, 69, 63
1, 10120, Note_on_c, 0, 53, 30
1, 10124, Note_on_c, 0, 60, 22
1, 10138, Control_c, 0, 64, 0
1, 10290, Note_off_c, 0, 60, 64
1, 10310, Note_off_c, 0, 63, 64
1, 10310, Note_off_c, 0, 53, 64
1, 10322, Control_c, 0, 64, 127
1, 10460, Control_c, 0, 64, 0
1, 10490, Note_on_c, 0, 63, 41
1, 10510, Note_on_c, 0, 53, 63
1, 10528, Note_on_c, 0, 60, 32
1, 10586, Note_off_c, 0, 63, 64
1, 10589, Note_off_c, 0, 53, 64
1, 10594, Note_off_c, 0, 60, 64
1, 10614, Control_c, 0, 64, 127
1, 10744, Note_on_c, 0, 70, 53
1, 10754, Note_off_c, 0, 69, 64
1, 10766, Control_c, 0, 64, 0
1, 10798, Note_off_c, 0, 70, 64
1, 10801, Note_on_c, 0, 74, 68
1, 10838, Note_on_c, 0, 46, 38
1, 10864, Note_on_c, 0, 77, 87
1, 10906, Note_off_c, 0, 74, 64
1, 10956, Note_off_c, 0, 77, 64
1, 10982, Note_off_c, 0, 46, 64
1, 10982, Control_c, 0, 64, 127
1, 11136, Control_c, 0, 64, 0
1, 11144, Note_on_c, 0, 77, 61
1, 11186, Note_off_c, 0, 77, 64
1, 11204, Note_on_c, 0, 58, 22
1, 11218, Note_on_c, 0, 64, 84
1, 11221, Note_on_c, 0, 62, 38
1, 11248, Note_on_c, 0, 53, 28
1, 11302, Note_off_c, 0, 62, 64
1, 11334, Note_off_c, 0, 53, 64
1, 11336, Control_c, 0, 64, 127
1, 11374, Note_off_c, 0, 58, 64
1, 11598, Note_on_c, 0, 62, 45
1, 11598, Note_on_c, 0, 53, 66
1, 11598, Note_on_c, 0, 58, 33
1, 11650, Note_off_c, 0, 62, 64
1, 11654, Note_off_c, 0, 53, 64
1, 11666, Note_off_c, 0, 58, 64
1, 11950, Control_c, 0, 64, 0
1, 11972, Note_on_c, 0, 65, 83
1, 11975, Note_off_c, 0, 64, 64
1, 11988, Note_on_c, 0, 41, 58
1, 12034, Note_off_c, 0, 41, 64
1, 12088, Control_c, 0, 64, 127
1, 12112, Note_off_c, 0, 65, 64
1, 12236, Note_on_c, 0, 69, 63
1, 12318, Control_c, 0, 64, 0
1, 12334, Note_on_c, 0, 63, 49
1, 12338, Note_on_c, 0, 72, 65
1, 12360, Note_off_c, 0, 69, 64
1, 12362, Note_on_c, 0, 53, 52
1, 12442, Note_off_c, 0, 53, 64
1, 12482, Note_off_c, 0, 63, 64
1, 12488, Control_c, 0, 64, 127
1, 12510, Note_off_c, 0, 72, 64
1, 12520, Note_on_c, 0, 75, 67
1, 12560, Note_off_c, 0, 75, 64
1, 12616, Note_on_c, 0, 74, 70
1, 12642, Control_c, 0, 64, 0
1, 12656, Note_off_c, 0, 74, 64
1, 12666, Note_on_c, 0, 75, 58
1, 12669, Note_on_c, 0, 53, 38
1, 12684, Note_on_c, 0, 57, 22
1, 12714, Note_on_c, 0, 63, 36
1, 12720, Note_on_c, 0, 74, 72
1, 12804, Note_off_c, 0, 75, 64
1, 12806, Note_off_c, 0, 63, 64
1, 12856, Control_c, 0, 64, 127
1, 12862, Note_off_c, 0, 57, 64
1, 12884, Note_off_c, 0, 53, 64
1, 12912, Note_on_c, 0, 72, 71
1, 12946, Note_off_c, 0, 74, 64
1, 13042, Control_c, 0, 64, 0
1, 13086, Note_off_c, 0, 72, 64
1, 13110, Note_on_c, 0, 46, 30
1, 13113, Note_on_c, 0, 74, 57
1, 13230, Note_off_c, 0, 74, 64
1, 13256, Control_c, 0, 64, 127
1, 13264, Note_off_c, 0, 46, 64
1, 13480, Note_on_c, 0, 65, 46
1, 13538, Note_off_c, 0, 65, 64
1, 13616, Note_on_c, 0, 58, 13
1, 13624, Control_c, 0, 64, 0
1, 13630, Note_on_c, 0, 70, 31
1, 13640, Note_on_c, 0, 53, 35
1, 13646, Note_on_c, 0, 62, 13
1, 13948, Control_c, 0, 64, 127
1, 14078, Note_off_c, 0, 62, 64
1, 14134, Note_off_c, 0, 53, 64
1, 14170, Note_off_c, 0, 58, 64
1, 14210, Control_c, 0, 64, 0
1, 14210, Note_on_c, 0, 69, 32
1, 14306, Note_off_c, 0, 70, 64
1, 14514, Note_on_c, 0, 67, 38
1, 14554, Note_off_c, 0, 69, 64
1, 14792, Note_off_c, 0, 67, 64
1, 14824, Note_on_c, 0, 65, 34
1, 14832, Note_on_c, 0, 41, 37
1, 14886, Note_off_c, 0, 41, 64
1, 14938, Note_off_c, 0, 65, 64
1, 14946, Control_c, 0, 64, 127
1, 15220, Note_on_c, 0, 65, 40
1, 15286, Note_off_c, 0, 65, 64
1, 15300, Control_c, 0, 64, 0
1, 15324, Note_on_c, 0, 67, 52
1, 15326, Note_on_c, 0, 63, 36
1, 15356, Note_on_c, 0, 60, 21
1, 15378, Note_on_c, 0, 53, 21
1, 15492, Note_off_c, 0, 53, 64
1, 15497, Note_off_c, 0, 63, 64
1, 15514, Control_c, 0, 64, 127
1, 15542, Note_off_c, 0, 60, 64
1, 15714, Control_c, 0, 64, 0
1, 15742, Note_on_c, 0, 69, 57
1, 15760, Note_on_c, 0, 63, 41
1, 15782, Note_on_c, 0, 53, 48
1, 15786, Note_on_c, 0, 60, 38
1, 15802, Note_off_c, 0, 67, 64
1, 15866, Note_off_c, 0, 53, 64
1, 15884, Note_off_c, 0, 60, 64
1, 15904, Note_off_c, 0, 63, 64
1, 15914, Control_c, 0, 64, 127
1, 16068, Control_c, 0, 64, 0
1, 16114, Note_on_c, 0, 70, 70
1, 16140, Note_on_c, 0, 46, 48
1, 16146, Note_off_c, 0, 69, 64
1, 16208, Note_off_c, 0, 70, 64
1, 16208, Note_off_c, 0, 46, 64
1, 16238, Control_c, 0, 64, 127
1, 16424, Note_on_c, 0, 72, 71
1, 16468, Control_c, 0, 64, 0
1, 16484, Note_off_c, 0, 72, 64
1, 16504, Note_on_c, 0, 58, 28
1, 16506, Note_on_c, 0, 74, 87
1, 16516, Note_on_c, 0, 62, 37
1, 16532, Note_on_c, 0, 53, 50
1, 16622, Note_off_c, 0, 62, 64
1, 16640, Note_off_c, 0, 58, 64
1, 16652, Note_off_c, 0, 53, 64
1, 16652, Control_c, 0, 64, 127
1, 16872, Note_on_c, 0, 75, 88
1, 16886, Note_on_c, 0, 46, 55
1, 16932, Note_off_c, 0, 74, 64
1, 17058, Note_on_c, 0, 77, 89
1, 17104, Note_off_c, 0, 75, 64
1, 17152, Note_off_c, 0, 46, 64
1, 17174, Control_c, 0, 64, 0
1, 17198, Note_off_c, 0, 77, 64
1, 17220, Note_on_c, 0, 79, 91
1, 17238, Note_on_c, 0, 39, 49
1, 17238, Note_on_c, 0, 51, 53
1, 17284, Note_off_c, 0, 39, 64
1, 17290, Note_off_c, 0, 51, 64
1, 17388, Note_off_c, 0, 79, 64
1, 17390, Control_c, 0, 64, 127
1, 17532, Note_on_c, 0, 81, 77
1, 17570, Note_off_c, 0, 81, 64
1, 17596, Note_on_c, 0, 55, 47
1, 17664, Note_on_c, 0, 82, 77
1, 17674, Note_on_c, 0, 63, 50
1, 17692, Note_on_c, 0, 58, 8
1, 17716, Note_on_c, 0, 67, 55
1, 17758, Note_on_c, 0, 84, 84
1, 17774, Note_off_c, 0, 82, 64
1, 17802, Note_off_c, 0, 84, 64
1, 17838, Note_on_c, 0, 82, 65
1, 17906, Note_on_c, 0, 84, 66
1, 17928, Note_off_c, 0, 82, 64
1, 17928, Control_c, 0, 64, 0
1, 17986, Note_on_c, 0, 82, 71
1, 17994, Note_off_c, 0, 84, 64
1, 18044, Note_off_c, 0, 82, 64
1, 18050, Note_on_c, 0, 84, 65
1, 18108, Note_off_c, 0, 67, 64
1, 18112, Control_c, 0, 64, 127
1, 18112, Note_on_c, 0, 82, 71
1, 18130, Note_off_c, 0, 55, 64
1, 18186, Note_off_c, 0, 84, 64
1, 18190, Note_off_c, 0, 63, 64
1, 18238, Note_off_c, 0, 58, 64
1, 18244, Note_on_c, 0, 81, 69
1, 18310, Note_off_c, 0, 82, 64
1, 18358, Control_c, 0, 64, 0
1, 18440, Note_on_c, 0, 79, 84
1, 18448, Note_off_c, 0, 81, 64
1, 18496, Control_c, 0, 64, 127
1, 18554, Note_off_c, 0, 79, 64
1, 18590, Note_on_c, 0, 77, 65
1, 18638, Note_off_c, 0, 77, 64
1, 18708, Note_on_c, 0, 46, 27
1, 18710, Control_c, 0, 64, 0
1, 18716, Note_on_c, 0, 77, 49
1, 18776, Note_off_c, 0, 77, 64
1, 18776, Note_on_c, 0, 82, 62
1, 18908, Note_off_c, 0, 82, 64
1, 18970, Note_off_c, 0, 46, 64
1, 18972, Control_c, 0, 64, 127
1, 19184, Note_on_c, 0, 82, 48
1, 19280, Note_off_c, 0, 82, 64
1, 19286, Note_on_c, 0, 74, 56
1, 19318, Note_on_c, 0, 62, 24
1, 19328, Note_on_c, 0, 58, 12
1, 19356, Control_c, 0, 64, 0
1, 19366, Note_on_c, 0, 53, 23
1, 19452, Note_off_c, 0, 53, 64
1, 19476, Note_off_c, 0, 62, 64
1, 19510, Control_c, 0, 64, 127
1, 19530, Note_off_c, 0, 58, 64
1, 19710, Control_c, 0, 64, 0
1, 19752, Note_on_c, 0, 62, 34
1, 19764, Note_on_c, 0, 58, 21
1, 19764, Note_on_c, 0, 53, 47
1, 19810, Note_off_c, 0, 62, 64
1, 19816, Control_c, 0, 64, 127
1, 19822, Note_off_c, 0, 53, 64
1, 19832, Note_off_c, 0, 58, 64
1, 20032, Control_c, 0, 64, 0
1, 20034, Note_on_c, 0, 75, 44
1, 20042, Note_off_c, 0, 74, 64
1, 20110, Note_off_c, 0, 75, 64
1, 20113, Note_on_c, 0, 79, 67
1, 20142, Note_on_c, 0, 41, 34
1, 20166, Note_off_c, 0, 79, 64
1, 20206, Note_off_c, 0, 41, 64
1, 20232, Control_c, 0, 64, 127
1, 20444, Note_on_c, 0, 79, 31
1, 20510, Note_on_c, 0, 63, 24
1, 20518, Note_on_c, 0, 69, 51
1, 20532, Note_on_c, 0, 53, 30
1, 20572, Note_off_c, 0, 79, 64
1, 20588, Note_on_c, 0, 60, 12
1, 20622, Note_off_c, 0, 63, 64
1, 20622, Note_off_c, 0, 53, 64
1, 20676, Note_off_c, 0, 60, 64
1, 20832, Control_c, 0, 64, 0
1, 20906, Note_on_c, 0, 63, 34
1, 20914, Note_on_c, 0, 53, 64
1, 20918, Note_on_c, 0, 60, 22
1, 20982, Note_off_c, 0, 63, 64
1, 20994, Note_off_c, 0, 60, 64
1, 20997, Note_off_c, 0, 53, 64
1, 21000, Control_c, 0, 64, 127
1, 21188, Note_on_c, 0, 70, 54
1, 21200, Control_c, 0, 64, 0
1, 21222, Note_off_c, 0, 69, 64
1, 21248, Note_on_c, 0, 46, 43
1, 21258, Note_on_c, 0, 74, 81
1, 21278, Note_off_c, 0, 70, 64
1, 21304, Note_off_c, 0, 74, 64
1, 21360, Note_off_c, 0, 46, 64
1, 21384, Control_c, 0, 64, 127
1, 21522, Control_c, 0, 64, 0
1, 21544, Note_on_c, 0, 74, 76
1, 21600, Note_on_c, 0, 58, 23
1, 21602, Note_on_c, 0, 62, 38
1, 21636, Note_on_c, 0, 64, 73
1, 21642, Note_on_c, 0, 53, 22
1, 21724, Note_off_c, 0, 62, 64
1, 21727, Note_off_c, 0, 74, 64
1, 21727, Note_off_c, 0, 53, 64
1, 21762, Note_off_c, 0, 58, 64
1, 21768, Control_c, 0, 64, 127
1, 21908, Control_c, 0, 64, 0
1, 22012, Note_on_c, 0, 62, 46
1, 22014, Note_on_c, 0, 58, 35
1, 22022, Note_on_c, 0, 53, 61
1, 22078, Note_off_c, 0, 62, 64
1, 22086, Note_off_c, 0, 53, 64
1, 22092, Control_c, 0, 64, 127
1, 22110, Note_off_c, 0, 58, 64
1, 22368, Note_off_c, 0, 64, 64
1, 22378, Note_on_c, 0, 65, 73
1, 22384, Control_c, 0, 64, 0
1, 22416, Note_on_c, 0, 41, 51
1, 22466, Note_off_c, 0, 41, 64
1, 22506, Control_c, 0, 64, 127
1, 22516, Note_off_c, 0, 65, 64
1, 22664, Note_on_c, 0, 69, 63
1, 22720, Control_c, 0, 64, 0
1, 22736, Note_on_c, 0, 63, 49
1, 22750, Note_on_c, 0, 72, 83
1, 22750, Note_on_c, 0, 53, 56
1, 22798, Note_off_c, 0, 69, 64
1, 22824, Note_off_c, 0, 53, 64
1, 22862, Note_off_c, 0, 63, 64
1, 22904, Control_c, 0, 64, 127
1, 22984, Note_on_c, 0, 75, 76
1, 22990, Note_off_c, 0, 72, 64
1, 23058, Note_on_c, 0, 53, 33
1, 23074, Control_c, 0, 64, 0
1, 23078, Note_on_c, 0, 57, 17
1, 23092, Note_on_c, 0, 79, 91
1, 23129, Note_on_c, 0, 63, 40
1, 23140, Note_off_c, 0, 75, 64
1, 23168, Note_off_c, 0, 53, 64
1, 23202, Note_off_c, 0, 57, 64
1, 23206, Note_off_c, 0, 63, 64
1, 23244, Control_c, 0, 64, 127
1, 23312, Note_on_c, 0, 77, 69
1, 23322, Note_off_c, 0, 79, 64
1, 23350, Note_off_c, 0, 77, 64
1, 23416, Note_on_c, 0, 77, 44
1, 23422, Note_on_c, 0, 79, 69
1, 23468, Note_off_c, 0, 79, 64
1, 23474, Control_c, 0, 64, 0
1, 23504, Note_off_c, 0, 77, 64
1, 23558, Note_on_c, 0, 46, 24
1, 23578, Note_on_c, 0, 86, 63
1, 23792, Note_off_c, 0, 46, 64
1, 23828, Control_c, 0, 64, 127
1, 23886, Note_off_c, 0, 86, 64
1, 23918, Note_on_c, 0, 84, 29
1, 23980, Note_on_c, 0, 82, 46
1, 23988, Note_off_c, 0, 84, 64
1, 24030, Note_off_c, 0, 82, 64
1, 24044, Note_on_c, 0, 84, 35
1, 24088, Note_on_c, 0, 82, 60
1, 24102, Control_c, 0, 64, 0
1, 24110, Note_on_c, 0, 58, 8
1, 24113, Note_off_c, 0, 84, 64
1, 24113, Note_on_c, 0, 62, 14
1, 24222, Note_off_c, 0, 62, 64
1, 24226, Control_c, 0, 64, 127
1, 24252, Note_off_c, 0, 58, 64
1, 24280, Note_on_c, 0, 79, 64
1, 24298, Note_off_c, 0, 82, 64
1, 24452, Note_off_c, 0, 79, 64
1, 24455, Control_c, 0, 64, 0
1, 24478, Note_on_c, 0, 77, 58
1, 24480, Note_on_c, 0, 53, 39
1, 24484, Note_on_c, 0, 62, 28
1, 24502, Note_on_c, 0, 58, 19
1, 24562, Note_off_c, 0, 53, 64
1, 24562, Note_off_c, 0, 62, 64
1, 24580, Note_off_c, 0, 58, 64
1, 24626, Control_c, 0, 64, 127
1, 24776, Note_on_c, 0, 79, 59
1, 24780, Control_c, 0, 64, 0
1, 24782, Note_off_c, 0, 77, 64
1, 24826, Note_off_c, 0, 79, 64
1, 24840, Note_on_c, 0, 82, 34
1, 24842, Note_on_c, 0, 46, 23
1, 24924, Note_off_c, 0, 82, 64
1, 24926, Note_off_c, 0, 46, 64
1, 24948, Control_c, 0, 64, 127
1, 25174, Note_on_c, 0, 82, 36
1, 25248, Note_off_c, 0, 82, 64
1, 25278, Note_on_c, 0, 63, 19
1, 25316, Note_on_c, 0, 69, 27
1, 25324, Note_on_c, 0, 53, 28
1, 25366, Note_on_c, 0, 60, 10
1, 25456, Note_off_c, 0, 53, 64
1, 25500, Note_off_c, 0, 60, 64
1, 25508, Note_off_c, 0, 63, 64
1, 25656, Control_c, 0, 64, 0
1, 25738, Note_on_c, 0, 63, 31
1, 25746, Note_on_c, 0, 53, 48
1, 25784, Note_on_c, 0, 60, 11
1, 25802, Note_off_c, 0, 63, 64
1, 25820, Note_off_c, 0, 53, 64
1, 25844, Note_off_c, 0, 60, 64
1, 25856, Control_c, 0, 64, 127
1, 25984, Note_on_c, 0, 70, 54
1, 25998, Note_off_c, 0, 69, 64
1, 26040, Control_c, 0, 64, 0
1, 26043, Note_off_c, 0, 70, 64
1, 26070, Note_on_c, 0, 74, 45
1, 26070, Note_on_c, 0, 46, 21
1, 26120, Note_off_c, 0, 74, 64
1, 26122, Note_on_c, 0, 77, 66
1, 26212, Note_off_c, 0, 77, 64
1, 26216, Note_off_c, 0, 46, 64
1, 26240, Control_c, 0, 64, 127
1, 26460, Note_on_c, 0, 77, 63
1, 26506, Note_off_c, 0, 77, 64
1, 26528, Note_on_c, 0, 62, 25
1, 26546, Note_on_c, 0, 58, 11
1, 26568, Note_on_c, 0, 53, 17
1, 26586, Note_on_c, 0, 64, 64
1, 26654, Control_c, 0, 64, 0
1, 26762, Note_off_c, 0, 53, 64
1, 26764, Note_off_c, 0, 62, 64
1, 26790, Note_off_c, 0, 58, 64
1, 26838, Control_c, 0, 64, 127
1, 26982, Note_on_c, 0, 62, 35
1, 26990, Note_on_c, 0, 58, 17
1, 27007, Note_on_c, 0, 53, 41
1, 27042, Note_off_c, 0, 62, 64
1, 27066, Note_off_c, 0, 53, 64
1, 27070, Note_off_c, 0, 58, 64
1, 27330, Control_c, 0, 64, 0
1, 27358, Note_off_c, 0, 64, 64
1, 27358, Note_on_c, 0, 65, 62
1, 27382, Note_on_c, 0, 41, 43
1, 27456, Note_off_c, 0, 41, 64
1, 27472, Note_off_c, 0, 65, 64
1, 27484, Control_c, 0, 64, 127
1, 27626, Note_on_c, 0, 69, 62
1, 27708, Note_off_c, 0, 69, 64
1, 27714, Control_c, 0, 64, 0
1, 27736, Note_on_c, 0, 72, 64
1, 27740, Note_on_c, 0, 63, 41
1, 27762, Note_on_c, 0, 53, 44
1, 27832, Note_off_c, 0, 53, 64
1, 27848, Note_off_c, 0, 63, 64
1, 27852, Control_c, 0, 64, 127
1, 27894, Note_off_c, 0, 72, 64
1, 27897, Note_on_c, 0, 75, 55
1, 27946, Note_off_c, 0, 75, 64
1, 27998, Note_on_c, 0, 74, 57
1, 28044, Note_off_c, 0, 74, 64
1, 28044, Note_on_c, 0, 75, 63
1, 28052, Note_on_c, 0, 53, 41
1, 28052, Control_c, 0, 64, 0
1, 28074, Note_on_c, 0, 57, 24
1, 28106, Note_on_c, 0, 74, 73
1, 28110, Note_on_c, 0, 63, 42
1, 28190, Note_off_c, 0, 75, 64
1, 28200, Note_off_c, 0, 63, 64
1, 28258, Note_off_c, 0, 57, 64
1, 28268, Control_c, 0, 64, 127
1, 28274, Note_off_c, 0, 53, 64
1, 28308, Note_on_c, 0, 72, 67
1, 28334, Note_off_c, 0, 74, 64
1, 28466, Control_c, 0, 64, 0
1, 28516, Note_off_c, 0, 72, 64
1, 28550, Note_on_c, 0, 46, 26
1, 28552, Note_on_c, 0, 74, 49
1, 28714, Control_c, 0, 64, 127
1, 28734, Note_off_c, 0, 74, 64
1, 28742, Note_off_c, 0, 46, 64
1, 29064, Note_on_c, 0, 65, 27
1, 29172, Note_off_c, 0, 65, 64
1, 29175, Control_c, 0, 64, 0
1, 29182, Note_on_c, 0, 70, 41
1, 29194, Note_on_c, 0, 62, 24
1, 29200, Note_on_c, 0, 58, 14
1, 29232, Note_on_c, 0, 53, 34
1, 29512, Control_c, 0, 64, 127
1, 29700, Note_off_c, 0, 53, 64
1, 29714, Note_off_c, 0, 62, 64
1, 29824, Note_off_c, 0, 58, 64
1, 30006, Note_on_c, 0, 69, 39
1, 30034, Control_c, 0, 64, 0
1, 30042, Note_off_c, 0, 70, 64
1, 30266, Note_on_c, 0, 70, 42
1, 30282, Note_off_c, 0, 69, 64
1, 30534, Note_on_c, 0, 72, 44
1, 30548, Note_off_c, 0, 70, 64
1, 30548, Note_on_c, 0, 41, 34
1, 30788, Control_c, 0, 64, 127
1, 30860, Note_off_c, 0, 41, 64
1, 30916, Note_off_c, 0, 72, 64
1, 30948, Note_on_c, 0, 74, 34
1, 31016, Note_off_c, 0, 74, 64
1, 31018, Note_on_c, 0, 72, 36
1, 31024, Note_on_c, 0, 57, 14
1, 31030, Note_on_c, 0, 48, 21
1, 31234, Note_off_c, 0, 57, 64
1, 31234, Note_off_c, 0, 48, 64
1, 31460, Note_on_c, 0, 76, 54
1, 31478, Note_on_c, 0, 48, 30
1, 31488, Note_on_c, 0, 57, 34
1, 31508, Note_off_c, 0, 72, 64
1, 31554, Note_off_c, 0, 57, 64
1, 31688, Note_on_c, 0, 77, 65
1, 31704, Note_off_c, 0, 48, 64
1, 31744, Note_off_c, 0, 76, 64
1, 31862, Control_c, 0, 64, 0
1, 31866, Note_on_c, 0, 41, 48
1, 31888, Note_on_c, 0, 79, 63
1, 31902, Note_off_c, 0, 77, 64
1, 32010, Note_off_c, 0, 41, 64
1, 32032, Control_c, 0, 64, 127
1, 32160, Note_off_c, 0, 79, 64
1, 32180, Note_on_c, 0, 81, 52
1, 32258, Note_on_c, 0, 58, 30
1, 32264, Note_on_c, 0, 79, 63
1, 32286, Note_on_c, 0, 50, 44
1, 32306, Note_off_c, 0, 81, 64
1, 32360, Note_off_c, 0, 50, 64
1, 32428, Note_off_c, 0, 58, 64
1, 32696, Note_on_c, 0, 77, 61
1, 32710, Note_on_c, 0, 58, 32
1, 32738, Note_on_c, 0, 50, 44
1, 32794, Note_off_c, 0, 79, 64
1, 32798, Note_off_c, 0, 50, 64
1, 32816, Note_off_c, 0, 58, 64
1, 32898, Note_on_c, 0, 74, 75
1, 32934, Note_off_c, 0, 77, 64
1, 33092, Control_c, 0, 64, 0
1, 33092, Note_on_c, 0, 72, 73
1, 33106, Note_off_c, 0, 74, 64
1, 33128, Note_on_c, 0, 41, 31
1, 33292, Control_c, 0, 64, 127
1, 33292, Note_on_c, 0, 74, 81
1, 33310, Note_off_c, 0, 72, 64
1, 33486, Note_off_c, 0, 74, 64
1, 33486, Note_on_c, 0, 72, 76
1, 33498, Note_on_c, 0, 48, 33
1, 33498, Note_on_c, 0, 57, 35
1, 33506, Control_c, 0, 64, 0
1, 33672, Note_off_c, 0, 48, 64
1, 33674, Note_off_c, 0, 57, 64
1, 33676, Control_c, 0, 64, 127
1, 33860, Note_on_c, 0, 76, 69
1, 33866, Note_off_c, 0, 72, 64
1, 33890, Control_c, 0, 64, 0
1, 33894, Note_on_c, 0, 57, 37
1, 33898, Note_on_c, 0, 48, 40
1, 34030, Control_c, 0, 64, 127
1, 34033, Note_off_c, 0, 76, 64
1, 34038, Note_off_c, 0, 57, 64
1, 34090, Note_off_c, 0, 41, 64
1, 34170, Note_off_c, 0, 48, 64
1, 34186, Note_on_c, 0, 77, 51
1, 34228, Control_c, 0, 64, 0
1, 34246, Note_off_c, 0, 77, 64
1, 34262, Note_on_c, 0, 41, 60
1, 34290, Note_on_c, 0, 79, 64
1, 34440, Note_on_c, 0, 81, 64
1, 34442, Note_off_c, 0, 79, 64
1, 34444, Control_c, 0, 64, 127
1, 34458, Note_off_c, 0, 41, 64
1, 34512, Note_off_c, 0, 81, 64
1, 34574, Note_on_c, 0, 79, 70
1, 34644, Note_off_c, 0, 79, 64
1, 34684, Note_on_c, 0, 58, 31
1, 34692, Note_on_c, 0, 77, 72
1, 34700, Note_on_c, 0, 50, 39
1, 34828, Note_off_c, 0, 58, 64
1, 35058, Note_off_c, 0, 50, 64
1, 35104, Note_on_c, 0, 41, 54
1, 35268, Note_off_c, 0, 41, 64
1, 35276, Note_on_c, 0, 74, 70
1, 35310, Note_off_c, 0, 77, 64
1, 35442, Note_on_c, 0, 57, 44
1, 35442, Control_c, 0, 64, 0
1, 35448, Note_on_c, 0, 48, 39
1, 35452, Note_on_c, 0, 72, 71
1, 35468, Note_off_c, 0, 74, 64
1, 35606, Note_off_c, 0, 57, 64
1, 35620, Note_on_c, 0, 74, 88
1, 35628, Control_c, 0, 64, 127
1, 35650, Note_off_c, 0, 72, 64
1, 35800, Note_on_c, 0, 72, 75
1, 35804, Note_off_c, 0, 48, 64
1, 35816, Note_on_c, 0, 41, 51
1, 35826, Control_c, 0, 64, 0
1, 35828, Note_off_c, 0, 74, 64
1, 35996, Control_c, 0, 64, 127
1, 36000, Note_off_c, 0, 41, 64
1, 36216, Note_on_c, 0, 76, 67
1, 36236, Note_on_c, 0, 57, 39
1, 36246, Note_on_c, 0, 48, 34
1, 36262, Note_off_c, 0, 72, 64
1, 36346, Note_off_c, 0, 57, 64
1, 36406, Note_on_c, 0, 77, 78
1, 36434, Note_off_c, 0, 48, 64
1, 36464, Note_off_c, 0, 76, 64
1, 36568, Note_on_c, 0, 41, 56
1, 36576, Note_on_c, 0, 79, 84
1, 36580, Control_c, 0, 64, 0
1, 36586, Note_off_c, 0, 77, 64
1, 36720, Note_on_c, 0, 81, 74
1, 36736, Note_off_c, 0, 41, 64
1, 36744, Note_off_c, 0, 79, 64
1, 36748, Control_c, 0, 64, 127
1, 36810, Note_off_c, 0, 81, 64
1, 36888, Note_on_c, 0, 58, 46
1, 36888, Note_on_c, 0, 79, 85
1, 36902, Control_c, 0, 64, 0
1, 36904, Note_on_c, 0, 50, 42
1, 36954, Note_off_c, 0, 79, 64
1, 36980, Note_on_c, 0, 81, 51
1, 37038, Note_off_c, 0, 81, 64
1, 37038, Note_on_c, 0, 79, 71
1, 37040, Control_c, 0, 64, 127
1, 37044, Note_off_c, 0, 58, 64
1, 37088, Note_off_c, 0, 79, 64
1, 37102, Note_on_c, 0, 81, 75
1, 37154, Note_on_c, 0, 79, 84
1, 37180, Note_off_c, 0, 50, 64
1, 37204, Note_on_c, 0, 41, 38
1, 37210, Note_off_c, 0, 81, 64
1, 37250, Note_on_c, 0, 77, 82
1, 37278, Note_off_c, 0, 79, 64
1, 37332, Note_off_c, 0, 41, 64
1, 37394, Note_off_c, 0, 77, 64
1, 37398, Note_on_c, 0, 74, 87
1, 37554, Note_on_c, 0, 72, 83
1, 37559, Note_on_c, 0, 48, 41
1, 37562, Control_c, 0, 64, 0
1, 37568, Note_on_c, 0, 57, 47
1, 37574, Note_off_c, 0, 74, 64
1, 37716, Note_off_c, 0, 57, 64
1, 37734, Note_on_c, 0, 74, 80
1, 37758, Note_off_c, 0, 72, 64
1, 37764, Control_c, 0, 64, 127
1, 37846, Note_off_c, 0, 48, 64
1, 37888, Note_off_c, 0, 74, 64
1, 37904, Note_on_c, 0, 72, 85
1, 37914, Note_on_c, 0, 41, 61
1, 38006, Note_off_c, 0, 41, 64
1, 38244, Note_on_c, 0, 76, 80
1, 38258, Note_on_c, 0, 57, 52
1, 38260, Note_on_c, 0, 48, 49
1, 38262, Note_off_c, 0, 72, 64
1, 38419, Note_off_c, 0, 48, 64
1, 38423, Note_off_c, 0, 57, 64
1, 38438, Note_on_c, 0, 77, 87
1, 38496, Note_off_c, 0, 76, 64
1, 38522, Note_on_c, 0, 48, 22
1, 38586, Note_on_c, 0, 52, 56
1, 38624, Control_c, 0, 64, 0
1, 38662, Note_on_c, 0, 79, 91
1, 38680, Note_on_c, 0, 58, 47
1, 38704, Note_off_c, 0, 77, 64
1, 38842, Note_on_c, 0, 81, 82
1, 38864, Note_off_c, 0, 79, 64
1, 38884, Control_c, 0, 64, 127
1, 38968, Note_on_c, 0, 79, 79
1, 39012, Note_off_c, 0, 81, 64
1, 39022, Note_off_c, 0, 58, 64
1, 39056, Note_off_c, 0, 52, 64
1, 39110, Note_on_c, 0, 57, 44
1, 39114, Control_c, 0, 64, 0
1, 39116, Note_on_c, 0, 77, 86
1, 39132, Note_off_c, 0, 48, 64
1, 39132, Note_on_c, 0, 53, 58
1, 39138, Note_off_c, 0, 79, 64
1, 39316, Control_c, 0, 64, 127
1, 39346, Note_off_c, 0, 77, 64
1, 39548, Note_off_c, 0, 57, 64
1, 39554, Note_on_c, 0, 67, 80
1, 39582, Note_off_c, 0, 53, 64
1, 39910, Note_on_c, 0, 77, 84
1, 39946, Note_off_c, 0, 67, 64
1, 39976, Control_c, 0, 64, 0
1, 40186, Note_on_c, 0, 66, 70
1, 40236, Note_off_c, 0, 77, 64
1, 40252, Control_c, 0, 64, 127
1, 40422, Note_on_c, 0, 77, 89
1, 40428, Note_off_c, 0, 66, 64
1, 40484, Note_off_c, 0, 77, 64
1, 40620, Note_on_c, 0, 77, 84
1, 40662, Note_off_c, 0, 77, 64
1, 40688, Note_on_c, 0, 65, 82
1, 40698, Control_c, 0, 64, 0
1, 40720, Note_on_c, 0, 41, 45
1, 40880, Note_off_c, 0, 41, 64
1, 40902, Note_off_c, 0, 65, 64
1, 40914, Control_c, 0, 64, 127
1, 41152, Note_on_c, 0, 65, 76
1, 41200, Note_off_c, 0, 65, 64
1, 41224, Note_on_c, 0, 67, 88
1, 41242, Note_on_c, 0, 63, 53
1, 41260, Note_on_c, 0, 53, 60
1, 41268, Note_on_c, 0, 60, 42
1, 41504, Note_off_c, 0, 63, 64
1, 41512, Note_off_c, 0, 53, 64
1, 41656, Note_on_c, 0, 63, 72
1, 41659, Note_on_c, 0, 69, 84
1, 41686, Note_on_c, 0, 53, 64
1, 41744, Note_off_c, 0, 67, 64
1, 41812, Note_off_c, 0, 63, 64
1, 41850, Note_off_c, 0, 60, 64
1, 41892, Note_off_c, 0, 53, 64
1, 42024, Note_on_c, 0, 70, 75
1, 42034, Control_c, 0, 64, 0
1, 42052, Note_on_c, 0, 46, 61
1, 42086, Note_off_c, 0, 69, 64
1, 42178, Note_off_c, 0, 46, 64
1, 42200, Note_off_c, 0, 70, 64
1, 42204, Control_c, 0, 64, 127
1, 42332, Note_on_c, 0, 72, 72
1, 42406, Note_on_c, 0, 74, 98
1, 42409, Note_on_c, 0, 62, 63
1, 42420, Note_on_c, 0, 58, 40
1, 42428, Note_on_c, 0, 53, 62
1, 42458, Note_off_c, 0, 72, 64
1, 42480, Control_c, 0, 64, 0
1, 42564, Note_off_c, 0, 62, 64
1, 42618, Control_c, 0, 64, 127
1, 42634, Note_off_c, 0, 58, 64
1, 42646, Note_off_c, 0, 53, 64
1, 42782, Note_on_c, 0, 75, 85
1, 42784, Note_on_c, 0, 46, 81
1, 42824, Note_off_c, 0, 74, 64
1, 42970, Note_on_c, 0, 77, 92
1, 42982, Note_off_c, 0, 75, 64
1, 43054, Note_off_c, 0, 46, 64
1, 43112, Control_c, 0, 64, 0
1, 43134, Note_on_c, 0, 79, 101
1, 43140, Note_off_c, 0, 77, 64
1, 43142, Note_on_c, 0, 39, 86
1, 43142, Note_on_c, 0, 51, 79
1, 43236, Note_off_c, 0, 51, 64
1, 43248, Note_off_c, 0, 39, 64
1, 43278, Note_off_c, 0, 79, 64
1, 43294, Control_c, 0, 64, 127
1, 43488, Note_on_c, 0, 81, 87
1, 43488, Note_on_c, 0, 55, 68
1, 43524, Note_on_c, 0, 58, 43
1, 43526, Note_off_c, 0, 81, 64
1, 43566, Note_on_c, 0, 63, 63
1, 43580, Note_on_c, 0, 82, 84
1, 43580, Note_on_c, 0, 67, 77
1, 43662, Note_on_c, 0, 84, 84
1, 43692, Note_off_c, 0, 82, 64
1, 43714, Note_off_c, 0, 84, 64
1, 43746, Note_on_c, 0, 82, 74
1, 43794, Note_off_c, 0, 82, 64
1, 43814, Note_on_c, 0, 84, 74
1, 43866, Note_off_c, 0, 84, 64
1, 43876, Note_on_c, 0, 82, 54
1, 43946, Note_on_c, 0, 84, 81
1, 43972, Note_off_c, 0, 82, 64
1, 43975, Note_off_c, 0, 67, 64
1, 44016, Note_on_c, 0, 82, 75
1, 44076, Note_off_c, 0, 55, 64
1, 44090, Note_off_c, 0, 63, 64
1, 44092, Note_off_c, 0, 84, 64
1, 44098, Note_on_c, 0, 81, 91
1, 44144, Note_off_c, 0, 58, 64
1, 44176, Note_off_c, 0, 82, 64
1, 44280, Note_on_c, 0, 79, 93
1, 44286, Note_off_c, 0, 81, 64
1, 44456, Note_on_c, 0, 77, 83
1, 44478, Control_c, 0, 64, 0
1, 44484, Note_off_c, 0, 79, 64
1, 44532, Note_on_c, 0, 46, 40
1, 44586, Note_on_c, 0, 82, 76
1, 44588, Note_off_c, 0, 77, 64
1, 44768, Note_off_c, 0, 82, 64
1, 44784, Control_c, 0, 64, 127
1, 44806, Note_off_c, 0, 46, 64
1, 45074, Note_on_c, 0, 82, 65
1, 45178, Note_on_c, 0, 62, 22
1, 45192, Note_on_c, 0, 74, 75
1, 45196, Note_on_c, 0, 58, 11
1, 45208, Note_off_c, 0, 82, 64
1, 45226, Note_on_c, 0, 53, 30
1, 45322, Control_c, 0, 64, 0
1, 45470, Note_off_c, 0, 53, 64
1, 45474, Note_off_c, 0, 62, 64
1, 45492, Control_c, 0, 64, 127
1, 45508, Note_off_c, 0, 58, 64
1, 45698, Note_on_c, 0, 62, 41
1, 45718, Note_on_c, 0, 53, 57
1, 45720, Note_on_c, 0, 58, 21
1, 45764, Note_off_c, 0, 62, 64
1, 45777, Note_off_c, 0, 53, 64
1, 45790, Note_off_c, 0, 58, 64
1, 46026, Note_on_c, 0, 75, 58
1, 46040, Control_c, 0, 64, 0
1, 46046, Note_off_c, 0, 74, 64
1, 46082, Note_off_c, 0, 75, 64
1, 46085, Note_on_c, 0, 79, 76
1, 46090, Note_on_c, 0, 41, 49
1, 46144, Note_off_c, 0, 41, 64
1, 46194, Note_off_c, 0, 79, 64
1, 46230, Control_c, 0, 64, 127
1, 46446, Note_on_c, 0, 79, 83
1, 46534, Note_on_c, 0, 63, 26
1, 46546, Note_on_c, 0, 69, 62
1, 46564, Note_on_c, 0, 53, 27
1, 46570, Note_off_c, 0, 79, 64
1, 46574, Note_on_c, 0, 60, 21
1, 46660, Control_c, 0, 64, 0
1, 46800, Note_off_c, 0, 53, 64
1, 46870, Note_off_c, 0, 63, 64
1, 46874, Control_c, 0, 64, 127
1, 46894, Note_off_c, 0, 60, 64
1, 47088, Note_on_c, 0, 63, 29
1, 47100, Note_on_c, 0, 60, 18
1, 47134, Note_on_c, 0, 53, 32
1, 47176, Note_off_c, 0, 63, 64
1, 47198, Note_off_c, 0, 60, 64
1, 47220, Note_off_c, 0, 53, 64
1, 47384, Note_on_c, 0, 70, 46
1, 47402, Note_off_c, 0, 69, 64
1, 47412, Control_c, 0, 64, 0
1, 47446, Note_off_c, 0, 70, 64
1, 47464, Note_on_c, 0, 74, 57
1, 47470, Note_on_c, 0, 46, 33
1, 47534, Note_off_c, 0, 74, 64
1, 47550, Note_off_c, 0, 46, 64
1, 47612, Control_c, 0, 64, 127
1, 47800, Note_on_c, 0, 74, 65
1, 47848, Note_off_c, 0, 74, 64
1, 47880, Note_on_c, 0, 58, 18
1, 47896, Note_on_c, 0, 64, 63
1, 47902, Note_on_c, 0, 62, 16
1, 47908, Note_on_c, 0, 53, 21
1, 48146, Note_off_c, 0, 62, 64
1, 48194, Note_off_c, 0, 58, 64
1, 48194, Note_off_c, 0, 53, 64
1, 48334, Control_c, 0, 64, 0
1, 48390, Note_on_c, 0, 62, 44
1, 48394, Note_on_c, 0, 53, 52
1, 48404, Note_on_c, 0, 58, 28
1, 48502, Control_c, 0, 64, 127
1, 48518, Note_off_c, 0, 62, 64
1, 48542, Note_off_c, 0, 53, 64
1, 48542, Note_off_c, 0, 58, 64
1, 48810, Control_c, 0, 64, 0
1, 48814, Note_on_c, 0, 65, 68
1, 48838, Note_off_c, 0, 64, 64
1, 48838, Note_on_c, 0, 41, 53
1, 48902, Note_off_c, 0, 41, 64
1, 48918, Note_off_c, 0, 65, 64
1, 48948, Control_c, 0, 64, 127
1, 49110, Note_on_c, 0, 69, 56
1, 49186, Note_on_c, 0, 72, 83
1, 49198, Note_on_c, 0, 63, 45
1, 49208, Note_on_c, 0, 53, 58
1, 49210, Control_c, 0, 64, 0
1, 49246, Note_off_c, 0, 69, 64
1, 49314, Note_off_c, 0, 53, 64
1, 49332, Note_off_c, 0, 63, 64
1, 49348, Control_c, 0, 64, 127
1, 49366, Note_off_c, 0, 72, 64
1, 49450, Note_on_c, 0, 75, 79
1, 49548, Control_c, 0, 64, 0
1, 49560, Note_on_c, 0, 79, 89
1, 49566, Note_on_c, 0, 57, 22
1, 49578, Note_on_c, 0, 63, 28
1, 49594, Note_off_c, 0, 75, 64
1, 49600, Note_on_c, 0, 53, 47
1, 49664, Note_off_c, 0, 63, 64
1, 49706, Note_off_c, 0, 57, 64
1, 49716, Control_c, 0, 64, 127
1, 49718, Note_off_c, 0, 53, 64
1, 49782, Note_off_c, 0, 79, 64
1, 49792, Note_on_c, 0, 77, 70
1, 49826, Note_off_c, 0, 77, 64
1, 49890, Note_on_c, 0, 77, 64
1, 49994, Control_c, 0, 64, 0
1, 50028, Note_on_c, 0, 46, 27
1, 50098, Note_off_c, 0, 77, 64
1, 50101, Note_on_c, 0, 86, 50
1, 50306, Note_off_c, 0, 46, 64
1, 50316, Control_c, 0, 64, 127
1, 50426, Note_off_c, 0, 86, 64
1, 50435, Note_on_c, 0, 84, 36
1, 50530, Note_on_c, 0, 82, 51
1, 50536, Note_off_c, 0, 84, 64
1, 50580, Note_off_c, 0, 82, 64
1, 50604, Note_on_c, 0, 84, 36
1, 50646, Note_on_c, 0, 82, 45
1, 50652, Note_on_c, 0, 62, 21
1, 50658, Note_on_c, 0, 58, 15
1, 50684, Note_on_c, 0, 53, 19
1, 50700, Control_c, 0, 64, 0
1, 50705, Note_off_c, 0, 84, 64
1, 50854, Control_c, 0, 64, 127
1, 50862, Note_off_c, 0, 62, 64
1, 50882, Note_off_c, 0, 58, 64
1, 50888, Note_on_c, 0, 79, 59
1, 50890, Note_off_c, 0, 53, 64
1, 50938, Note_off_c, 0, 82, 64
1, 51094, Note_off_c, 0, 79, 64
1, 51100, Note_on_c, 0, 77, 57
1, 51102, Control_c, 0, 64, 0
1, 51118, Note_on_c, 0, 62, 25
1, 51124, Note_on_c, 0, 53, 30
1, 51134, Note_on_c, 0, 58, 17
1, 51198, Note_off_c, 0, 62, 64
1, 51216, Note_off_c, 0, 53, 64
1, 51220, Note_off_c, 0, 58, 64
1, 51254, Control_c, 0, 64, 127
1, 51406, Control_c, 0, 64, 0
1, 51442, Note_on_c, 0, 79, 61
1, 51446, Note_off_c, 0, 77, 64
1, 51466, Note_on_c, 0, 46, 32
1, 51506, Note_on_c, 0, 82, 47
1, 51510, Note_off_c, 0, 79, 64
1, 51578, Note_off_c, 0, 46, 64
1, 51578, Note_off_c, 0, 82, 64
1, 51592, Control_c, 0, 64, 127
1, 51844, Note_on_c, 0, 82, 46
1, 51906, Note_off_c, 0, 82, 64
1, 51936, Note_on_c, 0, 63, 26
1, 51946, Note_on_c, 0, 53, 45
1, 51952, Note_on_c, 0, 69, 58
1, 51976, Note_on_c, 0, 60, 18
1, 52048, Note_off_c, 0, 53, 64
1, 52052, Control_c, 0, 64, 0
1, 52178, Note_off_c, 0, 63, 64
1, 52190, Note_off_c, 0, 60, 64
1, 52206, Control_c, 0, 64, 127
1, 52360, Control_c, 0, 64, 0
1, 52402, Note_on_c, 0, 63, 29
1, 52422, Note_on_c, 0, 60, 20
1, 52444, Note_on_c, 0, 53, 16
1, 52464, Note_off_c, 0, 63, 64
1, 52494, Note_off_c, 0, 60, 64
1, 52497, Control_c, 0, 64, 127
1, 52544, Note_off_c, 0, 53, 64
1, 52672, Note_on_c, 0, 70, 39
1, 52698, Note_off_c, 0, 69, 64
1, 52728, Control_c, 0, 64, 0
1, 52740, Note_on_c, 0, 74, 51
1, 52743, Note_off_c, 0, 70, 64
1, 52804, Note_off_c, 0, 74, 64
1, 52810, Note_on_c, 0, 46, 25
1, 52814, Note_on_c, 0, 77, 57
1, 52886, Note_off_c, 0, 77, 64
1, 52888, Note_off_c, 0, 46, 64
1, 52912, Control_c, 0, 64, 127
1, 53134, Note_on_c, 0, 77, 56
1, 53180, Note_off_c, 0, 77, 64
1, 53238, Note_on_c, 0, 58, 12
1, 53250, Note_on_c, 0, 62, 16
1, 53258, Note_on_c, 0, 64, 55
1, 53278, Note_on_c, 0, 53, 26
1, 53328, Control_c, 0, 64, 0
1, 53400, Note_off_c, 0, 53, 64
1, 53432, Note_off_c, 0, 62, 64
1, 53458, Note_off_c, 0, 58, 64
1, 53480, Control_c, 0, 64, 127
1, 53710, Note_on_c, 0, 58, 28
1, 53710, Note_on_c, 0, 53, 57
1, 53720, Note_on_c, 0, 62, 26
1, 53768, Note_off_c, 0, 53, 64
1, 53782, Note_off_c, 0, 58, 64
1, 53786, Note_off_c, 0, 62, 64
1, 54104, Note_off_c, 0, 64, 64
1, 54104, Note_on_c, 0, 65, 72
1, 54112, Control_c, 0, 64, 0
1, 54130, Note_on_c, 0, 41, 47
1, 54184, Note_off_c, 0, 41, 64
1, 54230, Note_off_c, 0, 65, 64
1, 54250, Control_c, 0, 64, 127
1, 54380, Note_on_c, 0, 69, 65
1, 54460, Note_off_c, 0, 69, 64
1, 54463, Control_c, 0, 64, 0
1, 54492, Note_on_c, 0, 72, 73
1, 54506, Note_on_c, 0, 63, 37
1, 54508, Note_on_c, 0, 53, 50
1, 54590, Note_off_c, 0, 63, 64
1, 54602, Control_c, 0, 64, 127
1, 54634, Note_off_c, 0, 53, 64
1, 54658, Note_off_c, 0, 72, 64
1, 54682, Note_on_c, 0, 75, 57
1, 54728, Note_off_c, 0, 75, 64
1, 54780, Note_on_c, 0, 74, 53
1, 54822, Note_on_c, 0, 75, 64
1, 54824, Note_on_c, 0, 53, 19
1, 54824, Note_on_c, 0, 57, 24
1, 54828, Note_off_c, 0, 74, 64
1, 54834, Control_c, 0, 64, 0
1, 54880, Note_on_c, 0, 63, 35
1, 54890, Note_on_c, 0, 74, 76
1, 54964, Note_off_c, 0, 75, 64
1, 54996, Note_off_c, 0, 63, 64
1, 55024, Note_off_c, 0, 57, 64
1, 55034, Control_c, 0, 64, 127
1, 55040, Note_off_c, 0, 53, 64
1, 55096, Note_on_c, 0, 72, 72
1, 55148, Note_off_c, 0, 74, 64
1, 55264, Control_c, 0, 64, 0
1, 55320, Note_off_c, 0, 72, 64
1, 55332, Note_on_c, 0, 74, 49
1, 55407, Note_on_c, 0, 46, 41
1, 55632, Control_c, 0, 64, 127
1, 55659, Note_off_c, 0, 46, 64
1, 55740, Note_off_c, 0, 74, 64
1, 55992, Note_on_c, 0, 65, 54
1, 56066, Note_off_c, 0, 65, 64
1, 56120, Note_on_c, 0, 70, 44
1, 56140, Control_c, 0, 64, 0
1, 56144, Note_on_c, 0, 58, 15
1, 56152, Note_on_c, 0, 62, 24
1, 56182, Note_on_c, 0, 53, 31
1, 56586, Control_c, 0, 64, 127
1, 56714, Note_off_c, 0, 70, 64
1, 56754, Note_off_c, 0, 62, 64
1, 56938, Note_off_c, 0, 58, 64
1, 57030, Note_off_c, 0, 53, 64
1, 57096, Note_on_c, 0, 69, 28
1, 57184, Control_c, 0, 64, 0
1, 57372, Note_on_c, 0, 70, 34
1, 57400, Note_off_c, 0, 69, 64
1, 57638, Note_on_c, 0, 72, 47
1, 57658, Note_on_c, 0, 41, 31
1, 57670, Note_off_c, 0, 70, 64
1, 57818, Note_off_c, 0, 41, 64
1, 57830, Control_c, 0, 64, 127
1, 57984, Note_off_c, 0, 72, 64
1, 58034, Note_on_c, 0, 74, 33
1, 58098, Note_off_c, 0, 74, 64
1, 58098, Note_on_c, 0, 72, 30
1, 58110, Note_on_c, 0, 57, 24
1, 58146, Note_on_c, 0, 48, 22
1, 58246, Note_off_c, 0, 48, 64
1, 58268, Note_off_c, 0, 57, 64
1, 58488, Note_on_c, 0, 76, 48
1, 58490, Control_c, 0, 64, 0
1, 58506, Note_on_c, 0, 57, 32
1, 58512, Note_on_c, 0, 48, 35
1, 58516, Note_off_c, 0, 72, 64
1, 58628, Control_c, 0, 64, 127
1, 58633, Note_off_c, 0, 57, 64
1, 58654, Note_off_c, 0, 48, 64
1, 58696, Note_on_c, 0, 77, 61
1, 58724, Note_off_c, 0, 76, 64
1, 58812, Control_c, 0, 64, 0
1, 58882, Note_off_c, 0, 77, 64
1, 58884, Note_on_c, 0, 79, 56
1, 58886, Note_on_c, 0, 41, 39
1, 59012, Control_c, 0, 64, 127
1, 59026, Note_off_c, 0, 41, 64
1, 59146, Note_off_c, 0, 79, 64
1, 59172, Note_on_c, 0, 81, 44
1, 59272, Note_on_c, 0, 58, 26
1, 59275, Note_on_c, 0, 79, 65
1, 59296, Note_on_c, 0, 50, 34
1, 59310, Note_off_c, 0, 81, 64
1, 59336, Control_c, 0, 64, 0
1, 59416, Note_off_c, 0, 50, 64
1, 59444, Control_c, 0, 64, 127
1, 59450, Note_off_c, 0, 58, 64
1, 59660, Note_on_c, 0, 77, 62
1, 59676, Note_on_c, 0, 58, 29
1, 59712, Note_on_c, 0, 50, 37
1, 59734, Note_off_c, 0, 79, 64
1, 59788, Note_off_c, 0, 50, 64
1, 59792, Note_off_c, 0, 58, 64
1, 59860, Note_on_c, 0, 74, 71
1, 59900, Note_off_c, 0, 77, 64
1, 60012, Control_c, 0, 64, 0
1, 60046, Note_on_c, 0, 72, 67
1, 60056, Note_off_c, 0, 74, 64
1, 60068, Note_on_c, 0, 41, 40
1, 60196, Control_c, 0, 64, 127
1, 60202, Note_off_c, 0, 41, 64
1, 60238, Note_on_c, 0, 74, 70
1, 60262, Note_off_c, 0, 72, 64
1, 60430, Note_on_c, 0, 72, 66
1, 60444, Note_off_c, 0, 74, 64
1, 60456, Note_on_c, 0, 48, 35
1, 60464, Note_on_c, 0, 57, 34
1, 60564, Note_off_c, 0, 48, 64
1, 60582, Note_off_c, 0, 57, 64
1, 60798, Note_on_c, 0, 76, 69
1, 60810, Note_on_c, 0, 57, 38
1, 60822, Note_off_c, 0, 72, 64
1, 60822, Note_on_c, 0, 48, 37
1, 60940, Note_off_c, 0, 57, 64
1, 60960, Note_off_c, 0, 76, 64
1, 60994, Note_off_c, 0, 48, 64
1, 61086, Note_on_c, 0, 77, 59
1, 61146, Note_off_c, 0, 77, 64
1, 61148, Control_c, 0, 64, 0
1, 61164, Note_on_c, 0, 41, 40
1, 61204, Note_on_c, 0, 79, 57
1, 61278, Note_off_c, 0, 79, 64
1, 61302, Note_off_c, 0, 41, 64
1, 61314, Note_on_c, 0, 81, 34
1, 61348, Control_c, 0, 64, 127
1, 61406, Note_on_c, 0, 79, 59
1, 61408, Note_off_c, 0, 81, 64
1, 61472, Note_off_c, 0, 79, 64
1, 61534, Note_on_c, 0, 77, 52
1, 61534, Note_on_c, 0, 58, 23
1, 61556, Note_on_c, 0, 50, 28
1, 61662, Note_off_c, 0, 50, 64
1, 61678, Note_off_c, 0, 58, 64
1, 61930, Note_on_c, 0, 41, 42
1, 62038, Note_off_c, 0, 41, 64
1, 62144, Note_on_c, 0, 74, 54
1, 62180, Note_off_c, 0, 77, 64
1, 62318, Note_off_c, 0, 74, 64
1, 62330, Note_on_c, 0, 72, 43
1, 62336, Note_on_c, 0, 57, 31
1, 62339, Note_on_c, 0, 48, 31
1, 62362, Control_c, 0, 64, 0
1, 62466, Note_off_c, 0, 57, 64
1, 62484, Control_c, 0, 64, 127
1, 62514, Note_off_c, 0, 72, 64
1, 62520, Note_on_c, 0, 74, 51
1, 62564, Note_off_c, 0, 48, 64
1, 62692, Note_on_c, 0, 41, 42
1, 62712, Note_off_c, 0, 74, 64
1, 62714, Note_on_c, 0, 72, 52
1, 62778, Control_c, 0, 64, 0
1, 62880, Note_off_c, 0, 41, 64
1, 62916, Control_c, 0, 64, 127
1, 63050, Note_on_c, 0, 76, 49
1, 63054, Note_on_c, 0, 48, 24
1, 63060, Note_off_c, 0, 72, 64
1, 63076, Note_on_c, 0, 57, 21
1, 63156, Note_off_c, 0, 57, 64
1, 63220, Note_off_c, 0, 48, 64
1, 63226, Note_off_c, 0, 76, 64
1, 63226, Note_on_c, 0, 77, 52
1, 63388, Note_off_c, 0, 77, 64
1, 63402, Note_on_c, 0, 41, 31
1, 63407, Control_c, 0, 64, 0
1, 63418, Note_on_c, 0, 79, 52
1, 63572, Note_off_c, 0, 41, 64
1, 63578, Note_off_c, 0, 79, 64
1, 63606, Control_c, 0, 64, 127
1, 63611, Note_on_c, 0, 81, 41
1, 63762, Note_on_c, 0, 58, 26
1, 63764, Note_off_c, 0, 81, 64
1, 63780, Note_on_c, 0, 79, 53
1, 63784, Note_on_c, 0, 50, 29
1, 63842, Note_off_c, 0, 79, 64
1, 63858, Note_off_c, 0, 58, 64
1, 63858, Note_on_c, 0, 81, 42
1, 63886, Note_off_c, 0, 50, 64
1, 63914, Note_off_c, 0, 81, 64
1, 63914, Note_on_c, 0, 79, 61
1, 63962, Note_off_c, 0, 79, 64
1, 63982, Note_on_c, 0, 81, 64
1, 64026, Note_on_c, 0, 79, 71
1, 64070, Note_off_c, 0, 81, 64
1, 64136, Note_on_c, 0, 77, 69
1, 64144, Note_on_c, 0, 41, 45
1, 64160, Note_off_c, 0, 79, 64
1, 64270, Note_off_c, 0, 41, 64
1, 64304, Note_off_c, 0, 77, 64
1, 64320, Note_on_c, 0, 74, 74
1, 64484, Note_on_c, 0, 72, 73
1, 64498, Note_off_c, 0, 74, 64
1, 64502, Note_on_c, 0, 57, 39
1, 64506, Note_on_c, 0, 48, 38
1, 64514, Control_c, 0, 64, 0
1, 64644, Note_off_c, 0, 57, 64
1, 64682, Control_c, 0, 64, 127
1, 64684, Note_on_c, 0, 74, 83
1, 64728, Note_off_c, 0, 72, 64
1, 64780, Note_off_c, 0, 48, 64
1, 64872, Note_off_c, 0, 74, 64
1, 64874, Note_on_c, 0, 72, 86
1, 64882, Note_on_c, 0, 41, 46
1, 65006, Note_off_c, 0, 41, 64
1, 65212, Note_off_c, 0, 72, 64
1, 65224, Note_on_c, 0, 76, 78
1, 65224, Note_on_c, 0, 48, 42
1, 65232, Note_on_c, 0, 57, 32
1, 65430, Note_off_c, 0, 57, 64
1, 65444, Note_on_c, 0, 77, 83
1, 65510, Note_off_c, 0, 76, 64
1, 65526, Note_off_c, 0, 48, 64
1, 65742, Note_on_c, 0, 58, 30
1, 65742, Control_c, 0, 64, 0
1, 65752, Note_on_c, 0, 79, 70
1, 65804, Note_off_c, 0, 77, 64
1, 65806, Note_on_c, 0, 52, 39
1, 65810, Note_on_c, 0, 48, 10
1, 66000, Note_on_c, 0, 81, 60
1, 66012, Note_off_c, 0, 79, 64
1, 66094, Note_off_c, 0, 52, 64
1, 66096, Control_c, 0, 64, 127
1, 66164, Note_on_c, 0, 79, 71
1, 66188, Note_off_c, 0, 81, 64
1, 66234, Note_off_c, 0, 58, 64
1, 66314, Note_on_c, 0, 77, 79
1, 66326, Note_on_c, 0, 57, 38
1, 66334, Note_off_c, 0, 79, 64
1, 66342, Control_c, 0, 64, 0
1, 66366, Note_on_c, 0, 53, 39
1, 66444, Note_off_c, 0, 48, 64
1, 66604, Control_c, 0, 64, 127
1, 66896, Note_on_c, 0, 67, 80
1, 66916, Note_off_c, 0, 77, 64
1, 66964, Note_off_c, 0, 57, 64
1, 66980, Note_off_c, 0, 53, 64
1, 67276, Note_on_c, 0, 77, 87
1, 67280, Control_c, 0, 64, 0
1, 67320, Note_off_c, 0, 67, 64
1, 67510, Control_c, 0, 64, 127
1, 67546, Note_on_c, 0, 66, 78
1, 67596, Note_off_c, 0, 77, 64
1, 67766, Note_off_c, 0, 66, 64
1, 67788, Note_on_c, 0, 77, 89
1, 67864, Note_off_c, 0, 77, 64
1, 68090, Note_on_c, 0, 77, 65
1, 68138, Note_off_c, 0, 77, 64
1, 68158, Note_on_c, 0, 65, 88
1, 68170, Control_c, 0, 64, 0
1, 68178, Note_on_c, 0, 41, 43
1, 68348, Note_off_c, 0, 41, 64
1, 68362, Note_off_c, 0, 65, 64
1, 68370, Control_c, 0, 64, 127
1, 68620, Note_on_c, 0, 65, 68
1, 68698, Note_on_c, 0, 67, 91
1, 68706, Note_on_c, 0, 63, 47
1, 68709, Control_c, 0, 64, 0
1, 68716, Note_on_c, 0, 53, 55
1, 68722, Note_off_c, 0, 65, 64
1, 68742, Note_on_c, 0, 60, 38
1, 68894, Note_off_c, 0, 63, 64
1, 68908, Control_c, 0, 64, 127
1, 68916, Note_off_c, 0, 53, 64
1, 68960, Note_off_c, 0, 60, 64
1, 69222, Note_on_c, 0, 69, 77
1, 69224, Note_on_c, 0, 63, 41
1, 69252, Note_on_c, 0, 53, 43
1, 69258, Note_on_c, 0, 60, 39
1, 69298, Note_off_c, 0, 67, 64
1, 69340, Note_off_c, 0, 60, 64
1, 69426, Note_off_c, 0, 63, 64
1, 69488, Note_off_c, 0, 53, 64
1, 69614, Control_c, 0, 64, 0
1, 69622, Note_on_c, 0, 70, 74
1, 69652, Note_on_c, 0, 46, 41
1, 69696, Note_off_c, 0, 69, 64
1, 69764, Note_off_c, 0, 70, 64
1, 69768, Control_c, 0, 64, 127
1, 69780, Note_off_c, 0, 46, 64
1, 69960, Note_on_c, 0, 72, 60
1, 70022, Note_on_c, 0, 74, 89
1, 70024, Note_on_c, 0, 62, 43
1, 70034, Note_on_c, 0, 58, 28
1, 70034, Note_on_c, 0, 53, 53
1, 70046, Control_c, 0, 64, 0
1, 70080, Note_off_c, 0, 72, 64
1, 70168, Note_off_c, 0, 62, 64
1, 70214, Control_c, 0, 64, 127
1, 70274, Note_off_c, 0, 58, 64
1, 70290, Note_off_c, 0, 53, 64
1, 70442, Note_on_c, 0, 75, 79
1, 70458, Note_on_c, 0, 46, 51
1, 70518, Note_off_c, 0, 74, 64
1, 70610, Note_off_c, 0, 75, 64
1, 70642, Note_on_c, 0, 77, 91
1, 70754, Note_off_c, 0, 46, 64
1, 70768, Note_off_c, 0, 77, 64
1, 70782, Control_c, 0, 64, 0
1, 70808, Note_on_c, 0, 51, 62
1, 70810, Note_on_c, 0, 39, 70
1, 70812, Note_on_c, 0, 79, 99
1, 70918, Note_off_c, 0, 51, 64
1, 70920, Note_off_c, 0, 39, 64
1, 70966, Control_c, 0, 64, 127
1, 71010, Note_off_c, 0, 79, 64
1, 71118, Note_on_c, 0, 81, 87
1, 71152, Note_off_c, 0, 81, 64
1, 71160, Note_on_c, 0, 55, 74
1, 71214, Note_on_c, 0, 58, 26
1, 71242, Note_on_c, 0, 63, 58
1, 71274, Note_on_c, 0, 82, 81
1, 71290, Note_on_c, 0, 67, 54
1, 71326, Note_off_c, 0, 82, 64
1, 71356, Note_on_c, 0, 84, 73
1, 71404, Note_off_c, 0, 84, 64
1, 71418, Note_on_c, 0, 82, 56
1, 71466, Note_off_c, 0, 82, 64
1, 71494, Note_on_c, 0, 84, 62
1, 71548, Note_on_c, 0, 82, 47
1, 71566, Note_off_c, 0, 84, 64
1, 71612, Note_off_c, 0, 82, 64
1, 71622, Note_on_c, 0, 84, 69
1, 71644, Control_c, 0, 64, 0
1, 71674, Note_on_c, 0, 82, 76
1, 71728, Note_off_c, 0, 67, 64
1, 71750, Control_c, 0, 64, 127
1, 71764, Note_on_c, 0, 81, 83
1, 71774, Note_off_c, 0, 84, 64
1, 71824, Note_off_c, 0, 55, 64
1, 71826, Note_off_c, 0, 82, 64
1, 71848, Note_off_c, 0, 63, 64
1, 71858, Control_c, 0, 64, 0
1, 71886, Note_off_c, 0, 58, 64
1, 71974, Note_on_c, 0, 79, 89
1, 71982, Control_c, 0, 64, 127
1, 71990, Note_off_c, 0, 81, 64
1, 72196, Control_c, 0, 64, 0
1, 72200, Note_on_c, 0, 77, 68
1, 72210, Note_off_c, 0, 79, 64
1, 72226, Note_on_c, 0, 46, 29
1, 72290, Note_off_c, 0, 77, 64
1, 72332, Note_on_c, 0, 82, 38
1, 72426, Control_c, 0, 64, 127
1, 72458, Note_off_c, 0, 82, 64
1, 72468, Note_off_c, 0, 46, 64
1, 72790, Note_on_c, 0, 82, 43
1, 72888, Note_off_c, 0, 82, 64
1, 72896, Note_on_c, 0, 58, 15
1, 72896, Note_on_c, 0, 74, 52
1, 72900, Note_on_c, 0, 62, 22
1, 72918, Control_c, 0, 64, 0
1, 72928, Note_on_c, 0, 53, 32
1, 73086, Control_c, 0, 64, 127
1, 73096, Note_off_c, 0, 53, 64
1, 73110, Note_off_c, 0, 62, 64
1, 73144, Note_off_c, 0, 58, 64
1, 73318, Control_c, 0, 64, 0
1, 73394, Note_on_c, 0, 53, 52
1, 73394, Note_on_c, 0, 62, 30
1, 73397, Note_on_c, 0, 58, 25
1, 73456, Control_c, 0, 64, 127
1, 73460, Note_off_c, 0, 62, 64
1, 73480, Note_off_c, 0, 58, 64
1, 73490, Note_off_c, 0, 53, 64
1, 73702, Control_c, 0, 64, 0
1, 73734, Note_on_c, 0, 75, 46
1, 73746, Note_off_c, 0, 74, 64
1, 73786, Note_on_c, 0, 79, 73
1, 73789, Note_on_c, 0, 41, 43
1, 73792, Note_off_c, 0, 75, 64
1, 73844, Note_off_c, 0, 41, 64
1, 73902, Control_c, 0, 64, 127
1, 73905, Note_off_c, 0, 79, 64
1, 74124, Note_on_c, 0, 79, 71
1, 74178, Note_off_c, 0, 79, 64
1, 74188, Note_on_c, 0, 63, 25
1, 74194, Control_c, 0, 64, 0
1, 74194, Note_on_c, 0, 69, 53
1, 74226, Note_on_c, 0, 53, 21
1, 74228, Note_on_c, 0, 60, 20
1, 74331, Note_off_c, 0, 53, 64
1, 74331, Note_off_c, 0, 60, 64
1, 74348, Control_c, 0, 64, 127
1, 74354, Note_off_c, 0, 63, 64
1, 74532, Control_c, 0, 64, 0
1, 74582, Note_on_c, 0, 63, 35
1, 74584, Note_on_c, 0, 53, 62
1, 74616, Note_on_c, 0, 60, 34
1, 74700, Control_c, 0, 64, 127
1, 74712, Note_off_c, 0, 60, 64
1, 74714, Note_off_c, 0, 63, 64
1, 74742, Note_off_c, 0, 53, 64
1, 74856, Note_on_c, 0, 70, 43
1, 74870, Note_off_c, 0, 69, 64
1, 74870, Control_c, 0, 64, 0
1, 74918, Note_on_c, 0, 74, 71
1, 74921, Note_off_c, 0, 70, 64
1, 74921, Note_on_c, 0, 46, 44
1, 75032, Note_off_c, 0, 74, 64
1, 75044, Note_off_c, 0, 46, 64
1, 75054, Control_c, 0, 64, 127
1, 75242, Note_on_c, 0, 74, 63
1, 75254, Control_c, 0, 64, 0
1, 75290, Note_on_c, 0, 58, 27
1, 75292, Note_off_c, 0, 74, 64
1, 75308, Note_on_c, 0, 62, 36
1, 75311, Note_on_c, 0, 64, 78
1, 75330, Note_on_c, 0, 53, 39
1, 75406, Note_off_c, 0, 53, 64
1, 75418, Note_off_c, 0, 62, 64
1, 75454, Control_c, 0, 64, 127
1, 75490, Note_off_c, 0, 58, 64
1, 75746, Note_on_c, 0, 58, 35
1, 75758, Note_on_c, 0, 62, 39
1, 75774, Note_on_c, 0, 53, 55
1, 75814, Note_off_c, 0, 62, 64
1, 75826, Note_off_c, 0, 53, 64
1, 75830, Note_off_c, 0, 58, 64
1, 76022, Note_on_c, 0, 49, 7
1, 76068, Control_c, 0, 64, 0
1, 76078, Note_off_c, 0, 49, 64
1, 76124, Note_on_c, 0, 65, 78
1, 76140, Note_on_c, 0, 41, 56
1, 76162, Note_off_c, 0, 64, 64
1, 76190, Note_off_c, 0, 41, 64
1, 76252, Control_c, 0, 64, 127
1, 76254, Note_off_c, 0, 65, 64
1, 76408, Note_on_c, 0, 69, 68
1, 76478, Note_on_c, 0, 63, 50
1, 76488, Note_on_c, 0, 72, 81
1, 76496, Note_on_c, 0, 53, 56
1, 76498, Control_c, 0, 64, 0
1, 76534, Note_off_c, 0, 69, 64
1, 76570, Note_off_c, 0, 53, 64
1, 76622, Control_c, 0, 64, 127
1, 76632, Note_off_c, 0, 63, 64
1, 76732, Note_on_c, 0, 75, 69
1, 76742, Note_off_c, 0, 72, 64
1, 76776, Control_c, 0, 64, 0
1, 76816, Note_on_c, 0, 63, 42
1, 76824, Note_on_c, 0, 79, 84
1, 76840, Note_off_c, 0, 75, 64
1, 76840, Note_on_c, 0, 57, 33
1, 76862, Note_on_c, 0, 53, 44
1, 76934, Note_off_c, 0, 63, 64
1, 76934, Note_off_c, 0, 57, 64
1, 76946, Note_off_c, 0, 53, 64
1, 76974, Control_c, 0, 64, 127
1, 77106, Note_off_c, 0, 79, 64
1, 77112, Note_on_c, 0, 77, 65
1, 77150, Note_off_c, 0, 77, 64
1, 77206, Note_on_c, 0, 77, 74
1, 77266, Control_c, 0, 64, 0
1, 77310, Note_on_c, 0, 46, 28
1, 77386, Note_off_c, 0, 77, 64
1, 77422, Note_on_c, 0, 86, 57
1, 77606, Control_c, 0, 64, 127
1, 77609, Note_off_c, 0, 46, 64
1, 77662, Note_off_c, 0, 86, 64
1, 77766, Note_on_c, 0, 84, 51
1, 77816, Note_off_c, 0, 84, 64
1, 77840, Note_on_c, 0, 82, 55
1, 77898, Note_on_c, 0, 84, 52
1, 77901, Note_off_c, 0, 82, 64
1, 77950, Note_on_c, 0, 58, 10
1, 77962, Note_on_c, 0, 62, 22
1, 77980, Note_on_c, 0, 82, 47
1, 77988, Note_on_c, 0, 53, 31
1, 78004, Control_c, 0, 64, 0
1, 78040, Note_off_c, 0, 84, 64
1, 78174, Control_c, 0, 64, 127
1, 78190, Note_off_c, 0, 53, 64
1, 78193, Note_off_c, 0, 62, 64
1, 78208, Note_on_c, 0, 79, 70
1, 78224, Note_off_c, 0, 58, 64
1, 78264, Note_off_c, 0, 82, 64
1, 78422, Note_on_c, 0, 77, 59
1, 78427, Note_off_c, 0, 79, 64
1, 78438, Note_on_c, 0, 62, 29
1, 78450, Control_c, 0, 64, 0
1, 78452, Note_on_c, 0, 58, 18
1, 78464, Note_on_c, 0, 53, 33
1, 78534, Note_off_c, 0, 62, 64
1, 78538, Note_off_c, 0, 53, 64
1, 78552, Note_off_c, 0, 58, 64
1, 78588, Control_c, 0, 64, 127
1, 78750, Note_off_c, 0, 77, 64
1, 78755, Control_c, 0, 64, 0
1, 78758, Note_on_c, 0, 79, 56
1, 78804, Note_on_c, 0, 46, 23
1, 78810, Note_off_c, 0, 79, 64
1, 78812, Note_on_c, 0, 82, 41
1, 78930, Note_off_c, 0, 46, 64
1, 78940, Note_off_c, 0, 82, 64
1, 78956, Control_c, 0, 64, 127
1, 79182, Note_on_c, 0, 82, 21
1, 79254, Note_off_c, 0, 82, 64
1, 79260, Note_on_c, 0, 63, 29
1, 79268, Note_on_c, 0, 69, 57
1, 79296, Note_on_c, 0, 60, 12
1, 79318, Note_on_c, 0, 53, 14
1, 79418, Control_c, 0, 64, 0
1, 79452, Note_off_c, 0, 53, 64
1, 79464, Control_c, 0, 64, 127
1, 79496, Note_off_c, 0, 63, 64
1, 79504, Note_off_c, 0, 60, 64
1, 79664, Control_c, 0, 64, 0
1, 79696, Note_on_c, 0, 63, 29
1, 79716, Note_on_c, 0, 60, 21
1, 79726, Note_on_c, 0, 53, 39
1, 79780, Note_off_c, 0, 63, 64
1, 79790, Note_off_c, 0, 60, 64
1, 79808, Note_off_c, 0, 53, 64
1, 79832, Control_c, 0, 64, 127
1, 79976, Note_on_c, 0, 70, 36
1, 79986, Note_off_c, 0, 69, 64
1, 80016, Control_c, 0, 64, 0
1, 80036, Note_off_c, 0, 70, 64
1, 80036, Note_on_c, 0, 74, 43
1, 80052, Note_on_c, 0, 46, 21
1, 80098, Note_on_c, 0, 77, 52
1, 80108, Note_off_c, 0, 74, 64
1, 80174, Note_off_c, 0, 77, 64
1, 80186, Control_c, 0, 64, 127
1, 80210, Note_off_c, 0, 46, 64
1, 80460, Note_on_c, 0, 77, 63
1, 80504, Note_off_c, 0, 77, 64
1, 80542, Note_on_c, 0, 58, 12
1, 80548, Note_on_c, 0, 62, 18
1, 80580, Note_on_c, 0, 64, 59
1, 80590, Note_on_c, 0, 53, 24
1, 80678, Control_c, 0, 64, 0
1, 80772, Note_off_c, 0, 53, 64
1, 80786, Note_off_c, 0, 62, 64
1, 80822, Note_off_c, 0, 58, 64
1, 80846, Control_c, 0, 64, 127
1, 81062, Note_on_c, 0, 62, 34
1, 81066, Note_on_c, 0, 58, 18
1, 81092, Note_on_c, 0, 53, 42
1, 81118, Note_off_c, 0, 62, 64
1, 81140, Note_off_c, 0, 58, 64
1, 81146, Note_off_c, 0, 53, 64
1, 81430, Control_c, 0, 64, 0
1, 81448, Note_on_c, 0, 65, 60
1, 81454, Note_off_c, 0, 64, 64
1, 81476, Note_on_c, 0, 41, 42
1, 81530, Note_off_c, 0, 41, 64
1, 81584, Note_off_c, 0, 65, 64
1, 81584, Control_c, 0, 64, 127
1, 81742, Note_on_c, 0, 69, 54
1, 81810, Note_off_c, 0, 69, 64
1, 81858, Note_on_c, 0, 72, 67
1, 81858, Note_on_c, 0, 53, 59
1, 81861, Control_c, 0, 64, 0
1, 81866, Note_on_c, 0, 63, 40
1, 81904, Note_on_c, 0, 60, 28
1, 81938, Note_off_c, 0, 63, 64
1, 81954, Note_off_c, 0, 53, 64
1, 81998, Control_c, 0, 64, 127
1, 82004, Note_off_c, 0, 60, 64
1, 82064, Note_off_c, 0, 72, 64
1, 82092, Note_on_c, 0, 75, 44
1, 82146, Note_off_c, 0, 75, 64
1, 82170, Note_on_c, 0, 74, 69
1, 82212, Note_on_c, 0, 75, 58
1, 82214, Note_off_c, 0, 74, 64
1, 82230, Control_c, 0, 64, 0
1, 82262, Note_on_c, 0, 63, 30
1, 82276, Note_on_c, 0, 57, 27
1, 82282, Note_on_c, 0, 74, 75
1, 82312, Note_on_c, 0, 53, 47
1, 82350, Note_off_c, 0, 75, 64
1, 82384, Note_off_c, 0, 53, 64
1, 82390, Note_off_c, 0, 57, 64
1, 82394, Note_off_c, 0, 63, 64
1, 82444, Control_c, 0, 64, 127
1, 82514, Note_on_c, 0, 72, 63
1, 82534, Note_off_c, 0, 74, 64
1, 82722, Control_c, 0, 64, 0
1, 82756, Note_off_c, 0, 72, 64
1, 82770, Note_on_c, 0, 74, 42
1, 82773, Note_on_c, 0, 46, 30
1, 82890, Note_off_c, 0, 74, 64
1, 82936, Control_c, 0, 64, 127
1, 82948, Note_off_c, 0, 46, 64
1, 83204, Note_on_c, 0, 65, 18
1, 83290, Control_c, 0, 64, 0
1, 83304, Note_off_c, 0, 65, 64
1, 83340, Note_on_c, 0, 70, 31
1, 83356, Note_on_c, 0, 58, 15
1, 83356, Note_on_c, 0, 62, 32
1, 83404, Note_on_c, 0, 53, 47
1, 83514, Note_off_c, 0, 53, 64
1, 83550, Control_c, 0, 64, 127
1, 83555, Note_off_c, 0, 62, 64
1, 83562, Note_off_c, 0, 58, 64
1, 83616, Note_off_c, 0, 70, 64
1, 84370, Note_on_c, 0, 46, 16
1, 85084, Note_on_c, 0, 77, 29
1, 85087, Control_c, 0, 64, 0
1, 85094, Note_on_c, 0, 42, 21
1, 85102, Note_on_c, 0, 49, 22
1, 85126, Note_off_c, 0, 46, 64
1, 85286, Control_c, 0, 64, 127
1, 85304, Note_off_c, 0, 42, 64
1, 85312, Note_off_c, 0, 49, 64
1, 85366, Note_off_c, 0, 77, 64
1, 85480, Note_on_c, 0, 77, 27
1, 85594, Note_off_c, 0, 77, 64
1, 85630, Note_on_c, 0, 76, 42
1, 85640, Note_on_c, 0, 42, 20
1, 85643, Note_on_c, 0, 49, 22
1, 85686, Control_c, 0, 64, 0
1, 85822, Note_off_c, 0, 49, 64
1, 85840, Control_c, 0, 64, 127
1, 85848, Note_off_c, 0, 42, 64
1, 86040, Note_on_c, 0, 73, 41
1, 86054, Control_c, 0, 64, 0
1, 86076, Note_on_c, 0, 49, 25
1, 86081, Note_on_c, 0, 42, 29
1, 86130, Note_off_c, 0, 76, 64
1, 86198, Note_off_c, 0, 49, 64
1, 86224, Note_off_c, 0, 42, 64
1, 86224, Control_c, 0, 64, 127
1, 86260, Note_on_c, 0, 72, 59
1, 86290, Note_off_c, 0, 73, 64
1, 86438, Control_c, 0, 64, 0
1, 86444, Note_on_c, 0, 70, 57
1, 86468, Note_on_c, 0, 42, 32
1, 86472, Note_off_c, 0, 72, 64
1, 86474, Note_on_c, 0, 49, 35
1, 86642, Note_off_c, 0, 49, 64
1, 86650, Note_off_c, 0, 42, 64
1, 86654, Control_c, 0, 64, 127
1, 86698, Note_on_c, 0, 73, 54
1, 86708, Note_off_c, 0, 70, 64
1, 86742, Note_off_c, 0, 73, 64
1, 86812, Note_on_c, 0, 72, 63
1, 86838, Control_c, 0, 64, 0
1, 86840, Note_on_c, 0, 42, 29
1, 86848, Note_on_c, 0, 49, 32
1, 86860, Note_off_c, 0, 72, 64
1, 86872, Note_on_c, 0, 73, 56
1, 86932, Note_on_c, 0, 72, 44
1, 86940, Note_off_c, 0, 73, 64
1, 86968, Note_off_c, 0, 49, 64
1, 86992, Control_c, 0, 64, 127
1, 87004, Note_off_c, 0, 72, 64
1, 87009, Note_off_c, 0, 42, 64
1, 87016, Note_on_c, 0, 73, 56
1, 87112, Note_on_c, 0, 72, 39
1, 87156, Note_off_c, 0, 73, 64
1, 87162, Control_c, 0, 64, 0
1, 87194, Note_on_c, 0, 42, 31
1, 87212, Note_on_c, 0, 49, 26
1, 87224, Note_on_c, 0, 70, 57
1, 87254, Note_off_c, 0, 72, 64
1, 87308, Note_off_c, 0, 49, 64
1, 87346, Control_c, 0, 64, 127
1, 87364, Note_off_c, 0, 42, 64
1, 87598, Note_on_c, 0, 64, 55
1, 87600, Note_off_c, 0, 70, 64
1, 87638, Control_c, 0, 64, 0
1, 87662, Note_off_c, 0, 64, 64
1, 87666, Note_on_c, 0, 49, 21
1, 87676, Note_on_c, 0, 42, 19
1, 87732, Note_on_c, 0, 77, 65
1, 87854, Control_c, 0, 64, 127
1, 87904, Note_off_c, 0, 49, 64
1, 87906, Note_off_c, 0, 77, 64
1, 87908, Note_off_c, 0, 42, 64
1, 88092, Note_on_c, 0, 77, 57
1, 88182, Note_off_c, 0, 77, 64
1, 88216, Note_on_c, 0, 76, 60
1, 88222, Note_on_c, 0, 49, 31
1, 88232, Note_on_c, 0, 42, 22
1, 88414, Note_off_c, 0, 49, 64
1, 88440, Note_off_c, 0, 42, 64
1, 88628, Note_on_c, 0, 73, 52
1, 88664, Note_on_c, 0, 49, 28
1, 88664, Note_on_c, 0, 42, 28
1, 88686, Note_off_c, 0, 76, 64
1, 88768, Note_off_c, 0, 49, 64
1, 88820, Note_off_c, 0, 42, 64
1, 88840, Note_off_c, 0, 73, 64
1, 88846, Note_on_c, 0, 72, 59
1, 89056, Note_on_c, 0, 42, 31
1, 89058, Note_on_c, 0, 49, 28
1, 89080, Note_off_c, 0, 72, 64
1, 89080, Note_on_c, 0, 70, 48
1, 89226, Note_off_c, 0, 49, 64
1, 89240, Note_off_c, 0, 42, 64
1, 89244, Note_off_c, 0, 70, 64
1, 89254, Note_on_c, 0, 72, 47
1, 89368, Note_on_c, 0, 70, 48
1, 89371, Note_off_c, 0, 72, 64
1, 89478, Note_on_c, 0, 49, 25
1, 89486, Note_on_c, 0, 42, 22
1, 89498, Note_on_c, 0, 64, 65
1, 89506, Note_off_c, 0, 70, 64
1, 89720, Note_off_c, 0, 49, 64
1, 89722, Note_off_c, 0, 42, 64
1, 89818, Control_c, 0, 64, 0
1, 89902, Note_on_c, 0, 42, 36
1, 89910, Note_on_c, 0, 49, 27
1, 89958, Control_c, 0, 64, 127
1, 90012, Note_off_c, 0, 49, 64
1, 90052, Note_off_c, 0, 42, 64
1, 90206, Note_off_c, 0, 64, 64
1, 90316, Note_on_c, 0, 49, 28
1, 90320, Note_on_c, 0, 77, 44
1, 90330, Note_on_c, 0, 42, 28
1, 90526, Note_off_c, 0, 49, 64
1, 90526, Note_off_c, 0, 42, 64
1, 90574, Note_off_c, 0, 77, 64
1, 90718, Note_on_c, 0, 77, 44
1, 90780, Note_on_c, 0, 42, 23
1, 90786, Note_on_c, 0, 49, 24
1, 90814, Note_on_c, 0, 76, 52
1, 90816, Note_off_c, 0, 77, 64
1, 90834, Control_c, 0, 64, 0
1, 90986, Control_c, 0, 64, 127
1, 90998, Note_off_c, 0, 49, 64
1, 91008, Note_off_c, 0, 42, 64
1, 91196, Note_on_c, 0, 73, 43
1, 91214, Note_on_c, 0, 42, 22
1, 91218, Note_off_c, 0, 76, 64
1, 91224, Note_on_c, 0, 49, 28
1, 91314, Note_off_c, 0, 49, 64
1, 91336, Note_off_c, 0, 42, 64
1, 91356, Note_off_c, 0, 73, 64
1, 91416, Note_on_c, 0, 72, 52
1, 91610, Note_off_c, 0, 72, 64
1, 91618, Control_c, 0, 64, 0
1, 91621, Note_on_c, 0, 70, 50
1, 91630, Note_on_c, 0, 42, 26
1, 91634, Note_on_c, 0, 49, 26
1, 91762, Note_off_c, 0, 70, 64
1, 91770, Control_c, 0, 64, 127
1, 91778, Note_off_c, 0, 49, 64
1, 91794, Note_off_c, 0, 42, 64
1, 91916, Note_on_c, 0, 73, 50
1, 91972, Note_off_c, 0, 73, 64
1, 92004, Note_on_c, 0, 49, 28
1, 92006, Note_on_c, 0, 42, 26
1, 92040, Note_on_c, 0, 72, 32
1, 92080, Note_on_c, 0, 73, 41
1, 92108, Note_off_c, 0, 72, 64
1, 92116, Note_off_c, 0, 49, 64
1, 92148, Note_off_c, 0, 42, 64
1, 92154, Note_off_c, 0, 73, 64
1, 92166, Note_on_c, 0, 72, 29
1, 92220, Note_on_c, 0, 73, 54
1, 92226, Note_off_c, 0, 72, 64
1, 92314, Note_on_c, 0, 72, 43
1, 92376, Note_off_c, 0, 73, 64
1, 92386, Note_on_c, 0, 42, 22
1, 92404, Note_on_c, 0, 49, 25
1, 92466, Note_on_c, 0, 70, 41
1, 92468, Note_off_c, 0, 72, 64
1, 92478, Control_c, 0, 64, 0
1, 92644, Note_off_c, 0, 49, 64
1, 92646, Control_c, 0, 64, 127
1, 92656, Note_off_c, 0, 42, 64
1, 92748, Note_off_c, 0, 70, 64
1, 92770, Note_on_c, 0, 64, 50
1, 92892, Note_on_c, 0, 49, 22
1, 92894, Note_on_c, 0, 42, 29
1, 92900, Note_on_c, 0, 77, 62
1, 92911, Note_off_c, 0, 64, 64
1, 92970, Note_off_c, 0, 77, 64
1, 93048, Note_off_c, 0, 49, 64
1, 93072, Note_off_c, 0, 42, 64
1, 93264, Note_on_c, 0, 77, 42
1, 93342, Note_on_c, 0, 49, 23
1, 93358, Note_on_c, 0, 42, 17
1, 93366, Note_on_c, 0, 76, 58
1, 93368, Control_c, 0, 64, 0
1, 93370, Note_off_c, 0, 77, 64
1, 93566, Note_off_c, 0, 49, 64
1, 93568, Control_c, 0, 64, 127
1, 93608, Note_off_c, 0, 42, 64
1, 93830, Note_on_c, 0, 73, 37
1, 93862, Note_on_c, 0, 49, 26
1, 93870, Note_on_c, 0, 42, 20
1, 93908, Note_off_c, 0, 76, 64
1, 94014, Note_off_c, 0, 49, 64
1, 94100, Note_on_c, 0, 72, 44
1, 94128, Note_off_c, 0, 42, 64
1, 94140, Note_off_c, 0, 73, 64
1, 94352, Note_on_c, 0, 70, 39
1, 94352, Control_c, 0, 64, 0
1, 94358, Note_on_c, 0, 49, 24
1, 94368, Note_off_c, 0, 72, 64
1, 94392, Note_on_c, 0, 41, 20
1, 94594, Note_on_c, 0, 72, 38
1, 94604, Note_off_c, 0, 70, 64
1, 94780, Note_on_c, 0, 70, 27
1, 94784, Note_off_c, 0, 72, 64
1, 94952, Control_c, 0, 64, 127
1, 95092, Note_off_c, 0, 49, 64
1, 95170, Note_on_c, 0, 69, 11
1, 95218, Note_on_c, 0, 48, 12
1, 95274, Control_c, 0, 64, 0
1, 95278, Note_off_c, 0, 70, 64
1, 95720, Control_c, 0, 64, 127
1, 95786, Note_off_c, 0, 41, 64
1, 96140, Note_on_c, 0, 67, 14
1, 96208, Note_off_c, 0, 69, 64
1, 96278, Note_off_c, 0, 48, 64
1, 96364, Control_c, 0, 64, 0
1, 96650, Note_off_c, 0, 67, 64
1, 96682, Note_on_c, 0, 65, 15
1, 96704, Note_on_c, 0, 41, 29
1, 96816, Note_off_c, 0, 41, 64
1, 96834, Note_off_c, 0, 65, 64
1, 96842, Control_c, 0, 64, 127
1, 97206, Note_on_c, 0, 65, 34
1, 97284, Note_off_c, 0, 65, 64
1, 97318, Note_on_c, 0, 63, 17
1, 97318, Control_c, 0, 64, 0
1, 97318, Note_on_c, 0, 60, 18
1, 97321, Note_on_c, 0, 67, 37
1, 97364, Note_on_c, 0, 53, 15
1, 97446, Note_off_c, 0, 53, 64
1, 97449, Note_off_c, 0, 63, 64
1, 97456, Control_c, 0, 64, 127
1, 97486, Note_off_c, 0, 60, 64
1, 97702, Control_c, 0, 64, 0
1, 97744, Note_on_c, 0, 69, 36
1, 97762, Note_on_c, 0, 53, 46
1, 97762, Note_on_c, 0, 63, 24
1, 97786, Note_off_c, 0, 67, 64
1, 97796, Note_on_c, 0, 60, 27
1, 97824, Note_off_c, 0, 63, 64
1, 97836, Note_off_c, 0, 53, 64
1, 97860, Note_off_c, 0, 60, 64
1, 97870, Control_c, 0, 64, 127
1, 98040, Control_c, 0, 64, 0
1, 98138, Note_on_c, 0, 70, 57
1, 98154, Note_on_c, 0, 46, 35
1, 98196, Note_off_c, 0, 69, 64
1, 98212, Note_off_c, 0, 46, 64
1, 98224, Control_c, 0, 64, 127
1, 98248, Note_off_c, 0, 70, 64
1, 98448, Note_on_c, 0, 72, 57
1, 98470, Control_c, 0, 64, 0
1, 98520, Note_off_c, 0, 72, 64
1, 98523, Note_on_c, 0, 58, 35
1, 98527, Note_on_c, 0, 62, 33
1, 98527, Note_on_c, 0, 74, 81
1, 98556, Note_on_c, 0, 53, 42
1, 98598, Note_off_c, 0, 62, 64
1, 98626, Note_off_c, 0, 58, 64
1, 98628, Note_off_c, 0, 53, 64
1, 98654, Control_c, 0, 64, 127
1, 98840, Control_c, 0, 64, 0
1, 98884, Note_on_c, 0, 75, 78
1, 98920, Note_on_c, 0, 46, 46
1, 98926, Note_off_c, 0, 74, 64
1, 98978, Control_c, 0, 64, 127
1, 99078, Note_on_c, 0, 77, 85
1, 99082, Note_off_c, 0, 75, 64
1, 99096, Note_off_c, 0, 46, 64
1, 99176, Control_c, 0, 64, 0
1, 99200, Note_off_c, 0, 77, 64
1, 99236, Note_on_c, 0, 79, 91
1, 99242, Note_on_c, 0, 39, 47
1, 99288, Note_off_c, 0, 39, 64
1, 99362, Control_c, 0, 64, 127
1, 99396, Note_off_c, 0, 79, 64
1, 99528, Note_on_c, 0, 81, 86
1, 99562, Note_off_c, 0, 81, 64
1, 99608, Note_on_c, 0, 58, 28
1, 99636, Note_on_c, 0, 55, 33
1, 99638, Control_c, 0, 64, 0
1, 99644, Note_on_c, 0, 63, 28
1, 99666, Note_on_c, 0, 82, 80
1, 99669, Note_on_c, 0, 67, 40
1, 99726, Note_off_c, 0, 82, 64
1, 99760, Control_c, 0, 64, 127
1, 99772, Note_on_c, 0, 84, 44
1, 99814, Note_on_c, 0, 82, 60
1, 99830, Note_off_c, 0, 84, 64
1, 99852, Control_c, 0, 64, 0
1, 99866, Note_off_c, 0, 82, 64
1, 99892, Note_on_c, 0, 84, 80
1, 99954, Note_on_c, 0, 82, 62
1, 100006, Control_c, 0, 64, 127
1, 100016, Note_off_c, 0, 84, 64
1, 100038, Note_off_c, 0, 67, 64
1, 100050, Note_on_c, 0, 81, 83
1, 100100, Note_off_c, 0, 82, 64
1, 100118, Note_off_c, 0, 63, 64
1, 100126, Note_off_c, 0, 55, 64
1, 100140, Note_off_c, 0, 58, 64
1, 100234, Note_off_c, 0, 81, 64
1, 100239, Note_on_c, 0, 79, 85
1, 100360, Control_c, 0, 64, 0
1, 100398, Note_off_c, 0, 79, 64
1, 100406, Note_on_c, 0, 77, 66
1, 100424, Note_on_c, 0, 46, 32
1, 100454, Note_off_c, 0, 77, 64
1, 100482, Note_on_c, 0, 82, 57
1, 100540, Note_off_c, 0, 46, 64
1, 100576, Control_c, 0, 64, 127
1, 100594, Note_off_c, 0, 82, 64
1, 100878, Note_on_c, 0, 82, 46
1, 100988, Note_on_c, 0, 62, 21
1, 100991, Note_on_c, 0, 74, 54
1, 100994, Note_on_c, 0, 58, 13
1, 101004, Note_off_c, 0, 82, 64
1, 101022, Note_on_c, 0, 53, 28
1, 101036, Control_c, 0, 64, 0
1, 101190, Note_off_c, 0, 62, 64
1, 101204, Control_c, 0, 64, 127
1, 101218, Note_off_c, 0, 53, 64
1, 101240, Note_off_c, 0, 58, 64
1, 101420, Control_c, 0, 64, 0
1, 101450, Note_on_c, 0, 62, 34
1, 101460, Note_on_c, 0, 58, 22
1, 101476, Note_on_c, 0, 53, 32
1, 101496, Control_c, 0, 64, 127
1, 101506, Note_off_c, 0, 62, 64
1, 101528, Note_off_c, 0, 58, 64
1, 101542, Note_off_c, 0, 53, 64
1, 101744, Control_c, 0, 64, 0
1, 101772, Note_on_c, 0, 75, 41
1, 101774, Note_off_c, 0, 74, 64
1, 101820, Note_on_c, 0, 41, 44
1, 101830, Note_on_c, 0, 79, 58
1, 101832, Note_off_c, 0, 75, 64
1, 101876, Note_off_c, 0, 41, 64
1, 101906, Note_off_c, 0, 79, 64
1, 101926, Control_c, 0, 64, 127
1, 102180, Note_on_c, 0, 79, 61
1, 102224, Note_on_c, 0, 63, 24
1, 102250, Note_on_c, 0, 53, 28
1, 102254, Note_on_c, 0, 69, 53
1, 102258, Note_off_c, 0, 79, 64
1, 102270, Note_on_c, 0, 60, 11
1, 102356, Note_off_c, 0, 53, 64
1, 102364, Note_off_c, 0, 63, 64
1, 102412, Note_off_c, 0, 60, 64
1, 102572, Control_c, 0, 64, 0
1, 102648, Note_on_c, 0, 63, 31
1, 102662, Note_on_c, 0, 53, 42
1, 102674, Note_on_c, 0, 60, 36
1, 102712, Note_off_c, 0, 63, 64
1, 102732, Note_off_c, 0, 53, 64
1, 102738, Note_off_c, 0, 60, 64
1, 102756, Control_c, 0, 64, 127
1, 102910, Control_c, 0, 64, 0
1, 102924, Note_on_c, 0, 70, 41
1, 102928, Note_off_c, 0, 69, 64
1, 102968, Note_on_c, 0, 46, 49
1, 102986, Note_on_c, 0, 74, 63
1, 102996, Note_off_c, 0, 70, 64
1, 103046, Note_off_c, 0, 74, 64
1, 103056, Note_off_c, 0, 46, 64
1, 103080, Control_c, 0, 64, 127
1, 103288, Note_on_c, 0, 74, 68
1, 103340, Note_on_c, 0, 62, 34
1, 103354, Note_on_c, 0, 58, 18
1, 103366, Note_on_c, 0, 53, 33
1, 103370, Note_on_c, 0, 64, 75
1, 103378, Note_off_c, 0, 74, 64
1, 103434, Control_c, 0, 64, 0
1, 103554, Note_off_c, 0, 62, 64
1, 103560, Note_off_c, 0, 53, 64
1, 103584, Note_off_c, 0, 58, 64
1, 103587, Control_c, 0, 64, 127
1, 103748, Note_on_c, 0, 58, 39
1, 103760, Note_on_c, 0, 62, 47
1, 103760, Note_on_c, 0, 53, 54
1, 103810, Note_off_c, 0, 62, 64
1, 103822, Note_off_c, 0, 53, 64
1, 103827, Note_off_c, 0, 58, 64
1, 104078, Control_c, 0, 64, 0
1, 104118, Note_on_c, 0, 65, 78
1, 104126, Note_off_c, 0, 64, 64
1, 104129, Note_on_c, 0, 41, 60
1, 104176, Note_off_c, 0, 41, 64
1, 104212, Note_off_c, 0, 65, 64
1, 104232, Control_c, 0, 64, 127
1, 104426, Note_on_c, 0, 69, 65
1, 104488, Note_on_c, 0, 63, 43
1, 104491, Note_on_c, 0, 72, 83
1, 104494, Control_c, 0, 64, 0
1, 104496, Note_on_c, 0, 53, 52
1, 104552, Note_off_c, 0, 69, 64
1, 104586, Note_off_c, 0, 53, 64
1, 104616, Note_off_c, 0, 63, 64
1, 104630, Control_c, 0, 64, 127
1, 104704, Note_off_c, 0, 72, 64
1, 104728, Note_on_c, 0, 75, 72
1, 104784, Control_c, 0, 64, 0
1, 104808, Note_on_c, 0, 63, 39
1, 104828, Note_on_c, 0, 79, 83
1, 104832, Note_on_c, 0, 53, 48
1, 104832, Note_on_c, 0, 57, 32
1, 104838, Note_off_c, 0, 75, 64
1, 104914, Note_off_c, 0, 63, 64
1, 104914, Note_off_c, 0, 57, 64
1, 104917, Note_off_c, 0, 53, 64
1, 104970, Control_c, 0, 64, 127
1, 105054, Note_on_c, 0, 77, 64
1, 105062, Note_off_c, 0, 79, 64
1, 105094, Note_off_c, 0, 77, 64
1, 105144, Note_on_c, 0, 77, 96
1, 105170, Control_c, 0, 64, 0
1, 105214, Note_on_c, 0, 46, 31
1, 105268, Note_on_c, 0, 86, 85
1, 105274, Note_off_c, 0, 77, 64
1, 105430, Note_off_c, 0, 46, 64
1, 105430, Control_c, 0, 64, 127
1, 105474, Note_off_c, 0, 86, 64
1, 105542, Note_on_c, 0, 84, 63
1, 105584, Note_off_c, 0, 84, 64
1, 105606, Note_on_c, 0, 82, 61
1, 105648, Note_on_c, 0, 84, 70
1, 105654, Note_off_c, 0, 82, 64
1, 105696, Note_on_c, 0, 58, 16
1, 105702, Note_on_c, 0, 53, 34
1, 105704, Note_on_c, 0, 62, 19
1, 105716, Note_on_c, 0, 82, 56
1, 105738, Control_c, 0, 64, 0
1, 105798, Note_off_c, 0, 84, 64
1, 105876, Note_off_c, 0, 62, 64
1, 105884, Note_on_c, 0, 79, 74
1, 105898, Note_off_c, 0, 53, 64
1, 105902, Note_off_c, 0, 58, 64
1, 105922, Control_c, 0, 64, 127
1, 105962, Note_off_c, 0, 82, 64
1, 106060, Control_c, 0, 64, 0
1, 106066, Note_off_c, 0, 79, 64
1, 106082, Note_on_c, 0, 77, 69
1, 106098, Note_on_c, 0, 53, 54
1, 106098, Note_on_c, 0, 58, 15
1, 106102, Note_on_c, 0, 62, 33
1, 106180, Note_off_c, 0, 62, 64
1, 106194, Note_off_c, 0, 53, 64
1, 106214, Control_c, 0, 64, 127
1, 106218, Note_off_c, 0, 58, 64
1, 106368, Control_c, 0, 64, 0
1, 106396, Note_off_c, 0, 77, 64
1, 106406, Note_on_c, 0, 79, 64
1, 106448, Note_on_c, 0, 82, 57
1, 106451, Note_on_c, 0, 46, 34
1, 106454, Note_off_c, 0, 79, 64
1, 106536, Note_off_c, 0, 46, 64
1, 106556, Note_off_c, 0, 82, 64
1, 106566, Control_c, 0, 64, 127
1, 106766, Note_on_c, 0, 82, 52
1, 106826, Note_off_c, 0, 82, 64
1, 106829, Note_on_c, 0, 63, 33
1, 106854, Note_on_c, 0, 53, 41
1, 106862, Note_on_c, 0, 69, 59
1, 106864, Note_on_c, 0, 60, 21
1, 106874, Control_c, 0, 64, 0
1, 107044, Note_off_c, 0, 53, 64
1, 107056, Note_off_c, 0, 63, 64
1, 107058, Control_c, 0, 64, 127
1, 107070, Note_off_c, 0, 60, 64
1, 107198, Control_c, 0, 64, 0
1, 107258, Note_on_c, 0, 53, 49
1, 107260, Note_on_c, 0, 63, 32
1, 107272, Note_on_c, 0, 60, 22
1, 107350, Control_c, 0, 64, 127
1, 107356, Note_off_c, 0, 53, 64
1, 107356, Note_off_c, 0, 60, 64
1, 107358, Note_off_c, 0, 63, 64
1, 107518, Note_on_c, 0, 70, 58
1, 107536, Control_c, 0, 64, 0
1, 107556, Note_off_c, 0, 69, 64
1, 107574, Note_off_c, 0, 70, 64
1, 107578, Note_on_c, 0, 74, 54
1, 107620, Note_on_c, 0, 46, 26
1, 107642, Note_off_c, 0, 74, 64
1, 107648, Note_on_c, 0, 77, 67
1, 107732, Note_off_c, 0, 77, 64
1, 107756, Note_off_c, 0, 46, 64
1, 107766, Control_c, 0, 64, 127
1, 107976, Note_on_c, 0, 77, 73
1, 108024, Note_off_c, 0, 77, 64
1, 108058, Note_on_c, 0, 62, 26
1, 108058, Note_on_c, 0, 58, 15
1, 108086, Note_on_c, 0, 53, 30
1, 108094, Note_on_c, 0, 64, 73
1, 108212, Control_c, 0, 64, 0
1, 108326, Note_off_c, 0, 53, 64
1, 108338, Note_off_c, 0, 62, 64
1, 108356, Note_off_c, 0, 58, 64
1, 108366, Control_c, 0, 64, 127
1, 108498, Note_on_c, 0, 62, 52
1, 108510, Note_on_c, 0, 58, 34
1, 108534, Note_on_c, 0, 53, 36
1, 108548, Note_off_c, 0, 62, 64
1, 108568, Note_off_c, 0, 58, 64
1, 108590, Note_off_c, 0, 53, 64
1, 108842, Control_c, 0, 64, 0
1, 108852, Note_off_c, 0, 64, 64
1, 108864, Note_on_c, 0, 65, 74
1, 108880, Note_on_c, 0, 41, 68
1, 108922, Note_off_c, 0, 41, 64
1, 108974, Note_off_c, 0, 65, 64
1, 108980, Control_c, 0, 64, 127
1, 109138, Note_on_c, 0, 69, 61
1, 109210, Control_c, 0, 64, 0
1, 109226, Note_on_c, 0, 63, 55
1, 109231, Note_on_c, 0, 53, 72
1, 109234, Note_on_c, 0, 72, 78
1, 109292, Note_off_c, 0, 69, 64
1, 109342, Note_off_c, 0, 53, 64
1, 109356, Note_off_c, 0, 63, 64
1, 109378, Control_c, 0, 64, 127
1, 109394, Note_off_c, 0, 72, 64
1, 109430, Note_on_c, 0, 75, 57
1, 109484, Note_off_c, 0, 75, 64
1, 109502, Note_on_c, 0, 74, 74
1, 109540, Note_off_c, 0, 74, 64
1, 109546, Note_on_c, 0, 75, 72
1, 109548, Control_c, 0, 64, 0
1, 109570, Note_on_c, 0, 63, 43
1, 109598, Note_on_c, 0, 57, 30
1, 109600, Note_on_c, 0, 53, 47
1, 109614, Note_on_c, 0, 74, 81
1, 109712, Note_off_c, 0, 63, 64
1, 109715, Note_off_c, 0, 75, 64
1, 109730, Note_off_c, 0, 53, 64
1, 109732, Control_c, 0, 64, 127
1, 109740, Note_off_c, 0, 57, 64
1, 109820, Note_on_c, 0, 72, 84
1, 109876, Note_off_c, 0, 74, 64
1, 109962, Control_c, 0, 64, 0
1, 110014, Note_on_c, 0, 46, 36
1, 110026, Note_on_c, 0, 74, 79
1, 110038, Note_off_c, 0, 72, 64
1, 110148, Note_off_c, 0, 46, 64
1, 110148, Control_c, 0, 64, 127
1, 110160, Note_off_c, 0, 74, 64
1, 110406, Note_on_c, 0, 65, 61
1, 110484, Note_off_c, 0, 65, 64
1, 110484, Control_c, 0, 64, 0
1, 110504, Note_on_c, 0, 58, 17
1, 110504, Note_on_c, 0, 62, 27
1, 110518, Note_on_c, 0, 70, 62
1, 110518, Note_on_c, 0, 53, 40
1, 110686, Note_off_c, 0, 62, 64
1, 110762, Control_c, 0, 64, 127
1, 110782, Note_off_c, 0, 58, 64
1, 110796, Note_off_c, 0, 53, 64
1, 111146, Note_on_c, 0, 46, 32
1, 111182, Note_off_c, 0, 70, 64
1, 111206, Control_c, 0, 64, 0
1, 111708, Note_on_c, 0, 77, 49
1, 111722, Note_on_c, 0, 49, 28
1, 111728, Note_on_c, 0, 42, 20
1, 111776, Note_off_c, 0, 46, 64
1, 111952, Note_off_c, 0, 49, 64
1, 111960, Control_c, 0, 64, 127
1, 111990, Note_off_c, 0, 42, 64
1, 111992, Note_off_c, 0, 77, 64
1, 112070, Note_on_c, 0, 77, 55
1, 112188, Note_on_c, 0, 76, 63
1, 112188, Note_on_c, 0, 49, 40
1, 112191, Note_on_c, 0, 42, 31
1, 112198, Note_off_c, 0, 77, 64
1, 112436, Note_off_c, 0, 49, 64
1, 112440, Note_off_c, 0, 42, 64
1, 112588, Note_on_c, 0, 73, 56
1, 112612, Note_on_c, 0, 49, 28
1, 112618, Note_on_c, 0, 42, 30
1, 112676, Note_off_c, 0, 76, 64
1, 112756, Note_off_c, 0, 49, 64
1, 112790, Note_off_c, 0, 42, 64
1, 112802, Note_on_c, 0, 72, 64
1, 112808, Note_off_c, 0, 73, 64
1, 112988, Note_on_c, 0, 70, 60
1, 113012, Note_on_c, 0, 42, 38
1, 113014, Note_off_c, 0, 72, 64
1, 113024, Note_on_c, 0, 49, 29
1, 113094, Control_c, 0, 64, 0
1, 113232, Note_off_c, 0, 49, 64
1, 113235, Note_off_c, 0, 42, 64
1, 113238, Note_off_c, 0, 70, 64
1, 113250, Control_c, 0, 64, 127
1, 113260, Note_on_c, 0, 73, 43
1, 113316, Note_off_c, 0, 73, 64
1, 113360, Note_on_c, 0, 72, 54
1, 113396, Note_on_c, 0, 49, 30
1, 113399, Note_on_c, 0, 73, 50
1, 113403, Note_on_c, 0, 42, 31
1, 113410, Note_off_c, 0, 72, 64
1, 113472, Note_on_c, 0, 72, 61
1, 113475, Note_off_c, 0, 73, 64
1, 113530, Note_off_c, 0, 72, 64
1, 113533, Note_off_c, 0, 49, 64
1, 113546, Note_on_c, 0, 73, 55
1, 113550, Note_off_c, 0, 42, 64
1, 113654, Note_on_c, 0, 72, 42
1, 113678, Note_off_c, 0, 73, 64
1, 113762, Note_on_c, 0, 49, 29
1, 113770, Note_on_c, 0, 42, 30
1, 113772, Note_on_c, 0, 70, 62
1, 113774, Control_c, 0, 64, 0
1, 113800, Note_off_c, 0, 72, 64
1, 113988, Control_c, 0, 64, 127
1, 113998, Note_off_c, 0, 42, 64
1, 114000, Note_off_c, 0, 49, 64
1, 114012, Note_on_c, 0, 64, 76
1, 114064, Note_off_c, 0, 70, 64
1, 114244, Note_on_c, 0, 42, 25
1, 114248, Note_on_c, 0, 49, 31
1, 114250, Note_off_c, 0, 64, 64
1, 114278, Note_on_c, 0, 77, 71
1, 114310, Control_c, 0, 64, 0
1, 114470, Note_off_c, 0, 77, 64
1, 114480, Control_c, 0, 64, 127
1, 114500, Note_off_c, 0, 49, 64
1, 114522, Note_off_c, 0, 42, 64
1, 114624, Note_on_c, 0, 77, 54
1, 114690, Note_off_c, 0, 77, 64
1, 114712, Note_on_c, 0, 76, 67
1, 114724, Note_on_c, 0, 42, 34
1, 114726, Note_on_c, 0, 49, 32
1, 114742, Control_c, 0, 64, 0
1, 114924, Note_off_c, 0, 49, 64
1, 114926, Control_c, 0, 64, 127
1, 114948, Note_off_c, 0, 42, 64
1, 115122, Note_on_c, 0, 73, 46
1, 115136, Note_off_c, 0, 76, 64
1, 115138, Note_on_c, 0, 42, 26
1, 115146, Note_on_c, 0, 49, 32
1, 115314, Note_off_c, 0, 49, 64
1, 115322, Note_off_c, 0, 42, 64
1, 115340, Note_off_c, 0, 73, 64
1, 115342, Note_on_c, 0, 72, 60
1, 115524, Control_c, 0, 64, 0
1, 115526, Note_on_c, 0, 70, 53
1, 115536, Note_on_c, 0, 42, 38
1, 115542, Note_on_c, 0, 49, 29
1, 115550, Note_off_c, 0, 72, 64
1, 115686, Note_off_c, 0, 70, 64
1, 115698, Note_on_c, 0, 72, 56
1, 115701, Note_off_c, 0, 49, 64
1, 115708, Note_off_c, 0, 42, 64
1, 115708, Control_c, 0, 64, 127
1, 115816, Note_on_c, 0, 70, 47
1, 115819, Note_off_c, 0, 72, 64
1, 115944, Note_on_c, 0, 42, 24
1, 115948, Note_on_c, 0, 49, 22
1, 115994, Note_off_c, 0, 70, 64
1, 115997, Note_on_c, 0, 64, 65
1, 116180, Note_off_c, 0, 49, 64
1, 116186, Note_off_c, 0, 42, 64
1, 116432, Control_c, 0, 64, 0
1, 116442, Note_on_c, 0, 42, 35
1, 116442, Note_on_c, 0, 49, 32
1, 116600, Control_c, 0, 64, 127
1, 116608, Note_off_c, 0, 49, 64
1, 116622, Note_off_c, 0, 42, 64
1, 116968, Note_off_c, 0, 64, 64
1, 116986, Note_on_c, 0, 77, 54
1, 117004, Note_on_c, 0, 49, 24
1, 117009, Note_on_c, 0, 42, 16
1, 117046, Control_c, 0, 64, 0
1, 117214, Note_off_c, 0, 77, 64
1, 117216, Control_c, 0, 64, 127
1, 117220, Note_off_c, 0, 49, 64
1, 117248, Note_off_c, 0, 42, 64
1, 117432, Note_on_c, 0, 77, 57
1, 117514, Note_off_c, 0, 77, 64
1, 117550, Note_on_c, 0, 42, 23
1, 117553, Note_on_c, 0, 49, 24
1, 117553, Note_on_c, 0, 76, 54
1, 117614, Control_c, 0, 64, 0
1, 117784, Note_off_c, 0, 49, 64
1, 117800, Control_c, 0, 64, 127
1, 117806, Note_off_c, 0, 42, 64
1, 118008, Note_on_c, 0, 73, 44
1, 118030, Note_on_c, 0, 49, 25
1, 118032, Note_on_c, 0, 42, 28
1, 118068, Note_off_c, 0, 76, 64
1, 118130, Note_off_c, 0, 49, 64
1, 118172, Note_off_c, 0, 42, 64
1, 118228, Note_off_c, 0, 73, 64
1, 118228, Note_on_c, 0, 72, 55
1, 118398, Control_c, 0, 64, 0
1, 118404, Note_on_c, 0, 70, 45
1, 118410, Note_off_c, 0, 72, 64
1, 118418, Note_on_c, 0, 42, 36
1, 118420, Note_on_c, 0, 49, 34
1, 118552, Control_c, 0, 64, 127
1, 118558, Note_off_c, 0, 49, 64
1, 118566, Note_off_c, 0, 70, 64
1, 118566, Note_off_c, 0, 42, 64
1, 118712, Note_on_c, 0, 73, 55
1, 118752, Control_c, 0, 64, 0
1, 118760, Note_off_c, 0, 73, 64
1, 118790, Note_on_c, 0, 49, 32
1, 118790, Note_on_c, 0, 42, 33
1, 118810, Note_on_c, 0, 72, 45
1, 118846, Note_on_c, 0, 73, 53
1, 118860, Note_off_c, 0, 72, 64
1, 118904, Control_c, 0, 64, 127
1, 118909, Note_off_c, 0, 73, 64
1, 118934, Note_off_c, 0, 49, 64
1, 118940, Note_on_c, 0, 72, 41
1, 118964, Note_off_c, 0, 42, 64
1, 118980, Note_on_c, 0, 73, 50
1, 119006, Note_off_c, 0, 72, 64
1, 119058, Note_off_c, 0, 73, 64
1, 119060, Note_on_c, 0, 72, 21
1, 119128, Note_on_c, 0, 73, 48
1, 119134, Note_off_c, 0, 72, 64
1, 119190, Note_on_c, 0, 42, 30
1, 119198, Control_c, 0, 64, 0
1, 119198, Note_on_c, 0, 49, 26
1, 119206, Note_on_c, 0, 72, 52
1, 119218, Note_off_c, 0, 73, 64
1, 119264, Note_off_c, 0, 72, 64
1, 119264, Note_on_c, 0, 70, 53
1, 119428, Control_c, 0, 64, 127
1, 119432, Note_off_c, 0, 70, 64
1, 119434, Note_off_c, 0, 49, 64
1, 119448, Note_off_c, 0, 42, 64
1, 119670, Note_on_c, 0, 64, 41
1, 119724, Note_off_c, 0, 64, 64
1, 119764, Note_on_c, 0, 42, 15
1, 119772, Note_on_c, 0, 49, 31
1, 119784, Note_on_c, 0, 77, 67
1, 119858, Control_c, 0, 64, 0
1, 120022, Note_off_c, 0, 77, 64
1, 120026, Control_c, 0, 64, 127
1, 120052, Note_off_c, 0, 49, 64
1, 120086, Note_off_c, 0, 42, 64
1, 120178, Note_on_c, 0, 77, 61
1, 120228, Note_off_c, 0, 77, 64
1, 120288, Note_on_c, 0, 76, 59
1, 120302, Note_on_c, 0, 42, 31
1, 120312, Note_on_c, 0, 49, 28
1, 120350, Control_c, 0, 64, 0
1, 120522, Note_off_c, 0, 49, 64
1, 120534, Control_c, 0, 64, 127
1, 120570, Note_off_c, 0, 42, 64
1, 120754, Note_on_c, 0, 73, 47
1, 120766, Note_on_c, 0, 42, 39
1, 120792, Note_on_c, 0, 49, 25
1, 120808, Note_off_c, 0, 76, 64
1, 120984, Note_off_c, 0, 49, 64
1, 121004, Note_on_c, 0, 72, 56
1, 121020, Note_off_c, 0, 73, 64
1, 121124, Note_off_c, 0, 42, 64
1, 121368, Note_on_c, 0, 70, 34
1, 121374, Note_on_c, 0, 41, 46
1, 121378, Control_c, 0, 64, 0
1, 121382, Note_off_c, 0, 72, 64
1, 121386, Note_on_c, 0, 49, 36
1, 121636, Note_on_c, 0, 72, 45
1, 121638, Note_off_c, 0, 70, 64
1, 121804, Note_on_c, 0, 70, 42
1, 121838, Note_off_c, 0, 72, 64
1, 121932, Control_c, 0, 64, 127
1, 122224, Control_c, 0, 64, 0
1, 122234, Note_on_c, 0, 69, 26
1, 122242, Note_off_c, 0, 49, 64
1, 122270, Note_on_c, 0, 48, 26
1, 122384, Note_off_c, 0, 70, 64
1, 123054, Control_c, 0, 64, 127
1, 123342, Note_off_c, 0, 41, 64
1, 123400, Note_on_c, 0, 67, 25
1, 123420, Note_off_c, 0, 48, 64
1, 123490, Note_off_c, 0, 69, 64
1, 123868, Control_c, 0, 64, 0
1, 123914, Note_off_c, 0, 67, 64
1, 123920, Note_on_c, 0, 65, 37
1, 123938, Note_on_c, 0, 41, 36
1, 124006, Note_off_c, 0, 41, 64
1, 124046, Note_off_c, 0, 65, 64
1, 124052, Control_c, 0, 64, 127
1, 124310, Note_on_c, 0, 65, 48
1, 124368, Note_off_c, 0, 65, 64
1, 124376, Control_c, 0, 64, 0
1, 124400, Note_on_c, 0, 67, 54
1, 124406, Note_on_c, 0, 63, 35
1, 124442, Note_on_c, 0, 53, 31
1, 124448, Note_on_c, 0, 60, 34
1, 124512, Note_off_c, 0, 63, 64
1, 124518, Note_off_c, 0, 53, 64
1, 124536, Note_off_c, 0, 60, 64
1, 124560, Control_c, 0, 64, 127
1, 124744, Control_c, 0, 64, 0
1, 124788, Note_on_c, 0, 69, 52
1, 124810, Note_on_c, 0, 63, 40
1, 124822, Note_on_c, 0, 57, 36
1, 124826, Note_on_c, 0, 53, 51
1, 124830, Note_off_c, 0, 67, 64
1, 124884, Note_off_c, 0, 57, 64
1, 124892, Note_off_c, 0, 63, 64
1, 124894, Note_off_c, 0, 53, 64
1, 124912, Control_c, 0, 64, 127
1, 125066, Control_c, 0, 64, 0
1, 125154, Note_on_c, 0, 46, 46
1, 125166, Note_on_c, 0, 70, 67
1, 125212, Note_off_c, 0, 69, 64
1, 125234, Note_off_c, 0, 70, 64
1, 125252, Control_c, 0, 64, 127
1, 125260, Note_off_c, 0, 46, 64
1, 125466, Note_on_c, 0, 72, 66
1, 125466, Control_c, 0, 64, 0
1, 125542, Note_on_c, 0, 62, 37
1, 125550, Note_on_c, 0, 74, 81
1, 125554, Note_on_c, 0, 58, 32
1, 125562, Note_off_c, 0, 72, 64
1, 125578, Note_on_c, 0, 53, 30
1, 125600, Note_off_c, 0, 62, 64
1, 125628, Note_off_c, 0, 58, 64
1, 125640, Note_off_c, 0, 53, 64
1, 125666, Control_c, 0, 64, 127
1, 125914, Note_on_c, 0, 75, 79
1, 125924, Note_on_c, 0, 46, 47
1, 125932, Note_off_c, 0, 74, 64
1, 126080, Note_on_c, 0, 77, 84
1, 126092, Note_off_c, 0, 75, 64
1, 126108, Note_off_c, 0, 46, 64
1, 126188, Control_c, 0, 64, 0
1, 126230, Note_off_c, 0, 77, 64
1, 126248, Note_on_c, 0, 39, 48
1, 126250, Note_on_c, 0, 79, 94
1, 126260, Note_on_c, 0, 51, 28
1, 126294, Note_off_c, 0, 39, 64
1, 126324, Note_off_c, 0, 79, 64
1, 126334, Note_off_c, 0, 51, 64
1, 126372, Control_c, 0, 64, 127
1, 126530, Note_on_c, 0, 81, 72
1, 126570, Note_off_c, 0, 81, 64
1, 126636, Note_on_c, 0, 58, 31
1, 126644, Note_on_c, 0, 55, 34
1, 126646, Note_on_c, 0, 67, 31
1, 126664, Note_on_c, 0, 63, 28
1, 126664, Control_c, 0, 64, 0
1, 126667, Note_on_c, 0, 82, 79
1, 126714, Note_off_c, 0, 82, 64
1, 126758, Note_on_c, 0, 84, 72
1, 126788, Control_c, 0, 64, 127
1, 126800, Note_off_c, 0, 84, 64
1, 126814, Note_on_c, 0, 82, 54
1, 126862, Note_off_c, 0, 82, 64
1, 126864, Control_c, 0, 64, 0
1, 126878, Note_on_c, 0, 84, 59
1, 126926, Note_on_c, 0, 82, 55
1, 126948, Note_off_c, 0, 84, 64
1, 127002, Control_c, 0, 64, 127
1, 127012, Note_off_c, 0, 82, 64
1, 127020, Note_on_c, 0, 84, 71
1, 127054, Note_off_c, 0, 67, 64
1, 127072, Note_on_c, 0, 82, 71
1, 127080, Control_c, 0, 64, 0
1, 127126, Note_off_c, 0, 55, 64
1, 127128, Note_off_c, 0, 84, 64
1, 127152, Note_off_c, 0, 63, 64
1, 127178, Note_on_c, 0, 81, 73
1, 127182, Note_off_c, 0, 58, 64
1, 127202, Control_c, 0, 64, 127
1, 127222, Note_off_c, 0, 82, 64
1, 127264, Control_c, 0, 64, 0
1, 127346, Note_on_c, 0, 79, 84
1, 127351, Note_off_c, 0, 81, 64
1, 127402, Control_c, 0, 64, 127
1, 127464, Control_c, 0, 64, 0
1, 127500, Note_off_c, 0, 79, 64
1, 127503, Note_on_c, 0, 77, 61
1, 127548, Note_off_c, 0, 77, 64
1, 127548, Note_on_c, 0, 46, 29
1, 127580, Note_on_c, 0, 82, 52
1, 127694, Control_c, 0, 64, 127
1, 127704, Note_off_c, 0, 82, 64
1, 127740, Note_off_c, 0, 46, 64
1, 128004, Note_on_c, 0, 82, 32
1, 128062, Control_c, 0, 64, 0
1, 128086, Note_on_c, 0, 74, 64
1, 128088, Note_off_c, 0, 82, 64
1, 128110, Note_on_c, 0, 58, 10
1, 128110, Note_on_c, 0, 62, 26
1, 128122, Note_on_c, 0, 53, 42
1, 128242, Note_off_c, 0, 53, 64
1, 128260, Note_off_c, 0, 62, 64
1, 128263, Control_c, 0, 64, 127
1, 128304, Note_off_c, 0, 58, 64
1, 128462, Control_c, 0, 64, 0
1, 128534, Note_on_c, 0, 62, 44
1, 128540, Note_on_c, 0, 53, 59
1, 128560, Note_on_c, 0, 58, 22
1, 128586, Note_off_c, 0, 62, 64
1, 128596, Note_off_c, 0, 53, 64
1, 128632, Control_c, 0, 64, 127
1, 128635, Note_off_c, 0, 58, 64
1, 128784, Control_c, 0, 64, 0
1, 128842, Note_on_c, 0, 75, 55
1, 128856, Note_off_c, 0, 74, 64
1, 128884, Note_on_c, 0, 79, 87
1, 128894, Note_off_c, 0, 75, 64
1, 128894, Note_on_c, 0, 41, 53
1, 128938, Note_off_c, 0, 79, 64
1, 128941, Note_off_c, 0, 41, 64
1, 128970, Control_c, 0, 64, 127
1, 129154, Control_c, 0, 64, 0
1, 129212, Note_on_c, 0, 79, 79
1, 129262, Note_on_c, 0, 63, 42
1, 129272, Note_off_c, 0, 79, 64
1, 129282, Note_on_c, 0, 69, 73
1, 129290, Note_on_c, 0, 53, 49
1, 129328, Note_on_c, 0, 60, 21
1, 129358, Note_off_c, 0, 53, 64
1, 129368, Control_c, 0, 64, 127
1, 129422, Note_off_c, 0, 63, 64
1, 129436, Note_off_c, 0, 60, 64
1, 129598, Control_c, 0, 64, 0
1, 129660, Note_on_c, 0, 63, 50
1, 129688, Note_on_c, 0, 53, 62
1, 129704, Note_on_c, 0, 57, 17
1, 129762, Note_off_c, 0, 53, 64
1, 129778, Note_off_c, 0, 63, 64
1, 129778, Note_off_c, 0, 57, 64
1, 129798, Control_c, 0, 64, 127
1, 129922, Control_c, 0, 64, 0
1, 129940, Note_on_c, 0, 70, 52
1, 129958, Note_off_c, 0, 69, 64
1, 130006, Note_on_c, 0, 46, 40
1, 130016, Note_on_c, 0, 74, 76
1, 130028, Note_off_c, 0, 70, 64
1, 130064, Note_off_c, 0, 74, 64
1, 130082, Note_off_c, 0, 46, 64
1, 130138, Control_c, 0, 64, 127
1, 130290, Control_c, 0, 64, 0
1, 130326, Note_on_c, 0, 74, 74
1, 130384, Note_off_c, 0, 74, 64
1, 130406, Note_on_c, 0, 62, 27
1, 130409, Note_on_c, 0, 53, 33
1, 130409, Note_on_c, 0, 58, 20
1, 130416, Note_on_c, 0, 64, 74
1, 130552, Control_c, 0, 64, 127
1, 130558, Note_off_c, 0, 62, 64
1, 130558, Note_off_c, 0, 53, 64
1, 130584, Note_off_c, 0, 58, 64
1, 130800, Note_on_c, 0, 62, 50
1, 130810, Note_on_c, 0, 53, 69
1, 130810, Note_on_c, 0, 58, 32
1, 130856, Note_off_c, 0, 62, 64
1, 130864, Note_off_c, 0, 53, 64
1, 130878, Note_off_c, 0, 58, 64
1, 131136, Control_c, 0, 64, 0
1, 131158, Note_off_c, 0, 64, 64
1, 131161, Note_on_c, 0, 65, 85
1, 131178, Note_on_c, 0, 41, 70
1, 131222, Note_off_c, 0, 41, 64
1, 131246, Note_off_c, 0, 65, 64
1, 131274, Control_c, 0, 64, 127
1, 131436, Note_on_c, 0, 69, 64
1, 131504, Control_c, 0, 64, 0
1, 131514, Note_on_c, 0, 72, 82
1, 131532, Note_on_c, 0, 63, 52
1, 131534, Note_on_c, 0, 53, 67
1, 131570, Note_off_c, 0, 69, 64
1, 131620, Note_off_c, 0, 53, 64
1, 131658, Control_c, 0, 64, 127
1, 131674, Note_off_c, 0, 63, 64
1, 131734, Note_off_c, 0, 72, 64
1, 131754, Note_on_c, 0, 75, 72
1, 131828, Control_c, 0, 64, 0
1, 131862, Note_on_c, 0, 79, 91
1, 131862, Note_on_c, 0, 63, 54
1, 131886, Note_on_c, 0, 53, 67
1, 131896, Note_off_c, 0, 75, 64
1, 131898, Note_on_c, 0, 57, 32
1, 131964, Note_off_c, 0, 53, 64
1, 131967, Note_off_c, 0, 63, 64
1, 131967, Note_off_c, 0, 57, 64
1, 132026, Control_c, 0, 64, 127
1, 132088, Note_off_c, 0, 79, 64
1, 132106, Note_on_c, 0, 77, 62
1, 132146, Note_off_c, 0, 77, 64
1, 132198, Note_on_c, 0, 77, 89
1, 132212, Control_c, 0, 64, 0
1, 132294, Note_off_c, 0, 77, 64
1, 132314, Note_on_c, 0, 46, 28
1, 132332, Note_on_c, 0, 86, 70
1, 132500, Note_off_c, 0, 46, 64
1, 132518, Note_off_c, 0, 86, 64
1, 132534, Control_c, 0, 64, 127
1, 132606, Note_on_c, 0, 84, 53
1, 132652, Note_off_c, 0, 84, 64
1, 132680, Note_on_c, 0, 82, 47
1, 132716, Note_on_c, 0, 84, 70
1, 132730, Note_off_c, 0, 82, 64
1, 132788, Note_on_c, 0, 82, 59
1, 132794, Control_c, 0, 64, 0
1, 132798, Note_on_c, 0, 62, 28
1, 132808, Note_on_c, 0, 58, 17
1, 132838, Note_on_c, 0, 53, 15
1, 132850, Note_off_c, 0, 84, 64
1, 132910, Note_off_c, 0, 62, 64
1, 132934, Note_off_c, 0, 53, 64
1, 132950, Control_c, 0, 64, 127
1, 132956, Note_off_c, 0, 58, 64
1, 132960, Note_on_c, 0, 79, 75
1, 133010, Note_off_c, 0, 82, 64
1, 133164, Control_c, 0, 64, 0
1, 133170, Note_off_c, 0, 79, 64
1, 133170, Note_on_c, 0, 77, 64
1, 133184, Note_on_c, 0, 62, 33
1, 133188, Note_on_c, 0, 58, 26
1, 133210, Note_on_c, 0, 53, 45
1, 133292, Note_off_c, 0, 62, 64
1, 133298, Note_off_c, 0, 53, 64
1, 133330, Note_off_c, 0, 58, 64
1, 133334, Control_c, 0, 64, 127
1, 133474, Note_off_c, 0, 77, 64
1, 133486, Control_c, 0, 64, 0
1, 133492, Note_on_c, 0, 79, 43
1, 133524, Note_on_c, 0, 82, 47
1, 133550, Note_on_c, 0, 46, 30
1, 133556, Note_off_c, 0, 79, 64
1, 133614, Note_off_c, 0, 82, 64
1, 133656, Note_off_c, 0, 46, 64
1, 133670, Control_c, 0, 64, 127
1, 133880, Note_on_c, 0, 82, 49
1, 133946, Note_off_c, 0, 82, 64
1, 133992, Note_on_c, 0, 63, 20
1, 133998, Note_on_c, 0, 53, 40
1, 134004, Note_on_c, 0, 69, 43
1, 134044, Note_on_c, 0, 60, 23
1, 134188, Note_off_c, 0, 53, 64
1, 134202, Note_off_c, 0, 63, 64
1, 134224, Note_off_c, 0, 60, 64
1, 134392, Control_c, 0, 64, 0
1, 134440, Note_on_c, 0, 63, 35
1, 134482, Note_on_c, 0, 60, 17
1, 134516, Note_off_c, 0, 63, 64
1, 134516, Note_on_c, 0, 53, 13
1, 134548, Control_c, 0, 64, 127
1, 134556, Note_off_c, 0, 60, 64
1, 134580, Note_off_c, 0, 53, 64
1, 134708, Note_on_c, 0, 70, 37
1, 134724, Note_off_c, 0, 69, 64
1, 134746, Control_c, 0, 64, 0
1, 134772, Note_off_c, 0, 70, 64
1, 134778, Note_on_c, 0, 46, 29
1, 134790, Note_on_c, 0, 74, 42
1, 134852, Note_off_c, 0, 74, 64
1, 134855, Note_on_c, 0, 77, 55
1, 134938, Note_off_c, 0, 77, 64
1, 134941, Note_off_c, 0, 46, 64
1, 134962, Control_c, 0, 64, 127
1, 135138, Note_on_c, 0, 77, 47
1, 135186, Note_off_c, 0, 77, 64
1, 135246, Note_on_c, 0, 62, 28
1, 135246, Note_on_c, 0, 58, 15
1, 135249, Note_on_c, 0, 64, 55
1, 135288, Note_on_c, 0, 53, 32
1, 135354, Note_off_c, 0, 62, 64
1, 135376, Note_off_c, 0, 53, 64
1, 135426, Note_off_c, 0, 58, 64
1, 135560, Control_c, 0, 64, 0
1, 135706, Note_on_c, 0, 62, 36
1, 135718, Note_on_c, 0, 58, 20
1, 135736, Note_on_c, 0, 53, 37
1, 135776, Control_c, 0, 64, 127
1, 135804, Note_off_c, 0, 62, 64
1, 135820, Note_off_c, 0, 58, 64
1, 135822, Note_off_c, 0, 53, 64
1, 136114, Control_c, 0, 64, 0
1, 136150, Note_on_c, 0, 65, 53
1, 136152, Note_off_c, 0, 64, 64
1, 136180, Note_on_c, 0, 41, 40
1, 136232, Note_off_c, 0, 41, 64
1, 136254, Note_off_c, 0, 65, 64
1, 136268, Control_c, 0, 64, 127
1, 136470, Note_on_c, 0, 69, 59
1, 136561, Control_c, 0, 64, 0
1, 136561, Note_on_c, 0, 72, 56
1, 136564, Note_on_c, 0, 63, 33
1, 136588, Note_off_c, 0, 69, 64
1, 136596, Note_on_c, 0, 53, 38
1, 136680, Note_off_c, 0, 63, 64
1, 136680, Note_off_c, 0, 53, 64
1, 136728, Control_c, 0, 64, 127
1, 136750, Note_off_c, 0, 72, 64
1, 136768, Note_on_c, 0, 75, 55
1, 136816, Note_off_c, 0, 75, 64
1, 136862, Note_on_c, 0, 74, 71
1, 136904, Note_off_c, 0, 74, 64
1, 136924, Note_on_c, 0, 75, 64
1, 136928, Control_c, 0, 64, 0
1, 136940, Note_on_c, 0, 63, 21
1, 136964, Note_on_c, 0, 53, 25
1, 136970, Note_on_c, 0, 74, 83
1, 136980, Note_on_c, 0, 57, 22
1, 137070, Note_off_c, 0, 57, 64
1, 137092, Note_off_c, 0, 75, 64
1, 137094, Note_off_c, 0, 63, 64
1, 137112, Note_off_c, 0, 53, 64
1, 137128, Control_c, 0, 64, 127
1, 137204, Note_on_c, 0, 72, 94
1, 137268, Note_off_c, 0, 74, 64
1, 137420, Control_c, 0, 64, 0
1, 137440, Note_on_c, 0, 74, 98
1, 137464, Note_on_c, 0, 46, 62
1, 137467, Note_off_c, 0, 72, 64
1, 137620, Control_c, 0, 64, 127
1, 137658, Note_off_c, 0, 46, 64
1, 137726, Note_on_c, 0, 65, 87
1, 137754, Note_off_c, 0, 74, 64
1, 137772, Control_c, 0, 64, 0
1, 137786, Note_on_c, 0, 46, 56
1, 137868, Note_off_c, 0, 65, 64
1, 137894, Note_on_c, 0, 53, 76
1, 137928, Control_c, 0, 64, 127
1, 137962, Note_off_c, 0, 46, 64
1, 138004, Note_off_c, 0, 53, 64
1, 138184, Note_on_c, 0, 82, 99
1, 138198, Note_on_c, 0, 70, 65
1, 138218, Note_on_c, 0, 62, 85
1, 138252, Note_off_c, 0, 62, 64
1, 138264, Note_off_c, 0, 70, 64
1, 139126, Note_off_c, 0, 82, 64
1, 139756, Control_c, 0, 64, 0
1, 142080, Control_c, 0, 64, 0
1, 142080, End_track
0, 0, End_of_file
