0, 0, Header, 1, 4, 48
1, 0, Start_track
1, 0, Tempo, 500000
1, 0, Time_signature, 4, 2, 24, 8
1, 0, Key_signature, 4, "minor"
1, 0, Title_t, "F.F.Chopin  Nocturne No.20 in C-sharp minor"
1, 0, Text_t, "CVS Ver5.05 Created"
1, 192, Tempo, 1034482
1, 240, Tempo, 1200000
1, 264, Tempo, 1034482
1, 288, Tempo, 923076
1, 336, Tempo, 895522
1, 360, Tempo, 1250000
1, 384, Tempo, 1395348
1, 432, Tempo, 1621621
1, 480, Tempo, 1153846
1, 624, Tempo, 1071428
1, 648, Tempo, 1153846
1, 672, Tempo, 1071428
1, 744, Tempo, 1538461
1, 768, Tempo, 1714285
1, 816, Tempo, 1463414
1, 864, Tempo, 1250000
1, 960, Tempo, 1621621
1, 984, Tempo, 983606
1, 1008, Tempo, 952380
1, 1032, Tempo, 983606
1, 1056, Tempo, 2000000
1, 1060, Tempo, 1621621
1, 1064, Tempo, 1153846
1, 1068, Tempo, 983606
1, 1072, Tempo, 923076
1, 1076, Tempo, 895522
1, 1092, Tempo, 869565
1, 1104, Tempo, 845070
1, 1128, Tempo, 952380
1, 1132, Tempo, 1000000
1, 1136, Tempo, 1111111
1, 1140, Tempo, 1250000
1, 1146, Tempo, 1818181
1, 1152, Tempo, 1111111
1, 1176, Tempo, 895522
1, 1200, Tempo, 845070
1, 1224, Tempo, 869565
1, 1248, Tempo, 895522
1, 1296, Tempo, 952380
1, 1320, Tempo, 1250000
1, 1344, Tempo, 1153846
1, 1368, Tempo, 952380
1, 1392, Tempo, 869565
1, 1416, Tempo, 895522
1, 1440, Tempo, 923076
1, 1464, Tempo, 1071428
1, 1476, Tempo, 1333333
1, 1488, Tempo, 1000000
1, 1504, Tempo, 983606
1, 1520, Tempo, 1071428
1, 1560, Tempo, 923076
1, 1584, Tempo, 869565
1, 1656, Tempo, 895522
1, 1680, Tempo, 983606
1, 1704, Tempo, 1153846
1, 1728, Tempo, 1000000
1, 1752, Tempo, 923076
1, 1776, Tempo, 869565
1, 1800, Tempo, 845070
1, 1824, Tempo, 869565
1, 1848, Tempo, 845070
1, 1872, Tempo, 821917
1, 1896, Tempo, 952380
1, 1920, Tempo, 923076
1, 1944, Tempo, 869565
1, 1968, Tempo, 845070
1, 1992, Tempo, 895522
1, 2016, Tempo, 952380
1, 2040, Tempo, 895522
1, 2064, Tempo, 923076
1, 2088, Tempo, 1071428
1, 2112, Tempo, 1463414
1, 2118, Tempo, 1153846
1, 2124, Tempo, 1071428
1, 2128, Tempo, 1000000
1, 2132, Tempo, 983606
1, 2136, Tempo, 952380
1, 2140, Tempo, 923076
1, 2148, Tempo, 895522
1, 2208, Tempo, 869565
1, 2232, Tempo, 895522
1, 2240, Tempo, 923076
1, 2248, Tempo, 952380
1, 2256, Tempo, 1000000
1, 2260, Tempo, 1071428
1, 2264, Tempo, 1153846
1, 2268, Tempo, 845070
1, 2274, Tempo, 1153846
1, 2280, Tempo, 1250000
1, 2328, Tempo, 952380
1, 2352, Tempo, 895522
1, 2400, Tempo, 952380
1, 2424, Tempo, 983606
1, 2448, Tempo, 1071428
1, 2472, Tempo, 1333333
1, 2496, Tempo, 1153846
1, 2520, Tempo, 952380
1, 2544, Tempo, 895522
1, 2568, Tempo, 923076
1, 2592, Tempo, 1333333
1, 2598, Tempo, 1071428
1, 2604, Tempo, 1000000
1, 2608, Tempo, 983606
1, 2612, Tempo, 952380
1, 2616, Tempo, 923076
1, 2644, Tempo, 952380
1, 2648, Tempo, 983606
1, 2652, Tempo, 1000000
1, 2656, Tempo, 731707
1, 2662, Tempo, 1071428
1, 2668, Tempo, 1250000
1, 2688, Tempo, 983606
1, 2712, Tempo, 895522
1, 2736, Tempo, 845070
1, 2760, Tempo, 869565
1, 2784, Tempo, 923076
1, 2808, Tempo, 895522
1, 2832, Tempo, 923076
1, 2856, Tempo, 1071428
1, 2896, Tempo, 895522
1, 2912, Tempo, 800000
1, 2960, Tempo, 769230
1, 2976, Tempo, 750000
1, 2988, Tempo, 681818
1, 3000, Tempo, 869565
1, 3008, Tempo, 800000
1, 3016, Tempo, 821917
1, 3024, Tempo, 845070
1, 3040, Tempo, 869565
1, 3064, Tempo, 1000000
1, 3072, Tempo, 952380
1, 3096, Tempo, 895522
1, 3120, Tempo, 869565
1, 3192, Tempo, 952380
1, 3216, Tempo, 1034482
1, 3240, Tempo, 1250000
1, 3264, Tempo, 1153846
1, 3288, Tempo, 923076
1, 3312, Tempo, 895522
1, 3360, Tempo, 923076
1, 3384, Tempo, 895522
1, 3408, Tempo, 923076
1, 3432, Tempo, 1000000
1, 3456, Tempo, 1333333
1, 3462, Tempo, 1071428
1, 3468, Tempo, 1000000
1, 3472, Tempo, 983606
1, 3476, Tempo, 952380
1, 3480, Tempo, 923076
1, 3516, Tempo, 952380
1, 3520, Tempo, 983606
1, 3524, Tempo, 1071428
1, 3528, Tempo, 952380
1, 3546, Tempo, 1071428
1, 3576, Tempo, 952380
1, 3600, Tempo, 1000000
1, 3624, Tempo, 1111111
1, 3648, Tempo, 1071428
1, 3672, Tempo, 952380
1, 3696, Tempo, 983606
1, 3720, Tempo, 923076
1, 3744, Tempo, 952380
1, 3768, Tempo, 1034482
1, 3792, Tempo, 1111111
1, 3816, Tempo, 1250000
1, 3840, Tempo, 1200000
1, 3864, Tempo, 895522
1, 3888, Tempo, 869565
1, 3912, Tempo, 923076
1, 3936, Tempo, 952380
1, 3984, Tempo, 1111111
1, 4008, Tempo, 1333333
1, 4032, Tempo, 1000000
1, 4056, Tempo, 895522
1, 4080, Tempo, 769230
1, 4092, Tempo, 750000
1, 4116, Tempo, 845070
1, 4144, Tempo, 800000
1, 4200, Tempo, 952380
1, 4248, Tempo, 769230
1, 4272, Tempo, 821917
1, 4296, Tempo, 895522
1, 4320, Tempo, 869565
1, 4336, Tempo, 800000
1, 4368, Tempo, 895522
1, 4392, Tempo, 983606
1, 4416, Tempo, 869565
1, 4464, Tempo, 821917
1, 4488, Tempo, 681818
1, 4500, Tempo, 923076
1, 4512, Tempo, 821917
1, 4536, Tempo, 869565
1, 4560, Tempo, 845070
1, 4584, Tempo, 750000
1, 4608, Tempo, 845070
1, 4632, Tempo, 769230
1, 4656, Tempo, 845070
1, 4680, Tempo, 789473
1, 4692, Tempo, 952380
1, 4704, Tempo, 923076
1, 4728, Tempo, 845070
1, 4752, Tempo, 895522
1, 4776, Tempo, 1071428
1, 4800, Tempo, 1000000
1, 4824, Tempo, 769230
1, 4848, Tempo, 821917
1, 4872, Tempo, 869565
1, 4896, Tempo, 845070
1, 4912, Tempo, 800000
1, 4944, Tempo, 895522
1, 4968, Tempo, 952380
1, 4992, Tempo, 923076
1, 5016, Tempo, 800000
1, 5040, Tempo, 845070
1, 5064, Tempo, 1071428
1, 5088, Tempo, 923076
1, 5104, Tempo, 869565
1, 5120, Tempo, 923076
1, 5160, Tempo, 1153846
1, 5184, Tempo, 923076
1, 5208, Tempo, 800000
1, 5280, Tempo, 869565
1, 5304, Tempo, 789473
1, 5352, Tempo, 895522
1, 5376, Tempo, 789473
1, 5424, Tempo, 821917
1, 5448, Tempo, 845070
1, 5460, Tempo, 923076
1, 5472, Tempo, 869565
1, 5496, Tempo, 821917
1, 5520, Tempo, 869565
1, 5544, Tempo, 1000000
1, 5568, Tempo, 1333333
1, 5574, Tempo, 769230
1, 5580, Tempo, 800000
1, 5608, Tempo, 845070
1, 5612, Tempo, 1071428
1, 5616, Tempo, 821917
1, 5640, Tempo, 923076
1, 5688, Tempo, 845070
1, 5712, Tempo, 983606
1, 5736, Tempo, 1250000
1, 5760, Tempo, 1000000
1, 5784, Tempo, 845070
1, 5796, Tempo, 895522
1, 5832, Tempo, 952380
1, 5856, Tempo, 1000000
1, 5880, Tempo, 952380
1, 5904, Tempo, 983606
1, 5928, Tempo, 1153846
1, 5952, Tempo, 869565
1, 5968, Tempo, 789473
1, 5984, Tempo, 821917
1, 6000, Tempo, 895522
1, 6024, Tempo, 923076
1, 6048, Tempo, 1000000
1, 6072, Tempo, 869565
1, 6096, Tempo, 845070
1, 6120, Tempo, 1071428
1, 6144, Tempo, 952380
1, 6168, Tempo, 983606
1, 6180, Tempo, 1000000
1, 6192, Tempo, 1071428
1, 6216, Tempo, 1200000
1, 6228, Tempo, 1333333
1, 6240, Tempo, 697674
1, 6256, Tempo, 500000
1, 6272, Tempo, 487804
1, 6276, Tempo, 800000
1, 6288, Tempo, 1463414
1, 6336, Tempo, 535714
1, 6384, Tempo, 357142
1, 6400, Tempo, 333333
1, 6432, Tempo, 357142
1, 6480, Time_signature, 3, 2, 24, 8
1, 6480, Tempo, 344827
1, 6528, Tempo, 348837
1, 6600, Tempo, 357142
1, 6624, Tempo, 363636
1, 6672, Tempo, 344827
1, 6704, Tempo, 363636
1, 6720, Tempo, 357142
1, 6768, Tempo, 361445
1, 6784, Tempo, 348837
1, 6816, Tempo, 361445
1, 6888, Tempo, 368098
1, 6912, Tempo, 372670
1, 6960, Tempo, 352941
1, 7008, Tempo, 363636
1, 7056, Tempo, 357142
1, 7104, Tempo, 368098
1, 7176, Tempo, 377358
1, 7200, Tempo, 382165
1, 7248, Tempo, 363636
1, 7280, Tempo, 400000
1, 7296, Tempo, 392156
1, 7344, Tempo, 372670
1, 7392, Tempo, 400000
1, 7464, Tempo, 422535
1, 7488, Tempo, 400000
1, 7536, Tempo, 392156
1, 7584, Tempo, 458015
1, 7632, Tempo, 472440
1, 7680, Tempo, 487804
1, 7752, Tempo, 535714
1, 7776, Tempo, 697674
1, 7824, Tempo, 666666
1, 7840, Tempo, 659340
1, 7856, Tempo, 983606
1, 7872, Tempo, 1153846
1, 7920, Tempo, 2727272
1, 7936, Tempo, 2000000
1, 7952, Tempo, 1621621
1, 7968, Tempo, 1333333
1, 7984, Tempo, 1304347
1, 8000, Tempo, 1395348
1, 8032, Tempo, 1463414
1, 8048, Tempo, 1538461
1, 8064, Tempo, 1714285
1, 8080, Tempo, 2000000
1, 8096, Tempo, 3333333
1, 8112, Time_signature, 4, 2, 24, 8
1, 8112, Tempo, 1621621
1, 8256, Tempo, 1463414
1, 8304, Tempo, 1333333
1, 8328, Tempo, 1000000
1, 8352, Tempo, 895522
1, 8376, Tempo, 923076
1, 8400, Tempo, 1304347
1, 8406, Tempo, 1034482
1, 8412, Tempo, 983606
1, 8416, Tempo, 952380
1, 8420, Tempo, 923076
1, 8424, Tempo, 895522
1, 8452, Tempo, 923076
1, 8456, Tempo, 952380
1, 8460, Tempo, 1000000
1, 8464, Tempo, 714285
1, 8470, Tempo, 1034482
1, 8476, Tempo, 1621621
1, 8481, Tempo, 1200000
1, 8486, Tempo, 1153846
1, 8491, Tempo, 1200000
1, 8496, Tempo, 983606
1, 8520, Tempo, 895522
1, 8544, Tempo, 845070
1, 8568, Tempo, 869565
1, 8592, Tempo, 923076
1, 8616, Tempo, 895522
1, 8640, Tempo, 923076
1, 8664, Tempo, 1071428
1, 8704, Tempo, 895522
1, 8720, Tempo, 800000
1, 8768, Tempo, 769230
1, 8784, Tempo, 750000
1, 8796, Tempo, 681818
1, 8808, Tempo, 869565
1, 8816, Tempo, 800000
1, 8824, Tempo, 821917
1, 8832, Tempo, 845070
1, 8848, Tempo, 869565
1, 8872, Tempo, 1000000
1, 8880, Tempo, 952380
1, 8904, Tempo, 895522
1, 8928, Tempo, 869565
1, 8952, Tempo, 923076
1, 9000, Tempo, 895522
1, 9024, Tempo, 923076
1, 9048, Tempo, 1071428
1, 9072, Tempo, 1000000
1, 9096, Tempo, 895522
1, 9120, Tempo, 869565
1, 9144, Tempo, 895522
1, 9168, Tempo, 869565
1, 9192, Tempo, 845070
1, 9216, Tempo, 895522
1, 9240, Tempo, 952380
1, 9264, Tempo, 1621621
1, 9268, Tempo, 1111111
1, 9272, Tempo, 983606
1, 9276, Tempo, 895522
1, 9284, Tempo, 869565
1, 9300, Tempo, 845070
1, 9312, Tempo, 821917
1, 9336, Tempo, 952380
1, 9340, Tempo, 1000000
1, 9344, Tempo, 1034482
1, 9348, Tempo, 1071428
1, 9354, Tempo, 1250000
1, 9384, Tempo, 895522
1, 9408, Tempo, 923076
1, 9432, Tempo, 1071428
1, 9456, Tempo, 952380
1, 9472, Tempo, 869565
1, 9488, Tempo, 845070
1, 9504, Tempo, 800000
1, 9520, Tempo, 821917
1, 9536, Tempo, 952380
1, 9552, Tempo, 1071428
1, 9561, Tempo, 895522
1, 9579, Tempo, 800000
1, 9600, Tempo, 1000000
1, 9608, Tempo, 983606
1, 9616, Tempo, 1034482
1, 9624, Tempo, 1071428
1, 9632, Tempo, 1250000
1, 9640, Tempo, 1818181
1, 9648, Tempo, 1034482
1, 9672, Tempo, 923076
1, 9696, Tempo, 869565
1, 9792, Tempo, 923076
1, 9816, Tempo, 983606
1, 9840, Tempo, 952380
1, 9864, Tempo, 895522
1, 9888, Tempo, 869565
1, 9936, Tempo, 895522
1, 9960, Tempo, 923076
1, 9984, Tempo, 952380
1, 10008, Tempo, 1071428
1, 10032, Tempo, 1000000
1, 10056, Tempo, 895522
1, 10080, Tempo, 923076
1, 10104, Tempo, 937500
1, 10117, Tempo, 952380
1, 10152, Tempo, 895522
1, 10176, Tempo, 923076
1, 10200, Tempo, 1000000
1, 10224, Tempo, 1463414
1, 10230, Tempo, 1153846
1, 10236, Tempo, 1071428
1, 10240, Tempo, 1000000
1, 10244, Tempo, 983606
1, 10248, Tempo, 952380
1, 10252, Tempo, 923076
1, 10260, Tempo, 895522
1, 10320, Tempo, 869565
1, 10360, Tempo, 895522
1, 10368, Tempo, 923076
1, 10376, Tempo, 952380
1, 10384, Tempo, 1000000
1, 10388, Tempo, 1071428
1, 10392, Tempo, 1153846
1, 10396, Tempo, 845070
1, 10402, Tempo, 1071428
1, 10408, Tempo, 2000000
1, 10416, Tempo, 1153846
1, 10440, Tempo, 983606
1, 10464, Tempo, 952380
1, 10488, Tempo, 1153846
1, 10512, Tempo, 1818181
1, 10518, Tempo, 1333333
1, 10524, Tempo, 1111111
1, 10530, Tempo, 983606
1, 10536, Tempo, 952380
1, 10548, Tempo, 983606
1, 10554, Tempo, 1071428
1, 10560, Tempo, 1034482
1, 10566, Tempo, 1000000
1, 10590, Tempo, 1034482
1, 10596, Tempo, 1111111
1, 10602, Tempo, 1250000
1, 10608, Tempo, 1463414
1, 10614, Tempo, 2000000
1, 10644, Tempo, 1000000
1, 10668, Tempo, 983606
1, 10692, Tempo, 1071428
1, 10720, Tempo, 1463414
1, 10724, Tempo, 1250000
1, 10728, Tempo, 1000000
1, 10732, Tempo, 952380
1, 10736, Tempo, 923076
1, 10752, Tempo, 895522
1, 10772, Tempo, 923076
1, 10780, Tempo, 952380
1, 10784, Tempo, 1000000
1, 10788, Tempo, 952380
1, 10792, Tempo, 923076
1, 10796, Tempo, 895522
1, 10828, Tempo, 923076
1, 10832, Tempo, 952380
1, 10836, Tempo, 983606
1, 10840, Tempo, 1034482
1, 10844, Tempo, 1111111
1, 10848, Tempo, 1333333
1, 10852, Tempo, 3333333
1, 10856, Tempo, 1250000
1, 10880, Tempo, 1034482
1, 10904, Tempo, 1071428
1, 10928, Tempo, 1250000
1, 10952, Tempo, 1621621
1, 10960, Tempo, 1071428
1, 10968, Tempo, 1000000
1, 10976, Tempo, 1034482
1, 10984, Tempo, 1200000
1, 10992, Tempo, 1621621
1, 11000, Tempo, 1395348
1, 11008, Tempo, 1250000
1, 11016, Tempo, 1333333
1, 11024, Tempo, 1538461
1, 11032, Tempo, 2142857
1, 11040, Tempo, 1463414
1, 11064, Tempo, 1071428
1, 11088, Tempo, 1153846
1, 11112, Tempo, 1538461
1, 11136, Tempo, 1818181
1, 11144, Tempo, 1395348
1, 11152, Tempo, 1250000
1, 11160, Tempo, 1200000
1, 11168, Tempo, 1304347
1, 11176, Tempo, 1463414
1, 11184, Tempo, 2142857
1, 11192, Tempo, 1621621
1, 11200, Tempo, 1395348
1, 11208, Tempo, 1463414
1, 11216, Tempo, 1621621
1, 11224, Tempo, 2000000
1, 11232, Tempo, 3333333
1, 11240, Tempo, 1333333
1, 11264, Tempo, 1071428
1, 11288, Tempo, 983606
1, 11312, Tempo, 1000000
1, 11360, Tempo, 983606
1, 11384, Tempo, 1000000
1, 11408, Tempo, 1034482
1, 11432, Tempo, 1071428
1, 11456, Tempo, 1034482
1, 11480, Tempo, 1071428
1, 11504, Tempo, 1111111
1, 11528, Tempo, 1200000
1, 11552, Tempo, 1250000
1, 11576, Tempo, 1395348
1, 11600, Tempo, 1935483
1, 11624, Tempo, 1818181
1, 11648, Tempo, 1304347
1, 11672, Tempo, 1621621
1, 11696, Tempo, 1463414
1, 11720, Tempo, 1538461
1, 11744, Tempo, 1621621
1, 11768, Tempo, 1935483
1, 11792, Tempo, 3750000
1, 11816, Tempo, 1538461
1, 11816, End_track
2, 0, Start_track
2, 0, Title_t, "RIGHT HAND"
2, 0, MIDI_port, 0
2, 4, System_exclusive, 10, 65, 16, 66, 18, 64, 0, 127, 0, 65, 247
2, 6, System_exclusive, 10, 65, 16, 66, 18, 64, 0, 4, 127, 61, 247
2, 10, System_exclusive, 10, 65, 16, 66, 18, 64, 1, 48, 4, 11, 247
2, 12, System_exclusive, 10, 65, 16, 66, 18, 64, 1, 49, 3, 11, 247
2, 14, System_exclusive, 10, 65, 16, 66, 18, 64, 1, 51, 110, 30, 247
2, 16, System_exclusive, 10, 65, 16, 66, 18, 64, 1, 52, 60, 79, 247
2, 18, System_exclusive, 10, 65, 16, 66, 18, 64, 1, 56, 2, 5, 247
2, 20, System_exclusive, 10, 65, 16, 66, 18, 64, 1, 58, 100, 33, 247
2, 22, System_exclusive, 10, 65, 16, 66, 18, 64, 1, 61, 7, 123, 247
2, 24, System_exclusive, 10, 65, 16, 66, 18, 64, 1, 62, 8, 121, 247
2, 26, Control_c, 0, 0, 0
2, 28, Control_c, 0, 32, 1
2, 30, Program_c, 0, 0
2, 32, Control_c, 0, 7, 120
2, 34, Control_c, 0, 11, 120
2, 36, Control_c, 0, 91, 40
2, 38, Control_c, 0, 93, 0
2, 40, Control_c, 0, 10, 64
2, 42, Control_c, 0, 99, 1
2, 44, Control_c, 0, 98, 8
2, 46, Control_c, 0, 6, 64
2, 48, Control_c, 0, 98, 9
2, 50, Control_c, 0, 6, 64
2, 52, Control_c, 0, 98, 10
2, 54, Control_c, 0, 6, 64
2, 56, Control_c, 0, 98, 32
2, 58, Control_c, 0, 6, 58
2, 60, Control_c, 0, 98, 33
2, 62, Control_c, 0, 6, 60
2, 64, Control_c, 0, 98, 99
2, 66, Control_c, 0, 6, 64
2, 68, Control_c, 0, 98, 100
2, 70, Control_c, 0, 6, 80
2, 72, Control_c, 0, 98, 102
2, 74, Control_c, 0, 6, 64
2, 192, Note_on_c, 0, 64, 30
2, 192, Note_on_c, 0, 68, 35
2, 192, Note_on_c, 0, 73, 50
2, 238, Note_on_c, 0, 73, 0
2, 238, Note_on_c, 0, 68, 0
2, 238, Note_on_c, 0, 64, 0
2, 264, Note_on_c, 0, 61, 25
2, 264, Note_on_c, 0, 68, 30
2, 264, Note_on_c, 0, 71, 45
2, 288, Note_on_c, 0, 71, 0
2, 288, Note_on_c, 0, 68, 0
2, 288, Note_on_c, 0, 66, 30
2, 288, Note_on_c, 0, 69, 40
2, 334, Note_on_c, 0, 69, 0
2, 334, Note_on_c, 0, 66, 0
2, 334, Note_on_c, 0, 61, 0
2, 360, Note_on_c, 0, 61, 30
2, 360, Note_on_c, 0, 64, 35
2, 360, Note_on_c, 0, 68, 45
2, 384, Note_on_c, 0, 68, 0
2, 384, Note_on_c, 0, 64, 0
2, 384, Note_on_c, 0, 64, 30
2, 384, Note_on_c, 0, 67, 40
2, 430, Note_on_c, 0, 67, 0
2, 430, Note_on_c, 0, 64, 0
2, 430, Note_on_c, 0, 61, 0
2, 432, Note_on_c, 0, 60, 20
2, 432, Note_on_c, 0, 63, 25
2, 432, Note_on_c, 0, 68, 30
2, 478, Note_on_c, 0, 68, 0
2, 478, Note_on_c, 0, 63, 0
2, 478, Note_on_c, 0, 60, 0
2, 576, Note_on_c, 0, 64, 18
2, 576, Note_on_c, 0, 68, 22
2, 576, Note_on_c, 0, 73, 35
2, 622, Note_on_c, 0, 73, 0
2, 622, Note_on_c, 0, 68, 0
2, 622, Note_on_c, 0, 64, 0
2, 648, Note_on_c, 0, 61, 16
2, 648, Note_on_c, 0, 68, 22
2, 648, Note_on_c, 0, 71, 32
2, 672, Note_on_c, 0, 71, 0
2, 672, Note_on_c, 0, 68, 0
2, 672, Note_on_c, 0, 66, 20
2, 672, Note_on_c, 0, 69, 28
2, 718, Note_on_c, 0, 69, 0
2, 718, Note_on_c, 0, 66, 0
2, 718, Note_on_c, 0, 61, 0
2, 744, Note_on_c, 0, 61, 20
2, 744, Note_on_c, 0, 64, 25
2, 744, Note_on_c, 0, 68, 35
2, 768, Note_on_c, 0, 68, 0
2, 768, Note_on_c, 0, 64, 0
2, 768, Note_on_c, 0, 64, 32
2, 768, Note_on_c, 0, 67, 40
2, 814, Note_on_c, 0, 67, 0
2, 814, Note_on_c, 0, 64, 0
2, 814, Note_on_c, 0, 61, 0
2, 816, Note_on_c, 0, 60, 18
2, 816, Note_on_c, 0, 63, 20
2, 816, Note_on_c, 0, 68, 25
2, 862, Note_on_c, 0, 68, 0
2, 862, Note_on_c, 0, 63, 0
2, 862, Note_on_c, 0, 60, 0
2, 960, Note_on_c, 0, 80, 60
2, 1056, Note_on_c, 0, 80, 0
2, 1056, Note_on_c, 0, 78, 42
2, 1060, Note_on_c, 0, 78, 0
2, 1060, Note_on_c, 0, 80, 43
2, 1064, Note_on_c, 0, 80, 0
2, 1064, Note_on_c, 0, 78, 45
2, 1068, Note_on_c, 0, 78, 0
2, 1068, Note_on_c, 0, 80, 43
2, 1072, Note_on_c, 0, 80, 0
2, 1072, Note_on_c, 0, 78, 50
2, 1076, Note_on_c, 0, 78, 0
2, 1076, Note_on_c, 0, 80, 49
2, 1080, Note_on_c, 0, 80, 0
2, 1080, Note_on_c, 0, 78, 56
2, 1084, Note_on_c, 0, 78, 0
2, 1084, Note_on_c, 0, 80, 54
2, 1088, Note_on_c, 0, 80, 0
2, 1088, Note_on_c, 0, 78, 60
2, 1092, Note_on_c, 0, 78, 0
2, 1092, Note_on_c, 0, 80, 58
2, 1096, Note_on_c, 0, 80, 0
2, 1096, Note_on_c, 0, 78, 64
2, 1100, Note_on_c, 0, 78, 0
2, 1100, Note_on_c, 0, 80, 61
2, 1104, Note_on_c, 0, 80, 0
2, 1104, Note_on_c, 0, 78, 65
2, 1108, Note_on_c, 0, 78, 0
2, 1108, Note_on_c, 0, 80, 61
2, 1112, Note_on_c, 0, 80, 0
2, 1112, Note_on_c, 0, 78, 65
2, 1116, Note_on_c, 0, 78, 0
2, 1116, Note_on_c, 0, 80, 60
2, 1120, Note_on_c, 0, 80, 0
2, 1120, Note_on_c, 0, 78, 63
2, 1124, Note_on_c, 0, 78, 0
2, 1124, Note_on_c, 0, 80, 58
2, 1128, Note_on_c, 0, 80, 0
2, 1128, Note_on_c, 0, 78, 61
2, 1132, Note_on_c, 0, 78, 0
2, 1132, Note_on_c, 0, 80, 58
2, 1136, Note_on_c, 0, 80, 0
2, 1136, Note_on_c, 0, 78, 58
2, 1140, Note_on_c, 0, 78, 0
2, 1140, Note_on_c, 0, 76, 64
2, 1146, Note_on_c, 0, 76, 0
2, 1146, Note_on_c, 0, 78, 66
2, 1152, Note_on_c, 0, 78, 0
2, 1152, Note_on_c, 0, 80, 70
2, 1248, Note_on_c, 0, 80, 0
2, 1248, Note_on_c, 0, 73, 52
2, 1342, Note_on_c, 0, 73, 0
2, 1344, Note_on_c, 0, 85, 72
2, 1476, Note_on_c, 0, 85, 0
2, 1476, Note_on_c, 0, 83, 56
2, 1488, Note_on_c, 0, 83, 0
2, 1488, Note_on_c, 0, 85, 56
2, 1504, Note_on_c, 0, 85, 0
2, 1504, Note_on_c, 0, 83, 50
2, 1520, Note_on_c, 0, 83, 0
2, 1520, Note_on_c, 0, 81, 40
2, 1534, Note_on_c, 0, 81, 0
2, 1536, Note_on_c, 0, 81, 36
2, 1630, Note_on_c, 0, 81, 0
2, 1728, Note_on_c, 0, 80, 62
2, 1824, Note_on_c, 0, 80, 0
2, 1824, Note_on_c, 0, 75, 66
2, 1920, Note_on_c, 0, 75, 0
2, 1920, Note_on_c, 0, 76, 78
2, 2016, Note_on_c, 0, 76, 0
2, 2016, Note_on_c, 0, 78, 78
2, 2064, Note_on_c, 0, 78, 0
2, 2064, Note_on_c, 0, 73, 72
2, 2110, Note_on_c, 0, 73, 0
2, 2112, Note_on_c, 0, 73, 56
2, 2118, Note_on_c, 0, 73, 0
2, 2118, Note_on_c, 0, 75, 54
2, 2124, Note_on_c, 0, 75, 0
2, 2124, Note_on_c, 0, 76, 50
2, 2128, Note_on_c, 0, 76, 0
2, 2128, Note_on_c, 0, 75, 46
2, 2132, Note_on_c, 0, 75, 0
2, 2132, Note_on_c, 0, 76, 45
2, 2136, Note_on_c, 0, 76, 0
2, 2136, Note_on_c, 0, 75, 48
2, 2140, Note_on_c, 0, 75, 0
2, 2140, Note_on_c, 0, 76, 47
2, 2144, Note_on_c, 0, 76, 0
2, 2144, Note_on_c, 0, 75, 50
2, 2148, Note_on_c, 0, 75, 0
2, 2148, Note_on_c, 0, 76, 50
2, 2152, Note_on_c, 0, 76, 0
2, 2152, Note_on_c, 0, 75, 52
2, 2156, Note_on_c, 0, 75, 0
2, 2156, Note_on_c, 0, 76, 51
2, 2160, Note_on_c, 0, 76, 0
2, 2160, Note_on_c, 0, 75, 53
2, 2164, Note_on_c, 0, 75, 0
2, 2164, Note_on_c, 0, 76, 52
2, 2168, Note_on_c, 0, 76, 0
2, 2168, Note_on_c, 0, 75, 54
2, 2172, Note_on_c, 0, 75, 0
2, 2172, Note_on_c, 0, 76, 53
2, 2176, Note_on_c, 0, 76, 0
2, 2176, Note_on_c, 0, 75, 55
2, 2180, Note_on_c, 0, 75, 0
2, 2180, Note_on_c, 0, 76, 54
2, 2184, Note_on_c, 0, 76, 0
2, 2184, Note_on_c, 0, 75, 56
2, 2188, Note_on_c, 0, 75, 0
2, 2188, Note_on_c, 0, 76, 54
2, 2192, Note_on_c, 0, 76, 0
2, 2192, Note_on_c, 0, 75, 56
2, 2196, Note_on_c, 0, 75, 0
2, 2196, Note_on_c, 0, 76, 54
2, 2200, Note_on_c, 0, 76, 0
2, 2200, Note_on_c, 0, 75, 56
2, 2204, Note_on_c, 0, 75, 0
2, 2204, Note_on_c, 0, 76, 54
2, 2208, Note_on_c, 0, 76, 0
2, 2208, Note_on_c, 0, 75, 55
2, 2212, Note_on_c, 0, 75, 0
2, 2212, Note_on_c, 0, 76, 53
2, 2216, Note_on_c, 0, 76, 0
2, 2216, Note_on_c, 0, 75, 54
2, 2220, Note_on_c, 0, 75, 0
2, 2220, Note_on_c, 0, 76, 52
2, 2224, Note_on_c, 0, 76, 0
2, 2224, Note_on_c, 0, 75, 53
2, 2228, Note_on_c, 0, 75, 0
2, 2228, Note_on_c, 0, 76, 50
2, 2232, Note_on_c, 0, 76, 0
2, 2232, Note_on_c, 0, 75, 51
2, 2236, Note_on_c, 0, 75, 0
2, 2236, Note_on_c, 0, 76, 48
2, 2240, Note_on_c, 0, 76, 0
2, 2240, Note_on_c, 0, 75, 48
2, 2244, Note_on_c, 0, 75, 0
2, 2244, Note_on_c, 0, 76, 44
2, 2248, Note_on_c, 0, 76, 0
2, 2248, Note_on_c, 0, 75, 44
2, 2252, Note_on_c, 0, 75, 0
2, 2252, Note_on_c, 0, 76, 40
2, 2256, Note_on_c, 0, 76, 0
2, 2256, Note_on_c, 0, 75, 40
2, 2260, Note_on_c, 0, 75, 0
2, 2260, Note_on_c, 0, 76, 36
2, 2264, Note_on_c, 0, 76, 0
2, 2264, Note_on_c, 0, 75, 36
2, 2268, Note_on_c, 0, 75, 0
2, 2268, Note_on_c, 0, 76, 35
2, 2274, Note_on_c, 0, 76, 0
2, 2274, Note_on_c, 0, 75, 34
2, 2280, Note_on_c, 0, 75, 0
2, 2280, Note_on_c, 0, 73, 44
2, 2302, Note_on_c, 0, 73, 0
2, 2304, Note_on_c, 0, 75, 42
2, 2398, Note_on_c, 0, 75, 0
2, 2448, Note_on_c, 0, 68, 60
2, 2494, Note_on_c, 0, 68, 0
2, 2496, Note_on_c, 0, 80, 66
2, 2590, Note_on_c, 0, 80, 0
2, 2592, Note_on_c, 0, 78, 44
2, 2598, Note_on_c, 0, 78, 0
2, 2598, Note_on_c, 0, 80, 48
2, 2604, Note_on_c, 0, 80, 0
2, 2604, Note_on_c, 0, 78, 52
2, 2608, Note_on_c, 0, 78, 0
2, 2608, Note_on_c, 0, 80, 52
2, 2612, Note_on_c, 0, 80, 0
2, 2612, Note_on_c, 0, 78, 59
2, 2616, Note_on_c, 0, 78, 0
2, 2616, Note_on_c, 0, 80, 57
2, 2620, Note_on_c, 0, 80, 0
2, 2620, Note_on_c, 0, 78, 63
2, 2624, Note_on_c, 0, 78, 0
2, 2624, Note_on_c, 0, 80, 61
2, 2628, Note_on_c, 0, 80, 0
2, 2628, Note_on_c, 0, 78, 66
2, 2632, Note_on_c, 0, 78, 0
2, 2632, Note_on_c, 0, 80, 64
2, 2636, Note_on_c, 0, 80, 0
2, 2636, Note_on_c, 0, 78, 66
2, 2640, Note_on_c, 0, 78, 0
2, 2640, Note_on_c, 0, 80, 64
2, 2644, Note_on_c, 0, 80, 0
2, 2644, Note_on_c, 0, 78, 65
2, 2648, Note_on_c, 0, 78, 0
2, 2648, Note_on_c, 0, 80, 60
2, 2652, Note_on_c, 0, 80, 0
2, 2652, Note_on_c, 0, 78, 61
2, 2656, Note_on_c, 0, 78, 0
2, 2656, Note_on_c, 0, 80, 58
2, 2662, Note_on_c, 0, 80, 0
2, 2662, Note_on_c, 0, 78, 60
2, 2668, Note_on_c, 0, 78, 0
2, 2668, Note_on_c, 0, 76, 66
2, 2672, Note_on_c, 0, 76, 0
2, 2673, Note_on_c, 0, 78, 72
2, 2677, Note_on_c, 0, 78, 0
2, 2678, Note_on_c, 0, 80, 76
2, 2682, Note_on_c, 0, 80, 0
2, 2683, Note_on_c, 0, 81, 80
2, 2687, Note_on_c, 0, 81, 0
2, 2688, Note_on_c, 0, 80, 78
2, 2782, Note_on_c, 0, 80, 0
2, 2784, Note_on_c, 0, 73, 70
2, 2832, Note_on_c, 0, 73, 0
2, 2832, Note_on_c, 0, 85, 90
2, 2878, Note_on_c, 0, 85, 0
2, 2880, Note_on_c, 0, 97, 86
2, 2896, Note_on_c, 0, 97, 0
2, 2896, Note_on_c, 0, 98, 85
2, 2912, Note_on_c, 0, 98, 0
2, 2912, Note_on_c, 0, 95, 83
2, 2928, Note_on_c, 0, 95, 0
2, 2928, Note_on_c, 0, 93, 81
2, 2944, Note_on_c, 0, 93, 0
2, 2944, Note_on_c, 0, 92, 79
2, 2960, Note_on_c, 0, 92, 0
2, 2960, Note_on_c, 0, 90, 77
2, 2976, Note_on_c, 0, 90, 0
2, 2976, Note_on_c, 0, 89, 75
2, 2988, Note_on_c, 0, 89, 0
2, 2988, Note_on_c, 0, 86, 74
2, 3000, Note_on_c, 0, 86, 0
2, 3000, Note_on_c, 0, 85, 74
2, 3008, Note_on_c, 0, 85, 0
2, 3008, Note_on_c, 0, 83, 74
2, 3016, Note_on_c, 0, 83, 0
2, 3016, Note_on_c, 0, 81, 73
2, 3024, Note_on_c, 0, 81, 0
2, 3024, Note_on_c, 0, 80, 73
2, 3032, Note_on_c, 0, 80, 0
2, 3032, Note_on_c, 0, 78, 73
2, 3040, Note_on_c, 0, 78, 0
2, 3040, Note_on_c, 0, 77, 72
2, 3048, Note_on_c, 0, 77, 0
2, 3048, Note_on_c, 0, 74, 70
2, 3056, Note_on_c, 0, 74, 0
2, 3056, Note_on_c, 0, 73, 68
2, 3064, Note_on_c, 0, 73, 0
2, 3064, Note_on_c, 0, 71, 70
2, 3072, Note_on_c, 0, 71, 0
2, 3072, Note_on_c, 0, 69, 68
2, 3262, Note_on_c, 0, 69, 0
2, 3264, Note_on_c, 0, 62, 68
2, 3360, Note_on_c, 0, 62, 0
2, 3360, Note_on_c, 0, 74, 74
2, 3432, Note_on_c, 0, 74, 0
2, 3432, Note_on_c, 0, 73, 72
2, 3454, Note_on_c, 0, 73, 0
2, 3456, Note_on_c, 0, 72, 68
2, 3462, Note_on_c, 0, 72, 0
2, 3462, Note_on_c, 0, 73, 60
2, 3468, Note_on_c, 0, 73, 0
2, 3468, Note_on_c, 0, 72, 60
2, 3472, Note_on_c, 0, 72, 0
2, 3472, Note_on_c, 0, 73, 58
2, 3476, Note_on_c, 0, 73, 0
2, 3476, Note_on_c, 0, 72, 60
2, 3480, Note_on_c, 0, 72, 0
2, 3480, Note_on_c, 0, 73, 58
2, 3484, Note_on_c, 0, 73, 0
2, 3484, Note_on_c, 0, 72, 61
2, 3488, Note_on_c, 0, 72, 0
2, 3488, Note_on_c, 0, 73, 59
2, 3492, Note_on_c, 0, 73, 0
2, 3492, Note_on_c, 0, 72, 61
2, 3496, Note_on_c, 0, 72, 0
2, 3496, Note_on_c, 0, 73, 59
2, 3500, Note_on_c, 0, 73, 0
2, 3500, Note_on_c, 0, 72, 62
2, 3504, Note_on_c, 0, 72, 0
2, 3504, Note_on_c, 0, 73, 60
2, 3508, Note_on_c, 0, 73, 0
2, 3508, Note_on_c, 0, 72, 62
2, 3512, Note_on_c, 0, 72, 0
2, 3512, Note_on_c, 0, 73, 60
2, 3516, Note_on_c, 0, 73, 0
2, 3516, Note_on_c, 0, 72, 63
2, 3520, Note_on_c, 0, 72, 0
2, 3520, Note_on_c, 0, 73, 61
2, 3524, Note_on_c, 0, 73, 0
2, 3524, Note_on_c, 0, 72, 64
2, 3528, Note_on_c, 0, 72, 0
2, 3528, Note_on_c, 0, 71, 62
2, 3534, Note_on_c, 0, 71, 0
2, 3534, Note_on_c, 0, 72, 74
2, 3540, Note_on_c, 0, 72, 0
2, 3540, Note_on_c, 0, 73, 76
2, 3546, Note_on_c, 0, 73, 0
2, 3546, Note_on_c, 0, 75, 78
2, 3552, Note_on_c, 0, 75, 0
2, 3552, Note_on_c, 0, 76, 84
2, 3598, Note_on_c, 0, 76, 0
2, 3600, Note_on_c, 0, 75, 78
2, 3622, Note_on_c, 0, 75, 0
2, 3624, Note_on_c, 0, 73, 74
2, 3646, Note_on_c, 0, 73, 0
2, 3648, Note_on_c, 0, 68, 72
2, 3670, Note_on_c, 0, 68, 0
2, 3696, Note_on_c, 0, 69, 78
2, 3790, Note_on_c, 0, 69, 0
2, 3792, Note_on_c, 0, 68, 64
2, 3838, Note_on_c, 0, 68, 0
2, 3840, Note_on_c, 0, 61, 48
2, 3934, Note_on_c, 0, 61, 0
2, 4032, Note_on_c, 0, 64, 46
2, 4080, Note_on_c, 0, 64, 0
2, 4080, Note_on_c, 0, 66, 46
2, 4092, Note_on_c, 0, 66, 0
2, 4092, Note_on_c, 0, 68, 48
2, 4104, Note_on_c, 0, 68, 0
2, 4104, Note_on_c, 0, 69, 50
2, 4116, Note_on_c, 0, 69, 0
2, 4116, Note_on_c, 0, 71, 52
2, 4128, Note_on_c, 0, 71, 0
2, 4128, Note_on_c, 0, 73, 56
2, 4144, Note_on_c, 0, 73, 0
2, 4144, Note_on_c, 0, 74, 58
2, 4160, Note_on_c, 0, 74, 0
2, 4160, Note_on_c, 0, 73, 54
2, 4176, Note_on_c, 0, 73, 0
2, 4176, Note_on_c, 0, 71, 46
2, 4222, Note_on_c, 0, 71, 0
2, 4224, Note_on_c, 0, 76, 60
2, 4248, Note_on_c, 0, 76, 0
2, 4248, Note_on_c, 0, 74, 57
2, 4260, Note_on_c, 0, 74, 0
2, 4260, Note_on_c, 0, 73, 54
2, 4272, Note_on_c, 0, 73, 0
2, 4272, Note_on_c, 0, 71, 52
2, 4296, Note_on_c, 0, 71, 0
2, 4296, Note_on_c, 0, 69, 50
2, 4320, Note_on_c, 0, 69, 0
2, 4320, Note_on_c, 0, 73, 54
2, 4336, Note_on_c, 0, 73, 0
2, 4336, Note_on_c, 0, 74, 56
2, 4352, Note_on_c, 0, 74, 0
2, 4352, Note_on_c, 0, 73, 52
2, 4368, Note_on_c, 0, 73, 0
2, 4368, Note_on_c, 0, 71, 46
2, 4414, Note_on_c, 0, 71, 0
2, 4416, Note_on_c, 0, 74, 54
2, 4416, Note_on_c, 0, 76, 60
2, 4464, Note_on_c, 0, 76, 0
2, 4464, Note_on_c, 0, 74, 0
2, 4464, Note_on_c, 0, 74, 58
2, 4464, Note_on_c, 0, 76, 64
2, 4500, Note_on_c, 0, 76, 0
2, 4500, Note_on_c, 0, 74, 0
2, 4500, Note_on_c, 0, 74, 60
2, 4500, Note_on_c, 0, 76, 66
2, 4512, Note_on_c, 0, 76, 0
2, 4512, Note_on_c, 0, 74, 0
2, 4512, Note_on_c, 0, 73, 60
2, 4512, Note_on_c, 0, 76, 68
2, 4560, Note_on_c, 0, 76, 0
2, 4560, Note_on_c, 0, 73, 0
2, 4560, Note_on_c, 0, 76, 70
2, 4560, Note_on_c, 0, 85, 76
2, 4598, Note_on_c, 0, 85, 0
2, 4598, Note_on_c, 0, 76, 0
2, 4598, Note_on_c, 0, 76, 70
2, 4598, Note_on_c, 0, 85, 76
2, 4608, Note_on_c, 0, 85, 0
2, 4608, Note_on_c, 0, 76, 0
2, 4608, Note_on_c, 0, 74, 60
2, 4608, Note_on_c, 0, 83, 66
2, 4644, Note_on_c, 0, 83, 0
2, 4644, Note_on_c, 0, 74, 0
2, 4644, Note_on_c, 0, 73, 58
2, 4644, Note_on_c, 0, 81, 64
2, 4656, Note_on_c, 0, 81, 0
2, 4656, Note_on_c, 0, 73, 0
2, 4656, Note_on_c, 0, 74, 58
2, 4656, Note_on_c, 0, 83, 64
2, 4692, Note_on_c, 0, 83, 0
2, 4692, Note_on_c, 0, 74, 0
2, 4692, Note_on_c, 0, 76, 56
2, 4692, Note_on_c, 0, 85, 62
2, 4704, Note_on_c, 0, 85, 0
2, 4704, Note_on_c, 0, 76, 0
2, 4704, Note_on_c, 0, 73, 46
2, 4704, Note_on_c, 0, 81, 52
2, 4798, Note_on_c, 0, 81, 0
2, 4798, Note_on_c, 0, 73, 0
2, 4800, Note_on_c, 0, 61, 58
2, 4824, Note_on_c, 0, 61, 0
2, 4824, Note_on_c, 0, 63, 60
2, 4836, Note_on_c, 0, 63, 0
2, 4836, Note_on_c, 0, 65, 62
2, 4848, Note_on_c, 0, 65, 0
2, 4848, Note_on_c, 0, 66, 62
2, 4872, Note_on_c, 0, 66, 0
2, 4872, Note_on_c, 0, 68, 62
2, 4896, Note_on_c, 0, 68, 0
2, 4896, Note_on_c, 0, 69, 64
2, 4912, Note_on_c, 0, 69, 0
2, 4912, Note_on_c, 0, 71, 64
2, 4928, Note_on_c, 0, 71, 0
2, 4928, Note_on_c, 0, 69, 62
2, 4944, Note_on_c, 0, 69, 0
2, 4944, Note_on_c, 0, 68, 60
2, 4990, Note_on_c, 0, 68, 0
2, 4992, Note_on_c, 0, 73, 68
2, 5016, Note_on_c, 0, 73, 0
2, 5016, Note_on_c, 0, 71, 62
2, 5028, Note_on_c, 0, 71, 0
2, 5028, Note_on_c, 0, 69, 59
2, 5040, Note_on_c, 0, 69, 0
2, 5040, Note_on_c, 0, 68, 56
2, 5064, Note_on_c, 0, 68, 0
2, 5064, Note_on_c, 0, 61, 52
2, 5086, Note_on_c, 0, 61, 0
2, 5088, Note_on_c, 0, 69, 48
2, 5104, Note_on_c, 0, 69, 0
2, 5104, Note_on_c, 0, 71, 50
2, 5120, Note_on_c, 0, 71, 0
2, 5120, Note_on_c, 0, 69, 47
2, 5136, Note_on_c, 0, 69, 0
2, 5136, Note_on_c, 0, 66, 42
2, 5182, Note_on_c, 0, 66, 0
2, 5184, Note_on_c, 0, 66, 48
2, 5184, Note_on_c, 0, 68, 54
2, 5232, Note_on_c, 0, 68, 0
2, 5232, Note_on_c, 0, 66, 0
2, 5232, Note_on_c, 0, 66, 56
2, 5232, Note_on_c, 0, 68, 62
2, 5268, Note_on_c, 0, 68, 0
2, 5268, Note_on_c, 0, 66, 0
2, 5268, Note_on_c, 0, 66, 62
2, 5268, Note_on_c, 0, 68, 68
2, 5280, Note_on_c, 0, 68, 0
2, 5280, Note_on_c, 0, 66, 0
2, 5280, Note_on_c, 0, 64, 60
2, 5280, Note_on_c, 0, 68, 68
2, 5328, Note_on_c, 0, 68, 0
2, 5328, Note_on_c, 0, 64, 0
2, 5328, Note_on_c, 0, 68, 72
2, 5328, Note_on_c, 0, 76, 78
2, 5366, Note_on_c, 0, 76, 0
2, 5366, Note_on_c, 0, 68, 0
2, 5366, Note_on_c, 0, 68, 74
2, 5366, Note_on_c, 0, 76, 80
2, 5376, Note_on_c, 0, 76, 0
2, 5376, Note_on_c, 0, 68, 0
2, 5376, Note_on_c, 0, 66, 70
2, 5376, Note_on_c, 0, 75, 76
2, 5412, Note_on_c, 0, 75, 0
2, 5412, Note_on_c, 0, 66, 0
2, 5412, Note_on_c, 0, 64, 66
2, 5412, Note_on_c, 0, 73, 72
2, 5424, Note_on_c, 0, 73, 0
2, 5424, Note_on_c, 0, 64, 0
2, 5424, Note_on_c, 0, 66, 70
2, 5424, Note_on_c, 0, 75, 76
2, 5460, Note_on_c, 0, 75, 0
2, 5460, Note_on_c, 0, 66, 0
2, 5460, Note_on_c, 0, 68, 69
2, 5460, Note_on_c, 0, 76, 75
2, 5472, Note_on_c, 0, 76, 0
2, 5472, Note_on_c, 0, 68, 0
2, 5472, Note_on_c, 0, 64, 64
2, 5472, Note_on_c, 0, 73, 70
2, 5566, Note_on_c, 0, 73, 0
2, 5566, Note_on_c, 0, 64, 0
2, 5568, Note_on_c, 0, 73, 70
2, 5574, Note_on_c, 0, 73, 0
2, 5574, Note_on_c, 0, 75, 64
2, 5580, Note_on_c, 0, 75, 0
2, 5580, Note_on_c, 0, 73, 66
2, 5584, Note_on_c, 0, 73, 0
2, 5584, Note_on_c, 0, 75, 66
2, 5588, Note_on_c, 0, 75, 0
2, 5588, Note_on_c, 0, 73, 70
2, 5592, Note_on_c, 0, 73, 0
2, 5592, Note_on_c, 0, 75, 68
2, 5596, Note_on_c, 0, 75, 0
2, 5596, Note_on_c, 0, 73, 70
2, 5600, Note_on_c, 0, 73, 0
2, 5600, Note_on_c, 0, 75, 67
2, 5604, Note_on_c, 0, 75, 0
2, 5604, Note_on_c, 0, 73, 68
2, 5608, Note_on_c, 0, 73, 0
2, 5608, Note_on_c, 0, 75, 66
2, 5612, Note_on_c, 0, 75, 0
2, 5612, Note_on_c, 0, 73, 67
2, 5616, Note_on_c, 0, 73, 0
2, 5616, Note_on_c, 0, 72, 68
2, 5640, Note_on_c, 0, 72, 0
2, 5640, Note_on_c, 0, 73, 70
2, 5664, Note_on_c, 0, 73, 0
2, 5664, Note_on_c, 0, 76, 76
2, 5736, Note_on_c, 0, 76, 0
2, 5736, Note_on_c, 0, 75, 60
2, 5760, Note_on_c, 0, 75, 0
2, 5760, Note_on_c, 0, 63, 60
2, 5796, Note_on_c, 0, 63, 0
2, 5796, Note_on_c, 0, 73, 60
2, 5808, Note_on_c, 0, 73, 0
2, 5808, Note_on_c, 0, 73, 58
2, 5820, Note_on_c, 0, 73, 0
2, 5832, Note_on_c, 0, 73, 54
2, 5844, Note_on_c, 0, 73, 0
2, 5856, Note_on_c, 0, 72, 50
2, 5880, Note_on_c, 0, 72, 0
2, 5880, Note_on_c, 0, 75, 60
2, 5950, Note_on_c, 0, 75, 0
2, 5952, Note_on_c, 0, 68, 58
2, 5968, Note_on_c, 0, 68, 0
2, 5968, Note_on_c, 0, 70, 58
2, 5984, Note_on_c, 0, 70, 0
2, 5984, Note_on_c, 0, 68, 57
2, 6000, Note_on_c, 0, 68, 0
2, 6000, Note_on_c, 0, 67, 59
2, 6024, Note_on_c, 0, 67, 0
2, 6024, Note_on_c, 0, 65, 57
2, 6048, Note_on_c, 0, 65, 0
2, 6048, Note_on_c, 0, 65, 58
2, 6120, Note_on_c, 0, 65, 0
2, 6120, Note_on_c, 0, 63, 48
2, 6144, Note_on_c, 0, 63, 0
2, 6144, Note_on_c, 0, 63, 54
2, 6180, Note_on_c, 0, 63, 0
2, 6180, Note_on_c, 0, 73, 64
2, 6192, Note_on_c, 0, 73, 0
2, 6192, Note_on_c, 0, 65, 60
2, 6228, Note_on_c, 0, 65, 0
2, 6228, Note_on_c, 0, 67, 59
2, 6240, Note_on_c, 0, 67, 0
2, 6240, Note_on_c, 0, 68, 58
2, 6262, Note_on_c, 0, 68, 0
2, 6276, Note_on_c, 0, 80, 68
2, 6288, Note_on_c, 0, 80, 0
2, 6288, Note_on_c, 0, 72, 62
2, 6324, Note_on_c, 0, 72, 0
2, 6324, Note_on_c, 0, 73, 56
2, 6334, Note_on_c, 0, 73, 0
2, 6336, Note_on_c, 0, 75, 52
2, 6526, Note_on_c, 0, 75, 0
2, 6720, Note_on_c, 0, 73, 60
2, 6766, Note_on_c, 0, 73, 0
2, 6768, Note_on_c, 0, 75, 58
2, 6958, Note_on_c, 0, 75, 0
2, 7296, Note_on_c, 0, 61, 58
2, 7342, Note_on_c, 0, 61, 0
2, 7344, Note_on_c, 0, 63, 54
2, 7534, Note_on_c, 0, 63, 0
2, 7936, Note_on_c, 0, 51, 48
2, 7952, Note_on_c, 0, 51, 0
2, 7952, Note_on_c, 0, 60, 50
2, 7968, Note_on_c, 0, 60, 0
2, 7968, Note_on_c, 0, 56, 50
2, 7984, Note_on_c, 0, 56, 0
2, 7984, Note_on_c, 0, 60, 51
2, 8000, Note_on_c, 0, 60, 0
2, 8000, Note_on_c, 0, 63, 52
2, 8016, Note_on_c, 0, 63, 0
2, 8016, Note_on_c, 0, 72, 50
2, 8032, Note_on_c, 0, 72, 0
2, 8032, Note_on_c, 0, 68, 50
2, 8048, Note_on_c, 0, 68, 0
2, 8048, Note_on_c, 0, 72, 49
2, 8064, Note_on_c, 0, 72, 0
2, 8064, Note_on_c, 0, 75, 50
2, 8080, Note_on_c, 0, 75, 0
2, 8080, Note_on_c, 0, 80, 50
2, 8096, Note_on_c, 0, 80, 0
2, 8096, Note_on_c, 0, 84, 48
2, 8112, Note_on_c, 0, 84, 0
2, 8112, Note_on_c, 0, 92, 46
2, 8254, Note_on_c, 0, 92, 0
2, 8256, Note_on_c, 0, 68, 50
2, 8302, Note_on_c, 0, 68, 0
2, 8304, Note_on_c, 0, 80, 60
2, 8398, Note_on_c, 0, 80, 0
2, 8400, Note_on_c, 0, 78, 44
2, 8406, Note_on_c, 0, 78, 0
2, 8406, Note_on_c, 0, 80, 45
2, 8412, Note_on_c, 0, 80, 0
2, 8412, Note_on_c, 0, 78, 48
2, 8416, Note_on_c, 0, 78, 0
2, 8416, Note_on_c, 0, 80, 48
2, 8420, Note_on_c, 0, 80, 0
2, 8420, Note_on_c, 0, 78, 52
2, 8424, Note_on_c, 0, 78, 0
2, 8424, Note_on_c, 0, 80, 52
2, 8428, Note_on_c, 0, 80, 0
2, 8428, Note_on_c, 0, 78, 56
2, 8432, Note_on_c, 0, 78, 0
2, 8432, Note_on_c, 0, 80, 55
2, 8436, Note_on_c, 0, 80, 0
2, 8436, Note_on_c, 0, 78, 58
2, 8440, Note_on_c, 0, 78, 0
2, 8440, Note_on_c, 0, 80, 56
2, 8444, Note_on_c, 0, 80, 0
2, 8444, Note_on_c, 0, 78, 58
2, 8448, Note_on_c, 0, 78, 0
2, 8448, Note_on_c, 0, 80, 56
2, 8452, Note_on_c, 0, 80, 0
2, 8452, Note_on_c, 0, 78, 57
2, 8456, Note_on_c, 0, 78, 0
2, 8456, Note_on_c, 0, 80, 55
2, 8460, Note_on_c, 0, 80, 0
2, 8460, Note_on_c, 0, 78, 56
2, 8464, Note_on_c, 0, 78, 0
2, 8464, Note_on_c, 0, 80, 54
2, 8470, Note_on_c, 0, 80, 0
2, 8470, Note_on_c, 0, 78, 57
2, 8476, Note_on_c, 0, 78, 0
2, 8476, Note_on_c, 0, 76, 64
2, 8480, Note_on_c, 0, 76, 0
2, 8481, Note_on_c, 0, 78, 68
2, 8485, Note_on_c, 0, 78, 0
2, 8486, Note_on_c, 0, 80, 72
2, 8490, Note_on_c, 0, 80, 0
2, 8491, Note_on_c, 0, 81, 76
2, 8495, Note_on_c, 0, 81, 0
2, 8496, Note_on_c, 0, 80, 74
2, 8590, Note_on_c, 0, 80, 0
2, 8592, Note_on_c, 0, 73, 66
2, 8640, Note_on_c, 0, 73, 0
2, 8640, Note_on_c, 0, 85, 80
2, 8686, Note_on_c, 0, 85, 0
2, 8688, Note_on_c, 0, 97, 86
2, 8704, Note_on_c, 0, 97, 0
2, 8704, Note_on_c, 0, 98, 85
2, 8720, Note_on_c, 0, 98, 0
2, 8720, Note_on_c, 0, 95, 83
2, 8736, Note_on_c, 0, 95, 0
2, 8736, Note_on_c, 0, 93, 81
2, 8752, Note_on_c, 0, 93, 0
2, 8752, Note_on_c, 0, 92, 79
2, 8768, Note_on_c, 0, 92, 0
2, 8768, Note_on_c, 0, 90, 77
2, 8784, Note_on_c, 0, 90, 0
2, 8784, Note_on_c, 0, 89, 75
2, 8796, Note_on_c, 0, 89, 0
2, 8796, Note_on_c, 0, 86, 74
2, 8808, Note_on_c, 0, 86, 0
2, 8808, Note_on_c, 0, 85, 74
2, 8816, Note_on_c, 0, 85, 0
2, 8816, Note_on_c, 0, 83, 74
2, 8824, Note_on_c, 0, 83, 0
2, 8824, Note_on_c, 0, 81, 73
2, 8832, Note_on_c, 0, 81, 0
2, 8832, Note_on_c, 0, 80, 73
2, 8840, Note_on_c, 0, 80, 0
2, 8840, Note_on_c, 0, 78, 73
2, 8848, Note_on_c, 0, 78, 0
2, 8848, Note_on_c, 0, 77, 72
2, 8856, Note_on_c, 0, 77, 0
2, 8856, Note_on_c, 0, 74, 70
2, 8864, Note_on_c, 0, 74, 0
2, 8864, Note_on_c, 0, 73, 68
2, 8872, Note_on_c, 0, 73, 0
2, 8872, Note_on_c, 0, 71, 70
2, 8880, Note_on_c, 0, 71, 0
2, 8880, Note_on_c, 0, 69, 68
2, 8976, Note_on_c, 0, 69, 0
2, 8976, Note_on_c, 0, 81, 82
2, 9070, Note_on_c, 0, 81, 0
2, 9072, Note_on_c, 0, 80, 82
2, 9168, Note_on_c, 0, 80, 0
2, 9168, Note_on_c, 0, 75, 70
2, 9264, Note_on_c, 0, 75, 0
2, 9264, Note_on_c, 0, 76, 58
2, 9268, Note_on_c, 0, 76, 0
2, 9268, Note_on_c, 0, 78, 56
2, 9272, Note_on_c, 0, 78, 0
2, 9272, Note_on_c, 0, 76, 58
2, 9276, Note_on_c, 0, 76, 0
2, 9276, Note_on_c, 0, 78, 57
2, 9280, Note_on_c, 0, 78, 0
2, 9280, Note_on_c, 0, 76, 60
2, 9284, Note_on_c, 0, 76, 0
2, 9284, Note_on_c, 0, 78, 59
2, 9288, Note_on_c, 0, 78, 0
2, 9288, Note_on_c, 0, 76, 62
2, 9292, Note_on_c, 0, 76, 0
2, 9292, Note_on_c, 0, 78, 61
2, 9296, Note_on_c, 0, 78, 0
2, 9296, Note_on_c, 0, 76, 63
2, 9300, Note_on_c, 0, 76, 0
2, 9300, Note_on_c, 0, 78, 62
2, 9304, Note_on_c, 0, 78, 0
2, 9304, Note_on_c, 0, 76, 64
2, 9308, Note_on_c, 0, 76, 0
2, 9308, Note_on_c, 0, 78, 62
2, 9312, Note_on_c, 0, 78, 0
2, 9312, Note_on_c, 0, 76, 64
2, 9316, Note_on_c, 0, 76, 0
2, 9316, Note_on_c, 0, 78, 62
2, 9320, Note_on_c, 0, 78, 0
2, 9320, Note_on_c, 0, 76, 64
2, 9324, Note_on_c, 0, 76, 0
2, 9324, Note_on_c, 0, 78, 62
2, 9328, Note_on_c, 0, 78, 0
2, 9328, Note_on_c, 0, 76, 63
2, 9332, Note_on_c, 0, 76, 0
2, 9332, Note_on_c, 0, 78, 60
2, 9336, Note_on_c, 0, 78, 0
2, 9336, Note_on_c, 0, 76, 61
2, 9340, Note_on_c, 0, 76, 0
2, 9340, Note_on_c, 0, 78, 58
2, 9344, Note_on_c, 0, 78, 0
2, 9344, Note_on_c, 0, 76, 58
2, 9348, Note_on_c, 0, 76, 0
2, 9348, Note_on_c, 0, 75, 64
2, 9354, Note_on_c, 0, 75, 0
2, 9354, Note_on_c, 0, 76, 66
2, 9360, Note_on_c, 0, 76, 0
2, 9360, Note_on_c, 0, 78, 74
2, 9408, Note_on_c, 0, 78, 0
2, 9408, Note_on_c, 0, 73, 68
2, 9454, Note_on_c, 0, 73, 0
2, 9456, Note_on_c, 0, 75, 68
2, 9472, Note_on_c, 0, 75, 0
2, 9472, Note_on_c, 0, 76, 70
2, 9488, Note_on_c, 0, 76, 0
2, 9488, Note_on_c, 0, 75, 68
2, 9504, Note_on_c, 0, 75, 0
2, 9504, Note_on_c, 0, 74, 64
2, 9520, Note_on_c, 0, 74, 0
2, 9520, Note_on_c, 0, 75, 66
2, 9536, Note_on_c, 0, 75, 0
2, 9536, Note_on_c, 0, 76, 68
2, 9550, Note_on_c, 0, 76, 0
2, 9552, Note_on_c, 0, 78, 68
2, 9561, Note_on_c, 0, 78, 0
2, 9561, Note_on_c, 0, 80, 69
2, 9570, Note_on_c, 0, 80, 0
2, 9570, Note_on_c, 0, 81, 71
2, 9577, Note_on_c, 0, 81, 0
2, 9579, Note_on_c, 0, 82, 73
2, 9585, Note_on_c, 0, 82, 0
2, 9589, Note_on_c, 0, 83, 76
2, 9595, Note_on_c, 0, 83, 0
2, 9600, Note_on_c, 0, 84, 79
2, 9608, Note_on_c, 0, 84, 0
2, 9608, Note_on_c, 0, 85, 82
2, 9616, Note_on_c, 0, 85, 0
2, 9616, Note_on_c, 0, 86, 85
2, 9624, Note_on_c, 0, 86, 0
2, 9624, Note_on_c, 0, 87, 88
2, 9632, Note_on_c, 0, 87, 0
2, 9632, Note_on_c, 0, 88, 91
2, 9640, Note_on_c, 0, 88, 0
2, 9640, Note_on_c, 0, 90, 92
2, 9648, Note_on_c, 0, 90, 0
2, 9648, Note_on_c, 0, 88, 86
2, 9742, Note_on_c, 0, 88, 0
2, 9744, Note_on_c, 0, 87, 78
2, 9790, Note_on_c, 0, 87, 0
2, 9792, Note_on_c, 0, 85, 72
2, 9838, Note_on_c, 0, 85, 0
2, 9840, Note_on_c, 0, 84, 72
2, 9886, Note_on_c, 0, 84, 0
2, 9888, Note_on_c, 0, 81, 68
2, 9936, Note_on_c, 0, 81, 0
2, 9936, Note_on_c, 0, 80, 64
2, 9982, Note_on_c, 0, 80, 0
2, 9984, Note_on_c, 0, 75, 60
2, 10030, Note_on_c, 0, 75, 0
2, 10032, Note_on_c, 0, 76, 66
2, 10080, Note_on_c, 0, 76, 0
2, 10080, Note_on_c, 0, 78, 68
2, 10104, Note_on_c, 0, 78, 0
2, 10104, Note_on_c, 0, 80, 66
2, 10128, Note_on_c, 0, 80, 0
2, 10128, Note_on_c, 0, 78, 62
2, 10176, Note_on_c, 0, 78, 0
2, 10176, Note_on_c, 0, 73, 52
2, 10222, Note_on_c, 0, 73, 0
2, 10224, Note_on_c, 0, 73, 56
2, 10230, Note_on_c, 0, 73, 0
2, 10230, Note_on_c, 0, 75, 54
2, 10236, Note_on_c, 0, 75, 0
2, 10236, Note_on_c, 0, 76, 50
2, 10240, Note_on_c, 0, 76, 0
2, 10240, Note_on_c, 0, 75, 46
2, 10244, Note_on_c, 0, 75, 0
2, 10244, Note_on_c, 0, 76, 45
2, 10248, Note_on_c, 0, 76, 0
2, 10248, Note_on_c, 0, 75, 48
2, 10252, Note_on_c, 0, 75, 0
2, 10252, Note_on_c, 0, 76, 47
2, 10256, Note_on_c, 0, 76, 0
2, 10256, Note_on_c, 0, 75, 50
2, 10260, Note_on_c, 0, 75, 0
2, 10260, Note_on_c, 0, 76, 50
2, 10264, Note_on_c, 0, 76, 0
2, 10264, Note_on_c, 0, 75, 52
2, 10268, Note_on_c, 0, 75, 0
2, 10268, Note_on_c, 0, 76, 51
2, 10272, Note_on_c, 0, 76, 0
2, 10272, Note_on_c, 0, 75, 53
2, 10276, Note_on_c, 0, 75, 0
2, 10276, Note_on_c, 0, 76, 52
2, 10280, Note_on_c, 0, 76, 0
2, 10280, Note_on_c, 0, 75, 54
2, 10284, Note_on_c, 0, 75, 0
2, 10284, Note_on_c, 0, 76, 53
2, 10288, Note_on_c, 0, 76, 0
2, 10288, Note_on_c, 0, 75, 55
2, 10292, Note_on_c, 0, 75, 0
2, 10292, Note_on_c, 0, 76, 54
2, 10296, Note_on_c, 0, 76, 0
2, 10296, Note_on_c, 0, 75, 56
2, 10300, Note_on_c, 0, 75, 0
2, 10300, Note_on_c, 0, 76, 54
2, 10304, Note_on_c, 0, 76, 0
2, 10304, Note_on_c, 0, 75, 56
2, 10308, Note_on_c, 0, 75, 0
2, 10308, Note_on_c, 0, 76, 54
2, 10312, Note_on_c, 0, 76, 0
2, 10312, Note_on_c, 0, 75, 56
2, 10316, Note_on_c, 0, 75, 0
2, 10316, Note_on_c, 0, 76, 54
2, 10320, Note_on_c, 0, 76, 0
2, 10320, Note_on_c, 0, 75, 55
2, 10324, Note_on_c, 0, 75, 0
2, 10324, Note_on_c, 0, 76, 53
2, 10328, Note_on_c, 0, 76, 0
2, 10328, Note_on_c, 0, 75, 54
2, 10332, Note_on_c, 0, 75, 0
2, 10332, Note_on_c, 0, 76, 52
2, 10336, Note_on_c, 0, 76, 0
2, 10336, Note_on_c, 0, 75, 54
2, 10340, Note_on_c, 0, 75, 0
2, 10340, Note_on_c, 0, 76, 52
2, 10344, Note_on_c, 0, 76, 0
2, 10344, Note_on_c, 0, 75, 54
2, 10348, Note_on_c, 0, 75, 0
2, 10348, Note_on_c, 0, 76, 52
2, 10352, Note_on_c, 0, 76, 0
2, 10352, Note_on_c, 0, 75, 53
2, 10356, Note_on_c, 0, 75, 0
2, 10356, Note_on_c, 0, 76, 50
2, 10360, Note_on_c, 0, 76, 0
2, 10360, Note_on_c, 0, 75, 51
2, 10364, Note_on_c, 0, 75, 0
2, 10364, Note_on_c, 0, 76, 48
2, 10368, Note_on_c, 0, 76, 0
2, 10368, Note_on_c, 0, 75, 48
2, 10372, Note_on_c, 0, 75, 0
2, 10372, Note_on_c, 0, 76, 44
2, 10376, Note_on_c, 0, 76, 0
2, 10376, Note_on_c, 0, 75, 44
2, 10380, Note_on_c, 0, 75, 0
2, 10380, Note_on_c, 0, 76, 40
2, 10384, Note_on_c, 0, 76, 0
2, 10384, Note_on_c, 0, 75, 40
2, 10388, Note_on_c, 0, 75, 0
2, 10388, Note_on_c, 0, 76, 36
2, 10392, Note_on_c, 0, 76, 0
2, 10392, Note_on_c, 0, 75, 36
2, 10396, Note_on_c, 0, 75, 0
2, 10396, Note_on_c, 0, 76, 33
2, 10402, Note_on_c, 0, 76, 0
2, 10402, Note_on_c, 0, 75, 34
2, 10408, Note_on_c, 0, 75, 0
2, 10408, Note_on_c, 0, 73, 44
2, 10416, Note_on_c, 0, 73, 0
2, 10416, Note_on_c, 0, 73, 44
2, 10510, Note_on_c, 0, 73, 0
2, 10512, Note_on_c, 0, 75, 40
2, 10518, Note_on_c, 0, 75, 0
2, 10518, Note_on_c, 0, 76, 42
2, 10524, Note_on_c, 0, 76, 0
2, 10524, Note_on_c, 0, 78, 44
2, 10530, Note_on_c, 0, 78, 0
2, 10530, Note_on_c, 0, 80, 46
2, 10536, Note_on_c, 0, 80, 0
2, 10536, Note_on_c, 0, 81, 48
2, 10542, Note_on_c, 0, 81, 0
2, 10542, Note_on_c, 0, 83, 50
2, 10548, Note_on_c, 0, 83, 0
2, 10548, Note_on_c, 0, 85, 52
2, 10554, Note_on_c, 0, 85, 0
2, 10554, Note_on_c, 0, 87, 54
2, 10560, Note_on_c, 0, 87, 0
2, 10560, Note_on_c, 0, 85, 52
2, 10566, Note_on_c, 0, 85, 0
2, 10566, Note_on_c, 0, 83, 50
2, 10572, Note_on_c, 0, 83, 0
2, 10572, Note_on_c, 0, 81, 48
2, 10576, Note_on_c, 0, 81, 0
2, 10578, Note_on_c, 0, 80, 46
2, 10582, Note_on_c, 0, 80, 0
2, 10584, Note_on_c, 0, 78, 44
2, 10588, Note_on_c, 0, 78, 0
2, 10590, Note_on_c, 0, 76, 42
2, 10594, Note_on_c, 0, 76, 0
2, 10596, Note_on_c, 0, 75, 40
2, 10600, Note_on_c, 0, 75, 0
2, 10602, Note_on_c, 0, 73, 39
2, 10606, Note_on_c, 0, 73, 0
2, 10608, Note_on_c, 0, 71, 38
2, 10612, Note_on_c, 0, 71, 0
2, 10614, Note_on_c, 0, 69, 37
2, 10618, Note_on_c, 0, 69, 0
2, 10620, Note_on_c, 0, 68, 36
2, 10714, Note_on_c, 0, 68, 0
2, 10716, Note_on_c, 0, 69, 42
2, 10720, Note_on_c, 0, 69, 0
2, 10720, Note_on_c, 0, 71, 42
2, 10724, Note_on_c, 0, 71, 0
2, 10724, Note_on_c, 0, 73, 41
2, 10728, Note_on_c, 0, 73, 0
2, 10728, Note_on_c, 0, 75, 40
2, 10732, Note_on_c, 0, 75, 0
2, 10732, Note_on_c, 0, 76, 40
2, 10736, Note_on_c, 0, 76, 0
2, 10736, Note_on_c, 0, 78, 42
2, 10740, Note_on_c, 0, 78, 0
2, 10740, Note_on_c, 0, 80, 44
2, 10744, Note_on_c, 0, 80, 0
2, 10744, Note_on_c, 0, 81, 46
2, 10748, Note_on_c, 0, 81, 0
2, 10748, Note_on_c, 0, 83, 48
2, 10752, Note_on_c, 0, 83, 0
2, 10752, Note_on_c, 0, 85, 50
2, 10756, Note_on_c, 0, 85, 0
2, 10756, Note_on_c, 0, 87, 52
2, 10760, Note_on_c, 0, 87, 0
2, 10760, Note_on_c, 0, 88, 54
2, 10764, Note_on_c, 0, 88, 0
2, 10764, Note_on_c, 0, 90, 56
2, 10768, Note_on_c, 0, 90, 0
2, 10768, Note_on_c, 0, 92, 58
2, 10772, Note_on_c, 0, 92, 0
2, 10772, Note_on_c, 0, 93, 60
2, 10776, Note_on_c, 0, 93, 0
2, 10776, Note_on_c, 0, 95, 62
2, 10780, Note_on_c, 0, 95, 0
2, 10780, Note_on_c, 0, 97, 64
2, 10784, Note_on_c, 0, 97, 0
2, 10784, Note_on_c, 0, 99, 66
2, 10788, Note_on_c, 0, 99, 0
2, 10788, Note_on_c, 0, 97, 65
2, 10792, Note_on_c, 0, 97, 0
2, 10792, Note_on_c, 0, 95, 64
2, 10796, Note_on_c, 0, 95, 0
2, 10796, Note_on_c, 0, 93, 63
2, 10800, Note_on_c, 0, 93, 0
2, 10800, Note_on_c, 0, 92, 62
2, 10804, Note_on_c, 0, 92, 0
2, 10804, Note_on_c, 0, 90, 60
2, 10808, Note_on_c, 0, 90, 0
2, 10808, Note_on_c, 0, 88, 58
2, 10812, Note_on_c, 0, 88, 0
2, 10812, Note_on_c, 0, 87, 56
2, 10816, Note_on_c, 0, 87, 0
2, 10816, Note_on_c, 0, 85, 54
2, 10820, Note_on_c, 0, 85, 0
2, 10820, Note_on_c, 0, 83, 52
2, 10824, Note_on_c, 0, 83, 0
2, 10824, Note_on_c, 0, 81, 50
2, 10828, Note_on_c, 0, 81, 0
2, 10828, Note_on_c, 0, 80, 48
2, 10832, Note_on_c, 0, 80, 0
2, 10832, Note_on_c, 0, 78, 46
2, 10836, Note_on_c, 0, 78, 0
2, 10836, Note_on_c, 0, 76, 44
2, 10840, Note_on_c, 0, 76, 0
2, 10840, Note_on_c, 0, 75, 42
2, 10844, Note_on_c, 0, 75, 0
2, 10844, Note_on_c, 0, 73, 40
2, 10848, Note_on_c, 0, 73, 0
2, 10848, Note_on_c, 0, 71, 38
2, 10852, Note_on_c, 0, 71, 0
2, 10852, Note_on_c, 0, 69, 36
2, 10856, Note_on_c, 0, 69, 0
2, 10856, Note_on_c, 0, 68, 35
2, 10950, Note_on_c, 0, 68, 0
2, 10952, Note_on_c, 0, 69, 42
2, 10960, Note_on_c, 0, 69, 0
2, 10960, Note_on_c, 0, 71, 42
2, 10968, Note_on_c, 0, 71, 0
2, 10968, Note_on_c, 0, 73, 40
2, 10976, Note_on_c, 0, 73, 0
2, 10976, Note_on_c, 0, 75, 43
2, 10984, Note_on_c, 0, 75, 0
2, 10984, Note_on_c, 0, 76, 46
2, 10992, Note_on_c, 0, 76, 0
2, 10992, Note_on_c, 0, 78, 46
2, 11000, Note_on_c, 0, 78, 0
2, 11000, Note_on_c, 0, 76, 45
2, 11008, Note_on_c, 0, 76, 0
2, 11008, Note_on_c, 0, 75, 44
2, 11016, Note_on_c, 0, 75, 0
2, 11016, Note_on_c, 0, 73, 43
2, 11024, Note_on_c, 0, 73, 0
2, 11024, Note_on_c, 0, 71, 42
2, 11032, Note_on_c, 0, 71, 0
2, 11032, Note_on_c, 0, 69, 41
2, 11038, Note_on_c, 0, 69, 0
2, 11040, Note_on_c, 0, 68, 40
2, 11134, Note_on_c, 0, 68, 0
2, 11136, Note_on_c, 0, 69, 40
2, 11144, Note_on_c, 0, 69, 0
2, 11144, Note_on_c, 0, 71, 40
2, 11152, Note_on_c, 0, 71, 0
2, 11152, Note_on_c, 0, 73, 42
2, 11160, Note_on_c, 0, 73, 0
2, 11160, Note_on_c, 0, 75, 44
2, 11168, Note_on_c, 0, 75, 0
2, 11168, Note_on_c, 0, 76, 45
2, 11176, Note_on_c, 0, 76, 0
2, 11176, Note_on_c, 0, 78, 46
2, 11184, Note_on_c, 0, 78, 0
2, 11184, Note_on_c, 0, 80, 45
2, 11192, Note_on_c, 0, 80, 0
2, 11192, Note_on_c, 0, 78, 44
2, 11197, Note_on_c, 0, 78, 0
2, 11200, Note_on_c, 0, 76, 43
2, 11205, Note_on_c, 0, 76, 0
2, 11208, Note_on_c, 0, 75, 42
2, 11213, Note_on_c, 0, 75, 0
2, 11216, Note_on_c, 0, 73, 41
2, 11220, Note_on_c, 0, 73, 0
2, 11224, Note_on_c, 0, 71, 40
2, 11228, Note_on_c, 0, 71, 0
2, 11232, Note_on_c, 0, 69, 39
2, 11235, Note_on_c, 0, 69, 0
2, 11240, Note_on_c, 0, 68, 38
2, 11622, Note_on_c, 0, 68, 0
2, 11624, Note_on_c, 0, 68, 38
2, 11694, Note_on_c, 0, 68, 0
2, 11696, Note_on_c, 0, 73, 40
2, 11718, Note_on_c, 0, 73, 0
2, 11720, Note_on_c, 0, 77, 41
2, 11744, Note_on_c, 0, 77, 0
2, 11744, Note_on_c, 0, 80, 42
2, 11768, Note_on_c, 0, 80, 0
2, 11768, Note_on_c, 0, 85, 40
2, 11792, Note_on_c, 0, 85, 0
2, 11792, Note_on_c, 0, 89, 38
2, 11814, Note_on_c, 0, 89, 0
2, 11816, Note_on_c, 0, 97, 42
2, 12006, Note_on_c, 0, 97, 0
2, 12008, End_track
3, 0, Start_track
3, 0, Title_t, "LEFT HAND"
3, 0, MIDI_port, 0
3, 192, Note_on_c, 0, 37, 25
3, 238, Note_on_c, 0, 37, 0
3, 264, Note_on_c, 0, 49, 23
3, 286, Note_on_c, 0, 49, 0
3, 288, Note_on_c, 0, 54, 20
3, 334, Note_on_c, 0, 54, 0
3, 360, Note_on_c, 0, 49, 25
3, 382, Note_on_c, 0, 49, 0
3, 384, Note_on_c, 0, 45, 22
3, 430, Note_on_c, 0, 45, 0
3, 432, Note_on_c, 0, 44, 20
3, 478, Note_on_c, 0, 44, 0
3, 576, Note_on_c, 0, 37, 20
3, 622, Note_on_c, 0, 37, 0
3, 648, Note_on_c, 0, 49, 23
3, 670, Note_on_c, 0, 49, 0
3, 672, Note_on_c, 0, 54, 15
3, 718, Note_on_c, 0, 54, 0
3, 744, Note_on_c, 0, 49, 16
3, 766, Note_on_c, 0, 49, 0
3, 768, Note_on_c, 0, 45, 28
3, 814, Note_on_c, 0, 45, 0
3, 816, Note_on_c, 0, 44, 14
3, 862, Note_on_c, 0, 44, 0
3, 960, Note_on_c, 0, 49, 28
3, 984, Note_on_c, 0, 49, 0
3, 984, Note_on_c, 0, 56, 32
3, 1008, Note_on_c, 0, 56, 0
3, 1008, Note_on_c, 0, 64, 34
3, 1032, Note_on_c, 0, 64, 0
3, 1032, Note_on_c, 0, 61, 28
3, 1056, Note_on_c, 0, 61, 0
3, 1056, Note_on_c, 0, 49, 32
3, 1080, Note_on_c, 0, 49, 0
3, 1080, Note_on_c, 0, 57, 36
3, 1104, Note_on_c, 0, 57, 0
3, 1104, Note_on_c, 0, 63, 38
3, 1128, Note_on_c, 0, 63, 0
3, 1128, Note_on_c, 0, 61, 36
3, 1152, Note_on_c, 0, 61, 0
3, 1152, Note_on_c, 0, 49, 32
3, 1176, Note_on_c, 0, 49, 0
3, 1176, Note_on_c, 0, 56, 36
3, 1200, Note_on_c, 0, 56, 0
3, 1200, Note_on_c, 0, 64, 38
3, 1224, Note_on_c, 0, 64, 0
3, 1224, Note_on_c, 0, 61, 34
3, 1248, Note_on_c, 0, 61, 0
3, 1248, Note_on_c, 0, 49, 32
3, 1272, Note_on_c, 0, 49, 0
3, 1272, Note_on_c, 0, 56, 34
3, 1296, Note_on_c, 0, 56, 0
3, 1296, Note_on_c, 0, 64, 36
3, 1320, Note_on_c, 0, 64, 0
3, 1320, Note_on_c, 0, 61, 32
3, 1344, Note_on_c, 0, 61, 0
3, 1344, Note_on_c, 0, 49, 38
3, 1368, Note_on_c, 0, 49, 0
3, 1368, Note_on_c, 0, 56, 42
3, 1392, Note_on_c, 0, 56, 0
3, 1392, Note_on_c, 0, 65, 46
3, 1416, Note_on_c, 0, 65, 0
3, 1416, Note_on_c, 0, 61, 44
3, 1440, Note_on_c, 0, 61, 0
3, 1440, Note_on_c, 0, 49, 38
3, 1464, Note_on_c, 0, 49, 0
3, 1464, Note_on_c, 0, 56, 32
3, 1488, Note_on_c, 0, 56, 0
3, 1488, Note_on_c, 0, 65, 30
3, 1512, Note_on_c, 0, 65, 0
3, 1512, Note_on_c, 0, 61, 26
3, 1536, Note_on_c, 0, 61, 0
3, 1536, Note_on_c, 0, 54, 24
3, 1560, Note_on_c, 0, 54, 0
3, 1560, Note_on_c, 0, 57, 30
3, 1584, Note_on_c, 0, 57, 0
3, 1584, Note_on_c, 0, 66, 36
3, 1608, Note_on_c, 0, 66, 0
3, 1608, Note_on_c, 0, 61, 35
3, 1632, Note_on_c, 0, 61, 0
3, 1632, Note_on_c, 0, 54, 35
3, 1656, Note_on_c, 0, 54, 0
3, 1656, Note_on_c, 0, 57, 37
3, 1680, Note_on_c, 0, 57, 0
3, 1680, Note_on_c, 0, 66, 36
3, 1704, Note_on_c, 0, 66, 0
3, 1704, Note_on_c, 0, 61, 30
3, 1728, Note_on_c, 0, 61, 0
3, 1728, Note_on_c, 0, 48, 30
3, 1752, Note_on_c, 0, 48, 0
3, 1752, Note_on_c, 0, 56, 34
3, 1776, Note_on_c, 0, 56, 0
3, 1776, Note_on_c, 0, 66, 38
3, 1800, Note_on_c, 0, 66, 0
3, 1800, Note_on_c, 0, 63, 36
3, 1824, Note_on_c, 0, 63, 0
3, 1824, Note_on_c, 0, 48, 40
3, 1848, Note_on_c, 0, 48, 0
3, 1848, Note_on_c, 0, 56, 44
3, 1872, Note_on_c, 0, 56, 0
3, 1872, Note_on_c, 0, 66, 48
3, 1896, Note_on_c, 0, 66, 0
3, 1896, Note_on_c, 0, 63, 46
3, 1920, Note_on_c, 0, 63, 0
3, 1920, Note_on_c, 0, 49, 50
3, 1944, Note_on_c, 0, 49, 0
3, 1944, Note_on_c, 0, 56, 54
3, 1968, Note_on_c, 0, 56, 0
3, 1968, Note_on_c, 0, 64, 58
3, 1992, Note_on_c, 0, 64, 0
3, 1992, Note_on_c, 0, 61, 56
3, 2016, Note_on_c, 0, 61, 0
3, 2016, Note_on_c, 0, 45, 52
3, 2040, Note_on_c, 0, 45, 0
3, 2040, Note_on_c, 0, 51, 54
3, 2064, Note_on_c, 0, 51, 0
3, 2064, Note_on_c, 0, 61, 50
3, 2088, Note_on_c, 0, 61, 0
3, 2088, Note_on_c, 0, 54, 44
3, 2112, Note_on_c, 0, 54, 0
3, 2112, Note_on_c, 0, 44, 40
3, 2136, Note_on_c, 0, 44, 0
3, 2136, Note_on_c, 0, 51, 40
3, 2160, Note_on_c, 0, 51, 0
3, 2160, Note_on_c, 0, 61, 42
3, 2184, Note_on_c, 0, 61, 0
3, 2184, Note_on_c, 0, 51, 40
3, 2208, Note_on_c, 0, 51, 0
3, 2208, Note_on_c, 0, 44, 39
3, 2232, Note_on_c, 0, 44, 0
3, 2232, Note_on_c, 0, 51, 36
3, 2256, Note_on_c, 0, 51, 0
3, 2256, Note_on_c, 0, 60, 38
3, 2280, Note_on_c, 0, 60, 0
3, 2280, Note_on_c, 0, 58, 30
3, 2304, Note_on_c, 0, 58, 0
3, 2304, Note_on_c, 0, 44, 30
3, 2328, Note_on_c, 0, 44, 0
3, 2328, Note_on_c, 0, 51, 32
3, 2352, Note_on_c, 0, 51, 0
3, 2352, Note_on_c, 0, 60, 36
3, 2376, Note_on_c, 0, 60, 0
3, 2376, Note_on_c, 0, 56, 34
3, 2400, Note_on_c, 0, 56, 0
3, 2400, Note_on_c, 0, 44, 30
3, 2424, Note_on_c, 0, 44, 0
3, 2424, Note_on_c, 0, 51, 32
3, 2448, Note_on_c, 0, 51, 0
3, 2448, Note_on_c, 0, 60, 36
3, 2472, Note_on_c, 0, 60, 0
3, 2472, Note_on_c, 0, 56, 34
3, 2496, Note_on_c, 0, 56, 0
3, 2496, Note_on_c, 0, 49, 30
3, 2520, Note_on_c, 0, 49, 0
3, 2520, Note_on_c, 0, 56, 34
3, 2544, Note_on_c, 0, 64, 38
3, 2568, Note_on_c, 0, 64, 0
3, 2568, Note_on_c, 0, 56, 0
3, 2568, Note_on_c, 0, 61, 36
3, 2592, Note_on_c, 0, 61, 0
3, 2592, Note_on_c, 0, 49, 30
3, 2616, Note_on_c, 0, 49, 0
3, 2616, Note_on_c, 0, 54, 34
3, 2640, Note_on_c, 0, 63, 38
3, 2664, Note_on_c, 0, 63, 0
3, 2664, Note_on_c, 0, 54, 0
3, 2664, Note_on_c, 0, 61, 36
3, 2688, Note_on_c, 0, 61, 0
3, 2688, Note_on_c, 0, 49, 34
3, 2712, Note_on_c, 0, 49, 0
3, 2712, Note_on_c, 0, 56, 38
3, 2736, Note_on_c, 0, 64, 42
3, 2760, Note_on_c, 0, 64, 0
3, 2760, Note_on_c, 0, 56, 0
3, 2760, Note_on_c, 0, 61, 40
3, 2784, Note_on_c, 0, 61, 0
3, 2784, Note_on_c, 0, 49, 38
3, 2808, Note_on_c, 0, 49, 0
3, 2808, Note_on_c, 0, 56, 42
3, 2832, Note_on_c, 0, 64, 46
3, 2856, Note_on_c, 0, 64, 0
3, 2856, Note_on_c, 0, 56, 0
3, 2856, Note_on_c, 0, 61, 44
3, 2880, Note_on_c, 0, 61, 0
3, 2880, Note_on_c, 0, 49, 40
3, 2904, Note_on_c, 0, 49, 0
3, 2904, Note_on_c, 0, 56, 44
3, 2928, Note_on_c, 0, 56, 0
3, 2928, Note_on_c, 0, 65, 48
3, 2952, Note_on_c, 0, 65, 0
3, 2952, Note_on_c, 0, 59, 44
3, 2976, Note_on_c, 0, 59, 0
3, 2976, Note_on_c, 0, 49, 42
3, 3003, Note_on_c, 0, 49, 0
3, 3003, Note_on_c, 0, 56, 46
3, 3026, Note_on_c, 0, 56, 0
3, 3026, Note_on_c, 0, 65, 50
3, 3049, Note_on_c, 0, 65, 0
3, 3049, Note_on_c, 0, 59, 48
3, 3072, Note_on_c, 0, 59, 0
3, 3072, Note_on_c, 0, 54, 52
3, 3096, Note_on_c, 0, 54, 0
3, 3096, Note_on_c, 0, 57, 55
3, 3120, Note_on_c, 0, 57, 0
3, 3120, Note_on_c, 0, 66, 58
3, 3144, Note_on_c, 0, 66, 0
3, 3144, Note_on_c, 0, 61, 54
3, 3168, Note_on_c, 0, 61, 0
3, 3168, Note_on_c, 0, 57, 50
3, 3192, Note_on_c, 0, 57, 0
3, 3192, Note_on_c, 0, 54, 46
3, 3216, Note_on_c, 0, 54, 0
3, 3216, Note_on_c, 0, 57, 48
3, 3240, Note_on_c, 0, 57, 0
3, 3240, Note_on_c, 0, 49, 40
3, 3264, Note_on_c, 0, 49, 0
3, 3264, Note_on_c, 0, 42, 44
3, 3288, Note_on_c, 0, 42, 0
3, 3288, Note_on_c, 0, 50, 42
3, 3312, Note_on_c, 0, 50, 0
3, 3312, Note_on_c, 0, 57, 48
3, 3336, Note_on_c, 0, 57, 0
3, 3336, Note_on_c, 0, 54, 44
3, 3360, Note_on_c, 0, 54, 0
3, 3360, Note_on_c, 0, 42, 46
3, 3384, Note_on_c, 0, 42, 0
3, 3384, Note_on_c, 0, 50, 45
3, 3408, Note_on_c, 0, 50, 0
3, 3408, Note_on_c, 0, 57, 52
3, 3432, Note_on_c, 0, 57, 0
3, 3432, Note_on_c, 0, 54, 49
3, 3456, Note_on_c, 0, 54, 0
3, 3456, Note_on_c, 0, 42, 46
3, 3480, Note_on_c, 0, 42, 0
3, 3480, Note_on_c, 0, 51, 50
3, 3504, Note_on_c, 0, 51, 0
3, 3504, Note_on_c, 0, 57, 54
3, 3528, Note_on_c, 0, 57, 0
3, 3528, Note_on_c, 0, 54, 54
3, 3552, Note_on_c, 0, 54, 0
3, 3552, Note_on_c, 0, 43, 50
3, 3576, Note_on_c, 0, 43, 0
3, 3576, Note_on_c, 0, 52, 52
3, 3600, Note_on_c, 0, 52, 0
3, 3600, Note_on_c, 0, 61, 54
3, 3624, Note_on_c, 0, 61, 0
3, 3624, Note_on_c, 0, 57, 52
3, 3648, Note_on_c, 0, 57, 0
3, 3648, Note_on_c, 0, 44, 42
3, 3672, Note_on_c, 0, 44, 0
3, 3672, Note_on_c, 0, 52, 44
3, 3696, Note_on_c, 0, 52, 0
3, 3696, Note_on_c, 0, 61, 46
3, 3720, Note_on_c, 0, 61, 0
3, 3720, Note_on_c, 0, 56, 44
3, 3744, Note_on_c, 0, 56, 0
3, 3744, Note_on_c, 0, 44, 42
3, 3768, Note_on_c, 0, 44, 0
3, 3768, Note_on_c, 0, 51, 44
3, 3792, Note_on_c, 0, 51, 0
3, 3792, Note_on_c, 0, 60, 42
3, 3816, Note_on_c, 0, 60, 0
3, 3816, Note_on_c, 0, 54, 36
3, 3840, Note_on_c, 0, 54, 0
3, 3840, Note_on_c, 0, 49, 38
3, 3864, Note_on_c, 0, 49, 0
3, 3864, Note_on_c, 0, 56, 44
3, 3888, Note_on_c, 0, 56, 0
3, 3888, Note_on_c, 0, 52, 40
3, 3912, Note_on_c, 0, 52, 0
3, 3912, Note_on_c, 0, 51, 38
3, 3936, Note_on_c, 0, 51, 0
3, 3936, Note_on_c, 0, 49, 36
3, 3960, Note_on_c, 0, 49, 0
3, 3960, Note_on_c, 0, 52, 38
3, 3984, Note_on_c, 0, 52, 0
3, 3984, Note_on_c, 0, 49, 34
3, 4008, Note_on_c, 0, 49, 0
3, 4008, Note_on_c, 0, 47, 30
3, 4032, Note_on_c, 0, 47, 0
3, 4032, Note_on_c, 0, 45, 32
3, 4056, Note_on_c, 0, 45, 0
3, 4056, Note_on_c, 0, 52, 32
3, 4080, Note_on_c, 0, 52, 0
3, 4080, Note_on_c, 0, 61, 34
3, 4104, Note_on_c, 0, 61, 0
3, 4104, Note_on_c, 0, 57, 32
3, 4128, Note_on_c, 0, 57, 0
3, 4128, Note_on_c, 0, 45, 34
3, 4152, Note_on_c, 0, 45, 0
3, 4152, Note_on_c, 0, 52, 34
3, 4176, Note_on_c, 0, 52, 0
3, 4176, Note_on_c, 0, 62, 36
3, 4200, Note_on_c, 0, 62, 0
3, 4200, Note_on_c, 0, 56, 32
3, 4224, Note_on_c, 0, 56, 0
3, 4224, Note_on_c, 0, 45, 34
3, 4248, Note_on_c, 0, 45, 0
3, 4248, Note_on_c, 0, 52, 34
3, 4272, Note_on_c, 0, 52, 0
3, 4272, Note_on_c, 0, 61, 36
3, 4296, Note_on_c, 0, 61, 0
3, 4296, Note_on_c, 0, 57, 34
3, 4320, Note_on_c, 0, 57, 0
3, 4320, Note_on_c, 0, 45, 34
3, 4344, Note_on_c, 0, 45, 0
3, 4344, Note_on_c, 0, 52, 34
3, 4368, Note_on_c, 0, 52, 0
3, 4368, Note_on_c, 0, 62, 36
3, 4392, Note_on_c, 0, 62, 0
3, 4392, Note_on_c, 0, 56, 32
3, 4416, Note_on_c, 0, 56, 0
3, 4416, Note_on_c, 0, 45, 34
3, 4440, Note_on_c, 0, 45, 0
3, 4440, Note_on_c, 0, 52, 36
3, 4464, Note_on_c, 0, 52, 0
3, 4464, Note_on_c, 0, 64, 38
3, 4488, Note_on_c, 0, 64, 0
3, 4488, Note_on_c, 0, 56, 39
3, 4512, Note_on_c, 0, 56, 0
3, 4512, Note_on_c, 0, 45, 40
3, 4536, Note_on_c, 0, 45, 0
3, 4536, Note_on_c, 0, 52, 42
3, 4560, Note_on_c, 0, 52, 0
3, 4560, Note_on_c, 0, 64, 44
3, 4584, Note_on_c, 0, 64, 0
3, 4584, Note_on_c, 0, 57, 42
3, 4608, Note_on_c, 0, 57, 0
3, 4608, Note_on_c, 0, 45, 40
3, 4632, Note_on_c, 0, 45, 0
3, 4632, Note_on_c, 0, 52, 42
3, 4656, Note_on_c, 0, 52, 0
3, 4656, Note_on_c, 0, 64, 44
3, 4680, Note_on_c, 0, 64, 0
3, 4680, Note_on_c, 0, 56, 40
3, 4704, Note_on_c, 0, 56, 0
3, 4704, Note_on_c, 0, 45, 36
3, 4728, Note_on_c, 0, 45, 0
3, 4728, Note_on_c, 0, 52, 38
3, 4752, Note_on_c, 0, 52, 0
3, 4752, Note_on_c, 0, 61, 40
3, 4776, Note_on_c, 0, 61, 0
3, 4776, Note_on_c, 0, 57, 36
3, 4800, Note_on_c, 0, 57, 0
3, 4800, Note_on_c, 0, 42, 34
3, 4824, Note_on_c, 0, 42, 0
3, 4824, Note_on_c, 0, 49, 36
3, 4848, Note_on_c, 0, 49, 0
3, 4848, Note_on_c, 0, 57, 38
3, 4872, Note_on_c, 0, 57, 0
3, 4872, Note_on_c, 0, 54, 36
3, 4896, Note_on_c, 0, 54, 0
3, 4896, Note_on_c, 0, 42, 34
3, 4920, Note_on_c, 0, 42, 0
3, 4920, Note_on_c, 0, 49, 36
3, 4944, Note_on_c, 0, 49, 0
3, 4944, Note_on_c, 0, 59, 38
3, 4968, Note_on_c, 0, 59, 0
3, 4968, Note_on_c, 0, 53, 36
3, 4992, Note_on_c, 0, 53, 0
3, 4992, Note_on_c, 0, 42, 34
3, 5016, Note_on_c, 0, 42, 0
3, 5016, Note_on_c, 0, 49, 36
3, 5040, Note_on_c, 0, 49, 0
3, 5040, Note_on_c, 0, 59, 38
3, 5064, Note_on_c, 0, 59, 0
3, 5064, Note_on_c, 0, 53, 34
3, 5088, Note_on_c, 0, 53, 0
3, 5088, Note_on_c, 0, 42, 30
3, 5112, Note_on_c, 0, 42, 0
3, 5112, Note_on_c, 0, 49, 32
3, 5136, Note_on_c, 0, 49, 0
3, 5136, Note_on_c, 0, 57, 34
3, 5160, Note_on_c, 0, 57, 0
3, 5160, Note_on_c, 0, 54, 32
3, 5184, Note_on_c, 0, 54, 0
3, 5184, Note_on_c, 0, 44, 30
3, 5208, Note_on_c, 0, 44, 0
3, 5208, Note_on_c, 0, 51, 34
3, 5232, Note_on_c, 0, 51, 0
3, 5232, Note_on_c, 0, 60, 38
3, 5256, Note_on_c, 0, 60, 0
3, 5256, Note_on_c, 0, 56, 36
3, 5280, Note_on_c, 0, 56, 0
3, 5280, Note_on_c, 0, 49, 36
3, 5304, Note_on_c, 0, 49, 0
3, 5304, Note_on_c, 0, 52, 40
3, 5328, Note_on_c, 0, 52, 0
3, 5328, Note_on_c, 0, 61, 44
3, 5352, Note_on_c, 0, 61, 0
3, 5352, Note_on_c, 0, 56, 44
3, 5376, Note_on_c, 0, 56, 0
3, 5376, Note_on_c, 0, 44, 45
3, 5400, Note_on_c, 0, 44, 0
3, 5400, Note_on_c, 0, 51, 49
3, 5424, Note_on_c, 0, 51, 0
3, 5424, Note_on_c, 0, 60, 53
3, 5448, Note_on_c, 0, 60, 0
3, 5448, Note_on_c, 0, 56, 51
3, 5472, Note_on_c, 0, 56, 0
3, 5472, Note_on_c, 0, 49, 54
3, 5496, Note_on_c, 0, 49, 0
3, 5496, Note_on_c, 0, 52, 60
3, 5520, Note_on_c, 0, 52, 0
3, 5520, Note_on_c, 0, 61, 64
3, 5544, Note_on_c, 0, 61, 0
3, 5544, Note_on_c, 0, 56, 68
3, 5568, Note_on_c, 0, 56, 0
3, 5568, Note_on_c, 0, 45, 50
3, 5592, Note_on_c, 0, 45, 0
3, 5592, Note_on_c, 0, 51, 54
3, 5616, Note_on_c, 0, 51, 0
3, 5616, Note_on_c, 0, 61, 58
3, 5640, Note_on_c, 0, 61, 0
3, 5640, Note_on_c, 0, 55, 52
3, 5664, Note_on_c, 0, 55, 0
3, 5664, Note_on_c, 0, 44, 46
3, 5688, Note_on_c, 0, 44, 0
3, 5688, Note_on_c, 0, 51, 48
3, 5712, Note_on_c, 0, 51, 0
3, 5712, Note_on_c, 0, 60, 50
3, 5736, Note_on_c, 0, 60, 0
3, 5736, Note_on_c, 0, 56, 44
3, 5760, Note_on_c, 0, 56, 0
3, 5760, Note_on_c, 0, 45, 36
3, 5784, Note_on_c, 0, 45, 0
3, 5784, Note_on_c, 0, 51, 38
3, 5808, Note_on_c, 0, 51, 0
3, 5808, Note_on_c, 0, 63, 38
3, 5832, Note_on_c, 0, 63, 0
3, 5832, Note_on_c, 0, 55, 36
3, 5856, Note_on_c, 0, 55, 0
3, 5856, Note_on_c, 0, 44, 32
3, 5880, Note_on_c, 0, 44, 0
3, 5880, Note_on_c, 0, 51, 34
3, 5904, Note_on_c, 0, 51, 0
3, 5904, Note_on_c, 0, 60, 36
3, 5928, Note_on_c, 0, 60, 0
3, 5928, Note_on_c, 0, 56, 32
3, 5952, Note_on_c, 0, 56, 0
3, 5952, Note_on_c, 0, 50, 30
3, 5976, Note_on_c, 0, 50, 0
3, 5976, Note_on_c, 0, 53, 30
3, 6000, Note_on_c, 0, 53, 0
3, 6000, Note_on_c, 0, 59, 30
3, 6024, Note_on_c, 0, 59, 0
3, 6024, Note_on_c, 0, 56, 30
3, 6048, Note_on_c, 0, 56, 0
3, 6048, Note_on_c, 0, 51, 30
3, 6072, Note_on_c, 0, 51, 0
3, 6072, Note_on_c, 0, 56, 30
3, 6096, Note_on_c, 0, 56, 0
3, 6096, Note_on_c, 0, 60, 30
3, 6120, Note_on_c, 0, 58, 30
3, 6142, Note_on_c, 0, 60, 0
3, 6144, Note_on_c, 0, 58, 0
3, 6144, Note_on_c, 0, 51, 30
3, 6168, Note_on_c, 0, 51, 0
3, 6168, Note_on_c, 0, 58, 30
3, 6192, Note_on_c, 0, 58, 0
3, 6192, Note_on_c, 0, 61, 30
3, 6216, Note_on_c, 0, 61, 0
3, 6216, Note_on_c, 0, 63, 30
3, 6240, Note_on_c, 0, 63, 0
3, 6240, Note_on_c, 0, 44, 44
3, 6256, Note_on_c, 0, 44, 0
3, 6256, Note_on_c, 0, 51, 47
3, 6272, Note_on_c, 0, 51, 0
3, 6272, Note_on_c, 0, 56, 50
3, 6288, Note_on_c, 0, 56, 0
3, 6288, Note_on_c, 0, 60, 52
3, 6324, Note_on_c, 0, 60, 0
3, 6324, Note_on_c, 0, 56, 46
3, 6336, Note_on_c, 0, 56, 0
3, 6336, Note_on_c, 0, 45, 54
3, 6384, Note_on_c, 0, 45, 0
3, 6384, Note_on_c, 0, 51, 50
3, 6400, Note_on_c, 0, 51, 0
3, 6400, Note_on_c, 0, 55, 54
3, 6416, Note_on_c, 0, 55, 0
3, 6416, Note_on_c, 0, 63, 58
3, 6432, Note_on_c, 0, 63, 0
3, 6432, Note_on_c, 0, 61, 52
3, 6478, Note_on_c, 0, 61, 0
3, 6480, Note_on_c, 0, 44, 48
3, 6496, Note_on_c, 0, 44, 0
3, 6496, Note_on_c, 0, 51, 52
3, 6512, Note_on_c, 0, 51, 0
3, 6512, Note_on_c, 0, 56, 56
3, 6526, Note_on_c, 0, 56, 0
3, 6528, Note_on_c, 0, 60, 56
3, 6598, Note_on_c, 0, 60, 0
3, 6600, Note_on_c, 0, 56, 54
3, 6622, Note_on_c, 0, 56, 0
3, 6624, Note_on_c, 0, 39, 50
3, 6670, Note_on_c, 0, 39, 0
3, 6672, Note_on_c, 0, 51, 48
3, 6688, Note_on_c, 0, 51, 0
3, 6688, Note_on_c, 0, 55, 52
3, 6704, Note_on_c, 0, 55, 0
3, 6704, Note_on_c, 0, 60, 56
3, 6718, Note_on_c, 0, 60, 0
3, 6720, Note_on_c, 0, 58, 50
3, 6766, Note_on_c, 0, 58, 0
3, 6768, Note_on_c, 0, 44, 48
3, 6784, Note_on_c, 0, 44, 0
3, 6784, Note_on_c, 0, 51, 52
3, 6800, Note_on_c, 0, 51, 0
3, 6800, Note_on_c, 0, 56, 56
3, 6814, Note_on_c, 0, 56, 0
3, 6816, Note_on_c, 0, 60, 56
3, 6886, Note_on_c, 0, 60, 0
3, 6888, Note_on_c, 0, 56, 54
3, 6910, Note_on_c, 0, 56, 0
3, 6912, Note_on_c, 0, 45, 48
3, 6960, Note_on_c, 0, 45, 0
3, 6960, Note_on_c, 0, 51, 46
3, 6976, Note_on_c, 0, 51, 0
3, 6976, Note_on_c, 0, 55, 50
3, 6992, Note_on_c, 0, 55, 0
3, 6992, Note_on_c, 0, 63, 54
3, 7008, Note_on_c, 0, 63, 0
3, 7008, Note_on_c, 0, 61, 48
3, 7054, Note_on_c, 0, 61, 0
3, 7056, Note_on_c, 0, 44, 46
3, 7072, Note_on_c, 0, 44, 0
3, 7072, Note_on_c, 0, 51, 50
3, 7088, Note_on_c, 0, 51, 0
3, 7088, Note_on_c, 0, 56, 54
3, 7102, Note_on_c, 0, 56, 0
3, 7104, Note_on_c, 0, 60, 54
3, 7174, Note_on_c, 0, 60, 0
3, 7176, Note_on_c, 0, 56, 52
3, 7198, Note_on_c, 0, 56, 0
3, 7200, Note_on_c, 0, 39, 46
3, 7246, Note_on_c, 0, 39, 0
3, 7248, Note_on_c, 0, 51, 44
3, 7264, Note_on_c, 0, 51, 0
3, 7264, Note_on_c, 0, 55, 48
3, 7280, Note_on_c, 0, 55, 0
3, 7280, Note_on_c, 0, 60, 52
3, 7294, Note_on_c, 0, 60, 0
3, 7296, Note_on_c, 0, 58, 48
3, 7342, Note_on_c, 0, 58, 0
3, 7344, Note_on_c, 0, 44, 44
3, 7360, Note_on_c, 0, 44, 0
3, 7360, Note_on_c, 0, 51, 48
3, 7376, Note_on_c, 0, 51, 0
3, 7376, Note_on_c, 0, 56, 52
3, 7390, Note_on_c, 0, 56, 0
3, 7392, Note_on_c, 0, 60, 52
3, 7462, Note_on_c, 0, 60, 0
3, 7464, Note_on_c, 0, 56, 50
3, 7486, Note_on_c, 0, 56, 0
3, 7488, Note_on_c, 0, 39, 44
3, 7534, Note_on_c, 0, 39, 0
3, 7536, Note_on_c, 0, 51, 42
3, 7552, Note_on_c, 0, 51, 0
3, 7552, Note_on_c, 0, 55, 46
3, 7568, Note_on_c, 0, 55, 0
3, 7568, Note_on_c, 0, 60, 50
3, 7582, Note_on_c, 0, 60, 0
3, 7584, Note_on_c, 0, 58, 46
3, 7630, Note_on_c, 0, 58, 0
3, 7632, Note_on_c, 0, 44, 42
3, 7648, Note_on_c, 0, 44, 0
3, 7648, Note_on_c, 0, 51, 46
3, 7664, Note_on_c, 0, 51, 0
3, 7664, Note_on_c, 0, 56, 50
3, 7678, Note_on_c, 0, 56, 0
3, 7680, Note_on_c, 0, 60, 50
3, 7750, Note_on_c, 0, 60, 0
3, 7752, Note_on_c, 0, 56, 48
3, 7774, Note_on_c, 0, 56, 0
3, 7776, Note_on_c, 0, 39, 50
3, 7822, Note_on_c, 0, 39, 0
3, 7824, Note_on_c, 0, 51, 40
3, 7840, Note_on_c, 0, 51, 0
3, 7840, Note_on_c, 0, 55, 44
3, 7856, Note_on_c, 0, 55, 0
3, 7856, Note_on_c, 0, 60, 46
3, 7870, Note_on_c, 0, 60, 0
3, 7872, Note_on_c, 0, 58, 40
3, 7918, Note_on_c, 0, 58, 0
3, 7920, Note_on_c, 0, 32, 54
3, 7966, Note_on_c, 0, 32, 0
3, 8304, Note_on_c, 0, 49, 30
3, 8328, Note_on_c, 0, 49, 0
3, 8328, Note_on_c, 0, 56, 30
3, 8352, Note_on_c, 0, 64, 38
3, 8376, Note_on_c, 0, 64, 0
3, 8376, Note_on_c, 0, 56, 0
3, 8376, Note_on_c, 0, 61, 36
3, 8400, Note_on_c, 0, 61, 0
3, 8400, Note_on_c, 0, 49, 30
3, 8424, Note_on_c, 0, 49, 0
3, 8424, Note_on_c, 0, 54, 30
3, 8448, Note_on_c, 0, 63, 38
3, 8472, Note_on_c, 0, 63, 0
3, 8472, Note_on_c, 0, 54, 0
3, 8472, Note_on_c, 0, 61, 36
3, 8496, Note_on_c, 0, 61, 0
3, 8496, Note_on_c, 0, 49, 34
3, 8520, Note_on_c, 0, 49, 0
3, 8520, Note_on_c, 0, 56, 34
3, 8544, Note_on_c, 0, 64, 42
3, 8568, Note_on_c, 0, 64, 0
3, 8568, Note_on_c, 0, 56, 0
3, 8568, Note_on_c, 0, 61, 40
3, 8592, Note_on_c, 0, 61, 0
3, 8592, Note_on_c, 0, 49, 38
3, 8616, Note_on_c, 0, 49, 0
3, 8616, Note_on_c, 0, 56, 38
3, 8640, Note_on_c, 0, 64, 46
3, 8664, Note_on_c, 0, 64, 0
3, 8664, Note_on_c, 0, 56, 0
3, 8664, Note_on_c, 0, 61, 44
3, 8688, Note_on_c, 0, 61, 0
3, 8688, Note_on_c, 0, 49, 40
3, 8712, Note_on_c, 0, 49, 0
3, 8712, Note_on_c, 0, 56, 40
3, 8736, Note_on_c, 0, 56, 0
3, 8736, Note_on_c, 0, 65, 48
3, 8760, Note_on_c, 0, 65, 0
3, 8760, Note_on_c, 0, 59, 44
3, 8784, Note_on_c, 0, 59, 0
3, 8784, Note_on_c, 0, 49, 42
3, 8811, Note_on_c, 0, 49, 0
3, 8811, Note_on_c, 0, 56, 42
3, 8834, Note_on_c, 0, 56, 0
3, 8834, Note_on_c, 0, 65, 50
3, 8857, Note_on_c, 0, 65, 0
3, 8857, Note_on_c, 0, 59, 48
3, 8880, Note_on_c, 0, 59, 0
3, 8880, Note_on_c, 0, 42, 46
3, 8904, Note_on_c, 0, 42, 0
3, 8904, Note_on_c, 0, 49, 45
3, 8928, Note_on_c, 0, 49, 0
3, 8928, Note_on_c, 0, 57, 52
3, 8952, Note_on_c, 0, 57, 0
3, 8952, Note_on_c, 0, 54, 46
3, 8976, Note_on_c, 0, 54, 0
3, 8976, Note_on_c, 0, 42, 48
3, 9000, Note_on_c, 0, 42, 0
3, 9000, Note_on_c, 0, 49, 48
3, 9024, Note_on_c, 0, 49, 0
3, 9024, Note_on_c, 0, 57, 56
3, 9048, Note_on_c, 0, 57, 0
3, 9048, Note_on_c, 0, 54, 48
3, 9072, Note_on_c, 0, 54, 0
3, 9072, Note_on_c, 0, 48, 46
3, 9096, Note_on_c, 0, 48, 0
3, 9096, Note_on_c, 0, 56, 46
3, 9120, Note_on_c, 0, 56, 0
3, 9120, Note_on_c, 0, 66, 52
3, 9144, Note_on_c, 0, 66, 0
3, 9144, Note_on_c, 0, 63, 46
3, 9168, Note_on_c, 0, 63, 0
3, 9168, Note_on_c, 0, 48, 46
3, 9192, Note_on_c, 0, 48, 0
3, 9192, Note_on_c, 0, 56, 46
3, 9216, Note_on_c, 0, 56, 0
3, 9216, Note_on_c, 0, 66, 52
3, 9240, Note_on_c, 0, 66, 0
3, 9240, Note_on_c, 0, 63, 46
3, 9264, Note_on_c, 0, 63, 0
3, 9264, Note_on_c, 0, 49, 46
3, 9287, Note_on_c, 0, 49, 0
3, 9287, Note_on_c, 0, 56, 46
3, 9312, Note_on_c, 0, 56, 0
3, 9312, Note_on_c, 0, 64, 54
3, 9336, Note_on_c, 0, 64, 0
3, 9336, Note_on_c, 0, 61, 46
3, 9360, Note_on_c, 0, 61, 0
3, 9360, Note_on_c, 0, 45, 42
3, 9384, Note_on_c, 0, 45, 0
3, 9384, Note_on_c, 0, 51, 42
3, 9408, Note_on_c, 0, 51, 0
3, 9408, Note_on_c, 0, 61, 48
3, 9432, Note_on_c, 0, 61, 0
3, 9432, Note_on_c, 0, 54, 42
3, 9456, Note_on_c, 0, 54, 0
3, 9456, Note_on_c, 0, 44, 40
3, 9480, Note_on_c, 0, 44, 0
3, 9480, Note_on_c, 0, 51, 40
3, 9504, Note_on_c, 0, 51, 0
3, 9504, Note_on_c, 0, 61, 46
3, 9528, Note_on_c, 0, 61, 0
3, 9528, Note_on_c, 0, 54, 43
3, 9552, Note_on_c, 0, 54, 0
3, 9552, Note_on_c, 0, 44, 48
3, 9576, Note_on_c, 0, 44, 0
3, 9576, Note_on_c, 0, 51, 50
3, 9600, Note_on_c, 0, 51, 0
3, 9600, Note_on_c, 0, 60, 56
3, 9624, Note_on_c, 0, 60, 0
3, 9624, Note_on_c, 0, 56, 46
3, 9648, Note_on_c, 0, 56, 0
3, 9648, Note_on_c, 0, 43, 46
3, 9672, Note_on_c, 0, 43, 0
3, 9672, Note_on_c, 0, 52, 48
3, 9696, Note_on_c, 0, 52, 0
3, 9696, Note_on_c, 0, 61, 50
3, 9720, Note_on_c, 0, 61, 0
3, 9720, Note_on_c, 0, 58, 46
3, 9744, Note_on_c, 0, 58, 0
3, 9744, Note_on_c, 0, 43, 42
3, 9768, Note_on_c, 0, 43, 0
3, 9768, Note_on_c, 0, 51, 44
3, 9792, Note_on_c, 0, 51, 0
3, 9792, Note_on_c, 0, 61, 46
3, 9816, Note_on_c, 0, 61, 0
3, 9816, Note_on_c, 0, 58, 42
3, 9840, Note_on_c, 0, 58, 0
3, 9840, Note_on_c, 0, 44, 38
3, 9864, Note_on_c, 0, 44, 0
3, 9864, Note_on_c, 0, 51, 36
3, 9888, Note_on_c, 0, 51, 0
3, 9888, Note_on_c, 0, 60, 40
3, 9912, Note_on_c, 0, 60, 0
3, 9912, Note_on_c, 0, 54, 34
3, 9936, Note_on_c, 0, 54, 0
3, 9936, Note_on_c, 0, 48, 36
3, 9960, Note_on_c, 0, 48, 0
3, 9960, Note_on_c, 0, 54, 34
3, 9984, Note_on_c, 0, 54, 0
3, 9984, Note_on_c, 0, 63, 38
3, 10008, Note_on_c, 0, 63, 0
3, 10008, Note_on_c, 0, 56, 32
3, 10032, Note_on_c, 0, 56, 0
3, 10032, Note_on_c, 0, 49, 32
3, 10056, Note_on_c, 0, 49, 0
3, 10056, Note_on_c, 0, 52, 32
3, 10080, Note_on_c, 0, 52, 0
3, 10080, Note_on_c, 0, 61, 38
3, 10104, Note_on_c, 0, 61, 0
3, 10104, Note_on_c, 0, 56, 32
3, 10128, Note_on_c, 0, 56, 0
3, 10128, Note_on_c, 0, 45, 32
3, 10152, Note_on_c, 0, 45, 0
3, 10152, Note_on_c, 0, 51, 32
3, 10176, Note_on_c, 0, 51, 0
3, 10176, Note_on_c, 0, 61, 36
3, 10200, Note_on_c, 0, 61, 0
3, 10200, Note_on_c, 0, 54, 30
3, 10224, Note_on_c, 0, 54, 0
3, 10224, Note_on_c, 0, 44, 32
3, 10248, Note_on_c, 0, 44, 0
3, 10248, Note_on_c, 0, 51, 32
3, 10272, Note_on_c, 0, 51, 0
3, 10272, Note_on_c, 0, 61, 38
3, 10296, Note_on_c, 0, 61, 0
3, 10296, Note_on_c, 0, 54, 32
3, 10320, Note_on_c, 0, 54, 0
3, 10320, Note_on_c, 0, 44, 32
3, 10344, Note_on_c, 0, 44, 0
3, 10344, Note_on_c, 0, 51, 32
3, 10368, Note_on_c, 0, 51, 0
3, 10368, Note_on_c, 0, 60, 38
3, 10392, Note_on_c, 0, 60, 0
3, 10392, Note_on_c, 0, 54, 32
3, 10416, Note_on_c, 0, 54, 0
3, 10416, Note_on_c, 0, 49, 28
3, 10440, Note_on_c, 0, 49, 0
3, 10440, Note_on_c, 0, 56, 36
3, 10464, Note_on_c, 0, 56, 0
3, 10464, Note_on_c, 0, 64, 36
3, 10488, Note_on_c, 0, 64, 0
3, 10488, Note_on_c, 0, 61, 34
3, 10512, Note_on_c, 0, 61, 0
3, 10512, Note_on_c, 0, 49, 28
3, 10539, Note_on_c, 0, 49, 0
3, 10539, Note_on_c, 0, 54, 36
3, 10566, Note_on_c, 0, 54, 0
3, 10566, Note_on_c, 0, 63, 38
3, 10593, Note_on_c, 0, 63, 0
3, 10593, Note_on_c, 0, 61, 36
3, 10620, Note_on_c, 0, 61, 0
3, 10620, Note_on_c, 0, 49, 28
3, 10644, Note_on_c, 0, 49, 0
3, 10644, Note_on_c, 0, 56, 36
3, 10668, Note_on_c, 0, 56, 0
3, 10668, Note_on_c, 0, 64, 36
3, 10692, Note_on_c, 0, 64, 0
3, 10692, Note_on_c, 0, 61, 34
3, 10716, Note_on_c, 0, 61, 0
3, 10716, Note_on_c, 0, 49, 28
3, 10751, Note_on_c, 0, 49, 0
3, 10751, Note_on_c, 0, 54, 36
3, 10786, Note_on_c, 0, 54, 0
3, 10786, Note_on_c, 0, 63, 38
3, 10821, Note_on_c, 0, 63, 0
3, 10821, Note_on_c, 0, 61, 36
3, 10856, Note_on_c, 0, 61, 0
3, 10856, Note_on_c, 0, 49, 28
3, 10880, Note_on_c, 0, 49, 0
3, 10880, Note_on_c, 0, 56, 36
3, 10904, Note_on_c, 0, 56, 0
3, 10904, Note_on_c, 0, 64, 36
3, 10928, Note_on_c, 0, 64, 0
3, 10928, Note_on_c, 0, 61, 34
3, 10952, Note_on_c, 0, 61, 0
3, 10952, Note_on_c, 0, 49, 28
3, 10974, Note_on_c, 0, 49, 0
3, 10974, Note_on_c, 0, 54, 36
3, 10996, Note_on_c, 0, 54, 0
3, 10996, Note_on_c, 0, 63, 38
3, 11018, Note_on_c, 0, 63, 0
3, 11018, Note_on_c, 0, 61, 36
3, 11040, Note_on_c, 0, 61, 0
3, 11040, Note_on_c, 0, 49, 28
3, 11064, Note_on_c, 0, 49, 0
3, 11064, Note_on_c, 0, 56, 36
3, 11088, Note_on_c, 0, 56, 0
3, 11088, Note_on_c, 0, 64, 36
3, 11112, Note_on_c, 0, 64, 0
3, 11112, Note_on_c, 0, 61, 34
3, 11136, Note_on_c, 0, 61, 0
3, 11136, Note_on_c, 0, 49, 28
3, 11162, Note_on_c, 0, 49, 0
3, 11162, Note_on_c, 0, 54, 32
3, 11188, Note_on_c, 0, 54, 0
3, 11188, Note_on_c, 0, 63, 34
3, 11214, Note_on_c, 0, 63, 0
3, 11214, Note_on_c, 0, 61, 30
3, 11240, Note_on_c, 0, 61, 0
3, 11240, Note_on_c, 0, 49, 24
3, 11264, Note_on_c, 0, 49, 0
3, 11264, Note_on_c, 0, 56, 30
3, 11288, Note_on_c, 0, 56, 0
3, 11288, Note_on_c, 0, 64, 34
3, 11312, Note_on_c, 0, 64, 0
3, 11312, Note_on_c, 0, 61, 30
3, 11336, Note_on_c, 0, 61, 0
3, 11336, Note_on_c, 0, 49, 24
3, 11360, Note_on_c, 0, 49, 0
3, 11360, Note_on_c, 0, 54, 30
3, 11384, Note_on_c, 0, 54, 0
3, 11384, Note_on_c, 0, 63, 34
3, 11408, Note_on_c, 0, 63, 0
3, 11408, Note_on_c, 0, 61, 30
3, 11432, Note_on_c, 0, 61, 0
3, 11432, Note_on_c, 0, 49, 24
3, 11456, Note_on_c, 0, 49, 0
3, 11456, Note_on_c, 0, 56, 30
3, 11480, Note_on_c, 0, 56, 0
3, 11480, Note_on_c, 0, 64, 34
3, 11504, Note_on_c, 0, 64, 0
3, 11504, Note_on_c, 0, 61, 30
3, 11528, Note_on_c, 0, 61, 0
3, 11528, Note_on_c, 0, 49, 24
3, 11552, Note_on_c, 0, 49, 0
3, 11552, Note_on_c, 0, 54, 28
3, 11576, Note_on_c, 0, 54, 0
3, 11576, Note_on_c, 0, 63, 32
3, 11600, Note_on_c, 0, 63, 0
3, 11600, Note_on_c, 0, 61, 26
3, 11624, Note_on_c, 0, 61, 0
3, 11624, Note_on_c, 0, 49, 22
3, 11648, Note_on_c, 0, 49, 0
3, 11648, Note_on_c, 0, 56, 34
3, 11672, Note_on_c, 0, 56, 0
3, 11672, Note_on_c, 0, 65, 32
3, 11696, Note_on_c, 0, 65, 0
3, 11696, Note_on_c, 0, 61, 30
3, 11720, Note_on_c, 0, 61, 0
3, 11720, Note_on_c, 0, 56, 28
3, 11744, Note_on_c, 0, 56, 0
3, 11744, Note_on_c, 0, 53, 26
3, 11768, Note_on_c, 0, 53, 0
3, 11768, Note_on_c, 0, 49, 24
3, 11792, Note_on_c, 0, 49, 0
3, 11792, Note_on_c, 0, 44, 22
3, 11814, Note_on_c, 0, 44, 0
3, 11816, Note_on_c, 0, 37, 18
3, 12006, Note_on_c, 0, 37, 0
3, 12008, End_track
4, 0, Start_track
4, 0, Title_t, "PEDAL"
4, 0, MIDI_port, 0
4, 192, Control_c, 0, 64, 127
4, 266, Control_c, 0, 64, 0
4, 272, Control_c, 0, 64, 127
4, 290, Control_c, 0, 64, 0
4, 296, Control_c, 0, 64, 127
4, 362, Control_c, 0, 64, 0
4, 368, Control_c, 0, 64, 127
4, 384, Control_c, 0, 64, 127
4, 386, Control_c, 0, 64, 0
4, 392, Control_c, 0, 64, 127
4, 434, Control_c, 0, 64, 0
4, 440, Control_c, 0, 64, 127
4, 530, Control_c, 0, 64, 0
4, 576, Control_c, 0, 64, 127
4, 650, Control_c, 0, 64, 0
4, 656, Control_c, 0, 64, 127
4, 674, Control_c, 0, 64, 0
4, 680, Control_c, 0, 64, 127
4, 746, Control_c, 0, 64, 0
4, 752, Control_c, 0, 64, 127
4, 768, Control_c, 0, 64, 127
4, 770, Control_c, 0, 64, 0
4, 776, Control_c, 0, 64, 127
4, 818, Control_c, 0, 64, 0
4, 824, Control_c, 0, 64, 127
4, 914, Control_c, 0, 64, 0
4, 960, Control_c, 0, 64, 127
4, 1058, Control_c, 0, 64, 0
4, 1064, Control_c, 0, 64, 127
4, 1152, Control_c, 0, 64, 127
4, 1154, Control_c, 0, 64, 0
4, 1160, Control_c, 0, 64, 127
4, 1250, Control_c, 0, 64, 0
4, 1256, Control_c, 0, 64, 127
4, 1344, Control_c, 0, 64, 127
4, 1346, Control_c, 0, 64, 0
4, 1352, Control_c, 0, 64, 127
4, 1442, Control_c, 0, 64, 0
4, 1448, Control_c, 0, 64, 127
4, 1536, Control_c, 0, 64, 127
4, 1538, Control_c, 0, 64, 0
4, 1544, Control_c, 0, 64, 127
4, 1634, Control_c, 0, 64, 0
4, 1640, Control_c, 0, 64, 127
4, 1728, Control_c, 0, 64, 127
4, 1730, Control_c, 0, 64, 0
4, 1736, Control_c, 0, 64, 127
4, 1826, Control_c, 0, 64, 0
4, 1832, Control_c, 0, 64, 127
4, 1920, Control_c, 0, 64, 127
4, 1922, Control_c, 0, 64, 0
4, 1928, Control_c, 0, 64, 127
4, 2018, Control_c, 0, 64, 0
4, 2024, Control_c, 0, 64, 127
4, 2112, Control_c, 0, 64, 127
4, 2114, Control_c, 0, 64, 0
4, 2120, Control_c, 0, 64, 127
4, 2210, Control_c, 0, 64, 0
4, 2216, Control_c, 0, 64, 127
4, 2304, Control_c, 0, 64, 127
4, 2306, Control_c, 0, 64, 0
4, 2312, Control_c, 0, 64, 127
4, 2402, Control_c, 0, 64, 0
4, 2408, Control_c, 0, 64, 127
4, 2496, Control_c, 0, 64, 127
4, 2498, Control_c, 0, 64, 0
4, 2504, Control_c, 0, 64, 127
4, 2594, Control_c, 0, 64, 0
4, 2600, Control_c, 0, 64, 127
4, 2688, Control_c, 0, 64, 127
4, 2690, Control_c, 0, 64, 0
4, 2696, Control_c, 0, 64, 127
4, 2786, Control_c, 0, 64, 0
4, 2792, Control_c, 0, 64, 127
4, 2880, Control_c, 0, 64, 127
4, 2882, Control_c, 0, 64, 0
4, 2888, Control_c, 0, 64, 127
4, 2978, Control_c, 0, 64, 0
4, 2984, Control_c, 0, 64, 127
4, 3072, Control_c, 0, 64, 127
4, 3074, Control_c, 0, 64, 0
4, 3080, Control_c, 0, 64, 127
4, 3264, Control_c, 0, 64, 127
4, 3266, Control_c, 0, 64, 0
4, 3272, Control_c, 0, 64, 127
4, 3362, Control_c, 0, 64, 0
4, 3368, Control_c, 0, 64, 127
4, 3456, Control_c, 0, 64, 127
4, 3458, Control_c, 0, 64, 0
4, 3464, Control_c, 0, 64, 127
4, 3554, Control_c, 0, 64, 0
4, 3560, Control_c, 0, 64, 127
4, 3648, Control_c, 0, 64, 127
4, 3650, Control_c, 0, 64, 0
4, 3656, Control_c, 0, 64, 127
4, 3746, Control_c, 0, 64, 0
4, 3752, Control_c, 0, 64, 127
4, 3840, Control_c, 0, 64, 127
4, 3842, Control_c, 0, 64, 0
4, 3848, Control_c, 0, 64, 127
4, 3938, Control_c, 0, 64, 0
4, 3944, Control_c, 0, 64, 127
4, 3978, Control_c, 0, 64, 0
4, 3984, Control_c, 0, 64, 127
4, 4002, Control_c, 0, 64, 0
4, 4008, Control_c, 0, 64, 127
4, 4026, Control_c, 0, 64, 0
4, 4032, Control_c, 0, 64, 127
4, 4122, Control_c, 0, 64, 0
4, 4176, Control_c, 0, 64, 127
4, 4224, Control_c, 0, 64, 127
4, 4226, Control_c, 0, 64, 0
4, 4232, Control_c, 0, 64, 127
4, 4322, Control_c, 0, 64, 0
4, 4328, Control_c, 0, 64, 127
4, 4370, Control_c, 0, 64, 0
4, 4376, Control_c, 0, 64, 127
4, 4416, Control_c, 0, 64, 127
4, 4418, Control_c, 0, 64, 0
4, 4424, Control_c, 0, 64, 127
4, 4514, Control_c, 0, 64, 0
4, 4520, Control_c, 0, 64, 127
4, 4608, Control_c, 0, 64, 127
4, 4610, Control_c, 0, 64, 0
4, 4616, Control_c, 0, 64, 127
4, 4658, Control_c, 0, 64, 0
4, 4664, Control_c, 0, 64, 127
4, 4706, Control_c, 0, 64, 0
4, 4712, Control_c, 0, 64, 127
4, 4800, Control_c, 0, 64, 127
4, 4802, Control_c, 0, 64, 0
4, 4808, Control_c, 0, 64, 127
4, 4890, Control_c, 0, 64, 0
4, 4944, Control_c, 0, 64, 127
4, 4992, Control_c, 0, 64, 127
4, 4994, Control_c, 0, 64, 0
4, 5000, Control_c, 0, 64, 127
4, 5090, Control_c, 0, 64, 0
4, 5096, Control_c, 0, 64, 127
4, 5138, Control_c, 0, 64, 0
4, 5144, Control_c, 0, 64, 127
4, 5184, Control_c, 0, 64, 127
4, 5186, Control_c, 0, 64, 0
4, 5192, Control_c, 0, 64, 127
4, 5282, Control_c, 0, 64, 0
4, 5288, Control_c, 0, 64, 127
4, 5376, Control_c, 0, 64, 127
4, 5378, Control_c, 0, 64, 0
4, 5384, Control_c, 0, 64, 127
4, 5426, Control_c, 0, 64, 0
4, 5432, Control_c, 0, 64, 127
4, 5474, Control_c, 0, 64, 0
4, 5480, Control_c, 0, 64, 127
4, 5566, Control_c, 0, 64, 0
4, 5568, Control_c, 0, 64, 127
4, 5618, Control_c, 0, 64, 0
4, 5624, Control_c, 0, 64, 127
4, 5666, Control_c, 0, 64, 0
4, 5672, Control_c, 0, 64, 127
4, 5760, Control_c, 0, 64, 127
4, 5762, Control_c, 0, 64, 0
4, 5768, Control_c, 0, 64, 127
4, 5808, Control_c, 0, 64, 0
4, 5856, Control_c, 0, 64, 127
4, 5952, Control_c, 0, 64, 127
4, 5954, Control_c, 0, 64, 0
4, 5960, Control_c, 0, 64, 127
4, 6002, Control_c, 0, 64, 0
4, 6008, Control_c, 0, 64, 127
4, 6050, Control_c, 0, 64, 0
4, 6056, Control_c, 0, 64, 127
4, 6144, Control_c, 0, 64, 127
4, 6146, Control_c, 0, 64, 0
4, 6152, Control_c, 0, 64, 127
4, 6194, Control_c, 0, 64, 0
4, 6200, Control_c, 0, 64, 127
4, 6242, Control_c, 0, 64, 0
4, 6248, Control_c, 0, 64, 127
4, 6290, Control_c, 0, 64, 0
4, 6296, Control_c, 0, 64, 127
4, 6334, Control_c, 0, 64, 0
4, 7920, Control_c, 0, 64, 127
4, 8112, Control_c, 0, 64, 127
4, 8250, Control_c, 0, 64, 0
4, 8256, Control_c, 0, 64, 127
4, 8304, Control_c, 0, 64, 127
4, 8306, Control_c, 0, 64, 0
4, 8312, Control_c, 0, 64, 127
4, 8402, Control_c, 0, 64, 0
4, 8408, Control_c, 0, 64, 127
4, 8496, Control_c, 0, 64, 127
4, 8498, Control_c, 0, 64, 0
4, 8504, Control_c, 0, 64, 127
4, 8594, Control_c, 0, 64, 0
4, 8600, Control_c, 0, 64, 127
4, 8688, Control_c, 0, 64, 127
4, 8690, Control_c, 0, 64, 0
4, 8696, Control_c, 0, 64, 127
4, 8786, Control_c, 0, 64, 0
4, 8792, Control_c, 0, 64, 127
4, 8880, Control_c, 0, 64, 127
4, 8882, Control_c, 0, 64, 0
4, 8888, Control_c, 0, 64, 127
4, 8978, Control_c, 0, 64, 0
4, 8984, Control_c, 0, 64, 127
4, 9072, Control_c, 0, 64, 127
4, 9074, Control_c, 0, 64, 0
4, 9080, Control_c, 0, 64, 127
4, 9170, Control_c, 0, 64, 0
4, 9176, Control_c, 0, 64, 127
4, 9264, Control_c, 0, 64, 127
4, 9266, Control_c, 0, 64, 0
4, 9272, Control_c, 0, 64, 127
4, 9362, Control_c, 0, 64, 0
4, 9368, Control_c, 0, 64, 127
4, 9456, Control_c, 0, 64, 127
4, 9458, Control_c, 0, 64, 0
4, 9464, Control_c, 0, 64, 127
4, 9554, Control_c, 0, 64, 0
4, 9560, Control_c, 0, 64, 127
4, 9648, Control_c, 0, 64, 127
4, 9650, Control_c, 0, 64, 0
4, 9656, Control_c, 0, 64, 127
4, 9746, Control_c, 0, 64, 0
4, 9752, Control_c, 0, 64, 127
4, 9840, Control_c, 0, 64, 127
4, 9842, Control_c, 0, 64, 0
4, 9848, Control_c, 0, 64, 127
4, 9938, Control_c, 0, 64, 0
4, 9944, Control_c, 0, 64, 127
4, 10032, Control_c, 0, 64, 127
4, 10034, Control_c, 0, 64, 0
4, 10040, Control_c, 0, 64, 127
4, 10130, Control_c, 0, 64, 0
4, 10136, Control_c, 0, 64, 127
4, 10224, Control_c, 0, 64, 127
4, 10226, Control_c, 0, 64, 0
4, 10232, Control_c, 0, 64, 127
4, 10322, Control_c, 0, 64, 0
4, 10328, Control_c, 0, 64, 127
4, 10416, Control_c, 0, 64, 127
4, 10418, Control_c, 0, 64, 0
4, 10424, Control_c, 0, 64, 127
4, 10514, Control_c, 0, 64, 0
4, 10520, Control_c, 0, 64, 127
4, 10620, Control_c, 0, 64, 127
4, 10622, Control_c, 0, 64, 0
4, 10628, Control_c, 0, 64, 127
4, 10718, Control_c, 0, 64, 0
4, 10724, Control_c, 0, 64, 127
4, 10856, Control_c, 0, 64, 127
4, 10858, Control_c, 0, 64, 0
4, 10864, Control_c, 0, 64, 127
4, 10954, Control_c, 0, 64, 0
4, 10960, Control_c, 0, 64, 127
4, 11040, Control_c, 0, 64, 127
4, 11042, Control_c, 0, 64, 0
4, 11048, Control_c, 0, 64, 127
4, 11138, Control_c, 0, 64, 0
4, 11144, Control_c, 0, 64, 127
4, 11192, Control_c, 0, 64, 0
4, 11240, Control_c, 0, 64, 127
4, 11338, Control_c, 0, 64, 0
4, 11344, Control_c, 0, 64, 127
4, 11432, Control_c, 0, 64, 127
4, 11434, Control_c, 0, 64, 0
4, 11440, Control_c, 0, 64, 127
4, 11530, Control_c, 0, 64, 0
4, 11536, Control_c, 0, 64, 127
4, 11624, Control_c, 0, 64, 127
4, 11626, Control_c, 0, 64, 0
4, 11632, Control_c, 0, 64, 127
4, 11816, Control_c, 0, 64, 127
4, 12002, Control_c, 0, 64, 0
4, 12008, End_track
0, 0, End_of_file
