0, 0, Header, 1, 2, 240
1, 0, Start_track
1, 0, Time_signature, 3, 2, 24, 8
1, 0, Tempo, 317460
1, 5040, Time_signature, 2, 2, 24, 8
1, 5520, Time_signature, 1, 2, 24, 8
1, 5760, Time_signature, 3, 2, 24, 8
1, 10800, Time_signature, 2, 2, 24, 8
1, 11280, Time_signature, 1, 2, 24, 8
1, 11520, Time_signature, 3, 2, 24, 8
1, 16560, Time_signature, 2, 2, 24, 8
1, 17040, Time_signature, 1, 2, 24, 8
1, 17280, Time_signature, 3, 2, 24, 8
1, 28080, Time_signature, 2, 2, 24, 8
1, 28560, Time_signature, 1, 2, 24, 8
1, 28800, Time_signature, 3, 2, 24, 8
1, 39600, Time_signature, 2, 2, 24, 8
1, 40080, Time_signature, 1, 2, 24, 8
1, 40320, Time_signature, 3, 2, 24, 8
1, 40320, End_track
2, 0, Start_track
2, 0, Title_t, "Piano"
2, 0, Program_c, 0, 0
2, 0, Control_c, 0, 7, 127
2, 0, Note_on_c, 0, 68, 100
2, 0, Note_on_c, 1, 60, 100
2, 0, Note_on_c, 4, 44, 100
2, 0, Note_on_c, 4, 51, 100
2, 216, Note_off_c, 4, 51, 64
2, 216, Note_off_c, 4, 44, 64
2, 216, Note_off_c, 1, 60, 64
2, 216, Note_off_c, 0, 68, 64
2, 240, Note_on_c, 0, 68, 100
2, 240, Note_on_c, 4, 44, 100
2, 240, Note_on_c, 4, 51, 100
2, 240, Note_on_c, 1, 58, 100
2, 456, Note_off_c, 1, 58, 64
2, 480, Note_on_c, 1, 60, 100
2, 588, Note_off_c, 1, 60, 64
2, 600, Note_on_c, 1, 61, 100
2, 672, Note_off_c, 4, 51, 64
2, 672, Note_off_c, 4, 44, 64
2, 672, Note_off_c, 0, 68, 64
2, 708, Note_off_c, 1, 61, 64
2, 720, Note_on_c, 4, 44, 100
2, 720, Note_on_c, 4, 51, 100
2, 720, Note_on_c, 0, 68, 100
2, 720, Note_on_c, 1, 63, 100
2, 828, Note_off_c, 1, 63, 64
2, 840, Note_on_c, 1, 60, 100
2, 936, Note_off_c, 0, 68, 64
2, 936, Note_off_c, 4, 51, 64
2, 936, Note_off_c, 4, 44, 64
2, 948, Note_off_c, 1, 60, 64
2, 960, Note_on_c, 4, 51, 100
2, 960, Note_on_c, 4, 44, 100
2, 960, Note_on_c, 0, 68, 100
2, 960, Note_on_c, 1, 61, 100
2, 1284, Note_off_c, 1, 61, 64
2, 1320, Note_on_c, 1, 58, 100
2, 1392, Note_off_c, 0, 68, 64
2, 1392, Note_off_c, 4, 44, 64
2, 1392, Note_off_c, 4, 51, 64
2, 1428, Note_off_c, 1, 58, 64
2, 1440, Note_on_c, 0, 68, 100
2, 1440, Note_on_c, 1, 60, 100
2, 1440, Note_on_c, 4, 51, 100
2, 1440, Note_on_c, 4, 44, 100
2, 1512, Note_off_c, 1, 60, 64
2, 1520, Note_on_c, 1, 61, 100
2, 1592, Note_off_c, 1, 61, 64
2, 1600, Note_on_c, 1, 60, 100
2, 1656, Note_off_c, 4, 44, 64
2, 1656, Note_off_c, 4, 51, 64
2, 1656, Note_off_c, 0, 68, 64
2, 1672, Note_off_c, 1, 60, 64
2, 1680, Note_on_c, 0, 68, 100
2, 1680, Note_on_c, 4, 44, 100
2, 1680, Note_on_c, 4, 51, 100
2, 1680, Note_on_c, 1, 58, 100
2, 1896, Note_off_c, 1, 58, 64
2, 1920, Note_on_c, 1, 60, 100
2, 2028, Note_off_c, 1, 60, 64
2, 2040, Note_on_c, 1, 61, 100
2, 2112, Note_off_c, 4, 51, 64
2, 2112, Note_off_c, 4, 44, 64
2, 2112, Note_off_c, 0, 68, 64
2, 2148, Note_off_c, 1, 61, 64
2, 2160, Note_on_c, 4, 51, 100
2, 2160, Note_on_c, 4, 44, 100
2, 2160, Note_on_c, 0, 68, 100
2, 2160, Note_on_c, 1, 61, 100
2, 2232, Note_off_c, 1, 61, 64
2, 2240, Note_on_c, 1, 66, 100
2, 2312, Note_off_c, 1, 66, 64
2, 2320, Note_on_c, 1, 64, 100
2, 2376, Note_off_c, 0, 68, 64
2, 2376, Note_off_c, 4, 44, 64
2, 2376, Note_off_c, 4, 51, 64
2, 2392, Note_off_c, 1, 64, 64
2, 2400, Note_on_c, 4, 51, 100
2, 2400, Note_on_c, 4, 44, 100
2, 2400, Note_on_c, 0, 68, 100
2, 2400, Note_on_c, 1, 63, 100
2, 2832, Note_off_c, 1, 63, 64
2, 2832, Note_off_c, 0, 68, 64
2, 2832, Note_off_c, 4, 44, 64
2, 2832, Note_off_c, 4, 51, 64
2, 2880, Note_on_c, 4, 44, 100
2, 2880, Note_on_c, 0, 68, 100
2, 2880, Note_on_c, 1, 60, 100
2, 2880, Note_on_c, 4, 51, 100
2, 2952, Note_off_c, 1, 60, 64
2, 2960, Note_on_c, 1, 61, 100
2, 3032, Note_off_c, 1, 61, 64
2, 3040, Note_on_c, 1, 60, 100
2, 3096, Note_off_c, 4, 51, 64
2, 3096, Note_off_c, 0, 68, 64
2, 3096, Note_off_c, 4, 44, 64
2, 3112, Note_off_c, 1, 60, 64
2, 3120, Note_on_c, 1, 58, 100
2, 3120, Note_on_c, 0, 68, 100
2, 3120, Note_on_c, 4, 51, 100
2, 3120, Note_on_c, 4, 44, 100
2, 3336, Note_off_c, 4, 44, 64
2, 3336, Note_off_c, 4, 51, 64
2, 3336, Note_off_c, 0, 68, 64
2, 3336, Note_off_c, 1, 58, 64
2, 3360, Note_on_c, 4, 51, 100
2, 3360, Note_on_c, 4, 44, 100
2, 3360, Note_on_c, 0, 68, 100
2, 3360, Note_on_c, 1, 60, 100
2, 3468, Note_off_c, 1, 60, 64
2, 3480, Note_on_c, 1, 61, 100
2, 3576, Note_off_c, 0, 68, 64
2, 3576, Note_off_c, 4, 44, 64
2, 3576, Note_off_c, 4, 51, 64
2, 3588, Note_off_c, 1, 61, 64
2, 3600, Note_on_c, 0, 68, 100
2, 3600, Note_on_c, 1, 63, 100
2, 3600, Note_on_c, 4, 51, 100
2, 3600, Note_on_c, 4, 44, 100
2, 3708, Note_off_c, 1, 63, 64
2, 3720, Note_on_c, 1, 60, 100
2, 3774, Note_off_c, 1, 60, 64
2, 3780, Note_on_c, 1, 63, 100
2, 3816, Note_off_c, 4, 44, 64
2, 3816, Note_off_c, 4, 51, 64
2, 3816, Note_off_c, 0, 68, 64
2, 3834, Note_off_c, 1, 63, 64
2, 3840, Note_on_c, 1, 61, 100
2, 3840, Note_on_c, 0, 68, 100
2, 3840, Note_on_c, 4, 51, 100
2, 3840, Note_on_c, 4, 44, 100
2, 3948, Note_off_c, 1, 61, 64
2, 3960, Note_on_c, 1, 60, 100
2, 4056, Note_off_c, 4, 44, 64
2, 4056, Note_off_c, 4, 51, 64
2, 4056, Note_off_c, 0, 68, 64
2, 4068, Note_off_c, 1, 60, 64
2, 4080, Note_on_c, 4, 51, 100
2, 4080, Note_on_c, 4, 44, 100
2, 4080, Note_on_c, 0, 68, 100
2, 4080, Note_on_c, 1, 61, 100
2, 4188, Note_off_c, 1, 61, 64
2, 4200, Note_on_c, 1, 58, 100
2, 4296, Note_off_c, 0, 68, 64
2, 4296, Note_off_c, 4, 44, 64
2, 4296, Note_off_c, 4, 51, 64
2, 4308, Note_off_c, 1, 58, 64
2, 4320, Note_on_c, 4, 44, 100
2, 4320, Note_on_c, 0, 68, 100
2, 4320, Note_on_c, 1, 60, 100
2, 4320, Note_on_c, 4, 51, 100
2, 4392, Note_off_c, 1, 60, 64
2, 4400, Note_on_c, 1, 61, 100
2, 4472, Note_off_c, 1, 61, 64
2, 4480, Note_on_c, 1, 60, 100
2, 4536, Note_off_c, 4, 51, 64
2, 4536, Note_off_c, 0, 68, 64
2, 4536, Note_off_c, 4, 44, 64
2, 4552, Note_off_c, 1, 60, 64
2, 4560, Note_on_c, 1, 58, 100
2, 4560, Note_on_c, 0, 68, 100
2, 4560, Note_on_c, 4, 44, 100
2, 4560, Note_on_c, 4, 51, 100
2, 4776, Note_off_c, 4, 51, 64
2, 4776, Note_off_c, 4, 44, 64
2, 4776, Note_off_c, 0, 68, 64
2, 4776, Note_off_c, 1, 58, 64
2, 4800, Note_on_c, 4, 51, 100
2, 4800, Note_on_c, 4, 44, 100
2, 4800, Note_on_c, 0, 68, 100
2, 4800, Note_on_c, 0, 59, 100
2, 4908, Note_off_c, 0, 59, 64
2, 4908, Note_off_c, 0, 68, 64
2, 4920, Note_on_c, 0, 61, 100
2, 4920, Note_on_c, 0, 68, 100
2, 5016, Note_off_c, 4, 44, 64
2, 5016, Note_off_c, 4, 51, 64
2, 5028, Note_off_c, 0, 68, 64
2, 5028, Note_off_c, 0, 61, 64
2, 5040, Note_on_c, 4, 44, 100
2, 5040, Note_on_c, 4, 51, 100
2, 5040, Note_on_c, 0, 63, 100
2, 5040, Note_on_c, 0, 68, 100
2, 5112, Note_off_c, 0, 68, 64
2, 5112, Note_off_c, 0, 63, 64
2, 5120, Note_on_c, 0, 66, 100
2, 5120, Note_on_c, 0, 68, 100
2, 5192, Note_off_c, 0, 68, 64
2, 5192, Note_off_c, 0, 66, 64
2, 5200, Note_on_c, 0, 68, 100
2, 5200, Note_on_c, 0, 64, 100
2, 5256, Note_off_c, 4, 51, 64
2, 5256, Note_off_c, 4, 44, 64
2, 5272, Note_off_c, 0, 64, 64
2, 5272, Note_off_c, 0, 68, 64
2, 5280, Note_on_c, 4, 44, 100
2, 5280, Note_on_c, 4, 51, 100
2, 5280, Note_on_c, 0, 63, 100
2, 5280, Note_on_c, 0, 68, 100
2, 5496, Note_off_c, 0, 68, 64
2, 5496, Note_off_c, 0, 63, 64
2, 5496, Note_off_c, 4, 51, 64
2, 5496, Note_off_c, 4, 44, 64
2, 5520, Note_on_c, 0, 68, 100
2, 5736, Note_off_c, 0, 68, 64
2, 5760, Note_on_c, 4, 48, 100
2, 5760, Note_on_c, 0, 80, 100
2, 5868, Note_off_c, 0, 80, 64
2, 5940, Note_on_c, 0, 81, 100
2, 5976, Note_off_c, 4, 48, 64
2, 5994, Note_off_c, 0, 81, 64
2, 6000, Note_on_c, 4, 66, 100
2, 6000, Note_on_c, 4, 56, 100
2, 6000, Note_on_c, 4, 63, 100
2, 6000, Note_on_c, 0, 78, 100
2, 6216, Note_off_c, 4, 63, 64
2, 6216, Note_off_c, 4, 56, 64
2, 6216, Note_off_c, 4, 66, 64
2, 6240, Note_on_c, 4, 56, 100
2, 6240, Note_on_c, 4, 66, 100
2, 6240, Note_on_c, 4, 63, 100
2, 6324, Note_off_c, 0, 78, 64
2, 6360, Note_on_c, 0, 80, 100
2, 6456, Note_off_c, 4, 63, 64
2, 6456, Note_off_c, 4, 66, 64
2, 6456, Note_off_c, 4, 56, 64
2, 6468, Note_off_c, 0, 80, 64
2, 6480, Note_on_c, 4, 49, 100
2, 6480, Note_on_c, 0, 76, 100
2, 6642, Note_off_c, 0, 76, 64
2, 6660, Note_on_c, 0, 80, 100
2, 6696, Note_off_c, 4, 49, 64
2, 6714, Note_off_c, 0, 80, 64
2, 6720, Note_on_c, 4, 64, 100
2, 6720, Note_on_c, 4, 61, 100
2, 6720, Note_on_c, 4, 56, 100
2, 6720, Note_on_c, 0, 73, 100
2, 6936, Note_off_c, 0, 73, 64
2, 6936, Note_off_c, 4, 56, 64
2, 6936, Note_off_c, 4, 61, 64
2, 6936, Note_off_c, 4, 64, 64
2, 6960, Note_on_c, 4, 56, 100
2, 6960, Note_on_c, 4, 61, 100
2, 6960, Note_on_c, 4, 64, 100
2, 6960, Note_on_c, 0, 76, 100
2, 7176, Note_off_c, 0, 76, 64
2, 7176, Note_off_c, 4, 64, 64
2, 7176, Note_off_c, 4, 61, 64
2, 7176, Note_off_c, 4, 56, 64
2, 7200, Note_on_c, 4, 48, 100
2, 7200, Note_on_c, 0, 80, 100
2, 7308, Note_off_c, 0, 80, 64
2, 7380, Note_on_c, 0, 81, 100
2, 7416, Note_off_c, 4, 48, 64
2, 7434, Note_off_c, 0, 81, 64
2, 7440, Note_on_c, 4, 66, 100
2, 7440, Note_on_c, 4, 63, 100
2, 7440, Note_on_c, 4, 56, 100
2, 7440, Note_on_c, 0, 78, 100
2, 7656, Note_off_c, 0, 78, 64
2, 7656, Note_off_c, 4, 56, 64
2, 7656, Note_off_c, 4, 63, 64
2, 7656, Note_off_c, 4, 66, 64
2, 7680, Note_on_c, 4, 56, 100
2, 7680, Note_on_c, 4, 63, 100
2, 7680, Note_on_c, 4, 66, 100
2, 7680, Note_on_c, 0, 80, 100
2, 7896, Note_off_c, 0, 80, 64
2, 7896, Note_off_c, 4, 66, 64
2, 7896, Note_off_c, 4, 63, 64
2, 7896, Note_off_c, 4, 56, 64
2, 7920, Note_on_c, 4, 49, 100
2, 7920, Note_on_c, 0, 76, 100
2, 7992, Note_off_c, 0, 76, 64
2, 8000, Note_on_c, 0, 78, 100
2, 8072, Note_off_c, 0, 78, 64
2, 8080, Note_on_c, 0, 80, 100
2, 8116, Note_off_c, 0, 80, 64
2, 8120, Note_on_c, 0, 80, 100
2, 8136, Note_off_c, 4, 49, 64
2, 8156, Note_off_c, 0, 80, 64
2, 8160, Note_on_c, 4, 61, 100
2, 8160, Note_on_c, 4, 64, 100
2, 8160, Note_on_c, 4, 56, 100
2, 8160, Note_on_c, 0, 73, 100
2, 8376, Note_off_c, 4, 56, 64
2, 8376, Note_off_c, 4, 64, 64
2, 8376, Note_off_c, 4, 61, 64
2, 8484, Note_off_c, 0, 73, 64
2, 8520, Note_on_c, 0, 74, 100
2, 8628, Note_off_c, 0, 74, 64
2, 8640, Note_on_c, 4, 43, 100
2, 8640, Note_on_c, 0, 75, 100
2, 8748, Note_off_c, 0, 75, 64
2, 8820, Note_on_c, 0, 76, 100
2, 8856, Note_off_c, 4, 43, 64
2, 8874, Note_off_c, 0, 76, 64
2, 8880, Note_on_c, 4, 51, 100
2, 8880, Note_on_c, 4, 58, 100
2, 8880, Note_on_c, 4, 61, 100
2, 8880, Note_on_c, 0, 73, 100
2, 9096, Note_off_c, 4, 61, 64
2, 9096, Note_off_c, 4, 58, 64
2, 9096, Note_off_c, 4, 51, 64
2, 9120, Note_on_c, 4, 51, 100
2, 9120, Note_on_c, 4, 58, 100
2, 9120, Note_on_c, 4, 61, 100
2, 9204, Note_off_c, 0, 73, 64
2, 9240, Note_on_c, 0, 75, 100
2, 9336, Note_off_c, 4, 61, 64
2, 9336, Note_off_c, 4, 58, 64
2, 9336, Note_off_c, 4, 51, 64
2, 9348, Note_off_c, 0, 75, 64
2, 9360, Note_on_c, 0, 72, 100
2, 9360, Note_on_c, 4, 44, 100
2, 9522, Note_off_c, 0, 72, 64
2, 9540, Note_on_c, 0, 75, 100
2, 9576, Note_off_c, 4, 44, 64
2, 9594, Note_off_c, 0, 75, 64
2, 9600, Note_on_c, 4, 54, 100
2, 9600, Note_on_c, 0, 68, 100
2, 9600, Note_on_c, 4, 51, 100
2, 9600, Note_on_c, 4, 60, 100
2, 9816, Note_off_c, 4, 60, 64
2, 9816, Note_off_c, 4, 51, 64
2, 9816, Note_off_c, 0, 68, 64
2, 9816, Note_off_c, 4, 54, 64
2, 9840, Note_on_c, 4, 60, 100
2, 9840, Note_on_c, 4, 54, 100
2, 9840, Note_on_c, 4, 51, 100
2, 9840, Note_on_c, 0, 69, 100
2, 9876, Note_off_c, 0, 69, 64
2, 9880, Note_on_c, 0, 71, 100
2, 9916, Note_off_c, 0, 71, 64
2, 9920, Note_on_c, 0, 69, 100
2, 9956, Note_off_c, 0, 69, 64
2, 9960, Note_on_c, 0, 71, 100
2, 10014, Note_off_c, 0, 71, 64
2, 10020, Note_on_c, 0, 69, 100
2, 10056, Note_off_c, 4, 51, 64
2, 10056, Note_off_c, 4, 54, 64
2, 10056, Note_off_c, 4, 60, 64
2, 10074, Note_off_c, 0, 69, 64
2, 10080, Note_on_c, 0, 68, 100
2, 10080, Note_on_c, 4, 44, 100
2, 10188, Note_off_c, 0, 68, 64
2, 10260, Note_on_c, 0, 66, 100
2, 10296, Note_off_c, 4, 44, 64
2, 10314, Note_off_c, 0, 66, 64
2, 10320, Note_on_c, 4, 54, 100
2, 10320, Note_on_c, 0, 63, 100
2, 10320, Note_on_c, 4, 51, 100
2, 10320, Note_on_c, 4, 60, 100
2, 10536, Note_off_c, 4, 60, 64
2, 10536, Note_off_c, 4, 51, 64
2, 10536, Note_off_c, 0, 63, 64
2, 10536, Note_off_c, 4, 54, 64
2, 10560, Note_on_c, 4, 51, 100
2, 10560, Note_on_c, 4, 60, 100
2, 10560, Note_on_c, 4, 54, 100
2, 10560, Note_on_c, 0, 68, 100
2, 10722, Note_off_c, 0, 68, 64
2, 10740, Note_on_c, 0, 68, 100
2, 10776, Note_off_c, 4, 54, 64
2, 10776, Note_off_c, 4, 60, 64
2, 10776, Note_off_c, 4, 51, 64
2, 10794, Note_off_c, 0, 68, 64
2, 10800, Note_on_c, 4, 37, 100
2, 10800, Note_on_c, 0, 61, 100
2, 11016, Note_off_c, 4, 37, 64
2, 11040, Note_on_c, 4, 49, 100
2, 11040, Note_on_c, 4, 56, 100
2, 11040, Note_on_c, 4, 64, 100
2, 11232, Note_off_c, 0, 61, 64
2, 11256, Note_off_c, 4, 64, 64
2, 11256, Note_off_c, 4, 56, 64
2, 11256, Note_off_c, 4, 49, 64
2, 11280, Note_on_c, 0, 68, 100
2, 11496, Note_off_c, 0, 68, 64
2, 11520, Note_on_c, 4, 48, 100
2, 11520, Note_on_c, 0, 80, 100
2, 11628, Note_off_c, 0, 80, 64
2, 11700, Note_on_c, 0, 81, 100
2, 11736, Note_off_c, 4, 48, 64
2, 11754, Note_off_c, 0, 81, 64
2, 11760, Note_on_c, 4, 66, 100
2, 11760, Note_on_c, 4, 56, 100
2, 11760, Note_on_c, 4, 63, 100
2, 11760, Note_on_c, 0, 78, 100
2, 11976, Note_off_c, 4, 63, 64
2, 11976, Note_off_c, 4, 56, 64
2, 11976, Note_off_c, 4, 66, 64
2, 12000, Note_on_c, 4, 56, 100
2, 12000, Note_on_c, 4, 66, 100
2, 12000, Note_on_c, 4, 63, 100
2, 12084, Note_off_c, 0, 78, 64
2, 12120, Note_on_c, 0, 80, 100
2, 12216, Note_off_c, 4, 63, 64
2, 12216, Note_off_c, 4, 66, 64
2, 12216, Note_off_c, 4, 56, 64
2, 12228, Note_off_c, 0, 80, 64
2, 12240, Note_on_c, 4, 49, 100
2, 12240, Note_on_c, 0, 76, 100
2, 12402, Note_off_c, 0, 76, 64
2, 12420, Note_on_c, 0, 80, 100
2, 12456, Note_off_c, 4, 49, 64
2, 12474, Note_off_c, 0, 80, 64
2, 12480, Note_on_c, 4, 64, 100
2, 12480, Note_on_c, 4, 61, 100
2, 12480, Note_on_c, 4, 56, 100
2, 12480, Note_on_c, 0, 73, 100
2, 12696, Note_off_c, 0, 73, 64
2, 12696, Note_off_c, 4, 56, 64
2, 12696, Note_off_c, 4, 61, 64
2, 12696, Note_off_c, 4, 64, 64
2, 12720, Note_on_c, 4, 56, 100
2, 12720, Note_on_c, 4, 61, 100
2, 12720, Note_on_c, 4, 64, 100
2, 12720, Note_on_c, 0, 76, 100
2, 12936, Note_off_c, 0, 76, 64
2, 12936, Note_off_c, 4, 64, 64
2, 12936, Note_off_c, 4, 61, 64
2, 12936, Note_off_c, 4, 56, 64
2, 12960, Note_on_c, 4, 48, 100
2, 12960, Note_on_c, 0, 80, 100
2, 13068, Note_off_c, 0, 80, 64
2, 13140, Note_on_c, 0, 81, 100
2, 13176, Note_off_c, 4, 48, 64
2, 13194, Note_off_c, 0, 81, 64
2, 13200, Note_on_c, 4, 66, 100
2, 13200, Note_on_c, 4, 63, 100
2, 13200, Note_on_c, 4, 56, 100
2, 13200, Note_on_c, 0, 78, 100
2, 13416, Note_off_c, 0, 78, 64
2, 13416, Note_off_c, 4, 56, 64
2, 13416, Note_off_c, 4, 63, 64
2, 13416, Note_off_c, 4, 66, 64
2, 13440, Note_on_c, 4, 56, 100
2, 13440, Note_on_c, 4, 63, 100
2, 13440, Note_on_c, 4, 66, 100
2, 13440, Note_on_c, 0, 80, 100
2, 13656, Note_off_c, 0, 80, 64
2, 13656, Note_off_c, 4, 66, 64
2, 13656, Note_off_c, 4, 63, 64
2, 13656, Note_off_c, 4, 56, 64
2, 13680, Note_on_c, 4, 49, 100
2, 13680, Note_on_c, 0, 76, 100
2, 13752, Note_off_c, 0, 76, 64
2, 13760, Note_on_c, 0, 78, 100
2, 13832, Note_off_c, 0, 78, 64
2, 13840, Note_on_c, 0, 80, 100
2, 13876, Note_off_c, 0, 80, 64
2, 13880, Note_on_c, 0, 80, 100
2, 13896, Note_off_c, 4, 49, 64
2, 13916, Note_off_c, 0, 80, 64
2, 13920, Note_on_c, 4, 61, 100
2, 13920, Note_on_c, 4, 64, 100
2, 13920, Note_on_c, 4, 56, 100
2, 13920, Note_on_c, 0, 73, 100
2, 14136, Note_off_c, 4, 56, 64
2, 14136, Note_off_c, 4, 64, 64
2, 14136, Note_off_c, 4, 61, 64
2, 14244, Note_off_c, 0, 73, 64
2, 14280, Note_on_c, 0, 74, 100
2, 14388, Note_off_c, 0, 74, 64
2, 14400, Note_on_c, 4, 43, 100
2, 14400, Note_on_c, 0, 75, 100
2, 14508, Note_off_c, 0, 75, 64
2, 14580, Note_on_c, 0, 76, 100
2, 14616, Note_off_c, 4, 43, 64
2, 14634, Note_off_c, 0, 76, 64
2, 14640, Note_on_c, 4, 51, 100
2, 14640, Note_on_c, 4, 58, 100
2, 14640, Note_on_c, 4, 61, 100
2, 14640, Note_on_c, 0, 73, 100
2, 14856, Note_off_c, 4, 61, 64
2, 14856, Note_off_c, 4, 58, 64
2, 14856, Note_off_c, 4, 51, 64
2, 14880, Note_on_c, 4, 51, 100
2, 14880, Note_on_c, 4, 58, 100
2, 14880, Note_on_c, 4, 61, 100
2, 14964, Note_off_c, 0, 73, 64
2, 15000, Note_on_c, 0, 75, 100
2, 15096, Note_off_c, 4, 61, 64
2, 15096, Note_off_c, 4, 58, 64
2, 15096, Note_off_c, 4, 51, 64
2, 15108, Note_off_c, 0, 75, 64
2, 15120, Note_on_c, 0, 72, 100
2, 15120, Note_on_c, 4, 44, 100
2, 15282, Note_off_c, 0, 72, 64
2, 15300, Note_on_c, 0, 75, 100
2, 15336, Note_off_c, 4, 44, 64
2, 15354, Note_off_c, 0, 75, 64
2, 15360, Note_on_c, 4, 54, 100
2, 15360, Note_on_c, 0, 68, 100
2, 15360, Note_on_c, 4, 51, 100
2, 15360, Note_on_c, 4, 60, 100
2, 15576, Note_off_c, 4, 60, 64
2, 15576, Note_off_c, 4, 51, 64
2, 15576, Note_off_c, 0, 68, 64
2, 15576, Note_off_c, 4, 54, 64
2, 15600, Note_on_c, 4, 60, 100
2, 15600, Note_on_c, 4, 54, 100
2, 15600, Note_on_c, 4, 51, 100
2, 15600, Note_on_c, 0, 69, 100
2, 15636, Note_off_c, 0, 69, 64
2, 15640, Note_on_c, 0, 71, 100
2, 15676, Note_off_c, 0, 71, 64
2, 15680, Note_on_c, 0, 69, 100
2, 15716, Note_off_c, 0, 69, 64
2, 15720, Note_on_c, 0, 71, 100
2, 15774, Note_off_c, 0, 71, 64
2, 15780, Note_on_c, 0, 69, 100
2, 15816, Note_off_c, 4, 51, 64
2, 15816, Note_off_c, 4, 54, 64
2, 15816, Note_off_c, 4, 60, 64
2, 15834, Note_off_c, 0, 69, 64
2, 15840, Note_on_c, 0, 68, 100
2, 15840, Note_on_c, 4, 44, 100
2, 15948, Note_off_c, 0, 68, 64
2, 16020, Note_on_c, 0, 66, 100
2, 16056, Note_off_c, 4, 44, 64
2, 16074, Note_off_c, 0, 66, 64
2, 16080, Note_on_c, 4, 54, 100
2, 16080, Note_on_c, 0, 63, 100
2, 16080, Note_on_c, 4, 51, 100
2, 16080, Note_on_c, 4, 60, 100
2, 16296, Note_off_c, 4, 60, 64
2, 16296, Note_off_c, 4, 51, 64
2, 16296, Note_off_c, 0, 63, 64
2, 16296, Note_off_c, 4, 54, 64
2, 16320, Note_on_c, 4, 51, 100
2, 16320, Note_on_c, 4, 60, 100
2, 16320, Note_on_c, 4, 54, 100
2, 16320, Note_on_c, 0, 68, 100
2, 16482, Note_off_c, 0, 68, 64
2, 16500, Note_on_c, 0, 68, 100
2, 16536, Note_off_c, 4, 54, 64
2, 16536, Note_off_c, 4, 60, 64
2, 16536, Note_off_c, 4, 51, 64
2, 16554, Note_off_c, 0, 68, 64
2, 16560, Note_on_c, 4, 37, 100
2, 16560, Note_on_c, 0, 61, 100
2, 16776, Note_off_c, 4, 37, 64
2, 16800, Note_on_c, 4, 49, 100
2, 16800, Note_on_c, 4, 56, 100
2, 16800, Note_on_c, 4, 64, 100
2, 16992, Note_off_c, 0, 61, 64
2, 17016, Note_off_c, 4, 64, 64
2, 17016, Note_off_c, 4, 56, 64
2, 17016, Note_off_c, 4, 49, 64
2, 17040, Note_on_c, 0, 62, 100
2, 17256, Note_off_c, 0, 62, 64
2, 17280, Note_on_c, 0, 63, 100
2, 17280, Note_on_c, 4, 44, 100
2, 17388, Note_off_c, 0, 63, 64
2, 17460, Note_on_c, 0, 67, 100
2, 17496, Note_off_c, 4, 44, 64
2, 17514, Note_off_c, 0, 67, 64
2, 17520, Note_on_c, 4, 60, 100
2, 17520, Note_on_c, 0, 68, 100
2, 17520, Note_on_c, 4, 51, 100
2, 17520, Note_on_c, 4, 56, 100
2, 17736, Note_off_c, 4, 56, 64
2, 17736, Note_off_c, 4, 51, 64
2, 17736, Note_off_c, 0, 68, 64
2, 17736, Note_off_c, 4, 60, 64
2, 17760, Note_on_c, 4, 51, 100
2, 17760, Note_on_c, 4, 56, 100
2, 17760, Note_on_c, 4, 60, 100
2, 17760, Note_on_c, 0, 72, 100
2, 17868, Note_off_c, 0, 72, 64
2, 17880, Note_on_c, 0, 75, 100
2, 17976, Note_off_c, 4, 60, 64
2, 17976, Note_off_c, 4, 56, 64
2, 17976, Note_off_c, 4, 51, 64
2, 17988, Note_off_c, 0, 75, 64
2, 18000, Note_on_c, 0, 63, 100
2, 18000, Note_on_c, 4, 44, 100
2, 18108, Note_off_c, 0, 63, 64
2, 18180, Note_on_c, 0, 67, 100
2, 18216, Note_off_c, 4, 44, 64
2, 18234, Note_off_c, 0, 67, 64
2, 18240, Note_on_c, 4, 56, 100
2, 18240, Note_on_c, 4, 51, 100
2, 18240, Note_on_c, 4, 60, 100
2, 18240, Note_on_c, 0, 68, 100
2, 18348, Note_off_c, 0, 68, 64
2, 18360, Note_on_c, 0, 72, 100
2, 18456, Note_off_c, 4, 60, 64
2, 18456, Note_off_c, 4, 51, 64
2, 18456, Note_off_c, 4, 56, 64
2, 18468, Note_off_c, 0, 72, 64
2, 18480, Note_on_c, 4, 51, 100
2, 18480, Note_on_c, 4, 56, 100
2, 18480, Note_on_c, 4, 60, 100
2, 18480, Note_on_c, 0, 75, 100
2, 18696, Note_off_c, 0, 75, 64
2, 18696, Note_off_c, 4, 60, 64
2, 18696, Note_off_c, 4, 56, 64
2, 18696, Note_off_c, 4, 51, 64
2, 18720, Note_on_c, 4, 58, 100
2, 18720, Note_on_c, 0, 74, 100
2, 18720, Note_on_c, 5, 56, 100
2, 18720, Note_on_c, 5, 52, 100
2, 18882, Note_off_c, 0, 74, 64
2, 18900, Note_on_c, 0, 70, 100
2, 18936, Note_off_c, 5, 52, 64
2, 18936, Note_off_c, 5, 56, 64
2, 18954, Note_off_c, 0, 70, 64
2, 18960, Note_on_c, 5, 51, 100
2, 18960, Note_on_c, 0, 73, 100
2, 18960, Note_on_c, 5, 55, 100
2, 19152, Note_off_c, 4, 58, 64
2, 19176, Note_off_c, 5, 55, 64
2, 19176, Note_off_c, 0, 73, 64
2, 19176, Note_off_c, 5, 51, 64
2, 19200, Note_on_c, 4, 56, 100
2, 19200, Note_on_c, 4, 44, 100
2, 19200, Note_on_c, 0, 72, 100
2, 19308, Note_off_c, 0, 72, 64
2, 19320, Note_on_c, 0, 68, 100
2, 19416, Note_off_c, 4, 44, 64
2, 19416, Note_off_c, 4, 56, 64
2, 19428, Note_off_c, 0, 68, 64
2, 19440, Note_on_c, 4, 58, 100
2, 19440, Note_on_c, 0, 74, 100
2, 19440, Note_on_c, 5, 56, 100
2, 19440, Note_on_c, 5, 52, 100
2, 19512, Note_off_c, 0, 74, 64
2, 19520, Note_on_c, 0, 70, 100
2, 19592, Note_off_c, 0, 70, 64
2, 19600, Note_on_c, 0, 72, 100
2, 19656, Note_off_c, 5, 52, 64
2, 19656, Note_off_c, 5, 56, 64
2, 19672, Note_off_c, 0, 72, 64
2, 19680, Note_on_c, 5, 55, 100
2, 19680, Note_on_c, 0, 73, 100
2, 19680, Note_on_c, 5, 51, 100
2, 19872, Note_off_c, 4, 58, 64
2, 19896, Note_off_c, 5, 51, 64
2, 19896, Note_off_c, 0, 73, 64
2, 19896, Note_off_c, 5, 55, 64
2, 19920, Note_on_c, 4, 44, 100
2, 19920, Note_on_c, 0, 72, 100
2, 19920, Note_on_c, 4, 56, 100
2, 20028, Note_off_c, 0, 72, 64
2, 20040, Note_on_c, 0, 68, 100
2, 20136, Note_off_c, 4, 56, 64
2, 20136, Note_off_c, 4, 44, 64
2, 20148, Note_off_c, 0, 68, 64
2, 20160, Note_on_c, 4, 32, 100
2, 20160, Note_on_c, 4, 44, 100
2, 20160, Note_on_c, 0, 63, 100
2, 20268, Note_off_c, 0, 63, 64
2, 20340, Note_on_c, 0, 67, 100
2, 20376, Note_off_c, 4, 44, 64
2, 20376, Note_off_c, 4, 32, 64
2, 20394, Note_off_c, 0, 67, 64
2, 20400, Note_on_c, 4, 56, 100
2, 20400, Note_on_c, 0, 68, 100
2, 20400, Note_on_c, 4, 60, 100
2, 20400, Note_on_c, 4, 51, 100
2, 20616, Note_off_c, 4, 51, 64
2, 20616, Note_off_c, 4, 60, 64
2, 20616, Note_off_c, 0, 68, 64
2, 20616, Note_off_c, 4, 56, 64
2, 20640, Note_on_c, 4, 51, 100
2, 20640, Note_on_c, 4, 56, 100
2, 20640, Note_on_c, 4, 60, 100
2, 20640, Note_on_c, 0, 72, 100
2, 20748, Note_off_c, 0, 72, 64
2, 20760, Note_on_c, 0, 75, 100
2, 20856, Note_off_c, 4, 60, 64
2, 20856, Note_off_c, 4, 56, 64
2, 20856, Note_off_c, 4, 51, 64
2, 20868, Note_off_c, 0, 75, 64
2, 20880, Note_on_c, 0, 63, 100
2, 20880, Note_on_c, 4, 44, 100
2, 20988, Note_off_c, 0, 63, 64
2, 21060, Note_on_c, 0, 67, 100
2, 21096, Note_off_c, 4, 44, 64
2, 21114, Note_off_c, 0, 67, 64
2, 21120, Note_on_c, 4, 51, 100
2, 21120, Note_on_c, 4, 56, 100
2, 21120, Note_on_c, 4, 60, 100
2, 21120, Note_on_c, 0, 68, 100
2, 21228, Note_off_c, 0, 68, 64
2, 21240, Note_on_c, 0, 72, 100
2, 21336, Note_off_c, 4, 60, 64
2, 21336, Note_off_c, 4, 56, 64
2, 21336, Note_off_c, 4, 51, 64
2, 21348, Note_off_c, 0, 72, 64
2, 21360, Note_on_c, 4, 51, 100
2, 21360, Note_on_c, 4, 56, 100
2, 21360, Note_on_c, 4, 60, 100
2, 21360, Note_on_c, 0, 75, 100
2, 21576, Note_off_c, 0, 75, 64
2, 21576, Note_off_c, 4, 60, 64
2, 21576, Note_off_c, 4, 56, 64
2, 21576, Note_off_c, 4, 51, 64
2, 21600, Note_on_c, 4, 58, 100
2, 21600, Note_on_c, 0, 74, 100
2, 21600, Note_on_c, 5, 56, 100
2, 21600, Note_on_c, 5, 52, 100
2, 21708, Note_off_c, 0, 74, 64
2, 21720, Note_on_c, 0, 70, 100
2, 21816, Note_off_c, 5, 52, 64
2, 21816, Note_off_c, 5, 56, 64
2, 21828, Note_off_c, 0, 70, 64
2, 21840, Note_on_c, 5, 51, 100
2, 21840, Note_on_c, 0, 73, 100
2, 21840, Note_on_c, 5, 55, 100
2, 22032, Note_off_c, 4, 58, 64
2, 22056, Note_off_c, 5, 55, 64
2, 22056, Note_off_c, 0, 73, 64
2, 22056, Note_off_c, 5, 51, 64
2, 22080, Note_on_c, 4, 56, 100
2, 22080, Note_on_c, 4, 44, 100
2, 22080, Note_on_c, 0, 72, 100
2, 22188, Note_off_c, 0, 72, 64
2, 22200, Note_on_c, 0, 68, 100
2, 22296, Note_off_c, 4, 44, 64
2, 22296, Note_off_c, 4, 56, 64
2, 22308, Note_off_c, 0, 68, 64
2, 22320, Note_on_c, 0, 80, 100
2, 22482, Note_off_c, 0, 80, 64
2, 22500, Note_on_c, 0, 68, 100
2, 22554, Note_off_c, 0, 68, 64
2, 22560, Note_on_c, 0, 80, 100
2, 22722, Note_off_c, 0, 80, 64
2, 22740, Note_on_c, 0, 68, 100
2, 22794, Note_off_c, 0, 68, 64
2, 22800, Note_on_c, 0, 80, 100
2, 22962, Note_off_c, 0, 80, 64
2, 22980, Note_on_c, 0, 68, 100
2, 23034, Note_off_c, 0, 68, 64
2, 23040, Note_on_c, 4, 48, 100
2, 23040, Note_on_c, 0, 80, 100
2, 23202, Note_off_c, 0, 80, 64
2, 23220, Note_on_c, 0, 81, 100
2, 23256, Note_off_c, 4, 48, 64
2, 23274, Note_off_c, 0, 81, 64
2, 23280, Note_on_c, 4, 66, 100
2, 23280, Note_on_c, 4, 63, 100
2, 23280, Note_on_c, 4, 56, 100
2, 23280, Note_on_c, 0, 78, 100
2, 23496, Note_off_c, 4, 56, 64
2, 23496, Note_off_c, 4, 63, 64
2, 23496, Note_off_c, 4, 66, 64
2, 23520, Note_on_c, 4, 56, 100
2, 23520, Note_on_c, 4, 63, 100
2, 23520, Note_on_c, 4, 66, 100
2, 23604, Note_off_c, 0, 78, 64
2, 23640, Note_on_c, 0, 80, 100
2, 23736, Note_off_c, 4, 66, 64
2, 23736, Note_off_c, 4, 63, 64
2, 23736, Note_off_c, 4, 56, 64
2, 23748, Note_off_c, 0, 80, 64
2, 23760, Note_on_c, 4, 49, 100
2, 23760, Note_on_c, 0, 76, 100
2, 23922, Note_off_c, 0, 76, 64
2, 23940, Note_on_c, 0, 80, 100
2, 23976, Note_off_c, 4, 49, 64
2, 23994, Note_off_c, 0, 80, 64
2, 24000, Note_on_c, 4, 56, 100
2, 24000, Note_on_c, 4, 61, 100
2, 24000, Note_on_c, 4, 64, 100
2, 24000, Note_on_c, 0, 73, 100
2, 24216, Note_off_c, 0, 73, 64
2, 24216, Note_off_c, 4, 64, 64
2, 24216, Note_off_c, 4, 61, 64
2, 24216, Note_off_c, 4, 56, 64
2, 24240, Note_on_c, 4, 61, 100
2, 24240, Note_on_c, 4, 64, 100
2, 24240, Note_on_c, 4, 56, 100
2, 24240, Note_on_c, 0, 76, 100
2, 24456, Note_off_c, 0, 76, 64
2, 24456, Note_off_c, 4, 56, 64
2, 24456, Note_off_c, 4, 64, 64
2, 24456, Note_off_c, 4, 61, 64
2, 24480, Note_on_c, 4, 48, 100
2, 24480, Note_on_c, 0, 80, 100
2, 24588, Note_off_c, 0, 80, 64
2, 24660, Note_on_c, 0, 81, 100
2, 24696, Note_off_c, 4, 48, 64
2, 24714, Note_off_c, 0, 81, 64
2, 24720, Note_on_c, 4, 66, 100
2, 24720, Note_on_c, 4, 56, 100
2, 24720, Note_on_c, 4, 63, 100
2, 24720, Note_on_c, 0, 78, 100
2, 24936, Note_off_c, 0, 78, 64
2, 24936, Note_off_c, 4, 63, 64
2, 24936, Note_off_c, 4, 56, 64
2, 24936, Note_off_c, 4, 66, 64
2, 24960, Note_on_c, 4, 56, 100
2, 24960, Note_on_c, 4, 66, 100
2, 24960, Note_on_c, 4, 63, 100
2, 24960, Note_on_c, 0, 80, 100
2, 25176, Note_off_c, 0, 80, 64
2, 25176, Note_off_c, 4, 63, 64
2, 25176, Note_off_c, 4, 66, 64
2, 25176, Note_off_c, 4, 56, 64
2, 25200, Note_on_c, 4, 49, 100
2, 25200, Note_on_c, 0, 76, 100
2, 25272, Note_off_c, 0, 76, 64
2, 25280, Note_on_c, 0, 78, 100
2, 25352, Note_off_c, 0, 78, 64
2, 25360, Note_on_c, 0, 80, 100
2, 25396, Note_off_c, 0, 80, 64
2, 25400, Note_on_c, 0, 80, 100
2, 25416, Note_off_c, 4, 49, 64
2, 25436, Note_off_c, 0, 80, 64
2, 25440, Note_on_c, 4, 56, 100
2, 25440, Note_on_c, 4, 64, 100
2, 25440, Note_on_c, 4, 61, 100
2, 25440, Note_on_c, 0, 73, 100
2, 25656, Note_off_c, 4, 61, 64
2, 25656, Note_off_c, 4, 64, 64
2, 25656, Note_off_c, 4, 56, 64
2, 25764, Note_off_c, 0, 73, 64
2, 25800, Note_on_c, 0, 74, 100
2, 25908, Note_off_c, 0, 74, 64
2, 25920, Note_on_c, 0, 75, 100
2, 25920, Note_on_c, 5, 43, 100
2, 26028, Note_off_c, 0, 75, 64
2, 26040, Note_on_c, 0, 76, 100
2, 26148, Note_off_c, 0, 76, 64
2, 26160, Note_on_c, 4, 58, 100
2, 26160, Note_on_c, 0, 73, 100
2, 26160, Note_on_c, 4, 51, 100
2, 26376, Note_off_c, 4, 51, 64
2, 26376, Note_off_c, 0, 73, 64
2, 26376, Note_off_c, 4, 58, 64
2, 26400, Note_on_c, 4, 51, 100
2, 26400, Note_on_c, 0, 75, 100
2, 26400, Note_on_c, 4, 58, 100
2, 26568, Note_off_c, 5, 43, 64
2, 26616, Note_off_c, 4, 58, 64
2, 26616, Note_off_c, 0, 75, 64
2, 26616, Note_off_c, 4, 51, 64
2, 26640, Note_on_c, 0, 72, 100
2, 26640, Note_on_c, 4, 44, 100
2, 26748, Note_off_c, 0, 72, 64
2, 26760, Note_on_c, 0, 75, 100
2, 26856, Note_off_c, 4, 44, 64
2, 26868, Note_off_c, 0, 75, 64
2, 26880, Note_on_c, 4, 60, 100
2, 26880, Note_on_c, 0, 68, 100
2, 26880, Note_on_c, 4, 51, 100
2, 26880, Note_on_c, 4, 54, 100
2, 26988, Note_off_c, 0, 68, 64
2, 27096, Note_off_c, 4, 54, 64
2, 27096, Note_off_c, 4, 51, 64
2, 27096, Note_off_c, 4, 60, 64
2, 27120, Note_on_c, 0, 69, 100
2, 27147, Note_off_c, 0, 69, 64
2, 27150, Note_on_c, 0, 71, 100
2, 27177, Note_off_c, 0, 71, 64
2, 27180, Note_on_c, 0, 69, 100
2, 27207, Note_off_c, 0, 69, 64
2, 27210, Note_on_c, 0, 71, 100
2, 27237, Note_off_c, 0, 71, 64
2, 27240, Note_on_c, 0, 69, 100
2, 27267, Note_off_c, 0, 69, 64
2, 27270, Note_on_c, 0, 71, 100
2, 27297, Note_off_c, 0, 71, 64
2, 27300, Note_on_c, 0, 69, 100
2, 27327, Note_off_c, 0, 69, 64
2, 27330, Note_on_c, 0, 71, 100
2, 27357, Note_off_c, 0, 71, 64
2, 27360, Note_on_c, 0, 68, 100
2, 27360, Note_on_c, 4, 44, 100
2, 27522, Note_off_c, 0, 68, 64
2, 27540, Note_on_c, 0, 66, 100
2, 27576, Note_off_c, 4, 44, 64
2, 27594, Note_off_c, 0, 66, 64
2, 27600, Note_on_c, 4, 54, 100
2, 27600, Note_on_c, 0, 63, 100
2, 27600, Note_on_c, 4, 51, 100
2, 27600, Note_on_c, 4, 60, 100
2, 27816, Note_off_c, 4, 60, 64
2, 27816, Note_off_c, 4, 51, 64
2, 27816, Note_off_c, 0, 63, 64
2, 27816, Note_off_c, 4, 54, 64
2, 27840, Note_on_c, 4, 60, 100
2, 27840, Note_on_c, 4, 51, 100
2, 27840, Note_on_c, 4, 54, 100
2, 27840, Note_on_c, 0, 68, 100
2, 28002, Note_off_c, 0, 68, 64
2, 28020, Note_on_c, 0, 68, 100
2, 28056, Note_off_c, 4, 54, 64
2, 28056, Note_off_c, 4, 51, 64
2, 28056, Note_off_c, 4, 60, 64
2, 28074, Note_off_c, 0, 68, 64
2, 28080, Note_on_c, 4, 37, 100
2, 28080, Note_on_c, 0, 61, 100
2, 28296, Note_off_c, 4, 37, 64
2, 28320, Note_on_c, 4, 49, 100
2, 28320, Note_on_c, 4, 56, 100
2, 28320, Note_on_c, 4, 64, 100
2, 28512, Note_off_c, 0, 61, 64
2, 28536, Note_off_c, 4, 64, 64
2, 28536, Note_off_c, 4, 56, 64
2, 28536, Note_off_c, 4, 49, 64
2, 28560, Note_on_c, 0, 62, 100
2, 28776, Note_off_c, 0, 62, 64
2, 28800, Note_on_c, 0, 63, 100
2, 28800, Note_on_c, 4, 44, 100
2, 28908, Note_off_c, 0, 63, 64
2, 28980, Note_on_c, 0, 67, 100
2, 29016, Note_off_c, 4, 44, 64
2, 29034, Note_off_c, 0, 67, 64
2, 29040, Note_on_c, 4, 60, 100
2, 29040, Note_on_c, 0, 68, 100
2, 29040, Note_on_c, 4, 51, 100
2, 29040, Note_on_c, 4, 56, 100
2, 29256, Note_off_c, 4, 56, 64
2, 29256, Note_off_c, 4, 51, 64
2, 29256, Note_off_c, 0, 68, 64
2, 29256, Note_off_c, 4, 60, 64
2, 29280, Note_on_c, 4, 51, 100
2, 29280, Note_on_c, 4, 56, 100
2, 29280, Note_on_c, 4, 60, 100
2, 29280, Note_on_c, 0, 72, 100
2, 29388, Note_off_c, 0, 72, 64
2, 29400, Note_on_c, 0, 75, 100
2, 29496, Note_off_c, 4, 60, 64
2, 29496, Note_off_c, 4, 56, 64
2, 29496, Note_off_c, 4, 51, 64
2, 29508, Note_off_c, 0, 75, 64
2, 29520, Note_on_c, 0, 63, 100
2, 29520, Note_on_c, 4, 44, 100
2, 29628, Note_off_c, 0, 63, 64
2, 29700, Note_on_c, 0, 67, 100
2, 29736, Note_off_c, 4, 44, 64
2, 29754, Note_off_c, 0, 67, 64
2, 29760, Note_on_c, 4, 56, 100
2, 29760, Note_on_c, 4, 51, 100
2, 29760, Note_on_c, 4, 60, 100
2, 29760, Note_on_c, 0, 68, 100
2, 29868, Note_off_c, 0, 68, 64
2, 29880, Note_on_c, 0, 72, 100
2, 29976, Note_off_c, 4, 60, 64
2, 29976, Note_off_c, 4, 51, 64
2, 29976, Note_off_c, 4, 56, 64
2, 29988, Note_off_c, 0, 72, 64
2, 30000, Note_on_c, 4, 51, 100
2, 30000, Note_on_c, 4, 56, 100
2, 30000, Note_on_c, 4, 60, 100
2, 30000, Note_on_c, 0, 75, 100
2, 30216, Note_off_c, 0, 75, 64
2, 30216, Note_off_c, 4, 60, 64
2, 30216, Note_off_c, 4, 56, 64
2, 30216, Note_off_c, 4, 51, 64
2, 30240, Note_on_c, 4, 58, 100
2, 30240, Note_on_c, 0, 74, 100
2, 30240, Note_on_c, 5, 56, 100
2, 30240, Note_on_c, 5, 52, 100
2, 30402, Note_off_c, 0, 74, 64
2, 30420, Note_on_c, 0, 70, 100
2, 30456, Note_off_c, 5, 52, 64
2, 30456, Note_off_c, 5, 56, 64
2, 30474, Note_off_c, 0, 70, 64
2, 30480, Note_on_c, 5, 51, 100
2, 30480, Note_on_c, 0, 73, 100
2, 30480, Note_on_c, 5, 55, 100
2, 30672, Note_off_c, 4, 58, 64
2, 30696, Note_off_c, 5, 55, 64
2, 30696, Note_off_c, 0, 73, 64
2, 30696, Note_off_c, 5, 51, 64
2, 30720, Note_on_c, 4, 56, 100
2, 30720, Note_on_c, 4, 44, 100
2, 30720, Note_on_c, 0, 72, 100
2, 30828, Note_off_c, 0, 72, 64
2, 30840, Note_on_c, 0, 68, 100
2, 30936, Note_off_c, 4, 44, 64
2, 30936, Note_off_c, 4, 56, 64
2, 30948, Note_off_c, 0, 68, 64
2, 30960, Note_on_c, 4, 58, 100
2, 30960, Note_on_c, 0, 74, 100
2, 30960, Note_on_c, 5, 56, 100
2, 30960, Note_on_c, 5, 52, 100
2, 31032, Note_off_c, 0, 74, 64
2, 31040, Note_on_c, 0, 70, 100
2, 31112, Note_off_c, 0, 70, 64
2, 31120, Note_on_c, 0, 72, 100
2, 31176, Note_off_c, 5, 52, 64
2, 31176, Note_off_c, 5, 56, 64
2, 31192, Note_off_c, 0, 72, 64
2, 31200, Note_on_c, 5, 55, 100
2, 31200, Note_on_c, 0, 73, 100
2, 31200, Note_on_c, 5, 51, 100
2, 31392, Note_off_c, 4, 58, 64
2, 31416, Note_off_c, 5, 51, 64
2, 31416, Note_off_c, 0, 73, 64
2, 31416, Note_off_c, 5, 55, 64
2, 31440, Note_on_c, 4, 44, 100
2, 31440, Note_on_c, 0, 72, 100
2, 31440, Note_on_c, 4, 56, 100
2, 31548, Note_off_c, 0, 72, 64
2, 31560, Note_on_c, 0, 68, 100
2, 31656, Note_off_c, 4, 56, 64
2, 31656, Note_off_c, 4, 44, 64
2, 31668, Note_off_c, 0, 68, 64
2, 31680, Note_on_c, 4, 32, 100
2, 31680, Note_on_c, 4, 44, 100
2, 31680, Note_on_c, 0, 63, 100
2, 31788, Note_off_c, 0, 63, 64
2, 31860, Note_on_c, 0, 67, 100
2, 31896, Note_off_c, 4, 44, 64
2, 31896, Note_off_c, 4, 32, 64
2, 31914, Note_off_c, 0, 67, 64
2, 31920, Note_on_c, 4, 56, 100
2, 31920, Note_on_c, 0, 68, 100
2, 31920, Note_on_c, 4, 60, 100
2, 31920, Note_on_c, 4, 51, 100
2, 32136, Note_off_c, 4, 51, 64
2, 32136, Note_off_c, 4, 60, 64
2, 32136, Note_off_c, 0, 68, 64
2, 32136, Note_off_c, 4, 56, 64
2, 32160, Note_on_c, 4, 51, 100
2, 32160, Note_on_c, 4, 56, 100
2, 32160, Note_on_c, 4, 60, 100
2, 32160, Note_on_c, 0, 72, 100
2, 32268, Note_off_c, 0, 72, 64
2, 32280, Note_on_c, 0, 75, 100
2, 32376, Note_off_c, 4, 60, 64
2, 32376, Note_off_c, 4, 56, 64
2, 32376, Note_off_c, 4, 51, 64
2, 32388, Note_off_c, 0, 75, 64
2, 32400, Note_on_c, 0, 63, 100
2, 32400, Note_on_c, 4, 44, 100
2, 32508, Note_off_c, 0, 63, 64
2, 32580, Note_on_c, 0, 67, 100
2, 32616, Note_off_c, 4, 44, 64
2, 32634, Note_off_c, 0, 67, 64
2, 32640, Note_on_c, 4, 51, 100
2, 32640, Note_on_c, 4, 56, 100
2, 32640, Note_on_c, 4, 60, 100
2, 32640, Note_on_c, 0, 68, 100
2, 32748, Note_off_c, 0, 68, 64
2, 32760, Note_on_c, 0, 72, 100
2, 32856, Note_off_c, 4, 60, 64
2, 32856, Note_off_c, 4, 56, 64
2, 32856, Note_off_c, 4, 51, 64
2, 32868, Note_off_c, 0, 72, 64
2, 32880, Note_on_c, 4, 51, 100
2, 32880, Note_on_c, 4, 56, 100
2, 32880, Note_on_c, 4, 60, 100
2, 32880, Note_on_c, 0, 75, 100
2, 33096, Note_off_c, 0, 75, 64
2, 33096, Note_off_c, 4, 60, 64
2, 33096, Note_off_c, 4, 56, 64
2, 33096, Note_off_c, 4, 51, 64
2, 33120, Note_on_c, 4, 58, 100
2, 33120, Note_on_c, 0, 74, 100
2, 33120, Note_on_c, 5, 56, 100
2, 33120, Note_on_c, 5, 52, 100
2, 33228, Note_off_c, 0, 74, 64
2, 33240, Note_on_c, 0, 70, 100
2, 33336, Note_off_c, 5, 52, 64
2, 33336, Note_off_c, 5, 56, 64
2, 33348, Note_off_c, 0, 70, 64
2, 33360, Note_on_c, 5, 51, 100
2, 33360, Note_on_c, 0, 73, 100
2, 33360, Note_on_c, 5, 55, 100
2, 33552, Note_off_c, 4, 58, 64
2, 33576, Note_off_c, 5, 55, 64
2, 33576, Note_off_c, 0, 73, 64
2, 33576, Note_off_c, 5, 51, 64
2, 33600, Note_on_c, 4, 56, 100
2, 33600, Note_on_c, 4, 44, 100
2, 33600, Note_on_c, 0, 72, 100
2, 33708, Note_off_c, 0, 72, 64
2, 33720, Note_on_c, 0, 68, 100
2, 33816, Note_off_c, 4, 44, 64
2, 33816, Note_off_c, 4, 56, 64
2, 33828, Note_off_c, 0, 68, 64
2, 33840, Note_on_c, 0, 80, 100
2, 34002, Note_off_c, 0, 80, 64
2, 34020, Note_on_c, 0, 68, 100
2, 34074, Note_off_c, 0, 68, 64
2, 34080, Note_on_c, 0, 80, 100
2, 34242, Note_off_c, 0, 80, 64
2, 34260, Note_on_c, 0, 68, 100
2, 34314, Note_off_c, 0, 68, 64
2, 34320, Note_on_c, 0, 80, 100
2, 34482, Note_off_c, 0, 80, 64
2, 34500, Note_on_c, 0, 68, 100
2, 34554, Note_off_c, 0, 68, 64
2, 34560, Note_on_c, 4, 48, 100
2, 34560, Note_on_c, 0, 80, 100
2, 34722, Note_off_c, 0, 80, 64
2, 34740, Note_on_c, 0, 81, 100
2, 34776, Note_off_c, 4, 48, 64
2, 34794, Note_off_c, 0, 81, 64
2, 34800, Note_on_c, 4, 66, 100
2, 34800, Note_on_c, 4, 63, 100
2, 34800, Note_on_c, 4, 56, 100
2, 34800, Note_on_c, 0, 78, 100
2, 35016, Note_off_c, 4, 56, 64
2, 35016, Note_off_c, 4, 63, 64
2, 35016, Note_off_c, 4, 66, 64
2, 35040, Note_on_c, 4, 56, 100
2, 35040, Note_on_c, 4, 63, 100
2, 35040, Note_on_c, 4, 66, 100
2, 35124, Note_off_c, 0, 78, 64
2, 35160, Note_on_c, 0, 80, 100
2, 35256, Note_off_c, 4, 66, 64
2, 35256, Note_off_c, 4, 63, 64
2, 35256, Note_off_c, 4, 56, 64
2, 35268, Note_off_c, 0, 80, 64
2, 35280, Note_on_c, 4, 49, 100
2, 35280, Note_on_c, 0, 76, 100
2, 35442, Note_off_c, 0, 76, 64
2, 35460, Note_on_c, 0, 80, 100
2, 35496, Note_off_c, 4, 49, 64
2, 35514, Note_off_c, 0, 80, 64
2, 35520, Note_on_c, 4, 56, 100
2, 35520, Note_on_c, 4, 61, 100
2, 35520, Note_on_c, 4, 64, 100
2, 35520, Note_on_c, 0, 73, 100
2, 35736, Note_off_c, 0, 73, 64
2, 35736, Note_off_c, 4, 64, 64
2, 35736, Note_off_c, 4, 61, 64
2, 35736, Note_off_c, 4, 56, 64
2, 35760, Note_on_c, 4, 61, 100
2, 35760, Note_on_c, 4, 64, 100
2, 35760, Note_on_c, 4, 56, 100
2, 35760, Note_on_c, 0, 76, 100
2, 35976, Note_off_c, 0, 76, 64
2, 35976, Note_off_c, 4, 56, 64
2, 35976, Note_off_c, 4, 64, 64
2, 35976, Note_off_c, 4, 61, 64
2, 36000, Note_on_c, 4, 48, 100
2, 36000, Note_on_c, 0, 80, 100
2, 36108, Note_off_c, 0, 80, 64
2, 36180, Note_on_c, 0, 81, 100
2, 36216, Note_off_c, 4, 48, 64
2, 36234, Note_off_c, 0, 81, 64
2, 36240, Note_on_c, 4, 66, 100
2, 36240, Note_on_c, 4, 56, 100
2, 36240, Note_on_c, 4, 63, 100
2, 36240, Note_on_c, 0, 78, 100
2, 36456, Note_off_c, 0, 78, 64
2, 36456, Note_off_c, 4, 63, 64
2, 36456, Note_off_c, 4, 56, 64
2, 36456, Note_off_c, 4, 66, 64
2, 36480, Note_on_c, 4, 56, 100
2, 36480, Note_on_c, 4, 66, 100
2, 36480, Note_on_c, 4, 63, 100
2, 36480, Note_on_c, 0, 80, 100
2, 36696, Note_off_c, 0, 80, 64
2, 36696, Note_off_c, 4, 63, 64
2, 36696, Note_off_c, 4, 66, 64
2, 36696, Note_off_c, 4, 56, 64
2, 36720, Note_on_c, 4, 49, 100
2, 36720, Note_on_c, 0, 76, 100
2, 36792, Note_off_c, 0, 76, 64
2, 36800, Note_on_c, 0, 78, 100
2, 36872, Note_off_c, 0, 78, 64
2, 36880, Note_on_c, 0, 80, 100
2, 36916, Note_off_c, 0, 80, 64
2, 36920, Note_on_c, 0, 80, 100
2, 36936, Note_off_c, 4, 49, 64
2, 36956, Note_off_c, 0, 80, 64
2, 36960, Note_on_c, 4, 56, 100
2, 36960, Note_on_c, 4, 64, 100
2, 36960, Note_on_c, 4, 61, 100
2, 36960, Note_on_c, 0, 73, 100
2, 37176, Note_off_c, 4, 61, 64
2, 37176, Note_off_c, 4, 64, 64
2, 37176, Note_off_c, 4, 56, 64
2, 37284, Note_off_c, 0, 73, 64
2, 37320, Note_on_c, 0, 74, 100
2, 37428, Note_off_c, 0, 74, 64
2, 37440, Note_on_c, 0, 75, 100
2, 37440, Note_on_c, 5, 43, 100
2, 37548, Note_off_c, 0, 75, 64
2, 37560, Note_on_c, 0, 76, 100
2, 37668, Note_off_c, 0, 76, 64
2, 37680, Note_on_c, 4, 58, 100
2, 37680, Note_on_c, 0, 73, 100
2, 37680, Note_on_c, 4, 51, 100
2, 37896, Note_off_c, 4, 51, 64
2, 37896, Note_off_c, 0, 73, 64
2, 37896, Note_off_c, 4, 58, 64
2, 37920, Note_on_c, 4, 51, 100
2, 37920, Note_on_c, 0, 75, 100
2, 37920, Note_on_c, 4, 58, 100
2, 38088, Note_off_c, 5, 43, 64
2, 38136, Note_off_c, 4, 58, 64
2, 38136, Note_off_c, 0, 75, 64
2, 38136, Note_off_c, 4, 51, 64
2, 38160, Note_on_c, 0, 72, 100
2, 38160, Note_on_c, 4, 44, 100
2, 38268, Note_off_c, 0, 72, 64
2, 38280, Note_on_c, 0, 75, 100
2, 38376, Note_off_c, 4, 44, 64
2, 38388, Note_off_c, 0, 75, 64
2, 38400, Note_on_c, 4, 60, 100
2, 38400, Note_on_c, 0, 68, 100
2, 38400, Note_on_c, 4, 51, 100
2, 38400, Note_on_c, 4, 54, 100
2, 38508, Note_off_c, 0, 68, 64
2, 38616, Note_off_c, 4, 54, 64
2, 38616, Note_off_c, 4, 51, 64
2, 38616, Note_off_c, 4, 60, 64
2, 38640, Note_on_c, 0, 69, 100
2, 38667, Note_off_c, 0, 69, 64
2, 38670, Note_on_c, 0, 71, 100
2, 38697, Note_off_c, 0, 71, 64
2, 38700, Note_on_c, 0, 69, 100
2, 38727, Note_off_c, 0, 69, 64
2, 38730, Note_on_c, 0, 71, 100
2, 38757, Note_off_c, 0, 71, 64
2, 38760, Note_on_c, 0, 69, 100
2, 38787, Note_off_c, 0, 69, 64
2, 38790, Note_on_c, 0, 71, 100
2, 38817, Note_off_c, 0, 71, 64
2, 38820, Note_on_c, 0, 69, 100
2, 38847, Note_off_c, 0, 69, 64
2, 38850, Note_on_c, 0, 71, 100
2, 38877, Note_off_c, 0, 71, 64
2, 38880, Note_on_c, 0, 68, 100
2, 38880, Note_on_c, 4, 44, 100
2, 39042, Note_off_c, 0, 68, 64
2, 39060, Note_on_c, 0, 66, 100
2, 39096, Note_off_c, 4, 44, 64
2, 39114, Note_off_c, 0, 66, 64
2, 39120, Note_on_c, 4, 54, 100
2, 39120, Note_on_c, 0, 63, 100
2, 39120, Note_on_c, 4, 51, 100
2, 39120, Note_on_c, 4, 60, 100
2, 39336, Note_off_c, 4, 60, 64
2, 39336, Note_off_c, 4, 51, 64
2, 39336, Note_off_c, 0, 63, 64
2, 39336, Note_off_c, 4, 54, 64
2, 39360, Note_on_c, 4, 60, 100
2, 39360, Note_on_c, 4, 51, 100
2, 39360, Note_on_c, 4, 54, 100
2, 39360, Note_on_c, 0, 68, 100
2, 39522, Note_off_c, 0, 68, 64
2, 39540, Note_on_c, 0, 68, 100
2, 39576, Note_off_c, 4, 54, 64
2, 39576, Note_off_c, 4, 51, 64
2, 39576, Note_off_c, 4, 60, 64
2, 39594, Note_off_c, 0, 68, 64
2, 39600, Note_on_c, 4, 37, 100
2, 39600, Note_on_c, 0, 61, 100
2, 39816, Note_off_c, 4, 37, 64
2, 39840, Note_on_c, 4, 49, 100
2, 39840, Note_on_c, 4, 56, 100
2, 39840, Note_on_c, 4, 64, 100
2, 40032, Note_off_c, 0, 61, 64
2, 40056, Note_off_c, 4, 64, 64
2, 40056, Note_off_c, 4, 56, 64
2, 40056, Note_off_c, 4, 49, 64
2, 40080, Note_on_c, 0, 61, 100
2, 40296, Note_off_c, 0, 61, 64
2, 40320, Note_on_c, 4, 45, 100
2, 40320, Note_on_c, 0, 73, 100
2, 40428, Note_off_c, 0, 73, 64
2, 40440, Note_on_c, 0, 75, 100
2, 40536, Note_off_c, 4, 45, 64
2, 40548, Note_off_c, 0, 75, 64
2, 40560, Note_on_c, 4, 52, 100
2, 40560, Note_on_c, 4, 61, 100
2, 40560, Note_on_c, 0, 76, 100
2, 40776, Note_off_c, 4, 61, 64
2, 40776, Note_off_c, 4, 52, 64
2, 40800, Note_on_c, 4, 52, 100
2, 40800, Note_on_c, 4, 61, 100
2, 40884, Note_off_c, 0, 76, 64
2, 40920, Note_on_c, 0, 73, 100
2, 41016, Note_off_c, 4, 61, 64
2, 41016, Note_off_c, 4, 52, 64
2, 41028, Note_off_c, 0, 73, 64
2, 41040, Note_on_c, 4, 40, 100
2, 41040, Note_on_c, 0, 71, 100
2, 41148, Note_off_c, 0, 71, 64
2, 41160, Note_on_c, 0, 68, 100
2, 41256, Note_off_c, 4, 40, 64
2, 41268, Note_off_c, 0, 68, 64
2, 41280, Note_on_c, 4, 52, 100
2, 41280, Note_on_c, 4, 59, 100
2, 41280, Note_on_c, 0, 64, 100
2, 41496, Note_off_c, 4, 59, 64
2, 41496, Note_off_c, 4, 52, 64
2, 41520, Note_on_c, 4, 59, 100
2, 41520, Note_on_c, 4, 52, 100
2, 41712, Note_off_c, 0, 64, 64
2, 41736, Note_off_c, 4, 52, 64
2, 41736, Note_off_c, 4, 59, 64
2, 41760, Note_on_c, 0, 73, 100
2, 41760, Note_on_c, 4, 45, 100
2, 41868, Note_off_c, 0, 73, 64
2, 41880, Note_on_c, 0, 75, 100
2, 41976, Note_off_c, 4, 45, 64
2, 41988, Note_off_c, 0, 75, 64
2, 42000, Note_on_c, 4, 52, 100
2, 42000, Note_on_c, 0, 76, 100
2, 42000, Note_on_c, 4, 61, 100
2, 42162, Note_off_c, 0, 76, 64
2, 42180, Note_on_c, 0, 78, 100
2, 42216, Note_off_c, 4, 61, 64
2, 42216, Note_off_c, 4, 52, 64
2, 42234, Note_off_c, 0, 78, 64
2, 42240, Note_on_c, 4, 61, 100
2, 42240, Note_on_c, 4, 52, 100
2, 42240, Note_on_c, 0, 76, 100
2, 42348, Note_off_c, 0, 76, 64
2, 42360, Note_on_c, 0, 73, 100
2, 42456, Note_off_c, 4, 52, 64
2, 42456, Note_off_c, 4, 61, 64
2, 42468, Note_off_c, 0, 73, 64
2, 42480, Note_on_c, 0, 71, 100
2, 42480, Note_on_c, 4, 40, 100
2, 42588, Note_off_c, 0, 71, 64
2, 42600, Note_on_c, 0, 68, 100
2, 42696, Note_off_c, 4, 40, 64
2, 42708, Note_off_c, 0, 68, 64
2, 42720, Note_on_c, 4, 52, 100
2, 42720, Note_on_c, 4, 59, 100
2, 42720, Note_on_c, 0, 64, 100
2, 42936, Note_off_c, 4, 59, 64
2, 42936, Note_off_c, 4, 52, 64
2, 42960, Note_on_c, 4, 59, 100
2, 42960, Note_on_c, 4, 52, 100
2, 43176, Note_off_c, 4, 52, 64
2, 43176, Note_off_c, 4, 59, 64
2, 43200, Note_on_c, 4, 52, 100
2, 43200, Note_on_c, 4, 45, 100
2, 43200, Note_on_c, 1, 61, 100
2, 43308, Note_off_c, 0, 64, 64
2, 43320, Note_on_c, 0, 69, 100
2, 43416, Note_off_c, 1, 61, 64
2, 43416, Note_off_c, 4, 45, 64
2, 43416, Note_off_c, 4, 52, 64
2, 43428, Note_off_c, 0, 69, 64
2, 43440, Note_on_c, 4, 52, 100
2, 43440, Note_on_c, 4, 40, 100
2, 43440, Note_on_c, 0, 68, 100
2, 43440, Note_on_c, 1, 59, 100
2, 43656, Note_off_c, 1, 59, 64
2, 43656, Note_off_c, 4, 40, 64
2, 43656, Note_off_c, 4, 52, 64
2, 43680, Note_on_c, 4, 52, 100
2, 43680, Note_on_c, 4, 40, 100
2, 43680, Note_on_c, 1, 59, 100
2, 43872, Note_off_c, 0, 68, 64
2, 43896, Note_off_c, 1, 59, 64
2, 43896, Note_off_c, 4, 40, 64
2, 43896, Note_off_c, 4, 52, 64
2, 43920, Note_on_c, 4, 52, 100
2, 43920, Note_on_c, 4, 45, 100
2, 43920, Note_on_c, 0, 64, 100
2, 43920, Note_on_c, 1, 61, 100
2, 43974, Note_off_c, 0, 64, 64
2, 43980, Note_on_c, 0, 71, 100
2, 44034, Note_off_c, 0, 71, 64
2, 44040, Note_on_c, 0, 69, 100
2, 44136, Note_off_c, 1, 61, 64
2, 44136, Note_off_c, 4, 45, 64
2, 44136, Note_off_c, 4, 52, 64
2, 44148, Note_off_c, 0, 69, 64
2, 44160, Note_on_c, 4, 40, 100
2, 44160, Note_on_c, 4, 52, 100
2, 44160, Note_on_c, 0, 68, 100
2, 44160, Note_on_c, 1, 59, 100
2, 44376, Note_off_c, 1, 59, 64
2, 44376, Note_off_c, 4, 52, 64
2, 44376, Note_off_c, 4, 40, 64
2, 44400, Note_on_c, 4, 40, 100
2, 44400, Note_on_c, 4, 52, 100
2, 44400, Note_on_c, 1, 59, 100
2, 44592, Note_off_c, 0, 68, 64
2, 44616, Note_off_c, 1, 59, 64
2, 44616, Note_off_c, 4, 52, 64
2, 44616, Note_off_c, 4, 40, 64
2, 44640, Note_on_c, 4, 52, 100
2, 44640, Note_on_c, 4, 45, 100
2, 44640, Note_on_c, 0, 64, 100
2, 44640, Note_on_c, 1, 61, 100
2, 44748, Note_off_c, 0, 64, 64
2, 44760, Note_on_c, 0, 69, 100
2, 44856, Note_off_c, 1, 61, 64
2, 44856, Note_off_c, 4, 45, 64
2, 44856, Note_off_c, 4, 52, 64
2, 44868, Note_off_c, 0, 69, 64
2, 44880, Note_on_c, 4, 40, 100
2, 44880, Note_on_c, 4, 52, 100
2, 44880, Note_on_c, 1, 59, 100
2, 44880, Note_on_c, 0, 68, 100
2, 45096, Note_off_c, 0, 68, 64
2, 45096, Note_off_c, 1, 59, 64
2, 45096, Note_off_c, 4, 52, 64
2, 45096, Note_off_c, 4, 40, 64
2, 45120, Note_on_c, 4, 40, 100
2, 45120, Note_on_c, 4, 52, 100
2, 45120, Note_on_c, 0, 68, 100
2, 45120, Note_on_c, 1, 59, 100
2, 45336, Note_off_c, 1, 59, 64
2, 45336, Note_off_c, 0, 68, 64
2, 45336, Note_off_c, 4, 52, 64
2, 45336, Note_off_c, 4, 40, 64
2, 45360, Note_on_c, 4, 52, 100
2, 45360, Note_on_c, 0, 64, 100
2, 45360, Note_on_c, 1, 61, 100
2, 45360, Note_on_c, 5, 45, 100
2, 45468, Note_off_c, 0, 64, 64
2, 45480, Note_on_c, 0, 69, 100
2, 45522, Note_off_c, 5, 45, 64
2, 45540, Note_on_c, 5, 47, 100
2, 45576, Note_off_c, 1, 61, 64
2, 45576, Note_off_c, 4, 52, 64
2, 45588, Note_off_c, 0, 69, 64
2, 45594, Note_off_c, 5, 47, 64
2, 45600, Note_on_c, 4, 49, 100
2, 45600, Note_on_c, 0, 68, 100
2, 45600, Note_on_c, 0, 56, 100
2, 45816, Note_off_c, 0, 56, 64
2, 45816, Note_off_c, 0, 68, 64
2, 45816, Note_off_c, 4, 49, 64
2, 45840, Note_on_c, 4, 37, 100
2, 46056, Note_off_c, 4, 37, 64
2, 46080, Note_on_c, 0, 77, 100
2, 46188, Note_off_c, 0, 77, 64
2, 46200, Note_on_c, 0, 79, 100
2, 46308, Note_off_c, 0, 79, 64
2, 46320, Note_on_c, 4, 53, 100
2, 46320, Note_on_c, 4, 61, 100
2, 46320, Note_on_c, 4, 65, 100
2, 46320, Note_on_c, 4, 56, 100
2, 46320, Note_on_c, 0, 80, 100
2, 46536, Note_off_c, 4, 56, 64
2, 46536, Note_off_c, 4, 65, 64
2, 46536, Note_off_c, 4, 61, 64
2, 46536, Note_off_c, 4, 53, 64
2, 46560, Note_on_c, 4, 53, 100
2, 46560, Note_on_c, 4, 61, 100
2, 46560, Note_on_c, 4, 56, 100
2, 46560, Note_on_c, 4, 65, 100
2, 46644, Note_off_c, 0, 80, 64
2, 46680, Note_on_c, 0, 76, 100
2, 46776, Note_off_c, 4, 65, 64
2, 46776, Note_off_c, 4, 56, 64
2, 46776, Note_off_c, 4, 61, 64
2, 46776, Note_off_c, 4, 53, 64
2, 46788, Note_off_c, 0, 76, 64
2, 46800, Note_on_c, 4, 44, 100
2, 46800, Note_on_c, 0, 75, 100
2, 46908, Note_off_c, 0, 75, 64
2, 46920, Note_on_c, 0, 72, 100
2, 47016, Note_off_c, 4, 44, 64
2, 47028, Note_off_c, 0, 72, 64
2, 47040, Note_on_c, 4, 51, 100
2, 47040, Note_on_c, 4, 56, 100
2, 47040, Note_on_c, 4, 60, 100
2, 47040, Note_on_c, 0, 68, 100
2, 47256, Note_off_c, 4, 60, 64
2, 47256, Note_off_c, 4, 56, 64
2, 47256, Note_off_c, 4, 51, 64
2, 47280, Note_on_c, 4, 51, 100
2, 47280, Note_on_c, 4, 56, 100
2, 47280, Note_on_c, 4, 60, 100
2, 47472, Note_off_c, 0, 68, 64
2, 47496, Note_off_c, 4, 60, 64
2, 47496, Note_off_c, 4, 56, 64
2, 47496, Note_off_c, 4, 51, 64
2, 47520, Note_on_c, 0, 77, 100
2, 47520, Note_on_c, 4, 49, 100
2, 47628, Note_off_c, 0, 77, 64
2, 47640, Note_on_c, 0, 79, 100
2, 47736, Note_off_c, 4, 49, 64
2, 47748, Note_off_c, 0, 79, 64
2, 47760, Note_on_c, 4, 53, 100
2, 47760, Note_on_c, 0, 80, 100
2, 47760, Note_on_c, 4, 65, 100
2, 47760, Note_on_c, 4, 61, 100
2, 47760, Note_on_c, 4, 56, 100
2, 47922, Note_off_c, 0, 80, 64
2, 47940, Note_on_c, 0, 82, 100
2, 47976, Note_off_c, 4, 56, 64
2, 47976, Note_off_c, 4, 61, 64
2, 47976, Note_off_c, 4, 65, 64
2, 47976, Note_off_c, 4, 53, 64
2, 47994, Note_off_c, 0, 82, 64
2, 48000, Note_on_c, 4, 53, 100
2, 48000, Note_on_c, 4, 61, 100
2, 48000, Note_on_c, 4, 65, 100
2, 48000, Note_on_c, 4, 56, 100
2, 48000, Note_on_c, 0, 80, 100
2, 48108, Note_off_c, 0, 80, 64
2, 48120, Note_on_c, 0, 76, 100
2, 48216, Note_off_c, 4, 56, 64
2, 48216, Note_off_c, 4, 65, 64
2, 48216, Note_off_c, 4, 61, 64
2, 48216, Note_off_c, 4, 53, 64
2, 48228, Note_off_c, 0, 76, 64
2, 48240, Note_on_c, 0, 75, 100
2, 48240, Note_on_c, 4, 44, 100
2, 48348, Note_off_c, 0, 75, 64
2, 48360, Note_on_c, 0, 72, 100
2, 48456, Note_off_c, 4, 44, 64
2, 48468, Note_off_c, 0, 72, 64
2, 48480, Note_on_c, 4, 51, 100
2, 48480, Note_on_c, 4, 60, 100
2, 48480, Note_on_c, 4, 56, 100
2, 48480, Note_on_c, 0, 68, 100
2, 48696, Note_off_c, 4, 56, 64
2, 48696, Note_off_c, 4, 60, 64
2, 48696, Note_off_c, 4, 51, 64
2, 48720, Note_on_c, 4, 51, 100
2, 48720, Note_on_c, 4, 60, 100
2, 48720, Note_on_c, 4, 56, 100
2, 48936, Note_off_c, 4, 56, 64
2, 48936, Note_off_c, 4, 60, 64
2, 48936, Note_off_c, 4, 51, 64
2, 48960, Note_on_c, 4, 61, 100
2, 48960, Note_on_c, 4, 56, 100
2, 48960, Note_on_c, 4, 49, 100
2, 48960, Note_on_c, 1, 65, 100
2, 49068, Note_off_c, 0, 68, 64
2, 49080, Note_on_c, 0, 73, 100
2, 49176, Note_off_c, 1, 65, 64
2, 49176, Note_off_c, 4, 49, 64
2, 49176, Note_off_c, 4, 56, 64
2, 49176, Note_off_c, 4, 61, 64
2, 49188, Note_off_c, 0, 73, 64
2, 49200, Note_on_c, 4, 56, 100
2, 49200, Note_on_c, 4, 44, 100
2, 49200, Note_on_c, 0, 72, 100
2, 49200, Note_on_c, 1, 63, 100
2, 49416, Note_off_c, 1, 63, 64
2, 49416, Note_off_c, 4, 44, 64
2, 49416, Note_off_c, 4, 56, 64
2, 49440, Note_on_c, 4, 44, 100
2, 49440, Note_on_c, 4, 56, 100
2, 49440, Note_on_c, 1, 63, 100
2, 49632, Note_off_c, 0, 72, 64
2, 49656, Note_off_c, 1, 63, 64
2, 49656, Note_off_c, 4, 56, 64
2, 49656, Note_off_c, 4, 44, 64
2, 49680, Note_on_c, 4, 56, 100
2, 49680, Note_on_c, 4, 49, 100
2, 49680, Note_on_c, 0, 68, 100
2, 49680, Note_on_c, 1, 65, 100
2, 49734, Note_off_c, 0, 68, 64
2, 49740, Note_on_c, 0, 75, 100
2, 49794, Note_off_c, 0, 75, 64
2, 49800, Note_on_c, 0, 73, 100
2, 49896, Note_off_c, 1, 65, 64
2, 49896, Note_off_c, 4, 49, 64
2, 49896, Note_off_c, 4, 56, 64
2, 49908, Note_off_c, 0, 73, 64
2, 49920, Note_on_c, 4, 44, 100
2, 49920, Note_on_c, 4, 56, 100
2, 49920, Note_on_c, 0, 72, 100
2, 49920, Note_on_c, 1, 63, 100
2, 50136, Note_off_c, 1, 63, 64
2, 50136, Note_off_c, 4, 56, 64
2, 50136, Note_off_c, 4, 44, 64
2, 50160, Note_on_c, 4, 56, 100
2, 50160, Note_on_c, 4, 44, 100
2, 50160, Note_on_c, 1, 63, 100
2, 50352, Note_off_c, 0, 72, 64
2, 50376, Note_off_c, 1, 63, 64
2, 50376, Note_off_c, 4, 44, 64
2, 50376, Note_off_c, 4, 56, 64
2, 50400, Note_on_c, 4, 49, 100
2, 50400, Note_on_c, 4, 56, 100
2, 50400, Note_on_c, 0, 68, 100
2, 50400, Note_on_c, 1, 65, 100
2, 50508, Note_off_c, 0, 68, 64
2, 50520, Note_on_c, 0, 73, 100
2, 50616, Note_off_c, 1, 65, 64
2, 50616, Note_off_c, 4, 56, 64
2, 50616, Note_off_c, 4, 49, 64
2, 50628, Note_off_c, 0, 73, 64
2, 50640, Note_on_c, 4, 44, 100
2, 50640, Note_on_c, 4, 56, 100
2, 50640, Note_on_c, 1, 63, 100
2, 50640, Note_on_c, 0, 72, 100
2, 50856, Note_off_c, 0, 72, 64
2, 50856, Note_off_c, 1, 63, 64
2, 50856, Note_off_c, 4, 56, 64
2, 50856, Note_off_c, 4, 44, 64
2, 50880, Note_on_c, 4, 44, 100
2, 50880, Note_on_c, 4, 56, 100
2, 50880, Note_on_c, 0, 72, 100
2, 50880, Note_on_c, 1, 63, 100
2, 51096, Note_off_c, 1, 63, 64
2, 51096, Note_off_c, 0, 72, 64
2, 51096, Note_off_c, 4, 56, 64
2, 51096, Note_off_c, 4, 44, 64
2, 51120, Note_on_c, 4, 56, 100
2, 51120, Note_on_c, 0, 68, 100
2, 51120, Note_on_c, 1, 65, 100
2, 51120, Note_on_c, 4, 49, 100
2, 51228, Note_off_c, 0, 68, 64
2, 51240, Note_on_c, 0, 73, 100
2, 51336, Note_off_c, 4, 49, 64
2, 51336, Note_off_c, 1, 65, 64
2, 51336, Note_off_c, 4, 56, 64
2, 51348, Note_off_c, 0, 73, 64
2, 51360, Note_on_c, 0, 72, 100
2, 51360, Note_on_c, 1, 63, 100
2, 51360, Note_on_c, 4, 44, 100
2, 51360, Note_on_c, 4, 56, 100
2, 51576, Note_off_c, 4, 56, 64
2, 51576, Note_off_c, 4, 44, 64
2, 51576, Note_off_c, 1, 63, 64
2, 51576, Note_off_c, 0, 72, 64
2, 51600, Note_on_c, 4, 44, 100
2, 51600, Note_on_c, 4, 56, 100
2, 51600, Note_on_c, 1, 63, 100
2, 51708, Note_off_c, 1, 63, 64
2, 51720, Note_on_c, 1, 61, 100
2, 51816, Note_off_c, 4, 56, 64
2, 51816, Note_off_c, 4, 44, 64
2, 51828, Note_off_c, 1, 61, 64
2, 51840, Note_on_c, 0, 68, 100
2, 51840, Note_on_c, 1, 60, 100
2, 51840, Note_on_c, 4, 51, 100
2, 51840, Note_on_c, 4, 44, 100
2, 52056, Note_off_c, 4, 44, 64
2, 52056, Note_off_c, 4, 51, 64
2, 52056, Note_off_c, 1, 60, 64
2, 52056, Note_off_c, 0, 68, 64
2, 52080, Note_on_c, 0, 68, 100
2, 52080, Note_on_c, 4, 44, 100
2, 52080, Note_on_c, 4, 51, 100
2, 52080, Note_on_c, 1, 58, 100
2, 52296, Note_off_c, 1, 58, 64
2, 52320, Note_on_c, 1, 60, 100
2, 52428, Note_off_c, 1, 60, 64
2, 52440, Note_on_c, 1, 61, 100
2, 52512, Note_off_c, 4, 51, 64
2, 52512, Note_off_c, 4, 44, 64
2, 52512, Note_off_c, 0, 68, 64
2, 52548, Note_off_c, 1, 61, 64
2, 52560, Note_on_c, 4, 51, 100
2, 52560, Note_on_c, 4, 44, 100
2, 52560, Note_on_c, 0, 68, 100
2, 52560, Note_on_c, 1, 63, 100
2, 52668, Note_off_c, 1, 63, 64
2, 52680, Note_on_c, 1, 60, 100
2, 52776, Note_off_c, 0, 68, 64
2, 52776, Note_off_c, 4, 44, 64
2, 52776, Note_off_c, 4, 51, 64
2, 52788, Note_off_c, 1, 60, 64
2, 52800, Note_on_c, 4, 51, 100
2, 52800, Note_on_c, 4, 44, 100
2, 52800, Note_on_c, 0, 68, 100
2, 52800, Note_on_c, 1, 61, 100
2, 53124, Note_off_c, 1, 61, 64
2, 53160, Note_on_c, 1, 58, 100
2, 53232, Note_off_c, 0, 68, 64
2, 53232, Note_off_c, 4, 44, 64
2, 53232, Note_off_c, 4, 51, 64
2, 53268, Note_off_c, 1, 58, 64
2, 53280, Note_on_c, 0, 68, 100
2, 53280, Note_on_c, 1, 60, 100
2, 53280, Note_on_c, 4, 51, 100
2, 53280, Note_on_c, 4, 44, 100
2, 53352, Note_off_c, 1, 60, 64
2, 53360, Note_on_c, 1, 61, 100
2, 53432, Note_off_c, 1, 61, 64
2, 53440, Note_on_c, 1, 60, 100
2, 53496, Note_off_c, 4, 44, 64
2, 53496, Note_off_c, 4, 51, 64
2, 53496, Note_off_c, 0, 68, 64
2, 53512, Note_off_c, 1, 60, 64
2, 53520, Note_on_c, 0, 68, 100
2, 53520, Note_on_c, 4, 51, 100
2, 53520, Note_on_c, 4, 44, 100
2, 53520, Note_on_c, 1, 58, 100
2, 53736, Note_off_c, 1, 58, 64
2, 53760, Note_on_c, 1, 60, 100
2, 53868, Note_off_c, 1, 60, 64
2, 53880, Note_on_c, 1, 61, 100
2, 53952, Note_off_c, 4, 44, 64
2, 53952, Note_off_c, 4, 51, 64
2, 53952, Note_off_c, 0, 68, 64
2, 53988, Note_off_c, 1, 61, 64
2, 54000, Note_on_c, 4, 51, 100
2, 54000, Note_on_c, 4, 44, 100
2, 54000, Note_on_c, 0, 68, 100
2, 54000, Note_on_c, 1, 63, 100
2, 54072, Note_off_c, 1, 63, 64
2, 54080, Note_on_c, 1, 66, 100
2, 54152, Note_off_c, 1, 66, 64
2, 54160, Note_on_c, 1, 64, 100
2, 54216, Note_off_c, 0, 68, 64
2, 54216, Note_off_c, 4, 44, 64
2, 54216, Note_off_c, 4, 51, 64
2, 54232, Note_off_c, 1, 64, 64
2, 54240, Note_on_c, 4, 51, 100
2, 54240, Note_on_c, 4, 44, 100
2, 54240, Note_on_c, 0, 68, 100
2, 54240, Note_on_c, 1, 63, 100
2, 54672, Note_off_c, 1, 63, 64
2, 54672, Note_off_c, 0, 68, 64
2, 54672, Note_off_c, 4, 44, 64
2, 54672, Note_off_c, 4, 51, 64
2, 54720, Note_on_c, 4, 44, 100
2, 54720, Note_on_c, 0, 68, 100
2, 54720, Note_on_c, 1, 60, 100
2, 54720, Note_on_c, 4, 51, 100
2, 54720, Note_on_c, 4, 44, 100
2, 54720, Note_on_c, 4, 51, 100
2, 54792, Note_off_c, 1, 60, 64
2, 54800, Note_on_c, 1, 61, 100
2, 54872, Note_off_c, 1, 61, 64
2, 54880, Note_on_c, 1, 60, 100
2, 54936, Note_off_c, 4, 51, 64
2, 54936, Note_off_c, 4, 44, 64
2, 54936, Note_off_c, 4, 51, 64
2, 54936, Note_off_c, 0, 68, 64
2, 54936, Note_off_c, 4, 44, 64
2, 54952, Note_off_c, 1, 60, 64
2, 54960, Note_on_c, 1, 58, 100
2, 54960, Note_on_c, 0, 68, 100
2, 54960, Note_on_c, 4, 51, 100
2, 54960, Note_on_c, 4, 44, 100
2, 55176, Note_off_c, 4, 44, 64
2, 55176, Note_off_c, 4, 51, 64
2, 55176, Note_off_c, 0, 68, 64
2, 55176, Note_off_c, 1, 58, 64
2, 55200, Note_on_c, 4, 51, 100
2, 55200, Note_on_c, 4, 44, 100
2, 55200, Note_on_c, 0, 68, 100
2, 55200, Note_on_c, 1, 60, 100
2, 55308, Note_off_c, 1, 60, 64
2, 55320, Note_on_c, 1, 61, 100
2, 55416, Note_off_c, 0, 68, 64
2, 55416, Note_off_c, 4, 44, 64
2, 55416, Note_off_c, 4, 51, 64
2, 55428, Note_off_c, 1, 61, 64
2, 55440, Note_on_c, 0, 68, 100
2, 55440, Note_on_c, 1, 63, 100
2, 55440, Note_on_c, 4, 51, 100
2, 55440, Note_on_c, 4, 44, 100
2, 55548, Note_off_c, 1, 63, 64
2, 55560, Note_on_c, 1, 60, 100
2, 55614, Note_off_c, 1, 60, 64
2, 55620, Note_on_c, 1, 63, 100
2, 55656, Note_off_c, 4, 44, 64
2, 55656, Note_off_c, 4, 51, 64
2, 55656, Note_off_c, 0, 68, 64
2, 55674, Note_off_c, 1, 63, 64
2, 55680, Note_on_c, 1, 61, 100
2, 55680, Note_on_c, 0, 68, 100
2, 55680, Note_on_c, 4, 44, 100
2, 55680, Note_on_c, 4, 51, 100
2, 55788, Note_off_c, 1, 61, 64
2, 55800, Note_on_c, 1, 60, 100
2, 55896, Note_off_c, 4, 51, 64
2, 55896, Note_off_c, 4, 44, 64
2, 55896, Note_off_c, 0, 68, 64
2, 55908, Note_off_c, 1, 60, 64
2, 55920, Note_on_c, 4, 44, 100
2, 55920, Note_on_c, 4, 51, 100
2, 55920, Note_on_c, 0, 68, 100
2, 55920, Note_on_c, 1, 61, 100
2, 56028, Note_off_c, 1, 61, 64
2, 56040, Note_on_c, 1, 58, 100
2, 56136, Note_off_c, 0, 68, 64
2, 56136, Note_off_c, 4, 51, 64
2, 56136, Note_off_c, 4, 44, 64
2, 56148, Note_off_c, 1, 58, 64
2, 56160, Note_on_c, 4, 51, 100
2, 56160, Note_on_c, 0, 68, 100
2, 56160, Note_on_c, 1, 60, 100
2, 56160, Note_on_c, 4, 44, 100
2, 56232, Note_off_c, 1, 60, 64
2, 56240, Note_on_c, 1, 61, 100
2, 56312, Note_off_c, 1, 61, 64
2, 56320, Note_on_c, 1, 60, 100
2, 56376, Note_off_c, 4, 44, 64
2, 56376, Note_off_c, 0, 68, 64
2, 56376, Note_off_c, 4, 51, 64
2, 56392, Note_off_c, 1, 60, 64
2, 56400, Note_on_c, 1, 58, 100
2, 56400, Note_on_c, 0, 68, 100
2, 56400, Note_on_c, 4, 44, 100
2, 56400, Note_on_c, 4, 51, 100
2, 56616, Note_off_c, 4, 51, 64
2, 56616, Note_off_c, 4, 44, 64
2, 56616, Note_off_c, 0, 68, 64
2, 56616, Note_off_c, 1, 58, 64
2, 56640, Note_on_c, 4, 44, 100
2, 56640, Note_on_c, 4, 51, 100
2, 56640, Note_on_c, 0, 68, 100
2, 56640, Note_on_c, 0, 60, 100
2, 56748, Note_off_c, 0, 60, 64
2, 56748, Note_off_c, 0, 68, 64
2, 56760, Note_on_c, 0, 61, 100
2, 56760, Note_on_c, 0, 68, 100
2, 56856, Note_off_c, 4, 51, 64
2, 56856, Note_off_c, 4, 44, 64
2, 56868, Note_off_c, 0, 68, 64
2, 56868, Note_off_c, 0, 61, 64
2, 56880, Note_on_c, 4, 44, 100
2, 56880, Note_on_c, 4, 51, 100
2, 56880, Note_on_c, 0, 63, 100
2, 56880, Note_on_c, 0, 68, 100
2, 56952, Note_off_c, 0, 68, 64
2, 56952, Note_off_c, 0, 63, 64
2, 56960, Note_on_c, 0, 68, 100
2, 56960, Note_on_c, 0, 66, 100
2, 57032, Note_off_c, 0, 66, 64
2, 57032, Note_off_c, 0, 68, 64
2, 57040, Note_on_c, 0, 68, 100
2, 57040, Note_on_c, 0, 64, 100
2, 57096, Note_off_c, 4, 51, 64
2, 57096, Note_off_c, 4, 44, 64
2, 57112, Note_off_c, 0, 64, 64
2, 57112, Note_off_c, 0, 68, 64
2, 57120, Note_on_c, 4, 51, 100
2, 57120, Note_on_c, 4, 44, 100
2, 57120, Note_on_c, 0, 68, 100
2, 57120, Note_on_c, 0, 63, 100
2, 57336, Note_off_c, 0, 63, 64
2, 57336, Note_off_c, 0, 68, 64
2, 57336, Note_off_c, 4, 44, 64
2, 57336, Note_off_c, 4, 51, 64
2, 57360, Note_on_c, 0, 68, 100
2, 57576, Note_off_c, 0, 68, 64
2, 57600, Note_on_c, 4, 48, 100
2, 57600, Note_on_c, 0, 80, 100
2, 57708, Note_off_c, 0, 80, 64
2, 57780, Note_on_c, 0, 81, 100
2, 57816, Note_off_c, 4, 48, 64
2, 57834, Note_off_c, 0, 81, 64
2, 57840, Note_on_c, 4, 56, 100
2, 57840, Note_on_c, 4, 66, 100
2, 57840, Note_on_c, 4, 63, 100
2, 57840, Note_on_c, 0, 78, 100
2, 58056, Note_off_c, 4, 63, 64
2, 58056, Note_off_c, 4, 66, 64
2, 58056, Note_off_c, 4, 56, 64
2, 58080, Note_on_c, 4, 56, 100
2, 58080, Note_on_c, 4, 66, 100
2, 58080, Note_on_c, 4, 63, 100
2, 58164, Note_off_c, 0, 78, 64
2, 58200, Note_on_c, 0, 80, 100
2, 58296, Note_off_c, 4, 63, 64
2, 58296, Note_off_c, 4, 66, 64
2, 58296, Note_off_c, 4, 56, 64
2, 58308, Note_off_c, 0, 80, 64
2, 58320, Note_on_c, 4, 49, 100
2, 58320, Note_on_c, 0, 76, 100
2, 58482, Note_off_c, 0, 76, 64
2, 58500, Note_on_c, 0, 80, 100
2, 58536, Note_off_c, 4, 49, 64
2, 58554, Note_off_c, 0, 80, 64
2, 58560, Note_on_c, 4, 61, 100
2, 58560, Note_on_c, 4, 64, 100
2, 58560, Note_on_c, 4, 56, 100
2, 58560, Note_on_c, 0, 73, 100
2, 58776, Note_off_c, 0, 73, 64
2, 58776, Note_off_c, 4, 56, 64
2, 58776, Note_off_c, 4, 64, 64
2, 58776, Note_off_c, 4, 61, 64
2, 58800, Note_on_c, 4, 56, 100
2, 58800, Note_on_c, 4, 61, 100
2, 58800, Note_on_c, 4, 64, 100
2, 58800, Note_on_c, 0, 76, 100
2, 59016, Note_off_c, 0, 76, 64
2, 59016, Note_off_c, 4, 64, 64
2, 59016, Note_off_c, 4, 61, 64
2, 59016, Note_off_c, 4, 56, 64
2, 59040, Note_on_c, 4, 48, 100
2, 59040, Note_on_c, 0, 80, 100
2, 59148, Note_off_c, 0, 80, 64
2, 59220, Note_on_c, 0, 81, 100
2, 59256, Note_off_c, 4, 48, 64
2, 59274, Note_off_c, 0, 81, 64
2, 59280, Note_on_c, 4, 56, 100
2, 59280, Note_on_c, 4, 66, 100
2, 59280, Note_on_c, 4, 63, 100
2, 59280, Note_on_c, 0, 78, 100
2, 59496, Note_off_c, 0, 78, 64
2, 59496, Note_off_c, 4, 63, 64
2, 59496, Note_off_c, 4, 66, 64
2, 59496, Note_off_c, 4, 56, 64
2, 59520, Note_on_c, 4, 56, 100
2, 59520, Note_on_c, 4, 66, 100
2, 59520, Note_on_c, 4, 63, 100
2, 59520, Note_on_c, 0, 80, 100
2, 59736, Note_off_c, 0, 80, 64
2, 59736, Note_off_c, 4, 63, 64
2, 59736, Note_off_c, 4, 66, 64
2, 59736, Note_off_c, 4, 56, 64
2, 59760, Note_on_c, 4, 49, 100
2, 59760, Note_on_c, 0, 76, 100
2, 59832, Note_off_c, 0, 76, 64
2, 59840, Note_on_c, 0, 78, 100
2, 59912, Note_off_c, 0, 78, 64
2, 59920, Note_on_c, 0, 80, 100
2, 59956, Note_off_c, 0, 80, 64
2, 59960, Note_on_c, 0, 80, 100
2, 59976, Note_off_c, 4, 49, 64
2, 59996, Note_off_c, 0, 80, 64
2, 60000, Note_on_c, 4, 64, 100
2, 60000, Note_on_c, 4, 56, 100
2, 60000, Note_on_c, 4, 61, 100
2, 60000, Note_on_c, 0, 73, 100
2, 60216, Note_off_c, 4, 61, 64
2, 60216, Note_off_c, 4, 56, 64
2, 60216, Note_off_c, 4, 64, 64
2, 60324, Note_off_c, 0, 73, 64
2, 60360, Note_on_c, 0, 74, 100
2, 60468, Note_off_c, 0, 74, 64
2, 60480, Note_on_c, 4, 43, 100
2, 60480, Note_on_c, 0, 75, 100
2, 60588, Note_off_c, 0, 75, 64
2, 60660, Note_on_c, 0, 76, 100
2, 60696, Note_off_c, 4, 43, 64
2, 60714, Note_off_c, 0, 76, 64
2, 60720, Note_on_c, 4, 51, 100
2, 60720, Note_on_c, 4, 61, 100
2, 60720, Note_on_c, 4, 58, 100
2, 60720, Note_on_c, 0, 73, 100
2, 60936, Note_off_c, 4, 58, 64
2, 60936, Note_off_c, 4, 61, 64
2, 60936, Note_off_c, 4, 51, 64
2, 60960, Note_on_c, 4, 51, 100
2, 60960, Note_on_c, 4, 61, 100
2, 60960, Note_on_c, 4, 58, 100
2, 61044, Note_off_c, 0, 73, 64
2, 61080, Note_on_c, 0, 75, 100
2, 61176, Note_off_c, 4, 58, 64
2, 61176, Note_off_c, 4, 61, 64
2, 61176, Note_off_c, 4, 51, 64
2, 61188, Note_off_c, 0, 75, 64
2, 61200, Note_on_c, 0, 72, 100
2, 61200, Note_on_c, 4, 44, 100
2, 61362, Note_off_c, 0, 72, 64
2, 61380, Note_on_c, 0, 75, 100
2, 61416, Note_off_c, 4, 44, 64
2, 61434, Note_off_c, 0, 75, 64
2, 61440, Note_on_c, 4, 60, 100
2, 61440, Note_on_c, 0, 68, 100
2, 61440, Note_on_c, 4, 54, 100
2, 61440, Note_on_c, 4, 51, 100
2, 61656, Note_off_c, 4, 51, 64
2, 61656, Note_off_c, 4, 54, 64
2, 61656, Note_off_c, 0, 68, 64
2, 61656, Note_off_c, 4, 60, 64
2, 61680, Note_on_c, 4, 54, 100
2, 61680, Note_on_c, 4, 51, 100
2, 61680, Note_on_c, 4, 60, 100
2, 61680, Note_on_c, 0, 69, 100
2, 61716, Note_off_c, 0, 69, 64
2, 61720, Note_on_c, 0, 71, 100
2, 61756, Note_off_c, 0, 71, 64
2, 61760, Note_on_c, 0, 69, 100
2, 61796, Note_off_c, 0, 69, 64
2, 61800, Note_on_c, 0, 71, 100
2, 61836, Note_off_c, 0, 71, 64
2, 61840, Note_on_c, 0, 69, 100
2, 61876, Note_off_c, 0, 69, 64
2, 61880, Note_on_c, 0, 71, 100
2, 61896, Note_off_c, 4, 60, 64
2, 61896, Note_off_c, 4, 51, 64
2, 61896, Note_off_c, 4, 54, 64
2, 61916, Note_off_c, 0, 71, 64
2, 61920, Note_on_c, 0, 68, 100
2, 61920, Note_on_c, 4, 44, 100
2, 62028, Note_off_c, 0, 68, 64
2, 62100, Note_on_c, 0, 66, 100
2, 62136, Note_off_c, 4, 44, 64
2, 62154, Note_off_c, 0, 66, 64
2, 62160, Note_on_c, 4, 60, 100
2, 62160, Note_on_c, 0, 63, 100
2, 62160, Note_on_c, 4, 54, 100
2, 62160, Note_on_c, 4, 51, 100
2, 62376, Note_off_c, 4, 51, 64
2, 62376, Note_off_c, 4, 54, 64
2, 62376, Note_off_c, 0, 63, 64
2, 62376, Note_off_c, 4, 60, 64
2, 62400, Note_on_c, 4, 54, 100
2, 62400, Note_on_c, 4, 51, 100
2, 62400, Note_on_c, 4, 60, 100
2, 62400, Note_on_c, 0, 68, 100
2, 62562, Note_off_c, 0, 68, 64
2, 62580, Note_on_c, 0, 68, 100
2, 62616, Note_off_c, 4, 60, 64
2, 62616, Note_off_c, 4, 51, 64
2, 62616, Note_off_c, 4, 54, 64
2, 62634, Note_off_c, 0, 68, 64
2, 62640, Note_on_c, 4, 37, 100
2, 62640, Note_on_c, 0, 61, 100
2, 62856, Note_off_c, 4, 37, 64
2, 62880, Note_on_c, 4, 49, 100
2, 62880, Note_on_c, 4, 56, 100
2, 62880, Note_on_c, 4, 64, 100
2, 63072, Note_off_c, 0, 61, 64
2, 63096, Note_off_c, 4, 64, 64
2, 63096, Note_off_c, 4, 56, 64
2, 63096, Note_off_c, 4, 49, 64
2, 63120, Note_on_c, 0, 68, 100
2, 63336, Note_off_c, 0, 68, 64
2, 63360, Note_on_c, 4, 48, 100
2, 63360, Note_on_c, 0, 80, 100
2, 63468, Note_off_c, 0, 80, 64
2, 63480, Note_on_c, 0, 81, 100
2, 63576, Note_off_c, 4, 48, 64
2, 63588, Note_off_c, 0, 81, 64
2, 63600, Note_on_c, 4, 56, 100
2, 63600, Note_on_c, 4, 66, 100
2, 63600, Note_on_c, 4, 63, 100
2, 63600, Note_on_c, 0, 78, 100
2, 63816, Note_off_c, 0, 78, 64
2, 63816, Note_off_c, 4, 63, 64
2, 63816, Note_off_c, 4, 66, 64
2, 63816, Note_off_c, 4, 56, 64
2, 63840, Note_on_c, 4, 56, 100
2, 63840, Note_on_c, 4, 66, 100
2, 63840, Note_on_c, 4, 63, 100
2, 63840, Note_on_c, 0, 80, 100
2, 64056, Note_off_c, 0, 80, 64
2, 64056, Note_off_c, 4, 63, 64
2, 64056, Note_off_c, 4, 66, 64
2, 64056, Note_off_c, 4, 56, 64
2, 64080, Note_on_c, 4, 49, 100
2, 64080, Note_on_c, 0, 76, 100
2, 64188, Note_off_c, 0, 76, 64
2, 64200, Note_on_c, 0, 80, 100
2, 64296, Note_off_c, 4, 49, 64
2, 64308, Note_off_c, 0, 80, 64
2, 64320, Note_on_c, 4, 56, 100
2, 64320, Note_on_c, 4, 64, 100
2, 64320, Note_on_c, 4, 61, 100
2, 64320, Note_on_c, 0, 73, 100
2, 64536, Note_off_c, 0, 73, 64
2, 64536, Note_off_c, 4, 61, 64
2, 64536, Note_off_c, 4, 64, 64
2, 64536, Note_off_c, 4, 56, 64
2, 64560, Note_on_c, 4, 56, 100
2, 64560, Note_on_c, 4, 61, 100
2, 64560, Note_on_c, 4, 64, 100
2, 64560, Note_on_c, 0, 76, 100
2, 64776, Note_off_c, 0, 76, 64
2, 64776, Note_off_c, 4, 64, 64
2, 64776, Note_off_c, 4, 61, 64
2, 64776, Note_off_c, 4, 56, 64
2, 64800, Note_on_c, 0, 80, 100
2, 64800, Note_on_c, 4, 48, 100
2, 64836, Note_off_c, 0, 80, 64
2, 64840, Note_on_c, 0, 83, 100
2, 64876, Note_off_c, 0, 83, 64
2, 64880, Note_on_c, 0, 81, 100
2, 64952, Note_off_c, 0, 81, 64
2, 65000, Note_on_c, 0, 80, 100
2, 65016, Note_off_c, 4, 48, 64
2, 65036, Note_off_c, 0, 80, 64
2, 65040, Note_on_c, 4, 63, 100
2, 65040, Note_on_c, 0, 75, 100
2, 65040, Note_on_c, 4, 56, 100
2, 65040, Note_on_c, 4, 66, 100
2, 65256, Note_off_c, 4, 66, 64
2, 65256, Note_off_c, 4, 56, 64
2, 65256, Note_off_c, 0, 75, 64
2, 65256, Note_off_c, 4, 63, 64
2, 65280, Note_on_c, 4, 56, 100
2, 65280, Note_on_c, 4, 66, 100
2, 65280, Note_on_c, 4, 63, 100
2, 65280, Note_on_c, 0, 80, 100
2, 65442, Note_off_c, 0, 80, 64
2, 65460, Note_on_c, 0, 80, 100
2, 65496, Note_off_c, 4, 63, 64
2, 65496, Note_off_c, 4, 66, 64
2, 65496, Note_off_c, 4, 56, 64
2, 65514, Note_off_c, 0, 80, 64
2, 65520, Note_on_c, 4, 49, 100
2, 65520, Note_on_c, 0, 76, 100
2, 65592, Note_off_c, 0, 76, 64
2, 65600, Note_on_c, 0, 78, 100
2, 65672, Note_off_c, 0, 78, 64
2, 65680, Note_on_c, 0, 80, 100
2, 65716, Note_off_c, 0, 80, 64
2, 65720, Note_on_c, 0, 80, 100
2, 65736, Note_off_c, 4, 49, 64
2, 65756, Note_off_c, 0, 80, 64
2, 65760, Note_on_c, 4, 56, 100
2, 65760, Note_on_c, 4, 64, 100
2, 65760, Note_on_c, 4, 61, 100
2, 65760, Note_on_c, 0, 73, 100
2, 65976, Note_off_c, 4, 61, 64
2, 65976, Note_off_c, 4, 64, 64
2, 65976, Note_off_c, 4, 56, 64
2, 66084, Note_off_c, 0, 73, 64
2, 66120, Note_on_c, 0, 74, 100
2, 66228, Note_off_c, 0, 74, 64
2, 66240, Note_on_c, 4, 43, 100
2, 66240, Note_on_c, 0, 75, 100
2, 66348, Note_off_c, 0, 75, 64
2, 66420, Note_on_c, 0, 76, 100
2, 66456, Note_off_c, 4, 43, 64
2, 66474, Note_off_c, 0, 76, 64
2, 66480, Note_on_c, 4, 51, 100
2, 66480, Note_on_c, 4, 61, 100
2, 66480, Note_on_c, 4, 58, 100
2, 66480, Note_on_c, 0, 73, 100
2, 66696, Note_off_c, 0, 73, 64
2, 66696, Note_off_c, 4, 58, 64
2, 66696, Note_off_c, 4, 61, 64
2, 66696, Note_off_c, 4, 51, 64
2, 66720, Note_on_c, 4, 51, 100
2, 66720, Note_on_c, 4, 58, 100
2, 66720, Note_on_c, 4, 61, 100
2, 66720, Note_on_c, 0, 75, 100
2, 66936, Note_off_c, 0, 75, 64
2, 66936, Note_off_c, 4, 61, 64
2, 66936, Note_off_c, 4, 58, 64
2, 66936, Note_off_c, 4, 51, 64
2, 66960, Note_on_c, 0, 72, 100
2, 66960, Note_on_c, 4, 44, 100
2, 67068, Note_off_c, 0, 72, 64
2, 67140, Note_on_c, 0, 75, 100
2, 67176, Note_off_c, 4, 44, 64
2, 67194, Note_off_c, 0, 75, 64
2, 67200, Note_on_c, 4, 51, 100
2, 67200, Note_on_c, 0, 68, 100
2, 67200, Note_on_c, 4, 54, 100
2, 67200, Note_on_c, 4, 60, 100
2, 67416, Note_off_c, 4, 60, 64
2, 67416, Note_off_c, 4, 54, 64
2, 67416, Note_off_c, 0, 68, 64
2, 67416, Note_off_c, 4, 51, 64
2, 67440, Note_on_c, 0, 69, 100
2, 67476, Note_off_c, 0, 69, 64
2, 67480, Note_on_c, 0, 71, 100
2, 67516, Note_off_c, 0, 71, 64
2, 67520, Note_on_c, 0, 69, 100
2, 67556, Note_off_c, 0, 69, 64
2, 67560, Note_on_c, 0, 71, 100
2, 67596, Note_off_c, 0, 71, 64
2, 67600, Note_on_c, 0, 69, 100
2, 67636, Note_off_c, 0, 69, 64
2, 67640, Note_on_c, 0, 71, 100
2, 67676, Note_off_c, 0, 71, 64
2, 67680, Note_on_c, 0, 68, 100
2, 67680, Note_on_c, 4, 44, 100
2, 67788, Note_off_c, 0, 68, 64
2, 67860, Note_on_c, 0, 66, 100
2, 67896, Note_off_c, 4, 44, 64
2, 67914, Note_off_c, 0, 66, 64
2, 67920, Note_on_c, 4, 60, 100
2, 67920, Note_on_c, 0, 63, 100
2, 67920, Note_on_c, 4, 51, 100
2, 67920, Note_on_c, 4, 54, 100
2, 68136, Note_off_c, 4, 54, 64
2, 68136, Note_off_c, 4, 51, 64
2, 68136, Note_off_c, 0, 63, 64
2, 68136, Note_off_c, 4, 60, 64
2, 68160, Note_on_c, 4, 54, 100
2, 68160, Note_on_c, 4, 60, 100
2, 68160, Note_on_c, 4, 51, 100
2, 68160, Note_on_c, 0, 68, 100
2, 68322, Note_off_c, 0, 68, 64
2, 68340, Note_on_c, 0, 68, 100
2, 68376, Note_off_c, 4, 51, 64
2, 68376, Note_off_c, 4, 60, 64
2, 68376, Note_off_c, 4, 54, 64
2, 68394, Note_off_c, 0, 68, 64
2, 68400, Note_on_c, 4, 37, 100
2, 68400, Note_on_c, 0, 61, 100
2, 68616, Note_off_c, 4, 37, 64
2, 68640, Note_on_c, 4, 49, 100
2, 68640, Note_on_c, 4, 56, 100
2, 68640, Note_on_c, 4, 64, 100
2, 68856, Note_off_c, 4, 64, 64
2, 68856, Note_off_c, 4, 56, 64
2, 68856, Note_off_c, 4, 49, 64
2, 69048, Note_off_c, 0, 61, 64
2, 69048, End_track
0, 0, End_of_file
