0, 0, Header, 1, 4, 120
1, 0, Start_track
1, 0, Time_signature, 4, 2, 24, 8
1, 0, Key_signature, 0, "major"
1, 0, Tempo, 600000
1, 0, End_track
2, 0, Start_track
2, 0, MIDI_port, 0
2, 0, Title_t, "Nocturne op9nr1"
2, 0, Control_c, 0, 0, 0
2, 0, Program_c, 0, 0
2, 0, Control_c, 0, 7, 127
2, 176, Note_on_c, 0, 82, 57
2, 290, Note_on_c, 0, 84, 63
2, 298, Note_on_c, 0, 82, 0
2, 420, Note_on_c, 0, 84, 0
2, 422, Note_on_c, 0, 85, 58
2, 550, Note_on_c, 0, 85, 0
2, 561, Note_on_c, 0, 81, 46
2, 663, Note_on_c, 0, 82, 57
2, 684, Note_on_c, 0, 81, 0
2, 719, Control_c, 0, 64, 127
2, 752, Note_on_c, 0, 78, 60
2, 766, Note_on_c, 0, 82, 0
2, 833, Note_on_c, 0, 46, 54
2, 838, Control_c, 0, 64, 0
2, 839, Note_on_c, 0, 77, 71
2, 846, Note_on_c, 0, 78, 0
2, 915, Control_c, 0, 64, 127
2, 922, Note_on_c, 0, 77, 0
2, 936, Note_on_c, 0, 53, 37
2, 971, Note_on_c, 0, 46, 0
2, 994, Note_on_c, 0, 53, 0
2, 1011, Note_on_c, 0, 77, 61
2, 1014, Note_on_c, 0, 61, 57
2, 1053, Note_on_c, 0, 77, 0
2, 1076, Note_on_c, 0, 61, 0
2, 1081, Note_on_c, 0, 58, 45
2, 1142, Note_on_c, 0, 77, 73
2, 1150, Note_on_c, 0, 65, 33
2, 1160, Note_on_c, 0, 77, 0
2, 1165, Note_on_c, 0, 65, 0
2, 1196, Note_on_c, 0, 58, 0
2, 1207, Note_on_c, 0, 53, 58
2, 1222, Note_on_c, 0, 53, 0
2, 1272, Note_on_c, 0, 46, 60
2, 1273, Note_on_c, 0, 77, 64
2, 1284, Control_c, 0, 64, 0
2, 1332, Control_c, 0, 64, 127
2, 1336, Note_on_c, 0, 53, 55
2, 1350, Note_on_c, 0, 46, 0
2, 1371, Note_on_c, 0, 53, 0
2, 1394, Note_on_c, 0, 77, 0
2, 1396, Note_on_c, 0, 78, 55
2, 1398, Note_on_c, 0, 63, 48
2, 1439, Note_on_c, 0, 63, 0
2, 1458, Note_on_c, 0, 77, 60
2, 1461, Note_on_c, 0, 57, 58
2, 1466, Note_on_c, 0, 78, 0
2, 1468, Note_on_c, 0, 57, 0
2, 1517, Note_on_c, 0, 65, 54
2, 1524, Note_on_c, 0, 75, 65
2, 1528, Note_on_c, 0, 77, 0
2, 1548, Note_on_c, 0, 65, 0
2, 1576, Note_on_c, 0, 75, 0
2, 1577, Note_on_c, 0, 53, 47
2, 1581, Note_on_c, 0, 72, 70
2, 1590, Note_on_c, 0, 53, 0
2, 1598, Note_on_c, 0, 72, 0
2, 1644, Note_on_c, 0, 73, 75
2, 1644, Note_on_c, 0, 46, 53
2, 1656, Control_c, 0, 64, 0
2, 1706, Control_c, 0, 64, 127
2, 1708, Note_on_c, 0, 53, 44
2, 1752, Note_on_c, 0, 46, 0
2, 1754, Note_on_c, 0, 53, 0
2, 1772, Note_on_c, 0, 61, 42
2, 1818, Note_on_c, 0, 61, 0
2, 1834, Note_on_c, 0, 58, 42
2, 1895, Note_on_c, 0, 65, 44
2, 1900, Note_on_c, 0, 73, 0
2, 1906, Note_on_c, 0, 70, 36
2, 1919, Note_on_c, 0, 70, 0
2, 1935, Note_on_c, 0, 65, 0
2, 1952, Note_on_c, 0, 58, 0
2, 1965, Note_on_c, 0, 53, 32
2, 1982, Note_on_c, 0, 53, 0
2, 2035, Note_on_c, 0, 46, 44
2, 2038, Note_on_c, 0, 82, 67
2, 2056, Control_c, 0, 64, 0
2, 2109, Control_c, 0, 64, 127
2, 2110, Note_on_c, 0, 53, 51
2, 2120, Note_on_c, 0, 84, 66
2, 2151, Note_on_c, 0, 46, 0
2, 2158, Note_on_c, 0, 82, 0
2, 2166, Note_on_c, 0, 53, 0
2, 2175, Note_on_c, 0, 61, 49
2, 2179, Note_on_c, 0, 85, 74
2, 2183, Note_on_c, 0, 84, 0
2, 2208, Note_on_c, 0, 85, 0
2, 2217, Note_on_c, 0, 81, 62
2, 2226, Note_on_c, 0, 61, 0
2, 2234, Note_on_c, 0, 58, 52
2, 2239, Note_on_c, 0, 81, 0
2, 2245, Note_on_c, 0, 82, 66
2, 2274, Note_on_c, 0, 81, 55
2, 2283, Note_on_c, 0, 82, 0
2, 2292, Note_on_c, 0, 81, 0
2, 2294, Note_on_c, 0, 80, 60
2, 2304, Note_on_c, 0, 65, 62
2, 2311, Note_on_c, 0, 80, 0
2, 2320, Note_on_c, 0, 81, 61
2, 2342, Note_on_c, 0, 84, 60
2, 2347, Note_on_c, 0, 81, 0
2, 2356, Note_on_c, 0, 65, 0
2, 2372, Note_on_c, 0, 53, 45
2, 2373, Note_on_c, 0, 58, 0
2, 2376, Note_on_c, 0, 82, 65
2, 2395, Note_on_c, 0, 53, 0
2, 2418, Note_on_c, 0, 84, 0
2, 2420, Note_on_c, 0, 78, 68
2, 2425, Note_on_c, 0, 82, 0
2, 2450, Note_on_c, 0, 46, 61
2, 2469, Note_on_c, 0, 78, 0
2, 2470, Note_on_c, 0, 77, 71
2, 2470, Control_c, 0, 64, 0
2, 2512, Note_on_c, 0, 78, 76
2, 2517, Note_on_c, 0, 77, 0
2, 2525, Note_on_c, 0, 53, 54
2, 2530, Control_c, 0, 64, 127
2, 2552, Note_on_c, 0, 76, 62
2, 2553, Note_on_c, 0, 78, 0
2, 2570, Note_on_c, 0, 46, 0
2, 2579, Note_on_c, 0, 76, 0
2, 2583, Note_on_c, 0, 53, 0
2, 2588, Note_on_c, 0, 61, 59
2, 2589, Note_on_c, 0, 77, 71
2, 2629, Note_on_c, 0, 82, 59
2, 2633, Note_on_c, 0, 61, 0
2, 2636, Note_on_c, 0, 77, 0
2, 2640, Note_on_c, 0, 58, 59
2, 2661, Note_on_c, 0, 82, 0
2, 2668, Note_on_c, 0, 81, 57
2, 2694, Note_on_c, 0, 81, 0
2, 2695, Note_on_c, 0, 80, 70
2, 2700, Note_on_c, 0, 65, 53
2, 2715, Note_on_c, 0, 80, 0
2, 2720, Note_on_c, 0, 79, 66
2, 2738, Note_on_c, 0, 79, 0
2, 2739, Note_on_c, 0, 78, 63
2, 2744, Note_on_c, 0, 65, 0
2, 2755, Note_on_c, 0, 58, 0
2, 2760, Note_on_c, 0, 53, 35
2, 2764, Note_on_c, 0, 77, 69
2, 2765, Note_on_c, 0, 78, 0
2, 2780, Note_on_c, 0, 53, 0
2, 2786, Note_on_c, 0, 77, 0
2, 2793, Note_on_c, 0, 76, 57
2, 2818, Note_on_c, 0, 76, 0
2, 2820, Note_on_c, 0, 75, 71
2, 2823, Note_on_c, 0, 46, 63
2, 2836, Control_c, 0, 64, 0
2, 2850, Note_on_c, 0, 75, 0
2, 2857, Note_on_c, 0, 74, 59
2, 2863, Control_c, 0, 64, 127
2, 2884, Note_on_c, 0, 74, 0
2, 2884, Note_on_c, 0, 53, 55
2, 2884, Note_on_c, 0, 73, 69
2, 2895, Note_on_c, 0, 46, 0
2, 2906, Note_on_c, 0, 73, 0
2, 2912, Note_on_c, 0, 72, 58
2, 2923, Note_on_c, 0, 53, 0
2, 2928, Note_on_c, 0, 72, 0
2, 2936, Note_on_c, 0, 73, 58
2, 2938, Note_on_c, 0, 63, 57
2, 2954, Note_on_c, 0, 73, 0
2, 2958, Note_on_c, 0, 72, 54
2, 2978, Note_on_c, 0, 72, 0
2, 2987, Note_on_c, 0, 63, 0
2, 2989, Note_on_c, 0, 71, 57
2, 2996, Note_on_c, 0, 57, 60
2, 3008, Note_on_c, 0, 71, 0
2, 3010, Note_on_c, 0, 72, 61
2, 3027, Note_on_c, 0, 72, 0
2, 3042, Note_on_c, 0, 72, 59
2, 3057, Note_on_c, 0, 65, 53
2, 3074, Note_on_c, 0, 77, 58
2, 3078, Note_on_c, 0, 72, 0
2, 3100, Note_on_c, 0, 65, 0
2, 3117, Note_on_c, 0, 76, 59
2, 3123, Note_on_c, 0, 57, 0
2, 3124, Note_on_c, 0, 53, 51
2, 3126, Note_on_c, 0, 77, 0
2, 3140, Note_on_c, 0, 53, 0
2, 3140, Note_on_c, 0, 76, 0
2, 3150, Note_on_c, 0, 75, 65
2, 3189, Note_on_c, 0, 75, 0
2, 3190, Note_on_c, 0, 46, 61
2, 3192, Note_on_c, 0, 73, 72
2, 3207, Control_c, 0, 64, 0
2, 3260, Note_on_c, 0, 53, 52
2, 3262, Control_c, 0, 64, 127
2, 3289, Note_on_c, 0, 46, 0
2, 3309, Note_on_c, 0, 53, 0
2, 3319, Note_on_c, 0, 61, 62
2, 3358, Note_on_c, 0, 61, 0
2, 3373, Note_on_c, 0, 58, 43
2, 3432, Note_on_c, 0, 65, 58
2, 3433, Note_on_c, 0, 70, 67
2, 3442, Note_on_c, 0, 73, 0
2, 3447, Note_on_c, 0, 70, 0
2, 3461, Note_on_c, 0, 65, 0
2, 3484, Note_on_c, 0, 58, 0
2, 3495, Note_on_c, 0, 53, 41
2, 3510, Note_on_c, 0, 53, 0
2, 3555, Note_on_c, 0, 82, 77
2, 3559, Note_on_c, 0, 46, 46
2, 3570, Control_c, 0, 64, 0
2, 3612, Control_c, 0, 64, 127
2, 3621, Note_on_c, 0, 53, 60
2, 3645, Note_on_c, 0, 82, 0
2, 3664, Note_on_c, 0, 46, 0
2, 3678, Note_on_c, 0, 53, 0
2, 3684, Note_on_c, 0, 82, 79
2, 3686, Note_on_c, 0, 61, 59
2, 3737, Note_on_c, 0, 61, 0
2, 3748, Note_on_c, 0, 58, 61
2, 3782, Note_on_c, 0, 82, 0
2, 3818, Note_on_c, 0, 82, 83
2, 3818, Note_on_c, 0, 65, 43
2, 3852, Note_on_c, 0, 65, 0
2, 3873, Note_on_c, 0, 58, 0
2, 3884, Note_on_c, 0, 53, 57
2, 3895, Note_on_c, 0, 53, 0
2, 3967, Control_c, 0, 64, 0
2, 3968, Note_on_c, 0, 37, 76
2, 3971, Note_on_c, 0, 80, 81
2, 3981, Note_on_c, 0, 82, 0
2, 3994, Control_c, 0, 64, 127
2, 3996, Note_on_c, 0, 37, 0
2, 4074, Note_on_c, 0, 53, 62
2, 4134, Note_on_c, 0, 61, 56
2, 4193, Note_on_c, 0, 53, 0
2, 4195, Note_on_c, 0, 56, 57
2, 4228, Note_on_c, 0, 61, 0
2, 4240, Note_on_c, 0, 56, 0
2, 4253, Note_on_c, 0, 65, 65
2, 4276, Note_on_c, 0, 65, 0
2, 4310, Note_on_c, 0, 53, 59
2, 4326, Note_on_c, 0, 53, 0
2, 4371, Note_on_c, 0, 73, 65
2, 4378, Note_on_c, 0, 42, 28
2, 4378, Control_c, 0, 64, 0
2, 4408, Control_c, 0, 64, 127
2, 4421, Note_on_c, 0, 73, 0
2, 4438, Note_on_c, 0, 49, 37
2, 4444, Note_on_c, 0, 42, 0
2, 4494, Note_on_c, 0, 49, 0
2, 4495, Note_on_c, 0, 70, 67
2, 4498, Note_on_c, 0, 58, 50
2, 4532, Note_on_c, 0, 70, 0
2, 4544, Note_on_c, 0, 58, 0
2, 4553, Note_on_c, 0, 54, 66
2, 4553, Note_on_c, 0, 72, 53
2, 4577, Note_on_c, 0, 54, 0
2, 4609, Note_on_c, 0, 73, 79
2, 4611, Note_on_c, 0, 80, 0
2, 4612, Note_on_c, 0, 61, 72
2, 4655, Note_on_c, 0, 61, 0
2, 4664, Note_on_c, 0, 49, 63
2, 4665, Note_on_c, 0, 78, 68
2, 4668, Note_on_c, 0, 73, 0
2, 4675, Note_on_c, 0, 72, 0
2, 4679, Note_on_c, 0, 49, 0
2, 4697, Note_on_c, 0, 78, 0
2, 4722, Note_on_c, 0, 37, 52
2, 4732, Note_on_c, 0, 77, 75
2, 4744, Control_c, 0, 64, 0
2, 4780, Control_c, 0, 64, 127
2, 4789, Note_on_c, 0, 49, 69
2, 4798, Note_on_c, 0, 37, 0
2, 4805, Note_on_c, 0, 49, 0
2, 4852, Note_on_c, 0, 56, 60
2, 4916, Note_on_c, 0, 53, 59
2, 4964, Note_on_c, 0, 56, 0
2, 4969, Note_on_c, 0, 61, 53
2, 5014, Note_on_c, 0, 61, 0
2, 5026, Note_on_c, 0, 49, 61
2, 5028, Note_on_c, 0, 53, 0
2, 5044, Note_on_c, 0, 49, 0
2, 5088, Note_on_c, 0, 42, 65
2, 5098, Note_on_c, 0, 75, 71
2, 5103, Control_c, 0, 64, 0
2, 5119, Note_on_c, 0, 77, 0
2, 5144, Control_c, 0, 64, 127
2, 5161, Note_on_c, 0, 49, 66
2, 5168, Note_on_c, 0, 42, 0
2, 5210, Note_on_c, 0, 49, 0
2, 5218, Note_on_c, 0, 57, 58
2, 5218, Note_on_c, 0, 77, 53
2, 5223, Note_on_c, 0, 75, 0
2, 5258, Note_on_c, 0, 57, 0
2, 5277, Note_on_c, 0, 54, 65
2, 5280, Note_on_c, 0, 75, 62
2, 5340, Note_on_c, 0, 61, 65
2, 5342, Note_on_c, 0, 73, 60
2, 5360, Note_on_c, 0, 75, 0
2, 5360, Note_on_c, 0, 77, 0
2, 5384, Note_on_c, 0, 61, 0
2, 5398, Note_on_c, 0, 54, 0
2, 5402, Note_on_c, 0, 49, 63
2, 5412, Note_on_c, 0, 69, 61
2, 5413, Note_on_c, 0, 73, 0
2, 5416, Note_on_c, 0, 49, 0
2, 5476, Note_on_c, 0, 37, 74
2, 5481, Note_on_c, 0, 68, 72
2, 5487, Control_c, 0, 64, 0
2, 5490, Note_on_c, 0, 69, 0
2, 5537, Control_c, 0, 64, 127
2, 5546, Note_on_c, 0, 49, 56
2, 5551, Note_on_c, 0, 37, 0
2, 5562, Note_on_c, 0, 49, 0
2, 5618, Note_on_c, 0, 56, 77
2, 5667, Note_on_c, 0, 68, 0
2, 5688, Note_on_c, 0, 53, 61
2, 5690, Note_on_c, 0, 56, 0
2, 5752, Note_on_c, 0, 61, 60
2, 5754, Note_on_c, 0, 73, 71
2, 5785, Note_on_c, 0, 73, 0
2, 5808, Note_on_c, 0, 61, 0
2, 5822, Note_on_c, 0, 49, 69
2, 5824, Note_on_c, 0, 53, 0
2, 5838, Note_on_c, 0, 49, 0
2, 5916, Note_on_c, 0, 75, 69
2, 5918, Note_on_c, 0, 42, 52
2, 5930, Control_c, 0, 64, 0
2, 5995, Control_c, 0, 64, 127
2, 5999, Note_on_c, 0, 49, 57
2, 6018, Note_on_c, 0, 42, 0
2, 6065, Note_on_c, 0, 49, 0
2, 6069, Note_on_c, 0, 77, 54
2, 6071, Note_on_c, 0, 57, 54
2, 6074, Note_on_c, 0, 75, 0
2, 6118, Note_on_c, 0, 57, 0
2, 6147, Note_on_c, 0, 54, 49
2, 6148, Note_on_c, 0, 75, 50
2, 6158, Note_on_c, 0, 77, 0
2, 6229, Note_on_c, 0, 63, 60
2, 6231, Note_on_c, 0, 73, 57
2, 6234, Note_on_c, 0, 75, 0
2, 6248, Note_on_c, 0, 63, 0
2, 6251, Note_on_c, 0, 54, 0
2, 6316, Note_on_c, 0, 73, 0
2, 6320, Note_on_c, 0, 75, 62
2, 6322, Note_on_c, 0, 48, 57
2, 6406, Note_on_c, 0, 75, 0
2, 6408, Note_on_c, 0, 48, 0
2, 6420, Note_on_c, 0, 41, 51
2, 6430, Note_on_c, 0, 77, 69
2, 6439, Control_c, 0, 64, 0
2, 6500, Control_c, 0, 64, 127
2, 6512, Note_on_c, 0, 48, 55
2, 6514, Note_on_c, 0, 41, 0
2, 6577, Note_on_c, 0, 48, 0
2, 6594, Note_on_c, 0, 57, 60
2, 6621, Note_on_c, 0, 57, 0
2, 6639, Note_on_c, 0, 57, 18
2, 6656, Note_on_c, 0, 57, 0
2, 6686, Note_on_c, 0, 53, 50
2, 6787, Note_on_c, 0, 63, 56
2, 6888, Note_on_c, 0, 77, 0
2, 6906, Note_on_c, 0, 57, 44
2, 6920, Note_on_c, 0, 63, 0
2, 6928, Note_on_c, 0, 57, 0
2, 6936, Note_on_c, 0, 53, 0
2, 7051, Note_on_c, 0, 82, 71
2, 7055, Note_on_c, 0, 46, 40
2, 7068, Control_c, 0, 64, 0
2, 7158, Note_on_c, 0, 53, 45
2, 7169, Control_c, 0, 64, 127
2, 7170, Note_on_c, 0, 84, 67
2, 7192, Note_on_c, 0, 82, 0
2, 7220, Note_on_c, 0, 46, 0
2, 7235, Note_on_c, 0, 53, 0
2, 7236, Note_on_c, 0, 85, 77
2, 7240, Note_on_c, 0, 61, 42
2, 7243, Note_on_c, 0, 84, 0
2, 7279, Note_on_c, 0, 85, 0
2, 7285, Note_on_c, 0, 81, 64
2, 7302, Note_on_c, 0, 58, 51
2, 7307, Note_on_c, 0, 61, 0
2, 7320, Note_on_c, 0, 81, 0
2, 7326, Note_on_c, 0, 84, 63
2, 7367, Note_on_c, 0, 65, 49
2, 7375, Note_on_c, 0, 82, 59
2, 7404, Note_on_c, 0, 65, 0
2, 7422, Note_on_c, 0, 58, 0
2, 7436, Note_on_c, 0, 53, 33
2, 7438, Note_on_c, 0, 78, 66
2, 7444, Note_on_c, 0, 84, 0
2, 7446, Note_on_c, 0, 53, 0
2, 7458, Note_on_c, 0, 82, 0
2, 7505, Note_on_c, 0, 46, 54
2, 7506, Note_on_c, 0, 78, 0
2, 7506, Note_on_c, 0, 77, 64
2, 7506, Control_c, 0, 64, 0
2, 7558, Control_c, 0, 64, 127
2, 7566, Note_on_c, 0, 77, 0
2, 7578, Note_on_c, 0, 53, 33
2, 7616, Note_on_c, 0, 46, 0
2, 7626, Note_on_c, 0, 53, 0
2, 7636, Note_on_c, 0, 77, 71
2, 7638, Note_on_c, 0, 61, 49
2, 7684, Note_on_c, 0, 77, 0
2, 7688, Note_on_c, 0, 61, 0
2, 7699, Note_on_c, 0, 58, 57
2, 7757, Note_on_c, 0, 65, 51
2, 7762, Note_on_c, 0, 77, 75
2, 7764, Note_on_c, 0, 65, 0
2, 7786, Note_on_c, 0, 77, 0
2, 7813, Note_on_c, 0, 58, 0
2, 7819, Note_on_c, 0, 53, 39
2, 7834, Note_on_c, 0, 53, 0
2, 7882, Note_on_c, 0, 77, 84
2, 7884, Note_on_c, 0, 46, 51
2, 7898, Control_c, 0, 64, 0
2, 7939, Control_c, 0, 64, 127
2, 7949, Note_on_c, 0, 53, 55
2, 7960, Note_on_c, 0, 46, 0
2, 7972, Note_on_c, 0, 53, 0
2, 8001, Note_on_c, 0, 77, 0
2, 8001, Note_on_c, 0, 78, 62
2, 8004, Note_on_c, 0, 63, 44
2, 8044, Note_on_c, 0, 63, 0
2, 8055, Note_on_c, 0, 77, 69
2, 8063, Note_on_c, 0, 57, 50
2, 8073, Note_on_c, 0, 78, 0
2, 8116, Note_on_c, 0, 65, 59
2, 8117, Note_on_c, 0, 75, 59
2, 8121, Note_on_c, 0, 77, 0
2, 8141, Note_on_c, 0, 65, 0
2, 8157, Note_on_c, 0, 57, 0
2, 8172, Note_on_c, 0, 75, 0
2, 8174, Note_on_c, 0, 53, 44
2, 8176, Note_on_c, 0, 72, 62
2, 8187, Note_on_c, 0, 53, 0
2, 8189, Note_on_c, 0, 72, 0
2, 8242, Note_on_c, 0, 73, 70
2, 8245, Note_on_c, 0, 46, 53
2, 8256, Control_c, 0, 64, 0
2, 8297, Control_c, 0, 64, 127
2, 8308, Note_on_c, 0, 53, 42
2, 8343, Note_on_c, 0, 46, 0
2, 8355, Note_on_c, 0, 53, 0
2, 8370, Note_on_c, 0, 61, 43
2, 8410, Note_on_c, 0, 61, 0
2, 8428, Note_on_c, 0, 58, 53
2, 8489, Note_on_c, 0, 65, 46
2, 8492, Note_on_c, 0, 70, 57
2, 8501, Note_on_c, 0, 73, 0
2, 8512, Note_on_c, 0, 70, 0
2, 8522, Note_on_c, 0, 65, 0
2, 8544, Note_on_c, 0, 58, 0
2, 8560, Note_on_c, 0, 53, 48
2, 8576, Note_on_c, 0, 53, 0
2, 8630, Note_on_c, 0, 82, 74
2, 8633, Note_on_c, 0, 46, 43
2, 8643, Control_c, 0, 64, 0
2, 8692, Control_c, 0, 64, 127
2, 8698, Note_on_c, 0, 53, 54
2, 8704, Note_on_c, 0, 84, 71
2, 8724, Note_on_c, 0, 82, 0
2, 8732, Note_on_c, 0, 46, 0
2, 8749, Note_on_c, 0, 53, 0
2, 8750, Note_on_c, 0, 85, 74
2, 8753, Note_on_c, 0, 84, 0
2, 8755, Note_on_c, 0, 61, 59
2, 8781, Note_on_c, 0, 85, 0
2, 8790, Note_on_c, 0, 81, 56
2, 8803, Note_on_c, 0, 61, 0
2, 8812, Note_on_c, 0, 58, 52
2, 8818, Note_on_c, 0, 82, 69
2, 8824, Note_on_c, 0, 81, 0
2, 8843, Note_on_c, 0, 81, 64
2, 8850, Note_on_c, 0, 82, 0
2, 8864, Note_on_c, 0, 81, 0
2, 8868, Note_on_c, 0, 80, 62
2, 8875, Note_on_c, 0, 65, 58
2, 8891, Note_on_c, 0, 80, 0
2, 8895, Note_on_c, 0, 81, 65
2, 8911, Note_on_c, 0, 65, 0
2, 8920, Note_on_c, 0, 84, 64
2, 8922, Note_on_c, 0, 81, 0
2, 8936, Note_on_c, 0, 58, 0
2, 8942, Note_on_c, 0, 53, 48
2, 8950, Note_on_c, 0, 82, 72
2, 8962, Note_on_c, 0, 53, 0
2, 8970, Note_on_c, 0, 84, 0
2, 8984, Note_on_c, 0, 78, 63
2, 8993, Note_on_c, 0, 82, 0
2, 9016, Note_on_c, 0, 46, 58
2, 9029, Control_c, 0, 64, 0
2, 9033, Note_on_c, 0, 78, 0
2, 9037, Note_on_c, 0, 77, 78
2, 9053, Control_c, 0, 64, 127
2, 9054, Note_on_c, 0, 77, 0
2, 9090, Note_on_c, 0, 101, 88
2, 9092, Note_on_c, 0, 53, 52
2, 9127, Note_on_c, 0, 46, 0
2, 9134, Note_on_c, 0, 100, 70
2, 9143, Note_on_c, 0, 101, 0
2, 9146, Note_on_c, 0, 53, 0
2, 9149, Note_on_c, 0, 61, 50
2, 9166, Note_on_c, 0, 99, 85
2, 9181, Note_on_c, 0, 100, 0
2, 9202, Note_on_c, 0, 61, 0
2, 9205, Note_on_c, 0, 97, 84
2, 9207, Note_on_c, 0, 58, 67
2, 9216, Note_on_c, 0, 99, 0
2, 9241, Note_on_c, 0, 97, 0
2, 9241, Note_on_c, 0, 96, 77
2, 9256, Note_on_c, 0, 96, 0
2, 9267, Note_on_c, 0, 65, 48
2, 9280, Note_on_c, 0, 94, 84
2, 9304, Note_on_c, 0, 65, 0
2, 9316, Note_on_c, 0, 90, 70
2, 9325, Note_on_c, 0, 94, 0
2, 9327, Note_on_c, 0, 58, 0
2, 9331, Note_on_c, 0, 53, 51
2, 9345, Note_on_c, 0, 53, 0
2, 9350, Note_on_c, 0, 89, 78
2, 9352, Note_on_c, 0, 90, 0
2, 9370, Note_on_c, 0, 89, 0
2, 9389, Note_on_c, 0, 88, 69
2, 9394, Note_on_c, 0, 46, 74
2, 9408, Control_c, 0, 64, 0
2, 9432, Note_on_c, 0, 87, 84
2, 9436, Control_c, 0, 64, 127
2, 9448, Note_on_c, 0, 88, 0
2, 9453, Note_on_c, 0, 53, 59
2, 9463, Note_on_c, 0, 46, 0
2, 9472, Note_on_c, 0, 85, 80
2, 9479, Note_on_c, 0, 87, 0
2, 9486, Note_on_c, 0, 53, 0
2, 9509, Note_on_c, 0, 63, 67
2, 9510, Note_on_c, 0, 85, 0
2, 9511, Note_on_c, 0, 84, 77
2, 9532, Note_on_c, 0, 84, 0
2, 9547, Note_on_c, 0, 82, 76
2, 9549, Note_on_c, 0, 63, 0
2, 9565, Note_on_c, 0, 57, 62
2, 9584, Note_on_c, 0, 81, 71
2, 9621, Note_on_c, 0, 78, 75
2, 9621, Note_on_c, 0, 65, 63
2, 9628, Note_on_c, 0, 81, 0
2, 9634, Note_on_c, 0, 82, 0
2, 9656, Note_on_c, 0, 65, 0
2, 9658, Note_on_c, 0, 78, 0
2, 9658, Note_on_c, 0, 77, 69
2, 9671, Note_on_c, 0, 57, 0
2, 9674, Note_on_c, 0, 77, 0
2, 9680, Note_on_c, 0, 53, 53
2, 9697, Note_on_c, 0, 53, 0
2, 9702, Note_on_c, 0, 72, 73
2, 9718, Note_on_c, 0, 72, 0
2, 9743, Note_on_c, 0, 46, 58
2, 9754, Note_on_c, 0, 73, 77
2, 9765, Control_c, 0, 64, 0
2, 9813, Note_on_c, 0, 53, 46
2, 9816, Control_c, 0, 64, 127
2, 9843, Note_on_c, 0, 46, 0
2, 9862, Note_on_c, 0, 53, 0
2, 9870, Note_on_c, 0, 61, 52
2, 9913, Note_on_c, 0, 61, 0
2, 9923, Note_on_c, 0, 58, 66
2, 9975, Note_on_c, 0, 65, 60
2, 9976, Note_on_c, 0, 70, 71
2, 9986, Note_on_c, 0, 73, 0
2, 9998, Note_on_c, 0, 70, 0
2, 10013, Note_on_c, 0, 65, 0
2, 10029, Note_on_c, 0, 58, 0
2, 10036, Note_on_c, 0, 53, 54
2, 10052, Note_on_c, 0, 53, 0
2, 10093, Note_on_c, 0, 46, 66
2, 10095, Note_on_c, 0, 82, 74
2, 10108, Control_c, 0, 64, 0
2, 10143, Control_c, 0, 64, 127
2, 10158, Note_on_c, 0, 53, 60
2, 10181, Note_on_c, 0, 82, 0
2, 10212, Note_on_c, 0, 53, 0
2, 10212, Note_on_c, 0, 46, 0
2, 10217, Note_on_c, 0, 82, 83
2, 10219, Note_on_c, 0, 61, 62
2, 10278, Note_on_c, 0, 61, 0
2, 10281, Note_on_c, 0, 58, 69
2, 10306, Note_on_c, 0, 82, 0
2, 10343, Note_on_c, 0, 82, 90
2, 10349, Note_on_c, 0, 65, 53
2, 10392, Note_on_c, 0, 65, 0
2, 10412, Note_on_c, 0, 82, 0
2, 10412, Note_on_c, 0, 58, 0
2, 10418, Note_on_c, 0, 53, 47
2, 10428, Note_on_c, 0, 53, 0
2, 10478, Note_on_c, 0, 46, 71
2, 10480, Note_on_c, 0, 82, 94
2, 10498, Control_c, 0, 64, 0
2, 10546, Control_c, 0, 64, 127
2, 10550, Note_on_c, 0, 53, 67
2, 10581, Note_on_c, 0, 46, 0
2, 10600, Note_on_c, 0, 53, 0
2, 10610, Note_on_c, 0, 62, 64
2, 10653, Note_on_c, 0, 62, 0
2, 10671, Note_on_c, 0, 58, 35
2, 10719, Note_on_c, 0, 74, 66
2, 10720, Note_on_c, 0, 68, 68
2, 10748, Note_on_c, 0, 82, 0
2, 10772, Note_on_c, 0, 68, 0
2, 10779, Note_on_c, 0, 62, 61
2, 10785, Note_on_c, 0, 58, 0
2, 10786, Note_on_c, 0, 62, 0
2, 10811, Note_on_c, 0, 74, 0
2, 10839, Note_on_c, 0, 51, 65
2, 10842, Note_on_c, 0, 75, 74
2, 10854, Control_c, 0, 64, 0
2, 10882, Control_c, 0, 64, 127
2, 10884, Note_on_c, 0, 75, 0
2, 10887, Note_on_c, 0, 77, 61
2, 10900, Note_on_c, 0, 54, 59
2, 10909, Note_on_c, 0, 77, 0
2, 10913, Note_on_c, 0, 75, 62
2, 10930, Note_on_c, 0, 75, 0
2, 10936, Note_on_c, 0, 77, 63
2, 10956, Note_on_c, 0, 75, 59
2, 10957, Note_on_c, 0, 63, 58
2, 10961, Note_on_c, 0, 77, 0
2, 10979, Note_on_c, 0, 75, 0
2, 10981, Note_on_c, 0, 74, 67
2, 11019, Note_on_c, 0, 75, 82
2, 11020, Note_on_c, 0, 58, 60
2, 11025, Note_on_c, 0, 63, 0
2, 11030, Note_on_c, 0, 74, 0
2, 11034, Note_on_c, 0, 54, 0
2, 11043, Note_on_c, 0, 51, 0
2, 11071, Note_on_c, 0, 58, 0
2, 11073, Note_on_c, 0, 66, 63
2, 11076, Note_on_c, 0, 78, 76
2, 11083, Note_on_c, 0, 75, 0
2, 11142, Note_on_c, 0, 63, 66
2, 11147, Note_on_c, 0, 66, 0
2, 11159, Note_on_c, 0, 63, 0
2, 11166, Note_on_c, 0, 77, 80
2, 11173, Note_on_c, 0, 78, 0
2, 11180, Note_on_c, 0, 77, 0
2, 11207, Note_on_c, 0, 48, 60
2, 11210, Note_on_c, 0, 77, 78
2, 11230, Control_c, 0, 64, 0
2, 11270, Control_c, 0, 64, 127
2, 11274, Note_on_c, 0, 55, 61
2, 11290, Note_on_c, 0, 48, 0
2, 11316, Note_on_c, 0, 55, 0
2, 11327, Note_on_c, 0, 64, 67
2, 11357, Note_on_c, 0, 64, 0
2, 11383, Note_on_c, 0, 60, 71
2, 11438, Note_on_c, 0, 70, 71
2, 11439, Note_on_c, 0, 77, 0
2, 11440, Note_on_c, 0, 76, 69
2, 11488, Note_on_c, 0, 70, 0
2, 11507, Note_on_c, 0, 64, 62
2, 11514, Note_on_c, 0, 60, 0
2, 11515, Note_on_c, 0, 76, 0
2, 11521, Note_on_c, 0, 64, 0
2, 11553, Note_on_c, 0, 77, 68
2, 11560, Note_on_c, 0, 77, 0
2, 11566, Note_on_c, 0, 78, 60
2, 11576, Note_on_c, 0, 53, 71
2, 11578, Note_on_c, 0, 77, 84
2, 11580, Control_c, 0, 64, 0
2, 11583, Note_on_c, 0, 78, 0
2, 11606, Control_c, 0, 64, 127
2, 11620, Note_on_c, 0, 77, 0
2, 11629, Note_on_c, 0, 76, 69
2, 11636, Note_on_c, 0, 60, 60
2, 11654, Note_on_c, 0, 53, 0
2, 11679, Note_on_c, 0, 77, 83
2, 11686, Note_on_c, 0, 76, 0
2, 11690, Note_on_c, 0, 60, 0
2, 11699, Note_on_c, 0, 69, 64
2, 11709, Note_on_c, 0, 77, 0
2, 11731, Note_on_c, 0, 79, 79
2, 11754, Note_on_c, 0, 69, 0
2, 11767, Note_on_c, 0, 63, 67
2, 11789, Note_on_c, 0, 81, 82
2, 11800, Note_on_c, 0, 79, 0
2, 11824, Note_on_c, 0, 81, 0
2, 11839, Note_on_c, 0, 72, 62
2, 11846, Note_on_c, 0, 82, 84
2, 11884, Note_on_c, 0, 82, 0
2, 11909, Note_on_c, 0, 69, 69
2, 11913, Note_on_c, 0, 84, 80
2, 11917, Note_on_c, 0, 72, 0
2, 11923, Note_on_c, 0, 69, 0
2, 11926, Note_on_c, 0, 63, 0
2, 11932, Note_on_c, 0, 84, 0
2, 11992, Note_on_c, 0, 46, 61
2, 11992, Note_on_c, 0, 85, 92
2, 12011, Control_c, 0, 64, 0
2, 12062, Note_on_c, 0, 53, 62
2, 12068, Control_c, 0, 64, 127
2, 12069, Note_on_c, 0, 85, 0
2, 12073, Note_on_c, 0, 84, 35
2, 12092, Note_on_c, 0, 46, 0
2, 12106, Note_on_c, 0, 84, 0
2, 12108, Note_on_c, 0, 53, 0
2, 12117, Note_on_c, 0, 61, 68
2, 12174, Note_on_c, 0, 58, 77
2, 12179, Note_on_c, 0, 61, 0
2, 12227, Note_on_c, 0, 51, 74
2, 12228, Note_on_c, 0, 82, 78
2, 12231, Note_on_c, 0, 58, 0
2, 12239, Control_c, 0, 64, 0
2, 12253, Control_c, 0, 64, 127
2, 12272, Note_on_c, 0, 78, 74
2, 12280, Note_on_c, 0, 82, 0
2, 12286, Note_on_c, 0, 66, 75
2, 12299, Note_on_c, 0, 66, 0
2, 12300, Note_on_c, 0, 51, 0
2, 12301, Note_on_c, 0, 78, 0
2, 12312, Note_on_c, 0, 70, 79
2, 12348, Note_on_c, 0, 41, 79
2, 12352, Note_on_c, 0, 73, 81
2, 12356, Note_on_c, 0, 70, 0
2, 12360, Control_c, 0, 64, 0
2, 12398, Control_c, 0, 64, 127
2, 12408, Note_on_c, 0, 53, 66
2, 12411, Note_on_c, 0, 41, 0
2, 12422, Note_on_c, 0, 53, 0
2, 12461, Note_on_c, 0, 58, 72
2, 12519, Note_on_c, 0, 65, 76
2, 12571, Note_on_c, 0, 63, 66
2, 12580, Note_on_c, 0, 72, 84
2, 12588, Note_on_c, 0, 73, 0
2, 12593, Note_on_c, 0, 65, 0
2, 12624, Note_on_c, 0, 72, 0
2, 12628, Note_on_c, 0, 63, 0
2, 12643, Note_on_c, 0, 57, 72
2, 12651, Note_on_c, 0, 58, 0
2, 12658, Note_on_c, 0, 57, 0
2, 12663, Note_on_c, 0, 70, 75
2, 12674, Note_on_c, 0, 70, 0
2, 12699, Note_on_c, 0, 46, 77
2, 12711, Note_on_c, 0, 89, 88
2, 12721, Control_c, 0, 64, 0
2, 12763, Note_on_c, 0, 53, 75
2, 12763, Control_c, 0, 64, 127
2, 12788, Note_on_c, 0, 46, 0
2, 12810, Note_on_c, 0, 53, 0
2, 12817, Note_on_c, 0, 61, 69
2, 12862, Note_on_c, 0, 61, 0
2, 12872, Note_on_c, 0, 58, 71
2, 12874, Note_on_c, 0, 85, 79
2, 12880, Note_on_c, 0, 89, 0
2, 12921, Control_c, 0, 64, 0
2, 12927, Note_on_c, 0, 51, 76
2, 12933, Note_on_c, 0, 82, 76
2, 12937, Note_on_c, 0, 85, 0
2, 12939, Note_on_c, 0, 58, 0
2, 12943, Control_c, 0, 64, 127
2, 12974, Note_on_c, 0, 78, 69
2, 12976, Note_on_c, 0, 82, 0
2, 12987, Note_on_c, 0, 66, 69
2, 13000, Note_on_c, 0, 78, 0
2, 13001, Note_on_c, 0, 66, 0
2, 13004, Note_on_c, 0, 51, 0
2, 13012, Note_on_c, 0, 70, 74
2, 13025, Note_on_c, 0, 70, 0
2, 13052, Note_on_c, 0, 41, 82
2, 13060, Note_on_c, 0, 73, 69
2, 13071, Control_c, 0, 64, 0
2, 13110, Control_c, 0, 64, 127
2, 13113, Note_on_c, 0, 53, 70
2, 13118, Note_on_c, 0, 41, 0
2, 13129, Note_on_c, 0, 53, 0
2, 13168, Note_on_c, 0, 58, 74
2, 13230, Note_on_c, 0, 65, 74
2, 13284, Note_on_c, 0, 63, 67
2, 13294, Note_on_c, 0, 72, 83
2, 13302, Note_on_c, 0, 73, 0
2, 13320, Note_on_c, 0, 65, 0
2, 13332, Note_on_c, 0, 72, 0
2, 13335, Note_on_c, 0, 63, 0
2, 13358, Note_on_c, 0, 57, 73
2, 13366, Note_on_c, 0, 58, 0
2, 13372, Note_on_c, 0, 57, 0
2, 13380, Note_on_c, 0, 70, 77
2, 13393, Note_on_c, 0, 70, 0
2, 13437, Note_on_c, 0, 42, 69
2, 13449, Control_c, 0, 64, 0
2, 13453, Note_on_c, 0, 97, 93
2, 13490, Control_c, 0, 64, 127
2, 13512, Note_on_c, 0, 49, 72
2, 13520, Note_on_c, 0, 42, 0
2, 13539, Note_on_c, 0, 97, 0
2, 13578, Note_on_c, 0, 54, 72
2, 13615, Note_on_c, 0, 94, 79
2, 13645, Note_on_c, 0, 58, 68
2, 13660, Note_on_c, 0, 49, 0
2, 13665, Note_on_c, 0, 54, 0
2, 13668, Note_on_c, 0, 58, 0
2, 13671, Note_on_c, 0, 90, 72
2, 13675, Note_on_c, 0, 94, 0
2, 13690, Note_on_c, 0, 90, 0
2, 13719, Note_on_c, 0, 64, 69
2, 13726, Note_on_c, 0, 85, 77
2, 13780, Note_on_c, 0, 82, 74
2, 13783, Note_on_c, 0, 85, 0
2, 13801, Note_on_c, 0, 82, 0
2, 13801, Note_on_c, 0, 54, 60
2, 13819, Note_on_c, 0, 64, 0
2, 13834, Note_on_c, 0, 70, 68
2, 13860, Note_on_c, 0, 70, 0
2, 13901, Note_on_c, 0, 51, 68
2, 13903, Note_on_c, 0, 71, 72
2, 13913, Note_on_c, 0, 54, 0
2, 13917, Control_c, 0, 64, 0
2, 13995, Note_on_c, 0, 54, 65
2, 14010, Control_c, 0, 64, 127
2, 14071, Note_on_c, 0, 59, 47
2, 14112, Note_on_c, 0, 54, 0
2, 14121, Note_on_c, 0, 51, 0
2, 14137, Note_on_c, 0, 63, 53
2, 14151, Note_on_c, 0, 59, 0
2, 14176, Note_on_c, 0, 63, 0
2, 14200, Note_on_c, 0, 53, 63
2, 14205, Note_on_c, 0, 69, 71
2, 14214, Note_on_c, 0, 71, 0
2, 14220, Control_c, 0, 64, 0
2, 14243, Control_c, 0, 64, 127
2, 14275, Note_on_c, 0, 63, 57
2, 14286, Note_on_c, 0, 53, 0
2, 14295, Note_on_c, 0, 63, 0
2, 14358, Note_on_c, 0, 46, 41
2, 14358, Note_on_c, 0, 70, 79
2, 14368, Note_on_c, 0, 69, 0
2, 14374, Control_c, 0, 64, 0
2, 14430, Control_c, 0, 64, 127
2, 14438, Note_on_c, 0, 53, 61
2, 14494, Note_on_c, 0, 46, 0
2, 14501, Note_on_c, 0, 53, 0
2, 14510, Note_on_c, 0, 61, 48
2, 14532, Note_on_c, 0, 70, 0
2, 14554, Note_on_c, 0, 61, 0
2, 14581, Note_on_c, 0, 58, 56
2, 14635, Note_on_c, 0, 58, 0
2, 14659, Note_on_c, 0, 65, 58
2, 14729, Note_on_c, 0, 61, 62
2, 14737, Note_on_c, 0, 65, 0
2, 14804, Note_on_c, 0, 58, 65
2, 14810, Note_on_c, 0, 61, 0
2, 14877, Note_on_c, 0, 58, 0
2, 14895, Note_on_c, 0, 53, 70
2, 14988, Note_on_c, 0, 49, 68
2, 15003, Note_on_c, 0, 53, 0
2, 15089, Note_on_c, 0, 46, 61
2, 15094, Note_on_c, 0, 49, 0
2, 15140, Note_on_c, 0, 46, 0
2, 15212, Note_on_c, 0, 41, 55
2, 15354, Note_on_c, 0, 39, 43
2, 15367, Note_on_c, 0, 41, 0
2, 15387, Note_on_c, 0, 39, 0
2, 15535, Note_on_c, 0, 37, 48
2, 15539, Note_on_c, 0, 77, 65
2, 15539, Note_on_c, 0, 65, 62
2, 15542, Control_c, 0, 64, 0
2, 15633, Control_c, 0, 64, 127
2, 15649, Note_on_c, 0, 37, 0
2, 15650, Note_on_c, 0, 44, 59
2, 15719, Note_on_c, 0, 49, 43
2, 15721, Note_on_c, 0, 44, 0
2, 15761, Note_on_c, 0, 49, 0
2, 15776, Note_on_c, 0, 56, 49
2, 15823, Note_on_c, 0, 77, 0
2, 15828, Note_on_c, 0, 65, 0
2, 15836, Note_on_c, 0, 49, 44
2, 15837, Note_on_c, 0, 56, 0
2, 15900, Note_on_c, 0, 49, 0
2, 15907, Note_on_c, 0, 44, 43
2, 15964, Note_on_c, 0, 44, 0
2, 15964, Note_on_c, 0, 37, 54
2, 15970, Note_on_c, 0, 64, 61
2, 15970, Note_on_c, 0, 76, 57
2, 15980, Control_c, 0, 64, 0
2, 16016, Control_c, 0, 64, 127
2, 16032, Note_on_c, 0, 37, 0
2, 16035, Note_on_c, 0, 44, 60
2, 16090, Note_on_c, 0, 49, 58
2, 16112, Note_on_c, 0, 44, 0
2, 16137, Note_on_c, 0, 49, 0
2, 16151, Note_on_c, 0, 55, 54
2, 16184, Note_on_c, 0, 76, 0
2, 16186, Note_on_c, 0, 64, 0
2, 16202, Note_on_c, 0, 55, 0
2, 16205, Note_on_c, 0, 49, 58
2, 16259, Note_on_c, 0, 49, 0
2, 16263, Note_on_c, 0, 44, 56
2, 16329, Note_on_c, 0, 44, 0
2, 16330, Note_on_c, 0, 37, 52
2, 16332, Note_on_c, 0, 63, 57
2, 16334, Note_on_c, 0, 75, 50
2, 16335, Control_c, 0, 64, 0
2, 16360, Control_c, 0, 64, 127
2, 16376, Note_on_c, 0, 63, 0
2, 16393, Note_on_c, 0, 75, 0
2, 16400, Note_on_c, 0, 44, 56
2, 16410, Note_on_c, 0, 77, 63
2, 16410, Note_on_c, 0, 65, 50
2, 16411, Note_on_c, 0, 37, 0
2, 16426, Note_on_c, 0, 77, 0
2, 16428, Note_on_c, 0, 65, 0
2, 16462, Note_on_c, 0, 63, 63
2, 16464, Note_on_c, 0, 75, 58
2, 16467, Note_on_c, 0, 48, 54
2, 16469, Note_on_c, 0, 44, 0
2, 16474, Note_on_c, 0, 75, 0
2, 16479, Note_on_c, 0, 63, 0
2, 16508, Note_on_c, 0, 48, 0
2, 16512, Note_on_c, 0, 54, 59
2, 16548, Note_on_c, 0, 54, 0
2, 16572, Note_on_c, 0, 48, 61
2, 16573, Note_on_c, 0, 60, 58
2, 16574, Note_on_c, 0, 72, 57
2, 16580, Note_on_c, 0, 48, 0
2, 16588, Note_on_c, 0, 60, 0
2, 16589, Note_on_c, 0, 72, 0
2, 16627, Note_on_c, 0, 44, 53
2, 16687, Note_on_c, 0, 44, 0
2, 16695, Note_on_c, 0, 37, 47
2, 16695, Note_on_c, 0, 58, 58
2, 16697, Note_on_c, 0, 70, 51
2, 16708, Control_c, 0, 64, 0
2, 16734, Control_c, 0, 64, 127
2, 16751, Note_on_c, 0, 70, 0
2, 16757, Note_on_c, 0, 58, 0
2, 16758, Note_on_c, 0, 44, 56
2, 16761, Note_on_c, 0, 37, 0
2, 16818, Note_on_c, 0, 48, 55
2, 16820, Note_on_c, 0, 44, 0
2, 16821, Note_on_c, 0, 56, 70
2, 16823, Note_on_c, 0, 68, 67
2, 16872, Note_on_c, 0, 48, 0
2, 16877, Note_on_c, 0, 54, 57
2, 16890, Note_on_c, 0, 56, 0
2, 16900, Note_on_c, 0, 68, 0
2, 16917, Note_on_c, 0, 54, 0
2, 16937, Note_on_c, 0, 48, 56
2, 16970, Note_on_c, 0, 48, 0
2, 16994, Note_on_c, 0, 44, 59
2, 17053, Note_on_c, 0, 44, 0
2, 17054, Note_on_c, 0, 37, 50
2, 17058, Note_on_c, 0, 58, 65
2, 17059, Note_on_c, 0, 70, 60
2, 17072, Control_c, 0, 64, 0
2, 17100, Control_c, 0, 64, 127
2, 17119, Note_on_c, 0, 44, 58
2, 17120, Note_on_c, 0, 58, 0
2, 17121, Note_on_c, 0, 37, 0
2, 17159, Note_on_c, 0, 70, 0
2, 17172, Note_on_c, 0, 60, 64
2, 17175, Note_on_c, 0, 72, 63
2, 17177, Note_on_c, 0, 48, 61
2, 17182, Note_on_c, 0, 44, 0
2, 17194, Note_on_c, 0, 60, 0
2, 17200, Note_on_c, 0, 72, 0
2, 17228, Note_on_c, 0, 48, 0
2, 17234, Note_on_c, 0, 54, 58
2, 17270, Note_on_c, 0, 54, 0
2, 17290, Note_on_c, 0, 48, 66
2, 17336, Note_on_c, 0, 48, 0
2, 17341, Note_on_c, 0, 44, 65
2, 17395, Note_on_c, 0, 44, 0
2, 17397, Note_on_c, 0, 37, 53
2, 17400, Note_on_c, 0, 61, 67
2, 17400, Note_on_c, 0, 73, 70
2, 17414, Control_c, 0, 64, 0
2, 17437, Control_c, 0, 64, 127
2, 17458, Note_on_c, 0, 44, 61
2, 17463, Note_on_c, 0, 37, 0
2, 17471, Note_on_c, 0, 61, 0
2, 17516, Note_on_c, 0, 48, 57
2, 17519, Note_on_c, 0, 73, 0
2, 17522, Note_on_c, 0, 63, 69
2, 17522, Note_on_c, 0, 75, 74
2, 17524, Note_on_c, 0, 44, 0
2, 17573, Note_on_c, 0, 48, 0
2, 17574, Note_on_c, 0, 54, 52
2, 17634, Note_on_c, 0, 54, 0
2, 17636, Note_on_c, 0, 48, 64
2, 17685, Note_on_c, 0, 48, 0
2, 17688, Note_on_c, 0, 63, 0
2, 17690, Note_on_c, 0, 75, 0
2, 17692, Note_on_c, 0, 44, 59
2, 17758, Note_on_c, 0, 44, 0
2, 17758, Note_on_c, 0, 37, 61
2, 17760, Note_on_c, 0, 77, 62
2, 17760, Note_on_c, 0, 65, 67
2, 17768, Control_c, 0, 64, 0
2, 17786, Note_on_c, 0, 65, 0
2, 17791, Control_c, 0, 64, 127
2, 17792, Note_on_c, 0, 77, 0
2, 17815, Note_on_c, 0, 37, 0
2, 17820, Note_on_c, 0, 78, 72
2, 17823, Note_on_c, 0, 66, 53
2, 17824, Note_on_c, 0, 44, 53
2, 17838, Note_on_c, 0, 78, 0
2, 17840, Note_on_c, 0, 66, 0
2, 17881, Note_on_c, 0, 82, 70
2, 17883, Note_on_c, 0, 44, 0
2, 17884, Note_on_c, 0, 70, 50
2, 17885, Note_on_c, 0, 51, 50
2, 17900, Note_on_c, 0, 82, 0
2, 17904, Note_on_c, 0, 70, 0
2, 17936, Note_on_c, 0, 56, 58
2, 17940, Note_on_c, 0, 51, 0
2, 17996, Note_on_c, 0, 80, 70
2, 17998, Note_on_c, 0, 68, 60
2, 18000, Note_on_c, 0, 48, 43
2, 18004, Note_on_c, 0, 56, 0
2, 18017, Note_on_c, 0, 80, 0
2, 18020, Note_on_c, 0, 68, 0
2, 18052, Note_on_c, 0, 48, 0
2, 18062, Note_on_c, 0, 44, 52
2, 18072, Note_on_c, 0, 44, 0
2, 18130, Note_on_c, 0, 37, 56
2, 18135, Note_on_c, 0, 77, 59
2, 18136, Note_on_c, 0, 65, 59
2, 18140, Control_c, 0, 64, 0
2, 18186, Control_c, 0, 64, 127
2, 18194, Note_on_c, 0, 37, 0
2, 18200, Note_on_c, 0, 44, 48
2, 18270, Note_on_c, 0, 49, 34
2, 18281, Note_on_c, 0, 44, 0
2, 18314, Note_on_c, 0, 49, 0
2, 18325, Note_on_c, 0, 56, 47
2, 18388, Note_on_c, 0, 56, 0
2, 18393, Note_on_c, 0, 49, 34
2, 18409, Note_on_c, 0, 65, 0
2, 18411, Note_on_c, 0, 77, 0
2, 18455, Note_on_c, 0, 49, 0
2, 18465, Note_on_c, 0, 44, 43
2, 18536, Note_on_c, 0, 44, 0
2, 18541, Note_on_c, 0, 37, 35
2, 18545, Note_on_c, 0, 77, 50
2, 18545, Note_on_c, 0, 65, 52
2, 18551, Control_c, 0, 64, 0
2, 18597, Control_c, 0, 64, 127
2, 18612, Note_on_c, 0, 37, 0
2, 18618, Note_on_c, 0, 44, 40
2, 18673, Note_on_c, 0, 49, 41
2, 18676, Note_on_c, 0, 44, 0
2, 18727, Note_on_c, 0, 49, 0
2, 18736, Note_on_c, 0, 56, 42
2, 18795, Note_on_c, 0, 56, 0
2, 18800, Note_on_c, 0, 49, 44
2, 18810, Note_on_c, 0, 77, 0
2, 18818, Note_on_c, 0, 65, 0
2, 18854, Note_on_c, 0, 49, 0
2, 18861, Note_on_c, 0, 44, 47
2, 18921, Note_on_c, 0, 44, 0
2, 18927, Note_on_c, 0, 37, 54
2, 18931, Note_on_c, 0, 64, 49
2, 18932, Note_on_c, 0, 76, 45
2, 18941, Control_c, 0, 64, 0
2, 18979, Control_c, 0, 64, 127
2, 18994, Note_on_c, 0, 37, 0
2, 19007, Note_on_c, 0, 45, 37
2, 19069, Note_on_c, 0, 49, 48
2, 19078, Note_on_c, 0, 45, 0
2, 19122, Note_on_c, 0, 49, 0
2, 19144, Note_on_c, 0, 55, 52
2, 19198, Note_on_c, 0, 55, 0
2, 19211, Note_on_c, 0, 49, 40
2, 19215, Note_on_c, 0, 64, 0
2, 19216, Note_on_c, 0, 76, 0
2, 19278, Note_on_c, 0, 49, 0
2, 19292, Note_on_c, 0, 45, 48
2, 19347, Note_on_c, 0, 45, 0
2, 19374, Note_on_c, 0, 38, 45
2, 19375, Note_on_c, 0, 62, 45
2, 19377, Note_on_c, 0, 74, 46
2, 19380, Control_c, 0, 64, 0
2, 19412, Control_c, 0, 64, 127
2, 19414, Note_on_c, 0, 62, 0
2, 19421, Note_on_c, 0, 74, 0
2, 19461, Note_on_c, 0, 76, 45
2, 19464, Note_on_c, 0, 38, 0
2, 19466, Note_on_c, 0, 45, 36
2, 19466, Note_on_c, 0, 64, 40
2, 19481, Note_on_c, 0, 76, 0
2, 19484, Note_on_c, 0, 64, 0
2, 19528, Note_on_c, 0, 62, 50
2, 19528, Note_on_c, 0, 74, 49
2, 19534, Note_on_c, 0, 50, 37
2, 19537, Note_on_c, 0, 45, 0
2, 19544, Note_on_c, 0, 74, 0
2, 19545, Note_on_c, 0, 62, 0
2, 19577, Note_on_c, 0, 50, 0
2, 19591, Note_on_c, 0, 54, 56
2, 19643, Note_on_c, 0, 54, 0
2, 19650, Note_on_c, 0, 57, 48
2, 19652, Note_on_c, 0, 69, 34
2, 19654, Note_on_c, 0, 50, 48
2, 19663, Note_on_c, 0, 57, 0
2, 19667, Note_on_c, 0, 69, 0
2, 19696, Note_on_c, 0, 50, 0
2, 19708, Note_on_c, 0, 45, 56
2, 19770, Note_on_c, 0, 45, 0
2, 19770, Note_on_c, 0, 38, 56
2, 19774, Note_on_c, 0, 59, 54
2, 19776, Note_on_c, 0, 71, 53
2, 19785, Control_c, 0, 64, 0
2, 19825, Control_c, 0, 64, 127
2, 19836, Note_on_c, 0, 38, 0
2, 19839, Note_on_c, 0, 43, 51
2, 19899, Note_on_c, 0, 43, 0
2, 19900, Note_on_c, 0, 50, 43
2, 19944, Note_on_c, 0, 50, 0
2, 19951, Note_on_c, 0, 55, 59
2, 19988, Note_on_c, 0, 55, 0
2, 19988, Note_on_c, 0, 59, 0
2, 19991, Note_on_c, 0, 71, 0
2, 20012, Note_on_c, 0, 50, 54
2, 20056, Note_on_c, 0, 50, 0
2, 20067, Note_on_c, 0, 43, 63
2, 20130, Note_on_c, 0, 43, 0
2, 20130, Note_on_c, 0, 38, 58
2, 20135, Note_on_c, 0, 62, 56
2, 20137, Note_on_c, 0, 74, 52
2, 20140, Control_c, 0, 64, 0
2, 20167, Control_c, 0, 64, 127
2, 20170, Note_on_c, 0, 62, 0
2, 20174, Note_on_c, 0, 74, 0
2, 20204, Note_on_c, 0, 45, 50
2, 20206, Note_on_c, 0, 64, 72
2, 20207, Note_on_c, 0, 76, 61
2, 20208, Note_on_c, 0, 38, 0
2, 20222, Note_on_c, 0, 76, 0
2, 20223, Note_on_c, 0, 64, 0
2, 20260, Note_on_c, 0, 50, 69
2, 20260, Note_on_c, 0, 62, 67
2, 20263, Note_on_c, 0, 74, 57
2, 20270, Note_on_c, 0, 45, 0
2, 20277, Note_on_c, 0, 62, 0
2, 20279, Note_on_c, 0, 74, 0
2, 20304, Note_on_c, 0, 50, 0
2, 20314, Note_on_c, 0, 54, 76
2, 20368, Note_on_c, 0, 50, 67
2, 20368, Note_on_c, 0, 57, 68
2, 20369, Note_on_c, 0, 69, 69
2, 20382, Note_on_c, 0, 57, 0
2, 20384, Note_on_c, 0, 69, 0
2, 20388, Note_on_c, 0, 54, 0
2, 20415, Note_on_c, 0, 45, 74
2, 20420, Note_on_c, 0, 50, 0
2, 20462, Note_on_c, 0, 45, 0
2, 20468, Note_on_c, 0, 43, 70
2, 20476, Note_on_c, 0, 70, 77
2, 20477, Note_on_c, 0, 58, 79
2, 20490, Control_c, 0, 64, 0
2, 20528, Control_c, 0, 64, 127
2, 20535, Note_on_c, 0, 49, 76
2, 20550, Note_on_c, 0, 43, 0
2, 20583, Note_on_c, 0, 52, 68
2, 20590, Note_on_c, 0, 49, 0
2, 20613, Note_on_c, 0, 58, 0
2, 20626, Note_on_c, 0, 52, 0
2, 20633, Note_on_c, 0, 70, 0
2, 20635, Note_on_c, 0, 58, 83
2, 20692, Note_on_c, 0, 52, 70
2, 20738, Note_on_c, 0, 49, 69
2, 20753, Note_on_c, 0, 58, 0
2, 20760, Note_on_c, 0, 52, 0
2, 20800, Note_on_c, 0, 44, 74
2, 20804, Note_on_c, 0, 60, 67
2, 20804, Note_on_c, 0, 72, 73
2, 20807, Note_on_c, 0, 49, 0
2, 20821, Control_c, 0, 64, 0
2, 20860, Note_on_c, 0, 51, 69
2, 20862, Control_c, 0, 64, 127
2, 20916, Note_on_c, 0, 54, 67
2, 20928, Note_on_c, 0, 44, 0
2, 20961, Note_on_c, 0, 54, 0
2, 20978, Note_on_c, 0, 57, 66
2, 21032, Note_on_c, 0, 56, 66
2, 21042, Note_on_c, 0, 57, 0
2, 21049, Note_on_c, 0, 60, 0
2, 21053, Note_on_c, 0, 72, 0
2, 21064, Note_on_c, 0, 56, 0
2, 21090, Note_on_c, 0, 51, 0
2, 21090, Note_on_c, 0, 44, 65
2, 21106, Note_on_c, 0, 44, 0
2, 21152, Note_on_c, 0, 37, 52
2, 21164, Note_on_c, 0, 61, 63
2, 21165, Note_on_c, 0, 73, 63
2, 21168, Control_c, 0, 64, 0
2, 21209, Control_c, 0, 64, 127
2, 21222, Note_on_c, 0, 37, 0
2, 21224, Note_on_c, 0, 44, 58
2, 21285, Note_on_c, 0, 49, 48
2, 21290, Note_on_c, 0, 44, 0
2, 21335, Note_on_c, 0, 61, 0
2, 21348, Note_on_c, 0, 49, 0
2, 21350, Note_on_c, 0, 73, 0
2, 21350, Note_on_c, 0, 56, 52
2, 21419, Note_on_c, 0, 49, 44
2, 21424, Note_on_c, 0, 56, 0
2, 21482, Note_on_c, 0, 49, 0
2, 21493, Note_on_c, 0, 44, 40
2, 21560, Note_on_c, 0, 44, 0
2, 21570, Note_on_c, 0, 37, 49
2, 21573, Note_on_c, 0, 77, 52
2, 21576, Note_on_c, 0, 65, 48
2, 21583, Control_c, 0, 64, 0
2, 21623, Control_c, 0, 64, 127
2, 21640, Note_on_c, 0, 37, 0
2, 21646, Note_on_c, 0, 44, 44
2, 21704, Note_on_c, 0, 49, 43
2, 21707, Note_on_c, 0, 44, 0
2, 21750, Note_on_c, 0, 49, 0
2, 21761, Note_on_c, 0, 56, 48
2, 21804, Note_on_c, 0, 56, 0
2, 21820, Note_on_c, 0, 49, 48
2, 21845, Note_on_c, 0, 77, 0
2, 21851, Note_on_c, 0, 65, 0
2, 21878, Note_on_c, 0, 49, 0
2, 21886, Note_on_c, 0, 44, 42
2, 21946, Note_on_c, 0, 44, 0
2, 21948, Note_on_c, 0, 37, 51
2, 21953, Note_on_c, 0, 76, 52
2, 21954, Note_on_c, 0, 64, 55
2, 21960, Control_c, 0, 64, 0
2, 21992, Control_c, 0, 64, 127
2, 22006, Note_on_c, 0, 37, 0
2, 22013, Note_on_c, 0, 44, 54
2, 22066, Note_on_c, 0, 49, 42
2, 22078, Note_on_c, 0, 44, 0
2, 22118, Note_on_c, 0, 49, 0
2, 22131, Note_on_c, 0, 55, 46
2, 22178, Note_on_c, 0, 76, 0
2, 22180, Note_on_c, 0, 64, 0
2, 22190, Note_on_c, 0, 55, 0
2, 22196, Note_on_c, 0, 49, 40
2, 22254, Note_on_c, 0, 49, 0
2, 22258, Note_on_c, 0, 44, 50
2, 22331, Note_on_c, 0, 44, 0
2, 22333, Note_on_c, 0, 37, 48
2, 22333, Note_on_c, 0, 63, 38
2, 22334, Note_on_c, 0, 75, 53
2, 22346, Control_c, 0, 64, 0
2, 22374, Control_c, 0, 64, 127
2, 22390, Note_on_c, 0, 63, 0
2, 22407, Note_on_c, 0, 75, 0
2, 22418, Note_on_c, 0, 44, 50
2, 22425, Note_on_c, 0, 37, 0
2, 22426, Note_on_c, 0, 77, 53
2, 22427, Note_on_c, 0, 65, 41
2, 22442, Note_on_c, 0, 77, 0
2, 22443, Note_on_c, 0, 65, 0
2, 22482, Note_on_c, 0, 63, 58
2, 22484, Note_on_c, 0, 48, 45
2, 22484, Note_on_c, 0, 75, 52
2, 22488, Note_on_c, 0, 44, 0
2, 22496, Note_on_c, 0, 75, 0
2, 22500, Note_on_c, 0, 63, 0
2, 22530, Note_on_c, 0, 48, 0
2, 22537, Note_on_c, 0, 54, 49
2, 22588, Note_on_c, 0, 54, 0
2, 22598, Note_on_c, 0, 60, 49
2, 22598, Note_on_c, 0, 72, 50
2, 22601, Note_on_c, 0, 48, 46
2, 22615, Note_on_c, 0, 72, 0
2, 22615, Note_on_c, 0, 60, 0
2, 22643, Note_on_c, 0, 48, 0
2, 22654, Note_on_c, 0, 44, 51
2, 22717, Note_on_c, 0, 37, 49
2, 22718, Note_on_c, 0, 44, 0
2, 22722, Note_on_c, 0, 58, 51
2, 22723, Note_on_c, 0, 70, 49
2, 22732, Control_c, 0, 64, 0
2, 22766, Control_c, 0, 64, 127
2, 22782, Note_on_c, 0, 70, 0
2, 22784, Note_on_c, 0, 37, 0
2, 22784, Note_on_c, 0, 44, 53
2, 22787, Note_on_c, 0, 58, 0
2, 22842, Note_on_c, 0, 44, 0
2, 22844, Note_on_c, 0, 48, 54
2, 22847, Note_on_c, 0, 56, 66
2, 22848, Note_on_c, 0, 68, 67
2, 22892, Note_on_c, 0, 48, 0
2, 22896, Note_on_c, 0, 56, 0
2, 22900, Note_on_c, 0, 54, 56
2, 22906, Note_on_c, 0, 68, 0
2, 22946, Note_on_c, 0, 54, 0
2, 22964, Note_on_c, 0, 48, 57
2, 22973, Note_on_c, 0, 48, 0
2, 23015, Note_on_c, 0, 44, 57
2, 23068, Note_on_c, 0, 44, 0
2, 23070, Note_on_c, 0, 37, 48
2, 23078, Note_on_c, 0, 58, 62
2, 23079, Note_on_c, 0, 70, 65
2, 23090, Control_c, 0, 64, 0
2, 23115, Control_c, 0, 64, 127
2, 23136, Note_on_c, 0, 58, 0
2, 23138, Note_on_c, 0, 44, 62
2, 23141, Note_on_c, 0, 37, 0
2, 23154, Note_on_c, 0, 70, 0
2, 23192, Note_on_c, 0, 60, 68
2, 23194, Note_on_c, 0, 72, 75
2, 23194, Note_on_c, 0, 48, 58
2, 23198, Note_on_c, 0, 44, 0
2, 23209, Note_on_c, 0, 60, 0
2, 23219, Note_on_c, 0, 72, 0
2, 23243, Note_on_c, 0, 48, 0
2, 23250, Note_on_c, 0, 54, 66
2, 23292, Note_on_c, 0, 54, 0
2, 23306, Note_on_c, 0, 48, 68
2, 23350, Note_on_c, 0, 48, 0
2, 23357, Note_on_c, 0, 44, 62
2, 23413, Note_on_c, 0, 44, 0
2, 23413, Note_on_c, 0, 37, 63
2, 23419, Note_on_c, 0, 73, 72
2, 23420, Note_on_c, 0, 61, 62
2, 23434, Control_c, 0, 64, 0
2, 23458, Control_c, 0, 64, 127
2, 23475, Note_on_c, 0, 44, 69
2, 23476, Note_on_c, 0, 61, 0
2, 23484, Note_on_c, 0, 37, 0
2, 23528, Note_on_c, 0, 48, 61
2, 23533, Note_on_c, 0, 73, 0
2, 23534, Note_on_c, 0, 75, 75
2, 23536, Note_on_c, 0, 44, 0
2, 23536, Note_on_c, 0, 63, 71
2, 23561, Note_on_c, 0, 63, 0
2, 23572, Note_on_c, 0, 75, 0
2, 23585, Note_on_c, 0, 48, 0
2, 23592, Note_on_c, 0, 54, 70
2, 23647, Note_on_c, 0, 54, 0
2, 23652, Note_on_c, 0, 48, 67
2, 23701, Note_on_c, 0, 48, 0
2, 23706, Note_on_c, 0, 44, 66
2, 23766, Note_on_c, 0, 44, 0
2, 23768, Note_on_c, 0, 37, 57
2, 23774, Note_on_c, 0, 77, 61
2, 23775, Control_c, 0, 64, 0
2, 23776, Note_on_c, 0, 65, 56
2, 23796, Note_on_c, 0, 65, 0
2, 23801, Control_c, 0, 64, 127
2, 23802, Note_on_c, 0, 77, 0
2, 23828, Note_on_c, 0, 37, 0
2, 23834, Note_on_c, 0, 44, 57
2, 23837, Note_on_c, 0, 66, 59
2, 23838, Note_on_c, 0, 78, 58
2, 23854, Note_on_c, 0, 78, 0
2, 23854, Note_on_c, 0, 66, 0
2, 23896, Note_on_c, 0, 51, 57
2, 23900, Note_on_c, 0, 82, 71
2, 23902, Note_on_c, 0, 70, 45
2, 23907, Note_on_c, 0, 44, 0
2, 23921, Note_on_c, 0, 82, 0
2, 23922, Note_on_c, 0, 70, 0
2, 23958, Note_on_c, 0, 56, 62
2, 23960, Note_on_c, 0, 51, 0
2, 24018, Note_on_c, 0, 68, 56
2, 24018, Note_on_c, 0, 80, 62
2, 24024, Note_on_c, 0, 48, 48
2, 24028, Note_on_c, 0, 56, 0
2, 24038, Note_on_c, 0, 68, 0
2, 24039, Note_on_c, 0, 80, 0
2, 24074, Note_on_c, 0, 48, 0
2, 24083, Note_on_c, 0, 44, 43
2, 24097, Note_on_c, 0, 44, 0
2, 24150, Note_on_c, 0, 37, 47
2, 24152, Note_on_c, 0, 80, 66
2, 24152, Note_on_c, 0, 68, 54
2, 24157, Control_c, 0, 64, 0
2, 24180, Note_on_c, 0, 80, 0
2, 24180, Control_c, 0, 64, 127
2, 24188, Note_on_c, 0, 68, 0
2, 24219, Note_on_c, 0, 37, 0
2, 24224, Note_on_c, 0, 44, 45
2, 24229, Note_on_c, 0, 65, 50
2, 24230, Note_on_c, 0, 77, 49
2, 24290, Note_on_c, 0, 49, 44
2, 24324, Note_on_c, 0, 44, 0
2, 24346, Note_on_c, 0, 49, 0
2, 24349, Note_on_c, 0, 56, 47
2, 24415, Note_on_c, 0, 56, 0
2, 24418, Note_on_c, 0, 49, 42
2, 24458, Note_on_c, 0, 77, 0
2, 24458, Note_on_c, 0, 65, 0
2, 24479, Note_on_c, 0, 49, 0
2, 24486, Note_on_c, 0, 44, 50
2, 24556, Note_on_c, 0, 44, 0
2, 24560, Note_on_c, 0, 37, 39
2, 24570, Note_on_c, 0, 77, 53
2, 24572, Note_on_c, 0, 65, 50
2, 24578, Control_c, 0, 64, 0
2, 24616, Control_c, 0, 64, 127
2, 24628, Note_on_c, 0, 37, 0
2, 24632, Note_on_c, 0, 44, 44
2, 24689, Note_on_c, 0, 44, 0
2, 24692, Note_on_c, 0, 49, 33
2, 24742, Note_on_c, 0, 49, 0
2, 24752, Note_on_c, 0, 56, 35
2, 24813, Note_on_c, 0, 56, 0
2, 24818, Note_on_c, 0, 49, 34
2, 24834, Note_on_c, 0, 77, 0
2, 24839, Note_on_c, 0, 65, 0
2, 24871, Note_on_c, 0, 49, 0
2, 24879, Note_on_c, 0, 44, 44
2, 24944, Note_on_c, 0, 44, 0
2, 24946, Note_on_c, 0, 37, 51
2, 24948, Note_on_c, 0, 76, 53
2, 24951, Note_on_c, 0, 64, 48
2, 24958, Control_c, 0, 64, 0
2, 24994, Control_c, 0, 64, 127
2, 25004, Note_on_c, 0, 37, 0
2, 25016, Note_on_c, 0, 45, 49
2, 25076, Note_on_c, 0, 49, 44
2, 25095, Note_on_c, 0, 45, 0
2, 25128, Note_on_c, 0, 49, 0
2, 25147, Note_on_c, 0, 55, 42
2, 25206, Note_on_c, 0, 64, 0
2, 25207, Note_on_c, 0, 55, 0
2, 25208, Note_on_c, 0, 76, 0
2, 25211, Note_on_c, 0, 49, 39
2, 25270, Note_on_c, 0, 49, 0
2, 25283, Note_on_c, 0, 45, 48
2, 25335, Note_on_c, 0, 45, 0
2, 25362, Note_on_c, 0, 38, 46
2, 25365, Control_c, 0, 64, 0
2, 25368, Note_on_c, 0, 62, 49
2, 25371, Note_on_c, 0, 74, 49
2, 25398, Control_c, 0, 64, 127
2, 25406, Note_on_c, 0, 62, 0
2, 25412, Note_on_c, 0, 74, 0
2, 25450, Note_on_c, 0, 38, 0
2, 25451, Note_on_c, 0, 45, 42
2, 25453, Note_on_c, 0, 76, 50
2, 25456, Note_on_c, 0, 64, 31
2, 25472, Note_on_c, 0, 64, 0
2, 25472, Note_on_c, 0, 76, 0
2, 25510, Note_on_c, 0, 50, 42
2, 25514, Note_on_c, 0, 45, 0
2, 25521, Note_on_c, 0, 74, 42
2, 25522, Note_on_c, 0, 62, 36
2, 25536, Note_on_c, 0, 74, 0
2, 25542, Note_on_c, 0, 62, 0
2, 25573, Note_on_c, 0, 50, 0
2, 25575, Note_on_c, 0, 54, 41
2, 25639, Note_on_c, 0, 69, 55
2, 25641, Note_on_c, 0, 54, 0
2, 25641, Note_on_c, 0, 50, 43
2, 25642, Note_on_c, 0, 57, 37
2, 25654, Note_on_c, 0, 57, 0
2, 25655, Note_on_c, 0, 69, 0
2, 25687, Note_on_c, 0, 50, 0
2, 25700, Note_on_c, 0, 45, 45
2, 25758, Note_on_c, 0, 45, 0
2, 25758, Note_on_c, 0, 38, 51
2, 25764, Note_on_c, 0, 59, 44
2, 25764, Note_on_c, 0, 71, 49
2, 25777, Control_c, 0, 64, 0
2, 25817, Control_c, 0, 64, 127
2, 25824, Note_on_c, 0, 38, 0
2, 25829, Note_on_c, 0, 43, 43
2, 25887, Note_on_c, 0, 50, 41
2, 25906, Note_on_c, 0, 43, 0
2, 25941, Note_on_c, 0, 50, 0
2, 25951, Note_on_c, 0, 55, 45
2, 25996, Note_on_c, 0, 55, 0
2, 26004, Note_on_c, 0, 59, 0
2, 26009, Note_on_c, 0, 71, 0
2, 26010, Note_on_c, 0, 50, 53
2, 26059, Note_on_c, 0, 50, 0
2, 26070, Note_on_c, 0, 43, 57
2, 26136, Note_on_c, 0, 38, 49
2, 26137, Note_on_c, 0, 43, 0
2, 26144, Note_on_c, 0, 62, 60
2, 26144, Note_on_c, 0, 74, 52
2, 26149, Control_c, 0, 64, 0
2, 26175, Control_c, 0, 64, 127
2, 26179, Note_on_c, 0, 62, 0
2, 26186, Note_on_c, 0, 74, 0
2, 26211, Note_on_c, 0, 45, 45
2, 26212, Note_on_c, 0, 38, 0
2, 26218, Note_on_c, 0, 76, 57
2, 26219, Note_on_c, 0, 64, 58
2, 26235, Note_on_c, 0, 76, 0
2, 26236, Note_on_c, 0, 64, 0
2, 26268, Note_on_c, 0, 50, 65
2, 26274, Note_on_c, 0, 45, 0
2, 26276, Note_on_c, 0, 74, 58
2, 26278, Note_on_c, 0, 62, 29
2, 26290, Note_on_c, 0, 74, 0
2, 26293, Note_on_c, 0, 62, 0
2, 26312, Note_on_c, 0, 50, 0
2, 26325, Note_on_c, 0, 54, 68
2, 26379, Note_on_c, 0, 50, 61
2, 26382, Note_on_c, 0, 69, 71
2, 26382, Note_on_c, 0, 57, 63
2, 26394, Note_on_c, 0, 54, 0
2, 26397, Note_on_c, 0, 57, 0
2, 26400, Note_on_c, 0, 69, 0
2, 26429, Note_on_c, 0, 45, 72
2, 26433, Note_on_c, 0, 50, 0
2, 26474, Note_on_c, 0, 45, 0
2, 26483, Note_on_c, 0, 43, 64
2, 26497, Note_on_c, 0, 58, 84
2, 26497, Note_on_c, 0, 70, 79
2, 26511, Control_c, 0, 64, 0
2, 26549, Control_c, 0, 64, 127
2, 26552, Note_on_c, 0, 49, 66
2, 26568, Note_on_c, 0, 43, 0
2, 26608, Note_on_c, 0, 52, 67
2, 26610, Note_on_c, 0, 49, 0
2, 26624, Note_on_c, 0, 58, 0
2, 26638, Note_on_c, 0, 70, 0
2, 26655, Note_on_c, 0, 52, 0
2, 26661, Note_on_c, 0, 58, 70
2, 26718, Note_on_c, 0, 52, 63
2, 26738, Note_on_c, 0, 58, 0
2, 26768, Note_on_c, 0, 49, 68
2, 26788, Note_on_c, 0, 52, 0
2, 26821, Note_on_c, 0, 44, 67
2, 26826, Note_on_c, 0, 49, 0
2, 26829, Note_on_c, 0, 72, 77
2, 26830, Note_on_c, 0, 60, 66
2, 26842, Control_c, 0, 64, 0
2, 26880, Control_c, 0, 64, 127
2, 26884, Note_on_c, 0, 51, 75
2, 26938, Note_on_c, 0, 54, 67
2, 26973, Note_on_c, 0, 44, 0
2, 26998, Note_on_c, 0, 54, 0
2, 27005, Note_on_c, 0, 57, 71
2, 27065, Note_on_c, 0, 56, 65
2, 27082, Note_on_c, 0, 57, 0
2, 27083, Note_on_c, 0, 60, 0
2, 27088, Note_on_c, 0, 72, 0
2, 27100, Note_on_c, 0, 56, 0
2, 27121, Note_on_c, 0, 44, 69
2, 27126, Note_on_c, 0, 51, 0
2, 27141, Note_on_c, 0, 44, 0
2, 27178, Note_on_c, 0, 37, 59
2, 27200, Note_on_c, 0, 73, 75
2, 27201, Note_on_c, 0, 61, 70
2, 27210, Control_c, 0, 64, 0
2, 27244, Control_c, 0, 64, 127
2, 27257, Note_on_c, 0, 44, 59
2, 27264, Note_on_c, 0, 37, 0
2, 27322, Note_on_c, 0, 49, 63
2, 27336, Note_on_c, 0, 44, 0
2, 27384, Note_on_c, 0, 49, 0
2, 27387, Note_on_c, 0, 56, 70
2, 27452, Note_on_c, 0, 49, 70
2, 27461, Note_on_c, 0, 61, 0
2, 27464, Note_on_c, 0, 73, 0
2, 27499, Note_on_c, 0, 56, 0
2, 27524, Note_on_c, 0, 46, 69
2, 27568, Note_on_c, 0, 49, 0
2, 27604, Note_on_c, 0, 44, 63
2, 27604, Note_on_c, 0, 63, 77
2, 27604, Note_on_c, 0, 75, 79
2, 27611, Note_on_c, 0, 46, 0
2, 27612, Control_c, 0, 64, 0
2, 27668, Control_c, 0, 64, 127
2, 27673, Note_on_c, 0, 51, 70
2, 27688, Note_on_c, 0, 44, 0
2, 27725, Note_on_c, 0, 56, 67
2, 27739, Note_on_c, 0, 51, 0
2, 27772, Note_on_c, 0, 56, 0
2, 27776, Note_on_c, 0, 63, 0
2, 27778, Note_on_c, 0, 60, 69
2, 27794, Note_on_c, 0, 75, 0
2, 27822, Note_on_c, 0, 56, 53
2, 27827, Note_on_c, 0, 60, 0
2, 27875, Note_on_c, 0, 51, 69
2, 27877, Note_on_c, 0, 56, 0
2, 27916, Note_on_c, 0, 51, 0
2, 27919, Note_on_c, 0, 44, 74
2, 27924, Note_on_c, 0, 77, 70
2, 27925, Note_on_c, 0, 65, 69
2, 27931, Control_c, 0, 64, 0
2, 27966, Control_c, 0, 64, 127
2, 27974, Note_on_c, 0, 50, 63
2, 27983, Note_on_c, 0, 44, 0
2, 28015, Note_on_c, 0, 53, 68
2, 28018, Note_on_c, 0, 50, 0
2, 28025, Note_on_c, 0, 65, 0
2, 28040, Note_on_c, 0, 77, 0
2, 28058, Note_on_c, 0, 53, 0
2, 28063, Note_on_c, 0, 58, 77
2, 28111, Note_on_c, 0, 53, 67
2, 28145, Note_on_c, 0, 58, 0
2, 28155, Note_on_c, 0, 50, 69
2, 28157, Note_on_c, 0, 53, 0
2, 28171, Note_on_c, 0, 50, 0
2, 28202, Note_on_c, 0, 42, 76
2, 28205, Note_on_c, 0, 78, 77
2, 28206, Note_on_c, 0, 66, 72
2, 28211, Control_c, 0, 64, 0
2, 28241, Control_c, 0, 64, 127
2, 28253, Note_on_c, 0, 46, 56
2, 28258, Note_on_c, 0, 42, 0
2, 28262, Note_on_c, 0, 78, 0
2, 28265, Note_on_c, 0, 66, 0
2, 28300, Note_on_c, 0, 51, 69
2, 28304, Note_on_c, 0, 77, 68
2, 28304, Note_on_c, 0, 65, 59
2, 28318, Note_on_c, 0, 77, 0
2, 28319, Note_on_c, 0, 65, 0
2, 28330, Note_on_c, 0, 46, 0
2, 28348, Note_on_c, 0, 51, 0
2, 28350, Note_on_c, 0, 58, 70
2, 28353, Note_on_c, 0, 66, 70
2, 28354, Note_on_c, 0, 78, 76
2, 28366, Note_on_c, 0, 78, 0
2, 28366, Note_on_c, 0, 66, 0
2, 28391, Note_on_c, 0, 51, 68
2, 28396, Note_on_c, 0, 80, 77
2, 28397, Note_on_c, 0, 58, 0
2, 28397, Note_on_c, 0, 68, 65
2, 28405, Note_on_c, 0, 80, 0
2, 28406, Note_on_c, 0, 68, 0
2, 28430, Note_on_c, 0, 46, 67
2, 28431, Note_on_c, 0, 51, 0
2, 28436, Note_on_c, 0, 82, 84
2, 28437, Note_on_c, 0, 70, 74
2, 28450, Note_on_c, 0, 70, 0
2, 28450, Note_on_c, 0, 82, 0
2, 28485, Note_on_c, 0, 46, 0
2, 28485, Note_on_c, 0, 42, 61
2, 28489, Control_c, 0, 64, 0
2, 28491, Note_on_c, 0, 82, 85
2, 28493, Note_on_c, 0, 70, 74
2, 28516, Control_c, 0, 64, 127
2, 28532, Note_on_c, 0, 70, 0
2, 28532, Note_on_c, 0, 82, 0
2, 28539, Note_on_c, 0, 48, 67
2, 28552, Note_on_c, 0, 42, 0
2, 28575, Note_on_c, 0, 51, 68
2, 28580, Note_on_c, 0, 63, 77
2, 28581, Note_on_c, 0, 75, 77
2, 28582, Note_on_c, 0, 48, 0
2, 28594, Note_on_c, 0, 63, 0
2, 28600, Note_on_c, 0, 75, 0
2, 28630, Note_on_c, 0, 51, 0
2, 28631, Note_on_c, 0, 56, 65
2, 28679, Note_on_c, 0, 68, 80
2, 28679, Note_on_c, 0, 80, 77
2, 28683, Note_on_c, 0, 51, 72
2, 28722, Note_on_c, 0, 56, 0
2, 28738, Note_on_c, 0, 48, 65
2, 28742, Note_on_c, 0, 51, 0
2, 28774, Note_on_c, 0, 48, 0
2, 28794, Note_on_c, 0, 41, 71
2, 28797, Control_c, 0, 64, 0
2, 28831, Control_c, 0, 64, 127
2, 28844, Note_on_c, 0, 68, 0
2, 28847, Note_on_c, 0, 44, 58
2, 28866, Note_on_c, 0, 41, 0
2, 28874, Note_on_c, 0, 80, 0
2, 28897, Note_on_c, 0, 82, 74
2, 28898, Note_on_c, 0, 49, 59
2, 28899, Note_on_c, 0, 70, 68
2, 28912, Note_on_c, 0, 70, 0
2, 28912, Note_on_c, 0, 44, 0
2, 28914, Note_on_c, 0, 82, 0
2, 28944, Note_on_c, 0, 49, 0
2, 28944, Note_on_c, 0, 80, 76
2, 28945, Note_on_c, 0, 56, 61
2, 28946, Note_on_c, 0, 68, 81
2, 28959, Note_on_c, 0, 68, 0
2, 28960, Note_on_c, 0, 80, 0
2, 28986, Note_on_c, 0, 49, 60
2, 28989, Note_on_c, 0, 78, 71
2, 28990, Note_on_c, 0, 66, 62
2, 28992, Note_on_c, 0, 56, 0
2, 28997, Note_on_c, 0, 66, 0
2, 29005, Note_on_c, 0, 78, 0
2, 29024, Note_on_c, 0, 49, 0
2, 29028, Note_on_c, 0, 44, 57
2, 29028, Note_on_c, 0, 77, 71
2, 29032, Note_on_c, 0, 65, 58
2, 29040, Note_on_c, 0, 65, 0
2, 29044, Note_on_c, 0, 77, 0
2, 29078, Note_on_c, 0, 44, 0
2, 29079, Note_on_c, 0, 37, 62
2, 29083, Note_on_c, 0, 77, 70
2, 29084, Note_on_c, 0, 65, 65
2, 29086, Control_c, 0, 64, 0
2, 29117, Control_c, 0, 64, 127
2, 29131, Note_on_c, 0, 37, 0
2, 29132, Note_on_c, 0, 65, 0
2, 29132, Note_on_c, 0, 44, 62
2, 29135, Note_on_c, 0, 77, 0
2, 29180, Note_on_c, 0, 78, 72
2, 29182, Note_on_c, 0, 66, 67
2, 29185, Note_on_c, 0, 49, 60
2, 29190, Note_on_c, 0, 44, 0
2, 29194, Note_on_c, 0, 66, 0
2, 29197, Note_on_c, 0, 78, 0
2, 29230, Note_on_c, 0, 49, 0
2, 29232, Note_on_c, 0, 56, 60
2, 29235, Note_on_c, 0, 77, 66
2, 29237, Note_on_c, 0, 65, 57
2, 29250, Note_on_c, 0, 77, 0
2, 29252, Note_on_c, 0, 65, 0
2, 29279, Note_on_c, 0, 56, 0
2, 29280, Note_on_c, 0, 49, 57
2, 29282, Note_on_c, 0, 75, 66
2, 29284, Note_on_c, 0, 63, 63
2, 29289, Note_on_c, 0, 75, 0
2, 29294, Note_on_c, 0, 63, 0
2, 29328, Note_on_c, 0, 49, 0
2, 29331, Note_on_c, 0, 44, 50
2, 29336, Note_on_c, 0, 73, 70
2, 29337, Note_on_c, 0, 61, 57
2, 29348, Note_on_c, 0, 61, 0
2, 29352, Note_on_c, 0, 73, 0
2, 29386, Control_c, 0, 64, 0
2, 29387, Note_on_c, 0, 44, 0
2, 29389, Note_on_c, 0, 37, 62
2, 29393, Note_on_c, 0, 75, 77
2, 29394, Note_on_c, 0, 63, 61
2, 29422, Control_c, 0, 64, 127
2, 29432, Note_on_c, 0, 37, 0
2, 29448, Note_on_c, 0, 46, 50
2, 29501, Note_on_c, 0, 51, 59
2, 29520, Note_on_c, 0, 46, 0
2, 29538, Note_on_c, 0, 51, 0
2, 29559, Note_on_c, 0, 55, 47
2, 29608, Note_on_c, 0, 55, 0
2, 29612, Note_on_c, 0, 51, 57
2, 29664, Note_on_c, 0, 51, 0
2, 29676, Note_on_c, 0, 46, 50
2, 29725, Note_on_c, 0, 46, 0
2, 29726, Note_on_c, 0, 37, 58
2, 29738, Control_c, 0, 64, 0
2, 29774, Control_c, 0, 64, 127
2, 29785, Note_on_c, 0, 37, 0
2, 29790, Note_on_c, 0, 45, 54
2, 29842, Note_on_c, 0, 45, 0
2, 29848, Note_on_c, 0, 48, 57
2, 29857, Note_on_c, 0, 48, 0
2, 29909, Note_on_c, 0, 54, 62
2, 29915, Note_on_c, 0, 75, 0
2, 29927, Note_on_c, 0, 63, 0
2, 29976, Note_on_c, 0, 48, 52
2, 29978, Note_on_c, 0, 76, 53
2, 29979, Note_on_c, 0, 64, 59
2, 30010, Note_on_c, 0, 64, 0
2, 30019, Note_on_c, 0, 76, 0
2, 30040, Note_on_c, 0, 48, 0
2, 30045, Note_on_c, 0, 44, 49
2, 30047, Note_on_c, 0, 54, 0
2, 30071, Note_on_c, 0, 44, 0
2, 30132, Note_on_c, 0, 37, 57
2, 30139, Note_on_c, 0, 77, 56
2, 30140, Note_on_c, 0, 65, 52
2, 30148, Control_c, 0, 64, 0
2, 30200, Control_c, 0, 64, 127
2, 30219, Note_on_c, 0, 37, 0
2, 30228, Note_on_c, 0, 44, 43
2, 30286, Note_on_c, 0, 44, 0
2, 30287, Note_on_c, 0, 49, 38
2, 30340, Note_on_c, 0, 49, 0
2, 30345, Note_on_c, 0, 56, 47
2, 30400, Note_on_c, 0, 49, 50
2, 30401, Note_on_c, 0, 56, 0
2, 30410, Note_on_c, 0, 77, 0
2, 30420, Note_on_c, 0, 65, 0
2, 30452, Note_on_c, 0, 49, 0
2, 30460, Note_on_c, 0, 44, 53
2, 30520, Note_on_c, 0, 44, 0
2, 30522, Note_on_c, 0, 37, 57
2, 30530, Note_on_c, 0, 64, 55
2, 30530, Note_on_c, 0, 76, 52
2, 30530, Control_c, 0, 64, 0
2, 30571, Control_c, 0, 64, 127
2, 30584, Note_on_c, 0, 37, 0
2, 30594, Note_on_c, 0, 45, 49
2, 30650, Note_on_c, 0, 49, 52
2, 30667, Note_on_c, 0, 45, 0
2, 30706, Note_on_c, 0, 49, 0
2, 30722, Note_on_c, 0, 55, 50
2, 30783, Note_on_c, 0, 49, 48
2, 30797, Note_on_c, 0, 55, 0
2, 30797, Note_on_c, 0, 64, 0
2, 30800, Note_on_c, 0, 76, 0
2, 30851, Note_on_c, 0, 49, 0
2, 30856, Note_on_c, 0, 45, 57
2, 30915, Note_on_c, 0, 45, 0
2, 30947, Note_on_c, 0, 62, 33
2, 30947, Note_on_c, 0, 38, 39
2, 30949, Note_on_c, 0, 74, 34
2, 30951, Control_c, 0, 64, 0
2, 30988, Control_c, 0, 64, 127
2, 30990, Note_on_c, 0, 62, 0
2, 30992, Note_on_c, 0, 74, 0
2, 31034, Note_on_c, 0, 45, 34
2, 31039, Note_on_c, 0, 38, 0
2, 31040, Note_on_c, 0, 76, 39
2, 31043, Note_on_c, 0, 64, 24
2, 31058, Note_on_c, 0, 76, 0
2, 31059, Note_on_c, 0, 64, 0
2, 31106, Note_on_c, 0, 74, 36
2, 31106, Note_on_c, 0, 62, 36
2, 31109, Note_on_c, 0, 45, 0
2, 31109, Note_on_c, 0, 50, 24
2, 31123, Note_on_c, 0, 62, 0
2, 31123, Note_on_c, 0, 74, 0
2, 31153, Note_on_c, 0, 50, 0
2, 31166, Note_on_c, 0, 54, 50
2, 31216, Note_on_c, 0, 54, 0
2, 31226, Note_on_c, 0, 50, 45
2, 31227, Note_on_c, 0, 69, 51
2, 31229, Note_on_c, 0, 57, 37
2, 31239, Note_on_c, 0, 69, 0
2, 31240, Note_on_c, 0, 57, 0
2, 31269, Note_on_c, 0, 50, 0
2, 31286, Note_on_c, 0, 45, 49
2, 31340, Note_on_c, 0, 45, 0
2, 31343, Note_on_c, 0, 38, 44
2, 31354, Note_on_c, 0, 71, 51
2, 31355, Note_on_c, 0, 59, 48
2, 31366, Control_c, 0, 64, 0
2, 31404, Control_c, 0, 64, 127
2, 31416, Note_on_c, 0, 38, 0
2, 31424, Note_on_c, 0, 43, 47
2, 31480, Note_on_c, 0, 43, 0
2, 31480, Note_on_c, 0, 50, 44
2, 31526, Note_on_c, 0, 50, 0
2, 31538, Note_on_c, 0, 55, 53
2, 31556, Note_on_c, 0, 59, 0
2, 31558, Note_on_c, 0, 71, 0
2, 31562, Note_on_c, 0, 55, 0
2, 31594, Note_on_c, 0, 50, 40
2, 31634, Note_on_c, 0, 50, 0
2, 31654, Note_on_c, 0, 43, 50
2, 31715, Note_on_c, 0, 38, 54
2, 31716, Note_on_c, 0, 43, 0
2, 31722, Note_on_c, 0, 62, 55
2, 31724, Control_c, 0, 64, 0
2, 31726, Note_on_c, 0, 74, 39
2, 31755, Control_c, 0, 64, 127
2, 31757, Note_on_c, 0, 62, 0
2, 31760, Note_on_c, 0, 74, 0
2, 31788, Note_on_c, 0, 45, 45
2, 31792, Note_on_c, 0, 38, 0
2, 31796, Note_on_c, 0, 64, 63
2, 31796, Note_on_c, 0, 76, 51
2, 31810, Note_on_c, 0, 76, 0
2, 31811, Note_on_c, 0, 64, 0
2, 31847, Note_on_c, 0, 50, 61
2, 31849, Note_on_c, 0, 62, 64
2, 31852, Note_on_c, 0, 45, 0
2, 31852, Note_on_c, 0, 74, 53
2, 31861, Note_on_c, 0, 74, 0
2, 31865, Note_on_c, 0, 62, 0
2, 31891, Note_on_c, 0, 50, 0
2, 31900, Note_on_c, 0, 54, 53
2, 31951, Note_on_c, 0, 57, 67
2, 31952, Note_on_c, 0, 69, 71
2, 31954, Note_on_c, 0, 50, 60
2, 31965, Note_on_c, 0, 57, 0
2, 31967, Note_on_c, 0, 69, 0
2, 31970, Note_on_c, 0, 54, 0
2, 32002, Note_on_c, 0, 50, 0
2, 32002, Note_on_c, 0, 45, 65
2, 32039, Note_on_c, 0, 45, 0
2, 32054, Note_on_c, 0, 43, 67
2, 32062, Note_on_c, 0, 70, 80
2, 32062, Note_on_c, 0, 58, 80
2, 32074, Control_c, 0, 64, 0
2, 32111, Control_c, 0, 64, 127
2, 32114, Note_on_c, 0, 49, 59
2, 32127, Note_on_c, 0, 43, 0
2, 32165, Note_on_c, 0, 49, 0
2, 32166, Note_on_c, 0, 52, 68
2, 32189, Note_on_c, 0, 58, 0
2, 32201, Note_on_c, 0, 70, 0
2, 32208, Note_on_c, 0, 52, 0
2, 32217, Note_on_c, 0, 58, 77
2, 32272, Note_on_c, 0, 52, 66
2, 32322, Note_on_c, 0, 49, 69
2, 32323, Note_on_c, 0, 58, 0
2, 32336, Note_on_c, 0, 52, 0
2, 32380, Note_on_c, 0, 44, 67
2, 32385, Note_on_c, 0, 49, 0
2, 32385, Note_on_c, 0, 60, 67
2, 32386, Note_on_c, 0, 72, 75
2, 32395, Control_c, 0, 64, 0
2, 32438, Note_on_c, 0, 51, 77
2, 32444, Control_c, 0, 64, 127
2, 32488, Note_on_c, 0, 54, 76
2, 32506, Note_on_c, 0, 44, 0
2, 32538, Note_on_c, 0, 54, 0
2, 32546, Note_on_c, 0, 57, 59
2, 32599, Note_on_c, 0, 56, 57
2, 32612, Note_on_c, 0, 60, 0
2, 32614, Note_on_c, 0, 57, 0
2, 32619, Note_on_c, 0, 72, 0
2, 32640, Note_on_c, 0, 56, 0
2, 32658, Note_on_c, 0, 44, 67
2, 32660, Note_on_c, 0, 51, 0
2, 32680, Note_on_c, 0, 44, 0
2, 32725, Note_on_c, 0, 37, 74
2, 32734, Note_on_c, 0, 73, 75
2, 32734, Note_on_c, 0, 61, 72
2, 32740, Control_c, 0, 64, 0
2, 32782, Control_c, 0, 64, 127
2, 32792, Note_on_c, 0, 44, 69
2, 32794, Note_on_c, 0, 37, 0
2, 32848, Note_on_c, 0, 49, 67
2, 32857, Note_on_c, 0, 44, 0
2, 32909, Note_on_c, 0, 49, 0
2, 32913, Note_on_c, 0, 56, 69
2, 32974, Note_on_c, 0, 49, 68
2, 32980, Note_on_c, 0, 61, 0
2, 32980, Note_on_c, 0, 73, 0
2, 33012, Note_on_c, 0, 56, 0
2, 33044, Note_on_c, 0, 46, 66
2, 33075, Note_on_c, 0, 49, 0
2, 33114, Note_on_c, 0, 44, 62
2, 33116, Note_on_c, 0, 46, 0
2, 33119, Note_on_c, 0, 75, 80
2, 33119, Note_on_c, 0, 63, 79
2, 33122, Control_c, 0, 64, 0
2, 33179, Control_c, 0, 64, 127
2, 33180, Note_on_c, 0, 51, 71
2, 33188, Note_on_c, 0, 44, 0
2, 33223, Note_on_c, 0, 56, 56
2, 33234, Note_on_c, 0, 51, 0
2, 33258, Note_on_c, 0, 63, 0
2, 33270, Note_on_c, 0, 56, 0
2, 33272, Note_on_c, 0, 75, 0
2, 33276, Note_on_c, 0, 60, 66
2, 33324, Note_on_c, 0, 56, 67
2, 33331, Note_on_c, 0, 60, 0
2, 33369, Note_on_c, 0, 51, 74
2, 33373, Note_on_c, 0, 56, 0
2, 33414, Note_on_c, 0, 51, 0
2, 33414, Note_on_c, 0, 44, 76
2, 33416, Note_on_c, 0, 77, 71
2, 33417, Note_on_c, 0, 65, 64
2, 33419, Control_c, 0, 64, 0
2, 33459, Control_c, 0, 64, 127
2, 33462, Note_on_c, 0, 50, 68
2, 33473, Note_on_c, 0, 44, 0
2, 33479, Note_on_c, 0, 65, 0
2, 33490, Note_on_c, 0, 77, 0
2, 33509, Note_on_c, 0, 53, 71
2, 33513, Note_on_c, 0, 50, 0
2, 33541, Note_on_c, 0, 53, 0
2, 33552, Note_on_c, 0, 58, 77
2, 33597, Note_on_c, 0, 53, 71
2, 33614, Note_on_c, 0, 58, 0
2, 33641, Note_on_c, 0, 50, 60
2, 33642, Note_on_c, 0, 53, 0
2, 33654, Note_on_c, 0, 50, 0
2, 33686, Note_on_c, 0, 42, 67
2, 33688, Control_c, 0, 64, 0
2, 33690, Note_on_c, 0, 78, 70
2, 33691, Note_on_c, 0, 66, 65
2, 33726, Control_c, 0, 64, 127
2, 33737, Note_on_c, 0, 46, 68
2, 33746, Note_on_c, 0, 42, 0
2, 33751, Note_on_c, 0, 78, 0
2, 33754, Note_on_c, 0, 66, 0
2, 33784, Note_on_c, 0, 51, 72
2, 33790, Note_on_c, 0, 77, 64
2, 33790, Note_on_c, 0, 65, 58
2, 33804, Note_on_c, 0, 77, 0
2, 33805, Note_on_c, 0, 65, 0
2, 33811, Note_on_c, 0, 46, 0
2, 33829, Note_on_c, 0, 51, 0
2, 33834, Note_on_c, 0, 78, 77
2, 33834, Note_on_c, 0, 58, 70
2, 33835, Note_on_c, 0, 66, 69
2, 33845, Note_on_c, 0, 66, 0
2, 33846, Note_on_c, 0, 78, 0
2, 33873, Note_on_c, 0, 51, 69
2, 33876, Note_on_c, 0, 68, 66
2, 33876, Note_on_c, 0, 80, 78
2, 33879, Note_on_c, 0, 58, 0
2, 33888, Note_on_c, 0, 68, 0
2, 33889, Note_on_c, 0, 80, 0
2, 33914, Note_on_c, 0, 51, 0
2, 33914, Note_on_c, 0, 46, 65
2, 33916, Note_on_c, 0, 82, 84
2, 33918, Note_on_c, 0, 70, 70
2, 33932, Note_on_c, 0, 70, 0
2, 33932, Note_on_c, 0, 82, 0
2, 33961, Control_c, 0, 64, 0
2, 33963, Note_on_c, 0, 46, 0
2, 33964, Note_on_c, 0, 42, 58
2, 33974, Note_on_c, 0, 82, 87
2, 33976, Note_on_c, 0, 70, 79
2, 33993, Control_c, 0, 64, 127
2, 33998, Note_on_c, 0, 70, 0
2, 34002, Note_on_c, 0, 82, 0
2, 34016, Note_on_c, 0, 48, 67
2, 34025, Note_on_c, 0, 42, 0
2, 34056, Note_on_c, 0, 51, 63
2, 34060, Note_on_c, 0, 75, 76
2, 34061, Note_on_c, 0, 63, 74
2, 34063, Note_on_c, 0, 48, 0
2, 34070, Note_on_c, 0, 63, 0
2, 34077, Note_on_c, 0, 75, 0
2, 34104, Note_on_c, 0, 51, 0
2, 34106, Note_on_c, 0, 56, 66
2, 34154, Note_on_c, 0, 68, 76
2, 34154, Note_on_c, 0, 80, 82
2, 34154, Note_on_c, 0, 51, 70
2, 34177, Note_on_c, 0, 56, 0
2, 34208, Note_on_c, 0, 51, 0
2, 34208, Note_on_c, 0, 48, 62
2, 34238, Note_on_c, 0, 48, 0
2, 34256, Note_on_c, 0, 41, 61
2, 34264, Control_c, 0, 64, 0
2, 34302, Control_c, 0, 64, 127
2, 34305, Note_on_c, 0, 44, 66
2, 34310, Note_on_c, 0, 41, 0
2, 34318, Note_on_c, 0, 68, 0
2, 34339, Note_on_c, 0, 80, 0
2, 34350, Note_on_c, 0, 49, 56
2, 34354, Note_on_c, 0, 82, 71
2, 34356, Note_on_c, 0, 70, 56
2, 34368, Note_on_c, 0, 44, 0
2, 34372, Note_on_c, 0, 82, 0
2, 34374, Note_on_c, 0, 70, 0
2, 34397, Note_on_c, 0, 49, 0
2, 34400, Note_on_c, 0, 56, 66
2, 34402, Note_on_c, 0, 80, 71
2, 34404, Note_on_c, 0, 68, 72
2, 34420, Note_on_c, 0, 68, 0
2, 34421, Note_on_c, 0, 80, 0
2, 34443, Note_on_c, 0, 66, 71
2, 34444, Note_on_c, 0, 78, 77
2, 34444, Note_on_c, 0, 49, 60
2, 34448, Note_on_c, 0, 56, 0
2, 34460, Note_on_c, 0, 66, 0
2, 34465, Note_on_c, 0, 78, 0
2, 34483, Note_on_c, 0, 49, 0
2, 34485, Note_on_c, 0, 65, 75
2, 34485, Note_on_c, 0, 77, 80
2, 34488, Note_on_c, 0, 44, 57
2, 34498, Note_on_c, 0, 65, 0
2, 34500, Note_on_c, 0, 77, 0
2, 34535, Note_on_c, 0, 44, 0
2, 34535, Note_on_c, 0, 37, 62
2, 34541, Note_on_c, 0, 65, 74
2, 34541, Note_on_c, 0, 77, 74
2, 34542, Control_c, 0, 64, 0
2, 34576, Control_c, 0, 64, 127
2, 34592, Note_on_c, 0, 37, 0
2, 34593, Note_on_c, 0, 44, 61
2, 34600, Note_on_c, 0, 65, 0
2, 34602, Note_on_c, 0, 77, 0
2, 34638, Note_on_c, 0, 78, 66
2, 34640, Note_on_c, 0, 66, 45
2, 34643, Note_on_c, 0, 49, 56
2, 34645, Note_on_c, 0, 44, 0
2, 34650, Note_on_c, 0, 66, 0
2, 34652, Note_on_c, 0, 78, 0
2, 34687, Note_on_c, 0, 49, 0
2, 34687, Note_on_c, 0, 56, 62
2, 34688, Note_on_c, 0, 77, 74
2, 34689, Note_on_c, 0, 65, 56
2, 34702, Note_on_c, 0, 77, 0
2, 34704, Note_on_c, 0, 65, 0
2, 34732, Note_on_c, 0, 75, 71
2, 34733, Note_on_c, 0, 63, 62
2, 34734, Note_on_c, 0, 49, 57
2, 34738, Note_on_c, 0, 56, 0
2, 34744, Note_on_c, 0, 63, 0
2, 34746, Note_on_c, 0, 75, 0
2, 34780, Note_on_c, 0, 49, 0
2, 34781, Note_on_c, 0, 73, 76
2, 34782, Note_on_c, 0, 61, 61
2, 34784, Note_on_c, 0, 44, 53
2, 34794, Note_on_c, 0, 61, 0
2, 34796, Note_on_c, 0, 73, 0
2, 34838, Note_on_c, 0, 44, 0
2, 34838, Note_on_c, 0, 37, 57
2, 34843, Note_on_c, 0, 75, 81
2, 34844, Note_on_c, 0, 63, 70
2, 34846, Control_c, 0, 64, 0
2, 34883, Control_c, 0, 64, 127
2, 34892, Note_on_c, 0, 37, 0
2, 34900, Note_on_c, 0, 46, 59
2, 34947, Note_on_c, 0, 51, 65
2, 34967, Note_on_c, 0, 46, 0
2, 34992, Note_on_c, 0, 51, 0
2, 35001, Note_on_c, 0, 55, 51
2, 35049, Note_on_c, 0, 55, 0
2, 35054, Note_on_c, 0, 51, 54
2, 35104, Note_on_c, 0, 51, 0
2, 35111, Note_on_c, 0, 46, 45
2, 35167, Note_on_c, 0, 46, 0
2, 35167, Note_on_c, 0, 37, 63
2, 35177, Control_c, 0, 64, 0
2, 35215, Control_c, 0, 64, 127
2, 35222, Note_on_c, 0, 37, 0
2, 35226, Note_on_c, 0, 45, 52
2, 35278, Note_on_c, 0, 45, 0
2, 35287, Note_on_c, 0, 48, 51
2, 35324, Note_on_c, 0, 75, 0
2, 35330, Note_on_c, 0, 63, 0
2, 35343, Note_on_c, 0, 48, 0
2, 35352, Note_on_c, 0, 54, 56
2, 35418, Note_on_c, 0, 48, 59
2, 35424, Note_on_c, 0, 64, 48
2, 35428, Note_on_c, 0, 76, 24
2, 35474, Note_on_c, 0, 64, 0
2, 35484, Note_on_c, 0, 76, 0
2, 35487, Note_on_c, 0, 48, 0
2, 35488, Note_on_c, 0, 54, 0
2, 35488, Note_on_c, 0, 44, 50
2, 35505, Note_on_c, 0, 44, 0
2, 35560, Note_on_c, 0, 37, 59
2, 35580, Note_on_c, 0, 65, 56
2, 35580, Note_on_c, 0, 77, 55
2, 35586, Control_c, 0, 64, 0
2, 35633, Control_c, 0, 64, 127
2, 35646, Note_on_c, 0, 37, 0
2, 35647, Note_on_c, 0, 44, 45
2, 35712, Note_on_c, 0, 49, 42
2, 35715, Note_on_c, 0, 44, 0
2, 35761, Note_on_c, 0, 49, 0
2, 35767, Note_on_c, 0, 56, 53
2, 35820, Note_on_c, 0, 56, 0
2, 35825, Note_on_c, 0, 49, 49
2, 35830, Note_on_c, 0, 77, 0
2, 35842, Note_on_c, 0, 65, 0
2, 35872, Note_on_c, 0, 49, 0
2, 35885, Note_on_c, 0, 44, 52
2, 35940, Note_on_c, 0, 44, 0
2, 35946, Note_on_c, 0, 37, 51
2, 35955, Note_on_c, 0, 64, 55
2, 35955, Note_on_c, 0, 76, 54
2, 35958, Control_c, 0, 64, 0
2, 36000, Control_c, 0, 64, 127
2, 36010, Note_on_c, 0, 37, 0
2, 36018, Note_on_c, 0, 45, 49
2, 36083, Note_on_c, 0, 49, 51
2, 36091, Note_on_c, 0, 45, 0
2, 36129, Note_on_c, 0, 49, 0
2, 36150, Note_on_c, 0, 55, 43
2, 36194, Note_on_c, 0, 76, 0
2, 36197, Note_on_c, 0, 64, 0
2, 36203, Note_on_c, 0, 55, 0
2, 36214, Note_on_c, 0, 49, 42
2, 36280, Note_on_c, 0, 49, 0
2, 36286, Note_on_c, 0, 45, 58
2, 36342, Note_on_c, 0, 45, 0
2, 36368, Note_on_c, 0, 38, 50
2, 36374, Note_on_c, 0, 62, 52
2, 36377, Note_on_c, 0, 74, 46
2, 36379, Control_c, 0, 64, 0
2, 36416, Control_c, 0, 64, 127
2, 36420, Note_on_c, 0, 62, 0
2, 36424, Note_on_c, 0, 74, 0
2, 36453, Note_on_c, 0, 38, 0
2, 36454, Note_on_c, 0, 45, 34
2, 36463, Note_on_c, 0, 64, 49
2, 36463, Note_on_c, 0, 76, 49
2, 36480, Note_on_c, 0, 76, 0
2, 36480, Note_on_c, 0, 64, 0
2, 36520, Note_on_c, 0, 50, 38
2, 36525, Note_on_c, 0, 62, 53
2, 36528, Note_on_c, 0, 74, 52
2, 36529, Note_on_c, 0, 45, 0
2, 36537, Note_on_c, 0, 74, 0
2, 36541, Note_on_c, 0, 62, 0
2, 36562, Note_on_c, 0, 50, 0
2, 36580, Note_on_c, 0, 54, 48
2, 36632, Note_on_c, 0, 54, 0
2, 36641, Note_on_c, 0, 50, 40
2, 36642, Note_on_c, 0, 69, 56
2, 36644, Note_on_c, 0, 57, 44
2, 36658, Note_on_c, 0, 57, 0
2, 36660, Note_on_c, 0, 69, 0
2, 36678, Note_on_c, 0, 50, 0
2, 36695, Note_on_c, 0, 45, 45
2, 36747, Note_on_c, 0, 45, 0
2, 36763, Note_on_c, 0, 71, 51
2, 36764, Note_on_c, 0, 59, 43
2, 36766, Note_on_c, 0, 38, 43
2, 36769, Control_c, 0, 64, 0
2, 36790, Note_on_c, 0, 59, 0
2, 36795, Control_c, 0, 64, 127
2, 36802, Note_on_c, 0, 71, 0
2, 36829, Note_on_c, 0, 43, 49
2, 36830, Note_on_c, 0, 38, 0
2, 36886, Note_on_c, 0, 50, 53
2, 36893, Note_on_c, 0, 43, 0
2, 36937, Note_on_c, 0, 50, 0
2, 36953, Note_on_c, 0, 55, 62
2, 37010, Note_on_c, 0, 55, 0
2, 37014, Note_on_c, 0, 50, 53
2, 37071, Note_on_c, 0, 50, 0
2, 37073, Note_on_c, 0, 43, 41
2, 37144, Note_on_c, 0, 43, 0
2, 37144, Note_on_c, 0, 38, 36
2, 37146, Note_on_c, 0, 62, 63
2, 37148, Note_on_c, 0, 74, 46
2, 37150, Control_c, 0, 64, 0
2, 37166, Note_on_c, 0, 62, 0
2, 37174, Control_c, 0, 64, 127
2, 37182, Note_on_c, 0, 74, 0
2, 37216, Note_on_c, 0, 76, 64
2, 37217, Note_on_c, 0, 64, 66
2, 37220, Note_on_c, 0, 38, 0
2, 37223, Note_on_c, 0, 45, 61
2, 37231, Note_on_c, 0, 64, 0
2, 37231, Note_on_c, 0, 76, 0
2, 37272, Note_on_c, 0, 62, 65
2, 37274, Note_on_c, 0, 74, 56
2, 37277, Note_on_c, 0, 50, 51
2, 37280, Note_on_c, 0, 45, 0
2, 37284, Note_on_c, 0, 74, 0
2, 37287, Note_on_c, 0, 62, 0
2, 37303, Note_on_c, 0, 50, 0
2, 37323, Note_on_c, 0, 54, 63
2, 37374, Note_on_c, 0, 69, 66
2, 37374, Note_on_c, 0, 57, 66
2, 37375, Note_on_c, 0, 50, 66
2, 37387, Note_on_c, 0, 57, 0
2, 37389, Note_on_c, 0, 69, 0
2, 37394, Note_on_c, 0, 54, 0
2, 37416, Note_on_c, 0, 50, 0
2, 37418, Note_on_c, 0, 45, 63
2, 37451, Note_on_c, 0, 45, 0
2, 37467, Note_on_c, 0, 43, 75
2, 37478, Note_on_c, 0, 70, 80
2, 37478, Note_on_c, 0, 58, 84
2, 37486, Control_c, 0, 64, 0
2, 37523, Control_c, 0, 64, 127
2, 37531, Note_on_c, 0, 49, 62
2, 37541, Note_on_c, 0, 43, 0
2, 37578, Note_on_c, 0, 49, 0
2, 37584, Note_on_c, 0, 52, 63
2, 37603, Note_on_c, 0, 58, 0
2, 37614, Note_on_c, 0, 70, 0
2, 37620, Note_on_c, 0, 52, 0
2, 37632, Note_on_c, 0, 58, 60
2, 37688, Note_on_c, 0, 52, 64
2, 37710, Note_on_c, 0, 58, 0
2, 37738, Note_on_c, 0, 49, 72
2, 37747, Note_on_c, 0, 52, 0
2, 37794, Note_on_c, 0, 44, 62
2, 37796, Note_on_c, 0, 49, 0
2, 37800, Note_on_c, 0, 72, 71
2, 37801, Note_on_c, 0, 60, 53
2, 37809, Control_c, 0, 64, 0
2, 37853, Control_c, 0, 64, 127
2, 37856, Note_on_c, 0, 51, 74
2, 37905, Note_on_c, 0, 54, 69
2, 37924, Note_on_c, 0, 44, 0
2, 37954, Note_on_c, 0, 54, 0
2, 37960, Note_on_c, 0, 57, 63
2, 38012, Note_on_c, 0, 56, 66
2, 38022, Note_on_c, 0, 57, 0
2, 38045, Note_on_c, 0, 56, 0
2, 38062, Note_on_c, 0, 44, 63
2, 38066, Note_on_c, 0, 51, 0
2, 38068, Note_on_c, 0, 72, 0
2, 38068, Note_on_c, 0, 60, 0
2, 38084, Note_on_c, 0, 44, 0
2, 38118, Note_on_c, 0, 37, 68
2, 38136, Note_on_c, 0, 73, 74
2, 38137, Note_on_c, 0, 61, 72
2, 38141, Control_c, 0, 64, 0
2, 38182, Control_c, 0, 64, 127
2, 38189, Note_on_c, 0, 44, 67
2, 38192, Note_on_c, 0, 37, 0
2, 38246, Note_on_c, 0, 49, 63
2, 38260, Note_on_c, 0, 44, 0
2, 38268, Note_on_c, 0, 61, 0
2, 38277, Note_on_c, 0, 73, 0
2, 38295, Note_on_c, 0, 49, 0
2, 38304, Note_on_c, 0, 56, 68
2, 38364, Note_on_c, 0, 49, 72
2, 38371, Note_on_c, 0, 56, 0
2, 38417, Note_on_c, 0, 49, 0
2, 38428, Note_on_c, 0, 44, 70
2, 38487, Note_on_c, 0, 44, 0
2, 38500, Note_on_c, 0, 37, 67
2, 38501, Note_on_c, 0, 77, 95
2, 38502, Note_on_c, 0, 71, 79
2, 38504, Note_on_c, 0, 65, 80
2, 38514, Control_c, 0, 64, 0
2, 38560, Control_c, 0, 64, 127
2, 38566, Note_on_c, 0, 44, 72
2, 38572, Note_on_c, 0, 37, 0
2, 38616, Note_on_c, 0, 49, 74
2, 38642, Note_on_c, 0, 44, 0
2, 38664, Note_on_c, 0, 49, 0
2, 38666, Note_on_c, 0, 56, 82
2, 38712, Note_on_c, 0, 49, 66
2, 38714, Note_on_c, 0, 56, 0
2, 38716, Note_on_c, 0, 75, 86
2, 38724, Note_on_c, 0, 77, 0
2, 38756, Note_on_c, 0, 49, 0
2, 38758, Note_on_c, 0, 44, 67
2, 38766, Note_on_c, 0, 77, 84
2, 38770, Note_on_c, 0, 71, 0
2, 38776, Note_on_c, 0, 75, 0
2, 38777, Note_on_c, 0, 65, 0
2, 38807, Note_on_c, 0, 44, 0
2, 38811, Note_on_c, 0, 37, 63
2, 38820, Note_on_c, 0, 75, 95
2, 38821, Note_on_c, 0, 65, 71
2, 38825, Note_on_c, 0, 71, 75
2, 38831, Control_c, 0, 64, 0
2, 38845, Note_on_c, 0, 77, 0
2, 38864, Control_c, 0, 64, 127
2, 38869, Note_on_c, 0, 44, 63
2, 38871, Note_on_c, 0, 37, 0
2, 38914, Note_on_c, 0, 49, 65
2, 38937, Note_on_c, 0, 44, 0
2, 38960, Note_on_c, 0, 49, 0
2, 38960, Note_on_c, 0, 56, 72
2, 38978, Note_on_c, 0, 65, 0
2, 38979, Note_on_c, 0, 71, 0
2, 38980, Note_on_c, 0, 75, 0
2, 39002, Note_on_c, 0, 56, 0
2, 39006, Note_on_c, 0, 49, 65
2, 39030, Note_on_c, 0, 73, 83
2, 39052, Note_on_c, 0, 49, 0
2, 39052, Note_on_c, 0, 44, 68
2, 39065, Note_on_c, 0, 73, 0
2, 39104, Note_on_c, 0, 44, 0
2, 39106, Note_on_c, 0, 80, 99
2, 39107, Note_on_c, 0, 71, 82
2, 39108, Note_on_c, 0, 37, 75
2, 39114, Control_c, 0, 64, 0
2, 39146, Control_c, 0, 64, 127
2, 39152, Note_on_c, 0, 44, 69
2, 39157, Note_on_c, 0, 37, 0
2, 39200, Note_on_c, 0, 49, 69
2, 39220, Note_on_c, 0, 44, 0
2, 39229, Note_on_c, 0, 71, 0
2, 39246, Note_on_c, 0, 49, 0
2, 39248, Note_on_c, 0, 56, 72
2, 39250, Note_on_c, 0, 82, 90
2, 39251, Note_on_c, 0, 73, 77
2, 39260, Note_on_c, 0, 80, 0
2, 39296, Note_on_c, 0, 49, 69
2, 39299, Note_on_c, 0, 56, 0
2, 39312, Note_on_c, 0, 80, 90
2, 39313, Note_on_c, 0, 71, 72
2, 39314, Note_on_c, 0, 73, 0
2, 39316, Note_on_c, 0, 82, 0
2, 39348, Note_on_c, 0, 49, 0
2, 39349, Note_on_c, 0, 44, 66
2, 39355, Note_on_c, 0, 82, 89
2, 39358, Note_on_c, 0, 73, 76
2, 39359, Note_on_c, 0, 71, 0
2, 39362, Note_on_c, 0, 80, 0
2, 39399, Note_on_c, 0, 37, 66
2, 39402, Note_on_c, 0, 44, 0
2, 39406, Note_on_c, 0, 80, 103
2, 39407, Note_on_c, 0, 71, 70
2, 39412, Note_on_c, 0, 73, 0
2, 39413, Note_on_c, 0, 82, 0
2, 39425, Control_c, 0, 64, 0
2, 39454, Note_on_c, 0, 44, 61
2, 39455, Control_c, 0, 64, 127
2, 39458, Note_on_c, 0, 37, 0
2, 39488, Note_on_c, 0, 71, 0
2, 39495, Note_on_c, 0, 80, 0
2, 39499, Note_on_c, 0, 49, 68
2, 39528, Note_on_c, 0, 44, 0
2, 39552, Note_on_c, 0, 49, 0
2, 39554, Note_on_c, 0, 56, 79
2, 39608, Note_on_c, 0, 49, 67
2, 39610, Note_on_c, 0, 56, 0
2, 39661, Note_on_c, 0, 49, 0
2, 39664, Note_on_c, 0, 44, 71
2, 39726, Note_on_c, 0, 44, 0
2, 39726, Note_on_c, 0, 37, 67
2, 39728, Note_on_c, 0, 77, 81
2, 39728, Note_on_c, 0, 65, 72
2, 39730, Note_on_c, 0, 71, 76
2, 39752, Control_c, 0, 64, 0
2, 39787, Control_c, 0, 64, 127
2, 39789, Note_on_c, 0, 44, 68
2, 39794, Note_on_c, 0, 37, 0
2, 39834, Note_on_c, 0, 49, 68
2, 39848, Note_on_c, 0, 44, 0
2, 39877, Note_on_c, 0, 49, 0
2, 39880, Note_on_c, 0, 56, 69
2, 39917, Note_on_c, 0, 56, 0
2, 39920, Note_on_c, 0, 49, 60
2, 39922, Note_on_c, 0, 75, 79
2, 39932, Note_on_c, 0, 77, 0
2, 39964, Note_on_c, 0, 49, 0
2, 39966, Note_on_c, 0, 44, 63
2, 39971, Note_on_c, 0, 77, 75
2, 39978, Note_on_c, 0, 75, 0
2, 40014, Note_on_c, 0, 37, 70
2, 40017, Note_on_c, 0, 44, 0
2, 40026, Note_on_c, 0, 75, 86
2, 40032, Control_c, 0, 64, 0
2, 40034, Note_on_c, 0, 71, 0
2, 40060, Note_on_c, 0, 65, 0
2, 40062, Control_c, 0, 64, 127
2, 40070, Note_on_c, 0, 44, 68
2, 40076, Note_on_c, 0, 37, 0
2, 40113, Note_on_c, 0, 49, 65
2, 40116, Note_on_c, 0, 65, 67
2, 40117, Note_on_c, 0, 71, 63
2, 40126, Note_on_c, 0, 44, 0
2, 40128, Note_on_c, 0, 75, 0
2, 40165, Note_on_c, 0, 49, 0
2, 40165, Note_on_c, 0, 56, 75
2, 40210, Note_on_c, 0, 49, 65
2, 40210, Note_on_c, 0, 73, 81
2, 40213, Note_on_c, 0, 56, 0
2, 40216, Note_on_c, 0, 65, 0
2, 40222, Note_on_c, 0, 71, 0
2, 40224, Note_on_c, 0, 77, 0
2, 40232, Note_on_c, 0, 73, 0
2, 40253, Note_on_c, 0, 49, 0
2, 40256, Note_on_c, 0, 44, 65
2, 40310, Note_on_c, 0, 44, 0
2, 40310, Note_on_c, 0, 80, 96
2, 40312, Note_on_c, 0, 71, 76
2, 40312, Note_on_c, 0, 37, 63
2, 40325, Control_c, 0, 64, 0
2, 40356, Control_c, 0, 64, 127
2, 40362, Note_on_c, 0, 44, 66
2, 40366, Note_on_c, 0, 37, 0
2, 40376, Note_on_c, 0, 73, 74
2, 40378, Note_on_c, 0, 82, 93
2, 40382, Note_on_c, 0, 71, 0
2, 40388, Note_on_c, 0, 80, 0
2, 40417, Note_on_c, 0, 49, 66
2, 40425, Note_on_c, 0, 71, 65
2, 40426, Note_on_c, 0, 80, 97
2, 40427, Note_on_c, 0, 73, 0
2, 40430, Note_on_c, 0, 44, 0
2, 40433, Note_on_c, 0, 82, 0
2, 40449, Note_on_c, 0, 71, 0
2, 40468, Note_on_c, 0, 82, 80
2, 40469, Note_on_c, 0, 49, 0
2, 40469, Note_on_c, 0, 56, 68
2, 40470, Note_on_c, 0, 73, 74
2, 40472, Note_on_c, 0, 80, 0
2, 40512, Note_on_c, 0, 49, 50
2, 40513, Note_on_c, 0, 56, 0
2, 40515, Note_on_c, 0, 82, 0
2, 40518, Note_on_c, 0, 80, 93
2, 40519, Note_on_c, 0, 73, 0
2, 40520, Note_on_c, 0, 71, 57
2, 40546, Note_on_c, 0, 71, 0
2, 40560, Note_on_c, 0, 49, 0
2, 40561, Note_on_c, 0, 44, 68
2, 40564, Note_on_c, 0, 73, 72
2, 40565, Note_on_c, 0, 82, 86
2, 40570, Note_on_c, 0, 80, 0
2, 40612, Note_on_c, 0, 37, 59
2, 40616, Note_on_c, 0, 44, 0
2, 40626, Note_on_c, 0, 80, 106
2, 40628, Note_on_c, 0, 71, 77
2, 40629, Note_on_c, 0, 73, 0
2, 40637, Control_c, 0, 64, 0
2, 40638, Note_on_c, 0, 82, 0
2, 40667, Control_c, 0, 64, 127
2, 40690, Note_on_c, 0, 44, 62
2, 40692, Note_on_c, 0, 37, 0
2, 40719, Note_on_c, 0, 71, 0
2, 40729, Note_on_c, 0, 80, 0
2, 40735, Note_on_c, 0, 49, 62
2, 40751, Note_on_c, 0, 44, 0
2, 40787, Note_on_c, 0, 49, 0
2, 40790, Note_on_c, 0, 56, 69
2, 40839, Note_on_c, 0, 56, 0
2, 40848, Note_on_c, 0, 49, 68
2, 40898, Note_on_c, 0, 49, 0
2, 40904, Note_on_c, 0, 44, 67
2, 40974, Note_on_c, 0, 85, 93
2, 40974, Note_on_c, 0, 89, 104
2, 40976, Note_on_c, 0, 37, 76
2, 40977, Note_on_c, 0, 44, 0
2, 40994, Control_c, 0, 64, 0
2, 41029, Control_c, 0, 64, 127
2, 41043, Note_on_c, 0, 44, 75
2, 41057, Note_on_c, 0, 37, 0
2, 41067, Note_on_c, 0, 89, 0
2, 41069, Note_on_c, 0, 85, 0
2, 41099, Note_on_c, 0, 49, 70
2, 41132, Note_on_c, 0, 44, 0
2, 41155, Note_on_c, 0, 49, 0
2, 41156, Note_on_c, 0, 56, 67
2, 41158, Note_on_c, 0, 87, 81
2, 41160, Note_on_c, 0, 83, 81
2, 41191, Note_on_c, 0, 83, 0
2, 41199, Note_on_c, 0, 87, 0
2, 41212, Note_on_c, 0, 56, 0
2, 41214, Note_on_c, 0, 49, 63
2, 41223, Note_on_c, 0, 80, 79
2, 41223, Note_on_c, 0, 83, 69
2, 41241, Note_on_c, 0, 80, 0
2, 41242, Note_on_c, 0, 83, 0
2, 41274, Note_on_c, 0, 49, 0
2, 41279, Note_on_c, 0, 44, 59
2, 41285, Note_on_c, 0, 80, 81
2, 41285, Note_on_c, 0, 77, 74
2, 41298, Note_on_c, 0, 77, 0
2, 41299, Note_on_c, 0, 80, 0
2, 41340, Note_on_c, 0, 37, 54
2, 41344, Note_on_c, 0, 44, 0
2, 41360, Note_on_c, 0, 71, 79
2, 41362, Note_on_c, 0, 77, 82
2, 41388, Control_c, 0, 64, 0
2, 41410, Control_c, 0, 64, 127
2, 41420, Note_on_c, 0, 44, 67
2, 41426, Note_on_c, 0, 37, 0
2, 41445, Note_on_c, 0, 71, 0
2, 41452, Note_on_c, 0, 77, 0
2, 41469, Note_on_c, 0, 49, 63
2, 41486, Note_on_c, 0, 44, 0
2, 41515, Note_on_c, 0, 49, 0
2, 41516, Note_on_c, 0, 56, 76
2, 41562, Note_on_c, 0, 56, 0
2, 41564, Note_on_c, 0, 75, 70
2, 41565, Note_on_c, 0, 49, 72
2, 41565, Note_on_c, 0, 78, 69
2, 41566, Note_on_c, 0, 71, 71
2, 41590, Note_on_c, 0, 75, 0
2, 41595, Note_on_c, 0, 71, 0
2, 41604, Note_on_c, 0, 78, 0
2, 41611, Note_on_c, 0, 49, 0
2, 41616, Note_on_c, 0, 44, 67
2, 41658, Note_on_c, 0, 44, 0
2, 41665, Note_on_c, 0, 37, 53
2, 41680, Note_on_c, 0, 82, 81
2, 41682, Note_on_c, 0, 78, 66
2, 41683, Note_on_c, 0, 71, 68
2, 41694, Control_c, 0, 64, 0
2, 41730, Control_c, 0, 64, 127
2, 41740, Note_on_c, 0, 44, 59
2, 41744, Note_on_c, 0, 37, 0
2, 41791, Note_on_c, 0, 49, 61
2, 41801, Note_on_c, 0, 44, 0
2, 41834, Note_on_c, 0, 49, 0
2, 41842, Note_on_c, 0, 56, 58
2, 41888, Note_on_c, 0, 56, 0
2, 41893, Note_on_c, 0, 49, 52
2, 41938, Note_on_c, 0, 49, 0
2, 41944, Note_on_c, 0, 44, 51
2, 41990, Note_on_c, 0, 37, 48
2, 41994, Note_on_c, 0, 82, 0
2, 41996, Note_on_c, 0, 44, 0
2, 42000, Note_on_c, 0, 80, 63
2, 42002, Note_on_c, 0, 77, 61
2, 42008, Note_on_c, 0, 78, 0
2, 42027, Control_c, 0, 64, 0
2, 42046, Control_c, 0, 64, 127
2, 42053, Note_on_c, 0, 37, 0
2, 42057, Note_on_c, 0, 44, 45
2, 42076, Note_on_c, 0, 71, 0
2, 42080, Note_on_c, 0, 77, 0
2, 42083, Note_on_c, 0, 80, 0
2, 42109, Note_on_c, 0, 49, 50
2, 42115, Note_on_c, 0, 44, 0
2, 42160, Note_on_c, 0, 49, 0
2, 42170, Note_on_c, 0, 56, 53
2, 42224, Note_on_c, 0, 56, 0
2, 42231, Note_on_c, 0, 49, 50
2, 42280, Note_on_c, 0, 49, 0
2, 42293, Note_on_c, 0, 44, 53
2, 42364, Note_on_c, 0, 44, 0
2, 42373, Note_on_c, 0, 37, 48
2, 42375, Note_on_c, 0, 73, 53
2, 42378, Note_on_c, 0, 77, 60
2, 42389, Control_c, 0, 64, 0
2, 42427, Control_c, 0, 64, 127
2, 42452, Note_on_c, 0, 37, 0
2, 42456, Note_on_c, 0, 44, 40
2, 42470, Note_on_c, 0, 77, 0
2, 42478, Note_on_c, 0, 73, 0
2, 42522, Note_on_c, 0, 49, 62
2, 42533, Note_on_c, 0, 44, 0
2, 42574, Note_on_c, 0, 49, 0
2, 42580, Note_on_c, 0, 56, 61
2, 42584, Note_on_c, 0, 75, 61
2, 42590, Note_on_c, 0, 71, 46
2, 42610, Note_on_c, 0, 71, 0
2, 42610, Note_on_c, 0, 75, 0
2, 42638, Note_on_c, 0, 56, 0
2, 42640, Note_on_c, 0, 49, 51
2, 42644, Note_on_c, 0, 71, 63
2, 42648, Note_on_c, 0, 68, 57
2, 42656, Note_on_c, 0, 68, 0
2, 42659, Note_on_c, 0, 71, 0
2, 42698, Note_on_c, 0, 49, 0
2, 42703, Note_on_c, 0, 44, 48
2, 42708, Note_on_c, 0, 68, 67
2, 42710, Note_on_c, 0, 65, 53
2, 42719, Note_on_c, 0, 65, 0
2, 42724, Note_on_c, 0, 68, 0
2, 42777, Note_on_c, 0, 37, 47
2, 42780, Note_on_c, 0, 44, 0
2, 42783, Note_on_c, 0, 65, 57
2, 42784, Note_on_c, 0, 59, 57
2, 42806, Control_c, 0, 64, 0
2, 42843, Control_c, 0, 64, 127
2, 42862, Note_on_c, 0, 37, 0
2, 42862, Note_on_c, 0, 44, 53
2, 42872, Note_on_c, 0, 59, 0
2, 42882, Note_on_c, 0, 65, 0
2, 42917, Note_on_c, 0, 49, 51
2, 42922, Note_on_c, 0, 44, 0
2, 42965, Note_on_c, 0, 49, 0
2, 42968, Note_on_c, 0, 56, 43
2, 43015, Note_on_c, 0, 56, 0
2, 43022, Note_on_c, 0, 63, 56
2, 43022, Note_on_c, 0, 49, 53
2, 43023, Note_on_c, 0, 59, 52
2, 43023, Note_on_c, 0, 66, 60
2, 43056, Note_on_c, 0, 63, 0
2, 43066, Note_on_c, 0, 49, 0
2, 43076, Note_on_c, 0, 44, 54
2, 43111, Note_on_c, 0, 66, 0
2, 43129, Note_on_c, 0, 44, 0
2, 43133, Note_on_c, 0, 37, 47
2, 43152, Note_on_c, 0, 70, 65
2, 43153, Note_on_c, 0, 66, 58
2, 43160, Control_c, 0, 64, 0
2, 43196, Control_c, 0, 64, 127
2, 43202, Note_on_c, 0, 37, 0
2, 43215, Note_on_c, 0, 44, 38
2, 43269, Note_on_c, 0, 49, 57
2, 43270, Note_on_c, 0, 44, 0
2, 43314, Note_on_c, 0, 49, 0
2, 43321, Note_on_c, 0, 56, 57
2, 43376, Note_on_c, 0, 49, 53
2, 43407, Note_on_c, 0, 56, 0
2, 43430, Note_on_c, 0, 49, 0
2, 43434, Note_on_c, 0, 44, 54
2, 43470, Control_c, 0, 64, 0
2, 43494, Note_on_c, 0, 70, 0
2, 43494, Note_on_c, 0, 49, 58
2, 43497, Note_on_c, 0, 68, 62
2, 43498, Note_on_c, 0, 65, 45
2, 43500, Note_on_c, 0, 66, 0
2, 43518, Note_on_c, 0, 44, 0
2, 43522, Control_c, 0, 64, 127
2, 43562, Note_on_c, 0, 56, 61
2, 43568, Note_on_c, 0, 49, 0
2, 43604, Note_on_c, 0, 56, 0
2, 43615, Note_on_c, 0, 61, 49
2, 43662, Note_on_c, 0, 61, 0
2, 43671, Note_on_c, 0, 56, 42
2, 43718, Note_on_c, 0, 56, 0
2, 43731, Note_on_c, 0, 49, 42
2, 43783, Note_on_c, 0, 44, 43
2, 43785, Note_on_c, 0, 49, 0
2, 43843, Note_on_c, 0, 44, 0
2, 43845, Note_on_c, 0, 49, 43
2, 43899, Note_on_c, 0, 56, 43
2, 43913, Note_on_c, 0, 49, 0
2, 43941, Note_on_c, 0, 56, 0
2, 43957, Note_on_c, 0, 61, 43
2, 43999, Note_on_c, 0, 61, 0
2, 44013, Note_on_c, 0, 56, 43
2, 44059, Note_on_c, 0, 56, 0
2, 44067, Note_on_c, 0, 49, 43
2, 44119, Note_on_c, 0, 65, 0
2, 44124, Note_on_c, 0, 59, 0
2, 44124, Note_on_c, 0, 49, 0
2, 44125, Note_on_c, 0, 44, 43
2, 44137, Note_on_c, 0, 68, 0
2, 44184, Note_on_c, 0, 49, 43
2, 44185, Note_on_c, 0, 44, 0
2, 44245, Note_on_c, 0, 56, 43
2, 44258, Note_on_c, 0, 49, 0
2, 44292, Note_on_c, 0, 56, 0
2, 44302, Note_on_c, 0, 61, 43
2, 44346, Note_on_c, 0, 61, 0
2, 44362, Note_on_c, 0, 56, 43
2, 44406, Note_on_c, 0, 56, 0
2, 44421, Note_on_c, 0, 49, 43
2, 44481, Note_on_c, 0, 49, 0
2, 44484, Note_on_c, 0, 44, 47
2, 44538, Note_on_c, 0, 44, 0
2, 44544, Note_on_c, 0, 49, 53
2, 44605, Note_on_c, 0, 56, 49
2, 44618, Note_on_c, 0, 49, 0
2, 44656, Note_on_c, 0, 56, 0
2, 44667, Note_on_c, 0, 61, 42
2, 44721, Note_on_c, 0, 61, 0
2, 44732, Note_on_c, 0, 56, 48
2, 44784, Note_on_c, 0, 56, 0
2, 44799, Note_on_c, 0, 49, 44
2, 44866, Note_on_c, 0, 49, 0
2, 44868, Note_on_c, 0, 44, 54
2, 44954, Note_on_c, 0, 49, 52
2, 44956, Note_on_c, 0, 73, 56
2, 44957, Note_on_c, 0, 44, 0
2, 44958, Note_on_c, 0, 77, 63
2, 45032, Note_on_c, 0, 56, 42
2, 45070, Note_on_c, 0, 49, 0
2, 45088, Note_on_c, 0, 56, 0
2, 45094, Note_on_c, 0, 61, 38
2, 45148, Note_on_c, 0, 61, 0
2, 45158, Note_on_c, 0, 56, 47
2, 45211, Note_on_c, 0, 56, 0
2, 45213, Note_on_c, 0, 77, 0
2, 45221, Note_on_c, 0, 68, 51
2, 45221, Note_on_c, 0, 49, 49
2, 45224, Note_on_c, 0, 75, 49
2, 45230, Note_on_c, 0, 73, 0
2, 45276, Note_on_c, 0, 44, 53
2, 45278, Note_on_c, 0, 49, 0
2, 45290, Note_on_c, 0, 77, 57
2, 45292, Note_on_c, 0, 73, 54
2, 45302, Note_on_c, 0, 75, 0
2, 45305, Note_on_c, 0, 68, 0
2, 45349, Note_on_c, 0, 49, 47
2, 45350, Note_on_c, 0, 44, 0
2, 45360, Note_on_c, 0, 77, 0
2, 45376, Note_on_c, 0, 75, 56
2, 45376, Note_on_c, 0, 68, 47
2, 45382, Note_on_c, 0, 73, 0
2, 45436, Note_on_c, 0, 56, 50
2, 45454, Note_on_c, 0, 68, 0
2, 45459, Note_on_c, 0, 49, 0
2, 45491, Note_on_c, 0, 56, 0
2, 45495, Note_on_c, 0, 61, 51
2, 45550, Note_on_c, 0, 61, 0
2, 45552, Note_on_c, 0, 56, 51
2, 45566, Note_on_c, 0, 75, 0
2, 45611, Note_on_c, 0, 56, 0
2, 45616, Note_on_c, 0, 49, 43
2, 45645, Note_on_c, 0, 65, 48
2, 45645, Note_on_c, 0, 73, 58
2, 45678, Note_on_c, 0, 49, 0
2, 45678, Note_on_c, 0, 44, 59
2, 45705, Note_on_c, 0, 65, 0
2, 45729, Note_on_c, 0, 73, 0
2, 45745, Note_on_c, 0, 44, 0
2, 45745, Note_on_c, 0, 49, 60
2, 45752, Note_on_c, 0, 80, 59
2, 45754, Note_on_c, 0, 77, 53
2, 45818, Note_on_c, 0, 56, 50
2, 45864, Note_on_c, 0, 56, 0
2, 45874, Note_on_c, 0, 61, 47
2, 45876, Note_on_c, 0, 80, 0
2, 45880, Note_on_c, 0, 49, 0
2, 45927, Note_on_c, 0, 77, 0
2, 45929, Note_on_c, 0, 61, 0
2, 45934, Note_on_c, 0, 56, 45
2, 45942, Note_on_c, 0, 82, 63
2, 45946, Note_on_c, 0, 78, 52
2, 45992, Note_on_c, 0, 56, 0
2, 45996, Note_on_c, 0, 49, 58
2, 46011, Note_on_c, 0, 82, 0
2, 46013, Note_on_c, 0, 80, 66
2, 46014, Note_on_c, 0, 78, 0
2, 46015, Note_on_c, 0, 77, 65
2, 46062, Note_on_c, 0, 44, 54
2, 46063, Note_on_c, 0, 49, 0
2, 46067, Note_on_c, 0, 82, 65
2, 46068, Note_on_c, 0, 78, 68
2, 46070, Note_on_c, 0, 80, 0
2, 46071, Note_on_c, 0, 77, 0
2, 46127, Note_on_c, 0, 49, 59
2, 46132, Note_on_c, 0, 44, 0
2, 46144, Note_on_c, 0, 77, 69
2, 46146, Note_on_c, 0, 80, 68
2, 46150, Note_on_c, 0, 78, 0
2, 46155, Note_on_c, 0, 82, 0
2, 46217, Note_on_c, 0, 77, 0
2, 46217, Note_on_c, 0, 56, 50
2, 46235, Note_on_c, 0, 80, 0
2, 46249, Note_on_c, 0, 49, 0
2, 46274, Note_on_c, 0, 56, 0
2, 46278, Note_on_c, 0, 61, 43
2, 46340, Note_on_c, 0, 61, 0
2, 46343, Note_on_c, 0, 56, 51
2, 46407, Note_on_c, 0, 56, 0
2, 46410, Note_on_c, 0, 49, 51
2, 46482, Note_on_c, 0, 49, 0
2, 46482, Note_on_c, 0, 44, 52
2, 46557, Note_on_c, 0, 73, 52
2, 46558, Note_on_c, 0, 49, 59
2, 46558, Note_on_c, 0, 77, 56
2, 46564, Note_on_c, 0, 44, 0
2, 46626, Note_on_c, 0, 56, 51
2, 46647, Note_on_c, 0, 49, 0
2, 46675, Note_on_c, 0, 56, 0
2, 46684, Note_on_c, 0, 61, 51
2, 46732, Note_on_c, 0, 61, 0
2, 46741, Note_on_c, 0, 56, 52
2, 46790, Note_on_c, 0, 56, 0
2, 46793, Note_on_c, 0, 49, 56
2, 46794, Note_on_c, 0, 77, 0
2, 46798, Note_on_c, 0, 68, 62
2, 46799, Note_on_c, 0, 75, 65
2, 46811, Note_on_c, 0, 73, 0
2, 46848, Note_on_c, 0, 44, 69
2, 46850, Note_on_c, 0, 49, 0
2, 46864, Note_on_c, 0, 77, 64
2, 46864, Note_on_c, 0, 73, 66
2, 46870, Note_on_c, 0, 68, 0
2, 46871, Note_on_c, 0, 75, 0
2, 46918, Note_on_c, 0, 49, 56
2, 46925, Note_on_c, 0, 44, 0
2, 46935, Note_on_c, 0, 68, 57
2, 46938, Note_on_c, 0, 75, 65
2, 46939, Note_on_c, 0, 77, 0
2, 46950, Note_on_c, 0, 73, 0
2, 46996, Note_on_c, 0, 56, 57
2, 47015, Note_on_c, 0, 68, 0
2, 47018, Note_on_c, 0, 49, 0
2, 47051, Note_on_c, 0, 56, 0
2, 47054, Note_on_c, 0, 61, 47
2, 47110, Note_on_c, 0, 61, 0
2, 47112, Note_on_c, 0, 56, 53
2, 47117, Note_on_c, 0, 75, 0
2, 47172, Note_on_c, 0, 56, 0
2, 47175, Note_on_c, 0, 65, 52
2, 47175, Note_on_c, 0, 73, 48
2, 47176, Note_on_c, 0, 49, 49
2, 47217, Note_on_c, 0, 65, 0
2, 47238, Note_on_c, 0, 44, 58
2, 47240, Note_on_c, 0, 49, 0
2, 47245, Note_on_c, 0, 73, 0
2, 47306, Note_on_c, 0, 49, 54
2, 47310, Note_on_c, 0, 77, 57
2, 47310, Note_on_c, 0, 80, 65
2, 47314, Note_on_c, 0, 44, 0
2, 47376, Note_on_c, 0, 56, 47
2, 47384, Note_on_c, 0, 77, 0
2, 47385, Note_on_c, 0, 82, 70
2, 47385, Note_on_c, 0, 78, 63
2, 47393, Note_on_c, 0, 80, 0
2, 47414, Note_on_c, 0, 49, 0
2, 47436, Note_on_c, 0, 56, 0
2, 47440, Note_on_c, 0, 61, 54
2, 47445, Note_on_c, 0, 78, 0
2, 47445, Note_on_c, 0, 80, 76
2, 47447, Note_on_c, 0, 77, 66
2, 47450, Note_on_c, 0, 82, 0
2, 47494, Note_on_c, 0, 61, 0
2, 47497, Note_on_c, 0, 56, 59
2, 47501, Note_on_c, 0, 78, 68
2, 47502, Note_on_c, 0, 82, 74
2, 47504, Note_on_c, 0, 77, 0
2, 47510, Note_on_c, 0, 80, 0
2, 47549, Note_on_c, 0, 56, 0
2, 47552, Note_on_c, 0, 49, 49
2, 47563, Note_on_c, 0, 78, 0
2, 47563, Note_on_c, 0, 80, 68
2, 47567, Note_on_c, 0, 77, 61
2, 47570, Note_on_c, 0, 82, 0
2, 47616, Note_on_c, 0, 49, 0
2, 47616, Note_on_c, 0, 44, 60
2, 47622, Note_on_c, 0, 82, 70
2, 47623, Note_on_c, 0, 78, 60
2, 47628, Note_on_c, 0, 77, 0
2, 47631, Note_on_c, 0, 80, 0
2, 47682, Note_on_c, 0, 49, 56
2, 47689, Note_on_c, 0, 44, 0
2, 47695, Note_on_c, 0, 78, 0
2, 47702, Note_on_c, 0, 82, 0
2, 47703, Note_on_c, 0, 80, 67
2, 47705, Note_on_c, 0, 77, 66
2, 47758, Note_on_c, 0, 56, 59
2, 47786, Note_on_c, 0, 49, 0
2, 47820, Note_on_c, 0, 56, 0
2, 47821, Note_on_c, 0, 61, 48
2, 47885, Note_on_c, 0, 56, 63
2, 47891, Note_on_c, 0, 61, 0
2, 47939, Note_on_c, 0, 77, 0
2, 47949, Note_on_c, 0, 56, 0
2, 47955, Note_on_c, 0, 49, 60
2, 47957, Note_on_c, 0, 80, 0
2, 48026, Note_on_c, 0, 44, 70
2, 48028, Note_on_c, 0, 49, 0
2, 48117, Note_on_c, 0, 49, 61
2, 48120, Note_on_c, 0, 85, 68
2, 48120, Note_on_c, 0, 89, 70
2, 48136, Note_on_c, 0, 44, 0
2, 48206, Note_on_c, 0, 56, 62
2, 48240, Note_on_c, 0, 89, 0
2, 48242, Note_on_c, 0, 85, 0
2, 48272, Note_on_c, 0, 56, 0
2, 48272, Note_on_c, 0, 61, 56
2, 48273, Note_on_c, 0, 49, 0
2, 48331, Note_on_c, 0, 61, 0
2, 48336, Note_on_c, 0, 56, 57
2, 48339, Note_on_c, 0, 80, 67
2, 48341, Note_on_c, 0, 87, 71
2, 48399, Note_on_c, 0, 56, 0
2, 48404, Note_on_c, 0, 49, 56
2, 48407, Note_on_c, 0, 85, 72
2, 48410, Note_on_c, 0, 77, 37
2, 48413, Note_on_c, 0, 87, 0
2, 48419, Note_on_c, 0, 80, 0
2, 48422, Note_on_c, 0, 77, 0
2, 48431, Note_on_c, 0, 85, 0
2, 48458, Note_on_c, 0, 49, 0
2, 48462, Note_on_c, 0, 44, 52
2, 48473, Note_on_c, 0, 80, 68
2, 48476, Note_on_c, 0, 77, 43
2, 48487, Note_on_c, 0, 77, 0
2, 48543, Note_on_c, 0, 49, 54
2, 48544, Note_on_c, 0, 44, 0
2, 48547, Note_on_c, 0, 73, 57
2, 48548, Note_on_c, 0, 77, 66
2, 48558, Note_on_c, 0, 80, 0
2, 48616, Note_on_c, 0, 56, 51
2, 48644, Note_on_c, 0, 49, 0
2, 48667, Note_on_c, 0, 77, 0
2, 48669, Note_on_c, 0, 56, 0
2, 48672, Note_on_c, 0, 61, 44
2, 48725, Note_on_c, 0, 73, 0
2, 48732, Note_on_c, 0, 56, 56
2, 48733, Note_on_c, 0, 61, 0
2, 48786, Note_on_c, 0, 56, 0
2, 48791, Note_on_c, 0, 78, 62
2, 48791, Note_on_c, 0, 49, 52
2, 48793, Note_on_c, 0, 75, 53
2, 48849, Note_on_c, 0, 75, 0
2, 48850, Note_on_c, 0, 49, 0
2, 48855, Note_on_c, 0, 44, 40
2, 48865, Note_on_c, 0, 78, 0
2, 48927, Note_on_c, 0, 82, 62
2, 48927, Note_on_c, 0, 78, 60
2, 48930, Note_on_c, 0, 49, 52
2, 48936, Note_on_c, 0, 44, 0
2, 49002, Note_on_c, 0, 56, 50
2, 49029, Note_on_c, 0, 49, 0
2, 49057, Note_on_c, 0, 56, 0
2, 49060, Note_on_c, 0, 61, 48
2, 49120, Note_on_c, 0, 61, 0
2, 49124, Note_on_c, 0, 56, 51
2, 49180, Note_on_c, 0, 56, 0
2, 49188, Note_on_c, 0, 49, 53
2, 49246, Note_on_c, 0, 49, 0
2, 49250, Note_on_c, 0, 44, 53
2, 49271, Note_on_c, 0, 82, 0
2, 49301, Note_on_c, 0, 78, 0
2, 49318, Note_on_c, 0, 44, 0
2, 49318, Note_on_c, 0, 80, 62
2, 49320, Note_on_c, 0, 49, 48
2, 49323, Note_on_c, 0, 77, 45
2, 49384, Note_on_c, 0, 56, 47
2, 49400, Note_on_c, 0, 49, 0
2, 49442, Note_on_c, 0, 56, 0
2, 49445, Note_on_c, 0, 77, 0
2, 49450, Note_on_c, 0, 80, 0
2, 49450, Note_on_c, 0, 61, 36
2, 49502, Note_on_c, 0, 61, 0
2, 49517, Note_on_c, 0, 56, 41
2, 49573, Note_on_c, 0, 56, 0
2, 49582, Note_on_c, 0, 49, 47
2, 49651, Note_on_c, 0, 44, 47
2, 49652, Note_on_c, 0, 49, 0
2, 49722, Note_on_c, 0, 73, 45
2, 49723, Note_on_c, 0, 77, 57
2, 49725, Note_on_c, 0, 49, 50
2, 49728, Note_on_c, 0, 44, 0
2, 49800, Note_on_c, 0, 56, 42
2, 49817, Note_on_c, 0, 49, 0
2, 49852, Note_on_c, 0, 56, 0
2, 49862, Note_on_c, 0, 61, 36
2, 49914, Note_on_c, 0, 61, 0
2, 49924, Note_on_c, 0, 56, 49
2, 49976, Note_on_c, 0, 56, 0
2, 49988, Note_on_c, 0, 49, 50
2, 50052, Note_on_c, 0, 45, 67
2, 50054, Note_on_c, 0, 49, 0
2, 50069, Control_c, 0, 64, 0
2, 50102, Control_c, 0, 64, 127
2, 50118, Note_on_c, 0, 49, 59
2, 50123, Note_on_c, 0, 45, 0
2, 50183, Note_on_c, 0, 57, 47
2, 50188, Note_on_c, 0, 49, 0
2, 50226, Note_on_c, 0, 57, 0
2, 50250, Note_on_c, 0, 61, 47
2, 50302, Note_on_c, 0, 61, 0
2, 50316, Note_on_c, 0, 57, 42
2, 50345, Note_on_c, 0, 57, 0
2, 50370, Note_on_c, 0, 49, 45
2, 50435, Note_on_c, 0, 44, 63
2, 50440, Note_on_c, 0, 49, 0
2, 50461, Control_c, 0, 64, 0
2, 50484, Control_c, 0, 64, 127
2, 50499, Note_on_c, 0, 49, 58
2, 50505, Note_on_c, 0, 44, 0
2, 50565, Note_on_c, 0, 56, 53
2, 50582, Note_on_c, 0, 49, 0
2, 50608, Note_on_c, 0, 56, 0
2, 50623, Note_on_c, 0, 61, 45
2, 50683, Note_on_c, 0, 56, 54
2, 50689, Note_on_c, 0, 61, 0
2, 50742, Note_on_c, 0, 56, 0
2, 50750, Note_on_c, 0, 49, 53
2, 50767, Note_on_c, 0, 49, 0
2, 50816, Note_on_c, 0, 42, 57
2, 50834, Control_c, 0, 64, 0
2, 50853, Control_c, 0, 64, 127
2, 50880, Note_on_c, 0, 42, 0
2, 50884, Note_on_c, 0, 49, 42
2, 50944, Note_on_c, 0, 49, 0
2, 50948, Note_on_c, 0, 54, 44
2, 50991, Note_on_c, 0, 54, 0
2, 51009, Note_on_c, 0, 61, 42
2, 51066, Note_on_c, 0, 61, 0
2, 51074, Note_on_c, 0, 54, 35
2, 51130, Note_on_c, 0, 54, 0
2, 51140, Note_on_c, 0, 49, 44
2, 51202, Note_on_c, 0, 44, 68
2, 51211, Note_on_c, 0, 49, 0
2, 51226, Control_c, 0, 64, 0
2, 51270, Control_c, 0, 64, 127
2, 51275, Note_on_c, 0, 49, 57
2, 51286, Note_on_c, 0, 44, 0
2, 51344, Note_on_c, 0, 56, 34
2, 51356, Note_on_c, 0, 56, 0
2, 51357, Note_on_c, 0, 49, 0
2, 51405, Note_on_c, 0, 61, 57
2, 51466, Note_on_c, 0, 56, 63
2, 51479, Note_on_c, 0, 61, 0
2, 51523, Note_on_c, 0, 56, 0
2, 51529, Note_on_c, 0, 49, 60
2, 51588, Note_on_c, 0, 49, 0
2, 51602, Note_on_c, 0, 45, 55
2, 51618, Control_c, 0, 64, 0
2, 51662, Note_on_c, 0, 49, 57
2, 51665, Control_c, 0, 64, 127
2, 51666, Note_on_c, 0, 45, 0
2, 51731, Note_on_c, 0, 57, 49
2, 51739, Note_on_c, 0, 49, 0
2, 51768, Note_on_c, 0, 57, 0
2, 51798, Note_on_c, 0, 61, 45
2, 51848, Note_on_c, 0, 61, 0
2, 51868, Note_on_c, 0, 57, 39
2, 51908, Note_on_c, 0, 57, 0
2, 51942, Note_on_c, 0, 49, 43
2, 52003, Note_on_c, 0, 49, 0
2, 52014, Note_on_c, 0, 45, 46
2, 52031, Note_on_c, 0, 45, 0
2, 52082, Note_on_c, 0, 49, 53
2, 52100, Note_on_c, 0, 49, 0
2, 52146, Note_on_c, 0, 57, 44
2, 52198, Note_on_c, 0, 57, 0
2, 52215, Note_on_c, 0, 73, 0
2, 52215, Note_on_c, 0, 61, 50
2, 52230, Note_on_c, 0, 77, 0
2, 52274, Note_on_c, 0, 57, 50
2, 52311, Note_on_c, 0, 61, 0
2, 52319, Note_on_c, 0, 57, 0
2, 52339, Note_on_c, 0, 49, 54
2, 52396, Note_on_c, 0, 49, 0
2, 52423, Note_on_c, 0, 46, 51
2, 52436, Control_c, 0, 64, 0
2, 52513, Note_on_c, 0, 82, 62
2, 52515, Note_on_c, 0, 49, 50
2, 52537, Control_c, 0, 64, 127
2, 52578, Note_on_c, 0, 46, 0
2, 52603, Note_on_c, 0, 53, 58
2, 52606, Note_on_c, 0, 49, 0
2, 52608, Note_on_c, 0, 84, 62
2, 52645, Note_on_c, 0, 82, 0
2, 52664, Note_on_c, 0, 53, 0
2, 52672, Note_on_c, 0, 61, 39
2, 52678, Note_on_c, 0, 85, 70
2, 52679, Note_on_c, 0, 84, 0
2, 52728, Note_on_c, 0, 85, 0
2, 52729, Note_on_c, 0, 61, 0
2, 52739, Note_on_c, 0, 58, 52
2, 52741, Note_on_c, 0, 81, 55
2, 52788, Note_on_c, 0, 81, 0
2, 52800, Note_on_c, 0, 82, 65
2, 52801, Note_on_c, 0, 65, 49
2, 52834, Note_on_c, 0, 65, 0
2, 52854, Note_on_c, 0, 58, 0
2, 52862, Note_on_c, 0, 53, 51
2, 52863, Note_on_c, 0, 78, 56
2, 52872, Note_on_c, 0, 53, 0
2, 52880, Note_on_c, 0, 82, 0
2, 52934, Note_on_c, 0, 46, 47
2, 52937, Note_on_c, 0, 77, 64
2, 52942, Note_on_c, 0, 78, 0
2, 52943, Control_c, 0, 64, 0
2, 52996, Control_c, 0, 64, 127
2, 53005, Note_on_c, 0, 77, 0
2, 53007, Note_on_c, 0, 53, 44
2, 53033, Note_on_c, 0, 46, 0
2, 53049, Note_on_c, 0, 53, 0
2, 53068, Note_on_c, 0, 77, 60
2, 53069, Note_on_c, 0, 61, 47
2, 53112, Note_on_c, 0, 77, 0
2, 53120, Note_on_c, 0, 61, 0
2, 53129, Note_on_c, 0, 58, 58
2, 53186, Note_on_c, 0, 77, 73
2, 53188, Note_on_c, 0, 65, 49
2, 53211, Note_on_c, 0, 77, 0
2, 53226, Note_on_c, 0, 65, 0
2, 53242, Note_on_c, 0, 58, 0
2, 53254, Note_on_c, 0, 53, 47
2, 53265, Note_on_c, 0, 53, 0
2, 53311, Note_on_c, 0, 77, 78
2, 53312, Note_on_c, 0, 46, 51
2, 53332, Control_c, 0, 64, 0
2, 53370, Control_c, 0, 64, 127
2, 53382, Note_on_c, 0, 53, 54
2, 53399, Note_on_c, 0, 46, 0
2, 53410, Note_on_c, 0, 53, 0
2, 53437, Note_on_c, 0, 77, 0
2, 53438, Note_on_c, 0, 78, 60
2, 53442, Note_on_c, 0, 63, 41
2, 53485, Note_on_c, 0, 63, 0
2, 53499, Note_on_c, 0, 77, 60
2, 53500, Note_on_c, 0, 57, 58
2, 53508, Note_on_c, 0, 57, 0
2, 53513, Note_on_c, 0, 78, 0
2, 53556, Note_on_c, 0, 75, 60
2, 53558, Note_on_c, 0, 65, 55
2, 53565, Note_on_c, 0, 77, 0
2, 53592, Note_on_c, 0, 65, 0
2, 53610, Note_on_c, 0, 75, 0
2, 53614, Note_on_c, 0, 72, 58
2, 53614, Note_on_c, 0, 53, 49
2, 53628, Note_on_c, 0, 53, 0
2, 53631, Note_on_c, 0, 72, 0
2, 53677, Note_on_c, 0, 73, 71
2, 53682, Note_on_c, 0, 46, 57
2, 53695, Control_c, 0, 64, 0
2, 53740, Control_c, 0, 64, 127
2, 53746, Note_on_c, 0, 53, 50
2, 53788, Note_on_c, 0, 53, 0
2, 53788, Note_on_c, 0, 46, 0
2, 53806, Note_on_c, 0, 61, 44
2, 53852, Note_on_c, 0, 61, 0
2, 53866, Note_on_c, 0, 58, 53
2, 53922, Note_on_c, 0, 73, 0
2, 53926, Note_on_c, 0, 65, 41
2, 53934, Note_on_c, 0, 70, 42
2, 53964, Note_on_c, 0, 70, 0
2, 53964, Note_on_c, 0, 65, 0
2, 53985, Note_on_c, 0, 58, 0
2, 54000, Note_on_c, 0, 53, 46
2, 54012, Note_on_c, 0, 53, 0
2, 54072, Note_on_c, 0, 46, 49
2, 54074, Note_on_c, 0, 82, 67
2, 54088, Control_c, 0, 64, 0
2, 54133, Control_c, 0, 64, 127
2, 54142, Note_on_c, 0, 53, 56
2, 54155, Note_on_c, 0, 84, 70
2, 54177, Note_on_c, 0, 82, 0
2, 54184, Note_on_c, 0, 46, 0
2, 54198, Note_on_c, 0, 53, 0
2, 54208, Note_on_c, 0, 61, 54
2, 54209, Note_on_c, 0, 85, 74
2, 54216, Note_on_c, 0, 84, 0
2, 54244, Note_on_c, 0, 85, 0
2, 54248, Note_on_c, 0, 81, 65
2, 54269, Note_on_c, 0, 58, 60
2, 54270, Note_on_c, 0, 61, 0
2, 54291, Note_on_c, 0, 81, 0
2, 54291, Note_on_c, 0, 84, 72
2, 54327, Note_on_c, 0, 65, 53
2, 54345, Note_on_c, 0, 82, 71
2, 54364, Note_on_c, 0, 65, 0
2, 54374, Note_on_c, 0, 84, 0
2, 54383, Note_on_c, 0, 58, 0
2, 54390, Note_on_c, 0, 53, 50
2, 54394, Note_on_c, 0, 78, 74
2, 54402, Note_on_c, 0, 82, 0
2, 54405, Note_on_c, 0, 53, 0
2, 54450, Note_on_c, 0, 78, 0
2, 54456, Note_on_c, 0, 46, 58
2, 54457, Note_on_c, 0, 77, 74
2, 54464, Control_c, 0, 64, 0
2, 54504, Note_on_c, 0, 78, 71
2, 54506, Note_on_c, 0, 77, 0
2, 54514, Control_c, 0, 64, 127
2, 54517, Note_on_c, 0, 53, 50
2, 54541, Note_on_c, 0, 76, 66
2, 54544, Note_on_c, 0, 78, 0
2, 54547, Note_on_c, 0, 46, 0
2, 54563, Note_on_c, 0, 76, 0
2, 54570, Note_on_c, 0, 53, 0
2, 54582, Note_on_c, 0, 77, 70
2, 54584, Note_on_c, 0, 61, 53
2, 54596, Note_on_c, 0, 77, 0
2, 54629, Note_on_c, 0, 101, 84
2, 54640, Note_on_c, 0, 61, 0
2, 54642, Note_on_c, 0, 58, 62
2, 54671, Note_on_c, 0, 100, 78
2, 54672, Note_on_c, 0, 101, 0
2, 54699, Note_on_c, 0, 65, 50
2, 54709, Note_on_c, 0, 99, 90
2, 54726, Note_on_c, 0, 100, 0
2, 54733, Note_on_c, 0, 65, 0
2, 54746, Note_on_c, 0, 97, 72
2, 54750, Note_on_c, 0, 99, 0
2, 54761, Note_on_c, 0, 58, 0
2, 54763, Note_on_c, 0, 53, 52
2, 54776, Note_on_c, 0, 53, 0
2, 54783, Note_on_c, 0, 97, 0
2, 54784, Note_on_c, 0, 96, 76
2, 54802, Note_on_c, 0, 96, 0
2, 54823, Note_on_c, 0, 46, 62
2, 54824, Note_on_c, 0, 94, 76
2, 54827, Control_c, 0, 64, 0
2, 54850, Control_c, 0, 64, 127
2, 54858, Note_on_c, 0, 93, 68
2, 54880, Note_on_c, 0, 94, 0
2, 54884, Note_on_c, 0, 53, 56
2, 54885, Note_on_c, 0, 93, 0
2, 54889, Note_on_c, 0, 90, 59
2, 54892, Note_on_c, 0, 46, 0
2, 54911, Note_on_c, 0, 90, 0
2, 54913, Note_on_c, 0, 89, 58
2, 54922, Note_on_c, 0, 89, 0
2, 54932, Note_on_c, 0, 53, 0
2, 54934, Note_on_c, 0, 88, 51
2, 54946, Note_on_c, 0, 63, 59
2, 54956, Note_on_c, 0, 87, 87
2, 54961, Note_on_c, 0, 88, 0
2, 54978, Note_on_c, 0, 87, 0
2, 54981, Note_on_c, 0, 85, 53
2, 54988, Note_on_c, 0, 85, 0
2, 54996, Note_on_c, 0, 84, 60
2, 55012, Note_on_c, 0, 84, 0
2, 55012, Note_on_c, 0, 63, 0
2, 55012, Note_on_c, 0, 82, 76
2, 55016, Note_on_c, 0, 57, 58
2, 55034, Note_on_c, 0, 81, 76
2, 55052, Note_on_c, 0, 82, 0
2, 55054, Note_on_c, 0, 81, 0
2, 55054, Note_on_c, 0, 78, 61
2, 55070, Note_on_c, 0, 78, 0
2, 55074, Note_on_c, 0, 77, 67
2, 55098, Note_on_c, 0, 77, 0
2, 55099, Note_on_c, 0, 65, 64
2, 55100, Note_on_c, 0, 78, 70
2, 55107, Note_on_c, 0, 78, 0
2, 55126, Note_on_c, 0, 76, 58
2, 55143, Note_on_c, 0, 76, 0
2, 55150, Note_on_c, 0, 77, 62
2, 55176, Note_on_c, 0, 71, 66
2, 55178, Note_on_c, 0, 77, 0
2, 55188, Note_on_c, 0, 53, 42
2, 55192, Note_on_c, 0, 71, 0
2, 55204, Note_on_c, 0, 72, 66
2, 55220, Note_on_c, 0, 72, 0
2, 55248, Note_on_c, 0, 57, 0
2, 55250, Note_on_c, 0, 77, 67
2, 55256, Note_on_c, 0, 65, 0
2, 55283, Note_on_c, 0, 77, 0
2, 55286, Note_on_c, 0, 75, 71
2, 55291, Note_on_c, 0, 53, 0
2, 55304, Note_on_c, 0, 75, 0
2, 55319, Note_on_c, 0, 73, 68
2, 55334, Note_on_c, 0, 73, 0
2, 55353, Note_on_c, 0, 46, 53
2, 55365, Note_on_c, 0, 73, 71
2, 55378, Control_c, 0, 64, 0
2, 55443, Note_on_c, 0, 53, 49
2, 55450, Control_c, 0, 64, 127
2, 55481, Note_on_c, 0, 46, 0
2, 55492, Note_on_c, 0, 53, 0
2, 55497, Note_on_c, 0, 61, 51
2, 55537, Note_on_c, 0, 61, 0
2, 55553, Note_on_c, 0, 58, 53
2, 55605, Note_on_c, 0, 70, 69
2, 55608, Note_on_c, 0, 65, 59
2, 55614, Note_on_c, 0, 73, 0
2, 55619, Note_on_c, 0, 70, 0
2, 55636, Note_on_c, 0, 65, 0
2, 55659, Note_on_c, 0, 53, 51
2, 55662, Note_on_c, 0, 58, 0
2, 55676, Note_on_c, 0, 53, 0
2, 55718, Note_on_c, 0, 46, 65
2, 55720, Note_on_c, 0, 82, 79
2, 55728, Control_c, 0, 64, 0
2, 55770, Control_c, 0, 64, 127
2, 55780, Note_on_c, 0, 53, 56
2, 55806, Note_on_c, 0, 82, 0
2, 55814, Note_on_c, 0, 46, 0
2, 55830, Note_on_c, 0, 53, 0
2, 55838, Note_on_c, 0, 82, 79
2, 55838, Note_on_c, 0, 61, 53
2, 55896, Note_on_c, 0, 61, 0
2, 55898, Note_on_c, 0, 58, 63
2, 55918, Note_on_c, 0, 82, 0
2, 55961, Note_on_c, 0, 82, 79
2, 55967, Note_on_c, 0, 65, 50
2, 56002, Note_on_c, 0, 65, 0
2, 56027, Note_on_c, 0, 58, 0
2, 56028, Note_on_c, 0, 53, 54
2, 56038, Note_on_c, 0, 82, 0
2, 56042, Note_on_c, 0, 53, 0
2, 56097, Note_on_c, 0, 46, 52
2, 56097, Note_on_c, 0, 82, 83
2, 56113, Control_c, 0, 64, 0
2, 56160, Note_on_c, 0, 53, 51
2, 56164, Control_c, 0, 64, 127
2, 56186, Note_on_c, 0, 46, 0
2, 56202, Note_on_c, 0, 53, 0
2, 56222, Note_on_c, 0, 62, 55
2, 56252, Note_on_c, 0, 62, 0
2, 56276, Note_on_c, 0, 58, 65
2, 56330, Note_on_c, 0, 74, 58
2, 56334, Note_on_c, 0, 68, 70
2, 56346, Note_on_c, 0, 82, 0
2, 56380, Note_on_c, 0, 68, 0
2, 56392, Note_on_c, 0, 62, 59
2, 56396, Note_on_c, 0, 58, 0
2, 56399, Note_on_c, 0, 62, 0
2, 56450, Note_on_c, 0, 51, 70
2, 56456, Note_on_c, 0, 75, 79
2, 56466, Control_c, 0, 64, 0
2, 56468, Note_on_c, 0, 74, 0
2, 56510, Note_on_c, 0, 77, 67
2, 56511, Control_c, 0, 64, 127
2, 56516, Note_on_c, 0, 75, 0
2, 56517, Note_on_c, 0, 54, 69
2, 56552, Note_on_c, 0, 75, 72
2, 56556, Note_on_c, 0, 77, 0
2, 56569, Note_on_c, 0, 63, 58
2, 56584, Note_on_c, 0, 75, 0
2, 56592, Note_on_c, 0, 74, 63
2, 56630, Note_on_c, 0, 75, 83
2, 56634, Note_on_c, 0, 58, 60
2, 56642, Note_on_c, 0, 63, 0
2, 56646, Note_on_c, 0, 74, 0
2, 56648, Note_on_c, 0, 54, 0
2, 56652, Note_on_c, 0, 51, 0
2, 56684, Note_on_c, 0, 58, 0
2, 56684, Note_on_c, 0, 78, 79
2, 56687, Note_on_c, 0, 66, 60
2, 56691, Note_on_c, 0, 75, 0
2, 56757, Note_on_c, 0, 63, 59
2, 56765, Note_on_c, 0, 66, 0
2, 56774, Note_on_c, 0, 63, 0
2, 56780, Note_on_c, 0, 77, 76
2, 56787, Note_on_c, 0, 78, 0
2, 56792, Note_on_c, 0, 77, 0
2, 56827, Note_on_c, 0, 48, 65
2, 56828, Note_on_c, 0, 77, 83
2, 56846, Control_c, 0, 64, 0
2, 56886, Control_c, 0, 64, 127
2, 56890, Note_on_c, 0, 55, 55
2, 56906, Note_on_c, 0, 48, 0
2, 56931, Note_on_c, 0, 55, 0
2, 56942, Note_on_c, 0, 64, 61
2, 56982, Note_on_c, 0, 64, 0
2, 57000, Note_on_c, 0, 60, 62
2, 57050, Note_on_c, 0, 76, 79
2, 57052, Note_on_c, 0, 77, 0
2, 57052, Note_on_c, 0, 70, 74
2, 57103, Note_on_c, 0, 70, 0
2, 57117, Note_on_c, 0, 64, 62
2, 57124, Note_on_c, 0, 60, 0
2, 57125, Note_on_c, 0, 64, 0
2, 57140, Note_on_c, 0, 76, 0
2, 57178, Note_on_c, 0, 53, 68
2, 57182, Note_on_c, 0, 77, 79
2, 57197, Control_c, 0, 64, 0
2, 57203, Note_on_c, 0, 77, 0
2, 57208, Note_on_c, 0, 78, 68
2, 57215, Control_c, 0, 64, 127
2, 57230, Note_on_c, 0, 78, 0
2, 57233, Note_on_c, 0, 77, 67
2, 57241, Note_on_c, 0, 77, 0
2, 57242, Note_on_c, 0, 60, 57
2, 57251, Note_on_c, 0, 78, 66
2, 57257, Note_on_c, 0, 53, 0
2, 57267, Note_on_c, 0, 78, 0
2, 57274, Note_on_c, 0, 77, 51
2, 57281, Note_on_c, 0, 77, 0
2, 57289, Note_on_c, 0, 76, 66
2, 57302, Note_on_c, 0, 76, 0
2, 57302, Note_on_c, 0, 77, 74
2, 57310, Note_on_c, 0, 60, 0
2, 57315, Note_on_c, 0, 77, 0
2, 57320, Note_on_c, 0, 69, 70
2, 57325, Note_on_c, 0, 79, 92
2, 57366, Note_on_c, 0, 69, 0
2, 57385, Note_on_c, 0, 63, 68
2, 57386, Note_on_c, 0, 81, 83
2, 57390, Note_on_c, 0, 79, 0
2, 57441, Note_on_c, 0, 81, 0
2, 57452, Note_on_c, 0, 82, 79
2, 57454, Note_on_c, 0, 72, 67
2, 57488, Note_on_c, 0, 82, 0
2, 57526, Note_on_c, 0, 69, 66
2, 57526, Note_on_c, 0, 84, 85
2, 57533, Note_on_c, 0, 72, 0
2, 57540, Note_on_c, 0, 69, 0
2, 57541, Note_on_c, 0, 84, 0
2, 57545, Note_on_c, 0, 63, 0
2, 57610, Note_on_c, 0, 46, 68
2, 57613, Note_on_c, 0, 85, 92
2, 57624, Control_c, 0, 64, 0
2, 57683, Note_on_c, 0, 53, 65
2, 57689, Control_c, 0, 64, 127
2, 57708, Note_on_c, 0, 46, 0
2, 57730, Note_on_c, 0, 53, 0
2, 57739, Note_on_c, 0, 61, 70
2, 57783, Note_on_c, 0, 61, 0
2, 57793, Note_on_c, 0, 58, 76
2, 57844, Note_on_c, 0, 51, 71
2, 57847, Note_on_c, 0, 58, 0
2, 57849, Note_on_c, 0, 82, 79
2, 57856, Control_c, 0, 64, 0
2, 57859, Note_on_c, 0, 85, 0
2, 57872, Control_c, 0, 64, 127
2, 57895, Note_on_c, 0, 78, 70
2, 57903, Note_on_c, 0, 82, 0
2, 57904, Note_on_c, 0, 66, 70
2, 57918, Note_on_c, 0, 66, 0
2, 57924, Note_on_c, 0, 51, 0
2, 57926, Note_on_c, 0, 78, 0
2, 57931, Note_on_c, 0, 70, 77
2, 57967, Note_on_c, 0, 41, 72
2, 57973, Note_on_c, 0, 73, 86
2, 57976, Note_on_c, 0, 70, 0
2, 57977, Control_c, 0, 64, 0
2, 58026, Note_on_c, 0, 53, 74
2, 58029, Control_c, 0, 64, 127
2, 58030, Note_on_c, 0, 41, 0
2, 58041, Note_on_c, 0, 53, 0
2, 58079, Note_on_c, 0, 58, 62
2, 58136, Note_on_c, 0, 65, 71
2, 58187, Note_on_c, 0, 63, 61
2, 58196, Note_on_c, 0, 72, 80
2, 58204, Note_on_c, 0, 73, 0
2, 58216, Note_on_c, 0, 65, 0
2, 58229, Note_on_c, 0, 72, 0
2, 58237, Note_on_c, 0, 63, 0
2, 58257, Note_on_c, 0, 57, 69
2, 58262, Note_on_c, 0, 58, 0
2, 58270, Note_on_c, 0, 57, 0
2, 58273, Note_on_c, 0, 70, 76
2, 58287, Note_on_c, 0, 70, 0
2, 58318, Note_on_c, 0, 46, 61
2, 58327, Note_on_c, 0, 89, 100
2, 58337, Control_c, 0, 64, 0
2, 58378, Note_on_c, 0, 53, 74
2, 58379, Control_c, 0, 64, 127
2, 58403, Note_on_c, 0, 46, 0
2, 58419, Note_on_c, 0, 53, 0
2, 58431, Note_on_c, 0, 61, 70
2, 58489, Note_on_c, 0, 58, 77
2, 58490, Note_on_c, 0, 85, 83
2, 58498, Note_on_c, 0, 61, 0
2, 58498, Note_on_c, 0, 89, 0
2, 58546, Control_c, 0, 64, 0
2, 58548, Note_on_c, 0, 58, 0
2, 58548, Note_on_c, 0, 51, 69
2, 58553, Note_on_c, 0, 82, 78
2, 58560, Note_on_c, 0, 85, 0
2, 58561, Control_c, 0, 64, 127
2, 58591, Note_on_c, 0, 78, 71
2, 58595, Note_on_c, 0, 82, 0
2, 58611, Note_on_c, 0, 66, 75
2, 58620, Note_on_c, 0, 78, 0
2, 58623, Note_on_c, 0, 66, 0
2, 58628, Note_on_c, 0, 51, 0
2, 58629, Note_on_c, 0, 70, 72
2, 58655, Note_on_c, 0, 70, 0
2, 58674, Note_on_c, 0, 73, 81
2, 58676, Note_on_c, 0, 41, 76
2, 58688, Control_c, 0, 64, 0
2, 58727, Control_c, 0, 64, 127
2, 58736, Note_on_c, 0, 53, 60
2, 58741, Note_on_c, 0, 41, 0
2, 58752, Note_on_c, 0, 53, 0
2, 58793, Note_on_c, 0, 58, 72
2, 58854, Note_on_c, 0, 65, 71
2, 58906, Note_on_c, 0, 63, 51
2, 58917, Note_on_c, 0, 72, 83
2, 58923, Note_on_c, 0, 73, 0
2, 58935, Note_on_c, 0, 65, 0
2, 58943, Note_on_c, 0, 72, 0
2, 58958, Note_on_c, 0, 63, 0
2, 58980, Note_on_c, 0, 57, 58
2, 58988, Note_on_c, 0, 58, 0
2, 58993, Note_on_c, 0, 57, 0
2, 59006, Note_on_c, 0, 70, 82
2, 59018, Note_on_c, 0, 70, 0
2, 59060, Note_on_c, 0, 42, 68
2, 59073, Control_c, 0, 64, 0
2, 59082, Note_on_c, 0, 97, 110
2, 59114, Control_c, 0, 64, 127
2, 59144, Note_on_c, 0, 49, 71
2, 59147, Note_on_c, 0, 42, 0
2, 59172, Note_on_c, 0, 97, 0
2, 59210, Note_on_c, 0, 54, 60
2, 59246, Note_on_c, 0, 94, 79
2, 59279, Note_on_c, 0, 58, 67
2, 59296, Note_on_c, 0, 49, 0
2, 59300, Note_on_c, 0, 54, 0
2, 59302, Note_on_c, 0, 58, 0
2, 59305, Note_on_c, 0, 90, 72
2, 59309, Note_on_c, 0, 94, 0
2, 59326, Note_on_c, 0, 90, 0
2, 59353, Note_on_c, 0, 64, 68
2, 59363, Note_on_c, 0, 85, 74
2, 59415, Note_on_c, 0, 82, 72
2, 59420, Note_on_c, 0, 85, 0
2, 59420, Note_on_c, 0, 64, 0
2, 59435, Note_on_c, 0, 54, 58
2, 59439, Note_on_c, 0, 82, 0
2, 59469, Note_on_c, 0, 70, 70
2, 59489, Note_on_c, 0, 70, 0
2, 59524, Note_on_c, 0, 51, 69
2, 59529, Note_on_c, 0, 71, 82
2, 59532, Note_on_c, 0, 54, 0
2, 59534, Control_c, 0, 64, 0
2, 59612, Note_on_c, 0, 54, 68
2, 59616, Control_c, 0, 64, 127
2, 59689, Note_on_c, 0, 59, 63
2, 59757, Note_on_c, 0, 63, 65
2, 59760, Note_on_c, 0, 54, 0
2, 59760, Note_on_c, 0, 51, 0
2, 59768, Note_on_c, 0, 59, 0
2, 59821, Note_on_c, 0, 63, 0
2, 59827, Note_on_c, 0, 53, 62
2, 59832, Note_on_c, 0, 69, 74
2, 59840, Note_on_c, 0, 71, 0
2, 59842, Control_c, 0, 64, 0
2, 59894, Control_c, 0, 64, 127
2, 59903, Note_on_c, 0, 63, 59
2, 59922, Note_on_c, 0, 53, 0
2, 59928, Note_on_c, 0, 63, 0
2, 59989, Note_on_c, 0, 70, 78
2, 59990, Note_on_c, 0, 46, 49
2, 59999, Note_on_c, 0, 69, 0
2, 60002, Control_c, 0, 64, 0
2, 60070, Note_on_c, 0, 53, 62
2, 60072, Control_c, 0, 64, 127
2, 60132, Note_on_c, 0, 53, 0
2, 60132, Note_on_c, 0, 46, 0
2, 60140, Note_on_c, 0, 61, 57
2, 60190, Note_on_c, 0, 61, 0
2, 60208, Note_on_c, 0, 58, 59
2, 60275, Note_on_c, 0, 65, 57
2, 60290, Note_on_c, 0, 70, 0
2, 60291, Note_on_c, 0, 65, 0
2, 60329, Note_on_c, 0, 58, 0
2, 60351, Note_on_c, 0, 53, 46
2, 60362, Note_on_c, 0, 53, 0
2, 60424, Note_on_c, 0, 46, 69
2, 60427, Note_on_c, 0, 71, 76
2, 60439, Control_c, 0, 64, 0
2, 60487, Control_c, 0, 64, 127
2, 60500, Note_on_c, 0, 54, 51
2, 60510, Note_on_c, 0, 46, 0
2, 60558, Note_on_c, 0, 54, 0
2, 60568, Note_on_c, 0, 63, 41
2, 60630, Note_on_c, 0, 63, 0
2, 60645, Note_on_c, 0, 57, 49
2, 60710, Note_on_c, 0, 71, 0
2, 60710, Note_on_c, 0, 66, 56
2, 60710, Note_on_c, 0, 69, 65
2, 60765, Note_on_c, 0, 66, 0
2, 60788, Note_on_c, 0, 57, 0
2, 60791, Note_on_c, 0, 54, 52
2, 60800, Note_on_c, 0, 54, 0
2, 60867, Note_on_c, 0, 46, 50
2, 60872, Note_on_c, 0, 70, 59
2, 60880, Control_c, 0, 64, 0
2, 60881, Note_on_c, 0, 69, 0
2, 60944, Control_c, 0, 64, 127
2, 60946, Note_on_c, 0, 53, 49
2, 60984, Note_on_c, 0, 46, 0
2, 61005, Note_on_c, 0, 53, 0
2, 61018, Note_on_c, 0, 61, 42
2, 61075, Note_on_c, 0, 61, 0
2, 61101, Note_on_c, 0, 58, 51
2, 61178, Note_on_c, 0, 65, 53
2, 61198, Note_on_c, 0, 70, 0
2, 61221, Note_on_c, 0, 65, 0
2, 61250, Note_on_c, 0, 58, 0
2, 61263, Note_on_c, 0, 53, 56
2, 61278, Note_on_c, 0, 53, 0
2, 61356, Note_on_c, 0, 46, 68
2, 61362, Note_on_c, 0, 71, 67
2, 61370, Control_c, 0, 64, 0
2, 61424, Note_on_c, 0, 75, 71
2, 61427, Control_c, 0, 64, 127
2, 61456, Note_on_c, 0, 54, 56
2, 61464, Note_on_c, 0, 71, 0
2, 61467, Note_on_c, 0, 46, 0
2, 61468, Note_on_c, 0, 78, 69
2, 61488, Note_on_c, 0, 75, 0
2, 61514, Note_on_c, 0, 83, 61
2, 61526, Note_on_c, 0, 78, 0
2, 61548, Note_on_c, 0, 63, 53
2, 61552, Note_on_c, 0, 54, 0
2, 61569, Note_on_c, 0, 83, 0
2, 61572, Note_on_c, 0, 87, 83
2, 61641, Note_on_c, 0, 57, 65
2, 61650, Note_on_c, 0, 63, 0
2, 61737, Note_on_c, 0, 66, 66
2, 61767, Note_on_c, 0, 87, 0
2, 61830, Note_on_c, 0, 54, 45
2, 61832, Note_on_c, 0, 66, 0
2, 61839, Note_on_c, 0, 57, 0
2, 61850, Note_on_c, 0, 69, 80
2, 61859, Note_on_c, 0, 54, 0
2, 61961, Note_on_c, 0, 46, 52
2, 61971, Note_on_c, 0, 70, 74
2, 61988, Note_on_c, 0, 69, 0
2, 61996, Control_c, 0, 64, 0
2, 62083, Note_on_c, 0, 53, 58
2, 62085, Control_c, 0, 64, 127
2, 62139, Note_on_c, 0, 46, 0
2, 62164, Note_on_c, 0, 53, 0
2, 62171, Note_on_c, 0, 61, 65
2, 62245, Note_on_c, 0, 61, 0
2, 62260, Note_on_c, 0, 58, 70
2, 62360, Note_on_c, 0, 65, 64
2, 62391, Note_on_c, 0, 70, 0
2, 62413, Note_on_c, 0, 65, 0
2, 62458, Note_on_c, 0, 58, 0
2, 62475, Note_on_c, 0, 53, 68
2, 62494, Note_on_c, 0, 53, 0
2, 62606, Note_on_c, 0, 90, 100
2, 62606, Note_on_c, 0, 87, 95
2, 62607, Note_on_c, 0, 46, 69
2, 62625, Control_c, 0, 64, 0
2, 62720, Control_c, 0, 64, 127
2, 62721, Note_on_c, 0, 54, 76
2, 62822, Note_on_c, 0, 57, 79
2, 62840, Note_on_c, 0, 46, 0
2, 62842, Note_on_c, 0, 54, 0
2, 62861, Note_on_c, 0, 57, 0
2, 62936, Note_on_c, 0, 59, 81
2, 62995, Note_on_c, 0, 59, 0
2, 63062, Note_on_c, 0, 63, 89
2, 63122, Note_on_c, 0, 63, 0
2, 63204, Note_on_c, 0, 66, 86
2, 63264, Note_on_c, 0, 66, 0
2, 63376, Note_on_c, 0, 69, 86
2, 63466, Note_on_c, 0, 87, 0
2, 63534, Note_on_c, 0, 87, 72
2, 63537, Note_on_c, 0, 83, 63
2, 63548, Note_on_c, 0, 90, 0
2, 63586, Note_on_c, 0, 87, 0
2, 63604, Note_on_c, 0, 83, 0
2, 63645, Note_on_c, 0, 83, 67
2, 63646, Note_on_c, 0, 81, 66
2, 63674, Note_on_c, 0, 81, 0
2, 63734, Note_on_c, 0, 81, 72
2, 63735, Note_on_c, 0, 78, 69
2, 63742, Note_on_c, 0, 83, 0
2, 63757, Note_on_c, 0, 81, 0
2, 63760, Note_on_c, 0, 78, 0
2, 63798, Note_on_c, 0, 69, 0
2, 63815, Note_on_c, 0, 78, 77
2, 63818, Note_on_c, 0, 75, 70
2, 63844, Note_on_c, 0, 75, 0
2, 63844, Note_on_c, 0, 78, 0
2, 63899, Note_on_c, 0, 75, 74
2, 63904, Note_on_c, 0, 71, 71
2, 63939, Note_on_c, 0, 75, 0
2, 63949, Note_on_c, 0, 71, 0
2, 63993, Note_on_c, 0, 69, 71
2, 63994, Note_on_c, 0, 71, 62
2, 64024, Note_on_c, 0, 69, 0
2, 64096, Note_on_c, 0, 66, 60
2, 64098, Note_on_c, 0, 71, 0
2, 64099, Note_on_c, 0, 69, 64
2, 64125, Note_on_c, 0, 69, 0
2, 64131, Note_on_c, 0, 66, 0
2, 64211, Note_on_c, 0, 66, 61
2, 64214, Note_on_c, 0, 63, 48
2, 64301, Note_on_c, 0, 66, 0
2, 64302, Note_on_c, 0, 63, 0
2, 64450, Note_on_c, 0, 63, 47
2, 64456, Note_on_c, 0, 59, 46
2, 64539, Note_on_c, 0, 63, 0
2, 64545, Note_on_c, 0, 59, 0
2, 64724, Note_on_c, 0, 59, 36
2, 64725, Note_on_c, 0, 57, 54
2, 64814, Note_on_c, 0, 57, 0
2, 64829, Note_on_c, 0, 59, 0
2, 65048, Note_on_c, 0, 63, 49
2, 65048, Note_on_c, 0, 57, 56
2, 65048, Note_on_c, 0, 54, 31
2, 65213, Note_on_c, 0, 57, 0
2, 65218, Note_on_c, 0, 63, 0
2, 65220, Note_on_c, 0, 54, 0
2, 65505, Note_on_c, 0, 53, 71
2, 65510, Note_on_c, 0, 58, 43
2, 65515, Note_on_c, 0, 34, 42
2, 65515, Note_on_c, 0, 62, 13
2, 65518, Note_on_c, 0, 46, 48
2, 65535, Control_c, 0, 64, 0
2, 65942, Control_c, 0, 64, 127
2, 66198, Note_on_c, 0, 34, 0
2, 66217, Note_on_c, 0, 46, 0
2, 66235, Note_on_c, 0, 62, 0
2, 66240, Note_on_c, 0, 58, 0
2, 66249, Note_on_c, 0, 53, 0
2, 66522, Note_on_c, 0, 53, 66
2, 66522, Note_on_c, 0, 46, 44
2, 66523, Note_on_c, 0, 58, 63
2, 66523, Note_on_c, 0, 34, 48
2, 66528, Note_on_c, 0, 62, 40
2, 66551, Control_c, 0, 64, 0
2, 66561, Control_c, 0, 64, 127
2, 66609, Note_on_c, 0, 62, 0
2, 66612, Note_on_c, 0, 46, 0
2, 66614, Note_on_c, 0, 34, 0
2, 66623, Note_on_c, 0, 53, 0
2, 66625, Note_on_c, 0, 58, 0
2, 66772, Note_on_c, 0, 53, 72
2, 66774, Note_on_c, 0, 34, 45
2, 66774, Note_on_c, 0, 58, 47
2, 66782, Note_on_c, 0, 62, 36
2, 66783, Note_on_c, 0, 46, 36
2, 66862, Note_on_c, 0, 46, 0
2, 66864, Note_on_c, 0, 34, 0
2, 66864, Note_on_c, 0, 62, 0
2, 66877, Note_on_c, 0, 53, 0
2, 66885, Note_on_c, 0, 58, 0
2, 67103, Note_on_c, 0, 58, 69
2, 67105, Note_on_c, 0, 54, 58
2, 67106, Note_on_c, 0, 34, 58
2, 67106, Note_on_c, 0, 62, 58
2, 67107, Note_on_c, 0, 46, 28
2, 67132, Control_c, 0, 64, 0
2, 67321, Note_on_c, 0, 53, 47
2, 67329, Note_on_c, 0, 54, 0
2, 67388, Control_c, 0, 64, 127
2, 67430, Note_on_c, 0, 34, 0
2, 67432, Note_on_c, 0, 46, 0
2, 67511, Note_on_c, 0, 34, 43
2, 67665, Note_on_c, 0, 46, 51
2, 67760, Note_on_c, 0, 53, 0
2, 67815, Note_on_c, 0, 50, 32
2, 67962, Note_on_c, 0, 62, 0
2, 67974, Note_on_c, 0, 53, 52
2, 67976, Note_on_c, 0, 58, 0
2, 68162, Note_on_c, 0, 58, 55
2, 68663, Note_on_c, 0, 62, 37
2, 69015, Note_on_c, 0, 46, 0
2, 69018, Note_on_c, 0, 34, 0
2, 69020, Note_on_c, 0, 50, 0
2, 69023, Note_on_c, 0, 58, 0
2, 69025, Note_on_c, 0, 62, 0
2, 69026, Note_on_c, 0, 53, 0
2, 69458, Control_c, 0, 64, 0
2, 69458, End_track
3, 0, Start_track
3, 0, MIDI_port, 0
3, 0, Title_t, "Yamaha Clavinova"
3, 0, End_track
4, 0, Start_track
4, 0, MIDI_port, 0
4, 0, Title_t, "Nick Carter"
4, 0, End_track
0, 0, End_of_file
