0, 0, Header, 1, 6, 120
1, 0, Start_track
1, 0, MIDI_port, 0
1, 0, System_exclusive, 10, 65, 16, 66, 18, 64, 0, 127, 0, 65, 247
1, 0, MIDI_port, 0
1, 0, System_exclusive, 10, 65, 16, 66, 18, 64, 1, 48, 3, 12, 247
1, 0, MIDI_port, 0
1, 0, Time_signature, 4, 2, 24, 8
1, 0, Key_signature, -3, "major"
1, 0, Tempo, 300000
1, 0, Marker_t, "untitled"
1, 475, Tempo, 526316
1, 536, Tempo, 427046
1, 600, Tempo, 435193
1, 716, Tempo, 418498
1, 1303, Tempo, 434783
1, 1403, Tempo, 670391
1, 1443, Tempo, 515021
1, 1500, Tempo, 428571
1, 1563, Tempo, 447761
1, 1566, Tempo, 446097
1, 1700, Tempo, 427046
1, 1800, Tempo, 419580
1, 2283, Tempo, 434783
1, 2370, Tempo, 677966
1, 2400, Tempo, 530973
1, 2403, Tempo, 533333
1, 2476, Tempo, 409556
1, 3910, Tempo, 419580
1, 4026, Tempo, 431655
1, 4143, Tempo, 468750
1, 4263, Tempo, 515021
1, 4320, Tempo, 439560
1, 4440, Tempo, 422535
1, 4560, Tempo, 408163
1, 5040, Tempo, 427046
1, 5103, Tempo, 415225
1, 5226, Tempo, 436364
1, 5280, Tempo, 444444
1, 5346, Tempo, 433213
1, 5400, Tempo, 425532
1, 5946, Tempo, 439560
1, 6000, Tempo, 459770
1, 6080, Tempo, 451128
1, 6123, Tempo, 439560
1, 6183, Tempo, 449438
1, 6243, Tempo, 465116
1, 6306, Tempo, 456274
1, 6363, Tempo, 442804
1, 6420, Tempo, 430108
1, 6553, Tempo, 421053
1, 6603, Tempo, 437956
1, 6716, Tempo, 410959
1, 7200, Tempo, 427046
1, 7322, Tempo, 418118
1, 7440, Tempo, 439560
1, 7562, Tempo, 410959
1, 7680, Tempo, 424028
1, 7805, Tempo, 410959
1, 7917, Tempo, 444444
1, 7990, Tempo, 422535
1, 8160, Tempo, 478088
1, 8216, Tempo, 451128
1, 8276, Tempo, 422535
1, 8446, Tempo, 410959
1, 9910, Tempo, 425532
1, 9913, Tempo, 427046
1, 9960, Tempo, 439560
1, 10013, Tempo, 421053
1, 10655, Tempo, 446097
1, 10707, Tempo, 487805
1, 10763, Tempo, 433213
1, 10873, Tempo, 442804
1, 10920, Tempo, 424028
1, 12000, Tempo, 437956
1, 12600, Tempo, 419580
1, 12726, Tempo, 430108
1, 12786, Tempo, 442804
1, 12963, Tempo, 452830
1, 13080, Tempo, 434783
1, 13200, Tempo, 418118
1, 13320, Tempo, 433213
1, 13390, Tempo, 446097
1, 13443, Tempo, 568720
1, 13486, Tempo, 422535
1, 13923, Tempo, 545455
1, 13980, Tempo, 416667
1, 14280, Tempo, 433338
1, 14350, Tempo, 449573
1, 14400, Tempo, 635189
1, 14446, Tempo, 419698
1, 14730, Tempo, 433714
1, 14820, Tempo, 446628
1, 14880, Tempo, 580608
1, 14940, Tempo, 424508
1, 15203, Tempo, 443328
1, 15303, Tempo, 458575
1, 15363, Tempo, 675371
1, 15400, Tempo, 424508
1, 15670, Tempo, 438468
1, 15760, Tempo, 453378
1, 15843, Tempo, 675371
1, 15890, Tempo, 446628
1, 16013, Tempo, 427533
1, 16170, Tempo, 438468
1, 16260, Tempo, 453378
1, 16320, Tempo, 660502
1, 16353, Tempo, 414250
1, 16416, Tempo, 431655
1, 16483, Tempo, 424508
1, 16630, Tempo, 436364
1, 16723, Tempo, 452830
1, 16803, Tempo, 633714
1, 16840, Tempo, 414708
1, 16890, Tempo, 438982
1, 16893, Tempo, 440593
1, 17006, Tempo, 429553
1, 17080, Tempo, 416667
1, 17526, Tempo, 433213
1, 17643, Tempo, 446097
1, 17763, Tempo, 524017
1, 17826, Tempo, 454545
1, 17880, Tempo, 442804
1, 17883, Tempo, 441176
1, 18000, Tempo, 428571
1, 18123, Tempo, 434783
1, 18240, Tempo, 446097
1, 18486, Tempo, 436364
1, 18600, Tempo, 428571
1, 18720, Tempo, 463320
1, 18723, Tempo, 465116
1, 18786, Tempo, 447761
1, 18843, Tempo, 433213
1, 18956, Tempo, 422535
1, 19203, Tempo, 433213
1, 19440, Tempo, 442804
1, 19560, Tempo, 454545
1, 19563, Tempo, 456274
1, 19683, Tempo, 535714
1, 19743, Tempo, 428571
1, 20473, Tempo, 439560
1, 20607, Tempo, 606061
1, 20643, Tempo, 545455
1, 20700, Tempo, 425532
1, 21433, Tempo, 434783
1, 21543, Tempo, 454545
1, 21606, Tempo, 547945
1, 21666, Tempo, 410959
1, 23110, Tempo, 422535
1, 23223, Tempo, 434783
1, 23343, Tempo, 446097
1, 23463, Tempo, 476190
1, 23520, Tempo, 466926
1, 23580, Tempo, 444444
1, 23640, Tempo, 430108
1, 23706, Tempo, 418118
1, 24303, Tempo, 449438
1, 24350, Tempo, 431655
1, 24420, Tempo, 442804
1, 24450, Tempo, 478088
1, 24490, Tempo, 456274
1, 24553, Tempo, 444444
1, 24616, Tempo, 436364
1, 25140, Tempo, 456274
1, 25200, Tempo, 456274
1, 25240, Tempo, 452830
1, 25286, Tempo, 465116
1, 25323, Tempo, 444444
1, 25366, Tempo, 427046
1, 25406, Tempo, 433213
1, 25443, Tempo, 483871
1, 25526, Tempo, 474308
1, 25603, Tempo, 458015
1, 25666, Tempo, 441176
1, 25740, Tempo, 424028
1, 26520, Tempo, 437956
1, 26643, Tempo, 451128
1, 26646, Tempo, 449438
1, 26680, Tempo, 480000
1, 26720, Tempo, 459770
1, 26793, Tempo, 446097
1, 26843, Tempo, 468750
1, 26883, Tempo, 506329
1, 26926, Tempo, 466926
1, 26973, Tempo, 441176
1, 27050, Tempo, 422535
1, 27126, Tempo, 433213
1, 27163, Tempo, 502092
1, 27203, Tempo, 517241
1, 27246, Tempo, 574163
1, 27300, Tempo, 538117
1, 27333, Tempo, 606061
1, 27373, Tempo, 515021
1, 27406, Tempo, 436364
1, 27483, Tempo, 428571
1, 27600, Tempo, 422535
1, 28990, Tempo, 436364
1, 29056, Tempo, 446097
1, 29106, Tempo, 436364
1, 29150, Tempo, 451128
1, 29196, Tempo, 461538
1, 29246, Tempo, 474308
1, 29280, Tempo, 459770
1, 29346, Tempo, 449438
1, 29350, Tempo, 447761
1, 29403, Tempo, 437956
1, 29466, Tempo, 422535
1, 29950, Tempo, 437956
1, 30006, Tempo, 456274
1, 30046, Tempo, 446097
1, 30080, Tempo, 480000
1, 30146, Tempo, 500000
1, 30203, Tempo, 628272
1, 30240, Tempo, 480000
1, 30323, Tempo, 461609
1, 30420, Tempo, 439625
1, 30496, Tempo, 425592
1, 30960, Tempo, 438020
1, 31083, Tempo, 451196
1, 31200, Tempo, 495950
1, 31260, Tempo, 482005
1, 31323, Tempo, 468823
1, 31386, Tempo, 452899
1, 31436, Tempo, 442870
1, 31500, Tempo, 452899
1, 31560, Tempo, 461609
1, 31563, Tempo, 463392
1, 31630, Tempo, 474383
1, 31680, Tempo, 451196
1, 31740, Tempo, 441241
1, 31800, Tempo, 458085
1, 31923, Tempo, 439625
1, 32000, Tempo, 447828
1, 32083, Tempo, 459841
1, 32163, Tempo, 480077
1, 32253, Tempo, 463392
1, 32333, Tempo, 454614
1, 32400, Tempo, 438020
1, 32460, Tempo, 451196
1, 32523, Tempo, 466999
1, 32593, Tempo, 515110
1, 32640, Tempo, 441241
1, 32706, Tempo, 451196
1, 32813, Tempo, 459841
1, 32816, Tempo, 461609
1, 32913, Tempo, 442870
1, 33026, Tempo, 451196
1, 33076, Tempo, 436427
1, 33120, Tempo, 468750
1, 33186, Tempo, 454545
1, 33276, Tempo, 441176
1, 33356, Tempo, 422535
1, 33473, Tempo, 430108
1, 33550, Tempo, 441176
1, 33646, Tempo, 452830
1, 33766, Tempo, 439560
1, 33876, Tempo, 427046
1, 33956, Tempo, 422535
1, 34033, Tempo, 442804
1, 34203, Tempo, 459770
1, 34326, Tempo, 465116
1, 34446, Tempo, 472441
1, 34563, Tempo, 480000
1, 34980, Tempo, 472441
1, 35014, Tempo, 468750
1, 35046, Tempo, 465116
1, 35078, Tempo, 461538
1, 35110, Tempo, 458015
1, 35142, Tempo, 454545
1, 35174, Tempo, 451128
1, 35206, Tempo, 447761
1, 35238, Tempo, 444444
1, 35270, Tempo, 441176
1, 35304, Tempo, 437956
1, 35336, Tempo, 434783
1, 35368, Tempo, 431655
1, 35400, Tempo, 428571
1, 35432, Tempo, 425532
1, 35464, Tempo, 422535
1, 35496, Tempo, 419580
1, 35528, Tempo, 416667
1, 35560, Tempo, 413793
1, 35566, Tempo, 416667
1, 36000, Tempo, 425532
1, 36123, Tempo, 416667
1, 36203, Tempo, 425532
1, 36270, Tempo, 437956
1, 36360, Tempo, 446097
1, 36493, Tempo, 454545
1, 36640, Tempo, 466926
1, 36773, Tempo, 478088
1, 36886, Tempo, 515021
1, 36963, Tempo, 574163
1, 37000, Tempo, 459770
1, 37023, Tempo, 480000
1, 37080, Tempo, 470588
1, 37160, Tempo, 459770
1, 37250, Tempo, 470588
1, 37253, Tempo, 472441
1, 37360, Tempo, 485830
1, 37436, Tempo, 474308
1, 37563, Tempo, 459770
1, 37680, Tempo, 451128
1, 37926, Tempo, 560748
1, 37973, Tempo, 451128
1, 38256, Tempo, 459770
1, 38340, Tempo, 470588
1, 38406, Tempo, 480000
1, 38573, Tempo, 506329
1, 38710, Tempo, 524017
1, 38836, Tempo, 550459
1, 38883, Tempo, 603015
1, 38946, Tempo, 413793
1, 38946, End_track
2, 0, Start_track
2, 0, MIDI_port, 0
2, 0, Title_t, "Etude No. 12"
2, 119, Control_c, 0, 93, 20
2, 119, Control_c, 0, 0, 0
2, 119, Control_c, 0, 91, 64
2, 122, Control_c, 0, 0, 0
2, 122, Program_c, 0, 0
2, 123, Control_c, 0, 7, 127
2, 480, Note_on_c, 0, 77, 86
2, 480, Note_on_c, 0, 83, 100
2, 480, Note_on_c, 0, 79, 95
2, 480, Note_on_c, 0, 74, 90
2, 480, Note_on_c, 0, 71, 100
2, 480, Control_c, 0, 64, 127
2, 541, Note_on_c, 0, 68, 65
2, 568, Note_on_c, 0, 68, 0
2, 570, Note_on_c, 0, 67, 66
2, 598, Note_on_c, 0, 65, 79
2, 602, Note_on_c, 0, 67, 0
2, 628, Note_on_c, 0, 62, 72
2, 629, Note_on_c, 0, 65, 0
2, 658, Note_on_c, 0, 63, 69
2, 662, Note_on_c, 0, 62, 0
2, 686, Note_on_c, 0, 63, 0
2, 689, Note_on_c, 0, 62, 69
2, 709, Note_on_c, 0, 74, 0
2, 710, Note_on_c, 0, 79, 0
2, 712, Note_on_c, 0, 77, 0
2, 714, Note_on_c, 0, 83, 0
2, 717, Note_on_c, 0, 71, 0
2, 717, Note_on_c, 0, 59, 76
2, 719, Note_on_c, 0, 62, 0
2, 748, Note_on_c, 0, 55, 68
2, 752, Note_on_c, 0, 59, 0
2, 780, Note_on_c, 0, 56, 70
2, 784, Note_on_c, 0, 55, 0
2, 809, Note_on_c, 0, 56, 0
2, 809, Note_on_c, 0, 55, 64
2, 837, Note_on_c, 0, 53, 77
2, 845, Note_on_c, 0, 55, 0
2, 866, Note_on_c, 0, 50, 71
2, 867, Note_on_c, 0, 53, 0
2, 897, Note_on_c, 0, 51, 66
2, 899, Note_on_c, 0, 50, 0
2, 926, Note_on_c, 0, 51, 0
2, 929, Note_on_c, 0, 50, 66
2, 956, Note_on_c, 0, 47, 72
2, 960, Note_on_c, 0, 50, 0
2, 963, Control_c, 0, 64, 0
2, 984, Note_on_c, 0, 47, 0
2, 985, Note_on_c, 0, 43, 62
2, 1017, Note_on_c, 0, 44, 62
2, 1020, Note_on_c, 0, 43, 0
2, 1045, Note_on_c, 0, 44, 0
2, 1048, Note_on_c, 0, 43, 63
2, 1075, Note_on_c, 0, 41, 75
2, 1083, Note_on_c, 0, 43, 0
2, 1106, Note_on_c, 0, 38, 68
2, 1107, Note_on_c, 0, 41, 0
2, 1138, Note_on_c, 0, 39, 68
2, 1139, Note_on_c, 0, 38, 0
2, 1166, Note_on_c, 0, 39, 0
2, 1169, Note_on_c, 0, 38, 69
2, 1200, Note_on_c, 0, 36, 75
2, 1210, Note_on_c, 0, 38, 0
2, 1232, Note_on_c, 0, 36, 0
2, 1233, Note_on_c, 0, 31, 68
2, 1264, Note_on_c, 0, 36, 71
2, 1270, Note_on_c, 0, 31, 0
2, 1293, Note_on_c, 0, 31, 72
2, 1295, Note_on_c, 0, 36, 0
2, 1317, Control_c, 0, 64, 127
2, 1320, Note_on_c, 0, 75, 77
2, 1321, Note_on_c, 0, 80, 96
2, 1322, Note_on_c, 0, 77, 80
2, 1323, Note_on_c, 0, 68, 93
2, 1325, Note_on_c, 0, 36, 71
2, 1329, Note_on_c, 0, 31, 0
2, 1353, Note_on_c, 0, 31, 73
2, 1354, Note_on_c, 0, 36, 0
2, 1363, Note_on_c, 0, 75, 0
2, 1364, Note_on_c, 0, 77, 0
2, 1364, Note_on_c, 0, 80, 0
2, 1366, Note_on_c, 0, 68, 0
2, 1386, Note_on_c, 0, 36, 73
2, 1390, Note_on_c, 0, 31, 0
2, 1402, Note_on_c, 0, 67, 87
2, 1403, Note_on_c, 0, 79, 94
2, 1412, Note_on_c, 0, 31, 74
2, 1413, Note_on_c, 0, 36, 0
2, 1414, Note_on_c, 0, 67, 0
2, 1418, Note_on_c, 0, 79, 0
2, 1425, Control_c, 0, 64, 0
2, 1447, Note_on_c, 0, 79, 85
2, 1447, Note_on_c, 0, 86, 101
2, 1447, Note_on_c, 0, 77, 79
2, 1447, Note_on_c, 0, 74, 96
2, 1449, Control_c, 0, 64, 127
2, 1451, Note_on_c, 0, 35, 91
2, 1456, Note_on_c, 0, 31, 0
2, 1481, Note_on_c, 0, 35, 0
2, 1511, Note_on_c, 0, 68, 61
2, 1537, Note_on_c, 0, 68, 0
2, 1539, Note_on_c, 0, 67, 61
2, 1566, Note_on_c, 0, 65, 69
2, 1572, Note_on_c, 0, 67, 0
2, 1597, Note_on_c, 0, 62, 65
2, 1599, Note_on_c, 0, 65, 0
2, 1626, Note_on_c, 0, 63, 66
2, 1629, Note_on_c, 0, 62, 0
2, 1654, Note_on_c, 0, 79, 0
2, 1654, Note_on_c, 0, 63, 0
2, 1655, Note_on_c, 0, 62, 65
2, 1656, Note_on_c, 0, 77, 0
2, 1662, Note_on_c, 0, 74, 0
2, 1662, Note_on_c, 0, 86, 0
2, 1686, Note_on_c, 0, 59, 76
2, 1690, Note_on_c, 0, 62, 0
2, 1716, Note_on_c, 0, 55, 69
2, 1719, Note_on_c, 0, 59, 0
2, 1745, Note_on_c, 0, 56, 67
2, 1747, Note_on_c, 0, 55, 0
2, 1772, Note_on_c, 0, 56, 0
2, 1775, Note_on_c, 0, 55, 68
2, 1802, Note_on_c, 0, 53, 72
2, 1811, Note_on_c, 0, 55, 0
2, 1835, Note_on_c, 0, 53, 0
2, 1835, Note_on_c, 0, 50, 62
2, 1865, Note_on_c, 0, 51, 64
2, 1870, Note_on_c, 0, 50, 0
2, 1893, Note_on_c, 0, 51, 0
2, 1895, Note_on_c, 0, 50, 63
2, 1921, Control_c, 0, 64, 0
2, 1923, Note_on_c, 0, 47, 73
2, 1929, Note_on_c, 0, 50, 0
2, 1950, Note_on_c, 0, 43, 66
2, 1952, Note_on_c, 0, 47, 0
2, 1979, Note_on_c, 0, 44, 63
2, 1983, Note_on_c, 0, 43, 0
2, 2007, Note_on_c, 0, 44, 0
2, 2010, Note_on_c, 0, 43, 63
2, 2038, Note_on_c, 0, 41, 75
2, 2047, Note_on_c, 0, 43, 0
2, 2066, Note_on_c, 0, 38, 65
2, 2070, Note_on_c, 0, 41, 0
2, 2099, Note_on_c, 0, 39, 65
2, 2104, Note_on_c, 0, 38, 0
2, 2128, Note_on_c, 0, 39, 0
2, 2131, Note_on_c, 0, 38, 63
2, 2159, Note_on_c, 0, 36, 73
2, 2168, Note_on_c, 0, 38, 0
2, 2188, Note_on_c, 0, 31, 62
2, 2192, Note_on_c, 0, 36, 0
2, 2221, Note_on_c, 0, 36, 65
2, 2225, Note_on_c, 0, 31, 0
2, 2250, Note_on_c, 0, 31, 67
2, 2252, Note_on_c, 0, 36, 0
2, 2277, Control_c, 0, 64, 127
2, 2281, Note_on_c, 0, 36, 68
2, 2283, Note_on_c, 0, 75, 78
2, 2284, Note_on_c, 0, 80, 98
2, 2285, Note_on_c, 0, 31, 0
2, 2285, Note_on_c, 0, 77, 79
2, 2286, Note_on_c, 0, 68, 94
2, 2311, Note_on_c, 0, 31, 72
2, 2313, Note_on_c, 0, 36, 0
2, 2330, Note_on_c, 0, 75, 0
2, 2332, Note_on_c, 0, 68, 0
2, 2333, Note_on_c, 0, 80, 0
2, 2334, Note_on_c, 0, 77, 0
2, 2344, Note_on_c, 0, 36, 73
2, 2347, Note_on_c, 0, 31, 0
2, 2364, Note_on_c, 0, 67, 88
2, 2365, Note_on_c, 0, 79, 94
2, 2371, Note_on_c, 0, 31, 74
2, 2373, Note_on_c, 0, 36, 0
2, 2376, Note_on_c, 0, 67, 0
2, 2379, Note_on_c, 0, 79, 0
2, 2384, Control_c, 0, 64, 0
2, 2405, Note_on_c, 0, 89, 105
2, 2406, Note_on_c, 0, 77, 98
2, 2406, Note_on_c, 0, 79, 80
2, 2406, Note_on_c, 0, 35, 81
2, 2407, Note_on_c, 0, 86, 88
2, 2411, Control_c, 0, 64, 127
2, 2416, Note_on_c, 0, 31, 0
2, 2441, Note_on_c, 0, 35, 0
2, 2451, Note_on_c, 0, 79, 0
2, 2452, Note_on_c, 0, 77, 0
2, 2452, Note_on_c, 0, 86, 0
2, 2453, Note_on_c, 0, 89, 0
2, 2467, Note_on_c, 0, 80, 90
2, 2471, Note_on_c, 0, 92, 87
2, 2492, Note_on_c, 0, 80, 0
2, 2495, Note_on_c, 0, 79, 83
2, 2496, Note_on_c, 0, 91, 73
2, 2504, Note_on_c, 0, 92, 0
2, 2522, Note_on_c, 0, 77, 82
2, 2526, Note_on_c, 0, 79, 0
2, 2528, Note_on_c, 0, 89, 89
2, 2531, Note_on_c, 0, 91, 0
2, 2553, Note_on_c, 0, 74, 83
2, 2556, Note_on_c, 0, 89, 0
2, 2556, Note_on_c, 0, 77, 0
2, 2558, Note_on_c, 0, 86, 78
2, 2585, Note_on_c, 0, 75, 84
2, 2588, Note_on_c, 0, 74, 0
2, 2589, Note_on_c, 0, 87, 72
2, 2595, Note_on_c, 0, 86, 0
2, 2614, Note_on_c, 0, 75, 0
2, 2614, Note_on_c, 0, 86, 72
2, 2616, Note_on_c, 0, 74, 75
2, 2621, Note_on_c, 0, 87, 0
2, 2642, Note_on_c, 0, 71, 86
2, 2646, Note_on_c, 0, 83, 87
2, 2647, Note_on_c, 0, 74, 0
2, 2648, Note_on_c, 0, 86, 0
2, 2670, Note_on_c, 0, 67, 80
2, 2672, Note_on_c, 0, 83, 0
2, 2673, Note_on_c, 0, 71, 0
2, 2675, Note_on_c, 0, 79, 72
2, 2701, Note_on_c, 0, 68, 76
2, 2704, Note_on_c, 0, 67, 0
2, 2705, Note_on_c, 0, 80, 69
2, 2711, Note_on_c, 0, 79, 0
2, 2728, Note_on_c, 0, 68, 0
2, 2731, Note_on_c, 0, 67, 76
2, 2734, Note_on_c, 0, 79, 70
2, 2740, Note_on_c, 0, 80, 0
2, 2758, Note_on_c, 0, 65, 84
2, 2764, Note_on_c, 0, 67, 0
2, 2767, Note_on_c, 0, 77, 84
2, 2768, Note_on_c, 0, 79, 0
2, 2788, Note_on_c, 0, 62, 76
2, 2791, Note_on_c, 0, 65, 0
2, 2792, Note_on_c, 0, 77, 0
2, 2794, Note_on_c, 0, 74, 76
2, 2819, Note_on_c, 0, 63, 75
2, 2823, Note_on_c, 0, 62, 0
2, 2823, Note_on_c, 0, 75, 76
2, 2829, Note_on_c, 0, 74, 0
2, 2845, Note_on_c, 0, 63, 0
2, 2849, Note_on_c, 0, 74, 66
2, 2849, Note_on_c, 0, 62, 75
2, 2856, Note_on_c, 0, 75, 0
2, 2878, Note_on_c, 0, 59, 86
2, 2883, Note_on_c, 0, 62, 0
2, 2884, Note_on_c, 0, 71, 84
2, 2885, Note_on_c, 0, 74, 0
2, 2907, Note_on_c, 0, 55, 73
2, 2908, Note_on_c, 0, 59, 0
2, 2909, Note_on_c, 0, 71, 0
2, 2911, Note_on_c, 0, 67, 79
2, 2939, Note_on_c, 0, 56, 75
2, 2942, Note_on_c, 0, 55, 0
2, 2942, Note_on_c, 0, 68, 79
2, 2948, Note_on_c, 0, 67, 0
2, 2966, Note_on_c, 0, 56, 0
2, 2969, Note_on_c, 0, 67, 72
2, 2970, Note_on_c, 0, 55, 76
2, 2975, Note_on_c, 0, 68, 0
2, 2999, Note_on_c, 0, 53, 86
2, 3005, Note_on_c, 0, 55, 0
2, 3005, Note_on_c, 0, 65, 84
2, 3007, Note_on_c, 0, 67, 0
2, 3027, Note_on_c, 0, 50, 74
2, 3028, Note_on_c, 0, 53, 0
2, 3032, Note_on_c, 0, 65, 0
2, 3034, Note_on_c, 0, 62, 75
2, 3059, Note_on_c, 0, 51, 73
2, 3060, Note_on_c, 0, 50, 0
2, 3065, Note_on_c, 0, 63, 72
2, 3071, Note_on_c, 0, 62, 0
2, 3084, Note_on_c, 0, 51, 0
2, 3088, Note_on_c, 0, 50, 74
2, 3091, Note_on_c, 0, 62, 66
2, 3099, Note_on_c, 0, 63, 0
2, 3113, Control_c, 0, 64, 0
2, 3119, Note_on_c, 0, 47, 86
2, 3122, Note_on_c, 0, 50, 0
2, 3125, Note_on_c, 0, 59, 86
2, 3128, Note_on_c, 0, 62, 0
2, 3149, Note_on_c, 0, 43, 75
2, 3151, Note_on_c, 0, 47, 0
2, 3153, Note_on_c, 0, 59, 0
2, 3154, Note_on_c, 0, 55, 76
2, 3181, Note_on_c, 0, 44, 76
2, 3185, Note_on_c, 0, 43, 0
2, 3187, Note_on_c, 0, 56, 82
2, 3193, Note_on_c, 0, 55, 0
2, 3207, Note_on_c, 0, 44, 0
2, 3210, Note_on_c, 0, 43, 76
2, 3215, Note_on_c, 0, 55, 72
2, 3224, Note_on_c, 0, 56, 0
2, 3239, Note_on_c, 0, 41, 86
2, 3246, Note_on_c, 0, 53, 84
2, 3247, Note_on_c, 0, 43, 0
2, 3250, Note_on_c, 0, 55, 0
2, 3269, Note_on_c, 0, 38, 77
2, 3273, Note_on_c, 0, 41, 0
2, 3273, Note_on_c, 0, 53, 0
2, 3273, Note_on_c, 0, 50, 75
2, 3301, Note_on_c, 0, 39, 75
2, 3303, Note_on_c, 0, 51, 70
2, 3306, Note_on_c, 0, 38, 0
2, 3312, Note_on_c, 0, 50, 0
2, 3324, Note_on_c, 0, 39, 0
2, 3330, Note_on_c, 0, 38, 74
2, 3332, Note_on_c, 0, 50, 72
2, 3343, Note_on_c, 0, 51, 0
2, 3362, Note_on_c, 0, 36, 76
2, 3366, Note_on_c, 0, 48, 68
2, 3369, Note_on_c, 0, 38, 0
2, 3372, Note_on_c, 0, 50, 0
2, 3390, Note_on_c, 0, 35, 75
2, 3395, Note_on_c, 0, 36, 0
2, 3395, Note_on_c, 0, 47, 70
2, 3398, Note_on_c, 0, 48, 0
2, 3417, Note_on_c, 0, 35, 0
2, 3422, Note_on_c, 0, 43, 64
2, 3427, Note_on_c, 0, 55, 54
2, 3429, Note_on_c, 0, 47, 0
2, 3452, Note_on_c, 0, 41, 63
2, 3456, Note_on_c, 0, 53, 56
2, 3459, Note_on_c, 0, 43, 0
2, 3466, Note_on_c, 0, 55, 0
2, 3480, Note_on_c, 0, 39, 63
2, 3483, Note_on_c, 0, 51, 56
2, 3488, Note_on_c, 0, 41, 0
2, 3491, Note_on_c, 0, 53, 0
2, 3512, Note_on_c, 0, 38, 61
2, 3517, Note_on_c, 0, 50, 61
2, 3518, Note_on_c, 0, 51, 0
2, 3519, Note_on_c, 0, 39, 0
2, 3540, Note_on_c, 0, 38, 0
2, 3540, Note_on_c, 0, 39, 60
2, 3546, Note_on_c, 0, 51, 59
2, 3549, Note_on_c, 0, 50, 0
2, 3569, Note_on_c, 0, 38, 59
2, 3574, Note_on_c, 0, 50, 53
2, 3577, Note_on_c, 0, 51, 0
2, 3578, Note_on_c, 0, 39, 0
2, 3600, Note_on_c, 0, 36, 61
2, 3605, Note_on_c, 0, 50, 0
2, 3606, Note_on_c, 0, 48, 54
2, 3617, Note_on_c, 0, 38, 0
2, 3632, Note_on_c, 0, 35, 62
2, 3636, Note_on_c, 0, 36, 0
2, 3636, Note_on_c, 0, 47, 56
2, 3649, Note_on_c, 0, 48, 0
2, 3660, Note_on_c, 0, 35, 0
2, 3662, Note_on_c, 0, 47, 0
2, 3664, Note_on_c, 0, 46, 60
2, 3669, Note_on_c, 0, 58, 57
2, 3690, Note_on_c, 0, 44, 62
2, 3693, Note_on_c, 0, 46, 0
2, 3698, Note_on_c, 0, 56, 58
2, 3711, Note_on_c, 0, 58, 0
2, 3719, Note_on_c, 0, 43, 62
2, 3725, Note_on_c, 0, 44, 0
2, 3725, Note_on_c, 0, 55, 59
2, 3734, Note_on_c, 0, 56, 0
2, 3748, Note_on_c, 0, 41, 62
2, 3754, Note_on_c, 0, 53, 61
2, 3755, Note_on_c, 0, 43, 0
2, 3757, Note_on_c, 0, 55, 0
2, 3775, Note_on_c, 0, 41, 0
2, 3779, Note_on_c, 0, 43, 63
2, 3783, Note_on_c, 0, 55, 62
2, 3785, Note_on_c, 0, 53, 0
2, 3808, Note_on_c, 0, 53, 65
2, 3808, Note_on_c, 0, 41, 64
2, 3814, Note_on_c, 0, 55, 0
2, 3816, Note_on_c, 0, 43, 0
2, 3833, Note_on_c, 0, 39, 66
2, 3839, Note_on_c, 0, 51, 67
2, 3840, Note_on_c, 0, 53, 0
2, 3840, Note_on_c, 0, 41, 0
2, 3865, Note_on_c, 0, 38, 68
2, 3866, Note_on_c, 0, 51, 0
2, 3866, Note_on_c, 0, 50, 70
2, 3874, Note_on_c, 0, 39, 0
2, 3884, Note_on_c, 0, 38, 0
2, 3889, Note_on_c, 0, 50, 0
2, 3897, Note_on_c, 0, 51, 67
2, 3898, Note_on_c, 0, 63, 72
2, 3925, Note_on_c, 0, 51, 0
2, 3927, Note_on_c, 0, 50, 66
2, 3931, Note_on_c, 0, 62, 72
2, 3935, Note_on_c, 0, 63, 0
2, 3958, Note_on_c, 0, 48, 68
2, 3962, Note_on_c, 0, 60, 71
2, 3963, Note_on_c, 0, 50, 0
2, 3967, Note_on_c, 0, 62, 0
2, 3987, Note_on_c, 0, 47, 71
2, 3991, Note_on_c, 0, 59, 76
2, 3993, Note_on_c, 0, 60, 0
2, 3994, Note_on_c, 0, 48, 0
2, 4015, Note_on_c, 0, 47, 0
2, 4018, Note_on_c, 0, 48, 71
2, 4020, Note_on_c, 0, 60, 77
2, 4021, Note_on_c, 0, 59, 0
2, 4047, Note_on_c, 0, 59, 76
2, 4047, Note_on_c, 0, 47, 69
2, 4052, Note_on_c, 0, 60, 0
2, 4054, Note_on_c, 0, 48, 0
2, 4076, Note_on_c, 0, 44, 71
2, 4078, Note_on_c, 0, 56, 76
2, 4081, Note_on_c, 0, 59, 0
2, 4081, Note_on_c, 0, 47, 0
2, 4107, Note_on_c, 0, 43, 75
2, 4108, Note_on_c, 0, 56, 0
2, 4109, Note_on_c, 0, 55, 77
2, 4111, Note_on_c, 0, 44, 0
2, 4137, Note_on_c, 0, 43, 0
2, 4138, Note_on_c, 0, 44, 74
2, 4142, Note_on_c, 0, 56, 79
2, 4146, Note_on_c, 0, 55, 0
2, 4166, Note_on_c, 0, 44, 0
2, 4167, Note_on_c, 0, 43, 75
2, 4170, Note_on_c, 0, 55, 82
2, 4174, Note_on_c, 0, 56, 0
2, 4196, Note_on_c, 0, 41, 74
2, 4197, Note_on_c, 0, 55, 0
2, 4200, Note_on_c, 0, 53, 81
2, 4215, Note_on_c, 0, 43, 0
2, 4226, Note_on_c, 0, 39, 75
2, 4228, Note_on_c, 0, 41, 0
2, 4233, Note_on_c, 0, 51, 82
2, 4242, Note_on_c, 0, 53, 0
2, 4258, Note_on_c, 0, 41, 76
2, 4259, Note_on_c, 0, 39, 0
2, 4262, Note_on_c, 0, 53, 81
2, 4266, Note_on_c, 0, 51, 0
2, 4287, Note_on_c, 0, 39, 78
2, 4293, Note_on_c, 0, 51, 82
2, 4296, Note_on_c, 0, 41, 0
2, 4303, Note_on_c, 0, 53, 0
2, 4319, Note_on_c, 0, 39, 0
2, 4321, Note_on_c, 0, 51, 0
2, 4321, Control_c, 0, 64, 127
2, 4322, Note_on_c, 0, 48, 80
2, 4322, Note_on_c, 0, 36, 80
2, 4349, Note_on_c, 0, 43, 60
2, 4357, Note_on_c, 0, 36, 0
2, 4364, Note_on_c, 0, 48, 0
2, 4379, Note_on_c, 0, 43, 0
2, 4382, Note_on_c, 0, 48, 63
2, 4411, Note_on_c, 0, 50, 66
2, 4415, Note_on_c, 0, 48, 0
2, 4440, Note_on_c, 0, 51, 69
2, 4447, Note_on_c, 0, 50, 0
2, 4467, Note_on_c, 0, 55, 72
2, 4472, Note_on_c, 0, 51, 0
2, 4498, Note_on_c, 0, 55, 0
2, 4501, Note_on_c, 0, 60, 76
2, 4530, Note_on_c, 0, 62, 79
2, 4535, Note_on_c, 0, 60, 0
2, 4554, Control_c, 0, 64, 0
2, 4559, Note_on_c, 0, 62, 0
2, 4562, Note_on_c, 0, 63, 79
2, 4589, Note_on_c, 0, 62, 76
2, 4593, Note_on_c, 0, 63, 0
2, 4619, Note_on_c, 0, 62, 0
2, 4623, Note_on_c, 0, 60, 72
2, 4652, Note_on_c, 0, 55, 68
2, 4653, Note_on_c, 0, 60, 0
2, 4680, Note_on_c, 0, 55, 0
2, 4680, Note_on_c, 0, 51, 63
2, 4710, Note_on_c, 0, 50, 56
2, 4712, Note_on_c, 0, 51, 0
2, 4735, Note_on_c, 0, 50, 0
2, 4742, Note_on_c, 0, 48, 55
2, 4769, Note_on_c, 0, 43, 54
2, 4779, Note_on_c, 0, 48, 0
2, 4799, Note_on_c, 0, 43, 0
2, 4802, Note_on_c, 0, 36, 56
2, 4814, Control_c, 0, 64, 127
2, 4831, Note_on_c, 0, 43, 60
2, 4840, Note_on_c, 0, 36, 0
2, 4862, Note_on_c, 0, 43, 0
2, 4862, Note_on_c, 0, 48, 64
2, 4892, Note_on_c, 0, 50, 70
2, 4897, Note_on_c, 0, 48, 0
2, 4922, Note_on_c, 0, 50, 0
2, 4922, Note_on_c, 0, 51, 75
2, 4933, Control_c, 0, 64, 0
2, 4951, Note_on_c, 0, 50, 73
2, 4956, Note_on_c, 0, 51, 0
2, 4979, Note_on_c, 0, 50, 0
2, 4983, Note_on_c, 0, 48, 69
2, 5008, Note_on_c, 0, 43, 65
2, 5019, Note_on_c, 0, 48, 0
2, 5040, Note_on_c, 0, 43, 0
2, 5041, Note_on_c, 0, 36, 61
2, 5043, Control_c, 0, 64, 127
2, 5071, Note_on_c, 0, 43, 63
2, 5079, Note_on_c, 0, 36, 0
2, 5100, Note_on_c, 0, 43, 0
2, 5102, Note_on_c, 0, 48, 71
2, 5130, Note_on_c, 0, 50, 76
2, 5132, Note_on_c, 0, 84, 92
2, 5133, Note_on_c, 0, 72, 76
2, 5138, Note_on_c, 0, 48, 0
2, 5143, Note_on_c, 0, 72, 0
2, 5146, Note_on_c, 0, 84, 0
2, 5157, Note_on_c, 0, 86, 101
2, 5158, Note_on_c, 0, 74, 96
2, 5161, Note_on_c, 0, 51, 78
2, 5163, Note_on_c, 0, 50, 0
2, 5176, Control_c, 0, 64, 0
2, 5188, Note_on_c, 0, 50, 71
2, 5195, Note_on_c, 0, 51, 0
2, 5219, Note_on_c, 0, 50, 0
2, 5223, Note_on_c, 0, 48, 63
2, 5227, Note_on_c, 0, 74, 0
2, 5234, Note_on_c, 0, 86, 0
2, 5249, Note_on_c, 0, 75, 86
2, 5250, Note_on_c, 0, 87, 93
2, 5250, Note_on_c, 0, 43, 60
2, 5257, Note_on_c, 0, 48, 0
2, 5258, Note_on_c, 0, 75, 0
2, 5261, Note_on_c, 0, 87, 0
2, 5279, Note_on_c, 0, 43, 0
2, 5283, Note_on_c, 0, 36, 59
2, 5286, Note_on_c, 0, 75, 99
2, 5286, Note_on_c, 0, 87, 101
2, 5290, Control_c, 0, 64, 127
2, 5314, Note_on_c, 0, 43, 62
2, 5318, Note_on_c, 0, 36, 0
2, 5343, Note_on_c, 0, 43, 0
2, 5345, Note_on_c, 0, 48, 64
2, 5375, Note_on_c, 0, 50, 67
2, 5381, Note_on_c, 0, 48, 0
2, 5404, Note_on_c, 0, 51, 71
2, 5410, Note_on_c, 0, 50, 0
2, 5433, Note_on_c, 0, 51, 0
2, 5433, Note_on_c, 0, 55, 75
2, 5458, Note_on_c, 0, 55, 0
2, 5462, Note_on_c, 0, 60, 77
2, 5492, Note_on_c, 0, 87, 0
2, 5493, Note_on_c, 0, 62, 80
2, 5500, Note_on_c, 0, 60, 0
2, 5500, Note_on_c, 0, 75, 0
2, 5526, Note_on_c, 0, 62, 0
2, 5526, Note_on_c, 0, 63, 83
2, 5539, Control_c, 0, 64, 0
2, 5554, Note_on_c, 0, 62, 79
2, 5556, Note_on_c, 0, 63, 0
2, 5582, Note_on_c, 0, 62, 0
2, 5587, Note_on_c, 0, 60, 73
2, 5612, Note_on_c, 0, 75, 61
2, 5613, Note_on_c, 0, 67, 70
2, 5614, Note_on_c, 0, 79, 79
2, 5614, Note_on_c, 0, 72, 58
2, 5614, Note_on_c, 0, 55, 67
2, 5618, Note_on_c, 0, 60, 0
2, 5627, Note_on_c, 0, 72, 0
2, 5627, Note_on_c, 0, 79, 0
2, 5628, Note_on_c, 0, 67, 0
2, 5629, Note_on_c, 0, 75, 0
2, 5644, Note_on_c, 0, 51, 62
2, 5645, Note_on_c, 0, 55, 0
2, 5645, Note_on_c, 0, 75, 67
2, 5646, Note_on_c, 0, 79, 81
2, 5646, Note_on_c, 0, 72, 56
2, 5647, Note_on_c, 0, 67, 76
2, 5673, Note_on_c, 0, 50, 55
2, 5677, Note_on_c, 0, 51, 0
2, 5699, Note_on_c, 0, 50, 0
2, 5705, Note_on_c, 0, 48, 55
2, 5720, Note_on_c, 0, 75, 0
2, 5722, Note_on_c, 0, 79, 0
2, 5723, Note_on_c, 0, 72, 0
2, 5725, Note_on_c, 0, 67, 0
2, 5732, Note_on_c, 0, 43, 54
2, 5735, Note_on_c, 0, 67, 69
2, 5736, Note_on_c, 0, 79, 79
2, 5737, Note_on_c, 0, 72, 56
2, 5739, Note_on_c, 0, 75, 64
2, 5744, Note_on_c, 0, 48, 0
2, 5750, Note_on_c, 0, 79, 0
2, 5750, Note_on_c, 0, 67, 0
2, 5752, Note_on_c, 0, 72, 0
2, 5754, Note_on_c, 0, 75, 0
2, 5763, Note_on_c, 0, 43, 0
2, 5764, Note_on_c, 0, 36, 61
2, 5769, Note_on_c, 0, 72, 61
2, 5770, Note_on_c, 0, 80, 78
2, 5770, Note_on_c, 0, 68, 74
2, 5773, Note_on_c, 0, 75, 64
2, 5780, Control_c, 0, 64, 127
2, 5794, Note_on_c, 0, 43, 66
2, 5803, Note_on_c, 0, 36, 0
2, 5822, Note_on_c, 0, 43, 0
2, 5823, Note_on_c, 0, 48, 72
2, 5851, Note_on_c, 0, 50, 76
2, 5856, Note_on_c, 0, 48, 0
2, 5880, Note_on_c, 0, 51, 77
2, 5881, Note_on_c, 0, 50, 0
2, 5910, Note_on_c, 0, 50, 77
2, 5913, Control_c, 0, 64, 0
2, 5914, Note_on_c, 0, 51, 0
2, 5939, Note_on_c, 0, 50, 0
2, 5942, Note_on_c, 0, 48, 72
2, 5972, Note_on_c, 0, 43, 66
2, 5976, Note_on_c, 0, 48, 0
2, 5977, Note_on_c, 0, 80, 0
2, 5985, Note_on_c, 0, 68, 0
2, 6004, Note_on_c, 0, 43, 0
2, 6004, Note_on_c, 0, 36, 60
2, 6005, Note_on_c, 0, 67, 63
2, 6008, Note_on_c, 0, 79, 73
2, 6008, Control_c, 0, 64, 127
2, 6032, Note_on_c, 0, 43, 64
2, 6038, Note_on_c, 0, 67, 0
2, 6039, Note_on_c, 0, 36, 0
2, 6040, Note_on_c, 0, 72, 0
2, 6041, Note_on_c, 0, 75, 0
2, 6044, Note_on_c, 0, 79, 0
2, 6061, Note_on_c, 0, 48, 71
2, 6062, Note_on_c, 0, 43, 0
2, 6090, Note_on_c, 0, 50, 78
2, 6091, Note_on_c, 0, 72, 88
2, 6092, Note_on_c, 0, 84, 88
2, 6097, Note_on_c, 0, 48, 0
2, 6101, Note_on_c, 0, 72, 0
2, 6102, Note_on_c, 0, 84, 0
2, 6124, Note_on_c, 0, 50, 0
2, 6124, Note_on_c, 0, 74, 90
2, 6124, Note_on_c, 0, 86, 101
2, 6124, Note_on_c, 0, 51, 78
2, 6149, Control_c, 0, 64, 0
2, 6151, Note_on_c, 0, 50, 74
2, 6157, Note_on_c, 0, 51, 0
2, 6182, Note_on_c, 0, 50, 0
2, 6186, Note_on_c, 0, 48, 67
2, 6197, Note_on_c, 0, 74, 0
2, 6199, Note_on_c, 0, 86, 0
2, 6211, Note_on_c, 0, 75, 90
2, 6212, Note_on_c, 0, 87, 92
2, 6212, Note_on_c, 0, 43, 60
2, 6223, Note_on_c, 0, 87, 0
2, 6223, Note_on_c, 0, 48, 0
2, 6223, Note_on_c, 0, 75, 0
2, 6243, Note_on_c, 0, 43, 0
2, 6243, Note_on_c, 0, 75, 97
2, 6244, Note_on_c, 0, 87, 99
2, 6245, Note_on_c, 0, 36, 59
2, 6259, Control_c, 0, 64, 127
2, 6275, Note_on_c, 0, 43, 61
2, 6282, Note_on_c, 0, 36, 0
2, 6303, Note_on_c, 0, 43, 0
2, 6305, Note_on_c, 0, 48, 62
2, 6338, Note_on_c, 0, 50, 64
2, 6344, Note_on_c, 0, 48, 0
2, 6367, Note_on_c, 0, 51, 66
2, 6372, Note_on_c, 0, 50, 0
2, 6394, Note_on_c, 0, 51, 0
2, 6394, Note_on_c, 0, 55, 69
2, 6424, Note_on_c, 0, 55, 0
2, 6424, Note_on_c, 0, 60, 71
2, 6436, Note_on_c, 0, 87, 0
2, 6438, Note_on_c, 0, 75, 0
2, 6453, Note_on_c, 0, 62, 72
2, 6458, Note_on_c, 0, 60, 0
2, 6484, Note_on_c, 0, 62, 0
2, 6484, Note_on_c, 0, 63, 71
2, 6498, Control_c, 0, 64, 0
2, 6512, Note_on_c, 0, 62, 68
2, 6514, Note_on_c, 0, 63, 0
2, 6538, Note_on_c, 0, 62, 0
2, 6543, Note_on_c, 0, 60, 65
2, 6568, Note_on_c, 0, 67, 64
2, 6570, Note_on_c, 0, 75, 63
2, 6571, Note_on_c, 0, 72, 55
2, 6571, Note_on_c, 0, 79, 62
2, 6571, Note_on_c, 0, 55, 66
2, 6576, Note_on_c, 0, 60, 0
2, 6583, Note_on_c, 0, 72, 0
2, 6583, Note_on_c, 0, 75, 0
2, 6584, Note_on_c, 0, 67, 0
2, 6584, Note_on_c, 0, 79, 0
2, 6600, Note_on_c, 0, 67, 70
2, 6601, Note_on_c, 0, 72, 59
2, 6601, Note_on_c, 0, 79, 69
2, 6601, Note_on_c, 0, 51, 60
2, 6602, Note_on_c, 0, 75, 68
2, 6604, Note_on_c, 0, 55, 0
2, 6630, Note_on_c, 0, 50, 57
2, 6636, Note_on_c, 0, 51, 0
2, 6655, Note_on_c, 0, 50, 0
2, 6659, Note_on_c, 0, 75, 0
2, 6662, Note_on_c, 0, 48, 54
2, 6663, Note_on_c, 0, 72, 0
2, 6668, Note_on_c, 0, 67, 0
2, 6668, Note_on_c, 0, 79, 0
2, 6687, Note_on_c, 0, 79, 73
2, 6688, Note_on_c, 0, 67, 73
2, 6689, Note_on_c, 0, 72, 60
2, 6689, Note_on_c, 0, 43, 52
2, 6690, Note_on_c, 0, 75, 69
2, 6700, Note_on_c, 0, 79, 0
2, 6700, Note_on_c, 0, 48, 0
2, 6701, Note_on_c, 0, 67, 0
2, 6704, Note_on_c, 0, 72, 0
2, 6707, Note_on_c, 0, 75, 0
2, 6719, Note_on_c, 0, 75, 76
2, 6720, Note_on_c, 0, 43, 0
2, 6721, Note_on_c, 0, 72, 72
2, 6721, Note_on_c, 0, 36, 52
2, 6722, Note_on_c, 0, 69, 78
2, 6723, Note_on_c, 0, 81, 87
2, 6731, Control_c, 0, 64, 127
2, 6750, Note_on_c, 0, 42, 55
2, 6772, Note_on_c, 0, 36, 0
2, 6777, Note_on_c, 0, 42, 0
2, 6778, Note_on_c, 0, 48, 59
2, 6807, Note_on_c, 0, 50, 66
2, 6815, Note_on_c, 0, 48, 0
2, 6839, Note_on_c, 0, 51, 70
2, 6840, Note_on_c, 0, 50, 0
2, 6858, Control_c, 0, 64, 0
2, 6870, Note_on_c, 0, 50, 68
2, 6872, Note_on_c, 0, 51, 0
2, 6897, Note_on_c, 0, 50, 0
2, 6901, Note_on_c, 0, 48, 61
2, 6927, Note_on_c, 0, 42, 55
2, 6938, Note_on_c, 0, 48, 0
2, 6957, Note_on_c, 0, 42, 0
2, 6959, Control_c, 0, 64, 127
2, 6960, Note_on_c, 0, 36, 51
2, 6991, Note_on_c, 0, 42, 58
2, 6998, Note_on_c, 0, 36, 0
2, 7018, Note_on_c, 0, 42, 0
2, 7020, Note_on_c, 0, 48, 64
2, 7049, Note_on_c, 0, 50, 67
2, 7054, Note_on_c, 0, 48, 0
2, 7082, Note_on_c, 0, 51, 71
2, 7084, Note_on_c, 0, 50, 0
2, 7096, Control_c, 0, 64, 0
2, 7114, Note_on_c, 0, 50, 65
2, 7124, Note_on_c, 0, 51, 0
2, 7128, Note_on_c, 0, 81, 0
2, 7128, Note_on_c, 0, 69, 0
2, 7128, Note_on_c, 0, 75, 0
2, 7128, Note_on_c, 0, 72, 0
2, 7141, Note_on_c, 0, 50, 0
2, 7144, Note_on_c, 0, 48, 61
2, 7171, Note_on_c, 0, 42, 58
2, 7177, Note_on_c, 0, 48, 0
2, 7194, Note_on_c, 0, 42, 0
2, 7201, Note_on_c, 0, 35, 66
2, 7202, Note_on_c, 0, 86, 84
2, 7203, Note_on_c, 0, 81, 68
2, 7203, Control_c, 0, 64, 127
2, 7204, Note_on_c, 0, 74, 76
2, 7230, Note_on_c, 0, 35, 0
2, 7233, Note_on_c, 0, 47, 65
2, 7235, Note_on_c, 0, 86, 0
2, 7236, Note_on_c, 0, 81, 0
2, 7237, Note_on_c, 0, 74, 0
2, 7258, Note_on_c, 0, 47, 0
2, 7265, Note_on_c, 0, 50, 66
2, 7293, Note_on_c, 0, 55, 69
2, 7308, Note_on_c, 0, 50, 0
2, 7325, Note_on_c, 0, 62, 67
2, 7328, Note_on_c, 0, 79, 84
2, 7329, Note_on_c, 0, 67, 73
2, 7330, Note_on_c, 0, 74, 68
2, 7334, Note_on_c, 0, 55, 0
2, 7357, Note_on_c, 0, 55, 66
2, 7358, Note_on_c, 0, 62, 0
2, 7384, Note_on_c, 0, 55, 0
2, 7384, Note_on_c, 0, 50, 68
2, 7403, Note_on_c, 0, 50, 0
2, 7414, Note_on_c, 0, 47, 69
2, 7425, Control_c, 0, 64, 0
2, 7438, Note_on_c, 0, 47, 0
2, 7447, Note_on_c, 0, 34, 66
2, 7448, Note_on_c, 0, 74, 0
2, 7448, Note_on_c, 0, 79, 0
2, 7451, Note_on_c, 0, 67, 0
2, 7454, Control_c, 0, 64, 127
2, 7477, Note_on_c, 0, 34, 0
2, 7478, Note_on_c, 0, 46, 66
2, 7497, Note_on_c, 0, 46, 0
2, 7504, Note_on_c, 0, 49, 66
2, 7534, Note_on_c, 0, 49, 0
2, 7534, Note_on_c, 0, 79, 84
2, 7535, Note_on_c, 0, 67, 70
2, 7536, Note_on_c, 0, 73, 55
2, 7536, Note_on_c, 0, 55, 67
2, 7549, Note_on_c, 0, 67, 0
2, 7553, Note_on_c, 0, 73, 0
2, 7563, Note_on_c, 0, 55, 0
2, 7564, Note_on_c, 0, 73, 56
2, 7568, Note_on_c, 0, 80, 87
2, 7568, Note_on_c, 0, 61, 64
2, 7570, Note_on_c, 0, 68, 76
2, 7580, Note_on_c, 0, 79, 0
2, 7590, Note_on_c, 0, 61, 0
2, 7594, Note_on_c, 0, 55, 66
2, 7617, Note_on_c, 0, 55, 0
2, 7619, Note_on_c, 0, 49, 67
2, 7629, Note_on_c, 0, 68, 0
2, 7637, Note_on_c, 0, 73, 0
2, 7637, Note_on_c, 0, 80, 0
2, 7639, Note_on_c, 0, 49, 0
2, 7645, Note_on_c, 0, 73, 54
2, 7648, Note_on_c, 0, 67, 76
2, 7649, Note_on_c, 0, 46, 68
2, 7650, Note_on_c, 0, 79, 86
2, 7661, Note_on_c, 0, 73, 0
2, 7662, Note_on_c, 0, 67, 0
2, 7665, Note_on_c, 0, 79, 0
2, 7668, Control_c, 0, 64, 0
2, 7676, Note_on_c, 0, 46, 0
2, 7682, Note_on_c, 0, 33, 68
2, 7684, Note_on_c, 0, 72, 54
2, 7684, Note_on_c, 0, 67, 77
2, 7689, Note_on_c, 0, 79, 86
2, 7701, Control_c, 0, 64, 127
2, 7711, Note_on_c, 0, 33, 0
2, 7714, Note_on_c, 0, 45, 69
2, 7727, Note_on_c, 0, 67, 0
2, 7732, Note_on_c, 0, 45, 0
2, 7735, Note_on_c, 0, 72, 0
2, 7737, Note_on_c, 0, 79, 0
2, 7742, Note_on_c, 0, 48, 67
2, 7751, Note_on_c, 0, 84, 86
2, 7752, Note_on_c, 0, 72, 78
2, 7771, Note_on_c, 0, 72, 0
2, 7771, Note_on_c, 0, 53, 67
2, 7773, Note_on_c, 0, 84, 0
2, 7789, Note_on_c, 0, 48, 0
2, 7804, Note_on_c, 0, 60, 66
2, 7810, Note_on_c, 0, 53, 0
2, 7810, Note_on_c, 0, 77, 88
2, 7811, Note_on_c, 0, 65, 87
2, 7811, Note_on_c, 0, 72, 64
2, 7833, Note_on_c, 0, 53, 67
2, 7834, Note_on_c, 0, 60, 0
2, 7861, Note_on_c, 0, 53, 0
2, 7861, Note_on_c, 0, 48, 64
2, 7877, Note_on_c, 0, 48, 0
2, 7891, Note_on_c, 0, 45, 66
2, 7899, Note_on_c, 0, 65, 0
2, 7901, Note_on_c, 0, 72, 0
2, 7901, Note_on_c, 0, 77, 0
2, 7903, Control_c, 0, 64, 0
2, 7913, Note_on_c, 0, 45, 0
2, 7924, Note_on_c, 0, 32, 64
2, 7934, Control_c, 0, 64, 127
2, 7952, Note_on_c, 0, 32, 0
2, 7954, Note_on_c, 0, 44, 65
2, 7967, Note_on_c, 0, 44, 0
2, 7981, Note_on_c, 0, 48, 65
2, 8008, Note_on_c, 0, 72, 62
2, 8009, Note_on_c, 0, 77, 80
2, 8010, Note_on_c, 0, 65, 72
2, 8012, Note_on_c, 0, 53, 66
2, 8023, Note_on_c, 0, 65, 0
2, 8028, Note_on_c, 0, 77, 0
2, 8032, Note_on_c, 0, 72, 0
2, 8035, Note_on_c, 0, 53, 0
2, 8037, Note_on_c, 0, 72, 55
2, 8037, Note_on_c, 0, 79, 84
2, 8039, Note_on_c, 0, 67, 73
2, 8042, Note_on_c, 0, 48, 0
2, 8047, Note_on_c, 0, 60, 67
2, 8073, Note_on_c, 0, 60, 0
2, 8075, Note_on_c, 0, 53, 64
2, 8102, Note_on_c, 0, 48, 66
2, 8105, Note_on_c, 0, 53, 0
2, 8110, Note_on_c, 0, 67, 0
2, 8112, Note_on_c, 0, 72, 0
2, 8116, Note_on_c, 0, 48, 0
2, 8131, Note_on_c, 0, 77, 72
2, 8132, Note_on_c, 0, 72, 59
2, 8132, Note_on_c, 0, 44, 65
2, 8133, Note_on_c, 0, 65, 66
2, 8145, Note_on_c, 0, 79, 0
2, 8147, Note_on_c, 0, 65, 0
2, 8148, Note_on_c, 0, 77, 0
2, 8148, Control_c, 0, 64, 0
2, 8151, Note_on_c, 0, 44, 0
2, 8152, Note_on_c, 0, 72, 0
2, 8164, Note_on_c, 0, 72, 61
2, 8164, Note_on_c, 0, 31, 55
2, 8165, Note_on_c, 0, 76, 73
2, 8166, Note_on_c, 0, 64, 76
2, 8174, Control_c, 0, 64, 127
2, 8196, Note_on_c, 0, 31, 0
2, 8198, Note_on_c, 0, 43, 56
2, 8227, Note_on_c, 0, 43, 0
2, 8227, Note_on_c, 0, 48, 54
2, 8251, Control_c, 0, 64, 0
2, 8257, Note_on_c, 0, 48, 0
2, 8259, Note_on_c, 0, 47, 56
2, 8285, Note_on_c, 0, 47, 0
2, 8286, Note_on_c, 0, 49, 58
2, 8315, Note_on_c, 0, 49, 0
2, 8315, Note_on_c, 0, 48, 58
2, 8343, Note_on_c, 0, 48, 0
2, 8346, Note_on_c, 0, 50, 59
2, 8377, Note_on_c, 0, 50, 0
2, 8377, Note_on_c, 0, 49, 61
2, 8405, Note_on_c, 0, 49, 0
2, 8406, Note_on_c, 0, 51, 63
2, 8434, Note_on_c, 0, 51, 0
2, 8436, Note_on_c, 0, 50, 63
2, 8465, Note_on_c, 0, 50, 0
2, 8465, Note_on_c, 0, 52, 64
2, 8496, Note_on_c, 0, 51, 66
2, 8498, Note_on_c, 0, 52, 0
2, 8526, Note_on_c, 0, 51, 0
2, 8526, Note_on_c, 0, 53, 67
2, 8555, Note_on_c, 0, 52, 70
2, 8558, Note_on_c, 0, 53, 0
2, 8566, Note_on_c, 0, 64, 0
2, 8569, Note_on_c, 0, 76, 0
2, 8577, Note_on_c, 0, 72, 0
2, 8586, Note_on_c, 0, 52, 0
2, 8586, Note_on_c, 0, 54, 70
2, 8615, Note_on_c, 0, 54, 0
2, 8615, Note_on_c, 0, 75, 67
2, 8616, Note_on_c, 0, 63, 70
2, 8616, Note_on_c, 0, 53, 70
2, 8628, Note_on_c, 0, 75, 0
2, 8631, Note_on_c, 0, 63, 0
2, 8638, Control_c, 0, 64, 127
2, 8641, Note_on_c, 0, 71, 56
2, 8642, Note_on_c, 0, 55, 77
2, 8645, Note_on_c, 0, 53, 0
2, 8645, Note_on_c, 0, 63, 79
2, 8646, Note_on_c, 0, 75, 82
2, 8671, Note_on_c, 0, 54, 75
2, 8673, Note_on_c, 0, 55, 0
2, 8702, Note_on_c, 0, 56, 73
2, 8703, Note_on_c, 0, 54, 0
2, 8733, Note_on_c, 0, 55, 72
2, 8736, Note_on_c, 0, 56, 0
2, 8761, Note_on_c, 0, 62, 69
2, 8762, Note_on_c, 0, 74, 62
2, 8763, Note_on_c, 0, 75, 0
2, 8763, Note_on_c, 0, 58, 71
2, 8765, Note_on_c, 0, 55, 0
2, 8767, Note_on_c, 0, 63, 0
2, 8783, Control_c, 0, 64, 0
2, 8793, Note_on_c, 0, 56, 68
2, 8794, Note_on_c, 0, 58, 0
2, 8815, Note_on_c, 0, 56, 0
2, 8822, Note_on_c, 0, 55, 66
2, 8845, Note_on_c, 0, 55, 0
2, 8851, Note_on_c, 0, 53, 64
2, 8860, Note_on_c, 0, 62, 0
2, 8862, Note_on_c, 0, 74, 0
2, 8863, Note_on_c, 0, 71, 0
2, 8881, Note_on_c, 0, 51, 60
2, 8882, Note_on_c, 0, 53, 0
2, 8911, Note_on_c, 0, 50, 62
2, 8916, Note_on_c, 0, 51, 0
2, 8934, Note_on_c, 0, 50, 0
2, 8941, Note_on_c, 0, 48, 65
2, 8969, Note_on_c, 0, 47, 67
2, 8972, Note_on_c, 0, 48, 0
2, 8997, Note_on_c, 0, 47, 0
2, 8999, Note_on_c, 0, 44, 69
2, 9029, Note_on_c, 0, 44, 0
2, 9029, Note_on_c, 0, 43, 72
2, 9059, Note_on_c, 0, 41, 73
2, 9064, Note_on_c, 0, 43, 0
2, 9090, Note_on_c, 0, 38, 74
2, 9093, Note_on_c, 0, 41, 0
2, 9118, Note_on_c, 0, 36, 61
2, 9122, Note_on_c, 0, 38, 0
2, 9137, Control_c, 0, 64, 127
2, 9151, Note_on_c, 0, 43, 59
2, 9156, Note_on_c, 0, 36, 0
2, 9181, Note_on_c, 0, 43, 0
2, 9183, Note_on_c, 0, 48, 61
2, 9212, Note_on_c, 0, 50, 63
2, 9214, Note_on_c, 0, 48, 0
2, 9241, Note_on_c, 0, 51, 65
2, 9247, Note_on_c, 0, 50, 0
2, 9271, Note_on_c, 0, 55, 67
2, 9272, Note_on_c, 0, 51, 0
2, 9302, Note_on_c, 0, 55, 0
2, 9302, Note_on_c, 0, 60, 69
2, 9329, Note_on_c, 0, 62, 70
2, 9334, Note_on_c, 0, 60, 0
2, 9358, Note_on_c, 0, 62, 0
2, 9360, Note_on_c, 0, 63, 68
2, 9362, Control_c, 0, 64, 0
2, 9388, Note_on_c, 0, 63, 0
2, 9389, Note_on_c, 0, 62, 66
2, 9414, Note_on_c, 0, 62, 0
2, 9419, Note_on_c, 0, 60, 64
2, 9448, Note_on_c, 0, 60, 0
2, 9451, Note_on_c, 0, 55, 61
2, 9470, Note_on_c, 0, 55, 0
2, 9477, Note_on_c, 0, 51, 59
2, 9506, Note_on_c, 0, 50, 58
2, 9509, Note_on_c, 0, 51, 0
2, 9528, Note_on_c, 0, 50, 0
2, 9535, Note_on_c, 0, 48, 57
2, 9565, Note_on_c, 0, 43, 55
2, 9576, Note_on_c, 0, 48, 0
2, 9593, Note_on_c, 0, 43, 0
2, 9596, Note_on_c, 0, 36, 58
2, 9608, Control_c, 0, 64, 127
2, 9626, Note_on_c, 0, 43, 60
2, 9635, Note_on_c, 0, 36, 0
2, 9657, Note_on_c, 0, 43, 0
2, 9658, Note_on_c, 0, 48, 64
2, 9687, Note_on_c, 0, 50, 69
2, 9691, Note_on_c, 0, 48, 0
2, 9717, Note_on_c, 0, 51, 70
2, 9718, Note_on_c, 0, 50, 0
2, 9745, Control_c, 0, 64, 0
2, 9749, Note_on_c, 0, 50, 68
2, 9751, Note_on_c, 0, 51, 0
2, 9778, Note_on_c, 0, 50, 0
2, 9781, Note_on_c, 0, 48, 64
2, 9807, Note_on_c, 0, 43, 60
2, 9816, Note_on_c, 0, 48, 0
2, 9838, Note_on_c, 0, 43, 0
2, 9839, Note_on_c, 0, 36, 60
2, 9861, Control_c, 0, 64, 127
2, 9870, Note_on_c, 0, 43, 65
2, 9876, Note_on_c, 0, 36, 0
2, 9898, Note_on_c, 0, 43, 0
2, 9899, Note_on_c, 0, 48, 71
2, 9927, Note_on_c, 0, 72, 65
2, 9928, Note_on_c, 0, 84, 96
2, 9928, Note_on_c, 0, 50, 77
2, 9934, Note_on_c, 0, 48, 0
2, 9943, Note_on_c, 0, 72, 0
2, 9949, Note_on_c, 0, 84, 0
2, 9958, Note_on_c, 0, 86, 94
2, 9960, Note_on_c, 0, 74, 67
2, 9960, Note_on_c, 0, 51, 78
2, 9962, Note_on_c, 0, 50, 0
2, 9988, Note_on_c, 0, 50, 74
2, 9993, Note_on_c, 0, 51, 0
2, 9998, Control_c, 0, 64, 0
2, 10016, Note_on_c, 0, 50, 0
2, 10020, Note_on_c, 0, 48, 64
2, 10043, Note_on_c, 0, 74, 0
2, 10045, Note_on_c, 0, 86, 0
2, 10047, Note_on_c, 0, 43, 61
2, 10048, Note_on_c, 0, 75, 87
2, 10048, Note_on_c, 0, 87, 95
2, 10055, Note_on_c, 0, 48, 0
2, 10060, Note_on_c, 0, 75, 0
2, 10061, Note_on_c, 0, 87, 0
2, 10077, Note_on_c, 0, 43, 0
2, 10079, Note_on_c, 0, 36, 59
2, 10082, Note_on_c, 0, 75, 80
2, 10082, Note_on_c, 0, 87, 97
2, 10105, Control_c, 0, 64, 127
2, 10109, Note_on_c, 0, 43, 64
2, 10114, Note_on_c, 0, 36, 0
2, 10139, Note_on_c, 0, 48, 68
2, 10140, Note_on_c, 0, 43, 0
2, 10168, Note_on_c, 0, 50, 71
2, 10198, Note_on_c, 0, 51, 74
2, 10199, Note_on_c, 0, 48, 0
2, 10200, Note_on_c, 0, 50, 0
2, 10229, Note_on_c, 0, 55, 77
2, 10231, Note_on_c, 0, 51, 0
2, 10257, Note_on_c, 0, 55, 0
2, 10259, Note_on_c, 0, 60, 80
2, 10287, Note_on_c, 0, 62, 82
2, 10293, Note_on_c, 0, 60, 0
2, 10303, Note_on_c, 0, 87, 0
2, 10310, Note_on_c, 0, 75, 0
2, 10313, Control_c, 0, 64, 0
2, 10317, Note_on_c, 0, 62, 0
2, 10318, Note_on_c, 0, 63, 81
2, 10346, Note_on_c, 0, 62, 76
2, 10350, Note_on_c, 0, 63, 0
2, 10375, Note_on_c, 0, 62, 0
2, 10378, Note_on_c, 0, 60, 71
2, 10407, Note_on_c, 0, 55, 65
2, 10412, Note_on_c, 0, 60, 0
2, 10414, Note_on_c, 0, 67, 65
2, 10415, Note_on_c, 0, 79, 67
2, 10415, Note_on_c, 0, 72, 54
2, 10416, Note_on_c, 0, 75, 64
2, 10428, Note_on_c, 0, 72, 0
2, 10429, Note_on_c, 0, 79, 0
2, 10429, Note_on_c, 0, 67, 0
2, 10430, Note_on_c, 0, 75, 0
2, 10434, Note_on_c, 0, 55, 0
2, 10435, Note_on_c, 0, 51, 62
2, 10442, Note_on_c, 0, 75, 58
2, 10442, Note_on_c, 0, 67, 70
2, 10443, Note_on_c, 0, 72, 59
2, 10444, Note_on_c, 0, 79, 72
2, 10465, Note_on_c, 0, 50, 59
2, 10471, Note_on_c, 0, 51, 0
2, 10490, Note_on_c, 0, 50, 0
2, 10496, Note_on_c, 0, 48, 57
2, 10520, Note_on_c, 0, 75, 0
2, 10520, Note_on_c, 0, 67, 0
2, 10521, Note_on_c, 0, 79, 0
2, 10522, Note_on_c, 0, 72, 0
2, 10522, Note_on_c, 0, 43, 55
2, 10530, Note_on_c, 0, 79, 72
2, 10531, Note_on_c, 0, 72, 54
2, 10532, Note_on_c, 0, 48, 0
2, 10532, Note_on_c, 0, 75, 66
2, 10532, Note_on_c, 0, 67, 70
2, 10541, Note_on_c, 0, 79, 0
2, 10545, Note_on_c, 0, 67, 0
2, 10548, Note_on_c, 0, 72, 0
2, 10550, Note_on_c, 0, 75, 0
2, 10555, Note_on_c, 0, 43, 0
2, 10555, Note_on_c, 0, 36, 57
2, 10565, Note_on_c, 0, 75, 64
2, 10566, Note_on_c, 0, 72, 59
2, 10566, Note_on_c, 0, 68, 66
2, 10567, Note_on_c, 0, 80, 72
2, 10586, Note_on_c, 0, 43, 61
2, 10593, Control_c, 0, 64, 127
2, 10594, Note_on_c, 0, 36, 0
2, 10613, Note_on_c, 0, 48, 63
2, 10615, Note_on_c, 0, 43, 0
2, 10645, Note_on_c, 0, 50, 67
2, 10653, Note_on_c, 0, 48, 0
2, 10677, Note_on_c, 0, 50, 0
2, 10677, Note_on_c, 0, 51, 68
2, 10708, Note_on_c, 0, 50, 65
2, 10711, Note_on_c, 0, 51, 0
2, 10712, Control_c, 0, 64, 0
2, 10734, Note_on_c, 0, 50, 0
2, 10738, Note_on_c, 0, 48, 63
2, 10766, Note_on_c, 0, 43, 60
2, 10767, Note_on_c, 0, 80, 0
2, 10773, Note_on_c, 0, 48, 0
2, 10779, Note_on_c, 0, 68, 0
2, 10798, Note_on_c, 0, 43, 0
2, 10799, Note_on_c, 0, 36, 62
2, 10801, Note_on_c, 0, 67, 69
2, 10804, Note_on_c, 0, 79, 69
2, 10826, Control_c, 0, 64, 127
2, 10827, Note_on_c, 0, 43, 68
2, 10831, Note_on_c, 0, 67, 0
2, 10832, Note_on_c, 0, 72, 0
2, 10834, Note_on_c, 0, 36, 0
2, 10836, Note_on_c, 0, 75, 0
2, 10838, Note_on_c, 0, 79, 0
2, 10856, Note_on_c, 0, 43, 0
2, 10857, Note_on_c, 0, 48, 72
2, 10888, Note_on_c, 0, 50, 75
2, 10894, Note_on_c, 0, 48, 0
2, 10894, Note_on_c, 0, 72, 85
2, 10895, Note_on_c, 0, 84, 92
2, 10905, Note_on_c, 0, 72, 0
2, 10909, Note_on_c, 0, 84, 0
2, 10919, Note_on_c, 0, 51, 80
2, 10920, Note_on_c, 0, 50, 0
2, 10922, Note_on_c, 0, 86, 94
2, 10923, Note_on_c, 0, 74, 86
2, 10948, Note_on_c, 0, 50, 77
2, 10949, Control_c, 0, 64, 0
2, 10953, Note_on_c, 0, 51, 0
2, 10974, Note_on_c, 0, 50, 0
2, 10979, Note_on_c, 0, 48, 72
2, 10984, Note_on_c, 0, 74, 0
2, 10989, Note_on_c, 0, 86, 0
2, 11007, Note_on_c, 0, 43, 66
2, 11010, Note_on_c, 0, 87, 95
2, 11011, Note_on_c, 0, 75, 81
2, 11016, Note_on_c, 0, 48, 0
2, 11020, Note_on_c, 0, 75, 0
2, 11021, Note_on_c, 0, 87, 0
2, 11037, Note_on_c, 0, 43, 0
2, 11038, Note_on_c, 0, 75, 87
2, 11039, Note_on_c, 0, 87, 96
2, 11039, Note_on_c, 0, 36, 53
2, 11068, Note_on_c, 0, 43, 56
2, 11073, Note_on_c, 0, 36, 0
2, 11073, Control_c, 0, 64, 127
2, 11096, Note_on_c, 0, 43, 0
2, 11099, Note_on_c, 0, 48, 59
2, 11128, Note_on_c, 0, 50, 61
2, 11150, Note_on_c, 0, 48, 0
2, 11156, Note_on_c, 0, 51, 57
2, 11162, Note_on_c, 0, 50, 0
2, 11186, Note_on_c, 0, 51, 0
2, 11186, Note_on_c, 0, 55, 58
2, 11217, Note_on_c, 0, 55, 0
2, 11218, Note_on_c, 0, 60, 60
2, 11247, Note_on_c, 0, 62, 63
2, 11253, Note_on_c, 0, 60, 0
2, 11262, Note_on_c, 0, 87, 0
2, 11267, Note_on_c, 0, 75, 0
2, 11277, Note_on_c, 0, 62, 0
2, 11278, Note_on_c, 0, 63, 69
2, 11282, Control_c, 0, 64, 0
2, 11306, Note_on_c, 0, 62, 66
2, 11307, Note_on_c, 0, 63, 0
2, 11333, Note_on_c, 0, 62, 0
2, 11338, Note_on_c, 0, 60, 62
2, 11368, Note_on_c, 0, 55, 58
2, 11369, Note_on_c, 0, 79, 71
2, 11370, Note_on_c, 0, 60, 0
2, 11373, Note_on_c, 0, 75, 56
2, 11373, Note_on_c, 0, 72, 59
2, 11374, Note_on_c, 0, 67, 62
2, 11387, Note_on_c, 0, 79, 0
2, 11388, Note_on_c, 0, 72, 0
2, 11389, Note_on_c, 0, 67, 0
2, 11390, Note_on_c, 0, 75, 0
2, 11395, Note_on_c, 0, 51, 55
2, 11397, Note_on_c, 0, 55, 0
2, 11399, Note_on_c, 0, 79, 73
2, 11400, Note_on_c, 0, 75, 65
2, 11400, Note_on_c, 0, 72, 59
2, 11401, Note_on_c, 0, 67, 70
2, 11426, Note_on_c, 0, 50, 53
2, 11430, Note_on_c, 0, 51, 0
2, 11449, Note_on_c, 0, 50, 0
2, 11456, Note_on_c, 0, 48, 52
2, 11463, Note_on_c, 0, 72, 0
2, 11464, Note_on_c, 0, 79, 0
2, 11465, Note_on_c, 0, 67, 0
2, 11466, Note_on_c, 0, 75, 0
2, 11482, Note_on_c, 0, 75, 65
2, 11482, Note_on_c, 0, 72, 58
2, 11483, Note_on_c, 0, 67, 69
2, 11484, Note_on_c, 0, 79, 74
2, 11484, Note_on_c, 0, 43, 50
2, 11494, Note_on_c, 0, 72, 0
2, 11496, Note_on_c, 0, 67, 0
2, 11496, Note_on_c, 0, 48, 0
2, 11503, Note_on_c, 0, 75, 0
2, 11505, Note_on_c, 0, 79, 0
2, 11511, Control_c, 0, 64, 127
2, 11515, Note_on_c, 0, 43, 0
2, 11518, Note_on_c, 0, 75, 57
2, 11518, Note_on_c, 0, 77, 57
2, 11518, Note_on_c, 0, 36, 50
2, 11519, Note_on_c, 0, 69, 66
2, 11520, Note_on_c, 0, 81, 73
2, 11548, Note_on_c, 0, 41, 55
2, 11559, Note_on_c, 0, 36, 0
2, 11579, Note_on_c, 0, 41, 0
2, 11581, Note_on_c, 0, 48, 57
2, 11610, Note_on_c, 0, 50, 62
2, 11614, Note_on_c, 0, 48, 0
2, 11641, Note_on_c, 0, 50, 0
2, 11641, Note_on_c, 0, 51, 64
2, 11651, Control_c, 0, 64, 0
2, 11668, Note_on_c, 0, 50, 63
2, 11671, Note_on_c, 0, 51, 0
2, 11698, Note_on_c, 0, 50, 0
2, 11702, Note_on_c, 0, 48, 56
2, 11728, Note_on_c, 0, 41, 52
2, 11737, Note_on_c, 0, 48, 0
2, 11759, Note_on_c, 0, 41, 0
2, 11762, Note_on_c, 0, 36, 52
2, 11766, Control_c, 0, 64, 127
2, 11791, Note_on_c, 0, 41, 55
2, 11799, Note_on_c, 0, 36, 0
2, 11820, Note_on_c, 0, 41, 0
2, 11822, Note_on_c, 0, 48, 58
2, 11848, Note_on_c, 0, 50, 61
2, 11854, Note_on_c, 0, 48, 0
2, 11880, Note_on_c, 0, 51, 63
2, 11881, Note_on_c, 0, 50, 0
2, 11897, Control_c, 0, 64, 0
2, 11898, Note_on_c, 0, 77, 0
2, 11899, Note_on_c, 0, 69, 0
2, 11902, Note_on_c, 0, 75, 0
2, 11903, Note_on_c, 0, 81, 0
2, 11908, Note_on_c, 0, 50, 63
2, 11913, Note_on_c, 0, 51, 0
2, 11938, Note_on_c, 0, 50, 0
2, 11941, Note_on_c, 0, 48, 57
2, 11967, Note_on_c, 0, 41, 56
2, 11973, Note_on_c, 0, 48, 0
2, 11996, Note_on_c, 0, 41, 0
2, 11998, Note_on_c, 0, 82, 70
2, 12000, Note_on_c, 0, 77, 52
2, 12000, Note_on_c, 0, 70, 59
2, 12002, Note_on_c, 0, 38, 67
2, 12004, Control_c, 0, 64, 127
2, 12033, Note_on_c, 0, 46, 56
2, 12038, Note_on_c, 0, 38, 0
2, 12063, Note_on_c, 0, 47, 54
2, 12066, Note_on_c, 0, 46, 0
2, 12087, Note_on_c, 0, 47, 0
2, 12093, Note_on_c, 0, 46, 54
2, 12123, Note_on_c, 0, 58, 60
2, 12128, Note_on_c, 0, 46, 0
2, 12149, Note_on_c, 0, 58, 0
2, 12153, Note_on_c, 0, 46, 57
2, 12159, Note_on_c, 0, 77, 0
2, 12160, Note_on_c, 0, 70, 0
2, 12162, Note_on_c, 0, 82, 0
2, 12182, Note_on_c, 0, 46, 0
2, 12183, Note_on_c, 0, 47, 58
2, 12188, Note_on_c, 0, 82, 72
2, 12188, Note_on_c, 0, 77, 64
2, 12189, Note_on_c, 0, 70, 67
2, 12213, Note_on_c, 0, 46, 58
2, 12216, Note_on_c, 0, 47, 0
2, 12227, Control_c, 0, 64, 0
2, 12242, Note_on_c, 0, 46, 0
2, 12243, Note_on_c, 0, 39, 69
2, 12247, Control_c, 0, 64, 127
2, 12273, Note_on_c, 0, 46, 61
2, 12275, Note_on_c, 0, 82, 0
2, 12276, Note_on_c, 0, 70, 0
2, 12276, Note_on_c, 0, 77, 0
2, 12280, Note_on_c, 0, 39, 0
2, 12302, Note_on_c, 0, 82, 74
2, 12303, Note_on_c, 0, 47, 59
2, 12304, Note_on_c, 0, 70, 71
2, 12305, Note_on_c, 0, 79, 64
2, 12307, Note_on_c, 0, 46, 0
2, 12326, Note_on_c, 0, 47, 0
2, 12332, Note_on_c, 0, 46, 61
2, 12363, Note_on_c, 0, 58, 63
2, 12368, Note_on_c, 0, 46, 0
2, 12387, Note_on_c, 0, 79, 0
2, 12388, Note_on_c, 0, 70, 0
2, 12389, Note_on_c, 0, 58, 0
2, 12393, Note_on_c, 0, 46, 64
2, 12402, Note_on_c, 0, 82, 0
2, 12422, Note_on_c, 0, 83, 76
2, 12422, Note_on_c, 0, 79, 61
2, 12423, Note_on_c, 0, 71, 74
2, 12423, Note_on_c, 0, 47, 66
2, 12434, Note_on_c, 0, 46, 0
2, 12452, Note_on_c, 0, 46, 67
2, 12453, Note_on_c, 0, 47, 0
2, 12460, Control_c, 0, 64, 0
2, 12482, Note_on_c, 0, 40, 77
2, 12484, Note_on_c, 0, 46, 0
2, 12486, Control_c, 0, 64, 127
2, 12502, Note_on_c, 0, 71, 0
2, 12502, Note_on_c, 0, 83, 0
2, 12511, Note_on_c, 0, 79, 0
2, 12512, Note_on_c, 0, 46, 69
2, 12519, Note_on_c, 0, 40, 0
2, 12542, Note_on_c, 0, 82, 55
2, 12542, Note_on_c, 0, 79, 58
2, 12542, Note_on_c, 0, 72, 78
2, 12542, Note_on_c, 0, 84, 80
2, 12543, Note_on_c, 0, 48, 67
2, 12549, Note_on_c, 0, 46, 0
2, 12567, Note_on_c, 0, 48, 0
2, 12572, Note_on_c, 0, 46, 68
2, 12603, Note_on_c, 0, 58, 62
2, 12605, Note_on_c, 0, 79, 0
2, 12606, Note_on_c, 0, 46, 0
2, 12607, Note_on_c, 0, 84, 0
2, 12615, Note_on_c, 0, 72, 0
2, 12632, Note_on_c, 0, 82, 0
2, 12632, Note_on_c, 0, 58, 0
2, 12633, Note_on_c, 0, 46, 71
2, 12661, Note_on_c, 0, 85, 79
2, 12661, Note_on_c, 0, 73, 79
2, 12661, Note_on_c, 0, 82, 62
2, 12663, Note_on_c, 0, 46, 0
2, 12663, Note_on_c, 0, 48, 70
2, 12683, Control_c, 0, 64, 0
2, 12692, Note_on_c, 0, 48, 0
2, 12692, Note_on_c, 0, 46, 73
2, 12714, Control_c, 0, 64, 127
2, 12723, Note_on_c, 0, 41, 80
2, 12726, Note_on_c, 0, 46, 0
2, 12732, Note_on_c, 0, 82, 0
2, 12735, Note_on_c, 0, 85, 0
2, 12735, Note_on_c, 0, 73, 0
2, 12752, Note_on_c, 0, 46, 73
2, 12757, Note_on_c, 0, 41, 0
2, 12782, Note_on_c, 0, 46, 0
2, 12782, Note_on_c, 0, 82, 54
2, 12782, Note_on_c, 0, 86, 84
2, 12782, Note_on_c, 0, 74, 80
2, 12783, Note_on_c, 0, 58, 65
2, 12813, Note_on_c, 0, 58, 0
2, 12813, Note_on_c, 0, 46, 72
2, 12817, Note_on_c, 0, 86, 0
2, 12818, Note_on_c, 0, 74, 0
2, 12820, Control_c, 0, 64, 0
2, 12823, Note_on_c, 0, 82, 0
2, 12842, Note_on_c, 0, 46, 0
2, 12842, Note_on_c, 0, 87, 87
2, 12842, Note_on_c, 0, 75, 84
2, 12842, Note_on_c, 0, 82, 59
2, 12843, Note_on_c, 0, 42, 83
2, 12844, Control_c, 0, 64, 127
2, 12872, Note_on_c, 0, 46, 76
2, 12873, Note_on_c, 0, 42, 0
2, 12880, Note_on_c, 0, 75, 0
2, 12880, Note_on_c, 0, 87, 0
2, 12887, Note_on_c, 0, 82, 0
2, 12901, Note_on_c, 0, 82, 63
2, 12902, Note_on_c, 0, 76, 83
2, 12902, Note_on_c, 0, 88, 91
2, 12903, Note_on_c, 0, 58, 66
2, 12908, Note_on_c, 0, 46, 0
2, 12921, Note_on_c, 0, 76, 0
2, 12924, Note_on_c, 0, 88, 0
2, 12925, Note_on_c, 0, 82, 0
2, 12927, Control_c, 0, 64, 0
2, 12933, Note_on_c, 0, 46, 78
2, 12935, Note_on_c, 0, 58, 0
2, 12960, Note_on_c, 0, 46, 0
2, 12963, Note_on_c, 0, 77, 86
2, 12963, Note_on_c, 0, 82, 74
2, 12963, Note_on_c, 0, 86, 58
2, 12964, Note_on_c, 0, 89, 93
2, 12964, Control_c, 0, 64, 127
2, 12967, Note_on_c, 0, 41, 79
2, 12994, Note_on_c, 0, 46, 63
2, 12998, Note_on_c, 0, 41, 0
2, 13023, Note_on_c, 0, 46, 0
2, 13024, Note_on_c, 0, 50, 64
2, 13049, Note_on_c, 0, 50, 0
2, 13054, Note_on_c, 0, 53, 63
2, 13079, Note_on_c, 0, 53, 0
2, 13085, Note_on_c, 0, 58, 63
2, 13108, Note_on_c, 0, 58, 0
2, 13112, Note_on_c, 0, 62, 71
2, 13116, Note_on_c, 0, 89, 0
2, 13116, Note_on_c, 0, 86, 0
2, 13117, Note_on_c, 0, 82, 0
2, 13122, Note_on_c, 0, 77, 0
2, 13136, Note_on_c, 0, 62, 0
2, 13142, Note_on_c, 0, 67, 67
2, 13169, Note_on_c, 0, 67, 0
2, 13184, Note_on_c, 0, 65, 67
2, 13198, Note_on_c, 0, 65, 0
2, 13203, Note_on_c, 0, 77, 72
2, 13203, Note_on_c, 0, 86, 93
2, 13203, Note_on_c, 0, 82, 72
2, 13203, Note_on_c, 0, 74, 67
2, 13205, Note_on_c, 0, 65, 77
2, 13234, Note_on_c, 0, 62, 67
2, 13235, Note_on_c, 0, 65, 0
2, 13261, Note_on_c, 0, 62, 0
2, 13263, Note_on_c, 0, 58, 67
2, 13282, Note_on_c, 0, 58, 0
2, 13290, Note_on_c, 0, 55, 65
2, 13294, Note_on_c, 0, 77, 0
2, 13295, Note_on_c, 0, 86, 0
2, 13295, Note_on_c, 0, 82, 0
2, 13296, Note_on_c, 0, 74, 0
2, 13303, Control_c, 0, 64, 0
2, 13305, Note_on_c, 0, 55, 0
2, 13319, Note_on_c, 0, 53, 74
2, 13323, Control_c, 0, 64, 127
2, 13324, Note_on_c, 0, 81, 74
2, 13324, Note_on_c, 0, 75, 74
2, 13324, Note_on_c, 0, 86, 94
2, 13325, Note_on_c, 0, 77, 68
2, 13352, Note_on_c, 0, 51, 62
2, 13357, Note_on_c, 0, 53, 0
2, 13379, Note_on_c, 0, 51, 0
2, 13381, Note_on_c, 0, 48, 63
2, 13406, Note_on_c, 0, 48, 0
2, 13406, Note_on_c, 0, 81, 0
2, 13412, Note_on_c, 0, 84, 81
2, 13413, Note_on_c, 0, 41, 66
2, 13421, Note_on_c, 0, 86, 0
2, 13425, Note_on_c, 0, 41, 0
2, 13427, Note_on_c, 0, 75, 0
2, 13429, Note_on_c, 0, 77, 0
2, 13431, Note_on_c, 0, 84, 0
2, 13433, Control_c, 0, 64, 0
2, 13441, Note_on_c, 0, 34, 81
2, 13444, Note_on_c, 0, 82, 95
2, 13444, Note_on_c, 0, 77, 73
2, 13445, Note_on_c, 0, 74, 71
2, 13449, Note_on_c, 0, 34, 0
2, 13456, Control_c, 0, 64, 127
2, 13471, Note_on_c, 0, 49, 73
2, 13503, Note_on_c, 0, 74, 0
2, 13503, Note_on_c, 0, 48, 71
2, 13505, Note_on_c, 0, 82, 0
2, 13508, Note_on_c, 0, 77, 0
2, 13513, Note_on_c, 0, 49, 0
2, 13535, Note_on_c, 0, 47, 69
2, 13542, Note_on_c, 0, 48, 0
2, 13568, Control_c, 0, 64, 0
2, 13569, Note_on_c, 0, 46, 68
2, 13571, Note_on_c, 0, 47, 0
2, 13595, Note_on_c, 0, 48, 67
2, 13597, Note_on_c, 0, 46, 0
2, 13626, Note_on_c, 0, 47, 66
2, 13635, Note_on_c, 0, 48, 0
2, 13655, Note_on_c, 0, 46, 66
2, 13663, Note_on_c, 0, 47, 0
2, 13689, Note_on_c, 0, 45, 64
2, 13696, Note_on_c, 0, 46, 0
2, 13717, Note_on_c, 0, 45, 0
2, 13718, Note_on_c, 0, 47, 60
2, 13746, Note_on_c, 0, 46, 58
2, 13757, Note_on_c, 0, 47, 0
2, 13775, Note_on_c, 0, 45, 60
2, 13787, Note_on_c, 0, 46, 0
2, 13805, Note_on_c, 0, 45, 0
2, 13805, Note_on_c, 0, 44, 60
2, 13835, Note_on_c, 0, 46, 61
2, 13836, Note_on_c, 0, 44, 0
2, 13864, Note_on_c, 0, 45, 63
2, 13871, Note_on_c, 0, 46, 0
2, 13894, Note_on_c, 0, 44, 60
2, 13900, Note_on_c, 0, 45, 0
2, 13914, Note_on_c, 0, 44, 0
2, 13917, Control_c, 0, 64, 127
2, 13924, Note_on_c, 0, 83, 95
2, 13924, Note_on_c, 0, 75, 72
2, 13925, Note_on_c, 0, 80, 73
2, 13925, Note_on_c, 0, 71, 86
2, 13925, Note_on_c, 0, 32, 78
2, 13957, Note_on_c, 0, 32, 0
2, 13988, Note_on_c, 0, 43, 69
2, 14015, Note_on_c, 0, 44, 69
2, 14023, Note_on_c, 0, 43, 0
2, 14047, Note_on_c, 0, 47, 68
2, 14051, Note_on_c, 0, 44, 0
2, 14075, Note_on_c, 0, 51, 69
2, 14077, Note_on_c, 0, 47, 0
2, 14096, Control_c, 0, 64, 0
2, 14103, Note_on_c, 0, 46, 70
2, 14107, Note_on_c, 0, 51, 0
2, 14133, Note_on_c, 0, 47, 69
2, 14146, Note_on_c, 0, 46, 0
2, 14150, Control_c, 0, 64, 127
2, 14162, Note_on_c, 0, 51, 66
2, 14164, Note_on_c, 0, 47, 0
2, 14170, Note_on_c, 0, 80, 0
2, 14170, Note_on_c, 0, 71, 0
2, 14171, Note_on_c, 0, 83, 0
2, 14171, Note_on_c, 0, 75, 0
2, 14191, Note_on_c, 0, 56, 69
2, 14195, Note_on_c, 0, 51, 0
2, 14220, Note_on_c, 0, 56, 0
2, 14226, Note_on_c, 0, 50, 66
2, 14249, Note_on_c, 0, 51, 64
2, 14258, Note_on_c, 0, 50, 0
2, 14281, Note_on_c, 0, 56, 60
2, 14284, Note_on_c, 0, 75, 80
2, 14284, Note_on_c, 0, 71, 71
2, 14285, Note_on_c, 0, 51, 0
2, 14285, Note_on_c, 0, 63, 78
2, 14286, Note_on_c, 0, 68, 68
2, 14306, Note_on_c, 0, 59, 60
2, 14312, Note_on_c, 0, 56, 0
2, 14335, Note_on_c, 0, 55, 57
2, 14341, Note_on_c, 0, 63, 0
2, 14345, Note_on_c, 0, 59, 0
2, 14346, Note_on_c, 0, 68, 0
2, 14346, Note_on_c, 0, 71, 0
2, 14346, Note_on_c, 0, 75, 0
2, 14367, Control_c, 0, 64, 0
2, 14368, Note_on_c, 0, 56, 56
2, 14369, Note_on_c, 0, 77, 83
2, 14369, Note_on_c, 0, 65, 79
2, 14372, Note_on_c, 0, 55, 0
2, 14377, Note_on_c, 0, 56, 0
2, 14381, Note_on_c, 0, 65, 0
2, 14382, Note_on_c, 0, 77, 0
2, 14393, Control_c, 0, 64, 127
2, 14399, Note_on_c, 0, 66, 83
2, 14399, Note_on_c, 0, 39, 64
2, 14400, Note_on_c, 0, 78, 81
2, 14401, Note_on_c, 0, 75, 76
2, 14402, Note_on_c, 0, 70, 70
2, 14409, Note_on_c, 0, 39, 0
2, 14432, Note_on_c, 0, 63, 65
2, 14460, Note_on_c, 0, 53, 65
2, 14462, Note_on_c, 0, 63, 0
2, 14489, Note_on_c, 0, 54, 65
2, 14500, Note_on_c, 0, 53, 0
2, 14522, Note_on_c, 0, 58, 66
2, 14525, Note_on_c, 0, 54, 0
2, 14552, Note_on_c, 0, 58, 0
2, 14552, Note_on_c, 0, 63, 64
2, 14577, Note_on_c, 0, 63, 0
2, 14583, Note_on_c, 0, 50, 63
2, 14592, Control_c, 0, 64, 0
2, 14610, Note_on_c, 0, 51, 64
2, 14621, Note_on_c, 0, 50, 0
2, 14643, Control_c, 0, 64, 127
2, 14645, Note_on_c, 0, 54, 64
2, 14648, Note_on_c, 0, 51, 0
2, 14674, Note_on_c, 0, 58, 64
2, 14676, Note_on_c, 0, 54, 0
2, 14703, Note_on_c, 0, 58, 0
2, 14704, Note_on_c, 0, 75, 0
2, 14704, Note_on_c, 0, 45, 63
2, 14705, Note_on_c, 0, 70, 0
2, 14706, Note_on_c, 0, 66, 0
2, 14707, Note_on_c, 0, 78, 0
2, 14731, Note_on_c, 0, 46, 61
2, 14745, Note_on_c, 0, 45, 0
2, 14762, Note_on_c, 0, 78, 83
2, 14763, Note_on_c, 0, 66, 83
2, 14765, Note_on_c, 0, 51, 62
2, 14769, Note_on_c, 0, 46, 0
2, 14787, Control_c, 0, 64, 0
2, 14796, Note_on_c, 0, 51, 0
2, 14796, Note_on_c, 0, 54, 64
2, 14820, Note_on_c, 0, 41, 67
2, 14824, Note_on_c, 0, 54, 0
2, 14837, Note_on_c, 0, 66, 0
2, 14849, Note_on_c, 0, 42, 71
2, 14851, Note_on_c, 0, 41, 0
2, 14852, Note_on_c, 0, 80, 83
2, 14852, Note_on_c, 0, 68, 72
2, 14864, Note_on_c, 0, 78, 0
2, 14866, Note_on_c, 0, 68, 0
2, 14867, Note_on_c, 0, 80, 0
2, 14873, Note_on_c, 0, 42, 0
2, 14878, Control_c, 0, 64, 127
2, 14879, Note_on_c, 0, 78, 74
2, 14880, Note_on_c, 0, 73, 60
2, 14881, Note_on_c, 0, 69, 90
2, 14881, Note_on_c, 0, 81, 92
2, 14883, Note_on_c, 0, 30, 79
2, 14906, Note_on_c, 0, 30, 0
2, 14941, Note_on_c, 0, 41, 77
2, 14972, Note_on_c, 0, 42, 78
2, 14979, Note_on_c, 0, 41, 0
2, 15003, Note_on_c, 0, 45, 81
2, 15006, Note_on_c, 0, 42, 0
2, 15030, Control_c, 0, 64, 0
2, 15032, Note_on_c, 0, 49, 79
2, 15038, Note_on_c, 0, 45, 0
2, 15062, Note_on_c, 0, 44, 81
2, 15067, Note_on_c, 0, 49, 0
2, 15094, Note_on_c, 0, 45, 77
2, 15103, Note_on_c, 0, 44, 0
2, 15114, Control_c, 0, 64, 127
2, 15121, Note_on_c, 0, 78, 0
2, 15121, Note_on_c, 0, 69, 0
2, 15121, Note_on_c, 0, 73, 0
2, 15122, Note_on_c, 0, 81, 0
2, 15123, Note_on_c, 0, 49, 77
2, 15124, Note_on_c, 0, 45, 0
2, 15154, Note_on_c, 0, 54, 78
2, 15157, Note_on_c, 0, 49, 0
2, 15184, Note_on_c, 0, 54, 0
2, 15185, Note_on_c, 0, 48, 79
2, 15210, Note_on_c, 0, 49, 75
2, 15226, Note_on_c, 0, 48, 0
2, 15241, Note_on_c, 0, 73, 94
2, 15242, Note_on_c, 0, 61, 87
2, 15242, Note_on_c, 0, 66, 66
2, 15243, Note_on_c, 0, 69, 73
2, 15243, Note_on_c, 0, 54, 72
2, 15247, Note_on_c, 0, 49, 0
2, 15259, Control_c, 0, 64, 0
2, 15269, Note_on_c, 0, 57, 72
2, 15275, Note_on_c, 0, 54, 0
2, 15302, Note_on_c, 0, 53, 68
2, 15309, Note_on_c, 0, 61, 0
2, 15313, Note_on_c, 0, 57, 0
2, 15318, Note_on_c, 0, 66, 0
2, 15319, Note_on_c, 0, 69, 0
2, 15321, Note_on_c, 0, 73, 0
2, 15329, Note_on_c, 0, 63, 62
2, 15329, Note_on_c, 0, 75, 87
2, 15332, Note_on_c, 0, 54, 66
2, 15339, Note_on_c, 0, 53, 0
2, 15345, Note_on_c, 0, 54, 0
2, 15347, Note_on_c, 0, 75, 0
2, 15347, Note_on_c, 0, 63, 0
2, 15359, Note_on_c, 0, 76, 83
2, 15359, Control_c, 0, 64, 127
2, 15360, Note_on_c, 0, 73, 74
2, 15362, Note_on_c, 0, 68, 69
2, 15362, Note_on_c, 0, 37, 79
2, 15363, Note_on_c, 0, 64, 65
2, 15372, Note_on_c, 0, 37, 0
2, 15391, Note_on_c, 0, 61, 71
2, 15421, Note_on_c, 0, 51, 72
2, 15427, Note_on_c, 0, 61, 0
2, 15453, Note_on_c, 0, 52, 71
2, 15467, Note_on_c, 0, 51, 0
2, 15485, Note_on_c, 0, 56, 72
2, 15488, Note_on_c, 0, 52, 0
2, 15511, Control_c, 0, 64, 0
2, 15515, Note_on_c, 0, 61, 74
2, 15518, Note_on_c, 0, 56, 0
2, 15546, Note_on_c, 0, 61, 0
2, 15547, Note_on_c, 0, 48, 71
2, 15572, Note_on_c, 0, 49, 71
2, 15592, Note_on_c, 0, 48, 0
2, 15598, Control_c, 0, 64, 127
2, 15606, Note_on_c, 0, 52, 70
2, 15612, Note_on_c, 0, 49, 0
2, 15636, Note_on_c, 0, 56, 68
2, 15637, Note_on_c, 0, 52, 0
2, 15668, Note_on_c, 0, 56, 0
2, 15670, Note_on_c, 0, 43, 72
2, 15671, Note_on_c, 0, 68, 0
2, 15671, Note_on_c, 0, 64, 0
2, 15671, Note_on_c, 0, 76, 0
2, 15672, Note_on_c, 0, 73, 0
2, 15694, Note_on_c, 0, 44, 71
2, 15707, Note_on_c, 0, 43, 0
2, 15721, Note_on_c, 0, 64, 83
2, 15722, Note_on_c, 0, 76, 84
2, 15723, Note_on_c, 0, 49, 73
2, 15732, Note_on_c, 0, 44, 0
2, 15745, Control_c, 0, 64, 0
2, 15754, Note_on_c, 0, 49, 0
2, 15754, Note_on_c, 0, 52, 72
2, 15776, Note_on_c, 0, 52, 0
2, 15781, Note_on_c, 0, 76, 0
2, 15782, Note_on_c, 0, 64, 0
2, 15783, Note_on_c, 0, 39, 72
2, 15808, Note_on_c, 0, 66, 73
2, 15809, Note_on_c, 0, 78, 87
2, 15814, Note_on_c, 0, 40, 75
2, 15817, Note_on_c, 0, 39, 0
2, 15820, Note_on_c, 0, 66, 0
2, 15824, Note_on_c, 0, 78, 0
2, 15839, Note_on_c, 0, 80, 89
2, 15839, Note_on_c, 0, 68, 89
2, 15840, Note_on_c, 0, 75, 75
2, 15841, Control_c, 0, 64, 127
2, 15842, Note_on_c, 0, 78, 41
2, 15842, Note_on_c, 0, 36, 77
2, 15848, Note_on_c, 0, 40, 0
2, 15852, Note_on_c, 0, 36, 0
2, 15874, Note_on_c, 0, 63, 66
2, 15902, Note_on_c, 0, 63, 0
2, 15902, Note_on_c, 0, 55, 68
2, 15932, Note_on_c, 0, 56, 71
2, 15936, Note_on_c, 0, 55, 0
2, 15959, Note_on_c, 0, 56, 0
2, 15962, Note_on_c, 0, 57, 69
2, 15993, Note_on_c, 0, 56, 70
2, 15997, Note_on_c, 0, 57, 0
2, 16021, Note_on_c, 0, 56, 0
2, 16022, Note_on_c, 0, 54, 72
2, 16050, Note_on_c, 0, 54, 0
2, 16053, Note_on_c, 0, 52, 67
2, 16071, Note_on_c, 0, 75, 0
2, 16072, Note_on_c, 0, 78, 0
2, 16073, Note_on_c, 0, 80, 0
2, 16073, Note_on_c, 0, 68, 0
2, 16081, Control_c, 0, 64, 0
2, 16082, Note_on_c, 0, 51, 66
2, 16092, Note_on_c, 0, 52, 0
2, 16114, Note_on_c, 0, 51, 0
2, 16115, Note_on_c, 0, 49, 70
2, 16143, Note_on_c, 0, 49, 0
2, 16147, Note_on_c, 0, 48, 73
2, 16176, Note_on_c, 0, 45, 73
2, 16181, Note_on_c, 0, 48, 0
2, 16203, Note_on_c, 0, 43, 73
2, 16204, Note_on_c, 0, 80, 88
2, 16205, Note_on_c, 0, 68, 76
2, 16206, Note_on_c, 0, 45, 0
2, 16206, Note_on_c, 0, 78, 66
2, 16206, Note_on_c, 0, 75, 75
2, 16236, Note_on_c, 0, 43, 0
2, 16240, Note_on_c, 0, 44, 75
2, 16268, Note_on_c, 0, 39, 77
2, 16272, Note_on_c, 0, 44, 0
2, 16275, Note_on_c, 0, 68, 0
2, 16281, Note_on_c, 0, 75, 0
2, 16282, Note_on_c, 0, 80, 0
2, 16283, Note_on_c, 0, 78, 0
2, 16295, Note_on_c, 0, 39, 0
2, 16295, Note_on_c, 0, 70, 67
2, 16296, Note_on_c, 0, 82, 83
2, 16297, Note_on_c, 0, 44, 81
2, 16314, Note_on_c, 0, 82, 0
2, 16314, Note_on_c, 0, 70, 0
2, 16319, Control_c, 0, 64, 127
2, 16322, Note_on_c, 0, 71, 73
2, 16322, Note_on_c, 0, 83, 85
2, 16323, Note_on_c, 0, 77, 72
2, 16323, Note_on_c, 0, 38, 84
2, 16324, Note_on_c, 0, 80, 77
2, 16325, Note_on_c, 0, 44, 0
2, 16332, Note_on_c, 0, 38, 0
2, 16355, Note_on_c, 0, 65, 73
2, 16381, Note_on_c, 0, 65, 0
2, 16382, Note_on_c, 0, 57, 75
2, 16399, Note_on_c, 0, 71, 0
2, 16405, Note_on_c, 0, 77, 0
2, 16407, Note_on_c, 0, 80, 0
2, 16413, Note_on_c, 0, 58, 76
2, 16415, Note_on_c, 0, 57, 0
2, 16417, Note_on_c, 0, 83, 0
2, 16428, Control_c, 0, 64, 0
2, 16441, Note_on_c, 0, 58, 0
2, 16443, Note_on_c, 0, 59, 76
2, 16444, Note_on_c, 0, 82, 84
2, 16445, Note_on_c, 0, 80, 71
2, 16446, Note_on_c, 0, 70, 72
2, 16446, Note_on_c, 0, 77, 64
2, 16450, Control_c, 0, 64, 127
2, 16471, Note_on_c, 0, 58, 76
2, 16472, Note_on_c, 0, 59, 0
2, 16501, Note_on_c, 0, 56, 77
2, 16503, Note_on_c, 0, 58, 0
2, 16530, Note_on_c, 0, 54, 79
2, 16532, Note_on_c, 0, 56, 0
2, 16558, Note_on_c, 0, 54, 0
2, 16561, Note_on_c, 0, 53, 81
2, 16576, Control_c, 0, 64, 0
2, 16588, Note_on_c, 0, 51, 83
2, 16599, Note_on_c, 0, 53, 0
2, 16600, Note_on_c, 0, 70, 0
2, 16600, Note_on_c, 0, 77, 0
2, 16600, Note_on_c, 0, 82, 0
2, 16603, Note_on_c, 0, 80, 0
2, 16615, Note_on_c, 0, 51, 0
2, 16621, Note_on_c, 0, 49, 83
2, 16650, Note_on_c, 0, 49, 0
2, 16651, Note_on_c, 0, 47, 82
2, 16680, Note_on_c, 0, 70, 82
2, 16681, Note_on_c, 0, 82, 84
2, 16681, Note_on_c, 0, 80, 74
2, 16682, Note_on_c, 0, 77, 65
2, 16682, Note_on_c, 0, 45, 83
2, 16693, Note_on_c, 0, 47, 0
2, 16713, Note_on_c, 0, 46, 84
2, 16715, Note_on_c, 0, 45, 0
2, 16741, Note_on_c, 0, 41, 86
2, 16744, Note_on_c, 0, 46, 0
2, 16749, Note_on_c, 0, 70, 0
2, 16757, Note_on_c, 0, 77, 0
2, 16768, Note_on_c, 0, 72, 81
2, 16770, Note_on_c, 0, 41, 0
2, 16770, Note_on_c, 0, 84, 85
2, 16772, Note_on_c, 0, 80, 0
2, 16772, Note_on_c, 0, 46, 88
2, 16774, Note_on_c, 0, 82, 0
2, 16781, Note_on_c, 0, 72, 0
2, 16797, Control_c, 0, 64, 127
2, 16801, Note_on_c, 0, 85, 88
2, 16802, Note_on_c, 0, 73, 86
2, 16802, Note_on_c, 0, 40, 91
2, 16803, Note_on_c, 0, 79, 73
2, 16805, Note_on_c, 0, 84, 0
2, 16805, Note_on_c, 0, 46, 0
2, 16805, Note_on_c, 0, 82, 66
2, 16812, Note_on_c, 0, 40, 0
2, 16834, Note_on_c, 0, 67, 81
2, 16864, Note_on_c, 0, 67, 0
2, 16865, Note_on_c, 0, 59, 82
2, 16894, Note_on_c, 0, 60, 83
2, 16896, Note_on_c, 0, 85, 0
2, 16897, Note_on_c, 0, 59, 0
2, 16897, Note_on_c, 0, 79, 0
2, 16900, Control_c, 0, 64, 0
2, 16907, Note_on_c, 0, 73, 0
2, 16909, Note_on_c, 0, 82, 0
2, 16923, Note_on_c, 0, 82, 58
2, 16923, Note_on_c, 0, 79, 80
2, 16924, Note_on_c, 0, 72, 85
2, 16925, Note_on_c, 0, 84, 87
2, 16926, Note_on_c, 0, 60, 0
2, 16926, Note_on_c, 0, 61, 83
2, 16932, Control_c, 0, 64, 127
2, 16954, Note_on_c, 0, 61, 0
2, 16955, Note_on_c, 0, 60, 83
2, 16984, Note_on_c, 0, 58, 83
2, 16988, Note_on_c, 0, 60, 0
2, 17012, Note_on_c, 0, 56, 84
2, 17013, Note_on_c, 0, 58, 0
2, 17027, Note_on_c, 0, 79, 0
2, 17029, Note_on_c, 0, 72, 0
2, 17029, Note_on_c, 0, 82, 0
2, 17031, Note_on_c, 0, 84, 0
2, 17041, Note_on_c, 0, 56, 0
2, 17044, Note_on_c, 0, 55, 81
2, 17076, Note_on_c, 0, 53, 78
2, 17095, Note_on_c, 0, 55, 0
2, 17107, Note_on_c, 0, 52, 77
2, 17112, Note_on_c, 0, 53, 0
2, 17137, Note_on_c, 0, 55, 78
2, 17138, Note_on_c, 0, 52, 0
2, 17168, Note_on_c, 0, 53, 76
2, 17174, Note_on_c, 0, 55, 0
2, 17196, Note_on_c, 0, 52, 76
2, 17197, Note_on_c, 0, 53, 0
2, 17228, Note_on_c, 0, 49, 73
2, 17229, Note_on_c, 0, 52, 0
2, 17249, Control_c, 0, 64, 0
2, 17255, Note_on_c, 0, 49, 0
2, 17256, Note_on_c, 0, 48, 72
2, 17287, Note_on_c, 0, 47, 65
2, 17292, Note_on_c, 0, 48, 0
2, 17292, Control_c, 0, 64, 127
2, 17319, Note_on_c, 0, 48, 67
2, 17321, Note_on_c, 0, 47, 0
2, 17351, Note_on_c, 0, 49, 70
2, 17354, Note_on_c, 0, 48, 0
2, 17378, Note_on_c, 0, 49, 0
2, 17378, Note_on_c, 0, 48, 71
2, 17407, Note_on_c, 0, 46, 72
2, 17412, Note_on_c, 0, 48, 0
2, 17416, Control_c, 0, 64, 0
2, 17435, Note_on_c, 0, 44, 74
2, 17440, Note_on_c, 0, 46, 0
2, 17464, Note_on_c, 0, 44, 0
2, 17466, Note_on_c, 0, 43, 79
2, 17494, Note_on_c, 0, 41, 79
2, 17501, Note_on_c, 0, 43, 0
2, 17524, Note_on_c, 0, 40, 80
2, 17526, Note_on_c, 0, 41, 0
2, 17554, Note_on_c, 0, 37, 83
2, 17555, Note_on_c, 0, 40, 0
2, 17583, Note_on_c, 0, 37, 0
2, 17586, Note_on_c, 0, 36, 83
2, 17617, Note_on_c, 0, 35, 85
2, 17621, Note_on_c, 0, 36, 0
2, 17648, Note_on_c, 0, 36, 88
2, 17649, Note_on_c, 0, 35, 0
2, 17680, Note_on_c, 0, 34, 89
2, 17687, Note_on_c, 0, 36, 0
2, 17705, Note_on_c, 0, 32, 89
2, 17712, Note_on_c, 0, 34, 0
2, 17734, Note_on_c, 0, 31, 90
2, 17740, Note_on_c, 0, 32, 0
2, 17763, Note_on_c, 0, 29, 94
2, 17764, Note_on_c, 0, 31, 0
2, 17764, Note_on_c, 0, 92, 98
2, 17766, Note_on_c, 0, 84, 81
2, 17766, Note_on_c, 0, 89, 84
2, 17767, Note_on_c, 0, 80, 98
2, 17775, Control_c, 0, 64, 127
2, 17793, Note_on_c, 0, 36, 74
2, 17797, Note_on_c, 0, 29, 0
2, 17823, Note_on_c, 0, 36, 0
2, 17826, Note_on_c, 0, 41, 70
2, 17853, Note_on_c, 0, 43, 70
2, 17856, Note_on_c, 0, 41, 0
2, 17881, Note_on_c, 0, 44, 68
2, 17885, Note_on_c, 0, 43, 0
2, 17909, Note_on_c, 0, 44, 0
2, 17912, Note_on_c, 0, 48, 69
2, 17938, Note_on_c, 0, 48, 0
2, 17941, Note_on_c, 0, 53, 68
2, 17943, Note_on_c, 0, 92, 0
2, 17944, Note_on_c, 0, 89, 0
2, 17944, Note_on_c, 0, 84, 0
2, 17947, Note_on_c, 0, 80, 0
2, 17971, Note_on_c, 0, 55, 70
2, 17974, Note_on_c, 0, 53, 0
2, 17997, Note_on_c, 0, 56, 74
2, 18002, Note_on_c, 0, 55, 0
2, 18002, Note_on_c, 0, 84, 82
2, 18003, Note_on_c, 0, 89, 93
2, 18003, Note_on_c, 0, 77, 90
2, 18027, Note_on_c, 0, 56, 0
2, 18028, Note_on_c, 0, 60, 71
2, 18056, Note_on_c, 0, 60, 0
2, 18060, Note_on_c, 0, 65, 73
2, 18069, Note_on_c, 0, 89, 0
2, 18071, Note_on_c, 0, 84, 0
2, 18074, Note_on_c, 0, 77, 0
2, 18090, Note_on_c, 0, 67, 74
2, 18095, Note_on_c, 0, 65, 0
2, 18119, Note_on_c, 0, 77, 81
2, 18120, Note_on_c, 0, 84, 98
2, 18120, Note_on_c, 0, 72, 92
2, 18120, Note_on_c, 0, 68, 84
2, 18121, Note_on_c, 0, 67, 0
2, 18150, Note_on_c, 0, 67, 75
2, 18151, Note_on_c, 0, 68, 0
2, 18179, Note_on_c, 0, 67, 0
2, 18181, Note_on_c, 0, 65, 74
2, 18184, Note_on_c, 0, 77, 0
2, 18185, Note_on_c, 0, 72, 0
2, 18186, Note_on_c, 0, 84, 0
2, 18210, Note_on_c, 0, 60, 76
2, 18215, Control_c, 0, 64, 0
2, 18217, Note_on_c, 0, 65, 0
2, 18239, Note_on_c, 0, 61, 88
2, 18240, Note_on_c, 0, 60, 0
2, 18241, Note_on_c, 0, 70, 95
2, 18241, Note_on_c, 0, 82, 97
2, 18243, Note_on_c, 0, 77, 82
2, 18255, Control_c, 0, 64, 127
2, 18269, Note_on_c, 0, 61, 0
2, 18270, Note_on_c, 0, 65, 82
2, 18301, Note_on_c, 0, 61, 81
2, 18307, Note_on_c, 0, 65, 0
2, 18332, Note_on_c, 0, 56, 78
2, 18335, Note_on_c, 0, 61, 0
2, 18349, Note_on_c, 0, 56, 0
2, 18360, Note_on_c, 0, 53, 73
2, 18392, Note_on_c, 0, 49, 72
2, 18407, Note_on_c, 0, 53, 0
2, 18421, Note_on_c, 0, 44, 69
2, 18427, Note_on_c, 0, 49, 0
2, 18448, Note_on_c, 0, 44, 0
2, 18453, Note_on_c, 0, 70, 0
2, 18453, Note_on_c, 0, 41, 66
2, 18475, Note_on_c, 0, 41, 0
2, 18481, Note_on_c, 0, 68, 92
2, 18482, Note_on_c, 0, 80, 96
2, 18483, Note_on_c, 0, 37, 66
2, 18491, Note_on_c, 0, 82, 0
2, 18515, Note_on_c, 0, 32, 70
2, 18519, Note_on_c, 0, 37, 0
2, 18547, Note_on_c, 0, 37, 72
2, 18554, Note_on_c, 0, 32, 0
2, 18575, Note_on_c, 0, 37, 0
2, 18576, Note_on_c, 0, 41, 76
2, 18578, Note_on_c, 0, 80, 0
2, 18578, Note_on_c, 0, 68, 0
2, 18583, Note_on_c, 0, 77, 0
2, 18606, Note_on_c, 0, 37, 76
2, 18610, Note_on_c, 0, 41, 0
2, 18619, Control_c, 0, 64, 0
2, 18634, Note_on_c, 0, 32, 80
2, 18636, Note_on_c, 0, 37, 0
2, 18665, Note_on_c, 0, 37, 82
2, 18672, Note_on_c, 0, 32, 0
2, 18694, Note_on_c, 0, 41, 83
2, 18695, Note_on_c, 0, 37, 0
2, 18720, Note_on_c, 0, 89, 84
2, 18721, Note_on_c, 0, 41, 0
2, 18721, Note_on_c, 0, 84, 81
2, 18722, Note_on_c, 0, 80, 94
2, 18722, Note_on_c, 0, 92, 98
2, 18724, Note_on_c, 0, 29, 90
2, 18737, Control_c, 0, 64, 127
2, 18755, Note_on_c, 0, 36, 78
2, 18759, Note_on_c, 0, 29, 0
2, 18783, Note_on_c, 0, 36, 0
2, 18785, Note_on_c, 0, 41, 78
2, 18813, Note_on_c, 0, 43, 80
2, 18815, Note_on_c, 0, 41, 0
2, 18842, Note_on_c, 0, 44, 80
2, 18846, Note_on_c, 0, 43, 0
2, 18867, Note_on_c, 0, 89, 0
2, 18868, Note_on_c, 0, 84, 0
2, 18872, Note_on_c, 0, 92, 0
2, 18872, Note_on_c, 0, 48, 82
2, 18873, Note_on_c, 0, 44, 0
2, 18878, Note_on_c, 0, 80, 0
2, 18899, Note_on_c, 0, 48, 0
2, 18900, Note_on_c, 0, 53, 77
2, 18930, Note_on_c, 0, 55, 78
2, 18933, Note_on_c, 0, 53, 0
2, 18959, Note_on_c, 0, 56, 77
2, 18961, Note_on_c, 0, 84, 81
2, 18962, Note_on_c, 0, 55, 0
2, 18962, Note_on_c, 0, 89, 99
2, 18963, Note_on_c, 0, 77, 88
2, 18987, Note_on_c, 0, 56, 0
2, 18987, Note_on_c, 0, 60, 76
2, 19016, Note_on_c, 0, 60, 0
2, 19019, Note_on_c, 0, 65, 78
2, 19021, Note_on_c, 0, 89, 0
2, 19026, Note_on_c, 0, 77, 0
2, 19027, Note_on_c, 0, 84, 0
2, 19049, Note_on_c, 0, 67, 81
2, 19056, Note_on_c, 0, 65, 0
2, 19076, Note_on_c, 0, 84, 96
2, 19077, Note_on_c, 0, 77, 81
2, 19077, Note_on_c, 0, 72, 95
2, 19080, Note_on_c, 0, 68, 89
2, 19083, Note_on_c, 0, 67, 0
2, 19107, Note_on_c, 0, 67, 80
2, 19111, Note_on_c, 0, 68, 0
2, 19137, Note_on_c, 0, 67, 0
2, 19140, Note_on_c, 0, 65, 78
2, 19160, Note_on_c, 0, 84, 0
2, 19162, Note_on_c, 0, 72, 0
2, 19162, Note_on_c, 0, 77, 0
2, 19165, Note_on_c, 0, 60, 77
2, 19167, Control_c, 0, 64, 0
2, 19173, Note_on_c, 0, 65, 0
2, 19196, Note_on_c, 0, 84, 95
2, 19197, Note_on_c, 0, 77, 84
2, 19197, Note_on_c, 0, 72, 95
2, 19199, Note_on_c, 0, 62, 87
2, 19202, Note_on_c, 0, 60, 0
2, 19210, Control_c, 0, 64, 127
2, 19228, Note_on_c, 0, 62, 0
2, 19229, Note_on_c, 0, 65, 80
2, 19260, Note_on_c, 0, 62, 78
2, 19263, Note_on_c, 0, 65, 0
2, 19289, Note_on_c, 0, 62, 0
2, 19294, Note_on_c, 0, 60, 77
2, 19319, Note_on_c, 0, 60, 0
2, 19323, Note_on_c, 0, 56, 75
2, 19344, Note_on_c, 0, 56, 0
2, 19350, Note_on_c, 0, 53, 73
2, 19382, Note_on_c, 0, 50, 69
2, 19386, Note_on_c, 0, 53, 0
2, 19411, Note_on_c, 0, 48, 66
2, 19415, Note_on_c, 0, 50, 0
2, 19424, Control_c, 0, 64, 0
2, 19441, Note_on_c, 0, 48, 0
2, 19443, Note_on_c, 0, 44, 64
2, 19462, Note_on_c, 0, 44, 0
2, 19472, Note_on_c, 0, 41, 66
2, 19504, Note_on_c, 0, 38, 69
2, 19512, Note_on_c, 0, 41, 0
2, 19529, Note_on_c, 0, 36, 71
2, 19531, Note_on_c, 0, 38, 0
2, 19538, Note_on_c, 0, 72, 0
2, 19543, Note_on_c, 0, 77, 0
2, 19546, Note_on_c, 0, 84, 0
2, 19546, Control_c, 0, 64, 127
2, 19555, Note_on_c, 0, 36, 0
2, 19563, Note_on_c, 0, 71, 94
2, 19564, Note_on_c, 0, 77, 74
2, 19564, Note_on_c, 0, 32, 73
2, 19565, Note_on_c, 0, 83, 92
2, 19590, Note_on_c, 0, 36, 76
2, 19613, Note_on_c, 0, 32, 0
2, 19619, Note_on_c, 0, 38, 79
2, 19625, Note_on_c, 0, 36, 0
2, 19628, Note_on_c, 0, 71, 0
2, 19640, Note_on_c, 0, 77, 0
2, 19641, Note_on_c, 0, 83, 0
2, 19647, Note_on_c, 0, 84, 91
2, 19648, Note_on_c, 0, 72, 88
2, 19650, Note_on_c, 0, 41, 83
2, 19657, Note_on_c, 0, 38, 0
2, 19664, Control_c, 0, 64, 0
2, 19666, Note_on_c, 0, 72, 0
2, 19667, Note_on_c, 0, 84, 0
2, 19673, Note_on_c, 0, 41, 0
2, 19678, Note_on_c, 0, 77, 75
2, 19679, Note_on_c, 0, 83, 77
2, 19679, Note_on_c, 0, 74, 92
2, 19680, Note_on_c, 0, 86, 97
2, 19681, Note_on_c, 0, 31, 89
2, 19682, Note_on_c, 0, 43, 89
2, 19686, Control_c, 0, 64, 127
2, 19703, Note_on_c, 0, 43, 0
2, 19704, Note_on_c, 0, 31, 0
2, 19741, Note_on_c, 0, 68, 75
2, 19768, Note_on_c, 0, 68, 0
2, 19770, Note_on_c, 0, 67, 75
2, 19798, Note_on_c, 0, 65, 82
2, 19802, Note_on_c, 0, 67, 0
2, 19828, Note_on_c, 0, 62, 70
2, 19829, Note_on_c, 0, 65, 0
2, 19858, Note_on_c, 0, 63, 70
2, 19862, Note_on_c, 0, 62, 0
2, 19886, Note_on_c, 0, 63, 0
2, 19889, Note_on_c, 0, 62, 69
2, 19894, Note_on_c, 0, 77, 0
2, 19894, Note_on_c, 0, 74, 0
2, 19894, Note_on_c, 0, 83, 0
2, 19897, Note_on_c, 0, 86, 0
2, 19917, Note_on_c, 0, 59, 79
2, 19919, Note_on_c, 0, 62, 0
2, 19948, Note_on_c, 0, 55, 74
2, 19952, Note_on_c, 0, 59, 0
2, 19980, Note_on_c, 0, 56, 73
2, 19984, Note_on_c, 0, 55, 0
2, 20009, Note_on_c, 0, 56, 0
2, 20009, Note_on_c, 0, 55, 73
2, 20037, Note_on_c, 0, 53, 81
2, 20045, Note_on_c, 0, 55, 0
2, 20066, Note_on_c, 0, 50, 76
2, 20067, Note_on_c, 0, 53, 0
2, 20097, Note_on_c, 0, 51, 75
2, 20099, Note_on_c, 0, 50, 0
2, 20126, Note_on_c, 0, 51, 0
2, 20129, Note_on_c, 0, 50, 76
2, 20151, Control_c, 0, 64, 0
2, 20156, Note_on_c, 0, 47, 83
2, 20160, Note_on_c, 0, 50, 0
2, 20184, Note_on_c, 0, 47, 0
2, 20185, Note_on_c, 0, 43, 73
2, 20217, Note_on_c, 0, 44, 75
2, 20220, Note_on_c, 0, 43, 0
2, 20245, Note_on_c, 0, 44, 0
2, 20248, Note_on_c, 0, 43, 74
2, 20275, Note_on_c, 0, 41, 82
2, 20283, Note_on_c, 0, 43, 0
2, 20306, Note_on_c, 0, 38, 75
2, 20307, Note_on_c, 0, 41, 0
2, 20338, Note_on_c, 0, 39, 76
2, 20339, Note_on_c, 0, 38, 0
2, 20366, Note_on_c, 0, 39, 0
2, 20369, Note_on_c, 0, 38, 77
2, 20400, Note_on_c, 0, 36, 82
2, 20410, Note_on_c, 0, 38, 0
2, 20432, Note_on_c, 0, 36, 0
2, 20433, Note_on_c, 0, 31, 78
2, 20464, Note_on_c, 0, 36, 76
2, 20470, Note_on_c, 0, 31, 0
2, 20493, Note_on_c, 0, 31, 80
2, 20495, Note_on_c, 0, 36, 0
2, 20517, Control_c, 0, 64, 127
2, 20520, Note_on_c, 0, 75, 77
2, 20521, Note_on_c, 0, 80, 96
2, 20522, Note_on_c, 0, 77, 70
2, 20523, Note_on_c, 0, 68, 93
2, 20525, Note_on_c, 0, 36, 77
2, 20529, Note_on_c, 0, 31, 0
2, 20553, Note_on_c, 0, 31, 77
2, 20554, Note_on_c, 0, 36, 0
2, 20563, Note_on_c, 0, 75, 0
2, 20564, Note_on_c, 0, 77, 0
2, 20564, Note_on_c, 0, 80, 0
2, 20566, Note_on_c, 0, 68, 0
2, 20586, Note_on_c, 0, 36, 78
2, 20590, Note_on_c, 0, 31, 0
2, 20602, Note_on_c, 0, 67, 70
2, 20603, Note_on_c, 0, 79, 91
2, 20612, Note_on_c, 0, 31, 82
2, 20613, Note_on_c, 0, 36, 0
2, 20614, Note_on_c, 0, 67, 0
2, 20618, Note_on_c, 0, 79, 0
2, 20628, Control_c, 0, 64, 0
2, 20647, Note_on_c, 0, 77, 96
2, 20647, Note_on_c, 0, 79, 69
2, 20647, Note_on_c, 0, 86, 85
2, 20647, Note_on_c, 0, 89, 101
2, 20651, Note_on_c, 0, 35, 92
2, 20656, Note_on_c, 0, 31, 0
2, 20656, Control_c, 0, 64, 127
2, 20681, Note_on_c, 0, 35, 0
2, 20711, Note_on_c, 0, 68, 70
2, 20737, Note_on_c, 0, 68, 0
2, 20739, Note_on_c, 0, 67, 72
2, 20766, Note_on_c, 0, 65, 79
2, 20772, Note_on_c, 0, 67, 0
2, 20797, Note_on_c, 0, 62, 68
2, 20799, Note_on_c, 0, 65, 0
2, 20826, Note_on_c, 0, 63, 68
2, 20829, Note_on_c, 0, 62, 0
2, 20854, Note_on_c, 0, 86, 0
2, 20854, Note_on_c, 0, 63, 0
2, 20855, Note_on_c, 0, 62, 70
2, 20856, Note_on_c, 0, 79, 0
2, 20862, Note_on_c, 0, 77, 0
2, 20862, Note_on_c, 0, 89, 0
2, 20886, Note_on_c, 0, 59, 78
2, 20890, Note_on_c, 0, 62, 0
2, 20916, Note_on_c, 0, 55, 73
2, 20919, Note_on_c, 0, 59, 0
2, 20945, Note_on_c, 0, 56, 74
2, 20947, Note_on_c, 0, 55, 0
2, 20972, Note_on_c, 0, 56, 0
2, 20975, Note_on_c, 0, 55, 72
2, 21002, Note_on_c, 0, 53, 80
2, 21011, Note_on_c, 0, 55, 0
2, 21035, Note_on_c, 0, 53, 0
2, 21035, Note_on_c, 0, 50, 72
2, 21065, Note_on_c, 0, 51, 73
2, 21070, Note_on_c, 0, 50, 0
2, 21093, Note_on_c, 0, 51, 0
2, 21095, Note_on_c, 0, 50, 73
2, 21120, Control_c, 0, 64, 0
2, 21123, Note_on_c, 0, 47, 77
2, 21129, Note_on_c, 0, 50, 0
2, 21150, Note_on_c, 0, 43, 71
2, 21152, Note_on_c, 0, 47, 0
2, 21179, Note_on_c, 0, 44, 71
2, 21183, Note_on_c, 0, 43, 0
2, 21207, Note_on_c, 0, 44, 0
2, 21210, Note_on_c, 0, 43, 71
2, 21238, Note_on_c, 0, 41, 77
2, 21247, Note_on_c, 0, 43, 0
2, 21266, Note_on_c, 0, 38, 71
2, 21270, Note_on_c, 0, 41, 0
2, 21299, Note_on_c, 0, 39, 68
2, 21304, Note_on_c, 0, 38, 0
2, 21328, Note_on_c, 0, 39, 0
2, 21331, Note_on_c, 0, 38, 70
2, 21359, Note_on_c, 0, 36, 79
2, 21368, Note_on_c, 0, 38, 0
2, 21388, Note_on_c, 0, 31, 74
2, 21392, Note_on_c, 0, 36, 0
2, 21421, Note_on_c, 0, 36, 76
2, 21425, Note_on_c, 0, 31, 0
2, 21450, Note_on_c, 0, 31, 77
2, 21452, Note_on_c, 0, 36, 0
2, 21478, Control_c, 0, 64, 127
2, 21481, Note_on_c, 0, 36, 72
2, 21483, Note_on_c, 0, 75, 58
2, 21484, Note_on_c, 0, 80, 95
2, 21485, Note_on_c, 0, 31, 0
2, 21485, Note_on_c, 0, 77, 79
2, 21486, Note_on_c, 0, 68, 94
2, 21511, Note_on_c, 0, 31, 72
2, 21513, Note_on_c, 0, 36, 0
2, 21530, Note_on_c, 0, 75, 0
2, 21532, Note_on_c, 0, 68, 0
2, 21533, Note_on_c, 0, 80, 0
2, 21534, Note_on_c, 0, 77, 0
2, 21544, Note_on_c, 0, 36, 70
2, 21547, Note_on_c, 0, 31, 0
2, 21564, Note_on_c, 0, 67, 88
2, 21565, Note_on_c, 0, 79, 90
2, 21571, Note_on_c, 0, 31, 81
2, 21573, Note_on_c, 0, 36, 0
2, 21576, Note_on_c, 0, 67, 0
2, 21579, Note_on_c, 0, 79, 0
2, 21594, Control_c, 0, 64, 0
2, 21605, Note_on_c, 0, 91, 103
2, 21606, Note_on_c, 0, 86, 79
2, 21606, Note_on_c, 0, 77, 74
2, 21606, Note_on_c, 0, 79, 82
2, 21606, Note_on_c, 0, 35, 85
2, 21616, Note_on_c, 0, 31, 0
2, 21628, Control_c, 0, 64, 127
2, 21641, Note_on_c, 0, 35, 0
2, 21646, Note_on_c, 0, 91, 0
2, 21646, Note_on_c, 0, 79, 0
2, 21649, Note_on_c, 0, 77, 0
2, 21650, Note_on_c, 0, 86, 0
2, 21667, Note_on_c, 0, 80, 85
2, 21671, Note_on_c, 0, 92, 79
2, 21692, Note_on_c, 0, 80, 0
2, 21695, Note_on_c, 0, 79, 78
2, 21696, Note_on_c, 0, 91, 80
2, 21704, Note_on_c, 0, 92, 0
2, 21722, Note_on_c, 0, 77, 85
2, 21726, Note_on_c, 0, 79, 0
2, 21728, Note_on_c, 0, 89, 85
2, 21731, Note_on_c, 0, 91, 0
2, 21753, Note_on_c, 0, 74, 78
2, 21756, Note_on_c, 0, 89, 0
2, 21756, Note_on_c, 0, 77, 0
2, 21758, Note_on_c, 0, 86, 82
2, 21785, Note_on_c, 0, 75, 76
2, 21788, Note_on_c, 0, 74, 0
2, 21789, Note_on_c, 0, 87, 81
2, 21795, Note_on_c, 0, 86, 0
2, 21814, Note_on_c, 0, 75, 0
2, 21814, Note_on_c, 0, 86, 79
2, 21816, Note_on_c, 0, 74, 76
2, 21821, Note_on_c, 0, 87, 0
2, 21842, Note_on_c, 0, 71, 86
2, 21846, Note_on_c, 0, 83, 84
2, 21847, Note_on_c, 0, 74, 0
2, 21848, Note_on_c, 0, 86, 0
2, 21870, Note_on_c, 0, 67, 76
2, 21872, Note_on_c, 0, 83, 0
2, 21873, Note_on_c, 0, 71, 0
2, 21875, Note_on_c, 0, 79, 75
2, 21901, Note_on_c, 0, 68, 78
2, 21904, Note_on_c, 0, 67, 0
2, 21905, Note_on_c, 0, 80, 78
2, 21911, Note_on_c, 0, 79, 0
2, 21928, Note_on_c, 0, 68, 0
2, 21931, Note_on_c, 0, 67, 79
2, 21934, Note_on_c, 0, 79, 80
2, 21940, Note_on_c, 0, 80, 0
2, 21958, Note_on_c, 0, 65, 84
2, 21964, Note_on_c, 0, 67, 0
2, 21967, Note_on_c, 0, 77, 85
2, 21968, Note_on_c, 0, 79, 0
2, 21988, Note_on_c, 0, 62, 77
2, 21991, Note_on_c, 0, 65, 0
2, 21992, Note_on_c, 0, 77, 0
2, 21994, Note_on_c, 0, 74, 81
2, 22019, Note_on_c, 0, 63, 78
2, 22023, Note_on_c, 0, 62, 0
2, 22023, Note_on_c, 0, 75, 81
2, 22029, Note_on_c, 0, 74, 0
2, 22045, Note_on_c, 0, 63, 0
2, 22049, Note_on_c, 0, 74, 80
2, 22049, Note_on_c, 0, 62, 75
2, 22056, Note_on_c, 0, 75, 0
2, 22078, Note_on_c, 0, 59, 86
2, 22083, Note_on_c, 0, 62, 0
2, 22084, Note_on_c, 0, 71, 86
2, 22085, Note_on_c, 0, 74, 0
2, 22107, Note_on_c, 0, 55, 79
2, 22108, Note_on_c, 0, 59, 0
2, 22109, Note_on_c, 0, 71, 0
2, 22111, Note_on_c, 0, 67, 77
2, 22139, Note_on_c, 0, 56, 77
2, 22142, Note_on_c, 0, 55, 0
2, 22142, Note_on_c, 0, 68, 78
2, 22148, Note_on_c, 0, 67, 0
2, 22166, Note_on_c, 0, 56, 0
2, 22169, Note_on_c, 0, 67, 78
2, 22170, Note_on_c, 0, 55, 75
2, 22175, Note_on_c, 0, 68, 0
2, 22199, Note_on_c, 0, 53, 86
2, 22205, Note_on_c, 0, 55, 0
2, 22205, Note_on_c, 0, 65, 84
2, 22207, Note_on_c, 0, 67, 0
2, 22227, Note_on_c, 0, 50, 80
2, 22228, Note_on_c, 0, 53, 0
2, 22232, Note_on_c, 0, 65, 0
2, 22234, Note_on_c, 0, 62, 78
2, 22259, Note_on_c, 0, 51, 79
2, 22260, Note_on_c, 0, 50, 0
2, 22265, Note_on_c, 0, 63, 77
2, 22271, Note_on_c, 0, 62, 0
2, 22284, Note_on_c, 0, 51, 0
2, 22288, Note_on_c, 0, 50, 79
2, 22291, Note_on_c, 0, 62, 78
2, 22299, Note_on_c, 0, 63, 0
2, 22318, Control_c, 0, 64, 0
2, 22319, Note_on_c, 0, 47, 86
2, 22322, Note_on_c, 0, 50, 0
2, 22325, Note_on_c, 0, 59, 84
2, 22328, Note_on_c, 0, 62, 0
2, 22349, Note_on_c, 0, 43, 78
2, 22351, Note_on_c, 0, 47, 0
2, 22353, Note_on_c, 0, 59, 0
2, 22354, Note_on_c, 0, 55, 78
2, 22381, Note_on_c, 0, 44, 77
2, 22385, Note_on_c, 0, 43, 0
2, 22387, Note_on_c, 0, 56, 76
2, 22393, Note_on_c, 0, 55, 0
2, 22407, Note_on_c, 0, 44, 0
2, 22410, Note_on_c, 0, 43, 77
2, 22415, Note_on_c, 0, 55, 77
2, 22424, Note_on_c, 0, 56, 0
2, 22439, Note_on_c, 0, 41, 82
2, 22446, Note_on_c, 0, 53, 83
2, 22447, Note_on_c, 0, 43, 0
2, 22450, Note_on_c, 0, 55, 0
2, 22469, Note_on_c, 0, 38, 77
2, 22473, Note_on_c, 0, 41, 0
2, 22473, Note_on_c, 0, 53, 0
2, 22473, Note_on_c, 0, 50, 77
2, 22501, Note_on_c, 0, 39, 76
2, 22503, Note_on_c, 0, 51, 78
2, 22506, Note_on_c, 0, 38, 0
2, 22512, Note_on_c, 0, 50, 0
2, 22524, Note_on_c, 0, 39, 0
2, 22530, Note_on_c, 0, 38, 76
2, 22532, Note_on_c, 0, 50, 77
2, 22543, Note_on_c, 0, 51, 0
2, 22562, Note_on_c, 0, 36, 76
2, 22566, Note_on_c, 0, 48, 82
2, 22569, Note_on_c, 0, 38, 0
2, 22572, Note_on_c, 0, 50, 0
2, 22590, Note_on_c, 0, 35, 76
2, 22595, Note_on_c, 0, 36, 0
2, 22595, Note_on_c, 0, 47, 80
2, 22598, Note_on_c, 0, 48, 0
2, 22617, Note_on_c, 0, 35, 0
2, 22622, Note_on_c, 0, 43, 59
2, 22627, Note_on_c, 0, 55, 61
2, 22629, Note_on_c, 0, 47, 0
2, 22652, Note_on_c, 0, 41, 59
2, 22656, Note_on_c, 0, 53, 59
2, 22659, Note_on_c, 0, 43, 0
2, 22666, Note_on_c, 0, 55, 0
2, 22680, Note_on_c, 0, 39, 59
2, 22683, Note_on_c, 0, 51, 57
2, 22688, Note_on_c, 0, 41, 0
2, 22691, Note_on_c, 0, 53, 0
2, 22712, Note_on_c, 0, 38, 58
2, 22717, Note_on_c, 0, 50, 54
2, 22718, Note_on_c, 0, 51, 0
2, 22719, Note_on_c, 0, 39, 0
2, 22740, Note_on_c, 0, 38, 0
2, 22740, Note_on_c, 0, 39, 60
2, 22746, Note_on_c, 0, 51, 56
2, 22749, Note_on_c, 0, 50, 0
2, 22769, Note_on_c, 0, 38, 61
2, 22774, Note_on_c, 0, 50, 55
2, 22777, Note_on_c, 0, 51, 0
2, 22778, Note_on_c, 0, 39, 0
2, 22800, Note_on_c, 0, 36, 61
2, 22805, Note_on_c, 0, 50, 0
2, 22806, Note_on_c, 0, 48, 56
2, 22817, Note_on_c, 0, 38, 0
2, 22832, Note_on_c, 0, 35, 59
2, 22836, Note_on_c, 0, 36, 0
2, 22836, Note_on_c, 0, 47, 58
2, 22849, Note_on_c, 0, 48, 0
2, 22860, Note_on_c, 0, 35, 0
2, 22862, Note_on_c, 0, 47, 0
2, 22864, Note_on_c, 0, 46, 58
2, 22869, Note_on_c, 0, 58, 56
2, 22890, Note_on_c, 0, 44, 67
2, 22893, Note_on_c, 0, 46, 0
2, 22898, Note_on_c, 0, 56, 58
2, 22911, Note_on_c, 0, 58, 0
2, 22919, Note_on_c, 0, 43, 68
2, 22925, Note_on_c, 0, 44, 0
2, 22925, Note_on_c, 0, 55, 59
2, 22934, Note_on_c, 0, 56, 0
2, 22948, Note_on_c, 0, 41, 70
2, 22954, Note_on_c, 0, 53, 61
2, 22955, Note_on_c, 0, 43, 0
2, 22957, Note_on_c, 0, 55, 0
2, 22975, Note_on_c, 0, 41, 0
2, 22979, Note_on_c, 0, 43, 69
2, 22983, Note_on_c, 0, 55, 63
2, 22985, Note_on_c, 0, 53, 0
2, 23008, Note_on_c, 0, 53, 64
2, 23008, Note_on_c, 0, 41, 70
2, 23014, Note_on_c, 0, 55, 0
2, 23016, Note_on_c, 0, 43, 0
2, 23033, Note_on_c, 0, 39, 70
2, 23039, Note_on_c, 0, 51, 65
2, 23040, Note_on_c, 0, 53, 0
2, 23040, Note_on_c, 0, 41, 0
2, 23065, Note_on_c, 0, 38, 71
2, 23066, Note_on_c, 0, 51, 0
2, 23066, Note_on_c, 0, 50, 66
2, 23074, Note_on_c, 0, 39, 0
2, 23084, Note_on_c, 0, 38, 0
2, 23089, Note_on_c, 0, 50, 0
2, 23097, Note_on_c, 0, 51, 72
2, 23098, Note_on_c, 0, 63, 66
2, 23125, Note_on_c, 0, 51, 0
2, 23127, Note_on_c, 0, 50, 71
2, 23131, Note_on_c, 0, 62, 67
2, 23135, Note_on_c, 0, 63, 0
2, 23158, Note_on_c, 0, 48, 73
2, 23162, Note_on_c, 0, 60, 68
2, 23163, Note_on_c, 0, 50, 0
2, 23167, Note_on_c, 0, 62, 0
2, 23187, Note_on_c, 0, 47, 74
2, 23191, Note_on_c, 0, 59, 69
2, 23193, Note_on_c, 0, 60, 0
2, 23194, Note_on_c, 0, 48, 0
2, 23215, Note_on_c, 0, 47, 0
2, 23218, Note_on_c, 0, 48, 74
2, 23220, Note_on_c, 0, 60, 70
2, 23221, Note_on_c, 0, 59, 0
2, 23247, Note_on_c, 0, 59, 70
2, 23247, Note_on_c, 0, 47, 73
2, 23252, Note_on_c, 0, 60, 0
2, 23254, Note_on_c, 0, 48, 0
2, 23276, Note_on_c, 0, 44, 74
2, 23278, Note_on_c, 0, 56, 71
2, 23281, Note_on_c, 0, 59, 0
2, 23281, Note_on_c, 0, 47, 0
2, 23307, Note_on_c, 0, 43, 73
2, 23308, Note_on_c, 0, 56, 0
2, 23309, Note_on_c, 0, 55, 72
2, 23311, Note_on_c, 0, 44, 0
2, 23337, Note_on_c, 0, 43, 0
2, 23338, Note_on_c, 0, 44, 74
2, 23342, Note_on_c, 0, 56, 74
2, 23346, Note_on_c, 0, 55, 0
2, 23366, Note_on_c, 0, 44, 0
2, 23367, Note_on_c, 0, 43, 74
2, 23370, Note_on_c, 0, 55, 74
2, 23374, Note_on_c, 0, 56, 0
2, 23396, Note_on_c, 0, 41, 75
2, 23397, Note_on_c, 0, 55, 0
2, 23400, Note_on_c, 0, 53, 77
2, 23415, Note_on_c, 0, 43, 0
2, 23426, Note_on_c, 0, 39, 76
2, 23428, Note_on_c, 0, 41, 0
2, 23433, Note_on_c, 0, 51, 80
2, 23442, Note_on_c, 0, 53, 0
2, 23458, Note_on_c, 0, 41, 76
2, 23459, Note_on_c, 0, 39, 0
2, 23462, Note_on_c, 0, 53, 78
2, 23466, Note_on_c, 0, 51, 0
2, 23487, Note_on_c, 0, 39, 78
2, 23493, Note_on_c, 0, 51, 81
2, 23496, Note_on_c, 0, 41, 0
2, 23503, Note_on_c, 0, 53, 0
2, 23519, Note_on_c, 0, 39, 0
2, 23521, Note_on_c, 0, 51, 0
2, 23522, Note_on_c, 0, 48, 83
2, 23522, Note_on_c, 0, 36, 79
2, 23531, Control_c, 0, 64, 127
2, 23549, Note_on_c, 0, 43, 56
2, 23557, Note_on_c, 0, 36, 0
2, 23575, Note_on_c, 0, 48, 0
2, 23579, Note_on_c, 0, 43, 0
2, 23582, Note_on_c, 0, 48, 59
2, 23611, Note_on_c, 0, 50, 63
2, 23615, Note_on_c, 0, 48, 0
2, 23640, Note_on_c, 0, 51, 66
2, 23647, Note_on_c, 0, 50, 0
2, 23667, Note_on_c, 0, 55, 68
2, 23672, Note_on_c, 0, 51, 0
2, 23698, Note_on_c, 0, 55, 0
2, 23701, Note_on_c, 0, 60, 72
2, 23730, Note_on_c, 0, 62, 74
2, 23735, Note_on_c, 0, 60, 0
2, 23752, Control_c, 0, 64, 0
2, 23759, Note_on_c, 0, 62, 0
2, 23762, Note_on_c, 0, 63, 78
2, 23789, Note_on_c, 0, 62, 77
2, 23793, Note_on_c, 0, 63, 0
2, 23819, Note_on_c, 0, 62, 0
2, 23823, Note_on_c, 0, 60, 76
2, 23852, Note_on_c, 0, 55, 72
2, 23853, Note_on_c, 0, 60, 0
2, 23880, Note_on_c, 0, 55, 0
2, 23880, Note_on_c, 0, 51, 67
2, 23910, Note_on_c, 0, 50, 62
2, 23912, Note_on_c, 0, 51, 0
2, 23935, Note_on_c, 0, 50, 0
2, 23942, Note_on_c, 0, 48, 61
2, 23969, Note_on_c, 0, 43, 59
2, 23979, Note_on_c, 0, 48, 0
2, 23986, Control_c, 0, 64, 127
2, 23999, Note_on_c, 0, 43, 0
2, 24002, Note_on_c, 0, 36, 57
2, 24031, Note_on_c, 0, 43, 60
2, 24040, Note_on_c, 0, 36, 0
2, 24062, Note_on_c, 0, 43, 0
2, 24062, Note_on_c, 0, 48, 62
2, 24092, Note_on_c, 0, 50, 66
2, 24097, Note_on_c, 0, 48, 0
2, 24114, Control_c, 0, 64, 0
2, 24122, Note_on_c, 0, 50, 0
2, 24122, Note_on_c, 0, 51, 69
2, 24151, Note_on_c, 0, 50, 70
2, 24156, Note_on_c, 0, 51, 0
2, 24179, Note_on_c, 0, 50, 0
2, 24183, Note_on_c, 0, 48, 67
2, 24208, Note_on_c, 0, 43, 63
2, 24219, Note_on_c, 0, 48, 0
2, 24240, Note_on_c, 0, 43, 0
2, 24241, Note_on_c, 0, 36, 59
2, 24250, Control_c, 0, 64, 127
2, 24271, Note_on_c, 0, 43, 65
2, 24279, Note_on_c, 0, 36, 0
2, 24300, Note_on_c, 0, 43, 0
2, 24302, Note_on_c, 0, 48, 70
2, 24323, Note_on_c, 0, 72, 77
2, 24326, Note_on_c, 0, 84, 78
2, 24330, Note_on_c, 0, 50, 73
2, 24338, Note_on_c, 0, 72, 0
2, 24338, Note_on_c, 0, 48, 0
2, 24342, Note_on_c, 0, 84, 0
2, 24361, Note_on_c, 0, 51, 77
2, 24362, Note_on_c, 0, 73, 69
2, 24362, Note_on_c, 0, 85, 76
2, 24362, Control_c, 0, 64, 0
2, 24363, Note_on_c, 0, 50, 0
2, 24388, Note_on_c, 0, 73, 0
2, 24388, Note_on_c, 0, 50, 71
2, 24393, Note_on_c, 0, 85, 0
2, 24395, Note_on_c, 0, 51, 0
2, 24400, Note_on_c, 0, 74, 79
2, 24400, Note_on_c, 0, 86, 93
2, 24419, Note_on_c, 0, 50, 0
2, 24423, Note_on_c, 0, 48, 64
2, 24435, Note_on_c, 0, 74, 0
2, 24439, Note_on_c, 0, 86, 0
2, 24450, Note_on_c, 0, 43, 60
2, 24457, Note_on_c, 0, 48, 0
2, 24461, Note_on_c, 0, 87, 77
2, 24461, Note_on_c, 0, 75, 63
2, 24468, Note_on_c, 0, 87, 0
2, 24472, Note_on_c, 0, 75, 0
2, 24479, Note_on_c, 0, 43, 0
2, 24483, Note_on_c, 0, 36, 57
2, 24486, Note_on_c, 0, 87, 92
2, 24486, Note_on_c, 0, 75, 90
2, 24505, Control_c, 0, 64, 127
2, 24514, Note_on_c, 0, 43, 60
2, 24518, Note_on_c, 0, 36, 0
2, 24543, Note_on_c, 0, 43, 0
2, 24545, Note_on_c, 0, 48, 61
2, 24575, Note_on_c, 0, 50, 63
2, 24581, Note_on_c, 0, 48, 0
2, 24604, Note_on_c, 0, 51, 65
2, 24610, Note_on_c, 0, 50, 0
2, 24633, Note_on_c, 0, 51, 0
2, 24633, Note_on_c, 0, 55, 67
2, 24658, Note_on_c, 0, 55, 0
2, 24662, Note_on_c, 0, 60, 71
2, 24675, Note_on_c, 0, 87, 0
2, 24681, Note_on_c, 0, 75, 0
2, 24693, Note_on_c, 0, 62, 75
2, 24700, Note_on_c, 0, 60, 0
2, 24721, Control_c, 0, 64, 0
2, 24726, Note_on_c, 0, 62, 0
2, 24726, Note_on_c, 0, 63, 75
2, 24754, Note_on_c, 0, 62, 71
2, 24756, Note_on_c, 0, 63, 0
2, 24782, Note_on_c, 0, 62, 0
2, 24787, Note_on_c, 0, 60, 67
2, 24813, Note_on_c, 0, 75, 64
2, 24814, Note_on_c, 0, 72, 60
2, 24814, Note_on_c, 0, 79, 69
2, 24814, Note_on_c, 0, 55, 69
2, 24816, Note_on_c, 0, 67, 60
2, 24818, Note_on_c, 0, 60, 0
2, 24831, Note_on_c, 0, 79, 0
2, 24832, Note_on_c, 0, 72, 0
2, 24834, Note_on_c, 0, 75, 0
2, 24834, Note_on_c, 0, 67, 0
2, 24844, Note_on_c, 0, 51, 64
2, 24845, Note_on_c, 0, 55, 0
2, 24848, Note_on_c, 0, 67, 71
2, 24849, Note_on_c, 0, 72, 58
2, 24850, Note_on_c, 0, 75, 70
2, 24851, Note_on_c, 0, 79, 70
2, 24873, Note_on_c, 0, 50, 60
2, 24877, Note_on_c, 0, 51, 0
2, 24899, Note_on_c, 0, 50, 0
2, 24905, Note_on_c, 0, 48, 61
2, 24914, Note_on_c, 0, 75, 0
2, 24914, Note_on_c, 0, 79, 0
2, 24915, Note_on_c, 0, 72, 0
2, 24916, Note_on_c, 0, 67, 0
2, 24930, Note_on_c, 0, 79, 68
2, 24931, Note_on_c, 0, 72, 70
2, 24932, Note_on_c, 0, 67, 66
2, 24932, Note_on_c, 0, 43, 55
2, 24933, Note_on_c, 0, 75, 62
2, 24944, Note_on_c, 0, 79, 0
2, 24944, Note_on_c, 0, 48, 0
2, 24947, Note_on_c, 0, 67, 0
2, 24948, Note_on_c, 0, 72, 0
2, 24949, Note_on_c, 0, 75, 0
2, 24963, Note_on_c, 0, 43, 0
2, 24964, Note_on_c, 0, 36, 56
2, 24971, Note_on_c, 0, 72, 55
2, 24972, Note_on_c, 0, 68, 74
2, 24972, Note_on_c, 0, 75, 58
2, 24974, Note_on_c, 0, 80, 74
2, 24975, Control_c, 0, 64, 127
2, 24994, Note_on_c, 0, 43, 61
2, 25003, Note_on_c, 0, 36, 0
2, 25022, Note_on_c, 0, 43, 0
2, 25023, Note_on_c, 0, 48, 66
2, 25051, Note_on_c, 0, 50, 70
2, 25056, Note_on_c, 0, 48, 0
2, 25080, Note_on_c, 0, 51, 72
2, 25081, Note_on_c, 0, 50, 0
2, 25107, Control_c, 0, 64, 0
2, 25110, Note_on_c, 0, 50, 67
2, 25114, Note_on_c, 0, 51, 0
2, 25135, Note_on_c, 0, 80, 0
2, 25139, Note_on_c, 0, 68, 0
2, 25139, Note_on_c, 0, 50, 0
2, 25142, Note_on_c, 0, 48, 62
2, 25172, Note_on_c, 0, 43, 57
2, 25176, Note_on_c, 0, 48, 0
2, 25192, Note_on_c, 0, 67, 70
2, 25193, Note_on_c, 0, 79, 64
2, 25203, Control_c, 0, 64, 127
2, 25204, Note_on_c, 0, 43, 0
2, 25204, Note_on_c, 0, 36, 57
2, 25209, Note_on_c, 0, 72, 0
2, 25211, Note_on_c, 0, 67, 0
2, 25216, Note_on_c, 0, 79, 0
2, 25217, Note_on_c, 0, 75, 0
2, 25232, Note_on_c, 0, 43, 60
2, 25238, Note_on_c, 0, 71, 68
2, 25239, Note_on_c, 0, 36, 0
2, 25240, Note_on_c, 0, 83, 84
2, 25258, Note_on_c, 0, 71, 0
2, 25261, Note_on_c, 0, 48, 66
2, 25262, Note_on_c, 0, 83, 0
2, 25262, Note_on_c, 0, 43, 0
2, 25281, Note_on_c, 0, 72, 65
2, 25282, Note_on_c, 0, 84, 82
2, 25290, Note_on_c, 0, 50, 73
2, 25296, Note_on_c, 0, 72, 0
2, 25297, Note_on_c, 0, 48, 0
2, 25297, Note_on_c, 0, 84, 0
2, 25321, Note_on_c, 0, 73, 78
2, 25322, Note_on_c, 0, 85, 86
2, 25324, Note_on_c, 0, 50, 0
2, 25324, Note_on_c, 0, 51, 73
2, 25325, Control_c, 0, 64, 0
2, 25339, Note_on_c, 0, 73, 0
2, 25343, Note_on_c, 0, 85, 0
2, 25351, Note_on_c, 0, 50, 68
2, 25357, Note_on_c, 0, 51, 0
2, 25360, Note_on_c, 0, 74, 73
2, 25361, Note_on_c, 0, 86, 90
2, 25378, Note_on_c, 0, 74, 0
2, 25381, Note_on_c, 0, 86, 0
2, 25382, Note_on_c, 0, 50, 0
2, 25386, Note_on_c, 0, 48, 58
2, 25412, Note_on_c, 0, 43, 52
2, 25417, Note_on_c, 0, 87, 86
2, 25418, Note_on_c, 0, 75, 86
2, 25423, Note_on_c, 0, 48, 0
2, 25429, Note_on_c, 0, 75, 0
2, 25433, Note_on_c, 0, 87, 0
2, 25443, Note_on_c, 0, 43, 0
2, 25445, Control_c, 0, 64, 127
2, 25445, Note_on_c, 0, 36, 58
2, 25448, Note_on_c, 0, 87, 95
2, 25451, Note_on_c, 0, 75, 95
2, 25475, Note_on_c, 0, 43, 63
2, 25482, Note_on_c, 0, 36, 0
2, 25503, Note_on_c, 0, 43, 0
2, 25505, Note_on_c, 0, 48, 63
2, 25538, Note_on_c, 0, 50, 63
2, 25544, Note_on_c, 0, 48, 0
2, 25567, Note_on_c, 0, 51, 64
2, 25572, Note_on_c, 0, 50, 0
2, 25594, Note_on_c, 0, 51, 0
2, 25594, Note_on_c, 0, 55, 66
2, 25622, Note_on_c, 0, 87, 0
2, 25624, Note_on_c, 0, 55, 0
2, 25624, Note_on_c, 0, 60, 70
2, 25629, Note_on_c, 0, 75, 0
2, 25653, Note_on_c, 0, 62, 74
2, 25658, Note_on_c, 0, 60, 0
2, 25675, Control_c, 0, 64, 0
2, 25684, Note_on_c, 0, 62, 0
2, 25684, Note_on_c, 0, 63, 77
2, 25712, Note_on_c, 0, 62, 76
2, 25714, Note_on_c, 0, 63, 0
2, 25738, Note_on_c, 0, 62, 0
2, 25743, Note_on_c, 0, 60, 70
2, 25766, Note_on_c, 0, 67, 67
2, 25767, Note_on_c, 0, 75, 58
2, 25768, Note_on_c, 0, 79, 73
2, 25769, Note_on_c, 0, 72, 53
2, 25771, Note_on_c, 0, 55, 65
2, 25776, Note_on_c, 0, 60, 0
2, 25783, Note_on_c, 0, 72, 0
2, 25783, Note_on_c, 0, 79, 0
2, 25785, Note_on_c, 0, 67, 0
2, 25785, Note_on_c, 0, 75, 0
2, 25801, Note_on_c, 0, 51, 61
2, 25802, Note_on_c, 0, 67, 68
2, 25803, Note_on_c, 0, 79, 74
2, 25804, Note_on_c, 0, 55, 0
2, 25804, Note_on_c, 0, 72, 56
2, 25805, Note_on_c, 0, 75, 60
2, 25830, Note_on_c, 0, 50, 58
2, 25836, Note_on_c, 0, 51, 0
2, 25855, Note_on_c, 0, 50, 0
2, 25862, Note_on_c, 0, 48, 56
2, 25865, Note_on_c, 0, 72, 0
2, 25865, Note_on_c, 0, 79, 0
2, 25867, Note_on_c, 0, 67, 0
2, 25868, Note_on_c, 0, 75, 0
2, 25886, Note_on_c, 0, 67, 69
2, 25887, Note_on_c, 0, 79, 76
2, 25888, Note_on_c, 0, 72, 51
2, 25889, Note_on_c, 0, 75, 63
2, 25889, Note_on_c, 0, 43, 54
2, 25900, Note_on_c, 0, 48, 0
2, 25904, Note_on_c, 0, 79, 0
2, 25909, Note_on_c, 0, 67, 0
2, 25911, Note_on_c, 0, 75, 0
2, 25912, Note_on_c, 0, 72, 0
2, 25918, Control_c, 0, 64, 127
2, 25920, Note_on_c, 0, 43, 0
2, 25921, Note_on_c, 0, 36, 54
2, 25928, Note_on_c, 0, 75, 64
2, 25929, Note_on_c, 0, 72, 56
2, 25932, Note_on_c, 0, 69, 76
2, 25932, Note_on_c, 0, 81, 82
2, 25950, Note_on_c, 0, 42, 58
2, 25972, Note_on_c, 0, 36, 0
2, 25977, Note_on_c, 0, 42, 0
2, 25978, Note_on_c, 0, 48, 60
2, 26007, Note_on_c, 0, 50, 62
2, 26015, Note_on_c, 0, 48, 0
2, 26039, Note_on_c, 0, 51, 68
2, 26040, Note_on_c, 0, 50, 0
2, 26070, Note_on_c, 0, 50, 70
2, 26072, Note_on_c, 0, 51, 0
2, 26097, Note_on_c, 0, 50, 0
2, 26101, Note_on_c, 0, 48, 67
2, 26127, Note_on_c, 0, 42, 62
2, 26131, Control_c, 0, 64, 0
2, 26138, Note_on_c, 0, 48, 0
2, 26148, Control_c, 0, 64, 127
2, 26157, Note_on_c, 0, 42, 0
2, 26160, Note_on_c, 0, 36, 56
2, 26191, Note_on_c, 0, 42, 57
2, 26198, Note_on_c, 0, 36, 0
2, 26218, Note_on_c, 0, 42, 0
2, 26220, Note_on_c, 0, 48, 62
2, 26249, Note_on_c, 0, 50, 67
2, 26254, Note_on_c, 0, 48, 0
2, 26259, Note_on_c, 0, 72, 0
2, 26262, Note_on_c, 0, 69, 0
2, 26264, Note_on_c, 0, 75, 0
2, 26268, Note_on_c, 0, 81, 0
2, 26282, Note_on_c, 0, 51, 72
2, 26284, Note_on_c, 0, 50, 0
2, 26314, Note_on_c, 0, 50, 67
2, 26324, Note_on_c, 0, 51, 0
2, 26341, Note_on_c, 0, 50, 0
2, 26344, Note_on_c, 0, 69, 63
2, 26344, Note_on_c, 0, 48, 60
2, 26358, Note_on_c, 0, 74, 68
2, 26370, Control_c, 0, 64, 0
2, 26371, Note_on_c, 0, 42, 56
2, 26374, Note_on_c, 0, 81, 78
2, 26376, Note_on_c, 0, 69, 0
2, 26377, Note_on_c, 0, 48, 0
2, 26391, Note_on_c, 0, 74, 0
2, 26394, Note_on_c, 0, 42, 0
2, 26401, Note_on_c, 0, 35, 62
2, 26402, Control_c, 0, 64, 127
2, 26404, Note_on_c, 0, 86, 90
2, 26406, Note_on_c, 0, 81, 0
2, 26420, Note_on_c, 0, 86, 0
2, 26432, Note_on_c, 0, 35, 0
2, 26433, Note_on_c, 0, 47, 64
2, 26454, Note_on_c, 0, 47, 0
2, 26459, Note_on_c, 0, 50, 63
2, 26492, Note_on_c, 0, 55, 64
2, 26498, Note_on_c, 0, 50, 0
2, 26522, Note_on_c, 0, 79, 81
2, 26522, Note_on_c, 0, 74, 68
2, 26522, Note_on_c, 0, 62, 66
2, 26523, Note_on_c, 0, 67, 75
2, 26527, Note_on_c, 0, 55, 0
2, 26550, Note_on_c, 0, 55, 66
2, 26554, Note_on_c, 0, 62, 0
2, 26582, Note_on_c, 0, 50, 65
2, 26583, Note_on_c, 0, 55, 0
2, 26595, Note_on_c, 0, 50, 0
2, 26610, Note_on_c, 0, 47, 67
2, 26617, Note_on_c, 0, 79, 0
2, 26617, Control_c, 0, 64, 0
2, 26618, Note_on_c, 0, 67, 0
2, 26618, Note_on_c, 0, 74, 0
2, 26637, Note_on_c, 0, 47, 0
2, 26637, Control_c, 0, 64, 127
2, 26641, Note_on_c, 0, 34, 67
2, 26670, Note_on_c, 0, 34, 0
2, 26671, Note_on_c, 0, 46, 64
2, 26678, Note_on_c, 0, 79, 82
2, 26679, Note_on_c, 0, 73, 52
2, 26681, Note_on_c, 0, 67, 79
2, 26687, Note_on_c, 0, 46, 0
2, 26697, Note_on_c, 0, 49, 65
2, 26705, Note_on_c, 0, 67, 0
2, 26705, Note_on_c, 0, 73, 0
2, 26706, Note_on_c, 0, 79, 0
2, 26717, Note_on_c, 0, 49, 0
2, 26718, Note_on_c, 0, 79, 84
2, 26720, Note_on_c, 0, 73, 54
2, 26721, Note_on_c, 0, 67, 81
2, 26726, Note_on_c, 0, 55, 64
2, 26736, Note_on_c, 0, 67, 0
2, 26737, Note_on_c, 0, 73, 0
2, 26738, Note_on_c, 0, 79, 0
2, 26751, Note_on_c, 0, 79, 83
2, 26755, Note_on_c, 0, 67, 77
2, 26756, Note_on_c, 0, 73, 58
2, 26759, Note_on_c, 0, 61, 66
2, 26761, Note_on_c, 0, 55, 0
2, 26769, Note_on_c, 0, 67, 0
2, 26770, Note_on_c, 0, 79, 0
2, 26771, Note_on_c, 0, 73, 0
2, 26784, Note_on_c, 0, 61, 0
2, 26785, Note_on_c, 0, 55, 66
2, 26788, Note_on_c, 0, 80, 86
2, 26789, Note_on_c, 0, 68, 77
2, 26790, Note_on_c, 0, 73, 57
2, 26804, Note_on_c, 0, 73, 0
2, 26809, Note_on_c, 0, 80, 0
2, 26815, Note_on_c, 0, 68, 0
2, 26818, Note_on_c, 0, 55, 0
2, 26819, Note_on_c, 0, 49, 65
2, 26830, Note_on_c, 0, 49, 0
2, 26843, Note_on_c, 0, 46, 65
2, 26852, Note_on_c, 0, 73, 60
2, 26853, Note_on_c, 0, 79, 80
2, 26854, Note_on_c, 0, 67, 77
2, 26863, Control_c, 0, 64, 0
2, 26864, Note_on_c, 0, 46, 0
2, 26866, Note_on_c, 0, 73, 0
2, 26866, Note_on_c, 0, 67, 0
2, 26867, Note_on_c, 0, 79, 0
2, 26878, Note_on_c, 0, 33, 67
2, 26882, Note_on_c, 0, 67, 80
2, 26883, Note_on_c, 0, 79, 81
2, 26884, Note_on_c, 0, 72, 54
2, 26884, Control_c, 0, 64, 127
2, 26895, Note_on_c, 0, 67, 0
2, 26898, Note_on_c, 0, 79, 0
2, 26899, Note_on_c, 0, 72, 0
2, 26907, Note_on_c, 0, 33, 0
2, 26912, Note_on_c, 0, 45, 69
2, 26915, Note_on_c, 0, 84, 84
2, 26916, Note_on_c, 0, 72, 78
2, 26923, Note_on_c, 0, 72, 0
2, 26925, Note_on_c, 0, 84, 0
2, 26933, Note_on_c, 0, 45, 0
2, 26940, Note_on_c, 0, 48, 71
2, 26973, Note_on_c, 0, 53, 68
2, 26985, Note_on_c, 0, 48, 0
2, 27004, Note_on_c, 0, 72, 58
2, 27004, Note_on_c, 0, 60, 69
2, 27005, Note_on_c, 0, 77, 84
2, 27005, Note_on_c, 0, 65, 75
2, 27009, Note_on_c, 0, 53, 0
2, 27031, Note_on_c, 0, 60, 0
2, 27031, Note_on_c, 0, 53, 69
2, 27060, Note_on_c, 0, 48, 68
2, 27062, Note_on_c, 0, 53, 0
2, 27065, Note_on_c, 0, 65, 0
2, 27065, Note_on_c, 0, 77, 0
2, 27067, Note_on_c, 0, 72, 0
2, 27073, Note_on_c, 0, 48, 0
2, 27092, Control_c, 0, 64, 0
2, 27092, Note_on_c, 0, 45, 67
2, 27111, Note_on_c, 0, 45, 0
2, 27111, Control_c, 0, 64, 127
2, 27121, Note_on_c, 0, 32, 66
2, 27145, Note_on_c, 0, 32, 0
2, 27149, Note_on_c, 0, 44, 65
2, 27161, Note_on_c, 0, 44, 0
2, 27165, Note_on_c, 0, 77, 78
2, 27167, Note_on_c, 0, 65, 72
2, 27167, Note_on_c, 0, 72, 53
2, 27180, Note_on_c, 0, 48, 64
2, 27182, Note_on_c, 0, 72, 0
2, 27185, Note_on_c, 0, 77, 0
2, 27185, Note_on_c, 0, 65, 0
2, 27204, Note_on_c, 0, 65, 72
2, 27205, Note_on_c, 0, 77, 80
2, 27206, Note_on_c, 0, 72, 58
2, 27211, Note_on_c, 0, 53, 62
2, 27220, Note_on_c, 0, 48, 0
2, 27221, Note_on_c, 0, 65, 0
2, 27221, Note_on_c, 0, 77, 0
2, 27224, Note_on_c, 0, 72, 0
2, 27239, Note_on_c, 0, 72, 61
2, 27239, Note_on_c, 0, 76, 78
2, 27242, Note_on_c, 0, 64, 66
2, 27242, Note_on_c, 0, 60, 63
2, 27246, Note_on_c, 0, 53, 0
2, 27248, Note_on_c, 0, 64, 0
2, 27252, Note_on_c, 0, 72, 0
2, 27254, Note_on_c, 0, 76, 0
2, 27263, Note_on_c, 0, 77, 76
2, 27264, Note_on_c, 0, 72, 60
2, 27266, Note_on_c, 0, 65, 73
2, 27270, Note_on_c, 0, 53, 63
2, 27274, Note_on_c, 0, 60, 0
2, 27276, Note_on_c, 0, 65, 0
2, 27277, Note_on_c, 0, 72, 0
2, 27280, Note_on_c, 0, 77, 0
2, 27294, Note_on_c, 0, 67, 69
2, 27295, Note_on_c, 0, 72, 57
2, 27296, Note_on_c, 0, 79, 75
2, 27299, Note_on_c, 0, 48, 68
2, 27303, Note_on_c, 0, 53, 0
2, 27312, Note_on_c, 0, 48, 0
2, 27313, Note_on_c, 0, 72, 0
2, 27316, Note_on_c, 0, 67, 0
2, 27319, Note_on_c, 0, 79, 0
2, 27323, Control_c, 0, 64, 0
2, 27329, Note_on_c, 0, 44, 67
2, 27342, Note_on_c, 0, 44, 0
2, 27343, Note_on_c, 0, 77, 72
2, 27344, Note_on_c, 0, 72, 58
2, 27346, Note_on_c, 0, 65, 60
2, 27353, Control_c, 0, 64, 127
2, 27355, Note_on_c, 0, 65, 0
2, 27356, Note_on_c, 0, 77, 0
2, 27358, Note_on_c, 0, 72, 0
2, 27364, Note_on_c, 0, 31, 59
2, 27369, Note_on_c, 0, 72, 55
2, 27370, Note_on_c, 0, 76, 66
2, 27372, Note_on_c, 0, 64, 62
2, 27396, Note_on_c, 0, 31, 0
2, 27398, Note_on_c, 0, 43, 50
2, 27427, Note_on_c, 0, 43, 0
2, 27427, Note_on_c, 0, 48, 52
2, 27442, Note_on_c, 0, 76, 0
2, 27446, Note_on_c, 0, 64, 0
2, 27449, Control_c, 0, 64, 0
2, 27453, Note_on_c, 0, 72, 0
2, 27457, Note_on_c, 0, 48, 0
2, 27459, Note_on_c, 0, 47, 54
2, 27485, Note_on_c, 0, 47, 0
2, 27485, Note_on_c, 0, 63, 71
2, 27486, Note_on_c, 0, 75, 69
2, 27486, Note_on_c, 0, 49, 57
2, 27487, Note_on_c, 0, 72, 56
2, 27515, Note_on_c, 0, 49, 0
2, 27515, Note_on_c, 0, 48, 58
2, 27543, Note_on_c, 0, 48, 0
2, 27546, Note_on_c, 0, 50, 60
2, 27577, Note_on_c, 0, 50, 0
2, 27577, Note_on_c, 0, 49, 62
2, 27605, Note_on_c, 0, 49, 0
2, 27606, Note_on_c, 0, 51, 64
2, 27634, Note_on_c, 0, 51, 0
2, 27636, Note_on_c, 0, 50, 65
2, 27665, Note_on_c, 0, 50, 0
2, 27665, Note_on_c, 0, 52, 66
2, 27696, Note_on_c, 0, 51, 67
2, 27698, Note_on_c, 0, 52, 0
2, 27726, Note_on_c, 0, 51, 0
2, 27726, Note_on_c, 0, 53, 67
2, 27755, Note_on_c, 0, 52, 68
2, 27758, Note_on_c, 0, 53, 0
2, 27759, Note_on_c, 0, 75, 0
2, 27760, Note_on_c, 0, 72, 0
2, 27773, Note_on_c, 0, 63, 0
2, 27786, Note_on_c, 0, 52, 0
2, 27786, Note_on_c, 0, 54, 69
2, 27815, Note_on_c, 0, 54, 0
2, 27816, Note_on_c, 0, 63, 68
2, 27816, Note_on_c, 0, 53, 71
2, 27817, Note_on_c, 0, 75, 73
2, 27835, Note_on_c, 0, 75, 0
2, 27835, Note_on_c, 0, 63, 0
2, 27841, Control_c, 0, 64, 127
2, 27842, Note_on_c, 0, 55, 74
2, 27845, Note_on_c, 0, 53, 0
2, 27850, Note_on_c, 0, 75, 75
2, 27850, Note_on_c, 0, 63, 72
2, 27852, Note_on_c, 0, 71, 65
2, 27871, Note_on_c, 0, 54, 73
2, 27873, Note_on_c, 0, 55, 0
2, 27902, Note_on_c, 0, 56, 71
2, 27903, Note_on_c, 0, 54, 0
2, 27933, Note_on_c, 0, 55, 70
2, 27936, Note_on_c, 0, 75, 0
2, 27936, Note_on_c, 0, 56, 0
2, 27953, Note_on_c, 0, 63, 0
2, 27963, Note_on_c, 0, 58, 68
2, 27965, Note_on_c, 0, 55, 0
2, 27966, Note_on_c, 0, 62, 62
2, 27967, Note_on_c, 0, 74, 69
2, 27974, Control_c, 0, 64, 0
2, 27993, Note_on_c, 0, 56, 67
2, 27994, Note_on_c, 0, 58, 0
2, 28015, Note_on_c, 0, 56, 0
2, 28022, Note_on_c, 0, 55, 66
2, 28045, Note_on_c, 0, 55, 0
2, 28051, Note_on_c, 0, 53, 65
2, 28064, Note_on_c, 0, 74, 0
2, 28065, Note_on_c, 0, 62, 0
2, 28067, Note_on_c, 0, 71, 0
2, 28081, Note_on_c, 0, 51, 64
2, 28082, Note_on_c, 0, 53, 0
2, 28111, Note_on_c, 0, 50, 64
2, 28116, Note_on_c, 0, 51, 0
2, 28134, Note_on_c, 0, 50, 0
2, 28141, Note_on_c, 0, 48, 64
2, 28169, Note_on_c, 0, 47, 63
2, 28172, Note_on_c, 0, 48, 0
2, 28197, Note_on_c, 0, 47, 0
2, 28199, Note_on_c, 0, 44, 62
2, 28229, Note_on_c, 0, 44, 0
2, 28229, Note_on_c, 0, 43, 61
2, 28259, Note_on_c, 0, 41, 60
2, 28264, Note_on_c, 0, 43, 0
2, 28290, Note_on_c, 0, 38, 59
2, 28293, Note_on_c, 0, 41, 0
2, 28318, Note_on_c, 0, 36, 55
2, 28321, Control_c, 0, 64, 127
2, 28322, Note_on_c, 0, 38, 0
2, 28351, Note_on_c, 0, 43, 55
2, 28356, Note_on_c, 0, 36, 0
2, 28381, Note_on_c, 0, 43, 0
2, 28383, Note_on_c, 0, 48, 55
2, 28412, Note_on_c, 0, 50, 54
2, 28414, Note_on_c, 0, 48, 0
2, 28441, Note_on_c, 0, 51, 55
2, 28447, Note_on_c, 0, 50, 0
2, 28471, Note_on_c, 0, 55, 57
2, 28472, Note_on_c, 0, 51, 0
2, 28502, Note_on_c, 0, 55, 0
2, 28502, Note_on_c, 0, 60, 56
2, 28529, Note_on_c, 0, 62, 57
2, 28534, Note_on_c, 0, 60, 0
2, 28558, Note_on_c, 0, 62, 0
2, 28560, Note_on_c, 0, 63, 71
2, 28565, Control_c, 0, 64, 0
2, 28588, Note_on_c, 0, 63, 0
2, 28589, Note_on_c, 0, 62, 58
2, 28614, Note_on_c, 0, 62, 0
2, 28619, Note_on_c, 0, 60, 58
2, 28648, Note_on_c, 0, 60, 0
2, 28651, Note_on_c, 0, 55, 57
2, 28670, Note_on_c, 0, 55, 0
2, 28677, Note_on_c, 0, 51, 62
2, 28706, Note_on_c, 0, 50, 66
2, 28709, Note_on_c, 0, 51, 0
2, 28728, Note_on_c, 0, 50, 0
2, 28735, Note_on_c, 0, 48, 67
2, 28765, Note_on_c, 0, 43, 68
2, 28776, Note_on_c, 0, 48, 0
2, 28793, Note_on_c, 0, 43, 0
2, 28793, Control_c, 0, 64, 127
2, 28796, Note_on_c, 0, 36, 69
2, 28826, Note_on_c, 0, 43, 67
2, 28835, Note_on_c, 0, 36, 0
2, 28857, Note_on_c, 0, 43, 0
2, 28858, Note_on_c, 0, 48, 71
2, 28887, Note_on_c, 0, 50, 75
2, 28891, Note_on_c, 0, 48, 0
2, 28917, Note_on_c, 0, 51, 75
2, 28918, Note_on_c, 0, 50, 0
2, 28923, Control_c, 0, 64, 0
2, 28949, Note_on_c, 0, 50, 73
2, 28951, Note_on_c, 0, 51, 0
2, 28978, Note_on_c, 0, 50, 0
2, 28981, Note_on_c, 0, 48, 72
2, 29007, Note_on_c, 0, 43, 70
2, 29016, Note_on_c, 0, 48, 0
2, 29033, Control_c, 0, 64, 127
2, 29038, Note_on_c, 0, 43, 0
2, 29039, Note_on_c, 0, 36, 70
2, 29064, Note_on_c, 0, 83, 74
2, 29065, Note_on_c, 0, 71, 75
2, 29070, Note_on_c, 0, 43, 73
2, 29076, Note_on_c, 0, 36, 0
2, 29086, Note_on_c, 0, 71, 0
2, 29094, Note_on_c, 0, 83, 0
2, 29098, Note_on_c, 0, 43, 0
2, 29099, Note_on_c, 0, 48, 76
2, 29108, Note_on_c, 0, 72, 80
2, 29109, Note_on_c, 0, 84, 80
2, 29124, Note_on_c, 0, 72, 0
2, 29127, Note_on_c, 0, 84, 0
2, 29128, Note_on_c, 0, 50, 79
2, 29134, Note_on_c, 0, 48, 0
2, 29145, Note_on_c, 0, 73, 84
2, 29146, Note_on_c, 0, 85, 84
2, 29160, Note_on_c, 0, 51, 85
2, 29162, Note_on_c, 0, 50, 0
2, 29169, Note_on_c, 0, 73, 0
2, 29169, Note_on_c, 0, 85, 0
2, 29177, Control_c, 0, 64, 0
2, 29187, Note_on_c, 0, 74, 87
2, 29188, Note_on_c, 0, 50, 82
2, 29190, Note_on_c, 0, 86, 86
2, 29193, Note_on_c, 0, 51, 0
2, 29211, Note_on_c, 0, 74, 0
2, 29215, Note_on_c, 0, 86, 0
2, 29216, Note_on_c, 0, 50, 0
2, 29220, Note_on_c, 0, 48, 76
2, 29247, Note_on_c, 0, 43, 72
2, 29251, Note_on_c, 0, 75, 88
2, 29252, Note_on_c, 0, 87, 88
2, 29255, Note_on_c, 0, 48, 0
2, 29264, Note_on_c, 0, 75, 0
2, 29265, Note_on_c, 0, 87, 0
2, 29277, Note_on_c, 0, 43, 0
2, 29278, Note_on_c, 0, 87, 90
2, 29279, Note_on_c, 0, 75, 83
2, 29279, Note_on_c, 0, 36, 62
2, 29291, Control_c, 0, 64, 127
2, 29309, Note_on_c, 0, 43, 64
2, 29314, Note_on_c, 0, 36, 0
2, 29339, Note_on_c, 0, 48, 65
2, 29340, Note_on_c, 0, 43, 0
2, 29368, Note_on_c, 0, 50, 68
2, 29398, Note_on_c, 0, 51, 70
2, 29399, Note_on_c, 0, 48, 0
2, 29400, Note_on_c, 0, 50, 0
2, 29429, Note_on_c, 0, 55, 71
2, 29431, Note_on_c, 0, 51, 0
2, 29457, Note_on_c, 0, 55, 0
2, 29459, Note_on_c, 0, 60, 71
2, 29468, Note_on_c, 0, 87, 0
2, 29471, Note_on_c, 0, 75, 0
2, 29487, Note_on_c, 0, 62, 75
2, 29493, Note_on_c, 0, 60, 0
2, 29513, Control_c, 0, 64, 0
2, 29517, Note_on_c, 0, 62, 0
2, 29518, Note_on_c, 0, 63, 74
2, 29546, Note_on_c, 0, 62, 75
2, 29550, Note_on_c, 0, 63, 0
2, 29575, Note_on_c, 0, 62, 0
2, 29578, Note_on_c, 0, 60, 72
2, 29607, Note_on_c, 0, 55, 70
2, 29612, Note_on_c, 0, 60, 0
2, 29613, Note_on_c, 0, 79, 67
2, 29614, Note_on_c, 0, 75, 52
2, 29615, Note_on_c, 0, 67, 72
2, 29615, Note_on_c, 0, 72, 55
2, 29627, Note_on_c, 0, 72, 0
2, 29627, Note_on_c, 0, 79, 0
2, 29628, Note_on_c, 0, 75, 0
2, 29630, Note_on_c, 0, 67, 0
2, 29634, Note_on_c, 0, 55, 0
2, 29635, Note_on_c, 0, 51, 64
2, 29637, Note_on_c, 0, 67, 65
2, 29638, Note_on_c, 0, 75, 60
2, 29639, Note_on_c, 0, 72, 56
2, 29640, Note_on_c, 0, 79, 67
2, 29665, Note_on_c, 0, 50, 64
2, 29671, Note_on_c, 0, 51, 0
2, 29690, Note_on_c, 0, 50, 0
2, 29696, Note_on_c, 0, 48, 62
2, 29702, Note_on_c, 0, 79, 0
2, 29706, Note_on_c, 0, 75, 0
2, 29709, Note_on_c, 0, 67, 0
2, 29709, Note_on_c, 0, 72, 0
2, 29722, Note_on_c, 0, 43, 64
2, 29725, Note_on_c, 0, 79, 72
2, 29726, Note_on_c, 0, 67, 66
2, 29727, Note_on_c, 0, 72, 58
2, 29728, Note_on_c, 0, 75, 59
2, 29732, Note_on_c, 0, 48, 0
2, 29738, Note_on_c, 0, 79, 0
2, 29739, Note_on_c, 0, 67, 0
2, 29742, Note_on_c, 0, 72, 0
2, 29743, Note_on_c, 0, 75, 0
2, 29755, Note_on_c, 0, 43, 0
2, 29755, Control_c, 0, 64, 127
2, 29755, Note_on_c, 0, 36, 58
2, 29760, Note_on_c, 0, 72, 57
2, 29761, Note_on_c, 0, 68, 70
2, 29762, Note_on_c, 0, 75, 60
2, 29763, Note_on_c, 0, 80, 72
2, 29786, Note_on_c, 0, 43, 61
2, 29794, Note_on_c, 0, 36, 0
2, 29813, Note_on_c, 0, 48, 65
2, 29815, Note_on_c, 0, 43, 0
2, 29845, Note_on_c, 0, 50, 68
2, 29853, Note_on_c, 0, 48, 0
2, 29877, Note_on_c, 0, 50, 0
2, 29877, Note_on_c, 0, 51, 71
2, 29897, Control_c, 0, 64, 0
2, 29908, Note_on_c, 0, 50, 71
2, 29911, Note_on_c, 0, 51, 0
2, 29934, Note_on_c, 0, 50, 0
2, 29938, Note_on_c, 0, 48, 70
2, 29966, Note_on_c, 0, 43, 68
2, 29970, Note_on_c, 0, 80, 0
2, 29973, Note_on_c, 0, 48, 0
2, 29974, Note_on_c, 0, 68, 0
2, 29998, Note_on_c, 0, 43, 0
2, 29998, Note_on_c, 0, 67, 64
2, 29998, Note_on_c, 0, 79, 64
2, 29999, Note_on_c, 0, 36, 64
2, 30007, Control_c, 0, 64, 127
2, 30011, Note_on_c, 0, 67, 0
2, 30013, Note_on_c, 0, 72, 0
2, 30015, Note_on_c, 0, 79, 0
2, 30016, Note_on_c, 0, 75, 0
2, 30027, Note_on_c, 0, 43, 62
2, 30034, Note_on_c, 0, 36, 0
2, 30041, Note_on_c, 0, 71, 81
2, 30042, Note_on_c, 0, 83, 81
2, 30056, Note_on_c, 0, 43, 0
2, 30057, Note_on_c, 0, 48, 69
2, 30059, Note_on_c, 0, 71, 0
2, 30077, Note_on_c, 0, 72, 81
2, 30079, Note_on_c, 0, 84, 81
2, 30087, Note_on_c, 0, 83, 0
2, 30088, Note_on_c, 0, 50, 76
2, 30091, Note_on_c, 0, 72, 0
2, 30094, Note_on_c, 0, 48, 0
2, 30099, Note_on_c, 0, 84, 0
2, 30118, Note_on_c, 0, 85, 83
2, 30119, Note_on_c, 0, 73, 83
2, 30119, Note_on_c, 0, 51, 81
2, 30120, Note_on_c, 0, 50, 0
2, 30132, Control_c, 0, 64, 0
2, 30135, Note_on_c, 0, 73, 0
2, 30147, Note_on_c, 0, 85, 0
2, 30147, Note_on_c, 0, 74, 83
2, 30148, Note_on_c, 0, 50, 78
2, 30149, Note_on_c, 0, 86, 83
2, 30153, Note_on_c, 0, 51, 0
2, 30161, Note_on_c, 0, 74, 0
2, 30167, Note_on_c, 0, 86, 0
2, 30174, Note_on_c, 0, 50, 0
2, 30179, Note_on_c, 0, 77, 83
2, 30179, Note_on_c, 0, 48, 72
2, 30181, Note_on_c, 0, 89, 83
2, 30196, Note_on_c, 0, 77, 0
2, 30197, Note_on_c, 0, 89, 0
2, 30207, Note_on_c, 0, 43, 66
2, 30216, Note_on_c, 0, 48, 0
2, 30229, Note_on_c, 0, 75, 84
2, 30230, Note_on_c, 0, 87, 84
2, 30237, Note_on_c, 0, 43, 0
2, 30239, Note_on_c, 0, 87, 0
2, 30239, Note_on_c, 0, 75, 0
2, 30239, Note_on_c, 0, 36, 59
2, 30248, Control_c, 0, 64, 127
2, 30251, Note_on_c, 0, 87, 92
2, 30252, Note_on_c, 0, 75, 82
2, 30268, Note_on_c, 0, 43, 61
2, 30273, Note_on_c, 0, 36, 0
2, 30296, Note_on_c, 0, 43, 0
2, 30299, Note_on_c, 0, 48, 60
2, 30328, Note_on_c, 0, 50, 63
2, 30350, Note_on_c, 0, 48, 0
2, 30356, Note_on_c, 0, 51, 65
2, 30362, Note_on_c, 0, 50, 0
2, 30386, Note_on_c, 0, 51, 0
2, 30386, Note_on_c, 0, 55, 69
2, 30417, Note_on_c, 0, 55, 0
2, 30418, Note_on_c, 0, 60, 71
2, 30436, Note_on_c, 0, 75, 0
2, 30436, Note_on_c, 0, 87, 0
2, 30447, Note_on_c, 0, 62, 73
2, 30453, Note_on_c, 0, 60, 0
2, 30477, Note_on_c, 0, 62, 0
2, 30478, Note_on_c, 0, 63, 73
2, 30480, Control_c, 0, 64, 0
2, 30506, Note_on_c, 0, 62, 73
2, 30507, Note_on_c, 0, 63, 0
2, 30533, Note_on_c, 0, 62, 0
2, 30538, Note_on_c, 0, 60, 70
2, 30559, Note_on_c, 0, 67, 66
2, 30560, Note_on_c, 0, 75, 54
2, 30561, Note_on_c, 0, 72, 61
2, 30563, Note_on_c, 0, 79, 69
2, 30568, Note_on_c, 0, 55, 67
2, 30570, Note_on_c, 0, 60, 0
2, 30578, Note_on_c, 0, 72, 0
2, 30579, Note_on_c, 0, 79, 0
2, 30581, Note_on_c, 0, 67, 0
2, 30582, Note_on_c, 0, 75, 0
2, 30595, Note_on_c, 0, 51, 60
2, 30596, Note_on_c, 0, 75, 60
2, 30597, Note_on_c, 0, 55, 0
2, 30597, Note_on_c, 0, 79, 69
2, 30597, Note_on_c, 0, 67, 69
2, 30598, Note_on_c, 0, 72, 57
2, 30626, Note_on_c, 0, 50, 59
2, 30630, Note_on_c, 0, 51, 0
2, 30649, Note_on_c, 0, 50, 0
2, 30656, Note_on_c, 0, 48, 58
2, 30671, Note_on_c, 0, 79, 0
2, 30672, Note_on_c, 0, 72, 0
2, 30673, Note_on_c, 0, 75, 0
2, 30673, Note_on_c, 0, 67, 0
2, 30684, Note_on_c, 0, 43, 56
2, 30691, Note_on_c, 0, 79, 75
2, 30692, Note_on_c, 0, 72, 53
2, 30693, Note_on_c, 0, 67, 73
2, 30694, Note_on_c, 0, 75, 58
2, 30696, Note_on_c, 0, 48, 0
2, 30708, Note_on_c, 0, 79, 0
2, 30709, Note_on_c, 0, 72, 0
2, 30709, Note_on_c, 0, 67, 0
2, 30712, Note_on_c, 0, 75, 0
2, 30715, Note_on_c, 0, 43, 0
2, 30718, Note_on_c, 0, 36, 59
2, 30725, Note_on_c, 0, 75, 62
2, 30728, Note_on_c, 0, 69, 79
2, 30728, Control_c, 0, 64, 127
2, 30729, Note_on_c, 0, 81, 77
2, 30748, Note_on_c, 0, 42, 62
2, 30759, Note_on_c, 0, 36, 0
2, 30779, Note_on_c, 0, 42, 0
2, 30781, Note_on_c, 0, 48, 63
2, 30810, Note_on_c, 0, 50, 60
2, 30814, Note_on_c, 0, 48, 0
2, 30841, Note_on_c, 0, 50, 0
2, 30841, Note_on_c, 0, 51, 71
2, 30865, Control_c, 0, 64, 0
2, 30868, Note_on_c, 0, 50, 64
2, 30871, Note_on_c, 0, 51, 0
2, 30898, Note_on_c, 0, 50, 0
2, 30902, Note_on_c, 0, 48, 65
2, 30928, Note_on_c, 0, 42, 65
2, 30937, Note_on_c, 0, 48, 0
2, 30957, Control_c, 0, 64, 127
2, 30959, Note_on_c, 0, 42, 0
2, 30962, Note_on_c, 0, 36, 66
2, 30991, Note_on_c, 0, 42, 66
2, 30999, Note_on_c, 0, 36, 0
2, 31020, Note_on_c, 0, 42, 0
2, 31022, Note_on_c, 0, 48, 68
2, 31048, Note_on_c, 0, 50, 70
2, 31054, Note_on_c, 0, 48, 0
2, 31080, Note_on_c, 0, 51, 77
2, 31081, Note_on_c, 0, 50, 0
2, 31092, Control_c, 0, 64, 0
2, 31108, Note_on_c, 0, 50, 72
2, 31113, Note_on_c, 0, 51, 0
2, 31130, Note_on_c, 0, 75, 0
2, 31131, Note_on_c, 0, 81, 0
2, 31131, Note_on_c, 0, 69, 0
2, 31138, Note_on_c, 0, 50, 0
2, 31141, Note_on_c, 0, 48, 73
2, 31167, Note_on_c, 0, 42, 73
2, 31173, Note_on_c, 0, 48, 0
2, 31196, Note_on_c, 0, 42, 0
2, 31198, Control_c, 0, 64, 127
2, 31198, Note_on_c, 0, 37, 78
2, 31202, Note_on_c, 0, 82, 91
2, 31203, Note_on_c, 0, 73, 70
2, 31204, Note_on_c, 0, 70, 87
2, 31229, Note_on_c, 0, 49, 69
2, 31231, Note_on_c, 0, 37, 0
2, 31252, Note_on_c, 0, 49, 0
2, 31262, Note_on_c, 0, 54, 70
2, 31290, Note_on_c, 0, 56, 68
2, 31293, Note_on_c, 0, 54, 0
2, 31315, Note_on_c, 0, 56, 0
2, 31318, Note_on_c, 0, 58, 68
2, 31332, Control_c, 0, 64, 0
2, 31348, Note_on_c, 0, 56, 70
2, 31351, Note_on_c, 0, 58, 0
2, 31377, Note_on_c, 0, 82, 0
2, 31381, Note_on_c, 0, 73, 0
2, 31381, Note_on_c, 0, 54, 71
2, 31384, Note_on_c, 0, 56, 0
2, 31397, Note_on_c, 0, 54, 0
2, 31402, Note_on_c, 0, 70, 0
2, 31409, Note_on_c, 0, 49, 71
2, 31441, Control_c, 0, 64, 127
2, 31443, Note_on_c, 0, 37, 82
2, 31444, Note_on_c, 0, 80, 94
2, 31444, Note_on_c, 0, 68, 89
2, 31445, Note_on_c, 0, 49, 0
2, 31446, Note_on_c, 0, 70, 59
2, 31447, Note_on_c, 0, 73, 59
2, 31474, Note_on_c, 0, 37, 0
2, 31475, Note_on_c, 0, 49, 68
2, 31492, Note_on_c, 0, 49, 0
2, 31505, Note_on_c, 0, 54, 71
2, 31531, Note_on_c, 0, 68, 0
2, 31531, Note_on_c, 0, 80, 0
2, 31534, Note_on_c, 0, 56, 70
2, 31537, Note_on_c, 0, 54, 0
2, 31543, Note_on_c, 0, 70, 0
2, 31543, Note_on_c, 0, 73, 0
2, 31564, Note_on_c, 0, 58, 85
2, 31565, Note_on_c, 0, 56, 0
2, 31565, Note_on_c, 0, 78, 95
2, 31567, Note_on_c, 0, 70, 58
2, 31569, Note_on_c, 0, 73, 65
2, 31569, Note_on_c, 0, 66, 90
2, 31571, Control_c, 0, 64, 0
2, 31596, Note_on_c, 0, 56, 70
2, 31602, Note_on_c, 0, 58, 0
2, 31625, Note_on_c, 0, 54, 70
2, 31626, Note_on_c, 0, 56, 0
2, 31627, Note_on_c, 0, 78, 0
2, 31627, Note_on_c, 0, 70, 0
2, 31631, Note_on_c, 0, 66, 0
2, 31636, Note_on_c, 0, 73, 0
2, 31640, Note_on_c, 0, 54, 0
2, 31650, Note_on_c, 0, 49, 74
2, 31653, Note_on_c, 0, 73, 49
2, 31654, Note_on_c, 0, 77, 95
2, 31655, Note_on_c, 0, 65, 90
2, 31656, Note_on_c, 0, 70, 61
2, 31665, Note_on_c, 0, 70, 0
2, 31666, Note_on_c, 0, 77, 0
2, 31667, Note_on_c, 0, 65, 0
2, 31669, Note_on_c, 0, 73, 0
2, 31672, Note_on_c, 0, 49, 0
2, 31679, Note_on_c, 0, 73, 66
2, 31680, Note_on_c, 0, 77, 93
2, 31680, Note_on_c, 0, 37, 79
2, 31681, Note_on_c, 0, 65, 92
2, 31681, Note_on_c, 0, 70, 57
2, 31684, Control_c, 0, 64, 127
2, 31713, Note_on_c, 0, 49, 66
2, 31716, Note_on_c, 0, 37, 0
2, 31727, Note_on_c, 0, 49, 0
2, 31743, Note_on_c, 0, 55, 68
2, 31772, Note_on_c, 0, 58, 68
2, 31778, Note_on_c, 0, 55, 0
2, 31804, Note_on_c, 0, 61, 67
2, 31805, Note_on_c, 0, 58, 0
2, 31831, Note_on_c, 0, 61, 0
2, 31833, Note_on_c, 0, 60, 69
2, 31864, Note_on_c, 0, 58, 71
2, 31871, Note_on_c, 0, 60, 0
2, 31884, Note_on_c, 0, 77, 0
2, 31893, Note_on_c, 0, 56, 69
2, 31894, Note_on_c, 0, 58, 0
2, 31895, Note_on_c, 0, 65, 0
2, 31919, Note_on_c, 0, 56, 0
2, 31922, Note_on_c, 0, 55, 74
2, 31924, Note_on_c, 0, 76, 87
2, 31925, Control_c, 0, 64, 0
2, 31926, Note_on_c, 0, 64, 74
2, 31928, Note_on_c, 0, 73, 0
2, 31953, Note_on_c, 0, 53, 69
2, 31963, Note_on_c, 0, 55, 0
2, 31984, Note_on_c, 0, 52, 68
2, 31989, Note_on_c, 0, 53, 0
2, 32015, Note_on_c, 0, 49, 67
2, 32017, Note_on_c, 0, 52, 0
2, 32041, Note_on_c, 0, 64, 0
2, 32041, Note_on_c, 0, 49, 0
2, 32043, Note_on_c, 0, 76, 0
2, 32043, Note_on_c, 0, 48, 68
2, 32044, Note_on_c, 0, 70, 0
2, 32075, Note_on_c, 0, 48, 0
2, 32076, Note_on_c, 0, 46, 63
2, 32106, Note_on_c, 0, 44, 63
2, 32110, Note_on_c, 0, 46, 0
2, 32134, Note_on_c, 0, 44, 0
2, 32134, Note_on_c, 0, 43, 59
2, 32162, Note_on_c, 0, 43, 0
2, 32162, Note_on_c, 0, 35, 73
2, 32163, Control_c, 0, 64, 127
2, 32167, Note_on_c, 0, 80, 86
2, 32170, Note_on_c, 0, 76, 66
2, 32171, Note_on_c, 0, 68, 82
2, 32172, Note_on_c, 0, 71, 63
2, 32191, Note_on_c, 0, 35, 0
2, 32192, Note_on_c, 0, 47, 68
2, 32216, Note_on_c, 0, 47, 0
2, 32222, Note_on_c, 0, 52, 72
2, 32251, Note_on_c, 0, 52, 0
2, 32252, Note_on_c, 0, 54, 69
2, 32283, Note_on_c, 0, 56, 75
2, 32284, Note_on_c, 0, 54, 0
2, 32302, Control_c, 0, 64, 0
2, 32311, Note_on_c, 0, 56, 0
2, 32312, Note_on_c, 0, 54, 71
2, 32318, Note_on_c, 0, 71, 0
2, 32321, Note_on_c, 0, 80, 0
2, 32321, Note_on_c, 0, 76, 0
2, 32330, Note_on_c, 0, 68, 0
2, 32340, Note_on_c, 0, 52, 71
2, 32343, Note_on_c, 0, 54, 0
2, 32364, Note_on_c, 0, 52, 0
2, 32374, Note_on_c, 0, 47, 66
2, 32398, Control_c, 0, 64, 127
2, 32403, Note_on_c, 0, 47, 0
2, 32404, Note_on_c, 0, 35, 70
2, 32406, Note_on_c, 0, 78, 87
2, 32408, Note_on_c, 0, 68, 57
2, 32409, Note_on_c, 0, 66, 83
2, 32410, Note_on_c, 0, 71, 67
2, 32430, Note_on_c, 0, 35, 0
2, 32433, Note_on_c, 0, 47, 72
2, 32462, Note_on_c, 0, 47, 0
2, 32462, Note_on_c, 0, 52, 68
2, 32469, Note_on_c, 0, 78, 0
2, 32480, Note_on_c, 0, 66, 0
2, 32482, Note_on_c, 0, 71, 0
2, 32486, Note_on_c, 0, 68, 0
2, 32492, Note_on_c, 0, 54, 71
2, 32496, Note_on_c, 0, 52, 0
2, 32523, Note_on_c, 0, 56, 77
2, 32525, Note_on_c, 0, 54, 0
2, 32529, Note_on_c, 0, 68, 57
2, 32529, Note_on_c, 0, 64, 84
2, 32530, Note_on_c, 0, 76, 90
2, 32531, Note_on_c, 0, 71, 68
2, 32538, Control_c, 0, 64, 0
2, 32548, Note_on_c, 0, 56, 0
2, 32549, Note_on_c, 0, 54, 67
2, 32576, Note_on_c, 0, 76, 0
2, 32578, Note_on_c, 0, 54, 0
2, 32579, Note_on_c, 0, 64, 0
2, 32579, Note_on_c, 0, 52, 73
2, 32584, Note_on_c, 0, 68, 0
2, 32585, Note_on_c, 0, 71, 0
2, 32596, Note_on_c, 0, 52, 0
2, 32609, Note_on_c, 0, 47, 72
2, 32617, Note_on_c, 0, 63, 86
2, 32617, Note_on_c, 0, 75, 85
2, 32618, Note_on_c, 0, 71, 71
2, 32619, Note_on_c, 0, 68, 59
2, 32627, Note_on_c, 0, 68, 0
2, 32628, Note_on_c, 0, 75, 0
2, 32628, Note_on_c, 0, 71, 0
2, 32629, Note_on_c, 0, 63, 0
2, 32635, Note_on_c, 0, 35, 67
2, 32637, Note_on_c, 0, 47, 0
2, 32637, Note_on_c, 0, 75, 86
2, 32638, Note_on_c, 0, 63, 85
2, 32639, Note_on_c, 0, 68, 56
2, 32640, Note_on_c, 0, 71, 65
2, 32648, Control_c, 0, 64, 127
2, 32668, Note_on_c, 0, 47, 70
2, 32669, Note_on_c, 0, 35, 0
2, 32686, Note_on_c, 0, 47, 0
2, 32698, Note_on_c, 0, 53, 71
2, 32730, Note_on_c, 0, 56, 74
2, 32731, Note_on_c, 0, 53, 0
2, 32755, Note_on_c, 0, 56, 0
2, 32757, Note_on_c, 0, 59, 79
2, 32790, Note_on_c, 0, 58, 76
2, 32799, Note_on_c, 0, 59, 0
2, 32823, Note_on_c, 0, 56, 74
2, 32829, Note_on_c, 0, 58, 0
2, 32854, Note_on_c, 0, 63, 0
2, 32855, Note_on_c, 0, 75, 0
2, 32856, Note_on_c, 0, 54, 74
2, 32867, Note_on_c, 0, 56, 0
2, 32882, Note_on_c, 0, 54, 0
2, 32883, Note_on_c, 0, 62, 83
2, 32883, Note_on_c, 0, 53, 72
2, 32885, Note_on_c, 0, 74, 81
2, 32896, Note_on_c, 0, 71, 0
2, 32912, Note_on_c, 0, 51, 71
2, 32913, Control_c, 0, 64, 0
2, 32921, Note_on_c, 0, 53, 0
2, 32941, Note_on_c, 0, 50, 69
2, 32944, Note_on_c, 0, 51, 0
2, 32969, Note_on_c, 0, 50, 0
2, 32971, Note_on_c, 0, 48, 68
2, 32999, Note_on_c, 0, 46, 66
2, 33001, Note_on_c, 0, 62, 0
2, 33003, Note_on_c, 0, 74, 0
2, 33003, Note_on_c, 0, 68, 0
2, 33009, Note_on_c, 0, 48, 0
2, 33031, Note_on_c, 0, 44, 67
2, 33036, Note_on_c, 0, 46, 0
2, 33061, Note_on_c, 0, 42, 67
2, 33072, Note_on_c, 0, 44, 0
2, 33090, Note_on_c, 0, 41, 65
2, 33093, Note_on_c, 0, 42, 0
2, 33114, Control_c, 0, 64, 127
2, 33118, Note_on_c, 0, 41, 0
2, 33126, Note_on_c, 0, 34, 68
2, 33127, Note_on_c, 0, 75, 65
2, 33128, Note_on_c, 0, 79, 83
2, 33129, Note_on_c, 0, 67, 70
2, 33155, Note_on_c, 0, 46, 65
2, 33158, Note_on_c, 0, 34, 0
2, 33173, Note_on_c, 0, 46, 0
2, 33185, Note_on_c, 0, 51, 64
2, 33214, Note_on_c, 0, 53, 64
2, 33221, Note_on_c, 0, 51, 0
2, 33245, Note_on_c, 0, 55, 73
2, 33247, Note_on_c, 0, 53, 0
2, 33261, Control_c, 0, 64, 0
2, 33274, Note_on_c, 0, 53, 68
2, 33282, Note_on_c, 0, 55, 0
2, 33305, Note_on_c, 0, 51, 65
2, 33309, Note_on_c, 0, 53, 0
2, 33320, Note_on_c, 0, 51, 0
2, 33333, Note_on_c, 0, 46, 67
2, 33351, Control_c, 0, 64, 127
2, 33364, Note_on_c, 0, 46, 0
2, 33364, Note_on_c, 0, 34, 71
2, 33395, Note_on_c, 0, 34, 0
2, 33396, Note_on_c, 0, 46, 66
2, 33413, Note_on_c, 0, 46, 0
2, 33425, Note_on_c, 0, 51, 67
2, 33454, Note_on_c, 0, 53, 66
2, 33462, Note_on_c, 0, 51, 0
2, 33485, Note_on_c, 0, 55, 71
2, 33486, Note_on_c, 0, 53, 0
2, 33492, Control_c, 0, 64, 0
2, 33516, Note_on_c, 0, 53, 66
2, 33525, Note_on_c, 0, 55, 0
2, 33544, Note_on_c, 0, 51, 67
2, 33549, Note_on_c, 0, 53, 0
2, 33557, Note_on_c, 0, 79, 0
2, 33558, Note_on_c, 0, 51, 0
2, 33565, Note_on_c, 0, 75, 0
2, 33566, Note_on_c, 0, 67, 0
2, 33571, Note_on_c, 0, 46, 66
2, 33595, Note_on_c, 0, 46, 0
2, 33597, Control_c, 0, 64, 127
2, 33603, Note_on_c, 0, 35, 67
2, 33606, Note_on_c, 0, 79, 79
2, 33607, Note_on_c, 0, 74, 62
2, 33608, Note_on_c, 0, 67, 66
2, 33630, Note_on_c, 0, 35, 0
2, 33635, Note_on_c, 0, 47, 65
2, 33656, Note_on_c, 0, 47, 0
2, 33665, Note_on_c, 0, 50, 66
2, 33696, Note_on_c, 0, 55, 62
2, 33707, Note_on_c, 0, 50, 0
2, 33724, Note_on_c, 0, 62, 67
2, 33729, Note_on_c, 0, 55, 0
2, 33755, Note_on_c, 0, 55, 62
2, 33760, Note_on_c, 0, 62, 0
2, 33785, Note_on_c, 0, 50, 62
2, 33786, Note_on_c, 0, 55, 0
2, 33803, Note_on_c, 0, 50, 0
2, 33814, Note_on_c, 0, 47, 59
2, 33823, Note_on_c, 0, 67, 0
2, 33829, Control_c, 0, 64, 0
2, 33843, Note_on_c, 0, 47, 0
2, 33845, Note_on_c, 0, 35, 58
2, 33847, Control_c, 0, 64, 127
2, 33849, Note_on_c, 0, 67, 66
2, 33868, Note_on_c, 0, 35, 0
2, 33874, Note_on_c, 0, 47, 57
2, 33893, Note_on_c, 0, 47, 0
2, 33902, Note_on_c, 0, 50, 57
2, 33932, Note_on_c, 0, 55, 56
2, 33942, Note_on_c, 0, 50, 0
2, 33964, Note_on_c, 0, 62, 54
2, 33967, Note_on_c, 0, 55, 0
2, 33993, Note_on_c, 0, 62, 0
2, 33995, Note_on_c, 0, 55, 55
2, 34001, Note_on_c, 0, 79, 0
2, 34022, Note_on_c, 0, 50, 53
2, 34026, Note_on_c, 0, 77, 75
2, 34027, Note_on_c, 0, 55, 0
2, 34039, Note_on_c, 0, 50, 0
2, 34053, Note_on_c, 0, 47, 52
2, 34065, Note_on_c, 0, 47, 0
2, 34065, Control_c, 0, 64, 0
2, 34067, Note_on_c, 0, 67, 0
2, 34068, Note_on_c, 0, 74, 0
2, 34070, Note_on_c, 0, 77, 0
2, 34083, Note_on_c, 0, 36, 46
2, 34086, Control_c, 0, 64, 127
2, 34088, Note_on_c, 0, 77, 71
2, 34090, Note_on_c, 0, 72, 58
2, 34091, Note_on_c, 0, 67, 62
2, 34111, Note_on_c, 0, 43, 47
2, 34113, Note_on_c, 0, 36, 0
2, 34144, Note_on_c, 0, 48, 48
2, 34145, Note_on_c, 0, 43, 0
2, 34174, Note_on_c, 0, 50, 49
2, 34175, Note_on_c, 0, 48, 0
2, 34201, Note_on_c, 0, 51, 49
2, 34205, Note_on_c, 0, 50, 0
2, 34229, Note_on_c, 0, 51, 0
2, 34233, Note_on_c, 0, 55, 51
2, 34260, Note_on_c, 0, 55, 0
2, 34262, Note_on_c, 0, 60, 54
2, 34290, Note_on_c, 0, 62, 58
2, 34296, Note_on_c, 0, 60, 0
2, 34307, Control_c, 0, 64, 0
2, 34322, Note_on_c, 0, 62, 0
2, 34322, Control_c, 0, 64, 127
2, 34325, Note_on_c, 0, 63, 60
2, 34327, Note_on_c, 0, 75, 65
2, 34335, Note_on_c, 0, 77, 0
2, 34351, Note_on_c, 0, 63, 0
2, 34351, Note_on_c, 0, 62, 58
2, 34379, Note_on_c, 0, 62, 0
2, 34383, Note_on_c, 0, 60, 55
2, 34410, Note_on_c, 0, 55, 53
2, 34412, Note_on_c, 0, 60, 0
2, 34435, Control_c, 0, 64, 0
2, 34440, Note_on_c, 0, 55, 0
2, 34440, Note_on_c, 0, 51, 51
2, 34470, Note_on_c, 0, 50, 49
2, 34475, Note_on_c, 0, 51, 0
2, 34483, Note_on_c, 0, 75, 0
2, 34483, Note_on_c, 0, 72, 0
2, 34490, Note_on_c, 0, 67, 0
2, 34496, Note_on_c, 0, 50, 0
2, 34502, Note_on_c, 0, 48, 48
2, 34528, Note_on_c, 0, 43, 47
2, 34537, Note_on_c, 0, 48, 0
2, 34548, Note_on_c, 0, 43, 0
2, 34548, Control_c, 0, 64, 127
2, 34561, Note_on_c, 0, 29, 48
2, 34569, Note_on_c, 0, 68, 55
2, 34569, Note_on_c, 0, 75, 69
2, 34571, Note_on_c, 0, 65, 68
2, 34587, Note_on_c, 0, 37, 49
2, 34593, Note_on_c, 0, 29, 0
2, 34615, Note_on_c, 0, 37, 0
2, 34616, Note_on_c, 0, 41, 50
2, 34619, Note_on_c, 0, 77, 62
2, 34628, Note_on_c, 0, 75, 0
2, 34643, Note_on_c, 0, 75, 63
2, 34646, Note_on_c, 0, 41, 0
2, 34646, Note_on_c, 0, 43, 51
2, 34656, Note_on_c, 0, 77, 0
2, 34673, Note_on_c, 0, 73, 67
2, 34674, Note_on_c, 0, 44, 53
2, 34677, Note_on_c, 0, 43, 0
2, 34679, Note_on_c, 0, 75, 0
2, 34704, Note_on_c, 0, 44, 0
2, 34707, Note_on_c, 0, 49, 56
2, 34735, Note_on_c, 0, 49, 0
2, 34736, Note_on_c, 0, 53, 58
2, 34765, Control_c, 0, 64, 0
2, 34765, Note_on_c, 0, 55, 60
2, 34767, Note_on_c, 0, 75, 66
2, 34772, Note_on_c, 0, 53, 0
2, 34784, Control_c, 0, 64, 127
2, 34795, Note_on_c, 0, 77, 68
2, 34796, Note_on_c, 0, 56, 60
2, 34801, Note_on_c, 0, 55, 0
2, 34803, Note_on_c, 0, 73, 0
2, 34813, Note_on_c, 0, 75, 0
2, 34826, Note_on_c, 0, 55, 59
2, 34830, Note_on_c, 0, 56, 0
2, 34852, Note_on_c, 0, 55, 0
2, 34856, Note_on_c, 0, 53, 57
2, 34876, Note_on_c, 0, 68, 0
2, 34885, Note_on_c, 0, 49, 55
2, 34895, Note_on_c, 0, 53, 0
2, 34918, Control_c, 0, 64, 0
2, 34918, Note_on_c, 0, 44, 52
2, 34920, Note_on_c, 0, 49, 0
2, 34922, Note_on_c, 0, 68, 61
2, 34931, Note_on_c, 0, 77, 0
2, 34938, Note_on_c, 0, 44, 0
2, 34948, Note_on_c, 0, 41, 50
2, 34982, Note_on_c, 0, 37, 48
2, 34991, Note_on_c, 0, 41, 0
2, 35010, Note_on_c, 0, 32, 47
2, 35011, Note_on_c, 0, 65, 0
2, 35018, Note_on_c, 0, 37, 0
2, 35038, Control_c, 0, 64, 127
2, 35041, Note_on_c, 0, 31, 48
2, 35042, Note_on_c, 0, 63, 53
2, 35044, Note_on_c, 0, 72, 67
2, 35047, Note_on_c, 0, 32, 0
2, 35057, Note_on_c, 0, 68, 0
2, 35082, Note_on_c, 0, 31, 0
2, 35102, Note_on_c, 0, 40, 50
2, 35123, Control_c, 0, 64, 0
2, 35132, Note_on_c, 0, 39, 52
2, 35133, Note_on_c, 0, 40, 0
2, 35161, Note_on_c, 0, 39, 0
2, 35162, Note_on_c, 0, 41, 49
2, 35191, Note_on_c, 0, 40, 52
2, 35198, Note_on_c, 0, 41, 0
2, 35221, Note_on_c, 0, 42, 51
2, 35222, Note_on_c, 0, 40, 0
2, 35250, Note_on_c, 0, 41, 53
2, 35254, Note_on_c, 0, 42, 0
2, 35278, Note_on_c, 0, 41, 0
2, 35282, Note_on_c, 0, 43, 52
2, 35311, Note_on_c, 0, 42, 53
2, 35315, Note_on_c, 0, 43, 0
2, 35340, Note_on_c, 0, 42, 0
2, 35342, Note_on_c, 0, 44, 52
2, 35369, Note_on_c, 0, 43, 50
2, 35372, Note_on_c, 0, 44, 0
2, 35398, Note_on_c, 0, 43, 0
2, 35400, Note_on_c, 0, 45, 50
2, 35430, Note_on_c, 0, 44, 49
2, 35431, Note_on_c, 0, 45, 0
2, 35462, Note_on_c, 0, 46, 50
2, 35465, Note_on_c, 0, 44, 0
2, 35492, Note_on_c, 0, 45, 50
2, 35495, Note_on_c, 0, 46, 0
2, 35518, Note_on_c, 0, 45, 0
2, 35522, Note_on_c, 0, 47, 50
2, 35550, Note_on_c, 0, 46, 50
2, 35555, Note_on_c, 0, 47, 0
2, 35581, Note_on_c, 0, 46, 0
2, 35584, Note_on_c, 0, 48, 49
2, 35612, Note_on_c, 0, 47, 49
2, 35619, Note_on_c, 0, 48, 0
2, 35643, Note_on_c, 0, 49, 49
2, 35647, Note_on_c, 0, 47, 0
2, 35671, Note_on_c, 0, 48, 49
2, 35676, Note_on_c, 0, 49, 0
2, 35700, Note_on_c, 0, 48, 0
2, 35704, Note_on_c, 0, 50, 49
2, 35731, Note_on_c, 0, 49, 50
2, 35738, Note_on_c, 0, 50, 0
2, 35760, Note_on_c, 0, 49, 0
2, 35761, Note_on_c, 0, 51, 49
2, 35791, Note_on_c, 0, 50, 49
2, 35796, Note_on_c, 0, 51, 0
2, 35819, Note_on_c, 0, 50, 0
2, 35822, Note_on_c, 0, 52, 51
2, 35852, Note_on_c, 0, 51, 51
2, 35857, Note_on_c, 0, 52, 0
2, 35880, Note_on_c, 0, 51, 0
2, 35882, Note_on_c, 0, 72, 0
2, 35883, Note_on_c, 0, 53, 53
2, 35891, Note_on_c, 0, 63, 0
2, 35911, Note_on_c, 0, 52, 52
2, 35918, Note_on_c, 0, 53, 0
2, 35942, Note_on_c, 0, 54, 51
2, 35946, Note_on_c, 0, 52, 0
2, 35971, Note_on_c, 0, 53, 51
2, 35974, Note_on_c, 0, 54, 0
2, 35998, Note_on_c, 0, 53, 0
2, 36002, Note_on_c, 0, 72, 67
2, 36002, Note_on_c, 0, 55, 53
2, 36007, Note_on_c, 0, 65, 51
2, 36007, Note_on_c, 0, 62, 48
2, 36032, Note_on_c, 0, 54, 53
2, 36039, Note_on_c, 0, 55, 0
2, 36061, Note_on_c, 0, 54, 0
2, 36062, Note_on_c, 0, 56, 51
2, 36087, Note_on_c, 0, 55, 53
2, 36088, Note_on_c, 0, 56, 0
2, 36122, Note_on_c, 0, 55, 0
2, 36122, Note_on_c, 0, 58, 54
2, 36151, Note_on_c, 0, 56, 52
2, 36156, Note_on_c, 0, 58, 0
2, 36180, Note_on_c, 0, 56, 0
2, 36181, Note_on_c, 0, 71, 62
2, 36184, Note_on_c, 0, 55, 52
2, 36187, Note_on_c, 0, 72, 0
2, 36212, Note_on_c, 0, 53, 52
2, 36230, Note_on_c, 0, 55, 0
2, 36247, Note_on_c, 0, 51, 55
2, 36248, Note_on_c, 0, 74, 56
2, 36252, Note_on_c, 0, 53, 0
2, 36256, Note_on_c, 0, 71, 0
2, 36272, Note_on_c, 0, 62, 0
2, 36272, Note_on_c, 0, 65, 0
2, 36272, Note_on_c, 0, 50, 53
2, 36280, Note_on_c, 0, 51, 0
2, 36295, Note_on_c, 0, 50, 0
2, 36301, Note_on_c, 0, 53, 53
2, 36333, Note_on_c, 0, 51, 53
2, 36335, Note_on_c, 0, 53, 0
2, 36361, Note_on_c, 0, 74, 0
2, 36364, Note_on_c, 0, 51, 0
2, 36364, Note_on_c, 0, 55, 54
2, 36394, Note_on_c, 0, 53, 54
2, 36397, Note_on_c, 0, 55, 0
2, 36423, Note_on_c, 0, 51, 54
2, 36425, Note_on_c, 0, 53, 0
2, 36450, Note_on_c, 0, 51, 0
2, 36452, Note_on_c, 0, 50, 53
2, 36481, Note_on_c, 0, 48, 54
2, 36490, Note_on_c, 0, 50, 0
2, 36507, Note_on_c, 0, 47, 53
2, 36512, Note_on_c, 0, 48, 0
2, 36538, Note_on_c, 0, 47, 0
2, 36540, Note_on_c, 0, 50, 52
2, 36571, Note_on_c, 0, 48, 52
2, 36577, Note_on_c, 0, 50, 0
2, 36601, Note_on_c, 0, 47, 52
2, 36605, Note_on_c, 0, 48, 0
2, 36632, Note_on_c, 0, 44, 52
2, 36633, Note_on_c, 0, 47, 0
2, 36663, Note_on_c, 0, 44, 0
2, 36664, Note_on_c, 0, 43, 53
2, 36691, Note_on_c, 0, 42, 52
2, 36698, Note_on_c, 0, 43, 0
2, 36723, Note_on_c, 0, 43, 52
2, 36724, Note_on_c, 0, 42, 0
2, 36755, Note_on_c, 0, 44, 52
2, 36759, Note_on_c, 0, 43, 0
2, 36783, Note_on_c, 0, 41, 52
2, 36791, Note_on_c, 0, 44, 0
2, 36815, Note_on_c, 0, 43, 52
2, 36820, Note_on_c, 0, 41, 0
2, 36843, Note_on_c, 0, 39, 53
2, 36848, Note_on_c, 0, 43, 0
2, 36873, Note_on_c, 0, 41, 52
2, 36879, Note_on_c, 0, 39, 0
2, 36903, Note_on_c, 0, 41, 0
2, 36904, Note_on_c, 0, 38, 53
2, 36933, Note_on_c, 0, 39, 58
2, 36934, Note_on_c, 0, 38, 0
2, 36961, Note_on_c, 0, 39, 0
2, 36962, Note_on_c, 0, 60, 73
2, 36962, Note_on_c, 0, 72, 79
2, 36964, Note_on_c, 0, 36, 59
2, 36976, Note_on_c, 0, 60, 0
2, 36992, Note_on_c, 0, 36, 0
2, 37026, Note_on_c, 0, 61, 66
2, 37055, Note_on_c, 0, 61, 0
2, 37056, Note_on_c, 0, 60, 68
2, 37086, Note_on_c, 0, 58, 64
2, 37093, Note_on_c, 0, 60, 0
2, 37113, Note_on_c, 0, 55, 59
2, 37118, Note_on_c, 0, 58, 0
2, 37145, Note_on_c, 0, 56, 63
2, 37148, Note_on_c, 0, 55, 0
2, 37173, Note_on_c, 0, 56, 0
2, 37175, Note_on_c, 0, 55, 61
2, 37203, Note_on_c, 0, 52, 60
2, 37210, Note_on_c, 0, 55, 0
2, 37232, Note_on_c, 0, 48, 61
2, 37234, Note_on_c, 0, 52, 0
2, 37264, Note_on_c, 0, 49, 63
2, 37267, Note_on_c, 0, 48, 0
2, 37290, Note_on_c, 0, 49, 0
2, 37293, Note_on_c, 0, 48, 64
2, 37323, Note_on_c, 0, 46, 66
2, 37328, Note_on_c, 0, 48, 0
2, 37350, Note_on_c, 0, 43, 63
2, 37353, Note_on_c, 0, 46, 0
2, 37382, Note_on_c, 0, 44, 63
2, 37385, Note_on_c, 0, 43, 0
2, 37409, Note_on_c, 0, 44, 0
2, 37412, Note_on_c, 0, 43, 62
2, 37440, Note_on_c, 0, 41, 52
2, 37444, Control_c, 0, 64, 127
2, 37445, Note_on_c, 0, 65, 56
2, 37446, Note_on_c, 0, 68, 64
2, 37447, Note_on_c, 0, 43, 0
2, 37470, Note_on_c, 0, 36, 54
2, 37471, Note_on_c, 0, 41, 0
2, 37502, Note_on_c, 0, 41, 53
2, 37506, Note_on_c, 0, 36, 0
2, 37532, Note_on_c, 0, 36, 54
2, 37533, Note_on_c, 0, 41, 0
2, 37563, Note_on_c, 0, 41, 54
2, 37567, Note_on_c, 0, 36, 0
2, 37593, Note_on_c, 0, 36, 53
2, 37595, Note_on_c, 0, 41, 0
2, 37622, Note_on_c, 0, 41, 52
2, 37628, Note_on_c, 0, 36, 0
2, 37653, Note_on_c, 0, 36, 51
2, 37654, Note_on_c, 0, 41, 0
2, 37684, Note_on_c, 0, 41, 53
2, 37686, Note_on_c, 0, 74, 81
2, 37689, Note_on_c, 0, 36, 0
2, 37692, Note_on_c, 0, 72, 0
2, 37713, Note_on_c, 0, 36, 53
2, 37715, Note_on_c, 0, 41, 0
2, 37743, Note_on_c, 0, 41, 53
2, 37749, Note_on_c, 0, 36, 0
2, 37771, Note_on_c, 0, 36, 53
2, 37772, Note_on_c, 0, 41, 0
2, 37804, Note_on_c, 0, 41, 52
2, 37808, Note_on_c, 0, 36, 0
2, 37832, Note_on_c, 0, 36, 53
2, 37835, Note_on_c, 0, 41, 0
2, 37863, Note_on_c, 0, 41, 54
2, 37869, Note_on_c, 0, 36, 0
2, 37888, Note_on_c, 0, 68, 0
2, 37894, Note_on_c, 0, 36, 55
2, 37896, Note_on_c, 0, 41, 0
2, 37897, Note_on_c, 0, 65, 0
2, 37907, Note_on_c, 0, 74, 0
2, 37924, Note_on_c, 0, 64, 68
2, 37925, Note_on_c, 0, 67, 56
2, 37925, Note_on_c, 0, 48, 69
2, 37926, Note_on_c, 0, 76, 75
2, 37926, Control_c, 0, 64, 0
2, 37927, Note_on_c, 0, 36, 0
2, 37949, Note_on_c, 0, 48, 0
2, 37983, Note_on_c, 0, 61, 62
2, 38012, Note_on_c, 0, 61, 0
2, 38013, Note_on_c, 0, 60, 60
2, 38044, Note_on_c, 0, 58, 58
2, 38052, Note_on_c, 0, 60, 0
2, 38071, Note_on_c, 0, 55, 61
2, 38076, Note_on_c, 0, 58, 0
2, 38103, Note_on_c, 0, 56, 64
2, 38107, Note_on_c, 0, 55, 0
2, 38131, Note_on_c, 0, 56, 0
2, 38134, Note_on_c, 0, 55, 62
2, 38164, Note_on_c, 0, 52, 58
2, 38171, Note_on_c, 0, 55, 0
2, 38193, Note_on_c, 0, 48, 61
2, 38195, Note_on_c, 0, 52, 0
2, 38224, Note_on_c, 0, 49, 59
2, 38226, Note_on_c, 0, 48, 0
2, 38239, Note_on_c, 0, 76, 0
2, 38244, Note_on_c, 0, 67, 0
2, 38247, Note_on_c, 0, 64, 0
2, 38250, Note_on_c, 0, 49, 0
2, 38253, Note_on_c, 0, 48, 60
2, 38284, Note_on_c, 0, 46, 60
2, 38294, Note_on_c, 0, 48, 0
2, 38313, Note_on_c, 0, 43, 61
2, 38315, Note_on_c, 0, 46, 0
2, 38345, Note_on_c, 0, 44, 60
2, 38349, Note_on_c, 0, 43, 0
2, 38372, Note_on_c, 0, 44, 0
2, 38374, Note_on_c, 0, 43, 59
2, 38403, Note_on_c, 0, 41, 61
2, 38404, Note_on_c, 0, 72, 82
2, 38404, Note_on_c, 0, 60, 57
2, 38404, Note_on_c, 0, 68, 68
2, 38404, Note_on_c, 0, 67, 49
2, 38411, Note_on_c, 0, 43, 0
2, 38414, Control_c, 0, 64, 127
2, 38433, Note_on_c, 0, 36, 54
2, 38435, Note_on_c, 0, 41, 0
2, 38463, Note_on_c, 0, 41, 54
2, 38469, Note_on_c, 0, 36, 0
2, 38492, Note_on_c, 0, 36, 54
2, 38494, Note_on_c, 0, 41, 0
2, 38524, Note_on_c, 0, 41, 58
2, 38527, Note_on_c, 0, 36, 0
2, 38555, Note_on_c, 0, 36, 60
2, 38556, Note_on_c, 0, 41, 0
2, 38566, Note_on_c, 0, 67, 0
2, 38584, Note_on_c, 0, 41, 60
2, 38588, Note_on_c, 0, 36, 0
2, 38612, Note_on_c, 0, 36, 63
2, 38613, Note_on_c, 0, 41, 0
2, 38642, Note_on_c, 0, 41, 64
2, 38643, Note_on_c, 0, 65, 68
2, 38646, Note_on_c, 0, 36, 0
2, 38671, Note_on_c, 0, 36, 65
2, 38673, Note_on_c, 0, 41, 0
2, 38684, Note_on_c, 0, 72, 0
2, 38704, Note_on_c, 0, 41, 66
2, 38709, Note_on_c, 0, 36, 0
2, 38734, Note_on_c, 0, 36, 69
2, 38735, Note_on_c, 0, 41, 0
2, 38761, Note_on_c, 0, 71, 69
2, 38763, Note_on_c, 0, 74, 78
2, 38764, Note_on_c, 0, 41, 72
2, 38769, Note_on_c, 0, 36, 0
2, 38794, Note_on_c, 0, 36, 76
2, 38795, Note_on_c, 0, 41, 0
2, 38812, Note_on_c, 0, 65, 0
2, 38816, Note_on_c, 0, 60, 0
2, 38818, Note_on_c, 0, 71, 0
2, 38819, Note_on_c, 0, 74, 0
2, 38824, Note_on_c, 0, 41, 81
2, 38825, Note_on_c, 0, 68, 0
2, 38828, Note_on_c, 0, 36, 0
2, 38840, Control_c, 0, 64, 0
2, 38853, Note_on_c, 0, 36, 84
2, 38857, Note_on_c, 0, 41, 0
2, 38881, Control_c, 0, 64, 127
2, 38885, Note_on_c, 0, 64, 84
2, 38886, Note_on_c, 0, 67, 70
2, 38886, Note_on_c, 0, 76, 88
2, 38887, Note_on_c, 0, 72, 66
2, 38887, Note_on_c, 0, 48, 90
2, 38894, Note_on_c, 0, 36, 0
2, 38909, Note_on_c, 0, 64, 0
2, 38911, Note_on_c, 0, 72, 0
2, 38911, Note_on_c, 0, 48, 0
2, 38912, Note_on_c, 0, 76, 0
2, 38912, Note_on_c, 0, 67, 0
2, 38942, Note_on_c, 0, 80, 84
2, 38952, Note_on_c, 0, 92, 86
2, 38967, Note_on_c, 0, 80, 0
2, 38972, Note_on_c, 0, 79, 83
2, 38978, Note_on_c, 0, 91, 85
2, 38981, Note_on_c, 0, 92, 0
2, 39002, Note_on_c, 0, 76, 91
2, 39005, Note_on_c, 0, 91, 0
2, 39005, Note_on_c, 0, 79, 0
2, 39006, Note_on_c, 0, 88, 92
2, 39032, Note_on_c, 0, 72, 88
2, 39034, Note_on_c, 0, 84, 86
2, 39035, Note_on_c, 0, 88, 0
2, 39035, Note_on_c, 0, 76, 0
2, 39062, Note_on_c, 0, 73, 87
2, 39063, Note_on_c, 0, 72, 0
2, 39065, Note_on_c, 0, 85, 87
2, 39070, Note_on_c, 0, 84, 0
2, 39090, Note_on_c, 0, 72, 86
2, 39091, Note_on_c, 0, 73, 0
2, 39091, Note_on_c, 0, 84, 89
2, 39092, Note_on_c, 0, 85, 0
2, 39120, Note_on_c, 0, 70, 90
2, 39122, Note_on_c, 0, 84, 0
2, 39122, Note_on_c, 0, 82, 90
2, 39128, Note_on_c, 0, 72, 0
2, 39149, Note_on_c, 0, 82, 0
2, 39149, Note_on_c, 0, 67, 87
2, 39150, Note_on_c, 0, 79, 87
2, 39152, Note_on_c, 0, 70, 0
2, 39180, Note_on_c, 0, 68, 87
2, 39183, Note_on_c, 0, 67, 0
2, 39183, Note_on_c, 0, 80, 85
2, 39188, Note_on_c, 0, 79, 0
2, 39209, Note_on_c, 0, 79, 87
2, 39210, Note_on_c, 0, 68, 0
2, 39210, Note_on_c, 0, 67, 87
2, 39213, Note_on_c, 0, 80, 0
2, 39238, Note_on_c, 0, 64, 92
2, 39244, Note_on_c, 0, 79, 0
2, 39244, Note_on_c, 0, 76, 92
2, 39245, Note_on_c, 0, 67, 0
2, 39269, Note_on_c, 0, 60, 85
2, 39271, Note_on_c, 0, 76, 0
2, 39273, Note_on_c, 0, 64, 0
2, 39273, Note_on_c, 0, 72, 86
2, 39300, Note_on_c, 0, 61, 84
2, 39304, Note_on_c, 0, 60, 0
2, 39304, Note_on_c, 0, 73, 89
2, 39310, Note_on_c, 0, 72, 0
2, 39328, Note_on_c, 0, 60, 87
2, 39329, Note_on_c, 0, 72, 89
2, 39330, Note_on_c, 0, 61, 0
2, 39333, Note_on_c, 0, 73, 0
2, 39359, Note_on_c, 0, 58, 90
2, 39361, Note_on_c, 0, 72, 0
2, 39361, Note_on_c, 0, 70, 94
2, 39366, Note_on_c, 0, 60, 0
2, 39386, Note_on_c, 0, 55, 85
2, 39388, Note_on_c, 0, 70, 0
2, 39390, Note_on_c, 0, 67, 88
2, 39392, Note_on_c, 0, 58, 0
2, 39418, Note_on_c, 0, 56, 86
2, 39421, Note_on_c, 0, 55, 0
2, 39422, Note_on_c, 0, 68, 87
2, 39427, Note_on_c, 0, 67, 0
2, 39447, Note_on_c, 0, 55, 85
2, 39448, Note_on_c, 0, 56, 0
2, 39448, Note_on_c, 0, 67, 87
2, 39454, Note_on_c, 0, 68, 0
2, 39477, Note_on_c, 0, 52, 89
2, 39479, Note_on_c, 0, 64, 94
2, 39481, Note_on_c, 0, 67, 0
2, 39484, Note_on_c, 0, 55, 0
2, 39507, Note_on_c, 0, 64, 0
2, 39509, Note_on_c, 0, 48, 83
2, 39510, Note_on_c, 0, 60, 87
2, 39512, Note_on_c, 0, 52, 0
2, 39541, Note_on_c, 0, 49, 86
2, 39542, Note_on_c, 0, 61, 87
2, 39544, Note_on_c, 0, 48, 0
2, 39547, Note_on_c, 0, 60, 0
2, 39569, Note_on_c, 0, 49, 0
2, 39569, Note_on_c, 0, 48, 86
2, 39570, Note_on_c, 0, 60, 86
2, 39575, Note_on_c, 0, 61, 0
2, 39601, Note_on_c, 0, 46, 90
2, 39603, Control_c, 0, 64, 0
2, 39604, Note_on_c, 0, 60, 0
2, 39604, Note_on_c, 0, 58, 92
2, 39608, Note_on_c, 0, 48, 0
2, 39628, Note_on_c, 0, 43, 84
2, 39631, Note_on_c, 0, 58, 0
2, 39634, Note_on_c, 0, 46, 0
2, 39634, Note_on_c, 0, 55, 86
2, 39660, Note_on_c, 0, 44, 83
2, 39661, Note_on_c, 0, 43, 0
2, 39664, Note_on_c, 0, 56, 86
2, 39672, Note_on_c, 0, 55, 0
2, 39688, Note_on_c, 0, 44, 0
2, 39689, Note_on_c, 0, 43, 85
2, 39691, Note_on_c, 0, 55, 86
2, 39702, Note_on_c, 0, 56, 0
2, 39720, Note_on_c, 0, 40, 88
2, 39726, Note_on_c, 0, 52, 92
2, 39727, Note_on_c, 0, 55, 0
2, 39730, Note_on_c, 0, 43, 0
2, 39749, Note_on_c, 0, 36, 85
2, 39750, Note_on_c, 0, 52, 0
2, 39752, Note_on_c, 0, 40, 0
2, 39752, Note_on_c, 0, 48, 86
2, 39781, Note_on_c, 0, 37, 86
2, 39783, Note_on_c, 0, 36, 0
2, 39785, Note_on_c, 0, 49, 85
2, 39787, Note_on_c, 0, 48, 0
2, 39809, Note_on_c, 0, 36, 86
2, 39811, Note_on_c, 0, 37, 0
2, 39813, Note_on_c, 0, 49, 0
2, 39814, Note_on_c, 0, 48, 84
2, 39829, Note_on_c, 0, 48, 0
2, 39840, Note_on_c, 0, 36, 0
2, 39840, Note_on_c, 0, 53, 77
2, 39840, Note_on_c, 0, 41, 89
2, 39840, Note_on_c, 0, 48, 94
2, 39840, Note_on_c, 0, 57, 89
2, 39840, Note_on_c, 0, 29, 93
2, 39840, Note_on_c, 0, 60, 93
2, 39850, Control_c, 0, 64, 127
2, 40041, Note_on_c, 0, 48, 0
2, 40041, Note_on_c, 0, 53, 0
2, 40043, Note_on_c, 0, 57, 0
2, 40043, Note_on_c, 0, 29, 0
2, 40043, Note_on_c, 0, 60, 0
2, 40045, Control_c, 0, 64, 0
2, 40046, Note_on_c, 0, 41, 0
2, 40080, Note_on_c, 0, 29, 96
2, 40080, Note_on_c, 0, 60, 91
2, 40080, Note_on_c, 0, 48, 92
2, 40080, Note_on_c, 0, 41, 93
2, 40080, Note_on_c, 0, 56, 87
2, 40080, Note_on_c, 0, 53, 70
2, 40094, Control_c, 0, 64, 127
2, 40251, Note_on_c, 0, 41, 0
2, 40261, Note_on_c, 0, 29, 0
2, 40268, Note_on_c, 0, 60, 0
2, 40270, Control_c, 0, 64, 1
2, 40272, Control_c, 0, 64, 0
2, 40275, Note_on_c, 0, 48, 0
2, 40278, Note_on_c, 0, 56, 0
2, 40279, Note_on_c, 0, 53, 0
2, 40320, Note_on_c, 0, 48, 93
2, 40320, Note_on_c, 0, 24, 96
2, 40320, Note_on_c, 0, 36, 93
2, 40320, Note_on_c, 0, 53, 92
2, 40320, Note_on_c, 0, 55, 73
2, 40320, Note_on_c, 0, 60, 93
2, 40347, Note_on_c, 0, 36, 0
2, 40347, Note_on_c, 0, 24, 0
2, 40353, Note_on_c, 0, 48, 0
2, 40353, Note_on_c, 0, 60, 0
2, 40355, Note_on_c, 0, 55, 0
2, 40358, Note_on_c, 0, 53, 0
2, 40440, Note_on_c, 0, 60, 94
2, 40440, Note_on_c, 0, 55, 73
2, 40440, Note_on_c, 0, 24, 97
2, 40440, Note_on_c, 0, 52, 94
2, 40440, Note_on_c, 0, 36, 94
2, 40440, Note_on_c, 0, 48, 93
2, 40469, Note_on_c, 0, 48, 0
2, 40469, Note_on_c, 0, 36, 0
2, 40470, Note_on_c, 0, 24, 0
2, 40470, Note_on_c, 0, 60, 0
2, 40470, Note_on_c, 0, 55, 0
2, 40470, Note_on_c, 0, 52, 0
2, 40470, End_track
3, 0, Start_track
3, 0, MIDI_port, 0
3, 0, Title_t, "In C Minor"
3, 0, End_track
4, 0, Start_track
4, 0, MIDI_port, 0
4, 0, Title_t, "Op. 10, No. 12"
4, 0, End_track
5, 0, Start_track
5, 0, MIDI_port, 0
5, 0, Title_t, "Chopin, Frederic"
5, 0, End_track
6, 0, Start_track
6, 0, MIDI_port, 0
6, 0, Title_t, "Sequenced by Anousone Kitisa"
6, 0, End_track
0, 0, End_of_file
